tick,type,time,meta,track,numerator,denominator,clocks_per_click,notated_32nd_notes_per_beat,key,tempo,port,program,channel,control,value,note,velocity
0,track_name,0,1,0,,,,,,,,,,,,,
0,control_change,0,0,3,,,,,,,,,2,7,127,,
0,program_change,0,0,3,,,,,,,,0,2,,,,
0,track_name,0,1,3,,,,,,,,,,,,,
0,midi_port,0,1,3,,,,,,,0,,,,,,
0,control_change,0,0,2,,,,,,,,,1,10,97,,
0,control_change,0,0,2,,,,,,,,,1,7,127,,
0,track_name,0,1,2,,,,,,,,,,,,,
0,midi_port,0,1,2,,,,,,,0,,,,,,
0,midi_port,0,1,4,,,,,,,0,,,,,,
0,track_name,0,1,4,,,,,,,,,,,,,
0,program_change,0,0,4,,,,,,,,0,3,,,,
0,control_change,0,0,4,,,,,,,,,3,7,127,,
0,control_change,0,0,4,,,,,,,,,3,10,30,,
0,midi_port,0,1,1,,,,,,,0,,,,,,
0,track_name,0,1,1,,,,,,,,,,,,,
0,program_change,0,0,1,,,,,,,,0,0,,,,
0,control_change,0,0,1,,,,,,,,,0,7,127,,
0,control_change,0,0,1,,,,,,,,,0,10,97,,
0,note_on,0,0,1,,,,,,,,,0,,,86,49
0,control_change,0,0,3,,,,,,,,,2,10,30,,
0,note_on,0,0,3,,,,,,,,,2,,,74,36
0,program_change,0,0,2,,,,,,,,0,1,,,,
0,key_signature,0,1,0,,,,,G,,,,,,,,
0,text,0,1,0,,,,,,,,,,,,,
0,copyright,0,1,0,,,,,,,,,,,,,
0,set_tempo,0,1,0,,,,,,333333,,,,,,,
0,time_signature,0,1,0,1,4,24,8,,,,,,,,,
60,note_on,0,0,1,,,,,,,,,0,,,83,49
60,note_on,60,0,3,,,,,,,,,2,,,74,0
60,note_on,0,0,3,,,,,,,,,2,,,71,36
60,note_on,60,0,1,,,,,,,,,0,,,86,0
120,control_change,0,0,3,,,,,,,,,2,64,127,,
120,note_on,60,0,3,,,,,,,,,2,,,71,0
120,note_on,0,0,1,,,,,,,,,0,,,86,49
120,control_change,0,0,1,,,,,,,,,0,64,127,,
120,note_on,60,0,1,,,,,,,,,0,,,83,0
120,note_on,0,0,3,,,,,,,,,2,,,74,36
120,time_signature,120,1,0,3,4,24,8,,,,,,,,,
300,note_on,180,0,1,,,,,,,,,0,,,86,0
300,note_on,0,0,1,,,,,,,,,0,,,83,49
300,note_on,0,0,3,,,,,,,,,2,,,71,36
300,note_on,180,0,3,,,,,,,,,2,,,74,0
360,note_on,60,0,3,,,,,,,,,2,,,71,0
360,note_on,0,0,1,,,,,,,,,0,,,84,49
360,note_on,60,0,1,,,,,,,,,0,,,83,0
360,note_on,0,0,3,,,,,,,,,2,,,72,36
420,note_on,0,0,3,,,,,,,,,2,,,74,36
420,note_on,0,0,1,,,,,,,,,0,,,86,49
420,note_on,60,0,1,,,,,,,,,0,,,84,0
420,note_on,60,0,3,,,,,,,,,2,,,72,0
480,note_on,0,0,3,,,,,,,,,2,,,62,36
480,control_change,0,0,3,,,,,,,,,2,64,0,,
480,note_on,60,0,1,,,,,,,,,0,,,86,0
480,control_change,0,0,1,,,,,,,,,0,64,0,,
480,note_on,60,0,3,,,,,,,,,2,,,74,0
480,note_on,0,0,1,,,,,,,,,0,,,74,49
492,note_on,12,0,1,,,,,,,,,0,,,74,0
492,note_on,12,0,3,,,,,,,,,2,,,62,0
600,note_on,108,0,1,,,,,,,,,0,,,74,49
600,note_on,108,0,3,,,,,,,,,2,,,62,36
612,note_on,12,0,1,,,,,,,,,0,,,74,0
612,note_on,12,0,3,,,,,,,,,2,,,62,0
720,note_on,108,0,3,,,,,,,,,2,,,67,36
720,note_on,108,0,1,,,,,,,,,0,,,79,49
780,note_on,60,0,1,,,,,,,,,0,,,79,0
780,note_on,60,0,3,,,,,,,,,2,,,67,0
780,note_on,0,0,3,,,,,,,,,2,,,62,36
780,note_on,0,0,1,,,,,,,,,0,,,74,49
840,note_on,60,0,1,,,,,,,,,0,,,74,0
840,note_on,60,0,3,,,,,,,,,2,,,62,0
840,control_change,0,0,3,,,,,,,,,2,64,127,,
840,note_on,0,0,3,,,,,,,,,2,,,67,36
840,note_on,0,0,1,,,,,,,,,0,,,79,49
840,control_change,0,0,1,,,,,,,,,0,64,127,,
1020,note_on,180,0,3,,,,,,,,,2,,,67,0
1020,note_on,0,0,1,,,,,,,,,0,,,71,49
1020,note_on,0,0,3,,,,,,,,,2,,,59,36
1020,note_on,180,0,1,,,,,,,,,0,,,79,0
1080,note_on,60,0,3,,,,,,,,,2,,,59,0
1080,note_on,0,0,1,,,,,,,,,0,,,72,49
1080,note_on,0,0,3,,,,,,,,,2,,,60,36
1080,note_on,60,0,1,,,,,,,,,0,,,71,0
1140,note_on,0,0,1,,,,,,,,,0,,,74,49
1140,note_on,0,0,3,,,,,,,,,2,,,62,36
1140,note_on,60,0,3,,,,,,,,,2,,,60,0
1140,note_on,60,0,1,,,,,,,,,0,,,72,0
1200,control_change,0,0,1,,,,,,,,,0,64,0,,
1200,note_on,0,0,1,,,,,,,,,0,,,67,49
1200,note_on,60,0,3,,,,,,,,,2,,,62,0
1200,note_on,0,0,3,,,,,,,,,2,,,55,36
1200,note_on,60,0,1,,,,,,,,,0,,,74,0
1200,control_change,0,0,3,,,,,,,,,2,64,0,,
1212,note_on,12,0,3,,,,,,,,,2,,,55,0
1212,note_on,12,0,1,,,,,,,,,0,,,67,0
1320,note_on,108,0,1,,,,,,,,,0,,,67,49
1320,note_on,108,0,3,,,,,,,,,2,,,55,36
1332,note_on,12,0,3,,,,,,,,,2,,,55,0
1332,note_on,12,0,1,,,,,,,,,0,,,67,0
1440,note_on,1440,0,2,,,,,,,,,1,,,59,75
1440,note_on,0,0,2,,,,,,,,,1,,,62,75
1440,note_on,0,0,3,,,,,,,,,2,,,55,75
1440,note_on,0,0,3,,,,,,,,,2,,,50,75
1440,note_on,108,0,1,,,,,,,,,0,,,71,88
1440,note_on,108,0,3,,,,,,,,,2,,,43,75
1500,note_on,0,0,1,,,,,,,,,0,,,67,88
1500,note_on,60,0,1,,,,,,,,,0,,,71,0
1560,note_on,0,0,1,,,,,,,,,0,,,71,114
1560,note_on,120,0,3,,,,,,,,,2,,,55,0
1560,note_on,0,0,3,,,,,,,,,2,,,50,0
1560,note_on,0,0,3,,,,,,,,,2,,,43,0
1560,note_on,0,0,3,,,,,,,,,2,,,43,91
1560,note_on,0,0,3,,,,,,,,,2,,,50,96
1560,note_on,0,0,3,,,,,,,,,2,,,55,101
1560,note_on,0,0,2,,,,,,,,,1,,,59,0
1560,note_on,120,0,2,,,,,,,,,1,,,62,0
1560,note_on,0,0,2,,,,,,,,,1,,,59,75
1560,note_on,0,0,2,,,,,,,,,1,,,62,75
1560,note_on,60,0,1,,,,,,,,,0,,,67,0
1800,note_on,0,0,2,,,,,,,,,1,,,60,36
1800,note_on,0,0,3,,,,,,,,,2,,,43,0
1800,note_on,0,0,3,,,,,,,,,2,,,50,0
1800,note_on,240,0,3,,,,,,,,,2,,,55,0
1800,note_on,0,0,3,,,,,,,,,2,,,54,36
1800,note_on,240,0,2,,,,,,,,,1,,,62,0
1800,note_on,0,0,2,,,,,,,,,1,,,62,36
1800,note_on,0,0,3,,,,,,,,,2,,,50,36
1800,note_on,0,0,3,,,,,,,,,2,,,45,36
1800,note_on,0,0,2,,,,,,,,,1,,,59,0
1800,note_on,240,0,1,,,,,,,,,0,,,71,0
1800,note_on,0,0,1,,,,,,,,,0,,,69,49
1860,note_on,60,0,1,,,,,,,,,0,,,69,0
1860,note_on,0,0,1,,,,,,,,,0,,,66,49
1920,note_on,0,0,3,,,,,,,,,2,,,47,36
1920,note_on,0,0,3,,,,,,,,,2,,,50,36
1920,note_on,0,0,3,,,,,,,,,2,,,55,36
1920,note_on,0,0,3,,,,,,,,,2,,,50,0
1920,note_on,120,0,3,,,,,,,,,2,,,54,0
1920,control_change,0,0,3,,,,,,,,,2,64,127,,
1920,note_on,0,0,3,,,,,,,,,2,,,45,0
1920,note_on,0,0,1,,,,,,,,,0,,,74,49
1920,note_on,0,0,1,,,,,,,,,0,,,62,49
1920,control_change,0,0,1,,,,,,,,,0,64,127,,
1920,note_on,60,0,1,,,,,,,,,0,,,66,0
1920,note_on,0,0,2,,,,,,,,,1,,,60,0
1920,note_on,120,0,2,,,,,,,,,1,,,62,0
1932,note_on,0,0,1,,,,,,,,,0,,,62,0
1932,note_on,0,0,3,,,,,,,,,2,,,47,0
1932,note_on,0,0,3,,,,,,,,,2,,,50,0
1932,note_on,12,0,3,,,,,,,,,2,,,55,0
1932,note_on,12,0,1,,,,,,,,,0,,,74,0
2040,note_on,108,0,1,,,,,,,,,0,,,62,49
2040,note_on,0,0,1,,,,,,,,,0,,,74,49
2040,note_on,0,0,3,,,,,,,,,2,,,50,36
2040,note_on,0,0,3,,,,,,,,,2,,,55,36
2040,note_on,108,0,3,,,,,,,,,2,,,47,36
2052,note_on,12,0,1,,,,,,,,,0,,,74,0
2052,note_on,12,0,3,,,,,,,,,2,,,55,0
2052,note_on,0,0,3,,,,,,,,,2,,,47,0
2052,note_on,0,0,1,,,,,,,,,0,,,62,0
2052,note_on,0,0,3,,,,,,,,,2,,,50,0
2160,note_on,0,0,1,,,,,,,,,0,,,60,49
2160,note_on,0,0,1,,,,,,,,,0,,,62,49
2160,control_change,108,0,1,,,,,,,,,0,64,0,,
2160,control_change,108,0,3,,,,,,,,,2,64,0,,
2160,note_on,0,0,3,,,,,,,,,2,,,54,36
2160,note_on,0,0,3,,,,,,,,,2,,,50,36
2166,note_on,0,0,3,,,,,,,,,2,,,50,0
2166,note_on,6,0,1,,,,,,,,,0,,,62,0
2166,note_on,0,0,1,,,,,,,,,0,,,60,0
2166,note_on,6,0,3,,,,,,,,,2,,,54,0
2220,note_on,54,0,3,,,,,,,,,2,,,50,36
2220,note_on,0,0,3,,,,,,,,,2,,,55,36
2220,note_on,54,0,1,,,,,,,,,0,,,60,49
2220,note_on,0,0,1,,,,,,,,,0,,,62,49
2220,note_on,0,0,1,,,,,,,,,0,,,64,49
2226,note_on,6,0,3,,,,,,,,,2,,,55,0
2226,note_on,6,0,1,,,,,,,,,0,,,64,0
2226,note_on,0,0,1,,,,,,,,,0,,,60,0
2226,note_on,0,0,3,,,,,,,,,2,,,50,0
2226,note_on,0,0,1,,,,,,,,,0,,,62,0
2280,control_change,54,0,1,,,,,,,,,0,64,127,,
2280,note_on,0,0,1,,,,,,,,,0,,,60,49
2280,note_on,0,0,1,,,,,,,,,0,,,62,49
2280,note_on,0,0,1,,,,,,,,,0,,,66,49
2280,control_change,54,0,3,,,,,,,,,2,64,127,,
2280,note_on,0,0,3,,,,,,,,,2,,,50,36
2280,note_on,0,0,3,,,,,,,,,2,,,57,36
2292,note_on,0,0,1,,,,,,,,,0,,,62,0
2292,note_on,12,0,1,,,,,,,,,0,,,66,0
2292,note_on,0,0,3,,,,,,,,,2,,,50,0
2292,note_on,12,0,3,,,,,,,,,2,,,57,0
2292,note_on,0,0,1,,,,,,,,,0,,,60,0
2400,note_on,108,0,1,,,,,,,,,0,,,60,49
2400,note_on,0,0,1,,,,,,,,,0,,,66,49
2400,note_on,108,0,3,,,,,,,,,2,,,50,36
2400,note_on,0,0,1,,,,,,,,,0,,,62,49
2400,note_on,0,0,3,,,,,,,,,2,,,57,36
2412,note_on,0,0,1,,,,,,,,,0,,,60,0
2412,note_on,12,0,3,,,,,,,,,2,,,57,0
2412,note_on,0,0,3,,,,,,,,,2,,,50,0
2412,note_on,0,0,1,,,,,,,,,0,,,62,0
2412,note_on,12,0,1,,,,,,,,,0,,,66,0
2520,note_on,0,0,1,,,,,,,,,0,,,74,62
2520,note_on,0,0,1,,,,,,,,,0,,,66,62
2520,note_on,0,0,1,,,,,,,,,0,,,62,62
2520,control_change,108,0,1,,,,,,,,,0,64,0,,
2520,note_on,0,0,3,,,,,,,,,2,,,57,49
2520,note_on,0,0,3,,,,,,,,,2,,,50,49
2520,control_change,108,0,3,,,,,,,,,2,64,0,,
2526,note_on,0,0,3,,,,,,,,,2,,,50,0
2526,note_on,0,0,1,,,,,,,,,0,,,66,0
2526,note_on,0,0,1,,,,,,,,,0,,,62,0
2526,note_on,6,0,3,,,,,,,,,2,,,57,0
2526,note_on,6,0,1,,,,,,,,,0,,,74,0
2580,note_on,0,0,3,,,,,,,,,2,,,59,49
2580,note_on,0,0,1,,,,,,,,,0,,,67,62
2580,note_on,54,0,3,,,,,,,,,2,,,50,49
2580,note_on,54,0,1,,,,,,,,,0,,,62,62
2580,note_on,0,0,1,,,,,,,,,0,,,74,62
2586,note_on,0,0,3,,,,,,,,,2,,,50,0
2586,note_on,6,0,3,,,,,,,,,2,,,59,0
2586,note_on,0,0,1,,,,,,,,,0,,,62,0
2586,note_on,0,0,1,,,,,,,,,0,,,67,0
2586,note_on,6,0,1,,,,,,,,,0,,,74,0
2640,note_on,0,0,3,,,,,,,,,2,,,60,62
2640,note_on,0,0,3,,,,,,,,,2,,,50,62
2640,control_change,54,0,3,,,,,,,,,2,64,127,,
2640,note_on,0,0,1,,,,,,,,,0,,,69,75
2640,note_on,0,0,1,,,,,,,,,0,,,62,75
2640,control_change,54,0,1,,,,,,,,,0,64,127,,
2640,note_on,0,0,1,,,,,,,,,0,,,74,75
2652,note_on,0,0,3,,,,,,,,,2,,,50,0
2652,note_on,12,0,3,,,,,,,,,2,,,60,0
2652,note_on,0,0,1,,,,,,,,,0,,,62,0
2652,note_on,0,0,1,,,,,,,,,0,,,69,0
2652,note_on,12,0,1,,,,,,,,,0,,,74,0
2760,note_on,108,0,3,,,,,,,,,2,,,50,62
2760,note_on,0,0,3,,,,,,,,,2,,,60,62
2760,note_on,0,0,1,,,,,,,,,0,,,69,75
2760,note_on,108,0,1,,,,,,,,,0,,,62,75
2760,note_on,0,0,1,,,,,,,,,0,,,74,75
2772,note_on,0,0,1,,,,,,,,,0,,,62,0
2772,note_on,12,0,3,,,,,,,,,2,,,60,0
2772,note_on,0,0,3,,,,,,,,,2,,,50,0
2772,note_on,0,0,1,,,,,,,,,0,,,69,0
2772,note_on,12,0,1,,,,,,,,,0,,,74,0
2880,note_on,960,0,2,,,,,,,,,1,,,64,75
2880,note_on,0,0,1,,,,,,,,,0,,,76,88
2880,control_change,108,0,1,,,,,,,,,0,64,0,,
2880,note_on,0,0,3,,,,,,,,,2,,,60,75
2880,note_on,0,0,3,,,,,,,,,2,,,55,75
2880,control_change,108,0,3,,,,,,,,,2,64,0,,
2880,note_on,0,0,2,,,,,,,,,1,,,67,75
2880,note_on,0,0,3,,,,,,,,,2,,,48,75
2940,note_on,60,0,1,,,,,,,,,0,,,76,0
2940,note_on,0,0,1,,,,,,,,,0,,,72,88
3000,note_on,0,0,2,,,,,,,,,1,,,64,0
3000,note_on,120,0,2,,,,,,,,,1,,,67,0
3000,note_on,0,0,2,,,,,,,,,1,,,64,75
3000,note_on,60,0,1,,,,,,,,,0,,,72,0
3000,note_on,0,0,3,,,,,,,,,2,,,48,0
3000,note_on,0,0,1,,,,,,,,,0,,,67,106
3000,note_on,0,0,1,,,,,,,,,0,,,76,114
3000,note_on,120,0,3,,,,,,,,,2,,,60,0
3000,note_on,0,0,3,,,,,,,,,2,,,55,0
3000,note_on,0,0,3,,,,,,,,,2,,,60,75
3000,note_on,0,0,3,,,,,,,,,2,,,55,75
3000,note_on,0,0,3,,,,,,,,,2,,,48,75
3240,note_on,240,0,1,,,,,,,,,0,,,76,0
3240,note_on,0,0,1,,,,,,,,,0,,,67,0
3240,note_on,0,0,1,,,,,,,,,0,,,74,49
3240,note_on,240,0,2,,,,,,,,,1,,,64,0
3240,note_on,0,0,2,,,,,,,,,1,,,65,36
3240,note_on,0,0,2,,,,,,,,,1,,,67,36
3240,note_on,0,0,3,,,,,,,,,2,,,59,36
3240,note_on,240,0,3,,,,,,,,,2,,,60,0
3240,note_on,0,0,3,,,,,,,,,2,,,55,0
3240,note_on,0,0,3,,,,,,,,,2,,,48,0
3240,note_on,0,0,3,,,,,,,,,2,,,50,36
3240,note_on,0,0,3,,,,,,,,,2,,,55,36
3300,note_on,0,0,1,,,,,,,,,0,,,71,49
3300,note_on,60,0,1,,,,,,,,,0,,,74,0
3360,note_on,0,0,3,,,,,,,,,2,,,60,36
3360,note_on,0,0,3,,,,,,,,,2,,,55,36
3360,note_on,0,0,3,,,,,,,,,2,,,52,36
3360,control_change,0,0,3,,,,,,,,,2,64,127,,
3360,note_on,0,0,3,,,,,,,,,2,,,50,0
3360,note_on,0,0,3,,,,,,,,,2,,,55,0
3360,note_on,120,0,3,,,,,,,,,2,,,59,0
3360,note_on,0,0,2,,,,,,,,,1,,,65,0
3360,control_change,0,0,2,,,,,,,,,1,64,127,,
3360,note_on,0,0,2,,,,,,,,,1,,,67,36
3360,note_on,120,0,2,,,,,,,,,1,,,67,0
3360,note_on,0,0,1,,,,,,,,,0,,,79,49
3360,control_change,0,0,1,,,,,,,,,0,64,127,,
3360,note_on,60,0,1,,,,,,,,,0,,,71,0
3372,note_on,12,0,2,,,,,,,,,1,,,67,0
3372,note_on,12,0,1,,,,,,,,,0,,,79,0
3372,note_on,12,0,3,,,,,,,,,2,,,60,0
3372,note_on,0,0,3,,,,,,,,,2,,,55,0
3372,note_on,0,0,3,,,,,,,,,2,,,52,0
3480,note_on,108,0,3,,,,,,,,,2,,,52,36
3480,note_on,0,0,3,,,,,,,,,2,,,55,36
3480,note_on,0,0,3,,,,,,,,,2,,,60,36
3480,note_on,108,0,1,,,,,,,,,0,,,79,49
3480,control_change,108,0,2,,,,,,,,,1,64,0,,
3480,note_on,0,0,2,,,,,,,,,1,,,67,36
3492,note_on,12,0,3,,,,,,,,,2,,,60,0
3492,note_on,0,0,3,,,,,,,,,2,,,52,0
3492,note_on,0,0,3,,,,,,,,,2,,,55,0
3492,note_on,12,0,1,,,,,,,,,0,,,79,0
3492,note_on,12,0,2,,,,,,,,,1,,,67,0
3600,control_change,108,0,1,,,,,,,,,0,64,0,,
3600,note_on,0,0,1,,,,,,,,,0,,,88,49
3600,note_on,0,0,3,,,,,,,,,2,,,72,36
3600,control_change,108,0,3,,,,,,,,,2,64,0,,
3660,note_on,60,0,1,,,,,,,,,0,,,88,0
3660,note_on,0,0,1,,,,,,,,,0,,,84,49
3660,note_on,0,0,3,,,,,,,,,2,,,69,36
3660,note_on,60,0,3,,,,,,,,,2,,,72,0
3720,note_on,60,0,1,,,,,,,,,0,,,84,0
3720,control_change,0,0,1,,,,,,,,,0,64,127,,
3720,note_on,0,0,1,,,,,,,,,0,,,88,75
3720,note_on,60,0,3,,,,,,,,,2,,,69,0
3720,control_change,0,0,3,,,,,,,,,2,64,127,,
3720,note_on,0,0,3,,,,,,,,,2,,,72,88
3900,note_on,0,0,1,,,,,,,,,0,,,84,49
3900,note_on,180,0,1,,,,,,,,,0,,,88,0
3900,note_on,180,0,3,,,,,,,,,2,,,72,0
3900,note_on,0,0,3,,,,,,,,,2,,,69,36
3960,note_on,0,0,1,,,,,,,,,0,,,86,49
3960,note_on,60,0,1,,,,,,,,,0,,,84,0
3960,note_on,60,0,3,,,,,,,,,2,,,69,0
3960,note_on,0,0,3,,,,,,,,,2,,,71,36
4020,note_on,0,0,3,,,,,,,,,2,,,72,36
4020,note_on,0,0,1,,,,,,,,,0,,,88,49
4020,note_on,60,0,1,,,,,,,,,0,,,86,0
4020,control_change,0,0,1,,,,,,,,,0,64,0,,
4020,control_change,0,0,3,,,,,,,,,2,64,0,,
4020,note_on,60,0,3,,,,,,,,,2,,,71,0
4080,note_on,0,0,3,,,,,,,,,2,,,66,36
4080,note_on,0,0,4,,,,,,,,,3,,,62,75
4080,control_change,4080,0,4,,,,,,,,,3,64,127,,
4080,note_on,0,0,1,,,,,,,,,0,,,81,49
4080,control_change,0,0,1,,,,,,,,,0,64,127,,
4080,note_on,60,0,1,,,,,,,,,0,,,88,0
4080,note_on,60,0,3,,,,,,,,,2,,,72,0
4080,control_change,0,0,3,,,,,,,,,2,64,127,,
4092,note_on,12,0,1,,,,,,,,,0,,,81,0
4200,note_on,120,0,3,,,,,,,,,2,,,66,0
4200,note_on,0,0,3,,,,,,,,,2,,,66,36
4200,note_on,108,0,1,,,,,,,,,0,,,81,49
4212,note_on,12,0,1,,,,,,,,,0,,,81,0
4260,note_on,180,0,4,,,,,,,,,3,,,62,0
4260,note_on,0,0,4,,,,,,,,,3,,,64,49
4320,control_change,108,0,1,,,,,,,,,0,64,0,,
4320,note_on,120,0,3,,,,,,,,,2,,,66,0
4320,control_change,0,0,3,,,,,,,,,2,64,0,,
4320,note_on,60,0,4,,,,,,,,,3,,,64,0
4320,note_on,0,0,4,,,,,,,,,3,,,62,49
4380,note_on,60,0,4,,,,,,,,,3,,,62,0
4380,control_change,0,0,4,,,,,,,,,3,64,0,,
4380,note_on,0,0,4,,,,,,,,,3,,,60,49
4440,note_on,60,0,4,,,,,,,,,3,,,60,0
4440,note_on,0,0,3,,,,,,,,,2,,,71,88
4440,note_on,0,0,1,,,,,,,,,0,,,86,101
4440,control_change,120,0,1,,,,,,,,,0,64,127,,
4440,control_change,120,0,3,,,,,,,,,2,64,127,,
4440,control_change,0,0,4,,,,,,,,,3,64,127,,
4440,note_on,0,0,4,,,,,,,,,3,,,59,49
4444,note_on,4,0,4,,,,,,,,,3,,,59,0
4560,note_on,116,0,4,,,,,,,,,3,,,59,49
4564,note_on,4,0,4,,,,,,,,,3,,,59,0
4620,note_on,180,0,3,,,,,,,,,2,,,71,0
4620,note_on,0,0,3,,,,,,,,,2,,,67,36
4620,note_on,0,0,1,,,,,,,,,0,,,83,49
4620,note_on,180,0,1,,,,,,,,,0,,,86,0
4680,note_on,60,0,3,,,,,,,,,2,,,67,0
4680,note_on,0,0,3,,,,,,,,,2,,,69,36
4680,control_change,116,0,4,,,,,,,,,3,64,0,,
4680,note_on,60,0,1,,,,,,,,,0,,,83,0
4680,note_on,0,0,1,,,,,,,,,0,,,84,49
4740,control_change,0,0,3,,,,,,,,,2,64,0,,
4740,note_on,0,0,3,,,,,,,,,2,,,71,36
4740,note_on,60,0,1,,,,,,,,,0,,,84,0
4740,control_change,0,0,1,,,,,,,,,0,64,0,,
4740,note_on,0,0,1,,,,,,,,,0,,,86,49
4740,note_on,60,0,3,,,,,,,,,2,,,69,0
4800,control_change,120,0,4,,,,,,,,,3,64,127,,
4800,note_on,60,0,1,,,,,,,,,0,,,86,0
4800,note_on,60,0,3,,,,,,,,,2,,,71,0
4800,note_on,0,0,1,,,,,,,,,0,,,79,49
4800,control_change,0,0,3,,,,,,,,,2,64,127,,
4800,note_on,0,0,3,,,,,,,,,2,,,64,36
4800,note_on,0,0,4,,,,,,,,,3,,,52,101
4800,control_change,0,0,1,,,,,,,,,0,64,127,,
4804,note_on,4,0,3,,,,,,,,,2,,,64,0
4812,note_on,12,0,1,,,,,,,,,0,,,79,0
4920,note_on,116,0,3,,,,,,,,,2,,,64,36
4920,note_on,108,0,1,,,,,,,,,0,,,79,49
4924,note_on,4,0,3,,,,,,,,,2,,,64,0
4924,note_on,4,0,1,,,,,,,,,0,,,79,0
4980,note_on,0,0,4,,,,,,,,,3,,,54,49
4980,note_on,180,0,4,,,,,,,,,3,,,52,0
5040,control_change,116,0,1,,,,,,,,,0,64,0,,
5040,control_change,116,0,3,,,,,,,,,2,64,0,,
5040,note_on,60,0,4,,,,,,,,,3,,,54,0
5040,note_on,0,0,4,,,,,,,,,3,,,55,49
5100,note_on,60,0,4,,,,,,,,,3,,,55,0
5100,control_change,0,0,4,,,,,,,,,3,64,0,,
5100,note_on,0,0,4,,,,,,,,,3,,,56,49
5160,control_change,120,0,3,,,,,,,,,2,64,127,,
5160,note_on,0,0,3,,,,,,,,,2,,,62,62
5160,note_on,0,0,1,,,,,,,,,0,,,78,75
5160,control_change,120,0,1,,,,,,,,,0,64,127,,
5160,note_on,0,0,4,,,,,,,,,3,,,57,49
5160,note_on,60,0,4,,,,,,,,,3,,,56,0
5160,control_change,0,0,4,,,,,,,,,3,64,127,,
5172,note_on,12,0,4,,,,,,,,,3,,,57,0
5280,note_on,108,0,4,,,,,,,,,3,,,57,49
5284,note_on,4,0,4,,,,,,,,,3,,,57,0
5340,note_on,180,0,1,,,,,,,,,0,,,78,0
5340,note_on,180,0,3,,,,,,,,,2,,,62,0
5340,note_on,0,0,3,,,,,,,,,2,,,59,36
5340,note_on,0,0,1,,,,,,,,,0,,,74,49
5400,note_on,0,0,1,,,,,,,,,0,,,76,49
5400,note_on,60,0,1,,,,,,,,,0,,,74,0
5400,note_on,60,0,3,,,,,,,,,2,,,59,0
5400,control_change,116,0,4,,,,,,,,,3,64,0,,
5400,note_on,0,0,3,,,,,,,,,2,,,61,36
5460,note_on,60,0,1,,,,,,,,,0,,,76,0
5460,note_on,60,0,3,,,,,,,,,2,,,61,0
5460,control_change,0,0,3,,,,,,,,,2,64,0,,
5460,note_on,0,0,3,,,,,,,,,2,,,62,36
5460,control_change,0,0,1,,,,,,,,,0,64,0,,
5460,note_on,0,0,1,,,,,,,,,0,,,78,49
5520,note_on,0,0,1,,,,,,,,,0,,,79,88
5520,control_change,0,0,1,,,,,,,,,0,64,127,,
5520,note_on,60,0,1,,,,,,,,,0,,,78,0
5520,note_on,0,0,3,,,,,,,,,2,,,64,49
5520,control_change,0,0,3,,,,,,,,,2,64,127,,
5520,note_on,60,0,3,,,,,,,,,2,,,62,0
5520,note_on,0,0,4,,,,,,,,,3,,,57,49
5520,control_change,120,0,4,,,,,,,,,3,64,127,,
5532,note_on,12,0,4,,,,,,,,,3,,,57,0
5640,note_on,108,0,4,,,,,,,,,3,,,57,49
5644,note_on,4,0,4,,,,,,,,,3,,,57,0
5700,note_on,180,0,1,,,,,,,,,0,,,79,0
5700,note_on,0,0,1,,,,,,,,,0,,,76,62
5700,note_on,0,0,3,,,,,,,,,2,,,61,49
5700,note_on,180,0,3,,,,,,,,,2,,,64,0
5760,note_on,60,0,3,,,,,,,,,2,,,61,0
5760,note_on,0,0,1,,,,,,,,,0,,,78,62
5760,note_on,60,0,1,,,,,,,,,0,,,76,0
5760,control_change,116,0,4,,,,,,,,,3,64,0,,
5760,note_on,0,0,3,,,,,,,,,2,,,62,49
5820,note_on,60,0,3,,,,,,,,,2,,,62,0
5820,note_on,0,0,3,,,,,,,,,2,,,64,49
5820,control_change,0,0,3,,,,,,,,,2,64,0,,
5820,note_on,0,0,1,,,,,,,,,0,,,79,62
5820,control_change,0,0,1,,,,,,,,,0,64,0,,
5820,note_on,60,0,1,,,,,,,,,0,,,78,0
5880,control_change,120,0,4,,,,,,,,,3,64,127,,
5880,control_change,0,0,3,,,,,,,,,2,64,127,,
5880,note_on,60,0,3,,,,,,,,,2,,,64,0
5880,note_on,0,0,1,,,,,,,,,0,,,81,62
5880,control_change,0,0,1,,,,,,,,,0,64,127,,
5880,note_on,60,0,1,,,,,,,,,0,,,79,0
5880,note_on,0,0,4,,,,,,,,,3,,,57,49
5880,note_on,0,0,3,,,,,,,,,2,,,66,49
5892,note_on,12,0,3,,,,,,,,,2,,,66,0
5892,note_on,12,0,1,,,,,,,,,0,,,81,0
6000,note_on,108,0,3,,,,,,,,,2,,,66,49
6000,note_on,108,0,1,,,,,,,,,0,,,81,62
6012,note_on,12,0,3,,,,,,,,,2,,,66,0
6012,note_on,12,0,1,,,,,,,,,0,,,81,0
6060,note_on,180,0,4,,,,,,,,,3,,,57,0
6060,note_on,0,0,4,,,,,,,,,3,,,59,62
6120,note_on,0,0,4,,,,,,,,,3,,,61,62
6120,note_on,60,0,4,,,,,,,,,3,,,59,0
6120,control_change,108,0,3,,,,,,,,,2,64,0,,
6120,control_change,108,0,1,,,,,,,,,0,64,0,,
6180,note_on,60,0,4,,,,,,,,,3,,,61,0
6180,note_on,0,0,4,,,,,,,,,3,,,62,62
6180,control_change,0,0,4,,,,,,,,,3,64,0,,
6240,note_on,0,0,3,,,,,,,,,2,,,64,62
6240,note_on,0,0,3,,,,,,,,,2,,,67,62
6240,control_change,120,0,1,,,,,,,,,0,64,127,,
6240,note_on,0,0,1,,,,,,,,,0,,,81,75
6240,control_change,120,0,3,,,,,,,,,2,64,127,,
6240,note_on,0,0,2,,,,,,,,,1,,,69,75
6240,control_change,2748,0,2,,,,,,,,,1,64,127,,
6240,note_on,60,0,4,,,,,,,,,3,,,62,0
6252,note_on,0,0,3,,,,,,,,,2,,,64,0
6252,note_on,12,0,3,,,,,,,,,2,,,67,0
6300,note_on,0,0,2,,,,,,,,,1,,,71,75
6300,note_on,60,0,2,,,,,,,,,1,,,69,0
6360,note_on,0,0,2,,,,,,,,,1,,,72,75
6360,note_on,0,0,3,,,,,,,,,2,,,67,62
6360,note_on,108,0,3,,,,,,,,,2,,,64,62
6360,note_on,60,0,2,,,,,,,,,1,,,71,0
6360,control_change,0,0,2,,,,,,,,,1,64,0,,
6372,note_on,12,0,3,,,,,,,,,2,,,67,0
6372,note_on,0,0,3,,,,,,,,,2,,,64,0
6420,note_on,60,0,2,,,,,,,,,1,,,72,0
6420,note_on,0,0,1,,,,,,,,,0,,,82,75
6420,note_on,0,0,1,,,,,,,,,0,,,73,75
6420,note_on,180,0,1,,,,,,,,,0,,,81,0
6480,note_on,0,0,1,,,,,,,,,0,,,74,75
6480,note_on,60,0,1,,,,,,,,,0,,,82,0
6480,control_change,108,0,3,,,,,,,,,2,64,0,,
6480,note_on,0,0,1,,,,,,,,,0,,,73,0
6480,note_on,0,0,1,,,,,,,,,0,,,83,75
6540,note_on,60,0,1,,,,,,,,,0,,,83,0
6540,note_on,0,0,1,,,,,,,,,0,,,74,0
6540,note_on,0,0,1,,,,,,,,,0,,,76,75
6540,control_change,0,0,1,,,,,,,,,0,64,0,,
6540,note_on,0,0,1,,,,,,,,,0,,,85,75
6600,note_on,0,0,1,,,,,,,,,0,,,86,88
6600,control_change,120,0,3,,,,,,,,,2,64,127,,
6600,note_on,0,0,3,,,,,,,,,2,,,68,75
6600,note_on,0,0,3,,,,,,,,,2,,,71,75
6600,note_on,0,0,1,,,,,,,,,0,,,77,88
6600,note_on,0,0,1,,,,,,,,,0,,,76,0
6600,note_on,60,0,1,,,,,,,,,0,,,85,0
6600,control_change,0,0,1,,,,,,,,,0,64,127,,
6612,note_on,12,0,1,,,,,,,,,0,,,86,0
6612,note_on,0,0,3,,,,,,,,,2,,,68,0
6612,note_on,12,0,3,,,,,,,,,2,,,71,0
6612,note_on,0,0,1,,,,,,,,,0,,,77,0
6720,note_on,108,0,1,,,,,,,,,0,,,77,88
6720,note_on,0,0,1,,,,,,,,,0,,,86,88
6720,note_on,108,0,3,,,,,,,,,2,,,68,75
6720,note_on,0,0,3,,,,,,,,,2,,,71,75
6732,note_on,0,0,1,,,,,,,,,0,,,77,0
6732,note_on,12,0,1,,,,,,,,,0,,,86,0
6732,note_on,0,0,3,,,,,,,,,2,,,68,0
6732,note_on,12,0,3,,,,,,,,,2,,,71,0
6840,control_change,108,0,3,,,,,,,,,2,64,0,,
6840,control_change,108,0,1,,,,,,,,,0,64,0,,
7320,note_on,480,0,3,,,,,,,,,2,,,54,36
7320,control_change,480,0,1,,,,,,,,,0,64,127,,
7320,note_on,0,0,1,,,,,,,,,0,,,69,36
7320,control_change,1080,0,4,,,,,,,,,3,64,127,,
7320,note_on,0,0,4,,,,,,,,,3,,,45,36
7332,note_on,12,0,4,,,,,,,,,3,,,45,0
7440,note_on,108,0,4,,,,,,,,,3,,,45,36
7452,note_on,12,0,4,,,,,,,,,3,,,45,0
7500,note_on,180,0,1,,,,,,,,,0,,,69,0
7500,note_on,0,0,1,,,,,,,,,0,,,67,36
7560,note_on,60,0,1,,,,,,,,,0,,,67,0
7560,control_change,108,0,4,,,,,,,,,3,64,0,,
7560,note_on,0,0,1,,,,,,,,,0,,,66,36
7560,note_on,240,0,3,,,,,,,,,2,,,54,0
7560,note_on,0,0,3,,,,,,,,,2,,,55,36
7620,note_on,60,0,1,,,,,,,,,0,,,66,0
7620,control_change,0,0,1,,,,,,,,,0,64,0,,
7620,note_on,0,0,1,,,,,,,,,0,,,64,36
7680,note_on,0,0,2,,,,,,,,,1,,,60,36
7680,note_on,120,0,3,,,,,,,,,2,,,55,0
7680,note_on,0,0,4,,,,,,,,,3,,,45,36
7680,note_on,60,0,1,,,,,,,,,0,,,64,0
7680,control_change,0,0,1,,,,,,,,,0,64,127,,
7680,note_on,0,0,3,,,,,,,,,2,,,57,36
7680,note_on,0,0,1,,,,,,,,,0,,,63,36
7680,control_change,120,0,4,,,,,,,,,3,64,127,,
7680,control_change,1260,0,2,,,,,,,,,1,64,127,,
7692,note_on,12,0,4,,,,,,,,,3,,,45,0
7692,note_on,12,0,1,,,,,,,,,0,,,63,0
7800,note_on,108,0,1,,,,,,,,,0,,,63,36
7800,note_on,108,0,4,,,,,,,,,3,,,45,36
7812,note_on,12,0,4,,,,,,,,,3,,,45,0
7812,note_on,12,0,1,,,,,,,,,0,,,63,0
7860,note_on,0,0,2,,,,,,,,,1,,,59,36
7860,note_on,180,0,2,,,,,,,,,1,,,60,0
7920,note_on,0,0,2,,,,,,,,,1,,,58,36
7920,control_change,108,0,4,,,,,,,,,3,64,0,,
7920,note_on,240,0,3,,,,,,,,,2,,,57,0
7920,note_on,0,0,3,,,,,,,,,2,,,54,36
7920,note_on,60,0,2,,,,,,,,,1,,,59,0
7920,control_change,108,0,1,,,,,,,,,0,64,0,,
7980,note_on,60,0,2,,,,,,,,,1,,,58,0
7980,note_on,0,0,2,,,,,,,,,1,,,57,36
7980,control_change,0,0,2,,,,,,,,,1,64,0,,
8040,control_change,120,0,4,,,,,,,,,3,64,127,,
8040,note_on,120,0,3,,,,,,,,,2,,,54,0
8040,control_change,120,0,1,,,,,,,,,0,64,127,,
8040,note_on,60,0,2,,,,,,,,,1,,,57,0
8040,control_change,0,0,2,,,,,,,,,1,64,127,,
8040,note_on,0,0,2,,,,,,,,,1,,,55,36
8040,note_on,0,0,3,,,,,,,,,2,,,52,36
8040,note_on,0,0,4,,,,,,,,,3,,,45,36
8040,note_on,0,0,1,,,,,,,,,0,,,67,36
8044,note_on,4,0,4,,,,,,,,,3,,,45,0
8052,note_on,12,0,2,,,,,,,,,1,,,55,0
8160,note_on,116,0,4,,,,,,,,,3,,,45,36
8160,note_on,108,0,2,,,,,,,,,1,,,55,36
8172,note_on,12,0,2,,,,,,,,,1,,,55,0
8172,note_on,12,0,4,,,,,,,,,3,,,45,0
8220,note_on,0,0,1,,,,,,,,,0,,,66,36
8220,note_on,180,0,1,,,,,,,,,0,,,67,0
8280,note_on,0,0,1,,,,,,,,,0,,,64,36
8280,control_change,108,0,2,,,,,,,,,1,64,0,,
8280,control_change,108,0,4,,,,,,,,,3,64,0,,
8280,note_on,60,0,1,,,,,,,,,0,,,66,0
8280,note_on,0,0,3,,,,,,,,,2,,,54,36
8280,note_on,240,0,3,,,,,,,,,2,,,52,0
8340,note_on,60,0,1,,,,,,,,,0,,,64,0
8340,note_on,0,0,1,,,,,,,,,0,,,62,36
8340,control_change,0,0,1,,,,,,,,,0,64,0,,
8400,control_change,120,0,4,,,,,,,,,3,64,127,,
8400,note_on,0,0,4,,,,,,,,,3,,,45,36
8400,control_change,120,0,2,,,,,,,,,1,64,127,,
8400,note_on,0,0,2,,,,,,,,,1,,,58,36
8400,note_on,0,0,1,,,,,,,,,0,,,61,36
8400,control_change,0,0,1,,,,,,,,,0,64,127,,
8400,note_on,120,0,3,,,,,,,,,2,,,54,0
8400,note_on,0,0,3,,,,,,,,,2,,,55,36
8400,note_on,60,0,1,,,,,,,,,0,,,62,0
8412,note_on,12,0,1,,,,,,,,,0,,,61,0
8412,note_on,12,0,4,,,,,,,,,3,,,45,0
8520,note_on,108,0,4,,,,,,,,,3,,,45,36
8520,note_on,108,0,1,,,,,,,,,0,,,61,36
8532,note_on,12,0,4,,,,,,,,,3,,,45,0
8532,note_on,12,0,1,,,,,,,,,0,,,61,0
8580,note_on,180,0,2,,,,,,,,,1,,,58,0
8580,note_on,0,0,2,,,,,,,,,1,,,57,36
8640,note_on,60,0,2,,,,,,,,,1,,,57,0
8640,note_on,0,0,2,,,,,,,,,1,,,56,36
8640,control_change,108,0,1,,,,,,,,,0,64,0,,
8640,note_on,240,0,3,,,,,,,,,2,,,55,0
8640,control_change,108,0,4,,,,,,,,,3,64,0,,
8640,note_on,0,0,3,,,,,,,,,2,,,52,36
8700,note_on,0,0,2,,,,,,,,,1,,,55,36
8700,control_change,0,0,2,,,,,,,,,1,64,0,,
8700,note_on,60,0,2,,,,,,,,,1,,,56,0
8760,note_on,120,0,1,,,,,,,,,0,,,54,88
8760,note_on,60,0,2,,,,,,,,,1,,,55,0
8760,note_on,0,0,1,,,,,,,,,0,,,62,88
8760,note_on,120,0,3,,,,,,,,,2,,,52,0
8760,note_on,0,0,3,,,,,,,,,2,,,47,75
8772,note_on,12,0,1,,,,,,,,,0,,,62,0
8772,note_on,0,0,1,,,,,,,,,0,,,54,0
8772,note_on,12,0,3,,,,,,,,,2,,,47,0
8880,note_on,108,0,1,,,,,,,,,0,,,59,88
8880,note_on,0,0,1,,,,,,,,,0,,,62,88
8880,note_on,108,0,3,,,,,,,,,2,,,43,75
8880,note_on,0,0,1,,,,,,,,,0,,,64,88
8892,note_on,12,0,3,,,,,,,,,2,,,43,0
8892,note_on,0,0,1,,,,,,,,,0,,,59,0
8892,note_on,12,0,1,,,,,,,,,0,,,64,0
8892,note_on,0,0,1,,,,,,,,,0,,,62,0
9000,note_on,108,0,1,,,,,,,,,0,,,57,88
9000,note_on,0,0,1,,,,,,,,,0,,,61,88
9000,note_on,0,0,1,,,,,,,,,0,,,66,88
9000,note_on,108,0,3,,,,,,,,,2,,,45,75
9012,note_on,12,0,1,,,,,,,,,0,,,66,0
9012,note_on,0,0,1,,,,,,,,,0,,,57,0
9012,note_on,0,0,1,,,,,,,,,0,,,61,0
9012,note_on,12,0,3,,,,,,,,,2,,,45,0
9120,control_change,108,0,3,,,,,,,,,2,64,127,,
9120,note_on,0,0,1,,,,,,,,,0,,,57,88
9120,note_on,0,0,3,,,,,,,,,2,,,54,75
9120,note_on,0,0,1,,,,,,,,,0,,,66,88
9120,note_on,0,0,1,,,,,,,,,0,,,62,88
9120,control_change,108,0,1,,,,,,,,,0,64,127,,
9120,note_on,0,0,3,,,,,,,,,2,,,50,75
9132,note_on,12,0,3,,,,,,,,,2,,,54,0
9132,note_on,0,0,3,,,,,,,,,2,,,50,0
9132,note_on,12,0,1,,,,,,,,,0,,,66,0
9132,note_on,0,0,1,,,,,,,,,0,,,62,0
9132,note_on,0,0,1,,,,,,,,,0,,,57,0
9240,note_on,108,0,1,,,,,,,,,0,,,69,88
9300,note_on,0,0,1,,,,,,,,,0,,,66,88
9300,note_on,60,0,1,,,,,,,,,0,,,69,0
9360,note_on,0,0,1,,,,,,,,,0,,,69,88
9360,note_on,60,0,1,,,,,,,,,0,,,66,0
9480,control_change,0,0,1,,,,,,,,,0,64,0,,
9480,note_on,120,0,1,,,,,,,,,0,,,69,0
9480,note_on,0,0,1,,,,,,,,,0,,,54,49
9480,note_on,0,0,1,,,,,,,,,0,,,62,49
9480,note_on,0,0,3,,,,,,,,,2,,,47,36
9480,control_change,348,0,3,,,,,,,,,2,64,0,,
9492,note_on,12,0,3,,,,,,,,,2,,,47,0
9492,note_on,0,0,1,,,,,,,,,0,,,54,0
9492,note_on,12,0,1,,,,,,,,,0,,,62,0
9600,note_on,108,0,3,,,,,,,,,2,,,43,36
9600,note_on,0,0,1,,,,,,,,,0,,,64,49
9600,note_on,0,0,1,,,,,,,,,0,,,62,49
9600,note_on,108,0,1,,,,,,,,,0,,,59,49
9612,note_on,12,0,1,,,,,,,,,0,,,64,0
9612,note_on,0,0,1,,,,,,,,,0,,,62,0
9612,note_on,0,0,1,,,,,,,,,0,,,59,0
9612,note_on,12,0,3,,,,,,,,,2,,,43,0
9720,note_on,0,0,1,,,,,,,,,0,,,66,49
9720,note_on,0,0,1,,,,,,,,,0,,,61,49
9720,note_on,108,0,3,,,,,,,,,2,,,45,36
9720,note_on,108,0,1,,,,,,,,,0,,,57,49
9732,note_on,0,0,1,,,,,,,,,0,,,61,0
9732,note_on,12,0,3,,,,,,,,,2,,,45,0
9732,note_on,12,0,1,,,,,,,,,0,,,66,0
9732,note_on,0,0,1,,,,,,,,,0,,,57,0
9840,control_change,108,0,1,,,,,,,,,0,64,127,,
9840,note_on,0,0,1,,,,,,,,,0,,,54,49
9840,note_on,0,0,1,,,,,,,,,0,,,62,49
9840,note_on,0,0,3,,,,,,,,,2,,,38,36
9840,control_change,108,0,3,,,,,,,,,2,64,127,,
9840,time_signature,9720,1,0,2,4,24,8,,,,,,,,,
9852,note_on,0,0,1,,,,,,,,,0,,,54,0
9852,note_on,12,0,3,,,,,,,,,2,,,38,0
9852,note_on,12,0,1,,,,,,,,,0,,,62,0
9960,control_change,108,0,1,,,,,,,,,0,64,0,,
9960,control_change,108,0,3,,,,,,,,,2,64,0,,
10080,time_signature,240,1,0,1,4,24,8,,,,,,,,,
10080,note_on,120,0,1,,,,,,,,,0,,,86,49
10080,note_on,120,0,3,,,,,,,,,2,,,74,36
10140,note_on,0,0,3,,,,,,,,,2,,,71,36
10140,note_on,60,0,1,,,,,,,,,0,,,86,0
10140,note_on,0,0,1,,,,,,,,,0,,,83,49
10140,note_on,60,0,3,,,,,,,,,2,,,74,0
10200,note_on,60,0,1,,,,,,,,,0,,,83,0
10200,control_change,0,0,1,,,,,,,,,0,64,127,,
10200,note_on,0,0,1,,,,,,,,,0,,,86,49
10200,time_signature,120,1,0,3,4,24,8,,,,,,,,,
10200,note_on,60,0,3,,,,,,,,,2,,,71,0
10200,control_change,0,0,3,,,,,,,,,2,64,127,,
10200,note_on,0,0,3,,,,,,,,,2,,,74,36
10380,note_on,0,0,1,,,,,,,,,0,,,83,49
10380,note_on,180,0,1,,,,,,,,,0,,,86,0
10380,note_on,180,0,3,,,,,,,,,2,,,74,0
10380,note_on,0,0,3,,,,,,,,,2,,,71,36
10440,note_on,0,0,1,,,,,,,,,0,,,84,49
10440,note_on,60,0,1,,,,,,,,,0,,,83,0
10440,note_on,60,0,3,,,,,,,,,2,,,71,0
10440,note_on,0,0,3,,,,,,,,,2,,,72,36
10500,note_on,60,0,3,,,,,,,,,2,,,72,0
10500,note_on,0,0,1,,,,,,,,,0,,,86,49
10500,note_on,60,0,1,,,,,,,,,0,,,84,0
10500,note_on,0,0,3,,,,,,,,,2,,,74,36
10560,note_on,0,0,1,,,,,,,,,0,,,74,49
10560,note_on,0,0,3,,,,,,,,,2,,,62,36
10560,control_change,0,0,3,,,,,,,,,2,64,0,,
10560,control_change,0,0,1,,,,,,,,,0,64,0,,
10560,note_on,60,0,1,,,,,,,,,0,,,86,0
10560,note_on,60,0,3,,,,,,,,,2,,,74,0
10572,note_on,12,0,1,,,,,,,,,0,,,74,0
10572,note_on,12,0,3,,,,,,,,,2,,,62,0
10680,note_on,108,0,3,,,,,,,,,2,,,62,36
10680,note_on,108,0,1,,,,,,,,,0,,,74,49
10692,note_on,12,0,1,,,,,,,,,0,,,74,0
10692,note_on,12,0,3,,,,,,,,,2,,,62,0
10800,note_on,108,0,3,,,,,,,,,2,,,67,36
10800,note_on,108,0,1,,,,,,,,,0,,,79,49
10860,note_on,0,0,3,,,,,,,,,2,,,62,36
10860,note_on,60,0,3,,,,,,,,,2,,,67,0
10860,note_on,60,0,1,,,,,,,,,0,,,79,0
10860,note_on,0,0,1,,,,,,,,,0,,,74,49
10920,control_change,0,0,3,,,,,,,,,2,64,127,,
10920,note_on,0,0,3,,,,,,,,,2,,,67,36
10920,note_on,60,0,1,,,,,,,,,0,,,74,0
10920,control_change,0,0,1,,,,,,,,,0,64,127,,
10920,note_on,0,0,1,,,,,,,,,0,,,79,49
10920,note_on,60,0,3,,,,,,,,,2,,,62,0
11100,note_on,0,0,3,,,,,,,,,2,,,59,36
11100,note_on,180,0,3,,,,,,,,,2,,,67,0
11100,note_on,180,0,1,,,,,,,,,0,,,79,0
11100,note_on,0,0,1,,,,,,,,,0,,,71,49
11160,note_on,0,0,3,,,,,,,,,2,,,60,36
11160,note_on,60,0,1,,,,,,,,,0,,,71,0
11160,note_on,0,0,1,,,,,,,,,0,,,72,49
11160,note_on,60,0,3,,,,,,,,,2,,,59,0
11220,note_on,0,0,1,,,,,,,,,0,,,74,49
11220,note_on,60,0,1,,,,,,,,,0,,,72,0
11220,note_on,60,0,3,,,,,,,,,2,,,60,0
11220,note_on,0,0,3,,,,,,,,,2,,,62,36
11280,control_change,0,0,1,,,,,,,,,0,64,0,,
11280,note_on,0,0,1,,,,,,,,,0,,,67,49
11280,note_on,60,0,3,,,,,,,,,2,,,62,0
11280,control_change,0,0,3,,,,,,,,,2,64,0,,
11280,note_on,0,0,3,,,,,,,,,2,,,55,36
11280,note_on,60,0,1,,,,,,,,,0,,,74,0
11292,note_on,12,0,1,,,,,,,,,0,,,67,0
11292,note_on,12,0,3,,,,,,,,,2,,,55,0
11400,note_on,108,0,3,,,,,,,,,2,,,55,36
11400,note_on,108,0,1,,,,,,,,,0,,,67,49
11412,note_on,12,0,3,,,,,,,,,2,,,55,0
11412,note_on,12,0,1,,,,,,,,,0,,,67,0
11520,note_on,2760,0,2,,,,,,,,,1,,,59,75
11520,note_on,108,0,1,,,,,,,,,0,,,71,88
11520,note_on,0,0,3,,,,,,,,,2,,,55,75
11520,note_on,0,0,3,,,,,,,,,2,,,50,75
11520,note_on,108,0,3,,,,,,,,,2,,,43,75
11520,note_on,0,0,2,,,,,,,,,1,,,62,75
11580,note_on,0,0,1,,,,,,,,,0,,,67,88
11580,note_on,60,0,1,,,,,,,,,0,,,71,0
11640,note_on,0,0,3,,,,,,,,,2,,,55,101
11640,note_on,0,0,3,,,,,,,,,2,,,50,96
11640,note_on,0,0,3,,,,,,,,,2,,,43,91
11640,note_on,0,0,3,,,,,,,,,2,,,43,0
11640,note_on,0,0,3,,,,,,,,,2,,,50,0
11640,note_on,120,0,3,,,,,,,,,2,,,55,0
11640,note_on,0,0,2,,,,,,,,,1,,,59,0
11640,note_on,0,0,2,,,,,,,,,1,,,59,75
11640,note_on,0,0,2,,,,,,,,,1,,,62,75
11640,note_on,60,0,1,,,,,,,,,0,,,67,0
11640,note_on,0,0,1,,,,,,,,,0,,,71,114
11640,note_on,120,0,2,,,,,,,,,1,,,62,0
11880,note_on,240,0,2,,,,,,,,,1,,,62,0
11880,note_on,0,0,2,,,,,,,,,1,,,59,0
11880,note_on,0,0,2,,,,,,,,,1,,,60,36
11880,note_on,0,0,2,,,,,,,,,1,,,62,36
11880,note_on,240,0,1,,,,,,,,,0,,,71,0
11880,note_on,0,0,1,,,,,,,,,0,,,69,49
11880,note_on,240,0,3,,,,,,,,,2,,,55,0
11880,note_on,0,0,3,,,,,,,,,2,,,50,0
11880,note_on,0,0,3,,,,,,,,,2,,,43,0
11880,note_on,0,0,3,,,,,,,,,2,,,45,36
11880,note_on,0,0,3,,,,,,,,,2,,,54,36
11880,note_on,0,0,3,,,,,,,,,2,,,50,36
11940,note_on,0,0,1,,,,,,,,,0,,,66,49
11940,note_on,60,0,1,,,,,,,,,0,,,69,0
12000,control_change,0,0,3,,,,,,,,,2,64,127,,
12000,note_on,0,0,3,,,,,,,,,2,,,47,36
12000,note_on,0,0,1,,,,,,,,,0,,,74,49
12000,note_on,0,0,1,,,,,,,,,0,,,62,49
12000,control_change,0,0,1,,,,,,,,,0,64,127,,
12000,note_on,60,0,1,,,,,,,,,0,,,66,0
12000,note_on,120,0,2,,,,,,,,,1,,,62,0
12000,note_on,0,0,2,,,,,,,,,1,,,60,0
12000,note_on,120,0,3,,,,,,,,,2,,,54,0
12000,note_on,0,0,3,,,,,,,,,2,,,45,0
12000,note_on,0,0,3,,,,,,,,,2,,,55,36
12000,note_on,0,0,3,,,,,,,,,2,,,50,36
12000,note_on,0,0,3,,,,,,,,,2,,,50,0
12012,note_on,0,0,1,,,,,,,,,0,,,62,0
12012,note_on,0,0,3,,,,,,,,,2,,,47,0
12012,note_on,0,0,3,,,,,,,,,2,,,50,0
12012,note_on,12,0,3,,,,,,,,,2,,,55,0
12012,note_on,12,0,1,,,,,,,,,0,,,74,0
12120,note_on,0,0,1,,,,,,,,,0,,,74,49
12120,note_on,108,0,1,,,,,,,,,0,,,62,49
12120,note_on,0,0,3,,,,,,,,,2,,,50,36
12120,note_on,0,0,3,,,,,,,,,2,,,55,36
12120,note_on,108,0,3,,,,,,,,,2,,,47,36
12132,note_on,0,0,3,,,,,,,,,2,,,47,0
12132,note_on,0,0,3,,,,,,,,,2,,,50,0
12132,note_on,12,0,3,,,,,,,,,2,,,55,0
12132,note_on,12,0,1,,,,,,,,,0,,,74,0
12132,note_on,0,0,1,,,,,,,,,0,,,62,0
12240,control_change,108,0,1,,,,,,,,,0,64,0,,
12240,note_on,0,0,1,,,,,,,,,0,,,62,49
12240,note_on,0,0,1,,,,,,,,,0,,,60,49
12240,control_change,108,0,3,,,,,,,,,2,64,0,,
12240,note_on,0,0,3,,,,,,,,,2,,,50,36
12240,note_on,0,0,3,,,,,,,,,2,,,54,36
12246,note_on,6,0,1,,,,,,,,,0,,,62,0
12246,note_on,0,0,1,,,,,,,,,0,,,60,0
12246,note_on,6,0,3,,,,,,,,,2,,,54,0
12246,note_on,0,0,3,,,,,,,,,2,,,50,0
12300,note_on,0,0,1,,,,,,,,,0,,,64,49
12300,note_on,0,0,1,,,,,,,,,0,,,62,49
12300,note_on,54,0,1,,,,,,,,,0,,,60,49
12300,note_on,54,0,3,,,,,,,,,2,,,50,36
12300,note_on,0,0,3,,,,,,,,,2,,,55,36
12306,note_on,0,0,3,,,,,,,,,2,,,50,0
12306,note_on,0,0,1,,,,,,,,,0,,,62,0
12306,note_on,6,0,3,,,,,,,,,2,,,55,0
12306,note_on,0,0,1,,,,,,,,,0,,,60,0
12306,note_on,6,0,1,,,,,,,,,0,,,64,0
12360,note_on,0,0,1,,,,,,,,,0,,,60,49
12360,control_change,54,0,3,,,,,,,,,2,64,127,,
12360,note_on,0,0,1,,,,,,,,,0,,,62,49
12360,note_on,0,0,3,,,,,,,,,2,,,57,36
12360,note_on,0,0,3,,,,,,,,,2,,,50,36
12360,note_on,0,0,1,,,,,,,,,0,,,66,49
12360,control_change,54,0,1,,,,,,,,,0,64,127,,
12372,note_on,12,0,1,,,,,,,,,0,,,66,0
12372,note_on,12,0,3,,,,,,,,,2,,,57,0
12372,note_on,0,0,1,,,,,,,,,0,,,62,0
12372,note_on,0,0,1,,,,,,,,,0,,,60,0
12372,note_on,0,0,3,,,,,,,,,2,,,50,0
12480,note_on,108,0,1,,,,,,,,,0,,,60,49
12480,note_on,0,0,1,,,,,,,,,0,,,62,49
12480,note_on,0,0,1,,,,,,,,,0,,,66,49
12480,note_on,0,0,3,,,,,,,,,2,,,57,36
12480,note_on,108,0,3,,,,,,,,,2,,,50,36
12492,note_on,0,0,3,,,,,,,,,2,,,50,0
12492,note_on,12,0,3,,,,,,,,,2,,,57,0
12492,note_on,12,0,1,,,,,,,,,0,,,66,0
12492,note_on,0,0,1,,,,,,,,,0,,,62,0
12492,note_on,0,0,1,,,,,,,,,0,,,60,0
12600,note_on,0,0,3,,,,,,,,,2,,,57,49
12600,note_on,0,0,1,,,,,,,,,0,,,66,62
12600,note_on,0,0,3,,,,,,,,,2,,,50,49
12600,control_change,108,0,3,,,,,,,,,2,64,0,,
12600,control_change,108,0,1,,,,,,,,,0,64,0,,
12600,note_on,0,0,1,,,,,,,,,0,,,62,62
12600,note_on,0,0,1,,,,,,,,,0,,,74,62
12606,note_on,0,0,1,,,,,,,,,0,,,66,0
12606,note_on,0,0,1,,,,,,,,,0,,,62,0
12606,note_on,6,0,3,,,,,,,,,2,,,57,0
12606,note_on,6,0,1,,,,,,,,,0,,,74,0
12606,note_on,0,0,3,,,,,,,,,2,,,50,0
12660,note_on,54,0,3,,,,,,,,,2,,,50,49
12660,note_on,54,0,1,,,,,,,,,0,,,62,62
12660,note_on,0,0,1,,,,,,,,,0,,,67,62
12660,note_on,0,0,1,,,,,,,,,0,,,74,62
12660,note_on,0,0,3,,,,,,,,,2,,,59,49
12666,note_on,6,0,1,,,,,,,,,0,,,74,0
12666,note_on,0,0,1,,,,,,,,,0,,,67,0
12666,note_on,0,0,1,,,,,,,,,0,,,62,0
12666,note_on,6,0,3,,,,,,,,,2,,,59,0
12666,note_on,0,0,3,,,,,,,,,2,,,50,0
12720,note_on,0,0,1,,,,,,,,,0,,,74,75
12720,note_on,0,0,3,,,,,,,,,2,,,50,62
12720,note_on,0,0,3,,,,,,,,,2,,,60,62
12720,control_change,54,0,3,,,,,,,,,2,64,127,,
12720,note_on,0,0,1,,,,,,,,,0,,,69,75
12720,note_on,0,0,1,,,,,,,,,0,,,62,75
12720,control_change,54,0,1,,,,,,,,,0,64,127,,
12732,note_on,0,0,1,,,,,,,,,0,,,69,0
12732,note_on,12,0,1,,,,,,,,,0,,,74,0
12732,note_on,12,0,3,,,,,,,,,2,,,60,0
12732,note_on,0,0,1,,,,,,,,,0,,,62,0
12732,note_on,0,0,3,,,,,,,,,2,,,50,0
12840,note_on,0,0,1,,,,,,,,,0,,,74,75
12840,note_on,0,0,1,,,,,,,,,0,,,69,75
12840,note_on,108,0,1,,,,,,,,,0,,,62,75
12840,note_on,108,0,3,,,,,,,,,2,,,50,62
12840,note_on,0,0,3,,,,,,,,,2,,,60,62
12852,note_on,0,0,1,,,,,,,,,0,,,62,0
12852,note_on,0,0,1,,,,,,,,,0,,,69,0
12852,note_on,0,0,3,,,,,,,,,2,,,50,0
12852,note_on,12,0,3,,,,,,,,,2,,,60,0
12852,note_on,12,0,1,,,,,,,,,0,,,74,0
12960,note_on,0,0,3,,,,,,,,,2,,,55,75
12960,note_on,0,0,1,,,,,,,,,0,,,76,88
12960,control_change,108,0,1,,,,,,,,,0,64,0,,
12960,note_on,0,0,3,,,,,,,,,2,,,60,75
12960,note_on,0,0,2,,,,,,,,,1,,,67,75
12960,note_on,960,0,2,,,,,,,,,1,,,64,75
12960,control_change,108,0,3,,,,,,,,,2,64,0,,
12960,note_on,0,0,3,,,,,,,,,2,,,48,75
13020,note_on,60,0,1,,,,,,,,,0,,,76,0
13020,note_on,0,0,1,,,,,,,,,0,,,72,88
13080,note_on,0,0,3,,,,,,,,,2,,,55,0
13080,note_on,0,0,3,,,,,,,,,2,,,55,75
13080,note_on,120,0,3,,,,,,,,,2,,,60,0
13080,note_on,0,0,3,,,,,,,,,2,,,48,75
13080,note_on,0,0,3,,,,,,,,,2,,,48,0
13080,note_on,0,0,3,,,,,,,,,2,,,60,75
13080,note_on,0,0,1,,,,,,,,,0,,,76,114
13080,note_on,120,0,2,,,,,,,,,1,,,67,0
13080,note_on,0,0,2,,,,,,,,,1,,,64,0
13080,note_on,0,0,2,,,,,,,,,1,,,64,75
13080,note_on,0,0,1,,,,,,,,,0,,,67,106
13080,note_on,60,0,1,,,,,,,,,0,,,72,0
13320,note_on,0,0,1,,,,,,,,,0,,,67,0
13320,note_on,240,0,2,,,,,,,,,1,,,64,0
13320,note_on,0,0,2,,,,,,,,,1,,,65,36
13320,note_on,0,0,2,,,,,,,,,1,,,67,36
13320,note_on,0,0,3,,,,,,,,,2,,,59,36
13320,note_on,240,0,1,,,,,,,,,0,,,76,0
13320,note_on,0,0,3,,,,,,,,,2,,,55,36
13320,note_on,0,0,3,,,,,,,,,2,,,48,0
13320,note_on,240,0,3,,,,,,,,,2,,,60,0
13320,note_on,0,0,3,,,,,,,,,2,,,55,0
13320,note_on,0,0,1,,,,,,,,,0,,,74,49
13320,note_on,0,0,3,,,,,,,,,2,,,50,36
13380,note_on,0,0,1,,,,,,,,,0,,,71,49
13380,note_on,60,0,1,,,,,,,,,0,,,74,0
13440,note_on,0,0,3,,,,,,,,,2,,,50,0
13440,note_on,0,0,3,,,,,,,,,2,,,52,36
13440,control_change,0,0,3,,,,,,,,,2,64,127,,
13440,note_on,0,0,3,,,,,,,,,2,,,55,36
13440,note_on,0,0,3,,,,,,,,,2,,,55,0
13440,note_on,120,0,3,,,,,,,,,2,,,59,0
13440,control_change,0,0,1,,,,,,,,,0,64,127,,
13440,note_on,60,0,1,,,,,,,,,0,,,71,0
13440,note_on,0,0,2,,,,,,,,,1,,,67,36
13440,control_change,0,0,2,,,,,,,,,1,64,127,,
13440,note_on,0,0,2,,,,,,,,,1,,,65,0
13440,note_on,120,0,2,,,,,,,,,1,,,67,0
13440,note_on,0,0,3,,,,,,,,,2,,,60,36
13440,note_on,0,0,1,,,,,,,,,0,,,79,49
13452,note_on,12,0,3,,,,,,,,,2,,,60,0
13452,note_on,0,0,3,,,,,,,,,2,,,55,0
13452,note_on,0,0,3,,,,,,,,,2,,,52,0
13452,note_on,12,0,1,,,,,,,,,0,,,79,0
13452,note_on,12,0,2,,,,,,,,,1,,,67,0
13560,note_on,108,0,1,,,,,,,,,0,,,79,49
13560,control_change,108,0,2,,,,,,,,,1,64,0,,
13560,note_on,0,0,2,,,,,,,,,1,,,67,36
13560,note_on,0,0,3,,,,,,,,,2,,,60,36
13560,note_on,0,0,3,,,,,,,,,2,,,55,36
13560,note_on,108,0,3,,,,,,,,,2,,,52,36
13572,note_on,0,0,3,,,,,,,,,2,,,52,0
13572,note_on,12,0,3,,,,,,,,,2,,,60,0
13572,note_on,12,0,1,,,,,,,,,0,,,79,0
13572,note_on,0,0,3,,,,,,,,,2,,,55,0
13572,note_on,12,0,2,,,,,,,,,1,,,67,0
13680,control_change,108,0,1,,,,,,,,,0,64,0,,
13680,note_on,0,0,1,,,,,,,,,0,,,88,49
13680,note_on,0,0,3,,,,,,,,,2,,,72,36
13680,control_change,108,0,3,,,,,,,,,2,64,0,,
13740,note_on,0,0,1,,,,,,,,,0,,,84,49
13740,note_on,60,0,1,,,,,,,,,0,,,88,0
13740,note_on,0,0,3,,,,,,,,,2,,,69,36
13740,note_on,60,0,3,,,,,,,,,2,,,72,0
13800,note_on,60,0,3,,,,,,,,,2,,,69,0
13800,note_on,0,0,3,,,,,,,,,2,,,72,88
13800,note_on,60,0,1,,,,,,,,,0,,,84,0
13800,control_change,0,0,1,,,,,,,,,0,64,127,,
13800,note_on,0,0,1,,,,,,,,,0,,,88,75
13800,control_change,0,0,3,,,,,,,,,2,64,127,,
13980,note_on,0,0,1,,,,,,,,,0,,,84,49
13980,note_on,0,0,3,,,,,,,,,2,,,69,36
13980,note_on,180,0,3,,,,,,,,,2,,,72,0
13980,note_on,180,0,1,,,,,,,,,0,,,88,0
14040,note_on,60,0,3,,,,,,,,,2,,,69,0
14040,note_on,0,0,3,,,,,,,,,2,,,71,36
14040,note_on,60,0,1,,,,,,,,,0,,,84,0
14040,note_on,0,0,1,,,,,,,,,0,,,86,49
14100,note_on,0,0,3,,,,,,,,,2,,,72,36
14100,control_change,0,0,3,,,,,,,,,2,64,0,,
14100,note_on,60,0,3,,,,,,,,,2,,,71,0
14100,note_on,60,0,1,,,,,,,,,0,,,86,0
14100,control_change,0,0,1,,,,,,,,,0,64,0,,
14100,note_on,0,0,1,,,,,,,,,0,,,88,49
14160,control_change,0,0,3,,,,,,,,,2,64,127,,
14160,note_on,0,0,3,,,,,,,,,2,,,66,36
14160,note_on,60,0,1,,,,,,,,,0,,,88,0
14160,control_change,5520,0,4,,,,,,,,,3,64,127,,
14160,note_on,0,0,4,,,,,,,,,3,,,62,75
14160,note_on,0,0,1,,,,,,,,,0,,,81,49
14160,control_change,0,0,1,,,,,,,,,0,64,127,,
14160,note_on,60,0,3,,,,,,,,,2,,,72,0
14172,note_on,12,0,1,,,,,,,,,0,,,81,0
14280,note_on,0,0,3,,,,,,,,,2,,,66,36
14280,note_on,120,0,3,,,,,,,,,2,,,66,0
14280,note_on,108,0,1,,,,,,,,,0,,,81,49
14292,note_on,12,0,1,,,,,,,,,0,,,81,0
14340,note_on,180,0,4,,,,,,,,,3,,,62,0
14340,note_on,0,0,4,,,,,,,,,3,,,64,49
14400,control_change,0,0,3,,,,,,,,,2,64,0,,
14400,note_on,120,0,3,,,,,,,,,2,,,66,0
14400,note_on,0,0,4,,,,,,,,,3,,,62,49
14400,note_on,60,0,4,,,,,,,,,3,,,64,0
14400,control_change,108,0,1,,,,,,,,,0,64,0,,
14460,control_change,0,0,4,,,,,,,,,3,64,0,,
14460,note_on,60,0,4,,,,,,,,,3,,,62,0
14460,note_on,0,0,4,,,,,,,,,3,,,60,49
14520,control_change,120,0,3,,,,,,,,,2,64,127,,
14520,control_change,0,0,4,,,,,,,,,3,64,127,,
14520,note_on,0,0,4,,,,,,,,,3,,,59,49
14520,note_on,0,0,3,,,,,,,,,2,,,71,88
14520,note_on,60,0,4,,,,,,,,,3,,,60,0
14520,control_change,120,0,1,,,,,,,,,0,64,127,,
14520,note_on,0,0,1,,,,,,,,,0,,,86,101
14524,note_on,4,0,4,,,,,,,,,3,,,59,0
14640,note_on,116,0,4,,,,,,,,,3,,,59,49
14644,note_on,4,0,4,,,,,,,,,3,,,59,0
14700,note_on,0,0,3,,,,,,,,,2,,,67,36
14700,note_on,180,0,1,,,,,,,,,0,,,86,0
14700,note_on,0,0,1,,,,,,,,,0,,,83,49
14700,note_on,180,0,3,,,,,,,,,2,,,71,0
14760,note_on,60,0,1,,,,,,,,,0,,,83,0
14760,control_change,116,0,4,,,,,,,,,3,64,0,,
14760,note_on,0,0,1,,,,,,,,,0,,,84,49
14760,note_on,60,0,3,,,,,,,,,2,,,67,0
14760,note_on,0,0,3,,,,,,,,,2,,,69,36
14820,control_change,0,0,3,,,,,,,,,2,64,0,,
14820,note_on,0,0,3,,,,,,,,,2,,,71,36
14820,note_on,0,0,1,,,,,,,,,0,,,86,49
14820,control_change,0,0,1,,,,,,,,,0,64,0,,
14820,note_on,60,0,1,,,,,,,,,0,,,84,0
14820,note_on,60,0,3,,,,,,,,,2,,,69,0
14880,note_on,0,0,1,,,,,,,,,0,,,79,49
14880,note_on,60,0,3,,,,,,,,,2,,,71,0
14880,control_change,0,0,3,,,,,,,,,2,64,127,,
14880,note_on,0,0,3,,,,,,,,,2,,,64,36
14880,control_change,120,0,4,,,,,,,,,3,64,127,,
14880,control_change,0,0,1,,,,,,,,,0,64,127,,
14880,note_on,0,0,4,,,,,,,,,3,,,52,101
14880,note_on,60,0,1,,,,,,,,,0,,,86,0
14884,note_on,4,0,3,,,,,,,,,2,,,64,0
14892,note_on,12,0,1,,,,,,,,,0,,,79,0
15000,note_on,116,0,3,,,,,,,,,2,,,64,36
15000,note_on,108,0,1,,,,,,,,,0,,,79,49
15004,note_on,4,0,1,,,,,,,,,0,,,79,0
15004,note_on,4,0,3,,,,,,,,,2,,,64,0
15060,note_on,180,0,4,,,,,,,,,3,,,52,0
15060,note_on,0,0,4,,,,,,,,,3,,,54,49
15120,note_on,60,0,4,,,,,,,,,3,,,54,0
15120,note_on,0,0,4,,,,,,,,,3,,,55,49
15120,control_change,116,0,1,,,,,,,,,0,64,0,,
15120,control_change,116,0,3,,,,,,,,,2,64,0,,
15180,note_on,60,0,4,,,,,,,,,3,,,55,0
15180,control_change,0,0,4,,,,,,,,,3,64,0,,
15180,note_on,0,0,4,,,,,,,,,3,,,56,49
15240,control_change,120,0,1,,,,,,,,,0,64,127,,
15240,note_on,0,0,1,,,,,,,,,0,,,78,75
15240,control_change,0,0,4,,,,,,,,,3,64,127,,
15240,note_on,0,0,3,,,,,,,,,2,,,62,62
15240,note_on,0,0,4,,,,,,,,,3,,,57,49
15240,control_change,120,0,3,,,,,,,,,2,64,127,,
15240,note_on,60,0,4,,,,,,,,,3,,,56,0
15252,note_on,12,0,4,,,,,,,,,3,,,57,0
15360,note_on,108,0,4,,,,,,,,,3,,,57,49
15364,note_on,4,0,4,,,,,,,,,3,,,57,0
15420,note_on,0,0,3,,,,,,,,,2,,,59,36
15420,note_on,0,0,1,,,,,,,,,0,,,74,49
15420,note_on,180,0,1,,,,,,,,,0,,,78,0
15420,note_on,180,0,3,,,,,,,,,2,,,62,0
15480,note_on,0,0,3,,,,,,,,,2,,,61,36
15480,note_on,60,0,3,,,,,,,,,2,,,59,0
15480,note_on,0,0,1,,,,,,,,,0,,,76,49
15480,control_change,116,0,4,,,,,,,,,3,64,0,,
15480,note_on,60,0,1,,,,,,,,,0,,,74,0
15540,note_on,0,0,1,,,,,,,,,0,,,78,49
15540,control_change,0,0,3,,,,,,,,,2,64,0,,
15540,note_on,60,0,3,,,,,,,,,2,,,61,0
15540,note_on,60,0,1,,,,,,,,,0,,,76,0
15540,control_change,0,0,1,,,,,,,,,0,64,0,,
15540,note_on,0,0,3,,,,,,,,,2,,,62,36
15600,note_on,0,0,4,,,,,,,,,3,,,57,49
15600,note_on,0,0,1,,,,,,,,,0,,,79,88
15600,note_on,0,0,3,,,,,,,,,2,,,64,49
15600,control_change,0,0,3,,,,,,,,,2,64,127,,
15600,control_change,0,0,1,,,,,,,,,0,64,127,,
15600,control_change,120,0,4,,,,,,,,,3,64,127,,
15600,note_on,60,0,3,,,,,,,,,2,,,62,0
15600,note_on,60,0,1,,,,,,,,,0,,,78,0
15612,note_on,12,0,4,,,,,,,,,3,,,57,0
15720,note_on,108,0,4,,,,,,,,,3,,,57,49
15724,note_on,4,0,4,,,,,,,,,3,,,57,0
15780,note_on,180,0,3,,,,,,,,,2,,,64,0
15780,note_on,180,0,1,,,,,,,,,0,,,79,0
15780,note_on,0,0,1,,,,,,,,,0,,,76,62
15780,note_on,0,0,3,,,,,,,,,2,,,61,49
15840,note_on,60,0,3,,,,,,,,,2,,,61,0
15840,control_change,116,0,4,,,,,,,,,3,64,0,,
15840,note_on,0,0,3,,,,,,,,,2,,,62,49
15840,note_on,60,0,1,,,,,,,,,0,,,76,0
15840,note_on,0,0,1,,,,,,,,,0,,,78,62
15900,note_on,0,0,1,,,,,,,,,0,,,79,62
15900,note_on,60,0,3,,,,,,,,,2,,,62,0
15900,control_change,0,0,3,,,,,,,,,2,64,0,,
15900,control_change,0,0,1,,,,,,,,,0,64,0,,
15900,note_on,60,0,1,,,,,,,,,0,,,78,0
15900,note_on,0,0,3,,,,,,,,,2,,,64,49
15960,note_on,0,0,3,,,,,,,,,2,,,66,49
15960,control_change,0,0,3,,,,,,,,,2,64,127,,
15960,control_change,0,0,1,,,,,,,,,0,64,127,,
15960,note_on,0,0,1,,,,,,,,,0,,,81,62
15960,note_on,60,0,3,,,,,,,,,2,,,64,0
15960,note_on,60,0,1,,,,,,,,,0,,,79,0
15960,control_change,120,0,4,,,,,,,,,3,64,127,,
15960,note_on,0,0,4,,,,,,,,,3,,,57,49
15972,note_on,12,0,3,,,,,,,,,2,,,66,0
15972,note_on,12,0,1,,,,,,,,,0,,,81,0
16080,note_on,108,0,3,,,,,,,,,2,,,66,49
16080,note_on,108,0,1,,,,,,,,,0,,,81,62
16092,note_on,12,0,1,,,,,,,,,0,,,81,0
16092,note_on,12,0,3,,,,,,,,,2,,,66,0
16140,note_on,180,0,4,,,,,,,,,3,,,57,0
16140,note_on,0,0,4,,,,,,,,,3,,,59,62
16200,control_change,108,0,3,,,,,,,,,2,64,0,,
16200,note_on,60,0,4,,,,,,,,,3,,,59,0
16200,control_change,108,0,1,,,,,,,,,0,64,0,,
16200,note_on,0,0,4,,,,,,,,,3,,,61,62
16260,note_on,60,0,4,,,,,,,,,3,,,61,0
16260,control_change,0,0,4,,,,,,,,,3,64,0,,
16260,note_on,0,0,4,,,,,,,,,3,,,62,62
16320,note_on,0,0,1,,,,,,,,,0,,,81,75
16320,note_on,0,0,3,,,,,,,,,2,,,67,62
16320,note_on,0,0,3,,,,,,,,,2,,,64,62
16320,control_change,120,0,3,,,,,,,,,2,64,127,,
16320,note_on,60,0,4,,,,,,,,,3,,,62,0
16320,control_change,2748,0,2,,,,,,,,,1,64,127,,
16320,note_on,0,0,2,,,,,,,,,1,,,69,75
16320,control_change,120,0,1,,,,,,,,,0,64,127,,
16332,note_on,12,0,3,,,,,,,,,2,,,67,0
16332,note_on,0,0,3,,,,,,,,,2,,,64,0
16380,note_on,60,0,2,,,,,,,,,1,,,69,0
16380,note_on,0,0,2,,,,,,,,,1,,,71,75
16440,note_on,60,0,2,,,,,,,,,1,,,71,0
16440,control_change,0,0,2,,,,,,,,,1,64,0,,
16440,note_on,0,0,3,,,,,,,,,2,,,67,62
16440,note_on,108,0,3,,,,,,,,,2,,,64,62
16440,note_on,0,0,2,,,,,,,,,1,,,72,75
16452,note_on,12,0,3,,,,,,,,,2,,,67,0
16452,note_on,0,0,3,,,,,,,,,2,,,64,0
16500,note_on,60,0,2,,,,,,,,,1,,,72,0
16500,note_on,0,0,1,,,,,,,,,0,,,82,75
16500,note_on,180,0,1,,,,,,,,,0,,,81,0
16500,note_on,0,0,1,,,,,,,,,0,,,73,75
16560,control_change,108,0,3,,,,,,,,,2,64,0,,
16560,note_on,60,0,1,,,,,,,,,0,,,82,0
16560,note_on,0,0,1,,,,,,,,,0,,,73,0
16560,note_on,0,0,1,,,,,,,,,0,,,74,75
16560,note_on,0,0,1,,,,,,,,,0,,,83,75
16620,note_on,0,0,1,,,,,,,,,0,,,74,0
16620,control_change,0,0,1,,,,,,,,,0,64,0,,
16620,note_on,0,0,1,,,,,,,,,0,,,85,75
16620,note_on,0,0,1,,,,,,,,,0,,,76,75
16620,note_on,60,0,1,,,,,,,,,0,,,83,0
16680,note_on,0,0,1,,,,,,,,,0,,,86,88
16680,control_change,0,0,1,,,,,,,,,0,64,127,,
16680,note_on,0,0,1,,,,,,,,,0,,,77,88
16680,note_on,0,0,1,,,,,,,,,0,,,76,0
16680,note_on,60,0,1,,,,,,,,,0,,,85,0
16680,control_change,120,0,3,,,,,,,,,2,64,127,,
16680,note_on,0,0,3,,,,,,,,,2,,,68,75
16680,note_on,0,0,3,,,,,,,,,2,,,71,75
16692,note_on,0,0,3,,,,,,,,,2,,,68,0
16692,note_on,0,0,1,,,,,,,,,0,,,77,0
16692,note_on,12,0,1,,,,,,,,,0,,,86,0
16692,note_on,12,0,3,,,,,,,,,2,,,71,0
16800,note_on,0,0,1,,,,,,,,,0,,,86,88
16800,note_on,108,0,1,,,,,,,,,0,,,77,88
16800,note_on,0,0,3,,,,,,,,,2,,,71,75
16800,note_on,108,0,3,,,,,,,,,2,,,68,75
16812,note_on,0,0,1,,,,,,,,,0,,,77,0
16812,note_on,12,0,1,,,,,,,,,0,,,86,0
16812,note_on,0,0,3,,,,,,,,,2,,,68,0
16812,note_on,12,0,3,,,,,,,,,2,,,71,0
16920,control_change,108,0,1,,,,,,,,,0,64,0,,
16920,control_change,108,0,3,,,,,,,,,2,64,0,,
17400,control_change,1080,0,4,,,,,,,,,3,64,127,,
17400,note_on,0,0,4,,,,,,,,,3,,,45,36
17400,note_on,480,0,3,,,,,,,,,2,,,54,36
17400,note_on,0,0,1,,,,,,,,,0,,,69,36
17400,control_change,480,0,1,,,,,,,,,0,64,127,,
17412,note_on,12,0,4,,,,,,,,,3,,,45,0
17520,note_on,108,0,4,,,,,,,,,3,,,45,36
17532,note_on,12,0,4,,,,,,,,,3,,,45,0
17580,note_on,180,0,1,,,,,,,,,0,,,69,0
17580,note_on,0,0,1,,,,,,,,,0,,,67,36
17640,note_on,0,0,3,,,,,,,,,2,,,55,36
17640,note_on,0,0,1,,,,,,,,,0,,,66,36
17640,note_on,240,0,3,,,,,,,,,2,,,54,0
17640,control_change,108,0,4,,,,,,,,,3,64,0,,
17640,note_on,60,0,1,,,,,,,,,0,,,67,0
17700,control_change,0,0,1,,,,,,,,,0,64,0,,
17700,note_on,0,0,1,,,,,,,,,0,,,64,36
17700,note_on,60,0,1,,,,,,,,,0,,,66,0
17760,note_on,0,0,1,,,,,,,,,0,,,63,36
17760,control_change,0,0,1,,,,,,,,,0,64,127,,
17760,note_on,60,0,1,,,,,,,,,0,,,64,0
17760,note_on,0,0,4,,,,,,,,,3,,,45,36
17760,control_change,120,0,4,,,,,,,,,3,64,127,,
17760,note_on,0,0,2,,,,,,,,,1,,,60,36
17760,control_change,1260,0,2,,,,,,,,,1,64,127,,
17760,note_on,0,0,3,,,,,,,,,2,,,57,36
17760,note_on,120,0,3,,,,,,,,,2,,,55,0
17772,note_on,12,0,4,,,,,,,,,3,,,45,0
17772,note_on,12,0,1,,,,,,,,,0,,,63,0
17880,note_on,108,0,4,,,,,,,,,3,,,45,36
17880,note_on,108,0,1,,,,,,,,,0,,,63,36
17892,note_on,12,0,4,,,,,,,,,3,,,45,0
17892,note_on,12,0,1,,,,,,,,,0,,,63,0
17940,note_on,0,0,2,,,,,,,,,1,,,59,36
17940,note_on,180,0,2,,,,,,,,,1,,,60,0
18000,control_change,108,0,1,,,,,,,,,0,64,0,,
18000,note_on,240,0,3,,,,,,,,,2,,,57,0
18000,note_on,0,0,2,,,,,,,,,1,,,58,36
18000,note_on,0,0,3,,,,,,,,,2,,,54,36
18000,note_on,60,0,2,,,,,,,,,1,,,59,0
18000,control_change,108,0,4,,,,,,,,,3,64,0,,
18060,note_on,0,0,2,,,,,,,,,1,,,57,36
18060,note_on,60,0,2,,,,,,,,,1,,,58,0
18060,control_change,0,0,2,,,,,,,,,1,64,0,,
18120,note_on,0,0,2,,,,,,,,,1,,,55,36
18120,control_change,0,0,2,,,,,,,,,1,64,127,,
18120,note_on,0,0,4,,,,,,,,,3,,,45,36
18120,control_change,120,0,4,,,,,,,,,3,64,127,,
18120,note_on,60,0,2,,,,,,,,,1,,,57,0
18120,note_on,0,0,3,,,,,,,,,2,,,52,36
18120,note_on,120,0,3,,,,,,,,,2,,,54,0
18120,control_change,120,0,1,,,,,,,,,0,64,127,,
18120,note_on,0,0,1,,,,,,,,,0,,,67,36
18124,note_on,4,0,4,,,,,,,,,3,,,45,0
18132,note_on,12,0,2,,,,,,,,,1,,,55,0
18240,note_on,116,0,4,,,,,,,,,3,,,45,36
18240,note_on,108,0,2,,,,,,,,,1,,,55,36
18252,note_on,12,0,4,,,,,,,,,3,,,45,0
18252,note_on,12,0,2,,,,,,,,,1,,,55,0
18300,note_on,180,0,1,,,,,,,,,0,,,67,0
18300,note_on,0,0,1,,,,,,,,,0,,,66,36
18360,note_on,240,0,3,,,,,,,,,2,,,52,0
18360,control_change,108,0,4,,,,,,,,,3,64,0,,
18360,note_on,60,0,1,,,,,,,,,0,,,66,0
18360,note_on,0,0,3,,,,,,,,,2,,,54,36
18360,note_on,0,0,1,,,,,,,,,0,,,64,36
18360,control_change,108,0,2,,,,,,,,,1,64,0,,
18420,control_change,0,0,1,,,,,,,,,0,64,0,,
18420,note_on,0,0,1,,,,,,,,,0,,,62,36
18420,note_on,60,0,1,,,,,,,,,0,,,64,0
18480,note_on,60,0,1,,,,,,,,,0,,,62,0
18480,control_change,0,0,1,,,,,,,,,0,64,127,,
18480,note_on,0,0,1,,,,,,,,,0,,,61,36
18480,note_on,0,0,3,,,,,,,,,2,,,55,36
18480,note_on,0,0,2,,,,,,,,,1,,,58,36
18480,control_change,120,0,2,,,,,,,,,1,64,127,,
18480,note_on,120,0,3,,,,,,,,,2,,,54,0
18480,control_change,120,0,4,,,,,,,,,3,64,127,,
18480,note_on,0,0,4,,,,,,,,,3,,,45,36
18492,note_on,12,0,1,,,,,,,,,0,,,61,0
18492,note_on,12,0,4,,,,,,,,,3,,,45,0
18600,note_on,108,0,1,,,,,,,,,0,,,61,36
18600,note_on,108,0,4,,,,,,,,,3,,,45,36
18612,note_on,12,0,4,,,,,,,,,3,,,45,0
18612,note_on,12,0,1,,,,,,,,,0,,,61,0
18660,note_on,0,0,2,,,,,,,,,1,,,57,36
18660,note_on,180,0,2,,,,,,,,,1,,,58,0
18720,control_change,108,0,1,,,,,,,,,0,64,0,,
18720,note_on,240,0,3,,,,,,,,,2,,,55,0
18720,note_on,0,0,3,,,,,,,,,2,,,52,36
18720,note_on,60,0,2,,,,,,,,,1,,,57,0
18720,note_on,0,0,2,,,,,,,,,1,,,56,36
18720,control_change,108,0,4,,,,,,,,,3,64,0,,
18780,note_on,60,0,2,,,,,,,,,1,,,56,0
18780,control_change,0,0,2,,,,,,,,,1,64,0,,
18780,note_on,0,0,2,,,,,,,,,1,,,55,36
18840,note_on,120,0,1,,,,,,,,,0,,,54,88
18840,note_on,0,0,3,,,,,,,,,2,,,47,75
18840,note_on,120,0,3,,,,,,,,,2,,,52,0
18840,note_on,0,0,1,,,,,,,,,0,,,62,88
18840,note_on,60,0,2,,,,,,,,,1,,,55,0
18852,note_on,0,0,1,,,,,,,,,0,,,54,0
18852,note_on,12,0,3,,,,,,,,,2,,,47,0
18852,note_on,12,0,1,,,,,,,,,0,,,62,0
18960,note_on,0,0,1,,,,,,,,,0,,,64,88
18960,note_on,0,0,1,,,,,,,,,0,,,62,88
18960,note_on,108,0,1,,,,,,,,,0,,,59,88
18960,note_on,108,0,3,,,,,,,,,2,,,43,75
18972,note_on,12,0,1,,,,,,,,,0,,,64,0
18972,note_on,0,0,1,,,,,,,,,0,,,62,0
18972,note_on,12,0,3,,,,,,,,,2,,,43,0
18972,note_on,0,0,1,,,,,,,,,0,,,59,0
19080,note_on,108,0,3,,,,,,,,,2,,,45,75
19080,note_on,0,0,1,,,,,,,,,0,,,66,88
19080,note_on,0,0,1,,,,,,,,,0,,,61,88
19080,note_on,108,0,1,,,,,,,,,0,,,57,88
19092,note_on,12,0,3,,,,,,,,,2,,,45,0
19092,note_on,0,0,1,,,,,,,,,0,,,57,0
19092,note_on,0,0,1,,,,,,,,,0,,,61,0
19092,note_on,12,0,1,,,,,,,,,0,,,66,0
19200,note_on,0,0,1,,,,,,,,,0,,,57,88
19200,control_change,108,0,3,,,,,,,,,2,64,127,,
19200,note_on,0,0,3,,,,,,,,,2,,,50,75
19200,note_on,0,0,3,,,,,,,,,2,,,54,75
19200,note_on,0,0,1,,,,,,,,,0,,,66,88
19200,note_on,0,0,1,,,,,,,,,0,,,62,88
19200,control_change,108,0,1,,,,,,,,,0,64,127,,
19212,note_on,12,0,1,,,,,,,,,0,,,66,0
19212,note_on,0,0,1,,,,,,,,,0,,,57,0
19212,note_on,0,0,1,,,,,,,,,0,,,62,0
19212,note_on,0,0,3,,,,,,,,,2,,,50,0
19212,note_on,12,0,3,,,,,,,,,2,,,54,0
19320,note_on,108,0,1,,,,,,,,,0,,,69,88
19380,note_on,0,0,1,,,,,,,,,0,,,66,88
19380,note_on,60,0,1,,,,,,,,,0,,,69,0
19440,note_on,60,0,1,,,,,,,,,0,,,66,0
19440,note_on,0,0,1,,,,,,,,,0,,,69,88
19560,note_on,120,0,1,,,,,,,,,0,,,69,0
19560,control_change,0,0,1,,,,,,,,,0,64,0,,
19560,note_on,0,0,1,,,,,,,,,0,,,54,49
19560,note_on,0,0,1,,,,,,,,,0,,,62,49
19560,note_on,0,0,3,,,,,,,,,2,,,47,36
19560,control_change,348,0,3,,,,,,,,,2,64,0,,
19572,note_on,0,0,1,,,,,,,,,0,,,54,0
19572,note_on,12,0,1,,,,,,,,,0,,,62,0
19572,note_on,12,0,3,,,,,,,,,2,,,47,0
19680,note_on,108,0,3,,,,,,,,,2,,,43,36
19680,note_on,108,0,1,,,,,,,,,0,,,59,49
19680,note_on,0,0,1,,,,,,,,,0,,,62,49
19680,note_on,0,0,1,,,,,,,,,0,,,64,49
19692,note_on,0,0,1,,,,,,,,,0,,,59,0
19692,note_on,0,0,1,,,,,,,,,0,,,62,0
19692,note_on,12,0,3,,,,,,,,,2,,,43,0
19692,note_on,12,0,1,,,,,,,,,0,,,64,0
19800,note_on,0,0,1,,,,,,,,,0,,,61,49
19800,note_on,108,0,1,,,,,,,,,0,,,57,49
19800,note_on,108,0,3,,,,,,,,,2,,,45,36
19800,note_on,0,0,1,,,,,,,,,0,,,66,49
19812,note_on,0,0,1,,,,,,,,,0,,,57,0
19812,note_on,12,0,3,,,,,,,,,2,,,45,0
19812,note_on,0,0,1,,,,,,,,,0,,,61,0
19812,note_on,12,0,1,,,,,,,,,0,,,66,0
19920,time_signature,9720,1,0,2,4,24,8,,,,,,,,,
19920,note_on,0,0,1,,,,,,,,,0,,,62,49
19920,note_on,0,0,1,,,,,,,,,0,,,54,49
19920,control_change,108,0,1,,,,,,,,,0,64,127,,
19920,note_on,0,0,3,,,,,,,,,2,,,38,36
19920,control_change,108,0,3,,,,,,,,,2,64,127,,
19932,note_on,12,0,3,,,,,,,,,2,,,38,0
19932,note_on,12,0,1,,,,,,,,,0,,,62,0
19932,note_on,0,0,1,,,,,,,,,0,,,54,0
20040,control_change,108,0,3,,,,,,,,,2,64,0,,
20040,control_change,108,0,1,,,,,,,,,0,64,0,,
20160,time_signature,240,1,0,1,4,24,8,,,,,,,,,
20280,time_signature,120,1,0,3,4,24,8,,,,,,,,,
20280,note_on,240,0,1,,,,,,,,,0,,,70,36
20280,note_on,240,0,3,,,,,,,,,2,,,62,36
20280,note_on,0,0,3,,,,,,,,,2,,,65,36
20292,note_on,0,0,3,,,,,,,,,2,,,62,0
20292,note_on,12,0,3,,,,,,,,,2,,,65,0
20292,note_on,12,0,1,,,,,,,,,0,,,70,0
20400,note_on,0,0,3,,,,,,,,,2,,,67,36
20400,note_on,108,0,3,,,,,,,,,2,,,63,36
20400,note_on,0,0,1,,,,,,,,,0,,,72,36
20400,note_on,108,0,1,,,,,,,,,0,,,70,36
20412,note_on,12,0,3,,,,,,,,,2,,,67,0
20412,note_on,0,0,1,,,,,,,,,0,,,70,0
20412,note_on,0,0,3,,,,,,,,,2,,,63,0
20412,note_on,12,0,1,,,,,,,,,0,,,72,0
20520,note_on,0,0,1,,,,,,,,,0,,,74,36
20520,note_on,108,0,3,,,,,,,,,2,,,65,36
20520,note_on,108,0,1,,,,,,,,,0,,,69,36
20532,note_on,0,0,1,,,,,,,,,0,,,69,0
20532,note_on,12,0,1,,,,,,,,,0,,,74,0
20532,note_on,12,0,3,,,,,,,,,2,,,65,0
20640,note_on,0,0,3,,,,,,,,,2,,,65,36
20640,note_on,108,0,3,,,,,,,,,2,,,58,36
20640,note_on,0,0,1,,,,,,,,,0,,,74,36
20640,note_on,0,0,1,,,,,,,,,0,,,70,36
20640,control_change,108,0,1,,,,,,,,,0,64,127,,
20652,note_on,0,0,1,,,,,,,,,0,,,70,0
20652,note_on,12,0,1,,,,,,,,,0,,,74,0
20760,note_on,0,0,3,,,,,,,,,2,,,58,0
20760,note_on,120,0,3,,,,,,,,,2,,,65,0
20760,note_on,108,0,1,,,,,,,,,0,,,77,36
20820,note_on,60,0,1,,,,,,,,,0,,,77,0
20820,note_on,0,0,1,,,,,,,,,0,,,74,36
20880,note_on,60,0,1,,,,,,,,,0,,,74,0
20880,note_on,0,0,1,,,,,,,,,0,,,77,36
21000,note_on,120,0,1,,,,,,,,,0,,,77,0
21000,control_change,0,0,1,,,,,,,,,0,64,0,,
21000,note_on,240,0,3,,,,,,,,,2,,,62,36
21000,note_on,0,0,3,,,,,,,,,2,,,65,36
21000,note_on,0,0,1,,,,,,,,,0,,,70,36
21004,note_on,4,0,1,,,,,,,,,0,,,70,0
21012,note_on,0,0,3,,,,,,,,,2,,,62,0
21012,note_on,12,0,3,,,,,,,,,2,,,65,0
21120,note_on,116,0,1,,,,,,,,,0,,,70,36
21120,note_on,108,0,3,,,,,,,,,2,,,63,36
21120,note_on,0,0,1,,,,,,,,,0,,,72,36
21120,note_on,0,0,3,,,,,,,,,2,,,67,36
21132,note_on,12,0,3,,,,,,,,,2,,,67,0
21132,note_on,0,0,3,,,,,,,,,2,,,63,0
21132,note_on,12,0,1,,,,,,,,,0,,,72,0
21132,note_on,0,0,1,,,,,,,,,0,,,70,0
21240,note_on,108,0,1,,,,,,,,,0,,,69,36
21240,note_on,0,0,1,,,,,,,,,0,,,74,36
21240,note_on,108,0,3,,,,,,,,,2,,,65,36
21252,note_on,12,0,1,,,,,,,,,0,,,74,0
21252,note_on,0,0,1,,,,,,,,,0,,,69,0
21252,note_on,12,0,3,,,,,,,,,2,,,65,0
21360,control_change,108,0,1,,,,,,,,,0,64,127,,
21360,note_on,0,0,1,,,,,,,,,0,,,70,36
21360,control_change,108,0,3,,,,,,,,,2,64,127,,
21360,note_on,0,0,3,,,,,,,,,2,,,58,36
21360,note_on,0,0,3,,,,,,,,,2,,,62,36
21480,note_on,120,0,3,,,,,,,,,2,,,62,0
21480,note_on,0,0,3,,,,,,,,,2,,,46,36
21480,note_on,0,0,3,,,,,,,,,2,,,58,0
21480,note_on,120,0,1,,,,,,,,,0,,,70,0
21540,note_on,0,0,3,,,,,,,,,2,,,41,36
21540,note_on,60,0,3,,,,,,,,,2,,,46,0
21600,note_on,60,0,3,,,,,,,,,2,,,41,0
21600,note_on,0,0,3,,,,,,,,,2,,,46,36
21720,note_on,0,0,1,,,,,,,,,0,,,74,36
21720,note_on,120,0,3,,,,,,,,,2,,,46,0
21720,note_on,240,0,1,,,,,,,,,0,,,65,36
21720,note_on,0,0,1,,,,,,,,,0,,,77,36
21732,note_on,0,0,1,,,,,,,,,0,,,65,0
21732,note_on,0,0,1,,,,,,,,,0,,,74,0
21732,note_on,12,0,1,,,,,,,,,0,,,77,0
21840,note_on,0,0,1,,,,,,,,,0,,,77,36
21840,note_on,0,0,1,,,,,,,,,0,,,74,36
21840,note_on,108,0,1,,,,,,,,,0,,,65,36
21840,note_on,120,0,3,,,,,,,,,2,,,46,36
21852,note_on,12,0,1,,,,,,,,,0,,,77,0
21852,note_on,0,0,1,,,,,,,,,0,,,74,0
21852,note_on,0,0,1,,,,,,,,,0,,,65,0
21900,note_on,0,0,3,,,,,,,,,2,,,41,36
21900,note_on,60,0,3,,,,,,,,,2,,,46,0
21960,note_on,0,0,3,,,,,,,,,2,,,46,36
21960,note_on,60,0,3,,,,,,,,,2,,,41,0
22080,note_on,0,0,1,,,,,,,,,0,,,74,36
22080,note_on,0,0,1,,,,,,,,,0,,,82,36
22080,note_on,120,0,3,,,,,,,,,2,,,46,0
22080,note_on,228,0,1,,,,,,,,,0,,,70,36
22092,note_on,0,0,1,,,,,,,,,0,,,70,0
22092,note_on,0,0,1,,,,,,,,,0,,,74,0
22092,note_on,12,0,1,,,,,,,,,0,,,82,0
22200,note_on,0,0,1,,,,,,,,,0,,,82,36
22200,note_on,0,0,1,,,,,,,,,0,,,74,36
22200,note_on,108,0,1,,,,,,,,,0,,,70,36
22200,note_on,120,0,3,,,,,,,,,2,,,46,36
22212,note_on,0,0,1,,,,,,,,,0,,,74,0
22212,note_on,12,0,1,,,,,,,,,0,,,82,0
22212,note_on,0,0,1,,,,,,,,,0,,,70,0
22260,note_on,60,0,3,,,,,,,,,2,,,46,0
22260,note_on,0,0,3,,,,,,,,,2,,,41,36
22320,control_change,108,0,1,,,,,,,,,0,64,0,,
22320,note_on,60,0,3,,,,,,,,,2,,,41,0
22320,control_change,0,0,3,,,,,,,,,2,64,0,,
22320,note_on,0,0,3,,,,,,,,,2,,,46,36
22440,note_on,120,0,3,,,,,,,,,2,,,46,0
22440,note_on,120,0,1,,,,,,,,,0,,,74,49
22452,note_on,12,0,1,,,,,,,,,0,,,74,0
22560,note_on,108,0,1,,,,,,,,,0,,,75,49
22572,note_on,12,0,1,,,,,,,,,0,,,75,0
22680,note_on,108,0,1,,,,,,,,,0,,,77,49
22692,note_on,12,0,1,,,,,,,,,0,,,77,0
22800,note_on,0,0,3,,,,,,,,,2,,,62,49
22800,note_on,108,0,1,,,,,,,,,0,,,70,49
22800,note_on,0,0,3,,,,,,,,,2,,,58,49
22800,control_change,360,0,3,,,,,,,,,2,64,127,,
22812,note_on,12,0,3,,,,,,,,,2,,,62,0
22812,note_on,0,0,3,,,,,,,,,2,,,58,0
22920,note_on,0,0,3,,,,,,,,,2,,,63,49
22920,note_on,108,0,3,,,,,,,,,2,,,60,49
22920,note_on,120,0,1,,,,,,,,,0,,,70,0
22932,note_on,12,0,3,,,,,,,,,2,,,63,0
22932,note_on,0,0,3,,,,,,,,,2,,,60,0
23040,note_on,108,0,3,,,,,,,,,2,,,62,49
23040,note_on,0,0,3,,,,,,,,,2,,,65,49
23052,note_on,12,0,3,,,,,,,,,2,,,65,0
23052,note_on,0,0,3,,,,,,,,,2,,,62,0
23160,note_on,240,0,1,,,,,,,,,0,,,79,49
23160,note_on,0,0,3,,,,,,,,,2,,,58,49
23160,note_on,0,0,3,,,,,,,,,2,,,55,49
23160,control_change,108,0,3,,,,,,,,,2,64,0,,
23220,note_on,0,0,1,,,,,,,,,0,,,81,49
23220,note_on,60,0,1,,,,,,,,,0,,,79,0
23280,note_on,120,0,3,,,,,,,,,2,,,58,0
23280,note_on,0,0,3,,,,,,,,,2,,,55,0
23280,note_on,60,0,1,,,,,,,,,0,,,81,0
23280,note_on,0,0,1,,,,,,,,,0,,,81,49
23340,note_on,0,0,1,,,,,,,,,0,,,82,49
23340,note_on,60,0,1,,,,,,,,,0,,,81,0
23400,note_on,0,0,1,,,,,,,,,0,,,82,49
23400,note_on,60,0,1,,,,,,,,,0,,,82,0
23520,note_on,120,0,1,,,,,,,,,0,,,82,0
23520,note_on,240,0,3,,,,,,,,,2,,,63,49
23520,note_on,0,0,3,,,,,,,,,2,,,67,49
23520,note_on,0,0,1,,,,,,,,,0,,,75,49
23580,note_on,60,0,3,,,,,,,,,2,,,67,0
23580,note_on,0,0,3,,,,,,,,,2,,,63,0
23580,note_on,0,0,3,,,,,,,,,2,,,65,49
23580,note_on,0,0,3,,,,,,,,,2,,,69,49
23640,note_on,60,0,3,,,,,,,,,2,,,69,0
23640,note_on,0,0,3,,,,,,,,,2,,,65,0
23640,note_on,0,0,3,,,,,,,,,2,,,65,49
23640,note_on,0,0,3,,,,,,,,,2,,,69,49
23640,note_on,120,0,1,,,,,,,,,0,,,75,0
23700,note_on,60,0,3,,,,,,,,,2,,,69,0
23700,note_on,0,0,3,,,,,,,,,2,,,65,0
23700,note_on,0,0,3,,,,,,,,,2,,,67,49
23700,note_on,0,0,3,,,,,,,,,2,,,70,49
23760,note_on,0,0,3,,,,,,,,,2,,,67,49
23760,note_on,0,0,3,,,,,,,,,2,,,70,49
23760,note_on,60,0,3,,,,,,,,,2,,,70,0
23760,note_on,0,0,3,,,,,,,,,2,,,67,0
23880,note_on,0,0,3,,,,,,,,,2,,,60,49
23880,note_on,0,0,3,,,,,,,,,2,,,67,0
23880,note_on,120,0,3,,,,,,,,,2,,,70,0
23880,note_on,0,0,1,,,,,,,,,0,,,75,49
23880,note_on,0,0,3,,,,,,,,,2,,,63,49
23880,control_change,240,0,1,,,,,,,,,0,64,127,,
23892,note_on,12,0,1,,,,,,,,,0,,,75,0
24000,note_on,108,0,1,,,,,,,,,0,,,77,49
24000,note_on,120,0,3,,,,,,,,,2,,,63,0
24000,note_on,0,0,3,,,,,,,,,2,,,60,0
24012,note_on,12,0,1,,,,,,,,,0,,,77,0
24120,note_on,108,0,1,,,,,,,,,0,,,79,49
24132,note_on,12,0,1,,,,,,,,,0,,,79,0
24240,control_change,108,0,1,,,,,,,,,0,64,0,,
24240,note_on,0,0,1,,,,,,,,,0,,,72,49
24240,note_on,0,0,3,,,,,,,,,2,,,65,49
24240,note_on,240,0,3,,,,,,,,,2,,,57,49
24252,note_on,0,0,3,,,,,,,,,2,,,57,0
24252,note_on,12,0,3,,,,,,,,,2,,,65,0
24360,note_on,108,0,3,,,,,,,,,2,,,55,49
24360,note_on,0,0,3,,,,,,,,,2,,,64,49
24360,note_on,120,0,1,,,,,,,,,0,,,72,0
24372,note_on,0,0,3,,,,,,,,,2,,,55,0
24372,note_on,12,0,3,,,,,,,,,2,,,64,0
24480,note_on,108,0,3,,,,,,,,,2,,,57,49
24480,note_on,0,0,3,,,,,,,,,2,,,63,49
24492,note_on,12,0,3,,,,,,,,,2,,,63,0
24492,note_on,0,0,3,,,,,,,,,2,,,57,0
24600,control_change,108,0,3,,,,,,,,,2,64,127,,
24600,note_on,0,0,3,,,,,,,,,2,,,58,49
24600,note_on,0,0,3,,,,,,,,,2,,,62,49
24600,note_on,0,0,1,,,,,,,,,0,,,74,49
24600,control_change,240,0,1,,,,,,,,,0,64,127,,
24720,note_on,120,0,1,,,,,,,,,0,,,74,0
24720,note_on,0,0,1,,,,,,,,,0,,,75,49
24840,control_change,0,0,1,,,,,,,,,0,64,0,,
24840,note_on,120,0,1,,,,,,,,,0,,,75,0
24840,note_on,0,0,1,,,,,,,,,0,,,77,114
24840,note_on,0,0,1,,,,,,,,,0,,,65,106
24840,note_on,0,0,3,,,,,,,,,2,,,60,75
24840,note_on,240,0,3,,,,,,,,,2,,,62,0
24840,note_on,0,0,3,,,,,,,,,2,,,58,0
24840,note_on,0,0,3,,,,,,,,,2,,,57,75
24840,control_change,0,0,3,,,,,,,,,2,64,0,,
24960,note_on,0,0,3,,,,,,,,,2,,,57,0
24960,note_on,120,0,1,,,,,,,,,0,,,77,0
24960,control_change,6120,0,2,,,,,,,,,1,64,127,,
24960,note_on,0,0,2,,,,,,,,,1,,,75,49
24960,note_on,0,0,3,,,,,,,,,2,,,58,49
24960,note_on,0,0,3,,,,,,,,,2,,,55,49
24960,note_on,120,0,3,,,,,,,,,2,,,60,0
24960,control_change,0,0,3,,,,,,,,,2,64,127,,
25080,note_on,0,0,3,,,,,,,,,2,,,55,0
25080,note_on,0,0,3,,,,,,,,,2,,,60,49
25080,note_on,0,0,3,,,,,,,,,2,,,57,49
25080,note_on,120,0,3,,,,,,,,,2,,,58,0
25200,note_on,240,0,2,,,,,,,,,1,,,75,0
25200,note_on,120,0,3,,,,,,,,,2,,,60,0
25200,note_on,0,0,3,,,,,,,,,2,,,57,0
25200,control_change,0,0,3,,,,,,,,,2,64,0,,
25200,note_on,0,0,3,,,,,,,,,2,,,58,49
25200,note_on,0,0,3,,,,,,,,,2,,,62,49
25200,note_on,0,0,2,,,,,,,,,1,,,74,49
25200,control_change,0,0,2,,,,,,,,,1,64,0,,
25320,note_on,360,0,1,,,,,,,,,0,,,65,0
25320,note_on,0,0,1,,,,,,,,,0,,,86,49
25320,note_on,0,0,3,,,,,,,,,2,,,74,49
25320,note_on,0,0,3,,,,,,,,,2,,,70,49
25320,note_on,0,0,3,,,,,,,,,2,,,58,0
25320,note_on,120,0,3,,,,,,,,,2,,,62,0
25320,note_on,120,0,2,,,,,,,,,1,,,74,0
25320,control_change,0,0,1,,,,,,,,,0,64,127,,
25380,note_on,0,0,1,,,,,,,,,0,,,87,49
25380,note_on,60,0,1,,,,,,,,,0,,,86,0
25440,note_on,0,0,1,,,,,,,,,0,,,87,49
25440,note_on,60,0,1,,,,,,,,,0,,,87,0
25500,note_on,0,0,1,,,,,,,,,0,,,89,49
25500,note_on,60,0,1,,,,,,,,,0,,,87,0
25560,control_change,0,0,1,,,,,,,,,0,64,0,,
25560,note_on,0,0,1,,,,,,,,,0,,,89,88
25560,note_on,60,0,1,,,,,,,,,0,,,89,0
25560,note_on,0,0,3,,,,,,,,,2,,,72,75
25560,note_on,0,0,3,,,,,,,,,2,,,69,75
25560,note_on,0,0,3,,,,,,,,,2,,,70,0
25560,note_on,240,0,3,,,,,,,,,2,,,74,0
25560,note_on,240,0,2,,,,,,,,,1,,,77,75
25680,control_change,0,0,1,,,,,,,,,0,64,127,,
25680,note_on,120,0,1,,,,,,,,,0,,,89,0
25680,note_on,0,0,1,,,,,,,,,0,,,87,49
25680,control_change,0,0,3,,,,,,,,,2,64,127,,
25680,note_on,0,0,3,,,,,,,,,2,,,67,49
25680,note_on,0,0,3,,,,,,,,,2,,,70,49
25680,note_on,120,0,3,,,,,,,,,2,,,72,0
25680,note_on,0,0,3,,,,,,,,,2,,,69,0
25740,note_on,0,0,3,,,,,,,,,2,,,72,49
25740,note_on,0,0,3,,,,,,,,,2,,,69,49
25740,note_on,0,0,3,,,,,,,,,2,,,67,0
25740,note_on,60,0,3,,,,,,,,,2,,,70,0
25800,note_on,60,0,3,,,,,,,,,2,,,72,0
25800,note_on,0,0,3,,,,,,,,,2,,,69,0
25800,note_on,0,0,3,,,,,,,,,2,,,69,49
25800,note_on,0,0,3,,,,,,,,,2,,,72,49
25860,note_on,60,0,3,,,,,,,,,2,,,72,0
25860,note_on,0,0,3,,,,,,,,,2,,,69,0
25860,note_on,0,0,3,,,,,,,,,2,,,70,49
25860,note_on,0,0,3,,,,,,,,,2,,,74,49
25920,note_on,240,0,1,,,,,,,,,0,,,87,0
25920,note_on,0,0,3,,,,,,,,,2,,,70,0
25920,note_on,60,0,3,,,,,,,,,2,,,74,0
25920,note_on,0,0,3,,,,,,,,,2,,,74,49
25920,note_on,0,0,3,,,,,,,,,2,,,70,49
25920,note_on,0,0,1,,,,,,,,,0,,,86,49
25920,control_change,0,0,3,,,,,,,,,2,64,0,,
25920,control_change,0,0,1,,,,,,,,,0,64,0,,
26040,note_on,0,0,3,,,,,,,,,2,,,60,36
26040,note_on,0,0,3,,,,,,,,,2,,,58,36
26040,note_on,0,0,3,,,,,,,,,2,,,51,36
26040,control_change,0,0,3,,,,,,,,,2,64,127,,
26040,note_on,0,0,3,,,,,,,,,2,,,70,0
26040,note_on,120,0,3,,,,,,,,,2,,,74,0
26040,note_on,0,0,1,,,,,,,,,0,,,72,36
26040,control_change,0,0,1,,,,,,,,,0,64,127,,
26040,note_on,120,0,1,,,,,,,,,0,,,86,0
26040,control_change,0,0,2,,,,,,,,,1,64,127,,
26040,note_on,0,0,2,,,,,,,,,1,,,67,36
26040,note_on,0,0,2,,,,,,,,,1,,,70,36
26040,note_on,480,0,2,,,,,,,,,1,,,77,0
26160,note_on,120,0,2,,,,,,,,,1,,,70,0
26160,note_on,0,0,2,,,,,,,,,1,,,67,0
26160,note_on,120,0,3,,,,,,,,,2,,,60,0
26160,note_on,0,0,3,,,,,,,,,2,,,58,0
26160,note_on,0,0,3,,,,,,,,,2,,,51,0
26160,note_on,0,0,1,,,,,,,,,0,,,74,36
26160,note_on,120,0,1,,,,,,,,,0,,,72,0
26280,note_on,0,0,1,,,,,,,,,0,,,75,36
26280,note_on,120,0,1,,,,,,,,,0,,,74,0
26400,note_on,120,0,1,,,,,,,,,0,,,75,0
26400,note_on,0,0,2,,,,,,,,,1,,,70,36
26400,note_on,0,0,1,,,,,,,,,0,,,72,36
26400,note_on,0,0,2,,,,,,,,,1,,,67,36
26400,note_on,0,0,3,,,,,,,,,2,,,60,36
26400,note_on,0,0,3,,,,,,,,,2,,,58,36
26400,note_on,240,0,3,,,,,,,,,2,,,51,36
26400,control_change,240,0,2,,,,,,,,,1,64,0,,
26460,note_on,0,0,1,,,,,,,,,0,,,74,36
26460,note_on,60,0,1,,,,,,,,,0,,,72,0
26520,note_on,0,0,3,,,,,,,,,2,,,51,0
26520,note_on,0,0,3,,,,,,,,,2,,,58,0
26520,note_on,0,0,1,,,,,,,,,0,,,74,36
26520,control_change,0,0,3,,,,,,,,,2,64,0,,
26520,note_on,60,0,1,,,,,,,,,0,,,74,0
26520,note_on,0,0,2,,,,,,,,,1,,,67,0
26520,note_on,120,0,2,,,,,,,,,1,,,70,0
26520,note_on,120,0,3,,,,,,,,,2,,,60,0
26580,note_on,60,0,1,,,,,,,,,0,,,74,0
26580,note_on,0,0,1,,,,,,,,,0,,,75,36
26640,note_on,60,0,1,,,,,,,,,0,,,75,0
26640,control_change,0,0,1,,,,,,,,,0,64,0,,
26640,note_on,0,0,1,,,,,,,,,0,,,75,36
26760,note_on,240,0,2,,,,,,,,,1,,,67,36
26760,note_on,0,0,3,,,,,,,,,2,,,58,36
26760,note_on,0,0,3,,,,,,,,,2,,,61,36
26760,note_on,240,0,3,,,,,,,,,2,,,52,36
26760,note_on,0,0,1,,,,,,,,,0,,,70,36
26760,control_change,0,0,1,,,,,,,,,0,64,127,,
26760,note_on,120,0,1,,,,,,,,,0,,,75,0
26880,note_on,0,0,3,,,,,,,,,2,,,52,0
26880,note_on,0,0,3,,,,,,,,,2,,,58,0
26880,note_on,120,0,2,,,,,,,,,1,,,67,0
26880,note_on,120,0,3,,,,,,,,,2,,,61,0
26880,note_on,0,0,1,,,,,,,,,0,,,72,36
26880,note_on,120,0,1,,,,,,,,,0,,,70,0
27000,note_on,0,0,1,,,,,,,,,0,,,73,36
27000,control_change,0,0,1,,,,,,,,,0,64,0,,
27000,note_on,120,0,1,,,,,,,,,0,,,72,0
27120,note_on,0,0,1,,,,,,,,,0,,,70,36
27120,control_change,0,0,1,,,,,,,,,0,64,127,,
27120,note_on,120,0,1,,,,,,,,,0,,,73,0
27120,note_on,0,0,3,,,,,,,,,2,,,54,36
27120,note_on,0,0,3,,,,,,,,,2,,,61,36
27120,note_on,240,0,3,,,,,,,,,2,,,52,36
27120,note_on,240,0,2,,,,,,,,,1,,,66,36
27180,note_on,60,0,1,,,,,,,,,0,,,70,0
27180,note_on,0,0,1,,,,,,,,,0,,,71,36
27240,note_on,0,0,1,,,,,,,,,0,,,71,36
27240,note_on,60,0,1,,,,,,,,,0,,,71,0
27240,note_on,120,0,2,,,,,,,,,1,,,66,0
27240,note_on,120,0,3,,,,,,,,,2,,,61,0
27240,note_on,0,0,3,,,,,,,,,2,,,52,0
27240,note_on,0,0,3,,,,,,,,,2,,,54,0
27300,note_on,60,0,1,,,,,,,,,0,,,71,0
27300,note_on,0,0,1,,,,,,,,,0,,,73,36
27360,note_on,0,0,1,,,,,,,,,0,,,73,36
27360,note_on,60,0,1,,,,,,,,,0,,,73,0
27360,control_change,0,0,1,,,,,,,,,0,64,0,,
27480,note_on,0,0,3,,,,,,,,,2,,,59,36
27480,note_on,0,0,3,,,,,,,,,2,,,54,36
27480,note_on,240,0,3,,,,,,,,,2,,,50,36
27480,control_change,0,0,1,,,,,,,,,0,64,127,,
27480,note_on,0,0,1,,,,,,,,,0,,,71,36
27480,note_on,0,0,2,,,,,,,,,1,,,78,36
27480,note_on,240,0,2,,,,,,,,,1,,,66,36
27480,note_on,120,0,1,,,,,,,,,0,,,73,0
27600,note_on,120,0,1,,,,,,,,,0,,,71,0
27600,note_on,0,0,1,,,,,,,,,0,,,73,36
27600,note_on,0,0,3,,,,,,,,,2,,,50,0
27600,note_on,0,0,3,,,,,,,,,2,,,54,0
27600,note_on,120,0,3,,,,,,,,,2,,,59,0
27720,note_on,120,0,1,,,,,,,,,0,,,73,0
27720,control_change,0,0,1,,,,,,,,,0,64,0,,
27720,note_on,0,0,1,,,,,,,,,0,,,74,36
27840,note_on,120,0,1,,,,,,,,,0,,,74,0
27840,note_on,0,0,1,,,,,,,,,0,,,71,36
27840,note_on,240,0,3,,,,,,,,,2,,,50,36
27840,note_on,0,0,3,,,,,,,,,2,,,54,36
27840,note_on,0,0,3,,,,,,,,,2,,,59,36
27900,note_on,0,0,1,,,,,,,,,0,,,73,36
27900,note_on,60,0,1,,,,,,,,,0,,,71,0
27960,note_on,0,0,3,,,,,,,,,2,,,50,0
27960,note_on,0,0,3,,,,,,,,,2,,,54,0
27960,note_on,0,0,1,,,,,,,,,0,,,73,36
27960,note_on,60,0,1,,,,,,,,,0,,,73,0
27960,note_on,120,0,3,,,,,,,,,2,,,59,0
28020,note_on,0,0,1,,,,,,,,,0,,,74,36
28020,note_on,60,0,1,,,,,,,,,0,,,73,0
28080,note_on,0,0,1,,,,,,,,,0,,,74,36
28080,note_on,60,0,1,,,,,,,,,0,,,74,0
28200,note_on,0,0,1,,,,,,,,,0,,,66,36
28200,note_on,0,0,2,,,,,,,,,1,,,74,36
28200,control_change,240,0,3,,,,,,,,,2,64,127,,
28200,note_on,720,0,2,,,,,,,,,1,,,78,0
28200,control_change,0,0,1,,,,,,,,,0,64,127,,
28200,note_on,120,0,1,,,,,,,,,0,,,74,0
28200,control_change,0,0,2,,,,,,,,,1,64,127,,
28200,note_on,0,0,2,,,,,,,,,1,,,66,0
28200,note_on,0,0,3,,,,,,,,,2,,,57,36
28200,note_on,0,0,2,,,,,,,,,1,,,62,36
28200,note_on,0,0,4,,,,,,,,,3,,,50,36
28200,control_change,9480,0,4,,,,,,,,,3,64,127,,
28260,set_tempo,7980,1,0,,,,,,338983,,,,,,,
28320,note_on,120,0,1,,,,,,,,,0,,,66,0
28320,note_on,0,0,1,,,,,,,,,0,,,67,36
28320,set_tempo,60,1,0,,,,,,344828,,,,,,,
28320,note_on,120,0,3,,,,,,,,,2,,,57,0
28320,note_on,0,0,3,,,,,,,,,2,,,59,36
28380,set_tempo,60,1,0,,,,,,350877,,,,,,,
28440,note_on,120,0,3,,,,,,,,,2,,,59,0
28440,note_on,120,0,1,,,,,,,,,0,,,67,0
28440,note_on,0,0,1,,,,,,,,,0,,,69,36
28440,note_on,0,0,3,,,,,,,,,2,,,60,36
28440,set_tempo,60,1,0,,,,,,359281,,,,,,,
28500,set_tempo,60,1,0,,,,,,365854,,,,,,,
28560,set_tempo,60,1,0,,,,,,372671,,,,,,,
28560,note_on,120,0,1,,,,,,,,,0,,,69,0
28560,note_on,0,0,3,,,,,,,,,2,,,57,36
28560,note_on,0,0,1,,,,,,,,,0,,,66,36
28560,note_on,120,0,3,,,,,,,,,2,,,60,0
28560,control_change,360,0,4,,,,,,,,,3,64,0,,
28560,control_change,360,0,2,,,,,,,,,1,64,0,,
28620,set_tempo,60,1,0,,,,,,379747,,,,,,,
28620,note_on,0,0,3,,,,,,,,,2,,,59,36
28620,note_on,60,0,1,,,,,,,,,0,,,66,0
28620,note_on,0,0,1,,,,,,,,,0,,,67,36
28620,note_on,60,0,3,,,,,,,,,2,,,57,0
28680,note_on,0,0,1,,,,,,,,,0,,,67,36
28680,set_tempo,60,1,0,,,,,,389610,,,,,,,
28680,note_on,60,0,1,,,,,,,,,0,,,67,0
28680,note_on,60,0,3,,,,,,,,,2,,,59,0
28680,note_on,0,0,3,,,,,,,,,2,,,59,36
28740,note_on,0,0,1,,,,,,,,,0,,,69,36
28740,note_on,60,0,3,,,,,,,,,2,,,59,0
28740,note_on,60,0,1,,,,,,,,,0,,,67,0
28740,note_on,0,0,3,,,,,,,,,2,,,60,36
28800,note_on,0,0,1,,,,,,,,,0,,,69,36
28800,note_on,60,0,1,,,,,,,,,0,,,69,0
28800,control_change,0,0,1,,,,,,,,,0,64,0,,
28800,note_on,0,0,3,,,,,,,,,2,,,60,36
28800,control_change,0,0,3,,,,,,,,,2,64,0,,
28800,note_on,60,0,3,,,,,,,,,2,,,60,0
28920,note_on,360,0,4,,,,,,,,,3,,,50,0
28920,note_on,120,0,1,,,,,,,,,0,,,69,0
28920,note_on,0,0,2,,,,,,,,,1,,,62,0
28920,note_on,360,0,2,,,,,,,,,1,,,74,0
28920,note_on,120,0,3,,,,,,,,,2,,,60,0
29520,note_on,600,0,3,,,,,,,,,2,,,74,36
29520,note_on,600,0,1,,,,,,,,,0,,,86,36
29520,set_tempo,840,1,0,,,,,,333333,,,,,,,
29580,note_on,60,0,3,,,,,,,,,2,,,74,0
29580,note_on,0,0,3,,,,,,,,,2,,,71,36
29580,note_on,60,0,1,,,,,,,,,0,,,86,0
29580,note_on,0,0,1,,,,,,,,,0,,,83,36
29640,note_on,0,0,1,,,,,,,,,0,,,86,36
29640,note_on,0,0,3,,,,,,,,,2,,,74,36
29640,control_change,0,0,1,,,,,,,,,0,64,127,,
29640,note_on,60,0,1,,,,,,,,,0,,,83,0
29640,control_change,0,0,3,,,,,,,,,2,64,127,,
29640,note_on,60,0,3,,,,,,,,,2,,,71,0
29820,note_on,180,0,3,,,,,,,,,2,,,74,0
29820,note_on,0,0,1,,,,,,,,,0,,,83,36
29820,note_on,180,0,1,,,,,,,,,0,,,86,0
29820,note_on,0,0,3,,,,,,,,,2,,,71,36
29880,note_on,0,0,1,,,,,,,,,0,,,84,36
29880,note_on,60,0,3,,,,,,,,,2,,,71,0
29880,note_on,0,0,3,,,,,,,,,2,,,72,36
29880,note_on,60,0,1,,,,,,,,,0,,,83,0
29940,note_on,60,0,1,,,,,,,,,0,,,84,0
29940,note_on,60,0,3,,,,,,,,,2,,,72,0
29940,note_on,0,0,3,,,,,,,,,2,,,74,36
29940,note_on,0,0,1,,,,,,,,,0,,,86,36
30000,note_on,0,0,1,,,,,,,,,0,,,74,36
30000,note_on,60,0,3,,,,,,,,,2,,,74,0
30000,control_change,0,0,3,,,,,,,,,2,64,0,,
30000,note_on,60,0,1,,,,,,,,,0,,,86,0
30000,note_on,0,0,3,,,,,,,,,2,,,62,36
30000,control_change,0,0,1,,,,,,,,,0,64,0,,
30012,note_on,12,0,1,,,,,,,,,0,,,74,0
30012,note_on,12,0,3,,,,,,,,,2,,,62,0
30120,note_on,108,0,3,,,,,,,,,2,,,62,36
30120,note_on,108,0,1,,,,,,,,,0,,,74,36
30132,note_on,12,0,3,,,,,,,,,2,,,62,0
30132,note_on,12,0,1,,,,,,,,,0,,,74,0
30240,note_on,108,0,1,,,,,,,,,0,,,79,36
30240,note_on,108,0,3,,,,,,,,,2,,,67,36
30300,note_on,60,0,3,,,,,,,,,2,,,67,0
30300,note_on,0,0,3,,,,,,,,,2,,,62,36
30300,note_on,0,0,1,,,,,,,,,0,,,74,36
30300,note_on,60,0,1,,,,,,,,,0,,,79,0
30360,note_on,60,0,3,,,,,,,,,2,,,62,0
30360,control_change,0,0,3,,,,,,,,,2,64,127,,
30360,note_on,60,0,1,,,,,,,,,0,,,74,0
30360,control_change,0,0,1,,,,,,,,,0,64,127,,
30360,note_on,0,0,1,,,,,,,,,0,,,79,36
30360,note_on,0,0,3,,,,,,,,,2,,,67,36
30540,note_on,0,0,3,,,,,,,,,2,,,59,36
30540,note_on,180,0,1,,,,,,,,,0,,,79,0
30540,note_on,0,0,1,,,,,,,,,0,,,71,36
30540,note_on,180,0,3,,,,,,,,,2,,,67,0
30600,note_on,0,0,3,,,,,,,,,2,,,60,36
30600,note_on,60,0,3,,,,,,,,,2,,,59,0
30600,note_on,0,0,1,,,,,,,,,0,,,72,36
30600,note_on,60,0,1,,,,,,,,,0,,,71,0
30660,note_on,60,0,3,,,,,,,,,2,,,60,0
30660,note_on,0,0,1,,,,,,,,,0,,,74,36
30660,note_on,60,0,1,,,,,,,,,0,,,72,0
30660,note_on,0,0,3,,,,,,,,,2,,,62,36
30720,note_on,0,0,1,,,,,,,,,0,,,67,36
30720,note_on,60,0,1,,,,,,,,,0,,,74,0
30720,control_change,0,0,1,,,,,,,,,0,64,0,,
30720,note_on,60,0,3,,,,,,,,,2,,,62,0
30720,note_on,0,0,3,,,,,,,,,2,,,55,36
30720,control_change,0,0,3,,,,,,,,,2,64,0,,
30732,note_on,12,0,1,,,,,,,,,0,,,67,0
30732,note_on,12,0,3,,,,,,,,,2,,,55,0
30840,note_on,108,0,3,,,,,,,,,2,,,55,36
30840,note_on,108,0,1,,,,,,,,,0,,,67,36
30852,note_on,12,0,1,,,,,,,,,0,,,67,0
30852,note_on,12,0,3,,,,,,,,,2,,,55,0
30960,note_on,108,0,1,,,,,,,,,0,,,71,88
30960,note_on,0,0,3,,,,,,,,,2,,,55,75
30960,note_on,0,0,3,,,,,,,,,2,,,50,75
30960,note_on,108,0,3,,,,,,,,,2,,,43,75
30960,note_on,2040,0,2,,,,,,,,,1,,,59,75
30960,note_on,0,0,2,,,,,,,,,1,,,62,75
31020,note_on,60,0,1,,,,,,,,,0,,,71,0
31020,note_on,0,0,1,,,,,,,,,0,,,67,88
31080,note_on,0,0,1,,,,,,,,,0,,,71,114
31080,note_on,0,0,2,,,,,,,,,1,,,59,75
31080,note_on,0,0,2,,,,,,,,,1,,,59,0
31080,note_on,120,0,2,,,,,,,,,1,,,62,0
31080,note_on,60,0,1,,,,,,,,,0,,,67,0
31080,note_on,120,0,3,,,,,,,,,2,,,55,0
31080,note_on,0,0,2,,,,,,,,,1,,,62,75
31080,note_on,0,0,3,,,,,,,,,2,,,50,0
31080,note_on,0,0,3,,,,,,,,,2,,,55,101
31080,note_on,0,0,3,,,,,,,,,2,,,50,96
31080,note_on,0,0,3,,,,,,,,,2,,,43,91
31080,note_on,0,0,3,,,,,,,,,2,,,43,0
31320,note_on,0,0,2,,,,,,,,,1,,,59,0
31320,note_on,240,0,2,,,,,,,,,1,,,62,0
31320,note_on,0,0,3,,,,,,,,,2,,,43,0
31320,note_on,0,0,3,,,,,,,,,2,,,45,36
31320,note_on,240,0,1,,,,,,,,,0,,,71,0
31320,note_on,0,0,1,,,,,,,,,0,,,69,49
31320,note_on,0,0,3,,,,,,,,,2,,,50,36
31320,note_on,0,0,3,,,,,,,,,2,,,54,36
31320,note_on,0,0,2,,,,,,,,,1,,,62,36
31320,note_on,0,0,2,,,,,,,,,1,,,60,36
31320,note_on,240,0,3,,,,,,,,,2,,,55,0
31320,note_on,0,0,3,,,,,,,,,2,,,50,0
31380,note_on,60,0,1,,,,,,,,,0,,,69,0
31380,note_on,0,0,1,,,,,,,,,0,,,66,49
31440,note_on,0,0,1,,,,,,,,,0,,,74,49
31440,note_on,0,0,3,,,,,,,,,2,,,45,0
31440,control_change,0,0,3,,,,,,,,,2,64,127,,
31440,note_on,0,0,3,,,,,,,,,2,,,47,36
31440,note_on,0,0,3,,,,,,,,,2,,,50,36
31440,note_on,0,0,3,,,,,,,,,2,,,55,36
31440,note_on,0,0,2,,,,,,,,,1,,,60,0
31440,note_on,120,0,2,,,,,,,,,1,,,62,0
31440,note_on,120,0,3,,,,,,,,,2,,,54,0
31440,note_on,0,0,1,,,,,,,,,0,,,62,49
31440,note_on,60,0,1,,,,,,,,,0,,,66,0
31440,control_change,0,0,1,,,,,,,,,0,64,127,,
31440,note_on,0,0,3,,,,,,,,,2,,,50,0
31452,note_on,0,0,3,,,,,,,,,2,,,47,0
31452,note_on,0,0,3,,,,,,,,,2,,,50,0
31452,note_on,12,0,3,,,,,,,,,2,,,55,0
31452,note_on,0,0,1,,,,,,,,,0,,,62,0
31452,note_on,12,0,1,,,,,,,,,0,,,74,0
31560,note_on,108,0,3,,,,,,,,,2,,,47,36
31560,note_on,0,0,3,,,,,,,,,2,,,55,36
31560,note_on,0,0,1,,,,,,,,,0,,,74,49
31560,note_on,108,0,1,,,,,,,,,0,,,62,49
31560,note_on,0,0,3,,,,,,,,,2,,,50,36
31572,note_on,12,0,1,,,,,,,,,0,,,74,0
31572,note_on,0,0,1,,,,,,,,,0,,,62,0
31572,note_on,0,0,3,,,,,,,,,2,,,47,0
31572,note_on,0,0,3,,,,,,,,,2,,,50,0
31572,note_on,12,0,3,,,,,,,,,2,,,55,0
31680,note_on,0,0,3,,,,,,,,,2,,,50,36
31680,note_on,0,0,3,,,,,,,,,2,,,54,36
31680,control_change,108,0,1,,,,,,,,,0,64,0,,
31680,note_on,0,0,1,,,,,,,,,0,,,60,49
31680,note_on,0,0,1,,,,,,,,,0,,,62,49
31680,control_change,108,0,3,,,,,,,,,2,64,0,,
31686,note_on,6,0,3,,,,,,,,,2,,,54,0
31686,note_on,0,0,3,,,,,,,,,2,,,50,0
31686,note_on,6,0,1,,,,,,,,,0,,,62,0
31686,note_on,0,0,1,,,,,,,,,0,,,60,0
31740,note_on,54,0,3,,,,,,,,,2,,,50,36
31740,note_on,0,0,3,,,,,,,,,2,,,55,36
31740,note_on,54,0,1,,,,,,,,,0,,,60,49
31740,note_on,0,0,1,,,,,,,,,0,,,64,49
31740,note_on,0,0,1,,,,,,,,,0,,,62,49
31746,note_on,0,0,1,,,,,,,,,0,,,62,0
31746,note_on,0,0,1,,,,,,,,,0,,,60,0
31746,note_on,0,0,3,,,,,,,,,2,,,50,0
31746,note_on,6,0,1,,,,,,,,,0,,,64,0
31746,note_on,6,0,3,,,,,,,,,2,,,55,0
31800,note_on,0,0,3,,,,,,,,,2,,,57,36
31800,note_on,0,0,3,,,,,,,,,2,,,50,36
31800,control_change,54,0,3,,,,,,,,,2,64,127,,
31800,note_on,0,0,1,,,,,,,,,0,,,66,49
31800,note_on,0,0,1,,,,,,,,,0,,,60,49
31800,control_change,54,0,1,,,,,,,,,0,64,127,,
31800,note_on,0,0,1,,,,,,,,,0,,,62,49
31812,note_on,0,0,3,,,,,,,,,2,,,50,0
31812,note_on,12,0,3,,,,,,,,,2,,,57,0
31812,note_on,12,0,1,,,,,,,,,0,,,66,0
31812,note_on,0,0,1,,,,,,,,,0,,,60,0
31812,note_on,0,0,1,,,,,,,,,0,,,62,0
31920,note_on,108,0,1,,,,,,,,,0,,,60,49
31920,note_on,108,0,3,,,,,,,,,2,,,50,36
31920,note_on,0,0,1,,,,,,,,,0,,,62,49
31920,note_on,0,0,1,,,,,,,,,0,,,66,49
31920,note_on,0,0,3,,,,,,,,,2,,,57,36
31932,note_on,12,0,3,,,,,,,,,2,,,57,0
31932,note_on,0,0,1,,,,,,,,,0,,,62,0
31932,note_on,12,0,1,,,,,,,,,0,,,66,0
31932,note_on,0,0,3,,,,,,,,,2,,,50,0
31932,note_on,0,0,1,,,,,,,,,0,,,60,0
32040,control_change,108,0,1,,,,,,,,,0,64,0,,
32040,note_on,0,0,1,,,,,,,,,0,,,62,62
32040,note_on,0,0,1,,,,,,,,,0,,,66,62
32040,note_on,0,0,1,,,,,,,,,0,,,74,62
32040,note_on,0,0,3,,,,,,,,,2,,,57,49
32040,note_on,0,0,3,,,,,,,,,2,,,50,49
32040,control_change,108,0,3,,,,,,,,,2,64,0,,
32046,note_on,6,0,3,,,,,,,,,2,,,57,0
32046,note_on,0,0,1,,,,,,,,,0,,,66,0
32046,note_on,6,0,1,,,,,,,,,0,,,74,0
32046,note_on,0,0,1,,,,,,,,,0,,,62,0
32046,note_on,0,0,3,,,,,,,,,2,,,50,0
32100,note_on,0,0,3,,,,,,,,,2,,,59,49
32100,note_on,54,0,3,,,,,,,,,2,,,50,49
32100,note_on,54,0,1,,,,,,,,,0,,,62,62
32100,note_on,0,0,1,,,,,,,,,0,,,67,62
32100,note_on,0,0,1,,,,,,,,,0,,,74,62
32106,note_on,6,0,1,,,,,,,,,0,,,74,0
32106,note_on,0,0,1,,,,,,,,,0,,,67,0
32106,note_on,0,0,1,,,,,,,,,0,,,62,0
32106,note_on,0,0,3,,,,,,,,,2,,,50,0
32106,note_on,6,0,3,,,,,,,,,2,,,59,0
32160,note_on,0,0,1,,,,,,,,,0,,,62,75
32160,note_on,0,0,3,,,,,,,,,2,,,60,62
32160,note_on,0,0,3,,,,,,,,,2,,,50,62
32160,note_on,0,0,1,,,,,,,,,0,,,69,75
32160,control_change,54,0,3,,,,,,,,,2,64,127,,
32160,control_change,54,0,1,,,,,,,,,0,64,127,,
32160,note_on,0,0,1,,,,,,,,,0,,,74,75
32172,note_on,12,0,3,,,,,,,,,2,,,60,0
32172,note_on,0,0,3,,,,,,,,,2,,,50,0
32172,note_on,12,0,1,,,,,,,,,0,,,74,0
32172,note_on,0,0,1,,,,,,,,,0,,,69,0
32172,note_on,0,0,1,,,,,,,,,0,,,62,0
32280,note_on,108,0,3,,,,,,,,,2,,,50,62
32280,note_on,108,0,1,,,,,,,,,0,,,62,75
32280,note_on,0,0,3,,,,,,,,,2,,,60,62
32280,note_on,0,0,1,,,,,,,,,0,,,69,75
32280,note_on,0,0,1,,,,,,,,,0,,,74,75
32292,note_on,12,0,1,,,,,,,,,0,,,74,0
32292,note_on,0,0,1,,,,,,,,,0,,,69,0
32292,note_on,0,0,1,,,,,,,,,0,,,62,0
32292,note_on,0,0,3,,,,,,,,,2,,,50,0
32292,note_on,12,0,3,,,,,,,,,2,,,60,0
32400,note_on,960,0,2,,,,,,,,,1,,,64,75
32400,note_on,0,0,2,,,,,,,,,1,,,67,75
32400,control_change,108,0,1,,,,,,,,,0,64,0,,
32400,note_on,0,0,1,,,,,,,,,0,,,76,88
32400,note_on,0,0,3,,,,,,,,,2,,,60,75
32400,note_on,0,0,3,,,,,,,,,2,,,55,75
32400,note_on,0,0,3,,,,,,,,,2,,,48,75
32400,control_change,108,0,3,,,,,,,,,2,64,0,,
32460,note_on,0,0,1,,,,,,,,,0,,,72,88
32460,note_on,60,0,1,,,,,,,,,0,,,76,0
32520,note_on,0,0,3,,,,,,,,,2,,,55,0
32520,note_on,0,0,1,,,,,,,,,0,,,76,114
32520,note_on,120,0,2,,,,,,,,,1,,,67,0
32520,note_on,0,0,2,,,,,,,,,1,,,64,0
32520,note_on,0,0,3,,,,,,,,,2,,,60,75
32520,note_on,0,0,3,,,,,,,,,2,,,55,75
32520,note_on,0,0,3,,,,,,,,,2,,,48,75
32520,note_on,0,0,3,,,,,,,,,2,,,48,0
32520,note_on,0,0,2,,,,,,,,,1,,,64,75
32520,note_on,0,0,1,,,,,,,,,0,,,67,106
32520,note_on,120,0,3,,,,,,,,,2,,,60,0
32520,note_on,60,0,1,,,,,,,,,0,,,72,0
32760,note_on,240,0,3,,,,,,,,,2,,,60,0
32760,note_on,0,0,3,,,,,,,,,2,,,59,36
32760,note_on,0,0,3,,,,,,,,,2,,,55,36
32760,note_on,0,0,3,,,,,,,,,2,,,50,36
32760,note_on,0,0,3,,,,,,,,,2,,,55,0
32760,note_on,0,0,3,,,,,,,,,2,,,48,0
32760,note_on,240,0,1,,,,,,,,,0,,,76,0
32760,note_on,0,0,1,,,,,,,,,0,,,74,49
32760,note_on,240,0,2,,,,,,,,,1,,,64,0
32760,note_on,0,0,2,,,,,,,,,1,,,65,36
32760,note_on,0,0,2,,,,,,,,,1,,,67,36
32760,note_on,0,0,1,,,,,,,,,0,,,67,0
32820,note_on,60,0,1,,,,,,,,,0,,,74,0
32820,note_on,0,0,1,,,,,,,,,0,,,71,49
32880,note_on,120,0,2,,,,,,,,,1,,,67,0
32880,note_on,0,0,2,,,,,,,,,1,,,65,0
32880,control_change,0,0,2,,,,,,,,,1,64,127,,
32880,note_on,0,0,2,,,,,,,,,1,,,67,36
32880,note_on,120,0,3,,,,,,,,,2,,,59,0
32880,note_on,0,0,3,,,,,,,,,2,,,55,0
32880,note_on,0,0,3,,,,,,,,,2,,,50,0
32880,note_on,0,0,3,,,,,,,,,2,,,52,36
32880,note_on,0,0,3,,,,,,,,,2,,,55,36
32880,control_change,0,0,3,,,,,,,,,2,64,127,,
32880,note_on,60,0,1,,,,,,,,,0,,,71,0
32880,control_change,0,0,1,,,,,,,,,0,64,127,,
32880,note_on,0,0,1,,,,,,,,,0,,,79,49
32880,note_on,0,0,3,,,,,,,,,2,,,60,36
32892,note_on,12,0,3,,,,,,,,,2,,,60,0
32892,note_on,12,0,2,,,,,,,,,1,,,67,0
32892,note_on,0,0,3,,,,,,,,,2,,,52,0
32892,note_on,0,0,3,,,,,,,,,2,,,55,0
32892,note_on,12,0,1,,,,,,,,,0,,,79,0
33000,note_on,108,0,1,,,,,,,,,0,,,79,49
33000,note_on,0,0,2,,,,,,,,,1,,,67,36
33000,note_on,0,0,3,,,,,,,,,2,,,55,36
33000,note_on,0,0,3,,,,,,,,,2,,,60,36
33000,note_on,108,0,3,,,,,,,,,2,,,52,36
33000,control_change,108,0,2,,,,,,,,,1,64,0,,
33012,note_on,12,0,2,,,,,,,,,1,,,67,0
33012,note_on,12,0,1,,,,,,,,,0,,,79,0
33012,note_on,12,0,3,,,,,,,,,2,,,60,0
33012,note_on,0,0,3,,,,,,,,,2,,,55,0
33012,note_on,0,0,3,,,,,,,,,2,,,52,0
33120,note_on,0,0,1,,,,,,,,,0,,,88,49
33120,control_change,108,0,1,,,,,,,,,0,64,0,,
33120,control_change,108,0,3,,,,,,,,,2,64,0,,
33120,note_on,0,0,3,,,,,,,,,2,,,72,36
33180,note_on,60,0,3,,,,,,,,,2,,,72,0
33180,note_on,0,0,3,,,,,,,,,2,,,69,36
33180,note_on,0,0,1,,,,,,,,,0,,,84,49
33180,note_on,60,0,1,,,,,,,,,0,,,88,0
33240,control_change,0,0,3,,,,,,,,,2,64,127,,
33240,note_on,0,0,3,,,,,,,,,2,,,72,88
33240,note_on,60,0,1,,,,,,,,,0,,,84,0
33240,control_change,0,0,1,,,,,,,,,0,64,127,,
33240,note_on,0,0,1,,,,,,,,,0,,,88,75
33240,note_on,60,0,3,,,,,,,,,2,,,69,0
33420,note_on,180,0,1,,,,,,,,,0,,,88,0
33420,note_on,0,0,1,,,,,,,,,0,,,84,49
33420,note_on,180,0,3,,,,,,,,,2,,,72,0
33420,note_on,0,0,3,,,,,,,,,2,,,69,36
33480,note_on,0,0,1,,,,,,,,,0,,,86,49
33480,note_on,60,0,3,,,,,,,,,2,,,69,0
33480,note_on,0,0,3,,,,,,,,,2,,,71,36
33480,note_on,60,0,1,,,,,,,,,0,,,84,0
33540,note_on,60,0,3,,,,,,,,,2,,,71,0
33540,control_change,0,0,3,,,,,,,,,2,64,0,,
33540,note_on,60,0,1,,,,,,,,,0,,,86,0
33540,control_change,0,0,1,,,,,,,,,0,64,0,,
33540,note_on,0,0,3,,,,,,,,,2,,,72,36
33540,note_on,0,0,1,,,,,,,,,0,,,88,49
33600,note_on,60,0,3,,,,,,,,,2,,,72,0
33600,note_on,588,0,2,,,,,,,,,1,,,74,36
33600,note_on,60,0,1,,,,,,,,,0,,,88,0
33600,control_change,0,0,3,,,,,,,,,2,64,127,,
33600,note_on,0,0,3,,,,,,,,,2,,,66,36
33600,note_on,0,0,1,,,,,,,,,0,,,81,49
33600,control_change,0,0,1,,,,,,,,,0,64,127,,
33612,note_on,12,0,3,,,,,,,,,2,,,66,0
33612,note_on,12,0,1,,,,,,,,,0,,,81,0
33720,note_on,108,0,1,,,,,,,,,0,,,81,49
33720,note_on,108,0,3,,,,,,,,,2,,,66,36
33732,note_on,12,0,1,,,,,,,,,0,,,81,0
33732,note_on,12,0,3,,,,,,,,,2,,,66,0
33780,note_on,0,0,2,,,,,,,,,1,,,76,36
33780,note_on,180,0,2,,,,,,,,,1,,,74,0
33840,note_on,0,0,2,,,,,,,,,1,,,74,36
33840,control_change,108,0,1,,,,,,,,,0,64,0,,
33840,control_change,108,0,3,,,,,,,,,2,64,0,,
33840,note_on,60,0,2,,,,,,,,,1,,,76,0
33900,note_on,60,0,2,,,,,,,,,1,,,74,0
33900,note_on,0,0,2,,,,,,,,,1,,,72,36
33960,note_on,60,0,2,,,,,,,,,1,,,72,0
33960,note_on,0,0,3,,,,,,,,,2,,,74,62
33960,control_change,5040,0,4,,,,,,,,,3,64,127,,
33960,note_on,0,0,4,,,,,,,,,3,,,71,36
33960,control_change,120,0,1,,,,,,,,,0,64,127,,
33960,note_on,0,0,1,,,,,,,,,0,,,90,75
33960,control_change,120,0,3,,,,,,,,,2,64,127,,
33972,note_on,12,0,4,,,,,,,,,3,,,71,0
34080,note_on,108,0,4,,,,,,,,,3,,,71,36
34092,note_on,12,0,4,,,,,,,,,3,,,71,0
34140,note_on,180,0,1,,,,,,,,,0,,,90,0
34140,note_on,0,0,3,,,,,,,,,2,,,71,36
34140,note_on,180,0,3,,,,,,,,,2,,,74,0
34140,note_on,0,0,1,,,,,,,,,0,,,86,49
34200,note_on,0,0,1,,,,,,,,,0,,,88,49
34200,note_on,60,0,1,,,,,,,,,0,,,86,0
34200,note_on,60,0,3,,,,,,,,,2,,,71,0
34200,control_change,108,0,4,,,,,,,,,3,64,0,,
34200,note_on,0,0,3,,,,,,,,,2,,,72,36
34260,control_change,0,0,3,,,,,,,,,2,64,0,,
34260,note_on,60,0,3,,,,,,,,,2,,,72,0
34260,note_on,0,0,3,,,,,,,,,2,,,74,36
34260,note_on,0,0,1,,,,,,,,,0,,,90,49
34260,note_on,60,0,1,,,,,,,,,0,,,88,0
34260,control_change,0,0,1,,,,,,,,,0,64,0,,
34320,note_on,0,0,1,,,,,,,,,0,,,83,62
34320,control_change,0,0,1,,,,,,,,,0,64,127,,
34320,note_on,60,0,3,,,,,,,,,2,,,74,0
34320,control_change,360,0,2,,,,,,,,,1,64,127,,
34320,note_on,0,0,2,,,,,,,,,1,,,76,62
34320,note_on,0,0,3,,,,,,,,,2,,,67,62
34320,note_on,60,0,1,,,,,,,,,0,,,90,0
34320,control_change,0,0,3,,,,,,,,,2,64,127,,
34332,note_on,12,0,1,,,,,,,,,0,,,83,0
34332,note_on,12,0,3,,,,,,,,,2,,,67,0
34440,note_on,108,0,3,,,,,,,,,2,,,67,62
34440,note_on,108,0,1,,,,,,,,,0,,,83,62
34452,note_on,12,0,3,,,,,,,,,2,,,67,0
34452,note_on,12,0,1,,,,,,,,,0,,,83,0
34500,note_on,0,0,2,,,,,,,,,1,,,78,62
34500,note_on,180,0,2,,,,,,,,,1,,,76,0
34560,control_change,108,0,3,,,,,,,,,2,64,0,,
34560,control_change,108,0,1,,,,,,,,,0,64,0,,
34560,note_on,60,0,2,,,,,,,,,1,,,78,0
34560,note_on,0,0,2,,,,,,,,,1,,,76,62
34620,note_on,60,0,2,,,,,,,,,1,,,76,0
34620,control_change,0,0,2,,,,,,,,,1,64,0,,
34620,note_on,0,0,2,,,,,,,,,1,,,74,62
34680,control_change,120,0,3,,,,,,,,,2,64,127,,
34680,note_on,0,0,1,,,,,,,,,0,,,91,101
34680,control_change,120,0,1,,,,,,,,,0,64,127,,
34680,note_on,60,0,2,,,,,,,,,1,,,74,0
34680,control_change,480,0,4,,,,,,,,,3,64,127,,
34680,note_on,0,0,4,,,,,,,,,3,,,72,75
34680,note_on,0,0,3,,,,,,,,,2,,,76,101
34692,note_on,12,0,4,,,,,,,,,3,,,72,0
34800,note_on,108,0,4,,,,,,,,,3,,,72,75
34812,note_on,12,0,4,,,,,,,,,3,,,72,0
34860,note_on,180,0,3,,,,,,,,,2,,,76,0
34860,note_on,0,0,3,,,,,,,,,2,,,72,75
34860,note_on,0,0,1,,,,,,,,,0,,,88,75
34860,note_on,180,0,1,,,,,,,,,0,,,91,0
34920,note_on,0,0,3,,,,,,,,,2,,,74,75
34920,note_on,60,0,3,,,,,,,,,2,,,72,0
34920,control_change,108,0,4,,,,,,,,,3,64,0,,
34920,note_on,0,0,1,,,,,,,,,0,,,90,75
34920,note_on,60,0,1,,,,,,,,,0,,,88,0
34980,note_on,0,0,1,,,,,,,,,0,,,91,75
34980,control_change,0,0,1,,,,,,,,,0,64,0,,
34980,note_on,60,0,1,,,,,,,,,0,,,90,0
34980,note_on,60,0,3,,,,,,,,,2,,,74,0
34980,control_change,0,0,3,,,,,,,,,2,64,0,,
34980,note_on,0,0,3,,,,,,,,,2,,,76,75
35040,control_change,120,0,4,,,,,,,,,3,64,127,,
35040,note_on,0,0,4,,,,,,,,,3,,,57,101
35040,control_change,0,0,3,,,,,,,,,2,64,127,,
35040,note_on,0,0,3,,,,,,,,,2,,,69,75
35040,note_on,0,0,1,,,,,,,,,0,,,84,75
35040,control_change,0,0,1,,,,,,,,,0,64,127,,
35040,note_on,60,0,1,,,,,,,,,0,,,91,0
35040,note_on,60,0,3,,,,,,,,,2,,,76,0
35052,note_on,12,0,3,,,,,,,,,2,,,69,0
35052,note_on,12,0,1,,,,,,,,,0,,,84,0
35160,note_on,108,0,3,,,,,,,,,2,,,69,75
35160,note_on,108,0,1,,,,,,,,,0,,,84,75
35172,note_on,12,0,3,,,,,,,,,2,,,69,0
35172,note_on,12,0,1,,,,,,,,,0,,,84,0
35220,note_on,0,0,4,,,,,,,,,3,,,59,75
35220,note_on,180,0,4,,,,,,,,,3,,,57,0
35280,note_on,60,0,4,,,,,,,,,3,,,59,0
35280,note_on,0,0,4,,,,,,,,,3,,,60,75
35280,control_change,108,0,1,,,,,,,,,0,64,0,,
35280,control_change,108,0,3,,,,,,,,,2,64,0,,
35340,note_on,60,0,4,,,,,,,,,3,,,60,0
35340,control_change,0,0,4,,,,,,,,,3,64,0,,
35340,note_on,0,0,4,,,,,,,,,3,,,61,75
35400,control_change,120,0,3,,,,,,,,,2,64,127,,
35400,control_change,120,0,1,,,,,,,,,0,64,127,,
35400,note_on,0,0,1,,,,,,,,,0,,,83,75
35400,note_on,60,0,4,,,,,,,,,3,,,61,0
35400,control_change,0,0,4,,,,,,,,,3,64,127,,
35400,note_on,0,0,4,,,,,,,,,3,,,62,49
35400,note_on,0,0,3,,,,,,,,,2,,,67,75
35412,note_on,12,0,4,,,,,,,,,3,,,62,0
35520,note_on,108,0,4,,,,,,,,,3,,,62,49
35532,note_on,12,0,4,,,,,,,,,3,,,62,0
35580,note_on,0,0,1,,,,,,,,,0,,,79,49
35580,note_on,180,0,1,,,,,,,,,0,,,83,0
35580,note_on,180,0,3,,,,,,,,,2,,,67,0
35580,note_on,0,0,3,,,,,,,,,2,,,64,49
35640,note_on,0,0,3,,,,,,,,,2,,,66,49
35640,note_on,60,0,1,,,,,,,,,0,,,79,0
35640,note_on,0,0,1,,,,,,,,,0,,,81,49
35640,control_change,108,0,4,,,,,,,,,3,64,0,,
35640,note_on,60,0,3,,,,,,,,,2,,,64,0
35700,note_on,60,0,1,,,,,,,,,0,,,81,0
35700,control_change,0,0,1,,,,,,,,,0,64,0,,
35700,note_on,0,0,1,,,,,,,,,0,,,83,49
35700,note_on,0,0,3,,,,,,,,,2,,,67,49
35700,control_change,0,0,3,,,,,,,,,2,64,0,,
35700,note_on,60,0,3,,,,,,,,,2,,,66,0
35760,note_on,60,0,1,,,,,,,,,0,,,83,0
35760,note_on,0,0,1,,,,,,,,,0,,,84,88
35760,control_change,120,0,4,,,,,,,,,3,64,127,,
35760,control_change,0,0,3,,,,,,,,,2,64,127,,
35760,note_on,0,0,3,,,,,,,,,2,,,69,88
35760,note_on,0,0,4,,,,,,,,,3,,,62,62
35760,note_on,60,0,3,,,,,,,,,2,,,67,0
35760,control_change,0,0,1,,,,,,,,,0,64,127,,
35772,note_on,12,0,4,,,,,,,,,3,,,62,0
35880,note_on,108,0,4,,,,,,,,,3,,,62,62
35892,note_on,12,0,4,,,,,,,,,3,,,62,0
35940,note_on,180,0,3,,,,,,,,,2,,,69,0
35940,note_on,0,0,3,,,,,,,,,2,,,66,62
35940,note_on,0,0,1,,,,,,,,,0,,,81,62
35940,note_on,180,0,1,,,,,,,,,0,,,84,0
36000,note_on,60,0,1,,,,,,,,,0,,,81,0
36000,control_change,108,0,4,,,,,,,,,3,64,0,,
36000,note_on,0,0,1,,,,,,,,,0,,,83,62
36000,note_on,60,0,3,,,,,,,,,2,,,66,0
36000,note_on,0,0,3,,,,,,,,,2,,,67,62
36060,note_on,0,0,1,,,,,,,,,0,,,84,62
36060,note_on,60,0,1,,,,,,,,,0,,,83,0
36060,control_change,0,0,1,,,,,,,,,0,64,0,,
36060,note_on,60,0,3,,,,,,,,,2,,,67,0
36060,note_on,0,0,3,,,,,,,,,2,,,69,62
36060,control_change,0,0,3,,,,,,,,,2,64,0,,
36120,note_on,60,0,1,,,,,,,,,0,,,84,0
36120,note_on,60,0,3,,,,,,,,,2,,,69,0
36120,control_change,0,0,3,,,,,,,,,2,64,127,,
36120,note_on,0,0,3,,,,,,,,,2,,,71,62
36120,control_change,120,0,4,,,,,,,,,3,64,127,,
36120,note_on,0,0,4,,,,,,,,,3,,,62,88
36120,note_on,0,0,1,,,,,,,,,0,,,86,62
36120,control_change,0,0,1,,,,,,,,,0,64,127,,
36132,note_on,12,0,3,,,,,,,,,2,,,71,0
36132,note_on,12,0,1,,,,,,,,,0,,,86,0
36240,note_on,108,0,1,,,,,,,,,0,,,86,62
36240,note_on,108,0,3,,,,,,,,,2,,,71,62
36252,note_on,12,0,1,,,,,,,,,0,,,86,0
36252,note_on,12,0,3,,,,,,,,,2,,,71,0
36300,note_on,180,0,4,,,,,,,,,3,,,62,0
36300,note_on,0,0,4,,,,,,,,,3,,,64,62
36360,control_change,108,0,1,,,,,,,,,0,64,0,,
36360,control_change,108,0,3,,,,,,,,,2,64,0,,
36360,note_on,60,0,4,,,,,,,,,3,,,64,0
36360,note_on,0,0,4,,,,,,,,,3,,,66,62
36420,note_on,0,0,4,,,,,,,,,3,,,67,62
36420,control_change,0,0,4,,,,,,,,,3,64,0,,
36420,note_on,60,0,4,,,,,,,,,3,,,66,0
36480,control_change,120,0,3,,,,,,,,,2,64,127,,
36480,note_on,0,0,3,,,,,,,,,2,,,69,75
36480,note_on,0,0,3,,,,,,,,,2,,,72,75
36480,note_on,60,0,4,,,,,,,,,3,,,67,0
36480,note_on,0,0,2,,,,,,,,,1,,,74,75
36480,control_change,1800,0,2,,,,,,,,,1,64,127,,
36480,control_change,120,0,1,,,,,,,,,0,64,127,,
36480,note_on,0,0,1,,,,,,,,,0,,,86,101
36492,note_on,12,0,3,,,,,,,,,2,,,72,0
36492,note_on,0,0,3,,,,,,,,,2,,,69,0
36540,note_on,60,0,2,,,,,,,,,1,,,74,0
36540,note_on,0,0,2,,,,,,,,,1,,,76,75
36600,note_on,0,0,2,,,,,,,,,1,,,77,75
36600,control_change,0,0,2,,,,,,,,,1,64,0,,
36600,note_on,60,0,2,,,,,,,,,1,,,76,0
36600,note_on,108,0,3,,,,,,,,,2,,,69,75
36600,note_on,0,0,3,,,,,,,,,2,,,72,75
36612,note_on,12,0,3,,,,,,,,,2,,,72,0
36612,note_on,0,0,3,,,,,,,,,2,,,69,0
36660,note_on,180,0,1,,,,,,,,,0,,,86,0
36660,note_on,60,0,2,,,,,,,,,1,,,77,0
36660,note_on,0,0,1,,,,,,,,,0,,,78,75
36660,note_on,0,0,1,,,,,,,,,0,,,87,75
36720,note_on,0,0,1,,,,,,,,,0,,,79,75
36720,note_on,0,0,1,,,,,,,,,0,,,78,0
36720,note_on,60,0,1,,,,,,,,,0,,,87,0
36720,control_change,108,0,3,,,,,,,,,2,64,0,,
36720,note_on,0,0,1,,,,,,,,,0,,,88,75
36780,control_change,0,0,1,,,,,,,,,0,64,0,,
36780,note_on,0,0,1,,,,,,,,,0,,,90,75
36780,note_on,0,0,1,,,,,,,,,0,,,81,75
36780,note_on,0,0,1,,,,,,,,,0,,,79,0
36780,note_on,60,0,1,,,,,,,,,0,,,88,0
36840,control_change,120,0,3,,,,,,,,,2,64,127,,
36840,note_on,0,0,3,,,,,,,,,2,,,76,88
36840,note_on,0,0,3,,,,,,,,,2,,,73,88
36840,note_on,60,0,1,,,,,,,,,0,,,90,0
36840,note_on,0,0,1,,,,,,,,,0,,,81,0
36840,note_on,0,0,1,,,,,,,,,0,,,82,88
36840,note_on,0,0,1,,,,,,,,,0,,,91,88
36840,control_change,0,0,1,,,,,,,,,0,64,127,,
36852,note_on,0,0,3,,,,,,,,,2,,,73,0
36852,note_on,12,0,3,,,,,,,,,2,,,76,0
36852,note_on,12,0,1,,,,,,,,,0,,,91,0
36852,note_on,0,0,1,,,,,,,,,0,,,82,0
36960,note_on,0,0,1,,,,,,,,,0,,,91,88
36960,note_on,108,0,1,,,,,,,,,0,,,82,88
36960,note_on,0,0,3,,,,,,,,,2,,,76,88
36960,note_on,108,0,3,,,,,,,,,2,,,73,88
36972,note_on,12,0,1,,,,,,,,,0,,,91,0
36972,note_on,0,0,3,,,,,,,,,2,,,73,0
36972,note_on,12,0,3,,,,,,,,,2,,,76,0
36972,note_on,0,0,1,,,,,,,,,0,,,82,0
37080,control_change,108,0,3,,,,,,,,,2,64,0,,
37080,control_change,108,0,1,,,,,,,,,0,64,0,,
37560,control_change,1080,0,4,,,,,,,,,3,64,127,,
37560,note_on,0,0,3,,,,,,,,,2,,,59,36
37560,note_on,0,0,1,,,,,,,,,0,,,74,36
37560,control_change,480,0,1,,,,,,,,,0,64,127,,
37560,control_change,480,0,3,,,,,,,,,2,64,127,,
37560,note_on,0,0,4,,,,,,,,,3,,,50,36
37572,note_on,12,0,4,,,,,,,,,3,,,50,0
37680,note_on,108,0,4,,,,,,,,,3,,,50,36
37692,note_on,12,0,4,,,,,,,,,3,,,50,0
37740,note_on,0,0,1,,,,,,,,,0,,,72,36
37740,note_on,180,0,1,,,,,,,,,0,,,74,0
37800,control_change,0,0,3,,,,,,,,,2,64,0,,
37800,note_on,0,0,3,,,,,,,,,2,,,60,36
37800,control_change,108,0,4,,,,,,,,,3,64,0,,
37800,note_on,60,0,1,,,,,,,,,0,,,72,0
37800,control_change,0,0,1,,,,,,,,,0,64,0,,
37800,note_on,0,0,1,,,,,,,,,0,,,71,36
37800,note_on,240,0,3,,,,,,,,,2,,,59,0
37860,note_on,0,0,1,,,,,,,,,0,,,69,36
37860,note_on,60,0,1,,,,,,,,,0,,,71,0
37920,note_on,0,0,2,,,,,,,,,1,,,65,36
37920,note_on,0,0,3,,,,,,,,,2,,,62,36
37920,control_change,0,0,3,,,,,,,,,2,64,127,,
37920,note_on,120,0,3,,,,,,,,,2,,,60,0
37920,note_on,60,0,1,,,,,,,,,0,,,69,0
37920,control_change,0,0,1,,,,,,,,,0,64,127,,
37920,note_on,0,0,1,,,,,,,,,0,,,68,36
37920,control_change,1260,0,2,,,,,,,,,1,64,127,,
37920,control_change,120,0,4,,,,,,,,,3,64,127,,
37920,note_on,0,0,4,,,,,,,,,3,,,50,36
37932,note_on,12,0,4,,,,,,,,,3,,,50,0
37932,note_on,12,0,1,,,,,,,,,0,,,68,0
38040,note_on,108,0,1,,,,,,,,,0,,,68,36
38040,note_on,108,0,4,,,,,,,,,3,,,50,36
38052,note_on,12,0,1,,,,,,,,,0,,,68,0
38052,note_on,12,0,4,,,,,,,,,3,,,50,0
38100,note_on,180,0,2,,,,,,,,,1,,,65,0
38100,note_on,0,0,2,,,,,,,,,1,,,64,36
38160,note_on,0,0,3,,,,,,,,,2,,,59,36
38160,control_change,0,0,3,,,,,,,,,2,64,0,,
38160,note_on,240,0,3,,,,,,,,,2,,,62,0
38160,control_change,108,0,4,,,,,,,,,3,64,0,,
38160,note_on,0,0,2,,,,,,,,,1,,,63,36
38160,control_change,0,0,2,,,,,,,,,1,64,0,,
38160,note_on,60,0,2,,,,,,,,,1,,,64,0
38160,control_change,108,0,1,,,,,,,,,0,64,0,,
38220,note_on,0,0,2,,,,,,,,,1,,,62,36
38220,note_on,60,0,2,,,,,,,,,1,,,63,0
38280,control_change,0,0,3,,,,,,,,,2,64,127,,
38280,note_on,0,0,3,,,,,,,,,2,,,57,36
38280,note_on,120,0,3,,,,,,,,,2,,,59,0
38280,note_on,0,0,4,,,,,,,,,3,,,50,36
38280,control_change,120,0,4,,,,,,,,,3,64,127,,
38280,control_change,0,0,2,,,,,,,,,1,64,127,,
38280,note_on,0,0,2,,,,,,,,,1,,,60,36
38280,control_change,120,0,1,,,,,,,,,0,64,127,,
38280,note_on,0,0,1,,,,,,,,,0,,,72,36
38280,note_on,60,0,2,,,,,,,,,1,,,62,0
38292,note_on,12,0,4,,,,,,,,,3,,,50,0
38292,note_on,12,0,2,,,,,,,,,1,,,60,0
38400,note_on,108,0,4,,,,,,,,,3,,,50,36
38400,note_on,108,0,2,,,,,,,,,1,,,60,36
38412,note_on,12,0,2,,,,,,,,,1,,,60,0
38412,note_on,12,0,4,,,,,,,,,3,,,50,0
38460,note_on,180,0,1,,,,,,,,,0,,,72,0
38460,note_on,0,0,1,,,,,,,,,0,,,71,36
38520,control_change,108,0,4,,,,,,,,,3,64,0,,
38520,control_change,108,0,2,,,,,,,,,1,64,0,,
38520,control_change,0,0,3,,,,,,,,,2,64,0,,
38520,note_on,240,0,3,,,,,,,,,2,,,57,0
38520,note_on,60,0,1,,,,,,,,,0,,,71,0
38520,note_on,0,0,1,,,,,,,,,0,,,69,36
38520,note_on,0,0,3,,,,,,,,,2,,,59,36
38520,control_change,0,0,1,,,,,,,,,0,64,0,,
38580,note_on,60,0,1,,,,,,,,,0,,,69,0
38580,note_on,0,0,1,,,,,,,,,0,,,67,36
38640,note_on,0,0,4,,,,,,,,,3,,,50,36
38640,control_change,120,0,4,,,,,,,,,3,64,127,,
38640,control_change,0,0,3,,,,,,,,,2,64,127,,
38640,note_on,0,0,3,,,,,,,,,2,,,60,36
38640,note_on,120,0,3,,,,,,,,,2,,,59,0
38640,note_on,60,0,1,,,,,,,,,0,,,67,0
38640,control_change,0,0,1,,,,,,,,,0,64,127,,
38640,note_on,0,0,1,,,,,,,,,0,,,66,36
38640,note_on,0,0,2,,,,,,,,,1,,,63,36
38640,control_change,120,0,2,,,,,,,,,1,64,127,,
38652,note_on,12,0,1,,,,,,,,,0,,,66,0
38652,note_on,12,0,4,,,,,,,,,3,,,50,0
38760,note_on,108,0,1,,,,,,,,,0,,,66,36
38760,note_on,108,0,4,,,,,,,,,3,,,50,36
38772,note_on,12,0,1,,,,,,,,,0,,,66,0
38772,note_on,12,0,4,,,,,,,,,3,,,50,0
38820,note_on,180,0,2,,,,,,,,,1,,,63,0
38820,note_on,0,0,2,,,,,,,,,1,,,62,36
38880,control_change,0,0,3,,,,,,,,,2,64,0,,
38880,control_change,108,0,4,,,,,,,,,3,64,0,,
38880,note_on,60,0,2,,,,,,,,,1,,,62,0
38880,control_change,0,0,2,,,,,,,,,1,64,0,,
38880,note_on,0,0,2,,,,,,,,,1,,,61,36
38880,control_change,108,0,1,,,,,,,,,0,64,0,,
38880,note_on,240,0,3,,,,,,,,,2,,,60,0
38880,note_on,0,0,3,,,,,,,,,2,,,57,36
38940,note_on,60,0,2,,,,,,,,,1,,,61,0
38940,note_on,0,0,2,,,,,,,,,1,,,60,36
39000,note_on,0,0,1,,,,,,,,,0,,,67,88
39000,note_on,0,0,1,,,,,,,,,0,,,59,88
39000,control_change,120,0,1,,,,,,,,,0,64,127,,
39000,note_on,60,0,2,,,,,,,,,1,,,60,0
39000,control_change,0,0,3,,,,,,,,,2,64,127,,
39000,note_on,0,0,3,,,,,,,,,2,,,52,75
39000,note_on,120,0,3,,,,,,,,,2,,,57,0
39012,note_on,12,0,3,,,,,,,,,2,,,52,0
39012,note_on,0,0,1,,,,,,,,,0,,,59,0
39012,note_on,12,0,1,,,,,,,,,0,,,67,0
39120,note_on,108,0,1,,,,,,,,,0,,,64,88
39120,note_on,0,0,1,,,,,,,,,0,,,67,88
39120,note_on,0,0,1,,,,,,,,,0,,,69,88
39120,note_on,108,0,3,,,,,,,,,2,,,48,75
39132,note_on,0,0,1,,,,,,,,,0,,,64,0
39132,note_on,0,0,1,,,,,,,,,0,,,67,0
39132,note_on,12,0,1,,,,,,,,,0,,,69,0
39132,note_on,12,0,3,,,,,,,,,2,,,48,0
39240,note_on,0,0,1,,,,,,,,,0,,,71,88
39240,note_on,0,0,1,,,,,,,,,0,,,66,88
39240,control_change,108,0,1,,,,,,,,,0,64,0,,
39240,note_on,0,0,1,,,,,,,,,0,,,62,88
39240,note_on,0,0,3,,,,,,,,,2,,,50,75
39240,control_change,108,0,3,,,,,,,,,2,64,0,,
39252,note_on,12,0,3,,,,,,,,,2,,,50,0
39252,note_on,12,0,1,,,,,,,,,0,,,71,0
39252,note_on,0,0,1,,,,,,,,,0,,,66,0
39252,note_on,0,0,1,,,,,,,,,0,,,62,0
39360,note_on,0,0,3,,,,,,,,,2,,,55,75
39360,note_on,0,0,3,,,,,,,,,2,,,59,75
39360,note_on,0,0,1,,,,,,,,,0,,,67,88
39360,note_on,0,0,1,,,,,,,,,0,,,62,88
39360,note_on,0,0,1,,,,,,,,,0,,,71,88
39360,control_change,108,0,3,,,,,,,,,2,64,127,,
39360,control_change,108,0,1,,,,,,,,,0,64,127,,
39372,note_on,0,0,3,,,,,,,,,2,,,55,0
39372,note_on,12,0,3,,,,,,,,,2,,,59,0
39480,note_on,120,0,1,,,,,,,,,0,,,71,0
39480,note_on,0,0,1,,,,,,,,,0,,,67,0
39480,note_on,0,0,1,,,,,,,,,0,,,62,0
39480,note_on,0,0,1,,,,,,,,,0,,,74,88
39480,control_change,108,0,3,,,,,,,,,2,64,0,,
39540,note_on,60,0,1,,,,,,,,,0,,,74,0
39540,note_on,0,0,1,,,,,,,,,0,,,71,88
39600,note_on,60,0,1,,,,,,,,,0,,,71,0
39600,control_change,0,0,1,,,,,,,,,0,64,0,,
39600,note_on,0,0,1,,,,,,,,,0,,,74,88
39720,control_change,240,0,3,,,,,,,,,2,64,127,,
39720,note_on,0,0,3,,,,,,,,,2,,,52,36
39720,note_on,120,0,1,,,,,,,,,0,,,74,0
39720,control_change,0,0,1,,,,,,,,,0,64,127,,
39720,note_on,0,0,1,,,,,,,,,0,,,59,49
39720,note_on,0,0,1,,,,,,,,,0,,,67,49
39732,note_on,0,0,1,,,,,,,,,0,,,59,0
39732,note_on,12,0,1,,,,,,,,,0,,,67,0
39732,note_on,12,0,3,,,,,,,,,2,,,52,0
39840,note_on,108,0,1,,,,,,,,,0,,,64,49
39840,note_on,0,0,1,,,,,,,,,0,,,67,49
39840,note_on,0,0,1,,,,,,,,,0,,,69,49
39840,note_on,108,0,3,,,,,,,,,2,,,48,36
39852,note_on,12,0,3,,,,,,,,,2,,,48,0
39852,note_on,0,0,1,,,,,,,,,0,,,67,0
39852,note_on,0,0,1,,,,,,,,,0,,,64,0
39852,note_on,12,0,1,,,,,,,,,0,,,69,0
39960,note_on,108,0,1,,,,,,,,,0,,,62,49
39960,note_on,0,0,1,,,,,,,,,0,,,66,49
39960,note_on,0,0,1,,,,,,,,,0,,,71,49
39960,note_on,108,0,3,,,,,,,,,2,,,50,36
39972,note_on,0,0,1,,,,,,,,,0,,,62,0
39972,note_on,12,0,1,,,,,,,,,0,,,71,0
39972,note_on,12,0,3,,,,,,,,,2,,,50,0
39972,note_on,0,0,1,,,,,,,,,0,,,66,0
40080,note_on,0,0,1,,,,,,,,,0,,,67,49
40080,note_on,0,0,3,,,,,,,,,2,,,43,36
40080,note_on,0,0,1,,,,,,,,,0,,,59,49
40080,control_change,108,0,1,,,,,,,,,0,64,0,,
40080,control_change,108,0,3,,,,,,,,,2,64,0,,
40092,note_on,0,0,1,,,,,,,,,0,,,59,0
40092,note_on,12,0,1,,,,,,,,,0,,,67,0
40092,note_on,12,0,3,,,,,,,,,2,,,43,0
40440,note_on,0,0,3,,,,,,,,,2,,,65,36
40440,note_on,348,0,3,,,,,,,,,2,,,62,36
40440,note_on,348,0,1,,,,,,,,,0,,,70,36
40452,note_on,12,0,1,,,,,,,,,0,,,70,0
40452,note_on,12,0,3,,,,,,,,,2,,,65,0
40452,note_on,0,0,3,,,,,,,,,2,,,62,0
40560,note_on,0,0,1,,,,,,,,,0,,,72,36
40560,note_on,108,0,1,,,,,,,,,0,,,70,36
40560,note_on,108,0,3,,,,,,,,,2,,,63,36
40560,note_on,0,0,3,,,,,,,,,2,,,67,36
40572,note_on,12,0,1,,,,,,,,,0,,,72,0
40572,note_on,0,0,1,,,,,,,,,0,,,70,0
40572,note_on,0,0,3,,,,,,,,,2,,,63,0
40572,note_on,12,0,3,,,,,,,,,2,,,67,0
40680,note_on,108,0,1,,,,,,,,,0,,,69,36
40680,note_on,0,0,1,,,,,,,,,0,,,74,36
40680,note_on,108,0,3,,,,,,,,,2,,,65,36
40692,note_on,12,0,3,,,,,,,,,2,,,65,0
40692,note_on,0,0,1,,,,,,,,,0,,,69,0
40692,note_on,12,0,1,,,,,,,,,0,,,74,0
40800,control_change,108,0,1,,,,,,,,,0,64,127,,
40800,note_on,108,0,3,,,,,,,,,2,,,58,36
40800,note_on,0,0,1,,,,,,,,,0,,,74,36
40800,note_on,0,0,3,,,,,,,,,2,,,65,36
40800,note_on,0,0,1,,,,,,,,,0,,,70,36
40812,note_on,12,0,1,,,,,,,,,0,,,74,0
40812,note_on,0,0,1,,,,,,,,,0,,,70,0
40920,note_on,108,0,1,,,,,,,,,0,,,77,36
40920,note_on,0,0,3,,,,,,,,,2,,,58,0
40920,note_on,120,0,3,,,,,,,,,2,,,65,0
40980,note_on,0,0,1,,,,,,,,,0,,,74,36
40980,note_on,60,0,1,,,,,,,,,0,,,77,0
41040,note_on,0,0,1,,,,,,,,,0,,,77,36
41040,note_on,60,0,1,,,,,,,,,0,,,74,0
41160,note_on,240,0,3,,,,,,,,,2,,,62,36
41160,note_on,0,0,1,,,,,,,,,0,,,70,36
41160,control_change,0,0,1,,,,,,,,,0,64,0,,
41160,note_on,0,0,3,,,,,,,,,2,,,65,36
41160,note_on,120,0,1,,,,,,,,,0,,,77,0
41164,note_on,4,0,1,,,,,,,,,0,,,70,0
41172,note_on,0,0,3,,,,,,,,,2,,,62,0
41172,note_on,12,0,3,,,,,,,,,2,,,65,0
41280,note_on,0,0,1,,,,,,,,,0,,,72,36
41280,note_on,116,0,1,,,,,,,,,0,,,70,36
41280,note_on,0,0,3,,,,,,,,,2,,,67,36
41280,note_on,108,0,3,,,,,,,,,2,,,63,36
41292,note_on,12,0,1,,,,,,,,,0,,,72,0
41292,note_on,12,0,3,,,,,,,,,2,,,67,0
41292,note_on,0,0,3,,,,,,,,,2,,,63,0
41292,note_on,0,0,1,,,,,,,,,0,,,70,0
41400,note_on,108,0,3,,,,,,,,,2,,,65,36
41400,note_on,0,0,1,,,,,,,,,0,,,74,36
41400,note_on,108,0,1,,,,,,,,,0,,,69,36
41412,note_on,12,0,3,,,,,,,,,2,,,65,0
41412,note_on,0,0,1,,,,,,,,,0,,,69,0
41412,note_on,12,0,1,,,,,,,,,0,,,74,0
41520,note_on,0,0,3,,,,,,,,,2,,,62,36
41520,note_on,0,0,1,,,,,,,,,0,,,70,36
41520,note_on,0,0,3,,,,,,,,,2,,,58,36
41520,control_change,108,0,3,,,,,,,,,2,64,127,,
41520,control_change,108,0,1,,,,,,,,,0,64,127,,
41640,note_on,0,0,3,,,,,,,,,2,,,46,36
41640,note_on,120,0,1,,,,,,,,,0,,,70,0
41640,note_on,120,0,3,,,,,,,,,2,,,62,0
41640,note_on,0,0,3,,,,,,,,,2,,,58,0
41700,note_on,0,0,3,,,,,,,,,2,,,41,36
41700,note_on,60,0,3,,,,,,,,,2,,,46,0
41760,note_on,60,0,3,,,,,,,,,2,,,41,0
41760,note_on,0,0,3,,,,,,,,,2,,,46,36
41880,note_on,0,0,1,,,,,,,,,0,,,74,36
41880,note_on,120,0,3,,,,,,,,,2,,,46,0
41880,note_on,240,0,1,,,,,,,,,0,,,65,36
41880,note_on,0,0,1,,,,,,,,,0,,,77,36
41892,note_on,0,0,1,,,,,,,,,0,,,65,0
41892,note_on,12,0,1,,,,,,,,,0,,,77,0
41892,note_on,0,0,1,,,,,,,,,0,,,74,0
42000,note_on,108,0,1,,,,,,,,,0,,,65,36
42000,note_on,0,0,1,,,,,,,,,0,,,74,36
42000,note_on,0,0,1,,,,,,,,,0,,,77,36
42000,note_on,120,0,3,,,,,,,,,2,,,46,36
42012,note_on,0,0,1,,,,,,,,,0,,,74,0
42012,note_on,0,0,1,,,,,,,,,0,,,65,0
42012,note_on,12,0,1,,,,,,,,,0,,,77,0
42060,note_on,0,0,3,,,,,,,,,2,,,41,36
42060,note_on,60,0,3,,,,,,,,,2,,,46,0
42120,note_on,60,0,3,,,,,,,,,2,,,41,0
42120,note_on,0,0,3,,,,,,,,,2,,,46,36
42240,note_on,0,0,1,,,,,,,,,0,,,82,36
42240,note_on,0,0,1,,,,,,,,,0,,,74,36
42240,note_on,120,0,3,,,,,,,,,2,,,46,0
42240,note_on,228,0,1,,,,,,,,,0,,,70,36
42252,note_on,12,0,1,,,,,,,,,0,,,82,0
42252,note_on,0,0,1,,,,,,,,,0,,,74,0
42252,note_on,0,0,1,,,,,,,,,0,,,70,0
42360,note_on,120,0,3,,,,,,,,,2,,,46,36
42360,note_on,0,0,1,,,,,,,,,0,,,74,36
42360,note_on,108,0,1,,,,,,,,,0,,,70,36
42360,note_on,0,0,1,,,,,,,,,0,,,82,36
42372,note_on,0,0,1,,,,,,,,,0,,,74,0
42372,note_on,0,0,1,,,,,,,,,0,,,70,0
42372,note_on,12,0,1,,,,,,,,,0,,,82,0
42420,note_on,0,0,3,,,,,,,,,2,,,41,36
42420,note_on,60,0,3,,,,,,,,,2,,,46,0
42480,note_on,60,0,3,,,,,,,,,2,,,41,0
42480,control_change,0,0,3,,,,,,,,,2,64,0,,
42480,note_on,0,0,3,,,,,,,,,2,,,46,36
42480,control_change,108,0,1,,,,,,,,,0,64,0,,
42600,note_on,120,0,1,,,,,,,,,0,,,74,49
42600,note_on,120,0,3,,,,,,,,,2,,,46,0
42612,note_on,12,0,1,,,,,,,,,0,,,74,0
42720,note_on,108,0,1,,,,,,,,,0,,,75,49
42732,note_on,12,0,1,,,,,,,,,0,,,75,0
42840,note_on,108,0,1,,,,,,,,,0,,,77,49
42852,note_on,12,0,1,,,,,,,,,0,,,77,0
42960,note_on,108,0,1,,,,,,,,,0,,,70,49
42960,control_change,360,0,3,,,,,,,,,2,64,127,,
42960,note_on,0,0,3,,,,,,,,,2,,,62,49
42960,note_on,0,0,3,,,,,,,,,2,,,58,49
42972,note_on,0,0,3,,,,,,,,,2,,,58,0
42972,note_on,12,0,3,,,,,,,,,2,,,62,0
43080,note_on,0,0,3,,,,,,,,,2,,,63,49
43080,note_on,108,0,3,,,,,,,,,2,,,60,49
43080,note_on,120,0,1,,,,,,,,,0,,,70,0
43092,note_on,12,0,3,,,,,,,,,2,,,63,0
43092,note_on,0,0,3,,,,,,,,,2,,,60,0
43200,note_on,0,0,3,,,,,,,,,2,,,65,49
43200,note_on,108,0,3,,,,,,,,,2,,,62,49
43212,note_on,12,0,3,,,,,,,,,2,,,65,0
43212,note_on,0,0,3,,,,,,,,,2,,,62,0
43320,note_on,0,0,3,,,,,,,,,2,,,58,49
43320,note_on,0,0,3,,,,,,,,,2,,,55,49
43320,control_change,108,0,3,,,,,,,,,2,64,0,,
43320,note_on,240,0,1,,,,,,,,,0,,,79,49
43380,note_on,0,0,1,,,,,,,,,0,,,81,49
43380,note_on,60,0,1,,,,,,,,,0,,,79,0
43440,note_on,120,0,3,,,,,,,,,2,,,58,0
43440,note_on,0,0,3,,,,,,,,,2,,,55,0
43440,note_on,60,0,1,,,,,,,,,0,,,81,0
43440,note_on,0,0,1,,,,,,,,,0,,,81,49
43500,note_on,0,0,1,,,,,,,,,0,,,82,49
43500,note_on,60,0,1,,,,,,,,,0,,,81,0
43560,note_on,0,0,1,,,,,,,,,0,,,82,49
43560,note_on,60,0,1,,,,,,,,,0,,,82,0
43680,note_on,120,0,1,,,,,,,,,0,,,82,0
43680,note_on,240,0,3,,,,,,,,,2,,,63,49
43680,note_on,0,0,3,,,,,,,,,2,,,67,49
43680,note_on,0,0,1,,,,,,,,,0,,,75,49
43740,note_on,0,0,3,,,,,,,,,2,,,69,49
43740,note_on,0,0,3,,,,,,,,,2,,,65,49
43740,note_on,0,0,3,,,,,,,,,2,,,63,0
43740,note_on,60,0,3,,,,,,,,,2,,,67,0
43800,note_on,120,0,1,,,,,,,,,0,,,75,0
43800,note_on,0,0,3,,,,,,,,,2,,,69,49
43800,note_on,0,0,3,,,,,,,,,2,,,65,0
43800,note_on,60,0,3,,,,,,,,,2,,,69,0
43800,note_on,0,0,3,,,,,,,,,2,,,65,49
43860,note_on,0,0,3,,,,,,,,,2,,,70,49
43860,note_on,0,0,3,,,,,,,,,2,,,65,0
43860,note_on,0,0,3,,,,,,,,,2,,,67,49
43860,note_on,60,0,3,,,,,,,,,2,,,69,0
43920,note_on,60,0,3,,,,,,,,,2,,,70,0
43920,note_on,0,0,3,,,,,,,,,2,,,67,0
43920,note_on,0,0,3,,,,,,,,,2,,,67,49
43920,note_on,0,0,3,,,,,,,,,2,,,70,49
44040,control_change,240,0,1,,,,,,,,,0,64,127,,
44040,note_on,0,0,1,,,,,,,,,0,,,75,49
44040,note_on,0,0,3,,,,,,,,,2,,,60,49
44040,note_on,0,0,3,,,,,,,,,2,,,67,0
44040,note_on,0,0,3,,,,,,,,,2,,,63,49
44040,note_on,120,0,3,,,,,,,,,2,,,70,0
44052,note_on,12,0,1,,,,,,,,,0,,,75,0
44160,note_on,120,0,3,,,,,,,,,2,,,63,0
44160,note_on,0,0,3,,,,,,,,,2,,,60,0
44160,note_on,108,0,1,,,,,,,,,0,,,77,49
44172,note_on,12,0,1,,,,,,,,,0,,,77,0
44280,note_on,108,0,1,,,,,,,,,0,,,79,49
44292,note_on,12,0,1,,,,,,,,,0,,,79,0
44400,note_on,240,0,3,,,,,,,,,2,,,57,49
44400,note_on,0,0,3,,,,,,,,,2,,,65,49
44400,control_change,108,0,1,,,,,,,,,0,64,0,,
44400,note_on,0,0,1,,,,,,,,,0,,,72,49
44412,note_on,12,0,3,,,,,,,,,2,,,65,0
44412,note_on,0,0,3,,,,,,,,,2,,,57,0
44520,note_on,108,0,3,,,,,,,,,2,,,55,49
44520,note_on,0,0,3,,,,,,,,,2,,,64,49
44520,note_on,120,0,1,,,,,,,,,0,,,72,0
44532,note_on,12,0,3,,,,,,,,,2,,,64,0
44532,note_on,0,0,3,,,,,,,,,2,,,55,0
44640,note_on,108,0,3,,,,,,,,,2,,,57,49
44640,note_on,0,0,3,,,,,,,,,2,,,63,49
44652,note_on,12,0,3,,,,,,,,,2,,,63,0
44652,note_on,0,0,3,,,,,,,,,2,,,57,0
44760,note_on,0,0,1,,,,,,,,,0,,,74,49
44760,control_change,240,0,1,,,,,,,,,0,64,127,,
44760,note_on,0,0,3,,,,,,,,,2,,,62,49
44760,control_change,108,0,3,,,,,,,,,2,64,127,,
44760,note_on,0,0,3,,,,,,,,,2,,,58,49
44880,note_on,120,0,1,,,,,,,,,0,,,74,0
44880,note_on,0,0,1,,,,,,,,,0,,,75,49
45000,note_on,0,0,1,,,,,,,,,0,,,65,106
45000,note_on,0,0,1,,,,,,,,,0,,,77,114
45000,note_on,120,0,1,,,,,,,,,0,,,75,0
45000,control_change,0,0,1,,,,,,,,,0,64,0,,
45000,note_on,240,0,3,,,,,,,,,2,,,62,0
45000,note_on,0,0,3,,,,,,,,,2,,,57,75
45000,note_on,0,0,3,,,,,,,,,2,,,60,75
45000,note_on,0,0,3,,,,,,,,,2,,,58,0
45000,control_change,0,0,3,,,,,,,,,2,64,0,,
45120,note_on,0,0,2,,,,,,,,,1,,,75,49
45120,control_change,6120,0,2,,,,,,,,,1,64,127,,
45120,note_on,0,0,3,,,,,,,,,2,,,58,49
45120,note_on,120,0,3,,,,,,,,,2,,,60,0
45120,note_on,0,0,3,,,,,,,,,2,,,57,0
45120,note_on,0,0,3,,,,,,,,,2,,,55,49
45120,note_on,120,0,1,,,,,,,,,0,,,77,0
45120,control_change,0,0,3,,,,,,,,,2,64,127,,
45240,note_on,0,0,3,,,,,,,,,2,,,60,49
45240,note_on,0,0,3,,,,,,,,,2,,,57,49
45240,note_on,0,0,3,,,,,,,,,2,,,55,0
45240,note_on,120,0,3,,,,,,,,,2,,,58,0
45360,note_on,0,0,3,,,,,,,,,2,,,58,49
45360,note_on,0,0,2,,,,,,,,,1,,,74,49
45360,control_change,0,0,3,,,,,,,,,2,64,0,,
45360,note_on,0,0,3,,,,,,,,,2,,,57,0
45360,note_on,120,0,3,,,,,,,,,2,,,60,0
45360,note_on,240,0,2,,,,,,,,,1,,,75,0
45360,control_change,0,0,2,,,,,,,,,1,64,0,,
45360,note_on,0,0,3,,,,,,,,,2,,,62,49
45480,note_on,360,0,1,,,,,,,,,0,,,65,0
45480,control_change,0,0,1,,,,,,,,,0,64,127,,
45480,note_on,0,0,1,,,,,,,,,0,,,86,49
45480,note_on,0,0,3,,,,,,,,,2,,,74,49
45480,note_on,0,0,3,,,,,,,,,2,,,70,49
45480,note_on,0,0,3,,,,,,,,,2,,,58,0
45480,note_on,120,0,3,,,,,,,,,2,,,62,0
45480,note_on,120,0,2,,,,,,,,,1,,,74,0
45540,note_on,60,0,1,,,,,,,,,0,,,86,0
45540,note_on,0,0,1,,,,,,,,,0,,,87,49
45600,note_on,0,0,1,,,,,,,,,0,,,87,49
45600,note_on,60,0,1,,,,,,,,,0,,,87,0
45660,note_on,60,0,1,,,,,,,,,0,,,87,0
45660,note_on,0,0,1,,,,,,,,,0,,,89,49
45720,note_on,60,0,1,,,,,,,,,0,,,89,0
45720,note_on,240,0,2,,,,,,,,,1,,,77,75
45720,note_on,0,0,1,,,,,,,,,0,,,89,88
45720,control_change,0,0,1,,,,,,,,,0,64,0,,
45720,note_on,0,0,3,,,,,,,,,2,,,72,75
45720,note_on,0,0,3,,,,,,,,,2,,,69,75
45720,note_on,0,0,3,,,,,,,,,2,,,70,0
45720,note_on,240,0,3,,,,,,,,,2,,,74,0
45840,note_on,120,0,3,,,,,,,,,2,,,72,0
45840,note_on,120,0,1,,,,,,,,,0,,,89,0
45840,control_change,0,0,1,,,,,,,,,0,64,127,,
45840,note_on,0,0,1,,,,,,,,,0,,,87,49
45840,control_change,0,0,3,,,,,,,,,2,64,127,,
45840,note_on,0,0,3,,,,,,,,,2,,,67,49
45840,note_on,0,0,3,,,,,,,,,2,,,70,49
45840,note_on,0,0,3,,,,,,,,,2,,,69,0
45900,note_on,60,0,3,,,,,,,,,2,,,70,0
45900,note_on,0,0,3,,,,,,,,,2,,,67,0
45900,note_on,0,0,3,,,,,,,,,2,,,69,49
45900,note_on,0,0,3,,,,,,,,,2,,,72,49
45960,note_on,0,0,3,,,,,,,,,2,,,72,49
45960,note_on,0,0,3,,,,,,,,,2,,,69,0
45960,note_on,60,0,3,,,,,,,,,2,,,72,0
45960,note_on,0,0,3,,,,,,,,,2,,,69,49
46020,note_on,0,0,3,,,,,,,,,2,,,70,49
46020,note_on,0,0,3,,,,,,,,,2,,,74,49
46020,note_on,0,0,3,,,,,,,,,2,,,69,0
46020,note_on,60,0,3,,,,,,,,,2,,,72,0
46080,note_on,60,0,3,,,,,,,,,2,,,74,0
46080,note_on,0,0,3,,,,,,,,,2,,,70,0
46080,control_change,0,0,3,,,,,,,,,2,64,0,,
46080,note_on,0,0,3,,,,,,,,,2,,,70,49
46080,note_on,0,0,3,,,,,,,,,2,,,74,49
46080,note_on,0,0,1,,,,,,,,,0,,,86,49
46080,control_change,0,0,1,,,,,,,,,0,64,0,,
46080,note_on,240,0,1,,,,,,,,,0,,,87,0
46200,control_change,0,0,1,,,,,,,,,0,64,127,,
46200,note_on,0,0,1,,,,,,,,,0,,,72,36
46200,note_on,120,0,1,,,,,,,,,0,,,86,0
46200,note_on,0,0,3,,,,,,,,,2,,,70,0
46200,note_on,480,0,2,,,,,,,,,1,,,77,0
46200,note_on,0,0,3,,,,,,,,,2,,,58,36
46200,note_on,0,0,3,,,,,,,,,2,,,60,36
46200,note_on,120,0,3,,,,,,,,,2,,,74,0
46200,control_change,0,0,3,,,,,,,,,2,64,127,,
46200,note_on,0,0,2,,,,,,,,,1,,,70,36
46200,note_on,0,0,3,,,,,,,,,2,,,51,36
46200,note_on,0,0,2,,,,,,,,,1,,,67,36
46200,control_change,0,0,2,,,,,,,,,1,64,127,,
46320,note_on,0,0,1,,,,,,,,,0,,,74,36
46320,note_on,0,0,2,,,,,,,,,1,,,67,0
46320,note_on,0,0,3,,,,,,,,,2,,,51,0
46320,note_on,0,0,3,,,,,,,,,2,,,58,0
46320,note_on,120,0,3,,,,,,,,,2,,,60,0
46320,note_on,120,0,1,,,,,,,,,0,,,72,0
46320,note_on,120,0,2,,,,,,,,,1,,,70,0
46440,note_on,120,0,1,,,,,,,,,0,,,74,0
46440,note_on,0,0,1,,,,,,,,,0,,,75,36
46560,note_on,0,0,3,,,,,,,,,2,,,58,36
46560,note_on,0,0,1,,,,,,,,,0,,,72,36
46560,note_on,240,0,3,,,,,,,,,2,,,51,36
46560,note_on,0,0,3,,,,,,,,,2,,,60,36
46560,note_on,120,0,1,,,,,,,,,0,,,75,0
46560,note_on,0,0,2,,,,,,,,,1,,,67,36
46560,control_change,240,0,2,,,,,,,,,1,64,0,,
46560,note_on,0,0,2,,,,,,,,,1,,,70,36
46620,note_on,0,0,1,,,,,,,,,0,,,74,36
46620,note_on,60,0,1,,,,,,,,,0,,,72,0
46680,note_on,0,0,1,,,,,,,,,0,,,74,36
46680,note_on,60,0,1,,,,,,,,,0,,,74,0
46680,note_on,120,0,2,,,,,,,,,1,,,70,0
46680,note_on,0,0,2,,,,,,,,,1,,,67,0
46680,control_change,0,0,3,,,,,,,,,2,64,0,,
46680,note_on,0,0,3,,,,,,,,,2,,,51,0
46680,note_on,120,0,3,,,,,,,,,2,,,60,0
46680,note_on,0,0,3,,,,,,,,,2,,,58,0
46740,note_on,60,0,1,,,,,,,,,0,,,74,0
46740,note_on,0,0,1,,,,,,,,,0,,,75,36
46800,note_on,60,0,1,,,,,,,,,0,,,75,0
46800,note_on,0,0,1,,,,,,,,,0,,,75,36
46800,control_change,0,0,1,,,,,,,,,0,64,0,,
46920,note_on,120,0,1,,,,,,,,,0,,,75,0
46920,control_change,0,0,1,,,,,,,,,0,64,127,,
46920,note_on,0,0,1,,,,,,,,,0,,,70,36
46920,note_on,0,0,3,,,,,,,,,2,,,61,36
46920,note_on,0,0,3,,,,,,,,,2,,,58,36
46920,note_on,240,0,3,,,,,,,,,2,,,52,36
46920,note_on,240,0,2,,,,,,,,,1,,,67,36
47040,note_on,0,0,1,,,,,,,,,0,,,72,36
47040,note_on,0,0,3,,,,,,,,,2,,,58,0
47040,note_on,120,0,3,,,,,,,,,2,,,61,0
47040,note_on,120,0,1,,,,,,,,,0,,,70,0
47040,note_on,0,0,3,,,,,,,,,2,,,52,0
47040,note_on,120,0,2,,,,,,,,,1,,,67,0
47160,note_on,120,0,1,,,,,,,,,0,,,72,0
47160,control_change,0,0,1,,,,,,,,,0,64,0,,
47160,note_on,0,0,1,,,,,,,,,0,,,73,36
47280,note_on,120,0,1,,,,,,,,,0,,,73,0
47280,control_change,0,0,1,,,,,,,,,0,64,127,,
47280,note_on,0,0,1,,,,,,,,,0,,,70,36
47280,note_on,0,0,3,,,,,,,,,2,,,61,36
47280,note_on,240,0,2,,,,,,,,,1,,,66,36
47280,note_on,0,0,3,,,,,,,,,2,,,54,36
47280,note_on,240,0,3,,,,,,,,,2,,,52,36
47340,note_on,0,0,1,,,,,,,,,0,,,71,36
47340,note_on,60,0,1,,,,,,,,,0,,,70,0
47400,note_on,0,0,1,,,,,,,,,0,,,71,36
47400,note_on,60,0,1,,,,,,,,,0,,,71,0
47400,note_on,0,0,3,,,,,,,,,2,,,54,0
47400,note_on,120,0,2,,,,,,,,,1,,,66,0
47400,note_on,0,0,3,,,,,,,,,2,,,52,0
47400,note_on,120,0,3,,,,,,,,,2,,,61,0
47460,note_on,0,0,1,,,,,,,,,0,,,73,36
47460,note_on,60,0,1,,,,,,,,,0,,,71,0
47520,note_on,60,0,1,,,,,,,,,0,,,73,0
47520,control_change,0,0,1,,,,,,,,,0,64,0,,
47520,note_on,0,0,1,,,,,,,,,0,,,73,36
47640,note_on,120,0,1,,,,,,,,,0,,,73,0
47640,control_change,0,0,1,,,,,,,,,0,64,127,,
47640,note_on,0,0,1,,,,,,,,,0,,,71,36
47640,note_on,0,0,2,,,,,,,,,1,,,78,36
47640,note_on,240,0,2,,,,,,,,,1,,,66,36
47640,note_on,240,0,3,,,,,,,,,2,,,50,36
47640,note_on,0,0,3,,,,,,,,,2,,,54,36
47640,note_on,0,0,3,,,,,,,,,2,,,59,36
47760,note_on,0,0,1,,,,,,,,,0,,,73,36
47760,note_on,120,0,1,,,,,,,,,0,,,71,0
47760,note_on,120,0,3,,,,,,,,,2,,,59,0
47760,note_on,0,0,3,,,,,,,,,2,,,54,0
47760,note_on,0,0,3,,,,,,,,,2,,,50,0
47880,note_on,120,0,1,,,,,,,,,0,,,73,0
47880,control_change,0,0,1,,,,,,,,,0,64,0,,
47880,note_on,0,0,1,,,,,,,,,0,,,74,36
48000,note_on,0,0,3,,,,,,,,,2,,,54,36
48000,note_on,0,0,3,,,,,,,,,2,,,59,36
48000,note_on,0,0,1,,,,,,,,,0,,,71,36
48000,note_on,120,0,1,,,,,,,,,0,,,74,0
48000,note_on,240,0,3,,,,,,,,,2,,,50,36
48060,note_on,60,0,1,,,,,,,,,0,,,71,0
48060,note_on,0,0,1,,,,,,,,,0,,,73,36
48120,note_on,0,0,3,,,,,,,,,2,,,50,0
48120,note_on,0,0,3,,,,,,,,,2,,,54,0
48120,note_on,120,0,3,,,,,,,,,2,,,59,0
48120,note_on,60,0,1,,,,,,,,,0,,,73,0
48120,note_on,0,0,1,,,,,,,,,0,,,73,36
48180,note_on,60,0,1,,,,,,,,,0,,,73,0
48180,note_on,0,0,1,,,,,,,,,0,,,74,36
48240,note_on,0,0,1,,,,,,,,,0,,,74,36
48240,note_on,60,0,1,,,,,,,,,0,,,74,0
48360,note_on,0,0,1,,,,,,,,,0,,,66,36
48360,note_on,0,0,4,,,,,,,,,3,,,50,36
48360,control_change,9480,0,4,,,,,,,,,3,64,127,,
48360,note_on,0,0,2,,,,,,,,,1,,,66,0
48360,note_on,0,0,2,,,,,,,,,1,,,74,36
48360,control_change,0,0,2,,,,,,,,,1,64,127,,
48360,note_on,120,0,1,,,,,,,,,0,,,74,0
48360,control_change,0,0,1,,,,,,,,,0,64,127,,
48360,note_on,0,0,3,,,,,,,,,2,,,57,36
48360,control_change,240,0,3,,,,,,,,,2,64,127,,
48360,note_on,0,0,2,,,,,,,,,1,,,62,36
48360,note_on,720,0,2,,,,,,,,,1,,,78,0
48420,set_tempo,18900,1,0,,,,,,338983,,,,,,,
48480,note_on,120,0,3,,,,,,,,,2,,,57,0
48480,note_on,0,0,3,,,,,,,,,2,,,59,36
48480,note_on,120,0,1,,,,,,,,,0,,,66,0
48480,note_on,0,0,1,,,,,,,,,0,,,67,36
48480,set_tempo,60,1,0,,,,,,344828,,,,,,,
48540,set_tempo,60,1,0,,,,,,350877,,,,,,,
48600,note_on,0,0,3,,,,,,,,,2,,,60,36
48600,note_on,120,0,3,,,,,,,,,2,,,59,0
48600,set_tempo,60,1,0,,,,,,359281,,,,,,,
48600,note_on,0,0,1,,,,,,,,,0,,,69,36
48600,note_on,120,0,1,,,,,,,,,0,,,67,0
48660,set_tempo,60,1,0,,,,,,365854,,,,,,,
48720,note_on,0,0,3,,,,,,,,,2,,,57,36
48720,control_change,360,0,4,,,,,,,,,3,64,0,,
48720,note_on,120,0,3,,,,,,,,,2,,,60,0
48720,set_tempo,60,1,0,,,,,,372671,,,,,,,
48720,control_change,360,0,2,,,,,,,,,1,64,0,,
48720,note_on,120,0,1,,,,,,,,,0,,,69,0
48720,note_on,0,0,1,,,,,,,,,0,,,66,36
48780,set_tempo,60,1,0,,,,,,379747,,,,,,,
48780,note_on,60,0,3,,,,,,,,,2,,,57,0
48780,note_on,60,0,1,,,,,,,,,0,,,66,0
48780,note_on,0,0,1,,,,,,,,,0,,,67,36
48780,note_on,0,0,3,,,,,,,,,2,,,59,36
48840,set_tempo,60,1,0,,,,,,389610,,,,,,,
48840,note_on,60,0,1,,,,,,,,,0,,,67,0
48840,note_on,0,0,1,,,,,,,,,0,,,67,36
48840,note_on,0,0,3,,,,,,,,,2,,,59,36
48840,note_on,60,0,3,,,,,,,,,2,,,59,0
48900,note_on,0,0,3,,,,,,,,,2,,,60,36
48900,note_on,60,0,3,,,,,,,,,2,,,59,0
48900,note_on,0,0,1,,,,,,,,,0,,,69,36
48900,note_on,60,0,1,,,,,,,,,0,,,67,0
48960,control_change,0,0,1,,,,,,,,,0,64,0,,
48960,note_on,60,0,1,,,,,,,,,0,,,69,0
48960,note_on,0,0,3,,,,,,,,,2,,,60,36
48960,note_on,60,0,3,,,,,,,,,2,,,60,0
48960,control_change,0,0,3,,,,,,,,,2,64,0,,
48960,note_on,0,0,1,,,,,,,,,0,,,69,36
49080,note_on,120,0,3,,,,,,,,,2,,,60,0
49080,note_on,0,0,2,,,,,,,,,1,,,62,0
49080,note_on,360,0,2,,,,,,,,,1,,,74,0
49080,note_on,360,0,4,,,,,,,,,3,,,50,0
49080,note_on,120,0,1,,,,,,,,,0,,,69,0
49680,note_on,600,0,3,,,,,,,,,2,,,74,36
49680,set_tempo,840,1,0,,,,,,333333,,,,,,,
49680,note_on,600,0,1,,,,,,,,,0,,,86,36
49740,note_on,60,0,3,,,,,,,,,2,,,74,0
49740,note_on,0,0,1,,,,,,,,,0,,,83,36
49740,note_on,60,0,1,,,,,,,,,0,,,86,0
49740,note_on,0,0,3,,,,,,,,,2,,,71,36
49800,note_on,60,0,3,,,,,,,,,2,,,71,0
49800,note_on,0,0,1,,,,,,,,,0,,,86,36
49800,control_change,0,0,1,,,,,,,,,0,64,127,,
49800,control_change,0,0,3,,,,,,,,,2,64,127,,
49800,note_on,0,0,3,,,,,,,,,2,,,74,36
49800,note_on,60,0,1,,,,,,,,,0,,,83,0
49980,note_on,0,0,3,,,,,,,,,2,,,71,36
49980,note_on,180,0,1,,,,,,,,,0,,,86,0
49980,note_on,0,0,1,,,,,,,,,0,,,83,36
49980,note_on,180,0,3,,,,,,,,,2,,,74,0
50040,note_on,0,0,3,,,,,,,,,2,,,72,36
50040,note_on,60,0,1,,,,,,,,,0,,,83,0
50040,note_on,0,0,1,,,,,,,,,0,,,84,36
50040,note_on,60,0,3,,,,,,,,,2,,,71,0
50100,note_on,60,0,1,,,,,,,,,0,,,84,0
50100,note_on,0,0,3,,,,,,,,,2,,,74,36
50100,note_on,60,0,3,,,,,,,,,2,,,72,0
50100,note_on,0,0,1,,,,,,,,,0,,,86,36
50160,control_change,0,0,1,,,,,,,,,0,64,0,,
50160,note_on,0,0,1,,,,,,,,,0,,,74,36
50160,note_on,60,0,3,,,,,,,,,2,,,74,0
50160,control_change,0,0,3,,,,,,,,,2,64,0,,
50160,note_on,0,0,3,,,,,,,,,2,,,62,36
50160,note_on,60,0,1,,,,,,,,,0,,,86,0
50172,note_on,12,0,3,,,,,,,,,2,,,62,0
50172,note_on,12,0,1,,,,,,,,,0,,,74,0
50280,note_on,108,0,1,,,,,,,,,0,,,74,36
50280,note_on,108,0,3,,,,,,,,,2,,,62,36
50292,note_on,12,0,3,,,,,,,,,2,,,62,0
50292,note_on,12,0,1,,,,,,,,,0,,,74,0
50400,note_on,108,0,1,,,,,,,,,0,,,79,36
50400,note_on,108,0,3,,,,,,,,,2,,,67,36
50460,note_on,60,0,1,,,,,,,,,0,,,79,0
50460,note_on,0,0,1,,,,,,,,,0,,,74,36
50460,note_on,60,0,3,,,,,,,,,2,,,67,0
50460,note_on,0,0,3,,,,,,,,,2,,,62,36
50520,note_on,60,0,1,,,,,,,,,0,,,74,0
50520,control_change,0,0,3,,,,,,,,,2,64,127,,
50520,note_on,0,0,3,,,,,,,,,2,,,67,36
50520,control_change,0,0,1,,,,,,,,,0,64,127,,
50520,note_on,60,0,3,,,,,,,,,2,,,62,0
50520,note_on,0,0,1,,,,,,,,,0,,,79,36
50700,note_on,0,0,1,,,,,,,,,0,,,71,36
50700,note_on,0,0,3,,,,,,,,,2,,,59,36
50700,note_on,180,0,3,,,,,,,,,2,,,67,0
50700,note_on,180,0,1,,,,,,,,,0,,,79,0
50760,note_on,60,0,1,,,,,,,,,0,,,71,0
50760,note_on,0,0,3,,,,,,,,,2,,,60,36
50760,note_on,60,0,3,,,,,,,,,2,,,59,0
50760,note_on,0,0,1,,,,,,,,,0,,,72,36
50820,note_on,60,0,1,,,,,,,,,0,,,72,0
50820,note_on,0,0,1,,,,,,,,,0,,,74,36
50820,note_on,0,0,3,,,,,,,,,2,,,62,36
50820,note_on,60,0,3,,,,,,,,,2,,,60,0
50880,note_on,60,0,1,,,,,,,,,0,,,74,0
50880,control_change,0,0,1,,,,,,,,,0,64,0,,
50880,note_on,60,0,3,,,,,,,,,2,,,62,0
50880,control_change,0,0,3,,,,,,,,,2,64,0,,
50880,note_on,0,0,3,,,,,,,,,2,,,55,36
50880,note_on,0,0,1,,,,,,,,,0,,,67,36
50892,note_on,12,0,1,,,,,,,,,0,,,67,0
50892,note_on,12,0,3,,,,,,,,,2,,,55,0
51000,note_on,108,0,1,,,,,,,,,0,,,67,36
51000,note_on,108,0,3,,,,,,,,,2,,,55,36
51012,note_on,12,0,1,,,,,,,,,0,,,67,0
51012,note_on,12,0,3,,,,,,,,,2,,,55,0
51120,note_on,0,0,2,,,,,,,,,1,,,62,75
51120,note_on,108,0,1,,,,,,,,,0,,,71,88
51120,note_on,0,0,3,,,,,,,,,2,,,55,75
51120,note_on,0,0,3,,,,,,,,,2,,,50,75
51120,note_on,108,0,3,,,,,,,,,2,,,43,75
51120,note_on,2040,0,2,,,,,,,,,1,,,59,75
51180,note_on,60,0,1,,,,,,,,,0,,,71,0
51180,note_on,0,0,1,,,,,,,,,0,,,67,88
51240,note_on,120,0,3,,,,,,,,,2,,,55,0
51240,note_on,0,0,3,,,,,,,,,2,,,50,0
51240,note_on,0,0,3,,,,,,,,,2,,,43,91
51240,note_on,0,0,3,,,,,,,,,2,,,50,96
51240,note_on,0,0,3,,,,,,,,,2,,,55,101
51240,note_on,0,0,2,,,,,,,,,1,,,62,75
51240,note_on,0,0,2,,,,,,,,,1,,,59,75
51240,note_on,0,0,2,,,,,,,,,1,,,59,0
51240,note_on,120,0,2,,,,,,,,,1,,,62,0
51240,note_on,0,0,1,,,,,,,,,0,,,71,114
51240,note_on,0,0,3,,,,,,,,,2,,,43,0
51240,note_on,60,0,1,,,,,,,,,0,,,67,0
51480,note_on,0,0,3,,,,,,,,,2,,,50,0
51480,note_on,240,0,3,,,,,,,,,2,,,55,0
51480,note_on,0,0,3,,,,,,,,,2,,,43,0
51480,note_on,0,0,3,,,,,,,,,2,,,45,36
51480,note_on,0,0,3,,,,,,,,,2,,,50,36
51480,note_on,0,0,3,,,,,,,,,2,,,54,36
51480,note_on,0,0,2,,,,,,,,,1,,,62,36
51480,note_on,0,0,2,,,,,,,,,1,,,60,36
51480,note_on,0,0,2,,,,,,,,,1,,,59,0
51480,note_on,0,0,1,,,,,,,,,0,,,69,49
51480,note_on,240,0,1,,,,,,,,,0,,,71,0
51480,note_on,240,0,2,,,,,,,,,1,,,62,0
51540,note_on,0,0,1,,,,,,,,,0,,,66,49
51540,note_on,60,0,1,,,,,,,,,0,,,69,0
51600,note_on,120,0,2,,,,,,,,,1,,,62,0
51600,note_on,0,0,3,,,,,,,,,2,,,45,0
51600,note_on,0,0,3,,,,,,,,,2,,,50,0
51600,control_change,0,0,3,,,,,,,,,2,64,127,,
51600,note_on,0,0,3,,,,,,,,,2,,,47,36
51600,note_on,0,0,2,,,,,,,,,1,,,60,0
51600,note_on,0,0,3,,,,,,,,,2,,,55,36
51600,note_on,0,0,1,,,,,,,,,0,,,74,49
51600,note_on,0,0,1,,,,,,,,,0,,,62,49
51600,control_change,0,0,1,,,,,,,,,0,64,127,,
51600,note_on,60,0,1,,,,,,,,,0,,,66,0
51600,note_on,120,0,3,,,,,,,,,2,,,54,0
51600,note_on,0,0,3,,,,,,,,,2,,,50,36
51612,note_on,12,0,3,,,,,,,,,2,,,55,0
51612,note_on,0,0,3,,,,,,,,,2,,,47,0
51612,note_on,12,0,1,,,,,,,,,0,,,74,0
51612,note_on,0,0,1,,,,,,,,,0,,,62,0
51612,note_on,0,0,3,,,,,,,,,2,,,50,0
51720,note_on,108,0,1,,,,,,,,,0,,,62,49
51720,note_on,0,0,1,,,,,,,,,0,,,74,49
51720,note_on,0,0,3,,,,,,,,,2,,,55,36
51720,note_on,0,0,3,,,,,,,,,2,,,50,36
51720,note_on,108,0,3,,,,,,,,,2,,,47,36
51732,note_on,0,0,3,,,,,,,,,2,,,47,0
51732,note_on,0,0,3,,,,,,,,,2,,,50,0
51732,note_on,12,0,3,,,,,,,,,2,,,55,0
51732,note_on,12,0,1,,,,,,,,,0,,,74,0
51732,note_on,0,0,1,,,,,,,,,0,,,62,0
51840,note_on,0,0,3,,,,,,,,,2,,,54,36
51840,note_on,0,0,3,,,,,,,,,2,,,50,36
51840,control_change,108,0,3,,,,,,,,,2,64,0,,
51840,note_on,0,0,1,,,,,,,,,0,,,60,49
51840,control_change,108,0,1,,,,,,,,,0,64,0,,
51840,note_on,0,0,1,,,,,,,,,0,,,62,49
51846,note_on,6,0,1,,,,,,,,,0,,,62,0
51846,note_on,0,0,1,,,,,,,,,0,,,60,0
51846,note_on,6,0,3,,,,,,,,,2,,,54,0
51846,note_on,0,0,3,,,,,,,,,2,,,50,0
51900,note_on,54,0,3,,,,,,,,,2,,,50,36
51900,note_on,0,0,3,,,,,,,,,2,,,55,36
51900,note_on,54,0,1,,,,,,,,,0,,,60,49
51900,note_on,0,0,1,,,,,,,,,0,,,62,49
51900,note_on,0,0,1,,,,,,,,,0,,,64,49
51906,note_on,6,0,1,,,,,,,,,0,,,64,0
51906,note_on,6,0,3,,,,,,,,,2,,,55,0
51906,note_on,0,0,3,,,,,,,,,2,,,50,0
51906,note_on,0,0,1,,,,,,,,,0,,,60,0
51906,note_on,0,0,1,,,,,,,,,0,,,62,0
51960,control_change,54,0,1,,,,,,,,,0,64,127,,
51960,control_change,54,0,3,,,,,,,,,2,64,127,,
51960,note_on,0,0,3,,,,,,,,,2,,,57,36
51960,note_on,0,0,3,,,,,,,,,2,,,50,36
51960,note_on,0,0,1,,,,,,,,,0,,,66,49
51960,note_on,0,0,1,,,,,,,,,0,,,60,49
51960,note_on,0,0,1,,,,,,,,,0,,,62,49
51972,note_on,0,0,3,,,,,,,,,2,,,50,0
51972,note_on,12,0,3,,,,,,,,,2,,,57,0
51972,note_on,0,0,1,,,,,,,,,0,,,60,0
51972,note_on,0,0,1,,,,,,,,,0,,,62,0
51972,note_on,12,0,1,,,,,,,,,0,,,66,0
52080,note_on,0,0,1,,,,,,,,,0,,,66,49
52080,note_on,0,0,1,,,,,,,,,0,,,62,49
52080,note_on,108,0,3,,,,,,,,,2,,,50,36
52080,note_on,108,0,1,,,,,,,,,0,,,60,49
52080,note_on,0,0,3,,,,,,,,,2,,,57,36
52092,note_on,0,0,3,,,,,,,,,2,,,50,0
52092,note_on,12,0,1,,,,,,,,,0,,,66,0
52092,note_on,0,0,1,,,,,,,,,0,,,62,0
52092,note_on,0,0,1,,,,,,,,,0,,,60,0
52092,note_on,12,0,3,,,,,,,,,2,,,57,0
52200,note_on,0,0,1,,,,,,,,,0,,,66,62
52200,control_change,108,0,1,,,,,,,,,0,64,0,,
52200,note_on,0,0,1,,,,,,,,,0,,,62,62
52200,note_on,0,0,3,,,,,,,,,2,,,50,49
52200,note_on,0,0,3,,,,,,,,,2,,,57,49
52200,control_change,108,0,3,,,,,,,,,2,64,0,,
52200,note_on,0,0,1,,,,,,,,,0,,,74,62
52206,note_on,0,0,1,,,,,,,,,0,,,62,0
52206,note_on,0,0,1,,,,,,,,,0,,,66,0
52206,note_on,6,0,1,,,,,,,,,0,,,74,0
52206,note_on,0,0,3,,,,,,,,,2,,,50,0
52206,note_on,6,0,3,,,,,,,,,2,,,57,0
52260,note_on,0,0,3,,,,,,,,,2,,,59,49
52260,note_on,54,0,1,,,,,,,,,0,,,62,62
52260,note_on,54,0,3,,,,,,,,,2,,,50,49
52260,note_on,0,0,1,,,,,,,,,0,,,74,62
52260,note_on,0,0,1,,,,,,,,,0,,,67,62
52266,note_on,0,0,3,,,,,,,,,2,,,50,0
52266,note_on,0,0,1,,,,,,,,,0,,,62,0
52266,note_on,0,0,1,,,,,,,,,0,,,67,0
52266,note_on,6,0,1,,,,,,,,,0,,,74,0
52266,note_on,6,0,3,,,,,,,,,2,,,59,0
52320,note_on,0,0,1,,,,,,,,,0,,,62,75
52320,control_change,54,0,1,,,,,,,,,0,64,127,,
52320,note_on,0,0,1,,,,,,,,,0,,,74,75
52320,note_on,0,0,1,,,,,,,,,0,,,69,75
52320,control_change,54,0,3,,,,,,,,,2,64,127,,
52320,note_on,0,0,3,,,,,,,,,2,,,60,62
52320,note_on,0,0,3,,,,,,,,,2,,,50,62
52332,note_on,0,0,3,,,,,,,,,2,,,50,0
52332,note_on,12,0,1,,,,,,,,,0,,,74,0
52332,note_on,0,0,1,,,,,,,,,0,,,69,0
52332,note_on,0,0,1,,,,,,,,,0,,,62,0
52332,note_on,12,0,3,,,,,,,,,2,,,60,0
52440,note_on,0,0,3,,,,,,,,,2,,,60,62
52440,note_on,0,0,1,,,,,,,,,0,,,74,75
52440,note_on,108,0,1,,,,,,,,,0,,,62,75
52440,note_on,0,0,1,,,,,,,,,0,,,69,75
52440,note_on,108,0,3,,,,,,,,,2,,,50,62
52452,note_on,12,0,1,,,,,,,,,0,,,74,0
52452,note_on,0,0,1,,,,,,,,,0,,,62,0
52452,note_on,12,0,3,,,,,,,,,2,,,60,0
52452,note_on,0,0,3,,,,,,,,,2,,,50,0
52452,note_on,0,0,1,,,,,,,,,0,,,69,0
52560,control_change,108,0,1,,,,,,,,,0,64,0,,
52560,note_on,960,0,2,,,,,,,,,1,,,64,75
52560,note_on,0,0,1,,,,,,,,,0,,,76,88
52560,note_on,0,0,3,,,,,,,,,2,,,60,75
52560,note_on,0,0,3,,,,,,,,,2,,,55,75
52560,note_on,0,0,3,,,,,,,,,2,,,48,75
52560,control_change,108,0,3,,,,,,,,,2,64,0,,
52560,note_on,0,0,2,,,,,,,,,1,,,67,75
52620,note_on,60,0,1,,,,,,,,,0,,,76,0
52620,note_on,0,0,1,,,,,,,,,0,,,72,88
52680,note_on,120,0,2,,,,,,,,,1,,,67,0
52680,note_on,0,0,2,,,,,,,,,1,,,64,0
52680,note_on,0,0,1,,,,,,,,,0,,,76,114
52680,note_on,120,0,3,,,,,,,,,2,,,60,0
52680,note_on,0,0,3,,,,,,,,,2,,,55,0
52680,note_on,0,0,3,,,,,,,,,2,,,48,0
52680,note_on,0,0,3,,,,,,,,,2,,,48,75
52680,note_on,0,0,3,,,,,,,,,2,,,55,75
52680,note_on,0,0,3,,,,,,,,,2,,,60,75
52680,note_on,0,0,2,,,,,,,,,1,,,64,75
52680,note_on,0,0,1,,,,,,,,,0,,,67,106
52680,note_on,60,0,1,,,,,,,,,0,,,72,0
52920,note_on,240,0,1,,,,,,,,,0,,,76,0
52920,note_on,0,0,1,,,,,,,,,0,,,67,0
52920,note_on,0,0,1,,,,,,,,,0,,,74,49
52920,note_on,0,0,3,,,,,,,,,2,,,59,36
52920,note_on,0,0,2,,,,,,,,,1,,,65,36
52920,note_on,240,0,2,,,,,,,,,1,,,64,0
52920,note_on,0,0,2,,,,,,,,,1,,,67,36
52920,note_on,240,0,3,,,,,,,,,2,,,60,0
52920,note_on,0,0,3,,,,,,,,,2,,,55,0
52920,note_on,0,0,3,,,,,,,,,2,,,55,36
52920,note_on,0,0,3,,,,,,,,,2,,,48,0
52920,note_on,0,0,3,,,,,,,,,2,,,50,36
52980,note_on,0,0,1,,,,,,,,,0,,,71,49
52980,note_on,60,0,1,,,,,,,,,0,,,74,0
53040,control_change,0,0,2,,,,,,,,,1,64,127,,
53040,note_on,60,0,1,,,,,,,,,0,,,71,0
53040,control_change,0,0,1,,,,,,,,,0,64,127,,
53040,note_on,120,0,2,,,,,,,,,1,,,67,0
53040,note_on,0,0,1,,,,,,,,,0,,,79,49
53040,note_on,0,0,2,,,,,,,,,1,,,67,36
53040,note_on,0,0,2,,,,,,,,,1,,,65,0
53040,note_on,0,0,3,,,,,,,,,2,,,60,36
53040,note_on,0,0,3,,,,,,,,,2,,,55,36
53040,note_on,0,0,3,,,,,,,,,2,,,52,36
53040,control_change,0,0,3,,,,,,,,,2,64,127,,
53040,note_on,0,0,3,,,,,,,,,2,,,50,0
53040,note_on,0,0,3,,,,,,,,,2,,,55,0
53040,note_on,120,0,3,,,,,,,,,2,,,59,0
53052,note_on,0,0,3,,,,,,,,,2,,,52,0
53052,note_on,0,0,3,,,,,,,,,2,,,55,0
53052,note_on,12,0,3,,,,,,,,,2,,,60,0
53052,note_on,12,0,1,,,,,,,,,0,,,79,0
53052,note_on,12,0,2,,,,,,,,,1,,,67,0
53160,note_on,108,0,1,,,,,,,,,0,,,79,49
53160,note_on,0,0,3,,,,,,,,,2,,,55,36
53160,note_on,0,0,3,,,,,,,,,2,,,60,36
53160,control_change,108,0,2,,,,,,,,,1,64,0,,
53160,note_on,108,0,3,,,,,,,,,2,,,52,36
53160,note_on,0,0,2,,,,,,,,,1,,,67,36
53172,note_on,12,0,2,,,,,,,,,1,,,67,0
53172,note_on,0,0,3,,,,,,,,,2,,,52,0
53172,note_on,0,0,3,,,,,,,,,2,,,55,0
53172,note_on,12,0,1,,,,,,,,,0,,,79,0
53172,note_on,12,0,3,,,,,,,,,2,,,60,0
53280,note_on,0,0,1,,,,,,,,,0,,,88,49
53280,control_change,108,0,1,,,,,,,,,0,64,0,,
53280,note_on,0,0,3,,,,,,,,,2,,,72,36
53280,control_change,108,0,3,,,,,,,,,2,64,0,,
53340,note_on,60,0,1,,,,,,,,,0,,,88,0
53340,note_on,0,0,1,,,,,,,,,0,,,84,49
53340,note_on,0,0,3,,,,,,,,,2,,,69,36
53340,note_on,60,0,3,,,,,,,,,2,,,72,0
53400,control_change,0,0,1,,,,,,,,,0,64,127,,
53400,note_on,0,0,1,,,,,,,,,0,,,88,75
53400,note_on,60,0,3,,,,,,,,,2,,,69,0
53400,note_on,0,0,3,,,,,,,,,2,,,72,88
53400,control_change,0,0,3,,,,,,,,,2,64,127,,
53400,note_on,60,0,1,,,,,,,,,0,,,84,0
53580,note_on,0,0,3,,,,,,,,,2,,,69,36
53580,note_on,180,0,3,,,,,,,,,2,,,72,0
53580,note_on,180,0,1,,,,,,,,,0,,,88,0
53580,note_on,0,0,1,,,,,,,,,0,,,84,49
53640,note_on,0,0,3,,,,,,,,,2,,,71,36
53640,note_on,60,0,3,,,,,,,,,2,,,69,0
53640,note_on,60,0,1,,,,,,,,,0,,,84,0
53640,note_on,0,0,1,,,,,,,,,0,,,86,49
53700,note_on,0,0,1,,,,,,,,,0,,,88,49
53700,control_change,0,0,1,,,,,,,,,0,64,0,,
53700,note_on,60,0,1,,,,,,,,,0,,,86,0
53700,control_change,0,0,3,,,,,,,,,2,64,0,,
53700,note_on,60,0,3,,,,,,,,,2,,,71,0
53700,note_on,0,0,3,,,,,,,,,2,,,72,36
53760,note_on,60,0,1,,,,,,,,,0,,,88,0
53760,control_change,0,0,1,,,,,,,,,0,64,127,,
53760,control_change,0,0,3,,,,,,,,,2,64,127,,
53760,note_on,60,0,3,,,,,,,,,2,,,72,0
53760,note_on,0,0,3,,,,,,,,,2,,,66,36
53760,note_on,588,0,2,,,,,,,,,1,,,74,36
53760,note_on,0,0,1,,,,,,,,,0,,,81,49
53772,note_on,12,0,1,,,,,,,,,0,,,81,0
53772,note_on,12,0,3,,,,,,,,,2,,,66,0
53880,note_on,108,0,1,,,,,,,,,0,,,81,49
53880,note_on,108,0,3,,,,,,,,,2,,,66,36
53892,note_on,12,0,1,,,,,,,,,0,,,81,0
53892,note_on,12,0,3,,,,,,,,,2,,,66,0
53940,note_on,180,0,2,,,,,,,,,1,,,74,0
53940,note_on,0,0,2,,,,,,,,,1,,,76,36
54000,note_on,60,0,2,,,,,,,,,1,,,76,0
54000,control_change,108,0,3,,,,,,,,,2,64,0,,
54000,control_change,108,0,1,,,,,,,,,0,64,0,,
54000,note_on,0,0,2,,,,,,,,,1,,,74,36
54060,note_on,0,0,2,,,,,,,,,1,,,72,36
54060,note_on,60,0,2,,,,,,,,,1,,,74,0
54120,control_change,5040,0,4,,,,,,,,,3,64,127,,
54120,note_on,0,0,3,,,,,,,,,2,,,74,62
54120,control_change,120,0,3,,,,,,,,,2,64,127,,
54120,note_on,0,0,4,,,,,,,,,3,,,71,36
54120,note_on,0,0,1,,,,,,,,,0,,,90,75
54120,note_on,60,0,2,,,,,,,,,1,,,72,0
54120,control_change,120,0,1,,,,,,,,,0,64,127,,
54132,note_on,12,0,4,,,,,,,,,3,,,71,0
54240,note_on,108,0,4,,,,,,,,,3,,,71,36
54252,note_on,12,0,4,,,,,,,,,3,,,71,0
54300,note_on,180,0,1,,,,,,,,,0,,,90,0
54300,note_on,0,0,1,,,,,,,,,0,,,86,49
54300,note_on,180,0,3,,,,,,,,,2,,,74,0
54300,note_on,0,0,3,,,,,,,,,2,,,71,36
54360,note_on,60,0,1,,,,,,,,,0,,,86,0
54360,note_on,0,0,1,,,,,,,,,0,,,88,49
54360,note_on,0,0,3,,,,,,,,,2,,,72,36
54360,control_change,108,0,4,,,,,,,,,3,64,0,,
54360,note_on,60,0,3,,,,,,,,,2,,,71,0
54420,note_on,60,0,3,,,,,,,,,2,,,72,0
54420,control_change,0,0,3,,,,,,,,,2,64,0,,
54420,note_on,0,0,1,,,,,,,,,0,,,90,49
54420,note_on,60,0,1,,,,,,,,,0,,,88,0
54420,note_on,0,0,3,,,,,,,,,2,,,74,36
54420,control_change,0,0,1,,,,,,,,,0,64,0,,
54480,note_on,60,0,1,,,,,,,,,0,,,90,0
54480,control_change,0,0,1,,,,,,,,,0,64,127,,
54480,note_on,0,0,1,,,,,,,,,0,,,83,62
54480,control_change,360,0,2,,,,,,,,,1,64,127,,
54480,control_change,0,0,3,,,,,,,,,2,64,127,,
54480,note_on,0,0,3,,,,,,,,,2,,,67,62
54480,note_on,0,0,2,,,,,,,,,1,,,76,62
54480,note_on,60,0,3,,,,,,,,,2,,,74,0
54492,note_on,12,0,1,,,,,,,,,0,,,83,0
54492,note_on,12,0,3,,,,,,,,,2,,,67,0
54600,note_on,108,0,1,,,,,,,,,0,,,83,62
54600,note_on,108,0,3,,,,,,,,,2,,,67,62
54612,note_on,12,0,1,,,,,,,,,0,,,83,0
54612,note_on,12,0,3,,,,,,,,,2,,,67,0
54660,note_on,180,0,2,,,,,,,,,1,,,76,0
54660,note_on,0,0,2,,,,,,,,,1,,,78,62
54720,control_change,108,0,3,,,,,,,,,2,64,0,,
54720,note_on,60,0,2,,,,,,,,,1,,,78,0
54720,note_on,0,0,2,,,,,,,,,1,,,76,62
54720,control_change,108,0,1,,,,,,,,,0,64,0,,
54780,control_change,0,0,2,,,,,,,,,1,64,0,,
54780,note_on,60,0,2,,,,,,,,,1,,,76,0
54780,note_on,0,0,2,,,,,,,,,1,,,74,62
54840,note_on,0,0,1,,,,,,,,,0,,,91,101
54840,control_change,120,0,1,,,,,,,,,0,64,127,,
54840,note_on,60,0,2,,,,,,,,,1,,,74,0
54840,control_change,480,0,4,,,,,,,,,3,64,127,,
54840,note_on,0,0,3,,,,,,,,,2,,,76,101
54840,control_change,120,0,3,,,,,,,,,2,64,127,,
54840,note_on,0,0,4,,,,,,,,,3,,,72,75
54852,note_on,12,0,4,,,,,,,,,3,,,72,0
54960,note_on,108,0,4,,,,,,,,,3,,,72,75
54972,note_on,12,0,4,,,,,,,,,3,,,72,0
55020,note_on,180,0,1,,,,,,,,,0,,,91,0
55020,note_on,0,0,1,,,,,,,,,0,,,88,75
55020,note_on,0,0,3,,,,,,,,,2,,,72,75
55020,note_on,180,0,3,,,,,,,,,2,,,76,0
55080,note_on,60,0,3,,,,,,,,,2,,,72,0
55080,note_on,0,0,3,,,,,,,,,2,,,74,75
55080,note_on,60,0,1,,,,,,,,,0,,,88,0
55080,note_on,0,0,1,,,,,,,,,0,,,90,75
55080,control_change,108,0,4,,,,,,,,,3,64,0,,
55140,note_on,0,0,3,,,,,,,,,2,,,76,75
55140,control_change,0,0,1,,,,,,,,,0,64,0,,
55140,note_on,60,0,1,,,,,,,,,0,,,90,0
55140,note_on,60,0,3,,,,,,,,,2,,,74,0
55140,control_change,0,0,3,,,,,,,,,2,64,0,,
55140,note_on,0,0,1,,,,,,,,,0,,,91,75
55200,note_on,60,0,1,,,,,,,,,0,,,91,0
55200,control_change,0,0,1,,,,,,,,,0,64,127,,
55200,note_on,0,0,1,,,,,,,,,0,,,84,75
55200,note_on,0,0,4,,,,,,,,,3,,,57,101
55200,control_change,120,0,4,,,,,,,,,3,64,127,,
55200,note_on,60,0,3,,,,,,,,,2,,,76,0
55200,control_change,0,0,3,,,,,,,,,2,64,127,,
55200,note_on,0,0,3,,,,,,,,,2,,,69,75
55212,note_on,12,0,1,,,,,,,,,0,,,84,0
55212,note_on,12,0,3,,,,,,,,,2,,,69,0
55320,note_on,108,0,3,,,,,,,,,2,,,69,75
55320,note_on,108,0,1,,,,,,,,,0,,,84,75
55332,note_on,12,0,3,,,,,,,,,2,,,69,0
55332,note_on,12,0,1,,,,,,,,,0,,,84,0
55380,note_on,180,0,4,,,,,,,,,3,,,57,0
55380,note_on,0,0,4,,,,,,,,,3,,,59,75
55440,control_change,108,0,3,,,,,,,,,2,64,0,,
55440,note_on,60,0,4,,,,,,,,,3,,,59,0
55440,note_on,0,0,4,,,,,,,,,3,,,60,75
55440,control_change,108,0,1,,,,,,,,,0,64,0,,
55500,note_on,0,0,4,,,,,,,,,3,,,61,75
55500,control_change,0,0,4,,,,,,,,,3,64,0,,
55500,note_on,60,0,4,,,,,,,,,3,,,60,0
55560,note_on,0,0,4,,,,,,,,,3,,,62,49
55560,control_change,0,0,4,,,,,,,,,3,64,127,,
55560,note_on,60,0,4,,,,,,,,,3,,,61,0
55560,note_on,0,0,3,,,,,,,,,2,,,67,75
55560,control_change,120,0,3,,,,,,,,,2,64,127,,
55560,note_on,0,0,1,,,,,,,,,0,,,83,75
55560,control_change,120,0,1,,,,,,,,,0,64,127,,
55572,note_on,12,0,4,,,,,,,,,3,,,62,0
55680,note_on,108,0,4,,,,,,,,,3,,,62,49
55692,note_on,12,0,4,,,,,,,,,3,,,62,0
55740,note_on,180,0,1,,,,,,,,,0,,,83,0
55740,note_on,180,0,3,,,,,,,,,2,,,67,0
55740,note_on,0,0,3,,,,,,,,,2,,,64,49
55740,note_on,0,0,1,,,,,,,,,0,,,79,49
55800,note_on,0,0,1,,,,,,,,,0,,,81,49
55800,note_on,60,0,3,,,,,,,,,2,,,64,0
55800,control_change,108,0,4,,,,,,,,,3,64,0,,
55800,note_on,60,0,1,,,,,,,,,0,,,79,0
55800,note_on,0,0,3,,,,,,,,,2,,,66,49
55860,control_change,0,0,1,,,,,,,,,0,64,0,,
55860,note_on,60,0,3,,,,,,,,,2,,,66,0
55860,control_change,0,0,3,,,,,,,,,2,64,0,,
55860,note_on,0,0,3,,,,,,,,,2,,,67,49
55860,note_on,0,0,1,,,,,,,,,0,,,83,49
55860,note_on,60,0,1,,,,,,,,,0,,,81,0
55920,note_on,60,0,3,,,,,,,,,2,,,67,0
55920,control_change,0,0,3,,,,,,,,,2,64,127,,
55920,note_on,0,0,3,,,,,,,,,2,,,69,88
55920,note_on,0,0,4,,,,,,,,,3,,,62,62
55920,control_change,120,0,4,,,,,,,,,3,64,127,,
55920,note_on,0,0,1,,,,,,,,,0,,,84,88
55920,control_change,0,0,1,,,,,,,,,0,64,127,,
55920,note_on,60,0,1,,,,,,,,,0,,,83,0
55932,note_on,12,0,4,,,,,,,,,3,,,62,0
56040,note_on,108,0,4,,,,,,,,,3,,,62,62
56052,note_on,12,0,4,,,,,,,,,3,,,62,0
56100,note_on,0,0,3,,,,,,,,,2,,,66,62
56100,note_on,0,0,1,,,,,,,,,0,,,81,62
56100,note_on,180,0,1,,,,,,,,,0,,,84,0
56100,note_on,180,0,3,,,,,,,,,2,,,69,0
56160,note_on,0,0,3,,,,,,,,,2,,,67,62
56160,control_change,108,0,4,,,,,,,,,3,64,0,,
56160,note_on,60,0,3,,,,,,,,,2,,,66,0
56160,note_on,0,0,1,,,,,,,,,0,,,83,62
56160,note_on,60,0,1,,,,,,,,,0,,,81,0
56220,note_on,0,0,1,,,,,,,,,0,,,84,62
56220,control_change,0,0,1,,,,,,,,,0,64,0,,
56220,note_on,60,0,3,,,,,,,,,2,,,67,0
56220,note_on,0,0,3,,,,,,,,,2,,,69,62
56220,control_change,0,0,3,,,,,,,,,2,64,0,,
56220,note_on,60,0,1,,,,,,,,,0,,,83,0
56280,control_change,0,0,3,,,,,,,,,2,64,127,,
56280,note_on,60,0,3,,,,,,,,,2,,,69,0
56280,note_on,60,0,1,,,,,,,,,0,,,84,0
56280,control_change,0,0,1,,,,,,,,,0,64,127,,
56280,note_on,0,0,4,,,,,,,,,3,,,62,88
56280,control_change,120,0,4,,,,,,,,,3,64,127,,
56280,note_on,0,0,1,,,,,,,,,0,,,86,62
56280,note_on,0,0,3,,,,,,,,,2,,,71,62
56292,note_on,12,0,3,,,,,,,,,2,,,71,0
56292,note_on,12,0,1,,,,,,,,,0,,,86,0
56400,note_on,108,0,1,,,,,,,,,0,,,86,62
56400,note_on,108,0,3,,,,,,,,,2,,,71,62
56412,note_on,12,0,1,,,,,,,,,0,,,86,0
56412,note_on,12,0,3,,,,,,,,,2,,,71,0
56460,note_on,180,0,4,,,,,,,,,3,,,62,0
56460,note_on,0,0,4,,,,,,,,,3,,,64,62
56520,control_change,108,0,1,,,,,,,,,0,64,0,,
56520,note_on,60,0,4,,,,,,,,,3,,,64,0
56520,note_on,0,0,4,,,,,,,,,3,,,66,62
56520,control_change,108,0,3,,,,,,,,,2,64,0,,
56580,note_on,60,0,4,,,,,,,,,3,,,66,0
56580,control_change,0,0,4,,,,,,,,,3,64,0,,
56580,note_on,0,0,4,,,,,,,,,3,,,67,62
56640,note_on,0,0,3,,,,,,,,,2,,,72,75
56640,note_on,0,0,3,,,,,,,,,2,,,69,75
56640,control_change,120,0,3,,,,,,,,,2,64,127,,
56640,note_on,60,0,4,,,,,,,,,3,,,67,0
56640,control_change,1800,0,2,,,,,,,,,1,64,127,,
56640,note_on,0,0,2,,,,,,,,,1,,,74,75
56640,control_change,120,0,1,,,,,,,,,0,64,127,,
56640,note_on,0,0,1,,,,,,,,,0,,,86,101
56652,note_on,12,0,3,,,,,,,,,2,,,72,0
56652,note_on,0,0,3,,,,,,,,,2,,,69,0
56700,note_on,60,0,2,,,,,,,,,1,,,74,0
56700,note_on,0,0,2,,,,,,,,,1,,,76,75
56760,note_on,108,0,3,,,,,,,,,2,,,69,75
56760,note_on,0,0,3,,,,,,,,,2,,,72,75
56760,note_on,0,0,2,,,,,,,,,1,,,77,75
56760,control_change,0,0,2,,,,,,,,,1,64,0,,
56760,note_on,60,0,2,,,,,,,,,1,,,76,0
56772,note_on,0,0,3,,,,,,,,,2,,,69,0
56772,note_on,12,0,3,,,,,,,,,2,,,72,0
56820,note_on,180,0,1,,,,,,,,,0,,,86,0
56820,note_on,0,0,1,,,,,,,,,0,,,78,75
56820,note_on,0,0,1,,,,,,,,,0,,,87,75
56820,note_on,60,0,2,,,,,,,,,1,,,77,0
56880,control_change,108,0,3,,,,,,,,,2,64,0,,
56880,note_on,0,0,1,,,,,,,,,0,,,88,75
56880,note_on,0,0,1,,,,,,,,,0,,,79,75
56880,note_on,0,0,1,,,,,,,,,0,,,78,0
56880,note_on,60,0,1,,,,,,,,,0,,,87,0
56940,note_on,60,0,1,,,,,,,,,0,,,88,0
56940,note_on,0,0,1,,,,,,,,,0,,,79,0
56940,note_on,0,0,1,,,,,,,,,0,,,81,75
56940,note_on,0,0,1,,,,,,,,,0,,,90,75
56940,control_change,0,0,1,,,,,,,,,0,64,0,,
57000,note_on,60,0,1,,,,,,,,,0,,,90,0
57000,note_on,0,0,1,,,,,,,,,0,,,81,0
57000,note_on,0,0,1,,,,,,,,,0,,,82,88
57000,control_change,0,0,1,,,,,,,,,0,64,127,,
57000,control_change,120,0,3,,,,,,,,,2,64,127,,
57000,note_on,0,0,3,,,,,,,,,2,,,73,88
57000,note_on,0,0,3,,,,,,,,,2,,,76,88
57000,note_on,0,0,1,,,,,,,,,0,,,91,88
57012,note_on,12,0,3,,,,,,,,,2,,,76,0
57012,note_on,0,0,3,,,,,,,,,2,,,73,0
57012,note_on,12,0,1,,,,,,,,,0,,,91,0
57012,note_on,0,0,1,,,,,,,,,0,,,82,0
57120,note_on,0,0,3,,,,,,,,,2,,,76,88
57120,note_on,108,0,3,,,,,,,,,2,,,73,88
57120,note_on,0,0,1,,,,,,,,,0,,,91,88
57120,note_on,108,0,1,,,,,,,,,0,,,82,88
57132,note_on,0,0,1,,,,,,,,,0,,,82,0
57132,note_on,12,0,3,,,,,,,,,2,,,76,0
57132,note_on,12,0,1,,,,,,,,,0,,,91,0
57132,note_on,0,0,3,,,,,,,,,2,,,73,0
57240,control_change,108,0,3,,,,,,,,,2,64,0,,
57240,control_change,108,0,1,,,,,,,,,0,64,0,,
57720,control_change,1080,0,4,,,,,,,,,3,64,127,,
57720,note_on,0,0,4,,,,,,,,,3,,,50,36
57720,control_change,480,0,1,,,,,,,,,0,64,127,,
57720,note_on,0,0,1,,,,,,,,,0,,,74,36
57720,note_on,0,0,3,,,,,,,,,2,,,59,36
57720,control_change,480,0,3,,,,,,,,,2,64,127,,
57732,note_on,12,0,4,,,,,,,,,3,,,50,0
57840,note_on,108,0,4,,,,,,,,,3,,,50,36
57852,note_on,12,0,4,,,,,,,,,3,,,50,0
57900,note_on,180,0,1,,,,,,,,,0,,,74,0
57900,note_on,0,0,1,,,,,,,,,0,,,72,36
57960,control_change,0,0,3,,,,,,,,,2,64,0,,
57960,note_on,0,0,1,,,,,,,,,0,,,71,36
57960,control_change,0,0,1,,,,,,,,,0,64,0,,
57960,note_on,60,0,1,,,,,,,,,0,,,72,0
57960,note_on,240,0,3,,,,,,,,,2,,,59,0
57960,control_change,108,0,4,,,,,,,,,3,64,0,,
57960,note_on,0,0,3,,,,,,,,,2,,,60,36
58020,note_on,60,0,1,,,,,,,,,0,,,71,0
58020,note_on,0,0,1,,,,,,,,,0,,,69,36
58080,control_change,0,0,3,,,,,,,,,2,64,127,,
58080,note_on,0,0,3,,,,,,,,,2,,,62,36
58080,note_on,60,0,1,,,,,,,,,0,,,69,0
58080,control_change,1260,0,2,,,,,,,,,1,64,127,,
58080,control_change,120,0,4,,,,,,,,,3,64,127,,
58080,note_on,120,0,3,,,,,,,,,2,,,60,0
58080,note_on,0,0,2,,,,,,,,,1,,,65,36
58080,note_on,0,0,4,,,,,,,,,3,,,50,36
58080,note_on,0,0,1,,,,,,,,,0,,,68,36
58080,control_change,0,0,1,,,,,,,,,0,64,127,,
58092,note_on,12,0,4,,,,,,,,,3,,,50,0
58092,note_on,12,0,1,,,,,,,,,0,,,68,0
58200,note_on,108,0,1,,,,,,,,,0,,,68,36
58200,note_on,108,0,4,,,,,,,,,3,,,50,36
58212,note_on,12,0,1,,,,,,,,,0,,,68,0
58212,note_on,12,0,4,,,,,,,,,3,,,50,0
58260,note_on,0,0,2,,,,,,,,,1,,,64,36
58260,note_on,180,0,2,,,,,,,,,1,,,65,0
58320,control_change,108,0,1,,,,,,,,,0,64,0,,
58320,note_on,0,0,3,,,,,,,,,2,,,59,36
58320,note_on,60,0,2,,,,,,,,,1,,,64,0
58320,note_on,240,0,3,,,,,,,,,2,,,62,0
58320,control_change,0,0,3,,,,,,,,,2,64,0,,
58320,control_change,0,0,2,,,,,,,,,1,64,0,,
58320,note_on,0,0,2,,,,,,,,,1,,,63,36
58320,control_change,108,0,4,,,,,,,,,3,64,0,,
58380,note_on,60,0,2,,,,,,,,,1,,,63,0
58380,note_on,0,0,2,,,,,,,,,1,,,62,36
58440,control_change,120,0,4,,,,,,,,,3,64,127,,
58440,note_on,0,0,1,,,,,,,,,0,,,72,36
58440,control_change,120,0,1,,,,,,,,,0,64,127,,
58440,note_on,0,0,4,,,,,,,,,3,,,50,36
58440,control_change,0,0,3,,,,,,,,,2,64,127,,
58440,note_on,120,0,3,,,,,,,,,2,,,59,0
58440,note_on,60,0,2,,,,,,,,,1,,,62,0
58440,control_change,0,0,2,,,,,,,,,1,64,127,,
58440,note_on,0,0,2,,,,,,,,,1,,,60,36
58440,note_on,0,0,3,,,,,,,,,2,,,57,36
58452,note_on,12,0,4,,,,,,,,,3,,,50,0
58452,note_on,12,0,2,,,,,,,,,1,,,60,0
58560,note_on,108,0,2,,,,,,,,,1,,,60,36
58560,note_on,108,0,4,,,,,,,,,3,,,50,36
58572,note_on,12,0,4,,,,,,,,,3,,,50,0
58572,note_on,12,0,2,,,,,,,,,1,,,60,0
58620,note_on,0,0,1,,,,,,,,,0,,,71,36
58620,note_on,180,0,1,,,,,,,,,0,,,72,0
58680,control_change,108,0,4,,,,,,,,,3,64,0,,
58680,control_change,108,0,2,,,,,,,,,1,64,0,,
58680,note_on,240,0,3,,,,,,,,,2,,,57,0
58680,control_change,0,0,3,,,,,,,,,2,64,0,,
58680,note_on,0,0,3,,,,,,,,,2,,,59,36
58680,note_on,60,0,1,,,,,,,,,0,,,71,0
58680,control_change,0,0,1,,,,,,,,,0,64,0,,
58680,note_on,0,0,1,,,,,,,,,0,,,69,36
58740,note_on,0,0,1,,,,,,,,,0,,,67,36
58740,note_on,60,0,1,,,,,,,,,0,,,69,0
58800,note_on,0,0,2,,,,,,,,,1,,,63,36
58800,control_change,120,0,2,,,,,,,,,1,64,127,,
58800,note_on,120,0,3,,,,,,,,,2,,,59,0
58800,control_change,0,0,3,,,,,,,,,2,64,127,,
58800,note_on,0,0,3,,,,,,,,,2,,,60,36
58800,note_on,0,0,4,,,,,,,,,3,,,50,36
58800,control_change,120,0,4,,,,,,,,,3,64,127,,
58800,note_on,60,0,1,,,,,,,,,0,,,67,0
58800,control_change,0,0,1,,,,,,,,,0,64,127,,
58800,note_on,0,0,1,,,,,,,,,0,,,66,36
58812,note_on,12,0,4,,,,,,,,,3,,,50,0
58812,note_on,12,0,1,,,,,,,,,0,,,66,0
58920,note_on,108,0,1,,,,,,,,,0,,,66,36
58920,note_on,108,0,4,,,,,,,,,3,,,50,36
58932,note_on,12,0,4,,,,,,,,,3,,,50,0
58932,note_on,12,0,1,,,,,,,,,0,,,66,0
58980,note_on,0,0,2,,,,,,,,,1,,,62,36
58980,note_on,180,0,2,,,,,,,,,1,,,63,0
59040,note_on,60,0,2,,,,,,,,,1,,,62,0
59040,note_on,0,0,2,,,,,,,,,1,,,61,36
59040,control_change,0,0,2,,,,,,,,,1,64,0,,
59040,note_on,240,0,3,,,,,,,,,2,,,60,0
59040,control_change,0,0,3,,,,,,,,,2,64,0,,
59040,control_change,108,0,4,,,,,,,,,3,64,0,,
59040,control_change,108,0,1,,,,,,,,,0,64,0,,
59040,note_on,0,0,3,,,,,,,,,2,,,57,36
59100,note_on,0,0,2,,,,,,,,,1,,,60,36
59100,note_on,60,0,2,,,,,,,,,1,,,61,0
59160,note_on,0,0,1,,,,,,,,,0,,,67,88
59160,control_change,120,0,1,,,,,,,,,0,64,127,,
59160,note_on,120,0,3,,,,,,,,,2,,,57,0
59160,control_change,0,0,3,,,,,,,,,2,64,127,,
59160,note_on,0,0,3,,,,,,,,,2,,,52,75
59160,note_on,60,0,2,,,,,,,,,1,,,60,0
59160,note_on,0,0,1,,,,,,,,,0,,,59,88
59172,note_on,12,0,3,,,,,,,,,2,,,52,0
59172,note_on,12,0,1,,,,,,,,,0,,,67,0
59172,note_on,0,0,1,,,,,,,,,0,,,59,0
59280,note_on,0,0,1,,,,,,,,,0,,,69,88
59280,note_on,0,0,1,,,,,,,,,0,,,67,88
59280,note_on,108,0,3,,,,,,,,,2,,,48,75
59280,note_on,108,0,1,,,,,,,,,0,,,64,88
59292,note_on,12,0,3,,,,,,,,,2,,,48,0
59292,note_on,12,0,1,,,,,,,,,0,,,69,0
59292,note_on,0,0,1,,,,,,,,,0,,,67,0
59292,note_on,0,0,1,,,,,,,,,0,,,64,0
59400,note_on,0,0,3,,,,,,,,,2,,,50,75
59400,control_change,108,0,1,,,,,,,,,0,64,0,,
59400,note_on,0,0,1,,,,,,,,,0,,,62,88
59400,note_on,0,0,1,,,,,,,,,0,,,66,88
59400,note_on,0,0,1,,,,,,,,,0,,,71,88
59400,control_change,108,0,3,,,,,,,,,2,64,0,,
59412,note_on,0,0,1,,,,,,,,,0,,,62,0
59412,note_on,0,0,1,,,,,,,,,0,,,66,0
59412,note_on,12,0,1,,,,,,,,,0,,,71,0
59412,note_on,12,0,3,,,,,,,,,2,,,50,0
59520,note_on,0,0,3,,,,,,,,,2,,,59,75
59520,note_on,0,0,3,,,,,,,,,2,,,55,75
59520,control_change,108,0,3,,,,,,,,,2,64,127,,
59520,control_change,108,0,1,,,,,,,,,0,64,127,,
59520,note_on,0,0,1,,,,,,,,,0,,,67,88
59520,note_on,0,0,1,,,,,,,,,0,,,71,88
59520,note_on,0,0,1,,,,,,,,,0,,,62,88
59532,note_on,12,0,3,,,,,,,,,2,,,59,0
59532,note_on,0,0,3,,,,,,,,,2,,,55,0
59640,note_on,0,0,1,,,,,,,,,0,,,67,0
59640,note_on,120,0,1,,,,,,,,,0,,,71,0
59640,control_change,108,0,3,,,,,,,,,2,64,0,,
59640,note_on,0,0,1,,,,,,,,,0,,,62,0
59640,note_on,0,0,1,,,,,,,,,0,,,74,88
59700,note_on,0,0,1,,,,,,,,,0,,,71,88
59700,note_on,60,0,1,,,,,,,,,0,,,74,0
59760,note_on,60,0,1,,,,,,,,,0,,,71,0
59760,control_change,0,0,1,,,,,,,,,0,64,0,,
59760,note_on,0,0,1,,,,,,,,,0,,,74,88
59880,note_on,0,0,3,,,,,,,,,2,,,52,36
59880,note_on,0,0,1,,,,,,,,,0,,,67,49
59880,control_change,240,0,3,,,,,,,,,2,64,127,,
59880,control_change,0,0,1,,,,,,,,,0,64,127,,
59880,note_on,120,0,1,,,,,,,,,0,,,74,0
59880,note_on,0,0,1,,,,,,,,,0,,,59,49
59892,note_on,12,0,1,,,,,,,,,0,,,67,0
59892,note_on,0,0,1,,,,,,,,,0,,,59,0
59892,note_on,12,0,3,,,,,,,,,2,,,52,0
60000,note_on,108,0,1,,,,,,,,,0,,,64,49
60000,note_on,0,0,1,,,,,,,,,0,,,67,49
60000,note_on,0,0,1,,,,,,,,,0,,,69,49
60000,note_on,108,0,3,,,,,,,,,2,,,48,36
60012,note_on,12,0,3,,,,,,,,,2,,,48,0
60012,note_on,12,0,1,,,,,,,,,0,,,69,0
60012,note_on,0,0,1,,,,,,,,,0,,,64,0
60012,note_on,0,0,1,,,,,,,,,0,,,67,0
60120,note_on,0,0,1,,,,,,,,,0,,,71,49
60120,note_on,0,0,1,,,,,,,,,0,,,66,49
60120,note_on,108,0,3,,,,,,,,,2,,,50,36
60120,note_on,108,0,1,,,,,,,,,0,,,62,49
60132,note_on,0,0,1,,,,,,,,,0,,,62,0
60132,note_on,12,0,1,,,,,,,,,0,,,71,0
60132,note_on,0,0,1,,,,,,,,,0,,,66,0
60132,note_on,12,0,3,,,,,,,,,2,,,50,0
60240,control_change,108,0,1,,,,,,,,,0,64,0,,
60240,note_on,0,0,1,,,,,,,,,0,,,59,49
60240,note_on,0,0,1,,,,,,,,,0,,,67,49
60240,note_on,0,0,3,,,,,,,,,2,,,43,36
60240,control_change,108,0,3,,,,,,,,,2,64,0,,
60252,note_on,12,0,1,,,,,,,,,0,,,67,0
60252,note_on,0,0,1,,,,,,,,,0,,,59,0
60252,note_on,12,0,3,,,,,,,,,2,,,43,0
60600,note_on,1560,0,4,,,,,,,,,3,,,50,36
60600,note_on,0,0,2,,,,,,,,,1,,,66,49
60600,control_change,1440,0,2,,,,,,,,,1,64,127,,
60600,note_on,348,0,3,,,,,,,,,2,,,50,36
60600,note_on,348,0,1,,,,,,,,,0,,,69,62
60600,key_signature,10920,1,0,,,,,D,,,,,,,,
60660,note_on,60,0,2,,,,,,,,,1,,,66,0
60660,note_on,0,0,2,,,,,,,,,1,,,65,49
60720,note_on,0,0,2,,,,,,,,,1,,,66,49
60720,note_on,60,0,2,,,,,,,,,1,,,65,0
60780,note_on,60,0,2,,,,,,,,,1,,,66,0
60780,note_on,0,0,2,,,,,,,,,1,,,62,49
60840,note_on,0,0,3,,,,,,,,,2,,,47,36
60840,note_on,240,0,3,,,,,,,,,2,,,50,0
60840,note_on,240,0,1,,,,,,,,,0,,,69,0
60840,note_on,0,0,1,,,,,,,,,0,,,71,62
60840,note_on,60,0,2,,,,,,,,,1,,,62,0
60840,control_change,0,0,2,,,,,,,,,1,64,0,,
60840,note_on,0,0,2,,,,,,,,,1,,,67,49
60900,note_on,0,0,3,,,,,,,,,2,,,49,36
60900,note_on,60,0,3,,,,,,,,,2,,,47,0
60900,note_on,60,0,2,,,,,,,,,1,,,67,0
60900,note_on,0,0,2,,,,,,,,,1,,,64,49
60960,note_on,60,0,2,,,,,,,,,1,,,64,0
60960,note_on,0,0,1,,,,,,,,,0,,,69,62
60960,control_change,0,0,1,,,,,,,,,0,64,127,,
60960,note_on,120,0,1,,,,,,,,,0,,,71,0
60960,control_change,0,0,2,,,,,,,,,1,64,127,,
60960,note_on,0,0,2,,,,,,,,,1,,,66,49
60960,note_on,60,0,3,,,,,,,,,2,,,49,0
60960,note_on,0,0,3,,,,,,,,,2,,,50,36
61020,note_on,60,0,2,,,,,,,,,1,,,66,0
61020,note_on,0,0,2,,,,,,,,,1,,,65,49
61080,note_on,60,0,2,,,,,,,,,1,,,65,0
61080,note_on,0,0,2,,,,,,,,,1,,,66,49
61140,note_on,60,0,2,,,,,,,,,1,,,66,0
61140,note_on,0,0,2,,,,,,,,,1,,,62,49
61200,control_change,0,0,2,,,,,,,,,1,64,0,,
61200,note_on,0,0,1,,,,,,,,,0,,,67,62
61200,control_change,0,0,1,,,,,,,,,0,64,0,,
61200,note_on,0,0,2,,,,,,,,,1,,,59,49
61200,note_on,240,0,1,,,,,,,,,0,,,69,0
61200,note_on,60,0,2,,,,,,,,,1,,,62,0
61260,note_on,0,0,2,,,,,,,,,1,,,61,49
61260,note_on,60,0,2,,,,,,,,,1,,,59,0
61320,note_on,120,0,1,,,,,,,,,0,,,67,0
61320,note_on,360,0,3,,,,,,,,,2,,,50,0
61320,note_on,0,0,3,,,,,,,,,2,,,50,36
61320,control_change,0,0,2,,,,,,,,,1,64,127,,
61320,note_on,60,0,2,,,,,,,,,1,,,61,0
61320,note_on,720,0,4,,,,,,,,,3,,,50,0
61320,note_on,0,0,2,,,,,,,,,1,,,62,49
61320,note_on,0,0,4,,,,,,,,,3,,,50,36
61320,control_change,0,0,1,,,,,,,,,0,64,127,,
61320,note_on,0,0,1,,,,,,,,,0,,,66,62
61380,note_on,60,0,2,,,,,,,,,1,,,62,0
61380,note_on,0,0,2,,,,,,,,,1,,,61,49
61440,note_on,0,0,2,,,,,,,,,1,,,62,49
61440,note_on,60,0,2,,,,,,,,,1,,,61,0
61500,note_on,60,0,2,,,,,,,,,1,,,62,0
61500,note_on,0,0,2,,,,,,,,,1,,,57,49
61560,note_on,240,0,1,,,,,,,,,0,,,66,0
61560,note_on,0,0,1,,,,,,,,,0,,,64,62
61560,note_on,0,0,2,,,,,,,,,1,,,55,49
61560,control_change,0,0,2,,,,,,,,,1,64,0,,
61560,note_on,240,0,3,,,,,,,,,2,,,50,0
61560,note_on,0,0,3,,,,,,,,,2,,,47,36
61560,control_change,0,0,1,,,,,,,,,0,64,0,,
61560,note_on,60,0,2,,,,,,,,,1,,,57,0
61620,note_on,60,0,2,,,,,,,,,1,,,55,0
61620,note_on,0,0,2,,,,,,,,,1,,,57,49
61620,note_on,0,0,3,,,,,,,,,2,,,49,36
61620,note_on,60,0,3,,,,,,,,,2,,,47,0
61680,note_on,60,0,3,,,,,,,,,2,,,49,0
61680,control_change,0,0,3,,,,,,,,,2,64,127,,
61680,note_on,0,0,3,,,,,,,,,2,,,50,36
61680,note_on,0,0,2,,,,,,,,,1,,,54,62
61680,control_change,0,0,2,,,,,,,,,1,64,127,,
61680,note_on,60,0,2,,,,,,,,,1,,,57,0
61680,note_on,120,0,1,,,,,,,,,0,,,64,0
61680,control_change,0,0,1,,,,,,,,,0,64,127,,
61680,note_on,0,0,1,,,,,,,,,0,,,62,49
61740,note_on,60,0,1,,,,,,,,,0,,,62,0
61740,note_on,0,0,1,,,,,,,,,0,,,61,49
61800,note_on,60,0,1,,,,,,,,,0,,,61,0
61800,note_on,0,0,1,,,,,,,,,0,,,62,49
61860,note_on,60,0,1,,,,,,,,,0,,,62,0
61860,note_on,0,0,1,,,,,,,,,0,,,64,49
61920,note_on,60,0,1,,,,,,,,,0,,,64,0
61920,control_change,0,0,1,,,,,,,,,0,64,0,,
61920,note_on,600,0,4,,,,,,,,,3,,,50,0
61920,note_on,0,0,4,,,,,,,,,3,,,52,36
61920,note_on,0,0,1,,,,,,,,,0,,,66,49
61920,note_on,0,0,3,,,,,,,,,2,,,52,36
61920,control_change,0,0,3,,,,,,,,,2,64,0,,
61920,note_on,240,0,2,,,,,,,,,1,,,54,0
61920,control_change,0,0,2,,,,,,,,,1,64,0,,
61920,note_on,0,0,2,,,,,,,,,1,,,62,62
61920,note_on,240,0,3,,,,,,,,,2,,,50,0
61932,note_on,12,0,3,,,,,,,,,2,,,52,0
61932,note_on,12,0,4,,,,,,,,,3,,,52,0
61980,note_on,0,0,1,,,,,,,,,0,,,68,49
61980,note_on,60,0,1,,,,,,,,,0,,,66,0
62040,note_on,120,0,2,,,,,,,,,1,,,62,0
62040,note_on,0,0,1,,,,,,,,,0,,,69,62
62040,control_change,0,0,1,,,,,,,,,0,64,127,,
62040,note_on,60,0,1,,,,,,,,,0,,,68,0
62040,note_on,0,0,2,,,,,,,,,1,,,61,75
62040,control_change,0,0,2,,,,,,,,,1,64,127,,
62040,note_on,0,0,3,,,,,,,,,2,,,57,62
62040,note_on,0,0,3,,,,,,,,,2,,,52,62
62040,note_on,0,0,3,,,,,,,,,2,,,45,62
62040,control_change,108,0,3,,,,,,,,,2,64,127,,
62064,note_on,0,0,3,,,,,,,,,2,,,52,0
62064,note_on,24,0,3,,,,,,,,,2,,,57,0
62064,note_on,0,0,3,,,,,,,,,2,,,45,0
62100,note_on,0,0,1,,,,,,,,,0,,,68,62
62100,note_on,60,0,1,,,,,,,,,0,,,69,0
62160,note_on,0,0,1,,,,,,,,,0,,,69,62
62160,note_on,60,0,1,,,,,,,,,0,,,68,0
62220,note_on,0,0,1,,,,,,,,,0,,,73,62
62220,note_on,60,0,1,,,,,,,,,0,,,69,0
62280,control_change,0,0,2,,,,,,,,,1,64,0,,
62280,note_on,60,0,1,,,,,,,,,0,,,73,0
62280,note_on,240,0,2,,,,,,,,,1,,,61,0
62280,note_on,0,0,1,,,,,,,,,0,,,71,49
62280,control_change,0,0,1,,,,,,,,,0,64,0,,
62280,note_on,0,0,3,,,,,,,,,2,,,56,49
62280,note_on,0,0,3,,,,,,,,,2,,,52,49
62280,note_on,0,0,3,,,,,,,,,2,,,45,49
62280,control_change,216,0,3,,,,,,,,,2,64,0,,
62280,note_on,0,0,2,,,,,,,,,1,,,62,62
62292,note_on,0,0,3,,,,,,,,,2,,,45,0
62292,note_on,0,0,3,,,,,,,,,2,,,52,0
62292,note_on,12,0,3,,,,,,,,,2,,,56,0
62340,note_on,60,0,1,,,,,,,,,0,,,71,0
62340,note_on,0,0,1,,,,,,,,,0,,,73,49
62400,note_on,120,0,2,,,,,,,,,1,,,62,0
62400,control_change,0,0,1,,,,,,,,,0,64,127,,
62400,note_on,60,0,1,,,,,,,,,0,,,73,0
62400,note_on,0,0,1,,,,,,,,,0,,,69,49
62400,note_on,0,0,2,,,,,,,,,1,,,61,62
62400,control_change,0,0,2,,,,,,,,,1,64,127,,
62400,control_change,108,0,3,,,,,,,,,2,64,127,,
62400,note_on,0,0,3,,,,,,,,,2,,,45,49
62400,note_on,0,0,3,,,,,,,,,2,,,52,49
62400,note_on,0,0,3,,,,,,,,,2,,,57,49
62424,note_on,24,0,3,,,,,,,,,2,,,57,0
62424,note_on,0,0,3,,,,,,,,,2,,,45,0
62424,note_on,0,0,3,,,,,,,,,2,,,52,0
62460,note_on,60,0,1,,,,,,,,,0,,,69,0
62460,note_on,0,0,1,,,,,,,,,0,,,71,49
62520,note_on,60,0,1,,,,,,,,,0,,,71,0
62520,note_on,0,0,1,,,,,,,,,0,,,69,49
62580,note_on,0,0,1,,,,,,,,,0,,,68,49
62580,note_on,60,0,1,,,,,,,,,0,,,69,0
62640,control_change,216,0,3,,,,,,,,,2,64,0,,
62640,note_on,0,0,1,,,,,,,,,0,,,66,49
62640,control_change,0,0,1,,,,,,,,,0,64,0,,
62640,note_on,0,0,3,,,,,,,,,2,,,50,49
62640,note_on,0,0,3,,,,,,,,,2,,,57,49
62640,note_on,60,0,1,,,,,,,,,0,,,68,0
62640,note_on,0,0,2,,,,,,,,,1,,,62,62
62640,control_change,0,0,2,,,,,,,,,1,64,0,,
62640,note_on,240,0,2,,,,,,,,,1,,,61,0
62652,note_on,12,0,3,,,,,,,,,2,,,57,0
62652,note_on,0,0,3,,,,,,,,,2,,,50,0
62700,note_on,60,0,1,,,,,,,,,0,,,66,0
62700,note_on,0,0,1,,,,,,,,,0,,,68,49
62760,note_on,60,0,1,,,,,,,,,0,,,68,0
62760,control_change,0,0,1,,,,,,,,,0,64,127,,
62760,note_on,0,0,1,,,,,,,,,0,,,69,75
62760,note_on,108,0,3,,,,,,,,,2,,,45,36
62760,note_on,0,0,2,,,,,,,,,1,,,61,62
62760,note_on,120,0,2,,,,,,,,,1,,,62,0
62760,note_on,0,0,3,,,,,,,,,2,,,57,36
62760,note_on,0,0,3,,,,,,,,,2,,,52,36
62760,control_change,0,0,2,,,,,,,,,1,64,127,,
62784,note_on,0,0,3,,,,,,,,,2,,,45,0
62784,note_on,0,0,3,,,,,,,,,2,,,52,0
62784,note_on,24,0,3,,,,,,,,,2,,,57,0
62820,note_on,60,0,1,,,,,,,,,0,,,69,0
62820,note_on,0,0,1,,,,,,,,,0,,,68,49
62880,note_on,0,0,1,,,,,,,,,0,,,69,49
62880,note_on,60,0,1,,,,,,,,,0,,,68,0
62940,note_on,0,0,1,,,,,,,,,0,,,73,49
62940,note_on,60,0,1,,,,,,,,,0,,,69,0
63000,note_on,60,0,1,,,,,,,,,0,,,73,0
63000,control_change,0,0,1,,,,,,,,,0,64,0,,
63000,note_on,0,0,1,,,,,,,,,0,,,71,49
63000,control_change,216,0,3,,,,,,,,,2,64,0,,
63000,note_on,0,0,3,,,,,,,,,2,,,45,36
63000,note_on,0,0,3,,,,,,,,,2,,,52,36
63000,note_on,0,0,3,,,,,,,,,2,,,56,36
63000,note_on,0,0,2,,,,,,,,,1,,,62,62
63000,control_change,0,0,2,,,,,,,,,1,64,0,,
63000,note_on,240,0,2,,,,,,,,,1,,,61,0
63012,note_on,12,0,3,,,,,,,,,2,,,56,0
63012,note_on,0,0,3,,,,,,,,,2,,,52,0
63012,note_on,0,0,3,,,,,,,,,2,,,45,0
63060,note_on,60,0,1,,,,,,,,,0,,,71,0
63060,note_on,0,0,1,,,,,,,,,0,,,76,49
63120,note_on,120,0,2,,,,,,,,,1,,,62,0
63120,note_on,0,0,3,,,,,,,,,2,,,45,36
63120,note_on,0,0,2,,,,,,,,,1,,,61,62
63120,note_on,0,0,3,,,,,,,,,2,,,57,36
63120,note_on,0,0,3,,,,,,,,,2,,,52,36
63120,control_change,108,0,3,,,,,,,,,2,64,127,,
63120,note_on,0,0,1,,,,,,,,,0,,,69,49
63120,control_change,0,0,1,,,,,,,,,0,64,127,,
63120,note_on,60,0,1,,,,,,,,,0,,,76,0
63180,note_on,0,0,1,,,,,,,,,0,,,68,49
63180,note_on,60,0,1,,,,,,,,,0,,,69,0
63240,note_on,60,0,1,,,,,,,,,0,,,68,0
63240,note_on,0,0,1,,,,,,,,,0,,,69,49
63300,note_on,60,0,1,,,,,,,,,0,,,69,0
63300,note_on,0,0,1,,,,,,,,,0,,,71,49
63360,note_on,240,0,2,,,,,,,,,1,,,61,0
63360,note_on,240,0,3,,,,,,,,,2,,,57,0
63360,note_on,0,0,3,,,,,,,,,2,,,52,0
63360,control_change,0,0,3,,,,,,,,,2,64,0,,
63360,note_on,0,0,3,,,,,,,,,2,,,45,0
63360,note_on,0,0,1,,,,,,,,,0,,,69,49
63360,note_on,60,0,1,,,,,,,,,0,,,71,0
63420,note_on,0,0,1,,,,,,,,,0,,,67,49
63420,control_change,0,0,1,,,,,,,,,0,64,0,,
63420,note_on,60,0,1,,,,,,,,,0,,,69,0
63480,control_change,120,0,2,,,,,,,,,1,64,127,,
63480,note_on,0,0,2,,,,,,,,,1,,,66,49
63480,note_on,0,0,1,,,,,,,,,0,,,69,62
63480,note_on,60,0,1,,,,,,,,,0,,,67,0
63480,note_on,120,0,3,,,,,,,,,2,,,50,36
63480,note_on,1548,0,4,,,,,,,,,3,,,50,36
63540,note_on,60,0,2,,,,,,,,,1,,,66,0
63540,note_on,0,0,2,,,,,,,,,1,,,65,49
63600,note_on,60,0,2,,,,,,,,,1,,,65,0
63600,note_on,0,0,2,,,,,,,,,1,,,66,49
63660,note_on,60,0,2,,,,,,,,,1,,,66,0
63660,note_on,0,0,2,,,,,,,,,1,,,62,49
63720,note_on,0,0,1,,,,,,,,,0,,,71,62
63720,note_on,60,0,2,,,,,,,,,1,,,62,0
63720,control_change,0,0,2,,,,,,,,,1,64,0,,
63720,note_on,0,0,2,,,,,,,,,1,,,67,49
63720,note_on,240,0,1,,,,,,,,,0,,,69,0
63720,note_on,240,0,3,,,,,,,,,2,,,50,0
63720,note_on,0,0,3,,,,,,,,,2,,,47,36
63780,note_on,60,0,3,,,,,,,,,2,,,47,0
63780,note_on,0,0,3,,,,,,,,,2,,,49,36
63780,note_on,60,0,2,,,,,,,,,1,,,67,0
63780,note_on,0,0,2,,,,,,,,,1,,,64,49
63840,note_on,60,0,2,,,,,,,,,1,,,64,0
63840,note_on,60,0,3,,,,,,,,,2,,,49,0
63840,note_on,0,0,3,,,,,,,,,2,,,50,36
63840,control_change,0,0,1,,,,,,,,,0,64,127,,
63840,control_change,0,0,2,,,,,,,,,1,64,127,,
63840,note_on,0,0,2,,,,,,,,,1,,,66,49
63840,note_on,120,0,1,,,,,,,,,0,,,71,0
63840,note_on,0,0,1,,,,,,,,,0,,,69,62
63900,note_on,60,0,2,,,,,,,,,1,,,66,0
63900,note_on,0,0,2,,,,,,,,,1,,,65,49
63960,note_on,0,0,2,,,,,,,,,1,,,66,49
63960,note_on,60,0,2,,,,,,,,,1,,,65,0
64020,note_on,60,0,2,,,,,,,,,1,,,66,0
64020,note_on,0,0,2,,,,,,,,,1,,,62,49
64080,note_on,60,0,2,,,,,,,,,1,,,62,0
64080,control_change,0,0,2,,,,,,,,,1,64,0,,
64080,note_on,0,0,2,,,,,,,,,1,,,59,49
64080,note_on,240,0,1,,,,,,,,,0,,,69,0
64080,note_on,0,0,1,,,,,,,,,0,,,67,62
64080,control_change,0,0,1,,,,,,,,,0,64,0,,
64140,note_on,60,0,2,,,,,,,,,1,,,59,0
64140,note_on,0,0,2,,,,,,,,,1,,,61,49
64200,note_on,720,0,4,,,,,,,,,3,,,50,0
64200,note_on,360,0,3,,,,,,,,,2,,,50,0
64200,note_on,0,0,3,,,,,,,,,2,,,50,36
64200,note_on,60,0,2,,,,,,,,,1,,,61,0
64200,control_change,0,0,2,,,,,,,,,1,64,127,,
64200,note_on,0,0,1,,,,,,,,,0,,,66,62
64200,control_change,0,0,1,,,,,,,,,0,64,127,,
64200,note_on,120,0,1,,,,,,,,,0,,,67,0
64200,note_on,0,0,2,,,,,,,,,1,,,62,49
64200,note_on,0,0,4,,,,,,,,,3,,,50,36
64260,note_on,60,0,2,,,,,,,,,1,,,62,0
64260,note_on,0,0,2,,,,,,,,,1,,,61,49
64320,note_on,60,0,2,,,,,,,,,1,,,61,0
64320,note_on,0,0,2,,,,,,,,,1,,,62,49
64380,note_on,0,0,2,,,,,,,,,1,,,57,49
64380,note_on,60,0,2,,,,,,,,,1,,,62,0
64440,note_on,0,0,2,,,,,,,,,1,,,55,49
64440,control_change,0,0,2,,,,,,,,,1,64,0,,
64440,note_on,60,0,2,,,,,,,,,1,,,57,0
64440,note_on,240,0,3,,,,,,,,,2,,,50,0
64440,note_on,0,0,3,,,,,,,,,2,,,47,36
64440,note_on,240,0,1,,,,,,,,,0,,,66,0
64440,control_change,0,0,1,,,,,,,,,0,64,0,,
64440,note_on,0,0,1,,,,,,,,,0,,,64,62
64500,note_on,0,0,2,,,,,,,,,1,,,57,49
64500,note_on,60,0,2,,,,,,,,,1,,,55,0
64500,note_on,0,0,3,,,,,,,,,2,,,49,36
64500,note_on,60,0,3,,,,,,,,,2,,,47,0
64560,note_on,60,0,2,,,,,,,,,1,,,57,0
64560,note_on,60,0,3,,,,,,,,,2,,,49,0
64560,control_change,0,0,1,,,,,,,,,0,64,127,,
64560,note_on,0,0,1,,,,,,,,,0,,,62,49
64560,control_change,0,0,3,,,,,,,,,2,64,127,,
64560,note_on,0,0,3,,,,,,,,,2,,,50,36
64560,note_on,120,0,1,,,,,,,,,0,,,64,0
64560,control_change,0,0,2,,,,,,,,,1,64,127,,
64560,note_on,0,0,2,,,,,,,,,1,,,54,62
64620,note_on,60,0,1,,,,,,,,,0,,,62,0
64620,note_on,0,0,1,,,,,,,,,0,,,61,49
64680,note_on,0,0,1,,,,,,,,,0,,,62,49
64680,note_on,60,0,1,,,,,,,,,0,,,61,0
64740,note_on,60,0,1,,,,,,,,,0,,,62,0
64740,note_on,0,0,1,,,,,,,,,0,,,64,49
64800,note_on,0,0,1,,,,,,,,,0,,,66,49
64800,note_on,600,0,4,,,,,,,,,3,,,50,0
64800,note_on,0,0,4,,,,,,,,,3,,,52,36
64800,control_change,0,0,1,,,,,,,,,0,64,0,,
64800,note_on,60,0,1,,,,,,,,,0,,,64,0
64800,note_on,240,0,2,,,,,,,,,1,,,54,0
64800,note_on,240,0,3,,,,,,,,,2,,,50,0
64800,note_on,0,0,3,,,,,,,,,2,,,52,36
64800,control_change,0,0,3,,,,,,,,,2,64,0,,
64800,note_on,0,0,2,,,,,,,,,1,,,62,62
64800,control_change,0,0,2,,,,,,,,,1,64,0,,
64812,note_on,12,0,4,,,,,,,,,3,,,52,0
64812,note_on,12,0,3,,,,,,,,,2,,,52,0
64860,note_on,0,0,1,,,,,,,,,0,,,68,49
64860,note_on,60,0,1,,,,,,,,,0,,,66,0
64920,control_change,0,0,1,,,,,,,,,0,64,127,,
64920,note_on,60,0,1,,,,,,,,,0,,,68,0
64920,note_on,0,0,1,,,,,,,,,0,,,69,62
64920,note_on,0,0,3,,,,,,,,,2,,,45,62
64920,control_change,0,0,2,,,,,,,,,1,64,127,,
64920,note_on,0,0,2,,,,,,,,,1,,,61,75
64920,control_change,108,0,3,,,,,,,,,2,64,127,,
64920,note_on,0,0,3,,,,,,,,,2,,,57,62
64920,note_on,0,0,3,,,,,,,,,2,,,52,62
64920,note_on,120,0,2,,,,,,,,,1,,,62,0
64944,note_on,0,0,3,,,,,,,,,2,,,45,0
64944,note_on,0,0,3,,,,,,,,,2,,,52,0
64944,note_on,24,0,3,,,,,,,,,2,,,57,0
64980,note_on,0,0,1,,,,,,,,,0,,,68,62
64980,note_on,60,0,1,,,,,,,,,0,,,69,0
65040,note_on,0,0,1,,,,,,,,,0,,,69,62
65040,note_on,60,0,1,,,,,,,,,0,,,68,0
65100,note_on,60,0,1,,,,,,,,,0,,,69,0
65100,note_on,0,0,1,,,,,,,,,0,,,73,62
65160,note_on,0,0,3,,,,,,,,,2,,,52,49
65160,control_change,216,0,3,,,,,,,,,2,64,0,,
65160,note_on,0,0,3,,,,,,,,,2,,,45,49
65160,note_on,60,0,1,,,,,,,,,0,,,73,0
65160,control_change,0,0,1,,,,,,,,,0,64,0,,
65160,note_on,0,0,1,,,,,,,,,0,,,71,49
65160,note_on,0,0,3,,,,,,,,,2,,,56,49
65160,note_on,240,0,2,,,,,,,,,1,,,61,0
65160,note_on,0,0,2,,,,,,,,,1,,,62,62
65160,control_change,0,0,2,,,,,,,,,1,64,0,,
65172,note_on,0,0,3,,,,,,,,,2,,,45,0
65172,note_on,12,0,3,,,,,,,,,2,,,56,0
65172,note_on,0,0,3,,,,,,,,,2,,,52,0
65220,note_on,60,0,1,,,,,,,,,0,,,71,0
65220,note_on,0,0,1,,,,,,,,,0,,,73,49
65280,note_on,0,0,1,,,,,,,,,0,,,69,49
65280,note_on,120,0,2,,,,,,,,,1,,,62,0
65280,note_on,0,0,3,,,,,,,,,2,,,45,49
65280,control_change,0,0,2,,,,,,,,,1,64,127,,
65280,note_on,0,0,3,,,,,,,,,2,,,52,49
65280,control_change,0,0,1,,,,,,,,,0,64,127,,
65280,note_on,60,0,1,,,,,,,,,0,,,73,0
65280,note_on,0,0,3,,,,,,,,,2,,,57,49
65280,control_change,108,0,3,,,,,,,,,2,64,127,,
65280,note_on,0,0,2,,,,,,,,,1,,,61,62
65304,note_on,0,0,3,,,,,,,,,2,,,52,0
65304,note_on,24,0,3,,,,,,,,,2,,,57,0
65304,note_on,0,0,3,,,,,,,,,2,,,45,0
65340,note_on,60,0,1,,,,,,,,,0,,,69,0
65340,note_on,0,0,1,,,,,,,,,0,,,71,49
65400,note_on,60,0,1,,,,,,,,,0,,,71,0
65400,note_on,0,0,1,,,,,,,,,0,,,69,49
65460,note_on,60,0,1,,,,,,,,,0,,,69,0
65460,note_on,0,0,1,,,,,,,,,0,,,68,49
65520,control_change,0,0,1,,,,,,,,,0,64,0,,
65520,note_on,60,0,1,,,,,,,,,0,,,68,0
65520,note_on,0,0,1,,,,,,,,,0,,,66,49
65520,note_on,0,0,2,,,,,,,,,1,,,62,62
65520,control_change,216,0,3,,,,,,,,,2,64,0,,
65520,note_on,0,0,3,,,,,,,,,2,,,50,49
65520,note_on,0,0,3,,,,,,,,,2,,,57,49
65520,note_on,240,0,2,,,,,,,,,1,,,61,0
65520,control_change,0,0,2,,,,,,,,,1,64,0,,
65532,note_on,12,0,3,,,,,,,,,2,,,57,0
65532,note_on,0,0,3,,,,,,,,,2,,,50,0
65580,note_on,60,0,1,,,,,,,,,0,,,66,0
65580,note_on,0,0,1,,,,,,,,,0,,,68,49
65640,note_on,108,0,3,,,,,,,,,2,,,45,36
65640,note_on,0,0,3,,,,,,,,,2,,,52,36
65640,note_on,0,0,3,,,,,,,,,2,,,57,36
65640,control_change,0,0,2,,,,,,,,,1,64,127,,
65640,note_on,0,0,2,,,,,,,,,1,,,61,62
65640,note_on,60,0,1,,,,,,,,,0,,,68,0
65640,control_change,0,0,1,,,,,,,,,0,64,127,,
65640,note_on,120,0,2,,,,,,,,,1,,,62,0
65640,note_on,0,0,1,,,,,,,,,0,,,69,75
65664,note_on,0,0,3,,,,,,,,,2,,,45,0
65664,note_on,0,0,3,,,,,,,,,2,,,52,0
65664,note_on,24,0,3,,,,,,,,,2,,,57,0
65700,note_on,60,0,1,,,,,,,,,0,,,69,0
65700,note_on,0,0,1,,,,,,,,,0,,,68,49
65760,note_on,60,0,1,,,,,,,,,0,,,68,0
65760,note_on,0,0,1,,,,,,,,,0,,,69,49
65820,note_on,0,0,1,,,,,,,,,0,,,73,49
65820,note_on,60,0,1,,,,,,,,,0,,,69,0
65880,note_on,0,0,3,,,,,,,,,2,,,56,36
65880,control_change,0,0,1,,,,,,,,,0,64,0,,
65880,note_on,60,0,1,,,,,,,,,0,,,73,0
65880,note_on,240,0,2,,,,,,,,,1,,,61,0
65880,control_change,0,0,2,,,,,,,,,1,64,0,,
65880,control_change,216,0,3,,,,,,,,,2,64,0,,
65880,note_on,0,0,2,,,,,,,,,1,,,62,62
65880,note_on,0,0,3,,,,,,,,,2,,,45,36
65880,note_on,0,0,1,,,,,,,,,0,,,71,49
65880,note_on,0,0,3,,,,,,,,,2,,,52,36
65892,note_on,0,0,3,,,,,,,,,2,,,52,0
65892,note_on,0,0,3,,,,,,,,,2,,,45,0
65892,note_on,12,0,3,,,,,,,,,2,,,56,0
65940,note_on,60,0,1,,,,,,,,,0,,,71,0
65940,note_on,0,0,1,,,,,,,,,0,,,76,49
66000,control_change,108,0,3,,,,,,,,,2,64,127,,
66000,note_on,0,0,3,,,,,,,,,2,,,45,36
66000,note_on,0,0,3,,,,,,,,,2,,,52,36
66000,note_on,0,0,3,,,,,,,,,2,,,57,36
66000,note_on,120,0,2,,,,,,,,,1,,,62,0
66000,note_on,60,0,1,,,,,,,,,0,,,76,0
66000,control_change,0,0,1,,,,,,,,,0,64,127,,
66000,note_on,0,0,1,,,,,,,,,0,,,69,49
66000,note_on,0,0,2,,,,,,,,,1,,,61,62
66060,note_on,0,0,1,,,,,,,,,0,,,68,49
66060,note_on,60,0,1,,,,,,,,,0,,,69,0
66120,note_on,60,0,1,,,,,,,,,0,,,68,0
66120,note_on,0,0,1,,,,,,,,,0,,,69,49
66180,note_on,60,0,1,,,,,,,,,0,,,69,0
66180,note_on,0,0,1,,,,,,,,,0,,,71,49
66240,note_on,240,0,2,,,,,,,,,1,,,61,0
66240,note_on,0,0,3,,,,,,,,,2,,,52,0
66240,note_on,0,0,3,,,,,,,,,2,,,45,0
66240,control_change,0,0,3,,,,,,,,,2,64,0,,
66240,note_on,0,0,1,,,,,,,,,0,,,69,49
66240,note_on,240,0,3,,,,,,,,,2,,,57,0
66240,note_on,60,0,1,,,,,,,,,0,,,71,0
66300,control_change,0,0,1,,,,,,,,,0,64,0,,
66300,note_on,0,0,1,,,,,,,,,0,,,67,49
66300,note_on,60,0,1,,,,,,,,,0,,,69,0
66360,note_on,120,0,3,,,,,,,,,2,,,42,75
66360,note_on,120,0,2,,,,,,,,,1,,,58,75
66360,note_on,0,0,3,,,,,,,,,2,,,49,75
66360,control_change,0,0,1,,,,,,,,,0,64,127,,
66360,note_on,60,0,1,,,,,,,,,0,,,67,0
66360,note_on,0,0,1,,,,,,,,,0,,,66,114
66420,note_on,60,0,1,,,,,,,,,0,,,66,0
66420,note_on,0,0,1,,,,,,,,,0,,,65,49
66480,note_on,60,0,1,,,,,,,,,0,,,65,0
66480,note_on,0,0,1,,,,,,,,,0,,,66,49
66540,note_on,0,0,1,,,,,,,,,0,,,67,49
66540,note_on,60,0,1,,,,,,,,,0,,,66,0
66600,note_on,60,0,1,,,,,,,,,0,,,67,0
66600,note_on,0,0,1,,,,,,,,,0,,,66,49
66660,note_on,0,0,1,,,,,,,,,0,,,67,49
66660,note_on,60,0,1,,,,,,,,,0,,,66,0
66660,control_change,0,0,1,,,,,,,,,0,64,0,,
66720,note_on,0,0,2,,,,,,,,,1,,,57,36
66720,note_on,0,0,3,,,,,,,,,2,,,50,36
66720,note_on,0,0,3,,,,,,,,,2,,,38,36
66720,note_on,0,0,3,,,,,,,,,2,,,42,0
66720,note_on,360,0,3,,,,,,,,,2,,,49,0
66720,note_on,0,0,1,,,,,,,,,0,,,66,49
66720,control_change,0,0,1,,,,,,,,,0,64,127,,
66720,note_on,60,0,1,,,,,,,,,0,,,67,0
66720,note_on,360,0,2,,,,,,,,,1,,,58,0
66780,note_on,0,0,1,,,,,,,,,0,,,65,49
66780,note_on,60,0,1,,,,,,,,,0,,,66,0
66840,note_on,0,0,1,,,,,,,,,0,,,66,49
66840,note_on,60,0,1,,,,,,,,,0,,,65,0
66900,note_on,60,0,1,,,,,,,,,0,,,66,0
66900,note_on,0,0,1,,,,,,,,,0,,,69,49
66960,note_on,0,0,1,,,,,,,,,0,,,66,49
66960,note_on,60,0,1,,,,,,,,,0,,,69,0
67020,note_on,0,0,1,,,,,,,,,0,,,69,49
67020,control_change,0,0,1,,,,,,,,,0,64,0,,
67020,note_on,60,0,1,,,,,,,,,0,,,66,0
67080,note_on,360,0,3,,,,,,,,,2,,,50,0
67080,note_on,0,0,3,,,,,,,,,2,,,38,0
67080,control_change,0,0,3,,,,,,,,,2,64,127,,
67080,note_on,0,0,3,,,,,,,,,2,,,52,36
67080,note_on,2268,0,4,,,,,,,,,3,,,45,36
67080,note_on,360,0,2,,,,,,,,,1,,,57,0
67080,note_on,0,0,1,,,,,,,,,0,,,69,75
67080,control_change,0,0,1,,,,,,,,,0,64,127,,
67080,note_on,60,0,1,,,,,,,,,0,,,69,0
67080,note_on,0,0,2,,,,,,,,,1,,,61,36
67140,note_on,0,0,1,,,,,,,,,0,,,71,49
67140,note_on,60,0,1,,,,,,,,,0,,,69,0
67200,note_on,60,0,1,,,,,,,,,0,,,71,0
67200,note_on,0,0,1,,,,,,,,,0,,,69,49
67260,note_on,60,0,1,,,,,,,,,0,,,69,0
67260,note_on,0,0,1,,,,,,,,,0,,,71,49
67320,note_on,60,0,1,,,,,,,,,0,,,71,0
67320,note_on,0,0,1,,,,,,,,,0,,,69,49
67320,note_on,240,0,3,,,,,,,,,2,,,52,0
67320,control_change,0,0,3,,,,,,,,,2,64,0,,
67320,note_on,0,0,3,,,,,,,,,2,,,57,36
67380,note_on,0,0,1,,,,,,,,,0,,,67,49
67380,control_change,0,0,1,,,,,,,,,0,64,0,,
67380,note_on,60,0,1,,,,,,,,,0,,,69,0
67440,note_on,360,0,4,,,,,,,,,3,,,45,0
67440,note_on,120,0,3,,,,,,,,,2,,,57,0
67440,control_change,0,0,3,,,,,,,,,2,64,127,,
67440,note_on,0,0,3,,,,,,,,,2,,,50,36
67440,note_on,0,0,3,,,,,,,,,2,,,57,36
67440,note_on,60,0,1,,,,,,,,,0,,,67,0
67440,control_change,0,0,1,,,,,,,,,0,64,127,,
67440,note_on,0,0,1,,,,,,,,,0,,,66,49
67440,note_on,0,0,2,,,,,,,,,1,,,62,36
67440,note_on,360,0,2,,,,,,,,,1,,,61,0
67500,note_on,0,0,1,,,,,,,,,0,,,67,49
67500,note_on,60,0,1,,,,,,,,,0,,,66,0
67560,note_on,0,0,1,,,,,,,,,0,,,66,49
67560,note_on,60,0,1,,,,,,,,,0,,,67,0
67620,note_on,60,0,1,,,,,,,,,0,,,66,0
67620,note_on,0,0,1,,,,,,,,,0,,,64,49
67680,note_on,240,0,2,,,,,,,,,1,,,62,0
67680,control_change,0,0,3,,,,,,,,,2,64,0,,
67680,note_on,0,0,3,,,,,,,,,2,,,50,0
67680,note_on,240,0,3,,,,,,,,,2,,,57,0
67680,note_on,60,0,1,,,,,,,,,0,,,64,0
67680,note_on,0,0,1,,,,,,,,,0,,,62,49
67740,note_on,0,0,1,,,,,,,,,0,,,64,49
67740,note_on,60,0,1,,,,,,,,,0,,,62,0
67740,control_change,0,0,1,,,,,,,,,0,64,0,,
67800,note_on,0,0,3,,,,,,,,,2,,,49,75
67800,note_on,60,0,1,,,,,,,,,0,,,64,0
67800,control_change,0,0,1,,,,,,,,,0,64,127,,
67800,note_on,0,0,1,,,,,,,,,0,,,66,114
67800,note_on,120,0,3,,,,,,,,,2,,,42,75
67800,note_on,120,0,2,,,,,,,,,1,,,58,75
67860,note_on,60,0,1,,,,,,,,,0,,,66,0
67860,note_on,0,0,1,,,,,,,,,0,,,65,49
67920,note_on,60,0,1,,,,,,,,,0,,,65,0
67920,note_on,0,0,1,,,,,,,,,0,,,66,49
67980,note_on,60,0,1,,,,,,,,,0,,,66,0
67980,note_on,0,0,1,,,,,,,,,0,,,67,49
68040,note_on,60,0,1,,,,,,,,,0,,,67,0
68040,note_on,0,0,1,,,,,,,,,0,,,66,49
68100,note_on,60,0,1,,,,,,,,,0,,,66,0
68100,control_change,0,0,1,,,,,,,,,0,64,0,,
68100,note_on,0,0,1,,,,,,,,,0,,,67,49
68160,note_on,0,0,3,,,,,,,,,2,,,42,0
68160,note_on,0,0,3,,,,,,,,,2,,,38,36
68160,note_on,0,0,3,,,,,,,,,2,,,50,36
68160,note_on,0,0,2,,,,,,,,,1,,,57,36
68160,note_on,360,0,2,,,,,,,,,1,,,58,0
68160,note_on,60,0,1,,,,,,,,,0,,,67,0
68160,control_change,0,0,1,,,,,,,,,0,64,127,,
68160,note_on,360,0,3,,,,,,,,,2,,,49,0
68160,note_on,0,0,1,,,,,,,,,0,,,66,49
68220,note_on,0,0,1,,,,,,,,,0,,,65,49
68220,note_on,60,0,1,,,,,,,,,0,,,66,0
68280,note_on,0,0,1,,,,,,,,,0,,,66,49
68280,note_on,60,0,1,,,,,,,,,0,,,65,0
68340,note_on,0,0,1,,,,,,,,,0,,,69,49
68340,note_on,60,0,1,,,,,,,,,0,,,66,0
68400,note_on,60,0,1,,,,,,,,,0,,,69,0
68400,note_on,0,0,1,,,,,,,,,0,,,66,49
68460,note_on,60,0,1,,,,,,,,,0,,,66,0
68460,control_change,0,0,1,,,,,,,,,0,64,0,,
68460,note_on,0,0,1,,,,,,,,,0,,,69,49
68520,note_on,360,0,3,,,,,,,,,2,,,50,0
68520,note_on,0,0,3,,,,,,,,,2,,,38,0
68520,control_change,0,0,3,,,,,,,,,2,64,127,,
68520,note_on,0,0,3,,,,,,,,,2,,,52,36
68520,note_on,1080,0,4,,,,,,,,,3,,,45,36
68520,note_on,0,0,2,,,,,,,,,1,,,61,36
68520,note_on,0,0,1,,,,,,,,,0,,,69,75
68520,control_change,0,0,1,,,,,,,,,0,64,127,,
68520,note_on,60,0,1,,,,,,,,,0,,,69,0
68520,note_on,360,0,2,,,,,,,,,1,,,57,0
68580,note_on,60,0,1,,,,,,,,,0,,,69,0
68580,note_on,0,0,1,,,,,,,,,0,,,71,49
68640,note_on,60,0,1,,,,,,,,,0,,,71,0
68640,note_on,0,0,1,,,,,,,,,0,,,69,49
68700,note_on,60,0,1,,,,,,,,,0,,,69,0
68700,note_on,0,0,1,,,,,,,,,0,,,71,49
68760,note_on,0,0,3,,,,,,,,,2,,,57,36
68760,control_change,0,0,3,,,,,,,,,2,64,0,,
68760,note_on,240,0,3,,,,,,,,,2,,,52,0
68760,note_on,60,0,1,,,,,,,,,0,,,71,0
68760,note_on,0,0,1,,,,,,,,,0,,,69,49
68820,note_on,60,0,1,,,,,,,,,0,,,69,0
68820,control_change,0,0,1,,,,,,,,,0,64,0,,
68820,note_on,0,0,1,,,,,,,,,0,,,67,49
68880,note_on,120,0,3,,,,,,,,,2,,,57,0
68880,note_on,0,0,3,,,,,,,,,2,,,50,36
68880,note_on,0,0,3,,,,,,,,,2,,,57,36
68880,control_change,0,0,1,,,,,,,,,0,64,127,,
68880,note_on,60,0,1,,,,,,,,,0,,,67,0
68880,note_on,360,0,2,,,,,,,,,1,,,61,0
68880,note_on,0,0,2,,,,,,,,,1,,,62,36
68880,note_on,0,0,1,,,,,,,,,0,,,66,49
68880,note_on,360,0,4,,,,,,,,,3,,,45,0
68940,note_on,60,0,1,,,,,,,,,0,,,66,0
68940,note_on,0,0,1,,,,,,,,,0,,,65,49
69000,note_on,0,0,3,,,,,,,,,2,,,50,0
69000,note_on,120,0,3,,,,,,,,,2,,,57,0
69000,note_on,120,0,2,,,,,,,,,1,,,62,0
69000,note_on,0,0,1,,,,,,,,,0,,,66,49
69000,note_on,60,0,1,,,,,,,,,0,,,65,0
69060,note_on,0,0,1,,,,,,,,,0,,,69,49
69060,note_on,60,0,1,,,,,,,,,0,,,66,0
69120,note_on,0,0,1,,,,,,,,,0,,,74,49
69120,note_on,60,0,1,,,,,,,,,0,,,69,0
69180,note_on,0,0,1,,,,,,,,,0,,,78,49
69180,control_change,0,0,1,,,,,,,,,0,64,0,,
69180,note_on,60,0,1,,,,,,,,,0,,,74,0
69240,control_change,240,0,2,,,,,,,,,1,64,127,,
69240,note_on,0,0,2,,,,,,,,,1,,,81,36
69240,control_change,240,0,3,,,,,,,,,2,64,127,,
69240,note_on,0,0,3,,,,,,,,,2,,,62,36
69240,note_on,0,0,1,,,,,,,,,0,,,78,49
69240,note_on,60,0,1,,,,,,,,,0,,,78,0
69240,control_change,360,0,4,,,,,,,,,3,64,127,,
69240,note_on,0,0,4,,,,,,,,,3,,,50,36
69240,control_change,0,0,1,,,,,,,,,0,64,127,,
69300,note_on,60,0,1,,,,,,,,,0,,,78,0
69300,note_on,0,0,1,,,,,,,,,0,,,77,49
69360,note_on,60,0,1,,,,,,,,,0,,,77,0
69360,note_on,0,0,1,,,,,,,,,0,,,78,49
69420,note_on,0,0,1,,,,,,,,,0,,,74,49
69420,note_on,60,0,1,,,,,,,,,0,,,78,0
69480,note_on,240,0,2,,,,,,,,,1,,,81,0
69480,note_on,0,0,1,,,,,,,,,0,,,79,49
69480,control_change,0,0,1,,,,,,,,,0,64,0,,
69480,note_on,60,0,1,,,,,,,,,0,,,74,0
69480,note_on,240,0,3,,,,,,,,,2,,,62,0
69480,note_on,0,0,3,,,,,,,,,2,,,59,36
69480,control_change,0,0,3,,,,,,,,,2,64,0,,
69480,control_change,0,0,2,,,,,,,,,1,64,0,,
69480,note_on,0,0,2,,,,,,,,,1,,,83,36
69540,note_on,0,0,1,,,,,,,,,0,,,76,49
69540,note_on,0,0,3,,,,,,,,,2,,,61,36
69540,note_on,60,0,3,,,,,,,,,2,,,59,0
69540,note_on,60,0,1,,,,,,,,,0,,,79,0
69600,note_on,0,0,3,,,,,,,,,2,,,62,36
69600,note_on,60,0,3,,,,,,,,,2,,,61,0
69600,note_on,60,0,1,,,,,,,,,0,,,76,0
69600,control_change,0,0,1,,,,,,,,,0,64,127,,
69600,note_on,0,0,1,,,,,,,,,0,,,78,49
69600,note_on,120,0,2,,,,,,,,,1,,,83,0
69600,control_change,0,0,2,,,,,,,,,1,64,127,,
69600,control_change,360,0,4,,,,,,,,,3,64,0,,
69600,note_on,0,0,2,,,,,,,,,1,,,81,36
69660,note_on,60,0,1,,,,,,,,,0,,,78,0
69660,note_on,0,0,1,,,,,,,,,0,,,77,49
69720,note_on,60,0,1,,,,,,,,,0,,,77,0
69720,note_on,0,0,1,,,,,,,,,0,,,78,49
69780,note_on,60,0,1,,,,,,,,,0,,,78,0
69780,note_on,0,0,1,,,,,,,,,0,,,74,49
69840,note_on,60,0,1,,,,,,,,,0,,,74,0
69840,note_on,0,0,2,,,,,,,,,1,,,79,36
69840,control_change,0,0,2,,,,,,,,,1,64,0,,
69840,note_on,240,0,2,,,,,,,,,1,,,81,0
69840,control_change,0,0,1,,,,,,,,,0,64,0,,
69840,note_on,0,0,1,,,,,,,,,0,,,71,49
69900,note_on,60,0,1,,,,,,,,,0,,,71,0
69900,note_on,0,0,1,,,,,,,,,0,,,73,49
69960,note_on,360,0,4,,,,,,,,,3,,,50,0
69960,control_change,0,0,2,,,,,,,,,1,64,127,,
69960,note_on,120,0,2,,,,,,,,,1,,,79,0
69960,note_on,0,0,1,,,,,,,,,0,,,74,49
69960,control_change,0,0,4,,,,,,,,,3,64,127,,
69960,note_on,0,0,4,,,,,,,,,3,,,50,36
69960,note_on,360,0,3,,,,,,,,,2,,,62,0
69960,control_change,0,0,3,,,,,,,,,2,64,127,,
69960,note_on,0,0,2,,,,,,,,,1,,,78,36
69960,note_on,0,0,3,,,,,,,,,2,,,62,36
69960,note_on,60,0,1,,,,,,,,,0,,,73,0
69960,control_change,0,0,1,,,,,,,,,0,64,127,,
70020,note_on,0,0,1,,,,,,,,,0,,,73,49
70020,note_on,60,0,1,,,,,,,,,0,,,74,0
70080,note_on,60,0,1,,,,,,,,,0,,,73,0
70080,note_on,0,0,1,,,,,,,,,0,,,74,49
70140,note_on,60,0,1,,,,,,,,,0,,,74,0
70140,note_on,0,0,1,,,,,,,,,0,,,69,49
70200,note_on,0,0,1,,,,,,,,,0,,,67,49
70200,control_change,0,0,1,,,,,,,,,0,64,0,,
70200,note_on,60,0,1,,,,,,,,,0,,,69,0
70200,note_on,0,0,3,,,,,,,,,2,,,59,36
70200,control_change,0,0,2,,,,,,,,,1,64,0,,
70200,note_on,0,0,2,,,,,,,,,1,,,76,36
70200,note_on,240,0,2,,,,,,,,,1,,,78,0
70200,note_on,240,0,3,,,,,,,,,2,,,62,0
70200,control_change,0,0,3,,,,,,,,,2,64,0,,
70260,note_on,60,0,3,,,,,,,,,2,,,59,0
70260,note_on,60,0,1,,,,,,,,,0,,,67,0
70260,note_on,0,0,1,,,,,,,,,0,,,69,49
70260,note_on,0,0,3,,,,,,,,,2,,,61,36
70320,control_change,0,0,2,,,,,,,,,1,64,127,,
70320,note_on,0,0,2,,,,,,,,,1,,,74,36
70320,control_change,360,0,4,,,,,,,,,3,64,0,,
70320,note_on,0,0,3,,,,,,,,,2,,,62,36
70320,note_on,60,0,1,,,,,,,,,0,,,69,0
70320,control_change,0,0,1,,,,,,,,,0,64,127,,
70320,note_on,0,0,1,,,,,,,,,0,,,66,49
70320,note_on,60,0,3,,,,,,,,,2,,,61,0
70320,note_on,120,0,2,,,,,,,,,1,,,76,0
70320,control_change,0,0,3,,,,,,,,,2,64,127,,
70380,note_on,0,0,1,,,,,,,,,0,,,67,49
70380,note_on,60,0,1,,,,,,,,,0,,,66,0
70440,note_on,60,0,1,,,,,,,,,0,,,67,0
70440,note_on,0,0,1,,,,,,,,,0,,,66,49
70500,note_on,0,0,1,,,,,,,,,0,,,64,49
70500,note_on,60,0,1,,,,,,,,,0,,,66,0
70560,control_change,0,0,3,,,,,,,,,2,64,0,,
70560,note_on,240,0,4,,,,,,,,,3,,,50,0
70560,control_change,0,0,2,,,,,,,,,1,64,0,,
70560,note_on,240,0,2,,,,,,,,,1,,,74,0
70560,note_on,0,0,1,,,,,,,,,0,,,62,49
70560,note_on,60,0,1,,,,,,,,,0,,,64,0
70560,note_on,240,0,3,,,,,,,,,2,,,62,0
70620,note_on,0,0,1,,,,,,,,,0,,,64,49
70620,control_change,0,0,1,,,,,,,,,0,64,0,,
70620,note_on,60,0,1,,,,,,,,,0,,,62,0
70680,note_on,120,0,2,,,,,,,,,1,,,58,75
70680,note_on,0,0,3,,,,,,,,,2,,,49,75
70680,note_on,60,0,1,,,,,,,,,0,,,64,0
70680,control_change,0,0,1,,,,,,,,,0,64,127,,
70680,note_on,0,0,1,,,,,,,,,0,,,66,114
70680,note_on,120,0,3,,,,,,,,,2,,,42,75
70740,note_on,60,0,1,,,,,,,,,0,,,66,0
70740,note_on,0,0,1,,,,,,,,,0,,,65,49
70800,note_on,60,0,1,,,,,,,,,0,,,65,0
70800,note_on,0,0,1,,,,,,,,,0,,,66,49
70860,note_on,60,0,1,,,,,,,,,0,,,66,0
70860,note_on,0,0,1,,,,,,,,,0,,,67,49
70920,note_on,60,0,1,,,,,,,,,0,,,67,0
70920,note_on,0,0,1,,,,,,,,,0,,,66,49
70980,note_on,60,0,1,,,,,,,,,0,,,66,0
70980,control_change,0,0,1,,,,,,,,,0,64,0,,
70980,note_on,0,0,1,,,,,,,,,0,,,67,49
71040,note_on,0,0,3,,,,,,,,,2,,,42,0
71040,note_on,0,0,3,,,,,,,,,2,,,38,36
71040,note_on,0,0,3,,,,,,,,,2,,,50,36
71040,note_on,0,0,2,,,,,,,,,1,,,57,36
71040,note_on,360,0,2,,,,,,,,,1,,,58,0
71040,note_on,360,0,3,,,,,,,,,2,,,49,0
71040,note_on,0,0,1,,,,,,,,,0,,,66,49
71040,control_change,0,0,1,,,,,,,,,0,64,127,,
71040,note_on,60,0,1,,,,,,,,,0,,,67,0
71100,note_on,60,0,1,,,,,,,,,0,,,66,0
71100,note_on,0,0,1,,,,,,,,,0,,,65,49
71160,note_on,0,0,1,,,,,,,,,0,,,66,49
71160,note_on,60,0,1,,,,,,,,,0,,,65,0
71220,note_on,60,0,1,,,,,,,,,0,,,66,0
71220,note_on,0,0,1,,,,,,,,,0,,,69,49
71280,note_on,60,0,1,,,,,,,,,0,,,69,0
71280,note_on,0,0,1,,,,,,,,,0,,,66,49
71340,note_on,0,0,1,,,,,,,,,0,,,69,49
71340,control_change,0,0,1,,,,,,,,,0,64,0,,
71340,note_on,60,0,1,,,,,,,,,0,,,66,0
71400,control_change,0,0,3,,,,,,,,,2,64,127,,
71400,note_on,0,0,3,,,,,,,,,2,,,38,0
71400,note_on,360,0,3,,,,,,,,,2,,,50,0
71400,control_change,0,0,1,,,,,,,,,0,64,127,,
71400,note_on,840,0,4,,,,,,,,,3,,,45,36
71400,note_on,0,0,3,,,,,,,,,2,,,52,36
71400,note_on,360,0,2,,,,,,,,,1,,,57,0
71400,note_on,0,0,1,,,,,,,,,0,,,69,75
71400,note_on,60,0,1,,,,,,,,,0,,,69,0
71400,note_on,0,0,2,,,,,,,,,1,,,61,36
71460,note_on,60,0,1,,,,,,,,,0,,,69,0
71460,note_on,0,0,1,,,,,,,,,0,,,71,49
71520,note_on,60,0,1,,,,,,,,,0,,,71,0
71520,note_on,0,0,1,,,,,,,,,0,,,69,49
71580,note_on,0,0,1,,,,,,,,,0,,,71,49
71580,note_on,60,0,1,,,,,,,,,0,,,69,0
71640,control_change,0,0,3,,,,,,,,,2,64,0,,
71640,note_on,0,0,3,,,,,,,,,2,,,57,36
71640,note_on,240,0,3,,,,,,,,,2,,,52,0
71640,note_on,0,0,1,,,,,,,,,0,,,69,49
71640,note_on,60,0,1,,,,,,,,,0,,,71,0
71700,note_on,0,0,1,,,,,,,,,0,,,67,49
71700,control_change,0,0,1,,,,,,,,,0,64,0,,
71700,note_on,60,0,1,,,,,,,,,0,,,69,0
71760,note_on,360,0,2,,,,,,,,,1,,,61,0
71760,note_on,0,0,2,,,,,,,,,1,,,62,36
71760,note_on,360,0,4,,,,,,,,,3,,,45,0
71760,note_on,0,0,1,,,,,,,,,0,,,66,49
71760,note_on,60,0,1,,,,,,,,,0,,,67,0
71760,note_on,0,0,3,,,,,,,,,2,,,57,36
71760,control_change,0,0,1,,,,,,,,,0,64,127,,
71760,note_on,0,0,3,,,,,,,,,2,,,50,36
71760,note_on,120,0,3,,,,,,,,,2,,,57,0
71760,control_change,0,0,3,,,,,,,,,2,64,127,,
71820,note_on,0,0,1,,,,,,,,,0,,,67,49
71820,note_on,60,0,1,,,,,,,,,0,,,66,0
71880,note_on,0,0,1,,,,,,,,,0,,,66,49
71880,note_on,60,0,1,,,,,,,,,0,,,67,0
71940,note_on,0,0,1,,,,,,,,,0,,,64,49
71940,note_on,60,0,1,,,,,,,,,0,,,66,0
72000,note_on,240,0,3,,,,,,,,,2,,,57,0
72000,control_change,0,0,3,,,,,,,,,2,64,0,,
72000,note_on,240,0,2,,,,,,,,,1,,,62,0
72000,note_on,60,0,1,,,,,,,,,0,,,64,0
72000,note_on,0,0,1,,,,,,,,,0,,,62,49
72000,note_on,0,0,3,,,,,,,,,2,,,50,0
72060,note_on,60,0,1,,,,,,,,,0,,,62,0
72060,control_change,0,0,1,,,,,,,,,0,64,0,,
72060,note_on,0,0,1,,,,,,,,,0,,,64,49
72120,note_on,120,0,3,,,,,,,,,2,,,42,75
72120,note_on,60,0,1,,,,,,,,,0,,,64,0
72120,control_change,0,0,1,,,,,,,,,0,64,127,,
72120,note_on,0,0,1,,,,,,,,,0,,,66,114
72120,note_on,0,0,3,,,,,,,,,2,,,49,75
72120,note_on,120,0,2,,,,,,,,,1,,,58,75
72180,note_on,0,0,1,,,,,,,,,0,,,65,49
72180,note_on,60,0,1,,,,,,,,,0,,,66,0
72240,note_on,60,0,1,,,,,,,,,0,,,65,0
72240,note_on,0,0,1,,,,,,,,,0,,,66,49
72300,note_on,0,0,1,,,,,,,,,0,,,67,49
72300,note_on,60,0,1,,,,,,,,,0,,,66,0
72360,note_on,60,0,1,,,,,,,,,0,,,67,0
72360,note_on,0,0,1,,,,,,,,,0,,,66,49
72420,note_on,0,0,1,,,,,,,,,0,,,67,49
72420,control_change,0,0,1,,,,,,,,,0,64,0,,
72420,note_on,60,0,1,,,,,,,,,0,,,66,0
72480,note_on,0,0,1,,,,,,,,,0,,,66,49
72480,control_change,0,0,1,,,,,,,,,0,64,127,,
72480,note_on,60,0,1,,,,,,,,,0,,,67,0
72480,note_on,360,0,2,,,,,,,,,1,,,58,0
72480,note_on,360,0,3,,,,,,,,,2,,,49,0
72480,note_on,0,0,3,,,,,,,,,2,,,42,0
72480,note_on,0,0,3,,,,,,,,,2,,,38,36
72480,note_on,0,0,3,,,,,,,,,2,,,50,36
72480,note_on,0,0,2,,,,,,,,,1,,,57,36
72540,note_on,60,0,1,,,,,,,,,0,,,66,0
72540,note_on,0,0,1,,,,,,,,,0,,,65,49
72600,note_on,60,0,1,,,,,,,,,0,,,65,0
72600,note_on,0,0,1,,,,,,,,,0,,,66,49
72660,note_on,60,0,1,,,,,,,,,0,,,66,0
72660,note_on,0,0,1,,,,,,,,,0,,,69,49
72720,note_on,60,0,1,,,,,,,,,0,,,69,0
72720,note_on,0,0,1,,,,,,,,,0,,,66,49
72780,note_on,60,0,1,,,,,,,,,0,,,66,0
72780,control_change,0,0,1,,,,,,,,,0,64,0,,
72780,note_on,0,0,1,,,,,,,,,0,,,69,49
72840,note_on,60,0,1,,,,,,,,,0,,,69,0
72840,note_on,1080,0,4,,,,,,,,,3,,,45,36
72840,note_on,360,0,3,,,,,,,,,2,,,50,0
72840,note_on,0,0,3,,,,,,,,,2,,,38,0
72840,control_change,0,0,3,,,,,,,,,2,64,127,,
72840,note_on,360,0,2,,,,,,,,,1,,,57,0
72840,note_on,0,0,2,,,,,,,,,1,,,61,36
72840,note_on,0,0,1,,,,,,,,,0,,,69,75
72840,note_on,0,0,3,,,,,,,,,2,,,52,36
72840,control_change,0,0,1,,,,,,,,,0,64,127,,
72900,note_on,60,0,1,,,,,,,,,0,,,69,0
72900,note_on,0,0,1,,,,,,,,,0,,,71,49
72960,note_on,60,0,1,,,,,,,,,0,,,71,0
72960,note_on,0,0,1,,,,,,,,,0,,,69,49
73020,note_on,60,0,1,,,,,,,,,0,,,69,0
73020,note_on,0,0,1,,,,,,,,,0,,,71,49
73080,note_on,60,0,1,,,,,,,,,0,,,71,0
73080,note_on,0,0,1,,,,,,,,,0,,,69,49
73080,note_on,240,0,3,,,,,,,,,2,,,52,0
73080,control_change,0,0,3,,,,,,,,,2,64,0,,
73080,note_on,0,0,3,,,,,,,,,2,,,57,36
73140,note_on,0,0,1,,,,,,,,,0,,,67,49
73140,control_change,0,0,1,,,,,,,,,0,64,0,,
73140,note_on,60,0,1,,,,,,,,,0,,,69,0
73200,note_on,360,0,4,,,,,,,,,3,,,45,0
73200,note_on,60,0,1,,,,,,,,,0,,,67,0
73200,note_on,0,0,2,,,,,,,,,1,,,62,36
73200,note_on,360,0,2,,,,,,,,,1,,,61,0
73200,control_change,0,0,1,,,,,,,,,0,64,127,,
73200,note_on,0,0,1,,,,,,,,,0,,,66,49
73200,note_on,120,0,3,,,,,,,,,2,,,57,0
73200,note_on,0,0,3,,,,,,,,,2,,,57,36
73200,note_on,0,0,3,,,,,,,,,2,,,50,36
73260,note_on,0,0,1,,,,,,,,,0,,,65,49
73260,note_on,60,0,1,,,,,,,,,0,,,66,0
73320,note_on,120,0,2,,,,,,,,,1,,,62,0
73320,note_on,0,0,3,,,,,,,,,2,,,50,0
73320,note_on,60,0,1,,,,,,,,,0,,,65,0
73320,note_on,0,0,1,,,,,,,,,0,,,66,49
73320,note_on,120,0,3,,,,,,,,,2,,,57,0
73380,note_on,60,0,1,,,,,,,,,0,,,66,0
73380,note_on,0,0,1,,,,,,,,,0,,,69,49
73440,note_on,0,0,1,,,,,,,,,0,,,74,49
73440,note_on,60,0,1,,,,,,,,,0,,,69,0
73500,note_on,60,0,1,,,,,,,,,0,,,74,0
73500,note_on,0,0,1,,,,,,,,,0,,,78,49
73500,control_change,0,0,1,,,,,,,,,0,64,0,,
73560,note_on,0,0,1,,,,,,,,,0,,,78,49
73560,note_on,0,0,4,,,,,,,,,3,,,50,36
73560,control_change,240,0,3,,,,,,,,,2,64,127,,
73560,note_on,0,0,3,,,,,,,,,2,,,62,36
73560,control_change,360,0,4,,,,,,,,,3,64,127,,
73560,control_change,0,0,1,,,,,,,,,0,64,127,,
73560,note_on,60,0,1,,,,,,,,,0,,,78,0
73560,control_change,240,0,2,,,,,,,,,1,64,127,,
73560,note_on,0,0,2,,,,,,,,,1,,,81,36
73620,note_on,0,0,1,,,,,,,,,0,,,77,49
73620,note_on,60,0,1,,,,,,,,,0,,,78,0
73680,note_on,0,0,1,,,,,,,,,0,,,78,49
73680,note_on,60,0,1,,,,,,,,,0,,,77,0
73740,note_on,0,0,1,,,,,,,,,0,,,74,49
73740,note_on,60,0,1,,,,,,,,,0,,,78,0
73800,control_change,0,0,1,,,,,,,,,0,64,0,,
73800,note_on,0,0,3,,,,,,,,,2,,,59,36
73800,note_on,240,0,3,,,,,,,,,2,,,62,0
73800,note_on,0,0,1,,,,,,,,,0,,,79,49
73800,note_on,240,0,2,,,,,,,,,1,,,81,0
73800,control_change,0,0,2,,,,,,,,,1,64,0,,
73800,note_on,0,0,2,,,,,,,,,1,,,83,36
73800,control_change,0,0,3,,,,,,,,,2,64,0,,
73800,note_on,60,0,1,,,,,,,,,0,,,74,0
73860,note_on,60,0,1,,,,,,,,,0,,,79,0
73860,note_on,0,0,3,,,,,,,,,2,,,61,36
73860,note_on,60,0,3,,,,,,,,,2,,,59,0
73860,note_on,0,0,1,,,,,,,,,0,,,76,49
73920,control_change,0,0,2,,,,,,,,,1,64,127,,
73920,note_on,0,0,2,,,,,,,,,1,,,81,36
73920,note_on,0,0,1,,,,,,,,,0,,,78,49
73920,note_on,60,0,3,,,,,,,,,2,,,61,0
73920,note_on,0,0,3,,,,,,,,,2,,,62,36
73920,note_on,60,0,1,,,,,,,,,0,,,76,0
73920,control_change,0,0,1,,,,,,,,,0,64,127,,
73920,note_on,120,0,2,,,,,,,,,1,,,83,0
73920,control_change,360,0,4,,,,,,,,,3,64,0,,
73980,note_on,60,0,1,,,,,,,,,0,,,78,0
73980,note_on,0,0,1,,,,,,,,,0,,,77,49
74040,note_on,60,0,1,,,,,,,,,0,,,77,0
74040,note_on,0,0,1,,,,,,,,,0,,,78,49
74100,note_on,60,0,1,,,,,,,,,0,,,78,0
74100,note_on,0,0,1,,,,,,,,,0,,,74,49
74160,note_on,0,0,1,,,,,,,,,0,,,71,49
74160,note_on,240,0,2,,,,,,,,,1,,,81,0
74160,note_on,60,0,1,,,,,,,,,0,,,74,0
74160,control_change,0,0,2,,,,,,,,,1,64,0,,
74160,note_on,0,0,2,,,,,,,,,1,,,79,36
74160,control_change,0,0,1,,,,,,,,,0,64,0,,
74220,note_on,60,0,1,,,,,,,,,0,,,71,0
74220,note_on,0,0,1,,,,,,,,,0,,,73,49
74280,note_on,60,0,1,,,,,,,,,0,,,73,0
74280,control_change,0,0,1,,,,,,,,,0,64,127,,
74280,note_on,0,0,1,,,,,,,,,0,,,74,49
74280,note_on,0,0,2,,,,,,,,,1,,,78,36
74280,note_on,0,0,4,,,,,,,,,3,,,50,36
74280,control_change,0,0,4,,,,,,,,,3,64,127,,
74280,note_on,360,0,4,,,,,,,,,3,,,50,0
74280,note_on,360,0,3,,,,,,,,,2,,,62,0
74280,note_on,0,0,3,,,,,,,,,2,,,62,36
74280,control_change,0,0,2,,,,,,,,,1,64,127,,
74280,control_change,0,0,3,,,,,,,,,2,64,127,,
74280,note_on,120,0,2,,,,,,,,,1,,,79,0
74340,note_on,0,0,1,,,,,,,,,0,,,73,49
74340,note_on,60,0,1,,,,,,,,,0,,,74,0
74400,note_on,60,0,1,,,,,,,,,0,,,73,0
74400,note_on,0,0,1,,,,,,,,,0,,,74,49
74460,note_on,0,0,1,,,,,,,,,0,,,69,49
74460,note_on,60,0,1,,,,,,,,,0,,,74,0
74520,control_change,0,0,3,,,,,,,,,2,64,0,,
74520,note_on,0,0,1,,,,,,,,,0,,,67,49
74520,note_on,0,0,3,,,,,,,,,2,,,59,36
74520,control_change,0,0,1,,,,,,,,,0,64,0,,
74520,note_on,60,0,1,,,,,,,,,0,,,69,0
74520,control_change,0,0,2,,,,,,,,,1,64,0,,
74520,note_on,240,0,2,,,,,,,,,1,,,78,0
74520,note_on,240,0,3,,,,,,,,,2,,,62,0
74520,note_on,0,0,2,,,,,,,,,1,,,76,36
74580,note_on,60,0,3,,,,,,,,,2,,,59,0
74580,note_on,0,0,1,,,,,,,,,0,,,69,49
74580,note_on,60,0,1,,,,,,,,,0,,,67,0
74580,note_on,0,0,3,,,,,,,,,2,,,61,36
74640,note_on,120,0,2,,,,,,,,,1,,,76,0
74640,note_on,0,0,2,,,,,,,,,1,,,66,36
74640,note_on,60,0,3,,,,,,,,,2,,,61,0
74640,note_on,0,0,3,,,,,,,,,2,,,62,36
74640,note_on,360,0,4,,,,,,,,,3,,,50,0
74640,note_on,60,0,1,,,,,,,,,0,,,69,0
74640,control_change,0,0,1,,,,,,,,,0,64,127,,
74640,note_on,0,0,1,,,,,,,,,0,,,74,49
74700,note_on,60,0,1,,,,,,,,,0,,,74,0
74700,note_on,0,0,1,,,,,,,,,0,,,73,49
74760,note_on,60,0,1,,,,,,,,,0,,,73,0
74760,note_on,0,0,1,,,,,,,,,0,,,74,49
74820,note_on,60,0,1,,,,,,,,,0,,,74,0
74820,note_on,0,0,1,,,,,,,,,0,,,76,49
74880,note_on,240,0,3,,,,,,,,,2,,,62,0
74880,note_on,240,0,2,,,,,,,,,1,,,66,0
74880,note_on,60,0,1,,,,,,,,,0,,,76,0
74880,note_on,0,0,1,,,,,,,,,0,,,74,49
74940,note_on,60,0,1,,,,,,,,,0,,,74,0
74940,note_on,0,0,1,,,,,,,,,0,,,76,49
75000,note_on,0,0,1,,,,,,,,,0,,,74,49
75000,note_on,60,0,1,,,,,,,,,0,,,76,0
75060,note_on,60,0,1,,,,,,,,,0,,,74,0
75060,note_on,0,0,1,,,,,,,,,0,,,76,49
75120,note_on,60,0,1,,,,,,,,,0,,,76,0
75120,note_on,0,0,1,,,,,,,,,0,,,74,49
75180,note_on,60,0,1,,,,,,,,,0,,,74,0
75180,note_on,0,0,1,,,,,,,,,0,,,76,49
75240,note_on,60,0,1,,,,,,,,,0,,,76,0
75240,note_on,0,0,1,,,,,,,,,0,,,74,49
75300,note_on,60,0,1,,,,,,,,,0,,,74,0
75300,note_on,0,0,1,,,,,,,,,0,,,76,49
75360,note_on,60,0,1,,,,,,,,,0,,,76,0
75360,note_on,0,0,1,,,,,,,,,0,,,78,49
75420,set_tempo,14820,1,0,,,,,,338983,,,,,,,
75420,note_on,60,0,1,,,,,,,,,0,,,78,0
75420,note_on,0,0,1,,,,,,,,,0,,,79,49
75480,note_on,60,0,1,,,,,,,,,0,,,79,0
75480,note_on,0,0,1,,,,,,,,,0,,,81,49
75480,set_tempo,60,1,0,,,,,,344828,,,,,,,
75540,note_on,60,0,1,,,,,,,,,0,,,81,0
75540,control_change,0,0,1,,,,,,,,,0,64,0,,
75540,note_on,0,0,1,,,,,,,,,0,,,83,49
75540,set_tempo,60,1,0,,,,,,350877,,,,,,,
75600,set_tempo,60,1,0,,,,,,359281,,,,,,,
75600,note_on,60,0,1,,,,,,,,,0,,,83,0
75600,note_on,0,0,1,,,,,,,,,0,,,84,36
75660,set_tempo,60,1,0,,,,,,365854,,,,,,,
75660,note_on,60,0,1,,,,,,,,,0,,,84,0
75660,note_on,0,0,1,,,,,,,,,0,,,85,36
75720,note_on,60,0,1,,,,,,,,,0,,,85,0
75720,control_change,840,0,3,,,,,,,,,2,64,127,,
75720,note_on,0,0,3,,,,,,,,,2,,,74,36
75720,note_on,0,0,1,,,,,,,,,0,,,86,36
75720,set_tempo,60,1,0,,,,,,372671,,,,,,,
75720,control_change,0,0,1,,,,,,,,,0,64,127,,
75780,note_on,60,0,1,,,,,,,,,0,,,86,0
75780,note_on,0,0,1,,,,,,,,,0,,,88,36
75780,set_tempo,60,1,0,,,,,,379747,,,,,,,
75780,note_on,60,0,3,,,,,,,,,2,,,74,0
75780,note_on,0,0,3,,,,,,,,,2,,,76,36
75840,note_on,60,0,1,,,,,,,,,0,,,88,0
75840,set_tempo,60,1,0,,,,,,389610,,,,,,,
75840,note_on,60,0,3,,,,,,,,,2,,,76,0
75840,note_on,0,0,3,,,,,,,,,2,,,74,36
75840,note_on,0,0,1,,,,,,,,,0,,,86,36
75900,note_on,60,0,1,,,,,,,,,0,,,86,0
75900,note_on,0,0,1,,,,,,,,,0,,,88,36
75900,note_on,0,0,3,,,,,,,,,2,,,76,36
75900,note_on,60,0,3,,,,,,,,,2,,,74,0
75960,note_on,60,0,3,,,,,,,,,2,,,76,0
75960,note_on,0,0,3,,,,,,,,,2,,,74,36
75960,note_on,0,0,1,,,,,,,,,0,,,86,36
75960,note_on,60,0,1,,,,,,,,,0,,,88,0
76020,note_on,60,0,3,,,,,,,,,2,,,74,0
76020,note_on,0,0,3,,,,,,,,,2,,,76,36
76020,note_on,60,0,1,,,,,,,,,0,,,86,0
76020,note_on,0,0,1,,,,,,,,,0,,,88,36
76080,note_on,60,0,3,,,,,,,,,2,,,76,0
76080,note_on,0,0,1,,,,,,,,,0,,,86,36
76080,time_signature,240,1,0,2,4,24,8,,,,,,,,,
76080,note_on,60,0,1,,,,,,,,,0,,,88,0
76080,note_on,0,0,3,,,,,,,,,2,,,74,36
76140,note_on,0,0,1,,,,,,,,,0,,,88,36
76140,note_on,60,0,1,,,,,,,,,0,,,86,0
76140,note_on,0,0,3,,,,,,,,,2,,,76,36
76140,note_on,60,0,3,,,,,,,,,2,,,74,0
76200,note_on,0,0,1,,,,,,,,,0,,,86,36
76200,note_on,60,0,1,,,,,,,,,0,,,88,0
76200,note_on,0,0,3,,,,,,,,,2,,,74,36
76200,note_on,60,0,3,,,,,,,,,2,,,76,0
76260,note_on,0,0,1,,,,,,,,,0,,,88,36
76260,note_on,60,0,3,,,,,,,,,2,,,74,0
76260,control_change,0,0,3,,,,,,,,,2,64,0,,
76260,note_on,60,0,1,,,,,,,,,0,,,86,0
76260,control_change,0,0,1,,,,,,,,,0,64,0,,
76260,note_on,0,0,3,,,,,,,,,2,,,76,36
76320,note_on,0,0,1,,,,,,,,,0,,,86,49
76320,note_on,60,0,1,,,,,,,,,0,,,88,0
76320,time_signature,240,1,0,1,4,24,8,,,,,,,,,
76320,set_tempo,0,1,0,,,,,,333333,,,,,,,
76320,key_signature,0,1,0,,,,,G,,,,,,,,
76320,note_on,0,0,3,,,,,,,,,2,,,74,36
76320,note_on,60,0,3,,,,,,,,,2,,,76,0
76380,note_on,0,0,1,,,,,,,,,0,,,83,49
76380,note_on,60,0,1,,,,,,,,,0,,,86,0
76380,note_on,60,0,3,,,,,,,,,2,,,74,0
76380,note_on,0,0,3,,,,,,,,,2,,,71,36
76440,note_on,60,0,3,,,,,,,,,2,,,71,0
76440,control_change,0,0,3,,,,,,,,,2,64,127,,
76440,note_on,60,0,1,,,,,,,,,0,,,83,0
76440,control_change,0,0,1,,,,,,,,,0,64,127,,
76440,note_on,0,0,3,,,,,,,,,2,,,74,36
76440,note_on,0,0,1,,,,,,,,,0,,,86,49
76440,time_signature,120,1,0,3,4,24,8,,,,,,,,,
76620,note_on,180,0,3,,,,,,,,,2,,,74,0
76620,note_on,0,0,3,,,,,,,,,2,,,71,36
76620,note_on,0,0,1,,,,,,,,,0,,,83,49
76620,note_on,180,0,1,,,,,,,,,0,,,86,0
76680,note_on,0,0,1,,,,,,,,,0,,,84,49
76680,note_on,60,0,1,,,,,,,,,0,,,83,0
76680,note_on,60,0,3,,,,,,,,,2,,,71,0
76680,note_on,0,0,3,,,,,,,,,2,,,72,36
76740,note_on,0,0,1,,,,,,,,,0,,,86,49
76740,note_on,60,0,1,,,,,,,,,0,,,84,0
76740,note_on,0,0,3,,,,,,,,,2,,,74,36
76740,note_on,60,0,3,,,,,,,,,2,,,72,0
76800,note_on,60,0,1,,,,,,,,,0,,,86,0
76800,note_on,0,0,3,,,,,,,,,2,,,62,36
76800,control_change,0,0,3,,,,,,,,,2,64,0,,
76800,note_on,60,0,3,,,,,,,,,2,,,74,0
76800,note_on,0,0,1,,,,,,,,,0,,,74,49
76800,control_change,0,0,1,,,,,,,,,0,64,0,,
76812,note_on,12,0,3,,,,,,,,,2,,,62,0
76812,note_on,12,0,1,,,,,,,,,0,,,74,0
76920,note_on,108,0,1,,,,,,,,,0,,,74,49
76920,note_on,108,0,3,,,,,,,,,2,,,62,36
76932,note_on,12,0,3,,,,,,,,,2,,,62,0
76932,note_on,12,0,1,,,,,,,,,0,,,74,0
77040,note_on,108,0,3,,,,,,,,,2,,,67,36
77040,note_on,108,0,1,,,,,,,,,0,,,79,49
77100,note_on,60,0,1,,,,,,,,,0,,,79,0
77100,note_on,0,0,1,,,,,,,,,0,,,74,49
77100,note_on,0,0,3,,,,,,,,,2,,,62,36
77100,note_on,60,0,3,,,,,,,,,2,,,67,0
77160,control_change,0,0,1,,,,,,,,,0,64,127,,
77160,control_change,0,0,3,,,,,,,,,2,64,127,,
77160,note_on,0,0,3,,,,,,,,,2,,,67,36
77160,note_on,60,0,3,,,,,,,,,2,,,62,0
77160,note_on,0,0,1,,,,,,,,,0,,,79,49
77160,note_on,60,0,1,,,,,,,,,0,,,74,0
77340,note_on,180,0,3,,,,,,,,,2,,,67,0
77340,note_on,0,0,1,,,,,,,,,0,,,71,49
77340,note_on,0,0,3,,,,,,,,,2,,,59,36
77340,note_on,180,0,1,,,,,,,,,0,,,79,0
77400,note_on,60,0,3,,,,,,,,,2,,,59,0
77400,note_on,0,0,3,,,,,,,,,2,,,60,36
77400,note_on,0,0,1,,,,,,,,,0,,,72,49
77400,note_on,60,0,1,,,,,,,,,0,,,71,0
77460,note_on,60,0,3,,,,,,,,,2,,,60,0
77460,note_on,60,0,1,,,,,,,,,0,,,72,0
77460,note_on,0,0,3,,,,,,,,,2,,,62,36
77460,note_on,0,0,1,,,,,,,,,0,,,74,49
77520,control_change,0,0,3,,,,,,,,,2,64,0,,
77520,note_on,0,0,3,,,,,,,,,2,,,55,36
77520,control_change,0,0,1,,,,,,,,,0,64,0,,
77520,note_on,60,0,1,,,,,,,,,0,,,74,0
77520,note_on,0,0,1,,,,,,,,,0,,,67,49
77520,note_on,60,0,3,,,,,,,,,2,,,62,0
77532,note_on,12,0,3,,,,,,,,,2,,,55,0
77532,note_on,12,0,1,,,,,,,,,0,,,67,0
77640,note_on,108,0,3,,,,,,,,,2,,,55,36
77640,note_on,108,0,1,,,,,,,,,0,,,67,49
77652,note_on,12,0,3,,,,,,,,,2,,,55,0
77652,note_on,12,0,1,,,,,,,,,0,,,67,0
77760,note_on,0,0,2,,,,,,,,,1,,,62,75
77760,note_on,2880,0,2,,,,,,,,,1,,,59,75
77760,note_on,0,0,3,,,,,,,,,2,,,55,75
77760,note_on,108,0,3,,,,,,,,,2,,,43,75
77760,note_on,108,0,1,,,,,,,,,0,,,71,88
77760,note_on,0,0,3,,,,,,,,,2,,,50,75
77820,note_on,0,0,1,,,,,,,,,0,,,67,88
77820,note_on,60,0,1,,,,,,,,,0,,,71,0
77880,note_on,0,0,3,,,,,,,,,2,,,50,0
77880,note_on,0,0,1,,,,,,,,,0,,,71,114
77880,note_on,0,0,2,,,,,,,,,1,,,62,75
77880,note_on,0,0,2,,,,,,,,,1,,,59,75
77880,note_on,0,0,2,,,,,,,,,1,,,59,0
77880,note_on,120,0,2,,,,,,,,,1,,,62,0
77880,note_on,120,0,3,,,,,,,,,2,,,55,0
77880,note_on,0,0,3,,,,,,,,,2,,,55,101
77880,note_on,0,0,3,,,,,,,,,2,,,50,96
77880,note_on,0,0,3,,,,,,,,,2,,,43,91
77880,note_on,60,0,1,,,,,,,,,0,,,67,0
77880,note_on,0,0,3,,,,,,,,,2,,,43,0
78120,note_on,0,0,3,,,,,,,,,2,,,43,0
78120,note_on,0,0,1,,,,,,,,,0,,,69,49
78120,note_on,0,0,3,,,,,,,,,2,,,50,0
78120,note_on,240,0,3,,,,,,,,,2,,,55,0
78120,note_on,0,0,2,,,,,,,,,1,,,62,36
78120,note_on,0,0,2,,,,,,,,,1,,,60,36
78120,note_on,0,0,2,,,,,,,,,1,,,59,0
78120,note_on,240,0,2,,,,,,,,,1,,,62,0
78120,note_on,0,0,3,,,,,,,,,2,,,50,36
78120,note_on,0,0,3,,,,,,,,,2,,,54,36
78120,note_on,240,0,1,,,,,,,,,0,,,71,0
78120,note_on,0,0,3,,,,,,,,,2,,,45,36
78180,note_on,60,0,1,,,,,,,,,0,,,69,0
78180,note_on,0,0,1,,,,,,,,,0,,,66,49
78240,note_on,120,0,3,,,,,,,,,2,,,54,0
78240,note_on,0,0,2,,,,,,,,,1,,,60,0
78240,note_on,120,0,2,,,,,,,,,1,,,62,0
78240,note_on,60,0,1,,,,,,,,,0,,,66,0
78240,control_change,0,0,1,,,,,,,,,0,64,127,,
78240,note_on,0,0,1,,,,,,,,,0,,,62,49
78240,note_on,0,0,1,,,,,,,,,0,,,74,49
78240,note_on,0,0,3,,,,,,,,,2,,,50,0
78240,note_on,0,0,3,,,,,,,,,2,,,55,36
78240,control_change,0,0,3,,,,,,,,,2,64,127,,
78240,note_on,0,0,3,,,,,,,,,2,,,47,36
78240,note_on,0,0,3,,,,,,,,,2,,,50,36
78240,note_on,0,0,3,,,,,,,,,2,,,45,0
78252,note_on,0,0,1,,,,,,,,,0,,,62,0
78252,note_on,12,0,1,,,,,,,,,0,,,74,0
78252,note_on,12,0,3,,,,,,,,,2,,,55,0
78252,note_on,0,0,3,,,,,,,,,2,,,50,0
78252,note_on,0,0,3,,,,,,,,,2,,,47,0
78360,note_on,0,0,1,,,,,,,,,0,,,74,49
78360,note_on,108,0,1,,,,,,,,,0,,,62,49
78360,note_on,108,0,3,,,,,,,,,2,,,47,36
78360,note_on,0,0,3,,,,,,,,,2,,,50,36
78360,note_on,0,0,3,,,,,,,,,2,,,55,36
78372,note_on,0,0,3,,,,,,,,,2,,,50,0
78372,note_on,0,0,1,,,,,,,,,0,,,62,0
78372,note_on,12,0,3,,,,,,,,,2,,,55,0
78372,note_on,0,0,3,,,,,,,,,2,,,47,0
78372,note_on,12,0,1,,,,,,,,,0,,,74,0
78480,control_change,108,0,1,,,,,,,,,0,64,0,,
78480,note_on,0,0,1,,,,,,,,,0,,,60,49
78480,note_on,0,0,1,,,,,,,,,0,,,62,49
78480,control_change,108,0,3,,,,,,,,,2,64,0,,
78480,note_on,0,0,3,,,,,,,,,2,,,50,36
78480,note_on,0,0,3,,,,,,,,,2,,,54,36
78486,note_on,0,0,3,,,,,,,,,2,,,50,0
78486,note_on,6,0,3,,,,,,,,,2,,,54,0
78486,note_on,0,0,1,,,,,,,,,0,,,60,0
78486,note_on,6,0,1,,,,,,,,,0,,,62,0
78540,note_on,54,0,1,,,,,,,,,0,,,60,49
78540,note_on,0,0,1,,,,,,,,,0,,,62,49
78540,note_on,0,0,1,,,,,,,,,0,,,64,49
78540,note_on,0,0,3,,,,,,,,,2,,,55,36
78540,note_on,54,0,3,,,,,,,,,2,,,50,36
78546,note_on,6,0,1,,,,,,,,,0,,,64,0
78546,note_on,0,0,1,,,,,,,,,0,,,62,0
78546,note_on,0,0,1,,,,,,,,,0,,,60,0
78546,note_on,0,0,3,,,,,,,,,2,,,50,0
78546,note_on,6,0,3,,,,,,,,,2,,,55,0
78600,note_on,0,0,3,,,,,,,,,2,,,50,36
78600,note_on,0,0,3,,,,,,,,,2,,,57,36
78600,control_change,54,0,3,,,,,,,,,2,64,127,,
78600,note_on,0,0,1,,,,,,,,,0,,,66,49
78600,note_on,0,0,1,,,,,,,,,0,,,62,49
78600,control_change,54,0,1,,,,,,,,,0,64,127,,
78600,note_on,0,0,1,,,,,,,,,0,,,60,49
78612,note_on,12,0,1,,,,,,,,,0,,,66,0
78612,note_on,0,0,1,,,,,,,,,0,,,60,0
78612,note_on,0,0,1,,,,,,,,,0,,,62,0
78612,note_on,0,0,3,,,,,,,,,2,,,50,0
78612,note_on,12,0,3,,,,,,,,,2,,,57,0
78720,note_on,0,0,1,,,,,,,,,0,,,66,49
78720,note_on,0,0,1,,,,,,,,,0,,,62,49
78720,note_on,0,0,3,,,,,,,,,2,,,57,36
78720,note_on,108,0,3,,,,,,,,,2,,,50,36
78720,note_on,108,0,1,,,,,,,,,0,,,60,49
78732,note_on,0,0,1,,,,,,,,,0,,,62,0
78732,note_on,12,0,1,,,,,,,,,0,,,66,0
78732,note_on,0,0,3,,,,,,,,,2,,,50,0
78732,note_on,12,0,3,,,,,,,,,2,,,57,0
78732,note_on,0,0,1,,,,,,,,,0,,,60,0
78840,note_on,0,0,3,,,,,,,,,2,,,57,49
78840,note_on,0,0,3,,,,,,,,,2,,,50,49
78840,control_change,108,0,3,,,,,,,,,2,64,0,,
78840,control_change,108,0,1,,,,,,,,,0,64,0,,
78840,note_on,0,0,1,,,,,,,,,0,,,62,62
78840,note_on,0,0,1,,,,,,,,,0,,,66,62
78840,note_on,0,0,1,,,,,,,,,0,,,74,62
78846,note_on,6,0,1,,,,,,,,,0,,,74,0
78846,note_on,0,0,1,,,,,,,,,0,,,66,0
78846,note_on,0,0,1,,,,,,,,,0,,,62,0
78846,note_on,0,0,3,,,,,,,,,2,,,50,0
78846,note_on,6,0,3,,,,,,,,,2,,,57,0
78900,note_on,0,0,1,,,,,,,,,0,,,74,62
78900,note_on,0,0,1,,,,,,,,,0,,,67,62
78900,note_on,54,0,1,,,,,,,,,0,,,62,62
78900,note_on,0,0,3,,,,,,,,,2,,,59,49
78900,note_on,54,0,3,,,,,,,,,2,,,50,49
78906,note_on,0,0,1,,,,,,,,,0,,,67,0
78906,note_on,0,0,1,,,,,,,,,0,,,62,0
78906,note_on,6,0,3,,,,,,,,,2,,,59,0
78906,note_on,0,0,3,,,,,,,,,2,,,50,0
78906,note_on,6,0,1,,,,,,,,,0,,,74,0
78960,control_change,54,0,3,,,,,,,,,2,64,127,,
78960,note_on,0,0,3,,,,,,,,,2,,,50,62
78960,note_on,0,0,1,,,,,,,,,0,,,69,75
78960,note_on,0,0,1,,,,,,,,,0,,,74,75
78960,note_on,0,0,3,,,,,,,,,2,,,60,62
78960,note_on,0,0,1,,,,,,,,,0,,,62,75
78960,control_change,54,0,1,,,,,,,,,0,64,127,,
78972,note_on,12,0,1,,,,,,,,,0,,,74,0
78972,note_on,0,0,1,,,,,,,,,0,,,69,0
78972,note_on,0,0,1,,,,,,,,,0,,,62,0
78972,note_on,0,0,3,,,,,,,,,2,,,50,0
78972,note_on,12,0,3,,,,,,,,,2,,,60,0
79080,note_on,0,0,1,,,,,,,,,0,,,69,75
79080,note_on,108,0,1,,,,,,,,,0,,,62,75
79080,note_on,0,0,1,,,,,,,,,0,,,74,75
79080,note_on,108,0,3,,,,,,,,,2,,,50,62
79080,note_on,0,0,3,,,,,,,,,2,,,60,62
79092,note_on,0,0,1,,,,,,,,,0,,,69,0
79092,note_on,0,0,1,,,,,,,,,0,,,62,0
79092,note_on,12,0,3,,,,,,,,,2,,,60,0
79092,note_on,0,0,3,,,,,,,,,2,,,50,0
79092,note_on,12,0,1,,,,,,,,,0,,,74,0
79200,note_on,0,0,3,,,,,,,,,2,,,60,75
79200,note_on,0,0,3,,,,,,,,,2,,,55,75
79200,note_on,0,0,1,,,,,,,,,0,,,76,88
79200,note_on,0,0,2,,,,,,,,,1,,,67,75
79200,note_on,960,0,2,,,,,,,,,1,,,64,75
79200,note_on,0,0,3,,,,,,,,,2,,,48,75
79200,control_change,108,0,3,,,,,,,,,2,64,0,,
79200,control_change,108,0,1,,,,,,,,,0,64,0,,
79260,note_on,60,0,1,,,,,,,,,0,,,76,0
79260,note_on,0,0,1,,,,,,,,,0,,,72,88
79320,note_on,0,0,3,,,,,,,,,2,,,60,75
79320,note_on,0,0,3,,,,,,,,,2,,,55,75
79320,note_on,0,0,3,,,,,,,,,2,,,48,75
79320,note_on,120,0,2,,,,,,,,,1,,,67,0
79320,note_on,0,0,3,,,,,,,,,2,,,55,0
79320,note_on,120,0,3,,,,,,,,,2,,,60,0
79320,note_on,0,0,2,,,,,,,,,1,,,64,75
79320,note_on,0,0,2,,,,,,,,,1,,,64,0
79320,note_on,60,0,1,,,,,,,,,0,,,72,0
79320,note_on,0,0,1,,,,,,,,,0,,,67,106
79320,note_on,0,0,3,,,,,,,,,2,,,48,0
79320,note_on,0,0,1,,,,,,,,,0,,,76,114
79560,note_on,240,0,3,,,,,,,,,2,,,60,0
79560,note_on,0,0,3,,,,,,,,,2,,,55,0
79560,note_on,0,0,3,,,,,,,,,2,,,48,0
79560,note_on,0,0,3,,,,,,,,,2,,,59,36
79560,note_on,0,0,3,,,,,,,,,2,,,50,36
79560,note_on,0,0,3,,,,,,,,,2,,,55,36
79560,note_on,0,0,2,,,,,,,,,1,,,65,36
79560,note_on,240,0,1,,,,,,,,,0,,,76,0
79560,note_on,0,0,1,,,,,,,,,0,,,67,0
79560,note_on,0,0,1,,,,,,,,,0,,,74,49
79560,note_on,240,0,2,,,,,,,,,1,,,64,0
79560,note_on,0,0,2,,,,,,,,,1,,,67,36
79620,note_on,60,0,1,,,,,,,,,0,,,74,0
79620,note_on,0,0,1,,,,,,,,,0,,,71,49
79680,note_on,0,0,2,,,,,,,,,1,,,67,36
79680,control_change,0,0,2,,,,,,,,,1,64,127,,
79680,note_on,120,0,3,,,,,,,,,2,,,59,0
79680,note_on,0,0,3,,,,,,,,,2,,,55,0
79680,note_on,0,0,3,,,,,,,,,2,,,50,0
79680,control_change,0,0,3,,,,,,,,,2,64,127,,
79680,note_on,0,0,3,,,,,,,,,2,,,52,36
79680,note_on,0,0,3,,,,,,,,,2,,,55,36
79680,note_on,0,0,3,,,,,,,,,2,,,60,36
79680,note_on,0,0,2,,,,,,,,,1,,,65,0
79680,note_on,120,0,2,,,,,,,,,1,,,67,0
79680,note_on,0,0,1,,,,,,,,,0,,,79,49
79680,control_change,0,0,1,,,,,,,,,0,64,127,,
79680,note_on,60,0,1,,,,,,,,,0,,,71,0
79692,note_on,12,0,3,,,,,,,,,2,,,60,0
79692,note_on,0,0,3,,,,,,,,,2,,,52,0
79692,note_on,12,0,1,,,,,,,,,0,,,79,0
79692,note_on,12,0,2,,,,,,,,,1,,,67,0
79692,note_on,0,0,3,,,,,,,,,2,,,55,0
79800,control_change,108,0,2,,,,,,,,,1,64,0,,
79800,note_on,108,0,1,,,,,,,,,0,,,79,49
79800,note_on,0,0,2,,,,,,,,,1,,,67,36
79800,note_on,108,0,3,,,,,,,,,2,,,52,36
79800,note_on,0,0,3,,,,,,,,,2,,,55,36
79800,note_on,0,0,3,,,,,,,,,2,,,60,36
79812,note_on,12,0,2,,,,,,,,,1,,,67,0
79812,note_on,12,0,1,,,,,,,,,0,,,79,0
79812,note_on,0,0,3,,,,,,,,,2,,,55,0
79812,note_on,12,0,3,,,,,,,,,2,,,60,0
79812,note_on,0,0,3,,,,,,,,,2,,,52,0
79920,note_on,0,0,3,,,,,,,,,2,,,72,36
79920,note_on,0,0,1,,,,,,,,,0,,,88,49
79920,control_change,108,0,1,,,,,,,,,0,64,0,,
79920,control_change,108,0,3,,,,,,,,,2,64,0,,
79980,note_on,60,0,1,,,,,,,,,0,,,88,0
79980,note_on,60,0,3,,,,,,,,,2,,,72,0
79980,note_on,0,0,3,,,,,,,,,2,,,69,36
79980,note_on,0,0,1,,,,,,,,,0,,,84,49
80040,note_on,60,0,3,,,,,,,,,2,,,69,0
80040,control_change,0,0,3,,,,,,,,,2,64,127,,
80040,note_on,0,0,3,,,,,,,,,2,,,72,88
80040,note_on,0,0,1,,,,,,,,,0,,,88,75
80040,note_on,60,0,1,,,,,,,,,0,,,84,0
80040,control_change,0,0,1,,,,,,,,,0,64,127,,
80220,note_on,180,0,3,,,,,,,,,2,,,72,0
80220,note_on,0,0,3,,,,,,,,,2,,,69,36
80220,note_on,0,0,1,,,,,,,,,0,,,84,49
80220,note_on,180,0,1,,,,,,,,,0,,,88,0
80280,note_on,60,0,1,,,,,,,,,0,,,84,0
80280,note_on,0,0,1,,,,,,,,,0,,,86,49
80280,note_on,0,0,3,,,,,,,,,2,,,71,36
80280,note_on,60,0,3,,,,,,,,,2,,,69,0
80340,note_on,60,0,1,,,,,,,,,0,,,86,0
80340,control_change,0,0,1,,,,,,,,,0,64,0,,
80340,note_on,0,0,1,,,,,,,,,0,,,88,49
80340,note_on,60,0,3,,,,,,,,,2,,,71,0
80340,control_change,0,0,3,,,,,,,,,2,64,0,,
80340,note_on,0,0,3,,,,,,,,,2,,,72,36
80400,note_on,0,0,4,,,,,,,,,3,,,62,75
80400,note_on,0,0,3,,,,,,,,,2,,,66,36
80400,control_change,0,0,3,,,,,,,,,2,64,127,,
80400,note_on,60,0,3,,,,,,,,,2,,,72,0
80400,control_change,5760,0,4,,,,,,,,,3,64,127,,
80400,note_on,0,0,1,,,,,,,,,0,,,81,49
80400,control_change,0,0,1,,,,,,,,,0,64,127,,
80400,note_on,60,0,1,,,,,,,,,0,,,88,0
80412,note_on,12,0,1,,,,,,,,,0,,,81,0
80520,note_on,120,0,3,,,,,,,,,2,,,66,0
80520,note_on,0,0,3,,,,,,,,,2,,,66,36
80520,note_on,108,0,1,,,,,,,,,0,,,81,49
80532,note_on,12,0,1,,,,,,,,,0,,,81,0
80580,note_on,180,0,4,,,,,,,,,3,,,62,0
80580,note_on,0,0,4,,,,,,,,,3,,,64,49
80640,note_on,60,0,4,,,,,,,,,3,,,64,0
80640,note_on,120,0,3,,,,,,,,,2,,,66,0
80640,control_change,0,0,3,,,,,,,,,2,64,0,,
80640,note_on,0,0,4,,,,,,,,,3,,,62,49
80640,control_change,108,0,1,,,,,,,,,0,64,0,,
80700,note_on,60,0,4,,,,,,,,,3,,,62,0
80700,control_change,0,0,4,,,,,,,,,3,64,0,,
80700,note_on,0,0,4,,,,,,,,,3,,,60,49
80760,note_on,0,0,1,,,,,,,,,0,,,86,101
80760,control_change,120,0,1,,,,,,,,,0,64,127,,
80760,note_on,60,0,4,,,,,,,,,3,,,60,0
80760,note_on,0,0,4,,,,,,,,,3,,,59,49
80760,control_change,0,0,4,,,,,,,,,3,64,127,,
80760,note_on,0,0,3,,,,,,,,,2,,,71,88
80760,control_change,120,0,3,,,,,,,,,2,64,127,,
80764,note_on,4,0,4,,,,,,,,,3,,,59,0
80880,note_on,116,0,4,,,,,,,,,3,,,59,49
80884,note_on,4,0,4,,,,,,,,,3,,,59,0
80940,note_on,0,0,1,,,,,,,,,0,,,83,49
80940,note_on,180,0,1,,,,,,,,,0,,,86,0
80940,note_on,0,0,3,,,,,,,,,2,,,67,36
80940,note_on,180,0,3,,,,,,,,,2,,,71,0
81000,note_on,0,0,1,,,,,,,,,0,,,84,49
81000,control_change,116,0,4,,,,,,,,,3,64,0,,
81000,note_on,60,0,3,,,,,,,,,2,,,67,0
81000,note_on,0,0,3,,,,,,,,,2,,,69,36
81000,note_on,60,0,1,,,,,,,,,0,,,83,0
81060,note_on,0,0,1,,,,,,,,,0,,,86,49
81060,control_change,0,0,1,,,,,,,,,0,64,0,,
81060,note_on,60,0,1,,,,,,,,,0,,,84,0
81060,note_on,60,0,3,,,,,,,,,2,,,69,0
81060,control_change,0,0,3,,,,,,,,,2,64,0,,
81060,note_on,0,0,3,,,,,,,,,2,,,71,36
81120,note_on,60,0,3,,,,,,,,,2,,,71,0
81120,control_change,0,0,3,,,,,,,,,2,64,127,,
81120,note_on,0,0,3,,,,,,,,,2,,,64,36
81120,note_on,0,0,1,,,,,,,,,0,,,79,49
81120,control_change,120,0,4,,,,,,,,,3,64,127,,
81120,note_on,60,0,1,,,,,,,,,0,,,86,0
81120,control_change,0,0,1,,,,,,,,,0,64,127,,
81120,note_on,0,0,4,,,,,,,,,3,,,52,101
81124,note_on,4,0,3,,,,,,,,,2,,,64,0
81132,note_on,12,0,1,,,,,,,,,0,,,79,0
81240,note_on,108,0,1,,,,,,,,,0,,,79,49
81240,note_on,116,0,3,,,,,,,,,2,,,64,36
81244,note_on,4,0,3,,,,,,,,,2,,,64,0
81244,note_on,4,0,1,,,,,,,,,0,,,79,0
81300,note_on,180,0,4,,,,,,,,,3,,,52,0
81300,note_on,0,0,4,,,,,,,,,3,,,54,49
81360,note_on,0,0,4,,,,,,,,,3,,,55,49
81360,note_on,60,0,4,,,,,,,,,3,,,54,0
81360,control_change,116,0,3,,,,,,,,,2,64,0,,
81360,control_change,116,0,1,,,,,,,,,0,64,0,,
81420,control_change,0,0,4,,,,,,,,,3,64,0,,
81420,note_on,60,0,4,,,,,,,,,3,,,55,0
81420,note_on,0,0,4,,,,,,,,,3,,,56,49
81480,control_change,120,0,1,,,,,,,,,0,64,127,,
81480,note_on,0,0,1,,,,,,,,,0,,,78,75
81480,control_change,0,0,4,,,,,,,,,3,64,127,,
81480,note_on,0,0,4,,,,,,,,,3,,,57,49
81480,note_on,0,0,3,,,,,,,,,2,,,62,62
81480,control_change,120,0,3,,,,,,,,,2,64,127,,
81480,note_on,60,0,4,,,,,,,,,3,,,56,0
81492,note_on,12,0,4,,,,,,,,,3,,,57,0
81600,note_on,108,0,4,,,,,,,,,3,,,57,49
81604,note_on,4,0,4,,,,,,,,,3,,,57,0
81660,note_on,0,0,3,,,,,,,,,2,,,59,36
81660,note_on,180,0,1,,,,,,,,,0,,,78,0
81660,note_on,0,0,1,,,,,,,,,0,,,74,49
81660,note_on,180,0,3,,,,,,,,,2,,,62,0
81720,control_change,116,0,4,,,,,,,,,3,64,0,,
81720,note_on,60,0,3,,,,,,,,,2,,,59,0
81720,note_on,0,0,3,,,,,,,,,2,,,61,36
81720,note_on,60,0,1,,,,,,,,,0,,,74,0
81720,note_on,0,0,1,,,,,,,,,0,,,76,49
81780,note_on,60,0,1,,,,,,,,,0,,,76,0
81780,control_change,0,0,1,,,,,,,,,0,64,0,,
81780,note_on,0,0,1,,,,,,,,,0,,,78,49
81780,note_on,0,0,3,,,,,,,,,2,,,62,36
81780,control_change,0,0,3,,,,,,,,,2,64,0,,
81780,note_on,60,0,3,,,,,,,,,2,,,61,0
81840,note_on,60,0,3,,,,,,,,,2,,,62,0
81840,control_change,120,0,4,,,,,,,,,3,64,127,,
81840,note_on,60,0,1,,,,,,,,,0,,,78,0
81840,control_change,0,0,1,,,,,,,,,0,64,127,,
81840,note_on,0,0,1,,,,,,,,,0,,,79,88
81840,note_on,0,0,3,,,,,,,,,2,,,64,49
81840,control_change,0,0,3,,,,,,,,,2,64,127,,
81840,note_on,0,0,4,,,,,,,,,3,,,57,49
81852,note_on,12,0,4,,,,,,,,,3,,,57,0
81960,note_on,108,0,4,,,,,,,,,3,,,57,49
81964,note_on,4,0,4,,,,,,,,,3,,,57,0
82020,note_on,0,0,1,,,,,,,,,0,,,76,62
82020,note_on,180,0,1,,,,,,,,,0,,,79,0
82020,note_on,180,0,3,,,,,,,,,2,,,64,0
82020,note_on,0,0,3,,,,,,,,,2,,,61,49
82080,control_change,116,0,4,,,,,,,,,3,64,0,,
82080,note_on,0,0,1,,,,,,,,,0,,,78,62
82080,note_on,60,0,1,,,,,,,,,0,,,76,0
82080,note_on,0,0,3,,,,,,,,,2,,,62,49
82080,note_on,60,0,3,,,,,,,,,2,,,61,0
82140,note_on,60,0,3,,,,,,,,,2,,,62,0
82140,control_change,0,0,3,,,,,,,,,2,64,0,,
82140,note_on,0,0,3,,,,,,,,,2,,,64,49
82140,note_on,60,0,1,,,,,,,,,0,,,78,0
82140,control_change,0,0,1,,,,,,,,,0,64,0,,
82140,note_on,0,0,1,,,,,,,,,0,,,79,62
82200,note_on,60,0,1,,,,,,,,,0,,,79,0
82200,note_on,0,0,4,,,,,,,,,3,,,57,49
82200,control_change,120,0,4,,,,,,,,,3,64,127,,
82200,control_change,0,0,1,,,,,,,,,0,64,127,,
82200,note_on,0,0,1,,,,,,,,,0,,,81,62
82200,note_on,60,0,3,,,,,,,,,2,,,64,0
82200,control_change,0,0,3,,,,,,,,,2,64,127,,
82200,note_on,0,0,3,,,,,,,,,2,,,66,49
82212,note_on,12,0,1,,,,,,,,,0,,,81,0
82212,note_on,12,0,3,,,,,,,,,2,,,66,0
82320,note_on,108,0,1,,,,,,,,,0,,,81,62
82320,note_on,108,0,3,,,,,,,,,2,,,66,49
82332,note_on,12,0,1,,,,,,,,,0,,,81,0
82332,note_on,12,0,3,,,,,,,,,2,,,66,0
82380,note_on,0,0,4,,,,,,,,,3,,,59,62
82380,note_on,180,0,4,,,,,,,,,3,,,57,0
82440,note_on,0,0,4,,,,,,,,,3,,,61,62
82440,note_on,60,0,4,,,,,,,,,3,,,59,0
82440,control_change,108,0,3,,,,,,,,,2,64,0,,
82440,control_change,108,0,1,,,,,,,,,0,64,0,,
82500,control_change,0,0,4,,,,,,,,,3,64,0,,
82500,note_on,60,0,4,,,,,,,,,3,,,61,0
82500,note_on,0,0,4,,,,,,,,,3,,,62,62
82560,note_on,60,0,4,,,,,,,,,3,,,62,0
82560,note_on,0,0,3,,,,,,,,,2,,,64,62
82560,control_change,2748,0,2,,,,,,,,,1,64,127,,
82560,control_change,120,0,1,,,,,,,,,0,64,127,,
82560,note_on,0,0,1,,,,,,,,,0,,,81,75
82560,note_on,0,0,3,,,,,,,,,2,,,67,62
82560,control_change,120,0,3,,,,,,,,,2,64,127,,
82560,note_on,0,0,2,,,,,,,,,1,,,69,75
82572,note_on,0,0,3,,,,,,,,,2,,,64,0
82572,note_on,12,0,3,,,,,,,,,2,,,67,0
82620,note_on,60,0,2,,,,,,,,,1,,,69,0
82620,note_on,0,0,2,,,,,,,,,1,,,71,75
82680,control_change,0,0,2,,,,,,,,,1,64,0,,
82680,note_on,0,0,2,,,,,,,,,1,,,72,75
82680,note_on,60,0,2,,,,,,,,,1,,,71,0
82680,note_on,108,0,3,,,,,,,,,2,,,64,62
82680,note_on,0,0,3,,,,,,,,,2,,,67,62
82692,note_on,12,0,3,,,,,,,,,2,,,67,0
82692,note_on,0,0,3,,,,,,,,,2,,,64,0
82740,note_on,180,0,1,,,,,,,,,0,,,81,0
82740,note_on,0,0,1,,,,,,,,,0,,,82,75
82740,note_on,0,0,1,,,,,,,,,0,,,73,75
82740,note_on,60,0,2,,,,,,,,,1,,,72,0
82800,note_on,0,0,1,,,,,,,,,0,,,83,75
82800,note_on,0,0,1,,,,,,,,,0,,,74,75
82800,note_on,0,0,1,,,,,,,,,0,,,73,0
82800,note_on,60,0,1,,,,,,,,,0,,,82,0
82800,control_change,108,0,3,,,,,,,,,2,64,0,,
82860,control_change,0,0,1,,,,,,,,,0,64,0,,
82860,note_on,0,0,1,,,,,,,,,0,,,85,75
82860,note_on,0,0,1,,,,,,,,,0,,,76,75
82860,note_on,0,0,1,,,,,,,,,0,,,74,0
82860,note_on,60,0,1,,,,,,,,,0,,,83,0
82920,note_on,0,0,1,,,,,,,,,0,,,76,0
82920,control_change,0,0,1,,,,,,,,,0,64,127,,
82920,note_on,0,0,1,,,,,,,,,0,,,86,88
82920,note_on,0,0,1,,,,,,,,,0,,,77,88
82920,note_on,60,0,1,,,,,,,,,0,,,85,0
82920,note_on,0,0,3,,,,,,,,,2,,,71,75
82920,note_on,0,0,3,,,,,,,,,2,,,68,75
82920,control_change,120,0,3,,,,,,,,,2,64,127,,
82932,note_on,12,0,3,,,,,,,,,2,,,71,0
82932,note_on,12,0,1,,,,,,,,,0,,,86,0
82932,note_on,0,0,1,,,,,,,,,0,,,77,0
82932,note_on,0,0,3,,,,,,,,,2,,,68,0
83040,note_on,108,0,3,,,,,,,,,2,,,68,75
83040,note_on,0,0,3,,,,,,,,,2,,,71,75
83040,note_on,108,0,1,,,,,,,,,0,,,77,88
83040,note_on,0,0,1,,,,,,,,,0,,,86,88
83052,note_on,0,0,1,,,,,,,,,0,,,77,0
83052,note_on,12,0,3,,,,,,,,,2,,,71,0
83052,note_on,0,0,3,,,,,,,,,2,,,68,0
83052,note_on,12,0,1,,,,,,,,,0,,,86,0
83160,control_change,108,0,3,,,,,,,,,2,64,0,,
83160,control_change,108,0,1,,,,,,,,,0,64,0,,
83640,note_on,0,0,1,,,,,,,,,0,,,69,36
83640,note_on,480,0,3,,,,,,,,,2,,,54,36
83640,note_on,0,0,4,,,,,,,,,3,,,45,36
83640,control_change,480,0,1,,,,,,,,,0,64,127,,
83640,control_change,1080,0,4,,,,,,,,,3,64,127,,
83652,note_on,12,0,4,,,,,,,,,3,,,45,0
83760,note_on,108,0,4,,,,,,,,,3,,,45,36
83772,note_on,12,0,4,,,,,,,,,3,,,45,0
83820,note_on,180,0,1,,,,,,,,,0,,,69,0
83820,note_on,0,0,1,,,,,,,,,0,,,67,36
83880,control_change,108,0,4,,,,,,,,,3,64,0,,
83880,note_on,240,0,3,,,,,,,,,2,,,54,0
83880,note_on,0,0,3,,,,,,,,,2,,,55,36
83880,note_on,60,0,1,,,,,,,,,0,,,67,0
83880,note_on,0,0,1,,,,,,,,,0,,,66,36
83940,note_on,0,0,1,,,,,,,,,0,,,64,36
83940,note_on,60,0,1,,,,,,,,,0,,,66,0
83940,control_change,0,0,1,,,,,,,,,0,64,0,,
84000,note_on,60,0,1,,,,,,,,,0,,,64,0
84000,control_change,0,0,1,,,,,,,,,0,64,127,,
84000,note_on,120,0,3,,,,,,,,,2,,,55,0
84000,note_on,0,0,3,,,,,,,,,2,,,57,36
84000,control_change,1260,0,2,,,,,,,,,1,64,127,,
84000,note_on,0,0,2,,,,,,,,,1,,,60,36
84000,control_change,120,0,4,,,,,,,,,3,64,127,,
84000,note_on,0,0,4,,,,,,,,,3,,,45,36
84000,note_on,0,0,1,,,,,,,,,0,,,63,36
84012,note_on,12,0,4,,,,,,,,,3,,,45,0
84012,note_on,12,0,1,,,,,,,,,0,,,63,0
84120,note_on,108,0,4,,,,,,,,,3,,,45,36
84120,note_on,108,0,1,,,,,,,,,0,,,63,36
84132,note_on,12,0,4,,,,,,,,,3,,,45,0
84132,note_on,12,0,1,,,,,,,,,0,,,63,0
84180,note_on,0,0,2,,,,,,,,,1,,,59,36
84180,note_on,180,0,2,,,,,,,,,1,,,60,0
84240,note_on,240,0,3,,,,,,,,,2,,,57,0
84240,note_on,60,0,2,,,,,,,,,1,,,59,0
84240,note_on,0,0,2,,,,,,,,,1,,,58,36
84240,control_change,108,0,1,,,,,,,,,0,64,0,,
84240,control_change,108,0,4,,,,,,,,,3,64,0,,
84240,note_on,0,0,3,,,,,,,,,2,,,54,36
84300,note_on,60,0,2,,,,,,,,,1,,,58,0
84300,control_change,0,0,2,,,,,,,,,1,64,0,,
84300,note_on,0,0,2,,,,,,,,,1,,,57,36
84360,note_on,60,0,2,,,,,,,,,1,,,57,0
84360,control_change,120,0,4,,,,,,,,,3,64,127,,
84360,note_on,0,0,4,,,,,,,,,3,,,45,36
84360,note_on,0,0,2,,,,,,,,,1,,,55,36
84360,control_change,0,0,2,,,,,,,,,1,64,127,,
84360,note_on,120,0,3,,,,,,,,,2,,,54,0
84360,note_on,0,0,3,,,,,,,,,2,,,52,36
84360,note_on,0,0,1,,,,,,,,,0,,,67,36
84360,control_change,120,0,1,,,,,,,,,0,64,127,,
84364,note_on,4,0,4,,,,,,,,,3,,,45,0
84372,note_on,12,0,2,,,,,,,,,1,,,55,0
84480,note_on,108,0,2,,,,,,,,,1,,,55,36
84480,note_on,116,0,4,,,,,,,,,3,,,45,36
84492,note_on,12,0,2,,,,,,,,,1,,,55,0
84492,note_on,12,0,4,,,,,,,,,3,,,45,0
84540,note_on,180,0,1,,,,,,,,,0,,,67,0
84540,note_on,0,0,1,,,,,,,,,0,,,66,36
84600,note_on,60,0,1,,,,,,,,,0,,,66,0
84600,note_on,0,0,1,,,,,,,,,0,,,64,36
84600,control_change,108,0,2,,,,,,,,,1,64,0,,
84600,note_on,240,0,3,,,,,,,,,2,,,52,0
84600,note_on,0,0,3,,,,,,,,,2,,,54,36
84600,control_change,108,0,4,,,,,,,,,3,64,0,,
84660,note_on,0,0,1,,,,,,,,,0,,,62,36
84660,control_change,0,0,1,,,,,,,,,0,64,0,,
84660,note_on,60,0,1,,,,,,,,,0,,,64,0
84720,note_on,0,0,1,,,,,,,,,0,,,61,36
84720,control_change,0,0,1,,,,,,,,,0,64,127,,
84720,note_on,60,0,1,,,,,,,,,0,,,62,0
84720,note_on,0,0,2,,,,,,,,,1,,,58,36
84720,control_change,120,0,4,,,,,,,,,3,64,127,,
84720,note_on,0,0,4,,,,,,,,,3,,,45,36
84720,control_change,120,0,2,,,,,,,,,1,64,127,,
84720,note_on,120,0,3,,,,,,,,,2,,,54,0
84720,note_on,0,0,3,,,,,,,,,2,,,55,36
84732,note_on,12,0,1,,,,,,,,,0,,,61,0
84732,note_on,12,0,4,,,,,,,,,3,,,45,0
84840,note_on,108,0,4,,,,,,,,,3,,,45,36
84840,note_on,108,0,1,,,,,,,,,0,,,61,36
84852,note_on,12,0,4,,,,,,,,,3,,,45,0
84852,note_on,12,0,1,,,,,,,,,0,,,61,0
84900,note_on,0,0,2,,,,,,,,,1,,,57,36
84900,note_on,180,0,2,,,,,,,,,1,,,58,0
84960,control_change,108,0,1,,,,,,,,,0,64,0,,
84960,note_on,60,0,2,,,,,,,,,1,,,57,0
84960,control_change,108,0,4,,,,,,,,,3,64,0,,
84960,note_on,0,0,3,,,,,,,,,2,,,52,36
84960,note_on,240,0,3,,,,,,,,,2,,,55,0
84960,note_on,0,0,2,,,,,,,,,1,,,56,36
85020,note_on,60,0,2,,,,,,,,,1,,,56,0
85020,note_on,0,0,2,,,,,,,,,1,,,55,36
85020,control_change,0,0,2,,,,,,,,,1,64,0,,
85080,note_on,120,0,1,,,,,,,,,0,,,54,88
85080,note_on,60,0,2,,,,,,,,,1,,,55,0
85080,note_on,0,0,1,,,,,,,,,0,,,62,88
85080,note_on,0,0,3,,,,,,,,,2,,,47,75
85080,note_on,120,0,3,,,,,,,,,2,,,52,0
85092,note_on,0,0,1,,,,,,,,,0,,,54,0
85092,note_on,12,0,1,,,,,,,,,0,,,62,0
85092,note_on,12,0,3,,,,,,,,,2,,,47,0
85200,note_on,0,0,1,,,,,,,,,0,,,62,88
85200,note_on,0,0,1,,,,,,,,,0,,,64,88
85200,note_on,108,0,3,,,,,,,,,2,,,43,75
85200,note_on,108,0,1,,,,,,,,,0,,,59,88
85212,note_on,12,0,1,,,,,,,,,0,,,64,0
85212,note_on,0,0,1,,,,,,,,,0,,,62,0
85212,note_on,12,0,3,,,,,,,,,2,,,43,0
85212,note_on,0,0,1,,,,,,,,,0,,,59,0
85320,note_on,0,0,1,,,,,,,,,0,,,66,88
85320,note_on,108,0,3,,,,,,,,,2,,,45,75
85320,note_on,0,0,1,,,,,,,,,0,,,61,88
85320,note_on,108,0,1,,,,,,,,,0,,,57,88
85332,note_on,0,0,1,,,,,,,,,0,,,61,0
85332,note_on,12,0,3,,,,,,,,,2,,,45,0
85332,note_on,12,0,1,,,,,,,,,0,,,66,0
85332,note_on,0,0,1,,,,,,,,,0,,,57,0
85440,control_change,108,0,1,,,,,,,,,0,64,127,,
85440,note_on,0,0,1,,,,,,,,,0,,,57,88
85440,note_on,0,0,1,,,,,,,,,0,,,62,88
85440,note_on,0,0,1,,,,,,,,,0,,,66,88
85440,control_change,108,0,3,,,,,,,,,2,64,127,,
85440,note_on,0,0,3,,,,,,,,,2,,,54,75
85440,note_on,0,0,3,,,,,,,,,2,,,50,75
85452,note_on,12,0,1,,,,,,,,,0,,,66,0
85452,note_on,0,0,3,,,,,,,,,2,,,50,0
85452,note_on,12,0,3,,,,,,,,,2,,,54,0
85452,note_on,0,0,1,,,,,,,,,0,,,62,0
85452,note_on,0,0,1,,,,,,,,,0,,,57,0
85560,note_on,108,0,1,,,,,,,,,0,,,69,88
85620,note_on,0,0,1,,,,,,,,,0,,,66,88
85620,note_on,60,0,1,,,,,,,,,0,,,69,0
85680,note_on,0,0,1,,,,,,,,,0,,,69,88
85680,note_on,60,0,1,,,,,,,,,0,,,66,0
85800,control_change,0,0,1,,,,,,,,,0,64,0,,
85800,note_on,0,0,1,,,,,,,,,0,,,54,49
85800,note_on,0,0,1,,,,,,,,,0,,,62,49
85800,note_on,0,0,3,,,,,,,,,2,,,47,36
85800,control_change,348,0,3,,,,,,,,,2,64,0,,
85800,note_on,120,0,1,,,,,,,,,0,,,69,0
85812,note_on,12,0,3,,,,,,,,,2,,,47,0
85812,note_on,0,0,1,,,,,,,,,0,,,54,0
85812,note_on,12,0,1,,,,,,,,,0,,,62,0
85920,note_on,0,0,1,,,,,,,,,0,,,62,49
85920,note_on,108,0,3,,,,,,,,,2,,,43,36
85920,note_on,0,0,1,,,,,,,,,0,,,64,49
85920,note_on,108,0,1,,,,,,,,,0,,,59,49
85932,note_on,0,0,1,,,,,,,,,0,,,62,0
85932,note_on,0,0,1,,,,,,,,,0,,,59,0
85932,note_on,12,0,1,,,,,,,,,0,,,64,0
85932,note_on,12,0,3,,,,,,,,,2,,,43,0
86040,note_on,0,0,1,,,,,,,,,0,,,61,49
86040,note_on,108,0,1,,,,,,,,,0,,,57,49
86040,note_on,0,0,1,,,,,,,,,0,,,66,49
86040,note_on,108,0,3,,,,,,,,,2,,,45,36
86052,note_on,12,0,1,,,,,,,,,0,,,66,0
86052,note_on,0,0,1,,,,,,,,,0,,,57,0
86052,note_on,0,0,1,,,,,,,,,0,,,61,0
86052,note_on,12,0,3,,,,,,,,,2,,,45,0
86160,note_on,0,0,3,,,,,,,,,2,,,38,36
86160,time_signature,9720,1,0,2,4,24,8,,,,,,,,,
86160,note_on,0,0,1,,,,,,,,,0,,,62,49
86160,note_on,0,0,1,,,,,,,,,0,,,54,49
86160,control_change,108,0,1,,,,,,,,,0,64,127,,
86160,control_change,108,0,3,,,,,,,,,2,64,127,,
86172,note_on,0,0,1,,,,,,,,,0,,,54,0
86172,note_on,12,0,1,,,,,,,,,0,,,62,0
86172,note_on,12,0,3,,,,,,,,,2,,,38,0
86280,control_change,108,0,1,,,,,,,,,0,64,0,,
86280,control_change,108,0,3,,,,,,,,,2,64,0,,
86400,time_signature,240,1,0,1,4,24,8,,,,,,,,,
86520,note_on,240,0,1,,,,,,,,,0,,,70,36
86520,note_on,240,0,3,,,,,,,,,2,,,62,36
86520,note_on,0,0,3,,,,,,,,,2,,,65,36
86520,time_signature,120,1,0,3,4,24,8,,,,,,,,,
86532,note_on,12,0,3,,,,,,,,,2,,,65,0
86532,note_on,0,0,3,,,,,,,,,2,,,62,0
86532,note_on,12,0,1,,,,,,,,,0,,,70,0
86640,note_on,0,0,1,,,,,,,,,0,,,72,36
86640,note_on,108,0,3,,,,,,,,,2,,,63,36
86640,note_on,0,0,3,,,,,,,,,2,,,67,36
86640,note_on,108,0,1,,,,,,,,,0,,,70,36
86652,note_on,0,0,1,,,,,,,,,0,,,70,0
86652,note_on,12,0,3,,,,,,,,,2,,,67,0
86652,note_on,0,0,3,,,,,,,,,2,,,63,0
86652,note_on,12,0,1,,,,,,,,,0,,,72,0
86760,note_on,108,0,1,,,,,,,,,0,,,69,36
86760,note_on,108,0,3,,,,,,,,,2,,,65,36
86760,note_on,0,0,1,,,,,,,,,0,,,74,36
86772,note_on,12,0,3,,,,,,,,,2,,,65,0
86772,note_on,12,0,1,,,,,,,,,0,,,74,0
86772,note_on,0,0,1,,,,,,,,,0,,,69,0
86880,note_on,0,0,1,,,,,,,,,0,,,70,36
86880,note_on,0,0,1,,,,,,,,,0,,,74,36
86880,control_change,108,0,1,,,,,,,,,0,64,127,,
86880,note_on,0,0,3,,,,,,,,,2,,,65,36
86880,note_on,108,0,3,,,,,,,,,2,,,58,36
86892,note_on,0,0,1,,,,,,,,,0,,,70,0
86892,note_on,12,0,1,,,,,,,,,0,,,74,0
87000,note_on,108,0,1,,,,,,,,,0,,,77,36
87000,note_on,0,0,3,,,,,,,,,2,,,58,0
87000,note_on,120,0,3,,,,,,,,,2,,,65,0
87060,note_on,60,0,1,,,,,,,,,0,,,77,0
87060,note_on,0,0,1,,,,,,,,,0,,,74,36
87120,note_on,0,0,1,,,,,,,,,0,,,77,36
87120,note_on,60,0,1,,,,,,,,,0,,,74,0
87240,note_on,0,0,1,,,,,,,,,0,,,70,36
87240,control_change,0,0,1,,,,,,,,,0,64,0,,
87240,note_on,240,0,3,,,,,,,,,2,,,62,36
87240,note_on,120,0,1,,,,,,,,,0,,,77,0
87240,note_on,0,0,3,,,,,,,,,2,,,65,36
87244,note_on,4,0,1,,,,,,,,,0,,,70,0
87252,note_on,12,0,3,,,,,,,,,2,,,65,0
87252,note_on,0,0,3,,,,,,,,,2,,,62,0
87360,note_on,0,0,1,,,,,,,,,0,,,72,36
87360,note_on,116,0,1,,,,,,,,,0,,,70,36
87360,note_on,108,0,3,,,,,,,,,2,,,63,36
87360,note_on,0,0,3,,,,,,,,,2,,,67,36
87372,note_on,0,0,1,,,,,,,,,0,,,70,0
87372,note_on,12,0,1,,,,,,,,,0,,,72,0
87372,note_on,0,0,3,,,,,,,,,2,,,63,0
87372,note_on,12,0,3,,,,,,,,,2,,,67,0
87480,note_on,108,0,3,,,,,,,,,2,,,65,36
87480,note_on,0,0,1,,,,,,,,,0,,,74,36
87480,note_on,108,0,1,,,,,,,,,0,,,69,36
87492,note_on,12,0,3,,,,,,,,,2,,,65,0
87492,note_on,0,0,1,,,,,,,,,0,,,69,0
87492,note_on,12,0,1,,,,,,,,,0,,,74,0
87600,control_change,108,0,1,,,,,,,,,0,64,127,,
87600,note_on,0,0,3,,,,,,,,,2,,,62,36
87600,control_change,108,0,3,,,,,,,,,2,64,127,,
87600,note_on,0,0,3,,,,,,,,,2,,,58,36
87600,note_on,0,0,1,,,,,,,,,0,,,70,36
87720,note_on,0,0,3,,,,,,,,,2,,,46,36
87720,note_on,0,0,3,,,,,,,,,2,,,58,0
87720,note_on,120,0,3,,,,,,,,,2,,,62,0
87720,note_on,120,0,1,,,,,,,,,0,,,70,0
87780,note_on,0,0,3,,,,,,,,,2,,,41,36
87780,note_on,60,0,3,,,,,,,,,2,,,46,0
87840,note_on,60,0,3,,,,,,,,,2,,,41,0
87840,note_on,0,0,3,,,,,,,,,2,,,46,36
87960,note_on,120,0,3,,,,,,,,,2,,,46,0
87960,note_on,240,0,1,,,,,,,,,0,,,65,36
87960,note_on,0,0,1,,,,,,,,,0,,,74,36
87960,note_on,0,0,1,,,,,,,,,0,,,77,36
87972,note_on,0,0,1,,,,,,,,,0,,,65,0
87972,note_on,0,0,1,,,,,,,,,0,,,74,0
87972,note_on,12,0,1,,,,,,,,,0,,,77,0
88080,note_on,0,0,1,,,,,,,,,0,,,74,36
88080,note_on,0,0,1,,,,,,,,,0,,,77,36
88080,note_on,108,0,1,,,,,,,,,0,,,65,36
88080,note_on,120,0,3,,,,,,,,,2,,,46,36
88092,note_on,12,0,1,,,,,,,,,0,,,77,0
88092,note_on,0,0,1,,,,,,,,,0,,,65,0
88092,note_on,0,0,1,,,,,,,,,0,,,74,0
88140,note_on,0,0,3,,,,,,,,,2,,,41,36
88140,note_on,60,0,3,,,,,,,,,2,,,46,0
88200,note_on,60,0,3,,,,,,,,,2,,,41,0
88200,note_on,0,0,3,,,,,,,,,2,,,46,36
88320,note_on,120,0,3,,,,,,,,,2,,,46,0
88320,note_on,0,0,1,,,,,,,,,0,,,82,36
88320,note_on,0,0,1,,,,,,,,,0,,,74,36
88320,note_on,228,0,1,,,,,,,,,0,,,70,36
88332,note_on,0,0,1,,,,,,,,,0,,,70,0
88332,note_on,12,0,1,,,,,,,,,0,,,82,0
88332,note_on,0,0,1,,,,,,,,,0,,,74,0
88440,note_on,108,0,1,,,,,,,,,0,,,70,36
88440,note_on,0,0,1,,,,,,,,,0,,,74,36
88440,note_on,120,0,3,,,,,,,,,2,,,46,36
88440,note_on,0,0,1,,,,,,,,,0,,,82,36
88452,note_on,12,0,1,,,,,,,,,0,,,82,0
88452,note_on,0,0,1,,,,,,,,,0,,,74,0
88452,note_on,0,0,1,,,,,,,,,0,,,70,0
88500,note_on,0,0,3,,,,,,,,,2,,,41,36
88500,note_on,60,0,3,,,,,,,,,2,,,46,0
88560,note_on,60,0,3,,,,,,,,,2,,,41,0
88560,control_change,0,0,3,,,,,,,,,2,64,0,,
88560,note_on,0,0,3,,,,,,,,,2,,,46,36
88560,control_change,108,0,1,,,,,,,,,0,64,0,,
88680,note_on,120,0,3,,,,,,,,,2,,,46,0
88680,note_on,120,0,1,,,,,,,,,0,,,74,49
88692,note_on,12,0,1,,,,,,,,,0,,,74,0
88800,note_on,108,0,1,,,,,,,,,0,,,75,49
88812,note_on,12,0,1,,,,,,,,,0,,,75,0
88920,note_on,108,0,1,,,,,,,,,0,,,77,49
88932,note_on,12,0,1,,,,,,,,,0,,,77,0
89040,note_on,0,0,3,,,,,,,,,2,,,62,49
89040,note_on,0,0,3,,,,,,,,,2,,,58,49
89040,control_change,360,0,3,,,,,,,,,2,64,127,,
89040,note_on,108,0,1,,,,,,,,,0,,,70,49
89052,note_on,12,0,3,,,,,,,,,2,,,62,0
89052,note_on,0,0,3,,,,,,,,,2,,,58,0
89160,note_on,120,0,1,,,,,,,,,0,,,70,0
89160,note_on,108,0,3,,,,,,,,,2,,,60,49
89160,note_on,0,0,3,,,,,,,,,2,,,63,49
89172,note_on,0,0,3,,,,,,,,,2,,,60,0
89172,note_on,12,0,3,,,,,,,,,2,,,63,0
89280,note_on,108,0,3,,,,,,,,,2,,,62,49
89280,note_on,0,0,3,,,,,,,,,2,,,65,49
89292,note_on,12,0,3,,,,,,,,,2,,,65,0
89292,note_on,0,0,3,,,,,,,,,2,,,62,0
89400,note_on,240,0,1,,,,,,,,,0,,,79,49
89400,control_change,108,0,3,,,,,,,,,2,64,0,,
89400,note_on,0,0,3,,,,,,,,,2,,,58,49
89400,note_on,0,0,3,,,,,,,,,2,,,55,49
89460,note_on,0,0,1,,,,,,,,,0,,,81,49
89460,note_on,60,0,1,,,,,,,,,0,,,79,0
89520,note_on,0,0,1,,,,,,,,,0,,,81,49
89520,note_on,120,0,3,,,,,,,,,2,,,58,0
89520,note_on,60,0,1,,,,,,,,,0,,,81,0
89520,note_on,0,0,3,,,,,,,,,2,,,55,0
89580,note_on,60,0,1,,,,,,,,,0,,,81,0
89580,note_on,0,0,1,,,,,,,,,0,,,82,49
89640,note_on,60,0,1,,,,,,,,,0,,,82,0
89640,note_on,0,0,1,,,,,,,,,0,,,82,49
89760,note_on,0,0,3,,,,,,,,,2,,,67,49
89760,note_on,240,0,3,,,,,,,,,2,,,63,49
89760,note_on,120,0,1,,,,,,,,,0,,,82,0
89760,note_on,0,0,1,,,,,,,,,0,,,75,49
89820,note_on,0,0,3,,,,,,,,,2,,,69,49
89820,note_on,0,0,3,,,,,,,,,2,,,63,0
89820,note_on,60,0,3,,,,,,,,,2,,,67,0
89820,note_on,0,0,3,,,,,,,,,2,,,65,49
89880,note_on,120,0,1,,,,,,,,,0,,,75,0
89880,note_on,60,0,3,,,,,,,,,2,,,69,0
89880,note_on,0,0,3,,,,,,,,,2,,,65,0
89880,note_on,0,0,3,,,,,,,,,2,,,65,49
89880,note_on,0,0,3,,,,,,,,,2,,,69,49
89940,note_on,0,0,3,,,,,,,,,2,,,70,49
89940,note_on,60,0,3,,,,,,,,,2,,,69,0
89940,note_on,0,0,3,,,,,,,,,2,,,67,49
89940,note_on,0,0,3,,,,,,,,,2,,,65,0
90000,note_on,0,0,3,,,,,,,,,2,,,70,49
90000,note_on,0,0,3,,,,,,,,,2,,,67,0
90000,note_on,60,0,3,,,,,,,,,2,,,70,0
90000,note_on,0,0,3,,,,,,,,,2,,,67,49
90120,note_on,120,0,3,,,,,,,,,2,,,70,0
90120,note_on,0,0,3,,,,,,,,,2,,,67,0
90120,note_on,0,0,3,,,,,,,,,2,,,60,49
90120,control_change,240,0,1,,,,,,,,,0,64,127,,
90120,note_on,0,0,1,,,,,,,,,0,,,75,49
90120,note_on,0,0,3,,,,,,,,,2,,,63,49
90132,note_on,12,0,1,,,,,,,,,0,,,75,0
90240,note_on,120,0,3,,,,,,,,,2,,,63,0
90240,note_on,0,0,3,,,,,,,,,2,,,60,0
90240,note_on,108,0,1,,,,,,,,,0,,,77,49
90252,note_on,12,0,1,,,,,,,,,0,,,77,0
90360,note_on,108,0,1,,,,,,,,,0,,,79,49
90372,note_on,12,0,1,,,,,,,,,0,,,79,0
90480,control_change,108,0,1,,,,,,,,,0,64,0,,
90480,note_on,0,0,1,,,,,,,,,0,,,72,49
90480,note_on,240,0,3,,,,,,,,,2,,,57,49
90480,note_on,0,0,3,,,,,,,,,2,,,65,49
90492,note_on,0,0,3,,,,,,,,,2,,,57,0
90492,note_on,12,0,3,,,,,,,,,2,,,65,0
90600,note_on,120,0,1,,,,,,,,,0,,,72,0
90600,note_on,0,0,3,,,,,,,,,2,,,64,49
90600,note_on,108,0,3,,,,,,,,,2,,,55,49
90612,note_on,12,0,3,,,,,,,,,2,,,64,0
90612,note_on,0,0,3,,,,,,,,,2,,,55,0
90720,note_on,0,0,3,,,,,,,,,2,,,63,49
90720,note_on,108,0,3,,,,,,,,,2,,,57,49
90732,note_on,12,0,3,,,,,,,,,2,,,63,0
90732,note_on,0,0,3,,,,,,,,,2,,,57,0
90840,note_on,0,0,1,,,,,,,,,0,,,74,49
90840,control_change,108,0,3,,,,,,,,,2,64,127,,
90840,note_on,0,0,3,,,,,,,,,2,,,58,49
90840,note_on,0,0,3,,,,,,,,,2,,,62,49
90840,control_change,240,0,1,,,,,,,,,0,64,127,,
90960,note_on,120,0,1,,,,,,,,,0,,,74,0
90960,note_on,0,0,1,,,,,,,,,0,,,75,49
91080,control_change,0,0,3,,,,,,,,,2,64,0,,
91080,note_on,0,0,3,,,,,,,,,2,,,60,75
91080,note_on,240,0,3,,,,,,,,,2,,,62,0
91080,note_on,0,0,1,,,,,,,,,0,,,77,114
91080,note_on,0,0,3,,,,,,,,,2,,,58,0
91080,control_change,0,0,1,,,,,,,,,0,64,0,,
91080,note_on,0,0,1,,,,,,,,,0,,,65,106
91080,note_on,0,0,3,,,,,,,,,2,,,57,75
91080,note_on,120,0,1,,,,,,,,,0,,,75,0
91200,control_change,0,0,3,,,,,,,,,2,64,127,,
91200,note_on,0,0,2,,,,,,,,,1,,,75,49
91200,control_change,6120,0,2,,,,,,,,,1,64,127,,
91200,note_on,0,0,3,,,,,,,,,2,,,57,0
91200,note_on,120,0,1,,,,,,,,,0,,,77,0
91200,note_on,120,0,3,,,,,,,,,2,,,60,0
91200,note_on,0,0,3,,,,,,,,,2,,,55,49
91200,note_on,0,0,3,,,,,,,,,2,,,58,49
91320,note_on,0,0,3,,,,,,,,,2,,,55,0
91320,note_on,120,0,3,,,,,,,,,2,,,58,0
91320,note_on,0,0,3,,,,,,,,,2,,,60,49
91320,note_on,0,0,3,,,,,,,,,2,,,57,49
91440,note_on,0,0,3,,,,,,,,,2,,,62,49
91440,control_change,0,0,3,,,,,,,,,2,64,0,,
91440,note_on,0,0,3,,,,,,,,,2,,,57,0
91440,note_on,120,0,3,,,,,,,,,2,,,60,0
91440,note_on,0,0,3,,,,,,,,,2,,,58,49
91440,note_on,240,0,2,,,,,,,,,1,,,75,0
91440,control_change,0,0,2,,,,,,,,,1,64,0,,
91440,note_on,0,0,2,,,,,,,,,1,,,74,49
91560,note_on,0,0,3,,,,,,,,,2,,,74,49
91560,note_on,0,0,3,,,,,,,,,2,,,70,49
91560,note_on,360,0,1,,,,,,,,,0,,,65,0
91560,control_change,0,0,1,,,,,,,,,0,64,127,,
91560,note_on,0,0,1,,,,,,,,,0,,,86,49
91560,note_on,120,0,3,,,,,,,,,2,,,62,0
91560,note_on,120,0,2,,,,,,,,,1,,,74,0
91560,note_on,0,0,3,,,,,,,,,2,,,58,0
91620,note_on,0,0,1,,,,,,,,,0,,,87,49
91620,note_on,60,0,1,,,,,,,,,0,,,86,0
91680,note_on,60,0,1,,,,,,,,,0,,,87,0
91680,note_on,0,0,1,,,,,,,,,0,,,87,49
91740,note_on,0,0,1,,,,,,,,,0,,,89,49
91740,note_on,60,0,1,,,,,,,,,0,,,87,0
91800,control_change,0,0,1,,,,,,,,,0,64,0,,
91800,note_on,60,0,1,,,,,,,,,0,,,89,0
91800,note_on,0,0,3,,,,,,,,,2,,,72,75
91800,note_on,0,0,3,,,,,,,,,2,,,69,75
91800,note_on,0,0,3,,,,,,,,,2,,,70,0
91800,note_on,240,0,3,,,,,,,,,2,,,74,0
91800,note_on,240,0,2,,,,,,,,,1,,,77,75
91800,note_on,0,0,1,,,,,,,,,0,,,89,88
91920,note_on,0,0,3,,,,,,,,,2,,,67,49
91920,note_on,0,0,3,,,,,,,,,2,,,70,49
91920,control_change,0,0,3,,,,,,,,,2,64,127,,
91920,note_on,0,0,3,,,,,,,,,2,,,69,0
91920,note_on,0,0,1,,,,,,,,,0,,,87,49
91920,note_on,120,0,3,,,,,,,,,2,,,72,0
91920,control_change,0,0,1,,,,,,,,,0,64,127,,
91920,note_on,120,0,1,,,,,,,,,0,,,89,0
91980,note_on,60,0,3,,,,,,,,,2,,,70,0
91980,note_on,0,0,3,,,,,,,,,2,,,67,0
91980,note_on,0,0,3,,,,,,,,,2,,,69,49
91980,note_on,0,0,3,,,,,,,,,2,,,72,49
92040,note_on,0,0,3,,,,,,,,,2,,,72,49
92040,note_on,0,0,3,,,,,,,,,2,,,69,49
92040,note_on,0,0,3,,,,,,,,,2,,,69,0
92040,note_on,60,0,3,,,,,,,,,2,,,72,0
92100,note_on,0,0,3,,,,,,,,,2,,,74,49
92100,note_on,0,0,3,,,,,,,,,2,,,70,49
92100,note_on,0,0,3,,,,,,,,,2,,,69,0
92100,note_on,60,0,3,,,,,,,,,2,,,72,0
92160,note_on,60,0,3,,,,,,,,,2,,,74,0
92160,note_on,0,0,3,,,,,,,,,2,,,74,49
92160,note_on,0,0,3,,,,,,,,,2,,,70,49
92160,control_change,0,0,3,,,,,,,,,2,64,0,,
92160,note_on,0,0,3,,,,,,,,,2,,,70,0
92160,note_on,240,0,1,,,,,,,,,0,,,87,0
92160,note_on,0,0,1,,,,,,,,,0,,,86,49
92160,control_change,0,0,1,,,,,,,,,0,64,0,,
92280,note_on,120,0,1,,,,,,,,,0,,,86,0
92280,note_on,0,0,2,,,,,,,,,1,,,70,36
92280,note_on,0,0,2,,,,,,,,,1,,,67,36
92280,control_change,0,0,2,,,,,,,,,1,64,127,,
92280,note_on,480,0,2,,,,,,,,,1,,,77,0
92280,control_change,0,0,1,,,,,,,,,0,64,127,,
92280,note_on,120,0,3,,,,,,,,,2,,,74,0
92280,note_on,0,0,3,,,,,,,,,2,,,70,0
92280,control_change,0,0,3,,,,,,,,,2,64,127,,
92280,note_on,0,0,3,,,,,,,,,2,,,51,36
92280,note_on,0,0,3,,,,,,,,,2,,,58,36
92280,note_on,0,0,3,,,,,,,,,2,,,60,36
92280,note_on,0,0,1,,,,,,,,,0,,,72,36
92400,note_on,120,0,3,,,,,,,,,2,,,60,0
92400,note_on,0,0,3,,,,,,,,,2,,,58,0
92400,note_on,0,0,3,,,,,,,,,2,,,51,0
92400,note_on,0,0,1,,,,,,,,,0,,,74,36
92400,note_on,120,0,1,,,,,,,,,0,,,72,0
92400,note_on,120,0,2,,,,,,,,,1,,,70,0
92400,note_on,0,0,2,,,,,,,,,1,,,67,0
92520,note_on,0,0,1,,,,,,,,,0,,,75,36
92520,note_on,120,0,1,,,,,,,,,0,,,74,0
92640,note_on,0,0,1,,,,,,,,,0,,,72,36
92640,note_on,120,0,1,,,,,,,,,0,,,75,0
92640,note_on,0,0,3,,,,,,,,,2,,,58,36
92640,note_on,0,0,3,,,,,,,,,2,,,60,36
92640,note_on,240,0,3,,,,,,,,,2,,,51,36
92640,control_change,240,0,2,,,,,,,,,1,64,0,,
92640,note_on,0,0,2,,,,,,,,,1,,,70,36
92640,note_on,0,0,2,,,,,,,,,1,,,67,36
92700,note_on,0,0,1,,,,,,,,,0,,,74,36
92700,note_on,60,0,1,,,,,,,,,0,,,72,0
92760,note_on,120,0,3,,,,,,,,,2,,,60,0
92760,note_on,0,0,1,,,,,,,,,0,,,74,36
92760,note_on,60,0,1,,,,,,,,,0,,,74,0
92760,note_on,0,0,2,,,,,,,,,1,,,67,0
92760,note_on,120,0,2,,,,,,,,,1,,,70,0
92760,note_on,0,0,3,,,,,,,,,2,,,58,0
92760,control_change,0,0,3,,,,,,,,,2,64,0,,
92760,note_on,0,0,3,,,,,,,,,2,,,51,0
92820,note_on,60,0,1,,,,,,,,,0,,,74,0
92820,note_on,0,0,1,,,,,,,,,0,,,75,36
92880,note_on,0,0,1,,,,,,,,,0,,,75,36
92880,control_change,0,0,1,,,,,,,,,0,64,0,,
92880,note_on,60,0,1,,,,,,,,,0,,,75,0
93000,note_on,0,0,3,,,,,,,,,2,,,58,36
93000,note_on,0,0,3,,,,,,,,,2,,,61,36
93000,note_on,120,0,1,,,,,,,,,0,,,75,0
93000,control_change,0,0,1,,,,,,,,,0,64,127,,
93000,note_on,0,0,1,,,,,,,,,0,,,70,36
93000,note_on,240,0,3,,,,,,,,,2,,,52,36
93000,note_on,240,0,2,,,,,,,,,1,,,67,36
93120,note_on,120,0,3,,,,,,,,,2,,,61,0
93120,note_on,0,0,3,,,,,,,,,2,,,58,0
93120,note_on,0,0,3,,,,,,,,,2,,,52,0
93120,note_on,120,0,2,,,,,,,,,1,,,67,0
93120,note_on,120,0,1,,,,,,,,,0,,,70,0
93120,note_on,0,0,1,,,,,,,,,0,,,72,36
93240,note_on,120,0,1,,,,,,,,,0,,,72,0
93240,control_change,0,0,1,,,,,,,,,0,64,0,,
93240,note_on,0,0,1,,,,,,,,,0,,,73,36
93360,note_on,240,0,3,,,,,,,,,2,,,52,36
93360,note_on,0,0,3,,,,,,,,,2,,,54,36
93360,note_on,0,0,3,,,,,,,,,2,,,61,36
93360,note_on,120,0,1,,,,,,,,,0,,,73,0
93360,control_change,0,0,1,,,,,,,,,0,64,127,,
93360,note_on,0,0,1,,,,,,,,,0,,,70,36
93360,note_on,240,0,2,,,,,,,,,1,,,66,36
93420,note_on,0,0,1,,,,,,,,,0,,,71,36
93420,note_on,60,0,1,,,,,,,,,0,,,70,0
93480,note_on,0,0,3,,,,,,,,,2,,,52,0
93480,note_on,0,0,1,,,,,,,,,0,,,71,36
93480,note_on,120,0,3,,,,,,,,,2,,,61,0
93480,note_on,0,0,3,,,,,,,,,2,,,54,0
93480,note_on,60,0,1,,,,,,,,,0,,,71,0
93480,note_on,120,0,2,,,,,,,,,1,,,66,0
93540,note_on,60,0,1,,,,,,,,,0,,,71,0
93540,note_on,0,0,1,,,,,,,,,0,,,73,36
93600,note_on,60,0,1,,,,,,,,,0,,,73,0
93600,control_change,0,0,1,,,,,,,,,0,64,0,,
93600,note_on,0,0,1,,,,,,,,,0,,,73,36
93720,note_on,0,0,3,,,,,,,,,2,,,59,36
93720,note_on,0,0,3,,,,,,,,,2,,,54,36
93720,note_on,240,0,3,,,,,,,,,2,,,50,36
93720,note_on,0,0,2,,,,,,,,,1,,,78,36
93720,note_on,240,0,2,,,,,,,,,1,,,66,36
93720,note_on,120,0,1,,,,,,,,,0,,,73,0
93720,control_change,0,0,1,,,,,,,,,0,64,127,,
93720,note_on,0,0,1,,,,,,,,,0,,,71,36
93840,note_on,0,0,3,,,,,,,,,2,,,50,0
93840,note_on,0,0,3,,,,,,,,,2,,,54,0
93840,note_on,120,0,3,,,,,,,,,2,,,59,0
93840,note_on,0,0,1,,,,,,,,,0,,,73,36
93840,note_on,120,0,1,,,,,,,,,0,,,71,0
93960,note_on,120,0,1,,,,,,,,,0,,,73,0
93960,note_on,0,0,1,,,,,,,,,0,,,74,36
93960,control_change,0,0,1,,,,,,,,,0,64,0,,
94080,note_on,240,0,3,,,,,,,,,2,,,50,36
94080,note_on,0,0,1,,,,,,,,,0,,,71,36
94080,note_on,120,0,1,,,,,,,,,0,,,74,0
94080,note_on,0,0,3,,,,,,,,,2,,,54,36
94080,note_on,0,0,3,,,,,,,,,2,,,59,36
94140,note_on,0,0,1,,,,,,,,,0,,,73,36
94140,note_on,60,0,1,,,,,,,,,0,,,71,0
94200,note_on,60,0,1,,,,,,,,,0,,,73,0
94200,note_on,0,0,3,,,,,,,,,2,,,50,0
94200,note_on,0,0,3,,,,,,,,,2,,,54,0
94200,note_on,0,0,1,,,,,,,,,0,,,73,36
94200,note_on,120,0,3,,,,,,,,,2,,,59,0
94260,note_on,60,0,1,,,,,,,,,0,,,73,0
94260,note_on,0,0,1,,,,,,,,,0,,,74,36
94320,note_on,60,0,1,,,,,,,,,0,,,74,0
94320,note_on,0,0,1,,,,,,,,,0,,,74,36
94440,control_change,240,0,3,,,,,,,,,2,64,127,,
94440,note_on,0,0,3,,,,,,,,,2,,,57,36
94440,control_change,9480,0,4,,,,,,,,,3,64,127,,
94440,note_on,0,0,4,,,,,,,,,3,,,50,36
94440,note_on,720,0,2,,,,,,,,,1,,,78,0
94440,control_change,0,0,2,,,,,,,,,1,64,127,,
94440,note_on,0,0,1,,,,,,,,,0,,,66,36
94440,control_change,0,0,1,,,,,,,,,0,64,127,,
94440,note_on,120,0,1,,,,,,,,,0,,,74,0
94440,note_on,0,0,2,,,,,,,,,1,,,74,36
94440,note_on,0,0,2,,,,,,,,,1,,,62,36
94440,note_on,0,0,2,,,,,,,,,1,,,66,0
94500,set_tempo,7980,1,0,,,,,,338983,,,,,,,
94560,note_on,120,0,3,,,,,,,,,2,,,57,0
94560,note_on,0,0,3,,,,,,,,,2,,,59,36
94560,note_on,120,0,1,,,,,,,,,0,,,66,0
94560,note_on,0,0,1,,,,,,,,,0,,,67,36
94560,set_tempo,60,1,0,,,,,,344828,,,,,,,
94620,set_tempo,60,1,0,,,,,,350877,,,,,,,
94680,set_tempo,60,1,0,,,,,,359281,,,,,,,
94680,note_on,0,0,1,,,,,,,,,0,,,69,36
94680,note_on,0,0,3,,,,,,,,,2,,,60,36
94680,note_on,120,0,3,,,,,,,,,2,,,59,0
94680,note_on,120,0,1,,,,,,,,,0,,,67,0
94740,set_tempo,60,1,0,,,,,,365854,,,,,,,
94800,note_on,120,0,1,,,,,,,,,0,,,69,0
94800,note_on,120,0,3,,,,,,,,,2,,,60,0
94800,note_on,0,0,3,,,,,,,,,2,,,57,36
94800,note_on,0,0,1,,,,,,,,,0,,,66,36
94800,set_tempo,60,1,0,,,,,,372671,,,,,,,
94800,control_change,360,0,2,,,,,,,,,1,64,0,,
94800,control_change,360,0,4,,,,,,,,,3,64,0,,
94860,note_on,60,0,1,,,,,,,,,0,,,66,0
94860,note_on,0,0,1,,,,,,,,,0,,,67,36
94860,note_on,0,0,3,,,,,,,,,2,,,59,36
94860,set_tempo,60,1,0,,,,,,379747,,,,,,,
94860,note_on,60,0,3,,,,,,,,,2,,,57,0
94920,note_on,60,0,1,,,,,,,,,0,,,67,0
94920,note_on,0,0,1,,,,,,,,,0,,,67,36
94920,note_on,0,0,3,,,,,,,,,2,,,59,36
94920,note_on,60,0,3,,,,,,,,,2,,,59,0
94920,set_tempo,60,1,0,,,,,,389610,,,,,,,
94980,note_on,0,0,3,,,,,,,,,2,,,60,36
94980,note_on,60,0,3,,,,,,,,,2,,,59,0
94980,note_on,0,0,1,,,,,,,,,0,,,69,36
94980,note_on,60,0,1,,,,,,,,,0,,,67,0
95040,control_change,0,0,1,,,,,,,,,0,64,0,,
95040,note_on,0,0,1,,,,,,,,,0,,,69,36
95040,note_on,60,0,3,,,,,,,,,2,,,60,0
95040,control_change,0,0,3,,,,,,,,,2,64,0,,
95040,note_on,0,0,3,,,,,,,,,2,,,60,36
95040,note_on,60,0,1,,,,,,,,,0,,,69,0
95160,note_on,120,0,1,,,,,,,,,0,,,69,0
95160,note_on,360,0,4,,,,,,,,,3,,,50,0
95160,note_on,0,0,2,,,,,,,,,1,,,62,0
95160,note_on,360,0,2,,,,,,,,,1,,,74,0
95160,note_on,120,0,3,,,,,,,,,2,,,60,0
95760,note_on,600,0,1,,,,,,,,,0,,,86,36
95760,end_of_track,0,1,0,,,,,,,,,,,,,
95760,set_tempo,840,1,0,,,,,,333333,,,,,,,
95760,note_on,600,0,3,,,,,,,,,2,,,74,36
95820,note_on,60,0,3,,,,,,,,,2,,,74,0
95820,note_on,0,0,3,,,,,,,,,2,,,71,36
95820,note_on,60,0,1,,,,,,,,,0,,,86,0
95820,note_on,0,0,1,,,,,,,,,0,,,83,36
95880,note_on,0,0,3,,,,,,,,,2,,,74,36
95880,note_on,60,0,3,,,,,,,,,2,,,71,0
95880,control_change,0,0,3,,,,,,,,,2,64,127,,
95880,note_on,60,0,1,,,,,,,,,0,,,83,0
95880,control_change,0,0,1,,,,,,,,,0,64,127,,
95880,note_on,0,0,1,,,,,,,,,0,,,86,36
96060,note_on,0,0,3,,,,,,,,,2,,,71,36
96060,note_on,180,0,3,,,,,,,,,2,,,74,0
96060,note_on,0,0,1,,,,,,,,,0,,,83,36
96060,note_on,180,0,1,,,,,,,,,0,,,86,0
96120,note_on,60,0,1,,,,,,,,,0,,,83,0
96120,note_on,0,0,1,,,,,,,,,0,,,84,36
96120,note_on,0,0,3,,,,,,,,,2,,,72,36
96120,note_on,60,0,3,,,,,,,,,2,,,71,0
96180,note_on,60,0,1,,,,,,,,,0,,,84,0
96180,note_on,0,0,1,,,,,,,,,0,,,86,36
96180,note_on,0,0,3,,,,,,,,,2,,,74,36
96180,note_on,60,0,3,,,,,,,,,2,,,72,0
96240,control_change,0,0,1,,,,,,,,,0,64,0,,
96240,note_on,0,0,1,,,,,,,,,0,,,74,36
96240,note_on,60,0,1,,,,,,,,,0,,,86,0
96240,note_on,60,0,3,,,,,,,,,2,,,74,0
96240,control_change,0,0,3,,,,,,,,,2,64,0,,
96240,note_on,0,0,3,,,,,,,,,2,,,62,36
96252,note_on,12,0,1,,,,,,,,,0,,,74,0
96252,note_on,12,0,3,,,,,,,,,2,,,62,0
96360,note_on,108,0,1,,,,,,,,,0,,,74,36
96360,note_on,108,0,3,,,,,,,,,2,,,62,36
96372,note_on,12,0,1,,,,,,,,,0,,,74,0
96372,note_on,12,0,3,,,,,,,,,2,,,62,0
96480,note_on,108,0,1,,,,,,,,,0,,,79,36
96480,note_on,108,0,3,,,,,,,,,2,,,67,36
96540,note_on,0,0,3,,,,,,,,,2,,,62,36
96540,note_on,60,0,1,,,,,,,,,0,,,79,0
96540,note_on,0,0,1,,,,,,,,,0,,,74,36
96540,note_on,60,0,3,,,,,,,,,2,,,67,0
96600,note_on,0,0,3,,,,,,,,,2,,,67,36
96600,control_change,0,0,3,,,,,,,,,2,64,127,,
96600,note_on,60,0,3,,,,,,,,,2,,,62,0
96600,note_on,0,0,1,,,,,,,,,0,,,79,36
96600,note_on,60,0,1,,,,,,,,,0,,,74,0
96600,control_change,0,0,1,,,,,,,,,0,64,127,,
96780,note_on,180,0,3,,,,,,,,,2,,,67,0
96780,note_on,0,0,1,,,,,,,,,0,,,71,36
96780,note_on,180,0,1,,,,,,,,,0,,,79,0
96780,note_on,0,0,3,,,,,,,,,2,,,59,36
96840,note_on,0,0,1,,,,,,,,,0,,,72,36
96840,note_on,60,0,1,,,,,,,,,0,,,71,0
96840,note_on,60,0,3,,,,,,,,,2,,,59,0
96840,note_on,0,0,3,,,,,,,,,2,,,60,36
96900,note_on,0,0,1,,,,,,,,,0,,,74,36
96900,note_on,60,0,1,,,,,,,,,0,,,72,0
96900,note_on,0,0,3,,,,,,,,,2,,,62,36
96900,note_on,60,0,3,,,,,,,,,2,,,60,0
96960,control_change,0,0,3,,,,,,,,,2,64,0,,
96960,note_on,60,0,1,,,,,,,,,0,,,74,0
96960,note_on,60,0,3,,,,,,,,,2,,,62,0
96960,note_on,0,0,1,,,,,,,,,0,,,67,36
96960,note_on,0,0,3,,,,,,,,,2,,,55,36
96960,control_change,0,0,1,,,,,,,,,0,64,0,,
96972,note_on,12,0,1,,,,,,,,,0,,,67,0
96972,note_on,12,0,3,,,,,,,,,2,,,55,0
97080,note_on,108,0,3,,,,,,,,,2,,,55,36
97080,note_on,108,0,1,,,,,,,,,0,,,67,36
97092,note_on,12,0,3,,,,,,,,,2,,,55,0
97092,note_on,12,0,1,,,,,,,,,0,,,67,0
97200,note_on,0,0,2,,,,,,,,,1,,,62,75
97200,note_on,108,0,3,,,,,,,,,2,,,43,75
97200,note_on,2040,0,2,,,,,,,,,1,,,59,75
97200,note_on,0,0,3,,,,,,,,,2,,,50,75
97200,note_on,0,0,3,,,,,,,,,2,,,55,75
97200,note_on,108,0,1,,,,,,,,,0,,,71,88
97260,note_on,0,0,1,,,,,,,,,0,,,67,88
97260,note_on,60,0,1,,,,,,,,,0,,,71,0
97320,note_on,0,0,3,,,,,,,,,2,,,50,96
97320,note_on,0,0,3,,,,,,,,,2,,,43,91
97320,note_on,0,0,3,,,,,,,,,2,,,43,0
97320,note_on,120,0,2,,,,,,,,,1,,,62,0
97320,note_on,60,0,1,,,,,,,,,0,,,67,0
97320,note_on,0,0,1,,,,,,,,,0,,,71,114
97320,note_on,0,0,3,,,,,,,,,2,,,50,0
97320,note_on,120,0,3,,,,,,,,,2,,,55,0
97320,note_on,0,0,2,,,,,,,,,1,,,59,0
97320,note_on,0,0,2,,,,,,,,,1,,,59,75
97320,note_on,0,0,2,,,,,,,,,1,,,62,75
97320,note_on,0,0,3,,,,,,,,,2,,,55,101
97560,note_on,240,0,3,,,,,,,,,2,,,55,0
97560,note_on,0,0,2,,,,,,,,,1,,,60,36
97560,note_on,0,0,3,,,,,,,,,2,,,43,0
97560,note_on,0,0,3,,,,,,,,,2,,,45,36
97560,note_on,0,0,3,,,,,,,,,2,,,50,36
97560,note_on,0,0,3,,,,,,,,,2,,,54,36
97560,note_on,240,0,1,,,,,,,,,0,,,71,0
97560,note_on,0,0,1,,,,,,,,,0,,,69,49
97560,note_on,240,0,2,,,,,,,,,1,,,62,0
97560,note_on,0,0,2,,,,,,,,,1,,,59,0
97560,note_on,0,0,2,,,,,,,,,1,,,62,36
97560,note_on,0,0,3,,,,,,,,,2,,,50,0
97620,note_on,60,0,1,,,,,,,,,0,,,69,0
97620,note_on,0,0,1,,,,,,,,,0,,,66,49
97680,note_on,0,0,2,,,,,,,,,1,,,60,0
97680,note_on,120,0,2,,,,,,,,,1,,,62,0
97680,control_change,0,0,1,,,,,,,,,0,64,127,,
97680,note_on,0,0,1,,,,,,,,,0,,,62,49
97680,note_on,0,0,3,,,,,,,,,2,,,50,0
97680,note_on,0,0,3,,,,,,,,,2,,,45,0
97680,control_change,0,0,3,,,,,,,,,2,64,127,,
97680,note_on,0,0,3,,,,,,,,,2,,,47,36
97680,note_on,0,0,3,,,,,,,,,2,,,50,36
97680,note_on,0,0,3,,,,,,,,,2,,,55,36
97680,note_on,60,0,1,,,,,,,,,0,,,66,0
97680,note_on,120,0,3,,,,,,,,,2,,,54,0
97680,note_on,0,0,1,,,,,,,,,0,,,74,49
97692,note_on,12,0,1,,,,,,,,,0,,,74,0
97692,note_on,0,0,1,,,,,,,,,0,,,62,0
97692,note_on,12,0,3,,,,,,,,,2,,,55,0
97692,note_on,0,0,3,,,,,,,,,2,,,50,0
97692,note_on,0,0,3,,,,,,,,,2,,,47,0
97800,note_on,108,0,3,,,,,,,,,2,,,47,36
97800,note_on,108,0,1,,,,,,,,,0,,,62,49
97800,note_on,0,0,1,,,,,,,,,0,,,74,49
97800,note_on,0,0,3,,,,,,,,,2,,,55,36
97800,note_on,0,0,3,,,,,,,,,2,,,50,36
97812,note_on,12,0,1,,,,,,,,,0,,,74,0
97812,note_on,0,0,1,,,,,,,,,0,,,62,0
97812,note_on,12,0,3,,,,,,,,,2,,,55,0
97812,note_on,0,0,3,,,,,,,,,2,,,50,0
97812,note_on,0,0,3,,,,,,,,,2,,,47,0
97920,control_change,108,0,3,,,,,,,,,2,64,0,,
97920,note_on,0,0,3,,,,,,,,,2,,,50,36
97920,control_change,108,0,1,,,,,,,,,0,64,0,,
97920,note_on,0,0,1,,,,,,,,,0,,,60,49
97920,note_on,0,0,1,,,,,,,,,0,,,62,49
97920,note_on,0,0,3,,,,,,,,,2,,,54,36
97926,note_on,6,0,3,,,,,,,,,2,,,54,0
97926,note_on,6,0,1,,,,,,,,,0,,,62,0
97926,note_on,0,0,1,,,,,,,,,0,,,60,0
97926,note_on,0,0,3,,,,,,,,,2,,,50,0
97980,note_on,54,0,1,,,,,,,,,0,,,60,49
97980,note_on,0,0,1,,,,,,,,,0,,,64,49
97980,note_on,0,0,1,,,,,,,,,0,,,62,49
97980,note_on,0,0,3,,,,,,,,,2,,,55,36
97980,note_on,54,0,3,,,,,,,,,2,,,50,36
97986,note_on,0,0,3,,,,,,,,,2,,,50,0
97986,note_on,6,0,3,,,,,,,,,2,,,55,0
97986,note_on,6,0,1,,,,,,,,,0,,,64,0
97986,note_on,0,0,1,,,,,,,,,0,,,62,0
97986,note_on,0,0,1,,,,,,,,,0,,,60,0
98040,note_on,0,0,3,,,,,,,,,2,,,57,36
98040,note_on,0,0,3,,,,,,,,,2,,,50,36
98040,control_change,54,0,3,,,,,,,,,2,64,127,,
98040,control_change,54,0,1,,,,,,,,,0,64,127,,
98040,note_on,0,0,1,,,,,,,,,0,,,60,49
98040,note_on,0,0,1,,,,,,,,,0,,,66,49
98040,note_on,0,0,1,,,,,,,,,0,,,62,49
98052,note_on,12,0,3,,,,,,,,,2,,,57,0
98052,note_on,0,0,1,,,,,,,,,0,,,60,0
98052,note_on,0,0,1,,,,,,,,,0,,,62,0
98052,note_on,12,0,1,,,,,,,,,0,,,66,0
98052,note_on,0,0,3,,,,,,,,,2,,,50,0
98160,note_on,0,0,1,,,,,,,,,0,,,66,49
98160,note_on,0,0,1,,,,,,,,,0,,,62,49
98160,note_on,108,0,1,,,,,,,,,0,,,60,49
98160,note_on,0,0,3,,,,,,,,,2,,,57,36
98160,note_on,108,0,3,,,,,,,,,2,,,50,36
98172,note_on,12,0,1,,,,,,,,,0,,,66,0
98172,note_on,12,0,3,,,,,,,,,2,,,57,0
98172,note_on,0,0,3,,,,,,,,,2,,,50,0
98172,note_on,0,0,1,,,,,,,,,0,,,60,0
98172,note_on,0,0,1,,,,,,,,,0,,,62,0
98280,control_change,108,0,1,,,,,,,,,0,64,0,,
98280,note_on,0,0,1,,,,,,,,,0,,,62,62
98280,note_on,0,0,1,,,,,,,,,0,,,66,62
98280,note_on,0,0,1,,,,,,,,,0,,,74,62
98280,control_change,108,0,3,,,,,,,,,2,64,0,,
98280,note_on,0,0,3,,,,,,,,,2,,,50,49
98280,note_on,0,0,3,,,,,,,,,2,,,57,49
98286,note_on,0,0,3,,,,,,,,,2,,,50,0
98286,note_on,6,0,3,,,,,,,,,2,,,57,0
98286,note_on,6,0,1,,,,,,,,,0,,,74,0
98286,note_on,0,0,1,,,,,,,,,0,,,66,0
98286,note_on,0,0,1,,,,,,,,,0,,,62,0
98340,note_on,0,0,1,,,,,,,,,0,,,67,62
98340,note_on,0,0,1,,,,,,,,,0,,,74,62
98340,note_on,54,0,1,,,,,,,,,0,,,62,62
98340,note_on,54,0,3,,,,,,,,,2,,,50,49
98340,note_on,0,0,3,,,,,,,,,2,,,59,49
98346,note_on,6,0,3,,,,,,,,,2,,,59,0
98346,note_on,0,0,3,,,,,,,,,2,,,50,0
98346,note_on,6,0,1,,,,,,,,,0,,,74,0
98346,note_on,0,0,1,,,,,,,,,0,,,67,0
98346,note_on,0,0,1,,,,,,,,,0,,,62,0
98400,control_change,54,0,1,,,,,,,,,0,64,127,,
98400,control_change,54,0,3,,,,,,,,,2,64,127,,
98400,note_on,0,0,3,,,,,,,,,2,,,50,62
98400,note_on,0,0,1,,,,,,,,,0,,,69,75
98400,note_on,0,0,1,,,,,,,,,0,,,74,75
98400,note_on,0,0,1,,,,,,,,,0,,,62,75
98400,note_on,0,0,3,,,,,,,,,2,,,60,62
98412,note_on,12,0,1,,,,,,,,,0,,,74,0
98412,note_on,0,0,1,,,,,,,,,0,,,62,0
98412,note_on,0,0,3,,,,,,,,,2,,,50,0
98412,note_on,0,0,1,,,,,,,,,0,,,69,0
98412,note_on,12,0,3,,,,,,,,,2,,,60,0
98520,note_on,0,0,3,,,,,,,,,2,,,60,62
98520,note_on,108,0,3,,,,,,,,,2,,,50,62
98520,note_on,108,0,1,,,,,,,,,0,,,62,75
98520,note_on,0,0,1,,,,,,,,,0,,,69,75
98520,note_on,0,0,1,,,,,,,,,0,,,74,75
98532,note_on,12,0,1,,,,,,,,,0,,,74,0
98532,note_on,0,0,1,,,,,,,,,0,,,69,0
98532,note_on,0,0,1,,,,,,,,,0,,,62,0
98532,note_on,12,0,3,,,,,,,,,2,,,60,0
98532,note_on,0,0,3,,,,,,,,,2,,,50,0
98640,control_change,108,0,3,,,,,,,,,2,64,0,,
98640,note_on,0,0,3,,,,,,,,,2,,,48,75
98640,note_on,0,0,3,,,,,,,,,2,,,55,75
98640,note_on,960,0,2,,,,,,,,,1,,,64,75
98640,control_change,108,0,1,,,,,,,,,0,64,0,,
98640,note_on,0,0,1,,,,,,,,,0,,,76,88
98640,note_on,0,0,2,,,,,,,,,1,,,67,75
98640,note_on,0,0,3,,,,,,,,,2,,,60,75
98700,note_on,0,0,1,,,,,,,,,0,,,72,88
98700,note_on,60,0,1,,,,,,,,,0,,,76,0
98760,note_on,120,0,2,,,,,,,,,1,,,67,0
98760,note_on,0,0,2,,,,,,,,,1,,,64,0
98760,note_on,0,0,1,,,,,,,,,0,,,67,106
98760,note_on,60,0,1,,,,,,,,,0,,,72,0
98760,note_on,0,0,3,,,,,,,,,2,,,60,75
98760,note_on,0,0,3,,,,,,,,,2,,,55,75
98760,note_on,0,0,3,,,,,,,,,2,,,48,75
98760,note_on,0,0,3,,,,,,,,,2,,,48,0
98760,note_on,0,0,2,,,,,,,,,1,,,64,75
98760,note_on,120,0,3,,,,,,,,,2,,,60,0
98760,note_on,0,0,1,,,,,,,,,0,,,76,114
98760,note_on,0,0,3,,,,,,,,,2,,,55,0
99000,note_on,0,0,3,,,,,,,,,2,,,59,36
99000,note_on,0,0,3,,,,,,,,,2,,,55,36
99000,note_on,0,0,3,,,,,,,,,2,,,48,0
99000,note_on,0,0,3,,,,,,,,,2,,,55,0
99000,note_on,240,0,1,,,,,,,,,0,,,76,0
99000,note_on,0,0,1,,,,,,,,,0,,,74,49
99000,note_on,0,0,3,,,,,,,,,2,,,50,36
99000,note_on,240,0,2,,,,,,,,,1,,,64,0
99000,note_on,0,0,1,,,,,,,,,0,,,67,0
99000,note_on,0,0,2,,,,,,,,,1,,,65,36
99000,note_on,0,0,2,,,,,,,,,1,,,67,36
99000,note_on,240,0,3,,,,,,,,,2,,,60,0
99060,note_on,60,0,1,,,,,,,,,0,,,74,0
99060,note_on,0,0,1,,,,,,,,,0,,,71,49
99120,note_on,0,0,1,,,,,,,,,0,,,79,49
99120,control_change,0,0,1,,,,,,,,,0,64,127,,
99120,note_on,0,0,3,,,,,,,,,2,,,60,36
99120,note_on,0,0,3,,,,,,,,,2,,,55,36
99120,note_on,0,0,3,,,,,,,,,2,,,52,36
99120,control_change,0,0,3,,,,,,,,,2,64,127,,
99120,note_on,0,0,3,,,,,,,,,2,,,55,0
99120,note_on,120,0,3,,,,,,,,,2,,,59,0
99120,note_on,0,0,2,,,,,,,,,1,,,67,36
99120,note_on,120,0,2,,,,,,,,,1,,,67,0
99120,note_on,0,0,2,,,,,,,,,1,,,65,0
99120,note_on,60,0,1,,,,,,,,,0,,,71,0
99120,note_on,0,0,3,,,,,,,,,2,,,50,0
99120,control_change,0,0,2,,,,,,,,,1,64,127,,
99132,note_on,12,0,3,,,,,,,,,2,,,60,0
99132,note_on,0,0,3,,,,,,,,,2,,,55,0
99132,note_on,0,0,3,,,,,,,,,2,,,52,0
99132,note_on,12,0,2,,,,,,,,,1,,,67,0
99132,note_on,12,0,1,,,,,,,,,0,,,79,0
99240,note_on,0,0,2,,,,,,,,,1,,,67,36
99240,note_on,108,0,1,,,,,,,,,0,,,79,49
99240,note_on,0,0,3,,,,,,,,,2,,,55,36
99240,note_on,108,0,3,,,,,,,,,2,,,52,36
99240,control_change,108,0,2,,,,,,,,,1,64,0,,
99240,note_on,0,0,3,,,,,,,,,2,,,60,36
99252,note_on,12,0,1,,,,,,,,,0,,,79,0
99252,note_on,12,0,2,,,,,,,,,1,,,67,0
99252,note_on,12,0,3,,,,,,,,,2,,,60,0
99252,note_on,0,0,3,,,,,,,,,2,,,55,0
99252,note_on,0,0,3,,,,,,,,,2,,,52,0
99360,note_on,0,0,1,,,,,,,,,0,,,88,49
99360,control_change,108,0,1,,,,,,,,,0,64,0,,
99360,control_change,108,0,3,,,,,,,,,2,64,0,,
99360,note_on,0,0,3,,,,,,,,,2,,,72,36
99420,note_on,0,0,1,,,,,,,,,0,,,84,49
99420,note_on,60,0,1,,,,,,,,,0,,,88,0
99420,note_on,60,0,3,,,,,,,,,2,,,72,0
99420,note_on,0,0,3,,,,,,,,,2,,,69,36
99480,note_on,0,0,1,,,,,,,,,0,,,88,75
99480,control_change,0,0,1,,,,,,,,,0,64,127,,
99480,note_on,60,0,1,,,,,,,,,0,,,84,0
99480,note_on,60,0,3,,,,,,,,,2,,,69,0
99480,control_change,0,0,3,,,,,,,,,2,64,127,,
99480,note_on,0,0,3,,,,,,,,,2,,,72,88
99660,note_on,180,0,1,,,,,,,,,0,,,88,0
99660,note_on,0,0,1,,,,,,,,,0,,,84,49
99660,note_on,0,0,3,,,,,,,,,2,,,69,36
99660,note_on,180,0,3,,,,,,,,,2,,,72,0
99720,note_on,0,0,3,,,,,,,,,2,,,71,36
99720,note_on,60,0,3,,,,,,,,,2,,,69,0
99720,note_on,60,0,1,,,,,,,,,0,,,84,0
99720,note_on,0,0,1,,,,,,,,,0,,,86,49
99780,control_change,0,0,3,,,,,,,,,2,64,0,,
99780,note_on,60,0,3,,,,,,,,,2,,,71,0
99780,note_on,0,0,1,,,,,,,,,0,,,88,49
99780,control_change,0,0,1,,,,,,,,,0,64,0,,
99780,note_on,60,0,1,,,,,,,,,0,,,86,0
99780,note_on,0,0,3,,,,,,,,,2,,,72,36
99840,note_on,60,0,1,,,,,,,,,0,,,88,0
99840,note_on,0,0,3,,,,,,,,,2,,,66,36
99840,control_change,0,0,3,,,,,,,,,2,64,127,,
99840,control_change,0,0,1,,,,,,,,,0,64,127,,
99840,note_on,60,0,3,,,,,,,,,2,,,72,0
99840,note_on,588,0,2,,,,,,,,,1,,,74,36
99840,note_on,0,0,1,,,,,,,,,0,,,81,49
99852,note_on,12,0,3,,,,,,,,,2,,,66,0
99852,note_on,12,0,1,,,,,,,,,0,,,81,0
99960,note_on,108,0,1,,,,,,,,,0,,,81,49
99960,note_on,108,0,3,,,,,,,,,2,,,66,36
99972,note_on,12,0,3,,,,,,,,,2,,,66,0
99972,note_on,12,0,1,,,,,,,,,0,,,81,0
100020,note_on,180,0,2,,,,,,,,,1,,,74,0
100020,note_on,0,0,2,,,,,,,,,1,,,76,36
100080,control_change,108,0,3,,,,,,,,,2,64,0,,
100080,note_on,0,0,2,,,,,,,,,1,,,74,36
100080,note_on,60,0,2,,,,,,,,,1,,,76,0
100080,control_change,108,0,1,,,,,,,,,0,64,0,,
100140,note_on,60,0,2,,,,,,,,,1,,,74,0
100140,note_on,0,0,2,,,,,,,,,1,,,72,36
100200,control_change,120,0,1,,,,,,,,,0,64,127,,
100200,note_on,60,0,2,,,,,,,,,1,,,72,0
100200,note_on,0,0,1,,,,,,,,,0,,,90,75
100200,control_change,5040,0,4,,,,,,,,,3,64,127,,
100200,note_on,0,0,3,,,,,,,,,2,,,74,62
100200,control_change,120,0,3,,,,,,,,,2,64,127,,
100200,note_on,0,0,4,,,,,,,,,3,,,71,36
100212,note_on,12,0,4,,,,,,,,,3,,,71,0
100320,note_on,108,0,4,,,,,,,,,3,,,71,36
100332,note_on,12,0,4,,,,,,,,,3,,,71,0
100380,note_on,0,0,3,,,,,,,,,2,,,71,36
100380,note_on,180,0,3,,,,,,,,,2,,,74,0
100380,note_on,180,0,1,,,,,,,,,0,,,90,0
100380,note_on,0,0,1,,,,,,,,,0,,,86,49
100440,note_on,0,0,1,,,,,,,,,0,,,88,49
100440,note_on,60,0,1,,,,,,,,,0,,,86,0
100440,control_change,108,0,4,,,,,,,,,3,64,0,,
100440,note_on,60,0,3,,,,,,,,,2,,,71,0
100440,note_on,0,0,3,,,,,,,,,2,,,72,36
100500,note_on,60,0,1,,,,,,,,,0,,,88,0
100500,control_change,0,0,1,,,,,,,,,0,64,0,,
100500,note_on,0,0,1,,,,,,,,,0,,,90,49
100500,note_on,60,0,3,,,,,,,,,2,,,72,0
100500,note_on,0,0,3,,,,,,,,,2,,,74,36
100500,control_change,0,0,3,,,,,,,,,2,64,0,,
100560,note_on,60,0,3,,,,,,,,,2,,,74,0
100560,note_on,0,0,3,,,,,,,,,2,,,67,62
100560,note_on,60,0,1,,,,,,,,,0,,,90,0
100560,note_on,0,0,2,,,,,,,,,1,,,76,62
100560,note_on,0,0,1,,,,,,,,,0,,,83,62
100560,control_change,0,0,1,,,,,,,,,0,64,127,,
100560,control_change,0,0,3,,,,,,,,,2,64,127,,
100560,control_change,360,0,2,,,,,,,,,1,64,127,,
100572,note_on,12,0,3,,,,,,,,,2,,,67,0
100572,note_on,12,0,1,,,,,,,,,0,,,83,0
100680,note_on,108,0,1,,,,,,,,,0,,,83,62
100680,note_on,108,0,3,,,,,,,,,2,,,67,62
100692,note_on,12,0,1,,,,,,,,,0,,,83,0
100692,note_on,12,0,3,,,,,,,,,2,,,67,0
100740,note_on,0,0,2,,,,,,,,,1,,,78,62
100740,note_on,180,0,2,,,,,,,,,1,,,76,0
100800,control_change,108,0,3,,,,,,,,,2,64,0,,
100800,note_on,60,0,2,,,,,,,,,1,,,78,0
100800,note_on,0,0,2,,,,,,,,,1,,,76,62
100800,control_change,108,0,1,,,,,,,,,0,64,0,,
100860,note_on,0,0,2,,,,,,,,,1,,,74,62
100860,note_on,60,0,2,,,,,,,,,1,,,76,0
100860,control_change,0,0,2,,,,,,,,,1,64,0,,
100920,note_on,60,0,2,,,,,,,,,1,,,74,0
100920,control_change,120,0,1,,,,,,,,,0,64,127,,
100920,note_on,0,0,1,,,,,,,,,0,,,91,101
100920,note_on,0,0,3,,,,,,,,,2,,,76,101
100920,control_change,120,0,3,,,,,,,,,2,64,127,,
100920,control_change,480,0,4,,,,,,,,,3,64,127,,
100920,note_on,0,0,4,,,,,,,,,3,,,72,75
100932,note_on,12,0,4,,,,,,,,,3,,,72,0
101040,note_on,108,0,4,,,,,,,,,3,,,72,75
101052,note_on,12,0,4,,,,,,,,,3,,,72,0
101100,note_on,180,0,1,,,,,,,,,0,,,91,0
101100,note_on,0,0,3,,,,,,,,,2,,,72,75
101100,note_on,180,0,3,,,,,,,,,2,,,76,0
101100,note_on,0,0,1,,,,,,,,,0,,,88,75
101160,note_on,60,0,1,,,,,,,,,0,,,88,0
101160,control_change,108,0,4,,,,,,,,,3,64,0,,
101160,note_on,60,0,3,,,,,,,,,2,,,72,0
101160,note_on,0,0,3,,,,,,,,,2,,,74,75
101160,note_on,0,0,1,,,,,,,,,0,,,90,75
101220,note_on,60,0,1,,,,,,,,,0,,,90,0
101220,control_change,0,0,1,,,,,,,,,0,64,0,,
101220,note_on,60,0,3,,,,,,,,,2,,,74,0
101220,control_change,0,0,3,,,,,,,,,2,64,0,,
101220,note_on,0,0,1,,,,,,,,,0,,,91,75
101220,note_on,0,0,3,,,,,,,,,2,,,76,75
101280,note_on,0,0,3,,,,,,,,,2,,,69,75
101280,control_change,0,0,3,,,,,,,,,2,64,127,,
101280,note_on,60,0,3,,,,,,,,,2,,,76,0
101280,control_change,120,0,4,,,,,,,,,3,64,127,,
101280,note_on,0,0,4,,,,,,,,,3,,,57,101
101280,note_on,60,0,1,,,,,,,,,0,,,91,0
101280,control_change,0,0,1,,,,,,,,,0,64,127,,
101280,note_on,0,0,1,,,,,,,,,0,,,84,75
101292,note_on,12,0,1,,,,,,,,,0,,,84,0
101292,note_on,12,0,3,,,,,,,,,2,,,69,0
101400,note_on,108,0,3,,,,,,,,,2,,,69,75
101400,note_on,108,0,1,,,,,,,,,0,,,84,75
101412,note_on,12,0,3,,,,,,,,,2,,,69,0
101412,note_on,12,0,1,,,,,,,,,0,,,84,0
101460,note_on,0,0,4,,,,,,,,,3,,,59,75
101460,note_on,180,0,4,,,,,,,,,3,,,57,0
101520,control_change,108,0,3,,,,,,,,,2,64,0,,
101520,control_change,108,0,1,,,,,,,,,0,64,0,,
101520,note_on,0,0,4,,,,,,,,,3,,,60,75
101520,note_on,60,0,4,,,,,,,,,3,,,59,0
101580,note_on,60,0,4,,,,,,,,,3,,,60,0
101580,control_change,0,0,4,,,,,,,,,3,64,0,,
101580,note_on,0,0,4,,,,,,,,,3,,,61,75
101640,note_on,60,0,4,,,,,,,,,3,,,61,0
101640,control_change,0,0,4,,,,,,,,,3,64,127,,
101640,control_change,120,0,1,,,,,,,,,0,64,127,,
101640,note_on,0,0,1,,,,,,,,,0,,,83,75
101640,note_on,0,0,4,,,,,,,,,3,,,62,49
101640,note_on,0,0,3,,,,,,,,,2,,,67,75
101640,control_change,120,0,3,,,,,,,,,2,64,127,,
101652,note_on,12,0,4,,,,,,,,,3,,,62,0
101760,note_on,108,0,4,,,,,,,,,3,,,62,49
101772,note_on,12,0,4,,,,,,,,,3,,,62,0
101820,note_on,0,0,1,,,,,,,,,0,,,79,49
101820,note_on,180,0,1,,,,,,,,,0,,,83,0
101820,note_on,180,0,3,,,,,,,,,2,,,67,0
101820,note_on,0,0,3,,,,,,,,,2,,,64,49
101880,note_on,0,0,1,,,,,,,,,0,,,81,49
101880,note_on,60,0,1,,,,,,,,,0,,,79,0
101880,note_on,60,0,3,,,,,,,,,2,,,64,0
101880,note_on,0,0,3,,,,,,,,,2,,,66,49
101880,control_change,108,0,4,,,,,,,,,3,64,0,,
101940,control_change,0,0,3,,,,,,,,,2,64,0,,
101940,note_on,60,0,3,,,,,,,,,2,,,66,0
101940,note_on,0,0,1,,,,,,,,,0,,,83,49
101940,control_change,0,0,1,,,,,,,,,0,64,0,,
101940,note_on,0,0,3,,,,,,,,,2,,,67,49
101940,note_on,60,0,1,,,,,,,,,0,,,81,0
102000,note_on,60,0,3,,,,,,,,,2,,,67,0
102000,control_change,0,0,3,,,,,,,,,2,64,127,,
102000,note_on,0,0,3,,,,,,,,,2,,,69,88
102000,note_on,0,0,1,,,,,,,,,0,,,84,88
102000,control_change,120,0,4,,,,,,,,,3,64,127,,
102000,note_on,0,0,4,,,,,,,,,3,,,62,62
102000,control_change,0,0,1,,,,,,,,,0,64,127,,
102000,note_on,60,0,1,,,,,,,,,0,,,83,0
102012,note_on,12,0,4,,,,,,,,,3,,,62,0
102120,note_on,108,0,4,,,,,,,,,3,,,62,62
102132,note_on,12,0,4,,,,,,,,,3,,,62,0
102180,note_on,180,0,1,,,,,,,,,0,,,84,0
102180,note_on,180,0,3,,,,,,,,,2,,,69,0
102180,note_on,0,0,3,,,,,,,,,2,,,66,62
102180,note_on,0,0,1,,,,,,,,,0,,,81,62
102240,note_on,0,0,1,,,,,,,,,0,,,83,62
102240,note_on,60,0,3,,,,,,,,,2,,,66,0
102240,control_change,108,0,4,,,,,,,,,3,64,0,,
102240,note_on,60,0,1,,,,,,,,,0,,,81,0
102240,note_on,0,0,3,,,,,,,,,2,,,67,62
102300,note_on,0,0,3,,,,,,,,,2,,,69,62
102300,control_change,0,0,3,,,,,,,,,2,64,0,,
102300,note_on,60,0,1,,,,,,,,,0,,,83,0
102300,note_on,0,0,1,,,,,,,,,0,,,84,62
102300,control_change,0,0,1,,,,,,,,,0,64,0,,
102300,note_on,60,0,3,,,,,,,,,2,,,67,0
102360,note_on,0,0,3,,,,,,,,,2,,,71,62
102360,control_change,0,0,3,,,,,,,,,2,64,127,,
102360,note_on,60,0,3,,,,,,,,,2,,,69,0
102360,note_on,60,0,1,,,,,,,,,0,,,84,0
102360,control_change,0,0,1,,,,,,,,,0,64,127,,
102360,note_on,0,0,4,,,,,,,,,3,,,62,88
102360,note_on,0,0,1,,,,,,,,,0,,,86,62
102360,control_change,120,0,4,,,,,,,,,3,64,127,,
102372,note_on,12,0,1,,,,,,,,,0,,,86,0
102372,note_on,12,0,3,,,,,,,,,2,,,71,0
102480,note_on,108,0,3,,,,,,,,,2,,,71,62
102480,note_on,108,0,1,,,,,,,,,0,,,86,62
102492,note_on,12,0,1,,,,,,,,,0,,,86,0
102492,note_on,12,0,3,,,,,,,,,2,,,71,0
102540,note_on,180,0,4,,,,,,,,,3,,,62,0
102540,note_on,0,0,4,,,,,,,,,3,,,64,62
102600,note_on,60,0,4,,,,,,,,,3,,,64,0
102600,control_change,108,0,1,,,,,,,,,0,64,0,,
102600,note_on,0,0,4,,,,,,,,,3,,,66,62
102600,control_change,108,0,3,,,,,,,,,2,64,0,,
102660,note_on,60,0,4,,,,,,,,,3,,,66,0
102660,control_change,0,0,4,,,,,,,,,3,64,0,,
102660,note_on,0,0,4,,,,,,,,,3,,,67,62
102720,note_on,0,0,3,,,,,,,,,2,,,72,75
102720,note_on,0,0,1,,,,,,,,,0,,,86,101
102720,control_change,120,0,1,,,,,,,,,0,64,127,,
102720,note_on,0,0,3,,,,,,,,,2,,,69,75
102720,control_change,1800,0,2,,,,,,,,,1,64,127,,
102720,note_on,0,0,2,,,,,,,,,1,,,74,75
102720,note_on,60,0,4,,,,,,,,,3,,,67,0
102720,control_change,120,0,3,,,,,,,,,2,64,127,,
102732,note_on,0,0,3,,,,,,,,,2,,,69,0
102732,note_on,12,0,3,,,,,,,,,2,,,72,0
102780,note_on,0,0,2,,,,,,,,,1,,,76,75
102780,note_on,60,0,2,,,,,,,,,1,,,74,0
102840,note_on,0,0,3,,,,,,,,,2,,,72,75
102840,note_on,108,0,3,,,,,,,,,2,,,69,75
102840,note_on,60,0,2,,,,,,,,,1,,,76,0
102840,control_change,0,0,2,,,,,,,,,1,64,0,,
102840,note_on,0,0,2,,,,,,,,,1,,,77,75
102852,note_on,0,0,3,,,,,,,,,2,,,69,0
102852,note_on,12,0,3,,,,,,,,,2,,,72,0
102900,note_on,0,0,1,,,,,,,,,0,,,78,75
102900,note_on,180,0,1,,,,,,,,,0,,,86,0
102900,note_on,60,0,2,,,,,,,,,1,,,77,0
102900,note_on,0,0,1,,,,,,,,,0,,,87,75
102960,control_change,108,0,3,,,,,,,,,2,64,0,,
102960,note_on,60,0,1,,,,,,,,,0,,,87,0
102960,note_on,0,0,1,,,,,,,,,0,,,78,0
102960,note_on,0,0,1,,,,,,,,,0,,,79,75
102960,note_on,0,0,1,,,,,,,,,0,,,88,75
103020,note_on,60,0,1,,,,,,,,,0,,,88,0
103020,note_on,0,0,1,,,,,,,,,0,,,79,0
103020,note_on,0,0,1,,,,,,,,,0,,,81,75
103020,note_on,0,0,1,,,,,,,,,0,,,90,75
103020,control_change,0,0,1,,,,,,,,,0,64,0,,
103080,note_on,0,0,3,,,,,,,,,2,,,76,88
103080,note_on,0,0,1,,,,,,,,,0,,,91,88
103080,note_on,0,0,3,,,,,,,,,2,,,73,88
103080,note_on,0,0,1,,,,,,,,,0,,,81,0
103080,control_change,120,0,3,,,,,,,,,2,64,127,,
103080,control_change,0,0,1,,,,,,,,,0,64,127,,
103080,note_on,60,0,1,,,,,,,,,0,,,90,0
103080,note_on,0,0,1,,,,,,,,,0,,,82,88
103092,note_on,12,0,3,,,,,,,,,2,,,76,0
103092,note_on,0,0,3,,,,,,,,,2,,,73,0
103092,note_on,0,0,1,,,,,,,,,0,,,82,0
103092,note_on,12,0,1,,,,,,,,,0,,,91,0
103200,note_on,0,0,1,,,,,,,,,0,,,91,88
103200,note_on,108,0,1,,,,,,,,,0,,,82,88
103200,note_on,0,0,3,,,,,,,,,2,,,76,88
103200,note_on,108,0,3,,,,,,,,,2,,,73,88
103212,note_on,0,0,1,,,,,,,,,0,,,82,0
103212,note_on,12,0,1,,,,,,,,,0,,,91,0
103212,note_on,12,0,3,,,,,,,,,2,,,76,0
103212,note_on,0,0,3,,,,,,,,,2,,,73,0
103320,control_change,108,0,1,,,,,,,,,0,64,0,,
103320,control_change,108,0,3,,,,,,,,,2,64,0,,
103800,note_on,0,0,1,,,,,,,,,0,,,74,36
103800,control_change,480,0,3,,,,,,,,,2,64,127,,
103800,note_on,0,0,3,,,,,,,,,2,,,59,36
103800,control_change,1080,0,4,,,,,,,,,3,64,127,,
103800,note_on,0,0,4,,,,,,,,,3,,,50,36
103800,control_change,480,0,1,,,,,,,,,0,64,127,,
103812,note_on,12,0,4,,,,,,,,,3,,,50,0
103920,note_on,108,0,4,,,,,,,,,3,,,50,36
103932,note_on,12,0,4,,,,,,,,,3,,,50,0
103980,note_on,0,0,1,,,,,,,,,0,,,72,36
103980,note_on,180,0,1,,,,,,,,,0,,,74,0
104040,note_on,240,0,3,,,,,,,,,2,,,59,0
104040,control_change,0,0,3,,,,,,,,,2,64,0,,
104040,note_on,0,0,3,,,,,,,,,2,,,60,36
104040,control_change,0,0,1,,,,,,,,,0,64,0,,
104040,note_on,60,0,1,,,,,,,,,0,,,72,0
104040,note_on,0,0,1,,,,,,,,,0,,,71,36
104040,control_change,108,0,4,,,,,,,,,3,64,0,,
104100,note_on,60,0,1,,,,,,,,,0,,,71,0
104100,note_on,0,0,1,,,,,,,,,0,,,69,36
104160,control_change,1260,0,2,,,,,,,,,1,64,127,,
104160,note_on,0,0,2,,,,,,,,,1,,,65,36
104160,note_on,0,0,3,,,,,,,,,2,,,62,36
104160,control_change,0,0,3,,,,,,,,,2,64,127,,
104160,note_on,120,0,3,,,,,,,,,2,,,60,0
104160,note_on,60,0,1,,,,,,,,,0,,,69,0
104160,control_change,0,0,1,,,,,,,,,0,64,127,,
104160,control_change,120,0,4,,,,,,,,,3,64,127,,
104160,note_on,0,0,4,,,,,,,,,3,,,50,36
104160,note_on,0,0,1,,,,,,,,,0,,,68,36
104172,note_on,12,0,1,,,,,,,,,0,,,68,0
104172,note_on,12,0,4,,,,,,,,,3,,,50,0
104280,note_on,108,0,1,,,,,,,,,0,,,68,36
104280,note_on,108,0,4,,,,,,,,,3,,,50,36
104292,note_on,12,0,4,,,,,,,,,3,,,50,0
104292,note_on,12,0,1,,,,,,,,,0,,,68,0
104340,note_on,180,0,2,,,,,,,,,1,,,65,0
104340,note_on,0,0,2,,,,,,,,,1,,,64,36
104400,note_on,60,0,2,,,,,,,,,1,,,64,0
104400,control_change,0,0,2,,,,,,,,,1,64,0,,
104400,note_on,0,0,2,,,,,,,,,1,,,63,36
104400,note_on,0,0,3,,,,,,,,,2,,,59,36
104400,note_on,240,0,3,,,,,,,,,2,,,62,0
104400,control_change,108,0,4,,,,,,,,,3,64,0,,
104400,control_change,108,0,1,,,,,,,,,0,64,0,,
104400,control_change,0,0,3,,,,,,,,,2,64,0,,
104460,note_on,0,0,2,,,,,,,,,1,,,62,36
104460,note_on,60,0,2,,,,,,,,,1,,,63,0
104520,control_change,120,0,4,,,,,,,,,3,64,127,,
104520,note_on,0,0,4,,,,,,,,,3,,,50,36
104520,note_on,60,0,2,,,,,,,,,1,,,62,0
104520,control_change,0,0,2,,,,,,,,,1,64,127,,
104520,note_on,0,0,1,,,,,,,,,0,,,72,36
104520,control_change,120,0,1,,,,,,,,,0,64,127,,
104520,note_on,0,0,3,,,,,,,,,2,,,57,36
104520,control_change,0,0,3,,,,,,,,,2,64,127,,
104520,note_on,120,0,3,,,,,,,,,2,,,59,0
104520,note_on,0,0,2,,,,,,,,,1,,,60,36
104532,note_on,12,0,2,,,,,,,,,1,,,60,0
104532,note_on,12,0,4,,,,,,,,,3,,,50,0
104640,note_on,108,0,2,,,,,,,,,1,,,60,36
104640,note_on,108,0,4,,,,,,,,,3,,,50,36
104652,note_on,12,0,2,,,,,,,,,1,,,60,0
104652,note_on,12,0,4,,,,,,,,,3,,,50,0
104700,note_on,180,0,1,,,,,,,,,0,,,72,0
104700,note_on,0,0,1,,,,,,,,,0,,,71,36
104760,note_on,0,0,3,,,,,,,,,2,,,59,36
104760,note_on,240,0,3,,,,,,,,,2,,,57,0
104760,control_change,0,0,3,,,,,,,,,2,64,0,,
104760,control_change,108,0,4,,,,,,,,,3,64,0,,
104760,control_change,108,0,2,,,,,,,,,1,64,0,,
104760,note_on,60,0,1,,,,,,,,,0,,,71,0
104760,control_change,0,0,1,,,,,,,,,0,64,0,,
104760,note_on,0,0,1,,,,,,,,,0,,,69,36
104820,note_on,60,0,1,,,,,,,,,0,,,69,0
104820,note_on,0,0,1,,,,,,,,,0,,,67,36
104880,note_on,0,0,3,,,,,,,,,2,,,60,36
104880,control_change,0,0,3,,,,,,,,,2,64,127,,
104880,note_on,120,0,3,,,,,,,,,2,,,59,0
104880,note_on,0,0,4,,,,,,,,,3,,,50,36
104880,note_on,0,0,1,,,,,,,,,0,,,66,36
104880,control_change,120,0,4,,,,,,,,,3,64,127,,
104880,note_on,60,0,1,,,,,,,,,0,,,67,0
104880,control_change,120,0,2,,,,,,,,,1,64,127,,
104880,note_on,0,0,2,,,,,,,,,1,,,63,36
104880,control_change,0,0,1,,,,,,,,,0,64,127,,
104892,note_on,12,0,4,,,,,,,,,3,,,50,0
104892,note_on,12,0,1,,,,,,,,,0,,,66,0
105000,note_on,108,0,1,,,,,,,,,0,,,66,36
105000,note_on,108,0,4,,,,,,,,,3,,,50,36
105012,note_on,12,0,4,,,,,,,,,3,,,50,0
105012,note_on,12,0,1,,,,,,,,,0,,,66,0
105060,note_on,0,0,2,,,,,,,,,1,,,62,36
105060,note_on,180,0,2,,,,,,,,,1,,,63,0
105120,note_on,0,0,2,,,,,,,,,1,,,61,36
105120,note_on,0,0,3,,,,,,,,,2,,,57,36
105120,control_change,108,0,1,,,,,,,,,0,64,0,,
105120,control_change,0,0,2,,,,,,,,,1,64,0,,
105120,note_on,240,0,3,,,,,,,,,2,,,60,0
105120,control_change,0,0,3,,,,,,,,,2,64,0,,
105120,note_on,60,0,2,,,,,,,,,1,,,62,0
105120,control_change,108,0,4,,,,,,,,,3,64,0,,
105180,note_on,60,0,2,,,,,,,,,1,,,61,0
105180,note_on,0,0,2,,,,,,,,,1,,,60,36
105240,note_on,0,0,1,,,,,,,,,0,,,67,88
105240,note_on,60,0,2,,,,,,,,,1,,,60,0
105240,control_change,120,0,1,,,,,,,,,0,64,127,,
105240,note_on,0,0,1,,,,,,,,,0,,,59,88
105240,note_on,0,0,3,,,,,,,,,2,,,52,75
105240,control_change,0,0,3,,,,,,,,,2,64,127,,
105240,note_on,120,0,3,,,,,,,,,2,,,57,0
105252,note_on,12,0,3,,,,,,,,,2,,,52,0
105252,note_on,0,0,1,,,,,,,,,0,,,59,0
105252,note_on,12,0,1,,,,,,,,,0,,,67,0
105360,note_on,0,0,1,,,,,,,,,0,,,67,88
105360,note_on,0,0,1,,,,,,,,,0,,,69,88
105360,note_on,108,0,3,,,,,,,,,2,,,48,75
105360,note_on,108,0,1,,,,,,,,,0,,,64,88
105372,note_on,0,0,1,,,,,,,,,0,,,64,0
105372,note_on,12,0,3,,,,,,,,,2,,,48,0
105372,note_on,0,0,1,,,,,,,,,0,,,67,0
105372,note_on,12,0,1,,,,,,,,,0,,,69,0
105480,note_on,0,0,1,,,,,,,,,0,,,71,88
105480,note_on,0,0,1,,,,,,,,,0,,,66,88
105480,note_on,0,0,1,,,,,,,,,0,,,62,88
105480,control_change,108,0,1,,,,,,,,,0,64,0,,
105480,note_on,0,0,3,,,,,,,,,2,,,50,75
105480,control_change,108,0,3,,,,,,,,,2,64,0,,
105492,note_on,12,0,3,,,,,,,,,2,,,50,0
105492,note_on,12,0,1,,,,,,,,,0,,,71,0
105492,note_on,0,0,1,,,,,,,,,0,,,66,0
105492,note_on,0,0,1,,,,,,,,,0,,,62,0
105600,note_on,0,0,3,,,,,,,,,2,,,59,75
105600,note_on,0,0,3,,,,,,,,,2,,,55,75
105600,control_change,108,0,3,,,,,,,,,2,64,127,,
105600,control_change,108,0,1,,,,,,,,,0,64,127,,
105600,note_on,0,0,1,,,,,,,,,0,,,71,88
105600,note_on,0,0,1,,,,,,,,,0,,,67,88
105600,note_on,0,0,1,,,,,,,,,0,,,62,88
105612,note_on,12,0,3,,,,,,,,,2,,,59,0
105612,note_on,0,0,3,,,,,,,,,2,,,55,0
105720,note_on,120,0,1,,,,,,,,,0,,,71,0
105720,note_on,0,0,1,,,,,,,,,0,,,67,0
105720,note_on,0,0,1,,,,,,,,,0,,,62,0
105720,note_on,0,0,1,,,,,,,,,0,,,74,88
105720,control_change,108,0,3,,,,,,,,,2,64,0,,
105780,note_on,60,0,1,,,,,,,,,0,,,74,0
105780,note_on,0,0,1,,,,,,,,,0,,,71,88
105840,control_change,0,0,1,,,,,,,,,0,64,0,,
105840,note_on,0,0,1,,,,,,,,,0,,,74,88
105840,note_on,60,0,1,,,,,,,,,0,,,71,0
105960,note_on,0,0,1,,,,,,,,,0,,,59,49
105960,control_change,0,0,1,,,,,,,,,0,64,127,,
105960,note_on,0,0,1,,,,,,,,,0,,,67,49
105960,control_change,240,0,3,,,,,,,,,2,64,127,,
105960,note_on,0,0,3,,,,,,,,,2,,,52,36
105960,note_on,120,0,1,,,,,,,,,0,,,74,0
105972,note_on,0,0,1,,,,,,,,,0,,,59,0
105972,note_on,12,0,3,,,,,,,,,2,,,52,0
105972,note_on,12,0,1,,,,,,,,,0,,,67,0
106080,note_on,0,0,1,,,,,,,,,0,,,69,49
106080,note_on,108,0,3,,,,,,,,,2,,,48,36
106080,note_on,108,0,1,,,,,,,,,0,,,64,49
106080,note_on,0,0,1,,,,,,,,,0,,,67,49
106092,note_on,12,0,1,,,,,,,,,0,,,69,0
106092,note_on,0,0,1,,,,,,,,,0,,,64,0
106092,note_on,12,0,3,,,,,,,,,2,,,48,0
106092,note_on,0,0,1,,,,,,,,,0,,,67,0
106200,note_on,0,0,1,,,,,,,,,0,,,71,49
106200,note_on,108,0,1,,,,,,,,,0,,,62,49
106200,note_on,0,0,1,,,,,,,,,0,,,66,49
106200,note_on,108,0,3,,,,,,,,,2,,,50,36
106212,note_on,0,0,1,,,,,,,,,0,,,66,0
106212,note_on,0,0,1,,,,,,,,,0,,,62,0
106212,note_on,12,0,3,,,,,,,,,2,,,50,0
106212,note_on,12,0,1,,,,,,,,,0,,,71,0
106320,control_change,108,0,3,,,,,,,,,2,64,0,,
106320,note_on,0,0,3,,,,,,,,,2,,,43,36
106320,note_on,0,0,1,,,,,,,,,0,,,67,49
106320,note_on,0,0,1,,,,,,,,,0,,,59,49
106320,control_change,108,0,1,,,,,,,,,0,64,0,,
106332,note_on,12,0,3,,,,,,,,,2,,,43,0
106332,note_on,0,0,1,,,,,,,,,0,,,59,0
106332,note_on,12,0,1,,,,,,,,,0,,,67,0
107040,control_change,1800,0,2,,,,,,,,,1,64,0,,
107040,control_change,708,0,3,,,,,,,,,2,64,0,,
107040,end_of_track,0,1,2,,,,,,,,,,,,,
107040,control_change,708,0,1,,,,,,,,,0,64,0,,
107040,end_of_track,0,1,1,,,,,,,,,,,,,
107040,control_change,1920,0,4,,,,,,,,,3,64,0,,
107040,end_of_track,0,1,3,,,,,,,,,,,,,
107040,end_of_track,0,1,4,,,,,,,,,,,,,
