tick,type,numerator,denominator,clocks_per_click,notated_32nd_notes_per_beat,time,meta,track,key,tempo,port,control,value,channel,note,velocity
0,time_signature,3,4,24,8,0,1,0,,,,,,,,
0,control_change,,,,,0,0,1,,,,7,80,0,,
0,control_change,,,,,0,0,1,,,,91,96,0,,
0,control_change,,,,,0,0,1,,,,64,95,0,,
0,track_name,,,,,0,1,7,,,,,,,,
0,midi_port,,,,,0,1,2,,,0,,,,,
0,track_name,,,,,0,1,2,,,,,,,,
0,control_change,,,,,0,0,2,,,,7,80,0,,
0,note_on,,,,,0,0,2,,,,,,0,36,111
0,note_on,,,,,0,0,2,,,,,,0,48,111
0,note_on,,,,,0,0,2,,,,,,0,51,111
0,note_on,,,,,0,0,2,,,,,,0,55,111
0,note_on,,,,,0,0,2,,,,,,0,60,111
0,midi_port,,,,,0,1,3,,,0,,,,,
0,track_name,,,,,0,1,3,,,,,,,,
0,end_of_track,,,,,0,1,3,,,,,,,,
0,midi_port,,,,,0,1,4,,,0,,,,,
0,track_name,,,,,0,1,4,,,,,,,,
0,end_of_track,,,,,0,1,4,,,,,,,,
0,midi_port,,,,,0,1,5,,,0,,,,,
0,track_name,,,,,0,1,5,,,,,,,,
0,end_of_track,,,,,0,1,5,,,,,,,,
0,midi_port,,,,,0,1,6,,,0,,,,,
0,track_name,,,,,0,1,6,,,,,,,,
0,end_of_track,,,,,0,1,6,,,,,,,,
0,midi_port,,,,,0,1,7,,,0,,,,,
0,track_name,,,,,0,1,1,,,,,,,,
0,midi_port,,,,,0,1,1,,,0,,,,,
0,end_of_track,,,,,0,1,7,,,,,,,,
0,key_signature,,,,,0,1,0,Eb,,,,,,,
0,set_tempo,,,,,0,1,0,,447761,,,,,,
240,note_on,,,,,0,0,2,,,,,,0,55,0
240,note_on,,,,,0,0,2,,,,,,0,48,0
240,note_on,,,,,0,0,2,,,,,,0,36,0
240,note_on,,,,,240,0,2,,,,,,0,60,0
240,note_on,,,,,0,0,2,,,,,,0,51,0
240,control_change,,,,,240,0,1,,,,64,0,0,,
320,set_tempo,,,,,320,1,0,,504201,,,,,,
330,note_on,,,,,90,0,2,,,,,,0,36,100
330,note_on,,,,,0,0,2,,,,,,0,48,100
330,note_on,,,,,0,0,2,,,,,,0,51,100
330,note_on,,,,,0,0,2,,,,,,0,55,100
330,note_on,,,,,0,0,2,,,,,,0,60,100
351,note_on,,,,,0,0,2,,,,,,0,55,0
351,note_on,,,,,0,0,2,,,,,,0,48,0
351,note_on,,,,,0,0,2,,,,,,0,51,0
351,note_on,,,,,21,0,2,,,,,,0,60,0
351,note_on,,,,,0,0,2,,,,,,0,36,0
360,note_on,,,,,9,0,2,,,,,,0,36,118
360,note_on,,,,,0,0,2,,,,,,0,56,118
360,note_on,,,,,0,0,2,,,,,,0,62,118
360,note_on,,,,,0,0,2,,,,,,0,53,118
360,note_on,,,,,0,0,2,,,,,,0,48,118
360,control_change,,,,,120,0,1,,,,64,96,0,,
370,set_tempo,,,,,50,1,0,,447761,,,,,,
450,note_on,,,,,90,0,2,,,,,,0,62,0
450,note_on,,,,,0,0,2,,,,,,0,53,0
450,note_on,,,,,0,0,2,,,,,,0,36,0
450,note_on,,,,,0,0,2,,,,,,0,48,0
450,note_on,,,,,0,0,2,,,,,,0,56,0
480,note_on,,,,,0,0,2,,,,,,0,62,86
480,note_on,,,,,0,0,2,,,,,,0,53,86
480,note_on,,,,,0,0,2,,,,,,0,48,86
480,note_on,,,,,30,0,2,,,,,,0,36,86
480,note_on,,,,,0,0,2,,,,,,0,56,86
570,note_on,,,,,0,0,2,,,,,,0,56,0
570,note_on,,,,,90,0,2,,,,,,0,62,0
570,note_on,,,,,0,0,2,,,,,,0,53,0
570,note_on,,,,,0,0,2,,,,,,0,36,0
570,note_on,,,,,0,0,2,,,,,,0,48,0
600,set_tempo,,,,,230,1,0,,504201,,,,,,
600,control_change,,,,,240,0,1,,,,64,0,0,,
720,set_tempo,,,,,120,1,0,,461538,,,,,,
720,note_on,,,,,0,0,2,,,,,,0,48,116
720,note_on,,,,,0,0,2,,,,,,0,55,116
720,note_on,,,,,120,0,1,,,,,,0,64,113
720,control_change,,,,,0,0,1,,,,64,96,0,,
720,note_on,,,,,150,0,2,,,,,,0,58,116
730,set_tempo,,,,,10,1,0,,458015,,,,,,
760,set_tempo,,,,,30,1,0,,454545,,,,,,
780,set_tempo,,,,,20,1,0,,447761,,,,,,
840,note_on,,,,,120,0,1,,,,,,0,64,0
840,set_tempo,,,,,60,1,0,,444444,,,,,,
850,set_tempo,,,,,10,1,0,,441176,,,,,,
870,note_on,,,,,30,0,1,,,,,,0,65,89
870,control_change,,,,,0,0,1,,,,64,0,0,,
880,set_tempo,,,,,30,1,0,,434782,,,,,,
890,set_tempo,,,,,10,1,0,,431654,,,,,,
894,note_on,,,,,24,0,1,,,,,,0,65,0
900,note_on,,,,,6,0,1,,,,,,0,67,93
920,set_tempo,,,,,30,1,0,,425531,,,,,,
924,note_on,,,,,24,0,1,,,,,,0,67,0
930,note_on,,,,,6,0,1,,,,,,0,68,101
950,set_tempo,,,,,30,1,0,,422535,,,,,,
954,note_on,,,,,24,0,1,,,,,,0,68,0
960,note_on,,,,,6,0,1,,,,,,0,70,106
960,set_tempo,,,,,10,1,0,,419580,,,,,,
960,note_on,,,,,240,0,2,,,,,,0,48,0
960,note_on,,,,,0,0,2,,,,,,0,55,0
960,note_on,,,,,0,0,2,,,,,,0,58,0
970,set_tempo,,,,,10,1,0,,416666,,,,,,
988,note_on,,,,,28,0,1,,,,,,0,70,0
990,note_on,,,,,2,0,1,,,,,,0,72,111
1000,set_tempo,,,,,30,1,0,,410958,,,,,,
1014,note_on,,,,,24,0,1,,,,,,0,72,0
1020,note_on,,,,,6,0,1,,,,,,0,74,117
1030,set_tempo,,,,,30,1,0,,408163,,,,,,
1040,set_tempo,,,,,10,1,0,,402684,,,,,,
1044,note_on,,,,,24,0,1,,,,,,0,74,0
1050,note_on,,,,,90,0,2,,,,,,0,48,100
1050,note_on,,,,,0,0,2,,,,,,0,58,100
1050,note_on,,,,,6,0,1,,,,,,0,76,123
1050,set_tempo,,,,,10,1,0,,400000,,,,,,
1050,note_on,,,,,0,0,2,,,,,,0,55,100
1070,set_tempo,,,,,20,1,0,,397350,,,,,,
1074,note_on,,,,,24,0,1,,,,,,0,76,0
1074,note_on,,,,,24,0,2,,,,,,0,58,0
1074,note_on,,,,,0,0,2,,,,,,0,55,0
1074,note_on,,,,,0,0,2,,,,,,0,48,0
1080,set_tempo,,,,,10,1,0,,444444,,,,,,
1080,note_on,,,,,0,0,2,,,,,,0,57,125
1080,note_on,,,,,6,0,2,,,,,,0,48,125
1080,note_on,,,,,0,0,2,,,,,,0,60,125
1080,control_change,,,,,0,0,1,,,,64,95,0,,
1080,note_on,,,,,6,0,1,,,,,,0,65,127
1170,note_on,,,,,90,0,1,,,,,,0,65,0
1170,note_on,,,,,90,0,2,,,,,,0,60,0
1170,note_on,,,,,0,0,2,,,,,,0,57,0
1170,note_on,,,,,0,0,2,,,,,,0,48,0
1200,note_on,,,,,0,0,2,,,,,,0,60,86
1200,note_on,,,,,0,0,1,,,,,,0,77,94
1200,note_on,,,,,30,0,2,,,,,,0,48,86
1200,note_on,,,,,0,0,2,,,,,,0,57,86
1200,note_on,,,,,0,0,1,,,,,,0,72,94
1200,note_on,,,,,30,0,1,,,,,,0,65,94
1290,note_on,,,,,0,0,1,,,,,,0,65,0
1290,note_on,,,,,90,0,2,,,,,,0,60,0
1290,note_on,,,,,0,0,1,,,,,,0,72,0
1290,note_on,,,,,0,0,2,,,,,,0,48,0
1290,note_on,,,,,0,0,2,,,,,,0,57,0
1290,note_on,,,,,90,0,1,,,,,,0,77,0
1320,control_change,,,,,30,0,1,,,,64,0,0,,
1400,set_tempo,,,,,320,1,0,,504201,,,,,,
1410,note_on,,,,,0,0,2,,,,,,0,60,110
1410,note_on,,,,,0,0,2,,,,,,0,48,110
1410,note_on,,,,,120,0,2,,,,,,0,57,110
1410,note_on,,,,,90,0,1,,,,,,0,65,107
1410,note_on,,,,,0,0,1,,,,,,0,72,107
1410,note_on,,,,,0,0,1,,,,,,0,77,107
1434,note_on,,,,,24,0,1,,,,,,0,77,0
1434,note_on,,,,,24,0,2,,,,,,0,60,0
1434,note_on,,,,,0,0,1,,,,,,0,65,0
1434,note_on,,,,,0,0,2,,,,,,0,57,0
1434,note_on,,,,,0,0,2,,,,,,0,48,0
1434,note_on,,,,,0,0,1,,,,,,0,72,0
1440,note_on,,,,,0,0,1,,,,,,0,75,119
1440,note_on,,,,,0,0,1,,,,,,0,78,119
1440,control_change,,,,,0,0,1,,,,64,95,0,,
1440,note_on,,,,,0,0,1,,,,,,0,72,119
1440,note_on,,,,,0,0,2,,,,,,0,60,119
1440,note_on,,,,,6,0,1,,,,,,0,66,119
1440,note_on,,,,,0,0,2,,,,,,0,56,119
1440,note_on,,,,,6,0,2,,,,,,0,48,119
1440,set_tempo,,,,,40,1,0,,444444,,,,,,
1530,note_on,,,,,0,0,2,,,,,,0,56,0
1530,note_on,,,,,90,0,2,,,,,,0,60,0
1530,note_on,,,,,0,0,1,,,,,,0,75,0
1530,note_on,,,,,0,0,2,,,,,,0,48,0
1530,note_on,,,,,90,0,1,,,,,,0,78,0
1530,note_on,,,,,0,0,1,,,,,,0,66,0
1530,note_on,,,,,0,0,1,,,,,,0,72,0
1560,note_on,,,,,0,0,1,,,,,,0,78,94
1560,note_on,,,,,30,0,1,,,,,,0,66,94
1560,note_on,,,,,30,0,2,,,,,,0,48,86
1560,note_on,,,,,0,0,2,,,,,,0,56,86
1560,note_on,,,,,0,0,2,,,,,,0,60,86
1560,note_on,,,,,0,0,1,,,,,,0,75,94
1560,note_on,,,,,0,0,1,,,,,,0,72,94
1650,note_on,,,,,0,0,2,,,,,,0,48,0
1650,note_on,,,,,0,0,1,,,,,,0,72,0
1650,note_on,,,,,0,0,1,,,,,,0,75,0
1650,note_on,,,,,90,0,2,,,,,,0,60,0
1650,note_on,,,,,0,0,2,,,,,,0,56,0
1650,note_on,,,,,90,0,1,,,,,,0,78,0
1650,note_on,,,,,0,0,1,,,,,,0,66,0
1680,control_change,,,,,30,0,1,,,,64,0,0,,
1760,set_tempo,,,,,320,1,0,,545454,,,,,,
1770,note_on,,,,,0,0,2,,,,,,0,60,116
1770,note_on,,,,,0,0,1,,,,,,0,75,114
1770,note_on,,,,,0,0,1,,,,,,0,72,114
1770,note_on,,,,,0,0,1,,,,,,0,78,114
1770,note_on,,,,,120,0,2,,,,,,0,48,116
1770,note_on,,,,,90,0,1,,,,,,0,66,114
1770,note_on,,,,,0,0,2,,,,,,0,56,116
1794,note_on,,,,,24,0,1,,,,,,0,78,0
1794,note_on,,,,,0,0,1,,,,,,0,66,0
1794,note_on,,,,,0,0,1,,,,,,0,72,0
1794,note_on,,,,,0,0,1,,,,,,0,75,0
1794,note_on,,,,,24,0,2,,,,,,0,60,0
1794,note_on,,,,,0,0,2,,,,,,0,56,0
1794,note_on,,,,,0,0,2,,,,,,0,48,0
1800,note_on,,,,,0,0,1,,,,,,0,79,127
1800,note_on,,,,,0,0,1,,,,,,0,72,127
1800,note_on,,,,,0,0,1,,,,,,0,75,127
1800,control_change,,,,,0,0,1,,,,64,95,0,,
1800,note_on,,,,,6,0,2,,,,,,0,48,126
1800,note_on,,,,,0,0,2,,,,,,0,55,126
1800,note_on,,,,,0,0,2,,,,,,0,60,126
1800,note_on,,,,,6,0,1,,,,,,0,67,127
1830,set_tempo,,,,,70,1,0,,447761,,,,,,
1890,note_on,,,,,90,0,1,,,,,,0,79,0
1890,note_on,,,,,0,0,1,,,,,,0,67,0
1890,note_on,,,,,0,0,1,,,,,,0,72,0
1890,note_on,,,,,0,0,1,,,,,,0,75,0
1890,note_on,,,,,0,0,2,,,,,,0,48,0
1890,note_on,,,,,0,0,2,,,,,,0,55,0
1890,note_on,,,,,90,0,2,,,,,,0,60,0
1920,note_on,,,,,30,0,2,,,,,,0,48,93
1920,note_on,,,,,0,0,1,,,,,,0,79,97
1920,note_on,,,,,0,0,1,,,,,,0,75,97
1920,note_on,,,,,0,0,1,,,,,,0,72,97
1920,note_on,,,,,30,0,1,,,,,,0,67,97
1920,note_on,,,,,0,0,2,,,,,,0,60,93
1920,note_on,,,,,0,0,2,,,,,,0,55,93
2010,note_on,,,,,90,0,2,,,,,,0,60,0
2010,note_on,,,,,0,0,2,,,,,,0,48,0
2010,note_on,,,,,0,0,1,,,,,,0,75,0
2010,note_on,,,,,0,0,1,,,,,,0,72,0
2010,note_on,,,,,0,0,1,,,,,,0,67,0
2010,note_on,,,,,90,0,1,,,,,,0,79,0
2010,note_on,,,,,0,0,2,,,,,,0,55,0
2040,control_change,,,,,30,0,1,,,,64,0,0,,
2130,note_on,,,,,0,0,1,,,,,,0,79,114
2130,note_on,,,,,90,0,1,,,,,,0,67,114
2154,note_on,,,,,0,0,1,,,,,,0,67,0
2154,note_on,,,,,24,0,1,,,,,,0,79,0
2160,note_on,,,,,6,0,1,,,,,,0,68,125
2160,note_on,,,,,0,0,1,,,,,,0,80,125
2160,control_change,,,,,0,0,1,,,,64,95,0,,
2160,note_on,,,,,0,0,2,,,,,,0,51,125
2160,note_on,,,,,150,0,2,,,,,,0,48,125
2160,note_on,,,,,0,0,2,,,,,,0,39,125
2170,set_tempo,,,,,340,1,0,,504201,,,,,,
2270,set_tempo,,,,,100,1,0,,454545,,,,,,
2280,note_on,,,,,0,0,1,,,,,,0,79,109
2280,note_on,,,,,0,0,1,,,,,,0,67,109
2280,note_on,,,,,120,0,1,,,,,,0,80,0
2280,note_on,,,,,0,0,1,,,,,,0,68,0
2325,note_on,,,,,0,0,1,,,,,,0,67,0
2325,note_on,,,,,0,0,2,,,,,,0,48,0
2325,note_on,,,,,0,0,2,,,,,,0,39,0
2325,note_on,,,,,165,0,2,,,,,,0,51,0
2325,note_on,,,,,45,0,1,,,,,,0,79,0
2325,control_change,,,,,0,0,1,,,,64,0,0,,
2340,note_on,,,,,0,0,2,,,,,,0,48,112
2340,note_on,,,,,15,0,2,,,,,,0,36,112
2340,note_on,,,,,15,0,1,,,,,,0,63,114
2340,note_on,,,,,0,0,1,,,,,,0,75,114
2385,note_on,,,,,0,0,2,,,,,,0,36,0
2385,note_on,,,,,45,0,2,,,,,,0,48,0
2385,note_on,,,,,45,0,1,,,,,,0,75,0
2385,note_on,,,,,0,0,1,,,,,,0,63,0
2400,note_on,,,,,0,0,1,,,,,,0,74,119
2400,note_on,,,,,15,0,2,,,,,,0,41,118
2400,note_on,,,,,0,0,2,,,,,,0,53,118
2400,note_on,,,,,15,0,1,,,,,,0,62,119
2445,note_on,,,,,45,0,1,,,,,,0,74,0
2445,note_on,,,,,0,0,1,,,,,,0,62,0
2445,note_on,,,,,0,0,2,,,,,,0,41,0
2445,note_on,,,,,45,0,2,,,,,,0,53,0
2460,note_on,,,,,15,0,1,,,,,,0,60,124
2460,note_on,,,,,0,0,2,,,,,,0,54,125
2460,note_on,,,,,15,0,2,,,,,,0,42,125
2460,note_on,,,,,0,0,1,,,,,,0,72,124
2480,set_tempo,,,,,210,1,0,,504201,,,,,,
2505,note_on,,,,,45,0,1,,,,,,0,72,0
2505,note_on,,,,,0,0,1,,,,,,0,60,0
2505,note_on,,,,,0,0,2,,,,,,0,42,0
2505,note_on,,,,,45,0,2,,,,,,0,54,0
2520,note_on,,,,,15,0,1,,,,,,0,67,127
2520,note_on,,,,,0,0,1,,,,,,0,74,127
2520,control_change,,,,,0,0,1,,,,64,96,0,,
2520,note_on,,,,,0,0,2,,,,,,0,55,127
2520,note_on,,,,,15,0,2,,,,,,0,43,127
2520,note_on,,,,,0,0,1,,,,,,0,71,127
2520,note_on,,,,,0,0,1,,,,,,0,79,127
2520,set_tempo,,,,,40,1,0,,454545,,,,,,
2610,note_on,,,,,0,0,1,,,,,,0,67,0
2610,note_on,,,,,0,0,1,,,,,,0,71,0
2610,note_on,,,,,0,0,1,,,,,,0,74,0
2610,note_on,,,,,90,0,2,,,,,,0,55,0
2610,note_on,,,,,0,0,2,,,,,,0,43,0
2610,note_on,,,,,90,0,1,,,,,,0,79,0
2640,note_on,,,,,30,0,1,,,,,,0,67,99
2640,note_on,,,,,0,0,1,,,,,,0,71,99
2640,note_on,,,,,0,0,1,,,,,,0,74,99
2640,note_on,,,,,0,0,2,,,,,,0,43,101
2640,note_on,,,,,30,0,2,,,,,,0,31,101
2640,note_on,,,,,0,0,1,,,,,,0,79,99
2730,note_on,,,,,90,0,2,,,,,,0,43,0
2730,note_on,,,,,90,0,1,,,,,,0,79,0
2730,note_on,,,,,0,0,1,,,,,,0,67,0
2730,note_on,,,,,0,0,1,,,,,,0,71,0
2730,note_on,,,,,0,0,1,,,,,,0,74,0
2730,note_on,,,,,0,0,2,,,,,,0,31,0
2755,control_change,,,,,25,0,1,,,,64,0,0,,
2840,set_tempo,,,,,320,1,0,,508474,,,,,,
2850,note_on,,,,,95,0,1,,,,,,0,67,114
2850,note_on,,,,,0,0,2,,,,,,0,55,114
2850,note_on,,,,,120,0,2,,,,,,0,43,114
2850,note_on,,,,,0,0,1,,,,,,0,79,114
2874,note_on,,,,,24,0,1,,,,,,0,79,0
2874,note_on,,,,,0,0,2,,,,,,0,43,0
2874,note_on,,,,,24,0,2,,,,,,0,55,0
2874,note_on,,,,,0,0,1,,,,,,0,67,0
2880,note_on,,,,,6,0,1,,,,,,0,72,127
2880,note_on,,,,,0,0,1,,,,,,0,75,127
2880,control_change,,,,,0,0,1,,,,64,96,0,,
2880,set_tempo,,,,,40,1,0,,454545,,,,,,
2880,note_on,,,,,0,0,1,,,,,,0,84,127
2880,note_on,,,,,6,0,2,,,,,,0,44,125
2880,note_on,,,,,0,0,2,,,,,,0,56,125
2970,note_on,,,,,90,0,1,,,,,,0,84,0
2970,note_on,,,,,0,0,1,,,,,,0,75,0
2970,note_on,,,,,0,0,1,,,,,,0,72,0
3000,note_on,,,,,0,0,2,,,,,,0,55,119
3000,note_on,,,,,0,0,2,,,,,,0,43,119
3000,note_on,,,,,120,0,2,,,,,,0,56,0
3000,note_on,,,,,0,0,2,,,,,,0,44,0
3000,note_on,,,,,0,0,1,,,,,,0,84,104
3000,note_on,,,,,0,0,1,,,,,,0,75,104
3000,note_on,,,,,30,0,1,,,,,,0,72,104
3045,control_change,,,,,45,0,1,,,,64,0,0,,
3045,note_on,,,,,0,0,2,,,,,,0,43,0
3045,note_on,,,,,45,0,2,,,,,,0,55,0
3060,note_on,,,,,15,0,2,,,,,,0,39,123
3060,note_on,,,,,0,0,2,,,,,,0,51,123
3090,note_on,,,,,45,0,1,,,,,,0,84,0
3090,note_on,,,,,0,0,1,,,,,,0,72,0
3090,note_on,,,,,0,0,1,,,,,,0,75,0
3105,note_on,,,,,45,0,2,,,,,,0,51,0
3105,note_on,,,,,0,0,2,,,,,,0,39,0
3120,note_on,,,,,15,0,2,,,,,,0,38,125
3120,note_on,,,,,0,0,2,,,,,,0,50,125
3165,note_on,,,,,0,0,2,,,,,,0,38,0
3165,note_on,,,,,45,0,2,,,,,,0,50,0
3180,note_on,,,,,0,0,2,,,,,,0,48,127
3180,note_on,,,,,15,0,2,,,,,,0,36,127
3200,set_tempo,,,,,320,1,0,,500000,,,,,,
3210,note_on,,,,,0,0,1,,,,,,0,84,115
3210,note_on,,,,,120,0,1,,,,,,0,72,115
3225,note_on,,,,,45,0,2,,,,,,0,48,0
3225,note_on,,,,,0,0,2,,,,,,0,36,0
3234,note_on,,,,,24,0,1,,,,,,0,84,0
3234,note_on,,,,,0,0,1,,,,,,0,72,0
3240,set_tempo,,,,,40,1,0,,451127,,,,,,
3240,note_on,,,,,0,0,1,,,,,,0,71,127
3240,note_on,,,,,0,0,2,,,,,,0,55,127
3240,note_on,,,,,15,0,2,,,,,,0,43,127
3240,note_on,,,,,0,0,1,,,,,,0,83,127
3240,note_on,,,,,6,0,1,,,,,,0,74,127
3330,note_on,,,,,90,0,2,,,,,,0,55,0
3330,note_on,,,,,0,0,2,,,,,,0,43,0
3330,note_on,,,,,0,0,1,,,,,,0,74,0
3330,note_on,,,,,0,0,1,,,,,,0,71,0
3330,note_on,,,,,90,0,1,,,,,,0,83,0
3360,note_on,,,,,0,0,1,,,,,,0,83,103
3360,note_on,,,,,0,0,1,,,,,,0,71,103
3360,note_on,,,,,30,0,1,,,,,,0,74,103
3360,note_on,,,,,0,0,2,,,,,,0,43,113
3360,note_on,,,,,30,0,2,,,,,,0,31,113
3450,note_on,,,,,0,0,1,,,,,,0,71,0
3450,note_on,,,,,90,0,1,,,,,,0,83,0
3450,note_on,,,,,0,0,2,,,,,,0,31,0
3450,note_on,,,,,90,0,2,,,,,,0,43,0
3450,note_on,,,,,0,0,1,,,,,,0,74,0
3560,set_tempo,,,,,320,1,0,,500000,,,,,,
3570,note_on,,,,,0,0,2,,,,,,0,55,115
3570,note_on,,,,,120,0,2,,,,,,0,43,115
3570,note_on,,,,,120,0,1,,,,,,0,83,115
3570,note_on,,,,,0,0,1,,,,,,0,86,115
3570,note_on,,,,,0,0,1,,,,,,0,74,115
3594,note_on,,,,,24,0,2,,,,,,0,55,0
3594,note_on,,,,,0,0,1,,,,,,0,83,0
3594,note_on,,,,,0,0,1,,,,,,0,74,0
3594,note_on,,,,,24,0,1,,,,,,0,86,0
3594,note_on,,,,,0,0,2,,,,,,0,43,0
3600,note_on,,,,,0,0,1,,,,,,0,75,127
3600,note_on,,,,,0,0,1,,,,,,0,84,127
3600,note_on,,,,,6,0,2,,,,,,0,48,125
3600,note_on,,,,,0,0,2,,,,,,0,60,125
3600,control_change,,,,,0,0,1,,,,64,96,0,,
3600,note_on,,,,,6,0,1,,,,,,0,87,127
3620,set_tempo,,,,,60,1,0,,451127,,,,,,
3690,note_on,,,,,0,0,1,,,,,,0,87,0
3690,note_on,,,,,0,0,1,,,,,,0,75,0
3690,note_on,,,,,90,0,1,,,,,,0,84,0
3710,set_tempo,,,,,90,1,0,,468750,,,,,,
3720,note_on,,,,,0,0,2,,,,,,0,43,119
3720,note_on,,,,,0,0,2,,,,,,0,48,0
3720,note_on,,,,,120,0,2,,,,,,0,60,0
3720,note_on,,,,,30,0,1,,,,,,0,87,103
3720,note_on,,,,,0,0,1,,,,,,0,75,103
3720,note_on,,,,,0,0,1,,,,,,0,84,103
3720,note_on,,,,,0,0,2,,,,,,0,55,119
3765,note_on,,,,,45,0,2,,,,,,0,55,0
3765,control_change,,,,,45,0,1,,,,64,0,0,,
3765,note_on,,,,,0,0,2,,,,,,0,43,0
3780,note_on,,,,,0,0,2,,,,,,0,51,123
3780,note_on,,,,,15,0,2,,,,,,0,39,123
3800,set_tempo,,,,,90,1,0,,508474,,,,,,
3810,note_on,,,,,45,0,1,,,,,,0,84,0
3810,note_on,,,,,0,0,1,,,,,,0,87,0
3810,note_on,,,,,0,0,1,,,,,,0,75,0
3825,note_on,,,,,45,0,2,,,,,,0,51,0
3825,note_on,,,,,0,0,2,,,,,,0,39,0
3840,note_on,,,,,15,0,2,,,,,,0,38,125
3840,note_on,,,,,0,0,2,,,,,,0,50,125
3860,set_tempo,,,,,60,1,0,,594059,,,,,,
3885,note_on,,,,,45,0,2,,,,,,0,50,0
3885,note_on,,,,,0,0,2,,,,,,0,38,0
3900,note_on,,,,,0,0,2,,,,,,0,48,127
3900,note_on,,,,,15,0,2,,,,,,0,36,127
3920,set_tempo,,,,,60,1,0,,731707,,,,,,
3930,note_on,,,,,120,0,1,,,,,,0,87,117
3945,note_on,,,,,45,0,2,,,,,,0,48,0
3945,note_on,,,,,0,0,2,,,,,,0,36,0
3954,note_on,,,,,24,0,1,,,,,,0,87,0
3960,note_on,,,,,6,0,1,,,,,,0,92,127
3960,note_on,,,,,15,0,2,,,,,,0,32,127
3960,note_on,,,,,0,0,2,,,,,,0,44,127
3980,set_tempo,,,,,60,1,0,,451127,,,,,,
4050,note_on,,,,,90,0,2,,,,,,0,44,0
4050,note_on,,,,,0,0,2,,,,,,0,32,0
4080,note_on,,,,,30,0,2,,,,,,0,44,127
4080,note_on,,,,,0,0,2,,,,,,0,32,127
4130,set_tempo,,,,,150,1,0,,419580,,,,,,
4140,note_on,,,,,180,0,1,,,,,,0,92,0
4140,note_on,,,,,0,0,1,,,,,,0,91,118
4140,control_change,,,,,0,0,1,,,,64,96,0,,
4160,note_on,,,,,20,0,1,,,,,,0,91,0
4160,note_on,,,,,0,0,1,,,,,,0,89,116
4180,note_on,,,,,20,0,1,,,,,,0,89,0
4180,note_on,,,,,0,0,1,,,,,,0,87,115
4200,note_on,,,,,0,0,1,,,,,,0,85,112
4200,note_on,,,,,20,0,1,,,,,,0,87,0
4220,note_on,,,,,20,0,1,,,,,,0,85,0
4220,note_on,,,,,0,0,1,,,,,,0,84,112
4240,note_on,,,,,0,0,1,,,,,,0,82,111
4240,note_on,,,,,20,0,1,,,,,,0,84,0
4260,note_on,,,,,0,0,1,,,,,,0,80,110
4260,note_on,,,,,20,0,1,,,,,,0,82,0
4280,note_on,,,,,0,0,1,,,,,,0,79,110
4280,note_on,,,,,20,0,1,,,,,,0,80,0
4290,set_tempo,,,,,160,1,0,,434782,,,,,,
4300,note_on,,,,,20,0,1,,,,,,0,79,0
4300,note_on,,,,,0,0,1,,,,,,0,77,110
4320,note_on,,,,,20,0,1,,,,,,0,77,0
4320,note_on,,,,,0,0,1,,,,,,0,75,110
4340,note_on,,,,,20,0,1,,,,,,0,75,0
4340,note_on,,,,,0,0,1,,,,,,0,73,111
4359,note_on,,,,,19,0,1,,,,,,0,72,111
4360,note_on,,,,,1,0,1,,,,,,0,73,0
4379,note_on,,,,,19,0,1,,,,,,0,72,0
4379,note_on,,,,,0,0,1,,,,,,0,70,111
4399,note_on,,,,,20,0,1,,,,,,0,70,0
4399,note_on,,,,,0,0,1,,,,,,0,68,111
4400,set_tempo,,,,,110,1,0,,458015,,,,,,
4419,note_on,,,,,0,0,1,,,,,,0,67,114
4419,note_on,,,,,20,0,1,,,,,,0,68,0
4439,note_on,,,,,0,0,1,,,,,,0,65,116
4439,note_on,,,,,20,0,1,,,,,,0,67,0
4459,note_on,,,,,0,0,1,,,,,,0,63,118
4459,note_on,,,,,20,0,1,,,,,,0,65,0
4479,note_on,,,,,20,0,1,,,,,,0,63,0
4479,note_on,,,,,0,0,1,,,,,,0,61,118
4499,note_on,,,,,0,0,1,,,,,,0,60,119
4499,note_on,,,,,20,0,1,,,,,,0,61,0
4510,set_tempo,,,,,110,1,0,,476190,,,,,,
4519,note_on,,,,,20,0,1,,,,,,0,60,0
4519,note_on,,,,,0,0,1,,,,,,0,58,121
4539,note_on,,,,,20,0,1,,,,,,0,58,0
4539,note_on,,,,,0,0,1,,,,,,0,56,123
4559,note_on,,,,,20,0,1,,,,,,0,56,0
4559,note_on,,,,,0,0,1,,,,,,0,55,123
4579,note_on,,,,,20,0,1,,,,,,0,55,0
4579,note_on,,,,,0,0,1,,,,,,0,53,124
4590,set_tempo,,,,,80,1,0,,512820,,,,,,
4599,note_on,,,,,20,0,1,,,,,,0,53,0
4599,note_on,,,,,0,0,1,,,,,,0,51,125
4619,note_on,,,,,0,0,1,,,,,,0,49,126
4619,note_on,,,,,20,0,1,,,,,,0,51,0
4639,note_on,,,,,20,0,1,,,,,,0,49,0
4639,note_on,,,,,0,0,1,,,,,,0,48,127
4659,note_on,,,,,0,0,1,,,,,,0,46,127
4659,note_on,,,,,20,0,1,,,,,,0,48,0
4670,set_tempo,,,,,80,1,0,,550458,,,,,,
4670,control_change,,,,,11,0,1,,,,64,0,0,,
4679,note_on,,,,,9,0,1,,,,,,0,46,0
4680,control_change,,,,,0,0,1,,,,64,96,0,,
4680,note_on,,,,,1,0,1,,,,,,0,44,127
4855,control_change,,,,,175,0,1,,,,64,0,0,,
4860,note_on,,,,,5,0,1,,,,,,0,44,0
4860,note_on,,,,,0,0,2,,,,,,0,32,78
4860,note_on,,,,,0,0,2,,,,,,0,43,78
4860,note_on,,,,,0,0,2,,,,,,0,40,78
4860,note_on,,,,,0,0,2,,,,,,0,44,0
4860,note_on,,,,,780,0,2,,,,,,0,32,0
4860,control_change,,,,,0,0,1,,,,64,95,0,,
4905,note_on,,,,,0,0,2,,,,,,0,32,0
4905,note_on,,,,,0,0,2,,,,,,0,40,0
4905,note_on,,,,,45,0,2,,,,,,0,43,0
4920,note_on,,,,,0,0,2,,,,,,0,40,76
4920,note_on,,,,,15,0,2,,,,,,0,32,76
4920,note_on,,,,,0,0,2,,,,,,0,44,76
4965,note_on,,,,,45,0,2,,,,,,0,44,0
4965,note_on,,,,,0,0,2,,,,,,0,40,0
4965,note_on,,,,,0,0,2,,,,,,0,32,0
4980,note_on,,,,,15,0,2,,,,,,0,32,73
4980,note_on,,,,,0,0,2,,,,,,0,40,73
4980,note_on,,,,,0,0,2,,,,,,0,46,73
5025,note_on,,,,,45,0,2,,,,,,0,46,0
5025,note_on,,,,,0,0,2,,,,,,0,40,0
5025,note_on,,,,,0,0,2,,,,,,0,32,0
5035,control_change,,,,,175,0,1,,,,64,0,0,,
5040,control_change,,,,,5,0,1,,,,64,96,0,,
5040,note_on,,,,,0,0,2,,,,,,0,32,78
5040,note_on,,,,,0,0,2,,,,,,0,39,78
5040,note_on,,,,,15,0,2,,,,,,0,48,78
5040,note_on,,,,,0,0,2,,,,,,0,44,78
5130,control_change,,,,,90,0,1,,,,64,0,0,,
5130,note_on,,,,,90,0,2,,,,,,0,48,0
5130,note_on,,,,,0,0,2,,,,,,0,49,76
5160,note_on,,,,,30,0,2,,,,,,0,49,0
5160,note_on,,,,,0,0,2,,,,,,0,48,57
5190,note_on,,,,,30,0,2,,,,,,0,48,0
5190,note_on,,,,,0,0,2,,,,,,0,44,0
5190,note_on,,,,,0,0,2,,,,,,0,39,0
5190,note_on,,,,,0,0,2,,,,,,0,32,0
5220,note_on,,,,,30,0,2,,,,,,0,44,78
5220,note_on,,,,,0,0,2,,,,,,0,55,78
5220,note_on,,,,,0,0,2,,,,,,0,52,78
5220,control_change,,,,,90,0,1,,,,64,95,0,,
5220,set_tempo,,,,,550,1,0,,526315,,,,,,
5265,note_on,,,,,0,0,2,,,,,,0,44,0
5265,note_on,,,,,0,0,2,,,,,,0,52,0
5265,note_on,,,,,45,0,2,,,,,,0,55,0
5280,note_on,,,,,0,0,2,,,,,,0,52,76
5280,note_on,,,,,15,0,2,,,,,,0,44,76
5280,note_on,,,,,0,0,2,,,,,,0,56,76
5320,set_tempo,,,,,100,1,0,,500000,,,,,,
5325,note_on,,,,,45,0,2,,,,,,0,56,0
5325,note_on,,,,,0,0,2,,,,,,0,52,0
5325,note_on,,,,,0,0,2,,,,,,0,44,0
5340,note_on,,,,,15,0,2,,,,,,0,44,73
5340,note_on,,,,,0,0,2,,,,,,0,52,73
5340,note_on,,,,,0,0,2,,,,,,0,58,73
5385,note_on,,,,,0,0,2,,,,,,0,44,0
5385,note_on,,,,,45,0,2,,,,,,0,58,0
5385,note_on,,,,,0,0,2,,,,,,0,52,0
5395,control_change,,,,,175,0,1,,,,64,0,0,,
5400,note_on,,,,,15,0,2,,,,,,0,60,78
5400,note_on,,,,,0,0,2,,,,,,0,56,78
5400,note_on,,,,,0,0,2,,,,,,0,44,78
5400,note_on,,,,,0,0,2,,,,,,0,51,78
5400,control_change,,,,,5,0,1,,,,64,96,0,,
5470,set_tempo,,,,,150,1,0,,476190,,,,,,
5490,note_on,,,,,0,0,2,,,,,,0,61,76
5490,note_on,,,,,90,0,2,,,,,,0,60,0
5490,control_change,,,,,90,0,1,,,,64,0,0,,
5520,note_on,,,,,0,0,2,,,,,,0,60,57
5520,note_on,,,,,30,0,2,,,,,,0,61,0
5550,note_on,,,,,0,0,2,,,,,,0,44,0
5550,note_on,,,,,0,0,2,,,,,,0,51,0
5550,note_on,,,,,0,0,2,,,,,,0,56,0
5550,note_on,,,,,30,0,2,,,,,,0,60,0
5580,note_on,,,,,30,0,2,,,,,,0,31,83
5580,control_change,,,,,0,0,1,,,,64,96,0,,
5580,note_on,,,,,90,0,1,,,,,,0,55,83
5580,control_change,,,,,0,0,2,,,,64,96,0,,
5600,set_tempo,,,,,130,1,0,,447761,,,,,,
5610,note_on,,,,,30,0,1,,,,,,0,55,0
5610,note_on,,,,,30,0,2,,,,,,0,31,0
5610,note_on,,,,,0,0,2,,,,,,0,43,83
5610,note_on,,,,,0,0,1,,,,,,0,67,83
5620,set_tempo,,,,,20,1,0,,454545,,,,,,
5640,note_on,,,,,0,0,2,,,,,,0,32,85
5640,note_on,,,,,30,0,2,,,,,,0,43,0
5640,note_on,,,,,30,0,1,,,,,,0,67,0
5640,note_on,,,,,0,0,1,,,,,,0,56,85
5670,note_on,,,,,30,0,2,,,,,,0,32,0
5670,note_on,,,,,0,0,2,,,,,,0,44,86
5670,note_on,,,,,30,0,1,,,,,,0,56,0
5670,note_on,,,,,0,0,1,,,,,,0,68,86
5700,note_on,,,,,30,0,2,,,,,,0,44,0
5700,note_on,,,,,0,0,2,,,,,,0,34,88
5700,note_on,,,,,0,0,1,,,,,,0,58,88
5700,note_on,,,,,30,0,1,,,,,,0,68,0
5730,note_on,,,,,30,0,2,,,,,,0,34,0
5730,note_on,,,,,0,0,2,,,,,,0,46,88
5730,note_on,,,,,30,0,1,,,,,,0,58,0
5730,note_on,,,,,0,0,1,,,,,,0,70,88
5755,control_change,,,,,25,0,1,,,,64,0,0,,
5755,control_change,,,,,25,0,2,,,,64,0,0,,
5760,note_on,,,,,0,0,1,,,,,,0,60,90
5760,note_on,,,,,5,0,1,,,,,,0,70,0
5760,control_change,,,,,0,0,1,,,,64,96,0,,
5760,note_on,,,,,0,0,2,,,,,,0,36,90
5760,note_on,,,,,5,0,2,,,,,,0,46,0
5760,control_change,,,,,0,0,2,,,,64,96,0,,
5790,note_on,,,,,0,0,2,,,,,,0,48,90
5790,note_on,,,,,30,0,2,,,,,,0,36,0
5790,note_on,,,,,0,0,1,,,,,,0,72,90
5790,note_on,,,,,30,0,1,,,,,,0,60,0
5820,note_on,,,,,30,0,1,,,,,,0,72,0
5820,note_on,,,,,30,0,2,,,,,,0,48,0
5820,note_on,,,,,0,0,1,,,,,,0,62,92
5820,note_on,,,,,0,0,2,,,,,,0,38,92
5850,note_on,,,,,0,0,1,,,,,,0,74,93
5850,note_on,,,,,30,0,2,,,,,,0,38,0
5850,note_on,,,,,30,0,1,,,,,,0,62,0
5850,note_on,,,,,0,0,2,,,,,,0,50,93
5880,note_on,,,,,0,0,1,,,,,,0,63,96
5880,note_on,,,,,0,0,2,,,,,,0,39,96
5880,note_on,,,,,30,0,2,,,,,,0,50,0
5880,note_on,,,,,30,0,1,,,,,,0,74,0
5910,note_on,,,,,30,0,1,,,,,,0,63,0
5910,note_on,,,,,0,0,1,,,,,,0,75,96
5910,note_on,,,,,0,0,2,,,,,,0,51,96
5910,note_on,,,,,30,0,2,,,,,,0,39,0
5930,control_change,,,,,20,0,1,,,,64,0,0,,
5930,control_change,,,,,20,0,2,,,,64,0,0,,
5940,control_change,,,,,0,0,1,,,,64,96,0,,
5940,note_on,,,,,0,0,1,,,,,,0,67,98
5940,note_on,,,,,10,0,1,,,,,,0,75,0
5940,control_change,,,,,0,0,2,,,,64,96,0,,
5940,note_on,,,,,0,0,2,,,,,,0,43,98
5940,note_on,,,,,10,0,2,,,,,,0,51,0
5970,note_on,,,,,0,0,2,,,,,,0,55,100
5970,set_tempo,,,,,350,1,0,,441176,,,,,,
5970,note_on,,,,,30,0,1,,,,,,0,67,0
5970,note_on,,,,,0,0,1,,,,,,0,79,100
5970,note_on,,,,,30,0,2,,,,,,0,43,0
6000,note_on,,,,,30,0,2,,,,,,0,55,0
6000,note_on,,,,,0,0,2,,,,,,0,44,102
6000,note_on,,,,,30,0,1,,,,,,0,79,0
6000,note_on,,,,,0,0,1,,,,,,0,68,102
6030,note_on,,,,,30,0,1,,,,,,0,68,0
6030,note_on,,,,,0,0,1,,,,,,0,80,104
6030,note_on,,,,,30,0,2,,,,,,0,44,0
6030,note_on,,,,,0,0,2,,,,,,0,56,104
6060,note_on,,,,,30,0,1,,,,,,0,80,0
6060,note_on,,,,,0,0,1,,,,,,0,70,104
6060,note_on,,,,,30,0,2,,,,,,0,56,0
6060,note_on,,,,,0,0,2,,,,,,0,46,104
6090,note_on,,,,,30,0,1,,,,,,0,70,0
6090,note_on,,,,,0,0,1,,,,,,0,82,107
6090,note_on,,,,,0,0,2,,,,,,0,58,107
6090,note_on,,,,,30,0,2,,,,,,0,46,0
6110,set_tempo,,,,,140,1,0,,428571,,,,,,
6115,control_change,,,,,25,0,2,,,,64,0,0,,
6115,control_change,,,,,25,0,1,,,,64,0,0,,
6120,control_change,,,,,0,0,2,,,,64,96,0,,
6120,note_on,,,,,0,0,2,,,,,,0,48,107
6120,note_on,,,,,5,0,1,,,,,,0,82,0
6120,note_on,,,,,0,0,1,,,,,,0,72,107
6120,control_change,,,,,0,0,1,,,,64,96,0,,
6120,note_on,,,,,5,0,2,,,,,,0,58,0
6150,note_on,,,,,0,0,2,,,,,,0,60,108
6150,note_on,,,,,30,0,1,,,,,,0,72,0
6150,note_on,,,,,0,0,1,,,,,,0,84,108
6150,note_on,,,,,30,0,2,,,,,,0,48,0
6180,note_on,,,,,30,0,2,,,,,,0,60,0
6180,note_on,,,,,0,0,2,,,,,,0,50,111
6180,note_on,,,,,0,0,1,,,,,,0,74,111
6180,note_on,,,,,30,0,1,,,,,,0,84,0
6210,note_on,,,,,0,0,1,,,,,,0,86,112
6210,note_on,,,,,30,0,1,,,,,,0,74,0
6210,note_on,,,,,30,0,2,,,,,,0,50,0
6210,note_on,,,,,0,0,2,,,,,,0,62,112
6240,note_on,,,,,0,0,1,,,,,,0,75,112
6240,note_on,,,,,30,0,1,,,,,,0,86,0
6240,note_on,,,,,30,0,2,,,,,,0,62,0
6240,note_on,,,,,0,0,2,,,,,,0,51,112
6270,note_on,,,,,30,0,2,,,,,,0,51,0
6270,note_on,,,,,30,0,1,,,,,,0,75,0
6270,note_on,,,,,0,0,2,,,,,,0,63,115
6270,note_on,,,,,0,0,1,,,,,,0,87,115
6290,set_tempo,,,,,180,1,0,,441176,,,,,,
6295,control_change,,,,,25,0,2,,,,64,0,0,,
6295,control_change,,,,,25,0,1,,,,64,0,0,,
6300,note_on,,,,,5,0,1,,,,,,0,87,0
6300,control_change,,,,,0,0,2,,,,64,96,0,,
6300,note_on,,,,,0,0,2,,,,,,0,56,116
6300,note_on,,,,,5,0,2,,,,,,0,63,0
6300,control_change,,,,,0,0,1,,,,64,96,0,,
6300,note_on,,,,,0,0,1,,,,,,0,80,116
6330,note_on,,,,,0,0,1,,,,,,0,92,116
6330,note_on,,,,,30,0,1,,,,,,0,80,0
6330,note_on,,,,,0,0,2,,,,,,0,68,116
6330,note_on,,,,,30,0,2,,,,,,0,56,0
6360,note_on,,,,,30,0,1,,,,,,0,92,0
6360,note_on,,,,,0,0,2,,,,,,0,58,116
6360,note_on,,,,,0,0,1,,,,,,0,82,116
6360,note_on,,,,,30,0,2,,,,,,0,68,0
6370,set_tempo,,,,,80,1,0,,465116,,,,,,
6390,note_on,,,,,0,0,1,,,,,,0,94,119
6390,note_on,,,,,30,0,1,,,,,,0,82,0
6390,note_on,,,,,30,0,2,,,,,,0,58,0
6390,note_on,,,,,0,0,2,,,,,,0,70,119
6410,set_tempo,,,,,40,1,0,,526315,,,,,,
6420,note_on,,,,,30,0,1,,,,,,0,94,0
6420,note_on,,,,,30,0,2,,,,,,0,70,0
6420,note_on,,,,,0,0,1,,,,,,0,84,121
6420,note_on,,,,,0,0,2,,,,,,0,60,121
6440,set_tempo,,,,,30,1,0,,638297,,,,,,
6450,note_on,,,,,30,0,1,,,,,,0,84,0
6450,note_on,,,,,0,0,1,,,,,,0,96,123
6450,set_tempo,,,,,10,1,0,,705882,,,,,,
6450,note_on,,,,,0,0,2,,,,,,0,72,123
6450,note_on,,,,,30,0,2,,,,,,0,60,0
6475,control_change,,,,,25,0,2,,,,64,0,0,,
6475,control_change,,,,,25,0,1,,,,64,0,0,,
6480,control_change,,,,,0,0,1,,,,64,96,0,,
6480,note_on,,,,,0,0,1,,,,,,0,91,127
6480,note_on,,,,,0,0,1,,,,,,0,87,127
6480,note_on,,,,,0,0,1,,,,,,0,84,127
6480,note_on,,,,,0,0,1,,,,,,0,79,127
6480,note_on,,,,,5,0,1,,,,,,0,96,0
6480,note_on,,,,,0,0,2,,,,,,0,55,127
6480,note_on,,,,,0,0,2,,,,,,0,60,127
6480,note_on,,,,,0,0,2,,,,,,0,67,127
6480,note_on,,,,,0,0,2,,,,,,0,63,127
6480,set_tempo,,,,,30,1,0,,468750,,,,,,
6480,control_change,,,,,0,0,2,,,,64,96,0,,
6480,note_on,,,,,5,0,2,,,,,,0,72,0
6540,set_tempo,,,,,60,1,0,,428571,,,,,,
6570,note_on,,,,,90,0,2,,,,,,0,67,0
6570,note_on,,,,,0,0,2,,,,,,0,55,0
6570,note_on,,,,,0,0,2,,,,,,0,60,0
6570,note_on,,,,,0,0,2,,,,,,0,63,0
6600,note_on,,,,,30,0,2,,,,,,0,67,108
6600,note_on,,,,,0,0,2,,,,,,0,63,108
6600,note_on,,,,,0,0,2,,,,,,0,60,108
6600,note_on,,,,,0,0,2,,,,,,0,55,108
6600,note_on,,,,,120,0,1,,,,,,0,91,0
6600,note_on,,,,,0,0,1,,,,,,0,79,0
6600,note_on,,,,,0,0,1,,,,,,0,84,0
6600,note_on,,,,,0,0,1,,,,,,0,87,0
6610,set_tempo,,,,,70,1,0,,437956,,,,,,
6630,note_on,,,,,30,0,1,,,,,,0,89,126
6660,note_on,,,,,30,0,1,,,,,,0,89,0
6660,note_on,,,,,0,0,1,,,,,,0,87,125
6690,note_on,,,,,90,0,2,,,,,,0,55,0
6690,note_on,,,,,0,0,2,,,,,,0,67,0
6690,note_on,,,,,0,0,2,,,,,,0,63,0
6690,note_on,,,,,0,0,2,,,,,,0,60,0
6690,note_on,,,,,30,0,1,,,,,,0,87,0
6690,note_on,,,,,0,0,1,,,,,,0,86,124
6720,set_tempo,,,,,110,1,0,,454545,,,,,,
6720,note_on,,,,,0,0,1,,,,,,0,84,118
6720,control_change,,,,,0,0,1,,,,64,0,0,,
6720,note_on,,,,,30,0,1,,,,,,0,86,0
6750,note_on,,,,,30,0,1,,,,,,0,84,0
6750,note_on,,,,,0,0,1,,,,,,0,82,114
6780,note_on,,,,,0,0,1,,,,,,0,80,113
6780,note_on,,,,,30,0,1,,,,,,0,82,0
6810,note_on,,,,,0,0,2,,,,,,0,55,101
6810,note_on,,,,,0,0,2,,,,,,0,51,101
6810,note_on,,,,,0,0,2,,,,,,0,48,101
6810,note_on,,,,,30,0,1,,,,,,0,80,0
6810,note_on,,,,,0,0,1,,,,,,0,79,119
6810,note_on,,,,,120,0,2,,,,,,0,43,101
6810,set_tempo,,,,,90,1,0,,468750,,,,,,
6834,note_on,,,,,0,0,2,,,,,,0,51,0
6834,note_on,,,,,24,0,2,,,,,,0,55,0
6834,note_on,,,,,0,0,2,,,,,,0,48,0
6834,note_on,,,,,0,0,2,,,,,,0,43,0
6840,note_on,,,,,30,0,1,,,,,,0,79,0
6840,control_change,,,,,0,0,1,,,,64,96,0,,
6840,note_on,,,,,0,0,2,,,,,,0,50,110
6840,note_on,,,,,0,0,2,,,,,,0,47,110
6840,note_on,,,,,6,0,2,,,,,,0,43,110
6840,note_on,,,,,0,0,1,,,,,,0,77,120
6840,note_on,,,,,0,0,2,,,,,,0,55,110
6870,note_on,,,,,30,0,1,,,,,,0,77,0
6870,note_on,,,,,0,0,1,,,,,,0,75,118
6900,note_on,,,,,0,0,1,,,,,,0,74,114
6900,note_on,,,,,30,0,1,,,,,,0,75,0
6930,note_on,,,,,30,0,1,,,,,,0,74,0
6930,note_on,,,,,0,0,2,,,,,,0,50,0
6930,note_on,,,,,0,0,2,,,,,,0,43,0
6930,note_on,,,,,90,0,2,,,,,,0,55,0
6930,note_on,,,,,0,0,1,,,,,,0,72,109
6930,note_on,,,,,0,0,2,,,,,,0,47,0
6960,note_on,,,,,0,0,2,,,,,,0,47,85
6960,note_on,,,,,0,0,2,,,,,,0,55,85
6960,note_on,,,,,0,0,2,,,,,,0,50,85
6960,note_on,,,,,30,0,2,,,,,,0,43,85
6960,note_on,,,,,0,0,1,,,,,,0,71,105
6960,note_on,,,,,30,0,1,,,,,,0,72,0
6990,note_on,,,,,30,0,1,,,,,,0,71,0
6990,note_on,,,,,0,0,1,,,,,,0,68,101
7020,note_on,,,,,30,0,1,,,,,,0,68,0
7020,note_on,,,,,0,0,1,,,,,,0,67,97
7050,note_on,,,,,0,0,1,,,,,,0,65,91
7050,note_on,,,,,30,0,1,,,,,,0,67,0
7050,note_on,,,,,0,0,2,,,,,,0,47,0
7050,note_on,,,,,90,0,2,,,,,,0,55,0
7050,note_on,,,,,0,0,2,,,,,,0,43,0
7050,note_on,,,,,0,0,2,,,,,,0,50,0
7080,note_on,,,,,0,0,1,,,,,,0,63,87
7080,control_change,,,,,0,0,1,,,,64,0,0,,
7080,note_on,,,,,30,0,1,,,,,,0,65,0
7110,note_on,,,,,30,0,1,,,,,,0,63,0
7110,note_on,,,,,0,0,1,,,,,,0,62,81
7140,note_on,,,,,30,0,1,,,,,,0,62,0
7140,note_on,,,,,0,0,1,,,,,,0,60,77
7170,note_on,,,,,30,0,1,,,,,,0,60,0
7170,note_on,,,,,0,0,1,,,,,,0,59,69
7200,note_on,,,,,0,0,2,,,,,,0,51,61
7200,note_on,,,,,30,0,1,,,,,,0,59,0
7200,note_on,,,,,0,0,1,,,,,,0,60,66
7200,note_on,,,,,150,0,2,,,,,,0,48,61
7230,note_on,,,,,0,0,2,,,,,,0,48,0
7230,note_on,,,,,30,0,2,,,,,,0,51,0
7230,note_on,,,,,0,0,2,,,,,,0,55,46
7260,note_on,,,,,30,0,2,,,,,,0,55,0
7260,note_on,,,,,0,0,2,,,,,,0,54,47
7290,note_on,,,,,30,0,2,,,,,,0,54,0
7290,note_on,,,,,0,0,2,,,,,,0,55,49
7320,note_on,,,,,30,0,2,,,,,,0,55,0
7320,note_on,,,,,0,0,2,,,,,,0,48,49
7320,note_on,,,,,0,0,2,,,,,,0,51,49
7350,note_on,,,,,30,0,2,,,,,,0,51,0
7350,note_on,,,,,0,0,2,,,,,,0,48,0
7350,note_on,,,,,0,0,2,,,,,,0,55,51
7380,note_on,,,,,30,0,2,,,,,,0,55,0
7380,note_on,,,,,0,0,1,,,,,,0,62,60
7380,note_on,,,,,0,0,2,,,,,,0,54,51
7380,note_on,,,,,180,0,1,,,,,,0,60,0
7410,note_on,,,,,30,0,1,,,,,,0,62,0
7410,note_on,,,,,0,0,1,,,,,,0,60,61
7410,note_on,,,,,30,0,2,,,,,,0,54,0
7410,note_on,,,,,0,0,2,,,,,,0,55,52
7434,note_on,,,,,24,0,1,,,,,,0,60,0
7440,note_on,,,,,6,0,1,,,,,,0,59,66
7440,note_on,,,,,0,0,2,,,,,,0,51,53
7440,note_on,,,,,0,0,2,,,,,,0,48,53
7440,note_on,,,,,30,0,2,,,,,,0,55,0
7470,note_on,,,,,0,0,2,,,,,,0,55,60
7470,note_on,,,,,0,0,2,,,,,,0,48,0
7470,note_on,,,,,30,0,1,,,,,,0,59,0
7470,note_on,,,,,30,0,2,,,,,,0,51,0
7470,note_on,,,,,0,0,1,,,,,,0,60,74
7494,note_on,,,,,24,0,1,,,,,,0,60,0
7500,note_on,,,,,6,0,1,,,,,,0,59,80
7500,note_on,,,,,30,0,2,,,,,,0,55,0
7500,note_on,,,,,0,0,2,,,,,,0,54,66
7530,note_on,,,,,0,0,1,,,,,,0,60,86
7530,note_on,,,,,30,0,1,,,,,,0,59,0
7530,note_on,,,,,30,0,2,,,,,,0,54,0
7530,note_on,,,,,0,0,2,,,,,,0,55,70
7554,note_on,,,,,24,0,1,,,,,,0,60,0
7560,note_on,,,,,6,0,1,,,,,,0,63,91
7560,note_on,,,,,30,0,2,,,,,,0,55,0
7560,note_on,,,,,0,0,2,,,,,,0,48,72
7560,note_on,,,,,0,0,2,,,,,,0,53,72
7590,note_on,,,,,30,0,2,,,,,,0,48,0
7590,note_on,,,,,0,0,2,,,,,,0,53,0
7590,note_on,,,,,0,0,2,,,,,,0,56,63
7620,note_on,,,,,30,0,2,,,,,,0,56,0
7620,note_on,,,,,0,0,2,,,,,,0,55,62
7650,note_on,,,,,30,0,2,,,,,,0,55,0
7650,note_on,,,,,0,0,2,,,,,,0,56,61
7680,note_on,,,,,30,0,2,,,,,,0,56,0
7680,note_on,,,,,0,0,2,,,,,,0,48,58
7680,note_on,,,,,0,0,2,,,,,,0,53,58
7680,note_on,,,,,120,0,1,,,,,,0,63,0
7680,note_on,,,,,0,0,1,,,,,,0,62,66
7710,note_on,,,,,0,0,2,,,,,,0,56,56
7710,note_on,,,,,30,0,2,,,,,,0,53,0
7710,note_on,,,,,0,0,2,,,,,,0,48,0
7740,note_on,,,,,60,0,1,,,,,,0,62,0
7740,note_on,,,,,30,0,2,,,,,,0,56,0
7740,note_on,,,,,0,0,2,,,,,,0,55,54
7770,note_on,,,,,30,0,2,,,,,,0,55,0
7770,note_on,,,,,0,0,2,,,,,,0,56,53
7800,note_on,,,,,30,0,2,,,,,,0,56,0
7800,note_on,,,,,0,0,2,,,,,,0,53,51
7800,note_on,,,,,0,0,2,,,,,,0,48,51
7830,note_on,,,,,0,0,2,,,,,,0,56,51
7830,note_on,,,,,30,0,2,,,,,,0,53,0
7830,note_on,,,,,0,0,2,,,,,,0,48,0
7860,note_on,,,,,30,0,2,,,,,,0,56,0
7860,note_on,,,,,0,0,2,,,,,,0,55,51
7890,note_on,,,,,30,0,2,,,,,,0,55,0
7890,note_on,,,,,0,0,2,,,,,,0,56,53
7890,note_on,,,,,150,0,1,,,,,,0,62,73
7914,note_on,,,,,24,0,1,,,,,,0,62,0
7920,note_on,,,,,6,0,1,,,,,,0,64,86
7920,note_on,,,,,0,0,2,,,,,,0,48,72
7920,note_on,,,,,30,0,2,,,,,,0,56,0
7920,note_on,,,,,0,0,2,,,,,,0,55,72
7950,note_on,,,,,0,0,2,,,,,,0,55,0
7950,note_on,,,,,30,0,2,,,,,,0,48,0
7950,note_on,,,,,0,0,2,,,,,,0,58,63
7980,note_on,,,,,0,0,2,,,,,,0,57,62
7980,note_on,,,,,30,0,2,,,,,,0,58,0
8010,note_on,,,,,0,0,2,,,,,,0,58,61
8010,note_on,,,,,30,0,2,,,,,,0,57,0
8040,note_on,,,,,0,0,2,,,,,,0,55,58
8040,note_on,,,,,0,0,2,,,,,,0,48,58
8040,note_on,,,,,120,0,1,,,,,,0,64,0
8040,note_on,,,,,30,0,2,,,,,,0,58,0
8070,note_on,,,,,30,0,2,,,,,,0,48,0
8070,note_on,,,,,0,0,2,,,,,,0,55,0
8070,note_on,,,,,0,0,2,,,,,,0,58,56
8070,note_on,,,,,30,0,1,,,,,,0,73,61
8100,note_on,,,,,0,0,2,,,,,,0,57,54
8100,note_on,,,,,30,0,1,,,,,,0,73,0
8100,note_on,,,,,0,0,1,,,,,,0,72,63
8100,note_on,,,,,30,0,2,,,,,,0,58,0
8130,note_on,,,,,0,0,2,,,,,,0,58,53
8130,note_on,,,,,30,0,2,,,,,,0,57,0
8130,note_on,,,,,0,0,1,,,,,,0,70,67
8130,note_on,,,,,30,0,1,,,,,,0,72,0
8160,note_on,,,,,0,0,1,,,,,,0,68,70
8160,note_on,,,,,0,0,2,,,,,,0,48,51
8160,note_on,,,,,0,0,2,,,,,,0,55,51
8160,note_on,,,,,30,0,2,,,,,,0,58,0
8160,note_on,,,,,30,0,1,,,,,,0,70,0
8190,note_on,,,,,0,0,2,,,,,,0,58,51
8190,note_on,,,,,30,0,2,,,,,,0,48,0
8190,note_on,,,,,30,0,1,,,,,,0,68,0
8190,note_on,,,,,0,0,2,,,,,,0,55,0
8190,note_on,,,,,0,0,1,,,,,,0,67,73
8220,note_on,,,,,0,0,1,,,,,,0,65,77
8220,note_on,,,,,30,0,1,,,,,,0,67,0
8220,note_on,,,,,30,0,2,,,,,,0,58,0
8220,note_on,,,,,0,0,2,,,,,,0,57,51
8250,note_on,,,,,30,0,1,,,,,,0,65,0
8250,note_on,,,,,0,0,1,,,,,,0,64,81
8250,note_on,,,,,30,0,2,,,,,,0,57,0
8250,note_on,,,,,0,0,2,,,,,,0,58,53
8280,note_on,,,,,0,0,2,,,,,,0,48,72
8280,note_on,,,,,30,0,1,,,,,,0,64,0
8280,note_on,,,,,0,0,1,,,,,,0,67,86
8280,note_on,,,,,0,0,2,,,,,,0,57,72
8280,note_on,,,,,30,0,2,,,,,,0,58,0
8310,note_on,,,,,30,0,2,,,,,,0,48,0
8310,note_on,,,,,0,0,2,,,,,,0,60,63
8310,note_on,,,,,0,0,2,,,,,,0,57,0
8340,note_on,,,,,30,0,2,,,,,,0,60,0
8340,note_on,,,,,0,0,2,,,,,,0,59,62
8370,note_on,,,,,30,0,2,,,,,,0,59,0
8370,note_on,,,,,0,0,2,,,,,,0,60,61
8400,note_on,,,,,30,0,2,,,,,,0,60,0
8400,note_on,,,,,0,0,2,,,,,,0,57,58
8400,note_on,,,,,0,0,2,,,,,,0,48,58
8400,note_on,,,,,0,0,1,,,,,,0,65,66
8400,note_on,,,,,120,0,1,,,,,,0,67,0
8430,note_on,,,,,0,0,2,,,,,,0,57,0
8430,note_on,,,,,0,0,2,,,,,,0,60,56
8430,note_on,,,,,30,0,2,,,,,,0,48,0
8460,note_on,,,,,30,0,2,,,,,,0,60,0
8460,note_on,,,,,0,0,2,,,,,,0,59,54
8460,note_on,,,,,60,0,1,,,,,,0,65,0
8490,note_on,,,,,30,0,2,,,,,,0,59,0
8490,note_on,,,,,0,0,2,,,,,,0,60,53
8520,note_on,,,,,30,0,2,,,,,,0,60,0
8520,note_on,,,,,0,0,2,,,,,,0,57,51
8520,note_on,,,,,0,0,2,,,,,,0,48,51
8550,note_on,,,,,30,0,2,,,,,,0,48,0
8550,note_on,,,,,0,0,2,,,,,,0,57,0
8550,note_on,,,,,0,0,2,,,,,,0,60,51
8580,note_on,,,,,30,0,2,,,,,,0,60,0
8580,note_on,,,,,0,0,2,,,,,,0,59,51
8610,note_on,,,,,150,0,1,,,,,,0,65,86
8610,note_on,,,,,30,0,2,,,,,,0,59,0
8610,note_on,,,,,0,0,2,,,,,,0,60,53
8634,note_on,,,,,24,0,1,,,,,,0,65,0
8640,note_on,,,,,0,0,2,,,,,,0,48,72
8640,note_on,,,,,30,0,2,,,,,,0,60,0
8640,note_on,,,,,0,0,2,,,,,,0,56,72
8640,note_on,,,,,6,0,1,,,,,,0,67,91
8670,note_on,,,,,30,0,2,,,,,,0,48,0
8670,note_on,,,,,0,0,2,,,,,,0,56,0
8670,note_on,,,,,0,0,2,,,,,,0,60,63
8700,note_on,,,,,30,0,2,,,,,,0,60,0
8700,note_on,,,,,0,0,2,,,,,,0,59,59
8730,note_on,,,,,30,0,2,,,,,,0,59,0
8730,note_on,,,,,0,0,2,,,,,,0,60,62
8760,note_on,,,,,120,0,1,,,,,,0,67,0
8760,note_on,,,,,30,0,2,,,,,,0,60,0
8760,note_on,,,,,0,0,2,,,,,,0,56,64
8760,note_on,,,,,0,0,2,,,,,,0,48,64
8760,note_on,,,,,0,0,1,,,,,,0,66,78
8790,note_on,,,,,0,0,2,,,,,,0,56,0
8790,note_on,,,,,0,0,2,,,,,,0,60,66
8790,note_on,,,,,30,0,2,,,,,,0,48,0
8805,note_on,,,,,45,0,1,,,,,,0,66,0
8820,note_on,,,,,0,0,2,,,,,,0,59,68
8820,note_on,,,,,30,0,2,,,,,,0,60,0
8820,note_on,,,,,15,0,1,,,,,,0,67,83
8850,note_on,,,,,30,0,2,,,,,,0,59,0
8850,note_on,,,,,0,0,1,,,,,,0,66,85
8850,note_on,,,,,30,0,1,,,,,,0,67,0
8850,note_on,,,,,0,0,2,,,,,,0,60,70
8870,note_on,,,,,20,0,1,,,,,,0,66,0
8880,note_on,,,,,30,0,2,,,,,,0,60,0
8880,note_on,,,,,0,0,2,,,,,,0,56,72
8880,note_on,,,,,0,0,2,,,,,,0,48,72
8880,note_on,,,,,10,0,1,,,,,,0,67,86
8910,note_on,,,,,30,0,2,,,,,,0,48,0
8910,note_on,,,,,30,0,1,,,,,,0,67,0
8910,note_on,,,,,0,0,1,,,,,,0,66,90
8910,note_on,,,,,0,0,2,,,,,,0,56,0
8910,note_on,,,,,0,0,2,,,,,,0,60,73
8930,note_on,,,,,20,0,1,,,,,,0,66,0
8940,note_on,,,,,30,0,2,,,,,,0,60,0
8940,note_on,,,,,0,0,2,,,,,,0,59,76
8940,note_on,,,,,10,0,1,,,,,,0,67,92
8970,note_on,,,,,30,0,2,,,,,,0,59,0
8970,note_on,,,,,0,0,2,,,,,,0,60,78
8970,note_on,,,,,30,0,1,,,,,,0,67,0
8970,note_on,,,,,0,0,1,,,,,,0,66,94
8990,note_on,,,,,20,0,1,,,,,,0,66,0
9000,note_on,,,,,30,0,2,,,,,,0,60,0
9000,note_on,,,,,0,0,2,,,,,,0,51,79
9000,note_on,,,,,0,0,2,,,,,,0,48,79
9000,note_on,,,,,10,0,1,,,,,,0,68,96
9030,note_on,,,,,0,0,2,,,,,,0,60,79
9030,note_on,,,,,30,0,2,,,,,,0,48,0
9030,note_on,,,,,0,0,2,,,,,,0,51,0
9060,note_on,,,,,30,0,2,,,,,,0,60,0
9060,note_on,,,,,0,0,2,,,,,,0,59,75
9090,note_on,,,,,0,0,2,,,,,,0,60,72
9090,note_on,,,,,30,0,2,,,,,,0,59,0
9120,note_on,,,,,0,0,2,,,,,,0,51,69
9120,note_on,,,,,30,0,2,,,,,,0,60,0
9120,note_on,,,,,0,0,1,,,,,,0,67,66
9120,note_on,,,,,0,0,2,,,,,,0,48,69
9120,note_on,,,,,120,0,1,,,,,,0,68,0
9150,note_on,,,,,30,0,2,,,,,,0,48,0
9150,note_on,,,,,0,0,2,,,,,,0,51,0
9150,note_on,,,,,0,0,2,,,,,,0,60,66
9180,note_on,,,,,60,0,1,,,,,,0,67,0
9180,note_on,,,,,30,0,2,,,,,,0,60,0
9180,note_on,,,,,0,0,2,,,,,,0,59,62
9210,note_on,,,,,30,0,2,,,,,,0,59,0
9210,note_on,,,,,0,0,2,,,,,,0,60,59
9240,note_on,,,,,0,0,2,,,,,,0,48,56
9240,note_on,,,,,0,0,2,,,,,,0,51,56
9240,note_on,,,,,30,0,2,,,,,,0,60,0
9270,note_on,,,,,30,0,2,,,,,,0,48,0
9270,note_on,,,,,0,0,2,,,,,,0,51,0
9270,note_on,,,,,0,0,2,,,,,,0,60,48
9300,note_on,,,,,30,0,2,,,,,,0,60,0
9300,note_on,,,,,0,0,2,,,,,,0,59,41
9320,set_tempo,,,,,2510,1,0,,833333,,,,,,
9330,note_on,,,,,150,0,1,,,,,,0,67,52
9330,note_on,,,,,0,0,2,,,,,,0,60,37
9330,note_on,,,,,30,0,2,,,,,,0,59,0
9352,note_on,,,,,22,0,1,,,,,,0,67,0
9360,note_on,,,,,0,0,2,,,,,,0,44,35
9360,note_on,,,,,8,0,1,,,,,,0,72,54
9360,control_change,,,,,0,0,1,,,,64,96,0,,
9360,note_on,,,,,30,0,2,,,,,,0,60,0
9380,set_tempo,,,,,60,1,0,,504201,,,,,,
9390,note_on,,,,,30,0,2,,,,,,0,44,0
9390,note_on,,,,,0,0,2,,,,,,0,51,33
9420,note_on,,,,,0,0,2,,,,,,0,50,33
9420,note_on,,,,,30,0,2,,,,,,0,51,0
9450,set_tempo,,,,,70,1,0,,500000,,,,,,
9450,note_on,,,,,30,0,2,,,,,,0,50,0
9450,note_on,,,,,0,0,2,,,,,,0,51,35
9460,set_tempo,,,,,10,1,0,,495867,,,,,,
9474,note_on,,,,,24,0,2,,,,,,0,51,0
9480,set_tempo,,,,,20,1,0,,491803,,,,,,
9480,note_on,,,,,6,0,2,,,,,,0,44,37
9480,note_on,,,,,0,0,1,,,,,,0,68,50
9480,control_change,,,,,0,0,1,,,,64,0,0,,
9480,note_on,,,,,120,0,1,,,,,,0,72,0
9510,set_tempo,,,,,30,1,0,,487804,,,,,,
9510,note_on,,,,,0,0,2,,,,,,0,51,38
9510,note_on,,,,,30,0,2,,,,,,0,44,0
9540,note_on,,,,,0,0,1,,,,,,0,63,42
9540,note_on,,,,,0,0,2,,,,,,0,50,39
9540,note_on,,,,,30,0,2,,,,,,0,51,0
9540,note_on,,,,,60,0,1,,,,,,0,68,0
9570,note_on,,,,,30,0,2,,,,,,0,50,0
9570,note_on,,,,,0,0,2,,,,,,0,51,39
9590,set_tempo,,,,,80,1,0,,483870,,,,,,
9594,note_on,,,,,24,0,2,,,,,,0,51,0
9600,note_on,,,,,0,0,1,,,,,,0,60,48
9600,note_on,,,,,60,0,1,,,,,,0,63,0
9600,note_on,,,,,6,0,2,,,,,,0,44,39
9630,note_on,,,,,0,0,2,,,,,,0,51,40
9630,note_on,,,,,30,0,2,,,,,,0,44,0
9650,set_tempo,,,,,60,1,0,,480000,,,,,,
9660,note_on,,,,,60,0,1,,,,,,0,60,0
9660,note_on,,,,,30,0,2,,,,,,0,51,0
9660,set_tempo,,,,,10,1,0,,476190,,,,,,
9660,note_on,,,,,0,0,2,,,,,,0,50,40
9660,note_on,,,,,0,0,1,,,,,,0,75,52
9690,note_on,,,,,30,0,2,,,,,,0,50,0
9690,note_on,,,,,0,0,2,,,,,,0,51,40
9720,note_on,,,,,0,0,1,,,,,,0,70,54
9720,control_change,,,,,0,0,1,,,,64,95,0,,
9720,note_on,,,,,60,0,1,,,,,,0,75,0
9720,note_on,,,,,30,0,2,,,,,,0,51,0
9720,note_on,,,,,0,0,2,,,,,,0,43,39
9750,note_on,,,,,0,0,2,,,,,,0,51,37
9750,note_on,,,,,30,0,2,,,,,,0,43,0
9770,set_tempo,,,,,110,1,0,,472440,,,,,,
9780,note_on,,,,,30,0,2,,,,,,0,51,0
9780,note_on,,,,,0,0,2,,,,,,0,50,35
9810,note_on,,,,,90,0,1,,,,,,0,70,0
9810,note_on,,,,,0,0,2,,,,,,0,51,35
9810,note_on,,,,,30,0,2,,,,,,0,50,0
9830,set_tempo,,,,,60,1,0,,468750,,,,,,
9834,note_on,,,,,24,0,2,,,,,,0,51,0
9835,control_change,,,,,25,0,1,,,,64,0,0,,
9840,note_on,,,,,6,0,2,,,,,,0,43,27
9840,note_on,,,,,5,0,1,,,,,,0,70,41
9840,control_change,,,,,0,0,1,,,,64,95,0,,
9870,set_tempo,,,,,40,1,0,,465116,,,,,,
9870,note_on,,,,,30,0,2,,,,,,0,43,0
9870,note_on,,,,,0,0,2,,,,,,0,51,26
9900,note_on,,,,,30,0,2,,,,,,0,51,0
9900,note_on,,,,,0,0,2,,,,,,0,50,29
9930,set_tempo,,,,,60,1,0,,461538,,,,,,
9930,note_on,,,,,0,0,2,,,,,,0,51,32
9930,note_on,,,,,30,0,2,,,,,,0,50,0
9930,note_on,,,,,90,0,1,,,,,,0,70,0
9954,note_on,,,,,24,0,2,,,,,,0,51,0
9960,note_on,,,,,6,0,2,,,,,,0,48,35
9960,control_change,,,,,30,0,1,,,,64,0,0,,
9990,note_on,,,,,0,0,2,,,,,,0,52,36
9990,note_on,,,,,30,0,2,,,,,,0,48,0
10020,note_on,,,,,0,0,2,,,,,,0,51,39
10020,note_on,,,,,30,0,2,,,,,,0,52,0
10050,note_on,,,,,90,0,1,,,,,,0,67,38
10050,note_on,,,,,0,0,2,,,,,,0,52,40
10050,note_on,,,,,30,0,2,,,,,,0,51,0
10072,note_on,,,,,22,0,1,,,,,,0,67,0
10080,note_on,,,,,8,0,1,,,,,,0,68,48
10080,note_on,,,,,0,0,2,,,,,,0,41,48
10080,note_on,,,,,30,0,2,,,,,,0,52,0
10110,note_on,,,,,30,0,2,,,,,,0,41,0
10110,note_on,,,,,0,0,2,,,,,,0,53,48
10140,note_on,,,,,0,0,2,,,,,,0,44,33
10140,note_on,,,,,30,0,2,,,,,,0,53,0
10140,note_on,,,,,60,0,1,,,,,,0,68,0
10140,note_on,,,,,0,0,1,,,,,,0,72,35
10170,note_on,,,,,0,0,2,,,,,,0,53,35
10170,note_on,,,,,30,0,2,,,,,,0,44,0
10200,note_on,,,,,0,0,2,,,,,,0,43,37
10200,note_on,,,,,30,0,2,,,,,,0,53,0
10200,note_on,,,,,60,0,1,,,,,,0,72,0
10200,note_on,,,,,0,0,1,,,,,,0,70,37
10230,note_on,,,,,30,0,2,,,,,,0,43,0
10230,note_on,,,,,0,0,2,,,,,,0,53,38
10260,note_on,,,,,0,0,2,,,,,,0,44,39
10260,note_on,,,,,30,0,2,,,,,,0,53,0
10260,note_on,,,,,60,0,1,,,,,,0,70,0
10260,note_on,,,,,0,0,1,,,,,,0,68,38
10290,note_on,,,,,30,0,2,,,,,,0,44,0
10290,note_on,,,,,0,0,2,,,,,,0,53,39
10320,note_on,,,,,60,0,1,,,,,,0,68,0
10320,note_on,,,,,0,0,2,,,,,,0,46,41
10320,note_on,,,,,30,0,2,,,,,,0,53,0
10320,note_on,,,,,0,0,1,,,,,,0,67,41
10350,note_on,,,,,0,0,2,,,,,,0,55,42
10350,note_on,,,,,30,0,2,,,,,,0,46,0
10380,note_on,,,,,0,0,2,,,,,,0,46,44
10380,note_on,,,,,0,0,1,,,,,,0,65,44
10380,note_on,,,,,60,0,1,,,,,,0,67,0
10380,note_on,,,,,30,0,2,,,,,,0,55,0
10400,set_tempo,,,,,470,1,0,,465116,,,,,,
10410,note_on,,,,,0,0,2,,,,,,0,56,45
10410,note_on,,,,,30,0,2,,,,,,0,46,0
10410,set_tempo,,,,,10,1,0,,468750,,,,,,
10440,note_on,,,,,0,0,1,,,,,,0,62,47
10440,note_on,,,,,60,0,1,,,,,,0,65,0
10440,note_on,,,,,0,0,1,,,,,,0,66,47
10440,control_change,,,,,0,0,1,,,,64,96,0,,
10440,note_on,,,,,0,0,2,,,,,,0,51,46
10440,note_on,,,,,30,0,2,,,,,,0,56,0
10450,set_tempo,,,,,40,1,0,,472440,,,,,,
10470,note_on,,,,,0,0,2,,,,,,0,58,46
10470,note_on,,,,,30,0,2,,,,,,0,51,0
10500,note_on,,,,,30,0,2,,,,,,0,58,0
10500,note_on,,,,,0,0,2,,,,,,0,57,44
10530,note_on,,,,,30,0,2,,,,,,0,57,0
10530,note_on,,,,,0,0,2,,,,,,0,58,41
10530,set_tempo,,,,,80,1,0,,476190,,,,,,
10554,note_on,,,,,24,0,2,,,,,,0,58,0
10560,note_on,,,,,0,0,1,,,,,,0,62,0
10560,note_on,,,,,0,0,1,,,,,,0,63,36
10560,note_on,,,,,0,0,1,,,,,,0,67,36
10560,control_change,,,,,0,0,1,,,,64,0,0,,
10560,note_on,,,,,6,0,2,,,,,,0,51,40
10560,note_on,,,,,120,0,1,,,,,,0,66,0
10580,set_tempo,,,,,50,1,0,,483870,,,,,,
10590,note_on,,,,,0,0,2,,,,,,0,58,39
10590,note_on,,,,,30,0,2,,,,,,0,51,0
10600,set_tempo,,,,,20,1,0,,487804,,,,,,
10620,note_on,,,,,0,0,2,,,,,,0,57,37
10620,note_on,,,,,30,0,2,,,,,,0,58,0
10650,note_on,,,,,0,0,2,,,,,,0,58,36
10650,note_on,,,,,30,0,2,,,,,,0,57,0
10650,note_on,,,,,90,0,1,,,,,,0,67,0
10650,note_on,,,,,0,0,1,,,,,,0,63,0
10674,note_on,,,,,24,0,2,,,,,,0,58,0
10680,set_tempo,,,,,80,1,0,,491803,,,,,,
10680,note_on,,,,,6,0,2,,,,,,0,51,35
10710,note_on,,,,,0,0,2,,,,,,0,58,35
10710,note_on,,,,,30,0,2,,,,,,0,51,0
10740,note_on,,,,,0,0,2,,,,,,0,57,33
10740,note_on,,,,,30,0,2,,,,,,0,58,0
10770,note_on,,,,,0,0,2,,,,,,0,58,32
10770,set_tempo,,,,,90,1,0,,500000,,,,,,
10770,note_on,,,,,30,0,2,,,,,,0,57,0
10770,note_on,,,,,120,0,1,,,,,,0,82,60
10794,note_on,,,,,24,0,2,,,,,,0,58,0
10800,set_tempo,,,,,30,1,0,,833333,,,,,,
10800,note_on,,,,,6,0,2,,,,,,0,56,35
10800,note_on,,,,,0,0,1,,,,,,0,84,60
10800,control_change,,,,,0,0,1,,,,64,96,0,,
10800,note_on,,,,,30,0,1,,,,,,0,82,0
10820,set_tempo,,,,,20,1,0,,504201,,,,,,
10830,note_on,,,,,0,0,2,,,,,,0,63,33
10830,note_on,,,,,30,0,2,,,,,,0,56,0
10860,note_on,,,,,0,0,2,,,,,,0,62,33
10860,note_on,,,,,30,0,2,,,,,,0,63,0
10890,note_on,,,,,0,0,2,,,,,,0,63,35
10890,note_on,,,,,30,0,2,,,,,,0,62,0
10890,set_tempo,,,,,70,1,0,,500000,,,,,,
10900,set_tempo,,,,,10,1,0,,495867,,,,,,
10914,note_on,,,,,24,0,2,,,,,,0,63,0
10920,note_on,,,,,120,0,1,,,,,,0,84,0
10920,note_on,,,,,0,0,1,,,,,,0,80,53
10920,set_tempo,,,,,20,1,0,,491803,,,,,,
10920,control_change,,,,,0,0,1,,,,64,0,0,,
10920,note_on,,,,,6,0,2,,,,,,0,56,37
10950,note_on,,,,,30,0,2,,,,,,0,56,0
10950,note_on,,,,,0,0,2,,,,,,0,63,38
10950,set_tempo,,,,,30,1,0,,487804,,,,,,
10980,note_on,,,,,30,0,2,,,,,,0,63,0
10980,note_on,,,,,0,0,2,,,,,,0,62,39
10980,note_on,,,,,60,0,1,,,,,,0,80,0
10980,note_on,,,,,0,0,1,,,,,,0,75,52
11010,note_on,,,,,30,0,2,,,,,,0,62,0
11010,note_on,,,,,0,0,2,,,,,,0,63,39
11030,set_tempo,,,,,80,1,0,,483870,,,,,,
11034,note_on,,,,,24,0,2,,,,,,0,63,0
11040,note_on,,,,,0,0,1,,,,,,0,72,55
11040,note_on,,,,,6,0,2,,,,,,0,56,39
11040,note_on,,,,,60,0,1,,,,,,0,75,0
11070,note_on,,,,,0,0,2,,,,,,0,63,40
11070,note_on,,,,,30,0,2,,,,,,0,56,0
11090,set_tempo,,,,,60,1,0,,480000,,,,,,
11100,note_on,,,,,60,0,1,,,,,,0,72,0
11100,note_on,,,,,30,0,2,,,,,,0,63,0
11100,note_on,,,,,0,0,1,,,,,,0,87,58
11100,set_tempo,,,,,10,1,0,,476190,,,,,,
11100,note_on,,,,,0,0,2,,,,,,0,62,40
11130,note_on,,,,,30,0,2,,,,,,0,62,0
11130,note_on,,,,,0,0,2,,,,,,0,63,40
11160,note_on,,,,,30,0,2,,,,,,0,63,0
11160,note_on,,,,,0,0,2,,,,,,0,55,39
11160,note_on,,,,,60,0,1,,,,,,0,87,0
11160,note_on,,,,,0,0,1,,,,,,0,82,60
11160,control_change,,,,,0,0,1,,,,64,95,0,,
11190,note_on,,,,,30,0,2,,,,,,0,55,0
11190,note_on,,,,,0,0,2,,,,,,0,63,37
11210,set_tempo,,,,,110,1,0,,472440,,,,,,
11220,note_on,,,,,30,0,2,,,,,,0,63,0
11220,note_on,,,,,0,0,2,,,,,,0,62,35
11250,note_on,,,,,30,0,2,,,,,,0,62,0
11250,note_on,,,,,0,0,2,,,,,,0,63,35
11250,note_on,,,,,90,0,1,,,,,,0,82,0
11270,set_tempo,,,,,60,1,0,,468750,,,,,,
11274,note_on,,,,,24,0,2,,,,,,0,63,0
11275,control_change,,,,,25,0,1,,,,64,0,0,,
11280,note_on,,,,,5,0,1,,,,,,0,82,52
11280,note_on,,,,,6,0,2,,,,,,0,55,27
11280,control_change,,,,,0,0,1,,,,64,95,0,,
11310,note_on,,,,,0,0,2,,,,,,0,63,26
11310,note_on,,,,,30,0,2,,,,,,0,55,0
11310,set_tempo,,,,,40,1,0,,465116,,,,,,
11340,note_on,,,,,0,0,2,,,,,,0,62,29
11340,note_on,,,,,30,0,2,,,,,,0,63,0
11370,set_tempo,,,,,60,1,0,,461538,,,,,,
11370,note_on,,,,,90,0,1,,,,,,0,82,0
11370,note_on,,,,,0,0,2,,,,,,0,63,32
11370,note_on,,,,,30,0,2,,,,,,0,62,0
11394,note_on,,,,,24,0,2,,,,,,0,63,0
11400,control_change,,,,,30,0,1,,,,64,0,0,,
11400,note_on,,,,,6,0,2,,,,,,0,60,35
11430,note_on,,,,,0,0,2,,,,,,0,64,36
11430,note_on,,,,,30,0,2,,,,,,0,60,0
11460,note_on,,,,,30,0,2,,,,,,0,64,0
11460,note_on,,,,,0,0,2,,,,,,0,63,39
11490,note_on,,,,,30,0,2,,,,,,0,63,0
11490,set_tempo,,,,,120,1,0,,476190,,,,,,
11490,note_on,,,,,0,0,2,,,,,,0,64,40
11490,note_on,,,,,90,0,1,,,,,,0,79,50
11512,note_on,,,,,22,0,1,,,,,,0,79,0
11520,note_on,,,,,8,0,1,,,,,,0,80,53
11520,control_change,,,,,0,0,1,,,,64,95,0,,
11520,note_on,,,,,30,0,2,,,,,,0,64,0
11520,note_on,,,,,0,0,2,,,,,,0,53,48
11550,note_on,,,,,0,0,2,,,,,,0,65,40
11550,note_on,,,,,30,0,2,,,,,,0,53,0
11580,note_on,,,,,60,0,1,,,,,,0,80,0
11580,note_on,,,,,0,0,1,,,,,,0,84,43
11580,note_on,,,,,0,0,2,,,,,,0,56,42
11580,note_on,,,,,30,0,2,,,,,,0,65,0
11610,note_on,,,,,30,0,2,,,,,,0,56,0
11610,note_on,,,,,0,0,2,,,,,,0,65,43
11640,note_on,,,,,0,0,1,,,,,,0,82,44
11640,note_on,,,,,0,0,2,,,,,,0,55,45
11640,note_on,,,,,30,0,2,,,,,,0,65,0
11640,note_on,,,,,60,0,1,,,,,,0,84,0
11640,control_change,,,,,0,0,1,,,,64,0,0,,
11670,note_on,,,,,30,0,2,,,,,,0,55,0
11670,note_on,,,,,0,0,2,,,,,,0,65,48
11700,note_on,,,,,0,0,2,,,,,,0,56,50
11700,note_on,,,,,60,0,1,,,,,,0,82,0
11700,note_on,,,,,0,0,1,,,,,,0,80,46
11700,note_on,,,,,30,0,2,,,,,,0,65,0
11730,note_on,,,,,30,0,2,,,,,,0,56,0
11730,note_on,,,,,0,0,2,,,,,,0,65,51
11750,set_tempo,,,,,260,1,0,,472440,,,,,,
11760,note_on,,,,,30,0,2,,,,,,0,65,0
11760,note_on,,,,,0,0,2,,,,,,0,58,53
11760,note_on,,,,,60,0,1,,,,,,0,80,0
11760,note_on,,,,,0,0,1,,,,,,0,79,49
11790,note_on,,,,,0,0,2,,,,,,0,63,54
11790,note_on,,,,,30,0,2,,,,,,0,58,0
11810,set_tempo,,,,,60,1,0,,468750,,,,,,
11820,note_on,,,,,60,0,1,,,,,,0,79,0
11820,note_on,,,,,0,0,1,,,,,,0,77,55
11820,note_on,,,,,30,0,2,,,,,,0,63,0
11820,note_on,,,,,0,0,2,,,,,,0,58,56
11830,set_tempo,,,,,20,1,0,,465116,,,,,,
11850,note_on,,,,,0,0,2,,,,,,0,62,57
11850,note_on,,,,,30,0,2,,,,,,0,58,0
11870,set_tempo,,,,,40,1,0,,461538,,,,,,
11880,note_on,,,,,60,0,1,,,,,,0,77,0
11880,control_change,,,,,0,0,1,,,,64,97,0,,
11880,note_on,,,,,0,0,1,,,,,,0,79,60
11880,note_on,,,,,0,0,2,,,,,,0,51,59
11880,note_on,,,,,30,0,2,,,,,,0,62,0
11910,note_on,,,,,30,0,2,,,,,,0,51,0
11910,note_on,,,,,0,0,2,,,,,,0,63,53
11940,note_on,,,,,30,0,2,,,,,,0,63,0
11940,note_on,,,,,0,0,2,,,,,,0,55,56
11940,note_on,,,,,60,0,1,,,,,,0,79,0
11940,note_on,,,,,0,0,1,,,,,,0,82,56
11950,set_tempo,,,,,80,1,0,,458015,,,,,,
11970,note_on,,,,,30,0,2,,,,,,0,55,0
11970,note_on,,,,,0,0,2,,,,,,0,63,57
12000,note_on,,,,,60,0,1,,,,,,0,82,0
12000,note_on,,,,,0,0,1,,,,,,0,80,61
12000,control_change,,,,,0,0,1,,,,64,0,0,,
12000,note_on,,,,,30,0,2,,,,,,0,63,0
12000,note_on,,,,,0,0,2,,,,,,0,60,59
12030,note_on,,,,,30,0,2,,,,,,0,60,0
12030,note_on,,,,,0,0,2,,,,,,0,63,60
12050,set_tempo,,,,,100,1,0,,454545,,,,,,
12060,note_on,,,,,30,0,2,,,,,,0,63,0
12060,note_on,,,,,60,0,1,,,,,,0,80,0
12060,note_on,,,,,0,0,1,,,,,,0,79,66
12060,note_on,,,,,0,0,2,,,,,,0,58,61
12090,note_on,,,,,0,0,2,,,,,,0,63,63
12090,note_on,,,,,30,0,2,,,,,,0,58,0
12110,set_tempo,,,,,60,1,0,,451127,,,,,,
12120,note_on,,,,,0,0,2,,,,,,0,56,65
12120,note_on,,,,,60,0,1,,,,,,0,79,0
12120,note_on,,,,,30,0,2,,,,,,0,63,0
12120,note_on,,,,,0,0,1,,,,,,0,77,70
12150,note_on,,,,,30,0,2,,,,,,0,56,0
12150,note_on,,,,,0,0,2,,,,,,0,63,67
12160,set_tempo,,,,,50,1,0,,447761,,,,,,
12180,note_on,,,,,60,0,1,,,,,,0,77,0
12180,note_on,,,,,30,0,2,,,,,,0,63,0
12180,note_on,,,,,0,0,2,,,,,,0,55,67
12180,note_on,,,,,0,0,1,,,,,,0,75,74
12210,note_on,,,,,30,0,2,,,,,,0,55,0
12210,note_on,,,,,0,0,2,,,,,,0,63,69
12240,note_on,,,,,30,0,2,,,,,,0,63,0
12240,note_on,,,,,0,0,2,,,,,,0,46,70
12240,set_tempo,,,,,80,1,0,,444444,,,,,,
12240,note_on,,,,,60,0,1,,,,,,0,75,0
12240,note_on,,,,,0,0,1,,,,,,0,74,78
12240,control_change,,,,,0,0,1,,,,64,95,0,,
12270,note_on,,,,,30,0,2,,,,,,0,46,0
12270,note_on,,,,,0,0,2,,,,,,0,58,61
12300,note_on,,,,,60,0,1,,,,,,0,74,0
12300,note_on,,,,,0,0,1,,,,,,0,80,66
12300,note_on,,,,,0,0,2,,,,,,0,50,63
12300,note_on,,,,,30,0,2,,,,,,0,58,0
12310,set_tempo,,,,,70,1,0,,441176,,,,,,
12330,note_on,,,,,0,0,2,,,,,,0,58,66
12330,note_on,,,,,30,0,2,,,,,,0,50,0
12360,note_on,,,,,60,0,1,,,,,,0,80,0
12360,note_on,,,,,0,0,1,,,,,,0,79,70
12360,note_on,,,,,0,0,2,,,,,,0,51,68
12360,note_on,,,,,30,0,2,,,,,,0,58,0
12380,set_tempo,,,,,70,1,0,,437956,,,,,,
12390,note_on,,,,,30,0,2,,,,,,0,51,0
12390,note_on,,,,,0,0,2,,,,,,0,58,71
12420,note_on,,,,,60,0,1,,,,,,0,79,0
12420,note_on,,,,,30,0,2,,,,,,0,58,0
12420,note_on,,,,,0,0,2,,,,,,0,53,73
12420,note_on,,,,,0,0,1,,,,,,0,77,75
12450,set_tempo,,,,,70,1,0,,434782,,,,,,
12450,note_on,,,,,30,0,2,,,,,,0,53,0
12450,note_on,,,,,0,0,2,,,,,,0,58,76
12480,note_on,,,,,0,0,1,,,,,,0,75,79
12480,control_change,,,,,0,0,1,,,,64,95,0,,
12480,note_on,,,,,30,0,2,,,,,,0,58,0
12480,note_on,,,,,0,0,2,,,,,,0,55,78
12480,note_on,,,,,60,0,1,,,,,,0,77,0
12510,note_on,,,,,30,0,2,,,,,,0,55,0
12510,note_on,,,,,0,0,2,,,,,,0,58,81
12520,set_tempo,,,,,70,1,0,,431654,,,,,,
12540,note_on,,,,,30,0,2,,,,,,0,58,0
12540,note_on,,,,,0,0,1,,,,,,0,74,88
12540,note_on,,,,,60,0,1,,,,,,0,75,0
12540,note_on,,,,,0,0,2,,,,,,0,56,84
12560,set_tempo,,,,,40,1,0,,428571,,,,,,
12570,note_on,,,,,0,0,2,,,,,,0,58,87
12570,note_on,,,,,30,0,2,,,,,,0,56,0
12595,control_change,,,,,55,0,1,,,,64,0,0,,
12600,note_on,,,,,30,0,2,,,,,,0,58,0
12600,note_on,,,,,5,0,1,,,,,,0,74,0
12600,note_on,,,,,0,0,2,,,,,,0,46,95
12600,control_change,,,,,0,0,1,,,,64,95,0,,
12600,note_on,,,,,0,0,1,,,,,,0,75,95
12630,note_on,,,,,30,0,1,,,,,,0,75,0
12630,note_on,,,,,0,0,1,,,,,,0,78,90
12630,note_on,,,,,0,0,2,,,,,,0,57,90
12630,set_tempo,,,,,70,1,0,,425531,,,,,,
12630,note_on,,,,,30,0,2,,,,,,0,46,0
12660,note_on,,,,,0,0,2,,,,,,0,48,91
12660,note_on,,,,,30,0,1,,,,,,0,78,0
12660,note_on,,,,,0,0,1,,,,,,0,75,91
12660,note_on,,,,,30,0,2,,,,,,0,57,0
12670,set_tempo,,,,,40,1,0,,425531,,,,,,
12690,note_on,,,,,30,0,1,,,,,,0,75,0
12690,note_on,,,,,0,0,2,,,,,,0,57,93
12690,note_on,,,,,30,0,2,,,,,,0,48,0
12690,note_on,,,,,0,0,1,,,,,,0,72,93
12712,note_on,,,,,22,0,2,,,,,,0,57,0
12712,note_on,,,,,22,0,1,,,,,,0,72,0
12720,note_on,,,,,8,0,2,,,,,,0,51,102
12720,note_on,,,,,8,0,1,,,,,,0,72,102
12730,set_tempo,,,,,60,1,0,,428571,,,,,,
12750,note_on,,,,,30,0,1,,,,,,0,72,0
12750,set_tempo,,,,,20,1,0,,431654,,,,,,
12750,note_on,,,,,30,0,2,,,,,,0,51,0
12750,note_on,,,,,0,0,2,,,,,,0,57,100
12750,note_on,,,,,0,0,1,,,,,,0,75,100
12780,note_on,,,,,0,0,1,,,,,,0,72,99
12780,note_on,,,,,30,0,2,,,,,,0,57,0
12780,note_on,,,,,0,0,2,,,,,,0,54,99
12780,note_on,,,,,30,0,1,,,,,,0,75,0
12810,note_on,,,,,30,0,1,,,,,,0,72,0
12810,note_on,,,,,0,0,1,,,,,,0,69,103
12810,note_on,,,,,30,0,2,,,,,,0,54,0
12810,note_on,,,,,0,0,2,,,,,,0,57,103
12830,set_tempo,,,,,80,1,0,,434782,,,,,,
12832,note_on,,,,,22,0,1,,,,,,0,69,0
12832,note_on,,,,,22,0,2,,,,,,0,57,0
12840,note_on,,,,,8,0,1,,,,,,0,69,113
12840,note_on,,,,,8,0,2,,,,,,0,51,113
12870,note_on,,,,,30,0,1,,,,,,0,69,0
12870,note_on,,,,,0,0,2,,,,,,0,57,109
12870,note_on,,,,,30,0,2,,,,,,0,51,0
12870,note_on,,,,,0,0,1,,,,,,0,72,109
12870,set_tempo,,,,,40,1,0,,437956,,,,,,
12900,note_on,,,,,30,0,1,,,,,,0,72,0
12900,note_on,,,,,0,0,2,,,,,,0,48,112
12900,note_on,,,,,0,0,1,,,,,,0,69,112
12900,note_on,,,,,30,0,2,,,,,,0,57,0
12920,set_tempo,,,,,50,1,0,,441176,,,,,,
12930,note_on,,,,,30,0,2,,,,,,0,48,0
12930,note_on,,,,,0,0,2,,,,,,0,57,114
12930,note_on,,,,,0,0,1,,,,,,0,63,114
12930,note_on,,,,,30,0,1,,,,,,0,69,0
12955,control_change,,,,,25,0,1,,,,64,0,0,,
12960,note_on,,,,,5,0,1,,,,,,0,63,0
12960,control_change,,,,,0,0,1,,,,64,94,0,,
12960,note_on,,,,,0,0,2,,,,,,0,46,117
12960,note_on,,,,,30,0,2,,,,,,0,57,0
12960,note_on,,,,,0,0,1,,,,,,0,70,117
12990,note_on,,,,,30,0,1,,,,,,0,70,0
12990,note_on,,,,,0,0,1,,,,,,0,74,113
13020,note_on,,,,,60,0,2,,,,,,0,46,0
13020,note_on,,,,,30,0,1,,,,,,0,74,0
13020,note_on,,,,,0,0,1,,,,,,0,70,113
13030,set_tempo,,,,,110,1,0,,444444,,,,,,
13050,note_on,,,,,0,0,1,,,,,,0,65,113
13050,note_on,,,,,30,0,1,,,,,,0,70,0
13072,note_on,,,,,22,0,1,,,,,,0,65,0
13080,note_on,,,,,60,0,2,,,,,,0,53,122
13080,set_tempo,,,,,50,1,0,,447761,,,,,,
13080,note_on,,,,,8,0,1,,,,,,0,65,122
13110,note_on,,,,,30,0,1,,,,,,0,65,0
13110,note_on,,,,,0,0,1,,,,,,0,70,113
13110,note_on,,,,,0,0,2,,,,,,0,58,113
13110,note_on,,,,,30,0,2,,,,,,0,53,0
13140,note_on,,,,,30,0,1,,,,,,0,70,0
13140,note_on,,,,,0,0,1,,,,,,0,65,113
13140,note_on,,,,,0,0,2,,,,,,0,53,113
13140,note_on,,,,,30,0,2,,,,,,0,58,0
13170,note_on,,,,,30,0,1,,,,,,0,65,0
13170,note_on,,,,,0,0,1,,,,,,0,62,113
13170,note_on,,,,,0,0,2,,,,,,0,50,113
13170,note_on,,,,,30,0,2,,,,,,0,53,0
13192,note_on,,,,,22,0,2,,,,,,0,50,0
13192,note_on,,,,,22,0,1,,,,,,0,62,0
13200,note_on,,,,,8,0,1,,,,,,0,62,122
13200,note_on,,,,,8,0,2,,,,,,0,50,122
13210,set_tempo,,,,,130,1,0,,451127,,,,,,
13230,note_on,,,,,0,0,1,,,,,,0,65,117
13230,set_tempo,,,,,20,1,0,,454545,,,,,,
13230,note_on,,,,,30,0,2,,,,,,0,50,0
13230,note_on,,,,,0,0,2,,,,,,0,53,117
13230,note_on,,,,,30,0,1,,,,,,0,62,0
13250,set_tempo,,,,,20,1,0,,458015,,,,,,
13260,note_on,,,,,0,0,1,,,,,,0,62,119
13260,note_on,,,,,30,0,1,,,,,,0,65,0
13260,note_on,,,,,30,0,2,,,,,,0,53,0
13260,note_on,,,,,0,0,2,,,,,,0,50,119
13290,note_on,,,,,0,0,2,,,,,,0,46,123
13290,note_on,,,,,30,0,1,,,,,,0,62,0
13290,note_on,,,,,0,0,1,,,,,,0,58,125
13290,note_on,,,,,30,0,2,,,,,,0,50,0
13310,control_change,,,,,20,0,1,,,,64,0,0,,
13312,note_on,,,,,2,0,1,,,,,,0,58,0
13312,note_on,,,,,22,0,2,,,,,,0,46,0
13320,control_change,,,,,0,0,1,,,,64,96,0,,
13320,note_on,,,,,8,0,1,,,,,,0,70,127
13320,note_on,,,,,8,0,2,,,,,,0,34,127
13380,note_on,,,,,60,0,1,,,,,,0,70,0
13380,note_on,,,,,60,0,2,,,,,,0,34,0
13390,set_tempo,,,,,140,1,0,,461538,,,,,,
13440,note_on,,,,,60,0,2,,,,,,0,34,127
13440,note_on,,,,,0,0,2,,,,,,0,46,127
13440,note_on,,,,,60,0,1,,,,,,0,58,127
13440,note_on,,,,,0,0,1,,,,,,0,70,127
13470,set_tempo,,,,,80,1,0,,465116,,,,,,
13530,set_tempo,,,,,60,1,0,,468750,,,,,,
13555,control_change,,,,,115,0,1,,,,64,0,0,,
13560,note_on,,,,,120,0,2,,,,,,0,46,0
13560,note_on,,,,,0,0,2,,,,,,0,34,0
13560,note_on,,,,,0,0,1,,,,,,0,58,0
13560,note_on,,,,,5,0,1,,,,,,0,70,0
13850,set_tempo,,,,,320,1,0,,689655,,,,,,
13860,note_on,,,,,300,0,2,,,,,,0,46,44
13860,note_on,,,,,300,0,1,,,,,,0,58,38
13860,note_on,,,,,0,0,1,,,,,,0,68,38
13860,control_change,,,,,0,0,1,,,,64,95,0,,
13860,note_on,,,,,0,0,2,,,,,,0,56,44
13905,note_on,,,,,0,0,2,,,,,,0,46,0
13905,note_on,,,,,0,0,1,,,,,,0,58,0
13905,note_on,,,,,45,0,1,,,,,,0,68,0
13905,note_on,,,,,45,0,2,,,,,,0,56,0
13920,note_on,,,,,15,0,2,,,,,,0,48,46
13920,note_on,,,,,0,0,2,,,,,,0,56,46
13920,set_tempo,,,,,70,1,0,,689655,,,,,,
13920,note_on,,,,,15,0,1,,,,,,0,58,43
13920,note_on,,,,,0,0,1,,,,,,0,67,43
13930,set_tempo,,,,,10,1,0,,714285,,,,,,
13965,note_on,,,,,45,0,1,,,,,,0,67,0
13965,note_on,,,,,0,0,1,,,,,,0,58,0
13965,note_on,,,,,45,0,2,,,,,,0,56,0
13965,note_on,,,,,0,0,2,,,,,,0,48,0
13970,set_tempo,,,,,40,1,0,,923076,,,,,,
13980,note_on,,,,,15,0,2,,,,,,0,50,51
13980,note_on,,,,,0,0,2,,,,,,0,56,51
13980,note_on,,,,,0,0,1,,,,,,0,65,47
13980,note_on,,,,,15,0,1,,,,,,0,58,47
14025,note_on,,,,,45,0,2,,,,,,0,56,0
14025,note_on,,,,,0,0,2,,,,,,0,50,0
14025,note_on,,,,,0,0,1,,,,,,0,58,0
14025,note_on,,,,,45,0,1,,,,,,0,65,0
14030,control_change,,,,,5,0,1,,,,64,0,0,,
14040,note_on,,,,,0,0,2,,,,,,0,55,53
14040,set_tempo,,,,,70,1,0,,535714,,,,,,
14040,control_change,,,,,0,0,1,,,,64,95,0,,
14040,note_on,,,,,10,0,1,,,,,,0,63,50
14040,note_on,,,,,15,0,2,,,,,,0,51,53
14160,note_on,,,,,120,0,1,,,,,,0,58,48
14250,note_on,,,,,90,0,1,,,,,,0,58,0
14275,control_change,,,,,25,0,1,,,,64,0,0,,
14280,note_on,,,,,5,0,1,,,,,,0,63,0
14280,note_on,,,,,0,0,1,,,,,,0,58,44
14280,control_change,,,,,0,0,1,,,,64,94,0,,
14280,note_on,,,,,240,0,2,,,,,,0,55,0
14280,note_on,,,,,0,0,1,,,,,,0,62,44
14280,note_on,,,,,0,0,2,,,,,,0,51,0
14280,note_on,,,,,0,0,2,,,,,,0,53,45
14280,note_on,,,,,0,0,2,,,,,,0,56,45
14370,note_on,,,,,0,0,2,,,,,,0,53,0
14370,note_on,,,,,90,0,2,,,,,,0,56,0
14370,note_on,,,,,0,0,1,,,,,,0,58,0
14370,note_on,,,,,90,0,1,,,,,,0,62,0
14395,control_change,,,,,25,0,1,,,,64,0,0,,
14400,set_tempo,,,,,360,1,0,,540540,,,,,,
14400,control_change,,,,,0,0,1,,,,64,97,0,,
14400,note_on,,,,,0,0,2,,,,,,0,55,45
14400,note_on,,,,,0,0,1,,,,,,0,63,47
14400,note_on,,,,,30,0,2,,,,,,0,51,45
14400,note_on,,,,,5,0,1,,,,,,0,58,47
14420,set_tempo,,,,,20,1,0,,555555,,,,,,
14430,set_tempo,,,,,10,1,0,,566037,,,,,,
14450,set_tempo,,,,,20,1,0,,571428,,,,,,
14460,note_on,,,,,60,0,2,,,,,,0,55,0
14460,note_on,,,,,0,0,1,,,,,,0,62,42
14460,note_on,,,,,0,0,1,,,,,,0,58,0
14460,note_on,,,,,0,0,2,,,,,,0,56,41
14460,note_on,,,,,60,0,1,,,,,,0,63,0
14460,note_on,,,,,0,0,2,,,,,,0,51,0
14460,set_tempo,,,,,10,1,0,,576923,,,,,,
14460,note_on,,,,,0,0,1,,,,,,0,58,42
14460,note_on,,,,,0,0,2,,,,,,0,53,41
14470,set_tempo,,,,,10,1,0,,582524,,,,,,
14520,note_on,,,,,60,0,2,,,,,,0,56,0
14520,note_on,,,,,0,0,2,,,,,,0,53,0
14520,note_on,,,,,0,0,2,,,,,,0,51,37
14520,note_on,,,,,0,0,2,,,,,,0,55,37
14520,note_on,,,,,0,0,1,,,,,,0,63,39
14520,note_on,,,,,0,0,1,,,,,,0,58,39
14520,note_on,,,,,0,0,1,,,,,,0,58,0
14520,note_on,,,,,60,0,1,,,,,,0,62,0
14525,control_change,,,,,5,0,1,,,,64,0,0,,
14530,set_tempo,,,,,60,1,0,,588235,,,,,,
14540,set_tempo,,,,,10,1,0,,600000,,,,,,
14560,set_tempo,,,,,20,1,0,,606060,,,,,,
14580,set_tempo,,,,,20,1,0,,612244,,,,,,
14580,note_on,,,,,0,0,2,,,,,,0,51,0
14580,note_on,,,,,0,0,2,,,,,,0,50,33
14580,note_on,,,,,60,0,2,,,,,,0,55,0
14580,note_on,,,,,55,0,1,,,,,,0,63,0
14580,note_on,,,,,0,0,1,,,,,,0,58,0
14580,note_on,,,,,0,0,1,,,,,,0,58,35
14580,note_on,,,,,0,0,1,,,,,,0,65,35
14580,note_on,,,,,0,0,2,,,,,,0,56,33
14610,set_tempo,,,,,30,1,0,,618556,,,,,,
14620,set_tempo,,,,,10,1,0,,625000,,,,,,
14640,note_on,,,,,0,0,1,,,,,,0,58,0
14640,note_on,,,,,0,0,1,,,,,,0,67,32
14640,note_on,,,,,60,0,1,,,,,,0,65,0
14640,note_on,,,,,0,0,1,,,,,,0,58,32
14640,note_on,,,,,60,0,2,,,,,,0,56,0
14640,note_on,,,,,0,0,2,,,,,,0,50,0
14640,note_on,,,,,0,0,2,,,,,,0,51,31
14640,note_on,,,,,0,0,2,,,,,,0,55,31
14730,note_on,,,,,0,0,1,,,,,,0,58,0
14730,note_on,,,,,90,0,1,,,,,,0,67,0
14730,note_on,,,,,90,0,2,,,,,,0,55,0
14730,note_on,,,,,0,0,2,,,,,,0,51,0
14760,note_on,,,,,30,0,2,,,,,,0,44,50
14760,note_on,,,,,30,0,1,,,,,,0,60,50
14760,note_on,,,,,0,0,2,,,,,,0,56,50
14760,note_on,,,,,0,0,2,,,,,,0,51,50
14760,note_on,,,,,0,0,1,,,,,,0,68,50
14760,control_change,,,,,0,0,1,,,,64,96,0,,
14770,set_tempo,,,,,150,1,0,,625000,,,,,,
15000,note_on,,,,,240,0,2,,,,,,0,56,0
15000,note_on,,,,,0,0,2,,,,,,0,51,0
15000,note_on,,,,,0,0,2,,,,,,0,44,0
15000,note_on,,,,,0,0,2,,,,,,0,51,44
15000,note_on,,,,,240,0,1,,,,,,0,68,0
15000,note_on,,,,,0,0,1,,,,,,0,67,44
15000,note_on,,,,,0,0,1,,,,,,0,58,44
15000,note_on,,,,,0,0,1,,,,,,0,60,0
15005,control_change,,,,,5,0,1,,,,64,0,0,,
15090,note_on,,,,,85,0,1,,,,,,0,67,0
15090,note_on,,,,,90,0,2,,,,,,0,51,0
15090,note_on,,,,,0,0,1,,,,,,0,58,0
15110,set_tempo,,,,,340,1,0,,555555,,,,,,
15120,note_on,,,,,30,0,2,,,,,,0,46,47
15120,control_change,,,,,0,0,1,,,,64,94,0,,
15120,note_on,,,,,30,0,1,,,,,,0,67,47
15168,note_on,,,,,48,0,2,,,,,,0,46,0
15180,set_tempo,,,,,70,1,0,,560747,,,,,,
15180,note_on,,,,,12,0,2,,,,,,0,46,42
15180,note_on,,,,,60,0,1,,,,,,0,67,0
15180,note_on,,,,,0,0,1,,,,,,0,65,43
15190,set_tempo,,,,,10,1,0,,566037,,,,,,
15210,set_tempo,,,,,20,1,0,,571428,,,,,,
15228,note_on,,,,,48,0,2,,,,,,0,46,0
15240,note_on,,,,,60,0,1,,,,,,0,65,0
15240,note_on,,,,,0,0,1,,,,,,0,63,33
15240,control_change,,,,,0,0,1,,,,64,0,0,,
15240,set_tempo,,,,,30,1,0,,576923,,,,,,
15240,note_on,,,,,12,0,2,,,,,,0,46,34
15260,set_tempo,,,,,20,1,0,,582524,,,,,,
15280,set_tempo,,,,,20,1,0,,594059,,,,,,
15288,note_on,,,,,48,0,2,,,,,,0,46,0
15300,note_on,,,,,12,0,2,,,,,,0,46,37
15300,set_tempo,,,,,20,1,0,,600000,,,,,,
15300,note_on,,,,,0,0,1,,,,,,0,62,37
15300,note_on,,,,,60,0,1,,,,,,0,63,0
15310,set_tempo,,,,,10,1,0,,606060,,,,,,
15330,set_tempo,,,,,20,1,0,,612244,,,,,,
15348,note_on,,,,,48,0,2,,,,,,0,46,0
15360,note_on,,,,,12,0,2,,,,,,0,46,39
15360,note_on,,,,,0,0,1,,,,,,0,60,42
15360,note_on,,,,,60,0,1,,,,,,0,62,0
15408,note_on,,,,,48,0,2,,,,,,0,46,0
15410,set_tempo,,,,,80,1,0,,625000,,,,,,
15420,note_on,,,,,0,0,1,,,,,,0,62,45
15420,note_on,,,,,0,0,2,,,,,,0,53,41
15420,note_on,,,,,12,0,2,,,,,,0,46,41
15420,note_on,,,,,60,0,1,,,,,,0,60,0
15430,set_tempo,,,,,20,1,0,,631578,,,,,,
15440,set_tempo,,,,,10,1,0,,638297,,,,,,
15465,note_on,,,,,0,0,2,,,,,,0,46,0
15465,note_on,,,,,45,0,2,,,,,,0,53,0
15465,note_on,,,,,45,0,1,,,,,,0,62,0
15480,set_tempo,,,,,40,1,0,,535714,,,,,,
15480,control_change,,,,,0,0,1,,,,64,95,0,,
15480,note_on,,,,,15,0,2,,,,,,0,51,53
15480,note_on,,,,,0,0,2,,,,,,0,55,53
15480,note_on,,,,,15,0,1,,,,,,0,63,50
15600,note_on,,,,,0,0,1,,,,,,0,58,48
15600,note_on,,,,,120,0,1,,,,,,0,70,48
15690,note_on,,,,,90,0,1,,,,,,0,58,0
15690,note_on,,,,,0,0,1,,,,,,0,70,0
15715,control_change,,,,,25,0,1,,,,64,0,0,,
15720,note_on,,,,,240,0,2,,,,,,0,55,0
15720,note_on,,,,,0,0,2,,,,,,0,51,0
15720,note_on,,,,,0,0,2,,,,,,0,56,45
15720,note_on,,,,,5,0,1,,,,,,0,63,0
15720,note_on,,,,,0,0,1,,,,,,0,62,52
15720,note_on,,,,,0,0,1,,,,,,0,70,44
15720,note_on,,,,,0,0,2,,,,,,0,53,45
15720,control_change,,,,,0,0,1,,,,64,94,0,,
15720,note_on,,,,,0,0,1,,,,,,0,58,44
15810,note_on,,,,,0,0,1,,,,,,0,70,0
15810,note_on,,,,,90,0,1,,,,,,0,58,0
15810,note_on,,,,,90,0,2,,,,,,0,56,0
15810,note_on,,,,,0,0,2,,,,,,0,53,0
15810,note_on,,,,,0,0,1,,,,,,0,62,0
15835,control_change,,,,,25,0,1,,,,64,0,0,,
15840,set_tempo,,,,,360,1,0,,540540,,,,,,
15840,note_on,,,,,0,0,1,,,,,,0,58,47
15840,note_on,,,,,0,0,1,,,,,,0,70,47
15840,note_on,,,,,0,0,2,,,,,,0,55,45
15840,note_on,,,,,30,0,2,,,,,,0,51,45
15840,note_on,,,,,5,0,1,,,,,,0,63,57
15840,control_change,,,,,0,0,1,,,,64,97,0,,
15860,set_tempo,,,,,20,1,0,,555555,,,,,,
15870,set_tempo,,,,,10,1,0,,566037,,,,,,
15890,set_tempo,,,,,20,1,0,,571428,,,,,,
15900,note_on,,,,,0,0,1,,,,,,0,70,42
15900,note_on,,,,,0,0,2,,,,,,0,56,41
15900,note_on,,,,,60,0,1,,,,,,0,58,0
15900,note_on,,,,,0,0,1,,,,,,0,70,0
15900,note_on,,,,,0,0,1,,,,,,0,63,0
15900,note_on,,,,,0,0,1,,,,,,0,62,54
15900,note_on,,,,,0,0,2,,,,,,0,53,41
15900,note_on,,,,,0,0,2,,,,,,0,51,0
15900,note_on,,,,,0,0,1,,,,,,0,58,42
15900,set_tempo,,,,,10,1,0,,576923,,,,,,
15900,note_on,,,,,60,0,2,,,,,,0,55,0
15910,set_tempo,,,,,10,1,0,,582524,,,,,,
15960,note_on,,,,,0,0,1,,,,,,0,58,39
15960,note_on,,,,,60,0,1,,,,,,0,58,0
15960,note_on,,,,,0,0,1,,,,,,0,70,39
15960,note_on,,,,,0,0,1,,,,,,0,63,51
15960,note_on,,,,,0,0,1,,,,,,0,62,0
15960,note_on,,,,,60,0,2,,,,,,0,56,0
15960,note_on,,,,,0,0,2,,,,,,0,53,0
15960,note_on,,,,,0,0,2,,,,,,0,51,37
15960,note_on,,,,,0,0,2,,,,,,0,55,37
15960,note_on,,,,,0,0,1,,,,,,0,70,0
15965,control_change,,,,,5,0,1,,,,64,0,0,,
15970,set_tempo,,,,,60,1,0,,588235,,,,,,
15980,set_tempo,,,,,10,1,0,,600000,,,,,,
16000,set_tempo,,,,,20,1,0,,606060,,,,,,
16020,note_on,,,,,60,0,2,,,,,,0,55,0
16020,note_on,,,,,0,0,2,,,,,,0,51,0
16020,note_on,,,,,0,0,2,,,,,,0,50,33
16020,note_on,,,,,0,0,2,,,,,,0,56,33
16020,set_tempo,,,,,20,1,0,,612244,,,,,,
16020,note_on,,,,,0,0,1,,,,,,0,65,47
16020,note_on,,,,,55,0,1,,,,,,0,58,0
16020,note_on,,,,,0,0,1,,,,,,0,70,0
16020,note_on,,,,,0,0,1,,,,,,0,63,0
16020,note_on,,,,,0,0,1,,,,,,0,70,35
16020,note_on,,,,,0,0,1,,,,,,0,58,35
16050,set_tempo,,,,,30,1,0,,618556,,,,,,
16060,set_tempo,,,,,10,1,0,,625000,,,,,,
16080,note_on,,,,,60,0,1,,,,,,0,58,0
16080,note_on,,,,,0,0,1,,,,,,0,65,0
16080,note_on,,,,,0,0,1,,,,,,0,67,48
16080,note_on,,,,,0,0,1,,,,,,0,70,32
16080,note_on,,,,,60,0,2,,,,,,0,56,0
16080,note_on,,,,,0,0,2,,,,,,0,50,0
16080,note_on,,,,,0,0,2,,,,,,0,51,31
16080,note_on,,,,,0,0,2,,,,,,0,55,31
16080,note_on,,,,,0,0,1,,,,,,0,70,0
16080,note_on,,,,,0,0,1,,,,,,0,58,32
16170,note_on,,,,,90,0,1,,,,,,0,58,0
16170,note_on,,,,,0,0,1,,,,,,0,70,0
16170,note_on,,,,,0,0,1,,,,,,0,67,0
16170,note_on,,,,,90,0,2,,,,,,0,55,0
16170,note_on,,,,,0,0,2,,,,,,0,51,0
16200,note_on,,,,,30,0,2,,,,,,0,61,58
16200,note_on,,,,,0,0,2,,,,,,0,51,58
16200,control_change,,,,,0,0,1,,,,64,96,0,,
16200,note_on,,,,,30,0,1,,,,,,0,70,57
16210,set_tempo,,,,,150,1,0,,625000,,,,,,
16320,note_on,,,,,120,0,1,,,,,,0,75,44
16410,note_on,,,,,90,0,1,,,,,,0,75,0
16440,note_on,,,,,240,0,2,,,,,,0,51,0
16440,note_on,,,,,0,0,2,,,,,,0,61,0
16440,note_on,,,,,0,0,2,,,,,,0,51,44
16440,note_on,,,,,0,0,1,,,,,,0,58,44
16440,note_on,,,,,0,0,1,,,,,,0,75,44
16440,note_on,,,,,0,0,1,,,,,,0,67,48
16440,note_on,,,,,30,0,1,,,,,,0,70,0
16445,control_change,,,,,5,0,1,,,,64,0,0,,
16530,note_on,,,,,0,0,1,,,,,,0,67,0
16530,note_on,,,,,0,0,1,,,,,,0,75,0
16530,note_on,,,,,85,0,1,,,,,,0,58,0
16530,note_on,,,,,90,0,2,,,,,,0,51,0
16550,set_tempo,,,,,340,1,0,,555555,,,,,,
16560,note_on,,,,,0,0,1,,,,,,0,70,58
16560,note_on,,,,,30,0,2,,,,,,0,61,47
16560,note_on,,,,,30,0,1,,,,,,0,75,47
16560,control_change,,,,,0,0,1,,,,64,94,0,,
16560,note_on,,,,,0,0,2,,,,,,0,51,47
16608,note_on,,,,,48,0,2,,,,,,0,51,0
16608,note_on,,,,,0,0,2,,,,,,0,61,0
16608,note_on,,,,,48,0,1,,,,,,0,75,0
16620,note_on,,,,,0,0,1,,,,,,0,75,44
16620,note_on,,,,,0,0,1,,,,,,0,68,55
16620,note_on,,,,,12,0,2,,,,,,0,60,44
16620,set_tempo,,,,,70,1,0,,560747,,,,,,
16620,note_on,,,,,12,0,1,,,,,,0,70,0
16620,note_on,,,,,0,0,2,,,,,,0,51,44
16630,set_tempo,,,,,10,1,0,,566037,,,,,,
16650,set_tempo,,,,,20,1,0,,571428,,,,,,
16668,note_on,,,,,48,0,1,,,,,,0,75,0
16668,note_on,,,,,0,0,2,,,,,,0,60,0
16668,note_on,,,,,48,0,2,,,,,,0,51,0
16675,control_change,,,,,7,0,1,,,,64,0,0,,
16680,note_on,,,,,0,0,1,,,,,,0,67,48
16680,note_on,,,,,12,0,2,,,,,,0,58,41
16680,note_on,,,,,0,0,2,,,,,,0,51,41
16680,note_on,,,,,5,0,1,,,,,,0,68,0
16680,note_on,,,,,0,0,1,,,,,,0,75,41
16680,set_tempo,,,,,30,1,0,,576923,,,,,,
16680,control_change,,,,,0,0,1,,,,64,95,0,,
16700,set_tempo,,,,,20,1,0,,582524,,,,,,
16720,set_tempo,,,,,20,1,0,,594059,,,,,,
16728,note_on,,,,,48,0,1,,,,,,0,75,0
16728,note_on,,,,,0,0,2,,,,,,0,58,0
16728,note_on,,,,,48,0,2,,,,,,0,51,0
16740,note_on,,,,,0,0,2,,,,,,0,51,41
16740,note_on,,,,,0,0,1,,,,,,0,65,53
16740,set_tempo,,,,,20,1,0,,600000,,,,,,
16740,note_on,,,,,12,0,1,,,,,,0,67,0
16740,note_on,,,,,0,0,1,,,,,,0,75,41
16740,note_on,,,,,12,0,2,,,,,,0,56,41
16750,set_tempo,,,,,10,1,0,,606060,,,,,,
16770,set_tempo,,,,,20,1,0,,612244,,,,,,
16788,note_on,,,,,48,0,1,,,,,,0,75,0
16788,note_on,,,,,48,0,2,,,,,,0,51,0
16788,note_on,,,,,0,0,2,,,,,,0,56,0
16800,note_on,,,,,12,0,2,,,,,,0,55,42
16800,note_on,,,,,0,0,1,,,,,,0,63,54
16800,note_on,,,,,0,0,1,,,,,,0,75,42
16800,note_on,,,,,12,0,1,,,,,,0,65,0
16800,note_on,,,,,0,0,2,,,,,,0,51,42
16848,note_on,,,,,48,0,2,,,,,,0,51,0
16848,note_on,,,,,48,0,1,,,,,,0,75,0
16848,note_on,,,,,0,0,2,,,,,,0,55,0
16850,set_tempo,,,,,80,1,0,,625000,,,,,,
16860,note_on,,,,,0,0,1,,,,,,0,75,44
16860,note_on,,,,,12,0,2,,,,,,0,51,44
16860,note_on,,,,,0,0,1,,,,,,0,65,56
16860,note_on,,,,,0,0,2,,,,,,0,56,44
16860,note_on,,,,,12,0,1,,,,,,0,63,0
16870,set_tempo,,,,,20,1,0,,631578,,,,,,
16880,set_tempo,,,,,10,1,0,,638297,,,,,,
16905,note_on,,,,,45,0,2,,,,,,0,56,0
16905,note_on,,,,,0,0,2,,,,,,0,51,0
16905,note_on,,,,,45,0,1,,,,,,0,65,0
16905,note_on,,,,,0,0,1,,,,,,0,75,0
16915,control_change,,,,,10,0,1,,,,64,0,0,,
16920,note_on,,,,,0,0,1,,,,,,0,75,41
16920,note_on,,,,,15,0,2,,,,,,0,58,48
16920,note_on,,,,,0,0,2,,,,,,0,51,48
16920,set_tempo,,,,,40,1,0,,645161,,,,,,
16920,note_on,,,,,5,0,1,,,,,,0,67,54
16987,note_on,,,,,67,0,2,,,,,,0,51,0
16987,note_on,,,,,0,0,1,,,,,,0,67,0
16987,note_on,,,,,67,0,1,,,,,,0,75,0
16987,note_on,,,,,0,0,2,,,,,,0,58,0
17040,note_on,,,,,0,0,1,,,,,,0,68,37
17040,control_change,,,,,0,0,1,,,,64,96,0,,
17040,note_on,,,,,53,0,1,,,,,,0,65,37
17040,note_on,,,,,0,0,2,,,,,,0,61,39
17040,note_on,,,,,53,0,2,,,,,,0,49,39
17140,set_tempo,,,,,220,1,0,,638297,,,,,,
17220,note_on,,,,,0,0,1,,,,,,0,65,0
17220,note_on,,,,,180,0,1,,,,,,0,68,0
17220,note_on,,,,,0,0,2,,,,,,0,49,32
17220,note_on,,,,,0,0,2,,,,,,0,56,32
17220,note_on,,,,,0,0,2,,,,,,0,49,0
17220,note_on,,,,,0,0,1,,,,,,0,65,32
17220,note_on,,,,,180,0,2,,,,,,0,61,0
17270,control_change,,,,,50,0,1,,,,64,0,0,,
17280,note_on,,,,,0,0,2,,,,,,0,49,37
17280,note_on,,,,,60,0,2,,,,,,0,49,0
17280,note_on,,,,,10,0,1,,,,,,0,65,0
17280,control_change,,,,,0,0,1,,,,64,94,0,,
17280,note_on,,,,,0,0,1,,,,,,0,68,42
17280,note_on,,,,,0,0,2,,,,,,0,59,37
17280,note_on,,,,,0,0,2,,,,,,0,56,0
17300,set_tempo,,,,,160,1,0,,645161,,,,,,
17310,set_tempo,,,,,10,1,0,,652173,,,,,,
17320,set_tempo,,,,,10,1,0,,659340,,,,,,
17328,note_on,,,,,0,0,2,,,,,,0,59,0
17328,note_on,,,,,48,0,2,,,,,,0,49,0
17330,set_tempo,,,,,10,1,0,,666666,,,,,,
17340,note_on,,,,,0,0,2,,,,,,0,49,36
17340,note_on,,,,,0,0,1,,,,,,0,66,41
17340,note_on,,,,,60,0,1,,,,,,0,68,0
17340,set_tempo,,,,,10,1,0,,674157,,,,,,
17340,note_on,,,,,12,0,2,,,,,,0,58,36
17360,set_tempo,,,,,20,1,0,,681818,,,,,,
17380,set_tempo,,,,,20,1,0,,689655,,,,,,
17388,note_on,,,,,48,0,2,,,,,,0,49,0
17388,note_on,,,,,0,0,2,,,,,,0,58,0
17395,control_change,,,,,55,0,1,,,,64,0,0,,
17400,note_on,,,,,12,0,2,,,,,,0,56,33
17400,note_on,,,,,0,0,2,,,,,,0,49,33
17400,note_on,,,,,0,0,1,,,,,,0,65,35
17400,note_on,,,,,5,0,1,,,,,,0,66,0
17400,note_on,,,,,0,0,1,,,,,,0,73,35
17400,control_change,,,,,0,0,1,,,,64,94,0,,
17410,set_tempo,,,,,30,1,0,,697674,,,,,,
17430,set_tempo,,,,,20,1,0,,705882,,,,,,
17448,note_on,,,,,0,0,2,,,,,,0,56,0
17448,note_on,,,,,48,0,2,,,,,,0,49,0
17457,note_on,,,,,57,0,1,,,,,,0,73,0
17460,note_on,,,,,0,0,1,,,,,,0,63,34
17460,note_on,,,,,0,0,2,,,,,,0,49,31
17460,note_on,,,,,12,0,2,,,,,,0,54,31
17460,note_on,,,,,0,0,1,,,,,,0,73,34
17460,note_on,,,,,3,0,1,,,,,,0,65,0
17490,set_tempo,,,,,60,1,0,,714285,,,,,,
17500,set_tempo,,,,,10,1,0,,722891,,,,,,
17508,note_on,,,,,0,0,2,,,,,,0,54,0
17508,note_on,,,,,48,0,2,,,,,,0,49,0
17508,note_on,,,,,48,0,1,,,,,,0,73,0
17520,note_on,,,,,12,0,1,,,,,,0,63,0
17520,note_on,,,,,0,0,1,,,,,,0,73,37
17520,note_on,,,,,12,0,2,,,,,,0,53,30
17520,note_on,,,,,0,0,2,,,,,,0,49,30
17520,note_on,,,,,0,0,1,,,,,,0,61,37
17530,set_tempo,,,,,30,1,0,,731707,,,,,,
17568,note_on,,,,,48,0,1,,,,,,0,73,0
17568,note_on,,,,,0,0,2,,,,,,0,53,0
17568,note_on,,,,,48,0,2,,,,,,0,49,0
17580,note_on,,,,,12,0,1,,,,,,0,61,0
17580,note_on,,,,,0,0,1,,,,,,0,63,34
17580,note_on,,,,,0,0,2,,,,,,0,54,30
17580,note_on,,,,,12,0,2,,,,,,0,49,30
17580,note_on,,,,,0,0,1,,,,,,0,73,34
17590,set_tempo,,,,,60,1,0,,740740,,,,,,
17625,note_on,,,,,0,0,2,,,,,,0,49,0
17625,note_on,,,,,45,0,1,,,,,,0,63,0
17625,note_on,,,,,0,0,1,,,,,,0,73,0
17625,note_on,,,,,45,0,2,,,,,,0,54,0
17630,control_change,,,,,5,0,1,,,,64,0,0,,
17640,note_on,,,,,10,0,1,,,,,,0,73,31
17640,note_on,,,,,0,0,1,,,,,,0,65,31
17640,note_on,,,,,15,0,2,,,,,,0,56,30
17640,note_on,,,,,0,0,2,,,,,,0,49,30
17680,set_tempo,,,,,90,1,0,,731707,,,,,,
17690,set_tempo,,,,,10,1,0,,722891,,,,,,
17707,note_on,,,,,67,0,1,,,,,,0,65,0
17707,note_on,,,,,0,0,1,,,,,,0,73,0
17707,note_on,,,,,67,0,2,,,,,,0,49,0
17707,note_on,,,,,0,0,2,,,,,,0,56,0
17720,set_tempo,,,,,30,1,0,,714285,,,,,,
17730,set_tempo,,,,,10,1,0,,689655,,,,,,
17740,set_tempo,,,,,10,1,0,,674157,,,,,,
17750,set_tempo,,,,,10,1,0,,666666,,,,,,
17760,set_tempo,,,,,10,1,0,,659340,,,,,,
17760,note_on,,,,,0,0,2,,,,,,0,56,39
17760,note_on,,,,,0,0,2,,,,,,0,46,39
17760,note_on,,,,,0,0,2,,,,,,0,65,39
17760,note_on,,,,,53,0,2,,,,,,0,62,39
17760,control_change,,,,,53,0,1,,,,64,95,0,,
17770,set_tempo,,,,,10,1,0,,645161,,,,,,
17880,note_on,,,,,120,0,1,,,,,,0,70,48
17980,control_change,,,,,100,0,1,,,,64,0,0,,
18000,note_on,,,,,0,0,2,,,,,,0,46,0
18000,control_change,,,,,20,0,1,,,,64,95,0,,
18000,set_tempo,,,,,230,1,0,,645161,,,,,,
18000,note_on,,,,,0,0,2,,,,,,0,65,40
18000,note_on,,,,,0,0,2,,,,,,0,62,40
18000,note_on,,,,,0,0,2,,,,,,0,56,40
18000,note_on,,,,,0,0,2,,,,,,0,46,40
18000,note_on,,,,,240,0,2,,,,,,0,56,0
18000,note_on,,,,,0,0,2,,,,,,0,65,0
18000,note_on,,,,,0,0,2,,,,,,0,62,0
18060,set_tempo,,,,,60,1,0,,638297,,,,,,
18100,set_tempo,,,,,40,1,0,,625000,,,,,,
18110,control_change,,,,,110,0,1,,,,64,0,0,,
18120,note_on,,,,,120,0,2,,,,,,0,65,0
18120,note_on,,,,,0,0,2,,,,,,0,46,0
18120,note_on,,,,,0,0,2,,,,,,0,56,0
18120,note_on,,,,,0,0,2,,,,,,0,62,0
18120,control_change,,,,,10,0,1,,,,64,97,0,,
18120,note_on,,,,,0,0,2,,,,,,0,63,45
18120,note_on,,,,,0,0,2,,,,,,0,46,45
18120,note_on,,,,,0,0,2,,,,,,0,55,45
18120,note_on,,,,,0,0,2,,,,,,0,67,45
18140,set_tempo,,,,,40,1,0,,618556,,,,,,
18175,note_on,,,,,0,0,2,,,,,,0,67,0
18175,note_on,,,,,0,0,2,,,,,,0,63,0
18175,note_on,,,,,0,0,2,,,,,,0,55,0
18175,note_on,,,,,55,0,2,,,,,,0,46,0
18180,note_on,,,,,0,0,2,,,,,,0,53,49
18180,note_on,,,,,0,0,2,,,,,,0,62,49
18180,note_on,,,,,5,0,2,,,,,,0,68,49
18180,note_on,,,,,0,0,2,,,,,,0,46,49
18220,set_tempo,,,,,80,1,0,,612244,,,,,,
18235,note_on,,,,,0,0,2,,,,,,0,68,0
18235,note_on,,,,,0,0,2,,,,,,0,62,0
18235,note_on,,,,,0,0,2,,,,,,0,53,0
18235,note_on,,,,,55,0,2,,,,,,0,46,0
18235,control_change,,,,,115,0,1,,,,64,0,0,,
18240,control_change,,,,,5,0,1,,,,64,94,0,,
18240,note_on,,,,,0,0,2,,,,,,0,46,53
18240,note_on,,,,,0,0,2,,,,,,0,55,53
18240,note_on,,,,,0,0,2,,,,,,0,63,53
18240,note_on,,,,,5,0,2,,,,,,0,67,53
18295,note_on,,,,,0,0,2,,,,,,0,55,0
18295,note_on,,,,,0,0,2,,,,,,0,63,0
18295,note_on,,,,,0,0,2,,,,,,0,67,0
18295,note_on,,,,,55,0,2,,,,,,0,46,0
18300,note_on,,,,,0,0,2,,,,,,0,46,59
18300,note_on,,,,,0,0,2,,,,,,0,56,59
18300,note_on,,,,,0,0,2,,,,,,0,62,59
18300,note_on,,,,,5,0,2,,,,,,0,65,59
18340,set_tempo,,,,,120,1,0,,606060,,,,,,
18350,control_change,,,,,110,0,1,,,,64,0,0,,
18355,note_on,,,,,0,0,2,,,,,,0,56,0
18355,note_on,,,,,0,0,2,,,,,,0,62,0
18355,note_on,,,,,0,0,2,,,,,,0,65,0
18355,note_on,,,,,55,0,2,,,,,,0,46,0
18360,control_change,,,,,10,0,1,,,,64,94,0,,
18360,note_on,,,,,0,0,2,,,,,,0,67,63
18360,note_on,,,,,0,0,2,,,,,,0,55,63
18360,note_on,,,,,5,0,2,,,,,,0,46,63
18360,note_on,,,,,0,0,2,,,,,,0,63,63
18370,set_tempo,,,,,30,1,0,,612244,,,,,,
18475,control_change,,,,,115,0,1,,,,64,0,0,,
18480,control_change,,,,,0,0,1,,,,64,95,0,,
18480,note_on,,,,,0,0,1,,,,,,0,72,40
18480,note_on,,,,,5,0,1,,,,,,0,70,0
18480,note_on,,,,,0,0,2,,,,,,0,46,41
18480,note_on,,,,,120,0,2,,,,,,0,67,0
18480,note_on,,,,,0,0,2,,,,,,0,46,0
18480,note_on,,,,,0,0,2,,,,,,0,55,0
18480,note_on,,,,,0,0,2,,,,,,0,63,41
18480,note_on,,,,,0,0,2,,,,,,0,60,41
18480,note_on,,,,,0,0,2,,,,,,0,56,41
18480,note_on,,,,,0,0,2,,,,,,0,63,0
18530,set_tempo,,,,,160,1,0,,618556,,,,,,
18580,set_tempo,,,,,50,1,0,,631578,,,,,,
18600,note_on,,,,,0,0,2,,,,,,0,46,32
18600,note_on,,,,,0,0,2,,,,,,0,56,0
18600,note_on,,,,,0,0,2,,,,,,0,60,0
18600,note_on,,,,,0,0,2,,,,,,0,62,32
18600,note_on,,,,,120,0,2,,,,,,0,46,0
18600,note_on,,,,,120,0,1,,,,,,0,72,0
18600,note_on,,,,,0,0,1,,,,,,0,68,33
18600,note_on,,,,,0,0,2,,,,,,0,63,0
18600,note_on,,,,,0,0,2,,,,,,0,58,32
18705,control_change,,,,,105,0,1,,,,64,0,0,,
18720,note_on,,,,,0,0,2,,,,,,0,51,29
18720,note_on,,,,,0,0,2,,,,,,0,58,0
18720,control_change,,,,,0,0,1,,,,64,95,0,,
18720,note_on,,,,,0,0,1,,,,,,0,67,31
18720,note_on,,,,,0,0,1,,,,,,0,63,31
18720,note_on,,,,,15,0,1,,,,,,0,68,0
18720,note_on,,,,,120,0,2,,,,,,0,62,0
18720,note_on,,,,,0,0,2,,,,,,0,46,0
18720,note_on,,,,,0,0,2,,,,,,0,58,29
18830,set_tempo,,,,,250,1,0,,638297,,,,,,
18870,control_change,,,,,0,0,1,,,,64,0,0,,
18870,note_on,,,,,0,0,1,,,,,,0,63,0
18870,note_on,,,,,150,0,1,,,,,,0,67,0
18870,note_on,,,,,150,0,2,,,,,,0,58,0
18870,note_on,,,,,0,0,2,,,,,,0,51,0
18900,control_change,,,,,0,0,1,,,,64,95,0,,
18900,note_on,,,,,0,0,1,,,,,,0,68,38
18900,note_on,,,,,30,0,1,,,,,,0,80,38
18900,note_on,,,,,30,0,2,,,,,,0,46,38
18900,set_tempo,,,,,70,1,0,,689655,,,,,,
18900,note_on,,,,,0,0,2,,,,,,0,56,38
18900,note_on,,,,,0,0,2,,,,,,0,58,38
18945,note_on,,,,,0,0,2,,,,,,0,46,0
18945,note_on,,,,,0,0,1,,,,,,0,80,0
18945,note_on,,,,,45,0,1,,,,,,0,68,0
18945,note_on,,,,,45,0,2,,,,,,0,58,0
18945,note_on,,,,,0,0,2,,,,,,0,56,0
18960,note_on,,,,,0,0,1,,,,,,0,67,43
18960,note_on,,,,,15,0,1,,,,,,0,79,43
18960,note_on,,,,,15,0,2,,,,,,0,48,43
18960,set_tempo,,,,,60,1,0,,689655,,,,,,
18960,note_on,,,,,0,0,2,,,,,,0,56,43
18960,note_on,,,,,0,0,2,,,,,,0,58,43
18970,set_tempo,,,,,10,1,0,,714285,,,,,,
19005,note_on,,,,,0,0,2,,,,,,0,56,0
19005,note_on,,,,,45,0,2,,,,,,0,58,0
19005,note_on,,,,,0,0,2,,,,,,0,48,0
19005,note_on,,,,,45,0,1,,,,,,0,67,0
19005,note_on,,,,,0,0,1,,,,,,0,79,0
19010,set_tempo,,,,,40,1,0,,923076,,,,,,
19020,note_on,,,,,15,0,2,,,,,,0,50,47
19020,note_on,,,,,0,0,2,,,,,,0,56,47
19020,note_on,,,,,0,0,2,,,,,,0,58,47
19020,note_on,,,,,0,0,1,,,,,,0,77,47
19020,note_on,,,,,15,0,1,,,,,,0,65,47
19062,control_change,,,,,42,0,1,,,,64,0,0,,
19080,note_on,,,,,0,0,1,,,,,,0,63,50
19080,note_on,,,,,0,0,1,,,,,,0,75,50
19080,note_on,,,,,0,0,1,,,,,,0,65,0
19080,note_on,,,,,18,0,1,,,,,,0,77,0
19080,note_on,,,,,0,0,2,,,,,,0,50,0
19080,note_on,,,,,0,0,2,,,,,,0,55,44
19080,set_tempo,,,,,70,1,0,,638297,,,,,,
19080,control_change,,,,,0,0,1,,,,64,95,0,,
19080,note_on,,,,,0,0,2,,,,,,0,56,0
19080,note_on,,,,,60,0,2,,,,,,0,58,0
19090,set_tempo,,,,,10,1,0,,731707,,,,,,
19110,set_tempo,,,,,20,1,0,,714285,,,,,,
19120,set_tempo,,,,,10,1,0,,705882,,,,,,
19120,note_on,,,,,0,0,2,,,,,,0,58,41
19120,note_on,,,,,40,0,2,,,,,,0,55,0
19147,control_change,,,,,67,0,1,,,,64,0,0,,
19149,note_on,,,,,29,0,2,,,,,,0,58,0
19150,set_tempo,,,,,30,1,0,,689655,,,,,,
19160,control_change,,,,,13,0,1,,,,64,95,0,,
19160,note_on,,,,,11,0,2,,,,,,0,58,44
19170,set_tempo,,,,,20,1,0,,674157,,,,,,
19180,set_tempo,,,,,10,1,0,,666666,,,,,,
19200,note_on,,,,,0,0,2,,,,,,0,60,46
19200,note_on,,,,,40,0,2,,,,,,0,58,0
19200,set_tempo,,,,,20,1,0,,652173,,,,,,
19230,set_tempo,,,,,30,1,0,,645161,,,,,,
19240,note_on,,,,,40,0,2,,,,,,0,60,0
19240,note_on,,,,,0,0,2,,,,,,0,58,40
19240,set_tempo,,,,,10,1,0,,631578,,,,,,
19267,control_change,,,,,107,0,1,,,,64,0,0,,
19269,note_on,,,,,29,0,2,,,,,,0,58,0
19280,note_on,,,,,11,0,2,,,,,,0,58,45
19285,control_change,,,,,18,0,1,,,,64,95,0,,
19300,set_tempo,,,,,60,1,0,,625000,,,,,,
19310,set_tempo,,,,,10,1,0,,618556,,,,,,
19319,note_on,,,,,0,0,2,,,,,,0,56,44
19319,note_on,,,,,39,0,2,,,,,,0,53,44
19320,note_on,,,,,35,0,1,,,,,,0,63,0
19320,note_on,,,,,1,0,2,,,,,,0,58,0
19320,note_on,,,,,0,0,1,,,,,,0,62,44
19320,note_on,,,,,0,0,1,,,,,,0,74,44
19320,note_on,,,,,0,0,1,,,,,,0,75,0
19330,set_tempo,,,,,20,1,0,,612244,,,,,,
19348,note_on,,,,,28,0,2,,,,,,0,56,0
19348,note_on,,,,,0,0,2,,,,,,0,53,0
19359,note_on,,,,,11,0,2,,,,,,0,58,40
19360,set_tempo,,,,,30,1,0,,606060,,,,,,
19387,control_change,,,,,67,0,1,,,,64,0,0,,
19388,note_on,,,,,29,0,2,,,,,,0,58,0
19399,note_on,,,,,11,0,2,,,,,,0,58,34
19400,control_change,,,,,13,0,1,,,,64,95,0,,
19420,set_tempo,,,,,60,1,0,,600000,,,,,,
19439,note_on,,,,,40,0,2,,,,,,0,58,0
19440,note_on,,,,,0,0,1,,,,,,0,63,47
19440,note_on,,,,,0,0,1,,,,,,0,62,0
19440,note_on,,,,,0,0,1,,,,,,0,75,47
19440,note_on,,,,,40,0,1,,,,,,0,74,0
19440,note_on,,,,,1,0,2,,,,,,0,55,44
19460,set_tempo,,,,,40,1,0,,594059,,,,,,
19480,note_on,,,,,40,0,2,,,,,,0,55,0
19480,note_on,,,,,0,0,2,,,,,,0,58,41
19500,note_on,,,,,0,0,1,,,,,,0,75,0
19500,note_on,,,,,0,0,1,,,,,,0,74,42
19500,note_on,,,,,0,0,1,,,,,,0,62,42
19500,note_on,,,,,60,0,1,,,,,,0,63,0
19507,control_change,,,,,7,0,1,,,,64,0,0,,
19509,note_on,,,,,29,0,2,,,,,,0,58,0
19520,control_change,,,,,13,0,1,,,,64,95,0,,
19520,note_on,,,,,11,0,2,,,,,,0,58,44
19540,set_tempo,,,,,80,1,0,,588235,,,,,,
19560,note_on,,,,,40,0,2,,,,,,0,58,0
19560,note_on,,,,,0,0,2,,,,,,0,57,46
19560,note_on,,,,,0,0,1,,,,,,0,74,0
19560,note_on,,,,,40,0,1,,,,,,0,62,0
19560,note_on,,,,,0,0,1,,,,,,0,63,39
19560,note_on,,,,,0,0,1,,,,,,0,75,39
19600,note_on,,,,,40,0,2,,,,,,0,57,0
19600,note_on,,,,,0,0,2,,,,,,0,58,40
19600,set_tempo,,,,,60,1,0,,582524,,,,,,
19620,note_on,,,,,0,0,1,,,,,,0,65,35
19620,note_on,,,,,60,0,1,,,,,,0,63,0
19620,note_on,,,,,0,0,1,,,,,,0,75,0
19620,set_tempo,,,,,20,1,0,,612244,,,,,,
19620,note_on,,,,,0,0,1,,,,,,0,77,35
19627,control_change,,,,,7,0,1,,,,64,0,0,,
19629,note_on,,,,,29,0,2,,,,,,0,58,0
19640,note_on,,,,,11,0,2,,,,,,0,56,41
19640,note_on,,,,,0,0,2,,,,,,0,53,41
19640,control_change,,,,,13,0,1,,,,64,95,0,,
19650,set_tempo,,,,,30,1,0,,618556,,,,,,
19660,set_tempo,,,,,10,1,0,,625000,,,,,,
19680,note_on,,,,,0,0,2,,,,,,0,56,0
19680,note_on,,,,,0,0,1,,,,,,0,79,32
19680,note_on,,,,,0,0,1,,,,,,0,67,32
19680,note_on,,,,,40,0,2,,,,,,0,53,0
19680,note_on,,,,,0,0,1,,,,,,0,77,0
19680,note_on,,,,,40,0,1,,,,,,0,65,0
19680,note_on,,,,,0,0,2,,,,,,0,55,49
19680,note_on,,,,,0,0,2,,,,,,0,51,49
19709,note_on,,,,,0,0,2,,,,,,0,55,0
19709,note_on,,,,,29,0,2,,,,,,0,51,0
19719,note_on,,,,,10,0,2,,,,,,0,58,38
19747,control_change,,,,,67,0,1,,,,64,0,0,,
19748,note_on,,,,,29,0,2,,,,,,0,58,0
19759,note_on,,,,,11,0,2,,,,,,0,59,34
19760,control_change,,,,,13,0,1,,,,64,96,0,,
19770,note_on,,,,,0,0,1,,,,,,0,79,0
19770,note_on,,,,,10,0,1,,,,,,0,67,0
19799,note_on,,,,,40,0,2,,,,,,0,59,0
19800,note_on,,,,,1,0,2,,,,,,0,60,44
19800,note_on,,,,,0,0,1,,,,,,0,68,50
19800,note_on,,,,,30,0,1,,,,,,0,80,50
19810,set_tempo,,,,,150,1,0,,625000,,,,,,
19840,note_on,,,,,0,0,2,,,,,,0,51,41
19840,note_on,,,,,40,0,2,,,,,,0,60,0
19867,control_change,,,,,67,0,1,,,,64,0,0,,
19869,note_on,,,,,29,0,2,,,,,,0,51,0
19880,note_on,,,,,11,0,2,,,,,,0,51,44
19880,control_change,,,,,13,0,1,,,,64,96,0,,
19920,note_on,,,,,40,0,2,,,,,,0,51,0
19920,note_on,,,,,0,0,2,,,,,,0,48,46
19960,note_on,,,,,40,0,2,,,,,,0,48,0
19960,note_on,,,,,0,0,2,,,,,,0,51,40
19987,control_change,,,,,107,0,1,,,,64,0,0,,
19989,note_on,,,,,29,0,2,,,,,,0,51,0
20000,control_change,,,,,13,0,1,,,,64,96,0,,
20000,note_on,,,,,11,0,2,,,,,,0,51,45
20040,note_on,,,,,0,0,1,,,,,,0,79,44
20040,note_on,,,,,0,0,1,,,,,,0,67,44
20040,note_on,,,,,0,0,1,,,,,,0,80,0
20040,note_on,,,,,0,0,2,,,,,,0,46,48
20040,note_on,,,,,40,0,1,,,,,,0,68,0
20040,note_on,,,,,40,0,2,,,,,,0,51,0
20069,note_on,,,,,29,0,2,,,,,,0,46,0
20080,note_on,,,,,11,0,2,,,,,,0,51,40
20107,control_change,,,,,67,0,1,,,,64,0,0,,
20109,note_on,,,,,29,0,2,,,,,,0,51,0
20120,note_on,,,,,11,0,2,,,,,,0,51,34
20120,control_change,,,,,13,0,1,,,,64,96,0,,
20150,set_tempo,,,,,340,1,0,,606060,,,,,,
20150,note_on,,,,,30,0,1,,,,,,0,79,0
20150,note_on,,,,,0,0,1,,,,,,0,67,0
20160,note_on,,,,,10,0,1,,,,,,0,67,47
20160,note_on,,,,,0,0,2,,,,,,0,45,48
20160,note_on,,,,,0,0,1,,,,,,0,79,47
20160,note_on,,,,,40,0,2,,,,,,0,51,0
20180,set_tempo,,,,,30,1,0,,600000,,,,,,
20200,note_on,,,,,0,0,2,,,,,,0,53,41
20200,note_on,,,,,40,0,2,,,,,,0,45,0
20200,set_tempo,,,,,20,1,0,,594059,,,,,,
20220,note_on,,,,,60,0,1,,,,,,0,79,0
20220,note_on,,,,,0,0,1,,,,,,0,67,0
20220,note_on,,,,,0,0,1,,,,,,0,77,43
20220,note_on,,,,,0,0,1,,,,,,0,65,43
20227,control_change,,,,,7,0,1,,,,64,0,0,,
20229,note_on,,,,,29,0,2,,,,,,0,53,0
20230,set_tempo,,,,,30,1,0,,588235,,,,,,
20240,control_change,,,,,13,0,1,,,,64,95,0,,
20240,set_tempo,,,,,10,1,0,,582524,,,,,,
20240,note_on,,,,,11,0,2,,,,,,0,53,44
20270,set_tempo,,,,,30,1,0,,576923,,,,,,
20280,note_on,,,,,40,0,2,,,,,,0,53,0
20280,note_on,,,,,0,0,2,,,,,,0,46,46
20280,note_on,,,,,40,0,1,,,,,,0,77,0
20280,note_on,,,,,0,0,1,,,,,,0,65,0
20280,note_on,,,,,0,0,1,,,,,,0,63,42
20280,note_on,,,,,0,0,1,,,,,,0,75,42
20290,set_tempo,,,,,20,1,0,,571428,,,,,,
20320,note_on,,,,,40,0,2,,,,,,0,46,0
20320,note_on,,,,,0,0,2,,,,,,0,53,40
20340,note_on,,,,,60,0,1,,,,,,0,75,0
20340,note_on,,,,,0,0,1,,,,,,0,63,0
20340,note_on,,,,,0,0,1,,,,,,0,62,46
20340,note_on,,,,,0,0,1,,,,,,0,74,46
20347,control_change,,,,,7,0,1,,,,64,0,0,,
20349,note_on,,,,,29,0,2,,,,,,0,53,0
20350,set_tempo,,,,,60,1,0,,576923,,,,,,
20360,control_change,,,,,13,0,1,,,,64,96,0,,
20360,note_on,,,,,11,0,2,,,,,,0,53,45
20380,set_tempo,,,,,30,1,0,,588235,,,,,,
20390,set_tempo,,,,,10,1,0,,606060,,,,,,
20400,note_on,,,,,0,0,1,,,,,,0,60,47
20400,note_on,,,,,0,0,1,,,,,,0,74,0
20400,note_on,,,,,40,0,1,,,,,,0,62,0
20400,note_on,,,,,40,0,2,,,,,,0,53,0
20400,note_on,,,,,0,0,2,,,,,,0,46,50
20400,note_on,,,,,0,0,1,,,,,,0,72,47
20410,set_tempo,,,,,20,1,0,,612244,,,,,,
20429,note_on,,,,,29,0,2,,,,,,0,46,0
20430,set_tempo,,,,,20,1,0,,631578,,,,,,
20440,note_on,,,,,11,0,2,,,,,,0,56,40
20450,set_tempo,,,,,20,1,0,,638297,,,,,,
20460,set_tempo,,,,,10,1,0,,645161,,,,,,
20460,note_on,,,,,60,0,1,,,,,,0,60,0
20460,note_on,,,,,0,0,1,,,,,,0,72,0
20460,note_on,,,,,0,0,1,,,,,,0,62,54
20460,note_on,,,,,0,0,1,,,,,,0,74,54
20467,control_change,,,,,7,0,1,,,,64,0,0,,
20469,note_on,,,,,29,0,2,,,,,,0,56,0
20470,set_tempo,,,,,10,1,0,,631578,,,,,,
20480,control_change,,,,,13,0,1,,,,64,95,0,,
20480,set_tempo,,,,,10,1,0,,625000,,,,,,
20480,note_on,,,,,11,0,2,,,,,,0,56,34
20500,set_tempo,,,,,20,1,0,,618556,,,,,,
20505,note_on,,,,,25,0,1,,,,,,0,62,0
20505,note_on,,,,,0,0,1,,,,,,0,74,0
20520,control_change,,,,,0,0,1,,,,64,95,0,,
20520,note_on,,,,,0,0,1,,,,,,0,63,55
20520,note_on,,,,,15,0,1,,,,,,0,75,55
20520,note_on,,,,,0,0,2,,,,,,0,55,49
20520,note_on,,,,,40,0,2,,,,,,0,56,0
20560,note_on,,,,,0,0,2,,,,,,0,58,41
20560,note_on,,,,,40,0,2,,,,,,0,55,0
20560,set_tempo,,,,,60,1,0,,612244,,,,,,
20570,set_tempo,,,,,10,1,0,,606060,,,,,,
20587,control_change,,,,,67,0,1,,,,64,0,0,,
20589,note_on,,,,,29,0,2,,,,,,0,58,0
20600,control_change,,,,,13,0,1,,,,64,95,0,,
20600,note_on,,,,,11,0,2,,,,,,0,58,44
20610,set_tempo,,,,,40,1,0,,600000,,,,,,
20620,set_tempo,,,,,10,1,0,,594059,,,,,,
20640,note_on,,,,,0,0,2,,,,,,0,60,46
20640,note_on,,,,,40,0,2,,,,,,0,58,0
20650,set_tempo,,,,,30,1,0,,582524,,,,,,
20680,note_on,,,,,0,0,2,,,,,,0,58,40
20680,note_on,,,,,40,0,2,,,,,,0,60,0
20690,set_tempo,,,,,40,1,0,,576923,,,,,,
20707,control_change,,,,,107,0,1,,,,64,0,0,,
20709,note_on,,,,,29,0,2,,,,,,0,58,0
20710,set_tempo,,,,,20,1,0,,571428,,,,,,
20720,note_on,,,,,11,0,2,,,,,,0,58,45
20725,control_change,,,,,18,0,1,,,,64,95,0,,
20740,set_tempo,,,,,30,1,0,,566037,,,,,,
20750,set_tempo,,,,,10,1,0,,560747,,,,,,
20759,note_on,,,,,39,0,2,,,,,,0,53,44
20759,note_on,,,,,0,0,2,,,,,,0,56,44
20760,note_on,,,,,1,0,2,,,,,,0,58,0
20760,note_on,,,,,35,0,1,,,,,,0,63,0
20760,note_on,,,,,0,0,1,,,,,,0,75,0
20760,note_on,,,,,0,0,1,,,,,,0,62,51
20760,note_on,,,,,0,0,1,,,,,,0,74,51
20788,note_on,,,,,0,0,2,,,,,,0,53,0
20788,note_on,,,,,28,0,2,,,,,,0,56,0
20799,note_on,,,,,11,0,2,,,,,,0,58,43
20827,control_change,,,,,67,0,1,,,,64,0,0,,
20828,note_on,,,,,29,0,2,,,,,,0,58,0
20839,note_on,,,,,11,0,2,,,,,,0,58,46
20840,control_change,,,,,13,0,1,,,,64,95,0,,
20879,note_on,,,,,40,0,2,,,,,,0,58,0
20880,note_on,,,,,0,0,1,,,,,,0,62,0
20880,note_on,,,,,1,0,2,,,,,,0,55,49
20880,note_on,,,,,40,0,1,,,,,,0,74,0
20880,note_on,,,,,0,0,1,,,,,,0,75,55
20880,note_on,,,,,0,0,1,,,,,,0,63,55
20920,note_on,,,,,40,0,2,,,,,,0,55,0
20920,note_on,,,,,0,0,2,,,,,,0,58,46
20940,note_on,,,,,60,0,1,,,,,,0,63,0
20940,note_on,,,,,0,0,1,,,,,,0,74,53
20940,note_on,,,,,0,0,1,,,,,,0,62,53
20940,note_on,,,,,0,0,1,,,,,,0,75,0
20947,control_change,,,,,7,0,1,,,,64,0,0,,
20949,note_on,,,,,29,0,2,,,,,,0,58,0
20960,control_change,,,,,13,0,1,,,,64,95,0,,
20960,note_on,,,,,11,0,2,,,,,,0,58,51
21000,note_on,,,,,0,0,1,,,,,,0,74,0
21000,note_on,,,,,0,0,2,,,,,,0,57,52
21000,note_on,,,,,40,0,2,,,,,,0,58,0
21000,note_on,,,,,0,0,1,,,,,,0,63,51
21000,note_on,,,,,0,0,1,,,,,,0,75,51
21000,note_on,,,,,40,0,1,,,,,,0,62,0
21040,note_on,,,,,0,0,2,,,,,,0,58,46
21040,note_on,,,,,40,0,2,,,,,,0,57,0
21060,note_on,,,,,0,0,1,,,,,,0,75,0
21060,note_on,,,,,0,0,1,,,,,,0,77,51
21060,note_on,,,,,0,0,1,,,,,,0,65,51
21060,set_tempo,,,,,310,1,0,,571428,,,,,,
21060,note_on,,,,,60,0,1,,,,,,0,63,0
21067,control_change,,,,,7,0,1,,,,64,0,0,,
21069,note_on,,,,,29,0,2,,,,,,0,58,0
21080,note_on,,,,,0,0,2,,,,,,0,56,49
21080,note_on,,,,,11,0,2,,,,,,0,53,49
21080,control_change,,,,,13,0,1,,,,64,95,0,,
21100,set_tempo,,,,,40,1,0,,576923,,,,,,
21120,note_on,,,,,0,0,2,,,,,,0,53,0
21120,note_on,,,,,40,0,2,,,,,,0,56,0
21120,note_on,,,,,0,0,1,,,,,,0,67,55
21120,note_on,,,,,0,0,1,,,,,,0,79,55
21120,note_on,,,,,0,0,1,,,,,,0,77,0
21120,note_on,,,,,0,0,2,,,,,,0,51,53
21120,note_on,,,,,0,0,2,,,,,,0,55,53
21120,note_on,,,,,40,0,1,,,,,,0,65,0
21130,set_tempo,,,,,30,1,0,,582524,,,,,,
21140,set_tempo,,,,,10,1,0,,588235,,,,,,
21149,note_on,,,,,0,0,2,,,,,,0,55,0
21149,note_on,,,,,29,0,2,,,,,,0,51,0
21159,note_on,,,,,10,0,2,,,,,,0,58,48
21160,set_tempo,,,,,20,1,0,,594059,,,,,,
21180,set_tempo,,,,,20,1,0,,600000,,,,,,
21187,control_change,,,,,67,0,1,,,,64,0,0,,
21188,note_on,,,,,29,0,2,,,,,,0,58,0
21190,set_tempo,,,,,10,1,0,,606060,,,,,,
21199,note_on,,,,,11,0,2,,,,,,0,60,45
21200,control_change,,,,,13,0,1,,,,64,96,0,,
21210,note_on,,,,,0,0,1,,,,,,0,79,0
21210,set_tempo,,,,,20,1,0,,645161,,,,,,
21210,note_on,,,,,10,0,1,,,,,,0,67,0
21220,set_tempo,,,,,10,1,0,,666666,,,,,,
21230,set_tempo,,,,,10,1,0,,689655,,,,,,
21239,note_on,,,,,40,0,2,,,,,,0,60,0
21240,note_on,,,,,1,0,2,,,,,,0,61,50
21240,set_tempo,,,,,10,1,0,,674157,,,,,,
21240,note_on,,,,,0,0,1,,,,,,0,82,70
21240,note_on,,,,,30,0,1,,,,,,0,70,70
21250,set_tempo,,,,,10,1,0,,645161,,,,,,
21260,set_tempo,,,,,10,1,0,,625000,,,,,,
21270,set_tempo,,,,,10,1,0,,618556,,,,,,
21280,note_on,,,,,0,0,2,,,,,,0,51,53
21280,note_on,,,,,40,0,2,,,,,,0,61,0
21290,set_tempo,,,,,20,1,0,,606060,,,,,,
21300,set_tempo,,,,,10,1,0,,600000,,,,,,
21307,control_change,,,,,67,0,1,,,,64,0,0,,
21309,note_on,,,,,29,0,2,,,,,,0,51,0
21310,set_tempo,,,,,10,1,0,,588235,,,,,,
21320,note_on,,,,,11,0,2,,,,,,0,51,53
21320,control_change,,,,,13,0,1,,,,64,96,0,,
21330,set_tempo,,,,,20,1,0,,582524,,,,,,
21340,set_tempo,,,,,10,1,0,,576923,,,,,,
21360,note_on,,,,,0,0,2,,,,,,0,49,55
21360,note_on,,,,,40,0,2,,,,,,0,51,0
21370,set_tempo,,,,,30,1,0,,571428,,,,,,
21380,set_tempo,,,,,10,1,0,,560747,,,,,,
21390,set_tempo,,,,,10,1,0,,555555,,,,,,
21400,note_on,,,,,40,0,2,,,,,,0,49,0
21400,note_on,,,,,0,0,2,,,,,,0,51,58
21420,set_tempo,,,,,30,1,0,,550458,,,,,,
21427,control_change,,,,,107,0,1,,,,64,0,0,,
21429,note_on,,,,,29,0,2,,,,,,0,51,0
21430,set_tempo,,,,,10,1,0,,545454,,,,,,
21440,note_on,,,,,11,0,2,,,,,,0,51,60
21440,control_change,,,,,13,0,1,,,,64,96,0,,
21470,set_tempo,,,,,40,1,0,,540540,,,,,,
21480,note_on,,,,,40,0,1,,,,,,0,82,0
21480,note_on,,,,,0,0,1,,,,,,0,70,0
21480,note_on,,,,,0,0,2,,,,,,0,47,62
21480,note_on,,,,,40,0,2,,,,,,0,51,0
21480,note_on,,,,,0,0,1,,,,,,0,79,56
21480,note_on,,,,,0,0,1,,,,,,0,67,56
21509,note_on,,,,,29,0,2,,,,,,0,47,0
21520,note_on,,,,,11,0,2,,,,,,0,51,65
21540,set_tempo,,,,,70,1,0,,535714,,,,,,
21547,control_change,,,,,67,0,1,,,,64,0,0,,
21549,note_on,,,,,29,0,2,,,,,,0,51,0
21560,note_on,,,,,11,0,2,,,,,,0,51,67
21560,control_change,,,,,13,0,1,,,,64,96,0,,
21600,note_on,,,,,0,0,2,,,,,,0,48,69
21600,note_on,,,,,0,0,1,,,,,,0,70,68
21600,note_on,,,,,0,0,1,,,,,,0,82,68
21600,note_on,,,,,0,0,1,,,,,,0,67,0
21600,note_on,,,,,40,0,1,,,,,,0,79,0
21600,note_on,,,,,40,0,2,,,,,,0,51,0
21620,set_tempo,,,,,80,1,0,,540540,,,,,,
21640,note_on,,,,,0,0,2,,,,,,0,51,66
21640,note_on,,,,,40,0,2,,,,,,0,48,0
21650,set_tempo,,,,,30,1,0,,545454,,,,,,
21660,set_tempo,,,,,10,1,0,,550458,,,,,,
21660,note_on,,,,,0,0,1,,,,,,0,80,58
21660,note_on,,,,,0,0,1,,,,,,0,68,58
21660,note_on,,,,,0,0,1,,,,,,0,70,0
21660,note_on,,,,,60,0,1,,,,,,0,82,0
21667,control_change,,,,,7,0,1,,,,64,0,0,,
21669,note_on,,,,,29,0,2,,,,,,0,51,0
21680,note_on,,,,,11,0,2,,,,,,0,51,61
21680,control_change,,,,,13,0,1,,,,64,95,0,,
21700,set_tempo,,,,,40,1,0,,555555,,,,,,
21720,note_on,,,,,0,0,1,,,,,,0,79,54
21720,note_on,,,,,0,0,1,,,,,,0,67,54
21720,note_on,,,,,40,0,1,,,,,,0,80,0
21720,note_on,,,,,0,0,1,,,,,,0,68,0
21720,note_on,,,,,40,0,2,,,,,,0,51,0
21720,note_on,,,,,0,0,2,,,,,,0,44,61
21721,set_tempo,,,,,21,1,0,,576923,,,,,,
21741,set_tempo,,,,,20,1,0,,582524,,,,,,
21760,note_on,,,,,40,0,2,,,,,,0,44,0
21760,note_on,,,,,0,0,2,,,,,,0,51,55
21761,set_tempo,,,,,20,1,0,,594059,,,,,,
21780,note_on,,,,,0,0,1,,,,,,0,77,51
21780,note_on,,,,,0,0,1,,,,,,0,65,51
21780,note_on,,,,,0,0,1,,,,,,0,67,0
21780,note_on,,,,,60,0,1,,,,,,0,79,0
21781,set_tempo,,,,,20,1,0,,600000,,,,,,
21787,control_change,,,,,7,0,1,,,,64,0,0,,
21789,note_on,,,,,29,0,2,,,,,,0,51,0
21791,set_tempo,,,,,10,1,0,,606060,,,,,,
21800,control_change,,,,,13,0,1,,,,64,96,0,,
21800,note_on,,,,,11,0,2,,,,,,0,51,53
21811,set_tempo,,,,,20,1,0,,612244,,,,,,
21840,note_on,,,,,40,0,2,,,,,,0,51,0
21840,note_on,,,,,0,0,2,,,,,,0,45,62
21840,note_on,,,,,40,0,1,,,,,,0,77,0
21840,note_on,,,,,0,0,1,,,,,,0,65,0
21840,note_on,,,,,0,0,1,,,,,,0,63,54
21840,note_on,,,,,0,0,1,,,,,,0,75,54
21869,note_on,,,,,29,0,2,,,,,,0,45,0
21880,note_on,,,,,11,0,2,,,,,,0,51,57
21891,set_tempo,,,,,80,1,0,,625000,,,,,,
21900,note_on,,,,,0,0,1,,,,,,0,77,55
21900,note_on,,,,,0,0,1,,,,,,0,65,55
21900,note_on,,,,,0,0,1,,,,,,0,63,0
21900,note_on,,,,,60,0,1,,,,,,0,75,0
21907,control_change,,,,,7,0,1,,,,64,0,0,,
21909,note_on,,,,,29,0,2,,,,,,0,51,0
21911,set_tempo,,,,,20,1,0,,631578,,,,,,
21920,control_change,,,,,13,0,1,,,,64,95,0,,
21920,note_on,,,,,11,0,2,,,,,,0,51,52
21921,set_tempo,,,,,10,1,0,,638297,,,,,,
21945,note_on,,,,,25,0,1,,,,,,0,77,0
21945,note_on,,,,,0,0,1,,,,,,0,65,0
21950,set_tempo,,,,,29,1,0,,645161,,,,,,
21960,note_on,,,,,40,0,2,,,,,,0,51,0
21960,note_on,,,,,15,0,1,,,,,,0,67,56
21960,note_on,,,,,0,0,1,,,,,,0,79,56
21960,note_on,,,,,0,0,2,,,,,,0,46,43
21980,set_tempo,,,,,30,1,0,,652173,,,,,,
21990,note_on,,,,,30,0,2,,,,,,0,46,0
22000,note_on,,,,,10,0,2,,,,,,0,51,43
22000,set_tempo,,,,,20,1,0,,659340,,,,,,
22020,control_change,,,,,60,0,1,,,,64,0,0,,
22020,set_tempo,,,,,20,1,0,,845070,,,,,,
22040,note_on,,,,,0,0,2,,,,,,0,39,40
22040,note_on,,,,,40,0,2,,,,,,0,51,0
22050,note_on,,,,,0,0,1,,,,,,0,67,0
22050,note_on,,,,,30,0,1,,,,,,0,79,0
22069,note_on,,,,,29,0,2,,,,,,0,39,0
22080,note_on,,,,,30,0,1,,,,,,0,68,46
22080,note_on,,,,,0,0,1,,,,,,0,80,46
22080,set_tempo,,,,,60,1,0,,625000,,,,,,
22080,note_on,,,,,11,0,2,,,,,,0,37,39
22110,set_tempo,,,,,30,1,0,,618556,,,,,,
22120,note_on,,,,,0,0,2,,,,,,0,44,36
22120,note_on,,,,,40,0,2,,,,,,0,37,0
22160,note_on,,,,,0,0,2,,,,,,0,53,31
22160,note_on,,,,,40,0,2,,,,,,0,44,0
22200,note_on,,,,,40,0,2,,,,,,0,53,0
22200,note_on,,,,,0,0,2,,,,,,0,37,40
22210,set_tempo,,,,,100,1,0,,612244,,,,,,
22240,note_on,,,,,40,0,2,,,,,,0,37,0
22240,note_on,,,,,0,0,2,,,,,,0,44,37
22260,note_on,,,,,0,0,1,,,,,,0,65,37
22260,note_on,,,,,0,0,1,,,,,,0,77,37
22260,note_on,,,,,0,0,1,,,,,,0,68,0
22260,note_on,,,,,180,0,1,,,,,,0,80,0
22280,note_on,,,,,40,0,2,,,,,,0,44,0
22280,set_tempo,,,,,70,1,0,,606060,,,,,,
22280,note_on,,,,,0,0,2,,,,,,0,53,35
22300,set_tempo,,,,,20,1,0,,600000,,,,,,
22320,note_on,,,,,60,0,1,,,,,,0,77,0
22320,note_on,,,,,0,0,1,,,,,,0,68,41
22320,note_on,,,,,0,0,1,,,,,,0,80,41
22320,note_on,,,,,0,0,1,,,,,,0,65,0
22320,note_on,,,,,40,0,2,,,,,,0,53,0
22320,note_on,,,,,0,0,2,,,,,,0,37,39
22360,note_on,,,,,40,0,2,,,,,,0,37,0
22360,note_on,,,,,0,0,2,,,,,,0,44,35
22380,note_on,,,,,60,0,1,,,,,,0,80,0
22380,note_on,,,,,0,0,1,,,,,,0,66,37
22380,note_on,,,,,0,0,1,,,,,,0,78,37
22380,note_on,,,,,0,0,1,,,,,,0,68,0
22390,set_tempo,,,,,90,1,0,,594059,,,,,,
22400,note_on,,,,,40,0,2,,,,,,0,44,0
22400,note_on,,,,,0,0,2,,,,,,0,53,33
22420,set_tempo,,,,,30,1,0,,594059,,,,,,
22440,note_on,,,,,0,0,2,,,,,,0,37,32
22440,note_on,,,,,0,0,1,,,,,,0,66,0
22440,note_on,,,,,0,0,1,,,,,,0,65,40
22440,note_on,,,,,0,0,1,,,,,,0,77,40
22440,note_on,,,,,40,0,2,,,,,,0,53,0
22440,set_tempo,,,,,20,1,0,,606060,,,,,,
22440,note_on,,,,,60,0,1,,,,,,0,78,0
22470,set_tempo,,,,,30,1,0,,612244,,,,,,
22480,note_on,,,,,0,0,2,,,,,,0,44,32
22480,note_on,,,,,40,0,2,,,,,,0,37,0
22500,note_on,,,,,0,0,1,,,,,,0,75,43
22500,note_on,,,,,0,0,1,,,,,,0,65,0
22500,note_on,,,,,0,0,1,,,,,,0,63,43
22500,note_on,,,,,60,0,1,,,,,,0,77,0
22520,note_on,,,,,40,0,2,,,,,,0,44,0
22520,note_on,,,,,0,0,2,,,,,,0,48,33
22530,set_tempo,,,,,60,1,0,,618556,,,,,,
22560,set_tempo,,,,,30,1,0,,625000,,,,,,
22560,note_on,,,,,60,0,1,,,,,,0,75,0
22560,note_on,,,,,40,0,2,,,,,,0,48,0
22560,note_on,,,,,0,0,2,,,,,,0,37,34
22560,note_on,,,,,0,0,1,,,,,,0,61,45
22560,note_on,,,,,0,0,1,,,,,,0,73,45
22560,note_on,,,,,0,0,1,,,,,,0,63,0
22590,set_tempo,,,,,30,1,0,,631578,,,,,,
22600,note_on,,,,,40,0,2,,,,,,0,37,0
22600,note_on,,,,,0,0,2,,,,,,0,44,35
22600,set_tempo,,,,,10,1,0,,638297,,,,,,
22620,note_on,,,,,0,0,1,,,,,,0,75,45
22620,note_on,,,,,60,0,1,,,,,,0,73,0
22620,note_on,,,,,0,0,1,,,,,,0,61,0
22620,note_on,,,,,0,0,1,,,,,,0,63,45
22640,note_on,,,,,0,0,2,,,,,,0,48,36
22640,note_on,,,,,40,0,2,,,,,,0,44,0
22650,set_tempo,,,,,50,1,0,,645161,,,,,,
22660,set_tempo,,,,,10,1,0,,645161,,,,,,
22680,note_on,,,,,0,0,2,,,,,,0,37,38
22680,note_on,,,,,40,0,2,,,,,,0,48,0
22680,note_on,,,,,0,0,1,,,,,,0,77,48
22680,note_on,,,,,0,0,1,,,,,,0,65,48
22680,note_on,,,,,0,0,1,,,,,,0,63,0
22680,note_on,,,,,60,0,1,,,,,,0,75,0
22720,note_on,,,,,40,0,2,,,,,,0,37,0
22720,note_on,,,,,0,0,2,,,,,,0,44,38
22730,set_tempo,,,,,70,1,0,,638297,,,,,,
22760,note_on,,,,,40,0,2,,,,,,0,44,0
22760,set_tempo,,,,,30,1,0,,631578,,,,,,
22760,note_on,,,,,0,0,2,,,,,,0,49,40
22770,note_on,,,,,90,0,1,,,,,,0,77,0
22770,note_on,,,,,0,0,1,,,,,,0,65,0
22800,note_on,,,,,40,0,2,,,,,,0,49,0
22800,note_on,,,,,0,0,1,,,,,,0,74,60
22800,note_on,,,,,0,0,2,,,,,,0,34,40
22800,note_on,,,,,30,0,1,,,,,,0,65,60
22800,control_change,,,,,0,0,1,,,,64,95,0,,
22800,note_on,,,,,0,0,1,,,,,,0,77,60
22827,note_on,,,,,27,0,2,,,,,,0,34,0
22840,note_on,,,,,13,0,2,,,,,,0,56,41
22840,set_tempo,,,,,80,1,0,,618556,,,,,,
22880,note_on,,,,,0,0,2,,,,,,0,53,42
22880,set_tempo,,,,,40,1,0,,612244,,,,,,
22880,note_on,,,,,40,0,2,,,,,,0,56,0
22890,set_tempo,,,,,10,1,0,,606060,,,,,,
22920,note_on,,,,,40,0,2,,,,,,0,53,0
22920,note_on,,,,,0,0,2,,,,,,0,46,44
22950,set_tempo,,,,,60,1,0,,600000,,,,,,
22960,note_on,,,,,0,0,2,,,,,,0,56,44
22960,note_on,,,,,40,0,2,,,,,,0,46,0
22980,set_tempo,,,,,30,1,0,,594059,,,,,,
23000,note_on,,,,,40,0,2,,,,,,0,56,0
23000,note_on,,,,,0,0,2,,,,,,0,53,45
23020,control_change,,,,,220,0,1,,,,64,0,0,,
23040,control_change,,,,,0,0,1,,,,64,95,0,,
23040,note_on,,,,,0,0,1,,,,,,0,77,56
23040,note_on,,,,,0,0,1,,,,,,0,74,56
23040,note_on,,,,,0,0,1,,,,,,0,65,56
23040,note_on,,,,,0,0,1,,,,,,0,65,0
23040,note_on,,,,,20,0,1,,,,,,0,77,0
23040,note_on,,,,,40,0,2,,,,,,0,53,0
23040,note_on,,,,,0,0,2,,,,,,0,46,45
23040,note_on,,,,,0,0,1,,,,,,0,74,0
23070,set_tempo,,,,,90,1,0,,588235,,,,,,
23080,note_on,,,,,40,0,2,,,,,,0,46,0
23080,note_on,,,,,0,0,2,,,,,,0,56,48
23100,set_tempo,,,,,30,1,0,,582524,,,,,,
23120,note_on,,,,,0,0,2,,,,,,0,53,50
23120,note_on,,,,,40,0,2,,,,,,0,56,0
23155,control_change,,,,,115,0,1,,,,64,0,0,,
23160,note_on,,,,,0,0,1,,,,,,0,79,40
23160,note_on,,,,,5,0,1,,,,,,0,77,0
23160,note_on,,,,,0,0,1,,,,,,0,74,0
23160,control_change,,,,,0,0,1,,,,64,95,0,,
23160,note_on,,,,,0,0,2,,,,,,0,46,52
23160,note_on,,,,,0,0,1,,,,,,0,65,0
23160,note_on,,,,,0,0,1,,,,,,0,67,40
23160,note_on,,,,,0,0,1,,,,,,0,75,40
23160,note_on,,,,,40,0,2,,,,,,0,53,0
23170,set_tempo,,,,,70,1,0,,576923,,,,,,
23200,set_tempo,,,,,30,1,0,,571428,,,,,,
23200,note_on,,,,,40,0,2,,,,,,0,46,0
23200,note_on,,,,,0,0,2,,,,,,0,55,50
23220,note_on,,,,,60,0,1,,,,,,0,79,0
23220,note_on,,,,,0,0,1,,,,,,0,75,0
23220,note_on,,,,,0,0,1,,,,,,0,67,0
23220,note_on,,,,,0,0,1,,,,,,0,80,44
23220,note_on,,,,,0,0,1,,,,,,0,74,44
23220,note_on,,,,,0,0,1,,,,,,0,68,44
23240,note_on,,,,,40,0,2,,,,,,0,55,0
23240,note_on,,,,,0,0,2,,,,,,0,53,50
23280,note_on,,,,,60,0,1,,,,,,0,80,0
23280,note_on,,,,,0,0,1,,,,,,0,74,0
23280,note_on,,,,,0,0,1,,,,,,0,68,0
23280,note_on,,,,,0,0,1,,,,,,0,67,50
23280,note_on,,,,,0,0,1,,,,,,0,75,50
23280,note_on,,,,,0,0,1,,,,,,0,79,50
23280,note_on,,,,,0,0,2,,,,,,0,46,57
23280,set_tempo,,,,,80,1,0,,566037,,,,,,
23280,note_on,,,,,40,0,2,,,,,,0,53,0
23320,note_on,,,,,40,0,2,,,,,,0,46,0
23320,note_on,,,,,0,0,2,,,,,,0,55,50
23340,note_on,,,,,0,0,1,,,,,,0,65,55
23340,note_on,,,,,0,0,1,,,,,,0,77,55
23340,note_on,,,,,0,0,1,,,,,,0,75,0
23340,note_on,,,,,0,0,1,,,,,,0,74,55
23340,note_on,,,,,60,0,1,,,,,,0,79,0
23340,note_on,,,,,0,0,1,,,,,,0,67,0
23350,set_tempo,,,,,70,1,0,,571428,,,,,,
23360,note_on,,,,,0,0,2,,,,,,0,56,50
23360,note_on,,,,,40,0,2,,,,,,0,55,0
23360,set_tempo,,,,,10,1,0,,576923,,,,,,
23390,control_change,,,,,50,0,1,,,,64,0,0,,
23390,set_tempo,,,,,30,1,0,,582524,,,,,,
23400,note_on,,,,,40,0,2,,,,,,0,56,0
23400,note_on,,,,,0,0,2,,,,,,0,46,54
23400,note_on,,,,,0,0,1,,,,,,0,79,56
23400,note_on,,,,,10,0,1,,,,,,0,77,0
23400,note_on,,,,,0,0,1,,,,,,0,74,0
23400,note_on,,,,,0,0,1,,,,,,0,65,0
23400,note_on,,,,,0,0,1,,,,,,0,67,56
23400,note_on,,,,,0,0,1,,,,,,0,75,56
23400,set_tempo,,,,,10,1,0,,588235,,,,,,
23400,control_change,,,,,0,0,1,,,,64,95,0,,
23430,set_tempo,,,,,30,1,0,,594059,,,,,,
23440,note_on,,,,,40,0,2,,,,,,0,55,50
23460,set_tempo,,,,,30,1,0,,600000,,,,,,
23480,note_on,,,,,0,0,2,,,,,,0,51,50
23480,set_tempo,,,,,20,1,0,,594059,,,,,,
23480,note_on,,,,,40,0,2,,,,,,0,55,0
23515,control_change,,,,,115,0,1,,,,64,0,0,,
23520,note_on,,,,,0,0,2,,,,,,0,46,52
23520,note_on,,,,,0,0,2,,,,,,0,46,0
23520,note_on,,,,,40,0,2,,,,,,0,51,0
23520,note_on,,,,,0,0,1,,,,,,0,84,48
23520,note_on,,,,,0,0,1,,,,,,0,75,0
23520,note_on,,,,,0,0,1,,,,,,0,67,0
23520,note_on,,,,,0,0,1,,,,,,0,72,48
23520,note_on,,,,,0,0,1,,,,,,0,75,48
23520,note_on,,,,,5,0,1,,,,,,0,79,0
23520,control_change,,,,,0,0,1,,,,64,94,0,,
23560,note_on,,,,,40,0,2,,,,,,0,56,45
23600,note_on,,,,,40,0,2,,,,,,0,56,0
23600,note_on,,,,,0,0,2,,,,,,0,53,42
23620,set_tempo,,,,,140,1,0,,600000,,,,,,
23635,control_change,,,,,115,0,1,,,,64,0,0,,
23640,note_on,,,,,0,0,1,,,,,,0,68,44
23640,note_on,,,,,0,0,1,,,,,,0,75,0
23640,note_on,,,,,5,0,1,,,,,,0,84,0
23640,note_on,,,,,0,0,1,,,,,,0,74,44
23640,note_on,,,,,0,0,1,,,,,,0,80,44
23640,control_change,,,,,0,0,1,,,,64,95,0,,
23640,note_on,,,,,40,0,2,,,,,,0,53,0
23640,note_on,,,,,0,0,2,,,,,,0,46,0
23640,note_on,,,,,0,0,1,,,,,,0,72,0
23640,note_on,,,,,0,0,2,,,,,,0,46,49
23650,set_tempo,,,,,30,1,0,,606060,,,,,,
23680,note_on,,,,,40,0,2,,,,,,0,50,38
23690,set_tempo,,,,,40,1,0,,612244,,,,,,
23710,set_tempo,,,,,20,1,0,,618556,,,,,,
23720,note_on,,,,,40,0,2,,,,,,0,50,0
23720,note_on,,,,,0,0,2,,,,,,0,53,37
23755,control_change,,,,,115,0,1,,,,64,0,0,,
23760,note_on,,,,,40,0,2,,,,,,0,53,0
23760,note_on,,,,,0,0,2,,,,,,0,46,0
23760,note_on,,,,,0,0,2,,,,,,0,39,47
23760,note_on,,,,,0,0,1,,,,,,0,67,38
23760,note_on,,,,,5,0,1,,,,,,0,80,0
23760,note_on,,,,,0,0,1,,,,,,0,74,0
23760,set_tempo,,,,,50,1,0,,631578,,,,,,
23760,note_on,,,,,0,0,1,,,,,,0,75,38
23760,note_on,,,,,0,0,1,,,,,,0,68,0
23760,note_on,,,,,0,0,1,,,,,,0,79,38
23760,control_change,,,,,0,0,1,,,,64,95,0,,
23800,set_tempo,,,,,40,1,0,,638297,,,,,,
23800,note_on,,,,,40,0,2,,,,,,0,39,0
23800,note_on,,,,,0,0,2,,,,,,0,51,37
23840,note_on,,,,,0,0,2,,,,,,0,46,35
23840,note_on,,,,,40,0,2,,,,,,0,51,0
23880,note_on,,,,,0,0,2,,,,,,0,39,33
23880,note_on,,,,,40,0,2,,,,,,0,46,0
23890,set_tempo,,,,,90,1,0,,645161,,,,,,
23910,note_on,,,,,150,0,1,,,,,,0,79,0
23910,note_on,,,,,0,0,1,,,,,,0,75,0
23910,note_on,,,,,0,0,1,,,,,,0,67,0
23920,set_tempo,,,,,30,1,0,,659340,,,,,,
23920,note_on,,,,,40,0,2,,,,,,0,39,0
23930,set_tempo,,,,,10,1,0,,666666,,,,,,
23935,control_change,,,,,25,0,1,,,,64,0,0,,
23940,note_on,,,,,0,0,2,,,,,,0,56,45
23940,note_on,,,,,5,0,1,,,,,,0,68,50
23940,note_on,,,,,20,0,2,,,,,,0,46,45
23940,note_on,,,,,0,0,2,,,,,,0,58,45
23940,set_tempo,,,,,10,1,0,,674157,,,,,,
23960,set_tempo,,,,,20,1,0,,689655,,,,,,
23970,set_tempo,,,,,10,1,0,,697674,,,,,,
23970,note_on,,,,,30,0,1,,,,,,0,68,0
23970,note_on,,,,,0,0,1,,,,,,0,70,46
23980,set_tempo,,,,,10,1,0,,714285,,,,,,
23992,note_on,,,,,22,0,1,,,,,,0,70,0
24000,note_on,,,,,0,0,2,,,,,,0,56,52
24000,note_on,,,,,0,0,2,,,,,,0,58,52
24000,note_on,,,,,60,0,2,,,,,,0,56,0
24000,note_on,,,,,8,0,1,,,,,,0,66,57
24000,note_on,,,,,0,0,2,,,,,,0,46,0
24000,note_on,,,,,0,0,2,,,,,,0,48,52
24000,note_on,,,,,0,0,2,,,,,,0,58,0
24000,set_tempo,,,,,20,1,0,,731707,,,,,,
24010,set_tempo,,,,,10,1,0,,750000,,,,,,
24020,set_tempo,,,,,10,1,0,,759493,,,,,,
24030,note_on,,,,,30,0,1,,,,,,0,66,0
24030,note_on,,,,,0,0,1,,,,,,0,70,53
24040,set_tempo,,,,,20,1,0,,769230,,,,,,
24050,set_tempo,,,,,10,1,0,,789473,,,,,,
24052,note_on,,,,,22,0,1,,,,,,0,70,0
24060,set_tempo,,,,,10,1,0,,800000,,,,,,
24060,note_on,,,,,0,0,2,,,,,,0,58,57
24060,note_on,,,,,8,0,1,,,,,,0,65,64
24060,note_on,,,,,0,0,2,,,,,,0,50,57
24060,note_on,,,,,0,0,2,,,,,,0,56,57
24060,note_on,,,,,0,0,2,,,,,,0,58,0
24060,note_on,,,,,0,0,2,,,,,,0,56,0
24060,note_on,,,,,60,0,2,,,,,,0,48,0
24090,set_tempo,,,,,30,1,0,,845070,,,,,,
24090,note_on,,,,,30,0,1,,,,,,0,65,0
24090,note_on,,,,,0,0,1,,,,,,0,70,59
24110,set_tempo,,,,,20,1,0,,833333,,,,,,
24112,note_on,,,,,22,0,1,,,,,,0,70,0
24120,set_tempo,,,,,10,1,0,,810810,,,,,,
24120,note_on,,,,,0,0,2,,,,,,0,58,0
24120,control_change,,,,,0,0,1,,,,64,95,0,,
24120,note_on,,,,,60,0,2,,,,,,0,50,0
24120,note_on,,,,,0,0,2,,,,,,0,56,0
24120,note_on,,,,,0,0,2,,,,,,0,51,65
24120,note_on,,,,,8,0,1,,,,,,0,63,65
24130,set_tempo,,,,,10,1,0,,779220,,,,,,
24140,set_tempo,,,,,10,1,0,,769230,,,,,,
24150,note_on,,,,,0,0,1,,,,,,0,70,56
24150,note_on,,,,,30,0,1,,,,,,0,63,0
24160,set_tempo,,,,,20,1,0,,750000,,,,,,
24170,set_tempo,,,,,10,1,0,,731707,,,,,,
24172,note_on,,,,,52,0,2,,,,,,0,51,0
24176,note_on,,,,,26,0,1,,,,,,0,70,0
24180,note_on,,,,,0,0,2,,,,,,0,54,56
24180,note_on,,,,,4,0,1,,,,,,0,66,56
24180,note_on,,,,,8,0,2,,,,,,0,58,56
24180,set_tempo,,,,,10,1,0,,722891,,,,,,
24200,set_tempo,,,,,20,1,0,,705882,,,,,,
24206,note_on,,,,,26,0,1,,,,,,0,66,0
24210,note_on,,,,,4,0,1,,,,,,0,65,56
24210,set_tempo,,,,,10,1,0,,689655,,,,,,
24220,set_tempo,,,,,10,1,0,,681818,,,,,,
24225,note_on,,,,,0,0,2,,,,,,0,58,0
24225,note_on,,,,,45,0,2,,,,,,0,54,0
24230,control_change,,,,,20,0,1,,,,64,0,0,,
24230,set_tempo,,,,,10,1,0,,674157,,,,,,
24236,note_on,,,,,6,0,1,,,,,,0,65,0
24240,note_on,,,,,15,0,2,,,,,,0,42,66
24240,note_on,,,,,4,0,1,,,,,,0,63,65
24240,set_tempo,,,,,10,1,0,,666666,,,,,,
24250,set_tempo,,,,,10,1,0,,659340,,,,,,
24260,set_tempo,,,,,10,1,0,,645161,,,,,,
24270,note_on,,,,,0,0,1,,,,,,0,70,56
24270,note_on,,,,,30,0,1,,,,,,0,63,0
24280,set_tempo,,,,,20,1,0,,631578,,,,,,
24290,set_tempo,,,,,10,1,0,,625000,,,,,,
24292,note_on,,,,,52,0,2,,,,,,0,42,0
24296,note_on,,,,,26,0,1,,,,,,0,70,0
24300,note_on,,,,,8,0,2,,,,,,0,58,56
24300,note_on,,,,,4,0,1,,,,,,0,66,56
24300,note_on,,,,,0,0,2,,,,,,0,54,56
24300,set_tempo,,,,,10,1,0,,618556,,,,,,
24310,set_tempo,,,,,10,1,0,,606060,,,,,,
24326,note_on,,,,,26,0,1,,,,,,0,66,0
24330,note_on,,,,,4,0,1,,,,,,0,63,56
24330,set_tempo,,,,,20,1,0,,594059,,,,,,
24345,note_on,,,,,0,0,2,,,,,,0,58,0
24345,note_on,,,,,45,0,2,,,,,,0,54,0
24350,set_tempo,,,,,20,1,0,,582524,,,,,,
24356,note_on,,,,,26,0,1,,,,,,0,63,0
24360,note_on,,,,,15,0,2,,,,,,0,46,65
24360,note_on,,,,,4,0,1,,,,,,0,62,65
24370,set_tempo,,,,,20,1,0,,571428,,,,,,
24380,set_tempo,,,,,10,1,0,,566037,,,,,,
24390,note_on,,,,,30,0,1,,,,,,0,62,0
24390,note_on,,,,,0,0,1,,,,,,0,70,58
24400,set_tempo,,,,,20,1,0,,560747,,,,,,
24410,set_tempo,,,,,10,1,0,,555555,,,,,,
24412,note_on,,,,,52,0,2,,,,,,0,46,0
24416,note_on,,,,,26,0,1,,,,,,0,70,0
24420,note_on,,,,,8,0,2,,,,,,0,58,56
24420,note_on,,,,,0,0,2,,,,,,0,56,56
24420,set_tempo,,,,,10,1,0,,550458,,,,,,
24420,note_on,,,,,4,0,1,,,,,,0,65,59
24446,note_on,,,,,26,0,1,,,,,,0,65,0
24450,note_on,,,,,4,0,1,,,,,,0,62,62
24450,set_tempo,,,,,30,1,0,,545454,,,,,,
24460,set_tempo,,,,,10,1,0,,540540,,,,,,
24465,note_on,,,,,0,0,2,,,,,,0,58,0
24465,note_on,,,,,45,0,2,,,,,,0,56,0
24476,note_on,,,,,26,0,1,,,,,,0,62,0
24480,set_tempo,,,,,20,1,0,,535714,,,,,,
24480,note_on,,,,,4,0,1,,,,,,0,63,62
24480,note_on,,,,,15,0,2,,,,,,0,51,66
24490,set_tempo,,,,,10,1,0,,526315,,,,,,
24500,set_tempo,,,,,10,1,0,,512820,,,,,,
24510,note_on,,,,,30,0,1,,,,,,0,63,0
24510,note_on,,,,,0,0,1,,,,,,0,70,55
24530,set_tempo,,,,,30,1,0,,517241,,,,,,
24532,note_on,,,,,52,0,2,,,,,,0,51,0
24536,note_on,,,,,26,0,1,,,,,,0,70,0
24540,set_tempo,,,,,10,1,0,,526315,,,,,,
24540,note_on,,,,,0,0,2,,,,,,0,56,51
24540,note_on,,,,,8,0,2,,,,,,0,58,51
24540,note_on,,,,,4,0,1,,,,,,0,62,58
24560,set_tempo,,,,,20,1,0,,530973,,,,,,
24566,note_on,,,,,26,0,1,,,,,,0,62,0
24570,note_on,,,,,4,0,1,,,,,,0,70,61
24570,set_tempo,,,,,10,1,0,,535714,,,,,,
24585,note_on,,,,,45,0,2,,,,,,0,56,0
24585,note_on,,,,,0,0,2,,,,,,0,58,0
24590,set_tempo,,,,,20,1,0,,540540,,,,,,
24596,note_on,,,,,26,0,1,,,,,,0,70,0
24600,note_on,,,,,4,0,1,,,,,,0,63,63
24600,note_on,,,,,0,0,2,,,,,,0,54,55
24600,note_on,,,,,15,0,2,,,,,,0,58,55
24610,set_tempo,,,,,20,1,0,,550458,,,,,,
24626,note_on,,,,,26,0,1,,,,,,0,63,0
24630,note_on,,,,,4,0,1,,,,,,0,70,65
24630,set_tempo,,,,,20,1,0,,560747,,,,,,
24640,set_tempo,,,,,10,1,0,,566037,,,,,,
24645,note_on,,,,,0,0,2,,,,,,0,58,0
24645,note_on,,,,,45,0,2,,,,,,0,54,0
24656,note_on,,,,,26,0,1,,,,,,0,70,0
24660,note_on,,,,,4,0,1,,,,,,0,65,66
24660,set_tempo,,,,,20,1,0,,571428,,,,,,
24660,note_on,,,,,15,0,2,,,,,,0,58,58
24660,note_on,,,,,0,0,2,,,,,,0,53,58
24680,set_tempo,,,,,20,1,0,,582524,,,,,,
24686,note_on,,,,,26,0,1,,,,,,0,65,0
24690,note_on,,,,,4,0,1,,,,,,0,70,67
24700,set_tempo,,,,,20,1,0,,594059,,,,,,
24705,note_on,,,,,45,0,2,,,,,,0,53,0
24705,note_on,,,,,0,0,2,,,,,,0,58,0
24710,set_tempo,,,,,10,1,0,,600000,,,,,,
24716,note_on,,,,,26,0,1,,,,,,0,70,0
24720,note_on,,,,,15,0,2,,,,,,0,58,60
24720,note_on,,,,,0,0,2,,,,,,0,51,60
24720,note_on,,,,,4,0,1,,,,,,0,66,69
24740,set_tempo,,,,,30,1,0,,612244,,,,,,
24750,note_on,,,,,30,0,1,,,,,,0,66,0
24750,note_on,,,,,0,0,1,,,,,,0,75,64
24765,note_on,,,,,45,0,2,,,,,,0,51,0
24765,note_on,,,,,0,0,2,,,,,,0,58,0
24770,set_tempo,,,,,30,1,0,,618556,,,,,,
24776,note_on,,,,,26,0,1,,,,,,0,75,0
24780,note_on,,,,,4,0,1,,,,,,0,70,63
24780,note_on,,,,,15,0,2,,,,,,0,39,63
24790,set_tempo,,,,,20,1,0,,625000,,,,,,
24806,note_on,,,,,26,0,1,,,,,,0,70,0
24810,set_tempo,,,,,20,1,0,,882352,,,,,,
24810,note_on,,,,,4,0,1,,,,,,0,66,58
24825,note_on,,,,,45,0,2,,,,,,0,39,0
24830,set_tempo,,,,,20,1,0,,625000,,,,,,
24836,note_on,,,,,26,0,1,,,,,,0,66,0
24840,set_tempo,,,,,10,1,0,,612244,,,,,,
24840,note_on,,,,,4,0,1,,,,,,0,68,64
24840,note_on,,,,,15,0,2,,,,,,0,47,66
24840,control_change,,,,,0,0,1,,,,64,95,0,,
24870,note_on,,,,,0,0,1,,,,,,0,75,56
24870,note_on,,,,,30,0,1,,,,,,0,68,0
24885,note_on,,,,,45,0,2,,,,,,0,47,0
24890,set_tempo,,,,,50,1,0,,606060,,,,,,
24896,note_on,,,,,26,0,1,,,,,,0,75,0
24900,set_tempo,,,,,10,1,0,,600000,,,,,,
24900,note_on,,,,,0,0,2,,,,,,0,51,56
24900,note_on,,,,,15,0,2,,,,,,0,56,56
24900,note_on,,,,,4,0,1,,,,,,0,71,56
24920,set_tempo,,,,,20,1,0,,594059,,,,,,
24926,note_on,,,,,26,0,1,,,,,,0,71,0
24930,note_on,,,,,4,0,1,,,,,,0,70,56
24930,set_tempo,,,,,10,1,0,,588235,,,,,,
24945,note_on,,,,,0,0,2,,,,,,0,56,0
24945,note_on,,,,,45,0,2,,,,,,0,51,0
24950,control_change,,,,,20,0,1,,,,64,0,0,,
24956,note_on,,,,,6,0,1,,,,,,0,70,0
24960,note_on,,,,,15,0,2,,,,,,0,47,60
24960,note_on,,,,,4,0,1,,,,,,0,68,63
24990,note_on,,,,,0,0,1,,,,,,0,75,56
24990,note_on,,,,,30,0,1,,,,,,0,68,0
25005,note_on,,,,,45,0,2,,,,,,0,47,0
25010,set_tempo,,,,,80,1,0,,582524,,,,,,
25016,note_on,,,,,26,0,1,,,,,,0,75,0
25020,note_on,,,,,4,0,1,,,,,,0,71,56
25020,note_on,,,,,0,0,2,,,,,,0,51,56
25020,note_on,,,,,15,0,2,,,,,,0,56,56
25020,set_tempo,,,,,10,1,0,,576923,,,,,,
25046,note_on,,,,,26,0,1,,,,,,0,71,0
25050,note_on,,,,,4,0,1,,,,,,0,68,56
25050,set_tempo,,,,,30,1,0,,571428,,,,,,
25065,note_on,,,,,45,0,2,,,,,,0,51,0
25065,note_on,,,,,0,0,2,,,,,,0,56,0
25076,note_on,,,,,26,0,1,,,,,,0,68,0
25080,set_tempo,,,,,30,1,0,,566037,,,,,,
25080,note_on,,,,,15,0,2,,,,,,0,46,61
25080,note_on,,,,,4,0,1,,,,,,0,66,64
25110,note_on,,,,,30,0,1,,,,,,0,66,0
25110,note_on,,,,,0,0,1,,,,,,0,75,53
25120,set_tempo,,,,,40,1,0,,560747,,,,,,
25125,note_on,,,,,45,0,2,,,,,,0,46,0
25136,note_on,,,,,26,0,1,,,,,,0,75,0
25140,set_tempo,,,,,20,1,0,,555555,,,,,,
25140,note_on,,,,,0,0,2,,,,,,0,51,56
25140,note_on,,,,,4,0,1,,,,,,0,70,57
25140,note_on,,,,,15,0,2,,,,,,0,58,56
25166,note_on,,,,,26,0,1,,,,,,0,70,0
25170,note_on,,,,,4,0,1,,,,,,0,66,60
25185,note_on,,,,,45,0,2,,,,,,0,51,0
25185,note_on,,,,,0,0,2,,,,,,0,58,0
25192,note_on,,,,,22,0,1,,,,,,0,66,0
25200,note_on,,,,,8,0,1,,,,,,0,66,65
25200,set_tempo,,,,,60,1,0,,550458,,,,,,
25200,note_on,,,,,15,0,2,,,,,,0,44,61
25230,note_on,,,,,0,0,1,,,,,,0,70,56
25230,set_tempo,,,,,30,1,0,,545454,,,,,,
25230,note_on,,,,,30,0,1,,,,,,0,66,0
25245,note_on,,,,,45,0,2,,,,,,0,44,0
25250,set_tempo,,,,,20,1,0,,540540,,,,,,
25256,note_on,,,,,26,0,1,,,,,,0,70,0
25260,note_on,,,,,4,0,1,,,,,,0,65,57
25260,note_on,,,,,15,0,2,,,,,,0,58,44
25260,note_on,,,,,0,0,2,,,,,,0,50,44
25286,note_on,,,,,26,0,1,,,,,,0,65,0
25290,note_on,,,,,4,0,1,,,,,,0,70,59
25305,note_on,,,,,0,0,2,,,,,,0,58,0
25305,note_on,,,,,45,0,2,,,,,,0,50,0
25310,set_tempo,,,,,60,1,0,,535714,,,,,,
25316,note_on,,,,,26,0,1,,,,,,0,70,0
25320,note_on,,,,,15,0,2,,,,,,0,41,48
25320,note_on,,,,,4,0,1,,,,,,0,63,61
25340,set_tempo,,,,,30,1,0,,530973,,,,,,
25346,note_on,,,,,26,0,1,,,,,,0,63,0
25350,note_on,,,,,4,0,1,,,,,,0,70,61
25365,note_on,,,,,45,0,2,,,,,,0,41,0
25370,set_tempo,,,,,30,1,0,,526315,,,,,,
25376,note_on,,,,,26,0,1,,,,,,0,70,0
25380,note_on,,,,,0,0,2,,,,,,0,56,52
25380,note_on,,,,,15,0,2,,,,,,0,58,52
25380,note_on,,,,,4,0,1,,,,,,0,62,63
25390,set_tempo,,,,,20,1,0,,530973,,,,,,
25400,set_tempo,,,,,10,1,0,,526315,,,,,,
25406,note_on,,,,,26,0,1,,,,,,0,62,0
25410,note_on,,,,,4,0,1,,,,,,0,70,65
25410,set_tempo,,,,,10,1,0,,530973,,,,,,
25425,note_on,,,,,45,0,2,,,,,,0,56,0
25425,note_on,,,,,0,0,2,,,,,,0,58,0
25436,note_on,,,,,26,0,1,,,,,,0,70,0
25440,note_on,,,,,4,0,1,,,,,,0,63,67
25440,control_change,,,,,0,0,1,,,,64,95,0,,
25440,note_on,,,,,15,0,2,,,,,,0,58,58
25440,note_on,,,,,0,0,2,,,,,,0,54,58
25440,note_on,,,,,0,0,2,,,,,,0,51,58
25440,set_tempo,,,,,30,1,0,,535714,,,,,,
25460,set_tempo,,,,,20,1,0,,540540,,,,,,
25466,note_on,,,,,26,0,1,,,,,,0,63,0
25470,note_on,,,,,4,0,1,,,,,,0,70,66
25480,set_tempo,,,,,20,1,0,,550458,,,,,,
25485,note_on,,,,,0,0,2,,,,,,0,54,0
25485,note_on,,,,,45,0,2,,,,,,0,51,0
25485,note_on,,,,,0,0,2,,,,,,0,58,0
25490,set_tempo,,,,,10,1,0,,594059,,,,,,
25496,note_on,,,,,26,0,1,,,,,,0,70,0
25500,set_tempo,,,,,10,1,0,,705882,,,,,,
25500,note_on,,,,,0,0,2,,,,,,0,56,62
25500,note_on,,,,,0,0,2,,,,,,0,59,62
25500,note_on,,,,,4,0,1,,,,,,0,65,64
25500,note_on,,,,,15,0,2,,,,,,0,49,62
25510,set_tempo,,,,,10,1,0,,722891,,,,,,
25520,set_tempo,,,,,10,1,0,,779220,,,,,,
25526,note_on,,,,,26,0,1,,,,,,0,65,0
25530,note_on,,,,,4,0,1,,,,,,0,73,55
25530,set_tempo,,,,,10,1,0,,895522,,,,,,
25552,note_on,,,,,0,0,2,,,,,,0,49,0
25552,note_on,,,,,0,0,2,,,,,,0,56,0
25552,note_on,,,,,52,0,2,,,,,,0,59,0
25555,control_change,,,,,25,0,1,,,,64,0,0,,
25556,note_on,,,,,1,0,1,,,,,,0,73,0
25560,control_change,,,,,0,0,1,,,,64,96,0,,
25560,note_on,,,,,4,0,1,,,,,,0,66,50
25560,note_on,,,,,8,0,2,,,,,,0,54,47
25580,set_tempo,,,,,50,1,0,,722891,,,,,,
25590,note_on,,,,,30,0,1,,,,,,0,66,0
25590,set_tempo,,,,,10,1,0,,674157,,,,,,
25590,note_on,,,,,0,0,1,,,,,,0,73,42
25600,set_tempo,,,,,10,1,0,,652173,,,,,,
25610,set_tempo,,,,,10,1,0,,638297,,,,,,
25612,note_on,,,,,52,0,2,,,,,,0,54,0
25616,note_on,,,,,26,0,1,,,,,,0,73,0
25620,set_tempo,,,,,10,1,0,,618556,,,,,,
25620,note_on,,,,,8,0,2,,,,,,0,61,36
25620,note_on,,,,,0,0,2,,,,,,0,58,36
25620,note_on,,,,,4,0,1,,,,,,0,70,42
25630,set_tempo,,,,,10,1,0,,612244,,,,,,
25640,set_tempo,,,,,10,1,0,,600000,,,,,,
25646,note_on,,,,,26,0,1,,,,,,0,70,0
25650,set_tempo,,,,,10,1,0,,588235,,,,,,
25650,note_on,,,,,4,0,1,,,,,,0,68,42
25665,note_on,,,,,45,0,2,,,,,,0,58,0
25665,note_on,,,,,0,0,2,,,,,,0,61,0
25670,set_tempo,,,,,20,1,0,,576923,,,,,,
25675,control_change,,,,,25,0,1,,,,64,0,0,,
25676,note_on,,,,,1,0,1,,,,,,0,68,0
25680,note_on,,,,,15,0,2,,,,,,0,46,47
25680,set_tempo,,,,,10,1,0,,566037,,,,,,
25680,note_on,,,,,4,0,1,,,,,,0,66,51
25690,set_tempo,,,,,10,1,0,,555555,,,,,,
25700,set_tempo,,,,,10,1,0,,545454,,,,,,
25710,note_on,,,,,0,0,1,,,,,,0,73,42
25710,note_on,,,,,30,0,1,,,,,,0,66,0
25730,set_tempo,,,,,30,1,0,,540540,,,,,,
25732,note_on,,,,,52,0,2,,,,,,0,46,0
25736,note_on,,,,,26,0,1,,,,,,0,73,0
25740,note_on,,,,,0,0,2,,,,,,0,58,38
25740,set_tempo,,,,,10,1,0,,535714,,,,,,
25740,note_on,,,,,8,0,2,,,,,,0,61,38
25740,note_on,,,,,4,0,1,,,,,,0,70,42
25760,set_tempo,,,,,20,1,0,,530973,,,,,,
25766,note_on,,,,,26,0,1,,,,,,0,70,0
25770,note_on,,,,,4,0,1,,,,,,0,66,49
25780,set_tempo,,,,,20,1,0,,526315,,,,,,
25785,note_on,,,,,0,0,2,,,,,,0,61,0
25785,note_on,,,,,45,0,2,,,,,,0,58,0
25796,note_on,,,,,26,0,1,,,,,,0,66,0
25800,note_on,,,,,4,0,1,,,,,,0,65,40
25800,note_on,,,,,15,0,2,,,,,,0,49,47
25810,set_tempo,,,,,30,1,0,,521739,,,,,,
25830,note_on,,,,,30,0,1,,,,,,0,65,0
25830,note_on,,,,,0,0,1,,,,,,0,73,41
25850,set_tempo,,,,,40,1,0,,517241,,,,,,
25852,note_on,,,,,52,0,2,,,,,,0,49,0
25856,note_on,,,,,26,0,1,,,,,,0,73,0
25860,note_on,,,,,0,0,2,,,,,,0,59,35
25860,note_on,,,,,8,0,2,,,,,,0,61,35
25860,note_on,,,,,4,0,1,,,,,,0,68,43
25886,note_on,,,,,26,0,1,,,,,,0,68,0
25890,note_on,,,,,4,0,1,,,,,,0,65,46
25905,note_on,,,,,0,0,2,,,,,,0,61,0
25905,note_on,,,,,45,0,2,,,,,,0,59,0
25916,note_on,,,,,26,0,1,,,,,,0,65,0
25920,note_on,,,,,15,0,2,,,,,,0,54,47
25920,note_on,,,,,4,0,1,,,,,,0,66,50
25950,note_on,,,,,0,0,1,,,,,,0,73,56
25950,note_on,,,,,30,0,1,,,,,,0,66,0
25972,note_on,,,,,52,0,2,,,,,,0,54,0
25976,note_on,,,,,26,0,1,,,,,,0,73,0
25980,note_on,,,,,4,0,1,,,,,,0,65,45
25980,note_on,,,,,0,0,2,,,,,,0,59,35
25980,note_on,,,,,8,0,2,,,,,,0,61,35
26006,note_on,,,,,26,0,1,,,,,,0,65,0
26010,note_on,,,,,4,0,1,,,,,,0,73,46
26025,note_on,,,,,0,0,2,,,,,,0,61,0
26025,note_on,,,,,45,0,2,,,,,,0,59,0
26036,note_on,,,,,26,0,1,,,,,,0,73,0
26040,note_on,,,,,4,0,1,,,,,,0,66,49
26040,note_on,,,,,0,0,2,,,,,,0,58,37
26040,note_on,,,,,15,0,2,,,,,,0,61,37
26066,note_on,,,,,26,0,1,,,,,,0,66,0
26070,note_on,,,,,4,0,1,,,,,,0,73,51
26085,note_on,,,,,45,0,2,,,,,,0,58,0
26085,note_on,,,,,0,0,2,,,,,,0,61,0
26096,note_on,,,,,26,0,1,,,,,,0,73,0
26100,note_on,,,,,15,0,2,,,,,,0,61,40
26100,note_on,,,,,0,0,2,,,,,,0,56,40
26100,note_on,,,,,4,0,1,,,,,,0,68,53
26126,note_on,,,,,26,0,1,,,,,,0,68,0
26130,note_on,,,,,4,0,1,,,,,,0,73,54
26145,note_on,,,,,0,0,2,,,,,,0,61,0
26145,note_on,,,,,45,0,2,,,,,,0,56,0
26156,note_on,,,,,26,0,1,,,,,,0,73,0
26160,note_on,,,,,0,0,2,,,,,,0,54,43
26160,note_on,,,,,15,0,2,,,,,,0,61,43
26160,note_on,,,,,4,0,1,,,,,,0,70,55
26190,note_on,,,,,0,0,1,,,,,,0,78,56
26190,note_on,,,,,30,0,1,,,,,,0,70,0
26205,note_on,,,,,45,0,2,,,,,,0,54,0
26205,note_on,,,,,0,0,2,,,,,,0,61,0
26216,note_on,,,,,26,0,1,,,,,,0,78,0
26220,note_on,,,,,15,0,2,,,,,,0,42,47
26220,note_on,,,,,4,0,1,,,,,,0,73,57
26246,note_on,,,,,26,0,1,,,,,,0,73,0
26250,note_on,,,,,4,0,1,,,,,,0,70,59
26265,note_on,,,,,45,0,2,,,,,,0,42,0
26276,note_on,,,,,26,0,1,,,,,,0,70,0
26280,note_on,,,,,4,0,1,,,,,,0,71,61
26280,note_on,,,,,15,0,2,,,,,,0,51,49
26280,control_change,,,,,0,0,1,,,,64,95,0,,
26310,note_on,,,,,30,0,1,,,,,,0,71,0
26310,note_on,,,,,0,0,1,,,,,,0,78,51
26325,note_on,,,,,45,0,2,,,,,,0,51,0
26336,note_on,,,,,26,0,1,,,,,,0,78,0
26340,note_on,,,,,4,0,1,,,,,,0,75,51
26340,note_on,,,,,0,0,2,,,,,,0,54,41
26340,note_on,,,,,15,0,2,,,,,,0,59,41
26366,note_on,,,,,26,0,1,,,,,,0,75,0
26370,note_on,,,,,4,0,1,,,,,,0,73,51
26385,note_on,,,,,45,0,2,,,,,,0,54,0
26385,note_on,,,,,0,0,2,,,,,,0,59,0
26396,note_on,,,,,26,0,1,,,,,,0,73,0
26400,control_change,,,,,0,0,1,,,,64,0,0,,
26400,note_on,,,,,4,0,1,,,,,,0,71,61
26400,note_on,,,,,15,0,2,,,,,,0,51,46
26426,note_on,,,,,26,0,1,,,,,,0,71,0
26430,note_on,,,,,4,0,1,,,,,,0,78,52
26445,note_on,,,,,45,0,2,,,,,,0,51,0
26450,set_tempo,,,,,600,1,0,,517241,,,,,,
26456,note_on,,,,,26,0,1,,,,,,0,78,0
26460,note_on,,,,,15,0,2,,,,,,0,59,38
26460,note_on,,,,,4,0,1,,,,,,0,75,52
26460,set_tempo,,,,,10,1,0,,521739,,,,,,
26460,note_on,,,,,0,0,2,,,,,,0,54,38
26486,note_on,,,,,26,0,1,,,,,,0,75,0
26490,note_on,,,,,4,0,1,,,,,,0,71,53
26490,set_tempo,,,,,30,1,0,,526315,,,,,,
26500,set_tempo,,,,,10,1,0,,530973,,,,,,
26505,note_on,,,,,45,0,2,,,,,,0,54,0
26505,note_on,,,,,0,0,2,,,,,,0,59,0
26516,note_on,,,,,26,0,1,,,,,,0,71,0
26520,note_on,,,,,4,0,1,,,,,,0,70,54
26520,note_on,,,,,15,0,2,,,,,,0,49,49
26550,note_on,,,,,0,0,1,,,,,,0,78,55
26550,note_on,,,,,30,0,1,,,,,,0,70,0
26560,set_tempo,,,,,60,1,0,,540540,,,,,,
26565,note_on,,,,,45,0,2,,,,,,0,49,0
26576,note_on,,,,,26,0,1,,,,,,0,78,0
26580,set_tempo,,,,,20,1,0,,545454,,,,,,
26580,note_on,,,,,4,0,1,,,,,,0,73,57
26580,note_on,,,,,0,0,2,,,,,,0,54,41
26580,note_on,,,,,15,0,2,,,,,,0,61,41
26590,set_tempo,,,,,10,1,0,,550458,,,,,,
26606,note_on,,,,,26,0,1,,,,,,0,73,0
26610,note_on,,,,,4,0,1,,,,,,0,70,57
26620,set_tempo,,,,,30,1,0,,555555,,,,,,
26625,note_on,,,,,45,0,2,,,,,,0,54,0
26625,note_on,,,,,0,0,2,,,,,,0,61,0
26632,note_on,,,,,22,0,1,,,,,,0,70,0
26640,set_tempo,,,,,20,1,0,,560747,,,,,,
26640,note_on,,,,,8,0,1,,,,,,0,70,59
26640,note_on,,,,,15,0,2,,,,,,0,47,49
26650,set_tempo,,,,,10,1,0,,550458,,,,,,
26670,note_on,,,,,30,0,1,,,,,,0,70,0
26670,note_on,,,,,0,0,1,,,,,,0,73,48
26670,set_tempo,,,,,20,1,0,,545454,,,,,,
26685,note_on,,,,,45,0,2,,,,,,0,47,0
26690,set_tempo,,,,,20,1,0,,540540,,,,,,
26696,note_on,,,,,26,0,1,,,,,,0,73,0
26700,note_on,,,,,0,0,2,,,,,,0,53,52
26700,note_on,,,,,15,0,2,,,,,,0,61,52
26700,note_on,,,,,4,0,1,,,,,,0,68,49
26710,set_tempo,,,,,20,1,0,,535714,,,,,,
26726,note_on,,,,,26,0,1,,,,,,0,68,0
26730,note_on,,,,,4,0,1,,,,,,0,73,50
26745,note_on,,,,,0,0,2,,,,,,0,61,0
26745,note_on,,,,,45,0,2,,,,,,0,53,0
26756,note_on,,,,,26,0,1,,,,,,0,73,0
26760,note_on,,,,,4,0,1,,,,,,0,66,52
26760,note_on,,,,,15,0,2,,,,,,0,44,62
26786,note_on,,,,,26,0,1,,,,,,0,66,0
26790,set_tempo,,,,,80,1,0,,526315,,,,,,
26790,note_on,,,,,4,0,1,,,,,,0,73,52
26805,note_on,,,,,45,0,2,,,,,,0,44,0
26816,note_on,,,,,26,0,1,,,,,,0,73,0
26820,note_on,,,,,15,0,2,,,,,,0,61,66
26820,note_on,,,,,0,0,2,,,,,,0,59,66
26820,note_on,,,,,4,0,1,,,,,,0,65,54
26846,note_on,,,,,26,0,1,,,,,,0,65,0
26850,note_on,,,,,4,0,1,,,,,,0,73,55
26865,note_on,,,,,0,0,2,,,,,,0,61,0
26865,note_on,,,,,45,0,2,,,,,,0,59,0
26870,set_tempo,,,,,80,1,0,,517241,,,,,,
26876,note_on,,,,,26,0,1,,,,,,0,73,0
26880,note_on,,,,,4,0,1,,,,,,0,66,56
26880,note_on,,,,,15,0,2,,,,,,0,61,70
26880,note_on,,,,,0,0,2,,,,,,0,54,70
26880,note_on,,,,,0,0,2,,,,,,0,58,70
26906,note_on,,,,,26,0,1,,,,,,0,66,0
26910,note_on,,,,,4,0,1,,,,,,0,73,56
26925,note_on,,,,,45,0,2,,,,,,0,54,0
26925,note_on,,,,,0,0,2,,,,,,0,58,0
26925,note_on,,,,,0,0,2,,,,,,0,61,0
26936,note_on,,,,,26,0,1,,,,,,0,73,0
26940,note_on,,,,,4,0,1,,,,,,0,67,54
26940,note_on,,,,,0,0,2,,,,,,0,58,74
26940,note_on,,,,,15,0,2,,,,,,0,51,74
26940,control_change,,,,,0,0,1,,,,64,95,0,,
26940,note_on,,,,,0,0,2,,,,,,0,61,74
26950,set_tempo,,,,,80,1,0,,500000,,,,,,
26970,note_on,,,,,30,0,1,,,,,,0,67,0
26970,note_on,,,,,0,0,1,,,,,,0,75,52
26990,set_tempo,,,,,40,1,0,,495867,,,,,,
26992,note_on,,,,,0,0,2,,,,,,0,51,0
26992,note_on,,,,,0,0,2,,,,,,0,58,0
26992,note_on,,,,,52,0,2,,,,,,0,61,0
26995,control_change,,,,,25,0,1,,,,64,0,0,,
26996,note_on,,,,,1,0,1,,,,,,0,75,0
27000,note_on,,,,,0,0,2,,,,,,0,56,77
27000,note_on,,,,,8,0,2,,,,,,0,59,77
27000,set_tempo,,,,,10,1,0,,491803,,,,,,
27000,control_change,,,,,0,0,1,,,,64,96,0,,
27000,note_on,,,,,4,0,1,,,,,,0,68,61
27020,set_tempo,,,,,20,1,0,,487804,,,,,,
27030,note_on,,,,,0,0,1,,,,,,0,75,66
27030,note_on,,,,,30,0,1,,,,,,0,68,0
27040,set_tempo,,,,,20,1,0,,483870,,,,,,
27045,note_on,,,,,45,0,2,,,,,,0,56,0
27045,note_on,,,,,0,0,2,,,,,,0,59,0
27050,set_tempo,,,,,10,1,0,,480000,,,,,,
27056,note_on,,,,,26,0,1,,,,,,0,75,0
27060,note_on,,,,,15,0,2,,,,,,0,63,76
27060,note_on,,,,,4,0,1,,,,,,0,70,69
27060,note_on,,,,,0,0,2,,,,,,0,61,76
27070,set_tempo,,,,,20,1,0,,476190,,,,,,
27080,set_tempo,,,,,10,1,0,,472440,,,,,,
27086,note_on,,,,,26,0,1,,,,,,0,70,0
27090,note_on,,,,,4,0,1,,,,,,0,78,78
27105,note_on,,,,,45,0,2,,,,,,0,61,0
27105,note_on,,,,,0,0,2,,,,,,0,63,0
27116,note_on,,,,,26,0,1,,,,,,0,78,0
27120,set_tempo,,,,,40,1,0,,468750,,,,,,
27120,note_on,,,,,4,0,1,,,,,,0,71,82
27120,note_on,,,,,0,0,2,,,,,,0,63,82
27120,note_on,,,,,15,0,2,,,,,,0,59,82
27146,note_on,,,,,26,0,1,,,,,,0,71,0
27150,note_on,,,,,4,0,1,,,,,,0,80,87
27160,set_tempo,,,,,40,1,0,,465116,,,,,,
27165,note_on,,,,,45,0,2,,,,,,0,63,0
27165,note_on,,,,,0,0,2,,,,,,0,59,0
27175,control_change,,,,,25,0,1,,,,64,0,0,,
27176,note_on,,,,,1,0,1,,,,,,0,80,0
27180,note_on,,,,,0,0,2,,,,,,0,55,88
27180,note_on,,,,,4,0,1,,,,,,0,75,94
27180,control_change,,,,,0,0,1,,,,64,96,0,,
27180,note_on,,,,,15,0,2,,,,,,0,63,88
27180,note_on,,,,,0,0,2,,,,,,0,58,88
27200,set_tempo,,,,,40,1,0,,461538,,,,,,
27206,note_on,,,,,26,0,1,,,,,,0,75,0
27210,note_on,,,,,4,0,1,,,,,,0,82,100
27225,note_on,,,,,0,0,2,,,,,,0,58,0
27225,note_on,,,,,0,0,2,,,,,,0,63,0
27225,note_on,,,,,45,0,2,,,,,,0,55,0
27236,note_on,,,,,26,0,1,,,,,,0,82,0
27240,note_on,,,,,0,0,2,,,,,,0,56,90
27240,note_on,,,,,0,0,2,,,,,,0,59,90
27240,note_on,,,,,4,0,1,,,,,,0,75,105
27240,note_on,,,,,15,0,2,,,,,,0,63,90
27260,set_tempo,,,,,60,1,0,,458015,,,,,,
27266,note_on,,,,,26,0,1,,,,,,0,75,0
27270,note_on,,,,,4,0,1,,,,,,0,83,109
27285,note_on,,,,,45,0,2,,,,,,0,56,0
27285,note_on,,,,,0,0,2,,,,,,0,59,0
27285,note_on,,,,,0,0,2,,,,,,0,63,0
27296,note_on,,,,,26,0,1,,,,,,0,83,0
27300,note_on,,,,,15,0,2,,,,,,0,63,95
27300,note_on,,,,,0,0,2,,,,,,0,61,95
27300,note_on,,,,,0,0,2,,,,,,0,55,95
27300,set_tempo,,,,,40,1,0,,454545,,,,,,
27300,note_on,,,,,4,0,1,,,,,,0,78,114
27320,set_tempo,,,,,20,1,0,,451127,,,,,,
27326,note_on,,,,,26,0,1,,,,,,0,78,0
27330,note_on,,,,,4,0,1,,,,,,0,87,119
27345,note_on,,,,,45,0,2,,,,,,0,55,0
27345,note_on,,,,,0,0,2,,,,,,0,63,0
27345,note_on,,,,,0,0,2,,,,,,0,61,0
27352,note_on,,,,,22,0,1,,,,,,0,87,0
27355,control_change,,,,,3,0,1,,,,64,0,0,,
27360,note_on,,,,,0,0,2,,,,,,0,59,101
27360,note_on,,,,,15,0,2,,,,,,0,63,101
27360,note_on,,,,,5,0,1,,,,,,0,80,124
27360,control_change,,,,,0,0,1,,,,64,95,0,,
27390,note_on,,,,,0,0,1,,,,,,0,92,124
27390,note_on,,,,,30,0,1,,,,,,0,80,0
27416,note_on,,,,,26,0,1,,,,,,0,92,0
27420,note_on,,,,,4,0,1,,,,,,0,87,119
27440,set_tempo,,,,,120,1,0,,447761,,,,,,
27446,note_on,,,,,26,0,1,,,,,,0,87,0
27450,note_on,,,,,4,0,1,,,,,,0,83,115
27470,set_tempo,,,,,30,1,0,,444444,,,,,,
27476,note_on,,,,,26,0,1,,,,,,0,83,0
27480,note_on,,,,,4,0,1,,,,,,0,80,113
27480,note_on,,,,,120,0,2,,,,,,0,59,0
27480,note_on,,,,,0,0,2,,,,,,0,63,0
27506,note_on,,,,,26,0,1,,,,,,0,80,0
27510,note_on,,,,,4,0,1,,,,,,0,75,109
27536,note_on,,,,,26,0,1,,,,,,0,75,0
27540,control_change,,,,,0,0,1,,,,64,0,0,,
27540,note_on,,,,,4,0,1,,,,,,0,71,108
27566,note_on,,,,,26,0,1,,,,,,0,71,0
27570,note_on,,,,,4,0,1,,,,,,0,68,109
27596,note_on,,,,,26,0,1,,,,,,0,68,0
27600,note_on,,,,,4,0,1,,,,,,0,63,113
27626,note_on,,,,,26,0,1,,,,,,0,63,0
27630,note_on,,,,,4,0,1,,,,,,0,59,116
27656,note_on,,,,,26,0,1,,,,,,0,59,0
27660,note_on,,,,,4,0,1,,,,,,0,63,119
27686,note_on,,,,,26,0,1,,,,,,0,63,0
27690,note_on,,,,,4,0,1,,,,,,0,68,121
27716,note_on,,,,,26,0,1,,,,,,0,68,0
27720,note_on,,,,,240,0,2,,,,,,0,47,125
27720,note_on,,,,,4,0,1,,,,,,0,71,127
27720,control_change,,,,,0,0,1,,,,64,96,0,,
27750,note_on,,,,,30,0,2,,,,,,0,47,0
27750,note_on,,,,,0,0,2,,,,,,0,59,113
27772,note_on,,,,,52,0,1,,,,,,0,71,0
27780,note_on,,,,,0,0,1,,,,,,0,80,105
27780,note_on,,,,,8,0,1,,,,,,0,75,105
27780,note_on,,,,,0,0,1,,,,,,0,87,105
27780,note_on,,,,,30,0,2,,,,,,0,59,0
27780,note_on,,,,,0,0,2,,,,,,0,56,118
27810,note_on,,,,,30,0,2,,,,,,0,56,0
27810,note_on,,,,,0,0,2,,,,,,0,51,121
27825,note_on,,,,,45,0,1,,,,,,0,87,0
27825,note_on,,,,,0,0,1,,,,,,0,80,0
27825,note_on,,,,,0,0,1,,,,,,0,75,0
27840,note_on,,,,,15,0,1,,,,,,0,87,107
27840,note_on,,,,,0,0,1,,,,,,0,80,107
27840,note_on,,,,,0,0,1,,,,,,0,75,107
27840,note_on,,,,,0,0,2,,,,,,0,47,123
27840,note_on,,,,,30,0,2,,,,,,0,51,0
27870,note_on,,,,,0,0,2,,,,,,0,44,115
27870,note_on,,,,,30,0,2,,,,,,0,47,0
27885,note_on,,,,,45,0,1,,,,,,0,75,0
27885,note_on,,,,,0,0,1,,,,,,0,87,0
27885,note_on,,,,,0,0,1,,,,,,0,80,0
27895,control_change,,,,,10,0,1,,,,64,0,0,,
27900,note_on,,,,,0,0,1,,,,,,0,75,114
27900,note_on,,,,,0,0,1,,,,,,0,80,114
27900,note_on,,,,,5,0,1,,,,,,0,87,114
27900,note_on,,,,,0,0,2,,,,,,0,39,120
27900,note_on,,,,,30,0,2,,,,,,0,44,0
27930,note_on,,,,,0,0,2,,,,,,0,35,125
27930,note_on,,,,,30,0,2,,,,,,0,39,0
27945,note_on,,,,,45,0,1,,,,,,0,75,0
27945,note_on,,,,,0,0,1,,,,,,0,80,0
27945,note_on,,,,,0,0,1,,,,,,0,87,0
27960,note_on,,,,,15,0,1,,,,,,0,88,126
27960,note_on,,,,,0,0,1,,,,,,0,76,126
27960,control_change,,,,,0,0,1,,,,64,95,0,,
27960,note_on,,,,,30,0,2,,,,,,0,35,0
27960,note_on,,,,,0,0,2,,,,,,0,47,127
27960,note_on,,,,,0,0,1,,,,,,0,80,126
28020,note_on,,,,,0,0,1,,,,,,0,80,0
28020,note_on,,,,,0,0,1,,,,,,0,88,0
28020,note_on,,,,,0,0,1,,,,,,0,75,91
28020,note_on,,,,,0,0,1,,,,,,0,80,91
28020,note_on,,,,,0,0,1,,,,,,0,87,91
28020,control_change,,,,,0,0,1,,,,64,0,0,,
28020,note_on,,,,,60,0,1,,,,,,0,76,0
28020,note_on,,,,,60,0,2,,,,,,0,47,0
28050,note_on,,,,,30,0,1,,,,,,0,87,0
28050,note_on,,,,,0,0,1,,,,,,0,75,0
28050,note_on,,,,,0,0,1,,,,,,0,80,0
28080,control_change,,,,,0,0,1,,,,64,96,0,,
28080,note_on,,,,,30,0,1,,,,,,0,66,61
28080,note_on,,,,,60,0,2,,,,,,0,46,77
28080,set_tempo,,,,,610,1,0,,491803,,,,,,
28100,set_tempo,,,,,20,1,0,,487804,,,,,,
28110,note_on,,,,,30,0,1,,,,,,0,66,0
28110,note_on,,,,,0,0,1,,,,,,0,75,66
28120,set_tempo,,,,,20,1,0,,483870,,,,,,
28125,note_on,,,,,45,0,2,,,,,,0,46,0
28130,set_tempo,,,,,10,1,0,,480000,,,,,,
28136,note_on,,,,,26,0,1,,,,,,0,75,0
28140,note_on,,,,,15,0,2,,,,,,0,59,76
28140,note_on,,,,,4,0,1,,,,,,0,69,69
28140,note_on,,,,,0,0,2,,,,,,0,63,76
28150,set_tempo,,,,,20,1,0,,476190,,,,,,
28160,set_tempo,,,,,10,1,0,,472440,,,,,,
28166,note_on,,,,,26,0,1,,,,,,0,69,0
28170,note_on,,,,,4,0,1,,,,,,0,77,78
28185,note_on,,,,,0,0,2,,,,,,0,59,0
28185,note_on,,,,,45,0,2,,,,,,0,63,0
28196,note_on,,,,,26,0,1,,,,,,0,77,0
28200,note_on,,,,,0,0,2,,,,,,0,63,82
28200,set_tempo,,,,,40,1,0,,468750,,,,,,
28200,note_on,,,,,15,0,2,,,,,,0,59,82
28200,note_on,,,,,4,0,1,,,,,,0,70,82
28226,note_on,,,,,26,0,1,,,,,,0,70,0
28230,note_on,,,,,4,0,1,,,,,,0,78,87
28240,set_tempo,,,,,40,1,0,,465116,,,,,,
28245,note_on,,,,,45,0,2,,,,,,0,63,0
28245,note_on,,,,,0,0,2,,,,,,0,59,0
28255,control_change,,,,,25,0,1,,,,64,0,0,,
28256,note_on,,,,,1,0,1,,,,,,0,78,0
28260,control_change,,,,,0,0,1,,,,64,96,0,,
28260,note_on,,,,,15,0,2,,,,,,0,47,88
28260,note_on,,,,,0,0,2,,,,,,0,51,88
28260,note_on,,,,,4,0,1,,,,,,0,77,94
28280,set_tempo,,,,,40,1,0,,461538,,,,,,
28286,note_on,,,,,26,0,1,,,,,,0,77,0
28290,note_on,,,,,4,0,1,,,,,,0,81,100
28305,note_on,,,,,45,0,2,,,,,,0,51,0
28305,note_on,,,,,0,0,2,,,,,,0,47,0
28316,note_on,,,,,26,0,1,,,,,,0,81,0
28320,note_on,,,,,4,0,1,,,,,,0,78,105
28320,note_on,,,,,15,0,2,,,,,,0,46,90
28320,note_on,,,,,0,0,2,,,,,,0,51,90
28340,set_tempo,,,,,60,1,0,,458015,,,,,,
28346,note_on,,,,,26,0,1,,,,,,0,78,0
28350,note_on,,,,,4,0,1,,,,,,0,82,109
28365,note_on,,,,,45,0,2,,,,,,0,51,0
28365,note_on,,,,,0,0,2,,,,,,0,46,0
28376,note_on,,,,,26,0,1,,,,,,0,82,0
28380,set_tempo,,,,,40,1,0,,454545,,,,,,
28380,note_on,,,,,15,0,2,,,,,,0,65,95
28380,note_on,,,,,0,0,2,,,,,,0,59,95
28380,note_on,,,,,0,0,2,,,,,,0,63,95
28380,note_on,,,,,4,0,1,,,,,,0,81,114
28400,set_tempo,,,,,20,1,0,,451127,,,,,,
28406,note_on,,,,,26,0,1,,,,,,0,81,0
28410,note_on,,,,,4,0,1,,,,,,0,89,119
28425,note_on,,,,,45,0,2,,,,,,0,63,0
28425,note_on,,,,,0,0,2,,,,,,0,59,0
28425,note_on,,,,,0,0,2,,,,,,0,65,0
28432,note_on,,,,,22,0,1,,,,,,0,89,0
28435,control_change,,,,,3,0,1,,,,64,0,0,,
28440,note_on,,,,,0,0,2,,,,,,0,63,101
28440,note_on,,,,,0,0,2,,,,,,0,58,101
28440,control_change,,,,,0,0,1,,,,64,95,0,,
28440,note_on,,,,,5,0,1,,,,,,0,82,124
28440,note_on,,,,,15,0,2,,,,,,0,66,101
28470,note_on,,,,,30,0,1,,,,,,0,82,0
28470,note_on,,,,,0,0,1,,,,,,0,94,124
28496,note_on,,,,,26,0,1,,,,,,0,94,0
28500,note_on,,,,,4,0,1,,,,,,0,90,119
28520,set_tempo,,,,,120,1,0,,447761,,,,,,
28526,note_on,,,,,26,0,1,,,,,,0,90,0
28530,note_on,,,,,4,0,1,,,,,,0,87,115
28550,set_tempo,,,,,30,1,0,,444444,,,,,,
28556,note_on,,,,,26,0,1,,,,,,0,87,0
28560,note_on,,,,,0,0,2,,,,,,0,66,0
28560,note_on,,,,,0,0,2,,,,,,0,63,0
28560,note_on,,,,,120,0,2,,,,,,0,58,0
28560,note_on,,,,,4,0,1,,,,,,0,82,113
28586,note_on,,,,,26,0,1,,,,,,0,82,0
28590,note_on,,,,,4,0,1,,,,,,0,78,109
28616,note_on,,,,,26,0,1,,,,,,0,78,0
28620,note_on,,,,,4,0,1,,,,,,0,75,108
28620,control_change,,,,,0,0,1,,,,64,0,0,,
28646,note_on,,,,,26,0,1,,,,,,0,75,0
28650,note_on,,,,,4,0,1,,,,,,0,70,109
28676,note_on,,,,,26,0,1,,,,,,0,70,0
28680,note_on,,,,,4,0,1,,,,,,0,66,113
28706,note_on,,,,,26,0,1,,,,,,0,66,0
28710,note_on,,,,,4,0,1,,,,,,0,63,116
28736,note_on,,,,,26,0,1,,,,,,0,63,0
28740,note_on,,,,,4,0,1,,,,,,0,66,119
28766,note_on,,,,,26,0,1,,,,,,0,66,0
28770,note_on,,,,,4,0,1,,,,,,0,70,121
28796,note_on,,,,,26,0,1,,,,,,0,70,0
28800,note_on,,,,,240,0,2,,,,,,0,46,125
28800,control_change,,,,,0,0,1,,,,64,96,0,,
28800,note_on,,,,,4,0,1,,,,,,0,75,127
28830,note_on,,,,,0,0,2,,,,,,0,58,113
28830,note_on,,,,,30,0,2,,,,,,0,46,0
28852,note_on,,,,,52,0,1,,,,,,0,75,0
28860,note_on,,,,,30,0,2,,,,,,0,58,0
28860,note_on,,,,,0,0,1,,,,,,0,87,105
28860,note_on,,,,,0,0,1,,,,,,0,75,105
28860,note_on,,,,,0,0,2,,,,,,0,54,118
28860,note_on,,,,,0,0,1,,,,,,0,78,105
28860,note_on,,,,,8,0,1,,,,,,0,82,105
28890,note_on,,,,,0,0,2,,,,,,0,51,121
28890,note_on,,,,,30,0,2,,,,,,0,54,0
28905,note_on,,,,,45,0,1,,,,,,0,87,0
28905,note_on,,,,,0,0,1,,,,,,0,82,0
28905,note_on,,,,,0,0,1,,,,,,0,78,0
28905,note_on,,,,,0,0,1,,,,,,0,75,0
28920,note_on,,,,,0,0,1,,,,,,0,78,107
28920,note_on,,,,,15,0,1,,,,,,0,82,107
28920,note_on,,,,,0,0,1,,,,,,0,75,107
28920,note_on,,,,,0,0,2,,,,,,0,46,123
28920,note_on,,,,,30,0,2,,,,,,0,51,0
28920,note_on,,,,,0,0,1,,,,,,0,87,107
28950,note_on,,,,,0,0,2,,,,,,0,42,115
28950,note_on,,,,,30,0,2,,,,,,0,46,0
28965,note_on,,,,,0,0,1,,,,,,0,82,0
28965,note_on,,,,,0,0,1,,,,,,0,78,0
28965,note_on,,,,,0,0,1,,,,,,0,87,0
28965,note_on,,,,,45,0,1,,,,,,0,75,0
28975,control_change,,,,,10,0,1,,,,64,0,0,,
28980,note_on,,,,,0,0,2,,,,,,0,39,120
28980,note_on,,,,,30,0,2,,,,,,0,42,0
28980,note_on,,,,,0,0,1,,,,,,0,75,114
28980,note_on,,,,,0,0,1,,,,,,0,78,114
28980,note_on,,,,,5,0,1,,,,,,0,82,114
28980,note_on,,,,,0,0,1,,,,,,0,87,114
28990,set_tempo,,,,,440,1,0,,454545,,,,,,
29010,note_on,,,,,30,0,2,,,,,,0,39,0
29010,note_on,,,,,0,0,2,,,,,,0,34,125
29010,set_tempo,,,,,20,1,0,,458015,,,,,,
29025,note_on,,,,,45,0,1,,,,,,0,75,0
29025,note_on,,,,,0,0,1,,,,,,0,87,0
29025,note_on,,,,,0,0,1,,,,,,0,78,0
29025,note_on,,,,,0,0,1,,,,,,0,82,0
29040,note_on,,,,,0,0,2,,,,,,0,46,127
29040,note_on,,,,,30,0,2,,,,,,0,34,0
29040,note_on,,,,,0,0,1,,,,,,0,78,126
29040,note_on,,,,,15,0,1,,,,,,0,82,126
29040,note_on,,,,,0,0,1,,,,,,0,88,126
29040,note_on,,,,,0,0,1,,,,,,0,76,126
29040,control_change,,,,,0,0,1,,,,64,95,0,,
29050,set_tempo,,,,,40,1,0,,461538,,,,,,
29060,set_tempo,,,,,10,1,0,,465116,,,,,,
29090,set_tempo,,,,,30,1,0,,468750,,,,,,
29100,note_on,,,,,0,0,1,,,,,,0,78,91
29100,note_on,,,,,60,0,1,,,,,,0,76,0
29100,note_on,,,,,0,0,1,,,,,,0,82,0
29100,note_on,,,,,0,0,1,,,,,,0,82,91
29100,note_on,,,,,0,0,1,,,,,,0,78,0
29100,note_on,,,,,60,0,2,,,,,,0,46,0
29100,control_change,,,,,0,0,1,,,,64,0,0,,
29100,note_on,,,,,0,0,1,,,,,,0,87,91
29100,note_on,,,,,0,0,1,,,,,,0,75,91
29100,note_on,,,,,0,0,1,,,,,,0,88,0
29130,note_on,,,,,0,0,1,,,,,,0,75,0
29130,note_on,,,,,0,0,1,,,,,,0,78,0
29130,note_on,,,,,30,0,1,,,,,,0,87,0
29130,note_on,,,,,0,0,1,,,,,,0,82,0
29160,control_change,,,,,30,0,1,,,,64,95,0,,
29160,note_on,,,,,0,0,2,,,,,,0,45,116
29160,note_on,,,,,60,0,2,,,,,,0,33,116
29180,set_tempo,,,,,90,1,0,,472440,,,,,,
29200,set_tempo,,,,,20,1,0,,476190,,,,,,
29205,note_on,,,,,0,0,2,,,,,,0,33,0
29205,note_on,,,,,45,0,2,,,,,,0,45,0
29220,note_on,,,,,0,0,1,,,,,,0,72,98
29220,note_on,,,,,0,0,1,,,,,,0,75,98
29220,note_on,,,,,0,0,1,,,,,,0,77,98
29220,note_on,,,,,0,0,1,,,,,,0,57,98
29220,note_on,,,,,0,0,1,,,,,,0,63,98
29220,note_on,,,,,60,0,1,,,,,,0,65,98
29260,set_tempo,,,,,60,1,0,,480000,,,,,,
29265,note_on,,,,,0,0,1,,,,,,0,65,0
29265,note_on,,,,,0,0,1,,,,,,0,57,0
29265,note_on,,,,,45,0,1,,,,,,0,75,0
29265,note_on,,,,,0,0,1,,,,,,0,63,0
29265,note_on,,,,,0,0,1,,,,,,0,77,0
29265,note_on,,,,,0,0,1,,,,,,0,72,0
29280,note_on,,,,,15,0,1,,,,,,0,65,105
29280,note_on,,,,,0,0,1,,,,,,0,63,105
29280,note_on,,,,,0,0,1,,,,,,0,57,105
29280,note_on,,,,,0,0,1,,,,,,0,77,105
29280,note_on,,,,,0,0,1,,,,,,0,72,105
29280,note_on,,,,,0,0,1,,,,,,0,75,105
29300,set_tempo,,,,,40,1,0,,483870,,,,,,
29325,note_on,,,,,45,0,1,,,,,,0,75,0
29325,note_on,,,,,0,0,1,,,,,,0,63,0
29325,note_on,,,,,0,0,1,,,,,,0,57,0
29325,note_on,,,,,0,0,1,,,,,,0,65,0
29325,note_on,,,,,0,0,1,,,,,,0,77,0
29325,note_on,,,,,0,0,1,,,,,,0,72,0
29340,note_on,,,,,0,0,1,,,,,,0,75,111
29340,note_on,,,,,15,0,1,,,,,,0,65,111
29340,note_on,,,,,0,0,1,,,,,,0,63,111
29340,note_on,,,,,0,0,1,,,,,,0,57,111
29340,note_on,,,,,0,0,1,,,,,,0,72,111
29340,note_on,,,,,0,0,1,,,,,,0,77,111
29345,control_change,,,,,5,0,1,,,,64,0,0,,
29385,note_on,,,,,0,0,1,,,,,,0,57,0
29385,note_on,,,,,0,0,1,,,,,,0,77,0
29385,note_on,,,,,0,0,1,,,,,,0,65,0
29385,note_on,,,,,0,0,1,,,,,,0,63,0
29385,note_on,,,,,0,0,1,,,,,,0,72,0
29385,note_on,,,,,40,0,1,,,,,,0,75,0
29390,set_tempo,,,,,90,1,0,,487804,,,,,,
29400,note_on,,,,,0,0,2,,,,,,0,63,110
29400,note_on,,,,,195,0,2,,,,,,0,66,110
29400,control_change,,,,,0,0,1,,,,64,96,0,,
29400,note_on,,,,,0,0,1,,,,,,0,75,118
29400,note_on,,,,,0,0,1,,,,,,0,72,118
29400,note_on,,,,,15,0,1,,,,,,0,78,118
29400,note_on,,,,,0,0,2,,,,,,0,57,110
29420,set_tempo,,,,,30,1,0,,491803,,,,,,
29450,set_tempo,,,,,30,1,0,,495867,,,,,,
29460,note_on,,,,,60,0,1,,,,,,0,75,0
29460,note_on,,,,,0,0,1,,,,,,0,78,0
29460,note_on,,,,,0,0,1,,,,,,0,72,0
29460,note_on,,,,,0,0,1,,,,,,0,75,87
29460,control_change,,,,,0,0,1,,,,64,0,0,,
29470,set_tempo,,,,,20,1,0,,495867,,,,,,
29490,note_on,,,,,90,0,2,,,,,,0,57,0
29490,note_on,,,,,0,0,2,,,,,,0,63,0
29490,note_on,,,,,30,0,1,,,,,,0,75,0
29490,note_on,,,,,0,0,2,,,,,,0,66,0
29490,set_tempo,,,,,20,1,0,,500000,,,,,,
29500,set_tempo,,,,,10,1,0,,504201,,,,,,
29520,note_on,,,,,30,0,2,,,,,,0,33,117
29520,set_tempo,,,,,20,1,0,,508474,,,,,,
29520,control_change,,,,,30,0,1,,,,64,96,0,,
29540,set_tempo,,,,,20,1,0,,512820,,,,,,
29550,set_tempo,,,,,10,1,0,,517241,,,,,,
29565,note_on,,,,,45,0,2,,,,,,0,33,0
29580,note_on,,,,,0,0,2,,,,,,0,51,78
29580,note_on,,,,,0,0,2,,,,,,0,53,78
29580,note_on,,,,,15,0,2,,,,,,0,45,78
29580,note_on,,,,,0,0,1,,,,,,0,65,70
29580,note_on,,,,,0,0,1,,,,,,0,60,70
29580,set_tempo,,,,,30,1,0,,521739,,,,,,
29580,note_on,,,,,60,0,1,,,,,,0,63,70
29600,set_tempo,,,,,20,1,0,,526315,,,,,,
29620,set_tempo,,,,,20,1,0,,530973,,,,,,
29625,note_on,,,,,0,0,2,,,,,,0,51,0
29625,note_on,,,,,0,0,2,,,,,,0,45,0
29625,note_on,,,,,0,0,1,,,,,,0,60,0
29625,note_on,,,,,45,0,1,,,,,,0,65,0
29625,note_on,,,,,45,0,2,,,,,,0,53,0
29625,note_on,,,,,0,0,1,,,,,,0,63,0
29635,control_change,,,,,10,0,1,,,,64,0,0,,
29640,note_on,,,,,15,0,2,,,,,,0,45,68
29640,note_on,,,,,0,0,2,,,,,,0,51,68
29640,note_on,,,,,0,0,2,,,,,,0,53,68
29640,note_on,,,,,0,0,1,,,,,,0,63,59
29640,note_on,,,,,0,0,1,,,,,,0,65,59
29640,note_on,,,,,5,0,1,,,,,,0,60,59
29640,set_tempo,,,,,20,1,0,,535714,,,,,,
29660,set_tempo,,,,,20,1,0,,540540,,,,,,
29680,set_tempo,,,,,20,1,0,,545454,,,,,,
29685,note_on,,,,,0,0,1,,,,,,0,63,0
29685,note_on,,,,,45,0,1,,,,,,0,65,0
29685,note_on,,,,,0,0,1,,,,,,0,60,0
29685,note_on,,,,,45,0,2,,,,,,0,53,0
29685,note_on,,,,,0,0,2,,,,,,0,51,0
29685,note_on,,,,,0,0,2,,,,,,0,45,0
29700,note_on,,,,,15,0,2,,,,,,0,45,57
29700,set_tempo,,,,,20,1,0,,550458,,,,,,
29700,note_on,,,,,0,0,1,,,,,,0,63,50
29700,note_on,,,,,0,0,2,,,,,,0,51,57
29700,note_on,,,,,0,0,2,,,,,,0,53,57
29700,note_on,,,,,15,0,1,,,,,,0,60,50
29700,note_on,,,,,0,0,1,,,,,,0,65,50
29710,set_tempo,,,,,10,1,0,,555555,,,,,,
29740,set_tempo,,,,,30,1,0,,560747,,,,,,
29745,note_on,,,,,45,0,2,,,,,,0,53,0
29745,note_on,,,,,0,0,2,,,,,,0,51,0
29745,note_on,,,,,0,0,2,,,,,,0,45,0
29745,note_on,,,,,45,0,1,,,,,,0,65,0
29745,note_on,,,,,0,0,1,,,,,,0,63,0
29745,note_on,,,,,0,0,1,,,,,,0,60,0
29760,note_on,,,,,15,0,1,,,,,,0,66,58
29760,control_change,,,,,0,0,1,,,,64,94,0,,
29760,note_on,,,,,0,0,2,,,,,,0,51,63
29760,note_on,,,,,0,0,2,,,,,,0,45,63
29760,note_on,,,,,0,0,1,,,,,,0,63,58
29760,note_on,,,,,0,0,1,,,,,,0,60,58
29760,note_on,,,,,15,0,2,,,,,,0,54,63
29770,set_tempo,,,,,30,1,0,,566037,,,,,,
29780,set_tempo,,,,,10,1,0,,571428,,,,,,
29820,note_on,,,,,0,0,1,,,,,,0,66,0
29820,note_on,,,,,0,0,1,,,,,,0,72,46
29820,control_change,,,,,0,0,1,,,,64,0,0,,
29820,note_on,,,,,60,0,1,,,,,,0,60,0
29820,note_on,,,,,0,0,1,,,,,,0,63,0
29850,note_on,,,,,30,0,1,,,,,,0,72,0
29850,set_tempo,,,,,70,1,0,,800000,,,,,,
29850,note_on,,,,,0,0,2,,,,,,0,54,0
29850,note_on,,,,,0,0,2,,,,,,0,51,0
29850,note_on,,,,,90,0,2,,,,,,0,45,0
29880,set_tempo,,,,,30,1,0,,731707,,,,,,
29880,note_on,,,,,0,0,1,,,,,,0,55,53
29880,note_on,,,,,30,0,1,,,,,,0,63,53
29880,control_change,,,,,0,0,1,,,,64,96,0,,
29940,set_tempo,,,,,60,1,0,,625000,,,,,,
29940,note_on,,,,,90,0,2,,,,,,0,46,44
29985,note_on,,,,,45,0,2,,,,,,0,46,0
29990,set_tempo,,,,,50,1,0,,566037,,,,,,
30000,note_on,,,,,15,0,2,,,,,,0,46,49
30045,note_on,,,,,45,0,2,,,,,,0,46,0
30060,note_on,,,,,15,0,2,,,,,,0,46,52
30105,note_on,,,,,45,0,2,,,,,,0,46,0
30115,control_change,,,,,235,0,1,,,,64,0,0,,
30120,note_on,,,,,0,0,1,,,,,,0,62,56
30120,note_on,,,,,0,0,1,,,,,,0,56,40
30120,control_change,,,,,0,0,1,,,,64,95,0,,
30120,note_on,,,,,15,0,2,,,,,,0,46,57
30120,note_on,,,,,0,0,1,,,,,,0,63,0
30120,note_on,,,,,5,0,1,,,,,,0,55,0
30120,set_tempo,,,,,130,1,0,,645161,,,,,,
30150,note_on,,,,,30,0,1,,,,,,0,56,0
30150,note_on,,,,,0,0,1,,,,,,0,58,49
30165,note_on,,,,,45,0,2,,,,,,0,46,0
30180,note_on,,,,,0,0,1,,,,,,0,60,54
30180,note_on,,,,,30,0,1,,,,,,0,58,0
30180,note_on,,,,,15,0,2,,,,,,0,34,36
30210,note_on,,,,,0,0,1,,,,,,0,56,50
30210,note_on,,,,,30,0,1,,,,,,0,60,0
30210,note_on,,,,,30,0,2,,,,,,0,34,0
30225,note_on,,,,,15,0,1,,,,,,0,62,0
30235,control_change,,,,,10,0,1,,,,64,0,0,,
30240,control_change,,,,,0,0,1,,,,64,95,0,,
30240,note_on,,,,,0,0,1,,,,,,0,63,50
30240,note_on,,,,,0,0,1,,,,,,0,55,40
30240,note_on,,,,,5,0,1,,,,,,0,56,0
30240,note_on,,,,,30,0,2,,,,,,0,39,31
30250,set_tempo,,,,,130,1,0,,740740,,,,,,
30288,note_on,,,,,48,0,2,,,,,,0,39,0
30300,control_change,,,,,60,0,1,,,,64,0,0,,
30300,set_tempo,,,,,50,1,0,,588235,,,,,,
30300,note_on,,,,,12,0,2,,,,,,0,50,39
30340,set_tempo,,,,,40,1,0,,576923,,,,,,
30360,set_tempo,,,,,20,1,0,,571428,,,,,,
30360,note_on,,,,,0,0,2,,,,,,0,51,36
30360,note_on,,,,,60,0,2,,,,,,0,50,0
30360,note_on,,,,,60,0,1,,,,,,0,63,0
30360,note_on,,,,,0,0,1,,,,,,0,55,0
30390,set_tempo,,,,,30,1,0,,566037,,,,,,
30400,set_tempo,,,,,10,1,0,,560747,,,,,,
30408,note_on,,,,,48,0,2,,,,,,0,51,0
30410,set_tempo,,,,,10,1,0,,555555,,,,,,
30420,note_on,,,,,60,0,1,,,,,,0,82,33
30420,note_on,,,,,0,0,1,,,,,,0,70,33
30420,control_change,,,,,0,0,1,,,,64,96,0,,
30420,note_on,,,,,0,0,2,,,,,,0,51,30
30420,note_on,,,,,12,0,2,,,,,,0,46,30
30468,note_on,,,,,0,0,1,,,,,,0,82,0
30468,note_on,,,,,48,0,1,,,,,,0,70,0
30468,note_on,,,,,0,0,2,,,,,,0,46,0
30468,note_on,,,,,48,0,2,,,,,,0,51,0
30480,note_on,,,,,0,0,1,,,,,,0,82,37
30480,note_on,,,,,12,0,1,,,,,,0,70,37
30480,note_on,,,,,0,0,2,,,,,,0,51,30
30480,note_on,,,,,12,0,2,,,,,,0,44,30
30528,note_on,,,,,48,0,1,,,,,,0,82,0
30528,note_on,,,,,48,0,2,,,,,,0,51,0
30528,note_on,,,,,0,0,2,,,,,,0,44,0
30528,note_on,,,,,0,0,1,,,,,,0,70,0
30540,note_on,,,,,0,0,2,,,,,,0,51,32
30540,note_on,,,,,12,0,2,,,,,,0,43,32
30540,note_on,,,,,0,0,1,,,,,,0,70,42
30540,note_on,,,,,12,0,1,,,,,,0,82,42
30588,note_on,,,,,0,0,2,,,,,,0,43,0
30588,note_on,,,,,0,0,1,,,,,,0,82,0
30588,note_on,,,,,48,0,1,,,,,,0,70,0
30588,note_on,,,,,48,0,2,,,,,,0,51,0
30590,control_change,,,,,2,0,1,,,,64,0,0,,
30600,note_on,,,,,12,0,2,,,,,,0,44,39
30600,note_on,,,,,0,0,2,,,,,,0,51,39
30600,set_tempo,,,,,190,1,0,,550458,,,,,,
30600,note_on,,,,,0,0,1,,,,,,0,71,44
30600,note_on,,,,,10,0,1,,,,,,0,83,44
30600,control_change,,,,,0,0,1,,,,64,96,0,,
30640,set_tempo,,,,,40,1,0,,545454,,,,,,
30660,note_on,,,,,60,0,2,,,,,,0,51,0
30660,note_on,,,,,0,0,2,,,,,,0,44,0
30660,note_on,,,,,0,0,2,,,,,,0,43,33
30660,note_on,,,,,0,0,2,,,,,,0,51,33
30700,set_tempo,,,,,60,1,0,,540540,,,,,,
30720,note_on,,,,,0,0,1,,,,,,0,75,46
30720,note_on,,,,,0,0,1,,,,,,0,83,0
30720,note_on,,,,,0,0,2,,,,,,0,43,0
30720,note_on,,,,,120,0,1,,,,,,0,71,0
30720,note_on,,,,,60,0,2,,,,,,0,51,0
30720,set_tempo,,,,,20,1,0,,535714,,,,,,
30720,control_change,,,,,0,0,1,,,,64,0,0,,
30720,note_on,,,,,0,0,1,,,,,,0,87,46
30720,note_on,,,,,0,0,2,,,,,,0,44,43
30720,note_on,,,,,0,0,2,,,,,,0,51,43
30760,set_tempo,,,,,40,1,0,,530973,,,,,,
30780,note_on,,,,,0,0,2,,,,,,0,46,38
30780,note_on,,,,,60,0,2,,,,,,0,51,0
30780,note_on,,,,,0,0,2,,,,,,0,44,0
30780,note_on,,,,,0,0,2,,,,,,0,51,38
30800,set_tempo,,,,,40,1,0,,526315,,,,,,
30840,note_on,,,,,60,0,2,,,,,,0,51,0
30840,note_on,,,,,0,0,2,,,,,,0,46,0
30840,note_on,,,,,0,0,2,,,,,,0,47,37
30840,note_on,,,,,0,0,2,,,,,,0,51,37
30850,set_tempo,,,,,50,1,0,,521739,,,,,,
30880,set_tempo,,,,,30,1,0,,517241,,,,,,
30900,note_on,,,,,180,0,1,,,,,,0,87,0
30900,note_on,,,,,0,0,1,,,,,,0,75,0
30900,note_on,,,,,0,0,2,,,,,,0,47,0
30900,note_on,,,,,60,0,2,,,,,,0,51,0
30900,note_on,,,,,0,0,2,,,,,,0,50,33
30900,note_on,,,,,0,0,2,,,,,,0,51,33
30910,set_tempo,,,,,30,1,0,,512820,,,,,,
30930,note_on,,,,,30,0,1,,,,,,0,71,36
30930,note_on,,,,,0,0,1,,,,,,0,83,36
30960,note_on,,,,,0,0,1,,,,,,0,71,44
30960,note_on,,,,,60,0,2,,,,,,0,51,0
30960,note_on,,,,,30,0,1,,,,,,0,83,0
30960,note_on,,,,,0,0,1,,,,,,0,71,0
30960,note_on,,,,,0,0,2,,,,,,0,50,0
30960,control_change,,,,,0,0,1,,,,64,95,0,,
30960,note_on,,,,,0,0,1,,,,,,0,83,44
30960,note_on,,,,,0,0,2,,,,,,0,51,39
31020,note_on,,,,,60,0,2,,,,,,0,51,0
31020,note_on,,,,,0,0,2,,,,,,0,53,35
31020,note_on,,,,,0,0,2,,,,,,0,51,35
31080,note_on,,,,,0,0,1,,,,,,0,82,33
31080,note_on,,,,,0,0,2,,,,,,0,55,33
31080,note_on,,,,,0,0,1,,,,,,0,71,0
31080,note_on,,,,,120,0,1,,,,,,0,83,0
31080,note_on,,,,,0,0,2,,,,,,0,51,33
31080,note_on,,,,,0,0,2,,,,,,0,51,0
31080,note_on,,,,,60,0,2,,,,,,0,53,0
31080,note_on,,,,,0,0,1,,,,,,0,70,33
31085,control_change,,,,,5,0,1,,,,64,0,0,,
31140,note_on,,,,,60,0,2,,,,,,0,55,0
31140,note_on,,,,,0,0,2,,,,,,0,51,0
31140,note_on,,,,,0,0,2,,,,,,0,51,29
31140,note_on,,,,,0,0,2,,,,,,0,56,29
31200,note_on,,,,,60,0,2,,,,,,0,56,0
31200,note_on,,,,,0,0,2,,,,,,0,51,0
31200,note_on,,,,,0,0,2,,,,,,0,51,36
31200,note_on,,,,,0,0,2,,,,,,0,55,36
31210,set_tempo,,,,,300,1,0,,517241,,,,,,
31230,note_on,,,,,0,0,1,,,,,,0,82,0
31230,note_on,,,,,145,0,1,,,,,,0,70,0
31252,note_on,,,,,0,0,2,,,,,,0,51,0
31252,note_on,,,,,52,0,2,,,,,,0,55,0
31260,note_on,,,,,0,0,1,,,,,,0,81,39
31260,note_on,,,,,0,0,2,,,,,,0,59,46
31260,note_on,,,,,8,0,2,,,,,,0,51,46
31260,note_on,,,,,30,0,1,,,,,,0,69,39
31270,set_tempo,,,,,60,1,0,,521739,,,,,,
31320,note_on,,,,,0,0,1,,,,,,0,69,0
31320,note_on,,,,,0,0,1,,,,,,0,70,41
31320,note_on,,,,,0,0,1,,,,,,0,82,41
31320,control_change,,,,,0,0,1,,,,64,95,0,,
31320,note_on,,,,,60,0,2,,,,,,0,59,0
31320,note_on,,,,,0,0,2,,,,,,0,51,0
31320,note_on,,,,,0,0,2,,,,,,0,50,31
31320,note_on,,,,,60,0,1,,,,,,0,81,0
31320,note_on,,,,,0,0,2,,,,,,0,58,31
31380,note_on,,,,,60,0,2,,,,,,0,50,0
31380,set_tempo,,,,,110,1,0,,530973,,,,,,
31380,note_on,,,,,0,0,2,,,,,,0,52,34
31440,note_on,,,,,0,0,1,,,,,,0,70,0
31440,control_change,,,,,0,0,1,,,,64,0,0,,
31440,note_on,,,,,120,0,1,,,,,,0,82,0
31440,note_on,,,,,0,0,1,,,,,,0,80,35
31440,note_on,,,,,0,0,1,,,,,,0,68,35
31440,note_on,,,,,60,0,2,,,,,,0,52,0
31440,note_on,,,,,0,0,2,,,,,,0,53,34
31500,note_on,,,,,60,0,1,,,,,,0,80,0
31500,note_on,,,,,0,0,1,,,,,,0,79,35
31500,set_tempo,,,,,120,1,0,,540540,,,,,,
31500,note_on,,,,,0,0,1,,,,,,0,67,35
31500,note_on,,,,,0,0,1,,,,,,0,68,0
31500,note_on,,,,,0,0,2,,,,,,0,45,39
31500,note_on,,,,,60,0,2,,,,,,0,53,0
31560,note_on,,,,,0,0,2,,,,,,0,58,39
31560,control_change,,,,,0,0,1,,,,64,96,0,,
31560,note_on,,,,,0,0,2,,,,,,0,58,0
31560,note_on,,,,,0,0,1,,,,,,0,74,36
31560,note_on,,,,,0,0,1,,,,,,0,68,36
31560,note_on,,,,,0,0,1,,,,,,0,80,36
31560,note_on,,,,,60,0,2,,,,,,0,45,0
31560,note_on,,,,,0,0,2,,,,,,0,46,39
31560,note_on,,,,,0,0,1,,,,,,0,67,0
31560,note_on,,,,,60,0,1,,,,,,0,79,0
31580,set_tempo,,,,,80,1,0,,550458,,,,,,
31665,control_change,,,,,105,0,1,,,,64,0,0,,
31680,control_change,,,,,0,0,1,,,,64,95,0,,
31680,note_on,,,,,15,0,1,,,,,,0,80,0
31680,note_on,,,,,0,0,1,,,,,,0,74,0
31680,note_on,,,,,0,0,1,,,,,,0,68,0
31680,note_on,,,,,0,0,1,,,,,,0,67,40
31680,note_on,,,,,0,0,1,,,,,,0,75,40
31680,note_on,,,,,0,0,2,,,,,,0,51,34
31680,note_on,,,,,0,0,1,,,,,,0,79,40
31680,note_on,,,,,120,0,2,,,,,,0,46,0
31700,set_tempo,,,,,120,1,0,,560747,,,,,,
31730,note_on,,,,,50,0,2,,,,,,0,51,0
31740,note_on,,,,,0,0,2,,,,,,0,50,39
31740,note_on,,,,,10,0,2,,,,,,0,58,0
31740,control_change,,,,,60,0,1,,,,64,0,0,,
31800,note_on,,,,,60,0,2,,,,,,0,50,0
31800,note_on,,,,,0,0,2,,,,,,0,51,36
31830,note_on,,,,,0,0,1,,,,,,0,67,0
31830,note_on,,,,,0,0,1,,,,,,0,75,0
31830,note_on,,,,,90,0,1,,,,,,0,79,0
31840,set_tempo,,,,,140,1,0,,571428,,,,,,
31848,note_on,,,,,48,0,2,,,,,,0,51,0
31860,note_on,,,,,0,0,1,,,,,,0,58,33
31860,note_on,,,,,30,0,1,,,,,,0,70,33
31860,set_tempo,,,,,20,1,0,,555555,,,,,,
31860,note_on,,,,,12,0,2,,,,,,0,46,30
31860,note_on,,,,,0,0,2,,,,,,0,51,30
31860,control_change,,,,,0,0,1,,,,64,95,0,,
31908,note_on,,,,,0,0,2,,,,,,0,46,0
31908,note_on,,,,,48,0,2,,,,,,0,51,0
31908,note_on,,,,,0,0,1,,,,,,0,70,0
31908,note_on,,,,,48,0,1,,,,,,0,58,0
31920,note_on,,,,,12,0,2,,,,,,0,44,30
31920,note_on,,,,,0,0,2,,,,,,0,51,30
31920,note_on,,,,,0,0,1,,,,,,0,70,37
31920,note_on,,,,,12,0,1,,,,,,0,58,37
31968,note_on,,,,,48,0,2,,,,,,0,51,0
31968,note_on,,,,,0,0,2,,,,,,0,44,0
31968,note_on,,,,,48,0,1,,,,,,0,70,0
31968,note_on,,,,,0,0,1,,,,,,0,58,0
31980,note_on,,,,,12,0,2,,,,,,0,43,32
31980,note_on,,,,,0,0,2,,,,,,0,51,32
31980,note_on,,,,,12,0,1,,,,,,0,70,42
31980,note_on,,,,,0,0,1,,,,,,0,58,42
32028,note_on,,,,,48,0,1,,,,,,0,58,0
32028,note_on,,,,,0,0,1,,,,,,0,70,0
32028,note_on,,,,,0,0,2,,,,,,0,43,0
32028,note_on,,,,,48,0,2,,,,,,0,51,0
32035,control_change,,,,,7,0,1,,,,64,0,0,,
32040,note_on,,,,,5,0,1,,,,,,0,71,44
32040,note_on,,,,,0,0,1,,,,,,0,59,44
32040,control_change,,,,,0,0,1,,,,64,96,0,,
32040,note_on,,,,,0,0,2,,,,,,0,51,39
32040,note_on,,,,,12,0,2,,,,,,0,44,39
32040,set_tempo,,,,,180,1,0,,550458,,,,,,
32080,set_tempo,,,,,40,1,0,,545454,,,,,,
32100,note_on,,,,,60,0,2,,,,,,0,51,0
32100,note_on,,,,,0,0,2,,,,,,0,44,0
32100,note_on,,,,,0,0,2,,,,,,0,43,33
32100,note_on,,,,,0,0,2,,,,,,0,51,33
32140,set_tempo,,,,,60,1,0,,540540,,,,,,
32160,set_tempo,,,,,20,1,0,,535714,,,,,,
32160,note_on,,,,,0,0,1,,,,,,0,75,43
32160,note_on,,,,,0,0,1,,,,,,0,63,43
32160,note_on,,,,,0,0,1,,,,,,0,71,0
32160,note_on,,,,,60,0,2,,,,,,0,51,0
32160,note_on,,,,,0,0,2,,,,,,0,43,0
32160,note_on,,,,,0,0,2,,,,,,0,44,43
32160,note_on,,,,,0,0,2,,,,,,0,51,43
32160,note_on,,,,,120,0,1,,,,,,0,59,0
32170,control_change,,,,,10,0,1,,,,64,0,0,,
32200,set_tempo,,,,,40,1,0,,530973,,,,,,
32220,note_on,,,,,0,0,2,,,,,,0,51,38
32220,note_on,,,,,0,0,2,,,,,,0,46,38
32220,note_on,,,,,50,0,1,,,,,,0,75,0
32220,note_on,,,,,0,0,1,,,,,,0,63,0
32220,note_on,,,,,0,0,1,,,,,,0,68,40
32220,note_on,,,,,0,0,1,,,,,,0,80,40
32220,note_on,,,,,0,0,2,,,,,,0,44,0
32220,note_on,,,,,60,0,2,,,,,,0,51,0
32240,set_tempo,,,,,40,1,0,,526315,,,,,,
32280,note_on,,,,,60,0,1,,,,,,0,80,0
32280,note_on,,,,,0,0,1,,,,,,0,63,32
32280,note_on,,,,,0,0,1,,,,,,0,75,32
32280,note_on,,,,,0,0,1,,,,,,0,68,0
32280,note_on,,,,,60,0,2,,,,,,0,51,0
32280,note_on,,,,,0,0,2,,,,,,0,46,0
32280,note_on,,,,,0,0,2,,,,,,0,47,37
32280,note_on,,,,,0,0,2,,,,,,0,51,37
32290,set_tempo,,,,,50,1,0,,521739,,,,,,
32320,set_tempo,,,,,30,1,0,,517241,,,,,,
32340,note_on,,,,,60,0,1,,,,,,0,75,0
32340,note_on,,,,,0,0,1,,,,,,0,63,0
32340,note_on,,,,,0,0,2,,,,,,0,47,0
32340,note_on,,,,,0,0,2,,,,,,0,50,33
32340,note_on,,,,,0,0,2,,,,,,0,51,33
32340,note_on,,,,,0,0,1,,,,,,0,59,37
32340,note_on,,,,,60,0,2,,,,,,0,51,0
32340,note_on,,,,,0,0,1,,,,,,0,71,37
32350,set_tempo,,,,,30,1,0,,512820,,,,,,
32400,control_change,,,,,0,0,1,,,,64,95,0,,
32400,note_on,,,,,0,0,1,,,,,,0,59,0
32400,note_on,,,,,0,0,1,,,,,,0,59,42
32400,note_on,,,,,0,0,1,,,,,,0,71,42
32400,note_on,,,,,60,0,1,,,,,,0,71,0
32400,note_on,,,,,60,0,2,,,,,,0,51,0
32400,note_on,,,,,0,0,2,,,,,,0,50,0
32400,note_on,,,,,0,0,2,,,,,,0,51,39
32460,note_on,,,,,60,0,2,,,,,,0,51,0
32460,note_on,,,,,0,0,2,,,,,,0,39,35
32520,note_on,,,,,0,0,1,,,,,,0,59,0
32520,note_on,,,,,0,0,1,,,,,,0,70,33
32520,note_on,,,,,120,0,1,,,,,,0,71,0
32520,note_on,,,,,0,0,1,,,,,,0,58,33
32520,control_change,,,,,0,0,1,,,,64,0,0,,
32520,note_on,,,,,0,0,2,,,,,,0,39,33
32520,note_on,,,,,60,0,2,,,,,,0,39,0
32520,note_on,,,,,0,0,2,,,,,,0,43,33
32580,note_on,,,,,0,0,2,,,,,,0,44,29
32580,note_on,,,,,0,0,2,,,,,,0,39,29
32580,note_on,,,,,60,0,2,,,,,,0,43,0
32580,note_on,,,,,0,0,2,,,,,,0,39,0
32640,note_on,,,,,60,0,2,,,,,,0,44,0
32640,note_on,,,,,0,0,2,,,,,,0,39,36
32640,note_on,,,,,0,0,2,,,,,,0,43,36
32640,note_on,,,,,0,0,2,,,,,,0,39,0
32650,set_tempo,,,,,300,1,0,,517241,,,,,,
32670,note_on,,,,,0,0,1,,,,,,0,70,0
32670,set_tempo,,,,,20,1,0,,512820,,,,,,
32670,note_on,,,,,150,0,1,,,,,,0,58,0
32692,note_on,,,,,52,0,2,,,,,,0,43,0
32692,note_on,,,,,0,0,2,,,,,,0,39,0
32700,note_on,,,,,30,0,1,,,,,,0,57,39
32700,note_on,,,,,0,0,1,,,,,,0,69,39
32700,note_on,,,,,8,0,2,,,,,,0,39,46
32700,note_on,,,,,0,0,2,,,,,,0,47,46
32720,set_tempo,,,,,50,1,0,,517241,,,,,,
32760,note_on,,,,,60,0,2,,,,,,0,47,0
32760,note_on,,,,,0,0,2,,,,,,0,39,0
32760,note_on,,,,,0,0,2,,,,,,0,38,31
32760,note_on,,,,,0,0,1,,,,,,0,57,0
32760,control_change,,,,,0,0,1,,,,64,94,0,,
32760,note_on,,,,,0,0,1,,,,,,0,70,41
32760,note_on,,,,,0,0,1,,,,,,0,58,41
32760,note_on,,,,,60,0,1,,,,,,0,69,0
32760,note_on,,,,,0,0,2,,,,,,0,46,31
32800,set_tempo,,,,,80,1,0,,521739,,,,,,
32820,note_on,,,,,60,0,2,,,,,,0,38,0
32820,note_on,,,,,0,0,2,,,,,,0,40,34
32875,control_change,,,,,115,0,1,,,,64,0,0,,
32880,note_on,,,,,60,0,2,,,,,,0,40,0
32880,note_on,,,,,0,0,2,,,,,,0,41,34
32880,note_on,,,,,0,0,1,,,,,,0,68,35
32880,note_on,,,,,0,0,1,,,,,,0,56,35
32880,note_on,,,,,5,0,1,,,,,,0,70,0
32880,note_on,,,,,0,0,1,,,,,,0,58,0
32940,note_on,,,,,0,0,2,,,,,,0,33,39
32940,note_on,,,,,60,0,2,,,,,,0,41,0
32940,note_on,,,,,60,0,1,,,,,,0,68,0
32940,note_on,,,,,0,0,1,,,,,,0,56,0
32940,note_on,,,,,0,0,1,,,,,,0,55,35
32940,note_on,,,,,0,0,1,,,,,,0,67,35
32960,set_tempo,,,,,160,1,0,,526315,,,,,,
33000,note_on,,,,,0,0,1,,,,,,0,68,36
33000,note_on,,,,,0,0,1,,,,,,0,62,36
33000,note_on,,,,,0,0,1,,,,,,0,56,36
33000,control_change,,,,,0,0,1,,,,64,95,0,,
33000,note_on,,,,,0,0,1,,,,,,0,55,0
33000,note_on,,,,,60,0,1,,,,,,0,67,0
33000,note_on,,,,,0,0,2,,,,,,0,46,0
33000,note_on,,,,,0,0,2,,,,,,0,34,39
33000,note_on,,,,,60,0,2,,,,,,0,33,0
33000,note_on,,,,,0,0,2,,,,,,0,46,39
33020,set_tempo,,,,,60,1,0,,530973,,,,,,
33115,control_change,,,,,115,0,1,,,,64,0,0,,
33120,note_on,,,,,0,0,1,,,,,,0,62,0
33120,note_on,,,,,0,0,1,,,,,,0,56,0
33120,note_on,,,,,0,0,1,,,,,,0,55,31
33120,note_on,,,,,0,0,1,,,,,,0,63,31
33120,note_on,,,,,0,0,1,,,,,,0,67,31
33120,control_change,,,,,0,0,1,,,,64,95,0,,
33120,note_on,,,,,120,0,2,,,,,,0,34,0
33120,note_on,,,,,0,0,2,,,,,,0,39,34
33120,note_on,,,,,0,0,2,,,,,,0,46,0
33120,note_on,,,,,5,0,1,,,,,,0,68,0
33170,note_on,,,,,50,0,2,,,,,,0,39,0
33180,note_on,,,,,10,0,2,,,,,,0,45,39
33235,control_change,,,,,115,0,1,,,,64,0,0,,
33240,note_on,,,,,0,0,2,,,,,,0,46,39
33240,note_on,,,,,60,0,2,,,,,,0,45,0
33270,note_on,,,,,0,0,1,,,,,,0,63,0
33270,note_on,,,,,0,0,1,,,,,,0,55,0
33270,note_on,,,,,35,0,1,,,,,,0,67,0
33300,note_on,,,,,60,0,2,,,,,,0,46,0
33300,note_on,,,,,0,0,2,,,,,,0,50,39
33300,note_on,,,,,30,0,1,,,,,,0,70,31
33320,set_tempo,,,,,300,1,0,,535714,,,,,,
33360,note_on,,,,,0,0,1,,,,,,0,68,32
33360,note_on,,,,,60,0,1,,,,,,0,70,0
33360,note_on,,,,,60,0,2,,,,,,0,50,0
33360,note_on,,,,,0,0,2,,,,,,0,51,39
33420,note_on,,,,,0,0,1,,,,,,0,67,35
33420,note_on,,,,,60,0,1,,,,,,0,68,0
33420,note_on,,,,,60,0,2,,,,,,0,51,0
33480,note_on,,,,,0,0,1,,,,,,0,70,36
33480,note_on,,,,,60,0,1,,,,,,0,67,0
33500,set_tempo,,,,,180,1,0,,540540,,,,,,
33540,note_on,,,,,120,0,2,,,,,,0,52,39
33600,note_on,,,,,60,0,2,,,,,,0,52,0
33600,note_on,,,,,0,0,1,,,,,,0,68,29
33600,note_on,,,,,0,0,2,,,,,,0,53,39
33600,note_on,,,,,120,0,1,,,,,,0,70,0
33660,note_on,,,,,60,0,2,,,,,,0,53,0
33660,note_on,,,,,0,0,2,,,,,,0,45,39
33660,note_on,,,,,0,0,1,,,,,,0,67,30
33660,note_on,,,,,60,0,1,,,,,,0,68,0
33720,control_change,,,,,0,0,1,,,,64,95,0,,
33720,note_on,,,,,60,0,2,,,,,,0,45,0
33720,note_on,,,,,0,0,2,,,,,,0,46,39
33720,note_on,,,,,0,0,2,,,,,,0,58,39
33720,note_on,,,,,60,0,1,,,,,,0,67,0
33720,note_on,,,,,0,0,1,,,,,,0,68,32
33740,set_tempo,,,,,240,1,0,,545454,,,,,,
33835,control_change,,,,,115,0,1,,,,64,0,0,,
33840,note_on,,,,,0,0,1,,,,,,0,63,34
33840,note_on,,,,,0,0,1,,,,,,0,67,34
33840,control_change,,,,,0,0,1,,,,64,95,0,,
33840,note_on,,,,,5,0,1,,,,,,0,68,0
33840,note_on,,,,,0,0,2,,,,,,0,46,0
33840,note_on,,,,,0,0,2,,,,,,0,58,34
33840,note_on,,,,,120,0,2,,,,,,0,58,0
33840,note_on,,,,,0,0,2,,,,,,0,51,34
33890,note_on,,,,,0,0,2,,,,,,0,58,0
33890,note_on,,,,,50,0,2,,,,,,0,51,0
33900,note_on,,,,,10,0,2,,,,,,0,45,39
33900,control_change,,,,,60,0,1,,,,64,0,0,,
33930,note_on,,,,,30,0,1,,,,,,0,67,0
33930,note_on,,,,,0,0,1,,,,,,0,63,0
33960,note_on,,,,,60,0,2,,,,,,0,45,0
33960,note_on,,,,,30,0,1,,,,,,0,72,37
33960,note_on,,,,,0,0,1,,,,,,0,75,37
33960,note_on,,,,,0,0,1,,,,,,0,84,37
33960,note_on,,,,,0,0,2,,,,,,0,46,39
34080,note_on,,,,,0,0,2,,,,,,0,58,34
34080,note_on,,,,,120,0,2,,,,,,0,46,0
34080,note_on,,,,,0,0,1,,,,,,0,72,0
34080,control_change,,,,,0,0,1,,,,64,94,0,,
34080,note_on,,,,,0,0,1,,,,,,0,80,41
34080,note_on,,,,,0,0,1,,,,,,0,74,41
34080,note_on,,,,,0,0,1,,,,,,0,75,0
34080,note_on,,,,,120,0,1,,,,,,0,84,0
34080,note_on,,,,,0,0,2,,,,,,0,46,34
34150,set_tempo,,,,,410,1,0,,550458,,,,,,
34195,control_change,,,,,115,0,1,,,,64,0,0,,
34200,note_on,,,,,120,0,2,,,,,,0,58,0
34200,control_change,,,,,0,0,1,,,,64,95,0,,
34200,note_on,,,,,0,0,2,,,,,,0,51,34
34200,note_on,,,,,0,0,2,,,,,,0,58,34
34200,note_on,,,,,0,0,2,,,,,,0,46,0
34200,note_on,,,,,0,0,1,,,,,,0,75,34
34200,note_on,,,,,5,0,1,,,,,,0,80,0
34200,note_on,,,,,0,0,1,,,,,,0,74,0
34200,note_on,,,,,0,0,1,,,,,,0,79,34
34250,note_on,,,,,0,0,2,,,,,,0,58,0
34250,note_on,,,,,50,0,2,,,,,,0,51,0
34260,control_change,,,,,60,0,1,,,,64,0,0,,
34260,note_on,,,,,10,0,2,,,,,,0,45,39
34290,note_on,,,,,30,0,1,,,,,,0,75,0
34290,note_on,,,,,0,0,1,,,,,,0,79,0
34310,set_tempo,,,,,160,1,0,,555555,,,,,,
34320,note_on,,,,,60,0,2,,,,,,0,45,0
34320,note_on,,,,,0,0,2,,,,,,0,46,39
34320,note_on,,,,,30,0,1,,,,,,0,60,34
34320,note_on,,,,,0,0,1,,,,,,0,63,34
34320,note_on,,,,,0,0,1,,,,,,0,72,34
34440,control_change,,,,,0,0,1,,,,64,95,0,,
34440,note_on,,,,,0,0,1,,,,,,0,68,37
34440,note_on,,,,,0,0,1,,,,,,0,62,37
34440,note_on,,,,,0,0,1,,,,,,0,60,0
34440,note_on,,,,,120,0,1,,,,,,0,72,0
34440,note_on,,,,,0,0,1,,,,,,0,63,0
34440,note_on,,,,,0,0,2,,,,,,0,46,34
34440,note_on,,,,,0,0,2,,,,,,0,58,34
34440,note_on,,,,,120,0,2,,,,,,0,46,0
34555,control_change,,,,,115,0,1,,,,64,0,0,,
34560,note_on,,,,,0,0,1,,,,,,0,62,0
34560,note_on,,,,,120,0,2,,,,,,0,58,0
34560,note_on,,,,,0,0,2,,,,,,0,46,0
34560,note_on,,,,,5,0,1,,,,,,0,68,0
34560,note_on,,,,,0,0,2,,,,,,0,58,34
34560,note_on,,,,,0,0,1,,,,,,0,63,28
34560,note_on,,,,,0,0,2,,,,,,0,51,34
34560,control_change,,,,,0,0,1,,,,64,96,0,,
34560,note_on,,,,,0,0,1,,,,,,0,67,28
34610,note_on,,,,,50,0,2,,,,,,0,51,0
34610,note_on,,,,,0,0,2,,,,,,0,58,0
34620,control_change,,,,,60,0,1,,,,64,0,0,,
34620,note_on,,,,,10,0,2,,,,,,0,45,39
34650,note_on,,,,,30,0,1,,,,,,0,67,0
34650,note_on,,,,,0,0,1,,,,,,0,63,0
34680,note_on,,,,,30,0,1,,,,,,0,74,32
34680,control_change,,,,,0,0,1,,,,64,95,0,,
34680,note_on,,,,,0,0,1,,,,,,0,80,32
34680,note_on,,,,,0,0,2,,,,,,0,46,34
34680,note_on,,,,,0,0,2,,,,,,0,58,34
34680,note_on,,,,,60,0,2,,,,,,0,45,0
34690,set_tempo,,,,,380,1,0,,571428,,,,,,
34720,set_tempo,,,,,30,1,0,,582524,,,,,,
34740,set_tempo,,,,,20,1,0,,588235,,,,,,
34760,set_tempo,,,,,20,1,0,,594059,,,,,,
34780,set_tempo,,,,,20,1,0,,600000,,,,,,
34800,note_on,,,,,120,0,2,,,,,,0,46,0
34800,note_on,,,,,0,0,1,,,,,,0,75,25
34800,note_on,,,,,0,0,2,,,,,,0,51,34
34800,note_on,,,,,0,0,2,,,,,,0,58,34
34800,note_on,,,,,0,0,1,,,,,,0,74,0
34800,note_on,,,,,0,0,1,,,,,,0,79,25
34800,control_change,,,,,0,0,1,,,,64,0,0,,
34800,note_on,,,,,0,0,2,,,,,,0,58,0
34800,note_on,,,,,120,0,1,,,,,,0,80,0
34850,set_tempo,,,,,70,1,0,,606060,,,,,,
34850,note_on,,,,,0,0,2,,,,,,0,51,0
34850,note_on,,,,,50,0,2,,,,,,0,58,0
34860,note_on,,,,,10,0,2,,,,,,0,45,39
34860,set_tempo,,,,,10,1,0,,612244,,,,,,
34890,note_on,,,,,90,0,1,,,,,,0,75,0
34890,set_tempo,,,,,30,1,0,,618556,,,,,,
34890,note_on,,,,,0,0,1,,,,,,0,79,0
34920,note_on,,,,,0,0,2,,,,,,0,46,44
34920,note_on,,,,,0,0,1,,,,,,0,68,33
34920,control_change,,,,,0,0,1,,,,64,95,0,,
34920,note_on,,,,,0,0,2,,,,,,0,58,44
34920,note_on,,,,,30,0,1,,,,,,0,62,33
34920,note_on,,,,,60,0,2,,,,,,0,45,0
34930,set_tempo,,,,,40,1,0,,625000,,,,,,
34970,set_tempo,,,,,40,1,0,,631578,,,,,,
34990,set_tempo,,,,,20,1,0,,638297,,,,,,
35000,set_tempo,,,,,10,1,0,,645161,,,,,,
35035,control_change,,,,,115,0,1,,,,64,0,0,,
35040,note_on,,,,,0,0,2,,,,,,0,58,45
35040,note_on,,,,,0,0,2,,,,,,0,58,0
35040,note_on,,,,,0,0,2,,,,,,0,51,45
35040,note_on,,,,,120,0,2,,,,,,0,46,0
35040,note_on,,,,,0,0,1,,,,,,0,67,26
35040,note_on,,,,,0,0,1,,,,,,0,62,0
35040,set_tempo,,,,,40,1,0,,652173,,,,,,
35040,note_on,,,,,0,0,1,,,,,,0,63,26
35040,note_on,,,,,5,0,1,,,,,,0,68,0
35050,set_tempo,,,,,10,1,0,,659340,,,,,,
35080,set_tempo,,,,,30,1,0,,666666,,,,,,
35090,note_on,,,,,50,0,2,,,,,,0,58,0
35090,note_on,,,,,0,0,2,,,,,,0,51,0
35100,note_on,,,,,10,0,2,,,,,,0,42,77
35120,set_tempo,,,,,40,1,0,,674157,,,,,,
35130,note_on,,,,,0,0,1,,,,,,0,63,0
35130,note_on,,,,,90,0,1,,,,,,0,67,0
35130,set_tempo,,,,,10,1,0,,681818,,,,,,
35150,set_tempo,,,,,20,1,0,,833333,,,,,,
35160,control_change,,,,,30,0,1,,,,64,95,0,,
35160,note_on,,,,,0,0,2,,,,,,0,59,93
35160,note_on,,,,,0,0,2,,,,,,0,55,93
35160,note_on,,,,,0,0,2,,,,,,0,53,93
35160,note_on,,,,,0,0,2,,,,,,0,50,93
35160,note_on,,,,,0,0,2,,,,,,0,43,93
35160,note_on,,,,,60,0,2,,,,,,0,42,0
35265,note_on,,,,,0,0,2,,,,,,0,53,0
35265,note_on,,,,,0,0,2,,,,,,0,43,0
35265,note_on,,,,,0,0,2,,,,,,0,50,0
35265,note_on,,,,,0,0,2,,,,,,0,55,0
35265,note_on,,,,,105,0,2,,,,,,0,59,0
35275,control_change,,,,,115,0,1,,,,64,0,0,,
35280,set_tempo,,,,,130,1,0,,447761,,,,,,
35280,note_on,,,,,0,0,2,,,,,,0,55,111
35280,control_change,,,,,5,0,1,,,,91,96,0,,
35280,note_on,,,,,0,0,2,,,,,,0,60,111
35280,note_on,,,,,0,0,2,,,,,,0,51,111
35280,note_on,,,,,0,0,2,,,,,,0,48,111
35280,note_on,,,,,15,0,2,,,,,,0,36,111
35280,control_change,,,,,0,0,1,,,,64,95,0,,
35520,control_change,,,,,240,0,1,,,,64,0,0,,
35520,note_on,,,,,240,0,2,,,,,,0,60,0
35520,note_on,,,,,0,0,2,,,,,,0,51,0
35520,note_on,,,,,0,0,2,,,,,,0,36,0
35520,note_on,,,,,0,0,2,,,,,,0,48,0
35520,note_on,,,,,0,0,2,,,,,,0,55,0
35600,set_tempo,,,,,320,1,0,,504201,,,,,,
35610,note_on,,,,,90,0,2,,,,,,0,36,100
35610,note_on,,,,,0,0,2,,,,,,0,60,100
35610,note_on,,,,,0,0,2,,,,,,0,55,100
35610,note_on,,,,,0,0,2,,,,,,0,51,100
35610,note_on,,,,,0,0,2,,,,,,0,48,100
35631,note_on,,,,,0,0,2,,,,,,0,48,0
35631,note_on,,,,,0,0,2,,,,,,0,36,0
35631,note_on,,,,,0,0,2,,,,,,0,51,0
35631,note_on,,,,,21,0,2,,,,,,0,60,0
35631,note_on,,,,,0,0,2,,,,,,0,55,0
35640,note_on,,,,,0,0,2,,,,,,0,62,118
35640,note_on,,,,,0,0,2,,,,,,0,48,118
35640,note_on,,,,,0,0,2,,,,,,0,53,118
35640,note_on,,,,,0,0,2,,,,,,0,56,118
35640,note_on,,,,,9,0,2,,,,,,0,36,118
35640,control_change,,,,,120,0,1,,,,64,96,0,,
35650,set_tempo,,,,,50,1,0,,447761,,,,,,
35730,note_on,,,,,0,0,2,,,,,,0,48,0
35730,note_on,,,,,0,0,2,,,,,,0,36,0
35730,note_on,,,,,0,0,2,,,,,,0,56,0
35730,note_on,,,,,0,0,2,,,,,,0,53,0
35730,note_on,,,,,90,0,2,,,,,,0,62,0
35760,note_on,,,,,30,0,2,,,,,,0,36,86
35760,note_on,,,,,0,0,2,,,,,,0,48,86
35760,note_on,,,,,0,0,2,,,,,,0,53,86
35760,note_on,,,,,0,0,2,,,,,,0,56,86
35760,note_on,,,,,0,0,2,,,,,,0,62,86
35850,note_on,,,,,0,0,2,,,,,,0,36,0
35850,note_on,,,,,0,0,2,,,,,,0,48,0
35850,note_on,,,,,0,0,2,,,,,,0,53,0
35850,note_on,,,,,90,0,2,,,,,,0,62,0
35850,note_on,,,,,0,0,2,,,,,,0,56,0
35880,set_tempo,,,,,230,1,0,,504201,,,,,,
35880,control_change,,,,,240,0,1,,,,64,0,0,,
36000,set_tempo,,,,,120,1,0,,461538,,,,,,
36000,control_change,,,,,0,0,1,,,,64,96,0,,
36000,note_on,,,,,0,0,2,,,,,,0,55,116
36000,note_on,,,,,150,0,2,,,,,,0,58,116
36000,note_on,,,,,120,0,1,,,,,,0,64,113
36000,note_on,,,,,0,0,2,,,,,,0,48,116
36010,set_tempo,,,,,10,1,0,,458015,,,,,,
36040,set_tempo,,,,,30,1,0,,454545,,,,,,
36060,set_tempo,,,,,20,1,0,,447761,,,,,,
36120,set_tempo,,,,,60,1,0,,444444,,,,,,
36120,note_on,,,,,120,0,1,,,,,,0,64,0
36130,set_tempo,,,,,10,1,0,,441176,,,,,,
36150,note_on,,,,,30,0,1,,,,,,0,65,89
36150,control_change,,,,,0,0,1,,,,64,0,0,,
36160,set_tempo,,,,,30,1,0,,434782,,,,,,
36170,set_tempo,,,,,10,1,0,,431654,,,,,,
36174,note_on,,,,,24,0,1,,,,,,0,65,0
36180,note_on,,,,,6,0,1,,,,,,0,67,93
36200,set_tempo,,,,,30,1,0,,425531,,,,,,
36204,note_on,,,,,24,0,1,,,,,,0,67,0
36210,note_on,,,,,6,0,1,,,,,,0,68,101
36230,set_tempo,,,,,30,1,0,,422535,,,,,,
36234,note_on,,,,,24,0,1,,,,,,0,68,0
36240,note_on,,,,,6,0,1,,,,,,0,70,106
36240,set_tempo,,,,,10,1,0,,419580,,,,,,
36240,note_on,,,,,240,0,2,,,,,,0,48,0
36240,note_on,,,,,0,0,2,,,,,,0,55,0
36240,note_on,,,,,0,0,2,,,,,,0,58,0
36250,set_tempo,,,,,10,1,0,,416666,,,,,,
36268,note_on,,,,,28,0,1,,,,,,0,70,0
36270,note_on,,,,,2,0,1,,,,,,0,72,111
36280,set_tempo,,,,,30,1,0,,410958,,,,,,
36294,note_on,,,,,24,0,1,,,,,,0,72,0
36300,note_on,,,,,6,0,1,,,,,,0,74,117
36310,set_tempo,,,,,30,1,0,,408163,,,,,,
36320,set_tempo,,,,,10,1,0,,402684,,,,,,
36324,note_on,,,,,24,0,1,,,,,,0,74,0
36330,set_tempo,,,,,10,1,0,,400000,,,,,,
36330,note_on,,,,,0,0,2,,,,,,0,55,100
36330,note_on,,,,,0,0,2,,,,,,0,58,100
36330,note_on,,,,,6,0,1,,,,,,0,76,123
36330,note_on,,,,,90,0,2,,,,,,0,48,100
36350,set_tempo,,,,,20,1,0,,397350,,,,,,
36354,note_on,,,,,24,0,2,,,,,,0,58,0
36354,note_on,,,,,0,0,2,,,,,,0,48,0
36354,note_on,,,,,24,0,1,,,,,,0,76,0
36354,note_on,,,,,0,0,2,,,,,,0,55,0
36360,control_change,,,,,0,0,1,,,,64,95,0,,
36360,note_on,,,,,6,0,1,,,,,,0,65,127
36360,set_tempo,,,,,10,1,0,,444444,,,,,,
36360,note_on,,,,,0,0,2,,,,,,0,60,125
36360,note_on,,,,,0,0,2,,,,,,0,57,125
36360,note_on,,,,,6,0,2,,,,,,0,48,125
36450,note_on,,,,,0,0,2,,,,,,0,57,0
36450,note_on,,,,,0,0,2,,,,,,0,48,0
36450,note_on,,,,,90,0,1,,,,,,0,65,0
36450,note_on,,,,,90,0,2,,,,,,0,60,0
36480,note_on,,,,,30,0,2,,,,,,0,48,86
36480,note_on,,,,,0,0,2,,,,,,0,57,86
36480,note_on,,,,,0,0,2,,,,,,0,60,86
36480,note_on,,,,,0,0,1,,,,,,0,77,94
36480,note_on,,,,,0,0,1,,,,,,0,72,94
36480,note_on,,,,,30,0,1,,,,,,0,65,94
36570,note_on,,,,,90,0,1,,,,,,0,77,0
36570,note_on,,,,,90,0,2,,,,,,0,60,0
36570,note_on,,,,,0,0,2,,,,,,0,57,0
36570,note_on,,,,,0,0,2,,,,,,0,48,0
36570,note_on,,,,,0,0,1,,,,,,0,72,0
36570,note_on,,,,,0,0,1,,,,,,0,65,0
36600,control_change,,,,,30,0,1,,,,64,0,0,,
36680,set_tempo,,,,,320,1,0,,504201,,,,,,
36690,note_on,,,,,0,0,1,,,,,,0,77,107
36690,note_on,,,,,0,0,1,,,,,,0,72,107
36690,note_on,,,,,90,0,1,,,,,,0,65,107
36690,note_on,,,,,120,0,2,,,,,,0,57,110
36690,note_on,,,,,0,0,2,,,,,,0,48,110
36690,note_on,,,,,0,0,2,,,,,,0,60,110
36714,note_on,,,,,0,0,1,,,,,,0,65,0
36714,note_on,,,,,0,0,1,,,,,,0,72,0
36714,note_on,,,,,0,0,2,,,,,,0,57,0
36714,note_on,,,,,24,0,1,,,,,,0,77,0
36714,note_on,,,,,0,0,2,,,,,,0,48,0
36714,note_on,,,,,24,0,2,,,,,,0,60,0
36720,set_tempo,,,,,40,1,0,,444444,,,,,,
36720,control_change,,,,,0,0,1,,,,64,95,0,,
36720,note_on,,,,,0,0,1,,,,,,0,72,119
36720,note_on,,,,,6,0,1,,,,,,0,66,119
36720,note_on,,,,,0,0,1,,,,,,0,75,119
36720,note_on,,,,,0,0,1,,,,,,0,78,119
36720,note_on,,,,,0,0,2,,,,,,0,56,119
36720,note_on,,,,,0,0,2,,,,,,0,60,119
36720,note_on,,,,,6,0,2,,,,,,0,48,119
36810,note_on,,,,,0,0,2,,,,,,0,48,0
36810,note_on,,,,,90,0,1,,,,,,0,78,0
36810,note_on,,,,,0,0,1,,,,,,0,66,0
36810,note_on,,,,,0,0,1,,,,,,0,72,0
36810,note_on,,,,,0,0,1,,,,,,0,75,0
36810,note_on,,,,,0,0,2,,,,,,0,56,0
36810,note_on,,,,,90,0,2,,,,,,0,60,0
36840,note_on,,,,,30,0,1,,,,,,0,66,94
36840,note_on,,,,,0,0,1,,,,,,0,78,94
36840,note_on,,,,,30,0,2,,,,,,0,48,86
36840,note_on,,,,,0,0,2,,,,,,0,56,86
36840,note_on,,,,,0,0,2,,,,,,0,60,86
36840,note_on,,,,,0,0,1,,,,,,0,72,94
36840,note_on,,,,,0,0,1,,,,,,0,75,94
36930,note_on,,,,,0,0,1,,,,,,0,72,0
36930,note_on,,,,,0,0,1,,,,,,0,66,0
36930,note_on,,,,,0,0,1,,,,,,0,75,0
36930,note_on,,,,,0,0,2,,,,,,0,48,0
36930,note_on,,,,,0,0,2,,,,,,0,56,0
36930,note_on,,,,,90,0,2,,,,,,0,60,0
36930,note_on,,,,,90,0,1,,,,,,0,78,0
36960,control_change,,,,,30,0,1,,,,64,0,0,,
37040,set_tempo,,,,,320,1,0,,545454,,,,,,
37050,note_on,,,,,120,0,2,,,,,,0,48,116
37050,note_on,,,,,0,0,2,,,,,,0,56,116
37050,note_on,,,,,0,0,2,,,,,,0,60,116
37050,note_on,,,,,0,0,1,,,,,,0,78,114
37050,note_on,,,,,90,0,1,,,,,,0,66,114
37050,note_on,,,,,0,0,1,,,,,,0,72,114
37050,note_on,,,,,0,0,1,,,,,,0,75,114
37074,note_on,,,,,24,0,1,,,,,,0,78,0
37074,note_on,,,,,0,0,1,,,,,,0,66,0
37074,note_on,,,,,0,0,1,,,,,,0,75,0
37074,note_on,,,,,24,0,2,,,,,,0,60,0
37074,note_on,,,,,0,0,2,,,,,,0,56,0
37074,note_on,,,,,0,0,2,,,,,,0,48,0
37074,note_on,,,,,0,0,1,,,,,,0,72,0
37080,note_on,,,,,0,0,2,,,,,,0,60,126
37080,note_on,,,,,0,0,2,,,,,,0,55,126
37080,note_on,,,,,6,0,2,,,,,,0,48,126
37080,control_change,,,,,0,0,1,,,,64,95,0,,
37080,note_on,,,,,0,0,1,,,,,,0,79,127
37080,note_on,,,,,0,0,1,,,,,,0,75,127
37080,note_on,,,,,0,0,1,,,,,,0,72,127
37080,note_on,,,,,6,0,1,,,,,,0,67,127
37110,set_tempo,,,,,70,1,0,,447761,,,,,,
37170,note_on,,,,,90,0,1,,,,,,0,79,0
37170,note_on,,,,,0,0,1,,,,,,0,75,0
37170,note_on,,,,,0,0,1,,,,,,0,67,0
37170,note_on,,,,,90,0,2,,,,,,0,60,0
37170,note_on,,,,,0,0,1,,,,,,0,72,0
37170,note_on,,,,,0,0,2,,,,,,0,55,0
37170,note_on,,,,,0,0,2,,,,,,0,48,0
37200,note_on,,,,,0,0,1,,,,,,0,75,97
37200,note_on,,,,,0,0,1,,,,,,0,79,97
37200,note_on,,,,,0,0,1,,,,,,0,72,97
37200,note_on,,,,,30,0,1,,,,,,0,67,97
37200,note_on,,,,,0,0,2,,,,,,0,55,93
37200,note_on,,,,,30,0,2,,,,,,0,48,93
37200,note_on,,,,,0,0,2,,,,,,0,60,93
37290,note_on,,,,,90,0,2,,,,,,0,60,0
37290,note_on,,,,,0,0,2,,,,,,0,55,0
37290,note_on,,,,,0,0,1,,,,,,0,75,0
37290,note_on,,,,,90,0,1,,,,,,0,79,0
37290,note_on,,,,,0,0,1,,,,,,0,67,0
37290,note_on,,,,,0,0,2,,,,,,0,48,0
37290,note_on,,,,,0,0,1,,,,,,0,72,0
37320,control_change,,,,,30,0,1,,,,64,0,0,,
37410,note_on,,,,,90,0,1,,,,,,0,67,114
37410,note_on,,,,,0,0,1,,,,,,0,79,114
37434,note_on,,,,,0,0,1,,,,,,0,67,0
37434,note_on,,,,,24,0,1,,,,,,0,79,0
37440,note_on,,,,,0,0,2,,,,,,0,51,125
37440,note_on,,,,,6,0,1,,,,,,0,68,125
37440,note_on,,,,,0,0,1,,,,,,0,80,125
37440,control_change,,,,,0,0,1,,,,64,95,0,,
37440,note_on,,,,,150,0,2,,,,,,0,48,125
37440,note_on,,,,,0,0,2,,,,,,0,39,125
37450,set_tempo,,,,,340,1,0,,504201,,,,,,
37550,set_tempo,,,,,100,1,0,,454545,,,,,,
37560,note_on,,,,,0,0,1,,,,,,0,79,109
37560,note_on,,,,,0,0,1,,,,,,0,68,0
37560,note_on,,,,,0,0,1,,,,,,0,67,109
37560,note_on,,,,,120,0,1,,,,,,0,80,0
37605,note_on,,,,,45,0,1,,,,,,0,79,0
37605,control_change,,,,,0,0,1,,,,64,0,0,,
37605,note_on,,,,,0,0,2,,,,,,0,48,0
37605,note_on,,,,,0,0,2,,,,,,0,39,0
37605,note_on,,,,,165,0,2,,,,,,0,51,0
37605,note_on,,,,,0,0,1,,,,,,0,67,0
37620,note_on,,,,,15,0,1,,,,,,0,63,114
37620,note_on,,,,,0,0,1,,,,,,0,75,114
37620,note_on,,,,,0,0,2,,,,,,0,48,112
37620,note_on,,,,,15,0,2,,,,,,0,36,112
37665,note_on,,,,,0,0,1,,,,,,0,63,0
37665,note_on,,,,,45,0,1,,,,,,0,75,0
37665,note_on,,,,,45,0,2,,,,,,0,48,0
37665,note_on,,,,,0,0,2,,,,,,0,36,0
37680,note_on,,,,,0,0,2,,,,,,0,53,118
37680,note_on,,,,,0,0,1,,,,,,0,74,119
37680,note_on,,,,,15,0,1,,,,,,0,62,119
37680,note_on,,,,,15,0,2,,,,,,0,41,118
37725,note_on,,,,,0,0,1,,,,,,0,62,0
37725,note_on,,,,,45,0,1,,,,,,0,74,0
37725,note_on,,,,,45,0,2,,,,,,0,53,0
37725,note_on,,,,,0,0,2,,,,,,0,41,0
37740,note_on,,,,,15,0,2,,,,,,0,42,125
37740,note_on,,,,,0,0,2,,,,,,0,54,125
37740,note_on,,,,,15,0,1,,,,,,0,60,124
37740,note_on,,,,,0,0,1,,,,,,0,72,124
37760,set_tempo,,,,,210,1,0,,504201,,,,,,
37785,note_on,,,,,0,0,2,,,,,,0,42,0
37785,note_on,,,,,45,0,2,,,,,,0,54,0
37785,note_on,,,,,0,0,1,,,,,,0,60,0
37785,note_on,,,,,45,0,1,,,,,,0,72,0
37800,set_tempo,,,,,40,1,0,,454545,,,,,,
37800,control_change,,,,,0,0,1,,,,64,96,0,,
37800,note_on,,,,,0,0,2,,,,,,0,55,127
37800,note_on,,,,,0,0,1,,,,,,0,71,127
37800,note_on,,,,,15,0,1,,,,,,0,67,127
37800,note_on,,,,,15,0,2,,,,,,0,43,127
37800,note_on,,,,,0,0,1,,,,,,0,74,127
37800,note_on,,,,,0,0,1,,,,,,0,79,127
37890,note_on,,,,,0,0,1,,,,,,0,74,0
37890,note_on,,,,,90,0,2,,,,,,0,55,0
37890,note_on,,,,,90,0,1,,,,,,0,79,0
37890,note_on,,,,,0,0,2,,,,,,0,43,0
37890,note_on,,,,,0,0,1,,,,,,0,67,0
37890,note_on,,,,,0,0,1,,,,,,0,71,0
37920,note_on,,,,,30,0,1,,,,,,0,67,99
37920,note_on,,,,,30,0,2,,,,,,0,31,101
37920,note_on,,,,,0,0,2,,,,,,0,43,101
37920,note_on,,,,,0,0,1,,,,,,0,71,99
37920,note_on,,,,,0,0,1,,,,,,0,74,99
37920,note_on,,,,,0,0,1,,,,,,0,79,99
38010,note_on,,,,,90,0,2,,,,,,0,43,0
38010,note_on,,,,,0,0,2,,,,,,0,31,0
38010,note_on,,,,,90,0,1,,,,,,0,79,0
38010,note_on,,,,,0,0,1,,,,,,0,67,0
38010,note_on,,,,,0,0,1,,,,,,0,74,0
38010,note_on,,,,,0,0,1,,,,,,0,71,0
38035,control_change,,,,,25,0,1,,,,64,0,0,,
38120,set_tempo,,,,,320,1,0,,508474,,,,,,
38130,note_on,,,,,0,0,2,,,,,,0,55,114
38130,note_on,,,,,95,0,1,,,,,,0,67,114
38130,note_on,,,,,120,0,2,,,,,,0,43,114
38130,note_on,,,,,0,0,1,,,,,,0,79,114
38154,note_on,,,,,0,0,1,,,,,,0,67,0
38154,note_on,,,,,0,0,2,,,,,,0,43,0
38154,note_on,,,,,24,0,1,,,,,,0,79,0
38154,note_on,,,,,24,0,2,,,,,,0,55,0
38160,note_on,,,,,6,0,2,,,,,,0,44,125
38160,set_tempo,,,,,40,1,0,,454545,,,,,,
38160,note_on,,,,,6,0,1,,,,,,0,72,127
38160,note_on,,,,,0,0,1,,,,,,0,75,127
38160,note_on,,,,,0,0,1,,,,,,0,84,127
38160,control_change,,,,,0,0,1,,,,64,96,0,,
38160,note_on,,,,,0,0,2,,,,,,0,56,125
38250,note_on,,,,,90,0,1,,,,,,0,84,0
38250,note_on,,,,,0,0,1,,,,,,0,75,0
38250,note_on,,,,,0,0,1,,,,,,0,72,0
38280,note_on,,,,,0,0,2,,,,,,0,44,0
38280,note_on,,,,,120,0,2,,,,,,0,56,0
38280,note_on,,,,,30,0,1,,,,,,0,72,104
38280,note_on,,,,,0,0,1,,,,,,0,84,104
38280,note_on,,,,,0,0,1,,,,,,0,75,104
38280,note_on,,,,,0,0,2,,,,,,0,55,119
38280,note_on,,,,,0,0,2,,,,,,0,43,119
38325,note_on,,,,,0,0,2,,,,,,0,43,0
38325,note_on,,,,,45,0,2,,,,,,0,55,0
38325,control_change,,,,,45,0,1,,,,64,0,0,,
38340,note_on,,,,,0,0,2,,,,,,0,51,123
38340,note_on,,,,,15,0,2,,,,,,0,39,123
38370,note_on,,,,,0,0,1,,,,,,0,72,0
38370,note_on,,,,,0,0,1,,,,,,0,75,0
38370,note_on,,,,,45,0,1,,,,,,0,84,0
38385,note_on,,,,,0,0,2,,,,,,0,39,0
38385,note_on,,,,,45,0,2,,,,,,0,51,0
38400,note_on,,,,,15,0,2,,,,,,0,38,125
38400,note_on,,,,,0,0,2,,,,,,0,50,125
38445,note_on,,,,,0,0,2,,,,,,0,38,0
38445,note_on,,,,,45,0,2,,,,,,0,50,0
38460,note_on,,,,,15,0,2,,,,,,0,36,127
38460,note_on,,,,,0,0,2,,,,,,0,48,127
38480,set_tempo,,,,,320,1,0,,500000,,,,,,
38490,note_on,,,,,0,0,1,,,,,,0,84,115
38490,note_on,,,,,120,0,1,,,,,,0,72,115
38505,note_on,,,,,45,0,2,,,,,,0,48,0
38505,note_on,,,,,0,0,2,,,,,,0,36,0
38514,note_on,,,,,24,0,1,,,,,,0,84,0
38514,note_on,,,,,0,0,1,,,,,,0,72,0
38520,set_tempo,,,,,40,1,0,,451127,,,,,,
38520,note_on,,,,,0,0,2,,,,,,0,55,127
38520,note_on,,,,,0,0,1,,,,,,0,71,127
38520,note_on,,,,,6,0,1,,,,,,0,74,127
38520,note_on,,,,,15,0,2,,,,,,0,43,127
38520,note_on,,,,,0,0,1,,,,,,0,83,127
38610,note_on,,,,,0,0,2,,,,,,0,43,0
38610,note_on,,,,,0,0,1,,,,,,0,74,0
38610,note_on,,,,,0,0,1,,,,,,0,71,0
38610,note_on,,,,,90,0,1,,,,,,0,83,0
38610,note_on,,,,,90,0,2,,,,,,0,55,0
38640,note_on,,,,,0,0,1,,,,,,0,71,103
38640,note_on,,,,,30,0,1,,,,,,0,74,103
38640,note_on,,,,,30,0,2,,,,,,0,31,113
38640,note_on,,,,,0,0,2,,,,,,0,43,113
38640,note_on,,,,,0,0,1,,,,,,0,83,103
38730,note_on,,,,,0,0,1,,,,,,0,71,0
38730,note_on,,,,,90,0,1,,,,,,0,83,0
38730,note_on,,,,,0,0,1,,,,,,0,74,0
38730,note_on,,,,,0,0,2,,,,,,0,31,0
38730,note_on,,,,,90,0,2,,,,,,0,43,0
38840,set_tempo,,,,,320,1,0,,500000,,,,,,
38850,note_on,,,,,120,0,1,,,,,,0,83,115
38850,note_on,,,,,0,0,2,,,,,,0,55,115
38850,note_on,,,,,120,0,2,,,,,,0,43,115
38850,note_on,,,,,0,0,1,,,,,,0,74,115
38850,note_on,,,,,0,0,1,,,,,,0,86,115
38874,note_on,,,,,0,0,1,,,,,,0,74,0
38874,note_on,,,,,24,0,2,,,,,,0,55,0
38874,note_on,,,,,0,0,2,,,,,,0,43,0
38874,note_on,,,,,0,0,1,,,,,,0,83,0
38874,note_on,,,,,24,0,1,,,,,,0,86,0
38880,note_on,,,,,0,0,1,,,,,,0,75,127
38880,note_on,,,,,6,0,1,,,,,,0,87,127
38880,note_on,,,,,0,0,1,,,,,,0,84,127
38880,control_change,,,,,0,0,1,,,,64,96,0,,
38880,note_on,,,,,6,0,2,,,,,,0,48,125
38880,note_on,,,,,0,0,2,,,,,,0,60,125
38900,set_tempo,,,,,60,1,0,,451127,,,,,,
38970,note_on,,,,,0,0,1,,,,,,0,75,0
38970,note_on,,,,,0,0,1,,,,,,0,87,0
38970,note_on,,,,,90,0,1,,,,,,0,84,0
38990,set_tempo,,,,,90,1,0,,468750,,,,,,
39000,note_on,,,,,30,0,1,,,,,,0,87,103
39000,note_on,,,,,0,0,1,,,,,,0,84,103
39000,note_on,,,,,0,0,1,,,,,,0,75,103
39000,note_on,,,,,120,0,2,,,,,,0,60,0
39000,note_on,,,,,0,0,2,,,,,,0,48,0
39000,note_on,,,,,0,0,2,,,,,,0,43,119
39000,note_on,,,,,0,0,2,,,,,,0,55,119
39045,control_change,,,,,45,0,1,,,,64,0,0,,
39045,note_on,,,,,0,0,2,,,,,,0,43,0
39045,note_on,,,,,45,0,2,,,,,,0,55,0
39060,note_on,,,,,0,0,2,,,,,,0,51,123
39060,note_on,,,,,15,0,2,,,,,,0,39,123
39080,set_tempo,,,,,90,1,0,,508474,,,,,,
39090,note_on,,,,,0,0,1,,,,,,0,75,0
39090,note_on,,,,,0,0,1,,,,,,0,87,0
39090,note_on,,,,,45,0,1,,,,,,0,84,0
39105,note_on,,,,,45,0,2,,,,,,0,51,0
39105,note_on,,,,,0,0,2,,,,,,0,39,0
39120,note_on,,,,,0,0,2,,,,,,0,50,125
39120,note_on,,,,,15,0,2,,,,,,0,38,125
39140,set_tempo,,,,,60,1,0,,594059,,,,,,
39165,note_on,,,,,45,0,2,,,,,,0,50,0
39165,note_on,,,,,0,0,2,,,,,,0,38,0
39180,note_on,,,,,0,0,2,,,,,,0,48,127
39180,note_on,,,,,15,0,2,,,,,,0,36,127
39200,set_tempo,,,,,60,1,0,,731707,,,,,,
39210,note_on,,,,,120,0,1,,,,,,0,87,117
39225,note_on,,,,,0,0,2,,,,,,0,36,0
39225,note_on,,,,,45,0,2,,,,,,0,48,0
39234,note_on,,,,,24,0,1,,,,,,0,87,0
39240,note_on,,,,,6,0,1,,,,,,0,92,127
39240,note_on,,,,,15,0,2,,,,,,0,32,127
39240,note_on,,,,,0,0,2,,,,,,0,44,127
39260,set_tempo,,,,,60,1,0,,451127,,,,,,
39330,note_on,,,,,0,0,2,,,,,,0,32,0
39330,note_on,,,,,90,0,2,,,,,,0,44,0
39360,note_on,,,,,30,0,2,,,,,,0,44,127
39360,note_on,,,,,0,0,2,,,,,,0,32,127
39410,set_tempo,,,,,150,1,0,,419580,,,,,,
39420,note_on,,,,,0,0,1,,,,,,0,91,118
39420,note_on,,,,,180,0,1,,,,,,0,92,0
39420,control_change,,,,,0,0,1,,,,64,96,0,,
39440,note_on,,,,,20,0,1,,,,,,0,91,0
39440,note_on,,,,,0,0,1,,,,,,0,89,116
39460,note_on,,,,,0,0,1,,,,,,0,87,115
39460,note_on,,,,,20,0,1,,,,,,0,89,0
39480,note_on,,,,,0,0,1,,,,,,0,85,112
39480,note_on,,,,,20,0,1,,,,,,0,87,0
39500,note_on,,,,,20,0,1,,,,,,0,85,0
39500,note_on,,,,,0,0,1,,,,,,0,84,112
39520,note_on,,,,,0,0,1,,,,,,0,82,111
39520,note_on,,,,,20,0,1,,,,,,0,84,0
39540,note_on,,,,,20,0,1,,,,,,0,82,0
39540,note_on,,,,,0,0,1,,,,,,0,80,110
39560,note_on,,,,,20,0,1,,,,,,0,80,0
39560,note_on,,,,,0,0,1,,,,,,0,79,110
39570,set_tempo,,,,,160,1,0,,434782,,,,,,
39580,note_on,,,,,0,0,1,,,,,,0,77,110
39580,note_on,,,,,20,0,1,,,,,,0,79,0
39600,note_on,,,,,0,0,1,,,,,,0,75,110
39600,note_on,,,,,20,0,1,,,,,,0,77,0
39620,note_on,,,,,0,0,1,,,,,,0,73,111
39620,note_on,,,,,20,0,1,,,,,,0,75,0
39639,note_on,,,,,19,0,1,,,,,,0,72,111
39640,note_on,,,,,1,0,1,,,,,,0,73,0
39659,note_on,,,,,19,0,1,,,,,,0,72,0
39659,note_on,,,,,0,0,1,,,,,,0,70,111
39679,note_on,,,,,20,0,1,,,,,,0,70,0
39679,note_on,,,,,0,0,1,,,,,,0,68,111
39680,set_tempo,,,,,110,1,0,,458015,,,,,,
39699,note_on,,,,,0,0,1,,,,,,0,67,114
39699,note_on,,,,,20,0,1,,,,,,0,68,0
39719,note_on,,,,,0,0,1,,,,,,0,65,116
39719,note_on,,,,,20,0,1,,,,,,0,67,0
39739,note_on,,,,,0,0,1,,,,,,0,63,118
39739,note_on,,,,,20,0,1,,,,,,0,65,0
39759,note_on,,,,,0,0,1,,,,,,0,61,118
39759,note_on,,,,,20,0,1,,,,,,0,63,0
39779,note_on,,,,,20,0,1,,,,,,0,61,0
39779,note_on,,,,,0,0,1,,,,,,0,60,119
39790,set_tempo,,,,,110,1,0,,476190,,,,,,
39799,note_on,,,,,20,0,1,,,,,,0,60,0
39799,note_on,,,,,0,0,1,,,,,,0,58,121
39819,note_on,,,,,20,0,1,,,,,,0,58,0
39819,note_on,,,,,0,0,1,,,,,,0,56,123
39839,note_on,,,,,20,0,1,,,,,,0,56,0
39839,note_on,,,,,0,0,1,,,,,,0,55,123
39859,note_on,,,,,0,0,1,,,,,,0,53,124
39859,note_on,,,,,20,0,1,,,,,,0,55,0
39870,set_tempo,,,,,80,1,0,,512820,,,,,,
39879,note_on,,,,,20,0,1,,,,,,0,53,0
39879,note_on,,,,,0,0,1,,,,,,0,51,125
39899,note_on,,,,,20,0,1,,,,,,0,51,0
39899,note_on,,,,,0,0,1,,,,,,0,49,126
39919,note_on,,,,,20,0,1,,,,,,0,49,0
39919,note_on,,,,,0,0,1,,,,,,0,48,127
39939,note_on,,,,,20,0,1,,,,,,0,48,0
39939,note_on,,,,,0,0,1,,,,,,0,46,127
39950,control_change,,,,,11,0,1,,,,64,0,0,,
39950,set_tempo,,,,,80,1,0,,550458,,,,,,
39959,note_on,,,,,9,0,1,,,,,,0,46,0
39960,note_on,,,,,1,0,1,,,,,,0,44,127
39960,control_change,,,,,0,0,1,,,,64,96,0,,
40135,control_change,,,,,175,0,1,,,,64,0,0,,
40140,control_change,,,,,0,0,1,,,,64,95,0,,
40140,note_on,,,,,5,0,1,,,,,,0,44,0
40140,note_on,,,,,780,0,2,,,,,,0,32,0
40140,note_on,,,,,0,0,2,,,,,,0,44,0
40140,note_on,,,,,0,0,2,,,,,,0,32,78
40140,note_on,,,,,0,0,2,,,,,,0,43,78
40140,note_on,,,,,0,0,2,,,,,,0,40,78
40185,note_on,,,,,0,0,2,,,,,,0,32,0
40185,note_on,,,,,0,0,2,,,,,,0,40,0
40185,note_on,,,,,45,0,2,,,,,,0,43,0
40200,note_on,,,,,0,0,2,,,,,,0,44,76
40200,note_on,,,,,0,0,2,,,,,,0,40,76
40200,note_on,,,,,15,0,2,,,,,,0,32,76
40245,note_on,,,,,0,0,2,,,,,,0,32,0
40245,note_on,,,,,0,0,2,,,,,,0,40,0
40245,note_on,,,,,45,0,2,,,,,,0,44,0
40260,note_on,,,,,0,0,2,,,,,,0,46,73
40260,note_on,,,,,15,0,2,,,,,,0,32,73
40260,note_on,,,,,0,0,2,,,,,,0,40,73
40305,note_on,,,,,0,0,2,,,,,,0,32,0
40305,note_on,,,,,0,0,2,,,,,,0,40,0
40305,note_on,,,,,45,0,2,,,,,,0,46,0
40315,control_change,,,,,175,0,1,,,,64,0,0,,
40320,note_on,,,,,15,0,2,,,,,,0,48,78
40320,control_change,,,,,5,0,1,,,,64,96,0,,
40320,note_on,,,,,0,0,2,,,,,,0,44,78
40320,note_on,,,,,0,0,2,,,,,,0,39,78
40320,note_on,,,,,0,0,2,,,,,,0,32,78
40410,control_change,,,,,90,0,1,,,,64,0,0,,
40410,note_on,,,,,0,0,2,,,,,,0,49,76
40410,note_on,,,,,90,0,2,,,,,,0,48,0
40440,note_on,,,,,0,0,2,,,,,,0,48,57
40440,note_on,,,,,30,0,2,,,,,,0,49,0
40470,note_on,,,,,30,0,2,,,,,,0,48,0
40470,note_on,,,,,0,0,2,,,,,,0,44,0
40470,note_on,,,,,0,0,2,,,,,,0,39,0
40470,note_on,,,,,0,0,2,,,,,,0,32,0
40500,control_change,,,,,90,0,1,,,,64,95,0,,
40500,note_on,,,,,30,0,2,,,,,,0,44,78
40500,note_on,,,,,0,0,2,,,,,,0,52,78
40500,note_on,,,,,0,0,2,,,,,,0,55,78
40500,set_tempo,,,,,550,1,0,,526315,,,,,,
40545,note_on,,,,,45,0,2,,,,,,0,55,0
40545,note_on,,,,,0,0,2,,,,,,0,52,0
40545,note_on,,,,,0,0,2,,,,,,0,44,0
40560,note_on,,,,,15,0,2,,,,,,0,44,76
40560,note_on,,,,,0,0,2,,,,,,0,52,76
40560,note_on,,,,,0,0,2,,,,,,0,56,76
40600,set_tempo,,,,,100,1,0,,500000,,,,,,
40605,note_on,,,,,0,0,2,,,,,,0,52,0
40605,note_on,,,,,0,0,2,,,,,,0,44,0
40605,note_on,,,,,45,0,2,,,,,,0,56,0
40620,note_on,,,,,15,0,2,,,,,,0,44,73
40620,note_on,,,,,0,0,2,,,,,,0,52,73
40620,note_on,,,,,0,0,2,,,,,,0,58,73
40665,note_on,,,,,45,0,2,,,,,,0,58,0
40665,note_on,,,,,0,0,2,,,,,,0,52,0
40665,note_on,,,,,0,0,2,,,,,,0,44,0
40675,control_change,,,,,175,0,1,,,,64,0,0,,
40680,note_on,,,,,0,0,2,,,,,,0,56,78
40680,note_on,,,,,0,0,2,,,,,,0,51,78
40680,note_on,,,,,0,0,2,,,,,,0,44,78
40680,control_change,,,,,5,0,1,,,,64,96,0,,
40680,note_on,,,,,15,0,2,,,,,,0,60,78
40750,set_tempo,,,,,150,1,0,,476190,,,,,,
40770,note_on,,,,,90,0,2,,,,,,0,60,0
40770,note_on,,,,,0,0,2,,,,,,0,61,76
40770,control_change,,,,,90,0,1,,,,64,0,0,,
40800,note_on,,,,,0,0,2,,,,,,0,60,57
40800,note_on,,,,,30,0,2,,,,,,0,61,0
40830,note_on,,,,,0,0,2,,,,,,0,51,0
40830,note_on,,,,,0,0,2,,,,,,0,56,0
40830,note_on,,,,,30,0,2,,,,,,0,60,0
40830,note_on,,,,,0,0,2,,,,,,0,44,0
40860,note_on,,,,,30,0,2,,,,,,0,31,83
40860,note_on,,,,,90,0,1,,,,,,0,55,83
40860,control_change,,,,,0,0,1,,,,64,96,0,,
40860,control_change,,,,,0,0,2,,,,64,96,0,,
40880,set_tempo,,,,,130,1,0,,447761,,,,,,
40890,note_on,,,,,30,0,1,,,,,,0,55,0
40890,note_on,,,,,0,0,1,,,,,,0,67,83
40890,note_on,,,,,30,0,2,,,,,,0,31,0
40890,note_on,,,,,0,0,2,,,,,,0,43,83
40900,set_tempo,,,,,20,1,0,,454545,,,,,,
40920,note_on,,,,,30,0,2,,,,,,0,43,0
40920,note_on,,,,,0,0,2,,,,,,0,32,85
40920,note_on,,,,,0,0,1,,,,,,0,56,85
40920,note_on,,,,,30,0,1,,,,,,0,67,0
40950,note_on,,,,,0,0,2,,,,,,0,44,86
40950,note_on,,,,,30,0,2,,,,,,0,32,0
40950,note_on,,,,,0,0,1,,,,,,0,68,86
40950,note_on,,,,,30,0,1,,,,,,0,56,0
40980,note_on,,,,,30,0,2,,,,,,0,44,0
40980,note_on,,,,,30,0,1,,,,,,0,68,0
40980,note_on,,,,,0,0,2,,,,,,0,34,88
40980,note_on,,,,,0,0,1,,,,,,0,58,88
41010,note_on,,,,,0,0,2,,,,,,0,46,88
41010,note_on,,,,,30,0,2,,,,,,0,34,0
41010,note_on,,,,,0,0,1,,,,,,0,70,88
41010,note_on,,,,,30,0,1,,,,,,0,58,0
41035,control_change,,,,,25,0,1,,,,64,0,0,,
41035,control_change,,,,,25,0,2,,,,64,0,0,,
41040,control_change,,,,,0,0,2,,,,64,96,0,,
41040,note_on,,,,,5,0,1,,,,,,0,70,0
41040,note_on,,,,,0,0,1,,,,,,0,60,90
41040,control_change,,,,,0,0,1,,,,64,96,0,,
41040,note_on,,,,,5,0,2,,,,,,0,46,0
41040,note_on,,,,,0,0,2,,,,,,0,36,90
41070,note_on,,,,,0,0,1,,,,,,0,72,90
41070,note_on,,,,,30,0,1,,,,,,0,60,0
41070,note_on,,,,,30,0,2,,,,,,0,36,0
41070,note_on,,,,,0,0,2,,,,,,0,48,90
41100,note_on,,,,,0,0,1,,,,,,0,62,92
41100,note_on,,,,,30,0,2,,,,,,0,48,0
41100,note_on,,,,,0,0,2,,,,,,0,38,92
41100,note_on,,,,,30,0,1,,,,,,0,72,0
41130,note_on,,,,,30,0,1,,,,,,0,62,0
41130,note_on,,,,,0,0,1,,,,,,0,74,93
41130,note_on,,,,,30,0,2,,,,,,0,38,0
41130,note_on,,,,,0,0,2,,,,,,0,50,93
41160,note_on,,,,,0,0,1,,,,,,0,63,96
41160,note_on,,,,,0,0,2,,,,,,0,39,96
41160,note_on,,,,,30,0,1,,,,,,0,74,0
41160,note_on,,,,,30,0,2,,,,,,0,50,0
41190,note_on,,,,,0,0,2,,,,,,0,51,96
41190,note_on,,,,,0,0,1,,,,,,0,75,96
41190,note_on,,,,,30,0,1,,,,,,0,63,0
41190,note_on,,,,,30,0,2,,,,,,0,39,0
41210,control_change,,,,,20,0,2,,,,64,0,0,,
41210,control_change,,,,,20,0,1,,,,64,0,0,,
41220,note_on,,,,,10,0,2,,,,,,0,51,0
41220,note_on,,,,,0,0,2,,,,,,0,43,98
41220,control_change,,,,,0,0,2,,,,64,96,0,,
41220,note_on,,,,,10,0,1,,,,,,0,75,0
41220,note_on,,,,,0,0,1,,,,,,0,67,98
41220,control_change,,,,,0,0,1,,,,64,96,0,,
41250,set_tempo,,,,,350,1,0,,441176,,,,,,
41250,note_on,,,,,30,0,1,,,,,,0,67,0
41250,note_on,,,,,0,0,1,,,,,,0,79,100
41250,note_on,,,,,0,0,2,,,,,,0,55,100
41250,note_on,,,,,30,0,2,,,,,,0,43,0
41280,note_on,,,,,30,0,1,,,,,,0,79,0
41280,note_on,,,,,0,0,2,,,,,,0,44,102
41280,note_on,,,,,30,0,2,,,,,,0,55,0
41280,note_on,,,,,0,0,1,,,,,,0,68,102
41310,note_on,,,,,0,0,2,,,,,,0,56,104
41310,note_on,,,,,30,0,1,,,,,,0,68,0
41310,note_on,,,,,0,0,1,,,,,,0,80,104
41310,note_on,,,,,30,0,2,,,,,,0,44,0
41340,note_on,,,,,30,0,2,,,,,,0,56,0
41340,note_on,,,,,0,0,2,,,,,,0,46,104
41340,note_on,,,,,30,0,1,,,,,,0,80,0
41340,note_on,,,,,0,0,1,,,,,,0,70,104
41370,note_on,,,,,30,0,1,,,,,,0,70,0
41370,note_on,,,,,0,0,1,,,,,,0,82,107
41370,note_on,,,,,0,0,2,,,,,,0,58,107
41370,note_on,,,,,30,0,2,,,,,,0,46,0
41390,set_tempo,,,,,140,1,0,,428571,,,,,,
41395,control_change,,,,,25,0,2,,,,64,0,0,,
41395,control_change,,,,,25,0,1,,,,64,0,0,,
41400,note_on,,,,,0,0,2,,,,,,0,48,107
41400,control_change,,,,,0,0,2,,,,64,96,0,,
41400,control_change,,,,,0,0,1,,,,64,96,0,,
41400,note_on,,,,,0,0,1,,,,,,0,72,107
41400,note_on,,,,,5,0,1,,,,,,0,82,0
41400,note_on,,,,,5,0,2,,,,,,0,58,0
41430,note_on,,,,,0,0,1,,,,,,0,84,108
41430,note_on,,,,,30,0,1,,,,,,0,72,0
41430,note_on,,,,,30,0,2,,,,,,0,48,0
41430,note_on,,,,,0,0,2,,,,,,0,60,108
41460,note_on,,,,,30,0,2,,,,,,0,60,0
41460,note_on,,,,,0,0,1,,,,,,0,74,111
41460,note_on,,,,,30,0,1,,,,,,0,84,0
41460,note_on,,,,,0,0,2,,,,,,0,50,111
41490,note_on,,,,,30,0,2,,,,,,0,50,0
41490,note_on,,,,,30,0,1,,,,,,0,74,0
41490,note_on,,,,,0,0,1,,,,,,0,86,112
41490,note_on,,,,,0,0,2,,,,,,0,62,112
41520,note_on,,,,,30,0,2,,,,,,0,62,0
41520,note_on,,,,,0,0,2,,,,,,0,51,112
41520,note_on,,,,,0,0,1,,,,,,0,75,112
41520,note_on,,,,,30,0,1,,,,,,0,86,0
41550,note_on,,,,,30,0,2,,,,,,0,51,0
41550,note_on,,,,,0,0,2,,,,,,0,63,115
41550,note_on,,,,,30,0,1,,,,,,0,75,0
41550,note_on,,,,,0,0,1,,,,,,0,87,115
41570,set_tempo,,,,,180,1,0,,441176,,,,,,
41575,control_change,,,,,25,0,2,,,,64,0,0,,
41575,control_change,,,,,25,0,1,,,,64,0,0,,
41580,note_on,,,,,5,0,1,,,,,,0,87,0
41580,note_on,,,,,0,0,1,,,,,,0,80,116
41580,control_change,,,,,0,0,1,,,,64,96,0,,
41580,note_on,,,,,5,0,2,,,,,,0,63,0
41580,note_on,,,,,0,0,2,,,,,,0,56,116
41580,control_change,,,,,0,0,2,,,,64,96,0,,
41610,note_on,,,,,30,0,1,,,,,,0,80,0
41610,note_on,,,,,30,0,2,,,,,,0,56,0
41610,note_on,,,,,0,0,2,,,,,,0,68,116
41610,note_on,,,,,0,0,1,,,,,,0,92,116
41640,note_on,,,,,0,0,1,,,,,,0,82,116
41640,note_on,,,,,30,0,1,,,,,,0,92,0
41640,note_on,,,,,30,0,2,,,,,,0,68,0
41640,note_on,,,,,0,0,2,,,,,,0,58,116
41650,set_tempo,,,,,80,1,0,,465116,,,,,,
41670,note_on,,,,,30,0,1,,,,,,0,82,0
41670,note_on,,,,,0,0,1,,,,,,0,94,119
41670,note_on,,,,,30,0,2,,,,,,0,58,0
41670,note_on,,,,,0,0,2,,,,,,0,70,119
41690,set_tempo,,,,,40,1,0,,526315,,,,,,
41700,note_on,,,,,30,0,1,,,,,,0,94,0
41700,note_on,,,,,0,0,1,,,,,,0,84,121
41700,note_on,,,,,30,0,2,,,,,,0,70,0
41700,note_on,,,,,0,0,2,,,,,,0,60,121
41720,set_tempo,,,,,30,1,0,,638297,,,,,,
41730,note_on,,,,,0,0,2,,,,,,0,72,123
41730,note_on,,,,,30,0,2,,,,,,0,60,0
41730,note_on,,,,,0,0,1,,,,,,0,96,123
41730,set_tempo,,,,,10,1,0,,705882,,,,,,
41730,note_on,,,,,30,0,1,,,,,,0,84,0
41755,control_change,,,,,25,0,2,,,,64,0,0,,
41755,control_change,,,,,25,0,1,,,,64,0,0,,
41760,set_tempo,,,,,30,1,0,,468750,,,,,,
41760,note_on,,,,,5,0,2,,,,,,0,72,0
41760,note_on,,,,,0,0,2,,,,,,0,55,127
41760,note_on,,,,,0,0,2,,,,,,0,60,127
41760,note_on,,,,,0,0,2,,,,,,0,63,127
41760,note_on,,,,,0,0,2,,,,,,0,67,127
41760,control_change,,,,,0,0,2,,,,64,96,0,,
41760,control_change,,,,,0,0,1,,,,64,96,0,,
41760,note_on,,,,,0,0,1,,,,,,0,91,127
41760,note_on,,,,,0,0,1,,,,,,0,87,127
41760,note_on,,,,,0,0,1,,,,,,0,84,127
41760,note_on,,,,,5,0,1,,,,,,0,96,0
41760,note_on,,,,,0,0,1,,,,,,0,79,127
41820,set_tempo,,,,,60,1,0,,428571,,,,,,
41850,note_on,,,,,0,0,2,,,,,,0,63,0
41850,note_on,,,,,0,0,2,,,,,,0,60,0
41850,note_on,,,,,0,0,2,,,,,,0,55,0
41850,note_on,,,,,90,0,2,,,,,,0,67,0
41880,note_on,,,,,0,0,2,,,,,,0,63,108
41880,note_on,,,,,0,0,2,,,,,,0,60,108
41880,note_on,,,,,0,0,2,,,,,,0,55,108
41880,note_on,,,,,0,0,1,,,,,,0,79,0
41880,note_on,,,,,0,0,1,,,,,,0,84,0
41880,note_on,,,,,0,0,1,,,,,,0,87,0
41880,note_on,,,,,30,0,2,,,,,,0,67,108
41880,note_on,,,,,120,0,1,,,,,,0,91,0
41890,set_tempo,,,,,70,1,0,,437956,,,,,,
41910,note_on,,,,,30,0,1,,,,,,0,89,126
41940,note_on,,,,,30,0,1,,,,,,0,89,0
41940,note_on,,,,,0,0,1,,,,,,0,87,125
41970,note_on,,,,,30,0,1,,,,,,0,87,0
41970,note_on,,,,,0,0,1,,,,,,0,86,124
41970,note_on,,,,,0,0,2,,,,,,0,67,0
41970,note_on,,,,,0,0,2,,,,,,0,63,0
41970,note_on,,,,,0,0,2,,,,,,0,60,0
41970,note_on,,,,,90,0,2,,,,,,0,55,0
42000,set_tempo,,,,,110,1,0,,454545,,,,,,
42000,note_on,,,,,30,0,1,,,,,,0,86,0
42000,control_change,,,,,0,0,1,,,,64,0,0,,
42000,note_on,,,,,0,0,1,,,,,,0,84,118
42030,note_on,,,,,0,0,1,,,,,,0,82,114
42030,note_on,,,,,30,0,1,,,,,,0,84,0
42060,note_on,,,,,0,0,1,,,,,,0,80,113
42060,note_on,,,,,30,0,1,,,,,,0,82,0
42090,note_on,,,,,0,0,2,,,,,,0,55,101
42090,note_on,,,,,0,0,2,,,,,,0,51,101
42090,set_tempo,,,,,90,1,0,,468750,,,,,,
42090,note_on,,,,,0,0,2,,,,,,0,48,101
42090,note_on,,,,,30,0,1,,,,,,0,80,0
42090,note_on,,,,,0,0,1,,,,,,0,79,119
42090,note_on,,,,,120,0,2,,,,,,0,43,101
42114,note_on,,,,,24,0,2,,,,,,0,55,0
42114,note_on,,,,,0,0,2,,,,,,0,43,0
42114,note_on,,,,,0,0,2,,,,,,0,48,0
42114,note_on,,,,,0,0,2,,,,,,0,51,0
42120,note_on,,,,,30,0,1,,,,,,0,79,0
42120,control_change,,,,,0,0,1,,,,64,96,0,,
42120,note_on,,,,,0,0,1,,,,,,0,77,120
42120,note_on,,,,,6,0,2,,,,,,0,43,110
42120,note_on,,,,,0,0,2,,,,,,0,47,110
42120,note_on,,,,,0,0,2,,,,,,0,55,110
42120,note_on,,,,,0,0,2,,,,,,0,50,110
42150,note_on,,,,,30,0,1,,,,,,0,77,0
42150,note_on,,,,,0,0,1,,,,,,0,75,118
42180,note_on,,,,,30,0,1,,,,,,0,75,0
42180,note_on,,,,,0,0,1,,,,,,0,74,114
42210,note_on,,,,,0,0,1,,,,,,0,72,109
42210,note_on,,,,,0,0,2,,,,,,0,50,0
42210,note_on,,,,,0,0,2,,,,,,0,47,0
42210,note_on,,,,,0,0,2,,,,,,0,43,0
42210,note_on,,,,,90,0,2,,,,,,0,55,0
42210,note_on,,,,,30,0,1,,,,,,0,74,0
42240,note_on,,,,,30,0,1,,,,,,0,72,0
42240,note_on,,,,,0,0,1,,,,,,0,71,105
42240,note_on,,,,,0,0,2,,,,,,0,50,85
42240,note_on,,,,,0,0,2,,,,,,0,47,85
42240,note_on,,,,,30,0,2,,,,,,0,43,85
42240,note_on,,,,,0,0,2,,,,,,0,55,85
42270,note_on,,,,,30,0,1,,,,,,0,71,0
42270,note_on,,,,,0,0,1,,,,,,0,68,101
42300,note_on,,,,,30,0,1,,,,,,0,68,0
42300,note_on,,,,,0,0,1,,,,,,0,67,97
42330,note_on,,,,,30,0,1,,,,,,0,67,0
42330,note_on,,,,,0,0,2,,,,,,0,47,0
42330,note_on,,,,,0,0,2,,,,,,0,50,0
42330,note_on,,,,,0,0,2,,,,,,0,43,0
42330,note_on,,,,,90,0,2,,,,,,0,55,0
42330,note_on,,,,,0,0,1,,,,,,0,65,91
42360,control_change,,,,,0,0,1,,,,64,0,0,,
42360,note_on,,,,,0,0,1,,,,,,0,63,87
42360,note_on,,,,,30,0,1,,,,,,0,65,0
42390,note_on,,,,,0,0,1,,,,,,0,62,81
42390,note_on,,,,,30,0,1,,,,,,0,63,0
42420,note_on,,,,,30,0,1,,,,,,0,62,0
42420,note_on,,,,,0,0,1,,,,,,0,60,77
42450,note_on,,,,,30,0,1,,,,,,0,60,0
42450,note_on,,,,,0,0,1,,,,,,0,59,69
42480,note_on,,,,,0,0,2,,,,,,0,51,61
42480,note_on,,,,,150,0,2,,,,,,0,48,61
42480,note_on,,,,,30,0,1,,,,,,0,59,0
42480,note_on,,,,,0,0,1,,,,,,0,60,66
42510,note_on,,,,,0,0,2,,,,,,0,48,0
42510,note_on,,,,,30,0,2,,,,,,0,51,0
42510,note_on,,,,,0,0,2,,,,,,0,55,46
42540,note_on,,,,,30,0,2,,,,,,0,55,0
42540,note_on,,,,,0,0,2,,,,,,0,54,47
42570,note_on,,,,,30,0,2,,,,,,0,54,0
42570,note_on,,,,,0,0,2,,,,,,0,55,49
42600,note_on,,,,,0,0,2,,,,,,0,51,49
42600,note_on,,,,,30,0,2,,,,,,0,55,0
42600,note_on,,,,,0,0,2,,,,,,0,48,49
42630,note_on,,,,,30,0,2,,,,,,0,51,0
42630,note_on,,,,,0,0,2,,,,,,0,48,0
42630,note_on,,,,,0,0,2,,,,,,0,55,51
42660,note_on,,,,,0,0,1,,,,,,0,62,60
42660,note_on,,,,,30,0,2,,,,,,0,55,0
42660,note_on,,,,,0,0,2,,,,,,0,54,51
42660,note_on,,,,,180,0,1,,,,,,0,60,0
42690,note_on,,,,,0,0,1,,,,,,0,60,61
42690,note_on,,,,,30,0,1,,,,,,0,62,0
42690,note_on,,,,,30,0,2,,,,,,0,54,0
42690,note_on,,,,,0,0,2,,,,,,0,55,52
42714,note_on,,,,,24,0,1,,,,,,0,60,0
42720,note_on,,,,,0,0,2,,,,,,0,51,53
42720,note_on,,,,,30,0,2,,,,,,0,55,0
42720,note_on,,,,,0,0,2,,,,,,0,48,53
42720,note_on,,,,,6,0,1,,,,,,0,59,66
42750,note_on,,,,,30,0,1,,,,,,0,59,0
42750,note_on,,,,,0,0,2,,,,,,0,55,60
42750,note_on,,,,,0,0,2,,,,,,0,48,0
42750,note_on,,,,,30,0,2,,,,,,0,51,0
42750,note_on,,,,,0,0,1,,,,,,0,60,74
42774,note_on,,,,,24,0,1,,,,,,0,60,0
42780,note_on,,,,,0,0,2,,,,,,0,54,66
42780,note_on,,,,,30,0,2,,,,,,0,55,0
42780,note_on,,,,,6,0,1,,,,,,0,59,80
42810,note_on,,,,,0,0,2,,,,,,0,55,70
42810,note_on,,,,,30,0,1,,,,,,0,59,0
42810,note_on,,,,,0,0,1,,,,,,0,60,86
42810,note_on,,,,,30,0,2,,,,,,0,54,0
42834,note_on,,,,,24,0,1,,,,,,0,60,0
42840,note_on,,,,,6,0,1,,,,,,0,63,91
42840,note_on,,,,,0,0,2,,,,,,0,53,72
42840,note_on,,,,,30,0,2,,,,,,0,55,0
42840,note_on,,,,,0,0,2,,,,,,0,48,72
42870,note_on,,,,,30,0,2,,,,,,0,48,0
42870,note_on,,,,,0,0,2,,,,,,0,53,0
42870,note_on,,,,,0,0,2,,,,,,0,56,63
42900,note_on,,,,,30,0,2,,,,,,0,56,0
42900,note_on,,,,,0,0,2,,,,,,0,55,62
42930,note_on,,,,,30,0,2,,,,,,0,55,0
42930,note_on,,,,,0,0,2,,,,,,0,56,61
42960,note_on,,,,,0,0,1,,,,,,0,62,66
42960,note_on,,,,,0,0,2,,,,,,0,53,58
42960,note_on,,,,,0,0,2,,,,,,0,48,58
42960,note_on,,,,,120,0,1,,,,,,0,63,0
42960,note_on,,,,,30,0,2,,,,,,0,56,0
42990,note_on,,,,,0,0,2,,,,,,0,56,56
42990,note_on,,,,,30,0,2,,,,,,0,53,0
42990,note_on,,,,,0,0,2,,,,,,0,48,0
43020,note_on,,,,,60,0,1,,,,,,0,62,0
43020,note_on,,,,,0,0,2,,,,,,0,55,54
43020,note_on,,,,,30,0,2,,,,,,0,56,0
43050,note_on,,,,,0,0,2,,,,,,0,56,53
43050,note_on,,,,,30,0,2,,,,,,0,55,0
43080,note_on,,,,,0,0,2,,,,,,0,53,51
43080,note_on,,,,,0,0,2,,,,,,0,48,51
43080,note_on,,,,,30,0,2,,,,,,0,56,0
43110,note_on,,,,,30,0,2,,,,,,0,53,0
43110,note_on,,,,,0,0,2,,,,,,0,48,0
43110,note_on,,,,,0,0,2,,,,,,0,56,51
43140,note_on,,,,,0,0,2,,,,,,0,55,51
43140,note_on,,,,,30,0,2,,,,,,0,56,0
43170,note_on,,,,,150,0,1,,,,,,0,62,73
43170,note_on,,,,,0,0,2,,,,,,0,56,53
43170,note_on,,,,,30,0,2,,,,,,0,55,0
43194,note_on,,,,,24,0,1,,,,,,0,62,0
43200,note_on,,,,,30,0,2,,,,,,0,56,0
43200,note_on,,,,,0,0,2,,,,,,0,48,72
43200,note_on,,,,,0,0,2,,,,,,0,55,72
43200,note_on,,,,,6,0,1,,,,,,0,64,86
43230,note_on,,,,,0,0,2,,,,,,0,58,63
43230,note_on,,,,,0,0,2,,,,,,0,55,0
43230,note_on,,,,,30,0,2,,,,,,0,48,0
43260,note_on,,,,,0,0,2,,,,,,0,57,62
43260,note_on,,,,,30,0,2,,,,,,0,58,0
43290,note_on,,,,,0,0,2,,,,,,0,58,61
43290,note_on,,,,,30,0,2,,,,,,0,57,0
43320,note_on,,,,,120,0,1,,,,,,0,64,0
43320,note_on,,,,,0,0,2,,,,,,0,48,58
43320,note_on,,,,,30,0,2,,,,,,0,58,0
43320,note_on,,,,,0,0,2,,,,,,0,55,58
43350,note_on,,,,,30,0,2,,,,,,0,48,0
43350,note_on,,,,,30,0,1,,,,,,0,73,61
43350,note_on,,,,,0,0,2,,,,,,0,58,56
43350,note_on,,,,,0,0,2,,,,,,0,55,0
43380,note_on,,,,,30,0,2,,,,,,0,58,0
43380,note_on,,,,,0,0,1,,,,,,0,72,63
43380,note_on,,,,,30,0,1,,,,,,0,73,0
43380,note_on,,,,,0,0,2,,,,,,0,57,54
43410,note_on,,,,,0,0,2,,,,,,0,58,53
43410,note_on,,,,,30,0,2,,,,,,0,57,0
43410,note_on,,,,,0,0,1,,,,,,0,70,67
43410,note_on,,,,,30,0,1,,,,,,0,72,0
43440,note_on,,,,,30,0,2,,,,,,0,58,0
43440,note_on,,,,,0,0,2,,,,,,0,55,51
43440,note_on,,,,,0,0,2,,,,,,0,48,51
43440,note_on,,,,,0,0,1,,,,,,0,68,70
43440,note_on,,,,,30,0,1,,,,,,0,70,0
43470,note_on,,,,,0,0,2,,,,,,0,55,0
43470,note_on,,,,,0,0,2,,,,,,0,58,51
43470,note_on,,,,,30,0,2,,,,,,0,48,0
43470,note_on,,,,,0,0,1,,,,,,0,67,73
43470,note_on,,,,,30,0,1,,,,,,0,68,0
43500,note_on,,,,,30,0,1,,,,,,0,67,0
43500,note_on,,,,,0,0,1,,,,,,0,65,77
43500,note_on,,,,,0,0,2,,,,,,0,57,51
43500,note_on,,,,,30,0,2,,,,,,0,58,0
43530,note_on,,,,,30,0,1,,,,,,0,65,0
43530,note_on,,,,,0,0,1,,,,,,0,64,81
43530,note_on,,,,,0,0,2,,,,,,0,58,53
43530,note_on,,,,,30,0,2,,,,,,0,57,0
43560,note_on,,,,,0,0,2,,,,,,0,48,72
43560,note_on,,,,,30,0,2,,,,,,0,58,0
43560,note_on,,,,,0,0,2,,,,,,0,57,72
43560,note_on,,,,,30,0,1,,,,,,0,64,0
43560,note_on,,,,,0,0,1,,,,,,0,67,86
43590,note_on,,,,,0,0,2,,,,,,0,60,63
43590,note_on,,,,,0,0,2,,,,,,0,57,0
43590,note_on,,,,,30,0,2,,,,,,0,48,0
43620,note_on,,,,,30,0,2,,,,,,0,60,0
43620,note_on,,,,,0,0,2,,,,,,0,59,62
43650,note_on,,,,,0,0,2,,,,,,0,60,61
43650,note_on,,,,,30,0,2,,,,,,0,59,0
43680,note_on,,,,,120,0,1,,,,,,0,67,0
43680,note_on,,,,,0,0,2,,,,,,0,48,58
43680,note_on,,,,,0,0,2,,,,,,0,57,58
43680,note_on,,,,,30,0,2,,,,,,0,60,0
43680,note_on,,,,,0,0,1,,,,,,0,65,66
43710,note_on,,,,,30,0,2,,,,,,0,48,0
43710,note_on,,,,,0,0,2,,,,,,0,57,0
43710,note_on,,,,,0,0,2,,,,,,0,60,56
43740,note_on,,,,,0,0,2,,,,,,0,59,54
43740,note_on,,,,,60,0,1,,,,,,0,65,0
43740,note_on,,,,,30,0,2,,,,,,0,60,0
43770,note_on,,,,,30,0,2,,,,,,0,59,0
43770,note_on,,,,,0,0,2,,,,,,0,60,53
43800,note_on,,,,,0,0,2,,,,,,0,48,51
43800,note_on,,,,,30,0,2,,,,,,0,60,0
43800,note_on,,,,,0,0,2,,,,,,0,57,51
43830,note_on,,,,,30,0,2,,,,,,0,48,0
43830,note_on,,,,,0,0,2,,,,,,0,57,0
43830,note_on,,,,,0,0,2,,,,,,0,60,51
43860,note_on,,,,,30,0,2,,,,,,0,60,0
43860,note_on,,,,,0,0,2,,,,,,0,59,51
43890,note_on,,,,,30,0,2,,,,,,0,59,0
43890,note_on,,,,,150,0,1,,,,,,0,65,86
43890,note_on,,,,,0,0,2,,,,,,0,60,53
43914,note_on,,,,,24,0,1,,,,,,0,65,0
43920,note_on,,,,,0,0,2,,,,,,0,56,72
43920,note_on,,,,,0,0,2,,,,,,0,48,72
43920,note_on,,,,,6,0,1,,,,,,0,67,91
43920,note_on,,,,,30,0,2,,,,,,0,60,0
43950,note_on,,,,,30,0,2,,,,,,0,48,0
43950,note_on,,,,,0,0,2,,,,,,0,56,0
43950,note_on,,,,,0,0,2,,,,,,0,60,63
43980,note_on,,,,,30,0,2,,,,,,0,60,0
43980,note_on,,,,,0,0,2,,,,,,0,59,59
44010,note_on,,,,,0,0,2,,,,,,0,60,62
44010,note_on,,,,,30,0,2,,,,,,0,59,0
44040,note_on,,,,,0,0,1,,,,,,0,66,78
44040,note_on,,,,,0,0,2,,,,,,0,48,64
44040,note_on,,,,,0,0,2,,,,,,0,56,64
44040,note_on,,,,,120,0,1,,,,,,0,67,0
44040,note_on,,,,,30,0,2,,,,,,0,60,0
44070,note_on,,,,,0,0,2,,,,,,0,56,0
44070,note_on,,,,,30,0,2,,,,,,0,48,0
44070,note_on,,,,,0,0,2,,,,,,0,60,66
44085,note_on,,,,,45,0,1,,,,,,0,66,0
44100,note_on,,,,,0,0,2,,,,,,0,59,68
44100,note_on,,,,,15,0,1,,,,,,0,67,83
44100,note_on,,,,,30,0,2,,,,,,0,60,0
44130,note_on,,,,,0,0,2,,,,,,0,60,70
44130,note_on,,,,,30,0,2,,,,,,0,59,0
44130,note_on,,,,,0,0,1,,,,,,0,66,85
44130,note_on,,,,,30,0,1,,,,,,0,67,0
44150,note_on,,,,,20,0,1,,,,,,0,66,0
44160,note_on,,,,,0,0,2,,,,,,0,48,72
44160,note_on,,,,,0,0,2,,,,,,0,56,72
44160,note_on,,,,,30,0,2,,,,,,0,60,0
44160,note_on,,,,,10,0,1,,,,,,0,67,86
44190,note_on,,,,,0,0,1,,,,,,0,66,90
44190,note_on,,,,,30,0,1,,,,,,0,67,0
44190,note_on,,,,,30,0,2,,,,,,0,48,0
44190,note_on,,,,,0,0,2,,,,,,0,56,0
44190,note_on,,,,,0,0,2,,,,,,0,60,73
44210,note_on,,,,,20,0,1,,,,,,0,66,0
44220,note_on,,,,,10,0,1,,,,,,0,67,92
44220,note_on,,,,,30,0,2,,,,,,0,60,0
44220,note_on,,,,,0,0,2,,,,,,0,59,76
44250,note_on,,,,,30,0,2,,,,,,0,59,0
44250,note_on,,,,,0,0,2,,,,,,0,60,78
44250,note_on,,,,,30,0,1,,,,,,0,67,0
44250,note_on,,,,,0,0,1,,,,,,0,66,94
44270,note_on,,,,,20,0,1,,,,,,0,66,0
44280,note_on,,,,,10,0,1,,,,,,0,68,96
44280,note_on,,,,,30,0,2,,,,,,0,60,0
44280,note_on,,,,,0,0,2,,,,,,0,51,79
44280,note_on,,,,,0,0,2,,,,,,0,48,79
44310,note_on,,,,,30,0,2,,,,,,0,48,0
44310,note_on,,,,,0,0,2,,,,,,0,51,0
44310,note_on,,,,,0,0,2,,,,,,0,60,79
44340,note_on,,,,,30,0,2,,,,,,0,60,0
44340,note_on,,,,,0,0,2,,,,,,0,59,75
44370,note_on,,,,,30,0,2,,,,,,0,59,0
44370,note_on,,,,,0,0,2,,,,,,0,60,72
44400,note_on,,,,,0,0,2,,,,,,0,48,69
44400,note_on,,,,,0,0,2,,,,,,0,51,69
44400,note_on,,,,,30,0,2,,,,,,0,60,0
44400,note_on,,,,,120,0,1,,,,,,0,68,0
44400,note_on,,,,,0,0,1,,,,,,0,67,66
44430,note_on,,,,,30,0,2,,,,,,0,48,0
44430,note_on,,,,,0,0,2,,,,,,0,60,66
44430,note_on,,,,,0,0,2,,,,,,0,51,0
44460,note_on,,,,,30,0,2,,,,,,0,60,0
44460,note_on,,,,,0,0,2,,,,,,0,59,62
44460,note_on,,,,,60,0,1,,,,,,0,67,0
44490,note_on,,,,,30,0,2,,,,,,0,59,0
44490,note_on,,,,,0,0,2,,,,,,0,60,59
44520,note_on,,,,,30,0,2,,,,,,0,60,0
44520,note_on,,,,,0,0,2,,,,,,0,51,56
44520,note_on,,,,,0,0,2,,,,,,0,48,56
44550,note_on,,,,,30,0,2,,,,,,0,48,0
44550,note_on,,,,,0,0,2,,,,,,0,60,48
44550,note_on,,,,,0,0,2,,,,,,0,51,0
44580,note_on,,,,,30,0,2,,,,,,0,60,0
44580,note_on,,,,,0,0,2,,,,,,0,59,41
44600,set_tempo,,,,,2510,1,0,,833333,,,,,,
44610,note_on,,,,,0,0,2,,,,,,0,60,37
44610,note_on,,,,,30,0,2,,,,,,0,59,0
44610,note_on,,,,,150,0,1,,,,,,0,67,52
44632,note_on,,,,,22,0,1,,,,,,0,67,0
44640,control_change,,,,,0,0,1,,,,64,96,0,,
44640,note_on,,,,,8,0,1,,,,,,0,72,54
44640,note_on,,,,,30,0,2,,,,,,0,60,0
44640,note_on,,,,,0,0,2,,,,,,0,44,35
44660,set_tempo,,,,,60,1,0,,504201,,,,,,
44670,note_on,,,,,0,0,2,,,,,,0,51,33
44670,note_on,,,,,30,0,2,,,,,,0,44,0
44700,note_on,,,,,0,0,2,,,,,,0,50,33
44700,note_on,,,,,30,0,2,,,,,,0,51,0
44730,note_on,,,,,30,0,2,,,,,,0,50,0
44730,set_tempo,,,,,70,1,0,,500000,,,,,,
44730,note_on,,,,,0,0,2,,,,,,0,51,35
44740,set_tempo,,,,,10,1,0,,495867,,,,,,
44754,note_on,,,,,24,0,2,,,,,,0,51,0
44760,note_on,,,,,120,0,1,,,,,,0,72,0
44760,note_on,,,,,0,0,1,,,,,,0,68,50
44760,control_change,,,,,0,0,1,,,,64,0,0,,
44760,set_tempo,,,,,20,1,0,,491803,,,,,,
44760,note_on,,,,,6,0,2,,,,,,0,44,37
44790,note_on,,,,,30,0,2,,,,,,0,44,0
44790,note_on,,,,,0,0,2,,,,,,0,51,38
44790,set_tempo,,,,,30,1,0,,487804,,,,,,
44820,note_on,,,,,60,0,1,,,,,,0,68,0
44820,note_on,,,,,0,0,2,,,,,,0,50,39
44820,note_on,,,,,30,0,2,,,,,,0,51,0
44820,note_on,,,,,0,0,1,,,,,,0,63,42
44850,note_on,,,,,30,0,2,,,,,,0,50,0
44850,note_on,,,,,0,0,2,,,,,,0,51,39
44870,set_tempo,,,,,80,1,0,,483870,,,,,,
44874,note_on,,,,,24,0,2,,,,,,0,51,0
44880,note_on,,,,,60,0,1,,,,,,0,63,0
44880,note_on,,,,,6,0,2,,,,,,0,44,39
44880,note_on,,,,,0,0,1,,,,,,0,60,48
44910,note_on,,,,,0,0,2,,,,,,0,51,40
44910,note_on,,,,,30,0,2,,,,,,0,44,0
44930,set_tempo,,,,,60,1,0,,480000,,,,,,
44940,set_tempo,,,,,10,1,0,,476190,,,,,,
44940,note_on,,,,,0,0,1,,,,,,0,75,52
44940,note_on,,,,,0,0,2,,,,,,0,50,40
44940,note_on,,,,,30,0,2,,,,,,0,51,0
44940,note_on,,,,,60,0,1,,,,,,0,60,0
44970,note_on,,,,,0,0,2,,,,,,0,51,40
44970,note_on,,,,,30,0,2,,,,,,0,50,0
45000,note_on,,,,,60,0,1,,,,,,0,75,0
45000,note_on,,,,,0,0,1,,,,,,0,70,54
45000,control_change,,,,,0,0,1,,,,64,95,0,,
45000,note_on,,,,,0,0,2,,,,,,0,43,39
45000,note_on,,,,,30,0,2,,,,,,0,51,0
45030,note_on,,,,,30,0,2,,,,,,0,43,0
45030,note_on,,,,,0,0,2,,,,,,0,51,37
45050,set_tempo,,,,,110,1,0,,472440,,,,,,
45060,note_on,,,,,30,0,2,,,,,,0,51,0
45060,note_on,,,,,0,0,2,,,,,,0,50,35
45090,note_on,,,,,90,0,1,,,,,,0,70,0
45090,note_on,,,,,0,0,2,,,,,,0,51,35
45090,note_on,,,,,30,0,2,,,,,,0,50,0
45110,set_tempo,,,,,60,1,0,,468750,,,,,,
45114,note_on,,,,,24,0,2,,,,,,0,51,0
45115,control_change,,,,,25,0,1,,,,64,0,0,,
45120,note_on,,,,,5,0,1,,,,,,0,70,41
45120,control_change,,,,,0,0,1,,,,64,95,0,,
45120,note_on,,,,,6,0,2,,,,,,0,43,27
45150,note_on,,,,,0,0,2,,,,,,0,51,26
45150,note_on,,,,,30,0,2,,,,,,0,43,0
45150,set_tempo,,,,,40,1,0,,465116,,,,,,
45180,note_on,,,,,0,0,2,,,,,,0,50,29
45180,note_on,,,,,30,0,2,,,,,,0,51,0
45210,note_on,,,,,0,0,2,,,,,,0,51,32
45210,set_tempo,,,,,60,1,0,,461538,,,,,,
45210,note_on,,,,,30,0,2,,,,,,0,50,0
45210,note_on,,,,,90,0,1,,,,,,0,70,0
45234,note_on,,,,,24,0,2,,,,,,0,51,0
45240,control_change,,,,,30,0,1,,,,64,0,0,,
45240,note_on,,,,,6,0,2,,,,,,0,48,35
45270,note_on,,,,,30,0,2,,,,,,0,48,0
45270,note_on,,,,,0,0,2,,,,,,0,52,36
45300,note_on,,,,,30,0,2,,,,,,0,52,0
45300,note_on,,,,,0,0,2,,,,,,0,51,39
45330,note_on,,,,,0,0,2,,,,,,0,52,40
45330,note_on,,,,,90,0,1,,,,,,0,67,38
45330,note_on,,,,,30,0,2,,,,,,0,51,0
45352,note_on,,,,,22,0,1,,,,,,0,67,0
45360,note_on,,,,,8,0,1,,,,,,0,68,48
45360,note_on,,,,,30,0,2,,,,,,0,52,0
45360,note_on,,,,,0,0,2,,,,,,0,41,48
45390,note_on,,,,,0,0,2,,,,,,0,53,48
45390,note_on,,,,,30,0,2,,,,,,0,41,0
45420,note_on,,,,,60,0,1,,,,,,0,68,0
45420,note_on,,,,,0,0,1,,,,,,0,72,35
45420,note_on,,,,,0,0,2,,,,,,0,44,33
45420,note_on,,,,,30,0,2,,,,,,0,53,0
45450,note_on,,,,,0,0,2,,,,,,0,53,35
45450,note_on,,,,,30,0,2,,,,,,0,44,0
45480,note_on,,,,,0,0,2,,,,,,0,43,37
45480,note_on,,,,,0,0,1,,,,,,0,70,37
45480,note_on,,,,,30,0,2,,,,,,0,53,0
45480,note_on,,,,,60,0,1,,,,,,0,72,0
45510,note_on,,,,,30,0,2,,,,,,0,43,0
45510,note_on,,,,,0,0,2,,,,,,0,53,38
45540,note_on,,,,,30,0,2,,,,,,0,53,0
45540,note_on,,,,,0,0,2,,,,,,0,44,39
45540,note_on,,,,,0,0,1,,,,,,0,68,38
45540,note_on,,,,,60,0,1,,,,,,0,70,0
45570,note_on,,,,,0,0,2,,,,,,0,53,39
45570,note_on,,,,,30,0,2,,,,,,0,44,0
45600,note_on,,,,,0,0,2,,,,,,0,46,41
45600,note_on,,,,,30,0,2,,,,,,0,53,0
45600,note_on,,,,,60,0,1,,,,,,0,68,0
45600,note_on,,,,,0,0,1,,,,,,0,67,41
45630,note_on,,,,,30,0,2,,,,,,0,46,0
45630,note_on,,,,,0,0,2,,,,,,0,55,42
45660,note_on,,,,,30,0,2,,,,,,0,55,0
45660,note_on,,,,,0,0,2,,,,,,0,46,44
45660,note_on,,,,,60,0,1,,,,,,0,67,0
45660,note_on,,,,,0,0,1,,,,,,0,65,44
45680,set_tempo,,,,,470,1,0,,465116,,,,,,
45690,set_tempo,,,,,10,1,0,,468750,,,,,,
45690,note_on,,,,,30,0,2,,,,,,0,46,0
45690,note_on,,,,,0,0,2,,,,,,0,56,45
45720,note_on,,,,,60,0,1,,,,,,0,65,0
45720,control_change,,,,,0,0,1,,,,64,96,0,,
45720,note_on,,,,,0,0,1,,,,,,0,66,47
45720,note_on,,,,,0,0,1,,,,,,0,62,47
45720,note_on,,,,,30,0,2,,,,,,0,56,0
45720,note_on,,,,,0,0,2,,,,,,0,51,46
45730,set_tempo,,,,,40,1,0,,472440,,,,,,
45750,note_on,,,,,30,0,2,,,,,,0,51,0
45750,note_on,,,,,0,0,2,,,,,,0,58,46
45780,note_on,,,,,0,0,2,,,,,,0,57,44
45780,note_on,,,,,30,0,2,,,,,,0,58,0
45810,note_on,,,,,30,0,2,,,,,,0,57,0
45810,note_on,,,,,0,0,2,,,,,,0,58,41
45810,set_tempo,,,,,80,1,0,,476190,,,,,,
45834,note_on,,,,,24,0,2,,,,,,0,58,0
45840,note_on,,,,,120,0,1,,,,,,0,66,0
45840,note_on,,,,,0,0,1,,,,,,0,62,0
45840,note_on,,,,,0,0,1,,,,,,0,63,36
45840,note_on,,,,,0,0,1,,,,,,0,67,36
45840,note_on,,,,,6,0,2,,,,,,0,51,40
45840,control_change,,,,,0,0,1,,,,64,0,0,,
45860,set_tempo,,,,,50,1,0,,483870,,,,,,
45870,note_on,,,,,30,0,2,,,,,,0,51,0
45870,note_on,,,,,0,0,2,,,,,,0,58,39
45880,set_tempo,,,,,20,1,0,,487804,,,,,,
45900,note_on,,,,,30,0,2,,,,,,0,58,0
45900,note_on,,,,,0,0,2,,,,,,0,57,37
45930,note_on,,,,,30,0,2,,,,,,0,57,0
45930,note_on,,,,,0,0,2,,,,,,0,58,36
45930,note_on,,,,,90,0,1,,,,,,0,67,0
45930,note_on,,,,,0,0,1,,,,,,0,63,0
45954,note_on,,,,,24,0,2,,,,,,0,58,0
45960,set_tempo,,,,,80,1,0,,491803,,,,,,
45960,note_on,,,,,6,0,2,,,,,,0,51,35
45990,note_on,,,,,0,0,2,,,,,,0,58,35
45990,note_on,,,,,30,0,2,,,,,,0,51,0
46020,note_on,,,,,0,0,2,,,,,,0,57,33
46020,note_on,,,,,30,0,2,,,,,,0,58,0
46050,note_on,,,,,30,0,2,,,,,,0,57,0
46050,set_tempo,,,,,90,1,0,,500000,,,,,,
46050,note_on,,,,,120,0,1,,,,,,0,82,60
46050,note_on,,,,,0,0,2,,,,,,0,58,32
46074,note_on,,,,,24,0,2,,,,,,0,58,0
46080,control_change,,,,,0,0,1,,,,64,96,0,,
46080,note_on,,,,,30,0,1,,,,,,0,82,0
46080,note_on,,,,,0,0,1,,,,,,0,84,60
46080,set_tempo,,,,,30,1,0,,833333,,,,,,
46080,note_on,,,,,6,0,2,,,,,,0,56,35
46100,set_tempo,,,,,20,1,0,,504201,,,,,,
46110,note_on,,,,,30,0,2,,,,,,0,56,0
46110,note_on,,,,,0,0,2,,,,,,0,63,33
46140,note_on,,,,,30,0,2,,,,,,0,63,0
46140,note_on,,,,,0,0,2,,,,,,0,62,33
46170,note_on,,,,,30,0,2,,,,,,0,62,0
46170,note_on,,,,,0,0,2,,,,,,0,63,35
46170,set_tempo,,,,,70,1,0,,500000,,,,,,
46180,set_tempo,,,,,10,1,0,,495867,,,,,,
46194,note_on,,,,,24,0,2,,,,,,0,63,0
46200,set_tempo,,,,,20,1,0,,491803,,,,,,
46200,control_change,,,,,0,0,1,,,,64,0,0,,
46200,note_on,,,,,0,0,1,,,,,,0,80,53
46200,note_on,,,,,6,0,2,,,,,,0,56,37
46200,note_on,,,,,120,0,1,,,,,,0,84,0
46230,note_on,,,,,0,0,2,,,,,,0,63,38
46230,note_on,,,,,30,0,2,,,,,,0,56,0
46230,set_tempo,,,,,30,1,0,,487804,,,,,,
46260,note_on,,,,,30,0,2,,,,,,0,63,0
46260,note_on,,,,,0,0,2,,,,,,0,62,39
46260,note_on,,,,,60,0,1,,,,,,0,80,0
46260,note_on,,,,,0,0,1,,,,,,0,75,52
46290,note_on,,,,,30,0,2,,,,,,0,62,0
46290,note_on,,,,,0,0,2,,,,,,0,63,39
46310,set_tempo,,,,,80,1,0,,483870,,,,,,
46314,note_on,,,,,24,0,2,,,,,,0,63,0
46320,note_on,,,,,6,0,2,,,,,,0,56,39
46320,note_on,,,,,60,0,1,,,,,,0,75,0
46320,note_on,,,,,0,0,1,,,,,,0,72,55
46350,note_on,,,,,30,0,2,,,,,,0,56,0
46350,note_on,,,,,0,0,2,,,,,,0,63,40
46370,set_tempo,,,,,60,1,0,,480000,,,,,,
46380,note_on,,,,,30,0,2,,,,,,0,63,0
46380,note_on,,,,,60,0,1,,,,,,0,72,0
46380,set_tempo,,,,,10,1,0,,476190,,,,,,
46380,note_on,,,,,0,0,2,,,,,,0,62,40
46380,note_on,,,,,0,0,1,,,,,,0,87,58
46410,note_on,,,,,0,0,2,,,,,,0,63,40
46410,note_on,,,,,30,0,2,,,,,,0,62,0
46440,note_on,,,,,60,0,1,,,,,,0,87,0
46440,note_on,,,,,0,0,1,,,,,,0,82,60
46440,control_change,,,,,0,0,1,,,,64,95,0,,
46440,note_on,,,,,0,0,2,,,,,,0,55,39
46440,note_on,,,,,30,0,2,,,,,,0,63,0
46470,note_on,,,,,0,0,2,,,,,,0,63,37
46470,note_on,,,,,30,0,2,,,,,,0,55,0
46490,set_tempo,,,,,110,1,0,,472440,,,,,,
46500,note_on,,,,,0,0,2,,,,,,0,62,35
46500,note_on,,,,,30,0,2,,,,,,0,63,0
46530,note_on,,,,,30,0,2,,,,,,0,62,0
46530,note_on,,,,,90,0,1,,,,,,0,82,0
46530,note_on,,,,,0,0,2,,,,,,0,63,35
46550,set_tempo,,,,,60,1,0,,468750,,,,,,
46554,note_on,,,,,24,0,2,,,,,,0,63,0
46555,control_change,,,,,25,0,1,,,,64,0,0,,
46560,note_on,,,,,6,0,2,,,,,,0,55,27
46560,control_change,,,,,0,0,1,,,,64,95,0,,
46560,note_on,,,,,5,0,1,,,,,,0,82,52
46590,note_on,,,,,30,0,2,,,,,,0,55,0
46590,set_tempo,,,,,40,1,0,,465116,,,,,,
46590,note_on,,,,,0,0,2,,,,,,0,63,26
46620,note_on,,,,,0,0,2,,,,,,0,62,29
46620,note_on,,,,,30,0,2,,,,,,0,63,0
46650,note_on,,,,,90,0,1,,,,,,0,82,0
46650,note_on,,,,,30,0,2,,,,,,0,62,0
46650,note_on,,,,,0,0,2,,,,,,0,63,32
46650,set_tempo,,,,,60,1,0,,461538,,,,,,
46674,note_on,,,,,24,0,2,,,,,,0,63,0
46680,note_on,,,,,6,0,2,,,,,,0,60,35
46680,control_change,,,,,30,0,1,,,,64,0,0,,
46710,note_on,,,,,30,0,2,,,,,,0,60,0
46710,note_on,,,,,0,0,2,,,,,,0,64,36
46740,note_on,,,,,30,0,2,,,,,,0,64,0
46740,note_on,,,,,0,0,2,,,,,,0,63,39
46770,note_on,,,,,90,0,1,,,,,,0,79,50
46770,set_tempo,,,,,120,1,0,,476190,,,,,,
46770,note_on,,,,,30,0,2,,,,,,0,63,0
46770,note_on,,,,,0,0,2,,,,,,0,64,40
46792,note_on,,,,,22,0,1,,,,,,0,79,0
46800,note_on,,,,,8,0,1,,,,,,0,80,53
46800,note_on,,,,,0,0,2,,,,,,0,53,48
46800,note_on,,,,,30,0,2,,,,,,0,64,0
46800,control_change,,,,,0,0,1,,,,64,95,0,,
46830,note_on,,,,,30,0,2,,,,,,0,53,0
46830,note_on,,,,,0,0,2,,,,,,0,65,40
46860,note_on,,,,,0,0,1,,,,,,0,84,43
46860,note_on,,,,,0,0,2,,,,,,0,56,42
46860,note_on,,,,,30,0,2,,,,,,0,65,0
46860,note_on,,,,,60,0,1,,,,,,0,80,0
46890,note_on,,,,,0,0,2,,,,,,0,65,43
46890,note_on,,,,,30,0,2,,,,,,0,56,0
46920,note_on,,,,,0,0,2,,,,,,0,55,45
46920,note_on,,,,,30,0,2,,,,,,0,65,0
46920,control_change,,,,,0,0,1,,,,64,0,0,,
46920,note_on,,,,,60,0,1,,,,,,0,84,0
46920,note_on,,,,,0,0,1,,,,,,0,82,44
46950,note_on,,,,,30,0,2,,,,,,0,55,0
46950,note_on,,,,,0,0,2,,,,,,0,65,48
46980,note_on,,,,,0,0,2,,,,,,0,56,50
46980,note_on,,,,,60,0,1,,,,,,0,82,0
46980,note_on,,,,,0,0,1,,,,,,0,80,46
46980,note_on,,,,,30,0,2,,,,,,0,65,0
47010,note_on,,,,,0,0,2,,,,,,0,65,51
47010,note_on,,,,,30,0,2,,,,,,0,56,0
47030,set_tempo,,,,,260,1,0,,472440,,,,,,
47040,note_on,,,,,30,0,2,,,,,,0,65,0
47040,note_on,,,,,0,0,2,,,,,,0,58,53
47040,note_on,,,,,60,0,1,,,,,,0,80,0
47040,note_on,,,,,0,0,1,,,,,,0,79,49
47070,note_on,,,,,0,0,2,,,,,,0,63,54
47070,note_on,,,,,30,0,2,,,,,,0,58,0
47090,set_tempo,,,,,60,1,0,,468750,,,,,,
47100,note_on,,,,,60,0,1,,,,,,0,79,0
47100,note_on,,,,,0,0,2,,,,,,0,58,56
47100,note_on,,,,,0,0,1,,,,,,0,77,55
47100,note_on,,,,,30,0,2,,,,,,0,63,0
47110,set_tempo,,,,,20,1,0,,465116,,,,,,
47130,note_on,,,,,0,0,2,,,,,,0,62,57
47130,note_on,,,,,30,0,2,,,,,,0,58,0
47150,set_tempo,,,,,40,1,0,,461538,,,,,,
47160,note_on,,,,,0,0,2,,,,,,0,51,59
47160,control_change,,,,,0,0,1,,,,64,97,0,,
47160,note_on,,,,,30,0,2,,,,,,0,62,0
47160,note_on,,,,,60,0,1,,,,,,0,77,0
47160,note_on,,,,,0,0,1,,,,,,0,79,60
47190,note_on,,,,,30,0,2,,,,,,0,51,0
47190,note_on,,,,,0,0,2,,,,,,0,63,53
47220,note_on,,,,,30,0,2,,,,,,0,63,0
47220,note_on,,,,,0,0,2,,,,,,0,55,56
47220,note_on,,,,,0,0,1,,,,,,0,82,56
47220,note_on,,,,,60,0,1,,,,,,0,79,0
47230,set_tempo,,,,,80,1,0,,458015,,,,,,
47250,note_on,,,,,30,0,2,,,,,,0,55,0
47250,note_on,,,,,0,0,2,,,,,,0,63,57
47280,note_on,,,,,0,0,2,,,,,,0,60,59
47280,control_change,,,,,0,0,1,,,,64,0,0,,
47280,note_on,,,,,0,0,1,,,,,,0,80,61
47280,note_on,,,,,60,0,1,,,,,,0,82,0
47280,note_on,,,,,30,0,2,,,,,,0,63,0
47310,note_on,,,,,30,0,2,,,,,,0,60,0
47310,note_on,,,,,0,0,2,,,,,,0,63,60
47330,set_tempo,,,,,100,1,0,,454545,,,,,,
47340,note_on,,,,,0,0,1,,,,,,0,79,66
47340,note_on,,,,,60,0,1,,,,,,0,80,0
47340,note_on,,,,,0,0,2,,,,,,0,58,61
47340,note_on,,,,,30,0,2,,,,,,0,63,0
47370,note_on,,,,,30,0,2,,,,,,0,58,0
47370,note_on,,,,,0,0,2,,,,,,0,63,63
47390,set_tempo,,,,,60,1,0,,451127,,,,,,
47400,note_on,,,,,30,0,2,,,,,,0,63,0
47400,note_on,,,,,0,0,1,,,,,,0,77,70
47400,note_on,,,,,0,0,2,,,,,,0,56,65
47400,note_on,,,,,60,0,1,,,,,,0,79,0
47430,note_on,,,,,30,0,2,,,,,,0,56,0
47430,note_on,,,,,0,0,2,,,,,,0,63,67
47440,set_tempo,,,,,50,1,0,,447761,,,,,,
47460,note_on,,,,,60,0,1,,,,,,0,77,0
47460,note_on,,,,,0,0,1,,,,,,0,75,74
47460,note_on,,,,,30,0,2,,,,,,0,63,0
47460,note_on,,,,,0,0,2,,,,,,0,55,67
47490,note_on,,,,,0,0,2,,,,,,0,63,69
47490,note_on,,,,,30,0,2,,,,,,0,55,0
47520,set_tempo,,,,,80,1,0,,444444,,,,,,
47520,note_on,,,,,0,0,2,,,,,,0,46,70
47520,note_on,,,,,30,0,2,,,,,,0,63,0
47520,note_on,,,,,60,0,1,,,,,,0,75,0
47520,note_on,,,,,0,0,1,,,,,,0,74,78
47520,control_change,,,,,0,0,1,,,,64,95,0,,
47550,note_on,,,,,0,0,2,,,,,,0,58,61
47550,note_on,,,,,30,0,2,,,,,,0,46,0
47580,note_on,,,,,60,0,1,,,,,,0,74,0
47580,note_on,,,,,0,0,2,,,,,,0,50,63
47580,note_on,,,,,30,0,2,,,,,,0,58,0
47580,note_on,,,,,0,0,1,,,,,,0,80,66
47590,set_tempo,,,,,70,1,0,,441176,,,,,,
47610,note_on,,,,,30,0,2,,,,,,0,50,0
47610,note_on,,,,,0,0,2,,,,,,0,58,66
47640,note_on,,,,,30,0,2,,,,,,0,58,0
47640,note_on,,,,,60,0,1,,,,,,0,80,0
47640,note_on,,,,,0,0,2,,,,,,0,51,68
47640,note_on,,,,,0,0,1,,,,,,0,79,70
47660,set_tempo,,,,,70,1,0,,437956,,,,,,
47670,note_on,,,,,0,0,2,,,,,,0,58,71
47670,note_on,,,,,30,0,2,,,,,,0,51,0
47700,note_on,,,,,60,0,1,,,,,,0,79,0
47700,note_on,,,,,0,0,1,,,,,,0,77,75
47700,note_on,,,,,30,0,2,,,,,,0,58,0
47700,note_on,,,,,0,0,2,,,,,,0,53,73
47730,set_tempo,,,,,70,1,0,,434782,,,,,,
47730,note_on,,,,,0,0,2,,,,,,0,58,76
47730,note_on,,,,,30,0,2,,,,,,0,53,0
47760,note_on,,,,,0,0,1,,,,,,0,75,79
47760,control_change,,,,,0,0,1,,,,64,95,0,,
47760,note_on,,,,,30,0,2,,,,,,0,58,0
47760,note_on,,,,,0,0,2,,,,,,0,55,78
47760,note_on,,,,,60,0,1,,,,,,0,77,0
47790,note_on,,,,,0,0,2,,,,,,0,58,81
47790,note_on,,,,,30,0,2,,,,,,0,55,0
47800,set_tempo,,,,,70,1,0,,431654,,,,,,
47820,note_on,,,,,60,0,1,,,,,,0,75,0
47820,note_on,,,,,0,0,1,,,,,,0,74,88
47820,note_on,,,,,0,0,2,,,,,,0,56,84
47820,note_on,,,,,30,0,2,,,,,,0,58,0
47840,set_tempo,,,,,40,1,0,,428571,,,,,,
47850,note_on,,,,,30,0,2,,,,,,0,56,0
47850,note_on,,,,,0,0,2,,,,,,0,58,87
47875,control_change,,,,,55,0,1,,,,64,0,0,,
47880,note_on,,,,,0,0,2,,,,,,0,46,95
47880,note_on,,,,,30,0,2,,,,,,0,58,0
47880,note_on,,,,,5,0,1,,,,,,0,74,0
47880,note_on,,,,,0,0,1,,,,,,0,75,95
47880,control_change,,,,,0,0,1,,,,64,95,0,,
47910,note_on,,,,,30,0,2,,,,,,0,46,0
47910,note_on,,,,,0,0,2,,,,,,0,57,90
47910,set_tempo,,,,,70,1,0,,425531,,,,,,
47910,note_on,,,,,0,0,1,,,,,,0,78,90
47910,note_on,,,,,30,0,1,,,,,,0,75,0
47940,note_on,,,,,0,0,2,,,,,,0,48,91
47940,note_on,,,,,0,0,1,,,,,,0,75,91
47940,note_on,,,,,30,0,1,,,,,,0,78,0
47940,note_on,,,,,30,0,2,,,,,,0,57,0
47950,set_tempo,,,,,40,1,0,,425531,,,,,,
47970,note_on,,,,,30,0,1,,,,,,0,75,0
47970,note_on,,,,,0,0,1,,,,,,0,72,93
47970,note_on,,,,,30,0,2,,,,,,0,48,0
47970,note_on,,,,,0,0,2,,,,,,0,57,93
47992,note_on,,,,,22,0,1,,,,,,0,72,0
47992,note_on,,,,,22,0,2,,,,,,0,57,0
48000,note_on,,,,,8,0,1,,,,,,0,72,102
48000,note_on,,,,,8,0,2,,,,,,0,51,102
48010,set_tempo,,,,,60,1,0,,428571,,,,,,
48030,set_tempo,,,,,20,1,0,,431654,,,,,,
48030,note_on,,,,,30,0,2,,,,,,0,51,0
48030,note_on,,,,,0,0,1,,,,,,0,75,100
48030,note_on,,,,,0,0,2,,,,,,0,57,100
48030,note_on,,,,,30,0,1,,,,,,0,72,0
48060,note_on,,,,,0,0,1,,,,,,0,72,99
48060,note_on,,,,,30,0,1,,,,,,0,75,0
48060,note_on,,,,,30,0,2,,,,,,0,57,0
48060,note_on,,,,,0,0,2,,,,,,0,54,99
48090,note_on,,,,,0,0,2,,,,,,0,57,103
48090,note_on,,,,,0,0,1,,,,,,0,69,103
48090,note_on,,,,,30,0,2,,,,,,0,54,0
48090,note_on,,,,,30,0,1,,,,,,0,72,0
48110,set_tempo,,,,,80,1,0,,434782,,,,,,
48112,note_on,,,,,22,0,1,,,,,,0,69,0
48112,note_on,,,,,22,0,2,,,,,,0,57,0
48120,note_on,,,,,8,0,1,,,,,,0,69,113
48120,note_on,,,,,8,0,2,,,,,,0,51,113
48150,note_on,,,,,30,0,2,,,,,,0,51,0
48150,note_on,,,,,0,0,1,,,,,,0,72,109
48150,note_on,,,,,30,0,1,,,,,,0,69,0
48150,set_tempo,,,,,40,1,0,,437956,,,,,,
48150,note_on,,,,,0,0,2,,,,,,0,57,109
48180,note_on,,,,,0,0,2,,,,,,0,48,112
48180,note_on,,,,,30,0,1,,,,,,0,72,0
48180,note_on,,,,,0,0,1,,,,,,0,69,112
48180,note_on,,,,,30,0,2,,,,,,0,57,0
48200,set_tempo,,,,,50,1,0,,441176,,,,,,
48210,note_on,,,,,30,0,2,,,,,,0,48,0
48210,note_on,,,,,0,0,2,,,,,,0,57,114
48210,note_on,,,,,30,0,1,,,,,,0,69,0
48210,note_on,,,,,0,0,1,,,,,,0,63,114
48235,control_change,,,,,25,0,1,,,,64,0,0,,
48240,control_change,,,,,0,0,1,,,,64,94,0,,
48240,note_on,,,,,30,0,2,,,,,,0,57,0
48240,note_on,,,,,0,0,2,,,,,,0,46,117
48240,note_on,,,,,5,0,1,,,,,,0,63,0
48240,note_on,,,,,0,0,1,,,,,,0,70,117
48270,note_on,,,,,0,0,1,,,,,,0,74,113
48270,note_on,,,,,30,0,1,,,,,,0,70,0
48300,note_on,,,,,60,0,2,,,,,,0,46,0
48300,note_on,,,,,0,0,1,,,,,,0,70,113
48300,note_on,,,,,30,0,1,,,,,,0,74,0
48310,set_tempo,,,,,110,1,0,,444444,,,,,,
48330,note_on,,,,,0,0,1,,,,,,0,65,113
48330,note_on,,,,,30,0,1,,,,,,0,70,0
48352,note_on,,,,,22,0,1,,,,,,0,65,0
48360,note_on,,,,,60,0,2,,,,,,0,53,122
48360,set_tempo,,,,,50,1,0,,447761,,,,,,
48360,note_on,,,,,8,0,1,,,,,,0,65,122
48390,note_on,,,,,0,0,2,,,,,,0,58,113
48390,note_on,,,,,0,0,1,,,,,,0,70,113
48390,note_on,,,,,30,0,1,,,,,,0,65,0
48390,note_on,,,,,30,0,2,,,,,,0,53,0
48420,note_on,,,,,30,0,2,,,,,,0,58,0
48420,note_on,,,,,0,0,2,,,,,,0,53,113
48420,note_on,,,,,0,0,1,,,,,,0,65,113
48420,note_on,,,,,30,0,1,,,,,,0,70,0
48450,note_on,,,,,30,0,2,,,,,,0,53,0
48450,note_on,,,,,0,0,1,,,,,,0,62,113
48450,note_on,,,,,30,0,1,,,,,,0,65,0
48450,note_on,,,,,0,0,2,,,,,,0,50,113
48472,note_on,,,,,22,0,2,,,,,,0,50,0
48472,note_on,,,,,22,0,1,,,,,,0,62,0
48480,note_on,,,,,8,0,1,,,,,,0,62,122
48480,note_on,,,,,8,0,2,,,,,,0,50,122
48490,set_tempo,,,,,130,1,0,,451127,,,,,,
48510,note_on,,,,,30,0,2,,,,,,0,50,0
48510,note_on,,,,,0,0,2,,,,,,0,53,117
48510,set_tempo,,,,,20,1,0,,454545,,,,,,
48510,note_on,,,,,30,0,1,,,,,,0,62,0
48510,note_on,,,,,0,0,1,,,,,,0,65,117
48530,set_tempo,,,,,20,1,0,,458015,,,,,,
48540,note_on,,,,,30,0,2,,,,,,0,53,0
48540,note_on,,,,,0,0,2,,,,,,0,50,119
48540,note_on,,,,,0,0,1,,,,,,0,62,119
48540,note_on,,,,,30,0,1,,,,,,0,65,0
48570,note_on,,,,,30,0,2,,,,,,0,50,0
48570,note_on,,,,,0,0,2,,,,,,0,46,123
48570,note_on,,,,,0,0,1,,,,,,0,58,125
48570,note_on,,,,,30,0,1,,,,,,0,62,0
48590,control_change,,,,,20,0,1,,,,64,0,0,,
48592,note_on,,,,,22,0,2,,,,,,0,46,0
48592,note_on,,,,,2,0,1,,,,,,0,58,0
48600,control_change,,,,,0,0,1,,,,64,96,0,,
48600,note_on,,,,,8,0,1,,,,,,0,70,127
48600,note_on,,,,,8,0,2,,,,,,0,34,127
48660,note_on,,,,,60,0,1,,,,,,0,70,0
48660,note_on,,,,,60,0,2,,,,,,0,34,0
48670,set_tempo,,,,,140,1,0,,461538,,,,,,
48720,note_on,,,,,0,0,1,,,,,,0,70,127
48720,note_on,,,,,60,0,2,,,,,,0,34,127
48720,note_on,,,,,0,0,2,,,,,,0,46,127
48720,note_on,,,,,60,0,1,,,,,,0,58,127
48750,set_tempo,,,,,80,1,0,,465116,,,,,,
48810,set_tempo,,,,,60,1,0,,468750,,,,,,
48835,control_change,,,,,115,0,1,,,,64,0,0,,
48840,note_on,,,,,0,0,1,,,,,,0,58,0
48840,note_on,,,,,5,0,1,,,,,,0,70,0
48840,note_on,,,,,0,0,2,,,,,,0,34,0
48840,note_on,,,,,120,0,2,,,,,,0,46,0
49130,set_tempo,,,,,320,1,0,,689655,,,,,,
49140,note_on,,,,,0,0,2,,,,,,0,56,44
49140,note_on,,,,,300,0,2,,,,,,0,46,44
49140,control_change,,,,,0,0,1,,,,64,95,0,,
49140,note_on,,,,,300,0,1,,,,,,0,58,38
49140,note_on,,,,,0,0,1,,,,,,0,68,38
49185,note_on,,,,,45,0,2,,,,,,0,56,0
49185,note_on,,,,,0,0,1,,,,,,0,58,0
49185,note_on,,,,,45,0,1,,,,,,0,68,0
49185,note_on,,,,,0,0,2,,,,,,0,46,0
49200,note_on,,,,,0,0,2,,,,,,0,56,46
49200,note_on,,,,,15,0,2,,,,,,0,48,46
49200,set_tempo,,,,,70,1,0,,689655,,,,,,
49200,note_on,,,,,0,0,1,,,,,,0,67,43
49200,note_on,,,,,15,0,1,,,,,,0,58,43
49210,set_tempo,,,,,10,1,0,,714285,,,,,,
49245,note_on,,,,,45,0,2,,,,,,0,56,0
49245,note_on,,,,,0,0,1,,,,,,0,58,0
49245,note_on,,,,,45,0,1,,,,,,0,67,0
49245,note_on,,,,,0,0,2,,,,,,0,48,0
49250,set_tempo,,,,,40,1,0,,923076,,,,,,
49260,note_on,,,,,0,0,1,,,,,,0,65,47
49260,note_on,,,,,15,0,1,,,,,,0,58,47
49260,note_on,,,,,0,0,2,,,,,,0,56,51
49260,note_on,,,,,15,0,2,,,,,,0,50,51
49305,note_on,,,,,45,0,2,,,,,,0,56,0
49305,note_on,,,,,0,0,2,,,,,,0,50,0
49305,note_on,,,,,0,0,1,,,,,,0,58,0
49305,note_on,,,,,45,0,1,,,,,,0,65,0
49310,control_change,,,,,5,0,1,,,,64,0,0,,
49320,note_on,,,,,15,0,2,,,,,,0,51,53
49320,note_on,,,,,0,0,2,,,,,,0,55,53
49320,set_tempo,,,,,70,1,0,,535714,,,,,,
49320,control_change,,,,,0,0,1,,,,64,95,0,,
49320,note_on,,,,,10,0,1,,,,,,0,63,50
49440,note_on,,,,,120,0,1,,,,,,0,58,48
49530,note_on,,,,,90,0,1,,,,,,0,58,0
49555,control_change,,,,,25,0,1,,,,64,0,0,,
49560,note_on,,,,,0,0,1,,,,,,0,62,44
49560,note_on,,,,,240,0,2,,,,,,0,55,0
49560,note_on,,,,,0,0,2,,,,,,0,56,45
49560,note_on,,,,,0,0,2,,,,,,0,53,45
49560,note_on,,,,,0,0,2,,,,,,0,51,0
49560,note_on,,,,,5,0,1,,,,,,0,63,0
49560,note_on,,,,,0,0,1,,,,,,0,58,44
49560,control_change,,,,,0,0,1,,,,64,94,0,,
49650,note_on,,,,,0,0,1,,,,,,0,58,0
49650,note_on,,,,,90,0,1,,,,,,0,62,0
49650,note_on,,,,,0,0,2,,,,,,0,53,0
49650,note_on,,,,,90,0,2,,,,,,0,56,0
49675,control_change,,,,,25,0,1,,,,64,0,0,,
49680,set_tempo,,,,,360,1,0,,540540,,,,,,
49680,control_change,,,,,0,0,1,,,,64,97,0,,
49680,note_on,,,,,0,0,1,,,,,,0,63,47
49680,note_on,,,,,5,0,1,,,,,,0,58,47
49680,note_on,,,,,30,0,2,,,,,,0,51,45
49680,note_on,,,,,0,0,2,,,,,,0,55,45
49700,set_tempo,,,,,20,1,0,,555555,,,,,,
49710,set_tempo,,,,,10,1,0,,566037,,,,,,
49730,set_tempo,,,,,20,1,0,,571428,,,,,,
49740,note_on,,,,,0,0,1,,,,,,0,58,0
49740,note_on,,,,,0,0,1,,,,,,0,58,42
49740,note_on,,,,,0,0,1,,,,,,0,62,42
49740,note_on,,,,,60,0,1,,,,,,0,63,0
49740,note_on,,,,,0,0,2,,,,,,0,53,41
49740,set_tempo,,,,,10,1,0,,576923,,,,,,
49740,note_on,,,,,60,0,2,,,,,,0,55,0
49740,note_on,,,,,0,0,2,,,,,,0,56,41
49740,note_on,,,,,0,0,2,,,,,,0,51,0
49750,set_tempo,,,,,10,1,0,,582524,,,,,,
49800,note_on,,,,,60,0,1,,,,,,0,62,0
49800,note_on,,,,,0,0,1,,,,,,0,58,0
49800,note_on,,,,,0,0,1,,,,,,0,63,39
49800,note_on,,,,,0,0,1,,,,,,0,58,39
49800,note_on,,,,,0,0,2,,,,,,0,55,37
49800,note_on,,,,,0,0,2,,,,,,0,51,37
49800,note_on,,,,,0,0,2,,,,,,0,53,0
49800,note_on,,,,,60,0,2,,,,,,0,56,0
49805,control_change,,,,,5,0,1,,,,64,0,0,,
49810,set_tempo,,,,,60,1,0,,588235,,,,,,
49820,set_tempo,,,,,10,1,0,,600000,,,,,,
49840,set_tempo,,,,,20,1,0,,606060,,,,,,
49860,note_on,,,,,0,0,2,,,,,,0,50,33
49860,note_on,,,,,0,0,1,,,,,,0,65,35
49860,note_on,,,,,0,0,1,,,,,,0,58,35
49860,note_on,,,,,0,0,1,,,,,,0,58,0
49860,note_on,,,,,55,0,1,,,,,,0,63,0
49860,note_on,,,,,0,0,2,,,,,,0,56,33
49860,set_tempo,,,,,20,1,0,,612244,,,,,,
49860,note_on,,,,,60,0,2,,,,,,0,55,0
49860,note_on,,,,,0,0,2,,,,,,0,51,0
49890,set_tempo,,,,,30,1,0,,618556,,,,,,
49900,set_tempo,,,,,10,1,0,,625000,,,,,,
49920,note_on,,,,,0,0,2,,,,,,0,50,0
49920,note_on,,,,,0,0,2,,,,,,0,51,31
49920,note_on,,,,,0,0,2,,,,,,0,55,31
49920,note_on,,,,,0,0,1,,,,,,0,58,32
49920,note_on,,,,,60,0,1,,,,,,0,65,0
49920,note_on,,,,,0,0,1,,,,,,0,58,0
49920,note_on,,,,,60,0,2,,,,,,0,56,0
49920,note_on,,,,,0,0,1,,,,,,0,67,32
50010,note_on,,,,,0,0,1,,,,,,0,58,0
50010,note_on,,,,,0,0,2,,,,,,0,51,0
50010,note_on,,,,,90,0,2,,,,,,0,55,0
50010,note_on,,,,,90,0,1,,,,,,0,67,0
50040,note_on,,,,,30,0,2,,,,,,0,44,50
50040,note_on,,,,,0,0,2,,,,,,0,56,50
50040,note_on,,,,,0,0,2,,,,,,0,51,50
50040,control_change,,,,,0,0,1,,,,64,96,0,,
50040,note_on,,,,,0,0,1,,,,,,0,68,50
50040,note_on,,,,,30,0,1,,,,,,0,60,50
50050,set_tempo,,,,,150,1,0,,625000,,,,,,
50280,note_on,,,,,0,0,1,,,,,,0,67,44
50280,note_on,,,,,0,0,2,,,,,,0,44,0
50280,note_on,,,,,0,0,1,,,,,,0,60,0
50280,note_on,,,,,240,0,2,,,,,,0,56,0
50280,note_on,,,,,0,0,2,,,,,,0,51,0
50280,note_on,,,,,240,0,1,,,,,,0,68,0
50280,note_on,,,,,0,0,1,,,,,,0,58,44
50280,note_on,,,,,0,0,2,,,,,,0,51,44
50285,control_change,,,,,5,0,1,,,,64,0,0,,
50370,note_on,,,,,0,0,1,,,,,,0,58,0
50370,note_on,,,,,85,0,1,,,,,,0,67,0
50370,note_on,,,,,90,0,2,,,,,,0,51,0
50390,set_tempo,,,,,340,1,0,,555555,,,,,,
50400,control_change,,,,,0,0,1,,,,64,94,0,,
50400,note_on,,,,,30,0,1,,,,,,0,67,47
50400,note_on,,,,,30,0,2,,,,,,0,46,47
50448,note_on,,,,,48,0,2,,,,,,0,46,0
50460,set_tempo,,,,,70,1,0,,560747,,,,,,
50460,note_on,,,,,12,0,2,,,,,,0,46,42
50460,note_on,,,,,60,0,1,,,,,,0,67,0
50460,note_on,,,,,0,0,1,,,,,,0,65,43
50470,set_tempo,,,,,10,1,0,,566037,,,,,,
50490,set_tempo,,,,,20,1,0,,571428,,,,,,
50508,note_on,,,,,48,0,2,,,,,,0,46,0
50520,note_on,,,,,12,0,2,,,,,,0,46,34
50520,set_tempo,,,,,30,1,0,,576923,,,,,,
50520,note_on,,,,,60,0,1,,,,,,0,65,0
50520,note_on,,,,,0,0,1,,,,,,0,63,33
50520,control_change,,,,,0,0,1,,,,64,0,0,,
50540,set_tempo,,,,,20,1,0,,582524,,,,,,
50560,set_tempo,,,,,20,1,0,,594059,,,,,,
50568,note_on,,,,,48,0,2,,,,,,0,46,0
50580,set_tempo,,,,,20,1,0,,600000,,,,,,
50580,note_on,,,,,0,0,1,,,,,,0,62,37
50580,note_on,,,,,60,0,1,,,,,,0,63,0
50580,note_on,,,,,12,0,2,,,,,,0,46,37
50590,set_tempo,,,,,10,1,0,,606060,,,,,,
50610,set_tempo,,,,,20,1,0,,612244,,,,,,
50628,note_on,,,,,48,0,2,,,,,,0,46,0
50640,note_on,,,,,12,0,2,,,,,,0,46,39
50640,note_on,,,,,60,0,1,,,,,,0,62,0
50640,note_on,,,,,0,0,1,,,,,,0,60,42
50688,note_on,,,,,48,0,2,,,,,,0,46,0
50690,set_tempo,,,,,80,1,0,,625000,,,,,,
50700,note_on,,,,,60,0,1,,,,,,0,60,0
50700,note_on,,,,,0,0,1,,,,,,0,62,45
50700,note_on,,,,,12,0,2,,,,,,0,46,41
50700,note_on,,,,,0,0,2,,,,,,0,53,41
50710,set_tempo,,,,,20,1,0,,631578,,,,,,
50720,set_tempo,,,,,10,1,0,,638297,,,,,,
50745,note_on,,,,,45,0,1,,,,,,0,62,0
50745,note_on,,,,,45,0,2,,,,,,0,53,0
50745,note_on,,,,,0,0,2,,,,,,0,46,0
50760,note_on,,,,,0,0,2,,,,,,0,55,53
50760,note_on,,,,,15,0,2,,,,,,0,51,53
50760,set_tempo,,,,,40,1,0,,535714,,,,,,
50760,note_on,,,,,15,0,1,,,,,,0,63,50
50760,control_change,,,,,0,0,1,,,,64,95,0,,
50880,note_on,,,,,120,0,1,,,,,,0,70,48
50880,note_on,,,,,0,0,1,,,,,,0,58,48
50970,note_on,,,,,90,0,1,,,,,,0,58,0
50970,note_on,,,,,0,0,1,,,,,,0,70,0
50995,control_change,,,,,25,0,1,,,,64,0,0,,
51000,note_on,,,,,0,0,1,,,,,,0,58,44
51000,note_on,,,,,0,0,1,,,,,,0,70,44
51000,note_on,,,,,0,0,1,,,,,,0,62,52
51000,note_on,,,,,5,0,1,,,,,,0,63,0
51000,control_change,,,,,0,0,1,,,,64,94,0,,
51000,note_on,,,,,0,0,2,,,,,,0,56,45
51000,note_on,,,,,0,0,2,,,,,,0,53,45
51000,note_on,,,,,240,0,2,,,,,,0,55,0
51000,note_on,,,,,0,0,2,,,,,,0,51,0
51090,note_on,,,,,0,0,2,,,,,,0,53,0
51090,note_on,,,,,90,0,1,,,,,,0,58,0
51090,note_on,,,,,0,0,1,,,,,,0,70,0
51090,note_on,,,,,0,0,1,,,,,,0,62,0
51090,note_on,,,,,90,0,2,,,,,,0,56,0
51115,control_change,,,,,25,0,1,,,,64,0,0,,
51120,note_on,,,,,5,0,1,,,,,,0,63,57
51120,note_on,,,,,0,0,1,,,,,,0,58,47
51120,note_on,,,,,0,0,1,,,,,,0,70,47
51120,note_on,,,,,30,0,2,,,,,,0,51,45
51120,control_change,,,,,0,0,1,,,,64,97,0,,
51120,note_on,,,,,0,0,2,,,,,,0,55,45
51120,set_tempo,,,,,360,1,0,,540540,,,,,,
51140,set_tempo,,,,,20,1,0,,555555,,,,,,
51150,set_tempo,,,,,10,1,0,,566037,,,,,,
51170,set_tempo,,,,,20,1,0,,571428,,,,,,
51180,note_on,,,,,0,0,2,,,,,,0,56,41
51180,note_on,,,,,0,0,2,,,,,,0,53,41
51180,note_on,,,,,0,0,2,,,,,,0,51,0
51180,note_on,,,,,60,0,2,,,,,,0,55,0
51180,note_on,,,,,0,0,1,,,,,,0,58,42
51180,note_on,,,,,0,0,1,,,,,,0,70,42
51180,note_on,,,,,0,0,1,,,,,,0,62,54
51180,note_on,,,,,0,0,1,,,,,,0,63,0
51180,note_on,,,,,0,0,1,,,,,,0,70,0
51180,note_on,,,,,60,0,1,,,,,,0,58,0
51180,set_tempo,,,,,10,1,0,,576923,,,,,,
51190,set_tempo,,,,,10,1,0,,582524,,,,,,
51240,note_on,,,,,0,0,1,,,,,,0,58,39
51240,note_on,,,,,0,0,1,,,,,,0,70,39
51240,note_on,,,,,0,0,1,,,,,,0,63,51
51240,note_on,,,,,0,0,1,,,,,,0,62,0
51240,note_on,,,,,60,0,2,,,,,,0,56,0
51240,note_on,,,,,0,0,2,,,,,,0,53,0
51240,note_on,,,,,0,0,2,,,,,,0,51,37
51240,note_on,,,,,0,0,2,,,,,,0,55,37
51240,note_on,,,,,60,0,1,,,,,,0,58,0
51240,note_on,,,,,0,0,1,,,,,,0,70,0
51245,control_change,,,,,5,0,1,,,,64,0,0,,
51250,set_tempo,,,,,60,1,0,,588235,,,,,,
51260,set_tempo,,,,,10,1,0,,600000,,,,,,
51280,set_tempo,,,,,20,1,0,,606060,,,,,,
51300,note_on,,,,,0,0,1,,,,,,0,65,47
51300,note_on,,,,,0,0,1,,,,,,0,58,35
51300,set_tempo,,,,,20,1,0,,612244,,,,,,
51300,note_on,,,,,0,0,1,,,,,,0,70,35
51300,note_on,,,,,55,0,1,,,,,,0,58,0
51300,note_on,,,,,0,0,1,,,,,,0,70,0
51300,note_on,,,,,0,0,2,,,,,,0,56,33
51300,note_on,,,,,0,0,2,,,,,,0,50,33
51300,note_on,,,,,0,0,2,,,,,,0,51,0
51300,note_on,,,,,60,0,2,,,,,,0,55,0
51300,note_on,,,,,0,0,1,,,,,,0,63,0
51330,set_tempo,,,,,30,1,0,,618556,,,,,,
51340,set_tempo,,,,,10,1,0,,625000,,,,,,
51360,note_on,,,,,0,0,1,,,,,,0,67,48
51360,note_on,,,,,0,0,1,,,,,,0,70,32
51360,note_on,,,,,0,0,1,,,,,,0,58,32
51360,note_on,,,,,60,0,1,,,,,,0,58,0
51360,note_on,,,,,0,0,2,,,,,,0,55,31
51360,note_on,,,,,0,0,2,,,,,,0,51,31
51360,note_on,,,,,0,0,2,,,,,,0,50,0
51360,note_on,,,,,60,0,2,,,,,,0,56,0
51360,note_on,,,,,0,0,1,,,,,,0,70,0
51360,note_on,,,,,0,0,1,,,,,,0,65,0
51450,note_on,,,,,0,0,2,,,,,,0,51,0
51450,note_on,,,,,90,0,2,,,,,,0,55,0
51450,note_on,,,,,0,0,1,,,,,,0,70,0
51450,note_on,,,,,0,0,1,,,,,,0,67,0
51450,note_on,,,,,90,0,1,,,,,,0,58,0
51480,control_change,,,,,0,0,1,,,,64,96,0,,
51480,note_on,,,,,30,0,1,,,,,,0,70,57
51480,note_on,,,,,30,0,2,,,,,,0,61,58
51480,note_on,,,,,0,0,2,,,,,,0,51,58
51490,set_tempo,,,,,150,1,0,,625000,,,,,,
51600,note_on,,,,,120,0,1,,,,,,0,75,44
51690,note_on,,,,,90,0,1,,,,,,0,75,0
51720,note_on,,,,,0,0,1,,,,,,0,67,48
51720,note_on,,,,,30,0,1,,,,,,0,70,0
51720,note_on,,,,,0,0,1,,,,,,0,75,44
51720,note_on,,,,,0,0,1,,,,,,0,58,44
51720,note_on,,,,,0,0,2,,,,,,0,51,44
51720,note_on,,,,,0,0,2,,,,,,0,61,0
51720,note_on,,,,,240,0,2,,,,,,0,51,0
51725,control_change,,,,,5,0,1,,,,64,0,0,,
51810,note_on,,,,,0,0,1,,,,,,0,75,0
51810,note_on,,,,,90,0,2,,,,,,0,51,0
51810,note_on,,,,,0,0,1,,,,,,0,67,0
51810,note_on,,,,,85,0,1,,,,,,0,58,0
51830,set_tempo,,,,,340,1,0,,555555,,,,,,
51840,control_change,,,,,0,0,1,,,,64,94,0,,
51840,note_on,,,,,0,0,1,,,,,,0,70,58
51840,note_on,,,,,30,0,1,,,,,,0,75,47
51840,note_on,,,,,30,0,2,,,,,,0,61,47
51840,note_on,,,,,0,0,2,,,,,,0,51,47
51888,note_on,,,,,48,0,1,,,,,,0,75,0
51888,note_on,,,,,0,0,2,,,,,,0,61,0
51888,note_on,,,,,48,0,2,,,,,,0,51,0
51900,note_on,,,,,0,0,2,,,,,,0,51,44
51900,note_on,,,,,12,0,1,,,,,,0,70,0
51900,note_on,,,,,0,0,1,,,,,,0,68,55
51900,note_on,,,,,0,0,1,,,,,,0,75,44
51900,set_tempo,,,,,70,1,0,,560747,,,,,,
51900,note_on,,,,,12,0,2,,,,,,0,60,44
51910,set_tempo,,,,,10,1,0,,566037,,,,,,
51930,set_tempo,,,,,20,1,0,,571428,,,,,,
51948,note_on,,,,,48,0,1,,,,,,0,75,0
51948,note_on,,,,,48,0,2,,,,,,0,51,0
51948,note_on,,,,,0,0,2,,,,,,0,60,0
51955,control_change,,,,,7,0,1,,,,64,0,0,,
51960,set_tempo,,,,,30,1,0,,576923,,,,,,
51960,note_on,,,,,0,0,2,,,,,,0,51,41
51960,note_on,,,,,12,0,2,,,,,,0,58,41
51960,control_change,,,,,0,0,1,,,,64,95,0,,
51960,note_on,,,,,0,0,1,,,,,,0,67,48
51960,note_on,,,,,5,0,1,,,,,,0,68,0
51960,note_on,,,,,0,0,1,,,,,,0,75,41
51980,set_tempo,,,,,20,1,0,,582524,,,,,,
52000,set_tempo,,,,,20,1,0,,594059,,,,,,
52008,note_on,,,,,0,0,2,,,,,,0,58,0
52008,note_on,,,,,48,0,1,,,,,,0,75,0
52008,note_on,,,,,48,0,2,,,,,,0,51,0
52020,note_on,,,,,0,0,2,,,,,,0,51,41
52020,note_on,,,,,0,0,1,,,,,,0,75,41
52020,note_on,,,,,0,0,1,,,,,,0,65,53
52020,note_on,,,,,12,0,2,,,,,,0,56,41
52020,set_tempo,,,,,20,1,0,,600000,,,,,,
52020,note_on,,,,,12,0,1,,,,,,0,67,0
52030,set_tempo,,,,,10,1,0,,606060,,,,,,
52050,set_tempo,,,,,20,1,0,,612244,,,,,,
52068,note_on,,,,,0,0,2,,,,,,0,56,0
52068,note_on,,,,,48,0,2,,,,,,0,51,0
52068,note_on,,,,,48,0,1,,,,,,0,75,0
52080,note_on,,,,,12,0,1,,,,,,0,65,0
52080,note_on,,,,,12,0,2,,,,,,0,55,42
52080,note_on,,,,,0,0,2,,,,,,0,51,42
52080,note_on,,,,,0,0,1,,,,,,0,75,42
52080,note_on,,,,,0,0,1,,,,,,0,63,54
52128,note_on,,,,,48,0,1,,,,,,0,75,0
52128,note_on,,,,,48,0,2,,,,,,0,51,0
52128,note_on,,,,,0,0,2,,,,,,0,55,0
52130,set_tempo,,,,,80,1,0,,625000,,,,,,
52140,note_on,,,,,0,0,1,,,,,,0,75,44
52140,note_on,,,,,0,0,2,,,,,,0,56,44
52140,note_on,,,,,12,0,2,,,,,,0,51,44
52140,note_on,,,,,12,0,1,,,,,,0,63,0
52140,note_on,,,,,0,0,1,,,,,,0,65,56
52150,set_tempo,,,,,20,1,0,,631578,,,,,,
52160,set_tempo,,,,,10,1,0,,638297,,,,,,
52170,set_tempo,,,,,10,1,0,,638297,,,,,,
52180,set_tempo,,,,,10,1,0,,631578,,,,,,
52185,note_on,,,,,45,0,2,,,,,,0,56,0
52185,note_on,,,,,0,0,1,,,,,,0,75,0
52185,note_on,,,,,0,0,2,,,,,,0,51,0
52185,note_on,,,,,45,0,1,,,,,,0,65,0
52195,control_change,,,,,10,0,1,,,,64,0,0,,
52200,note_on,,,,,0,0,1,,,,,,0,75,41
52200,note_on,,,,,0,0,2,,,,,,0,51,48
52200,note_on,,,,,15,0,2,,,,,,0,58,48
52200,note_on,,,,,5,0,1,,,,,,0,67,54
52267,note_on,,,,,67,0,2,,,,,,0,51,0
52267,note_on,,,,,0,0,2,,,,,,0,58,0
52267,note_on,,,,,0,0,1,,,,,,0,67,0
52267,note_on,,,,,67,0,1,,,,,,0,75,0
52320,note_on,,,,,0,0,2,,,,,,0,61,38
52320,note_on,,,,,53,0,2,,,,,,0,49,38
52320,note_on,,,,,53,0,1,,,,,,0,65,42
52320,control_change,,,,,0,0,1,,,,64,96,0,,
52320,note_on,,,,,0,0,1,,,,,,0,68,42
52410,set_tempo,,,,,230,1,0,,631578,,,,,,
52500,note_on,,,,,180,0,2,,,,,,0,61,0
52500,note_on,,,,,0,0,2,,,,,,0,49,0
52500,note_on,,,,,0,0,2,,,,,,0,56,33
52500,note_on,,,,,0,0,2,,,,,,0,49,33
52500,note_on,,,,,180,0,1,,,,,,0,68,0
52500,note_on,,,,,0,0,1,,,,,,0,65,0
52500,note_on,,,,,0,0,1,,,,,,0,65,34
52510,set_tempo,,,,,100,1,0,,638297,,,,,,
52530,set_tempo,,,,,20,1,0,,645161,,,,,,
52550,control_change,,,,,50,0,1,,,,64,0,0,,
52560,note_on,,,,,10,0,1,,,,,,0,65,0
52560,note_on,,,,,60,0,2,,,,,,0,49,0
52560,note_on,,,,,0,0,2,,,,,,0,56,0
52560,note_on,,,,,0,0,2,,,,,,0,59,41
52560,set_tempo,,,,,30,1,0,,652173,,,,,,
52560,note_on,,,,,0,0,1,,,,,,0,68,43
52560,control_change,,,,,0,0,1,,,,64,94,0,,
52560,note_on,,,,,0,0,2,,,,,,0,49,41
52570,set_tempo,,,,,10,1,0,,659340,,,,,,
52600,set_tempo,,,,,30,1,0,,666666,,,,,,
52608,note_on,,,,,48,0,2,,,,,,0,49,0
52608,note_on,,,,,0,0,2,,,,,,0,59,0
52620,note_on,,,,,0,0,2,,,,,,0,49,39
52620,note_on,,,,,12,0,2,,,,,,0,58,39
52620,note_on,,,,,60,0,1,,,,,,0,68,0
52620,note_on,,,,,0,0,1,,,,,,0,66,35
52630,set_tempo,,,,,30,1,0,,674157,,,,,,
52650,set_tempo,,,,,20,1,0,,681818,,,,,,
52668,note_on,,,,,0,0,2,,,,,,0,58,0
52668,note_on,,,,,48,0,2,,,,,,0,49,0
52670,set_tempo,,,,,20,1,0,,689655,,,,,,
52675,control_change,,,,,55,0,1,,,,64,0,0,,
52680,note_on,,,,,12,0,2,,,,,,0,56,36
52680,control_change,,,,,0,0,1,,,,64,94,0,,
52680,note_on,,,,,0,0,2,,,,,,0,49,36
52680,note_on,,,,,5,0,1,,,,,,0,66,0
52680,note_on,,,,,0,0,1,,,,,,0,65,31
52680,note_on,,,,,0,0,1,,,,,,0,73,31
52690,set_tempo,,,,,20,1,0,,697674,,,,,,
52720,set_tempo,,,,,30,1,0,,705882,,,,,,
52728,note_on,,,,,0,0,2,,,,,,0,56,0
52728,note_on,,,,,48,0,2,,,,,,0,49,0
52737,note_on,,,,,57,0,1,,,,,,0,73,0
52740,note_on,,,,,12,0,2,,,,,,0,54,29
52740,note_on,,,,,0,0,2,,,,,,0,49,29
52740,set_tempo,,,,,20,1,0,,714285,,,,,,
52740,note_on,,,,,0,0,1,,,,,,0,73,34
52740,note_on,,,,,3,0,1,,,,,,0,65,0
52740,note_on,,,,,0,0,1,,,,,,0,63,34
52770,set_tempo,,,,,30,1,0,,722891,,,,,,
52788,note_on,,,,,48,0,1,,,,,,0,73,0
52788,note_on,,,,,48,0,2,,,,,,0,49,0
52788,note_on,,,,,0,0,2,,,,,,0,54,0
52790,set_tempo,,,,,20,1,0,,731707,,,,,,
52800,note_on,,,,,12,0,2,,,,,,0,53,29
52800,note_on,,,,,0,0,2,,,,,,0,49,29
52800,note_on,,,,,12,0,1,,,,,,0,63,0
52800,note_on,,,,,0,0,1,,,,,,0,73,37
52800,note_on,,,,,0,0,1,,,,,,0,61,37
52820,set_tempo,,,,,30,1,0,,740740,,,,,,
52848,note_on,,,,,48,0,2,,,,,,0,49,0
52848,note_on,,,,,0,0,2,,,,,,0,53,0
52848,note_on,,,,,48,0,1,,,,,,0,73,0
52860,note_on,,,,,0,0,2,,,,,,0,54,29
52860,note_on,,,,,12,0,1,,,,,,0,61,0
52860,note_on,,,,,0,0,1,,,,,,0,73,34
52860,note_on,,,,,0,0,1,,,,,,0,63,34
52860,note_on,,,,,12,0,2,,,,,,0,49,29
52870,set_tempo,,,,,50,1,0,,750000,,,,,,
52905,note_on,,,,,45,0,2,,,,,,0,54,0
52905,note_on,,,,,0,0,1,,,,,,0,73,0
52905,note_on,,,,,0,0,2,,,,,,0,49,0
52905,note_on,,,,,45,0,1,,,,,,0,63,0
52910,control_change,,,,,5,0,1,,,,64,0,0,,
52920,note_on,,,,,10,0,1,,,,,,0,73,31
52920,note_on,,,,,15,0,2,,,,,,0,56,29
52920,note_on,,,,,0,0,2,,,,,,0,49,29
52920,note_on,,,,,0,0,1,,,,,,0,65,31
52980,set_tempo,,,,,110,1,0,,740740,,,,,,
52987,note_on,,,,,67,0,2,,,,,,0,49,0
52987,note_on,,,,,0,0,2,,,,,,0,56,0
52987,note_on,,,,,0,0,1,,,,,,0,73,0
52987,note_on,,,,,67,0,1,,,,,,0,65,0
53000,set_tempo,,,,,20,1,0,,722891,,,,,,
53010,set_tempo,,,,,10,1,0,,714285,,,,,,
53020,set_tempo,,,,,10,1,0,,705882,,,,,,
53030,set_tempo,,,,,10,1,0,,689655,,,,,,
53040,note_on,,,,,0,0,2,,,,,,0,65,39
53040,control_change,,,,,53,0,1,,,,64,95,0,,
53040,note_on,,,,,0,0,2,,,,,,0,56,39
53040,note_on,,,,,0,0,2,,,,,,0,46,39
53040,note_on,,,,,53,0,2,,,,,,0,62,39
53040,set_tempo,,,,,10,1,0,,674157,,,,,,
53050,set_tempo,,,,,10,1,0,,659340,,,,,,
53060,set_tempo,,,,,10,1,0,,652173,,,,,,
53070,set_tempo,,,,,10,1,0,,645161,,,,,,
53160,note_on,,,,,120,0,1,,,,,,0,70,48
53260,control_change,,,,,100,0,1,,,,64,0,0,,
53280,note_on,,,,,0,0,2,,,,,,0,46,40
53280,note_on,,,,,0,0,2,,,,,,0,56,40
53280,note_on,,,,,0,0,2,,,,,,0,62,40
53280,note_on,,,,,0,0,2,,,,,,0,65,40
53280,note_on,,,,,0,0,2,,,,,,0,62,0
53280,note_on,,,,,0,0,2,,,,,,0,65,0
53280,note_on,,,,,0,0,2,,,,,,0,46,0
53280,control_change,,,,,20,0,1,,,,64,95,0,,
53280,note_on,,,,,240,0,2,,,,,,0,56,0
53280,set_tempo,,,,,210,1,0,,645161,,,,,,
53340,set_tempo,,,,,60,1,0,,638297,,,,,,
53380,set_tempo,,,,,40,1,0,,625000,,,,,,
53390,control_change,,,,,110,0,1,,,,64,0,0,,
53400,note_on,,,,,120,0,2,,,,,,0,65,0
53400,note_on,,,,,0,0,2,,,,,,0,55,45
53400,note_on,,,,,0,0,2,,,,,,0,46,45
53400,note_on,,,,,0,0,2,,,,,,0,46,0
53400,note_on,,,,,0,0,2,,,,,,0,56,0
53400,control_change,,,,,10,0,1,,,,64,97,0,,
53400,note_on,,,,,0,0,2,,,,,,0,67,45
53400,note_on,,,,,0,0,2,,,,,,0,62,0
53400,note_on,,,,,0,0,2,,,,,,0,63,45
53420,set_tempo,,,,,40,1,0,,618556,,,,,,
53455,note_on,,,,,0,0,2,,,,,,0,55,0
53455,note_on,,,,,0,0,2,,,,,,0,67,0
53455,note_on,,,,,55,0,2,,,,,,0,46,0
53455,note_on,,,,,0,0,2,,,,,,0,63,0
53460,note_on,,,,,5,0,2,,,,,,0,68,49
53460,note_on,,,,,0,0,2,,,,,,0,62,49
53460,note_on,,,,,0,0,2,,,,,,0,53,49
53460,note_on,,,,,0,0,2,,,,,,0,46,49
53500,set_tempo,,,,,80,1,0,,612244,,,,,,
53515,note_on,,,,,0,0,2,,,,,,0,53,0
53515,note_on,,,,,55,0,2,,,,,,0,46,0
53515,note_on,,,,,0,0,2,,,,,,0,68,0
53515,control_change,,,,,115,0,1,,,,64,0,0,,
53515,note_on,,,,,0,0,2,,,,,,0,62,0
53520,control_change,,,,,5,0,1,,,,64,94,0,,
53520,note_on,,,,,0,0,2,,,,,,0,46,53
53520,note_on,,,,,0,0,2,,,,,,0,63,53
53520,note_on,,,,,0,0,2,,,,,,0,55,53
53520,note_on,,,,,5,0,2,,,,,,0,67,53
53575,note_on,,,,,55,0,2,,,,,,0,46,0
53575,note_on,,,,,0,0,2,,,,,,0,67,0
53575,note_on,,,,,0,0,2,,,,,,0,63,0
53575,note_on,,,,,0,0,2,,,,,,0,55,0
53580,note_on,,,,,5,0,2,,,,,,0,65,59
53580,note_on,,,,,0,0,2,,,,,,0,62,59
53580,note_on,,,,,0,0,2,,,,,,0,56,59
53580,note_on,,,,,0,0,2,,,,,,0,46,59
53620,set_tempo,,,,,120,1,0,,606060,,,,,,
53630,control_change,,,,,110,0,1,,,,64,0,0,,
53635,note_on,,,,,55,0,2,,,,,,0,46,0
53635,note_on,,,,,0,0,2,,,,,,0,65,0
53635,note_on,,,,,0,0,2,,,,,,0,56,0
53635,note_on,,,,,0,0,2,,,,,,0,62,0
53640,note_on,,,,,5,0,2,,,,,,0,46,63
53640,note_on,,,,,0,0,2,,,,,,0,55,63
53640,note_on,,,,,0,0,2,,,,,,0,63,63
53640,control_change,,,,,10,0,1,,,,64,94,0,,
53640,note_on,,,,,0,0,2,,,,,,0,67,63
53650,set_tempo,,,,,30,1,0,,612244,,,,,,
53755,control_change,,,,,115,0,1,,,,64,0,0,,
53760,note_on,,,,,0,0,2,,,,,,0,56,41
53760,note_on,,,,,0,0,2,,,,,,0,63,0
53760,note_on,,,,,0,0,2,,,,,,0,63,41
53760,note_on,,,,,0,0,2,,,,,,0,60,41
53760,note_on,,,,,120,0,2,,,,,,0,67,0
53760,note_on,,,,,0,0,2,,,,,,0,46,41
53760,note_on,,,,,0,0,2,,,,,,0,46,0
53760,note_on,,,,,0,0,2,,,,,,0,55,0
53760,note_on,,,,,5,0,1,,,,,,0,70,0
53760,note_on,,,,,0,0,1,,,,,,0,72,40
53760,control_change,,,,,0,0,1,,,,64,95,0,,
53810,set_tempo,,,,,160,1,0,,618556,,,,,,
53860,set_tempo,,,,,50,1,0,,631578,,,,,,
53880,note_on,,,,,0,0,2,,,,,,0,58,32
53880,note_on,,,,,0,0,2,,,,,,0,46,32
53880,note_on,,,,,0,0,2,,,,,,0,56,0
53880,note_on,,,,,0,0,2,,,,,,0,60,0
53880,note_on,,,,,0,0,2,,,,,,0,63,0
53880,note_on,,,,,120,0,2,,,,,,0,46,0
53880,note_on,,,,,0,0,2,,,,,,0,62,32
53880,note_on,,,,,120,0,1,,,,,,0,72,0
53880,note_on,,,,,0,0,1,,,,,,0,68,33
53985,control_change,,,,,105,0,1,,,,64,0,0,,
54000,control_change,,,,,0,0,1,,,,64,95,0,,
54000,note_on,,,,,0,0,1,,,,,,0,63,31
54000,note_on,,,,,0,0,1,,,,,,0,67,31
54000,note_on,,,,,0,0,2,,,,,,0,58,29
54000,note_on,,,,,0,0,2,,,,,,0,51,29
54000,note_on,,,,,0,0,2,,,,,,0,58,0
54000,note_on,,,,,120,0,2,,,,,,0,62,0
54000,note_on,,,,,15,0,1,,,,,,0,68,0
54000,note_on,,,,,0,0,2,,,,,,0,46,0
54110,set_tempo,,,,,250,1,0,,638297,,,,,,
54150,note_on,,,,,0,0,2,,,,,,0,51,0
54150,note_on,,,,,150,0,2,,,,,,0,58,0
54150,note_on,,,,,150,0,1,,,,,,0,67,0
54150,note_on,,,,,0,0,1,,,,,,0,63,0
54150,control_change,,,,,0,0,1,,,,64,0,0,,
54180,set_tempo,,,,,70,1,0,,689655,,,,,,
54180,note_on,,,,,0,0,2,,,,,,0,56,38
54180,note_on,,,,,30,0,1,,,,,,0,80,38
54180,note_on,,,,,0,0,1,,,,,,0,68,38
54180,control_change,,,,,0,0,1,,,,64,95,0,,
54180,note_on,,,,,30,0,2,,,,,,0,46,38
54180,note_on,,,,,0,0,2,,,,,,0,58,38
54225,note_on,,,,,45,0,1,,,,,,0,68,0
54225,note_on,,,,,45,0,2,,,,,,0,58,0
54225,note_on,,,,,0,0,2,,,,,,0,56,0
54225,note_on,,,,,0,0,2,,,,,,0,46,0
54225,note_on,,,,,0,0,1,,,,,,0,80,0
54240,note_on,,,,,15,0,1,,,,,,0,79,43
54240,note_on,,,,,15,0,2,,,,,,0,48,43
54240,note_on,,,,,0,0,2,,,,,,0,56,43
54240,note_on,,,,,0,0,2,,,,,,0,58,43
54240,set_tempo,,,,,60,1,0,,689655,,,,,,
54240,note_on,,,,,0,0,1,,,,,,0,67,43
54250,set_tempo,,,,,10,1,0,,714285,,,,,,
54285,note_on,,,,,45,0,2,,,,,,0,58,0
54285,note_on,,,,,0,0,2,,,,,,0,56,0
54285,note_on,,,,,0,0,2,,,,,,0,48,0
54285,note_on,,,,,45,0,1,,,,,,0,67,0
54285,note_on,,,,,0,0,1,,,,,,0,79,0
54290,set_tempo,,,,,40,1,0,,923076,,,,,,
54300,note_on,,,,,15,0,1,,,,,,0,65,47
54300,note_on,,,,,0,0,1,,,,,,0,77,47
54300,note_on,,,,,0,0,2,,,,,,0,58,47
54300,note_on,,,,,15,0,2,,,,,,0,50,47
54300,note_on,,,,,0,0,2,,,,,,0,56,47
54342,control_change,,,,,42,0,1,,,,64,0,0,,
54360,note_on,,,,,0,0,2,,,,,,0,50,0
54360,note_on,,,,,0,0,2,,,,,,0,56,0
54360,note_on,,,,,60,0,2,,,,,,0,58,0
54360,note_on,,,,,0,0,1,,,,,,0,75,50
54360,note_on,,,,,0,0,1,,,,,,0,65,0
54360,note_on,,,,,18,0,1,,,,,,0,77,0
54360,note_on,,,,,0,0,1,,,,,,0,63,50
54360,note_on,,,,,0,0,2,,,,,,0,55,44
54360,control_change,,,,,0,0,1,,,,64,95,0,,
54360,set_tempo,,,,,70,1,0,,638297,,,,,,
54370,set_tempo,,,,,10,1,0,,731707,,,,,,
54390,set_tempo,,,,,20,1,0,,714285,,,,,,
54400,set_tempo,,,,,10,1,0,,705882,,,,,,
54400,note_on,,,,,0,0,2,,,,,,0,58,41
54400,note_on,,,,,40,0,2,,,,,,0,55,0
54427,control_change,,,,,67,0,1,,,,64,0,0,,
54429,note_on,,,,,29,0,2,,,,,,0,58,0
54430,set_tempo,,,,,30,1,0,,689655,,,,,,
54440,note_on,,,,,11,0,2,,,,,,0,58,44
54440,control_change,,,,,13,0,1,,,,64,95,0,,
54450,set_tempo,,,,,20,1,0,,674157,,,,,,
54460,set_tempo,,,,,10,1,0,,666666,,,,,,
54480,note_on,,,,,40,0,2,,,,,,0,58,0
54480,note_on,,,,,0,0,2,,,,,,0,60,46
54480,set_tempo,,,,,20,1,0,,652173,,,,,,
54510,set_tempo,,,,,30,1,0,,645161,,,,,,
54520,note_on,,,,,40,0,2,,,,,,0,60,0
54520,set_tempo,,,,,10,1,0,,631578,,,,,,
54520,note_on,,,,,0,0,2,,,,,,0,58,40
54547,control_change,,,,,107,0,1,,,,64,0,0,,
54549,note_on,,,,,29,0,2,,,,,,0,58,0
54560,note_on,,,,,11,0,2,,,,,,0,58,45
54565,control_change,,,,,18,0,1,,,,64,95,0,,
54580,set_tempo,,,,,60,1,0,,625000,,,,,,
54590,set_tempo,,,,,10,1,0,,618556,,,,,,
54599,note_on,,,,,39,0,2,,,,,,0,53,44
54599,note_on,,,,,0,0,2,,,,,,0,56,45
54600,note_on,,,,,1,0,2,,,,,,0,58,0
54600,note_on,,,,,35,0,1,,,,,,0,63,0
54600,note_on,,,,,0,0,1,,,,,,0,74,44
54600,note_on,,,,,0,0,1,,,,,,0,62,44
54600,note_on,,,,,0,0,1,,,,,,0,75,0
54610,set_tempo,,,,,20,1,0,,612244,,,,,,
54628,note_on,,,,,0,0,2,,,,,,0,53,0
54628,note_on,,,,,28,0,2,,,,,,0,56,0
54639,note_on,,,,,11,0,2,,,,,,0,58,40
54640,set_tempo,,,,,30,1,0,,606060,,,,,,
54667,control_change,,,,,67,0,1,,,,64,0,0,,
54668,note_on,,,,,29,0,2,,,,,,0,58,0
54679,note_on,,,,,11,0,2,,,,,,0,58,34
54680,control_change,,,,,13,0,1,,,,64,95,0,,
54700,set_tempo,,,,,60,1,0,,600000,,,,,,
54719,note_on,,,,,40,0,2,,,,,,0,58,0
54720,note_on,,,,,1,0,2,,,,,,0,55,44
54720,note_on,,,,,40,0,1,,,,,,0,74,0
54720,note_on,,,,,0,0,1,,,,,,0,62,0
54720,note_on,,,,,0,0,1,,,,,,0,75,47
54720,note_on,,,,,0,0,1,,,,,,0,63,47
54740,set_tempo,,,,,40,1,0,,594059,,,,,,
54760,note_on,,,,,40,0,2,,,,,,0,55,0
54760,note_on,,,,,0,0,2,,,,,,0,58,41
54780,note_on,,,,,0,0,1,,,,,,0,62,42
54780,note_on,,,,,60,0,1,,,,,,0,63,0
54780,note_on,,,,,0,0,1,,,,,,0,75,0
54780,note_on,,,,,0,0,1,,,,,,0,74,42
54787,control_change,,,,,7,0,1,,,,64,0,0,,
54789,note_on,,,,,29,0,2,,,,,,0,58,0
54800,note_on,,,,,11,0,2,,,,,,0,58,44
54800,control_change,,,,,13,0,1,,,,64,95,0,,
54820,set_tempo,,,,,80,1,0,,588235,,,,,,
54840,note_on,,,,,40,0,1,,,,,,0,62,0
54840,note_on,,,,,0,0,1,,,,,,0,74,0
54840,note_on,,,,,0,0,1,,,,,,0,75,39
54840,note_on,,,,,0,0,1,,,,,,0,63,39
54840,note_on,,,,,40,0,2,,,,,,0,58,0
54840,note_on,,,,,0,0,2,,,,,,0,57,46
54880,set_tempo,,,,,60,1,0,,582524,,,,,,
54880,note_on,,,,,0,0,2,,,,,,0,58,40
54880,note_on,,,,,40,0,2,,,,,,0,57,0
54900,note_on,,,,,60,0,1,,,,,,0,63,0
54900,note_on,,,,,0,0,1,,,,,,0,75,0
54900,note_on,,,,,0,0,1,,,,,,0,77,35
54900,note_on,,,,,0,0,1,,,,,,0,65,35
54900,set_tempo,,,,,20,1,0,,612244,,,,,,
54907,control_change,,,,,7,0,1,,,,64,0,0,,
54909,note_on,,,,,29,0,2,,,,,,0,58,0
54920,note_on,,,,,0,0,2,,,,,,0,56,41
54920,control_change,,,,,13,0,1,,,,64,95,0,,
54920,note_on,,,,,11,0,2,,,,,,0,53,41
54930,set_tempo,,,,,30,1,0,,618556,,,,,,
54940,set_tempo,,,,,10,1,0,,625000,,,,,,
54960,note_on,,,,,40,0,2,,,,,,0,56,0
54960,note_on,,,,,0,0,2,,,,,,0,53,0
54960,note_on,,,,,0,0,2,,,,,,0,55,49
54960,note_on,,,,,0,0,2,,,,,,0,51,49
54960,note_on,,,,,40,0,1,,,,,,0,65,0
54960,note_on,,,,,0,0,1,,,,,,0,77,0
54960,note_on,,,,,0,0,1,,,,,,0,79,32
54960,note_on,,,,,0,0,1,,,,,,0,67,32
54989,note_on,,,,,0,0,2,,,,,,0,55,0
54989,note_on,,,,,29,0,2,,,,,,0,51,0
54999,note_on,,,,,10,0,2,,,,,,0,58,38
55027,control_change,,,,,67,0,1,,,,64,0,0,,
55028,note_on,,,,,29,0,2,,,,,,0,58,0
55039,note_on,,,,,11,0,2,,,,,,0,59,34
55040,control_change,,,,,13,0,1,,,,64,96,0,,
55050,note_on,,,,,0,0,1,,,,,,0,79,0
55050,note_on,,,,,10,0,1,,,,,,0,67,0
55079,note_on,,,,,40,0,2,,,,,,0,59,0
55080,note_on,,,,,0,0,1,,,,,,0,68,50
55080,note_on,,,,,1,0,2,,,,,,0,60,44
55080,note_on,,,,,30,0,1,,,,,,0,80,50
55090,set_tempo,,,,,150,1,0,,625000,,,,,,
55120,note_on,,,,,40,0,2,,,,,,0,60,0
55120,note_on,,,,,0,0,2,,,,,,0,51,41
55147,control_change,,,,,67,0,1,,,,64,0,0,,
55149,note_on,,,,,29,0,2,,,,,,0,51,0
55160,control_change,,,,,13,0,1,,,,64,96,0,,
55160,note_on,,,,,11,0,2,,,,,,0,51,44
55200,note_on,,,,,0,0,2,,,,,,0,48,46
55200,note_on,,,,,40,0,2,,,,,,0,51,0
55240,note_on,,,,,0,0,2,,,,,,0,51,40
55240,note_on,,,,,40,0,2,,,,,,0,48,0
55267,control_change,,,,,107,0,1,,,,64,0,0,,
55269,note_on,,,,,29,0,2,,,,,,0,51,0
55280,control_change,,,,,13,0,1,,,,64,96,0,,
55280,note_on,,,,,11,0,2,,,,,,0,51,45
55320,note_on,,,,,0,0,1,,,,,,0,79,44
55320,note_on,,,,,40,0,2,,,,,,0,51,0
55320,note_on,,,,,0,0,1,,,,,,0,67,44
55320,note_on,,,,,0,0,1,,,,,,0,80,0
55320,note_on,,,,,0,0,2,,,,,,0,46,48
55320,note_on,,,,,40,0,1,,,,,,0,68,0
55349,note_on,,,,,29,0,2,,,,,,0,46,0
55360,note_on,,,,,11,0,2,,,,,,0,51,40
55387,control_change,,,,,67,0,1,,,,64,0,0,,
55389,note_on,,,,,29,0,2,,,,,,0,51,0
55400,note_on,,,,,11,0,2,,,,,,0,51,34
55400,control_change,,,,,13,0,1,,,,64,96,0,,
55430,note_on,,,,,30,0,1,,,,,,0,79,0
55430,note_on,,,,,0,0,1,,,,,,0,67,0
55430,set_tempo,,,,,340,1,0,,606060,,,,,,
55440,note_on,,,,,10,0,1,,,,,,0,67,47
55440,note_on,,,,,0,0,1,,,,,,0,79,47
55440,note_on,,,,,40,0,2,,,,,,0,51,0
55440,note_on,,,,,0,0,2,,,,,,0,45,48
55460,set_tempo,,,,,30,1,0,,600000,,,,,,
55480,note_on,,,,,40,0,2,,,,,,0,45,0
55480,set_tempo,,,,,20,1,0,,594059,,,,,,
55480,note_on,,,,,0,0,2,,,,,,0,53,41
55500,note_on,,,,,0,0,1,,,,,,0,65,43
55500,note_on,,,,,0,0,1,,,,,,0,77,43
55500,note_on,,,,,0,0,1,,,,,,0,67,0
55500,note_on,,,,,60,0,1,,,,,,0,79,0
55507,control_change,,,,,7,0,1,,,,64,0,0,,
55509,note_on,,,,,29,0,2,,,,,,0,53,0
55510,set_tempo,,,,,30,1,0,,588235,,,,,,
55520,set_tempo,,,,,10,1,0,,582524,,,,,,
55520,note_on,,,,,11,0,2,,,,,,0,53,44
55520,control_change,,,,,13,0,1,,,,64,95,0,,
55550,set_tempo,,,,,30,1,0,,576923,,,,,,
55560,note_on,,,,,40,0,2,,,,,,0,53,0
55560,note_on,,,,,0,0,2,,,,,,0,46,46
55560,note_on,,,,,0,0,1,,,,,,0,65,0
55560,note_on,,,,,40,0,1,,,,,,0,77,0
55560,note_on,,,,,0,0,1,,,,,,0,75,42
55560,note_on,,,,,0,0,1,,,,,,0,63,42
55570,set_tempo,,,,,20,1,0,,571428,,,,,,
55600,note_on,,,,,40,0,2,,,,,,0,46,0
55600,note_on,,,,,0,0,2,,,,,,0,53,40
55620,note_on,,,,,0,0,1,,,,,,0,74,46
55620,note_on,,,,,0,0,1,,,,,,0,62,46
55620,note_on,,,,,0,0,1,,,,,,0,63,0
55620,note_on,,,,,60,0,1,,,,,,0,75,0
55627,control_change,,,,,7,0,1,,,,64,0,0,,
55629,note_on,,,,,29,0,2,,,,,,0,53,0
55630,set_tempo,,,,,60,1,0,,576923,,,,,,
55640,control_change,,,,,13,0,1,,,,64,96,0,,
55640,note_on,,,,,11,0,2,,,,,,0,53,45
55660,set_tempo,,,,,30,1,0,,588235,,,,,,
55670,set_tempo,,,,,10,1,0,,606060,,,,,,
55680,note_on,,,,,0,0,1,,,,,,0,72,47
55680,note_on,,,,,0,0,2,,,,,,0,46,50
55680,note_on,,,,,40,0,1,,,,,,0,62,0
55680,note_on,,,,,0,0,1,,,,,,0,74,0
55680,note_on,,,,,40,0,2,,,,,,0,53,0
55680,note_on,,,,,0,0,1,,,,,,0,60,47
55690,set_tempo,,,,,20,1,0,,612244,,,,,,
55709,note_on,,,,,29,0,2,,,,,,0,46,0
55710,set_tempo,,,,,20,1,0,,631578,,,,,,
55720,note_on,,,,,11,0,2,,,,,,0,56,40
55730,set_tempo,,,,,20,1,0,,638297,,,,,,
55740,note_on,,,,,0,0,1,,,,,,0,62,54
55740,note_on,,,,,0,0,1,,,,,,0,74,54
55740,note_on,,,,,0,0,1,,,,,,0,72,0
55740,note_on,,,,,60,0,1,,,,,,0,60,0
55740,set_tempo,,,,,10,1,0,,645161,,,,,,
55747,control_change,,,,,7,0,1,,,,64,0,0,,
55749,note_on,,,,,29,0,2,,,,,,0,56,0
55750,set_tempo,,,,,10,1,0,,631578,,,,,,
55760,set_tempo,,,,,10,1,0,,625000,,,,,,
55760,note_on,,,,,11,0,2,,,,,,0,56,34
55760,control_change,,,,,13,0,1,,,,64,95,0,,
55780,set_tempo,,,,,20,1,0,,618556,,,,,,
55785,note_on,,,,,25,0,1,,,,,,0,62,0
55785,note_on,,,,,0,0,1,,,,,,0,74,0
55800,note_on,,,,,15,0,1,,,,,,0,75,55
55800,note_on,,,,,40,0,2,,,,,,0,56,0
55800,note_on,,,,,0,0,2,,,,,,0,55,49
55800,note_on,,,,,0,0,1,,,,,,0,63,55
55800,control_change,,,,,0,0,1,,,,64,95,0,,
55840,set_tempo,,,,,60,1,0,,612244,,,,,,
55840,note_on,,,,,0,0,2,,,,,,0,58,41
55840,note_on,,,,,40,0,2,,,,,,0,55,0
55850,set_tempo,,,,,10,1,0,,606060,,,,,,
55867,control_change,,,,,67,0,1,,,,64,0,0,,
55869,note_on,,,,,29,0,2,,,,,,0,58,0
55880,note_on,,,,,11,0,2,,,,,,0,58,44
55880,control_change,,,,,13,0,1,,,,64,95,0,,
55890,set_tempo,,,,,40,1,0,,600000,,,,,,
55900,set_tempo,,,,,10,1,0,,594059,,,,,,
55920,note_on,,,,,0,0,2,,,,,,0,60,46
55920,note_on,,,,,40,0,2,,,,,,0,58,0
55930,set_tempo,,,,,30,1,0,,582524,,,,,,
55960,note_on,,,,,40,0,2,,,,,,0,60,0
55960,note_on,,,,,0,0,2,,,,,,0,58,40
55970,set_tempo,,,,,40,1,0,,576923,,,,,,
55987,control_change,,,,,107,0,1,,,,64,0,0,,
55989,note_on,,,,,29,0,2,,,,,,0,58,0
55990,set_tempo,,,,,20,1,0,,571428,,,,,,
56000,note_on,,,,,11,0,2,,,,,,0,58,45
56005,control_change,,,,,18,0,1,,,,64,95,0,,
56020,set_tempo,,,,,30,1,0,,566037,,,,,,
56030,set_tempo,,,,,10,1,0,,560747,,,,,,
56039,note_on,,,,,0,0,2,,,,,,0,56,44
56039,note_on,,,,,39,0,2,,,,,,0,53,44
56040,note_on,,,,,1,0,2,,,,,,0,58,0
56040,note_on,,,,,35,0,1,,,,,,0,63,0
56040,note_on,,,,,0,0,1,,,,,,0,75,0
56040,note_on,,,,,0,0,1,,,,,,0,62,51
56040,note_on,,,,,0,0,1,,,,,,0,74,51
56068,note_on,,,,,28,0,2,,,,,,0,56,0
56068,note_on,,,,,0,0,2,,,,,,0,53,0
56079,note_on,,,,,11,0,2,,,,,,0,58,43
56107,control_change,,,,,67,0,1,,,,64,0,0,,
56108,note_on,,,,,29,0,2,,,,,,0,58,0
56119,note_on,,,,,11,0,2,,,,,,0,58,46
56120,control_change,,,,,13,0,1,,,,64,95,0,,
56159,note_on,,,,,40,0,2,,,,,,0,58,0
56160,note_on,,,,,0,0,1,,,,,,0,62,0
56160,note_on,,,,,0,0,1,,,,,,0,75,55
56160,note_on,,,,,0,0,1,,,,,,0,63,55
56160,note_on,,,,,1,0,2,,,,,,0,55,49
56160,note_on,,,,,40,0,1,,,,,,0,74,0
56200,note_on,,,,,40,0,2,,,,,,0,55,0
56200,note_on,,,,,0,0,2,,,,,,0,58,46
56220,note_on,,,,,0,0,1,,,,,,0,74,53
56220,note_on,,,,,0,0,1,,,,,,0,62,53
56220,note_on,,,,,60,0,1,,,,,,0,63,0
56220,note_on,,,,,0,0,1,,,,,,0,75,0
56227,control_change,,,,,7,0,1,,,,64,0,0,,
56229,note_on,,,,,29,0,2,,,,,,0,58,0
56240,note_on,,,,,11,0,2,,,,,,0,58,51
56240,control_change,,,,,13,0,1,,,,64,95,0,,
56280,note_on,,,,,0,0,2,,,,,,0,57,52
56280,note_on,,,,,0,0,1,,,,,,0,63,51
56280,note_on,,,,,0,0,1,,,,,,0,75,51
56280,note_on,,,,,0,0,1,,,,,,0,74,0
56280,note_on,,,,,40,0,1,,,,,,0,62,0
56280,note_on,,,,,40,0,2,,,,,,0,58,0
56320,note_on,,,,,40,0,2,,,,,,0,57,0
56320,note_on,,,,,0,0,2,,,,,,0,58,46
56340,note_on,,,,,0,0,1,,,,,,0,75,0
56340,note_on,,,,,60,0,1,,,,,,0,63,0
56340,note_on,,,,,0,0,1,,,,,,0,77,51
56340,note_on,,,,,0,0,1,,,,,,0,65,51
56340,set_tempo,,,,,310,1,0,,571428,,,,,,
56347,control_change,,,,,7,0,1,,,,64,0,0,,
56349,note_on,,,,,29,0,2,,,,,,0,58,0
56360,note_on,,,,,11,0,2,,,,,,0,53,49
56360,note_on,,,,,0,0,2,,,,,,0,56,49
56360,control_change,,,,,13,0,1,,,,64,95,0,,
56380,set_tempo,,,,,40,1,0,,576923,,,,,,
56400,note_on,,,,,40,0,1,,,,,,0,65,0
56400,note_on,,,,,0,0,1,,,,,,0,77,0
56400,note_on,,,,,0,0,1,,,,,,0,79,55
56400,note_on,,,,,0,0,1,,,,,,0,67,55
56400,note_on,,,,,0,0,2,,,,,,0,53,0
56400,note_on,,,,,40,0,2,,,,,,0,56,0
56400,note_on,,,,,0,0,2,,,,,,0,55,53
56400,note_on,,,,,0,0,2,,,,,,0,51,53
56410,set_tempo,,,,,30,1,0,,582524,,,,,,
56420,set_tempo,,,,,10,1,0,,588235,,,,,,
56429,note_on,,,,,0,0,2,,,,,,0,55,0
56429,note_on,,,,,29,0,2,,,,,,0,51,0
56439,note_on,,,,,10,0,2,,,,,,0,58,48
56440,set_tempo,,,,,20,1,0,,594059,,,,,,
56460,set_tempo,,,,,20,1,0,,600000,,,,,,
56467,control_change,,,,,67,0,1,,,,64,0,0,,
56468,note_on,,,,,29,0,2,,,,,,0,58,0
56470,set_tempo,,,,,10,1,0,,606060,,,,,,
56479,note_on,,,,,11,0,2,,,,,,0,60,45
56480,control_change,,,,,13,0,1,,,,64,96,0,,
56490,note_on,,,,,10,0,1,,,,,,0,67,0
56490,note_on,,,,,0,0,1,,,,,,0,79,0
56490,set_tempo,,,,,20,1,0,,645161,,,,,,
56500,set_tempo,,,,,10,1,0,,666666,,,,,,
56510,set_tempo,,,,,10,1,0,,689655,,,,,,
56519,note_on,,,,,40,0,2,,,,,,0,60,0
56520,note_on,,,,,1,0,2,,,,,,0,61,50
56520,note_on,,,,,30,0,1,,,,,,0,70,70
56520,note_on,,,,,0,0,1,,,,,,0,82,70
56520,set_tempo,,,,,10,1,0,,674157,,,,,,
56530,set_tempo,,,,,10,1,0,,645161,,,,,,
56540,set_tempo,,,,,10,1,0,,625000,,,,,,
56550,set_tempo,,,,,10,1,0,,618556,,,,,,
56560,note_on,,,,,0,0,2,,,,,,0,51,53
56560,note_on,,,,,40,0,2,,,,,,0,61,0
56570,set_tempo,,,,,20,1,0,,606060,,,,,,
56580,set_tempo,,,,,10,1,0,,600000,,,,,,
56587,control_change,,,,,67,0,1,,,,64,0,0,,
56589,note_on,,,,,29,0,2,,,,,,0,51,0
56590,set_tempo,,,,,10,1,0,,588235,,,,,,
56600,control_change,,,,,13,0,1,,,,64,96,0,,
56600,note_on,,,,,11,0,2,,,,,,0,51,53
56610,set_tempo,,,,,20,1,0,,582524,,,,,,
56620,set_tempo,,,,,10,1,0,,576923,,,,,,
56640,note_on,,,,,0,0,2,,,,,,0,49,55
56640,note_on,,,,,40,0,2,,,,,,0,51,0
56650,set_tempo,,,,,30,1,0,,571428,,,,,,
56660,set_tempo,,,,,10,1,0,,560747,,,,,,
56670,set_tempo,,,,,10,1,0,,555555,,,,,,
56680,note_on,,,,,40,0,2,,,,,,0,49,0
56680,note_on,,,,,0,0,2,,,,,,0,51,58
56700,set_tempo,,,,,30,1,0,,550458,,,,,,
56707,control_change,,,,,107,0,1,,,,64,0,0,,
56709,note_on,,,,,29,0,2,,,,,,0,51,0
56710,set_tempo,,,,,10,1,0,,545454,,,,,,
56720,note_on,,,,,11,0,2,,,,,,0,51,60
56720,control_change,,,,,13,0,1,,,,64,96,0,,
56750,set_tempo,,,,,40,1,0,,540540,,,,,,
56760,note_on,,,,,0,0,1,,,,,,0,67,56
56760,note_on,,,,,0,0,1,,,,,,0,70,0
56760,note_on,,,,,40,0,1,,,,,,0,82,0
56760,note_on,,,,,0,0,2,,,,,,0,47,62
56760,note_on,,,,,40,0,2,,,,,,0,51,0
56760,note_on,,,,,0,0,1,,,,,,0,79,56
56789,note_on,,,,,29,0,2,,,,,,0,47,0
56800,note_on,,,,,11,0,2,,,,,,0,51,65
56820,set_tempo,,,,,70,1,0,,535714,,,,,,
56827,control_change,,,,,67,0,1,,,,64,0,0,,
56829,note_on,,,,,29,0,2,,,,,,0,51,0
56840,control_change,,,,,13,0,1,,,,64,96,0,,
56840,note_on,,,,,11,0,2,,,,,,0,51,67
56880,note_on,,,,,40,0,1,,,,,,0,79,0
56880,note_on,,,,,40,0,2,,,,,,0,51,0
56880,note_on,,,,,0,0,2,,,,,,0,48,69
56880,note_on,,,,,0,0,1,,,,,,0,82,68
56880,note_on,,,,,0,0,1,,,,,,0,70,68
56880,note_on,,,,,0,0,1,,,,,,0,67,0
56900,set_tempo,,,,,80,1,0,,540540,,,,,,
56920,note_on,,,,,0,0,2,,,,,,0,51,66
56920,note_on,,,,,40,0,2,,,,,,0,48,0
56930,set_tempo,,,,,30,1,0,,545454,,,,,,
56940,set_tempo,,,,,10,1,0,,550458,,,,,,
56940,note_on,,,,,60,0,1,,,,,,0,82,0
56940,note_on,,,,,0,0,1,,,,,,0,80,58
56940,note_on,,,,,0,0,1,,,,,,0,68,58
56940,note_on,,,,,0,0,1,,,,,,0,70,0
56947,control_change,,,,,7,0,1,,,,64,0,0,,
56949,note_on,,,,,29,0,2,,,,,,0,51,0
56960,note_on,,,,,11,0,2,,,,,,0,51,61
56960,control_change,,,,,13,0,1,,,,64,95,0,,
56980,set_tempo,,,,,40,1,0,,555555,,,,,,
57000,note_on,,,,,40,0,1,,,,,,0,80,0
57000,note_on,,,,,0,0,2,,,,,,0,44,61
57000,note_on,,,,,0,0,1,,,,,,0,79,54
57000,note_on,,,,,0,0,1,,,,,,0,68,0
57000,note_on,,,,,40,0,2,,,,,,0,51,0
57000,note_on,,,,,0,0,1,,,,,,0,67,54
57001,set_tempo,,,,,21,1,0,,576923,,,,,,
57021,set_tempo,,,,,20,1,0,,582524,,,,,,
57040,note_on,,,,,40,0,2,,,,,,0,44,0
57040,note_on,,,,,0,0,2,,,,,,0,51,55
57041,set_tempo,,,,,20,1,0,,594059,,,,,,
57060,note_on,,,,,60,0,1,,,,,,0,79,0
57060,note_on,,,,,0,0,1,,,,,,0,67,0
57060,note_on,,,,,0,0,1,,,,,,0,65,51
57060,note_on,,,,,0,0,1,,,,,,0,77,51
57061,set_tempo,,,,,20,1,0,,600000,,,,,,
57067,control_change,,,,,7,0,1,,,,64,0,0,,
57069,note_on,,,,,29,0,2,,,,,,0,51,0
57071,set_tempo,,,,,10,1,0,,606060,,,,,,
57080,note_on,,,,,11,0,2,,,,,,0,51,53
57080,control_change,,,,,13,0,1,,,,64,96,0,,
57091,set_tempo,,,,,20,1,0,,612244,,,,,,
57120,note_on,,,,,0,0,2,,,,,,0,45,62
57120,note_on,,,,,0,0,1,,,,,,0,63,54
57120,note_on,,,,,0,0,1,,,,,,0,75,54
57120,note_on,,,,,40,0,2,,,,,,0,51,0
57120,note_on,,,,,40,0,1,,,,,,0,77,0
57120,note_on,,,,,0,0,1,,,,,,0,65,0
57149,note_on,,,,,29,0,2,,,,,,0,45,0
57160,note_on,,,,,11,0,2,,,,,,0,51,57
57171,set_tempo,,,,,80,1,0,,625000,,,,,,
57180,note_on,,,,,0,0,1,,,,,,0,77,55
57180,note_on,,,,,60,0,1,,,,,,0,75,0
57180,note_on,,,,,0,0,1,,,,,,0,63,0
57180,note_on,,,,,0,0,1,,,,,,0,65,55
57187,control_change,,,,,7,0,1,,,,64,0,0,,
57189,note_on,,,,,29,0,2,,,,,,0,51,0
57191,set_tempo,,,,,20,1,0,,631578,,,,,,
57200,control_change,,,,,13,0,1,,,,64,95,0,,
57200,note_on,,,,,11,0,2,,,,,,0,51,52
57201,set_tempo,,,,,10,1,0,,638297,,,,,,
57225,note_on,,,,,25,0,1,,,,,,0,77,0
57225,note_on,,,,,0,0,1,,,,,,0,65,0
57230,set_tempo,,,,,29,1,0,,645161,,,,,,
57240,note_on,,,,,0,0,1,,,,,,0,79,56
57240,note_on,,,,,0,0,2,,,,,,0,46,43
57240,note_on,,,,,40,0,2,,,,,,0,51,0
57240,note_on,,,,,15,0,1,,,,,,0,67,56
57260,set_tempo,,,,,30,1,0,,652173,,,,,,
57270,note_on,,,,,30,0,2,,,,,,0,46,0
57280,set_tempo,,,,,20,1,0,,659340,,,,,,
57280,note_on,,,,,10,0,2,,,,,,0,51,43
57300,set_tempo,,,,,20,1,0,,845070,,,,,,
57300,control_change,,,,,60,0,1,,,,64,0,0,,
57320,note_on,,,,,40,0,2,,,,,,0,51,0
57320,note_on,,,,,0,0,2,,,,,,0,39,40
57330,note_on,,,,,0,0,1,,,,,,0,67,0
57330,note_on,,,,,30,0,1,,,,,,0,79,0
57349,note_on,,,,,29,0,2,,,,,,0,39,0
57360,note_on,,,,,30,0,1,,,,,,0,68,46
57360,note_on,,,,,11,0,2,,,,,,0,37,39
57360,note_on,,,,,0,0,1,,,,,,0,80,46
57360,set_tempo,,,,,60,1,0,,625000,,,,,,
57390,set_tempo,,,,,30,1,0,,618556,,,,,,
57400,note_on,,,,,40,0,2,,,,,,0,37,0
57400,note_on,,,,,0,0,2,,,,,,0,44,36
57440,note_on,,,,,40,0,2,,,,,,0,44,0
57440,note_on,,,,,0,0,2,,,,,,0,53,31
57480,note_on,,,,,0,0,2,,,,,,0,37,40
57480,note_on,,,,,40,0,2,,,,,,0,53,0
57490,set_tempo,,,,,100,1,0,,612244,,,,,,
57520,note_on,,,,,0,0,2,,,,,,0,44,37
57520,note_on,,,,,40,0,2,,,,,,0,37,0
57540,note_on,,,,,0,0,1,,,,,,0,68,0
57540,note_on,,,,,0,0,1,,,,,,0,65,37
57540,note_on,,,,,0,0,1,,,,,,0,77,37
57540,note_on,,,,,180,0,1,,,,,,0,80,0
57560,note_on,,,,,40,0,2,,,,,,0,44,0
57560,note_on,,,,,0,0,2,,,,,,0,53,35
57560,set_tempo,,,,,70,1,0,,606060,,,,,,
57580,set_tempo,,,,,20,1,0,,600000,,,,,,
57600,note_on,,,,,0,0,2,,,,,,0,37,39
57600,note_on,,,,,40,0,2,,,,,,0,53,0
57600,note_on,,,,,0,0,1,,,,,,0,80,41
57600,note_on,,,,,60,0,1,,,,,,0,77,0
57600,note_on,,,,,0,0,1,,,,,,0,65,0
57600,note_on,,,,,0,0,1,,,,,,0,68,41
57640,note_on,,,,,0,0,2,,,,,,0,44,35
57640,note_on,,,,,40,0,2,,,,,,0,37,0
57660,note_on,,,,,0,0,1,,,,,,0,68,0
57660,note_on,,,,,0,0,1,,,,,,0,78,37
57660,note_on,,,,,0,0,1,,,,,,0,66,37
57660,note_on,,,,,60,0,1,,,,,,0,80,0
57670,set_tempo,,,,,90,1,0,,594059,,,,,,
57680,note_on,,,,,40,0,2,,,,,,0,44,0
57680,note_on,,,,,0,0,2,,,,,,0,53,33
57700,set_tempo,,,,,30,1,0,,594059,,,,,,
57720,note_on,,,,,0,0,1,,,,,,0,66,0
57720,note_on,,,,,0,0,1,,,,,,0,65,40
57720,note_on,,,,,0,0,1,,,,,,0,77,40
57720,note_on,,,,,0,0,2,,,,,,0,37,32
57720,set_tempo,,,,,20,1,0,,606060,,,,,,
57720,note_on,,,,,40,0,2,,,,,,0,53,0
57720,note_on,,,,,60,0,1,,,,,,0,78,0
57750,set_tempo,,,,,30,1,0,,612244,,,,,,
57760,note_on,,,,,0,0,2,,,,,,0,44,32
57760,note_on,,,,,40,0,2,,,,,,0,37,0
57780,note_on,,,,,0,0,1,,,,,,0,75,43
57780,note_on,,,,,0,0,1,,,,,,0,63,43
57780,note_on,,,,,0,0,1,,,,,,0,65,0
57780,note_on,,,,,60,0,1,,,,,,0,77,0
57800,note_on,,,,,0,0,2,,,,,,0,48,33
57800,note_on,,,,,40,0,2,,,,,,0,44,0
57810,set_tempo,,,,,60,1,0,,618556,,,,,,
57840,set_tempo,,,,,30,1,0,,625000,,,,,,
57840,note_on,,,,,40,0,2,,,,,,0,48,0
57840,note_on,,,,,0,0,2,,,,,,0,37,34
57840,note_on,,,,,0,0,1,,,,,,0,73,45
57840,note_on,,,,,0,0,1,,,,,,0,61,45
57840,note_on,,,,,0,0,1,,,,,,0,63,0
57840,note_on,,,,,60,0,1,,,,,,0,75,0
57870,set_tempo,,,,,30,1,0,,631578,,,,,,
57880,note_on,,,,,40,0,2,,,,,,0,37,0
57880,set_tempo,,,,,10,1,0,,638297,,,,,,
57880,note_on,,,,,0,0,2,,,,,,0,44,35
57900,note_on,,,,,0,0,1,,,,,,0,63,45
57900,note_on,,,,,60,0,1,,,,,,0,73,0
57900,note_on,,,,,0,0,1,,,,,,0,61,0
57900,note_on,,,,,0,0,1,,,,,,0,75,45
57920,note_on,,,,,40,0,2,,,,,,0,44,0
57920,note_on,,,,,0,0,2,,,,,,0,48,36
57930,set_tempo,,,,,50,1,0,,645161,,,,,,
57940,set_tempo,,,,,10,1,0,,645161,,,,,,
57960,note_on,,,,,0,0,1,,,,,,0,77,48
57960,note_on,,,,,0,0,1,,,,,,0,63,0
57960,note_on,,,,,60,0,1,,,,,,0,75,0
57960,note_on,,,,,40,0,2,,,,,,0,48,0
57960,note_on,,,,,0,0,2,,,,,,0,37,38
57960,note_on,,,,,0,0,1,,,,,,0,65,48
58000,note_on,,,,,40,0,2,,,,,,0,37,0
58000,note_on,,,,,0,0,2,,,,,,0,44,38
58010,set_tempo,,,,,70,1,0,,638297,,,,,,
58040,set_tempo,,,,,30,1,0,,631578,,,,,,
58040,note_on,,,,,40,0,2,,,,,,0,44,0
58040,note_on,,,,,0,0,2,,,,,,0,49,40
58050,note_on,,,,,90,0,1,,,,,,0,77,0
58050,note_on,,,,,0,0,1,,,,,,0,65,0
58080,note_on,,,,,40,0,2,,,,,,0,49,0
58080,note_on,,,,,30,0,1,,,,,,0,65,60
58080,note_on,,,,,0,0,1,,,,,,0,74,60
58080,control_change,,,,,0,0,1,,,,64,95,0,,
58080,note_on,,,,,0,0,2,,,,,,0,34,40
58080,note_on,,,,,0,0,1,,,,,,0,77,60
58107,note_on,,,,,27,0,2,,,,,,0,34,0
58120,note_on,,,,,13,0,2,,,,,,0,56,41
58120,set_tempo,,,,,80,1,0,,618556,,,,,,
58160,note_on,,,,,0,0,2,,,,,,0,53,42
58160,set_tempo,,,,,40,1,0,,612244,,,,,,
58160,note_on,,,,,40,0,2,,,,,,0,56,0
58170,set_tempo,,,,,10,1,0,,606060,,,,,,
58200,note_on,,,,,0,0,2,,,,,,0,46,44
58200,note_on,,,,,40,0,2,,,,,,0,53,0
58230,set_tempo,,,,,60,1,0,,600000,,,,,,
58240,note_on,,,,,0,0,2,,,,,,0,56,44
58240,note_on,,,,,40,0,2,,,,,,0,46,0
58260,set_tempo,,,,,30,1,0,,594059,,,,,,
58280,note_on,,,,,0,0,2,,,,,,0,53,45
58280,note_on,,,,,40,0,2,,,,,,0,56,0
58300,control_change,,,,,220,0,1,,,,64,0,0,,
58320,note_on,,,,,0,0,1,,,,,,0,65,0
58320,note_on,,,,,0,0,2,,,,,,0,46,45
58320,note_on,,,,,0,0,1,,,,,,0,77,56
58320,note_on,,,,,0,0,1,,,,,,0,74,56
58320,note_on,,,,,0,0,1,,,,,,0,65,56
58320,note_on,,,,,0,0,1,,,,,,0,74,0
58320,note_on,,,,,20,0,1,,,,,,0,77,0
58320,note_on,,,,,40,0,2,,,,,,0,53,0
58320,control_change,,,,,0,0,1,,,,64,95,0,,
58350,set_tempo,,,,,90,1,0,,588235,,,,,,
58360,note_on,,,,,0,0,2,,,,,,0,56,48
58360,note_on,,,,,40,0,2,,,,,,0,46,0
58380,set_tempo,,,,,30,1,0,,582524,,,,,,
58400,note_on,,,,,40,0,2,,,,,,0,56,0
58400,note_on,,,,,0,0,2,,,,,,0,53,50
58435,control_change,,,,,115,0,1,,,,64,0,0,,
58440,control_change,,,,,0,0,1,,,,64,95,0,,
58440,note_on,,,,,0,0,1,,,,,,0,75,40
58440,note_on,,,,,0,0,1,,,,,,0,67,40
58440,note_on,,,,,0,0,1,,,,,,0,65,0
58440,note_on,,,,,0,0,1,,,,,,0,74,0
58440,note_on,,,,,5,0,1,,,,,,0,77,0
58440,note_on,,,,,0,0,1,,,,,,0,79,40
58440,note_on,,,,,0,0,2,,,,,,0,46,52
58440,note_on,,,,,40,0,2,,,,,,0,53,0
58450,set_tempo,,,,,70,1,0,,576923,,,,,,
58480,note_on,,,,,0,0,2,,,,,,0,55,50
58480,note_on,,,,,40,0,2,,,,,,0,46,0
58480,set_tempo,,,,,30,1,0,,571428,,,,,,
58500,note_on,,,,,0,0,1,,,,,,0,80,44
58500,note_on,,,,,0,0,1,,,,,,0,74,44
58500,note_on,,,,,0,0,1,,,,,,0,67,0
58500,note_on,,,,,0,0,1,,,,,,0,75,0
58500,note_on,,,,,0,0,1,,,,,,0,68,44
58500,note_on,,,,,60,0,1,,,,,,0,79,0
58520,note_on,,,,,40,0,2,,,,,,0,55,0
58520,note_on,,,,,0,0,2,,,,,,0,53,50
58560,note_on,,,,,0,0,2,,,,,,0,46,57
58560,note_on,,,,,0,0,1,,,,,,0,79,50
58560,note_on,,,,,40,0,2,,,,,,0,53,0
58560,set_tempo,,,,,80,1,0,,566037,,,,,,
58560,note_on,,,,,60,0,1,,,,,,0,80,0
58560,note_on,,,,,0,0,1,,,,,,0,74,0
58560,note_on,,,,,0,0,1,,,,,,0,68,0
58560,note_on,,,,,0,0,1,,,,,,0,67,50
58560,note_on,,,,,0,0,1,,,,,,0,75,50
58600,note_on,,,,,40,0,2,,,,,,0,46,0
58600,note_on,,,,,0,0,2,,,,,,0,55,50
58620,note_on,,,,,0,0,1,,,,,,0,67,0
58620,note_on,,,,,0,0,1,,,,,,0,75,0
58620,note_on,,,,,0,0,1,,,,,,0,65,55
58620,note_on,,,,,60,0,1,,,,,,0,79,0
58620,note_on,,,,,0,0,1,,,,,,0,74,55
58620,note_on,,,,,0,0,1,,,,,,0,77,55
58630,set_tempo,,,,,70,1,0,,571428,,,,,,
58640,note_on,,,,,40,0,2,,,,,,0,55,0
58640,note_on,,,,,0,0,2,,,,,,0,56,50
58640,set_tempo,,,,,10,1,0,,576923,,,,,,
58670,control_change,,,,,50,0,1,,,,64,0,0,,
58670,set_tempo,,,,,30,1,0,,582524,,,,,,
58680,note_on,,,,,40,0,2,,,,,,0,56,0
58680,note_on,,,,,0,0,2,,,,,,0,46,54
58680,set_tempo,,,,,10,1,0,,588235,,,,,,
58680,note_on,,,,,0,0,1,,,,,,0,65,0
58680,note_on,,,,,0,0,1,,,,,,0,74,0
58680,note_on,,,,,0,0,1,,,,,,0,75,56
58680,note_on,,,,,10,0,1,,,,,,0,77,0
58680,note_on,,,,,0,0,1,,,,,,0,67,56
58680,note_on,,,,,0,0,1,,,,,,0,79,56
58680,control_change,,,,,0,0,1,,,,64,95,0,,
58710,set_tempo,,,,,30,1,0,,594059,,,,,,
58720,note_on,,,,,40,0,2,,,,,,0,55,50
58740,set_tempo,,,,,30,1,0,,600000,,,,,,
58760,note_on,,,,,40,0,2,,,,,,0,55,0
58760,note_on,,,,,0,0,2,,,,,,0,51,50
58760,set_tempo,,,,,20,1,0,,594059,,,,,,
58795,control_change,,,,,115,0,1,,,,64,0,0,,
58800,note_on,,,,,5,0,1,,,,,,0,79,0
58800,note_on,,,,,0,0,1,,,,,,0,75,0
58800,note_on,,,,,0,0,2,,,,,,0,46,52
58800,note_on,,,,,0,0,2,,,,,,0,46,0
58800,note_on,,,,,40,0,2,,,,,,0,51,0
58800,control_change,,,,,0,0,1,,,,64,94,0,,
58800,note_on,,,,,0,0,1,,,,,,0,84,48
58800,note_on,,,,,0,0,1,,,,,,0,75,48
58800,note_on,,,,,0,0,1,,,,,,0,72,48
58800,note_on,,,,,0,0,1,,,,,,0,67,0
58840,note_on,,,,,40,0,2,,,,,,0,56,45
58880,note_on,,,,,0,0,2,,,,,,0,53,42
58880,note_on,,,,,40,0,2,,,,,,0,56,0
58900,set_tempo,,,,,140,1,0,,600000,,,,,,
58915,control_change,,,,,115,0,1,,,,64,0,0,,
58920,note_on,,,,,0,0,1,,,,,,0,68,44
58920,note_on,,,,,0,0,2,,,,,,0,46,0
58920,note_on,,,,,0,0,2,,,,,,0,46,49
58920,note_on,,,,,5,0,1,,,,,,0,84,0
58920,note_on,,,,,0,0,1,,,,,,0,75,0
58920,note_on,,,,,0,0,1,,,,,,0,72,0
58920,note_on,,,,,40,0,2,,,,,,0,53,0
58920,control_change,,,,,0,0,1,,,,64,95,0,,
58920,note_on,,,,,0,0,1,,,,,,0,74,44
58920,note_on,,,,,0,0,1,,,,,,0,80,44
58930,set_tempo,,,,,30,1,0,,606060,,,,,,
58960,note_on,,,,,40,0,2,,,,,,0,50,38
58970,set_tempo,,,,,40,1,0,,612244,,,,,,
58990,set_tempo,,,,,20,1,0,,618556,,,,,,
59000,note_on,,,,,0,0,2,,,,,,0,53,37
59000,note_on,,,,,40,0,2,,,,,,0,50,0
59035,control_change,,,,,115,0,1,,,,64,0,0,,
59040,note_on,,,,,0,0,1,,,,,,0,75,38
59040,note_on,,,,,5,0,1,,,,,,0,80,0
59040,set_tempo,,,,,50,1,0,,631578,,,,,,
59040,note_on,,,,,0,0,1,,,,,,0,67,38
59040,note_on,,,,,0,0,1,,,,,,0,74,0
59040,note_on,,,,,0,0,2,,,,,,0,46,0
59040,note_on,,,,,40,0,2,,,,,,0,53,0
59040,note_on,,,,,0,0,1,,,,,,0,68,0
59040,control_change,,,,,0,0,1,,,,64,95,0,,
59040,note_on,,,,,0,0,1,,,,,,0,79,38
59040,note_on,,,,,0,0,2,,,,,,0,39,47
59080,note_on,,,,,0,0,2,,,,,,0,51,37
59080,set_tempo,,,,,40,1,0,,638297,,,,,,
59080,note_on,,,,,40,0,2,,,,,,0,39,0
59120,note_on,,,,,40,0,2,,,,,,0,51,0
59120,note_on,,,,,0,0,2,,,,,,0,46,35
59160,note_on,,,,,0,0,2,,,,,,0,39,33
59160,note_on,,,,,40,0,2,,,,,,0,46,0
59170,set_tempo,,,,,90,1,0,,645161,,,,,,
59190,note_on,,,,,150,0,1,,,,,,0,79,0
59190,note_on,,,,,0,0,1,,,,,,0,75,0
59190,note_on,,,,,0,0,1,,,,,,0,67,0
59200,note_on,,,,,40,0,2,,,,,,0,39,0
59200,set_tempo,,,,,30,1,0,,659340,,,,,,
59210,set_tempo,,,,,10,1,0,,666666,,,,,,
59215,control_change,,,,,25,0,1,,,,64,0,0,,
59220,note_on,,,,,5,0,1,,,,,,0,68,50
59220,note_on,,,,,20,0,2,,,,,,0,46,45
59220,set_tempo,,,,,10,1,0,,674157,,,,,,
59220,note_on,,,,,0,0,2,,,,,,0,56,45
59220,note_on,,,,,0,0,2,,,,,,0,58,45
59240,set_tempo,,,,,20,1,0,,689655,,,,,,
59250,set_tempo,,,,,10,1,0,,697674,,,,,,
59250,note_on,,,,,0,0,1,,,,,,0,70,46
59250,note_on,,,,,30,0,1,,,,,,0,68,0
59260,set_tempo,,,,,10,1,0,,714285,,,,,,
59272,note_on,,,,,22,0,1,,,,,,0,70,0
59280,note_on,,,,,0,0,2,,,,,,0,48,52
59280,note_on,,,,,0,0,2,,,,,,0,56,52
59280,note_on,,,,,0,0,2,,,,,,0,46,0
59280,note_on,,,,,0,0,2,,,,,,0,58,0
59280,note_on,,,,,60,0,2,,,,,,0,56,0
59280,note_on,,,,,0,0,2,,,,,,0,58,52
59280,set_tempo,,,,,20,1,0,,731707,,,,,,
59280,note_on,,,,,8,0,1,,,,,,0,66,57
59290,set_tempo,,,,,10,1,0,,750000,,,,,,
59300,set_tempo,,,,,10,1,0,,759493,,,,,,
59310,note_on,,,,,30,0,1,,,,,,0,66,0
59310,note_on,,,,,0,0,1,,,,,,0,70,53
59320,set_tempo,,,,,20,1,0,,769230,,,,,,
59330,set_tempo,,,,,10,1,0,,789473,,,,,,
59332,note_on,,,,,22,0,1,,,,,,0,70,0
59340,set_tempo,,,,,10,1,0,,800000,,,,,,
59340,note_on,,,,,0,0,2,,,,,,0,50,57
59340,note_on,,,,,0,0,2,,,,,,0,56,57
59340,note_on,,,,,0,0,2,,,,,,0,58,57
59340,note_on,,,,,0,0,2,,,,,,0,58,0
59340,note_on,,,,,0,0,2,,,,,,0,56,0
59340,note_on,,,,,8,0,1,,,,,,0,65,64
59340,note_on,,,,,60,0,2,,,,,,0,48,0
59370,note_on,,,,,30,0,1,,,,,,0,65,0
59370,set_tempo,,,,,30,1,0,,845070,,,,,,
59370,note_on,,,,,0,0,1,,,,,,0,70,59
59390,set_tempo,,,,,20,1,0,,833333,,,,,,
59392,note_on,,,,,22,0,1,,,,,,0,70,0
59400,set_tempo,,,,,10,1,0,,810810,,,,,,
59400,note_on,,,,,0,0,2,,,,,,0,58,0
59400,note_on,,,,,0,0,2,,,,,,0,56,0
59400,note_on,,,,,60,0,2,,,,,,0,50,0
59400,note_on,,,,,0,0,2,,,,,,0,51,65
59400,control_change,,,,,0,0,1,,,,64,95,0,,
59400,note_on,,,,,8,0,1,,,,,,0,63,65
59410,set_tempo,,,,,10,1,0,,779220,,,,,,
59420,set_tempo,,,,,10,1,0,,769230,,,,,,
59430,note_on,,,,,0,0,1,,,,,,0,70,56
59430,note_on,,,,,30,0,1,,,,,,0,63,0
59440,set_tempo,,,,,20,1,0,,750000,,,,,,
59450,set_tempo,,,,,10,1,0,,731707,,,,,,
59452,note_on,,,,,52,0,2,,,,,,0,51,0
59456,note_on,,,,,26,0,1,,,,,,0,70,0
59460,note_on,,,,,8,0,2,,,,,,0,58,56
59460,set_tempo,,,,,10,1,0,,722891,,,,,,
59460,note_on,,,,,4,0,1,,,,,,0,66,56
59460,note_on,,,,,0,0,2,,,,,,0,54,56
59480,set_tempo,,,,,20,1,0,,705882,,,,,,
59486,note_on,,,,,26,0,1,,,,,,0,66,0
59490,note_on,,,,,4,0,1,,,,,,0,65,56
59490,set_tempo,,,,,10,1,0,,689655,,,,,,
59500,set_tempo,,,,,10,1,0,,681818,,,,,,
59505,note_on,,,,,0,0,2,,,,,,0,58,0
59505,note_on,,,,,45,0,2,,,,,,0,54,0
59510,control_change,,,,,20,0,1,,,,64,0,0,,
59510,set_tempo,,,,,10,1,0,,674157,,,,,,
59516,note_on,,,,,6,0,1,,,,,,0,65,0
59520,note_on,,,,,15,0,2,,,,,,0,42,66
59520,note_on,,,,,4,0,1,,,,,,0,63,65
59520,set_tempo,,,,,10,1,0,,666666,,,,,,
59530,set_tempo,,,,,10,1,0,,659340,,,,,,
59540,set_tempo,,,,,10,1,0,,645161,,,,,,
59550,note_on,,,,,30,0,1,,,,,,0,63,0
59550,note_on,,,,,0,0,1,,,,,,0,70,56
59560,set_tempo,,,,,20,1,0,,631578,,,,,,
59570,set_tempo,,,,,10,1,0,,625000,,,,,,
59572,note_on,,,,,52,0,2,,,,,,0,42,0
59576,note_on,,,,,26,0,1,,,,,,0,70,0
59580,note_on,,,,,4,0,1,,,,,,0,66,56
59580,note_on,,,,,0,0,2,,,,,,0,54,56
59580,note_on,,,,,8,0,2,,,,,,0,58,56
59580,set_tempo,,,,,10,1,0,,618556,,,,,,
59590,set_tempo,,,,,10,1,0,,606060,,,,,,
59606,note_on,,,,,26,0,1,,,,,,0,66,0
59610,note_on,,,,,4,0,1,,,,,,0,63,56
59610,set_tempo,,,,,20,1,0,,594059,,,,,,
59625,note_on,,,,,45,0,2,,,,,,0,54,0
59625,note_on,,,,,0,0,2,,,,,,0,58,0
59630,set_tempo,,,,,20,1,0,,582524,,,,,,
59636,note_on,,,,,26,0,1,,,,,,0,63,0
59640,note_on,,,,,4,0,1,,,,,,0,62,65
59640,note_on,,,,,15,0,2,,,,,,0,46,65
59650,set_tempo,,,,,20,1,0,,571428,,,,,,
59660,set_tempo,,,,,10,1,0,,566037,,,,,,
59670,note_on,,,,,30,0,1,,,,,,0,62,0
59670,note_on,,,,,0,0,1,,,,,,0,70,58
59680,set_tempo,,,,,20,1,0,,560747,,,,,,
59690,set_tempo,,,,,10,1,0,,555555,,,,,,
59692,note_on,,,,,52,0,2,,,,,,0,46,0
59696,note_on,,,,,26,0,1,,,,,,0,70,0
59700,note_on,,,,,4,0,1,,,,,,0,65,59
59700,note_on,,,,,8,0,2,,,,,,0,58,56
59700,set_tempo,,,,,10,1,0,,550458,,,,,,
59700,note_on,,,,,0,0,2,,,,,,0,56,56
59726,note_on,,,,,26,0,1,,,,,,0,65,0
59730,set_tempo,,,,,30,1,0,,545454,,,,,,
59730,note_on,,,,,4,0,1,,,,,,0,62,62
59740,set_tempo,,,,,10,1,0,,540540,,,,,,
59745,note_on,,,,,0,0,2,,,,,,0,58,0
59745,note_on,,,,,45,0,2,,,,,,0,56,0
59756,note_on,,,,,26,0,1,,,,,,0,62,0
59760,note_on,,,,,15,0,2,,,,,,0,51,66
59760,set_tempo,,,,,20,1,0,,535714,,,,,,
59760,note_on,,,,,4,0,1,,,,,,0,63,62
59770,set_tempo,,,,,10,1,0,,526315,,,,,,
59780,set_tempo,,,,,10,1,0,,512820,,,,,,
59790,note_on,,,,,30,0,1,,,,,,0,63,0
59790,note_on,,,,,0,0,1,,,,,,0,70,55
59810,set_tempo,,,,,30,1,0,,517241,,,,,,
59812,note_on,,,,,52,0,2,,,,,,0,51,0
59816,note_on,,,,,26,0,1,,,,,,0,70,0
59820,note_on,,,,,0,0,2,,,,,,0,56,51
59820,note_on,,,,,8,0,2,,,,,,0,58,51
59820,set_tempo,,,,,10,1,0,,526315,,,,,,
59820,note_on,,,,,4,0,1,,,,,,0,62,58
59840,set_tempo,,,,,20,1,0,,530973,,,,,,
59846,note_on,,,,,26,0,1,,,,,,0,62,0
59850,set_tempo,,,,,10,1,0,,535714,,,,,,
59850,note_on,,,,,4,0,1,,,,,,0,70,61
59865,note_on,,,,,0,0,2,,,,,,0,58,0
59865,note_on,,,,,45,0,2,,,,,,0,56,0
59870,set_tempo,,,,,20,1,0,,540540,,,,,,
59876,note_on,,,,,26,0,1,,,,,,0,70,0
59880,note_on,,,,,15,0,2,,,,,,0,58,55
59880,note_on,,,,,4,0,1,,,,,,0,63,63
59880,note_on,,,,,0,0,2,,,,,,0,54,55
59890,set_tempo,,,,,20,1,0,,550458,,,,,,
59906,note_on,,,,,26,0,1,,,,,,0,63,0
59910,set_tempo,,,,,20,1,0,,560747,,,,,,
59910,note_on,,,,,4,0,1,,,,,,0,70,65
59920,set_tempo,,,,,10,1,0,,566037,,,,,,
59925,note_on,,,,,45,0,2,,,,,,0,54,0
59925,note_on,,,,,0,0,2,,,,,,0,58,0
59936,note_on,,,,,26,0,1,,,,,,0,70,0
59940,set_tempo,,,,,20,1,0,,571428,,,,,,
59940,note_on,,,,,0,0,2,,,,,,0,53,58
59940,note_on,,,,,4,0,1,,,,,,0,65,66
59940,note_on,,,,,15,0,2,,,,,,0,58,58
59960,set_tempo,,,,,20,1,0,,582524,,,,,,
59966,note_on,,,,,26,0,1,,,,,,0,65,0
59970,note_on,,,,,4,0,1,,,,,,0,70,67
59980,set_tempo,,,,,20,1,0,,594059,,,,,,
59985,note_on,,,,,45,0,2,,,,,,0,53,0
59985,note_on,,,,,0,0,2,,,,,,0,58,0
59990,set_tempo,,,,,10,1,0,,600000,,,,,,
59996,note_on,,,,,26,0,1,,,,,,0,70,0
60000,note_on,,,,,15,0,2,,,,,,0,58,60
60000,note_on,,,,,0,0,2,,,,,,0,51,60
60000,note_on,,,,,4,0,1,,,,,,0,66,69
60020,set_tempo,,,,,30,1,0,,612244,,,,,,
60030,note_on,,,,,0,0,1,,,,,,0,75,64
60030,note_on,,,,,30,0,1,,,,,,0,66,0
60045,note_on,,,,,0,0,2,,,,,,0,58,0
60045,note_on,,,,,45,0,2,,,,,,0,51,0
60050,set_tempo,,,,,30,1,0,,618556,,,,,,
60056,note_on,,,,,26,0,1,,,,,,0,75,0
60060,note_on,,,,,4,0,1,,,,,,0,70,63
60060,note_on,,,,,15,0,2,,,,,,0,39,63
60070,set_tempo,,,,,20,1,0,,625000,,,,,,
60086,note_on,,,,,26,0,1,,,,,,0,70,0
60090,note_on,,,,,4,0,1,,,,,,0,66,58
60090,set_tempo,,,,,20,1,0,,882352,,,,,,
60105,note_on,,,,,45,0,2,,,,,,0,39,0
60110,set_tempo,,,,,20,1,0,,625000,,,,,,
60116,note_on,,,,,26,0,1,,,,,,0,66,0
60120,control_change,,,,,0,0,1,,,,64,95,0,,
60120,note_on,,,,,4,0,1,,,,,,0,68,64
60120,note_on,,,,,15,0,2,,,,,,0,47,66
60120,set_tempo,,,,,10,1,0,,612244,,,,,,
60150,note_on,,,,,30,0,1,,,,,,0,68,0
60150,note_on,,,,,0,0,1,,,,,,0,75,56
60165,note_on,,,,,45,0,2,,,,,,0,47,0
60170,set_tempo,,,,,50,1,0,,606060,,,,,,
60176,note_on,,,,,26,0,1,,,,,,0,75,0
60180,set_tempo,,,,,10,1,0,,600000,,,,,,
60180,note_on,,,,,4,0,1,,,,,,0,71,56
60180,note_on,,,,,15,0,2,,,,,,0,56,56
60180,note_on,,,,,0,0,2,,,,,,0,51,56
60200,set_tempo,,,,,20,1,0,,594059,,,,,,
60206,note_on,,,,,26,0,1,,,,,,0,71,0
60210,set_tempo,,,,,10,1,0,,588235,,,,,,
60210,note_on,,,,,4,0,1,,,,,,0,70,56
60225,note_on,,,,,0,0,2,,,,,,0,56,0
60225,note_on,,,,,45,0,2,,,,,,0,51,0
60230,control_change,,,,,20,0,1,,,,64,0,0,,
60236,note_on,,,,,6,0,1,,,,,,0,70,0
60240,note_on,,,,,15,0,2,,,,,,0,47,60
60240,note_on,,,,,4,0,1,,,,,,0,68,63
60270,note_on,,,,,30,0,1,,,,,,0,68,0
60270,note_on,,,,,0,0,1,,,,,,0,75,56
60285,note_on,,,,,45,0,2,,,,,,0,47,0
60290,set_tempo,,,,,80,1,0,,582524,,,,,,
60296,note_on,,,,,26,0,1,,,,,,0,75,0
60300,note_on,,,,,4,0,1,,,,,,0,71,56
60300,set_tempo,,,,,10,1,0,,576923,,,,,,
60300,note_on,,,,,15,0,2,,,,,,0,56,56
60300,note_on,,,,,0,0,2,,,,,,0,51,56
60326,note_on,,,,,26,0,1,,,,,,0,71,0
60330,note_on,,,,,4,0,1,,,,,,0,68,56
60330,set_tempo,,,,,30,1,0,,571428,,,,,,
60345,note_on,,,,,45,0,2,,,,,,0,51,0
60345,note_on,,,,,0,0,2,,,,,,0,56,0
60356,note_on,,,,,26,0,1,,,,,,0,68,0
60360,note_on,,,,,15,0,2,,,,,,0,46,61
60360,note_on,,,,,4,0,1,,,,,,0,66,64
60360,set_tempo,,,,,30,1,0,,566037,,,,,,
60390,note_on,,,,,0,0,1,,,,,,0,75,53
60390,note_on,,,,,30,0,1,,,,,,0,66,0
60400,set_tempo,,,,,40,1,0,,560747,,,,,,
60405,note_on,,,,,45,0,2,,,,,,0,46,0
60416,note_on,,,,,26,0,1,,,,,,0,75,0
60420,set_tempo,,,,,20,1,0,,555555,,,,,,
60420,note_on,,,,,4,0,1,,,,,,0,70,57
60420,note_on,,,,,0,0,2,,,,,,0,51,56
60420,note_on,,,,,15,0,2,,,,,,0,58,56
60446,note_on,,,,,26,0,1,,,,,,0,70,0
60450,note_on,,,,,4,0,1,,,,,,0,66,60
60465,note_on,,,,,0,0,2,,,,,,0,58,0
60465,note_on,,,,,45,0,2,,,,,,0,51,0
60472,note_on,,,,,22,0,1,,,,,,0,66,0
60480,note_on,,,,,15,0,2,,,,,,0,44,61
60480,set_tempo,,,,,60,1,0,,550458,,,,,,
60480,note_on,,,,,8,0,1,,,,,,0,66,65
60510,set_tempo,,,,,30,1,0,,545454,,,,,,
60510,note_on,,,,,0,0,1,,,,,,0,70,56
60510,note_on,,,,,30,0,1,,,,,,0,66,0
60525,note_on,,,,,45,0,2,,,,,,0,44,0
60530,set_tempo,,,,,20,1,0,,540540,,,,,,
60536,note_on,,,,,26,0,1,,,,,,0,70,0
60540,note_on,,,,,4,0,1,,,,,,0,65,57
60540,note_on,,,,,15,0,2,,,,,,0,58,44
60540,note_on,,,,,0,0,2,,,,,,0,50,44
60566,note_on,,,,,26,0,1,,,,,,0,65,0
60570,note_on,,,,,4,0,1,,,,,,0,70,59
60585,note_on,,,,,45,0,2,,,,,,0,50,0
60585,note_on,,,,,0,0,2,,,,,,0,58,0
60590,set_tempo,,,,,60,1,0,,535714,,,,,,
60596,note_on,,,,,26,0,1,,,,,,0,70,0
60600,note_on,,,,,15,0,2,,,,,,0,41,48
60600,note_on,,,,,4,0,1,,,,,,0,63,61
60620,set_tempo,,,,,30,1,0,,530973,,,,,,
60626,note_on,,,,,26,0,1,,,,,,0,63,0
60630,note_on,,,,,4,0,1,,,,,,0,70,61
60645,note_on,,,,,45,0,2,,,,,,0,41,0
60650,set_tempo,,,,,30,1,0,,526315,,,,,,
60656,note_on,,,,,26,0,1,,,,,,0,70,0
60660,note_on,,,,,0,0,2,,,,,,0,56,52
60660,note_on,,,,,15,0,2,,,,,,0,58,52
60660,note_on,,,,,4,0,1,,,,,,0,62,63
60670,set_tempo,,,,,20,1,0,,530973,,,,,,
60680,set_tempo,,,,,10,1,0,,526315,,,,,,
60686,note_on,,,,,26,0,1,,,,,,0,62,0
60690,note_on,,,,,4,0,1,,,,,,0,70,65
60690,set_tempo,,,,,10,1,0,,530973,,,,,,
60705,note_on,,,,,45,0,2,,,,,,0,56,0
60705,note_on,,,,,0,0,2,,,,,,0,58,0
60716,note_on,,,,,26,0,1,,,,,,0,70,0
60720,set_tempo,,,,,30,1,0,,535714,,,,,,
60720,control_change,,,,,0,0,1,,,,64,95,0,,
60720,note_on,,,,,15,0,2,,,,,,0,58,58
60720,note_on,,,,,0,0,2,,,,,,0,54,58
60720,note_on,,,,,0,0,2,,,,,,0,51,58
60720,note_on,,,,,4,0,1,,,,,,0,63,67
60740,set_tempo,,,,,20,1,0,,540540,,,,,,
60746,note_on,,,,,26,0,1,,,,,,0,63,0
60750,note_on,,,,,4,0,1,,,,,,0,70,66
60760,set_tempo,,,,,20,1,0,,550458,,,,,,
60765,note_on,,,,,0,0,2,,,,,,0,54,0
60765,note_on,,,,,45,0,2,,,,,,0,51,0
60765,note_on,,,,,0,0,2,,,,,,0,58,0
60770,set_tempo,,,,,10,1,0,,594059,,,,,,
60776,note_on,,,,,26,0,1,,,,,,0,70,0
60780,note_on,,,,,4,0,1,,,,,,0,65,64
60780,note_on,,,,,0,0,2,,,,,,0,59,62
60780,note_on,,,,,0,0,2,,,,,,0,56,62
60780,note_on,,,,,15,0,2,,,,,,0,49,62
60780,set_tempo,,,,,10,1,0,,705882,,,,,,
60790,set_tempo,,,,,10,1,0,,722891,,,,,,
60800,set_tempo,,,,,10,1,0,,779220,,,,,,
60806,note_on,,,,,26,0,1,,,,,,0,65,0
60810,note_on,,,,,4,0,1,,,,,,0,73,55
60810,set_tempo,,,,,10,1,0,,895522,,,,,,
60832,note_on,,,,,52,0,2,,,,,,0,59,0
60832,note_on,,,,,0,0,2,,,,,,0,56,0
60832,note_on,,,,,0,0,2,,,,,,0,49,0
60835,control_change,,,,,25,0,1,,,,64,0,0,,
60836,note_on,,,,,1,0,1,,,,,,0,73,0
60840,note_on,,,,,8,0,2,,,,,,0,54,47
60840,note_on,,,,,4,0,1,,,,,,0,66,50
60840,control_change,,,,,0,0,1,,,,64,96,0,,
60860,set_tempo,,,,,50,1,0,,722891,,,,,,
60870,set_tempo,,,,,10,1,0,,674157,,,,,,
60870,note_on,,,,,0,0,1,,,,,,0,73,42
60870,note_on,,,,,30,0,1,,,,,,0,66,0
60880,set_tempo,,,,,10,1,0,,652173,,,,,,
60890,set_tempo,,,,,10,1,0,,638297,,,,,,
60892,note_on,,,,,52,0,2,,,,,,0,54,0
60896,note_on,,,,,26,0,1,,,,,,0,73,0
60900,note_on,,,,,4,0,1,,,,,,0,70,42
60900,set_tempo,,,,,10,1,0,,618556,,,,,,
60900,note_on,,,,,8,0,2,,,,,,0,61,36
60900,note_on,,,,,0,0,2,,,,,,0,58,36
60910,set_tempo,,,,,10,1,0,,612244,,,,,,
60920,set_tempo,,,,,10,1,0,,600000,,,,,,
60926,note_on,,,,,26,0,1,,,,,,0,70,0
60930,note_on,,,,,4,0,1,,,,,,0,68,42
60930,set_tempo,,,,,10,1,0,,588235,,,,,,
60945,note_on,,,,,0,0,2,,,,,,0,61,0
60945,note_on,,,,,45,0,2,,,,,,0,58,0
60950,set_tempo,,,,,20,1,0,,576923,,,,,,
60955,control_change,,,,,25,0,1,,,,64,0,0,,
60956,note_on,,,,,1,0,1,,,,,,0,68,0
60960,set_tempo,,,,,10,1,0,,566037,,,,,,
60960,note_on,,,,,4,0,1,,,,,,0,66,51
60960,note_on,,,,,15,0,2,,,,,,0,46,47
60970,set_tempo,,,,,10,1,0,,555555,,,,,,
60980,set_tempo,,,,,10,1,0,,545454,,,,,,
60990,note_on,,,,,30,0,1,,,,,,0,66,0
60990,note_on,,,,,0,0,1,,,,,,0,73,42
61010,set_tempo,,,,,30,1,0,,540540,,,,,,
61012,note_on,,,,,52,0,2,,,,,,0,46,0
61016,note_on,,,,,26,0,1,,,,,,0,73,0
61020,note_on,,,,,4,0,1,,,,,,0,70,42
61020,set_tempo,,,,,10,1,0,,535714,,,,,,
61020,note_on,,,,,0,0,2,,,,,,0,58,38
61020,note_on,,,,,8,0,2,,,,,,0,61,38
61040,set_tempo,,,,,20,1,0,,530973,,,,,,
61046,note_on,,,,,26,0,1,,,,,,0,70,0
61050,note_on,,,,,4,0,1,,,,,,0,66,49
61060,set_tempo,,,,,20,1,0,,526315,,,,,,
61065,note_on,,,,,0,0,2,,,,,,0,61,0
61065,note_on,,,,,45,0,2,,,,,,0,58,0
61076,note_on,,,,,26,0,1,,,,,,0,66,0
61080,note_on,,,,,4,0,1,,,,,,0,65,40
61080,note_on,,,,,15,0,2,,,,,,0,49,47
61090,set_tempo,,,,,30,1,0,,521739,,,,,,
61110,note_on,,,,,30,0,1,,,,,,0,65,0
61110,note_on,,,,,0,0,1,,,,,,0,73,41
61130,set_tempo,,,,,40,1,0,,517241,,,,,,
61132,note_on,,,,,52,0,2,,,,,,0,49,0
61136,note_on,,,,,26,0,1,,,,,,0,73,0
61140,note_on,,,,,0,0,2,,,,,,0,59,35
61140,note_on,,,,,8,0,2,,,,,,0,61,35
61140,note_on,,,,,4,0,1,,,,,,0,68,43
61166,note_on,,,,,26,0,1,,,,,,0,68,0
61170,note_on,,,,,4,0,1,,,,,,0,65,46
61185,note_on,,,,,0,0,2,,,,,,0,61,0
61185,note_on,,,,,45,0,2,,,,,,0,59,0
61196,note_on,,,,,26,0,1,,,,,,0,65,0
61200,note_on,,,,,15,0,2,,,,,,0,54,47
61200,note_on,,,,,4,0,1,,,,,,0,66,50
61230,note_on,,,,,0,0,1,,,,,,0,73,56
61230,note_on,,,,,30,0,1,,,,,,0,66,0
61252,note_on,,,,,52,0,2,,,,,,0,54,0
61256,note_on,,,,,26,0,1,,,,,,0,73,0
61260,note_on,,,,,0,0,2,,,,,,0,59,35
61260,note_on,,,,,4,0,1,,,,,,0,65,45
61260,note_on,,,,,8,0,2,,,,,,0,61,35
61286,note_on,,,,,26,0,1,,,,,,0,65,0
61290,note_on,,,,,4,0,1,,,,,,0,73,46
61305,note_on,,,,,45,0,2,,,,,,0,59,0
61305,note_on,,,,,0,0,2,,,,,,0,61,0
61316,note_on,,,,,26,0,1,,,,,,0,73,0
61320,note_on,,,,,0,0,2,,,,,,0,58,37
61320,note_on,,,,,15,0,2,,,,,,0,61,37
61320,note_on,,,,,4,0,1,,,,,,0,66,49
61346,note_on,,,,,26,0,1,,,,,,0,66,0
61350,note_on,,,,,4,0,1,,,,,,0,73,51
61365,note_on,,,,,45,0,2,,,,,,0,58,0
61365,note_on,,,,,0,0,2,,,,,,0,61,0
61376,note_on,,,,,26,0,1,,,,,,0,73,0
61380,note_on,,,,,15,0,2,,,,,,0,61,40
61380,note_on,,,,,4,0,1,,,,,,0,68,53
61380,note_on,,,,,0,0,2,,,,,,0,56,40
61406,note_on,,,,,26,0,1,,,,,,0,68,0
61410,note_on,,,,,4,0,1,,,,,,0,73,54
61425,note_on,,,,,45,0,2,,,,,,0,56,0
61425,note_on,,,,,0,0,2,,,,,,0,61,0
61436,note_on,,,,,26,0,1,,,,,,0,73,0
61440,note_on,,,,,4,0,1,,,,,,0,70,55
61440,note_on,,,,,0,0,2,,,,,,0,54,43
61440,note_on,,,,,15,0,2,,,,,,0,61,43
61470,note_on,,,,,30,0,1,,,,,,0,70,0
61470,note_on,,,,,0,0,1,,,,,,0,78,56
61485,note_on,,,,,45,0,2,,,,,,0,54,0
61485,note_on,,,,,0,0,2,,,,,,0,61,0
61496,note_on,,,,,26,0,1,,,,,,0,78,0
61500,note_on,,,,,4,0,1,,,,,,0,73,57
61500,note_on,,,,,15,0,2,,,,,,0,42,47
61526,note_on,,,,,26,0,1,,,,,,0,73,0
61530,note_on,,,,,4,0,1,,,,,,0,70,59
61545,note_on,,,,,45,0,2,,,,,,0,42,0
61556,note_on,,,,,26,0,1,,,,,,0,70,0
61560,note_on,,,,,4,0,1,,,,,,0,71,61
61560,control_change,,,,,0,0,1,,,,64,95,0,,
61560,note_on,,,,,15,0,2,,,,,,0,51,49
61590,note_on,,,,,0,0,1,,,,,,0,78,51
61590,note_on,,,,,30,0,1,,,,,,0,71,0
61605,note_on,,,,,45,0,2,,,,,,0,51,0
61616,note_on,,,,,26,0,1,,,,,,0,78,0
61620,note_on,,,,,0,0,2,,,,,,0,54,41
61620,note_on,,,,,15,0,2,,,,,,0,59,41
61620,note_on,,,,,4,0,1,,,,,,0,75,51
61646,note_on,,,,,26,0,1,,,,,,0,75,0
61650,note_on,,,,,4,0,1,,,,,,0,73,51
61665,note_on,,,,,45,0,2,,,,,,0,54,0
61665,note_on,,,,,0,0,2,,,,,,0,59,0
61676,note_on,,,,,26,0,1,,,,,,0,73,0
61680,note_on,,,,,15,0,2,,,,,,0,51,46
61680,note_on,,,,,4,0,1,,,,,,0,71,61
61680,control_change,,,,,0,0,1,,,,64,0,0,,
61706,note_on,,,,,26,0,1,,,,,,0,71,0
61710,note_on,,,,,4,0,1,,,,,,0,78,52
61725,note_on,,,,,45,0,2,,,,,,0,51,0
61730,set_tempo,,,,,600,1,0,,517241,,,,,,
61736,note_on,,,,,26,0,1,,,,,,0,78,0
61740,note_on,,,,,15,0,2,,,,,,0,59,38
61740,note_on,,,,,0,0,2,,,,,,0,54,38
61740,note_on,,,,,4,0,1,,,,,,0,75,52
61740,set_tempo,,,,,10,1,0,,521739,,,,,,
61766,note_on,,,,,26,0,1,,,,,,0,75,0
61770,note_on,,,,,4,0,1,,,,,,0,71,53
61770,set_tempo,,,,,30,1,0,,526315,,,,,,
61780,set_tempo,,,,,10,1,0,,530973,,,,,,
61785,note_on,,,,,0,0,2,,,,,,0,59,0
61785,note_on,,,,,45,0,2,,,,,,0,54,0
61796,note_on,,,,,26,0,1,,,,,,0,71,0
61800,note_on,,,,,4,0,1,,,,,,0,70,54
61800,note_on,,,,,15,0,2,,,,,,0,49,49
61830,note_on,,,,,30,0,1,,,,,,0,70,0
61830,note_on,,,,,0,0,1,,,,,,0,78,55
61840,set_tempo,,,,,60,1,0,,540540,,,,,,
61845,note_on,,,,,45,0,2,,,,,,0,49,0
61856,note_on,,,,,26,0,1,,,,,,0,78,0
61860,set_tempo,,,,,20,1,0,,545454,,,,,,
61860,note_on,,,,,4,0,1,,,,,,0,73,57
61860,note_on,,,,,15,0,2,,,,,,0,61,41
61860,note_on,,,,,0,0,2,,,,,,0,54,41
61870,set_tempo,,,,,10,1,0,,550458,,,,,,
61886,note_on,,,,,26,0,1,,,,,,0,73,0
61890,note_on,,,,,4,0,1,,,,,,0,70,57
61900,set_tempo,,,,,30,1,0,,555555,,,,,,
61905,note_on,,,,,45,0,2,,,,,,0,54,0
61905,note_on,,,,,0,0,2,,,,,,0,61,0
61912,note_on,,,,,22,0,1,,,,,,0,70,0
61920,note_on,,,,,15,0,2,,,,,,0,47,49
61920,set_tempo,,,,,20,1,0,,560747,,,,,,
61920,note_on,,,,,8,0,1,,,,,,0,70,59
61930,set_tempo,,,,,10,1,0,,550458,,,,,,
61950,note_on,,,,,0,0,1,,,,,,0,73,48
61950,note_on,,,,,30,0,1,,,,,,0,70,0
61950,set_tempo,,,,,20,1,0,,545454,,,,,,
61965,note_on,,,,,45,0,2,,,,,,0,47,0
61970,set_tempo,,,,,20,1,0,,540540,,,,,,
61976,note_on,,,,,26,0,1,,,,,,0,73,0
61980,note_on,,,,,0,0,2,,,,,,0,53,52
61980,note_on,,,,,4,0,1,,,,,,0,68,49
61980,note_on,,,,,15,0,2,,,,,,0,61,52
61990,set_tempo,,,,,20,1,0,,535714,,,,,,
62006,note_on,,,,,26,0,1,,,,,,0,68,0
62010,note_on,,,,,4,0,1,,,,,,0,73,50
62025,note_on,,,,,0,0,2,,,,,,0,61,0
62025,note_on,,,,,45,0,2,,,,,,0,53,0
62036,note_on,,,,,26,0,1,,,,,,0,73,0
62040,note_on,,,,,15,0,2,,,,,,0,44,62
62040,note_on,,,,,4,0,1,,,,,,0,66,52
62066,note_on,,,,,26,0,1,,,,,,0,66,0
62070,note_on,,,,,4,0,1,,,,,,0,73,52
62070,set_tempo,,,,,80,1,0,,526315,,,,,,
62085,note_on,,,,,45,0,2,,,,,,0,44,0
62096,note_on,,,,,26,0,1,,,,,,0,73,0
62100,note_on,,,,,4,0,1,,,,,,0,65,54
62100,note_on,,,,,0,0,2,,,,,,0,59,66
62100,note_on,,,,,15,0,2,,,,,,0,61,66
62126,note_on,,,,,26,0,1,,,,,,0,65,0
62130,note_on,,,,,4,0,1,,,,,,0,73,55
62145,note_on,,,,,0,0,2,,,,,,0,61,0
62145,note_on,,,,,45,0,2,,,,,,0,59,0
62150,set_tempo,,,,,80,1,0,,517241,,,,,,
62156,note_on,,,,,26,0,1,,,,,,0,73,0
62160,note_on,,,,,0,0,2,,,,,,0,54,70
62160,note_on,,,,,0,0,2,,,,,,0,58,70
62160,note_on,,,,,15,0,2,,,,,,0,61,70
62160,note_on,,,,,4,0,1,,,,,,0,66,56
62186,note_on,,,,,26,0,1,,,,,,0,66,0
62190,note_on,,,,,4,0,1,,,,,,0,73,56
62205,note_on,,,,,0,0,2,,,,,,0,61,0
62205,note_on,,,,,0,0,2,,,,,,0,58,0
62205,note_on,,,,,45,0,2,,,,,,0,54,0
62216,note_on,,,,,26,0,1,,,,,,0,73,0
62220,note_on,,,,,4,0,1,,,,,,0,67,54
62220,control_change,,,,,0,0,1,,,,64,95,0,,
62220,note_on,,,,,0,0,2,,,,,,0,61,74
62220,note_on,,,,,0,0,2,,,,,,0,58,74
62220,note_on,,,,,15,0,2,,,,,,0,51,74
62230,set_tempo,,,,,80,1,0,,500000,,,,,,
62250,note_on,,,,,30,0,1,,,,,,0,67,0
62250,note_on,,,,,0,0,1,,,,,,0,75,52
62270,set_tempo,,,,,40,1,0,,495867,,,,,,
62272,note_on,,,,,0,0,2,,,,,,0,58,0
62272,note_on,,,,,52,0,2,,,,,,0,61,0
62272,note_on,,,,,0,0,2,,,,,,0,51,0
62275,control_change,,,,,25,0,1,,,,64,0,0,,
62276,note_on,,,,,1,0,1,,,,,,0,75,0
62280,note_on,,,,,0,0,2,,,,,,0,56,77
62280,note_on,,,,,4,0,1,,,,,,0,68,61
62280,set_tempo,,,,,10,1,0,,491803,,,,,,
62280,control_change,,,,,0,0,1,,,,64,96,0,,
62280,note_on,,,,,8,0,2,,,,,,0,59,77
62300,set_tempo,,,,,20,1,0,,487804,,,,,,
62310,note_on,,,,,30,0,1,,,,,,0,68,0
62310,note_on,,,,,0,0,1,,,,,,0,75,66
62320,set_tempo,,,,,20,1,0,,483870,,,,,,
62325,note_on,,,,,45,0,2,,,,,,0,56,0
62325,note_on,,,,,0,0,2,,,,,,0,59,0
62330,set_tempo,,,,,10,1,0,,480000,,,,,,
62336,note_on,,,,,26,0,1,,,,,,0,75,0
62340,note_on,,,,,4,0,1,,,,,,0,70,69
62340,note_on,,,,,15,0,2,,,,,,0,63,76
62340,note_on,,,,,0,0,2,,,,,,0,61,76
62350,set_tempo,,,,,20,1,0,,476190,,,,,,
62360,set_tempo,,,,,10,1,0,,472440,,,,,,
62366,note_on,,,,,26,0,1,,,,,,0,70,0
62370,note_on,,,,,4,0,1,,,,,,0,78,78
62385,note_on,,,,,0,0,2,,,,,,0,63,0
62385,note_on,,,,,45,0,2,,,,,,0,61,0
62396,note_on,,,,,26,0,1,,,,,,0,78,0
62400,note_on,,,,,15,0,2,,,,,,0,59,82
62400,note_on,,,,,4,0,1,,,,,,0,71,82
62400,set_tempo,,,,,40,1,0,,468750,,,,,,
62400,note_on,,,,,0,0,2,,,,,,0,63,82
62426,note_on,,,,,26,0,1,,,,,,0,71,0
62430,note_on,,,,,4,0,1,,,,,,0,80,87
62440,set_tempo,,,,,40,1,0,,465116,,,,,,
62445,note_on,,,,,45,0,2,,,,,,0,63,0
62445,note_on,,,,,0,0,2,,,,,,0,59,0
62455,control_change,,,,,25,0,1,,,,64,0,0,,
62456,note_on,,,,,1,0,1,,,,,,0,80,0
62460,note_on,,,,,0,0,2,,,,,,0,58,88
62460,note_on,,,,,0,0,2,,,,,,0,55,88
62460,note_on,,,,,15,0,2,,,,,,0,63,88
62460,note_on,,,,,4,0,1,,,,,,0,75,94
62460,control_change,,,,,0,0,1,,,,64,96,0,,
62480,set_tempo,,,,,40,1,0,,461538,,,,,,
62486,note_on,,,,,26,0,1,,,,,,0,75,0
62490,note_on,,,,,4,0,1,,,,,,0,82,100
62505,note_on,,,,,45,0,2,,,,,,0,55,0
62505,note_on,,,,,0,0,2,,,,,,0,63,0
62505,note_on,,,,,0,0,2,,,,,,0,58,0
62516,note_on,,,,,26,0,1,,,,,,0,82,0
62520,note_on,,,,,0,0,2,,,,,,0,59,90
62520,note_on,,,,,4,0,1,,,,,,0,75,105
62520,note_on,,,,,0,0,2,,,,,,0,56,90
62520,note_on,,,,,15,0,2,,,,,,0,63,90
62540,set_tempo,,,,,60,1,0,,458015,,,,,,
62546,note_on,,,,,26,0,1,,,,,,0,75,0
62550,note_on,,,,,4,0,1,,,,,,0,83,109
62565,note_on,,,,,0,0,2,,,,,,0,59,0
62565,note_on,,,,,45,0,2,,,,,,0,56,0
62565,note_on,,,,,0,0,2,,,,,,0,63,0
62576,note_on,,,,,26,0,1,,,,,,0,83,0
62580,note_on,,,,,0,0,2,,,,,,0,55,95
62580,note_on,,,,,0,0,2,,,,,,0,61,95
62580,note_on,,,,,15,0,2,,,,,,0,63,95
62580,note_on,,,,,4,0,1,,,,,,0,78,114
62580,set_tempo,,,,,40,1,0,,454545,,,,,,
62600,set_tempo,,,,,20,1,0,,451127,,,,,,
62606,note_on,,,,,26,0,1,,,,,,0,78,0
62610,note_on,,,,,4,0,1,,,,,,0,87,119
62625,note_on,,,,,0,0,2,,,,,,0,61,0
62625,note_on,,,,,0,0,2,,,,,,0,63,0
62625,note_on,,,,,45,0,2,,,,,,0,55,0
62632,note_on,,,,,22,0,1,,,,,,0,87,0
62635,control_change,,,,,3,0,1,,,,64,0,0,,
62640,note_on,,,,,15,0,2,,,,,,0,63,101
62640,control_change,,,,,0,0,1,,,,64,95,0,,
62640,note_on,,,,,5,0,1,,,,,,0,80,124
62640,note_on,,,,,0,0,2,,,,,,0,59,101
62670,note_on,,,,,0,0,1,,,,,,0,92,124
62670,note_on,,,,,30,0,1,,,,,,0,80,0
62696,note_on,,,,,26,0,1,,,,,,0,92,0
62700,note_on,,,,,4,0,1,,,,,,0,87,119
62720,set_tempo,,,,,120,1,0,,447761,,,,,,
62726,note_on,,,,,26,0,1,,,,,,0,87,0
62730,note_on,,,,,4,0,1,,,,,,0,83,115
62750,set_tempo,,,,,30,1,0,,444444,,,,,,
62756,note_on,,,,,26,0,1,,,,,,0,83,0
62760,note_on,,,,,4,0,1,,,,,,0,80,113
62760,note_on,,,,,0,0,2,,,,,,0,63,0
62760,note_on,,,,,120,0,2,,,,,,0,59,0
62786,note_on,,,,,26,0,1,,,,,,0,80,0
62790,note_on,,,,,4,0,1,,,,,,0,75,109
62816,note_on,,,,,26,0,1,,,,,,0,75,0
62820,control_change,,,,,0,0,1,,,,64,0,0,,
62820,note_on,,,,,4,0,1,,,,,,0,71,108
62846,note_on,,,,,26,0,1,,,,,,0,71,0
62850,note_on,,,,,4,0,1,,,,,,0,68,109
62876,note_on,,,,,26,0,1,,,,,,0,68,0
62880,note_on,,,,,4,0,1,,,,,,0,63,113
62906,note_on,,,,,26,0,1,,,,,,0,63,0
62910,note_on,,,,,4,0,1,,,,,,0,59,116
62936,note_on,,,,,26,0,1,,,,,,0,59,0
62940,note_on,,,,,4,0,1,,,,,,0,63,119
62966,note_on,,,,,26,0,1,,,,,,0,63,0
62970,note_on,,,,,4,0,1,,,,,,0,68,121
62996,note_on,,,,,26,0,1,,,,,,0,68,0
63000,note_on,,,,,240,0,2,,,,,,0,47,125
63000,note_on,,,,,4,0,1,,,,,,0,71,127
63000,control_change,,,,,0,0,1,,,,64,96,0,,
63030,note_on,,,,,30,0,2,,,,,,0,47,0
63030,note_on,,,,,0,0,2,,,,,,0,59,113
63052,note_on,,,,,52,0,1,,,,,,0,71,0
63060,note_on,,,,,8,0,1,,,,,,0,75,105
63060,note_on,,,,,0,0,1,,,,,,0,80,105
63060,note_on,,,,,0,0,1,,,,,,0,87,105
63060,note_on,,,,,30,0,2,,,,,,0,59,0
63060,note_on,,,,,0,0,2,,,,,,0,56,118
63090,note_on,,,,,30,0,2,,,,,,0,56,0
63090,note_on,,,,,0,0,2,,,,,,0,51,121
63105,note_on,,,,,0,0,1,,,,,,0,80,0
63105,note_on,,,,,0,0,1,,,,,,0,75,0
63105,note_on,,,,,45,0,1,,,,,,0,87,0
63120,note_on,,,,,15,0,1,,,,,,0,87,107
63120,note_on,,,,,0,0,1,,,,,,0,75,107
63120,note_on,,,,,0,0,1,,,,,,0,80,107
63120,note_on,,,,,0,0,2,,,,,,0,47,123
63120,note_on,,,,,30,0,2,,,,,,0,51,0
63150,note_on,,,,,30,0,2,,,,,,0,47,0
63150,note_on,,,,,0,0,2,,,,,,0,44,115
63165,note_on,,,,,0,0,1,,,,,,0,87,0
63165,note_on,,,,,0,0,1,,,,,,0,80,0
63165,note_on,,,,,45,0,1,,,,,,0,75,0
63175,control_change,,,,,10,0,1,,,,64,0,0,,
63180,note_on,,,,,0,0,2,,,,,,0,39,120
63180,note_on,,,,,0,0,1,,,,,,0,75,114
63180,note_on,,,,,0,0,1,,,,,,0,80,114
63180,note_on,,,,,5,0,1,,,,,,0,87,114
63180,note_on,,,,,30,0,2,,,,,,0,44,0
63210,note_on,,,,,0,0,2,,,,,,0,35,125
63210,note_on,,,,,30,0,2,,,,,,0,39,0
63225,note_on,,,,,0,0,1,,,,,,0,80,0
63225,note_on,,,,,0,0,1,,,,,,0,87,0
63225,note_on,,,,,45,0,1,,,,,,0,75,0
63240,note_on,,,,,0,0,2,,,,,,0,47,127
63240,control_change,,,,,0,0,1,,,,64,95,0,,
63240,note_on,,,,,15,0,1,,,,,,0,88,126
63240,note_on,,,,,0,0,1,,,,,,0,80,126
63240,note_on,,,,,0,0,1,,,,,,0,76,126
63240,note_on,,,,,30,0,2,,,,,,0,35,0
63300,note_on,,,,,60,0,2,,,,,,0,47,0
63300,note_on,,,,,0,0,1,,,,,,0,80,0
63300,note_on,,,,,60,0,1,,,,,,0,76,0
63300,note_on,,,,,0,0,1,,,,,,0,88,0
63300,note_on,,,,,0,0,1,,,,,,0,75,91
63300,note_on,,,,,0,0,1,,,,,,0,80,91
63300,note_on,,,,,0,0,1,,,,,,0,87,91
63300,control_change,,,,,0,0,1,,,,64,0,0,,
63330,note_on,,,,,30,0,1,,,,,,0,87,0
63330,note_on,,,,,0,0,1,,,,,,0,80,0
63330,note_on,,,,,0,0,1,,,,,,0,75,0
63360,note_on,,,,,60,0,2,,,,,,0,46,77
63360,control_change,,,,,0,0,1,,,,64,96,0,,
63360,note_on,,,,,30,0,1,,,,,,0,66,61
63360,set_tempo,,,,,610,1,0,,491803,,,,,,
63380,set_tempo,,,,,20,1,0,,487804,,,,,,
63390,note_on,,,,,0,0,1,,,,,,0,75,66
63390,note_on,,,,,30,0,1,,,,,,0,66,0
63400,set_tempo,,,,,20,1,0,,483870,,,,,,
63405,note_on,,,,,45,0,2,,,,,,0,46,0
63410,set_tempo,,,,,10,1,0,,480000,,,,,,
63416,note_on,,,,,26,0,1,,,,,,0,75,0
63420,note_on,,,,,4,0,1,,,,,,0,69,69
63420,note_on,,,,,0,0,2,,,,,,0,63,76
63420,note_on,,,,,15,0,2,,,,,,0,59,76
63430,set_tempo,,,,,20,1,0,,476190,,,,,,
63440,set_tempo,,,,,10,1,0,,472440,,,,,,
63446,note_on,,,,,26,0,1,,,,,,0,69,0
63450,note_on,,,,,4,0,1,,,,,,0,77,78
63465,note_on,,,,,45,0,2,,,,,,0,63,0
63465,note_on,,,,,0,0,2,,,,,,0,59,0
63476,note_on,,,,,26,0,1,,,,,,0,77,0
63480,note_on,,,,,4,0,1,,,,,,0,70,82
63480,set_tempo,,,,,40,1,0,,468750,,,,,,
63480,note_on,,,,,15,0,2,,,,,,0,59,82
63480,note_on,,,,,0,0,2,,,,,,0,63,82
63506,note_on,,,,,26,0,1,,,,,,0,70,0
63510,note_on,,,,,4,0,1,,,,,,0,78,87
63520,set_tempo,,,,,40,1,0,,465116,,,,,,
63525,note_on,,,,,45,0,2,,,,,,0,63,0
63525,note_on,,,,,0,0,2,,,,,,0,59,0
63535,control_change,,,,,25,0,1,,,,64,0,0,,
63536,note_on,,,,,1,0,1,,,,,,0,78,0
63540,note_on,,,,,4,0,1,,,,,,0,77,94
63540,control_change,,,,,0,0,1,,,,64,96,0,,
63540,note_on,,,,,15,0,2,,,,,,0,47,88
63540,note_on,,,,,0,0,2,,,,,,0,51,88
63560,set_tempo,,,,,40,1,0,,461538,,,,,,
63566,note_on,,,,,26,0,1,,,,,,0,77,0
63570,note_on,,,,,4,0,1,,,,,,0,81,100
63585,note_on,,,,,45,0,2,,,,,,0,51,0
63585,note_on,,,,,0,0,2,,,,,,0,47,0
63596,note_on,,,,,26,0,1,,,,,,0,81,0
63600,note_on,,,,,4,0,1,,,,,,0,78,105
63600,note_on,,,,,0,0,2,,,,,,0,51,90
63600,note_on,,,,,15,0,2,,,,,,0,46,90
63620,set_tempo,,,,,60,1,0,,458015,,,,,,
63626,note_on,,,,,26,0,1,,,,,,0,78,0
63630,note_on,,,,,4,0,1,,,,,,0,82,109
63645,note_on,,,,,0,0,2,,,,,,0,46,0
63645,note_on,,,,,45,0,2,,,,,,0,51,0
63656,note_on,,,,,26,0,1,,,,,,0,82,0
63660,note_on,,,,,4,0,1,,,,,,0,81,114
63660,set_tempo,,,,,40,1,0,,454545,,,,,,
63660,note_on,,,,,15,0,2,,,,,,0,65,95
63660,note_on,,,,,0,0,2,,,,,,0,59,95
63660,note_on,,,,,0,0,2,,,,,,0,63,95
63680,set_tempo,,,,,20,1,0,,451127,,,,,,
63686,note_on,,,,,26,0,1,,,,,,0,81,0
63690,note_on,,,,,4,0,1,,,,,,0,89,119
63705,note_on,,,,,45,0,2,,,,,,0,63,0
63705,note_on,,,,,0,0,2,,,,,,0,59,0
63705,note_on,,,,,0,0,2,,,,,,0,65,0
63712,note_on,,,,,22,0,1,,,,,,0,89,0
63715,control_change,,,,,3,0,1,,,,64,0,0,,
63720,note_on,,,,,0,0,2,,,,,,0,63,101
63720,control_change,,,,,0,0,1,,,,64,95,0,,
63720,note_on,,,,,5,0,1,,,,,,0,82,124
63720,note_on,,,,,0,0,2,,,,,,0,58,101
63720,note_on,,,,,15,0,2,,,,,,0,66,101
63750,note_on,,,,,30,0,1,,,,,,0,82,0
63750,note_on,,,,,0,0,1,,,,,,0,94,124
63776,note_on,,,,,26,0,1,,,,,,0,94,0
63780,note_on,,,,,4,0,1,,,,,,0,90,119
63800,set_tempo,,,,,120,1,0,,447761,,,,,,
63806,note_on,,,,,26,0,1,,,,,,0,90,0
63810,note_on,,,,,4,0,1,,,,,,0,87,115
63830,set_tempo,,,,,30,1,0,,444444,,,,,,
63836,note_on,,,,,26,0,1,,,,,,0,87,0
63840,note_on,,,,,0,0,2,,,,,,0,66,0
63840,note_on,,,,,0,0,2,,,,,,0,63,0
63840,note_on,,,,,120,0,2,,,,,,0,58,0
63840,note_on,,,,,4,0,1,,,,,,0,82,113
63866,note_on,,,,,26,0,1,,,,,,0,82,0
63870,note_on,,,,,4,0,1,,,,,,0,78,109
63896,note_on,,,,,26,0,1,,,,,,0,78,0
63900,control_change,,,,,0,0,1,,,,64,0,0,,
63900,note_on,,,,,4,0,1,,,,,,0,75,108
63926,note_on,,,,,26,0,1,,,,,,0,75,0
63930,note_on,,,,,4,0,1,,,,,,0,70,109
63956,note_on,,,,,26,0,1,,,,,,0,70,0
63960,note_on,,,,,4,0,1,,,,,,0,66,113
63986,note_on,,,,,26,0,1,,,,,,0,66,0
63990,note_on,,,,,4,0,1,,,,,,0,63,116
64016,note_on,,,,,26,0,1,,,,,,0,63,0
64020,note_on,,,,,4,0,1,,,,,,0,66,119
64046,note_on,,,,,26,0,1,,,,,,0,66,0
64050,note_on,,,,,4,0,1,,,,,,0,70,121
64076,note_on,,,,,26,0,1,,,,,,0,70,0
64080,note_on,,,,,240,0,2,,,,,,0,46,125
64080,control_change,,,,,0,0,1,,,,64,96,0,,
64080,note_on,,,,,4,0,1,,,,,,0,75,127
64110,note_on,,,,,30,0,2,,,,,,0,46,0
64110,note_on,,,,,0,0,2,,,,,,0,58,113
64132,note_on,,,,,52,0,1,,,,,,0,75,0
64140,note_on,,,,,0,0,1,,,,,,0,75,105
64140,note_on,,,,,8,0,1,,,,,,0,82,105
64140,note_on,,,,,30,0,2,,,,,,0,58,0
64140,note_on,,,,,0,0,2,,,,,,0,54,118
64140,note_on,,,,,0,0,1,,,,,,0,87,105
64140,note_on,,,,,0,0,1,,,,,,0,78,105
64170,note_on,,,,,0,0,2,,,,,,0,51,121
64170,note_on,,,,,30,0,2,,,,,,0,54,0
64185,note_on,,,,,45,0,1,,,,,,0,87,0
64185,note_on,,,,,0,0,1,,,,,,0,75,0
64185,note_on,,,,,0,0,1,,,,,,0,78,0
64185,note_on,,,,,0,0,1,,,,,,0,82,0
64200,note_on,,,,,30,0,2,,,,,,0,51,0
64200,note_on,,,,,0,0,1,,,,,,0,75,107
64200,note_on,,,,,0,0,1,,,,,,0,87,107
64200,note_on,,,,,0,0,1,,,,,,0,78,107
64200,note_on,,,,,15,0,1,,,,,,0,82,107
64200,note_on,,,,,0,0,2,,,,,,0,46,123
64230,note_on,,,,,30,0,2,,,,,,0,46,0
64230,note_on,,,,,0,0,2,,,,,,0,42,115
64245,note_on,,,,,0,0,1,,,,,,0,78,0
64245,note_on,,,,,0,0,1,,,,,,0,82,0
64245,note_on,,,,,0,0,1,,,,,,0,87,0
64245,note_on,,,,,45,0,1,,,,,,0,75,0
64255,control_change,,,,,10,0,1,,,,64,0,0,,
64260,note_on,,,,,0,0,1,,,,,,0,75,114
64260,note_on,,,,,0,0,1,,,,,,0,87,114
64260,note_on,,,,,5,0,1,,,,,,0,82,114
64260,note_on,,,,,0,0,1,,,,,,0,78,114
64260,note_on,,,,,30,0,2,,,,,,0,42,0
64260,note_on,,,,,0,0,2,,,,,,0,39,120
64270,set_tempo,,,,,440,1,0,,454545,,,,,,
64290,note_on,,,,,0,0,2,,,,,,0,34,125
64290,set_tempo,,,,,20,1,0,,458015,,,,,,
64290,note_on,,,,,30,0,2,,,,,,0,39,0
64305,note_on,,,,,45,0,1,,,,,,0,75,0
64305,note_on,,,,,0,0,1,,,,,,0,82,0
64305,note_on,,,,,0,0,1,,,,,,0,78,0
64305,note_on,,,,,0,0,1,,,,,,0,87,0
64320,note_on,,,,,0,0,1,,,,,,0,88,126
64320,note_on,,,,,0,0,1,,,,,,0,76,126
64320,note_on,,,,,15,0,1,,,,,,0,82,126
64320,control_change,,,,,0,0,1,,,,64,95,0,,
64320,note_on,,,,,0,0,1,,,,,,0,78,126
64320,note_on,,,,,0,0,2,,,,,,0,46,127
64320,note_on,,,,,30,0,2,,,,,,0,34,0
64330,set_tempo,,,,,40,1,0,,461538,,,,,,
64340,set_tempo,,,,,10,1,0,,465116,,,,,,
64370,set_tempo,,,,,30,1,0,,468750,,,,,,
64380,note_on,,,,,60,0,1,,,,,,0,76,0
64380,note_on,,,,,60,0,2,,,,,,0,46,0
64380,note_on,,,,,0,0,1,,,,,,0,82,0
64380,note_on,,,,,0,0,1,,,,,,0,78,0
64380,control_change,,,,,0,0,1,,,,64,0,0,,
64380,note_on,,,,,0,0,1,,,,,,0,87,91
64380,note_on,,,,,0,0,1,,,,,,0,75,91
64380,note_on,,,,,0,0,1,,,,,,0,88,0
64380,note_on,,,,,0,0,1,,,,,,0,78,91
64380,note_on,,,,,0,0,1,,,,,,0,82,91
64410,note_on,,,,,0,0,1,,,,,,0,78,0
64410,note_on,,,,,0,0,1,,,,,,0,75,0
64410,note_on,,,,,30,0,1,,,,,,0,87,0
64410,note_on,,,,,0,0,1,,,,,,0,82,0
64440,control_change,,,,,30,0,1,,,,64,95,0,,
64440,note_on,,,,,0,0,2,,,,,,0,45,116
64440,note_on,,,,,60,0,2,,,,,,0,33,116
64460,set_tempo,,,,,90,1,0,,472440,,,,,,
64480,set_tempo,,,,,20,1,0,,476190,,,,,,
64485,note_on,,,,,45,0,2,,,,,,0,45,0
64485,note_on,,,,,0,0,2,,,,,,0,33,0
64500,note_on,,,,,0,0,1,,,,,,0,77,98
64500,note_on,,,,,0,0,1,,,,,,0,75,98
64500,note_on,,,,,0,0,1,,,,,,0,57,98
64500,note_on,,,,,0,0,1,,,,,,0,63,98
64500,note_on,,,,,60,0,1,,,,,,0,65,98
64500,note_on,,,,,0,0,1,,,,,,0,72,98
64540,set_tempo,,,,,60,1,0,,480000,,,,,,
64545,note_on,,,,,0,0,1,,,,,,0,63,0
64545,note_on,,,,,0,0,1,,,,,,0,65,0
64545,note_on,,,,,0,0,1,,,,,,0,77,0
64545,note_on,,,,,45,0,1,,,,,,0,75,0
64545,note_on,,,,,0,0,1,,,,,,0,72,0
64545,note_on,,,,,0,0,1,,,,,,0,57,0
64560,note_on,,,,,15,0,1,,,,,,0,65,105
64560,note_on,,,,,0,0,1,,,,,,0,63,105
64560,note_on,,,,,0,0,1,,,,,,0,57,105
64560,note_on,,,,,0,0,1,,,,,,0,72,105
64560,note_on,,,,,0,0,1,,,,,,0,75,105
64560,note_on,,,,,0,0,1,,,,,,0,77,105
64580,set_tempo,,,,,40,1,0,,483870,,,,,,
64605,note_on,,,,,0,0,1,,,,,,0,77,0
64605,note_on,,,,,45,0,1,,,,,,0,75,0
64605,note_on,,,,,0,0,1,,,,,,0,63,0
64605,note_on,,,,,0,0,1,,,,,,0,57,0
64605,note_on,,,,,0,0,1,,,,,,0,65,0
64605,note_on,,,,,0,0,1,,,,,,0,72,0
64620,note_on,,,,,0,0,1,,,,,,0,63,111
64620,note_on,,,,,0,0,1,,,,,,0,57,111
64620,note_on,,,,,0,0,1,,,,,,0,72,111
64620,note_on,,,,,0,0,1,,,,,,0,77,111
64620,note_on,,,,,0,0,1,,,,,,0,75,111
64620,note_on,,,,,15,0,1,,,,,,0,65,111
64625,control_change,,,,,5,0,1,,,,64,0,0,,
64665,note_on,,,,,40,0,1,,,,,,0,75,0
64665,note_on,,,,,0,0,1,,,,,,0,77,0
64665,note_on,,,,,0,0,1,,,,,,0,57,0
64665,note_on,,,,,0,0,1,,,,,,0,65,0
64665,note_on,,,,,0,0,1,,,,,,0,72,0
64665,note_on,,,,,0,0,1,,,,,,0,63,0
64670,set_tempo,,,,,90,1,0,,487804,,,,,,
64680,note_on,,,,,15,0,1,,,,,,0,78,118
64680,note_on,,,,,0,0,1,,,,,,0,72,118
64680,note_on,,,,,0,0,1,,,,,,0,75,118
64680,control_change,,,,,0,0,1,,,,64,96,0,,
64680,note_on,,,,,0,0,2,,,,,,0,57,110
64680,note_on,,,,,0,0,2,,,,,,0,63,110
64680,note_on,,,,,195,0,2,,,,,,0,66,110
64700,set_tempo,,,,,30,1,0,,491803,,,,,,
64730,set_tempo,,,,,30,1,0,,495867,,,,,,
64740,note_on,,,,,0,0,1,,,,,,0,75,87
64740,note_on,,,,,0,0,1,,,,,,0,78,0
64740,note_on,,,,,0,0,1,,,,,,0,72,0
64740,control_change,,,,,0,0,1,,,,64,0,0,,
64740,note_on,,,,,60,0,1,,,,,,0,75,0
64750,set_tempo,,,,,20,1,0,,495867,,,,,,
64770,note_on,,,,,0,0,2,,,,,,0,63,0
64770,note_on,,,,,30,0,1,,,,,,0,75,0
64770,note_on,,,,,90,0,2,,,,,,0,57,0
64770,note_on,,,,,0,0,2,,,,,,0,66,0
64770,set_tempo,,,,,20,1,0,,500000,,,,,,
64780,set_tempo,,,,,10,1,0,,504201,,,,,,
64800,control_change,,,,,30,0,1,,,,64,96,0,,
64800,set_tempo,,,,,20,1,0,,508474,,,,,,
64800,note_on,,,,,30,0,2,,,,,,0,33,117
64820,set_tempo,,,,,20,1,0,,512820,,,,,,
64830,set_tempo,,,,,10,1,0,,517241,,,,,,
64845,note_on,,,,,45,0,2,,,,,,0,33,0
64860,note_on,,,,,0,0,2,,,,,,0,51,78
64860,note_on,,,,,0,0,2,,,,,,0,53,78
64860,note_on,,,,,0,0,1,,,,,,0,60,70
64860,note_on,,,,,60,0,1,,,,,,0,63,70
64860,note_on,,,,,15,0,2,,,,,,0,45,78
64860,note_on,,,,,0,0,1,,,,,,0,65,70
64860,set_tempo,,,,,30,1,0,,521739,,,,,,
64880,set_tempo,,,,,20,1,0,,526315,,,,,,
64900,set_tempo,,,,,20,1,0,,530973,,,,,,
64905,note_on,,,,,0,0,1,,,,,,0,63,0
64905,note_on,,,,,45,0,1,,,,,,0,65,0
64905,note_on,,,,,45,0,2,,,,,,0,53,0
64905,note_on,,,,,0,0,2,,,,,,0,51,0
64905,note_on,,,,,0,0,2,,,,,,0,45,0
64905,note_on,,,,,0,0,1,,,,,,0,60,0
64915,control_change,,,,,10,0,1,,,,64,0,0,,
64920,note_on,,,,,15,0,2,,,,,,0,45,68
64920,note_on,,,,,0,0,2,,,,,,0,51,68
64920,note_on,,,,,0,0,2,,,,,,0,53,68
64920,set_tempo,,,,,20,1,0,,535714,,,,,,
64920,note_on,,,,,5,0,1,,,,,,0,60,59
64920,note_on,,,,,0,0,1,,,,,,0,63,59
64920,note_on,,,,,0,0,1,,,,,,0,65,59
64940,set_tempo,,,,,20,1,0,,540540,,,,,,
64960,set_tempo,,,,,20,1,0,,545454,,,,,,
64965,note_on,,,,,45,0,2,,,,,,0,53,0
64965,note_on,,,,,0,0,1,,,,,,0,60,0
64965,note_on,,,,,45,0,1,,,,,,0,65,0
64965,note_on,,,,,0,0,1,,,,,,0,63,0
64965,note_on,,,,,0,0,2,,,,,,0,51,0
64965,note_on,,,,,0,0,2,,,,,,0,45,0
64980,note_on,,,,,0,0,1,,,,,,0,65,50
64980,note_on,,,,,0,0,1,,,,,,0,63,50
64980,note_on,,,,,15,0,1,,,,,,0,60,50
64980,note_on,,,,,15,0,2,,,,,,0,45,57
64980,note_on,,,,,0,0,2,,,,,,0,53,57
64980,note_on,,,,,0,0,2,,,,,,0,51,57
64980,set_tempo,,,,,20,1,0,,550458,,,,,,
64990,set_tempo,,,,,10,1,0,,555555,,,,,,
65020,set_tempo,,,,,30,1,0,,560747,,,,,,
65025,note_on,,,,,45,0,2,,,,,,0,53,0
65025,note_on,,,,,0,0,2,,,,,,0,51,0
65025,note_on,,,,,45,0,1,,,,,,0,65,0
65025,note_on,,,,,0,0,1,,,,,,0,63,0
65025,note_on,,,,,0,0,1,,,,,,0,60,0
65025,note_on,,,,,0,0,2,,,,,,0,45,0
65040,note_on,,,,,0,0,2,,,,,,0,45,63
65040,control_change,,,,,0,0,1,,,,64,94,0,,
65040,note_on,,,,,15,0,2,,,,,,0,54,63
65040,note_on,,,,,15,0,1,,,,,,0,66,58
65040,note_on,,,,,0,0,1,,,,,,0,63,58
65040,note_on,,,,,0,0,1,,,,,,0,60,58
65040,note_on,,,,,0,0,2,,,,,,0,51,63
65050,set_tempo,,,,,30,1,0,,566037,,,,,,
65060,set_tempo,,,,,10,1,0,,571428,,,,,,
65100,note_on,,,,,60,0,1,,,,,,0,60,0
65100,note_on,,,,,0,0,1,,,,,,0,66,0
65100,note_on,,,,,0,0,1,,,,,,0,63,0
65100,control_change,,,,,0,0,1,,,,64,0,0,,
65100,note_on,,,,,0,0,1,,,,,,0,72,46
65130,note_on,,,,,30,0,1,,,,,,0,72,0
65130,note_on,,,,,0,0,2,,,,,,0,54,0
65130,note_on,,,,,0,0,2,,,,,,0,51,0
65130,note_on,,,,,90,0,2,,,,,,0,45,0
65130,set_tempo,,,,,70,1,0,,800000,,,,,,
65160,note_on,,,,,30,0,1,,,,,,0,63,53
65160,note_on,,,,,0,0,1,,,,,,0,55,53
65160,control_change,,,,,0,0,1,,,,64,96,0,,
65160,set_tempo,,,,,30,1,0,,731707,,,,,,
65220,note_on,,,,,90,0,2,,,,,,0,46,44
65220,set_tempo,,,,,60,1,0,,625000,,,,,,
65265,note_on,,,,,45,0,2,,,,,,0,46,0
65270,set_tempo,,,,,50,1,0,,566037,,,,,,
65280,note_on,,,,,15,0,2,,,,,,0,46,49
65325,note_on,,,,,45,0,2,,,,,,0,46,0
65340,note_on,,,,,15,0,2,,,,,,0,46,52
65385,note_on,,,,,45,0,2,,,,,,0,46,0
65395,control_change,,,,,235,0,1,,,,64,0,0,,
65400,control_change,,,,,0,0,1,,,,64,95,0,,
65400,note_on,,,,,0,0,1,,,,,,0,63,0
65400,note_on,,,,,0,0,1,,,,,,0,62,56
65400,note_on,,,,,0,0,1,,,,,,0,56,40
65400,note_on,,,,,5,0,1,,,,,,0,55,0
65400,set_tempo,,,,,130,1,0,,645161,,,,,,
65400,note_on,,,,,15,0,2,,,,,,0,46,57
65430,note_on,,,,,30,0,1,,,,,,0,56,0
65430,note_on,,,,,0,0,1,,,,,,0,58,49
65445,note_on,,,,,45,0,2,,,,,,0,46,0
65460,note_on,,,,,30,0,1,,,,,,0,58,0
65460,note_on,,,,,0,0,1,,,,,,0,60,54
65460,note_on,,,,,15,0,2,,,,,,0,34,36
65490,note_on,,,,,30,0,2,,,,,,0,34,0
65490,note_on,,,,,30,0,1,,,,,,0,60,0
65490,note_on,,,,,0,0,1,,,,,,0,56,50
65505,note_on,,,,,15,0,1,,,,,,0,62,0
65515,control_change,,,,,10,0,1,,,,64,0,0,,
65520,note_on,,,,,0,0,1,,,,,,0,63,50
65520,note_on,,,,,0,0,1,,,,,,0,55,40
65520,note_on,,,,,5,0,1,,,,,,0,56,0
65520,control_change,,,,,0,0,1,,,,64,95,0,,
65520,note_on,,,,,30,0,2,,,,,,0,39,31
65530,set_tempo,,,,,130,1,0,,740740,,,,,,
65568,note_on,,,,,48,0,2,,,,,,0,39,0
65580,control_change,,,,,60,0,1,,,,64,0,0,,
65580,set_tempo,,,,,50,1,0,,588235,,,,,,
65580,note_on,,,,,12,0,2,,,,,,0,50,39
65620,set_tempo,,,,,40,1,0,,576923,,,,,,
65640,set_tempo,,,,,20,1,0,,571428,,,,,,
65640,note_on,,,,,0,0,2,,,,,,0,51,36
65640,note_on,,,,,60,0,2,,,,,,0,50,0
65640,note_on,,,,,0,0,1,,,,,,0,55,0
65640,note_on,,,,,60,0,1,,,,,,0,63,0
65670,set_tempo,,,,,30,1,0,,566037,,,,,,
65680,set_tempo,,,,,10,1,0,,560747,,,,,,
65688,note_on,,,,,48,0,2,,,,,,0,51,0
65690,set_tempo,,,,,10,1,0,,555555,,,,,,
65700,control_change,,,,,0,0,1,,,,64,96,0,,
65700,note_on,,,,,12,0,2,,,,,,0,46,30
65700,note_on,,,,,0,0,1,,,,,,0,70,33
65700,note_on,,,,,60,0,1,,,,,,0,82,33
65700,note_on,,,,,0,0,2,,,,,,0,51,30
65748,note_on,,,,,48,0,1,,,,,,0,70,0
65748,note_on,,,,,48,0,2,,,,,,0,51,0
65748,note_on,,,,,0,0,2,,,,,,0,46,0
65748,note_on,,,,,0,0,1,,,,,,0,82,0
65760,note_on,,,,,0,0,2,,,,,,0,51,30
65760,note_on,,,,,12,0,2,,,,,,0,44,30
65760,note_on,,,,,0,0,1,,,,,,0,82,37
65760,note_on,,,,,12,0,1,,,,,,0,70,37
65808,note_on,,,,,48,0,1,,,,,,0,82,0
65808,note_on,,,,,0,0,1,,,,,,0,70,0
65808,note_on,,,,,48,0,2,,,,,,0,51,0
65808,note_on,,,,,0,0,2,,,,,,0,44,0
65820,note_on,,,,,12,0,1,,,,,,0,82,42
65820,note_on,,,,,0,0,1,,,,,,0,70,42
65820,note_on,,,,,12,0,2,,,,,,0,43,32
65820,note_on,,,,,0,0,2,,,,,,0,51,32
65868,note_on,,,,,48,0,1,,,,,,0,70,0
65868,note_on,,,,,48,0,2,,,,,,0,51,0
65868,note_on,,,,,0,0,2,,,,,,0,43,0
65868,note_on,,,,,0,0,1,,,,,,0,82,0
65870,control_change,,,,,2,0,1,,,,64,0,0,,
65880,set_tempo,,,,,190,1,0,,550458,,,,,,
65880,note_on,,,,,12,0,2,,,,,,0,44,39
65880,note_on,,,,,0,0,2,,,,,,0,51,39
65880,note_on,,,,,10,0,1,,,,,,0,83,44
65880,note_on,,,,,0,0,1,,,,,,0,71,44
65880,control_change,,,,,0,0,1,,,,64,96,0,,
65920,set_tempo,,,,,40,1,0,,545454,,,,,,
65940,note_on,,,,,0,0,2,,,,,,0,44,0
65940,note_on,,,,,60,0,2,,,,,,0,51,0
65940,note_on,,,,,0,0,2,,,,,,0,51,33
65940,note_on,,,,,0,0,2,,,,,,0,43,33
65980,set_tempo,,,,,60,1,0,,540540,,,,,,
66000,note_on,,,,,120,0,1,,,,,,0,71,0
66000,note_on,,,,,0,0,1,,,,,,0,83,0
66000,note_on,,,,,0,0,1,,,,,,0,75,46
66000,note_on,,,,,0,0,1,,,,,,0,87,46
66000,control_change,,,,,0,0,1,,,,64,0,0,,
66000,note_on,,,,,0,0,2,,,,,,0,51,43
66000,note_on,,,,,0,0,2,,,,,,0,44,43
66000,note_on,,,,,0,0,2,,,,,,0,43,0
66000,note_on,,,,,60,0,2,,,,,,0,51,0
66000,set_tempo,,,,,20,1,0,,535714,,,,,,
66040,set_tempo,,,,,40,1,0,,530973,,,,,,
66060,note_on,,,,,0,0,2,,,,,,0,44,0
66060,note_on,,,,,60,0,2,,,,,,0,51,0
66060,note_on,,,,,0,0,2,,,,,,0,51,38
66060,note_on,,,,,0,0,2,,,,,,0,46,38
66080,set_tempo,,,,,40,1,0,,526315,,,,,,
66120,note_on,,,,,0,0,2,,,,,,0,51,37
66120,note_on,,,,,0,0,2,,,,,,0,47,37
66120,note_on,,,,,0,0,2,,,,,,0,46,0
66120,note_on,,,,,60,0,2,,,,,,0,51,0
66130,set_tempo,,,,,50,1,0,,521739,,,,,,
66160,set_tempo,,,,,30,1,0,,517241,,,,,,
66180,note_on,,,,,0,0,2,,,,,,0,50,33
66180,note_on,,,,,0,0,2,,,,,,0,47,0
66180,note_on,,,,,60,0,2,,,,,,0,51,0
66180,note_on,,,,,0,0,1,,,,,,0,75,0
66180,note_on,,,,,0,0,2,,,,,,0,51,33
66180,note_on,,,,,180,0,1,,,,,,0,87,0
66190,set_tempo,,,,,30,1,0,,512820,,,,,,
66210,note_on,,,,,30,0,1,,,,,,0,71,36
66210,note_on,,,,,0,0,1,,,,,,0,83,36
66240,note_on,,,,,30,0,1,,,,,,0,83,0
66240,control_change,,,,,0,0,1,,,,64,95,0,,
66240,note_on,,,,,0,0,1,,,,,,0,71,44
66240,note_on,,,,,0,0,1,,,,,,0,83,44
66240,note_on,,,,,0,0,1,,,,,,0,71,0
66240,note_on,,,,,60,0,2,,,,,,0,51,0
66240,note_on,,,,,0,0,2,,,,,,0,50,0
66240,note_on,,,,,0,0,2,,,,,,0,51,39
66300,note_on,,,,,0,0,2,,,,,,0,51,35
66300,note_on,,,,,60,0,2,,,,,,0,51,0
66300,note_on,,,,,0,0,2,,,,,,0,53,35
66360,note_on,,,,,0,0,1,,,,,,0,70,33
66360,note_on,,,,,0,0,1,,,,,,0,82,33
66360,note_on,,,,,60,0,2,,,,,,0,53,0
66360,note_on,,,,,0,0,2,,,,,,0,51,0
66360,note_on,,,,,0,0,2,,,,,,0,51,33
66360,note_on,,,,,0,0,2,,,,,,0,55,33
66360,note_on,,,,,120,0,1,,,,,,0,83,0
66360,note_on,,,,,0,0,1,,,,,,0,71,0
66365,control_change,,,,,5,0,1,,,,64,0,0,,
66420,note_on,,,,,0,0,2,,,,,,0,56,29
66420,note_on,,,,,0,0,2,,,,,,0,51,29
66420,note_on,,,,,0,0,2,,,,,,0,51,0
66420,note_on,,,,,60,0,2,,,,,,0,55,0
66480,note_on,,,,,60,0,2,,,,,,0,56,0
66480,note_on,,,,,0,0,2,,,,,,0,51,0
66480,note_on,,,,,0,0,2,,,,,,0,51,36
66480,note_on,,,,,0,0,2,,,,,,0,55,36
66490,set_tempo,,,,,300,1,0,,517241,,,,,,
66510,note_on,,,,,0,0,1,,,,,,0,82,0
66510,note_on,,,,,145,0,1,,,,,,0,70,0
66532,note_on,,,,,52,0,2,,,,,,0,55,0
66532,note_on,,,,,0,0,2,,,,,,0,51,0
66540,note_on,,,,,8,0,2,,,,,,0,51,46
66540,note_on,,,,,0,0,2,,,,,,0,59,46
66540,note_on,,,,,30,0,1,,,,,,0,69,39
66540,note_on,,,,,0,0,1,,,,,,0,81,39
66550,set_tempo,,,,,60,1,0,,521739,,,,,,
66600,note_on,,,,,60,0,2,,,,,,0,59,0
66600,note_on,,,,,60,0,1,,,,,,0,81,0
66600,note_on,,,,,0,0,1,,,,,,0,69,0
66600,note_on,,,,,0,0,1,,,,,,0,70,41
66600,note_on,,,,,0,0,1,,,,,,0,82,41
66600,note_on,,,,,0,0,2,,,,,,0,51,0
66600,note_on,,,,,0,0,2,,,,,,0,50,31
66600,control_change,,,,,0,0,1,,,,64,95,0,,
66600,note_on,,,,,0,0,2,,,,,,0,58,31
66660,set_tempo,,,,,110,1,0,,530973,,,,,,
66660,note_on,,,,,60,0,2,,,,,,0,50,0
66660,note_on,,,,,0,0,2,,,,,,0,52,34
66720,note_on,,,,,60,0,2,,,,,,0,52,0
66720,control_change,,,,,0,0,1,,,,64,0,0,,
66720,note_on,,,,,0,0,1,,,,,,0,80,35
66720,note_on,,,,,120,0,1,,,,,,0,82,0
66720,note_on,,,,,0,0,1,,,,,,0,70,0
66720,note_on,,,,,0,0,1,,,,,,0,68,35
66720,note_on,,,,,0,0,2,,,,,,0,53,34
66780,note_on,,,,,0,0,2,,,,,,0,45,39
66780,note_on,,,,,60,0,2,,,,,,0,53,0
66780,note_on,,,,,0,0,1,,,,,,0,67,35
66780,note_on,,,,,0,0,1,,,,,,0,68,0
66780,note_on,,,,,60,0,1,,,,,,0,80,0
66780,set_tempo,,,,,120,1,0,,540540,,,,,,
66780,note_on,,,,,0,0,1,,,,,,0,79,35
66840,note_on,,,,,60,0,1,,,,,,0,79,0
66840,note_on,,,,,0,0,1,,,,,,0,67,0
66840,control_change,,,,,0,0,1,,,,64,96,0,,
66840,note_on,,,,,0,0,1,,,,,,0,80,36
66840,note_on,,,,,0,0,1,,,,,,0,68,36
66840,note_on,,,,,0,0,1,,,,,,0,74,36
66840,note_on,,,,,60,0,2,,,,,,0,45,0
66840,note_on,,,,,0,0,2,,,,,,0,58,0
66840,note_on,,,,,0,0,2,,,,,,0,58,39
66840,note_on,,,,,0,0,2,,,,,,0,46,39
66860,set_tempo,,,,,80,1,0,,550458,,,,,,
66945,control_change,,,,,105,0,1,,,,64,0,0,,
66960,note_on,,,,,0,0,1,,,,,,0,79,40
66960,note_on,,,,,0,0,2,,,,,,0,51,34
66960,note_on,,,,,120,0,2,,,,,,0,46,0
66960,note_on,,,,,0,0,1,,,,,,0,75,40
66960,note_on,,,,,0,0,1,,,,,,0,67,40
66960,note_on,,,,,0,0,1,,,,,,0,68,0
66960,note_on,,,,,0,0,1,,,,,,0,74,0
66960,control_change,,,,,0,0,1,,,,64,95,0,,
66960,note_on,,,,,15,0,1,,,,,,0,80,0
66980,set_tempo,,,,,120,1,0,,560747,,,,,,
67010,note_on,,,,,50,0,2,,,,,,0,51,0
67020,control_change,,,,,60,0,1,,,,64,0,0,,
67020,note_on,,,,,10,0,2,,,,,,0,58,0
67020,note_on,,,,,0,0,2,,,,,,0,50,39
67080,note_on,,,,,0,0,2,,,,,,0,51,36
67080,note_on,,,,,60,0,2,,,,,,0,50,0
67110,note_on,,,,,0,0,1,,,,,,0,75,0
67110,note_on,,,,,0,0,1,,,,,,0,67,0
67110,note_on,,,,,90,0,1,,,,,,0,79,0
67120,set_tempo,,,,,140,1,0,,571428,,,,,,
67128,note_on,,,,,48,0,2,,,,,,0,51,0
67140,note_on,,,,,0,0,1,,,,,,0,58,33
67140,control_change,,,,,0,0,1,,,,64,95,0,,
67140,set_tempo,,,,,20,1,0,,555555,,,,,,
67140,note_on,,,,,12,0,2,,,,,,0,46,30
67140,note_on,,,,,0,0,2,,,,,,0,51,30
67140,note_on,,,,,30,0,1,,,,,,0,70,33
67188,note_on,,,,,48,0,1,,,,,,0,58,0
67188,note_on,,,,,0,0,1,,,,,,0,70,0
67188,note_on,,,,,48,0,2,,,,,,0,51,0
67188,note_on,,,,,0,0,2,,,,,,0,46,0
67200,note_on,,,,,12,0,2,,,,,,0,44,30
67200,note_on,,,,,0,0,1,,,,,,0,70,37
67200,note_on,,,,,0,0,2,,,,,,0,51,30
67200,note_on,,,,,12,0,1,,,,,,0,58,37
67248,note_on,,,,,48,0,1,,,,,,0,70,0
67248,note_on,,,,,48,0,2,,,,,,0,51,0
67248,note_on,,,,,0,0,2,,,,,,0,44,0
67248,note_on,,,,,0,0,1,,,,,,0,58,0
67260,note_on,,,,,12,0,1,,,,,,0,70,42
67260,note_on,,,,,0,0,1,,,,,,0,58,42
67260,note_on,,,,,12,0,2,,,,,,0,43,32
67260,note_on,,,,,0,0,2,,,,,,0,51,32
67308,note_on,,,,,48,0,1,,,,,,0,58,0
67308,note_on,,,,,0,0,1,,,,,,0,70,0
67308,note_on,,,,,48,0,2,,,,,,0,51,0
67308,note_on,,,,,0,0,2,,,,,,0,43,0
67315,control_change,,,,,7,0,1,,,,64,0,0,,
67320,set_tempo,,,,,180,1,0,,550458,,,,,,
67320,note_on,,,,,12,0,2,,,,,,0,44,39
67320,note_on,,,,,0,0,2,,,,,,0,51,39
67320,note_on,,,,,5,0,1,,,,,,0,71,44
67320,note_on,,,,,0,0,1,,,,,,0,59,44
67320,control_change,,,,,0,0,1,,,,64,96,0,,
67360,set_tempo,,,,,40,1,0,,545454,,,,,,
67380,note_on,,,,,0,0,2,,,,,,0,51,33
67380,note_on,,,,,0,0,2,,,,,,0,43,33
67380,note_on,,,,,0,0,2,,,,,,0,44,0
67380,note_on,,,,,60,0,2,,,,,,0,51,0
67420,set_tempo,,,,,60,1,0,,540540,,,,,,
67440,set_tempo,,,,,20,1,0,,535714,,,,,,
67440,note_on,,,,,0,0,2,,,,,,0,43,0
67440,note_on,,,,,0,0,2,,,,,,0,44,43
67440,note_on,,,,,0,0,1,,,,,,0,63,43
67440,note_on,,,,,0,0,1,,,,,,0,75,43
67440,note_on,,,,,0,0,2,,,,,,0,51,43
67440,note_on,,,,,60,0,2,,,,,,0,51,0
67440,note_on,,,,,120,0,1,,,,,,0,59,0
67440,note_on,,,,,0,0,1,,,,,,0,71,0
67450,control_change,,,,,10,0,1,,,,64,0,0,,
67480,set_tempo,,,,,40,1,0,,530973,,,,,,
67500,note_on,,,,,0,0,2,,,,,,0,44,0
67500,note_on,,,,,0,0,1,,,,,,0,68,40
67500,note_on,,,,,60,0,2,,,,,,0,51,0
67500,note_on,,,,,50,0,1,,,,,,0,75,0
67500,note_on,,,,,0,0,1,,,,,,0,63,0
67500,note_on,,,,,0,0,2,,,,,,0,46,38
67500,note_on,,,,,0,0,2,,,,,,0,51,38
67500,note_on,,,,,0,0,1,,,,,,0,80,40
67520,set_tempo,,,,,40,1,0,,526315,,,,,,
67560,note_on,,,,,60,0,1,,,,,,0,80,0
67560,note_on,,,,,0,0,1,,,,,,0,68,0
67560,note_on,,,,,60,0,2,,,,,,0,51,0
67560,note_on,,,,,0,0,2,,,,,,0,46,0
67560,note_on,,,,,0,0,2,,,,,,0,47,37
67560,note_on,,,,,0,0,2,,,,,,0,51,37
67560,note_on,,,,,0,0,1,,,,,,0,63,32
67560,note_on,,,,,0,0,1,,,,,,0,75,32
67570,set_tempo,,,,,50,1,0,,521739,,,,,,
67600,set_tempo,,,,,30,1,0,,517241,,,,,,
67620,note_on,,,,,0,0,1,,,,,,0,71,37
67620,note_on,,,,,0,0,1,,,,,,0,59,37
67620,note_on,,,,,0,0,1,,,,,,0,63,0
67620,note_on,,,,,60,0,1,,,,,,0,75,0
67620,note_on,,,,,0,0,2,,,,,,0,47,0
67620,note_on,,,,,60,0,2,,,,,,0,51,0
67620,note_on,,,,,0,0,2,,,,,,0,51,33
67620,note_on,,,,,0,0,2,,,,,,0,50,33
67630,set_tempo,,,,,30,1,0,,512820,,,,,,
67680,note_on,,,,,0,0,1,,,,,,0,59,42
67680,note_on,,,,,0,0,1,,,,,,0,59,0
67680,note_on,,,,,60,0,1,,,,,,0,71,0
67680,note_on,,,,,0,0,1,,,,,,0,71,42
67680,control_change,,,,,0,0,1,,,,64,95,0,,
67680,note_on,,,,,60,0,2,,,,,,0,51,0
67680,note_on,,,,,0,0,2,,,,,,0,51,39
67680,note_on,,,,,0,0,2,,,,,,0,50,0
67740,note_on,,,,,0,0,2,,,,,,0,39,35
67740,note_on,,,,,60,0,2,,,,,,0,51,0
67800,note_on,,,,,0,0,1,,,,,,0,58,33
67800,note_on,,,,,0,0,2,,,,,,0,43,33
67800,note_on,,,,,0,0,2,,,,,,0,39,33
67800,note_on,,,,,60,0,2,,,,,,0,39,0
67800,note_on,,,,,0,0,1,,,,,,0,70,33
67800,control_change,,,,,0,0,1,,,,64,0,0,,
67800,note_on,,,,,0,0,1,,,,,,0,59,0
67800,note_on,,,,,120,0,1,,,,,,0,71,0
67860,note_on,,,,,0,0,2,,,,,,0,44,29
67860,note_on,,,,,0,0,2,,,,,,0,39,29
67860,note_on,,,,,0,0,2,,,,,,0,39,0
67860,note_on,,,,,60,0,2,,,,,,0,43,0
67920,note_on,,,,,0,0,2,,,,,,0,39,36
67920,note_on,,,,,0,0,2,,,,,,0,39,0
67920,note_on,,,,,0,0,2,,,,,,0,43,36
67920,note_on,,,,,60,0,2,,,,,,0,44,0
67930,set_tempo,,,,,300,1,0,,517241,,,,,,
67950,note_on,,,,,0,0,1,,,,,,0,70,0
67950,note_on,,,,,150,0,1,,,,,,0,58,0
67950,set_tempo,,,,,20,1,0,,512820,,,,,,
67972,note_on,,,,,0,0,2,,,,,,0,39,0
67972,note_on,,,,,52,0,2,,,,,,0,43,0
67980,note_on,,,,,30,0,1,,,,,,0,57,39
67980,note_on,,,,,8,0,2,,,,,,0,39,46
67980,note_on,,,,,0,0,2,,,,,,0,47,46
67980,note_on,,,,,0,0,1,,,,,,0,69,39
68000,set_tempo,,,,,50,1,0,,517241,,,,,,
68040,note_on,,,,,60,0,1,,,,,,0,69,0
68040,note_on,,,,,0,0,2,,,,,,0,39,0
68040,note_on,,,,,0,0,2,,,,,,0,46,31
68040,note_on,,,,,0,0,2,,,,,,0,38,31
68040,control_change,,,,,0,0,1,,,,64,94,0,,
68040,note_on,,,,,0,0,1,,,,,,0,70,41
68040,note_on,,,,,0,0,1,,,,,,0,58,41
68040,note_on,,,,,0,0,1,,,,,,0,57,0
68040,note_on,,,,,60,0,2,,,,,,0,47,0
68080,set_tempo,,,,,80,1,0,,521739,,,,,,
68100,note_on,,,,,0,0,2,,,,,,0,40,34
68100,note_on,,,,,60,0,2,,,,,,0,38,0
68155,control_change,,,,,115,0,1,,,,64,0,0,,
68160,note_on,,,,,60,0,2,,,,,,0,40,0
68160,note_on,,,,,0,0,1,,,,,,0,56,35
68160,note_on,,,,,0,0,2,,,,,,0,41,34
68160,note_on,,,,,5,0,1,,,,,,0,70,0
68160,note_on,,,,,0,0,1,,,,,,0,58,0
68160,note_on,,,,,0,0,1,,,,,,0,68,35
68220,note_on,,,,,60,0,2,,,,,,0,41,0
68220,note_on,,,,,0,0,2,,,,,,0,33,39
68220,note_on,,,,,0,0,1,,,,,,0,67,35
68220,note_on,,,,,60,0,1,,,,,,0,68,0
68220,note_on,,,,,0,0,1,,,,,,0,56,0
68220,note_on,,,,,0,0,1,,,,,,0,55,35
68240,set_tempo,,,,,160,1,0,,526315,,,,,,
68280,note_on,,,,,0,0,1,,,,,,0,56,36
68280,note_on,,,,,0,0,1,,,,,,0,55,0
68280,note_on,,,,,60,0,1,,,,,,0,67,0
68280,note_on,,,,,0,0,1,,,,,,0,62,36
68280,note_on,,,,,0,0,2,,,,,,0,34,39
68280,note_on,,,,,0,0,2,,,,,,0,46,39
68280,note_on,,,,,0,0,2,,,,,,0,46,0
68280,note_on,,,,,60,0,2,,,,,,0,33,0
68280,note_on,,,,,0,0,1,,,,,,0,68,36
68280,control_change,,,,,0,0,1,,,,64,95,0,,
68300,set_tempo,,,,,60,1,0,,530973,,,,,,
68395,control_change,,,,,115,0,1,,,,64,0,0,,
68400,note_on,,,,,5,0,1,,,,,,0,68,0
68400,note_on,,,,,0,0,1,,,,,,0,62,0
68400,note_on,,,,,0,0,1,,,,,,0,55,31
68400,note_on,,,,,0,0,1,,,,,,0,63,31
68400,note_on,,,,,0,0,1,,,,,,0,67,31
68400,control_change,,,,,0,0,1,,,,64,95,0,,
68400,note_on,,,,,0,0,2,,,,,,0,39,34
68400,note_on,,,,,0,0,2,,,,,,0,46,0
68400,note_on,,,,,120,0,2,,,,,,0,34,0
68400,note_on,,,,,0,0,1,,,,,,0,56,0
68450,note_on,,,,,50,0,2,,,,,,0,39,0
68460,note_on,,,,,10,0,2,,,,,,0,45,39
68515,control_change,,,,,115,0,1,,,,64,0,0,,
68520,note_on,,,,,0,0,2,,,,,,0,46,39
68520,note_on,,,,,60,0,2,,,,,,0,45,0
68550,note_on,,,,,35,0,1,,,,,,0,67,0
68550,note_on,,,,,0,0,1,,,,,,0,63,0
68550,note_on,,,,,0,0,1,,,,,,0,55,0
68580,note_on,,,,,30,0,1,,,,,,0,70,31
68580,note_on,,,,,60,0,2,,,,,,0,46,0
68580,note_on,,,,,0,0,2,,,,,,0,50,39
68600,set_tempo,,,,,300,1,0,,535714,,,,,,
68640,note_on,,,,,0,0,1,,,,,,0,68,32
68640,note_on,,,,,60,0,1,,,,,,0,70,0
68640,note_on,,,,,0,0,2,,,,,,0,51,39
68640,note_on,,,,,60,0,2,,,,,,0,50,0
68700,note_on,,,,,0,0,1,,,,,,0,67,35
68700,note_on,,,,,60,0,1,,,,,,0,68,0
68700,note_on,,,,,60,0,2,,,,,,0,51,0
68760,note_on,,,,,60,0,1,,,,,,0,67,0
68760,note_on,,,,,0,0,1,,,,,,0,70,36
68780,set_tempo,,,,,180,1,0,,540540,,,,,,
68820,note_on,,,,,120,0,2,,,,,,0,52,39
68880,note_on,,,,,0,0,2,,,,,,0,53,39
68880,note_on,,,,,60,0,2,,,,,,0,52,0
68880,note_on,,,,,120,0,1,,,,,,0,70,0
68880,note_on,,,,,0,0,1,,,,,,0,68,29
68940,note_on,,,,,0,0,2,,,,,,0,45,39
68940,note_on,,,,,60,0,1,,,,,,0,68,0
68940,note_on,,,,,0,0,1,,,,,,0,67,30
68940,note_on,,,,,60,0,2,,,,,,0,53,0
69000,note_on,,,,,0,0,2,,,,,,0,58,39
69000,note_on,,,,,0,0,2,,,,,,0,46,39
69000,note_on,,,,,60,0,2,,,,,,0,45,0
69000,control_change,,,,,0,0,1,,,,64,95,0,,
69000,note_on,,,,,0,0,1,,,,,,0,68,32
69000,note_on,,,,,60,0,1,,,,,,0,67,0
69020,set_tempo,,,,,240,1,0,,545454,,,,,,
69115,control_change,,,,,115,0,1,,,,64,0,0,,
69120,note_on,,,,,120,0,2,,,,,,0,58,0
69120,note_on,,,,,0,0,2,,,,,,0,58,34
69120,note_on,,,,,0,0,2,,,,,,0,51,34
69120,note_on,,,,,0,0,2,,,,,,0,46,0
69120,control_change,,,,,0,0,1,,,,64,95,0,,
69120,note_on,,,,,0,0,1,,,,,,0,67,34
69120,note_on,,,,,0,0,1,,,,,,0,63,34
69120,note_on,,,,,5,0,1,,,,,,0,68,0
69170,note_on,,,,,50,0,2,,,,,,0,51,0
69170,note_on,,,,,0,0,2,,,,,,0,58,0
69180,note_on,,,,,10,0,2,,,,,,0,45,39
69180,control_change,,,,,60,0,1,,,,64,0,0,,
69210,note_on,,,,,0,0,1,,,,,,0,63,0
69210,note_on,,,,,30,0,1,,,,,,0,67,0
69240,note_on,,,,,0,0,1,,,,,,0,84,37
69240,note_on,,,,,60,0,2,,,,,,0,45,0
69240,note_on,,,,,0,0,2,,,,,,0,46,39
69240,note_on,,,,,0,0,1,,,,,,0,75,37
69240,note_on,,,,,30,0,1,,,,,,0,72,37
69360,note_on,,,,,0,0,2,,,,,,0,46,34
69360,note_on,,,,,0,0,2,,,,,,0,58,34
69360,control_change,,,,,0,0,1,,,,64,94,0,,
69360,note_on,,,,,0,0,1,,,,,,0,80,41
69360,note_on,,,,,0,0,1,,,,,,0,72,0
69360,note_on,,,,,0,0,1,,,,,,0,75,0
69360,note_on,,,,,120,0,1,,,,,,0,84,0
69360,note_on,,,,,120,0,2,,,,,,0,46,0
69360,note_on,,,,,0,0,1,,,,,,0,74,41
69430,set_tempo,,,,,410,1,0,,550458,,,,,,
69475,control_change,,,,,115,0,1,,,,64,0,0,,
69480,note_on,,,,,0,0,2,,,,,,0,46,0
69480,note_on,,,,,0,0,1,,,,,,0,79,34
69480,note_on,,,,,0,0,2,,,,,,0,51,34
69480,control_change,,,,,0,0,1,,,,64,95,0,,
69480,note_on,,,,,0,0,1,,,,,,0,75,34
69480,note_on,,,,,0,0,1,,,,,,0,74,0
69480,note_on,,,,,5,0,1,,,,,,0,80,0
69480,note_on,,,,,0,0,2,,,,,,0,58,34
69480,note_on,,,,,120,0,2,,,,,,0,58,0
69530,note_on,,,,,50,0,2,,,,,,0,51,0
69530,note_on,,,,,0,0,2,,,,,,0,58,0
69540,note_on,,,,,10,0,2,,,,,,0,45,39
69540,control_change,,,,,60,0,1,,,,64,0,0,,
69570,note_on,,,,,30,0,1,,,,,,0,75,0
69570,note_on,,,,,0,0,1,,,,,,0,79,0
69590,set_tempo,,,,,160,1,0,,555555,,,,,,
69600,note_on,,,,,0,0,1,,,,,,0,72,34
69600,note_on,,,,,0,0,2,,,,,,0,46,39
69600,note_on,,,,,60,0,2,,,,,,0,45,0
69600,note_on,,,,,0,0,1,,,,,,0,63,34
69600,note_on,,,,,30,0,1,,,,,,0,60,34
69720,note_on,,,,,0,0,2,,,,,,0,58,34
69720,note_on,,,,,0,0,2,,,,,,0,46,34
69720,note_on,,,,,0,0,1,,,,,,0,62,37
69720,note_on,,,,,120,0,1,,,,,,0,72,0
69720,note_on,,,,,0,0,1,,,,,,0,63,0
69720,note_on,,,,,0,0,1,,,,,,0,60,0
69720,control_change,,,,,0,0,1,,,,64,95,0,,
69720,note_on,,,,,0,0,1,,,,,,0,68,37
69720,note_on,,,,,120,0,2,,,,,,0,46,0
69835,control_change,,,,,115,0,1,,,,64,0,0,,
69840,note_on,,,,,5,0,1,,,,,,0,68,0
69840,control_change,,,,,0,0,1,,,,64,96,0,,
69840,note_on,,,,,120,0,2,,,,,,0,58,0
69840,note_on,,,,,0,0,2,,,,,,0,46,0
69840,note_on,,,,,0,0,2,,,,,,0,58,34
69840,note_on,,,,,0,0,2,,,,,,0,51,34
69840,note_on,,,,,0,0,1,,,,,,0,67,28
69840,note_on,,,,,0,0,1,,,,,,0,62,0
69840,note_on,,,,,0,0,1,,,,,,0,63,28
69890,note_on,,,,,0,0,2,,,,,,0,58,0
69890,note_on,,,,,50,0,2,,,,,,0,51,0
69900,note_on,,,,,10,0,2,,,,,,0,45,39
69900,control_change,,,,,60,0,1,,,,64,0,0,,
69930,note_on,,,,,30,0,1,,,,,,0,67,0
69930,note_on,,,,,0,0,1,,,,,,0,63,0
69960,note_on,,,,,30,0,1,,,,,,0,74,32
69960,control_change,,,,,0,0,1,,,,64,95,0,,
69960,note_on,,,,,0,0,2,,,,,,0,46,34
69960,note_on,,,,,0,0,2,,,,,,0,58,34
69960,note_on,,,,,60,0,2,,,,,,0,45,0
69960,note_on,,,,,0,0,1,,,,,,0,80,32
69970,set_tempo,,,,,380,1,0,,555555,,,,,,
70040,set_tempo,,,,,70,1,0,,560747,,,,,,
70050,set_tempo,,,,,10,1,0,,566037,,,,,,
70080,note_on,,,,,0,0,2,,,,,,0,58,34
70080,note_on,,,,,0,0,2,,,,,,0,51,34
70080,note_on,,,,,0,0,2,,,,,,0,58,0
70080,control_change,,,,,0,0,1,,,,64,0,0,,
70080,note_on,,,,,120,0,2,,,,,,0,46,0
70080,note_on,,,,,0,0,1,,,,,,0,75,25
70080,note_on,,,,,0,0,1,,,,,,0,79,25
70080,note_on,,,,,0,0,1,,,,,,0,74,0
70080,note_on,,,,,120,0,1,,,,,,0,80,0
70080,set_tempo,,,,,30,1,0,,571428,,,,,,
70100,set_tempo,,,,,20,1,0,,576923,,,,,,
70120,set_tempo,,,,,20,1,0,,588235,,,,,,
70130,note_on,,,,,0,0,2,,,,,,0,51,0
70130,note_on,,,,,50,0,2,,,,,,0,58,0
70140,note_on,,,,,10,0,2,,,,,,0,45,39
70150,set_tempo,,,,,30,1,0,,594059,,,,,,
70160,set_tempo,,,,,10,1,0,,600000,,,,,,
70170,note_on,,,,,0,0,1,,,,,,0,79,0
70170,note_on,,,,,90,0,1,,,,,,0,75,0
70180,set_tempo,,,,,20,1,0,,606060,,,,,,
70200,set_tempo,,,,,20,1,0,,612244,,,,,,
70200,note_on,,,,,0,0,2,,,,,,0,58,44
70200,note_on,,,,,0,0,2,,,,,,0,46,44
70200,note_on,,,,,30,0,1,,,,,,0,62,33
70200,note_on,,,,,0,0,1,,,,,,0,68,33
70200,control_change,,,,,0,0,1,,,,64,95,0,,
70200,note_on,,,,,60,0,2,,,,,,0,45,0
70210,set_tempo,,,,,10,1,0,,618556,,,,,,
70250,set_tempo,,,,,40,1,0,,631578,,,,,,
70280,set_tempo,,,,,30,1,0,,638297,,,,,,
70315,control_change,,,,,115,0,1,,,,64,0,0,,
70320,note_on,,,,,5,0,1,,,,,,0,68,0
70320,note_on,,,,,0,0,1,,,,,,0,67,26
70320,note_on,,,,,0,0,1,,,,,,0,63,26
70320,note_on,,,,,0,0,2,,,,,,0,58,37
70320,note_on,,,,,0,0,2,,,,,,0,51,37
70320,note_on,,,,,0,0,2,,,,,,0,58,0
70320,note_on,,,,,120,0,2,,,,,,0,46,0
70320,note_on,,,,,0,0,1,,,,,,0,62,0
70340,set_tempo,,,,,60,1,0,,645161,,,,,,
70350,set_tempo,,,,,10,1,0,,659340,,,,,,
70370,note_on,,,,,0,0,2,,,,,,0,51,0
70370,set_tempo,,,,,20,1,0,,674157,,,,,,
70370,note_on,,,,,50,0,2,,,,,,0,58,0
70380,note_on,,,,,10,0,2,,,,,,0,42,79
70390,set_tempo,,,,,20,1,0,,689655,,,,,,
70410,note_on,,,,,90,0,1,,,,,,0,67,0
70410,note_on,,,,,0,0,1,,,,,,0,63,0
70440,note_on,,,,,0,0,2,,,,,,0,50,107
70440,note_on,,,,,0,0,2,,,,,,0,53,107
70440,note_on,,,,,0,0,2,,,,,,0,55,107
70440,note_on,,,,,0,0,2,,,,,,0,59,107
70440,note_on,,,,,0,0,2,,,,,,0,43,107
70440,control_change,,,,,30,0,1,,,,64,95,0,,
70440,note_on,,,,,60,0,2,,,,,,0,42,0
70450,set_tempo,,,,,60,1,0,,697674,,,,,,
70510,set_tempo,,,,,60,1,0,,750000,,,,,,
70530,set_tempo,,,,,20,1,0,,2068965,,,,,,
70555,control_change,,,,,115,0,1,,,,64,0,0,,
70560,control_change,,,,,5,0,1,,,,64,96,0,,
70560,note_on,,,,,0,0,2,,,,,,0,39,124
70560,note_on,,,,,0,0,2,,,,,,0,51,124
70560,note_on,,,,,0,0,2,,,,,,0,44,124
70560,note_on,,,,,0,0,2,,,,,,0,32,124
70560,note_on,,,,,0,0,2,,,,,,0,59,0
70560,note_on,,,,,0,0,2,,,,,,0,56,124
70560,note_on,,,,,0,0,2,,,,,,0,60,124
70560,note_on,,,,,0,0,2,,,,,,0,53,0
70560,note_on,,,,,0,0,2,,,,,,0,50,0
70560,note_on,,,,,0,0,2,,,,,,0,55,0
70560,note_on,,,,,120,0,2,,,,,,0,43,0
70570,set_tempo,,,,,40,1,0,,638297,,,,,,
70580,set_tempo,,,,,10,1,0,,606060,,,,,,
70600,set_tempo,,,,,20,1,0,,594059,,,,,,
70630,set_tempo,,,,,30,1,0,,458015,,,,,,
70660,set_tempo,,,,,30,1,0,,454545,,,,,,
70705,control_change,,,,,145,0,1,,,,64,0,0,,
70800,note_on,,,,,240,0,2,,,,,,0,60,0
70800,note_on,,,,,0,0,2,,,,,,0,32,0
70800,note_on,,,,,0,0,2,,,,,,0,44,0
70800,note_on,,,,,0,0,2,,,,,,0,39,0
70800,note_on,,,,,0,0,2,,,,,,0,56,0
70800,note_on,,,,,0,0,2,,,,,,0,51,0
70820,set_tempo,,,,,160,1,0,,447761,,,,,,
70860,note_on,,,,,0,0,1,,,,,,0,59,53
70860,note_on,,,,,155,0,1,,,,,,0,55,53
70900,set_tempo,,,,,80,1,0,,444444,,,,,,
70920,note_on,,,,,0,0,1,,,,,,0,60,64
70920,note_on,,,,,0,0,1,,,,,,0,56,64
70920,note_on,,,,,0,0,1,,,,,,0,55,0
70920,note_on,,,,,60,0,1,,,,,,0,59,0
70920,set_tempo,,,,,20,1,0,,441176,,,,,,
70980,set_tempo,,,,,60,1,0,,434782,,,,,,
70980,note_on,,,,,60,0,1,,,,,,0,60,0
70980,note_on,,,,,0,0,1,,,,,,0,52,55
70980,note_on,,,,,0,0,1,,,,,,0,59,55
70980,note_on,,,,,0,0,1,,,,,,0,62,55
70980,note_on,,,,,0,0,1,,,,,,0,56,0
71010,set_tempo,,,,,30,1,0,,431654,,,,,,
71040,note_on,,,,,0,0,1,,,,,,0,60,57
71040,note_on,,,,,0,0,1,,,,,,0,51,57
71040,note_on,,,,,60,0,1,,,,,,0,62,0
71040,note_on,,,,,0,0,1,,,,,,0,52,0
71040,note_on,,,,,0,0,1,,,,,,0,59,0
71040,note_on,,,,,0,0,1,,,,,,0,63,57
71080,set_tempo,,,,,70,1,0,,428571,,,,,,
71100,note_on,,,,,0,0,1,,,,,,0,51,0
71100,note_on,,,,,0,0,1,,,,,,0,60,0
71100,note_on,,,,,0,0,1,,,,,,0,45,59
71100,note_on,,,,,0,0,1,,,,,,0,61,59
71100,note_on,,,,,0,0,1,,,,,,0,67,59
71100,note_on,,,,,60,0,1,,,,,,0,63,0
71160,note_on,,,,,0,0,1,,,,,,0,45,0
71160,note_on,,,,,0,0,1,,,,,,0,44,61
71160,note_on,,,,,0,0,1,,,,,,0,60,61
71160,note_on,,,,,0,0,1,,,,,,0,68,61
71160,note_on,,,,,60,0,1,,,,,,0,67,0
71160,note_on,,,,,0,0,1,,,,,,0,61,0
71205,note_on,,,,,45,0,1,,,,,,0,68,0
71205,note_on,,,,,0,0,1,,,,,,0,60,0
71205,note_on,,,,,0,0,1,,,,,,0,44,0
71210,set_tempo,,,,,130,1,0,,681818,,,,,,
71220,control_change,,,,,0,0,1,,,,64,95,0,,
71220,note_on,,,,,0,0,1,,,,,,0,72,120
71220,note_on,,,,,0,0,1,,,,,,0,68,120
71220,note_on,,,,,0,0,1,,,,,,0,63,120
71220,note_on,,,,,0,0,1,,,,,,0,60,120
71220,note_on,,,,,0,0,1,,,,,,0,44,120
71220,note_on,,,,,0,0,1,,,,,,0,39,120
71220,note_on,,,,,15,0,1,,,,,,0,32,120
71220,set_tempo,,,,,10,1,0,,431654,,,,,,
71265,note_on,,,,,0,0,1,,,,,,0,63,0
71265,note_on,,,,,45,0,1,,,,,,0,72,0
71265,note_on,,,,,0,0,1,,,,,,0,39,0
71265,note_on,,,,,0,0,1,,,,,,0,60,0
71265,note_on,,,,,0,0,1,,,,,,0,68,0
71265,note_on,,,,,0,0,1,,,,,,0,32,0
71265,note_on,,,,,0,0,1,,,,,,0,44,0
71270,control_change,,,,,5,0,1,,,,64,0,0,,
71280,note_on,,,,,0,0,1,,,,,,0,73,127
71280,note_on,,,,,0,0,1,,,,,,0,70,127
71280,note_on,,,,,0,0,1,,,,,,0,63,127
71280,note_on,,,,,0,0,1,,,,,,0,61,127
71280,note_on,,,,,0,0,1,,,,,,0,43,127
71280,note_on,,,,,10,0,1,,,,,,0,31,127
71280,control_change,,,,,0,0,1,,,,64,96,0,,
71280,note_on,,,,,0,0,1,,,,,,0,39,127
71280,set_tempo,,,,,60,1,0,,422535,,,,,,
71290,set_tempo,,,,,10,1,0,,600000,,,,,,
71370,set_tempo,,,,,80,1,0,,416666,,,,,,
71460,control_change,,,,,180,0,1,,,,64,0,0,,
71520,note_on,,,,,0,0,1,,,,,,0,31,0
71520,note_on,,,,,0,0,1,,,,,,0,61,0
71520,note_on,,,,,0,0,1,,,,,,0,70,0
71520,note_on,,,,,0,0,1,,,,,,0,43,0
71520,note_on,,,,,0,0,1,,,,,,0,39,0
71520,note_on,,,,,60,0,1,,,,,,0,73,0
71520,note_on,,,,,0,0,1,,,,,,0,63,0
71580,note_on,,,,,60,0,1,,,,,,0,64,60
71580,set_tempo,,,,,210,1,0,,447761,,,,,,
71580,note_on,,,,,0,0,1,,,,,,0,72,60
71590,set_tempo,,,,,10,1,0,,444444,,,,,,
71640,note_on,,,,,60,0,1,,,,,,0,72,0
71640,note_on,,,,,0,0,1,,,,,,0,64,0
71640,note_on,,,,,0,0,1,,,,,,0,73,67
71640,note_on,,,,,0,0,1,,,,,,0,63,67
71650,set_tempo,,,,,60,1,0,,441176,,,,,,
71660,set_tempo,,,,,10,1,0,,437956,,,,,,
71700,note_on,,,,,0,0,1,,,,,,0,68,54
71700,note_on,,,,,0,0,1,,,,,,0,64,54
71700,note_on,,,,,0,0,1,,,,,,0,56,54
71700,note_on,,,,,0,0,1,,,,,,0,63,0
71700,note_on,,,,,60,0,1,,,,,,0,73,0
71730,set_tempo,,,,,70,1,0,,431654,,,,,,
71740,set_tempo,,,,,10,1,0,,428571,,,,,,
71750,set_tempo,,,,,10,1,0,,425531,,,,,,
71760,note_on,,,,,0,0,1,,,,,,0,63,58
71760,note_on,,,,,0,0,1,,,,,,0,64,0
71760,note_on,,,,,0,0,1,,,,,,0,55,58
71760,note_on,,,,,0,0,1,,,,,,0,56,0
71760,note_on,,,,,60,0,1,,,,,,0,68,0
71760,note_on,,,,,0,0,1,,,,,,0,70,58
71800,set_tempo,,,,,50,1,0,,422535,,,,,,
71810,set_tempo,,,,,10,1,0,,419580,,,,,,
71820,note_on,,,,,0,0,1,,,,,,0,63,0
71820,note_on,,,,,0,0,1,,,,,,0,55,0
71820,note_on,,,,,60,0,1,,,,,,0,70,0
71820,note_on,,,,,0,0,1,,,,,,0,50,61
71820,note_on,,,,,0,0,1,,,,,,0,56,61
71820,note_on,,,,,0,0,1,,,,,,0,65,61
71820,note_on,,,,,0,0,1,,,,,,0,47,61
71820,set_tempo,,,,,10,1,0,,416666,,,,,,
71860,set_tempo,,,,,40,1,0,,413793,,,,,,
71880,note_on,,,,,0,0,1,,,,,,0,63,67
71880,note_on,,,,,0,0,1,,,,,,0,55,67
71880,note_on,,,,,0,0,1,,,,,,0,51,67
71880,note_on,,,,,0,0,1,,,,,,0,56,0
71880,note_on,,,,,0,0,1,,,,,,0,47,0
71880,note_on,,,,,60,0,1,,,,,,0,65,0
71880,note_on,,,,,0,0,1,,,,,,0,50,0
71880,note_on,,,,,0,0,1,,,,,,0,46,67
71925,note_on,,,,,45,0,1,,,,,,0,63,0
71925,note_on,,,,,0,0,1,,,,,,0,46,0
71925,note_on,,,,,0,0,1,,,,,,0,51,0
71925,note_on,,,,,0,0,1,,,,,,0,55,0
71930,set_tempo,,,,,70,1,0,,681818,,,,,,
71940,control_change,,,,,0,0,1,,,,64,95,0,,
71940,note_on,,,,,0,0,1,,,,,,0,61,120
71940,note_on,,,,,0,0,1,,,,,,0,43,120
71940,set_tempo,,,,,10,1,0,,416666,,,,,,
71940,note_on,,,,,0,0,1,,,,,,0,31,120
71940,note_on,,,,,15,0,1,,,,,,0,55,120
71940,note_on,,,,,0,0,1,,,,,,0,58,120
71950,set_tempo,,,,,10,1,0,,413793,,,,,,
71970,set_tempo,,,,,20,1,0,,468750,,,,,,
71985,note_on,,,,,0,0,1,,,,,,0,43,0
71985,note_on,,,,,0,0,1,,,,,,0,31,0
71985,note_on,,,,,45,0,1,,,,,,0,61,0
71985,note_on,,,,,0,0,1,,,,,,0,58,0
71985,note_on,,,,,0,0,1,,,,,,0,55,0
71990,set_tempo,,,,,20,1,0,,465116,,,,,,
71990,control_change,,,,,5,0,1,,,,64,0,0,,
72000,note_on,,,,,10,0,1,,,,,,0,60,127
72000,control_change,,,,,0,0,1,,,,64,95,0,,
72000,note_on,,,,,0,0,1,,,,,,0,44,120
72030,note_on,,,,,30,0,1,,,,,,0,44,0
72030,note_on,,,,,1230,0,2,,,,,,0,51,64
72045,note_on,,,,,15,0,1,,,,,,0,60,0
72050,set_tempo,,,,,60,1,0,,530973,,,,,,
72060,note_on,,,,,30,0,2,,,,,,0,51,0
72060,note_on,,,,,0,0,2,,,,,,0,48,63
72060,note_on,,,,,15,0,1,,,,,,0,60,81
72060,note_on,,,,,0,0,1,,,,,,0,68,81
72060,note_on,,,,,0,0,1,,,,,,0,72,81
72090,note_on,,,,,30,0,2,,,,,,0,48,0
72090,note_on,,,,,0,0,2,,,,,,0,46,61
72105,note_on,,,,,45,0,1,,,,,,0,72,0
72105,note_on,,,,,0,0,1,,,,,,0,68,0
72105,note_on,,,,,0,0,1,,,,,,0,60,0
72110,set_tempo,,,,,60,1,0,,458015,,,,,,
72120,note_on,,,,,30,0,2,,,,,,0,46,0
72120,note_on,,,,,0,0,2,,,,,,0,44,59
72120,note_on,,,,,0,0,1,,,,,,0,72,60
72120,note_on,,,,,0,0,1,,,,,,0,75,60
72120,note_on,,,,,15,0,1,,,,,,0,63,60
72150,note_on,,,,,0,0,2,,,,,,0,51,58
72150,note_on,,,,,30,0,2,,,,,,0,44,0
72180,note_on,,,,,30,0,2,,,,,,0,51,0
72180,note_on,,,,,0,0,2,,,,,,0,48,57
72180,control_change,,,,,60,0,1,,,,64,0,0,,
72210,note_on,,,,,0,0,2,,,,,,0,46,55
72210,note_on,,,,,30,0,2,,,,,,0,48,0
72240,note_on,,,,,0,0,2,,,,,,0,44,54
72240,note_on,,,,,30,0,2,,,,,,0,46,0
72270,note_on,,,,,30,0,2,,,,,,0,44,0
72270,note_on,,,,,0,0,1,,,,,,0,72,0
72270,note_on,,,,,0,0,2,,,,,,0,51,53
72270,note_on,,,,,90,0,1,,,,,,0,75,0
72270,note_on,,,,,0,0,1,,,,,,0,63,0
72300,note_on,,,,,0,0,1,,,,,,0,77,53
72300,note_on,,,,,0,0,1,,,,,,0,73,53
72300,note_on,,,,,30,0,1,,,,,,0,65,53
72300,note_on,,,,,0,0,2,,,,,,0,48,53
72300,note_on,,,,,30,0,2,,,,,,0,51,0
72330,note_on,,,,,0,0,2,,,,,,0,46,50
72330,note_on,,,,,30,0,2,,,,,,0,48,0
72340,set_tempo,,,,,230,1,0,,458015,,,,,,
72345,note_on,,,,,0,0,1,,,,,,0,65,0
72345,note_on,,,,,0,0,1,,,,,,0,73,0
72345,note_on,,,,,45,0,1,,,,,,0,77,0
72360,note_on,,,,,30,0,2,,,,,,0,46,0
72360,note_on,,,,,0,0,2,,,,,,0,45,50
72360,note_on,,,,,0,0,1,,,,,,0,78,49
72360,note_on,,,,,0,0,1,,,,,,0,75,49
72360,note_on,,,,,15,0,1,,,,,,0,66,49
72390,note_on,,,,,0,0,2,,,,,,0,51,47
72390,note_on,,,,,30,0,2,,,,,,0,45,0
72405,note_on,,,,,45,0,1,,,,,,0,78,0
72405,note_on,,,,,0,0,1,,,,,,0,66,0
72405,note_on,,,,,0,0,1,,,,,,0,75,0
72420,note_on,,,,,15,0,1,,,,,,0,87,54
72420,note_on,,,,,30,0,2,,,,,,0,51,0
72420,note_on,,,,,0,0,2,,,,,,0,48,49
72430,set_tempo,,,,,90,1,0,,454545,,,,,,
72450,note_on,,,,,30,0,1,,,,,,0,87,0
72450,note_on,,,,,0,0,1,,,,,,0,85,58
72450,note_on,,,,,30,0,2,,,,,,0,48,0
72450,note_on,,,,,0,0,2,,,,,,0,46,52
72460,set_tempo,,,,,30,1,0,,451127,,,,,,
72480,note_on,,,,,30,0,2,,,,,,0,46,0
72480,note_on,,,,,30,0,1,,,,,,0,85,0
72480,note_on,,,,,0,0,1,,,,,,0,84,61
72480,set_tempo,,,,,20,1,0,,447761,,,,,,
72480,note_on,,,,,0,0,2,,,,,,0,45,57
72510,note_on,,,,,30,0,1,,,,,,0,84,0
72510,note_on,,,,,0,0,1,,,,,,0,90,65
72510,note_on,,,,,30,0,2,,,,,,0,45,0
72510,note_on,,,,,0,0,2,,,,,,0,51,63
72540,note_on,,,,,30,0,2,,,,,,0,51,0
72540,note_on,,,,,0,0,2,,,,,,0,48,68
72540,set_tempo,,,,,60,1,0,,441176,,,,,,
72540,note_on,,,,,0,0,1,,,,,,0,87,67
72540,note_on,,,,,30,0,1,,,,,,0,90,0
72570,note_on,,,,,0,0,1,,,,,,0,85,71
72570,note_on,,,,,30,0,2,,,,,,0,48,0
72570,note_on,,,,,0,0,2,,,,,,0,46,70
72570,note_on,,,,,30,0,1,,,,,,0,87,0
72600,set_tempo,,,,,60,1,0,,434782,,,,,,
72600,note_on,,,,,30,0,1,,,,,,0,85,0
72600,note_on,,,,,0,0,1,,,,,,0,84,74
72600,note_on,,,,,30,0,2,,,,,,0,46,0
72600,note_on,,,,,0,0,2,,,,,,0,45,73
72620,set_tempo,,,,,20,1,0,,431654,,,,,,
72630,note_on,,,,,0,0,1,,,,,,0,87,78
72630,note_on,,,,,30,0,1,,,,,,0,84,0
72630,note_on,,,,,30,0,2,,,,,,0,45,0
72630,note_on,,,,,0,0,2,,,,,,0,51,77
72640,set_tempo,,,,,20,1,0,,428571,,,,,,
72660,note_on,,,,,0,0,2,,,,,,0,48,81
72660,note_on,,,,,0,0,1,,,,,,0,75,82
72660,note_on,,,,,30,0,1,,,,,,0,87,0
72660,note_on,,,,,30,0,2,,,,,,0,51,0
72690,note_on,,,,,30,0,2,,,,,,0,48,0
72690,note_on,,,,,0,0,1,,,,,,0,77,87
72690,note_on,,,,,30,0,1,,,,,,0,75,0
72690,note_on,,,,,0,0,2,,,,,,0,46,86
72710,set_tempo,,,,,70,1,0,,425531,,,,,,
72720,note_on,,,,,30,0,2,,,,,,0,46,0
72720,note_on,,,,,30,0,1,,,,,,0,77,0
72720,note_on,,,,,0,0,1,,,,,,0,78,99
72720,note_on,,,,,0,0,2,,,,,,0,45,89
72730,set_tempo,,,,,20,1,0,,422535,,,,,,
72750,note_on,,,,,0,0,1,,,,,,0,84,100
72750,note_on,,,,,30,0,2,,,,,,0,45,0
72750,note_on,,,,,0,0,2,,,,,,0,51,88
72750,note_on,,,,,30,0,1,,,,,,0,78,0
72780,note_on,,,,,30,0,1,,,,,,0,84,0
72780,note_on,,,,,0,0,1,,,,,,0,75,98
72780,note_on,,,,,30,0,2,,,,,,0,51,0
72780,note_on,,,,,0,0,2,,,,,,0,48,88
72810,note_on,,,,,30,0,1,,,,,,0,75,0
72810,note_on,,,,,0,0,1,,,,,,0,77,90
72810,note_on,,,,,0,0,2,,,,,,0,46,84
72810,note_on,,,,,30,0,2,,,,,,0,48,0
72830,set_tempo,,,,,100,1,0,,431654,,,,,,
72840,note_on,,,,,0,0,2,,,,,,0,45,81
72840,note_on,,,,,30,0,2,,,,,,0,46,0
72840,note_on,,,,,0,0,1,,,,,,0,78,87
72840,note_on,,,,,30,0,1,,,,,,0,77,0
72860,set_tempo,,,,,30,1,0,,434782,,,,,,
72870,note_on,,,,,0,0,2,,,,,,0,51,79
72870,note_on,,,,,30,0,2,,,,,,0,45,0
72870,note_on,,,,,0,0,1,,,,,,0,77,82
72870,note_on,,,,,30,0,1,,,,,,0,78,0
72870,set_tempo,,,,,10,1,0,,437956,,,,,,
72900,note_on,,,,,0,0,1,,,,,,0,75,78
72900,note_on,,,,,30,0,1,,,,,,0,77,0
72900,note_on,,,,,0,0,2,,,,,,0,48,75
72900,note_on,,,,,30,0,2,,,,,,0,51,0
72910,set_tempo,,,,,40,1,0,,441176,,,,,,
72930,note_on,,,,,0,0,2,,,,,,0,46,72
72930,note_on,,,,,30,0,1,,,,,,0,75,0
72930,note_on,,,,,0,0,1,,,,,,0,73,73
72930,note_on,,,,,30,0,2,,,,,,0,48,0
72960,note_on,,,,,0,0,2,,,,,,0,45,68
72960,note_on,,,,,30,0,2,,,,,,0,46,0
72960,note_on,,,,,0,0,1,,,,,,0,72,63
72960,note_on,,,,,30,0,1,,,,,,0,73,0
72980,set_tempo,,,,,70,1,0,,444444,,,,,,
72990,note_on,,,,,30,0,1,,,,,,0,72,0
72990,note_on,,,,,30,0,2,,,,,,0,45,0
72990,note_on,,,,,0,0,2,,,,,,0,51,67
72990,note_on,,,,,0,0,1,,,,,,0,77,58
73020,note_on,,,,,30,0,1,,,,,,0,77,0
73020,note_on,,,,,0,0,1,,,,,,0,75,56
73020,note_on,,,,,0,0,2,,,,,,0,48,65
73020,note_on,,,,,30,0,2,,,,,,0,51,0
73020,set_tempo,,,,,40,1,0,,447761,,,,,,
73050,note_on,,,,,0,0,2,,,,,,0,45,63
73050,note_on,,,,,30,0,2,,,,,,0,48,0
73050,note_on,,,,,0,0,1,,,,,,0,72,53
73050,note_on,,,,,30,0,1,,,,,,0,75,0
73080,note_on,,,,,0,0,1,,,,,,0,74,51
73080,note_on,,,,,30,0,2,,,,,,0,45,0
73080,note_on,,,,,0,0,2,,,,,,0,46,59
73080,note_on,,,,,30,0,1,,,,,,0,72,0
73110,note_on,,,,,30,0,2,,,,,,0,46,0
73110,note_on,,,,,0,0,2,,,,,,0,53,58
73125,note_on,,,,,45,0,1,,,,,,0,74,0
73140,note_on,,,,,15,0,1,,,,,,0,62,66
73140,note_on,,,,,0,0,1,,,,,,0,70,66
73140,note_on,,,,,0,0,1,,,,,,0,74,66
73140,note_on,,,,,0,0,2,,,,,,0,50,57
73140,note_on,,,,,30,0,2,,,,,,0,53,0
73140,set_tempo,,,,,120,1,0,,535714,,,,,,
73170,note_on,,,,,0,0,2,,,,,,0,48,56
73170,note_on,,,,,30,0,2,,,,,,0,50,0
73185,note_on,,,,,0,0,1,,,,,,0,62,0
73185,note_on,,,,,0,0,1,,,,,,0,70,0
73185,note_on,,,,,45,0,1,,,,,,0,74,0
73190,set_tempo,,,,,50,1,0,,451127,,,,,,
73200,note_on,,,,,0,0,2,,,,,,0,46,54
73200,note_on,,,,,15,0,1,,,,,,0,65,50
73200,note_on,,,,,0,0,1,,,,,,0,74,50
73200,note_on,,,,,0,0,1,,,,,,0,77,50
73200,control_change,,,,,0,0,1,,,,64,95,0,,
73200,note_on,,,,,30,0,2,,,,,,0,48,0
73230,note_on,,,,,0,0,2,,,,,,0,53,52
73230,note_on,,,,,30,0,2,,,,,,0,46,0
73260,note_on,,,,,30,0,2,,,,,,0,53,0
73260,note_on,,,,,0,0,2,,,,,,0,50,50
73290,note_on,,,,,30,0,2,,,,,,0,50,0
73290,note_on,,,,,0,0,2,,,,,,0,48,48
73320,set_tempo,,,,,130,1,0,,447761,,,,,,
73320,note_on,,,,,0,0,2,,,,,,0,46,45
73320,note_on,,,,,30,0,2,,,,,,0,48,0
73350,note_on,,,,,150,0,1,,,,,,0,77,0
73350,note_on,,,,,0,0,1,,,,,,0,74,0
73350,note_on,,,,,0,0,1,,,,,,0,65,0
73350,note_on,,,,,0,0,2,,,,,,0,53,45
73350,note_on,,,,,30,0,2,,,,,,0,46,0
73360,control_change,,,,,10,0,1,,,,64,0,0,,
73370,set_tempo,,,,,50,1,0,,444444,,,,,,
73380,note_on,,,,,30,0,2,,,,,,0,53,0
73380,note_on,,,,,0,0,1,,,,,,0,75,45
73380,note_on,,,,,0,0,1,,,,,,0,79,45
73380,note_on,,,,,0,0,2,,,,,,0,50,45
73380,note_on,,,,,20,0,1,,,,,,0,67,45
73390,set_tempo,,,,,20,1,0,,441176,,,,,,
73410,note_on,,,,,30,0,2,,,,,,0,50,0
73410,note_on,,,,,0,0,2,,,,,,0,48,45
73425,note_on,,,,,45,0,1,,,,,,0,79,0
73425,note_on,,,,,0,0,1,,,,,,0,75,0
73425,note_on,,,,,0,0,1,,,,,,0,67,0
73440,note_on,,,,,0,0,2,,,,,,0,47,43
73440,note_on,,,,,0,0,1,,,,,,0,80,41
73440,note_on,,,,,30,0,2,,,,,,0,48,0
73440,note_on,,,,,0,0,1,,,,,,0,77,41
73440,note_on,,,,,15,0,1,,,,,,0,68,41
73450,set_tempo,,,,,60,1,0,,437956,,,,,,
73460,set_tempo,,,,,10,1,0,,434782,,,,,,
73470,note_on,,,,,0,0,2,,,,,,0,53,45
73470,note_on,,,,,30,0,2,,,,,,0,47,0
73480,set_tempo,,,,,20,1,0,,431654,,,,,,
73485,note_on,,,,,0,0,1,,,,,,0,68,0
73485,note_on,,,,,0,0,1,,,,,,0,77,0
73485,note_on,,,,,45,0,1,,,,,,0,80,0
73500,note_on,,,,,30,0,2,,,,,,0,53,0
73500,note_on,,,,,0,0,2,,,,,,0,50,49
73500,note_on,,,,,15,0,1,,,,,,0,89,52
73500,set_tempo,,,,,20,1,0,,428571,,,,,,
73520,set_tempo,,,,,20,1,0,,425531,,,,,,
73530,note_on,,,,,0,0,1,,,,,,0,87,58
73530,note_on,,,,,30,0,1,,,,,,0,89,0
73530,note_on,,,,,30,0,2,,,,,,0,50,0
73530,note_on,,,,,0,0,2,,,,,,0,48,51
73540,set_tempo,,,,,20,1,0,,422535,,,,,,
73560,note_on,,,,,0,0,1,,,,,,0,86,64
73560,note_on,,,,,30,0,2,,,,,,0,48,0
73560,note_on,,,,,30,0,1,,,,,,0,87,0
73560,note_on,,,,,0,0,2,,,,,,0,47,55
73560,set_tempo,,,,,20,1,0,,419580,,,,,,
73590,note_on,,,,,0,0,2,,,,,,0,53,58
73590,note_on,,,,,30,0,2,,,,,,0,47,0
73590,note_on,,,,,30,0,1,,,,,,0,86,0
73590,note_on,,,,,0,0,1,,,,,,0,92,68
73610,set_tempo,,,,,50,1,0,,416666,,,,,,
73620,note_on,,,,,0,0,2,,,,,,0,50,63
73620,note_on,,,,,30,0,2,,,,,,0,53,0
73620,note_on,,,,,30,0,1,,,,,,0,92,0
73620,note_on,,,,,0,0,1,,,,,,0,89,74
73650,note_on,,,,,0,0,1,,,,,,0,87,82
73650,note_on,,,,,0,0,2,,,,,,0,48,65
73650,note_on,,,,,30,0,2,,,,,,0,50,0
73650,note_on,,,,,30,0,1,,,,,,0,89,0
73670,set_tempo,,,,,60,1,0,,413793,,,,,,
73680,note_on,,,,,30,0,2,,,,,,0,48,0
73680,note_on,,,,,0,0,2,,,,,,0,47,69
73680,note_on,,,,,0,0,1,,,,,,0,86,87
73680,note_on,,,,,30,0,1,,,,,,0,87,0
73690,set_tempo,,,,,20,1,0,,410958,,,,,,
73710,note_on,,,,,30,0,1,,,,,,0,86,0
73710,note_on,,,,,0,0,1,,,,,,0,89,92
73710,note_on,,,,,30,0,2,,,,,,0,47,0
73710,note_on,,,,,0,0,2,,,,,,0,53,75
73720,set_tempo,,,,,30,1,0,,408163,,,,,,
73740,note_on,,,,,30,0,2,,,,,,0,53,0
73740,note_on,,,,,30,0,1,,,,,,0,89,0
73740,note_on,,,,,0,0,1,,,,,,0,77,97
73740,set_tempo,,,,,20,1,0,,402684,,,,,,
73740,note_on,,,,,0,0,2,,,,,,0,50,77
73770,note_on,,,,,30,0,2,,,,,,0,50,0
73770,note_on,,,,,0,0,2,,,,,,0,48,83
73770,note_on,,,,,0,0,1,,,,,,0,79,99
73770,note_on,,,,,30,0,1,,,,,,0,77,0
73800,note_on,,,,,0,0,1,,,,,,0,80,101
73800,note_on,,,,,30,0,1,,,,,,0,79,0
73800,note_on,,,,,30,0,2,,,,,,0,48,0
73800,note_on,,,,,0,0,2,,,,,,0,47,88
73830,note_on,,,,,0,0,2,,,,,,0,53,85
73830,note_on,,,,,30,0,2,,,,,,0,47,0
73830,note_on,,,,,30,0,1,,,,,,0,80,0
73830,note_on,,,,,0,0,1,,,,,,0,86,97
73850,set_tempo,,,,,110,1,0,,405405,,,,,,
73860,note_on,,,,,0,0,2,,,,,,0,50,83
73860,note_on,,,,,30,0,1,,,,,,0,86,0
73860,note_on,,,,,0,0,1,,,,,,0,77,91
73860,note_on,,,,,30,0,2,,,,,,0,53,0
73880,set_tempo,,,,,30,1,0,,408163,,,,,,
73890,note_on,,,,,30,0,2,,,,,,0,50,0
73890,note_on,,,,,0,0,2,,,,,,0,48,79
73890,note_on,,,,,30,0,1,,,,,,0,77,0
73890,note_on,,,,,0,0,1,,,,,,0,79,89
73900,set_tempo,,,,,20,1,0,,410958,,,,,,
73920,note_on,,,,,0,0,1,,,,,,0,80,85
73920,note_on,,,,,30,0,1,,,,,,0,79,0
73920,note_on,,,,,0,0,2,,,,,,0,47,76
73920,note_on,,,,,30,0,2,,,,,,0,48,0
73950,note_on,,,,,0,0,1,,,,,,0,79,82
73950,note_on,,,,,0,0,2,,,,,,0,53,74
73950,note_on,,,,,30,0,2,,,,,,0,47,0
73950,note_on,,,,,30,0,1,,,,,,0,80,0
73960,set_tempo,,,,,60,1,0,,413793,,,,,,
73980,note_on,,,,,30,0,2,,,,,,0,53,0
73980,note_on,,,,,0,0,2,,,,,,0,50,70
73980,note_on,,,,,0,0,1,,,,,,0,77,77
73980,note_on,,,,,30,0,1,,,,,,0,79,0
73990,set_tempo,,,,,30,1,0,,416666,,,,,,
74010,note_on,,,,,0,0,2,,,,,,0,48,68
74010,note_on,,,,,30,0,2,,,,,,0,50,0
74010,note_on,,,,,0,0,1,,,,,,0,75,74
74010,note_on,,,,,30,0,1,,,,,,0,77,0
74020,set_tempo,,,,,30,1,0,,419580,,,,,,
74040,note_on,,,,,30,0,2,,,,,,0,48,0
74040,note_on,,,,,0,0,1,,,,,,0,74,67
74040,note_on,,,,,30,0,1,,,,,,0,75,0
74040,note_on,,,,,0,0,2,,,,,,0,47,64
74070,note_on,,,,,0,0,2,,,,,,0,53,62
74070,note_on,,,,,30,0,2,,,,,,0,47,0
74070,note_on,,,,,30,0,1,,,,,,0,74,0
74070,note_on,,,,,0,0,1,,,,,,0,79,64
74080,set_tempo,,,,,60,1,0,,422535,,,,,,
74090,set_tempo,,,,,10,1,0,,425531,,,,,,
74100,note_on,,,,,0,0,1,,,,,,0,77,56
74100,note_on,,,,,30,0,1,,,,,,0,79,0
74100,note_on,,,,,30,0,2,,,,,,0,53,0
74100,note_on,,,,,0,0,2,,,,,,0,50,60
74110,set_tempo,,,,,20,1,0,,428571,,,,,,
74130,note_on,,,,,0,0,1,,,,,,0,74,54
74130,note_on,,,,,30,0,1,,,,,,0,77,0
74130,note_on,,,,,0,0,2,,,,,,0,47,57
74130,note_on,,,,,30,0,2,,,,,,0,50,0
74130,set_tempo,,,,,20,1,0,,431654,,,,,,
74160,note_on,,,,,0,0,1,,,,,,0,76,52
74160,note_on,,,,,0,0,2,,,,,,0,48,55
74160,note_on,,,,,30,0,2,,,,,,0,47,0
74160,note_on,,,,,30,0,1,,,,,,0,74,0
74190,note_on,,,,,0,0,2,,,,,,0,60,53
74190,note_on,,,,,30,0,2,,,,,,0,48,0
74205,note_on,,,,,45,0,1,,,,,,0,76,0
74210,set_tempo,,,,,80,1,0,,530973,,,,,,
74220,note_on,,,,,0,0,2,,,,,,0,55,51
74220,note_on,,,,,30,0,2,,,,,,0,60,0
74220,note_on,,,,,15,0,1,,,,,,0,84,45
74220,note_on,,,,,0,0,1,,,,,,0,76,45
74220,note_on,,,,,0,0,1,,,,,,0,72,45
74250,note_on,,,,,30,0,2,,,,,,0,55,0
74250,note_on,,,,,0,0,2,,,,,,0,52,49
74265,note_on,,,,,45,0,1,,,,,,0,72,0
74265,note_on,,,,,0,0,1,,,,,,0,76,0
74265,note_on,,,,,0,0,1,,,,,,0,84,0
74270,set_tempo,,,,,60,1,0,,465116,,,,,,
74280,note_on,,,,,0,0,2,,,,,,0,48,57
74280,note_on,,,,,0,0,1,,,,,,0,73,59
74280,control_change,,,,,0,0,1,,,,64,95,0,,
74280,note_on,,,,,30,0,2,,,,,,0,52,0
74280,note_on,,,,,0,0,1,,,,,,0,77,59
74280,note_on,,,,,15,0,1,,,,,,0,85,59
74310,note_on,,,,,0,0,2,,,,,,0,60,55
74310,note_on,,,,,30,0,2,,,,,,0,48,0
74340,note_on,,,,,30,0,2,,,,,,0,60,0
74340,note_on,,,,,0,0,2,,,,,,0,56,55
74370,note_on,,,,,30,0,2,,,,,,0,56,0
74370,note_on,,,,,0,0,2,,,,,,0,53,53
74400,note_on,,,,,0,0,2,,,,,,0,48,51
74400,note_on,,,,,30,0,2,,,,,,0,53,0
74430,note_on,,,,,0,0,1,,,,,,0,77,0
74430,note_on,,,,,30,0,2,,,,,,0,48,0
74430,note_on,,,,,0,0,2,,,,,,0,60,50
74430,note_on,,,,,0,0,1,,,,,,0,85,0
74430,note_on,,,,,150,0,1,,,,,,0,73,0
74445,control_change,,,,,15,0,1,,,,64,0,0,,
74460,note_on,,,,,0,0,1,,,,,,0,65,48
74460,note_on,,,,,0,0,2,,,,,,0,56,49
74460,note_on,,,,,15,0,1,,,,,,0,77,48
74460,note_on,,,,,0,0,1,,,,,,0,73,48
74460,note_on,,,,,30,0,2,,,,,,0,60,0
74490,note_on,,,,,0,0,2,,,,,,0,53,47
74490,note_on,,,,,30,0,2,,,,,,0,56,0
74505,note_on,,,,,45,0,1,,,,,,0,73,0
74505,note_on,,,,,0,0,1,,,,,,0,65,0
74505,note_on,,,,,0,0,1,,,,,,0,77,0
74520,note_on,,,,,30,0,2,,,,,,0,53,0
74520,note_on,,,,,0,0,2,,,,,,0,48,53
74520,note_on,,,,,0,0,1,,,,,,0,76,52
74520,note_on,,,,,0,0,1,,,,,,0,72,52
74520,note_on,,,,,15,0,1,,,,,,0,64,52
74550,note_on,,,,,30,0,2,,,,,,0,48,0
74550,note_on,,,,,0,0,2,,,,,,0,60,73
74565,note_on,,,,,0,0,1,,,,,,0,64,0
74565,note_on,,,,,45,0,1,,,,,,0,76,0
74565,note_on,,,,,0,0,1,,,,,,0,72,0
74580,note_on,,,,,30,0,2,,,,,,0,60,0
74580,note_on,,,,,15,0,1,,,,,,0,84,84
74580,note_on,,,,,0,0,1,,,,,,0,76,84
74580,note_on,,,,,0,0,1,,,,,,0,72,84
74580,set_tempo,,,,,310,1,0,,535714,,,,,,
74580,note_on,,,,,0,0,2,,,,,,0,55,102
74610,note_on,,,,,0,0,2,,,,,,0,52,94
74610,note_on,,,,,30,0,2,,,,,,0,55,0
74625,note_on,,,,,0,0,1,,,,,,0,84,0
74625,note_on,,,,,0,0,1,,,,,,0,76,0
74625,note_on,,,,,45,0,1,,,,,,0,72,0
74640,note_on,,,,,0,0,2,,,,,,0,48,99
74640,control_change,,,,,0,0,1,,,,64,95,0,,
74640,note_on,,,,,0,0,1,,,,,,0,73,99
74640,note_on,,,,,0,0,1,,,,,,0,77,99
74640,note_on,,,,,15,0,1,,,,,,0,85,99
74640,note_on,,,,,30,0,2,,,,,,0,52,0
74640,set_tempo,,,,,60,1,0,,465116,,,,,,
74670,note_on,,,,,30,0,2,,,,,,0,48,0
74670,note_on,,,,,0,0,2,,,,,,0,60,98
74700,note_on,,,,,30,0,2,,,,,,0,60,0
74700,note_on,,,,,0,0,2,,,,,,0,56,95
74730,note_on,,,,,30,0,2,,,,,,0,56,0
74730,note_on,,,,,0,0,2,,,,,,0,53,91
74760,note_on,,,,,0,0,2,,,,,,0,48,86
74760,note_on,,,,,30,0,2,,,,,,0,53,0
74790,note_on,,,,,0,0,2,,,,,,0,60,83
74790,note_on,,,,,0,0,1,,,,,,0,77,0
74790,note_on,,,,,150,0,1,,,,,,0,73,0
74790,note_on,,,,,0,0,1,,,,,,0,85,0
74790,note_on,,,,,30,0,2,,,,,,0,48,0
74805,control_change,,,,,15,0,1,,,,64,0,0,,
74820,note_on,,,,,0,0,1,,,,,,0,73,67
74820,note_on,,,,,0,0,1,,,,,,0,65,67
74820,note_on,,,,,0,0,2,,,,,,0,56,79
74820,note_on,,,,,30,0,2,,,,,,0,60,0
74820,note_on,,,,,15,0,1,,,,,,0,77,67
74850,note_on,,,,,0,0,2,,,,,,0,53,76
74850,note_on,,,,,30,0,2,,,,,,0,56,0
74865,note_on,,,,,0,0,1,,,,,,0,77,0
74865,note_on,,,,,45,0,1,,,,,,0,73,0
74865,note_on,,,,,0,0,1,,,,,,0,65,0
74880,note_on,,,,,0,0,2,,,,,,0,48,63
74880,note_on,,,,,0,0,1,,,,,,0,76,52
74880,note_on,,,,,0,0,1,,,,,,0,72,52
74880,note_on,,,,,15,0,1,,,,,,0,64,52
74880,note_on,,,,,30,0,2,,,,,,0,53,0
74910,note_on,,,,,30,0,2,,,,,,0,48,0
74910,note_on,,,,,0,0,2,,,,,,0,55,60
74925,note_on,,,,,0,0,1,,,,,,0,64,0
74925,note_on,,,,,45,0,1,,,,,,0,76,0
74925,note_on,,,,,0,0,1,,,,,,0,72,0
74930,set_tempo,,,,,290,1,0,,560747,,,,,,
74940,note_on,,,,,0,0,1,,,,,,0,76,84
74940,note_on,,,,,15,0,1,,,,,,0,84,84
74940,note_on,,,,,0,0,1,,,,,,0,72,84
74940,note_on,,,,,0,0,2,,,,,,0,52,69
74940,note_on,,,,,30,0,2,,,,,,0,55,0
74970,note_on,,,,,30,0,2,,,,,,0,52,0
74970,note_on,,,,,0,0,2,,,,,,0,48,102
74985,note_on,,,,,45,0,1,,,,,,0,72,0
74985,note_on,,,,,0,0,1,,,,,,0,76,0
74985,note_on,,,,,0,0,1,,,,,,0,84,0
75000,note_on,,,,,15,0,1,,,,,,0,85,99
75000,note_on,,,,,0,0,1,,,,,,0,77,99
75000,note_on,,,,,0,0,1,,,,,,0,73,99
75000,control_change,,,,,0,0,1,,,,64,95,0,,
75000,set_tempo,,,,,70,1,0,,465116,,,,,,
75000,note_on,,,,,30,0,2,,,,,,0,48,0
75000,note_on,,,,,0,0,2,,,,,,0,47,92
75020,set_tempo,,,,,20,1,0,,461538,,,,,,
75030,note_on,,,,,30,0,2,,,,,,0,47,0
75030,note_on,,,,,0,0,2,,,,,,0,56,102
75050,set_tempo,,,,,30,1,0,,454545,,,,,,
75060,note_on,,,,,30,0,2,,,,,,0,56,0
75060,note_on,,,,,0,0,2,,,,,,0,53,94
75060,set_tempo,,,,,10,1,0,,451127,,,,,,
75080,set_tempo,,,,,20,1,0,,447761,,,,,,
75090,set_tempo,,,,,10,1,0,,444444,,,,,,
75090,note_on,,,,,30,0,2,,,,,,0,53,0
75090,note_on,,,,,0,0,2,,,,,,0,47,91
75100,set_tempo,,,,,10,1,0,,437956,,,,,,
75120,note_on,,,,,0,0,2,,,,,,0,46,85
75120,note_on,,,,,30,0,2,,,,,,0,47,0
75150,note_on,,,,,0,0,1,,,,,,0,85,0
75150,note_on,,,,,0,0,2,,,,,,0,58,81
75150,note_on,,,,,150,0,1,,,,,,0,73,0
75150,note_on,,,,,0,0,1,,,,,,0,77,0
75150,note_on,,,,,30,0,2,,,,,,0,46,0
75160,set_tempo,,,,,60,1,0,,431654,,,,,,
75165,control_change,,,,,15,0,1,,,,64,0,0,,
75170,set_tempo,,,,,10,1,0,,428571,,,,,,
75180,note_on,,,,,0,0,2,,,,,,0,56,78
75180,note_on,,,,,15,0,1,,,,,,0,74,67
75180,note_on,,,,,0,0,1,,,,,,0,77,67
75180,note_on,,,,,0,0,1,,,,,,0,65,67
75180,note_on,,,,,30,0,2,,,,,,0,58,0
75190,set_tempo,,,,,20,1,0,,425531,,,,,,
75210,note_on,,,,,30,0,2,,,,,,0,56,0
75210,note_on,,,,,0,0,2,,,,,,0,53,72
75225,note_on,,,,,0,0,1,,,,,,0,74,0
75225,note_on,,,,,0,0,1,,,,,,0,77,0
75225,note_on,,,,,45,0,1,,,,,,0,65,0
75240,note_on,,,,,0,0,1,,,,,,0,79,90
75240,note_on,,,,,30,0,2,,,,,,0,53,0
75240,note_on,,,,,0,0,2,,,,,,0,51,68
75240,note_on,,,,,0,0,1,,,,,,0,75,90
75240,note_on,,,,,15,0,1,,,,,,0,67,90
75270,note_on,,,,,30,0,2,,,,,,0,51,0
75270,note_on,,,,,0,0,2,,,,,,0,58,65
75270,set_tempo,,,,,80,1,0,,422535,,,,,,
75280,set_tempo,,,,,10,1,0,,480000,,,,,,
75285,note_on,,,,,0,0,1,,,,,,0,67,0
75285,note_on,,,,,0,0,1,,,,,,0,75,0
75285,note_on,,,,,45,0,1,,,,,,0,79,0
75300,note_on,,,,,0,0,1,,,,,,0,84,106
75300,note_on,,,,,30,0,2,,,,,,0,58,0
75300,note_on,,,,,0,0,2,,,,,,0,55,103
75300,note_on,,,,,0,0,1,,,,,,0,75,106
75300,note_on,,,,,15,0,1,,,,,,0,79,106
75330,note_on,,,,,30,0,2,,,,,,0,55,0
75330,set_tempo,,,,,50,1,0,,419580,,,,,,
75330,note_on,,,,,0,0,2,,,,,,0,51,95
75345,note_on,,,,,0,0,1,,,,,,0,79,0
75345,note_on,,,,,45,0,1,,,,,,0,84,0
75345,note_on,,,,,0,0,1,,,,,,0,75,0
75350,set_tempo,,,,,20,1,0,,413793,,,,,,
75360,note_on,,,,,0,0,1,,,,,,0,85,115
75360,control_change,,,,,0,0,1,,,,64,95,0,,
75360,note_on,,,,,0,0,1,,,,,,0,80,115
75360,note_on,,,,,30,0,2,,,,,,0,51,0
75360,note_on,,,,,0,0,2,,,,,,0,50,104
75360,note_on,,,,,15,0,1,,,,,,0,76,115
75390,note_on,,,,,30,0,2,,,,,,0,50,0
75390,note_on,,,,,0,0,2,,,,,,0,59,97
75420,note_on,,,,,0,0,2,,,,,,0,56,89
75420,note_on,,,,,30,0,2,,,,,,0,59,0
75430,set_tempo,,,,,80,1,0,,419580,,,,,,
75440,set_tempo,,,,,10,1,0,,425531,,,,,,
75450,note_on,,,,,0,0,2,,,,,,0,50,85
75450,note_on,,,,,30,0,2,,,,,,0,56,0
75450,set_tempo,,,,,10,1,0,,428571,,,,,,
75460,set_tempo,,,,,10,1,0,,437956,,,,,,
75480,note_on,,,,,30,0,2,,,,,,0,50,0
75480,note_on,,,,,0,0,2,,,,,,0,49,80
75490,set_tempo,,,,,30,1,0,,444444,,,,,,
75500,set_tempo,,,,,10,1,0,,468750,,,,,,
75510,note_on,,,,,0,0,1,,,,,,0,76,0
75510,note_on,,,,,0,0,1,,,,,,0,80,0
75510,note_on,,,,,150,0,1,,,,,,0,85,0
75510,note_on,,,,,30,0,2,,,,,,0,49,0
75510,note_on,,,,,0,0,2,,,,,,0,61,77
75525,control_change,,,,,15,0,1,,,,64,0,0,,
75530,set_tempo,,,,,30,1,0,,476190,,,,,,
75540,set_tempo,,,,,10,1,0,,491803,,,,,,
75540,note_on,,,,,0,0,1,,,,,,0,77,67
75540,note_on,,,,,15,0,1,,,,,,0,68,67
75540,note_on,,,,,0,0,2,,,,,,0,59,72
75540,note_on,,,,,0,0,1,,,,,,0,80,67
75540,note_on,,,,,30,0,2,,,,,,0,61,0
75570,set_tempo,,,,,30,1,0,,500000,,,,,,
75570,note_on,,,,,0,0,2,,,,,,0,56,68
75570,note_on,,,,,30,0,2,,,,,,0,59,0
75580,set_tempo,,,,,10,1,0,,504201,,,,,,
75585,note_on,,,,,0,0,1,,,,,,0,68,0
75585,note_on,,,,,0,0,1,,,,,,0,80,0
75585,note_on,,,,,45,0,1,,,,,,0,77,0
75600,note_on,,,,,0,0,1,,,,,,0,78,62
75600,note_on,,,,,0,0,1,,,,,,0,82,62
75600,note_on,,,,,0,0,2,,,,,,0,54,64
75600,note_on,,,,,30,0,2,,,,,,0,56,0
75600,note_on,,,,,15,0,1,,,,,,0,70,62
75620,set_tempo,,,,,40,1,0,,560747,,,,,,
75630,note_on,,,,,30,0,2,,,,,,0,54,0
75630,note_on,,,,,0,0,2,,,,,,0,61,61
75630,set_tempo,,,,,10,1,0,,750000,,,,,,
75645,note_on,,,,,45,0,1,,,,,,0,82,0
75645,note_on,,,,,0,0,1,,,,,,0,70,0
75645,note_on,,,,,0,0,1,,,,,,0,78,0
75660,note_on,,,,,0,0,2,,,,,,0,58,57
75660,note_on,,,,,0,0,1,,,,,,0,90,46
75660,note_on,,,,,0,0,1,,,,,,0,82,46
75660,note_on,,,,,30,0,2,,,,,,0,61,0
75660,set_tempo,,,,,30,1,0,,869565,,,,,,
75660,note_on,,,,,15,0,1,,,,,,0,78,46
75680,set_tempo,,,,,20,1,0,,618556,,,,,,
75690,note_on,,,,,0,0,2,,,,,,0,54,54
75690,note_on,,,,,30,0,2,,,,,,0,58,0
75705,note_on,,,,,0,0,1,,,,,,0,78,0
75705,note_on,,,,,0,0,1,,,,,,0,90,0
75705,note_on,,,,,45,0,1,,,,,,0,82,0
75720,note_on,,,,,0,0,1,,,,,,0,91,55
75720,note_on,,,,,0,0,1,,,,,,0,83,55
75720,note_on,,,,,15,0,1,,,,,,0,79,55
75720,note_on,,,,,30,0,2,,,,,,0,54,0
75720,note_on,,,,,0,0,2,,,,,,0,52,52
75720,control_change,,,,,0,0,1,,,,64,96,0,,
75730,set_tempo,,,,,50,1,0,,618556,,,,,,
75740,set_tempo,,,,,10,1,0,,612244,,,,,,
75750,set_tempo,,,,,10,1,0,,606060,,,,,,
75750,note_on,,,,,30,0,2,,,,,,0,52,0
75750,note_on,,,,,0,0,2,,,,,,0,64,52
75780,note_on,,,,,0,0,2,,,,,,0,59,51
75780,note_on,,,,,30,0,2,,,,,,0,64,0
75810,note_on,,,,,0,0,2,,,,,,0,55,50
75810,note_on,,,,,30,0,2,,,,,,0,59,0
75810,set_tempo,,,,,60,1,0,,618556,,,,,,
75830,set_tempo,,,,,20,1,0,,625000,,,,,,
75840,note_on,,,,,0,0,2,,,,,,0,52,48
75840,note_on,,,,,30,0,2,,,,,,0,55,0
75840,set_tempo,,,,,10,1,0,,631578,,,,,,
75850,set_tempo,,,,,10,1,0,,638297,,,,,,
75860,set_tempo,,,,,10,1,0,,645161,,,,,,
75870,note_on,,,,,150,0,1,,,,,,0,91,0
75870,note_on,,,,,0,0,1,,,,,,0,79,0
75870,note_on,,,,,30,0,2,,,,,,0,52,0
75870,note_on,,,,,0,0,1,,,,,,0,83,0
75870,note_on,,,,,0,0,2,,,,,,0,47,47
75885,control_change,,,,,15,0,1,,,,64,0,0,,
75890,set_tempo,,,,,30,1,0,,659340,,,,,,
75900,note_on,,,,,15,0,1,,,,,,0,67,49
75900,note_on,,,,,0,0,1,,,,,,0,71,49
75900,note_on,,,,,30,0,2,,,,,,0,47,0
75900,note_on,,,,,0,0,2,,,,,,0,43,46
75900,set_tempo,,,,,10,1,0,,666666,,,,,,
75900,note_on,,,,,0,0,1,,,,,,0,79,49
75920,set_tempo,,,,,20,1,0,,674157,,,,,,
75930,set_tempo,,,,,10,1,0,,681818,,,,,,
75930,note_on,,,,,30,0,2,,,,,,0,43,0
75930,note_on,,,,,0,0,2,,,,,,0,47,45
75945,note_on,,,,,45,0,1,,,,,,0,79,0
75945,note_on,,,,,0,0,1,,,,,,0,71,0
75945,note_on,,,,,0,0,1,,,,,,0,67,0
75950,set_tempo,,,,,20,1,0,,689655,,,,,,
75960,note_on,,,,,0,0,1,,,,,,0,79,61
75960,key_signature,,,,,10,1,0,C,,,,,,,
75960,note_on,,,,,0,0,2,,,,,,0,40,44
75960,note_on,,,,,30,0,2,,,,,,0,47,0
75960,note_on,,,,,15,0,1,,,,,,0,71,61
75960,note_on,,,,,0,0,1,,,,,,0,67,61
75970,set_tempo,,,,,10,1,0,,652173,,,,,,
75980,set_tempo,,,,,10,1,0,,645161,,,,,,
75990,set_tempo,,,,,10,1,0,,638297,,,,,,
75990,note_on,,,,,0,0,2,,,,,,0,52,50
75990,note_on,,,,,30,0,2,,,,,,0,40,0
76000,set_tempo,,,,,10,1,0,,625000,,,,,,
76005,note_on,,,,,45,0,1,,,,,,0,79,0
76005,note_on,,,,,0,0,1,,,,,,0,67,0
76005,note_on,,,,,0,0,1,,,,,,0,71,0
76010,set_tempo,,,,,10,1,0,,618556,,,,,,
76020,note_on,,,,,0,0,1,,,,,,0,66,78
76020,note_on,,,,,15,0,1,,,,,,0,71,78
76020,set_tempo,,,,,10,1,0,,594059,,,,,,
76020,note_on,,,,,30,0,2,,,,,,0,52,0
76020,note_on,,,,,0,0,2,,,,,,0,42,56
76020,note_on,,,,,0,0,1,,,,,,0,78,78
76050,note_on,,,,,30,0,2,,,,,,0,42,0
76050,note_on,,,,,0,0,2,,,,,,0,54,61
76050,set_tempo,,,,,30,1,0,,582524,,,,,,
76060,set_tempo,,,,,10,1,0,,560747,,,,,,
76065,note_on,,,,,45,0,1,,,,,,0,78,0
76065,note_on,,,,,0,0,1,,,,,,0,66,0
76065,note_on,,,,,0,0,1,,,,,,0,71,0
76070,set_tempo,,,,,10,1,0,,555555,,,,,,
76080,note_on,,,,,15,0,1,,,,,,0,71,85
76080,set_tempo,,,,,10,1,0,,550458,,,,,,
76080,note_on,,,,,30,0,2,,,,,,0,54,0
76080,note_on,,,,,0,0,2,,,,,,0,42,68
76080,note_on,,,,,0,0,1,,,,,,0,66,85
76080,note_on,,,,,0,0,1,,,,,,0,78,85
76100,set_tempo,,,,,20,1,0,,545454,,,,,,
76110,set_tempo,,,,,10,1,0,,540540,,,,,,
76110,note_on,,,,,30,0,2,,,,,,0,42,0
76110,note_on,,,,,0,0,2,,,,,,0,54,79
76125,note_on,,,,,0,0,1,,,,,,0,66,0
76125,note_on,,,,,0,0,1,,,,,,0,71,0
76125,note_on,,,,,45,0,1,,,,,,0,78,0
76130,set_tempo,,,,,20,1,0,,530973,,,,,,
76140,note_on,,,,,15,0,1,,,,,,0,71,98
76140,note_on,,,,,0,0,1,,,,,,0,64,98
76140,note_on,,,,,0,0,1,,,,,,0,76,98
76140,note_on,,,,,30,0,2,,,,,,0,54,0
76140,set_tempo,,,,,10,1,0,,521739,,,,,,
76140,note_on,,,,,0,0,2,,,,,,0,43,91
76160,set_tempo,,,,,20,1,0,,517241,,,,,,
76170,set_tempo,,,,,10,1,0,,512820,,,,,,
76170,note_on,,,,,30,0,2,,,,,,0,43,0
76170,note_on,,,,,0,0,2,,,,,,0,55,97
76185,note_on,,,,,0,0,1,,,,,,0,71,0
76185,note_on,,,,,0,0,1,,,,,,0,64,0
76185,note_on,,,,,45,0,1,,,,,,0,76,0
76190,set_tempo,,,,,20,1,0,,504201,,,,,,
76200,note_on,,,,,15,0,1,,,,,,0,71,108
76200,note_on,,,,,30,0,2,,,,,,0,55,0
76200,note_on,,,,,0,0,2,,,,,,0,43,101
76200,note_on,,,,,0,0,1,,,,,,0,64,108
76200,note_on,,,,,0,0,1,,,,,,0,76,108
76210,set_tempo,,,,,20,1,0,,480000,,,,,,
76230,note_on,,,,,0,0,2,,,,,,0,55,106
76230,note_on,,,,,30,0,2,,,,,,0,43,0
76230,set_tempo,,,,,20,1,0,,472440,,,,,,
76245,note_on,,,,,0,0,1,,,,,,0,71,0
76245,note_on,,,,,45,0,1,,,,,,0,76,0
76245,note_on,,,,,0,0,1,,,,,,0,64,0
76250,set_tempo,,,,,20,1,0,,465116,,,,,,
76260,note_on,,,,,15,0,1,,,,,,0,71,118
76260,note_on,,,,,0,0,1,,,,,,0,62,118
76260,note_on,,,,,0,0,1,,,,,,0,74,118
76260,set_tempo,,,,,10,1,0,,458015,,,,,,
76260,note_on,,,,,0,0,2,,,,,,0,44,112
76260,note_on,,,,,30,0,2,,,,,,0,55,0
76270,set_tempo,,,,,10,1,0,,454545,,,,,,
76280,set_tempo,,,,,10,1,0,,540540,,,,,,
76290,note_on,,,,,0,0,2,,,,,,0,56,115
76290,note_on,,,,,30,0,2,,,,,,0,44,0
76305,note_on,,,,,45,0,1,,,,,,0,74,0
76305,note_on,,,,,0,0,1,,,,,,0,71,0
76305,note_on,,,,,0,0,1,,,,,,0,62,0
76320,note_on,,,,,0,0,2,,,,,,0,45,120
76320,note_on,,,,,0,0,1,,,,,,0,81,126
76320,control_change,,,,,0,0,1,,,,64,97,0,,
76320,note_on,,,,,15,0,1,,,,,,0,69,126
76320,set_tempo,,,,,40,1,0,,437956,,,,,,
76320,note_on,,,,,0,0,1,,,,,,0,78,126
76320,note_on,,,,,30,0,2,,,,,,0,56,0
76320,note_on,,,,,0,0,1,,,,,,0,74,126
76330,set_tempo,,,,,10,1,0,,431654,,,,,,
76342,note_on,,,,,22,0,2,,,,,,0,45,0
76350,note_on,,,,,8,0,2,,,,,,0,57,110
76380,note_on,,,,,0,0,2,,,,,,0,54,110
76380,note_on,,,,,30,0,2,,,,,,0,57,0
76410,note_on,,,,,0,0,2,,,,,,0,50,112
76410,note_on,,,,,30,0,2,,,,,,0,54,0
76440,note_on,,,,,0,0,2,,,,,,0,45,111
76440,note_on,,,,,30,0,2,,,,,,0,50,0
76470,note_on,,,,,0,0,2,,,,,,0,42,119
76470,note_on,,,,,30,0,2,,,,,,0,45,0
76500,note_on,,,,,30,0,2,,,,,,0,42,0
76500,note_on,,,,,0,0,2,,,,,,0,38,123
76530,note_on,,,,,0,0,2,,,,,,0,42,126
76530,note_on,,,,,30,0,2,,,,,,0,38,0
76555,control_change,,,,,235,0,1,,,,64,0,0,,
76560,set_tempo,,,,,230,1,0,,545454,,,,,,
76560,note_on,,,,,5,0,1,,,,,,0,81,0
76560,note_on,,,,,0,0,1,,,,,,0,69,0
76560,note_on,,,,,0,0,1,,,,,,0,74,0
76560,note_on,,,,,0,0,1,,,,,,0,78,0
76560,control_change,,,,,0,0,1,,,,64,95,0,,
76560,note_on,,,,,30,0,2,,,,,,0,42,0
76560,note_on,,,,,0,0,2,,,,,,0,33,127
76605,note_on,,,,,45,0,2,,,,,,0,33,0
76620,note_on,,,,,60,0,1,,,,,,0,57,107
76620,note_on,,,,,0,0,1,,,,,,0,62,107
76620,note_on,,,,,0,0,1,,,,,,0,66,107
76620,note_on,,,,,0,0,1,,,,,,0,69,107
76620,set_tempo,,,,,60,1,0,,495867,,,,,,
76665,note_on,,,,,0,0,1,,,,,,0,66,0
76665,note_on,,,,,0,0,1,,,,,,0,62,0
76665,note_on,,,,,0,0,1,,,,,,0,57,0
76665,note_on,,,,,45,0,1,,,,,,0,69,0
76675,control_change,,,,,10,0,1,,,,64,0,0,,
76680,note_on,,,,,5,0,1,,,,,,0,57,126
76680,note_on,,,,,0,0,1,,,,,,0,64,126
76680,note_on,,,,,0,0,1,,,,,,0,67,126
76680,note_on,,,,,0,0,1,,,,,,0,69,126
76680,control_change,,,,,0,0,1,,,,64,96,0,,
76680,set_tempo,,,,,60,1,0,,434782,,,,,,
76680,note_on,,,,,75,0,2,,,,,,0,45,126
76702,note_on,,,,,22,0,2,,,,,,0,45,0
76710,note_on,,,,,8,0,2,,,,,,0,33,110
76740,note_on,,,,,0,0,2,,,,,,0,37,112
76740,note_on,,,,,30,0,2,,,,,,0,33,0
76770,note_on,,,,,30,0,2,,,,,,0,37,0
76770,note_on,,,,,0,0,2,,,,,,0,40,115
76800,note_on,,,,,30,0,2,,,,,,0,40,0
76800,note_on,,,,,0,0,2,,,,,,0,45,118
76830,note_on,,,,,30,0,2,,,,,,0,45,0
76830,note_on,,,,,0,0,2,,,,,,0,49,121
76860,note_on,,,,,0,0,2,,,,,,0,52,124
76860,note_on,,,,,30,0,2,,,,,,0,49,0
76890,note_on,,,,,0,0,2,,,,,,0,49,127
76890,note_on,,,,,30,0,2,,,,,,0,52,0
76915,control_change,,,,,235,0,1,,,,64,0,0,,
76920,note_on,,,,,5,0,1,,,,,,0,69,0
76920,note_on,,,,,0,0,1,,,,,,0,67,0
76920,control_change,,,,,0,0,1,,,,64,95,0,,
76920,note_on,,,,,0,0,1,,,,,,0,57,0
76920,set_tempo,,,,,240,1,0,,545454,,,,,,
76920,note_on,,,,,0,0,2,,,,,,0,57,127
76920,note_on,,,,,30,0,2,,,,,,0,49,0
76920,note_on,,,,,0,0,1,,,,,,0,64,0
76965,note_on,,,,,45,0,2,,,,,,0,57,0
76970,set_tempo,,,,,50,1,0,,495867,,,,,,
76980,note_on,,,,,0,0,1,,,,,,0,61,111
76980,note_on,,,,,0,0,1,,,,,,0,57,111
76980,note_on,,,,,0,0,1,,,,,,0,55,111
76980,note_on,,,,,60,0,1,,,,,,0,52,111
77025,note_on,,,,,0,0,1,,,,,,0,52,0
77025,note_on,,,,,0,0,1,,,,,,0,57,0
77025,note_on,,,,,0,0,1,,,,,,0,55,0
77025,note_on,,,,,45,0,1,,,,,,0,61,0
77035,control_change,,,,,10,0,1,,,,64,0,0,,
77040,control_change,,,,,0,0,1,,,,64,96,0,,
77040,note_on,,,,,75,0,2,,,,,,0,38,126
77040,note_on,,,,,5,0,1,,,,,,0,50,114
77050,set_tempo,,,,,80,1,0,,545454,,,,,,
77062,note_on,,,,,22,0,1,,,,,,0,50,0
77070,note_on,,,,,8,0,1,,,,,,0,62,104
77100,note_on,,,,,0,0,1,,,,,,0,57,94
77100,set_tempo,,,,,50,1,0,,535714,,,,,,
77100,note_on,,,,,30,0,1,,,,,,0,62,0
77110,set_tempo,,,,,10,1,0,,526315,,,,,,
77130,set_tempo,,,,,20,1,0,,521739,,,,,,
77130,note_on,,,,,0,0,1,,,,,,0,54,89
77130,note_on,,,,,30,0,1,,,,,,0,57,0
77140,set_tempo,,,,,10,1,0,,517241,,,,,,
77150,set_tempo,,,,,10,1,0,,512820,,,,,,
77160,set_tempo,,,,,10,1,0,,508474,,,,,,
77160,note_on,,,,,30,0,1,,,,,,0,54,0
77160,note_on,,,,,0,0,1,,,,,,0,50,85
77160,note_on,,,,,120,0,2,,,,,,0,38,0
77180,set_tempo,,,,,20,1,0,,504201,,,,,,
77190,note_on,,,,,30,0,1,,,,,,0,50,0
77190,set_tempo,,,,,10,1,0,,495867,,,,,,
77190,note_on,,,,,0,0,1,,,,,,0,62,78
77210,set_tempo,,,,,20,1,0,,491803,,,,,,
77220,note_on,,,,,0,0,1,,,,,,0,57,73
77220,note_on,,,,,30,0,1,,,,,,0,62,0
77230,set_tempo,,,,,20,1,0,,483870,,,,,,
77240,set_tempo,,,,,10,1,0,,480000,,,,,,
77250,note_on,,,,,0,0,1,,,,,,0,54,69
77250,note_on,,,,,30,0,1,,,,,,0,57,0
77260,set_tempo,,,,,20,1,0,,476190,,,,,,
77280,note_on,,,,,0,0,1,,,,,,0,50,64
77280,note_on,,,,,30,0,1,,,,,,0,54,0
77280,set_tempo,,,,,20,1,0,,472440,,,,,,
77300,set_tempo,,,,,20,1,0,,468750,,,,,,
77310,note_on,,,,,30,0,1,,,,,,0,50,0
77310,note_on,,,,,0,0,1,,,,,,0,62,61
77320,set_tempo,,,,,20,1,0,,465116,,,,,,
77340,note_on,,,,,0,0,1,,,,,,0,57,58
77340,note_on,,,,,30,0,1,,,,,,0,62,0
77340,set_tempo,,,,,20,1,0,,461538,,,,,,
77370,note_on,,,,,0,0,1,,,,,,0,54,54
77370,note_on,,,,,30,0,1,,,,,,0,57,0
77395,control_change,,,,,25,0,1,,,,64,0,0,,
77400,note_on,,,,,5,0,1,,,,,,0,54,0
77400,control_change,,,,,0,0,1,,,,64,96,0,,
77400,note_on,,,,,0,0,1,,,,,,0,50,47
77400,set_tempo,,,,,60,1,0,,468750,,,,,,
77422,note_on,,,,,22,0,1,,,,,,0,50,0
77430,note_on,,,,,8,0,1,,,,,,0,62,44
77430,set_tempo,,,,,30,1,0,,472440,,,,,,
77440,set_tempo,,,,,10,1,0,,476190,,,,,,
77460,note_on,,,,,30,0,1,,,,,,0,62,0
77460,note_on,,,,,0,0,1,,,,,,0,57,42
77490,note_on,,,,,0,0,1,,,,,,0,54,39
77490,note_on,,,,,30,0,1,,,,,,0,57,0
77510,set_tempo,,,,,70,1,0,,480000,,,,,,
77520,note_on,,,,,0,0,1,,,,,,0,50,38
77520,note_on,,,,,30,0,1,,,,,,0,54,0
77550,note_on,,,,,0,0,1,,,,,,0,62,36
77550,note_on,,,,,30,0,1,,,,,,0,50,0
77570,set_tempo,,,,,60,1,0,,483870,,,,,,
77580,set_tempo,,,,,10,1,0,,487804,,,,,,
77580,note_on,,,,,0,0,1,,,,,,0,57,35
77580,note_on,,,,,30,0,1,,,,,,0,62,0
77610,note_on,,,,,0,0,1,,,,,,0,54,34
77610,note_on,,,,,30,0,1,,,,,,0,57,0
77640,set_tempo,,,,,60,1,0,,491803,,,,,,
77640,note_on,,,,,0,0,1,,,,,,0,50,34
77640,note_on,,,,,30,0,1,,,,,,0,54,0
77650,set_tempo,,,,,10,1,0,,495867,,,,,,
77670,note_on,,,,,30,0,1,,,,,,0,50,0
77670,note_on,,,,,0,0,1,,,,,,0,62,34
77670,set_tempo,,,,,20,1,0,,500000,,,,,,
77690,set_tempo,,,,,20,1,0,,504201,,,,,,
77700,note_on,,,,,30,0,1,,,,,,0,62,0
77700,note_on,,,,,0,0,1,,,,,,0,57,34
77730,note_on,,,,,30,0,1,,,,,,0,57,0
77730,note_on,,,,,0,0,1,,,,,,0,54,34
77740,set_tempo,,,,,50,1,0,,512820,,,,,,
77755,control_change,,,,,25,0,1,,,,64,0,0,,
77760,note_on,,,,,0,0,1,,,,,,0,50,33
77760,note_on,,,,,600,0,2,,,,,,0,38,66
77760,note_on,,,,,5,0,1,,,,,,0,54,0
77782,note_on,,,,,22,0,1,,,,,,0,50,0
77790,note_on,,,,,8,0,1,,,,,,0,62,34
77800,set_tempo,,,,,60,1,0,,508474,,,,,,
77820,note_on,,,,,0,0,1,,,,,,0,57,36
77820,note_on,,,,,30,0,1,,,,,,0,62,0
77820,note_on,,,,,60,0,2,,,,,,0,38,0
77820,note_on,,,,,0,0,2,,,,,,0,37,65
77850,note_on,,,,,0,0,1,,,,,,0,54,36
77850,note_on,,,,,30,0,1,,,,,,0,57,0
77880,note_on,,,,,0,0,2,,,,,,0,38,64
77880,note_on,,,,,0,0,1,,,,,,0,50,38
77880,note_on,,,,,30,0,1,,,,,,0,54,0
77880,note_on,,,,,60,0,2,,,,,,0,37,0
77910,note_on,,,,,30,0,1,,,,,,0,50,0
77910,note_on,,,,,0,0,1,,,,,,0,62,40
77940,note_on,,,,,30,0,1,,,,,,0,62,0
77940,note_on,,,,,0,0,1,,,,,,0,57,43
77970,note_on,,,,,30,0,1,,,,,,0,57,0
77970,note_on,,,,,0,0,1,,,,,,0,54,46
78000,note_on,,,,,30,0,1,,,,,,0,54,0
78000,note_on,,,,,0,0,2,,,,,,0,39,75
78000,note_on,,,,,120,0,2,,,,,,0,38,0
78000,note_on,,,,,0,0,1,,,,,,0,50,50
78030,note_on,,,,,30,0,1,,,,,,0,50,0
78030,note_on,,,,,0,0,1,,,,,,0,62,53
78060,note_on,,,,,30,0,1,,,,,,0,62,0
78060,note_on,,,,,0,0,2,,,,,,0,38,83
78060,note_on,,,,,60,0,2,,,,,,0,39,0
78060,note_on,,,,,0,0,1,,,,,,0,57,55
78090,note_on,,,,,0,0,1,,,,,,0,54,59
78090,note_on,,,,,30,0,1,,,,,,0,57,0
78120,note_on,,,,,0,0,1,,,,,,0,49,62
78120,note_on,,,,,0,0,1,,,,,,0,55,62
78120,control_change,,,,,0,0,1,,,,64,95,0,,
78120,note_on,,,,,0,0,2,,,,,,0,39,89
78120,note_on,,,,,60,0,2,,,,,,0,38,0
78120,note_on,,,,,30,0,1,,,,,,0,54,0
78120,note_on,,,,,0,0,1,,,,,,0,57,62
78150,note_on,,,,,30,0,1,,,,,,0,57,0
78150,note_on,,,,,0,0,1,,,,,,0,55,0
78150,note_on,,,,,0,0,1,,,,,,0,49,0
78150,note_on,,,,,0,0,1,,,,,,0,61,47
78175,control_change,,,,,25,0,1,,,,64,0,0,,
78180,note_on,,,,,5,0,1,,,,,,0,61,0
78180,note_on,,,,,0,0,1,,,,,,0,50,46
78180,note_on,,,,,0,0,1,,,,,,0,57,46
78180,control_change,,,,,0,0,1,,,,64,95,0,,
78180,note_on,,,,,0,0,1,,,,,,0,55,46
78180,note_on,,,,,60,0,2,,,,,,0,39,0
78180,note_on,,,,,0,0,2,,,,,,0,38,80
78210,note_on,,,,,0,0,1,,,,,,0,62,45
78210,note_on,,,,,0,0,1,,,,,,0,50,0
78210,note_on,,,,,0,0,1,,,,,,0,55,0
78210,note_on,,,,,30,0,1,,,,,,0,57,0
78235,control_change,,,,,25,0,1,,,,64,0,0,,
78240,note_on,,,,,0,0,2,,,,,,0,37,68
78240,note_on,,,,,0,0,1,,,,,,0,52,44
78240,note_on,,,,,5,0,1,,,,,,0,62,0
78240,note_on,,,,,60,0,2,,,,,,0,38,0
78270,note_on,,,,,0,0,1,,,,,,0,64,42
78270,note_on,,,,,30,0,1,,,,,,0,52,0
78300,note_on,,,,,60,0,2,,,,,,0,37,0
78300,note_on,,,,,0,0,2,,,,,,0,38,67
78300,note_on,,,,,30,0,1,,,,,,0,64,0
78300,note_on,,,,,0,0,1,,,,,,0,57,42
78330,note_on,,,,,30,0,1,,,,,,0,57,0
78330,note_on,,,,,0,0,1,,,,,,0,55,42
78360,note_on,,,,,60,0,2,,,,,,0,38,0
78360,note_on,,,,,0,0,2,,,,,,0,37,65
78360,note_on,,,,,30,0,1,,,,,,0,55,0
78360,note_on,,,,,0,0,1,,,,,,0,52,41
78390,note_on,,,,,30,0,1,,,,,,0,52,0
78390,note_on,,,,,0,0,1,,,,,,0,64,41
78420,note_on,,,,,0,0,2,,,,,,0,33,69
78420,note_on,,,,,60,0,2,,,,,,0,37,0
78420,note_on,,,,,30,0,1,,,,,,0,64,0
78420,note_on,,,,,0,0,1,,,,,,0,57,41
78450,note_on,,,,,30,0,1,,,,,,0,57,0
78450,note_on,,,,,0,0,1,,,,,,0,55,41
78480,note_on,,,,,60,0,2,,,,,,0,33,0
78480,note_on,,,,,0,0,2,,,,,,0,38,73
78480,note_on,,,,,30,0,1,,,,,,0,55,0
78480,note_on,,,,,0,0,1,,,,,,0,50,41
78480,control_change,,,,,0,0,1,,,,64,96,0,,
78502,note_on,,,,,22,0,1,,,,,,0,50,0
78510,note_on,,,,,8,0,1,,,,,,0,62,41
78540,note_on,,,,,30,0,1,,,,,,0,62,0
78540,note_on,,,,,0,0,1,,,,,,0,57,40
78570,note_on,,,,,30,0,1,,,,,,0,57,0
78570,note_on,,,,,0,0,1,,,,,,0,54,34
78600,note_on,,,,,120,0,2,,,,,,0,38,0
78600,note_on,,,,,30,0,1,,,,,,0,54,0
78600,note_on,,,,,0,0,1,,,,,,0,50,34
78630,note_on,,,,,30,0,1,,,,,,0,50,0
78630,note_on,,,,,0,0,1,,,,,,0,62,32
78660,note_on,,,,,30,0,1,,,,,,0,62,0
78660,note_on,,,,,0,0,1,,,,,,0,57,32
78690,note_on,,,,,30,0,1,,,,,,0,57,0
78690,note_on,,,,,0,0,1,,,,,,0,54,32
78720,note_on,,,,,30,0,1,,,,,,0,54,0
78720,note_on,,,,,0,0,1,,,,,,0,50,31
78730,control_change,,,,,10,0,1,,,,64,0,0,,
78750,note_on,,,,,0,0,1,,,,,,0,62,31
78750,note_on,,,,,20,0,1,,,,,,0,50,0
78780,note_on,,,,,0,0,1,,,,,,0,57,31
78780,note_on,,,,,30,0,1,,,,,,0,62,0
78810,note_on,,,,,30,0,1,,,,,,0,57,0
78810,note_on,,,,,0,0,1,,,,,,0,54,30
78840,set_tempo,,,,,1040,1,0,,512820,,,,,,
78840,note_on,,,,,240,0,2,,,,,,0,74,51
78840,note_on,,,,,30,0,1,,,,,,0,54,0
78840,note_on,,,,,0,0,1,,,,,,0,50,33
78862,note_on,,,,,22,0,1,,,,,,0,50,0
78870,note_on,,,,,8,0,1,,,,,,0,62,34
78880,set_tempo,,,,,40,1,0,,508474,,,,,,
78900,note_on,,,,,0,0,2,,,,,,0,73,47
78900,note_on,,,,,60,0,2,,,,,,0,74,0
78900,note_on,,,,,30,0,1,,,,,,0,62,0
78900,note_on,,,,,0,0,1,,,,,,0,57,36
78930,note_on,,,,,0,0,1,,,,,,0,54,36
78930,note_on,,,,,30,0,1,,,,,,0,57,0
78960,note_on,,,,,0,0,1,,,,,,0,50,38
78960,note_on,,,,,30,0,1,,,,,,0,54,0
78960,note_on,,,,,0,0,2,,,,,,0,74,42
78960,note_on,,,,,60,0,2,,,,,,0,73,0
78990,note_on,,,,,30,0,1,,,,,,0,50,0
78990,note_on,,,,,0,0,1,,,,,,0,62,40
79020,note_on,,,,,30,0,1,,,,,,0,62,0
79020,note_on,,,,,0,0,1,,,,,,0,57,43
79050,note_on,,,,,30,0,1,,,,,,0,57,0
79050,note_on,,,,,0,0,1,,,,,,0,54,46
79080,note_on,,,,,120,0,2,,,,,,0,74,0
79080,note_on,,,,,30,0,1,,,,,,0,54,0
79080,note_on,,,,,0,0,1,,,,,,0,50,50
79080,note_on,,,,,0,0,2,,,,,,0,75,48
79110,note_on,,,,,0,0,1,,,,,,0,62,53
79110,note_on,,,,,30,0,1,,,,,,0,50,0
79140,note_on,,,,,60,0,2,,,,,,0,75,0
79140,note_on,,,,,0,0,1,,,,,,0,57,55
79140,note_on,,,,,30,0,1,,,,,,0,62,0
79140,note_on,,,,,0,0,2,,,,,,0,74,52
79170,note_on,,,,,0,0,1,,,,,,0,54,59
79170,note_on,,,,,30,0,1,,,,,,0,57,0
79200,note_on,,,,,0,0,1,,,,,,0,57,62
79200,note_on,,,,,60,0,2,,,,,,0,74,0
79200,note_on,,,,,0,0,2,,,,,,0,75,54
79200,note_on,,,,,0,0,1,,,,,,0,55,62
79200,control_change,,,,,0,0,1,,,,64,95,0,,
79200,note_on,,,,,30,0,1,,,,,,0,54,0
79200,note_on,,,,,0,0,1,,,,,,0,49,62
79230,note_on,,,,,0,0,1,,,,,,0,49,0
79230,note_on,,,,,0,0,1,,,,,,0,61,47
79230,note_on,,,,,0,0,1,,,,,,0,55,0
79230,note_on,,,,,30,0,1,,,,,,0,57,0
79255,control_change,,,,,25,0,1,,,,64,0,0,,
79260,note_on,,,,,0,0,1,,,,,,0,57,46
79260,note_on,,,,,0,0,1,,,,,,0,55,46
79260,note_on,,,,,0,0,1,,,,,,0,50,46
79260,note_on,,,,,5,0,1,,,,,,0,61,0
79260,note_on,,,,,60,0,2,,,,,,0,75,0
79260,control_change,,,,,0,0,1,,,,64,95,0,,
79260,note_on,,,,,0,0,2,,,,,,0,74,52
79290,note_on,,,,,0,0,1,,,,,,0,50,0
79290,note_on,,,,,0,0,1,,,,,,0,62,45
79290,note_on,,,,,0,0,1,,,,,,0,55,0
79290,note_on,,,,,30,0,1,,,,,,0,57,0
79315,control_change,,,,,25,0,1,,,,64,0,0,,
79320,note_on,,,,,0,0,2,,,,,,0,73,49
79320,note_on,,,,,60,0,2,,,,,,0,74,0
79320,note_on,,,,,5,0,1,,,,,,0,62,0
79320,note_on,,,,,0,0,1,,,,,,0,52,44
79350,note_on,,,,,0,0,1,,,,,,0,64,42
79350,note_on,,,,,30,0,1,,,,,,0,52,0
79380,note_on,,,,,0,0,2,,,,,,0,74,47
79380,note_on,,,,,30,0,1,,,,,,0,64,0
79380,note_on,,,,,0,0,1,,,,,,0,57,42
79380,note_on,,,,,60,0,2,,,,,,0,73,0
79410,note_on,,,,,30,0,1,,,,,,0,57,0
79410,note_on,,,,,0,0,1,,,,,,0,55,42
79440,note_on,,,,,30,0,1,,,,,,0,55,0
79440,note_on,,,,,60,0,2,,,,,,0,74,0
79440,note_on,,,,,0,0,2,,,,,,0,73,46
79440,note_on,,,,,0,0,1,,,,,,0,52,41
79470,note_on,,,,,30,0,1,,,,,,0,52,0
79470,note_on,,,,,0,0,1,,,,,,0,64,41
79500,note_on,,,,,60,0,2,,,,,,0,73,0
79500,note_on,,,,,0,0,2,,,,,,0,69,44
79500,note_on,,,,,0,0,1,,,,,,0,57,41
79500,note_on,,,,,30,0,1,,,,,,0,64,0
79530,note_on,,,,,30,0,1,,,,,,0,57,0
79530,note_on,,,,,0,0,1,,,,,,0,55,41
79560,note_on,,,,,0,0,1,,,,,,0,50,41
79560,note_on,,,,,0,0,2,,,,,,0,74,41
79560,note_on,,,,,30,0,1,,,,,,0,55,0
79560,note_on,,,,,60,0,2,,,,,,0,69,0
79560,control_change,,,,,0,0,1,,,,64,96,0,,
79582,note_on,,,,,22,0,1,,,,,,0,50,0
79590,note_on,,,,,8,0,1,,,,,,0,62,41
79620,note_on,,,,,30,0,1,,,,,,0,62,0
79620,note_on,,,,,0,0,1,,,,,,0,57,40
79650,note_on,,,,,30,0,1,,,,,,0,57,0
79650,note_on,,,,,0,0,1,,,,,,0,54,34
79680,note_on,,,,,30,0,1,,,,,,0,54,0
79680,note_on,,,,,0,0,1,,,,,,0,50,34
79680,note_on,,,,,120,0,2,,,,,,0,74,0
79710,note_on,,,,,0,0,1,,,,,,0,62,32
79710,note_on,,,,,30,0,1,,,,,,0,50,0
79740,note_on,,,,,30,0,1,,,,,,0,62,0
79740,note_on,,,,,0,0,1,,,,,,0,57,32
79770,note_on,,,,,30,0,1,,,,,,0,57,0
79770,note_on,,,,,0,0,1,,,,,,0,54,32
79780,control_change,,,,,10,0,1,,,,64,0,0,,
79800,note_on,,,,,20,0,1,,,,,,0,54,0
79800,note_on,,,,,0,0,1,,,,,,0,50,31
79830,note_on,,,,,0,0,1,,,,,,0,62,31
79830,note_on,,,,,30,0,1,,,,,,0,50,0
79860,note_on,,,,,30,0,1,,,,,,0,62,0
79860,note_on,,,,,0,0,1,,,,,,0,57,31
79890,note_on,,,,,0,0,1,,,,,,0,54,30
79890,note_on,,,,,30,0,1,,,,,,0,57,0
79920,note_on,,,,,30,0,1,,,,,,0,54,0
79920,note_on,,,,,240,0,2,,,,,,0,38,55
79920,note_on,,,,,0,0,1,,,,,,0,50,32
79942,note_on,,,,,22,0,1,,,,,,0,50,0
79950,note_on,,,,,8,0,1,,,,,,0,62,34
79980,note_on,,,,,0,0,2,,,,,,0,37,56
79980,note_on,,,,,60,0,2,,,,,,0,38,0
79980,note_on,,,,,0,0,1,,,,,,0,57,32
79980,note_on,,,,,30,0,1,,,,,,0,62,0
80000,set_tempo,,,,,1120,1,0,,512820,,,,,,
80010,note_on,,,,,0,0,1,,,,,,0,54,34
80010,note_on,,,,,30,0,1,,,,,,0,57,0
80040,note_on,,,,,0,0,2,,,,,,0,38,59
80040,note_on,,,,,30,0,1,,,,,,0,54,0
80040,note_on,,,,,0,0,1,,,,,,0,50,36
80040,control_change,,,,,0,0,1,,,,64,95,0,,
80040,note_on,,,,,60,0,2,,,,,,0,37,0
80070,note_on,,,,,30,0,1,,,,,,0,50,0
80070,note_on,,,,,0,0,1,,,,,,0,62,37
80100,note_on,,,,,0,0,1,,,,,,0,57,39
80100,note_on,,,,,30,0,1,,,,,,0,62,0
80130,note_on,,,,,0,0,1,,,,,,0,54,41
80130,note_on,,,,,30,0,1,,,,,,0,57,0
80150,control_change,,,,,20,0,1,,,,64,0,0,,
80160,note_on,,,,,0,0,1,,,,,,0,50,43
80160,note_on,,,,,0,0,2,,,,,,0,39,64
80160,note_on,,,,,10,0,1,,,,,,0,54,0
80160,note_on,,,,,120,0,2,,,,,,0,38,0
80190,set_tempo,,,,,190,1,0,,508474,,,,,,
80190,note_on,,,,,0,0,1,,,,,,0,62,44
80190,note_on,,,,,30,0,1,,,,,,0,50,0
80210,set_tempo,,,,,20,1,0,,504201,,,,,,
80220,note_on,,,,,60,0,2,,,,,,0,39,0
80220,note_on,,,,,0,0,2,,,,,,0,38,66
80220,note_on,,,,,0,0,1,,,,,,0,57,45
80220,note_on,,,,,30,0,1,,,,,,0,62,0
80240,set_tempo,,,,,30,1,0,,504201,,,,,,
80250,note_on,,,,,30,0,1,,,,,,0,57,0
80250,note_on,,,,,0,0,1,,,,,,0,54,46
80260,set_tempo,,,,,20,1,0,,504201,,,,,,
80270,set_tempo,,,,,10,1,0,,504201,,,,,,
80280,note_on,,,,,0,0,2,,,,,,0,39,77
80280,control_change,,,,,0,0,1,,,,64,95,0,,
80280,note_on,,,,,0,0,1,,,,,,0,50,47
80280,note_on,,,,,60,0,2,,,,,,0,38,0
80280,note_on,,,,,30,0,1,,,,,,0,54,0
80302,note_on,,,,,22,0,1,,,,,,0,50,0
80310,note_on,,,,,8,0,1,,,,,,0,62,48
80340,note_on,,,,,30,0,1,,,,,,0,62,0
80340,note_on,,,,,0,0,1,,,,,,0,57,45
80370,note_on,,,,,0,0,1,,,,,,0,54,44
80370,note_on,,,,,30,0,1,,,,,,0,57,0
80370,set_tempo,,,,,100,1,0,,508474,,,,,,
80390,control_change,,,,,20,0,1,,,,64,0,0,,
80400,set_tempo,,,,,30,1,0,,512820,,,,,,
80400,note_on,,,,,10,0,1,,,,,,0,54,0
80400,note_on,,,,,0,0,1,,,,,,0,49,43
80400,note_on,,,,,120,0,2,,,,,,0,39,0
80400,note_on,,,,,0,0,2,,,,,,0,40,72
80410,set_tempo,,,,,10,1,0,,517241,,,,,,
80430,set_tempo,,,,,20,1,0,,521739,,,,,,
80430,note_on,,,,,30,0,1,,,,,,0,49,0
80430,note_on,,,,,0,0,1,,,,,,0,61,42
80450,set_tempo,,,,,20,1,0,,526315,,,,,,
80460,note_on,,,,,0,0,2,,,,,,0,41,67
80460,note_on,,,,,60,0,2,,,,,,0,40,0
80460,set_tempo,,,,,10,1,0,,530973,,,,,,
80460,note_on,,,,,30,0,1,,,,,,0,61,0
80460,note_on,,,,,0,0,1,,,,,,0,58,40
80480,set_tempo,,,,,20,1,0,,535714,,,,,,
80490,note_on,,,,,30,0,1,,,,,,0,58,0
80490,set_tempo,,,,,10,1,0,,545454,,,,,,
80490,note_on,,,,,0,0,1,,,,,,0,55,39
80510,set_tempo,,,,,20,1,0,,550458,,,,,,
80520,note_on,,,,,30,0,1,,,,,,0,55,0
80520,note_on,,,,,60,0,2,,,,,,0,41,0
80520,note_on,,,,,0,0,2,,,,,,0,40,64
80520,note_on,,,,,0,0,1,,,,,,0,48,38
80520,set_tempo,,,,,10,1,0,,555555,,,,,,
80530,set_tempo,,,,,10,1,0,,566037,,,,,,
80550,set_tempo,,,,,20,1,0,,576923,,,,,,
80550,note_on,,,,,30,0,1,,,,,,0,48,0
80550,note_on,,,,,0,0,1,,,,,,0,60,35
80560,set_tempo,,,,,10,1,0,,588235,,,,,,
80570,set_tempo,,,,,10,1,0,,600000,,,,,,
80580,note_on,,,,,30,0,1,,,,,,0,60,0
80580,note_on,,,,,0,0,1,,,,,,0,58,36
80580,note_on,,,,,0,0,2,,,,,,0,36,64
80580,note_on,,,,,60,0,2,,,,,,0,40,0
80590,set_tempo,,,,,20,1,0,,612244,,,,,,
80610,note_on,,,,,0,0,1,,,,,,0,55,38
80610,note_on,,,,,30,0,1,,,,,,0,58,0
80610,set_tempo,,,,,20,1,0,,631578,,,,,,
80620,set_tempo,,,,,10,1,0,,638297,,,,,,
80630,set_tempo,,,,,10,1,0,,645161,,,,,,
80640,note_on,,,,,0,0,1,,,,,,0,53,40
80640,note_on,,,,,0,0,2,,,,,,0,41,74
80640,note_on,,,,,30,0,1,,,,,,0,55,0
80640,note_on,,,,,60,0,2,,,,,,0,36,0
80650,set_tempo,,,,,20,1,0,,625000,,,,,,
80660,set_tempo,,,,,10,1,0,,612244,,,,,,
80662,note_on,,,,,22,0,1,,,,,,0,53,0
80670,set_tempo,,,,,10,1,0,,606060,,,,,,
80670,note_on,,,,,8,0,1,,,,,,0,65,41
80680,set_tempo,,,,,10,1,0,,594059,,,,,,
80690,set_tempo,,,,,10,1,0,,582524,,,,,,
80700,set_tempo,,,,,10,1,0,,576923,,,,,,
80700,note_on,,,,,0,0,1,,,,,,0,60,41
80700,note_on,,,,,30,0,1,,,,,,0,65,0
80700,note_on,,,,,60,0,2,,,,,,0,41,0
80700,note_on,,,,,0,0,2,,,,,,0,40,79
80710,set_tempo,,,,,10,1,0,,571428,,,,,,
80720,set_tempo,,,,,10,1,0,,560747,,,,,,
80730,note_on,,,,,0,0,1,,,,,,0,57,42
80730,set_tempo,,,,,10,1,0,,555555,,,,,,
80730,note_on,,,,,30,0,1,,,,,,0,60,0
80740,set_tempo,,,,,10,1,0,,545454,,,,,,
80760,note_on,,,,,0,0,2,,,,,,0,41,85
80760,note_on,,,,,0,0,1,,,,,,0,53,44
80760,note_on,,,,,60,0,2,,,,,,0,40,0
80760,set_tempo,,,,,20,1,0,,540540,,,,,,
80760,note_on,,,,,30,0,1,,,,,,0,57,0
80770,set_tempo,,,,,10,1,0,,526315,,,,,,
80780,set_tempo,,,,,10,1,0,,521739,,,,,,
80790,note_on,,,,,30,0,1,,,,,,0,53,0
80790,note_on,,,,,0,0,1,,,,,,0,65,44
80800,set_tempo,,,,,20,1,0,,517241,,,,,,
80810,set_tempo,,,,,10,1,0,,512820,,,,,,
80820,set_tempo,,,,,10,1,0,,508474,,,,,,
80820,note_on,,,,,60,0,2,,,,,,0,41,0
80820,note_on,,,,,0,0,2,,,,,,0,29,108
80820,note_on,,,,,30,0,1,,,,,,0,65,0
80820,note_on,,,,,0,0,1,,,,,,0,60,46
80850,set_tempo,,,,,30,1,0,,504201,,,,,,
80850,note_on,,,,,0,0,1,,,,,,0,57,48
80850,note_on,,,,,30,0,1,,,,,,0,60,0
80870,set_tempo,,,,,20,1,0,,500000,,,,,,
80880,note_on,,,,,60,0,2,,,,,,0,29,0
80880,note_on,,,,,0,0,2,,,,,,0,30,112
80880,note_on,,,,,0,0,1,,,,,,0,53,50
80880,note_on,,,,,30,0,1,,,,,,0,57,0
80900,set_tempo,,,,,30,1,0,,495867,,,,,,
80910,note_on,,,,,0,0,1,,,,,,0,65,51
80910,note_on,,,,,30,0,1,,,,,,0,53,0
80940,note_on,,,,,0,0,1,,,,,,0,60,51
80940,note_on,,,,,30,0,1,,,,,,0,65,0
80940,note_on,,,,,0,0,2,,,,,,0,29,115
80940,note_on,,,,,60,0,2,,,,,,0,30,0
80970,note_on,,,,,30,0,1,,,,,,0,60,0
80970,note_on,,,,,0,0,1,,,,,,0,57,52
80990,set_tempo,,,,,90,1,0,,491803,,,,,,
81000,note_on,,,,,60,0,2,,,,,,0,29,0
81000,note_on,,,,,30,0,1,,,,,,0,57,0
81000,note_on,,,,,0,0,1,,,,,,0,53,55
81000,note_on,,,,,0,0,2,,,,,,0,30,117
81022,note_on,,,,,22,0,1,,,,,,0,53,0
81030,note_on,,,,,8,0,1,,,,,,0,65,56
81050,set_tempo,,,,,60,1,0,,487804,,,,,,
81060,note_on,,,,,30,0,1,,,,,,0,65,0
81060,note_on,,,,,0,0,1,,,,,,0,60,57
81060,note_on,,,,,0,0,2,,,,,,0,42,101
81060,note_on,,,,,60,0,2,,,,,,0,30,0
81070,set_tempo,,,,,20,1,0,,483870,,,,,,
81090,set_tempo,,,,,20,1,0,,476190,,,,,,
81090,note_on,,,,,0,0,1,,,,,,0,58,58
81090,note_on,,,,,30,0,1,,,,,,0,60,0
81120,note_on,,,,,60,0,2,,,,,,0,42,0
81120,note_on,,,,,0,0,2,,,,,,0,43,95
81120,note_on,,,,,0,0,1,,,,,,0,52,61
81120,note_on,,,,,30,0,1,,,,,,0,58,0
81130,set_tempo,,,,,40,1,0,,500000,,,,,,
81150,note_on,,,,,0,0,1,,,,,,0,64,62
81150,note_on,,,,,30,0,1,,,,,,0,52,0
81150,set_tempo,,,,,20,1,0,,504201,,,,,,
81160,set_tempo,,,,,10,1,0,,508474,,,,,,
81180,set_tempo,,,,,20,1,0,,517241,,,,,,
81180,note_on,,,,,0,0,2,,,,,,0,44,94
81180,note_on,,,,,60,0,2,,,,,,0,43,0
81180,note_on,,,,,30,0,1,,,,,,0,64,0
81180,note_on,,,,,0,0,1,,,,,,0,61,64
81200,set_tempo,,,,,20,1,0,,526315,,,,,,
81210,set_tempo,,,,,10,1,0,,530973,,,,,,
81210,note_on,,,,,30,0,1,,,,,,0,61,0
81210,note_on,,,,,0,0,1,,,,,,0,58,66
81240,note_on,,,,,0,0,2,,,,,,0,43,94
81240,note_on,,,,,30,0,1,,,,,,0,58,0
81240,note_on,,,,,0,0,1,,,,,,0,51,66
81240,note_on,,,,,60,0,2,,,,,,0,44,0
81270,note_on,,,,,30,0,1,,,,,,0,51,0
81270,set_tempo,,,,,60,1,0,,540540,,,,,,
81270,note_on,,,,,0,0,1,,,,,,0,63,64
81280,set_tempo,,,,,10,1,0,,550458,,,,,,
81300,note_on,,,,,0,0,2,,,,,,0,39,98
81300,set_tempo,,,,,20,1,0,,582524,,,,,,
81300,note_on,,,,,30,0,1,,,,,,0,63,0
81300,note_on,,,,,0,0,1,,,,,,0,61,63
81300,note_on,,,,,60,0,2,,,,,,0,43,0
81320,set_tempo,,,,,20,1,0,,594059,,,,,,
81330,note_on,,,,,30,0,1,,,,,,0,61,0
81330,note_on,,,,,0,0,1,,,,,,0,58,56
81330,set_tempo,,,,,10,1,0,,606060,,,,,,
81340,set_tempo,,,,,10,1,0,,612244,,,,,,
81350,set_tempo,,,,,10,1,0,,631578,,,,,,
81360,set_tempo,,,,,0,1,0,,652173,,,,,,
81360,note_on,,,,,0,0,1,,,,,,0,56,55
81360,key_signature,,,,,10,1,0,Eb,,,,,,,
81360,note_on,,,,,0,0,2,,,,,,0,44,61
81360,note_on,,,,,60,0,2,,,,,,0,39,0
81360,note_on,,,,,30,0,1,,,,,,0,58,0
81370,set_tempo,,,,,10,1,0,,666666,,,,,,
81380,set_tempo,,,,,10,1,0,,652173,,,,,,
81382,note_on,,,,,22,0,1,,,,,,0,56,0
81390,note_on,,,,,8,0,1,,,,,,0,68,41
81390,set_tempo,,,,,10,1,0,,600000,,,,,,
81410,set_tempo,,,,,20,1,0,,566037,,,,,,
81420,note_on,,,,,0,0,1,,,,,,0,63,43
81420,note_on,,,,,30,0,1,,,,,,0,68,0
81420,note_on,,,,,60,0,2,,,,,,0,44,0
81420,note_on,,,,,0,0,2,,,,,,0,45,59
81420,set_tempo,,,,,10,1,0,,555555,,,,,,
81430,set_tempo,,,,,10,1,0,,540540,,,,,,
81440,set_tempo,,,,,10,1,0,,512820,,,,,,
81450,note_on,,,,,0,0,1,,,,,,0,60,43
81450,note_on,,,,,30,0,1,,,,,,0,63,0
81460,set_tempo,,,,,20,1,0,,487804,,,,,,
81470,set_tempo,,,,,10,1,0,,480000,,,,,,
81480,note_on,,,,,60,0,2,,,,,,0,45,0
81480,note_on,,,,,0,0,1,,,,,,0,56,42
81480,note_on,,,,,30,0,1,,,,,,0,60,0
81480,control_change,,,,,0,0,1,,,,64,96,0,,
81480,note_on,,,,,0,0,2,,,,,,0,46,66
81510,note_on,,,,,30,0,1,,,,,,0,56,0
81510,note_on,,,,,0,0,1,,,,,,0,68,41
81540,note_on,,,,,0,0,2,,,,,,0,45,56
81540,note_on,,,,,60,0,2,,,,,,0,46,0
81540,note_on,,,,,30,0,1,,,,,,0,68,0
81540,note_on,,,,,0,0,1,,,,,,0,63,40
81540,control_change,,,,,0,0,1,,,,64,0,0,,
81550,set_tempo,,,,,80,1,0,,483870,,,,,,
81570,note_on,,,,,0,0,1,,,,,,0,61,38
81570,note_on,,,,,30,0,1,,,,,,0,63,0
81580,set_tempo,,,,,30,1,0,,491803,,,,,,
81600,note_on,,,,,0,0,1,,,,,,0,55,38
81600,note_on,,,,,30,0,1,,,,,,0,61,0
81600,note_on,,,,,0,0,2,,,,,,0,46,55
81600,note_on,,,,,60,0,2,,,,,,0,45,0
81620,set_tempo,,,,,40,1,0,,495867,,,,,,
81630,note_on,,,,,0,0,1,,,,,,0,67,37
81630,set_tempo,,,,,10,1,0,,500000,,,,,,
81630,note_on,,,,,30,0,1,,,,,,0,55,0
81660,note_on,,,,,30,0,1,,,,,,0,67,0
81660,note_on,,,,,0,0,1,,,,,,0,63,37
81660,note_on,,,,,60,0,2,,,,,,0,46,0
81660,note_on,,,,,0,0,2,,,,,,0,51,53
81670,set_tempo,,,,,40,1,0,,508474,,,,,,
81690,note_on,,,,,0,0,1,,,,,,0,61,37
81690,note_on,,,,,30,0,1,,,,,,0,63,0
81700,set_tempo,,,,,30,1,0,,582524,,,,,,
81705,note_on,,,,,45,0,2,,,,,,0,51,0
81720,set_tempo,,,,,20,1,0,,500000,,,,,,
81720,note_on,,,,,30,0,1,,,,,,0,61,0
81720,note_on,,,,,15,0,2,,,,,,0,32,51
81720,note_on,,,,,0,0,1,,,,,,0,56,37
81742,note_on,,,,,22,0,1,,,,,,0,56,0
81750,note_on,,,,,8,0,1,,,,,,0,68,37
81780,note_on,,,,,0,0,1,,,,,,0,63,37
81780,note_on,,,,,30,0,1,,,,,,0,68,0
81780,note_on,,,,,0,0,2,,,,,,0,33,50
81780,note_on,,,,,60,0,2,,,,,,0,32,0
81810,note_on,,,,,30,0,1,,,,,,0,63,0
81810,note_on,,,,,0,0,1,,,,,,0,60,37
81840,note_on,,,,,0,0,2,,,,,,0,34,58
81840,control_change,,,,,0,0,1,,,,64,94,0,,
81840,note_on,,,,,0,0,1,,,,,,0,56,37
81840,note_on,,,,,30,0,1,,,,,,0,60,0
81840,note_on,,,,,60,0,2,,,,,,0,33,0
81870,note_on,,,,,0,0,1,,,,,,0,68,37
81870,note_on,,,,,30,0,1,,,,,,0,56,0
81900,note_on,,,,,0,0,1,,,,,,0,63,36
81900,note_on,,,,,30,0,1,,,,,,0,68,0
81900,note_on,,,,,0,0,2,,,,,,0,33,46
81900,note_on,,,,,60,0,2,,,,,,0,34,0
81905,control_change,,,,,5,0,1,,,,64,0,0,,
81910,set_tempo,,,,,190,1,0,,504201,,,,,,
81930,note_on,,,,,0,0,1,,,,,,0,61,36
81930,note_on,,,,,25,0,1,,,,,,0,63,0
81940,set_tempo,,,,,30,1,0,,508474,,,,,,
81960,note_on,,,,,60,0,2,,,,,,0,33,0
81960,note_on,,,,,0,0,1,,,,,,0,55,35
81960,note_on,,,,,30,0,1,,,,,,0,61,0
81960,note_on,,,,,0,0,2,,,,,,0,34,43
81970,set_tempo,,,,,30,1,0,,512820,,,,,,
81980,set_tempo,,,,,10,1,0,,517241,,,,,,
81990,note_on,,,,,0,0,1,,,,,,0,67,35
81990,note_on,,,,,30,0,1,,,,,,0,55,0
82010,set_tempo,,,,,30,1,0,,521739,,,,,,
82020,note_on,,,,,60,0,2,,,,,,0,34,0
82020,note_on,,,,,0,0,2,,,,,,0,39,41
82020,set_tempo,,,,,10,1,0,,526315,,,,,,
82020,note_on,,,,,30,0,1,,,,,,0,67,0
82020,note_on,,,,,0,0,1,,,,,,0,63,34
82050,note_on,,,,,30,0,1,,,,,,0,63,0
82050,note_on,,,,,0,0,1,,,,,,0,61,34
82060,set_tempo,,,,,40,1,0,,535714,,,,,,
82065,note_on,,,,,45,0,2,,,,,,0,39,0
82070,set_tempo,,,,,10,1,0,,530973,,,,,,
82080,note_on,,,,,15,0,2,,,,,,0,44,54
82080,note_on,,,,,30,0,1,,,,,,0,61,0
82080,note_on,,,,,0,0,1,,,,,,0,60,32
82110,note_on,,,,,0,0,1,,,,,,0,68,32
82110,note_on,,,,,30,0,1,,,,,,0,60,0
82110,set_tempo,,,,,40,1,0,,526315,,,,,,
82120,set_tempo,,,,,10,1,0,,521739,,,,,,
82140,note_on,,,,,0,0,1,,,,,,0,59,32
82140,note_on,,,,,30,0,1,,,,,,0,68,0
82140,note_on,,,,,0,0,2,,,,,,0,51,52
82140,note_on,,,,,60,0,2,,,,,,0,44,0
82160,set_tempo,,,,,40,1,0,,517241,,,,,,
82170,note_on,,,,,30,0,1,,,,,,0,59,0
82170,note_on,,,,,0,0,1,,,,,,0,67,34
82200,note_on,,,,,0,0,2,,,,,,0,56,53
82200,note_on,,,,,60,0,2,,,,,,0,51,0
82200,note_on,,,,,30,0,1,,,,,,0,67,0
82200,note_on,,,,,0,0,1,,,,,,0,60,34
82230,note_on,,,,,30,0,1,,,,,,0,60,0
82230,note_on,,,,,0,0,1,,,,,,0,68,35
82240,set_tempo,,,,,80,1,0,,508474,,,,,,
82260,note_on,,,,,30,0,1,,,,,,0,68,0
82260,note_on,,,,,0,0,1,,,,,,0,64,36
82260,set_tempo,,,,,20,1,0,,504201,,,,,,
82260,note_on,,,,,60,0,2,,,,,,0,56,0
82260,note_on,,,,,0,0,2,,,,,,0,54,51
82290,note_on,,,,,0,0,1,,,,,,0,69,35
82290,note_on,,,,,30,0,1,,,,,,0,64,0
82300,set_tempo,,,,,40,1,0,,500000,,,,,,
82320,note_on,,,,,30,0,1,,,,,,0,69,0
82320,note_on,,,,,60,0,2,,,,,,0,54,0
82320,note_on,,,,,0,0,2,,,,,,0,53,48
82320,note_on,,,,,0,0,1,,,,,,0,61,36
82350,note_on,,,,,0,0,1,,,,,,0,70,38
82350,note_on,,,,,30,0,1,,,,,,0,61,0
82380,note_on,,,,,0,0,1,,,,,,0,60,39
82380,set_tempo,,,,,80,1,0,,495867,,,,,,
82380,note_on,,,,,30,0,1,,,,,,0,70,0
82410,note_on,,,,,30,0,1,,,,,,0,60,0
82410,note_on,,,,,0,0,1,,,,,,0,69,39
82430,set_tempo,,,,,50,1,0,,491803,,,,,,
82440,note_on,,,,,0,0,1,,,,,,0,61,39
82440,note_on,,,,,30,0,1,,,,,,0,69,0
82440,set_tempo,,,,,10,1,0,,480000,,,,,,
82460,set_tempo,,,,,20,1,0,,483870,,,,,,
82470,set_tempo,,,,,10,1,0,,487804,,,,,,
82470,note_on,,,,,30,0,1,,,,,,0,61,0
82470,note_on,,,,,0,0,1,,,,,,0,70,39
82500,note_on,,,,,0,0,2,,,,,,0,52,46
82500,note_on,,,,,30,0,1,,,,,,0,70,0
82500,note_on,,,,,0,0,1,,,,,,0,68,37
82500,note_on,,,,,0,0,1,,,,,,0,62,37
82500,set_tempo,,,,,30,1,0,,491803,,,,,,
82500,note_on,,,,,180,0,2,,,,,,0,53,0
82510,set_tempo,,,,,10,1,0,,495867,,,,,,
82530,note_on,,,,,30,0,1,,,,,,0,68,0
82530,note_on,,,,,0,0,1,,,,,,0,62,0
82530,note_on,,,,,0,0,1,,,,,,0,70,36
82540,set_tempo,,,,,30,1,0,,500000,,,,,,
82550,set_tempo,,,,,10,1,0,,504201,,,,,,
82560,note_on,,,,,60,0,2,,,,,,0,52,0
82560,note_on,,,,,0,0,2,,,,,,0,51,43
82560,note_on,,,,,0,0,1,,,,,,0,63,36
82560,note_on,,,,,0,0,1,,,,,,0,68,36
82560,note_on,,,,,30,0,1,,,,,,0,70,0
82570,set_tempo,,,,,20,1,0,,512820,,,,,,
82580,set_tempo,,,,,10,1,0,,521739,,,,,,
82590,note_on,,,,,0,0,1,,,,,,0,63,0
82590,note_on,,,,,0,0,1,,,,,,0,70,35
82590,set_tempo,,,,,10,1,0,,526315,,,,,,
82590,note_on,,,,,30,0,1,,,,,,0,68,0
82610,set_tempo,,,,,20,1,0,,530973,,,,,,
82620,note_on,,,,,30,0,1,,,,,,0,70,0
82620,note_on,,,,,0,0,2,,,,,,0,50,40
82620,note_on,,,,,0,0,1,,,,,,0,68,35
82620,note_on,,,,,60,0,2,,,,,,0,51,0
82620,set_tempo,,,,,10,1,0,,540540,,,,,,
82620,note_on,,,,,0,0,1,,,,,,0,65,35
82640,set_tempo,,,,,20,1,0,,550458,,,,,,
82650,note_on,,,,,30,0,1,,,,,,0,65,0
82650,note_on,,,,,0,0,1,,,,,,0,72,36
82650,note_on,,,,,0,0,1,,,,,,0,68,0
82660,set_tempo,,,,,20,1,0,,560747,,,,,,
82670,set_tempo,,,,,10,1,0,,566037,,,,,,
82680,note_on,,,,,0,0,2,,,,,,0,51,37
82680,control_change,,,,,0,0,1,,,,64,95,0,,
82680,note_on,,,,,0,0,1,,,,,,0,68,37
82680,note_on,,,,,60,0,2,,,,,,0,50,0
82680,note_on,,,,,0,0,1,,,,,,0,63,37
82680,note_on,,,,,30,0,1,,,,,,0,72,0
82690,set_tempo,,,,,20,1,0,,571428,,,,,,
82700,set_tempo,,,,,10,1,0,,582524,,,,,,
82710,set_tempo,,,,,10,1,0,,588235,,,,,,
82710,note_on,,,,,30,0,1,,,,,,0,68,0
82710,note_on,,,,,0,0,1,,,,,,0,63,0
82710,note_on,,,,,0,0,1,,,,,,0,73,39
82720,set_tempo,,,,,10,1,0,,594059,,,,,,
82730,set_tempo,,,,,10,1,0,,600000,,,,,,
82740,set_tempo,,,,,10,1,0,,612244,,,,,,
82740,note_on,,,,,0,0,1,,,,,,0,63,37
82740,note_on,,,,,30,0,1,,,,,,0,73,0
82740,note_on,,,,,0,0,1,,,,,,0,67,37
82750,set_tempo,,,,,10,1,0,,618556,,,,,,
82760,set_tempo,,,,,10,1,0,,625000,,,,,,
82770,note_on,,,,,0,0,1,,,,,,0,73,36
82770,note_on,,,,,90,0,2,,,,,,0,51,0
82770,note_on,,,,,0,0,1,,,,,,0,63,0
82770,note_on,,,,,30,0,1,,,,,,0,67,0
82780,set_tempo,,,,,20,1,0,,612244,,,,,,
82795,control_change,,,,,25,0,1,,,,64,0,0,,
82800,control_change,,,,,0,0,1,,,,64,96,0,,
82800,note_on,,,,,0,0,1,,,,,,0,72,34
82800,note_on,,,,,0,0,1,,,,,,0,68,34
82800,note_on,,,,,0,0,1,,,,,,0,63,34
82800,note_on,,,,,0,0,1,,,,,,0,44,34
82800,note_on,,,,,5,0,1,,,,,,0,73,0
82810,set_tempo,,,,,30,1,0,,606060,,,,,,
82830,note_on,,,,,0,0,1,,,,,,0,56,40
82830,note_on,,,,,30,0,1,,,,,,0,44,0
82840,set_tempo,,,,,30,1,0,,594059,,,,,,
82860,note_on,,,,,30,0,1,,,,,,0,56,0
82860,note_on,,,,,0,0,1,,,,,,0,51,40
82890,note_on,,,,,30,0,1,,,,,,0,51,0
82890,note_on,,,,,0,0,1,,,,,,0,48,39
82900,set_tempo,,,,,60,1,0,,582524,,,,,,
82915,control_change,,,,,25,0,1,,,,64,0,0,,
82920,control_change,,,,,0,0,1,,,,64,95,0,,
82920,note_on,,,,,5,0,1,,,,,,0,48,0
82920,note_on,,,,,0,0,1,,,,,,0,72,0
82920,set_tempo,,,,,20,1,0,,571428,,,,,,
82920,note_on,,,,,0,0,1,,,,,,0,44,38
82920,note_on,,,,,0,0,1,,,,,,0,63,0
82920,note_on,,,,,0,0,1,,,,,,0,68,0
82940,set_tempo,,,,,20,1,0,,566037,,,,,,
82950,note_on,,,,,30,0,1,,,,,,0,44,0
82950,note_on,,,,,0,0,1,,,,,,0,56,36
82970,set_tempo,,,,,30,1,0,,555555,,,,,,
82980,note_on,,,,,30,0,1,,,,,,0,56,0
82980,note_on,,,,,0,0,1,,,,,,0,51,35
82990,set_tempo,,,,,20,1,0,,545454,,,,,,
83010,note_on,,,,,0,0,1,,,,,,0,48,35
83010,note_on,,,,,30,0,1,,,,,,0,51,0
83020,set_tempo,,,,,30,1,0,,540540,,,,,,
83030,set_tempo,,,,,10,1,0,,535714,,,,,,
83035,control_change,,,,,25,0,1,,,,64,0,0,,
83040,note_on,,,,,5,0,1,,,,,,0,48,0
83040,note_on,,,,,0,0,1,,,,,,0,44,37
83040,set_tempo,,,,,10,1,0,,530973,,,,,,
83040,control_change,,,,,0,0,1,,,,64,95,0,,
83060,set_tempo,,,,,20,1,0,,526315,,,,,,
83070,note_on,,,,,30,0,1,,,,,,0,44,0
83070,note_on,,,,,0,0,1,,,,,,0,56,38
83070,set_tempo,,,,,10,1,0,,521739,,,,,,
83080,set_tempo,,,,,10,1,0,,517241,,,,,,
83100,note_on,,,,,30,0,1,,,,,,0,56,0
83100,note_on,,,,,0,0,1,,,,,,0,51,39
83110,set_tempo,,,,,30,1,0,,512820,,,,,,
83120,set_tempo,,,,,10,1,0,,508474,,,,,,
83130,note_on,,,,,30,0,1,,,,,,0,51,0
83130,note_on,,,,,0,0,1,,,,,,0,48,40
83140,set_tempo,,,,,20,1,0,,500000,,,,,,
83150,set_tempo,,,,,10,1,0,,495867,,,,,,
83155,control_change,,,,,25,0,1,,,,64,0,0,,
83160,note_on,,,,,390,0,2,,,,,,0,68,38
83160,note_on,,,,,0,0,1,,,,,,0,44,41
83160,note_on,,,,,0,0,2,,,,,,0,80,38
83160,note_on,,,,,5,0,1,,,,,,0,48,0
83170,set_tempo,,,,,20,1,0,,491803,,,,,,
83182,note_on,,,,,22,0,1,,,,,,0,44,0
83190,note_on,,,,,8,0,1,,,,,,0,56,42
83210,set_tempo,,,,,40,1,0,,483870,,,,,,
83220,note_on,,,,,60,0,2,,,,,,0,80,0
83220,note_on,,,,,0,0,2,,,,,,0,68,0
83220,note_on,,,,,0,0,2,,,,,,0,67,40
83220,note_on,,,,,30,0,1,,,,,,0,56,0
83220,note_on,,,,,0,0,2,,,,,,0,79,40
83220,note_on,,,,,0,0,1,,,,,,0,51,43
83230,set_tempo,,,,,20,1,0,,480000,,,,,,
83250,note_on,,,,,0,0,1,,,,,,0,48,44
83250,note_on,,,,,30,0,1,,,,,,0,51,0
83280,note_on,,,,,60,0,2,,,,,,0,79,0
83280,note_on,,,,,0,0,2,,,,,,0,67,0
83280,note_on,,,,,0,0,2,,,,,,0,68,42
83280,note_on,,,,,0,0,2,,,,,,0,80,42
83280,control_change,,,,,0,0,1,,,,64,95,0,,
83280,note_on,,,,,0,0,1,,,,,,0,44,44
83280,note_on,,,,,30,0,1,,,,,,0,48,0
83300,set_tempo,,,,,70,1,0,,472440,,,,,,
83310,note_on,,,,,30,0,1,,,,,,0,44,0
83310,note_on,,,,,0,0,1,,,,,,0,56,46
83310,set_tempo,,,,,10,1,0,,468750,,,,,,
83320,set_tempo,,,,,10,1,0,,461538,,,,,,
83340,note_on,,,,,30,0,1,,,,,,0,56,0
83340,note_on,,,,,0,0,1,,,,,,0,51,48
83370,note_on,,,,,0,0,1,,,,,,0,48,49
83370,note_on,,,,,30,0,1,,,,,,0,51,0
83390,control_change,,,,,20,0,1,,,,64,0,0,,
83400,note_on,,,,,120,0,2,,,,,,0,80,0
83400,note_on,,,,,0,0,2,,,,,,0,69,44
83400,note_on,,,,,0,0,2,,,,,,0,81,44
83400,note_on,,,,,0,0,1,,,,,,0,42,50
83400,note_on,,,,,10,0,1,,,,,,0,48,0
83400,note_on,,,,,0,0,2,,,,,,0,68,0
83430,note_on,,,,,0,0,1,,,,,,0,54,51
83430,note_on,,,,,30,0,1,,,,,,0,42,0
83460,note_on,,,,,0,0,2,,,,,,0,68,47
83460,note_on,,,,,0,0,2,,,,,,0,80,47
83460,note_on,,,,,0,0,1,,,,,,0,51,53
83460,note_on,,,,,0,0,2,,,,,,0,69,0
83460,note_on,,,,,60,0,2,,,,,,0,81,0
83460,note_on,,,,,30,0,1,,,,,,0,54,0
83490,note_on,,,,,30,0,1,,,,,,0,51,0
83490,note_on,,,,,0,0,1,,,,,,0,48,54
83520,note_on,,,,,0,0,2,,,,,,0,69,49
83520,note_on,,,,,30,0,1,,,,,,0,48,0
83520,note_on,,,,,0,0,1,,,,,,0,42,54
83520,control_change,,,,,0,0,1,,,,64,95,0,,
83520,note_on,,,,,60,0,2,,,,,,0,80,0
83520,note_on,,,,,0,0,2,,,,,,0,68,0
83520,note_on,,,,,0,0,2,,,,,,0,81,49
83542,note_on,,,,,22,0,1,,,,,,0,42,0
83550,note_on,,,,,8,0,1,,,,,,0,54,54
83580,note_on,,,,,30,0,1,,,,,,0,54,0
83580,note_on,,,,,0,0,1,,,,,,0,51,53
83610,note_on,,,,,0,0,2,,,,,,0,69,0
83610,note_on,,,,,0,0,1,,,,,,0,48,52
83610,note_on,,,,,30,0,1,,,,,,0,51,0
83610,note_on,,,,,90,0,2,,,,,,0,81,0
83630,control_change,,,,,20,0,1,,,,64,0,0,,
83640,note_on,,,,,0,0,2,,,,,,0,81,49
83640,note_on,,,,,30,0,2,,,,,,0,69,49
83640,note_on,,,,,10,0,1,,,,,,0,48,0
83640,note_on,,,,,0,0,1,,,,,,0,41,51
83670,note_on,,,,,30,0,1,,,,,,0,41,0
83670,note_on,,,,,0,0,1,,,,,,0,53,49
83700,note_on,,,,,0,0,2,,,,,,0,69,0
83700,note_on,,,,,0,0,2,,,,,,0,70,47
83700,note_on,,,,,0,0,2,,,,,,0,82,47
83700,note_on,,,,,30,0,1,,,,,,0,53,0
83700,note_on,,,,,0,0,1,,,,,,0,51,48
83700,note_on,,,,,60,0,2,,,,,,0,81,0
83730,note_on,,,,,30,0,1,,,,,,0,51,0
83730,note_on,,,,,0,0,1,,,,,,0,48,47
83760,note_on,,,,,0,0,1,,,,,,0,42,45
83760,note_on,,,,,0,0,2,,,,,,0,70,0
83760,note_on,,,,,0,0,2,,,,,,0,69,45
83760,note_on,,,,,0,0,2,,,,,,0,81,45
83760,note_on,,,,,30,0,1,,,,,,0,48,0
83760,note_on,,,,,60,0,2,,,,,,0,82,0
83790,note_on,,,,,0,0,1,,,,,,0,53,44
83790,note_on,,,,,30,0,1,,,,,,0,42,0
83820,note_on,,,,,60,0,2,,,,,,0,81,0
83820,note_on,,,,,0,0,2,,,,,,0,69,0
83820,note_on,,,,,30,0,1,,,,,,0,53,0
83820,note_on,,,,,0,0,2,,,,,,0,65,44
83820,note_on,,,,,0,0,1,,,,,,0,51,43
83820,note_on,,,,,0,0,2,,,,,,0,77,44
83850,note_on,,,,,30,0,1,,,,,,0,51,0
83850,set_tempo,,,,,530,1,0,,472440,,,,,,
83850,note_on,,,,,0,0,1,,,,,,0,48,43
83870,set_tempo,,,,,20,1,0,,476190,,,,,,
83880,note_on,,,,,60,0,2,,,,,,0,77,0
83880,note_on,,,,,0,0,1,,,,,,0,46,43
83880,note_on,,,,,0,0,2,,,,,,0,82,43
83880,note_on,,,,,0,0,2,,,,,,0,70,43
83880,note_on,,,,,0,0,2,,,,,,0,65,0
83880,note_on,,,,,30,0,1,,,,,,0,48,0
83890,set_tempo,,,,,20,1,0,,480000,,,,,,
83902,note_on,,,,,22,0,1,,,,,,0,46,0
83910,note_on,,,,,8,0,1,,,,,,0,58,43
83940,note_on,,,,,0,0,2,,,,,,0,69,50
83940,note_on,,,,,0,0,2,,,,,,0,81,50
83940,note_on,,,,,0,0,2,,,,,,0,70,0
83940,note_on,,,,,0,0,1,,,,,,0,53,43
83940,note_on,,,,,30,0,1,,,,,,0,58,0
83940,note_on,,,,,60,0,2,,,,,,0,82,0
83960,set_tempo,,,,,70,1,0,,483870,,,,,,
83970,note_on,,,,,0,0,1,,,,,,0,50,43
83970,note_on,,,,,30,0,1,,,,,,0,53,0
83990,set_tempo,,,,,30,1,0,,487804,,,,,,
84000,note_on,,,,,30,0,1,,,,,,0,50,0
84000,note_on,,,,,0,0,2,,,,,,0,70,55
84000,note_on,,,,,0,0,2,,,,,,0,82,55
84000,note_on,,,,,0,0,2,,,,,,0,69,0
84000,note_on,,,,,60,0,2,,,,,,0,81,0
84000,note_on,,,,,0,0,1,,,,,,0,46,43
84020,set_tempo,,,,,30,1,0,,491803,,,,,,
84030,note_on,,,,,30,0,1,,,,,,0,46,0
84030,note_on,,,,,0,0,1,,,,,,0,58,44
84031,set_tempo,,,,,11,1,0,,504201,,,,,,
84041,set_tempo,,,,,10,1,0,,508474,,,,,,
84060,note_on,,,,,0,0,2,,,,,,0,82,63
84060,note_on,,,,,0,0,2,,,,,,0,70,0
84060,note_on,,,,,60,0,2,,,,,,0,82,0
84060,note_on,,,,,0,0,2,,,,,,0,94,63
84060,note_on,,,,,0,0,1,,,,,,0,53,46
84060,note_on,,,,,30,0,1,,,,,,0,58,0
84061,set_tempo,,,,,20,1,0,,517241,,,,,,
84081,set_tempo,,,,,20,1,0,,526315,,,,,,
84090,note_on,,,,,0,0,1,,,,,,0,50,48
84090,note_on,,,,,30,0,1,,,,,,0,53,0
84091,set_tempo,,,,,10,1,0,,530973,,,,,,
84120,note_on,,,,,0,0,2,,,,,,0,83,71
84120,note_on,,,,,30,0,1,,,,,,0,50,0
84120,note_on,,,,,0,0,2,,,,,,0,94,0
84120,note_on,,,,,0,0,2,,,,,,0,95,71
84120,note_on,,,,,0,0,1,,,,,,0,46,49
84120,note_on,,,,,60,0,2,,,,,,0,82,0
84150,note_on,,,,,0,0,1,,,,,,0,58,51
84150,note_on,,,,,30,0,1,,,,,,0,46,0
84151,set_tempo,,,,,60,1,0,,540540,,,,,,
84161,set_tempo,,,,,10,1,0,,550458,,,,,,
84180,note_on,,,,,0,0,1,,,,,,0,53,53
84180,note_on,,,,,30,0,1,,,,,,0,58,0
84180,note_on,,,,,0,0,2,,,,,,0,94,81
84180,note_on,,,,,0,0,2,,,,,,0,82,81
84180,note_on,,,,,0,0,2,,,,,,0,95,0
84180,note_on,,,,,60,0,2,,,,,,0,83,0
84181,set_tempo,,,,,20,1,0,,582524,,,,,,
84201,set_tempo,,,,,20,1,0,,594059,,,,,,
84210,note_on,,,,,0,0,1,,,,,,0,50,54
84210,note_on,,,,,30,0,1,,,,,,0,53,0
84211,set_tempo,,,,,10,1,0,,606060,,,,,,
84221,set_tempo,,,,,10,1,0,,612244,,,,,,
84231,set_tempo,,,,,10,1,0,,631578,,,,,,
84240,note_on,,,,,0,0,1,,,,,,0,46,55
84240,note_on,,,,,60,0,2,,,,,,0,82,0
84240,note_on,,,,,30,0,1,,,,,,0,50,0
84240,note_on,,,,,0,0,2,,,,,,0,83,87
84240,note_on,,,,,0,0,2,,,,,,0,95,87
84240,note_on,,,,,0,0,2,,,,,,0,94,0
84241,set_tempo,,,,,10,1,0,,652173,,,,,,
84251,set_tempo,,,,,10,1,0,,666666,,,,,,
84261,set_tempo,,,,,10,1,0,,652173,,,,,,
84262,note_on,,,,,22,0,1,,,,,,0,46,0
84270,note_on,,,,,8,0,1,,,,,,0,58,57
84271,set_tempo,,,,,10,1,0,,600000,,,,,,
84291,set_tempo,,,,,20,1,0,,566037,,,,,,
84300,note_on,,,,,0,0,1,,,,,,0,53,59
84300,note_on,,,,,30,0,1,,,,,,0,58,0
84300,note_on,,,,,0,0,2,,,,,,0,83,85
84300,note_on,,,,,0,0,2,,,,,,0,71,85
84300,note_on,,,,,60,0,2,,,,,,0,83,0
84300,note_on,,,,,0,0,2,,,,,,0,95,0
84301,set_tempo,,,,,10,1,0,,555555,,,,,,
84311,set_tempo,,,,,10,1,0,,540540,,,,,,
84321,set_tempo,,,,,10,1,0,,512820,,,,,,
84330,note_on,,,,,30,0,1,,,,,,0,53,0
84330,note_on,,,,,0,0,1,,,,,,0,51,61
84341,set_tempo,,,,,20,1,0,,487804,,,,,,
84351,set_tempo,,,,,10,1,0,,480000,,,,,,
84360,note_on,,,,,0,0,2,,,,,,0,72,83
84360,note_on,,,,,0,0,2,,,,,,0,84,83
84360,note_on,,,,,0,0,2,,,,,,0,71,0
84360,note_on,,,,,60,0,2,,,,,,0,83,0
84360,note_on,,,,,0,0,1,,,,,,0,45,62
84360,note_on,,,,,30,0,1,,,,,,0,51,0
84390,note_on,,,,,30,0,1,,,,,,0,45,0
84390,note_on,,,,,0,0,1,,,,,,0,57,63
84420,note_on,,,,,30,0,1,,,,,,0,57,0
84420,note_on,,,,,0,0,1,,,,,,0,54,65
84420,note_on,,,,,0,0,2,,,,,,0,85,77
84420,note_on,,,,,0,0,2,,,,,,0,73,77
84420,note_on,,,,,0,0,2,,,,,,0,72,0
84420,note_on,,,,,60,0,2,,,,,,0,84,0
84431,set_tempo,,,,,80,1,0,,483870,,,,,,
84450,note_on,,,,,0,0,1,,,,,,0,51,63
84450,note_on,,,,,30,0,1,,,,,,0,54,0
84461,set_tempo,,,,,30,1,0,,491803,,,,,,
84480,note_on,,,,,60,0,2,,,,,,0,85,0
84480,note_on,,,,,0,0,2,,,,,,0,73,0
84480,note_on,,,,,0,0,2,,,,,,0,72,70
84480,note_on,,,,,0,0,2,,,,,,0,84,70
84480,note_on,,,,,30,0,1,,,,,,0,51,0
84480,note_on,,,,,0,0,1,,,,,,0,44,61
84501,set_tempo,,,,,40,1,0,,495867,,,,,,
84510,note_on,,,,,0,0,1,,,,,,0,56,60
84510,note_on,,,,,30,0,1,,,,,,0,44,0
84511,set_tempo,,,,,10,1,0,,500000,,,,,,
84540,note_on,,,,,0,0,2,,,,,,0,80,65
84540,note_on,,,,,0,0,2,,,,,,0,68,65
84540,note_on,,,,,0,0,2,,,,,,0,72,0
84540,note_on,,,,,60,0,2,,,,,,0,84,0
84540,note_on,,,,,30,0,1,,,,,,0,56,0
84540,note_on,,,,,0,0,1,,,,,,0,54,51
84551,set_tempo,,,,,40,1,0,,508474,,,,,,
84570,note_on,,,,,30,0,1,,,,,,0,54,0
84570,note_on,,,,,0,0,1,,,,,,0,51,44
84581,set_tempo,,,,,30,1,0,,582524,,,,,,
84600,note_on,,,,,60,0,2,,,,,,0,80,0
84600,note_on,,,,,0,0,2,,,,,,0,68,0
84600,note_on,,,,,0,0,2,,,,,,0,73,43
84600,note_on,,,,,0,0,1,,,,,,0,49,41
84600,note_on,,,,,30,0,1,,,,,,0,51,0
84600,note_on,,,,,0,0,2,,,,,,0,85,43
84601,set_tempo,,,,,20,1,0,,500000,,,,,,
84622,note_on,,,,,22,0,1,,,,,,0,49,0
84630,note_on,,,,,8,0,1,,,,,,0,61,41
84660,note_on,,,,,60,0,2,,,,,,0,85,0
84660,note_on,,,,,30,0,1,,,,,,0,61,0
84660,note_on,,,,,0,0,1,,,,,,0,56,42
84660,note_on,,,,,0,0,2,,,,,,0,73,0
84660,note_on,,,,,0,0,2,,,,,,0,86,49
84660,note_on,,,,,0,0,2,,,,,,0,74,49
84690,note_on,,,,,0,0,1,,,,,,0,53,44
84690,note_on,,,,,30,0,1,,,,,,0,56,0
84720,note_on,,,,,0,0,2,,,,,,0,75,54
84720,note_on,,,,,0,0,2,,,,,,0,74,0
84720,note_on,,,,,60,0,2,,,,,,0,86,0
84720,note_on,,,,,0,0,2,,,,,,0,87,54
84720,control_change,,,,,0,0,1,,,,64,96,0,,
84720,note_on,,,,,0,0,1,,,,,,0,49,47
84720,note_on,,,,,30,0,1,,,,,,0,53,0
84750,note_on,,,,,30,0,1,,,,,,0,49,0
84750,note_on,,,,,0,0,1,,,,,,0,61,47
84780,note_on,,,,,0,0,2,,,,,,0,74,50
84780,note_on,,,,,30,0,1,,,,,,0,61,0
84780,control_change,,,,,0,0,1,,,,64,0,0,,
84780,note_on,,,,,0,0,1,,,,,,0,56,47
84780,note_on,,,,,0,0,2,,,,,,0,86,50
84780,note_on,,,,,0,0,2,,,,,,0,75,0
84780,note_on,,,,,60,0,2,,,,,,0,87,0
84791,set_tempo,,,,,190,1,0,,504201,,,,,,
84810,note_on,,,,,0,0,1,,,,,,0,54,47
84810,note_on,,,,,30,0,1,,,,,,0,56,0
84821,set_tempo,,,,,30,1,0,,508474,,,,,,
84840,note_on,,,,,0,0,2,,,,,,0,87,47
84840,note_on,,,,,0,0,1,,,,,,0,48,46
84840,note_on,,,,,0,0,2,,,,,,0,75,47
84840,note_on,,,,,0,0,2,,,,,,0,74,0
84840,note_on,,,,,60,0,2,,,,,,0,86,0
84840,note_on,,,,,30,0,1,,,,,,0,54,0
84851,set_tempo,,,,,30,1,0,,512820,,,,,,
84861,set_tempo,,,,,10,1,0,,517241,,,,,,
84870,note_on,,,,,30,0,1,,,,,,0,48,0
84870,note_on,,,,,0,0,1,,,,,,0,60,45
84891,set_tempo,,,,,30,1,0,,521739,,,,,,
84900,note_on,,,,,0,0,2,,,,,,0,92,44
84900,note_on,,,,,0,0,2,,,,,,0,80,44
84900,note_on,,,,,0,0,2,,,,,,0,75,0
84900,note_on,,,,,60,0,2,,,,,,0,87,0
84900,note_on,,,,,0,0,1,,,,,,0,56,43
84900,note_on,,,,,30,0,1,,,,,,0,60,0
84901,set_tempo,,,,,10,1,0,,526315,,,,,,
84930,note_on,,,,,30,0,1,,,,,,0,56,0
84930,note_on,,,,,0,0,1,,,,,,0,54,42
84941,set_tempo,,,,,40,1,0,,535714,,,,,,
84945,note_on,,,,,45,0,2,,,,,,0,92,0
84951,set_tempo,,,,,10,1,0,,530973,,,,,,
84960,note_on,,,,,0,0,2,,,,,,0,73,41
84960,note_on,,,,,15,0,2,,,,,,0,80,0
84960,note_on,,,,,0,0,1,,,,,,0,49,41
84960,note_on,,,,,30,0,1,,,,,,0,54,0
84982,note_on,,,,,22,0,1,,,,,,0,49,0
84990,note_on,,,,,8,0,1,,,,,,0,61,39
84991,set_tempo,,,,,40,1,0,,526315,,,,,,
85001,set_tempo,,,,,10,1,0,,521739,,,,,,
85020,note_on,,,,,0,0,1,,,,,,0,56,37
85020,note_on,,,,,0,0,2,,,,,,0,74,44
85020,note_on,,,,,60,0,2,,,,,,0,73,0
85020,note_on,,,,,30,0,1,,,,,,0,61,0
85041,set_tempo,,,,,40,1,0,,517241,,,,,,
85050,note_on,,,,,0,0,1,,,,,,0,53,37
85050,note_on,,,,,30,0,1,,,,,,0,56,0
85080,note_on,,,,,30,0,1,,,,,,0,53,0
85080,note_on,,,,,0,0,2,,,,,,0,63,44
85080,note_on,,,,,0,0,2,,,,,,0,75,44
85080,note_on,,,,,60,0,2,,,,,,0,74,0
85080,note_on,,,,,0,0,1,,,,,,0,49,36
85080,control_change,,,,,0,0,1,,,,64,94,0,,
85110,note_on,,,,,0,0,1,,,,,,0,61,35
85110,note_on,,,,,30,0,1,,,,,,0,49,0
85121,set_tempo,,,,,80,1,0,,508474,,,,,,
85140,note_on,,,,,0,0,1,,,,,,0,56,34
85140,note_on,,,,,30,0,1,,,,,,0,61,0
85140,note_on,,,,,0,0,2,,,,,,0,62,41
85140,note_on,,,,,0,0,2,,,,,,0,63,0
85140,note_on,,,,,60,0,2,,,,,,0,75,0
85140,note_on,,,,,0,0,2,,,,,,0,74,41
85141,set_tempo,,,,,20,1,0,,504201,,,,,,
85145,control_change,,,,,5,0,1,,,,64,0,0,,
85170,note_on,,,,,25,0,1,,,,,,0,56,0
85170,note_on,,,,,0,0,1,,,,,,0,54,34
85181,set_tempo,,,,,40,1,0,,500000,,,,,,
85200,note_on,,,,,30,0,1,,,,,,0,54,0
85200,note_on,,,,,0,0,1,,,,,,0,48,34
85200,note_on,,,,,60,0,2,,,,,,0,74,0
85200,note_on,,,,,0,0,2,,,,,,0,62,0
85200,note_on,,,,,0,0,2,,,,,,0,63,40
85200,note_on,,,,,0,0,2,,,,,,0,75,40
85230,note_on,,,,,0,0,1,,,,,,0,60,34
85230,note_on,,,,,30,0,1,,,,,,0,48,0
85260,note_on,,,,,60,0,2,,,,,,0,75,0
85260,note_on,,,,,0,0,2,,,,,,0,63,0
85260,note_on,,,,,0,0,2,,,,,,0,68,36
85260,note_on,,,,,0,0,2,,,,,,0,80,36
85260,note_on,,,,,30,0,1,,,,,,0,60,0
85260,note_on,,,,,0,0,1,,,,,,0,56,34
85261,set_tempo,,,,,80,1,0,,495867,,,,,,
85290,note_on,,,,,30,0,1,,,,,,0,56,0
85290,note_on,,,,,0,0,1,,,,,,0,54,34
85305,note_on,,,,,45,0,2,,,,,,0,80,0
85305,note_on,,,,,0,0,2,,,,,,0,68,0
85311,set_tempo,,,,,50,1,0,,491803,,,,,,
85320,note_on,,,,,0,0,1,,,,,,0,65,34
85320,note_on,,,,,30,0,1,,,,,,0,54,0
85320,note_on,,,,,15,0,2,,,,,,0,49,48
85330,set_tempo,,,,,19,1,0,,476190,,,,,,
85350,set_tempo,,,,,20,1,0,,480000,,,,,,
85350,note_on,,,,,0,0,1,,,,,,0,73,34
85350,note_on,,,,,30,0,1,,,,,,0,65,0
85360,set_tempo,,,,,10,1,0,,483870,,,,,,
85380,note_on,,,,,60,0,2,,,,,,0,49,0
85380,note_on,,,,,0,0,2,,,,,,0,56,47
85380,note_on,,,,,30,0,1,,,,,,0,73,0
85380,set_tempo,,,,,20,1,0,,487804,,,,,,
85380,note_on,,,,,0,0,1,,,,,,0,64,35
85400,set_tempo,,,,,20,1,0,,491803,,,,,,
85410,note_on,,,,,30,0,1,,,,,,0,64,0
85410,note_on,,,,,0,0,1,,,,,,0,72,35
85420,set_tempo,,,,,20,1,0,,495867,,,,,,
85440,note_on,,,,,0,0,1,,,,,,0,65,36
85440,note_on,,,,,0,0,2,,,,,,0,61,51
85440,note_on,,,,,60,0,2,,,,,,0,56,0
85440,note_on,,,,,30,0,1,,,,,,0,72,0
85470,note_on,,,,,0,0,1,,,,,,0,73,36
85470,note_on,,,,,30,0,1,,,,,,0,65,0
85480,set_tempo,,,,,60,1,0,,521739,,,,,,
85500,note_on,,,,,30,0,1,,,,,,0,73,0
85500,note_on,,,,,0,0,1,,,,,,0,69,37
85500,note_on,,,,,0,0,2,,,,,,0,59,49
85500,note_on,,,,,60,0,2,,,,,,0,61,0
85530,note_on,,,,,30,0,1,,,,,,0,69,0
85530,note_on,,,,,0,0,1,,,,,,0,74,39
85540,set_tempo,,,,,60,1,0,,530973,,,,,,
85550,set_tempo,,,,,10,1,0,,535714,,,,,,
85560,note_on,,,,,0,0,2,,,,,,0,58,47
85560,note_on,,,,,60,0,2,,,,,,0,59,0
85560,note_on,,,,,30,0,1,,,,,,0,74,0
85560,note_on,,,,,0,0,1,,,,,,0,66,40
85590,note_on,,,,,30,0,1,,,,,,0,66,0
85590,note_on,,,,,0,0,1,,,,,,0,75,40
85610,set_tempo,,,,,60,1,0,,540540,,,,,,
85620,note_on,,,,,30,0,1,,,,,,0,75,0
85620,note_on,,,,,0,0,1,,,,,,0,65,40
85650,note_on,,,,,0,0,1,,,,,,0,74,40
85650,note_on,,,,,30,0,1,,,,,,0,65,0
85670,set_tempo,,,,,60,1,0,,571428,,,,,,
85680,note_on,,,,,30,0,1,,,,,,0,74,0
85680,note_on,,,,,0,0,1,,,,,,0,66,40
85690,set_tempo,,,,,20,1,0,,582524,,,,,,
85710,note_on,,,,,30,0,1,,,,,,0,66,0
85710,note_on,,,,,0,0,1,,,,,,0,75,39
85710,set_tempo,,,,,20,1,0,,594059,,,,,,
85720,set_tempo,,,,,10,1,0,,600000,,,,,,
85740,note_on,,,,,0,0,2,,,,,,0,57,47
85740,note_on,,,,,180,0,2,,,,,,0,58,0
85740,note_on,,,,,0,0,1,,,,,,0,67,38
85740,note_on,,,,,0,0,1,,,,,,0,73,38
85740,note_on,,,,,30,0,1,,,,,,0,75,0
85770,note_on,,,,,30,0,1,,,,,,0,73,0
85770,note_on,,,,,0,0,1,,,,,,0,75,38
85770,note_on,,,,,0,0,1,,,,,,0,67,0
85780,set_tempo,,,,,60,1,0,,612244,,,,,,
85800,set_tempo,,,,,20,1,0,,625000,,,,,,
85800,note_on,,,,,60,0,2,,,,,,0,57,0
85800,note_on,,,,,30,0,1,,,,,,0,75,0
85800,note_on,,,,,0,0,2,,,,,,0,56,45
85800,note_on,,,,,0,0,1,,,,,,0,68,38
85800,note_on,,,,,0,0,1,,,,,,0,73,38
85830,note_on,,,,,0,0,1,,,,,,0,75,38
85830,note_on,,,,,0,0,1,,,,,,0,68,0
85830,note_on,,,,,30,0,1,,,,,,0,73,0
85840,set_tempo,,,,,40,1,0,,666666,,,,,,
85860,note_on,,,,,0,0,1,,,,,,0,70,36
85860,note_on,,,,,0,0,1,,,,,,0,73,36
85860,note_on,,,,,30,0,1,,,,,,0,75,0
85860,note_on,,,,,60,0,2,,,,,,0,56,0
85860,note_on,,,,,0,0,2,,,,,,0,55,42
85890,note_on,,,,,0,0,1,,,,,,0,73,0
85890,note_on,,,,,30,0,1,,,,,,0,70,0
85890,note_on,,,,,0,0,1,,,,,,0,77,35
85900,set_tempo,,,,,60,1,0,,714285,,,,,,
85920,note_on,,,,,60,0,2,,,,,,0,55,0
85920,set_tempo,,,,,20,1,0,,731707,,,,,,
85920,note_on,,,,,0,0,2,,,,,,0,56,39
85920,note_on,,,,,30,0,1,,,,,,0,77,0
85920,control_change,,,,,0,0,1,,,,64,96,0,,
85920,note_on,,,,,0,0,1,,,,,,0,73,34
85920,note_on,,,,,0,0,1,,,,,,0,68,34
85950,set_tempo,,,,,30,1,0,,750000,,,,,,
85950,note_on,,,,,0,0,1,,,,,,0,78,33
85950,note_on,,,,,0,0,1,,,,,,0,68,0
85950,note_on,,,,,30,0,1,,,,,,0,73,0
85980,note_on,,,,,0,0,1,,,,,,0,72,32
85980,note_on,,,,,0,0,1,,,,,,0,68,32
85980,note_on,,,,,30,0,1,,,,,,0,78,0
86010,note_on,,,,,0,0,1,,,,,,0,78,31
86010,note_on,,,,,0,0,1,,,,,,0,68,0
86010,note_on,,,,,90,0,2,,,,,,0,56,0
86010,set_tempo,,,,,60,1,0,,769230,,,,,,
86010,note_on,,,,,30,0,1,,,,,,0,72,0
86020,set_tempo,,,,,10,1,0,,779220,,,,,,
86040,note_on,,,,,0,0,1,,,,,,0,68,38
86040,note_on,,,,,30,0,2,,,,,,0,49,31
86040,note_on,,,,,30,0,1,,,,,,0,78,0
86040,note_on,,,,,0,0,1,,,,,,0,73,38
86040,control_change,,,,,0,0,1,,,,64,0,0,,
86040,note_on,,,,,0,0,1,,,,,,0,77,38
86050,set_tempo,,,,,30,1,0,,731707,,,,,,
86060,set_tempo,,,,,10,1,0,,722891,,,,,,
86070,set_tempo,,,,,10,1,0,,697674,,,,,,
86080,set_tempo,,,,,10,1,0,,681818,,,,,,
86085,note_on,,,,,0,0,1,,,,,,0,68,0
86085,note_on,,,,,0,0,1,,,,,,0,73,0
86085,note_on,,,,,45,0,1,,,,,,0,77,0
86090,set_tempo,,,,,10,1,0,,674157,,,,,,
86100,note_on,,,,,60,0,2,,,,,,0,49,0
86100,note_on,,,,,15,0,1,,,,,,0,85,38
86100,set_tempo,,,,,10,1,0,,666666,,,,,,
86100,note_on,,,,,0,0,2,,,,,,0,48,38
86110,set_tempo,,,,,10,1,0,,652173,,,,,,
86120,set_tempo,,,,,10,1,0,,638297,,,,,,
86130,note_on,,,,,0,0,1,,,,,,0,84,36
86130,note_on,,,,,30,0,1,,,,,,0,85,0
86130,set_tempo,,,,,10,1,0,,631578,,,,,,
86140,set_tempo,,,,,10,1,0,,625000,,,,,,
86150,set_tempo,,,,,10,1,0,,618556,,,,,,
86160,set_tempo,,,,,10,1,0,,588235,,,,,,
86160,note_on,,,,,0,0,2,,,,,,0,49,41
86160,note_on,,,,,0,0,1,,,,,,0,83,33
86160,note_on,,,,,60,0,2,,,,,,0,48,0
86160,note_on,,,,,30,0,1,,,,,,0,84,0
86170,set_tempo,,,,,10,1,0,,582524,,,,,,
86190,note_on,,,,,0,0,1,,,,,,0,82,32
86190,note_on,,,,,30,0,1,,,,,,0,83,0
86200,set_tempo,,,,,30,1,0,,576923,,,,,,
86210,set_tempo,,,,,10,1,0,,571428,,,,,,
86220,note_on,,,,,30,0,1,,,,,,0,82,0
86220,note_on,,,,,0,0,1,,,,,,0,81,34
86220,set_tempo,,,,,10,1,0,,566037,,,,,,
86240,set_tempo,,,,,20,1,0,,560747,,,,,,
86250,set_tempo,,,,,10,1,0,,555555,,,,,,
86250,note_on,,,,,0,0,1,,,,,,0,80,35
86250,note_on,,,,,30,0,1,,,,,,0,81,0
86260,set_tempo,,,,,10,1,0,,550458,,,,,,
86280,note_on,,,,,0,0,2,,,,,,0,50,32
86280,note_on,,,,,0,0,1,,,,,,0,79,36
86280,note_on,,,,,120,0,2,,,,,,0,49,0
86280,note_on,,,,,30,0,1,,,,,,0,80,0
86280,set_tempo,,,,,20,1,0,,545454,,,,,,
86290,set_tempo,,,,,10,1,0,,540540,,,,,,
86310,note_on,,,,,30,0,1,,,,,,0,79,0
86310,note_on,,,,,0,0,1,,,,,,0,78,38
86320,set_tempo,,,,,30,1,0,,535714,,,,,,
86330,set_tempo,,,,,10,1,0,,530973,,,,,,
86340,note_on,,,,,60,0,2,,,,,,0,50,0
86340,note_on,,,,,0,0,2,,,,,,0,49,40
86340,note_on,,,,,30,0,1,,,,,,0,78,0
86340,note_on,,,,,0,0,1,,,,,,0,77,39
86370,set_tempo,,,,,40,1,0,,526315,,,,,,
86370,note_on,,,,,30,0,1,,,,,,0,77,0
86370,note_on,,,,,0,0,1,,,,,,0,78,40
86400,note_on,,,,,0,0,1,,,,,,0,79,40
86400,note_on,,,,,60,0,2,,,,,,0,49,0
86400,note_on,,,,,0,0,2,,,,,,0,50,44
86400,note_on,,,,,30,0,1,,,,,,0,78,0
86410,set_tempo,,,,,40,1,0,,521739,,,,,,
86430,note_on,,,,,30,0,1,,,,,,0,79,0
86430,note_on,,,,,0,0,1,,,,,,0,78,39
86460,note_on,,,,,0,0,2,,,,,,0,49,38
86460,note_on,,,,,0,0,1,,,,,,0,77,38
86460,note_on,,,,,30,0,1,,,,,,0,78,0
86460,note_on,,,,,60,0,2,,,,,,0,50,0
86490,note_on,,,,,30,0,1,,,,,,0,77,0
86490,set_tempo,,,,,80,1,0,,517241,,,,,,
86490,note_on,,,,,0,0,1,,,,,,0,76,35
86520,note_on,,,,,0,0,2,,,,,,0,48,35
86520,note_on,,,,,0,0,1,,,,,,0,75,33
86520,note_on,,,,,60,0,2,,,,,,0,49,0
86520,note_on,,,,,30,0,1,,,,,,0,76,0
86530,set_tempo,,,,,40,1,0,,512820,,,,,,
86550,note_on,,,,,30,0,1,,,,,,0,75,0
86550,note_on,,,,,0,0,1,,,,,,0,73,33
86570,set_tempo,,,,,40,1,0,,508474,,,,,,
86580,note_on,,,,,0,0,2,,,,,,0,49,34
86580,note_on,,,,,60,0,2,,,,,,0,48,0
86580,note_on,,,,,30,0,1,,,,,,0,73,0
86580,note_on,,,,,0,0,1,,,,,,0,72,32
86610,note_on,,,,,30,0,1,,,,,,0,72,0
86610,note_on,,,,,0,0,1,,,,,,0,69,32
86610,set_tempo,,,,,40,1,0,,504201,,,,,,
86640,note_on,,,,,30,0,1,,,,,,0,69,0
86640,note_on,,,,,0,0,1,,,,,,0,68,33
86640,note_on,,,,,60,0,2,,,,,,0,49,0
86640,note_on,,,,,0,0,2,,,,,,0,48,36
86670,note_on,,,,,30,0,1,,,,,,0,68,0
86670,note_on,,,,,0,0,1,,,,,,0,69,37
86700,note_on,,,,,60,0,2,,,,,,0,48,0
86700,note_on,,,,,0,0,1,,,,,,0,68,39
86700,note_on,,,,,30,0,1,,,,,,0,69,0
86700,note_on,,,,,0,0,2,,,,,,0,44,40
86720,set_tempo,,,,,110,1,0,,500000,,,,,,
86730,note_on,,,,,0,0,1,,,,,,0,66,40
86730,note_on,,,,,30,0,1,,,,,,0,68,0
86750,set_tempo,,,,,30,1,0,,508474,,,,,,
86760,note_on,,,,,0,0,1,,,,,,0,65,38
86760,note_on,,,,,0,0,2,,,,,,0,49,44
86760,note_on,,,,,30,0,1,,,,,,0,66,0
86760,note_on,,,,,60,0,2,,,,,,0,44,0
86770,set_tempo,,,,,20,1,0,,512820,,,,,,
86790,note_on,,,,,30,0,1,,,,,,0,65,0
86790,note_on,,,,,0,0,1,,,,,,0,64,39
86790,set_tempo,,,,,20,1,0,,517241,,,,,,
86820,note_on,,,,,60,0,2,,,,,,0,49,0
86820,note_on,,,,,0,0,2,,,,,,0,48,45
86820,note_on,,,,,30,0,1,,,,,,0,64,0
86820,note_on,,,,,0,0,1,,,,,,0,65,37
86840,set_tempo,,,,,50,1,0,,521739,,,,,,
86850,note_on,,,,,30,0,1,,,,,,0,65,0
86850,note_on,,,,,0,0,1,,,,,,0,66,35
86880,note_on,,,,,30,0,1,,,,,,0,66,0
86880,note_on,,,,,0,0,1,,,,,,0,67,34
86880,note_on,,,,,60,0,2,,,,,,0,48,0
86880,note_on,,,,,0,0,2,,,,,,0,47,41
86890,set_tempo,,,,,50,1,0,,526315,,,,,,
86910,note_on,,,,,0,0,1,,,,,,0,66,33
86910,note_on,,,,,30,0,1,,,,,,0,67,0
86920,set_tempo,,,,,30,1,0,,530973,,,,,,
86930,set_tempo,,,,,10,1,0,,530973,,,,,,
86940,note_on,,,,,60,0,2,,,,,,0,47,0
86940,note_on,,,,,0,0,2,,,,,,0,48,38
86940,note_on,,,,,0,0,1,,,,,,0,67,33
86940,note_on,,,,,30,0,1,,,,,,0,66,0
86950,set_tempo,,,,,20,1,0,,535714,,,,,,
86960,set_tempo,,,,,10,1,0,,540540,,,,,,
86970,note_on,,,,,0,0,1,,,,,,0,68,35
86970,note_on,,,,,30,0,1,,,,,,0,67,0
86990,set_tempo,,,,,30,1,0,,545454,,,,,,
87000,note_on,,,,,0,0,2,,,,,,0,47,35
87000,note_on,,,,,0,0,1,,,,,,0,67,38
87000,note_on,,,,,30,0,1,,,,,,0,68,0
87000,set_tempo,,,,,10,1,0,,550458,,,,,,
87000,note_on,,,,,60,0,2,,,,,,0,48,0
87020,set_tempo,,,,,20,1,0,,555555,,,,,,
87030,note_on,,,,,30,0,1,,,,,,0,67,0
87030,note_on,,,,,0,0,1,,,,,,0,71,40
87040,set_tempo,,,,,20,1,0,,566037,,,,,,
87050,set_tempo,,,,,10,1,0,,571428,,,,,,
87060,note_on,,,,,30,0,1,,,,,,0,71,0
87060,note_on,,,,,60,0,2,,,,,,0,47,0
87060,note_on,,,,,0,0,1,,,,,,0,74,41
87060,note_on,,,,,0,0,2,,,,,,0,43,32
87070,set_tempo,,,,,20,1,0,,576923,,,,,,
87080,set_tempo,,,,,10,1,0,,588235,,,,,,
87090,note_on,,,,,0,0,1,,,,,,0,77,42
87090,set_tempo,,,,,10,1,0,,600000,,,,,,
87090,note_on,,,,,30,0,1,,,,,,0,74,0
87105,note_on,,,,,45,0,2,,,,,,0,43,0
87110,set_tempo,,,,,20,1,0,,618556,,,,,,
87120,note_on,,,,,30,0,1,,,,,,0,77,0
87120,note_on,,,,,0,0,1,,,,,,0,67,38
87120,note_on,,,,,0,0,1,,,,,,0,72,38
87120,note_on,,,,,0,0,1,,,,,,0,76,38
87120,set_tempo,,,,,10,1,0,,600000,,,,,,
87120,note_on,,,,,15,0,2,,,,,,0,48,31
87130,set_tempo,,,,,10,1,0,,594059,,,,,,
87150,set_tempo,,,,,20,1,0,,582524,,,,,,
87160,set_tempo,,,,,10,1,0,,576923,,,,,,
87165,note_on,,,,,45,0,1,,,,,,0,76,0
87165,note_on,,,,,0,0,1,,,,,,0,72,0
87165,note_on,,,,,0,0,1,,,,,,0,67,0
87170,set_tempo,,,,,10,1,0,,571428,,,,,,
87180,note_on,,,,,15,0,1,,,,,,0,84,38
87180,note_on,,,,,60,0,2,,,,,,0,48,0
87180,note_on,,,,,0,0,2,,,,,,0,47,38
87190,set_tempo,,,,,20,1,0,,560747,,,,,,
87200,set_tempo,,,,,10,1,0,,550458,,,,,,
87210,set_tempo,,,,,10,1,0,,545454,,,,,,
87210,note_on,,,,,30,0,1,,,,,,0,84,0
87210,note_on,,,,,0,0,1,,,,,,0,83,36
87230,set_tempo,,,,,20,1,0,,540540,,,,,,
87240,note_on,,,,,0,0,2,,,,,,0,48,41
87240,note_on,,,,,60,0,2,,,,,,0,47,0
87240,note_on,,,,,30,0,1,,,,,,0,83,0
87240,note_on,,,,,0,0,1,,,,,,0,82,33
87240,set_tempo,,,,,10,1,0,,535714,,,,,,
87250,set_tempo,,,,,10,1,0,,530973,,,,,,
87270,note_on,,,,,0,0,1,,,,,,0,81,32
87270,set_tempo,,,,,20,1,0,,521739,,,,,,
87270,note_on,,,,,30,0,1,,,,,,0,82,0
87280,set_tempo,,,,,10,1,0,,517241,,,,,,
87300,note_on,,,,,30,0,1,,,,,,0,81,0
87300,note_on,,,,,0,0,1,,,,,,0,80,34
87330,note_on,,,,,30,0,1,,,,,,0,80,0
87330,note_on,,,,,0,0,1,,,,,,0,79,35
87340,set_tempo,,,,,60,1,0,,512820,,,,,,
87350,set_tempo,,,,,10,1,0,,508474,,,,,,
87360,note_on,,,,,0,0,2,,,,,,0,49,43
87360,note_on,,,,,30,0,1,,,,,,0,79,0
87360,note_on,,,,,120,0,2,,,,,,0,48,0
87360,note_on,,,,,0,0,1,,,,,,0,78,36
87380,set_tempo,,,,,30,1,0,,504201,,,,,,
87390,note_on,,,,,30,0,1,,,,,,0,78,0
87390,note_on,,,,,0,0,1,,,,,,0,77,38
87410,set_tempo,,,,,30,1,0,,521739,,,,,,
87420,note_on,,,,,0,0,2,,,,,,0,48,46
87420,note_on,,,,,60,0,2,,,,,,0,49,0
87420,note_on,,,,,0,0,1,,,,,,0,76,39
87420,note_on,,,,,30,0,1,,,,,,0,77,0
87450,note_on,,,,,30,0,1,,,,,,0,76,0
87450,note_on,,,,,0,0,1,,,,,,0,77,40
87480,note_on,,,,,0,0,2,,,,,,0,49,48
87480,note_on,,,,,60,0,2,,,,,,0,48,0
87480,note_on,,,,,30,0,1,,,,,,0,77,0
87480,note_on,,,,,0,0,1,,,,,,0,78,40
87510,note_on,,,,,0,0,1,,,,,,0,77,39
87510,note_on,,,,,30,0,1,,,,,,0,78,0
87540,note_on,,,,,30,0,1,,,,,,0,77,0
87540,set_tempo,,,,,130,1,0,,517241,,,,,,
87540,note_on,,,,,60,0,2,,,,,,0,49,0
87540,note_on,,,,,0,0,2,,,,,,0,48,48
87540,note_on,,,,,0,0,1,,,,,,0,76,38
87570,note_on,,,,,30,0,1,,,,,,0,76,0
87570,note_on,,,,,0,0,1,,,,,,0,75,36
87600,note_on,,,,,60,0,2,,,,,,0,48,0
87600,note_on,,,,,0,0,2,,,,,,0,47,45
87600,note_on,,,,,0,0,1,,,,,,0,74,35
87600,note_on,,,,,30,0,1,,,,,,0,75,0
87620,set_tempo,,,,,80,1,0,,512820,,,,,,
87630,note_on,,,,,30,0,1,,,,,,0,74,0
87630,note_on,,,,,0,0,1,,,,,,0,72,34
87650,set_tempo,,,,,30,1,0,,508474,,,,,,
87660,note_on,,,,,0,0,2,,,,,,0,48,43
87660,note_on,,,,,30,0,1,,,,,,0,72,0
87660,note_on,,,,,0,0,1,,,,,,0,71,33
87660,note_on,,,,,60,0,2,,,,,,0,47,0
87690,note_on,,,,,30,0,1,,,,,,0,71,0
87690,note_on,,,,,0,0,1,,,,,,0,68,33
87690,set_tempo,,,,,40,1,0,,504201,,,,,,
87720,note_on,,,,,30,0,1,,,,,,0,68,0
87720,note_on,,,,,0,0,1,,,,,,0,67,32
87720,note_on,,,,,60,0,2,,,,,,0,48,0
87720,note_on,,,,,0,0,2,,,,,,0,47,36
87750,note_on,,,,,30,0,1,,,,,,0,67,0
87750,note_on,,,,,0,0,1,,,,,,0,68,31
87780,note_on,,,,,60,0,2,,,,,,0,47,0
87780,note_on,,,,,0,0,2,,,,,,0,43,40
87780,note_on,,,,,0,0,1,,,,,,0,67,31
87780,note_on,,,,,30,0,1,,,,,,0,68,0
87800,set_tempo,,,,,110,1,0,,500000,,,,,,
87810,note_on,,,,,0,0,1,,,,,,0,65,31
87810,note_on,,,,,30,0,1,,,,,,0,67,0
87830,set_tempo,,,,,30,1,0,,508474,,,,,,
87840,note_on,,,,,30,0,1,,,,,,0,65,0
87840,note_on,,,,,0,0,2,,,,,,0,48,44
87840,note_on,,,,,0,0,1,,,,,,0,64,31
87840,note_on,,,,,60,0,2,,,,,,0,43,0
87850,set_tempo,,,,,20,1,0,,512820,,,,,,
87870,set_tempo,,,,,20,1,0,,517241,,,,,,
87870,note_on,,,,,0,0,1,,,,,,0,60,31
87870,note_on,,,,,30,0,1,,,,,,0,64,0
87900,note_on,,,,,0,0,1,,,,,,0,59,31
87900,note_on,,,,,30,0,1,,,,,,0,60,0
87920,set_tempo,,,,,50,1,0,,521739,,,,,,
87930,note_on,,,,,30,0,1,,,,,,0,59,0
87930,note_on,,,,,0,0,1,,,,,,0,60,31
87960,note_on,,,,,30,0,1,,,,,,0,60,0
87960,note_on,,,,,0,0,1,,,,,,0,61,31
87960,note_on,,,,,120,0,2,,,,,,0,48,0
87960,note_on,,,,,0,0,2,,,,,,0,47,41
87970,set_tempo,,,,,50,1,0,,526315,,,,,,
87990,note_on,,,,,30,0,1,,,,,,0,61,0
87990,note_on,,,,,0,0,1,,,,,,0,62,31
88000,set_tempo,,,,,30,1,0,,530973,,,,,,
88020,note_on,,,,,60,0,2,,,,,,0,47,0
88020,note_on,,,,,0,0,1,,,,,,0,63,31
88020,note_on,,,,,0,0,2,,,,,,0,46,38
88020,note_on,,,,,30,0,1,,,,,,0,62,0
88050,note_on,,,,,0,0,1,,,,,,0,64,31
88050,note_on,,,,,30,0,1,,,,,,0,63,0
88070,set_tempo,,,,,70,1,0,,535714,,,,,,
88080,note_on,,,,,30,0,1,,,,,,0,64,0
88080,set_tempo,,,,,10,1,0,,535714,,,,,,
88080,note_on,,,,,60,0,2,,,,,,0,46,0
88080,note_on,,,,,0,0,2,,,,,,0,45,37
88080,note_on,,,,,0,0,1,,,,,,0,65,31
88110,note_on,,,,,0,0,1,,,,,,0,64,31
88110,note_on,,,,,30,0,1,,,,,,0,65,0
88120,set_tempo,,,,,40,1,0,,540540,,,,,,
88140,note_on,,,,,30,0,1,,,,,,0,64,0
88140,note_on,,,,,60,0,2,,,,,,0,45,0
88140,note_on,,,,,0,0,2,,,,,,0,44,41
88140,note_on,,,,,0,0,1,,,,,,0,65,31
88140,set_tempo,,,,,20,1,0,,550458,,,,,,
88170,note_on,,,,,0,0,1,,,,,,0,66,32
88170,set_tempo,,,,,30,1,0,,555555,,,,,,
88170,note_on,,,,,30,0,1,,,,,,0,65,0
88185,note_on,,,,,45,0,2,,,,,,0,44,0
88190,set_tempo,,,,,20,1,0,,594059,,,,,,
88200,note_on,,,,,30,0,1,,,,,,0,66,0
88200,set_tempo,,,,,10,1,0,,588235,,,,,,
88200,note_on,,,,,0,0,1,,,,,,0,67,33
88200,note_on,,,,,15,0,2,,,,,,0,43,31
88210,set_tempo,,,,,10,1,0,,576923,,,,,,
88220,set_tempo,,,,,10,1,0,,560747,,,,,,
88230,set_tempo,,,,,10,1,0,,555555,,,,,,
88240,set_tempo,,,,,10,1,0,,550458,,,,,,
88245,note_on,,,,,45,0,1,,,,,,0,67,0
88250,set_tempo,,,,,10,1,0,,545454,,,,,,
88260,set_tempo,,,,,10,1,0,,540540,,,,,,
88260,note_on,,,,,15,0,1,,,,,,0,79,28
88260,note_on,,,,,0,0,2,,,,,,0,42,38
88260,note_on,,,,,60,0,2,,,,,,0,43,0
88270,set_tempo,,,,,10,1,0,,535714,,,,,,
88280,set_tempo,,,,,10,1,0,,526315,,,,,,
88290,note_on,,,,,0,0,1,,,,,,0,78,28
88290,note_on,,,,,30,0,1,,,,,,0,79,0
88290,set_tempo,,,,,10,1,0,,521739,,,,,,
88300,set_tempo,,,,,10,1,0,,512820,,,,,,
88320,note_on,,,,,60,0,2,,,,,,0,42,0
88320,note_on,,,,,30,0,1,,,,,,0,78,0
88320,note_on,,,,,0,0,1,,,,,,0,77,28
88320,note_on,,,,,0,0,2,,,,,,0,43,41
88350,note_on,,,,,0,0,1,,,,,,0,76,28
88350,note_on,,,,,30,0,1,,,,,,0,77,0
88380,note_on,,,,,0,0,1,,,,,,0,75,30
88380,note_on,,,,,30,0,1,,,,,,0,76,0
88410,note_on,,,,,30,0,1,,,,,,0,75,0
88410,note_on,,,,,0,0,1,,,,,,0,74,30
88440,note_on,,,,,30,0,1,,,,,,0,74,0
88440,note_on,,,,,0,0,2,,,,,,0,44,41
88440,note_on,,,,,120,0,2,,,,,,0,43,0
88440,note_on,,,,,0,0,1,,,,,,0,73,30
88470,note_on,,,,,0,0,1,,,,,,0,72,32
88470,note_on,,,,,30,0,1,,,,,,0,73,0
88500,note_on,,,,,0,0,1,,,,,,0,71,34
88500,note_on,,,,,30,0,1,,,,,,0,72,0
88500,note_on,,,,,0,0,2,,,,,,0,43,43
88500,note_on,,,,,60,0,2,,,,,,0,44,0
88530,note_on,,,,,30,0,1,,,,,,0,71,0
88530,note_on,,,,,0,0,1,,,,,,0,72,36
88560,note_on,,,,,60,0,2,,,,,,0,43,0
88560,note_on,,,,,0,0,2,,,,,,0,44,46
88560,note_on,,,,,30,0,1,,,,,,0,72,0
88560,note_on,,,,,0,0,1,,,,,,0,73,36
88590,note_on,,,,,30,0,1,,,,,,0,73,0
88590,note_on,,,,,0,0,1,,,,,,0,72,34
88620,note_on,,,,,0,0,1,,,,,,0,71,33
88620,note_on,,,,,0,0,2,,,,,,0,43,44
88620,note_on,,,,,60,0,2,,,,,,0,44,0
88620,note_on,,,,,30,0,1,,,,,,0,72,0
88650,note_on,,,,,0,0,1,,,,,,0,70,31
88650,note_on,,,,,30,0,1,,,,,,0,71,0
88680,note_on,,,,,30,0,1,,,,,,0,70,0
88680,note_on,,,,,0,0,2,,,,,,0,42,40
88680,note_on,,,,,60,0,2,,,,,,0,43,0
88680,note_on,,,,,0,0,1,,,,,,0,69,31
88710,note_on,,,,,0,0,1,,,,,,0,67,30
88710,note_on,,,,,30,0,1,,,,,,0,69,0
88740,note_on,,,,,0,0,2,,,,,,0,43,36
88740,note_on,,,,,60,0,2,,,,,,0,42,0
88740,note_on,,,,,30,0,1,,,,,,0,67,0
88740,note_on,,,,,0,0,1,,,,,,0,66,29
88760,set_tempo,,,,,460,1,0,,512820,,,,,,
88770,note_on,,,,,0,0,1,,,,,,0,63,29
88770,note_on,,,,,30,0,1,,,,,,0,66,0
88800,note_on,,,,,60,0,2,,,,,,0,43,0
88800,note_on,,,,,0,0,2,,,,,,0,42,36
88800,note_on,,,,,0,0,1,,,,,,0,62,29
88800,note_on,,,,,30,0,1,,,,,,0,63,0
88830,note_on,,,,,0,0,1,,,,,,0,63,29
88830,note_on,,,,,30,0,1,,,,,,0,62,0
88860,note_on,,,,,0,0,2,,,,,,0,38,35
88860,set_tempo,,,,,100,1,0,,517241,,,,,,
88860,note_on,,,,,60,0,2,,,,,,0,42,0
88860,note_on,,,,,30,0,1,,,,,,0,63,0
88860,note_on,,,,,0,0,1,,,,,,0,62,29
88870,set_tempo,,,,,10,1,0,,521739,,,,,,
88890,note_on,,,,,30,0,1,,,,,,0,62,0
88890,note_on,,,,,0,0,1,,,,,,0,60,29
88890,set_tempo,,,,,20,1,0,,526315,,,,,,
88900,set_tempo,,,,,10,1,0,,535714,,,,,,
88910,set_tempo,,,,,10,1,0,,550458,,,,,,
88920,note_on,,,,,30,0,1,,,,,,0,60,0
88920,note_on,,,,,0,0,1,,,,,,0,59,30
88920,note_on,,,,,0,0,2,,,,,,0,31,35
88920,note_on,,,,,60,0,2,,,,,,0,38,0
88920,set_tempo,,,,,10,1,0,,571428,,,,,,
88940,set_tempo,,,,,20,1,0,,588235,,,,,,
88950,set_tempo,,,,,10,1,0,,571428,,,,,,
88965,note_on,,,,,45,0,1,,,,,,0,59,0
88980,note_on,,,,,0,0,2,,,,,,0,30,43
88980,note_on,,,,,60,0,2,,,,,,0,31,0
88980,note_on,,,,,15,0,1,,,,,,0,91,28
88980,set_tempo,,,,,30,1,0,,560747,,,,,,
88990,set_tempo,,,,,10,1,0,,555555,,,,,,
89000,set_tempo,,,,,10,1,0,,550458,,,,,,
89010,note_on,,,,,30,0,1,,,,,,0,91,0
89010,note_on,,,,,0,0,1,,,,,,0,90,27
89020,set_tempo,,,,,20,1,0,,545454,,,,,,
89040,note_on,,,,,60,0,2,,,,,,0,30,0
89040,note_on,,,,,30,0,1,,,,,,0,90,0
89040,set_tempo,,,,,20,1,0,,540540,,,,,,
89040,note_on,,,,,0,0,2,,,,,,0,31,45
89040,note_on,,,,,0,0,1,,,,,,0,89,27
89060,set_tempo,,,,,20,1,0,,535714,,,,,,
89070,note_on,,,,,0,0,1,,,,,,0,88,27
89070,set_tempo,,,,,10,1,0,,530973,,,,,,
89070,note_on,,,,,30,0,1,,,,,,0,89,0
89080,set_tempo,,,,,10,1,0,,526315,,,,,,
89100,note_on,,,,,30,0,1,,,,,,0,88,0
89100,note_on,,,,,0,0,1,,,,,,0,87,27
89110,set_tempo,,,,,30,1,0,,521739,,,,,,
89130,note_on,,,,,0,0,1,,,,,,0,86,27
89130,note_on,,,,,30,0,1,,,,,,0,87,0
89140,set_tempo,,,,,30,1,0,,517241,,,,,,
89160,note_on,,,,,0,0,2,,,,,,0,32,51
89160,note_on,,,,,120,0,2,,,,,,0,31,0
89160,note_on,,,,,30,0,1,,,,,,0,86,0
89160,note_on,,,,,0,0,1,,,,,,0,85,27
89190,note_on,,,,,0,0,1,,,,,,0,84,27
89190,note_on,,,,,30,0,1,,,,,,0,85,0
89210,set_tempo,,,,,70,1,0,,512820,,,,,,
89220,note_on,,,,,0,0,1,,,,,,0,83,27
89220,note_on,,,,,30,0,1,,,,,,0,84,0
89220,set_tempo,,,,,10,1,0,,500000,,,,,,
89220,note_on,,,,,60,0,2,,,,,,0,32,0
89220,note_on,,,,,0,0,2,,,,,,0,31,54
89240,set_tempo,,,,,20,1,0,,495867,,,,,,
89250,note_on,,,,,0,0,1,,,,,,0,84,29
89250,note_on,,,,,30,0,1,,,,,,0,83,0
89270,set_tempo,,,,,30,1,0,,491803,,,,,,
89280,note_on,,,,,30,0,1,,,,,,0,84,0
89280,note_on,,,,,0,0,1,,,,,,0,85,28
89280,note_on,,,,,0,0,2,,,,,,0,32,56
89280,note_on,,,,,60,0,2,,,,,,0,31,0
89290,set_tempo,,,,,20,1,0,,487804,,,,,,
89310,note_on,,,,,30,0,1,,,,,,0,85,0
89310,note_on,,,,,0,0,1,,,,,,0,84,29
89340,note_on,,,,,30,0,1,,,,,,0,84,0
89340,note_on,,,,,0,0,1,,,,,,0,83,30
89340,note_on,,,,,60,0,2,,,,,,0,32,0
89340,note_on,,,,,0,0,2,,,,,,0,31,55
89350,set_tempo,,,,,60,1,0,,483870,,,,,,
89360,set_tempo,,,,,10,1,0,,487804,,,,,,
89370,note_on,,,,,0,0,1,,,,,,0,82,30
89370,note_on,,,,,30,0,1,,,,,,0,83,0
89400,note_on,,,,,30,0,1,,,,,,0,82,0
89400,note_on,,,,,0,0,2,,,,,,0,30,53
89400,note_on,,,,,60,0,2,,,,,,0,31,0
89400,note_on,,,,,0,0,1,,,,,,0,81,30
89430,note_on,,,,,30,0,1,,,,,,0,81,0
89430,note_on,,,,,0,0,1,,,,,,0,79,31
89460,note_on,,,,,0,0,1,,,,,,0,78,32
89460,note_on,,,,,60,0,2,,,,,,0,30,0
89460,note_on,,,,,0,0,2,,,,,,0,31,51
89460,note_on,,,,,30,0,1,,,,,,0,79,0
89470,set_tempo,,,,,110,1,0,,491803,,,,,,
89480,set_tempo,,,,,10,1,0,,495867,,,,,,
89490,note_on,,,,,30,0,1,,,,,,0,78,0
89490,note_on,,,,,0,0,1,,,,,,0,75,33
89520,note_on,,,,,30,0,1,,,,,,0,75,0
89520,note_on,,,,,60,0,2,,,,,,0,31,0
89520,note_on,,,,,0,0,2,,,,,,0,30,49
89520,set_tempo,,,,,40,1,0,,500000,,,,,,
89520,note_on,,,,,0,0,1,,,,,,0,74,34
89530,set_tempo,,,,,10,1,0,,504201,,,,,,
89550,note_on,,,,,0,0,1,,,,,,0,75,36
89550,note_on,,,,,30,0,1,,,,,,0,74,0
89580,set_tempo,,,,,50,1,0,,508474,,,,,,
89580,note_on,,,,,60,0,2,,,,,,0,30,0
89580,note_on,,,,,0,0,2,,,,,,0,26,48
89580,note_on,,,,,30,0,1,,,,,,0,75,0
89580,note_on,,,,,0,0,1,,,,,,0,74,37
89610,note_on,,,,,30,0,1,,,,,,0,74,0
89610,note_on,,,,,0,0,1,,,,,,0,72,39
89630,set_tempo,,,,,50,1,0,,512820,,,,,,
89640,note_on,,,,,60,0,2,,,,,,0,26,0
89640,note_on,,,,,0,0,2,,,,,,0,31,46
89640,note_on,,,,,30,0,1,,,,,,0,72,0
89640,note_on,,,,,0,0,1,,,,,,0,71,40
89670,note_on,,,,,30,0,1,,,,,,0,71,0
89670,note_on,,,,,0,0,1,,,,,,0,70,40
89680,set_tempo,,,,,50,1,0,,517241,,,,,,
89700,note_on,,,,,30,0,1,,,,,,0,70,0
89700,note_on,,,,,0,0,1,,,,,,0,69,39
89730,note_on,,,,,30,0,1,,,,,,0,69,0
89730,set_tempo,,,,,50,1,0,,521739,,,,,,
89730,note_on,,,,,0,0,1,,,,,,0,68,38
89760,note_on,,,,,0,0,1,,,,,,0,67,37
89760,note_on,,,,,30,0,1,,,,,,0,68,0
89790,set_tempo,,,,,60,1,0,,521739,,,,,,
89790,note_on,,,,,0,0,1,,,,,,0,66,36
89790,note_on,,,,,30,0,1,,,,,,0,67,0
89820,note_on,,,,,0,0,1,,,,,,0,65,35
89820,note_on,,,,,30,0,1,,,,,,0,66,0
89830,set_tempo,,,,,40,1,0,,517241,,,,,,
89850,note_on,,,,,30,0,1,,,,,,0,65,0
89850,note_on,,,,,0,0,1,,,,,,0,64,35
89870,set_tempo,,,,,40,1,0,,512820,,,,,,
89880,note_on,,,,,30,0,1,,,,,,0,64,0
89880,note_on,,,,,0,0,1,,,,,,0,63,34
89880,note_on,,,,,240,0,2,,,,,,0,31,0
89910,note_on,,,,,30,0,1,,,,,,0,63,0
89910,note_on,,,,,0,0,1,,,,,,0,62,34
89940,note_on,,,,,30,0,1,,,,,,0,62,0
89940,note_on,,,,,0,0,1,,,,,,0,61,32
89950,set_tempo,,,,,80,1,0,,508474,,,,,,
89970,note_on,,,,,90,0,2,,,,,,0,31,56
89970,note_on,,,,,30,0,1,,,,,,0,61,0
89970,note_on,,,,,0,0,1,,,,,,0,60,32
90000,note_on,,,,,30,0,1,,,,,,0,60,0
90000,note_on,,,,,0,0,1,,,,,,0,59,34
90000,note_on,,,,,30,0,2,,,,,,0,31,0
90000,note_on,,,,,0,0,2,,,,,,0,31,60
90030,note_on,,,,,30,0,1,,,,,,0,59,0
90030,note_on,,,,,0,0,1,,,,,,0,60,34
90060,note_on,,,,,30,0,1,,,,,,0,60,0
90060,note_on,,,,,0,0,1,,,,,,0,61,34
90070,set_tempo,,,,,120,1,0,,504201,,,,,,
90090,note_on,,,,,0,0,1,,,,,,0,62,34
90090,note_on,,,,,90,0,2,,,,,,0,31,0
90090,note_on,,,,,30,0,1,,,,,,0,61,0
90120,note_on,,,,,0,0,1,,,,,,0,63,34
90120,note_on,,,,,30,0,1,,,,,,0,62,0
90120,note_on,,,,,30,0,2,,,,,,0,31,49
90150,note_on,,,,,30,0,1,,,,,,0,63,0
90150,note_on,,,,,0,0,1,,,,,,0,64,35
90180,note_on,,,,,30,0,1,,,,,,0,64,0
90180,note_on,,,,,0,0,1,,,,,,0,65,36
90190,set_tempo,,,,,120,1,0,,500000,,,,,,
90210,note_on,,,,,30,0,1,,,,,,0,65,0
90210,note_on,,,,,90,0,2,,,,,,0,31,0
90210,note_on,,,,,0,0,1,,,,,,0,66,39
90240,note_on,,,,,30,0,1,,,,,,0,66,0
90240,note_on,,,,,0,0,1,,,,,,0,67,40
90270,note_on,,,,,0,0,1,,,,,,0,68,43
90270,note_on,,,,,30,0,1,,,,,,0,67,0
90300,note_on,,,,,30,0,1,,,,,,0,68,0
90300,note_on,,,,,0,0,1,,,,,,0,69,43
90330,note_on,,,,,30,0,1,,,,,,0,69,0
90330,note_on,,,,,0,0,1,,,,,,0,70,46
90360,note_on,,,,,150,0,2,,,,,,0,53,41
90360,note_on,,,,,0,0,2,,,,,,0,44,41
90360,note_on,,,,,30,0,1,,,,,,0,70,0
90360,note_on,,,,,0,0,1,,,,,,0,71,48
90360,note_on,,,,,0,0,2,,,,,,0,50,41
90370,set_tempo,,,,,180,1,0,,495867,,,,,,
90390,note_on,,,,,0,0,1,,,,,,0,72,48
90390,note_on,,,,,30,0,1,,,,,,0,71,0
90420,note_on,,,,,30,0,1,,,,,,0,72,0
90420,note_on,,,,,0,0,1,,,,,,0,73,48
90450,note_on,,,,,0,0,1,,,,,,0,74,47
90450,note_on,,,,,30,0,1,,,,,,0,73,0
90480,note_on,,,,,0,0,1,,,,,,0,75,46
90480,note_on,,,,,30,0,1,,,,,,0,74,0
90490,set_tempo,,,,,120,1,0,,491803,,,,,,
90510,note_on,,,,,0,0,1,,,,,,0,76,45
90510,note_on,,,,,30,0,1,,,,,,0,75,0
90540,note_on,,,,,30,0,1,,,,,,0,76,0
90540,note_on,,,,,0,0,1,,,,,,0,77,45
90570,set_tempo,,,,,80,1,0,,487804,,,,,,
90570,note_on,,,,,30,0,1,,,,,,0,77,0
90570,note_on,,,,,0,0,1,,,,,,0,78,43
90600,note_on,,,,,0,0,1,,,,,,0,79,41
90600,note_on,,,,,30,0,1,,,,,,0,78,0
90600,note_on,,,,,0,0,2,,,,,,0,53,0
90600,note_on,,,,,240,0,2,,,,,,0,44,0
90600,note_on,,,,,0,0,2,,,,,,0,50,0
90630,note_on,,,,,0,0,1,,,,,,0,80,40
90630,note_on,,,,,30,0,1,,,,,,0,79,0
90660,note_on,,,,,0,0,1,,,,,,0,81,39
90660,note_on,,,,,30,0,1,,,,,,0,80,0
90690,note_on,,,,,0,0,2,,,,,,0,50,53
90690,note_on,,,,,90,0,2,,,,,,0,53,53
90690,note_on,,,,,0,0,1,,,,,,0,82,38
90690,note_on,,,,,30,0,1,,,,,,0,81,0
90690,note_on,,,,,0,0,2,,,,,,0,44,53
90712,note_on,,,,,22,0,2,,,,,,0,44,0
90712,note_on,,,,,0,0,2,,,,,,0,50,0
90712,note_on,,,,,0,0,2,,,,,,0,53,0
90720,note_on,,,,,8,0,2,,,,,,0,53,59
90720,note_on,,,,,0,0,2,,,,,,0,50,59
90720,note_on,,,,,0,0,2,,,,,,0,44,59
90720,control_change,,,,,0,0,1,,,,64,95,0,,
90720,note_on,,,,,30,0,1,,,,,,0,82,0
90720,note_on,,,,,0,0,1,,,,,,0,83,37
90730,set_tempo,,,,,160,1,0,,483870,,,,,,
90750,note_on,,,,,30,0,1,,,,,,0,83,0
90750,note_on,,,,,0,0,1,,,,,,0,82,37
90780,note_on,,,,,30,0,1,,,,,,0,82,0
90780,note_on,,,,,0,0,1,,,,,,0,81,37
90810,note_on,,,,,30,0,1,,,,,,0,81,0
90810,note_on,,,,,0,0,1,,,,,,0,80,37
90830,note_on,,,,,0,0,2,,,,,,0,53,0
90830,note_on,,,,,0,0,2,,,,,,0,50,0
90830,note_on,,,,,110,0,2,,,,,,0,44,0
90830,set_tempo,,,,,100,1,0,,480000,,,,,,
90840,note_on,,,,,30,0,1,,,,,,0,80,0
90840,note_on,,,,,0,0,1,,,,,,0,79,37
90840,note_on,,,,,0,0,2,,,,,,0,44,52
90840,note_on,,,,,10,0,2,,,,,,0,53,52
90840,note_on,,,,,0,0,2,,,,,,0,50,52
90845,control_change,,,,,5,0,1,,,,64,0,0,,
90870,note_on,,,,,0,0,1,,,,,,0,78,37
90870,note_on,,,,,25,0,1,,,,,,0,79,0
90900,note_on,,,,,0,0,1,,,,,,0,77,37
90900,note_on,,,,,30,0,1,,,,,,0,78,0
90930,note_on,,,,,0,0,1,,,,,,0,76,37
90930,note_on,,,,,30,0,1,,,,,,0,77,0
90950,note_on,,,,,110,0,2,,,,,,0,44,0
90950,set_tempo,,,,,120,1,0,,512820,,,,,,
90950,note_on,,,,,0,0,2,,,,,,0,53,0
90950,note_on,,,,,0,0,2,,,,,,0,50,0
90960,note_on,,,,,30,0,1,,,,,,0,76,0
90960,note_on,,,,,0,0,1,,,,,,0,75,37
90980,note_on,,,,,20,0,1,,,,,,0,75,0
90980,note_on,,,,,0,0,1,,,,,,0,74,37
91000,note_on,,,,,20,0,1,,,,,,0,74,0
91000,note_on,,,,,0,0,1,,,,,,0,73,37
91020,note_on,,,,,20,0,1,,,,,,0,73,0
91020,note_on,,,,,0,0,1,,,,,,0,72,38
91040,note_on,,,,,20,0,1,,,,,,0,72,0
91040,note_on,,,,,0,0,1,,,,,,0,71,40
91060,note_on,,,,,20,0,1,,,,,,0,71,0
91061,note_on,,,,,1,0,1,,,,,,0,70,41
91070,set_tempo,,,,,120,1,0,,468750,,,,,,
91080,note_on,,,,,0,0,2,,,,,,0,50,68
91080,note_on,,,,,0,0,2,,,,,,0,53,68
91080,note_on,,,,,19,0,1,,,,,,0,69,44
91080,note_on,,,,,130,0,2,,,,,,0,45,68
91081,note_on,,,,,1,0,1,,,,,,0,70,0
91110,note_on,,,,,0,0,1,,,,,,0,70,47
91110,note_on,,,,,29,0,1,,,,,,0,69,0
91130,set_tempo,,,,,60,1,0,,465116,,,,,,
91140,note_on,,,,,30,0,1,,,,,,0,70,0
91140,note_on,,,,,0,0,1,,,,,,0,71,49
91170,note_on,,,,,30,0,1,,,,,,0,71,0
91170,note_on,,,,,0,0,1,,,,,,0,72,52
91200,note_on,,,,,30,0,1,,,,,,0,72,0
91200,note_on,,,,,0,0,1,,,,,,0,73,55
91230,note_on,,,,,0,0,1,,,,,,0,74,56
91230,note_on,,,,,30,0,1,,,,,,0,73,0
91260,note_on,,,,,30,0,1,,,,,,0,74,0
91260,note_on,,,,,0,0,1,,,,,,0,75,58
91290,note_on,,,,,30,0,1,,,,,,0,75,0
91290,note_on,,,,,0,0,1,,,,,,0,76,60
91310,set_tempo,,,,,180,1,0,,461538,,,,,,
91320,note_on,,,,,240,0,2,,,,,,0,50,0
91320,note_on,,,,,0,0,2,,,,,,0,45,0
91320,note_on,,,,,30,0,1,,,,,,0,76,0
91320,note_on,,,,,0,0,1,,,,,,0,77,61
91320,note_on,,,,,0,0,2,,,,,,0,53,0
91350,note_on,,,,,0,0,1,,,,,,0,78,63
91350,note_on,,,,,30,0,1,,,,,,0,77,0
91380,note_on,,,,,0,0,1,,,,,,0,79,64
91380,note_on,,,,,30,0,1,,,,,,0,78,0
91410,set_tempo,,,,,100,1,0,,458015,,,,,,
91410,note_on,,,,,30,0,1,,,,,,0,79,0
91410,note_on,,,,,0,0,2,,,,,,0,45,80
91410,note_on,,,,,0,0,2,,,,,,0,50,80
91410,note_on,,,,,90,0,2,,,,,,0,53,80
91410,note_on,,,,,0,0,1,,,,,,0,80,66
91432,note_on,,,,,0,0,2,,,,,,0,53,0
91432,note_on,,,,,0,0,2,,,,,,0,50,0
91432,note_on,,,,,22,0,2,,,,,,0,45,0
91440,note_on,,,,,0,0,2,,,,,,0,50,82
91440,note_on,,,,,8,0,2,,,,,,0,45,82
91440,note_on,,,,,0,0,2,,,,,,0,53,82
91440,note_on,,,,,30,0,1,,,,,,0,80,0
91440,note_on,,,,,0,0,1,,,,,,0,81,66
91440,control_change,,,,,0,0,1,,,,64,96,0,,
91470,note_on,,,,,30,0,1,,,,,,0,81,0
91470,note_on,,,,,0,0,1,,,,,,0,80,68
91500,note_on,,,,,0,0,1,,,,,,0,79,67
91500,note_on,,,,,30,0,1,,,,,,0,80,0
91530,note_on,,,,,0,0,1,,,,,,0,78,68
91530,note_on,,,,,30,0,1,,,,,,0,79,0
91550,note_on,,,,,110,0,2,,,,,,0,50,0
91550,note_on,,,,,0,0,2,,,,,,0,45,0
91550,note_on,,,,,0,0,2,,,,,,0,53,0
91560,note_on,,,,,0,0,2,,,,,,0,50,68
91560,note_on,,,,,0,0,2,,,,,,0,53,68
91560,note_on,,,,,10,0,2,,,,,,0,45,68
91560,note_on,,,,,30,0,1,,,,,,0,78,0
91560,control_change,,,,,0,0,1,,,,64,0,0,,
91560,note_on,,,,,0,0,1,,,,,,0,77,68
91590,note_on,,,,,0,0,1,,,,,,0,76,68
91590,note_on,,,,,30,0,1,,,,,,0,77,0
91610,set_tempo,,,,,200,1,0,,454545,,,,,,
91620,note_on,,,,,0,0,1,,,,,,0,75,72
91620,note_on,,,,,30,0,1,,,,,,0,76,0
91650,note_on,,,,,30,0,1,,,,,,0,75,0
91650,note_on,,,,,0,0,1,,,,,,0,74,74
91660,set_tempo,,,,,50,1,0,,454545,,,,,,
91670,note_on,,,,,0,0,2,,,,,,0,53,0
91670,note_on,,,,,110,0,2,,,,,,0,50,0
91670,note_on,,,,,0,0,2,,,,,,0,45,0
91680,note_on,,,,,30,0,1,,,,,,0,74,0
91680,note_on,,,,,0,0,1,,,,,,0,73,75
91710,note_on,,,,,30,0,1,,,,,,0,73,0
91710,note_on,,,,,0,0,1,,,,,,0,72,77
91740,set_tempo,,,,,80,1,0,,480000,,,,,,
91740,note_on,,,,,30,0,1,,,,,,0,72,0
91740,note_on,,,,,0,0,1,,,,,,0,71,79
91760,note_on,,,,,20,0,1,,,,,,0,71,0
91760,note_on,,,,,0,0,1,,,,,,0,70,79
91770,note_on,,,,,0,0,2,,,,,,0,45,104
91770,note_on,,,,,100,0,2,,,,,,0,53,104
91770,note_on,,,,,0,0,2,,,,,,0,50,104
91780,note_on,,,,,20,0,1,,,,,,0,70,0
91780,note_on,,,,,0,0,1,,,,,,0,69,79
91792,note_on,,,,,22,0,2,,,,,,0,45,0
91792,note_on,,,,,0,0,2,,,,,,0,50,0
91792,note_on,,,,,0,0,2,,,,,,0,53,0
91800,control_change,,,,,0,0,1,,,,64,95,0,,
91800,note_on,,,,,0,0,1,,,,,,0,68,81
91800,note_on,,,,,20,0,1,,,,,,0,69,0
91800,note_on,,,,,0,0,2,,,,,,0,50,104
91800,note_on,,,,,0,0,2,,,,,,0,46,104
91800,note_on,,,,,8,0,2,,,,,,0,53,104
91810,set_tempo,,,,,70,1,0,,468750,,,,,,
91830,note_on,,,,,30,0,1,,,,,,0,68,0
91830,note_on,,,,,0,0,1,,,,,,0,69,81
91860,note_on,,,,,0,0,1,,,,,,0,70,84
91860,note_on,,,,,30,0,1,,,,,,0,69,0
91890,note_on,,,,,0,0,1,,,,,,0,71,86
91890,note_on,,,,,30,0,1,,,,,,0,70,0
91910,note_on,,,,,0,0,2,,,,,,0,53,0
91910,note_on,,,,,0,0,2,,,,,,0,50,0
91910,note_on,,,,,110,0,2,,,,,,0,46,0
91920,note_on,,,,,0,0,2,,,,,,0,50,89
91920,note_on,,,,,0,0,1,,,,,,0,72,88
91920,note_on,,,,,0,0,2,,,,,,0,46,89
91920,note_on,,,,,10,0,2,,,,,,0,53,89
91920,note_on,,,,,30,0,1,,,,,,0,71,0
91925,control_change,,,,,5,0,1,,,,64,0,0,,
91930,set_tempo,,,,,120,1,0,,465116,,,,,,
91950,note_on,,,,,0,0,1,,,,,,0,73,90
91950,note_on,,,,,25,0,1,,,,,,0,72,0
91980,note_on,,,,,30,0,1,,,,,,0,73,0
91980,note_on,,,,,0,0,1,,,,,,0,74,93
91980,set_tempo,,,,,50,1,0,,461538,,,,,,
92000,set_tempo,,,,,20,1,0,,458015,,,,,,
92010,note_on,,,,,30,0,1,,,,,,0,74,0
92010,note_on,,,,,0,0,1,,,,,,0,75,93
92010,set_tempo,,,,,10,1,0,,454545,,,,,,
92030,note_on,,,,,0,0,2,,,,,,0,50,0
92030,note_on,,,,,110,0,2,,,,,,0,46,0
92030,set_tempo,,,,,20,1,0,,451127,,,,,,
92030,note_on,,,,,0,0,2,,,,,,0,53,0
92040,note_on,,,,,0,0,1,,,,,,0,76,94
92040,note_on,,,,,30,0,1,,,,,,0,75,0
92040,set_tempo,,,,,10,1,0,,447761,,,,,,
92050,set_tempo,,,,,10,1,0,,444444,,,,,,
92070,note_on,,,,,0,0,1,,,,,,0,77,98
92070,note_on,,,,,30,0,1,,,,,,0,76,0
92070,set_tempo,,,,,20,1,0,,441176,,,,,,
92090,set_tempo,,,,,20,1,0,,437956,,,,,,
92100,set_tempo,,,,,10,1,0,,434782,,,,,,
92100,note_on,,,,,30,0,1,,,,,,0,77,0
92100,note_on,,,,,0,0,1,,,,,,0,78,101
92120,note_on,,,,,20,0,1,,,,,,0,78,0
92120,note_on,,,,,0,0,1,,,,,,0,79,102
92130,note_on,,,,,0,0,2,,,,,,0,50,111
92130,note_on,,,,,0,0,2,,,,,,0,46,111
92130,note_on,,,,,100,0,2,,,,,,0,53,111
92140,note_on,,,,,20,0,1,,,,,,0,79,0
92140,note_on,,,,,0,0,1,,,,,,0,80,103
92152,note_on,,,,,22,0,2,,,,,,0,46,0
92152,note_on,,,,,0,0,2,,,,,,0,53,0
92152,note_on,,,,,0,0,2,,,,,,0,50,0
92160,note_on,,,,,0,0,2,,,,,,0,53,112
92160,note_on,,,,,8,0,2,,,,,,0,55,112
92160,note_on,,,,,0,0,2,,,,,,0,47,112
92160,note_on,,,,,0,0,2,,,,,,0,50,112
92160,note_on,,,,,20,0,1,,,,,,0,80,0
92160,note_on,,,,,0,0,1,,,,,,0,79,105
92160,control_change,,,,,0,0,1,,,,64,95,0,,
92170,set_tempo,,,,,70,1,0,,500000,,,,,,
92180,note_on,,,,,0,0,1,,,,,,0,89,107
92180,note_on,,,,,20,0,1,,,,,,0,79,0
92200,note_on,,,,,20,0,1,,,,,,0,89,0
92200,note_on,,,,,0,0,1,,,,,,0,87,107
92220,note_on,,,,,20,0,1,,,,,,0,87,0
92220,note_on,,,,,0,0,1,,,,,,0,86,107
92230,set_tempo,,,,,60,1,0,,495867,,,,,,
92240,set_tempo,,,,,10,1,0,,487804,,,,,,
92240,note_on,,,,,20,0,1,,,,,,0,86,0
92240,note_on,,,,,0,0,1,,,,,,0,84,110
92250,set_tempo,,,,,10,1,0,,483870,,,,,,
92260,note_on,,,,,20,0,1,,,,,,0,84,0
92261,note_on,,,,,1,0,1,,,,,,0,83,111
92270,set_tempo,,,,,20,1,0,,480000,,,,,,
92270,note_on,,,,,0,0,2,,,,,,0,50,0
92270,note_on,,,,,0,0,2,,,,,,0,53,0
92270,note_on,,,,,0,0,2,,,,,,0,55,0
92270,note_on,,,,,110,0,2,,,,,,0,47,0
92280,note_on,,,,,10,0,2,,,,,,0,55,95
92280,note_on,,,,,0,0,2,,,,,,0,47,95
92280,note_on,,,,,0,0,2,,,,,,0,50,95
92280,control_change,,,,,19,0,1,,,,64,0,0,,
92280,set_tempo,,,,,10,1,0,,472440,,,,,,
92280,note_on,,,,,0,0,2,,,,,,0,53,95
92281,note_on,,,,,1,0,1,,,,,,0,83,0
92281,note_on,,,,,0,0,1,,,,,,0,80,113
92290,set_tempo,,,,,10,1,0,,465116,,,,,,
92300,set_tempo,,,,,10,1,0,,461538,,,,,,
92301,note_on,,,,,20,0,1,,,,,,0,80,0
92301,note_on,,,,,0,0,1,,,,,,0,79,115
92310,set_tempo,,,,,10,1,0,,458015,,,,,,
92320,set_tempo,,,,,10,1,0,,451127,,,,,,
92321,note_on,,,,,20,0,1,,,,,,0,79,0
92321,note_on,,,,,0,0,1,,,,,,0,77,117
92330,set_tempo,,,,,10,1,0,,447761,,,,,,
92340,set_tempo,,,,,10,1,0,,444444,,,,,,
92341,note_on,,,,,20,0,1,,,,,,0,77,0
92341,note_on,,,,,0,0,1,,,,,,0,75,119
92350,set_tempo,,,,,10,1,0,,441176,,,,,,
92360,set_tempo,,,,,10,1,0,,434782,,,,,,
92361,note_on,,,,,0,0,1,,,,,,0,74,121
92361,note_on,,,,,20,0,1,,,,,,0,75,0
92370,set_tempo,,,,,10,1,0,,431654,,,,,,
92380,set_tempo,,,,,10,1,0,,428571,,,,,,
92381,note_on,,,,,0,0,1,,,,,,0,72,122
92381,note_on,,,,,20,0,1,,,,,,0,74,0
92390,note_on,,,,,110,0,2,,,,,,0,47,0
92390,note_on,,,,,0,0,2,,,,,,0,55,0
92390,note_on,,,,,0,0,2,,,,,,0,53,0
92390,note_on,,,,,0,0,2,,,,,,0,50,0
92390,set_tempo,,,,,10,1,0,,425531,,,,,,
92400,set_tempo,,,,,10,1,0,,419580,,,,,,
92401,note_on,,,,,20,0,1,,,,,,0,72,0
92401,note_on,,,,,0,0,1,,,,,,0,71,123
92410,set_tempo,,,,,10,1,0,,416666,,,,,,
92421,note_on,,,,,0,0,1,,,,,,0,68,125
92421,note_on,,,,,20,0,1,,,,,,0,71,0
92430,set_tempo,,,,,20,1,0,,413793,,,,,,
92440,set_tempo,,,,,10,1,0,,410958,,,,,,
92441,note_on,,,,,20,0,1,,,,,,0,68,0
92441,note_on,,,,,0,0,1,,,,,,0,67,127
92460,set_tempo,,,,,20,1,0,,408163,,,,,,
92461,note_on,,,,,20,0,1,,,,,,0,67,0
92462,note_on,,,,,1,0,1,,,,,,0,65,127
92470,set_tempo,,,,,10,1,0,,405405,,,,,,
92482,note_on,,,,,20,0,1,,,,,,0,65,0
92482,note_on,,,,,0,0,1,,,,,,0,63,127
92490,note_on,,,,,100,0,2,,,,,,0,43,124
92502,note_on,,,,,20,0,1,,,,,,0,63,0
92502,note_on,,,,,0,0,1,,,,,,0,62,127
92520,note_on,,,,,30,0,2,,,,,,0,43,0
92520,set_tempo,,,,,50,1,0,,428571,,,,,,
92522,note_on,,,,,20,0,1,,,,,,0,62,0
92530,note_on,,,,,0,0,2,,,,,,0,60,127
92530,control_change,,,,,0,0,1,,,,64,95,0,,
92530,control_change,,,,,8,0,1,,,,91,96,0,,
92530,note_on,,,,,0,0,2,,,,,,0,51,127
92530,note_on,,,,,10,0,2,,,,,,0,36,127
92530,note_on,,,,,0,0,2,,,,,,0,55,127
92530,note_on,,,,,0,0,2,,,,,,0,48,127
92760,control_change,,,,,230,0,1,,,,64,0,0,,
92770,note_on,,,,,240,0,2,,,,,,0,60,0
92770,note_on,,,,,0,0,2,,,,,,0,51,0
92770,note_on,,,,,0,0,2,,,,,,0,36,0
92770,note_on,,,,,0,0,2,,,,,,0,55,0
92770,note_on,,,,,0,0,2,,,,,,0,48,0
92840,set_tempo,,,,,320,1,0,,504201,,,,,,
92850,note_on,,,,,0,0,2,,,,,,0,48,100
92850,note_on,,,,,0,0,2,,,,,,0,51,100
92850,note_on,,,,,0,0,2,,,,,,0,55,100
92850,note_on,,,,,0,0,2,,,,,,0,60,100
92850,note_on,,,,,80,0,2,,,,,,0,36,100
92871,note_on,,,,,21,0,2,,,,,,0,60,0
92871,note_on,,,,,0,0,2,,,,,,0,51,0
92871,note_on,,,,,0,0,2,,,,,,0,36,0
92871,note_on,,,,,0,0,2,,,,,,0,48,0
92871,note_on,,,,,0,0,2,,,,,,0,55,0
92880,note_on,,,,,0,0,2,,,,,,0,62,118
92880,note_on,,,,,0,0,2,,,,,,0,56,118
92880,note_on,,,,,0,0,2,,,,,,0,53,118
92880,note_on,,,,,9,0,2,,,,,,0,36,118
92880,control_change,,,,,120,0,1,,,,64,96,0,,
92880,note_on,,,,,0,0,2,,,,,,0,48,118
92890,set_tempo,,,,,50,1,0,,447761,,,,,,
92970,note_on,,,,,90,0,2,,,,,,0,62,0
92970,note_on,,,,,0,0,2,,,,,,0,53,0
92970,note_on,,,,,0,0,2,,,,,,0,36,0
92970,note_on,,,,,0,0,2,,,,,,0,48,0
92970,note_on,,,,,0,0,2,,,,,,0,56,0
93000,note_on,,,,,0,0,2,,,,,,0,53,86
93000,note_on,,,,,0,0,2,,,,,,0,56,86
93000,note_on,,,,,0,0,2,,,,,,0,62,86
93000,note_on,,,,,30,0,2,,,,,,0,36,86
93000,note_on,,,,,0,0,2,,,,,,0,48,86
93090,note_on,,,,,90,0,2,,,,,,0,62,0
93090,note_on,,,,,0,0,2,,,,,,0,53,0
93090,note_on,,,,,0,0,2,,,,,,0,36,0
93090,note_on,,,,,0,0,2,,,,,,0,48,0
93090,note_on,,,,,0,0,2,,,,,,0,56,0
93120,set_tempo,,,,,230,1,0,,504201,,,,,,
93120,control_change,,,,,240,0,1,,,,64,0,0,,
93240,note_on,,,,,0,0,2,,,,,,0,55,116
93240,note_on,,,,,120,0,1,,,,,,0,64,113
93240,control_change,,,,,0,0,1,,,,64,96,0,,
93240,note_on,,,,,150,0,2,,,,,,0,46,116
93240,note_on,,,,,0,0,2,,,,,,0,48,116
93240,set_tempo,,,,,120,1,0,,461538,,,,,,
93250,set_tempo,,,,,10,1,0,,458015,,,,,,
93280,set_tempo,,,,,30,1,0,,454545,,,,,,
93300,set_tempo,,,,,20,1,0,,447761,,,,,,
93360,note_on,,,,,120,0,1,,,,,,0,64,0
93360,set_tempo,,,,,60,1,0,,444444,,,,,,
93370,set_tempo,,,,,10,1,0,,441176,,,,,,
93390,note_on,,,,,30,0,1,,,,,,0,65,89
93390,control_change,,,,,0,0,1,,,,64,0,0,,
93400,set_tempo,,,,,30,1,0,,434782,,,,,,
93410,set_tempo,,,,,10,1,0,,431654,,,,,,
93414,note_on,,,,,24,0,1,,,,,,0,65,0
93420,note_on,,,,,6,0,1,,,,,,0,67,93
93440,set_tempo,,,,,30,1,0,,425531,,,,,,
93444,note_on,,,,,24,0,1,,,,,,0,67,0
93450,note_on,,,,,6,0,1,,,,,,0,68,101
93470,set_tempo,,,,,30,1,0,,422535,,,,,,
93474,note_on,,,,,24,0,1,,,,,,0,68,0
93480,note_on,,,,,6,0,1,,,,,,0,70,106
93480,note_on,,,,,240,0,2,,,,,,0,48,0
93480,note_on,,,,,0,0,2,,,,,,0,55,0
93480,note_on,,,,,0,0,2,,,,,,0,46,0
93480,set_tempo,,,,,10,1,0,,419580,,,,,,
93490,set_tempo,,,,,10,1,0,,416666,,,,,,
93508,note_on,,,,,28,0,1,,,,,,0,70,0
93510,note_on,,,,,2,0,1,,,,,,0,72,111
93520,set_tempo,,,,,30,1,0,,410958,,,,,,
93534,note_on,,,,,24,0,1,,,,,,0,72,0
93540,note_on,,,,,6,0,1,,,,,,0,74,117
93550,set_tempo,,,,,30,1,0,,408163,,,,,,
93560,set_tempo,,,,,10,1,0,,402684,,,,,,
93564,note_on,,,,,24,0,1,,,,,,0,74,0
93570,set_tempo,,,,,10,1,0,,400000,,,,,,
93570,note_on,,,,,0,0,2,,,,,,0,55,100
93570,note_on,,,,,0,0,2,,,,,,0,48,100
93570,note_on,,,,,90,0,2,,,,,,0,46,100
93570,note_on,,,,,6,0,1,,,,,,0,76,123
93590,set_tempo,,,,,20,1,0,,397350,,,,,,
93594,note_on,,,,,24,0,2,,,,,,0,55,0
93594,note_on,,,,,0,0,2,,,,,,0,48,0
93594,note_on,,,,,0,0,2,,,,,,0,46,0
93594,note_on,,,,,24,0,1,,,,,,0,76,0
93600,note_on,,,,,6,0,2,,,,,,0,45,125
93600,note_on,,,,,0,0,2,,,,,,0,53,125
93600,note_on,,,,,0,0,2,,,,,,0,48,125
93600,note_on,,,,,6,0,1,,,,,,0,65,127
93600,set_tempo,,,,,10,1,0,,444444,,,,,,
93600,control_change,,,,,0,0,1,,,,64,95,0,,
93690,note_on,,,,,90,0,2,,,,,,0,48,0
93690,note_on,,,,,0,0,2,,,,,,0,45,0
93690,note_on,,,,,90,0,1,,,,,,0,65,0
93690,note_on,,,,,0,0,2,,,,,,0,53,0
93720,note_on,,,,,30,0,2,,,,,,0,53,86
93720,note_on,,,,,0,0,2,,,,,,0,45,86
93720,note_on,,,,,0,0,2,,,,,,0,48,86
93720,note_on,,,,,30,0,1,,,,,,0,65,108
93720,note_on,,,,,0,0,1,,,,,,0,72,108
93720,note_on,,,,,0,0,1,,,,,,0,77,108
93810,note_on,,,,,90,0,2,,,,,,0,48,0
93810,note_on,,,,,0,0,2,,,,,,0,45,0
93810,note_on,,,,,0,0,2,,,,,,0,53,0
93810,note_on,,,,,0,0,1,,,,,,0,65,0
93810,note_on,,,,,0,0,1,,,,,,0,72,0
93810,note_on,,,,,90,0,1,,,,,,0,77,0
93840,control_change,,,,,30,0,1,,,,64,0,0,,
93920,set_tempo,,,,,320,1,0,,504201,,,,,,
93930,note_on,,,,,0,0,1,,,,,,0,72,107
93930,note_on,,,,,0,0,1,,,,,,0,77,107
93930,note_on,,,,,90,0,1,,,,,,0,65,107
93954,note_on,,,,,0,0,1,,,,,,0,72,0
93954,note_on,,,,,0,0,1,,,,,,0,65,0
93954,note_on,,,,,24,0,1,,,,,,0,77,0
93960,note_on,,,,,0,0,1,,,,,,0,75,119
93960,control_change,,,,,0,0,1,,,,64,95,0,,
93960,note_on,,,,,0,0,1,,,,,,0,78,119
93960,note_on,,,,,0,0,1,,,,,,0,72,119
93960,note_on,,,,,6,0,1,,,,,,0,66,119
93960,set_tempo,,,,,40,1,0,,444444,,,,,,
94050,note_on,,,,,0,0,1,,,,,,0,66,0
94050,note_on,,,,,90,0,1,,,,,,0,78,0
94050,note_on,,,,,240,0,2,,,,,,0,45,110
94050,note_on,,,,,0,0,2,,,,,,0,57,110
94050,note_on,,,,,0,0,1,,,,,,0,75,0
94050,note_on,,,,,0,0,1,,,,,,0,72,0
94074,note_on,,,,,0,0,2,,,,,,0,45,0
94074,note_on,,,,,24,0,2,,,,,,0,57,0
94080,note_on,,,,,6,0,2,,,,,,0,44,119
94080,note_on,,,,,0,0,2,,,,,,0,56,119
94080,note_on,,,,,30,0,1,,,,,,0,66,111
94080,note_on,,,,,0,0,1,,,,,,0,72,111
94080,note_on,,,,,0,0,1,,,,,,0,75,111
94080,control_change,,,,,0,0,1,,,,64,0,0,,
94080,note_on,,,,,0,0,1,,,,,,0,78,111
94170,note_on,,,,,0,0,1,,,,,,0,72,0
94170,note_on,,,,,0,0,2,,,,,,0,44,0
94170,note_on,,,,,90,0,2,,,,,,0,56,0
94170,note_on,,,,,90,0,1,,,,,,0,78,0
94170,note_on,,,,,0,0,1,,,,,,0,66,0
94170,note_on,,,,,0,0,1,,,,,,0,75,0
94200,note_on,,,,,0,0,2,,,,,,0,44,120
94200,note_on,,,,,30,0,2,,,,,,0,32,120
94280,set_tempo,,,,,320,1,0,,545454,,,,,,
94290,note_on,,,,,90,0,2,,,,,,0,44,0
94290,note_on,,,,,0,0,2,,,,,,0,32,0
94290,note_on,,,,,0,0,1,,,,,,0,72,114
94290,note_on,,,,,0,0,1,,,,,,0,75,114
94290,note_on,,,,,0,0,1,,,,,,0,78,114
94290,note_on,,,,,120,0,1,,,,,,0,66,114
94314,note_on,,,,,24,0,1,,,,,,0,78,0
94314,note_on,,,,,0,0,1,,,,,,0,66,0
94314,note_on,,,,,0,0,1,,,,,,0,72,0
94314,note_on,,,,,0,0,1,,,,,,0,75,0
94320,control_change,,,,,0,0,1,,,,64,95,0,,
94320,note_on,,,,,6,0,1,,,,,,0,73,127
94320,note_on,,,,,0,0,1,,,,,,0,65,127
94320,note_on,,,,,0,0,1,,,,,,0,77,127
94350,set_tempo,,,,,70,1,0,,447761,,,,,,
94410,note_on,,,,,0,0,2,,,,,,0,56,116
94410,note_on,,,,,120,0,2,,,,,,0,44,116
94410,note_on,,,,,0,0,1,,,,,,0,73,0
94410,note_on,,,,,0,0,1,,,,,,0,77,0
94410,note_on,,,,,90,0,1,,,,,,0,65,0
94434,note_on,,,,,0,0,2,,,,,,0,44,0
94434,note_on,,,,,24,0,2,,,,,,0,56,0
94440,note_on,,,,,0,0,2,,,,,,0,63,126
94440,note_on,,,,,6,0,2,,,,,,0,51,126
94440,note_on,,,,,30,0,1,,,,,,0,77,113
94440,note_on,,,,,0,0,1,,,,,,0,65,113
94440,note_on,,,,,0,0,1,,,,,,0,73,113
94445,control_change,,,,,5,0,1,,,,64,0,0,,
94530,note_on,,,,,0,0,1,,,,,,0,77,0
94530,note_on,,,,,0,0,2,,,,,,0,51,0
94530,note_on,,,,,0,0,1,,,,,,0,65,0
94530,note_on,,,,,90,0,2,,,,,,0,63,0
94530,note_on,,,,,85,0,1,,,,,,0,73,0
94560,note_on,,,,,30,0,2,,,,,,0,49,93
94560,note_on,,,,,0,0,2,,,,,,0,61,93
94650,note_on,,,,,0,0,1,,,,,,0,72,122
94650,note_on,,,,,0,0,1,,,,,,0,77,122
94650,note_on,,,,,90,0,2,,,,,,0,61,0
94650,set_tempo,,,,,300,1,0,,504201,,,,,,
94650,note_on,,,,,120,0,1,,,,,,0,65,122
94650,note_on,,,,,0,0,2,,,,,,0,49,0
94674,note_on,,,,,24,0,1,,,,,,0,77,0
94674,note_on,,,,,0,0,1,,,,,,0,72,0
94674,note_on,,,,,0,0,1,,,,,,0,65,0
94680,note_on,,,,,6,0,1,,,,,,0,68,124
94680,note_on,,,,,0,0,1,,,,,,0,74,124
94680,note_on,,,,,0,0,1,,,,,,0,77,124
94680,note_on,,,,,0,0,1,,,,,,0,80,124
94680,control_change,,,,,0,0,1,,,,64,95,0,,
94680,set_tempo,,,,,30,1,0,,444444,,,,,,
94770,note_on,,,,,0,0,1,,,,,,0,68,0
94770,note_on,,,,,0,0,1,,,,,,0,74,0
94770,note_on,,,,,0,0,1,,,,,,0,77,0
94770,note_on,,,,,120,0,2,,,,,,0,47,110
94770,note_on,,,,,0,0,2,,,,,,0,59,110
94770,note_on,,,,,90,0,1,,,,,,0,80,0
94794,note_on,,,,,24,0,2,,,,,,0,59,0
94794,note_on,,,,,0,0,2,,,,,,0,47,0
94795,control_change,,,,,25,0,1,,,,64,0,0,,
94800,note_on,,,,,6,0,2,,,,,,0,46,119
94800,note_on,,,,,0,0,2,,,,,,0,58,119
94800,note_on,,,,,5,0,1,,,,,,0,68,111
94800,note_on,,,,,0,0,1,,,,,,0,74,111
94800,note_on,,,,,0,0,1,,,,,,0,77,111
94800,note_on,,,,,0,0,1,,,,,,0,80,111
94890,note_on,,,,,90,0,1,,,,,,0,80,0
94890,note_on,,,,,0,0,1,,,,,,0,68,0
94890,note_on,,,,,0,0,1,,,,,,0,74,0
94890,note_on,,,,,0,0,1,,,,,,0,77,0
94890,note_on,,,,,90,0,2,,,,,,0,58,0
94890,note_on,,,,,0,0,2,,,,,,0,46,0
94920,note_on,,,,,0,0,2,,,,,,0,46,120
94920,note_on,,,,,30,0,2,,,,,,0,34,120
95000,set_tempo,,,,,320,1,0,,545454,,,,,,
95010,note_on,,,,,90,0,2,,,,,,0,46,0
95010,note_on,,,,,0,0,2,,,,,,0,34,0
95010,note_on,,,,,120,0,1,,,,,,0,68,122
95010,note_on,,,,,0,0,1,,,,,,0,74,122
95010,note_on,,,,,0,0,1,,,,,,0,77,122
95010,note_on,,,,,0,0,1,,,,,,0,80,122
95034,note_on,,,,,0,0,1,,,,,,0,77,0
95034,note_on,,,,,0,0,1,,,,,,0,74,0
95034,note_on,,,,,24,0,1,,,,,,0,80,0
95034,note_on,,,,,0,0,1,,,,,,0,68,0
95040,note_on,,,,,0,0,1,,,,,,0,79,127
95040,control_change,,,,,0,0,1,,,,64,95,0,,
95040,note_on,,,,,0,0,1,,,,,,0,67,127
95040,note_on,,,,,6,0,1,,,,,,0,75,127
95070,set_tempo,,,,,70,1,0,,447761,,,,,,
95130,note_on,,,,,0,0,1,,,,,,0,75,0
95130,note_on,,,,,0,0,1,,,,,,0,79,0
95130,note_on,,,,,90,0,1,,,,,,0,67,0
95130,note_on,,,,,0,0,2,,,,,,0,58,116
95130,note_on,,,,,120,0,2,,,,,,0,46,116
95154,note_on,,,,,24,0,2,,,,,,0,58,0
95154,note_on,,,,,0,0,2,,,,,,0,46,0
95160,note_on,,,,,0,0,1,,,,,,0,75,113
95160,note_on,,,,,0,0,1,,,,,,0,67,113
95160,note_on,,,,,30,0,1,,,,,,0,79,113
95160,note_on,,,,,6,0,2,,,,,,0,53,126
95160,note_on,,,,,0,0,2,,,,,,0,65,126
95170,control_change,,,,,10,0,1,,,,64,0,0,,
95250,note_on,,,,,0,0,1,,,,,,0,79,0
95250,note_on,,,,,0,0,2,,,,,,0,53,0
95250,note_on,,,,,90,0,2,,,,,,0,65,0
95250,note_on,,,,,80,0,1,,,,,,0,75,0
95250,note_on,,,,,0,0,1,,,,,,0,67,0
95280,note_on,,,,,0,0,2,,,,,,0,63,93
95280,note_on,,,,,30,0,2,,,,,,0,51,93
95370,note_on,,,,,0,0,2,,,,,,0,51,0
95370,note_on,,,,,90,0,2,,,,,,0,63,0
95371,note_on,,,,,121,0,1,,,,,,0,67,114
95371,note_on,,,,,0,0,1,,,,,,0,79,114
95381,set_tempo,,,,,311,1,0,,504201,,,,,,
95395,note_on,,,,,0,0,1,,,,,,0,67,0
95395,note_on,,,,,24,0,1,,,,,,0,79,0
95400,note_on,,,,,5,0,1,,,,,,0,72,125
95400,note_on,,,,,0,0,1,,,,,,0,84,125
95401,control_change,,,,,1,0,1,,,,64,95,0,,
95460,note_on,,,,,90,0,2,,,,,,0,38,125
95460,note_on,,,,,0,0,2,,,,,,0,50,125
95481,set_tempo,,,,,100,1,0,,454545,,,,,,
95520,note_on,,,,,60,0,2,,,,,,0,50,0
95520,note_on,,,,,119,0,1,,,,,,0,84,0
95520,note_on,,,,,0,0,1,,,,,,0,72,0
95520,note_on,,,,,0,0,2,,,,,,0,51,95
95520,note_on,,,,,0,0,2,,,,,,0,39,95
95520,note_on,,,,,0,0,2,,,,,,0,38,0
95521,note_on,,,,,1,0,1,,,,,,0,67,109
95521,note_on,,,,,0,0,1,,,,,,0,79,109
95565,note_on,,,,,45,0,2,,,,,,0,51,0
95565,note_on,,,,,0,0,2,,,,,,0,39,0
95566,control_change,,,,,0,0,1,,,,64,0,0,,
95566,note_on,,,,,45,0,1,,,,,,0,79,0
95566,note_on,,,,,0,0,1,,,,,,0,67,0
95581,note_on,,,,,15,0,1,,,,,,0,63,114
95581,note_on,,,,,16,0,2,,,,,,0,36,112
95581,note_on,,,,,0,0,2,,,,,,0,48,112
95581,note_on,,,,,0,0,1,,,,,,0,75,114
95626,note_on,,,,,0,0,1,,,,,,0,63,0
95626,note_on,,,,,45,0,1,,,,,,0,75,0
95626,note_on,,,,,0,0,2,,,,,,0,36,0
95626,note_on,,,,,45,0,2,,,,,,0,48,0
95641,note_on,,,,,0,0,2,,,,,,0,53,118
95641,note_on,,,,,15,0,1,,,,,,0,62,119
95641,note_on,,,,,0,0,1,,,,,,0,74,119
95641,note_on,,,,,15,0,2,,,,,,0,41,118
95686,note_on,,,,,45,0,1,,,,,,0,74,0
95686,note_on,,,,,45,0,2,,,,,,0,53,0
95686,note_on,,,,,0,0,2,,,,,,0,41,0
95686,note_on,,,,,0,0,1,,,,,,0,62,0
95691,set_tempo,,,,,210,1,0,,504201,,,,,,
95701,note_on,,,,,15,0,2,,,,,,0,42,125
95701,note_on,,,,,0,0,2,,,,,,0,54,125
95701,note_on,,,,,15,0,1,,,,,,0,60,124
95701,note_on,,,,,0,0,1,,,,,,0,72,124
95731,set_tempo,,,,,40,1,0,,454545,,,,,,
95746,note_on,,,,,45,0,2,,,,,,0,54,0
95746,note_on,,,,,0,0,2,,,,,,0,42,0
95746,note_on,,,,,45,0,1,,,,,,0,72,0
95746,note_on,,,,,0,0,1,,,,,,0,60,0
95761,note_on,,,,,0,0,1,,,,,,0,74,127
95761,note_on,,,,,0,0,1,,,,,,0,79,127
95761,note_on,,,,,0,0,1,,,,,,0,71,127
95761,control_change,,,,,0,0,1,,,,64,96,0,,
95761,note_on,,,,,15,0,1,,,,,,0,67,127
95850,note_on,,,,,104,0,2,,,,,,0,50,127
95851,note_on,,,,,90,0,1,,,,,,0,79,0
95851,note_on,,,,,0,0,1,,,,,,0,67,0
95851,note_on,,,,,0,0,1,,,,,,0,71,0
95851,note_on,,,,,0,0,1,,,,,,0,74,0
95880,note_on,,,,,30,0,2,,,,,,0,50,0
95880,note_on,,,,,0,0,2,,,,,,0,55,127
95880,note_on,,,,,0,0,2,,,,,,0,43,127
95881,note_on,,,,,0,0,1,,,,,,0,71,99
95881,note_on,,,,,0,0,1,,,,,,0,74,99
95881,note_on,,,,,30,0,1,,,,,,0,67,99
95881,note_on,,,,,0,0,1,,,,,,0,79,99
95970,note_on,,,,,0,0,2,,,,,,0,43,0
95970,note_on,,,,,90,0,2,,,,,,0,55,0
95971,note_on,,,,,0,0,1,,,,,,0,74,0
95971,note_on,,,,,0,0,1,,,,,,0,71,0
95971,note_on,,,,,90,0,1,,,,,,0,79,0
95971,note_on,,,,,0,0,1,,,,,,0,67,0
95996,control_change,,,,,25,0,1,,,,64,0,0,,
96000,note_on,,,,,30,0,2,,,,,,0,31,101
96000,note_on,,,,,0,0,2,,,,,,0,43,101
96051,set_tempo,,,,,320,1,0,,508474,,,,,,
96090,note_on,,,,,0,0,2,,,,,,0,31,0
96090,note_on,,,,,90,0,2,,,,,,0,43,0
96091,note_on,,,,,0,0,2,,,,,,0,55,114
96091,note_on,,,,,1,0,2,,,,,,0,43,114
96091,note_on,,,,,95,0,1,,,,,,0,67,114
96091,note_on,,,,,0,0,1,,,,,,0,79,114
96091,set_tempo,,,,,40,1,0,,454545,,,,,,
96115,note_on,,,,,0,0,2,,,,,,0,43,0
96115,note_on,,,,,24,0,1,,,,,,0,79,0
96115,note_on,,,,,0,0,1,,,,,,0,67,0
96115,note_on,,,,,24,0,2,,,,,,0,55,0
96120,note_on,,,,,5,0,1,,,,,,0,87,127
96120,note_on,,,,,5,0,2,,,,,,0,48,125
96120,note_on,,,,,0,0,2,,,,,,0,60,125
96121,control_change,,,,,0,0,1,,,,64,96,0,,
96121,note_on,,,,,0,0,1,,,,,,0,84,127
96121,note_on,,,,,1,0,1,,,,,,0,75,127
96210,note_on,,,,,89,0,1,,,,,,0,87,0
96211,note_on,,,,,1,0,1,,,,,,0,84,0
96211,note_on,,,,,0,0,1,,,,,,0,75,0
96240,note_on,,,,,0,0,2,,,,,,0,48,0
96240,note_on,,,,,120,0,2,,,,,,0,60,0
96240,note_on,,,,,29,0,1,,,,,,0,87,104
96241,note_on,,,,,0,0,1,,,,,,0,84,104
96241,note_on,,,,,0,0,2,,,,,,0,55,119
96241,note_on,,,,,1,0,2,,,,,,0,43,119
96241,note_on,,,,,1,0,1,,,,,,0,75,104
96286,control_change,,,,,45,0,1,,,,64,0,0,,
96286,note_on,,,,,0,0,2,,,,,,0,43,0
96286,note_on,,,,,45,0,2,,,,,,0,55,0
96301,note_on,,,,,15,0,2,,,,,,0,39,123
96301,note_on,,,,,0,0,2,,,,,,0,51,123
96330,note_on,,,,,44,0,1,,,,,,0,87,0
96331,note_on,,,,,1,0,1,,,,,,0,84,0
96331,note_on,,,,,0,0,1,,,,,,0,75,0
96346,note_on,,,,,0,0,2,,,,,,0,39,0
96346,note_on,,,,,45,0,2,,,,,,0,51,0
96361,note_on,,,,,0,0,2,,,,,,0,50,125
96361,note_on,,,,,15,0,2,,,,,,0,38,125
96406,note_on,,,,,0,0,2,,,,,,0,38,0
96406,note_on,,,,,45,0,2,,,,,,0,50,0
96411,set_tempo,,,,,320,1,0,,500000,,,,,,
96421,note_on,,,,,0,0,2,,,,,,0,48,127
96421,note_on,,,,,15,0,2,,,,,,0,36,127
96451,note_on,,,,,120,0,1,,,,,,0,87,117
96466,note_on,,,,,45,0,2,,,,,,0,48,0
96466,note_on,,,,,0,0,2,,,,,,0,36,0
96472,set_tempo,,,,,61,1,0,,451127,,,,,,
96475,note_on,,,,,24,0,1,,,,,,0,87,0
96481,note_on,,,,,0,0,2,,,,,,0,44,127
96481,note_on,,,,,15,0,2,,,,,,0,32,127
96481,note_on,,,,,6,0,1,,,,,,0,92,127
96571,note_on,,,,,90,0,2,,,,,,0,44,0
96571,note_on,,,,,0,0,2,,,,,,0,32,0
96600,control_change,,,,,119,0,1,,,,64,96,0,,
96601,note_on,,,,,30,0,2,,,,,,0,44,127
96601,note_on,,,,,0,0,2,,,,,,0,32,127
96601,note_on,,,,,1,0,1,,,,,,0,92,0
96610,set_tempo,,,,,138,1,0,,447761,,,,,,
96615,note_on,,,,,14,0,1,,,,,,0,94,127
96630,note_on,,,,,0,0,1,,,,,,0,96,127
96630,note_on,,,,,15,0,1,,,,,,0,94,0
96645,note_on,,,,,15,0,1,,,,,,0,96,0
96645,note_on,,,,,0,0,1,,,,,,0,94,127
96660,note_on,,,,,0,0,1,,,,,,0,92,127
96660,note_on,,,,,15,0,1,,,,,,0,94,0
96675,note_on,,,,,15,0,1,,,,,,0,92,0
96675,note_on,,,,,0,0,1,,,,,,0,91,127
96690,note_on,,,,,15,0,1,,,,,,0,91,0
96690,note_on,,,,,0,0,1,,,,,,0,89,127
96705,note_on,,,,,15,0,1,,,,,,0,89,0
96705,note_on,,,,,0,0,1,,,,,,0,87,127
96720,note_on,,,,,15,0,1,,,,,,0,87,0
96721,note_on,,,,,1,0,1,,,,,,0,85,115
96741,note_on,,,,,20,0,1,,,,,,0,85,0
96741,note_on,,,,,0,0,1,,,,,,0,84,115
96761,note_on,,,,,0,0,1,,,,,,0,82,117
96761,note_on,,,,,20,0,1,,,,,,0,84,0
96781,note_on,,,,,20,0,1,,,,,,0,82,0
96781,note_on,,,,,0,0,1,,,,,,0,80,117
96801,note_on,,,,,20,0,1,,,,,,0,80,0
96801,note_on,,,,,0,0,1,,,,,,0,79,119
96821,note_on,,,,,20,0,1,,,,,,0,79,0
96821,note_on,,,,,0,0,1,,,,,,0,77,119
96841,note_on,,,,,20,0,1,,,,,,0,77,0
96841,note_on,,,,,0,0,1,,,,,,0,75,120
96850,set_tempo,,,,,240,1,0,,444444,,,,,,
96861,note_on,,,,,0,0,1,,,,,,0,73,121
96861,note_on,,,,,20,0,1,,,,,,0,75,0
96870,set_tempo,,,,,20,1,0,,441176,,,,,,
96880,note_on,,,,,19,0,1,,,,,,0,72,121
96881,note_on,,,,,1,0,1,,,,,,0,73,0
96892,set_tempo,,,,,22,1,0,,458015,,,,,,
96900,note_on,,,,,0,0,1,,,,,,0,70,122
96900,note_on,,,,,19,0,1,,,,,,0,72,0
96920,note_on,,,,,20,0,1,,,,,,0,70,0
96920,note_on,,,,,0,0,1,,,,,,0,68,123
96940,note_on,,,,,20,0,1,,,,,,0,68,0
96940,note_on,,,,,0,0,1,,,,,,0,67,124
96960,note_on,,,,,20,0,1,,,,,,0,67,0
96960,note_on,,,,,0,0,1,,,,,,0,65,125
96980,note_on,,,,,20,0,1,,,,,,0,65,0
96980,note_on,,,,,0,0,1,,,,,,0,63,125
97000,note_on,,,,,20,0,1,,,,,,0,63,0
97000,note_on,,,,,0,0,1,,,,,,0,61,126
97002,set_tempo,,,,,110,1,0,,476190,,,,,,
97020,note_on,,,,,0,0,1,,,,,,0,60,126
97020,note_on,,,,,20,0,1,,,,,,0,61,0
97040,note_on,,,,,0,0,1,,,,,,0,58,127
97040,note_on,,,,,20,0,1,,,,,,0,60,0
97060,note_on,,,,,20,0,1,,,,,,0,58,0
97060,note_on,,,,,0,0,1,,,,,,0,56,127
97080,note_on,,,,,20,0,1,,,,,,0,56,0
97080,note_on,,,,,0,0,1,,,,,,0,55,127
97082,set_tempo,,,,,80,1,0,,512820,,,,,,
97100,note_on,,,,,20,0,1,,,,,,0,55,0
97100,note_on,,,,,0,0,1,,,,,,0,53,127
97120,note_on,,,,,0,0,1,,,,,,0,51,127
97120,note_on,,,,,20,0,1,,,,,,0,53,0
97140,note_on,,,,,20,0,1,,,,,,0,51,0
97140,note_on,,,,,0,0,1,,,,,,0,49,127
97160,note_on,,,,,20,0,1,,,,,,0,49,0
97160,note_on,,,,,0,0,1,,,,,,0,48,127
97162,set_tempo,,,,,80,1,0,,550458,,,,,,
97180,note_on,,,,,20,0,1,,,,,,0,48,0
97180,note_on,,,,,0,0,1,,,,,,0,46,127
97191,control_change,,,,,11,0,1,,,,64,0,0,,
97200,note_on,,,,,9,0,1,,,,,,0,46,0
97201,control_change,,,,,0,0,1,,,,64,96,0,,
97201,note_on,,,,,1,0,1,,,,,,0,44,127
97376,control_change,,,,,175,0,1,,,,64,0,0,,
97381,note_on,,,,,780,0,2,,,,,,0,32,0
97381,note_on,,,,,5,0,1,,,,,,0,44,0
97381,note_on,,,,,0,0,2,,,,,,0,44,0
97381,note_on,,,,,0,0,2,,,,,,0,32,78
97381,note_on,,,,,0,0,2,,,,,,0,40,78
97381,note_on,,,,,0,0,2,,,,,,0,43,78
97381,control_change,,,,,0,0,1,,,,64,95,0,,
97426,note_on,,,,,45,0,2,,,,,,0,43,0
97426,note_on,,,,,0,0,2,,,,,,0,40,0
97426,note_on,,,,,0,0,2,,,,,,0,32,0
97441,note_on,,,,,15,0,2,,,,,,0,32,76
97441,note_on,,,,,0,0,2,,,,,,0,40,76
97441,note_on,,,,,0,0,2,,,,,,0,44,76
97486,note_on,,,,,45,0,2,,,,,,0,44,0
97486,note_on,,,,,0,0,2,,,,,,0,40,0
97486,note_on,,,,,0,0,2,,,,,,0,32,0
97501,note_on,,,,,15,0,2,,,,,,0,32,73
97501,note_on,,,,,0,0,2,,,,,,0,46,73
97501,note_on,,,,,0,0,2,,,,,,0,40,73
97546,note_on,,,,,45,0,2,,,,,,0,46,0
97546,note_on,,,,,0,0,2,,,,,,0,40,0
97546,note_on,,,,,0,0,2,,,,,,0,32,0
97556,control_change,,,,,175,0,1,,,,64,0,0,,
97561,note_on,,,,,15,0,2,,,,,,0,48,78
97561,note_on,,,,,0,0,2,,,,,,0,44,78
97561,note_on,,,,,0,0,2,,,,,,0,39,78
97561,note_on,,,,,0,0,2,,,,,,0,32,78
97561,control_change,,,,,5,0,1,,,,64,96,0,,
97651,note_on,,,,,90,0,2,,,,,,0,48,0
97651,note_on,,,,,0,0,2,,,,,,0,49,76
97651,control_change,,,,,90,0,1,,,,64,0,0,,
97681,note_on,,,,,0,0,2,,,,,,0,48,57
97681,note_on,,,,,30,0,2,,,,,,0,49,0
97711,note_on,,,,,30,0,2,,,,,,0,48,0
97711,note_on,,,,,0,0,2,,,,,,0,44,0
97711,note_on,,,,,0,0,2,,,,,,0,39,0
97711,note_on,,,,,0,0,2,,,,,,0,32,0
97712,set_tempo,,,,,550,1,0,,526315,,,,,,
97741,note_on,,,,,0,0,2,,,,,,0,55,78
97741,control_change,,,,,90,0,1,,,,64,95,0,,
97741,note_on,,,,,0,0,2,,,,,,0,52,78
97741,note_on,,,,,30,0,2,,,,,,0,44,78
97786,note_on,,,,,0,0,2,,,,,,0,44,0
97786,note_on,,,,,45,0,2,,,,,,0,55,0
97786,note_on,,,,,0,0,2,,,,,,0,52,0
97801,note_on,,,,,15,0,2,,,,,,0,44,76
97801,note_on,,,,,0,0,2,,,,,,0,52,76
97801,note_on,,,,,0,0,2,,,,,,0,56,76
97812,set_tempo,,,,,100,1,0,,500000,,,,,,
97846,note_on,,,,,0,0,2,,,,,,0,44,0
97846,note_on,,,,,45,0,2,,,,,,0,56,0
97846,note_on,,,,,0,0,2,,,,,,0,52,0
97861,note_on,,,,,15,0,2,,,,,,0,44,73
97861,note_on,,,,,0,0,2,,,,,,0,52,73
97861,note_on,,,,,0,0,2,,,,,,0,58,73
97906,note_on,,,,,0,0,2,,,,,,0,44,0
97906,note_on,,,,,0,0,2,,,,,,0,52,0
97906,note_on,,,,,45,0,2,,,,,,0,58,0
97916,control_change,,,,,175,0,1,,,,64,0,0,,
97921,control_change,,,,,5,0,1,,,,64,96,0,,
97921,note_on,,,,,0,0,2,,,,,,0,56,78
97921,note_on,,,,,0,0,2,,,,,,0,51,78
97921,note_on,,,,,0,0,2,,,,,,0,44,78
97921,note_on,,,,,15,0,2,,,,,,0,60,78
97962,set_tempo,,,,,150,1,0,,476190,,,,,,
98011,note_on,,,,,0,0,2,,,,,,0,61,76
98011,control_change,,,,,90,0,1,,,,64,0,0,,
98011,note_on,,,,,90,0,2,,,,,,0,60,0
98041,note_on,,,,,30,0,2,,,,,,0,61,0
98041,note_on,,,,,0,0,2,,,,,,0,60,57
98071,note_on,,,,,30,0,2,,,,,,0,60,0
98071,note_on,,,,,0,0,2,,,,,,0,56,0
98071,note_on,,,,,0,0,2,,,,,,0,51,0
98071,note_on,,,,,0,0,2,,,,,,0,44,0
98092,set_tempo,,,,,130,1,0,,447761,,,,,,
98101,control_change,,,,,0,0,2,,,,64,96,0,,
98101,control_change,,,,,0,0,1,,,,64,96,0,,
98101,note_on,,,,,90,0,1,,,,,,0,55,83
98101,note_on,,,,,30,0,2,,,,,,0,31,83
98112,set_tempo,,,,,20,1,0,,454545,,,,,,
98131,note_on,,,,,0,0,1,,,,,,0,67,83
98131,note_on,,,,,30,0,1,,,,,,0,55,0
98131,note_on,,,,,30,0,2,,,,,,0,31,0
98131,note_on,,,,,0,0,2,,,,,,0,43,83
98161,note_on,,,,,30,0,2,,,,,,0,43,0
98161,note_on,,,,,0,0,2,,,,,,0,32,85
98161,note_on,,,,,30,0,1,,,,,,0,67,0
98161,note_on,,,,,0,0,1,,,,,,0,56,85
98191,note_on,,,,,0,0,1,,,,,,0,68,86
98191,note_on,,,,,30,0,1,,,,,,0,56,0
98191,note_on,,,,,0,0,2,,,,,,0,44,86
98191,note_on,,,,,30,0,2,,,,,,0,32,0
98221,note_on,,,,,0,0,1,,,,,,0,58,88
98221,note_on,,,,,0,0,2,,,,,,0,34,88
98221,note_on,,,,,30,0,2,,,,,,0,44,0
98221,note_on,,,,,30,0,1,,,,,,0,68,0
98251,note_on,,,,,0,0,1,,,,,,0,70,88
98251,note_on,,,,,30,0,1,,,,,,0,58,0
98251,note_on,,,,,30,0,2,,,,,,0,34,0
98251,note_on,,,,,0,0,2,,,,,,0,46,88
98276,control_change,,,,,25,0,2,,,,64,0,0,,
98276,control_change,,,,,25,0,1,,,,64,0,0,,
98281,control_change,,,,,0,0,1,,,,64,96,0,,
98281,note_on,,,,,0,0,1,,,,,,0,60,90
98281,note_on,,,,,5,0,2,,,,,,0,46,0
98281,note_on,,,,,0,0,2,,,,,,0,36,90
98281,control_change,,,,,0,0,2,,,,64,96,0,,
98281,note_on,,,,,5,0,1,,,,,,0,70,0
98311,note_on,,,,,30,0,2,,,,,,0,36,0
98311,note_on,,,,,30,0,1,,,,,,0,60,0
98311,note_on,,,,,0,0,1,,,,,,0,72,90
98311,note_on,,,,,0,0,2,,,,,,0,48,90
98341,note_on,,,,,0,0,1,,,,,,0,62,92
98341,note_on,,,,,30,0,2,,,,,,0,48,0
98341,note_on,,,,,0,0,2,,,,,,0,38,92
98341,note_on,,,,,30,0,1,,,,,,0,72,0
98371,note_on,,,,,30,0,2,,,,,,0,38,0
98371,note_on,,,,,0,0,2,,,,,,0,50,93
98371,note_on,,,,,30,0,1,,,,,,0,62,0
98371,note_on,,,,,0,0,1,,,,,,0,74,93
98401,note_on,,,,,30,0,1,,,,,,0,74,0
98401,note_on,,,,,0,0,1,,,,,,0,63,96
98401,note_on,,,,,0,0,2,,,,,,0,39,96
98401,note_on,,,,,30,0,2,,,,,,0,50,0
98431,note_on,,,,,30,0,2,,,,,,0,39,0
98431,note_on,,,,,30,0,1,,,,,,0,63,0
98431,note_on,,,,,0,0,1,,,,,,0,75,96
98431,note_on,,,,,0,0,2,,,,,,0,51,96
98451,control_change,,,,,20,0,1,,,,64,0,0,,
98451,control_change,,,,,20,0,2,,,,64,0,0,,
98461,note_on,,,,,10,0,2,,,,,,0,51,0
98461,control_change,,,,,0,0,1,,,,64,96,0,,
98461,note_on,,,,,10,0,1,,,,,,0,75,0
98461,note_on,,,,,0,0,1,,,,,,0,67,98
98461,note_on,,,,,0,0,2,,,,,,0,43,98
98461,control_change,,,,,0,0,2,,,,64,96,0,,
98462,set_tempo,,,,,350,1,0,,441176,,,,,,
98491,note_on,,,,,0,0,2,,,,,,0,55,100
98491,note_on,,,,,0,0,1,,,,,,0,79,100
98491,note_on,,,,,30,0,2,,,,,,0,43,0
98491,note_on,,,,,30,0,1,,,,,,0,67,0
98521,note_on,,,,,0,0,1,,,,,,0,68,102
98521,note_on,,,,,30,0,1,,,,,,0,79,0
98521,note_on,,,,,30,0,2,,,,,,0,55,0
98521,note_on,,,,,0,0,2,,,,,,0,44,102
98551,note_on,,,,,0,0,1,,,,,,0,80,104
98551,note_on,,,,,30,0,1,,,,,,0,68,0
98551,note_on,,,,,30,0,2,,,,,,0,44,0
98551,note_on,,,,,0,0,2,,,,,,0,56,104
98581,note_on,,,,,0,0,1,,,,,,0,70,104
98581,note_on,,,,,30,0,1,,,,,,0,80,0
98581,note_on,,,,,0,0,2,,,,,,0,46,104
98581,note_on,,,,,30,0,2,,,,,,0,56,0
98602,set_tempo,,,,,140,1,0,,428571,,,,,,
98611,note_on,,,,,0,0,1,,,,,,0,82,107
98611,note_on,,,,,30,0,1,,,,,,0,70,0
98611,note_on,,,,,30,0,2,,,,,,0,46,0
98611,note_on,,,,,0,0,2,,,,,,0,58,107
98636,control_change,,,,,25,0,1,,,,64,0,0,,
98636,control_change,,,,,25,0,2,,,,64,0,0,,
98641,control_change,,,,,0,0,2,,,,64,96,0,,
98641,note_on,,,,,0,0,2,,,,,,0,48,107
98641,note_on,,,,,5,0,2,,,,,,0,58,0
98641,note_on,,,,,0,0,1,,,,,,0,72,107
98641,control_change,,,,,0,0,1,,,,64,96,0,,
98641,note_on,,,,,5,0,1,,,,,,0,82,0
98671,note_on,,,,,0,0,1,,,,,,0,84,108
98671,note_on,,,,,30,0,1,,,,,,0,72,0
98671,note_on,,,,,0,0,2,,,,,,0,60,108
98671,note_on,,,,,30,0,2,,,,,,0,48,0
98701,note_on,,,,,30,0,1,,,,,,0,84,0
98701,note_on,,,,,0,0,2,,,,,,0,50,111
98701,note_on,,,,,30,0,2,,,,,,0,60,0
98701,note_on,,,,,0,0,1,,,,,,0,74,111
98731,note_on,,,,,0,0,2,,,,,,0,62,112
98731,note_on,,,,,0,0,1,,,,,,0,86,112
98731,note_on,,,,,30,0,1,,,,,,0,74,0
98731,note_on,,,,,30,0,2,,,,,,0,50,0
98750,set_tempo,,,,,148,1,0,,431654,,,,,,
98761,note_on,,,,,30,0,2,,,,,,0,62,0
98761,note_on,,,,,30,0,1,,,,,,0,86,0
98761,note_on,,,,,0,0,2,,,,,,0,51,112
98761,note_on,,,,,0,0,1,,,,,,0,75,112
98790,set_tempo,,,,,40,1,0,,437956,,,,,,
98791,note_on,,,,,30,0,2,,,,,,0,51,0
98791,note_on,,,,,30,0,1,,,,,,0,75,0
98791,note_on,,,,,0,0,2,,,,,,0,63,115
98791,note_on,,,,,0,0,1,,,,,,0,87,115
98816,control_change,,,,,25,0,1,,,,64,0,0,,
98816,control_change,,,,,25,0,2,,,,64,0,0,,
98821,note_on,,,,,0,0,2,,,,,,0,56,116
98821,control_change,,,,,0,0,1,,,,64,96,0,,
98821,note_on,,,,,0,0,1,,,,,,0,80,116
98821,note_on,,,,,5,0,1,,,,,,0,87,0
98821,note_on,,,,,5,0,2,,,,,,0,63,0
98821,control_change,,,,,0,0,2,,,,64,96,0,,
98830,set_tempo,,,,,40,1,0,,447761,,,,,,
98840,set_tempo,,,,,10,1,0,,451127,,,,,,
98851,note_on,,,,,0,0,1,,,,,,0,92,116
98851,note_on,,,,,30,0,2,,,,,,0,56,0
98851,note_on,,,,,0,0,2,,,,,,0,68,116
98851,note_on,,,,,30,0,1,,,,,,0,80,0
98860,set_tempo,,,,,20,1,0,,454545,,,,,,
98880,set_tempo,,,,,20,1,0,,461538,,,,,,
98881,note_on,,,,,0,0,2,,,,,,0,58,116
98881,note_on,,,,,0,0,1,,,,,,0,82,116
98881,note_on,,,,,30,0,1,,,,,,0,92,0
98881,note_on,,,,,30,0,2,,,,,,0,68,0
98900,set_tempo,,,,,20,1,0,,465116,,,,,,
98910,set_tempo,,,,,10,1,0,,468750,,,,,,
98911,note_on,,,,,30,0,1,,,,,,0,82,0
98911,note_on,,,,,0,0,1,,,,,,0,94,119
98911,note_on,,,,,30,0,2,,,,,,0,58,0
98911,note_on,,,,,0,0,2,,,,,,0,70,119
98930,set_tempo,,,,,20,1,0,,472440,,,,,,
98941,note_on,,,,,0,0,1,,,,,,0,84,121
98941,note_on,,,,,30,0,1,,,,,,0,94,0
98941,note_on,,,,,30,0,2,,,,,,0,70,0
98941,note_on,,,,,0,0,2,,,,,,0,60,121
98960,set_tempo,,,,,30,1,0,,476190,,,,,,
98971,note_on,,,,,30,0,2,,,,,,0,60,0
98971,note_on,,,,,30,0,1,,,,,,0,84,0
98971,note_on,,,,,0,0,1,,,,,,0,96,123
98971,note_on,,,,,0,0,2,,,,,,0,72,123
98980,set_tempo,,,,,20,1,0,,645161,,,,,,
98996,control_change,,,,,25,0,2,,,,64,0,0,,
98996,control_change,,,,,25,0,1,,,,64,0,0,,
99000,note_on,,,,,0,0,1,,,,,,0,97,127
99000,set_tempo,,,,,20,1,0,,431654,,,,,,
99000,note_on,,,,,4,0,1,,,,,,0,85,127
99000,note_on,,,,,4,0,2,,,,,,0,65,127
99000,note_on,,,,,0,0,2,,,,,,0,61,127
99000,note_on,,,,,0,0,2,,,,,,0,56,127
99000,note_on,,,,,0,0,2,,,,,,0,53,127
99001,control_change,,,,,0,0,2,,,,64,96,0,,
99001,note_on,,,,,1,0,2,,,,,,0,72,0
99001,control_change,,,,,0,0,1,,,,64,96,0,,
99001,note_on,,,,,1,0,1,,,,,,0,96,0
99032,set_tempo,,,,,32,1,0,,428571,,,,,,
99090,note_on,,,,,0,0,2,,,,,,0,61,0
99090,note_on,,,,,0,0,2,,,,,,0,53,0
99090,note_on,,,,,89,0,2,,,,,,0,56,0
99090,note_on,,,,,0,0,2,,,,,,0,65,0
99102,set_tempo,,,,,70,1,0,,437956,,,,,,
99120,note_on,,,,,119,0,1,,,,,,0,97,0
99120,note_on,,,,,0,0,1,,,,,,0,85,0
99120,note_on,,,,,0,0,2,,,,,,0,56,108
99120,note_on,,,,,0,0,2,,,,,,0,61,108
99120,note_on,,,,,30,0,2,,,,,,0,65,108
99120,note_on,,,,,0,0,2,,,,,,0,53,108
99150,note_on,,,,,30,0,1,,,,,,0,92,126
99180,note_on,,,,,30,0,1,,,,,,0,92,0
99180,note_on,,,,,0,0,1,,,,,,0,89,125
99210,note_on,,,,,0,0,2,,,,,,0,61,0
99210,note_on,,,,,0,0,2,,,,,,0,65,0
99210,note_on,,,,,30,0,1,,,,,,0,89,0
99210,note_on,,,,,0,0,1,,,,,,0,85,124
99210,note_on,,,,,0,0,2,,,,,,0,56,0
99210,note_on,,,,,90,0,2,,,,,,0,53,0
99212,set_tempo,,,,,110,1,0,,454545,,,,,,
99240,note_on,,,,,0,0,1,,,,,,0,80,118
99240,note_on,,,,,30,0,1,,,,,,0,85,0
99241,control_change,,,,,1,0,1,,,,64,0,0,,
99270,note_on,,,,,29,0,1,,,,,,0,80,0
99270,note_on,,,,,0,0,1,,,,,,0,77,114
99300,note_on,,,,,30,0,1,,,,,,0,77,0
99300,note_on,,,,,0,0,1,,,,,,0,73,113
99302,set_tempo,,,,,90,1,0,,468750,,,,,,
99330,note_on,,,,,120,0,2,,,,,,0,53,127
99330,note_on,,,,,30,0,1,,,,,,0,73,0
99330,note_on,,,,,0,0,2,,,,,,0,65,127
99330,note_on,,,,,0,0,2,,,,,,0,61,127
99330,note_on,,,,,0,0,2,,,,,,0,56,127
99340,set_tempo,,,,,38,1,0,,472440,,,,,,
99354,note_on,,,,,0,0,2,,,,,,0,61,0
99354,note_on,,,,,0,0,2,,,,,,0,56,0
99354,note_on,,,,,24,0,2,,,,,,0,65,0
99354,note_on,,,,,0,0,2,,,,,,0,53,0
99360,note_on,,,,,30,0,1,,,,,,0,84,127
99360,note_on,,,,,6,0,2,,,,,,0,54,127
99360,note_on,,,,,0,0,2,,,,,,0,57,127
99360,note_on,,,,,0,0,2,,,,,,0,60,127
99360,note_on,,,,,0,0,2,,,,,,0,63,127
99360,note_on,,,,,0,0,1,,,,,,0,96,127
99361,control_change,,,,,1,0,1,,,,64,96,0,,
99390,set_tempo,,,,,50,1,0,,476190,,,,,,
99410,set_tempo,,,,,20,1,0,,480000,,,,,,
99440,set_tempo,,,,,30,1,0,,483870,,,,,,
99450,note_on,,,,,90,0,2,,,,,,0,63,0
99450,note_on,,,,,0,0,2,,,,,,0,54,0
99450,note_on,,,,,0,0,2,,,,,,0,57,0
99450,note_on,,,,,0,0,2,,,,,,0,60,0
99460,set_tempo,,,,,20,1,0,,487804,,,,,,
99470,set_tempo,,,,,10,1,0,,491803,,,,,,
99480,note_on,,,,,0,0,1,,,,,,0,84,0
99480,note_on,,,,,30,0,2,,,,,,0,54,113
99480,note_on,,,,,119,0,1,,,,,,0,96,0
99480,note_on,,,,,0,0,2,,,,,,0,63,113
99480,note_on,,,,,0,0,2,,,,,,0,57,113
99480,note_on,,,,,0,0,2,,,,,,0,60,113
99490,set_tempo,,,,,20,1,0,,495867,,,,,,
99510,set_tempo,,,,,20,1,0,,504201,,,,,,
99510,note_on,,,,,30,0,1,,,,,,0,93,122
99520,set_tempo,,,,,10,1,0,,508474,,,,,,
99540,set_tempo,,,,,20,1,0,,512820,,,,,,
99540,note_on,,,,,30,0,1,,,,,,0,93,0
99540,note_on,,,,,0,0,1,,,,,,0,87,119
99550,set_tempo,,,,,10,1,0,,521739,,,,,,
99560,set_tempo,,,,,10,1,0,,526315,,,,,,
99570,note_on,,,,,90,0,2,,,,,,0,63,0
99570,note_on,,,,,0,0,2,,,,,,0,57,0
99570,note_on,,,,,30,0,1,,,,,,0,87,0
99570,note_on,,,,,0,0,1,,,,,,0,84,115
99570,note_on,,,,,0,0,2,,,,,,0,54,0
99570,note_on,,,,,0,0,2,,,,,,0,60,0
99580,set_tempo,,,,,20,1,0,,530973,,,,,,
99590,set_tempo,,,,,10,1,0,,540540,,,,,,
99600,set_tempo,,,,,10,1,0,,545454,,,,,,
99600,note_on,,,,,30,0,1,,,,,,0,84,0
99600,note_on,,,,,0,0,1,,,,,,0,81,108
99601,control_change,,,,,1,0,1,,,,64,0,0,,
99620,set_tempo,,,,,20,1,0,,555555,,,,,,
99630,set_tempo,,,,,10,1,0,,571428,,,,,,
99630,note_on,,,,,0,0,1,,,,,,0,75,102
99630,note_on,,,,,29,0,1,,,,,,0,81,0
99640,set_tempo,,,,,10,1,0,,588235,,,,,,
99650,set_tempo,,,,,10,1,0,,594059,,,,,,
99660,set_tempo,,,,,10,1,0,,612244,,,,,,
99660,note_on,,,,,30,0,1,,,,,,0,75,0
99660,note_on,,,,,0,0,1,,,,,,0,72,90
99670,set_tempo,,,,,10,1,0,,1034482,,,,,,
99682,note_on,,,,,22,0,1,,,,,,0,72,0
99690,note_on,,,,,8,0,1,,,,,,0,72,76
99720,note_on,,,,,150,0,2,,,,,,0,55,39
99720,note_on,,,,,0,0,1,,,,,,0,79,60
99720,note_on,,,,,30,0,1,,,,,,0,72,0
99720,set_tempo,,,,,50,1,0,,476190,,,,,,
99720,control_change,,,,,0,0,1,,,,64,95,0,,
99750,note_on,,,,,30,0,2,,,,,,0,55,0
99750,note_on,,,,,0,0,2,,,,,,0,67,37
99770,set_tempo,,,,,50,1,0,,472440,,,,,,
99780,note_on,,,,,30,0,2,,,,,,0,67,0
99780,note_on,,,,,0,0,2,,,,,,0,62,35
99780,note_on,,,,,0,0,2,,,,,,0,59,35
99810,note_on,,,,,0,0,2,,,,,,0,67,35
99810,note_on,,,,,30,0,2,,,,,,0,62,0
99810,note_on,,,,,90,0,1,,,,,,0,79,0
99810,note_on,,,,,0,0,2,,,,,,0,59,0
99830,set_tempo,,,,,60,1,0,,468750,,,,,,
99834,note_on,,,,,24,0,2,,,,,,0,67,0
99835,control_change,,,,,25,0,1,,,,64,0,0,,
99840,note_on,,,,,6,0,2,,,,,,0,55,27
99840,control_change,,,,,0,0,1,,,,64,95,0,,
99840,note_on,,,,,5,0,1,,,,,,0,79,52
99870,note_on,,,,,30,0,2,,,,,,0,55,0
99870,set_tempo,,,,,40,1,0,,465116,,,,,,
99870,note_on,,,,,0,0,2,,,,,,0,67,26
99900,note_on,,,,,30,0,2,,,,,,0,67,0
99900,note_on,,,,,0,0,2,,,,,,0,62,29
99900,note_on,,,,,0,0,2,,,,,,0,59,29
99930,note_on,,,,,0,0,2,,,,,,0,67,32
99930,note_on,,,,,0,0,2,,,,,,0,59,0
99930,note_on,,,,,30,0,2,,,,,,0,62,0
99930,note_on,,,,,90,0,1,,,,,,0,79,0
99930,set_tempo,,,,,60,1,0,,461538,,,,,,
99954,note_on,,,,,24,0,2,,,,,,0,67,0
99960,control_change,,,,,30,0,1,,,,64,0,0,,
99960,note_on,,,,,6,0,2,,,,,,0,55,35
99990,note_on,,,,,0,0,2,,,,,,0,67,36
99990,note_on,,,,,30,0,2,,,,,,0,55,0
100020,note_on,,,,,30,0,2,,,,,,0,67,0
100020,note_on,,,,,0,0,2,,,,,,0,62,39
100020,note_on,,,,,0,0,2,,,,,,0,59,39
100050,note_on,,,,,90,0,1,,,,,,0,77,50
100050,note_on,,,,,0,0,2,,,,,,0,62,0
100050,note_on,,,,,30,0,2,,,,,,0,59,0
100050,note_on,,,,,0,0,2,,,,,,0,67,40
100050,set_tempo,,,,,120,1,0,,476190,,,,,,
100072,note_on,,,,,22,0,1,,,,,,0,77,0
100080,control_change,,,,,0,0,1,,,,64,95,0,,
100080,note_on,,,,,0,0,2,,,,,,0,55,48
100080,note_on,,,,,30,0,2,,,,,,0,67,0
100080,note_on,,,,,8,0,1,,,,,,0,75,53
100110,note_on,,,,,0,0,2,,,,,,0,67,40
100110,note_on,,,,,30,0,2,,,,,,0,55,0
100140,note_on,,,,,0,0,1,,,,,,0,79,43
100140,note_on,,,,,60,0,1,,,,,,0,75,0
100140,note_on,,,,,30,0,2,,,,,,0,67,0
100140,note_on,,,,,0,0,2,,,,,,0,63,42
100170,note_on,,,,,30,0,2,,,,,,0,63,0
100170,note_on,,,,,0,0,2,,,,,,0,67,43
100200,note_on,,,,,60,0,1,,,,,,0,79,0
100200,note_on,,,,,0,0,2,,,,,,0,59,45
100200,note_on,,,,,0,0,1,,,,,,0,77,44
100200,note_on,,,,,30,0,2,,,,,,0,67,0
100200,control_change,,,,,0,0,1,,,,64,0,0,,
100230,note_on,,,,,30,0,2,,,,,,0,59,0
100230,note_on,,,,,0,0,2,,,,,,0,67,48
100260,note_on,,,,,30,0,2,,,,,,0,67,0
100260,note_on,,,,,0,0,1,,,,,,0,75,46
100260,note_on,,,,,0,0,2,,,,,,0,60,50
100260,note_on,,,,,60,0,1,,,,,,0,77,0
100290,note_on,,,,,30,0,2,,,,,,0,60,0
100290,note_on,,,,,0,0,2,,,,,,0,67,51
100310,set_tempo,,,,,260,1,0,,472440,,,,,,
100320,note_on,,,,,60,0,1,,,,,,0,75,0
100320,note_on,,,,,0,0,2,,,,,,0,62,53
100320,note_on,,,,,30,0,2,,,,,,0,67,0
100320,note_on,,,,,0,0,1,,,,,,0,74,49
100350,note_on,,,,,30,0,2,,,,,,0,62,0
100350,note_on,,,,,0,0,2,,,,,,0,67,54
100370,set_tempo,,,,,60,1,0,,468750,,,,,,
100380,note_on,,,,,60,0,1,,,,,,0,74,0
100380,note_on,,,,,30,0,2,,,,,,0,67,0
100380,note_on,,,,,0,0,2,,,,,,0,63,56
100380,note_on,,,,,0,0,1,,,,,,0,72,55
100390,set_tempo,,,,,20,1,0,,465116,,,,,,
100410,note_on,,,,,30,0,2,,,,,,0,63,0
100410,note_on,,,,,0,0,2,,,,,,0,67,56
100440,note_on,,,,,0,0,2,,,,,,0,43,39
100440,note_on,,,,,60,0,1,,,,,,0,72,0
100440,note_on,,,,,0,0,1,,,,,,0,79,60
100440,control_change,,,,,0,0,1,,,,64,95,0,,
100440,note_on,,,,,30,0,2,,,,,,0,67,0
100440,set_tempo,,,,,50,1,0,,476190,,,,,,
100470,note_on,,,,,0,0,2,,,,,,0,55,37
100470,note_on,,,,,30,0,2,,,,,,0,43,0
100490,set_tempo,,,,,50,1,0,,472440,,,,,,
100500,note_on,,,,,0,0,2,,,,,,0,50,35
100500,note_on,,,,,0,0,2,,,,,,0,47,35
100500,note_on,,,,,30,0,2,,,,,,0,55,0
100530,note_on,,,,,30,0,2,,,,,,0,50,0
100530,note_on,,,,,0,0,2,,,,,,0,55,35
100530,note_on,,,,,0,0,2,,,,,,0,47,0
100530,note_on,,,,,90,0,1,,,,,,0,79,0
100550,set_tempo,,,,,60,1,0,,468750,,,,,,
100554,note_on,,,,,24,0,2,,,,,,0,55,0
100555,control_change,,,,,25,0,1,,,,64,0,0,,
100560,note_on,,,,,6,0,2,,,,,,0,43,27
100560,control_change,,,,,0,0,1,,,,64,95,0,,
100560,note_on,,,,,5,0,1,,,,,,0,79,52
100590,note_on,,,,,30,0,2,,,,,,0,43,0
100590,set_tempo,,,,,40,1,0,,465116,,,,,,
100590,note_on,,,,,0,0,2,,,,,,0,55,26
100620,note_on,,,,,30,0,2,,,,,,0,55,0
100620,note_on,,,,,0,0,2,,,,,,0,50,29
100620,note_on,,,,,0,0,2,,,,,,0,47,29
100650,note_on,,,,,30,0,2,,,,,,0,50,0
100650,note_on,,,,,0,0,2,,,,,,0,55,32
100650,note_on,,,,,0,0,2,,,,,,0,47,0
100650,set_tempo,,,,,60,1,0,,461538,,,,,,
100650,note_on,,,,,90,0,1,,,,,,0,79,0
100674,note_on,,,,,24,0,2,,,,,,0,55,0
100680,control_change,,,,,30,0,1,,,,64,0,0,,
100680,note_on,,,,,6,0,2,,,,,,0,43,35
100710,note_on,,,,,30,0,2,,,,,,0,43,0
100710,note_on,,,,,0,0,2,,,,,,0,55,36
100740,note_on,,,,,30,0,2,,,,,,0,55,0
100740,note_on,,,,,0,0,2,,,,,,0,47,39
100740,note_on,,,,,0,0,2,,,,,,0,50,39
100770,note_on,,,,,0,0,2,,,,,,0,55,40
100770,note_on,,,,,0,0,2,,,,,,0,50,0
100770,note_on,,,,,30,0,2,,,,,,0,47,0
100770,note_on,,,,,90,0,1,,,,,,0,77,50
100770,set_tempo,,,,,120,1,0,,476190,,,,,,
100792,note_on,,,,,22,0,1,,,,,,0,77,0
100800,note_on,,,,,8,0,1,,,,,,0,75,53
100800,note_on,,,,,0,0,2,,,,,,0,43,48
100800,control_change,,,,,0,0,1,,,,64,95,0,,
100800,note_on,,,,,30,0,2,,,,,,0,55,0
100830,note_on,,,,,30,0,2,,,,,,0,43,0
100830,note_on,,,,,0,0,2,,,,,,0,55,40
100860,note_on,,,,,0,0,2,,,,,,0,51,42
100860,note_on,,,,,30,0,2,,,,,,0,55,0
100860,note_on,,,,,60,0,1,,,,,,0,75,0
100860,note_on,,,,,0,0,1,,,,,,0,79,43
100890,note_on,,,,,0,0,2,,,,,,0,55,43
100890,note_on,,,,,30,0,2,,,,,,0,51,0
100920,note_on,,,,,30,0,2,,,,,,0,55,0
100920,note_on,,,,,0,0,2,,,,,,0,47,45
100920,note_on,,,,,0,0,1,,,,,,0,77,44
100920,control_change,,,,,0,0,1,,,,64,0,0,,
100920,note_on,,,,,60,0,1,,,,,,0,79,0
100950,note_on,,,,,30,0,2,,,,,,0,47,0
100950,note_on,,,,,0,0,2,,,,,,0,55,48
100980,note_on,,,,,60,0,1,,,,,,0,77,0
100980,note_on,,,,,0,0,1,,,,,,0,75,46
100980,note_on,,,,,0,0,2,,,,,,0,48,50
100980,note_on,,,,,30,0,2,,,,,,0,55,0
101010,note_on,,,,,0,0,2,,,,,,0,55,51
101010,note_on,,,,,30,0,2,,,,,,0,48,0
101030,set_tempo,,,,,260,1,0,,472440,,,,,,
101040,note_on,,,,,60,0,1,,,,,,0,75,0
101040,note_on,,,,,0,0,2,,,,,,0,50,53
101040,note_on,,,,,0,0,1,,,,,,0,74,49
101040,note_on,,,,,30,0,2,,,,,,0,55,0
101070,note_on,,,,,30,0,2,,,,,,0,50,0
101070,note_on,,,,,0,0,2,,,,,,0,55,54
101090,set_tempo,,,,,60,1,0,,468750,,,,,,
101100,note_on,,,,,0,0,1,,,,,,0,72,55
101100,note_on,,,,,0,0,2,,,,,,0,51,56
101100,note_on,,,,,30,0,2,,,,,,0,55,0
101100,note_on,,,,,60,0,1,,,,,,0,74,0
101110,set_tempo,,,,,20,1,0,,465116,,,,,,
101130,note_on,,,,,0,0,2,,,,,,0,55,56
101130,note_on,,,,,30,0,2,,,,,,0,51,0
101160,note_on,,,,,60,0,1,,,,,,0,72,0
101160,note_on,,,,,30,0,2,,,,,,0,55,0
101160,note_on,,,,,0,0,1,,,,,,0,71,53
101161,control_change,,,,,1,0,1,,,,64,95,0,,
101161,note_on,,,,,1,0,2,,,,,,0,43,48
101191,note_on,,,,,0,0,2,,,,,,0,55,40
101191,note_on,,,,,30,0,2,,,,,,0,43,0
101220,note_on,,,,,0,0,1,,,,,,0,77,43
101220,note_on,,,,,59,0,1,,,,,,0,71,0
101220,note_on,,,,,29,0,2,,,,,,0,47,42
101221,note_on,,,,,1,0,2,,,,,,0,55,0
101250,note_on,,,,,29,0,2,,,,,,0,47,0
101251,note_on,,,,,1,0,2,,,,,,0,55,43
101280,note_on,,,,,29,0,2,,,,,,0,48,45
101280,note_on,,,,,0,0,1,,,,,,0,75,44
101280,note_on,,,,,60,0,1,,,,,,0,77,0
101281,note_on,,,,,1,0,2,,,,,,0,55,0
101281,control_change,,,,,1,0,1,,,,64,0,0,,
101310,note_on,,,,,29,0,2,,,,,,0,48,0
101311,note_on,,,,,1,0,2,,,,,,0,55,48
101340,note_on,,,,,59,0,1,,,,,,0,75,0
101340,note_on,,,,,29,0,2,,,,,,0,50,50
101340,note_on,,,,,0,0,1,,,,,,0,74,46
101341,note_on,,,,,1,0,2,,,,,,0,55,0
101370,note_on,,,,,29,0,2,,,,,,0,50,0
101371,note_on,,,,,1,0,2,,,,,,0,55,51
101393,set_tempo,,,,,283,1,0,,472440,,,,,,
101400,note_on,,,,,60,0,1,,,,,,0,74,0
101400,note_on,,,,,0,0,1,,,,,,0,72,49
101400,note_on,,,,,29,0,2,,,,,,0,51,53
101401,note_on,,,,,1,0,2,,,,,,0,55,0
101430,note_on,,,,,29,0,2,,,,,,0,51,0
101431,note_on,,,,,1,0,2,,,,,,0,55,54
101453,set_tempo,,,,,60,1,0,,468750,,,,,,
101460,note_on,,,,,29,0,2,,,,,,0,53,56
101460,note_on,,,,,60,0,1,,,,,,0,72,0
101460,note_on,,,,,0,0,1,,,,,,0,71,55
101461,note_on,,,,,1,0,2,,,,,,0,55,0
101473,set_tempo,,,,,20,1,0,,465116,,,,,,
101490,note_on,,,,,29,0,2,,,,,,0,53,0
101491,note_on,,,,,1,0,2,,,,,,0,55,56
101520,note_on,,,,,0,0,1,,,,,,0,72,62
101520,note_on,,,,,60,0,1,,,,,,0,71,0
101520,control_change,,,,,0,0,1,,,,64,95,0,,
101520,note_on,,,,,29,0,2,,,,,,0,43,57
101520,set_tempo,,,,,47,1,0,,428571,,,,,,
101521,note_on,,,,,1,0,2,,,,,,0,55,0
101550,note_on,,,,,0,0,2,,,,,,0,54,60
101550,set_tempo,,,,,30,1,0,,425531,,,,,,
101550,note_on,,,,,29,0,2,,,,,,0,43,0
101550,note_on,,,,,0,0,1,,,,,,0,75,66
101550,note_on,,,,,30,0,1,,,,,,0,72,0
101580,note_on,,,,,30,0,2,,,,,,0,54,0
101580,note_on,,,,,0,0,2,,,,,,0,45,62
101580,note_on,,,,,0,0,1,,,,,,0,72,66
101580,note_on,,,,,30,0,1,,,,,,0,75,0
101590,set_tempo,,,,,40,1,0,,425531,,,,,,
101610,note_on,,,,,30,0,2,,,,,,0,45,0
101610,note_on,,,,,30,0,1,,,,,,0,72,0
101610,note_on,,,,,0,0,1,,,,,,0,69,67
101610,note_on,,,,,0,0,2,,,,,,0,54,64
101632,note_on,,,,,22,0,2,,,,,,0,54,0
101632,note_on,,,,,22,0,1,,,,,,0,69,0
101640,note_on,,,,,8,0,1,,,,,,0,69,70
101640,note_on,,,,,8,0,2,,,,,,0,48,67
101650,set_tempo,,,,,60,1,0,,428571,,,,,,
101670,set_tempo,,,,,20,1,0,,431654,,,,,,
101670,note_on,,,,,0,0,1,,,,,,0,72,73
101670,note_on,,,,,30,0,1,,,,,,0,69,0
101670,note_on,,,,,30,0,2,,,,,,0,48,0
101670,note_on,,,,,0,0,2,,,,,,0,54,71
101700,note_on,,,,,30,0,2,,,,,,0,54,0
101700,note_on,,,,,30,0,1,,,,,,0,72,0
101700,note_on,,,,,0,0,1,,,,,,0,69,78
101700,note_on,,,,,0,0,2,,,,,,0,51,72
101730,note_on,,,,,30,0,2,,,,,,0,51,0
101730,note_on,,,,,0,0,2,,,,,,0,54,75
101730,note_on,,,,,30,0,1,,,,,,0,69,0
101730,note_on,,,,,0,0,1,,,,,,0,66,82
101750,set_tempo,,,,,80,1,0,,434782,,,,,,
101752,note_on,,,,,22,0,2,,,,,,0,54,0
101752,note_on,,,,,22,0,1,,,,,,0,66,0
101760,note_on,,,,,8,0,2,,,,,,0,48,80
101760,note_on,,,,,8,0,1,,,,,,0,66,88
101790,note_on,,,,,0,0,1,,,,,,0,69,93
101790,set_tempo,,,,,40,1,0,,437956,,,,,,
101790,note_on,,,,,30,0,2,,,,,,0,48,0
101790,note_on,,,,,0,0,2,,,,,,0,54,83
101790,note_on,,,,,30,0,1,,,,,,0,66,0
101820,note_on,,,,,0,0,1,,,,,,0,66,99
101820,note_on,,,,,30,0,1,,,,,,0,69,0
101820,note_on,,,,,30,0,2,,,,,,0,54,0
101820,note_on,,,,,0,0,2,,,,,,0,45,87
101840,set_tempo,,,,,50,1,0,,441176,,,,,,
101850,note_on,,,,,30,0,1,,,,,,0,66,0
101850,note_on,,,,,0,0,1,,,,,,0,60,106
101850,note_on,,,,,0,0,2,,,,,,0,54,92
101850,note_on,,,,,30,0,2,,,,,,0,45,0
101875,control_change,,,,,25,0,1,,,,64,0,0,,
101880,note_on,,,,,5,0,1,,,,,,0,60,0
101880,control_change,,,,,0,0,1,,,,64,94,0,,
101880,note_on,,,,,0,0,1,,,,,,0,67,112
101880,note_on,,,,,30,0,2,,,,,,0,54,0
101880,note_on,,,,,0,0,2,,,,,,0,43,114
101910,note_on,,,,,30,0,1,,,,,,0,67,0
101910,note_on,,,,,0,0,1,,,,,,0,71,119
101940,note_on,,,,,0,0,1,,,,,,0,67,116
101940,note_on,,,,,60,0,2,,,,,,0,43,0
101940,note_on,,,,,30,0,1,,,,,,0,71,0
101950,set_tempo,,,,,110,1,0,,444444,,,,,,
101970,note_on,,,,,30,0,1,,,,,,0,67,0
101970,note_on,,,,,0,0,1,,,,,,0,62,115
101992,note_on,,,,,22,0,1,,,,,,0,62,0
102000,note_on,,,,,8,0,1,,,,,,0,62,113
102000,set_tempo,,,,,50,1,0,,447761,,,,,,
102000,note_on,,,,,60,0,2,,,,,,0,50,122
102030,note_on,,,,,0,0,1,,,,,,0,67,113
102030,note_on,,,,,30,0,2,,,,,,0,50,0
102030,note_on,,,,,0,0,2,,,,,,0,55,113
102030,note_on,,,,,30,0,1,,,,,,0,62,0
102060,note_on,,,,,30,0,2,,,,,,0,55,0
102060,note_on,,,,,0,0,2,,,,,,0,50,113
102060,note_on,,,,,0,0,1,,,,,,0,62,115
102060,note_on,,,,,30,0,1,,,,,,0,67,0
102090,note_on,,,,,30,0,1,,,,,,0,62,0
102090,note_on,,,,,30,0,2,,,,,,0,50,0
102090,note_on,,,,,0,0,1,,,,,,0,59,118
102090,note_on,,,,,0,0,2,,,,,,0,47,113
102112,note_on,,,,,22,0,2,,,,,,0,47,0
102112,note_on,,,,,22,0,1,,,,,,0,59,0
102120,note_on,,,,,8,0,2,,,,,,0,47,122
102120,note_on,,,,,8,0,1,,,,,,0,59,120
102130,set_tempo,,,,,130,1,0,,451127,,,,,,
102150,note_on,,,,,30,0,1,,,,,,0,59,0
102150,note_on,,,,,0,0,2,,,,,,0,50,117
102150,note_on,,,,,0,0,1,,,,,,0,62,121
102150,note_on,,,,,30,0,2,,,,,,0,47,0
102150,set_tempo,,,,,20,1,0,,454545,,,,,,
102170,set_tempo,,,,,20,1,0,,458015,,,,,,
102180,note_on,,,,,0,0,1,,,,,,0,59,124
102180,note_on,,,,,30,0,1,,,,,,0,62,0
102180,note_on,,,,,30,0,2,,,,,,0,50,0
102180,note_on,,,,,0,0,2,,,,,,0,47,119
102210,note_on,,,,,0,0,1,,,,,,0,55,127
102210,note_on,,,,,30,0,1,,,,,,0,59,0
102210,note_on,,,,,30,0,2,,,,,,0,47,0
102210,note_on,,,,,0,0,2,,,,,,0,43,123
102230,control_change,,,,,20,0,1,,,,64,0,0,,
102232,note_on,,,,,2,0,1,,,,,,0,55,0
102232,note_on,,,,,22,0,2,,,,,,0,43,0
102240,note_on,,,,,8,0,2,,,,,,0,31,127
102240,note_on,,,,,8,0,1,,,,,,0,67,127
102240,control_change,,,,,0,0,1,,,,64,96,0,,
102300,note_on,,,,,60,0,1,,,,,,0,67,0
102300,note_on,,,,,60,0,2,,,,,,0,31,0
102310,set_tempo,,,,,140,1,0,,461538,,,,,,
102360,note_on,,,,,60,0,2,,,,,,0,31,127
102360,note_on,,,,,0,0,1,,,,,,0,67,116
102360,note_on,,,,,0,0,2,,,,,,0,43,127
102360,note_on,,,,,60,0,1,,,,,,0,55,116
102390,set_tempo,,,,,80,1,0,,465116,,,,,,
102450,set_tempo,,,,,60,1,0,,468750,,,,,,
102480,note_on,,,,,120,0,2,,,,,,0,43,0
102480,note_on,,,,,120,0,1,,,,,,0,67,0
102480,note_on,,,,,0,0,1,,,,,,0,55,0
102480,note_on,,,,,0,0,2,,,,,,0,31,0
102535,control_change,,,,,55,0,1,,,,64,0,0,,
102600,set_tempo,,,,,150,1,0,,468750,,,,,,
102770,set_tempo,,,,,170,1,0,,689655,,,,,,
102780,note_on,,,,,300,0,2,,,,,,0,43,44
102780,note_on,,,,,0,0,2,,,,,,0,53,44
102780,note_on,,,,,0,0,1,,,,,,0,65,38
102780,control_change,,,,,0,0,1,,,,64,95,0,,
102780,note_on,,,,,245,0,1,,,,,,0,55,38
102825,note_on,,,,,0,0,1,,,,,,0,55,0
102825,note_on,,,,,45,0,2,,,,,,0,53,0
102825,note_on,,,,,45,0,1,,,,,,0,65,0
102825,note_on,,,,,0,0,2,,,,,,0,43,0
102840,set_tempo,,,,,70,1,0,,689655,,,,,,
102840,note_on,,,,,15,0,2,,,,,,0,45,46
102840,note_on,,,,,0,0,2,,,,,,0,53,46
102840,note_on,,,,,0,0,1,,,,,,0,64,43
102840,note_on,,,,,15,0,1,,,,,,0,55,43
102850,set_tempo,,,,,10,1,0,,714285,,,,,,
102885,note_on,,,,,0,0,2,,,,,,0,45,0
102885,note_on,,,,,0,0,1,,,,,,0,55,0
102885,note_on,,,,,45,0,1,,,,,,0,64,0
102885,note_on,,,,,45,0,2,,,,,,0,53,0
102890,set_tempo,,,,,40,1,0,,923076,,,,,,
102900,note_on,,,,,0,0,1,,,,,,0,62,47
102900,note_on,,,,,15,0,1,,,,,,0,55,47
102900,note_on,,,,,0,0,2,,,,,,0,53,51
102900,note_on,,,,,15,0,2,,,,,,0,47,51
102945,note_on,,,,,45,0,2,,,,,,0,53,0
102945,note_on,,,,,0,0,1,,,,,,0,55,0
102945,note_on,,,,,45,0,1,,,,,,0,62,0
102945,note_on,,,,,0,0,2,,,,,,0,47,0
102950,control_change,,,,,5,0,1,,,,64,0,0,,
102960,set_tempo,,,,,0,1,0,,535714,,,,,,
102960,note_on,,,,,10,0,1,,,,,,0,60,50
102960,note_on,,,,,15,0,2,,,,,,0,48,53
102960,control_change,,,,,0,0,1,,,,64,95,0,,
102960,note_on,,,,,0,0,2,,,,,,0,52,53
102960,key_signature,,,,,70,1,0,C,,,,,,,
103080,note_on,,,,,120,0,1,,,,,,0,55,48
103170,note_on,,,,,90,0,1,,,,,,0,55,0
103195,control_change,,,,,25,0,1,,,,64,0,0,,
103200,note_on,,,,,5,0,1,,,,,,0,60,0
103200,note_on,,,,,0,0,1,,,,,,0,55,44
103200,note_on,,,,,0,0,1,,,,,,0,59,44
103200,control_change,,,,,0,0,1,,,,64,94,0,,
103200,note_on,,,,,240,0,2,,,,,,0,52,0
103200,note_on,,,,,0,0,2,,,,,,0,53,45
103200,note_on,,,,,0,0,2,,,,,,0,50,45
103200,note_on,,,,,0,0,2,,,,,,0,48,0
103290,note_on,,,,,90,0,1,,,,,,0,59,0
103290,note_on,,,,,0,0,1,,,,,,0,55,0
103290,note_on,,,,,0,0,2,,,,,,0,50,0
103290,note_on,,,,,90,0,2,,,,,,0,53,0
103315,control_change,,,,,25,0,1,,,,64,0,0,,
103320,note_on,,,,,0,0,2,,,,,,0,52,45
103320,note_on,,,,,30,0,2,,,,,,0,48,45
103320,control_change,,,,,0,0,1,,,,64,97,0,,
103320,note_on,,,,,0,0,1,,,,,,0,60,47
103320,set_tempo,,,,,360,1,0,,540540,,,,,,
103320,note_on,,,,,5,0,1,,,,,,0,55,47
103340,set_tempo,,,,,20,1,0,,555555,,,,,,
103350,set_tempo,,,,,10,1,0,,566037,,,,,,
103370,set_tempo,,,,,20,1,0,,571428,,,,,,
103380,note_on,,,,,0,0,2,,,,,,0,50,41
103380,note_on,,,,,0,0,1,,,,,,0,55,0
103380,note_on,,,,,0,0,1,,,,,,0,55,42
103380,note_on,,,,,0,0,1,,,,,,0,59,42
103380,set_tempo,,,,,10,1,0,,576923,,,,,,
103380,note_on,,,,,60,0,2,,,,,,0,52,0
103380,note_on,,,,,0,0,2,,,,,,0,48,0
103380,note_on,,,,,0,0,2,,,,,,0,53,41
103380,note_on,,,,,60,0,1,,,,,,0,60,0
103390,set_tempo,,,,,10,1,0,,582524,,,,,,
103440,note_on,,,,,0,0,2,,,,,,0,50,0
103440,note_on,,,,,0,0,2,,,,,,0,48,37
103440,note_on,,,,,0,0,2,,,,,,0,52,37
103440,note_on,,,,,0,0,1,,,,,,0,60,39
103440,note_on,,,,,0,0,1,,,,,,0,55,39
103440,note_on,,,,,0,0,1,,,,,,0,55,0
103440,note_on,,,,,60,0,1,,,,,,0,59,0
103440,note_on,,,,,60,0,2,,,,,,0,53,0
103445,control_change,,,,,5,0,1,,,,64,0,0,,
103450,set_tempo,,,,,60,1,0,,588235,,,,,,
103460,set_tempo,,,,,10,1,0,,600000,,,,,,
103480,set_tempo,,,,,20,1,0,,606060,,,,,,
103500,note_on,,,,,0,0,2,,,,,,0,53,33
103500,set_tempo,,,,,20,1,0,,612244,,,,,,
103500,note_on,,,,,0,0,1,,,,,,0,62,35
103500,note_on,,,,,0,0,1,,,,,,0,55,35
103500,note_on,,,,,0,0,1,,,,,,0,55,0
103500,note_on,,,,,55,0,1,,,,,,0,60,0
103500,note_on,,,,,60,0,2,,,,,,0,52,0
103500,note_on,,,,,0,0,2,,,,,,0,48,0
103500,note_on,,,,,0,0,2,,,,,,0,47,33
103530,set_tempo,,,,,30,1,0,,618556,,,,,,
103540,set_tempo,,,,,10,1,0,,625000,,,,,,
103560,note_on,,,,,60,0,2,,,,,,0,53,0
103560,note_on,,,,,0,0,2,,,,,,0,47,0
103560,note_on,,,,,0,0,2,,,,,,0,48,31
103560,note_on,,,,,0,0,1,,,,,,0,55,32
103560,note_on,,,,,60,0,1,,,,,,0,62,0
103560,note_on,,,,,0,0,1,,,,,,0,55,0
103560,note_on,,,,,0,0,2,,,,,,0,52,31
103560,note_on,,,,,0,0,1,,,,,,0,64,32
103650,note_on,,,,,0,0,1,,,,,,0,55,0
103650,note_on,,,,,90,0,1,,,,,,0,64,0
103650,note_on,,,,,90,0,2,,,,,,0,52,0
103650,note_on,,,,,0,0,2,,,,,,0,48,0
103680,note_on,,,,,30,0,1,,,,,,0,57,50
103680,note_on,,,,,0,0,1,,,,,,0,65,50
103680,control_change,,,,,0,0,1,,,,64,96,0,,
103680,note_on,,,,,30,0,2,,,,,,0,41,50
103680,note_on,,,,,0,0,2,,,,,,0,48,50
103680,note_on,,,,,0,0,2,,,,,,0,53,50
103690,set_tempo,,,,,150,1,0,,625000,,,,,,
103920,note_on,,,,,240,0,2,,,,,,0,53,0
103920,note_on,,,,,0,0,2,,,,,,0,41,0
103920,note_on,,,,,0,0,2,,,,,,0,48,0
103920,note_on,,,,,240,0,1,,,,,,0,65,0
103920,note_on,,,,,0,0,2,,,,,,0,48,44
103920,note_on,,,,,0,0,1,,,,,,0,57,0
103920,note_on,,,,,0,0,1,,,,,,0,64,44
103920,note_on,,,,,0,0,1,,,,,,0,55,44
103925,control_change,,,,,5,0,1,,,,64,0,0,,
104010,note_on,,,,,85,0,1,,,,,,0,64,0
104010,note_on,,,,,0,0,1,,,,,,0,55,0
104010,note_on,,,,,90,0,2,,,,,,0,48,0
104030,set_tempo,,,,,340,1,0,,555555,,,,,,
104040,control_change,,,,,0,0,1,,,,64,94,0,,
104040,note_on,,,,,30,0,1,,,,,,0,64,47
104040,note_on,,,,,30,0,2,,,,,,0,43,47
104088,note_on,,,,,48,0,2,,,,,,0,43,0
104100,note_on,,,,,12,0,2,,,,,,0,43,42
104100,note_on,,,,,60,0,1,,,,,,0,64,0
104100,set_tempo,,,,,70,1,0,,560747,,,,,,
104100,note_on,,,,,0,0,1,,,,,,0,62,43
104110,set_tempo,,,,,10,1,0,,566037,,,,,,
104130,set_tempo,,,,,20,1,0,,571428,,,,,,
104148,note_on,,,,,48,0,2,,,,,,0,43,0
104160,set_tempo,,,,,30,1,0,,576923,,,,,,
104160,control_change,,,,,0,0,1,,,,64,0,0,,
104160,note_on,,,,,60,0,1,,,,,,0,62,0
104160,note_on,,,,,12,0,2,,,,,,0,43,34
104160,note_on,,,,,0,0,1,,,,,,0,60,33
104180,set_tempo,,,,,20,1,0,,582524,,,,,,
104200,set_tempo,,,,,20,1,0,,594059,,,,,,
104208,note_on,,,,,48,0,2,,,,,,0,43,0
104220,set_tempo,,,,,20,1,0,,600000,,,,,,
104220,note_on,,,,,12,0,2,,,,,,0,43,37
104220,note_on,,,,,0,0,1,,,,,,0,59,37
104220,note_on,,,,,60,0,1,,,,,,0,60,0
104230,set_tempo,,,,,10,1,0,,606060,,,,,,
104250,set_tempo,,,,,20,1,0,,612244,,,,,,
104268,note_on,,,,,48,0,2,,,,,,0,43,0
104280,note_on,,,,,60,0,1,,,,,,0,59,0
104280,note_on,,,,,0,0,1,,,,,,0,57,42
104280,note_on,,,,,12,0,2,,,,,,0,43,39
104328,note_on,,,,,48,0,2,,,,,,0,43,0
104330,set_tempo,,,,,80,1,0,,625000,,,,,,
104340,note_on,,,,,0,0,2,,,,,,0,50,41
104340,note_on,,,,,12,0,2,,,,,,0,43,41
104340,note_on,,,,,60,0,1,,,,,,0,57,0
104340,note_on,,,,,0,0,1,,,,,,0,59,45
104350,set_tempo,,,,,20,1,0,,631578,,,,,,
104360,set_tempo,,,,,10,1,0,,638297,,,,,,
104385,note_on,,,,,0,0,2,,,,,,0,43,0
104385,note_on,,,,,45,0,1,,,,,,0,59,0
104385,note_on,,,,,45,0,2,,,,,,0,50,0
104400,control_change,,,,,0,0,1,,,,64,95,0,,
104400,note_on,,,,,15,0,2,,,,,,0,48,53
104400,note_on,,,,,15,0,1,,,,,,0,60,50
104400,set_tempo,,,,,40,1,0,,535714,,,,,,
104400,note_on,,,,,0,0,2,,,,,,0,52,53
104520,note_on,,,,,120,0,1,,,,,,0,67,48
104520,note_on,,,,,0,0,1,,,,,,0,55,48
104610,note_on,,,,,0,0,1,,,,,,0,67,0
104610,note_on,,,,,90,0,1,,,,,,0,55,0
104635,control_change,,,,,25,0,1,,,,64,0,0,,
104640,note_on,,,,,240,0,2,,,,,,0,52,0
104640,note_on,,,,,5,0,1,,,,,,0,60,0
104640,note_on,,,,,0,0,2,,,,,,0,50,45
104640,note_on,,,,,0,0,2,,,,,,0,53,45
104640,control_change,,,,,0,0,1,,,,64,94,0,,
104640,note_on,,,,,0,0,1,,,,,,0,55,44
104640,note_on,,,,,0,0,1,,,,,,0,67,44
104640,note_on,,,,,0,0,1,,,,,,0,59,52
104640,note_on,,,,,0,0,2,,,,,,0,48,0
104730,note_on,,,,,0,0,2,,,,,,0,50,0
104730,note_on,,,,,0,0,1,,,,,,0,59,0
104730,note_on,,,,,0,0,1,,,,,,0,67,0
104730,note_on,,,,,90,0,1,,,,,,0,55,0
104730,note_on,,,,,90,0,2,,,,,,0,53,0
104755,control_change,,,,,25,0,1,,,,64,0,0,,
104760,note_on,,,,,5,0,1,,,,,,0,60,57
104760,note_on,,,,,0,0,1,,,,,,0,67,47
104760,note_on,,,,,30,0,2,,,,,,0,48,45
104760,note_on,,,,,0,0,2,,,,,,0,52,45
104760,control_change,,,,,0,0,1,,,,64,97,0,,
104760,note_on,,,,,0,0,1,,,,,,0,55,47
104760,set_tempo,,,,,360,1,0,,540540,,,,,,
104780,set_tempo,,,,,20,1,0,,555555,,,,,,
104790,set_tempo,,,,,10,1,0,,566037,,,,,,
104810,set_tempo,,,,,20,1,0,,571428,,,,,,
104820,note_on,,,,,60,0,2,,,,,,0,52,0
104820,note_on,,,,,60,0,1,,,,,,0,55,0
104820,note_on,,,,,0,0,2,,,,,,0,53,41
104820,note_on,,,,,0,0,2,,,,,,0,50,41
104820,note_on,,,,,0,0,2,,,,,,0,48,0
104820,set_tempo,,,,,10,1,0,,576923,,,,,,
104820,note_on,,,,,0,0,1,,,,,,0,67,0
104820,note_on,,,,,0,0,1,,,,,,0,60,0
104820,note_on,,,,,0,0,1,,,,,,0,59,54
104820,note_on,,,,,0,0,1,,,,,,0,67,42
104820,note_on,,,,,0,0,1,,,,,,0,55,42
104830,set_tempo,,,,,10,1,0,,582524,,,,,,
104880,note_on,,,,,0,0,2,,,,,,0,48,37
104880,note_on,,,,,0,0,1,,,,,,0,59,0
104880,note_on,,,,,0,0,2,,,,,,0,50,0
104880,note_on,,,,,0,0,1,,,,,,0,60,51
104880,note_on,,,,,0,0,1,,,,,,0,67,39
104880,note_on,,,,,60,0,2,,,,,,0,53,0
104880,note_on,,,,,0,0,2,,,,,,0,52,37
104880,note_on,,,,,0,0,1,,,,,,0,67,0
104880,note_on,,,,,60,0,1,,,,,,0,55,0
104880,note_on,,,,,0,0,1,,,,,,0,55,39
104885,control_change,,,,,5,0,1,,,,64,0,0,,
104890,set_tempo,,,,,60,1,0,,588235,,,,,,
104900,set_tempo,,,,,10,1,0,,600000,,,,,,
104920,set_tempo,,,,,20,1,0,,606060,,,,,,
104940,set_tempo,,,,,20,1,0,,612244,,,,,,
104940,note_on,,,,,0,0,1,,,,,,0,60,0
104940,note_on,,,,,0,0,1,,,,,,0,62,47
104940,note_on,,,,,0,0,1,,,,,,0,67,35
104940,note_on,,,,,0,0,1,,,,,,0,55,35
104940,note_on,,,,,0,0,1,,,,,,0,67,0
104940,note_on,,,,,55,0,1,,,,,,0,55,0
104940,note_on,,,,,60,0,2,,,,,,0,52,0
104940,note_on,,,,,0,0,2,,,,,,0,48,0
104940,note_on,,,,,0,0,2,,,,,,0,47,33
104940,note_on,,,,,0,0,2,,,,,,0,53,33
104970,set_tempo,,,,,30,1,0,,618556,,,,,,
104980,set_tempo,,,,,10,1,0,,625000,,,,,,
105000,note_on,,,,,0,0,1,,,,,,0,67,32
105000,note_on,,,,,0,0,1,,,,,,0,55,32
105000,note_on,,,,,0,0,2,,,,,,0,52,31
105000,note_on,,,,,60,0,1,,,,,,0,55,0
105000,note_on,,,,,0,0,1,,,,,,0,67,0
105000,note_on,,,,,0,0,1,,,,,,0,62,0
105000,note_on,,,,,60,0,2,,,,,,0,53,0
105000,note_on,,,,,0,0,2,,,,,,0,47,0
105000,note_on,,,,,0,0,1,,,,,,0,64,48
105000,note_on,,,,,0,0,2,,,,,,0,48,31
105090,note_on,,,,,0,0,2,,,,,,0,48,0
105090,note_on,,,,,90,0,2,,,,,,0,52,0
105090,note_on,,,,,0,0,1,,,,,,0,64,0
105090,note_on,,,,,0,0,1,,,,,,0,67,0
105090,note_on,,,,,90,0,1,,,,,,0,55,0
105120,note_on,,,,,30,0,1,,,,,,0,67,57
105120,control_change,,,,,0,0,1,,,,64,96,0,,
105120,note_on,,,,,30,0,2,,,,,,0,58,58
105120,note_on,,,,,0,0,2,,,,,,0,48,58
105130,set_tempo,,,,,150,1,0,,625000,,,,,,
105240,note_on,,,,,120,0,1,,,,,,0,72,44
105330,note_on,,,,,90,0,1,,,,,,0,72,0
105360,note_on,,,,,30,0,1,,,,,,0,67,0
105360,note_on,,,,,0,0,1,,,,,,0,55,44
105360,note_on,,,,,0,0,2,,,,,,0,58,0
105360,note_on,,,,,240,0,2,,,,,,0,48,0
105360,note_on,,,,,0,0,1,,,,,,0,64,48
105360,note_on,,,,,0,0,1,,,,,,0,72,44
105360,note_on,,,,,0,0,2,,,,,,0,48,44
105365,control_change,,,,,5,0,1,,,,64,0,0,,
105450,note_on,,,,,0,0,1,,,,,,0,64,0
105450,note_on,,,,,0,0,1,,,,,,0,72,0
105450,note_on,,,,,85,0,1,,,,,,0,55,0
105450,note_on,,,,,90,0,2,,,,,,0,48,0
105470,set_tempo,,,,,340,1,0,,555555,,,,,,
105480,control_change,,,,,0,0,1,,,,64,94,0,,
105480,note_on,,,,,30,0,1,,,,,,0,72,47
105480,note_on,,,,,0,0,1,,,,,,0,67,58
105480,note_on,,,,,30,0,2,,,,,,0,58,47
105480,note_on,,,,,0,0,2,,,,,,0,48,47
105528,note_on,,,,,48,0,1,,,,,,0,72,0
105528,note_on,,,,,0,0,2,,,,,,0,58,0
105528,note_on,,,,,48,0,2,,,,,,0,48,0
105540,note_on,,,,,0,0,2,,,,,,0,48,44
105540,note_on,,,,,0,0,1,,,,,,0,65,55
105540,note_on,,,,,0,0,1,,,,,,0,72,44
105540,note_on,,,,,12,0,2,,,,,,0,57,44
105540,set_tempo,,,,,70,1,0,,560747,,,,,,
105540,note_on,,,,,12,0,1,,,,,,0,67,0
105550,set_tempo,,,,,10,1,0,,566037,,,,,,
105570,set_tempo,,,,,20,1,0,,571428,,,,,,
105588,note_on,,,,,48,0,1,,,,,,0,72,0
105588,note_on,,,,,48,0,2,,,,,,0,48,0
105588,note_on,,,,,0,0,2,,,,,,0,57,0
105595,control_change,,,,,7,0,1,,,,64,0,0,,
105600,note_on,,,,,0,0,1,,,,,,0,72,41
105600,note_on,,,,,5,0,1,,,,,,0,65,0
105600,note_on,,,,,0,0,1,,,,,,0,64,48
105600,note_on,,,,,0,0,2,,,,,,0,48,41
105600,note_on,,,,,12,0,2,,,,,,0,55,41
105600,set_tempo,,,,,30,1,0,,576923,,,,,,
105600,control_change,,,,,0,0,1,,,,64,95,0,,
105620,set_tempo,,,,,20,1,0,,582524,,,,,,
105640,set_tempo,,,,,20,1,0,,594059,,,,,,
105648,note_on,,,,,48,0,1,,,,,,0,72,0
105648,note_on,,,,,0,0,2,,,,,,0,55,0
105648,note_on,,,,,48,0,2,,,,,,0,48,0
105660,note_on,,,,,0,0,1,,,,,,0,72,41
105660,note_on,,,,,0,0,1,,,,,,0,62,53
105660,note_on,,,,,12,0,1,,,,,,0,64,0
105660,set_tempo,,,,,20,1,0,,600000,,,,,,
105660,note_on,,,,,0,0,2,,,,,,0,48,41
105660,note_on,,,,,12,0,2,,,,,,0,53,41
105670,set_tempo,,,,,10,1,0,,606060,,,,,,
105690,set_tempo,,,,,20,1,0,,612244,,,,,,
105708,note_on,,,,,0,0,2,,,,,,0,53,0
105708,note_on,,,,,48,0,2,,,,,,0,48,0
105708,note_on,,,,,48,0,1,,,,,,0,72,0
105720,note_on,,,,,12,0,1,,,,,,0,62,0
105720,note_on,,,,,0,0,1,,,,,,0,60,54
105720,note_on,,,,,0,0,2,,,,,,0,48,42
105720,note_on,,,,,12,0,2,,,,,,0,52,42
105720,note_on,,,,,0,0,1,,,,,,0,72,42
105768,note_on,,,,,0,0,2,,,,,,0,52,0
105768,note_on,,,,,48,0,1,,,,,,0,72,0
105768,note_on,,,,,48,0,2,,,,,,0,48,0
105770,set_tempo,,,,,80,1,0,,625000,,,,,,
105780,note_on,,,,,0,0,2,,,,,,0,53,44
105780,note_on,,,,,12,0,2,,,,,,0,48,44
105780,note_on,,,,,0,0,1,,,,,,0,62,56
105780,note_on,,,,,0,0,1,,,,,,0,72,44
105780,note_on,,,,,12,0,1,,,,,,0,60,0
105790,set_tempo,,,,,20,1,0,,631578,,,,,,
105800,set_tempo,,,,,10,1,0,,638297,,,,,,
105825,note_on,,,,,0,0,1,,,,,,0,72,0
105825,note_on,,,,,45,0,1,,,,,,0,62,0
105825,note_on,,,,,0,0,2,,,,,,0,48,0
105825,note_on,,,,,45,0,2,,,,,,0,53,0
105835,control_change,,,,,10,0,1,,,,64,0,0,,
105840,note_on,,,,,5,0,1,,,,,,0,64,54
105840,note_on,,,,,15,0,2,,,,,,0,55,48
105840,note_on,,,,,0,0,2,,,,,,0,48,48
105840,note_on,,,,,0,0,1,,,,,,0,72,41
105907,note_on,,,,,67,0,2,,,,,,0,48,0
105907,note_on,,,,,0,0,2,,,,,,0,55,0
105907,note_on,,,,,67,0,1,,,,,,0,72,0
105907,note_on,,,,,0,0,1,,,,,,0,64,0
105960,control_change,,,,,0,0,1,,,,64,96,0,,
105960,note_on,,,,,0,0,1,,,,,,0,65,38
105960,note_on,,,,,53,0,1,,,,,,0,62,38
105960,note_on,,,,,0,0,2,,,,,,0,58,37
105960,note_on,,,,,53,0,2,,,,,,0,46,37
106010,set_tempo,,,,,210,1,0,,645161,,,,,,
106060,set_tempo,,,,,50,1,0,,652173,,,,,,
106090,set_tempo,,,,,30,1,0,,659340,,,,,,
106120,set_tempo,,,,,30,1,0,,666666,,,,,,
106140,note_on,,,,,0,0,2,,,,,,0,53,34
106140,note_on,,,,,0,0,2,,,,,,0,46,0
106140,note_on,,,,,180,0,2,,,,,,0,58,0
106140,note_on,,,,,180,0,1,,,,,,0,65,0
106140,note_on,,,,,0,0,1,,,,,,0,62,0
106140,note_on,,,,,0,0,1,,,,,,0,62,36
106140,note_on,,,,,0,0,2,,,,,,0,46,34
106150,set_tempo,,,,,30,1,0,,674157,,,,,,
106190,set_tempo,,,,,40,1,0,,681818,,,,,,
106190,control_change,,,,,50,0,1,,,,64,0,0,,
106200,note_on,,,,,0,0,2,,,,,,0,56,38
106200,control_change,,,,,0,0,1,,,,64,94,0,,
106200,note_on,,,,,0,0,1,,,,,,0,65,44
106200,note_on,,,,,60,0,2,,,,,,0,46,0
106200,note_on,,,,,0,0,2,,,,,,0,53,0
106200,note_on,,,,,10,0,1,,,,,,0,62,0
106200,note_on,,,,,0,0,2,,,,,,0,46,38
106210,set_tempo,,,,,20,1,0,,689655,,,,,,
106240,set_tempo,,,,,30,1,0,,697674,,,,,,
106248,note_on,,,,,0,0,2,,,,,,0,56,0
106248,note_on,,,,,48,0,2,,,,,,0,46,0
106260,note_on,,,,,60,0,1,,,,,,0,65,0
106260,note_on,,,,,12,0,2,,,,,,0,55,36
106260,note_on,,,,,0,0,1,,,,,,0,63,39
106260,note_on,,,,,0,0,2,,,,,,0,46,36
106290,set_tempo,,,,,50,1,0,,705882,,,,,,
106308,note_on,,,,,48,0,2,,,,,,0,46,0
106308,note_on,,,,,0,0,2,,,,,,0,55,0
106315,control_change,,,,,55,0,1,,,,64,0,0,,
106320,note_on,,,,,0,0,1,,,,,,0,70,36
106320,note_on,,,,,12,0,2,,,,,,0,53,33
106320,note_on,,,,,0,0,2,,,,,,0,46,33
106320,note_on,,,,,0,0,1,,,,,,0,62,36
106320,control_change,,,,,0,0,1,,,,64,94,0,,
106320,note_on,,,,,5,0,1,,,,,,0,63,0
106340,set_tempo,,,,,50,1,0,,714285,,,,,,
106368,note_on,,,,,48,0,2,,,,,,0,46,0
106368,note_on,,,,,0,0,2,,,,,,0,53,0
106370,set_tempo,,,,,30,1,0,,722891,,,,,,
106377,note_on,,,,,57,0,1,,,,,,0,70,0
106380,note_on,,,,,0,0,2,,,,,,0,46,31
106380,note_on,,,,,12,0,2,,,,,,0,51,31
106380,note_on,,,,,3,0,1,,,,,,0,62,0
106380,note_on,,,,,0,0,1,,,,,,0,70,40
106380,note_on,,,,,0,0,1,,,,,,0,60,40
106400,set_tempo,,,,,30,1,0,,731707,,,,,,
106428,note_on,,,,,0,0,2,,,,,,0,51,0
106428,note_on,,,,,48,0,2,,,,,,0,46,0
106428,note_on,,,,,48,0,1,,,,,,0,70,0
106440,note_on,,,,,12,0,2,,,,,,0,50,31
106440,note_on,,,,,0,0,1,,,,,,0,70,40
106440,note_on,,,,,0,0,2,,,,,,0,46,31
106440,note_on,,,,,0,0,1,,,,,,0,58,40
106440,note_on,,,,,12,0,1,,,,,,0,60,0
106488,note_on,,,,,0,0,2,,,,,,0,50,0
106488,note_on,,,,,48,0,2,,,,,,0,46,0
106488,note_on,,,,,48,0,1,,,,,,0,70,0
106490,set_tempo,,,,,90,1,0,,722891,,,,,,
106500,note_on,,,,,12,0,2,,,,,,0,46,30
106500,note_on,,,,,0,0,1,,,,,,0,70,35
106500,note_on,,,,,0,0,1,,,,,,0,60,35
106500,note_on,,,,,12,0,1,,,,,,0,58,0
106500,note_on,,,,,0,0,2,,,,,,0,51,30
106510,set_tempo,,,,,20,1,0,,705882,,,,,,
106520,set_tempo,,,,,10,1,0,,689655,,,,,,
106530,set_tempo,,,,,10,1,0,,681818,,,,,,
106545,note_on,,,,,45,0,1,,,,,,0,60,0
106545,note_on,,,,,0,0,1,,,,,,0,70,0
106545,note_on,,,,,0,0,2,,,,,,0,46,0
106545,note_on,,,,,45,0,2,,,,,,0,51,0
106550,control_change,,,,,5,0,1,,,,64,0,0,,
106550,set_tempo,,,,,20,1,0,,666666,,,,,,
106560,note_on,,,,,10,0,1,,,,,,0,70,34
106560,note_on,,,,,0,0,1,,,,,,0,62,34
106560,set_tempo,,,,,10,1,0,,652173,,,,,,
106560,note_on,,,,,15,0,2,,,,,,0,53,30
106560,note_on,,,,,0,0,2,,,,,,0,46,30
106627,note_on,,,,,0,0,1,,,,,,0,70,0
106627,note_on,,,,,67,0,1,,,,,,0,62,0
106627,note_on,,,,,67,0,2,,,,,,0,46,0
106627,note_on,,,,,0,0,2,,,,,,0,53,0
106680,control_change,,,,,53,0,1,,,,64,95,0,,
106680,note_on,,,,,0,0,2,,,,,,0,43,39
106680,note_on,,,,,0,0,2,,,,,,0,62,39
106680,note_on,,,,,53,0,2,,,,,,0,59,39
106680,note_on,,,,,0,0,2,,,,,,0,53,39
106800,note_on,,,,,120,0,1,,,,,,0,67,48
106900,control_change,,,,,100,0,1,,,,64,0,0,,
106920,control_change,,,,,20,0,1,,,,64,95,0,,
106920,note_on,,,,,0,0,2,,,,,,0,59,0
106920,note_on,,,,,0,0,2,,,,,,0,62,0
106920,note_on,,,,,0,0,2,,,,,,0,43,0
106920,note_on,,,,,0,0,2,,,,,,0,43,40
106920,note_on,,,,,0,0,2,,,,,,0,53,40
106920,note_on,,,,,0,0,2,,,,,,0,59,40
106920,note_on,,,,,0,0,2,,,,,,0,62,40
106920,set_tempo,,,,,360,1,0,,645161,,,,,,
106920,note_on,,,,,240,0,2,,,,,,0,53,0
106980,set_tempo,,,,,60,1,0,,638297,,,,,,
107020,set_tempo,,,,,40,1,0,,625000,,,,,,
107030,control_change,,,,,110,0,1,,,,64,0,0,,
107040,note_on,,,,,0,0,2,,,,,,0,52,45
107040,note_on,,,,,0,0,2,,,,,,0,43,45
107040,note_on,,,,,0,0,2,,,,,,0,59,0
107040,note_on,,,,,0,0,2,,,,,,0,53,0
107040,control_change,,,,,10,0,1,,,,64,97,0,,
107040,note_on,,,,,0,0,2,,,,,,0,43,0
107040,note_on,,,,,0,0,2,,,,,,0,60,45
107040,note_on,,,,,0,0,2,,,,,,0,64,45
107040,note_on,,,,,120,0,2,,,,,,0,62,0
107060,set_tempo,,,,,40,1,0,,618556,,,,,,
107095,note_on,,,,,55,0,2,,,,,,0,43,0
107095,note_on,,,,,0,0,2,,,,,,0,64,0
107095,note_on,,,,,0,0,2,,,,,,0,52,0
107095,note_on,,,,,0,0,2,,,,,,0,60,0
107100,note_on,,,,,5,0,2,,,,,,0,65,49
107100,note_on,,,,,0,0,2,,,,,,0,59,49
107100,note_on,,,,,0,0,2,,,,,,0,50,49
107100,note_on,,,,,0,0,2,,,,,,0,43,49
107140,set_tempo,,,,,80,1,0,,612244,,,,,,
107155,note_on,,,,,55,0,2,,,,,,0,43,0
107155,note_on,,,,,0,0,2,,,,,,0,65,0
107155,note_on,,,,,0,0,2,,,,,,0,59,0
107155,control_change,,,,,115,0,1,,,,64,0,0,,
107155,note_on,,,,,0,0,2,,,,,,0,50,0
107160,control_change,,,,,5,0,1,,,,64,94,0,,
107160,note_on,,,,,5,0,2,,,,,,0,64,53
107160,note_on,,,,,0,0,2,,,,,,0,60,53
107160,note_on,,,,,0,0,2,,,,,,0,52,53
107160,note_on,,,,,0,0,2,,,,,,0,43,53
107215,note_on,,,,,0,0,2,,,,,,0,64,0
107215,note_on,,,,,55,0,2,,,,,,0,43,0
107215,note_on,,,,,0,0,2,,,,,,0,60,0
107215,note_on,,,,,0,0,2,,,,,,0,52,0
107220,note_on,,,,,0,0,2,,,,,,0,43,59
107220,note_on,,,,,0,0,2,,,,,,0,53,59
107220,note_on,,,,,0,0,2,,,,,,0,59,59
107220,note_on,,,,,5,0,2,,,,,,0,62,59
107260,set_tempo,,,,,120,1,0,,606060,,,,,,
107270,control_change,,,,,110,0,1,,,,64,0,0,,
107275,note_on,,,,,0,0,2,,,,,,0,59,0
107275,note_on,,,,,0,0,2,,,,,,0,62,0
107275,note_on,,,,,55,0,2,,,,,,0,43,0
107275,note_on,,,,,0,0,2,,,,,,0,53,0
107280,control_change,,,,,10,0,1,,,,64,94,0,,
107280,note_on,,,,,0,0,2,,,,,,0,52,63
107280,note_on,,,,,5,0,2,,,,,,0,43,63
107280,note_on,,,,,0,0,2,,,,,,0,60,63
107280,note_on,,,,,0,0,2,,,,,,0,64,63
107290,set_tempo,,,,,30,1,0,,612244,,,,,,
107395,control_change,,,,,115,0,1,,,,64,0,0,,
107400,note_on,,,,,5,0,1,,,,,,0,67,0
107400,note_on,,,,,0,0,2,,,,,,0,53,41
107400,note_on,,,,,0,0,2,,,,,,0,43,41
107400,note_on,,,,,0,0,2,,,,,,0,57,41
107400,note_on,,,,,0,0,2,,,,,,0,60,41
107400,control_change,,,,,0,0,1,,,,64,95,0,,
107400,note_on,,,,,0,0,1,,,,,,0,69,40
107400,note_on,,,,,120,0,2,,,,,,0,64,0
107400,note_on,,,,,0,0,2,,,,,,0,43,0
107400,note_on,,,,,0,0,2,,,,,,0,52,0
107400,note_on,,,,,0,0,2,,,,,,0,60,0
107450,set_tempo,,,,,160,1,0,,618556,,,,,,
107500,set_tempo,,,,,50,1,0,,631578,,,,,,
107520,note_on,,,,,0,0,1,,,,,,0,65,33
107520,note_on,,,,,120,0,2,,,,,,0,43,0
107520,note_on,,,,,0,0,2,,,,,,0,60,0
107520,note_on,,,,,0,0,2,,,,,,0,57,0
107520,note_on,,,,,0,0,2,,,,,,0,53,0
107520,note_on,,,,,0,0,2,,,,,,0,43,32
107520,note_on,,,,,0,0,2,,,,,,0,55,32
107520,note_on,,,,,0,0,2,,,,,,0,59,32
107520,note_on,,,,,120,0,1,,,,,,0,69,0
107565,control_change,,,,,45,0,1,,,,64,0,0,,
107640,note_on,,,,,0,0,2,,,,,,0,48,29
107640,note_on,,,,,120,0,2,,,,,,0,59,0
107640,note_on,,,,,0,0,2,,,,,,0,55,0
107640,note_on,,,,,0,0,2,,,,,,0,43,0
107640,note_on,,,,,75,0,1,,,,,,0,65,0
107640,note_on,,,,,0,0,2,,,,,,0,55,29
107640,note_on,,,,,0,0,1,,,,,,0,60,31
107640,note_on,,,,,0,0,1,,,,,,0,64,31
107640,control_change,,,,,0,0,1,,,,64,95,0,,
107750,set_tempo,,,,,250,1,0,,638297,,,,,,
107760,set_tempo,,,,,10,1,0,,645161,,,,,,
107790,note_on,,,,,0,0,2,,,,,,0,48,0
107790,note_on,,,,,150,0,2,,,,,,0,55,0
107790,note_on,,,,,150,0,1,,,,,,0,64,0
107790,note_on,,,,,0,0,1,,,,,,0,60,0
107790,control_change,,,,,0,0,1,,,,64,0,0,,
107790,set_tempo,,,,,30,1,0,,652173,,,,,,
107800,set_tempo,,,,,10,1,0,,659340,,,,,,
107820,note_on,,,,,0,0,2,,,,,,0,53,48
107820,note_on,,,,,30,0,2,,,,,,0,43,48
107820,note_on,,,,,30,0,1,,,,,,0,77,38
107820,note_on,,,,,0,0,2,,,,,,0,55,48
107820,note_on,,,,,0,0,1,,,,,,0,65,38
107820,control_change,,,,,0,0,1,,,,64,95,0,,
107830,set_tempo,,,,,30,1,0,,666666,,,,,,
107840,set_tempo,,,,,10,1,0,,674157,,,,,,
107865,note_on,,,,,0,0,2,,,,,,0,53,0
107865,note_on,,,,,0,0,2,,,,,,0,43,0
107865,note_on,,,,,45,0,2,,,,,,0,55,0
107865,note_on,,,,,45,0,1,,,,,,0,65,0
107865,note_on,,,,,0,0,1,,,,,,0,77,0
107870,set_tempo,,,,,30,1,0,,681818,,,,,,
107880,note_on,,,,,0,0,2,,,,,,0,53,45
107880,note_on,,,,,0,0,2,,,,,,0,55,45
107880,note_on,,,,,15,0,2,,,,,,0,45,45
107880,note_on,,,,,0,0,1,,,,,,0,64,45
107880,note_on,,,,,15,0,1,,,,,,0,76,45
107880,set_tempo,,,,,10,1,0,,689655,,,,,,
107910,set_tempo,,,,,30,1,0,,705882,,,,,,
107925,note_on,,,,,45,0,2,,,,,,0,55,0
107925,note_on,,,,,45,0,1,,,,,,0,64,0
107925,note_on,,,,,0,0,1,,,,,,0,76,0
107925,note_on,,,,,0,0,2,,,,,,0,53,0
107925,note_on,,,,,0,0,2,,,,,,0,45,0
107940,note_on,,,,,15,0,1,,,,,,0,62,43
107940,note_on,,,,,0,0,1,,,,,,0,74,43
107940,note_on,,,,,15,0,2,,,,,,0,47,42
107940,note_on,,,,,0,0,2,,,,,,0,55,42
107940,set_tempo,,,,,30,1,0,,714285,,,,,,
107940,note_on,,,,,0,0,2,,,,,,0,53,42
107950,set_tempo,,,,,10,1,0,,722891,,,,,,
107950,control_change,,,,,10,0,1,,,,64,0,0,,
107980,control_change,,,,,30,0,1,,,,64,0,0,,
108000,control_change,,,,,0,0,1,,,,64,95,0,,
108000,note_on,,,,,0,0,1,,,,,,0,60,40
108000,note_on,,,,,0,0,1,,,,,,0,72,40
108000,note_on,,,,,0,0,2,,,,,,0,47,0
108000,note_on,,,,,20,0,1,,,,,,0,74,0
108000,note_on,,,,,0,0,2,,,,,,0,53,0
108000,note_on,,,,,60,0,2,,,,,,0,55,0
108000,set_tempo,,,,,50,1,0,,638297,,,,,,
108000,note_on,,,,,0,0,2,,,,,,0,52,44
108000,note_on,,,,,0,0,1,,,,,,0,62,0
108010,set_tempo,,,,,10,1,0,,731707,,,,,,
108030,set_tempo,,,,,20,1,0,,714285,,,,,,
108040,set_tempo,,,,,10,1,0,,705882,,,,,,
108040,note_on,,,,,0,0,2,,,,,,0,55,41
108040,note_on,,,,,40,0,2,,,,,,0,52,0
108067,control_change,,,,,67,0,1,,,,64,0,0,,
108069,note_on,,,,,29,0,2,,,,,,0,55,0
108070,set_tempo,,,,,30,1,0,,689655,,,,,,
108080,note_on,,,,,11,0,2,,,,,,0,55,44
108080,control_change,,,,,13,0,1,,,,64,95,0,,
108090,set_tempo,,,,,20,1,0,,674157,,,,,,
108100,set_tempo,,,,,10,1,0,,666666,,,,,,
108120,set_tempo,,,,,20,1,0,,652173,,,,,,
108120,note_on,,,,,0,0,2,,,,,,0,57,46
108120,note_on,,,,,40,0,2,,,,,,0,55,0
108150,set_tempo,,,,,30,1,0,,645161,,,,,,
108160,note_on,,,,,40,0,2,,,,,,0,57,0
108160,note_on,,,,,0,0,2,,,,,,0,55,40
108160,set_tempo,,,,,10,1,0,,631578,,,,,,
108187,control_change,,,,,107,0,1,,,,64,0,0,,
108189,note_on,,,,,29,0,2,,,,,,0,55,0
108200,note_on,,,,,11,0,2,,,,,,0,55,45
108205,control_change,,,,,18,0,1,,,,64,95,0,,
108220,set_tempo,,,,,60,1,0,,625000,,,,,,
108230,set_tempo,,,,,10,1,0,,618556,,,,,,
108239,note_on,,,,,39,0,2,,,,,,0,50,44
108239,note_on,,,,,0,0,2,,,,,,0,53,44
108240,note_on,,,,,1,0,2,,,,,,0,55,0
108240,note_on,,,,,35,0,1,,,,,,0,60,0
108240,note_on,,,,,0,0,1,,,,,,0,72,0
108240,note_on,,,,,0,0,1,,,,,,0,59,44
108240,note_on,,,,,0,0,1,,,,,,0,71,44
108250,set_tempo,,,,,20,1,0,,612244,,,,,,
108268,note_on,,,,,0,0,2,,,,,,0,50,0
108268,note_on,,,,,28,0,2,,,,,,0,53,0
108279,note_on,,,,,11,0,2,,,,,,0,55,40
108280,set_tempo,,,,,30,1,0,,606060,,,,,,
108307,control_change,,,,,67,0,1,,,,64,0,0,,
108308,note_on,,,,,29,0,2,,,,,,0,55,0
108319,note_on,,,,,11,0,2,,,,,,0,55,34
108320,control_change,,,,,13,0,1,,,,64,95,0,,
108340,set_tempo,,,,,60,1,0,,600000,,,,,,
108359,note_on,,,,,40,0,2,,,,,,0,55,0
108360,note_on,,,,,0,0,1,,,,,,0,59,0
108360,note_on,,,,,0,0,1,,,,,,0,72,47
108360,note_on,,,,,0,0,1,,,,,,0,60,47
108360,note_on,,,,,1,0,2,,,,,,0,52,44
108360,note_on,,,,,40,0,1,,,,,,0,71,0
108380,set_tempo,,,,,40,1,0,,594059,,,,,,
108400,note_on,,,,,40,0,2,,,,,,0,52,0
108400,note_on,,,,,0,0,2,,,,,,0,55,41
108420,note_on,,,,,0,0,1,,,,,,0,59,42
108420,note_on,,,,,0,0,1,,,,,,0,72,0
108420,note_on,,,,,60,0,1,,,,,,0,60,0
108420,note_on,,,,,0,0,1,,,,,,0,71,42
108427,control_change,,,,,7,0,1,,,,64,0,0,,
108429,note_on,,,,,29,0,2,,,,,,0,55,0
108440,note_on,,,,,11,0,2,,,,,,0,55,44
108440,control_change,,,,,13,0,1,,,,64,95,0,,
108460,set_tempo,,,,,80,1,0,,588235,,,,,,
108480,note_on,,,,,0,0,2,,,,,,0,54,46
108480,note_on,,,,,0,0,1,,,,,,0,60,39
108480,note_on,,,,,0,0,1,,,,,,0,72,39
108480,note_on,,,,,0,0,1,,,,,,0,71,0
108480,note_on,,,,,40,0,1,,,,,,0,59,0
108480,note_on,,,,,40,0,2,,,,,,0,55,0
108520,note_on,,,,,40,0,2,,,,,,0,54,0
108520,note_on,,,,,0,0,2,,,,,,0,55,40
108520,set_tempo,,,,,60,1,0,,582524,,,,,,
108540,note_on,,,,,0,0,1,,,,,,0,72,0
108540,note_on,,,,,0,0,1,,,,,,0,74,35
108540,note_on,,,,,0,0,1,,,,,,0,62,35
108540,set_tempo,,,,,20,1,0,,612244,,,,,,
108540,note_on,,,,,60,0,1,,,,,,0,60,0
108547,control_change,,,,,7,0,1,,,,64,0,0,,
108549,note_on,,,,,29,0,2,,,,,,0,55,0
108560,control_change,,,,,13,0,1,,,,64,95,0,,
108560,note_on,,,,,11,0,2,,,,,,0,53,41
108560,note_on,,,,,0,0,2,,,,,,0,50,41
108570,set_tempo,,,,,30,1,0,,618556,,,,,,
108580,set_tempo,,,,,10,1,0,,625000,,,,,,
108600,note_on,,,,,0,0,2,,,,,,0,52,49
108600,note_on,,,,,0,0,2,,,,,,0,53,0
108600,note_on,,,,,0,0,2,,,,,,0,48,49
108600,note_on,,,,,40,0,2,,,,,,0,50,0
108600,note_on,,,,,40,0,1,,,,,,0,62,0
108600,note_on,,,,,0,0,1,,,,,,0,74,0
108600,note_on,,,,,0,0,1,,,,,,0,76,32
108600,note_on,,,,,0,0,1,,,,,,0,64,32
108629,note_on,,,,,0,0,2,,,,,,0,52,0
108629,note_on,,,,,29,0,2,,,,,,0,48,0
108639,note_on,,,,,10,0,2,,,,,,0,55,38
108667,control_change,,,,,67,0,1,,,,64,0,0,,
108668,note_on,,,,,29,0,2,,,,,,0,55,0
108679,note_on,,,,,11,0,2,,,,,,0,56,34
108680,control_change,,,,,13,0,1,,,,64,96,0,,
108690,note_on,,,,,10,0,1,,,,,,0,64,0
108690,note_on,,,,,0,0,1,,,,,,0,76,0
108719,note_on,,,,,40,0,2,,,,,,0,56,0
108720,note_on,,,,,30,0,1,,,,,,0,77,50
108720,note_on,,,,,0,0,1,,,,,,0,65,50
108720,note_on,,,,,1,0,2,,,,,,0,57,44
108730,set_tempo,,,,,150,1,0,,625000,,,,,,
108760,note_on,,,,,0,0,2,,,,,,0,48,41
108760,note_on,,,,,40,0,2,,,,,,0,57,0
108787,control_change,,,,,67,0,1,,,,64,0,0,,
108789,note_on,,,,,29,0,2,,,,,,0,48,0
108800,note_on,,,,,11,0,2,,,,,,0,48,44
108800,control_change,,,,,13,0,1,,,,64,96,0,,
108840,note_on,,,,,40,0,2,,,,,,0,48,0
108840,note_on,,,,,0,0,2,,,,,,0,45,46
108880,note_on,,,,,40,0,2,,,,,,0,45,0
108880,note_on,,,,,0,0,2,,,,,,0,48,40
108907,control_change,,,,,107,0,1,,,,64,0,0,,
108909,note_on,,,,,29,0,2,,,,,,0,48,0
108920,note_on,,,,,11,0,2,,,,,,0,48,45
108920,control_change,,,,,13,0,1,,,,64,96,0,,
108960,note_on,,,,,0,0,1,,,,,,0,64,44
108960,note_on,,,,,0,0,1,,,,,,0,77,0
108960,note_on,,,,,0,0,1,,,,,,0,76,44
108960,note_on,,,,,40,0,2,,,,,,0,48,0
108960,note_on,,,,,0,0,2,,,,,,0,43,48
108960,note_on,,,,,40,0,1,,,,,,0,65,0
108989,note_on,,,,,29,0,2,,,,,,0,43,0
109000,note_on,,,,,11,0,2,,,,,,0,48,40
109027,control_change,,,,,67,0,1,,,,64,0,0,,
109029,note_on,,,,,29,0,2,,,,,,0,48,0
109040,control_change,,,,,13,0,1,,,,64,96,0,,
109040,note_on,,,,,11,0,2,,,,,,0,48,34
109070,note_on,,,,,30,0,1,,,,,,0,76,0
109070,set_tempo,,,,,340,1,0,,606060,,,,,,
109070,note_on,,,,,0,0,1,,,,,,0,64,0
109080,note_on,,,,,10,0,1,,,,,,0,64,47
109080,note_on,,,,,0,0,1,,,,,,0,76,47
109080,note_on,,,,,40,0,2,,,,,,0,48,0
109080,note_on,,,,,0,0,2,,,,,,0,42,48
109100,set_tempo,,,,,30,1,0,,600000,,,,,,
109120,note_on,,,,,0,0,2,,,,,,0,50,41
109120,note_on,,,,,40,0,2,,,,,,0,42,0
109120,set_tempo,,,,,20,1,0,,594059,,,,,,
109140,note_on,,,,,60,0,1,,,,,,0,76,0
109140,note_on,,,,,0,0,1,,,,,,0,64,0
109140,note_on,,,,,0,0,1,,,,,,0,62,43
109140,note_on,,,,,0,0,1,,,,,,0,74,43
109147,control_change,,,,,7,0,1,,,,64,0,0,,
109149,note_on,,,,,29,0,2,,,,,,0,50,0
109150,set_tempo,,,,,30,1,0,,588235,,,,,,
109160,set_tempo,,,,,10,1,0,,582524,,,,,,
109160,note_on,,,,,11,0,2,,,,,,0,50,44
109160,control_change,,,,,13,0,1,,,,64,95,0,,
109190,set_tempo,,,,,30,1,0,,576923,,,,,,
109200,note_on,,,,,40,0,1,,,,,,0,74,0
109200,note_on,,,,,0,0,1,,,,,,0,62,0
109200,note_on,,,,,0,0,1,,,,,,0,60,42
109200,note_on,,,,,0,0,1,,,,,,0,72,42
109200,note_on,,,,,0,0,2,,,,,,0,43,46
109200,note_on,,,,,40,0,2,,,,,,0,50,0
109210,set_tempo,,,,,20,1,0,,571428,,,,,,
109240,note_on,,,,,0,0,2,,,,,,0,50,40
109240,note_on,,,,,40,0,2,,,,,,0,43,0
109260,note_on,,,,,0,0,1,,,,,,0,59,46
109260,note_on,,,,,0,0,1,,,,,,0,71,46
109260,note_on,,,,,0,0,1,,,,,,0,60,0
109260,note_on,,,,,60,0,1,,,,,,0,72,0
109267,control_change,,,,,7,0,1,,,,64,0,0,,
109269,note_on,,,,,29,0,2,,,,,,0,50,0
109270,set_tempo,,,,,60,1,0,,576923,,,,,,
109280,control_change,,,,,13,0,1,,,,64,96,0,,
109280,note_on,,,,,11,0,2,,,,,,0,50,45
109300,set_tempo,,,,,30,1,0,,588235,,,,,,
109310,set_tempo,,,,,10,1,0,,606060,,,,,,
109320,note_on,,,,,0,0,2,,,,,,0,43,50
109320,note_on,,,,,40,0,2,,,,,,0,50,0
109320,note_on,,,,,40,0,1,,,,,,0,59,0
109320,note_on,,,,,0,0,1,,,,,,0,71,0
109320,note_on,,,,,0,0,1,,,,,,0,69,47
109320,note_on,,,,,0,0,1,,,,,,0,57,47
109330,set_tempo,,,,,20,1,0,,612244,,,,,,
109349,note_on,,,,,29,0,2,,,,,,0,43,0
109350,set_tempo,,,,,20,1,0,,631578,,,,,,
109360,note_on,,,,,11,0,2,,,,,,0,53,40
109370,set_tempo,,,,,20,1,0,,638297,,,,,,
109380,note_on,,,,,0,0,1,,,,,,0,59,54
109380,note_on,,,,,60,0,1,,,,,,0,57,0
109380,note_on,,,,,0,0,1,,,,,,0,71,54
109380,set_tempo,,,,,10,1,0,,645161,,,,,,
109380,note_on,,,,,0,0,1,,,,,,0,69,0
109387,control_change,,,,,7,0,1,,,,64,0,0,,
109389,note_on,,,,,29,0,2,,,,,,0,53,0
109390,set_tempo,,,,,10,1,0,,631578,,,,,,
109400,note_on,,,,,11,0,2,,,,,,0,53,34
109400,control_change,,,,,13,0,1,,,,64,95,0,,
109400,set_tempo,,,,,10,1,0,,625000,,,,,,
109420,set_tempo,,,,,20,1,0,,618556,,,,,,
109425,note_on,,,,,25,0,1,,,,,,0,59,0
109425,note_on,,,,,0,0,1,,,,,,0,71,0
109440,note_on,,,,,15,0,1,,,,,,0,72,55
109440,note_on,,,,,0,0,1,,,,,,0,60,55
109440,control_change,,,,,0,0,1,,,,64,95,0,,
109440,note_on,,,,,40,0,2,,,,,,0,53,0
109440,note_on,,,,,0,0,2,,,,,,0,52,49
109480,note_on,,,,,40,0,2,,,,,,0,52,0
109480,note_on,,,,,0,0,2,,,,,,0,55,41
109480,set_tempo,,,,,60,1,0,,612244,,,,,,
109490,set_tempo,,,,,10,1,0,,606060,,,,,,
109507,control_change,,,,,67,0,1,,,,64,0,0,,
109509,note_on,,,,,29,0,2,,,,,,0,55,0
109520,control_change,,,,,13,0,1,,,,64,95,0,,
109520,note_on,,,,,11,0,2,,,,,,0,55,44
109530,set_tempo,,,,,40,1,0,,600000,,,,,,
109540,set_tempo,,,,,10,1,0,,594059,,,,,,
109560,note_on,,,,,0,0,2,,,,,,0,57,46
109560,note_on,,,,,40,0,2,,,,,,0,55,0
109570,set_tempo,,,,,30,1,0,,582524,,,,,,
109600,note_on,,,,,0,0,2,,,,,,0,55,40
109600,note_on,,,,,40,0,2,,,,,,0,57,0
109610,set_tempo,,,,,40,1,0,,576923,,,,,,
109627,control_change,,,,,107,0,1,,,,64,0,0,,
109629,note_on,,,,,29,0,2,,,,,,0,55,0
109630,set_tempo,,,,,20,1,0,,571428,,,,,,
109640,note_on,,,,,11,0,2,,,,,,0,55,45
109645,control_change,,,,,18,0,1,,,,64,95,0,,
109660,set_tempo,,,,,30,1,0,,566037,,,,,,
109670,set_tempo,,,,,10,1,0,,560747,,,,,,
109679,note_on,,,,,39,0,2,,,,,,0,50,44
109679,note_on,,,,,0,0,2,,,,,,0,53,44
109680,note_on,,,,,0,0,1,,,,,,0,71,51
109680,note_on,,,,,35,0,1,,,,,,0,60,0
109680,note_on,,,,,1,0,2,,,,,,0,55,0
109680,note_on,,,,,0,0,1,,,,,,0,59,51
109680,note_on,,,,,0,0,1,,,,,,0,72,0
109708,note_on,,,,,28,0,2,,,,,,0,53,0
109708,note_on,,,,,0,0,2,,,,,,0,50,0
109719,note_on,,,,,11,0,2,,,,,,0,55,43
109747,control_change,,,,,67,0,1,,,,64,0,0,,
109748,note_on,,,,,29,0,2,,,,,,0,55,0
109759,note_on,,,,,11,0,2,,,,,,0,55,46
109760,control_change,,,,,13,0,1,,,,64,95,0,,
109799,note_on,,,,,40,0,2,,,,,,0,55,0
109800,note_on,,,,,40,0,1,,,,,,0,71,0
109800,note_on,,,,,0,0,1,,,,,,0,60,55
109800,note_on,,,,,0,0,1,,,,,,0,59,0
109800,note_on,,,,,1,0,2,,,,,,0,52,49
109800,note_on,,,,,0,0,1,,,,,,0,72,55
109840,note_on,,,,,0,0,2,,,,,,0,55,46
109840,note_on,,,,,40,0,2,,,,,,0,52,0
109860,note_on,,,,,0,0,1,,,,,,0,59,53
109860,note_on,,,,,0,0,1,,,,,,0,71,53
109860,note_on,,,,,0,0,1,,,,,,0,72,0
109860,note_on,,,,,60,0,1,,,,,,0,60,0
109867,control_change,,,,,7,0,1,,,,64,0,0,,
109869,note_on,,,,,29,0,2,,,,,,0,55,0
109880,control_change,,,,,13,0,1,,,,64,95,0,,
109880,note_on,,,,,11,0,2,,,,,,0,55,51
109920,note_on,,,,,0,0,1,,,,,,0,60,51
109920,note_on,,,,,0,0,1,,,,,,0,72,51
109920,note_on,,,,,40,0,1,,,,,,0,59,0
109920,note_on,,,,,0,0,1,,,,,,0,71,0
109920,note_on,,,,,0,0,2,,,,,,0,54,52
109920,note_on,,,,,40,0,2,,,,,,0,55,0
109960,note_on,,,,,0,0,2,,,,,,0,55,46
109960,note_on,,,,,40,0,2,,,,,,0,54,0
109980,set_tempo,,,,,310,1,0,,571428,,,,,,
109980,note_on,,,,,60,0,1,,,,,,0,60,0
109980,note_on,,,,,0,0,1,,,,,,0,72,0
109980,note_on,,,,,0,0,1,,,,,,0,74,51
109980,note_on,,,,,0,0,1,,,,,,0,62,51
109987,control_change,,,,,7,0,1,,,,64,0,0,,
109989,note_on,,,,,29,0,2,,,,,,0,55,0
110000,note_on,,,,,0,0,2,,,,,,0,53,49
110000,note_on,,,,,11,0,2,,,,,,0,50,49
110000,control_change,,,,,13,0,1,,,,64,95,0,,
110020,set_tempo,,,,,40,1,0,,576923,,,,,,
110040,note_on,,,,,0,0,2,,,,,,0,52,53
110040,note_on,,,,,0,0,2,,,,,,0,48,53
110040,note_on,,,,,0,0,1,,,,,,0,76,55
110040,note_on,,,,,0,0,1,,,,,,0,64,55
110040,note_on,,,,,40,0,1,,,,,,0,62,0
110040,note_on,,,,,0,0,1,,,,,,0,74,0
110040,note_on,,,,,40,0,2,,,,,,0,53,0
110040,note_on,,,,,0,0,2,,,,,,0,50,0
110050,set_tempo,,,,,30,1,0,,582524,,,,,,
110060,set_tempo,,,,,10,1,0,,588235,,,,,,
110069,note_on,,,,,0,0,2,,,,,,0,52,0
110069,note_on,,,,,29,0,2,,,,,,0,48,0
110079,note_on,,,,,10,0,2,,,,,,0,55,48
110080,set_tempo,,,,,20,1,0,,594059,,,,,,
110100,set_tempo,,,,,20,1,0,,600000,,,,,,
110107,control_change,,,,,67,0,1,,,,64,0,0,,
110108,note_on,,,,,29,0,2,,,,,,0,55,0
110110,set_tempo,,,,,10,1,0,,606060,,,,,,
110119,note_on,,,,,11,0,2,,,,,,0,57,45
110120,control_change,,,,,13,0,1,,,,64,96,0,,
110130,note_on,,,,,0,0,1,,,,,,0,76,0
110130,set_tempo,,,,,20,1,0,,645161,,,,,,
110130,note_on,,,,,10,0,1,,,,,,0,64,0
110140,set_tempo,,,,,10,1,0,,666666,,,,,,
110150,set_tempo,,,,,10,1,0,,689655,,,,,,
110159,note_on,,,,,40,0,2,,,,,,0,57,0
110160,note_on,,,,,1,0,2,,,,,,0,58,50
110160,note_on,,,,,0,0,1,,,,,,0,79,70
110160,set_tempo,,,,,10,1,0,,674157,,,,,,
110160,note_on,,,,,30,0,1,,,,,,0,67,70
110170,set_tempo,,,,,10,1,0,,645161,,,,,,
110180,set_tempo,,,,,10,1,0,,625000,,,,,,
110190,set_tempo,,,,,10,1,0,,618556,,,,,,
110200,note_on,,,,,40,0,2,,,,,,0,58,0
110200,note_on,,,,,0,0,2,,,,,,0,48,53
110210,set_tempo,,,,,20,1,0,,606060,,,,,,
110220,set_tempo,,,,,10,1,0,,600000,,,,,,
110227,control_change,,,,,67,0,1,,,,64,0,0,,
110229,note_on,,,,,29,0,2,,,,,,0,48,0
110230,set_tempo,,,,,10,1,0,,588235,,,,,,
110240,note_on,,,,,11,0,2,,,,,,0,48,53
110240,control_change,,,,,13,0,1,,,,64,96,0,,
110250,set_tempo,,,,,20,1,0,,582524,,,,,,
110260,set_tempo,,,,,10,1,0,,576923,,,,,,
110280,note_on,,,,,40,0,2,,,,,,0,48,0
110280,note_on,,,,,0,0,2,,,,,,0,46,55
110290,set_tempo,,,,,30,1,0,,571428,,,,,,
110300,set_tempo,,,,,10,1,0,,560747,,,,,,
110310,set_tempo,,,,,10,1,0,,555555,,,,,,
110320,note_on,,,,,40,0,2,,,,,,0,46,0
110320,note_on,,,,,0,0,2,,,,,,0,48,58
110340,set_tempo,,,,,30,1,0,,550458,,,,,,
110347,control_change,,,,,107,0,1,,,,64,0,0,,
110349,note_on,,,,,29,0,2,,,,,,0,48,0
110350,set_tempo,,,,,10,1,0,,545454,,,,,,
110360,note_on,,,,,11,0,2,,,,,,0,48,60
110360,control_change,,,,,13,0,1,,,,64,96,0,,
110390,set_tempo,,,,,40,1,0,,540540,,,,,,
110400,note_on,,,,,40,0,1,,,,,,0,79,0
110400,note_on,,,,,0,0,1,,,,,,0,67,0
110400,note_on,,,,,0,0,1,,,,,,0,64,56
110400,note_on,,,,,0,0,1,,,,,,0,76,56
110400,note_on,,,,,0,0,2,,,,,,0,44,62
110400,note_on,,,,,40,0,2,,,,,,0,48,0
110429,note_on,,,,,29,0,2,,,,,,0,44,0
110440,note_on,,,,,11,0,2,,,,,,0,48,65
110460,set_tempo,,,,,70,1,0,,535714,,,,,,
110467,control_change,,,,,67,0,1,,,,64,0,0,,
110469,note_on,,,,,29,0,2,,,,,,0,48,0
110480,control_change,,,,,13,0,1,,,,64,96,0,,
110480,note_on,,,,,11,0,2,,,,,,0,48,67
110520,note_on,,,,,0,0,1,,,,,,0,79,68
110520,note_on,,,,,0,0,1,,,,,,0,67,68
110520,note_on,,,,,40,0,1,,,,,,0,76,0
110520,note_on,,,,,40,0,2,,,,,,0,48,0
110520,note_on,,,,,0,0,2,,,,,,0,45,69
110520,note_on,,,,,0,0,1,,,,,,0,64,0
110540,set_tempo,,,,,80,1,0,,540540,,,,,,
110560,note_on,,,,,40,0,2,,,,,,0,45,0
110560,note_on,,,,,0,0,2,,,,,,0,48,66
110570,set_tempo,,,,,30,1,0,,545454,,,,,,
110580,note_on,,,,,60,0,1,,,,,,0,79,0
110580,set_tempo,,,,,10,1,0,,550458,,,,,,
110580,note_on,,,,,0,0,1,,,,,,0,67,0
110580,note_on,,,,,0,0,1,,,,,,0,65,58
110580,note_on,,,,,0,0,1,,,,,,0,77,58
110587,control_change,,,,,7,0,1,,,,64,0,0,,
110589,note_on,,,,,29,0,2,,,,,,0,48,0
110600,note_on,,,,,11,0,2,,,,,,0,48,61
110600,control_change,,,,,13,0,1,,,,64,95,0,,
110620,set_tempo,,,,,40,1,0,,555555,,,,,,
110640,note_on,,,,,40,0,1,,,,,,0,77,0
110640,note_on,,,,,0,0,1,,,,,,0,65,0
110640,note_on,,,,,0,0,1,,,,,,0,64,54
110640,note_on,,,,,0,0,2,,,,,,0,41,61
110640,note_on,,,,,0,0,1,,,,,,0,76,54
110640,note_on,,,,,40,0,2,,,,,,0,48,0
110641,set_tempo,,,,,21,1,0,,576923,,,,,,
110661,set_tempo,,,,,20,1,0,,582524,,,,,,
110680,note_on,,,,,0,0,2,,,,,,0,48,55
110680,note_on,,,,,40,0,2,,,,,,0,41,0
110681,set_tempo,,,,,20,1,0,,594059,,,,,,
110700,note_on,,,,,0,0,1,,,,,,0,62,51
110700,note_on,,,,,60,0,1,,,,,,0,76,0
110700,note_on,,,,,0,0,1,,,,,,0,64,0
110700,note_on,,,,,0,0,1,,,,,,0,74,51
110701,set_tempo,,,,,20,1,0,,600000,,,,,,
110707,control_change,,,,,7,0,1,,,,64,0,0,,
110709,note_on,,,,,29,0,2,,,,,,0,48,0
110711,set_tempo,,,,,10,1,0,,606060,,,,,,
110720,control_change,,,,,13,0,1,,,,64,96,0,,
110720,note_on,,,,,11,0,2,,,,,,0,48,53
110731,set_tempo,,,,,20,1,0,,612244,,,,,,
110760,note_on,,,,,0,0,1,,,,,,0,72,54
110760,note_on,,,,,0,0,1,,,,,,0,60,54
110760,note_on,,,,,40,0,1,,,,,,0,74,0
110760,note_on,,,,,0,0,1,,,,,,0,62,0
110760,note_on,,,,,40,0,2,,,,,,0,48,0
110760,note_on,,,,,0,0,2,,,,,,0,42,62
110789,note_on,,,,,29,0,2,,,,,,0,42,0
110800,note_on,,,,,11,0,2,,,,,,0,48,57
110811,set_tempo,,,,,80,1,0,,625000,,,,,,
110820,note_on,,,,,60,0,1,,,,,,0,72,0
110820,note_on,,,,,0,0,1,,,,,,0,60,0
110820,note_on,,,,,0,0,1,,,,,,0,62,55
110820,note_on,,,,,0,0,1,,,,,,0,74,55
110827,control_change,,,,,7,0,1,,,,64,0,0,,
110829,note_on,,,,,29,0,2,,,,,,0,48,0
110831,set_tempo,,,,,20,1,0,,631578,,,,,,
110840,note_on,,,,,11,0,2,,,,,,0,48,52
110840,control_change,,,,,13,0,1,,,,64,95,0,,
110841,set_tempo,,,,,10,1,0,,638297,,,,,,
110865,note_on,,,,,25,0,1,,,,,,0,74,0
110865,note_on,,,,,0,0,1,,,,,,0,62,0
110870,set_tempo,,,,,29,1,0,,645161,,,,,,
110880,note_on,,,,,40,0,2,,,,,,0,48,0
110880,note_on,,,,,15,0,1,,,,,,0,64,56
110880,note_on,,,,,0,0,1,,,,,,0,76,56
110880,note_on,,,,,0,0,2,,,,,,0,43,43
110900,set_tempo,,,,,30,1,0,,652173,,,,,,
110910,note_on,,,,,30,0,2,,,,,,0,43,0
110920,note_on,,,,,10,0,2,,,,,,0,48,43
110920,set_tempo,,,,,20,1,0,,659340,,,,,,
110940,control_change,,,,,60,0,1,,,,64,0,0,,
110940,set_tempo,,,,,20,1,0,,845070,,,,,,
110945,control_change,,,,,5,0,1,,,,64,96,0,,
110960,note_on,,,,,0,0,2,,,,,,0,48,40
110960,note_on,,,,,40,0,2,,,,,,0,48,0
110970,note_on,,,,,25,0,1,,,,,,0,76,0
110970,note_on,,,,,0,0,1,,,,,,0,64,0
110989,note_on,,,,,29,0,2,,,,,,0,48,0
111000,note_on,,,,,11,0,2,,,,,,0,46,39
111000,set_tempo,,,,,60,1,0,,612244,,,,,,
111000,note_on,,,,,0,0,1,,,,,,0,77,46
111000,note_on,,,,,30,0,1,,,,,,0,65,46
111030,set_tempo,,,,,30,1,0,,606060,,,,,,
111035,control_change,,,,,35,0,1,,,,64,0,0,,
111040,set_tempo,,,,,10,1,0,,600000,,,,,,
111040,note_on,,,,,40,0,2,,,,,,0,46,0
111040,note_on,,,,,0,0,2,,,,,,0,53,36
111040,control_change,,,,,5,0,1,,,,64,94,0,,
111060,set_tempo,,,,,20,1,0,,594059,,,,,,
111080,set_tempo,,,,,20,1,0,,582524,,,,,,
111080,note_on,,,,,40,0,2,,,,,,0,53,0
111080,note_on,,,,,0,0,2,,,,,,0,62,31
111100,set_tempo,,,,,20,1,0,,576923,,,,,,
111110,set_tempo,,,,,10,1,0,,571428,,,,,,
111120,note_on,,,,,0,0,2,,,,,,0,46,40
111120,note_on,,,,,40,0,2,,,,,,0,62,0
111130,set_tempo,,,,,20,1,0,,566037,,,,,,
111140,set_tempo,,,,,10,1,0,,560747,,,,,,
111155,control_change,,,,,115,0,1,,,,64,0,0,,
111160,note_on,,,,,0,0,2,,,,,,0,53,37
111160,control_change,,,,,5,0,1,,,,64,95,0,,
111160,set_tempo,,,,,20,1,0,,555555,,,,,,
111160,note_on,,,,,40,0,2,,,,,,0,46,0
111180,note_on,,,,,0,0,1,,,,,,0,65,0
111180,note_on,,,,,0,0,1,,,,,,0,62,37
111180,note_on,,,,,0,0,1,,,,,,0,74,37
111180,note_on,,,,,20,0,1,,,,,,0,77,0
111190,set_tempo,,,,,30,1,0,,550458,,,,,,
111200,note_on,,,,,40,0,2,,,,,,0,53,0
111200,note_on,,,,,0,0,2,,,,,,0,62,35
111230,set_tempo,,,,,40,1,0,,545454,,,,,,
111240,note_on,,,,,40,0,2,,,,,,0,62,0
111240,note_on,,,,,0,0,1,,,,,,0,77,41
111240,note_on,,,,,0,0,1,,,,,,0,65,41
111240,note_on,,,,,0,0,1,,,,,,0,62,0
111240,note_on,,,,,60,0,1,,,,,,0,74,0
111240,note_on,,,,,0,0,2,,,,,,0,46,39
111270,set_tempo,,,,,40,1,0,,540540,,,,,,
111275,control_change,,,,,35,0,1,,,,64,0,0,,
111280,note_on,,,,,0,0,2,,,,,,0,53,35
111280,note_on,,,,,40,0,2,,,,,,0,46,0
111280,control_change,,,,,5,0,1,,,,64,95,0,,
111300,note_on,,,,,0,0,1,,,,,,0,65,0
111300,note_on,,,,,20,0,1,,,,,,0,77,0
111300,note_on,,,,,0,0,1,,,,,,0,75,37
111300,note_on,,,,,0,0,1,,,,,,0,63,37
111320,note_on,,,,,0,0,2,,,,,,0,62,33
111320,note_on,,,,,40,0,2,,,,,,0,53,0
111360,note_on,,,,,40,0,2,,,,,,0,62,0
111360,note_on,,,,,60,0,1,,,,,,0,75,0
111360,note_on,,,,,0,0,1,,,,,,0,63,0
111360,note_on,,,,,0,0,1,,,,,,0,62,40
111360,note_on,,,,,0,0,1,,,,,,0,74,40
111360,note_on,,,,,0,0,2,,,,,,0,46,32
111395,control_change,,,,,35,0,1,,,,64,0,0,,
111400,note_on,,,,,40,0,2,,,,,,0,46,0
111400,control_change,,,,,5,0,1,,,,64,95,0,,
111400,note_on,,,,,0,0,2,,,,,,0,53,32
111420,note_on,,,,,0,0,1,,,,,,0,72,43
111420,note_on,,,,,20,0,1,,,,,,0,74,0
111420,note_on,,,,,0,0,1,,,,,,0,60,43
111420,note_on,,,,,0,0,1,,,,,,0,62,0
111430,set_tempo,,,,,160,1,0,,545454,,,,,,
111440,note_on,,,,,0,0,2,,,,,,0,57,33
111440,note_on,,,,,40,0,2,,,,,,0,53,0
111470,set_tempo,,,,,40,1,0,,550458,,,,,,
111480,note_on,,,,,60,0,1,,,,,,0,72,0
111480,note_on,,,,,0,0,1,,,,,,0,60,0
111480,note_on,,,,,0,0,1,,,,,,0,58,45
111480,note_on,,,,,0,0,1,,,,,,0,70,45
111480,note_on,,,,,40,0,2,,,,,,0,57,0
111480,note_on,,,,,0,0,2,,,,,,0,46,34
111500,set_tempo,,,,,30,1,0,,555555,,,,,,
111515,control_change,,,,,35,0,1,,,,64,0,0,,
111520,set_tempo,,,,,20,1,0,,560747,,,,,,
111520,note_on,,,,,0,0,2,,,,,,0,53,35
111520,note_on,,,,,40,0,2,,,,,,0,46,0
111520,control_change,,,,,5,0,1,,,,64,95,0,,
111540,set_tempo,,,,,20,1,0,,566037,,,,,,
111540,note_on,,,,,0,0,1,,,,,,0,58,0
111540,note_on,,,,,0,0,1,,,,,,0,60,45
111540,note_on,,,,,0,0,1,,,,,,0,72,45
111540,note_on,,,,,20,0,1,,,,,,0,70,0
111560,set_tempo,,,,,20,1,0,,571428,,,,,,
111560,note_on,,,,,40,0,2,,,,,,0,53,0
111560,note_on,,,,,0,0,2,,,,,,0,57,36
111590,set_tempo,,,,,30,1,0,,576923,,,,,,
111600,note_on,,,,,60,0,1,,,,,,0,72,0
111600,note_on,,,,,0,0,1,,,,,,0,60,0
111600,note_on,,,,,0,0,1,,,,,,0,62,48
111600,note_on,,,,,0,0,1,,,,,,0,74,48
111600,note_on,,,,,40,0,2,,,,,,0,57,0
111600,note_on,,,,,0,0,2,,,,,,0,46,38
111610,set_tempo,,,,,20,1,0,,582524,,,,,,
111630,set_tempo,,,,,20,1,0,,588235,,,,,,
111630,control_change,,,,,30,0,1,,,,64,0,0,,
111640,note_on,,,,,0,0,2,,,,,,0,53,38
111640,note_on,,,,,40,0,2,,,,,,0,46,0
111680,set_tempo,,,,,50,1,0,,594059,,,,,,
111680,note_on,,,,,0,0,2,,,,,,0,58,40
111680,note_on,,,,,40,0,2,,,,,,0,53,0
111690,note_on,,,,,0,0,1,,,,,,0,62,0
111690,note_on,,,,,60,0,1,,,,,,0,74,0
111720,note_on,,,,,40,0,2,,,,,,0,58,0
111720,set_tempo,,,,,40,1,0,,600000,,,,,,
111720,note_on,,,,,0,0,1,,,,,,0,74,60
111720,note_on,,,,,0,0,1,,,,,,0,71,60
111720,note_on,,,,,30,0,1,,,,,,0,62,60
111720,control_change,,,,,0,0,1,,,,64,95,0,,
111720,note_on,,,,,0,0,2,,,,,,0,43,40
111750,set_tempo,,,,,30,1,0,,606060,,,,,,
111760,note_on,,,,,40,0,2,,,,,,0,53,41
111800,set_tempo,,,,,50,1,0,,612244,,,,,,
111800,note_on,,,,,40,0,2,,,,,,0,53,0
111800,note_on,,,,,0,0,2,,,,,,0,50,42
111810,set_tempo,,,,,10,1,0,,606060,,,,,,
111837,note_on,,,,,37,0,2,,,,,,0,43,0
111840,note_on,,,,,0,0,2,,,,,,0,43,44
111840,note_on,,,,,3,0,2,,,,,,0,50,0
111870,set_tempo,,,,,60,1,0,,600000,,,,,,
111880,note_on,,,,,40,0,2,,,,,,0,53,44
111900,set_tempo,,,,,30,1,0,,594059,,,,,,
111920,note_on,,,,,40,0,2,,,,,,0,53,0
111920,note_on,,,,,0,0,2,,,,,,0,50,45
111940,control_change,,,,,220,0,1,,,,64,0,0,,
111960,note_on,,,,,0,0,2,,,,,,0,43,45
111960,note_on,,,,,40,0,2,,,,,,0,50,0
111960,note_on,,,,,20,0,1,,,,,,0,74,0
111960,note_on,,,,,0,0,1,,,,,,0,71,0
111960,note_on,,,,,0,0,1,,,,,,0,62,0
111960,note_on,,,,,0,0,1,,,,,,0,62,56
111960,note_on,,,,,0,0,1,,,,,,0,71,56
111960,note_on,,,,,0,0,1,,,,,,0,74,56
111960,control_change,,,,,0,0,1,,,,64,95,0,,
111970,note_on,,,,,10,0,2,,,,,,0,43,0
111990,set_tempo,,,,,90,1,0,,588235,,,,,,
112000,note_on,,,,,30,0,2,,,,,,0,53,48
112020,set_tempo,,,,,30,1,0,,582524,,,,,,
112040,note_on,,,,,40,0,2,,,,,,0,53,0
112040,note_on,,,,,0,0,2,,,,,,0,50,50
112075,control_change,,,,,115,0,1,,,,64,0,0,,
112080,note_on,,,,,0,0,1,,,,,,0,71,0
112080,note_on,,,,,5,0,1,,,,,,0,74,0
112080,note_on,,,,,0,0,1,,,,,,0,64,40
112080,note_on,,,,,0,0,1,,,,,,0,72,40
112080,note_on,,,,,0,0,1,,,,,,0,76,40
112080,control_change,,,,,0,0,1,,,,64,95,0,,
112080,note_on,,,,,40,0,2,,,,,,0,50,0
112080,note_on,,,,,0,0,2,,,,,,0,43,52
112080,note_on,,,,,0,0,1,,,,,,0,62,0
112090,note_on,,,,,10,0,2,,,,,,0,43,0
112090,set_tempo,,,,,70,1,0,,576923,,,,,,
112120,note_on,,,,,30,0,2,,,,,,0,52,50
112120,set_tempo,,,,,30,1,0,,571428,,,,,,
112140,note_on,,,,,0,0,1,,,,,,0,77,44
112140,note_on,,,,,0,0,1,,,,,,0,71,44
112140,note_on,,,,,0,0,1,,,,,,0,65,44
112140,note_on,,,,,0,0,1,,,,,,0,64,0
112140,note_on,,,,,0,0,1,,,,,,0,72,0
112140,note_on,,,,,60,0,1,,,,,,0,76,0
112160,note_on,,,,,0,0,2,,,,,,0,50,50
112160,note_on,,,,,40,0,2,,,,,,0,52,0
112200,note_on,,,,,0,0,1,,,,,,0,71,0
112200,note_on,,,,,60,0,1,,,,,,0,77,0
112200,note_on,,,,,0,0,1,,,,,,0,65,0
112200,note_on,,,,,0,0,1,,,,,,0,72,50
112200,note_on,,,,,40,0,2,,,,,,0,50,0
112200,note_on,,,,,0,0,2,,,,,,0,43,57
112200,note_on,,,,,0,0,1,,,,,,0,64,50
112200,set_tempo,,,,,80,1,0,,566037,,,,,,
112200,note_on,,,,,0,0,1,,,,,,0,76,50
112210,note_on,,,,,10,0,2,,,,,,0,43,0
112240,note_on,,,,,30,0,2,,,,,,0,52,50
112260,note_on,,,,,0,0,1,,,,,,0,72,0
112260,note_on,,,,,60,0,1,,,,,,0,76,0
112260,note_on,,,,,0,0,1,,,,,,0,71,55
112260,note_on,,,,,0,0,1,,,,,,0,74,55
112260,note_on,,,,,0,0,1,,,,,,0,64,0
112260,note_on,,,,,0,0,1,,,,,,0,62,55
112270,set_tempo,,,,,70,1,0,,571428,,,,,,
112280,note_on,,,,,40,0,2,,,,,,0,52,0
112280,note_on,,,,,0,0,2,,,,,,0,53,50
112280,set_tempo,,,,,10,1,0,,576923,,,,,,
112310,control_change,,,,,50,0,1,,,,64,0,0,,
112310,set_tempo,,,,,30,1,0,,582524,,,,,,
112320,note_on,,,,,0,0,1,,,,,,0,64,56
112320,set_tempo,,,,,10,1,0,,588235,,,,,,
112320,note_on,,,,,0,0,1,,,,,,0,72,56
112320,note_on,,,,,40,0,2,,,,,,0,53,0
112320,control_change,,,,,0,0,1,,,,64,95,0,,
112320,note_on,,,,,0,0,1,,,,,,0,76,56
112320,note_on,,,,,0,0,1,,,,,,0,71,0
112320,note_on,,,,,0,0,1,,,,,,0,62,0
112320,note_on,,,,,0,0,2,,,,,,0,43,54
112320,note_on,,,,,10,0,1,,,,,,0,74,0
112330,note_on,,,,,10,0,2,,,,,,0,43,0
112350,set_tempo,,,,,30,1,0,,594059,,,,,,
112360,note_on,,,,,30,0,2,,,,,,0,52,50
112380,set_tempo,,,,,30,1,0,,600000,,,,,,
112400,set_tempo,,,,,20,1,0,,594059,,,,,,
112400,note_on,,,,,0,0,2,,,,,,0,48,50
112400,note_on,,,,,40,0,2,,,,,,0,52,0
112435,control_change,,,,,115,0,1,,,,64,0,0,,
112440,control_change,,,,,0,0,1,,,,64,94,0,,
112440,note_on,,,,,0,0,1,,,,,,0,81,48
112440,note_on,,,,,0,0,1,,,,,,0,72,48
112440,note_on,,,,,0,0,1,,,,,,0,69,48
112440,note_on,,,,,0,0,1,,,,,,0,64,0
112440,note_on,,,,,0,0,2,,,,,,0,43,52
112440,note_on,,,,,0,0,2,,,,,,0,43,0
112440,note_on,,,,,40,0,2,,,,,,0,48,0
112440,note_on,,,,,0,0,1,,,,,,0,72,0
112440,note_on,,,,,5,0,1,,,,,,0,76,0
112480,note_on,,,,,40,0,2,,,,,,0,53,45
112520,note_on,,,,,0,0,2,,,,,,0,50,42
112520,note_on,,,,,40,0,2,,,,,,0,53,0
112540,set_tempo,,,,,140,1,0,,600000,,,,,,
112555,control_change,,,,,115,0,1,,,,64,0,0,,
112560,note_on,,,,,40,0,2,,,,,,0,50,0
112560,note_on,,,,,0,0,2,,,,,,0,43,0
112560,note_on,,,,,0,0,2,,,,,,0,43,49
112560,note_on,,,,,0,0,1,,,,,,0,77,44
112560,note_on,,,,,5,0,1,,,,,,0,81,0
112560,note_on,,,,,0,0,1,,,,,,0,72,0
112560,note_on,,,,,0,0,1,,,,,,0,69,0
112560,note_on,,,,,0,0,1,,,,,,0,65,44
112560,note_on,,,,,0,0,1,,,,,,0,71,44
112560,control_change,,,,,0,0,1,,,,64,95,0,,
112570,set_tempo,,,,,30,1,0,,606060,,,,,,
112600,note_on,,,,,40,0,2,,,,,,0,47,38
112610,set_tempo,,,,,40,1,0,,612244,,,,,,
112630,set_tempo,,,,,20,1,0,,618556,,,,,,
112640,note_on,,,,,0,0,2,,,,,,0,50,37
112640,note_on,,,,,40,0,2,,,,,,0,47,0
112675,control_change,,,,,115,0,1,,,,64,0,0,,
112680,note_on,,,,,5,0,1,,,,,,0,77,0
112680,note_on,,,,,0,0,1,,,,,,0,71,0
112680,note_on,,,,,0,0,1,,,,,,0,65,0
112680,note_on,,,,,0,0,1,,,,,,0,64,38
112680,note_on,,,,,0,0,1,,,,,,0,72,38
112680,note_on,,,,,0,0,1,,,,,,0,76,38
112680,control_change,,,,,0,0,1,,,,64,95,0,,
112680,note_on,,,,,0,0,2,,,,,,0,36,47
112680,note_on,,,,,0,0,2,,,,,,0,43,0
112680,note_on,,,,,40,0,2,,,,,,0,50,0
112680,set_tempo,,,,,50,1,0,,631578,,,,,,
112720,note_on,,,,,0,0,2,,,,,,0,48,37
112720,note_on,,,,,40,0,2,,,,,,0,36,0
112720,set_tempo,,,,,40,1,0,,638297,,,,,,
112760,note_on,,,,,0,0,2,,,,,,0,43,35
112760,note_on,,,,,40,0,2,,,,,,0,48,0
112800,note_on,,,,,40,0,2,,,,,,0,43,0
112800,note_on,,,,,0,0,2,,,,,,0,36,33
112810,set_tempo,,,,,90,1,0,,645161,,,,,,
112830,note_on,,,,,150,0,1,,,,,,0,76,0
112830,note_on,,,,,0,0,1,,,,,,0,64,0
112830,note_on,,,,,0,0,1,,,,,,0,72,0
112840,set_tempo,,,,,30,1,0,,659340,,,,,,
112840,note_on,,,,,40,0,2,,,,,,0,36,0
112850,set_tempo,,,,,10,1,0,,666666,,,,,,
112855,control_change,,,,,25,0,1,,,,64,0,0,,
112860,note_on,,,,,5,0,1,,,,,,0,77,50
112860,note_on,,,,,20,0,2,,,,,,0,55,45
112860,note_on,,,,,0,0,2,,,,,,0,67,45
112860,note_on,,,,,0,0,2,,,,,,0,65,45
112860,set_tempo,,,,,10,1,0,,674157,,,,,,
112880,set_tempo,,,,,20,1,0,,689655,,,,,,
112890,set_tempo,,,,,10,1,0,,697674,,,,,,
112890,note_on,,,,,30,0,1,,,,,,0,77,0
112890,note_on,,,,,0,0,1,,,,,,0,79,46
112900,set_tempo,,,,,10,1,0,,714285,,,,,,
112912,note_on,,,,,22,0,1,,,,,,0,79,0
112920,note_on,,,,,0,0,2,,,,,,0,67,0
112920,note_on,,,,,0,0,2,,,,,,0,55,0
112920,note_on,,,,,0,0,2,,,,,,0,67,52
112920,note_on,,,,,0,0,2,,,,,,0,65,52
112920,note_on,,,,,0,0,2,,,,,,0,57,52
112920,set_tempo,,,,,20,1,0,,731707,,,,,,
112920,note_on,,,,,60,0,2,,,,,,0,65,0
112920,note_on,,,,,8,0,1,,,,,,0,75,57
112930,set_tempo,,,,,10,1,0,,750000,,,,,,
112940,set_tempo,,,,,10,1,0,,759493,,,,,,
112950,note_on,,,,,30,0,1,,,,,,0,75,0
112950,note_on,,,,,0,0,1,,,,,,0,79,53
112960,set_tempo,,,,,20,1,0,,769230,,,,,,
112970,set_tempo,,,,,10,1,0,,789473,,,,,,
112972,note_on,,,,,22,0,1,,,,,,0,79,0
112980,note_on,,,,,0,0,2,,,,,,0,59,57
112980,note_on,,,,,0,0,2,,,,,,0,65,57
112980,note_on,,,,,0,0,2,,,,,,0,67,57
112980,set_tempo,,,,,10,1,0,,800000,,,,,,
112980,note_on,,,,,8,0,1,,,,,,0,74,64
112980,note_on,,,,,0,0,2,,,,,,0,67,0
112980,note_on,,,,,0,0,2,,,,,,0,65,0
112980,note_on,,,,,60,0,2,,,,,,0,57,0
113010,set_tempo,,,,,30,1,0,,845070,,,,,,
113010,note_on,,,,,0,0,1,,,,,,0,79,59
113010,note_on,,,,,30,0,1,,,,,,0,74,0
113030,set_tempo,,,,,20,1,0,,833333,,,,,,
113032,note_on,,,,,22,0,1,,,,,,0,79,0
113040,note_on,,,,,0,0,2,,,,,,0,60,65
113040,note_on,,,,,60,0,2,,,,,,0,59,0
113040,note_on,,,,,0,0,2,,,,,,0,65,0
113040,note_on,,,,,0,0,2,,,,,,0,67,0
113040,key_signature,,,,,10,1,0,Eb,,,,,,,
113040,set_tempo,,,,,0,1,0,,810810,,,,,,
113040,control_change,,,,,0,0,1,,,,64,95,0,,
113040,note_on,,,,,8,0,1,,,,,,0,72,65
113050,set_tempo,,,,,10,1,0,,779220,,,,,,
113060,set_tempo,,,,,10,1,0,,769230,,,,,,
113070,note_on,,,,,0,0,1,,,,,,0,79,56
113070,note_on,,,,,30,0,1,,,,,,0,72,0
113080,set_tempo,,,,,20,1,0,,750000,,,,,,
113090,set_tempo,,,,,10,1,0,,731707,,,,,,
113092,note_on,,,,,52,0,2,,,,,,0,60,0
113096,note_on,,,,,26,0,1,,,,,,0,79,0
113100,note_on,,,,,0,0,2,,,,,,0,63,56
113100,note_on,,,,,4,0,1,,,,,,0,75,56
113100,note_on,,,,,8,0,2,,,,,,0,67,56
113100,set_tempo,,,,,10,1,0,,722891,,,,,,
113120,set_tempo,,,,,20,1,0,,705882,,,,,,
113126,note_on,,,,,26,0,1,,,,,,0,75,0
113130,note_on,,,,,4,0,1,,,,,,0,74,56
113130,set_tempo,,,,,10,1,0,,689655,,,,,,
113140,set_tempo,,,,,10,1,0,,681818,,,,,,
113145,note_on,,,,,45,0,2,,,,,,0,63,0
113145,note_on,,,,,0,0,2,,,,,,0,67,0
113150,control_change,,,,,20,0,1,,,,64,0,0,,
113150,set_tempo,,,,,10,1,0,,674157,,,,,,
113156,note_on,,,,,6,0,1,,,,,,0,74,0
113160,note_on,,,,,4,0,1,,,,,,0,72,65
113160,note_on,,,,,15,0,2,,,,,,0,51,66
113160,set_tempo,,,,,10,1,0,,666666,,,,,,
113170,set_tempo,,,,,10,1,0,,659340,,,,,,
113180,set_tempo,,,,,10,1,0,,645161,,,,,,
113190,note_on,,,,,0,0,1,,,,,,0,79,56
113190,note_on,,,,,30,0,1,,,,,,0,72,0
113200,set_tempo,,,,,20,1,0,,631578,,,,,,
113210,set_tempo,,,,,10,1,0,,625000,,,,,,
113212,note_on,,,,,52,0,2,,,,,,0,51,0
113216,note_on,,,,,26,0,1,,,,,,0,79,0
113220,note_on,,,,,0,0,2,,,,,,0,63,56
113220,note_on,,,,,8,0,2,,,,,,0,67,56
113220,set_tempo,,,,,10,1,0,,618556,,,,,,
113220,note_on,,,,,4,0,1,,,,,,0,75,56
113230,set_tempo,,,,,10,1,0,,606060,,,,,,
113246,note_on,,,,,26,0,1,,,,,,0,75,0
113250,set_tempo,,,,,20,1,0,,594059,,,,,,
113250,note_on,,,,,4,0,1,,,,,,0,72,56
113265,note_on,,,,,0,0,2,,,,,,0,67,0
113265,note_on,,,,,45,0,2,,,,,,0,63,0
113270,set_tempo,,,,,20,1,0,,582524,,,,,,
113276,note_on,,,,,26,0,1,,,,,,0,72,0
113280,note_on,,,,,15,0,2,,,,,,0,55,65
113280,note_on,,,,,4,0,1,,,,,,0,71,65
113290,set_tempo,,,,,20,1,0,,571428,,,,,,
113300,set_tempo,,,,,10,1,0,,566037,,,,,,
113310,note_on,,,,,30,0,1,,,,,,0,71,0
113310,note_on,,,,,0,0,1,,,,,,0,79,58
113320,set_tempo,,,,,20,1,0,,560747,,,,,,
113330,set_tempo,,,,,10,1,0,,555555,,,,,,
113332,note_on,,,,,52,0,2,,,,,,0,55,0
113336,note_on,,,,,26,0,1,,,,,,0,79,0
113340,set_tempo,,,,,10,1,0,,550458,,,,,,
113340,note_on,,,,,4,0,1,,,,,,0,74,59
113340,note_on,,,,,0,0,2,,,,,,0,65,56
113340,note_on,,,,,8,0,2,,,,,,0,67,56
113366,note_on,,,,,26,0,1,,,,,,0,74,0
113370,set_tempo,,,,,30,1,0,,545454,,,,,,
113370,note_on,,,,,4,0,1,,,,,,0,71,62
113380,set_tempo,,,,,10,1,0,,540540,,,,,,
113385,note_on,,,,,45,0,2,,,,,,0,65,0
113385,note_on,,,,,0,0,2,,,,,,0,67,0
113396,note_on,,,,,26,0,1,,,,,,0,71,0
113400,note_on,,,,,15,0,2,,,,,,0,60,66
113400,set_tempo,,,,,20,1,0,,535714,,,,,,
113400,note_on,,,,,4,0,1,,,,,,0,72,62
113410,set_tempo,,,,,10,1,0,,526315,,,,,,
113420,set_tempo,,,,,10,1,0,,512820,,,,,,
113430,note_on,,,,,30,0,1,,,,,,0,72,0
113430,note_on,,,,,0,0,1,,,,,,0,79,55
113450,set_tempo,,,,,30,1,0,,517241,,,,,,
113452,note_on,,,,,52,0,2,,,,,,0,60,0
113456,note_on,,,,,26,0,1,,,,,,0,79,0
113460,note_on,,,,,0,0,2,,,,,,0,65,51
113460,note_on,,,,,8,0,2,,,,,,0,67,51
113460,note_on,,,,,4,0,1,,,,,,0,71,58
113460,set_tempo,,,,,10,1,0,,526315,,,,,,
113480,set_tempo,,,,,20,1,0,,530973,,,,,,
113486,note_on,,,,,26,0,1,,,,,,0,71,0
113490,note_on,,,,,4,0,1,,,,,,0,79,61
113490,set_tempo,,,,,10,1,0,,535714,,,,,,
113505,note_on,,,,,45,0,2,,,,,,0,65,0
113505,note_on,,,,,0,0,2,,,,,,0,67,0
113510,set_tempo,,,,,20,1,0,,540540,,,,,,
113516,note_on,,,,,26,0,1,,,,,,0,79,0
113520,note_on,,,,,4,0,1,,,,,,0,72,63
113520,note_on,,,,,15,0,2,,,,,,0,67,55
113520,note_on,,,,,0,0,2,,,,,,0,63,55
113530,set_tempo,,,,,20,1,0,,550458,,,,,,
113546,note_on,,,,,26,0,1,,,,,,0,72,0
113550,set_tempo,,,,,20,1,0,,560747,,,,,,
113550,note_on,,,,,4,0,1,,,,,,0,79,65
113560,set_tempo,,,,,10,1,0,,566037,,,,,,
113565,note_on,,,,,0,0,2,,,,,,0,67,0
113565,note_on,,,,,45,0,2,,,,,,0,63,0
113576,note_on,,,,,26,0,1,,,,,,0,79,0
113580,note_on,,,,,4,0,1,,,,,,0,74,66
113580,set_tempo,,,,,20,1,0,,571428,,,,,,
113580,note_on,,,,,15,0,2,,,,,,0,67,58
113580,note_on,,,,,0,0,2,,,,,,0,62,58
113600,set_tempo,,,,,20,1,0,,582524,,,,,,
113606,note_on,,,,,26,0,1,,,,,,0,74,0
113610,note_on,,,,,4,0,1,,,,,,0,79,67
113620,set_tempo,,,,,20,1,0,,594059,,,,,,
113625,note_on,,,,,45,0,2,,,,,,0,62,0
113625,note_on,,,,,0,0,2,,,,,,0,67,0
113630,set_tempo,,,,,10,1,0,,600000,,,,,,
113636,note_on,,,,,26,0,1,,,,,,0,79,0
113640,note_on,,,,,4,0,1,,,,,,0,75,69
113640,note_on,,,,,0,0,2,,,,,,0,60,60
113640,note_on,,,,,15,0,2,,,,,,0,67,60
113660,set_tempo,,,,,30,1,0,,612244,,,,,,
113670,note_on,,,,,30,0,1,,,,,,0,75,0
113670,note_on,,,,,0,0,1,,,,,,0,84,64
113685,note_on,,,,,45,0,2,,,,,,0,60,0
113685,note_on,,,,,0,0,2,,,,,,0,67,0
113690,set_tempo,,,,,30,1,0,,618556,,,,,,
113696,note_on,,,,,26,0,1,,,,,,0,84,0
113700,note_on,,,,,4,0,1,,,,,,0,79,63
113700,note_on,,,,,15,0,2,,,,,,0,48,63
113710,set_tempo,,,,,20,1,0,,625000,,,,,,
113726,note_on,,,,,26,0,1,,,,,,0,79,0
113730,note_on,,,,,4,0,1,,,,,,0,75,58
113730,set_tempo,,,,,20,1,0,,882352,,,,,,
113745,note_on,,,,,45,0,2,,,,,,0,48,0
113750,set_tempo,,,,,20,1,0,,625000,,,,,,
113756,note_on,,,,,26,0,1,,,,,,0,75,0
113760,control_change,,,,,0,0,1,,,,64,95,0,,
113760,note_on,,,,,4,0,1,,,,,,0,77,64
113760,set_tempo,,,,,10,1,0,,612244,,,,,,
113760,note_on,,,,,15,0,2,,,,,,0,56,66
113790,note_on,,,,,30,0,1,,,,,,0,77,0
113790,note_on,,,,,0,0,1,,,,,,0,84,56
113805,note_on,,,,,45,0,2,,,,,,0,56,0
113810,set_tempo,,,,,50,1,0,,606060,,,,,,
113816,note_on,,,,,26,0,1,,,,,,0,84,0
113820,note_on,,,,,4,0,1,,,,,,0,80,56
113820,note_on,,,,,15,0,2,,,,,,0,65,56
113820,note_on,,,,,0,0,2,,,,,,0,60,56
113820,set_tempo,,,,,10,1,0,,600000,,,,,,
113840,set_tempo,,,,,20,1,0,,594059,,,,,,
113846,note_on,,,,,26,0,1,,,,,,0,80,0
113850,note_on,,,,,4,0,1,,,,,,0,79,56
113850,set_tempo,,,,,10,1,0,,588235,,,,,,
113865,note_on,,,,,45,0,2,,,,,,0,60,0
113865,note_on,,,,,0,0,2,,,,,,0,65,0
113870,control_change,,,,,20,0,1,,,,64,0,0,,
113876,note_on,,,,,6,0,1,,,,,,0,79,0
113880,note_on,,,,,15,0,2,,,,,,0,56,60
113880,note_on,,,,,4,0,1,,,,,,0,77,63
113910,note_on,,,,,30,0,1,,,,,,0,77,0
113910,note_on,,,,,0,0,1,,,,,,0,84,56
113925,note_on,,,,,45,0,2,,,,,,0,56,0
113930,set_tempo,,,,,80,1,0,,582524,,,,,,
113936,note_on,,,,,26,0,1,,,,,,0,84,0
113940,set_tempo,,,,,10,1,0,,576923,,,,,,
113940,note_on,,,,,4,0,1,,,,,,0,80,56
113940,note_on,,,,,0,0,2,,,,,,0,60,56
113940,note_on,,,,,15,0,2,,,,,,0,65,56
113966,note_on,,,,,26,0,1,,,,,,0,80,0
113970,note_on,,,,,4,0,1,,,,,,0,77,56
113970,set_tempo,,,,,30,1,0,,571428,,,,,,
113985,note_on,,,,,45,0,2,,,,,,0,60,0
113985,note_on,,,,,0,0,2,,,,,,0,65,0
113996,note_on,,,,,26,0,1,,,,,,0,77,0
114000,note_on,,,,,15,0,2,,,,,,0,55,61
114000,note_on,,,,,4,0,1,,,,,,0,75,64
114000,set_tempo,,,,,30,1,0,,566037,,,,,,
114030,note_on,,,,,0,0,1,,,,,,0,84,53
114030,note_on,,,,,30,0,1,,,,,,0,75,0
114040,set_tempo,,,,,40,1,0,,560747,,,,,,
114045,note_on,,,,,45,0,2,,,,,,0,55,0
114056,note_on,,,,,26,0,1,,,,,,0,84,0
114060,set_tempo,,,,,20,1,0,,555555,,,,,,
114060,note_on,,,,,0,0,2,,,,,,0,60,56
114060,note_on,,,,,15,0,2,,,,,,0,67,56
114060,note_on,,,,,4,0,1,,,,,,0,79,57
114086,note_on,,,,,26,0,1,,,,,,0,79,0
114090,note_on,,,,,4,0,1,,,,,,0,75,60
114105,note_on,,,,,45,0,2,,,,,,0,60,0
114105,note_on,,,,,0,0,2,,,,,,0,67,0
114112,note_on,,,,,22,0,1,,,,,,0,75,0
114120,note_on,,,,,8,0,1,,,,,,0,75,65
114120,set_tempo,,,,,60,1,0,,550458,,,,,,
114120,note_on,,,,,15,0,2,,,,,,0,53,61
114150,set_tempo,,,,,30,1,0,,545454,,,,,,
114150,note_on,,,,,30,0,1,,,,,,0,75,0
114150,note_on,,,,,0,0,1,,,,,,0,79,56
114165,note_on,,,,,45,0,2,,,,,,0,53,0
114170,set_tempo,,,,,20,1,0,,540540,,,,,,
114176,note_on,,,,,26,0,1,,,,,,0,79,0
114180,note_on,,,,,4,0,1,,,,,,0,74,57
114180,note_on,,,,,15,0,2,,,,,,0,67,44
114180,note_on,,,,,0,0,2,,,,,,0,59,44
114206,note_on,,,,,26,0,1,,,,,,0,74,0
114210,note_on,,,,,4,0,1,,,,,,0,79,59
114225,note_on,,,,,45,0,2,,,,,,0,59,0
114225,note_on,,,,,0,0,2,,,,,,0,67,0
114230,set_tempo,,,,,60,1,0,,535714,,,,,,
114236,note_on,,,,,26,0,1,,,,,,0,79,0
114240,note_on,,,,,4,0,1,,,,,,0,72,61
114240,note_on,,,,,15,0,2,,,,,,0,50,48
114260,set_tempo,,,,,30,1,0,,530973,,,,,,
114266,note_on,,,,,26,0,1,,,,,,0,72,0
114270,note_on,,,,,4,0,1,,,,,,0,79,61
114285,note_on,,,,,45,0,2,,,,,,0,50,0
114290,set_tempo,,,,,30,1,0,,526315,,,,,,
114296,note_on,,,,,26,0,1,,,,,,0,79,0
114300,note_on,,,,,0,0,2,,,,,,0,65,52
114300,note_on,,,,,15,0,2,,,,,,0,67,52
114300,note_on,,,,,4,0,1,,,,,,0,71,63
114310,set_tempo,,,,,20,1,0,,530973,,,,,,
114320,set_tempo,,,,,10,1,0,,526315,,,,,,
114326,note_on,,,,,26,0,1,,,,,,0,71,0
114330,note_on,,,,,4,0,1,,,,,,0,79,65
114330,set_tempo,,,,,10,1,0,,530973,,,,,,
114345,note_on,,,,,0,0,2,,,,,,0,67,0
114345,note_on,,,,,45,0,2,,,,,,0,65,0
114356,note_on,,,,,26,0,1,,,,,,0,79,0
114360,set_tempo,,,,,30,1,0,,535714,,,,,,
114360,note_on,,,,,0,0,2,,,,,,0,60,58
114360,note_on,,,,,0,0,2,,,,,,0,63,58
114360,note_on,,,,,15,0,2,,,,,,0,67,58
114360,note_on,,,,,4,0,1,,,,,,0,72,67
114360,control_change,,,,,0,0,1,,,,64,95,0,,
114380,set_tempo,,,,,20,1,0,,540540,,,,,,
114386,note_on,,,,,26,0,1,,,,,,0,72,0
114390,note_on,,,,,4,0,1,,,,,,0,79,66
114400,set_tempo,,,,,20,1,0,,550458,,,,,,
114405,note_on,,,,,45,0,2,,,,,,0,60,0
114405,note_on,,,,,0,0,2,,,,,,0,63,0
114405,note_on,,,,,0,0,2,,,,,,0,67,0
114410,set_tempo,,,,,10,1,0,,594059,,,,,,
114416,note_on,,,,,26,0,1,,,,,,0,79,0
114420,set_tempo,,,,,10,1,0,,705882,,,,,,
114420,note_on,,,,,4,0,1,,,,,,0,74,64
114420,note_on,,,,,0,0,2,,,,,,0,65,62
114420,note_on,,,,,15,0,2,,,,,,0,58,62
114420,note_on,,,,,0,0,2,,,,,,0,68,62
114430,set_tempo,,,,,10,1,0,,722891,,,,,,
114440,set_tempo,,,,,10,1,0,,779220,,,,,,
114446,note_on,,,,,26,0,1,,,,,,0,74,0
114450,set_tempo,,,,,10,1,0,,895522,,,,,,
114450,note_on,,,,,4,0,1,,,,,,0,82,55
114472,note_on,,,,,0,0,2,,,,,,0,58,0
114472,note_on,,,,,0,0,2,,,,,,0,65,0
114472,note_on,,,,,52,0,2,,,,,,0,68,0
114475,control_change,,,,,25,0,1,,,,64,0,0,,
114476,note_on,,,,,1,0,1,,,,,,0,82,0
114480,note_on,,,,,4,0,1,,,,,,0,75,50
114480,control_change,,,,,0,0,1,,,,64,96,0,,
114480,note_on,,,,,8,0,2,,,,,,0,63,47
114500,set_tempo,,,,,50,1,0,,722891,,,,,,
114510,note_on,,,,,30,0,1,,,,,,0,75,0
114510,note_on,,,,,0,0,1,,,,,,0,82,42
114510,set_tempo,,,,,10,1,0,,674157,,,,,,
114520,set_tempo,,,,,10,1,0,,652173,,,,,,
114530,set_tempo,,,,,10,1,0,,638297,,,,,,
114532,note_on,,,,,52,0,2,,,,,,0,63,0
114536,note_on,,,,,26,0,1,,,,,,0,82,0
114540,note_on,,,,,0,0,2,,,,,,0,67,36
114540,note_on,,,,,8,0,2,,,,,,0,70,36
114540,note_on,,,,,4,0,1,,,,,,0,79,42
114540,set_tempo,,,,,10,1,0,,618556,,,,,,
114550,set_tempo,,,,,10,1,0,,612244,,,,,,
114560,set_tempo,,,,,10,1,0,,600000,,,,,,
114566,note_on,,,,,26,0,1,,,,,,0,79,0
114570,set_tempo,,,,,10,1,0,,588235,,,,,,
114570,note_on,,,,,4,0,1,,,,,,0,77,42
114585,note_on,,,,,45,0,2,,,,,,0,67,0
114585,note_on,,,,,0,0,2,,,,,,0,70,0
114590,set_tempo,,,,,20,1,0,,576923,,,,,,
114595,control_change,,,,,25,0,1,,,,64,0,0,,
114596,note_on,,,,,1,0,1,,,,,,0,77,0
114600,note_on,,,,,15,0,2,,,,,,0,55,47
114600,set_tempo,,,,,10,1,0,,566037,,,,,,
114600,note_on,,,,,4,0,1,,,,,,0,75,51
114610,set_tempo,,,,,10,1,0,,555555,,,,,,
114620,set_tempo,,,,,10,1,0,,545454,,,,,,
114630,note_on,,,,,0,0,1,,,,,,0,82,42
114630,note_on,,,,,30,0,1,,,,,,0,75,0
114650,set_tempo,,,,,30,1,0,,540540,,,,,,
114652,note_on,,,,,52,0,2,,,,,,0,55,0
114656,note_on,,,,,26,0,1,,,,,,0,82,0
114660,set_tempo,,,,,10,1,0,,535714,,,,,,
114660,note_on,,,,,0,0,2,,,,,,0,67,38
114660,note_on,,,,,8,0,2,,,,,,0,70,38
114660,note_on,,,,,4,0,1,,,,,,0,79,42
114680,set_tempo,,,,,20,1,0,,530973,,,,,,
114686,note_on,,,,,26,0,1,,,,,,0,79,0
114690,note_on,,,,,4,0,1,,,,,,0,75,49
114700,set_tempo,,,,,20,1,0,,526315,,,,,,
114705,note_on,,,,,0,0,2,,,,,,0,70,0
114705,note_on,,,,,45,0,2,,,,,,0,67,0
114716,note_on,,,,,26,0,1,,,,,,0,75,0
114720,note_on,,,,,4,0,1,,,,,,0,74,40
114720,note_on,,,,,15,0,2,,,,,,0,58,47
114730,set_tempo,,,,,30,1,0,,521739,,,,,,
114750,note_on,,,,,30,0,1,,,,,,0,74,0
114750,note_on,,,,,0,0,1,,,,,,0,82,41
114770,set_tempo,,,,,40,1,0,,517241,,,,,,
114772,note_on,,,,,52,0,2,,,,,,0,58,0
114776,note_on,,,,,26,0,1,,,,,,0,82,0
114780,note_on,,,,,4,0,1,,,,,,0,77,43
114780,note_on,,,,,8,0,2,,,,,,0,70,35
114780,note_on,,,,,0,0,2,,,,,,0,68,35
114806,note_on,,,,,26,0,1,,,,,,0,77,0
114810,note_on,,,,,4,0,1,,,,,,0,74,46
114825,note_on,,,,,45,0,2,,,,,,0,68,0
114825,note_on,,,,,0,0,2,,,,,,0,70,0
114836,note_on,,,,,26,0,1,,,,,,0,74,0
114840,note_on,,,,,4,0,1,,,,,,0,75,50
114840,note_on,,,,,15,0,2,,,,,,0,63,47
114870,note_on,,,,,30,0,1,,,,,,0,75,0
114870,note_on,,,,,0,0,1,,,,,,0,82,56
114892,note_on,,,,,52,0,2,,,,,,0,63,0
114896,note_on,,,,,26,0,1,,,,,,0,82,0
114900,note_on,,,,,0,0,2,,,,,,0,68,35
114900,note_on,,,,,8,0,2,,,,,,0,70,35
114900,note_on,,,,,4,0,1,,,,,,0,74,45
114926,note_on,,,,,26,0,1,,,,,,0,74,0
114930,note_on,,,,,4,0,1,,,,,,0,82,46
114945,note_on,,,,,45,0,2,,,,,,0,68,0
114945,note_on,,,,,0,0,2,,,,,,0,70,0
114956,note_on,,,,,26,0,1,,,,,,0,82,0
114960,note_on,,,,,4,0,1,,,,,,0,75,49
114960,note_on,,,,,0,0,2,,,,,,0,67,37
114960,note_on,,,,,15,0,2,,,,,,0,70,37
114986,note_on,,,,,26,0,1,,,,,,0,75,0
114990,note_on,,,,,4,0,1,,,,,,0,82,51
115005,note_on,,,,,45,0,2,,,,,,0,67,0
115005,note_on,,,,,0,0,2,,,,,,0,70,0
115016,note_on,,,,,26,0,1,,,,,,0,82,0
115020,note_on,,,,,15,0,2,,,,,,0,70,40
115020,note_on,,,,,4,0,1,,,,,,0,77,53
115020,note_on,,,,,0,0,2,,,,,,0,65,40
115046,note_on,,,,,26,0,1,,,,,,0,77,0
115050,note_on,,,,,4,0,1,,,,,,0,82,54
115065,note_on,,,,,0,0,2,,,,,,0,70,0
115065,note_on,,,,,45,0,2,,,,,,0,65,0
115076,note_on,,,,,26,0,1,,,,,,0,82,0
115080,note_on,,,,,0,0,2,,,,,,0,63,43
115080,note_on,,,,,15,0,2,,,,,,0,70,43
115080,note_on,,,,,4,0,1,,,,,,0,79,55
115110,note_on,,,,,30,0,1,,,,,,0,79,0
115110,note_on,,,,,0,0,1,,,,,,0,87,56
115125,note_on,,,,,0,0,2,,,,,,0,70,0
115125,note_on,,,,,45,0,2,,,,,,0,63,0
115136,note_on,,,,,26,0,1,,,,,,0,87,0
115140,note_on,,,,,4,0,1,,,,,,0,82,57
115140,note_on,,,,,15,0,2,,,,,,0,51,47
115166,note_on,,,,,26,0,1,,,,,,0,82,0
115170,note_on,,,,,4,0,1,,,,,,0,79,59
115185,note_on,,,,,45,0,2,,,,,,0,51,0
115196,note_on,,,,,26,0,1,,,,,,0,79,0
115200,note_on,,,,,4,0,1,,,,,,0,80,61
115200,note_on,,,,,15,0,2,,,,,,0,60,49
115200,control_change,,,,,0,0,1,,,,64,95,0,,
115230,note_on,,,,,0,0,1,,,,,,0,87,51
115230,note_on,,,,,30,0,1,,,,,,0,80,0
115245,note_on,,,,,45,0,2,,,,,,0,60,0
115256,note_on,,,,,26,0,1,,,,,,0,87,0
115260,note_on,,,,,15,0,2,,,,,,0,68,41
115260,note_on,,,,,0,0,2,,,,,,0,63,41
115260,note_on,,,,,4,0,1,,,,,,0,84,51
115286,note_on,,,,,26,0,1,,,,,,0,84,0
115290,note_on,,,,,4,0,1,,,,,,0,82,51
115305,note_on,,,,,45,0,2,,,,,,0,63,0
115305,note_on,,,,,0,0,2,,,,,,0,68,0
115316,note_on,,,,,26,0,1,,,,,,0,82,0
115320,note_on,,,,,15,0,2,,,,,,0,60,46
115320,control_change,,,,,0,0,1,,,,64,0,0,,
115320,note_on,,,,,4,0,1,,,,,,0,80,61
115346,note_on,,,,,26,0,1,,,,,,0,80,0
115350,note_on,,,,,4,0,1,,,,,,0,87,52
115365,note_on,,,,,45,0,2,,,,,,0,60,0
115370,set_tempo,,,,,600,1,0,,517241,,,,,,
115376,note_on,,,,,26,0,1,,,,,,0,87,0
115380,note_on,,,,,4,0,1,,,,,,0,84,52
115380,set_tempo,,,,,10,1,0,,521739,,,,,,
115380,note_on,,,,,15,0,2,,,,,,0,68,38
115380,note_on,,,,,0,0,2,,,,,,0,63,38
115406,note_on,,,,,26,0,1,,,,,,0,84,0
115410,note_on,,,,,4,0,1,,,,,,0,80,53
115410,set_tempo,,,,,30,1,0,,526315,,,,,,
115420,set_tempo,,,,,10,1,0,,530973,,,,,,
115425,note_on,,,,,45,0,2,,,,,,0,63,0
115425,note_on,,,,,0,0,2,,,,,,0,68,0
115436,note_on,,,,,26,0,1,,,,,,0,80,0
115440,note_on,,,,,15,0,2,,,,,,0,58,49
115440,note_on,,,,,4,0,1,,,,,,0,79,54
115470,note_on,,,,,0,0,1,,,,,,0,87,55
115470,note_on,,,,,30,0,1,,,,,,0,79,0
115480,set_tempo,,,,,60,1,0,,540540,,,,,,
115485,note_on,,,,,45,0,2,,,,,,0,58,0
115496,note_on,,,,,26,0,1,,,,,,0,87,0
115500,note_on,,,,,15,0,2,,,,,,0,70,41
115500,set_tempo,,,,,20,1,0,,545454,,,,,,
115500,note_on,,,,,4,0,1,,,,,,0,82,57
115500,note_on,,,,,0,0,2,,,,,,0,63,41
115510,set_tempo,,,,,10,1,0,,550458,,,,,,
115526,note_on,,,,,26,0,1,,,,,,0,82,0
115530,note_on,,,,,4,0,1,,,,,,0,79,57
115540,set_tempo,,,,,30,1,0,,555555,,,,,,
115545,note_on,,,,,0,0,2,,,,,,0,70,0
115545,note_on,,,,,45,0,2,,,,,,0,63,0
115552,note_on,,,,,22,0,1,,,,,,0,79,0
115560,note_on,,,,,15,0,2,,,,,,0,56,49
115560,set_tempo,,,,,20,1,0,,560747,,,,,,
115560,note_on,,,,,8,0,1,,,,,,0,79,59
115570,set_tempo,,,,,10,1,0,,550458,,,,,,
115590,note_on,,,,,30,0,1,,,,,,0,79,0
115590,note_on,,,,,0,0,1,,,,,,0,82,48
115590,set_tempo,,,,,20,1,0,,545454,,,,,,
115605,note_on,,,,,45,0,2,,,,,,0,56,0
115610,set_tempo,,,,,20,1,0,,540540,,,,,,
115616,note_on,,,,,26,0,1,,,,,,0,82,0
115620,note_on,,,,,4,0,1,,,,,,0,77,49
115620,note_on,,,,,15,0,2,,,,,,0,70,52
115620,note_on,,,,,0,0,2,,,,,,0,62,52
115630,set_tempo,,,,,20,1,0,,535714,,,,,,
115646,note_on,,,,,26,0,1,,,,,,0,77,0
115650,note_on,,,,,4,0,1,,,,,,0,82,50
115665,note_on,,,,,45,0,2,,,,,,0,62,0
115665,note_on,,,,,0,0,2,,,,,,0,70,0
115676,note_on,,,,,26,0,1,,,,,,0,82,0
115680,note_on,,,,,15,0,2,,,,,,0,53,62
115680,note_on,,,,,4,0,1,,,,,,0,75,52
115706,note_on,,,,,26,0,1,,,,,,0,75,0
115710,set_tempo,,,,,80,1,0,,526315,,,,,,
115710,note_on,,,,,4,0,1,,,,,,0,82,52
115725,note_on,,,,,45,0,2,,,,,,0,53,0
115736,note_on,,,,,26,0,1,,,,,,0,82,0
115740,note_on,,,,,15,0,2,,,,,,0,70,66
115740,note_on,,,,,0,0,2,,,,,,0,68,66
115740,note_on,,,,,4,0,1,,,,,,0,74,54
115766,note_on,,,,,26,0,1,,,,,,0,74,0
115770,note_on,,,,,4,0,1,,,,,,0,82,55
115785,note_on,,,,,0,0,2,,,,,,0,70,0
115785,note_on,,,,,45,0,2,,,,,,0,68,0
115790,set_tempo,,,,,80,1,0,,517241,,,,,,
115796,note_on,,,,,26,0,1,,,,,,0,82,0
115800,note_on,,,,,4,0,1,,,,,,0,75,56
115800,note_on,,,,,15,0,2,,,,,,0,70,70
115800,note_on,,,,,0,0,2,,,,,,0,67,70
115800,note_on,,,,,0,0,2,,,,,,0,63,70
115826,note_on,,,,,26,0,1,,,,,,0,75,0
115830,note_on,,,,,4,0,1,,,,,,0,82,56
115845,note_on,,,,,0,0,2,,,,,,0,67,0
115845,note_on,,,,,45,0,2,,,,,,0,63,0
115845,note_on,,,,,0,0,2,,,,,,0,70,0
115856,note_on,,,,,26,0,1,,,,,,0,82,0
115860,note_on,,,,,15,0,2,,,,,,0,60,74
115860,note_on,,,,,0,0,2,,,,,,0,67,74
115860,note_on,,,,,0,0,2,,,,,,0,70,74
115860,control_change,,,,,0,0,1,,,,64,95,0,,
115860,note_on,,,,,4,0,1,,,,,,0,76,54
115870,set_tempo,,,,,80,1,0,,500000,,,,,,
115890,note_on,,,,,30,0,1,,,,,,0,76,0
115890,note_on,,,,,0,0,1,,,,,,0,84,52
115910,set_tempo,,,,,40,1,0,,495867,,,,,,
115912,note_on,,,,,0,0,2,,,,,,0,60,0
115912,note_on,,,,,52,0,2,,,,,,0,70,0
115912,note_on,,,,,0,0,2,,,,,,0,67,0
115915,control_change,,,,,25,0,1,,,,64,0,0,,
115916,note_on,,,,,1,0,1,,,,,,0,84,0
115920,set_tempo,,,,,10,1,0,,491803,,,,,,
115920,note_on,,,,,8,0,2,,,,,,0,68,77
115920,note_on,,,,,4,0,1,,,,,,0,77,61
115920,control_change,,,,,0,0,1,,,,64,96,0,,
115920,note_on,,,,,0,0,2,,,,,,0,65,77
115940,set_tempo,,,,,20,1,0,,487804,,,,,,
115950,note_on,,,,,30,0,1,,,,,,0,77,0
115950,note_on,,,,,0,0,1,,,,,,0,84,66
115960,set_tempo,,,,,20,1,0,,483870,,,,,,
115965,note_on,,,,,0,0,2,,,,,,0,68,0
115965,note_on,,,,,45,0,2,,,,,,0,65,0
115970,set_tempo,,,,,10,1,0,,480000,,,,,,
115976,note_on,,,,,26,0,1,,,,,,0,84,0
115980,note_on,,,,,0,0,2,,,,,,0,58,76
115980,note_on,,,,,15,0,2,,,,,,0,60,76
115980,note_on,,,,,4,0,1,,,,,,0,67,69
115990,set_tempo,,,,,20,1,0,,476190,,,,,,
116000,set_tempo,,,,,10,1,0,,472440,,,,,,
116006,note_on,,,,,26,0,1,,,,,,0,67,0
116010,note_on,,,,,4,0,1,,,,,,0,76,78
116025,note_on,,,,,0,0,2,,,,,,0,60,0
116025,note_on,,,,,45,0,2,,,,,,0,58,0
116036,note_on,,,,,26,0,1,,,,,,0,76,0
116040,note_on,,,,,15,0,2,,,,,,0,56,82
116040,note_on,,,,,4,0,1,,,,,,0,68,82
116040,note_on,,,,,0,0,2,,,,,,0,60,82
116040,set_tempo,,,,,40,1,0,,468750,,,,,,
116066,note_on,,,,,26,0,1,,,,,,0,68,0
116070,note_on,,,,,4,0,1,,,,,,0,77,87
116080,set_tempo,,,,,40,1,0,,465116,,,,,,
116085,note_on,,,,,0,0,2,,,,,,0,56,0
116085,note_on,,,,,45,0,2,,,,,,0,60,0
116095,control_change,,,,,25,0,1,,,,64,0,0,,
116096,note_on,,,,,1,0,1,,,,,,0,77,0
116100,note_on,,,,,0,0,2,,,,,,0,52,88
116100,note_on,,,,,0,0,2,,,,,,0,55,88
116100,note_on,,,,,15,0,2,,,,,,0,60,88
116100,note_on,,,,,4,0,1,,,,,,0,72,94
116100,control_change,,,,,0,0,1,,,,64,96,0,,
116120,set_tempo,,,,,40,1,0,,461538,,,,,,
116126,note_on,,,,,26,0,1,,,,,,0,72,0
116130,note_on,,,,,4,0,1,,,,,,0,79,100
116145,note_on,,,,,0,0,2,,,,,,0,55,0
116145,note_on,,,,,0,0,2,,,,,,0,60,0
116145,note_on,,,,,45,0,2,,,,,,0,52,0
116156,note_on,,,,,26,0,1,,,,,,0,79,0
116160,note_on,,,,,4,0,1,,,,,,0,72,105
116160,note_on,,,,,0,0,2,,,,,,0,56,90
116160,note_on,,,,,0,0,2,,,,,,0,53,90
116160,note_on,,,,,15,0,2,,,,,,0,60,90
116180,set_tempo,,,,,60,1,0,,458015,,,,,,
116186,note_on,,,,,26,0,1,,,,,,0,72,0
116190,note_on,,,,,4,0,1,,,,,,0,80,109
116205,note_on,,,,,45,0,2,,,,,,0,53,0
116205,note_on,,,,,0,0,2,,,,,,0,56,0
116205,note_on,,,,,0,0,2,,,,,,0,60,0
116216,note_on,,,,,26,0,1,,,,,,0,80,0
116220,note_on,,,,,0,0,2,,,,,,0,52,95
116220,set_tempo,,,,,40,1,0,,454545,,,,,,
116220,note_on,,,,,15,0,2,,,,,,0,60,95
116220,note_on,,,,,0,0,2,,,,,,0,58,95
116220,note_on,,,,,4,0,1,,,,,,0,76,114
116240,set_tempo,,,,,20,1,0,,451127,,,,,,
116246,note_on,,,,,26,0,1,,,,,,0,76,0
116250,note_on,,,,,4,0,1,,,,,,0,84,119
116265,note_on,,,,,0,0,2,,,,,,0,60,0
116265,note_on,,,,,0,0,2,,,,,,0,58,0
116265,note_on,,,,,45,0,2,,,,,,0,52,0
116272,note_on,,,,,22,0,1,,,,,,0,84,0
116275,control_change,,,,,3,0,1,,,,64,0,0,,
116280,note_on,,,,,0,0,2,,,,,,0,56,101
116280,note_on,,,,,15,0,2,,,,,,0,60,101
116280,control_change,,,,,0,0,1,,,,64,95,0,,
116280,note_on,,,,,5,0,1,,,,,,0,77,124
116310,note_on,,,,,0,0,1,,,,,,0,89,124
116310,note_on,,,,,30,0,1,,,,,,0,77,0
116336,note_on,,,,,26,0,1,,,,,,0,89,0
116340,note_on,,,,,4,0,1,,,,,,0,84,119
116360,set_tempo,,,,,120,1,0,,447761,,,,,,
116366,note_on,,,,,26,0,1,,,,,,0,84,0
116370,note_on,,,,,4,0,1,,,,,,0,80,115
116390,set_tempo,,,,,30,1,0,,444444,,,,,,
116396,note_on,,,,,26,0,1,,,,,,0,80,0
116400,note_on,,,,,0,0,2,,,,,,0,60,0
116400,note_on,,,,,120,0,2,,,,,,0,56,0
116400,note_on,,,,,4,0,1,,,,,,0,77,113
116426,note_on,,,,,26,0,1,,,,,,0,77,0
116430,note_on,,,,,4,0,1,,,,,,0,72,109
116456,note_on,,,,,26,0,1,,,,,,0,72,0
116460,control_change,,,,,0,0,1,,,,64,0,0,,
116460,note_on,,,,,4,0,1,,,,,,0,68,108
116486,note_on,,,,,26,0,1,,,,,,0,68,0
116490,note_on,,,,,4,0,1,,,,,,0,65,109
116516,note_on,,,,,26,0,1,,,,,,0,65,0
116520,note_on,,,,,4,0,1,,,,,,0,60,113
116546,note_on,,,,,26,0,1,,,,,,0,60,0
116550,note_on,,,,,4,0,1,,,,,,0,65,116
116576,note_on,,,,,26,0,1,,,,,,0,65,0
116580,note_on,,,,,4,0,1,,,,,,0,68,119
116606,note_on,,,,,26,0,1,,,,,,0,68,0
116610,note_on,,,,,4,0,1,,,,,,0,72,121
116636,note_on,,,,,26,0,1,,,,,,0,72,0
116640,note_on,,,,,240,0,2,,,,,,0,44,125
116640,note_on,,,,,4,0,1,,,,,,0,77,127
116640,control_change,,,,,0,0,1,,,,64,96,0,,
116670,note_on,,,,,0,0,2,,,,,,0,48,113
116670,note_on,,,,,30,0,2,,,,,,0,44,0
116692,note_on,,,,,52,0,1,,,,,,0,77,0
116700,note_on,,,,,30,0,2,,,,,,0,48,0
116700,note_on,,,,,0,0,2,,,,,,0,53,118
116700,note_on,,,,,0,0,1,,,,,,0,77,105
116700,note_on,,,,,8,0,1,,,,,,0,72,105
116700,note_on,,,,,0,0,1,,,,,,0,84,105
116730,note_on,,,,,30,0,2,,,,,,0,53,0
116730,note_on,,,,,0,0,2,,,,,,0,56,121
116745,note_on,,,,,0,0,1,,,,,,0,77,0
116745,note_on,,,,,0,0,1,,,,,,0,72,0
116745,note_on,,,,,45,0,1,,,,,,0,84,0
116760,note_on,,,,,15,0,1,,,,,,0,84,107
116760,note_on,,,,,0,0,1,,,,,,0,77,107
116760,note_on,,,,,0,0,1,,,,,,0,72,107
116760,note_on,,,,,30,0,2,,,,,,0,56,0
116760,note_on,,,,,0,0,2,,,,,,0,53,123
116790,note_on,,,,,30,0,2,,,,,,0,53,0
116790,note_on,,,,,0,0,2,,,,,,0,48,115
116805,note_on,,,,,0,0,1,,,,,,0,84,0
116805,note_on,,,,,0,0,1,,,,,,0,77,0
116805,note_on,,,,,45,0,1,,,,,,0,72,0
116815,control_change,,,,,10,0,1,,,,64,0,0,,
116820,note_on,,,,,0,0,2,,,,,,0,44,120
116820,note_on,,,,,30,0,2,,,,,,0,48,0
116820,note_on,,,,,0,0,1,,,,,,0,72,114
116820,note_on,,,,,0,0,1,,,,,,0,77,114
116820,note_on,,,,,5,0,1,,,,,,0,84,114
116850,note_on,,,,,30,0,2,,,,,,0,44,0
116850,note_on,,,,,0,0,2,,,,,,0,41,125
116865,note_on,,,,,0,0,1,,,,,,0,84,0
116865,note_on,,,,,45,0,1,,,,,,0,72,0
116865,note_on,,,,,0,0,1,,,,,,0,77,0
116880,note_on,,,,,30,0,2,,,,,,0,41,0
116880,control_change,,,,,0,0,1,,,,64,95,0,,
116880,note_on,,,,,0,0,2,,,,,,0,44,127
116880,note_on,,,,,15,0,1,,,,,,0,85,126
116880,note_on,,,,,0,0,1,,,,,,0,77,126
116880,note_on,,,,,0,0,1,,,,,,0,73,126
116940,note_on,,,,,60,0,2,,,,,,0,44,0
116940,note_on,,,,,0,0,1,,,,,,0,77,0
116940,note_on,,,,,0,0,1,,,,,,0,85,0
116940,note_on,,,,,60,0,1,,,,,,0,73,0
116940,note_on,,,,,0,0,1,,,,,,0,77,91
116940,note_on,,,,,0,0,1,,,,,,0,84,91
116940,control_change,,,,,0,0,1,,,,64,0,0,,
116940,note_on,,,,,0,0,1,,,,,,0,72,91
116970,note_on,,,,,0,0,1,,,,,,0,72,0
116970,note_on,,,,,30,0,1,,,,,,0,84,0
116970,note_on,,,,,0,0,1,,,,,,0,77,0
117000,control_change,,,,,0,0,1,,,,64,96,0,,
117000,set_tempo,,,,,610,1,0,,491803,,,,,,
117000,note_on,,,,,60,0,2,,,,,,0,43,77
117000,note_on,,,,,30,0,1,,,,,,0,63,61
117020,set_tempo,,,,,20,1,0,,487804,,,,,,
117030,note_on,,,,,30,0,1,,,,,,0,63,0
117030,note_on,,,,,0,0,1,,,,,,0,72,66
117040,set_tempo,,,,,20,1,0,,483870,,,,,,
117045,note_on,,,,,45,0,2,,,,,,0,43,0
117050,set_tempo,,,,,10,1,0,,480000,,,,,,
117056,note_on,,,,,26,0,1,,,,,,0,72,0
117060,note_on,,,,,0,0,2,,,,,,0,60,76
117060,note_on,,,,,4,0,1,,,,,,0,66,69
117060,note_on,,,,,15,0,2,,,,,,0,56,76
117070,set_tempo,,,,,20,1,0,,476190,,,,,,
117080,set_tempo,,,,,10,1,0,,472440,,,,,,
117086,note_on,,,,,26,0,1,,,,,,0,66,0
117090,note_on,,,,,4,0,1,,,,,,0,74,78
117105,note_on,,,,,45,0,2,,,,,,0,60,0
117105,note_on,,,,,0,0,2,,,,,,0,56,0
117116,note_on,,,,,26,0,1,,,,,,0,74,0
117120,note_on,,,,,15,0,2,,,,,,0,55,82
117120,note_on,,,,,0,0,2,,,,,,0,60,82
117120,set_tempo,,,,,40,1,0,,468750,,,,,,
117120,note_on,,,,,4,0,1,,,,,,0,67,82
117146,note_on,,,,,26,0,1,,,,,,0,67,0
117150,note_on,,,,,4,0,1,,,,,,0,75,87
117160,set_tempo,,,,,40,1,0,,465116,,,,,,
117165,note_on,,,,,45,0,2,,,,,,0,60,0
117165,note_on,,,,,0,0,2,,,,,,0,55,0
117175,control_change,,,,,25,0,1,,,,64,0,0,,
117176,note_on,,,,,1,0,1,,,,,,0,75,0
117180,note_on,,,,,0,0,2,,,,,,0,48,88
117180,note_on,,,,,4,0,1,,,,,,0,74,94
117180,note_on,,,,,15,0,2,,,,,,0,44,88
117180,control_change,,,,,0,0,1,,,,64,96,0,,
117200,set_tempo,,,,,40,1,0,,461538,,,,,,
117206,note_on,,,,,26,0,1,,,,,,0,74,0
117210,note_on,,,,,4,0,1,,,,,,0,78,100
117225,note_on,,,,,0,0,2,,,,,,0,44,0
117225,note_on,,,,,45,0,2,,,,,,0,48,0
117236,note_on,,,,,26,0,1,,,,,,0,78,0
117240,note_on,,,,,4,0,1,,,,,,0,75,105
117240,note_on,,,,,15,0,2,,,,,,0,43,90
117240,note_on,,,,,0,0,2,,,,,,0,48,90
117260,set_tempo,,,,,60,1,0,,458015,,,,,,
117266,note_on,,,,,26,0,1,,,,,,0,75,0
117270,note_on,,,,,4,0,1,,,,,,0,79,109
117285,note_on,,,,,45,0,2,,,,,,0,48,0
117285,note_on,,,,,0,0,2,,,,,,0,43,0
117296,note_on,,,,,26,0,1,,,,,,0,79,0
117300,note_on,,,,,4,0,1,,,,,,0,78,114
117300,note_on,,,,,0,0,2,,,,,,0,60,95
117300,set_tempo,,,,,40,1,0,,454545,,,,,,
117300,note_on,,,,,15,0,2,,,,,,0,62,95
117300,note_on,,,,,0,0,2,,,,,,0,56,95
117320,set_tempo,,,,,20,1,0,,451127,,,,,,
117326,note_on,,,,,26,0,1,,,,,,0,78,0
117330,note_on,,,,,4,0,1,,,,,,0,86,119
117345,note_on,,,,,45,0,2,,,,,,0,60,0
117345,note_on,,,,,0,0,2,,,,,,0,62,0
117345,note_on,,,,,0,0,2,,,,,,0,56,0
117352,note_on,,,,,22,0,1,,,,,,0,86,0
117355,control_change,,,,,3,0,1,,,,64,0,0,,
117360,note_on,,,,,0,0,2,,,,,,0,60,101
117360,control_change,,,,,0,0,1,,,,64,95,0,,
117360,note_on,,,,,0,0,2,,,,,,0,55,101
117360,note_on,,,,,15,0,2,,,,,,0,63,101
117360,note_on,,,,,5,0,1,,,,,,0,79,124
117390,note_on,,,,,30,0,1,,,,,,0,79,0
117390,note_on,,,,,0,0,1,,,,,,0,91,124
117416,note_on,,,,,26,0,1,,,,,,0,91,0
117420,note_on,,,,,4,0,1,,,,,,0,87,119
117440,set_tempo,,,,,120,1,0,,447761,,,,,,
117446,note_on,,,,,26,0,1,,,,,,0,87,0
117450,note_on,,,,,4,0,1,,,,,,0,84,115
117470,set_tempo,,,,,30,1,0,,444444,,,,,,
117476,note_on,,,,,26,0,1,,,,,,0,84,0
117480,note_on,,,,,4,0,1,,,,,,0,79,113
117480,note_on,,,,,0,0,2,,,,,,0,63,0
117480,note_on,,,,,0,0,2,,,,,,0,60,0
117480,note_on,,,,,120,0,2,,,,,,0,55,0
117506,note_on,,,,,26,0,1,,,,,,0,79,0
117510,note_on,,,,,4,0,1,,,,,,0,75,109
117536,note_on,,,,,26,0,1,,,,,,0,75,0
117540,control_change,,,,,0,0,1,,,,64,0,0,,
117540,note_on,,,,,4,0,1,,,,,,0,72,108
117566,note_on,,,,,26,0,1,,,,,,0,72,0
117570,note_on,,,,,4,0,1,,,,,,0,67,109
117596,note_on,,,,,26,0,1,,,,,,0,67,0
117600,note_on,,,,,4,0,1,,,,,,0,63,113
117626,note_on,,,,,26,0,1,,,,,,0,63,0
117630,note_on,,,,,4,0,1,,,,,,0,60,116
117656,note_on,,,,,26,0,1,,,,,,0,60,0
117660,note_on,,,,,4,0,1,,,,,,0,63,119
117686,note_on,,,,,26,0,1,,,,,,0,63,0
117690,note_on,,,,,4,0,1,,,,,,0,67,121
117716,note_on,,,,,26,0,1,,,,,,0,67,0
117720,note_on,,,,,4,0,1,,,,,,0,72,127
117720,control_change,,,,,0,0,1,,,,64,96,0,,
117720,note_on,,,,,240,0,2,,,,,,0,43,125
117750,note_on,,,,,0,0,2,,,,,,0,55,113
117750,note_on,,,,,30,0,2,,,,,,0,43,0
117772,note_on,,,,,52,0,1,,,,,,0,72,0
117780,note_on,,,,,8,0,1,,,,,,0,79,105
117780,note_on,,,,,0,0,1,,,,,,0,72,105
117780,note_on,,,,,0,0,1,,,,,,0,75,105
117780,note_on,,,,,0,0,2,,,,,,0,51,118
117780,note_on,,,,,30,0,2,,,,,,0,55,0
117780,note_on,,,,,0,0,1,,,,,,0,84,105
117810,note_on,,,,,0,0,2,,,,,,0,48,121
117810,note_on,,,,,30,0,2,,,,,,0,51,0
117825,note_on,,,,,0,0,1,,,,,,0,79,0
117825,note_on,,,,,45,0,1,,,,,,0,84,0
117825,note_on,,,,,0,0,1,,,,,,0,75,0
117825,note_on,,,,,0,0,1,,,,,,0,72,0
117840,note_on,,,,,0,0,1,,,,,,0,84,107
117840,note_on,,,,,30,0,2,,,,,,0,48,0
117840,note_on,,,,,0,0,1,,,,,,0,75,107
117840,note_on,,,,,15,0,1,,,,,,0,79,107
117840,note_on,,,,,0,0,2,,,,,,0,43,123
117840,note_on,,,,,0,0,1,,,,,,0,72,107
117870,note_on,,,,,0,0,2,,,,,,0,39,115
117870,note_on,,,,,30,0,2,,,,,,0,43,0
117885,note_on,,,,,0,0,1,,,,,,0,75,0
117885,note_on,,,,,45,0,1,,,,,,0,72,0
117885,note_on,,,,,0,0,1,,,,,,0,79,0
117885,note_on,,,,,0,0,1,,,,,,0,84,0
117895,control_change,,,,,10,0,1,,,,64,0,0,,
117900,note_on,,,,,0,0,1,,,,,,0,84,114
117900,note_on,,,,,0,0,1,,,,,,0,75,114
117900,note_on,,,,,30,0,2,,,,,,0,39,0
117900,note_on,,,,,0,0,2,,,,,,0,36,120
117900,note_on,,,,,5,0,1,,,,,,0,79,114
117900,note_on,,,,,0,0,1,,,,,,0,72,114
117910,set_tempo,,,,,440,1,0,,454545,,,,,,
117930,set_tempo,,,,,20,1,0,,458015,,,,,,
117930,note_on,,,,,30,0,2,,,,,,0,36,0
117930,note_on,,,,,0,0,2,,,,,,0,31,125
117945,note_on,,,,,0,0,1,,,,,,0,84,0
117945,note_on,,,,,0,0,1,,,,,,0,75,0
117945,note_on,,,,,0,0,1,,,,,,0,79,0
117945,note_on,,,,,45,0,1,,,,,,0,72,0
117960,note_on,,,,,15,0,1,,,,,,0,79,126
117960,note_on,,,,,0,0,1,,,,,,0,75,126
117960,note_on,,,,,0,0,1,,,,,,0,85,126
117960,note_on,,,,,0,0,1,,,,,,0,73,126
117960,note_on,,,,,0,0,2,,,,,,0,43,127
117960,note_on,,,,,30,0,2,,,,,,0,31,0
117960,control_change,,,,,0,0,1,,,,64,95,0,,
117970,set_tempo,,,,,40,1,0,,461538,,,,,,
117980,set_tempo,,,,,10,1,0,,465116,,,,,,
118010,set_tempo,,,,,30,1,0,,468750,,,,,,
118020,note_on,,,,,60,0,2,,,,,,0,43,0
118020,note_on,,,,,60,0,1,,,,,,0,73,0
118020,note_on,,,,,0,0,1,,,,,,0,79,0
118020,note_on,,,,,0,0,1,,,,,,0,75,0
118020,note_on,,,,,0,0,1,,,,,,0,85,0
118020,note_on,,,,,0,0,1,,,,,,0,79,91
118020,note_on,,,,,0,0,1,,,,,,0,75,91
118020,note_on,,,,,0,0,1,,,,,,0,72,91
118020,note_on,,,,,0,0,1,,,,,,0,84,91
118020,control_change,,,,,0,0,1,,,,64,0,0,,
118050,note_on,,,,,30,0,1,,,,,,0,84,0
118050,note_on,,,,,0,0,1,,,,,,0,79,0
118050,note_on,,,,,0,0,1,,,,,,0,75,0
118050,note_on,,,,,0,0,1,,,,,,0,72,0
118080,note_on,,,,,60,0,2,,,,,,0,30,116
118080,note_on,,,,,0,0,2,,,,,,0,42,116
118080,control_change,,,,,30,0,1,,,,64,95,0,,
118100,set_tempo,,,,,90,1,0,,472440,,,,,,
118120,set_tempo,,,,,20,1,0,,476190,,,,,,
118125,note_on,,,,,45,0,2,,,,,,0,42,0
118125,note_on,,,,,0,0,2,,,,,,0,30,0
118140,note_on,,,,,60,0,1,,,,,,0,62,98
118140,note_on,,,,,0,0,1,,,,,,0,54,98
118140,note_on,,,,,0,0,1,,,,,,0,69,98
118140,note_on,,,,,0,0,1,,,,,,0,74,98
118140,note_on,,,,,0,0,1,,,,,,0,72,98
118140,note_on,,,,,0,0,1,,,,,,0,60,98
118180,set_tempo,,,,,60,1,0,,480000,,,,,,
118185,note_on,,,,,0,0,1,,,,,,0,54,0
118185,note_on,,,,,0,0,1,,,,,,0,60,0
118185,note_on,,,,,0,0,1,,,,,,0,62,0
118185,note_on,,,,,0,0,1,,,,,,0,74,0
118185,note_on,,,,,0,0,1,,,,,,0,69,0
118185,note_on,,,,,45,0,1,,,,,,0,72,0
118200,note_on,,,,,15,0,1,,,,,,0,62,105
118200,note_on,,,,,0,0,1,,,,,,0,54,105
118200,note_on,,,,,0,0,1,,,,,,0,74,105
118200,note_on,,,,,0,0,1,,,,,,0,69,105
118200,note_on,,,,,0,0,1,,,,,,0,72,105
118200,note_on,,,,,0,0,1,,,,,,0,60,105
118220,set_tempo,,,,,40,1,0,,483870,,,,,,
118245,note_on,,,,,0,0,1,,,,,,0,62,0
118245,note_on,,,,,45,0,1,,,,,,0,72,0
118245,note_on,,,,,0,0,1,,,,,,0,60,0
118245,note_on,,,,,0,0,1,,,,,,0,54,0
118245,note_on,,,,,0,0,1,,,,,,0,69,0
118245,note_on,,,,,0,0,1,,,,,,0,74,0
118260,note_on,,,,,0,0,1,,,,,,0,72,111
118260,note_on,,,,,0,0,1,,,,,,0,60,111
118260,note_on,,,,,0,0,1,,,,,,0,54,111
118260,note_on,,,,,0,0,1,,,,,,0,74,111
118260,note_on,,,,,15,0,1,,,,,,0,62,111
118260,note_on,,,,,0,0,1,,,,,,0,69,111
118290,control_change,,,,,30,0,1,,,,64,0,0,,
118305,note_on,,,,,0,0,1,,,,,,0,60,0
118305,note_on,,,,,0,0,1,,,,,,0,54,0
118305,note_on,,,,,0,0,1,,,,,,0,62,0
118305,note_on,,,,,0,0,1,,,,,,0,74,0
118305,note_on,,,,,0,0,1,,,,,,0,69,0
118305,note_on,,,,,15,0,1,,,,,,0,72,0
118310,set_tempo,,,,,90,1,0,,487804,,,,,,
118320,note_on,,,,,0,0,2,,,,,,0,60,110
118320,note_on,,,,,0,0,2,,,,,,0,54,110
118320,note_on,,,,,195,0,2,,,,,,0,63,110
118320,control_change,,,,,0,0,1,,,,64,96,0,,
118320,note_on,,,,,0,0,1,,,,,,0,72,118
118320,note_on,,,,,0,0,1,,,,,,0,69,118
118320,note_on,,,,,15,0,1,,,,,,0,75,118
118340,set_tempo,,,,,30,1,0,,491803,,,,,,
118370,set_tempo,,,,,30,1,0,,495867,,,,,,
118380,control_change,,,,,0,0,1,,,,64,0,0,,
118380,note_on,,,,,0,0,1,,,,,,0,72,87
118380,note_on,,,,,0,0,1,,,,,,0,75,0
118380,note_on,,,,,0,0,1,,,,,,0,69,0
118380,note_on,,,,,60,0,1,,,,,,0,72,0
118390,set_tempo,,,,,20,1,0,,495867,,,,,,
118410,note_on,,,,,90,0,2,,,,,,0,54,0
118410,note_on,,,,,0,0,2,,,,,,0,60,0
118410,note_on,,,,,0,0,2,,,,,,0,63,0
118410,note_on,,,,,30,0,1,,,,,,0,72,0
118410,set_tempo,,,,,20,1,0,,500000,,,,,,
118420,set_tempo,,,,,10,1,0,,504201,,,,,,
118440,note_on,,,,,30,0,2,,,,,,0,30,117
118440,control_change,,,,,30,0,1,,,,64,96,0,,
118440,set_tempo,,,,,20,1,0,,508474,,,,,,
118460,set_tempo,,,,,20,1,0,,512820,,,,,,
118470,set_tempo,,,,,10,1,0,,517241,,,,,,
118485,note_on,,,,,45,0,2,,,,,,0,30,0
118500,set_tempo,,,,,30,1,0,,521739,,,,,,
118500,note_on,,,,,0,0,1,,,,,,0,62,70
118500,note_on,,,,,60,0,1,,,,,,0,60,70
118500,note_on,,,,,0,0,2,,,,,,0,48,78
118500,note_on,,,,,15,0,2,,,,,,0,42,78
118500,note_on,,,,,0,0,2,,,,,,0,50,78
118500,note_on,,,,,0,0,1,,,,,,0,57,70
118520,set_tempo,,,,,20,1,0,,526315,,,,,,
118540,set_tempo,,,,,20,1,0,,530973,,,,,,
118545,note_on,,,,,45,0,2,,,,,,0,50,0
118545,note_on,,,,,45,0,1,,,,,,0,62,0
118545,note_on,,,,,0,0,1,,,,,,0,57,0
118545,note_on,,,,,0,0,1,,,,,,0,60,0
118545,note_on,,,,,0,0,2,,,,,,0,42,0
118545,note_on,,,,,0,0,2,,,,,,0,48,0
118560,note_on,,,,,0,0,2,,,,,,0,50,68
118560,note_on,,,,,0,0,2,,,,,,0,48,68
118560,note_on,,,,,15,0,2,,,,,,0,42,68
118560,set_tempo,,,,,20,1,0,,535714,,,,,,
118560,note_on,,,,,0,0,1,,,,,,0,62,59
118560,note_on,,,,,0,0,1,,,,,,0,60,59
118560,note_on,,,,,15,0,1,,,,,,0,57,59
118580,set_tempo,,,,,20,1,0,,540540,,,,,,
118600,set_tempo,,,,,20,1,0,,545454,,,,,,
118605,note_on,,,,,45,0,2,,,,,,0,50,0
118605,note_on,,,,,0,0,2,,,,,,0,42,0
118605,note_on,,,,,0,0,2,,,,,,0,48,0
118605,note_on,,,,,45,0,1,,,,,,0,62,0
118605,note_on,,,,,0,0,1,,,,,,0,57,0
118605,note_on,,,,,0,0,1,,,,,,0,60,0
118620,note_on,,,,,0,0,1,,,,,,0,60,50
118620,note_on,,,,,15,0,1,,,,,,0,57,50
118620,note_on,,,,,0,0,1,,,,,,0,62,50
118620,set_tempo,,,,,20,1,0,,550458,,,,,,
118620,note_on,,,,,0,0,2,,,,,,0,50,57
118620,note_on,,,,,0,0,2,,,,,,0,48,57
118620,note_on,,,,,15,0,2,,,,,,0,42,57
118630,set_tempo,,,,,10,1,0,,555555,,,,,,
118660,control_change,,,,,40,0,1,,,,64,0,0,,
118660,set_tempo,,,,,30,1,0,,560747,,,,,,
118665,note_on,,,,,0,0,2,,,,,,0,48,0
118665,note_on,,,,,0,0,2,,,,,,0,42,0
118665,note_on,,,,,0,0,1,,,,,,0,57,0
118665,note_on,,,,,0,0,1,,,,,,0,60,0
118665,note_on,,,,,5,0,1,,,,,,0,62,0
118665,note_on,,,,,45,0,2,,,,,,0,50,0
118680,note_on,,,,,0,0,1,,,,,,0,57,58
118680,note_on,,,,,15,0,2,,,,,,0,51,63
118680,note_on,,,,,0,0,1,,,,,,0,60,58
118680,note_on,,,,,0,0,2,,,,,,0,48,63
118680,note_on,,,,,15,0,1,,,,,,0,63,58
118680,note_on,,,,,0,0,2,,,,,,0,42,63
118680,control_change,,,,,0,0,1,,,,64,94,0,,
118690,set_tempo,,,,,30,1,0,,566037,,,,,,
118700,set_tempo,,,,,10,1,0,,571428,,,,,,
118740,note_on,,,,,0,0,1,,,,,,0,63,0
118740,control_change,,,,,0,0,1,,,,64,0,0,,
118740,note_on,,,,,60,0,1,,,,,,0,57,0
118740,note_on,,,,,0,0,1,,,,,,0,60,0
118740,note_on,,,,,0,0,1,,,,,,0,69,46
118770,note_on,,,,,0,0,2,,,,,,0,51,0
118770,set_tempo,,,,,70,1,0,,800000,,,,,,
118770,note_on,,,,,0,0,2,,,,,,0,48,0
118770,note_on,,,,,90,0,2,,,,,,0,42,0
118770,note_on,,,,,30,0,1,,,,,,0,69,0
118800,set_tempo,,,,,30,1,0,,731707,,,,,,
118800,control_change,,,,,0,0,1,,,,64,96,0,,
118800,note_on,,,,,0,0,1,,,,,,0,52,53
118800,note_on,,,,,30,0,1,,,,,,0,60,53
118860,note_on,,,,,90,0,2,,,,,,0,43,44
118860,set_tempo,,,,,60,1,0,,625000,,,,,,
118905,note_on,,,,,45,0,2,,,,,,0,43,0
118910,set_tempo,,,,,50,1,0,,566037,,,,,,
118920,note_on,,,,,15,0,2,,,,,,0,43,49
118965,note_on,,,,,45,0,2,,,,,,0,43,0
118980,note_on,,,,,15,0,2,,,,,,0,43,52
119025,note_on,,,,,45,0,2,,,,,,0,43,0
119035,control_change,,,,,235,0,1,,,,64,0,0,,
119040,note_on,,,,,5,0,1,,,,,,0,52,0
119040,note_on,,,,,0,0,1,,,,,,0,60,0
119040,note_on,,,,,0,0,1,,,,,,0,59,56
119040,note_on,,,,,0,0,1,,,,,,0,53,40
119040,control_change,,,,,0,0,1,,,,64,95,0,,
119040,set_tempo,,,,,130,1,0,,645161,,,,,,
119040,note_on,,,,,15,0,2,,,,,,0,43,57
119070,note_on,,,,,0,0,1,,,,,,0,55,49
119070,note_on,,,,,30,0,1,,,,,,0,53,0
119085,note_on,,,,,45,0,2,,,,,,0,43,0
119100,note_on,,,,,0,0,1,,,,,,0,57,54
119100,note_on,,,,,15,0,2,,,,,,0,31,36
119100,note_on,,,,,30,0,1,,,,,,0,55,0
119130,note_on,,,,,30,0,2,,,,,,0,31,0
119130,note_on,,,,,30,0,1,,,,,,0,57,0
119130,note_on,,,,,0,0,1,,,,,,0,53,50
119145,note_on,,,,,15,0,1,,,,,,0,59,0
119155,control_change,,,,,10,0,1,,,,64,0,0,,
119160,note_on,,,,,0,0,1,,,,,,0,60,50
119160,note_on,,,,,30,0,2,,,,,,0,36,43
119160,control_change,,,,,0,0,1,,,,64,95,0,,
119160,note_on,,,,,0,0,1,,,,,,0,52,40
119160,note_on,,,,,5,0,1,,,,,,0,53,0
119170,set_tempo,,,,,130,1,0,,740740,,,,,,
119208,note_on,,,,,48,0,2,,,,,,0,36,0
119220,note_on,,,,,12,0,2,,,,,,0,47,39
119220,set_tempo,,,,,50,1,0,,588235,,,,,,
119220,control_change,,,,,60,0,1,,,,64,0,0,,
119260,set_tempo,,,,,40,1,0,,576923,,,,,,
119280,note_on,,,,,60,0,1,,,,,,0,60,0
119280,set_tempo,,,,,20,1,0,,571428,,,,,,
119280,note_on,,,,,60,0,2,,,,,,0,47,0
119280,note_on,,,,,0,0,2,,,,,,0,48,36
119280,note_on,,,,,0,0,1,,,,,,0,52,0
119310,set_tempo,,,,,30,1,0,,566037,,,,,,
119320,set_tempo,,,,,10,1,0,,560747,,,,,,
119328,note_on,,,,,48,0,2,,,,,,0,48,0
119330,set_tempo,,,,,10,1,0,,555555,,,,,,
119340,note_on,,,,,0,0,1,,,,,,0,67,33
119340,note_on,,,,,60,0,1,,,,,,0,79,33
119340,control_change,,,,,0,0,1,,,,64,96,0,,
119340,note_on,,,,,0,0,2,,,,,,0,48,36
119340,note_on,,,,,12,0,2,,,,,,0,43,36
119388,note_on,,,,,0,0,2,,,,,,0,43,0
119388,note_on,,,,,48,0,2,,,,,,0,48,0
119388,note_on,,,,,48,0,1,,,,,,0,67,0
119388,note_on,,,,,0,0,1,,,,,,0,79,0
119400,note_on,,,,,0,0,2,,,,,,0,48,38
119400,note_on,,,,,12,0,2,,,,,,0,41,38
119400,note_on,,,,,12,0,1,,,,,,0,67,37
119400,note_on,,,,,0,0,1,,,,,,0,79,37
119448,note_on,,,,,0,0,2,,,,,,0,41,0
119448,note_on,,,,,0,0,1,,,,,,0,67,0
119448,note_on,,,,,48,0,1,,,,,,0,79,0
119448,note_on,,,,,48,0,2,,,,,,0,48,0
119460,note_on,,,,,0,0,1,,,,,,0,67,42
119460,note_on,,,,,12,0,2,,,,,,0,40,42
119460,note_on,,,,,0,0,2,,,,,,0,48,42
119460,note_on,,,,,12,0,1,,,,,,0,79,42
119508,note_on,,,,,0,0,2,,,,,,0,40,0
119508,note_on,,,,,48,0,2,,,,,,0,48,0
119508,note_on,,,,,48,0,1,,,,,,0,67,0
119508,note_on,,,,,0,0,1,,,,,,0,79,0
119510,control_change,,,,,2,0,1,,,,64,0,0,,
119520,note_on,,,,,0,0,2,,,,,,0,48,44
119520,note_on,,,,,12,0,2,,,,,,0,41,44
119520,set_tempo,,,,,190,1,0,,550458,,,,,,
119520,note_on,,,,,10,0,1,,,,,,0,80,44
119520,note_on,,,,,0,0,1,,,,,,0,68,44
119520,control_change,,,,,0,0,1,,,,64,96,0,,
119560,set_tempo,,,,,40,1,0,,545454,,,,,,
119580,note_on,,,,,60,0,2,,,,,,0,48,0
119580,note_on,,,,,0,0,2,,,,,,0,41,0
119580,note_on,,,,,0,0,2,,,,,,0,40,44
119580,note_on,,,,,0,0,2,,,,,,0,48,44
119620,set_tempo,,,,,60,1,0,,540540,,,,,,
119640,note_on,,,,,0,0,2,,,,,,0,40,0
119640,note_on,,,,,0,0,1,,,,,,0,84,46
119640,note_on,,,,,0,0,1,,,,,,0,72,46
119640,note_on,,,,,0,0,1,,,,,,0,80,0
119640,set_tempo,,,,,20,1,0,,535714,,,,,,
119640,control_change,,,,,0,0,1,,,,64,0,0,,
119640,note_on,,,,,0,0,2,,,,,,0,41,48
119640,note_on,,,,,0,0,2,,,,,,0,48,48
119640,note_on,,,,,60,0,2,,,,,,0,48,0
119640,note_on,,,,,120,0,1,,,,,,0,68,0
119680,set_tempo,,,,,40,1,0,,530973,,,,,,
119700,note_on,,,,,0,0,2,,,,,,0,43,45
119700,note_on,,,,,0,0,2,,,,,,0,41,0
119700,note_on,,,,,0,0,2,,,,,,0,48,45
119700,note_on,,,,,60,0,2,,,,,,0,48,0
119720,set_tempo,,,,,40,1,0,,526315,,,,,,
119760,note_on,,,,,0,0,2,,,,,,0,48,42
119760,note_on,,,,,60,0,2,,,,,,0,48,0
119760,note_on,,,,,0,0,2,,,,,,0,43,0
119760,note_on,,,,,0,0,2,,,,,,0,44,42
119770,set_tempo,,,,,50,1,0,,521739,,,,,,
119800,set_tempo,,,,,30,1,0,,517241,,,,,,
119820,note_on,,,,,0,0,2,,,,,,0,47,40
119820,note_on,,,,,0,0,2,,,,,,0,48,40
119820,note_on,,,,,0,0,2,,,,,,0,44,0
119820,note_on,,,,,60,0,2,,,,,,0,48,0
119820,note_on,,,,,180,0,1,,,,,,0,84,0
119820,note_on,,,,,0,0,1,,,,,,0,72,0
119830,set_tempo,,,,,30,1,0,,512820,,,,,,
119850,note_on,,,,,30,0,1,,,,,,0,68,36
119850,note_on,,,,,0,0,1,,,,,,0,80,36
119880,note_on,,,,,30,0,1,,,,,,0,80,0
119880,note_on,,,,,0,0,2,,,,,,0,47,0
119880,note_on,,,,,0,0,2,,,,,,0,48,46
119880,note_on,,,,,0,0,1,,,,,,0,68,0
119880,note_on,,,,,0,0,1,,,,,,0,68,44
119880,note_on,,,,,0,0,1,,,,,,0,80,44
119880,control_change,,,,,0,0,1,,,,64,95,0,,
119880,note_on,,,,,60,0,2,,,,,,0,48,0
119940,note_on,,,,,0,0,2,,,,,,0,50,43
119940,note_on,,,,,60,0,2,,,,,,0,48,0
119940,note_on,,,,,0,0,2,,,,,,0,48,43
120000,note_on,,,,,0,0,2,,,,,,0,48,0
120000,note_on,,,,,0,0,1,,,,,,0,67,33
120000,note_on,,,,,0,0,1,,,,,,0,79,33
120000,note_on,,,,,0,0,1,,,,,,0,68,0
120000,note_on,,,,,120,0,1,,,,,,0,80,0
120000,note_on,,,,,60,0,2,,,,,,0,50,0
120000,note_on,,,,,0,0,2,,,,,,0,52,40
120000,note_on,,,,,0,0,2,,,,,,0,48,40
120005,control_change,,,,,5,0,1,,,,64,0,0,,
120060,note_on,,,,,60,0,2,,,,,,0,52,0
120060,note_on,,,,,0,0,2,,,,,,0,48,0
120060,note_on,,,,,0,0,2,,,,,,0,48,38
120060,note_on,,,,,0,0,2,,,,,,0,53,38
120120,note_on,,,,,0,0,2,,,,,,0,48,0
120120,note_on,,,,,60,0,2,,,,,,0,53,0
120120,note_on,,,,,0,0,2,,,,,,0,52,49
120120,note_on,,,,,0,0,2,,,,,,0,48,49
120130,set_tempo,,,,,300,1,0,,517241,,,,,,
120150,note_on,,,,,0,0,1,,,,,,0,79,0
120150,note_on,,,,,145,0,1,,,,,,0,67,0
120172,note_on,,,,,0,0,2,,,,,,0,48,0
120172,note_on,,,,,52,0,2,,,,,,0,52,0
120180,note_on,,,,,30,0,1,,,,,,0,66,39
120180,note_on,,,,,8,0,2,,,,,,0,48,54
120180,note_on,,,,,0,0,1,,,,,,0,78,39
120180,note_on,,,,,0,0,2,,,,,,0,56,54
120190,set_tempo,,,,,60,1,0,,521739,,,,,,
120240,note_on,,,,,60,0,2,,,,,,0,56,0
120240,note_on,,,,,0,0,1,,,,,,0,67,41
120240,control_change,,,,,0,0,1,,,,64,95,0,,
120240,note_on,,,,,0,0,2,,,,,,0,55,54
120240,note_on,,,,,0,0,2,,,,,,0,47,54
120240,note_on,,,,,0,0,2,,,,,,0,48,0
120240,note_on,,,,,0,0,1,,,,,,0,66,0
120240,note_on,,,,,0,0,1,,,,,,0,79,41
120240,note_on,,,,,60,0,1,,,,,,0,78,0
120300,set_tempo,,,,,110,1,0,,530973,,,,,,
120300,note_on,,,,,60,0,2,,,,,,0,47,0
120300,note_on,,,,,0,0,2,,,,,,0,49,42
120360,control_change,,,,,0,0,1,,,,64,0,0,,
120360,note_on,,,,,0,0,1,,,,,,0,77,35
120360,note_on,,,,,0,0,1,,,,,,0,65,35
120360,note_on,,,,,0,0,1,,,,,,0,67,0
120360,note_on,,,,,120,0,1,,,,,,0,79,0
120360,note_on,,,,,0,0,2,,,,,,0,50,44
120360,note_on,,,,,60,0,2,,,,,,0,49,0
120420,note_on,,,,,0,0,1,,,,,,0,76,35
120420,note_on,,,,,0,0,1,,,,,,0,64,35
120420,note_on,,,,,0,0,1,,,,,,0,65,0
120420,note_on,,,,,60,0,1,,,,,,0,77,0
120420,set_tempo,,,,,120,1,0,,540540,,,,,,
120420,note_on,,,,,60,0,2,,,,,,0,50,0
120420,note_on,,,,,0,0,2,,,,,,0,42,48
120480,note_on,,,,,60,0,1,,,,,,0,76,0
120480,note_on,,,,,60,0,2,,,,,,0,42,0
120480,note_on,,,,,0,0,2,,,,,,0,55,0
120480,note_on,,,,,0,0,1,,,,,,0,65,36
120480,note_on,,,,,0,0,1,,,,,,0,71,36
120480,note_on,,,,,0,0,1,,,,,,0,77,36
120480,control_change,,,,,0,0,1,,,,64,96,0,,
120480,note_on,,,,,0,0,2,,,,,,0,43,50
120480,note_on,,,,,0,0,2,,,,,,0,55,50
120480,note_on,,,,,0,0,1,,,,,,0,64,0
120500,set_tempo,,,,,80,1,0,,550458,,,,,,
120585,control_change,,,,,105,0,1,,,,64,0,0,,
120600,note_on,,,,,120,0,2,,,,,,0,43,0
120600,control_change,,,,,0,0,1,,,,64,95,0,,
120600,note_on,,,,,0,0,1,,,,,,0,72,40
120600,note_on,,,,,0,0,1,,,,,,0,64,40
120600,note_on,,,,,0,0,1,,,,,,0,65,0
120600,note_on,,,,,0,0,1,,,,,,0,71,0
120600,note_on,,,,,0,0,2,,,,,,0,48,34
120600,note_on,,,,,0,0,1,,,,,,0,76,40
120600,note_on,,,,,15,0,1,,,,,,0,77,0
120620,set_tempo,,,,,120,1,0,,560747,,,,,,
120650,note_on,,,,,50,0,2,,,,,,0,48,0
120660,note_on,,,,,10,0,2,,,,,,0,55,0
120660,control_change,,,,,60,0,1,,,,64,0,0,,
120660,note_on,,,,,0,0,2,,,,,,0,47,39
120720,note_on,,,,,0,0,2,,,,,,0,48,36
120720,note_on,,,,,60,0,2,,,,,,0,47,0
120750,note_on,,,,,0,0,1,,,,,,0,64,0
120750,note_on,,,,,90,0,1,,,,,,0,76,0
120750,note_on,,,,,0,0,1,,,,,,0,72,0
120760,set_tempo,,,,,140,1,0,,571428,,,,,,
120768,note_on,,,,,48,0,2,,,,,,0,48,0
120780,set_tempo,,,,,20,1,0,,555555,,,,,,
120780,note_on,,,,,0,0,1,,,,,,0,55,33
120780,control_change,,,,,0,0,1,,,,64,95,0,,
120780,note_on,,,,,12,0,2,,,,,,0,43,30
120780,note_on,,,,,30,0,1,,,,,,0,67,33
120780,note_on,,,,,0,0,2,,,,,,0,48,30
120828,note_on,,,,,48,0,2,,,,,,0,48,0
120828,note_on,,,,,0,0,2,,,,,,0,43,0
120828,note_on,,,,,0,0,1,,,,,,0,67,0
120828,note_on,,,,,48,0,1,,,,,,0,55,0
120840,note_on,,,,,12,0,1,,,,,,0,55,37
120840,note_on,,,,,0,0,1,,,,,,0,67,37
120840,note_on,,,,,12,0,2,,,,,,0,41,30
120840,note_on,,,,,0,0,2,,,,,,0,48,30
120888,note_on,,,,,48,0,1,,,,,,0,67,0
120888,note_on,,,,,0,0,1,,,,,,0,55,0
120888,note_on,,,,,48,0,2,,,,,,0,48,0
120888,note_on,,,,,0,0,2,,,,,,0,41,0
120900,note_on,,,,,12,0,1,,,,,,0,67,42
120900,note_on,,,,,0,0,1,,,,,,0,55,42
120900,note_on,,,,,12,0,2,,,,,,0,40,32
120900,note_on,,,,,0,0,2,,,,,,0,48,32
120948,note_on,,,,,0,0,1,,,,,,0,67,0
120948,note_on,,,,,0,0,2,,,,,,0,40,0
120948,note_on,,,,,48,0,1,,,,,,0,55,0
120948,note_on,,,,,48,0,2,,,,,,0,48,0
120955,control_change,,,,,7,0,1,,,,64,0,0,,
120960,control_change,,,,,0,0,1,,,,64,96,0,,
120960,note_on,,,,,12,0,2,,,,,,0,41,39
120960,set_tempo,,,,,180,1,0,,550458,,,,,,
120960,note_on,,,,,0,0,1,,,,,,0,56,44
120960,note_on,,,,,5,0,1,,,,,,0,68,44
120960,note_on,,,,,0,0,2,,,,,,0,48,39
121000,set_tempo,,,,,40,1,0,,545454,,,,,,
121020,note_on,,,,,60,0,2,,,,,,0,48,0
121020,note_on,,,,,0,0,2,,,,,,0,41,0
121020,note_on,,,,,0,0,2,,,,,,0,48,33
121020,note_on,,,,,0,0,2,,,,,,0,43,33
121060,set_tempo,,,,,60,1,0,,540540,,,,,,
121080,note_on,,,,,0,0,1,,,,,,0,72,43
121080,note_on,,,,,0,0,1,,,,,,0,60,43
121080,set_tempo,,,,,20,1,0,,535714,,,,,,
121080,note_on,,,,,0,0,2,,,,,,0,48,43
121080,note_on,,,,,0,0,2,,,,,,0,44,43
121080,note_on,,,,,0,0,2,,,,,,0,43,0
121080,note_on,,,,,0,0,1,,,,,,0,68,0
121080,note_on,,,,,60,0,2,,,,,,0,48,0
121080,note_on,,,,,120,0,1,,,,,,0,56,0
121090,control_change,,,,,10,0,1,,,,64,0,0,,
121120,set_tempo,,,,,40,1,0,,530973,,,,,,
121140,note_on,,,,,0,0,2,,,,,,0,43,38
121140,note_on,,,,,50,0,1,,,,,,0,72,0
121140,note_on,,,,,60,0,2,,,,,,0,48,0
121140,note_on,,,,,0,0,2,,,,,,0,44,0
121140,note_on,,,,,0,0,1,,,,,,0,60,0
121140,note_on,,,,,0,0,1,,,,,,0,65,40
121140,note_on,,,,,0,0,1,,,,,,0,77,40
121140,note_on,,,,,0,0,2,,,,,,0,48,38
121160,set_tempo,,,,,40,1,0,,526315,,,,,,
121200,note_on,,,,,0,0,1,,,,,,0,65,0
121200,note_on,,,,,0,0,1,,,,,,0,60,32
121200,note_on,,,,,60,0,2,,,,,,0,48,0
121200,note_on,,,,,0,0,1,,,,,,0,72,32
121200,note_on,,,,,0,0,2,,,,,,0,48,37
121200,note_on,,,,,0,0,2,,,,,,0,43,0
121200,note_on,,,,,60,0,1,,,,,,0,77,0
121200,note_on,,,,,0,0,2,,,,,,0,44,37
121210,set_tempo,,,,,50,1,0,,521739,,,,,,
121240,set_tempo,,,,,30,1,0,,517241,,,,,,
121260,note_on,,,,,0,0,1,,,,,,0,68,37
121260,note_on,,,,,0,0,1,,,,,,0,60,0
121260,note_on,,,,,0,0,1,,,,,,0,56,37
121260,note_on,,,,,60,0,2,,,,,,0,48,0
121260,note_on,,,,,0,0,2,,,,,,0,44,0
121260,note_on,,,,,0,0,2,,,,,,0,47,33
121260,note_on,,,,,0,0,2,,,,,,0,48,33
121260,note_on,,,,,60,0,1,,,,,,0,72,0
121270,set_tempo,,,,,30,1,0,,512820,,,,,,
121320,note_on,,,,,0,0,1,,,,,,0,56,0
121320,note_on,,,,,0,0,1,,,,,,0,56,42
121320,note_on,,,,,0,0,1,,,,,,0,68,42
121320,control_change,,,,,0,0,1,,,,64,95,0,,
121320,note_on,,,,,60,0,1,,,,,,0,68,0
121320,note_on,,,,,60,0,2,,,,,,0,48,0
121320,note_on,,,,,0,0,2,,,,,,0,47,0
121320,note_on,,,,,0,0,2,,,,,,0,48,39
121380,note_on,,,,,60,0,2,,,,,,0,48,0
121380,note_on,,,,,0,0,2,,,,,,0,36,44
121440,note_on,,,,,0,0,1,,,,,,0,56,0
121440,note_on,,,,,60,0,2,,,,,,0,36,0
121440,note_on,,,,,0,0,2,,,,,,0,36,46
121440,note_on,,,,,120,0,1,,,,,,0,68,0
121440,note_on,,,,,0,0,2,,,,,,0,40,46
121440,control_change,,,,,0,0,1,,,,64,0,0,,
121440,note_on,,,,,0,0,1,,,,,,0,67,33
121440,note_on,,,,,0,0,1,,,,,,0,55,33
121500,note_on,,,,,60,0,2,,,,,,0,40,0
121500,note_on,,,,,0,0,2,,,,,,0,36,50
121500,note_on,,,,,0,0,2,,,,,,0,36,0
121500,note_on,,,,,0,0,2,,,,,,0,41,50
121560,note_on,,,,,60,0,2,,,,,,0,41,0
121560,note_on,,,,,0,0,2,,,,,,0,36,51
121560,note_on,,,,,0,0,2,,,,,,0,36,0
121560,note_on,,,,,0,0,2,,,,,,0,40,51
121570,set_tempo,,,,,300,1,0,,517241,,,,,,
121590,set_tempo,,,,,20,1,0,,512820,,,,,,
121590,note_on,,,,,150,0,1,,,,,,0,55,0
121590,note_on,,,,,0,0,1,,,,,,0,67,0
121612,note_on,,,,,52,0,2,,,,,,0,40,0
121612,note_on,,,,,0,0,2,,,,,,0,36,0
121620,note_on,,,,,0,0,2,,,,,,0,44,54
121620,note_on,,,,,8,0,2,,,,,,0,36,54
121620,note_on,,,,,30,0,1,,,,,,0,54,39
121620,note_on,,,,,0,0,1,,,,,,0,66,39
121640,set_tempo,,,,,50,1,0,,517241,,,,,,
121680,note_on,,,,,0,0,1,,,,,,0,54,0
121680,control_change,,,,,0,0,1,,,,64,94,0,,
121680,note_on,,,,,0,0,1,,,,,,0,67,41
121680,note_on,,,,,0,0,1,,,,,,0,55,41
121680,note_on,,,,,60,0,1,,,,,,0,66,0
121680,note_on,,,,,0,0,2,,,,,,0,36,0
121680,note_on,,,,,0,0,2,,,,,,0,43,52
121680,note_on,,,,,0,0,2,,,,,,0,35,52
121680,note_on,,,,,60,0,2,,,,,,0,44,0
121720,set_tempo,,,,,80,1,0,,521739,,,,,,
121740,note_on,,,,,60,0,2,,,,,,0,35,0
121740,note_on,,,,,0,0,2,,,,,,0,37,61
121795,control_change,,,,,115,0,1,,,,64,0,0,,
121800,note_on,,,,,5,0,1,,,,,,0,67,0
121800,note_on,,,,,0,0,1,,,,,,0,55,0
121800,note_on,,,,,0,0,1,,,,,,0,53,35
121800,note_on,,,,,0,0,1,,,,,,0,65,35
121800,note_on,,,,,0,0,2,,,,,,0,38,50
121800,note_on,,,,,60,0,2,,,,,,0,37,0
121860,note_on,,,,,0,0,2,,,,,,0,30,67
121860,note_on,,,,,0,0,1,,,,,,0,52,35
121860,note_on,,,,,60,0,1,,,,,,0,65,0
121860,note_on,,,,,60,0,2,,,,,,0,38,0
121860,note_on,,,,,0,0,1,,,,,,0,64,35
121860,note_on,,,,,0,0,1,,,,,,0,53,0
121880,set_tempo,,,,,160,1,0,,526315,,,,,,
121920,note_on,,,,,60,0,2,,,,,,0,30,0
121920,note_on,,,,,0,0,2,,,,,,0,43,55
121920,note_on,,,,,0,0,1,,,,,,0,65,36
121920,control_change,,,,,0,0,1,,,,64,95,0,,
121920,note_on,,,,,0,0,1,,,,,,0,59,36
121920,note_on,,,,,0,0,1,,,,,,0,53,36
121920,note_on,,,,,0,0,1,,,,,,0,52,0
121920,note_on,,,,,60,0,1,,,,,,0,64,0
121920,note_on,,,,,0,0,2,,,,,,0,31,55
121920,note_on,,,,,0,0,2,,,,,,0,43,0
121940,set_tempo,,,,,60,1,0,,530973,,,,,,
122035,control_change,,,,,115,0,1,,,,64,0,0,,
122040,note_on,,,,,120,0,2,,,,,,0,31,0
122040,note_on,,,,,0,0,2,,,,,,0,43,0
122040,note_on,,,,,0,0,2,,,,,,0,36,35
122040,note_on,,,,,0,0,1,,,,,,0,53,0
122040,note_on,,,,,0,0,1,,,,,,0,64,31
122040,control_change,,,,,0,0,1,,,,64,95,0,,
122040,note_on,,,,,0,0,1,,,,,,0,52,31
122040,note_on,,,,,0,0,1,,,,,,0,59,0
122040,note_on,,,,,5,0,1,,,,,,0,65,0
122040,note_on,,,,,0,0,1,,,,,,0,60,31
122090,note_on,,,,,50,0,2,,,,,,0,36,0
122100,note_on,,,,,10,0,2,,,,,,0,42,38
122155,control_change,,,,,115,0,1,,,,64,0,0,,
122160,note_on,,,,,0,0,2,,,,,,0,43,41
122160,note_on,,,,,60,0,2,,,,,,0,42,0
122190,note_on,,,,,0,0,1,,,,,,0,52,0
122190,note_on,,,,,35,0,1,,,,,,0,64,0
122190,note_on,,,,,0,0,1,,,,,,0,60,0
122220,note_on,,,,,30,0,1,,,,,,0,67,31
122220,note_on,,,,,60,0,2,,,,,,0,43,0
122220,note_on,,,,,0,0,2,,,,,,0,47,43
122240,set_tempo,,,,,300,1,0,,535714,,,,,,
122280,note_on,,,,,60,0,2,,,,,,0,47,0
122280,note_on,,,,,0,0,1,,,,,,0,65,32
122280,note_on,,,,,60,0,1,,,,,,0,67,0
122280,note_on,,,,,0,0,2,,,,,,0,48,44
122340,note_on,,,,,60,0,1,,,,,,0,65,0
122340,note_on,,,,,0,0,1,,,,,,0,64,35
122340,note_on,,,,,60,0,2,,,,,,0,48,0
122400,note_on,,,,,0,0,1,,,,,,0,67,36
122400,note_on,,,,,60,0,1,,,,,,0,64,0
122420,set_tempo,,,,,180,1,0,,540540,,,,,,
122460,note_on,,,,,120,0,2,,,,,,0,49,36
122520,note_on,,,,,0,0,2,,,,,,0,50,36
122520,note_on,,,,,60,0,2,,,,,,0,49,0
122520,note_on,,,,,120,0,1,,,,,,0,67,0
122520,note_on,,,,,0,0,1,,,,,,0,65,29
122580,note_on,,,,,0,0,1,,,,,,0,64,30
122580,note_on,,,,,60,0,1,,,,,,0,65,0
122580,note_on,,,,,0,0,2,,,,,,0,42,38
122580,note_on,,,,,60,0,2,,,,,,0,50,0
122640,note_on,,,,,0,0,2,,,,,,0,43,39
122640,control_change,,,,,0,0,1,,,,64,95,0,,
122640,note_on,,,,,0,0,1,,,,,,0,65,32
122640,note_on,,,,,60,0,1,,,,,,0,64,0
122640,note_on,,,,,0,0,2,,,,,,0,55,39
122640,note_on,,,,,60,0,2,,,,,,0,42,0
122660,set_tempo,,,,,240,1,0,,545454,,,,,,
122755,control_change,,,,,115,0,1,,,,64,0,0,,
122760,control_change,,,,,0,0,1,,,,64,95,0,,
122760,note_on,,,,,0,0,2,,,,,,0,48,36
122760,note_on,,,,,0,0,2,,,,,,0,55,36
122760,note_on,,,,,0,0,2,,,,,,0,43,0
122760,note_on,,,,,5,0,1,,,,,,0,65,0
122760,note_on,,,,,0,0,1,,,,,,0,60,34
122760,note_on,,,,,0,0,1,,,,,,0,64,34
122760,note_on,,,,,120,0,2,,,,,,0,55,0
122810,note_on,,,,,50,0,2,,,,,,0,48,0
122810,note_on,,,,,0,0,2,,,,,,0,55,0
122820,control_change,,,,,60,0,1,,,,64,0,0,,
122820,note_on,,,,,10,0,2,,,,,,0,42,39
122850,note_on,,,,,30,0,1,,,,,,0,64,0
122850,note_on,,,,,0,0,1,,,,,,0,60,0
122880,note_on,,,,,0,0,1,,,,,,0,81,37
122880,note_on,,,,,60,0,2,,,,,,0,42,0
122880,note_on,,,,,30,0,1,,,,,,0,69,37
122880,note_on,,,,,0,0,1,,,,,,0,72,37
122880,note_on,,,,,0,0,2,,,,,,0,43,41
123000,note_on,,,,,120,0,1,,,,,,0,81,0
123000,note_on,,,,,0,0,1,,,,,,0,72,0
123000,note_on,,,,,0,0,1,,,,,,0,69,0
123000,note_on,,,,,0,0,1,,,,,,0,71,41
123000,note_on,,,,,0,0,1,,,,,,0,77,41
123000,control_change,,,,,0,0,1,,,,64,94,0,,
123000,note_on,,,,,120,0,2,,,,,,0,43,0
123000,note_on,,,,,0,0,2,,,,,,0,43,43
123000,note_on,,,,,0,0,2,,,,,,0,55,43
123070,set_tempo,,,,,410,1,0,,550458,,,,,,
123115,control_change,,,,,115,0,1,,,,64,0,0,,
123120,note_on,,,,,0,0,2,,,,,,0,43,0
123120,note_on,,,,,0,0,2,,,,,,0,55,35
123120,note_on,,,,,120,0,2,,,,,,0,55,0
123120,note_on,,,,,0,0,2,,,,,,0,48,35
123120,control_change,,,,,0,0,1,,,,64,95,0,,
123120,note_on,,,,,5,0,1,,,,,,0,77,0
123120,note_on,,,,,0,0,1,,,,,,0,71,0
123120,note_on,,,,,0,0,1,,,,,,0,76,34
123120,note_on,,,,,0,0,1,,,,,,0,72,34
123170,note_on,,,,,50,0,2,,,,,,0,48,0
123170,note_on,,,,,0,0,2,,,,,,0,55,0
123180,note_on,,,,,10,0,2,,,,,,0,42,36
123180,control_change,,,,,60,0,1,,,,64,0,0,,
123210,note_on,,,,,30,0,1,,,,,,0,72,0
123210,note_on,,,,,0,0,1,,,,,,0,76,0
123230,set_tempo,,,,,160,1,0,,555555,,,,,,
123240,note_on,,,,,0,0,2,,,,,,0,43,41
123240,note_on,,,,,60,0,2,,,,,,0,42,0
123240,note_on,,,,,0,0,1,,,,,,0,69,34
123240,note_on,,,,,0,0,1,,,,,,0,60,34
123240,note_on,,,,,30,0,1,,,,,,0,57,34
123360,control_change,,,,,0,0,1,,,,64,95,0,,
123360,note_on,,,,,0,0,2,,,,,,0,55,45
123360,note_on,,,,,0,0,2,,,,,,0,43,45
123360,note_on,,,,,120,0,2,,,,,,0,43,0
123360,note_on,,,,,0,0,1,,,,,,0,65,37
123360,note_on,,,,,0,0,1,,,,,,0,59,37
123360,note_on,,,,,0,0,1,,,,,,0,57,0
123360,note_on,,,,,120,0,1,,,,,,0,69,0
123360,note_on,,,,,0,0,1,,,,,,0,60,0
123475,control_change,,,,,115,0,1,,,,64,0,0,,
123480,note_on,,,,,0,0,2,,,,,,0,55,39
123480,note_on,,,,,0,0,2,,,,,,0,43,0
123480,note_on,,,,,120,0,2,,,,,,0,55,0
123480,note_on,,,,,5,0,1,,,,,,0,65,0
123480,note_on,,,,,0,0,1,,,,,,0,59,0
123480,note_on,,,,,0,0,1,,,,,,0,60,28
123480,note_on,,,,,0,0,1,,,,,,0,64,28
123480,control_change,,,,,0,0,1,,,,64,96,0,,
123480,note_on,,,,,0,0,2,,,,,,0,48,39
123530,note_on,,,,,0,0,2,,,,,,0,55,0
123530,note_on,,,,,50,0,2,,,,,,0,48,0
123540,control_change,,,,,60,0,1,,,,64,0,0,,
123540,note_on,,,,,10,0,2,,,,,,0,42,39
123570,note_on,,,,,0,0,1,,,,,,0,60,0
123570,note_on,,,,,30,0,1,,,,,,0,64,0
123600,note_on,,,,,60,0,2,,,,,,0,42,0
123600,note_on,,,,,0,0,2,,,,,,0,55,34
123600,note_on,,,,,0,0,2,,,,,,0,43,34
123600,control_change,,,,,0,0,1,,,,64,95,0,,
123600,note_on,,,,,0,0,1,,,,,,0,77,32
123600,note_on,,,,,30,0,1,,,,,,0,71,32
123610,set_tempo,,,,,380,1,0,,571428,,,,,,
123640,set_tempo,,,,,30,1,0,,582524,,,,,,
123660,set_tempo,,,,,20,1,0,,588235,,,,,,
123680,set_tempo,,,,,20,1,0,,594059,,,,,,
123700,set_tempo,,,,,20,1,0,,600000,,,,,,
123720,note_on,,,,,0,0,2,,,,,,0,48,34
123720,control_change,,,,,0,0,1,,,,64,0,0,,
123720,note_on,,,,,120,0,2,,,,,,0,43,0
123720,note_on,,,,,0,0,1,,,,,,0,76,25
123720,note_on,,,,,0,0,1,,,,,,0,71,0
123720,note_on,,,,,120,0,1,,,,,,0,77,0
123720,note_on,,,,,0,0,2,,,,,,0,55,34
123720,note_on,,,,,0,0,2,,,,,,0,55,0
123720,note_on,,,,,0,0,1,,,,,,0,72,25
123770,set_tempo,,,,,70,1,0,,606060,,,,,,
123770,note_on,,,,,0,0,2,,,,,,0,48,0
123770,note_on,,,,,50,0,2,,,,,,0,55,0
123780,note_on,,,,,10,0,2,,,,,,0,42,39
123780,set_tempo,,,,,10,1,0,,612244,,,,,,
123810,set_tempo,,,,,30,1,0,,618556,,,,,,
123810,note_on,,,,,0,0,1,,,,,,0,76,0
123810,note_on,,,,,90,0,1,,,,,,0,72,0
123840,note_on,,,,,60,0,2,,,,,,0,42,0
123840,note_on,,,,,30,0,1,,,,,,0,59,33
123840,control_change,,,,,0,0,1,,,,64,95,0,,
123840,note_on,,,,,0,0,1,,,,,,0,65,33
123840,note_on,,,,,0,0,2,,,,,,0,43,44
123840,note_on,,,,,0,0,2,,,,,,0,55,44
123850,set_tempo,,,,,40,1,0,,625000,,,,,,
123890,set_tempo,,,,,40,1,0,,631578,,,,,,
123910,set_tempo,,,,,20,1,0,,638297,,,,,,
123920,set_tempo,,,,,10,1,0,,645161,,,,,,
123955,control_change,,,,,115,0,1,,,,64,0,0,,
123960,note_on,,,,,0,0,1,,,,,,0,59,0
123960,note_on,,,,,0,0,1,,,,,,0,64,26
123960,note_on,,,,,0,0,2,,,,,,0,55,36
123960,note_on,,,,,0,0,2,,,,,,0,48,36
123960,note_on,,,,,0,0,2,,,,,,0,55,0
123960,note_on,,,,,0,0,1,,,,,,0,60,26
123960,note_on,,,,,5,0,1,,,,,,0,65,0
123960,set_tempo,,,,,40,1,0,,652173,,,,,,
123960,note_on,,,,,120,0,2,,,,,,0,43,0
123970,set_tempo,,,,,10,1,0,,659340,,,,,,
124000,set_tempo,,,,,30,1,0,,666666,,,,,,
124010,note_on,,,,,0,0,2,,,,,,0,48,0
124010,note_on,,,,,50,0,2,,,,,,0,55,0
124020,note_on,,,,,10,0,2,,,,,,0,42,74
124040,set_tempo,,,,,40,1,0,,674157,,,,,,
124050,set_tempo,,,,,10,1,0,,681818,,,,,,
124050,note_on,,,,,0,0,1,,,,,,0,60,0
124050,note_on,,,,,90,0,1,,,,,,0,64,0
124070,set_tempo,,,,,20,1,0,,833333,,,,,,
124080,note_on,,,,,0,0,2,,,,,,0,55,93
124080,note_on,,,,,0,0,2,,,,,,0,50,93
124080,control_change,,,,,30,0,1,,,,64,95,0,,
124080,note_on,,,,,0,0,2,,,,,,0,59,93
124080,note_on,,,,,60,0,2,,,,,,0,42,0
124080,note_on,,,,,0,0,2,,,,,,0,53,93
124080,note_on,,,,,0,0,2,,,,,,0,43,93
124185,note_on,,,,,105,0,2,,,,,,0,50,0
124185,note_on,,,,,0,0,2,,,,,,0,53,0
124185,note_on,,,,,0,0,2,,,,,,0,59,0
124185,note_on,,,,,0,0,2,,,,,,0,43,0
124185,note_on,,,,,0,0,2,,,,,,0,55,0
124205,control_change,,,,,125,0,1,,,,64,0,0,,
124560,control_change,,,,,0,0,1,,,,64,96,0,,
124560,set_tempo,,,,,490,1,0,,588235,,,,,,
124560,note_on,,,,,355,0,1,,,,,,0,48,22
124570,set_tempo,,,,,10,1,0,,582524,,,,,,
124590,set_tempo,,,,,20,1,0,,566037,,,,,,
124590,note_on,,,,,0,0,1,,,,,,0,60,23
124590,note_on,,,,,30,0,1,,,,,,0,48,0
124600,set_tempo,,,,,10,1,0,,555555,,,,,,
124620,note_on,,,,,0,0,1,,,,,,0,55,24
124620,note_on,,,,,30,0,1,,,,,,0,60,0
124620,set_tempo,,,,,20,1,0,,550458,,,,,,
124630,set_tempo,,,,,10,1,0,,540540,,,,,,
124650,note_on,,,,,0,0,1,,,,,,0,51,25
124650,note_on,,,,,30,0,1,,,,,,0,55,0
124675,control_change,,,,,25,0,1,,,,64,0,0,,
124680,note_on,,,,,5,0,1,,,,,,0,51,0
124680,note_on,,,,,0,0,1,,,,,,0,48,26
124680,control_change,,,,,0,0,1,,,,64,96,0,,
124690,set_tempo,,,,,60,1,0,,512820,,,,,,
124700,set_tempo,,,,,10,1,0,,504201,,,,,,
124710,note_on,,,,,30,0,1,,,,,,0,48,0
124710,note_on,,,,,0,0,1,,,,,,0,60,27
124730,set_tempo,,,,,30,1,0,,500000,,,,,,
124740,set_tempo,,,,,10,1,0,,483870,,,,,,
124740,note_on,,,,,30,0,1,,,,,,0,60,0
124740,note_on,,,,,0,0,1,,,,,,0,55,28
124770,note_on,,,,,0,0,1,,,,,,0,51,29
124770,note_on,,,,,30,0,1,,,,,,0,55,0
124790,control_change,,,,,20,0,1,,,,64,0,0,,
124800,note_on,,,,,0,0,1,,,,,,0,48,29
124800,note_on,,,,,10,0,1,,,,,,0,51,0
124800,control_change,,,,,0,0,1,,,,64,95,0,,
124830,set_tempo,,,,,90,1,0,,480000,,,,,,
124830,note_on,,,,,0,0,1,,,,,,0,60,29
124830,note_on,,,,,30,0,1,,,,,,0,48,0
124860,note_on,,,,,0,0,1,,,,,,0,55,29
124860,note_on,,,,,30,0,1,,,,,,0,60,0
124890,set_tempo,,,,,60,1,0,,476190,,,,,,
124890,note_on,,,,,30,0,1,,,,,,0,55,0
124890,note_on,,,,,0,0,1,,,,,,0,51,30
124900,set_tempo,,,,,10,1,0,,472440,,,,,,
124915,control_change,,,,,25,0,1,,,,64,0,0,,
124920,note_on,,,,,0,0,1,,,,,,0,48,30
124920,note_on,,,,,5,0,1,,,,,,0,51,0
124920,note_on,,,,,735,0,2,,,,,,0,36,49
124930,set_tempo,,,,,30,1,0,,468750,,,,,,
124950,note_on,,,,,30,0,1,,,,,,0,48,0
124950,note_on,,,,,0,0,1,,,,,,0,60,31
124970,set_tempo,,,,,40,1,0,,465116,,,,,,
124980,note_on,,,,,0,0,1,,,,,,0,55,32
124980,note_on,,,,,0,0,2,,,,,,0,35,51
124980,note_on,,,,,30,0,1,,,,,,0,60,0
124980,note_on,,,,,60,0,2,,,,,,0,36,0
125010,note_on,,,,,30,0,1,,,,,,0,55,0
125010,note_on,,,,,0,0,1,,,,,,0,51,32
125040,note_on,,,,,0,0,2,,,,,,0,36,54
125040,note_on,,,,,60,0,2,,,,,,0,35,0
125040,note_on,,,,,30,0,1,,,,,,0,51,0
125040,note_on,,,,,0,0,1,,,,,,0,48,33
125040,control_change,,,,,0,0,1,,,,64,95,0,,
125070,note_on,,,,,30,0,1,,,,,,0,48,0
125070,note_on,,,,,0,0,1,,,,,,0,60,33
125100,note_on,,,,,30,0,1,,,,,,0,60,0
125100,note_on,,,,,0,0,1,,,,,,0,55,33
125130,note_on,,,,,0,0,1,,,,,,0,51,33
125130,note_on,,,,,30,0,1,,,,,,0,55,0
125155,control_change,,,,,25,0,1,,,,64,0,0,,
125160,note_on,,,,,5,0,1,,,,,,0,51,0
125160,note_on,,,,,0,0,1,,,,,,0,46,33
125160,note_on,,,,,120,0,2,,,,,,0,36,0
125160,note_on,,,,,0,0,2,,,,,,0,37,57
125190,note_on,,,,,30,0,1,,,,,,0,46,0
125190,note_on,,,,,0,0,1,,,,,,0,58,33
125220,note_on,,,,,30,0,1,,,,,,0,58,0
125220,note_on,,,,,0,0,1,,,,,,0,55,33
125220,note_on,,,,,60,0,2,,,,,,0,37,0
125220,note_on,,,,,0,0,2,,,,,,0,36,58
125230,set_tempo,,,,,260,1,0,,468750,,,,,,
125250,note_on,,,,,30,0,1,,,,,,0,55,0
125250,note_on,,,,,0,0,1,,,,,,0,52,33
125250,set_tempo,,,,,20,1,0,,472440,,,,,,
125270,set_tempo,,,,,20,1,0,,476190,,,,,,
125280,control_change,,,,,0,0,1,,,,64,96,0,,
125280,note_on,,,,,0,0,2,,,,,,0,37,59
125280,note_on,,,,,60,0,2,,,,,,0,36,0
125280,note_on,,,,,0,0,1,,,,,,0,46,33
125280,note_on,,,,,30,0,1,,,,,,0,52,0
125290,set_tempo,,,,,20,1,0,,480000,,,,,,
125310,note_on,,,,,30,0,1,,,,,,0,46,0
125310,note_on,,,,,0,0,1,,,,,,0,58,33
125320,set_tempo,,,,,30,1,0,,483870,,,,,,
125340,note_on,,,,,30,0,1,,,,,,0,58,0
125340,set_tempo,,,,,20,1,0,,487804,,,,,,
125340,note_on,,,,,0,0,1,,,,,,0,55,33
125360,set_tempo,,,,,20,1,0,,491803,,,,,,
125370,note_on,,,,,30,0,1,,,,,,0,55,0
125370,note_on,,,,,0,0,1,,,,,,0,52,33
125390,set_tempo,,,,,30,1,0,,495867,,,,,,
125395,control_change,,,,,25,0,1,,,,64,0,0,,
125400,note_on,,,,,0,0,1,,,,,,0,48,34
125400,note_on,,,,,5,0,1,,,,,,0,52,0
125400,note_on,,,,,120,0,2,,,,,,0,37,0
125400,note_on,,,,,0,0,2,,,,,,0,36,56
125410,set_tempo,,,,,20,1,0,,500000,,,,,,
125430,note_on,,,,,30,0,1,,,,,,0,48,0
125430,note_on,,,,,0,0,1,,,,,,0,60,34
125430,set_tempo,,,,,20,1,0,,504201,,,,,,
125460,note_on,,,,,30,0,1,,,,,,0,60,0
125460,note_on,,,,,0,0,1,,,,,,0,55,34
125460,note_on,,,,,60,0,2,,,,,,0,36,0
125460,note_on,,,,,0,0,2,,,,,,0,34,52
125470,set_tempo,,,,,40,1,0,,508474,,,,,,
125490,note_on,,,,,0,0,1,,,,,,0,52,34
125490,note_on,,,,,30,0,1,,,,,,0,55,0
125490,set_tempo,,,,,20,1,0,,512820,,,,,,
125520,note_on,,,,,0,0,1,,,,,,0,48,34
125520,note_on,,,,,30,0,1,,,,,,0,52,0
125520,note_on,,,,,0,0,2,,,,,,0,32,50
125520,note_on,,,,,60,0,2,,,,,,0,34,0
125550,note_on,,,,,0,0,1,,,,,,0,60,34
125550,note_on,,,,,30,0,1,,,,,,0,48,0
125560,set_tempo,,,,,70,1,0,,517241,,,,,,
125580,note_on,,,,,0,0,1,,,,,,0,58,34
125580,note_on,,,,,30,0,1,,,,,,0,60,0
125580,note_on,,,,,60,0,2,,,,,,0,32,0
125610,note_on,,,,,30,0,1,,,,,,0,58,0
125610,note_on,,,,,30,0,2,,,,,,0,31,51
125610,note_on,,,,,0,0,1,,,,,,0,52,34
125632,note_on,,,,,22,0,2,,,,,,0,31,0
125640,note_on,,,,,30,0,1,,,,,,0,52,0
125640,note_on,,,,,0,0,1,,,,,,0,48,34
125640,set_tempo,,,,,80,1,0,,521739,,,,,,
125640,note_on,,,,,8,0,2,,,,,,0,31,58
125670,note_on,,,,,0,0,1,,,,,,0,60,33
125670,note_on,,,,,30,0,1,,,,,,0,48,0
125700,note_on,,,,,0,0,1,,,,,,0,56,32
125700,note_on,,,,,30,0,1,,,,,,0,60,0
125700,note_on,,,,,60,0,2,,,,,,0,31,0
125700,note_on,,,,,0,0,2,,,,,,0,32,49
125730,note_on,,,,,0,0,1,,,,,,0,53,31
125730,note_on,,,,,30,0,1,,,,,,0,56,0
125760,note_on,,,,,60,0,2,,,,,,0,32,0
125760,note_on,,,,,0,0,1,,,,,,0,48,31
125760,note_on,,,,,30,0,1,,,,,,0,53,0
125760,note_on,,,,,0,0,2,,,,,,0,29,37
125790,note_on,,,,,30,0,1,,,,,,0,48,0
125790,note_on,,,,,0,0,1,,,,,,0,60,29
125820,note_on,,,,,0,0,1,,,,,,0,56,27
125820,note_on,,,,,30,0,1,,,,,,0,60,0
125850,note_on,,,,,0,0,1,,,,,,0,53,26
125850,note_on,,,,,30,0,1,,,,,,0,56,0
125880,note_on,,,,,0,0,1,,,,,,0,48,25
125880,note_on,,,,,30,0,1,,,,,,0,53,0
125910,note_on,,,,,0,0,1,,,,,,0,60,25
125910,note_on,,,,,30,0,1,,,,,,0,48,0
125940,note_on,,,,,0,0,1,,,,,,0,56,25
125940,note_on,,,,,30,0,1,,,,,,0,60,0
125970,note_on,,,,,30,0,1,,,,,,0,56,0
125970,note_on,,,,,0,0,1,,,,,,0,53,27
125970,note_on,,,,,210,0,2,,,,,,0,29,0
125990,set_tempo,,,,,350,1,0,,517241,,,,,,
126000,note_on,,,,,30,0,2,,,,,,0,41,39
126000,note_on,,,,,0,0,1,,,,,,0,49,27
126000,note_on,,,,,30,0,1,,,,,,0,53,0
126030,set_tempo,,,,,40,1,0,,512820,,,,,,
126030,note_on,,,,,0,0,1,,,,,,0,61,28
126030,note_on,,,,,30,0,1,,,,,,0,49,0
126060,note_on,,,,,30,0,1,,,,,,0,61,0
126060,note_on,,,,,0,0,1,,,,,,0,56,28
126060,note_on,,,,,60,0,2,,,,,,0,41,0
126060,note_on,,,,,0,0,2,,,,,,0,40,42
126070,set_tempo,,,,,40,1,0,,508474,,,,,,
126090,set_tempo,,,,,20,1,0,,504201,,,,,,
126090,note_on,,,,,0,0,1,,,,,,0,53,29
126090,note_on,,,,,30,0,1,,,,,,0,56,0
126110,set_tempo,,,,,20,1,0,,500000,,,,,,
126120,control_change,,,,,0,0,1,,,,64,96,0,,
126120,note_on,,,,,0,0,1,,,,,,0,49,30
126120,note_on,,,,,30,0,1,,,,,,0,53,0
126120,note_on,,,,,0,0,2,,,,,,0,41,38
126120,note_on,,,,,60,0,2,,,,,,0,40,0
126150,set_tempo,,,,,40,1,0,,495867,,,,,,
126150,note_on,,,,,0,0,1,,,,,,0,61,31
126150,note_on,,,,,30,0,1,,,,,,0,49,0
126170,set_tempo,,,,,20,1,0,,491803,,,,,,
126180,note_on,,,,,30,0,1,,,,,,0,61,0
126180,note_on,,,,,0,0,1,,,,,,0,56,33
126200,set_tempo,,,,,30,1,0,,487804,,,,,,
126210,note_on,,,,,30,0,1,,,,,,0,56,0
126210,note_on,,,,,0,0,1,,,,,,0,53,33
126235,control_change,,,,,25,0,1,,,,64,0,0,,
126240,note_on,,,,,5,0,1,,,,,,0,53,0
126240,note_on,,,,,0,0,1,,,,,,0,50,35
126240,note_on,,,,,120,0,2,,,,,,0,41,0
126240,note_on,,,,,0,0,2,,,,,,0,44,46
126250,set_tempo,,,,,50,1,0,,483870,,,,,,
126270,note_on,,,,,0,0,1,,,,,,0,62,36
126270,note_on,,,,,30,0,1,,,,,,0,50,0
126300,note_on,,,,,60,0,2,,,,,,0,44,0
126300,note_on,,,,,30,0,1,,,,,,0,62,0
126300,note_on,,,,,0,0,1,,,,,,0,56,37
126300,note_on,,,,,0,0,2,,,,,,0,43,49
126310,set_tempo,,,,,60,1,0,,480000,,,,,,
126330,note_on,,,,,30,0,1,,,,,,0,56,0
126330,note_on,,,,,0,0,1,,,,,,0,53,37
126350,set_tempo,,,,,40,1,0,,476190,,,,,,
126360,note_on,,,,,0,0,2,,,,,,0,44,52
126360,note_on,,,,,0,0,1,,,,,,0,50,37
126360,note_on,,,,,30,0,1,,,,,,0,53,0
126360,note_on,,,,,60,0,2,,,,,,0,43,0
126360,control_change,,,,,0,0,1,,,,64,95,0,,
126380,set_tempo,,,,,30,1,0,,472440,,,,,,
126390,note_on,,,,,0,0,1,,,,,,0,62,37
126390,note_on,,,,,30,0,1,,,,,,0,50,0
126420,note_on,,,,,0,0,1,,,,,,0,56,36
126420,note_on,,,,,30,0,1,,,,,,0,62,0
126450,note_on,,,,,0,0,1,,,,,,0,53,35
126450,note_on,,,,,30,0,1,,,,,,0,56,0
126470,set_tempo,,,,,90,1,0,,476190,,,,,,
126475,control_change,,,,,25,0,1,,,,64,0,0,,
126480,note_on,,,,,0,0,2,,,,,,0,43,47
126480,note_on,,,,,120,0,2,,,,,,0,44,0
126480,set_tempo,,,,,10,1,0,,480000,,,,,,
126480,note_on,,,,,0,0,1,,,,,,0,51,34
126480,note_on,,,,,5,0,1,,,,,,0,53,0
126510,set_tempo,,,,,30,1,0,,483870,,,,,,
126510,note_on,,,,,0,0,1,,,,,,0,63,32
126510,note_on,,,,,30,0,1,,,,,,0,51,0
126520,set_tempo,,,,,10,1,0,,487804,,,,,,
126540,note_on,,,,,0,0,1,,,,,,0,60,31
126540,note_on,,,,,60,0,2,,,,,,0,43,0
126540,note_on,,,,,0,0,2,,,,,,0,41,43
126540,note_on,,,,,30,0,1,,,,,,0,63,0
126550,set_tempo,,,,,30,1,0,,495867,,,,,,
126570,note_on,,,,,0,0,1,,,,,,0,55,30
126570,note_on,,,,,30,0,1,,,,,,0,60,0
126580,set_tempo,,,,,30,1,0,,500000,,,,,,
126590,set_tempo,,,,,10,1,0,,504201,,,,,,
126592,note_on,,,,,22,0,1,,,,,,0,55,0
126600,set_tempo,,,,,10,1,0,,508474,,,,,,
126600,note_on,,,,,60,0,2,,,,,,0,41,0
126600,note_on,,,,,0,0,2,,,,,,0,39,38
126600,note_on,,,,,8,0,1,,,,,,0,55,29
126620,set_tempo,,,,,20,1,0,,517241,,,,,,
126630,note_on,,,,,30,0,1,,,,,,0,55,0
126630,set_tempo,,,,,10,1,0,,521739,,,,,,
126630,note_on,,,,,0,0,1,,,,,,0,67,28
126640,set_tempo,,,,,10,1,0,,526315,,,,,,
126660,note_on,,,,,30,0,1,,,,,,0,67,0
126660,note_on,,,,,60,0,2,,,,,,0,39,0
126660,note_on,,,,,0,0,2,,,,,,0,38,33
126660,set_tempo,,,,,20,1,0,,530973,,,,,,
126660,note_on,,,,,0,0,1,,,,,,0,65,27
126680,set_tempo,,,,,20,1,0,,535714,,,,,,
126690,note_on,,,,,30,0,1,,,,,,0,65,0
126690,note_on,,,,,0,0,1,,,,,,0,59,26
126690,set_tempo,,,,,10,1,0,,540540,,,,,,
126710,set_tempo,,,,,20,1,0,,545454,,,,,,
126720,set_tempo,,,,,10,1,0,,472440,,,,,,
126720,note_on,,,,,0,0,2,,,,,,0,72,32
126720,note_on,,,,,0,0,2,,,,,,0,60,32
126720,note_on,,,,,60,0,2,,,,,,0,38,0
126720,note_on,,,,,0,0,1,,,,,,0,36,37
126720,note_on,,,,,30,0,1,,,,,,0,59,0
126730,set_tempo,,,,,10,1,0,,468750,,,,,,
126750,note_on,,,,,30,0,1,,,,,,0,36,0
126750,note_on,,,,,0,0,1,,,,,,0,48,39
126770,set_tempo,,,,,40,1,0,,465116,,,,,,
126780,note_on,,,,,0,0,2,,,,,,0,71,33
126780,note_on,,,,,30,0,1,,,,,,0,48,0
126780,note_on,,,,,0,0,1,,,,,,0,43,42
126780,note_on,,,,,60,0,2,,,,,,0,60,0
126780,note_on,,,,,0,0,2,,,,,,0,59,33
126780,note_on,,,,,0,0,2,,,,,,0,72,0
126810,note_on,,,,,30,0,1,,,,,,0,43,0
126810,note_on,,,,,0,0,1,,,,,,0,39,44
126840,note_on,,,,,0,0,2,,,,,,0,71,0
126840,note_on,,,,,0,0,2,,,,,,0,72,35
126840,note_on,,,,,60,0,2,,,,,,0,59,0
126840,control_change,,,,,0,0,1,,,,64,95,0,,
126840,note_on,,,,,0,0,1,,,,,,0,36,44
126840,note_on,,,,,30,0,1,,,,,,0,39,0
126840,note_on,,,,,0,0,2,,,,,,0,60,35
126870,note_on,,,,,0,0,1,,,,,,0,48,46
126870,note_on,,,,,30,0,1,,,,,,0,36,0
126900,note_on,,,,,0,0,1,,,,,,0,43,47
126900,note_on,,,,,30,0,1,,,,,,0,48,0
126930,note_on,,,,,30,0,1,,,,,,0,43,0
126930,note_on,,,,,0,0,1,,,,,,0,39,47
126955,control_change,,,,,25,0,1,,,,64,0,0,,
126960,note_on,,,,,0,0,1,,,,,,0,34,47
126960,note_on,,,,,5,0,1,,,,,,0,39,0
126960,note_on,,,,,0,0,2,,,,,,0,73,39
126960,note_on,,,,,0,0,2,,,,,,0,61,39
126960,note_on,,,,,0,0,2,,,,,,0,72,0
126960,note_on,,,,,120,0,2,,,,,,0,60,0
126990,note_on,,,,,30,0,1,,,,,,0,34,0
126990,note_on,,,,,0,0,1,,,,,,0,46,47
127020,note_on,,,,,0,0,2,,,,,,0,73,0
127020,note_on,,,,,60,0,2,,,,,,0,61,0
127020,note_on,,,,,0,0,2,,,,,,0,60,39
127020,note_on,,,,,0,0,1,,,,,,0,43,47
127020,note_on,,,,,0,0,2,,,,,,0,72,39
127020,note_on,,,,,30,0,1,,,,,,0,46,0
127030,set_tempo,,,,,260,1,0,,468750,,,,,,
127050,note_on,,,,,30,0,1,,,,,,0,43,0
127050,set_tempo,,,,,20,1,0,,472440,,,,,,
127050,note_on,,,,,0,0,1,,,,,,0,40,47
127070,set_tempo,,,,,20,1,0,,476190,,,,,,
127080,note_on,,,,,0,0,2,,,,,,0,72,0
127080,note_on,,,,,0,0,2,,,,,,0,73,40
127080,note_on,,,,,0,0,2,,,,,,0,61,40
127080,control_change,,,,,0,0,1,,,,64,96,0,,
127080,note_on,,,,,0,0,1,,,,,,0,34,47
127080,note_on,,,,,60,0,2,,,,,,0,60,0
127080,note_on,,,,,30,0,1,,,,,,0,40,0
127090,set_tempo,,,,,20,1,0,,480000,,,,,,
127110,note_on,,,,,30,0,1,,,,,,0,34,0
127110,note_on,,,,,0,0,1,,,,,,0,46,47
127120,set_tempo,,,,,30,1,0,,483870,,,,,,
127140,set_tempo,,,,,20,1,0,,487804,,,,,,
127140,note_on,,,,,30,0,1,,,,,,0,46,0
127140,note_on,,,,,0,0,1,,,,,,0,43,47
127160,set_tempo,,,,,20,1,0,,491803,,,,,,
127170,note_on,,,,,30,0,1,,,,,,0,43,0
127170,note_on,,,,,0,0,1,,,,,,0,40,47
127190,set_tempo,,,,,30,1,0,,495867,,,,,,
127195,control_change,,,,,25,0,1,,,,64,0,0,,
127200,note_on,,,,,0,0,2,,,,,,0,60,38
127200,note_on,,,,,0,0,2,,,,,,0,72,38
127200,note_on,,,,,0,0,2,,,,,,0,73,0
127200,note_on,,,,,120,0,2,,,,,,0,61,0
127200,note_on,,,,,5,0,1,,,,,,0,40,0
127200,note_on,,,,,0,0,1,,,,,,0,36,47
127210,set_tempo,,,,,20,1,0,,500000,,,,,,
127230,note_on,,,,,0,0,1,,,,,,0,48,47
127230,set_tempo,,,,,20,1,0,,504201,,,,,,
127230,note_on,,,,,30,0,1,,,,,,0,36,0
127260,note_on,,,,,30,0,1,,,,,,0,48,0
127260,note_on,,,,,0,0,2,,,,,,0,70,34
127260,note_on,,,,,0,0,1,,,,,,0,43,47
127260,note_on,,,,,60,0,2,,,,,,0,60,0
127260,note_on,,,,,0,0,2,,,,,,0,72,0
127260,note_on,,,,,0,0,2,,,,,,0,58,34
127270,set_tempo,,,,,40,1,0,,508474,,,,,,
127290,set_tempo,,,,,20,1,0,,512820,,,,,,
127290,note_on,,,,,0,0,1,,,,,,0,40,47
127290,note_on,,,,,30,0,1,,,,,,0,43,0
127320,note_on,,,,,60,0,2,,,,,,0,58,0
127320,note_on,,,,,30,0,1,,,,,,0,40,0
127320,note_on,,,,,0,0,1,,,,,,0,36,47
127320,note_on,,,,,0,0,2,,,,,,0,70,0
127320,note_on,,,,,0,0,2,,,,,,0,56,34
127320,note_on,,,,,0,0,2,,,,,,0,68,34
127350,note_on,,,,,30,0,1,,,,,,0,36,0
127350,note_on,,,,,0,0,1,,,,,,0,48,46
127360,set_tempo,,,,,70,1,0,,517241,,,,,,
127380,note_on,,,,,60,0,2,,,,,,0,56,0
127380,note_on,,,,,0,0,2,,,,,,0,68,0
127380,note_on,,,,,30,0,1,,,,,,0,48,0
127380,note_on,,,,,0,0,1,,,,,,0,46,45
127410,note_on,,,,,30,0,2,,,,,,0,67,34
127410,note_on,,,,,0,0,2,,,,,,0,55,34
127410,note_on,,,,,0,0,1,,,,,,0,40,43
127410,note_on,,,,,30,0,1,,,,,,0,46,0
127432,note_on,,,,,0,0,2,,,,,,0,67,0
127432,note_on,,,,,22,0,2,,,,,,0,55,0
127440,note_on,,,,,8,0,2,,,,,,0,67,36
127440,set_tempo,,,,,80,1,0,,521739,,,,,,
127440,note_on,,,,,0,0,1,,,,,,0,36,42
127440,note_on,,,,,30,0,1,,,,,,0,40,0
127440,note_on,,,,,0,0,2,,,,,,0,55,36
127470,note_on,,,,,30,0,1,,,,,,0,36,0
127470,note_on,,,,,0,0,1,,,,,,0,48,40
127500,note_on,,,,,0,0,1,,,,,,0,44,38
127500,note_on,,,,,60,0,2,,,,,,0,55,0
127500,note_on,,,,,0,0,2,,,,,,0,56,32
127500,note_on,,,,,30,0,1,,,,,,0,48,0
127500,note_on,,,,,0,0,2,,,,,,0,67,0
127500,note_on,,,,,0,0,2,,,,,,0,68,32
127530,note_on,,,,,30,0,1,,,,,,0,44,0
127530,note_on,,,,,0,0,1,,,,,,0,41,38
127560,note_on,,,,,60,0,2,,,,,,0,56,0
127560,note_on,,,,,0,0,2,,,,,,0,68,0
127560,note_on,,,,,0,0,2,,,,,,0,65,29
127560,note_on,,,,,0,0,2,,,,,,0,53,29
127560,note_on,,,,,30,0,1,,,,,,0,41,0
127560,note_on,,,,,0,0,1,,,,,,0,36,37
127590,note_on,,,,,30,0,1,,,,,,0,36,0
127590,note_on,,,,,0,0,1,,,,,,0,48,37
127620,note_on,,,,,0,0,1,,,,,,0,44,37
127620,note_on,,,,,30,0,1,,,,,,0,48,0
127650,note_on,,,,,30,0,1,,,,,,0,44,0
127650,note_on,,,,,0,0,1,,,,,,0,41,37
127680,note_on,,,,,30,0,1,,,,,,0,41,0
127680,note_on,,,,,0,0,1,,,,,,0,36,37
127710,note_on,,,,,30,0,1,,,,,,0,36,0
127710,note_on,,,,,0,0,1,,,,,,0,48,37
127740,note_on,,,,,30,0,1,,,,,,0,48,0
127740,note_on,,,,,0,0,1,,,,,,0,44,37
127770,note_on,,,,,0,0,2,,,,,,0,65,0
127770,note_on,,,,,30,0,1,,,,,,0,44,0
127770,note_on,,,,,0,0,1,,,,,,0,41,37
127770,note_on,,,,,210,0,2,,,,,,0,53,0
127790,set_tempo,,,,,350,1,0,,517241,,,,,,
127800,note_on,,,,,30,0,1,,,,,,0,41,0
127800,note_on,,,,,0,0,1,,,,,,0,37,39
127800,note_on,,,,,0,0,2,,,,,,0,65,33
127800,note_on,,,,,30,0,2,,,,,,0,77,33
127830,note_on,,,,,0,0,1,,,,,,0,49,40
127830,note_on,,,,,30,0,1,,,,,,0,37,0
127830,set_tempo,,,,,40,1,0,,512820,,,,,,
127860,note_on,,,,,60,0,2,,,,,,0,65,0
127860,note_on,,,,,0,0,2,,,,,,0,77,0
127860,note_on,,,,,0,0,2,,,,,,0,76,36
127860,note_on,,,,,0,0,1,,,,,,0,44,41
127860,note_on,,,,,30,0,1,,,,,,0,49,0
127860,note_on,,,,,0,0,2,,,,,,0,64,36
127870,set_tempo,,,,,40,1,0,,508474,,,,,,
127890,set_tempo,,,,,20,1,0,,504201,,,,,,
127890,note_on,,,,,0,0,1,,,,,,0,41,43
127890,note_on,,,,,30,0,1,,,,,,0,44,0
127910,set_tempo,,,,,20,1,0,,500000,,,,,,
127920,note_on,,,,,0,0,2,,,,,,0,77,38
127920,control_change,,,,,0,0,1,,,,64,96,0,,
127920,note_on,,,,,0,0,1,,,,,,0,37,45
127920,note_on,,,,,30,0,1,,,,,,0,41,0
127920,note_on,,,,,60,0,2,,,,,,0,64,0
127920,note_on,,,,,0,0,2,,,,,,0,65,38
127920,note_on,,,,,0,0,2,,,,,,0,76,0
127950,note_on,,,,,0,0,1,,,,,,0,49,46
127950,set_tempo,,,,,40,1,0,,495867,,,,,,
127950,note_on,,,,,30,0,1,,,,,,0,37,0
127970,set_tempo,,,,,20,1,0,,491803,,,,,,
127980,note_on,,,,,0,0,1,,,,,,0,44,48
127980,note_on,,,,,30,0,1,,,,,,0,49,0
128000,set_tempo,,,,,30,1,0,,487804,,,,,,
128010,note_on,,,,,0,0,1,,,,,,0,41,48
128010,note_on,,,,,30,0,1,,,,,,0,44,0
128035,control_change,,,,,25,0,1,,,,64,0,0,,
128040,note_on,,,,,0,0,2,,,,,,0,77,0
128040,note_on,,,,,0,0,2,,,,,,0,80,40
128040,note_on,,,,,0,0,2,,,,,,0,68,40
128040,note_on,,,,,0,0,1,,,,,,0,38,49
128040,note_on,,,,,5,0,1,,,,,,0,41,0
128040,note_on,,,,,120,0,2,,,,,,0,65,0
128050,set_tempo,,,,,50,1,0,,483870,,,,,,
128070,note_on,,,,,30,0,1,,,,,,0,38,0
128070,note_on,,,,,0,0,1,,,,,,0,50,50
128100,note_on,,,,,0,0,2,,,,,,0,80,0
128100,note_on,,,,,0,0,2,,,,,,0,79,40
128100,note_on,,,,,0,0,2,,,,,,0,67,40
128100,note_on,,,,,0,0,1,,,,,,0,44,50
128100,note_on,,,,,60,0,2,,,,,,0,68,0
128100,note_on,,,,,30,0,1,,,,,,0,50,0
128110,set_tempo,,,,,60,1,0,,480000,,,,,,
128130,note_on,,,,,0,0,1,,,,,,0,41,50
128130,note_on,,,,,30,0,1,,,,,,0,44,0
128150,set_tempo,,,,,40,1,0,,476190,,,,,,
128160,note_on,,,,,0,0,2,,,,,,0,80,42
128160,note_on,,,,,0,0,2,,,,,,0,68,42
128160,note_on,,,,,0,0,2,,,,,,0,79,0
128160,control_change,,,,,0,0,1,,,,64,95,0,,
128160,note_on,,,,,0,0,1,,,,,,0,38,50
128160,note_on,,,,,30,0,1,,,,,,0,41,0
128160,note_on,,,,,60,0,2,,,,,,0,67,0
128180,set_tempo,,,,,30,1,0,,472440,,,,,,
128190,note_on,,,,,30,0,1,,,,,,0,38,0
128190,note_on,,,,,0,0,1,,,,,,0,50,48
128220,note_on,,,,,30,0,1,,,,,,0,50,0
128220,note_on,,,,,0,0,1,,,,,,0,44,48
128250,set_tempo,,,,,70,1,0,,465116,,,,,,
128250,note_on,,,,,30,0,1,,,,,,0,44,0
128250,note_on,,,,,0,0,1,,,,,,0,41,46
128275,control_change,,,,,25,0,1,,,,64,0,0,,
128280,note_on,,,,,120,0,2,,,,,,0,68,0
128280,note_on,,,,,0,0,2,,,,,,0,80,0
128280,note_on,,,,,0,0,2,,,,,,0,79,45
128280,note_on,,,,,0,0,2,,,,,,0,67,45
128280,note_on,,,,,5,0,1,,,,,,0,41,0
128280,note_on,,,,,0,0,1,,,,,,0,39,45
128310,note_on,,,,,30,0,1,,,,,,0,39,0
128310,note_on,,,,,0,0,1,,,,,,0,51,44
128340,note_on,,,,,0,0,2,,,,,,0,77,50
128340,note_on,,,,,30,0,1,,,,,,0,51,0
128340,note_on,,,,,0,0,2,,,,,,0,79,0
128340,note_on,,,,,0,0,1,,,,,,0,48,43
128340,note_on,,,,,60,0,2,,,,,,0,67,0
128340,note_on,,,,,0,0,2,,,,,,0,65,50
128370,note_on,,,,,0,0,1,,,,,,0,43,42
128370,set_tempo,,,,,120,1,0,,468750,,,,,,
128370,note_on,,,,,30,0,1,,,,,,0,48,0
128392,note_on,,,,,22,0,1,,,,,,0,43,0
128400,note_on,,,,,8,0,1,,,,,,0,43,41
128400,note_on,,,,,0,0,2,,,,,,0,63,46
128400,note_on,,,,,0,0,2,,,,,,0,75,46
128400,note_on,,,,,0,0,2,,,,,,0,77,0
128400,note_on,,,,,60,0,2,,,,,,0,65,0
128430,note_on,,,,,0,0,1,,,,,,0,55,41
128430,note_on,,,,,30,0,1,,,,,,0,43,0
128450,set_tempo,,,,,80,1,0,,472440,,,,,,
128460,note_on,,,,,60,0,2,,,,,,0,63,0
128460,note_on,,,,,30,0,1,,,,,,0,55,0
128460,note_on,,,,,0,0,1,,,,,,0,53,39
128460,note_on,,,,,0,0,2,,,,,,0,75,0
128460,note_on,,,,,0,0,2,,,,,,0,74,41
128460,note_on,,,,,0,0,2,,,,,,0,62,41
128490,note_on,,,,,30,0,1,,,,,,0,53,0
128490,note_on,,,,,0,0,1,,,,,,0,47,39
128510,set_tempo,,,,,60,1,0,,476190,,,,,,
128520,note_on,,,,,0,0,2,,,,,,0,72,38
128520,note_on,,,,,0,0,2,,,,,,0,60,38
128520,note_on,,,,,0,0,2,,,,,,0,74,0
128520,note_on,,,,,60,0,2,,,,,,0,62,0
128520,note_on,,,,,0,0,1,,,,,,0,36,39
128520,note_on,,,,,30,0,1,,,,,,0,47,0
128550,note_on,,,,,0,0,1,,,,,,0,48,42
128550,note_on,,,,,30,0,1,,,,,,0,36,0
128580,note_on,,,,,30,0,1,,,,,,0,48,0
128580,note_on,,,,,0,0,1,,,,,,0,43,43
128610,note_on,,,,,0,0,2,,,,,,0,60,0
128610,note_on,,,,,90,0,2,,,,,,0,72,0
128610,note_on,,,,,30,0,1,,,,,,0,43,0
128610,note_on,,,,,0,0,1,,,,,,0,39,46
128640,note_on,,,,,0,0,2,,,,,,0,68,43
128640,note_on,,,,,30,0,2,,,,,,0,56,43
128640,note_on,,,,,30,0,1,,,,,,0,39,0
128640,control_change,,,,,0,0,1,,,,64,95,0,,
128640,note_on,,,,,0,0,1,,,,,,0,36,47
128650,set_tempo,,,,,140,1,0,,480000,,,,,,
128670,note_on,,,,,0,0,1,,,,,,0,47,47
128670,note_on,,,,,30,0,1,,,,,,0,36,0
128700,note_on,,,,,30,0,1,,,,,,0,47,0
128700,note_on,,,,,0,0,1,,,,,,0,41,47
128730,note_on,,,,,30,0,1,,,,,,0,41,0
128730,note_on,,,,,0,0,1,,,,,,0,38,45
128730,set_tempo,,,,,80,1,0,,483870,,,,,,
128755,control_change,,,,,25,0,1,,,,64,0,0,,
128760,note_on,,,,,0,0,1,,,,,,0,36,42
128760,note_on,,,,,120,0,2,,,,,,0,68,0
128760,note_on,,,,,0,0,2,,,,,,0,56,0
128760,note_on,,,,,0,0,2,,,,,,0,55,41
128760,note_on,,,,,0,0,2,,,,,,0,67,41
128760,note_on,,,,,5,0,1,,,,,,0,38,0
128770,set_tempo,,,,,40,1,0,,487804,,,,,,
128790,note_on,,,,,30,0,1,,,,,,0,36,0
128790,note_on,,,,,0,0,1,,,,,,0,47,41
128820,note_on,,,,,0,0,1,,,,,,0,41,39
128820,note_on,,,,,60,0,2,,,,,,0,67,0
128820,note_on,,,,,0,0,2,,,,,,0,55,0
128820,note_on,,,,,0,0,2,,,,,,0,53,39
128820,note_on,,,,,0,0,2,,,,,,0,65,39
128820,note_on,,,,,30,0,1,,,,,,0,47,0
128850,note_on,,,,,30,0,1,,,,,,0,41,0
128850,note_on,,,,,0,0,1,,,,,,0,38,39
128880,note_on,,,,,0,0,2,,,,,,0,63,38
128880,note_on,,,,,0,0,2,,,,,,0,51,38
128880,note_on,,,,,0,0,2,,,,,,0,53,0
128880,note_on,,,,,60,0,2,,,,,,0,65,0
128880,note_on,,,,,0,0,1,,,,,,0,36,39
128880,note_on,,,,,30,0,1,,,,,,0,38,0
128910,set_tempo,,,,,140,1,0,,491803,,,,,,
128910,note_on,,,,,0,0,1,,,,,,0,47,39
128910,note_on,,,,,30,0,1,,,,,,0,36,0
128940,note_on,,,,,0,0,2,,,,,,0,62,36
128940,note_on,,,,,0,0,2,,,,,,0,50,36
128940,note_on,,,,,0,0,2,,,,,,0,51,0
128940,note_on,,,,,0,0,1,,,,,,0,41,41
128940,note_on,,,,,60,0,2,,,,,,0,63,0
128940,note_on,,,,,30,0,1,,,,,,0,47,0
128970,note_on,,,,,30,0,1,,,,,,0,41,0
128970,note_on,,,,,0,0,1,,,,,,0,38,43
128990,set_tempo,,,,,80,1,0,,495867,,,,,,
129000,note_on,,,,,30,0,1,,,,,,0,38,0
129000,note_on,,,,,0,0,1,,,,,,0,36,45
129000,note_on,,,,,0,0,2,,,,,,0,60,35
129000,note_on,,,,,60,0,2,,,,,,0,62,0
129000,note_on,,,,,0,0,2,,,,,,0,50,0
129000,note_on,,,,,0,0,2,,,,,,0,48,35
129030,note_on,,,,,30,0,1,,,,,,0,36,0
129030,note_on,,,,,0,0,1,,,,,,0,48,48
129050,set_tempo,,,,,60,1,0,,500000,,,,,,
129060,note_on,,,,,30,0,1,,,,,,0,48,0
129060,note_on,,,,,0,0,1,,,,,,0,43,50
129090,note_on,,,,,0,0,2,,,,,,0,48,0
129090,note_on,,,,,90,0,2,,,,,,0,60,0
129090,note_on,,,,,0,0,1,,,,,,0,39,50
129090,note_on,,,,,30,0,1,,,,,,0,43,0
129110,set_tempo,,,,,60,1,0,,504201,,,,,,
129120,control_change,,,,,0,0,1,,,,64,95,0,,
129120,note_on,,,,,0,0,1,,,,,,0,36,53
129120,note_on,,,,,30,0,1,,,,,,0,39,0
129120,note_on,,,,,30,0,2,,,,,,0,68,67
129120,note_on,,,,,0,0,2,,,,,,0,80,67
129150,note_on,,,,,30,0,1,,,,,,0,36,0
129150,note_on,,,,,0,0,1,,,,,,0,47,53
129180,note_on,,,,,30,0,1,,,,,,0,47,0
129180,note_on,,,,,0,0,1,,,,,,0,41,54
129210,note_on,,,,,30,0,1,,,,,,0,41,0
129210,note_on,,,,,0,0,1,,,,,,0,38,55
129235,control_change,,,,,25,0,1,,,,64,0,0,,
129240,note_on,,,,,0,0,2,,,,,,0,67,61
129240,note_on,,,,,0,0,2,,,,,,0,79,61
129240,note_on,,,,,120,0,2,,,,,,0,80,0
129240,note_on,,,,,0,0,1,,,,,,0,36,57
129240,note_on,,,,,0,0,2,,,,,,0,68,0
129240,note_on,,,,,5,0,1,,,,,,0,38,0
129250,set_tempo,,,,,140,1,0,,508474,,,,,,
129270,note_on,,,,,30,0,1,,,,,,0,36,0
129270,note_on,,,,,0,0,1,,,,,,0,47,57
129300,note_on,,,,,30,0,1,,,,,,0,47,0
129300,note_on,,,,,0,0,1,,,,,,0,41,59
129300,note_on,,,,,0,0,2,,,,,,0,67,0
129300,note_on,,,,,60,0,2,,,,,,0,79,0
129300,note_on,,,,,0,0,2,,,,,,0,65,54
129300,note_on,,,,,0,0,2,,,,,,0,77,54
129320,set_tempo,,,,,70,1,0,,512820,,,,,,
129330,note_on,,,,,30,0,1,,,,,,0,41,0
129330,note_on,,,,,0,0,1,,,,,,0,38,59
129360,note_on,,,,,30,0,1,,,,,,0,38,0
129360,note_on,,,,,0,0,1,,,,,,0,36,60
129360,note_on,,,,,0,0,2,,,,,,0,75,54
129360,note_on,,,,,0,0,2,,,,,,0,65,0
129360,note_on,,,,,0,0,2,,,,,,0,63,54
129360,note_on,,,,,60,0,2,,,,,,0,77,0
129390,note_on,,,,,30,0,1,,,,,,0,36,0
129390,note_on,,,,,0,0,1,,,,,,0,47,61
129420,note_on,,,,,0,0,2,,,,,,0,74,57
129420,note_on,,,,,0,0,2,,,,,,0,62,57
129420,note_on,,,,,30,0,1,,,,,,0,47,0
129420,note_on,,,,,0,0,1,,,,,,0,41,63
129420,note_on,,,,,60,0,2,,,,,,0,75,0
129420,note_on,,,,,0,0,2,,,,,,0,63,0
129450,note_on,,,,,0,0,1,,,,,,0,38,65
129450,note_on,,,,,30,0,1,,,,,,0,41,0
129460,set_tempo,,,,,140,1,0,,517241,,,,,,
129480,note_on,,,,,30,0,1,,,,,,0,38,0
129480,note_on,,,,,0,0,1,,,,,,0,36,66
129480,note_on,,,,,60,0,2,,,,,,0,74,0
129480,note_on,,,,,0,0,2,,,,,,0,62,0
129480,note_on,,,,,0,0,2,,,,,,0,60,61
129480,note_on,,,,,0,0,2,,,,,,0,72,61
129510,note_on,,,,,30,0,1,,,,,,0,36,0
129510,note_on,,,,,0,0,1,,,,,,0,48,69
129510,set_tempo,,,,,50,1,0,,526315,,,,,,
129540,note_on,,,,,30,0,1,,,,,,0,48,0
129540,note_on,,,,,0,0,1,,,,,,0,43,70
129550,set_tempo,,,,,40,1,0,,530973,,,,,,
129570,note_on,,,,,0,0,1,,,,,,0,39,70
129570,note_on,,,,,0,0,2,,,,,,0,60,0
129570,note_on,,,,,90,0,2,,,,,,0,72,0
129570,note_on,,,,,30,0,1,,,,,,0,43,0
129580,set_tempo,,,,,30,1,0,,535714,,,,,,
129600,note_on,,,,,30,0,1,,,,,,0,39,0
129600,note_on,,,,,0,0,1,,,,,,0,36,71
129600,control_change,,,,,0,0,1,,,,64,95,0,,
129600,note_on,,,,,0,0,2,,,,,,0,92,103
129600,note_on,,,,,30,0,2,,,,,,0,80,103
129610,set_tempo,,,,,30,1,0,,540540,,,,,,
129620,set_tempo,,,,,10,1,0,,545454,,,,,,
129630,note_on,,,,,30,0,1,,,,,,0,36,0
129630,note_on,,,,,0,0,1,,,,,,0,47,74
129640,set_tempo,,,,,20,1,0,,550458,,,,,,
129660,note_on,,,,,30,0,1,,,,,,0,47,0
129660,set_tempo,,,,,20,1,0,,555555,,,,,,
129660,note_on,,,,,0,0,1,,,,,,0,41,75
129680,set_tempo,,,,,20,1,0,,560747,,,,,,
129690,note_on,,,,,30,0,1,,,,,,0,41,0
129690,note_on,,,,,0,0,1,,,,,,0,38,77
129715,control_change,,,,,25,0,1,,,,64,0,0,,
129720,note_on,,,,,120,0,2,,,,,,0,92,0
129720,note_on,,,,,0,0,2,,,,,,0,80,0
129720,note_on,,,,,0,0,2,,,,,,0,79,95
129720,note_on,,,,,5,0,1,,,,,,0,38,0
129720,note_on,,,,,0,0,2,,,,,,0,91,95
129720,note_on,,,,,0,0,1,,,,,,0,36,78
129740,set_tempo,,,,,60,1,0,,566037,,,,,,
129750,note_on,,,,,0,0,1,,,,,,0,47,81
129750,note_on,,,,,30,0,1,,,,,,0,36,0
129760,set_tempo,,,,,20,1,0,,571428,,,,,,
129780,note_on,,,,,0,0,2,,,,,,0,79,0
129780,note_on,,,,,60,0,2,,,,,,0,91,0
129780,note_on,,,,,0,0,2,,,,,,0,77,92
129780,note_on,,,,,0,0,2,,,,,,0,89,92
129780,note_on,,,,,30,0,1,,,,,,0,47,0
129780,note_on,,,,,0,0,1,,,,,,0,41,80
129780,set_tempo,,,,,20,1,0,,576923,,,,,,
129790,set_tempo,,,,,10,1,0,,582524,,,,,,
129810,note_on,,,,,30,0,1,,,,,,0,41,0
129810,note_on,,,,,0,0,1,,,,,,0,38,78
129840,note_on,,,,,30,0,1,,,,,,0,38,0
129840,note_on,,,,,0,0,1,,,,,,0,36,77
129840,note_on,,,,,0,0,2,,,,,,0,87,85
129840,note_on,,,,,0,0,2,,,,,,0,77,0
129840,note_on,,,,,60,0,2,,,,,,0,89,0
129840,note_on,,,,,0,0,2,,,,,,0,75,85
129850,set_tempo,,,,,60,1,0,,588235,,,,,,
129860,set_tempo,,,,,10,1,0,,594059,,,,,,
129870,note_on,,,,,30,0,1,,,,,,0,36,0
129870,note_on,,,,,0,0,1,,,,,,0,47,76
129880,set_tempo,,,,,20,1,0,,600000,,,,,,
129900,note_on,,,,,0,0,2,,,,,,0,75,0
129900,note_on,,,,,30,0,1,,,,,,0,47,0
129900,note_on,,,,,0,0,1,,,,,,0,41,74
129900,note_on,,,,,60,0,2,,,,,,0,87,0
129900,note_on,,,,,0,0,2,,,,,,0,86,81
129900,note_on,,,,,0,0,2,,,,,,0,74,81
129900,set_tempo,,,,,20,1,0,,612244,,,,,,
129910,set_tempo,,,,,10,1,0,,625000,,,,,,
129920,set_tempo,,,,,10,1,0,,638297,,,,,,
129930,set_tempo,,,,,10,1,0,,674157,,,,,,
129930,note_on,,,,,0,0,1,,,,,,0,38,73
129930,note_on,,,,,30,0,1,,,,,,0,41,0
129940,set_tempo,,,,,10,1,0,,705882,,,,,,
129950,set_tempo,,,,,10,1,0,,833333,,,,,,
129960,note_on,,,,,0,0,2,,,,,,0,84,76
129960,note_on,,,,,0,0,2,,,,,,0,74,0
129960,note_on,,,,,60,0,2,,,,,,0,86,0
129960,note_on,,,,,30,0,1,,,,,,0,38,0
129960,note_on,,,,,0,0,1,,,,,,0,36,72
129960,control_change,,,,,0,0,1,,,,64,96,0,,
129970,set_tempo,,,,,20,1,0,,576923,,,,,,
129980,set_tempo,,,,,10,1,0,,571428,,,,,,
129990,note_on,,,,,30,0,1,,,,,,0,36,0
129990,note_on,,,,,0,0,1,,,,,,0,43,71
129990,note_on,,,,,0,0,2,,,,,,0,72,79
129990,set_tempo,,,,,10,1,0,,555555,,,,,,
129990,note_on,,,,,30,0,2,,,,,,0,84,0
130000,set_tempo,,,,,10,1,0,,550458,,,,,,
130010,set_tempo,,,,,10,1,0,,540540,,,,,,
130015,control_change,,,,,25,0,1,,,,64,0,0,,
130020,note_on,,,,,30,0,2,,,,,,0,72,0
130020,note_on,,,,,0,0,2,,,,,,0,83,78
130020,note_on,,,,,0,0,1,,,,,,0,41,71
130020,note_on,,,,,5,0,1,,,,,,0,43,0
130025,control_change,,,,,5,0,1,,,,64,96,0,,
130030,set_tempo,,,,,20,1,0,,526315,,,,,,
130050,note_on,,,,,25,0,1,,,,,,0,41,0
130050,note_on,,,,,0,0,1,,,,,,0,38,70
130050,note_on,,,,,0,0,2,,,,,,0,71,76
130050,note_on,,,,,30,0,2,,,,,,0,83,0
130050,set_tempo,,,,,20,1,0,,521739,,,,,,
130060,set_tempo,,,,,10,1,0,,517241,,,,,,
130070,set_tempo,,,,,10,1,0,,512820,,,,,,
130075,control_change,,,,,25,0,1,,,,64,0,0,,
130080,control_change,,,,,0,0,1,,,,64,95,0,,
130080,note_on,,,,,0,0,1,,,,,,0,36,68
130080,note_on,,,,,0,0,2,,,,,,0,80,75
130080,set_tempo,,,,,10,1,0,,508474,,,,,,
130080,note_on,,,,,5,0,1,,,,,,0,38,0
130080,note_on,,,,,30,0,2,,,,,,0,71,0
130090,set_tempo,,,,,10,1,0,,504201,,,,,,
130110,note_on,,,,,0,0,1,,,,,,0,43,67
130110,set_tempo,,,,,20,1,0,,500000,,,,,,
130110,note_on,,,,,30,0,1,,,,,,0,36,0
130110,note_on,,,,,0,0,2,,,,,,0,68,74
130110,note_on,,,,,30,0,2,,,,,,0,80,0
130120,set_tempo,,,,,10,1,0,,495867,,,,,,
130135,control_change,,,,,25,0,1,,,,64,0,0,,
130140,note_on,,,,,0,0,1,,,,,,0,41,67
130140,note_on,,,,,5,0,1,,,,,,0,43,0
130140,set_tempo,,,,,20,1,0,,491803,,,,,,
130140,note_on,,,,,30,0,2,,,,,,0,68,0
130140,note_on,,,,,0,0,2,,,,,,0,79,71
130140,control_change,,,,,0,0,1,,,,64,96,0,,
130150,set_tempo,,,,,10,1,0,,487804,,,,,,
130170,note_on,,,,,0,0,1,,,,,,0,38,66
130170,note_on,,,,,30,0,2,,,,,,0,79,0
130170,note_on,,,,,0,0,2,,,,,,0,67,69
130170,note_on,,,,,30,0,1,,,,,,0,41,0
130190,set_tempo,,,,,40,1,0,,487804,,,,,,
130195,control_change,,,,,25,0,1,,,,64,0,0,,
130200,note_on,,,,,5,0,1,,,,,,0,38,0
130200,control_change,,,,,0,0,1,,,,64,95,0,,
130200,note_on,,,,,30,0,2,,,,,,0,67,0
130200,note_on,,,,,0,0,2,,,,,,0,77,68
130200,note_on,,,,,0,0,1,,,,,,0,36,65
130210,set_tempo,,,,,20,1,0,,483870,,,,,,
130230,note_on,,,,,30,0,1,,,,,,0,36,0
130230,note_on,,,,,0,0,1,,,,,,0,43,63
130230,note_on,,,,,30,0,2,,,,,,0,77,0
130230,note_on,,,,,0,0,2,,,,,,0,65,67
130240,set_tempo,,,,,30,1,0,,480000,,,,,,
130255,control_change,,,,,25,0,1,,,,64,0,0,,
130260,note_on,,,,,30,0,2,,,,,,0,65,0
130260,note_on,,,,,0,0,2,,,,,,0,75,65
130260,note_on,,,,,5,0,1,,,,,,0,43,0
130260,note_on,,,,,0,0,1,,,,,,0,41,63
130265,control_change,,,,,5,0,1,,,,64,95,0,,
130270,set_tempo,,,,,30,1,0,,476190,,,,,,
130290,note_on,,,,,0,0,2,,,,,,0,63,64
130290,set_tempo,,,,,20,1,0,,472440,,,,,,
130290,note_on,,,,,30,0,2,,,,,,0,75,0
130290,note_on,,,,,25,0,1,,,,,,0,41,0
130290,note_on,,,,,0,0,1,,,,,,0,38,62
130310,set_tempo,,,,,20,1,0,,468750,,,,,,
130315,control_change,,,,,25,0,1,,,,64,0,0,,
130320,note_on,,,,,30,0,2,,,,,,0,63,0
130320,note_on,,,,,0,0,2,,,,,,0,74,63
130320,note_on,,,,,0,0,1,,,,,,0,36,61
130320,note_on,,,,,5,0,1,,,,,,0,38,0
130320,control_change,,,,,0,0,1,,,,64,96,0,,
130350,note_on,,,,,0,0,2,,,,,,0,62,62
130350,note_on,,,,,30,0,1,,,,,,0,36,0
130350,note_on,,,,,0,0,1,,,,,,0,43,60
130350,note_on,,,,,30,0,2,,,,,,0,74,0
130375,control_change,,,,,25,0,1,,,,64,0,0,,
130380,note_on,,,,,0,0,2,,,,,,0,72,61
130380,note_on,,,,,30,0,2,,,,,,0,62,0
130380,note_on,,,,,5,0,1,,,,,,0,43,0
130380,note_on,,,,,0,0,1,,,,,,0,41,59
130380,control_change,,,,,0,0,1,,,,64,95,0,,
130400,set_tempo,,,,,90,1,0,,465116,,,,,,
130410,note_on,,,,,0,0,2,,,,,,0,60,61
130410,note_on,,,,,30,0,2,,,,,,0,72,0
130410,note_on,,,,,0,0,1,,,,,,0,38,58
130410,note_on,,,,,30,0,1,,,,,,0,41,0
130430,control_change,,,,,20,0,1,,,,64,0,0,,
130440,set_tempo,,,,,40,1,0,,461538,,,,,,
130440,control_change,,,,,0,0,1,,,,64,95,0,,
130440,note_on,,,,,0,0,1,,,,,,0,36,56
130440,note_on,,,,,10,0,1,,,,,,0,38,0
130440,note_on,,,,,0,0,2,,,,,,0,71,60
130440,note_on,,,,,30,0,2,,,,,,0,60,0
130460,set_tempo,,,,,20,1,0,,458015,,,,,,
130470,note_on,,,,,0,0,1,,,,,,0,43,55
130470,note_on,,,,,30,0,1,,,,,,0,36,0
130470,note_on,,,,,0,0,2,,,,,,0,59,59
130470,note_on,,,,,30,0,2,,,,,,0,71,0
130495,control_change,,,,,25,0,1,,,,64,0,0,,
130500,control_change,,,,,0,0,1,,,,64,96,0,,
130500,note_on,,,,,0,0,2,,,,,,0,68,59
130500,note_on,,,,,0,0,1,,,,,,0,41,54
130500,note_on,,,,,5,0,1,,,,,,0,43,0
130500,note_on,,,,,30,0,2,,,,,,0,59,0
130530,note_on,,,,,30,0,2,,,,,,0,68,0
130530,note_on,,,,,0,0,2,,,,,,0,56,59
130530,note_on,,,,,0,0,1,,,,,,0,38,53
130530,note_on,,,,,30,0,1,,,,,,0,41,0
130555,control_change,,,,,25,0,1,,,,64,0,0,,
130560,note_on,,,,,0,0,2,,,,,,0,67,57
130560,note_on,,,,,30,0,2,,,,,,0,56,0
130560,set_tempo,,,,,100,1,0,,461538,,,,,,
130560,note_on,,,,,5,0,1,,,,,,0,38,0
130560,note_on,,,,,0,0,1,,,,,,0,36,52
130560,control_change,,,,,0,0,1,,,,64,96,0,,
130570,set_tempo,,,,,10,1,0,,465116,,,,,,
130590,note_on,,,,,30,0,1,,,,,,0,36,0
130590,note_on,,,,,0,0,1,,,,,,0,43,51
130590,set_tempo,,,,,20,1,0,,468750,,,,,,
130590,note_on,,,,,30,0,2,,,,,,0,67,0
130590,note_on,,,,,0,0,2,,,,,,0,55,55
130600,set_tempo,,,,,10,1,0,,472440,,,,,,
130615,control_change,,,,,25,0,1,,,,64,0,0,,
130620,note_on,,,,,5,0,1,,,,,,0,43,0
130620,note_on,,,,,30,0,2,,,,,,0,55,0
130620,set_tempo,,,,,20,1,0,,476190,,,,,,
130620,note_on,,,,,0,0,1,,,,,,0,41,51
130620,note_on,,,,,0,0,2,,,,,,0,66,54
130620,control_change,,,,,0,0,1,,,,64,96,0,,
130630,set_tempo,,,,,10,1,0,,480000,,,,,,
130650,note_on,,,,,0,0,1,,,,,,0,38,50
130650,note_on,,,,,30,0,1,,,,,,0,41,0
130650,note_on,,,,,0,0,2,,,,,,0,54,53
130650,note_on,,,,,30,0,2,,,,,,0,66,0
130660,set_tempo,,,,,30,1,0,,483870,,,,,,
130675,control_change,,,,,25,0,1,,,,64,0,0,,
130680,note_on,,,,,0,0,2,,,,,,0,65,53
130680,note_on,,,,,30,0,2,,,,,,0,54,0
130680,control_change,,,,,0,0,1,,,,64,95,0,,
130680,note_on,,,,,0,0,1,,,,,,0,36,49
130680,note_on,,,,,5,0,1,,,,,,0,38,0
130700,set_tempo,,,,,40,1,0,,487804,,,,,,
130710,note_on,,,,,0,0,1,,,,,,0,43,48
130710,note_on,,,,,30,0,2,,,,,,0,65,0
130710,note_on,,,,,0,0,2,,,,,,0,53,51
130710,note_on,,,,,30,0,1,,,,,,0,36,0
130735,control_change,,,,,25,0,1,,,,64,0,0,,
130740,note_on,,,,,0,0,1,,,,,,0,41,47
130740,note_on,,,,,5,0,1,,,,,,0,43,0
130740,note_on,,,,,0,0,2,,,,,,0,63,49
130740,note_on,,,,,30,0,2,,,,,,0,53,0
130740,control_change,,,,,0,0,1,,,,64,95,0,,
130760,set_tempo,,,,,60,1,0,,491803,,,,,,
130770,note_on,,,,,30,0,2,,,,,,0,63,0
130770,note_on,,,,,30,0,1,,,,,,0,41,0
130770,note_on,,,,,0,0,1,,,,,,0,38,46
130770,note_on,,,,,0,0,2,,,,,,0,51,48
130795,control_change,,,,,25,0,1,,,,64,0,0,,
130800,set_tempo,,,,,40,1,0,,495867,,,,,,
130800,note_on,,,,,0,0,1,,,,,,0,36,45
130800,note_on,,,,,0,0,2,,,,,,0,62,47
130800,note_on,,,,,30,0,2,,,,,,0,51,0
130800,control_change,,,,,0,0,1,,,,64,95,0,,
130800,note_on,,,,,5,0,1,,,,,,0,38,0
130820,set_tempo,,,,,20,1,0,,500000,,,,,,
130830,note_on,,,,,30,0,2,,,,,,0,62,0
130830,note_on,,,,,0,0,1,,,,,,0,43,45
130830,note_on,,,,,30,0,1,,,,,,0,36,0
130830,note_on,,,,,0,0,2,,,,,,0,50,45
130840,set_tempo,,,,,20,1,0,,504201,,,,,,
130855,control_change,,,,,25,0,1,,,,64,0,0,,
130860,note_on,,,,,5,0,1,,,,,,0,43,0
130860,control_change,,,,,0,0,1,,,,64,96,0,,
130860,note_on,,,,,0,0,2,,,,,,0,60,44
130860,note_on,,,,,0,0,1,,,,,,0,41,44
130860,note_on,,,,,30,0,2,,,,,,0,50,0
130880,set_tempo,,,,,40,1,0,,508474,,,,,,
130890,note_on,,,,,0,0,1,,,,,,0,38,43
130890,set_tempo,,,,,10,1,0,,512820,,,,,,
130890,note_on,,,,,30,0,2,,,,,,0,60,0
130890,note_on,,,,,0,0,2,,,,,,0,48,43
130890,note_on,,,,,30,0,1,,,,,,0,41,0
130915,control_change,,,,,25,0,1,,,,64,0,0,,
130920,note_on,,,,,5,0,1,,,,,,0,38,0
130920,note_on,,,,,0,0,1,,,,,,0,36,42
130920,note_on,,,,,30,0,2,,,,,,0,48,0
130920,note_on,,,,,0,0,2,,,,,,0,59,42
130920,control_change,,,,,0,0,1,,,,64,96,0,,
130930,set_tempo,,,,,40,1,0,,521739,,,,,,
130950,note_on,,,,,30,0,1,,,,,,0,36,0
130950,note_on,,,,,0,0,1,,,,,,0,43,41
130950,note_on,,,,,30,0,2,,,,,,0,59,0
130950,note_on,,,,,0,0,2,,,,,,0,47,41
130975,control_change,,,,,25,0,1,,,,64,0,0,,
130980,note_on,,,,,0,0,1,,,,,,0,41,40
130980,control_change,,,,,0,0,1,,,,64,95,0,,
130980,note_on,,,,,5,0,1,,,,,,0,43,0
130980,note_on,,,,,30,0,2,,,,,,0,47,0
130980,note_on,,,,,0,0,2,,,,,,0,62,40
130990,set_tempo,,,,,60,1,0,,526315,,,,,,
131000,set_tempo,,,,,10,1,0,,530973,,,,,,
131010,note_on,,,,,30,0,1,,,,,,0,41,0
131010,note_on,,,,,30,0,2,,,,,,0,62,0
131010,note_on,,,,,0,0,1,,,,,,0,38,39
131010,note_on,,,,,0,0,2,,,,,,0,50,40
131035,control_change,,,,,25,0,1,,,,64,0,0,,
131040,note_on,,,,,0,0,1,,,,,,0,36,38
131040,note_on,,,,,0,0,2,,,,,,0,48,45
131040,note_on,,,,,30,0,2,,,,,,0,50,0
131040,note_on,,,,,5,0,1,,,,,,0,38,0
131040,note_on,,,,,0,0,2,,,,,,0,60,45
131050,set_tempo,,,,,50,1,0,,594059,,,,,,
131064,note_on,,,,,24,0,1,,,,,,0,36,0
131070,note_on,,,,,30,0,2,,,,,,0,38,47
131094,note_on,,,,,24,0,2,,,,,,0,38,0
131100,note_on,,,,,6,0,2,,,,,,0,39,49
131124,note_on,,,,,24,0,2,,,,,,0,39,0
131124,note_on,,,,,0,0,2,,,,,,0,48,0
131124,note_on,,,,,0,0,2,,,,,,0,60,0
131130,note_on,,,,,6,0,2,,,,,,0,41,52
131160,note_on,,,,,30,0,2,,,,,,0,41,0
131160,note_on,,,,,0,0,2,,,,,,0,43,55
131180,set_tempo,,,,,130,1,0,,600000,,,,,,
131205,note_on,,,,,45,0,2,,,,,,0,43,0
131220,note_on,,,,,15,0,2,,,,,,0,42,51
131265,note_on,,,,,45,0,2,,,,,,0,42,0
131280,note_on,,,,,0,0,1,,,,,,0,62,48
131280,note_on,,,,,0,0,1,,,,,,0,65,48
131280,note_on,,,,,0,0,1,,,,,,0,59,48
131280,control_change,,,,,0,0,1,,,,64,95,0,,
131280,note_on,,,,,15,0,2,,,,,,0,43,67
131280,note_on,,,,,216,0,1,,,,,,0,68,48
131400,note_on,,,,,120,0,1,,,,,,0,65,0
131400,set_tempo,,,,,220,1,0,,638297,,,,,,
131400,note_on,,,,,0,0,1,,,,,,0,68,0
131400,note_on,,,,,0,0,1,,,,,,0,62,0
131400,note_on,,,,,0,0,1,,,,,,0,59,0
131400,note_on,,,,,0,0,1,,,,,,0,60,40
131400,note_on,,,,,0,0,1,,,,,,0,63,40
131400,note_on,,,,,0,0,1,,,,,,0,67,40
131400,control_change,,,,,0,0,1,,,,64,0,0,,
131420,set_tempo,,,,,20,1,0,,631578,,,,,,
131424,note_on,,,,,144,0,2,,,,,,0,43,0
131430,note_on,,,,,6,0,2,,,,,,0,36,42
131454,note_on,,,,,24,0,2,,,,,,0,36,0
131460,note_on,,,,,6,0,2,,,,,,0,39,44
131484,note_on,,,,,24,0,2,,,,,,0,39,0
131484,note_on,,,,,84,0,1,,,,,,0,67,0
131484,note_on,,,,,0,0,1,,,,,,0,63,0
131484,note_on,,,,,0,0,1,,,,,,0,60,0
131490,note_on,,,,,6,0,2,,,,,,0,41,46
131514,note_on,,,,,24,0,2,,,,,,0,41,0
131520,note_on,,,,,6,0,2,,,,,,0,43,48
131565,note_on,,,,,45,0,2,,,,,,0,43,0
131580,note_on,,,,,15,0,2,,,,,,0,42,40
131625,note_on,,,,,45,0,2,,,,,,0,42,0
131640,note_on,,,,,15,0,2,,,,,,0,43,61
131640,note_on,,,,,0,0,1,,,,,,0,62,41
131640,note_on,,,,,156,0,1,,,,,,0,65,41
131640,note_on,,,,,0,0,1,,,,,,0,59,41
131640,control_change,,,,,0,0,1,,,,64,95,0,,
131640,note_on,,,,,0,0,1,,,,,,0,56,41
131750,set_tempo,,,,,330,1,0,,645161,,,,,,
131760,set_tempo,,,,,10,1,0,,659340,,,,,,
131760,control_change,,,,,0,0,1,,,,64,0,0,,
131760,note_on,,,,,0,0,1,,,,,,0,60,33
131760,note_on,,,,,0,0,1,,,,,,0,55,33
131760,note_on,,,,,0,0,1,,,,,,0,63,33
131760,note_on,,,,,0,0,1,,,,,,0,59,0
131760,note_on,,,,,0,0,1,,,,,,0,62,0
131760,note_on,,,,,0,0,1,,,,,,0,65,0
131760,note_on,,,,,120,0,1,,,,,,0,56,0
131770,set_tempo,,,,,10,1,0,,674157,,,,,,
131780,set_tempo,,,,,10,1,0,,697674,,,,,,
131784,note_on,,,,,144,0,2,,,,,,0,43,0
131790,set_tempo,,,,,10,1,0,,714285,,,,,,
131790,note_on,,,,,6,0,2,,,,,,0,36,34
131810,set_tempo,,,,,20,1,0,,722891,,,,,,
131814,note_on,,,,,24,0,2,,,,,,0,36,0
131820,note_on,,,,,6,0,2,,,,,,0,39,36
131820,set_tempo,,,,,10,1,0,,740740,,,,,,
131830,set_tempo,,,,,10,1,0,,750000,,,,,,
131844,note_on,,,,,24,0,2,,,,,,0,39,0
131844,note_on,,,,,0,0,1,,,,,,0,55,0
131844,note_on,,,,,84,0,1,,,,,,0,60,0
131844,note_on,,,,,0,0,1,,,,,,0,63,0
131850,note_on,,,,,6,0,2,,,,,,0,41,38
131860,set_tempo,,,,,30,1,0,,759493,,,,,,
131870,set_tempo,,,,,10,1,0,,779220,,,,,,
131874,note_on,,,,,24,0,2,,,,,,0,41,0
131880,note_on,,,,,6,0,2,,,,,,0,43,40
131890,set_tempo,,,,,20,1,0,,789473,,,,,,
131900,set_tempo,,,,,10,1,0,,800000,,,,,,
131910,set_tempo,,,,,10,1,0,,810810,,,,,,
131925,note_on,,,,,45,0,2,,,,,,0,43,0
131930,set_tempo,,,,,20,1,0,,821917,,,,,,
131940,set_tempo,,,,,10,1,0,,833333,,,,,,
131940,note_on,,,,,15,0,2,,,,,,0,42,32
131950,set_tempo,,,,,10,1,0,,845070,,,,,,
131980,set_tempo,,,,,30,1,0,,857142,,,,,,
131985,note_on,,,,,45,0,2,,,,,,0,42,0
131990,set_tempo,,,,,10,1,0,,869565,,,,,,
132000,note_on,,,,,15,0,2,,,,,,0,43,47
132000,note_on,,,,,0,0,1,,,,,,0,53,35
132000,control_change,,,,,0,0,1,,,,64,96,0,,
132000,note_on,,,,,156,0,1,,,,,,0,62,35
132000,note_on,,,,,0,0,1,,,,,,0,55,35
132000,note_on,,,,,0,0,1,,,,,,0,59,35
132010,set_tempo,,,,,20,1,0,,882352,,,,,,
132090,set_tempo,,,,,80,1,0,,895522,,,,,,
132100,set_tempo,,,,,10,1,0,,909090,,,,,,
132120,note_on,,,,,0,0,1,,,,,,0,62,0
132120,note_on,,,,,0,0,1,,,,,,0,59,0
132120,note_on,,,,,120,0,1,,,,,,0,53,0
132120,note_on,,,,,0,0,1,,,,,,0,60,26
132120,note_on,,,,,0,0,1,,,,,,0,55,26
132120,note_on,,,,,0,0,1,,,,,,0,51,26
132120,control_change,,,,,0,0,1,,,,64,0,0,,
132120,note_on,,,,,0,0,1,,,,,,0,55,0
132140,set_tempo,,,,,40,1,0,,923076,,,,,,
132144,note_on,,,,,144,0,2,,,,,,0,43,0
132150,note_on,,,,,6,0,2,,,,,,0,41,34
132160,set_tempo,,,,,20,1,0,,937500,,,,,,
132174,note_on,,,,,24,0,2,,,,,,0,41,0
132180,note_on,,,,,6,0,2,,,,,,0,39,36
132204,note_on,,,,,24,0,2,,,,,,0,39,0
132204,note_on,,,,,0,0,1,,,,,,0,55,0
132204,note_on,,,,,0,0,1,,,,,,0,60,0
132204,note_on,,,,,84,0,1,,,,,,0,51,0
132210,note_on,,,,,6,0,2,,,,,,0,38,38
132225,set_tempo,,,,,65,1,0,,967741,,,,,,
132230,set_tempo,,,,,5,1,0,,967741,,,,,,
132234,note_on,,,,,24,0,2,,,,,,0,38,0
132235,set_tempo,,,,,5,1,0,,967741,,,,,,
132240,note_on,,,,,0,0,1,,,,,,0,51,30
132240,note_on,,,,,0,0,1,,,,,,0,55,30
132240,note_on,,,,,6,0,2,,,,,,0,36,39
132240,set_tempo,,,,,5,1,0,,983606,,,,,,
132240,note_on,,,,,36,0,1,,,,,,0,60,30
132245,set_tempo,,,,,5,1,0,,983606,,,,,,
132255,set_tempo,,,,,10,1,0,,1000000,,,,,,
132260,set_tempo,,,,,5,1,0,,1016949,,,,,,
132265,set_tempo,,,,,5,1,0,,1034482,,,,,,
132270,set_tempo,,,,,5,1,0,,1052631,,,,,,
132275,set_tempo,,,,,5,1,0,,1052631,,,,,,
132280,set_tempo,,,,,5,1,0,,1071428,,,,,,
132285,note_on,,,,,45,0,2,,,,,,0,36,0
132285,set_tempo,,,,,5,1,0,,1090909,,,,,,
132295,set_tempo,,,,,10,1,0,,1090909,,,,,,
132300,set_tempo,,,,,5,1,0,,1111111,,,,,,
132300,note_on,,,,,15,0,2,,,,,,0,35,39
132305,set_tempo,,,,,5,1,0,,1132075,,,,,,
132315,set_tempo,,,,,10,1,0,,1153846,,,,,,
132320,set_tempo,,,,,5,1,0,,1153846,,,,,,
132324,note_on,,,,,0,0,1,,,,,,0,55,0
132324,note_on,,,,,0,0,1,,,,,,0,60,0
132324,note_on,,,,,84,0,1,,,,,,0,51,0
132325,set_tempo,,,,,5,1,0,,1176470,,,,,,
132335,set_tempo,,,,,10,1,0,,1224489,,,,,,
132345,note_on,,,,,45,0,2,,,,,,0,35,0
132360,note_on,,,,,15,0,2,,,,,,0,36,36
132360,note_on,,,,,36,0,1,,,,,,0,60,34
132360,note_on,,,,,0,0,1,,,,,,0,55,34
132360,note_on,,,,,0,0,1,,,,,,0,51,34
132365,set_tempo,,,,,30,1,0,,1276595,,,,,,
132370,set_tempo,,,,,5,1,0,,1276595,,,,,,
132380,set_tempo,,,,,10,1,0,,1304347,,,,,,
132385,set_tempo,,,,,5,1,0,,1304347,,,,,,
132390,set_tempo,,,,,5,1,0,,1333333,,,,,,
132400,set_tempo,,,,,10,1,0,,1333333,,,,,,
132405,set_tempo,,,,,5,1,0,,1363636,,,,,,
132405,note_on,,,,,45,0,2,,,,,,0,36,0
132415,set_tempo,,,,,10,1,0,,1363636,,,,,,
132420,note_on,,,,,15,0,2,,,,,,0,35,33
132425,set_tempo,,,,,10,1,0,,1395348,,,,,,
132435,set_tempo,,,,,10,1,0,,1395348,,,,,,
132444,note_on,,,,,0,0,1,,,,,,0,60,0
132444,note_on,,,,,0,0,1,,,,,,0,55,0
132444,note_on,,,,,84,0,1,,,,,,0,51,0
132445,set_tempo,,,,,10,1,0,,1428571,,,,,,
132450,set_tempo,,,,,5,1,0,,1463414,,,,,,
132455,set_tempo,,,,,5,1,0,,1500000,,,,,,
132465,note_on,,,,,45,0,2,,,,,,0,35,0
132470,set_tempo,,,,,15,1,0,,1538461,,,,,,
132475,set_tempo,,,,,5,1,0,,1538461,,,,,,
132480,note_on,,,,,36,0,1,,,,,,0,48,36
132480,note_on,,,,,0,0,1,,,,,,0,51,36
132480,note_on,,,,,15,0,2,,,,,,0,36,31
132480,note_on,,,,,0,0,1,,,,,,0,60,36
132480,control_change,,,,,0,0,1,,,,64,96,0,,
132480,set_tempo,,,,,5,1,0,,1538461,,,,,,
132480,note_on,,,,,0,0,1,,,,,,0,55,36
132490,set_tempo,,,,,10,1,0,,1578947,,,,,,
132495,set_tempo,,,,,5,1,0,,1578947,,,,,,
132500,set_tempo,,,,,5,1,0,,1578947,,,,,,
132510,set_tempo,,,,,10,1,0,,1621621,,,,,,
132515,set_tempo,,,,,5,1,0,,1621621,,,,,,
132520,set_tempo,,,,,5,1,0,,1621621,,,,,,
132530,set_tempo,,,,,10,1,0,,1621621,,,,,,
132535,set_tempo,,,,,5,1,0,,1666666,,,,,,
132540,set_tempo,,,,,5,1,0,,1666666,,,,,,
132550,set_tempo,,,,,10,1,0,,1666666,,,,,,
132555,set_tempo,,,,,5,1,0,,1714285,,,,,,
132560,set_tempo,,,,,5,1,0,,1714285,,,,,,
132564,note_on,,,,,0,0,1,,,,,,0,48,0
132564,note_on,,,,,84,0,1,,,,,,0,60,0
132564,note_on,,,,,84,0,2,,,,,,0,36,0
132564,note_on,,,,,0,0,1,,,,,,0,55,0
132564,note_on,,,,,0,0,1,,,,,,0,51,0
132565,set_tempo,,,,,5,1,0,,1714285,,,,,,
132570,set_tempo,,,,,5,1,0,,1714285,,,,,,
132575,set_tempo,,,,,5,1,0,,1764705,,,,,,
132580,set_tempo,,,,,5,1,0,,1764705,,,,,,
132590,set_tempo,,,,,10,1,0,,1764705,,,,,,
132600,note_on,,,,,36,0,1,,,,,,0,43,40
132600,note_on,,,,,36,0,2,,,,,,0,48,32
132600,note_on,,,,,0,0,2,,,,,,0,60,32
132600,note_on,,,,,0,0,2,,,,,,0,63,32
132600,note_on,,,,,0,0,2,,,,,,0,67,32
132600,note_on,,,,,0,0,2,,,,,,0,72,32
132600,set_tempo,,,,,10,1,0,,1578947,,,,,,
132630,set_tempo,,,,,30,1,0,,1500000,,,,,,
132684,note_on,,,,,84,0,2,,,,,,0,72,0
132684,note_on,,,,,0,0,2,,,,,,0,48,0
132684,note_on,,,,,0,0,2,,,,,,0,60,0
132684,note_on,,,,,0,0,2,,,,,,0,67,0
132684,note_on,,,,,0,0,2,,,,,,0,63,0
132684,note_on,,,,,84,0,1,,,,,,0,43,0
132720,note_on,,,,,0,0,2,,,,,,0,60,37
132720,note_on,,,,,36,0,1,,,,,,0,39,44
132720,note_on,,,,,0,0,2,,,,,,0,72,37
132720,note_on,,,,,0,0,2,,,,,,0,67,37
132720,note_on,,,,,0,0,2,,,,,,0,63,37
132720,note_on,,,,,0,0,2,,,,,,0,48,37
132720,note_on,,,,,36,0,2,,,,,,0,43,37
132770,set_tempo,,,,,140,1,0,,1935483,,,,,,
132804,note_on,,,,,84,0,2,,,,,,0,72,0
132804,note_on,,,,,0,0,2,,,,,,0,63,0
132804,note_on,,,,,0,0,2,,,,,,0,67,0
132804,note_on,,,,,84,0,1,,,,,,0,39,0
132804,note_on,,,,,0,0,2,,,,,,0,43,0
132804,note_on,,,,,0,0,2,,,,,,0,60,0
132804,note_on,,,,,0,0,2,,,,,,0,48,0
132825,control_change,,,,,21,0,1,,,,64,0,0,,
132840,set_tempo,,,,,70,1,0,,1500000,,,,,,
132840,note_on,,,,,0,0,2,,,,,,0,63,39
132840,note_on,,,,,0,0,2,,,,,,0,72,39
132840,control_change,,,,,0,0,1,,,,64,96,0,,
132840,note_on,,,,,15,0,1,,,,,,0,36,45
132840,note_on,,,,,36,0,2,,,,,,0,43,39
132840,note_on,,,,,0,0,2,,,,,,0,48,39
132840,note_on,,,,,0,0,2,,,,,,0,60,39
132840,note_on,,,,,0,0,2,,,,,,0,67,39
132985,set_tempo,,,,,145,1,0,,1500000,,,,,,
133000,set_tempo,,,,,15,1,0,,1250000,,,,,,
133005,set_tempo,,,,,5,1,0,,1153846,,,,,,
133010,set_tempo,,,,,5,1,0,,1153846,,,,,,
133015,set_tempo,,,,,5,1,0,,1153846,,,,,,
133030,set_tempo,,,,,15,1,0,,750000,,,,,,
133080,note_on,,,,,240,0,2,,,,,,0,72,0
133080,note_on,,,,,0,0,2,,,,,,0,48,0
133080,note_on,,,,,0,0,2,,,,,,0,60,0
133080,note_on,,,,,0,0,2,,,,,,0,43,0
133080,note_on,,,,,0,0,2,,,,,,0,67,0
133080,note_on,,,,,0,0,2,,,,,,0,63,0
133080,note_on,,,,,240,0,1,,,,,,0,36,0
133195,control_change,,,,,115,0,1,,,,64,0,0,,
133200,note_on,,,,,0,0,2,,,,,,0,72,34
133200,note_on,,,,,0,0,2,,,,,,0,60,34
133200,note_on,,,,,0,0,2,,,,,,0,63,34
133200,note_on,,,,,5,0,1,,,,,,0,36,36
133200,note_on,,,,,0,0,2,,,,,,0,48,34
133200,note_on,,,,,120,0,2,,,,,,0,43,34
133200,note_on,,,,,0,0,2,,,,,,0,67,34
133200,control_change,,,,,0,0,1,,,,64,95,0,,
133330,end_of_track,,,,,0,1,0,,,,,,,,
133330,set_tempo,,,,,300,1,0,,1016949,,,,,,
133440,note_on,,,,,240,0,1,,,,,,0,36,0
133440,note_on,,,,,0,0,2,,,,,,0,63,0
133440,note_on,,,,,0,0,2,,,,,,0,67,0
133440,note_on,,,,,0,0,2,,,,,,0,43,0
133440,note_on,,,,,0,0,2,,,,,,0,48,0
133440,note_on,,,,,240,0,2,,,,,,0,72,0
133440,note_on,,,,,0,0,2,,,,,,0,60,0
133555,control_change,,,,,115,0,1,,,,64,0,0,,
133560,note_on,,,,,5,0,1,,,,,,0,36,30
133560,control_change,,,,,0,0,1,,,,64,96,0,,
133560,note_on,,,,,0,0,2,,,,,,0,67,29
133560,note_on,,,,,0,0,2,,,,,,0,72,29
133560,note_on,,,,,0,0,2,,,,,,0,63,29
133560,note_on,,,,,0,0,2,,,,,,0,60,29
133560,note_on,,,,,0,0,2,,,,,,0,48,29
133560,note_on,,,,,120,0,2,,,,,,0,43,29
133915,control_change,,,,,355,0,1,,,,64,0,0,,
133920,note_on,,,,,0,0,2,,,,,,0,63,0
133920,note_on,,,,,0,0,2,,,,,,0,67,0
133920,note_on,,,,,0,0,2,,,,,,0,43,0
133920,note_on,,,,,0,0,2,,,,,,0,60,0
133920,note_on,,,,,0,0,2,,,,,,0,48,0
133920,note_on,,,,,360,0,2,,,,,,0,72,0
133920,end_of_track,,,,,0,1,1,,,,,,,,
133920,end_of_track,,,,,0,1,2,,,,,,,,
133920,note_on,,,,,5,0,1,,,,,,0,36,0
