tick,type,time,meta,track,numerator,denominator,clocks_per_click,notated_32nd_notes_per_beat,key,tempo,port,program,channel,control,value,note,velocity
0,track_name,0,1,0,,,,,,,,,,,,,
0,program_change,0,0,1,,,,,,,,0,0,,,,
0,control_change,0,0,1,,,,,,,,,0,7,127,,
0,control_change,0,0,1,,,,,,,,,0,10,97,,
0,note_on,0,0,1,,,,,,,,,0,,,69,49
0,control_change,0,0,3,,,,,,,,,2,10,30,,
0,control_change,0,0,3,,,,,,,,,2,7,127,,
0,program_change,0,0,3,,,,,,,,0,2,,,,
0,track_name,0,1,3,,,,,,,,,,,,,
0,midi_port,0,1,3,,,,,,,0,,,,,,
0,track_name,0,1,1,,,,,,,,,,,,,
0,control_change,0,0,2,,,,,,,,,1,7,127,,
0,program_change,0,0,2,,,,,,,,0,1,,,,
0,control_change,0,0,2,,,,,,,,,1,10,97,,
0,midi_port,0,1,2,,,,,,,0,,,,,,
0,copyright,0,1,0,,,,,,,,,,,,,
0,text,0,1,0,,,,,,,,,,,,,
0,time_signature,0,1,0,3,4,24,8,,,,,,,,,
0,key_signature,0,1,0,,,,,C,,,,,,,,
0,track_name,0,1,2,,,,,,,,,,,,,
0,midi_port,0,1,1,,,,,,,0,,,,,,
0,control_change,0,0,4,,,,,,,,,3,10,30,,
0,control_change,0,0,4,,,,,,,,,3,7,127,,
0,program_change,0,0,4,,,,,,,,0,3,,,,
0,track_name,0,1,4,,,,,,,,,,,,,
0,midi_port,0,1,4,,,,,,,0,,,,,,
0,set_tempo,0,1,0,,,,,,319149,,,,,,,
39,note_on,39,0,1,,,,,,,,,0,,,71,49
40,note_on,1,0,1,,,,,,,,,0,,,69,0
79,note_on,39,0,1,,,,,,,,,0,,,71,0
80,note_on,1,0,1,,,,,,,,,0,,,72,49
120,note_on,0,0,1,,,,,,,,,0,,,71,49
120,note_on,40,0,1,,,,,,,,,0,,,72,0
159,note_on,39,0,1,,,,,,,,,0,,,72,49
160,note_on,1,0,1,,,,,,,,,0,,,71,0
199,note_on,39,0,1,,,,,,,,,0,,,72,0
200,note_on,1,0,1,,,,,,,,,0,,,74,49
240,note_on,240,0,3,,,,,,,,,2,,,64,49
240,note_on,40,0,1,,,,,,,,,0,,,74,0
240,note_on,0,0,1,,,,,,,,,0,,,76,75
279,note_on,39,0,3,,,,,,,,,2,,,66,49
280,note_on,1,0,3,,,,,,,,,2,,,64,0
319,note_on,39,0,3,,,,,,,,,2,,,66,0
320,note_on,1,0,3,,,,,,,,,2,,,68,49
360,note_on,0,0,1,,,,,,,,,0,,,69,49
360,note_on,120,0,1,,,,,,,,,0,,,76,0
360,note_on,40,0,3,,,,,,,,,2,,,68,0
360,note_on,0,0,3,,,,,,,,,2,,,66,36
399,note_on,39,0,1,,,,,,,,,0,,,71,49
399,note_on,39,0,3,,,,,,,,,2,,,68,36
400,note_on,1,0,3,,,,,,,,,2,,,66,0
400,note_on,1,0,1,,,,,,,,,0,,,69,0
439,note_on,39,0,1,,,,,,,,,0,,,71,0
439,note_on,39,0,3,,,,,,,,,2,,,68,0
440,note_on,1,0,3,,,,,,,,,2,,,69,36
440,note_on,1,0,1,,,,,,,,,0,,,72,49
480,note_on,40,0,1,,,,,,,,,0,,,72,0
480,note_on,0,0,1,,,,,,,,,0,,,71,49
480,note_on,40,0,3,,,,,,,,,2,,,69,0
480,note_on,0,0,3,,,,,,,,,2,,,71,75
519,note_on,39,0,1,,,,,,,,,0,,,72,49
520,note_on,1,0,1,,,,,,,,,0,,,71,0
559,note_on,39,0,1,,,,,,,,,0,,,72,0
560,note_on,1,0,1,,,,,,,,,0,,,74,49
600,note_on,0,0,3,,,,,,,,,2,,,64,49
600,note_on,40,0,1,,,,,,,,,0,,,74,0
600,note_on,0,0,1,,,,,,,,,0,,,76,75
600,note_on,120,0,3,,,,,,,,,2,,,71,0
639,note_on,39,0,3,,,,,,,,,2,,,66,49
640,note_on,1,0,3,,,,,,,,,2,,,64,0
679,note_on,39,0,3,,,,,,,,,2,,,66,0
680,note_on,1,0,3,,,,,,,,,2,,,68,49
720,note_on,0,0,1,,,,,,,,,0,,,69,49
720,note_on,120,0,1,,,,,,,,,0,,,76,0
720,note_on,40,0,3,,,,,,,,,2,,,68,0
720,note_on,0,0,3,,,,,,,,,2,,,66,36
759,note_on,39,0,3,,,,,,,,,2,,,68,36
759,note_on,39,0,1,,,,,,,,,0,,,71,49
760,note_on,1,0,3,,,,,,,,,2,,,66,0
760,note_on,1,0,1,,,,,,,,,0,,,69,0
799,note_on,39,0,1,,,,,,,,,0,,,71,0
799,note_on,39,0,3,,,,,,,,,2,,,68,0
800,note_on,1,0,3,,,,,,,,,2,,,69,36
800,note_on,1,0,1,,,,,,,,,0,,,72,49
840,note_on,40,0,1,,,,,,,,,0,,,72,0
840,note_on,0,0,3,,,,,,,,,2,,,71,62
840,note_on,0,0,1,,,,,,,,,0,,,71,49
840,note_on,40,0,3,,,,,,,,,2,,,69,0
879,note_on,39,0,1,,,,,,,,,0,,,72,49
880,note_on,1,0,1,,,,,,,,,0,,,71,0
919,note_on,39,0,1,,,,,,,,,0,,,72,0
920,note_on,1,0,1,,,,,,,,,0,,,74,49
960,note_on,120,0,3,,,,,,,,,2,,,71,0
960,note_on,0,0,3,,,,,,,,,2,,,69,36
960,note_on,0,0,1,,,,,,,,,0,,,72,49
960,note_on,40,0,1,,,,,,,,,0,,,74,0
999,note_on,39,0,3,,,,,,,,,2,,,71,36
999,note_on,39,0,1,,,,,,,,,0,,,74,49
1000,note_on,1,0,3,,,,,,,,,2,,,69,0
1000,note_on,1,0,1,,,,,,,,,0,,,72,0
1039,note_on,39,0,3,,,,,,,,,2,,,71,0
1039,note_on,39,0,1,,,,,,,,,0,,,74,0
1040,note_on,1,0,3,,,,,,,,,2,,,72,36
1040,note_on,1,0,1,,,,,,,,,0,,,76,49
1080,note_on,40,0,1,,,,,,,,,0,,,76,0
1080,note_on,0,0,1,,,,,,,,,0,,,77,49
1080,note_on,0,0,3,,,,,,,,,2,,,74,36
1080,control_change,0,0,3,,,,,,,,,2,64,127,,
1080,note_on,40,0,3,,,,,,,,,2,,,72,0
1080,control_change,0,0,1,,,,,,,,,0,64,127,,
1119,note_on,39,0,3,,,,,,,,,2,,,76,36
1119,note_on,39,0,1,,,,,,,,,0,,,79,49
1120,note_on,1,0,1,,,,,,,,,0,,,77,0
1120,note_on,1,0,3,,,,,,,,,2,,,74,0
1159,note_on,39,0,1,,,,,,,,,0,,,79,0
1159,note_on,39,0,3,,,,,,,,,2,,,76,0
1160,note_on,1,0,3,,,,,,,,,2,,,77,36
1160,note_on,1,0,1,,,,,,,,,0,,,81,49
1200,control_change,0,0,3,,,,,,,,,2,64,0,,
1200,note_on,0,0,3,,,,,,,,,2,,,76,36
1200,note_on,40,0,3,,,,,,,,,2,,,77,0
1200,note_on,40,0,1,,,,,,,,,0,,,81,0
1200,note_on,0,0,1,,,,,,,,,0,,,79,49
1200,control_change,0,0,1,,,,,,,,,0,64,0,,
1239,note_on,39,0,3,,,,,,,,,2,,,74,36
1239,note_on,39,0,1,,,,,,,,,0,,,77,49
1240,note_on,1,0,1,,,,,,,,,0,,,79,0
1240,note_on,1,0,3,,,,,,,,,2,,,76,0
1279,note_on,39,0,1,,,,,,,,,0,,,77,0
1279,note_on,39,0,3,,,,,,,,,2,,,74,0
1280,note_on,1,0,1,,,,,,,,,0,,,76,49
1280,note_on,1,0,3,,,,,,,,,2,,,72,36
1320,note_on,40,0,1,,,,,,,,,0,,,76,0
1320,note_on,0,0,1,,,,,,,,,0,,,74,49
1320,note_on,0,0,3,,,,,,,,,2,,,71,36
1320,note_on,40,0,3,,,,,,,,,2,,,72,0
1359,note_on,39,0,3,,,,,,,,,2,,,69,36
1359,note_on,39,0,1,,,,,,,,,0,,,72,49
1360,note_on,1,0,3,,,,,,,,,2,,,71,0
1360,note_on,1,0,1,,,,,,,,,0,,,74,0
1399,note_on,39,0,3,,,,,,,,,2,,,69,0
1399,note_on,39,0,1,,,,,,,,,0,,,72,0
1400,note_on,1,0,1,,,,,,,,,0,,,71,49
1400,note_on,1,0,3,,,,,,,,,2,,,67,36
1440,control_change,0,0,1,,,,,,,,,0,64,127,,
1440,note_on,0,0,1,,,,,,,,,0,,,69,49
1440,note_on,40,0,3,,,,,,,,,2,,,67,0
1440,note_on,40,0,1,,,,,,,,,0,,,71,0
1440,note_on,0,0,3,,,,,,,,,2,,,65,49
1452,note_on,12,0,3,,,,,,,,,2,,,65,0
1479,note_on,39,0,1,,,,,,,,,0,,,71,49
1480,note_on,1,0,1,,,,,,,,,0,,,69,0
1519,note_on,39,0,1,,,,,,,,,0,,,71,0
1520,note_on,1,0,1,,,,,,,,,0,,,72,49
1560,note_on,108,0,3,,,,,,,,,2,,,60,49
1560,note_on,40,0,1,,,,,,,,,0,,,72,0
1560,note_on,0,0,1,,,,,,,,,0,,,71,49
1560,control_change,0,0,1,,,,,,,,,0,64,0,,
1572,note_on,12,0,3,,,,,,,,,2,,,60,0
1599,note_on,39,0,1,,,,,,,,,0,,,69,49
1600,note_on,1,0,1,,,,,,,,,0,,,71,0
1639,note_on,39,0,1,,,,,,,,,0,,,69,0
1640,note_on,1,0,1,,,,,,,,,0,,,67,49
1680,note_on,108,0,3,,,,,,,,,2,,,57,49
1680,note_on,0,0,1,,,,,,,,,0,,,65,49
1680,note_on,40,0,1,,,,,,,,,0,,,67,0
1692,note_on,12,0,3,,,,,,,,,2,,,57,0
1719,note_on,39,0,1,,,,,,,,,0,,,64,49
1720,note_on,1,0,1,,,,,,,,,0,,,65,0
1759,note_on,39,0,1,,,,,,,,,0,,,64,0
1760,note_on,1,0,1,,,,,,,,,0,,,63,49
1800,control_change,108,0,3,,,,,,,,,2,64,127,,
1800,note_on,40,0,1,,,,,,,,,0,,,63,0
1800,note_on,0,0,3,,,,,,,,,2,,,56,49
1800,note_on,0,0,1,,,,,,,,,0,,,64,75
1839,note_on,39,0,3,,,,,,,,,2,,,54,49
1840,note_on,1,0,3,,,,,,,,,2,,,56,0
1879,note_on,39,0,3,,,,,,,,,2,,,54,0
1880,note_on,1,0,3,,,,,,,,,2,,,52,49
1920,note_on,0,0,3,,,,,,,,,2,,,51,49
1920,note_on,40,0,3,,,,,,,,,2,,,52,0
1920,note_on,120,0,1,,,,,,,,,0,,,64,0
1959,note_on,39,0,3,,,,,,,,,2,,,49,49
1960,note_on,1,0,3,,,,,,,,,2,,,51,0
1999,note_on,39,0,3,,,,,,,,,2,,,49,0
2000,note_on,0,0,3,,,,,,,,,2,,,47,49
2000,control_change,1,0,3,,,,,,,,,2,64,0,,
2040,note_on,40,0,3,,,,,,,,,2,,,47,0
2040,note_on,0,0,3,,,,,,,,,2,,,57,75
2040,note_on,120,0,1,,,,,,,,,0,,,59,75
2079,note_on,39,0,1,,,,,,,,,0,,,61,49
2080,note_on,1,0,1,,,,,,,,,0,,,59,0
2119,note_on,39,0,1,,,,,,,,,0,,,61,0
2120,note_on,1,0,1,,,,,,,,,0,,,63,49
2160,note_on,120,0,3,,,,,,,,,2,,,57,0
2160,control_change,0,0,1,,,,,,,,,0,64,127,,
2160,note_on,0,0,1,,,,,,,,,0,,,64,49
2160,note_on,0,0,3,,,,,,,,,2,,,56,36
2160,note_on,40,0,1,,,,,,,,,0,,,63,0
2160,control_change,0,0,3,,,,,,,,,2,64,127,,
2199,note_on,39,0,1,,,,,,,,,0,,,66,49
2199,note_on,39,0,3,,,,,,,,,2,,,54,36
2200,note_on,1,0,3,,,,,,,,,2,,,56,0
2200,note_on,1,0,1,,,,,,,,,0,,,64,0
2239,note_on,39,0,1,,,,,,,,,0,,,66,0
2239,note_on,39,0,3,,,,,,,,,2,,,54,0
2240,note_on,1,0,3,,,,,,,,,2,,,52,36
2240,note_on,1,0,1,,,,,,,,,0,,,68,49
2280,note_on,0,0,3,,,,,,,,,2,,,51,49
2280,note_on,40,0,3,,,,,,,,,2,,,52,0
2280,note_on,40,0,1,,,,,,,,,0,,,68,0
2280,note_on,0,0,1,,,,,,,,,0,,,69,75
2319,note_on,39,0,3,,,,,,,,,2,,,49,49
2320,note_on,1,0,3,,,,,,,,,2,,,51,0
2359,note_on,39,0,3,,,,,,,,,2,,,49,0
2360,control_change,1,0,3,,,,,,,,,2,64,0,,
2360,note_on,0,0,3,,,,,,,,,2,,,47,49
2400,note_on,0,0,1,,,,,,,,,0,,,59,75
2400,note_on,0,0,3,,,,,,,,,2,,,57,75
2400,note_on,120,0,1,,,,,,,,,0,,,69,0
2400,control_change,0,0,1,,,,,,,,,0,64,0,,
2400,note_on,40,0,3,,,,,,,,,2,,,47,0
2439,note_on,39,0,1,,,,,,,,,0,,,61,49
2440,note_on,1,0,1,,,,,,,,,0,,,59,0
2479,note_on,39,0,1,,,,,,,,,0,,,61,0
2480,note_on,1,0,1,,,,,,,,,0,,,63,49
2520,note_on,0,0,1,,,,,,,,,0,,,64,49
2520,note_on,40,0,1,,,,,,,,,0,,,63,0
2520,control_change,0,0,3,,,,,,,,,2,64,127,,
2520,note_on,0,0,3,,,,,,,,,2,,,56,36
2520,control_change,0,0,1,,,,,,,,,0,64,127,,
2520,note_on,120,0,3,,,,,,,,,2,,,57,0
2559,note_on,39,0,1,,,,,,,,,0,,,66,49
2559,note_on,39,0,3,,,,,,,,,2,,,54,36
2560,note_on,1,0,1,,,,,,,,,0,,,64,0
2560,note_on,1,0,3,,,,,,,,,2,,,56,0
2599,note_on,39,0,1,,,,,,,,,0,,,66,0
2599,note_on,39,0,3,,,,,,,,,2,,,54,0
2600,note_on,1,0,1,,,,,,,,,0,,,68,49
2600,note_on,1,0,3,,,,,,,,,2,,,52,36
2640,note_on,40,0,3,,,,,,,,,2,,,52,0
2640,note_on,0,0,3,,,,,,,,,2,,,51,49
2640,note_on,40,0,1,,,,,,,,,0,,,68,0
2640,note_on,0,0,1,,,,,,,,,0,,,69,75
2679,note_on,39,0,3,,,,,,,,,2,,,49,49
2680,note_on,1,0,3,,,,,,,,,2,,,51,0
2719,note_on,39,0,3,,,,,,,,,2,,,49,0
2720,note_on,0,0,3,,,,,,,,,2,,,47,49
2720,control_change,1,0,3,,,,,,,,,2,64,0,,
2760,note_on,120,0,1,,,,,,,,,0,,,69,0
2760,control_change,0,0,1,,,,,,,,,0,64,0,,
2760,note_on,0,0,1,,,,,,,,,0,,,59,75
2760,note_on,0,0,3,,,,,,,,,2,,,57,75
2760,note_on,40,0,3,,,,,,,,,2,,,47,0
2799,note_on,39,0,1,,,,,,,,,0,,,61,49
2800,note_on,1,0,1,,,,,,,,,0,,,59,0
2839,note_on,39,0,1,,,,,,,,,0,,,61,0
2840,note_on,1,0,1,,,,,,,,,0,,,63,49
2880,note_on,0,0,1,,,,,,,,,0,,,64,49
2880,control_change,0,0,3,,,,,,,,,2,64,127,,
2880,note_on,0,0,3,,,,,,,,,2,,,56,49
2880,note_on,120,0,3,,,,,,,,,2,,,57,0
2880,note_on,40,0,1,,,,,,,,,0,,,63,0
2880,control_change,0,0,1,,,,,,,,,0,64,127,,
2919,note_on,39,0,3,,,,,,,,,2,,,54,49
2919,note_on,39,0,1,,,,,,,,,0,,,66,49
2920,note_on,1,0,3,,,,,,,,,2,,,56,0
2920,note_on,1,0,1,,,,,,,,,0,,,64,0
2959,note_on,39,0,3,,,,,,,,,2,,,54,0
2959,note_on,39,0,1,,,,,,,,,0,,,66,0
2960,note_on,1,0,1,,,,,,,,,0,,,68,49
2960,note_on,1,0,3,,,,,,,,,2,,,52,49
3000,note_on,40,0,3,,,,,,,,,2,,,52,0
3000,note_on,0,0,3,,,,,,,,,2,,,54,49
3000,control_change,0,0,3,,,,,,,,,2,64,0,,
3000,note_on,40,0,1,,,,,,,,,0,,,68,0
3000,control_change,0,0,1,,,,,,,,,0,64,0,,
3000,note_on,0,0,1,,,,,,,,,0,,,66,49
3039,note_on,39,0,3,,,,,,,,,2,,,52,49
3039,note_on,39,0,1,,,,,,,,,0,,,68,49
3040,note_on,1,0,1,,,,,,,,,0,,,66,0
3040,note_on,1,0,3,,,,,,,,,2,,,54,0
3079,note_on,39,0,1,,,,,,,,,0,,,68,0
3079,note_on,39,0,3,,,,,,,,,2,,,52,0
3080,note_on,1,0,3,,,,,,,,,2,,,51,49
3080,note_on,1,0,1,,,,,,,,,0,,,69,49
3120,note_on,40,0,3,,,,,,,,,2,,,51,0
3120,note_on,0,0,3,,,,,,,,,2,,,52,49
3120,note_on,40,0,1,,,,,,,,,0,,,69,0
3120,note_on,0,0,1,,,,,,,,,0,,,68,62
3159,note_on,39,0,3,,,,,,,,,2,,,51,49
3159,note_on,39,0,1,,,,,,,,,0,,,69,62
3160,note_on,1,0,1,,,,,,,,,0,,,68,0
3160,note_on,1,0,3,,,,,,,,,2,,,52,0
3199,note_on,39,0,1,,,,,,,,,0,,,69,0
3199,note_on,39,0,3,,,,,,,,,2,,,51,0
3200,note_on,1,0,1,,,,,,,,,0,,,71,62
3200,note_on,1,0,3,,,,,,,,,2,,,50,49
3240,note_on,0,0,1,,,,,,,,,0,,,69,62
3240,note_on,40,0,1,,,,,,,,,0,,,71,0
3240,note_on,40,0,3,,,,,,,,,2,,,50,0
3240,note_on,0,0,3,,,,,,,,,2,,,52,49
3279,note_on,39,0,3,,,,,,,,,2,,,50,49
3279,note_on,39,0,1,,,,,,,,,0,,,71,62
3280,note_on,1,0,1,,,,,,,,,0,,,69,0
3280,note_on,1,0,3,,,,,,,,,2,,,52,0
3319,note_on,39,0,1,,,,,,,,,0,,,71,0
3319,note_on,39,0,3,,,,,,,,,2,,,50,0
3320,note_on,1,0,1,,,,,,,,,0,,,72,62
3320,note_on,1,0,3,,,,,,,,,2,,,48,49
3360,note_on,40,0,3,,,,,,,,,2,,,48,0
3360,note_on,0,0,3,,,,,,,,,2,,,50,62
3360,note_on,0,0,1,,,,,,,,,0,,,71,75
3360,note_on,40,0,1,,,,,,,,,0,,,72,0
3399,note_on,39,0,3,,,,,,,,,2,,,48,62
3399,note_on,39,0,1,,,,,,,,,0,,,72,75
3400,note_on,1,0,1,,,,,,,,,0,,,71,0
3400,note_on,1,0,3,,,,,,,,,2,,,50,0
3439,note_on,39,0,1,,,,,,,,,0,,,72,0
3439,note_on,39,0,3,,,,,,,,,2,,,48,0
3440,note_on,1,0,1,,,,,,,,,0,,,74,75
3440,note_on,1,0,3,,,,,,,,,2,,,47,62
3480,note_on,0,0,1,,,,,,,,,0,,,72,75
3480,note_on,40,0,1,,,,,,,,,0,,,74,0
3480,note_on,40,0,3,,,,,,,,,2,,,47,0
3480,note_on,0,0,3,,,,,,,,,2,,,48,62
3519,note_on,39,0,3,,,,,,,,,2,,,47,62
3519,note_on,39,0,1,,,,,,,,,0,,,74,75
3520,note_on,1,0,1,,,,,,,,,0,,,72,0
3520,note_on,1,0,3,,,,,,,,,2,,,48,0
3559,note_on,39,0,3,,,,,,,,,2,,,47,0
3559,note_on,39,0,1,,,,,,,,,0,,,74,0
3560,note_on,1,0,1,,,,,,,,,0,,,76,75
3560,note_on,1,0,3,,,,,,,,,2,,,45,62
3600,control_change,3600,0,4,,,,,,,,,3,64,127,,
3600,note_on,0,0,3,,,,,,,,,2,,,44,75
3600,note_on,0,0,1,,,,,,,,,0,,,77,88
3600,control_change,0,0,1,,,,,,,,,0,64,127,,
3600,note_on,40,0,1,,,,,,,,,0,,,76,0
3600,control_change,0,0,3,,,,,,,,,2,64,127,,
3600,control_change,3600,0,2,,,,,,,,,1,64,127,,
3600,note_on,40,0,3,,,,,,,,,2,,,45,0
3639,note_on,39,0,3,,,,,,,,,2,,,45,75
3639,note_on,39,0,1,,,,,,,,,0,,,76,88
3640,note_on,1,0,3,,,,,,,,,2,,,44,0
3640,note_on,1,0,1,,,,,,,,,0,,,77,0
3679,note_on,39,0,3,,,,,,,,,2,,,45,0
3679,note_on,39,0,1,,,,,,,,,0,,,76,0
3680,note_on,1,0,3,,,,,,,,,2,,,47,75
3680,note_on,1,0,1,,,,,,,,,0,,,74,88
3720,note_on,120,0,2,,,,,,,,,1,,,83,114
3720,note_on,40,0,3,,,,,,,,,2,,,47,0
3720,note_on,0,0,3,,,,,,,,,2,,,44,75
3720,note_on,120,0,4,,,,,,,,,3,,,38,101
3720,note_on,40,0,1,,,,,,,,,0,,,74,0
3720,note_on,0,0,1,,,,,,,,,0,,,77,88
3759,note_on,39,0,3,,,,,,,,,2,,,45,75
3759,note_on,39,0,1,,,,,,,,,0,,,76,88
3760,note_on,1,0,3,,,,,,,,,2,,,44,0
3760,note_on,1,0,1,,,,,,,,,0,,,77,0
3799,note_on,39,0,3,,,,,,,,,2,,,45,0
3799,note_on,39,0,1,,,,,,,,,0,,,76,0
3800,note_on,1,0,1,,,,,,,,,0,,,74,88
3800,note_on,1,0,3,,,,,,,,,2,,,47,75
3840,note_on,0,0,3,,,,,,,,,2,,,44,75
3840,note_on,40,0,3,,,,,,,,,2,,,47,0
3840,note_on,0,0,1,,,,,,,,,0,,,77,88
3840,note_on,40,0,1,,,,,,,,,0,,,74,0
3840,note_on,120,0,2,,,,,,,,,1,,,83,0
3840,note_on,0,0,2,,,,,,,,,1,,,83,114
3840,note_on,120,0,4,,,,,,,,,3,,,38,0
3840,note_on,0,0,4,,,,,,,,,3,,,38,101
3879,note_on,39,0,1,,,,,,,,,0,,,76,88
3879,note_on,39,0,3,,,,,,,,,2,,,45,75
3880,note_on,1,0,3,,,,,,,,,2,,,44,0
3880,note_on,1,0,1,,,,,,,,,0,,,77,0
3919,note_on,39,0,1,,,,,,,,,0,,,76,0
3919,note_on,39,0,3,,,,,,,,,2,,,45,0
3920,note_on,1,0,1,,,,,,,,,0,,,74,88
3920,note_on,1,0,3,,,,,,,,,2,,,47,75
3960,note_on,120,0,2,,,,,,,,,1,,,83,0
3960,note_on,0,0,2,,,,,,,,,1,,,83,114
3960,note_on,0,0,4,,,,,,,,,3,,,38,101
3960,note_on,120,0,4,,,,,,,,,3,,,38,0
3960,note_on,40,0,3,,,,,,,,,2,,,47,0
3960,note_on,0,0,3,,,,,,,,,2,,,44,88
3960,note_on,40,0,1,,,,,,,,,0,,,74,0
3960,note_on,0,0,1,,,,,,,,,0,,,77,101
3999,note_on,39,0,3,,,,,,,,,2,,,45,88
3999,note_on,39,0,1,,,,,,,,,0,,,76,101
4000,note_on,1,0,3,,,,,,,,,2,,,44,0
4000,note_on,1,0,1,,,,,,,,,0,,,77,0
4039,note_on,39,0,3,,,,,,,,,2,,,45,0
4039,note_on,39,0,1,,,,,,,,,0,,,76,0
4040,note_on,1,0,3,,,,,,,,,2,,,47,88
4040,note_on,1,0,1,,,,,,,,,0,,,74,101
4080,note_on,40,0,3,,,,,,,,,2,,,47,0
4080,note_on,0,0,2,,,,,,,,,1,,,83,114
4080,note_on,120,0,2,,,,,,,,,1,,,83,0
4080,note_on,0,0,3,,,,,,,,,2,,,44,88
4080,note_on,0,0,1,,,,,,,,,0,,,77,101
4080,note_on,40,0,1,,,,,,,,,0,,,74,0
4080,note_on,0,0,4,,,,,,,,,3,,,38,101
4080,note_on,120,0,4,,,,,,,,,3,,,38,0
4119,note_on,39,0,1,,,,,,,,,0,,,76,101
4119,note_on,39,0,3,,,,,,,,,2,,,45,88
4120,note_on,1,0,1,,,,,,,,,0,,,77,0
4120,note_on,1,0,3,,,,,,,,,2,,,44,0
4159,note_on,39,0,3,,,,,,,,,2,,,45,0
4159,note_on,39,0,1,,,,,,,,,0,,,76,0
4160,note_on,1,0,1,,,,,,,,,0,,,74,101
4160,note_on,1,0,3,,,,,,,,,2,,,47,88
4200,note_on,0,0,4,,,,,,,,,3,,,38,101
4200,control_change,0,0,2,,,,,,,,,1,64,0,,
4200,note_on,120,0,2,,,,,,,,,1,,,83,0
4200,note_on,40,0,1,,,,,,,,,0,,,74,0
4200,note_on,0,0,1,,,,,,,,,0,,,77,101
4200,note_on,0,0,2,,,,,,,,,1,,,83,114
4200,note_on,0,0,3,,,,,,,,,2,,,44,88
4200,note_on,120,0,4,,,,,,,,,3,,,38,0
4200,control_change,0,0,4,,,,,,,,,3,64,0,,
4200,note_on,40,0,3,,,,,,,,,2,,,47,0
4239,note_on,39,0,1,,,,,,,,,0,,,76,101
4239,note_on,39,0,3,,,,,,,,,2,,,45,88
4240,note_on,1,0,3,,,,,,,,,2,,,44,0
4240,note_on,1,0,1,,,,,,,,,0,,,77,0
4279,note_on,39,0,1,,,,,,,,,0,,,76,0
4279,note_on,39,0,3,,,,,,,,,2,,,45,0
4280,note_on,1,0,1,,,,,,,,,0,,,74,101
4280,note_on,1,0,3,,,,,,,,,2,,,47,88
4320,note_on,0,0,3,,,,,,,,,2,,,44,127
4320,note_on,0,0,3,,,,,,,,,2,,,32,119
4320,note_on,120,0,4,,,,,,,,,3,,,38,0
4320,note_on,120,0,2,,,,,,,,,1,,,83,0
4320,note_on,0,0,2,,,,,,,,,1,,,83,114
4320,note_on,40,0,3,,,,,,,,,2,,,47,0
4320,note_on,40,0,1,,,,,,,,,0,,,74,0
4320,control_change,0,0,3,,,,,,,,,2,64,0,,
4320,note_on,0,0,1,,,,,,,,,0,,,77,114
4359,note_on,39,0,1,,,,,,,,,0,,,76,114
4360,note_on,1,0,1,,,,,,,,,0,,,77,0
4399,note_on,39,0,1,,,,,,,,,0,,,76,0
4400,note_on,0,0,1,,,,,,,,,0,,,74,114
4400,control_change,1,0,1,,,,,,,,,0,64,0,,
4440,note_on,0,0,3,,,,,,,,,2,,,32,0
4440,note_on,120,0,2,,,,,,,,,1,,,83,0
4440,note_on,120,0,3,,,,,,,,,2,,,44,0
4440,note_on,40,0,1,,,,,,,,,0,,,74,0
4440,note_on,0,0,1,,,,,,,,,0,,,77,101
4479,note_on,39,0,1,,,,,,,,,0,,,76,101
4480,note_on,1,0,1,,,,,,,,,0,,,77,0
4519,note_on,39,0,1,,,,,,,,,0,,,76,0
4520,note_on,1,0,1,,,,,,,,,0,,,74,101
4560,note_on,0,0,1,,,,,,,,,0,,,77,88
4560,note_on,40,0,1,,,,,,,,,0,,,74,0
4599,note_on,39,0,1,,,,,,,,,0,,,76,88
4600,note_on,1,0,1,,,,,,,,,0,,,77,0
4620,set_tempo,4620,1,0,,,,,,333333,,,,,,,
4639,note_on,39,0,1,,,,,,,,,0,,,76,0
4640,note_on,1,0,1,,,,,,,,,0,,,74,88
4680,set_tempo,60,1,0,,,,,,348837,,,,,,,
4680,note_on,40,0,1,,,,,,,,,0,,,74,0
4680,note_on,0,0,1,,,,,,,,,0,,,77,75
4719,note_on,39,0,1,,,,,,,,,0,,,76,75
4720,note_on,1,0,1,,,,,,,,,0,,,77,0
4740,set_tempo,60,1,0,,,,,,365854,,,,,,,
4759,note_on,39,0,1,,,,,,,,,0,,,76,0
4760,note_on,1,0,1,,,,,,,,,0,,,74,75
4800,note_on,0,0,1,,,,,,,,,0,,,76,62
4800,set_tempo,60,1,0,,,,,,384615,,,,,,,
4800,note_on,40,0,1,,,,,,,,,0,,,74,0
4839,note_on,39,0,1,,,,,,,,,0,,,74,62
4840,note_on,1,0,1,,,,,,,,,0,,,76,0
4860,set_tempo,60,1,0,,,,,,405405,,,,,,,
4879,note_on,39,0,1,,,,,,,,,0,,,74,0
4880,note_on,1,0,1,,,,,,,,,0,,,72,62
4920,note_on,40,0,1,,,,,,,,,0,,,72,0
4920,set_tempo,60,1,0,,,,,,428571,,,,,,,
4920,note_on,0,0,1,,,,,,,,,0,,,74,49
4959,note_on,39,0,1,,,,,,,,,0,,,72,49
4960,note_on,1,0,1,,,,,,,,,0,,,74,0
4980,set_tempo,60,1,0,,,,,,454545,,,,,,,
4999,note_on,39,0,1,,,,,,,,,0,,,72,0
5000,note_on,1,0,1,,,,,,,,,0,,,71,49
5040,note_on,0,0,1,,,,,,,,,0,,,69,49
5040,note_on,40,0,1,,,,,,,,,0,,,71,0
5040,set_tempo,60,1,0,,,,,,333333,,,,,,,
5079,note_on,39,0,1,,,,,,,,,0,,,71,49
5080,note_on,1,0,1,,,,,,,,,0,,,69,0
5119,note_on,39,0,1,,,,,,,,,0,,,71,0
5120,note_on,1,0,1,,,,,,,,,0,,,72,49
5160,note_on,40,0,1,,,,,,,,,0,,,72,0
5160,note_on,0,0,1,,,,,,,,,0,,,71,49
5199,note_on,39,0,1,,,,,,,,,0,,,72,49
5200,note_on,1,0,1,,,,,,,,,0,,,71,0
5239,note_on,39,0,1,,,,,,,,,0,,,72,0
5240,note_on,1,0,1,,,,,,,,,0,,,74,49
5280,note_on,0,0,1,,,,,,,,,0,,,76,75
5280,note_on,40,0,1,,,,,,,,,0,,,74,0
5280,note_on,840,0,3,,,,,,,,,2,,,64,49
5319,note_on,39,0,3,,,,,,,,,2,,,66,49
5320,note_on,1,0,3,,,,,,,,,2,,,64,0
5359,note_on,39,0,3,,,,,,,,,2,,,66,0
5360,note_on,1,0,3,,,,,,,,,2,,,68,49
5400,note_on,0,0,3,,,,,,,,,2,,,66,36
5400,note_on,40,0,3,,,,,,,,,2,,,68,0
5400,note_on,0,0,1,,,,,,,,,0,,,69,49
5400,note_on,120,0,1,,,,,,,,,0,,,76,0
5439,note_on,39,0,1,,,,,,,,,0,,,71,49
5439,note_on,39,0,3,,,,,,,,,2,,,68,36
5440,note_on,1,0,1,,,,,,,,,0,,,69,0
5440,note_on,1,0,3,,,,,,,,,2,,,66,0
5479,note_on,39,0,3,,,,,,,,,2,,,68,0
5479,note_on,39,0,1,,,,,,,,,0,,,71,0
5480,note_on,1,0,3,,,,,,,,,2,,,69,36
5480,note_on,1,0,1,,,,,,,,,0,,,72,49
5520,note_on,40,0,1,,,,,,,,,0,,,72,0
5520,note_on,0,0,1,,,,,,,,,0,,,71,49
5520,note_on,0,0,3,,,,,,,,,2,,,71,75
5520,note_on,40,0,3,,,,,,,,,2,,,69,0
5559,note_on,39,0,1,,,,,,,,,0,,,72,49
5560,note_on,1,0,1,,,,,,,,,0,,,71,0
5599,note_on,39,0,1,,,,,,,,,0,,,72,0
5600,note_on,1,0,1,,,,,,,,,0,,,74,49
5640,note_on,0,0,3,,,,,,,,,2,,,64,49
5640,note_on,120,0,3,,,,,,,,,2,,,71,0
5640,note_on,40,0,1,,,,,,,,,0,,,74,0
5640,note_on,0,0,1,,,,,,,,,0,,,76,75
5679,note_on,39,0,3,,,,,,,,,2,,,66,49
5680,note_on,1,0,3,,,,,,,,,2,,,64,0
5719,note_on,39,0,3,,,,,,,,,2,,,66,0
5720,note_on,1,0,3,,,,,,,,,2,,,68,49
5760,note_on,0,0,3,,,,,,,,,2,,,66,36
5760,note_on,40,0,3,,,,,,,,,2,,,68,0
5760,note_on,120,0,1,,,,,,,,,0,,,76,0
5760,note_on,0,0,1,,,,,,,,,0,,,69,49
5799,note_on,39,0,3,,,,,,,,,2,,,68,36
5799,note_on,39,0,1,,,,,,,,,0,,,71,49
5800,note_on,1,0,1,,,,,,,,,0,,,69,0
5800,note_on,1,0,3,,,,,,,,,2,,,66,0
5839,note_on,39,0,1,,,,,,,,,0,,,71,0
5839,note_on,39,0,3,,,,,,,,,2,,,68,0
5840,note_on,1,0,3,,,,,,,,,2,,,69,36
5840,note_on,1,0,1,,,,,,,,,0,,,72,49
5880,note_on,40,0,1,,,,,,,,,0,,,72,0
5880,note_on,40,0,3,,,,,,,,,2,,,69,0
5880,note_on,0,0,3,,,,,,,,,2,,,71,62
5880,note_on,0,0,1,,,,,,,,,0,,,71,49
5919,note_on,39,0,1,,,,,,,,,0,,,72,49
5920,note_on,1,0,1,,,,,,,,,0,,,71,0
5959,note_on,39,0,1,,,,,,,,,0,,,72,0
5960,note_on,1,0,1,,,,,,,,,0,,,74,49
6000,note_on,0,0,3,,,,,,,,,2,,,69,36
6000,note_on,120,0,3,,,,,,,,,2,,,71,0
6000,note_on,0,0,1,,,,,,,,,0,,,72,49
6000,note_on,40,0,1,,,,,,,,,0,,,74,0
6039,note_on,39,0,3,,,,,,,,,2,,,71,36
6039,note_on,39,0,1,,,,,,,,,0,,,74,49
6040,note_on,1,0,1,,,,,,,,,0,,,72,0
6040,note_on,1,0,3,,,,,,,,,2,,,69,0
6079,note_on,39,0,1,,,,,,,,,0,,,74,0
6079,note_on,39,0,3,,,,,,,,,2,,,71,0
6080,note_on,1,0,1,,,,,,,,,0,,,76,49
6080,note_on,1,0,3,,,,,,,,,2,,,72,36
6120,note_on,0,0,3,,,,,,,,,2,,,74,36
6120,control_change,0,0,3,,,,,,,,,2,64,127,,
6120,note_on,40,0,3,,,,,,,,,2,,,72,0
6120,control_change,0,0,1,,,,,,,,,0,64,127,,
6120,note_on,40,0,1,,,,,,,,,0,,,76,0
6120,note_on,0,0,1,,,,,,,,,0,,,77,49
6159,note_on,39,0,3,,,,,,,,,2,,,76,36
6159,note_on,39,0,1,,,,,,,,,0,,,79,49
6160,note_on,1,0,1,,,,,,,,,0,,,77,0
6160,note_on,1,0,3,,,,,,,,,2,,,74,0
6199,note_on,39,0,1,,,,,,,,,0,,,79,0
6199,note_on,39,0,3,,,,,,,,,2,,,76,0
6200,note_on,1,0,1,,,,,,,,,0,,,81,49
6200,note_on,1,0,3,,,,,,,,,2,,,77,36
6240,control_change,0,0,1,,,,,,,,,0,64,0,,
6240,note_on,40,0,1,,,,,,,,,0,,,81,0
6240,note_on,40,0,3,,,,,,,,,2,,,77,0
6240,note_on,0,0,3,,,,,,,,,2,,,76,36
6240,note_on,0,0,1,,,,,,,,,0,,,79,49
6240,control_change,0,0,3,,,,,,,,,2,64,0,,
6279,note_on,39,0,3,,,,,,,,,2,,,74,36
6279,note_on,39,0,1,,,,,,,,,0,,,77,49
6280,note_on,1,0,1,,,,,,,,,0,,,79,0
6280,note_on,1,0,3,,,,,,,,,2,,,76,0
6319,note_on,39,0,3,,,,,,,,,2,,,74,0
6319,note_on,39,0,1,,,,,,,,,0,,,77,0
6320,note_on,1,0,3,,,,,,,,,2,,,72,36
6320,note_on,1,0,1,,,,,,,,,0,,,76,49
6360,note_on,40,0,3,,,,,,,,,2,,,72,0
6360,note_on,0,0,3,,,,,,,,,2,,,71,36
6360,note_on,0,0,1,,,,,,,,,0,,,74,49
6360,note_on,40,0,1,,,,,,,,,0,,,76,0
6399,note_on,39,0,3,,,,,,,,,2,,,69,36
6399,note_on,39,0,1,,,,,,,,,0,,,72,49
6400,note_on,1,0,3,,,,,,,,,2,,,71,0
6400,note_on,1,0,1,,,,,,,,,0,,,74,0
6439,note_on,39,0,3,,,,,,,,,2,,,69,0
6439,note_on,39,0,1,,,,,,,,,0,,,72,0
6440,note_on,1,0,1,,,,,,,,,0,,,71,49
6440,note_on,1,0,3,,,,,,,,,2,,,67,36
6480,note_on,0,0,3,,,,,,,,,2,,,65,49
6480,note_on,0,0,1,,,,,,,,,0,,,69,49
6480,note_on,40,0,3,,,,,,,,,2,,,67,0
6480,control_change,0,0,1,,,,,,,,,0,64,127,,
6480,note_on,40,0,1,,,,,,,,,0,,,71,0
6492,note_on,12,0,3,,,,,,,,,2,,,65,0
6519,note_on,39,0,1,,,,,,,,,0,,,71,49
6520,note_on,1,0,1,,,,,,,,,0,,,69,0
6559,note_on,39,0,1,,,,,,,,,0,,,71,0
6560,note_on,1,0,1,,,,,,,,,0,,,72,49
6600,note_on,108,0,3,,,,,,,,,2,,,60,49
6600,note_on,40,0,1,,,,,,,,,0,,,72,0
6600,note_on,0,0,1,,,,,,,,,0,,,71,49
6600,control_change,0,0,1,,,,,,,,,0,64,0,,
6612,note_on,12,0,3,,,,,,,,,2,,,60,0
6639,note_on,39,0,1,,,,,,,,,0,,,69,49
6640,note_on,1,0,1,,,,,,,,,0,,,71,0
6679,note_on,39,0,1,,,,,,,,,0,,,69,0
6680,note_on,1,0,1,,,,,,,,,0,,,67,49
6720,note_on,108,0,3,,,,,,,,,2,,,57,49
6720,note_on,0,0,1,,,,,,,,,0,,,65,49
6720,note_on,40,0,1,,,,,,,,,0,,,67,0
6732,note_on,12,0,3,,,,,,,,,2,,,57,0
6759,note_on,39,0,1,,,,,,,,,0,,,64,49
6760,note_on,1,0,1,,,,,,,,,0,,,65,0
6799,note_on,39,0,1,,,,,,,,,0,,,64,0
6800,note_on,1,0,1,,,,,,,,,0,,,63,49
6840,control_change,108,0,3,,,,,,,,,2,64,127,,
6840,note_on,0,0,3,,,,,,,,,2,,,55,49
6840,note_on,40,0,1,,,,,,,,,0,,,63,0
6840,control_change,0,0,1,,,,,,,,,0,64,127,,
6840,note_on,0,0,1,,,,,,,,,0,,,64,49
6879,note_on,39,0,3,,,,,,,,,2,,,54,49
6879,note_on,39,0,1,,,,,,,,,0,,,66,49
6880,note_on,1,0,3,,,,,,,,,2,,,55,0
6880,note_on,1,0,1,,,,,,,,,0,,,64,0
6919,note_on,39,0,1,,,,,,,,,0,,,66,0
6919,note_on,39,0,3,,,,,,,,,2,,,54,0
6920,note_on,1,0,1,,,,,,,,,0,,,67,49
6920,note_on,1,0,3,,,,,,,,,2,,,52,49
6960,note_on,40,0,1,,,,,,,,,0,,,67,0
6960,note_on,40,0,3,,,,,,,,,2,,,52,0
6960,note_on,0,0,3,,,,,,,,,2,,,51,49
6960,note_on,0,0,1,,,,,,,,,0,,,69,75
6999,note_on,39,0,3,,,,,,,,,2,,,49,49
7000,note_on,1,0,3,,,,,,,,,2,,,51,0
7039,note_on,39,0,3,,,,,,,,,2,,,49,0
7040,control_change,1,0,3,,,,,,,,,2,64,0,,
7040,note_on,0,0,3,,,,,,,,,2,,,47,49
7080,note_on,40,0,3,,,,,,,,,2,,,47,0
7080,note_on,0,0,3,,,,,,,,,2,,,57,75
7080,note_on,0,0,1,,,,,,,,,0,,,59,75
7080,control_change,0,0,1,,,,,,,,,0,64,0,,
7080,note_on,120,0,1,,,,,,,,,0,,,69,0
7119,note_on,39,0,1,,,,,,,,,0,,,61,49
7120,note_on,1,0,1,,,,,,,,,0,,,59,0
7159,note_on,39,0,1,,,,,,,,,0,,,61,0
7160,note_on,1,0,1,,,,,,,,,0,,,63,49
7200,control_change,0,0,3,,,,,,,,,2,64,127,,
7200,note_on,0,0,3,,,,,,,,,2,,,55,36
7200,note_on,0,0,1,,,,,,,,,0,,,64,49
7200,control_change,0,0,1,,,,,,,,,0,64,127,,
7200,note_on,40,0,1,,,,,,,,,0,,,63,0
7200,note_on,120,0,3,,,,,,,,,2,,,57,0
7239,note_on,39,0,3,,,,,,,,,2,,,54,36
7239,note_on,39,0,1,,,,,,,,,0,,,66,49
7240,note_on,1,0,3,,,,,,,,,2,,,55,0
7240,note_on,1,0,1,,,,,,,,,0,,,64,0
7279,note_on,39,0,1,,,,,,,,,0,,,66,0
7279,note_on,39,0,3,,,,,,,,,2,,,54,0
7280,note_on,1,0,1,,,,,,,,,0,,,67,49
7280,note_on,1,0,3,,,,,,,,,2,,,52,36
7320,note_on,40,0,3,,,,,,,,,2,,,52,0
7320,note_on,0,0,1,,,,,,,,,0,,,69,75
7320,note_on,40,0,1,,,,,,,,,0,,,67,0
7320,note_on,0,0,3,,,,,,,,,2,,,51,49
7359,note_on,39,0,3,,,,,,,,,2,,,49,49
7360,note_on,1,0,3,,,,,,,,,2,,,51,0
7399,note_on,39,0,3,,,,,,,,,2,,,49,0
7400,note_on,0,0,3,,,,,,,,,2,,,47,49
7400,control_change,1,0,3,,,,,,,,,2,64,0,,
7440,note_on,0,0,1,,,,,,,,,0,,,59,75
7440,control_change,0,0,1,,,,,,,,,0,64,0,,
7440,note_on,0,0,3,,,,,,,,,2,,,57,75
7440,note_on,120,0,1,,,,,,,,,0,,,69,0
7440,note_on,40,0,3,,,,,,,,,2,,,47,0
7479,note_on,39,0,1,,,,,,,,,0,,,61,49
7480,note_on,1,0,1,,,,,,,,,0,,,59,0
7519,note_on,39,0,1,,,,,,,,,0,,,61,0
7520,note_on,1,0,1,,,,,,,,,0,,,63,49
7560,note_on,120,0,3,,,,,,,,,2,,,57,0
7560,note_on,0,0,1,,,,,,,,,0,,,64,49
7560,note_on,40,0,1,,,,,,,,,0,,,63,0
7560,control_change,0,0,1,,,,,,,,,0,64,127,,
7560,note_on,0,0,3,,,,,,,,,2,,,55,49
7560,control_change,0,0,3,,,,,,,,,2,64,127,,
7599,note_on,39,0,1,,,,,,,,,0,,,66,49
7599,note_on,39,0,3,,,,,,,,,2,,,54,49
7600,note_on,1,0,1,,,,,,,,,0,,,64,0
7600,note_on,1,0,3,,,,,,,,,2,,,55,0
7639,note_on,39,0,1,,,,,,,,,0,,,66,0
7639,note_on,39,0,3,,,,,,,,,2,,,54,0
7640,note_on,1,0,3,,,,,,,,,2,,,52,49
7640,note_on,1,0,1,,,,,,,,,0,,,67,49
7680,note_on,40,0,3,,,,,,,,,2,,,52,0
7680,note_on,0,0,1,,,,,,,,,0,,,66,49
7680,control_change,0,0,1,,,,,,,,,0,64,0,,
7680,note_on,40,0,1,,,,,,,,,0,,,67,0
7680,note_on,0,0,3,,,,,,,,,2,,,50,49
7680,control_change,0,0,3,,,,,,,,,2,64,0,,
7719,note_on,39,0,1,,,,,,,,,0,,,67,49
7719,note_on,39,0,3,,,,,,,,,2,,,52,49
7720,note_on,1,0,1,,,,,,,,,0,,,66,0
7720,note_on,1,0,3,,,,,,,,,2,,,50,0
7759,note_on,39,0,1,,,,,,,,,0,,,67,0
7759,note_on,39,0,3,,,,,,,,,2,,,52,0
7760,note_on,1,0,1,,,,,,,,,0,,,69,49
7760,note_on,1,0,3,,,,,,,,,2,,,54,49
7800,note_on,40,0,1,,,,,,,,,0,,,69,0
7800,note_on,0,0,1,,,,,,,,,0,,,67,62
7800,note_on,0,0,3,,,,,,,,,2,,,52,49
7800,note_on,40,0,3,,,,,,,,,2,,,54,0
7839,note_on,39,0,1,,,,,,,,,0,,,69,62
7839,note_on,39,0,3,,,,,,,,,2,,,54,49
7840,note_on,1,0,3,,,,,,,,,2,,,52,0
7840,note_on,1,0,1,,,,,,,,,0,,,67,0
7879,note_on,39,0,1,,,,,,,,,0,,,69,0
7879,note_on,39,0,3,,,,,,,,,2,,,54,0
7880,note_on,1,0,1,,,,,,,,,0,,,71,62
7880,note_on,1,0,3,,,,,,,,,2,,,55,49
7920,note_on,0,0,1,,,,,,,,,0,,,69,62
7920,note_on,40,0,1,,,,,,,,,0,,,71,0
7920,note_on,40,0,3,,,,,,,,,2,,,55,0
7920,note_on,0,0,3,,,,,,,,,2,,,54,49
7959,note_on,39,0,1,,,,,,,,,0,,,71,62
7959,note_on,39,0,3,,,,,,,,,2,,,55,49
7960,note_on,1,0,3,,,,,,,,,2,,,54,0
7960,note_on,1,0,1,,,,,,,,,0,,,69,0
7999,note_on,39,0,1,,,,,,,,,0,,,71,0
7999,note_on,39,0,3,,,,,,,,,2,,,55,0
8000,note_on,1,0,1,,,,,,,,,0,,,72,62
8000,note_on,1,0,3,,,,,,,,,2,,,57,49
8040,note_on,0,0,3,,,,,,,,,2,,,56,62
8040,note_on,40,0,3,,,,,,,,,2,,,57,0
8040,note_on,40,0,1,,,,,,,,,0,,,72,0
8040,note_on,0,0,1,,,,,,,,,0,,,71,75
8079,note_on,39,0,3,,,,,,,,,2,,,57,62
8079,note_on,39,0,1,,,,,,,,,0,,,72,75
8080,note_on,1,0,1,,,,,,,,,0,,,71,0
8080,note_on,1,0,3,,,,,,,,,2,,,56,0
8119,note_on,39,0,3,,,,,,,,,2,,,57,0
8119,note_on,39,0,1,,,,,,,,,0,,,72,0
8120,note_on,1,0,3,,,,,,,,,2,,,59,62
8120,note_on,1,0,1,,,,,,,,,0,,,74,75
8160,note_on,0,0,1,,,,,,,,,0,,,72,75
8160,note_on,40,0,1,,,,,,,,,0,,,74,0
8160,note_on,40,0,3,,,,,,,,,2,,,59,0
8160,note_on,0,0,3,,,,,,,,,2,,,57,62
8199,note_on,39,0,3,,,,,,,,,2,,,59,62
8199,note_on,39,0,1,,,,,,,,,0,,,74,75
8200,note_on,1,0,3,,,,,,,,,2,,,57,0
8200,note_on,1,0,1,,,,,,,,,0,,,72,0
8239,note_on,39,0,1,,,,,,,,,0,,,74,0
8239,note_on,39,0,3,,,,,,,,,2,,,59,0
8240,note_on,1,0,3,,,,,,,,,2,,,60,62
8240,note_on,1,0,1,,,,,,,,,0,,,76,75
8280,note_on,40,0,3,,,,,,,,,2,,,60,0
8280,control_change,0,0,3,,,,,,,,,2,64,127,,
8280,note_on,0,0,3,,,,,,,,,2,,,62,88
8280,control_change,0,0,1,,,,,,,,,0,64,127,,
8280,note_on,0,0,1,,,,,,,,,0,,,65,101
8280,note_on,40,0,1,,,,,,,,,0,,,76,0
8319,note_on,39,0,1,,,,,,,,,0,,,70,101
8319,note_on,39,0,3,,,,,,,,,2,,,58,88
8320,note_on,1,0,1,,,,,,,,,0,,,65,0
8320,note_on,1,0,3,,,,,,,,,2,,,62,0
8359,note_on,39,0,3,,,,,,,,,2,,,58,0
8359,note_on,39,0,1,,,,,,,,,0,,,70,0
8360,note_on,1,0,3,,,,,,,,,2,,,53,88
8360,note_on,1,0,1,,,,,,,,,0,,,74,101
8400,note_on,0,0,1,,,,,,,,,0,,,77,101
8400,note_on,40,0,1,,,,,,,,,0,,,74,0
8400,note_on,0,0,3,,,,,,,,,2,,,50,88
8400,note_on,40,0,3,,,,,,,,,2,,,53,0
8439,note_on,39,0,1,,,,,,,,,0,,,82,101
8439,note_on,39,0,3,,,,,,,,,2,,,46,88
8440,note_on,1,0,1,,,,,,,,,0,,,77,0
8440,note_on,1,0,3,,,,,,,,,2,,,50,0
8479,note_on,39,0,1,,,,,,,,,0,,,82,0
8479,note_on,39,0,3,,,,,,,,,2,,,46,0
8480,note_on,1,0,3,,,,,,,,,2,,,41,88
8480,note_on,1,0,1,,,,,,,,,0,,,86,101
8520,note_on,0,0,1,,,,,,,,,0,,,89,101
8520,note_on,0,0,3,,,,,,,,,2,,,38,88
8520,note_on,40,0,3,,,,,,,,,2,,,41,0
8520,note_on,40,0,1,,,,,,,,,0,,,86,0
8559,note_on,39,0,3,,,,,,,,,2,,,34,88
8559,note_on,39,0,1,,,,,,,,,0,,,94,101
8560,note_on,1,0,3,,,,,,,,,2,,,38,0
8560,note_on,1,0,1,,,,,,,,,0,,,89,0
8599,note_on,39,0,1,,,,,,,,,0,,,94,0
8599,note_on,39,0,3,,,,,,,,,2,,,34,0
8600,note_on,1,0,1,,,,,,,,,0,,,98,101
8600,note_on,1,0,3,,,,,,,,,2,,,29,88
8640,note_on,40,0,1,,,,,,,,,0,,,98,0
8640,note_on,0,0,1,,,,,,,,,0,,,101,101
8640,note_on,40,0,3,,,,,,,,,2,,,29,0
8640,note_on,0,0,3,,,,,,,,,2,,,26,88
8700,control_change,0,0,1,,,,,,,,,0,64,0,,
8700,note_on,60,0,3,,,,,,,,,2,,,26,0
8700,control_change,0,0,3,,,,,,,,,2,64,0,,
8700,note_on,60,0,1,,,,,,,,,0,,,101,0
8760,note_on,0,0,3,,,,,,,,,2,,,52,114
8760,note_on,0,0,3,,,,,,,,,2,,,48,110
8760,note_on,0,0,3,,,,,,,,,2,,,45,106
8760,note_on,60,0,3,,,,,,,,,2,,,40,102
8760,note_on,0,0,1,,,,,,,,,0,,,76,127
8760,note_on,0,0,1,,,,,,,,,0,,,72,123
8760,note_on,0,0,1,,,,,,,,,0,,,69,119
8760,note_on,60,0,1,,,,,,,,,0,,,64,115
8772,note_on,0,0,3,,,,,,,,,2,,,45,0
8772,note_on,0,0,3,,,,,,,,,2,,,40,0
8772,note_on,12,0,3,,,,,,,,,2,,,52,0
8772,note_on,0,0,3,,,,,,,,,2,,,48,0
8772,note_on,12,0,1,,,,,,,,,0,,,76,0
8772,note_on,0,0,1,,,,,,,,,0,,,64,0
8772,note_on,0,0,1,,,,,,,,,0,,,69,0
8772,note_on,0,0,1,,,,,,,,,0,,,72,0
8880,note_on,108,0,1,,,,,,,,,0,,,64,115
8880,note_on,0,0,1,,,,,,,,,0,,,68,119
8880,note_on,0,0,1,,,,,,,,,0,,,71,123
8880,note_on,0,0,1,,,,,,,,,0,,,76,127
8880,note_on,108,0,3,,,,,,,,,2,,,40,102
8880,note_on,0,0,3,,,,,,,,,2,,,44,106
8880,note_on,0,0,3,,,,,,,,,2,,,47,110
8880,note_on,0,0,3,,,,,,,,,2,,,52,114
8892,note_on,12,0,3,,,,,,,,,2,,,52,0
8892,note_on,0,0,1,,,,,,,,,0,,,71,0
8892,note_on,0,0,1,,,,,,,,,0,,,68,0
8892,note_on,0,0,1,,,,,,,,,0,,,64,0
8892,note_on,12,0,1,,,,,,,,,0,,,76,0
8892,note_on,0,0,3,,,,,,,,,2,,,40,0
8892,note_on,0,0,3,,,,,,,,,2,,,44,0
8892,note_on,0,0,3,,,,,,,,,2,,,47,0
9000,note_on,0,0,1,,,,,,,,,0,,,69,75
9000,control_change,108,0,1,,,,,,,,,0,64,127,,
9000,note_on,0,0,3,,,,,,,,,2,,,60,62
9000,control_change,108,0,3,,,,,,,,,2,64,127,,
9039,note_on,39,0,3,,,,,,,,,2,,,59,62
9039,note_on,39,0,1,,,,,,,,,0,,,71,75
9040,note_on,1,0,3,,,,,,,,,2,,,60,0
9040,note_on,1,0,1,,,,,,,,,0,,,69,0
9079,note_on,39,0,3,,,,,,,,,2,,,59,0
9079,note_on,39,0,1,,,,,,,,,0,,,71,0
9080,note_on,1,0,3,,,,,,,,,2,,,57,62
9080,note_on,1,0,1,,,,,,,,,0,,,72,75
9120,note_on,40,0,1,,,,,,,,,0,,,72,0
9120,note_on,0,0,1,,,,,,,,,0,,,74,75
9120,note_on,0,0,3,,,,,,,,,2,,,56,75
9120,note_on,40,0,3,,,,,,,,,2,,,57,0
9159,note_on,39,0,3,,,,,,,,,2,,,54,75
9160,note_on,1,0,3,,,,,,,,,2,,,56,0
9199,note_on,39,0,3,,,,,,,,,2,,,54,0
9200,note_on,1,0,3,,,,,,,,,2,,,52,75
9240,control_change,0,0,3,,,,,,,,,2,64,0,,
9240,note_on,40,0,3,,,,,,,,,2,,,52,0
9240,note_on,0,0,3,,,,,,,,,2,,,62,75
9240,control_change,0,0,1,,,,,,,,,0,64,0,,
9240,note_on,0,0,1,,,,,,,,,0,,,64,75
9240,note_on,120,0,1,,,,,,,,,0,,,74,0
9279,note_on,39,0,1,,,,,,,,,0,,,66,75
9280,note_on,1,0,1,,,,,,,,,0,,,64,0
9319,note_on,39,0,1,,,,,,,,,0,,,66,0
9320,note_on,1,0,1,,,,,,,,,0,,,68,75
9360,note_on,0,0,3,,,,,,,,,2,,,60,62
9360,note_on,40,0,1,,,,,,,,,0,,,68,0
9360,control_change,0,0,3,,,,,,,,,2,64,127,,
9360,control_change,0,0,1,,,,,,,,,0,64,127,,
9360,note_on,0,0,1,,,,,,,,,0,,,69,75
9360,note_on,120,0,3,,,,,,,,,2,,,62,0
9399,note_on,39,0,1,,,,,,,,,0,,,71,75
9399,note_on,39,0,3,,,,,,,,,2,,,59,62
9400,note_on,1,0,1,,,,,,,,,0,,,69,0
9400,note_on,1,0,3,,,,,,,,,2,,,60,0
9439,note_on,39,0,1,,,,,,,,,0,,,71,0
9439,note_on,39,0,3,,,,,,,,,2,,,59,0
9440,note_on,1,0,3,,,,,,,,,2,,,57,62
9440,note_on,1,0,1,,,,,,,,,0,,,72,75
9480,note_on,40,0,3,,,,,,,,,2,,,57,0
9480,note_on,40,0,1,,,,,,,,,0,,,72,0
9480,note_on,0,0,3,,,,,,,,,2,,,56,75
9480,note_on,0,0,1,,,,,,,,,0,,,74,75
9519,note_on,39,0,3,,,,,,,,,2,,,54,75
9520,note_on,1,0,3,,,,,,,,,2,,,56,0
9559,note_on,39,0,3,,,,,,,,,2,,,54,0
9560,note_on,1,0,3,,,,,,,,,2,,,52,75
9600,note_on,0,0,3,,,,,,,,,2,,,62,75
9600,control_change,0,0,3,,,,,,,,,2,64,0,,
9600,note_on,40,0,3,,,,,,,,,2,,,52,0
9600,note_on,0,0,1,,,,,,,,,0,,,64,75
9600,control_change,0,0,1,,,,,,,,,0,64,0,,
9600,note_on,120,0,1,,,,,,,,,0,,,74,0
9639,note_on,39,0,1,,,,,,,,,0,,,66,75
9640,note_on,1,0,1,,,,,,,,,0,,,64,0
9679,note_on,39,0,1,,,,,,,,,0,,,66,0
9680,note_on,1,0,1,,,,,,,,,0,,,68,75
9720,note_on,0,0,1,,,,,,,,,0,,,69,75
9720,control_change,0,0,1,,,,,,,,,0,64,127,,
9720,note_on,120,0,3,,,,,,,,,2,,,62,0
9720,note_on,0,0,3,,,,,,,,,2,,,60,75
9720,control_change,0,0,3,,,,,,,,,2,64,127,,
9720,note_on,40,0,1,,,,,,,,,0,,,68,0
9759,note_on,39,0,3,,,,,,,,,2,,,59,75
9759,note_on,39,0,1,,,,,,,,,0,,,71,75
9760,note_on,1,0,3,,,,,,,,,2,,,60,0
9760,note_on,1,0,1,,,,,,,,,0,,,69,0
9799,note_on,39,0,3,,,,,,,,,2,,,59,0
9799,note_on,39,0,1,,,,,,,,,0,,,71,0
9800,note_on,1,0,1,,,,,,,,,0,,,72,75
9800,note_on,1,0,3,,,,,,,,,2,,,57,75
9840,note_on,0,0,3,,,,,,,,,2,,,56,75
9840,control_change,0,0,3,,,,,,,,,2,64,0,,
9840,control_change,0,0,1,,,,,,,,,0,64,0,,
9840,note_on,0,0,1,,,,,,,,,0,,,71,88
9840,note_on,40,0,1,,,,,,,,,0,,,72,0
9840,note_on,40,0,3,,,,,,,,,2,,,57,0
9879,note_on,39,0,3,,,,,,,,,2,,,57,75
9879,note_on,39,0,1,,,,,,,,,0,,,72,88
9880,note_on,1,0,1,,,,,,,,,0,,,71,0
9880,note_on,1,0,3,,,,,,,,,2,,,56,0
9919,note_on,39,0,3,,,,,,,,,2,,,57,0
9919,note_on,39,0,1,,,,,,,,,0,,,72,0
9920,note_on,1,0,1,,,,,,,,,0,,,74,88
9920,note_on,1,0,3,,,,,,,,,2,,,59,75
9960,note_on,40,0,1,,,,,,,,,0,,,74,0
9960,note_on,40,0,3,,,,,,,,,2,,,59,0
9960,note_on,0,0,3,,,,,,,,,2,,,57,75
9960,note_on,0,0,1,,,,,,,,,0,,,72,88
9999,note_on,39,0,1,,,,,,,,,0,,,74,88
9999,note_on,39,0,3,,,,,,,,,2,,,59,75
10000,note_on,1,0,3,,,,,,,,,2,,,57,0
10000,note_on,1,0,1,,,,,,,,,0,,,72,0
10039,note_on,39,0,1,,,,,,,,,0,,,74,0
10039,note_on,39,0,3,,,,,,,,,2,,,59,0
10040,note_on,1,0,3,,,,,,,,,2,,,60,75
10040,note_on,1,0,1,,,,,,,,,0,,,76,88
10080,note_on,0,0,3,,,,,,,,,2,,,62,88
10080,control_change,0,0,3,,,,,,,,,2,64,127,,
10080,note_on,0,0,1,,,,,,,,,0,,,65,101
10080,control_change,0,0,1,,,,,,,,,0,64,127,,
10080,note_on,40,0,1,,,,,,,,,0,,,76,0
10080,note_on,40,0,3,,,,,,,,,2,,,60,0
10119,note_on,39,0,1,,,,,,,,,0,,,70,101
10119,note_on,39,0,3,,,,,,,,,2,,,58,88
10120,note_on,1,0,3,,,,,,,,,2,,,62,0
10120,note_on,1,0,1,,,,,,,,,0,,,65,0
10159,note_on,39,0,1,,,,,,,,,0,,,70,0
10159,note_on,39,0,3,,,,,,,,,2,,,58,0
10160,note_on,1,0,1,,,,,,,,,0,,,74,101
10160,note_on,1,0,3,,,,,,,,,2,,,53,88
10200,note_on,40,0,1,,,,,,,,,0,,,74,0
10200,note_on,0,0,1,,,,,,,,,0,,,77,101
10200,note_on,40,0,3,,,,,,,,,2,,,53,0
10200,note_on,0,0,3,,,,,,,,,2,,,50,88
10239,note_on,39,0,1,,,,,,,,,0,,,82,101
10239,note_on,39,0,3,,,,,,,,,2,,,46,88
10240,note_on,1,0,1,,,,,,,,,0,,,77,0
10240,note_on,1,0,3,,,,,,,,,2,,,50,0
10279,note_on,39,0,3,,,,,,,,,2,,,46,0
10279,note_on,39,0,1,,,,,,,,,0,,,82,0
10280,note_on,1,0,3,,,,,,,,,2,,,41,88
10280,note_on,1,0,1,,,,,,,,,0,,,86,101
10320,note_on,0,0,3,,,,,,,,,2,,,38,88
10320,note_on,0,0,1,,,,,,,,,0,,,89,101
10320,note_on,40,0,1,,,,,,,,,0,,,86,0
10320,note_on,40,0,3,,,,,,,,,2,,,41,0
10359,note_on,39,0,3,,,,,,,,,2,,,34,88
10359,note_on,39,0,1,,,,,,,,,0,,,94,101
10360,note_on,1,0,1,,,,,,,,,0,,,89,0
10360,note_on,1,0,3,,,,,,,,,2,,,38,0
10399,note_on,39,0,1,,,,,,,,,0,,,94,0
10399,note_on,39,0,3,,,,,,,,,2,,,34,0
10400,note_on,1,0,1,,,,,,,,,0,,,98,101
10400,note_on,1,0,3,,,,,,,,,2,,,29,88
10440,note_on,0,0,1,,,,,,,,,0,,,101,101
10440,note_on,0,0,3,,,,,,,,,2,,,26,88
10440,note_on,40,0,3,,,,,,,,,2,,,29,0
10440,note_on,40,0,1,,,,,,,,,0,,,98,0
10500,control_change,0,0,3,,,,,,,,,2,64,0,,
10500,note_on,60,0,3,,,,,,,,,2,,,26,0
10500,note_on,60,0,1,,,,,,,,,0,,,101,0
10500,control_change,0,0,1,,,,,,,,,0,64,0,,
10560,note_on,0,0,3,,,,,,,,,2,,,45,106
10560,note_on,60,0,3,,,,,,,,,2,,,40,102
10560,note_on,0,0,3,,,,,,,,,2,,,52,114
10560,note_on,60,0,1,,,,,,,,,0,,,64,115
10560,note_on,0,0,1,,,,,,,,,0,,,69,119
10560,note_on,0,0,1,,,,,,,,,0,,,72,123
10560,note_on,0,0,1,,,,,,,,,0,,,76,127
10560,note_on,0,0,3,,,,,,,,,2,,,48,110
10572,note_on,12,0,1,,,,,,,,,0,,,76,0
10572,note_on,0,0,1,,,,,,,,,0,,,69,0
10572,note_on,0,0,1,,,,,,,,,0,,,64,0
10572,note_on,0,0,3,,,,,,,,,2,,,48,0
10572,note_on,0,0,3,,,,,,,,,2,,,45,0
10572,note_on,0,0,3,,,,,,,,,2,,,40,0
10572,note_on,0,0,1,,,,,,,,,0,,,72,0
10572,note_on,12,0,3,,,,,,,,,2,,,52,0
10680,note_on,0,0,3,,,,,,,,,2,,,52,114
10680,note_on,0,0,3,,,,,,,,,2,,,44,106
10680,note_on,108,0,3,,,,,,,,,2,,,40,102
10680,note_on,0,0,1,,,,,,,,,0,,,76,127
10680,note_on,0,0,3,,,,,,,,,2,,,47,110
10680,note_on,0,0,1,,,,,,,,,0,,,68,119
10680,note_on,0,0,1,,,,,,,,,0,,,71,123
10680,note_on,108,0,1,,,,,,,,,0,,,64,115
10692,note_on,0,0,3,,,,,,,,,2,,,44,0
10692,note_on,0,0,3,,,,,,,,,2,,,47,0
10692,note_on,0,0,3,,,,,,,,,2,,,40,0
10692,note_on,12,0,3,,,,,,,,,2,,,52,0
10692,note_on,12,0,1,,,,,,,,,0,,,76,0
10692,note_on,0,0,1,,,,,,,,,0,,,64,0
10692,note_on,0,0,1,,,,,,,,,0,,,68,0
10692,note_on,0,0,1,,,,,,,,,0,,,71,0
10800,note_on,0,0,1,,,,,,,,,0,,,76,101
10800,note_on,0,0,1,,,,,,,,,0,,,81,101
10800,note_on,108,0,3,,,,,,,,,2,,,33,88
10800,note_on,108,0,1,,,,,,,,,0,,,69,101
10800,note_on,0,0,3,,,,,,,,,2,,,36,88
10800,note_on,0,0,3,,,,,,,,,2,,,40,88
10800,note_on,0,0,1,,,,,,,,,0,,,72,101
10800,note_on,0,0,3,,,,,,,,,2,,,45,88
11100,note_on,300,0,3,,,,,,,,,2,,,45,88
11115,note_on,0,0,3,,,,,,,,,2,,,47,88
11115,note_on,15,0,3,,,,,,,,,2,,,45,0
11130,note_on,0,0,3,,,,,,,,,2,,,48,88
11130,note_on,15,0,3,,,,,,,,,2,,,47,0
11145,note_on,15,0,3,,,,,,,,,2,,,48,0
11145,note_on,0,0,3,,,,,,,,,2,,,50,88
11149,note_on,4,0,3,,,,,,,,,2,,,50,0
11160,note_on,0,0,3,,,,,,,,,2,,,33,0
11160,note_on,0,0,3,,,,,,,,,2,,,36,0
11160,note_on,360,0,1,,,,,,,,,0,,,81,0
11160,note_on,0,0,1,,,,,,,,,0,,,69,0
11160,note_on,0,0,3,,,,,,,,,2,,,40,0
11160,note_on,0,0,1,,,,,,,,,0,,,72,0
11160,note_on,0,0,1,,,,,,,,,0,,,76,0
11160,note_on,0,0,1,,,,,,,,,0,,,68,101
11160,note_on,0,0,1,,,,,,,,,0,,,76,101
11160,note_on,0,0,3,,,,,,,,,2,,,40,88
11160,note_on,0,0,3,,,,,,,,,2,,,52,88
11160,note_on,11,0,3,,,,,,,,,2,,,45,0
11166,note_on,6,0,1,,,,,,,,,0,,,76,0
11166,note_on,0,0,1,,,,,,,,,0,,,68,0
11220,note_on,0,0,3,,,,,,,,,2,,,53,88
11220,note_on,0,0,3,,,,,,,,,2,,,40,0
11220,note_on,0,0,3,,,,,,,,,2,,,41,88
11220,note_on,60,0,3,,,,,,,,,2,,,52,0
11220,note_on,0,0,1,,,,,,,,,0,,,75,101
11220,note_on,54,0,1,,,,,,,,,0,,,69,101
11226,note_on,6,0,1,,,,,,,,,0,,,75,0
11226,note_on,6,0,3,,,,,,,,,2,,,53,0
11226,note_on,0,0,3,,,,,,,,,2,,,41,0
11226,note_on,0,0,1,,,,,,,,,0,,,69,0
11280,note_on,0,0,1,,,,,,,,,0,,,76,101
11280,note_on,54,0,1,,,,,,,,,0,,,68,101
11280,note_on,54,0,3,,,,,,,,,2,,,40,88
11280,note_on,0,0,3,,,,,,,,,2,,,52,88
11286,note_on,6,0,1,,,,,,,,,0,,,76,0
11286,note_on,6,0,3,,,,,,,,,2,,,52,0
11286,note_on,0,0,3,,,,,,,,,2,,,40,0
11286,note_on,0,0,1,,,,,,,,,0,,,68,0
11340,note_on,54,0,1,,,,,,,,,0,,,69,101
11340,note_on,0,0,1,,,,,,,,,0,,,75,101
11340,note_on,54,0,3,,,,,,,,,2,,,41,88
11340,note_on,0,0,3,,,,,,,,,2,,,53,88
11346,note_on,6,0,3,,,,,,,,,2,,,53,0
11346,note_on,0,0,1,,,,,,,,,0,,,69,0
11346,note_on,0,0,3,,,,,,,,,2,,,41,0
11346,note_on,6,0,1,,,,,,,,,0,,,75,0
11400,note_on,54,0,1,,,,,,,,,0,,,68,101
11400,note_on,0,0,1,,,,,,,,,0,,,76,101
11400,note_on,54,0,3,,,,,,,,,2,,,40,88
11400,note_on,0,0,3,,,,,,,,,2,,,52,88
11406,note_on,6,0,1,,,,,,,,,0,,,76,0
11406,note_on,0,0,1,,,,,,,,,0,,,68,0
11406,note_on,6,0,3,,,,,,,,,2,,,52,0
11406,note_on,0,0,3,,,,,,,,,2,,,40,0
11520,note_on,0,0,1,,,,,,,,,0,,,77,114
11520,note_on,0,0,1,,,,,,,,,0,,,72,114
11520,note_on,0,0,1,,,,,,,,,0,,,69,114
11520,note_on,0,0,3,,,,,,,,,2,,,36,101
11520,note_on,0,0,3,,,,,,,,,2,,,33,101
11520,note_on,0,0,3,,,,,,,,,2,,,41,101
11520,note_on,114,0,3,,,,,,,,,2,,,29,101
11520,note_on,114,0,1,,,,,,,,,0,,,65,114
11820,note_on,300,0,3,,,,,,,,,2,,,41,101
11835,note_on,15,0,3,,,,,,,,,2,,,41,0
11835,note_on,0,0,3,,,,,,,,,2,,,43,101
11850,note_on,0,0,3,,,,,,,,,2,,,45,101
11850,note_on,15,0,3,,,,,,,,,2,,,43,0
11865,note_on,15,0,3,,,,,,,,,2,,,45,0
11865,note_on,0,0,3,,,,,,,,,2,,,47,101
11880,note_on,15,0,3,,,,,,,,,2,,,47,0
11880,note_on,360,0,1,,,,,,,,,0,,,77,0
11880,note_on,0,0,1,,,,,,,,,0,,,72,114
11880,note_on,0,0,1,,,,,,,,,0,,,64,114
11880,note_on,0,0,1,,,,,,,,,0,,,65,0
11880,note_on,0,0,1,,,,,,,,,0,,,72,0
11880,note_on,0,0,1,,,,,,,,,0,,,69,0
11880,note_on,0,0,3,,,,,,,,,2,,,41,0
11880,note_on,0,0,3,,,,,,,,,2,,,29,0
11880,note_on,0,0,3,,,,,,,,,2,,,33,0
11880,note_on,0,0,3,,,,,,,,,2,,,36,0
11880,note_on,0,0,3,,,,,,,,,2,,,36,101
11880,note_on,0,0,3,,,,,,,,,2,,,48,101
11886,note_on,6,0,3,,,,,,,,,2,,,48,0
11886,note_on,0,0,3,,,,,,,,,2,,,36,0
11886,note_on,0,0,1,,,,,,,,,0,,,64,0
11886,note_on,6,0,1,,,,,,,,,0,,,72,0
11940,note_on,0,0,1,,,,,,,,,0,,,71,114
11940,note_on,54,0,1,,,,,,,,,0,,,65,114
11940,note_on,54,0,3,,,,,,,,,2,,,38,101
11940,note_on,0,0,3,,,,,,,,,2,,,50,101
11946,note_on,6,0,1,,,,,,,,,0,,,71,0
11946,note_on,0,0,3,,,,,,,,,2,,,38,0
11946,note_on,6,0,3,,,,,,,,,2,,,50,0
11946,note_on,0,0,1,,,,,,,,,0,,,65,0
12000,note_on,54,0,1,,,,,,,,,0,,,64,114
12000,note_on,0,0,1,,,,,,,,,0,,,72,114
12000,note_on,54,0,3,,,,,,,,,2,,,36,101
12000,note_on,0,0,3,,,,,,,,,2,,,48,101
12006,note_on,6,0,1,,,,,,,,,0,,,72,0
12006,note_on,0,0,1,,,,,,,,,0,,,64,0
12006,note_on,6,0,3,,,,,,,,,2,,,48,0
12006,note_on,0,0,3,,,,,,,,,2,,,36,0
12060,note_on,0,0,3,,,,,,,,,2,,,50,101
12060,note_on,54,0,1,,,,,,,,,0,,,65,114
12060,note_on,0,0,1,,,,,,,,,0,,,71,114
12060,note_on,54,0,3,,,,,,,,,2,,,38,101
12066,note_on,0,0,3,,,,,,,,,2,,,38,0
12066,note_on,6,0,3,,,,,,,,,2,,,50,0
12066,note_on,0,0,1,,,,,,,,,0,,,65,0
12066,note_on,6,0,1,,,,,,,,,0,,,71,0
12120,note_on,54,0,1,,,,,,,,,0,,,64,114
12120,note_on,54,0,3,,,,,,,,,2,,,36,101
12120,note_on,0,0,3,,,,,,,,,2,,,48,101
12120,note_on,0,0,1,,,,,,,,,0,,,72,114
12126,note_on,6,0,3,,,,,,,,,2,,,48,0
12126,note_on,0,0,3,,,,,,,,,2,,,36,0
12126,note_on,6,0,1,,,,,,,,,0,,,72,0
12126,note_on,0,0,1,,,,,,,,,0,,,64,0
12240,note_on,114,0,1,,,,,,,,,0,,,62,114
12240,note_on,0,0,1,,,,,,,,,0,,,65,114
12240,note_on,0,0,1,,,,,,,,,0,,,71,114
12240,note_on,0,0,1,,,,,,,,,0,,,74,114
12240,note_on,114,0,3,,,,,,,,,2,,,32,101
12240,note_on,0,0,3,,,,,,,,,2,,,44,101
12480,note_on,0,0,1,,,,,,,,,0,,,64,127
12480,note_on,0,0,1,,,,,,,,,0,,,71,0
12480,note_on,240,0,1,,,,,,,,,0,,,74,0
12480,note_on,0,0,1,,,,,,,,,0,,,62,0
12480,note_on,0,0,1,,,,,,,,,0,,,65,0
12480,note_on,0,0,1,,,,,,,,,0,,,60,127
12480,note_on,240,0,3,,,,,,,,,2,,,44,0
12480,note_on,0,0,3,,,,,,,,,2,,,32,0
12480,note_on,0,0,3,,,,,,,,,2,,,45,127
12480,note_on,0,0,1,,,,,,,,,0,,,69,127
12480,note_on,0,0,1,,,,,,,,,0,,,72,127
12480,note_on,0,0,3,,,,,,,,,2,,,33,119
12492,note_on,12,0,3,,,,,,,,,2,,,45,0
12492,note_on,0,0,3,,,,,,,,,2,,,33,0
12492,note_on,12,0,1,,,,,,,,,0,,,72,0
12492,note_on,0,0,1,,,,,,,,,0,,,60,0
12492,note_on,0,0,1,,,,,,,,,0,,,69,0
12492,note_on,0,0,1,,,,,,,,,0,,,64,0
12600,note_on,108,0,1,,,,,,,,,0,,,58,127
12600,note_on,0,0,3,,,,,,,,,2,,,46,127
12600,note_on,0,0,1,,,,,,,,,0,,,65,127
12600,note_on,0,0,1,,,,,,,,,0,,,70,127
12600,note_on,108,0,3,,,,,,,,,2,,,34,119
12600,note_on,0,0,1,,,,,,,,,0,,,62,127
12612,note_on,0,0,3,,,,,,,,,2,,,34,0
12612,note_on,12,0,3,,,,,,,,,2,,,46,0
12612,note_on,12,0,1,,,,,,,,,0,,,70,0
12612,note_on,0,0,1,,,,,,,,,0,,,58,0
12612,note_on,0,0,1,,,,,,,,,0,,,62,0
12612,note_on,0,0,1,,,,,,,,,0,,,65,0
12720,note_on,0,0,1,,,,,,,,,0,,,77,127
12720,note_on,108,0,1,,,,,,,,,0,,,65,127
12720,note_on,0,0,1,,,,,,,,,0,,,68,127
12720,note_on,0,0,1,,,,,,,,,0,,,74,127
12720,note_on,108,0,3,,,,,,,,,2,,,35,119
12720,note_on,0,0,3,,,,,,,,,2,,,47,127
12732,note_on,12,0,3,,,,,,,,,2,,,47,0
12732,note_on,0,0,1,,,,,,,,,0,,,74,0
12732,note_on,0,0,3,,,,,,,,,2,,,35,0
12732,note_on,0,0,1,,,,,,,,,0,,,65,0
12732,note_on,12,0,1,,,,,,,,,0,,,77,0
12732,note_on,0,0,1,,,,,,,,,0,,,68,0
12840,note_on,108,0,3,,,,,,,,,2,,,36,119
12840,note_on,0,0,3,,,,,,,,,2,,,48,127
12840,note_on,0,0,1,,,,,,,,,0,,,72,127
12840,note_on,0,0,1,,,,,,,,,0,,,76,127
12840,note_on,0,0,1,,,,,,,,,0,,,69,127
12840,note_on,108,0,1,,,,,,,,,0,,,64,127
12852,note_on,0,0,1,,,,,,,,,0,,,64,0
12852,note_on,0,0,3,,,,,,,,,2,,,36,0
12852,note_on,12,0,3,,,,,,,,,2,,,48,0
12852,note_on,0,0,1,,,,,,,,,0,,,72,0
12852,note_on,12,0,1,,,,,,,,,0,,,76,0
12852,note_on,0,0,1,,,,,,,,,0,,,69,0
12960,note_on,0,0,3,,,,,,,,,2,,,50,127
12960,note_on,108,0,3,,,,,,,,,2,,,38,119
12960,note_on,0,0,1,,,,,,,,,0,,,74,127
12960,note_on,0,0,1,,,,,,,,,0,,,71,127
12960,note_on,108,0,1,,,,,,,,,0,,,65,127
12972,note_on,12,0,1,,,,,,,,,0,,,74,0
12972,note_on,0,0,3,,,,,,,,,2,,,38,0
12972,note_on,0,0,1,,,,,,,,,0,,,71,0
12972,note_on,0,0,1,,,,,,,,,0,,,65,0
12972,note_on,12,0,3,,,,,,,,,2,,,50,0
13080,note_on,108,0,3,,,,,,,,,2,,,40,119
13080,note_on,0,0,3,,,,,,,,,2,,,52,127
13080,note_on,108,0,1,,,,,,,,,0,,,64,127
13080,note_on,0,0,1,,,,,,,,,0,,,69,127
13080,note_on,0,0,1,,,,,,,,,0,,,72,127
13092,note_on,12,0,1,,,,,,,,,0,,,72,0
13092,note_on,0,0,1,,,,,,,,,0,,,64,0
13092,note_on,0,0,3,,,,,,,,,2,,,40,0
13092,note_on,12,0,3,,,,,,,,,2,,,52,0
13092,note_on,0,0,1,,,,,,,,,0,,,69,0
13200,note_on,0,0,1,,,,,,,,,0,,,68,127
13200,note_on,0,0,1,,,,,,,,,0,,,71,127
13200,note_on,0,0,3,,,,,,,,,2,,,52,127
13200,note_on,108,0,3,,,,,,,,,2,,,40,119
13200,note_on,108,0,1,,,,,,,,,0,,,64,127
13212,note_on,12,0,3,,,,,,,,,2,,,52,0
13212,note_on,12,0,1,,,,,,,,,0,,,71,0
13212,note_on,0,0,1,,,,,,,,,0,,,68,0
13212,note_on,0,0,1,,,,,,,,,0,,,64,0
13212,note_on,0,0,3,,,,,,,,,2,,,40,0
13320,note_on,108,0,3,,,,,,,,,2,,,45,101
13320,note_on,0,0,3,,,,,,,,,2,,,48,101
13320,note_on,0,0,3,,,,,,,,,2,,,52,101
13320,note_on,0,0,3,,,,,,,,,2,,,57,101
13320,control_change,108,0,1,,,,,,,,,0,64,127,,
13320,note_on,0,0,1,,,,,,,,,0,,,69,114
13380,note_on,0,0,1,,,,,,,,,0,,,71,114
13380,note_on,60,0,1,,,,,,,,,0,,,69,0
13410,note_on,0,0,1,,,,,,,,,0,,,72,114
13410,note_on,30,0,1,,,,,,,,,0,,,71,0
13440,note_on,30,0,1,,,,,,,,,0,,,72,0
13440,note_on,0,0,1,,,,,,,,,0,,,74,114
13470,note_on,30,0,1,,,,,,,,,0,,,74,0
13470,note_on,0,0,1,,,,,,,,,0,,,76,114
13500,note_on,30,0,1,,,,,,,,,0,,,76,0
13500,note_on,0,0,1,,,,,,,,,0,,,78,114
13530,note_on,30,0,1,,,,,,,,,0,,,78,0
13530,note_on,0,0,1,,,,,,,,,0,,,80,114
13560,note_on,0,0,1,,,,,,,,,0,,,81,114
13560,note_on,30,0,1,,,,,,,,,0,,,80,0
13590,note_on,30,0,1,,,,,,,,,0,,,81,0
13590,note_on,0,0,1,,,,,,,,,0,,,83,114
13620,note_on,30,0,1,,,,,,,,,0,,,83,0
13620,note_on,0,0,1,,,,,,,,,0,,,84,114
13650,note_on,30,0,1,,,,,,,,,0,,,84,0
13650,control_change,0,0,1,,,,,,,,,0,64,0,,
13650,note_on,0,0,1,,,,,,,,,0,,,86,114
13680,note_on,0,0,3,,,,,,,,,2,,,45,0
13680,note_on,0,0,3,,,,,,,,,2,,,48,0
13680,note_on,0,0,3,,,,,,,,,2,,,52,0
13680,note_on,0,0,3,,,,,,,,,2,,,52,101
13680,note_on,0,0,3,,,,,,,,,2,,,56,101
13680,note_on,30,0,1,,,,,,,,,0,,,86,0
13680,note_on,0,0,1,,,,,,,,,0,,,76,114
13680,note_on,0,0,1,,,,,,,,,0,,,88,114
13680,note_on,360,0,3,,,,,,,,,2,,,57,0
13686,note_on,6,0,1,,,,,,,,,0,,,88,0
13686,note_on,0,0,1,,,,,,,,,0,,,76,0
13686,note_on,6,0,3,,,,,,,,,2,,,56,0
13686,note_on,0,0,3,,,,,,,,,2,,,52,0
13740,note_on,0,0,3,,,,,,,,,2,,,57,101
13740,note_on,54,0,3,,,,,,,,,2,,,53,101
13740,note_on,54,0,1,,,,,,,,,0,,,75,114
13740,note_on,0,0,1,,,,,,,,,0,,,87,114
13746,note_on,0,0,3,,,,,,,,,2,,,53,0
13746,note_on,6,0,3,,,,,,,,,2,,,57,0
13746,note_on,6,0,1,,,,,,,,,0,,,87,0
13746,note_on,0,0,1,,,,,,,,,0,,,75,0
13800,note_on,54,0,1,,,,,,,,,0,,,76,114
13800,note_on,0,0,1,,,,,,,,,0,,,88,114
13800,note_on,0,0,3,,,,,,,,,2,,,56,101
13800,note_on,54,0,3,,,,,,,,,2,,,52,101
13806,note_on,6,0,1,,,,,,,,,0,,,88,0
13806,note_on,6,0,3,,,,,,,,,2,,,56,0
13806,note_on,0,0,1,,,,,,,,,0,,,76,0
13806,note_on,0,0,3,,,,,,,,,2,,,52,0
13860,note_on,54,0,1,,,,,,,,,0,,,75,114
13860,note_on,54,0,3,,,,,,,,,2,,,53,101
13860,note_on,0,0,1,,,,,,,,,0,,,87,114
13860,note_on,0,0,3,,,,,,,,,2,,,57,101
13866,note_on,0,0,3,,,,,,,,,2,,,53,0
13866,note_on,6,0,3,,,,,,,,,2,,,57,0
13866,note_on,0,0,1,,,,,,,,,0,,,75,0
13866,note_on,6,0,1,,,,,,,,,0,,,87,0
13920,note_on,0,0,1,,,,,,,,,0,,,88,114
13920,note_on,54,0,1,,,,,,,,,0,,,76,114
13920,note_on,54,0,3,,,,,,,,,2,,,52,101
13920,note_on,0,0,3,,,,,,,,,2,,,56,101
13926,note_on,0,0,1,,,,,,,,,0,,,76,0
13926,note_on,6,0,1,,,,,,,,,0,,,88,0
13926,note_on,0,0,3,,,,,,,,,2,,,52,0
13926,note_on,6,0,3,,,,,,,,,2,,,56,0
14040,note_on,114,0,3,,,,,,,,,2,,,41,101
14040,note_on,0,0,3,,,,,,,,,2,,,45,101
14040,note_on,0,0,3,,,,,,,,,2,,,48,101
14040,note_on,0,0,3,,,,,,,,,2,,,53,101
14040,control_change,114,0,1,,,,,,,,,0,64,127,,
14040,note_on,0,0,1,,,,,,,,,0,,,65,114
14100,note_on,60,0,1,,,,,,,,,0,,,65,0
14100,note_on,0,0,1,,,,,,,,,0,,,67,114
14130,note_on,30,0,1,,,,,,,,,0,,,67,0
14130,note_on,0,0,1,,,,,,,,,0,,,69,114
14160,note_on,0,0,1,,,,,,,,,0,,,70,114
14160,note_on,30,0,1,,,,,,,,,0,,,69,0
14190,note_on,30,0,1,,,,,,,,,0,,,70,0
14190,note_on,0,0,1,,,,,,,,,0,,,72,114
14220,note_on,30,0,1,,,,,,,,,0,,,72,0
14220,note_on,0,0,1,,,,,,,,,0,,,74,114
14250,note_on,30,0,1,,,,,,,,,0,,,74,0
14250,note_on,0,0,1,,,,,,,,,0,,,76,114
14280,note_on,0,0,1,,,,,,,,,0,,,77,114
14280,note_on,30,0,1,,,,,,,,,0,,,76,0
14310,note_on,30,0,1,,,,,,,,,0,,,77,0
14310,note_on,0,0,1,,,,,,,,,0,,,79,114
14340,note_on,0,0,1,,,,,,,,,0,,,81,114
14340,note_on,30,0,1,,,,,,,,,0,,,79,0
14370,note_on,0,0,1,,,,,,,,,0,,,82,114
14370,control_change,0,0,1,,,,,,,,,0,64,0,,
14370,note_on,30,0,1,,,,,,,,,0,,,81,0
14400,note_on,0,0,3,,,,,,,,,2,,,48,0
14400,note_on,0,0,3,,,,,,,,,2,,,45,0
14400,note_on,0,0,1,,,,,,,,,0,,,84,114
14400,note_on,0,0,1,,,,,,,,,0,,,72,114
14400,note_on,360,0,3,,,,,,,,,2,,,53,0
14400,note_on,0,0,3,,,,,,,,,2,,,48,101
14400,note_on,30,0,1,,,,,,,,,0,,,82,0
14400,note_on,0,0,3,,,,,,,,,2,,,41,0
14400,note_on,0,0,3,,,,,,,,,2,,,52,101
14406,note_on,0,0,1,,,,,,,,,0,,,72,0
14406,note_on,0,0,3,,,,,,,,,2,,,48,0
14406,note_on,6,0,1,,,,,,,,,0,,,84,0
14406,note_on,6,0,3,,,,,,,,,2,,,52,0
14460,note_on,54,0,3,,,,,,,,,2,,,50,101
14460,note_on,0,0,1,,,,,,,,,0,,,83,114
14460,note_on,54,0,1,,,,,,,,,0,,,71,114
14460,note_on,0,0,3,,,,,,,,,2,,,53,101
14466,note_on,0,0,3,,,,,,,,,2,,,50,0
14466,note_on,6,0,3,,,,,,,,,2,,,53,0
14466,note_on,6,0,1,,,,,,,,,0,,,83,0
14466,note_on,0,0,1,,,,,,,,,0,,,71,0
14520,note_on,54,0,1,,,,,,,,,0,,,72,114
14520,note_on,0,0,3,,,,,,,,,2,,,52,101
14520,note_on,0,0,1,,,,,,,,,0,,,84,114
14520,note_on,54,0,3,,,,,,,,,2,,,48,101
14526,note_on,6,0,1,,,,,,,,,0,,,84,0
14526,note_on,6,0,3,,,,,,,,,2,,,52,0
14526,note_on,0,0,3,,,,,,,,,2,,,48,0
14526,note_on,0,0,1,,,,,,,,,0,,,72,0
14580,note_on,54,0,3,,,,,,,,,2,,,50,101
14580,note_on,0,0,3,,,,,,,,,2,,,53,101
14580,note_on,0,0,1,,,,,,,,,0,,,83,114
14580,note_on,54,0,1,,,,,,,,,0,,,71,114
14586,note_on,6,0,1,,,,,,,,,0,,,83,0
14586,note_on,0,0,1,,,,,,,,,0,,,71,0
14586,note_on,6,0,3,,,,,,,,,2,,,53,0
14586,note_on,0,0,3,,,,,,,,,2,,,50,0
14640,note_on,0,0,1,,,,,,,,,0,,,84,114
14640,note_on,0,0,3,,,,,,,,,2,,,52,101
14640,note_on,54,0,3,,,,,,,,,2,,,48,101
14640,note_on,54,0,1,,,,,,,,,0,,,72,114
14646,note_on,6,0,3,,,,,,,,,2,,,52,0
14646,note_on,0,0,3,,,,,,,,,2,,,48,0
14646,note_on,6,0,1,,,,,,,,,0,,,84,0
14646,note_on,0,0,1,,,,,,,,,0,,,72,0
14760,note_on,0,0,3,,,,,,,,,2,,,47,101
14760,control_change,114,0,1,,,,,,,,,0,64,127,,
14760,note_on,0,0,1,,,,,,,,,0,,,71,114
14760,note_on,0,0,3,,,,,,,,,2,,,53,101
14760,note_on,0,0,3,,,,,,,,,2,,,56,101
14760,note_on,0,0,3,,,,,,,,,2,,,50,101
14760,note_on,114,0,3,,,,,,,,,2,,,44,101
14790,note_on,30,0,1,,,,,,,,,0,,,71,0
14790,note_on,0,0,1,,,,,,,,,0,,,72,114
14820,note_on,30,0,1,,,,,,,,,0,,,72,0
14820,note_on,0,0,1,,,,,,,,,0,,,74,114
14850,note_on,0,0,1,,,,,,,,,0,,,76,114
14850,note_on,30,0,1,,,,,,,,,0,,,74,0
14880,note_on,30,0,1,,,,,,,,,0,,,76,0
14880,note_on,0,0,1,,,,,,,,,0,,,77,114
14910,note_on,30,0,1,,,,,,,,,0,,,77,0
14910,note_on,0,0,1,,,,,,,,,0,,,83,114
14940,note_on,30,0,1,,,,,,,,,0,,,83,0
14940,note_on,0,0,1,,,,,,,,,0,,,86,114
14970,note_on,0,0,1,,,,,,,,,0,,,89,114
14970,note_on,30,0,1,,,,,,,,,0,,,86,0
15000,note_on,0,0,1,,,,,,,,,0,,,88,114
15000,control_change,0,0,1,,,,,,,,,0,64,0,,
15000,note_on,30,0,1,,,,,,,,,0,,,89,0
15000,note_on,0,0,3,,,,,,,,,2,,,53,0
15000,note_on,240,0,3,,,,,,,,,2,,,56,0
15000,note_on,0,0,3,,,,,,,,,2,,,50,0
15000,note_on,0,0,3,,,,,,,,,2,,,44,0
15000,note_on,0,0,3,,,,,,,,,2,,,47,0
15000,note_on,0,0,3,,,,,,,,,2,,,57,101
15000,note_on,0,0,3,,,,,,,,,2,,,45,101
15000,note_on,0,0,3,,,,,,,,,2,,,52,101
15000,note_on,0,0,3,,,,,,,,,2,,,48,101
15060,note_on,60,0,1,,,,,,,,,0,,,88,0
15060,note_on,60,0,3,,,,,,,,,2,,,57,0
15060,note_on,0,0,3,,,,,,,,,2,,,52,0
15060,note_on,0,0,3,,,,,,,,,2,,,48,0
15060,note_on,0,0,3,,,,,,,,,2,,,45,0
15120,note_on,0,0,3,,,,,,,,,2,,,53,101
15120,note_on,60,0,3,,,,,,,,,2,,,46,101
15120,note_on,60,0,1,,,,,,,,,0,,,70,114
15120,note_on,0,0,3,,,,,,,,,2,,,58,101
15120,note_on,0,0,3,,,,,,,,,2,,,50,101
15150,note_on,30,0,1,,,,,,,,,0,,,70,0
15150,note_on,0,0,1,,,,,,,,,0,,,74,114
15180,note_on,30,0,1,,,,,,,,,0,,,74,0
15180,note_on,0,0,1,,,,,,,,,0,,,77,114
15210,note_on,30,0,1,,,,,,,,,0,,,77,0
15210,note_on,0,0,1,,,,,,,,,0,,,82,114
15240,note_on,0,0,1,,,,,,,,,0,,,74,114
15240,note_on,120,0,3,,,,,,,,,2,,,58,0
15240,note_on,0,0,3,,,,,,,,,2,,,46,0
15240,note_on,0,0,3,,,,,,,,,2,,,50,0
15240,note_on,0,0,3,,,,,,,,,2,,,53,0
15240,note_on,0,0,3,,,,,,,,,2,,,47,101
15240,note_on,0,0,3,,,,,,,,,2,,,50,101
15240,note_on,0,0,3,,,,,,,,,2,,,59,101
15240,note_on,0,0,3,,,,,,,,,2,,,53,101
15240,note_on,30,0,1,,,,,,,,,0,,,82,0
15240,note_on,0,0,3,,,,,,,,,2,,,56,101
15270,note_on,30,0,1,,,,,,,,,0,,,74,0
15270,note_on,0,0,1,,,,,,,,,0,,,77,114
15300,note_on,30,0,1,,,,,,,,,0,,,77,0
15300,note_on,0,0,1,,,,,,,,,0,,,80,114
15330,note_on,0,0,1,,,,,,,,,0,,,86,114
15330,note_on,30,0,1,,,,,,,,,0,,,80,0
15360,note_on,0,0,3,,,,,,,,,2,,,47,0
15360,note_on,0,0,3,,,,,,,,,2,,,53,0
15360,note_on,120,0,3,,,,,,,,,2,,,59,0
15360,note_on,0,0,3,,,,,,,,,2,,,50,0
15360,note_on,0,0,3,,,,,,,,,2,,,57,101
15360,note_on,0,0,3,,,,,,,,,2,,,60,101
15360,note_on,0,0,1,,,,,,,,,0,,,72,114
15360,note_on,30,0,1,,,,,,,,,0,,,86,0
15360,note_on,0,0,3,,,,,,,,,2,,,56,0
15360,note_on,0,0,3,,,,,,,,,2,,,52,101
15360,note_on,0,0,3,,,,,,,,,2,,,48,101
15390,note_on,0,0,1,,,,,,,,,0,,,76,114
15390,note_on,30,0,1,,,,,,,,,0,,,72,0
15420,note_on,30,0,1,,,,,,,,,0,,,76,0
15420,note_on,0,0,1,,,,,,,,,0,,,81,114
15450,note_on,30,0,1,,,,,,,,,0,,,81,0
15450,note_on,0,0,1,,,,,,,,,0,,,84,114
15480,note_on,30,0,1,,,,,,,,,0,,,84,0
15480,note_on,0,0,3,,,,,,,,,2,,,62,101
15480,note_on,120,0,3,,,,,,,,,2,,,60,0
15480,note_on,0,0,3,,,,,,,,,2,,,48,0
15480,note_on,0,0,3,,,,,,,,,2,,,52,0
15480,note_on,0,0,3,,,,,,,,,2,,,57,0
15480,note_on,0,0,3,,,,,,,,,2,,,50,101
15480,note_on,0,0,3,,,,,,,,,2,,,53,101
15480,note_on,0,0,3,,,,,,,,,2,,,59,101
15480,note_on,0,0,1,,,,,,,,,0,,,71,114
15510,note_on,30,0,1,,,,,,,,,0,,,71,0
15510,note_on,0,0,1,,,,,,,,,0,,,74,114
15540,note_on,30,0,1,,,,,,,,,0,,,74,0
15540,note_on,0,0,1,,,,,,,,,0,,,77,114
15570,note_on,30,0,1,,,,,,,,,0,,,77,0
15570,note_on,0,0,1,,,,,,,,,0,,,83,114
15600,note_on,0,0,1,,,,,,,,,0,,,69,114
15600,note_on,30,0,1,,,,,,,,,0,,,83,0
15600,note_on,0,0,3,,,,,,,,,2,,,60,101
15600,note_on,0,0,3,,,,,,,,,2,,,52,101
15600,note_on,0,0,3,,,,,,,,,2,,,64,101
15600,note_on,0,0,3,,,,,,,,,2,,,57,101
15600,note_on,0,0,3,,,,,,,,,2,,,59,0
15600,note_on,0,0,3,,,,,,,,,2,,,53,0
15600,note_on,0,0,3,,,,,,,,,2,,,50,0
15600,note_on,120,0,3,,,,,,,,,2,,,62,0
15630,note_on,0,0,1,,,,,,,,,0,,,72,114
15630,note_on,30,0,1,,,,,,,,,0,,,69,0
15660,note_on,30,0,1,,,,,,,,,0,,,72,0
15660,note_on,0,0,1,,,,,,,,,0,,,76,114
15690,note_on,30,0,1,,,,,,,,,0,,,76,0
15690,note_on,0,0,1,,,,,,,,,0,,,81,114
15720,note_on,0,0,3,,,,,,,,,2,,,56,101
15720,note_on,0,0,3,,,,,,,,,2,,,64,101
15720,note_on,0,0,3,,,,,,,,,2,,,59,101
15720,note_on,0,0,3,,,,,,,,,2,,,52,101
15720,note_on,30,0,1,,,,,,,,,0,,,81,0
15720,note_on,0,0,3,,,,,,,,,2,,,57,0
15720,note_on,0,0,3,,,,,,,,,2,,,52,0
15720,note_on,120,0,3,,,,,,,,,2,,,64,0
15720,note_on,0,0,3,,,,,,,,,2,,,60,0
15720,note_on,0,0,1,,,,,,,,,0,,,68,114
15750,note_on,30,0,1,,,,,,,,,0,,,68,0
15750,note_on,0,0,1,,,,,,,,,0,,,71,114
15780,note_on,30,0,1,,,,,,,,,0,,,71,0
15780,note_on,0,0,1,,,,,,,,,0,,,76,114
15810,note_on,30,0,1,,,,,,,,,0,,,76,0
15810,note_on,0,0,1,,,,,,,,,0,,,80,114
15840,note_on,0,0,3,,,,,,,,,2,,,59,0
15840,control_change,0,0,3,,,,,,,,,2,64,127,,
15840,note_on,0,0,3,,,,,,,,,2,,,45,101
15840,note_on,0,0,3,,,,,,,,,2,,,52,0
15840,note_on,120,0,3,,,,,,,,,2,,,64,0
15840,note_on,30,0,1,,,,,,,,,0,,,80,0
15840,control_change,0,0,1,,,,,,,,,0,64,127,,
15840,note_on,0,0,1,,,,,,,,,0,,,57,114
15840,note_on,0,0,3,,,,,,,,,2,,,56,0
15900,note_on,60,0,1,,,,,,,,,0,,,57,0
15900,note_on,0,0,1,,,,,,,,,0,,,59,114
15900,note_on,60,0,3,,,,,,,,,2,,,45,0
15900,note_on,0,0,3,,,,,,,,,2,,,47,101
15930,note_on,0,0,1,,,,,,,,,0,,,60,114
15930,note_on,30,0,1,,,,,,,,,0,,,59,0
15930,note_on,30,0,3,,,,,,,,,2,,,47,0
15930,note_on,0,0,3,,,,,,,,,2,,,48,101
15960,note_on,0,0,3,,,,,,,,,2,,,50,101
15960,note_on,30,0,3,,,,,,,,,2,,,48,0
15960,note_on,0,0,1,,,,,,,,,0,,,62,114
15960,note_on,30,0,1,,,,,,,,,0,,,60,0
15990,note_on,30,0,1,,,,,,,,,0,,,62,0
15990,note_on,0,0,3,,,,,,,,,2,,,52,101
15990,note_on,30,0,3,,,,,,,,,2,,,50,0
15990,note_on,0,0,1,,,,,,,,,0,,,64,114
16020,note_on,0,0,1,,,,,,,,,0,,,66,114
16020,note_on,30,0,1,,,,,,,,,0,,,64,0
16020,note_on,30,0,3,,,,,,,,,2,,,52,0
16020,note_on,0,0,3,,,,,,,,,2,,,54,101
16050,note_on,0,0,3,,,,,,,,,2,,,56,101
16050,note_on,30,0,1,,,,,,,,,0,,,66,0
16050,note_on,0,0,1,,,,,,,,,0,,,68,114
16050,note_on,30,0,3,,,,,,,,,2,,,54,0
16080,note_on,30,0,1,,,,,,,,,0,,,68,0
16080,note_on,0,0,1,,,,,,,,,0,,,69,114
16080,note_on,0,0,3,,,,,,,,,2,,,57,101
16080,note_on,30,0,3,,,,,,,,,2,,,56,0
16110,note_on,30,0,1,,,,,,,,,0,,,69,0
16110,note_on,0,0,1,,,,,,,,,0,,,71,114
16110,note_on,30,0,3,,,,,,,,,2,,,57,0
16110,note_on,0,0,3,,,,,,,,,2,,,59,101
16140,note_on,30,0,3,,,,,,,,,2,,,59,0
16140,note_on,0,0,3,,,,,,,,,2,,,60,101
16140,note_on,0,0,1,,,,,,,,,0,,,72,114
16140,note_on,30,0,1,,,,,,,,,0,,,71,0
16170,note_on,0,0,1,,,,,,,,,0,,,74,114
16170,control_change,0,0,1,,,,,,,,,0,64,0,,
16170,control_change,0,0,3,,,,,,,,,2,64,0,,
16170,note_on,0,0,3,,,,,,,,,2,,,62,101
16170,note_on,30,0,3,,,,,,,,,2,,,60,0
16170,note_on,30,0,1,,,,,,,,,0,,,72,0
16200,note_on,30,0,3,,,,,,,,,2,,,62,0
16200,note_on,0,0,3,,,,,,,,,2,,,64,101
16200,note_on,0,0,1,,,,,,,,,0,,,76,114
16200,control_change,0,0,1,,,,,,,,,0,64,127,,
16200,note_on,30,0,1,,,,,,,,,0,,,74,0
16200,control_change,0,0,3,,,,,,,,,2,64,127,,
16230,note_on,30,0,3,,,,,,,,,2,,,64,0
16230,note_on,0,0,3,,,,,,,,,2,,,65,101
16230,note_on,0,0,1,,,,,,,,,0,,,77,114
16230,note_on,30,0,1,,,,,,,,,0,,,76,0
16260,note_on,30,0,1,,,,,,,,,0,,,77,0
16260,note_on,0,0,1,,,,,,,,,0,,,79,114
16260,note_on,0,0,3,,,,,,,,,2,,,67,101
16260,note_on,30,0,3,,,,,,,,,2,,,65,0
16290,note_on,0,0,3,,,,,,,,,2,,,69,101
16290,note_on,30,0,1,,,,,,,,,0,,,79,0
16290,note_on,0,0,1,,,,,,,,,0,,,81,114
16290,note_on,30,0,3,,,,,,,,,2,,,67,0
16320,note_on,0,0,1,,,,,,,,,0,,,82,114
16320,note_on,0,0,3,,,,,,,,,2,,,70,101
16320,note_on,30,0,3,,,,,,,,,2,,,69,0
16320,note_on,30,0,1,,,,,,,,,0,,,81,0
16332,note_on,12,0,3,,,,,,,,,2,,,70,0
16332,note_on,12,0,1,,,,,,,,,0,,,82,0
16440,control_change,108,0,1,,,,,,,,,0,64,0,,
16440,control_change,108,0,3,,,,,,,,,2,64,0,,
16560,control_change,120,0,1,,,,,,,,,0,64,127,,
16560,control_change,120,0,3,,,,,,,,,2,64,127,,
16680,note_on,120,0,1,,,,,,,,,0,,,79,114
16680,note_on,120,0,3,,,,,,,,,2,,,67,101
16692,note_on,12,0,3,,,,,,,,,2,,,67,0
16692,note_on,12,0,1,,,,,,,,,0,,,79,0
17040,note_on,348,0,3,,,,,,,,,2,,,64,75
17040,note_on,348,0,1,,,,,,,,,0,,,76,88
17052,note_on,12,0,3,,,,,,,,,2,,,64,0
17052,note_on,12,0,1,,,,,,,,,0,,,76,0
17400,note_on,348,0,3,,,,,,,,,2,,,61,36
17400,note_on,348,0,1,,,,,,,,,0,,,73,49
17412,note_on,12,0,3,,,,,,,,,2,,,61,0
17412,note_on,12,0,1,,,,,,,,,0,,,73,0
17640,time_signature,12600,1,0,4,4,24,8,,,,,,,,,
17760,note_on,348,0,1,,,,,,,,,0,,,72,49
17760,note_on,348,0,3,,,,,,,,,2,,,60,36
17772,note_on,12,0,3,,,,,,,,,2,,,60,0
17772,note_on,12,0,1,,,,,,,,,0,,,72,0
17880,control_change,108,0,3,,,,,,,,,2,64,0,,
17880,control_change,108,0,1,,,,,,,,,0,64,0,,
18120,control_change,240,0,1,,,,,,,,,0,64,127,,
18120,control_change,240,0,3,,,,,,,,,2,64,127,,
18120,note_on,0,0,1,,,,,,,,,0,,,69,36
18120,note_on,0,0,3,,,,,,,,,2,,,41,36
18120,note_on,13680,0,2,,,,,,,,,1,,,60,36
18120,time_signature,480,1,0,3,4,24,8,,,,,,,,,
18180,note_on,60,0,3,,,,,,,,,2,,,41,0
18180,note_on,0,0,3,,,,,,,,,2,,,48,36
18240,note_on,60,0,3,,,,,,,,,2,,,48,0
18240,note_on,0,0,3,,,,,,,,,2,,,53,36
18300,note_on,60,0,3,,,,,,,,,2,,,53,0
18300,note_on,0,0,3,,,,,,,,,2,,,48,36
18360,control_change,0,0,3,,,,,,,,,2,64,0,,
18360,note_on,60,0,3,,,,,,,,,2,,,48,0
18360,note_on,0,0,3,,,,,,,,,2,,,57,36
18420,note_on,0,0,1,,,,,,,,,0,,,70,36
18420,note_on,300,0,1,,,,,,,,,0,,,69,0
18420,note_on,60,0,3,,,,,,,,,2,,,57,0
18450,control_change,0,0,1,,,,,,,,,0,64,0,,
18450,note_on,0,0,1,,,,,,,,,0,,,69,36
18450,note_on,30,0,1,,,,,,,,,0,,,70,0
18480,control_change,0,0,1,,,,,,,,,0,64,127,,
18480,control_change,60,0,3,,,,,,,,,2,64,127,,
18480,note_on,30,0,1,,,,,,,,,0,,,69,0
18480,note_on,0,0,1,,,,,,,,,0,,,67,36
18480,note_on,0,0,3,,,,,,,,,2,,,40,36
18540,note_on,60,0,3,,,,,,,,,2,,,40,0
18540,note_on,0,0,3,,,,,,,,,2,,,48,36
18600,note_on,120,0,1,,,,,,,,,0,,,67,0
18600,note_on,0,0,1,,,,,,,,,0,,,70,36
18600,note_on,60,0,3,,,,,,,,,2,,,48,0
18600,note_on,0,0,3,,,,,,,,,2,,,55,36
18660,note_on,60,0,3,,,,,,,,,2,,,55,0
18660,note_on,0,0,3,,,,,,,,,2,,,48,36
18720,control_change,0,0,3,,,,,,,,,2,64,0,,
18720,note_on,0,0,3,,,,,,,,,2,,,58,36
18720,note_on,0,0,1,,,,,,,,,0,,,73,36
18720,control_change,0,0,1,,,,,,,,,0,64,0,,
18720,note_on,120,0,1,,,,,,,,,0,,,70,0
18720,note_on,60,0,3,,,,,,,,,2,,,48,0
18780,note_on,60,0,3,,,,,,,,,2,,,58,0
18840,note_on,720,0,2,,,,,,,,,1,,,60,0
18840,control_change,60,0,3,,,,,,,,,2,64,127,,
18840,note_on,0,0,1,,,,,,,,,0,,,72,36
18840,note_on,120,0,1,,,,,,,,,0,,,73,0
18840,note_on,0,0,2,,,,,,,,,1,,,60,36
18840,note_on,0,0,3,,,,,,,,,2,,,41,36
18900,note_on,60,0,3,,,,,,,,,2,,,41,0
18900,note_on,0,0,3,,,,,,,,,2,,,48,36
18960,note_on,60,0,3,,,,,,,,,2,,,48,0
18960,note_on,0,0,3,,,,,,,,,2,,,57,36
19020,note_on,0,0,3,,,,,,,,,2,,,48,36
19020,note_on,60,0,3,,,,,,,,,2,,,57,0
19080,note_on,0,0,1,,,,,,,,,0,,,69,36
19080,note_on,0,0,3,,,,,,,,,2,,,53,36
19080,control_change,0,0,3,,,,,,,,,2,64,0,,
19080,note_on,60,0,3,,,,,,,,,2,,,48,0
19080,note_on,240,0,1,,,,,,,,,0,,,72,0
19140,note_on,60,0,3,,,,,,,,,2,,,53,0
19200,note_on,360,0,2,,,,,,,,,1,,,60,0
19200,note_on,0,0,3,,,,,,,,,2,,,40,36
19200,control_change,60,0,3,,,,,,,,,2,64,127,,
19200,note_on,0,0,2,,,,,,,,,1,,,60,36
19200,note_on,120,0,1,,,,,,,,,0,,,69,0
19200,note_on,0,0,1,,,,,,,,,0,,,72,36
19260,note_on,60,0,3,,,,,,,,,2,,,40,0
19260,note_on,0,0,3,,,,,,,,,2,,,48,36
19320,note_on,60,0,3,,,,,,,,,2,,,48,0
19320,note_on,0,0,3,,,,,,,,,2,,,52,36
19380,note_on,60,0,3,,,,,,,,,2,,,52,0
19380,note_on,0,0,3,,,,,,,,,2,,,48,36
19440,note_on,240,0,1,,,,,,,,,0,,,72,0
19440,note_on,0,0,1,,,,,,,,,0,,,70,36
19440,note_on,0,0,3,,,,,,,,,2,,,55,36
19440,note_on,60,0,3,,,,,,,,,2,,,48,0
19440,control_change,0,0,3,,,,,,,,,2,64,0,,
19500,note_on,60,0,3,,,,,,,,,2,,,55,0
19560,note_on,0,0,3,,,,,,,,,2,,,41,36
19560,control_change,60,0,3,,,,,,,,,2,64,127,,
19560,note_on,0,0,2,,,,,,,,,1,,,60,36
19560,note_on,0,0,1,,,,,,,,,0,,,69,36
19560,control_change,0,0,1,,,,,,,,,0,64,127,,
19560,note_on,120,0,1,,,,,,,,,0,,,70,0
19560,note_on,360,0,2,,,,,,,,,1,,,60,0
19620,note_on,60,0,3,,,,,,,,,2,,,41,0
19620,note_on,0,0,3,,,,,,,,,2,,,48,36
19680,note_on,60,0,3,,,,,,,,,2,,,48,0
19680,note_on,0,0,3,,,,,,,,,2,,,53,36
19740,note_on,60,0,3,,,,,,,,,2,,,53,0
19740,note_on,0,0,3,,,,,,,,,2,,,48,36
19800,control_change,0,0,3,,,,,,,,,2,64,0,,
19800,note_on,0,0,3,,,,,,,,,2,,,57,36
19800,note_on,60,0,3,,,,,,,,,2,,,48,0
19860,note_on,60,0,3,,,,,,,,,2,,,57,0
19860,note_on,300,0,1,,,,,,,,,0,,,69,0
19860,note_on,0,0,1,,,,,,,,,0,,,70,36
19890,note_on,30,0,1,,,,,,,,,0,,,70,0
19890,control_change,0,0,1,,,,,,,,,0,64,0,,
19890,note_on,0,0,1,,,,,,,,,0,,,69,36
19920,note_on,0,0,1,,,,,,,,,0,,,67,36
19920,control_change,0,0,1,,,,,,,,,0,64,127,,
19920,note_on,0,0,3,,,,,,,,,2,,,40,36
19920,control_change,60,0,3,,,,,,,,,2,64,127,,
19920,note_on,30,0,1,,,,,,,,,0,,,69,0
19980,note_on,0,0,3,,,,,,,,,2,,,48,36
19980,note_on,60,0,3,,,,,,,,,2,,,40,0
20040,note_on,0,0,3,,,,,,,,,2,,,55,36
20040,note_on,0,0,1,,,,,,,,,0,,,70,36
20040,note_on,120,0,1,,,,,,,,,0,,,67,0
20040,note_on,60,0,3,,,,,,,,,2,,,48,0
20100,note_on,0,0,3,,,,,,,,,2,,,48,36
20100,note_on,60,0,3,,,,,,,,,2,,,55,0
20160,note_on,60,0,3,,,,,,,,,2,,,48,0
20160,note_on,120,0,1,,,,,,,,,0,,,70,0
20160,control_change,0,0,1,,,,,,,,,0,64,0,,
20160,note_on,0,0,1,,,,,,,,,0,,,73,36
20160,control_change,0,0,3,,,,,,,,,2,64,0,,
20160,note_on,0,0,3,,,,,,,,,2,,,58,36
20220,note_on,60,0,3,,,,,,,,,2,,,58,0
20280,control_change,60,0,3,,,,,,,,,2,64,127,,
20280,note_on,0,0,3,,,,,,,,,2,,,41,36
20280,note_on,0,0,1,,,,,,,,,0,,,72,36
20280,note_on,720,0,2,,,,,,,,,1,,,60,0
20280,note_on,0,0,2,,,,,,,,,1,,,60,36
20280,note_on,120,0,1,,,,,,,,,0,,,73,0
20340,note_on,60,0,3,,,,,,,,,2,,,41,0
20340,note_on,0,0,3,,,,,,,,,2,,,48,36
20400,note_on,60,0,3,,,,,,,,,2,,,48,0
20400,note_on,0,0,3,,,,,,,,,2,,,57,36
20460,note_on,60,0,3,,,,,,,,,2,,,57,0
20460,note_on,0,0,3,,,,,,,,,2,,,48,36
20520,note_on,60,0,3,,,,,,,,,2,,,48,0
20520,note_on,0,0,1,,,,,,,,,0,,,69,36
20520,control_change,0,0,3,,,,,,,,,2,64,0,,
20520,note_on,240,0,1,,,,,,,,,0,,,72,0
20520,note_on,0,0,3,,,,,,,,,2,,,53,36
20580,note_on,60,0,3,,,,,,,,,2,,,53,0
20640,note_on,0,0,1,,,,,,,,,0,,,72,36
20640,note_on,120,0,1,,,,,,,,,0,,,69,0
20640,control_change,60,0,3,,,,,,,,,2,64,127,,
20640,note_on,0,0,3,,,,,,,,,2,,,40,36
20640,note_on,0,0,2,,,,,,,,,1,,,60,36
20640,note_on,360,0,2,,,,,,,,,1,,,60,0
20700,note_on,60,0,3,,,,,,,,,2,,,40,0
20700,note_on,0,0,3,,,,,,,,,2,,,48,36
20760,note_on,60,0,3,,,,,,,,,2,,,48,0
20760,note_on,0,0,3,,,,,,,,,2,,,52,36
20820,note_on,60,0,3,,,,,,,,,2,,,52,0
20820,note_on,0,0,3,,,,,,,,,2,,,48,36
20880,note_on,0,0,3,,,,,,,,,2,,,55,36
20880,note_on,60,0,3,,,,,,,,,2,,,48,0
20880,note_on,0,0,1,,,,,,,,,0,,,70,36
20880,note_on,240,0,1,,,,,,,,,0,,,72,0
20880,control_change,0,0,3,,,,,,,,,2,64,0,,
20940,note_on,60,0,3,,,,,,,,,2,,,55,0
21000,note_on,120,0,1,,,,,,,,,0,,,70,0
21000,note_on,0,0,1,,,,,,,,,0,,,73,36
21000,note_on,0,0,2,,,,,,,,,1,,,61,36
21000,note_on,360,0,2,,,,,,,,,1,,,60,0
21000,note_on,0,0,3,,,,,,,,,2,,,40,36
21000,control_change,60,0,3,,,,,,,,,2,64,127,,
21060,note_on,0,0,3,,,,,,,,,2,,,49,36
21060,note_on,60,0,3,,,,,,,,,2,,,40,0
21120,note_on,0,0,3,,,,,,,,,2,,,52,36
21120,note_on,60,0,3,,,,,,,,,2,,,49,0
21180,note_on,0,0,3,,,,,,,,,2,,,49,36
21180,note_on,60,0,3,,,,,,,,,2,,,52,0
21240,control_change,0,0,3,,,,,,,,,2,64,0,,
21240,note_on,60,0,3,,,,,,,,,2,,,49,0
21240,note_on,240,0,1,,,,,,,,,0,,,73,0
21240,note_on,0,0,1,,,,,,,,,0,,,70,36
21240,note_on,0,0,3,,,,,,,,,2,,,55,36
21300,note_on,60,0,3,,,,,,,,,2,,,55,0
21360,note_on,0,0,1,,,,,,,,,0,,,74,49
21360,note_on,0,0,2,,,,,,,,,1,,,62,36
21360,note_on,360,0,2,,,,,,,,,1,,,61,0
21360,note_on,120,0,1,,,,,,,,,0,,,70,0
21360,note_on,0,0,3,,,,,,,,,2,,,41,36
21360,control_change,60,0,3,,,,,,,,,2,64,127,,
21420,note_on,0,0,3,,,,,,,,,2,,,50,36
21420,note_on,60,0,3,,,,,,,,,2,,,41,0
21480,note_on,60,0,3,,,,,,,,,2,,,50,0
21480,note_on,0,0,3,,,,,,,,,2,,,53,36
21540,note_on,60,0,3,,,,,,,,,2,,,53,0
21540,note_on,0,0,3,,,,,,,,,2,,,50,36
21600,note_on,240,0,1,,,,,,,,,0,,,74,0
21600,note_on,0,0,1,,,,,,,,,0,,,70,49
21600,note_on,0,0,3,,,,,,,,,2,,,58,36
21600,control_change,0,0,3,,,,,,,,,2,64,0,,
21600,note_on,60,0,3,,,,,,,,,2,,,50,0
21660,note_on,60,0,3,,,,,,,,,2,,,58,0
21720,note_on,0,0,2,,,,,,,,,1,,,63,49
21720,note_on,360,0,2,,,,,,,,,1,,,62,0
21720,control_change,60,0,3,,,,,,,,,2,64,127,,
21720,note_on,0,0,3,,,,,,,,,2,,,41,49
21720,note_on,120,0,1,,,,,,,,,0,,,70,0
21720,control_change,0,0,1,,,,,,,,,0,64,127,,
21720,note_on,0,0,1,,,,,,,,,0,,,69,62
21780,note_on,0,0,3,,,,,,,,,2,,,53,49
21780,note_on,60,0,3,,,,,,,,,2,,,41,0
21840,note_on,120,0,1,,,,,,,,,0,,,69,0
21840,note_on,0,0,1,,,,,,,,,0,,,78,62
21840,note_on,0,0,3,,,,,,,,,2,,,60,49
21840,note_on,60,0,3,,,,,,,,,2,,,53,0
21900,note_on,60,0,3,,,,,,,,,2,,,60,0
21900,note_on,0,0,3,,,,,,,,,2,,,53,49
21960,note_on,120,0,1,,,,,,,,,0,,,78,0
21960,control_change,0,0,1,,,,,,,,,0,64,0,,
21960,note_on,0,0,1,,,,,,,,,0,,,77,62
21960,note_on,60,0,3,,,,,,,,,2,,,53,0
21960,control_change,0,0,3,,,,,,,,,2,64,0,,
21960,note_on,0,0,3,,,,,,,,,2,,,60,49
22020,note_on,60,0,3,,,,,,,,,2,,,60,0
22080,note_on,120,0,1,,,,,,,,,0,,,77,0
22080,note_on,360,0,2,,,,,,,,,1,,,63,0
22080,note_on,0,0,2,,,,,,,,,1,,,65,62
22080,control_change,60,0,3,,,,,,,,,2,64,127,,
22080,note_on,0,0,3,,,,,,,,,2,,,46,62
22080,note_on,0,0,1,,,,,,,,,0,,,75,75
22140,note_on,60,0,3,,,,,,,,,2,,,46,0
22140,note_on,0,0,3,,,,,,,,,2,,,53,62
22200,note_on,60,0,3,,,,,,,,,2,,,53,0
22200,note_on,0,0,3,,,,,,,,,2,,,58,62
22260,note_on,60,0,3,,,,,,,,,2,,,58,0
22260,note_on,0,0,3,,,,,,,,,2,,,53,62
22320,note_on,240,0,1,,,,,,,,,0,,,75,0
22320,note_on,0,0,1,,,,,,,,,0,,,74,75
22320,note_on,0,0,3,,,,,,,,,2,,,62,62
22320,control_change,0,0,3,,,,,,,,,2,64,0,,
22320,note_on,60,0,3,,,,,,,,,2,,,53,0
22380,note_on,60,0,3,,,,,,,,,2,,,62,0
22440,control_change,60,0,3,,,,,,,,,2,64,127,,
22440,note_on,120,0,1,,,,,,,,,0,,,74,0
22440,note_on,0,0,2,,,,,,,,,1,,,60,62
22440,note_on,0,0,1,,,,,,,,,0,,,69,75
22440,control_change,0,0,1,,,,,,,,,0,64,127,,
22440,note_on,0,0,3,,,,,,,,,2,,,38,62
22440,note_on,360,0,2,,,,,,,,,1,,,65,0
22500,note_on,0,0,3,,,,,,,,,2,,,50,62
22500,note_on,60,0,3,,,,,,,,,2,,,38,0
22560,note_on,60,0,3,,,,,,,,,2,,,50,0
22560,note_on,0,0,3,,,,,,,,,2,,,54,62
22560,note_on,0,0,1,,,,,,,,,0,,,75,75
22560,note_on,120,0,1,,,,,,,,,0,,,69,0
22620,note_on,60,0,3,,,,,,,,,2,,,54,0
22620,note_on,0,0,3,,,,,,,,,2,,,50,62
22680,note_on,60,0,3,,,,,,,,,2,,,50,0
22680,control_change,0,0,3,,,,,,,,,2,64,0,,
22680,note_on,0,0,3,,,,,,,,,2,,,57,62
22680,note_on,120,0,1,,,,,,,,,0,,,75,0
22680,control_change,0,0,1,,,,,,,,,0,64,0,,
22680,note_on,0,0,1,,,,,,,,,0,,,74,75
22740,note_on,60,0,3,,,,,,,,,2,,,57,0
22800,note_on,0,0,3,,,,,,,,,2,,,43,49
22800,note_on,360,0,2,,,,,,,,,1,,,60,0
22800,note_on,0,0,1,,,,,,,,,0,,,72,62
22800,control_change,60,0,3,,,,,,,,,2,64,127,,
22800,note_on,120,0,1,,,,,,,,,0,,,74,0
22800,note_on,0,0,2,,,,,,,,,1,,,62,49
22860,note_on,60,0,3,,,,,,,,,2,,,43,0
22860,note_on,0,0,3,,,,,,,,,2,,,50,49
22920,note_on,0,0,3,,,,,,,,,2,,,55,49
22920,note_on,60,0,3,,,,,,,,,2,,,50,0
22980,note_on,60,0,3,,,,,,,,,2,,,55,0
22980,note_on,0,0,3,,,,,,,,,2,,,50,49
23040,note_on,0,0,1,,,,,,,,,0,,,70,62
23040,note_on,240,0,1,,,,,,,,,0,,,72,0
23040,note_on,60,0,3,,,,,,,,,2,,,50,0
23040,control_change,0,0,3,,,,,,,,,2,64,0,,
23040,note_on,0,0,3,,,,,,,,,2,,,58,49
23100,note_on,60,0,3,,,,,,,,,2,,,58,0
23160,note_on,0,0,2,,,,,,,,,1,,,60,36
23160,note_on,360,0,2,,,,,,,,,1,,,62,0
23160,note_on,0,0,1,,,,,,,,,0,,,72,49
23160,note_on,0,0,3,,,,,,,,,2,,,40,36
23160,control_change,60,0,3,,,,,,,,,2,64,127,,
23160,note_on,120,0,1,,,,,,,,,0,,,70,0
23220,note_on,0,0,3,,,,,,,,,2,,,48,36
23220,note_on,60,0,3,,,,,,,,,2,,,40,0
23280,note_on,0,0,3,,,,,,,,,2,,,52,36
23280,note_on,60,0,3,,,,,,,,,2,,,48,0
23340,note_on,0,0,3,,,,,,,,,2,,,48,36
23340,note_on,60,0,3,,,,,,,,,2,,,52,0
23400,note_on,0,0,3,,,,,,,,,2,,,55,36
23400,note_on,0,0,1,,,,,,,,,0,,,70,49
23400,control_change,0,0,3,,,,,,,,,2,64,0,,
23400,note_on,60,0,3,,,,,,,,,2,,,48,0
23400,note_on,240,0,1,,,,,,,,,0,,,72,0
23460,note_on,60,0,3,,,,,,,,,2,,,55,0
23520,control_change,60,0,3,,,,,,,,,2,64,127,,
23520,note_on,0,0,3,,,,,,,,,2,,,41,36
23520,note_on,0,0,2,,,,,,,,,1,,,60,36
23520,note_on,360,0,2,,,,,,,,,1,,,60,0
23520,note_on,120,0,1,,,,,,,,,0,,,70,0
23520,note_on,0,0,1,,,,,,,,,0,,,72,49
23580,note_on,0,0,3,,,,,,,,,2,,,48,36
23580,note_on,60,0,3,,,,,,,,,2,,,41,0
23640,note_on,0,0,3,,,,,,,,,2,,,57,36
23640,note_on,60,0,3,,,,,,,,,2,,,48,0
23700,note_on,0,0,3,,,,,,,,,2,,,48,36
23700,note_on,60,0,3,,,,,,,,,2,,,57,0
23760,note_on,0,0,3,,,,,,,,,2,,,53,36
23760,note_on,60,0,3,,,,,,,,,2,,,48,0
23760,control_change,0,0,3,,,,,,,,,2,64,0,,
23760,note_on,0,0,1,,,,,,,,,0,,,69,49
23760,note_on,240,0,1,,,,,,,,,0,,,72,0
23820,note_on,60,0,3,,,,,,,,,2,,,53,0
23880,control_change,60,0,3,,,,,,,,,2,64,127,,
23880,note_on,360,0,2,,,,,,,,,1,,,60,0
23880,note_on,0,0,3,,,,,,,,,2,,,36,36
23880,note_on,0,0,1,,,,,,,,,0,,,73,75
23880,control_change,0,0,1,,,,,,,,,0,64,127,,
23880,note_on,120,0,1,,,,,,,,,0,,,69,0
23880,note_on,0,0,2,,,,,,,,,1,,,58,36
23940,note_on,60,0,3,,,,,,,,,2,,,36,0
23940,note_on,0,0,3,,,,,,,,,2,,,48,36
24000,note_on,0,0,1,,,,,,,,,0,,,72,49
24000,note_on,60,0,3,,,,,,,,,2,,,48,0
24000,note_on,0,0,3,,,,,,,,,2,,,55,36
24000,note_on,120,0,1,,,,,,,,,0,,,73,0
24060,note_on,60,0,3,,,,,,,,,2,,,55,0
24060,note_on,0,0,3,,,,,,,,,2,,,48,36
24060,note_on,0,0,1,,,,,,,,,0,,,70,49
24060,note_on,60,0,1,,,,,,,,,0,,,72,0
24120,note_on,0,0,3,,,,,,,,,2,,,52,36
24120,note_on,60,0,1,,,,,,,,,0,,,70,0
24120,note_on,0,0,1,,,,,,,,,0,,,69,49
24120,note_on,60,0,3,,,,,,,,,2,,,48,0
24120,control_change,0,0,3,,,,,,,,,2,64,0,,
24180,note_on,60,0,1,,,,,,,,,0,,,69,0
24180,control_change,0,0,1,,,,,,,,,0,64,0,,
24180,note_on,0,0,1,,,,,,,,,0,,,67,49
24180,note_on,60,0,3,,,,,,,,,2,,,52,0
24240,control_change,60,0,3,,,,,,,,,2,64,127,,
24240,note_on,0,0,3,,,,,,,,,2,,,41,36
24240,note_on,360,0,2,,,,,,,,,1,,,58,0
24240,note_on,0,0,1,,,,,,,,,0,,,65,36
24240,control_change,0,0,1,,,,,,,,,0,64,127,,
24240,note_on,60,0,1,,,,,,,,,0,,,67,0
24240,note_on,0,0,2,,,,,,,,,1,,,57,36
24300,note_on,0,0,3,,,,,,,,,2,,,48,36
24300,note_on,60,0,3,,,,,,,,,2,,,41,0
24360,note_on,0,0,3,,,,,,,,,2,,,57,36
24360,note_on,120,0,2,,,,,,,,,1,,,57,0
24360,note_on,60,0,3,,,,,,,,,2,,,48,0
24420,note_on,0,0,1,,,,,,,,,0,,,67,36
24420,note_on,60,0,3,,,,,,,,,2,,,57,0
24420,note_on,0,0,3,,,,,,,,,2,,,48,36
24420,note_on,180,0,1,,,,,,,,,0,,,65,0
24480,note_on,0,0,1,,,,,,,,,0,,,69,36
24480,note_on,60,0,1,,,,,,,,,0,,,67,0
24480,note_on,60,0,3,,,,,,,,,2,,,48,0
24480,control_change,0,0,3,,,,,,,,,2,64,0,,
24480,note_on,0,0,3,,,,,,,,,2,,,53,36
24540,note_on,0,0,1,,,,,,,,,0,,,70,36
24540,control_change,0,0,1,,,,,,,,,0,64,0,,
24540,note_on,60,0,1,,,,,,,,,0,,,69,0
24540,note_on,60,0,3,,,,,,,,,2,,,53,0
24600,note_on,0,0,1,,,,,,,,,0,,,69,62
24600,control_change,0,0,1,,,,,,,,,0,64,127,,
24600,note_on,240,0,2,,,,,,,,,1,,,63,49
24600,note_on,60,0,1,,,,,,,,,0,,,70,0
24600,note_on,0,0,3,,,,,,,,,2,,,41,49
24600,control_change,60,0,3,,,,,,,,,2,64,127,,
24660,note_on,0,0,3,,,,,,,,,2,,,53,49
24660,note_on,60,0,3,,,,,,,,,2,,,41,0
24720,note_on,60,0,3,,,,,,,,,2,,,53,0
24720,note_on,0,0,3,,,,,,,,,2,,,60,49
24720,note_on,0,0,1,,,,,,,,,0,,,78,62
24720,note_on,120,0,1,,,,,,,,,0,,,69,0
24780,note_on,60,0,3,,,,,,,,,2,,,60,0
24780,note_on,0,0,3,,,,,,,,,2,,,53,49
24840,note_on,60,0,3,,,,,,,,,2,,,53,0
24840,control_change,0,0,3,,,,,,,,,2,64,0,,
24840,note_on,0,0,3,,,,,,,,,2,,,60,49
24840,note_on,120,0,1,,,,,,,,,0,,,78,0
24840,control_change,0,0,1,,,,,,,,,0,64,0,,
24840,note_on,0,0,1,,,,,,,,,0,,,77,62
24900,note_on,60,0,3,,,,,,,,,2,,,60,0
24960,note_on,0,0,1,,,,,,,,,0,,,75,75
24960,note_on,0,0,3,,,,,,,,,2,,,46,62
24960,control_change,60,0,3,,,,,,,,,2,64,127,,
24960,note_on,0,0,2,,,,,,,,,1,,,65,62
24960,note_on,360,0,2,,,,,,,,,1,,,63,0
24960,note_on,120,0,1,,,,,,,,,0,,,77,0
25020,note_on,0,0,3,,,,,,,,,2,,,53,62
25020,note_on,60,0,3,,,,,,,,,2,,,46,0
25080,note_on,0,0,3,,,,,,,,,2,,,58,62
25080,note_on,60,0,3,,,,,,,,,2,,,53,0
25140,note_on,0,0,3,,,,,,,,,2,,,53,62
25140,note_on,60,0,3,,,,,,,,,2,,,58,0
25200,note_on,60,0,3,,,,,,,,,2,,,53,0
25200,control_change,0,0,3,,,,,,,,,2,64,0,,
25200,note_on,0,0,1,,,,,,,,,0,,,74,75
25200,note_on,0,0,3,,,,,,,,,2,,,62,62
25200,note_on,240,0,1,,,,,,,,,0,,,75,0
25260,note_on,60,0,3,,,,,,,,,2,,,62,0
25320,note_on,120,0,1,,,,,,,,,0,,,74,0
25320,note_on,0,0,2,,,,,,,,,1,,,60,62
25320,note_on,0,0,1,,,,,,,,,0,,,69,75
25320,control_change,0,0,1,,,,,,,,,0,64,127,,
25320,note_on,360,0,2,,,,,,,,,1,,,65,0
25320,note_on,0,0,3,,,,,,,,,2,,,38,62
25320,control_change,60,0,3,,,,,,,,,2,64,127,,
25380,note_on,60,0,3,,,,,,,,,2,,,38,0
25380,note_on,0,0,3,,,,,,,,,2,,,50,62
25440,note_on,60,0,3,,,,,,,,,2,,,50,0
25440,note_on,0,0,3,,,,,,,,,2,,,54,62
25440,note_on,120,0,1,,,,,,,,,0,,,69,0
25440,note_on,0,0,1,,,,,,,,,0,,,75,75
25500,note_on,0,0,3,,,,,,,,,2,,,50,62
25500,note_on,60,0,3,,,,,,,,,2,,,54,0
25560,control_change,0,0,3,,,,,,,,,2,64,0,,
25560,note_on,120,0,1,,,,,,,,,0,,,75,0
25560,note_on,0,0,3,,,,,,,,,2,,,57,62
25560,note_on,60,0,3,,,,,,,,,2,,,50,0
25560,note_on,0,0,1,,,,,,,,,0,,,74,75
25560,control_change,0,0,1,,,,,,,,,0,64,0,,
25620,note_on,60,0,3,,,,,,,,,2,,,57,0
25680,note_on,0,0,3,,,,,,,,,2,,,43,49
25680,note_on,360,0,2,,,,,,,,,1,,,60,0
25680,control_change,60,0,3,,,,,,,,,2,64,127,,
25680,note_on,120,0,1,,,,,,,,,0,,,74,0
25680,note_on,0,0,1,,,,,,,,,0,,,72,62
25680,note_on,0,0,2,,,,,,,,,1,,,62,49
25740,note_on,60,0,3,,,,,,,,,2,,,43,0
25740,note_on,0,0,3,,,,,,,,,2,,,50,49
25800,note_on,0,0,3,,,,,,,,,2,,,55,49
25800,note_on,60,0,3,,,,,,,,,2,,,50,0
25860,note_on,0,0,3,,,,,,,,,2,,,50,49
25860,note_on,60,0,3,,,,,,,,,2,,,55,0
25920,note_on,0,0,3,,,,,,,,,2,,,58,49
25920,control_change,0,0,3,,,,,,,,,2,64,0,,
25920,note_on,0,0,1,,,,,,,,,0,,,70,62
25920,note_on,240,0,1,,,,,,,,,0,,,72,0
25920,note_on,60,0,3,,,,,,,,,2,,,50,0
25980,note_on,60,0,3,,,,,,,,,2,,,58,0
26040,note_on,0,0,2,,,,,,,,,1,,,60,36
26040,note_on,120,0,1,,,,,,,,,0,,,70,0
26040,control_change,60,0,3,,,,,,,,,2,64,127,,
26040,note_on,0,0,3,,,,,,,,,2,,,40,36
26040,note_on,0,0,1,,,,,,,,,0,,,72,49
26040,note_on,360,0,2,,,,,,,,,1,,,62,0
26100,note_on,0,0,3,,,,,,,,,2,,,48,36
26100,note_on,60,0,3,,,,,,,,,2,,,40,0
26160,note_on,60,0,3,,,,,,,,,2,,,48,0
26160,note_on,0,0,3,,,,,,,,,2,,,52,36
26220,note_on,60,0,3,,,,,,,,,2,,,52,0
26220,note_on,0,0,3,,,,,,,,,2,,,48,36
26280,note_on,0,0,1,,,,,,,,,0,,,70,49
26280,note_on,0,0,3,,,,,,,,,2,,,55,36
26280,note_on,60,0,3,,,,,,,,,2,,,48,0
26280,control_change,0,0,3,,,,,,,,,2,64,0,,
26280,note_on,240,0,1,,,,,,,,,0,,,72,0
26340,note_on,60,0,3,,,,,,,,,2,,,55,0
26400,control_change,60,0,3,,,,,,,,,2,64,127,,
26400,note_on,0,0,3,,,,,,,,,2,,,41,36
26400,note_on,0,0,1,,,,,,,,,0,,,72,49
26400,note_on,360,0,2,,,,,,,,,1,,,60,0
26400,note_on,0,0,2,,,,,,,,,1,,,60,36
26400,note_on,120,0,1,,,,,,,,,0,,,70,0
26460,note_on,60,0,3,,,,,,,,,2,,,41,0
26460,note_on,0,0,3,,,,,,,,,2,,,48,36
26520,note_on,60,0,3,,,,,,,,,2,,,48,0
26520,note_on,0,0,3,,,,,,,,,2,,,57,36
26580,note_on,60,0,3,,,,,,,,,2,,,57,0
26580,note_on,0,0,3,,,,,,,,,2,,,48,36
26640,note_on,0,0,1,,,,,,,,,0,,,69,49
26640,note_on,0,0,3,,,,,,,,,2,,,53,36
26640,control_change,0,0,3,,,,,,,,,2,64,0,,
26640,note_on,60,0,3,,,,,,,,,2,,,48,0
26640,note_on,240,0,1,,,,,,,,,0,,,72,0
26700,note_on,60,0,3,,,,,,,,,2,,,53,0
26760,note_on,0,0,1,,,,,,,,,0,,,73,75
26760,control_change,0,0,1,,,,,,,,,0,64,127,,
26760,note_on,120,0,1,,,,,,,,,0,,,69,0
26760,note_on,0,0,2,,,,,,,,,1,,,58,36
26760,note_on,360,0,2,,,,,,,,,1,,,60,0
26760,control_change,60,0,3,,,,,,,,,2,64,127,,
26760,note_on,0,0,3,,,,,,,,,2,,,36,36
26820,note_on,60,0,3,,,,,,,,,2,,,36,0
26820,note_on,0,0,3,,,,,,,,,2,,,48,36
26880,note_on,60,0,3,,,,,,,,,2,,,48,0
26880,note_on,0,0,1,,,,,,,,,0,,,72,49
26880,note_on,120,0,1,,,,,,,,,0,,,73,0
26880,note_on,0,0,3,,,,,,,,,2,,,55,36
26940,note_on,60,0,1,,,,,,,,,0,,,72,0
26940,note_on,0,0,3,,,,,,,,,2,,,48,36
26940,note_on,0,0,1,,,,,,,,,0,,,70,49
26940,note_on,60,0,3,,,,,,,,,2,,,55,0
27000,note_on,60,0,1,,,,,,,,,0,,,70,0
27000,note_on,0,0,1,,,,,,,,,0,,,69,49
27000,note_on,0,0,3,,,,,,,,,2,,,52,36
27000,control_change,0,0,3,,,,,,,,,2,64,0,,
27000,note_on,60,0,3,,,,,,,,,2,,,48,0
27060,note_on,0,0,1,,,,,,,,,0,,,67,49
27060,note_on,60,0,1,,,,,,,,,0,,,69,0
27060,note_on,60,0,3,,,,,,,,,2,,,52,0
27060,control_change,0,0,1,,,,,,,,,0,64,0,,
27120,note_on,0,0,3,,,,,,,,,2,,,41,36
27120,control_change,60,0,3,,,,,,,,,2,64,127,,
27120,note_on,0,0,1,,,,,,,,,0,,,65,49
27120,note_on,0,0,1,,,,,,,,,0,,,57,49
27120,note_on,60,0,1,,,,,,,,,0,,,67,0
27120,note_on,360,0,2,,,,,,,,,1,,,58,0
27180,note_on,60,0,3,,,,,,,,,2,,,41,0
27180,note_on,0,0,3,,,,,,,,,2,,,48,36
27240,note_on,0,0,1,,,,,,,,,0,,,57,0
27240,note_on,0,0,3,,,,,,,,,2,,,53,36
27240,note_on,60,0,3,,,,,,,,,2,,,48,0
27240,note_on,120,0,1,,,,,,,,,0,,,65,0
27300,note_on,0,0,3,,,,,,,,,2,,,48,36
27300,note_on,60,0,3,,,,,,,,,2,,,53,0
27360,note_on,0,0,3,,,,,,,,,2,,,57,36
27360,note_on,60,0,3,,,,,,,,,2,,,48,0
27360,control_change,0,0,3,,,,,,,,,2,64,0,,
27420,note_on,60,0,3,,,,,,,,,2,,,57,0
27480,control_change,60,0,3,,,,,,,,,2,64,127,,
27480,note_on,240,0,1,,,,,,,,,0,,,60,36
27480,note_on,0,0,1,,,,,,,,,0,,,69,36
27480,note_on,0,0,3,,,,,,,,,2,,,41,36
27540,note_on,60,0,3,,,,,,,,,2,,,41,0
27540,note_on,0,0,3,,,,,,,,,2,,,48,36
27600,note_on,60,0,3,,,,,,,,,2,,,48,0
27600,note_on,0,0,3,,,,,,,,,2,,,53,36
27660,note_on,60,0,3,,,,,,,,,2,,,53,0
27660,note_on,0,0,3,,,,,,,,,2,,,48,36
27720,note_on,0,0,3,,,,,,,,,2,,,57,36
27720,control_change,0,0,3,,,,,,,,,2,64,0,,
27720,note_on,60,0,3,,,,,,,,,2,,,48,0
27780,note_on,60,0,3,,,,,,,,,2,,,57,0
27840,note_on,0,0,3,,,,,,,,,2,,,40,36
27840,note_on,360,0,1,,,,,,,,,0,,,69,0
27840,note_on,0,0,1,,,,,,,,,0,,,60,0
27840,note_on,0,0,1,,,,,,,,,0,,,60,36
27840,note_on,0,0,1,,,,,,,,,0,,,64,36
27840,note_on,0,0,1,,,,,,,,,0,,,69,36
27840,control_change,60,0,3,,,,,,,,,2,64,127,,
27900,note_on,60,0,3,,,,,,,,,2,,,40,0
27900,note_on,0,0,3,,,,,,,,,2,,,48,36
27900,set_tempo,9780,1,0,,,,,,348837,,,,,,,
27960,set_tempo,60,1,0,,,,,,365854,,,,,,,
27960,note_on,60,0,3,,,,,,,,,2,,,48,0
27960,note_on,0,0,3,,,,,,,,,2,,,52,36
28020,set_tempo,60,1,0,,,,,,384615,,,,,,,
28020,note_on,60,0,3,,,,,,,,,2,,,52,0
28020,note_on,0,0,3,,,,,,,,,2,,,48,36
28080,note_on,60,0,3,,,,,,,,,2,,,48,0
28080,note_on,0,0,3,,,,,,,,,2,,,57,36
28080,control_change,0,0,3,,,,,,,,,2,64,0,,
28080,set_tempo,60,1,0,,,,,,405405,,,,,,,
28140,note_on,60,0,3,,,,,,,,,2,,,57,0
28140,set_tempo,60,1,0,,,,,,428571,,,,,,,
28200,control_change,60,0,3,,,,,,,,,2,64,127,,
28200,note_on,0,0,1,,,,,,,,,0,,,64,0
28200,note_on,360,0,1,,,,,,,,,0,,,69,0
28200,note_on,0,0,1,,,,,,,,,0,,,64,36
28200,note_on,0,0,3,,,,,,,,,2,,,40,36
28200,note_on,0,0,1,,,,,,,,,0,,,68,36
28200,note_on,0,0,1,,,,,,,,,0,,,60,0
28200,note_on,0,0,1,,,,,,,,,0,,,59,36
28200,set_tempo,60,1,0,,,,,,454545,,,,,,,
28260,set_tempo,60,1,0,,,,,,483871,,,,,,,
28260,note_on,0,0,3,,,,,,,,,2,,,47,36
28260,note_on,60,0,3,,,,,,,,,2,,,40,0
28320,note_on,0,0,3,,,,,,,,,2,,,52,36
28320,note_on,60,0,3,,,,,,,,,2,,,47,0
28320,set_tempo,60,1,0,,,,,,517241,,,,,,,
28380,note_on,60,0,3,,,,,,,,,2,,,52,0
28380,note_on,0,0,3,,,,,,,,,2,,,47,36
28440,note_on,60,0,3,,,,,,,,,2,,,47,0
28440,control_change,0,0,3,,,,,,,,,2,64,0,,
28440,note_on,0,0,3,,,,,,,,,2,,,56,36
28500,note_on,60,0,3,,,,,,,,,2,,,56,0
28560,note_on,0,0,1,,,,,,,,,0,,,69,36
28560,note_on,0,0,1,,,,,,,,,0,,,59,0
28560,note_on,0,0,1,,,,,,,,,0,,,64,0
28560,note_on,60,0,3,,,,,,,,,2,,,45,36
28560,set_tempo,240,1,0,,,,,,319149,,,,,,,
28560,note_on,360,0,1,,,,,,,,,0,,,68,0
28599,note_on,39,0,1,,,,,,,,,0,,,71,36
28600,note_on,1,0,1,,,,,,,,,0,,,69,0
28639,note_on,39,0,1,,,,,,,,,0,,,71,0
28640,note_on,1,0,1,,,,,,,,,0,,,72,36
28680,note_on,0,0,1,,,,,,,,,0,,,71,36
28680,note_on,40,0,1,,,,,,,,,0,,,72,0
28680,note_on,120,0,3,,,,,,,,,2,,,45,0
28719,note_on,39,0,1,,,,,,,,,0,,,72,36
28720,note_on,1,0,1,,,,,,,,,0,,,71,0
28759,note_on,39,0,1,,,,,,,,,0,,,72,0
28760,note_on,1,0,1,,,,,,,,,0,,,74,36
28800,note_on,120,0,3,,,,,,,,,2,,,64,36
28800,note_on,40,0,1,,,,,,,,,0,,,74,0
28800,note_on,0,0,1,,,,,,,,,0,,,76,62
28839,note_on,39,0,3,,,,,,,,,2,,,66,36
28840,note_on,1,0,3,,,,,,,,,2,,,64,0
28879,note_on,39,0,3,,,,,,,,,2,,,66,0
28880,note_on,1,0,3,,,,,,,,,2,,,68,36
28920,note_on,40,0,3,,,,,,,,,2,,,68,0
28920,note_on,0,0,3,,,,,,,,,2,,,66,36
28920,note_on,0,0,1,,,,,,,,,0,,,69,36
28920,note_on,120,0,1,,,,,,,,,0,,,76,0
28959,note_on,39,0,1,,,,,,,,,0,,,71,36
28959,note_on,39,0,3,,,,,,,,,2,,,68,36
28960,note_on,1,0,1,,,,,,,,,0,,,69,0
28960,note_on,1,0,3,,,,,,,,,2,,,66,0
28999,note_on,39,0,3,,,,,,,,,2,,,68,0
28999,note_on,39,0,1,,,,,,,,,0,,,71,0
29000,note_on,1,0,3,,,,,,,,,2,,,69,36
29000,note_on,1,0,1,,,,,,,,,0,,,72,36
29040,note_on,40,0,3,,,,,,,,,2,,,69,0
29040,note_on,0,0,3,,,,,,,,,2,,,71,75
29040,note_on,0,0,1,,,,,,,,,0,,,71,49
29040,note_on,40,0,1,,,,,,,,,0,,,72,0
29079,note_on,39,0,1,,,,,,,,,0,,,72,49
29080,note_on,1,0,1,,,,,,,,,0,,,71,0
29119,note_on,39,0,1,,,,,,,,,0,,,72,0
29120,note_on,1,0,1,,,,,,,,,0,,,74,49
29160,note_on,40,0,1,,,,,,,,,0,,,74,0
29160,note_on,0,0,1,,,,,,,,,0,,,76,75
29160,note_on,0,0,3,,,,,,,,,2,,,64,49
29160,note_on,120,0,3,,,,,,,,,2,,,71,0
29199,note_on,39,0,3,,,,,,,,,2,,,66,49
29200,note_on,1,0,3,,,,,,,,,2,,,64,0
29239,note_on,39,0,3,,,,,,,,,2,,,66,0
29240,note_on,1,0,3,,,,,,,,,2,,,68,49
29280,note_on,0,0,1,,,,,,,,,0,,,69,49
29280,note_on,120,0,1,,,,,,,,,0,,,76,0
29280,note_on,40,0,3,,,,,,,,,2,,,68,0
29280,note_on,0,0,3,,,,,,,,,2,,,66,36
29319,note_on,39,0,3,,,,,,,,,2,,,68,36
29319,note_on,39,0,1,,,,,,,,,0,,,71,49
29320,note_on,1,0,3,,,,,,,,,2,,,66,0
29320,note_on,1,0,1,,,,,,,,,0,,,69,0
29359,note_on,39,0,3,,,,,,,,,2,,,68,0
29359,note_on,39,0,1,,,,,,,,,0,,,71,0
29360,note_on,1,0,1,,,,,,,,,0,,,72,49
29360,note_on,1,0,3,,,,,,,,,2,,,69,36
29400,note_on,0,0,3,,,,,,,,,2,,,71,62
29400,note_on,40,0,3,,,,,,,,,2,,,69,0
29400,note_on,0,0,1,,,,,,,,,0,,,71,49
29400,note_on,40,0,1,,,,,,,,,0,,,72,0
29439,note_on,39,0,1,,,,,,,,,0,,,72,49
29440,note_on,1,0,1,,,,,,,,,0,,,71,0
29479,note_on,39,0,1,,,,,,,,,0,,,72,0
29480,note_on,1,0,1,,,,,,,,,0,,,74,49
29520,note_on,40,0,1,,,,,,,,,0,,,74,0
29520,note_on,0,0,1,,,,,,,,,0,,,72,49
29520,note_on,120,0,3,,,,,,,,,2,,,71,0
29520,note_on,0,0,3,,,,,,,,,2,,,69,36
29559,note_on,39,0,1,,,,,,,,,0,,,74,49
29559,note_on,39,0,3,,,,,,,,,2,,,71,36
29560,note_on,1,0,1,,,,,,,,,0,,,72,0
29560,note_on,1,0,3,,,,,,,,,2,,,69,0
29599,note_on,39,0,3,,,,,,,,,2,,,71,0
29599,note_on,39,0,1,,,,,,,,,0,,,74,0
29600,note_on,1,0,3,,,,,,,,,2,,,72,36
29600,note_on,1,0,1,,,,,,,,,0,,,76,49
29640,note_on,0,0,1,,,,,,,,,0,,,77,49
29640,note_on,0,0,3,,,,,,,,,2,,,74,36
29640,control_change,0,0,1,,,,,,,,,0,64,127,,
29640,note_on,40,0,1,,,,,,,,,0,,,76,0
29640,control_change,0,0,3,,,,,,,,,2,64,127,,
29640,note_on,40,0,3,,,,,,,,,2,,,72,0
29679,note_on,39,0,3,,,,,,,,,2,,,76,36
29679,note_on,39,0,1,,,,,,,,,0,,,79,49
29680,note_on,1,0,3,,,,,,,,,2,,,74,0
29680,note_on,1,0,1,,,,,,,,,0,,,77,0
29719,note_on,39,0,1,,,,,,,,,0,,,79,0
29719,note_on,39,0,3,,,,,,,,,2,,,76,0
29720,note_on,1,0,1,,,,,,,,,0,,,81,49
29720,note_on,1,0,3,,,,,,,,,2,,,77,36
29760,note_on,0,0,3,,,,,,,,,2,,,76,36
29760,control_change,0,0,3,,,,,,,,,2,64,0,,
29760,control_change,0,0,1,,,,,,,,,0,64,0,,
29760,note_on,40,0,1,,,,,,,,,0,,,81,0
29760,note_on,40,0,3,,,,,,,,,2,,,77,0
29760,note_on,0,0,1,,,,,,,,,0,,,79,49
29799,note_on,39,0,3,,,,,,,,,2,,,74,36
29799,note_on,39,0,1,,,,,,,,,0,,,77,49
29800,note_on,1,0,1,,,,,,,,,0,,,79,0
29800,note_on,1,0,3,,,,,,,,,2,,,76,0
29839,note_on,39,0,1,,,,,,,,,0,,,77,0
29839,note_on,39,0,3,,,,,,,,,2,,,74,0
29840,note_on,1,0,1,,,,,,,,,0,,,76,49
29840,note_on,1,0,3,,,,,,,,,2,,,72,36
29880,note_on,40,0,1,,,,,,,,,0,,,76,0
29880,note_on,0,0,1,,,,,,,,,0,,,74,49
29880,note_on,0,0,3,,,,,,,,,2,,,71,36
29880,note_on,40,0,3,,,,,,,,,2,,,72,0
29919,note_on,39,0,3,,,,,,,,,2,,,69,36
29919,note_on,39,0,1,,,,,,,,,0,,,72,49
29920,note_on,1,0,3,,,,,,,,,2,,,71,0
29920,note_on,1,0,1,,,,,,,,,0,,,74,0
29959,note_on,39,0,3,,,,,,,,,2,,,69,0
29959,note_on,39,0,1,,,,,,,,,0,,,72,0
29960,note_on,1,0,3,,,,,,,,,2,,,67,36
29960,note_on,1,0,1,,,,,,,,,0,,,71,49
30000,note_on,0,0,1,,,,,,,,,0,,,69,49
30000,note_on,40,0,1,,,,,,,,,0,,,71,0
30000,control_change,0,0,1,,,,,,,,,0,64,127,,
30000,note_on,40,0,3,,,,,,,,,2,,,67,0
30000,note_on,0,0,3,,,,,,,,,2,,,65,49
30012,note_on,12,0,3,,,,,,,,,2,,,65,0
30039,note_on,39,0,1,,,,,,,,,0,,,71,49
30040,note_on,1,0,1,,,,,,,,,0,,,69,0
30079,note_on,39,0,1,,,,,,,,,0,,,71,0
30080,note_on,1,0,1,,,,,,,,,0,,,72,49
30120,note_on,0,0,1,,,,,,,,,0,,,71,49
30120,note_on,108,0,3,,,,,,,,,2,,,60,49
30120,note_on,40,0,1,,,,,,,,,0,,,72,0
30120,control_change,0,0,1,,,,,,,,,0,64,0,,
30132,note_on,12,0,3,,,,,,,,,2,,,60,0
30159,note_on,39,0,1,,,,,,,,,0,,,69,49
30160,note_on,1,0,1,,,,,,,,,0,,,71,0
30199,note_on,39,0,1,,,,,,,,,0,,,69,0
30200,note_on,1,0,1,,,,,,,,,0,,,67,49
30240,note_on,40,0,1,,,,,,,,,0,,,67,0
30240,note_on,108,0,3,,,,,,,,,2,,,57,49
30240,note_on,0,0,1,,,,,,,,,0,,,65,49
30252,note_on,12,0,3,,,,,,,,,2,,,57,0
30279,note_on,39,0,1,,,,,,,,,0,,,64,49
30280,note_on,1,0,1,,,,,,,,,0,,,65,0
30319,note_on,39,0,1,,,,,,,,,0,,,64,0
30320,note_on,1,0,1,,,,,,,,,0,,,63,49
30360,control_change,108,0,3,,,,,,,,,2,64,127,,
30360,note_on,0,0,3,,,,,,,,,2,,,56,49
30360,note_on,0,0,1,,,,,,,,,0,,,64,75
30360,note_on,40,0,1,,,,,,,,,0,,,63,0
30399,note_on,39,0,3,,,,,,,,,2,,,54,49
30400,note_on,1,0,3,,,,,,,,,2,,,56,0
30439,note_on,39,0,3,,,,,,,,,2,,,54,0
30440,note_on,1,0,3,,,,,,,,,2,,,52,49
30480,note_on,40,0,3,,,,,,,,,2,,,52,0
30480,note_on,0,0,3,,,,,,,,,2,,,51,49
30480,note_on,120,0,1,,,,,,,,,0,,,64,0
30519,note_on,39,0,3,,,,,,,,,2,,,49,49
30520,note_on,1,0,3,,,,,,,,,2,,,51,0
30559,note_on,39,0,3,,,,,,,,,2,,,49,0
30560,note_on,0,0,3,,,,,,,,,2,,,47,49
30560,control_change,1,0,3,,,,,,,,,2,64,0,,
30600,note_on,0,0,3,,,,,,,,,2,,,57,75
30600,note_on,120,0,1,,,,,,,,,0,,,59,75
30600,note_on,40,0,3,,,,,,,,,2,,,47,0
30639,note_on,39,0,1,,,,,,,,,0,,,61,49
30640,note_on,1,0,1,,,,,,,,,0,,,59,0
30679,note_on,39,0,1,,,,,,,,,0,,,61,0
30680,note_on,1,0,1,,,,,,,,,0,,,63,49
30720,note_on,0,0,1,,,,,,,,,0,,,64,49
30720,note_on,40,0,1,,,,,,,,,0,,,63,0
30720,note_on,0,0,3,,,,,,,,,2,,,56,36
30720,control_change,0,0,3,,,,,,,,,2,64,127,,
30720,note_on,120,0,3,,,,,,,,,2,,,57,0
30720,control_change,0,0,1,,,,,,,,,0,64,127,,
30759,note_on,39,0,3,,,,,,,,,2,,,54,36
30759,note_on,39,0,1,,,,,,,,,0,,,66,49
30760,note_on,1,0,3,,,,,,,,,2,,,56,0
30760,note_on,1,0,1,,,,,,,,,0,,,64,0
30799,note_on,39,0,3,,,,,,,,,2,,,54,0
30799,note_on,39,0,1,,,,,,,,,0,,,66,0
30800,note_on,1,0,3,,,,,,,,,2,,,52,36
30800,note_on,1,0,1,,,,,,,,,0,,,68,49
30840,note_on,40,0,1,,,,,,,,,0,,,68,0
30840,note_on,0,0,1,,,,,,,,,0,,,69,75
30840,note_on,40,0,3,,,,,,,,,2,,,52,0
30840,note_on,0,0,3,,,,,,,,,2,,,51,49
30879,note_on,39,0,3,,,,,,,,,2,,,49,49
30880,note_on,1,0,3,,,,,,,,,2,,,51,0
30919,note_on,39,0,3,,,,,,,,,2,,,49,0
30920,control_change,1,0,3,,,,,,,,,2,64,0,,
30920,note_on,0,0,3,,,,,,,,,2,,,47,49
30960,note_on,0,0,1,,,,,,,,,0,,,59,75
30960,control_change,0,0,1,,,,,,,,,0,64,0,,
30960,note_on,40,0,3,,,,,,,,,2,,,47,0
30960,note_on,0,0,3,,,,,,,,,2,,,57,75
30960,note_on,120,0,1,,,,,,,,,0,,,69,0
30999,note_on,39,0,1,,,,,,,,,0,,,61,49
31000,note_on,1,0,1,,,,,,,,,0,,,59,0
31039,note_on,39,0,1,,,,,,,,,0,,,61,0
31040,note_on,1,0,1,,,,,,,,,0,,,63,49
31080,note_on,120,0,3,,,,,,,,,2,,,57,0
31080,control_change,0,0,3,,,,,,,,,2,64,127,,
31080,note_on,0,0,3,,,,,,,,,2,,,56,36
31080,control_change,0,0,1,,,,,,,,,0,64,127,,
31080,note_on,40,0,1,,,,,,,,,0,,,63,0
31080,note_on,0,0,1,,,,,,,,,0,,,64,49
31119,note_on,39,0,1,,,,,,,,,0,,,66,49
31119,note_on,39,0,3,,,,,,,,,2,,,54,36
31120,note_on,1,0,1,,,,,,,,,0,,,64,0
31120,note_on,1,0,3,,,,,,,,,2,,,56,0
31159,note_on,39,0,1,,,,,,,,,0,,,66,0
31159,note_on,39,0,3,,,,,,,,,2,,,54,0
31160,note_on,1,0,1,,,,,,,,,0,,,68,49
31160,note_on,1,0,3,,,,,,,,,2,,,52,36
31200,note_on,0,0,1,,,,,,,,,0,,,69,75
31200,note_on,0,0,3,,,,,,,,,2,,,51,49
31200,note_on,40,0,1,,,,,,,,,0,,,68,0
31200,note_on,40,0,3,,,,,,,,,2,,,52,0
31239,note_on,39,0,3,,,,,,,,,2,,,49,49
31240,note_on,1,0,3,,,,,,,,,2,,,51,0
31279,note_on,39,0,3,,,,,,,,,2,,,49,0
31280,note_on,0,0,3,,,,,,,,,2,,,47,49
31280,control_change,1,0,3,,,,,,,,,2,64,0,,
31320,note_on,0,0,3,,,,,,,,,2,,,57,75
31320,note_on,40,0,3,,,,,,,,,2,,,47,0
31320,note_on,0,0,1,,,,,,,,,0,,,59,75
31320,note_on,120,0,1,,,,,,,,,0,,,69,0
31320,control_change,0,0,1,,,,,,,,,0,64,0,,
31359,note_on,39,0,1,,,,,,,,,0,,,61,49
31360,note_on,1,0,1,,,,,,,,,0,,,59,0
31399,note_on,39,0,1,,,,,,,,,0,,,61,0
31400,note_on,1,0,1,,,,,,,,,0,,,63,49
31440,note_on,40,0,1,,,,,,,,,0,,,63,0
31440,control_change,0,0,1,,,,,,,,,0,64,127,,
31440,note_on,0,0,1,,,,,,,,,0,,,64,49
31440,note_on,120,0,3,,,,,,,,,2,,,57,0
31440,control_change,0,0,3,,,,,,,,,2,64,127,,
31440,note_on,0,0,3,,,,,,,,,2,,,56,49
31479,note_on,39,0,3,,,,,,,,,2,,,54,49
31479,note_on,39,0,1,,,,,,,,,0,,,66,49
31480,note_on,1,0,3,,,,,,,,,2,,,56,0
31480,note_on,1,0,1,,,,,,,,,0,,,64,0
31519,note_on,39,0,3,,,,,,,,,2,,,54,0
31519,note_on,39,0,1,,,,,,,,,0,,,66,0
31520,note_on,1,0,1,,,,,,,,,0,,,68,49
31520,note_on,1,0,3,,,,,,,,,2,,,52,49
31560,note_on,40,0,3,,,,,,,,,2,,,52,0
31560,note_on,0,0,3,,,,,,,,,2,,,54,49
31560,control_change,0,0,3,,,,,,,,,2,64,0,,
31560,note_on,0,0,1,,,,,,,,,0,,,66,49
31560,control_change,0,0,1,,,,,,,,,0,64,0,,
31560,note_on,40,0,1,,,,,,,,,0,,,68,0
31599,note_on,39,0,1,,,,,,,,,0,,,68,49
31599,note_on,39,0,3,,,,,,,,,2,,,52,49
31600,note_on,1,0,3,,,,,,,,,2,,,54,0
31600,note_on,1,0,1,,,,,,,,,0,,,66,0
31639,note_on,39,0,3,,,,,,,,,2,,,52,0
31639,note_on,39,0,1,,,,,,,,,0,,,68,0
31640,note_on,1,0,1,,,,,,,,,0,,,69,49
31640,note_on,1,0,3,,,,,,,,,2,,,51,49
31680,note_on,40,0,1,,,,,,,,,0,,,69,0
31680,note_on,0,0,1,,,,,,,,,0,,,68,62
31680,note_on,0,0,3,,,,,,,,,2,,,52,49
31680,note_on,40,0,3,,,,,,,,,2,,,51,0
31719,note_on,39,0,3,,,,,,,,,2,,,51,49
31719,note_on,39,0,1,,,,,,,,,0,,,69,62
31720,note_on,1,0,3,,,,,,,,,2,,,52,0
31720,note_on,1,0,1,,,,,,,,,0,,,68,0
31759,note_on,39,0,3,,,,,,,,,2,,,51,0
31759,note_on,39,0,1,,,,,,,,,0,,,69,0
31760,note_on,1,0,1,,,,,,,,,0,,,71,62
31760,note_on,1,0,3,,,,,,,,,2,,,50,49
31800,note_on,40,0,1,,,,,,,,,0,,,71,0
31800,note_on,0,0,1,,,,,,,,,0,,,69,62
31800,note_on,0,0,3,,,,,,,,,2,,,52,49
31800,note_on,40,0,3,,,,,,,,,2,,,50,0
31839,note_on,39,0,1,,,,,,,,,0,,,71,62
31839,note_on,39,0,3,,,,,,,,,2,,,50,49
31840,note_on,1,0,3,,,,,,,,,2,,,52,0
31840,note_on,1,0,1,,,,,,,,,0,,,69,0
31879,note_on,39,0,1,,,,,,,,,0,,,71,0
31879,note_on,39,0,3,,,,,,,,,2,,,50,0
31880,note_on,1,0,1,,,,,,,,,0,,,72,62
31880,note_on,1,0,3,,,,,,,,,2,,,48,49
31920,note_on,40,0,3,,,,,,,,,2,,,48,0
31920,note_on,40,0,1,,,,,,,,,0,,,72,0
31920,note_on,0,0,1,,,,,,,,,0,,,71,75
31920,note_on,0,0,3,,,,,,,,,2,,,50,62
31959,note_on,39,0,1,,,,,,,,,0,,,72,75
31959,note_on,39,0,3,,,,,,,,,2,,,48,62
31960,note_on,1,0,3,,,,,,,,,2,,,50,0
31960,note_on,1,0,1,,,,,,,,,0,,,71,0
31999,note_on,39,0,1,,,,,,,,,0,,,72,0
31999,note_on,39,0,3,,,,,,,,,2,,,48,0
32000,note_on,1,0,1,,,,,,,,,0,,,74,75
32000,note_on,1,0,3,,,,,,,,,2,,,47,62
32040,note_on,40,0,3,,,,,,,,,2,,,47,0
32040,note_on,40,0,1,,,,,,,,,0,,,74,0
32040,note_on,0,0,3,,,,,,,,,2,,,48,62
32040,note_on,0,0,1,,,,,,,,,0,,,72,75
32079,note_on,39,0,1,,,,,,,,,0,,,74,75
32079,note_on,39,0,3,,,,,,,,,2,,,47,62
32080,note_on,1,0,3,,,,,,,,,2,,,48,0
32080,note_on,1,0,1,,,,,,,,,0,,,72,0
32119,note_on,39,0,1,,,,,,,,,0,,,74,0
32119,note_on,39,0,3,,,,,,,,,2,,,47,0
32120,note_on,1,0,1,,,,,,,,,0,,,76,75
32120,note_on,1,0,3,,,,,,,,,2,,,45,62
32160,note_on,40,0,3,,,,,,,,,2,,,45,0
32160,control_change,0,0,3,,,,,,,,,2,64,127,,
32160,control_change,5040,0,2,,,,,,,,,1,64,127,,
32160,note_on,0,0,3,,,,,,,,,2,,,44,75
32160,note_on,40,0,1,,,,,,,,,0,,,76,0
32160,note_on,0,0,1,,,,,,,,,0,,,77,88
32160,control_change,0,0,1,,,,,,,,,0,64,127,,
32160,control_change,27840,0,4,,,,,,,,,3,64,127,,
32199,note_on,39,0,3,,,,,,,,,2,,,45,75
32199,note_on,39,0,1,,,,,,,,,0,,,76,88
32200,note_on,1,0,3,,,,,,,,,2,,,44,0
32200,note_on,1,0,1,,,,,,,,,0,,,77,0
32239,note_on,39,0,1,,,,,,,,,0,,,76,0
32239,note_on,39,0,3,,,,,,,,,2,,,45,0
32240,note_on,1,0,1,,,,,,,,,0,,,74,88
32240,note_on,1,0,3,,,,,,,,,2,,,47,75
32280,note_on,0,0,1,,,,,,,,,0,,,77,88
32280,note_on,40,0,1,,,,,,,,,0,,,74,0
32280,note_on,120,0,2,,,,,,,,,1,,,83,114
32280,note_on,40,0,3,,,,,,,,,2,,,47,0
32280,note_on,120,0,4,,,,,,,,,3,,,38,101
32280,note_on,0,0,3,,,,,,,,,2,,,44,75
32319,note_on,39,0,3,,,,,,,,,2,,,45,75
32319,note_on,39,0,1,,,,,,,,,0,,,76,88
32320,note_on,1,0,3,,,,,,,,,2,,,44,0
32320,note_on,1,0,1,,,,,,,,,0,,,77,0
32359,note_on,39,0,3,,,,,,,,,2,,,45,0
32359,note_on,39,0,1,,,,,,,,,0,,,76,0
32360,note_on,1,0,3,,,,,,,,,2,,,47,75
32360,note_on,1,0,1,,,,,,,,,0,,,74,88
32400,note_on,0,0,4,,,,,,,,,3,,,38,101
32400,note_on,120,0,4,,,,,,,,,3,,,38,0
32400,note_on,0,0,3,,,,,,,,,2,,,44,75
32400,note_on,0,0,2,,,,,,,,,1,,,83,114
32400,note_on,120,0,2,,,,,,,,,1,,,83,0
32400,note_on,40,0,1,,,,,,,,,0,,,74,0
32400,note_on,0,0,1,,,,,,,,,0,,,77,88
32400,note_on,40,0,3,,,,,,,,,2,,,47,0
32439,note_on,39,0,1,,,,,,,,,0,,,76,88
32439,note_on,39,0,3,,,,,,,,,2,,,45,75
32440,note_on,1,0,3,,,,,,,,,2,,,44,0
32440,note_on,1,0,1,,,,,,,,,0,,,77,0
32479,note_on,39,0,3,,,,,,,,,2,,,45,0
32479,note_on,39,0,1,,,,,,,,,0,,,76,0
32480,note_on,1,0,1,,,,,,,,,0,,,74,88
32480,note_on,1,0,3,,,,,,,,,2,,,47,75
32520,note_on,0,0,4,,,,,,,,,3,,,38,101
32520,note_on,40,0,1,,,,,,,,,0,,,74,0
32520,note_on,0,0,1,,,,,,,,,0,,,77,101
32520,note_on,0,0,2,,,,,,,,,1,,,83,114
32520,note_on,120,0,4,,,,,,,,,3,,,38,0
32520,note_on,40,0,3,,,,,,,,,2,,,47,0
32520,note_on,120,0,2,,,,,,,,,1,,,83,0
32520,note_on,0,0,3,,,,,,,,,2,,,44,88
32559,note_on,39,0,1,,,,,,,,,0,,,76,101
32559,note_on,39,0,3,,,,,,,,,2,,,45,88
32560,note_on,1,0,3,,,,,,,,,2,,,44,0
32560,note_on,1,0,1,,,,,,,,,0,,,77,0
32599,note_on,39,0,1,,,,,,,,,0,,,76,0
32599,note_on,39,0,3,,,,,,,,,2,,,45,0
32600,note_on,1,0,3,,,,,,,,,2,,,47,88
32600,note_on,1,0,1,,,,,,,,,0,,,74,101
32640,note_on,40,0,1,,,,,,,,,0,,,74,0
32640,note_on,0,0,2,,,,,,,,,1,,,83,114
32640,note_on,120,0,2,,,,,,,,,1,,,83,0
32640,note_on,40,0,3,,,,,,,,,2,,,47,0
32640,note_on,0,0,3,,,,,,,,,2,,,44,88
32640,note_on,0,0,4,,,,,,,,,3,,,38,101
32640,note_on,120,0,4,,,,,,,,,3,,,38,0
32640,note_on,0,0,1,,,,,,,,,0,,,77,101
32679,note_on,39,0,3,,,,,,,,,2,,,45,88
32679,note_on,39,0,1,,,,,,,,,0,,,76,101
32680,note_on,1,0,1,,,,,,,,,0,,,77,0
32680,note_on,1,0,3,,,,,,,,,2,,,44,0
32719,note_on,39,0,3,,,,,,,,,2,,,45,0
32719,note_on,39,0,1,,,,,,,,,0,,,76,0
32720,note_on,1,0,3,,,,,,,,,2,,,47,88
32720,note_on,1,0,1,,,,,,,,,0,,,74,101
32760,note_on,120,0,4,,,,,,,,,3,,,38,0
32760,note_on,40,0,1,,,,,,,,,0,,,74,0
32760,note_on,0,0,4,,,,,,,,,3,,,38,101
32760,control_change,0,0,4,,,,,,,,,3,64,0,,
32760,note_on,120,0,2,,,,,,,,,1,,,83,0
32760,control_change,0,0,2,,,,,,,,,1,64,0,,
32760,note_on,0,0,2,,,,,,,,,1,,,83,114
32760,note_on,0,0,1,,,,,,,,,0,,,77,101
32760,note_on,40,0,3,,,,,,,,,2,,,47,0
32760,note_on,0,0,3,,,,,,,,,2,,,44,88
32799,note_on,39,0,1,,,,,,,,,0,,,76,101
32799,note_on,39,0,3,,,,,,,,,2,,,45,88
32800,note_on,1,0,3,,,,,,,,,2,,,44,0
32800,note_on,1,0,1,,,,,,,,,0,,,77,0
32839,note_on,39,0,1,,,,,,,,,0,,,76,0
32839,note_on,39,0,3,,,,,,,,,2,,,45,0
32840,note_on,1,0,3,,,,,,,,,2,,,47,88
32840,note_on,1,0,1,,,,,,,,,0,,,74,101
32880,note_on,40,0,3,,,,,,,,,2,,,47,0
32880,note_on,0,0,3,,,,,,,,,2,,,31,101
32880,note_on,120,0,2,,,,,,,,,1,,,83,0
32880,note_on,0,0,1,,,,,,,,,0,,,77,114
32880,control_change,0,0,1,,,,,,,,,0,64,127,,
32880,note_on,0,0,3,,,,,,,,,2,,,43,101
32880,control_change,0,0,2,,,,,,,,,1,64,127,,
32880,note_on,0,0,2,,,,,,,,,1,,,83,127
32880,note_on,120,0,4,,,,,,,,,3,,,38,0
32880,control_change,0,0,3,,,,,,,,,2,64,0,,
32880,note_on,40,0,1,,,,,,,,,0,,,74,0
32919,note_on,39,0,1,,,,,,,,,0,,,75,114
32920,note_on,1,0,1,,,,,,,,,0,,,77,0
32959,note_on,39,0,1,,,,,,,,,0,,,75,0
32960,note_on,1,0,1,,,,,,,,,0,,,74,114
33000,note_on,120,0,3,,,,,,,,,2,,,43,0
33000,note_on,40,0,1,,,,,,,,,0,,,74,0
33000,note_on,0,0,3,,,,,,,,,2,,,31,0
33000,note_on,0,0,1,,,,,,,,,0,,,77,101
33000,note_on,0,0,2,,,,,,,,,1,,,83,88
33000,note_on,120,0,2,,,,,,,,,1,,,83,0
33039,note_on,39,0,1,,,,,,,,,0,,,75,101
33040,note_on,1,0,1,,,,,,,,,0,,,77,0
33079,note_on,39,0,1,,,,,,,,,0,,,75,0
33080,note_on,1,0,1,,,,,,,,,0,,,74,101
33120,note_on,120,0,2,,,,,,,,,1,,,83,0
33120,control_change,0,0,2,,,,,,,,,1,64,0,,
33120,note_on,0,0,1,,,,,,,,,0,,,77,88
33120,note_on,0,0,2,,,,,,,,,1,,,83,75
33120,note_on,40,0,1,,,,,,,,,0,,,74,0
33159,note_on,39,0,1,,,,,,,,,0,,,75,88
33160,note_on,1,0,1,,,,,,,,,0,,,77,0
33199,note_on,39,0,1,,,,,,,,,0,,,75,0
33200,control_change,1,0,1,,,,,,,,,0,64,0,,
33200,note_on,0,0,1,,,,,,,,,0,,,74,88
33240,note_on,40,0,1,,,,,,,,,0,,,74,0
33240,note_on,0,0,1,,,,,,,,,0,,,80,75
33240,note_on,120,0,2,,,,,,,,,1,,,83,0
33279,note_on,39,0,1,,,,,,,,,0,,,79,75
33280,note_on,1,0,1,,,,,,,,,0,,,80,0
33319,note_on,39,0,1,,,,,,,,,0,,,79,0
33320,note_on,1,0,1,,,,,,,,,0,,,77,75
33360,note_on,40,0,1,,,,,,,,,0,,,77,0
33360,note_on,0,0,1,,,,,,,,,0,,,79,62
33399,note_on,39,0,1,,,,,,,,,0,,,77,62
33400,note_on,1,0,1,,,,,,,,,0,,,79,0
33439,note_on,39,0,1,,,,,,,,,0,,,77,0
33440,note_on,1,0,1,,,,,,,,,0,,,75,62
33480,note_on,40,0,1,,,,,,,,,0,,,75,0
33480,note_on,0,0,1,,,,,,,,,0,,,77,62
33519,note_on,39,0,1,,,,,,,,,0,,,75,62
33520,note_on,1,0,1,,,,,,,,,0,,,77,0
33559,note_on,39,0,1,,,,,,,,,0,,,75,0
33560,note_on,1,0,1,,,,,,,,,0,,,74,62
33600,note_on,40,0,1,,,,,,,,,0,,,74,0
33600,note_on,0,0,1,,,,,,,,,0,,,72,49
33639,note_on,39,0,1,,,,,,,,,0,,,74,49
33640,note_on,1,0,1,,,,,,,,,0,,,72,0
33679,note_on,39,0,1,,,,,,,,,0,,,74,0
33680,note_on,1,0,1,,,,,,,,,0,,,75,49
33720,note_on,0,0,1,,,,,,,,,0,,,74,49
33720,note_on,40,0,1,,,,,,,,,0,,,75,0
33759,note_on,39,0,1,,,,,,,,,0,,,75,49
33760,note_on,1,0,1,,,,,,,,,0,,,74,0
33799,note_on,39,0,1,,,,,,,,,0,,,75,0
33800,note_on,1,0,1,,,,,,,,,0,,,77,49
33840,note_on,840,0,3,,,,,,,,,2,,,67,49
33840,note_on,0,0,1,,,,,,,,,0,,,79,75
33840,note_on,40,0,1,,,,,,,,,0,,,77,0
33879,note_on,39,0,3,,,,,,,,,2,,,69,49
33880,note_on,1,0,3,,,,,,,,,2,,,67,0
33919,note_on,39,0,3,,,,,,,,,2,,,69,0
33920,note_on,1,0,3,,,,,,,,,2,,,71,49
33960,note_on,40,0,3,,,,,,,,,2,,,71,0
33960,note_on,0,0,3,,,,,,,,,2,,,69,36
33960,note_on,120,0,1,,,,,,,,,0,,,79,0
33960,note_on,0,0,1,,,,,,,,,0,,,72,49
33999,note_on,39,0,3,,,,,,,,,2,,,71,36
33999,note_on,39,0,1,,,,,,,,,0,,,74,49
34000,note_on,1,0,3,,,,,,,,,2,,,69,0
34000,note_on,1,0,1,,,,,,,,,0,,,72,0
34039,note_on,39,0,3,,,,,,,,,2,,,71,0
34039,note_on,39,0,1,,,,,,,,,0,,,74,0
34040,note_on,1,0,1,,,,,,,,,0,,,75,49
34040,note_on,1,0,3,,,,,,,,,2,,,72,36
34080,note_on,0,0,3,,,,,,,,,2,,,74,62
34080,note_on,0,0,1,,,,,,,,,0,,,74,49
34080,note_on,40,0,1,,,,,,,,,0,,,75,0
34080,note_on,40,0,3,,,,,,,,,2,,,72,0
34119,note_on,39,0,1,,,,,,,,,0,,,75,49
34120,note_on,1,0,1,,,,,,,,,0,,,74,0
34159,note_on,39,0,1,,,,,,,,,0,,,75,0
34160,note_on,1,0,1,,,,,,,,,0,,,77,49
34200,note_on,40,0,1,,,,,,,,,0,,,77,0
34200,note_on,120,0,3,,,,,,,,,2,,,74,0
34200,note_on,0,0,3,,,,,,,,,2,,,67,49
34200,note_on,0,0,1,,,,,,,,,0,,,79,75
34239,note_on,39,0,3,,,,,,,,,2,,,69,49
34240,note_on,1,0,3,,,,,,,,,2,,,67,0
34279,note_on,39,0,3,,,,,,,,,2,,,69,0
34280,note_on,1,0,3,,,,,,,,,2,,,71,49
34320,note_on,40,0,3,,,,,,,,,2,,,71,0
34320,note_on,0,0,3,,,,,,,,,2,,,69,36
34320,note_on,120,0,1,,,,,,,,,0,,,79,0
34320,note_on,0,0,1,,,,,,,,,0,,,72,49
34359,note_on,39,0,3,,,,,,,,,2,,,71,36
34359,note_on,39,0,1,,,,,,,,,0,,,74,49
34360,note_on,1,0,3,,,,,,,,,2,,,69,0
34360,note_on,1,0,1,,,,,,,,,0,,,72,0
34399,note_on,39,0,3,,,,,,,,,2,,,71,0
34399,note_on,39,0,1,,,,,,,,,0,,,74,0
34400,note_on,1,0,3,,,,,,,,,2,,,72,36
34400,note_on,1,0,1,,,,,,,,,0,,,75,49
34440,note_on,0,0,3,,,,,,,,,2,,,74,62
34440,note_on,40,0,3,,,,,,,,,2,,,72,0
34440,note_on,0,0,1,,,,,,,,,0,,,74,49
34440,note_on,40,0,1,,,,,,,,,0,,,75,0
34479,note_on,39,0,1,,,,,,,,,0,,,75,49
34480,note_on,1,0,1,,,,,,,,,0,,,74,0
34519,note_on,39,0,1,,,,,,,,,0,,,75,0
34520,note_on,1,0,1,,,,,,,,,0,,,77,49
34560,note_on,0,0,3,,,,,,,,,2,,,72,36
34560,note_on,40,0,1,,,,,,,,,0,,,77,0
34560,note_on,120,0,3,,,,,,,,,2,,,74,0
34560,note_on,0,0,1,,,,,,,,,0,,,75,49
34599,note_on,39,0,3,,,,,,,,,2,,,74,36
34599,note_on,39,0,1,,,,,,,,,0,,,77,49
34600,note_on,1,0,3,,,,,,,,,2,,,72,0
34600,note_on,1,0,1,,,,,,,,,0,,,75,0
34639,note_on,39,0,1,,,,,,,,,0,,,77,0
34639,note_on,39,0,3,,,,,,,,,2,,,74,0
34640,note_on,1,0,1,,,,,,,,,0,,,79,49
34640,note_on,1,0,3,,,,,,,,,2,,,75,36
34680,note_on,40,0,1,,,,,,,,,0,,,79,0
34680,note_on,0,0,1,,,,,,,,,0,,,80,62
34680,note_on,40,0,3,,,,,,,,,2,,,75,0
34680,control_change,0,0,3,,,,,,,,,2,64,127,,
34680,note_on,0,0,3,,,,,,,,,2,,,77,49
34680,control_change,0,0,1,,,,,,,,,0,64,127,,
34719,note_on,39,0,3,,,,,,,,,2,,,79,49
34719,note_on,39,0,1,,,,,,,,,0,,,82,62
34720,note_on,1,0,1,,,,,,,,,0,,,80,0
34720,note_on,1,0,3,,,,,,,,,2,,,77,0
34759,note_on,39,0,1,,,,,,,,,0,,,82,0
34759,note_on,39,0,3,,,,,,,,,2,,,79,0
34760,note_on,1,0,3,,,,,,,,,2,,,80,49
34760,note_on,1,0,1,,,,,,,,,0,,,84,62
34800,control_change,0,0,3,,,,,,,,,2,64,0,,
34800,note_on,40,0,1,,,,,,,,,0,,,84,0
34800,control_change,0,0,1,,,,,,,,,0,64,0,,
34800,note_on,40,0,3,,,,,,,,,2,,,80,0
34800,note_on,0,0,1,,,,,,,,,0,,,82,62
34800,note_on,0,0,3,,,,,,,,,2,,,79,49
34839,note_on,39,0,1,,,,,,,,,0,,,80,62
34839,note_on,39,0,3,,,,,,,,,2,,,77,49
34840,note_on,1,0,1,,,,,,,,,0,,,82,0
34840,note_on,1,0,3,,,,,,,,,2,,,79,0
34879,note_on,39,0,1,,,,,,,,,0,,,80,0
34879,note_on,39,0,3,,,,,,,,,2,,,77,0
34880,note_on,1,0,3,,,,,,,,,2,,,75,49
34880,note_on,1,0,1,,,,,,,,,0,,,79,62
34920,note_on,0,0,3,,,,,,,,,2,,,74,36
34920,note_on,40,0,1,,,,,,,,,0,,,79,0
34920,note_on,40,0,3,,,,,,,,,2,,,75,0
34920,note_on,0,0,1,,,,,,,,,0,,,77,49
34959,note_on,39,0,3,,,,,,,,,2,,,72,36
34959,note_on,39,0,1,,,,,,,,,0,,,75,49
34960,note_on,1,0,1,,,,,,,,,0,,,77,0
34960,note_on,1,0,3,,,,,,,,,2,,,74,0
34999,note_on,39,0,1,,,,,,,,,0,,,75,0
34999,note_on,39,0,3,,,,,,,,,2,,,72,0
35000,note_on,1,0,1,,,,,,,,,0,,,74,49
35000,note_on,1,0,3,,,,,,,,,2,,,70,36
35040,note_on,0,0,3,,,,,,,,,2,,,68,49
35040,note_on,40,0,3,,,,,,,,,2,,,70,0
35040,note_on,0,0,1,,,,,,,,,0,,,72,49
35040,note_on,40,0,1,,,,,,,,,0,,,74,0
35040,control_change,0,0,1,,,,,,,,,0,64,127,,
35052,note_on,12,0,3,,,,,,,,,2,,,68,0
35079,note_on,39,0,1,,,,,,,,,0,,,74,49
35080,note_on,1,0,1,,,,,,,,,0,,,72,0
35119,note_on,39,0,1,,,,,,,,,0,,,74,0
35120,note_on,1,0,1,,,,,,,,,0,,,75,49
35160,note_on,0,0,1,,,,,,,,,0,,,74,49
35160,control_change,0,0,1,,,,,,,,,0,64,0,,
35160,note_on,40,0,1,,,,,,,,,0,,,75,0
35160,note_on,108,0,3,,,,,,,,,2,,,63,49
35172,note_on,12,0,3,,,,,,,,,2,,,63,0
35199,note_on,39,0,1,,,,,,,,,0,,,72,49
35200,note_on,1,0,1,,,,,,,,,0,,,74,0
35239,note_on,39,0,1,,,,,,,,,0,,,72,0
35240,note_on,1,0,1,,,,,,,,,0,,,70,49
35280,note_on,0,0,1,,,,,,,,,0,,,68,49
35280,note_on,40,0,1,,,,,,,,,0,,,70,0
35280,note_on,108,0,3,,,,,,,,,2,,,60,49
35292,note_on,12,0,3,,,,,,,,,2,,,60,0
35319,note_on,39,0,1,,,,,,,,,0,,,67,49
35320,note_on,1,0,1,,,,,,,,,0,,,68,0
35359,note_on,39,0,1,,,,,,,,,0,,,67,0
35360,note_on,1,0,1,,,,,,,,,0,,,66,49
35400,note_on,40,0,1,,,,,,,,,0,,,66,0
35400,note_on,0,0,1,,,,,,,,,0,,,67,49
35400,control_change,108,0,3,,,,,,,,,2,64,127,,
35400,note_on,0,0,3,,,,,,,,,2,,,59,49
35439,note_on,39,0,3,,,,,,,,,2,,,57,49
35440,note_on,1,0,3,,,,,,,,,2,,,59,0
35479,note_on,39,0,3,,,,,,,,,2,,,57,0
35480,note_on,1,0,3,,,,,,,,,2,,,55,49
35520,note_on,40,0,3,,,,,,,,,2,,,55,0
35520,note_on,0,0,3,,,,,,,,,2,,,54,49
35520,note_on,120,0,1,,,,,,,,,0,,,67,0
35559,note_on,39,0,3,,,,,,,,,2,,,52,49
35560,note_on,1,0,3,,,,,,,,,2,,,54,0
35599,note_on,39,0,3,,,,,,,,,2,,,52,0
35600,control_change,1,0,3,,,,,,,,,2,64,0,,
35600,note_on,0,0,3,,,,,,,,,2,,,50,49
35640,note_on,120,0,1,,,,,,,,,0,,,62,49
35640,note_on,0,0,3,,,,,,,,,2,,,60,75
35640,note_on,40,0,3,,,,,,,,,2,,,50,0
35679,note_on,39,0,1,,,,,,,,,0,,,64,49
35680,note_on,1,0,1,,,,,,,,,0,,,62,0
35719,note_on,39,0,1,,,,,,,,,0,,,64,0
35720,note_on,1,0,1,,,,,,,,,0,,,66,49
35760,note_on,0,0,3,,,,,,,,,2,,,59,36
35760,note_on,120,0,3,,,,,,,,,2,,,60,0
35760,control_change,0,0,3,,,,,,,,,2,64,127,,
35760,control_change,0,0,1,,,,,,,,,0,64,127,,
35760,note_on,0,0,1,,,,,,,,,0,,,67,49
35760,note_on,40,0,1,,,,,,,,,0,,,66,0
35799,note_on,39,0,1,,,,,,,,,0,,,69,49
35799,note_on,39,0,3,,,,,,,,,2,,,57,36
35800,note_on,1,0,3,,,,,,,,,2,,,59,0
35800,note_on,1,0,1,,,,,,,,,0,,,67,0
35839,note_on,39,0,3,,,,,,,,,2,,,57,0
35839,note_on,39,0,1,,,,,,,,,0,,,69,0
35840,note_on,1,0,3,,,,,,,,,2,,,55,36
35840,note_on,1,0,1,,,,,,,,,0,,,71,49
35880,note_on,40,0,1,,,,,,,,,0,,,71,0
35880,control_change,0,0,1,,,,,,,,,0,64,0,,
35880,note_on,0,0,3,,,,,,,,,2,,,54,49
35880,control_change,0,0,3,,,,,,,,,2,64,0,,
35880,note_on,40,0,3,,,,,,,,,2,,,55,0
35880,note_on,0,0,1,,,,,,,,,0,,,72,75
35919,note_on,39,0,3,,,,,,,,,2,,,52,49
35920,note_on,1,0,3,,,,,,,,,2,,,54,0
35959,note_on,39,0,3,,,,,,,,,2,,,52,0
35960,note_on,1,0,3,,,,,,,,,2,,,50,49
36000,note_on,0,0,3,,,,,,,,,2,,,60,75
36000,note_on,40,0,3,,,,,,,,,2,,,50,0
36000,note_on,0,0,1,,,,,,,,,0,,,62,49
36000,note_on,120,0,1,,,,,,,,,0,,,72,0
36039,note_on,39,0,1,,,,,,,,,0,,,64,49
36040,note_on,1,0,1,,,,,,,,,0,,,62,0
36079,note_on,39,0,1,,,,,,,,,0,,,64,0
36080,note_on,1,0,1,,,,,,,,,0,,,66,49
36120,note_on,120,0,3,,,,,,,,,2,,,60,0
36120,note_on,0,0,3,,,,,,,,,2,,,59,36
36120,note_on,0,0,1,,,,,,,,,0,,,67,49
36120,control_change,0,0,1,,,,,,,,,0,64,127,,
36120,note_on,40,0,1,,,,,,,,,0,,,66,0
36120,control_change,0,0,3,,,,,,,,,2,64,127,,
36159,note_on,39,0,3,,,,,,,,,2,,,57,36
36159,note_on,39,0,1,,,,,,,,,0,,,69,49
36160,note_on,1,0,3,,,,,,,,,2,,,59,0
36160,note_on,1,0,1,,,,,,,,,0,,,67,0
36199,note_on,39,0,3,,,,,,,,,2,,,57,0
36199,note_on,39,0,1,,,,,,,,,0,,,69,0
36200,note_on,1,0,3,,,,,,,,,2,,,55,36
36200,note_on,1,0,1,,,,,,,,,0,,,71,49
36240,note_on,40,0,1,,,,,,,,,0,,,71,0
36240,note_on,0,0,1,,,,,,,,,0,,,72,75
36240,control_change,0,0,1,,,,,,,,,0,64,0,,
36240,note_on,40,0,3,,,,,,,,,2,,,55,0
36240,note_on,0,0,3,,,,,,,,,2,,,54,49
36240,control_change,0,0,3,,,,,,,,,2,64,0,,
36279,note_on,39,0,3,,,,,,,,,2,,,52,49
36280,note_on,1,0,3,,,,,,,,,2,,,54,0
36319,note_on,39,0,3,,,,,,,,,2,,,52,0
36320,note_on,1,0,3,,,,,,,,,2,,,50,49
36360,note_on,40,0,3,,,,,,,,,2,,,50,0
36360,note_on,0,0,3,,,,,,,,,2,,,60,75
36360,note_on,0,0,1,,,,,,,,,0,,,62,49
36360,note_on,120,0,1,,,,,,,,,0,,,72,0
36399,note_on,39,0,1,,,,,,,,,0,,,64,49
36400,note_on,1,0,1,,,,,,,,,0,,,62,0
36439,note_on,39,0,1,,,,,,,,,0,,,64,0
36440,note_on,1,0,1,,,,,,,,,0,,,66,49
36480,note_on,0,0,1,,,,,,,,,0,,,67,49
36480,control_change,0,0,1,,,,,,,,,0,64,127,,
36480,note_on,40,0,1,,,,,,,,,0,,,66,0
36480,note_on,0,0,3,,,,,,,,,2,,,59,49
36480,control_change,0,0,3,,,,,,,,,2,64,127,,
36480,note_on,120,0,3,,,,,,,,,2,,,60,0
36519,note_on,39,0,1,,,,,,,,,0,,,69,49
36519,note_on,39,0,3,,,,,,,,,2,,,57,49
36520,note_on,1,0,3,,,,,,,,,2,,,59,0
36520,note_on,1,0,1,,,,,,,,,0,,,67,0
36559,note_on,39,0,1,,,,,,,,,0,,,69,0
36559,note_on,39,0,3,,,,,,,,,2,,,57,0
36560,note_on,1,0,1,,,,,,,,,0,,,71,49
36560,note_on,1,0,3,,,,,,,,,2,,,55,49
36600,note_on,40,0,1,,,,,,,,,0,,,71,0
36600,note_on,0,0,3,,,,,,,,,2,,,57,49
36600,note_on,40,0,3,,,,,,,,,2,,,55,0
36600,note_on,0,0,1,,,,,,,,,0,,,69,49
36639,note_on,39,0,1,,,,,,,,,0,,,71,49
36639,note_on,39,0,3,,,,,,,,,2,,,55,49
36640,note_on,1,0,1,,,,,,,,,0,,,69,0
36640,note_on,1,0,3,,,,,,,,,2,,,57,0
36679,note_on,39,0,1,,,,,,,,,0,,,71,0
36679,note_on,39,0,3,,,,,,,,,2,,,55,0
36680,note_on,1,0,1,,,,,,,,,0,,,72,49
36680,note_on,1,0,3,,,,,,,,,2,,,54,49
36720,note_on,40,0,1,,,,,,,,,0,,,72,0
36720,control_change,0,0,1,,,,,,,,,0,64,0,,
36720,note_on,0,0,1,,,,,,,,,0,,,71,62
36720,note_on,40,0,3,,,,,,,,,2,,,54,0
36720,note_on,0,0,3,,,,,,,,,2,,,55,49
36720,control_change,0,0,3,,,,,,,,,2,64,0,,
36759,note_on,39,0,3,,,,,,,,,2,,,54,49
36759,note_on,39,0,1,,,,,,,,,0,,,72,62
36760,note_on,1,0,1,,,,,,,,,0,,,71,0
36760,note_on,1,0,3,,,,,,,,,2,,,55,0
36799,note_on,39,0,1,,,,,,,,,0,,,72,0
36799,note_on,39,0,3,,,,,,,,,2,,,54,0
36800,note_on,1,0,1,,,,,,,,,0,,,74,62
36800,note_on,1,0,3,,,,,,,,,2,,,53,49
36840,note_on,40,0,1,,,,,,,,,0,,,74,0
36840,note_on,0,0,1,,,,,,,,,0,,,72,62
36840,note_on,0,0,3,,,,,,,,,2,,,52,49
36840,note_on,40,0,3,,,,,,,,,2,,,53,0
36879,note_on,39,0,1,,,,,,,,,0,,,74,62
36879,note_on,39,0,3,,,,,,,,,2,,,50,49
36880,note_on,1,0,1,,,,,,,,,0,,,72,0
36880,note_on,1,0,3,,,,,,,,,2,,,52,0
36919,note_on,39,0,3,,,,,,,,,2,,,50,0
36919,note_on,39,0,1,,,,,,,,,0,,,74,0
36920,note_on,1,0,1,,,,,,,,,0,,,76,62
36920,note_on,1,0,3,,,,,,,,,2,,,48,49
36960,note_on,0,0,3,,,,,,,,,2,,,50,62
36960,note_on,40,0,3,,,,,,,,,2,,,48,0
36960,note_on,40,0,1,,,,,,,,,0,,,76,0
36960,note_on,0,0,1,,,,,,,,,0,,,74,75
36999,note_on,39,0,1,,,,,,,,,0,,,76,75
36999,note_on,39,0,3,,,,,,,,,2,,,48,62
37000,note_on,1,0,1,,,,,,,,,0,,,74,0
37000,note_on,1,0,3,,,,,,,,,2,,,50,0
37039,note_on,39,0,3,,,,,,,,,2,,,48,0
37039,note_on,39,0,1,,,,,,,,,0,,,76,0
37040,note_on,1,0,1,,,,,,,,,0,,,77,75
37040,note_on,1,0,3,,,,,,,,,2,,,47,62
37080,note_on,40,0,3,,,,,,,,,2,,,47,0
37080,note_on,40,0,1,,,,,,,,,0,,,77,0
37080,note_on,0,0,1,,,,,,,,,0,,,76,75
37080,note_on,0,0,3,,,,,,,,,2,,,48,62
37119,note_on,39,0,1,,,,,,,,,0,,,77,75
37119,note_on,39,0,3,,,,,,,,,2,,,47,62
37120,note_on,1,0,3,,,,,,,,,2,,,48,0
37120,note_on,1,0,1,,,,,,,,,0,,,76,0
37159,note_on,39,0,3,,,,,,,,,2,,,47,0
37159,note_on,39,0,1,,,,,,,,,0,,,77,0
37160,note_on,1,0,3,,,,,,,,,2,,,46,62
37160,note_on,1,0,1,,,,,,,,,0,,,79,75
37200,note_on,0,0,3,,,,,,,,,2,,,45,75
37200,control_change,0,0,3,,,,,,,,,2,64,127,,
37200,note_on,40,0,3,,,,,,,,,2,,,46,0
37200,note_on,40,0,1,,,,,,,,,0,,,79,0
37200,control_change,0,0,1,,,,,,,,,0,64,127,,
37200,note_on,0,0,1,,,,,,,,,0,,,60,88
37239,note_on,39,0,1,,,,,,,,,0,,,65,88
37240,note_on,1,0,1,,,,,,,,,0,,,60,0
37260,note_on,60,0,3,,,,,,,,,2,,,45,0
37279,note_on,39,0,1,,,,,,,,,0,,,65,0
37280,note_on,1,0,1,,,,,,,,,0,,,69,88
37320,note_on,40,0,1,,,,,,,,,0,,,69,0
37320,note_on,60,0,3,,,,,,,,,2,,,57,75
37320,note_on,0,0,1,,,,,,,,,0,,,72,88
37359,note_on,39,0,3,,,,,,,,,2,,,53,75
37359,note_on,39,0,1,,,,,,,,,0,,,77,88
37360,note_on,1,0,3,,,,,,,,,2,,,57,0
37360,note_on,1,0,1,,,,,,,,,0,,,72,0
37399,note_on,39,0,3,,,,,,,,,2,,,53,0
37399,note_on,39,0,1,,,,,,,,,0,,,77,0
37400,note_on,1,0,3,,,,,,,,,2,,,48,75
37400,note_on,1,0,1,,,,,,,,,0,,,81,88
37440,note_on,0,0,3,,,,,,,,,2,,,45,75
37440,note_on,40,0,3,,,,,,,,,2,,,48,0
37440,note_on,40,0,1,,,,,,,,,0,,,81,0
37440,note_on,0,0,1,,,,,,,,,0,,,84,88
37479,note_on,39,0,3,,,,,,,,,2,,,41,75
37479,note_on,39,0,1,,,,,,,,,0,,,89,88
37480,note_on,1,0,3,,,,,,,,,2,,,45,0
37480,note_on,1,0,1,,,,,,,,,0,,,84,0
37519,note_on,39,0,3,,,,,,,,,2,,,41,0
37519,note_on,39,0,1,,,,,,,,,0,,,89,0
37520,note_on,1,0,3,,,,,,,,,2,,,36,75
37520,note_on,1,0,1,,,,,,,,,0,,,93,88
37560,note_on,0,0,3,,,,,,,,,2,,,33,75
37560,note_on,0,0,1,,,,,,,,,0,,,96,88
37560,note_on,40,0,1,,,,,,,,,0,,,93,0
37560,note_on,40,0,3,,,,,,,,,2,,,36,0
37620,note_on,60,0,1,,,,,,,,,0,,,96,0
37620,control_change,0,0,1,,,,,,,,,0,64,0,,
37620,note_on,60,0,3,,,,,,,,,2,,,33,0
37620,control_change,0,0,3,,,,,,,,,2,64,0,,
37680,note_on,0,0,1,,,,,,,,,0,,,83,114
37680,note_on,60,0,3,,,,,,,,,2,,,47,89
37680,note_on,0,0,3,,,,,,,,,2,,,52,93
37680,note_on,0,0,3,,,,,,,,,2,,,55,97
37680,note_on,0,0,3,,,,,,,,,2,,,59,101
37680,note_on,0,0,1,,,,,,,,,0,,,76,106
37680,note_on,60,0,1,,,,,,,,,0,,,71,102
37680,note_on,0,0,1,,,,,,,,,0,,,79,110
37692,note_on,0,0,1,,,,,,,,,0,,,79,0
37692,note_on,12,0,1,,,,,,,,,0,,,83,0
37692,note_on,0,0,1,,,,,,,,,0,,,71,0
37692,note_on,0,0,1,,,,,,,,,0,,,76,0
37692,note_on,12,0,3,,,,,,,,,2,,,59,0
37692,note_on,0,0,3,,,,,,,,,2,,,47,0
37692,note_on,0,0,3,,,,,,,,,2,,,52,0
37692,note_on,0,0,3,,,,,,,,,2,,,55,0
37800,note_on,0,0,3,,,,,,,,,2,,,59,101
37800,note_on,108,0,1,,,,,,,,,0,,,71,102
37800,note_on,0,0,1,,,,,,,,,0,,,75,106
37800,note_on,0,0,1,,,,,,,,,0,,,78,110
37800,note_on,0,0,1,,,,,,,,,0,,,83,114
37800,note_on,108,0,3,,,,,,,,,2,,,47,89
37800,note_on,0,0,3,,,,,,,,,2,,,54,97
37800,note_on,0,0,3,,,,,,,,,2,,,51,93
37812,note_on,0,0,1,,,,,,,,,0,,,78,0
37812,note_on,12,0,3,,,,,,,,,2,,,59,0
37812,note_on,0,0,3,,,,,,,,,2,,,47,0
37812,note_on,0,0,3,,,,,,,,,2,,,51,0
37812,note_on,0,0,1,,,,,,,,,0,,,71,0
37812,note_on,0,0,3,,,,,,,,,2,,,54,0
37812,note_on,12,0,1,,,,,,,,,0,,,83,0
37812,note_on,0,0,1,,,,,,,,,0,,,75,0
37920,control_change,108,0,1,,,,,,,,,0,64,127,,
37920,note_on,0,0,1,,,,,,,,,0,,,76,49
37920,control_change,108,0,3,,,,,,,,,2,64,127,,
37920,note_on,0,0,3,,,,,,,,,2,,,67,36
37959,note_on,39,0,1,,,,,,,,,0,,,78,49
37959,note_on,39,0,3,,,,,,,,,2,,,66,36
37960,note_on,1,0,3,,,,,,,,,2,,,67,0
37960,note_on,1,0,1,,,,,,,,,0,,,76,0
37999,note_on,39,0,1,,,,,,,,,0,,,78,0
37999,note_on,39,0,3,,,,,,,,,2,,,66,0
38000,note_on,1,0,3,,,,,,,,,2,,,64,36
38000,note_on,1,0,1,,,,,,,,,0,,,79,49
38040,note_on,0,0,1,,,,,,,,,0,,,81,49
38040,note_on,40,0,3,,,,,,,,,2,,,64,0
38040,note_on,0,0,3,,,,,,,,,2,,,63,49
38040,note_on,40,0,1,,,,,,,,,0,,,79,0
38079,note_on,39,0,3,,,,,,,,,2,,,61,49
38080,note_on,1,0,3,,,,,,,,,2,,,63,0
38119,note_on,39,0,3,,,,,,,,,2,,,61,0
38120,note_on,1,0,3,,,,,,,,,2,,,59,49
38160,control_change,0,0,3,,,,,,,,,2,64,0,,
38160,note_on,0,0,3,,,,,,,,,2,,,69,49
38160,note_on,120,0,1,,,,,,,,,0,,,81,0
38160,control_change,0,0,1,,,,,,,,,0,64,0,,
38160,note_on,0,0,1,,,,,,,,,0,,,71,49
38160,note_on,40,0,3,,,,,,,,,2,,,59,0
38199,note_on,39,0,1,,,,,,,,,0,,,73,49
38200,note_on,1,0,1,,,,,,,,,0,,,71,0
38239,note_on,39,0,1,,,,,,,,,0,,,73,0
38240,note_on,1,0,1,,,,,,,,,0,,,75,49
38280,control_change,0,0,1,,,,,,,,,0,64,127,,
38280,note_on,0,0,3,,,,,,,,,2,,,67,36
38280,note_on,40,0,1,,,,,,,,,0,,,75,0
38280,control_change,0,0,3,,,,,,,,,2,64,127,,
38280,note_on,120,0,3,,,,,,,,,2,,,69,0
38280,note_on,0,0,1,,,,,,,,,0,,,76,49
38319,note_on,39,0,1,,,,,,,,,0,,,78,49
38319,note_on,39,0,3,,,,,,,,,2,,,66,36
38320,note_on,1,0,3,,,,,,,,,2,,,67,0
38320,note_on,1,0,1,,,,,,,,,0,,,76,0
38359,note_on,39,0,1,,,,,,,,,0,,,78,0
38359,note_on,39,0,3,,,,,,,,,2,,,66,0
38360,note_on,1,0,1,,,,,,,,,0,,,79,49
38360,note_on,1,0,3,,,,,,,,,2,,,64,36
38400,note_on,0,0,3,,,,,,,,,2,,,63,49
38400,note_on,40,0,3,,,,,,,,,2,,,64,0
38400,note_on,40,0,1,,,,,,,,,0,,,79,0
38400,note_on,0,0,1,,,,,,,,,0,,,81,49
38439,note_on,39,0,3,,,,,,,,,2,,,61,49
38440,note_on,1,0,3,,,,,,,,,2,,,63,0
38479,note_on,39,0,3,,,,,,,,,2,,,61,0
38480,note_on,1,0,3,,,,,,,,,2,,,59,49
38520,control_change,0,0,3,,,,,,,,,2,64,0,,
38520,note_on,40,0,3,,,,,,,,,2,,,59,0
38520,note_on,120,0,1,,,,,,,,,0,,,81,0
38520,note_on,0,0,1,,,,,,,,,0,,,71,49
38520,note_on,0,0,3,,,,,,,,,2,,,69,49
38520,control_change,0,0,1,,,,,,,,,0,64,0,,
38559,note_on,39,0,1,,,,,,,,,0,,,73,49
38560,note_on,1,0,1,,,,,,,,,0,,,71,0
38599,note_on,39,0,1,,,,,,,,,0,,,73,0
38600,note_on,1,0,1,,,,,,,,,0,,,75,49
38640,note_on,120,0,3,,,,,,,,,2,,,69,0
38640,control_change,0,0,1,,,,,,,,,0,64,127,,
38640,note_on,40,0,1,,,,,,,,,0,,,75,0
38640,note_on,0,0,3,,,,,,,,,2,,,67,49
38640,control_change,0,0,3,,,,,,,,,2,64,127,,
38640,control_change,0,0,1,,,,,,,,,0,64,127,,
38640,note_on,0,0,1,,,,,,,,,0,,,76,49
38679,note_on,39,0,3,,,,,,,,,2,,,66,49
38679,note_on,39,0,1,,,,,,,,,0,,,78,49
38680,note_on,1,0,3,,,,,,,,,2,,,67,0
38680,note_on,1,0,1,,,,,,,,,0,,,76,0
38719,note_on,39,0,3,,,,,,,,,2,,,66,0
38719,note_on,39,0,1,,,,,,,,,0,,,78,0
38720,note_on,1,0,1,,,,,,,,,0,,,79,49
38720,note_on,1,0,3,,,,,,,,,2,,,64,49
38760,control_change,0,0,1,,,,,,,,,0,64,0,,
38760,note_on,40,0,1,,,,,,,,,0,,,79,0
38760,note_on,40,0,3,,,,,,,,,2,,,64,0
38760,control_change,0,0,3,,,,,,,,,2,64,0,,
38760,note_on,0,0,3,,,,,,,,,2,,,63,49
38760,note_on,0,0,1,,,,,,,,,0,,,78,49
38799,note_on,39,0,1,,,,,,,,,0,,,79,49
38799,note_on,39,0,3,,,,,,,,,2,,,64,49
38800,note_on,1,0,3,,,,,,,,,2,,,63,0
38800,note_on,1,0,1,,,,,,,,,0,,,78,0
38839,note_on,39,0,1,,,,,,,,,0,,,79,0
38839,note_on,39,0,3,,,,,,,,,2,,,64,0
38840,note_on,1,0,3,,,,,,,,,2,,,66,49
38840,note_on,1,0,1,,,,,,,,,0,,,81,49
38880,note_on,40,0,3,,,,,,,,,2,,,66,0
38880,note_on,0,0,3,,,,,,,,,2,,,64,49
38880,note_on,0,0,1,,,,,,,,,0,,,79,49
38880,note_on,40,0,1,,,,,,,,,0,,,81,0
38919,note_on,39,0,3,,,,,,,,,2,,,66,49
38919,note_on,39,0,1,,,,,,,,,0,,,81,49
38920,note_on,1,0,1,,,,,,,,,0,,,79,0
38920,note_on,1,0,3,,,,,,,,,2,,,64,0
38959,note_on,39,0,3,,,,,,,,,2,,,66,0
38959,note_on,39,0,1,,,,,,,,,0,,,81,0
38960,note_on,1,0,1,,,,,,,,,0,,,83,49
38960,note_on,1,0,3,,,,,,,,,2,,,67,49
39000,note_on,0,0,1,,,,,,,,,0,,,60,101
39000,control_change,0,0,1,,,,,,,,,0,64,127,,
39000,note_on,40,0,1,,,,,,,,,0,,,83,0
39000,control_change,0,0,3,,,,,,,,,2,64,127,,
39000,note_on,40,0,3,,,,,,,,,2,,,67,0
39039,note_on,39,0,1,,,,,,,,,0,,,65,101
39040,note_on,1,0,1,,,,,,,,,0,,,60,0
39079,note_on,39,0,1,,,,,,,,,0,,,65,0
39080,note_on,1,0,1,,,,,,,,,0,,,69,101
39120,note_on,40,0,1,,,,,,,,,0,,,69,0
39120,note_on,0,0,1,,,,,,,,,0,,,72,101
39120,note_on,120,0,3,,,,,,,,,2,,,57,88
39159,note_on,39,0,1,,,,,,,,,0,,,77,101
39159,note_on,39,0,3,,,,,,,,,2,,,53,88
39160,note_on,1,0,3,,,,,,,,,2,,,57,0
39160,note_on,1,0,1,,,,,,,,,0,,,72,0
39199,note_on,39,0,3,,,,,,,,,2,,,53,0
39199,note_on,39,0,1,,,,,,,,,0,,,77,0
39200,note_on,1,0,3,,,,,,,,,2,,,48,88
39200,note_on,1,0,1,,,,,,,,,0,,,81,101
39240,note_on,40,0,1,,,,,,,,,0,,,81,0
39240,note_on,0,0,1,,,,,,,,,0,,,84,101
39240,note_on,0,0,3,,,,,,,,,2,,,45,88
39240,note_on,40,0,3,,,,,,,,,2,,,48,0
39279,note_on,39,0,3,,,,,,,,,2,,,41,88
39279,note_on,39,0,1,,,,,,,,,0,,,89,101
39280,note_on,1,0,1,,,,,,,,,0,,,84,0
39280,note_on,1,0,3,,,,,,,,,2,,,45,0
39319,note_on,39,0,3,,,,,,,,,2,,,41,0
39319,note_on,39,0,1,,,,,,,,,0,,,89,0
39320,note_on,1,0,1,,,,,,,,,0,,,93,101
39320,note_on,1,0,3,,,,,,,,,2,,,36,88
39360,note_on,0,0,1,,,,,,,,,0,,,96,101
39360,note_on,40,0,1,,,,,,,,,0,,,93,0
39360,note_on,40,0,3,,,,,,,,,2,,,36,0
39360,note_on,0,0,3,,,,,,,,,2,,,33,88
39420,control_change,0,0,3,,,,,,,,,2,64,0,,
39420,note_on,60,0,1,,,,,,,,,0,,,96,0
39420,control_change,0,0,1,,,,,,,,,0,64,0,,
39420,note_on,60,0,3,,,,,,,,,2,,,33,0
39480,note_on,0,0,3,,,,,,,,,2,,,59,114
39480,note_on,60,0,3,,,,,,,,,2,,,47,102
39480,note_on,0,0,1,,,,,,,,,0,,,83,127
39480,note_on,60,0,1,,,,,,,,,0,,,71,115
39480,note_on,0,0,3,,,,,,,,,2,,,55,110
39480,note_on,0,0,1,,,,,,,,,0,,,76,119
39480,note_on,0,0,1,,,,,,,,,0,,,79,123
39480,note_on,0,0,3,,,,,,,,,2,,,52,106
39492,note_on,12,0,1,,,,,,,,,0,,,83,0
39492,note_on,0,0,1,,,,,,,,,0,,,76,0
39492,note_on,0,0,3,,,,,,,,,2,,,55,0
39492,note_on,0,0,3,,,,,,,,,2,,,52,0
39492,note_on,0,0,1,,,,,,,,,0,,,79,0
39492,note_on,12,0,3,,,,,,,,,2,,,59,0
39492,note_on,0,0,3,,,,,,,,,2,,,47,0
39492,note_on,0,0,1,,,,,,,,,0,,,71,0
39600,note_on,108,0,3,,,,,,,,,2,,,47,102
39600,note_on,0,0,3,,,,,,,,,2,,,51,106
39600,note_on,0,0,3,,,,,,,,,2,,,54,110
39600,note_on,0,0,3,,,,,,,,,2,,,59,114
39600,note_on,0,0,1,,,,,,,,,0,,,75,119
39600,note_on,0,0,1,,,,,,,,,0,,,78,123
39600,note_on,0,0,1,,,,,,,,,0,,,83,127
39600,note_on,108,0,1,,,,,,,,,0,,,71,115
39612,note_on,12,0,1,,,,,,,,,0,,,83,0
39612,note_on,0,0,1,,,,,,,,,0,,,71,0
39612,note_on,0,0,1,,,,,,,,,0,,,75,0
39612,note_on,0,0,3,,,,,,,,,2,,,54,0
39612,note_on,0,0,3,,,,,,,,,2,,,51,0
39612,note_on,0,0,3,,,,,,,,,2,,,47,0
39612,note_on,12,0,3,,,,,,,,,2,,,59,0
39612,note_on,0,0,1,,,,,,,,,0,,,78,0
39720,note_on,0,0,3,,,,,,,,,2,,,52,88
39720,note_on,0,0,3,,,,,,,,,2,,,43,88
39720,note_on,108,0,3,,,,,,,,,2,,,40,88
39720,note_on,0,0,3,,,,,,,,,2,,,47,88
39720,note_on,108,0,1,,,,,,,,,0,,,76,101
39720,note_on,0,0,1,,,,,,,,,0,,,79,101
39720,note_on,0,0,1,,,,,,,,,0,,,83,101
39720,note_on,0,0,1,,,,,,,,,0,,,88,101
40080,note_on,0,0,3,,,,,,,,,2,,,43,0
40080,note_on,0,0,1,,,,,,,,,0,,,75,101
40080,note_on,0,0,1,,,,,,,,,0,,,83,101
40080,note_on,0,0,1,,,,,,,,,0,,,76,0
40080,note_on,360,0,1,,,,,,,,,0,,,88,0
40080,note_on,360,0,3,,,,,,,,,2,,,52,0
40080,note_on,0,0,3,,,,,,,,,2,,,40,0
40080,note_on,0,0,1,,,,,,,,,0,,,83,0
40080,note_on,0,0,3,,,,,,,,,2,,,47,0
40080,note_on,0,0,1,,,,,,,,,0,,,79,0
40080,note_on,0,0,3,,,,,,,,,2,,,59,88
40080,note_on,0,0,3,,,,,,,,,2,,,47,88
40086,note_on,6,0,3,,,,,,,,,2,,,59,0
40086,note_on,0,0,3,,,,,,,,,2,,,47,0
40086,note_on,0,0,1,,,,,,,,,0,,,75,0
40086,note_on,6,0,1,,,,,,,,,0,,,83,0
40140,note_on,54,0,3,,,,,,,,,2,,,49,88
40140,note_on,0,0,3,,,,,,,,,2,,,61,88
40140,note_on,0,0,1,,,,,,,,,0,,,82,101
40140,note_on,54,0,1,,,,,,,,,0,,,76,101
40146,note_on,0,0,1,,,,,,,,,0,,,76,0
40146,note_on,6,0,1,,,,,,,,,0,,,82,0
40146,note_on,6,0,3,,,,,,,,,2,,,61,0
40146,note_on,0,0,3,,,,,,,,,2,,,49,0
40200,note_on,54,0,1,,,,,,,,,0,,,75,101
40200,note_on,54,0,3,,,,,,,,,2,,,47,88
40200,note_on,0,0,1,,,,,,,,,0,,,83,101
40200,note_on,0,0,3,,,,,,,,,2,,,59,88
40206,note_on,6,0,1,,,,,,,,,0,,,83,0
40206,note_on,0,0,1,,,,,,,,,0,,,75,0
40206,note_on,0,0,3,,,,,,,,,2,,,47,0
40206,note_on,6,0,3,,,,,,,,,2,,,59,0
40260,note_on,0,0,3,,,,,,,,,2,,,61,88
40260,note_on,0,0,1,,,,,,,,,0,,,82,101
40260,note_on,54,0,1,,,,,,,,,0,,,76,101
40260,note_on,54,0,3,,,,,,,,,2,,,49,88
40266,note_on,6,0,3,,,,,,,,,2,,,61,0
40266,note_on,0,0,1,,,,,,,,,0,,,76,0
40266,note_on,6,0,1,,,,,,,,,0,,,82,0
40266,note_on,0,0,3,,,,,,,,,2,,,49,0
40320,note_on,0,0,3,,,,,,,,,2,,,59,88
40320,note_on,54,0,3,,,,,,,,,2,,,47,88
40320,note_on,0,0,1,,,,,,,,,0,,,83,101
40320,note_on,54,0,1,,,,,,,,,0,,,75,101
40326,note_on,6,0,1,,,,,,,,,0,,,83,0
40326,note_on,0,0,1,,,,,,,,,0,,,75,0
40326,note_on,6,0,3,,,,,,,,,2,,,59,0
40326,note_on,0,0,3,,,,,,,,,2,,,47,0
40440,note_on,0,0,3,,,,,,,,,2,,,50,88
40440,note_on,0,0,3,,,,,,,,,2,,,45,88
40440,note_on,0,0,3,,,,,,,,,2,,,42,88
40440,note_on,0,0,1,,,,,,,,,0,,,86,101
40440,note_on,0,0,1,,,,,,,,,0,,,81,101
40440,note_on,0,0,1,,,,,,,,,0,,,78,101
40440,note_on,114,0,1,,,,,,,,,0,,,74,101
40440,note_on,114,0,3,,,,,,,,,2,,,38,88
40800,note_on,360,0,3,,,,,,,,,2,,,50,0
40800,note_on,0,0,1,,,,,,,,,0,,,73,101
40800,note_on,360,0,1,,,,,,,,,0,,,86,0
40800,note_on,0,0,1,,,,,,,,,0,,,74,0
40800,note_on,0,0,1,,,,,,,,,0,,,78,0
40800,note_on,0,0,1,,,,,,,,,0,,,81,101
40800,note_on,0,0,3,,,,,,,,,2,,,38,0
40800,note_on,0,0,3,,,,,,,,,2,,,42,0
40800,note_on,0,0,1,,,,,,,,,0,,,81,0
40800,note_on,0,0,3,,,,,,,,,2,,,45,88
40800,note_on,0,0,3,,,,,,,,,2,,,57,88
40800,note_on,0,0,3,,,,,,,,,2,,,45,0
40806,note_on,6,0,3,,,,,,,,,2,,,57,0
40806,note_on,0,0,3,,,,,,,,,2,,,45,0
40806,note_on,0,0,1,,,,,,,,,0,,,73,0
40806,note_on,6,0,1,,,,,,,,,0,,,81,0
40860,note_on,0,0,1,,,,,,,,,0,,,80,101
40860,note_on,54,0,1,,,,,,,,,0,,,74,101
40860,note_on,54,0,3,,,,,,,,,2,,,46,88
40860,note_on,0,0,3,,,,,,,,,2,,,58,88
40866,note_on,6,0,3,,,,,,,,,2,,,58,0
40866,note_on,0,0,1,,,,,,,,,0,,,74,0
40866,note_on,0,0,3,,,,,,,,,2,,,46,0
40866,note_on,6,0,1,,,,,,,,,0,,,80,0
40920,note_on,54,0,1,,,,,,,,,0,,,73,101
40920,note_on,54,0,3,,,,,,,,,2,,,45,88
40920,note_on,0,0,3,,,,,,,,,2,,,57,88
40920,note_on,0,0,1,,,,,,,,,0,,,81,101
40926,note_on,6,0,1,,,,,,,,,0,,,81,0
40926,note_on,0,0,3,,,,,,,,,2,,,45,0
40926,note_on,6,0,3,,,,,,,,,2,,,57,0
40926,note_on,0,0,1,,,,,,,,,0,,,73,0
40980,note_on,0,0,3,,,,,,,,,2,,,58,88
40980,note_on,54,0,3,,,,,,,,,2,,,46,88
40980,note_on,54,0,1,,,,,,,,,0,,,74,101
40980,note_on,0,0,1,,,,,,,,,0,,,80,101
40986,note_on,0,0,3,,,,,,,,,2,,,46,0
40986,note_on,6,0,3,,,,,,,,,2,,,58,0
40986,note_on,0,0,1,,,,,,,,,0,,,74,0
40986,note_on,6,0,1,,,,,,,,,0,,,80,0
41040,note_on,54,0,3,,,,,,,,,2,,,45,88
41040,note_on,0,0,3,,,,,,,,,2,,,57,88
41040,note_on,54,0,1,,,,,,,,,0,,,73,101
41040,note_on,0,0,1,,,,,,,,,0,,,81,101
41046,note_on,0,0,1,,,,,,,,,0,,,73,0
41046,note_on,6,0,3,,,,,,,,,2,,,57,0
41046,note_on,6,0,1,,,,,,,,,0,,,81,0
41046,note_on,0,0,3,,,,,,,,,2,,,45,0
41160,note_on,114,0,3,,,,,,,,,2,,,36,88
41160,note_on,0,0,1,,,,,,,,,0,,,76,101
41160,note_on,0,0,1,,,,,,,,,0,,,79,101
41160,note_on,0,0,1,,,,,,,,,0,,,84,101
41160,note_on,114,0,1,,,,,,,,,0,,,72,101
41160,note_on,0,0,3,,,,,,,,,2,,,48,88
41400,note_on,0,0,1,,,,,,,,,0,,,79,0
41400,note_on,0,0,1,,,,,,,,,0,,,72,0
41400,note_on,0,0,1,,,,,,,,,0,,,76,0
41400,note_on,240,0,3,,,,,,,,,2,,,48,0
41400,note_on,0,0,1,,,,,,,,,0,,,71,115
41400,note_on,0,0,1,,,,,,,,,0,,,79,123
41400,note_on,0,0,1,,,,,,,,,0,,,83,127
41400,note_on,0,0,3,,,,,,,,,2,,,52,114
41400,note_on,0,0,3,,,,,,,,,2,,,40,106
41400,note_on,0,0,3,,,,,,,,,2,,,36,0
41400,note_on,240,0,1,,,,,,,,,0,,,84,0
41400,note_on,0,0,1,,,,,,,,,0,,,76,119
41412,note_on,12,0,3,,,,,,,,,2,,,52,0
41412,note_on,0,0,3,,,,,,,,,2,,,40,0
41412,note_on,12,0,1,,,,,,,,,0,,,83,0
41412,note_on,0,0,1,,,,,,,,,0,,,76,0
41412,note_on,0,0,1,,,,,,,,,0,,,79,0
41412,note_on,0,0,1,,,,,,,,,0,,,71,0
41520,note_on,0,0,3,,,,,,,,,2,,,53,114
41520,note_on,108,0,1,,,,,,,,,0,,,69,115
41520,note_on,0,0,1,,,,,,,,,0,,,72,119
41520,note_on,0,0,1,,,,,,,,,0,,,77,123
41520,note_on,0,0,1,,,,,,,,,0,,,81,127
41520,note_on,108,0,3,,,,,,,,,2,,,41,106
41532,note_on,0,0,1,,,,,,,,,0,,,69,0
41532,note_on,0,0,1,,,,,,,,,0,,,72,0
41532,note_on,0,0,1,,,,,,,,,0,,,77,0
41532,note_on,12,0,1,,,,,,,,,0,,,81,0
41532,note_on,12,0,3,,,,,,,,,2,,,53,0
41532,note_on,0,0,3,,,,,,,,,2,,,41,0
41640,note_on,0,0,1,,,,,,,,,0,,,84,127
41640,note_on,0,0,1,,,,,,,,,0,,,81,123
41640,note_on,0,0,1,,,,,,,,,0,,,75,119
41640,note_on,108,0,1,,,,,,,,,0,,,72,115
41640,note_on,108,0,3,,,,,,,,,2,,,42,106
41640,note_on,0,0,3,,,,,,,,,2,,,54,114
41652,note_on,0,0,1,,,,,,,,,0,,,75,0
41652,note_on,0,0,1,,,,,,,,,0,,,81,0
41652,note_on,0,0,1,,,,,,,,,0,,,72,0
41652,note_on,12,0,1,,,,,,,,,0,,,84,0
41652,note_on,12,0,3,,,,,,,,,2,,,54,0
41652,note_on,0,0,3,,,,,,,,,2,,,42,0
41760,note_on,0,0,1,,,,,,,,,0,,,76,119
41760,note_on,108,0,3,,,,,,,,,2,,,43,106
41760,note_on,0,0,3,,,,,,,,,2,,,55,114
41760,note_on,0,0,1,,,,,,,,,0,,,79,123
41760,note_on,0,0,1,,,,,,,,,0,,,83,127
41760,note_on,108,0,1,,,,,,,,,0,,,71,115
41772,note_on,0,0,3,,,,,,,,,2,,,43,0
41772,note_on,12,0,3,,,,,,,,,2,,,55,0
41772,note_on,0,0,1,,,,,,,,,0,,,71,0
41772,note_on,0,0,1,,,,,,,,,0,,,79,0
41772,note_on,12,0,1,,,,,,,,,0,,,83,0
41772,note_on,0,0,1,,,,,,,,,0,,,76,0
41880,note_on,0,0,3,,,,,,,,,2,,,57,114
41880,note_on,108,0,3,,,,,,,,,2,,,45,106
41880,note_on,108,0,1,,,,,,,,,0,,,72,117
41880,note_on,0,0,1,,,,,,,,,0,,,78,122
41880,note_on,0,0,1,,,,,,,,,0,,,81,127
41892,note_on,0,0,3,,,,,,,,,2,,,45,0
41892,note_on,12,0,3,,,,,,,,,2,,,57,0
41892,note_on,0,0,1,,,,,,,,,0,,,72,0
41892,note_on,12,0,1,,,,,,,,,0,,,81,0
41892,note_on,0,0,1,,,,,,,,,0,,,78,0
42000,note_on,108,0,1,,,,,,,,,0,,,71,117
42000,note_on,108,0,3,,,,,,,,,2,,,47,106
42000,note_on,0,0,1,,,,,,,,,0,,,79,127
42000,note_on,0,0,3,,,,,,,,,2,,,59,114
42000,note_on,0,0,1,,,,,,,,,0,,,76,122
42012,note_on,0,0,1,,,,,,,,,0,,,71,0
42012,note_on,0,0,3,,,,,,,,,2,,,47,0
42012,note_on,0,0,1,,,,,,,,,0,,,76,0
42012,note_on,12,0,1,,,,,,,,,0,,,79,0
42012,note_on,12,0,3,,,,,,,,,2,,,59,0
42120,note_on,0,0,1,,,,,,,,,0,,,75,122
42120,note_on,0,0,1,,,,,,,,,0,,,78,127
42120,note_on,0,0,3,,,,,,,,,2,,,59,114
42120,note_on,108,0,3,,,,,,,,,2,,,47,106
42120,note_on,108,0,1,,,,,,,,,0,,,71,117
42132,note_on,0,0,1,,,,,,,,,0,,,71,0
42132,note_on,0,0,1,,,,,,,,,0,,,75,0
42132,note_on,12,0,1,,,,,,,,,0,,,78,0
42132,note_on,0,0,3,,,,,,,,,2,,,47,0
42132,note_on,12,0,3,,,,,,,,,2,,,59,0
42240,note_on,0,0,3,,,,,,,,,2,,,64,88
42240,note_on,0,0,3,,,,,,,,,2,,,59,88
42240,note_on,0,0,3,,,,,,,,,2,,,55,88
42240,note_on,108,0,3,,,,,,,,,2,,,52,88
42240,control_change,108,0,1,,,,,,,,,0,64,127,,
42240,note_on,0,0,1,,,,,,,,,0,,,64,101
42300,note_on,60,0,1,,,,,,,,,0,,,64,0
42300,note_on,0,0,1,,,,,,,,,0,,,66,101
42330,note_on,30,0,1,,,,,,,,,0,,,66,0
42330,note_on,0,0,1,,,,,,,,,0,,,67,101
42360,note_on,30,0,1,,,,,,,,,0,,,67,0
42360,note_on,0,0,1,,,,,,,,,0,,,69,101
42390,note_on,30,0,1,,,,,,,,,0,,,69,0
42390,note_on,0,0,1,,,,,,,,,0,,,71,101
42420,note_on,30,0,1,,,,,,,,,0,,,71,0
42420,note_on,0,0,1,,,,,,,,,0,,,73,101
42450,note_on,30,0,1,,,,,,,,,0,,,73,0
42450,note_on,0,0,1,,,,,,,,,0,,,75,101
42480,note_on,0,0,1,,,,,,,,,0,,,76,101
42480,note_on,30,0,1,,,,,,,,,0,,,75,0
42510,note_on,30,0,1,,,,,,,,,0,,,76,0
42510,note_on,0,0,1,,,,,,,,,0,,,78,101
42540,note_on,30,0,1,,,,,,,,,0,,,78,0
42540,note_on,0,0,1,,,,,,,,,0,,,79,101
42570,note_on,30,0,1,,,,,,,,,0,,,79,0
42570,control_change,0,0,1,,,,,,,,,0,64,0,,
42570,note_on,0,0,1,,,,,,,,,0,,,81,101
42600,note_on,0,0,1,,,,,,,,,0,,,71,101
42600,note_on,0,0,1,,,,,,,,,0,,,83,101
42600,note_on,30,0,1,,,,,,,,,0,,,81,0
42600,note_on,0,0,3,,,,,,,,,2,,,47,88
42600,note_on,0,0,3,,,,,,,,,2,,,51,88
42600,note_on,0,0,3,,,,,,,,,2,,,59,0
42600,note_on,0,0,3,,,,,,,,,2,,,52,0
42600,note_on,360,0,3,,,,,,,,,2,,,64,0
42600,note_on,0,0,3,,,,,,,,,2,,,55,0
42606,note_on,6,0,1,,,,,,,,,0,,,83,0
42606,note_on,6,0,3,,,,,,,,,2,,,51,0
42606,note_on,0,0,3,,,,,,,,,2,,,47,0
42606,note_on,0,0,1,,,,,,,,,0,,,71,0
42660,note_on,54,0,1,,,,,,,,,0,,,70,101
42660,note_on,0,0,1,,,,,,,,,0,,,82,101
42660,note_on,54,0,3,,,,,,,,,2,,,48,88
42660,note_on,0,0,3,,,,,,,,,2,,,52,88
42666,note_on,0,0,3,,,,,,,,,2,,,48,0
42666,note_on,6,0,1,,,,,,,,,0,,,82,0
42666,note_on,0,0,1,,,,,,,,,0,,,70,0
42666,note_on,6,0,3,,,,,,,,,2,,,52,0
42720,note_on,0,0,3,,,,,,,,,2,,,51,88
42720,note_on,0,0,1,,,,,,,,,0,,,83,101
42720,note_on,54,0,1,,,,,,,,,0,,,71,101
42720,note_on,54,0,3,,,,,,,,,2,,,47,88
42726,note_on,6,0,3,,,,,,,,,2,,,51,0
42726,note_on,0,0,3,,,,,,,,,2,,,47,0
42726,note_on,6,0,1,,,,,,,,,0,,,83,0
42726,note_on,0,0,1,,,,,,,,,0,,,71,0
42780,note_on,0,0,3,,,,,,,,,2,,,52,88
42780,note_on,54,0,1,,,,,,,,,0,,,70,101
42780,note_on,0,0,1,,,,,,,,,0,,,82,101
42780,note_on,54,0,3,,,,,,,,,2,,,48,88
42786,note_on,6,0,1,,,,,,,,,0,,,82,0
42786,note_on,0,0,1,,,,,,,,,0,,,70,0
42786,note_on,0,0,3,,,,,,,,,2,,,48,0
42786,note_on,6,0,3,,,,,,,,,2,,,52,0
42840,note_on,54,0,1,,,,,,,,,0,,,71,101
42840,note_on,0,0,3,,,,,,,,,2,,,51,88
42840,note_on,54,0,3,,,,,,,,,2,,,47,88
42840,note_on,0,0,1,,,,,,,,,0,,,83,101
42846,note_on,0,0,1,,,,,,,,,0,,,71,0
42846,note_on,0,0,3,,,,,,,,,2,,,47,0
42846,note_on,6,0,3,,,,,,,,,2,,,51,0
42846,note_on,6,0,1,,,,,,,,,0,,,83,0
42960,note_on,0,0,3,,,,,,,,,2,,,62,88
42960,note_on,114,0,3,,,,,,,,,2,,,50,88
42960,note_on,0,0,3,,,,,,,,,2,,,54,88
42960,note_on,0,0,3,,,,,,,,,2,,,57,88
42960,control_change,114,0,1,,,,,,,,,0,64,127,,
42960,note_on,0,0,1,,,,,,,,,0,,,62,101
43020,note_on,60,0,1,,,,,,,,,0,,,62,0
43020,note_on,0,0,1,,,,,,,,,0,,,64,101
43050,note_on,30,0,1,,,,,,,,,0,,,64,0
43050,note_on,0,0,1,,,,,,,,,0,,,66,101
43080,note_on,30,0,1,,,,,,,,,0,,,66,0
43080,note_on,0,0,1,,,,,,,,,0,,,67,101
43110,note_on,30,0,1,,,,,,,,,0,,,67,0
43110,note_on,0,0,1,,,,,,,,,0,,,69,101
43140,note_on,0,0,1,,,,,,,,,0,,,71,101
43140,note_on,30,0,1,,,,,,,,,0,,,69,0
43170,note_on,0,0,1,,,,,,,,,0,,,73,101
43170,note_on,30,0,1,,,,,,,,,0,,,71,0
43200,note_on,30,0,1,,,,,,,,,0,,,73,0
43200,note_on,0,0,1,,,,,,,,,0,,,74,101
43230,note_on,30,0,1,,,,,,,,,0,,,74,0
43230,note_on,0,0,1,,,,,,,,,0,,,76,101
43260,note_on,0,0,1,,,,,,,,,0,,,78,101
43260,note_on,30,0,1,,,,,,,,,0,,,76,0
43290,control_change,0,0,1,,,,,,,,,0,64,0,,
43290,note_on,30,0,1,,,,,,,,,0,,,78,0
43290,note_on,0,0,1,,,,,,,,,0,,,80,101
43320,note_on,0,0,3,,,,,,,,,2,,,54,0
43320,note_on,0,0,3,,,,,,,,,2,,,49,88
43320,note_on,0,0,3,,,,,,,,,2,,,45,88
43320,note_on,0,0,3,,,,,,,,,2,,,57,0
43320,note_on,0,0,3,,,,,,,,,2,,,50,0
43320,note_on,360,0,3,,,,,,,,,2,,,62,0
43320,note_on,30,0,1,,,,,,,,,0,,,80,0
43320,note_on,0,0,1,,,,,,,,,0,,,81,101
43320,note_on,0,0,1,,,,,,,,,0,,,69,101
43326,note_on,0,0,3,,,,,,,,,2,,,45,0
43326,note_on,0,0,1,,,,,,,,,0,,,69,0
43326,note_on,6,0,3,,,,,,,,,2,,,49,0
43326,note_on,6,0,1,,,,,,,,,0,,,81,0
43380,note_on,0,0,1,,,,,,,,,0,,,80,101
43380,note_on,54,0,1,,,,,,,,,0,,,68,101
43380,note_on,54,0,3,,,,,,,,,2,,,46,88
43380,note_on,0,0,3,,,,,,,,,2,,,50,88
43386,note_on,6,0,1,,,,,,,,,0,,,80,0
43386,note_on,0,0,3,,,,,,,,,2,,,46,0
43386,note_on,0,0,1,,,,,,,,,0,,,68,0
43386,note_on,6,0,3,,,,,,,,,2,,,50,0
43440,note_on,54,0,3,,,,,,,,,2,,,45,88
43440,note_on,0,0,3,,,,,,,,,2,,,49,88
43440,note_on,54,0,1,,,,,,,,,0,,,69,101
43440,note_on,0,0,1,,,,,,,,,0,,,81,101
43446,note_on,6,0,3,,,,,,,,,2,,,49,0
43446,note_on,0,0,1,,,,,,,,,0,,,69,0
43446,note_on,6,0,1,,,,,,,,,0,,,81,0
43446,note_on,0,0,3,,,,,,,,,2,,,45,0
43500,note_on,54,0,3,,,,,,,,,2,,,46,88
43500,note_on,0,0,3,,,,,,,,,2,,,50,88
43500,note_on,54,0,1,,,,,,,,,0,,,68,101
43500,note_on,0,0,1,,,,,,,,,0,,,80,101
43506,note_on,0,0,3,,,,,,,,,2,,,46,0
43506,note_on,6,0,3,,,,,,,,,2,,,50,0
43506,note_on,0,0,1,,,,,,,,,0,,,68,0
43506,note_on,6,0,1,,,,,,,,,0,,,80,0
43560,note_on,54,0,1,,,,,,,,,0,,,69,101
43560,note_on,0,0,1,,,,,,,,,0,,,81,101
43560,note_on,0,0,3,,,,,,,,,2,,,49,88
43560,note_on,54,0,3,,,,,,,,,2,,,45,88
43566,note_on,6,0,3,,,,,,,,,2,,,49,0
43566,note_on,0,0,3,,,,,,,,,2,,,45,0
43566,note_on,6,0,1,,,,,,,,,0,,,81,0
43566,note_on,0,0,1,,,,,,,,,0,,,69,0
43680,note_on,0,0,3,,,,,,,,,2,,,43,88
43680,note_on,0,0,3,,,,,,,,,2,,,40,88
43680,note_on,114,0,3,,,,,,,,,2,,,36,88
43680,note_on,0,0,3,,,,,,,,,2,,,48,88
43710,control_change,144,0,1,,,,,,,,,0,64,127,,
43710,note_on,0,0,1,,,,,,,,,0,,,72,101
43740,note_on,0,0,1,,,,,,,,,0,,,76,101
43740,note_on,30,0,1,,,,,,,,,0,,,72,0
43770,note_on,30,0,1,,,,,,,,,0,,,76,0
43770,note_on,0,0,1,,,,,,,,,0,,,79,101
43800,note_on,30,0,1,,,,,,,,,0,,,79,0
43800,note_on,0,0,1,,,,,,,,,0,,,84,101
43830,note_on,30,0,1,,,,,,,,,0,,,84,0
43830,note_on,0,0,1,,,,,,,,,0,,,88,101
43860,note_on,0,0,1,,,,,,,,,0,,,91,101
43860,note_on,30,0,1,,,,,,,,,0,,,88,0
43890,note_on,30,0,1,,,,,,,,,0,,,91,0
43890,note_on,0,0,1,,,,,,,,,0,,,96,101
43920,note_on,0,0,3,,,,,,,,,2,,,47,88
43920,note_on,0,0,3,,,,,,,,,2,,,43,88
43920,note_on,0,0,3,,,,,,,,,2,,,40,88
43920,note_on,0,0,3,,,,,,,,,2,,,43,0
43920,note_on,0,0,3,,,,,,,,,2,,,40,0
43920,note_on,0,0,3,,,,,,,,,2,,,36,0
43920,note_on,30,0,1,,,,,,,,,0,,,96,0
43920,note_on,0,0,1,,,,,,,,,0,,,95,101
43920,control_change,0,0,1,,,,,,,,,0,64,0,,
43920,note_on,0,0,3,,,,,,,,,2,,,52,88
43920,note_on,240,0,3,,,,,,,,,2,,,48,0
43980,note_on,60,0,1,,,,,,,,,0,,,95,0
43980,note_on,0,0,3,,,,,,,,,2,,,40,0
43980,note_on,60,0,3,,,,,,,,,2,,,52,0
43980,note_on,0,0,3,,,,,,,,,2,,,43,0
43980,note_on,0,0,3,,,,,,,,,2,,,47,0
44040,note_on,0,0,3,,,,,,,,,2,,,53,88
44040,note_on,0,0,3,,,,,,,,,2,,,48,88
44040,note_on,0,0,3,,,,,,,,,2,,,45,88
44040,note_on,60,0,3,,,,,,,,,2,,,41,88
44040,note_on,60,0,1,,,,,,,,,0,,,69,101
44070,note_on,30,0,1,,,,,,,,,0,,,69,0
44070,note_on,0,0,1,,,,,,,,,0,,,72,101
44100,note_on,0,0,1,,,,,,,,,0,,,77,101
44100,note_on,30,0,1,,,,,,,,,0,,,72,0
44130,note_on,30,0,1,,,,,,,,,0,,,77,0
44130,note_on,0,0,1,,,,,,,,,0,,,81,101
44160,note_on,0,0,3,,,,,,,,,2,,,45,88
44160,note_on,0,0,3,,,,,,,,,2,,,42,88
44160,note_on,0,0,3,,,,,,,,,2,,,48,0
44160,note_on,0,0,3,,,,,,,,,2,,,41,0
44160,note_on,0,0,3,,,,,,,,,2,,,45,0
44160,note_on,30,0,1,,,,,,,,,0,,,81,0
44160,note_on,0,0,1,,,,,,,,,0,,,72,101
44160,note_on,120,0,3,,,,,,,,,2,,,53,0
44160,note_on,0,0,3,,,,,,,,,2,,,54,88
44160,note_on,0,0,3,,,,,,,,,2,,,51,88
44190,note_on,30,0,1,,,,,,,,,0,,,72,0
44190,note_on,0,0,1,,,,,,,,,0,,,75,101
44220,note_on,30,0,1,,,,,,,,,0,,,75,0
44220,note_on,0,0,1,,,,,,,,,0,,,81,101
44250,note_on,0,0,1,,,,,,,,,0,,,84,101
44250,note_on,30,0,1,,,,,,,,,0,,,81,0
44280,note_on,0,0,3,,,,,,,,,2,,,52,88
44280,note_on,0,0,3,,,,,,,,,2,,,47,88
44280,note_on,0,0,3,,,,,,,,,2,,,43,88
44280,note_on,0,0,3,,,,,,,,,2,,,51,0
44280,note_on,120,0,3,,,,,,,,,2,,,54,0
44280,note_on,30,0,1,,,,,,,,,0,,,84,0
44280,note_on,0,0,1,,,,,,,,,0,,,71,101
44280,note_on,0,0,3,,,,,,,,,2,,,55,88
44280,note_on,0,0,3,,,,,,,,,2,,,45,0
44280,note_on,0,0,3,,,,,,,,,2,,,42,0
44310,note_on,0,0,1,,,,,,,,,0,,,76,101
44310,note_on,30,0,1,,,,,,,,,0,,,71,0
44340,note_on,0,0,1,,,,,,,,,0,,,79,101
44340,note_on,30,0,1,,,,,,,,,0,,,76,0
44370,note_on,0,0,1,,,,,,,,,0,,,83,101
44370,note_on,30,0,1,,,,,,,,,0,,,79,0
44400,note_on,30,0,1,,,,,,,,,0,,,83,0
44400,note_on,120,0,3,,,,,,,,,2,,,55,0
44400,note_on,0,0,3,,,,,,,,,2,,,43,0
44400,note_on,0,0,3,,,,,,,,,2,,,52,0
44400,note_on,0,0,3,,,,,,,,,2,,,45,88
44400,note_on,0,0,3,,,,,,,,,2,,,48,88
44400,note_on,0,0,3,,,,,,,,,2,,,54,88
44400,note_on,0,0,3,,,,,,,,,2,,,57,88
44400,note_on,0,0,3,,,,,,,,,2,,,47,0
44400,note_on,0,0,1,,,,,,,,,0,,,69,101
44430,note_on,30,0,1,,,,,,,,,0,,,69,0
44430,note_on,0,0,1,,,,,,,,,0,,,72,101
44460,note_on,0,0,1,,,,,,,,,0,,,78,101
44460,note_on,30,0,1,,,,,,,,,0,,,72,0
44490,note_on,0,0,1,,,,,,,,,0,,,81,101
44490,note_on,30,0,1,,,,,,,,,0,,,78,0
44520,note_on,30,0,1,,,,,,,,,0,,,81,0
44520,note_on,120,0,3,,,,,,,,,2,,,57,0
44520,note_on,0,0,1,,,,,,,,,0,,,67,101
44520,note_on,0,0,3,,,,,,,,,2,,,48,0
44520,note_on,0,0,3,,,,,,,,,2,,,54,0
44520,note_on,0,0,3,,,,,,,,,2,,,47,88
44520,note_on,0,0,3,,,,,,,,,2,,,52,88
44520,note_on,0,0,3,,,,,,,,,2,,,55,88
44520,note_on,0,0,3,,,,,,,,,2,,,59,88
44520,note_on,0,0,3,,,,,,,,,2,,,45,0
44550,note_on,30,0,1,,,,,,,,,0,,,67,0
44550,note_on,0,0,1,,,,,,,,,0,,,71,101
44580,note_on,0,0,1,,,,,,,,,0,,,76,101
44580,note_on,30,0,1,,,,,,,,,0,,,71,0
44610,note_on,0,0,1,,,,,,,,,0,,,79,101
44610,note_on,30,0,1,,,,,,,,,0,,,76,0
44640,note_on,30,0,1,,,,,,,,,0,,,79,0
44640,note_on,0,0,1,,,,,,,,,0,,,66,101
44640,note_on,0,0,3,,,,,,,,,2,,,52,0
44640,note_on,0,0,3,,,,,,,,,2,,,51,88
44640,note_on,0,0,3,,,,,,,,,2,,,47,0
44640,note_on,120,0,3,,,,,,,,,2,,,59,0
44640,note_on,0,0,3,,,,,,,,,2,,,47,88
44640,note_on,0,0,3,,,,,,,,,2,,,55,0
44640,note_on,0,0,3,,,,,,,,,2,,,59,88
44640,note_on,0,0,3,,,,,,,,,2,,,54,88
44670,note_on,30,0,1,,,,,,,,,0,,,66,0
44670,note_on,0,0,1,,,,,,,,,0,,,71,101
44700,note_on,0,0,1,,,,,,,,,0,,,75,101
44700,note_on,30,0,1,,,,,,,,,0,,,71,0
44730,note_on,30,0,1,,,,,,,,,0,,,75,0
44730,note_on,0,0,1,,,,,,,,,0,,,78,101
44760,note_on,120,0,3,,,,,,,,,2,,,59,0
44760,note_on,30,0,1,,,,,,,,,0,,,78,0
44760,control_change,0,0,1,,,,,,,,,0,64,127,,
44760,note_on,0,0,1,,,,,,,,,0,,,64,101
44760,note_on,0,0,3,,,,,,,,,2,,,52,88
44760,note_on,0,0,3,,,,,,,,,2,,,47,0
44760,note_on,0,0,3,,,,,,,,,2,,,51,0
44760,note_on,0,0,3,,,,,,,,,2,,,54,0
44760,control_change,0,0,3,,,,,,,,,2,64,127,,
44820,note_on,60,0,1,,,,,,,,,0,,,64,0
44820,note_on,60,0,3,,,,,,,,,2,,,52,0
44820,note_on,0,0,1,,,,,,,,,0,,,66,101
44820,note_on,0,0,3,,,,,,,,,2,,,54,88
44850,note_on,30,0,3,,,,,,,,,2,,,54,0
44850,note_on,0,0,3,,,,,,,,,2,,,55,88
44850,note_on,0,0,1,,,,,,,,,0,,,67,101
44850,note_on,30,0,1,,,,,,,,,0,,,66,0
44880,note_on,30,0,3,,,,,,,,,2,,,55,0
44880,note_on,0,0,3,,,,,,,,,2,,,57,88
44880,note_on,0,0,1,,,,,,,,,0,,,69,101
44880,note_on,30,0,1,,,,,,,,,0,,,67,0
44910,note_on,0,0,3,,,,,,,,,2,,,59,88
44910,note_on,30,0,1,,,,,,,,,0,,,69,0
44910,note_on,30,0,3,,,,,,,,,2,,,57,0
44910,note_on,0,0,1,,,,,,,,,0,,,71,101
44940,note_on,0,0,1,,,,,,,,,0,,,73,101
44940,note_on,30,0,1,,,,,,,,,0,,,71,0
44940,note_on,0,0,3,,,,,,,,,2,,,61,88
44940,note_on,30,0,3,,,,,,,,,2,,,59,0
44970,note_on,30,0,1,,,,,,,,,0,,,73,0
44970,note_on,0,0,1,,,,,,,,,0,,,75,101
44970,note_on,30,0,3,,,,,,,,,2,,,61,0
44970,note_on,0,0,3,,,,,,,,,2,,,63,88
45000,note_on,30,0,3,,,,,,,,,2,,,63,0
45000,note_on,0,0,1,,,,,,,,,0,,,76,101
45000,note_on,30,0,1,,,,,,,,,0,,,75,0
45000,note_on,0,0,3,,,,,,,,,2,,,64,88
45030,note_on,30,0,3,,,,,,,,,2,,,64,0
45030,note_on,0,0,3,,,,,,,,,2,,,66,88
45030,note_on,0,0,1,,,,,,,,,0,,,78,101
45030,note_on,30,0,1,,,,,,,,,0,,,76,0
45060,note_on,0,0,1,,,,,,,,,0,,,79,101
45060,note_on,30,0,1,,,,,,,,,0,,,78,0
45060,note_on,0,0,3,,,,,,,,,2,,,67,88
45060,note_on,30,0,3,,,,,,,,,2,,,66,0
45090,note_on,0,0,1,,,,,,,,,0,,,81,101
45090,control_change,0,0,1,,,,,,,,,0,64,0,,
45090,note_on,30,0,1,,,,,,,,,0,,,79,0
45090,note_on,0,0,3,,,,,,,,,2,,,69,88
45090,control_change,0,0,3,,,,,,,,,2,64,0,,
45090,note_on,30,0,3,,,,,,,,,2,,,67,0
45120,note_on,0,0,1,,,,,,,,,0,,,83,101
45120,control_change,0,0,1,,,,,,,,,0,64,127,,
45120,note_on,30,0,1,,,,,,,,,0,,,81,0
45120,note_on,30,0,3,,,,,,,,,2,,,69,0
45120,control_change,0,0,3,,,,,,,,,2,64,127,,
45120,note_on,0,0,3,,,,,,,,,2,,,71,88
45150,note_on,30,0,3,,,,,,,,,2,,,71,0
45150,note_on,0,0,3,,,,,,,,,2,,,72,88
45150,note_on,30,0,1,,,,,,,,,0,,,83,0
45150,note_on,0,0,1,,,,,,,,,0,,,84,101
45180,note_on,0,0,1,,,,,,,,,0,,,86,101
45180,note_on,30,0,3,,,,,,,,,2,,,72,0
45180,note_on,30,0,1,,,,,,,,,0,,,84,0
45180,note_on,0,0,3,,,,,,,,,2,,,74,88
45210,note_on,30,0,3,,,,,,,,,2,,,74,0
45210,note_on,0,0,1,,,,,,,,,0,,,88,101
45210,note_on,30,0,1,,,,,,,,,0,,,86,0
45210,note_on,0,0,3,,,,,,,,,2,,,76,88
45240,note_on,30,0,3,,,,,,,,,2,,,76,0
45240,note_on,0,0,1,,,,,,,,,0,,,89,114
45240,note_on,0,0,3,,,,,,,,,2,,,77,101
45240,note_on,30,0,1,,,,,,,,,0,,,88,0
45252,note_on,12,0,3,,,,,,,,,2,,,77,0
45252,note_on,12,0,1,,,,,,,,,0,,,89,0
45360,control_change,108,0,1,,,,,,,,,0,64,0,,
45360,control_change,108,0,3,,,,,,,,,2,64,0,,
45600,note_on,240,0,1,,,,,,,,,0,,,86,101
45600,note_on,240,0,3,,,,,,,,,2,,,74,88
45612,note_on,12,0,1,,,,,,,,,0,,,86,0
45612,note_on,12,0,3,,,,,,,,,2,,,74,0
45960,note_on,348,0,1,,,,,,,,,0,,,83,75
45960,note_on,348,0,3,,,,,,,,,2,,,71,62
45972,note_on,12,0,1,,,,,,,,,0,,,83,0
45972,note_on,12,0,3,,,,,,,,,2,,,71,0
46320,note_on,348,0,3,,,,,,,,,2,,,68,36
46320,note_on,348,0,1,,,,,,,,,0,,,80,49
46332,note_on,12,0,1,,,,,,,,,0,,,80,0
46332,note_on,12,0,3,,,,,,,,,2,,,68,0
46560,time_signature,18000,1,0,4,4,24,8,,,,,,,,,
46680,note_on,348,0,1,,,,,,,,,0,,,79,49
46680,note_on,348,0,3,,,,,,,,,2,,,67,36
46692,note_on,12,0,1,,,,,,,,,0,,,79,0
46692,note_on,12,0,3,,,,,,,,,2,,,67,0
47040,time_signature,480,1,0,3,4,24,8,,,,,,,,,
47040,note_on,0,0,1,,,,,,,,,0,,,76,36
47040,control_change,348,0,1,,,,,,,,,0,64,127,,
47040,note_on,13800,0,2,,,,,,,,,1,,,67,36
47040,note_on,0,0,3,,,,,,,,,2,,,48,36
47040,control_change,348,0,3,,,,,,,,,2,64,127,,
47100,note_on,0,0,3,,,,,,,,,2,,,55,36
47100,note_on,60,0,3,,,,,,,,,2,,,48,0
47160,note_on,0,0,3,,,,,,,,,2,,,60,36
47160,note_on,60,0,3,,,,,,,,,2,,,55,0
47220,note_on,0,0,3,,,,,,,,,2,,,55,36
47220,note_on,60,0,3,,,,,,,,,2,,,60,0
47280,note_on,0,0,3,,,,,,,,,2,,,64,36
47280,control_change,0,0,3,,,,,,,,,2,64,0,,
47280,note_on,60,0,3,,,,,,,,,2,,,55,0
47340,note_on,60,0,3,,,,,,,,,2,,,64,0
47340,note_on,0,0,1,,,,,,,,,0,,,77,36
47340,note_on,300,0,1,,,,,,,,,0,,,76,0
47370,note_on,30,0,1,,,,,,,,,0,,,77,0
47370,note_on,0,0,1,,,,,,,,,0,,,76,36
47370,control_change,0,0,1,,,,,,,,,0,64,0,,
47400,control_change,60,0,3,,,,,,,,,2,64,127,,
47400,note_on,0,0,1,,,,,,,,,0,,,74,36
47400,control_change,0,0,1,,,,,,,,,0,64,127,,
47400,note_on,30,0,1,,,,,,,,,0,,,76,0
47400,note_on,0,0,3,,,,,,,,,2,,,47,36
47460,note_on,0,0,3,,,,,,,,,2,,,55,36
47460,note_on,60,0,3,,,,,,,,,2,,,47,0
47520,note_on,0,0,1,,,,,,,,,0,,,77,36
47520,note_on,120,0,1,,,,,,,,,0,,,74,0
47520,note_on,0,0,3,,,,,,,,,2,,,62,36
47520,note_on,60,0,3,,,,,,,,,2,,,55,0
47580,note_on,60,0,3,,,,,,,,,2,,,62,0
47580,note_on,0,0,3,,,,,,,,,2,,,55,36
47640,note_on,60,0,3,,,,,,,,,2,,,55,0
47640,note_on,0,0,1,,,,,,,,,0,,,80,36
47640,note_on,0,0,3,,,,,,,,,2,,,65,36
47640,control_change,0,0,3,,,,,,,,,2,64,0,,
47640,control_change,0,0,1,,,,,,,,,0,64,0,,
47640,note_on,120,0,1,,,,,,,,,0,,,77,0
47700,note_on,60,0,3,,,,,,,,,2,,,65,0
47760,control_change,60,0,3,,,,,,,,,2,64,127,,
47760,note_on,0,0,1,,,,,,,,,0,,,79,36
47760,note_on,0,0,3,,,,,,,,,2,,,48,36
47760,note_on,0,0,2,,,,,,,,,1,,,67,36
47760,note_on,720,0,2,,,,,,,,,1,,,67,0
47760,note_on,120,0,1,,,,,,,,,0,,,80,0
47820,note_on,60,0,3,,,,,,,,,2,,,48,0
47820,note_on,0,0,3,,,,,,,,,2,,,55,36
47880,note_on,60,0,3,,,,,,,,,2,,,55,0
47880,note_on,0,0,3,,,,,,,,,2,,,64,36
47940,note_on,60,0,3,,,,,,,,,2,,,64,0
47940,note_on,0,0,3,,,,,,,,,2,,,55,36
48000,note_on,0,0,3,,,,,,,,,2,,,60,36
48000,control_change,0,0,3,,,,,,,,,2,64,0,,
48000,note_on,240,0,1,,,,,,,,,0,,,79,0
48000,note_on,0,0,1,,,,,,,,,0,,,76,36
48000,note_on,60,0,3,,,,,,,,,2,,,55,0
48060,note_on,60,0,3,,,,,,,,,2,,,60,0
48120,note_on,0,0,2,,,,,,,,,1,,,67,36
48120,note_on,360,0,2,,,,,,,,,1,,,67,0
48120,note_on,0,0,3,,,,,,,,,2,,,47,36
48120,note_on,120,0,1,,,,,,,,,0,,,76,0
48120,note_on,0,0,1,,,,,,,,,0,,,79,36
48120,control_change,60,0,3,,,,,,,,,2,64,127,,
48180,note_on,60,0,3,,,,,,,,,2,,,47,0
48180,note_on,0,0,3,,,,,,,,,2,,,55,36
48240,note_on,60,0,3,,,,,,,,,2,,,55,0
48240,note_on,0,0,3,,,,,,,,,2,,,65,36
48300,note_on,60,0,3,,,,,,,,,2,,,65,0
48300,note_on,0,0,3,,,,,,,,,2,,,55,36
48360,note_on,240,0,1,,,,,,,,,0,,,79,0
48360,note_on,0,0,1,,,,,,,,,0,,,77,36
48360,note_on,0,0,3,,,,,,,,,2,,,62,36
48360,note_on,60,0,3,,,,,,,,,2,,,55,0
48360,control_change,0,0,3,,,,,,,,,2,64,0,,
48420,note_on,60,0,3,,,,,,,,,2,,,62,0
48480,control_change,60,0,3,,,,,,,,,2,64,127,,
48480,note_on,0,0,3,,,,,,,,,2,,,48,36
48480,note_on,0,0,2,,,,,,,,,1,,,67,36
48480,note_on,360,0,2,,,,,,,,,1,,,67,0
48480,note_on,120,0,1,,,,,,,,,0,,,77,0
48480,control_change,0,0,1,,,,,,,,,0,64,127,,
48480,note_on,0,0,1,,,,,,,,,0,,,76,36
48540,note_on,60,0,3,,,,,,,,,2,,,48,0
48540,note_on,0,0,3,,,,,,,,,2,,,55,36
48600,note_on,60,0,3,,,,,,,,,2,,,55,0
48600,note_on,0,0,3,,,,,,,,,2,,,60,36
48660,note_on,0,0,3,,,,,,,,,2,,,55,36
48660,note_on,60,0,3,,,,,,,,,2,,,60,0
48720,control_change,0,0,3,,,,,,,,,2,64,0,,
48720,note_on,60,0,3,,,,,,,,,2,,,55,0
48720,note_on,0,0,3,,,,,,,,,2,,,64,36
48780,note_on,60,0,3,,,,,,,,,2,,,64,0
48780,note_on,300,0,1,,,,,,,,,0,,,76,0
48780,note_on,0,0,1,,,,,,,,,0,,,77,36
48810,control_change,0,0,1,,,,,,,,,0,64,0,,
48810,note_on,0,0,1,,,,,,,,,0,,,76,36
48810,note_on,30,0,1,,,,,,,,,0,,,77,0
48840,control_change,0,0,1,,,,,,,,,0,64,127,,
48840,note_on,30,0,1,,,,,,,,,0,,,76,0
48840,control_change,60,0,3,,,,,,,,,2,64,127,,
48840,note_on,0,0,3,,,,,,,,,2,,,47,36
48840,note_on,0,0,1,,,,,,,,,0,,,74,36
48900,note_on,60,0,3,,,,,,,,,2,,,47,0
48900,note_on,0,0,3,,,,,,,,,2,,,55,36
48960,note_on,0,0,1,,,,,,,,,0,,,77,36
48960,note_on,120,0,1,,,,,,,,,0,,,74,0
48960,note_on,60,0,3,,,,,,,,,2,,,55,0
48960,note_on,0,0,3,,,,,,,,,2,,,62,36
49020,note_on,60,0,3,,,,,,,,,2,,,62,0
49020,note_on,0,0,3,,,,,,,,,2,,,55,36
49080,note_on,60,0,3,,,,,,,,,2,,,55,0
49080,control_change,0,0,3,,,,,,,,,2,64,0,,
49080,note_on,120,0,1,,,,,,,,,0,,,77,0
49080,control_change,0,0,1,,,,,,,,,0,64,0,,
49080,note_on,0,0,3,,,,,,,,,2,,,65,36
49080,note_on,0,0,1,,,,,,,,,0,,,80,36
49140,note_on,60,0,3,,,,,,,,,2,,,65,0
49200,note_on,0,0,3,,,,,,,,,2,,,48,36
49200,note_on,120,0,1,,,,,,,,,0,,,80,0
49200,note_on,0,0,1,,,,,,,,,0,,,79,36
49200,note_on,0,0,2,,,,,,,,,1,,,67,36
49200,note_on,720,0,2,,,,,,,,,1,,,67,0
49200,control_change,60,0,3,,,,,,,,,2,64,127,,
49260,note_on,0,0,3,,,,,,,,,2,,,55,36
49260,note_on,60,0,3,,,,,,,,,2,,,48,0
49320,note_on,0,0,3,,,,,,,,,2,,,64,36
49320,note_on,60,0,3,,,,,,,,,2,,,55,0
49380,note_on,60,0,3,,,,,,,,,2,,,64,0
49380,note_on,0,0,3,,,,,,,,,2,,,55,36
49440,note_on,240,0,1,,,,,,,,,0,,,79,0
49440,note_on,0,0,1,,,,,,,,,0,,,76,36
49440,note_on,0,0,3,,,,,,,,,2,,,60,36
49440,control_change,0,0,3,,,,,,,,,2,64,0,,
49440,note_on,60,0,3,,,,,,,,,2,,,55,0
49500,note_on,60,0,3,,,,,,,,,2,,,60,0
49560,note_on,0,0,3,,,,,,,,,2,,,47,36
49560,control_change,60,0,3,,,,,,,,,2,64,127,,
49560,note_on,120,0,1,,,,,,,,,0,,,76,0
49560,note_on,0,0,1,,,,,,,,,0,,,79,36
49560,note_on,0,0,2,,,,,,,,,1,,,67,36
49560,note_on,360,0,2,,,,,,,,,1,,,67,0
49620,note_on,0,0,3,,,,,,,,,2,,,55,36
49620,note_on,60,0,3,,,,,,,,,2,,,47,0
49680,note_on,60,0,3,,,,,,,,,2,,,55,0
49680,note_on,0,0,3,,,,,,,,,2,,,65,36
49740,note_on,60,0,3,,,,,,,,,2,,,65,0
49740,note_on,0,0,3,,,,,,,,,2,,,55,36
49800,note_on,60,0,3,,,,,,,,,2,,,55,0
49800,control_change,0,0,3,,,,,,,,,2,64,0,,
49800,note_on,0,0,3,,,,,,,,,2,,,62,36
49800,note_on,240,0,1,,,,,,,,,0,,,79,0
49800,note_on,0,0,1,,,,,,,,,0,,,77,36
49860,note_on,60,0,3,,,,,,,,,2,,,62,0
49920,control_change,60,0,3,,,,,,,,,2,64,127,,
49920,note_on,0,0,3,,,,,,,,,2,,,47,36
49920,note_on,0,0,2,,,,,,,,,1,,,68,36
49920,note_on,360,0,2,,,,,,,,,1,,,67,0
49920,note_on,0,0,1,,,,,,,,,0,,,80,49
49920,note_on,120,0,1,,,,,,,,,0,,,77,0
49980,note_on,60,0,3,,,,,,,,,2,,,47,0
49980,note_on,0,0,3,,,,,,,,,2,,,56,36
50040,note_on,0,0,3,,,,,,,,,2,,,65,36
50040,note_on,60,0,3,,,,,,,,,2,,,56,0
50100,note_on,60,0,3,,,,,,,,,2,,,65,0
50100,note_on,0,0,3,,,,,,,,,2,,,56,36
50160,note_on,240,0,1,,,,,,,,,0,,,80,0
50160,note_on,0,0,1,,,,,,,,,0,,,77,49
50160,note_on,60,0,3,,,,,,,,,2,,,56,0
50160,control_change,0,0,3,,,,,,,,,2,64,0,,
50160,note_on,0,0,3,,,,,,,,,2,,,62,36
50220,note_on,60,0,3,,,,,,,,,2,,,62,0
50280,control_change,60,0,3,,,,,,,,,2,64,127,,
50280,note_on,0,0,1,,,,,,,,,0,,,81,62
50280,note_on,0,0,3,,,,,,,,,2,,,48,49
50280,note_on,120,0,1,,,,,,,,,0,,,77,0
50280,note_on,0,0,2,,,,,,,,,1,,,69,49
50280,note_on,360,0,2,,,,,,,,,1,,,68,0
50340,note_on,60,0,3,,,,,,,,,2,,,48,0
50340,note_on,0,0,3,,,,,,,,,2,,,57,49
50400,note_on,0,0,3,,,,,,,,,2,,,65,49
50400,note_on,60,0,3,,,,,,,,,2,,,57,0
50460,note_on,0,0,3,,,,,,,,,2,,,57,49
50460,note_on,60,0,3,,,,,,,,,2,,,65,0
50520,note_on,240,0,1,,,,,,,,,0,,,81,0
50520,note_on,0,0,1,,,,,,,,,0,,,77,62
50520,control_change,0,0,3,,,,,,,,,2,64,0,,
50520,note_on,60,0,3,,,,,,,,,2,,,57,0
50520,note_on,0,0,3,,,,,,,,,2,,,60,49
50580,note_on,60,0,3,,,,,,,,,2,,,60,0
50640,control_change,0,0,1,,,,,,,,,0,64,127,,
50640,note_on,0,0,1,,,,,,,,,0,,,76,75
50640,note_on,360,0,2,,,,,,,,,1,,,69,0
50640,note_on,0,0,2,,,,,,,,,1,,,70,62
50640,note_on,0,0,3,,,,,,,,,2,,,48,62
50640,control_change,60,0,3,,,,,,,,,2,64,127,,
50640,note_on,120,0,1,,,,,,,,,0,,,77,0
50700,note_on,0,0,3,,,,,,,,,2,,,60,62
50700,note_on,60,0,3,,,,,,,,,2,,,48,0
50760,note_on,120,0,1,,,,,,,,,0,,,76,0
50760,note_on,0,0,1,,,,,,,,,0,,,85,75
50760,note_on,0,0,3,,,,,,,,,2,,,67,62
50760,note_on,60,0,3,,,,,,,,,2,,,60,0
50820,note_on,0,0,3,,,,,,,,,2,,,60,62
50820,note_on,60,0,3,,,,,,,,,2,,,67,0
50880,note_on,0,0,3,,,,,,,,,2,,,64,62
50880,control_change,0,0,3,,,,,,,,,2,64,0,,
50880,note_on,60,0,3,,,,,,,,,2,,,60,0
50880,note_on,0,0,1,,,,,,,,,0,,,84,75
50880,note_on,120,0,1,,,,,,,,,0,,,85,0
50880,control_change,0,0,1,,,,,,,,,0,64,127,,
50940,note_on,60,0,3,,,,,,,,,2,,,64,0
51000,note_on,360,0,2,,,,,,,,,1,,,70,0
51000,note_on,0,0,2,,,,,,,,,1,,,72,62
51000,note_on,120,0,1,,,,,,,,,0,,,84,0
51000,note_on,0,0,1,,,,,,,,,0,,,82,75
51000,control_change,60,0,3,,,,,,,,,2,64,127,,
51000,note_on,0,0,3,,,,,,,,,2,,,53,62
51060,note_on,60,0,3,,,,,,,,,2,,,53,0
51060,note_on,0,0,3,,,,,,,,,2,,,60,62
51120,note_on,60,0,3,,,,,,,,,2,,,60,0
51120,note_on,0,0,3,,,,,,,,,2,,,65,62
51180,note_on,0,0,3,,,,,,,,,2,,,60,62
51180,note_on,60,0,3,,,,,,,,,2,,,65,0
51240,note_on,0,0,3,,,,,,,,,2,,,69,62
51240,control_change,0,0,3,,,,,,,,,2,64,0,,
51240,note_on,60,0,3,,,,,,,,,2,,,60,0
51240,note_on,240,0,1,,,,,,,,,0,,,82,0
51240,note_on,0,0,1,,,,,,,,,0,,,81,75
51300,note_on,60,0,3,,,,,,,,,2,,,69,0
51360,note_on,0,0,1,,,,,,,,,0,,,76,75
51360,note_on,0,0,3,,,,,,,,,2,,,45,62
51360,control_change,60,0,3,,,,,,,,,2,64,127,,
51360,note_on,0,0,2,,,,,,,,,1,,,67,62
51360,note_on,360,0,2,,,,,,,,,1,,,72,0
51360,note_on,120,0,1,,,,,,,,,0,,,81,0
51360,control_change,0,0,1,,,,,,,,,0,64,127,,
51420,note_on,60,0,3,,,,,,,,,2,,,45,0
51420,note_on,0,0,3,,,,,,,,,2,,,57,62
51480,note_on,0,0,3,,,,,,,,,2,,,61,62
51480,note_on,60,0,3,,,,,,,,,2,,,57,0
51480,note_on,0,0,1,,,,,,,,,0,,,82,75
51480,note_on,120,0,1,,,,,,,,,0,,,76,0
51540,note_on,0,0,3,,,,,,,,,2,,,57,62
51540,note_on,60,0,3,,,,,,,,,2,,,61,0
51600,control_change,0,0,3,,,,,,,,,2,64,0,,
51600,note_on,0,0,3,,,,,,,,,2,,,64,62
51600,note_on,0,0,1,,,,,,,,,0,,,81,75
51600,control_change,0,0,1,,,,,,,,,0,64,0,,
51600,note_on,60,0,3,,,,,,,,,2,,,57,0
51600,note_on,120,0,1,,,,,,,,,0,,,82,0
51660,note_on,60,0,3,,,,,,,,,2,,,64,0
51720,note_on,0,0,3,,,,,,,,,2,,,50,49
51720,control_change,60,0,3,,,,,,,,,2,64,127,,
51720,note_on,120,0,1,,,,,,,,,0,,,81,0
51720,note_on,0,0,1,,,,,,,,,0,,,79,62
51720,note_on,360,0,2,,,,,,,,,1,,,67,0
51720,note_on,0,0,2,,,,,,,,,1,,,69,49
51780,note_on,0,0,3,,,,,,,,,2,,,57,49
51780,note_on,60,0,3,,,,,,,,,2,,,50,0
51840,note_on,60,0,3,,,,,,,,,2,,,57,0
51840,note_on,0,0,3,,,,,,,,,2,,,62,49
51900,note_on,0,0,3,,,,,,,,,2,,,57,49
51900,note_on,60,0,3,,,,,,,,,2,,,62,0
51960,note_on,0,0,3,,,,,,,,,2,,,65,49
51960,note_on,0,0,1,,,,,,,,,0,,,77,62
51960,note_on,240,0,1,,,,,,,,,0,,,79,0
51960,control_change,0,0,3,,,,,,,,,2,64,0,,
51960,note_on,60,0,3,,,,,,,,,2,,,57,0
52020,note_on,60,0,3,,,,,,,,,2,,,65,0
52080,note_on,0,0,3,,,,,,,,,2,,,47,36
52080,note_on,0,0,2,,,,,,,,,1,,,67,36
52080,control_change,60,0,3,,,,,,,,,2,64,127,,
52080,note_on,120,0,1,,,,,,,,,0,,,77,0
52080,note_on,0,0,1,,,,,,,,,0,,,79,49
52080,note_on,360,0,2,,,,,,,,,1,,,69,0
52140,note_on,60,0,3,,,,,,,,,2,,,47,0
52140,note_on,0,0,3,,,,,,,,,2,,,55,36
52200,note_on,0,0,3,,,,,,,,,2,,,65,36
52200,note_on,60,0,3,,,,,,,,,2,,,55,0
52260,note_on,60,0,3,,,,,,,,,2,,,65,0
52260,note_on,0,0,3,,,,,,,,,2,,,55,36
52320,note_on,240,0,1,,,,,,,,,0,,,79,0
52320,note_on,60,0,3,,,,,,,,,2,,,55,0
52320,control_change,0,0,3,,,,,,,,,2,64,0,,
52320,note_on,0,0,3,,,,,,,,,2,,,62,36
52320,note_on,0,0,1,,,,,,,,,0,,,77,49
52380,note_on,60,0,3,,,,,,,,,2,,,62,0
52440,note_on,0,0,2,,,,,,,,,1,,,67,36
52440,control_change,60,0,3,,,,,,,,,2,64,127,,
52440,note_on,0,0,3,,,,,,,,,2,,,48,36
52440,note_on,360,0,2,,,,,,,,,1,,,67,0
52440,note_on,0,0,1,,,,,,,,,0,,,79,49
52440,note_on,120,0,1,,,,,,,,,0,,,77,0
52500,note_on,60,0,3,,,,,,,,,2,,,48,0
52500,note_on,0,0,3,,,,,,,,,2,,,55,36
52560,note_on,60,0,3,,,,,,,,,2,,,55,0
52560,note_on,0,0,3,,,,,,,,,2,,,64,36
52620,note_on,0,0,3,,,,,,,,,2,,,55,36
52620,note_on,60,0,3,,,,,,,,,2,,,64,0
52680,control_change,0,0,3,,,,,,,,,2,64,0,,
52680,note_on,60,0,3,,,,,,,,,2,,,55,0
52680,note_on,240,0,1,,,,,,,,,0,,,79,0
52680,note_on,0,0,1,,,,,,,,,0,,,76,49
52680,note_on,0,0,3,,,,,,,,,2,,,60,36
52740,note_on,60,0,3,,,,,,,,,2,,,60,0
52800,note_on,0,0,1,,,,,,,,,0,,,80,75
52800,note_on,120,0,1,,,,,,,,,0,,,76,0
52800,control_change,0,0,1,,,,,,,,,0,64,127,,
52800,note_on,0,0,2,,,,,,,,,1,,,65,36
52800,note_on,360,0,2,,,,,,,,,1,,,67,0
52800,control_change,60,0,3,,,,,,,,,2,64,127,,
52800,note_on,0,0,3,,,,,,,,,2,,,43,36
52860,note_on,60,0,3,,,,,,,,,2,,,43,0
52860,note_on,0,0,3,,,,,,,,,2,,,55,36
52920,note_on,60,0,3,,,,,,,,,2,,,55,0
52920,note_on,0,0,3,,,,,,,,,2,,,62,36
52920,note_on,0,0,1,,,,,,,,,0,,,79,49
52920,note_on,120,0,1,,,,,,,,,0,,,80,0
52980,note_on,0,0,3,,,,,,,,,2,,,55,36
52980,note_on,60,0,3,,,,,,,,,2,,,62,0
52980,note_on,0,0,1,,,,,,,,,0,,,77,49
52980,note_on,60,0,1,,,,,,,,,0,,,79,0
53040,note_on,0,0,1,,,,,,,,,0,,,76,49
53040,note_on,60,0,1,,,,,,,,,0,,,77,0
53040,note_on,0,0,3,,,,,,,,,2,,,59,36
53040,control_change,0,0,3,,,,,,,,,2,64,0,,
53040,note_on,60,0,3,,,,,,,,,2,,,55,0
53100,note_on,0,0,1,,,,,,,,,0,,,74,49
53100,note_on,60,0,1,,,,,,,,,0,,,76,0
53100,control_change,0,0,1,,,,,,,,,0,64,0,,
53100,note_on,60,0,3,,,,,,,,,2,,,59,0
53160,note_on,0,0,2,,,,,,,,,1,,,64,36
53160,note_on,360,0,2,,,,,,,,,1,,,65,0
53160,note_on,60,0,1,,,,,,,,,0,,,74,0
53160,note_on,60,0,3,,,,,,,,,2,,,48,36
53160,note_on,0,0,1,,,,,,,,,0,,,72,36
53220,note_on,60,0,3,,,,,,,,,2,,,48,0
53220,note_on,0,0,3,,,,,,,,,2,,,55,36
53280,note_on,60,0,3,,,,,,,,,2,,,55,0
53280,note_on,0,0,3,,,,,,,,,2,,,64,36
53340,note_on,180,0,1,,,,,,,,,0,,,72,0
53340,note_on,0,0,1,,,,,,,,,0,,,74,36
53340,note_on,60,0,3,,,,,,,,,2,,,64,0
53340,note_on,0,0,3,,,,,,,,,2,,,55,36
53400,note_on,60,0,3,,,,,,,,,2,,,55,0
53400,note_on,0,0,3,,,,,,,,,2,,,60,36
53400,note_on,0,0,1,,,,,,,,,0,,,76,36
53400,note_on,60,0,1,,,,,,,,,0,,,74,0
53460,note_on,0,0,1,,,,,,,,,0,,,77,36
53460,note_on,60,0,1,,,,,,,,,0,,,76,0
53460,note_on,60,0,3,,,,,,,,,2,,,60,0
53520,note_on,0,0,3,,,,,,,,,2,,,48,62
53520,control_change,0,0,1,,,,,,,,,0,64,127,,
53520,note_on,60,0,1,,,,,,,,,0,,,77,0
53520,note_on,0,0,1,,,,,,,,,0,,,76,75
53520,note_on,0,0,2,,,,,,,,,1,,,70,62
53520,note_on,360,0,2,,,,,,,,,1,,,64,0
53520,control_change,60,0,3,,,,,,,,,2,64,127,,
53580,note_on,60,0,3,,,,,,,,,2,,,48,0
53580,note_on,0,0,3,,,,,,,,,2,,,60,62
53640,note_on,0,0,1,,,,,,,,,0,,,85,75
53640,note_on,120,0,1,,,,,,,,,0,,,76,0
53640,note_on,60,0,3,,,,,,,,,2,,,60,0
53640,note_on,0,0,3,,,,,,,,,2,,,67,62
53700,note_on,60,0,3,,,,,,,,,2,,,67,0
53700,note_on,0,0,3,,,,,,,,,2,,,60,62
53760,control_change,0,0,3,,,,,,,,,2,64,0,,
53760,note_on,0,0,1,,,,,,,,,0,,,84,75
53760,control_change,0,0,1,,,,,,,,,0,64,127,,
53760,note_on,120,0,1,,,,,,,,,0,,,85,0
53760,note_on,60,0,3,,,,,,,,,2,,,60,0
53760,note_on,0,0,3,,,,,,,,,2,,,64,62
53820,note_on,60,0,3,,,,,,,,,2,,,64,0
53880,note_on,0,0,3,,,,,,,,,2,,,53,62
53880,control_change,60,0,3,,,,,,,,,2,64,127,,
53880,note_on,120,0,1,,,,,,,,,0,,,84,0
53880,note_on,0,0,2,,,,,,,,,1,,,72,62
53880,note_on,360,0,2,,,,,,,,,1,,,70,0
53880,note_on,0,0,1,,,,,,,,,0,,,82,75
53940,note_on,60,0,3,,,,,,,,,2,,,53,0
53940,note_on,0,0,3,,,,,,,,,2,,,60,62
54000,note_on,60,0,3,,,,,,,,,2,,,60,0
54000,note_on,0,0,3,,,,,,,,,2,,,65,62
54060,note_on,0,0,3,,,,,,,,,2,,,60,62
54060,note_on,60,0,3,,,,,,,,,2,,,65,0
54120,control_change,0,0,3,,,,,,,,,2,64,0,,
54120,note_on,0,0,1,,,,,,,,,0,,,81,75
54120,note_on,240,0,1,,,,,,,,,0,,,82,0
54120,note_on,0,0,3,,,,,,,,,2,,,69,62
54120,note_on,60,0,3,,,,,,,,,2,,,60,0
54180,note_on,60,0,3,,,,,,,,,2,,,69,0
54240,control_change,60,0,3,,,,,,,,,2,64,127,,
54240,note_on,0,0,3,,,,,,,,,2,,,45,62
54240,note_on,0,0,1,,,,,,,,,0,,,76,75
54240,control_change,0,0,1,,,,,,,,,0,64,127,,
54240,note_on,120,0,1,,,,,,,,,0,,,81,0
54240,note_on,0,0,2,,,,,,,,,1,,,67,62
54240,note_on,360,0,2,,,,,,,,,1,,,72,0
54300,note_on,60,0,3,,,,,,,,,2,,,45,0
54300,note_on,0,0,3,,,,,,,,,2,,,57,62
54360,note_on,120,0,1,,,,,,,,,0,,,76,0
54360,note_on,0,0,1,,,,,,,,,0,,,82,75
54360,note_on,60,0,3,,,,,,,,,2,,,57,0
54360,note_on,0,0,3,,,,,,,,,2,,,61,62
54420,note_on,0,0,3,,,,,,,,,2,,,57,62
54420,note_on,60,0,3,,,,,,,,,2,,,61,0
54480,note_on,0,0,3,,,,,,,,,2,,,64,62
54480,control_change,0,0,3,,,,,,,,,2,64,0,,
54480,note_on,60,0,3,,,,,,,,,2,,,57,0
54480,note_on,120,0,1,,,,,,,,,0,,,82,0
54480,control_change,0,0,1,,,,,,,,,0,64,0,,
54480,note_on,0,0,1,,,,,,,,,0,,,81,75
54540,note_on,60,0,3,,,,,,,,,2,,,64,0
54600,note_on,360,0,2,,,,,,,,,1,,,67,0
54600,note_on,0,0,3,,,,,,,,,2,,,50,49
54600,control_change,60,0,3,,,,,,,,,2,64,127,,
54600,note_on,120,0,1,,,,,,,,,0,,,81,0
54600,note_on,0,0,2,,,,,,,,,1,,,69,49
54600,note_on,0,0,1,,,,,,,,,0,,,79,62
54660,note_on,60,0,3,,,,,,,,,2,,,50,0
54660,note_on,0,0,3,,,,,,,,,2,,,57,49
54720,note_on,0,0,3,,,,,,,,,2,,,62,49
54720,note_on,60,0,3,,,,,,,,,2,,,57,0
54780,note_on,60,0,3,,,,,,,,,2,,,62,0
54780,note_on,0,0,3,,,,,,,,,2,,,57,49
54840,control_change,0,0,3,,,,,,,,,2,64,0,,
54840,note_on,0,0,3,,,,,,,,,2,,,65,49
54840,note_on,240,0,1,,,,,,,,,0,,,79,0
54840,note_on,0,0,1,,,,,,,,,0,,,77,62
54840,note_on,60,0,3,,,,,,,,,2,,,57,0
54900,note_on,60,0,3,,,,,,,,,2,,,65,0
54960,note_on,120,0,1,,,,,,,,,0,,,77,0
54960,note_on,0,0,1,,,,,,,,,0,,,79,49
54960,note_on,0,0,2,,,,,,,,,1,,,67,36
54960,note_on,360,0,2,,,,,,,,,1,,,69,0
54960,control_change,60,0,3,,,,,,,,,2,64,127,,
54960,note_on,0,0,3,,,,,,,,,2,,,47,36
55020,note_on,60,0,3,,,,,,,,,2,,,47,0
55020,note_on,0,0,3,,,,,,,,,2,,,55,36
55080,note_on,60,0,3,,,,,,,,,2,,,55,0
55080,note_on,0,0,3,,,,,,,,,2,,,65,36
55140,note_on,60,0,3,,,,,,,,,2,,,65,0
55140,note_on,0,0,3,,,,,,,,,2,,,55,36
55200,note_on,240,0,1,,,,,,,,,0,,,79,0
55200,note_on,0,0,1,,,,,,,,,0,,,77,49
55200,note_on,60,0,3,,,,,,,,,2,,,55,0
55200,control_change,0,0,3,,,,,,,,,2,64,0,,
55200,note_on,0,0,3,,,,,,,,,2,,,62,36
55260,note_on,60,0,3,,,,,,,,,2,,,62,0
55320,control_change,60,0,3,,,,,,,,,2,64,127,,
55320,note_on,120,0,1,,,,,,,,,0,,,77,0
55320,note_on,0,0,1,,,,,,,,,0,,,79,49
55320,note_on,0,0,3,,,,,,,,,2,,,48,36
55320,note_on,360,0,2,,,,,,,,,1,,,67,0
55320,note_on,0,0,2,,,,,,,,,1,,,67,36
55380,note_on,0,0,3,,,,,,,,,2,,,55,36
55380,note_on,60,0,3,,,,,,,,,2,,,48,0
55440,note_on,0,0,3,,,,,,,,,2,,,64,36
55440,note_on,60,0,3,,,,,,,,,2,,,55,0
55500,note_on,0,0,3,,,,,,,,,2,,,55,36
55500,note_on,60,0,3,,,,,,,,,2,,,64,0
55560,note_on,0,0,3,,,,,,,,,2,,,60,36
55560,control_change,0,0,3,,,,,,,,,2,64,0,,
55560,note_on,60,0,3,,,,,,,,,2,,,55,0
55560,note_on,240,0,1,,,,,,,,,0,,,79,0
55560,note_on,0,0,1,,,,,,,,,0,,,76,49
55620,note_on,60,0,3,,,,,,,,,2,,,60,0
55680,control_change,60,0,3,,,,,,,,,2,64,127,,
55680,note_on,0,0,3,,,,,,,,,2,,,43,36
55680,note_on,120,0,1,,,,,,,,,0,,,76,0
55680,note_on,0,0,1,,,,,,,,,0,,,80,75
55680,note_on,0,0,2,,,,,,,,,1,,,65,36
55680,note_on,360,0,2,,,,,,,,,1,,,67,0
55680,control_change,0,0,1,,,,,,,,,0,64,127,,
55740,note_on,60,0,3,,,,,,,,,2,,,43,0
55740,note_on,0,0,3,,,,,,,,,2,,,55,36
55800,note_on,120,0,1,,,,,,,,,0,,,80,0
55800,note_on,0,0,1,,,,,,,,,0,,,79,49
55800,note_on,60,0,3,,,,,,,,,2,,,55,0
55800,note_on,0,0,3,,,,,,,,,2,,,62,36
55860,note_on,60,0,3,,,,,,,,,2,,,62,0
55860,note_on,0,0,3,,,,,,,,,2,,,55,36
55860,note_on,0,0,1,,,,,,,,,0,,,77,49
55860,note_on,60,0,1,,,,,,,,,0,,,79,0
55920,note_on,60,0,1,,,,,,,,,0,,,77,0
55920,note_on,0,0,1,,,,,,,,,0,,,76,49
55920,note_on,60,0,3,,,,,,,,,2,,,55,0
55920,note_on,0,0,3,,,,,,,,,2,,,59,36
55920,control_change,0,0,3,,,,,,,,,2,64,0,,
55980,note_on,60,0,3,,,,,,,,,2,,,59,0
55980,note_on,0,0,1,,,,,,,,,0,,,74,49
55980,note_on,60,0,1,,,,,,,,,0,,,76,0
55980,control_change,0,0,1,,,,,,,,,0,64,0,,
56040,note_on,0,0,1,,,,,,,,,0,,,72,49
56040,note_on,60,0,1,,,,,,,,,0,,,74,0
56040,note_on,360,0,2,,,,,,,,,1,,,65,0
56040,note_on,0,0,2,,,,,,,,,1,,,64,36
56040,control_change,60,0,3,,,,,,,,,2,64,127,,
56040,note_on,0,0,3,,,,,,,,,2,,,48,36
56100,note_on,0,0,3,,,,,,,,,2,,,55,36
56100,note_on,60,0,3,,,,,,,,,2,,,48,0
56160,note_on,120,0,1,,,,,,,,,0,,,72,0
56160,note_on,60,0,3,,,,,,,,,2,,,55,0
56160,note_on,120,0,2,,,,,,,,,1,,,64,0
56160,note_on,0,0,3,,,,,,,,,2,,,60,36
56220,note_on,60,0,3,,,,,,,,,2,,,60,0
56220,note_on,0,0,3,,,,,,,,,2,,,55,36
56280,control_change,0,0,3,,,,,,,,,2,64,0,,
56280,note_on,60,0,3,,,,,,,,,2,,,55,0
56280,note_on,0,0,3,,,,,,,,,2,,,64,36
56340,note_on,60,0,3,,,,,,,,,2,,,64,0
56400,control_change,60,0,3,,,,,,,,,2,64,127,,
56400,note_on,240,0,1,,,,,,,,,0,,,67,36
56400,note_on,0,0,1,,,,,,,,,0,,,76,36
56400,note_on,0,0,3,,,,,,,,,2,,,48,36
56460,note_on,0,0,3,,,,,,,,,2,,,55,36
56460,note_on,60,0,3,,,,,,,,,2,,,48,0
56520,note_on,60,0,3,,,,,,,,,2,,,55,0
56520,note_on,0,0,3,,,,,,,,,2,,,60,36
56580,note_on,60,0,3,,,,,,,,,2,,,60,0
56580,note_on,0,0,3,,,,,,,,,2,,,55,36
56640,note_on,60,0,3,,,,,,,,,2,,,55,0
56640,control_change,0,0,3,,,,,,,,,2,64,0,,
56640,note_on,0,0,3,,,,,,,,,2,,,64,36
56700,note_on,60,0,3,,,,,,,,,2,,,64,0
56760,control_change,60,0,3,,,,,,,,,2,64,127,,
56760,note_on,0,0,1,,,,,,,,,0,,,76,36
56760,note_on,0,0,1,,,,,,,,,0,,,71,36
56760,note_on,0,0,1,,,,,,,,,0,,,67,0
56760,note_on,0,0,1,,,,,,,,,0,,,67,36
56760,note_on,0,0,3,,,,,,,,,2,,,47,36
56760,note_on,360,0,1,,,,,,,,,0,,,76,0
56820,set_tempo,9780,1,0,,,,,,333333,,,,,,,
56820,note_on,60,0,3,,,,,,,,,2,,,47,0
56820,note_on,0,0,3,,,,,,,,,2,,,55,36
56880,note_on,60,0,3,,,,,,,,,2,,,55,0
56880,set_tempo,60,1,0,,,,,,348837,,,,,,,
56880,note_on,0,0,3,,,,,,,,,2,,,59,36
56940,note_on,60,0,3,,,,,,,,,2,,,59,0
56940,note_on,0,0,3,,,,,,,,,2,,,55,36
56940,set_tempo,60,1,0,,,,,,365854,,,,,,,
57000,note_on,60,0,3,,,,,,,,,2,,,55,0
57000,control_change,0,0,3,,,,,,,,,2,64,0,,
57000,set_tempo,60,1,0,,,,,,384615,,,,,,,
57000,note_on,0,0,3,,,,,,,,,2,,,64,36
57060,set_tempo,60,1,0,,,,,,405405,,,,,,,
57060,note_on,60,0,3,,,,,,,,,2,,,64,0
57120,note_on,0,0,1,,,,,,,,,0,,,67,0
57120,set_tempo,60,1,0,,,,,,428571,,,,,,,
57120,note_on,0,0,1,,,,,,,,,0,,,71,36
57120,note_on,0,0,1,,,,,,,,,0,,,75,36
57120,note_on,360,0,1,,,,,,,,,0,,,76,0
57120,control_change,60,0,3,,,,,,,,,2,64,127,,
57120,note_on,0,0,3,,,,,,,,,2,,,47,36
57120,note_on,0,0,1,,,,,,,,,0,,,66,36
57120,note_on,0,0,1,,,,,,,,,0,,,71,0
57180,note_on,60,0,3,,,,,,,,,2,,,47,0
57180,note_on,0,0,3,,,,,,,,,2,,,54,36
57180,set_tempo,60,1,0,,,,,,454545,,,,,,,
57240,note_on,0,0,3,,,,,,,,,2,,,59,36
57240,note_on,60,0,3,,,,,,,,,2,,,54,0
57240,set_tempo,60,1,0,,,,,,483871,,,,,,,
57300,note_on,60,0,3,,,,,,,,,2,,,59,0
57300,note_on,0,0,3,,,,,,,,,2,,,54,36
57360,control_change,0,0,3,,,,,,,,,2,64,0,,
57360,note_on,60,0,3,,,,,,,,,2,,,54,0
57360,note_on,0,0,3,,,,,,,,,2,,,63,36
57420,note_on,60,0,3,,,,,,,,,2,,,63,0
57480,note_on,0,0,1,,,,,,,,,0,,,65,101
57480,control_change,0,0,1,,,,,,,,,0,64,127,,
57480,note_on,360,0,1,,,,,,,,,0,,,75,0
57480,set_tempo,240,1,0,,,,,,319149,,,,,,,
57480,note_on,0,0,1,,,,,,,,,0,,,66,0
57480,note_on,0,0,1,,,,,,,,,0,,,71,0
57480,note_on,0,0,3,,,,,,,,,2,,,56,88
57480,control_change,60,0,3,,,,,,,,,2,64,127,,
57519,note_on,39,0,1,,,,,,,,,0,,,71,101
57519,note_on,39,0,3,,,,,,,,,2,,,65,88
57520,note_on,1,0,1,,,,,,,,,0,,,65,0
57520,note_on,1,0,3,,,,,,,,,2,,,56,0
57559,note_on,39,0,1,,,,,,,,,0,,,71,0
57559,note_on,39,0,3,,,,,,,,,2,,,65,0
57560,note_on,1,0,1,,,,,,,,,0,,,74,101
57560,note_on,1,0,3,,,,,,,,,2,,,62,88
57600,note_on,40,0,1,,,,,,,,,0,,,74,0
57600,note_on,0,0,1,,,,,,,,,0,,,77,88
57600,note_on,0,0,3,,,,,,,,,2,,,59,75
57600,note_on,40,0,3,,,,,,,,,2,,,62,0
57639,note_on,39,0,3,,,,,,,,,2,,,56,75
57639,note_on,39,0,1,,,,,,,,,0,,,83,88
57640,note_on,1,0,1,,,,,,,,,0,,,77,0
57640,note_on,1,0,3,,,,,,,,,2,,,59,0
57679,note_on,39,0,3,,,,,,,,,2,,,56,0
57679,note_on,39,0,1,,,,,,,,,0,,,83,0
57680,note_on,1,0,3,,,,,,,,,2,,,53,75
57680,note_on,1,0,1,,,,,,,,,0,,,86,88
57720,note_on,0,0,3,,,,,,,,,2,,,50,62
57720,note_on,40,0,3,,,,,,,,,2,,,53,0
57720,note_on,40,0,1,,,,,,,,,0,,,86,0
57720,note_on,0,0,1,,,,,,,,,0,,,89,75
57759,note_on,39,0,3,,,,,,,,,2,,,47,62
57759,note_on,39,0,1,,,,,,,,,0,,,95,75
57760,note_on,1,0,3,,,,,,,,,2,,,50,0
57760,note_on,1,0,1,,,,,,,,,0,,,89,0
57799,note_on,39,0,3,,,,,,,,,2,,,47,0
57799,note_on,39,0,1,,,,,,,,,0,,,95,0
57800,note_on,1,0,1,,,,,,,,,0,,,98,75
57800,note_on,1,0,3,,,,,,,,,2,,,45,62
57840,note_on,0,0,3,,,,,,,,,2,,,44,62
57840,note_on,40,0,3,,,,,,,,,2,,,45,0
57840,time_signature,360,1,0,4,4,24,8,,,,,,,,,
57840,note_on,0,0,1,,,,,,,,,0,,,101,75
57840,note_on,40,0,1,,,,,,,,,0,,,98,0
57960,control_change,0,0,1,,,,,,,,,0,64,0,,
57960,note_on,120,0,1,,,,,,,,,0,,,101,0
57960,note_on,120,0,3,,,,,,,,,2,,,44,0
57960,control_change,0,0,3,,,,,,,,,2,64,0,,
58320,time_signature,480,1,0,3,4,24,8,,,,,,,,,
58320,control_change,360,0,3,,,,,,,,,2,64,127,,
58320,note_on,0,0,3,,,,,,,,,2,,,46,36
58380,note_on,60,0,3,,,,,,,,,2,,,46,0
58380,note_on,0,0,3,,,,,,,,,2,,,53,36
58440,note_on,0,0,3,,,,,,,,,2,,,58,36
58440,note_on,60,0,3,,,,,,,,,2,,,53,0
58500,note_on,60,0,3,,,,,,,,,2,,,58,0
58500,note_on,0,0,3,,,,,,,,,2,,,53,36
58560,note_on,60,0,3,,,,,,,,,2,,,53,0
58560,control_change,0,0,3,,,,,,,,,2,64,0,,
58560,note_on,0,0,3,,,,,,,,,2,,,62,36
58620,note_on,60,0,3,,,,,,,,,2,,,62,0
58680,note_on,0,0,1,,,,,,,,,0,,,68,36
58680,note_on,0,0,3,,,,,,,,,2,,,46,36
58680,control_change,60,0,3,,,,,,,,,2,64,127,,
58680,note_on,720,0,1,,,,,,,,,0,,,65,36
58680,note_on,0,0,1,,,,,,,,,0,,,74,36
58740,note_on,60,0,3,,,,,,,,,2,,,46,0
58740,note_on,0,0,3,,,,,,,,,2,,,53,36
58800,note_on,60,0,3,,,,,,,,,2,,,53,0
58800,note_on,0,0,3,,,,,,,,,2,,,58,36
58860,note_on,60,0,3,,,,,,,,,2,,,58,0
58860,note_on,0,0,3,,,,,,,,,2,,,53,36
58920,note_on,0,0,3,,,,,,,,,2,,,62,36
58920,note_on,60,0,3,,,,,,,,,2,,,53,0
58920,control_change,0,0,3,,,,,,,,,2,64,0,,
58980,note_on,60,0,3,,,,,,,,,2,,,62,0
59040,note_on,0,0,1,,,,,,,,,0,,,68,0
59040,note_on,360,0,1,,,,,,,,,0,,,74,0
59040,note_on,0,0,1,,,,,,,,,0,,,74,36
59040,note_on,0,0,1,,,,,,,,,0,,,65,0
59040,note_on,0,0,1,,,,,,,,,0,,,65,36
59040,note_on,0,0,1,,,,,,,,,0,,,69,36
59040,note_on,0,0,3,,,,,,,,,2,,,45,36
59040,control_change,60,0,3,,,,,,,,,2,64,127,,
59100,note_on,60,0,3,,,,,,,,,2,,,45,0
59100,set_tempo,780,1,0,,,,,,333333,,,,,,,
59100,note_on,0,0,3,,,,,,,,,2,,,53,36
59160,note_on,0,0,3,,,,,,,,,2,,,57,36
59160,note_on,60,0,3,,,,,,,,,2,,,53,0
59160,set_tempo,60,1,0,,,,,,348837,,,,,,,
59220,note_on,60,0,3,,,,,,,,,2,,,57,0
59220,set_tempo,60,1,0,,,,,,365854,,,,,,,
59220,note_on,0,0,3,,,,,,,,,2,,,53,36
59280,note_on,0,0,3,,,,,,,,,2,,,62,36
59280,control_change,0,0,3,,,,,,,,,2,64,0,,
59280,note_on,60,0,3,,,,,,,,,2,,,53,0
59280,set_tempo,60,1,0,,,,,,384615,,,,,,,
59340,set_tempo,60,1,0,,,,,,405405,,,,,,,
59340,note_on,60,0,3,,,,,,,,,2,,,62,0
59400,note_on,0,0,1,,,,,,,,,0,,,69,0
59400,note_on,0,0,1,,,,,,,,,0,,,65,0
59400,note_on,0,0,1,,,,,,,,,0,,,64,36
59400,set_tempo,60,1,0,,,,,,428571,,,,,,,
59400,note_on,0,0,1,,,,,,,,,0,,,73,36
59400,note_on,0,0,3,,,,,,,,,2,,,45,36
59400,control_change,60,0,3,,,,,,,,,2,64,127,,
59400,note_on,0,0,1,,,,,,,,,0,,,69,36
59400,note_on,360,0,1,,,,,,,,,0,,,74,0
59460,set_tempo,60,1,0,,,,,,454545,,,,,,,
59460,note_on,0,0,3,,,,,,,,,2,,,52,36
59460,note_on,60,0,3,,,,,,,,,2,,,45,0
59520,set_tempo,60,1,0,,,,,,483871,,,,,,,
59520,note_on,0,0,3,,,,,,,,,2,,,57,36
59520,note_on,60,0,3,,,,,,,,,2,,,52,0
59580,note_on,0,0,3,,,,,,,,,2,,,52,36
59580,note_on,60,0,3,,,,,,,,,2,,,57,0
59640,note_on,60,0,3,,,,,,,,,2,,,52,0
59640,note_on,0,0,3,,,,,,,,,2,,,61,36
59640,control_change,0,0,3,,,,,,,,,2,64,0,,
59700,note_on,60,0,3,,,,,,,,,2,,,61,0
59760,control_change,60,0,3,,,,,,,,,2,64,127,,
59760,set_tempo,240,1,0,,,,,,319149,,,,,,,
59760,note_on,0,0,1,,,,,,,,,0,,,63,101
59760,note_on,0,0,1,,,,,,,,,0,,,64,0
59760,note_on,0,0,1,,,,,,,,,0,,,69,0
59760,note_on,360,0,1,,,,,,,,,0,,,73,0
59760,note_on,0,0,3,,,,,,,,,2,,,54,88
59760,control_change,0,0,1,,,,,,,,,0,64,127,,
59799,note_on,39,0,3,,,,,,,,,2,,,63,88
59799,note_on,39,0,1,,,,,,,,,0,,,69,101
59800,note_on,1,0,1,,,,,,,,,0,,,63,0
59800,note_on,1,0,3,,,,,,,,,2,,,54,0
59839,note_on,39,0,3,,,,,,,,,2,,,63,0
59839,note_on,39,0,1,,,,,,,,,0,,,69,0
59840,note_on,1,0,3,,,,,,,,,2,,,60,88
59840,note_on,1,0,1,,,,,,,,,0,,,72,101
59880,note_on,40,0,1,,,,,,,,,0,,,72,0
59880,note_on,0,0,1,,,,,,,,,0,,,75,88
59880,note_on,40,0,3,,,,,,,,,2,,,60,0
59880,note_on,0,0,3,,,,,,,,,2,,,57,75
59919,note_on,39,0,3,,,,,,,,,2,,,54,75
59919,note_on,39,0,1,,,,,,,,,0,,,81,88
59920,note_on,1,0,1,,,,,,,,,0,,,75,0
59920,note_on,1,0,3,,,,,,,,,2,,,57,0
59959,note_on,39,0,3,,,,,,,,,2,,,54,0
59959,note_on,39,0,1,,,,,,,,,0,,,81,0
59960,note_on,1,0,3,,,,,,,,,2,,,51,75
59960,note_on,1,0,1,,,,,,,,,0,,,84,88
60000,note_on,0,0,3,,,,,,,,,2,,,48,62
60000,note_on,40,0,3,,,,,,,,,2,,,51,0
60000,note_on,0,0,1,,,,,,,,,0,,,87,75
60000,note_on,40,0,1,,,,,,,,,0,,,84,0
60039,note_on,39,0,3,,,,,,,,,2,,,45,62
60039,note_on,39,0,1,,,,,,,,,0,,,93,75
60040,note_on,1,0,3,,,,,,,,,2,,,48,0
60040,note_on,1,0,1,,,,,,,,,0,,,87,0
60079,note_on,39,0,1,,,,,,,,,0,,,93,0
60079,note_on,39,0,3,,,,,,,,,2,,,45,0
60080,note_on,1,0,1,,,,,,,,,0,,,96,75
60080,note_on,1,0,3,,,,,,,,,2,,,43,62
60120,note_on,40,0,1,,,,,,,,,0,,,96,0
60120,note_on,0,0,1,,,,,,,,,0,,,99,75
60120,time_signature,360,1,0,4,4,24,8,,,,,,,,,
60120,note_on,40,0,3,,,,,,,,,2,,,43,0
60120,note_on,0,0,3,,,,,,,,,2,,,42,62
60180,note_on,60,0,1,,,,,,,,,0,,,99,0
60180,control_change,0,0,1,,,,,,,,,0,64,0,,
60180,control_change,0,0,3,,,,,,,,,2,64,0,,
60180,note_on,60,0,3,,,,,,,,,2,,,42,0
60600,time_signature,480,1,0,3,4,24,8,,,,,,,,,
60600,note_on,0,0,3,,,,,,,,,2,,,44,36
60600,control_change,420,0,3,,,,,,,,,2,64,127,,
60660,note_on,60,0,3,,,,,,,,,2,,,44,0
60660,note_on,0,0,3,,,,,,,,,2,,,51,36
60720,note_on,60,0,3,,,,,,,,,2,,,51,0
60720,note_on,0,0,3,,,,,,,,,2,,,56,36
60780,note_on,0,0,3,,,,,,,,,2,,,51,36
60780,note_on,60,0,3,,,,,,,,,2,,,56,0
60840,control_change,0,0,3,,,,,,,,,2,64,0,,
60840,note_on,60,0,3,,,,,,,,,2,,,51,0
60840,note_on,0,0,3,,,,,,,,,2,,,60,36
60900,note_on,60,0,3,,,,,,,,,2,,,60,0
60960,note_on,0,0,1,,,,,,,,,0,,,75,36
60960,note_on,0,0,1,,,,,,,,,0,,,68,36
60960,note_on,780,0,1,,,,,,,,,0,,,66,36
60960,control_change,60,0,3,,,,,,,,,2,64,127,,
60960,note_on,0,0,3,,,,,,,,,2,,,44,36
61020,note_on,60,0,3,,,,,,,,,2,,,44,0
61020,note_on,0,0,3,,,,,,,,,2,,,51,36
61080,note_on,60,0,3,,,,,,,,,2,,,51,0
61080,note_on,0,0,3,,,,,,,,,2,,,56,36
61140,note_on,0,0,3,,,,,,,,,2,,,51,36
61140,note_on,60,0,3,,,,,,,,,2,,,56,0
61200,note_on,60,0,3,,,,,,,,,2,,,51,0
61200,note_on,0,0,3,,,,,,,,,2,,,60,36
61200,control_change,0,0,3,,,,,,,,,2,64,0,,
61260,note_on,60,0,3,,,,,,,,,2,,,60,0
61320,note_on,0,0,3,,,,,,,,,2,,,44,36
61320,control_change,60,0,3,,,,,,,,,2,64,127,,
61320,note_on,360,0,1,,,,,,,,,0,,,75,0
61320,note_on,0,0,1,,,,,,,,,0,,,68,0
61320,note_on,0,0,1,,,,,,,,,0,,,66,0
61320,note_on,0,0,1,,,,,,,,,0,,,65,36
61320,note_on,0,0,1,,,,,,,,,0,,,68,36
61320,note_on,0,0,1,,,,,,,,,0,,,75,36
61380,note_on,0,0,3,,,,,,,,,2,,,53,36
61380,note_on,60,0,3,,,,,,,,,2,,,44,0
61440,note_on,60,0,3,,,,,,,,,2,,,53,0
61440,note_on,0,0,3,,,,,,,,,2,,,56,36
61500,note_on,60,0,3,,,,,,,,,2,,,56,0
61500,note_on,0,0,3,,,,,,,,,2,,,53,36
61560,note_on,0,0,3,,,,,,,,,2,,,61,36
61560,control_change,0,0,3,,,,,,,,,2,64,0,,
61560,note_on,60,0,3,,,,,,,,,2,,,53,0
61620,note_on,60,0,3,,,,,,,,,2,,,61,0
61680,control_change,60,0,3,,,,,,,,,2,64,127,,
61680,note_on,0,0,3,,,,,,,,,2,,,44,36
61680,note_on,0,0,2,,,,,,,,,1,,,73,36
61680,control_change,5520,0,2,,,,,,,,,1,64,127,,
61680,note_on,360,0,1,,,,,,,,,0,,,75,0
61740,note_on,60,0,3,,,,,,,,,2,,,44,0
61740,note_on,0,0,3,,,,,,,,,2,,,53,36
61800,note_on,120,0,2,,,,,,,,,1,,,73,0
61800,note_on,60,0,3,,,,,,,,,2,,,53,0
61800,note_on,0,0,3,,,,,,,,,2,,,56,36
61800,note_on,0,0,2,,,,,,,,,1,,,77,36
61860,note_on,60,0,3,,,,,,,,,2,,,56,0
61860,note_on,0,0,3,,,,,,,,,2,,,53,36
61920,note_on,120,0,2,,,,,,,,,1,,,77,0
61920,control_change,0,0,2,,,,,,,,,1,64,0,,
61920,control_change,0,0,3,,,,,,,,,2,64,0,,
61920,note_on,60,0,3,,,,,,,,,2,,,53,0
61920,note_on,0,0,2,,,,,,,,,1,,,78,36
61920,note_on,0,0,3,,,,,,,,,2,,,61,36
61980,note_on,60,0,3,,,,,,,,,2,,,61,0
62040,note_on,120,0,2,,,,,,,,,1,,,78,0
62040,note_on,0,0,1,,,,,,,,,0,,,80,36
62040,note_on,0,0,3,,,,,,,,,2,,,32,36
62040,control_change,60,0,3,,,,,,,,,2,64,127,,
62040,note_on,0,0,1,,,,,,,,,0,,,73,36
62040,note_on,360,0,1,,,,,,,,,0,,,68,0
62040,note_on,0,0,1,,,,,,,,,0,,,65,0
62040,note_on,0,0,1,,,,,,,,,0,,,63,36
62100,set_tempo,1500,1,0,,,,,,333333,,,,,,,
62100,note_on,0,0,3,,,,,,,,,2,,,44,36
62100,note_on,60,0,3,,,,,,,,,2,,,32,0
62160,set_tempo,60,1,0,,,,,,348837,,,,,,,
62160,note_on,0,0,3,,,,,,,,,2,,,51,36
62160,note_on,60,0,3,,,,,,,,,2,,,44,0
62220,set_tempo,60,1,0,,,,,,365854,,,,,,,
62220,note_on,0,0,3,,,,,,,,,2,,,44,36
62220,note_on,60,0,3,,,,,,,,,2,,,51,0
62280,control_change,0,0,3,,,,,,,,,2,64,0,,
62280,note_on,60,0,3,,,,,,,,,2,,,44,0
62280,note_on,0,0,3,,,,,,,,,2,,,54,36
62280,set_tempo,60,1,0,,,,,,384615,,,,,,,
62340,set_tempo,60,1,0,,,,,,405405,,,,,,,
62340,note_on,60,0,3,,,,,,,,,2,,,54,0
62400,note_on,0,0,1,,,,,,,,,0,,,66,36
62400,note_on,0,0,1,,,,,,,,,0,,,80,36
62400,note_on,0,0,1,,,,,,,,,0,,,72,36
62400,note_on,0,0,3,,,,,,,,,2,,,32,36
62400,note_on,0,0,1,,,,,,,,,0,,,63,0
62400,note_on,0,0,1,,,,,,,,,0,,,73,0
62400,control_change,60,0,3,,,,,,,,,2,64,127,,
62400,set_tempo,60,1,0,,,,,,428571,,,,,,,
62400,note_on,360,0,1,,,,,,,,,0,,,80,0
62460,set_tempo,60,1,0,,,,,,454545,,,,,,,
62460,note_on,0,0,3,,,,,,,,,2,,,44,36
62460,note_on,60,0,3,,,,,,,,,2,,,32,0
62520,set_tempo,60,1,0,,,,,,483871,,,,,,,
62520,note_on,0,0,3,,,,,,,,,2,,,51,36
62520,note_on,60,0,3,,,,,,,,,2,,,44,0
62580,note_on,0,0,3,,,,,,,,,2,,,44,36
62580,note_on,60,0,3,,,,,,,,,2,,,51,0
62640,note_on,0,0,3,,,,,,,,,2,,,54,36
62640,note_on,60,0,3,,,,,,,,,2,,,44,0
62640,control_change,0,0,3,,,,,,,,,2,64,0,,
62700,note_on,60,0,3,,,,,,,,,2,,,54,0
62760,set_tempo,240,1,0,,,,,,319149,,,,,,,
62760,control_change,0,0,1,,,,,,,,,0,64,127,,
62760,note_on,0,0,1,,,,,,,,,0,,,72,0
62760,note_on,360,0,1,,,,,,,,,0,,,80,0
62760,note_on,0,0,1,,,,,,,,,0,,,73,36
62760,note_on,0,0,3,,,,,,,,,2,,,56,36
62760,note_on,0,0,3,,,,,,,,,2,,,61,36
62760,note_on,60,0,3,,,,,,,,,2,,,49,36
62760,note_on,0,0,1,,,,,,,,,0,,,66,0
62760,note_on,0,0,3,,,,,,,,,2,,,53,36
62799,note_on,39,0,1,,,,,,,,,0,,,75,36
62800,note_on,1,0,1,,,,,,,,,0,,,73,0
62839,note_on,39,0,1,,,,,,,,,0,,,75,0
62840,note_on,1,0,1,,,,,,,,,0,,,77,36
62880,note_on,40,0,1,,,,,,,,,0,,,77,0
62880,note_on,0,0,1,,,,,,,,,0,,,75,36
62919,note_on,39,0,1,,,,,,,,,0,,,77,36
62920,note_on,1,0,1,,,,,,,,,0,,,75,0
62959,note_on,39,0,1,,,,,,,,,0,,,77,0
62960,note_on,1,0,1,,,,,,,,,0,,,78,36
63000,note_on,40,0,1,,,,,,,,,0,,,78,0
63000,note_on,0,0,1,,,,,,,,,0,,,77,36
63039,note_on,39,0,1,,,,,,,,,0,,,78,36
63040,note_on,1,0,1,,,,,,,,,0,,,77,0
63079,note_on,39,0,1,,,,,,,,,0,,,78,0
63080,note_on,1,0,1,,,,,,,,,0,,,80,36
63120,note_on,0,0,1,,,,,,,,,0,,,78,36
63120,note_on,40,0,1,,,,,,,,,0,,,80,0
63159,note_on,39,0,1,,,,,,,,,0,,,80,36
63160,note_on,1,0,1,,,,,,,,,0,,,78,0
63199,note_on,39,0,1,,,,,,,,,0,,,80,0
63200,note_on,1,0,1,,,,,,,,,0,,,82,36
63240,note_on,40,0,1,,,,,,,,,0,,,82,0
63240,note_on,0,0,1,,,,,,,,,0,,,80,36
63279,note_on,39,0,1,,,,,,,,,0,,,82,36
63280,note_on,1,0,1,,,,,,,,,0,,,80,0
63319,note_on,39,0,1,,,,,,,,,0,,,82,0
63320,note_on,1,0,1,,,,,,,,,0,,,84,36
63360,note_on,40,0,1,,,,,,,,,0,,,84,0
63360,note_on,0,0,1,,,,,,,,,0,,,85,36
63399,note_on,39,0,1,,,,,,,,,0,,,87,36
63400,note_on,1,0,1,,,,,,,,,0,,,85,0
63439,note_on,39,0,1,,,,,,,,,0,,,87,0
63440,control_change,1,0,1,,,,,,,,,0,64,0,,
63440,note_on,0,0,1,,,,,,,,,0,,,89,36
63480,note_on,0,0,3,,,,,,,,,2,,,49,0
63480,note_on,0,0,3,,,,,,,,,2,,,51,36
63480,note_on,0,0,3,,,,,,,,,2,,,49,36
63480,note_on,0,0,3,,,,,,,,,2,,,56,0
63480,note_on,0,0,3,,,,,,,,,2,,,53,0
63480,note_on,720,0,3,,,,,,,,,2,,,61,0
63480,note_on,0,0,3,,,,,,,,,2,,,60,36
63480,note_on,0,0,3,,,,,,,,,2,,,56,36
63480,note_on,0,0,1,,,,,,,,,0,,,90,36
63480,note_on,40,0,1,,,,,,,,,0,,,89,0
63519,note_on,39,0,1,,,,,,,,,0,,,89,36
63520,note_on,1,0,1,,,,,,,,,0,,,90,0
63559,note_on,39,0,1,,,,,,,,,0,,,89,0
63560,note_on,1,0,1,,,,,,,,,0,,,87,36
63600,note_on,0,0,1,,,,,,,,,0,,,89,36
63600,note_on,40,0,1,,,,,,,,,0,,,87,0
63639,note_on,39,0,1,,,,,,,,,0,,,87,36
63640,note_on,1,0,1,,,,,,,,,0,,,89,0
63679,note_on,39,0,1,,,,,,,,,0,,,87,0
63680,note_on,1,0,1,,,,,,,,,0,,,85,36
63720,note_on,40,0,1,,,,,,,,,0,,,85,0
63720,note_on,0,0,1,,,,,,,,,0,,,87,36
63759,note_on,39,0,1,,,,,,,,,0,,,85,36
63760,note_on,1,0,1,,,,,,,,,0,,,87,0
63799,note_on,39,0,1,,,,,,,,,0,,,85,0
63800,note_on,1,0,1,,,,,,,,,0,,,84,36
63840,note_on,360,0,3,,,,,,,,,2,,,51,0
63840,note_on,40,0,1,,,,,,,,,0,,,84,0
63840,note_on,0,0,3,,,,,,,,,2,,,54,36
63840,note_on,0,0,1,,,,,,,,,0,,,85,36
63879,note_on,39,0,1,,,,,,,,,0,,,84,36
63880,note_on,1,0,1,,,,,,,,,0,,,85,0
63919,note_on,39,0,1,,,,,,,,,0,,,84,0
63920,note_on,1,0,1,,,,,,,,,0,,,82,36
63960,note_on,0,0,1,,,,,,,,,0,,,84,36
63960,note_on,40,0,1,,,,,,,,,0,,,82,0
63999,note_on,39,0,1,,,,,,,,,0,,,82,36
64000,note_on,1,0,1,,,,,,,,,0,,,84,0
64039,note_on,39,0,1,,,,,,,,,0,,,82,0
64040,note_on,1,0,1,,,,,,,,,0,,,80,36
64080,note_on,40,0,1,,,,,,,,,0,,,80,0
64080,note_on,0,0,1,,,,,,,,,0,,,78,36
64119,note_on,39,0,1,,,,,,,,,0,,,77,36
64120,note_on,1,0,1,,,,,,,,,0,,,78,0
64159,note_on,39,0,1,,,,,,,,,0,,,77,0
64160,note_on,1,0,1,,,,,,,,,0,,,75,36
64200,note_on,0,0,3,,,,,,,,,2,,,56,0
64200,note_on,0,0,3,,,,,,,,,2,,,61,36
64200,note_on,0,0,3,,,,,,,,,2,,,49,36
64200,note_on,360,0,3,,,,,,,,,2,,,54,0
64200,note_on,40,0,1,,,,,,,,,0,,,75,0
64200,note_on,0,0,3,,,,,,,,,2,,,60,0
64200,note_on,0,0,3,,,,,,,,,2,,,52,36
64200,note_on,0,0,3,,,,,,,,,2,,,49,0
64200,note_on,0,0,1,,,,,,,,,0,,,73,36
64200,note_on,0,0,3,,,,,,,,,2,,,56,36
64239,note_on,39,0,1,,,,,,,,,0,,,75,36
64240,note_on,1,0,1,,,,,,,,,0,,,73,0
64279,note_on,39,0,1,,,,,,,,,0,,,75,0
64280,note_on,1,0,1,,,,,,,,,0,,,76,36
64320,note_on,40,0,1,,,,,,,,,0,,,76,0
64320,note_on,0,0,1,,,,,,,,,0,,,75,36
64359,note_on,39,0,1,,,,,,,,,0,,,76,36
64360,note_on,1,0,1,,,,,,,,,0,,,75,0
64399,note_on,39,0,1,,,,,,,,,0,,,76,0
64400,note_on,1,0,1,,,,,,,,,0,,,78,36
64440,note_on,0,0,1,,,,,,,,,0,,,76,36
64440,note_on,40,0,1,,,,,,,,,0,,,78,0
64479,note_on,39,0,1,,,,,,,,,0,,,78,36
64480,note_on,1,0,1,,,,,,,,,0,,,76,0
64519,note_on,39,0,1,,,,,,,,,0,,,78,0
64520,note_on,1,0,1,,,,,,,,,0,,,80,36
64560,note_on,40,0,1,,,,,,,,,0,,,80,0
64560,note_on,0,0,1,,,,,,,,,0,,,78,36
64599,note_on,39,0,1,,,,,,,,,0,,,80,36
64600,note_on,1,0,1,,,,,,,,,0,,,78,0
64639,note_on,39,0,1,,,,,,,,,0,,,80,0
64640,note_on,1,0,1,,,,,,,,,0,,,81,36
64680,note_on,0,0,1,,,,,,,,,0,,,80,36
64680,note_on,40,0,1,,,,,,,,,0,,,81,0
64719,note_on,39,0,1,,,,,,,,,0,,,82,36
64720,note_on,1,0,1,,,,,,,,,0,,,80,0
64759,note_on,39,0,1,,,,,,,,,0,,,82,0
64760,note_on,1,0,1,,,,,,,,,0,,,84,36
64800,note_on,40,0,1,,,,,,,,,0,,,84,0
64800,note_on,0,0,1,,,,,,,,,0,,,85,36
64839,note_on,39,0,1,,,,,,,,,0,,,87,36
64840,note_on,1,0,1,,,,,,,,,0,,,85,0
64879,note_on,39,0,1,,,,,,,,,0,,,87,0
64880,note_on,1,0,1,,,,,,,,,0,,,88,36
64920,note_on,40,0,1,,,,,,,,,0,,,88,0
64920,note_on,0,0,3,,,,,,,,,2,,,56,36
64920,note_on,0,0,3,,,,,,,,,2,,,51,36
64920,note_on,0,0,3,,,,,,,,,2,,,49,36
64920,note_on,0,0,3,,,,,,,,,2,,,56,0
64920,note_on,0,0,3,,,,,,,,,2,,,52,0
64920,note_on,0,0,3,,,,,,,,,2,,,49,0
64920,note_on,0,0,3,,,,,,,,,2,,,60,36
64920,note_on,0,0,1,,,,,,,,,0,,,90,36
64920,note_on,720,0,3,,,,,,,,,2,,,61,0
64920,control_change,0,0,1,,,,,,,,,0,64,127,,
64959,note_on,39,0,1,,,,,,,,,0,,,88,36
64960,note_on,1,0,1,,,,,,,,,0,,,90,0
64999,note_on,39,0,1,,,,,,,,,0,,,88,0
65000,note_on,1,0,1,,,,,,,,,0,,,87,36
65040,note_on,40,0,1,,,,,,,,,0,,,87,0
65040,note_on,0,0,1,,,,,,,,,0,,,88,36
65079,note_on,39,0,1,,,,,,,,,0,,,87,36
65080,note_on,1,0,1,,,,,,,,,0,,,88,0
65119,note_on,39,0,1,,,,,,,,,0,,,87,0
65120,note_on,1,0,1,,,,,,,,,0,,,85,36
65160,note_on,40,0,1,,,,,,,,,0,,,85,0
65160,note_on,0,0,1,,,,,,,,,0,,,87,36
65199,note_on,39,0,1,,,,,,,,,0,,,85,36
65200,note_on,1,0,1,,,,,,,,,0,,,87,0
65239,note_on,39,0,1,,,,,,,,,0,,,85,0
65240,note_on,1,0,1,,,,,,,,,0,,,84,36
65280,note_on,40,0,1,,,,,,,,,0,,,84,0
65280,note_on,0,0,1,,,,,,,,,0,,,85,36
65280,note_on,360,0,3,,,,,,,,,2,,,51,0
65280,note_on,0,0,3,,,,,,,,,2,,,54,36
65319,note_on,39,0,1,,,,,,,,,0,,,83,36
65320,note_on,1,0,1,,,,,,,,,0,,,85,0
65359,note_on,39,0,1,,,,,,,,,0,,,83,0
65360,note_on,1,0,1,,,,,,,,,0,,,81,36
65400,note_on,0,0,1,,,,,,,,,0,,,83,36
65400,note_on,40,0,1,,,,,,,,,0,,,81,0
65439,note_on,39,0,1,,,,,,,,,0,,,81,36
65440,note_on,1,0,1,,,,,,,,,0,,,83,0
65479,note_on,39,0,1,,,,,,,,,0,,,81,0
65480,note_on,1,0,1,,,,,,,,,0,,,80,36
65520,note_on,0,0,1,,,,,,,,,0,,,78,36
65520,note_on,40,0,1,,,,,,,,,0,,,80,0
65559,note_on,39,0,1,,,,,,,,,0,,,76,36
65560,note_on,1,0,1,,,,,,,,,0,,,78,0
65599,note_on,39,0,1,,,,,,,,,0,,,76,0
65600,control_change,1,0,1,,,,,,,,,0,64,0,,
65600,note_on,0,0,1,,,,,,,,,0,,,75,36
65640,note_on,0,0,3,,,,,,,,,2,,,52,36
65640,note_on,0,0,3,,,,,,,,,2,,,61,36
65640,note_on,360,0,3,,,,,,,,,2,,,54,0
65640,note_on,0,0,3,,,,,,,,,2,,,60,0
65640,note_on,40,0,1,,,,,,,,,0,,,75,0
65640,note_on,0,0,1,,,,,,,,,0,,,73,36
65640,control_change,0,0,1,,,,,,,,,0,64,127,,
65679,note_on,39,0,1,,,,,,,,,0,,,75,36
65680,note_on,1,0,1,,,,,,,,,0,,,73,0
65719,note_on,39,0,1,,,,,,,,,0,,,75,0
65720,note_on,1,0,1,,,,,,,,,0,,,76,36
65760,note_on,120,0,3,,,,,,,,,2,,,61,0
65760,note_on,0,0,3,,,,,,,,,2,,,49,0
65760,note_on,0,0,3,,,,,,,,,2,,,56,0
65760,note_on,40,0,1,,,,,,,,,0,,,76,0
65760,note_on,0,0,1,,,,,,,,,0,,,75,36
65760,note_on,0,0,3,,,,,,,,,2,,,52,0
65799,note_on,39,0,1,,,,,,,,,0,,,76,36
65800,note_on,1,0,1,,,,,,,,,0,,,75,0
65839,note_on,39,0,1,,,,,,,,,0,,,76,0
65840,note_on,1,0,1,,,,,,,,,0,,,78,36
65880,note_on,40,0,1,,,,,,,,,0,,,78,0
65880,note_on,0,0,1,,,,,,,,,0,,,76,36
65919,note_on,39,0,1,,,,,,,,,0,,,78,36
65920,note_on,1,0,1,,,,,,,,,0,,,76,0
65959,note_on,39,0,1,,,,,,,,,0,,,78,0
65960,control_change,1,0,1,,,,,,,,,0,64,0,,
65960,note_on,0,0,1,,,,,,,,,0,,,80,36
66000,control_change,240,0,3,,,,,,,,,2,64,127,,
66000,note_on,40,0,1,,,,,,,,,0,,,80,0
66000,note_on,0,0,3,,,,,,,,,2,,,60,36
66000,note_on,0,0,1,,,,,,,,,0,,,81,62
66039,note_on,39,0,3,,,,,,,,,2,,,61,36
66040,note_on,1,0,3,,,,,,,,,2,,,60,0
66079,note_on,39,0,3,,,,,,,,,2,,,61,0
66080,note_on,1,0,3,,,,,,,,,2,,,63,36
66120,note_on,40,0,3,,,,,,,,,2,,,63,0
66120,note_on,0,0,3,,,,,,,,,2,,,61,36
66159,note_on,39,0,3,,,,,,,,,2,,,63,36
66160,note_on,1,0,3,,,,,,,,,2,,,61,0
66199,note_on,39,0,3,,,,,,,,,2,,,63,0
66200,note_on,1,0,3,,,,,,,,,2,,,64,36
66240,note_on,0,0,1,,,,,,,,,0,,,80,36
66240,note_on,240,0,1,,,,,,,,,0,,,81,0
66240,control_change,0,0,3,,,,,,,,,2,64,0,,
66240,note_on,0,0,3,,,,,,,,,2,,,66,36
66240,note_on,40,0,3,,,,,,,,,2,,,64,0
66279,note_on,39,0,3,,,,,,,,,2,,,64,36
66280,note_on,1,0,3,,,,,,,,,2,,,66,0
66319,note_on,39,0,3,,,,,,,,,2,,,64,0
66320,note_on,1,0,3,,,,,,,,,2,,,63,36
66360,note_on,120,0,1,,,,,,,,,0,,,80,0
66360,note_on,40,0,3,,,,,,,,,2,,,63,0
66360,note_on,0,0,3,,,,,,,,,2,,,64,36
66360,note_on,0,0,1,,,,,,,,,0,,,73,36
66360,control_change,0,0,1,,,,,,,,,0,64,127,,
66399,note_on,39,0,1,,,,,,,,,0,,,75,36
66400,note_on,1,0,1,,,,,,,,,0,,,73,0
66439,note_on,39,0,1,,,,,,,,,0,,,75,0
66440,note_on,1,0,1,,,,,,,,,0,,,76,36
66480,note_on,40,0,1,,,,,,,,,0,,,76,0
66480,note_on,0,0,1,,,,,,,,,0,,,75,36
66519,note_on,39,0,1,,,,,,,,,0,,,76,36
66520,note_on,1,0,1,,,,,,,,,0,,,75,0
66559,note_on,39,0,1,,,,,,,,,0,,,76,0
66560,note_on,1,0,1,,,,,,,,,0,,,78,36
66600,note_on,0,0,1,,,,,,,,,0,,,76,36
66600,note_on,0,0,3,,,,,,,,,2,,,61,36
66600,note_on,240,0,3,,,,,,,,,2,,,64,0
66600,note_on,40,0,1,,,,,,,,,0,,,78,0
66639,note_on,39,0,1,,,,,,,,,0,,,78,36
66640,note_on,1,0,1,,,,,,,,,0,,,76,0
66679,note_on,39,0,1,,,,,,,,,0,,,78,0
66680,control_change,1,0,1,,,,,,,,,0,64,0,,
66680,note_on,0,0,1,,,,,,,,,0,,,80,36
66720,note_on,0,0,3,,,,,,,,,2,,,60,36
66720,note_on,120,0,3,,,,,,,,,2,,,61,0
66720,control_change,0,0,3,,,,,,,,,2,64,127,,
66720,note_on,40,0,1,,,,,,,,,0,,,80,0
66720,note_on,0,0,1,,,,,,,,,0,,,81,62
66759,note_on,39,0,3,,,,,,,,,2,,,61,36
66760,note_on,1,0,3,,,,,,,,,2,,,60,0
66799,note_on,39,0,3,,,,,,,,,2,,,61,0
66800,note_on,1,0,3,,,,,,,,,2,,,63,36
66840,note_on,0,0,3,,,,,,,,,2,,,61,36
66840,note_on,40,0,3,,,,,,,,,2,,,63,0
66879,note_on,39,0,3,,,,,,,,,2,,,63,36
66880,note_on,1,0,3,,,,,,,,,2,,,61,0
66919,note_on,39,0,3,,,,,,,,,2,,,63,0
66920,note_on,1,0,3,,,,,,,,,2,,,64,36
66960,note_on,240,0,1,,,,,,,,,0,,,81,0
66960,note_on,40,0,3,,,,,,,,,2,,,64,0
66960,note_on,0,0,3,,,,,,,,,2,,,66,36
66960,control_change,0,0,3,,,,,,,,,2,64,0,,
66960,note_on,0,0,1,,,,,,,,,0,,,80,36
66999,note_on,39,0,3,,,,,,,,,2,,,64,36
67000,note_on,1,0,3,,,,,,,,,2,,,66,0
67039,note_on,39,0,3,,,,,,,,,2,,,64,0
67040,note_on,1,0,3,,,,,,,,,2,,,63,36
67080,control_change,0,0,1,,,,,,,,,0,64,127,,
67080,note_on,120,0,1,,,,,,,,,0,,,80,0
67080,note_on,0,0,1,,,,,,,,,0,,,76,36
67080,note_on,0,0,3,,,,,,,,,2,,,64,36
67080,note_on,40,0,3,,,,,,,,,2,,,63,0
67119,note_on,39,0,1,,,,,,,,,0,,,78,36
67120,note_on,1,0,1,,,,,,,,,0,,,76,0
67159,note_on,39,0,1,,,,,,,,,0,,,78,0
67160,note_on,1,0,1,,,,,,,,,0,,,79,36
67200,note_on,40,0,1,,,,,,,,,0,,,79,0
67200,note_on,0,0,1,,,,,,,,,0,,,78,36
67239,note_on,39,0,1,,,,,,,,,0,,,79,36
67240,note_on,1,0,1,,,,,,,,,0,,,78,0
67279,note_on,39,0,1,,,,,,,,,0,,,79,0
67280,note_on,1,0,1,,,,,,,,,0,,,81,36
67320,note_on,0,0,1,,,,,,,,,0,,,79,36
67320,note_on,40,0,1,,,,,,,,,0,,,81,0
67359,note_on,39,0,1,,,,,,,,,0,,,81,36
67360,note_on,1,0,1,,,,,,,,,0,,,79,0
67399,note_on,39,0,1,,,,,,,,,0,,,81,0
67400,note_on,0,0,1,,,,,,,,,0,,,83,36
67400,control_change,1,0,1,,,,,,,,,0,64,0,,
67440,note_on,360,0,3,,,,,,,,,2,,,64,0
67440,control_change,0,0,3,,,,,,,,,2,64,127,,
67440,note_on,0,0,3,,,,,,,,,2,,,63,36
67440,note_on,40,0,1,,,,,,,,,0,,,83,0
67440,note_on,0,0,1,,,,,,,,,0,,,84,62
67479,note_on,39,0,3,,,,,,,,,2,,,64,36
67480,note_on,1,0,3,,,,,,,,,2,,,63,0
67519,note_on,39,0,3,,,,,,,,,2,,,64,0
67520,note_on,1,0,3,,,,,,,,,2,,,66,36
67560,note_on,40,0,3,,,,,,,,,2,,,66,0
67560,control_change,0,0,3,,,,,,,,,2,64,0,,
67560,note_on,0,0,3,,,,,,,,,2,,,64,36
67599,note_on,39,0,3,,,,,,,,,2,,,66,36
67600,note_on,1,0,3,,,,,,,,,2,,,64,0
67639,note_on,39,0,3,,,,,,,,,2,,,66,0
67640,note_on,1,0,3,,,,,,,,,2,,,67,36
67680,note_on,0,0,3,,,,,,,,,2,,,69,36
67680,note_on,0,0,1,,,,,,,,,0,,,83,36
67680,note_on,240,0,1,,,,,,,,,0,,,84,0
67680,note_on,40,0,3,,,,,,,,,2,,,67,0
67719,note_on,39,0,3,,,,,,,,,2,,,67,36
67720,note_on,1,0,3,,,,,,,,,2,,,69,0
67759,note_on,39,0,3,,,,,,,,,2,,,67,0
67760,note_on,1,0,3,,,,,,,,,2,,,66,36
67800,note_on,0,0,1,,,,,,,,,0,,,86,36
67800,control_change,0,0,3,,,,,,,,,2,64,127,,
67800,note_on,0,0,3,,,,,,,,,2,,,64,36
67800,note_on,120,0,1,,,,,,,,,0,,,83,0
67800,note_on,40,0,3,,,,,,,,,2,,,66,0
67839,note_on,39,0,3,,,,,,,,,2,,,66,36
67840,note_on,1,0,3,,,,,,,,,2,,,64,0
67879,note_on,39,0,3,,,,,,,,,2,,,66,0
67880,note_on,1,0,3,,,,,,,,,2,,,68,36
67920,note_on,40,0,3,,,,,,,,,2,,,68,0
67920,note_on,0,0,3,,,,,,,,,2,,,66,36
67959,note_on,39,0,3,,,,,,,,,2,,,68,36
67960,note_on,1,0,3,,,,,,,,,2,,,66,0
67999,note_on,39,0,3,,,,,,,,,2,,,68,0
68000,note_on,1,0,3,,,,,,,,,2,,,69,36
68040,note_on,240,0,1,,,,,,,,,0,,,86,0
68040,note_on,0,0,1,,,,,,,,,0,,,85,36
68040,note_on,40,0,3,,,,,,,,,2,,,69,0
68040,control_change,0,0,3,,,,,,,,,2,64,0,,
68040,note_on,0,0,3,,,,,,,,,2,,,71,36
68079,note_on,39,0,3,,,,,,,,,2,,,69,36
68080,note_on,1,0,3,,,,,,,,,2,,,71,0
68119,note_on,39,0,3,,,,,,,,,2,,,69,0
68120,note_on,1,0,3,,,,,,,,,2,,,68,36
68160,note_on,40,0,3,,,,,,,,,2,,,68,0
68160,note_on,0,0,3,,,,,,,,,2,,,66,36
68160,note_on,120,0,1,,,,,,,,,0,,,85,0
68160,control_change,0,0,1,,,,,,,,,0,64,127,,
68160,note_on,0,0,1,,,,,,,,,0,,,78,36
68199,note_on,39,0,1,,,,,,,,,0,,,80,36
68200,note_on,1,0,1,,,,,,,,,0,,,78,0
68239,note_on,39,0,1,,,,,,,,,0,,,80,0
68240,note_on,1,0,1,,,,,,,,,0,,,81,36
68280,note_on,0,0,1,,,,,,,,,0,,,80,36
68280,note_on,40,0,1,,,,,,,,,0,,,81,0
68280,note_on,120,0,3,,,,,,,,,2,,,66,0
68319,note_on,39,0,1,,,,,,,,,0,,,81,36
68320,note_on,1,0,1,,,,,,,,,0,,,80,0
68359,note_on,39,0,1,,,,,,,,,0,,,81,0
68360,note_on,1,0,1,,,,,,,,,0,,,83,36
68400,note_on,120,0,3,,,,,,,,,2,,,64,62
68400,note_on,0,0,1,,,,,,,,,0,,,85,62
68400,note_on,0,0,1,,,,,,,,,0,,,79,54
68400,control_change,0,0,1,,,,,,,,,0,64,0,,
68400,note_on,40,0,1,,,,,,,,,0,,,83,0
68439,note_on,39,0,3,,,,,,,,,2,,,70,36
68440,note_on,1,0,3,,,,,,,,,2,,,64,0
68479,note_on,39,0,3,,,,,,,,,2,,,70,0
68480,note_on,1,0,3,,,,,,,,,2,,,64,36
68520,note_on,0,0,3,,,,,,,,,2,,,71,36
68520,note_on,0,0,1,,,,,,,,,0,,,79,0
68520,note_on,0,0,1,,,,,,,,,0,,,78,36
68520,note_on,0,0,1,,,,,,,,,0,,,90,36
68520,note_on,40,0,3,,,,,,,,,2,,,64,0
68520,control_change,0,0,3,,,,,,,,,2,64,127,,
68520,note_on,0,0,3,,,,,,,,,2,,,63,36
68520,note_on,120,0,1,,,,,,,,,0,,,85,0
68559,note_on,39,0,3,,,,,,,,,2,,,64,36
68560,note_on,1,0,3,,,,,,,,,2,,,71,0
68560,note_on,0,0,3,,,,,,,,,2,,,63,0
68599,note_on,39,0,3,,,,,,,,,2,,,64,0
68600,note_on,1,0,3,,,,,,,,,2,,,66,36
68640,note_on,40,0,3,,,,,,,,,2,,,66,0
68640,note_on,0,0,3,,,,,,,,,2,,,64,36
68640,note_on,120,0,1,,,,,,,,,0,,,90,0
68640,note_on,0,0,1,,,,,,,,,0,,,78,0
68679,note_on,39,0,3,,,,,,,,,2,,,66,36
68680,note_on,1,0,3,,,,,,,,,2,,,64,0
68719,note_on,39,0,3,,,,,,,,,2,,,66,0
68720,note_on,1,0,3,,,,,,,,,2,,,68,36
68760,note_on,120,0,1,,,,,,,,,0,,,78,36
68760,note_on,0,0,3,,,,,,,,,2,,,69,36
68760,note_on,6720,0,2,,,,,,,,,1,,,75,36
68760,control_change,0,0,3,,,,,,,,,2,64,0,,
68760,note_on,40,0,3,,,,,,,,,2,,,68,0
68799,note_on,39,0,1,,,,,,,,,0,,,83,36
68800,note_on,1,0,1,,,,,,,,,0,,,78,0
68839,note_on,39,0,1,,,,,,,,,0,,,83,0
68840,note_on,1,0,1,,,,,,,,,0,,,78,36
68880,control_change,0,0,1,,,,,,,,,0,64,127,,
68880,note_on,40,0,1,,,,,,,,,0,,,78,0
68880,note_on,120,0,2,,,,,,,,,1,,,75,0
68880,note_on,0,0,1,,,,,,,,,0,,,76,36
68880,note_on,120,0,3,,,,,,,,,2,,,69,0
68880,note_on,0,0,3,,,,,,,,,2,,,68,36
68880,note_on,0,0,1,,,,,,,,,0,,,88,36
68919,note_on,39,0,1,,,,,,,,,0,,,78,36
68920,note_on,0,0,1,,,,,,,,,0,,,76,0
68920,note_on,1,0,1,,,,,,,,,0,,,88,0
68959,note_on,39,0,1,,,,,,,,,0,,,78,0
68960,note_on,1,0,1,,,,,,,,,0,,,80,36
69000,note_on,120,0,3,,,,,,,,,2,,,68,0
69000,note_on,40,0,1,,,,,,,,,0,,,80,0
69000,note_on,0,0,1,,,,,,,,,0,,,78,36
69039,note_on,39,0,1,,,,,,,,,0,,,80,36
69040,note_on,1,0,1,,,,,,,,,0,,,78,0
69079,note_on,39,0,1,,,,,,,,,0,,,80,0
69080,control_change,1,0,1,,,,,,,,,0,64,0,,
69080,note_on,0,0,1,,,,,,,,,0,,,81,36
69120,note_on,0,0,1,,,,,,,,,0,,,77,36
69120,note_on,120,0,3,,,,,,,,,2,,,62,36
69120,note_on,0,0,1,,,,,,,,,0,,,83,36
69120,note_on,40,0,1,,,,,,,,,0,,,81,0
69159,note_on,39,0,3,,,,,,,,,2,,,68,36
69160,note_on,1,0,3,,,,,,,,,2,,,62,0
69199,note_on,39,0,3,,,,,,,,,2,,,68,0
69200,note_on,1,0,3,,,,,,,,,2,,,62,36
69240,note_on,0,0,1,,,,,,,,,0,,,77,0
69240,note_on,0,0,1,,,,,,,,,0,,,76,36
69240,note_on,120,0,1,,,,,,,,,0,,,83,0
69240,note_on,0,0,1,,,,,,,,,0,,,88,36
69240,note_on,40,0,3,,,,,,,,,2,,,62,0
69240,note_on,0,0,3,,,,,,,,,2,,,61,36
69240,note_on,0,0,3,,,,,,,,,2,,,69,36
69240,control_change,0,0,3,,,,,,,,,2,64,127,,
69279,note_on,39,0,3,,,,,,,,,2,,,62,36
69280,note_on,1,0,3,,,,,,,,,2,,,69,0
69280,note_on,0,0,3,,,,,,,,,2,,,61,0
69319,note_on,39,0,3,,,,,,,,,2,,,62,0
69320,note_on,1,0,3,,,,,,,,,2,,,64,36
69360,note_on,40,0,3,,,,,,,,,2,,,64,0
69360,note_on,120,0,1,,,,,,,,,0,,,88,0
69360,note_on,0,0,1,,,,,,,,,0,,,76,0
69360,note_on,0,0,3,,,,,,,,,2,,,62,36
69399,note_on,39,0,3,,,,,,,,,2,,,64,36
69400,note_on,1,0,3,,,,,,,,,2,,,62,0
69439,note_on,39,0,3,,,,,,,,,2,,,64,0
69440,note_on,0,0,3,,,,,,,,,2,,,66,36
69440,control_change,1,0,3,,,,,,,,,2,64,0,,
69480,note_on,120,0,1,,,,,,,,,0,,,76,36
69480,note_on,40,0,3,,,,,,,,,2,,,66,0
69480,note_on,0,0,3,,,,,,,,,2,,,67,36
69480,note_on,600,0,2,,,,,,,,,1,,,73,36
69519,note_on,39,0,1,,,,,,,,,0,,,81,36
69520,note_on,1,0,1,,,,,,,,,0,,,76,0
69559,note_on,39,0,1,,,,,,,,,0,,,81,0
69560,note_on,1,0,1,,,,,,,,,0,,,76,36
69600,note_on,120,0,3,,,,,,,,,2,,,67,0
69600,note_on,120,0,2,,,,,,,,,1,,,73,0
69600,note_on,0,0,3,,,,,,,,,2,,,66,36
69600,note_on,40,0,1,,,,,,,,,0,,,76,0
69600,note_on,0,0,1,,,,,,,,,0,,,74,36
69600,note_on,0,0,1,,,,,,,,,0,,,86,36
69600,control_change,0,0,1,,,,,,,,,0,64,127,,
69639,note_on,39,0,1,,,,,,,,,0,,,76,36
69640,note_on,1,0,1,,,,,,,,,0,,,86,0
69640,note_on,0,0,1,,,,,,,,,0,,,74,0
69679,note_on,39,0,1,,,,,,,,,0,,,76,0
69680,note_on,1,0,1,,,,,,,,,0,,,78,36
69720,note_on,120,0,3,,,,,,,,,2,,,66,0
69720,note_on,40,0,1,,,,,,,,,0,,,78,0
69720,note_on,0,0,1,,,,,,,,,0,,,76,36
69759,note_on,39,0,1,,,,,,,,,0,,,78,36
69760,note_on,1,0,1,,,,,,,,,0,,,76,0
69799,note_on,39,0,1,,,,,,,,,0,,,78,0
69800,note_on,1,0,1,,,,,,,,,0,,,79,36
69840,note_on,0,0,1,,,,,,,,,0,,,86,36
69840,note_on,0,0,1,,,,,,,,,0,,,81,36
69840,note_on,120,0,3,,,,,,,,,2,,,65,36
69840,note_on,0,0,1,,,,,,,,,0,,,74,36
69840,note_on,40,0,1,,,,,,,,,0,,,79,0
69840,control_change,0,0,1,,,,,,,,,0,64,0,,
69879,note_on,39,0,3,,,,,,,,,2,,,69,36
69880,note_on,1,0,3,,,,,,,,,2,,,65,0
69919,note_on,39,0,3,,,,,,,,,2,,,69,0
69920,note_on,1,0,3,,,,,,,,,2,,,65,36
69960,note_on,0,0,3,,,,,,,,,2,,,64,36
69960,note_on,0,0,1,,,,,,,,,0,,,80,36
69960,note_on,120,0,1,,,,,,,,,0,,,81,0
69960,note_on,40,0,3,,,,,,,,,2,,,65,0
69960,control_change,0,0,3,,,,,,,,,2,64,127,,
69999,note_on,39,0,3,,,,,,,,,2,,,66,36
70000,note_on,1,0,3,,,,,,,,,2,,,64,0
70039,note_on,39,0,3,,,,,,,,,2,,,66,0
70040,note_on,1,0,3,,,,,,,,,2,,,68,36
70080,note_on,40,0,3,,,,,,,,,2,,,68,0
70080,note_on,0,0,3,,,,,,,,,2,,,66,36
70080,note_on,120,0,1,,,,,,,,,0,,,80,0
70080,note_on,0,0,1,,,,,,,,,0,,,74,0
70080,note_on,0,0,1,,,,,,,,,0,,,86,0
70119,note_on,39,0,3,,,,,,,,,2,,,68,36
70120,note_on,1,0,3,,,,,,,,,2,,,66,0
70159,note_on,39,0,3,,,,,,,,,2,,,68,0
70160,control_change,1,0,3,,,,,,,,,2,64,0,,
70160,note_on,0,0,3,,,,,,,,,2,,,69,36
70200,note_on,0,0,3,,,,,,,,,2,,,71,36
70200,note_on,0,0,3,,,,,,,,,2,,,65,36
70200,note_on,120,0,1,,,,,,,,,0,,,81,36
70200,note_on,40,0,3,,,,,,,,,2,,,69,0
70200,note_on,600,0,2,,,,,,,,,1,,,74,36
70239,note_on,39,0,1,,,,,,,,,0,,,86,36
70240,note_on,1,0,1,,,,,,,,,0,,,81,0
70279,note_on,39,0,1,,,,,,,,,0,,,86,0
70280,note_on,1,0,1,,,,,,,,,0,,,81,36
70320,control_change,0,0,1,,,,,,,,,0,64,127,,
70320,note_on,0,0,3,,,,,,,,,2,,,64,36
70320,note_on,120,0,3,,,,,,,,,2,,,65,0
70320,note_on,40,0,1,,,,,,,,,0,,,81,0
70320,note_on,0,0,1,,,,,,,,,0,,,80,36
70359,note_on,39,0,1,,,,,,,,,0,,,81,36
70360,note_on,1,0,1,,,,,,,,,0,,,80,0
70399,note_on,39,0,1,,,,,,,,,0,,,81,0
70400,note_on,1,0,1,,,,,,,,,0,,,83,36
70440,note_on,240,0,2,,,,,,,,,1,,,74,0
70440,note_on,40,0,1,,,,,,,,,0,,,83,0
70440,note_on,120,0,3,,,,,,,,,2,,,64,0
70440,note_on,0,0,3,,,,,,,,,2,,,71,0
70440,note_on,0,0,1,,,,,,,,,0,,,81,36
70479,note_on,39,0,1,,,,,,,,,0,,,83,36
70480,note_on,1,0,1,,,,,,,,,0,,,81,0
70519,note_on,39,0,1,,,,,,,,,0,,,83,0
70520,note_on,1,0,1,,,,,,,,,0,,,84,36
70560,note_on,0,0,1,,,,,,,,,0,,,81,36
70560,note_on,40,0,1,,,,,,,,,0,,,84,0
70560,control_change,0,0,1,,,,,,,,,0,64,0,,
70560,note_on,0,0,1,,,,,,,,,0,,,74,36
70560,note_on,120,0,3,,,,,,,,,2,,,65,36
70560,note_on,0,0,1,,,,,,,,,0,,,86,36
70599,note_on,39,0,3,,,,,,,,,2,,,69,36
70600,note_on,1,0,3,,,,,,,,,2,,,65,0
70639,note_on,39,0,3,,,,,,,,,2,,,69,0
70640,note_on,1,0,3,,,,,,,,,2,,,65,36
70680,note_on,0,0,1,,,,,,,,,0,,,80,36
70680,note_on,120,0,1,,,,,,,,,0,,,81,0
70680,note_on,40,0,3,,,,,,,,,2,,,65,0
70680,control_change,0,0,3,,,,,,,,,2,64,127,,
70680,note_on,0,0,3,,,,,,,,,2,,,64,36
70719,note_on,39,0,3,,,,,,,,,2,,,66,36
70720,note_on,1,0,3,,,,,,,,,2,,,64,0
70759,note_on,39,0,3,,,,,,,,,2,,,66,0
70760,note_on,1,0,3,,,,,,,,,2,,,68,36
70800,note_on,40,0,3,,,,,,,,,2,,,68,0
70800,note_on,120,0,1,,,,,,,,,0,,,80,0
70800,note_on,0,0,1,,,,,,,,,0,,,86,0
70800,note_on,0,0,1,,,,,,,,,0,,,74,0
70800,note_on,0,0,3,,,,,,,,,2,,,66,36
70839,note_on,39,0,3,,,,,,,,,2,,,68,36
70840,note_on,1,0,3,,,,,,,,,2,,,66,0
70879,note_on,39,0,3,,,,,,,,,2,,,68,0
70880,note_on,0,0,3,,,,,,,,,2,,,69,36
70880,control_change,1,0,3,,,,,,,,,2,64,0,,
70920,note_on,120,0,1,,,,,,,,,0,,,81,36
70920,note_on,40,0,3,,,,,,,,,2,,,69,0
70920,note_on,0,0,3,,,,,,,,,2,,,65,36
70920,note_on,0,0,3,,,,,,,,,2,,,71,36
70920,note_on,480,0,2,,,,,,,,,1,,,74,36
70959,note_on,39,0,1,,,,,,,,,0,,,86,36
70960,note_on,1,0,1,,,,,,,,,0,,,81,0
70999,note_on,39,0,1,,,,,,,,,0,,,86,0
71000,note_on,1,0,1,,,,,,,,,0,,,81,36
71040,note_on,0,0,3,,,,,,,,,2,,,64,36
71040,note_on,40,0,1,,,,,,,,,0,,,81,0
71040,control_change,0,0,1,,,,,,,,,0,64,127,,
71040,note_on,0,0,1,,,,,,,,,0,,,80,36
71040,note_on,120,0,3,,,,,,,,,2,,,65,0
71079,note_on,39,0,1,,,,,,,,,0,,,81,36
71080,note_on,1,0,1,,,,,,,,,0,,,80,0
71119,note_on,39,0,1,,,,,,,,,0,,,81,0
71120,note_on,1,0,1,,,,,,,,,0,,,83,36
71160,note_on,120,0,3,,,,,,,,,2,,,64,0
71160,note_on,40,0,1,,,,,,,,,0,,,83,0
71160,note_on,0,0,3,,,,,,,,,2,,,71,0
71160,note_on,0,0,1,,,,,,,,,0,,,81,36
71160,note_on,240,0,2,,,,,,,,,1,,,74,0
71199,note_on,39,0,1,,,,,,,,,0,,,83,36
71200,note_on,1,0,1,,,,,,,,,0,,,81,0
71239,note_on,39,0,1,,,,,,,,,0,,,83,0
71240,note_on,1,0,1,,,,,,,,,0,,,84,36
71280,control_change,0,0,1,,,,,,,,,0,64,0,,
71280,note_on,0,0,1,,,,,,,,,0,,,74,36
71280,note_on,0,0,1,,,,,,,,,0,,,81,36
71280,note_on,0,0,1,,,,,,,,,0,,,86,36
71280,note_on,40,0,1,,,,,,,,,0,,,84,0
71280,note_on,120,0,3,,,,,,,,,2,,,65,36
71319,note_on,39,0,3,,,,,,,,,2,,,69,36
71320,note_on,1,0,3,,,,,,,,,2,,,65,0
71359,note_on,39,0,3,,,,,,,,,2,,,69,0
71360,note_on,1,0,3,,,,,,,,,2,,,65,36
71400,note_on,120,0,1,,,,,,,,,0,,,81,0
71400,note_on,40,0,3,,,,,,,,,2,,,65,0
71400,control_change,0,0,3,,,,,,,,,2,64,127,,
71400,note_on,0,0,3,,,,,,,,,2,,,64,36
71400,note_on,0,0,1,,,,,,,,,0,,,80,36
71439,note_on,39,0,3,,,,,,,,,2,,,66,36
71440,note_on,1,0,3,,,,,,,,,2,,,64,0
71479,note_on,39,0,3,,,,,,,,,2,,,66,0
71480,note_on,1,0,3,,,,,,,,,2,,,68,36
71520,note_on,40,0,3,,,,,,,,,2,,,68,0
71520,note_on,0,0,3,,,,,,,,,2,,,66,36
71520,note_on,0,0,1,,,,,,,,,0,,,86,0
71520,note_on,0,0,1,,,,,,,,,0,,,74,0
71520,note_on,120,0,1,,,,,,,,,0,,,80,0
71559,note_on,39,0,3,,,,,,,,,2,,,68,36
71560,note_on,1,0,3,,,,,,,,,2,,,66,0
71599,note_on,39,0,3,,,,,,,,,2,,,68,0
71600,control_change,1,0,3,,,,,,,,,2,64,0,,
71600,note_on,0,0,3,,,,,,,,,2,,,69,36
71640,note_on,40,0,3,,,,,,,,,2,,,69,0
71640,note_on,120,0,1,,,,,,,,,0,,,68,36
71679,note_on,39,0,1,,,,,,,,,0,,,69,36
71680,note_on,1,0,1,,,,,,,,,0,,,68,0
71719,note_on,39,0,1,,,,,,,,,0,,,69,0
71720,note_on,1,0,1,,,,,,,,,0,,,71,36
71760,note_on,40,0,1,,,,,,,,,0,,,71,0
71760,note_on,0,0,1,,,,,,,,,0,,,69,36
71799,note_on,39,0,1,,,,,,,,,0,,,71,36
71800,note_on,1,0,1,,,,,,,,,0,,,69,0
71839,note_on,39,0,1,,,,,,,,,0,,,71,0
71840,note_on,1,0,1,,,,,,,,,0,,,72,36
71880,note_on,40,0,1,,,,,,,,,0,,,72,0
71880,note_on,0,0,1,,,,,,,,,0,,,71,36
71919,note_on,39,0,1,,,,,,,,,0,,,72,36
71920,note_on,1,0,1,,,,,,,,,0,,,71,0
71959,note_on,39,0,1,,,,,,,,,0,,,72,0
71960,note_on,1,0,1,,,,,,,,,0,,,74,36
72000,note_on,0,0,3,,,,,,,,,2,,,64,36
72000,note_on,0,0,1,,,,,,,,,0,,,76,62
72000,note_on,40,0,1,,,,,,,,,0,,,74,0
72000,control_change,360,0,3,,,,,,,,,2,64,127,,
72039,note_on,39,0,3,,,,,,,,,2,,,66,36
72040,note_on,1,0,3,,,,,,,,,2,,,64,0
72079,note_on,39,0,3,,,,,,,,,2,,,66,0
72080,note_on,1,0,3,,,,,,,,,2,,,68,36
72120,note_on,120,0,1,,,,,,,,,0,,,76,0
72120,note_on,0,0,1,,,,,,,,,0,,,69,36
72120,note_on,0,0,3,,,,,,,,,2,,,66,36
72120,note_on,40,0,3,,,,,,,,,2,,,68,0
72159,note_on,39,0,1,,,,,,,,,0,,,71,36
72159,note_on,39,0,3,,,,,,,,,2,,,68,36
72160,note_on,1,0,3,,,,,,,,,2,,,66,0
72160,note_on,1,0,1,,,,,,,,,0,,,69,0
72199,note_on,39,0,1,,,,,,,,,0,,,71,0
72199,note_on,39,0,3,,,,,,,,,2,,,68,0
72200,note_on,1,0,1,,,,,,,,,0,,,72,36
72200,note_on,1,0,3,,,,,,,,,2,,,69,36
72240,note_on,40,0,1,,,,,,,,,0,,,72,0
72240,note_on,40,0,3,,,,,,,,,2,,,69,0
72240,note_on,0,0,3,,,,,,,,,2,,,71,75
72240,note_on,0,0,1,,,,,,,,,0,,,71,36
72279,note_on,39,0,1,,,,,,,,,0,,,72,36
72280,note_on,1,0,1,,,,,,,,,0,,,71,0
72319,note_on,39,0,1,,,,,,,,,0,,,72,0
72320,note_on,1,0,1,,,,,,,,,0,,,74,36
72360,note_on,0,0,3,,,,,,,,,2,,,64,49
72360,note_on,0,0,1,,,,,,,,,0,,,76,62
72360,note_on,120,0,3,,,,,,,,,2,,,71,0
72360,note_on,40,0,1,,,,,,,,,0,,,74,0
72399,note_on,39,0,3,,,,,,,,,2,,,66,49
72400,note_on,1,0,3,,,,,,,,,2,,,64,0
72439,note_on,39,0,3,,,,,,,,,2,,,66,0
72440,note_on,1,0,3,,,,,,,,,2,,,68,49
72480,note_on,40,0,3,,,,,,,,,2,,,68,0
72480,note_on,120,0,1,,,,,,,,,0,,,76,0
72480,note_on,0,0,1,,,,,,,,,0,,,69,36
72480,note_on,0,0,3,,,,,,,,,2,,,66,36
72519,note_on,39,0,1,,,,,,,,,0,,,71,36
72519,note_on,39,0,3,,,,,,,,,2,,,68,36
72520,note_on,1,0,3,,,,,,,,,2,,,66,0
72520,note_on,1,0,1,,,,,,,,,0,,,69,0
72559,note_on,39,0,1,,,,,,,,,0,,,71,0
72559,note_on,39,0,3,,,,,,,,,2,,,68,0
72560,note_on,1,0,1,,,,,,,,,0,,,72,36
72560,note_on,1,0,3,,,,,,,,,2,,,69,36
72600,note_on,40,0,1,,,,,,,,,0,,,72,0
72600,note_on,0,0,1,,,,,,,,,0,,,71,36
72600,note_on,40,0,3,,,,,,,,,2,,,69,0
72600,note_on,0,0,3,,,,,,,,,2,,,71,62
72639,note_on,39,0,1,,,,,,,,,0,,,72,36
72640,note_on,1,0,1,,,,,,,,,0,,,71,0
72679,note_on,39,0,1,,,,,,,,,0,,,72,0
72680,note_on,1,0,1,,,,,,,,,0,,,74,36
72720,note_on,0,0,3,,,,,,,,,2,,,69,36
72720,note_on,120,0,3,,,,,,,,,2,,,71,0
72720,note_on,0,0,1,,,,,,,,,0,,,72,36
72720,note_on,40,0,1,,,,,,,,,0,,,74,0
72759,note_on,39,0,3,,,,,,,,,2,,,71,36
72759,note_on,39,0,1,,,,,,,,,0,,,74,36
72760,note_on,1,0,3,,,,,,,,,2,,,69,0
72760,note_on,1,0,1,,,,,,,,,0,,,72,0
72799,note_on,39,0,3,,,,,,,,,2,,,71,0
72799,note_on,39,0,1,,,,,,,,,0,,,74,0
72800,note_on,1,0,1,,,,,,,,,0,,,76,36
72800,note_on,1,0,3,,,,,,,,,2,,,72,36
72840,note_on,0,0,3,,,,,,,,,2,,,74,36
72840,note_on,40,0,1,,,,,,,,,0,,,76,0
72840,control_change,0,0,1,,,,,,,,,0,64,127,,
72840,note_on,40,0,3,,,,,,,,,2,,,72,0
72840,control_change,0,0,3,,,,,,,,,2,64,127,,
72840,note_on,0,0,1,,,,,,,,,0,,,77,36
72879,note_on,39,0,1,,,,,,,,,0,,,79,36
72879,note_on,39,0,3,,,,,,,,,2,,,76,36
72880,note_on,1,0,1,,,,,,,,,0,,,77,0
72880,note_on,1,0,3,,,,,,,,,2,,,74,0
72919,note_on,39,0,3,,,,,,,,,2,,,76,0
72919,note_on,39,0,1,,,,,,,,,0,,,79,0
72920,note_on,1,0,3,,,,,,,,,2,,,77,36
72920,note_on,1,0,1,,,,,,,,,0,,,81,36
72960,note_on,40,0,1,,,,,,,,,0,,,81,0
72960,control_change,0,0,3,,,,,,,,,2,64,0,,
72960,note_on,0,0,3,,,,,,,,,2,,,76,36
72960,note_on,0,0,1,,,,,,,,,0,,,79,36
72960,control_change,0,0,1,,,,,,,,,0,64,0,,
72960,note_on,40,0,3,,,,,,,,,2,,,77,0
72999,note_on,39,0,3,,,,,,,,,2,,,74,36
72999,note_on,39,0,1,,,,,,,,,0,,,77,36
73000,note_on,1,0,3,,,,,,,,,2,,,76,0
73000,note_on,1,0,1,,,,,,,,,0,,,79,0
73039,note_on,39,0,3,,,,,,,,,2,,,74,0
73039,note_on,39,0,1,,,,,,,,,0,,,77,0
73040,note_on,1,0,1,,,,,,,,,0,,,76,36
73040,note_on,1,0,3,,,,,,,,,2,,,72,36
73080,note_on,40,0,1,,,,,,,,,0,,,76,0
73080,note_on,0,0,1,,,,,,,,,0,,,74,36
73080,note_on,0,0,3,,,,,,,,,2,,,71,36
73080,note_on,40,0,3,,,,,,,,,2,,,72,0
73119,note_on,39,0,1,,,,,,,,,0,,,72,36
73119,note_on,39,0,3,,,,,,,,,2,,,69,36
73120,note_on,1,0,1,,,,,,,,,0,,,74,0
73120,note_on,1,0,3,,,,,,,,,2,,,71,0
73159,note_on,39,0,1,,,,,,,,,0,,,72,0
73159,note_on,39,0,3,,,,,,,,,2,,,69,0
73160,note_on,1,0,1,,,,,,,,,0,,,71,36
73160,note_on,1,0,3,,,,,,,,,2,,,67,36
73200,note_on,40,0,3,,,,,,,,,2,,,67,0
73200,note_on,0,0,3,,,,,,,,,2,,,65,49
73200,control_change,0,0,1,,,,,,,,,0,64,127,,
73200,note_on,40,0,1,,,,,,,,,0,,,71,0
73200,note_on,0,0,1,,,,,,,,,0,,,69,36
73212,note_on,12,0,3,,,,,,,,,2,,,65,0
73239,note_on,39,0,1,,,,,,,,,0,,,71,36
73240,note_on,1,0,1,,,,,,,,,0,,,69,0
73279,note_on,39,0,1,,,,,,,,,0,,,71,0
73280,note_on,1,0,1,,,,,,,,,0,,,72,36
73320,note_on,108,0,3,,,,,,,,,2,,,60,49
73320,note_on,40,0,1,,,,,,,,,0,,,72,0
73320,note_on,0,0,1,,,,,,,,,0,,,71,36
73320,control_change,0,0,1,,,,,,,,,0,64,0,,
73332,note_on,12,0,3,,,,,,,,,2,,,60,0
73359,note_on,39,0,1,,,,,,,,,0,,,69,36
73360,note_on,1,0,1,,,,,,,,,0,,,71,0
73399,note_on,39,0,1,,,,,,,,,0,,,69,0
73400,note_on,1,0,1,,,,,,,,,0,,,67,36
73440,note_on,0,0,1,,,,,,,,,0,,,65,36
73440,note_on,40,0,1,,,,,,,,,0,,,67,0
73440,note_on,108,0,3,,,,,,,,,2,,,57,49
73452,note_on,12,0,3,,,,,,,,,2,,,57,0
73479,note_on,39,0,1,,,,,,,,,0,,,64,36
73480,note_on,1,0,1,,,,,,,,,0,,,65,0
73519,note_on,39,0,1,,,,,,,,,0,,,64,0
73520,note_on,1,0,1,,,,,,,,,0,,,63,36
73560,note_on,0,0,3,,,,,,,,,2,,,56,49
73560,note_on,0,0,1,,,,,,,,,0,,,64,36
73560,note_on,40,0,1,,,,,,,,,0,,,63,0
73560,control_change,108,0,3,,,,,,,,,2,64,127,,
73599,note_on,39,0,3,,,,,,,,,2,,,54,49
73600,note_on,1,0,3,,,,,,,,,2,,,56,0
73639,note_on,39,0,3,,,,,,,,,2,,,54,0
73640,note_on,1,0,3,,,,,,,,,2,,,52,49
73680,note_on,40,0,3,,,,,,,,,2,,,52,0
73680,note_on,0,0,3,,,,,,,,,2,,,51,49
73680,note_on,120,0,1,,,,,,,,,0,,,64,0
73719,note_on,39,0,3,,,,,,,,,2,,,49,49
73720,note_on,1,0,3,,,,,,,,,2,,,51,0
73759,note_on,39,0,3,,,,,,,,,2,,,49,0
73760,note_on,0,0,3,,,,,,,,,2,,,47,49
73760,control_change,1,0,3,,,,,,,,,2,64,0,,
73800,note_on,0,0,3,,,,,,,,,2,,,57,75
73800,control_change,120,0,1,,,,,,,,,0,64,0,,
73800,note_on,40,0,3,,,,,,,,,2,,,47,0
73800,note_on,0,0,1,,,,,,,,,0,,,59,62
73839,note_on,39,0,1,,,,,,,,,0,,,61,36
73840,note_on,1,0,1,,,,,,,,,0,,,59,0
73879,note_on,39,0,1,,,,,,,,,0,,,61,0
73880,note_on,1,0,1,,,,,,,,,0,,,63,36
73920,note_on,40,0,1,,,,,,,,,0,,,63,0
73920,control_change,0,0,1,,,,,,,,,0,64,127,,
73920,note_on,0,0,1,,,,,,,,,0,,,64,36
73920,note_on,0,0,3,,,,,,,,,2,,,56,49
73920,control_change,0,0,3,,,,,,,,,2,64,127,,
73920,note_on,120,0,3,,,,,,,,,2,,,57,0
73959,note_on,39,0,3,,,,,,,,,2,,,54,49
73959,note_on,39,0,1,,,,,,,,,0,,,66,36
73960,note_on,1,0,3,,,,,,,,,2,,,56,0
73960,note_on,1,0,1,,,,,,,,,0,,,64,0
73999,note_on,39,0,1,,,,,,,,,0,,,66,0
73999,note_on,39,0,3,,,,,,,,,2,,,54,0
74000,note_on,1,0,1,,,,,,,,,0,,,67,36
74000,note_on,1,0,3,,,,,,,,,2,,,52,49
74040,note_on,40,0,1,,,,,,,,,0,,,67,0
74040,note_on,0,0,3,,,,,,,,,2,,,51,49
74040,note_on,40,0,3,,,,,,,,,2,,,52,0
74040,note_on,0,0,1,,,,,,,,,0,,,69,62
74079,note_on,39,0,3,,,,,,,,,2,,,49,49
74080,note_on,1,0,3,,,,,,,,,2,,,51,0
74119,note_on,39,0,3,,,,,,,,,2,,,49,0
74120,control_change,1,0,3,,,,,,,,,2,64,0,,
74120,note_on,0,0,3,,,,,,,,,2,,,47,49
74160,note_on,40,0,3,,,,,,,,,2,,,47,0
74160,note_on,0,0,3,,,,,,,,,2,,,57,75
74160,note_on,120,0,1,,,,,,,,,0,,,69,0
74160,control_change,0,0,1,,,,,,,,,0,64,0,,
74160,note_on,0,0,1,,,,,,,,,0,,,59,62
74199,note_on,39,0,1,,,,,,,,,0,,,61,36
74200,note_on,1,0,1,,,,,,,,,0,,,59,0
74239,note_on,39,0,1,,,,,,,,,0,,,61,0
74240,note_on,1,0,1,,,,,,,,,0,,,63,36
74280,note_on,0,0,1,,,,,,,,,0,,,64,36
74280,note_on,0,0,3,,,,,,,,,2,,,56,36
74280,control_change,0,0,3,,,,,,,,,2,64,127,,
74280,note_on,120,0,3,,,,,,,,,2,,,57,0
74280,control_change,0,0,1,,,,,,,,,0,64,127,,
74280,note_on,40,0,1,,,,,,,,,0,,,63,0
74319,note_on,39,0,3,,,,,,,,,2,,,54,36
74319,note_on,39,0,1,,,,,,,,,0,,,66,36
74320,note_on,1,0,1,,,,,,,,,0,,,64,0
74320,note_on,1,0,3,,,,,,,,,2,,,56,0
74359,note_on,39,0,1,,,,,,,,,0,,,66,0
74359,note_on,39,0,3,,,,,,,,,2,,,54,0
74360,note_on,1,0,3,,,,,,,,,2,,,52,36
74360,note_on,1,0,1,,,,,,,,,0,,,67,36
74400,note_on,40,0,3,,,,,,,,,2,,,52,0
74400,note_on,0,0,3,,,,,,,,,2,,,51,49
74400,note_on,0,0,1,,,,,,,,,0,,,69,62
74400,note_on,40,0,1,,,,,,,,,0,,,67,0
74439,note_on,39,0,3,,,,,,,,,2,,,49,49
74440,note_on,1,0,3,,,,,,,,,2,,,51,0
74479,note_on,39,0,3,,,,,,,,,2,,,49,0
74480,note_on,0,0,3,,,,,,,,,2,,,47,49
74480,control_change,1,0,3,,,,,,,,,2,64,0,,
74520,note_on,0,0,3,,,,,,,,,2,,,57,75
74520,note_on,40,0,3,,,,,,,,,2,,,47,0
74520,control_change,0,0,1,,,,,,,,,0,64,0,,
74520,note_on,0,0,1,,,,,,,,,0,,,59,62
74520,note_on,120,0,1,,,,,,,,,0,,,69,0
74559,note_on,39,0,1,,,,,,,,,0,,,61,36
74560,note_on,1,0,1,,,,,,,,,0,,,59,0
74599,note_on,39,0,1,,,,,,,,,0,,,61,0
74600,note_on,1,0,1,,,,,,,,,0,,,63,36
74640,control_change,0,0,3,,,,,,,,,2,64,127,,
74640,note_on,0,0,3,,,,,,,,,2,,,56,49
74640,note_on,40,0,1,,,,,,,,,0,,,63,0
74640,control_change,0,0,1,,,,,,,,,0,64,127,,
74640,note_on,0,0,1,,,,,,,,,0,,,64,36
74640,note_on,120,0,3,,,,,,,,,2,,,57,0
74679,note_on,39,0,3,,,,,,,,,2,,,54,49
74679,note_on,39,0,1,,,,,,,,,0,,,66,36
74680,note_on,1,0,1,,,,,,,,,0,,,64,0
74680,note_on,1,0,3,,,,,,,,,2,,,56,0
74719,note_on,39,0,3,,,,,,,,,2,,,54,0
74719,note_on,39,0,1,,,,,,,,,0,,,66,0
74720,note_on,1,0,1,,,,,,,,,0,,,68,36
74720,note_on,1,0,3,,,,,,,,,2,,,52,49
74760,note_on,40,0,3,,,,,,,,,2,,,52,0
74760,control_change,0,0,3,,,,,,,,,2,64,0,,
74760,note_on,0,0,3,,,,,,,,,2,,,54,49
74760,note_on,0,0,1,,,,,,,,,0,,,66,36
74760,control_change,0,0,1,,,,,,,,,0,64,0,,
74760,note_on,40,0,1,,,,,,,,,0,,,68,0
74799,note_on,39,0,3,,,,,,,,,2,,,52,49
74799,note_on,39,0,1,,,,,,,,,0,,,68,36
74800,note_on,1,0,3,,,,,,,,,2,,,54,0
74800,note_on,1,0,1,,,,,,,,,0,,,66,0
74839,note_on,39,0,1,,,,,,,,,0,,,68,0
74839,note_on,39,0,3,,,,,,,,,2,,,52,0
74840,note_on,1,0,1,,,,,,,,,0,,,69,36
74840,note_on,1,0,3,,,,,,,,,2,,,51,49
74880,note_on,0,0,1,,,,,,,,,0,,,68,62
74880,note_on,40,0,1,,,,,,,,,0,,,69,0
74880,note_on,40,0,3,,,,,,,,,2,,,51,0
74880,note_on,0,0,3,,,,,,,,,2,,,52,49
74919,note_on,39,0,3,,,,,,,,,2,,,51,49
74919,note_on,39,0,1,,,,,,,,,0,,,69,62
74920,note_on,1,0,3,,,,,,,,,2,,,52,0
74920,note_on,1,0,1,,,,,,,,,0,,,68,0
74959,note_on,39,0,1,,,,,,,,,0,,,69,0
74959,note_on,39,0,3,,,,,,,,,2,,,51,0
74960,note_on,1,0,1,,,,,,,,,0,,,71,62
74960,note_on,1,0,3,,,,,,,,,2,,,50,49
75000,note_on,40,0,3,,,,,,,,,2,,,50,0
75000,note_on,0,0,3,,,,,,,,,2,,,54,49
75000,note_on,40,0,1,,,,,,,,,0,,,71,0
75000,note_on,0,0,1,,,,,,,,,0,,,69,62
75039,note_on,39,0,1,,,,,,,,,0,,,71,62
75039,note_on,39,0,3,,,,,,,,,2,,,55,49
75040,note_on,1,0,1,,,,,,,,,0,,,69,0
75040,note_on,1,0,3,,,,,,,,,2,,,54,0
75079,note_on,39,0,3,,,,,,,,,2,,,55,0
75079,note_on,39,0,1,,,,,,,,,0,,,71,0
75080,note_on,1,0,1,,,,,,,,,0,,,72,62
75080,note_on,1,0,3,,,,,,,,,2,,,57,49
75120,note_on,0,0,1,,,,,,,,,0,,,71,75
75120,note_on,40,0,1,,,,,,,,,0,,,72,0
75120,note_on,40,0,3,,,,,,,,,2,,,57,0
75120,note_on,0,0,3,,,,,,,,,2,,,56,62
75159,note_on,39,0,1,,,,,,,,,0,,,72,75
75159,note_on,39,0,3,,,,,,,,,2,,,57,62
75160,note_on,1,0,3,,,,,,,,,2,,,56,0
75160,note_on,1,0,1,,,,,,,,,0,,,71,0
75199,note_on,39,0,3,,,,,,,,,2,,,57,0
75199,note_on,39,0,1,,,,,,,,,0,,,72,0
75200,note_on,1,0,1,,,,,,,,,0,,,74,75
75200,note_on,1,0,3,,,,,,,,,2,,,59,62
75240,note_on,40,0,3,,,,,,,,,2,,,59,0
75240,note_on,0,0,3,,,,,,,,,2,,,57,62
75240,note_on,40,0,1,,,,,,,,,0,,,74,0
75240,note_on,0,0,1,,,,,,,,,0,,,72,75
75279,note_on,39,0,1,,,,,,,,,0,,,74,75
75279,note_on,39,0,3,,,,,,,,,2,,,59,62
75280,note_on,1,0,3,,,,,,,,,2,,,57,0
75280,note_on,1,0,1,,,,,,,,,0,,,72,0
75319,note_on,39,0,1,,,,,,,,,0,,,74,0
75319,note_on,39,0,3,,,,,,,,,2,,,59,0
75320,note_on,1,0,1,,,,,,,,,0,,,76,75
75320,note_on,1,0,3,,,,,,,,,2,,,60,62
75360,note_on,40,0,1,,,,,,,,,0,,,76,0
75360,note_on,0,0,3,,,,,,,,,2,,,62,88
75360,control_change,0,0,3,,,,,,,,,2,64,127,,
75360,note_on,0,0,1,,,,,,,,,0,,,65,101
75360,note_on,40,0,3,,,,,,,,,2,,,60,0
75360,control_change,0,0,1,,,,,,,,,0,64,127,,
75399,note_on,39,0,3,,,,,,,,,2,,,58,88
75399,note_on,39,0,1,,,,,,,,,0,,,70,101
75400,note_on,1,0,3,,,,,,,,,2,,,62,0
75400,note_on,1,0,1,,,,,,,,,0,,,65,0
75439,note_on,39,0,1,,,,,,,,,0,,,70,0
75439,note_on,39,0,3,,,,,,,,,2,,,58,0
75440,note_on,1,0,1,,,,,,,,,0,,,74,101
75440,note_on,1,0,3,,,,,,,,,2,,,53,88
75480,note_on,40,0,3,,,,,,,,,2,,,53,0
75480,note_on,0,0,3,,,,,,,,,2,,,50,88
75480,note_on,0,0,1,,,,,,,,,0,,,77,101
75480,note_on,40,0,1,,,,,,,,,0,,,74,0
75519,note_on,39,0,3,,,,,,,,,2,,,46,88
75519,note_on,39,0,1,,,,,,,,,0,,,82,101
75520,note_on,1,0,1,,,,,,,,,0,,,77,0
75520,note_on,1,0,3,,,,,,,,,2,,,50,0
75559,note_on,39,0,3,,,,,,,,,2,,,46,0
75559,note_on,39,0,1,,,,,,,,,0,,,82,0
75560,note_on,1,0,3,,,,,,,,,2,,,41,88
75560,note_on,1,0,1,,,,,,,,,0,,,86,101
75600,note_on,40,0,3,,,,,,,,,2,,,41,0
75600,note_on,0,0,3,,,,,,,,,2,,,38,88
75600,note_on,0,0,1,,,,,,,,,0,,,89,101
75600,note_on,40,0,1,,,,,,,,,0,,,86,0
75639,note_on,39,0,1,,,,,,,,,0,,,94,101
75639,note_on,39,0,3,,,,,,,,,2,,,34,88
75640,note_on,1,0,1,,,,,,,,,0,,,89,0
75640,note_on,1,0,3,,,,,,,,,2,,,38,0
75679,note_on,39,0,3,,,,,,,,,2,,,34,0
75679,note_on,39,0,1,,,,,,,,,0,,,94,0
75680,note_on,1,0,3,,,,,,,,,2,,,29,88
75680,note_on,1,0,1,,,,,,,,,0,,,98,101
75720,note_on,40,0,3,,,,,,,,,2,,,29,0
75720,note_on,0,0,1,,,,,,,,,0,,,101,101
75720,note_on,40,0,1,,,,,,,,,0,,,98,0
75720,note_on,0,0,3,,,,,,,,,2,,,26,88
75780,note_on,60,0,3,,,,,,,,,2,,,26,0
75780,control_change,0,0,3,,,,,,,,,2,64,0,,
75780,control_change,0,0,1,,,,,,,,,0,64,0,,
75780,note_on,60,0,1,,,,,,,,,0,,,101,0
75840,note_on,0,0,3,,,,,,,,,2,,,52,114
75840,note_on,0,0,1,,,,,,,,,0,,,69,119
75840,note_on,0,0,1,,,,,,,,,0,,,72,123
75840,note_on,0,0,1,,,,,,,,,0,,,76,127
75840,note_on,0,0,3,,,,,,,,,2,,,45,106
75840,note_on,60,0,3,,,,,,,,,2,,,40,102
75840,note_on,60,0,1,,,,,,,,,0,,,64,115
75840,note_on,0,0,3,,,,,,,,,2,,,48,110
75852,note_on,12,0,3,,,,,,,,,2,,,52,0
75852,note_on,0,0,3,,,,,,,,,2,,,45,0
75852,note_on,0,0,3,,,,,,,,,2,,,48,0
75852,note_on,12,0,1,,,,,,,,,0,,,76,0
75852,note_on,0,0,1,,,,,,,,,0,,,64,0
75852,note_on,0,0,1,,,,,,,,,0,,,69,0
75852,note_on,0,0,1,,,,,,,,,0,,,72,0
75852,note_on,0,0,3,,,,,,,,,2,,,40,0
75960,note_on,108,0,1,,,,,,,,,0,,,64,115
75960,note_on,0,0,1,,,,,,,,,0,,,68,119
75960,note_on,0,0,1,,,,,,,,,0,,,76,127
75960,note_on,0,0,3,,,,,,,,,2,,,52,114
75960,note_on,0,0,3,,,,,,,,,2,,,47,110
75960,note_on,0,0,3,,,,,,,,,2,,,44,106
75960,note_on,108,0,3,,,,,,,,,2,,,40,102
75960,note_on,0,0,1,,,,,,,,,0,,,71,123
75972,note_on,12,0,1,,,,,,,,,0,,,76,0
75972,note_on,0,0,1,,,,,,,,,0,,,64,0
75972,note_on,0,0,1,,,,,,,,,0,,,68,0
75972,note_on,0,0,1,,,,,,,,,0,,,71,0
75972,note_on,12,0,3,,,,,,,,,2,,,52,0
75972,note_on,0,0,3,,,,,,,,,2,,,40,0
75972,note_on,0,0,3,,,,,,,,,2,,,44,0
75972,note_on,0,0,3,,,,,,,,,2,,,47,0
76080,note_on,108,0,1,,,,,,,,,0,,,69,75
76080,note_on,0,0,3,,,,,,,,,2,,,60,62
76080,control_change,108,0,3,,,,,,,,,2,64,127,,
76119,note_on,39,0,3,,,,,,,,,2,,,59,62
76120,note_on,1,0,3,,,,,,,,,2,,,60,0
76159,note_on,39,0,3,,,,,,,,,2,,,59,0
76160,note_on,1,0,3,,,,,,,,,2,,,57,62
76200,note_on,40,0,3,,,,,,,,,2,,,57,0
76200,note_on,120,0,1,,,,,,,,,0,,,69,0
76200,note_on,0,0,3,,,,,,,,,2,,,56,75
76239,note_on,39,0,3,,,,,,,,,2,,,54,75
76240,note_on,1,0,3,,,,,,,,,2,,,56,0
76279,note_on,39,0,3,,,,,,,,,2,,,54,0
76280,note_on,1,0,3,,,,,,,,,2,,,52,75
76320,note_on,0,0,1,,,,,,,,,0,,,64,75
76320,control_change,120,0,1,,,,,,,,,0,64,0,,
76320,note_on,0,0,3,,,,,,,,,2,,,62,75
76320,control_change,0,0,3,,,,,,,,,2,64,0,,
76320,note_on,40,0,3,,,,,,,,,2,,,52,0
76359,note_on,39,0,1,,,,,,,,,0,,,66,75
76360,note_on,1,0,1,,,,,,,,,0,,,64,0
76399,note_on,39,0,1,,,,,,,,,0,,,66,0
76400,note_on,1,0,1,,,,,,,,,0,,,68,75
76440,control_change,0,0,1,,,,,,,,,0,64,127,,
76440,note_on,0,0,1,,,,,,,,,0,,,69,75
76440,control_change,0,0,3,,,,,,,,,2,64,127,,
76440,note_on,0,0,3,,,,,,,,,2,,,60,62
76440,note_on,40,0,1,,,,,,,,,0,,,68,0
76440,note_on,120,0,3,,,,,,,,,2,,,62,0
76479,note_on,39,0,3,,,,,,,,,2,,,59,62
76479,note_on,39,0,1,,,,,,,,,0,,,71,75
76480,note_on,1,0,3,,,,,,,,,2,,,60,0
76480,note_on,1,0,1,,,,,,,,,0,,,69,0
76519,note_on,39,0,3,,,,,,,,,2,,,59,0
76519,note_on,39,0,1,,,,,,,,,0,,,71,0
76520,note_on,1,0,3,,,,,,,,,2,,,57,62
76520,note_on,1,0,1,,,,,,,,,0,,,72,75
76560,note_on,0,0,3,,,,,,,,,2,,,56,75
76560,note_on,40,0,3,,,,,,,,,2,,,57,0
76560,note_on,0,0,1,,,,,,,,,0,,,74,75
76560,note_on,40,0,1,,,,,,,,,0,,,72,0
76599,note_on,39,0,3,,,,,,,,,2,,,54,75
76600,note_on,1,0,3,,,,,,,,,2,,,56,0
76639,note_on,39,0,3,,,,,,,,,2,,,54,0
76640,note_on,1,0,3,,,,,,,,,2,,,52,75
76680,control_change,0,0,1,,,,,,,,,0,64,0,,
76680,note_on,120,0,1,,,,,,,,,0,,,74,0
76680,note_on,0,0,1,,,,,,,,,0,,,64,75
76680,control_change,0,0,3,,,,,,,,,2,64,0,,
76680,note_on,40,0,3,,,,,,,,,2,,,52,0
76680,note_on,0,0,3,,,,,,,,,2,,,62,75
76719,note_on,39,0,1,,,,,,,,,0,,,66,75
76720,note_on,1,0,1,,,,,,,,,0,,,64,0
76759,note_on,39,0,1,,,,,,,,,0,,,66,0
76760,note_on,1,0,1,,,,,,,,,0,,,68,75
76800,note_on,40,0,1,,,,,,,,,0,,,68,0
76800,note_on,0,0,1,,,,,,,,,0,,,69,75
76800,note_on,120,0,3,,,,,,,,,2,,,62,0
76800,control_change,0,0,3,,,,,,,,,2,64,127,,
76800,note_on,0,0,3,,,,,,,,,2,,,60,62
76800,control_change,0,0,1,,,,,,,,,0,64,127,,
76839,note_on,39,0,3,,,,,,,,,2,,,59,62
76839,note_on,39,0,1,,,,,,,,,0,,,71,75
76840,note_on,1,0,3,,,,,,,,,2,,,60,0
76840,note_on,1,0,1,,,,,,,,,0,,,69,0
76879,note_on,39,0,3,,,,,,,,,2,,,59,0
76879,note_on,39,0,1,,,,,,,,,0,,,71,0
76880,note_on,1,0,3,,,,,,,,,2,,,57,62
76880,note_on,1,0,1,,,,,,,,,0,,,72,75
76920,note_on,0,0,1,,,,,,,,,0,,,74,75
76920,note_on,40,0,3,,,,,,,,,2,,,57,0
76920,note_on,40,0,1,,,,,,,,,0,,,72,0
76920,note_on,0,0,3,,,,,,,,,2,,,56,75
76959,note_on,39,0,3,,,,,,,,,2,,,54,75
76960,note_on,1,0,3,,,,,,,,,2,,,56,0
76999,note_on,39,0,3,,,,,,,,,2,,,54,0
77000,note_on,1,0,3,,,,,,,,,2,,,52,75
77040,note_on,40,0,3,,,,,,,,,2,,,52,0
77040,control_change,0,0,3,,,,,,,,,2,64,0,,
77040,note_on,0,0,3,,,,,,,,,2,,,62,75
77040,note_on,0,0,1,,,,,,,,,0,,,64,75
77040,control_change,0,0,1,,,,,,,,,0,64,0,,
77040,note_on,120,0,1,,,,,,,,,0,,,74,0
77079,note_on,39,0,1,,,,,,,,,0,,,66,75
77080,note_on,1,0,1,,,,,,,,,0,,,64,0
77119,note_on,39,0,1,,,,,,,,,0,,,66,0
77120,note_on,1,0,1,,,,,,,,,0,,,68,75
77160,note_on,0,0,3,,,,,,,,,2,,,60,75
77160,note_on,0,0,1,,,,,,,,,0,,,69,75
77160,note_on,120,0,3,,,,,,,,,2,,,62,0
77160,control_change,0,0,3,,,,,,,,,2,64,127,,
77160,note_on,40,0,1,,,,,,,,,0,,,68,0
77160,control_change,0,0,1,,,,,,,,,0,64,127,,
77199,note_on,39,0,3,,,,,,,,,2,,,59,75
77199,note_on,39,0,1,,,,,,,,,0,,,71,75
77200,note_on,1,0,1,,,,,,,,,0,,,69,0
77200,note_on,1,0,3,,,,,,,,,2,,,60,0
77239,note_on,39,0,3,,,,,,,,,2,,,59,0
77239,note_on,39,0,1,,,,,,,,,0,,,71,0
77240,note_on,1,0,1,,,,,,,,,0,,,72,75
77240,note_on,1,0,3,,,,,,,,,2,,,57,75
77280,note_on,0,0,3,,,,,,,,,2,,,56,75
77280,control_change,0,0,1,,,,,,,,,0,64,0,,
77280,note_on,0,0,1,,,,,,,,,0,,,71,88
77280,note_on,40,0,3,,,,,,,,,2,,,57,0
77280,note_on,40,0,1,,,,,,,,,0,,,72,0
77280,control_change,0,0,3,,,,,,,,,2,64,0,,
77319,note_on,39,0,1,,,,,,,,,0,,,72,88
77319,note_on,39,0,3,,,,,,,,,2,,,57,75
77320,note_on,1,0,1,,,,,,,,,0,,,71,0
77320,note_on,1,0,3,,,,,,,,,2,,,56,0
77359,note_on,39,0,1,,,,,,,,,0,,,72,0
77359,note_on,39,0,3,,,,,,,,,2,,,57,0
77360,note_on,1,0,3,,,,,,,,,2,,,59,75
77360,note_on,1,0,1,,,,,,,,,0,,,74,88
77400,note_on,40,0,3,,,,,,,,,2,,,59,0
77400,note_on,0,0,3,,,,,,,,,2,,,57,75
77400,note_on,0,0,1,,,,,,,,,0,,,72,88
77400,note_on,40,0,1,,,,,,,,,0,,,74,0
77439,note_on,39,0,1,,,,,,,,,0,,,74,88
77439,note_on,39,0,3,,,,,,,,,2,,,59,75
77440,note_on,1,0,1,,,,,,,,,0,,,72,0
77440,note_on,1,0,3,,,,,,,,,2,,,57,0
77479,note_on,39,0,1,,,,,,,,,0,,,74,0
77479,note_on,39,0,3,,,,,,,,,2,,,59,0
77480,note_on,1,0,3,,,,,,,,,2,,,60,75
77480,note_on,1,0,1,,,,,,,,,0,,,76,88
77520,note_on,40,0,1,,,,,,,,,0,,,76,0
77520,control_change,0,0,1,,,,,,,,,0,64,127,,
77520,note_on,0,0,1,,,,,,,,,0,,,65,101
77520,note_on,40,0,3,,,,,,,,,2,,,60,0
77520,control_change,0,0,3,,,,,,,,,2,64,127,,
77520,note_on,0,0,3,,,,,,,,,2,,,62,88
77559,note_on,39,0,1,,,,,,,,,0,,,70,101
77559,note_on,39,0,3,,,,,,,,,2,,,58,88
77560,note_on,1,0,1,,,,,,,,,0,,,65,0
77560,note_on,1,0,3,,,,,,,,,2,,,62,0
77599,note_on,39,0,3,,,,,,,,,2,,,58,0
77599,note_on,39,0,1,,,,,,,,,0,,,70,0
77600,note_on,1,0,3,,,,,,,,,2,,,53,88
77600,note_on,1,0,1,,,,,,,,,0,,,74,101
77640,note_on,0,0,1,,,,,,,,,0,,,77,101
77640,note_on,40,0,3,,,,,,,,,2,,,53,0
77640,note_on,0,0,3,,,,,,,,,2,,,50,88
77640,note_on,40,0,1,,,,,,,,,0,,,74,0
77679,note_on,39,0,3,,,,,,,,,2,,,46,88
77679,note_on,39,0,1,,,,,,,,,0,,,82,101
77680,note_on,1,0,1,,,,,,,,,0,,,77,0
77680,note_on,1,0,3,,,,,,,,,2,,,50,0
77719,note_on,39,0,1,,,,,,,,,0,,,82,0
77719,note_on,39,0,3,,,,,,,,,2,,,46,0
77720,note_on,1,0,1,,,,,,,,,0,,,86,101
77720,note_on,1,0,3,,,,,,,,,2,,,41,88
77760,note_on,40,0,1,,,,,,,,,0,,,86,0
77760,note_on,40,0,3,,,,,,,,,2,,,41,0
77760,note_on,0,0,1,,,,,,,,,0,,,89,101
77760,note_on,0,0,3,,,,,,,,,2,,,38,88
77799,note_on,39,0,3,,,,,,,,,2,,,34,88
77799,note_on,39,0,1,,,,,,,,,0,,,94,101
77800,note_on,1,0,3,,,,,,,,,2,,,38,0
77800,note_on,1,0,1,,,,,,,,,0,,,89,0
77839,note_on,39,0,3,,,,,,,,,2,,,34,0
77839,note_on,39,0,1,,,,,,,,,0,,,94,0
77840,note_on,1,0,3,,,,,,,,,2,,,29,88
77840,note_on,1,0,1,,,,,,,,,0,,,98,101
77880,note_on,0,0,1,,,,,,,,,0,,,101,101
77880,note_on,40,0,1,,,,,,,,,0,,,98,0
77880,note_on,40,0,3,,,,,,,,,2,,,29,0
77880,note_on,0,0,3,,,,,,,,,2,,,26,88
77940,control_change,0,0,1,,,,,,,,,0,64,0,,
77940,note_on,60,0,1,,,,,,,,,0,,,101,0
77940,note_on,60,0,3,,,,,,,,,2,,,26,0
77940,control_change,0,0,3,,,,,,,,,2,64,0,,
78000,note_on,0,0,1,,,,,,,,,0,,,69,119
78000,note_on,0,0,1,,,,,,,,,0,,,72,123
78000,note_on,60,0,1,,,,,,,,,0,,,64,115
78000,note_on,0,0,1,,,,,,,,,0,,,76,127
78000,note_on,60,0,3,,,,,,,,,2,,,40,102
78000,note_on,0,0,3,,,,,,,,,2,,,48,110
78000,note_on,0,0,3,,,,,,,,,2,,,45,106
78000,note_on,0,0,3,,,,,,,,,2,,,52,114
78012,note_on,0,0,3,,,,,,,,,2,,,48,0
78012,note_on,0,0,3,,,,,,,,,2,,,45,0
78012,note_on,0,0,3,,,,,,,,,2,,,40,0
78012,note_on,12,0,3,,,,,,,,,2,,,52,0
78012,note_on,12,0,1,,,,,,,,,0,,,76,0
78012,note_on,0,0,1,,,,,,,,,0,,,64,0
78012,note_on,0,0,1,,,,,,,,,0,,,69,0
78012,note_on,0,0,1,,,,,,,,,0,,,72,0
78120,note_on,0,0,1,,,,,,,,,0,,,76,127
78120,note_on,0,0,1,,,,,,,,,0,,,71,123
78120,note_on,0,0,1,,,,,,,,,0,,,68,119
78120,note_on,108,0,1,,,,,,,,,0,,,64,115
78120,note_on,0,0,3,,,,,,,,,2,,,47,110
78120,note_on,108,0,3,,,,,,,,,2,,,40,102
78120,note_on,0,0,3,,,,,,,,,2,,,44,106
78120,note_on,0,0,3,,,,,,,,,2,,,52,114
78132,note_on,12,0,1,,,,,,,,,0,,,76,0
78132,note_on,0,0,1,,,,,,,,,0,,,64,0
78132,note_on,0,0,3,,,,,,,,,2,,,44,0
78132,note_on,0,0,1,,,,,,,,,0,,,71,0
78132,note_on,12,0,3,,,,,,,,,2,,,52,0
78132,note_on,0,0,3,,,,,,,,,2,,,40,0
78132,note_on,0,0,1,,,,,,,,,0,,,68,0
78132,note_on,0,0,3,,,,,,,,,2,,,47,0
78240,control_change,108,0,3,,,,,,,,,2,64,127,,
78240,note_on,0,0,3,,,,,,,,,2,,,62,88
78240,control_change,108,0,1,,,,,,,,,0,64,127,,
78240,note_on,0,0,1,,,,,,,,,0,,,65,101
78279,note_on,39,0,3,,,,,,,,,2,,,58,88
78279,note_on,39,0,1,,,,,,,,,0,,,70,101
78280,note_on,1,0,1,,,,,,,,,0,,,65,0
78280,note_on,1,0,3,,,,,,,,,2,,,62,0
78319,note_on,39,0,1,,,,,,,,,0,,,70,0
78319,note_on,39,0,3,,,,,,,,,2,,,58,0
78320,note_on,1,0,3,,,,,,,,,2,,,53,88
78320,note_on,1,0,1,,,,,,,,,0,,,74,101
78360,note_on,0,0,1,,,,,,,,,0,,,77,101
78360,note_on,40,0,3,,,,,,,,,2,,,53,0
78360,note_on,0,0,3,,,,,,,,,2,,,50,88
78360,note_on,40,0,1,,,,,,,,,0,,,74,0
78399,note_on,39,0,1,,,,,,,,,0,,,82,101
78399,note_on,39,0,3,,,,,,,,,2,,,46,88
78400,note_on,1,0,1,,,,,,,,,0,,,77,0
78400,note_on,1,0,3,,,,,,,,,2,,,50,0
78439,note_on,39,0,1,,,,,,,,,0,,,82,0
78439,note_on,39,0,3,,,,,,,,,2,,,46,0
78440,note_on,1,0,3,,,,,,,,,2,,,41,88
78440,note_on,1,0,1,,,,,,,,,0,,,86,101
78480,note_on,0,0,3,,,,,,,,,2,,,38,88
78480,note_on,0,0,1,,,,,,,,,0,,,89,101
78480,note_on,40,0,3,,,,,,,,,2,,,41,0
78480,note_on,40,0,1,,,,,,,,,0,,,86,0
78519,note_on,39,0,1,,,,,,,,,0,,,94,101
78519,note_on,39,0,3,,,,,,,,,2,,,34,88
78520,note_on,1,0,3,,,,,,,,,2,,,38,0
78520,note_on,1,0,1,,,,,,,,,0,,,89,0
78559,note_on,39,0,3,,,,,,,,,2,,,34,0
78559,note_on,39,0,1,,,,,,,,,0,,,94,0
78560,note_on,1,0,1,,,,,,,,,0,,,98,101
78560,note_on,1,0,3,,,,,,,,,2,,,29,88
78600,note_on,0,0,1,,,,,,,,,0,,,101,101
78600,note_on,0,0,3,,,,,,,,,2,,,26,88
78600,note_on,40,0,3,,,,,,,,,2,,,29,0
78600,note_on,40,0,1,,,,,,,,,0,,,98,0
78660,control_change,0,0,3,,,,,,,,,2,64,0,,
78660,control_change,0,0,1,,,,,,,,,0,64,0,,
78660,note_on,60,0,1,,,,,,,,,0,,,101,0
78660,note_on,60,0,3,,,,,,,,,2,,,26,0
78720,note_on,0,0,3,,,,,,,,,2,,,62,114
78720,note_on,0,0,3,,,,,,,,,2,,,58,109
78720,note_on,60,0,3,,,,,,,,,2,,,53,104
78720,note_on,60,0,1,,,,,,,,,0,,,65,115
78720,note_on,0,0,1,,,,,,,,,0,,,70,119
78720,note_on,0,0,1,,,,,,,,,0,,,74,123
78720,note_on,0,0,1,,,,,,,,,0,,,77,127
78732,note_on,12,0,1,,,,,,,,,0,,,77,0
78732,note_on,12,0,3,,,,,,,,,2,,,62,0
78732,note_on,0,0,3,,,,,,,,,2,,,53,0
78732,note_on,0,0,1,,,,,,,,,0,,,65,0
78732,note_on,0,0,1,,,,,,,,,0,,,70,0
78732,note_on,0,0,1,,,,,,,,,0,,,74,0
78732,note_on,0,0,3,,,,,,,,,2,,,58,0
78840,note_on,108,0,3,,,,,,,,,2,,,53,104
78840,note_on,0,0,1,,,,,,,,,0,,,77,127
78840,note_on,0,0,1,,,,,,,,,0,,,72,123
78840,note_on,0,0,1,,,,,,,,,0,,,69,119
78840,note_on,108,0,1,,,,,,,,,0,,,65,115
78840,note_on,0,0,3,,,,,,,,,2,,,57,109
78840,note_on,0,0,3,,,,,,,,,2,,,60,114
78852,note_on,0,0,1,,,,,,,,,0,,,65,0
78852,note_on,0,0,1,,,,,,,,,0,,,69,0
78852,note_on,12,0,1,,,,,,,,,0,,,77,0
78852,note_on,0,0,1,,,,,,,,,0,,,72,0
78852,note_on,0,0,3,,,,,,,,,2,,,53,0
78852,note_on,0,0,3,,,,,,,,,2,,,57,0
78852,note_on,12,0,3,,,,,,,,,2,,,60,0
78960,note_on,108,0,1,,,,,,,,,0,,,79,114
78960,note_on,0,0,1,,,,,,,,,0,,,91,114
78960,note_on,108,0,3,,,,,,,,,2,,,31,101
78960,note_on,0,0,3,,,,,,,,,2,,,43,101
79080,note_on,0,0,1,,,,,,,,,0,,,67,127
79080,note_on,0,0,1,,,,,,,,,0,,,75,127
79080,note_on,0,0,1,,,,,,,,,0,,,72,127
79080,note_on,0,0,1,,,,,,,,,0,,,79,127
79080,note_on,120,0,3,,,,,,,,,2,,,43,0
79080,note_on,0,0,3,,,,,,,,,2,,,55,117
79080,note_on,0,0,3,,,,,,,,,2,,,60,122
79080,note_on,0,0,3,,,,,,,,,2,,,63,127
79080,note_on,120,0,1,,,,,,,,,0,,,91,0
79080,note_on,0,0,3,,,,,,,,,2,,,31,0
79080,note_on,0,0,1,,,,,,,,,0,,,79,0
79092,note_on,12,0,1,,,,,,,,,0,,,79,0
79092,note_on,0,0,1,,,,,,,,,0,,,67,0
79092,note_on,0,0,1,,,,,,,,,0,,,72,0
79092,note_on,0,0,1,,,,,,,,,0,,,75,0
79092,note_on,12,0,3,,,,,,,,,2,,,63,0
79092,note_on,0,0,3,,,,,,,,,2,,,60,0
79092,note_on,0,0,3,,,,,,,,,2,,,55,0
79200,note_on,108,0,3,,,,,,,,,2,,,55,117
79200,note_on,108,0,1,,,,,,,,,0,,,67,127
79200,note_on,0,0,3,,,,,,,,,2,,,59,122
79200,note_on,0,0,3,,,,,,,,,2,,,62,127
79200,note_on,0,0,1,,,,,,,,,0,,,79,127
79200,note_on,0,0,1,,,,,,,,,0,,,74,127
79200,note_on,0,0,1,,,,,,,,,0,,,71,127
79212,note_on,0,0,1,,,,,,,,,0,,,74,0
79212,note_on,12,0,3,,,,,,,,,2,,,62,0
79212,note_on,0,0,3,,,,,,,,,2,,,55,0
79212,note_on,0,0,1,,,,,,,,,0,,,67,0
79212,note_on,12,0,1,,,,,,,,,0,,,79,0
79212,note_on,0,0,1,,,,,,,,,0,,,71,0
79212,note_on,0,0,3,,,,,,,,,2,,,59,0
79320,note_on,0,0,3,,,,,,,,,2,,,45,101
79320,note_on,108,0,3,,,,,,,,,2,,,33,101
79320,note_on,0,0,1,,,,,,,,,0,,,93,114
79320,note_on,108,0,1,,,,,,,,,0,,,81,114
79440,note_on,0,0,1,,,,,,,,,0,,,77,127
79440,note_on,0,0,1,,,,,,,,,0,,,74,127
79440,note_on,0,0,1,,,,,,,,,0,,,69,127
79440,note_on,0,0,1,,,,,,,,,0,,,81,0
79440,note_on,0,0,3,,,,,,,,,2,,,65,127
79440,note_on,0,0,3,,,,,,,,,2,,,62,122
79440,note_on,0,0,3,,,,,,,,,2,,,57,117
79440,note_on,0,0,3,,,,,,,,,2,,,33,0
79440,note_on,120,0,3,,,,,,,,,2,,,45,0
79440,note_on,120,0,1,,,,,,,,,0,,,93,0
79440,note_on,0,0,1,,,,,,,,,0,,,81,127
79452,note_on,0,0,3,,,,,,,,,2,,,57,0
79452,note_on,0,0,3,,,,,,,,,2,,,62,0
79452,note_on,0,0,1,,,,,,,,,0,,,77,0
79452,note_on,0,0,1,,,,,,,,,0,,,74,0
79452,note_on,0,0,1,,,,,,,,,0,,,69,0
79452,note_on,12,0,1,,,,,,,,,0,,,81,0
79452,note_on,12,0,3,,,,,,,,,2,,,65,0
79560,note_on,0,0,3,,,,,,,,,2,,,61,122
79560,note_on,0,0,3,,,,,,,,,2,,,64,127
79560,note_on,108,0,3,,,,,,,,,2,,,57,117
79560,note_on,0,0,1,,,,,,,,,0,,,73,127
79560,note_on,0,0,1,,,,,,,,,0,,,81,127
79560,note_on,0,0,1,,,,,,,,,0,,,76,127
79560,note_on,108,0,1,,,,,,,,,0,,,69,127
79572,note_on,0,0,1,,,,,,,,,0,,,73,0
79572,note_on,0,0,1,,,,,,,,,0,,,76,0
79572,note_on,0,0,1,,,,,,,,,0,,,69,0
79572,note_on,12,0,3,,,,,,,,,2,,,64,0
79572,note_on,0,0,3,,,,,,,,,2,,,61,0
79572,note_on,0,0,3,,,,,,,,,2,,,57,0
79572,note_on,12,0,1,,,,,,,,,0,,,81,0
79680,note_on,0,0,3,,,,,,,,,2,,,55,101
79680,note_on,0,0,3,,,,,,,,,2,,,58,101
79680,control_change,108,0,1,,,,,,,,,0,64,127,,
79680,note_on,0,0,1,,,,,,,,,0,,,67,114
79680,note_on,0,0,1,,,,,,,,,0,,,70,114
79680,control_change,108,0,3,,,,,,,,,2,64,127,,
79686,note_on,6,0,3,,,,,,,,,2,,,58,0
79686,note_on,0,0,3,,,,,,,,,2,,,55,0
79686,note_on,6,0,1,,,,,,,,,0,,,70,0
79686,note_on,0,0,1,,,,,,,,,0,,,67,0
79740,note_on,54,0,1,,,,,,,,,0,,,67,114
79740,note_on,0,0,3,,,,,,,,,2,,,58,101
79740,note_on,54,0,3,,,,,,,,,2,,,55,101
79740,note_on,0,0,1,,,,,,,,,0,,,70,114
79746,note_on,0,0,1,,,,,,,,,0,,,67,0
79746,note_on,6,0,3,,,,,,,,,2,,,58,0
79746,note_on,0,0,3,,,,,,,,,2,,,55,0
79746,note_on,6,0,1,,,,,,,,,0,,,70,0
79800,note_on,54,0,3,,,,,,,,,2,,,52,101
79800,note_on,0,0,1,,,,,,,,,0,,,70,114
79800,note_on,0,0,1,,,,,,,,,0,,,73,114
79800,note_on,0,0,3,,,,,,,,,2,,,58,101
79800,note_on,0,0,3,,,,,,,,,2,,,55,101
79800,note_on,54,0,1,,,,,,,,,0,,,67,114
79806,note_on,6,0,3,,,,,,,,,2,,,58,0
79806,note_on,0,0,3,,,,,,,,,2,,,52,0
79806,note_on,6,0,1,,,,,,,,,0,,,73,0
79806,note_on,0,0,1,,,,,,,,,0,,,70,0
79806,note_on,0,0,1,,,,,,,,,0,,,67,0
79806,note_on,0,0,3,,,,,,,,,2,,,55,0
79860,note_on,54,0,3,,,,,,,,,2,,,52,101
79860,note_on,0,0,3,,,,,,,,,2,,,55,101
79860,note_on,0,0,3,,,,,,,,,2,,,58,101
79860,note_on,54,0,1,,,,,,,,,0,,,67,114
79860,note_on,0,0,1,,,,,,,,,0,,,73,114
79860,note_on,0,0,1,,,,,,,,,0,,,70,114
79866,note_on,0,0,1,,,,,,,,,0,,,70,0
79866,note_on,0,0,3,,,,,,,,,2,,,55,0
79866,note_on,0,0,3,,,,,,,,,2,,,52,0
79866,note_on,6,0,3,,,,,,,,,2,,,58,0
79866,note_on,0,0,1,,,,,,,,,0,,,67,0
79866,note_on,6,0,1,,,,,,,,,0,,,73,0
79920,note_on,54,0,3,,,,,,,,,2,,,49,101
79920,note_on,0,0,1,,,,,,,,,0,,,73,114
79920,note_on,0,0,1,,,,,,,,,0,,,76,114
79920,note_on,0,0,3,,,,,,,,,2,,,52,101
79920,note_on,0,0,3,,,,,,,,,2,,,55,101
79920,note_on,0,0,3,,,,,,,,,2,,,58,101
79920,note_on,54,0,1,,,,,,,,,0,,,67,114
79920,note_on,0,0,1,,,,,,,,,0,,,70,114
79926,note_on,0,0,3,,,,,,,,,2,,,49,0
79926,note_on,6,0,1,,,,,,,,,0,,,76,0
79926,note_on,0,0,1,,,,,,,,,0,,,67,0
79926,note_on,0,0,1,,,,,,,,,0,,,70,0
79926,note_on,0,0,1,,,,,,,,,0,,,73,0
79926,note_on,0,0,3,,,,,,,,,2,,,52,0
79926,note_on,0,0,3,,,,,,,,,2,,,55,0
79926,note_on,6,0,3,,,,,,,,,2,,,58,0
79980,note_on,54,0,3,,,,,,,,,2,,,49,101
79980,note_on,0,0,1,,,,,,,,,0,,,70,114
79980,note_on,0,0,1,,,,,,,,,0,,,73,114
79980,note_on,0,0,1,,,,,,,,,0,,,76,114
79980,note_on,54,0,1,,,,,,,,,0,,,67,114
79980,note_on,0,0,3,,,,,,,,,2,,,52,101
79980,note_on,0,0,3,,,,,,,,,2,,,55,101
79980,note_on,0,0,3,,,,,,,,,2,,,58,101
79986,note_on,0,0,1,,,,,,,,,0,,,73,0
79986,note_on,0,0,1,,,,,,,,,0,,,70,0
79986,note_on,6,0,3,,,,,,,,,2,,,58,0
79986,note_on,0,0,3,,,,,,,,,2,,,49,0
79986,note_on,0,0,3,,,,,,,,,2,,,55,0
79986,note_on,0,0,3,,,,,,,,,2,,,52,0
79986,note_on,0,0,1,,,,,,,,,0,,,67,0
79986,note_on,6,0,1,,,,,,,,,0,,,76,0
80040,note_on,0,0,1,,,,,,,,,0,,,76,114
80040,note_on,0,0,1,,,,,,,,,0,,,73,114
80040,note_on,54,0,1,,,,,,,,,0,,,70,114
80040,note_on,0,0,3,,,,,,,,,2,,,55,101
80040,note_on,0,0,3,,,,,,,,,2,,,49,101
80040,note_on,0,0,3,,,,,,,,,2,,,52,101
80040,note_on,54,0,3,,,,,,,,,2,,,46,101
80040,note_on,0,0,1,,,,,,,,,0,,,79,114
80046,note_on,6,0,3,,,,,,,,,2,,,55,0
80046,note_on,0,0,3,,,,,,,,,2,,,46,0
80046,note_on,6,0,1,,,,,,,,,0,,,79,0
80046,note_on,0,0,3,,,,,,,,,2,,,52,0
80046,note_on,0,0,1,,,,,,,,,0,,,76,0
80046,note_on,0,0,1,,,,,,,,,0,,,73,0
80046,note_on,0,0,1,,,,,,,,,0,,,70,0
80046,note_on,0,0,3,,,,,,,,,2,,,49,0
80100,note_on,0,0,3,,,,,,,,,2,,,52,101
80100,note_on,0,0,3,,,,,,,,,2,,,55,101
80100,note_on,54,0,3,,,,,,,,,2,,,46,101
80100,note_on,0,0,1,,,,,,,,,0,,,79,114
80100,note_on,0,0,1,,,,,,,,,0,,,76,114
80100,note_on,0,0,1,,,,,,,,,0,,,73,114
80100,note_on,54,0,1,,,,,,,,,0,,,70,114
80100,note_on,0,0,3,,,,,,,,,2,,,49,101
80106,note_on,0,0,1,,,,,,,,,0,,,76,0
80106,note_on,0,0,1,,,,,,,,,0,,,70,0
80106,note_on,0,0,1,,,,,,,,,0,,,73,0
80106,note_on,6,0,3,,,,,,,,,2,,,55,0
80106,note_on,0,0,3,,,,,,,,,2,,,46,0
80106,note_on,0,0,3,,,,,,,,,2,,,49,0
80106,note_on,0,0,3,,,,,,,,,2,,,52,0
80106,note_on,6,0,1,,,,,,,,,0,,,79,0
80160,note_on,0,0,1,,,,,,,,,0,,,82,114
80160,note_on,0,0,1,,,,,,,,,0,,,79,114
80160,note_on,0,0,1,,,,,,,,,0,,,76,114
80160,note_on,0,0,3,,,,,,,,,2,,,49,101
80160,note_on,0,0,3,,,,,,,,,2,,,46,101
80160,note_on,54,0,3,,,,,,,,,2,,,43,101
80160,note_on,54,0,1,,,,,,,,,0,,,73,114
80160,note_on,0,0,3,,,,,,,,,2,,,52,101
80166,note_on,6,0,3,,,,,,,,,2,,,52,0
80166,note_on,0,0,3,,,,,,,,,2,,,43,0
80166,note_on,0,0,3,,,,,,,,,2,,,46,0
80166,note_on,0,0,3,,,,,,,,,2,,,49,0
80166,note_on,6,0,1,,,,,,,,,0,,,82,0
80166,note_on,0,0,1,,,,,,,,,0,,,73,0
80166,note_on,0,0,1,,,,,,,,,0,,,76,0
80166,note_on,0,0,1,,,,,,,,,0,,,79,0
80220,note_on,54,0,3,,,,,,,,,2,,,43,101
80220,note_on,0,0,3,,,,,,,,,2,,,52,101
80220,note_on,0,0,3,,,,,,,,,2,,,46,101
80220,note_on,0,0,1,,,,,,,,,0,,,82,114
80220,note_on,0,0,1,,,,,,,,,0,,,76,114
80220,note_on,54,0,1,,,,,,,,,0,,,73,114
80220,note_on,0,0,3,,,,,,,,,2,,,49,101
80220,note_on,0,0,1,,,,,,,,,0,,,79,114
80226,note_on,6,0,1,,,,,,,,,0,,,82,0
80226,note_on,0,0,1,,,,,,,,,0,,,73,0
80226,note_on,0,0,1,,,,,,,,,0,,,76,0
80226,note_on,0,0,1,,,,,,,,,0,,,79,0
80226,note_on,0,0,3,,,,,,,,,2,,,46,0
80226,note_on,0,0,3,,,,,,,,,2,,,43,0
80226,note_on,6,0,3,,,,,,,,,2,,,52,0
80226,note_on,0,0,3,,,,,,,,,2,,,49,0
80280,note_on,0,0,3,,,,,,,,,2,,,46,101
80280,note_on,0,0,3,,,,,,,,,2,,,43,101
80280,note_on,0,0,3,,,,,,,,,2,,,49,101
80280,note_on,54,0,3,,,,,,,,,2,,,40,101
80280,note_on,0,0,1,,,,,,,,,0,,,85,114
80280,note_on,0,0,1,,,,,,,,,0,,,82,114
80280,note_on,0,0,1,,,,,,,,,0,,,79,114
80280,note_on,54,0,1,,,,,,,,,0,,,76,114
80286,note_on,0,0,3,,,,,,,,,2,,,40,0
80286,note_on,0,0,3,,,,,,,,,2,,,43,0
80286,note_on,6,0,3,,,,,,,,,2,,,49,0
80286,note_on,0,0,3,,,,,,,,,2,,,46,0
80286,note_on,0,0,1,,,,,,,,,0,,,76,0
80286,note_on,6,0,1,,,,,,,,,0,,,85,0
80286,note_on,0,0,1,,,,,,,,,0,,,82,0
80286,note_on,0,0,1,,,,,,,,,0,,,79,0
80340,note_on,0,0,1,,,,,,,,,0,,,82,114
80340,note_on,0,0,1,,,,,,,,,0,,,79,114
80340,control_change,54,0,3,,,,,,,,,2,64,0,,
80340,note_on,0,0,3,,,,,,,,,2,,,40,101
80340,note_on,0,0,3,,,,,,,,,2,,,43,101
80340,control_change,54,0,1,,,,,,,,,0,64,0,,
80340,note_on,0,0,1,,,,,,,,,0,,,76,114
80340,note_on,0,0,3,,,,,,,,,2,,,46,101
80340,note_on,0,0,1,,,,,,,,,0,,,85,114
80340,note_on,0,0,3,,,,,,,,,2,,,49,101
80346,note_on,0,0,1,,,,,,,,,0,,,82,0
80346,note_on,0,0,1,,,,,,,,,0,,,79,0
80346,note_on,0,0,1,,,,,,,,,0,,,76,0
80346,note_on,6,0,1,,,,,,,,,0,,,85,0
80346,note_on,0,0,3,,,,,,,,,2,,,40,0
80346,note_on,6,0,3,,,,,,,,,2,,,49,0
80346,note_on,0,0,3,,,,,,,,,2,,,46,0
80346,note_on,0,0,3,,,,,,,,,2,,,43,0
80400,note_on,54,0,1,,,,,,,,,0,,,74,101
80400,note_on,0,0,1,,,,,,,,,0,,,77,101
80400,note_on,0,0,1,,,,,,,,,0,,,81,101
80400,note_on,0,0,1,,,,,,,,,0,,,86,101
80400,note_on,0,0,3,,,,,,,,,2,,,45,88
80400,note_on,54,0,3,,,,,,,,,2,,,41,88
80400,note_on,0,0,3,,,,,,,,,2,,,50,88
80520,note_on,0,0,1,,,,,,,,,0,,,74,0
80520,note_on,120,0,3,,,,,,,,,2,,,50,0
80520,note_on,120,0,1,,,,,,,,,0,,,86,0
80520,note_on,0,0,3,,,,,,,,,2,,,41,0
80520,note_on,0,0,3,,,,,,,,,2,,,45,0
80520,note_on,0,0,1,,,,,,,,,0,,,77,0
80520,note_on,0,0,1,,,,,,,,,0,,,81,0
80760,note_on,0,0,3,,,,,,,,,2,,,50,88
80760,note_on,0,0,3,,,,,,,,,2,,,45,88
80760,note_on,240,0,3,,,,,,,,,2,,,38,88
80760,note_on,0,0,1,,,,,,,,,0,,,86,101
80760,note_on,0,0,1,,,,,,,,,0,,,89,101
80760,note_on,0,0,3,,,,,,,,,2,,,41,88
80760,note_on,240,0,1,,,,,,,,,0,,,77,101
80760,note_on,0,0,1,,,,,,,,,0,,,81,101
80880,note_on,120,0,1,,,,,,,,,0,,,89,0
80880,note_on,0,0,3,,,,,,,,,2,,,45,0
80880,note_on,0,0,1,,,,,,,,,0,,,77,0
80880,note_on,0,0,1,,,,,,,,,0,,,81,0
80880,note_on,0,0,1,,,,,,,,,0,,,86,0
80880,note_on,120,0,3,,,,,,,,,2,,,50,0
80880,note_on,0,0,3,,,,,,,,,2,,,38,0
80880,note_on,0,0,3,,,,,,,,,2,,,41,0
81120,note_on,240,0,3,,,,,,,,,2,,,52,36
81120,note_on,0,0,1,,,,,,,,,0,,,76,49
81120,note_on,0,0,3,,,,,,,,,2,,,60,36
81120,note_on,240,0,1,,,,,,,,,0,,,69,49
81240,note_on,120,0,1,,,,,,,,,0,,,76,0
81240,note_on,0,0,1,,,,,,,,,0,,,69,0
81240,note_on,0,0,3,,,,,,,,,2,,,52,0
81240,note_on,120,0,3,,,,,,,,,2,,,60,0
81480,note_on,240,0,1,,,,,,,,,0,,,68,49
81480,note_on,0,0,3,,,,,,,,,2,,,59,36
81480,note_on,240,0,3,,,,,,,,,2,,,52,36
81480,note_on,0,0,1,,,,,,,,,0,,,76,49
81600,note_on,120,0,1,,,,,,,,,0,,,76,0
81600,note_on,0,0,1,,,,,,,,,0,,,68,0
81600,note_on,0,0,3,,,,,,,,,2,,,52,0
81600,note_on,120,0,3,,,,,,,,,2,,,59,0
81840,note_on,0,0,1,,,,,,,,,0,,,73,36
81840,note_on,0,0,3,,,,,,,,,2,,,45,36
81840,control_change,240,0,3,,,,,,,,,2,64,127,,
81840,note_on,10680,0,2,,,,,,,,,1,,,64,36
81840,control_change,240,0,1,,,,,,,,,0,64,127,,
81900,note_on,0,0,3,,,,,,,,,2,,,52,36
81900,note_on,60,0,3,,,,,,,,,2,,,45,0
81960,note_on,0,0,3,,,,,,,,,2,,,57,36
81960,note_on,60,0,3,,,,,,,,,2,,,52,0
82020,note_on,60,0,3,,,,,,,,,2,,,57,0
82020,note_on,0,0,3,,,,,,,,,2,,,52,36
82080,note_on,60,0,3,,,,,,,,,2,,,52,0
82080,note_on,0,0,3,,,,,,,,,2,,,61,36
82080,control_change,0,0,3,,,,,,,,,2,64,0,,
82140,note_on,0,0,1,,,,,,,,,0,,,74,36
82140,note_on,60,0,3,,,,,,,,,2,,,61,0
82140,note_on,300,0,1,,,,,,,,,0,,,73,0
82170,note_on,30,0,1,,,,,,,,,0,,,74,0
82170,control_change,0,0,1,,,,,,,,,0,64,0,,
82170,note_on,0,0,1,,,,,,,,,0,,,73,36
82200,control_change,0,0,1,,,,,,,,,0,64,127,,
82200,note_on,30,0,1,,,,,,,,,0,,,73,0
82200,control_change,60,0,3,,,,,,,,,2,64,127,,
82200,note_on,0,0,3,,,,,,,,,2,,,44,36
82200,note_on,0,0,1,,,,,,,,,0,,,71,36
82260,note_on,0,0,3,,,,,,,,,2,,,52,36
82260,note_on,60,0,3,,,,,,,,,2,,,44,0
82320,note_on,0,0,3,,,,,,,,,2,,,59,36
82320,note_on,60,0,3,,,,,,,,,2,,,52,0
82320,note_on,0,0,1,,,,,,,,,0,,,74,36
82320,note_on,120,0,1,,,,,,,,,0,,,71,0
82380,note_on,60,0,3,,,,,,,,,2,,,59,0
82380,note_on,0,0,3,,,,,,,,,2,,,52,36
82440,note_on,120,0,1,,,,,,,,,0,,,74,0
82440,control_change,0,0,1,,,,,,,,,0,64,0,,
82440,note_on,0,0,1,,,,,,,,,0,,,77,36
82440,note_on,60,0,3,,,,,,,,,2,,,52,0
82440,control_change,0,0,3,,,,,,,,,2,64,0,,
82440,note_on,0,0,3,,,,,,,,,2,,,62,36
82500,note_on,60,0,3,,,,,,,,,2,,,62,0
82560,note_on,0,0,1,,,,,,,,,0,,,76,36
82560,note_on,0,0,2,,,,,,,,,1,,,64,36
82560,note_on,720,0,2,,,,,,,,,1,,,64,0
82560,control_change,60,0,3,,,,,,,,,2,64,127,,
82560,note_on,0,0,3,,,,,,,,,2,,,45,36
82560,note_on,120,0,1,,,,,,,,,0,,,77,0
82620,note_on,60,0,3,,,,,,,,,2,,,45,0
82620,note_on,0,0,3,,,,,,,,,2,,,52,36
82680,note_on,60,0,3,,,,,,,,,2,,,52,0
82680,note_on,0,0,3,,,,,,,,,2,,,61,36
82740,note_on,60,0,3,,,,,,,,,2,,,61,0
82740,note_on,0,0,3,,,,,,,,,2,,,52,36
82800,note_on,240,0,1,,,,,,,,,0,,,76,0
82800,note_on,0,0,1,,,,,,,,,0,,,73,36
82800,note_on,60,0,3,,,,,,,,,2,,,52,0
82800,control_change,0,0,3,,,,,,,,,2,64,0,,
82800,note_on,0,0,3,,,,,,,,,2,,,57,36
82860,note_on,60,0,3,,,,,,,,,2,,,57,0
82920,note_on,0,0,1,,,,,,,,,0,,,76,36
82920,note_on,120,0,1,,,,,,,,,0,,,73,0
82920,note_on,0,0,2,,,,,,,,,1,,,64,36
82920,control_change,60,0,3,,,,,,,,,2,64,127,,
82920,note_on,0,0,3,,,,,,,,,2,,,44,36
82920,note_on,360,0,2,,,,,,,,,1,,,64,0
82980,note_on,60,0,3,,,,,,,,,2,,,44,0
82980,note_on,0,0,3,,,,,,,,,2,,,52,36
83040,note_on,60,0,3,,,,,,,,,2,,,52,0
83040,note_on,0,0,3,,,,,,,,,2,,,56,36
83100,note_on,60,0,3,,,,,,,,,2,,,56,0
83100,note_on,0,0,3,,,,,,,,,2,,,52,36
83160,note_on,60,0,3,,,,,,,,,2,,,52,0
83160,control_change,0,0,3,,,,,,,,,2,64,0,,
83160,note_on,0,0,3,,,,,,,,,2,,,59,36
83160,note_on,240,0,1,,,,,,,,,0,,,76,0
83160,note_on,0,0,1,,,,,,,,,0,,,74,36
83220,note_on,60,0,3,,,,,,,,,2,,,59,0
83280,note_on,0,0,3,,,,,,,,,2,,,45,36
83280,note_on,120,0,1,,,,,,,,,0,,,74,0
83280,control_change,0,0,1,,,,,,,,,0,64,127,,
83280,note_on,0,0,1,,,,,,,,,0,,,73,36
83280,control_change,60,0,3,,,,,,,,,2,64,127,,
83280,note_on,360,0,2,,,,,,,,,1,,,64,0
83280,note_on,0,0,2,,,,,,,,,1,,,64,36
83340,note_on,60,0,3,,,,,,,,,2,,,45,0
83340,note_on,0,0,3,,,,,,,,,2,,,52,36
83400,note_on,0,0,3,,,,,,,,,2,,,57,36
83400,note_on,60,0,3,,,,,,,,,2,,,52,0
83460,note_on,0,0,3,,,,,,,,,2,,,52,36
83460,note_on,60,0,3,,,,,,,,,2,,,57,0
83520,note_on,0,0,3,,,,,,,,,2,,,61,36
83520,control_change,0,0,3,,,,,,,,,2,64,0,,
83520,note_on,60,0,3,,,,,,,,,2,,,52,0
83580,note_on,60,0,3,,,,,,,,,2,,,61,0
83580,note_on,0,0,1,,,,,,,,,0,,,74,36
83580,note_on,300,0,1,,,,,,,,,0,,,73,0
83610,control_change,0,0,1,,,,,,,,,0,64,0,,
83610,note_on,0,0,1,,,,,,,,,0,,,73,36
83610,note_on,30,0,1,,,,,,,,,0,,,74,0
83640,note_on,0,0,3,,,,,,,,,2,,,44,36
83640,control_change,60,0,3,,,,,,,,,2,64,127,,
83640,control_change,0,0,1,,,,,,,,,0,64,127,,
83640,note_on,30,0,1,,,,,,,,,0,,,73,0
83640,note_on,0,0,1,,,,,,,,,0,,,71,36
83700,note_on,0,0,3,,,,,,,,,2,,,52,36
83700,note_on,60,0,3,,,,,,,,,2,,,44,0
83760,note_on,120,0,1,,,,,,,,,0,,,71,0
83760,note_on,0,0,1,,,,,,,,,0,,,74,36
83760,note_on,0,0,3,,,,,,,,,2,,,59,36
83760,note_on,60,0,3,,,,,,,,,2,,,52,0
83820,note_on,0,0,3,,,,,,,,,2,,,52,36
83820,note_on,60,0,3,,,,,,,,,2,,,59,0
83880,control_change,0,0,3,,,,,,,,,2,64,0,,
83880,note_on,0,0,3,,,,,,,,,2,,,62,36
83880,note_on,60,0,3,,,,,,,,,2,,,52,0
83880,note_on,120,0,1,,,,,,,,,0,,,74,0
83880,control_change,0,0,1,,,,,,,,,0,64,0,,
83880,note_on,0,0,1,,,,,,,,,0,,,77,36
83940,note_on,60,0,3,,,,,,,,,2,,,62,0
84000,note_on,120,0,1,,,,,,,,,0,,,77,0
84000,note_on,0,0,3,,,,,,,,,2,,,45,36
84000,control_change,60,0,3,,,,,,,,,2,64,127,,
84000,note_on,0,0,2,,,,,,,,,1,,,64,36
84000,note_on,720,0,2,,,,,,,,,1,,,64,0
84000,note_on,0,0,1,,,,,,,,,0,,,76,36
84060,note_on,0,0,3,,,,,,,,,2,,,52,36
84060,note_on,60,0,3,,,,,,,,,2,,,45,0
84120,note_on,0,0,3,,,,,,,,,2,,,61,36
84120,note_on,60,0,3,,,,,,,,,2,,,52,0
84180,note_on,60,0,3,,,,,,,,,2,,,61,0
84180,note_on,0,0,3,,,,,,,,,2,,,52,36
84240,note_on,0,0,1,,,,,,,,,0,,,73,36
84240,note_on,240,0,1,,,,,,,,,0,,,76,0
84240,note_on,0,0,3,,,,,,,,,2,,,57,36
84240,control_change,0,0,3,,,,,,,,,2,64,0,,
84240,note_on,60,0,3,,,,,,,,,2,,,52,0
84300,note_on,60,0,3,,,,,,,,,2,,,57,0
84360,note_on,120,0,1,,,,,,,,,0,,,73,0
84360,note_on,0,0,3,,,,,,,,,2,,,44,36
84360,control_change,60,0,3,,,,,,,,,2,64,127,,
84360,note_on,360,0,2,,,,,,,,,1,,,64,0
84360,note_on,0,0,2,,,,,,,,,1,,,64,36
84360,note_on,0,0,1,,,,,,,,,0,,,76,49
84420,note_on,60,0,3,,,,,,,,,2,,,44,0
84420,note_on,0,0,3,,,,,,,,,2,,,52,36
84480,note_on,0,0,3,,,,,,,,,2,,,56,36
84480,note_on,60,0,3,,,,,,,,,2,,,52,0
84540,note_on,0,0,3,,,,,,,,,2,,,52,36
84540,note_on,60,0,3,,,,,,,,,2,,,56,0
84600,control_change,0,0,3,,,,,,,,,2,64,0,,
84600,note_on,60,0,3,,,,,,,,,2,,,52,0
84600,note_on,0,0,1,,,,,,,,,0,,,74,49
84600,note_on,240,0,1,,,,,,,,,0,,,76,0
84600,note_on,0,0,3,,,,,,,,,2,,,59,36
84660,note_on,60,0,3,,,,,,,,,2,,,59,0
84720,control_change,60,0,3,,,,,,,,,2,64,127,,
84720,note_on,0,0,3,,,,,,,,,2,,,44,49
84720,note_on,0,0,1,,,,,,,,,0,,,77,62
84720,note_on,360,0,2,,,,,,,,,1,,,64,0
84720,note_on,0,0,2,,,,,,,,,1,,,65,49
84720,note_on,120,0,1,,,,,,,,,0,,,74,0
84780,note_on,60,0,3,,,,,,,,,2,,,44,0
84780,note_on,0,0,3,,,,,,,,,2,,,53,49
84840,note_on,60,0,3,,,,,,,,,2,,,53,0
84840,note_on,0,0,3,,,,,,,,,2,,,56,49
84900,note_on,60,0,3,,,,,,,,,2,,,56,0
84900,note_on,0,0,3,,,,,,,,,2,,,53,49
84960,note_on,0,0,3,,,,,,,,,2,,,59,49
84960,note_on,240,0,1,,,,,,,,,0,,,77,0
84960,note_on,0,0,1,,,,,,,,,0,,,74,62
84960,note_on,60,0,3,,,,,,,,,2,,,53,0
84960,control_change,0,0,3,,,,,,,,,2,64,0,,
85020,note_on,60,0,3,,,,,,,,,2,,,59,0
85080,control_change,60,0,3,,,,,,,,,2,64,127,,
85080,note_on,0,0,3,,,,,,,,,2,,,45,62
85080,note_on,0,0,1,,,,,,,,,0,,,78,75
85080,note_on,0,0,2,,,,,,,,,1,,,66,62
85080,note_on,360,0,2,,,,,,,,,1,,,65,0
85080,note_on,120,0,1,,,,,,,,,0,,,74,0
85140,note_on,60,0,3,,,,,,,,,2,,,45,0
85140,note_on,0,0,3,,,,,,,,,2,,,54,62
85200,note_on,0,0,3,,,,,,,,,2,,,57,62
85200,note_on,60,0,3,,,,,,,,,2,,,54,0
85260,note_on,0,0,3,,,,,,,,,2,,,54,62
85260,note_on,60,0,3,,,,,,,,,2,,,57,0
85320,note_on,0,0,3,,,,,,,,,2,,,62,62
85320,control_change,0,0,3,,,,,,,,,2,64,0,,
85320,note_on,60,0,3,,,,,,,,,2,,,54,0
85320,note_on,0,0,1,,,,,,,,,0,,,74,75
85320,note_on,240,0,1,,,,,,,,,0,,,78,0
85380,note_on,60,0,3,,,,,,,,,2,,,62,0
85440,note_on,0,0,2,,,,,,,,,1,,,67,62
85440,note_on,360,0,2,,,,,,,,,1,,,66,0
85440,note_on,0,0,3,,,,,,,,,2,,,45,62
85440,control_change,60,0,3,,,,,,,,,2,64,127,,
85440,note_on,120,0,1,,,,,,,,,0,,,74,0
85440,control_change,0,0,1,,,,,,,,,0,64,127,,
85440,note_on,0,0,1,,,,,,,,,0,,,73,75
85500,note_on,60,0,3,,,,,,,,,2,,,45,0
85500,note_on,0,0,3,,,,,,,,,2,,,57,62
85560,note_on,0,0,1,,,,,,,,,0,,,82,75
85560,note_on,120,0,1,,,,,,,,,0,,,73,0
85560,note_on,0,0,3,,,,,,,,,2,,,64,62
85560,note_on,60,0,3,,,,,,,,,2,,,57,0
85620,note_on,60,0,3,,,,,,,,,2,,,64,0
85620,note_on,0,0,3,,,,,,,,,2,,,57,62
85680,note_on,0,0,1,,,,,,,,,0,,,81,75
85680,note_on,0,0,3,,,,,,,,,2,,,64,62
85680,control_change,0,0,3,,,,,,,,,2,64,0,,
85680,note_on,60,0,3,,,,,,,,,2,,,57,0
85680,control_change,0,0,1,,,,,,,,,0,64,0,,
85680,note_on,120,0,1,,,,,,,,,0,,,82,0
85740,note_on,60,0,3,,,,,,,,,2,,,64,0
85800,note_on,120,0,1,,,,,,,,,0,,,81,0
85800,note_on,0,0,1,,,,,,,,,0,,,79,75
85800,note_on,0,0,3,,,,,,,,,2,,,50,62
85800,note_on,0,0,2,,,,,,,,,1,,,69,62
85800,note_on,360,0,2,,,,,,,,,1,,,67,0
85800,control_change,60,0,3,,,,,,,,,2,64,127,,
85860,note_on,60,0,3,,,,,,,,,2,,,50,0
85860,note_on,0,0,3,,,,,,,,,2,,,57,62
85920,note_on,60,0,3,,,,,,,,,2,,,57,0
85920,note_on,0,0,3,,,,,,,,,2,,,62,62
85980,note_on,0,0,3,,,,,,,,,2,,,57,62
85980,note_on,60,0,3,,,,,,,,,2,,,62,0
86040,control_change,0,0,3,,,,,,,,,2,64,0,,
86040,note_on,0,0,3,,,,,,,,,2,,,66,62
86040,note_on,0,0,1,,,,,,,,,0,,,78,75
86040,note_on,240,0,1,,,,,,,,,0,,,79,0
86040,note_on,60,0,3,,,,,,,,,2,,,57,0
86100,note_on,60,0,3,,,,,,,,,2,,,66,0
86160,control_change,60,0,3,,,,,,,,,2,64,127,,
86160,note_on,360,0,2,,,,,,,,,1,,,69,0
86160,note_on,0,0,1,,,,,,,,,0,,,73,75
86160,control_change,0,0,1,,,,,,,,,0,64,127,,
86160,note_on,120,0,1,,,,,,,,,0,,,78,0
86160,note_on,0,0,2,,,,,,,,,1,,,64,62
86160,note_on,0,0,3,,,,,,,,,2,,,42,62
86220,note_on,0,0,3,,,,,,,,,2,,,54,62
86220,note_on,60,0,3,,,,,,,,,2,,,42,0
86280,note_on,0,0,1,,,,,,,,,0,,,79,75
86280,note_on,0,0,3,,,,,,,,,2,,,61,62
86280,note_on,60,0,3,,,,,,,,,2,,,54,0
86280,note_on,120,0,1,,,,,,,,,0,,,73,0
86340,note_on,0,0,3,,,,,,,,,2,,,54,62
86340,note_on,60,0,3,,,,,,,,,2,,,61,0
86400,note_on,120,0,1,,,,,,,,,0,,,79,0
86400,control_change,0,0,1,,,,,,,,,0,64,0,,
86400,note_on,0,0,1,,,,,,,,,0,,,78,75
86400,note_on,0,0,3,,,,,,,,,2,,,58,62
86400,control_change,0,0,3,,,,,,,,,2,64,0,,
86400,note_on,60,0,3,,,,,,,,,2,,,54,0
86460,note_on,60,0,3,,,,,,,,,2,,,58,0
86520,note_on,0,0,3,,,,,,,,,2,,,47,49
86520,control_change,60,0,3,,,,,,,,,2,64,127,,
86520,note_on,360,0,2,,,,,,,,,1,,,64,0
86520,note_on,0,0,1,,,,,,,,,0,,,76,62
86520,note_on,120,0,1,,,,,,,,,0,,,78,0
86520,note_on,0,0,2,,,,,,,,,1,,,66,49
86580,note_on,60,0,3,,,,,,,,,2,,,47,0
86580,note_on,0,0,3,,,,,,,,,2,,,54,49
86640,note_on,60,0,3,,,,,,,,,2,,,54,0
86640,note_on,0,0,3,,,,,,,,,2,,,59,49
86700,note_on,60,0,3,,,,,,,,,2,,,59,0
86700,note_on,0,0,3,,,,,,,,,2,,,54,49
86760,note_on,60,0,3,,,,,,,,,2,,,54,0
86760,control_change,0,0,3,,,,,,,,,2,64,0,,
86760,note_on,0,0,3,,,,,,,,,2,,,62,49
86760,note_on,240,0,1,,,,,,,,,0,,,76,0
86760,note_on,0,0,1,,,,,,,,,0,,,74,62
86820,note_on,60,0,3,,,,,,,,,2,,,62,0
86880,control_change,60,0,3,,,,,,,,,2,64,127,,
86880,note_on,360,0,2,,,,,,,,,1,,,66,0
86880,note_on,0,0,3,,,,,,,,,2,,,44,36
86880,note_on,0,0,2,,,,,,,,,1,,,64,36
86880,note_on,120,0,1,,,,,,,,,0,,,74,0
86880,note_on,0,0,1,,,,,,,,,0,,,76,49
86940,note_on,60,0,3,,,,,,,,,2,,,44,0
86940,note_on,0,0,3,,,,,,,,,2,,,52,36
87000,note_on,60,0,3,,,,,,,,,2,,,52,0
87000,note_on,0,0,3,,,,,,,,,2,,,62,36
87060,note_on,60,0,3,,,,,,,,,2,,,62,0
87060,note_on,0,0,3,,,,,,,,,2,,,52,36
87120,note_on,240,0,1,,,,,,,,,0,,,76,0
87120,note_on,0,0,1,,,,,,,,,0,,,74,49
87120,note_on,0,0,3,,,,,,,,,2,,,59,36
87120,control_change,0,0,3,,,,,,,,,2,64,0,,
87120,note_on,60,0,3,,,,,,,,,2,,,52,0
87180,note_on,60,0,3,,,,,,,,,2,,,59,0
87240,note_on,0,0,2,,,,,,,,,1,,,64,36
87240,note_on,120,0,1,,,,,,,,,0,,,74,0
87240,note_on,0,0,1,,,,,,,,,0,,,76,49
87240,control_change,60,0,3,,,,,,,,,2,64,127,,
87240,note_on,0,0,3,,,,,,,,,2,,,45,36
87240,note_on,360,0,2,,,,,,,,,1,,,64,0
87300,note_on,0,0,3,,,,,,,,,2,,,52,36
87300,note_on,60,0,3,,,,,,,,,2,,,45,0
87360,note_on,0,0,3,,,,,,,,,2,,,61,36
87360,note_on,60,0,3,,,,,,,,,2,,,52,0
87420,note_on,60,0,3,,,,,,,,,2,,,61,0
87420,note_on,0,0,3,,,,,,,,,2,,,52,36
87480,note_on,60,0,3,,,,,,,,,2,,,52,0
87480,control_change,0,0,3,,,,,,,,,2,64,0,,
87480,note_on,0,0,3,,,,,,,,,2,,,57,36
87480,note_on,240,0,1,,,,,,,,,0,,,76,0
87480,note_on,0,0,1,,,,,,,,,0,,,73,49
87540,note_on,60,0,3,,,,,,,,,2,,,57,0
87600,note_on,0,0,3,,,,,,,,,2,,,40,36
87600,note_on,0,0,1,,,,,,,,,0,,,77,49
87600,control_change,0,0,1,,,,,,,,,0,64,127,,
87600,note_on,120,0,1,,,,,,,,,0,,,73,0
87600,control_change,60,0,3,,,,,,,,,2,64,127,,
87600,note_on,0,0,2,,,,,,,,,1,,,62,36
87600,note_on,360,0,2,,,,,,,,,1,,,64,0
87660,note_on,0,0,3,,,,,,,,,2,,,52,36
87660,note_on,60,0,3,,,,,,,,,2,,,40,0
87720,note_on,0,0,3,,,,,,,,,2,,,59,36
87720,note_on,120,0,1,,,,,,,,,0,,,77,0
87720,note_on,0,0,1,,,,,,,,,0,,,76,49
87720,note_on,60,0,3,,,,,,,,,2,,,52,0
87780,note_on,60,0,1,,,,,,,,,0,,,76,0
87780,note_on,60,0,3,,,,,,,,,2,,,59,0
87780,note_on,0,0,1,,,,,,,,,0,,,74,49
87780,note_on,0,0,3,,,,,,,,,2,,,52,36
87840,note_on,60,0,1,,,,,,,,,0,,,74,0
87840,note_on,0,0,1,,,,,,,,,0,,,73,49
87840,note_on,0,0,3,,,,,,,,,2,,,56,36
87840,control_change,0,0,3,,,,,,,,,2,64,0,,
87840,note_on,60,0,3,,,,,,,,,2,,,52,0
87900,note_on,60,0,3,,,,,,,,,2,,,56,0
87900,note_on,60,0,1,,,,,,,,,0,,,73,0
87900,control_change,0,0,1,,,,,,,,,0,64,0,,
87900,note_on,0,0,1,,,,,,,,,0,,,71,49
87960,note_on,0,0,3,,,,,,,,,2,,,45,36
87960,control_change,60,0,3,,,,,,,,,2,64,127,,
87960,note_on,0,0,2,,,,,,,,,1,,,61,36
87960,note_on,360,0,2,,,,,,,,,1,,,62,0
87960,note_on,0,0,1,,,,,,,,,0,,,69,36
87960,control_change,0,0,1,,,,,,,,,0,64,127,,
87960,note_on,60,0,1,,,,,,,,,0,,,71,0
88020,note_on,60,0,3,,,,,,,,,2,,,45,0
88020,note_on,0,0,3,,,,,,,,,2,,,52,36
88080,note_on,60,0,3,,,,,,,,,2,,,52,0
88080,note_on,0,0,3,,,,,,,,,2,,,61,36
88140,note_on,180,0,1,,,,,,,,,0,,,69,0
88140,note_on,0,0,1,,,,,,,,,0,,,71,36
88140,note_on,60,0,3,,,,,,,,,2,,,61,0
88140,note_on,0,0,3,,,,,,,,,2,,,52,36
88140,note_on,180,0,2,,,,,,,,,1,,,61,0
88200,note_on,60,0,3,,,,,,,,,2,,,52,0
88200,note_on,60,0,1,,,,,,,,,0,,,71,0
88200,note_on,0,0,1,,,,,,,,,0,,,73,36
88200,control_change,0,0,3,,,,,,,,,2,64,0,,
88200,note_on,0,0,3,,,,,,,,,2,,,57,36
88260,note_on,60,0,3,,,,,,,,,2,,,57,0
88260,control_change,0,0,1,,,,,,,,,0,64,0,,
88260,note_on,60,0,1,,,,,,,,,0,,,73,0
88260,note_on,0,0,1,,,,,,,,,0,,,74,36
88320,control_change,0,0,1,,,,,,,,,0,64,127,,
88320,note_on,0,0,1,,,,,,,,,0,,,73,36
88320,note_on,180,0,2,,,,,,,,,1,,,67,36
88320,control_change,60,0,3,,,,,,,,,2,64,127,,
88320,note_on,60,0,1,,,,,,,,,0,,,74,0
88320,note_on,0,0,3,,,,,,,,,2,,,45,36
88380,note_on,0,0,3,,,,,,,,,2,,,57,36
88380,note_on,60,0,3,,,,,,,,,2,,,45,0
88440,note_on,0,0,1,,,,,,,,,0,,,82,36
88440,note_on,0,0,3,,,,,,,,,2,,,64,36
88440,note_on,120,0,1,,,,,,,,,0,,,73,0
88440,note_on,60,0,3,,,,,,,,,2,,,57,0
88500,note_on,60,0,3,,,,,,,,,2,,,64,0
88500,note_on,0,0,3,,,,,,,,,2,,,57,36
88560,note_on,60,0,3,,,,,,,,,2,,,57,0
88560,control_change,0,0,3,,,,,,,,,2,64,0,,
88560,note_on,0,0,3,,,,,,,,,2,,,64,36
88560,control_change,0,0,1,,,,,,,,,0,64,0,,
88560,note_on,120,0,1,,,,,,,,,0,,,82,0
88560,note_on,0,0,1,,,,,,,,,0,,,81,36
88620,note_on,60,0,3,,,,,,,,,2,,,64,0
88680,note_on,0,0,1,,,,,,,,,0,,,79,36
88680,note_on,360,0,2,,,,,,,,,1,,,67,0
88680,note_on,0,0,3,,,,,,,,,2,,,50,36
88680,control_change,60,0,3,,,,,,,,,2,64,127,,
88680,note_on,120,0,1,,,,,,,,,0,,,81,0
88680,note_on,0,0,2,,,,,,,,,1,,,69,36
88740,note_on,60,0,3,,,,,,,,,2,,,50,0
88740,note_on,0,0,3,,,,,,,,,2,,,57,36
88800,note_on,60,0,3,,,,,,,,,2,,,57,0
88800,note_on,0,0,3,,,,,,,,,2,,,62,36
88860,note_on,60,0,3,,,,,,,,,2,,,62,0
88860,note_on,0,0,3,,,,,,,,,2,,,57,36
88920,note_on,0,0,1,,,,,,,,,0,,,78,36
88920,note_on,240,0,1,,,,,,,,,0,,,79,0
88920,note_on,60,0,3,,,,,,,,,2,,,57,0
88920,control_change,0,0,3,,,,,,,,,2,64,0,,
88920,note_on,0,0,3,,,,,,,,,2,,,66,36
88980,note_on,60,0,3,,,,,,,,,2,,,66,0
89040,note_on,0,0,1,,,,,,,,,0,,,73,36
89040,control_change,0,0,1,,,,,,,,,0,64,127,,
89040,note_on,0,0,2,,,,,,,,,1,,,64,36
89040,note_on,360,0,2,,,,,,,,,1,,,69,0
89040,control_change,60,0,3,,,,,,,,,2,64,127,,
89040,note_on,0,0,3,,,,,,,,,2,,,42,36
89040,note_on,120,0,1,,,,,,,,,0,,,78,0
89100,note_on,0,0,3,,,,,,,,,2,,,54,36
89100,note_on,60,0,3,,,,,,,,,2,,,42,0
89160,note_on,0,0,1,,,,,,,,,0,,,79,36
89160,note_on,0,0,3,,,,,,,,,2,,,61,36
89160,note_on,60,0,3,,,,,,,,,2,,,54,0
89160,note_on,120,0,1,,,,,,,,,0,,,73,0
89220,note_on,0,0,3,,,,,,,,,2,,,54,36
89220,note_on,60,0,3,,,,,,,,,2,,,61,0
89280,note_on,120,0,1,,,,,,,,,0,,,79,0
89280,control_change,0,0,1,,,,,,,,,0,64,0,,
89280,note_on,0,0,1,,,,,,,,,0,,,78,36
89280,note_on,0,0,3,,,,,,,,,2,,,58,36
89280,control_change,0,0,3,,,,,,,,,2,64,0,,
89280,note_on,60,0,3,,,,,,,,,2,,,54,0
89340,note_on,60,0,3,,,,,,,,,2,,,58,0
89400,note_on,0,0,2,,,,,,,,,1,,,66,49
89400,note_on,0,0,3,,,,,,,,,2,,,47,49
89400,control_change,60,0,3,,,,,,,,,2,64,127,,
89400,note_on,120,0,1,,,,,,,,,0,,,78,0
89400,note_on,360,0,2,,,,,,,,,1,,,64,0
89400,note_on,0,0,1,,,,,,,,,0,,,76,62
89460,note_on,60,0,3,,,,,,,,,2,,,47,0
89460,note_on,0,0,3,,,,,,,,,2,,,54,49
89520,note_on,0,0,3,,,,,,,,,2,,,59,49
89520,note_on,60,0,3,,,,,,,,,2,,,54,0
89580,note_on,0,0,3,,,,,,,,,2,,,54,49
89580,note_on,60,0,3,,,,,,,,,2,,,59,0
89640,note_on,0,0,1,,,,,,,,,0,,,74,62
89640,note_on,240,0,1,,,,,,,,,0,,,76,0
89640,note_on,60,0,3,,,,,,,,,2,,,54,0
89640,note_on,0,0,3,,,,,,,,,2,,,62,49
89640,control_change,0,0,3,,,,,,,,,2,64,0,,
89700,note_on,60,0,3,,,,,,,,,2,,,62,0
89760,note_on,0,0,2,,,,,,,,,1,,,64,36
89760,note_on,360,0,2,,,,,,,,,1,,,66,0
89760,note_on,120,0,1,,,,,,,,,0,,,74,0
89760,control_change,60,0,3,,,,,,,,,2,64,127,,
89760,note_on,0,0,1,,,,,,,,,0,,,76,49
89760,note_on,0,0,3,,,,,,,,,2,,,44,36
89820,note_on,60,0,3,,,,,,,,,2,,,44,0
89820,note_on,0,0,3,,,,,,,,,2,,,52,36
89880,note_on,0,0,3,,,,,,,,,2,,,62,36
89880,note_on,60,0,3,,,,,,,,,2,,,52,0
89940,note_on,60,0,3,,,,,,,,,2,,,62,0
89940,note_on,0,0,3,,,,,,,,,2,,,52,36
90000,note_on,0,0,3,,,,,,,,,2,,,59,36
90000,control_change,0,0,3,,,,,,,,,2,64,0,,
90000,note_on,60,0,3,,,,,,,,,2,,,52,0
90000,note_on,240,0,1,,,,,,,,,0,,,76,0
90000,note_on,0,0,1,,,,,,,,,0,,,74,49
90060,note_on,60,0,3,,,,,,,,,2,,,59,0
90120,note_on,120,0,1,,,,,,,,,0,,,74,0
90120,note_on,0,0,1,,,,,,,,,0,,,76,49
90120,control_change,60,0,3,,,,,,,,,2,64,127,,
90120,note_on,360,0,2,,,,,,,,,1,,,64,0
90120,note_on,0,0,2,,,,,,,,,1,,,64,36
90120,note_on,0,0,3,,,,,,,,,2,,,45,36
90180,note_on,60,0,3,,,,,,,,,2,,,45,0
90180,note_on,0,0,3,,,,,,,,,2,,,52,36
90240,note_on,0,0,3,,,,,,,,,2,,,61,36
90240,note_on,60,0,3,,,,,,,,,2,,,52,0
90300,note_on,60,0,3,,,,,,,,,2,,,61,0
90300,note_on,0,0,3,,,,,,,,,2,,,52,36
90360,note_on,0,0,1,,,,,,,,,0,,,73,49
90360,note_on,60,0,3,,,,,,,,,2,,,52,0
90360,control_change,0,0,3,,,,,,,,,2,64,0,,
90360,note_on,0,0,3,,,,,,,,,2,,,57,36
90360,note_on,240,0,1,,,,,,,,,0,,,76,0
90420,note_on,60,0,3,,,,,,,,,2,,,57,0
90480,control_change,60,0,3,,,,,,,,,2,64,127,,
90480,note_on,0,0,3,,,,,,,,,2,,,40,36
90480,note_on,0,0,1,,,,,,,,,0,,,77,49
90480,control_change,0,0,1,,,,,,,,,0,64,127,,
90480,note_on,120,0,1,,,,,,,,,0,,,73,0
90480,note_on,0,0,2,,,,,,,,,1,,,62,36
90480,note_on,360,0,2,,,,,,,,,1,,,64,0
90540,note_on,0,0,3,,,,,,,,,2,,,52,36
90540,note_on,60,0,3,,,,,,,,,2,,,40,0
90600,note_on,60,0,3,,,,,,,,,2,,,52,0
90600,note_on,120,0,1,,,,,,,,,0,,,77,0
90600,note_on,0,0,1,,,,,,,,,0,,,76,49
90600,note_on,0,0,3,,,,,,,,,2,,,59,36
90660,note_on,60,0,3,,,,,,,,,2,,,59,0
90660,note_on,0,0,3,,,,,,,,,2,,,52,36
90660,note_on,0,0,1,,,,,,,,,0,,,74,49
90660,note_on,60,0,1,,,,,,,,,0,,,76,0
90720,note_on,60,0,1,,,,,,,,,0,,,74,0
90720,note_on,0,0,1,,,,,,,,,0,,,73,49
90720,control_change,0,0,3,,,,,,,,,2,64,0,,
90720,note_on,0,0,3,,,,,,,,,2,,,56,36
90720,note_on,60,0,3,,,,,,,,,2,,,52,0
90780,note_on,60,0,3,,,,,,,,,2,,,56,0
90780,note_on,0,0,1,,,,,,,,,0,,,71,49
90780,control_change,0,0,1,,,,,,,,,0,64,0,,
90780,note_on,60,0,1,,,,,,,,,0,,,73,0
90840,note_on,0,0,1,,,,,,,,,0,,,69,49
90840,note_on,0,0,1,,,,,,,,,0,,,61,49
90840,note_on,60,0,1,,,,,,,,,0,,,71,0
90840,control_change,60,0,3,,,,,,,,,2,64,127,,
90840,note_on,0,0,3,,,,,,,,,2,,,45,36
90840,note_on,360,0,2,,,,,,,,,1,,,62,0
90900,note_on,60,0,3,,,,,,,,,2,,,45,0
90900,note_on,0,0,3,,,,,,,,,2,,,52,36
90960,note_on,0,0,3,,,,,,,,,2,,,57,36
90960,note_on,60,0,3,,,,,,,,,2,,,52,0
91020,note_on,60,0,3,,,,,,,,,2,,,57,0
91020,note_on,0,0,3,,,,,,,,,2,,,52,36
91080,note_on,60,0,3,,,,,,,,,2,,,52,0
91080,control_change,0,0,3,,,,,,,,,2,64,0,,
91080,note_on,0,0,3,,,,,,,,,2,,,61,36
91140,note_on,60,0,3,,,,,,,,,2,,,61,0
91200,control_change,0,0,1,,,,,,,,,0,64,127,,
91200,note_on,0,0,1,,,,,,,,,0,,,61,0
91200,note_on,360,0,1,,,,,,,,,0,,,69,0
91200,note_on,0,0,1,,,,,,,,,0,,,69,101
91200,note_on,0,0,3,,,,,,,,,2,,,57,88
91200,note_on,0,0,3,,,,,,,,,2,,,52,88
91200,note_on,0,0,3,,,,,,,,,2,,,48,88
91200,note_on,60,0,3,,,,,,,,,2,,,45,88
91260,note_on,0,0,1,,,,,,,,,0,,,71,101
91260,note_on,60,0,1,,,,,,,,,0,,,69,0
91290,note_on,0,0,1,,,,,,,,,0,,,72,101
91290,note_on,30,0,1,,,,,,,,,0,,,71,0
91320,note_on,0,0,1,,,,,,,,,0,,,74,101
91320,note_on,30,0,1,,,,,,,,,0,,,72,0
91350,note_on,30,0,1,,,,,,,,,0,,,74,0
91350,note_on,0,0,1,,,,,,,,,0,,,76,101
91380,note_on,30,0,1,,,,,,,,,0,,,76,0
91380,note_on,0,0,1,,,,,,,,,0,,,78,101
91410,note_on,0,0,1,,,,,,,,,0,,,80,101
91410,note_on,30,0,1,,,,,,,,,0,,,78,0
91440,note_on,30,0,1,,,,,,,,,0,,,80,0
91440,note_on,0,0,1,,,,,,,,,0,,,81,101
91470,note_on,0,0,1,,,,,,,,,0,,,83,101
91470,note_on,30,0,1,,,,,,,,,0,,,81,0
91500,note_on,0,0,1,,,,,,,,,0,,,84,101
91500,note_on,30,0,1,,,,,,,,,0,,,83,0
91530,note_on,0,0,1,,,,,,,,,0,,,86,101
91530,control_change,0,0,1,,,,,,,,,0,64,0,,
91530,note_on,30,0,1,,,,,,,,,0,,,84,0
91560,note_on,0,0,3,,,,,,,,,2,,,45,0
91560,note_on,0,0,3,,,,,,,,,2,,,56,88
91560,note_on,0,0,3,,,,,,,,,2,,,52,88
91560,note_on,30,0,1,,,,,,,,,0,,,86,0
91560,note_on,0,0,1,,,,,,,,,0,,,88,101
91560,note_on,0,0,3,,,,,,,,,2,,,52,0
91560,note_on,0,0,3,,,,,,,,,2,,,48,0
91560,note_on,360,0,3,,,,,,,,,2,,,57,0
91560,note_on,0,0,1,,,,,,,,,0,,,76,101
91566,note_on,6,0,3,,,,,,,,,2,,,56,0
91566,note_on,6,0,1,,,,,,,,,0,,,88,0
91566,note_on,0,0,1,,,,,,,,,0,,,76,0
91566,note_on,0,0,3,,,,,,,,,2,,,52,0
91620,note_on,54,0,3,,,,,,,,,2,,,53,88
91620,note_on,54,0,1,,,,,,,,,0,,,75,101
91620,note_on,0,0,1,,,,,,,,,0,,,87,101
91620,note_on,0,0,3,,,,,,,,,2,,,57,88
91626,note_on,6,0,3,,,,,,,,,2,,,57,0
91626,note_on,0,0,3,,,,,,,,,2,,,53,0
91626,note_on,6,0,1,,,,,,,,,0,,,87,0
91626,note_on,0,0,1,,,,,,,,,0,,,75,0
91680,note_on,54,0,3,,,,,,,,,2,,,52,88
91680,note_on,0,0,3,,,,,,,,,2,,,56,88
91680,note_on,54,0,1,,,,,,,,,0,,,76,101
91680,note_on,0,0,1,,,,,,,,,0,,,88,101
91686,note_on,6,0,1,,,,,,,,,0,,,88,0
91686,note_on,6,0,3,,,,,,,,,2,,,56,0
91686,note_on,0,0,3,,,,,,,,,2,,,52,0
91686,note_on,0,0,1,,,,,,,,,0,,,76,0
91740,note_on,0,0,1,,,,,,,,,0,,,87,101
91740,note_on,54,0,1,,,,,,,,,0,,,75,101
91740,note_on,54,0,3,,,,,,,,,2,,,53,88
91740,note_on,0,0,3,,,,,,,,,2,,,57,88
91746,note_on,0,0,1,,,,,,,,,0,,,75,0
91746,note_on,6,0,1,,,,,,,,,0,,,87,0
91746,note_on,0,0,3,,,,,,,,,2,,,53,0
91746,note_on,6,0,3,,,,,,,,,2,,,57,0
91800,note_on,54,0,3,,,,,,,,,2,,,52,88
91800,note_on,0,0,3,,,,,,,,,2,,,56,88
91800,note_on,54,0,1,,,,,,,,,0,,,76,101
91800,note_on,0,0,1,,,,,,,,,0,,,88,101
91806,note_on,0,0,1,,,,,,,,,0,,,76,0
91806,note_on,6,0,3,,,,,,,,,2,,,56,0
91806,note_on,0,0,3,,,,,,,,,2,,,52,0
91806,note_on,6,0,1,,,,,,,,,0,,,88,0
91920,control_change,114,0,1,,,,,,,,,0,64,127,,
91920,note_on,0,0,1,,,,,,,,,0,,,67,101
91920,note_on,0,0,3,,,,,,,,,2,,,50,88
91920,note_on,114,0,3,,,,,,,,,2,,,43,88
91920,note_on,0,0,3,,,,,,,,,2,,,47,88
91920,note_on,0,0,3,,,,,,,,,2,,,55,88
91980,note_on,60,0,1,,,,,,,,,0,,,67,0
91980,note_on,0,0,1,,,,,,,,,0,,,69,101
92010,note_on,0,0,1,,,,,,,,,0,,,71,101
92010,note_on,30,0,1,,,,,,,,,0,,,69,0
92040,note_on,30,0,1,,,,,,,,,0,,,71,0
92040,note_on,0,0,1,,,,,,,,,0,,,72,101
92070,note_on,0,0,1,,,,,,,,,0,,,74,101
92070,note_on,30,0,1,,,,,,,,,0,,,72,0
92100,note_on,30,0,1,,,,,,,,,0,,,74,0
92100,note_on,0,0,1,,,,,,,,,0,,,76,101
92130,note_on,30,0,1,,,,,,,,,0,,,76,0
92130,note_on,0,0,1,,,,,,,,,0,,,78,101
92160,note_on,30,0,1,,,,,,,,,0,,,78,0
92160,note_on,0,0,1,,,,,,,,,0,,,79,101
92190,note_on,30,0,1,,,,,,,,,0,,,79,0
92190,note_on,0,0,1,,,,,,,,,0,,,81,101
92220,note_on,30,0,1,,,,,,,,,0,,,81,0
92220,note_on,0,0,1,,,,,,,,,0,,,83,101
92250,note_on,0,0,1,,,,,,,,,0,,,85,101
92250,note_on,30,0,1,,,,,,,,,0,,,83,0
92250,control_change,0,0,1,,,,,,,,,0,64,0,,
92280,note_on,0,0,1,,,,,,,,,0,,,86,101
92280,note_on,0,0,1,,,,,,,,,0,,,74,101
92280,note_on,30,0,1,,,,,,,,,0,,,85,0
92280,note_on,0,0,3,,,,,,,,,2,,,50,0
92280,note_on,0,0,3,,,,,,,,,2,,,50,88
92280,note_on,360,0,3,,,,,,,,,2,,,55,0
92280,note_on,0,0,3,,,,,,,,,2,,,47,0
92280,note_on,0,0,3,,,,,,,,,2,,,43,0
92280,note_on,0,0,3,,,,,,,,,2,,,54,88
92286,note_on,0,0,1,,,,,,,,,0,,,74,0
92286,note_on,6,0,3,,,,,,,,,2,,,54,0
92286,note_on,0,0,3,,,,,,,,,2,,,50,0
92286,note_on,6,0,1,,,,,,,,,0,,,86,0
92340,note_on,54,0,1,,,,,,,,,0,,,73,101
92340,note_on,0,0,1,,,,,,,,,0,,,85,101
92340,note_on,54,0,3,,,,,,,,,2,,,52,88
92340,note_on,0,0,3,,,,,,,,,2,,,55,88
92346,note_on,0,0,3,,,,,,,,,2,,,52,0
92346,note_on,6,0,1,,,,,,,,,0,,,85,0
92346,note_on,0,0,1,,,,,,,,,0,,,73,0
92346,note_on,6,0,3,,,,,,,,,2,,,55,0
92400,note_on,0,0,3,,,,,,,,,2,,,54,88
92400,note_on,54,0,3,,,,,,,,,2,,,50,88
92400,note_on,0,0,1,,,,,,,,,0,,,86,101
92400,note_on,54,0,1,,,,,,,,,0,,,74,101
92406,note_on,0,0,3,,,,,,,,,2,,,50,0
92406,note_on,6,0,3,,,,,,,,,2,,,54,0
92406,note_on,0,0,1,,,,,,,,,0,,,74,0
92406,note_on,6,0,1,,,,,,,,,0,,,86,0
92460,note_on,0,0,1,,,,,,,,,0,,,85,101
92460,note_on,0,0,3,,,,,,,,,2,,,55,88
92460,note_on,54,0,3,,,,,,,,,2,,,52,88
92460,note_on,54,0,1,,,,,,,,,0,,,73,101
92466,note_on,6,0,3,,,,,,,,,2,,,55,0
92466,note_on,0,0,1,,,,,,,,,0,,,73,0
92466,note_on,6,0,1,,,,,,,,,0,,,85,0
92466,note_on,0,0,3,,,,,,,,,2,,,52,0
92520,note_on,0,0,1,,,,,,,,,0,,,86,101
92520,note_on,54,0,1,,,,,,,,,0,,,74,101
92520,note_on,0,0,3,,,,,,,,,2,,,54,88
92520,note_on,54,0,3,,,,,,,,,2,,,50,88
92526,note_on,0,0,1,,,,,,,,,0,,,74,0
92526,note_on,0,0,3,,,,,,,,,2,,,50,0
92526,note_on,6,0,3,,,,,,,,,2,,,54,0
92526,note_on,6,0,1,,,,,,,,,0,,,86,0
92640,note_on,0,0,3,,,,,,,,,2,,,53,88
92640,note_on,0,0,3,,,,,,,,,2,,,48,88
92640,note_on,0,0,3,,,,,,,,,2,,,45,88
92640,note_on,114,0,3,,,,,,,,,2,,,41,88
92640,control_change,114,0,1,,,,,,,,,0,64,127,,
92670,note_on,30,0,1,,,,,,,,,0,,,77,101
92700,note_on,30,0,1,,,,,,,,,0,,,77,0
92700,note_on,0,0,1,,,,,,,,,0,,,81,101
92730,note_on,0,0,1,,,,,,,,,0,,,84,101
92730,note_on,30,0,1,,,,,,,,,0,,,81,0
92760,note_on,30,0,1,,,,,,,,,0,,,84,0
92760,note_on,0,0,1,,,,,,,,,0,,,89,101
92790,note_on,30,0,1,,,,,,,,,0,,,89,0
92790,note_on,0,0,1,,,,,,,,,0,,,93,101
92820,note_on,30,0,1,,,,,,,,,0,,,93,0
92820,note_on,0,0,1,,,,,,,,,0,,,96,101
92850,note_on,0,0,1,,,,,,,,,0,,,101,101
92850,note_on,30,0,1,,,,,,,,,0,,,96,0
92880,note_on,0,0,3,,,,,,,,,2,,,41,0
92880,note_on,240,0,3,,,,,,,,,2,,,53,0
92880,note_on,0,0,3,,,,,,,,,2,,,45,0
92880,note_on,0,0,3,,,,,,,,,2,,,45,88
92880,note_on,0,0,3,,,,,,,,,2,,,48,88
92880,note_on,0,0,1,,,,,,,,,0,,,100,101
92880,note_on,0,0,3,,,,,,,,,2,,,57,88
92880,note_on,0,0,3,,,,,,,,,2,,,52,88
92880,note_on,30,0,1,,,,,,,,,0,,,101,0
92880,note_on,0,0,3,,,,,,,,,2,,,48,0
92940,note_on,0,0,3,,,,,,,,,2,,,52,0
92940,note_on,0,0,3,,,,,,,,,2,,,48,0
92940,note_on,0,0,3,,,,,,,,,2,,,45,0
92940,note_on,60,0,3,,,,,,,,,2,,,57,0
92940,control_change,0,0,1,,,,,,,,,0,64,0,,
92940,note_on,60,0,1,,,,,,,,,0,,,100,0
93000,note_on,0,0,3,,,,,,,,,2,,,50,88
93000,note_on,60,0,1,,,,,,,,,0,,,74,101
93000,note_on,60,0,3,,,,,,,,,2,,,46,88
93000,note_on,0,0,3,,,,,,,,,2,,,58,88
93000,note_on,0,0,3,,,,,,,,,2,,,53,88
93030,note_on,0,0,1,,,,,,,,,0,,,77,101
93030,note_on,30,0,1,,,,,,,,,0,,,74,0
93060,note_on,0,0,1,,,,,,,,,0,,,82,101
93060,note_on,30,0,1,,,,,,,,,0,,,77,0
93090,note_on,30,0,1,,,,,,,,,0,,,82,0
93090,note_on,0,0,1,,,,,,,,,0,,,86,101
93120,note_on,120,0,3,,,,,,,,,2,,,58,0
93120,note_on,0,0,3,,,,,,,,,2,,,46,0
93120,note_on,0,0,3,,,,,,,,,2,,,50,0
93120,note_on,0,0,3,,,,,,,,,2,,,47,88
93120,note_on,0,0,3,,,,,,,,,2,,,50,88
93120,note_on,0,0,3,,,,,,,,,2,,,53,0
93120,note_on,0,0,3,,,,,,,,,2,,,59,88
93120,note_on,0,0,3,,,,,,,,,2,,,56,88
93120,note_on,0,0,1,,,,,,,,,0,,,77,101
93120,note_on,30,0,1,,,,,,,,,0,,,86,0
93150,note_on,0,0,1,,,,,,,,,0,,,80,101
93150,note_on,30,0,1,,,,,,,,,0,,,77,0
93180,note_on,0,0,1,,,,,,,,,0,,,86,101
93180,note_on,30,0,1,,,,,,,,,0,,,80,0
93210,note_on,0,0,1,,,,,,,,,0,,,89,101
93210,note_on,30,0,1,,,,,,,,,0,,,86,0
93240,note_on,0,0,3,,,,,,,,,2,,,60,88
93240,note_on,0,0,1,,,,,,,,,0,,,76,101
93240,note_on,0,0,3,,,,,,,,,2,,,57,88
93240,note_on,120,0,3,,,,,,,,,2,,,59,0
93240,note_on,30,0,1,,,,,,,,,0,,,89,0
93240,note_on,0,0,3,,,,,,,,,2,,,50,0
93240,note_on,0,0,3,,,,,,,,,2,,,56,0
93240,note_on,0,0,3,,,,,,,,,2,,,48,88
93240,note_on,0,0,3,,,,,,,,,2,,,52,88
93240,note_on,0,0,3,,,,,,,,,2,,,47,0
93270,note_on,30,0,1,,,,,,,,,0,,,76,0
93270,note_on,0,0,1,,,,,,,,,0,,,81,101
93300,note_on,30,0,1,,,,,,,,,0,,,81,0
93300,note_on,0,0,1,,,,,,,,,0,,,84,101
93330,note_on,30,0,1,,,,,,,,,0,,,84,0
93330,note_on,0,0,1,,,,,,,,,0,,,88,101
93360,note_on,0,0,1,,,,,,,,,0,,,74,101
93360,note_on,30,0,1,,,,,,,,,0,,,88,0
93360,note_on,0,0,3,,,,,,,,,2,,,52,0
93360,note_on,0,0,3,,,,,,,,,2,,,62,88
93360,note_on,0,0,3,,,,,,,,,2,,,59,88
93360,note_on,0,0,3,,,,,,,,,2,,,50,88
93360,note_on,0,0,3,,,,,,,,,2,,,57,0
93360,note_on,0,0,3,,,,,,,,,2,,,53,88
93360,note_on,120,0,3,,,,,,,,,2,,,60,0
93360,note_on,0,0,3,,,,,,,,,2,,,48,0
93390,note_on,0,0,1,,,,,,,,,0,,,77,101
93390,note_on,30,0,1,,,,,,,,,0,,,74,0
93420,note_on,0,0,1,,,,,,,,,0,,,83,101
93420,note_on,30,0,1,,,,,,,,,0,,,77,0
93450,note_on,30,0,1,,,,,,,,,0,,,83,0
93450,note_on,0,0,1,,,,,,,,,0,,,86,101
93480,note_on,0,0,3,,,,,,,,,2,,,57,88
93480,note_on,30,0,1,,,,,,,,,0,,,86,0
93480,note_on,0,0,3,,,,,,,,,2,,,64,88
93480,note_on,0,0,3,,,,,,,,,2,,,60,88
93480,note_on,0,0,3,,,,,,,,,2,,,52,88
93480,note_on,0,0,3,,,,,,,,,2,,,50,0
93480,note_on,0,0,3,,,,,,,,,2,,,53,0
93480,note_on,0,0,1,,,,,,,,,0,,,72,101
93480,note_on,120,0,3,,,,,,,,,2,,,62,0
93480,note_on,0,0,3,,,,,,,,,2,,,59,0
93510,note_on,0,0,1,,,,,,,,,0,,,76,101
93510,note_on,30,0,1,,,,,,,,,0,,,72,0
93540,note_on,30,0,1,,,,,,,,,0,,,76,0
93540,note_on,0,0,1,,,,,,,,,0,,,81,101
93570,note_on,30,0,1,,,,,,,,,0,,,81,0
93570,note_on,0,0,1,,,,,,,,,0,,,84,101
93600,note_on,120,0,3,,,,,,,,,2,,,64,0
93600,note_on,30,0,1,,,,,,,,,0,,,84,0
93600,note_on,0,0,1,,,,,,,,,0,,,71,101
93600,note_on,0,0,3,,,,,,,,,2,,,52,0
93600,note_on,0,0,3,,,,,,,,,2,,,64,88
93600,note_on,0,0,3,,,,,,,,,2,,,59,88
93600,note_on,0,0,3,,,,,,,,,2,,,57,0
93600,note_on,0,0,3,,,,,,,,,2,,,60,0
93600,note_on,0,0,3,,,,,,,,,2,,,52,88
93600,note_on,0,0,3,,,,,,,,,2,,,56,88
93630,note_on,30,0,1,,,,,,,,,0,,,71,0
93630,note_on,0,0,1,,,,,,,,,0,,,76,101
93660,note_on,0,0,1,,,,,,,,,0,,,80,101
93660,note_on,30,0,1,,,,,,,,,0,,,76,0
93690,note_on,0,0,1,,,,,,,,,0,,,83,101
93690,note_on,30,0,1,,,,,,,,,0,,,80,0
93720,note_on,0,0,3,,,,,,,,,2,,,56,0
93720,note_on,0,0,3,,,,,,,,,2,,,52,0
93720,note_on,120,0,3,,,,,,,,,2,,,64,0
93720,note_on,0,0,1,,,,,,,,,0,,,69,101
93720,note_on,30,0,1,,,,,,,,,0,,,83,0
93720,control_change,0,0,1,,,,,,,,,0,64,127,,
93720,note_on,0,0,3,,,,,,,,,2,,,45,88
93720,note_on,0,0,3,,,,,,,,,2,,,59,0
93720,note_on,0,0,1,,,,,,,,,0,,,57,101
93759,note_on,0,0,1,,,,,,,,,0,,,71,101
93759,note_on,39,0,1,,,,,,,,,0,,,59,101
93760,note_on,0,0,1,,,,,,,,,0,,,57,0
93760,note_on,1,0,1,,,,,,,,,0,,,69,0
93799,note_on,39,0,1,,,,,,,,,0,,,59,0
93799,note_on,0,0,1,,,,,,,,,0,,,71,0
93800,note_on,1,0,1,,,,,,,,,0,,,60,101
93800,note_on,0,0,1,,,,,,,,,0,,,72,101
93840,note_on,0,0,1,,,,,,,,,0,,,60,0
93840,note_on,0,0,1,,,,,,,,,0,,,59,101
93840,note_on,120,0,3,,,,,,,,,2,,,45,0
93840,note_on,0,0,1,,,,,,,,,0,,,71,101
93840,control_change,0,0,1,,,,,,,,,0,64,0,,
93840,note_on,40,0,1,,,,,,,,,0,,,72,0
93879,note_on,0,0,1,,,,,,,,,0,,,72,101
93879,note_on,39,0,1,,,,,,,,,0,,,60,101
93880,note_on,0,0,1,,,,,,,,,0,,,59,0
93880,note_on,1,0,1,,,,,,,,,0,,,71,0
93919,note_on,0,0,1,,,,,,,,,0,,,72,0
93919,note_on,39,0,1,,,,,,,,,0,,,60,0
93920,note_on,1,0,1,,,,,,,,,0,,,62,101
93920,note_on,0,0,1,,,,,,,,,0,,,74,101
93960,note_on,40,0,1,,,,,,,,,0,,,74,0
93960,note_on,0,0,1,,,,,,,,,0,,,62,0
93960,note_on,0,0,1,,,,,,,,,0,,,64,114
93960,note_on,0,0,1,,,,,,,,,0,,,76,114
93960,control_change,120,0,3,,,,,,,,,2,64,127,,
93960,note_on,0,0,3,,,,,,,,,2,,,40,114
93960,note_on,0,0,3,,,,,,,,,2,,,52,114
93999,note_on,0,0,3,,,,,,,,,2,,,54,114
93999,note_on,39,0,3,,,,,,,,,2,,,42,114
94000,note_on,0,0,3,,,,,,,,,2,,,40,0
94000,note_on,1,0,3,,,,,,,,,2,,,52,0
94039,note_on,39,0,3,,,,,,,,,2,,,42,0
94039,note_on,0,0,3,,,,,,,,,2,,,54,0
94040,note_on,1,0,3,,,,,,,,,2,,,44,114
94040,note_on,0,0,3,,,,,,,,,2,,,56,114
94080,note_on,0,0,1,,,,,,,,,0,,,69,114
94080,note_on,0,0,1,,,,,,,,,0,,,64,0
94080,note_on,120,0,1,,,,,,,,,0,,,76,0
94080,note_on,40,0,3,,,,,,,,,2,,,56,0
94080,note_on,0,0,3,,,,,,,,,2,,,44,0
94080,note_on,0,0,1,,,,,,,,,0,,,57,114
94080,note_on,0,0,3,,,,,,,,,2,,,42,101
94080,note_on,0,0,3,,,,,,,,,2,,,54,101
94080,control_change,0,0,3,,,,,,,,,2,64,0,,
94119,note_on,39,0,3,,,,,,,,,2,,,44,101
94119,note_on,0,0,3,,,,,,,,,2,,,56,101
94119,note_on,0,0,1,,,,,,,,,0,,,71,114
94119,note_on,39,0,1,,,,,,,,,0,,,59,114
94120,note_on,1,0,1,,,,,,,,,0,,,69,0
94120,note_on,0,0,1,,,,,,,,,0,,,57,0
94120,note_on,0,0,3,,,,,,,,,2,,,42,0
94120,note_on,1,0,3,,,,,,,,,2,,,54,0
94159,note_on,39,0,3,,,,,,,,,2,,,44,0
94159,note_on,0,0,3,,,,,,,,,2,,,56,0
94159,note_on,0,0,1,,,,,,,,,0,,,71,0
94159,note_on,39,0,1,,,,,,,,,0,,,59,0
94160,note_on,0,0,1,,,,,,,,,0,,,72,114
94160,note_on,1,0,1,,,,,,,,,0,,,60,114
94160,note_on,1,0,3,,,,,,,,,2,,,45,101
94160,note_on,0,0,3,,,,,,,,,2,,,57,101
94200,note_on,0,0,3,,,,,,,,,2,,,45,0
94200,note_on,0,0,3,,,,,,,,,2,,,47,114
94200,note_on,0,0,1,,,,,,,,,0,,,60,0
94200,note_on,0,0,1,,,,,,,,,0,,,59,114
94200,note_on,0,0,1,,,,,,,,,0,,,71,114
94200,control_change,0,0,1,,,,,,,,,0,64,127,,
94200,note_on,0,0,3,,,,,,,,,2,,,59,114
94200,note_on,40,0,3,,,,,,,,,2,,,57,0
94200,note_on,40,0,1,,,,,,,,,0,,,72,0
94239,note_on,39,0,1,,,,,,,,,0,,,60,114
94239,note_on,0,0,1,,,,,,,,,0,,,72,114
94240,note_on,1,0,1,,,,,,,,,0,,,71,0
94240,note_on,0,0,1,,,,,,,,,0,,,59,0
94279,note_on,0,0,1,,,,,,,,,0,,,72,0
94279,note_on,39,0,1,,,,,,,,,0,,,60,0
94280,note_on,0,0,1,,,,,,,,,0,,,74,114
94280,note_on,1,0,1,,,,,,,,,0,,,62,114
94320,note_on,120,0,3,,,,,,,,,2,,,59,0
94320,note_on,0,0,3,,,,,,,,,2,,,47,0
94320,note_on,0,0,3,,,,,,,,,2,,,52,114
94320,control_change,0,0,1,,,,,,,,,0,64,0,,
94320,note_on,0,0,3,,,,,,,,,2,,,40,114
94320,note_on,0,0,1,,,,,,,,,0,,,64,114
94320,note_on,0,0,1,,,,,,,,,0,,,62,0
94320,note_on,40,0,1,,,,,,,,,0,,,74,0
94320,note_on,0,0,1,,,,,,,,,0,,,76,114
94359,note_on,0,0,3,,,,,,,,,2,,,54,114
94359,note_on,39,0,3,,,,,,,,,2,,,42,114
94360,note_on,0,0,3,,,,,,,,,2,,,40,0
94360,note_on,1,0,3,,,,,,,,,2,,,52,0
94399,note_on,0,0,3,,,,,,,,,2,,,54,0
94399,note_on,39,0,3,,,,,,,,,2,,,42,0
94400,note_on,1,0,3,,,,,,,,,2,,,44,114
94400,note_on,0,0,3,,,,,,,,,2,,,56,114
94440,note_on,40,0,3,,,,,,,,,2,,,56,0
94440,note_on,0,0,3,,,,,,,,,2,,,54,101
94440,note_on,0,0,3,,,,,,,,,2,,,44,0
94440,control_change,0,0,1,,,,,,,,,0,64,127,,
94440,note_on,0,0,3,,,,,,,,,2,,,42,101
94440,note_on,0,0,1,,,,,,,,,0,,,81,114
94440,note_on,120,0,1,,,,,,,,,0,,,76,0
94440,control_change,0,0,3,,,,,,,,,2,64,127,,
94440,note_on,0,0,1,,,,,,,,,0,,,64,0
94440,note_on,0,0,1,,,,,,,,,0,,,69,114
94479,note_on,39,0,3,,,,,,,,,2,,,44,101
94479,note_on,39,0,1,,,,,,,,,0,,,71,114
94479,note_on,0,0,1,,,,,,,,,0,,,83,114
94479,note_on,0,0,3,,,,,,,,,2,,,56,101
94480,note_on,0,0,3,,,,,,,,,2,,,42,0
94480,note_on,0,0,1,,,,,,,,,0,,,69,0
94480,note_on,1,0,1,,,,,,,,,0,,,81,0
94480,note_on,1,0,3,,,,,,,,,2,,,54,0
94519,note_on,39,0,3,,,,,,,,,2,,,44,0
94519,note_on,39,0,1,,,,,,,,,0,,,71,0
94519,note_on,0,0,1,,,,,,,,,0,,,83,0
94519,note_on,0,0,3,,,,,,,,,2,,,56,0
94520,note_on,1,0,3,,,,,,,,,2,,,45,101
94520,note_on,1,0,1,,,,,,,,,0,,,72,114
94520,note_on,0,0,1,,,,,,,,,0,,,84,114
94520,note_on,0,0,3,,,,,,,,,2,,,57,101
94560,note_on,40,0,3,,,,,,,,,2,,,57,0
94560,control_change,0,0,3,,,,,,,,,2,64,0,,
94560,note_on,0,0,3,,,,,,,,,2,,,59,114
94560,note_on,0,0,3,,,,,,,,,2,,,45,0
94560,note_on,0,0,3,,,,,,,,,2,,,47,114
94560,note_on,0,0,1,,,,,,,,,0,,,71,114
94560,note_on,40,0,1,,,,,,,,,0,,,84,0
94560,note_on,0,0,1,,,,,,,,,0,,,72,0
94560,note_on,0,0,1,,,,,,,,,0,,,83,114
94560,control_change,0,0,1,,,,,,,,,0,64,0,,
94599,note_on,39,0,1,,,,,,,,,0,,,72,114
94599,note_on,0,0,1,,,,,,,,,0,,,84,114
94600,note_on,0,0,1,,,,,,,,,0,,,71,0
94600,note_on,1,0,1,,,,,,,,,0,,,83,0
94639,note_on,0,0,1,,,,,,,,,0,,,84,0
94639,note_on,39,0,1,,,,,,,,,0,,,72,0
94640,note_on,0,0,1,,,,,,,,,0,,,86,114
94640,note_on,1,0,1,,,,,,,,,0,,,74,114
94680,note_on,0,0,3,,,,,,,,,2,,,47,0
94680,note_on,0,0,1,,,,,,,,,0,,,76,114
94680,note_on,40,0,1,,,,,,,,,0,,,86,0
94680,note_on,0,0,1,,,,,,,,,0,,,88,114
94680,note_on,0,0,3,,,,,,,,,2,,,52,114
94680,note_on,0,0,3,,,,,,,,,2,,,40,114
94680,control_change,0,0,3,,,,,,,,,2,64,127,,
94680,note_on,120,0,3,,,,,,,,,2,,,59,0
94680,note_on,0,0,1,,,,,,,,,0,,,74,0
94719,note_on,0,0,3,,,,,,,,,2,,,54,114
94719,note_on,39,0,3,,,,,,,,,2,,,42,114
94720,note_on,0,0,3,,,,,,,,,2,,,40,0
94720,note_on,1,0,3,,,,,,,,,2,,,52,0
94759,note_on,39,0,3,,,,,,,,,2,,,42,0
94759,note_on,0,0,3,,,,,,,,,2,,,54,0
94760,note_on,0,0,3,,,,,,,,,2,,,56,114
94760,note_on,1,0,3,,,,,,,,,2,,,44,114
94800,note_on,0,0,3,,,,,,,,,2,,,44,0
94800,note_on,0,0,1,,,,,,,,,0,,,76,0
94800,note_on,120,0,1,,,,,,,,,0,,,88,0
94800,note_on,40,0,3,,,,,,,,,2,,,56,0
94800,control_change,0,0,3,,,,,,,,,2,64,0,,
94800,note_on,0,0,3,,,,,,,,,2,,,42,101
94800,note_on,0,0,3,,,,,,,,,2,,,54,101
94800,note_on,0,0,1,,,,,,,,,0,,,69,114
94800,note_on,0,0,1,,,,,,,,,0,,,81,114
94839,note_on,0,0,1,,,,,,,,,0,,,83,114
94839,note_on,39,0,1,,,,,,,,,0,,,71,114
94839,note_on,0,0,3,,,,,,,,,2,,,56,101
94839,note_on,39,0,3,,,,,,,,,2,,,44,101
94840,note_on,1,0,3,,,,,,,,,2,,,54,0
94840,note_on,0,0,3,,,,,,,,,2,,,42,0
94840,note_on,1,0,1,,,,,,,,,0,,,81,0
94840,note_on,0,0,1,,,,,,,,,0,,,69,0
94879,note_on,39,0,3,,,,,,,,,2,,,44,0
94879,note_on,0,0,3,,,,,,,,,2,,,56,0
94879,note_on,39,0,1,,,,,,,,,0,,,71,0
94879,note_on,0,0,1,,,,,,,,,0,,,83,0
94880,note_on,1,0,3,,,,,,,,,2,,,45,101
94880,note_on,0,0,3,,,,,,,,,2,,,57,101
94880,note_on,0,0,1,,,,,,,,,0,,,84,114
94880,note_on,1,0,1,,,,,,,,,0,,,72,114
94920,note_on,0,0,3,,,,,,,,,2,,,59,101
94920,note_on,0,0,3,,,,,,,,,2,,,47,101
94920,note_on,0,0,3,,,,,,,,,2,,,45,0
94920,note_on,40,0,3,,,,,,,,,2,,,57,0
94920,control_change,0,0,1,,,,,,,,,0,64,127,,
94920,note_on,0,0,1,,,,,,,,,0,,,71,114
94920,note_on,0,0,1,,,,,,,,,0,,,72,0
94920,note_on,40,0,1,,,,,,,,,0,,,84,0
94920,note_on,0,0,1,,,,,,,,,0,,,83,114
94959,note_on,39,0,1,,,,,,,,,0,,,72,114
94959,note_on,0,0,1,,,,,,,,,0,,,84,114
94960,note_on,0,0,1,,,,,,,,,0,,,71,0
94960,note_on,1,0,1,,,,,,,,,0,,,83,0
94999,note_on,0,0,1,,,,,,,,,0,,,84,0
94999,note_on,39,0,1,,,,,,,,,0,,,72,0
95000,note_on,0,0,1,,,,,,,,,0,,,86,114
95000,note_on,1,0,1,,,,,,,,,0,,,74,114
95040,note_on,120,0,3,,,,,,,,,2,,,59,0
95040,note_on,0,0,3,,,,,,,,,2,,,47,0
95040,note_on,40,0,1,,,,,,,,,0,,,86,0
95040,note_on,0,0,1,,,,,,,,,0,,,74,0
95040,note_on,0,0,1,,,,,,,,,0,,,76,114
95040,note_on,0,0,1,,,,,,,,,0,,,88,114
95040,control_change,0,0,1,,,,,,,,,0,64,0,,
95040,note_on,0,0,3,,,,,,,,,2,,,52,114
95040,note_on,0,0,3,,,,,,,,,2,,,40,114
95079,note_on,39,0,3,,,,,,,,,2,,,42,114
95079,note_on,0,0,3,,,,,,,,,2,,,54,114
95080,note_on,0,0,3,,,,,,,,,2,,,40,0
95080,note_on,1,0,3,,,,,,,,,2,,,52,0
95119,note_on,0,0,3,,,,,,,,,2,,,54,0
95119,note_on,39,0,3,,,,,,,,,2,,,42,0
95120,note_on,0,0,3,,,,,,,,,2,,,56,114
95120,note_on,1,0,3,,,,,,,,,2,,,44,114
95160,note_on,120,0,1,,,,,,,,,0,,,88,0
95160,note_on,0,0,1,,,,,,,,,0,,,76,0
95160,note_on,0,0,1,,,,,,,,,0,,,72,114
95160,note_on,40,0,3,,,,,,,,,2,,,56,0
95160,note_on,0,0,1,,,,,,,,,0,,,84,114
95160,note_on,0,0,1,,,,,,,,,0,,,81,114
95160,note_on,0,0,1,,,,,,,,,0,,,76,114
95160,note_on,0,0,3,,,,,,,,,2,,,57,114
95160,note_on,0,0,3,,,,,,,,,2,,,44,0
95160,control_change,0,0,3,,,,,,,,,2,64,127,,
95160,note_on,0,0,3,,,,,,,,,2,,,45,114
95172,note_on,0,0,1,,,,,,,,,0,,,72,0
95172,note_on,12,0,1,,,,,,,,,0,,,84,0
95172,note_on,0,0,1,,,,,,,,,0,,,81,0
95172,note_on,0,0,1,,,,,,,,,0,,,76,0
95199,note_on,39,0,3,,,,,,,,,2,,,47,114
95199,note_on,0,0,3,,,,,,,,,2,,,59,114
95200,note_on,1,0,3,,,,,,,,,2,,,57,0
95200,note_on,0,0,3,,,,,,,,,2,,,45,0
95239,note_on,39,0,3,,,,,,,,,2,,,47,0
95239,note_on,0,0,3,,,,,,,,,2,,,59,0
95240,note_on,1,0,3,,,,,,,,,2,,,48,114
95240,note_on,0,0,3,,,,,,,,,2,,,60,114
95280,note_on,0,0,3,,,,,,,,,2,,,59,114
95280,note_on,0,0,3,,,,,,,,,2,,,48,0
95280,note_on,40,0,3,,,,,,,,,2,,,60,0
95280,note_on,0,0,3,,,,,,,,,2,,,47,114
95319,note_on,0,0,3,,,,,,,,,2,,,60,114
95319,note_on,39,0,3,,,,,,,,,2,,,48,114
95320,note_on,1,0,3,,,,,,,,,2,,,59,0
95320,note_on,0,0,3,,,,,,,,,2,,,47,0
95359,note_on,39,0,3,,,,,,,,,2,,,48,0
95359,note_on,0,0,3,,,,,,,,,2,,,60,0
95360,note_on,1,0,3,,,,,,,,,2,,,50,114
95360,note_on,0,0,3,,,,,,,,,2,,,62,114
95400,note_on,40,0,3,,,,,,,,,2,,,62,0
95400,note_on,0,0,3,,,,,,,,,2,,,50,0
95400,control_change,0,0,3,,,,,,,,,2,64,0,,
95400,note_on,0,0,3,,,,,,,,,2,,,64,114
95400,note_on,0,0,3,,,,,,,,,2,,,52,114
95400,note_on,0,0,1,,,,,,,,,0,,,76,114
95400,note_on,0,0,1,,,,,,,,,0,,,80,114
95400,note_on,0,0,1,,,,,,,,,0,,,83,114
95400,note_on,228,0,1,,,,,,,,,0,,,71,114
95412,note_on,12,0,1,,,,,,,,,0,,,83,0
95412,note_on,0,0,1,,,,,,,,,0,,,71,0
95412,note_on,0,0,1,,,,,,,,,0,,,76,0
95412,note_on,0,0,1,,,,,,,,,0,,,80,0
95520,note_on,120,0,3,,,,,,,,,2,,,64,0
95520,note_on,108,0,1,,,,,,,,,0,,,72,114
95520,note_on,0,0,1,,,,,,,,,0,,,76,114
95520,note_on,0,0,3,,,,,,,,,2,,,57,114
95520,note_on,0,0,3,,,,,,,,,2,,,45,114
95520,control_change,0,0,3,,,,,,,,,2,64,127,,
95520,note_on,0,0,3,,,,,,,,,2,,,52,0
95520,note_on,0,0,1,,,,,,,,,0,,,81,114
95520,note_on,0,0,1,,,,,,,,,0,,,84,114
95532,note_on,0,0,1,,,,,,,,,0,,,72,0
95532,note_on,12,0,1,,,,,,,,,0,,,84,0
95532,note_on,0,0,1,,,,,,,,,0,,,81,0
95532,note_on,0,0,1,,,,,,,,,0,,,76,0
95559,note_on,39,0,3,,,,,,,,,2,,,47,114
95559,note_on,0,0,3,,,,,,,,,2,,,59,114
95560,note_on,0,0,3,,,,,,,,,2,,,45,0
95560,note_on,1,0,3,,,,,,,,,2,,,57,0
95599,note_on,39,0,3,,,,,,,,,2,,,47,0
95599,note_on,0,0,3,,,,,,,,,2,,,59,0
95600,note_on,1,0,3,,,,,,,,,2,,,48,114
95600,note_on,0,0,3,,,,,,,,,2,,,60,114
95640,note_on,0,0,3,,,,,,,,,2,,,47,114
95640,note_on,40,0,3,,,,,,,,,2,,,60,0
95640,note_on,0,0,3,,,,,,,,,2,,,48,0
95640,note_on,0,0,3,,,,,,,,,2,,,59,114
95679,note_on,39,0,3,,,,,,,,,2,,,48,114
95679,note_on,0,0,3,,,,,,,,,2,,,60,114
95680,note_on,1,0,3,,,,,,,,,2,,,59,0
95680,note_on,0,0,3,,,,,,,,,2,,,47,0
95719,note_on,0,0,3,,,,,,,,,2,,,60,0
95719,note_on,39,0,3,,,,,,,,,2,,,48,0
95720,note_on,1,0,3,,,,,,,,,2,,,50,114
95720,note_on,0,0,3,,,,,,,,,2,,,62,114
95760,note_on,40,0,3,,,,,,,,,2,,,62,0
95760,note_on,0,0,3,,,,,,,,,2,,,50,0
95760,note_on,0,0,1,,,,,,,,,0,,,83,114
95760,control_change,0,0,3,,,,,,,,,2,64,0,,
95760,note_on,0,0,3,,,,,,,,,2,,,52,114
95760,note_on,228,0,1,,,,,,,,,0,,,71,114
95760,note_on,0,0,1,,,,,,,,,0,,,76,114
95760,note_on,0,0,1,,,,,,,,,0,,,80,114
95760,note_on,0,0,3,,,,,,,,,2,,,64,114
95772,note_on,0,0,1,,,,,,,,,0,,,80,0
95772,note_on,0,0,1,,,,,,,,,0,,,76,0
95772,note_on,12,0,1,,,,,,,,,0,,,83,0
95772,note_on,0,0,1,,,,,,,,,0,,,71,0
95880,note_on,0,0,3,,,,,,,,,2,,,45,114
95880,control_change,0,0,3,,,,,,,,,2,64,127,,
95880,note_on,0,0,3,,,,,,,,,2,,,52,0
95880,note_on,120,0,3,,,,,,,,,2,,,64,0
95880,note_on,0,0,3,,,,,,,,,2,,,33,114
95880,note_on,108,0,1,,,,,,,,,0,,,72,114
95880,note_on,0,0,1,,,,,,,,,0,,,84,114
95880,note_on,0,0,1,,,,,,,,,0,,,81,114
95880,note_on,0,0,1,,,,,,,,,0,,,76,114
95892,note_on,12,0,1,,,,,,,,,0,,,84,0
95892,note_on,0,0,1,,,,,,,,,0,,,81,0
95892,note_on,0,0,1,,,,,,,,,0,,,76,0
95892,note_on,0,0,1,,,,,,,,,0,,,72,0
95919,note_on,39,0,3,,,,,,,,,2,,,35,114
95919,note_on,0,0,3,,,,,,,,,2,,,47,114
95920,note_on,0,0,3,,,,,,,,,2,,,33,0
95920,note_on,1,0,3,,,,,,,,,2,,,45,0
95959,note_on,39,0,3,,,,,,,,,2,,,35,0
95959,note_on,0,0,3,,,,,,,,,2,,,47,0
95960,note_on,1,0,3,,,,,,,,,2,,,36,114
95960,note_on,0,0,3,,,,,,,,,2,,,48,114
96000,note_on,40,0,3,,,,,,,,,2,,,48,0
96000,note_on,0,0,3,,,,,,,,,2,,,35,114
96000,note_on,0,0,3,,,,,,,,,2,,,47,114
96000,note_on,0,0,3,,,,,,,,,2,,,36,0
96039,note_on,0,0,3,,,,,,,,,2,,,48,114
96039,note_on,39,0,3,,,,,,,,,2,,,36,114
96040,note_on,1,0,3,,,,,,,,,2,,,47,0
96040,note_on,0,0,3,,,,,,,,,2,,,35,0
96079,note_on,0,0,3,,,,,,,,,2,,,48,0
96079,note_on,39,0,3,,,,,,,,,2,,,36,0
96080,note_on,0,0,3,,,,,,,,,2,,,50,114
96080,note_on,1,0,3,,,,,,,,,2,,,38,114
96120,note_on,40,0,3,,,,,,,,,2,,,50,0
96120,note_on,0,0,3,,,,,,,,,2,,,38,0
96120,control_change,0,0,3,,,,,,,,,2,64,0,,
96120,note_on,0,0,3,,,,,,,,,2,,,40,114
96120,note_on,0,0,1,,,,,,,,,0,,,80,114
96120,note_on,228,0,1,,,,,,,,,0,,,71,114
96120,note_on,0,0,1,,,,,,,,,0,,,76,114
96120,note_on,0,0,1,,,,,,,,,0,,,83,114
96120,note_on,0,0,3,,,,,,,,,2,,,52,114
96132,note_on,0,0,1,,,,,,,,,0,,,76,0
96132,note_on,0,0,1,,,,,,,,,0,,,71,0
96132,note_on,12,0,1,,,,,,,,,0,,,83,0
96132,note_on,0,0,1,,,,,,,,,0,,,80,0
96240,note_on,108,0,1,,,,,,,,,0,,,69,114
96240,note_on,0,0,3,,,,,,,,,2,,,33,114
96240,note_on,0,0,3,,,,,,,,,2,,,45,114
96240,note_on,0,0,3,,,,,,,,,2,,,40,0
96240,note_on,120,0,3,,,,,,,,,2,,,52,0
96240,note_on,0,0,1,,,,,,,,,0,,,76,114
96240,note_on,0,0,1,,,,,,,,,0,,,72,114
96240,note_on,0,0,1,,,,,,,,,0,,,81,114
96252,note_on,0,0,1,,,,,,,,,0,,,76,0
96252,note_on,12,0,1,,,,,,,,,0,,,81,0
96252,note_on,0,0,1,,,,,,,,,0,,,72,0
96252,note_on,0,0,1,,,,,,,,,0,,,69,0
96360,note_on,0,0,3,,,,,,,,,2,,,33,0
96360,note_on,120,0,3,,,,,,,,,2,,,45,0
96600,control_change,348,0,1,,,,,,,,,0,64,127,,
96600,end_of_track,0,1,0,,,,,,,,,,,,,
96600,set_tempo,33840,1,0,,,,,,400000,,,,,,,
96600,note_on,0,0,3,,,,,,,,,2,,,40,114
96600,note_on,0,0,3,,,,,,,,,2,,,36,114
96600,note_on,0,0,3,,,,,,,,,2,,,33,114
96600,control_change,240,0,3,,,,,,,,,2,64,127,,
96600,note_on,0,0,3,,,,,,,,,2,,,45,114
96600,note_on,0,0,1,,,,,,,,,0,,,57,114
96600,note_on,0,0,1,,,,,,,,,0,,,60,114
96600,note_on,0,0,1,,,,,,,,,0,,,64,114
96600,note_on,0,0,1,,,,,,,,,0,,,69,114
96720,note_on,0,0,1,,,,,,,,,0,,,69,114
96720,note_on,0,0,3,,,,,,,,,2,,,45,114
96720,note_on,0,0,3,,,,,,,,,2,,,40,114
96720,note_on,0,0,1,,,,,,,,,0,,,64,114
96720,note_on,0,0,3,,,,,,,,,2,,,33,114
96720,note_on,0,0,3,,,,,,,,,2,,,40,0
96720,note_on,0,0,3,,,,,,,,,2,,,36,114
96720,note_on,0,0,3,,,,,,,,,2,,,33,0
96720,note_on,120,0,3,,,,,,,,,2,,,45,0
96720,note_on,120,0,1,,,,,,,,,0,,,69,0
96720,note_on,0,0,1,,,,,,,,,0,,,57,0
96720,note_on,0,0,1,,,,,,,,,0,,,60,0
96720,note_on,0,0,1,,,,,,,,,0,,,64,0
96720,note_on,0,0,1,,,,,,,,,0,,,60,114
96720,note_on,0,0,3,,,,,,,,,2,,,36,0
96720,note_on,0,0,1,,,,,,,,,0,,,57,114
96840,note_on,0,0,1,,,,,,,,,0,,,60,0
96840,note_on,0,0,1,,,,,,,,,0,,,64,0
96840,note_on,0,0,1,,,,,,,,,0,,,64,114
96840,note_on,0,0,1,,,,,,,,,0,,,60,114
96840,note_on,0,0,1,,,,,,,,,0,,,69,114
96840,note_on,0,0,1,,,,,,,,,0,,,57,0
96840,note_on,0,0,1,,,,,,,,,0,,,57,114
96840,note_on,120,0,1,,,,,,,,,0,,,69,0
96840,note_on,0,0,3,,,,,,,,,2,,,40,114
96840,note_on,120,0,3,,,,,,,,,2,,,45,0
96840,note_on,0,0,3,,,,,,,,,2,,,33,0
96840,note_on,0,0,3,,,,,,,,,2,,,45,114
96840,note_on,0,0,3,,,,,,,,,2,,,36,114
96840,note_on,0,0,3,,,,,,,,,2,,,33,114
96840,note_on,0,0,3,,,,,,,,,2,,,40,0
96840,note_on,0,0,3,,,,,,,,,2,,,36,0
96960,note_on,0,0,3,,,,,,,,,2,,,33,114
96960,control_change,0,0,1,,,,,,,,,0,64,0,,
96960,note_on,0,0,1,,,,,,,,,0,,,69,114
96960,note_on,0,0,1,,,,,,,,,0,,,64,114
96960,note_on,0,0,1,,,,,,,,,0,,,60,114
96960,note_on,0,0,1,,,,,,,,,0,,,57,114
96960,note_on,0,0,1,,,,,,,,,0,,,64,0
96960,note_on,0,0,1,,,,,,,,,0,,,60,0
96960,note_on,0,0,1,,,,,,,,,0,,,57,0
96960,note_on,120,0,1,,,,,,,,,0,,,69,0
96960,note_on,0,0,3,,,,,,,,,2,,,33,0
96960,note_on,0,0,3,,,,,,,,,2,,,36,0
96960,note_on,0,0,3,,,,,,,,,2,,,40,0
96960,note_on,0,0,3,,,,,,,,,2,,,45,114
96960,note_on,0,0,3,,,,,,,,,2,,,40,114
96960,note_on,0,0,3,,,,,,,,,2,,,36,114
96960,control_change,0,0,3,,,,,,,,,2,64,0,,
96960,note_on,120,0,3,,,,,,,,,2,,,45,0
97320,note_on,0,0,3,,,,,,,,,2,,,40,0
97320,note_on,0,0,3,,,,,,,,,2,,,36,0
97320,note_on,0,0,3,,,,,,,,,2,,,33,0
97320,note_on,360,0,3,,,,,,,,,2,,,45,0
97320,note_on,360,0,1,,,,,,,,,0,,,69,0
97320,note_on,0,0,1,,,,,,,,,0,,,57,0
97320,note_on,0,0,1,,,,,,,,,0,,,60,0
97320,note_on,0,0,1,,,,,,,,,0,,,64,0
98040,control_change,7200,0,2,,,,,,,,,1,64,0,,
98040,control_change,720,0,3,,,,,,,,,2,64,0,,
98040,end_of_track,0,1,2,,,,,,,,,,,,,
98040,control_change,720,0,1,,,,,,,,,0,64,0,,
98040,end_of_track,0,1,1,,,,,,,,,,,,,
98040,control_change,65160,0,4,,,,,,,,,3,64,0,,
98040,end_of_track,0,1,3,,,,,,,,,,,,,
98040,end_of_track,0,1,4,,,,,,,,,,,,,
