tick,type,numerator,denominator,clocks_per_click,notated_32nd_notes_per_beat,time,meta,track,key,tempo,port,program,channel,control,value,note,velocity
0,time_signature,3,4,24,8,0,1,0,,,,,,,,,
0,program_change,,,,,0,0,1,,,,0,0,,,,
0,control_change,,,,,0,0,1,,,,,0,7,80,,
0,control_change,,,,,0,0,1,,,,,0,10,80,,
0,track_name,,,,,0,1,9,,,,,,,,,
0,midi_port,,,,,0,1,2,,,0,,,,,,
0,track_name,,,,,0,1,2,,,,,,,,,
0,program_change,,,,,0,0,2,,,,0,0,,,,
0,control_change,,,,,0,0,2,,,,,0,7,80,,
0,control_change,,,,,0,0,2,,,,,0,10,48,,
0,midi_port,,,,,0,1,3,,,0,,,,,,
0,end_of_track,,,,,0,1,3,,,,,,,,,
0,midi_port,,,,,0,1,4,,,0,,,,,,
0,track_name,,,,,0,1,1,,,,,,,,,
0,end_of_track,,,,,0,1,4,,,,,,,,,
0,track_name,,,,,0,1,5,,,,,,,,,
0,end_of_track,,,,,0,1,5,,,,,,,,,
0,midi_port,,,,,0,1,6,,,0,,,,,,
0,track_name,,,,,0,1,6,,,,,,,,,
0,end_of_track,,,,,0,1,6,,,,,,,,,
0,midi_port,,,,,0,1,7,,,0,,,,,,
0,track_name,,,,,0,1,7,,,,,,,,,
0,end_of_track,,,,,0,1,7,,,,,,,,,
0,midi_port,,,,,0,1,8,,,0,,,,,,
0,track_name,,,,,0,1,8,,,,,,,,,
0,end_of_track,,,,,0,1,8,,,,,,,,,
0,midi_port,,,,,0,1,9,,,0,,,,,,
0,midi_port,,,,,0,1,5,,,0,,,,,,
0,midi_port,,,,,0,1,1,,,0,,,,,,
0,end_of_track,,,,,0,1,9,,,,,,,,,
0,key_signature,,,,,0,1,0,D,,,,,,,,
0,set_tempo,,,,,0,1,0,,352112,,,,,,,
0,marker,,,,,0,1,0,,,,,,,,,
240,control_change,,,,,240,0,2,,,,,0,91,96,,
240,note_on,,,,,0,0,2,,,,,0,,,54,112
240,note_on,,,,,0,0,1,,,,,0,,,66,111
240,control_change,,,,,240,0,1,,,,,0,91,96,,
330,set_tempo,,,,,330,1,0,,460122,,,,,,,
360,set_tempo,,,,,30,1,0,,333518,,,,,,,
360,note_on,,,,,120,0,2,,,,,0,,,54,0
360,note_on,,,,,0,0,2,,,,,0,,,47,127
360,note_on,,,,,0,0,2,,,,,0,,,54,127
360,note_on,,,,,0,0,2,,,,,0,,,59,127
360,note_on,,,,,120,0,1,,,,,0,,,66,0
360,note_on,,,,,0,0,1,,,,,0,,,62,127
360,note_on,,,,,0,0,1,,,,,0,,,66,127
360,note_on,,,,,0,0,1,,,,,0,,,74,127
360,control_change,,,,,0,0,1,,,,,0,64,96,,
370,set_tempo,,,,,10,1,0,,352112,,,,,,,
450,note_on,,,,,90,0,2,,,,,0,,,59,0
450,note_on,,,,,0,0,2,,,,,0,,,54,0
450,note_on,,,,,0,0,2,,,,,0,,,47,0
450,note_on,,,,,90,0,1,,,,,0,,,74,0
450,note_on,,,,,0,0,1,,,,,0,,,66,0
450,note_on,,,,,0,0,1,,,,,0,,,62,0
480,note_on,,,,,0,0,2,,,,,0,,,59,77
480,note_on,,,,,30,0,2,,,,,0,,,47,77
480,note_on,,,,,0,0,2,,,,,0,,,54,77
480,note_on,,,,,0,0,1,,,,,0,,,74,77
480,note_on,,,,,0,0,1,,,,,0,,,66,77
480,note_on,,,,,30,0,1,,,,,0,,,62,77
525,note_on,,,,,0,0,2,,,,,0,,,47,0
525,note_on,,,,,0,0,1,,,,,0,,,62,0
525,note_on,,,,,45,0,2,,,,,0,,,59,0
525,note_on,,,,,0,0,2,,,,,0,,,54,0
525,note_on,,,,,0,0,1,,,,,0,,,66,0
525,note_on,,,,,45,0,1,,,,,0,,,74,0
540,note_on,,,,,15,0,2,,,,,0,,,47,92
540,note_on,,,,,0,0,1,,,,,0,,,66,81
540,note_on,,,,,0,0,1,,,,,0,,,74,81
540,note_on,,,,,0,0,2,,,,,0,,,59,92
540,note_on,,,,,0,0,2,,,,,0,,,54,92
540,note_on,,,,,15,0,1,,,,,0,,,62,81
585,note_on,,,,,45,0,1,,,,,0,,,74,0
585,note_on,,,,,0,0,1,,,,,0,,,66,0
585,note_on,,,,,0,0,1,,,,,0,,,62,0
585,note_on,,,,,0,0,2,,,,,0,,,47,0
585,note_on,,,,,0,0,2,,,,,0,,,54,0
585,note_on,,,,,45,0,2,,,,,0,,,59,0
600,note_on,,,,,15,0,1,,,,,0,,,62,94
600,note_on,,,,,0,0,1,,,,,0,,,66,94
600,note_on,,,,,0,0,1,,,,,0,,,74,94
600,note_on,,,,,0,0,2,,,,,0,,,54,102
600,note_on,,,,,15,0,2,,,,,0,,,47,102
600,note_on,,,,,0,0,2,,,,,0,,,59,102
645,note_on,,,,,0,0,1,,,,,0,,,66,0
645,note_on,,,,,0,0,1,,,,,0,,,62,0
645,note_on,,,,,45,0,2,,,,,0,,,59,0
645,note_on,,,,,0,0,2,,,,,0,,,54,0
645,note_on,,,,,0,0,2,,,,,0,,,47,0
645,note_on,,,,,45,0,1,,,,,0,,,74,0
660,note_on,,,,,0,0,2,,,,,0,,,54,112
660,note_on,,,,,0,0,2,,,,,0,,,59,112
660,note_on,,,,,0,0,1,,,,,0,,,74,108
660,note_on,,,,,0,0,1,,,,,0,,,66,108
660,note_on,,,,,15,0,1,,,,,0,,,62,108
660,note_on,,,,,15,0,2,,,,,0,,,47,112
705,note_on,,,,,45,0,2,,,,,0,,,59,0
705,note_on,,,,,0,0,2,,,,,0,,,47,0
705,note_on,,,,,0,0,2,,,,,0,,,54,0
705,note_on,,,,,45,0,1,,,,,0,,,74,0
705,note_on,,,,,0,0,1,,,,,0,,,62,0
705,note_on,,,,,0,0,1,,,,,0,,,66,0
715,control_change,,,,,10,0,1,,,,,0,64,0,,
720,control_change,,,,,0,0,1,,,,,0,64,95,,
720,note_on,,,,,0,0,1,,,,,0,,,71,116
720,note_on,,,,,0,0,1,,,,,0,,,66,116
720,note_on,,,,,5,0,1,,,,,0,,,62,116
720,note_on,,,,,15,0,2,,,,,0,,,50,114
720,note_on,,,,,0,0,2,,,,,0,,,54,114
720,note_on,,,,,0,0,2,,,,,0,,,59,114
810,note_on,,,,,90,0,2,,,,,0,,,59,0
810,note_on,,,,,90,0,1,,,,,0,,,71,0
810,note_on,,,,,0,0,2,,,,,0,,,50,0
810,note_on,,,,,0,0,1,,,,,0,,,66,0
810,note_on,,,,,0,0,2,,,,,0,,,54,0
810,note_on,,,,,0,0,1,,,,,0,,,62,0
840,note_on,,,,,0,0,1,,,,,0,,,71,99
840,note_on,,,,,30,0,2,,,,,0,,,50,101
840,note_on,,,,,0,0,2,,,,,0,,,54,101
840,note_on,,,,,0,0,2,,,,,0,,,59,101
840,note_on,,,,,0,0,1,,,,,0,,,66,99
840,note_on,,,,,30,0,1,,,,,0,,,62,99
930,note_on,,,,,90,0,2,,,,,0,,,59,0
930,note_on,,,,,0,0,2,,,,,0,,,54,0
930,note_on,,,,,0,0,2,,,,,0,,,50,0
930,note_on,,,,,90,0,1,,,,,0,,,71,0
930,note_on,,,,,0,0,1,,,,,0,,,66,0
930,note_on,,,,,0,0,1,,,,,0,,,62,0
960,note_on,,,,,0,0,1,,,,,0,,,71,83
960,note_on,,,,,0,0,1,,,,,0,,,66,83
960,note_on,,,,,30,0,1,,,,,0,,,62,83
960,note_on,,,,,0,0,2,,,,,0,,,54,84
960,note_on,,,,,0,0,2,,,,,0,,,59,84
960,note_on,,,,,30,0,2,,,,,0,,,50,84
1050,note_on,,,,,90,0,1,,,,,0,,,71,0
1050,note_on,,,,,0,0,1,,,,,0,,,66,0
1050,note_on,,,,,0,0,1,,,,,0,,,62,0
1050,note_on,,,,,90,0,2,,,,,0,,,59,0
1050,note_on,,,,,0,0,2,,,,,0,,,54,0
1050,note_on,,,,,0,0,2,,,,,0,,,50,0
1075,control_change,,,,,25,0,1,,,,,0,64,0,,
1080,note_on,,,,,5,0,1,,,,,0,,,66,127
1080,note_on,,,,,0,0,1,,,,,0,,,73,127
1080,control_change,,,,,0,0,1,,,,,0,64,95,,
1080,note_on,,,,,30,0,2,,,,,0,,,42,127
1080,note_on,,,,,0,0,2,,,,,0,,,54,127
1080,set_tempo,,,,,710,1,0,,333518,,,,,,,
1080,note_on,,,,,0,0,1,,,,,0,,,64,127
1090,set_tempo,,,,,10,1,0,,351082,,,,,,,
1100,set_tempo,,,,,10,1,0,,352112,,,,,,,
1110,note_on,,,,,30,0,1,,,,,0,,,58,127
1110,set_tempo,,,,,10,1,0,,353148,,,,,,,
1130,set_tempo,,,,,20,1,0,,355239,,,,,,,
1150,set_tempo,,,,,20,1,0,,356294,,,,,,,
1160,set_tempo,,,,,10,1,0,,357355,,,,,,,
1170,note_on,,,,,0,0,2,,,,,0,,,42,0
1170,note_on,,,,,90,0,2,,,,,0,,,54,0
1170,note_on,,,,,0,0,1,,,,,0,,,73,0
1170,note_on,,,,,0,0,1,,,,,0,,,64,0
1170,note_on,,,,,0,0,1,,,,,0,,,66,0
1170,note_on,,,,,60,0,1,,,,,0,,,58,0
1180,set_tempo,,,,,20,1,0,,360576,,,,,,,
1190,set_tempo,,,,,10,1,0,,361663,,,,,,,
1200,note_on,,,,,0,0,1,,,,,0,,,73,82
1200,note_on,,,,,0,0,1,,,,,0,,,66,82
1200,note_on,,,,,30,0,1,,,,,0,,,64,82
1200,note_on,,,,,0,0,2,,,,,0,,,58,78
1200,note_on,,,,,30,0,2,,,,,0,,,54,78
1220,set_tempo,,,,,30,1,0,,364963,,,,,,,
1230,set_tempo,,,,,10,1,0,,367197,,,,,,,
1245,note_on,,,,,45,0,1,,,,,0,,,73,0
1245,note_on,,,,,0,0,1,,,,,0,,,64,0
1245,note_on,,,,,0,0,2,,,,,0,,,54,0
1245,note_on,,,,,45,0,2,,,,,0,,,58,0
1245,note_on,,,,,0,0,1,,,,,0,,,66,0
1250,set_tempo,,,,,20,1,0,,368324,,,,,,,
1260,note_on,,,,,0,0,1,,,,,0,,,66,95
1260,note_on,,,,,15,0,1,,,,,0,,,64,95
1260,note_on,,,,,15,0,2,,,,,0,,,54,91
1260,note_on,,,,,0,0,2,,,,,0,,,58,91
1260,note_on,,,,,0,0,1,,,,,0,,,73,95
1270,set_tempo,,,,,20,1,0,,369458,,,,,,,
1280,set_tempo,,,,,10,1,0,,370599,,,,,,,
1305,note_on,,,,,45,0,1,,,,,0,,,73,0
1305,note_on,,,,,0,0,1,,,,,0,,,66,0
1305,note_on,,,,,0,0,1,,,,,0,,,64,0
1305,note_on,,,,,45,0,2,,,,,0,,,58,0
1305,note_on,,,,,0,0,2,,,,,0,,,54,0
1310,set_tempo,,,,,30,1,0,,371747,,,,,,,
1315,set_tempo,,,,,5,1,0,,357355,,,,,,,
1320,note_on,,,,,15,0,1,,,,,0,,,64,104
1320,note_on,,,,,0,0,1,,,,,0,,,66,104
1320,note_on,,,,,0,0,1,,,,,0,,,73,104
1320,note_on,,,,,0,0,2,,,,,0,,,58,98
1320,note_on,,,,,15,0,2,,,,,0,,,54,98
1365,note_on,,,,,45,0,1,,,,,0,,,73,0
1365,note_on,,,,,0,0,1,,,,,0,,,66,0
1365,note_on,,,,,0,0,1,,,,,0,,,64,0
1365,note_on,,,,,45,0,2,,,,,0,,,58,0
1365,note_on,,,,,0,0,2,,,,,0,,,54,0
1380,note_on,,,,,15,0,2,,,,,0,,,54,107
1380,note_on,,,,,15,0,1,,,,,0,,,64,117
1380,note_on,,,,,0,0,2,,,,,0,,,58,107
1380,note_on,,,,,0,0,1,,,,,0,,,73,117
1380,note_on,,,,,0,0,1,,,,,0,,,66,117
1420,set_tempo,,,,,105,1,0,,396301,,,,,,,
1425,note_on,,,,,0,0,1,,,,,0,,,64,0
1425,note_on,,,,,45,0,2,,,,,0,,,58,0
1425,note_on,,,,,0,0,1,,,,,0,,,66,0
1425,note_on,,,,,0,0,2,,,,,0,,,54,0
1425,note_on,,,,,45,0,1,,,,,0,,,73,0
1435,control_change,,,,,10,0,1,,,,,0,64,0,,
1440,note_on,,,,,0,0,2,,,,,0,,,54,118
1440,note_on,,,,,15,0,2,,,,,0,,,49,118
1440,set_tempo,,,,,20,1,0,,346020,,,,,,,
1440,note_on,,,,,0,0,1,,,,,0,,,66,123
1440,note_on,,,,,0,0,1,,,,,0,,,64,123
1440,note_on,,,,,5,0,1,,,,,0,,,58,123
1440,control_change,,,,,0,0,1,,,,,0,64,95,,
1445,set_tempo,,,,,5,1,0,,357355,,,,,,,
1460,set_tempo,,,,,15,1,0,,366076,,,,,,,
1610,set_tempo,,,,,150,1,0,,364963,,,,,,,
1620,set_tempo,,,,,10,1,0,,363856,,,,,,,
1650,set_tempo,,,,,30,1,0,,362756,,,,,,,
1660,set_tempo,,,,,10,1,0,,361663,,,,,,,
1680,set_tempo,,,,,20,1,0,,360576,,,,,,,
1690,set_tempo,,,,,10,1,0,,359496,,,,,,,
1720,set_tempo,,,,,30,1,0,,358422,,,,,,,
1770,note_on,,,,,0,0,2,,,,,0,,,49,0
1770,note_on,,,,,330,0,2,,,,,0,,,54,0
1770,note_on,,,,,330,0,1,,,,,0,,,66,0
1770,note_on,,,,,0,0,1,,,,,0,,,64,0
1770,note_on,,,,,0,0,1,,,,,0,,,58,0
1795,control_change,,,,,25,0,1,,,,,0,64,0,,
1800,note_on,,,,,0,0,2,,,,,0,,,50,127
1800,note_on,,,,,0,0,1,,,,,0,,,62,127
1800,note_on,,,,,30,0,2,,,,,0,,,47,127
1800,note_on,,,,,0,0,1,,,,,0,,,66,127
1800,note_on,,,,,0,0,1,,,,,0,,,71,127
1800,control_change,,,,,0,0,1,,,,,0,64,96,,
1800,note_on,,,,,5,0,1,,,,,0,,,59,127
1800,note_on,,,,,0,0,2,,,,,0,,,54,127
1820,set_tempo,,,,,100,1,0,,357355,,,,,,,
1880,set_tempo,,,,,60,1,0,,356294,,,,,,,
1890,control_change,,,,,90,0,1,,,,,0,64,0,,
1920,note_on,,,,,120,0,2,,,,,0,,,54,0
1920,note_on,,,,,0,0,2,,,,,0,,,50,0
1920,note_on,,,,,0,0,2,,,,,0,,,47,0
1920,note_on,,,,,0,0,2,,,,,0,,,47,99
1920,note_on,,,,,0,0,2,,,,,0,,,50,99
1920,note_on,,,,,0,0,2,,,,,0,,,54,99
1920,note_on,,,,,0,0,1,,,,,0,,,58,100
1920,note_on,,,,,0,0,1,,,,,0,,,66,0
1920,note_on,,,,,0,0,1,,,,,0,,,62,0
1920,note_on,,,,,0,0,1,,,,,0,,,70,100
1920,set_tempo,,,,,40,1,0,,355239,,,,,,,
1920,note_on,,,,,30,0,1,,,,,0,,,71,0
1920,note_on,,,,,0,0,1,,,,,0,,,59,0
1930,set_tempo,,,,,10,1,0,,354191,,,,,,,
1960,set_tempo,,,,,30,1,0,,353148,,,,,,,
1965,note_on,,,,,0,0,2,,,,,0,,,50,0
1965,note_on,,,,,45,0,2,,,,,0,,,54,0
1965,note_on,,,,,0,0,2,,,,,0,,,47,0
1965,note_on,,,,,0,0,1,,,,,0,,,58,0
1965,note_on,,,,,45,0,1,,,,,0,,,70,0
1980,note_on,,,,,0,0,1,,,,,0,,,71,95
1980,note_on,,,,,0,0,2,,,,,0,,,54,95
1980,note_on,,,,,0,0,2,,,,,0,,,50,95
1980,note_on,,,,,15,0,2,,,,,0,,,47,95
1980,set_tempo,,,,,20,1,0,,352112,,,,,,,
1980,note_on,,,,,15,0,1,,,,,0,,,59,95
1990,set_tempo,,,,,10,1,0,,351082,,,,,,,
2000,set_tempo,,,,,10,1,0,,350058,,,,,,,
2010,set_tempo,,,,,10,1,0,,349040,,,,,,,
2025,note_on,,,,,0,0,1,,,,,0,,,59,0
2025,note_on,,,,,45,0,1,,,,,0,,,71,0
2025,note_on,,,,,45,0,2,,,,,0,,,54,0
2025,note_on,,,,,0,0,2,,,,,0,,,47,0
2025,note_on,,,,,0,0,2,,,,,0,,,50,0
2030,set_tempo,,,,,20,1,0,,348027,,,,,,,
2040,note_on,,,,,15,0,1,,,,,0,,,59,104
2040,note_on,,,,,0,0,2,,,,,0,,,54,104
2040,note_on,,,,,0,0,2,,,,,0,,,50,104
2040,note_on,,,,,15,0,2,,,,,0,,,47,104
2040,note_on,,,,,0,0,1,,,,,0,,,71,104
2040,set_tempo,,,,,10,1,0,,346020,,,,,,,
2070,set_tempo,,,,,30,1,0,,344036,,,,,,,
2085,note_on,,,,,45,0,1,,,,,0,,,71,0
2085,note_on,,,,,0,0,1,,,,,0,,,59,0
2085,note_on,,,,,0,0,2,,,,,0,,,50,0
2085,note_on,,,,,0,0,2,,,,,0,,,47,0
2085,note_on,,,,,45,0,2,,,,,0,,,54,0
2090,set_tempo,,,,,20,1,0,,343053,,,,,,,
2100,note_on,,,,,0,0,2,,,,,0,,,50,117
2100,note_on,,,,,15,0,1,,,,,0,,,61,117
2100,note_on,,,,,15,0,2,,,,,0,,,47,117
2100,note_on,,,,,0,0,2,,,,,0,,,54,117
2100,note_on,,,,,0,0,1,,,,,0,,,73,117
2120,set_tempo,,,,,30,1,0,,342075,,,,,,,
2145,note_on,,,,,0,0,2,,,,,0,,,47,0
2145,note_on,,,,,0,0,2,,,,,0,,,50,0
2145,note_on,,,,,45,0,2,,,,,0,,,54,0
2145,note_on,,,,,45,0,1,,,,,0,,,73,0
2145,note_on,,,,,0,0,1,,,,,0,,,61,0
2155,control_change,,,,,10,0,1,,,,,0,64,0,,
2160,control_change,,,,,0,0,1,,,,,0,64,96,,
2160,note_on,,,,,0,0,1,,,,,0,,,74,127
2160,note_on,,,,,5,0,1,,,,,0,,,62,127
2160,note_on,,,,,0,0,2,,,,,0,,,55,127
2160,note_on,,,,,15,0,2,,,,,0,,,43,127
2160,note_on,,,,,0,0,2,,,,,0,,,47,127
2160,note_on,,,,,0,0,2,,,,,0,,,50,127
2200,set_tempo,,,,,80,1,0,,344036,,,,,,,
2210,set_tempo,,,,,10,1,0,,345025,,,,,,,
2220,set_tempo,,,,,10,1,0,,346020,,,,,,,
2240,set_tempo,,,,,20,1,0,,348027,,,,,,,
2250,note_on,,,,,90,0,2,,,,,0,,,55,0
2250,note_on,,,,,90,0,1,,,,,0,,,74,0
2250,note_on,,,,,0,0,2,,,,,0,,,47,0
2250,note_on,,,,,0,0,1,,,,,0,,,62,0
2250,note_on,,,,,0,0,2,,,,,0,,,50,0
2250,note_on,,,,,0,0,2,,,,,0,,,43,0
2250,set_tempo,,,,,10,1,0,,350058,,,,,,,
2280,note_on,,,,,0,0,1,,,,,0,,,74,115
2280,note_on,,,,,0,0,2,,,,,0,,,55,118
2280,note_on,,,,,0,0,2,,,,,0,,,50,118
2280,note_on,,,,,0,0,2,,,,,0,,,47,118
2280,note_on,,,,,30,0,2,,,,,0,,,43,118
2280,note_on,,,,,30,0,1,,,,,0,,,62,115
2280,set_tempo,,,,,30,1,0,,351082,,,,,,,
2290,set_tempo,,,,,10,1,0,,352112,,,,,,,
2300,set_tempo,,,,,10,1,0,,353148,,,,,,,
2320,set_tempo,,,,,20,1,0,,355239,,,,,,,
2330,set_tempo,,,,,10,1,0,,357355,,,,,,,
2370,note_on,,,,,0,0,2,,,,,0,,,43,0
2370,note_on,,,,,0,0,1,,,,,0,,,62,0
2370,note_on,,,,,90,0,1,,,,,0,,,74,0
2370,note_on,,,,,90,0,2,,,,,0,,,55,0
2370,note_on,,,,,0,0,2,,,,,0,,,50,0
2370,note_on,,,,,0,0,2,,,,,0,,,47,0
2390,set_tempo,,,,,60,1,0,,359496,,,,,,,
2400,note_on,,,,,0,0,2,,,,,0,,,55,99
2400,note_on,,,,,30,0,1,,,,,0,,,62,100
2400,note_on,,,,,0,0,1,,,,,0,,,74,100
2400,note_on,,,,,30,0,2,,,,,0,,,43,99
2400,note_on,,,,,0,0,2,,,,,0,,,50,99
2400,note_on,,,,,0,0,2,,,,,0,,,47,99
2410,set_tempo,,,,,20,1,0,,360576,,,,,,,
2430,set_tempo,,,,,20,1,0,,362756,,,,,,,
2440,set_tempo,,,,,10,1,0,,363856,,,,,,,
2450,set_tempo,,,,,10,1,0,,364963,,,,,,,
2460,set_tempo,,,,,10,1,0,,366076,,,,,,,
2470,set_tempo,,,,,10,1,0,,367197,,,,,,,
2480,set_tempo,,,,,10,1,0,,369458,,,,,,,
2490,note_on,,,,,90,0,2,,,,,0,,,55,0
2490,note_on,,,,,0,0,2,,,,,0,,,43,0
2490,note_on,,,,,0,0,1,,,,,0,,,62,0
2490,note_on,,,,,90,0,1,,,,,0,,,74,0
2490,note_on,,,,,0,0,2,,,,,0,,,47,0
2490,note_on,,,,,0,0,2,,,,,0,,,50,0
2500,set_tempo,,,,,20,1,0,,370599,,,,,,,
2510,set_tempo,,,,,10,1,0,,374064,,,,,,,
2515,control_change,,,,,25,0,1,,,,,0,64,0,,
2520,note_on,,,,,30,0,2,,,,,0,,,40,108
2520,note_on,,,,,0,0,2,,,,,0,,,46,108
2520,note_on,,,,,0,0,2,,,,,0,,,49,108
2520,note_on,,,,,5,0,1,,,,,0,,,64,108
2520,note_on,,,,,0,0,1,,,,,0,,,70,108
2520,control_change,,,,,0,0,1,,,,,0,64,94,,
2520,note_on,,,,,0,0,1,,,,,0,,,67,108
2520,note_on,,,,,0,0,1,,,,,0,,,76,108
2520,note_on,,,,,0,0,2,,,,,0,,,52,108
2540,set_tempo,,,,,30,1,0,,376411,,,,,,,
2550,set_tempo,,,,,10,1,0,,378787,,,,,,,
2560,set_tempo,,,,,10,1,0,,379987,,,,,,,
2570,set_tempo,,,,,10,1,0,,381194,,,,,,,
2580,set_tempo,,,,,10,1,0,,383631,,,,,,,
2590,set_tempo,,,,,10,1,0,,386100,,,,,,,
2600,set_tempo,,,,,10,1,0,,388601,,,,,,,
2610,note_on,,,,,0,0,2,,,,,0,,,40,0
2610,note_on,,,,,90,0,2,,,,,0,,,52,0
2610,note_on,,,,,0,0,2,,,,,0,,,49,0
2610,note_on,,,,,0,0,1,,,,,0,,,70,0
2610,note_on,,,,,0,0,1,,,,,0,,,64,0
2610,note_on,,,,,0,0,1,,,,,0,,,67,0
2610,set_tempo,,,,,10,1,0,,389863,,,,,,,
2610,note_on,,,,,0,0,2,,,,,0,,,46,0
2610,note_on,,,,,90,0,1,,,,,0,,,76,0
2620,set_tempo,,,,,10,1,0,,393700,,,,,,,
2630,set_tempo,,,,,10,1,0,,394996,,,,,,,
2640,note_on,,,,,0,0,2,,,,,0,,,52,115
2640,note_on,,,,,0,0,2,,,,,0,,,49,115
2640,note_on,,,,,0,0,2,,,,,0,,,46,115
2640,note_on,,,,,30,0,2,,,,,0,,,40,115
2640,note_on,,,,,30,0,1,,,,,0,,,64,112
2640,note_on,,,,,0,0,1,,,,,0,,,67,112
2640,note_on,,,,,0,0,1,,,,,0,,,70,112
2640,set_tempo,,,,,10,1,0,,396301,,,,,,,
2640,note_on,,,,,0,0,1,,,,,0,,,76,112
2660,set_tempo,,,,,20,1,0,,398936,,,,,,,
2670,set_tempo,,,,,10,1,0,,400266,,,,,,,
2680,set_tempo,,,,,10,1,0,,401606,,,,,,,
2690,set_tempo,,,,,10,1,0,,402955,,,,,,,
2700,set_tempo,,,,,10,1,0,,404312,,,,,,,
2720,set_tempo,,,,,20,1,0,,405679,,,,,,,
2730,note_on,,,,,0,0,1,,,,,0,,,64,0
2730,note_on,,,,,90,0,1,,,,,0,,,76,0
2730,note_on,,,,,0,0,2,,,,,0,,,46,0
2730,note_on,,,,,0,0,1,,,,,0,,,70,0
2730,note_on,,,,,90,0,2,,,,,0,,,52,0
2730,note_on,,,,,0,0,2,,,,,0,,,40,0
2730,note_on,,,,,0,0,1,,,,,0,,,67,0
2730,note_on,,,,,0,0,2,,,,,0,,,49,0
2740,set_tempo,,,,,20,1,0,,407055,,,,,,,
2750,set_tempo,,,,,10,1,0,,409836,,,,,,,
2760,note_on,,,,,0,0,2,,,,,0,,,46,122
2760,note_on,,,,,0,0,2,,,,,0,,,49,122
2760,note_on,,,,,0,0,2,,,,,0,,,52,122
2760,note_on,,,,,0,0,1,,,,,0,,,76,119
2760,note_on,,,,,0,0,1,,,,,0,,,70,119
2760,note_on,,,,,0,0,1,,,,,0,,,67,119
2760,note_on,,,,,30,0,1,,,,,0,,,64,119
2760,note_on,,,,,30,0,2,,,,,0,,,40,122
2780,set_tempo,,,,,30,1,0,,412654,,,,,,,
2810,set_tempo,,,,,30,1,0,,400266,,,,,,,
2820,set_tempo,,,,,10,1,0,,401606,,,,,,,
2825,set_tempo,,,,,5,1,0,,402955,,,,,,,
2835,set_tempo,,,,,10,1,0,,404312,,,,,,,
2845,set_tempo,,,,,10,1,0,,563909,,,,,,,
2850,note_on,,,,,0,0,1,,,,,0,,,67,0
2850,note_on,,,,,0,0,2,,,,,0,,,49,0
2850,note_on,,,,,0,0,2,,,,,0,,,46,0
2850,note_on,,,,,0,0,2,,,,,0,,,40,0
2850,note_on,,,,,90,0,2,,,,,0,,,52,0
2850,note_on,,,,,90,0,1,,,,,0,,,76,0
2850,note_on,,,,,0,0,1,,,,,0,,,70,0
2850,note_on,,,,,0,0,1,,,,,0,,,64,0
2875,control_change,,,,,25,0,1,,,,,0,64,0,,
2880,note_on,,,,,5,0,1,,,,,0,,,67,127
2880,note_on,,,,,0,0,2,,,,,0,,,45,127
2880,note_on,,,,,30,0,2,,,,,0,,,37,127
2880,set_tempo,,,,,35,1,0,,397614,,,,,,,
2880,control_change,,,,,0,0,1,,,,,0,64,94,,
2880,note_on,,,,,0,0,1,,,,,0,,,79,127
2880,note_on,,,,,0,0,1,,,,,0,,,76,127
2880,note_on,,,,,0,0,1,,,,,0,,,69,127
2880,note_on,,,,,0,0,2,,,,,0,,,49,127
3210,note_on,,,,,0,0,2,,,,,0,,,45,0
3210,note_on,,,,,0,0,1,,,,,0,,,69,0
3210,note_on,,,,,0,0,1,,,,,0,,,76,0
3210,note_on,,,,,330,0,1,,,,,0,,,79,0
3210,note_on,,,,,0,0,1,,,,,0,,,67,0
3210,control_change,,,,,0,0,1,,,,,0,64,0,,
3210,note_on,,,,,0,0,2,,,,,0,,,37,0
3210,note_on,,,,,330,0,2,,,,,0,,,49,0
3240,note_on,,,,,30,0,2,,,,,0,,,50,77
3240,note_on,,,,,30,0,1,,,,,0,,,90,64
3240,note_on,,,,,0,0,1,,,,,0,,,78,64
3240,set_tempo,,,,,360,1,0,,352112,,,,,,,
3330,set_tempo,,,,,90,1,0,,372902,,,,,,,
3330,note_on,,,,,90,0,1,,,,,0,,,78,0
3330,note_on,,,,,0,0,1,,,,,0,,,90,0
3360,note_on,,,,,120,0,2,,,,,0,,,57,62
3360,note_on,,,,,30,0,1,,,,,0,,,90,74
3360,note_on,,,,,0,0,1,,,,,0,,,78,74
3430,set_tempo,,,,,100,1,0,,408441,,,,,,,
3450,note_on,,,,,0,0,1,,,,,0,,,90,0
3450,note_on,,,,,90,0,1,,,,,0,,,78,0
3480,set_tempo,,,,,50,1,0,,354191,,,,,,,
3480,note_on,,,,,0,0,2,,,,,0,,,58,70
3480,note_on,,,,,120,0,2,,,,,0,,,57,0
3480,note_on,,,,,0,0,1,,,,,0,,,78,82
3480,control_change,,,,,0,0,1,,,,,0,64,95,,
3480,note_on,,,,,30,0,1,,,,,0,,,90,82
3485,set_tempo,,,,,5,1,0,,353148,,,,,,,
3490,set_tempo,,,,,5,1,0,,374064,,,,,,,
3510,set_tempo,,,,,20,1,0,,372902,,,,,,,
3540,set_tempo,,,,,30,1,0,,371747,,,,,,,
3550,set_tempo,,,,,10,1,0,,370599,,,,,,,
3580,set_tempo,,,,,30,1,0,,369458,,,,,,,
3590,set_tempo,,,,,10,1,0,,368324,,,,,,,
3600,note_on,,,,,0,0,2,,,,,0,,,55,78
3600,note_on,,,,,0,0,2,,,,,0,,,59,78
3600,note_on,,,,,120,0,2,,,,,0,,,58,0
3600,note_on,,,,,0,0,2,,,,,0,,,50,0
3650,set_tempo,,,,,60,1,0,,367197,,,,,,,
3660,set_tempo,,,,,10,1,0,,364963,,,,,,,
3690,set_tempo,,,,,30,1,0,,363856,,,,,,,
3720,note_on,,,,,0,0,2,,,,,0,,,64,64
3720,note_on,,,,,120,0,2,,,,,0,,,59,0
3720,note_on,,,,,0,0,1,,,,,0,,,90,0
3720,control_change,,,,,0,0,1,,,,,0,64,0,,
3720,note_on,,,,,240,0,1,,,,,0,,,78,0
3720,note_on,,,,,0,0,1,,,,,0,,,76,85
3720,note_on,,,,,0,0,1,,,,,0,,,88,85
3760,set_tempo,,,,,70,1,0,,362756,,,,,,,
3770,set_tempo,,,,,10,1,0,,361663,,,,,,,
3780,note_on,,,,,0,0,1,,,,,0,,,86,80
3780,note_on,,,,,0,0,1,,,,,0,,,74,80
3780,note_on,,,,,60,0,1,,,,,0,,,88,0
3780,note_on,,,,,0,0,1,,,,,0,,,76,0
3825,note_on,,,,,45,0,1,,,,,0,,,74,0
3825,note_on,,,,,0,0,1,,,,,0,,,86,0
3840,note_on,,,,,0,0,2,,,,,0,,,67,71
3840,note_on,,,,,120,0,2,,,,,0,,,64,0
3840,note_on,,,,,15,0,1,,,,,0,,,86,72
3840,note_on,,,,,0,0,1,,,,,0,,,74,72
3840,set_tempo,,,,,70,1,0,,360576,,,,,,,
3850,set_tempo,,,,,10,1,0,,359496,,,,,,,
3880,set_tempo,,,,,30,1,0,,358422,,,,,,,
3885,note_on,,,,,45,0,1,,,,,0,,,74,0
3885,note_on,,,,,0,0,1,,,,,0,,,86,0
3900,note_on,,,,,0,0,1,,,,,0,,,71,61
3900,note_on,,,,,15,0,1,,,,,0,,,83,61
3910,set_tempo,,,,,30,1,0,,357355,,,,,,,
3920,set_tempo,,,,,10,1,0,,356294,,,,,,,
3945,note_on,,,,,45,0,1,,,,,0,,,71,0
3945,note_on,,,,,0,0,1,,,,,0,,,83,0
3950,set_tempo,,,,,30,1,0,,355239,,,,,,,
3960,control_change,,,,,0,0,1,,,,,0,64,95,,
3960,note_on,,,,,0,0,2,,,,,0,,,55,0
3960,note_on,,,,,120,0,2,,,,,0,,,67,0
3960,note_on,,,,,15,0,1,,,,,0,,,69,82
3960,note_on,,,,,0,0,2,,,,,0,,,57,79
3960,set_tempo,,,,,10,1,0,,354191,,,,,,,
3960,note_on,,,,,0,0,1,,,,,0,,,81,82
4050,set_tempo,,,,,90,1,0,,356294,,,,,,,
4080,set_tempo,,,,,30,1,0,,359496,,,,,,,
4080,note_on,,,,,120,0,2,,,,,0,,,61,64
4080,note_on,,,,,120,0,1,,,,,0,,,81,0
4080,note_on,,,,,0,0,1,,,,,0,,,69,0
4080,note_on,,,,,0,0,1,,,,,0,,,69,74
4080,note_on,,,,,0,0,1,,,,,0,,,81,74
4100,set_tempo,,,,,20,1,0,,360576,,,,,,,
4110,set_tempo,,,,,10,1,0,,361663,,,,,,,
4120,set_tempo,,,,,10,1,0,,362756,,,,,,,
4125,note_on,,,,,45,0,1,,,,,0,,,81,0
4125,note_on,,,,,0,0,1,,,,,0,,,69,0
4130,set_tempo,,,,,10,1,0,,364963,,,,,,,
4135,control_change,,,,,10,0,1,,,,,0,64,0,,
4140,set_tempo,,,,,10,1,0,,366076,,,,,,,
4140,note_on,,,,,5,0,1,,,,,0,,,71,64
4140,note_on,,,,,0,0,1,,,,,0,,,83,64
4150,set_tempo,,,,,10,1,0,,367197,,,,,,,
4160,set_tempo,,,,,10,1,0,,369458,,,,,,,
4170,set_tempo,,,,,10,1,0,,371747,,,,,,,
4185,note_on,,,,,45,0,1,,,,,0,,,83,0
4185,note_on,,,,,0,0,1,,,,,0,,,71,0
4200,note_on,,,,,15,0,1,,,,,0,,,79,58
4200,note_on,,,,,0,0,1,,,,,0,,,67,58
4200,note_on,,,,,0,0,2,,,,,0,,,64,57
4200,set_tempo,,,,,30,1,0,,375234,,,,,,,
4200,note_on,,,,,120,0,2,,,,,0,,,61,0
4210,set_tempo,,,,,10,1,0,,377595,,,,,,,
4230,set_tempo,,,,,20,1,0,,378787,,,,,,,
4240,set_tempo,,,,,10,1,0,,382409,,,,,,,
4250,set_tempo,,,,,10,1,0,,383631,,,,,,,
4270,set_tempo,,,,,20,1,0,,391134,,,,,,,
4280,set_tempo,,,,,10,1,0,,394996,,,,,,,
4300,set_tempo,,,,,20,1,0,,397614,,,,,,,
4310,set_tempo,,,,,10,1,0,,398936,,,,,,,
4320,note_on,,,,,0,0,2,,,,,0,,,50,40
4320,note_on,,,,,120,0,2,,,,,0,,,64,0
4320,note_on,,,,,0,0,1,,,,,0,,,78,55
4320,note_on,,,,,0,0,2,,,,,0,,,62,50
4320,note_on,,,,,0,0,2,,,,,0,,,57,0
4320,note_on,,,,,0,0,1,,,,,0,,,66,55
4320,note_on,,,,,0,0,1,,,,,0,,,79,0
4320,note_on,,,,,120,0,1,,,,,0,,,67,0
4320,control_change,,,,,0,0,1,,,,,0,64,95,,
4435,set_tempo,,,,,125,1,0,,351082,,,,,,,
4440,note_on,,,,,120,0,2,,,,,0,,,62,0
4440,note_on,,,,,0,0,2,,,,,0,,,54,44
4530,note_on,,,,,210,0,1,,,,,0,,,78,0
4530,note_on,,,,,0,0,1,,,,,0,,,66,0
4530,note_on,,,,,90,0,2,,,,,0,,,54,0
4530,note_on,,,,,0,0,2,,,,,0,,,50,0
4560,note_on,,,,,30,0,1,,,,,0,,,57,65
4560,note_on,,,,,0,0,1,,,,,0,,,66,65
4560,control_change,,,,,0,0,1,,,,,0,64,0,,
4675,set_tempo,,,,,240,1,0,,353148,,,,,,,
4680,note_on,,,,,120,0,1,,,,,0,,,73,59
4680,note_on,,,,,150,0,2,,,,,0,,,45,58
4680,control_change,,,,,0,0,1,,,,,0,64,96,,
4710,set_tempo,,,,,35,1,0,,355239,,,,,,,
4720,set_tempo,,,,,10,1,0,,356294,,,,,,,
4730,set_tempo,,,,,10,1,0,,357355,,,,,,,
4745,set_tempo,,,,,15,1,0,,358422,,,,,,,
4755,set_tempo,,,,,10,1,0,,359496,,,,,,,
4770,set_tempo,,,,,15,1,0,,360576,,,,,,,
4780,set_tempo,,,,,10,1,0,,361663,,,,,,,
4790,set_tempo,,,,,10,1,0,,362756,,,,,,,
4795,set_tempo,,,,,5,1,0,,363856,,,,,,,
4800,note_on,,,,,120,0,1,,,,,0,,,66,0
4800,note_on,,,,,0,0,1,,,,,0,,,57,0
4800,note_on,,,,,0,0,1,,,,,0,,,57,43
4800,note_on,,,,,0,0,1,,,,,0,,,66,43
4800,control_change,,,,,0,0,1,,,,,0,64,0,,
4845,note_on,,,,,45,0,1,,,,,0,,,66,0
4845,note_on,,,,,0,0,1,,,,,0,,,57,0
4860,note_on,,,,,15,0,1,,,,,0,,,59,49
4860,note_on,,,,,0,0,1,,,,,0,,,67,49
4865,set_tempo,,,,,70,1,0,,366076,,,,,,,
4895,set_tempo,,,,,30,1,0,,367197,,,,,,,
4905,note_on,,,,,0,0,1,,,,,0,,,59,0
4905,note_on,,,,,45,0,1,,,,,0,,,67,0
4920,note_on,,,,,0,0,1,,,,,0,,,64,53
4920,note_on,,,,,15,0,1,,,,,0,,,55,53
4925,set_tempo,,,,,30,1,0,,368324,,,,,,,
4935,set_tempo,,,,,10,1,0,,369458,,,,,,,
4970,set_tempo,,,,,35,1,0,,370599,,,,,,,
4990,set_tempo,,,,,20,1,0,,371747,,,,,,,
5000,set_tempo,,,,,10,1,0,,372902,,,,,,,
5010,set_tempo,,,,,10,1,0,,374064,,,,,,,
5020,set_tempo,,,,,10,1,0,,375234,,,,,,,
5030,set_tempo,,,,,10,1,0,,376411,,,,,,,
5040,note_on,,,,,0,0,1,,,,,0,,,74,46
5040,note_on,,,,,0,0,1,,,,,0,,,54,46
5040,note_on,,,,,0,0,1,,,,,0,,,73,0
5040,note_on,,,,,0,0,1,,,,,0,,,55,0
5040,note_on,,,,,120,0,1,,,,,0,,,64,0
5040,note_on,,,,,0,0,1,,,,,0,,,62,46
5040,note_on,,,,,360,0,2,,,,,0,,,45,0
5040,note_on,,,,,0,0,2,,,,,0,,,50,46
5040,control_change,,,,,0,0,1,,,,,0,64,95,,
5065,set_tempo,,,,,35,1,0,,377595,,,,,,,
5130,note_on,,,,,90,0,2,,,,,0,,,50,0
5130,note_on,,,,,90,0,1,,,,,0,,,62,0
5130,note_on,,,,,0,0,1,,,,,0,,,54,0
5160,note_on,,,,,30,0,2,,,,,0,,,62,45
5230,control_change,,,,,100,0,1,,,,,0,64,0,,
5230,set_tempo,,,,,165,1,0,,376411,,,,,,,
5245,set_tempo,,,,,15,1,0,,375234,,,,,,,
5250,note_on,,,,,20,0,1,,,,,0,,,74,0
5275,set_tempo,,,,,30,1,0,,372902,,,,,,,
5280,note_on,,,,,0,0,1,,,,,0,,,81,65
5280,note_on,,,,,0,0,2,,,,,0,,,66,41
5280,note_on,,,,,120,0,2,,,,,0,,,62,0
5280,note_on,,,,,30,0,1,,,,,0,,,69,65
5305,set_tempo,,,,,30,1,0,,371747,,,,,,,
5335,set_tempo,,,,,30,1,0,,369458,,,,,,,
5345,set_tempo,,,,,10,1,0,,368324,,,,,,,
5355,set_tempo,,,,,10,1,0,,366076,,,,,,,
5360,set_tempo,,,,,5,1,0,,364963,,,,,,,
5365,set_tempo,,,,,5,1,0,,363856,,,,,,,
5370,note_on,,,,,90,0,2,,,,,0,,,66,0
5380,set_tempo,,,,,15,1,0,,357355,,,,,,,
5390,set_tempo,,,,,10,1,0,,351082,,,,,,,
5395,set_tempo,,,,,5,1,0,,351082,,,,,,,
5400,control_change,,,,,120,0,1,,,,,0,64,96,,
5400,note_on,,,,,30,0,2,,,,,0,,,57,58
5465,set_tempo,,,,,70,1,0,,352112,,,,,,,
5470,set_tempo,,,,,5,1,0,,353148,,,,,,,
5475,set_tempo,,,,,5,1,0,,354191,,,,,,,
5485,set_tempo,,,,,10,1,0,,355239,,,,,,,
5495,set_tempo,,,,,10,1,0,,356294,,,,,,,
5505,set_tempo,,,,,10,1,0,,357355,,,,,,,
5520,note_on,,,,,0,0,1,,,,,0,,,69,46
5520,note_on,,,,,0,0,1,,,,,0,,,81,46
5520,note_on,,,,,120,0,1,,,,,0,,,81,0
5520,set_tempo,,,,,15,1,0,,358422,,,,,,,
5520,note_on,,,,,0,0,1,,,,,0,,,69,0
5520,note_on,,,,,120,0,2,,,,,0,,,61,45
5525,set_tempo,,,,,5,1,0,,359496,,,,,,,
5540,set_tempo,,,,,15,1,0,,360576,,,,,,,
5550,set_tempo,,,,,10,1,0,,361663,,,,,,,
5565,note_on,,,,,0,0,1,,,,,0,,,69,0
5565,note_on,,,,,45,0,1,,,,,0,,,81,0
5565,set_tempo,,,,,15,1,0,,362756,,,,,,,
5575,set_tempo,,,,,10,1,0,,363856,,,,,,,
5580,note_on,,,,,0,0,1,,,,,0,,,83,47
5580,note_on,,,,,15,0,1,,,,,0,,,71,47
5580,set_tempo,,,,,5,1,0,,364963,,,,,,,
5585,control_change,,,,,5,0,1,,,,,0,64,0,,
5600,set_tempo,,,,,20,1,0,,366076,,,,,,,
5625,note_on,,,,,0,0,1,,,,,0,,,71,0
5625,note_on,,,,,40,0,1,,,,,0,,,83,0
5625,set_tempo,,,,,25,1,0,,367197,,,,,,,
5640,note_on,,,,,120,0,2,,,,,0,,,61,0
5640,note_on,,,,,0,0,1,,,,,0,,,79,55
5640,note_on,,,,,15,0,1,,,,,0,,,67,55
5640,note_on,,,,,0,0,2,,,,,0,,,64,41
5730,note_on,,,,,90,0,2,,,,,0,,,64,0
5760,control_change,,,,,0,0,1,,,,,0,64,96,,
5760,note_on,,,,,0,0,1,,,,,0,,,78,46
5760,note_on,,,,,0,0,1,,,,,0,,,66,46
5760,note_on,,,,,0,0,1,,,,,0,,,67,0
5760,note_on,,,,,30,0,2,,,,,0,,,57,0
5760,note_on,,,,,120,0,1,,,,,0,,,79,0
5760,note_on,,,,,0,0,2,,,,,0,,,62,40
5760,note_on,,,,,0,0,2,,,,,0,,,50,40
5775,set_tempo,,,,,150,1,0,,364963,,,,,,,
5780,set_tempo,,,,,5,1,0,,362756,,,,,,,
5795,set_tempo,,,,,15,1,0,,359496,,,,,,,
5805,set_tempo,,,,,10,1,0,,358422,,,,,,,
5815,set_tempo,,,,,10,1,0,,356294,,,,,,,
5830,set_tempo,,,,,15,1,0,,355239,,,,,,,
5865,set_tempo,,,,,35,1,0,,356294,,,,,,,
5880,set_tempo,,,,,15,1,0,,357355,,,,,,,
5880,note_on,,,,,120,0,2,,,,,0,,,62,0
5880,note_on,,,,,0,0,2,,,,,0,,,54,35
5910,set_tempo,,,,,30,1,0,,358422,,,,,,,
5915,set_tempo,,,,,5,1,0,,359496,,,,,,,
5925,set_tempo,,,,,10,1,0,,360576,,,,,,,
5935,set_tempo,,,,,10,1,0,,361663,,,,,,,
5940,set_tempo,,,,,5,1,0,,362756,,,,,,,
5945,control_change,,,,,185,0,1,,,,,0,64,0,,
5970,note_on,,,,,0,0,2,,,,,0,,,50,0
5970,note_on,,,,,25,0,1,,,,,0,,,78,0
5970,note_on,,,,,90,0,2,,,,,0,,,54,0
5970,set_tempo,,,,,30,1,0,,364963,,,,,,,
5970,note_on,,,,,0,0,1,,,,,0,,,66,0
5985,set_tempo,,,,,15,1,0,,366076,,,,,,,
5990,set_tempo,,,,,5,1,0,,367197,,,,,,,
6000,note_on,,,,,30,0,1,,,,,0,,,57,53
6000,note_on,,,,,0,0,1,,,,,0,,,66,53
6000,control_change,,,,,0,0,1,,,,,0,64,0,,
6000,set_tempo,,,,,10,1,0,,351082,,,,,,,
6005,set_tempo,,,,,5,1,0,,351082,,,,,,,
6015,set_tempo,,,,,10,1,0,,352112,,,,,,,
6045,set_tempo,,,,,30,1,0,,353148,,,,,,,
6065,set_tempo,,,,,20,1,0,,354191,,,,,,,
6075,set_tempo,,,,,10,1,0,,356294,,,,,,,
6095,set_tempo,,,,,20,1,0,,357355,,,,,,,
6120,note_on,,,,,120,0,1,,,,,0,,,73,48
6120,note_on,,,,,150,0,2,,,,,0,,,45,48
6120,control_change,,,,,0,0,1,,,,,0,64,96,,
6125,set_tempo,,,,,30,1,0,,358422,,,,,,,
6135,set_tempo,,,,,10,1,0,,359496,,,,,,,
6145,set_tempo,,,,,10,1,0,,360576,,,,,,,
6160,set_tempo,,,,,15,1,0,,361663,,,,,,,
6170,set_tempo,,,,,10,1,0,,362756,,,,,,,
6180,set_tempo,,,,,10,1,0,,363856,,,,,,,
6190,set_tempo,,,,,10,1,0,,364963,,,,,,,
6225,set_tempo,,,,,35,1,0,,366076,,,,,,,
6240,note_on,,,,,0,0,1,,,,,0,,,57,33
6240,note_on,,,,,0,0,1,,,,,0,,,66,33
6240,control_change,,,,,0,0,1,,,,,0,64,0,,
6240,note_on,,,,,120,0,1,,,,,0,,,66,0
6240,note_on,,,,,0,0,1,,,,,0,,,57,0
6255,set_tempo,,,,,30,1,0,,367197,,,,,,,
6285,note_on,,,,,0,0,1,,,,,0,,,57,0
6285,note_on,,,,,45,0,1,,,,,0,,,66,0
6295,set_tempo,,,,,40,1,0,,368324,,,,,,,
6300,set_tempo,,,,,5,1,0,,369458,,,,,,,
6300,note_on,,,,,15,0,1,,,,,0,,,59,36
6300,note_on,,,,,0,0,1,,,,,0,,,67,36
6345,note_on,,,,,45,0,1,,,,,0,,,67,0
6345,note_on,,,,,0,0,1,,,,,0,,,59,0
6360,note_on,,,,,15,0,1,,,,,0,,,55,39
6360,note_on,,,,,0,0,1,,,,,0,,,64,39
6475,set_tempo,,,,,175,1,0,,372902,,,,,,,
6480,note_on,,,,,120,0,1,,,,,0,,,64,0
6480,note_on,,,,,0,0,1,,,,,0,,,55,0
6480,note_on,,,,,360,0,2,,,,,0,,,45,0
6480,note_on,,,,,0,0,1,,,,,0,,,54,35
6480,note_on,,,,,0,0,1,,,,,0,,,62,35
6480,note_on,,,,,0,0,1,,,,,0,,,74,35
6480,control_change,,,,,0,0,1,,,,,0,64,95,,
6480,note_on,,,,,0,0,2,,,,,0,,,50,39
6480,note_on,,,,,0,0,1,,,,,0,,,73,0
6505,set_tempo,,,,,30,1,0,,377595,,,,,,,
6660,set_tempo,,,,,155,1,0,,461893,,,,,,,
6690,note_on,,,,,210,0,2,,,,,0,,,50,0
6690,note_on,,,,,0,0,1,,,,,0,,,62,0
6690,control_change,,,,,0,0,1,,,,,0,64,0,,
6690,note_on,,,,,0,0,1,,,,,0,,,54,0
6690,note_on,,,,,210,0,1,,,,,0,,,74,0
6720,set_tempo,,,,,60,1,0,,351082,,,,,,,
6720,control_change,,,,,30,0,1,,,,,0,91,96,,
6720,note_on,,,,,0,0,2,,,,,0,,,54,112
6720,control_change,,,,,30,0,2,,,,,0,91,96,,
6720,note_on,,,,,0,0,1,,,,,0,,,66,111
6730,set_tempo,,,,,10,1,0,,351082,,,,,,,
6820,set_tempo,,,,,90,1,0,,398936,,,,,,,
6840,note_on,,,,,0,0,1,,,,,0,,,62,127
6840,note_on,,,,,0,0,2,,,,,0,,,54,127
6840,note_on,,,,,0,0,2,,,,,0,,,59,127
6840,note_on,,,,,0,0,2,,,,,0,,,47,127
6840,set_tempo,,,,,20,1,0,,352112,,,,,,,
6840,note_on,,,,,120,0,1,,,,,0,,,66,0
6840,note_on,,,,,120,0,2,,,,,0,,,54,0
6840,note_on,,,,,0,0,1,,,,,0,,,66,127
6840,note_on,,,,,0,0,1,,,,,0,,,74,127
6840,control_change,,,,,0,0,1,,,,,0,64,96,,
6930,note_on,,,,,90,0,2,,,,,0,,,59,0
6930,note_on,,,,,0,0,2,,,,,0,,,54,0
6930,note_on,,,,,0,0,2,,,,,0,,,47,0
6930,note_on,,,,,0,0,1,,,,,0,,,66,0
6930,note_on,,,,,0,0,1,,,,,0,,,62,0
6930,note_on,,,,,90,0,1,,,,,0,,,74,0
6960,note_on,,,,,0,0,2,,,,,0,,,59,77
6960,note_on,,,,,0,0,2,,,,,0,,,54,77
6960,note_on,,,,,30,0,2,,,,,0,,,47,77
6960,note_on,,,,,0,0,1,,,,,0,,,74,77
6960,note_on,,,,,0,0,1,,,,,0,,,66,77
6960,note_on,,,,,30,0,1,,,,,0,,,62,77
7005,note_on,,,,,0,0,1,,,,,0,,,62,0
7005,note_on,,,,,0,0,2,,,,,0,,,54,0
7005,note_on,,,,,45,0,2,,,,,0,,,59,0
7005,note_on,,,,,0,0,1,,,,,0,,,66,0
7005,note_on,,,,,45,0,1,,,,,0,,,74,0
7005,note_on,,,,,0,0,2,,,,,0,,,47,0
7020,note_on,,,,,0,0,2,,,,,0,,,54,92
7020,note_on,,,,,15,0,2,,,,,0,,,47,92
7020,note_on,,,,,0,0,2,,,,,0,,,59,92
7020,note_on,,,,,15,0,1,,,,,0,,,62,81
7020,note_on,,,,,0,0,1,,,,,0,,,66,81
7020,note_on,,,,,0,0,1,,,,,0,,,74,81
7065,note_on,,,,,0,0,2,,,,,0,,,47,0
7065,note_on,,,,,0,0,2,,,,,0,,,54,0
7065,note_on,,,,,45,0,2,,,,,0,,,59,0
7065,note_on,,,,,45,0,1,,,,,0,,,74,0
7065,note_on,,,,,0,0,1,,,,,0,,,62,0
7065,note_on,,,,,0,0,1,,,,,0,,,66,0
7080,note_on,,,,,0,0,2,,,,,0,,,54,102
7080,note_on,,,,,15,0,2,,,,,0,,,47,102
7080,note_on,,,,,0,0,1,,,,,0,,,74,94
7080,note_on,,,,,0,0,1,,,,,0,,,66,94
7080,note_on,,,,,15,0,1,,,,,0,,,62,94
7080,note_on,,,,,0,0,2,,,,,0,,,59,102
7125,note_on,,,,,0,0,1,,,,,0,,,62,0
7125,note_on,,,,,0,0,2,,,,,0,,,54,0
7125,note_on,,,,,0,0,2,,,,,0,,,47,0
7125,note_on,,,,,45,0,2,,,,,0,,,59,0
7125,note_on,,,,,45,0,1,,,,,0,,,74,0
7125,note_on,,,,,0,0,1,,,,,0,,,66,0
7140,note_on,,,,,15,0,2,,,,,0,,,47,112
7140,note_on,,,,,15,0,1,,,,,0,,,62,108
7140,note_on,,,,,0,0,2,,,,,0,,,59,112
7140,note_on,,,,,0,0,1,,,,,0,,,66,108
7140,note_on,,,,,0,0,2,,,,,0,,,54,112
7140,note_on,,,,,0,0,1,,,,,0,,,74,108
7185,note_on,,,,,0,0,2,,,,,0,,,54,0
7185,note_on,,,,,0,0,2,,,,,0,,,47,0
7185,note_on,,,,,0,0,1,,,,,0,,,66,0
7185,note_on,,,,,45,0,1,,,,,0,,,74,0
7185,note_on,,,,,0,0,1,,,,,0,,,62,0
7185,note_on,,,,,45,0,2,,,,,0,,,59,0
7195,control_change,,,,,10,0,1,,,,,0,64,0,,
7200,note_on,,,,,0,0,1,,,,,0,,,66,116
7200,control_change,,,,,0,0,1,,,,,0,64,95,,
7200,note_on,,,,,0,0,1,,,,,0,,,71,116
7200,note_on,,,,,15,0,2,,,,,0,,,50,114
7200,note_on,,,,,0,0,2,,,,,0,,,59,114
7200,note_on,,,,,5,0,1,,,,,0,,,62,116
7200,note_on,,,,,0,0,2,,,,,0,,,54,114
7290,note_on,,,,,90,0,2,,,,,0,,,59,0
7290,note_on,,,,,0,0,1,,,,,0,,,62,0
7290,note_on,,,,,0,0,1,,,,,0,,,66,0
7290,note_on,,,,,90,0,1,,,,,0,,,71,0
7290,note_on,,,,,0,0,2,,,,,0,,,50,0
7290,note_on,,,,,0,0,2,,,,,0,,,54,0
7320,note_on,,,,,30,0,1,,,,,0,,,62,99
7320,note_on,,,,,0,0,1,,,,,0,,,71,99
7320,note_on,,,,,0,0,1,,,,,0,,,66,99
7320,note_on,,,,,0,0,2,,,,,0,,,59,101
7320,note_on,,,,,0,0,2,,,,,0,,,54,101
7320,note_on,,,,,30,0,2,,,,,0,,,50,101
7410,note_on,,,,,0,0,1,,,,,0,,,62,0
7410,note_on,,,,,0,0,1,,,,,0,,,66,0
7410,note_on,,,,,90,0,1,,,,,0,,,71,0
7410,note_on,,,,,90,0,2,,,,,0,,,59,0
7410,note_on,,,,,0,0,2,,,,,0,,,54,0
7410,note_on,,,,,0,0,2,,,,,0,,,50,0
7440,note_on,,,,,0,0,2,,,,,0,,,59,84
7440,note_on,,,,,0,0,2,,,,,0,,,54,84
7440,note_on,,,,,30,0,2,,,,,0,,,50,84
7440,note_on,,,,,30,0,1,,,,,0,,,62,83
7440,note_on,,,,,0,0,1,,,,,0,,,66,83
7440,note_on,,,,,0,0,1,,,,,0,,,71,83
7530,note_on,,,,,90,0,2,,,,,0,,,59,0
7530,note_on,,,,,90,0,1,,,,,0,,,71,0
7530,note_on,,,,,0,0,1,,,,,0,,,66,0
7530,note_on,,,,,0,0,1,,,,,0,,,62,0
7530,note_on,,,,,0,0,2,,,,,0,,,54,0
7530,note_on,,,,,0,0,2,,,,,0,,,50,0
7540,set_tempo,,,,,700,1,0,,353148,,,,,,,
7555,control_change,,,,,25,0,1,,,,,0,64,0,,
7560,note_on,,,,,30,0,2,,,,,0,,,42,127
7560,control_change,,,,,0,0,1,,,,,0,64,95,,
7560,note_on,,,,,0,0,1,,,,,0,,,73,127
7560,note_on,,,,,0,0,1,,,,,0,,,64,127
7560,note_on,,,,,5,0,1,,,,,0,,,66,127
7560,note_on,,,,,0,0,2,,,,,0,,,54,127
7570,set_tempo,,,,,30,1,0,,354191,,,,,,,
7580,set_tempo,,,,,10,1,0,,355239,,,,,,,
7590,note_on,,,,,30,0,1,,,,,0,,,58,127
7600,set_tempo,,,,,20,1,0,,356294,,,,,,,
7610,set_tempo,,,,,10,1,0,,358422,,,,,,,
7620,set_tempo,,,,,10,1,0,,359496,,,,,,,
7640,set_tempo,,,,,20,1,0,,360576,,,,,,,
7650,note_on,,,,,0,0,1,,,,,0,,,73,0
7650,note_on,,,,,0,0,1,,,,,0,,,64,0
7650,note_on,,,,,0,0,1,,,,,0,,,66,0
7650,note_on,,,,,60,0,1,,,,,0,,,58,0
7650,set_tempo,,,,,10,1,0,,361663,,,,,,,
7650,note_on,,,,,0,0,2,,,,,0,,,42,0
7650,note_on,,,,,90,0,2,,,,,0,,,54,0
7670,set_tempo,,,,,20,1,0,,363856,,,,,,,
7680,note_on,,,,,30,0,2,,,,,0,,,54,78
7680,note_on,,,,,0,0,1,,,,,0,,,66,82
7680,note_on,,,,,0,0,1,,,,,0,,,73,82
7680,note_on,,,,,0,0,2,,,,,0,,,58,78
7680,note_on,,,,,30,0,1,,,,,0,,,64,82
7680,set_tempo,,,,,10,1,0,,364963,,,,,,,
7690,set_tempo,,,,,10,1,0,,367197,,,,,,,
7710,set_tempo,,,,,20,1,0,,368324,,,,,,,
7720,set_tempo,,,,,10,1,0,,369458,,,,,,,
7725,note_on,,,,,0,0,1,,,,,0,,,66,0
7725,note_on,,,,,45,0,1,,,,,0,,,73,0
7725,note_on,,,,,0,0,1,,,,,0,,,64,0
7725,note_on,,,,,45,0,2,,,,,0,,,58,0
7725,note_on,,,,,0,0,2,,,,,0,,,54,0
7730,set_tempo,,,,,10,1,0,,370599,,,,,,,
7740,note_on,,,,,15,0,1,,,,,0,,,64,95
7740,note_on,,,,,0,0,1,,,,,0,,,66,95
7740,note_on,,,,,0,0,1,,,,,0,,,73,95
7740,note_on,,,,,15,0,2,,,,,0,,,54,91
7740,set_tempo,,,,,10,1,0,,371747,,,,,,,
7740,note_on,,,,,0,0,2,,,,,0,,,58,91
7760,set_tempo,,,,,20,1,0,,372902,,,,,,,
7770,set_tempo,,,,,10,1,0,,374064,,,,,,,
7785,note_on,,,,,0,0,1,,,,,0,,,64,0
7785,note_on,,,,,0,0,1,,,,,0,,,66,0
7785,note_on,,,,,45,0,1,,,,,0,,,73,0
7785,note_on,,,,,45,0,2,,,,,0,,,58,0
7785,note_on,,,,,0,0,2,,,,,0,,,54,0
7790,set_tempo,,,,,20,1,0,,376411,,,,,,,
7800,set_tempo,,,,,10,1,0,,378787,,,,,,,
7800,note_on,,,,,0,0,2,,,,,0,,,58,98
7800,note_on,,,,,0,0,1,,,,,0,,,73,104
7800,note_on,,,,,15,0,2,,,,,0,,,54,98
7800,note_on,,,,,15,0,1,,,,,0,,,64,104
7800,note_on,,,,,0,0,1,,,,,0,,,66,104
7810,set_tempo,,,,,10,1,0,,379987,,,,,,,
7845,note_on,,,,,0,0,2,,,,,0,,,54,0
7845,note_on,,,,,0,0,1,,,,,0,,,66,0
7845,note_on,,,,,45,0,1,,,,,0,,,73,0
7845,note_on,,,,,0,0,1,,,,,0,,,64,0
7845,note_on,,,,,45,0,2,,,,,0,,,58,0
7860,note_on,,,,,15,0,2,,,,,0,,,54,107
7860,note_on,,,,,15,0,1,,,,,0,,,64,117
7860,note_on,,,,,0,0,1,,,,,0,,,66,117
7860,note_on,,,,,0,0,1,,,,,0,,,73,117
7860,note_on,,,,,0,0,2,,,,,0,,,58,107
7900,set_tempo,,,,,90,1,0,,396301,,,,,,,
7905,note_on,,,,,0,0,2,,,,,0,,,54,0
7905,note_on,,,,,45,0,2,,,,,0,,,58,0
7905,note_on,,,,,0,0,1,,,,,0,,,66,0
7905,note_on,,,,,45,0,1,,,,,0,,,73,0
7905,note_on,,,,,0,0,1,,,,,0,,,64,0
7915,control_change,,,,,10,0,1,,,,,0,64,0,,
7920,note_on,,,,,5,0,1,,,,,0,,,58,123
7920,note_on,,,,,0,0,1,,,,,0,,,64,123
7920,control_change,,,,,0,0,1,,,,,0,64,95,,
7920,note_on,,,,,0,0,1,,,,,0,,,66,123
7920,set_tempo,,,,,20,1,0,,346020,,,,,,,
7920,note_on,,,,,15,0,2,,,,,0,,,49,118
7920,note_on,,,,,0,0,2,,,,,0,,,54,118
7925,set_tempo,,,,,5,1,0,,357355,,,,,,,
7930,set_tempo,,,,,5,1,0,,363856,,,,,,,
8110,set_tempo,,,,,180,1,0,,366076,,,,,,,
8140,set_tempo,,,,,30,1,0,,364963,,,,,,,
8160,set_tempo,,,,,20,1,0,,362756,,,,,,,
8180,set_tempo,,,,,20,1,0,,361663,,,,,,,
8190,set_tempo,,,,,10,1,0,,360576,,,,,,,
8210,set_tempo,,,,,20,1,0,,359496,,,,,,,
8230,set_tempo,,,,,20,1,0,,358422,,,,,,,
8250,note_on,,,,,330,0,1,,,,,0,,,66,0
8250,note_on,,,,,0,0,1,,,,,0,,,64,0
8250,note_on,,,,,330,0,2,,,,,0,,,54,0
8250,note_on,,,,,0,0,2,,,,,0,,,49,0
8250,note_on,,,,,0,0,1,,,,,0,,,58,0
8260,set_tempo,,,,,30,1,0,,357355,,,,,,,
8275,control_change,,,,,25,0,1,,,,,0,64,0,,
8280,note_on,,,,,0,0,2,,,,,0,,,54,127
8280,note_on,,,,,0,0,1,,,,,0,,,71,127
8280,note_on,,,,,0,0,1,,,,,0,,,66,127
8280,note_on,,,,,0,0,1,,,,,0,,,62,127
8280,note_on,,,,,5,0,1,,,,,0,,,59,127
8280,note_on,,,,,30,0,2,,,,,0,,,47,127
8280,control_change,,,,,0,0,1,,,,,0,64,96,,
8280,note_on,,,,,0,0,2,,,,,0,,,50,127
8300,set_tempo,,,,,40,1,0,,356294,,,,,,,
8330,set_tempo,,,,,30,1,0,,355239,,,,,,,
8370,control_change,,,,,90,0,1,,,,,0,64,0,,
8380,set_tempo,,,,,50,1,0,,354191,,,,,,,
8400,note_on,,,,,30,0,1,,,,,0,,,71,0
8400,note_on,,,,,0,0,2,,,,,0,,,54,99
8400,note_on,,,,,0,0,2,,,,,0,,,50,99
8400,note_on,,,,,0,0,2,,,,,0,,,47,99
8400,note_on,,,,,0,0,2,,,,,0,,,47,0
8400,note_on,,,,,0,0,2,,,,,0,,,50,0
8400,note_on,,,,,120,0,2,,,,,0,,,54,0
8400,note_on,,,,,0,0,1,,,,,0,,,59,0
8400,note_on,,,,,0,0,1,,,,,0,,,62,0
8400,note_on,,,,,0,0,1,,,,,0,,,66,0
8400,note_on,,,,,0,0,1,,,,,0,,,58,100
8400,note_on,,,,,0,0,1,,,,,0,,,70,100
8400,set_tempo,,,,,20,1,0,,352112,,,,,,,
8445,note_on,,,,,0,0,2,,,,,0,,,47,0
8445,note_on,,,,,45,0,1,,,,,0,,,70,0
8445,note_on,,,,,0,0,1,,,,,0,,,58,0
8445,note_on,,,,,45,0,2,,,,,0,,,54,0
8445,note_on,,,,,0,0,2,,,,,0,,,50,0
8460,note_on,,,,,0,0,2,,,,,0,,,54,95
8460,note_on,,,,,15,0,1,,,,,0,,,59,95
8460,note_on,,,,,0,0,1,,,,,0,,,71,95
8460,note_on,,,,,0,0,2,,,,,0,,,50,95
8460,note_on,,,,,15,0,2,,,,,0,,,47,95
8470,set_tempo,,,,,70,1,0,,351082,,,,,,,
8505,note_on,,,,,0,0,2,,,,,0,,,50,0
8505,note_on,,,,,45,0,2,,,,,0,,,54,0
8505,note_on,,,,,0,0,1,,,,,0,,,59,0
8505,note_on,,,,,45,0,1,,,,,0,,,71,0
8505,note_on,,,,,0,0,2,,,,,0,,,47,0
8520,note_on,,,,,0,0,2,,,,,0,,,54,104
8520,note_on,,,,,15,0,1,,,,,0,,,59,104
8520,note_on,,,,,0,0,1,,,,,0,,,71,104
8520,note_on,,,,,15,0,2,,,,,0,,,47,104
8520,note_on,,,,,0,0,2,,,,,0,,,50,104
8540,set_tempo,,,,,70,1,0,,350058,,,,,,,
8550,set_tempo,,,,,10,1,0,,349040,,,,,,,
8565,note_on,,,,,45,0,2,,,,,0,,,54,0
8565,note_on,,,,,0,0,2,,,,,0,,,50,0
8565,note_on,,,,,0,0,2,,,,,0,,,47,0
8565,note_on,,,,,45,0,1,,,,,0,,,71,0
8565,note_on,,,,,0,0,1,,,,,0,,,59,0
8580,note_on,,,,,0,0,2,,,,,0,,,54,117
8580,note_on,,,,,0,0,1,,,,,0,,,73,117
8580,note_on,,,,,15,0,2,,,,,0,,,47,117
8580,note_on,,,,,15,0,1,,,,,0,,,61,117
8580,set_tempo,,,,,30,1,0,,348027,,,,,,,
8580,note_on,,,,,0,0,2,,,,,0,,,50,117
8600,set_tempo,,,,,20,1,0,,347021,,,,,,,
8610,set_tempo,,,,,10,1,0,,346020,,,,,,,
8625,note_on,,,,,45,0,1,,,,,0,,,73,0
8625,note_on,,,,,0,0,1,,,,,0,,,61,0
8625,note_on,,,,,0,0,2,,,,,0,,,47,0
8625,note_on,,,,,0,0,2,,,,,0,,,50,0
8625,note_on,,,,,45,0,2,,,,,0,,,54,0
8635,control_change,,,,,10,0,1,,,,,0,64,0,,
8640,note_on,,,,,0,0,2,,,,,0,,,50,127
8640,note_on,,,,,0,0,2,,,,,0,,,47,127
8640,note_on,,,,,15,0,2,,,,,0,,,43,127
8640,note_on,,,,,0,0,2,,,,,0,,,55,127
8640,control_change,,,,,0,0,1,,,,,0,64,96,,
8640,note_on,,,,,5,0,1,,,,,0,,,62,127
8640,note_on,,,,,0,0,1,,,,,0,,,74,127
8650,set_tempo,,,,,40,1,0,,345025,,,,,,,
8660,set_tempo,,,,,10,1,0,,344036,,,,,,,
8680,set_tempo,,,,,20,1,0,,347021,,,,,,,
8690,set_tempo,,,,,10,1,0,,349040,,,,,,,
8710,set_tempo,,,,,20,1,0,,351082,,,,,,,
8720,set_tempo,,,,,10,1,0,,352112,,,,,,,
8730,set_tempo,,,,,10,1,0,,353148,,,,,,,
8730,note_on,,,,,0,0,2,,,,,0,,,50,0
8730,note_on,,,,,0,0,2,,,,,0,,,47,0
8730,note_on,,,,,0,0,2,,,,,0,,,43,0
8730,note_on,,,,,90,0,2,,,,,0,,,55,0
8730,note_on,,,,,90,0,1,,,,,0,,,74,0
8730,note_on,,,,,0,0,1,,,,,0,,,62,0
8740,set_tempo,,,,,10,1,0,,354191,,,,,,,
8750,set_tempo,,,,,10,1,0,,355239,,,,,,,
8760,note_on,,,,,30,0,1,,,,,0,,,62,115
8760,note_on,,,,,0,0,2,,,,,0,,,50,118
8760,note_on,,,,,0,0,2,,,,,0,,,55,118
8760,note_on,,,,,0,0,2,,,,,0,,,47,118
8760,note_on,,,,,0,0,1,,,,,0,,,74,115
8760,set_tempo,,,,,10,1,0,,356294,,,,,,,
8760,note_on,,,,,30,0,2,,,,,0,,,43,118
8770,set_tempo,,,,,10,1,0,,357355,,,,,,,
8780,set_tempo,,,,,10,1,0,,358422,,,,,,,
8790,set_tempo,,,,,10,1,0,,359496,,,,,,,
8810,set_tempo,,,,,20,1,0,,361663,,,,,,,
8850,note_on,,,,,0,0,1,,,,,0,,,62,0
8850,note_on,,,,,90,0,2,,,,,0,,,55,0
8850,note_on,,,,,0,0,2,,,,,0,,,43,0
8850,note_on,,,,,0,0,2,,,,,0,,,47,0
8850,note_on,,,,,0,0,2,,,,,0,,,50,0
8850,note_on,,,,,90,0,1,,,,,0,,,74,0
8880,note_on,,,,,0,0,2,,,,,0,,,50,99
8880,note_on,,,,,0,0,2,,,,,0,,,55,99
8880,note_on,,,,,0,0,1,,,,,0,,,74,100
8880,note_on,,,,,30,0,1,,,,,0,,,62,100
8880,note_on,,,,,0,0,2,,,,,0,,,47,99
8880,note_on,,,,,30,0,2,,,,,0,,,43,99
8890,set_tempo,,,,,80,1,0,,363856,,,,,,,
8900,set_tempo,,,,,10,1,0,,366076,,,,,,,
8940,set_tempo,,,,,40,1,0,,368324,,,,,,,
8960,set_tempo,,,,,20,1,0,,369458,,,,,,,
8970,note_on,,,,,0,0,1,,,,,0,,,62,0
8970,note_on,,,,,90,0,1,,,,,0,,,74,0
8970,note_on,,,,,0,0,2,,,,,0,,,50,0
8970,note_on,,,,,0,0,2,,,,,0,,,47,0
8970,note_on,,,,,0,0,2,,,,,0,,,43,0
8970,note_on,,,,,90,0,2,,,,,0,,,55,0
8970,set_tempo,,,,,10,1,0,,370599,,,,,,,
8990,set_tempo,,,,,20,1,0,,371747,,,,,,,
8995,control_change,,,,,25,0,1,,,,,0,64,0,,
9000,note_on,,,,,0,0,2,,,,,0,,,52,108
9000,note_on,,,,,0,0,2,,,,,0,,,49,108
9000,note_on,,,,,0,0,2,,,,,0,,,46,108
9000,set_tempo,,,,,10,1,0,,372902,,,,,,,
9000,note_on,,,,,30,0,2,,,,,0,,,40,108
9000,note_on,,,,,0,0,1,,,,,0,,,70,108
9000,note_on,,,,,0,0,1,,,,,0,,,67,108
9000,note_on,,,,,0,0,1,,,,,0,,,76,108
9000,control_change,,,,,0,0,1,,,,,0,64,94,,
9000,note_on,,,,,5,0,1,,,,,0,,,64,108
9010,set_tempo,,,,,10,1,0,,374064,,,,,,,
9020,set_tempo,,,,,10,1,0,,376411,,,,,,,
9030,set_tempo,,,,,10,1,0,,377595,,,,,,,
9040,set_tempo,,,,,10,1,0,,379987,,,,,,,
9050,set_tempo,,,,,10,1,0,,381194,,,,,,,
9060,set_tempo,,,,,10,1,0,,384862,,,,,,,
9080,set_tempo,,,,,20,1,0,,386100,,,,,,,
9090,note_on,,,,,0,0,2,,,,,0,,,49,0
9090,note_on,,,,,90,0,2,,,,,0,,,52,0
9090,note_on,,,,,0,0,2,,,,,0,,,40,0
9090,note_on,,,,,0,0,1,,,,,0,,,67,0
9090,note_on,,,,,0,0,1,,,,,0,,,70,0
9090,note_on,,,,,0,0,1,,,,,0,,,64,0
9090,note_on,,,,,90,0,1,,,,,0,,,76,0
9090,note_on,,,,,0,0,2,,,,,0,,,46,0
9090,set_tempo,,,,,10,1,0,,388601,,,,,,,
9100,set_tempo,,,,,10,1,0,,389863,,,,,,,
9110,set_tempo,,,,,10,1,0,,391134,,,,,,,
9120,note_on,,,,,0,0,1,,,,,0,,,70,112
9120,set_tempo,,,,,10,1,0,,392413,,,,,,,
9120,note_on,,,,,0,0,1,,,,,0,,,67,112
9120,note_on,,,,,30,0,1,,,,,0,,,64,112
9120,note_on,,,,,0,0,2,,,,,0,,,52,115
9120,note_on,,,,,0,0,2,,,,,0,,,49,115
9120,note_on,,,,,0,0,2,,,,,0,,,46,115
9120,note_on,,,,,30,0,2,,,,,0,,,40,115
9120,note_on,,,,,0,0,1,,,,,0,,,76,112
9130,set_tempo,,,,,10,1,0,,396301,,,,,,,
9140,set_tempo,,,,,10,1,0,,397614,,,,,,,
9160,set_tempo,,,,,20,1,0,,398936,,,,,,,
9170,set_tempo,,,,,10,1,0,,402955,,,,,,,
9190,set_tempo,,,,,20,1,0,,404312,,,,,,,
9200,set_tempo,,,,,10,1,0,,405679,,,,,,,
9210,note_on,,,,,90,0,1,,,,,0,,,76,0
9210,set_tempo,,,,,10,1,0,,408441,,,,,,,
9210,note_on,,,,,0,0,1,,,,,0,,,70,0
9210,note_on,,,,,0,0,1,,,,,0,,,67,0
9210,note_on,,,,,0,0,1,,,,,0,,,64,0
9210,note_on,,,,,90,0,2,,,,,0,,,52,0
9210,note_on,,,,,0,0,2,,,,,0,,,46,0
9210,note_on,,,,,0,0,2,,,,,0,,,49,0
9210,note_on,,,,,0,0,2,,,,,0,,,40,0
9220,set_tempo,,,,,10,1,0,,412654,,,,,,,
9240,note_on,,,,,0,0,1,,,,,0,,,67,119
9240,note_on,,,,,30,0,1,,,,,0,,,64,119
9240,note_on,,,,,0,0,2,,,,,0,,,49,122
9240,note_on,,,,,0,0,2,,,,,0,,,46,122
9240,note_on,,,,,30,0,2,,,,,0,,,40,122
9240,note_on,,,,,0,0,1,,,,,0,,,70,119
9240,set_tempo,,,,,20,1,0,,416956,,,,,,,
9240,note_on,,,,,0,0,2,,,,,0,,,52,122
9240,note_on,,,,,0,0,1,,,,,0,,,76,119
9250,set_tempo,,,,,10,1,0,,418410,,,,,,,
9260,set_tempo,,,,,10,1,0,,419874,,,,,,,
9270,set_tempo,,,,,10,1,0,,421348,,,,,,,
9275,set_tempo,,,,,5,1,0,,398936,,,,,,,
9290,set_tempo,,,,,15,1,0,,400266,,,,,,,
9300,set_tempo,,,,,10,1,0,,401606,,,,,,,
9305,set_tempo,,,,,5,1,0,,402955,,,,,,,
9315,set_tempo,,,,,10,1,0,,404312,,,,,,,
9325,set_tempo,,,,,10,1,0,,563909,,,,,,,
9330,note_on,,,,,0,0,2,,,,,0,,,40,0
9330,note_on,,,,,0,0,2,,,,,0,,,49,0
9330,note_on,,,,,0,0,2,,,,,0,,,46,0
9330,note_on,,,,,90,0,1,,,,,0,,,76,0
9330,note_on,,,,,0,0,1,,,,,0,,,64,0
9330,note_on,,,,,0,0,1,,,,,0,,,67,0
9330,note_on,,,,,0,0,1,,,,,0,,,70,0
9330,note_on,,,,,90,0,2,,,,,0,,,52,0
9355,control_change,,,,,25,0,1,,,,,0,64,0,,
9360,note_on,,,,,0,0,2,,,,,0,,,45,127
9360,note_on,,,,,5,0,1,,,,,0,,,67,127
9360,note_on,,,,,0,0,1,,,,,0,,,69,127
9360,note_on,,,,,30,0,2,,,,,0,,,37,127
9360,note_on,,,,,0,0,1,,,,,0,,,79,127
9360,control_change,,,,,0,0,1,,,,,0,64,94,,
9360,note_on,,,,,0,0,1,,,,,0,,,76,127
9360,set_tempo,,,,,35,1,0,,397614,,,,,,,
9360,note_on,,,,,0,0,2,,,,,0,,,49,127
9690,note_on,,,,,330,0,1,,,,,0,,,79,0
9690,note_on,,,,,0,0,1,,,,,0,,,69,0
9690,note_on,,,,,0,0,1,,,,,0,,,76,0
9690,control_change,,,,,0,0,1,,,,,0,64,0,,
9690,note_on,,,,,0,0,2,,,,,0,,,37,0
9690,note_on,,,,,0,0,2,,,,,0,,,45,0
9690,note_on,,,,,330,0,2,,,,,0,,,49,0
9690,note_on,,,,,0,0,1,,,,,0,,,67,0
9720,note_on,,,,,30,0,1,,,,,0,,,90,64
9720,note_on,,,,,0,0,1,,,,,0,,,78,64
9720,set_tempo,,,,,360,1,0,,352112,,,,,,,
9720,note_on,,,,,30,0,2,,,,,0,,,50,77
9810,set_tempo,,,,,90,1,0,,372902,,,,,,,
9810,note_on,,,,,0,0,1,,,,,0,,,90,0
9810,note_on,,,,,90,0,1,,,,,0,,,78,0
9840,note_on,,,,,120,0,2,,,,,0,,,57,62
9840,note_on,,,,,0,0,1,,,,,0,,,78,74
9840,note_on,,,,,30,0,1,,,,,0,,,90,74
9910,set_tempo,,,,,100,1,0,,408441,,,,,,,
9930,note_on,,,,,0,0,1,,,,,0,,,90,0
9930,note_on,,,,,90,0,1,,,,,0,,,78,0
9960,set_tempo,,,,,50,1,0,,354191,,,,,,,
9960,control_change,,,,,0,0,1,,,,,0,64,95,,
9960,note_on,,,,,0,0,1,,,,,0,,,78,82
9960,note_on,,,,,30,0,1,,,,,0,,,90,82
9960,note_on,,,,,120,0,2,,,,,0,,,57,0
9960,note_on,,,,,0,0,2,,,,,0,,,58,70
9965,set_tempo,,,,,5,1,0,,353148,,,,,,,
9970,set_tempo,,,,,5,1,0,,374064,,,,,,,
9980,set_tempo,,,,,10,1,0,,371747,,,,,,,
10080,note_on,,,,,120,0,2,,,,,0,,,58,0
10080,note_on,,,,,0,0,2,,,,,0,,,50,0
10080,set_tempo,,,,,100,1,0,,370599,,,,,,,
10080,note_on,,,,,0,0,2,,,,,0,,,59,78
10080,note_on,,,,,0,0,2,,,,,0,,,55,78
10100,set_tempo,,,,,20,1,0,,369458,,,,,,,
10120,set_tempo,,,,,20,1,0,,368324,,,,,,,
10180,set_tempo,,,,,60,1,0,,367197,,,,,,,
10200,note_on,,,,,240,0,1,,,,,0,,,78,0
10200,note_on,,,,,0,0,1,,,,,0,,,90,0
10200,note_on,,,,,0,0,2,,,,,0,,,64,64
10200,note_on,,,,,120,0,2,,,,,0,,,59,0
10200,note_on,,,,,0,0,1,,,,,0,,,76,85
10200,note_on,,,,,0,0,1,,,,,0,,,88,85
10200,control_change,,,,,0,0,1,,,,,0,64,0,,
10200,set_tempo,,,,,20,1,0,,366076,,,,,,,
10220,set_tempo,,,,,20,1,0,,364963,,,,,,,
10260,note_on,,,,,0,0,1,,,,,0,,,76,0
10260,note_on,,,,,60,0,1,,,,,0,,,88,0
10260,note_on,,,,,0,0,1,,,,,0,,,86,80
10260,note_on,,,,,0,0,1,,,,,0,,,74,80
10280,set_tempo,,,,,60,1,0,,363856,,,,,,,
10290,set_tempo,,,,,10,1,0,,362756,,,,,,,
10305,note_on,,,,,45,0,1,,,,,0,,,74,0
10305,note_on,,,,,0,0,1,,,,,0,,,86,0
10320,note_on,,,,,120,0,2,,,,,0,,,64,0
10320,note_on,,,,,15,0,1,,,,,0,,,86,72
10320,note_on,,,,,0,0,1,,,,,0,,,74,72
10320,note_on,,,,,0,0,2,,,,,0,,,67,71
10350,set_tempo,,,,,60,1,0,,361663,,,,,,,
10360,set_tempo,,,,,10,1,0,,360576,,,,,,,
10365,note_on,,,,,0,0,1,,,,,0,,,86,0
10365,note_on,,,,,45,0,1,,,,,0,,,74,0
10380,note_on,,,,,0,0,1,,,,,0,,,71,61
10380,note_on,,,,,15,0,1,,,,,0,,,83,61
10390,set_tempo,,,,,30,1,0,,359496,,,,,,,
10400,set_tempo,,,,,10,1,0,,358422,,,,,,,
10410,set_tempo,,,,,10,1,0,,357355,,,,,,,
10420,set_tempo,,,,,10,1,0,,356294,,,,,,,
10425,note_on,,,,,0,0,1,,,,,0,,,83,0
10425,note_on,,,,,45,0,1,,,,,0,,,71,0
10430,set_tempo,,,,,10,1,0,,353148,,,,,,,
10440,note_on,,,,,120,0,2,,,,,0,,,67,0
10440,note_on,,,,,0,0,2,,,,,0,,,55,0
10440,note_on,,,,,0,0,2,,,,,0,,,57,79
10440,control_change,,,,,0,0,1,,,,,0,64,95,,
10440,note_on,,,,,0,0,1,,,,,0,,,81,82
10440,note_on,,,,,15,0,1,,,,,0,,,69,82
10450,set_tempo,,,,,20,1,0,,354191,,,,,,,
10480,set_tempo,,,,,30,1,0,,357355,,,,,,,
10490,set_tempo,,,,,10,1,0,,358422,,,,,,,
10510,set_tempo,,,,,20,1,0,,359496,,,,,,,
10520,set_tempo,,,,,10,1,0,,361663,,,,,,,
10530,set_tempo,,,,,10,1,0,,362756,,,,,,,
10560,set_tempo,,,,,30,1,0,,364963,,,,,,,
10560,note_on,,,,,120,0,2,,,,,0,,,61,64
10560,note_on,,,,,0,0,1,,,,,0,,,69,74
10560,note_on,,,,,0,0,1,,,,,0,,,69,0
10560,note_on,,,,,120,0,1,,,,,0,,,81,0
10560,note_on,,,,,0,0,1,,,,,0,,,81,74
10570,set_tempo,,,,,10,1,0,,367197,,,,,,,
10590,set_tempo,,,,,20,1,0,,368324,,,,,,,
10600,set_tempo,,,,,10,1,0,,370599,,,,,,,
10605,note_on,,,,,45,0,1,,,,,0,,,81,0
10605,note_on,,,,,0,0,1,,,,,0,,,69,0
10610,set_tempo,,,,,10,1,0,,371747,,,,,,,
10615,control_change,,,,,10,0,1,,,,,0,64,0,,
10620,note_on,,,,,5,0,1,,,,,0,,,71,64
10620,set_tempo,,,,,10,1,0,,372902,,,,,,,
10620,note_on,,,,,0,0,1,,,,,0,,,83,64
10630,set_tempo,,,,,10,1,0,,375234,,,,,,,
10640,set_tempo,,,,,10,1,0,,377595,,,,,,,
10650,set_tempo,,,,,10,1,0,,379987,,,,,,,
10665,note_on,,,,,45,0,1,,,,,0,,,83,0
10665,note_on,,,,,0,0,1,,,,,0,,,71,0
10670,set_tempo,,,,,20,1,0,,381194,,,,,,,
10680,set_tempo,,,,,10,1,0,,383631,,,,,,,
10680,note_on,,,,,15,0,1,,,,,0,,,67,58
10680,note_on,,,,,0,0,1,,,,,0,,,79,58
10680,note_on,,,,,120,0,2,,,,,0,,,61,0
10680,note_on,,,,,0,0,2,,,,,0,,,64,57
10690,set_tempo,,,,,10,1,0,,384862,,,,,,,
10700,set_tempo,,,,,10,1,0,,386100,,,,,,,
10710,set_tempo,,,,,10,1,0,,387346,,,,,,,
10720,set_tempo,,,,,10,1,0,,389863,,,,,,,
10740,set_tempo,,,,,20,1,0,,391134,,,,,,,
10750,set_tempo,,,,,10,1,0,,392413,,,,,,,
10760,set_tempo,,,,,10,1,0,,393700,,,,,,,
10790,set_tempo,,,,,30,1,0,,394996,,,,,,,
10800,note_on,,,,,120,0,2,,,,,0,,,64,0
10800,note_on,,,,,0,0,1,,,,,0,,,78,55
10800,control_change,,,,,0,0,1,,,,,0,64,95,,
10800,note_on,,,,,120,0,1,,,,,0,,,79,0
10800,note_on,,,,,0,0,1,,,,,0,,,66,55
10800,note_on,,,,,0,0,2,,,,,0,,,57,0
10800,note_on,,,,,0,0,1,,,,,0,,,67,0
10800,note_on,,,,,0,0,2,,,,,0,,,50,39
10800,note_on,,,,,0,0,2,,,,,0,,,62,39
10915,set_tempo,,,,,125,1,0,,351082,,,,,,,
10920,note_on,,,,,0,0,2,,,,,0,,,54,44
10920,note_on,,,,,120,0,2,,,,,0,,,62,0
11010,note_on,,,,,0,0,1,,,,,0,,,66,0
11010,note_on,,,,,210,0,1,,,,,0,,,78,0
11010,note_on,,,,,90,0,2,,,,,0,,,54,0
11010,note_on,,,,,0,0,2,,,,,0,,,50,0
11040,control_change,,,,,0,0,1,,,,,0,64,0,,
11040,note_on,,,,,0,0,1,,,,,0,,,66,65
11040,note_on,,,,,30,0,1,,,,,0,,,57,65
11155,set_tempo,,,,,240,1,0,,353148,,,,,,,
11160,note_on,,,,,120,0,1,,,,,0,,,73,59
11160,note_on,,,,,150,0,2,,,,,0,,,45,58
11160,control_change,,,,,0,0,1,,,,,0,64,96,,
11190,set_tempo,,,,,35,1,0,,355239,,,,,,,
11200,set_tempo,,,,,10,1,0,,356294,,,,,,,
11210,set_tempo,,,,,10,1,0,,357355,,,,,,,
11225,set_tempo,,,,,15,1,0,,358422,,,,,,,
11235,set_tempo,,,,,10,1,0,,359496,,,,,,,
11250,set_tempo,,,,,15,1,0,,360576,,,,,,,
11260,set_tempo,,,,,10,1,0,,361663,,,,,,,
11270,set_tempo,,,,,10,1,0,,362756,,,,,,,
11275,set_tempo,,,,,5,1,0,,363856,,,,,,,
11280,note_on,,,,,120,0,1,,,,,0,,,66,0
11280,control_change,,,,,0,0,1,,,,,0,64,0,,
11280,note_on,,,,,0,0,1,,,,,0,,,57,0
11280,note_on,,,,,0,0,1,,,,,0,,,57,43
11280,note_on,,,,,0,0,1,,,,,0,,,66,43
11325,note_on,,,,,0,0,1,,,,,0,,,57,0
11325,note_on,,,,,45,0,1,,,,,0,,,66,0
11340,note_on,,,,,15,0,1,,,,,0,,,59,49
11340,note_on,,,,,0,0,1,,,,,0,,,67,49
11345,set_tempo,,,,,70,1,0,,366076,,,,,,,
11375,set_tempo,,,,,30,1,0,,367197,,,,,,,
11385,note_on,,,,,45,0,1,,,,,0,,,67,0
11385,note_on,,,,,0,0,1,,,,,0,,,59,0
11400,note_on,,,,,15,0,1,,,,,0,,,55,53
11400,note_on,,,,,0,0,1,,,,,0,,,64,53
11405,set_tempo,,,,,30,1,0,,368324,,,,,,,
11415,set_tempo,,,,,10,1,0,,369458,,,,,,,
11450,set_tempo,,,,,35,1,0,,370599,,,,,,,
11470,set_tempo,,,,,20,1,0,,371747,,,,,,,
11480,set_tempo,,,,,10,1,0,,372902,,,,,,,
11490,set_tempo,,,,,10,1,0,,374064,,,,,,,
11500,set_tempo,,,,,10,1,0,,375234,,,,,,,
11510,set_tempo,,,,,10,1,0,,376411,,,,,,,
11520,control_change,,,,,0,0,1,,,,,0,64,95,,
11520,note_on,,,,,0,0,1,,,,,0,,,62,46
11520,note_on,,,,,0,0,1,,,,,0,,,54,46
11520,note_on,,,,,0,0,1,,,,,0,,,73,0
11520,note_on,,,,,0,0,1,,,,,0,,,74,46
11520,note_on,,,,,0,0,2,,,,,0,,,50,48
11520,note_on,,,,,0,0,1,,,,,0,,,55,0
11520,note_on,,,,,120,0,1,,,,,0,,,64,0
11520,note_on,,,,,360,0,2,,,,,0,,,45,0
11545,set_tempo,,,,,35,1,0,,377595,,,,,,,
11610,note_on,,,,,90,0,2,,,,,0,,,50,0
11610,note_on,,,,,90,0,1,,,,,0,,,62,0
11610,note_on,,,,,0,0,1,,,,,0,,,54,0
11640,note_on,,,,,30,0,2,,,,,0,,,62,45
11710,control_change,,,,,100,0,1,,,,,0,64,0,,
11710,set_tempo,,,,,165,1,0,,376411,,,,,,,
11725,set_tempo,,,,,15,1,0,,375234,,,,,,,
11730,note_on,,,,,20,0,1,,,,,0,,,74,0
11755,set_tempo,,,,,30,1,0,,372902,,,,,,,
11760,note_on,,,,,30,0,1,,,,,0,,,69,65
11760,note_on,,,,,120,0,2,,,,,0,,,62,0
11760,note_on,,,,,0,0,2,,,,,0,,,66,41
11760,note_on,,,,,0,0,1,,,,,0,,,81,65
11785,set_tempo,,,,,30,1,0,,371747,,,,,,,
11815,set_tempo,,,,,30,1,0,,369458,,,,,,,
11825,set_tempo,,,,,10,1,0,,368324,,,,,,,
11835,set_tempo,,,,,10,1,0,,366076,,,,,,,
11840,set_tempo,,,,,5,1,0,,364963,,,,,,,
11845,set_tempo,,,,,5,1,0,,363856,,,,,,,
11850,note_on,,,,,90,0,2,,,,,0,,,66,0
11860,set_tempo,,,,,15,1,0,,357355,,,,,,,
11870,set_tempo,,,,,10,1,0,,351082,,,,,,,
11875,set_tempo,,,,,5,1,0,,351082,,,,,,,
11880,note_on,,,,,30,0,2,,,,,0,,,57,48
11880,control_change,,,,,120,0,1,,,,,0,64,96,,
11945,set_tempo,,,,,70,1,0,,352112,,,,,,,
11950,set_tempo,,,,,5,1,0,,353148,,,,,,,
11955,set_tempo,,,,,5,1,0,,354191,,,,,,,
11965,set_tempo,,,,,10,1,0,,355239,,,,,,,
11975,set_tempo,,,,,10,1,0,,356294,,,,,,,
11985,set_tempo,,,,,10,1,0,,357355,,,,,,,
12000,note_on,,,,,0,0,1,,,,,0,,,69,46
12000,note_on,,,,,0,0,1,,,,,0,,,69,0
12000,note_on,,,,,120,0,1,,,,,0,,,81,0
12000,note_on,,,,,120,0,2,,,,,0,,,61,45
12000,note_on,,,,,0,0,1,,,,,0,,,81,46
12000,set_tempo,,,,,15,1,0,,358422,,,,,,,
12005,set_tempo,,,,,5,1,0,,359496,,,,,,,
12020,set_tempo,,,,,15,1,0,,360576,,,,,,,
12030,set_tempo,,,,,10,1,0,,361663,,,,,,,
12045,note_on,,,,,0,0,1,,,,,0,,,69,0
12045,note_on,,,,,45,0,1,,,,,0,,,81,0
12045,set_tempo,,,,,15,1,0,,362756,,,,,,,
12055,set_tempo,,,,,10,1,0,,363856,,,,,,,
12060,set_tempo,,,,,5,1,0,,364963,,,,,,,
12060,note_on,,,,,15,0,1,,,,,0,,,71,47
12060,note_on,,,,,0,0,1,,,,,0,,,83,47
12065,control_change,,,,,5,0,1,,,,,0,64,0,,
12080,set_tempo,,,,,20,1,0,,366076,,,,,,,
12105,note_on,,,,,0,0,1,,,,,0,,,71,0
12105,note_on,,,,,40,0,1,,,,,0,,,83,0
12105,set_tempo,,,,,25,1,0,,367197,,,,,,,
12120,note_on,,,,,0,0,2,,,,,0,,,64,41
12120,note_on,,,,,120,0,2,,,,,0,,,61,0
12120,note_on,,,,,15,0,1,,,,,0,,,79,55
12120,note_on,,,,,0,0,1,,,,,0,,,67,55
12210,note_on,,,,,90,0,2,,,,,0,,,64,0
12210,note_on,,,,,0,0,1,,,,,0,,,79,0
12210,note_on,,,,,90,0,1,,,,,0,,,67,0
12240,note_on,,,,,0,0,1,,,,,0,,,78,46
12240,control_change,,,,,0,0,1,,,,,0,64,96,,
12240,note_on,,,,,0,0,2,,,,,0,,,62,39
12240,note_on,,,,,30,0,2,,,,,0,,,57,0
12240,note_on,,,,,0,0,2,,,,,0,,,50,39
12240,note_on,,,,,30,0,1,,,,,0,,,66,46
12255,set_tempo,,,,,150,1,0,,364963,,,,,,,
12260,set_tempo,,,,,5,1,0,,362756,,,,,,,
12275,set_tempo,,,,,15,1,0,,359496,,,,,,,
12285,set_tempo,,,,,10,1,0,,358422,,,,,,,
12295,set_tempo,,,,,10,1,0,,356294,,,,,,,
12310,set_tempo,,,,,15,1,0,,355239,,,,,,,
12345,set_tempo,,,,,35,1,0,,356294,,,,,,,
12360,note_on,,,,,120,0,2,,,,,0,,,62,0
12360,set_tempo,,,,,15,1,0,,357355,,,,,,,
12360,note_on,,,,,0,0,2,,,,,0,,,54,35
12390,set_tempo,,,,,30,1,0,,358422,,,,,,,
12395,set_tempo,,,,,5,1,0,,359496,,,,,,,
12405,set_tempo,,,,,10,1,0,,360576,,,,,,,
12415,set_tempo,,,,,10,1,0,,361663,,,,,,,
12420,set_tempo,,,,,5,1,0,,362756,,,,,,,
12425,control_change,,,,,185,0,1,,,,,0,64,0,,
12450,note_on,,,,,25,0,1,,,,,0,,,78,0
12450,set_tempo,,,,,30,1,0,,364963,,,,,,,
12450,note_on,,,,,0,0,2,,,,,0,,,50,0
12450,note_on,,,,,90,0,2,,,,,0,,,54,0
12450,note_on,,,,,0,0,1,,,,,0,,,66,0
12465,set_tempo,,,,,15,1,0,,366076,,,,,,,
12470,set_tempo,,,,,5,1,0,,367197,,,,,,,
12475,set_tempo,,,,,5,1,0,,353148,,,,,,,
12480,note_on,,,,,30,0,1,,,,,0,,,57,53
12480,note_on,,,,,0,0,1,,,,,0,,,66,53
12480,control_change,,,,,0,0,1,,,,,0,64,0,,
12490,set_tempo,,,,,15,1,0,,355239,,,,,,,
12530,set_tempo,,,,,40,1,0,,356294,,,,,,,
12540,set_tempo,,,,,10,1,0,,357355,,,,,,,
12570,set_tempo,,,,,30,1,0,,358422,,,,,,,
12580,set_tempo,,,,,10,1,0,,364963,,,,,,,
12590,set_tempo,,,,,10,1,0,,366076,,,,,,,
12600,note_on,,,,,120,0,1,,,,,0,,,73,45
12600,control_change,,,,,0,0,1,,,,,0,64,96,,
12600,note_on,,,,,150,0,2,,,,,0,,,45,44
12610,set_tempo,,,,,20,1,0,,367197,,,,,,,
12620,set_tempo,,,,,10,1,0,,368324,,,,,,,
12630,set_tempo,,,,,10,1,0,,370599,,,,,,,
12690,set_tempo,,,,,60,1,0,,375234,,,,,,,
12710,set_tempo,,,,,20,1,0,,376411,,,,,,,
12720,control_change,,,,,0,0,1,,,,,0,64,0,,
12720,note_on,,,,,0,0,1,,,,,0,,,66,33
12720,note_on,,,,,0,0,1,,,,,0,,,57,33
12720,note_on,,,,,0,0,1,,,,,0,,,57,0
12720,note_on,,,,,120,0,1,,,,,0,,,66,0
12730,set_tempo,,,,,20,1,0,,378787,,,,,,,
12740,set_tempo,,,,,10,1,0,,379987,,,,,,,
12765,note_on,,,,,45,0,1,,,,,0,,,66,0
12765,note_on,,,,,0,0,1,,,,,0,,,57,0
12780,note_on,,,,,0,0,1,,,,,0,,,67,36
12780,note_on,,,,,15,0,1,,,,,0,,,59,36
12800,set_tempo,,,,,60,1,0,,387346,,,,,,,
12820,set_tempo,,,,,20,1,0,,389863,,,,,,,
12825,note_on,,,,,0,0,1,,,,,0,,,59,0
12825,note_on,,,,,45,0,1,,,,,0,,,67,0
12840,set_tempo,,,,,20,1,0,,391134,,,,,,,
12840,note_on,,,,,0,0,1,,,,,0,,,64,39
12840,note_on,,,,,15,0,1,,,,,0,,,55,39
12860,set_tempo,,,,,20,1,0,,392413,,,,,,,
12870,set_tempo,,,,,10,1,0,,393700,,,,,,,
12880,set_tempo,,,,,10,1,0,,394996,,,,,,,
12890,set_tempo,,,,,10,1,0,,397614,,,,,,,
12950,set_tempo,,,,,60,1,0,,400266,,,,,,,
12960,note_on,,,,,360,0,2,,,,,0,,,45,0
12960,note_on,,,,,0,0,2,,,,,0,,,50,39
12960,control_change,,,,,0,0,1,,,,,0,64,95,,
12960,note_on,,,,,0,0,1,,,,,0,,,74,35
12960,note_on,,,,,120,0,1,,,,,0,,,64,0
12960,note_on,,,,,0,0,1,,,,,0,,,54,35
12960,note_on,,,,,0,0,1,,,,,0,,,73,0
12960,note_on,,,,,0,0,1,,,,,0,,,55,0
12960,note_on,,,,,0,0,1,,,,,0,,,62,35
13010,set_tempo,,,,,60,1,0,,402955,,,,,,,
13020,set_tempo,,,,,10,1,0,,405679,,,,,,,
13080,set_tempo,,,,,60,1,0,,408441,,,,,,,
13090,set_tempo,,,,,10,1,0,,409836,,,,,,,
13100,set_tempo,,,,,10,1,0,,411240,,,,,,,
13120,set_tempo,,,,,20,1,0,,741656,,,,,,,
13170,control_change,,,,,0,0,1,,,,,0,64,0,,
13170,note_on,,,,,0,0,1,,,,,0,,,54,0
13170,note_on,,,,,0,0,1,,,,,0,,,62,0
13170,note_on,,,,,210,0,1,,,,,0,,,74,0
13170,note_on,,,,,210,0,2,,,,,0,,,50,0
13190,set_tempo,,,,,70,1,0,,402955,,,,,,,
13200,note_on,,,,,30,0,1,,,,,0,,,74,113
13200,note_on,,,,,0,0,1,,,,,0,,,62,113
13200,note_on,,,,,30,0,2,,,,,0,,,50,113
13200,note_on,,,,,0,0,2,,,,,0,,,38,113
13305,note_on,,,,,0,0,2,,,,,0,,,50,0
13305,note_on,,,,,0,0,1,,,,,0,,,74,0
13305,note_on,,,,,105,0,1,,,,,0,,,62,0
13305,note_on,,,,,105,0,2,,,,,0,,,38,0
13320,note_on,,,,,15,0,2,,,,,0,,,38,120
13320,note_on,,,,,0,0,1,,,,,0,,,74,120
13320,note_on,,,,,15,0,1,,,,,0,,,62,120
13320,note_on,,,,,0,0,2,,,,,0,,,50,120
13320,set_tempo,,,,,130,1,0,,355239,,,,,,,
13330,set_tempo,,,,,10,1,0,,391134,,,,,,,
13350,set_tempo,,,,,20,1,0,,383631,,,,,,,
13370,set_tempo,,,,,20,1,0,,381194,,,,,,,
13380,set_tempo,,,,,10,1,0,,378787,,,,,,,
13400,set_tempo,,,,,20,1,0,,376411,,,,,,,
13440,set_tempo,,,,,40,1,0,,374064,,,,,,,
13440,note_on,,,,,0,0,2,,,,,0,,,50,100
13440,note_on,,,,,0,0,1,,,,,0,,,74,100
13440,note_on,,,,,0,0,1,,,,,0,,,62,100
13440,note_on,,,,,0,0,1,,,,,0,,,62,0
13440,note_on,,,,,120,0,1,,,,,0,,,74,0
13440,note_on,,,,,0,0,2,,,,,0,,,38,100
13440,note_on,,,,,120,0,2,,,,,0,,,50,0
13440,note_on,,,,,0,0,2,,,,,0,,,38,0
13460,set_tempo,,,,,20,1,0,,371747,,,,,,,
13480,set_tempo,,,,,20,1,0,,370599,,,,,,,
13485,note_on,,,,,0,0,2,,,,,0,,,38,0
13485,note_on,,,,,45,0,2,,,,,0,,,50,0
13485,note_on,,,,,0,0,1,,,,,0,,,62,0
13485,note_on,,,,,45,0,1,,,,,0,,,74,0
13500,note_on,,,,,15,0,2,,,,,0,,,38,105
13500,note_on,,,,,0,0,2,,,,,0,,,50,105
13500,note_on,,,,,0,0,1,,,,,0,,,74,105
13500,note_on,,,,,15,0,1,,,,,0,,,62,105
13500,set_tempo,,,,,20,1,0,,368324,,,,,,,
13545,note_on,,,,,0,0,1,,,,,0,,,62,0
13545,note_on,,,,,45,0,2,,,,,0,,,50,0
13545,note_on,,,,,0,0,2,,,,,0,,,38,0
13545,note_on,,,,,45,0,1,,,,,0,,,74,0
13560,note_on,,,,,0,0,1,,,,,0,,,74,110
13560,note_on,,,,,15,0,2,,,,,0,,,38,110
13560,note_on,,,,,0,0,2,,,,,0,,,50,110
13560,set_tempo,,,,,60,1,0,,367197,,,,,,,
13560,note_on,,,,,15,0,1,,,,,0,,,62,110
13570,set_tempo,,,,,10,1,0,,364963,,,,,,,
13605,note_on,,,,,0,0,2,,,,,0,,,38,0
13605,note_on,,,,,45,0,2,,,,,0,,,50,0
13605,note_on,,,,,0,0,1,,,,,0,,,62,0
13605,note_on,,,,,45,0,1,,,,,0,,,74,0
13620,note_on,,,,,15,0,2,,,,,0,,,38,118
13620,note_on,,,,,0,0,2,,,,,0,,,50,118
13620,note_on,,,,,0,0,1,,,,,0,,,74,118
13620,note_on,,,,,15,0,1,,,,,0,,,62,118
13630,set_tempo,,,,,60,1,0,,363856,,,,,,,
13640,set_tempo,,,,,10,1,0,,362756,,,,,,,
13665,note_on,,,,,45,0,2,,,,,0,,,50,0
13665,note_on,,,,,0,0,2,,,,,0,,,38,0
13665,note_on,,,,,0,0,1,,,,,0,,,74,119
13665,note_on,,,,,0,0,1,,,,,0,,,62,0
13665,note_on,,,,,45,0,1,,,,,0,,,74,0
13670,set_tempo,,,,,30,1,0,,594648,,,,,,,
13680,note_on,,,,,15,0,1,,,,,0,,,74,0
13680,note_on,,,,,0,0,1,,,,,0,,,62,122
13680,note_on,,,,,0,0,1,,,,,0,,,72,122
13680,note_on,,,,,0,0,1,,,,,0,,,74,122
13680,note_on,,,,,0,0,2,,,,,0,,,50,122
13680,note_on,,,,,0,0,2,,,,,0,,,48,122
13680,note_on,,,,,15,0,2,,,,,0,,,38,122
13680,set_tempo,,,,,10,1,0,,362756,,,,,,,
13740,set_tempo,,,,,60,1,0,,360576,,,,,,,
13780,set_tempo,,,,,40,1,0,,361663,,,,,,,
13785,note_on,,,,,105,0,1,,,,,0,,,74,0
13785,note_on,,,,,0,0,2,,,,,0,,,38,0
13785,note_on,,,,,0,0,2,,,,,0,,,48,0
13785,note_on,,,,,105,0,2,,,,,0,,,50,0
13785,note_on,,,,,0,0,1,,,,,0,,,72,0
13785,note_on,,,,,0,0,1,,,,,0,,,62,0
13800,note_on,,,,,15,0,2,,,,,0,,,38,115
13800,note_on,,,,,0,0,1,,,,,0,,,74,115
13800,note_on,,,,,0,0,2,,,,,0,,,48,115
13800,note_on,,,,,0,0,2,,,,,0,,,50,115
13800,note_on,,,,,15,0,1,,,,,0,,,62,115
13800,note_on,,,,,0,0,1,,,,,0,,,72,115
13905,note_on,,,,,0,0,1,,,,,0,,,72,0
13905,note_on,,,,,105,0,1,,,,,0,,,74,0
13905,note_on,,,,,0,0,2,,,,,0,,,38,0
13905,note_on,,,,,0,0,2,,,,,0,,,48,0
13905,note_on,,,,,105,0,2,,,,,0,,,50,0
13905,note_on,,,,,0,0,1,,,,,0,,,62,0
13920,set_tempo,,,,,140,1,0,,362756,,,,,,,
13920,note_on,,,,,15,0,1,,,,,0,,,62,105
13920,note_on,,,,,0,0,2,,,,,0,,,48,105
13920,note_on,,,,,0,0,2,,,,,0,,,50,105
13920,note_on,,,,,0,0,1,,,,,0,,,72,105
13920,note_on,,,,,0,0,1,,,,,0,,,74,105
13920,note_on,,,,,15,0,2,,,,,0,,,38,105
13940,set_tempo,,,,,20,1,0,,363856,,,,,,,
14000,set_tempo,,,,,60,1,0,,364963,,,,,,,
14025,note_on,,,,,105,0,2,,,,,0,,,50,0
14025,note_on,,,,,0,0,2,,,,,0,,,48,0
14025,note_on,,,,,0,0,2,,,,,0,,,38,0
14025,note_on,,,,,105,0,1,,,,,0,,,74,0
14025,note_on,,,,,0,0,1,,,,,0,,,72,119
14025,note_on,,,,,0,0,1,,,,,0,,,62,0
14025,note_on,,,,,0,0,1,,,,,0,,,72,0
14030,set_tempo,,,,,30,1,0,,600600,,,,,,,
14040,set_tempo,,,,,10,1,0,,366076,,,,,,,
14040,note_on,,,,,15,0,1,,,,,0,,,72,0
14040,note_on,,,,,0,0,1,,,,,0,,,70,101
14040,note_on,,,,,0,0,1,,,,,0,,,74,101
14040,note_on,,,,,0,0,2,,,,,0,,,50,101
14040,note_on,,,,,0,0,2,,,,,0,,,46,101
14040,note_on,,,,,15,0,2,,,,,0,,,38,101
14040,note_on,,,,,0,0,1,,,,,0,,,62,101
14080,set_tempo,,,,,40,1,0,,366076,,,,,,,
14140,set_tempo,,,,,60,1,0,,367197,,,,,,,
14145,note_on,,,,,0,0,2,,,,,0,,,46,0
14145,note_on,,,,,105,0,1,,,,,0,,,74,0
14145,note_on,,,,,0,0,1,,,,,0,,,70,0
14145,note_on,,,,,0,0,1,,,,,0,,,62,0
14145,note_on,,,,,105,0,2,,,,,0,,,50,0
14145,note_on,,,,,0,0,2,,,,,0,,,38,0
14145,note_on,,,,,0,0,1,,,,,0,,,70,119
14150,set_tempo,,,,,10,1,0,,597609,,,,,,,
14160,note_on,,,,,0,0,1,,,,,0,,,74,104
14160,note_on,,,,,0,0,1,,,,,0,,,69,104
14160,note_on,,,,,0,0,1,,,,,0,,,62,104
14160,note_on,,,,,15,0,1,,,,,0,,,70,0
14160,set_tempo,,,,,10,1,0,,367197,,,,,,,
14160,note_on,,,,,0,0,2,,,,,0,,,50,104
14160,note_on,,,,,0,0,2,,,,,0,,,45,104
14160,note_on,,,,,15,0,2,,,,,0,,,38,104
14265,note_on,,,,,0,0,1,,,,,0,,,69,119
14265,note_on,,,,,105,0,2,,,,,0,,,50,0
14265,note_on,,,,,105,0,1,,,,,0,,,74,0
14265,note_on,,,,,0,0,1,,,,,0,,,69,0
14265,note_on,,,,,0,0,1,,,,,0,,,62,0
14265,note_on,,,,,0,0,2,,,,,0,,,38,0
14265,note_on,,,,,0,0,2,,,,,0,,,45,0
14270,set_tempo,,,,,110,1,0,,594648,,,,,,,
14280,note_on,,,,,0,0,1,,,,,0,,,74,108
14280,note_on,,,,,0,0,1,,,,,0,,,67,108
14280,note_on,,,,,0,0,1,,,,,0,,,62,108
14280,note_on,,,,,15,0,1,,,,,0,,,69,0
14280,set_tempo,,,,,10,1,0,,367197,,,,,,,
14280,note_on,,,,,15,0,2,,,,,0,,,38,108
14280,note_on,,,,,0,0,2,,,,,0,,,43,108
14280,note_on,,,,,0,0,2,,,,,0,,,50,108
14320,set_tempo,,,,,40,1,0,,370599,,,,,,,
14385,note_on,,,,,105,0,1,,,,,0,,,74,0
14385,note_on,,,,,0,0,2,,,,,0,,,43,0
14385,note_on,,,,,0,0,1,,,,,0,,,67,0
14385,note_on,,,,,0,0,2,,,,,0,,,38,0
14385,note_on,,,,,0,0,1,,,,,0,,,67,119
14385,note_on,,,,,105,0,2,,,,,0,,,50,0
14385,note_on,,,,,0,0,1,,,,,0,,,62,0
14390,set_tempo,,,,,70,1,0,,600600,,,,,,,
14400,note_on,,,,,15,0,2,,,,,0,,,38,113
14400,note_on,,,,,0,0,2,,,,,0,,,41,113
14400,note_on,,,,,0,0,2,,,,,0,,,50,113
14400,set_tempo,,,,,10,1,0,,372902,,,,,,,
14400,note_on,,,,,0,0,1,,,,,0,,,74,113
14400,note_on,,,,,0,0,1,,,,,0,,,65,113
14400,note_on,,,,,15,0,1,,,,,0,,,67,0
14410,set_tempo,,,,,10,1,0,,371747,,,,,,,
14505,note_on,,,,,0,0,2,,,,,0,,,38,0
14505,note_on,,,,,105,0,2,,,,,0,,,50,0
14505,note_on,,,,,0,0,2,,,,,0,,,41,0
14505,note_on,,,,,0,0,1,,,,,0,,,65,119
14505,note_on,,,,,105,0,1,,,,,0,,,74,0
14505,note_on,,,,,0,0,1,,,,,0,,,65,0
14510,set_tempo,,,,,100,1,0,,600600,,,,,,,
14520,note_on,,,,,0,0,1,,,,,0,,,64,119
14520,note_on,,,,,15,0,1,,,,,0,,,65,0
14520,note_on,,,,,0,0,2,,,,,0,,,50,119
14520,note_on,,,,,0,0,2,,,,,0,,,40,119
14520,note_on,,,,,15,0,2,,,,,0,,,38,119
14520,set_tempo,,,,,10,1,0,,371747,,,,,,,
14520,note_on,,,,,0,0,1,,,,,0,,,74,119
14625,note_on,,,,,105,0,1,,,,,0,,,74,0
14625,note_on,,,,,0,0,2,,,,,0,,,40,0
14625,note_on,,,,,105,0,2,,,,,0,,,50,0
14625,note_on,,,,,0,0,1,,,,,0,,,64,0
14625,note_on,,,,,0,0,1,,,,,0,,,64,119
14625,note_on,,,,,0,0,2,,,,,0,,,38,0
14630,set_tempo,,,,,110,1,0,,600600,,,,,,,
14640,note_on,,,,,0,0,1,,,,,0,,,74,127
14640,note_on,,,,,15,0,1,,,,,0,,,64,0
14640,note_on,,,,,15,0,2,,,,,0,,,38,127
14640,note_on,,,,,0,0,2,,,,,0,,,50,127
14640,set_tempo,,,,,10,1,0,,372902,,,,,,,
14640,note_on,,,,,0,0,1,,,,,0,,,62,127
14730,set_tempo,,,,,90,1,0,,428877,,,,,,,
14745,note_on,,,,,105,0,2,,,,,0,,,50,0
14745,note_on,,,,,0,0,1,,,,,0,,,62,0
14745,note_on,,,,,105,0,1,,,,,0,,,74,0
14745,note_on,,,,,0,0,2,,,,,0,,,38,0
14750,set_tempo,,,,,20,1,0,,597609,,,,,,,
14760,note_on,,,,,15,0,1,,,,,0,,,62,125
14760,note_on,,,,,15,0,2,,,,,0,,,34,122
14760,note_on,,,,,0,0,1,,,,,0,,,68,125
14760,note_on,,,,,0,0,1,,,,,0,,,74,125
14760,control_change,,,,,0,0,1,,,,,0,64,95,,
14760,set_tempo,,,,,10,1,0,,359496,,,,,,,
14760,note_on,,,,,0,0,2,,,,,0,,,46,122
14770,set_tempo,,,,,10,1,0,,371747,,,,,,,
14800,set_tempo,,,,,30,1,0,,378787,,,,,,,
14810,set_tempo,,,,,10,1,0,,381194,,,,,,,
14820,set_tempo,,,,,10,1,0,,388601,,,,,,,
14830,set_tempo,,,,,10,1,0,,389863,,,,,,,
14850,set_tempo,,,,,20,1,0,,397614,,,,,,,
14850,note_on,,,,,90,0,2,,,,,0,,,46,0
14850,note_on,,,,,0,0,2,,,,,0,,,34,0
14850,note_on,,,,,0,0,1,,,,,0,,,62,0
14850,note_on,,,,,0,0,1,,,,,0,,,68,0
14850,note_on,,,,,90,0,1,,,,,0,,,74,0
14860,set_tempo,,,,,10,1,0,,407055,,,,,,,
14870,set_tempo,,,,,10,1,0,,409836,,,,,,,
14880,set_tempo,,,,,10,1,0,,412654,,,,,,,
14880,note_on,,,,,30,0,2,,,,,0,,,34,122
14880,note_on,,,,,0,0,1,,,,,0,,,74,123
14880,note_on,,,,,0,0,1,,,,,0,,,68,123
14880,note_on,,,,,30,0,1,,,,,0,,,62,123
14880,note_on,,,,,0,0,2,,,,,0,,,46,122
14890,set_tempo,,,,,10,1,0,,419874,,,,,,,
14900,set_tempo,,,,,10,1,0,,425833,,,,,,,
14910,set_tempo,,,,,10,1,0,,430416,,,,,,,
14920,set_tempo,,,,,10,1,0,,439882,,,,,,,
14925,note_on,,,,,0,0,1,,,,,0,,,62,0
14925,note_on,,,,,0,0,1,,,,,0,,,68,0
14925,note_on,,,,,45,0,1,,,,,0,,,74,0
14925,note_on,,,,,45,0,2,,,,,0,,,46,0
14925,note_on,,,,,0,0,2,,,,,0,,,34,0
14930,set_tempo,,,,,10,1,0,,446428,,,,,,,
14940,note_on,,,,,0,0,1,,,,,0,,,74,127
14940,note_on,,,,,0,0,1,,,,,0,,,68,127
14940,note_on,,,,,15,0,1,,,,,0,,,62,127
14940,note_on,,,,,0,0,2,,,,,0,,,46,125
14940,note_on,,,,,15,0,2,,,,,0,,,34,125
14940,set_tempo,,,,,10,1,0,,454890,,,,,,,
14950,set_tempo,,,,,10,1,0,,461893,,,,,,,
14960,set_tempo,,,,,10,1,0,,472813,,,,,,,
14970,set_tempo,,,,,10,1,0,,476568,,,,,,,
14980,set_tempo,,,,,10,1,0,,492206,,,,,,,
14985,note_on,,,,,0,0,2,,,,,0,,,34,0
14985,note_on,,,,,45,0,2,,,,,0,,,46,0
14985,note_on,,,,,0,0,1,,,,,0,,,62,0
14985,note_on,,,,,45,0,1,,,,,0,,,74,0
14985,note_on,,,,,0,0,1,,,,,0,,,68,0
14990,set_tempo,,,,,10,1,0,,498338,,,,,,,
15000,set_tempo,,,,,10,1,0,,511073,,,,,,,
15000,note_on,,,,,15,0,2,,,,,0,,,34,126
15000,note_on,,,,,0,0,2,,,,,0,,,46,126
15000,note_on,,,,,15,0,1,,,,,0,,,62,127
15000,note_on,,,,,0,0,1,,,,,0,,,68,127
15000,note_on,,,,,0,0,1,,,,,0,,,74,127
15010,set_tempo,,,,,10,1,0,,515463,,,,,,,
15020,set_tempo,,,,,10,1,0,,513259,,,,,,,
15030,set_tempo,,,,,10,1,0,,524475,,,,,,,
15040,set_tempo,,,,,10,1,0,,553505,,,,,,,
15045,note_on,,,,,0,0,2,,,,,0,,,34,0
15045,note_on,,,,,45,0,2,,,,,0,,,46,0
15045,note_on,,,,,45,0,1,,,,,0,,,74,0
15045,note_on,,,,,0,0,1,,,,,0,,,68,0
15045,note_on,,,,,0,0,1,,,,,0,,,62,0
15050,set_tempo,,,,,10,1,0,,638977,,,,,,,
15060,note_on,,,,,15,0,1,,,,,0,,,62,127
15060,note_on,,,,,0,0,1,,,,,0,,,68,127
15060,note_on,,,,,0,0,1,,,,,0,,,74,127
15060,note_on,,,,,15,0,2,,,,,0,,,34,127
15060,note_on,,,,,0,0,2,,,,,0,,,46,127
15060,set_tempo,,,,,10,1,0,,635593,,,,,,,
15100,set_tempo,,,,,40,1,0,,864553,,,,,,,
15105,note_on,,,,,45,0,1,,,,,0,,,74,0
15105,note_on,,,,,0,0,1,,,,,0,,,68,0
15105,note_on,,,,,0,0,1,,,,,0,,,62,0
15105,note_on,,,,,45,0,2,,,,,0,,,46,0
15105,note_on,,,,,0,0,2,,,,,0,,,34,0
15110,control_change,,,,,5,0,1,,,,,0,64,0,,
15120,note_on,,,,,0,0,1,,,,,0,,,69,127
15120,note_on,,,,,10,0,1,,,,,0,,,64,127
15120,note_on,,,,,15,0,2,,,,,0,,,33,127
15120,note_on,,,,,0,0,2,,,,,0,,,45,127
15120,note_on,,,,,0,0,1,,,,,0,,,73,127
15120,control_change,,,,,0,0,1,,,,,0,64,96,,
15120,note_on,,,,,0,0,1,,,,,0,,,76,127
15130,set_tempo,,,,,30,1,0,,597609,,,,,,,
15330,set_tempo,,,,,200,1,0,,352112,,,,,,,
15390,note_on,,,,,270,0,1,,,,,0,,,76,0
15390,control_change,,,,,0,0,1,,,,,0,64,0,,
15390,note_on,,,,,0,0,1,,,,,0,,,73,0
15390,note_on,,,,,0,0,1,,,,,0,,,69,0
15390,note_on,,,,,0,0,1,,,,,0,,,64,0
15390,note_on,,,,,270,0,2,,,,,0,,,45,0
15390,note_on,,,,,0,0,2,,,,,0,,,33,0
15430,set_tempo,,,,,100,1,0,,790513,,,,,,,
15440,set_tempo,,,,,10,1,0,,795755,,,,,,,
15460,set_tempo,,,,,20,1,0,,801068,,,,,,,
15480,note_on,,,,,90,0,2,,,,,0,,,46,56
15480,note_on,,,,,0,0,2,,,,,0,,,50,56
15480,note_on,,,,,0,0,1,,,,,0,,,65,55
15480,control_change,,,,,0,0,1,,,,,0,64,95,,
15480,set_tempo,,,,,20,1,0,,375234,,,,,,,
15480,note_on,,,,,90,0,1,,,,,0,,,56,55
15490,set_tempo,,,,,10,1,0,,376411,,,,,,,
15520,set_tempo,,,,,30,1,0,,386100,,,,,,,
15580,set_tempo,,,,,60,1,0,,393700,,,,,,,
15590,set_tempo,,,,,10,1,0,,394996,,,,,,,
15595,control_change,,,,,115,0,1,,,,,0,64,0,,
15600,note_on,,,,,0,0,1,,,,,0,,,64,45
15600,note_on,,,,,0,0,1,,,,,0,,,56,0
15600,note_on,,,,,5,0,1,,,,,0,,,65,0
15600,note_on,,,,,120,0,2,,,,,0,,,50,0
15600,note_on,,,,,0,0,2,,,,,0,,,46,0
15600,note_on,,,,,0,0,2,,,,,0,,,52,48
15600,note_on,,,,,0,0,2,,,,,0,,,46,48
15600,note_on,,,,,0,0,1,,,,,0,,,56,45
15620,set_tempo,,,,,30,1,0,,397614,,,,,,,
15630,set_tempo,,,,,10,1,0,,400266,,,,,,,
15640,set_tempo,,,,,10,1,0,,402955,,,,,,,
15645,note_on,,,,,45,0,1,,,,,0,,,64,0
15645,note_on,,,,,0,0,2,,,,,0,,,52,0
15645,note_on,,,,,45,0,2,,,,,0,,,46,0
15645,note_on,,,,,0,0,1,,,,,0,,,56,0
15650,set_tempo,,,,,10,1,0,,404312,,,,,,,
15660,note_on,,,,,0,0,2,,,,,0,,,46,46
15660,note_on,,,,,15,0,1,,,,,0,,,56,43
15660,note_on,,,,,15,0,2,,,,,0,,,52,46
15660,note_on,,,,,0,0,1,,,,,0,,,64,43
15670,set_tempo,,,,,20,1,0,,405679,,,,,,,
15680,set_tempo,,,,,10,1,0,,408441,,,,,,,
15700,set_tempo,,,,,20,1,0,,411240,,,,,,,
15705,note_on,,,,,45,0,1,,,,,0,,,64,0
15705,note_on,,,,,0,0,1,,,,,0,,,56,0
15705,note_on,,,,,45,0,2,,,,,0,,,46,0
15705,note_on,,,,,0,0,2,,,,,0,,,52,0
15720,note_on,,,,,15,0,1,,,,,0,,,56,37
15720,note_on,,,,,15,0,2,,,,,0,,,53,42
15720,note_on,,,,,0,0,2,,,,,0,,,46,42
15720,set_tempo,,,,,20,1,0,,422832,,,,,,,
15720,note_on,,,,,0,0,1,,,,,0,,,62,37
15740,set_tempo,,,,,20,1,0,,425833,,,,,,,
15750,set_tempo,,,,,10,1,0,,430416,,,,,,,
15760,set_tempo,,,,,10,1,0,,433526,,,,,,,
15765,note_on,,,,,45,0,1,,,,,0,,,62,0
15765,note_on,,,,,0,0,1,,,,,0,,,56,0
15765,note_on,,,,,0,0,2,,,,,0,,,53,0
15765,note_on,,,,,45,0,2,,,,,0,,,46,0
15780,note_on,,,,,15,0,1,,,,,0,,,56,34
15780,note_on,,,,,0,0,1,,,,,0,,,62,34
15780,note_on,,,,,15,0,2,,,,,0,,,53,39
15780,note_on,,,,,0,0,2,,,,,0,,,46,39
15820,set_tempo,,,,,60,1,0,,436681,,,,,,,
15825,note_on,,,,,0,0,2,,,,,0,,,53,0
15825,note_on,,,,,45,0,2,,,,,0,,,46,0
15825,note_on,,,,,0,0,1,,,,,0,,,56,0
15825,note_on,,,,,45,0,1,,,,,0,,,62,0
15830,set_tempo,,,,,10,1,0,,446428,,,,,,,
15840,note_on,,,,,15,0,2,,,,,0,,,45,34
15840,note_on,,,,,0,0,2,,,,,0,,,49,34
15840,control_change,,,,,0,0,1,,,,,0,64,95,,
15840,note_on,,,,,0,0,1,,,,,0,,,64,32
15840,note_on,,,,,15,0,1,,,,,0,,,57,32
15850,set_tempo,,,,,20,1,0,,448095,,,,,,,
15870,set_tempo,,,,,20,1,0,,458365,,,,,,,
15930,set_tempo,,,,,60,1,0,,472813,,,,,,,
15940,set_tempo,,,,,10,1,0,,476568,,,,,,,
15970,set_tempo,,,,,30,1,0,,480384,,,,,,,
15990,set_tempo,,,,,20,1,0,,484261,,,,,,,
16000,set_tempo,,,,,10,1,0,,488201,,,,,,,
16030,set_tempo,,,,,30,1,0,,490196,,,,,,,
16110,note_on,,,,,0,0,1,,,,,0,,,57,0
16110,note_on,,,,,270,0,2,,,,,0,,,49,0
16110,note_on,,,,,0,0,2,,,,,0,,,45,0
16110,note_on,,,,,270,0,1,,,,,0,,,64,0
16125,control_change,,,,,15,0,1,,,,,0,64,0,,
16170,set_tempo,,,,,140,1,0,,671140,,,,,,,
16170,control_change,,,,,45,0,1,,,,,0,64,95,,
16170,note_on,,,,,60,0,2,,,,,0,,,49,80
16180,note_on,,,,,10,0,2,,,,,0,,,55,80
16190,note_on,,,,,10,0,2,,,,,0,,,58,80
16200,note_on,,,,,30,0,1,,,,,0,,,67,90
16200,note_on,,,,,0,0,1,,,,,0,,,70,90
16200,note_on,,,,,0,0,1,,,,,0,,,76,90
16200,note_on,,,,,10,0,2,,,,,0,,,64,80
16210,set_tempo,,,,,40,1,0,,353148,,,,,,,
16220,set_tempo,,,,,10,1,0,,376411,,,,,,,
16260,note_on,,,,,60,0,2,,,,,0,,,49,0
16260,set_tempo,,,,,40,1,0,,375234,,,,,,,
16270,note_on,,,,,10,0,2,,,,,0,,,55,0
16270,set_tempo,,,,,10,1,0,,374064,,,,,,,
16280,note_on,,,,,10,0,2,,,,,0,,,58,0
16290,note_on,,,,,0,0,1,,,,,0,,,70,0
16290,note_on,,,,,90,0,1,,,,,0,,,76,0
16290,note_on,,,,,0,0,1,,,,,0,,,67,0
16290,note_on,,,,,10,0,2,,,,,0,,,64,0
16300,set_tempo,,,,,30,1,0,,372902,,,,,,,
16320,note_on,,,,,30,0,2,,,,,0,,,55,58
16320,note_on,,,,,0,0,1,,,,,0,,,76,58
16320,note_on,,,,,0,0,1,,,,,0,,,70,58
16320,set_tempo,,,,,20,1,0,,371747,,,,,,,
16320,note_on,,,,,30,0,1,,,,,0,,,67,58
16320,note_on,,,,,0,0,2,,,,,0,,,58,58
16320,note_on,,,,,0,0,2,,,,,0,,,64,58
16365,note_on,,,,,45,0,1,,,,,0,,,76,0
16365,note_on,,,,,0,0,1,,,,,0,,,70,0
16365,note_on,,,,,0,0,1,,,,,0,,,67,0
16365,note_on,,,,,0,0,2,,,,,0,,,58,0
16365,note_on,,,,,45,0,2,,,,,0,,,64,0
16365,note_on,,,,,0,0,2,,,,,0,,,55,0
16380,note_on,,,,,15,0,1,,,,,0,,,67,64
16380,note_on,,,,,0,0,1,,,,,0,,,70,64
16380,note_on,,,,,15,0,2,,,,,0,,,55,64
16380,set_tempo,,,,,60,1,0,,369458,,,,,,,
16380,note_on,,,,,0,0,2,,,,,0,,,64,64
16380,note_on,,,,,0,0,2,,,,,0,,,58,64
16380,note_on,,,,,0,0,1,,,,,0,,,76,64
16400,set_tempo,,,,,20,1,0,,368324,,,,,,,
16420,set_tempo,,,,,20,1,0,,367197,,,,,,,
16425,note_on,,,,,0,0,1,,,,,0,,,70,0
16425,note_on,,,,,0,0,1,,,,,0,,,67,0
16425,note_on,,,,,45,0,1,,,,,0,,,76,0
16425,note_on,,,,,0,0,2,,,,,0,,,55,0
16425,note_on,,,,,0,0,2,,,,,0,,,58,0
16425,note_on,,,,,45,0,2,,,,,0,,,64,0
16440,note_on,,,,,0,0,2,,,,,0,,,58,67
16440,note_on,,,,,15,0,1,,,,,0,,,67,67
16440,note_on,,,,,0,0,1,,,,,0,,,70,67
16440,note_on,,,,,0,0,2,,,,,0,,,64,67
16440,note_on,,,,,15,0,2,,,,,0,,,55,67
16440,note_on,,,,,0,0,1,,,,,0,,,76,67
16450,set_tempo,,,,,30,1,0,,366076,,,,,,,
16470,set_tempo,,,,,20,1,0,,363856,,,,,,,
16485,note_on,,,,,45,0,2,,,,,0,,,64,0
16485,note_on,,,,,45,0,1,,,,,0,,,76,0
16485,note_on,,,,,0,0,1,,,,,0,,,70,0
16485,note_on,,,,,0,0,1,,,,,0,,,67,0
16485,note_on,,,,,0,0,2,,,,,0,,,55,0
16485,note_on,,,,,0,0,2,,,,,0,,,58,0
16500,note_on,,,,,15,0,2,,,,,0,,,55,75
16500,note_on,,,,,0,0,1,,,,,0,,,76,75
16500,note_on,,,,,0,0,1,,,,,0,,,70,75
16500,note_on,,,,,15,0,1,,,,,0,,,67,75
16500,note_on,,,,,0,0,2,,,,,0,,,58,75
16500,note_on,,,,,0,0,2,,,,,0,,,64,75
16530,set_tempo,,,,,60,1,0,,362756,,,,,,,
16540,set_tempo,,,,,10,1,0,,360576,,,,,,,
16545,note_on,,,,,0,0,1,,,,,0,,,70,0
16545,note_on,,,,,45,0,2,,,,,0,,,64,0
16545,note_on,,,,,0,0,2,,,,,0,,,58,0
16545,note_on,,,,,0,0,2,,,,,0,,,55,0
16545,note_on,,,,,45,0,1,,,,,0,,,76,0
16545,note_on,,,,,0,0,1,,,,,0,,,67,0
16555,control_change,,,,,10,0,1,,,,,0,64,0,,
16560,control_change,,,,,0,0,1,,,,,0,64,96,,
16560,note_on,,,,,0,0,1,,,,,0,,,69,85
16560,note_on,,,,,0,0,1,,,,,0,,,76,85
16560,note_on,,,,,5,0,1,,,,,0,,,67,85
16560,note_on,,,,,0,0,2,,,,,0,,,50,84
16560,note_on,,,,,0,0,2,,,,,0,,,57,84
16560,note_on,,,,,15,0,2,,,,,0,,,55,84
16560,note_on,,,,,0,0,2,,,,,0,,,64,84
16600,set_tempo,,,,,60,1,0,,359496,,,,,,,
16610,set_tempo,,,,,10,1,0,,358422,,,,,,,
16630,set_tempo,,,,,20,1,0,,357355,,,,,,,
16650,set_tempo,,,,,20,1,0,,355239,,,,,,,
16680,note_on,,,,,0,0,2,,,,,0,,,54,65
16680,control_change,,,,,0,0,1,,,,,0,64,0,,
16680,note_on,,,,,0,0,1,,,,,0,,,74,64
16680,note_on,,,,,0,0,1,,,,,0,,,66,64
16680,note_on,,,,,0,0,1,,,,,0,,,67,0
16680,note_on,,,,,120,0,1,,,,,0,,,76,0
16680,note_on,,,,,0,0,2,,,,,0,,,55,0
16680,note_on,,,,,120,0,2,,,,,0,,,64,0
16680,note_on,,,,,0,0,2,,,,,0,,,62,65
16730,set_tempo,,,,,80,1,0,,356294,,,,,,,
16760,set_tempo,,,,,30,1,0,,358422,,,,,,,
16770,note_on,,,,,0,0,2,,,,,0,,,54,0
16770,set_tempo,,,,,10,1,0,,359496,,,,,,,
16770,note_on,,,,,90,0,1,,,,,0,,,74,0
16770,note_on,,,,,0,0,1,,,,,0,,,66,0
16770,note_on,,,,,90,0,2,,,,,0,,,62,0
16790,set_tempo,,,,,20,1,0,,360576,,,,,,,
16800,note_on,,,,,0,0,2,,,,,0,,,54,59
16800,set_tempo,,,,,10,1,0,,362756,,,,,,,
16800,note_on,,,,,0,0,2,,,,,0,,,57,0
16800,note_on,,,,,30,0,2,,,,,0,,,50,0
16800,note_on,,,,,0,0,2,,,,,0,,,57,59
16800,note_on,,,,,30,0,1,,,,,0,,,69,0
16800,note_on,,,,,0,0,1,,,,,0,,,66,59
16800,note_on,,,,,0,0,1,,,,,0,,,69,59
16850,set_tempo,,,,,50,1,0,,364963,,,,,,,
16880,set_tempo,,,,,30,1,0,,367197,,,,,,,
16920,set_tempo,,,,,40,1,0,,369458,,,,,,,
16920,control_change,,,,,0,0,1,,,,,0,64,96,,
16920,note_on,,,,,120,0,2,,,,,0,,,45,67
16920,note_on,,,,,120,0,1,,,,,0,,,61,73
16960,set_tempo,,,,,40,1,0,,370599,,,,,,,
16980,set_tempo,,,,,20,1,0,,371747,,,,,,,
16990,set_tempo,,,,,10,1,0,,372902,,,,,,,
17040,set_tempo,,,,,50,1,0,,375234,,,,,,,
17040,note_on,,,,,0,0,2,,,,,0,,,54,58
17040,note_on,,,,,0,0,2,,,,,0,,,57,58
17040,note_on,,,,,0,0,2,,,,,0,,,57,0
17040,note_on,,,,,120,0,2,,,,,0,,,54,0
17040,control_change,,,,,0,0,1,,,,,0,64,0,,
17040,note_on,,,,,0,0,1,,,,,0,,,66,60
17040,note_on,,,,,120,0,1,,,,,0,,,66,0
17040,note_on,,,,,0,0,1,,,,,0,,,69,0
17040,note_on,,,,,0,0,1,,,,,0,,,69,60
17085,note_on,,,,,45,0,1,,,,,0,,,66,0
17085,note_on,,,,,0,0,1,,,,,0,,,69,0
17085,note_on,,,,,45,0,2,,,,,0,,,54,0
17085,note_on,,,,,0,0,2,,,,,0,,,57,0
17100,note_on,,,,,0,0,2,,,,,0,,,55,55
17100,note_on,,,,,15,0,2,,,,,0,,,59,55
17100,note_on,,,,,0,0,1,,,,,0,,,67,56
17100,note_on,,,,,15,0,1,,,,,0,,,71,56
17145,note_on,,,,,45,0,2,,,,,0,,,55,0
17145,note_on,,,,,45,0,1,,,,,0,,,67,0
17145,note_on,,,,,0,0,1,,,,,0,,,71,0
17145,note_on,,,,,0,0,2,,,,,0,,,59,0
17160,note_on,,,,,0,0,2,,,,,0,,,55,53
17160,note_on,,,,,15,0,1,,,,,0,,,64,50
17160,note_on,,,,,15,0,2,,,,,0,,,52,53
17160,note_on,,,,,0,0,1,,,,,0,,,67,50
17280,note_on,,,,,0,0,2,,,,,0,,,54,46
17280,set_tempo,,,,,240,1,0,,351082,,,,,,,
17280,note_on,,,,,0,0,2,,,,,0,,,50,46
17280,note_on,,,,,0,0,1,,,,,0,,,61,0
17280,control_change,,,,,0,0,1,,,,,0,64,95,,
17280,note_on,,,,,0,0,1,,,,,0,,,66,37
17280,note_on,,,,,0,0,2,,,,,0,,,45,0
17280,note_on,,,,,120,0,1,,,,,0,,,67,0
17280,note_on,,,,,120,0,2,,,,,0,,,55,0
17280,note_on,,,,,0,0,2,,,,,0,,,52,0
17280,note_on,,,,,0,0,1,,,,,0,,,64,0
17280,note_on,,,,,0,0,1,,,,,0,,,62,37
17300,set_tempo,,,,,20,1,0,,349040,,,,,,,
17330,set_tempo,,,,,30,1,0,,348027,,,,,,,
17350,set_tempo,,,,,20,1,0,,347021,,,,,,,
17430,set_tempo,,,,,80,1,0,,346020,,,,,,,
17440,set_tempo,,,,,10,1,0,,345025,,,,,,,
17490,note_on,,,,,0,0,1,,,,,0,,,66,0
17490,note_on,,,,,210,0,1,,,,,0,,,62,0
17490,note_on,,,,,210,0,2,,,,,0,,,50,0
17490,note_on,,,,,0,0,2,,,,,0,,,54,0
17520,note_on,,,,,0,0,2,,,,,0,,,54,79
17520,note_on,,,,,30,0,1,,,,,0,,,66,75
17520,note_on,,,,,0,0,1,,,,,0,,,69,75
17520,note_on,,,,,30,0,2,,,,,0,,,57,79
17610,control_change,,,,,90,0,1,,,,,0,64,96,,
17610,set_tempo,,,,,170,1,0,,663716,,,,,,,
17610,note_on,,,,,0,0,2,,,,,0,,,49,98
17610,note_on,,,,,90,0,2,,,,,0,,,54,0
17610,note_on,,,,,0,0,2,,,,,0,,,57,0
17620,note_on,,,,,10,0,2,,,,,0,,,55,101
17620,set_tempo,,,,,10,1,0,,663716,,,,,,,
17630,note_on,,,,,10,0,2,,,,,0,,,58,103
17640,note_on,,,,,10,0,2,,,,,0,,,64,104
17640,note_on,,,,,0,0,1,,,,,0,,,79,95
17640,note_on,,,,,0,0,1,,,,,0,,,66,0
17640,note_on,,,,,0,0,1,,,,,0,,,67,95
17640,note_on,,,,,0,0,1,,,,,0,,,70,95
17640,set_tempo,,,,,20,1,0,,490196,,,,,,,
17640,note_on,,,,,30,0,1,,,,,0,,,69,0
17650,set_tempo,,,,,10,1,0,,353148,,,,,,,
17700,note_on,,,,,60,0,2,,,,,0,,,49,0
17710,note_on,,,,,10,0,2,,,,,0,,,55,0
17720,note_on,,,,,10,0,2,,,,,0,,,58,0
17730,note_on,,,,,90,0,1,,,,,0,,,70,0
17730,note_on,,,,,0,0,1,,,,,0,,,67,0
17730,note_on,,,,,0,0,1,,,,,0,,,79,0
17730,note_on,,,,,10,0,2,,,,,0,,,64,0
17750,set_tempo,,,,,100,1,0,,372902,,,,,,,
17760,note_on,,,,,0,0,2,,,,,0,,,58,83
17760,note_on,,,,,0,0,2,,,,,0,,,64,83
17760,set_tempo,,,,,10,1,0,,370599,,,,,,,
17760,note_on,,,,,30,0,1,,,,,0,,,79,78
17760,note_on,,,,,0,0,1,,,,,0,,,67,78
17760,note_on,,,,,30,0,2,,,,,0,,,55,83
17760,note_on,,,,,0,0,1,,,,,0,,,70,78
17770,set_tempo,,,,,10,1,0,,378787,,,,,,,
17805,note_on,,,,,45,0,2,,,,,0,,,64,0
17805,note_on,,,,,0,0,2,,,,,0,,,58,0
17805,note_on,,,,,0,0,2,,,,,0,,,55,0
17805,note_on,,,,,45,0,1,,,,,0,,,70,0
17805,note_on,,,,,0,0,1,,,,,0,,,67,0
17805,note_on,,,,,0,0,1,,,,,0,,,79,0
17820,note_on,,,,,15,0,1,,,,,0,,,79,84
17820,note_on,,,,,0,0,2,,,,,0,,,58,89
17820,note_on,,,,,0,0,1,,,,,0,,,67,84
17820,note_on,,,,,0,0,1,,,,,0,,,70,84
17820,note_on,,,,,15,0,2,,,,,0,,,55,89
17820,note_on,,,,,0,0,2,,,,,0,,,64,89
17840,set_tempo,,,,,70,1,0,,376411,,,,,,,
17850,set_tempo,,,,,10,1,0,,374064,,,,,,,
17865,note_on,,,,,45,0,1,,,,,0,,,70,0
17865,note_on,,,,,0,0,1,,,,,0,,,67,0
17865,note_on,,,,,0,0,1,,,,,0,,,79,0
17865,note_on,,,,,0,0,2,,,,,0,,,55,0
17865,note_on,,,,,0,0,2,,,,,0,,,58,0
17865,note_on,,,,,45,0,2,,,,,0,,,64,0
17880,note_on,,,,,15,0,1,,,,,0,,,79,89
17880,note_on,,,,,0,0,2,,,,,0,,,64,94
17880,note_on,,,,,15,0,2,,,,,0,,,55,94
17880,note_on,,,,,0,0,1,,,,,0,,,67,89
17880,note_on,,,,,0,0,2,,,,,0,,,58,94
17880,note_on,,,,,0,0,1,,,,,0,,,70,89
17910,set_tempo,,,,,60,1,0,,371747,,,,,,,
17925,note_on,,,,,0,0,2,,,,,0,,,58,0
17925,note_on,,,,,45,0,1,,,,,0,,,70,0
17925,note_on,,,,,0,0,1,,,,,0,,,79,0
17925,note_on,,,,,0,0,1,,,,,0,,,67,0
17925,note_on,,,,,0,0,2,,,,,0,,,55,0
17925,note_on,,,,,45,0,2,,,,,0,,,64,0
17940,note_on,,,,,15,0,1,,,,,0,,,79,92
17940,note_on,,,,,0,0,1,,,,,0,,,67,92
17940,note_on,,,,,0,0,1,,,,,0,,,70,92
17940,note_on,,,,,15,0,2,,,,,0,,,55,96
17940,note_on,,,,,0,0,2,,,,,0,,,58,96
17940,note_on,,,,,0,0,2,,,,,0,,,64,96
17970,set_tempo,,,,,60,1,0,,369458,,,,,,,
17985,note_on,,,,,45,0,2,,,,,0,,,64,0
17985,note_on,,,,,0,0,2,,,,,0,,,58,0
17985,note_on,,,,,0,0,2,,,,,0,,,55,0
17985,note_on,,,,,0,0,1,,,,,0,,,79,0
17985,note_on,,,,,0,0,1,,,,,0,,,67,0
17985,note_on,,,,,45,0,1,,,,,0,,,70,0
17990,set_tempo,,,,,20,1,0,,367197,,,,,,,
17995,control_change,,,,,10,0,1,,,,,0,64,0,,
18000,note_on,,,,,0,0,2,,,,,0,,,64,99
18000,note_on,,,,,15,0,2,,,,,0,,,55,99
18000,note_on,,,,,0,0,2,,,,,0,,,50,99
18000,note_on,,,,,0,0,2,,,,,0,,,57,99
18000,note_on,,,,,0,0,1,,,,,0,,,67,95
18000,note_on,,,,,5,0,1,,,,,0,,,79,95
18000,note_on,,,,,0,0,1,,,,,0,,,69,95
18000,control_change,,,,,0,0,1,,,,,0,64,96,,
18010,set_tempo,,,,,20,1,0,,364963,,,,,,,
18030,set_tempo,,,,,20,1,0,,360576,,,,,,,
18040,set_tempo,,,,,10,1,0,,353148,,,,,,,
18070,set_tempo,,,,,30,1,0,,354191,,,,,,,
18090,set_tempo,,,,,20,1,0,,356294,,,,,,,
18110,set_tempo,,,,,20,1,0,,360576,,,,,,,
18120,note_on,,,,,0,0,2,,,,,0,,,55,0
18120,note_on,,,,,0,0,1,,,,,0,,,66,87
18120,note_on,,,,,0,0,2,,,,,0,,,54,99
18120,note_on,,,,,0,0,1,,,,,0,,,78,87
18120,note_on,,,,,120,0,1,,,,,0,,,67,0
18120,note_on,,,,,0,0,2,,,,,0,,,62,99
18120,note_on,,,,,120,0,2,,,,,0,,,64,0
18120,note_on,,,,,0,0,1,,,,,0,,,79,0
18120,control_change,,,,,0,0,1,,,,,0,64,0,,
18140,set_tempo,,,,,30,1,0,,362756,,,,,,,
18160,set_tempo,,,,,20,1,0,,369458,,,,,,,
18180,set_tempo,,,,,20,1,0,,371747,,,,,,,
18190,set_tempo,,,,,10,1,0,,372902,,,,,,,
18210,note_on,,,,,0,0,1,,,,,0,,,78,0
18210,note_on,,,,,0,0,2,,,,,0,,,54,0
18210,note_on,,,,,90,0,1,,,,,0,,,66,0
18210,note_on,,,,,90,0,2,,,,,0,,,62,0
18220,set_tempo,,,,,30,1,0,,374064,,,,,,,
18230,set_tempo,,,,,10,1,0,,381194,,,,,,,
18240,note_on,,,,,0,0,2,,,,,0,,,57,85
18240,note_on,,,,,0,0,2,,,,,0,,,57,0
18240,note_on,,,,,30,0,2,,,,,0,,,50,0
18240,note_on,,,,,30,0,1,,,,,0,,,69,0
18240,note_on,,,,,0,0,1,,,,,0,,,78,79
18240,note_on,,,,,0,0,1,,,,,0,,,69,79
18240,note_on,,,,,0,0,1,,,,,0,,,66,79
18240,note_on,,,,,0,0,2,,,,,0,,,54,85
18270,set_tempo,,,,,40,1,0,,383631,,,,,,,
18310,set_tempo,,,,,40,1,0,,386100,,,,,,,
18320,set_tempo,,,,,10,1,0,,388601,,,,,,,
18340,set_tempo,,,,,20,1,0,,389863,,,,,,,
18350,set_tempo,,,,,10,1,0,,391134,,,,,,,
18360,control_change,,,,,120,0,1,,,,,0,64,96,,
18360,note_on,,,,,120,0,2,,,,,0,,,45,80
18390,set_tempo,,,,,40,1,0,,392413,,,,,,,
18400,set_tempo,,,,,10,1,0,,394996,,,,,,,
18410,set_tempo,,,,,10,1,0,,396301,,,,,,,
18420,set_tempo,,,,,10,1,0,,397614,,,,,,,
18430,set_tempo,,,,,10,1,0,,398936,,,,,,,
18450,set_tempo,,,,,20,1,0,,400266,,,,,,,
18470,set_tempo,,,,,20,1,0,,401606,,,,,,,
18480,note_on,,,,,0,0,1,,,,,0,,,66,81
18480,note_on,,,,,0,0,1,,,,,0,,,69,81
18480,control_change,,,,,0,0,1,,,,,0,64,0,,
18480,note_on,,,,,120,0,1,,,,,0,,,66,0
18480,note_on,,,,,0,0,1,,,,,0,,,69,0
18480,note_on,,,,,0,0,1,,,,,0,,,78,0
18480,note_on,,,,,0,0,1,,,,,0,,,78,81
18525,note_on,,,,,0,0,1,,,,,0,,,78,0
18525,note_on,,,,,0,0,1,,,,,0,,,69,0
18525,note_on,,,,,45,0,1,,,,,0,,,66,0
18540,note_on,,,,,0,0,1,,,,,0,,,71,75
18540,note_on,,,,,0,0,1,,,,,0,,,67,75
18540,note_on,,,,,15,0,1,,,,,0,,,79,75
18585,note_on,,,,,0,0,1,,,,,0,,,71,0
18585,note_on,,,,,0,0,1,,,,,0,,,79,0
18585,note_on,,,,,45,0,1,,,,,0,,,67,0
18600,note_on,,,,,15,0,1,,,,,0,,,64,69
18600,note_on,,,,,0,0,1,,,,,0,,,67,69
18600,note_on,,,,,0,0,1,,,,,0,,,76,69
18600,note_on,,,,,0,0,2,,,,,0,,,54,0
18600,note_on,,,,,0,0,2,,,,,0,,,55,53
18600,note_on,,,,,0,0,2,,,,,0,,,57,53
18600,note_on,,,,,240,0,2,,,,,0,,,45,0
18600,note_on,,,,,0,0,2,,,,,0,,,57,0
18600,note_on,,,,,0,0,2,,,,,0,,,45,53
18700,set_tempo,,,,,230,1,0,,402955,,,,,,,
18720,note_on,,,,,120,0,2,,,,,0,,,55,0
18720,note_on,,,,,0,0,2,,,,,0,,,57,0
18720,note_on,,,,,0,0,2,,,,,0,,,45,0
18720,note_on,,,,,0,0,2,,,,,0,,,57,46
18720,note_on,,,,,0,0,2,,,,,0,,,54,46
18720,note_on,,,,,0,0,2,,,,,0,,,50,46
18720,set_tempo,,,,,20,1,0,,400266,,,,,,,
18720,note_on,,,,,0,0,1,,,,,0,,,62,44
18720,note_on,,,,,0,0,1,,,,,0,,,66,44
18720,note_on,,,,,0,0,1,,,,,0,,,74,44
18720,note_on,,,,,0,0,1,,,,,0,,,64,0
18720,note_on,,,,,0,0,1,,,,,0,,,67,0
18720,note_on,,,,,120,0,1,,,,,0,,,76,0
18720,control_change,,,,,0,0,1,,,,,0,64,95,,
18730,set_tempo,,,,,10,1,0,,333518,,,,,,,
18740,set_tempo,,,,,10,1,0,,352112,,,,,,,
18930,set_tempo,,,,,190,1,0,,746268,,,,,,,
18930,control_change,,,,,0,0,1,,,,,0,64,0,,
18930,note_on,,,,,210,0,1,,,,,0,,,62,0
18930,note_on,,,,,0,0,2,,,,,0,,,54,0
18930,note_on,,,,,210,0,2,,,,,0,,,50,0
18930,note_on,,,,,0,0,2,,,,,0,,,57,0
18930,note_on,,,,,0,0,1,,,,,0,,,74,0
18930,note_on,,,,,0,0,1,,,,,0,,,66,0
18960,control_change,,,,,30,0,2,,,,,0,91,96,,
18960,note_on,,,,,0,0,2,,,,,0,,,54,52
18960,set_tempo,,,,,30,1,0,,353148,,,,,,,
18960,note_on,,,,,0,0,1,,,,,0,,,66,46
18960,control_change,,,,,30,0,1,,,,,0,91,96,,
19060,set_tempo,,,,,100,1,0,,398936,,,,,,,
19080,control_change,,,,,0,0,1,,,,,0,64,96,,
19080,note_on,,,,,0,0,1,,,,,0,,,74,48
19080,note_on,,,,,0,0,1,,,,,0,,,66,48
19080,note_on,,,,,0,0,1,,,,,0,,,62,48
19080,note_on,,,,,120,0,1,,,,,0,,,66,0
19080,note_on,,,,,120,0,2,,,,,0,,,54,0
19080,set_tempo,,,,,20,1,0,,333518,,,,,,,
19080,note_on,,,,,0,0,2,,,,,0,,,59,51
19080,note_on,,,,,0,0,2,,,,,0,,,54,51
19080,note_on,,,,,0,0,2,,,,,0,,,47,51
19090,set_tempo,,,,,10,1,0,,354191,,,,,,,
19170,note_on,,,,,0,0,1,,,,,0,,,62,0
19170,note_on,,,,,0,0,1,,,,,0,,,66,0
19170,note_on,,,,,90,0,1,,,,,0,,,74,0
19170,note_on,,,,,0,0,2,,,,,0,,,47,0
19170,note_on,,,,,0,0,2,,,,,0,,,54,0
19170,note_on,,,,,90,0,2,,,,,0,,,59,0
19200,note_on,,,,,0,0,1,,,,,0,,,74,41
19200,note_on,,,,,0,0,1,,,,,0,,,66,41
19200,note_on,,,,,30,0,1,,,,,0,,,62,41
19200,note_on,,,,,30,0,2,,,,,0,,,47,37
19200,note_on,,,,,0,0,2,,,,,0,,,59,37
19200,note_on,,,,,0,0,2,,,,,0,,,54,37
19245,note_on,,,,,0,0,2,,,,,0,,,47,0
19245,note_on,,,,,0,0,2,,,,,0,,,54,0
19245,note_on,,,,,45,0,2,,,,,0,,,59,0
19245,note_on,,,,,45,0,1,,,,,0,,,74,0
19245,note_on,,,,,0,0,1,,,,,0,,,66,0
19245,note_on,,,,,0,0,1,,,,,0,,,62,0
19260,note_on,,,,,0,0,2,,,,,0,,,59,40
19260,note_on,,,,,0,0,2,,,,,0,,,54,40
19260,note_on,,,,,15,0,2,,,,,0,,,47,40
19260,note_on,,,,,15,0,1,,,,,0,,,62,47
19260,note_on,,,,,0,0,1,,,,,0,,,66,47
19260,note_on,,,,,0,0,1,,,,,0,,,74,47
19305,note_on,,,,,45,0,1,,,,,0,,,74,0
19305,note_on,,,,,0,0,1,,,,,0,,,66,0
19305,note_on,,,,,0,0,2,,,,,0,,,54,0
19305,note_on,,,,,45,0,2,,,,,0,,,59,0
19305,note_on,,,,,0,0,2,,,,,0,,,47,0
19305,note_on,,,,,0,0,1,,,,,0,,,62,0
19320,note_on,,,,,15,0,1,,,,,0,,,62,50
19320,note_on,,,,,15,0,2,,,,,0,,,47,45
19320,note_on,,,,,0,0,2,,,,,0,,,54,45
19320,note_on,,,,,0,0,2,,,,,0,,,59,45
19320,note_on,,,,,0,0,1,,,,,0,,,66,50
19320,note_on,,,,,0,0,1,,,,,0,,,74,50
19365,note_on,,,,,0,0,2,,,,,0,,,47,0
19365,note_on,,,,,45,0,1,,,,,0,,,74,0
19365,note_on,,,,,0,0,1,,,,,0,,,66,0
19365,note_on,,,,,0,0,1,,,,,0,,,62,0
19365,note_on,,,,,45,0,2,,,,,0,,,59,0
19365,note_on,,,,,0,0,2,,,,,0,,,54,0
19380,note_on,,,,,0,0,1,,,,,0,,,66,51
19380,note_on,,,,,15,0,2,,,,,0,,,47,47
19380,note_on,,,,,0,0,2,,,,,0,,,54,47
19380,note_on,,,,,0,0,2,,,,,0,,,59,47
19380,note_on,,,,,15,0,1,,,,,0,,,62,51
19380,note_on,,,,,0,0,1,,,,,0,,,74,51
19425,note_on,,,,,45,0,2,,,,,0,,,59,0
19425,note_on,,,,,0,0,2,,,,,0,,,54,0
19425,note_on,,,,,0,0,2,,,,,0,,,47,0
19425,note_on,,,,,0,0,1,,,,,0,,,67,60
19425,note_on,,,,,45,0,1,,,,,0,,,74,0
19425,note_on,,,,,0,0,1,,,,,0,,,66,0
19425,note_on,,,,,0,0,1,,,,,0,,,62,0
19425,note_on,,,,,0,0,2,,,,,0,,,55,60
19430,set_tempo,,,,,340,1,0,,741656,,,,,,,
19435,control_change,,,,,10,0,1,,,,,0,64,0,,
19440,set_tempo,,,,,10,1,0,,354191,,,,,,,
19440,note_on,,,,,0,0,1,,,,,0,,,66,60
19440,note_on,,,,,0,0,1,,,,,0,,,62,60
19440,note_on,,,,,0,0,1,,,,,0,,,71,60
19440,control_change,,,,,0,0,1,,,,,0,64,95,,
19440,note_on,,,,,0,0,2,,,,,0,,,54,52
19440,note_on,,,,,5,0,1,,,,,0,,,67,0
19440,note_on,,,,,0,0,2,,,,,0,,,50,52
19440,note_on,,,,,15,0,2,,,,,0,,,55,0
19440,note_on,,,,,0,0,2,,,,,0,,,59,52
19530,note_on,,,,,0,0,2,,,,,0,,,54,0
19530,note_on,,,,,0,0,2,,,,,0,,,50,0
19530,note_on,,,,,90,0,2,,,,,0,,,59,0
19530,note_on,,,,,0,0,1,,,,,0,,,66,0
19530,note_on,,,,,0,0,1,,,,,0,,,62,0
19530,note_on,,,,,90,0,1,,,,,0,,,71,0
19560,note_on,,,,,0,0,1,,,,,0,,,71,47
19560,note_on,,,,,30,0,2,,,,,0,,,50,50
19560,note_on,,,,,0,0,2,,,,,0,,,54,50
19560,note_on,,,,,0,0,2,,,,,0,,,59,50
19560,note_on,,,,,0,0,1,,,,,0,,,66,47
19560,note_on,,,,,30,0,1,,,,,0,,,62,47
19650,note_on,,,,,0,0,1,,,,,0,,,66,0
19650,note_on,,,,,0,0,1,,,,,0,,,62,0
19650,note_on,,,,,0,0,2,,,,,0,,,50,0
19650,note_on,,,,,0,0,2,,,,,0,,,54,0
19650,note_on,,,,,90,0,2,,,,,0,,,59,0
19650,note_on,,,,,90,0,1,,,,,0,,,71,0
19680,note_on,,,,,30,0,2,,,,,0,,,50,44
19680,note_on,,,,,0,0,1,,,,,0,,,71,38
19680,note_on,,,,,0,0,1,,,,,0,,,66,38
19680,note_on,,,,,30,0,1,,,,,0,,,62,38
19680,note_on,,,,,0,0,2,,,,,0,,,59,44
19680,note_on,,,,,0,0,2,,,,,0,,,54,44
19770,set_tempo,,,,,330,1,0,,545950,,,,,,,
19770,note_on,,,,,0,0,2,,,,,0,,,54,0
19770,note_on,,,,,0,0,2,,,,,0,,,50,0
19770,note_on,,,,,0,0,1,,,,,0,,,58,54
19770,note_on,,,,,0,0,1,,,,,0,,,62,0
19770,note_on,,,,,0,0,1,,,,,0,,,66,0
19770,note_on,,,,,90,0,1,,,,,0,,,71,0
19770,note_on,,,,,90,0,2,,,,,0,,,59,0
19795,control_change,,,,,25,0,1,,,,,0,64,0,,
19800,note_on,,,,,0,0,1,,,,,0,,,73,38
19800,note_on,,,,,0,0,2,,,,,0,,,54,55
19800,control_change,,,,,0,0,1,,,,,0,64,95,,
19800,note_on,,,,,0,0,1,,,,,0,,,64,38
19800,note_on,,,,,5,0,1,,,,,0,,,66,38
19800,note_on,,,,,30,0,2,,,,,0,,,42,55
19800,set_tempo,,,,,30,1,0,,354191,,,,,,,
19860,note_on,,,,,60,0,1,,,,,0,,,58,0
19870,set_tempo,,,,,70,1,0,,356294,,,,,,,
19880,set_tempo,,,,,10,1,0,,357355,,,,,,,
19890,note_on,,,,,30,0,1,,,,,0,,,66,0
19890,note_on,,,,,0,0,1,,,,,0,,,73,0
19890,note_on,,,,,0,0,1,,,,,0,,,64,0
19890,note_on,,,,,90,0,2,,,,,0,,,54,0
19890,note_on,,,,,0,0,2,,,,,0,,,42,0
19890,set_tempo,,,,,10,1,0,,358422,,,,,,,
19900,set_tempo,,,,,10,1,0,,359496,,,,,,,
19910,set_tempo,,,,,10,1,0,,362756,,,,,,,
19920,set_tempo,,,,,10,1,0,,363856,,,,,,,
19920,note_on,,,,,0,0,1,,,,,0,,,66,47
19920,note_on,,,,,30,0,2,,,,,0,,,54,39
19920,note_on,,,,,0,0,1,,,,,0,,,73,47
19920,note_on,,,,,30,0,1,,,,,0,,,64,47
19920,note_on,,,,,0,0,2,,,,,0,,,58,39
19940,set_tempo,,,,,20,1,0,,366076,,,,,,,
19950,set_tempo,,,,,10,1,0,,368324,,,,,,,
19960,set_tempo,,,,,10,1,0,,369458,,,,,,,
19965,note_on,,,,,0,0,2,,,,,0,,,54,0
19965,note_on,,,,,0,0,1,,,,,0,,,64,0
19965,note_on,,,,,0,0,1,,,,,0,,,66,0
19965,note_on,,,,,45,0,1,,,,,0,,,73,0
19965,note_on,,,,,45,0,2,,,,,0,,,58,0
19980,note_on,,,,,15,0,2,,,,,0,,,54,45
19980,note_on,,,,,0,0,2,,,,,0,,,58,45
19980,note_on,,,,,0,0,1,,,,,0,,,73,50
19980,note_on,,,,,0,0,1,,,,,0,,,66,50
19980,note_on,,,,,15,0,1,,,,,0,,,64,50
20025,note_on,,,,,45,0,1,,,,,0,,,73,0
20025,note_on,,,,,0,0,1,,,,,0,,,66,0
20025,note_on,,,,,0,0,1,,,,,0,,,64,0
20025,note_on,,,,,0,0,2,,,,,0,,,54,0
20025,note_on,,,,,45,0,2,,,,,0,,,58,0
20040,note_on,,,,,0,0,1,,,,,0,,,73,52
20040,note_on,,,,,15,0,2,,,,,0,,,54,49
20040,note_on,,,,,0,0,1,,,,,0,,,66,52
20040,note_on,,,,,15,0,1,,,,,0,,,64,52
20040,note_on,,,,,0,0,2,,,,,0,,,58,49
20085,note_on,,,,,45,0,2,,,,,0,,,58,0
20085,note_on,,,,,0,0,2,,,,,0,,,54,0
20085,note_on,,,,,45,0,1,,,,,0,,,73,0
20085,note_on,,,,,0,0,1,,,,,0,,,66,0
20085,note_on,,,,,0,0,1,,,,,0,,,64,0
20100,note_on,,,,,0,0,1,,,,,0,,,66,53
20100,note_on,,,,,0,0,2,,,,,0,,,58,53
20100,note_on,,,,,15,0,2,,,,,0,,,54,53
20100,note_on,,,,,15,0,1,,,,,0,,,64,53
20100,note_on,,,,,0,0,1,,,,,0,,,73,53
20140,set_tempo,,,,,180,1,0,,369458,,,,,,,
20145,note_on,,,,,0,0,1,,,,,0,,,67,54
20145,note_on,,,,,0,0,1,,,,,0,,,66,0
20145,note_on,,,,,45,0,1,,,,,0,,,73,0
20145,note_on,,,,,0,0,2,,,,,0,,,55,54
20145,note_on,,,,,0,0,1,,,,,0,,,64,0
20145,note_on,,,,,45,0,2,,,,,0,,,58,0
20145,note_on,,,,,0,0,2,,,,,0,,,54,0
20150,set_tempo,,,,,10,1,0,,746268,,,,,,,
20155,control_change,,,,,10,0,1,,,,,0,64,0,,
20160,note_on,,,,,0,0,1,,,,,0,,,58,56
20160,set_tempo,,,,,10,1,0,,346020,,,,,,,
20160,note_on,,,,,5,0,1,,,,,0,,,67,0
20160,note_on,,,,,0,0,1,,,,,0,,,64,56
20160,note_on,,,,,0,0,1,,,,,0,,,66,56
20160,note_on,,,,,0,0,2,,,,,0,,,54,55
20160,note_on,,,,,0,0,2,,,,,0,,,49,55
20160,note_on,,,,,15,0,2,,,,,0,,,55,0
20160,control_change,,,,,0,0,1,,,,,0,64,95,,
20165,set_tempo,,,,,5,1,0,,357355,,,,,,,
20340,set_tempo,,,,,175,1,0,,367197,,,,,,,
20400,set_tempo,,,,,60,1,0,,366076,,,,,,,
20420,set_tempo,,,,,20,1,0,,364963,,,,,,,
20490,note_on,,,,,0,0,1,,,,,0,,,58,0
20490,note_on,,,,,0,0,2,,,,,0,,,49,0
20490,note_on,,,,,330,0,2,,,,,0,,,54,0
20490,note_on,,,,,330,0,1,,,,,0,,,66,0
20490,note_on,,,,,0,0,1,,,,,0,,,64,0
20500,set_tempo,,,,,80,1,0,,603621,,,,,,,
20515,control_change,,,,,25,0,1,,,,,0,64,0,,
20520,note_on,,,,,5,0,1,,,,,0,,,59,127
20520,note_on,,,,,0,0,1,,,,,0,,,62,127
20520,note_on,,,,,0,0,1,,,,,0,,,66,127
20520,note_on,,,,,0,0,1,,,,,0,,,71,127
20520,control_change,,,,,0,0,1,,,,,0,64,96,,
20520,set_tempo,,,,,20,1,0,,362756,,,,,,,
20520,note_on,,,,,30,0,2,,,,,0,,,47,127
20520,note_on,,,,,0,0,2,,,,,0,,,50,127
20520,note_on,,,,,0,0,2,,,,,0,,,54,127
20530,set_tempo,,,,,10,1,0,,361663,,,,,,,
20590,set_tempo,,,,,60,1,0,,359496,,,,,,,
20600,set_tempo,,,,,10,1,0,,358422,,,,,,,
20610,control_change,,,,,90,0,1,,,,,0,64,0,,
20640,note_on,,,,,0,0,1,,,,,0,,,66,0
20640,note_on,,,,,0,0,1,,,,,0,,,58,100
20640,note_on,,,,,0,0,1,,,,,0,,,70,100
20640,note_on,,,,,0,0,2,,,,,0,,,47,0
20640,note_on,,,,,0,0,1,,,,,0,,,59,0
20640,note_on,,,,,30,0,1,,,,,0,,,71,0
20640,set_tempo,,,,,40,1,0,,357355,,,,,,,
20640,note_on,,,,,120,0,2,,,,,0,,,54,0
20640,note_on,,,,,0,0,2,,,,,0,,,50,0
20640,note_on,,,,,0,0,2,,,,,0,,,47,99
20640,note_on,,,,,0,0,2,,,,,0,,,50,99
20640,note_on,,,,,0,0,2,,,,,0,,,54,99
20640,note_on,,,,,0,0,1,,,,,0,,,62,0
20660,set_tempo,,,,,20,1,0,,356294,,,,,,,
20685,note_on,,,,,0,0,1,,,,,0,,,58,0
20685,note_on,,,,,45,0,1,,,,,0,,,70,0
20685,note_on,,,,,0,0,2,,,,,0,,,50,0
20685,note_on,,,,,0,0,2,,,,,0,,,47,0
20685,note_on,,,,,45,0,2,,,,,0,,,54,0
20690,set_tempo,,,,,30,1,0,,354191,,,,,,,
20700,note_on,,,,,0,0,2,,,,,0,,,50,95
20700,note_on,,,,,15,0,2,,,,,0,,,47,95
20700,note_on,,,,,0,0,1,,,,,0,,,71,95
20700,note_on,,,,,15,0,1,,,,,0,,,59,95
20700,note_on,,,,,0,0,2,,,,,0,,,54,95
20745,note_on,,,,,45,0,1,,,,,0,,,71,0
20745,note_on,,,,,0,0,1,,,,,0,,,59,0
20745,note_on,,,,,0,0,2,,,,,0,,,50,0
20745,note_on,,,,,0,0,2,,,,,0,,,47,0
20745,note_on,,,,,45,0,2,,,,,0,,,54,0
20750,set_tempo,,,,,60,1,0,,353148,,,,,,,
20760,note_on,,,,,0,0,2,,,,,0,,,54,104
20760,note_on,,,,,0,0,1,,,,,0,,,71,104
20760,note_on,,,,,15,0,1,,,,,0,,,59,104
20760,note_on,,,,,0,0,2,,,,,0,,,50,104
20760,note_on,,,,,15,0,2,,,,,0,,,47,104
20805,note_on,,,,,45,0,1,,,,,0,,,71,0
20805,note_on,,,,,45,0,2,,,,,0,,,54,0
20805,note_on,,,,,0,0,2,,,,,0,,,50,0
20805,note_on,,,,,0,0,2,,,,,0,,,47,0
20805,note_on,,,,,0,0,1,,,,,0,,,59,0
20810,set_tempo,,,,,60,1,0,,351082,,,,,,,
20820,note_on,,,,,0,0,1,,,,,0,,,73,117
20820,note_on,,,,,0,0,2,,,,,0,,,50,117
20820,note_on,,,,,15,0,2,,,,,0,,,47,117
20820,note_on,,,,,15,0,1,,,,,0,,,61,117
20820,set_tempo,,,,,10,1,0,,350058,,,,,,,
20820,note_on,,,,,0,0,2,,,,,0,,,54,117
20830,set_tempo,,,,,10,1,0,,349040,,,,,,,
20850,set_tempo,,,,,20,1,0,,348027,,,,,,,
20865,note_on,,,,,45,0,2,,,,,0,,,54,0
20865,note_on,,,,,0,0,2,,,,,0,,,47,0
20865,note_on,,,,,0,0,2,,,,,0,,,50,0
20865,note_on,,,,,0,0,1,,,,,0,,,61,0
20865,note_on,,,,,45,0,1,,,,,0,,,73,0
20875,control_change,,,,,10,0,1,,,,,0,64,0,,
20880,note_on,,,,,0,0,2,,,,,0,,,55,127
20880,note_on,,,,,15,0,2,,,,,0,,,43,127
20880,note_on,,,,,0,0,2,,,,,0,,,47,127
20880,note_on,,,,,0,0,2,,,,,0,,,50,127
20880,note_on,,,,,5,0,1,,,,,0,,,62,127
20880,note_on,,,,,0,0,1,,,,,0,,,74,127
20880,control_change,,,,,0,0,1,,,,,0,64,96,,
20900,set_tempo,,,,,50,1,0,,355239,,,,,,,
20910,set_tempo,,,,,10,1,0,,360576,,,,,,,
20920,set_tempo,,,,,10,1,0,,361663,,,,,,,
20940,set_tempo,,,,,20,1,0,,363856,,,,,,,
20950,set_tempo,,,,,10,1,0,,367197,,,,,,,
20970,note_on,,,,,90,0,2,,,,,0,,,55,0
20970,note_on,,,,,90,0,1,,,,,0,,,74,0
20970,note_on,,,,,0,0,2,,,,,0,,,43,0
20970,note_on,,,,,0,0,1,,,,,0,,,62,0
20970,note_on,,,,,0,0,2,,,,,0,,,47,0
20970,note_on,,,,,0,0,2,,,,,0,,,50,0
20980,set_tempo,,,,,30,1,0,,370599,,,,,,,
20990,set_tempo,,,,,10,1,0,,371747,,,,,,,
21000,note_on,,,,,0,0,1,,,,,0,,,74,115
21000,note_on,,,,,30,0,2,,,,,0,,,43,118
21000,note_on,,,,,0,0,2,,,,,0,,,47,118
21000,note_on,,,,,30,0,1,,,,,0,,,62,115
21000,note_on,,,,,0,0,2,,,,,0,,,55,118
21000,set_tempo,,,,,10,1,0,,372902,,,,,,,
21000,note_on,,,,,0,0,2,,,,,0,,,50,118
21010,set_tempo,,,,,10,1,0,,375234,,,,,,,
21020,set_tempo,,,,,10,1,0,,376411,,,,,,,
21030,set_tempo,,,,,10,1,0,,379987,,,,,,,
21050,set_tempo,,,,,20,1,0,,381194,,,,,,,
21060,set_tempo,,,,,10,1,0,,384862,,,,,,,
21080,set_tempo,,,,,20,1,0,,387346,,,,,,,
21090,note_on,,,,,0,0,2,,,,,0,,,47,0
21090,note_on,,,,,0,0,2,,,,,0,,,43,0
21090,note_on,,,,,0,0,2,,,,,0,,,50,0
21090,note_on,,,,,90,0,1,,,,,0,,,74,0
21090,note_on,,,,,0,0,1,,,,,0,,,62,0
21090,note_on,,,,,90,0,2,,,,,0,,,55,0
21100,set_tempo,,,,,20,1,0,,394996,,,,,,,
21110,set_tempo,,,,,10,1,0,,397614,,,,,,,
21120,note_on,,,,,30,0,1,,,,,0,,,62,100
21120,note_on,,,,,0,0,1,,,,,0,,,74,100
21120,note_on,,,,,0,0,2,,,,,0,,,55,99
21120,set_tempo,,,,,10,1,0,,398936,,,,,,,
21120,note_on,,,,,0,0,2,,,,,0,,,50,99
21120,note_on,,,,,30,0,2,,,,,0,,,43,99
21120,note_on,,,,,0,0,2,,,,,0,,,47,99
21130,set_tempo,,,,,10,1,0,,401606,,,,,,,
21140,set_tempo,,,,,10,1,0,,407055,,,,,,,
21150,set_tempo,,,,,10,1,0,,414078,,,,,,,
21160,set_tempo,,,,,10,1,0,,415512,,,,,,,
21170,set_tempo,,,,,10,1,0,,421348,,,,,,,
21180,set_tempo,,,,,10,1,0,,427350,,,,,,,
21210,note_on,,,,,90,0,2,,,,,0,,,55,0
21210,note_on,,,,,0,0,2,,,,,0,,,43,0
21210,note_on,,,,,0,0,2,,,,,0,,,47,0
21210,note_on,,,,,0,0,2,,,,,0,,,50,0
21210,note_on,,,,,0,0,1,,,,,0,,,62,0
21210,note_on,,,,,90,0,1,,,,,0,,,74,0
21210,set_tempo,,,,,30,1,0,,433526,,,,,,,
21235,control_change,,,,,25,0,1,,,,,0,64,0,,
21240,note_on,,,,,5,0,1,,,,,0,,,64,108
21240,note_on,,,,,0,0,1,,,,,0,,,67,108
21240,note_on,,,,,0,0,1,,,,,0,,,70,108
21240,note_on,,,,,0,0,1,,,,,0,,,76,108
21240,control_change,,,,,0,0,1,,,,,0,64,94,,
21240,note_on,,,,,0,0,2,,,,,0,,,52,108
21240,note_on,,,,,0,0,2,,,,,0,,,49,108
21240,note_on,,,,,30,0,2,,,,,0,,,40,108
21240,note_on,,,,,0,0,2,,,,,0,,,46,108
21280,set_tempo,,,,,70,1,0,,436681,,,,,,,
21290,set_tempo,,,,,10,1,0,,441501,,,,,,,
21310,set_tempo,,,,,20,1,0,,443131,,,,,,,
21320,set_tempo,,,,,10,1,0,,444773,,,,,,,
21330,note_on,,,,,0,0,2,,,,,0,,,49,0
21330,note_on,,,,,0,0,2,,,,,0,,,46,0
21330,note_on,,,,,90,0,2,,,,,0,,,52,0
21330,note_on,,,,,0,0,2,,,,,0,,,40,0
21330,note_on,,,,,90,0,1,,,,,0,,,76,0
21330,note_on,,,,,0,0,1,,,,,0,,,64,0
21330,note_on,,,,,0,0,1,,,,,0,,,67,0
21330,note_on,,,,,0,0,1,,,,,0,,,70,0
21340,set_tempo,,,,,20,1,0,,446428,,,,,,,
21360,note_on,,,,,0,0,1,,,,,0,,,70,112
21360,note_on,,,,,0,0,1,,,,,0,,,76,112
21360,note_on,,,,,0,0,2,,,,,0,,,52,115
21360,note_on,,,,,0,0,2,,,,,0,,,46,115
21360,note_on,,,,,30,0,2,,,,,0,,,40,115
21360,note_on,,,,,30,0,1,,,,,0,,,64,112
21360,note_on,,,,,0,0,1,,,,,0,,,67,112
21360,note_on,,,,,0,0,2,,,,,0,,,49,115
21360,set_tempo,,,,,20,1,0,,448095,,,,,,,
21370,set_tempo,,,,,10,1,0,,453172,,,,,,,
21380,set_tempo,,,,,10,1,0,,454890,,,,,,,
21400,set_tempo,,,,,20,1,0,,456621,,,,,,,
21420,set_tempo,,,,,20,1,0,,458365,,,,,,,
21430,set_tempo,,,,,10,1,0,,460122,,,,,,,
21440,set_tempo,,,,,10,1,0,,461893,,,,,,,
21450,note_on,,,,,90,0,2,,,,,0,,,52,0
21450,note_on,,,,,0,0,2,,,,,0,,,40,0
21450,note_on,,,,,0,0,2,,,,,0,,,46,0
21450,note_on,,,,,0,0,2,,,,,0,,,49,0
21450,note_on,,,,,90,0,1,,,,,0,,,76,0
21450,note_on,,,,,0,0,1,,,,,0,,,64,0
21450,note_on,,,,,0,0,1,,,,,0,,,67,0
21450,note_on,,,,,0,0,1,,,,,0,,,70,0
21480,note_on,,,,,0,0,1,,,,,0,,,64,119
21480,note_on,,,,,30,0,2,,,,,0,,,45,122
21480,note_on,,,,,0,0,2,,,,,0,,,40,122
21480,note_on,,,,,0,0,2,,,,,0,,,49,122
21480,note_on,,,,,0,0,2,,,,,0,,,52,122
21480,note_on,,,,,0,0,1,,,,,0,,,76,119
21480,note_on,,,,,0,0,1,,,,,0,,,67,119
21480,note_on,,,,,30,0,1,,,,,0,,,69,119
21480,set_tempo,,,,,40,1,0,,463678,,,,,,,
21490,set_tempo,,,,,10,1,0,,465477,,,,,,,
21520,set_tempo,,,,,30,1,0,,467289,,,,,,,
21530,set_tempo,,,,,10,1,0,,451467,,,,,,,
21540,set_tempo,,,,,10,1,0,,451467,,,,,,,
21550,set_tempo,,,,,10,1,0,,451467,,,,,,,
21560,set_tempo,,,,,10,1,0,,609756,,,,,,,
21570,note_on,,,,,0,0,2,,,,,0,,,40,0
21570,note_on,,,,,0,0,2,,,,,0,,,45,0
21570,note_on,,,,,90,0,2,,,,,0,,,52,0
21570,note_on,,,,,0,0,2,,,,,0,,,49,0
21570,note_on,,,,,90,0,1,,,,,0,,,76,0
21570,note_on,,,,,0,0,1,,,,,0,,,64,0
21570,note_on,,,,,0,0,1,,,,,0,,,67,0
21570,note_on,,,,,0,0,1,,,,,0,,,69,0
21595,control_change,,,,,25,0,1,,,,,0,64,0,,
21600,set_tempo,,,,,40,1,0,,435097,,,,,,,
21600,control_change,,,,,0,0,1,,,,,0,64,94,,
21600,note_on,,,,,0,0,1,,,,,0,,,69,127
21600,note_on,,,,,5,0,1,,,,,0,,,66,127
21600,note_on,,,,,0,0,2,,,,,0,,,45,127
21600,note_on,,,,,0,0,1,,,,,0,,,78,127
21600,note_on,,,,,30,0,2,,,,,0,,,38,127
21600,note_on,,,,,0,0,2,,,,,0,,,50,127
21610,set_tempo,,,,,10,1,0,,453172,,,,,,,
21680,set_tempo,,,,,70,1,0,,451467,,,,,,,
21700,set_tempo,,,,,20,1,0,,449775,,,,,,,
21780,set_tempo,,,,,80,1,0,,439882,,,,,,,
21840,set_tempo,,,,,60,1,0,,435097,,,,,,,
21900,set_tempo,,,,,60,1,0,,431965,,,,,,,
21910,set_tempo,,,,,10,1,0,,430416,,,,,,,
21920,set_tempo,,,,,10,1,0,,428877,,,,,,,
21930,note_on,,,,,330,0,2,,,,,0,,,45,0
21930,note_on,,,,,0,0,1,,,,,0,,,66,0
21930,note_on,,,,,0,0,1,,,,,0,,,78,0
21930,note_on,,,,,330,0,1,,,,,0,,,69,0
21930,note_on,,,,,0,0,2,,,,,0,,,38,0
21930,note_on,,,,,0,0,2,,,,,0,,,50,0
21930,control_change,,,,,0,0,1,,,,,0,64,0,,
21940,set_tempo,,,,,20,1,0,,425833,,,,,,,
21950,set_tempo,,,,,10,1,0,,419874,,,,,,,
21960,note_on,,,,,30,0,1,,,,,0,,,90,64
21960,note_on,,,,,0,0,1,,,,,0,,,78,64
21960,note_on,,,,,30,0,2,,,,,0,,,51,77
21960,set_tempo,,,,,10,1,0,,370599,,,,,,,
22050,set_tempo,,,,,90,1,0,,372902,,,,,,,
22050,note_on,,,,,0,0,1,,,,,0,,,90,0
22050,note_on,,,,,90,0,1,,,,,0,,,78,0
22080,note_on,,,,,30,0,1,,,,,0,,,90,74
22080,note_on,,,,,0,0,1,,,,,0,,,78,74
22080,note_on,,,,,120,0,2,,,,,0,,,59,62
22150,set_tempo,,,,,100,1,0,,408441,,,,,,,
22170,note_on,,,,,0,0,1,,,,,0,,,90,0
22170,note_on,,,,,90,0,1,,,,,0,,,78,0
22200,note_on,,,,,120,0,2,,,,,0,,,59,0
22200,set_tempo,,,,,50,1,0,,354191,,,,,,,
22200,note_on,,,,,0,0,2,,,,,0,,,66,70
22200,control_change,,,,,0,0,1,,,,,0,64,95,,
22200,note_on,,,,,0,0,1,,,,,0,,,93,82
22200,note_on,,,,,30,0,1,,,,,0,,,81,82
22205,set_tempo,,,,,5,1,0,,353148,,,,,,,
22210,set_tempo,,,,,5,1,0,,374064,,,,,,,
22230,set_tempo,,,,,20,1,0,,372902,,,,,,,
22235,set_tempo,,,,,5,1,0,,371747,,,,,,,
22240,set_tempo,,,,,5,1,0,,370599,,,,,,,
22250,set_tempo,,,,,10,1,0,,372902,,,,,,,
22300,set_tempo,,,,,50,1,0,,370599,,,,,,,
22320,note_on,,,,,0,0,2,,,,,0,,,52,78
22320,note_on,,,,,0,0,2,,,,,0,,,51,0
22320,note_on,,,,,120,0,2,,,,,0,,,66,0
22340,set_tempo,,,,,40,1,0,,368324,,,,,,,
22350,set_tempo,,,,,10,1,0,,367197,,,,,,,
22410,set_tempo,,,,,60,1,0,,366076,,,,,,,
22420,set_tempo,,,,,10,1,0,,364963,,,,,,,
22440,note_on,,,,,120,0,2,,,,,0,,,59,64
22440,set_tempo,,,,,20,1,0,,363856,,,,,,,
22440,note_on,,,,,240,0,1,,,,,0,,,93,0
22440,note_on,,,,,0,0,1,,,,,0,,,81,0
22440,note_on,,,,,0,0,1,,,,,0,,,79,85
22440,note_on,,,,,0,0,1,,,,,0,,,91,85
22440,control_change,,,,,0,0,1,,,,,0,64,0,,
22470,set_tempo,,,,,30,1,0,,362756,,,,,,,
22490,set_tempo,,,,,20,1,0,,361663,,,,,,,
22500,note_on,,,,,60,0,1,,,,,0,,,91,0
22500,note_on,,,,,0,0,1,,,,,0,,,79,0
22500,note_on,,,,,0,0,1,,,,,0,,,78,80
22500,note_on,,,,,0,0,1,,,,,0,,,90,80
22540,set_tempo,,,,,50,1,0,,360576,,,,,,,
22545,note_on,,,,,45,0,1,,,,,0,,,90,0
22545,note_on,,,,,0,0,1,,,,,0,,,78,0
22560,note_on,,,,,0,0,1,,,,,0,,,90,72
22560,set_tempo,,,,,20,1,0,,359496,,,,,,,
22560,note_on,,,,,0,0,2,,,,,0,,,67,71
22560,note_on,,,,,120,0,2,,,,,0,,,59,0
22560,note_on,,,,,15,0,1,,,,,0,,,78,72
22570,set_tempo,,,,,10,1,0,,358422,,,,,,,
22605,note_on,,,,,45,0,1,,,,,0,,,90,0
22605,note_on,,,,,0,0,1,,,,,0,,,78,0
22610,set_tempo,,,,,40,1,0,,357355,,,,,,,
22620,note_on,,,,,15,0,1,,,,,0,,,76,61
22620,note_on,,,,,0,0,1,,,,,0,,,88,61
22630,set_tempo,,,,,20,1,0,,355239,,,,,,,
22650,set_tempo,,,,,20,1,0,,354191,,,,,,,
22660,set_tempo,,,,,10,1,0,,353148,,,,,,,
22665,note_on,,,,,0,0,1,,,,,0,,,76,0
22665,note_on,,,,,45,0,1,,,,,0,,,88,0
22680,note_on,,,,,15,0,1,,,,,0,,,74,82
22680,note_on,,,,,0,0,1,,,,,0,,,86,82
22680,control_change,,,,,0,0,1,,,,,0,64,95,,
22680,note_on,,,,,120,0,2,,,,,0,,,67,0
22680,note_on,,,,,0,0,2,,,,,0,,,52,0
22680,note_on,,,,,0,0,2,,,,,0,,,54,79
22720,set_tempo,,,,,60,1,0,,354191,,,,,,,
22730,set_tempo,,,,,10,1,0,,356294,,,,,,,
22740,set_tempo,,,,,10,1,0,,357355,,,,,,,
22750,set_tempo,,,,,10,1,0,,358422,,,,,,,
22760,set_tempo,,,,,10,1,0,,359496,,,,,,,
22770,set_tempo,,,,,10,1,0,,361663,,,,,,,
22790,set_tempo,,,,,20,1,0,,362756,,,,,,,
22800,note_on,,,,,0,0,1,,,,,0,,,86,74
22800,note_on,,,,,120,0,2,,,,,0,,,66,64
22800,note_on,,,,,120,0,1,,,,,0,,,86,0
22800,note_on,,,,,0,0,1,,,,,0,,,74,0
22800,note_on,,,,,0,0,1,,,,,0,,,74,74
22810,set_tempo,,,,,20,1,0,,363856,,,,,,,
22820,set_tempo,,,,,10,1,0,,364963,,,,,,,
22840,set_tempo,,,,,20,1,0,,367197,,,,,,,
22845,note_on,,,,,0,0,1,,,,,0,,,74,0
22845,note_on,,,,,45,0,1,,,,,0,,,86,0
22850,set_tempo,,,,,10,1,0,,368324,,,,,,,
22855,control_change,,,,,10,0,1,,,,,0,64,0,,
22860,note_on,,,,,5,0,1,,,,,0,,,76,64
22860,note_on,,,,,0,0,1,,,,,0,,,88,64
22905,note_on,,,,,0,0,1,,,,,0,,,76,0
22905,note_on,,,,,45,0,1,,,,,0,,,88,0
22910,set_tempo,,,,,60,1,0,,370599,,,,,,,
22920,set_tempo,,,,,10,1,0,,372902,,,,,,,
22920,note_on,,,,,0,0,1,,,,,0,,,85,58
22920,note_on,,,,,0,0,2,,,,,0,,,58,57
22920,note_on,,,,,120,0,2,,,,,0,,,66,0
22920,note_on,,,,,0,0,2,,,,,0,,,54,0
22920,note_on,,,,,0,0,2,,,,,0,,,54,57
22920,note_on,,,,,0,0,2,,,,,0,,,64,57
22920,note_on,,,,,15,0,1,,,,,0,,,73,58
22960,set_tempo,,,,,40,1,0,,374064,,,,,,,
23040,note_on,,,,,0,0,1,,,,,0,,,73,0
23040,note_on,,,,,0,0,1,,,,,0,,,71,55
23040,note_on,,,,,0,0,1,,,,,0,,,83,55
23040,control_change,,,,,0,0,1,,,,,0,64,95,,
23040,note_on,,,,,0,0,2,,,,,0,,,59,50
23040,note_on,,,,,120,0,1,,,,,0,,,85,0
23040,note_on,,,,,0,0,2,,,,,0,,,54,0
23040,note_on,,,,,0,0,2,,,,,0,,,58,0
23040,note_on,,,,,120,0,2,,,,,0,,,64,0
23040,set_tempo,,,,,80,1,0,,376411,,,,,,,
23050,set_tempo,,,,,10,1,0,,377595,,,,,,,
23110,set_tempo,,,,,60,1,0,,379987,,,,,,,
23155,set_tempo,,,,,45,1,0,,351082,,,,,,,
23160,note_on,,,,,120,0,2,,,,,0,,,62,44
23250,note_on,,,,,0,0,2,,,,,0,,,59,0
23250,note_on,,,,,90,0,2,,,,,0,,,62,0
23250,note_on,,,,,210,0,1,,,,,0,,,83,0
23250,note_on,,,,,0,0,1,,,,,0,,,71,0
23280,note_on,,,,,30,0,1,,,,,0,,,74,65
23280,note_on,,,,,0,0,1,,,,,0,,,66,65
23280,control_change,,,,,0,0,1,,,,,0,64,0,,
23395,set_tempo,,,,,240,1,0,,353148,,,,,,,
23400,note_on,,,,,150,0,2,,,,,0,,,54,58
23400,note_on,,,,,120,0,1,,,,,0,,,82,59
23400,control_change,,,,,0,0,1,,,,,0,64,96,,
23430,set_tempo,,,,,35,1,0,,355239,,,,,,,
23440,set_tempo,,,,,10,1,0,,356294,,,,,,,
23450,set_tempo,,,,,10,1,0,,357355,,,,,,,
23465,set_tempo,,,,,15,1,0,,358422,,,,,,,
23475,set_tempo,,,,,10,1,0,,359496,,,,,,,
23490,set_tempo,,,,,15,1,0,,360576,,,,,,,
23500,set_tempo,,,,,10,1,0,,361663,,,,,,,
23510,set_tempo,,,,,10,1,0,,362756,,,,,,,
23515,set_tempo,,,,,5,1,0,,363856,,,,,,,
23520,note_on,,,,,0,0,1,,,,,0,,,74,43
23520,note_on,,,,,0,0,1,,,,,0,,,66,43
23520,control_change,,,,,0,0,1,,,,,0,64,0,,
23520,note_on,,,,,0,0,1,,,,,0,,,74,0
23520,note_on,,,,,120,0,1,,,,,0,,,66,0
23565,note_on,,,,,0,0,1,,,,,0,,,74,0
23565,note_on,,,,,45,0,1,,,,,0,,,66,0
23580,note_on,,,,,15,0,1,,,,,0,,,76,49
23580,note_on,,,,,0,0,1,,,,,0,,,67,49
23585,set_tempo,,,,,70,1,0,,366076,,,,,,,
23615,set_tempo,,,,,30,1,0,,367197,,,,,,,
23625,note_on,,,,,45,0,1,,,,,0,,,67,0
23625,note_on,,,,,0,0,1,,,,,0,,,76,0
23640,note_on,,,,,15,0,1,,,,,0,,,64,53
23640,note_on,,,,,0,0,1,,,,,0,,,73,53
23645,set_tempo,,,,,30,1,0,,368324,,,,,,,
23655,set_tempo,,,,,10,1,0,,369458,,,,,,,
23690,set_tempo,,,,,35,1,0,,370599,,,,,,,
23710,set_tempo,,,,,20,1,0,,371747,,,,,,,
23720,set_tempo,,,,,10,1,0,,372902,,,,,,,
23730,set_tempo,,,,,10,1,0,,374064,,,,,,,
23740,set_tempo,,,,,10,1,0,,375234,,,,,,,
23750,set_tempo,,,,,10,1,0,,376411,,,,,,,
23760,note_on,,,,,0,0,2,,,,,0,,,59,58
23760,control_change,,,,,0,0,1,,,,,0,64,95,,
23760,note_on,,,,,0,0,1,,,,,0,,,62,46
23760,note_on,,,,,0,0,1,,,,,0,,,71,46
23760,note_on,,,,,0,0,1,,,,,0,,,83,46
23760,note_on,,,,,0,0,1,,,,,0,,,82,0
23760,note_on,,,,,0,0,1,,,,,0,,,64,0
23760,note_on,,,,,120,0,1,,,,,0,,,73,0
23760,note_on,,,,,360,0,2,,,,,0,,,54,0
23785,set_tempo,,,,,35,1,0,,377595,,,,,,,
23850,note_on,,,,,90,0,2,,,,,0,,,59,0
23850,note_on,,,,,0,0,1,,,,,0,,,71,0
23850,note_on,,,,,90,0,1,,,,,0,,,62,0
23880,note_on,,,,,30,0,1,,,,,0,,,71,45
23950,control_change,,,,,70,0,1,,,,,0,64,0,,
23950,set_tempo,,,,,165,1,0,,376411,,,,,,,
23965,set_tempo,,,,,15,1,0,,375234,,,,,,,
23970,note_on,,,,,20,0,1,,,,,0,,,83,0
23995,set_tempo,,,,,30,1,0,,372902,,,,,,,
24000,note_on,,,,,0,0,1,,,,,0,,,74,41
24000,note_on,,,,,30,0,1,,,,,0,,,71,0
24000,note_on,,,,,0,0,1,,,,,0,,,78,65
24000,note_on,,,,,0,0,1,,,,,0,,,90,65
24025,set_tempo,,,,,30,1,0,,371747,,,,,,,
24055,set_tempo,,,,,30,1,0,,369458,,,,,,,
24065,set_tempo,,,,,10,1,0,,368324,,,,,,,
24075,set_tempo,,,,,10,1,0,,366076,,,,,,,
24080,set_tempo,,,,,5,1,0,,364963,,,,,,,
24085,set_tempo,,,,,5,1,0,,363856,,,,,,,
24090,note_on,,,,,90,0,1,,,,,0,,,74,0
24100,set_tempo,,,,,15,1,0,,357355,,,,,,,
24110,set_tempo,,,,,10,1,0,,351082,,,,,,,
24115,set_tempo,,,,,5,1,0,,351082,,,,,,,
24120,note_on,,,,,270,0,2,,,,,0,,,66,58
24120,control_change,,,,,30,0,1,,,,,0,64,96,,
24185,set_tempo,,,,,70,1,0,,352112,,,,,,,
24190,set_tempo,,,,,5,1,0,,353148,,,,,,,
24195,set_tempo,,,,,5,1,0,,354191,,,,,,,
24205,set_tempo,,,,,10,1,0,,355239,,,,,,,
24215,set_tempo,,,,,10,1,0,,356294,,,,,,,
24225,set_tempo,,,,,10,1,0,,357355,,,,,,,
24240,note_on,,,,,0,0,1,,,,,0,,,78,46
24240,set_tempo,,,,,15,1,0,,358422,,,,,,,
24240,note_on,,,,,120,0,1,,,,,0,,,90,0
24240,note_on,,,,,0,0,1,,,,,0,,,78,0
24240,note_on,,,,,0,0,1,,,,,0,,,90,46
24240,note_on,,,,,0,0,1,,,,,0,,,70,45
24245,set_tempo,,,,,5,1,0,,359496,,,,,,,
24260,set_tempo,,,,,15,1,0,,360576,,,,,,,
24270,set_tempo,,,,,10,1,0,,361663,,,,,,,
24285,set_tempo,,,,,15,1,0,,362756,,,,,,,
24285,note_on,,,,,0,0,1,,,,,0,,,78,0
24285,note_on,,,,,45,0,1,,,,,0,,,90,0
24295,set_tempo,,,,,10,1,0,,363856,,,,,,,
24300,set_tempo,,,,,5,1,0,,364963,,,,,,,
24300,note_on,,,,,0,0,1,,,,,0,,,91,47
24300,note_on,,,,,15,0,1,,,,,0,,,79,47
24305,control_change,,,,,5,0,1,,,,,0,64,0,,
24320,set_tempo,,,,,20,1,0,,366076,,,,,,,
24345,set_tempo,,,,,25,1,0,,367197,,,,,,,
24345,note_on,,,,,40,0,1,,,,,0,,,91,0
24345,note_on,,,,,0,0,1,,,,,0,,,79,0
24360,note_on,,,,,0,0,1,,,,,0,,,73,41
24360,note_on,,,,,0,0,1,,,,,0,,,76,55
24360,note_on,,,,,0,0,1,,,,,0,,,88,55
24360,note_on,,,,,15,0,1,,,,,0,,,70,0
24480,control_change,,,,,0,0,1,,,,,0,64,96,,
24480,note_on,,,,,0,0,1,,,,,0,,,86,46
24480,note_on,,,,,0,0,1,,,,,0,,,74,46
24480,note_on,,,,,0,0,1,,,,,0,,,71,45
24480,note_on,,,,,0,0,1,,,,,0,,,73,0
24480,note_on,,,,,120,0,1,,,,,0,,,88,0
24480,note_on,,,,,0,0,2,,,,,0,,,59,44
24480,note_on,,,,,0,0,1,,,,,0,,,76,0
24480,note_on,,,,,360,0,2,,,,,0,,,66,0
24495,set_tempo,,,,,150,1,0,,364963,,,,,,,
24500,set_tempo,,,,,5,1,0,,362756,,,,,,,
24515,set_tempo,,,,,15,1,0,,359496,,,,,,,
24525,set_tempo,,,,,10,1,0,,358422,,,,,,,
24535,set_tempo,,,,,10,1,0,,356294,,,,,,,
24550,set_tempo,,,,,15,1,0,,355239,,,,,,,
24585,set_tempo,,,,,35,1,0,,356294,,,,,,,
24600,set_tempo,,,,,15,1,0,,357355,,,,,,,
24600,note_on,,,,,120,0,2,,,,,0,,,62,35
24600,note_on,,,,,120,0,1,,,,,0,,,71,0
24630,set_tempo,,,,,30,1,0,,358422,,,,,,,
24635,set_tempo,,,,,5,1,0,,359496,,,,,,,
24645,set_tempo,,,,,10,1,0,,360576,,,,,,,
24655,set_tempo,,,,,10,1,0,,361663,,,,,,,
24660,set_tempo,,,,,5,1,0,,362756,,,,,,,
24665,control_change,,,,,65,0,1,,,,,0,64,0,,
24690,note_on,,,,,0,0,1,,,,,0,,,74,0
24690,note_on,,,,,25,0,1,,,,,0,,,86,0
24690,note_on,,,,,0,0,2,,,,,0,,,59,0
24690,note_on,,,,,90,0,2,,,,,0,,,62,0
24690,set_tempo,,,,,30,1,0,,364963,,,,,,,
24705,set_tempo,,,,,15,1,0,,366076,,,,,,,
24710,set_tempo,,,,,5,1,0,,367197,,,,,,,
24720,note_on,,,,,30,0,1,,,,,0,,,74,53
24720,set_tempo,,,,,10,1,0,,351082,,,,,,,
24720,note_on,,,,,0,0,1,,,,,0,,,66,53
24720,control_change,,,,,0,0,1,,,,,0,64,0,,
24725,set_tempo,,,,,5,1,0,,351082,,,,,,,
24735,set_tempo,,,,,10,1,0,,352112,,,,,,,
24765,set_tempo,,,,,30,1,0,,353148,,,,,,,
24785,set_tempo,,,,,20,1,0,,354191,,,,,,,
24795,set_tempo,,,,,10,1,0,,356294,,,,,,,
24815,set_tempo,,,,,20,1,0,,357355,,,,,,,
24840,control_change,,,,,0,0,1,,,,,0,64,96,,
24840,note_on,,,,,150,0,2,,,,,0,,,54,44
24840,note_on,,,,,120,0,1,,,,,0,,,82,45
24845,set_tempo,,,,,30,1,0,,358422,,,,,,,
24855,set_tempo,,,,,10,1,0,,359496,,,,,,,
24865,set_tempo,,,,,10,1,0,,360576,,,,,,,
24880,set_tempo,,,,,15,1,0,,361663,,,,,,,
24890,set_tempo,,,,,10,1,0,,362756,,,,,,,
24900,set_tempo,,,,,10,1,0,,363856,,,,,,,
24910,set_tempo,,,,,10,1,0,,364963,,,,,,,
24945,set_tempo,,,,,35,1,0,,366076,,,,,,,
24960,note_on,,,,,120,0,1,,,,,0,,,66,0
24960,note_on,,,,,0,0,1,,,,,0,,,74,0
24960,note_on,,,,,0,0,1,,,,,0,,,74,33
24960,note_on,,,,,0,0,1,,,,,0,,,66,33
24960,control_change,,,,,0,0,1,,,,,0,64,0,,
24975,set_tempo,,,,,30,1,0,,367197,,,,,,,
25005,note_on,,,,,45,0,1,,,,,0,,,66,0
25005,note_on,,,,,0,0,1,,,,,0,,,74,0
25015,set_tempo,,,,,40,1,0,,368324,,,,,,,
25020,set_tempo,,,,,5,1,0,,369458,,,,,,,
25020,note_on,,,,,0,0,1,,,,,0,,,67,36
25020,note_on,,,,,15,0,1,,,,,0,,,76,36
25065,note_on,,,,,45,0,1,,,,,0,,,67,0
25065,note_on,,,,,0,0,1,,,,,0,,,76,0
25080,note_on,,,,,15,0,1,,,,,0,,,64,39
25080,note_on,,,,,0,0,1,,,,,0,,,73,39
25195,set_tempo,,,,,175,1,0,,372902,,,,,,,
25200,note_on,,,,,0,0,1,,,,,0,,,62,35
25200,note_on,,,,,120,0,1,,,,,0,,,73,0
25200,note_on,,,,,0,0,1,,,,,0,,,71,35
25200,note_on,,,,,0,0,1,,,,,0,,,83,35
25200,note_on,,,,,0,0,1,,,,,0,,,82,0
25200,note_on,,,,,0,0,1,,,,,0,,,64,0
25200,control_change,,,,,0,0,1,,,,,0,64,95,,
25200,note_on,,,,,0,0,2,,,,,0,,,59,39
25200,note_on,,,,,360,0,2,,,,,0,,,54,0
25225,set_tempo,,,,,30,1,0,,377595,,,,,,,
25380,set_tempo,,,,,155,1,0,,461893,,,,,,,
25410,note_on,,,,,0,0,1,,,,,0,,,62,0
25410,note_on,,,,,210,0,1,,,,,0,,,83,0
25410,control_change,,,,,0,0,1,,,,,0,64,0,,
25410,note_on,,,,,210,0,2,,,,,0,,,59,0
25410,note_on,,,,,0,0,1,,,,,0,,,71,0
25440,note_on,,,,,0,0,1,,,,,0,,,62,113
25440,note_on,,,,,30,0,1,,,,,0,,,74,113
25440,set_tempo,,,,,60,1,0,,402955,,,,,,,
25440,note_on,,,,,0,0,2,,,,,0,,,38,113
25440,note_on,,,,,30,0,2,,,,,0,,,50,113
25545,note_on,,,,,105,0,2,,,,,0,,,38,0
25545,note_on,,,,,0,0,2,,,,,0,,,50,0
25545,note_on,,,,,105,0,1,,,,,0,,,62,0
25545,note_on,,,,,0,0,1,,,,,0,,,74,0
25560,note_on,,,,,15,0,1,,,,,0,,,62,120
25560,note_on,,,,,0,0,1,,,,,0,,,74,120
25560,note_on,,,,,0,0,2,,,,,0,,,50,120
25560,note_on,,,,,15,0,2,,,,,0,,,38,120
25560,set_tempo,,,,,120,1,0,,355239,,,,,,,
25570,set_tempo,,,,,10,1,0,,391134,,,,,,,
25590,set_tempo,,,,,20,1,0,,383631,,,,,,,
25610,set_tempo,,,,,20,1,0,,381194,,,,,,,
25620,set_tempo,,,,,10,1,0,,378787,,,,,,,
25640,set_tempo,,,,,20,1,0,,376411,,,,,,,
25680,note_on,,,,,0,0,1,,,,,0,,,62,100
25680,note_on,,,,,0,0,1,,,,,0,,,74,100
25680,note_on,,,,,120,0,2,,,,,0,,,50,0
25680,note_on,,,,,120,0,1,,,,,0,,,74,0
25680,note_on,,,,,0,0,1,,,,,0,,,62,0
25680,note_on,,,,,0,0,2,,,,,0,,,38,0
25680,set_tempo,,,,,40,1,0,,374064,,,,,,,
25680,note_on,,,,,0,0,2,,,,,0,,,50,100
25680,note_on,,,,,0,0,2,,,,,0,,,38,100
25700,set_tempo,,,,,20,1,0,,371747,,,,,,,
25720,set_tempo,,,,,20,1,0,,370599,,,,,,,
25725,note_on,,,,,0,0,1,,,,,0,,,62,0
25725,note_on,,,,,45,0,1,,,,,0,,,74,0
25725,note_on,,,,,45,0,2,,,,,0,,,50,0
25725,note_on,,,,,0,0,2,,,,,0,,,38,0
25740,note_on,,,,,0,0,1,,,,,0,,,74,105
25740,note_on,,,,,15,0,1,,,,,0,,,62,105
25740,note_on,,,,,15,0,2,,,,,0,,,38,105
25740,note_on,,,,,0,0,2,,,,,0,,,50,105
25740,set_tempo,,,,,20,1,0,,368324,,,,,,,
25785,note_on,,,,,0,0,2,,,,,0,,,38,0
25785,note_on,,,,,0,0,1,,,,,0,,,62,0
25785,note_on,,,,,45,0,1,,,,,0,,,74,0
25785,note_on,,,,,45,0,2,,,,,0,,,50,0
25800,note_on,,,,,0,0,2,,,,,0,,,50,110
25800,note_on,,,,,0,0,1,,,,,0,,,74,110
25800,note_on,,,,,15,0,1,,,,,0,,,62,110
25800,note_on,,,,,15,0,2,,,,,0,,,38,110
25800,set_tempo,,,,,60,1,0,,367197,,,,,,,
25810,set_tempo,,,,,10,1,0,,364963,,,,,,,
25845,note_on,,,,,45,0,2,,,,,0,,,50,0
25845,note_on,,,,,0,0,2,,,,,0,,,38,0
25845,note_on,,,,,45,0,1,,,,,0,,,74,0
25845,note_on,,,,,0,0,1,,,,,0,,,62,0
25860,note_on,,,,,0,0,1,,,,,0,,,74,118
25860,note_on,,,,,15,0,1,,,,,0,,,62,118
25860,note_on,,,,,0,0,2,,,,,0,,,50,118
25860,note_on,,,,,15,0,2,,,,,0,,,38,118
25870,set_tempo,,,,,60,1,0,,363856,,,,,,,
25880,set_tempo,,,,,10,1,0,,362756,,,,,,,
25905,note_on,,,,,0,0,2,,,,,0,,,38,0
25905,note_on,,,,,45,0,2,,,,,0,,,50,0
25905,note_on,,,,,0,0,1,,,,,0,,,62,0
25905,note_on,,,,,0,0,1,,,,,0,,,74,119
25905,note_on,,,,,45,0,1,,,,,0,,,74,0
25910,set_tempo,,,,,30,1,0,,594648,,,,,,,
25920,set_tempo,,,,,10,1,0,,362756,,,,,,,
25920,note_on,,,,,0,0,2,,,,,0,,,50,122
25920,note_on,,,,,0,0,1,,,,,0,,,74,122
25920,note_on,,,,,0,0,1,,,,,0,,,72,122
25920,note_on,,,,,15,0,2,,,,,0,,,38,122
25920,note_on,,,,,15,0,1,,,,,0,,,74,0
25920,note_on,,,,,0,0,2,,,,,0,,,48,122
25920,note_on,,,,,0,0,1,,,,,0,,,62,122
25980,set_tempo,,,,,60,1,0,,360576,,,,,,,
26020,set_tempo,,,,,40,1,0,,361663,,,,,,,
26025,note_on,,,,,0,0,1,,,,,0,,,72,0
26025,note_on,,,,,105,0,1,,,,,0,,,74,0
26025,note_on,,,,,0,0,2,,,,,0,,,38,0
26025,note_on,,,,,0,0,2,,,,,0,,,48,0
26025,note_on,,,,,105,0,2,,,,,0,,,50,0
26025,note_on,,,,,0,0,1,,,,,0,,,62,0
26040,note_on,,,,,0,0,2,,,,,0,,,48,115
26040,note_on,,,,,0,0,2,,,,,0,,,50,115
26040,note_on,,,,,15,0,1,,,,,0,,,62,115
26040,note_on,,,,,0,0,1,,,,,0,,,74,115
26040,note_on,,,,,15,0,2,,,,,0,,,38,115
26040,note_on,,,,,0,0,1,,,,,0,,,72,115
26145,note_on,,,,,105,0,2,,,,,0,,,50,0
26145,note_on,,,,,0,0,2,,,,,0,,,48,0
26145,note_on,,,,,0,0,2,,,,,0,,,38,0
26145,note_on,,,,,0,0,1,,,,,0,,,62,0
26145,note_on,,,,,0,0,1,,,,,0,,,72,0
26145,note_on,,,,,105,0,1,,,,,0,,,74,0
26160,note_on,,,,,0,0,1,,,,,0,,,72,105
26160,note_on,,,,,15,0,1,,,,,0,,,62,105
26160,set_tempo,,,,,140,1,0,,362756,,,,,,,
26160,note_on,,,,,15,0,2,,,,,0,,,38,105
26160,note_on,,,,,0,0,2,,,,,0,,,48,105
26160,note_on,,,,,0,0,2,,,,,0,,,50,105
26160,note_on,,,,,0,0,1,,,,,0,,,74,105
26180,set_tempo,,,,,20,1,0,,363856,,,,,,,
26240,set_tempo,,,,,60,1,0,,364963,,,,,,,
26265,note_on,,,,,105,0,2,,,,,0,,,50,0
26265,note_on,,,,,0,0,2,,,,,0,,,48,0
26265,note_on,,,,,105,0,1,,,,,0,,,74,0
26265,note_on,,,,,0,0,1,,,,,0,,,72,119
26265,note_on,,,,,0,0,1,,,,,0,,,62,0
26265,note_on,,,,,0,0,1,,,,,0,,,72,0
26265,note_on,,,,,0,0,2,,,,,0,,,38,0
26270,set_tempo,,,,,30,1,0,,600600,,,,,,,
26280,note_on,,,,,0,0,2,,,,,0,,,46,101
26280,note_on,,,,,0,0,2,,,,,0,,,50,101
26280,note_on,,,,,0,0,1,,,,,0,,,74,101
26280,note_on,,,,,0,0,1,,,,,0,,,70,101
26280,note_on,,,,,0,0,1,,,,,0,,,62,101
26280,note_on,,,,,15,0,1,,,,,0,,,72,0
26280,set_tempo,,,,,10,1,0,,366076,,,,,,,
26280,note_on,,,,,15,0,2,,,,,0,,,38,101
26320,set_tempo,,,,,40,1,0,,366076,,,,,,,
26380,set_tempo,,,,,60,1,0,,367197,,,,,,,
26385,note_on,,,,,105,0,1,,,,,0,,,74,0
26385,note_on,,,,,0,0,1,,,,,0,,,70,119
26385,note_on,,,,,0,0,1,,,,,0,,,62,0
26385,note_on,,,,,0,0,1,,,,,0,,,70,0
26385,note_on,,,,,105,0,2,,,,,0,,,50,0
26385,note_on,,,,,0,0,2,,,,,0,,,38,0
26385,note_on,,,,,0,0,2,,,,,0,,,46,0
26390,set_tempo,,,,,10,1,0,,597609,,,,,,,
26400,note_on,,,,,0,0,2,,,,,0,,,45,104
26400,note_on,,,,,0,0,1,,,,,0,,,69,104
26400,note_on,,,,,0,0,2,,,,,0,,,50,104
26400,set_tempo,,,,,10,1,0,,367197,,,,,,,
26400,note_on,,,,,15,0,1,,,,,0,,,70,0
26400,note_on,,,,,0,0,1,,,,,0,,,62,104
26400,note_on,,,,,15,0,2,,,,,0,,,38,104
26400,note_on,,,,,0,0,1,,,,,0,,,74,104
26505,note_on,,,,,105,0,1,,,,,0,,,74,0
26505,note_on,,,,,0,0,1,,,,,0,,,69,0
26505,note_on,,,,,0,0,1,,,,,0,,,62,0
26505,note_on,,,,,105,0,2,,,,,0,,,50,0
26505,note_on,,,,,0,0,2,,,,,0,,,45,0
26505,note_on,,,,,0,0,1,,,,,0,,,69,119
26505,note_on,,,,,0,0,2,,,,,0,,,38,0
26510,set_tempo,,,,,110,1,0,,594648,,,,,,,
26520,note_on,,,,,0,0,1,,,,,0,,,74,108
26520,note_on,,,,,0,0,2,,,,,0,,,43,108
26520,note_on,,,,,0,0,2,,,,,0,,,50,108
26520,set_tempo,,,,,10,1,0,,367197,,,,,,,
26520,note_on,,,,,15,0,2,,,,,0,,,38,108
26520,note_on,,,,,0,0,1,,,,,0,,,67,108
26520,note_on,,,,,0,0,1,,,,,0,,,62,108
26520,note_on,,,,,15,0,1,,,,,0,,,69,0
26560,set_tempo,,,,,40,1,0,,370599,,,,,,,
26625,note_on,,,,,105,0,2,,,,,0,,,50,0
26625,note_on,,,,,0,0,2,,,,,0,,,43,0
26625,note_on,,,,,0,0,2,,,,,0,,,38,0
26625,note_on,,,,,0,0,1,,,,,0,,,67,0
26625,note_on,,,,,0,0,1,,,,,0,,,62,0
26625,note_on,,,,,105,0,1,,,,,0,,,74,0
26625,note_on,,,,,0,0,1,,,,,0,,,67,119
26630,set_tempo,,,,,70,1,0,,600600,,,,,,,
26640,note_on,,,,,0,0,2,,,,,0,,,50,113
26640,set_tempo,,,,,10,1,0,,372902,,,,,,,
26640,note_on,,,,,15,0,1,,,,,0,,,67,0
26640,note_on,,,,,0,0,1,,,,,0,,,65,113
26640,note_on,,,,,0,0,1,,,,,0,,,74,113
26640,note_on,,,,,15,0,2,,,,,0,,,38,113
26640,note_on,,,,,0,0,2,,,,,0,,,41,113
26650,set_tempo,,,,,10,1,0,,371747,,,,,,,
26745,note_on,,,,,0,0,2,,,,,0,,,41,0
26745,note_on,,,,,0,0,2,,,,,0,,,38,0
26745,note_on,,,,,0,0,1,,,,,0,,,65,0
26745,note_on,,,,,105,0,1,,,,,0,,,74,0
26745,note_on,,,,,0,0,1,,,,,0,,,65,119
26745,note_on,,,,,105,0,2,,,,,0,,,50,0
26750,set_tempo,,,,,100,1,0,,600600,,,,,,,
26760,note_on,,,,,15,0,1,,,,,0,,,65,0
26760,note_on,,,,,0,0,1,,,,,0,,,64,119
26760,note_on,,,,,0,0,1,,,,,0,,,74,119
26760,note_on,,,,,0,0,2,,,,,0,,,50,119
26760,note_on,,,,,15,0,2,,,,,0,,,38,119
26760,note_on,,,,,0,0,2,,,,,0,,,40,119
26760,set_tempo,,,,,10,1,0,,371747,,,,,,,
26865,note_on,,,,,105,0,2,,,,,0,,,50,0
26865,note_on,,,,,0,0,2,,,,,0,,,40,0
26865,note_on,,,,,0,0,2,,,,,0,,,38,0
26865,note_on,,,,,0,0,1,,,,,0,,,64,119
26865,note_on,,,,,0,0,1,,,,,0,,,64,0
26865,note_on,,,,,105,0,1,,,,,0,,,74,0
26870,set_tempo,,,,,110,1,0,,600600,,,,,,,
26880,note_on,,,,,15,0,1,,,,,0,,,64,0
26880,set_tempo,,,,,10,1,0,,372902,,,,,,,
26880,note_on,,,,,0,0,2,,,,,0,,,50,127
26880,note_on,,,,,15,0,2,,,,,0,,,38,127
26880,note_on,,,,,0,0,1,,,,,0,,,62,127
26880,note_on,,,,,0,0,1,,,,,0,,,74,127
26970,set_tempo,,,,,90,1,0,,428877,,,,,,,
26985,note_on,,,,,0,0,1,,,,,0,,,62,0
26985,note_on,,,,,0,0,2,,,,,0,,,38,0
26985,note_on,,,,,105,0,2,,,,,0,,,50,0
26985,note_on,,,,,105,0,1,,,,,0,,,74,0
26990,set_tempo,,,,,20,1,0,,597609,,,,,,,
27000,note_on,,,,,15,0,1,,,,,0,,,62,125
27000,note_on,,,,,0,0,1,,,,,0,,,68,125
27000,note_on,,,,,0,0,1,,,,,0,,,74,125
27000,control_change,,,,,0,0,1,,,,,0,64,95,,
27000,note_on,,,,,0,0,2,,,,,0,,,46,122
27000,note_on,,,,,15,0,2,,,,,0,,,34,122
27000,set_tempo,,,,,10,1,0,,359496,,,,,,,
27010,set_tempo,,,,,10,1,0,,371747,,,,,,,
27040,set_tempo,,,,,30,1,0,,378787,,,,,,,
27050,set_tempo,,,,,10,1,0,,381194,,,,,,,
27060,set_tempo,,,,,10,1,0,,388601,,,,,,,
27070,set_tempo,,,,,10,1,0,,389863,,,,,,,
27090,set_tempo,,,,,20,1,0,,397614,,,,,,,
27090,note_on,,,,,0,0,1,,,,,0,,,68,0
27090,note_on,,,,,90,0,1,,,,,0,,,74,0
27090,note_on,,,,,90,0,2,,,,,0,,,46,0
27090,note_on,,,,,0,0,2,,,,,0,,,34,0
27090,note_on,,,,,0,0,1,,,,,0,,,62,0
27100,set_tempo,,,,,10,1,0,,407055,,,,,,,
27110,set_tempo,,,,,10,1,0,,409836,,,,,,,
27120,note_on,,,,,30,0,2,,,,,0,,,34,122
27120,note_on,,,,,0,0,2,,,,,0,,,46,122
27120,note_on,,,,,30,0,1,,,,,0,,,62,123
27120,note_on,,,,,0,0,1,,,,,0,,,74,123
27120,set_tempo,,,,,10,1,0,,412654,,,,,,,
27120,note_on,,,,,0,0,1,,,,,0,,,68,123
27130,set_tempo,,,,,10,1,0,,419874,,,,,,,
27140,set_tempo,,,,,10,1,0,,425833,,,,,,,
27150,set_tempo,,,,,10,1,0,,430416,,,,,,,
27160,set_tempo,,,,,10,1,0,,439882,,,,,,,
27165,note_on,,,,,45,0,2,,,,,0,,,46,0
27165,note_on,,,,,0,0,2,,,,,0,,,34,0
27165,note_on,,,,,45,0,1,,,,,0,,,74,0
27165,note_on,,,,,0,0,1,,,,,0,,,68,0
27165,note_on,,,,,0,0,1,,,,,0,,,62,0
27170,set_tempo,,,,,10,1,0,,446428,,,,,,,
27180,note_on,,,,,0,0,1,,,,,0,,,74,127
27180,note_on,,,,,0,0,1,,,,,0,,,68,127
27180,note_on,,,,,15,0,1,,,,,0,,,62,127
27180,set_tempo,,,,,10,1,0,,454890,,,,,,,
27180,note_on,,,,,15,0,2,,,,,0,,,34,125
27180,note_on,,,,,0,0,2,,,,,0,,,46,125
27190,set_tempo,,,,,10,1,0,,461893,,,,,,,
27200,set_tempo,,,,,10,1,0,,472813,,,,,,,
27210,set_tempo,,,,,10,1,0,,476568,,,,,,,
27220,set_tempo,,,,,10,1,0,,492206,,,,,,,
27225,note_on,,,,,0,0,1,,,,,0,,,62,0
27225,note_on,,,,,0,0,1,,,,,0,,,68,0
27225,note_on,,,,,45,0,1,,,,,0,,,74,0
27225,note_on,,,,,0,0,2,,,,,0,,,34,0
27225,note_on,,,,,45,0,2,,,,,0,,,46,0
27230,set_tempo,,,,,10,1,0,,498338,,,,,,,
27240,note_on,,,,,0,0,1,,,,,0,,,74,127
27240,note_on,,,,,15,0,2,,,,,0,,,34,126
27240,note_on,,,,,0,0,2,,,,,0,,,46,126
27240,set_tempo,,,,,10,1,0,,511073,,,,,,,
27240,note_on,,,,,0,0,1,,,,,0,,,68,127
27240,note_on,,,,,15,0,1,,,,,0,,,62,127
27250,set_tempo,,,,,10,1,0,,515463,,,,,,,
27260,set_tempo,,,,,10,1,0,,513259,,,,,,,
27270,set_tempo,,,,,10,1,0,,524475,,,,,,,
27280,set_tempo,,,,,10,1,0,,553505,,,,,,,
27285,note_on,,,,,0,0,1,,,,,0,,,62,0
27285,note_on,,,,,0,0,2,,,,,0,,,34,0
27285,note_on,,,,,45,0,2,,,,,0,,,46,0
27285,note_on,,,,,45,0,1,,,,,0,,,74,0
27285,note_on,,,,,0,0,1,,,,,0,,,68,0
27290,set_tempo,,,,,10,1,0,,638977,,,,,,,
27300,note_on,,,,,0,0,1,,,,,0,,,74,127
27300,note_on,,,,,0,0,1,,,,,0,,,68,127
27300,note_on,,,,,15,0,2,,,,,0,,,34,127
27300,set_tempo,,,,,10,1,0,,635593,,,,,,,
27300,note_on,,,,,15,0,1,,,,,0,,,62,127
27300,note_on,,,,,0,0,2,,,,,0,,,46,127
27340,set_tempo,,,,,40,1,0,,864553,,,,,,,
27345,note_on,,,,,0,0,2,,,,,0,,,34,0
27345,note_on,,,,,45,0,1,,,,,0,,,74,0
27345,note_on,,,,,0,0,1,,,,,0,,,68,0
27345,note_on,,,,,0,0,1,,,,,0,,,62,0
27345,note_on,,,,,45,0,2,,,,,0,,,46,0
27350,control_change,,,,,5,0,1,,,,,0,64,0,,
27360,note_on,,,,,0,0,1,,,,,0,,,76,127
27360,note_on,,,,,0,0,1,,,,,0,,,73,127
27360,note_on,,,,,15,0,2,,,,,0,,,33,127
27360,note_on,,,,,10,0,1,,,,,0,,,64,127
27360,note_on,,,,,0,0,2,,,,,0,,,45,127
27360,note_on,,,,,0,0,1,,,,,0,,,69,127
27360,control_change,,,,,0,0,1,,,,,0,64,96,,
27370,set_tempo,,,,,30,1,0,,597609,,,,,,,
27570,set_tempo,,,,,200,1,0,,352112,,,,,,,
27630,note_on,,,,,0,0,1,,,,,0,,,73,0
27630,note_on,,,,,270,0,2,,,,,0,,,45,0
27630,note_on,,,,,0,0,1,,,,,0,,,64,0
27630,note_on,,,,,270,0,1,,,,,0,,,76,0
27630,note_on,,,,,0,0,2,,,,,0,,,33,0
27630,note_on,,,,,0,0,1,,,,,0,,,69,0
27630,control_change,,,,,0,0,1,,,,,0,64,0,,
27670,set_tempo,,,,,100,1,0,,790513,,,,,,,
27680,set_tempo,,,,,10,1,0,,795755,,,,,,,
27700,set_tempo,,,,,20,1,0,,801068,,,,,,,
27720,set_tempo,,,,,20,1,0,,375234,,,,,,,
27720,note_on,,,,,90,0,1,,,,,0,,,56,55
27720,note_on,,,,,0,0,1,,,,,0,,,65,55
27720,note_on,,,,,90,0,2,,,,,0,,,46,56
27720,note_on,,,,,0,0,2,,,,,0,,,50,56
27720,control_change,,,,,0,0,1,,,,,0,64,95,,
27730,set_tempo,,,,,10,1,0,,376411,,,,,,,
27760,set_tempo,,,,,30,1,0,,386100,,,,,,,
27820,set_tempo,,,,,60,1,0,,393700,,,,,,,
27830,set_tempo,,,,,10,1,0,,394996,,,,,,,
27835,control_change,,,,,115,0,1,,,,,0,64,0,,
27840,note_on,,,,,0,0,1,,,,,0,,,56,45
27840,note_on,,,,,5,0,1,,,,,0,,,65,0
27840,note_on,,,,,0,0,1,,,,,0,,,56,0
27840,note_on,,,,,120,0,2,,,,,0,,,50,0
27840,note_on,,,,,0,0,1,,,,,0,,,64,45
27840,note_on,,,,,0,0,2,,,,,0,,,46,0
27840,note_on,,,,,0,0,2,,,,,0,,,52,48
27840,note_on,,,,,0,0,2,,,,,0,,,46,48
27860,set_tempo,,,,,30,1,0,,397614,,,,,,,
27870,set_tempo,,,,,10,1,0,,400266,,,,,,,
27880,set_tempo,,,,,10,1,0,,402955,,,,,,,
27885,note_on,,,,,0,0,1,,,,,0,,,56,0
27885,note_on,,,,,45,0,1,,,,,0,,,64,0
27885,note_on,,,,,0,0,2,,,,,0,,,52,0
27885,note_on,,,,,45,0,2,,,,,0,,,46,0
27890,set_tempo,,,,,10,1,0,,404312,,,,,,,
27900,note_on,,,,,0,0,1,,,,,0,,,64,43
27900,note_on,,,,,15,0,1,,,,,0,,,56,43
27900,note_on,,,,,15,0,2,,,,,0,,,52,46
27900,note_on,,,,,0,0,2,,,,,0,,,46,46
27910,set_tempo,,,,,20,1,0,,405679,,,,,,,
27920,set_tempo,,,,,10,1,0,,408441,,,,,,,
27940,set_tempo,,,,,20,1,0,,411240,,,,,,,
27945,note_on,,,,,0,0,1,,,,,0,,,56,0
27945,note_on,,,,,45,0,1,,,,,0,,,64,0
27945,note_on,,,,,45,0,2,,,,,0,,,46,0
27945,note_on,,,,,0,0,2,,,,,0,,,52,0
27960,note_on,,,,,15,0,2,,,,,0,,,53,42
27960,note_on,,,,,0,0,2,,,,,0,,,46,42
27960,set_tempo,,,,,20,1,0,,422832,,,,,,,
27960,note_on,,,,,15,0,1,,,,,0,,,56,37
27960,note_on,,,,,0,0,1,,,,,0,,,62,37
27980,set_tempo,,,,,20,1,0,,425833,,,,,,,
27990,set_tempo,,,,,10,1,0,,430416,,,,,,,
28000,set_tempo,,,,,10,1,0,,433526,,,,,,,
28005,note_on,,,,,45,0,2,,,,,0,,,46,0
28005,note_on,,,,,0,0,2,,,,,0,,,53,0
28005,note_on,,,,,45,0,1,,,,,0,,,62,0
28005,note_on,,,,,0,0,1,,,,,0,,,56,0
28020,note_on,,,,,15,0,1,,,,,0,,,56,34
28020,note_on,,,,,0,0,1,,,,,0,,,62,34
28020,note_on,,,,,0,0,2,,,,,0,,,46,39
28020,note_on,,,,,15,0,2,,,,,0,,,53,39
28060,set_tempo,,,,,60,1,0,,436681,,,,,,,
28065,note_on,,,,,45,0,1,,,,,0,,,62,0
28065,note_on,,,,,0,0,1,,,,,0,,,56,0
28065,note_on,,,,,0,0,2,,,,,0,,,53,0
28065,note_on,,,,,45,0,2,,,,,0,,,46,0
28070,set_tempo,,,,,10,1,0,,446428,,,,,,,
28080,note_on,,,,,0,0,2,,,,,0,,,49,34
28080,control_change,,,,,0,0,1,,,,,0,64,95,,
28080,note_on,,,,,0,0,1,,,,,0,,,64,32
28080,note_on,,,,,15,0,2,,,,,0,,,45,34
28080,note_on,,,,,15,0,1,,,,,0,,,57,32
28090,set_tempo,,,,,20,1,0,,448095,,,,,,,
28110,set_tempo,,,,,20,1,0,,458365,,,,,,,
28170,set_tempo,,,,,60,1,0,,472813,,,,,,,
28180,set_tempo,,,,,10,1,0,,476568,,,,,,,
28210,set_tempo,,,,,30,1,0,,480384,,,,,,,
28230,set_tempo,,,,,20,1,0,,484261,,,,,,,
28240,set_tempo,,,,,10,1,0,,488201,,,,,,,
28270,set_tempo,,,,,30,1,0,,490196,,,,,,,
28350,note_on,,,,,0,0,2,,,,,0,,,45,0
28350,note_on,,,,,0,0,1,,,,,0,,,57,0
28350,note_on,,,,,270,0,1,,,,,0,,,64,0
28350,note_on,,,,,270,0,2,,,,,0,,,49,0
28365,control_change,,,,,15,0,1,,,,,0,64,0,,
28410,set_tempo,,,,,140,1,0,,671140,,,,,,,
28410,note_on,,,,,60,0,2,,,,,0,,,49,80
28410,control_change,,,,,45,0,1,,,,,0,64,95,,
28420,note_on,,,,,10,0,2,,,,,0,,,55,80
28430,note_on,,,,,10,0,2,,,,,0,,,58,80
28440,note_on,,,,,0,0,1,,,,,0,,,76,90
28440,note_on,,,,,0,0,1,,,,,0,,,70,90
28440,note_on,,,,,30,0,1,,,,,0,,,67,90
28440,note_on,,,,,10,0,2,,,,,0,,,64,80
28450,set_tempo,,,,,40,1,0,,353148,,,,,,,
28460,set_tempo,,,,,10,1,0,,376411,,,,,,,
28500,set_tempo,,,,,40,1,0,,375234,,,,,,,
28500,note_on,,,,,60,0,2,,,,,0,,,49,0
28510,set_tempo,,,,,10,1,0,,374064,,,,,,,
28510,note_on,,,,,10,0,2,,,,,0,,,55,0
28520,note_on,,,,,10,0,2,,,,,0,,,58,0
28530,note_on,,,,,0,0,1,,,,,0,,,70,0
28530,note_on,,,,,90,0,1,,,,,0,,,76,0
28530,note_on,,,,,10,0,2,,,,,0,,,64,0
28530,note_on,,,,,0,0,1,,,,,0,,,67,0
28540,set_tempo,,,,,30,1,0,,372902,,,,,,,
28560,note_on,,,,,0,0,1,,,,,0,,,76,58
28560,note_on,,,,,0,0,1,,,,,0,,,70,58
28560,note_on,,,,,30,0,1,,,,,0,,,67,58
28560,note_on,,,,,0,0,2,,,,,0,,,64,58
28560,note_on,,,,,30,0,2,,,,,0,,,55,58
28560,set_tempo,,,,,20,1,0,,371747,,,,,,,
28560,note_on,,,,,0,0,2,,,,,0,,,58,58
28605,note_on,,,,,0,0,1,,,,,0,,,70,0
28605,note_on,,,,,45,0,2,,,,,0,,,64,0
28605,note_on,,,,,0,0,2,,,,,0,,,58,0
28605,note_on,,,,,0,0,2,,,,,0,,,55,0
28605,note_on,,,,,0,0,1,,,,,0,,,67,0
28605,note_on,,,,,45,0,1,,,,,0,,,76,0
28620,note_on,,,,,0,0,2,,,,,0,,,58,64
28620,note_on,,,,,0,0,2,,,,,0,,,64,64
28620,note_on,,,,,15,0,2,,,,,0,,,55,64
28620,note_on,,,,,0,0,1,,,,,0,,,70,64
28620,note_on,,,,,0,0,1,,,,,0,,,76,64
28620,set_tempo,,,,,60,1,0,,369458,,,,,,,
28620,note_on,,,,,15,0,1,,,,,0,,,67,64
28640,set_tempo,,,,,20,1,0,,368324,,,,,,,
28660,set_tempo,,,,,20,1,0,,367197,,,,,,,
28665,note_on,,,,,45,0,2,,,,,0,,,64,0
28665,note_on,,,,,0,0,2,,,,,0,,,55,0
28665,note_on,,,,,0,0,2,,,,,0,,,58,0
28665,note_on,,,,,0,0,1,,,,,0,,,67,0
28665,note_on,,,,,0,0,1,,,,,0,,,70,0
28665,note_on,,,,,45,0,1,,,,,0,,,76,0
28680,note_on,,,,,0,0,2,,,,,0,,,58,67
28680,note_on,,,,,0,0,1,,,,,0,,,76,67
28680,note_on,,,,,0,0,1,,,,,0,,,70,67
28680,note_on,,,,,15,0,1,,,,,0,,,67,67
28680,note_on,,,,,0,0,2,,,,,0,,,64,67
28680,note_on,,,,,15,0,2,,,,,0,,,55,67
28690,set_tempo,,,,,30,1,0,,366076,,,,,,,
28710,set_tempo,,,,,20,1,0,,363856,,,,,,,
28725,note_on,,,,,0,0,2,,,,,0,,,58,0
28725,note_on,,,,,45,0,1,,,,,0,,,76,0
28725,note_on,,,,,0,0,1,,,,,0,,,70,0
28725,note_on,,,,,0,0,1,,,,,0,,,67,0
28725,note_on,,,,,45,0,2,,,,,0,,,64,0
28725,note_on,,,,,0,0,2,,,,,0,,,55,0
28740,note_on,,,,,0,0,1,,,,,0,,,76,75
28740,note_on,,,,,15,0,2,,,,,0,,,55,75
28740,note_on,,,,,0,0,2,,,,,0,,,58,75
28740,note_on,,,,,0,0,2,,,,,0,,,64,75
28740,note_on,,,,,0,0,1,,,,,0,,,70,75
28740,note_on,,,,,15,0,1,,,,,0,,,67,75
28770,set_tempo,,,,,60,1,0,,362756,,,,,,,
28780,set_tempo,,,,,10,1,0,,360576,,,,,,,
28785,note_on,,,,,45,0,2,,,,,0,,,64,0
28785,note_on,,,,,0,0,1,,,,,0,,,70,0
28785,note_on,,,,,0,0,2,,,,,0,,,55,0
28785,note_on,,,,,0,0,2,,,,,0,,,58,0
28785,note_on,,,,,0,0,1,,,,,0,,,67,0
28785,note_on,,,,,45,0,1,,,,,0,,,76,0
28795,control_change,,,,,10,0,1,,,,,0,64,0,,
28800,control_change,,,,,0,0,1,,,,,0,64,96,,
28800,note_on,,,,,0,0,1,,,,,0,,,76,85
28800,note_on,,,,,5,0,1,,,,,0,,,67,85
28800,note_on,,,,,15,0,2,,,,,0,,,55,84
28800,note_on,,,,,0,0,2,,,,,0,,,64,84
28800,note_on,,,,,0,0,2,,,,,0,,,50,84
28800,note_on,,,,,0,0,2,,,,,0,,,57,84
28800,note_on,,,,,0,0,1,,,,,0,,,69,85
28840,set_tempo,,,,,60,1,0,,359496,,,,,,,
28850,set_tempo,,,,,10,1,0,,358422,,,,,,,
28870,set_tempo,,,,,20,1,0,,357355,,,,,,,
28890,set_tempo,,,,,20,1,0,,355239,,,,,,,
28920,control_change,,,,,0,0,1,,,,,0,64,0,,
28920,note_on,,,,,0,0,1,,,,,0,,,74,64
28920,note_on,,,,,0,0,1,,,,,0,,,66,64
28920,note_on,,,,,0,0,1,,,,,0,,,67,0
28920,note_on,,,,,120,0,1,,,,,0,,,76,0
28920,note_on,,,,,120,0,2,,,,,0,,,64,0
28920,note_on,,,,,0,0,2,,,,,0,,,54,65
28920,note_on,,,,,0,0,2,,,,,0,,,55,0
28920,note_on,,,,,0,0,2,,,,,0,,,62,65
28970,set_tempo,,,,,80,1,0,,356294,,,,,,,
29000,set_tempo,,,,,30,1,0,,358422,,,,,,,
29010,note_on,,,,,90,0,2,,,,,0,,,62,0
29010,note_on,,,,,0,0,1,,,,,0,,,66,0
29010,note_on,,,,,0,0,2,,,,,0,,,54,0
29010,set_tempo,,,,,10,1,0,,359496,,,,,,,
29010,note_on,,,,,90,0,1,,,,,0,,,74,0
29030,set_tempo,,,,,20,1,0,,360576,,,,,,,
29040,note_on,,,,,0,0,2,,,,,0,,,57,59
29040,note_on,,,,,0,0,2,,,,,0,,,54,59
29040,note_on,,,,,0,0,1,,,,,0,,,66,59
29040,note_on,,,,,0,0,1,,,,,0,,,69,59
29040,note_on,,,,,30,0,1,,,,,0,,,69,0
29040,note_on,,,,,30,0,2,,,,,0,,,50,0
29040,set_tempo,,,,,10,1,0,,362756,,,,,,,
29040,note_on,,,,,0,0,2,,,,,0,,,57,0
29090,set_tempo,,,,,50,1,0,,364963,,,,,,,
29120,set_tempo,,,,,30,1,0,,367197,,,,,,,
29160,note_on,,,,,120,0,1,,,,,0,,,61,73
29160,control_change,,,,,0,0,1,,,,,0,64,96,,
29160,note_on,,,,,120,0,2,,,,,0,,,45,67
29160,set_tempo,,,,,40,1,0,,369458,,,,,,,
29200,set_tempo,,,,,40,1,0,,370599,,,,,,,
29220,set_tempo,,,,,20,1,0,,371747,,,,,,,
29230,set_tempo,,,,,10,1,0,,372902,,,,,,,
29280,note_on,,,,,0,0,2,,,,,0,,,57,0
29280,note_on,,,,,120,0,2,,,,,0,,,54,0
29280,note_on,,,,,0,0,2,,,,,0,,,57,58
29280,note_on,,,,,0,0,1,,,,,0,,,69,0
29280,note_on,,,,,120,0,1,,,,,0,,,66,0
29280,note_on,,,,,0,0,1,,,,,0,,,66,60
29280,set_tempo,,,,,50,1,0,,375234,,,,,,,
29280,note_on,,,,,0,0,1,,,,,0,,,69,60
29280,note_on,,,,,0,0,2,,,,,0,,,54,58
29280,control_change,,,,,0,0,1,,,,,0,64,0,,
29325,note_on,,,,,0,0,2,,,,,0,,,57,0
29325,note_on,,,,,45,0,2,,,,,0,,,54,0
29325,note_on,,,,,45,0,1,,,,,0,,,66,0
29325,note_on,,,,,0,0,1,,,,,0,,,69,0
29340,note_on,,,,,0,0,1,,,,,0,,,67,56
29340,note_on,,,,,15,0,2,,,,,0,,,59,55
29340,note_on,,,,,15,0,1,,,,,0,,,71,56
29340,note_on,,,,,0,0,2,,,,,0,,,55,55
29385,note_on,,,,,45,0,2,,,,,0,,,55,0
29385,note_on,,,,,0,0,2,,,,,0,,,59,0
29385,note_on,,,,,0,0,1,,,,,0,,,71,0
29385,note_on,,,,,45,0,1,,,,,0,,,67,0
29400,note_on,,,,,0,0,2,,,,,0,,,55,53
29400,note_on,,,,,15,0,2,,,,,0,,,52,53
29400,note_on,,,,,0,0,1,,,,,0,,,67,50
29400,note_on,,,,,15,0,1,,,,,0,,,64,50
29520,note_on,,,,,0,0,2,,,,,0,,,45,0
29520,note_on,,,,,0,0,2,,,,,0,,,52,0
29520,note_on,,,,,120,0,2,,,,,0,,,55,0
29520,set_tempo,,,,,240,1,0,,351082,,,,,,,
29520,note_on,,,,,0,0,2,,,,,0,,,50,46
29520,note_on,,,,,120,0,1,,,,,0,,,67,0
29520,note_on,,,,,0,0,1,,,,,0,,,64,0
29520,note_on,,,,,0,0,1,,,,,0,,,61,0
29520,note_on,,,,,0,0,1,,,,,0,,,66,37
29520,note_on,,,,,0,0,1,,,,,0,,,62,37
29520,control_change,,,,,0,0,1,,,,,0,64,95,,
29520,note_on,,,,,0,0,2,,,,,0,,,54,46
29540,set_tempo,,,,,20,1,0,,349040,,,,,,,
29570,set_tempo,,,,,30,1,0,,348027,,,,,,,
29590,set_tempo,,,,,20,1,0,,347021,,,,,,,
29670,set_tempo,,,,,80,1,0,,346020,,,,,,,
29680,set_tempo,,,,,10,1,0,,345025,,,,,,,
29730,note_on,,,,,0,0,1,,,,,0,,,66,0
29730,note_on,,,,,0,0,2,,,,,0,,,54,0
29730,note_on,,,,,210,0,1,,,,,0,,,62,0
29730,note_on,,,,,210,0,2,,,,,0,,,50,0
29760,note_on,,,,,30,0,2,,,,,0,,,57,79
29760,note_on,,,,,0,0,2,,,,,0,,,54,79
29760,note_on,,,,,30,0,1,,,,,0,,,66,75
29760,note_on,,,,,0,0,1,,,,,0,,,69,75
29850,note_on,,,,,0,0,2,,,,,0,,,57,0
29850,set_tempo,,,,,170,1,0,,663716,,,,,,,
29850,note_on,,,,,0,0,2,,,,,0,,,49,98
29850,control_change,,,,,90,0,1,,,,,0,64,96,,
29850,note_on,,,,,90,0,2,,,,,0,,,54,0
29860,note_on,,,,,10,0,2,,,,,0,,,55,101
29860,set_tempo,,,,,10,1,0,,663716,,,,,,,
29870,note_on,,,,,10,0,2,,,,,0,,,58,103
29880,note_on,,,,,30,0,1,,,,,0,,,69,0
29880,note_on,,,,,0,0,1,,,,,0,,,79,95
29880,note_on,,,,,0,0,1,,,,,0,,,67,95
29880,note_on,,,,,0,0,1,,,,,0,,,70,95
29880,note_on,,,,,0,0,1,,,,,0,,,66,0
29880,set_tempo,,,,,20,1,0,,490196,,,,,,,
29880,note_on,,,,,10,0,2,,,,,0,,,64,104
29890,set_tempo,,,,,10,1,0,,353148,,,,,,,
29940,note_on,,,,,60,0,2,,,,,0,,,49,0
29950,note_on,,,,,10,0,2,,,,,0,,,55,0
29960,note_on,,,,,10,0,2,,,,,0,,,58,0
29970,note_on,,,,,0,0,1,,,,,0,,,79,0
29970,note_on,,,,,10,0,2,,,,,0,,,64,0
29970,note_on,,,,,0,0,1,,,,,0,,,67,0
29970,note_on,,,,,90,0,1,,,,,0,,,70,0
29990,set_tempo,,,,,100,1,0,,372902,,,,,,,
30000,note_on,,,,,0,0,2,,,,,0,,,58,83
30000,note_on,,,,,0,0,1,,,,,0,,,70,78
30000,note_on,,,,,30,0,1,,,,,0,,,79,78
30000,note_on,,,,,0,0,1,,,,,0,,,67,78
30000,set_tempo,,,,,10,1,0,,370599,,,,,,,
30000,note_on,,,,,0,0,2,,,,,0,,,64,83
30000,note_on,,,,,30,0,2,,,,,0,,,55,83
30010,set_tempo,,,,,10,1,0,,378787,,,,,,,
30045,note_on,,,,,45,0,2,,,,,0,,,64,0
30045,note_on,,,,,0,0,2,,,,,0,,,58,0
30045,note_on,,,,,0,0,2,,,,,0,,,55,0
30045,note_on,,,,,0,0,1,,,,,0,,,79,0
30045,note_on,,,,,0,0,1,,,,,0,,,67,0
30045,note_on,,,,,45,0,1,,,,,0,,,70,0
30060,note_on,,,,,0,0,1,,,,,0,,,67,84
30060,note_on,,,,,15,0,1,,,,,0,,,79,84
30060,note_on,,,,,0,0,1,,,,,0,,,70,84
30060,note_on,,,,,0,0,2,,,,,0,,,58,89
30060,note_on,,,,,15,0,2,,,,,0,,,55,89
30060,note_on,,,,,0,0,2,,,,,0,,,64,89
30080,set_tempo,,,,,70,1,0,,376411,,,,,,,
30090,set_tempo,,,,,10,1,0,,374064,,,,,,,
30105,note_on,,,,,45,0,1,,,,,0,,,70,0
30105,note_on,,,,,0,0,2,,,,,0,,,55,0
30105,note_on,,,,,45,0,2,,,,,0,,,64,0
30105,note_on,,,,,0,0,1,,,,,0,,,67,0
30105,note_on,,,,,0,0,1,,,,,0,,,79,0
30105,note_on,,,,,0,0,2,,,,,0,,,58,0
30120,note_on,,,,,0,0,2,,,,,0,,,64,94
30120,note_on,,,,,0,0,2,,,,,0,,,58,94
30120,note_on,,,,,15,0,1,,,,,0,,,79,89
30120,note_on,,,,,0,0,1,,,,,0,,,67,89
30120,note_on,,,,,0,0,1,,,,,0,,,70,89
30120,note_on,,,,,15,0,2,,,,,0,,,55,94
30150,set_tempo,,,,,60,1,0,,371747,,,,,,,
30165,note_on,,,,,45,0,1,,,,,0,,,70,0
30165,note_on,,,,,0,0,1,,,,,0,,,67,0
30165,note_on,,,,,0,0,1,,,,,0,,,79,0
30165,note_on,,,,,0,0,2,,,,,0,,,55,0
30165,note_on,,,,,0,0,2,,,,,0,,,58,0
30165,note_on,,,,,45,0,2,,,,,0,,,64,0
30180,note_on,,,,,15,0,2,,,,,0,,,55,96
30180,note_on,,,,,0,0,2,,,,,0,,,58,96
30180,note_on,,,,,15,0,1,,,,,0,,,79,92
30180,note_on,,,,,0,0,1,,,,,0,,,67,92
30180,note_on,,,,,0,0,1,,,,,0,,,70,92
30180,note_on,,,,,0,0,2,,,,,0,,,64,96
30210,set_tempo,,,,,60,1,0,,369458,,,,,,,
30225,note_on,,,,,0,0,2,,,,,0,,,55,0
30225,note_on,,,,,0,0,2,,,,,0,,,58,0
30225,note_on,,,,,45,0,2,,,,,0,,,64,0
30225,note_on,,,,,45,0,1,,,,,0,,,70,0
30225,note_on,,,,,0,0,1,,,,,0,,,79,0
30225,note_on,,,,,0,0,1,,,,,0,,,67,0
30230,set_tempo,,,,,20,1,0,,367197,,,,,,,
30235,control_change,,,,,10,0,1,,,,,0,64,0,,
30240,note_on,,,,,0,0,2,,,,,0,,,64,99
30240,note_on,,,,,0,0,2,,,,,0,,,57,99
30240,note_on,,,,,15,0,2,,,,,0,,,55,99
30240,note_on,,,,,0,0,2,,,,,0,,,50,99
30240,note_on,,,,,5,0,1,,,,,0,,,79,95
30240,note_on,,,,,0,0,1,,,,,0,,,67,95
30240,note_on,,,,,0,0,1,,,,,0,,,69,95
30240,control_change,,,,,0,0,1,,,,,0,64,96,,
30250,set_tempo,,,,,20,1,0,,364963,,,,,,,
30270,set_tempo,,,,,20,1,0,,360576,,,,,,,
30280,set_tempo,,,,,10,1,0,,353148,,,,,,,
30310,set_tempo,,,,,30,1,0,,354191,,,,,,,
30330,set_tempo,,,,,20,1,0,,356294,,,,,,,
30350,set_tempo,,,,,20,1,0,,360576,,,,,,,
30360,note_on,,,,,0,0,1,,,,,0,,,78,87
30360,note_on,,,,,0,0,1,,,,,0,,,66,87
30360,note_on,,,,,0,0,2,,,,,0,,,54,99
30360,control_change,,,,,0,0,1,,,,,0,64,0,,
30360,note_on,,,,,0,0,1,,,,,0,,,79,0
30360,note_on,,,,,120,0,2,,,,,0,,,64,0
30360,note_on,,,,,0,0,2,,,,,0,,,55,0
30360,note_on,,,,,120,0,1,,,,,0,,,67,0
30360,note_on,,,,,0,0,2,,,,,0,,,62,99
30380,set_tempo,,,,,30,1,0,,362756,,,,,,,
30400,set_tempo,,,,,20,1,0,,369458,,,,,,,
30420,set_tempo,,,,,20,1,0,,371747,,,,,,,
30430,set_tempo,,,,,10,1,0,,372902,,,,,,,
30450,note_on,,,,,90,0,2,,,,,0,,,62,0
30450,note_on,,,,,0,0,1,,,,,0,,,78,0
30450,note_on,,,,,0,0,2,,,,,0,,,54,0
30450,note_on,,,,,90,0,1,,,,,0,,,66,0
30460,set_tempo,,,,,30,1,0,,374064,,,,,,,
30470,set_tempo,,,,,10,1,0,,381194,,,,,,,
30480,note_on,,,,,0,0,1,,,,,0,,,69,79
30480,note_on,,,,,0,0,1,,,,,0,,,66,79
30480,note_on,,,,,0,0,2,,,,,0,,,54,85
30480,note_on,,,,,0,0,2,,,,,0,,,57,0
30480,note_on,,,,,30,0,2,,,,,0,,,50,0
30480,note_on,,,,,0,0,1,,,,,0,,,78,79
30480,note_on,,,,,30,0,1,,,,,0,,,69,0
30480,note_on,,,,,0,0,2,,,,,0,,,57,85
30510,set_tempo,,,,,40,1,0,,383631,,,,,,,
30550,set_tempo,,,,,40,1,0,,386100,,,,,,,
30560,set_tempo,,,,,10,1,0,,388601,,,,,,,
30580,set_tempo,,,,,20,1,0,,389863,,,,,,,
30590,set_tempo,,,,,10,1,0,,391134,,,,,,,
30600,note_on,,,,,120,0,2,,,,,0,,,45,80
30600,control_change,,,,,120,0,1,,,,,0,64,96,,
30630,set_tempo,,,,,40,1,0,,392413,,,,,,,
30640,set_tempo,,,,,10,1,0,,394996,,,,,,,
30650,set_tempo,,,,,10,1,0,,396301,,,,,,,
30660,set_tempo,,,,,10,1,0,,397614,,,,,,,
30670,set_tempo,,,,,10,1,0,,398936,,,,,,,
30690,set_tempo,,,,,20,1,0,,400266,,,,,,,
30710,set_tempo,,,,,20,1,0,,401606,,,,,,,
30720,note_on,,,,,120,0,1,,,,,0,,,66,0
30720,note_on,,,,,0,0,1,,,,,0,,,69,0
30720,note_on,,,,,0,0,1,,,,,0,,,78,0
30720,note_on,,,,,0,0,1,,,,,0,,,78,81
30720,note_on,,,,,0,0,1,,,,,0,,,69,81
30720,note_on,,,,,0,0,1,,,,,0,,,66,81
30720,control_change,,,,,0,0,1,,,,,0,64,0,,
30765,note_on,,,,,0,0,1,,,,,0,,,78,0
30765,note_on,,,,,0,0,1,,,,,0,,,69,0
30765,note_on,,,,,45,0,1,,,,,0,,,66,0
30780,note_on,,,,,0,0,1,,,,,0,,,67,75
30780,note_on,,,,,0,0,1,,,,,0,,,71,75
30780,note_on,,,,,15,0,1,,,,,0,,,79,75
30825,note_on,,,,,0,0,1,,,,,0,,,71,0
30825,note_on,,,,,45,0,1,,,,,0,,,67,0
30825,note_on,,,,,0,0,1,,,,,0,,,79,0
30840,note_on,,,,,0,0,2,,,,,0,,,54,0
30840,note_on,,,,,240,0,2,,,,,0,,,45,0
30840,note_on,,,,,0,0,2,,,,,0,,,57,53
30840,note_on,,,,,0,0,2,,,,,0,,,55,53
30840,note_on,,,,,0,0,1,,,,,0,,,67,69
30840,note_on,,,,,15,0,1,,,,,0,,,64,69
30840,note_on,,,,,0,0,2,,,,,0,,,57,0
30840,note_on,,,,,0,0,1,,,,,0,,,76,69
30840,note_on,,,,,0,0,2,,,,,0,,,45,53
30940,set_tempo,,,,,230,1,0,,402955,,,,,,,
30960,note_on,,,,,0,0,2,,,,,0,,,50,46
30960,note_on,,,,,120,0,2,,,,,0,,,55,0
30960,note_on,,,,,0,0,2,,,,,0,,,57,0
30960,note_on,,,,,0,0,2,,,,,0,,,45,0
30960,note_on,,,,,0,0,2,,,,,0,,,57,46
30960,note_on,,,,,0,0,2,,,,,0,,,54,46
30960,set_tempo,,,,,20,1,0,,400266,,,,,,,
30960,control_change,,,,,0,0,1,,,,,0,64,95,,
30960,note_on,,,,,0,0,1,,,,,0,,,62,44
30960,note_on,,,,,0,0,1,,,,,0,,,66,44
30960,note_on,,,,,0,0,1,,,,,0,,,74,44
30960,note_on,,,,,0,0,1,,,,,0,,,64,0
30960,note_on,,,,,0,0,1,,,,,0,,,67,0
30960,note_on,,,,,120,0,1,,,,,0,,,76,0
30970,set_tempo,,,,,10,1,0,,333518,,,,,,,
30980,set_tempo,,,,,10,1,0,,352112,,,,,,,
31170,set_tempo,,,,,190,1,0,,746268,,,,,,,
31170,note_on,,,,,210,0,1,,,,,0,,,62,0
31170,note_on,,,,,0,0,1,,,,,0,,,66,0
31170,note_on,,,,,0,0,1,,,,,0,,,74,0
31170,control_change,,,,,0,0,1,,,,,0,64,0,,
31170,note_on,,,,,0,0,2,,,,,0,,,54,0
31170,note_on,,,,,0,0,2,,,,,0,,,57,0
31170,note_on,,,,,210,0,2,,,,,0,,,50,0
31200,control_change,,,,,30,0,1,,,,,0,91,96,,
31200,set_tempo,,,,,30,1,0,,353148,,,,,,,
31200,control_change,,,,,30,0,2,,,,,0,91,96,,
31200,note_on,,,,,0,0,2,,,,,0,,,54,52
31200,note_on,,,,,0,0,1,,,,,0,,,66,46
31300,set_tempo,,,,,100,1,0,,398936,,,,,,,
31320,note_on,,,,,0,0,1,,,,,0,,,74,48
31320,note_on,,,,,120,0,2,,,,,0,,,54,0
31320,note_on,,,,,0,0,2,,,,,0,,,47,51
31320,note_on,,,,,0,0,2,,,,,0,,,54,51
31320,note_on,,,,,0,0,2,,,,,0,,,59,51
31320,note_on,,,,,0,0,1,,,,,0,,,62,48
31320,note_on,,,,,120,0,1,,,,,0,,,66,0
31320,control_change,,,,,0,0,1,,,,,0,64,96,,
31320,set_tempo,,,,,20,1,0,,333518,,,,,,,
31320,note_on,,,,,0,0,1,,,,,0,,,66,48
31330,set_tempo,,,,,10,1,0,,354191,,,,,,,
31410,note_on,,,,,0,0,1,,,,,0,,,66,0
31410,note_on,,,,,0,0,2,,,,,0,,,47,0
31410,note_on,,,,,0,0,2,,,,,0,,,54,0
31410,note_on,,,,,90,0,2,,,,,0,,,59,0
31410,note_on,,,,,0,0,1,,,,,0,,,62,0
31410,note_on,,,,,90,0,1,,,,,0,,,74,0
31440,note_on,,,,,0,0,1,,,,,0,,,66,41
31440,note_on,,,,,0,0,1,,,,,0,,,74,41
31440,note_on,,,,,30,0,1,,,,,0,,,62,41
31440,note_on,,,,,0,0,2,,,,,0,,,54,37
31440,note_on,,,,,0,0,2,,,,,0,,,59,37
31440,note_on,,,,,30,0,2,,,,,0,,,47,37
31485,note_on,,,,,45,0,2,,,,,0,,,59,0
31485,note_on,,,,,0,0,2,,,,,0,,,54,0
31485,note_on,,,,,0,0,2,,,,,0,,,47,0
31485,note_on,,,,,45,0,1,,,,,0,,,74,0
31485,note_on,,,,,0,0,1,,,,,0,,,66,0
31485,note_on,,,,,0,0,1,,,,,0,,,62,0
31500,note_on,,,,,0,0,2,,,,,0,,,59,40
31500,note_on,,,,,0,0,2,,,,,0,,,54,40
31500,note_on,,,,,15,0,2,,,,,0,,,47,40
31500,note_on,,,,,15,0,1,,,,,0,,,62,47
31500,note_on,,,,,0,0,1,,,,,0,,,74,47
31500,note_on,,,,,0,0,1,,,,,0,,,66,47
31545,note_on,,,,,45,0,1,,,,,0,,,74,0
31545,note_on,,,,,0,0,1,,,,,0,,,66,0
31545,note_on,,,,,0,0,1,,,,,0,,,62,0
31545,note_on,,,,,0,0,2,,,,,0,,,47,0
31545,note_on,,,,,45,0,2,,,,,0,,,59,0
31545,note_on,,,,,0,0,2,,,,,0,,,54,0
31560,note_on,,,,,15,0,1,,,,,0,,,62,50
31560,note_on,,,,,0,0,1,,,,,0,,,66,50
31560,note_on,,,,,0,0,1,,,,,0,,,74,50
31560,note_on,,,,,0,0,2,,,,,0,,,54,45
31560,note_on,,,,,15,0,2,,,,,0,,,47,45
31560,note_on,,,,,0,0,2,,,,,0,,,59,45
31605,note_on,,,,,0,0,1,,,,,0,,,66,0
31605,note_on,,,,,0,0,1,,,,,0,,,62,0
31605,note_on,,,,,45,0,1,,,,,0,,,74,0
31605,note_on,,,,,45,0,2,,,,,0,,,59,0
31605,note_on,,,,,0,0,2,,,,,0,,,54,0
31605,note_on,,,,,0,0,2,,,,,0,,,47,0
31620,note_on,,,,,15,0,1,,,,,0,,,62,51
31620,note_on,,,,,0,0,1,,,,,0,,,74,51
31620,note_on,,,,,0,0,1,,,,,0,,,66,51
31620,note_on,,,,,15,0,2,,,,,0,,,47,47
31620,note_on,,,,,0,0,2,,,,,0,,,54,47
31620,note_on,,,,,0,0,2,,,,,0,,,59,47
31665,note_on,,,,,45,0,1,,,,,0,,,74,0
31665,note_on,,,,,0,0,1,,,,,0,,,67,60
31665,note_on,,,,,0,0,1,,,,,0,,,66,0
31665,note_on,,,,,45,0,2,,,,,0,,,59,0
31665,note_on,,,,,0,0,1,,,,,0,,,62,0
31665,note_on,,,,,0,0,2,,,,,0,,,47,0
31665,note_on,,,,,0,0,2,,,,,0,,,55,60
31665,note_on,,,,,0,0,2,,,,,0,,,54,0
31670,set_tempo,,,,,340,1,0,,741656,,,,,,,
31675,control_change,,,,,10,0,1,,,,,0,64,0,,
31680,note_on,,,,,0,0,2,,,,,0,,,59,52
31680,note_on,,,,,0,0,2,,,,,0,,,54,52
31680,note_on,,,,,0,0,2,,,,,0,,,50,52
31680,note_on,,,,,15,0,2,,,,,0,,,55,0
31680,set_tempo,,,,,10,1,0,,354191,,,,,,,
31680,note_on,,,,,5,0,1,,,,,0,,,67,0
31680,note_on,,,,,0,0,1,,,,,0,,,66,60
31680,note_on,,,,,0,0,1,,,,,0,,,62,60
31680,note_on,,,,,0,0,1,,,,,0,,,71,60
31680,control_change,,,,,0,0,1,,,,,0,64,95,,
31770,note_on,,,,,0,0,1,,,,,0,,,66,0
31770,note_on,,,,,0,0,1,,,,,0,,,62,0
31770,note_on,,,,,90,0,1,,,,,0,,,71,0
31770,note_on,,,,,0,0,2,,,,,0,,,54,0
31770,note_on,,,,,90,0,2,,,,,0,,,59,0
31770,note_on,,,,,0,0,2,,,,,0,,,50,0
31800,note_on,,,,,0,0,2,,,,,0,,,54,50
31800,note_on,,,,,0,0,1,,,,,0,,,71,47
31800,note_on,,,,,0,0,1,,,,,0,,,66,47
31800,note_on,,,,,30,0,2,,,,,0,,,50,50
31800,note_on,,,,,30,0,1,,,,,0,,,62,47
31800,note_on,,,,,0,0,2,,,,,0,,,59,50
31890,note_on,,,,,0,0,2,,,,,0,,,50,0
31890,note_on,,,,,0,0,2,,,,,0,,,54,0
31890,note_on,,,,,90,0,2,,,,,0,,,59,0
31890,note_on,,,,,90,0,1,,,,,0,,,71,0
31890,note_on,,,,,0,0,1,,,,,0,,,66,0
31890,note_on,,,,,0,0,1,,,,,0,,,62,0
31920,note_on,,,,,30,0,2,,,,,0,,,50,44
31920,note_on,,,,,30,0,1,,,,,0,,,62,38
31920,note_on,,,,,0,0,1,,,,,0,,,66,38
31920,note_on,,,,,0,0,1,,,,,0,,,71,38
31920,note_on,,,,,0,0,2,,,,,0,,,54,44
31920,note_on,,,,,0,0,2,,,,,0,,,59,44
32010,note_on,,,,,0,0,1,,,,,0,,,66,0
32010,set_tempo,,,,,330,1,0,,545950,,,,,,,
32010,note_on,,,,,0,0,2,,,,,0,,,50,0
32010,note_on,,,,,90,0,1,,,,,0,,,71,0
32010,note_on,,,,,0,0,1,,,,,0,,,62,0
32010,note_on,,,,,0,0,2,,,,,0,,,54,0
32010,note_on,,,,,0,0,1,,,,,0,,,58,54
32010,note_on,,,,,90,0,2,,,,,0,,,59,0
32035,control_change,,,,,25,0,1,,,,,0,64,0,,
32040,note_on,,,,,5,0,1,,,,,0,,,66,38
32040,note_on,,,,,0,0,1,,,,,0,,,64,38
32040,set_tempo,,,,,30,1,0,,354191,,,,,,,
32040,note_on,,,,,30,0,2,,,,,0,,,42,55
32040,note_on,,,,,0,0,2,,,,,0,,,54,55
32040,note_on,,,,,0,0,1,,,,,0,,,73,38
32040,control_change,,,,,0,0,1,,,,,0,64,95,,
32100,note_on,,,,,60,0,1,,,,,0,,,58,0
32110,set_tempo,,,,,70,1,0,,356294,,,,,,,
32120,set_tempo,,,,,10,1,0,,357355,,,,,,,
32130,set_tempo,,,,,10,1,0,,358422,,,,,,,
32130,note_on,,,,,0,0,1,,,,,0,,,73,0
32130,note_on,,,,,0,0,1,,,,,0,,,64,0
32130,note_on,,,,,0,0,2,,,,,0,,,42,0
32130,note_on,,,,,90,0,2,,,,,0,,,54,0
32130,note_on,,,,,30,0,1,,,,,0,,,66,0
32140,set_tempo,,,,,10,1,0,,359496,,,,,,,
32150,set_tempo,,,,,10,1,0,,362756,,,,,,,
32160,note_on,,,,,30,0,1,,,,,0,,,64,47
32160,note_on,,,,,0,0,1,,,,,0,,,66,47
32160,note_on,,,,,0,0,1,,,,,0,,,73,47
32160,set_tempo,,,,,10,1,0,,363856,,,,,,,
32160,note_on,,,,,0,0,2,,,,,0,,,58,39
32160,note_on,,,,,30,0,2,,,,,0,,,54,39
32180,set_tempo,,,,,20,1,0,,366076,,,,,,,
32190,set_tempo,,,,,10,1,0,,368324,,,,,,,
32200,set_tempo,,,,,10,1,0,,369458,,,,,,,
32205,note_on,,,,,0,0,2,,,,,0,,,54,0
32205,note_on,,,,,45,0,2,,,,,0,,,58,0
32205,note_on,,,,,45,0,1,,,,,0,,,73,0
32205,note_on,,,,,0,0,1,,,,,0,,,66,0
32205,note_on,,,,,0,0,1,,,,,0,,,64,0
32220,note_on,,,,,0,0,1,,,,,0,,,66,50
32220,note_on,,,,,0,0,2,,,,,0,,,58,45
32220,note_on,,,,,15,0,2,,,,,0,,,54,45
32220,note_on,,,,,0,0,1,,,,,0,,,73,50
32220,note_on,,,,,15,0,1,,,,,0,,,64,50
32265,note_on,,,,,0,0,2,,,,,0,,,54,0
32265,note_on,,,,,45,0,2,,,,,0,,,58,0
32265,note_on,,,,,0,0,1,,,,,0,,,64,0
32265,note_on,,,,,0,0,1,,,,,0,,,66,0
32265,note_on,,,,,45,0,1,,,,,0,,,73,0
32280,note_on,,,,,0,0,2,,,,,0,,,58,49
32280,note_on,,,,,15,0,2,,,,,0,,,54,49
32280,note_on,,,,,0,0,1,,,,,0,,,73,52
32280,note_on,,,,,0,0,1,,,,,0,,,66,52
32280,note_on,,,,,15,0,1,,,,,0,,,64,52
32325,note_on,,,,,45,0,1,,,,,0,,,73,0
32325,note_on,,,,,0,0,1,,,,,0,,,66,0
32325,note_on,,,,,0,0,1,,,,,0,,,64,0
32325,note_on,,,,,45,0,2,,,,,0,,,58,0
32325,note_on,,,,,0,0,2,,,,,0,,,54,0
32340,note_on,,,,,15,0,1,,,,,0,,,64,53
32340,note_on,,,,,0,0,1,,,,,0,,,73,53
32340,note_on,,,,,15,0,2,,,,,0,,,54,53
32340,note_on,,,,,0,0,2,,,,,0,,,58,53
32340,note_on,,,,,0,0,1,,,,,0,,,66,53
32380,set_tempo,,,,,180,1,0,,369458,,,,,,,
32385,note_on,,,,,45,0,2,,,,,0,,,58,0
32385,note_on,,,,,0,0,2,,,,,0,,,55,54
32385,note_on,,,,,0,0,2,,,,,0,,,54,0
32385,note_on,,,,,45,0,1,,,,,0,,,73,0
32385,note_on,,,,,0,0,1,,,,,0,,,66,0
32385,note_on,,,,,0,0,1,,,,,0,,,64,0
32385,note_on,,,,,0,0,1,,,,,0,,,67,54
32390,set_tempo,,,,,10,1,0,,746268,,,,,,,
32395,control_change,,,,,10,0,1,,,,,0,64,0,,
32400,note_on,,,,,15,0,2,,,,,0,,,55,0
32400,set_tempo,,,,,10,1,0,,346020,,,,,,,
32400,note_on,,,,,0,0,1,,,,,0,,,66,56
32400,control_change,,,,,0,0,1,,,,,0,64,95,,
32400,note_on,,,,,0,0,2,,,,,0,,,49,55
32400,note_on,,,,,5,0,1,,,,,0,,,67,0
32400,note_on,,,,,0,0,2,,,,,0,,,54,55
32400,note_on,,,,,0,0,1,,,,,0,,,58,56
32400,note_on,,,,,0,0,1,,,,,0,,,64,56
32405,set_tempo,,,,,5,1,0,,357355,,,,,,,
32580,set_tempo,,,,,175,1,0,,367197,,,,,,,
32640,set_tempo,,,,,60,1,0,,366076,,,,,,,
32660,set_tempo,,,,,20,1,0,,364963,,,,,,,
32730,note_on,,,,,330,0,2,,,,,0,,,54,0
32730,note_on,,,,,0,0,2,,,,,0,,,49,0
32730,note_on,,,,,0,0,1,,,,,0,,,58,0
32730,note_on,,,,,0,0,1,,,,,0,,,64,0
32730,note_on,,,,,330,0,1,,,,,0,,,66,0
32740,set_tempo,,,,,80,1,0,,603621,,,,,,,
32755,control_change,,,,,25,0,1,,,,,0,64,0,,
32760,note_on,,,,,30,0,2,,,,,0,,,47,127
32760,note_on,,,,,0,0,2,,,,,0,,,50,127
32760,note_on,,,,,0,0,2,,,,,0,,,54,127
32760,note_on,,,,,0,0,1,,,,,0,,,66,127
32760,set_tempo,,,,,20,1,0,,362756,,,,,,,
32760,note_on,,,,,5,0,1,,,,,0,,,59,127
32760,note_on,,,,,0,0,1,,,,,0,,,62,127
32760,note_on,,,,,0,0,1,,,,,0,,,71,127
32760,control_change,,,,,0,0,1,,,,,0,64,96,,
32770,set_tempo,,,,,10,1,0,,361663,,,,,,,
32830,set_tempo,,,,,60,1,0,,359496,,,,,,,
32840,set_tempo,,,,,10,1,0,,358422,,,,,,,
32850,control_change,,,,,90,0,1,,,,,0,64,0,,
32880,note_on,,,,,0,0,2,,,,,0,,,47,99
32880,note_on,,,,,0,0,1,,,,,0,,,70,100
32880,note_on,,,,,0,0,1,,,,,0,,,58,100
32880,note_on,,,,,0,0,1,,,,,0,,,66,0
32880,note_on,,,,,0,0,1,,,,,0,,,62,0
32880,note_on,,,,,0,0,1,,,,,0,,,59,0
32880,note_on,,,,,30,0,1,,,,,0,,,71,0
32880,note_on,,,,,0,0,2,,,,,0,,,47,0
32880,note_on,,,,,0,0,2,,,,,0,,,50,0
32880,note_on,,,,,120,0,2,,,,,0,,,54,0
32880,note_on,,,,,0,0,2,,,,,0,,,50,99
32880,set_tempo,,,,,40,1,0,,357355,,,,,,,
32880,note_on,,,,,0,0,2,,,,,0,,,54,99
32900,set_tempo,,,,,20,1,0,,356294,,,,,,,
32925,note_on,,,,,0,0,2,,,,,0,,,47,0
32925,note_on,,,,,45,0,1,,,,,0,,,70,0
32925,note_on,,,,,0,0,1,,,,,0,,,58,0
32925,note_on,,,,,0,0,2,,,,,0,,,50,0
32925,note_on,,,,,45,0,2,,,,,0,,,54,0
32930,set_tempo,,,,,30,1,0,,354191,,,,,,,
32940,note_on,,,,,15,0,2,,,,,0,,,47,95
32940,note_on,,,,,0,0,2,,,,,0,,,50,95
32940,note_on,,,,,0,0,1,,,,,0,,,71,95
32940,note_on,,,,,15,0,1,,,,,0,,,59,95
32940,note_on,,,,,0,0,2,,,,,0,,,54,95
32985,note_on,,,,,0,0,2,,,,,0,,,47,0
32985,note_on,,,,,45,0,1,,,,,0,,,71,0
32985,note_on,,,,,0,0,1,,,,,0,,,59,0
32985,note_on,,,,,0,0,2,,,,,0,,,50,0
32985,note_on,,,,,45,0,2,,,,,0,,,54,0
32990,set_tempo,,,,,60,1,0,,353148,,,,,,,
33000,note_on,,,,,15,0,2,,,,,0,,,47,104
33000,note_on,,,,,0,0,2,,,,,0,,,50,104
33000,note_on,,,,,0,0,2,,,,,0,,,54,104
33000,note_on,,,,,15,0,1,,,,,0,,,59,104
33000,note_on,,,,,0,0,1,,,,,0,,,71,104
33045,note_on,,,,,45,0,1,,,,,0,,,71,0
33045,note_on,,,,,0,0,1,,,,,0,,,59,0
33045,note_on,,,,,45,0,2,,,,,0,,,54,0
33045,note_on,,,,,0,0,2,,,,,0,,,50,0
33045,note_on,,,,,0,0,2,,,,,0,,,47,0
33050,set_tempo,,,,,60,1,0,,351082,,,,,,,
33060,note_on,,,,,0,0,1,,,,,0,,,73,117
33060,note_on,,,,,15,0,1,,,,,0,,,61,117
33060,note_on,,,,,0,0,2,,,,,0,,,50,117
33060,set_tempo,,,,,10,1,0,,350058,,,,,,,
33060,note_on,,,,,0,0,2,,,,,0,,,54,117
33060,note_on,,,,,15,0,2,,,,,0,,,47,117
33070,set_tempo,,,,,10,1,0,,349040,,,,,,,
33090,set_tempo,,,,,20,1,0,,348027,,,,,,,
33105,note_on,,,,,0,0,1,,,,,0,,,61,0
33105,note_on,,,,,0,0,2,,,,,0,,,47,0
33105,note_on,,,,,0,0,2,,,,,0,,,50,0
33105,note_on,,,,,45,0,2,,,,,0,,,54,0
33105,note_on,,,,,45,0,1,,,,,0,,,73,0
33115,control_change,,,,,10,0,1,,,,,0,64,0,,
33120,note_on,,,,,0,0,2,,,,,0,,,55,127
33120,note_on,,,,,15,0,2,,,,,0,,,43,127
33120,note_on,,,,,0,0,2,,,,,0,,,47,127
33120,note_on,,,,,0,0,2,,,,,0,,,50,127
33120,control_change,,,,,0,0,1,,,,,0,64,96,,
33120,note_on,,,,,0,0,1,,,,,0,,,74,127
33120,note_on,,,,,5,0,1,,,,,0,,,62,127
33140,set_tempo,,,,,50,1,0,,355239,,,,,,,
33150,set_tempo,,,,,10,1,0,,360576,,,,,,,
33160,set_tempo,,,,,10,1,0,,361663,,,,,,,
33180,set_tempo,,,,,20,1,0,,363856,,,,,,,
33190,set_tempo,,,,,10,1,0,,367197,,,,,,,
33210,note_on,,,,,90,0,2,,,,,0,,,55,0
33210,note_on,,,,,0,0,2,,,,,0,,,47,0
33210,note_on,,,,,0,0,2,,,,,0,,,43,0
33210,note_on,,,,,90,0,1,,,,,0,,,74,0
33210,note_on,,,,,0,0,2,,,,,0,,,50,0
33210,note_on,,,,,0,0,1,,,,,0,,,62,0
33220,set_tempo,,,,,30,1,0,,370599,,,,,,,
33230,set_tempo,,,,,10,1,0,,371747,,,,,,,
33240,set_tempo,,,,,10,1,0,,372902,,,,,,,
33240,note_on,,,,,0,0,1,,,,,0,,,74,115
33240,note_on,,,,,0,0,2,,,,,0,,,55,118
33240,note_on,,,,,0,0,2,,,,,0,,,50,118
33240,note_on,,,,,0,0,2,,,,,0,,,47,118
33240,note_on,,,,,30,0,1,,,,,0,,,62,115
33240,note_on,,,,,30,0,2,,,,,0,,,43,118
33250,set_tempo,,,,,10,1,0,,375234,,,,,,,
33260,set_tempo,,,,,10,1,0,,376411,,,,,,,
33270,set_tempo,,,,,10,1,0,,379987,,,,,,,
33290,set_tempo,,,,,20,1,0,,381194,,,,,,,
33300,set_tempo,,,,,10,1,0,,384862,,,,,,,
33320,set_tempo,,,,,20,1,0,,387346,,,,,,,
33330,note_on,,,,,90,0,1,,,,,0,,,74,0
33330,note_on,,,,,0,0,2,,,,,0,,,50,0
33330,note_on,,,,,0,0,2,,,,,0,,,47,0
33330,note_on,,,,,0,0,2,,,,,0,,,43,0
33330,note_on,,,,,90,0,2,,,,,0,,,55,0
33330,note_on,,,,,0,0,1,,,,,0,,,62,0
33340,set_tempo,,,,,20,1,0,,394996,,,,,,,
33350,set_tempo,,,,,10,1,0,,397614,,,,,,,
33360,note_on,,,,,30,0,2,,,,,0,,,43,99
33360,note_on,,,,,30,0,1,,,,,0,,,62,100
33360,note_on,,,,,0,0,1,,,,,0,,,74,100
33360,note_on,,,,,0,0,2,,,,,0,,,50,99
33360,note_on,,,,,0,0,2,,,,,0,,,47,99
33360,set_tempo,,,,,10,1,0,,398936,,,,,,,
33360,note_on,,,,,0,0,2,,,,,0,,,55,99
33370,set_tempo,,,,,10,1,0,,401606,,,,,,,
33380,set_tempo,,,,,10,1,0,,407055,,,,,,,
33390,set_tempo,,,,,10,1,0,,414078,,,,,,,
33400,set_tempo,,,,,10,1,0,,415512,,,,,,,
33410,set_tempo,,,,,10,1,0,,421348,,,,,,,
33420,set_tempo,,,,,10,1,0,,427350,,,,,,,
33450,note_on,,,,,0,0,1,,,,,0,,,62,0
33450,note_on,,,,,0,0,2,,,,,0,,,50,0
33450,note_on,,,,,90,0,1,,,,,0,,,74,0
33450,note_on,,,,,0,0,2,,,,,0,,,43,0
33450,note_on,,,,,0,0,2,,,,,0,,,47,0
33450,note_on,,,,,90,0,2,,,,,0,,,55,0
33450,set_tempo,,,,,30,1,0,,433526,,,,,,,
33475,control_change,,,,,25,0,1,,,,,0,64,0,,
33480,note_on,,,,,0,0,2,,,,,0,,,52,108
33480,note_on,,,,,0,0,2,,,,,0,,,49,108
33480,note_on,,,,,0,0,2,,,,,0,,,46,108
33480,note_on,,,,,0,0,1,,,,,0,,,70,108
33480,control_change,,,,,0,0,1,,,,,0,64,94,,
33480,note_on,,,,,0,0,1,,,,,0,,,67,108
33480,note_on,,,,,0,0,1,,,,,0,,,76,108
33480,note_on,,,,,5,0,1,,,,,0,,,64,108
33480,note_on,,,,,30,0,2,,,,,0,,,40,108
33520,set_tempo,,,,,70,1,0,,436681,,,,,,,
33530,set_tempo,,,,,10,1,0,,441501,,,,,,,
33550,set_tempo,,,,,20,1,0,,443131,,,,,,,
33560,set_tempo,,,,,10,1,0,,444773,,,,,,,
33570,note_on,,,,,0,0,1,,,,,0,,,67,0
33570,note_on,,,,,0,0,2,,,,,0,,,40,0
33570,note_on,,,,,0,0,2,,,,,0,,,46,0
33570,note_on,,,,,0,0,2,,,,,0,,,49,0
33570,note_on,,,,,90,0,2,,,,,0,,,52,0
33570,note_on,,,,,0,0,1,,,,,0,,,64,0
33570,note_on,,,,,0,0,1,,,,,0,,,70,0
33570,note_on,,,,,90,0,1,,,,,0,,,76,0
33580,set_tempo,,,,,20,1,0,,446428,,,,,,,
33600,note_on,,,,,30,0,2,,,,,0,,,40,115
33600,note_on,,,,,0,0,2,,,,,0,,,52,115
33600,note_on,,,,,30,0,1,,,,,0,,,64,112
33600,note_on,,,,,0,0,1,,,,,0,,,67,112
33600,note_on,,,,,0,0,1,,,,,0,,,70,112
33600,note_on,,,,,0,0,1,,,,,0,,,76,112
33600,note_on,,,,,0,0,2,,,,,0,,,49,115
33600,note_on,,,,,0,0,2,,,,,0,,,46,115
33600,set_tempo,,,,,20,1,0,,448095,,,,,,,
33610,set_tempo,,,,,10,1,0,,453172,,,,,,,
33620,set_tempo,,,,,10,1,0,,454890,,,,,,,
33640,set_tempo,,,,,20,1,0,,456621,,,,,,,
33660,set_tempo,,,,,20,1,0,,458365,,,,,,,
33670,set_tempo,,,,,10,1,0,,460122,,,,,,,
33680,set_tempo,,,,,10,1,0,,461893,,,,,,,
33690,note_on,,,,,0,0,2,,,,,0,,,40,0
33690,note_on,,,,,90,0,2,,,,,0,,,52,0
33690,note_on,,,,,0,0,2,,,,,0,,,49,0
33690,note_on,,,,,0,0,1,,,,,0,,,70,0
33690,note_on,,,,,0,0,1,,,,,0,,,67,0
33690,note_on,,,,,0,0,1,,,,,0,,,64,0
33690,note_on,,,,,90,0,1,,,,,0,,,76,0
33690,note_on,,,,,0,0,2,,,,,0,,,46,0
33720,note_on,,,,,0,0,2,,,,,0,,,40,122
33720,note_on,,,,,30,0,2,,,,,0,,,45,122
33720,note_on,,,,,0,0,1,,,,,0,,,64,119
33720,note_on,,,,,0,0,1,,,,,0,,,67,119
33720,note_on,,,,,30,0,1,,,,,0,,,69,119
33720,note_on,,,,,0,0,2,,,,,0,,,49,122
33720,set_tempo,,,,,40,1,0,,463678,,,,,,,
33720,note_on,,,,,0,0,1,,,,,0,,,76,119
33720,note_on,,,,,0,0,2,,,,,0,,,52,122
33730,set_tempo,,,,,10,1,0,,465477,,,,,,,
33760,set_tempo,,,,,30,1,0,,467289,,,,,,,
33770,set_tempo,,,,,10,1,0,,451467,,,,,,,
33780,set_tempo,,,,,10,1,0,,451467,,,,,,,
33790,set_tempo,,,,,10,1,0,,451467,,,,,,,
33800,set_tempo,,,,,10,1,0,,609756,,,,,,,
33810,note_on,,,,,0,0,1,,,,,0,,,64,0
33810,note_on,,,,,90,0,1,,,,,0,,,76,0
33810,note_on,,,,,0,0,1,,,,,0,,,67,0
33810,note_on,,,,,0,0,1,,,,,0,,,69,0
33810,note_on,,,,,0,0,2,,,,,0,,,49,0
33810,note_on,,,,,0,0,2,,,,,0,,,45,0
33810,note_on,,,,,90,0,2,,,,,0,,,52,0
33810,note_on,,,,,0,0,2,,,,,0,,,40,0
33835,control_change,,,,,25,0,1,,,,,0,64,0,,
33840,note_on,,,,,30,0,2,,,,,0,,,38,127
33840,note_on,,,,,0,0,2,,,,,0,,,50,127
33840,note_on,,,,,0,0,2,,,,,0,,,45,127
33840,note_on,,,,,0,0,1,,,,,0,,,78,127
33840,note_on,,,,,5,0,1,,,,,0,,,66,127
33840,note_on,,,,,0,0,1,,,,,0,,,69,127
33840,set_tempo,,,,,40,1,0,,435097,,,,,,,
33840,control_change,,,,,0,0,1,,,,,0,64,94,,
33850,set_tempo,,,,,10,1,0,,453172,,,,,,,
33920,set_tempo,,,,,70,1,0,,451467,,,,,,,
33940,set_tempo,,,,,20,1,0,,449775,,,,,,,
34020,set_tempo,,,,,80,1,0,,439882,,,,,,,
34080,set_tempo,,,,,60,1,0,,435097,,,,,,,
34140,set_tempo,,,,,60,1,0,,431965,,,,,,,
34150,set_tempo,,,,,10,1,0,,430416,,,,,,,
34160,set_tempo,,,,,10,1,0,,428877,,,,,,,
34170,note_on,,,,,0,0,1,,,,,0,,,66,0
34170,control_change,,,,,0,0,1,,,,,0,64,0,,
34170,note_on,,,,,330,0,1,,,,,0,,,69,0
34170,note_on,,,,,0,0,1,,,,,0,,,78,0
34170,note_on,,,,,0,0,2,,,,,0,,,38,0
34170,note_on,,,,,0,0,2,,,,,0,,,50,0
34170,note_on,,,,,330,0,2,,,,,0,,,45,0
34180,set_tempo,,,,,20,1,0,,425833,,,,,,,
34190,set_tempo,,,,,10,1,0,,419874,,,,,,,
34200,note_on,,,,,0,0,1,,,,,0,,,78,64
34200,note_on,,,,,30,0,1,,,,,0,,,90,64
34200,note_on,,,,,30,0,2,,,,,0,,,51,77
34200,set_tempo,,,,,10,1,0,,370599,,,,,,,
34290,note_on,,,,,0,0,1,,,,,0,,,90,0
34290,note_on,,,,,90,0,1,,,,,0,,,78,0
34290,set_tempo,,,,,90,1,0,,372902,,,,,,,
34320,note_on,,,,,30,0,1,,,,,0,,,90,74
34320,note_on,,,,,0,0,1,,,,,0,,,78,74
34320,note_on,,,,,120,0,2,,,,,0,,,59,62
34390,set_tempo,,,,,100,1,0,,408441,,,,,,,
34410,note_on,,,,,90,0,1,,,,,0,,,78,0
34410,note_on,,,,,0,0,1,,,,,0,,,90,0
34440,control_change,,,,,0,0,1,,,,,0,64,95,,
34440,note_on,,,,,30,0,1,,,,,0,,,81,82
34440,note_on,,,,,120,0,2,,,,,0,,,59,0
34440,set_tempo,,,,,50,1,0,,354191,,,,,,,
34440,note_on,,,,,0,0,2,,,,,0,,,66,70
34440,note_on,,,,,0,0,1,,,,,0,,,93,82
34445,set_tempo,,,,,5,1,0,,353148,,,,,,,
34450,set_tempo,,,,,5,1,0,,374064,,,,,,,
34470,set_tempo,,,,,20,1,0,,372902,,,,,,,
34475,set_tempo,,,,,5,1,0,,371747,,,,,,,
34480,set_tempo,,,,,5,1,0,,370599,,,,,,,
34490,set_tempo,,,,,10,1,0,,372902,,,,,,,
34540,set_tempo,,,,,50,1,0,,370599,,,,,,,
34560,note_on,,,,,120,0,2,,,,,0,,,66,0
34560,note_on,,,,,0,0,2,,,,,0,,,51,0
34560,note_on,,,,,0,0,2,,,,,0,,,52,78
34580,set_tempo,,,,,40,1,0,,368324,,,,,,,
34590,set_tempo,,,,,10,1,0,,367197,,,,,,,
34650,set_tempo,,,,,60,1,0,,366076,,,,,,,
34660,set_tempo,,,,,10,1,0,,364963,,,,,,,
34680,note_on,,,,,240,0,1,,,,,0,,,93,0
34680,note_on,,,,,0,0,1,,,,,0,,,81,0
34680,note_on,,,,,0,0,1,,,,,0,,,79,85
34680,set_tempo,,,,,20,1,0,,363856,,,,,,,
34680,control_change,,,,,0,0,1,,,,,0,64,0,,
34680,note_on,,,,,120,0,2,,,,,0,,,59,64
34680,note_on,,,,,0,0,1,,,,,0,,,91,85
34710,set_tempo,,,,,30,1,0,,362756,,,,,,,
34730,set_tempo,,,,,20,1,0,,361663,,,,,,,
34740,note_on,,,,,0,0,1,,,,,0,,,78,80
34740,note_on,,,,,0,0,1,,,,,0,,,79,0
34740,note_on,,,,,60,0,1,,,,,0,,,91,0
34740,note_on,,,,,0,0,1,,,,,0,,,90,80
34780,set_tempo,,,,,50,1,0,,360576,,,,,,,
34785,note_on,,,,,0,0,1,,,,,0,,,78,0
34785,note_on,,,,,45,0,1,,,,,0,,,90,0
34800,note_on,,,,,15,0,1,,,,,0,,,78,72
34800,note_on,,,,,0,0,2,,,,,0,,,67,71
34800,note_on,,,,,120,0,2,,,,,0,,,59,0
34800,set_tempo,,,,,20,1,0,,359496,,,,,,,
34800,note_on,,,,,0,0,1,,,,,0,,,90,72
34810,set_tempo,,,,,10,1,0,,358422,,,,,,,
34845,note_on,,,,,0,0,1,,,,,0,,,78,0
34845,note_on,,,,,45,0,1,,,,,0,,,90,0
34850,set_tempo,,,,,40,1,0,,357355,,,,,,,
34860,note_on,,,,,15,0,1,,,,,0,,,76,61
34860,note_on,,,,,0,0,1,,,,,0,,,88,61
34870,set_tempo,,,,,20,1,0,,355239,,,,,,,
34890,set_tempo,,,,,20,1,0,,354191,,,,,,,
34900,set_tempo,,,,,10,1,0,,353148,,,,,,,
34905,note_on,,,,,0,0,1,,,,,0,,,76,0
34905,note_on,,,,,45,0,1,,,,,0,,,88,0
34920,control_change,,,,,0,0,1,,,,,0,64,95,,
34920,note_on,,,,,0,0,1,,,,,0,,,86,82
34920,note_on,,,,,15,0,1,,,,,0,,,74,82
34920,note_on,,,,,120,0,2,,,,,0,,,67,0
34920,note_on,,,,,0,0,2,,,,,0,,,52,0
34920,note_on,,,,,0,0,2,,,,,0,,,54,79
34960,set_tempo,,,,,60,1,0,,354191,,,,,,,
34970,set_tempo,,,,,10,1,0,,356294,,,,,,,
34980,set_tempo,,,,,10,1,0,,357355,,,,,,,
34990,set_tempo,,,,,10,1,0,,358422,,,,,,,
35000,set_tempo,,,,,10,1,0,,359496,,,,,,,
35010,set_tempo,,,,,10,1,0,,361663,,,,,,,
35030,set_tempo,,,,,20,1,0,,362756,,,,,,,
35040,note_on,,,,,0,0,1,,,,,0,,,74,0
35040,note_on,,,,,0,0,1,,,,,0,,,74,74
35040,note_on,,,,,120,0,1,,,,,0,,,86,0
35040,note_on,,,,,0,0,1,,,,,0,,,86,74
35040,note_on,,,,,120,0,2,,,,,0,,,66,64
35050,set_tempo,,,,,20,1,0,,363856,,,,,,,
35060,set_tempo,,,,,10,1,0,,364963,,,,,,,
35080,set_tempo,,,,,20,1,0,,367197,,,,,,,
35085,note_on,,,,,45,0,1,,,,,0,,,86,0
35085,note_on,,,,,0,0,1,,,,,0,,,74,0
35090,set_tempo,,,,,10,1,0,,368324,,,,,,,
35095,control_change,,,,,10,0,1,,,,,0,64,0,,
35100,note_on,,,,,0,0,1,,,,,0,,,88,64
35100,note_on,,,,,5,0,1,,,,,0,,,76,64
35145,note_on,,,,,45,0,1,,,,,0,,,88,0
35145,note_on,,,,,0,0,1,,,,,0,,,76,0
35150,set_tempo,,,,,60,1,0,,370599,,,,,,,
35160,note_on,,,,,0,0,2,,,,,0,,,58,57
35160,set_tempo,,,,,10,1,0,,372902,,,,,,,
35160,note_on,,,,,120,0,2,,,,,0,,,66,0
35160,note_on,,,,,0,0,2,,,,,0,,,54,0
35160,note_on,,,,,0,0,2,,,,,0,,,54,57
35160,note_on,,,,,0,0,2,,,,,0,,,64,57
35160,note_on,,,,,15,0,1,,,,,0,,,73,58
35160,note_on,,,,,0,0,1,,,,,0,,,85,58
35200,set_tempo,,,,,40,1,0,,374064,,,,,,,
35280,note_on,,,,,120,0,1,,,,,0,,,85,0
35280,note_on,,,,,0,0,1,,,,,0,,,73,0
35280,control_change,,,,,0,0,1,,,,,0,64,95,,
35280,note_on,,,,,0,0,1,,,,,0,,,83,55
35280,note_on,,,,,0,0,2,,,,,0,,,59,50
35280,note_on,,,,,0,0,2,,,,,0,,,54,0
35280,note_on,,,,,0,0,2,,,,,0,,,58,0
35280,note_on,,,,,0,0,1,,,,,0,,,71,55
35280,set_tempo,,,,,80,1,0,,376411,,,,,,,
35280,note_on,,,,,120,0,2,,,,,0,,,64,0
35290,set_tempo,,,,,10,1,0,,377595,,,,,,,
35350,set_tempo,,,,,60,1,0,,379987,,,,,,,
35395,set_tempo,,,,,45,1,0,,351082,,,,,,,
35400,note_on,,,,,120,0,2,,,,,0,,,62,44
35490,note_on,,,,,0,0,2,,,,,0,,,59,0
35490,note_on,,,,,90,0,2,,,,,0,,,62,0
35490,note_on,,,,,210,0,1,,,,,0,,,83,0
35490,note_on,,,,,0,0,1,,,,,0,,,71,0
35520,note_on,,,,,30,0,1,,,,,0,,,74,65
35520,note_on,,,,,0,0,1,,,,,0,,,66,65
35520,control_change,,,,,0,0,1,,,,,0,64,0,,
35635,set_tempo,,,,,240,1,0,,353148,,,,,,,
35640,control_change,,,,,0,0,1,,,,,0,64,96,,
35640,note_on,,,,,150,0,2,,,,,0,,,54,58
35640,note_on,,,,,120,0,1,,,,,0,,,82,59
35670,set_tempo,,,,,35,1,0,,355239,,,,,,,
35680,set_tempo,,,,,10,1,0,,356294,,,,,,,
35690,set_tempo,,,,,10,1,0,,357355,,,,,,,
35705,set_tempo,,,,,15,1,0,,358422,,,,,,,
35715,set_tempo,,,,,10,1,0,,359496,,,,,,,
35730,set_tempo,,,,,15,1,0,,360576,,,,,,,
35740,set_tempo,,,,,10,1,0,,361663,,,,,,,
35750,set_tempo,,,,,10,1,0,,362756,,,,,,,
35755,set_tempo,,,,,5,1,0,,363856,,,,,,,
35760,note_on,,,,,0,0,1,,,,,0,,,74,0
35760,control_change,,,,,0,0,1,,,,,0,64,0,,
35760,note_on,,,,,0,0,1,,,,,0,,,66,43
35760,note_on,,,,,0,0,1,,,,,0,,,74,43
35760,note_on,,,,,120,0,1,,,,,0,,,66,0
35805,note_on,,,,,0,0,1,,,,,0,,,74,0
35805,note_on,,,,,45,0,1,,,,,0,,,66,0
35820,note_on,,,,,0,0,1,,,,,0,,,67,49
35820,note_on,,,,,15,0,1,,,,,0,,,76,49
35825,set_tempo,,,,,70,1,0,,366076,,,,,,,
35855,set_tempo,,,,,30,1,0,,367197,,,,,,,
35865,note_on,,,,,45,0,1,,,,,0,,,67,0
35865,note_on,,,,,0,0,1,,,,,0,,,76,0
35880,note_on,,,,,15,0,1,,,,,0,,,64,53
35880,note_on,,,,,0,0,1,,,,,0,,,73,53
35885,set_tempo,,,,,30,1,0,,368324,,,,,,,
35895,set_tempo,,,,,10,1,0,,369458,,,,,,,
35930,set_tempo,,,,,35,1,0,,370599,,,,,,,
35950,set_tempo,,,,,20,1,0,,371747,,,,,,,
35960,set_tempo,,,,,10,1,0,,372902,,,,,,,
35970,set_tempo,,,,,10,1,0,,374064,,,,,,,
35980,set_tempo,,,,,10,1,0,,375234,,,,,,,
35990,set_tempo,,,,,10,1,0,,376411,,,,,,,
36000,note_on,,,,,120,0,1,,,,,0,,,73,0
36000,note_on,,,,,0,0,1,,,,,0,,,64,0
36000,note_on,,,,,0,0,1,,,,,0,,,82,0
36000,note_on,,,,,0,0,1,,,,,0,,,83,46
36000,note_on,,,,,0,0,1,,,,,0,,,62,46
36000,note_on,,,,,0,0,1,,,,,0,,,71,46
36000,control_change,,,,,0,0,1,,,,,0,64,95,,
36000,note_on,,,,,360,0,2,,,,,0,,,54,0
36000,note_on,,,,,0,0,2,,,,,0,,,59,58
36025,set_tempo,,,,,35,1,0,,377595,,,,,,,
36090,note_on,,,,,90,0,1,,,,,0,,,62,0
36090,note_on,,,,,90,0,2,,,,,0,,,59,0
36090,note_on,,,,,0,0,1,,,,,0,,,71,0
36120,note_on,,,,,30,0,1,,,,,0,,,71,45
36190,control_change,,,,,70,0,1,,,,,0,64,0,,
36190,set_tempo,,,,,165,1,0,,376411,,,,,,,
36205,set_tempo,,,,,15,1,0,,375234,,,,,,,
36210,note_on,,,,,20,0,1,,,,,0,,,83,0
36235,set_tempo,,,,,30,1,0,,372902,,,,,,,
36240,note_on,,,,,0,0,1,,,,,0,,,90,65
36240,note_on,,,,,0,0,1,,,,,0,,,74,41
36240,note_on,,,,,30,0,1,,,,,0,,,71,0
36240,note_on,,,,,0,0,1,,,,,0,,,78,65
36265,set_tempo,,,,,30,1,0,,371747,,,,,,,
36295,set_tempo,,,,,30,1,0,,369458,,,,,,,
36305,set_tempo,,,,,10,1,0,,368324,,,,,,,
36315,set_tempo,,,,,10,1,0,,366076,,,,,,,
36320,set_tempo,,,,,5,1,0,,364963,,,,,,,
36325,set_tempo,,,,,5,1,0,,363856,,,,,,,
36330,note_on,,,,,90,0,1,,,,,0,,,74,0
36340,set_tempo,,,,,15,1,0,,357355,,,,,,,
36350,set_tempo,,,,,10,1,0,,351082,,,,,,,
36355,set_tempo,,,,,5,1,0,,351082,,,,,,,
36360,note_on,,,,,270,0,2,,,,,0,,,66,58
36360,control_change,,,,,30,0,1,,,,,0,64,96,,
36425,set_tempo,,,,,70,1,0,,352112,,,,,,,
36430,set_tempo,,,,,5,1,0,,353148,,,,,,,
36435,set_tempo,,,,,5,1,0,,354191,,,,,,,
36445,set_tempo,,,,,10,1,0,,355239,,,,,,,
36455,set_tempo,,,,,10,1,0,,356294,,,,,,,
36465,set_tempo,,,,,10,1,0,,357355,,,,,,,
36480,set_tempo,,,,,15,1,0,,358422,,,,,,,
36480,note_on,,,,,120,0,1,,,,,0,,,90,0
36480,note_on,,,,,0,0,1,,,,,0,,,78,0
36480,note_on,,,,,0,0,1,,,,,0,,,70,45
36480,note_on,,,,,0,0,1,,,,,0,,,78,46
36480,note_on,,,,,0,0,1,,,,,0,,,90,46
36485,set_tempo,,,,,5,1,0,,359496,,,,,,,
36500,set_tempo,,,,,15,1,0,,360576,,,,,,,
36510,set_tempo,,,,,10,1,0,,361663,,,,,,,
36525,set_tempo,,,,,15,1,0,,362756,,,,,,,
36525,note_on,,,,,45,0,1,,,,,0,,,90,0
36525,note_on,,,,,0,0,1,,,,,0,,,78,0
36535,set_tempo,,,,,10,1,0,,363856,,,,,,,
36540,note_on,,,,,0,0,1,,,,,0,,,91,47
36540,note_on,,,,,15,0,1,,,,,0,,,79,47
36540,set_tempo,,,,,5,1,0,,364963,,,,,,,
36545,control_change,,,,,5,0,1,,,,,0,64,0,,
36560,set_tempo,,,,,20,1,0,,366076,,,,,,,
36585,note_on,,,,,0,0,1,,,,,0,,,79,0
36585,set_tempo,,,,,25,1,0,,367197,,,,,,,
36585,note_on,,,,,40,0,1,,,,,0,,,91,0
36600,note_on,,,,,15,0,1,,,,,0,,,70,0
36600,note_on,,,,,0,0,1,,,,,0,,,73,41
36600,note_on,,,,,0,0,1,,,,,0,,,76,55
36600,note_on,,,,,0,0,1,,,,,0,,,88,55
36720,control_change,,,,,0,0,1,,,,,0,64,96,,
36720,note_on,,,,,0,0,1,,,,,0,,,86,46
36720,note_on,,,,,0,0,1,,,,,0,,,74,46
36720,note_on,,,,,0,0,2,,,,,0,,,59,44
36720,note_on,,,,,120,0,1,,,,,0,,,88,0
36720,note_on,,,,,0,0,1,,,,,0,,,76,0
36720,note_on,,,,,0,0,1,,,,,0,,,73,0
36720,note_on,,,,,360,0,2,,,,,0,,,66,0
36720,note_on,,,,,0,0,1,,,,,0,,,71,45
36735,set_tempo,,,,,150,1,0,,364963,,,,,,,
36740,set_tempo,,,,,5,1,0,,362756,,,,,,,
36755,set_tempo,,,,,15,1,0,,359496,,,,,,,
36765,set_tempo,,,,,10,1,0,,358422,,,,,,,
36775,set_tempo,,,,,10,1,0,,356294,,,,,,,
36790,set_tempo,,,,,15,1,0,,355239,,,,,,,
36825,set_tempo,,,,,35,1,0,,356294,,,,,,,
36840,note_on,,,,,120,0,1,,,,,0,,,71,0
36840,note_on,,,,,120,0,2,,,,,0,,,62,35
36840,set_tempo,,,,,15,1,0,,357355,,,,,,,
36870,set_tempo,,,,,30,1,0,,358422,,,,,,,
36875,set_tempo,,,,,5,1,0,,359496,,,,,,,
36885,set_tempo,,,,,10,1,0,,360576,,,,,,,
36895,set_tempo,,,,,10,1,0,,361663,,,,,,,
36900,set_tempo,,,,,5,1,0,,362756,,,,,,,
36905,control_change,,,,,65,0,1,,,,,0,64,0,,
36930,note_on,,,,,0,0,1,,,,,0,,,74,0
36930,set_tempo,,,,,30,1,0,,364963,,,,,,,
36930,note_on,,,,,0,0,2,,,,,0,,,59,0
36930,note_on,,,,,90,0,2,,,,,0,,,62,0
36930,note_on,,,,,25,0,1,,,,,0,,,86,0
36945,set_tempo,,,,,15,1,0,,366076,,,,,,,
36950,set_tempo,,,,,5,1,0,,368324,,,,,,,
36960,control_change,,,,,0,0,1,,,,,0,64,0,,
36960,note_on,,,,,0,0,1,,,,,0,,,66,53
36960,note_on,,,,,30,0,1,,,,,0,,,74,53
36970,set_tempo,,,,,20,1,0,,370599,,,,,,,
37040,set_tempo,,,,,70,1,0,,379987,,,,,,,
37080,control_change,,,,,0,0,1,,,,,0,64,96,,
37080,note_on,,,,,120,0,1,,,,,0,,,82,45
37080,note_on,,,,,150,0,2,,,,,0,,,54,44
37110,set_tempo,,,,,70,1,0,,387346,,,,,,,
37130,set_tempo,,,,,20,1,0,,388601,,,,,,,
37140,set_tempo,,,,,10,1,0,,391134,,,,,,,
37200,note_on,,,,,0,0,1,,,,,0,,,74,0
37200,note_on,,,,,0,0,1,,,,,0,,,74,33
37200,note_on,,,,,120,0,1,,,,,0,,,66,0
37200,note_on,,,,,0,0,1,,,,,0,,,66,33
37200,control_change,,,,,0,0,1,,,,,0,64,0,,
37210,set_tempo,,,,,70,1,0,,398936,,,,,,,
37220,set_tempo,,,,,10,1,0,,408441,,,,,,,
37245,note_on,,,,,0,0,1,,,,,0,,,74,0
37245,note_on,,,,,45,0,1,,,,,0,,,66,0
37260,note_on,,,,,0,0,1,,,,,0,,,67,36
37260,note_on,,,,,15,0,1,,,,,0,,,76,36
37290,set_tempo,,,,,70,1,0,,416956,,,,,,,
37300,set_tempo,,,,,10,1,0,,419874,,,,,,,
37305,note_on,,,,,0,0,1,,,,,0,,,76,0
37305,note_on,,,,,45,0,1,,,,,0,,,67,0
37320,note_on,,,,,15,0,1,,,,,0,,,64,39
37320,note_on,,,,,0,0,1,,,,,0,,,73,39
37320,set_tempo,,,,,20,1,0,,422832,,,,,,,
37330,set_tempo,,,,,10,1,0,,424328,,,,,,,
37340,set_tempo,,,,,10,1,0,,427350,,,,,,,
37360,set_tempo,,,,,20,1,0,,428877,,,,,,,
37370,set_tempo,,,,,10,1,0,,433526,,,,,,,
37380,set_tempo,,,,,10,1,0,,435097,,,,,,,
37400,set_tempo,,,,,20,1,0,,438276,,,,,,,
37420,set_tempo,,,,,20,1,0,,441501,,,,,,,
37440,set_tempo,,,,,20,1,0,,444773,,,,,,,
37440,note_on,,,,,0,0,1,,,,,0,,,82,0
37440,note_on,,,,,120,0,1,,,,,0,,,73,0
37440,note_on,,,,,0,0,1,,,,,0,,,62,35
37440,note_on,,,,,0,0,1,,,,,0,,,71,35
37440,note_on,,,,,0,0,1,,,,,0,,,83,35
37440,control_change,,,,,0,0,1,,,,,0,64,95,,
37440,note_on,,,,,0,0,1,,,,,0,,,64,0
37440,note_on,,,,,360,0,2,,,,,0,,,54,0
37440,note_on,,,,,0,0,2,,,,,0,,,59,39
37460,set_tempo,,,,,20,1,0,,446428,,,,,,,
37480,set_tempo,,,,,20,1,0,,448095,,,,,,,
37500,set_tempo,,,,,20,1,0,,451467,,,,,,,
37530,set_tempo,,,,,30,1,0,,454890,,,,,,,
37560,set_tempo,,,,,30,1,0,,864553,,,,,,,
37575,control_change,,,,,135,0,1,,,,,0,64,0,,
37590,note_on,,,,,15,0,1,,,,,0,,,83,0
37590,note_on,,,,,0,0,1,,,,,0,,,71,0
37590,note_on,,,,,0,0,1,,,,,0,,,62,0
37590,note_on,,,,,150,0,2,,,,,0,,,59,0
37610,set_tempo,,,,,50,1,0,,476568,,,,,,,
37620,note_on,,,,,30,0,1,,,,,0,,,66,37
37620,marker,,,,,10,1,0,,,,,,,,,
37625,control_change,,,,,5,0,1,,,,,0,64,95,,
37650,set_tempo,,,,,30,1,0,,474683,,,,,,,
37680,note_on,,,,,55,0,1,,,,,0,,,66,0
37680,set_tempo,,,,,30,1,0,,472813,,,,,,,
37680,note_on,,,,,0,0,1,,,,,0,,,71,40
37690,set_tempo,,,,,10,1,0,,470957,,,,,,,
37700,set_tempo,,,,,10,1,0,,469116,,,,,,,
37720,set_tempo,,,,,20,1,0,,467289,,,,,,,
37740,note_on,,,,,60,0,1,,,,,0,,,71,0
37740,note_on,,,,,0,0,1,,,,,0,,,73,43
37750,set_tempo,,,,,30,1,0,,456621,,,,,,,
37800,note_on,,,,,0,0,1,,,,,0,,,74,49
37800,note_on,,,,,60,0,1,,,,,0,,,73,0
37810,set_tempo,,,,,60,1,0,,454890,,,,,,,
37820,set_tempo,,,,,10,1,0,,451467,,,,,,,
37830,set_tempo,,,,,10,1,0,,451467,,,,,,,
37890,set_tempo,,,,,60,1,0,,465477,,,,,,,
37900,set_tempo,,,,,10,1,0,,467289,,,,,,,
37920,set_tempo,,,,,20,1,0,,649350,,,,,,,
37950,set_tempo,,,,,30,1,0,,488201,,,,,,,
37950,note_on,,,,,150,0,1,,,,,0,,,74,0
37950,control_change,,,,,0,0,1,,,,,0,64,0,,
37970,set_tempo,,,,,20,1,0,,486223,,,,,,,
37980,control_change,,,,,0,0,1,,,,,0,64,94,,
37980,note_on,,,,,30,0,1,,,,,0,,,66,30
38040,note_on,,,,,0,0,1,,,,,0,,,71,33
38040,note_on,,,,,60,0,1,,,,,0,,,66,0
38070,set_tempo,,,,,100,1,0,,506756,,,,,,,
38080,set_tempo,,,,,10,1,0,,511073,,,,,,,
38100,note_on,,,,,0,0,1,,,,,0,,,73,37
38100,note_on,,,,,60,0,1,,,,,0,,,71,0
38150,set_tempo,,,,,70,1,0,,533807,,,,,,,
38160,note_on,,,,,60,0,1,,,,,0,,,73,0
38160,note_on,,,,,0,0,1,,,,,0,,,74,41
38170,set_tempo,,,,,20,1,0,,538599,,,,,,,
38180,set_tempo,,,,,10,1,0,,541027,,,,,,,
38200,set_tempo,,,,,20,1,0,,543478,,,,,,,
38220,set_tempo,,,,,20,1,0,,545950,,,,,,,
38230,set_tempo,,,,,10,1,0,,548446,,,,,,,
38250,set_tempo,,,,,20,1,0,,550964,,,,,,,
38270,set_tempo,,,,,20,1,0,,553505,,,,,,,
38280,set_tempo,,,,,10,1,0,,642398,,,,,,,
38290,set_tempo,,,,,10,1,0,,642398,,,,,,,
38310,control_change,,,,,0,0,1,,,,,0,64,0,,
38310,note_on,,,,,150,0,1,,,,,0,,,74,0
38310,set_tempo,,,,,20,1,0,,566572,,,,,,,
38330,set_tempo,,,,,20,1,0,,563909,,,,,,,
38340,set_tempo,,,,,10,1,0,,566572,,,,,,,
38340,control_change,,,,,0,0,1,,,,,0,67,95,,
38340,control_change,,,,,0,0,1,,,,,0,64,95,,
38340,note_on,,,,,30,0,1,,,,,0,,,66,35
38350,set_tempo,,,,,10,1,0,,569259,,,,,,,
38360,set_tempo,,,,,10,1,0,,571973,,,,,,,
38380,set_tempo,,,,,20,1,0,,597609,,,,,,,
38400,set_tempo,,,,,20,1,0,,603621,,,,,,,
38400,note_on,,,,,0,0,1,,,,,0,,,71,29
38400,note_on,,,,,60,0,1,,,,,0,,,66,0
38420,set_tempo,,,,,20,1,0,,606673,,,,,,,
38460,note_on,,,,,60,0,1,,,,,0,,,71,0
38460,note_on,,,,,0,0,1,,,,,0,,,73,27
38515,control_change,,,,,55,0,1,,,,,0,64,0,,
38520,note_on,,,,,0,0,1,,,,,0,,,75,29
38520,note_on,,,,,5,0,1,,,,,0,,,73,0
38520,key_signature,,,,,100,1,0,B,,,,,,,,
38520,note_on,,,,,0,0,2,,,,,0,,,66,39
38520,control_change,,,,,0,0,1,,,,,0,64,95,,
38520,note_on,,,,,0,0,1,,,,,0,,,78,29
38520,note_on,,,,,930,0,2,,,,,0,,,59,39
38530,set_tempo,,,,,10,1,0,,594648,,,,,,,
38540,set_tempo,,,,,10,1,0,,588812,,,,,,,
38550,set_tempo,,,,,10,1,0,,585937,,,,,,,
38560,set_tempo,,,,,10,1,0,,580270,,,,,,,
38565,set_tempo,,,,,5,1,0,,563909,,,,,,,
38570,set_tempo,,,,,5,1,0,,558659,,,,,,,
38575,set_tempo,,,,,5,1,0,,553505,,,,,,,
38580,set_tempo,,,,,5,1,0,,550964,,,,,,,
38580,note_on,,,,,60,0,1,,,,,0,,,75,0
38585,set_tempo,,,,,5,1,0,,545950,,,,,,,
38610,note_on,,,,,30,0,1,,,,,0,,,75,31
38610,set_tempo,,,,,25,1,0,,597609,,,,,,,
38625,note_on,,,,,0,0,1,,,,,0,,,76,31
38625,note_on,,,,,15,0,1,,,,,0,,,75,0
38640,set_tempo,,,,,30,1,0,,526777,,,,,,,
38640,note_on,,,,,0,0,1,,,,,0,,,75,32
38640,note_on,,,,,15,0,1,,,,,0,,,76,0
38640,note_on,,,,,120,0,2,,,,,0,,,59,0
38640,note_on,,,,,0,0,2,,,,,0,,,54,35
38645,set_tempo,,,,,5,1,0,,526777,,,,,,,
38665,set_tempo,,,,,20,1,0,,524475,,,,,,,
38670,set_tempo,,,,,5,1,0,,522193,,,,,,,
38680,set_tempo,,,,,10,1,0,,519930,,,,,,,
38700,note_on,,,,,60,0,1,,,,,0,,,75,0
38700,note_on,,,,,0,0,1,,,,,0,,,73,35
38715,set_tempo,,,,,35,1,0,,517687,,,,,,,
38725,set_tempo,,,,,10,1,0,,513259,,,,,,,
38755,set_tempo,,,,,30,1,0,,508905,,,,,,,
38760,note_on,,,,,60,0,1,,,,,0,,,73,0
38760,note_on,,,,,0,0,1,,,,,0,,,75,38
38760,control_change,,,,,0,0,1,,,,,0,64,0,,
38785,set_tempo,,,,,30,1,0,,504625,,,,,,,
38790,set_tempo,,,,,5,1,0,,502512,,,,,,,
38805,set_tempo,,,,,15,1,0,,500417,,,,,,,
38810,set_tempo,,,,,5,1,0,,498338,,,,,,,
38815,set_tempo,,,,,5,1,0,,496277,,,,,,,
38825,set_tempo,,,,,10,1,0,,494233,,,,,,,
38835,set_tempo,,,,,10,1,0,,492206,,,,,,,
38845,set_tempo,,,,,10,1,0,,490196,,,,,,,
38855,set_tempo,,,,,10,1,0,,488201,,,,,,,
38865,set_tempo,,,,,10,1,0,,486223,,,,,,,
38870,set_tempo,,,,,5,1,0,,484261,,,,,,,
38880,note_on,,,,,0,0,2,,,,,0,,,66,0
38880,note_on,,,,,0,0,2,,,,,0,,,61,39
38880,note_on,,,,,0,0,1,,,,,0,,,78,0
38880,note_on,,,,,0,0,1,,,,,0,,,76,35
38880,control_change,,,,,0,0,1,,,,,0,64,96,,
38880,note_on,,,,,0,0,1,,,,,0,,,78,35
38880,note_on,,,,,120,0,1,,,,,0,,,75,0
38880,note_on,,,,,0,0,2,,,,,0,,,66,39
38880,note_on,,,,,240,0,2,,,,,0,,,54,0
38895,set_tempo,,,,,25,1,0,,482315,,,,,,,
38905,set_tempo,,,,,10,1,0,,480384,,,,,,,
38910,set_tempo,,,,,5,1,0,,478468,,,,,,,
38925,set_tempo,,,,,15,1,0,,476568,,,,,,,
38945,set_tempo,,,,,20,1,0,,474683,,,,,,,
38950,set_tempo,,,,,5,1,0,,472813,,,,,,,
38970,set_tempo,,,,,20,1,0,,470957,,,,,,,
38975,set_tempo,,,,,5,1,0,,469116,,,,,,,
39000,note_on,,,,,120,0,2,,,,,0,,,61,0
39000,note_on,,,,,0,0,2,,,,,0,,,54,35
39010,set_tempo,,,,,35,1,0,,467289,,,,,,,
39045,note_on,,,,,165,0,1,,,,,0,,,76,0
39060,note_on,,,,,15,0,1,,,,,0,,,78,41
39120,control_change,,,,,0,0,1,,,,,0,64,0,,
39120,note_on,,,,,0,0,1,,,,,0,,,76,37
39120,note_on,,,,,60,0,1,,,,,0,,,78,0
39180,note_on,,,,,60,0,1,,,,,0,,,76,0
39180,note_on,,,,,0,0,1,,,,,0,,,75,35
39240,note_on,,,,,60,0,1,,,,,0,,,75,0
39240,note_on,,,,,0,0,1,,,,,0,,,78,0
39240,note_on,,,,,0,0,1,,,,,0,,,75,34
39240,note_on,,,,,0,0,1,,,,,0,,,78,34
39240,control_change,,,,,0,0,1,,,,,0,64,95,,
39240,note_on,,,,,240,0,2,,,,,0,,,54,0
39240,set_tempo,,,,,230,1,0,,496277,,,,,,,
39240,note_on,,,,,0,0,2,,,,,0,,,66,39
39240,note_on,,,,,0,0,2,,,,,0,,,58,39
39240,note_on,,,,,0,0,2,,,,,0,,,66,0
39270,note_on,,,,,30,0,1,,,,,0,,,75,0
39270,set_tempo,,,,,30,1,0,,428877,,,,,,,
39270,note_on,,,,,0,0,1,,,,,0,,,73,27
39275,set_tempo,,,,,5,1,0,,458365,,,,,,,
39320,note_on,,,,,50,0,1,,,,,0,,,73,0
39320,set_tempo,,,,,45,1,0,,460122,,,,,,,
39330,note_on,,,,,10,0,1,,,,,0,,,73,30
39330,set_tempo,,,,,10,1,0,,597609,,,,,,,
39345,note_on,,,,,15,0,1,,,,,0,,,73,0
39345,note_on,,,,,0,0,1,,,,,0,,,75,30
39350,set_tempo,,,,,20,1,0,,458365,,,,,,,
39355,set_tempo,,,,,5,1,0,,460122,,,,,,,
39360,note_on,,,,,120,0,2,,,,,0,,,58,0
39360,note_on,,,,,0,0,2,,,,,0,,,54,33
39360,note_on,,,,,0,0,1,,,,,0,,,73,30
39360,note_on,,,,,15,0,1,,,,,0,,,75,0
39380,set_tempo,,,,,25,1,0,,467289,,,,,,,
39420,note_on,,,,,0,0,1,,,,,0,,,71,36
39420,note_on,,,,,60,0,1,,,,,0,,,73,0
39480,control_change,,,,,0,0,1,,,,,0,64,0,,
39480,note_on,,,,,0,0,1,,,,,0,,,73,39
39480,note_on,,,,,60,0,1,,,,,0,,,71,0
39600,set_tempo,,,,,220,1,0,,472813,,,,,,,
39600,note_on,,,,,0,0,1,,,,,0,,,75,35
39600,note_on,,,,,0,0,1,,,,,0,,,78,35
39600,note_on,,,,,0,0,1,,,,,0,,,78,0
39600,note_on,,,,,0,0,2,,,,,0,,,66,37
39600,control_change,,,,,0,0,1,,,,,0,64,95,,
39600,note_on,,,,,0,0,2,,,,,0,,,59,37
39600,note_on,,,,,0,0,2,,,,,0,,,66,0
39600,note_on,,,,,240,0,2,,,,,0,,,54,0
39600,note_on,,,,,120,0,1,,,,,0,,,73,0
39650,set_tempo,,,,,50,1,0,,484261,,,,,,,
39720,note_on,,,,,0,0,2,,,,,0,,,54,31
39720,note_on,,,,,120,0,2,,,,,0,,,59,0
39720,set_tempo,,,,,70,1,0,,492206,,,,,,,
39745,set_tempo,,,,,25,1,0,,494233,,,,,,,
39750,note_on,,,,,150,0,1,,,,,0,,,75,0
39765,set_tempo,,,,,20,1,0,,496277,,,,,,,
39780,note_on,,,,,30,0,1,,,,,0,,,66,33
39825,set_tempo,,,,,60,1,0,,498338,,,,,,,
39840,note_on,,,,,60,0,1,,,,,0,,,66,0
39840,control_change,,,,,0,0,1,,,,,0,64,0,,
39840,note_on,,,,,0,0,1,,,,,0,,,71,37
39875,set_tempo,,,,,50,1,0,,500417,,,,,,,
39895,set_tempo,,,,,20,1,0,,502512,,,,,,,
39900,note_on,,,,,0,0,1,,,,,0,,,73,36
39900,note_on,,,,,60,0,1,,,,,0,,,71,0
39960,note_on,,,,,240,0,2,,,,,0,,,54,0
39960,note_on,,,,,0,0,2,,,,,0,,,66,0
39960,note_on,,,,,60,0,1,,,,,0,,,73,0
39960,note_on,,,,,0,0,1,,,,,0,,,78,0
39960,note_on,,,,,0,0,1,,,,,0,,,75,33
39960,note_on,,,,,0,0,1,,,,,0,,,78,33
39960,control_change,,,,,0,0,1,,,,,0,64,96,,
39960,note_on,,,,,0,0,2,,,,,0,,,59,37
39960,note_on,,,,,0,0,2,,,,,0,,,63,37
39965,set_tempo,,,,,70,1,0,,504625,,,,,,,
40005,set_tempo,,,,,40,1,0,,506756,,,,,,,
40080,note_on,,,,,120,0,2,,,,,0,,,59,0
40080,note_on,,,,,0,0,2,,,,,0,,,51,31
40100,set_tempo,,,,,95,1,0,,508905,,,,,,,
40110,note_on,,,,,150,0,1,,,,,0,,,75,0
40140,note_on,,,,,30,0,1,,,,,0,,,66,31
40200,note_on,,,,,0,0,1,,,,,0,,,71,34
40200,note_on,,,,,60,0,1,,,,,0,,,66,0
40200,control_change,,,,,0,0,1,,,,,0,64,0,,
40210,set_tempo,,,,,110,1,0,,511073,,,,,,,
40260,note_on,,,,,0,0,1,,,,,0,,,73,36
40260,note_on,,,,,60,0,1,,,,,0,,,71,0
40260,set_tempo,,,,,50,1,0,,513259,,,,,,,
40320,control_change,,,,,0,0,1,,,,,0,64,96,,
40320,note_on,,,,,0,0,1,,,,,0,,,75,38
40320,note_on,,,,,60,0,1,,,,,0,,,73,0
40320,note_on,,,,,240,0,2,,,,,0,,,51,0
40320,note_on,,,,,0,0,2,,,,,0,,,63,0
40320,note_on,,,,,0,0,2,,,,,0,,,54,30
40320,note_on,,,,,0,0,2,,,,,0,,,59,30
40320,note_on,,,,,0,0,1,,,,,0,,,78,38
40320,note_on,,,,,0,0,1,,,,,0,,,78,0
40440,note_on,,,,,0,0,2,,,,,0,,,47,27
40440,note_on,,,,,120,0,2,,,,,0,,,54,0
40470,note_on,,,,,150,0,1,,,,,0,,,75,0
40500,note_on,,,,,30,0,1,,,,,0,,,66,35
40525,set_tempo,,,,,265,1,0,,515463,,,,,,,
40555,set_tempo,,,,,30,1,0,,517687,,,,,,,
40560,note_on,,,,,60,0,1,,,,,0,,,66,0
40560,control_change,,,,,0,0,1,,,,,0,64,0,,
40560,note_on,,,,,0,0,1,,,,,0,,,71,32
40600,set_tempo,,,,,45,1,0,,519930,,,,,,,
40620,note_on,,,,,60,0,1,,,,,0,,,71,0
40620,note_on,,,,,0,0,1,,,,,0,,,73,32
40640,set_tempo,,,,,40,1,0,,522193,,,,,,,
40680,note_on,,,,,240,0,2,,,,,0,,,47,0
40680,note_on,,,,,60,0,1,,,,,0,,,73,0
40680,note_on,,,,,0,0,1,,,,,0,,,78,0
40680,note_on,,,,,0,0,1,,,,,0,,,71,32
40680,note_on,,,,,0,0,1,,,,,0,,,75,32
40680,note_on,,,,,0,0,1,,,,,0,,,78,32
40680,control_change,,,,,0,0,1,,,,,0,64,95,,
40680,note_on,,,,,0,0,2,,,,,0,,,59,0
40680,note_on,,,,,0,0,2,,,,,0,,,54,28
40685,set_tempo,,,,,45,1,0,,524475,,,,,,,
40690,set_tempo,,,,,5,1,0,,526777,,,,,,,
40740,set_tempo,,,,,50,1,0,,529100,,,,,,,
40780,set_tempo,,,,,40,1,0,,531443,,,,,,,
40800,note_on,,,,,120,0,2,,,,,0,,,42,22
40800,set_tempo,,,,,20,1,0,,533807,,,,,,,
40800,note_on,,,,,120,0,1,,,,,0,,,75,0
40800,note_on,,,,,0,0,1,,,,,0,,,71,0
40800,note_on,,,,,0,0,1,,,,,0,,,70,33
40800,note_on,,,,,0,0,1,,,,,0,,,73,33
40830,set_tempo,,,,,30,1,0,,536193,,,,,,,
40885,set_tempo,,,,,55,1,0,,538599,,,,,,,
40905,note_on,,,,,105,0,1,,,,,0,,,73,0
40905,note_on,,,,,0,0,1,,,,,0,,,70,0
40920,note_on,,,,,15,0,1,,,,,0,,,78,0
40920,note_on,,,,,0,0,1,,,,,0,,,70,27
40920,note_on,,,,,0,0,1,,,,,0,,,73,27
40920,note_on,,,,,0,0,1,,,,,0,,,78,27
40920,control_change,,,,,0,0,1,,,,,0,64,0,,
40935,set_tempo,,,,,50,1,0,,541027,,,,,,,
40960,set_tempo,,,,,25,1,0,,543478,,,,,,,
40965,set_tempo,,,,,5,1,0,,545950,,,,,,,
41025,set_tempo,,,,,60,1,0,,543478,,,,,,,
41035,set_tempo,,,,,10,1,0,,548446,,,,,,,
41040,note_on,,,,,0,0,2,,,,,0,,,47,25
41040,note_on,,,,,120,0,1,,,,,0,,,78,0
41040,note_on,,,,,0,0,1,,,,,0,,,73,0
41040,note_on,,,,,0,0,1,,,,,0,,,70,0
41040,note_on,,,,,0,0,1,,,,,0,,,71,24
41040,note_on,,,,,0,0,1,,,,,0,,,78,24
41040,control_change,,,,,0,0,1,,,,,0,64,94,,
41040,note_on,,,,,240,0,2,,,,,0,,,42,0
41040,note_on,,,,,0,0,2,,,,,0,,,54,0
41040,note_on,,,,,0,0,1,,,,,0,,,75,24
41155,set_tempo,,,,,120,1,0,,545950,,,,,,,
41160,note_on,,,,,120,0,2,,,,,0,,,35,18
41190,note_on,,,,,30,0,2,,,,,0,,,35,0
41190,note_on,,,,,0,0,2,,,,,0,,,47,0
41190,note_on,,,,,150,0,1,,,,,0,,,78,0
41190,note_on,,,,,0,0,1,,,,,0,,,75,0
41190,note_on,,,,,0,0,1,,,,,0,,,71,0
41205,control_change,,,,,15,0,1,,,,,0,64,95,,
41220,note_on,,,,,15,0,1,,,,,0,,,66,25
41280,note_on,,,,,60,0,1,,,,,0,,,66,0
41280,note_on,,,,,0,0,1,,,,,0,,,71,25
41340,note_on,,,,,0,0,1,,,,,0,,,73,26
41340,note_on,,,,,60,0,1,,,,,0,,,71,0
41395,control_change,,,,,55,0,1,,,,,0,64,0,,
41400,note_on,,,,,0,0,1,,,,,0,,,78,26
41400,control_change,,,,,0,0,1,,,,,0,64,95,,
41400,note_on,,,,,0,0,2,,,,,0,,,59,29
41400,note_on,,,,,210,0,2,,,,,0,,,66,29
41400,note_on,,,,,0,0,1,,,,,0,,,75,26
41400,note_on,,,,,5,0,1,,,,,0,,,73,0
41460,note_on,,,,,60,0,1,,,,,0,,,75,0
41460,set_tempo,,,,,305,1,0,,545950,,,,,,,
41475,set_tempo,,,,,15,1,0,,597609,,,,,,,
41490,note_on,,,,,30,0,1,,,,,0,,,75,28
41500,set_tempo,,,,,25,1,0,,522193,,,,,,,
41505,note_on,,,,,0,0,1,,,,,0,,,76,28
41505,note_on,,,,,15,0,1,,,,,0,,,75,0
41505,set_tempo,,,,,5,1,0,,541027,,,,,,,
41515,set_tempo,,,,,10,1,0,,538599,,,,,,,
41520,note_on,,,,,0,0,1,,,,,0,,,75,28
41520,note_on,,,,,0,0,2,,,,,0,,,54,23
41520,note_on,,,,,15,0,1,,,,,0,,,76,0
41520,note_on,,,,,120,0,2,,,,,0,,,59,0
41530,set_tempo,,,,,15,1,0,,536193,,,,,,,
41560,set_tempo,,,,,30,1,0,,533807,,,,,,,
41565,set_tempo,,,,,5,1,0,,531443,,,,,,,
41575,set_tempo,,,,,10,1,0,,529100,,,,,,,
41580,note_on,,,,,0,0,1,,,,,0,,,73,29
41580,note_on,,,,,60,0,1,,,,,0,,,75,0
41600,set_tempo,,,,,25,1,0,,526777,,,,,,,
41605,set_tempo,,,,,5,1,0,,524475,,,,,,,
41615,set_tempo,,,,,10,1,0,,522193,,,,,,,
41640,control_change,,,,,0,0,1,,,,,0,64,0,,
41640,note_on,,,,,0,0,1,,,,,0,,,75,31
41640,note_on,,,,,60,0,1,,,,,0,,,73,0
41640,set_tempo,,,,,25,1,0,,519930,,,,,,,
41680,set_tempo,,,,,40,1,0,,517687,,,,,,,
41710,set_tempo,,,,,30,1,0,,515463,,,,,,,
41715,set_tempo,,,,,5,1,0,,513259,,,,,,,
41730,set_tempo,,,,,15,1,0,,511073,,,,,,,
41745,set_tempo,,,,,15,1,0,,508905,,,,,,,
41755,set_tempo,,,,,10,1,0,,506756,,,,,,,
41760,note_on,,,,,0,0,1,,,,,0,,,76,35
41760,note_on,,,,,0,0,2,,,,,0,,,61,29
41760,note_on,,,,,0,0,2,,,,,0,,,66,29
41760,control_change,,,,,0,0,1,,,,,0,64,96,,
41760,note_on,,,,,0,0,1,,,,,0,,,78,35
41760,note_on,,,,,240,0,2,,,,,0,,,54,0
41760,note_on,,,,,0,0,1,,,,,0,,,78,0
41760,note_on,,,,,0,0,2,,,,,0,,,66,0
41760,note_on,,,,,120,0,1,,,,,0,,,75,0
41795,set_tempo,,,,,40,1,0,,504625,,,,,,,
41805,set_tempo,,,,,10,1,0,,502512,,,,,,,
41820,set_tempo,,,,,15,1,0,,500417,,,,,,,
41830,set_tempo,,,,,10,1,0,,498338,,,,,,,
41840,set_tempo,,,,,10,1,0,,496277,,,,,,,
41845,set_tempo,,,,,5,1,0,,494233,,,,,,,
41860,set_tempo,,,,,15,1,0,,492206,,,,,,,
41870,set_tempo,,,,,10,1,0,,490196,,,,,,,
41880,note_on,,,,,120,0,2,,,,,0,,,61,0
41880,note_on,,,,,0,0,2,,,,,0,,,54,23
41880,set_tempo,,,,,10,1,0,,488201,,,,,,,
41890,set_tempo,,,,,10,1,0,,486223,,,,,,,
41905,set_tempo,,,,,15,1,0,,484261,,,,,,,
41910,set_tempo,,,,,5,1,0,,482315,,,,,,,
41915,set_tempo,,,,,5,1,0,,480384,,,,,,,
41925,note_on,,,,,165,0,1,,,,,0,,,76,0
41930,set_tempo,,,,,15,1,0,,478468,,,,,,,
41935,set_tempo,,,,,5,1,0,,476568,,,,,,,
41940,note_on,,,,,15,0,1,,,,,0,,,78,41
41945,set_tempo,,,,,10,1,0,,474683,,,,,,,
41950,set_tempo,,,,,5,1,0,,469116,,,,,,,
42000,control_change,,,,,0,0,1,,,,,0,64,0,,
42000,note_on,,,,,60,0,1,,,,,0,,,78,0
42000,note_on,,,,,0,0,1,,,,,0,,,76,37
42060,note_on,,,,,0,0,1,,,,,0,,,75,35
42060,note_on,,,,,60,0,1,,,,,0,,,76,0
42105,set_tempo,,,,,155,1,0,,496277,,,,,,,
42120,note_on,,,,,240,0,2,,,,,0,,,54,0
42120,note_on,,,,,0,0,2,,,,,0,,,66,0
42120,note_on,,,,,0,0,2,,,,,0,,,58,28
42120,note_on,,,,,0,0,2,,,,,0,,,66,28
42120,note_on,,,,,0,0,1,,,,,0,,,78,37
42120,note_on,,,,,60,0,1,,,,,0,,,75,0
42120,control_change,,,,,0,0,1,,,,,0,64,95,,
42120,note_on,,,,,0,0,1,,,,,0,,,78,0
42120,note_on,,,,,0,0,1,,,,,0,,,75,37
42135,set_tempo,,,,,30,1,0,,428877,,,,,,,
42140,set_tempo,,,,,5,1,0,,458365,,,,,,,
42150,note_on,,,,,30,0,1,,,,,0,,,75,0
42150,note_on,,,,,0,0,1,,,,,0,,,73,27
42185,set_tempo,,,,,45,1,0,,460122,,,,,,,
42195,set_tempo,,,,,10,1,0,,597609,,,,,,,
42200,note_on,,,,,50,0,1,,,,,0,,,73,0
42210,note_on,,,,,10,0,1,,,,,0,,,73,30
42215,set_tempo,,,,,20,1,0,,458365,,,,,,,
42220,set_tempo,,,,,5,1,0,,470957,,,,,,,
42225,note_on,,,,,15,0,1,,,,,0,,,73,0
42225,note_on,,,,,0,0,1,,,,,0,,,75,30
42240,note_on,,,,,0,0,1,,,,,0,,,73,30
42240,note_on,,,,,15,0,1,,,,,0,,,75,0
42240,note_on,,,,,0,0,2,,,,,0,,,54,27
42240,note_on,,,,,120,0,2,,,,,0,,,58,0
42300,note_on,,,,,0,0,1,,,,,0,,,71,36
42300,note_on,,,,,60,0,1,,,,,0,,,73,0
42360,control_change,,,,,0,0,1,,,,,0,64,0,,
42360,note_on,,,,,0,0,1,,,,,0,,,73,39
42360,note_on,,,,,60,0,1,,,,,0,,,71,0
42465,set_tempo,,,,,245,1,0,,472813,,,,,,,
42480,control_change,,,,,0,0,1,,,,,0,64,95,,
42480,note_on,,,,,240,0,2,,,,,0,,,54,0
42480,note_on,,,,,0,0,2,,,,,0,,,66,37
42480,note_on,,,,,0,0,2,,,,,0,,,59,37
42480,note_on,,,,,120,0,1,,,,,0,,,73,0
42480,note_on,,,,,0,0,1,,,,,0,,,78,0
42480,note_on,,,,,0,0,1,,,,,0,,,75,35
42480,note_on,,,,,0,0,1,,,,,0,,,78,35
42480,note_on,,,,,0,0,2,,,,,0,,,66,0
42515,set_tempo,,,,,50,1,0,,484261,,,,,,,
42585,set_tempo,,,,,70,1,0,,492206,,,,,,,
42600,note_on,,,,,0,0,2,,,,,0,,,54,31
42600,note_on,,,,,120,0,2,,,,,0,,,59,0
42610,set_tempo,,,,,25,1,0,,494233,,,,,,,
42630,note_on,,,,,150,0,1,,,,,0,,,75,0
42630,set_tempo,,,,,20,1,0,,496277,,,,,,,
42660,note_on,,,,,30,0,1,,,,,0,,,66,33
42690,set_tempo,,,,,60,1,0,,498338,,,,,,,
42720,control_change,,,,,0,0,1,,,,,0,64,0,,
42720,note_on,,,,,0,0,1,,,,,0,,,71,37
42720,note_on,,,,,60,0,1,,,,,0,,,66,0
42740,set_tempo,,,,,50,1,0,,500417,,,,,,,
42760,set_tempo,,,,,20,1,0,,502512,,,,,,,
42780,note_on,,,,,60,0,1,,,,,0,,,71,0
42780,note_on,,,,,0,0,1,,,,,0,,,73,41
42830,set_tempo,,,,,70,1,0,,504625,,,,,,,
42840,note_on,,,,,0,0,2,,,,,0,,,63,37
42840,note_on,,,,,0,0,2,,,,,0,,,59,37
42840,note_on,,,,,0,0,1,,,,,0,,,78,0
42840,note_on,,,,,0,0,1,,,,,0,,,75,35
42840,note_on,,,,,0,0,1,,,,,0,,,78,35
42840,control_change,,,,,0,0,1,,,,,0,64,96,,
42840,note_on,,,,,60,0,1,,,,,0,,,73,0
42840,note_on,,,,,0,0,2,,,,,0,,,66,0
42840,note_on,,,,,240,0,2,,,,,0,,,54,0
42870,set_tempo,,,,,40,1,0,,506756,,,,,,,
42960,note_on,,,,,0,0,2,,,,,0,,,51,31
42960,note_on,,,,,120,0,2,,,,,0,,,59,0
42965,set_tempo,,,,,95,1,0,,508905,,,,,,,
42990,note_on,,,,,150,0,1,,,,,0,,,75,0
43020,note_on,,,,,30,0,1,,,,,0,,,66,31
43075,set_tempo,,,,,110,1,0,,511073,,,,,,,
43080,control_change,,,,,0,0,1,,,,,0,64,0,,
43080,note_on,,,,,0,0,1,,,,,0,,,71,34
43080,note_on,,,,,60,0,1,,,,,0,,,66,0
43125,set_tempo,,,,,50,1,0,,513259,,,,,,,
43140,note_on,,,,,0,0,1,,,,,0,,,73,36
43140,note_on,,,,,60,0,1,,,,,0,,,71,0
43200,note_on,,,,,0,0,2,,,,,0,,,59,30
43200,note_on,,,,,0,0,2,,,,,0,,,54,30
43200,note_on,,,,,0,0,2,,,,,0,,,63,0
43200,note_on,,,,,60,0,1,,,,,0,,,73,0
43200,note_on,,,,,0,0,1,,,,,0,,,78,0
43200,note_on,,,,,0,0,1,,,,,0,,,75,34
43200,note_on,,,,,0,0,1,,,,,0,,,78,34
43200,control_change,,,,,0,0,1,,,,,0,64,96,,
43200,note_on,,,,,240,0,2,,,,,0,,,51,0
43320,note_on,,,,,120,0,2,,,,,0,,,54,0
43320,note_on,,,,,0,0,2,,,,,0,,,47,27
43350,note_on,,,,,150,0,1,,,,,0,,,75,0
43380,note_on,,,,,30,0,1,,,,,0,,,66,35
43390,set_tempo,,,,,265,1,0,,515463,,,,,,,
43420,set_tempo,,,,,30,1,0,,517687,,,,,,,
43440,note_on,,,,,60,0,1,,,,,0,,,66,0
43440,control_change,,,,,0,0,1,,,,,0,64,0,,
43440,note_on,,,,,0,0,1,,,,,0,,,71,32
43465,set_tempo,,,,,45,1,0,,519930,,,,,,,
43500,note_on,,,,,0,0,1,,,,,0,,,73,32
43500,note_on,,,,,60,0,1,,,,,0,,,71,0
43505,set_tempo,,,,,40,1,0,,522193,,,,,,,
43550,set_tempo,,,,,45,1,0,,524475,,,,,,,
43555,set_tempo,,,,,5,1,0,,526777,,,,,,,
43560,note_on,,,,,0,0,1,,,,,0,,,75,32
43560,note_on,,,,,240,0,2,,,,,0,,,47,0
43560,note_on,,,,,0,0,2,,,,,0,,,59,0
43560,note_on,,,,,0,0,2,,,,,0,,,54,28
43560,note_on,,,,,60,0,1,,,,,0,,,73,0
43560,control_change,,,,,0,0,1,,,,,0,64,95,,
43560,note_on,,,,,0,0,1,,,,,0,,,78,32
43560,note_on,,,,,0,0,1,,,,,0,,,71,32
43560,note_on,,,,,0,0,1,,,,,0,,,78,0
43605,set_tempo,,,,,50,1,0,,529100,,,,,,,
43645,set_tempo,,,,,40,1,0,,531443,,,,,,,
43665,set_tempo,,,,,20,1,0,,533807,,,,,,,
43680,note_on,,,,,0,0,1,,,,,0,,,73,26
43680,note_on,,,,,120,0,1,,,,,0,,,75,0
43680,note_on,,,,,120,0,2,,,,,0,,,42,22
43680,note_on,,,,,0,0,1,,,,,0,,,71,0
43680,note_on,,,,,0,0,1,,,,,0,,,70,26
43695,set_tempo,,,,,30,1,0,,536193,,,,,,,
43750,set_tempo,,,,,55,1,0,,538599,,,,,,,
43785,note_on,,,,,0,0,1,,,,,0,,,70,0
43785,note_on,,,,,105,0,1,,,,,0,,,73,0
43800,note_on,,,,,0,0,1,,,,,0,,,78,22
43800,note_on,,,,,0,0,1,,,,,0,,,73,22
43800,note_on,,,,,0,0,1,,,,,0,,,70,22
43800,note_on,,,,,15,0,1,,,,,0,,,78,0
43800,set_tempo,,,,,50,1,0,,541027,,,,,,,
43800,control_change,,,,,0,0,1,,,,,0,64,0,,
43825,set_tempo,,,,,25,1,0,,543478,,,,,,,
43830,set_tempo,,,,,5,1,0,,545950,,,,,,,
43890,set_tempo,,,,,60,1,0,,548446,,,,,,,
43910,set_tempo,,,,,20,1,0,,545950,,,,,,,
43920,note_on,,,,,0,0,1,,,,,0,,,73,0
43920,note_on,,,,,0,0,1,,,,,0,,,70,0
43920,note_on,,,,,0,0,1,,,,,0,,,78,18
43920,control_change,,,,,0,0,1,,,,,0,64,94,,
43920,note_on,,,,,240,0,2,,,,,0,,,42,0
43920,note_on,,,,,0,0,2,,,,,0,,,54,0
43920,note_on,,,,,0,0,2,,,,,0,,,47,25
43920,note_on,,,,,0,0,1,,,,,0,,,71,18
43920,note_on,,,,,0,0,1,,,,,0,,,75,18
43920,note_on,,,,,120,0,1,,,,,0,,,78,0
43950,set_tempo,,,,,40,1,0,,543478,,,,,,,
43970,set_tempo,,,,,20,1,0,,541027,,,,,,,
44030,set_tempo,,,,,60,1,0,,526777,,,,,,,
44040,note_on,,,,,120,0,2,,,,,0,,,35,18
44070,note_on,,,,,0,0,1,,,,,0,,,71,0
44070,note_on,,,,,0,0,1,,,,,0,,,75,0
44070,note_on,,,,,150,0,1,,,,,0,,,78,0
44070,note_on,,,,,30,0,2,,,,,0,,,35,0
44070,note_on,,,,,0,0,2,,,,,0,,,47,0
44085,control_change,,,,,15,0,1,,,,,0,64,0,,
44090,set_tempo,,,,,60,1,0,,522193,,,,,,,
44100,note_on,,,,,15,0,1,,,,,0,,,78,35
44100,set_tempo,,,,,10,1,0,,519930,,,,,,,
44110,set_tempo,,,,,10,1,0,,517687,,,,,,,
44160,note_on,,,,,60,0,1,,,,,0,,,78,0
44160,note_on,,,,,0,0,1,,,,,0,,,80,37
44170,set_tempo,,,,,60,1,0,,515463,,,,,,,
44190,set_tempo,,,,,20,1,0,,511073,,,,,,,
44220,note_on,,,,,0,0,1,,,,,0,,,82,39
44220,note_on,,,,,60,0,1,,,,,0,,,80,0
44250,set_tempo,,,,,60,1,0,,506756,,,,,,,
44280,note_on,,,,,60,0,1,,,,,0,,,82,0
44280,note_on,,,,,0,0,1,,,,,0,,,83,40
44280,control_change,,,,,0,0,1,,,,,0,64,96,,
44280,note_on,,,,,210,0,2,,,,,0,,,56,26
44310,set_tempo,,,,,60,1,0,,502512,,,,,,,
44370,set_tempo,,,,,60,1,0,,490196,,,,,,,
44370,note_on,,,,,90,0,2,,,,,0,,,56,0
44390,set_tempo,,,,,20,1,0,,486223,,,,,,,
44400,note_on,,,,,0,0,2,,,,,0,,,64,35
44400,note_on,,,,,0,0,2,,,,,0,,,59,35
44400,note_on,,,,,30,0,2,,,,,0,,,68,35
44410,set_tempo,,,,,20,1,0,,484261,,,,,,,
44420,set_tempo,,,,,10,1,0,,482315,,,,,,,
44460,note_on,,,,,0,0,1,,,,,0,,,83,34
44460,note_on,,,,,180,0,1,,,,,0,,,83,0
44480,set_tempo,,,,,60,1,0,,480384,,,,,,,
44520,control_change,,,,,0,0,1,,,,,0,64,0,,
44520,note_on,,,,,0,0,1,,,,,0,,,82,36
44520,note_on,,,,,60,0,1,,,,,0,,,83,0
44530,set_tempo,,,,,50,1,0,,478468,,,,,,,
44580,note_on,,,,,60,0,1,,,,,0,,,82,0
44580,note_on,,,,,0,0,1,,,,,0,,,80,37
44640,note_on,,,,,240,0,2,,,,,0,,,59,0
44640,control_change,,,,,0,0,1,,,,,0,64,95,,
44640,note_on,,,,,0,0,1,,,,,0,,,78,38
44640,note_on,,,,,0,0,2,,,,,0,,,64,0
44640,note_on,,,,,0,0,2,,,,,0,,,68,0
44640,note_on,,,,,0,0,2,,,,,0,,,47,32
44640,note_on,,,,,60,0,1,,,,,0,,,80,0
44730,note_on,,,,,90,0,2,,,,,0,,,47,0
44760,note_on,,,,,0,0,2,,,,,0,,,59,35
44760,note_on,,,,,0,0,2,,,,,0,,,63,35
44760,note_on,,,,,30,0,2,,,,,0,,,66,35
44820,note_on,,,,,180,0,1,,,,,0,,,78,0
44820,note_on,,,,,0,0,1,,,,,0,,,78,41
44870,set_tempo,,,,,340,1,0,,482315,,,,,,,
44880,control_change,,,,,0,0,1,,,,,0,64,0,,
44880,note_on,,,,,0,0,1,,,,,0,,,76,42
44880,note_on,,,,,60,0,1,,,,,0,,,78,0
44930,set_tempo,,,,,60,1,0,,484261,,,,,,,
44940,set_tempo,,,,,10,1,0,,486223,,,,,,,
44940,note_on,,,,,60,0,1,,,,,0,,,76,0
44940,note_on,,,,,0,0,1,,,,,0,,,75,43
44960,set_tempo,,,,,20,1,0,,490196,,,,,,,
44980,set_tempo,,,,,20,1,0,,492206,,,,,,,
44990,set_tempo,,,,,10,1,0,,494233,,,,,,,
45000,note_on,,,,,0,0,1,,,,,0,,,73,44
45000,note_on,,,,,60,0,1,,,,,0,,,75,0
45000,note_on,,,,,0,0,1,,,,,0,,,80,44
45000,control_change,,,,,0,0,1,,,,,0,64,95,,
45000,note_on,,,,,0,0,2,,,,,0,,,63,0
45000,note_on,,,,,240,0,2,,,,,0,,,59,0
45000,note_on,,,,,0,0,2,,,,,0,,,46,29
45000,note_on,,,,,0,0,2,,,,,0,,,66,0
45050,set_tempo,,,,,60,1,0,,498338,,,,,,,
45060,set_tempo,,,,,10,1,0,,500417,,,,,,,
45090,note_on,,,,,90,0,2,,,,,0,,,46,0
45090,set_tempo,,,,,30,1,0,,502512,,,,,,,
45110,set_tempo,,,,,20,1,0,,506756,,,,,,,
45120,note_on,,,,,30,0,2,,,,,0,,,64,36
45120,note_on,,,,,0,0,2,,,,,0,,,61,36
45120,note_on,,,,,0,0,2,,,,,0,,,54,36
45130,set_tempo,,,,,20,1,0,,511073,,,,,,,
45150,set_tempo,,,,,20,1,0,,515463,,,,,,,
45170,set_tempo,,,,,20,1,0,,517687,,,,,,,
45180,note_on,,,,,0,0,1,,,,,0,,,74,38
45180,note_on,,,,,180,0,1,,,,,0,,,73,0
45190,set_tempo,,,,,20,1,0,,519930,,,,,,,
45210,set_tempo,,,,,20,1,0,,524475,,,,,,,
45230,set_tempo,,,,,20,1,0,,526777,,,,,,,
45240,note_on,,,,,0,0,1,,,,,0,,,75,34
45240,note_on,,,,,60,0,1,,,,,0,,,74,0
45245,control_change,,,,,5,0,1,,,,,0,64,0,,
45250,set_tempo,,,,,20,1,0,,529100,,,,,,,
45280,set_tempo,,,,,30,1,0,,533807,,,,,,,
45300,note_on,,,,,55,0,1,,,,,0,,,75,0
45300,note_on,,,,,0,0,1,,,,,0,,,76,33
45320,set_tempo,,,,,40,1,0,,543478,,,,,,,
45340,set_tempo,,,,,20,1,0,,545950,,,,,,,
45350,set_tempo,,,,,10,1,0,,545950,,,,,,,
45360,note_on,,,,,0,0,2,,,,,0,,,47,25
45360,note_on,,,,,60,0,1,,,,,0,,,76,0
45360,note_on,,,,,0,0,2,,,,,0,,,61,0
45360,note_on,,,,,0,0,2,,,,,0,,,64,0
45360,note_on,,,,,0,0,1,,,,,0,,,78,31
45360,note_on,,,,,0,0,1,,,,,0,,,75,31
45360,control_change,,,,,0,0,1,,,,,0,64,96,,
45360,note_on,,,,,240,0,2,,,,,0,,,54,0
45360,note_on,,,,,0,0,1,,,,,0,,,80,0
45450,note_on,,,,,90,0,2,,,,,0,,,47,0
45480,note_on,,,,,30,0,2,,,,,0,,,63,30
45480,note_on,,,,,0,0,2,,,,,0,,,59,30
45480,note_on,,,,,0,0,2,,,,,0,,,54,30
45500,set_tempo,,,,,150,1,0,,548446,,,,,,,
45510,note_on,,,,,150,0,1,,,,,0,,,75,0
45530,set_tempo,,,,,30,1,0,,550964,,,,,,,
45540,note_on,,,,,30,0,1,,,,,0,,,75,36
45580,set_tempo,,,,,50,1,0,,553505,,,,,,,
45600,note_on,,,,,60,0,1,,,,,0,,,75,0
45600,note_on,,,,,0,0,1,,,,,0,,,73,40
45605,control_change,,,,,5,0,1,,,,,0,64,0,,
45650,set_tempo,,,,,70,1,0,,556070,,,,,,,
45660,note_on,,,,,0,0,1,,,,,0,,,71,42
45660,note_on,,,,,55,0,1,,,,,0,,,73,0
45670,set_tempo,,,,,20,1,0,,558659,,,,,,,
45720,note_on,,,,,0,0,1,,,,,0,,,78,0
45720,note_on,,,,,0,0,1,,,,,0,,,78,42
45720,control_change,,,,,0,0,1,,,,,0,64,95,,
45720,note_on,,,,,0,0,2,,,,,0,,,37,38
45720,note_on,,,,,0,0,2,,,,,0,,,63,0
45720,note_on,,,,,0,0,2,,,,,0,,,59,0
45720,note_on,,,,,240,0,2,,,,,0,,,54,0
45720,note_on,,,,,0,0,1,,,,,0,,,70,42
45720,note_on,,,,,60,0,1,,,,,0,,,71,0
45730,set_tempo,,,,,60,1,0,,561272,,,,,,,
45770,set_tempo,,,,,40,1,0,,563909,,,,,,,
45810,set_tempo,,,,,40,1,0,,566572,,,,,,,
45840,note_on,,,,,0,0,1,,,,,0,,,76,38
45840,note_on,,,,,0,0,1,,,,,0,,,70,0
45840,note_on,,,,,120,0,1,,,,,0,,,78,0
45840,note_on,,,,,0,0,1,,,,,0,,,68,38
45840,note_on,,,,,120,0,2,,,,,0,,,49,28
45850,set_tempo,,,,,40,1,0,,569259,,,,,,,
45880,set_tempo,,,,,30,1,0,,571973,,,,,,,
45930,set_tempo,,,,,50,1,0,,574712,,,,,,,
45930,note_on,,,,,90,0,1,,,,,0,,,76,0
45930,note_on,,,,,0,0,1,,,,,0,,,68,0
45960,note_on,,,,,30,0,1,,,,,0,,,68,33
45960,note_on,,,,,0,0,1,,,,,0,,,76,33
45965,control_change,,,,,5,0,1,,,,,0,64,0,,
45970,set_tempo,,,,,40,1,0,,577478,,,,,,,
46000,set_tempo,,,,,30,1,0,,580270,,,,,,,
46010,set_tempo,,,,,10,1,0,,583090,,,,,,,
46050,note_on,,,,,0,0,1,,,,,0,,,68,0
46050,note_on,,,,,85,0,1,,,,,0,,,76,0
46070,set_tempo,,,,,60,1,0,,585937,,,,,,,
46080,note_on,,,,,0,0,1,,,,,0,,,67,28
46080,control_change,,,,,0,0,1,,,,,0,64,96,,
46080,note_on,,,,,240,0,2,,,,,0,,,49,0
46080,note_on,,,,,0,0,2,,,,,0,,,37,0
46080,note_on,,,,,0,0,2,,,,,0,,,39,32
46080,note_on,,,,,30,0,1,,,,,0,,,75,28
46150,set_tempo,,,,,80,1,0,,588812,,,,,,,
46200,note_on,,,,,120,0,2,,,,,0,,,51,28
46230,note_on,,,,,0,0,1,,,,,0,,,75,33
46230,set_tempo,,,,,80,1,0,,750938,,,,,,,
46230,note_on,,,,,150,0,1,,,,,0,,,75,0
46245,note_on,,,,,15,0,1,,,,,0,,,75,0
46245,note_on,,,,,0,0,1,,,,,0,,,76,33
46260,set_tempo,,,,,30,1,0,,600600,,,,,,,
46260,note_on,,,,,15,0,1,,,,,0,,,76,0
46260,note_on,,,,,0,0,1,,,,,0,,,75,33
46270,set_tempo,,,,,10,1,0,,645855,,,,,,,
46280,set_tempo,,,,,10,1,0,,642398,,,,,,,
46320,note_on,,,,,0,0,1,,,,,0,,,74,35
46320,note_on,,,,,60,0,1,,,,,0,,,75,0
46320,control_change,,,,,0,0,1,,,,,0,64,0,,
46340,set_tempo,,,,,60,1,0,,635593,,,,,,,
46350,set_tempo,,,,,10,1,0,,632244,,,,,,,
46380,note_on,,,,,60,0,1,,,,,0,,,74,0
46380,set_tempo,,,,,30,1,0,,625651,,,,,,,
46380,note_on,,,,,0,0,1,,,,,0,,,75,37
46400,set_tempo,,,,,20,1,0,,622406,,,,,,,
46430,set_tempo,,,,,30,1,0,,619195,,,,,,,
46440,note_on,,,,,0,0,1,,,,,0,,,68,38
46440,note_on,,,,,240,0,2,,,,,0,,,51,0
46440,note_on,,,,,0,0,2,,,,,0,,,39,0
46440,note_on,,,,,0,0,2,,,,,0,,,37,33
46440,note_on,,,,,0,0,1,,,,,0,,,67,0
46440,note_on,,,,,0,0,1,,,,,0,,,78,38
46440,control_change,,,,,0,0,1,,,,,0,64,96,,
46440,note_on,,,,,60,0,1,,,,,0,,,75,0
46450,set_tempo,,,,,20,1,0,,616016,,,,,,,
46470,set_tempo,,,,,20,1,0,,612870,,,,,,,
46500,note_on,,,,,0,0,1,,,,,0,,,76,38
46500,note_on,,,,,60,0,1,,,,,0,,,78,0
46500,set_tempo,,,,,30,1,0,,609756,,,,,,,
46520,set_tempo,,,,,20,1,0,,609756,,,,,,,
46545,note_on,,,,,0,0,1,,,,,0,,,68,0
46545,note_on,,,,,45,0,1,,,,,0,,,76,0
46560,note_on,,,,,15,0,1,,,,,0,,,68,34
46560,note_on,,,,,0,0,1,,,,,0,,,75,34
46560,note_on,,,,,120,0,2,,,,,0,,,49,23
46600,set_tempo,,,,,80,1,0,,612870,,,,,,,
46620,note_on,,,,,60,0,1,,,,,0,,,75,0
46620,note_on,,,,,0,0,1,,,,,0,,,76,30
46630,set_tempo,,,,,30,1,0,,616016,,,,,,,
46640,set_tempo,,,,,10,1,0,,619195,,,,,,,
46660,set_tempo,,,,,20,1,0,,622406,,,,,,,
46665,note_on,,,,,45,0,1,,,,,0,,,76,0
46665,note_on,,,,,0,0,1,,,,,0,,,68,0
46670,set_tempo,,,,,10,1,0,,625651,,,,,,,
46680,note_on,,,,,15,0,1,,,,,0,,,68,27
46680,note_on,,,,,0,0,1,,,,,0,,,78,27
46740,note_on,,,,,60,0,1,,,,,0,,,78,0
46740,note_on,,,,,0,0,1,,,,,0,,,76,23
46775,control_change,,,,,35,0,1,,,,,0,64,0,,
46785,note_on,,,,,10,0,1,,,,,0,,,76,0
46785,note_on,,,,,0,0,1,,,,,0,,,68,0
46800,note_on,,,,,240,0,2,,,,,0,,,49,0
46800,note_on,,,,,0,0,2,,,,,0,,,37,0
46800,note_on,,,,,0,0,2,,,,,0,,,39,27
46800,note_on,,,,,15,0,1,,,,,0,,,67,19
46800,note_on,,,,,0,0,1,,,,,0,,,75,19
46800,control_change,,,,,0,0,1,,,,,0,64,96,,
46920,note_on,,,,,120,0,2,,,,,0,,,51,19
47010,note_on,,,,,0,0,1,,,,,0,,,67,0
47010,note_on,,,,,210,0,1,,,,,0,,,75,0
47035,control_change,,,,,25,0,1,,,,,0,64,0,,
47040,note_on,,,,,5,0,1,,,,,0,,,75,28
47040,set_tempo,,,,,370,1,0,,667408,,,,,,,
47160,note_on,,,,,0,0,2,,,,,0,,,39,0
47160,note_on,,,,,240,0,2,,,,,0,,,51,0
47160,note_on,,,,,120,0,1,,,,,0,,,75,0
47160,note_on,,,,,0,0,1,,,,,0,,,75,34
47400,note_on,,,,,240,0,1,,,,,0,,,75,0
47400,note_on,,,,,0,0,1,,,,,0,,,75,28
47520,note_on,,,,,120,0,1,,,,,0,,,75,0
47520,note_on,,,,,0,0,1,,,,,0,,,75,24
47700,note_on,,,,,180,0,1,,,,,0,,,63,24
47700,set_tempo,,,,,660,1,0,,566572,,,,,,,
47700,control_change,,,,,0,0,1,,,,,0,64,95,,
47710,set_tempo,,,,,10,1,0,,569259,,,,,,,
47720,set_tempo,,,,,10,1,0,,571973,,,,,,,
47740,set_tempo,,,,,20,1,0,,597609,,,,,,,
47760,set_tempo,,,,,20,1,0,,603621,,,,,,,
47760,note_on,,,,,60,0,1,,,,,0,,,63,0
47760,note_on,,,,,0,0,1,,,,,0,,,75,0
47760,note_on,,,,,0,0,1,,,,,0,,,68,25
47780,set_tempo,,,,,20,1,0,,606673,,,,,,,
47820,note_on,,,,,0,0,1,,,,,0,,,70,25
47820,note_on,,,,,60,0,1,,,,,0,,,68,0
47875,control_change,,,,,55,0,1,,,,,0,64,0,,
47880,note_on,,,,,0,0,1,,,,,0,,,72,24
47880,note_on,,,,,0,0,1,,,,,0,,,75,24
47880,control_change,,,,,0,0,1,,,,,0,64,95,,
47880,note_on,,,,,0,0,2,,,,,0,,,63,24
47880,note_on,,,,,720,0,2,,,,,0,,,56,24
47880,note_on,,,,,5,0,1,,,,,0,,,70,0
47890,set_tempo,,,,,110,1,0,,594648,,,,,,,
47900,set_tempo,,,,,10,1,0,,588812,,,,,,,
47910,set_tempo,,,,,10,1,0,,585937,,,,,,,
47920,set_tempo,,,,,10,1,0,,580270,,,,,,,
47925,set_tempo,,,,,5,1,0,,563909,,,,,,,
47930,set_tempo,,,,,5,1,0,,558659,,,,,,,
47935,set_tempo,,,,,5,1,0,,553505,,,,,,,
47940,note_on,,,,,60,0,1,,,,,0,,,72,0
47940,set_tempo,,,,,5,1,0,,550964,,,,,,,
47945,set_tempo,,,,,5,1,0,,545950,,,,,,,
47970,note_on,,,,,30,0,1,,,,,0,,,72,23
47970,set_tempo,,,,,25,1,0,,597609,,,,,,,
47985,note_on,,,,,0,0,1,,,,,0,,,73,23
47985,note_on,,,,,15,0,1,,,,,0,,,72,0
48000,set_tempo,,,,,30,1,0,,526777,,,,,,,
48000,note_on,,,,,0,0,2,,,,,0,,,51,23
48000,note_on,,,,,0,0,1,,,,,0,,,72,24
48000,note_on,,,,,15,0,1,,,,,0,,,73,0
48000,note_on,,,,,120,0,2,,,,,0,,,56,0
48005,set_tempo,,,,,5,1,0,,526777,,,,,,,
48020,set_tempo,,,,,15,1,0,,517687,,,,,,,
48060,note_on,,,,,0,0,1,,,,,0,,,70,27
48060,note_on,,,,,60,0,1,,,,,0,,,72,0
48120,control_change,,,,,0,0,1,,,,,0,64,0,,
48120,note_on,,,,,0,0,1,,,,,0,,,72,30
48120,note_on,,,,,60,0,1,,,,,0,,,70,0
48190,set_tempo,,,,,170,1,0,,515463,,,,,,,
48240,note_on,,,,,0,0,2,,,,,0,,,63,0
48240,note_on,,,,,240,0,2,,,,,0,,,51,0
48240,control_change,,,,,0,0,1,,,,,0,64,96,,
48240,note_on,,,,,0,0,1,,,,,0,,,75,31
48240,note_on,,,,,0,0,1,,,,,0,,,75,0
48240,note_on,,,,,120,0,1,,,,,0,,,72,0
48240,note_on,,,,,0,0,1,,,,,0,,,73,31
48240,note_on,,,,,0,0,2,,,,,0,,,63,26
48240,note_on,,,,,0,0,2,,,,,0,,,58,26
48270,set_tempo,,,,,80,1,0,,513259,,,,,,,
48360,note_on,,,,,0,0,2,,,,,0,,,51,21
48360,note_on,,,,,120,0,2,,,,,0,,,58,0
48370,set_tempo,,,,,100,1,0,,511073,,,,,,,
48405,note_on,,,,,165,0,1,,,,,0,,,73,0
48420,note_on,,,,,15,0,1,,,,,0,,,75,35
48430,set_tempo,,,,,60,1,0,,506756,,,,,,,
48470,set_tempo,,,,,40,1,0,,504625,,,,,,,
48480,set_tempo,,,,,10,1,0,,502512,,,,,,,
48480,note_on,,,,,60,0,1,,,,,0,,,75,0
48480,control_change,,,,,0,0,1,,,,,0,64,0,,
48480,note_on,,,,,0,0,1,,,,,0,,,73,29
48500,set_tempo,,,,,20,1,0,,500417,,,,,,,
48510,set_tempo,,,,,10,1,0,,498338,,,,,,,
48540,note_on,,,,,0,0,1,,,,,0,,,72,28
48540,note_on,,,,,60,0,1,,,,,0,,,73,0
48600,note_on,,,,,0,0,2,,,,,0,,,63,25
48600,note_on,,,,,240,0,2,,,,,0,,,51,0
48600,note_on,,,,,0,0,2,,,,,0,,,55,25
48600,note_on,,,,,0,0,2,,,,,0,,,63,0
48600,control_change,,,,,0,0,1,,,,,0,64,95,,
48600,set_tempo,,,,,90,1,0,,496277,,,,,,,
48600,note_on,,,,,0,0,1,,,,,0,,,75,30
48600,note_on,,,,,60,0,1,,,,,0,,,72,0
48600,note_on,,,,,0,0,1,,,,,0,,,75,0
48600,note_on,,,,,0,0,1,,,,,0,,,72,30
48630,note_on,,,,,30,0,1,,,,,0,,,72,0
48630,note_on,,,,,0,0,1,,,,,0,,,70,27
48630,set_tempo,,,,,30,1,0,,428877,,,,,,,
48635,set_tempo,,,,,5,1,0,,458365,,,,,,,
48680,note_on,,,,,50,0,1,,,,,0,,,70,0
48680,set_tempo,,,,,45,1,0,,460122,,,,,,,
48690,set_tempo,,,,,10,1,0,,597609,,,,,,,
48690,note_on,,,,,10,0,1,,,,,0,,,70,30
48705,note_on,,,,,15,0,1,,,,,0,,,70,0
48705,note_on,,,,,0,0,1,,,,,0,,,72,30
48710,set_tempo,,,,,20,1,0,,458365,,,,,,,
48715,set_tempo,,,,,5,1,0,,460122,,,,,,,
48720,note_on,,,,,0,0,2,,,,,0,,,51,26
48720,note_on,,,,,120,0,2,,,,,0,,,55,0
48720,note_on,,,,,15,0,1,,,,,0,,,72,0
48720,note_on,,,,,0,0,1,,,,,0,,,70,30
48740,set_tempo,,,,,25,1,0,,467289,,,,,,,
48780,set_tempo,,,,,40,1,0,,498338,,,,,,,
48780,note_on,,,,,60,0,1,,,,,0,,,70,0
48780,note_on,,,,,0,0,1,,,,,0,,,68,36
48840,note_on,,,,,0,0,1,,,,,0,,,70,39
48840,note_on,,,,,60,0,1,,,,,0,,,68,0
48840,control_change,,,,,0,0,1,,,,,0,64,0,,
48860,set_tempo,,,,,80,1,0,,500417,,,,,,,
48960,note_on,,,,,0,0,2,,,,,0,,,63,0
48960,note_on,,,,,240,0,2,,,,,0,,,51,0
48960,note_on,,,,,0,0,1,,,,,0,,,75,35
48960,note_on,,,,,0,0,2,,,,,0,,,63,30
48960,note_on,,,,,0,0,1,,,,,0,,,75,0
48960,note_on,,,,,120,0,1,,,,,0,,,70,0
48960,control_change,,,,,0,0,1,,,,,0,64,95,,
48960,note_on,,,,,0,0,1,,,,,0,,,72,35
48960,note_on,,,,,0,0,2,,,,,0,,,56,30
48980,set_tempo,,,,,120,1,0,,502512,,,,,,,
49050,set_tempo,,,,,70,1,0,,504625,,,,,,,
49080,note_on,,,,,0,0,2,,,,,0,,,51,24
49080,note_on,,,,,120,0,2,,,,,0,,,56,0
49080,set_tempo,,,,,30,1,0,,506756,,,,,,,
49110,note_on,,,,,150,0,1,,,,,0,,,72,0
49140,note_on,,,,,30,0,1,,,,,0,,,63,33
49200,note_on,,,,,60,0,1,,,,,0,,,63,0
49200,note_on,,,,,0,0,1,,,,,0,,,68,37
49200,control_change,,,,,0,0,1,,,,,0,64,0,,
49260,note_on,,,,,60,0,1,,,,,0,,,68,0
49260,note_on,,,,,0,0,1,,,,,0,,,70,41
49320,note_on,,,,,0,0,1,,,,,0,,,75,25
49320,control_change,,,,,0,0,1,,,,,0,64,96,,
49320,note_on,,,,,0,0,2,,,,,0,,,63,28
49320,note_on,,,,,60,0,1,,,,,0,,,70,0
49320,note_on,,,,,240,0,2,,,,,0,,,51,0
49320,note_on,,,,,0,0,2,,,,,0,,,63,0
49320,note_on,,,,,0,0,1,,,,,0,,,75,0
49320,note_on,,,,,0,0,2,,,,,0,,,56,28
49320,note_on,,,,,0,0,1,,,,,0,,,72,25
49351,set_tempo,,,,,271,1,0,,517687,,,,,,,
49411,set_tempo,,,,,60,1,0,,519930,,,,,,,
49421,set_tempo,,,,,10,1,0,,522193,,,,,,,
49440,note_on,,,,,120,0,2,,,,,0,,,56,0
49440,note_on,,,,,0,0,2,,,,,0,,,51,24
49461,set_tempo,,,,,40,1,0,,524475,,,,,,,
49470,note_on,,,,,150,0,1,,,,,0,,,72,0
49481,set_tempo,,,,,20,1,0,,526777,,,,,,,
49500,note_on,,,,,30,0,1,,,,,0,,,63,29
49521,set_tempo,,,,,40,1,0,,529100,,,,,,,
49531,set_tempo,,,,,10,1,0,,531443,,,,,,,
49560,note_on,,,,,60,0,1,,,,,0,,,63,0
49560,note_on,,,,,0,0,1,,,,,0,,,68,25
49560,control_change,,,,,0,0,1,,,,,0,64,0,,
49561,set_tempo,,,,,30,1,0,,550964,,,,,,,
49571,set_tempo,,,,,10,1,0,,558659,,,,,,,
49581,set_tempo,,,,,10,1,0,,561272,,,,,,,
49591,set_tempo,,,,,10,1,0,,580270,,,,,,,
49601,set_tempo,,,,,10,1,0,,600600,,,,,,,
49611,set_tempo,,,,,10,1,0,,612870,,,,,,,
49620,note_on,,,,,0,0,1,,,,,0,,,70,23
49620,note_on,,,,,60,0,1,,,,,0,,,68,0
49621,set_tempo,,,,,10,1,0,,619195,,,,,,,
49661,set_tempo,,,,,40,1,0,,750938,,,,,,,
49680,note_on,,,,,0,0,2,,,,,0,,,63,21
49680,note_on,,,,,60,0,1,,,,,0,,,70,0
49680,note_on,,,,,0,0,1,,,,,0,,,75,0
49680,note_on,,,,,0,0,1,,,,,0,,,75,23
49680,control_change,,,,,0,0,1,,,,,0,64,96,,
49680,note_on,,,,,0,0,2,,,,,0,,,56,21
49680,note_on,,,,,0,0,1,,,,,0,,,71,23
49680,note_on,,,,,0,0,2,,,,,0,,,63,0
49680,note_on,,,,,240,0,2,,,,,0,,,51,0
49681,set_tempo,,,,,20,1,0,,571973,,,,,,,
49771,set_tempo,,,,,90,1,0,,533807,,,,,,,
49800,note_on,,,,,120,0,2,,,,,0,,,56,0
49800,note_on,,,,,0,0,2,,,,,0,,,51,21
49830,note_on,,,,,150,0,1,,,,,0,,,71,0
49851,set_tempo,,,,,80,1,0,,536193,,,,,,,
49860,note_on,,,,,30,0,1,,,,,0,,,66,23
49911,set_tempo,,,,,60,1,0,,538599,,,,,,,
49920,note_on,,,,,0,0,1,,,,,0,,,71,23
49920,note_on,,,,,60,0,1,,,,,0,,,66,0
49920,control_change,,,,,0,0,1,,,,,0,64,0,,
49961,set_tempo,,,,,50,1,0,,541027,,,,,,,
49980,note_on,,,,,60,0,1,,,,,0,,,71,0
49980,note_on,,,,,0,0,1,,,,,0,,,73,23
49991,set_tempo,,,,,30,1,0,,545950,,,,,,,
50001,set_tempo,,,,,10,1,0,,543478,,,,,,,
50031,set_tempo,,,,,30,1,0,,541027,,,,,,,
50040,note_on,,,,,60,0,1,,,,,0,,,73,0
50040,note_on,,,,,0,0,1,,,,,0,,,75,0
50040,note_on,,,,,0,0,2,,,,,0,,,66,21
50040,note_on,,,,,0,0,2,,,,,0,,,59,21
50040,note_on,,,,,0,0,2,,,,,0,,,63,0
50040,note_on,,,,,240,0,2,,,,,0,,,51,0
50040,note_on,,,,,0,0,1,,,,,0,,,78,23
50040,note_on,,,,,0,0,1,,,,,0,,,75,23
50040,control_change,,,,,0,0,1,,,,,0,64,96,,
50061,set_tempo,,,,,30,1,0,,536193,,,,,,,
50071,set_tempo,,,,,10,1,0,,533807,,,,,,,
50081,set_tempo,,,,,10,1,0,,531443,,,,,,,
50111,set_tempo,,,,,30,1,0,,529100,,,,,,,
50121,set_tempo,,,,,10,1,0,,526777,,,,,,,
50151,set_tempo,,,,,30,1,0,,524475,,,,,,,
50160,note_on,,,,,0,0,2,,,,,0,,,51,21
50160,note_on,,,,,120,0,2,,,,,0,,,59,0
50181,set_tempo,,,,,30,1,0,,522193,,,,,,,
50190,note_on,,,,,150,0,1,,,,,0,,,75,0
50191,set_tempo,,,,,10,1,0,,519930,,,,,,,
50201,set_tempo,,,,,10,1,0,,517687,,,,,,,
50220,note_on,,,,,30,0,1,,,,,0,,,66,26
50241,set_tempo,,,,,40,1,0,,513259,,,,,,,
50280,control_change,,,,,0,0,1,,,,,0,64,0,,
50280,note_on,,,,,0,0,1,,,,,0,,,71,27
50280,note_on,,,,,60,0,1,,,,,0,,,66,0
50301,set_tempo,,,,,60,1,0,,511073,,,,,,,
50311,set_tempo,,,,,10,1,0,,508905,,,,,,,
50340,note_on,,,,,0,0,1,,,,,0,,,73,28
50340,note_on,,,,,60,0,1,,,,,0,,,71,0
50371,set_tempo,,,,,60,1,0,,506756,,,,,,,
50400,note_on,,,,,0,0,2,,,,,0,,,54,24
50400,note_on,,,,,0,0,2,,,,,0,,,66,0
50400,note_on,,,,,240,0,2,,,,,0,,,51,0
50400,note_on,,,,,0,0,2,,,,,0,,,59,24
50400,note_on,,,,,60,0,1,,,,,0,,,73,0
50400,note_on,,,,,0,0,1,,,,,0,,,78,0
50400,note_on,,,,,0,0,1,,,,,0,,,75,30
50400,note_on,,,,,0,0,1,,,,,0,,,78,30
50400,control_change,,,,,0,0,1,,,,,0,64,96,,
50401,set_tempo,,,,,30,1,0,,504625,,,,,,,
50411,set_tempo,,,,,10,1,0,,502512,,,,,,,
50421,set_tempo,,,,,10,1,0,,502512,,,,,,,
50431,set_tempo,,,,,10,1,0,,504625,,,,,,,
50461,set_tempo,,,,,30,1,0,,506756,,,,,,,
50520,note_on,,,,,120,0,2,,,,,0,,,54,0
50520,note_on,,,,,0,0,2,,,,,0,,,47,26
50531,set_tempo,,,,,70,1,0,,508905,,,,,,,
50550,note_on,,,,,150,0,1,,,,,0,,,75,0
50571,set_tempo,,,,,40,1,0,,513259,,,,,,,
50580,note_on,,,,,30,0,1,,,,,0,,,66,28
50611,set_tempo,,,,,40,1,0,,515463,,,,,,,
50631,set_tempo,,,,,20,1,0,,517687,,,,,,,
50640,control_change,,,,,0,0,1,,,,,0,64,0,,
50640,note_on,,,,,60,0,1,,,,,0,,,66,0
50640,note_on,,,,,0,0,1,,,,,0,,,71,26
50700,note_on,,,,,0,0,1,,,,,0,,,73,24
50700,note_on,,,,,60,0,1,,,,,0,,,71,0
50701,set_tempo,,,,,70,1,0,,522193,,,,,,,
50760,note_on,,,,,0,0,1,,,,,0,,,71,27
50760,note_on,,,,,0,0,1,,,,,0,,,78,0
50760,note_on,,,,,60,0,1,,,,,0,,,73,0
50760,note_on,,,,,240,0,2,,,,,0,,,47,0
50760,note_on,,,,,0,0,2,,,,,0,,,54,26
50760,control_change,,,,,0,0,1,,,,,0,64,95,,
50760,note_on,,,,,0,0,1,,,,,0,,,78,27
50760,note_on,,,,,0,0,2,,,,,0,,,59,0
50760,note_on,,,,,0,0,1,,,,,0,,,75,27
50761,set_tempo,,,,,60,1,0,,524475,,,,,,,
50771,set_tempo,,,,,10,1,0,,526777,,,,,,,
50791,set_tempo,,,,,20,1,0,,529100,,,,,,,
50811,set_tempo,,,,,20,1,0,,531443,,,,,,,
50880,note_on,,,,,120,0,2,,,,,0,,,42,22
50880,note_on,,,,,120,0,1,,,,,0,,,75,0
50880,note_on,,,,,0,0,1,,,,,0,,,71,0
50880,note_on,,,,,0,0,1,,,,,0,,,70,26
50880,note_on,,,,,0,0,1,,,,,0,,,73,26
50901,set_tempo,,,,,90,1,0,,536193,,,,,,,
50961,set_tempo,,,,,60,1,0,,541027,,,,,,,
50981,set_tempo,,,,,20,1,0,,543478,,,,,,,
50985,note_on,,,,,105,0,1,,,,,0,,,73,0
50985,note_on,,,,,0,0,1,,,,,0,,,70,0
51000,control_change,,,,,0,0,1,,,,,0,64,0,,
51000,note_on,,,,,15,0,1,,,,,0,,,78,0
51000,note_on,,,,,0,0,1,,,,,0,,,70,22
51000,note_on,,,,,0,0,1,,,,,0,,,73,22
51000,note_on,,,,,0,0,1,,,,,0,,,78,22
51051,set_tempo,,,,,70,1,0,,545950,,,,,,,
51111,set_tempo,,,,,60,1,0,,550964,,,,,,,
51120,control_change,,,,,0,0,1,,,,,0,64,94,,
51120,note_on,,,,,0,0,1,,,,,0,,,71,20
51120,note_on,,,,,0,0,1,,,,,0,,,75,20
51120,note_on,,,,,0,0,1,,,,,0,,,70,0
51120,note_on,,,,,0,0,1,,,,,0,,,78,20
51120,note_on,,,,,120,0,1,,,,,0,,,78,0
51120,note_on,,,,,0,0,2,,,,,0,,,47,25
51120,note_on,,,,,0,0,2,,,,,0,,,54,0
51120,note_on,,,,,240,0,2,,,,,0,,,42,0
51120,note_on,,,,,0,0,1,,,,,0,,,73,0
51121,set_tempo,,,,,10,1,0,,553505,,,,,,,
51161,set_tempo,,,,,40,1,0,,556070,,,,,,,
51181,set_tempo,,,,,20,1,0,,561272,,,,,,,
51240,note_on,,,,,120,0,2,,,,,0,,,35,18
51261,set_tempo,,,,,80,1,0,,563909,,,,,,,
51270,note_on,,,,,0,0,2,,,,,0,,,47,0
51270,note_on,,,,,30,0,2,,,,,0,,,35,0
51270,note_on,,,,,150,0,1,,,,,0,,,78,0
51270,note_on,,,,,0,0,1,,,,,0,,,75,0
51270,note_on,,,,,0,0,1,,,,,0,,,71,0
51281,set_tempo,,,,,20,1,0,,569259,,,,,,,
51300,note_on,,,,,30,0,1,,,,,0,,,78,35
51301,set_tempo,,,,,20,1,0,,536193,,,,,,,
51321,set_tempo,,,,,20,1,0,,533807,,,,,,,
51331,set_tempo,,,,,10,1,0,,531443,,,,,,,
51360,note_on,,,,,0,0,1,,,,,0,,,80,37
51360,note_on,,,,,60,0,1,,,,,0,,,78,0
51371,set_tempo,,,,,40,1,0,,526777,,,,,,,
51391,set_tempo,,,,,20,1,0,,524475,,,,,,,
51411,set_tempo,,,,,20,1,0,,522193,,,,,,,
51420,note_on,,,,,0,0,1,,,,,0,,,82,39
51420,note_on,,,,,60,0,1,,,,,0,,,80,0
51441,set_tempo,,,,,30,1,0,,517687,,,,,,,
51480,note_on,,,,,210,0,2,,,,,0,,,56,26
51480,control_change,,,,,0,0,1,,,,,0,64,96,,
51480,note_on,,,,,0,0,1,,,,,0,,,83,40
51480,note_on,,,,,60,0,1,,,,,0,,,82,0
51521,set_tempo,,,,,80,1,0,,515463,,,,,,,
51531,set_tempo,,,,,10,1,0,,513259,,,,,,,
51551,set_tempo,,,,,20,1,0,,511073,,,,,,,
51570,note_on,,,,,90,0,2,,,,,0,,,56,0
51571,set_tempo,,,,,20,1,0,,508905,,,,,,,
51600,note_on,,,,,0,0,2,,,,,0,,,64,35
51600,note_on,,,,,30,0,2,,,,,0,,,68,35
51600,note_on,,,,,0,0,2,,,,,0,,,59,35
51631,set_tempo,,,,,60,1,0,,504625,,,,,,,
51660,note_on,,,,,180,0,1,,,,,0,,,83,0
51660,note_on,,,,,0,0,1,,,,,0,,,83,34
51671,set_tempo,,,,,40,1,0,,500417,,,,,,,
51691,set_tempo,,,,,20,1,0,,498338,,,,,,,
51720,note_on,,,,,60,0,1,,,,,0,,,83,0
51720,note_on,,,,,0,0,1,,,,,0,,,82,36
51720,control_change,,,,,0,0,1,,,,,0,64,0,,
51721,set_tempo,,,,,30,1,0,,496277,,,,,,,
51780,note_on,,,,,0,0,1,,,,,0,,,80,37
51780,note_on,,,,,60,0,1,,,,,0,,,82,0
51781,set_tempo,,,,,60,1,0,,494233,,,,,,,
51811,set_tempo,,,,,30,1,0,,492206,,,,,,,
51821,set_tempo,,,,,10,1,0,,490196,,,,,,,
51840,note_on,,,,,240,0,2,,,,,0,,,59,0
51840,control_change,,,,,0,0,1,,,,,0,64,95,,
51840,note_on,,,,,0,0,1,,,,,0,,,78,38
51840,note_on,,,,,60,0,1,,,,,0,,,80,0
51840,note_on,,,,,0,0,2,,,,,0,,,64,0
51840,note_on,,,,,0,0,2,,,,,0,,,47,32
51840,note_on,,,,,0,0,2,,,,,0,,,68,0
51841,set_tempo,,,,,20,1,0,,488201,,,,,,,
51930,note_on,,,,,90,0,2,,,,,0,,,47,0
51960,note_on,,,,,0,0,2,,,,,0,,,63,35
51960,note_on,,,,,30,0,2,,,,,0,,,66,35
51960,note_on,,,,,0,0,2,,,,,0,,,59,35
52011,set_tempo,,,,,170,1,0,,490196,,,,,,,
52020,note_on,,,,,0,0,1,,,,,0,,,78,41
52020,note_on,,,,,180,0,1,,,,,0,,,78,0
52041,set_tempo,,,,,30,1,0,,492206,,,,,,,
52071,set_tempo,,,,,30,1,0,,494233,,,,,,,
52080,control_change,,,,,0,0,1,,,,,0,64,0,,
52080,note_on,,,,,60,0,1,,,,,0,,,78,0
52080,note_on,,,,,0,0,1,,,,,0,,,76,42
52091,set_tempo,,,,,20,1,0,,496277,,,,,,,
52101,set_tempo,,,,,10,1,0,,498338,,,,,,,
52131,set_tempo,,,,,30,1,0,,500417,,,,,,,
52140,note_on,,,,,0,0,1,,,,,0,,,75,43
52140,note_on,,,,,60,0,1,,,,,0,,,76,0
52141,set_tempo,,,,,10,1,0,,502512,,,,,,,
52151,set_tempo,,,,,10,1,0,,504625,,,,,,,
52171,set_tempo,,,,,20,1,0,,506756,,,,,,,
52181,set_tempo,,,,,10,1,0,,508905,,,,,,,
52200,note_on,,,,,0,0,2,,,,,0,,,46,29
52200,note_on,,,,,0,0,2,,,,,0,,,66,0
52200,note_on,,,,,0,0,2,,,,,0,,,63,0
52200,note_on,,,,,0,0,1,,,,,0,,,80,44
52200,note_on,,,,,60,0,1,,,,,0,,,75,0
52200,control_change,,,,,0,0,1,,,,,0,64,95,,
52200,note_on,,,,,0,0,1,,,,,0,,,73,44
52200,note_on,,,,,240,0,2,,,,,0,,,59,0
52201,set_tempo,,,,,20,1,0,,511073,,,,,,,
52211,set_tempo,,,,,10,1,0,,513259,,,,,,,
52221,set_tempo,,,,,10,1,0,,515463,,,,,,,
52241,set_tempo,,,,,20,1,0,,517687,,,,,,,
52281,set_tempo,,,,,40,1,0,,522193,,,,,,,
52290,note_on,,,,,90,0,2,,,,,0,,,46,0
52291,set_tempo,,,,,10,1,0,,524475,,,,,,,
52320,note_on,,,,,0,0,2,,,,,0,,,54,36
52320,note_on,,,,,30,0,2,,,,,0,,,64,36
52320,note_on,,,,,0,0,2,,,,,0,,,61,36
52321,set_tempo,,,,,30,1,0,,526777,,,,,,,
52341,set_tempo,,,,,20,1,0,,529100,,,,,,,
52380,note_on,,,,,0,0,1,,,,,0,,,74,38
52380,note_on,,,,,180,0,1,,,,,0,,,73,0
52401,set_tempo,,,,,60,1,0,,533807,,,,,,,
52440,note_on,,,,,60,0,1,,,,,0,,,74,0
52440,note_on,,,,,0,0,1,,,,,0,,,75,34
52441,set_tempo,,,,,40,1,0,,538599,,,,,,,
52445,control_change,,,,,5,0,1,,,,,0,64,0,,
52500,note_on,,,,,55,0,1,,,,,0,,,75,0
52500,note_on,,,,,0,0,1,,,,,0,,,76,33
52521,set_tempo,,,,,80,1,0,,543478,,,,,,,
52541,set_tempo,,,,,20,1,0,,545950,,,,,,,
52551,set_tempo,,,,,10,1,0,,545950,,,,,,,
52560,note_on,,,,,0,0,1,,,,,0,,,75,31
52560,note_on,,,,,60,0,1,,,,,0,,,76,0
52560,control_change,,,,,0,0,1,,,,,0,64,96,,
52560,note_on,,,,,0,0,1,,,,,0,,,80,0
52560,note_on,,,,,0,0,1,,,,,0,,,78,31
52560,note_on,,,,,0,0,2,,,,,0,,,47,25
52560,note_on,,,,,240,0,2,,,,,0,,,54,0
52560,note_on,,,,,0,0,2,,,,,0,,,61,0
52560,note_on,,,,,0,0,2,,,,,0,,,64,0
52650,note_on,,,,,90,0,2,,,,,0,,,47,0
52680,note_on,,,,,30,0,2,,,,,0,,,63,30
52680,note_on,,,,,0,0,2,,,,,0,,,54,30
52680,note_on,,,,,0,0,2,,,,,0,,,59,30
52701,set_tempo,,,,,150,1,0,,548446,,,,,,,
52710,note_on,,,,,150,0,1,,,,,0,,,75,0
52731,set_tempo,,,,,30,1,0,,550964,,,,,,,
52740,note_on,,,,,30,0,1,,,,,0,,,75,36
52781,set_tempo,,,,,50,1,0,,553505,,,,,,,
52800,note_on,,,,,60,0,1,,,,,0,,,75,0
52800,note_on,,,,,0,0,1,,,,,0,,,73,40
52805,control_change,,,,,5,0,1,,,,,0,64,0,,
52851,set_tempo,,,,,70,1,0,,556070,,,,,,,
52860,note_on,,,,,55,0,1,,,,,0,,,73,0
52860,note_on,,,,,0,0,1,,,,,0,,,71,42
52871,set_tempo,,,,,20,1,0,,558659,,,,,,,
52920,note_on,,,,,0,0,1,,,,,0,,,70,42
52920,note_on,,,,,0,0,1,,,,,0,,,78,0
52920,note_on,,,,,0,0,2,,,,,0,,,63,0
52920,note_on,,,,,0,0,2,,,,,0,,,37,38
52920,note_on,,,,,0,0,2,,,,,0,,,59,0
52920,note_on,,,,,240,0,2,,,,,0,,,54,0
52920,note_on,,,,,60,0,1,,,,,0,,,71,0
52920,note_on,,,,,0,0,1,,,,,0,,,78,42
52920,control_change,,,,,0,0,1,,,,,0,64,95,,
52931,set_tempo,,,,,60,1,0,,561272,,,,,,,
52971,set_tempo,,,,,40,1,0,,563909,,,,,,,
53011,set_tempo,,,,,40,1,0,,566572,,,,,,,
53040,note_on,,,,,120,0,2,,,,,0,,,49,28
53040,note_on,,,,,120,0,1,,,,,0,,,78,0
53040,note_on,,,,,0,0,1,,,,,0,,,76,38
53040,note_on,,,,,0,0,1,,,,,0,,,70,0
53040,note_on,,,,,0,0,1,,,,,0,,,68,38
53051,set_tempo,,,,,40,1,0,,569259,,,,,,,
53081,set_tempo,,,,,30,1,0,,571973,,,,,,,
53130,note_on,,,,,0,0,1,,,,,0,,,68,0
53130,note_on,,,,,90,0,1,,,,,0,,,76,0
53131,set_tempo,,,,,50,1,0,,574712,,,,,,,
53160,note_on,,,,,0,0,1,,,,,0,,,76,33
53160,note_on,,,,,30,0,1,,,,,0,,,68,33
53171,set_tempo,,,,,40,1,0,,577478,,,,,,,
53201,set_tempo,,,,,30,1,0,,580270,,,,,,,
53211,set_tempo,,,,,10,1,0,,583090,,,,,,,
53250,note_on,,,,,0,0,1,,,,,0,,,68,0
53250,note_on,,,,,90,0,1,,,,,0,,,76,0
53271,set_tempo,,,,,60,1,0,,585937,,,,,,,
53275,control_change,,,,,25,0,1,,,,,0,64,0,,
53280,note_on,,,,,0,0,2,,,,,0,,,37,0
53280,note_on,,,,,0,0,2,,,,,0,,,39,32
53280,note_on,,,,,5,0,1,,,,,0,,,75,28
53280,note_on,,,,,0,0,1,,,,,0,,,67,28
53280,control_change,,,,,0,0,1,,,,,0,64,96,,
53280,note_on,,,,,240,0,2,,,,,0,,,49,0
53351,set_tempo,,,,,80,1,0,,588812,,,,,,,
53400,note_on,,,,,120,0,2,,,,,0,,,51,28
53430,note_on,,,,,150,0,1,,,,,0,,,75,0
53430,note_on,,,,,0,0,1,,,,,0,,,75,33
53431,set_tempo,,,,,80,1,0,,750938,,,,,,,
53445,note_on,,,,,0,0,1,,,,,0,,,76,33
53445,note_on,,,,,15,0,1,,,,,0,,,75,0
53460,note_on,,,,,0,0,1,,,,,0,,,75,33
53460,note_on,,,,,15,0,1,,,,,0,,,76,0
53461,set_tempo,,,,,30,1,0,,600600,,,,,,,
53471,set_tempo,,,,,10,1,0,,645855,,,,,,,
53481,set_tempo,,,,,10,1,0,,642398,,,,,,,
53520,note_on,,,,,60,0,1,,,,,0,,,75,0
53520,note_on,,,,,0,0,1,,,,,0,,,74,35
53541,set_tempo,,,,,60,1,0,,635593,,,,,,,
53551,set_tempo,,,,,10,1,0,,632244,,,,,,,
53580,note_on,,,,,60,0,1,,,,,0,,,74,0
53580,note_on,,,,,0,0,1,,,,,0,,,75,37
53581,set_tempo,,,,,30,1,0,,625651,,,,,,,
53601,set_tempo,,,,,20,1,0,,622406,,,,,,,
53631,set_tempo,,,,,30,1,0,,619195,,,,,,,
53635,control_change,,,,,55,0,1,,,,,0,64,0,,
53640,note_on,,,,,0,0,1,,,,,0,,,78,38
53640,note_on,,,,,0,0,2,,,,,0,,,37,33
53640,note_on,,,,,0,0,2,,,,,0,,,39,0
53640,note_on,,,,,240,0,2,,,,,0,,,51,0
53640,note_on,,,,,0,0,1,,,,,0,,,68,38
53640,control_change,,,,,0,0,1,,,,,0,64,96,,
53640,note_on,,,,,5,0,1,,,,,0,,,75,0
53640,note_on,,,,,0,0,1,,,,,0,,,67,0
53651,set_tempo,,,,,20,1,0,,616016,,,,,,,
53671,set_tempo,,,,,20,1,0,,612870,,,,,,,
53700,note_on,,,,,60,0,1,,,,,0,,,78,0
53700,note_on,,,,,0,0,1,,,,,0,,,76,38
53701,set_tempo,,,,,30,1,0,,609756,,,,,,,
53721,set_tempo,,,,,20,1,0,,609756,,,,,,,
53745,note_on,,,,,0,0,1,,,,,0,,,68,0
53745,note_on,,,,,45,0,1,,,,,0,,,76,0
53760,note_on,,,,,15,0,1,,,,,0,,,68,34
53760,note_on,,,,,120,0,2,,,,,0,,,49,23
53760,note_on,,,,,0,0,1,,,,,0,,,75,34
53801,set_tempo,,,,,80,1,0,,612870,,,,,,,
53820,note_on,,,,,60,0,1,,,,,0,,,75,0
53820,note_on,,,,,0,0,1,,,,,0,,,76,30
53831,set_tempo,,,,,30,1,0,,616016,,,,,,,
53841,set_tempo,,,,,10,1,0,,619195,,,,,,,
53861,set_tempo,,,,,20,1,0,,622406,,,,,,,
53865,note_on,,,,,45,0,1,,,,,0,,,76,0
53865,note_on,,,,,0,0,1,,,,,0,,,68,0
53871,set_tempo,,,,,10,1,0,,625651,,,,,,,
53880,note_on,,,,,0,0,1,,,,,0,,,78,27
53880,note_on,,,,,15,0,1,,,,,0,,,68,27
53940,note_on,,,,,0,0,1,,,,,0,,,76,23
53940,note_on,,,,,60,0,1,,,,,0,,,78,0
53985,note_on,,,,,0,0,1,,,,,0,,,68,0
53985,note_on,,,,,45,0,1,,,,,0,,,76,0
53995,control_change,,,,,10,0,1,,,,,0,64,0,,
54000,control_change,,,,,0,0,1,,,,,0,64,96,,
54000,note_on,,,,,0,0,1,,,,,0,,,75,19
54000,note_on,,,,,5,0,1,,,,,0,,,67,19
54000,note_on,,,,,240,0,2,,,,,0,,,49,0
54000,note_on,,,,,0,0,2,,,,,0,,,37,0
54000,note_on,,,,,0,0,2,,,,,0,,,39,27
54120,note_on,,,,,120,0,2,,,,,0,,,51,19
54210,note_on,,,,,210,0,1,,,,,0,,,75,0
54210,note_on,,,,,0,0,1,,,,,0,,,67,0
54240,note_on,,,,,30,0,1,,,,,0,,,75,28
54241,set_tempo,,,,,370,1,0,,667408,,,,,,,
54360,note_on,,,,,120,0,1,,,,,0,,,75,0
54360,note_on,,,,,0,0,1,,,,,0,,,75,34
54360,control_change,,,,,0,0,1,,,,,0,64,0,,
54360,note_on,,,,,240,0,2,,,,,0,,,51,0
54360,note_on,,,,,0,0,2,,,,,0,,,39,0
54600,note_on,,,,,240,0,1,,,,,0,,,75,0
54600,note_on,,,,,0,0,1,,,,,0,,,75,28
54720,note_on,,,,,120,0,1,,,,,0,,,75,0
54720,note_on,,,,,0,0,1,,,,,0,,,75,24
54900,control_change,,,,,0,0,1,,,,,0,64,95,,
54900,control_change,,,,,0,0,1,,,,,0,64,95,,
54900,note_on,,,,,180,0,1,,,,,0,,,63,24
54901,set_tempo,,,,,660,1,0,,566572,,,,,,,
54911,set_tempo,,,,,10,1,0,,569259,,,,,,,
54921,set_tempo,,,,,10,1,0,,571973,,,,,,,
54941,set_tempo,,,,,20,1,0,,597609,,,,,,,
54960,note_on,,,,,0,0,1,,,,,0,,,75,0
54960,note_on,,,,,0,0,1,,,,,0,,,68,25
54960,note_on,,,,,60,0,1,,,,,0,,,63,0
54961,set_tempo,,,,,20,1,0,,603621,,,,,,,
54981,set_tempo,,,,,20,1,0,,606673,,,,,,,
55020,note_on,,,,,60,0,1,,,,,0,,,68,0
55020,note_on,,,,,0,0,1,,,,,0,,,70,25
55075,control_change,,,,,55,0,1,,,,,0,64,0,,
55080,note_on,,,,,720,0,2,,,,,0,,,56,24
55080,note_on,,,,,0,0,2,,,,,0,,,63,24
55080,note_on,,,,,5,0,1,,,,,0,,,70,0
55080,note_on,,,,,0,0,1,,,,,0,,,72,27
55080,control_change,,,,,0,0,1,,,,,0,64,95,,
55080,note_on,,,,,0,0,1,,,,,0,,,75,27
55091,set_tempo,,,,,110,1,0,,594648,,,,,,,
55101,set_tempo,,,,,10,1,0,,588812,,,,,,,
55111,set_tempo,,,,,10,1,0,,585937,,,,,,,
55121,set_tempo,,,,,10,1,0,,580270,,,,,,,
55126,set_tempo,,,,,5,1,0,,563909,,,,,,,
55131,set_tempo,,,,,5,1,0,,558659,,,,,,,
55136,set_tempo,,,,,5,1,0,,553505,,,,,,,
55140,note_on,,,,,60,0,1,,,,,0,,,72,0
55141,set_tempo,,,,,5,1,0,,550964,,,,,,,
55146,set_tempo,,,,,5,1,0,,545950,,,,,,,
55170,note_on,,,,,30,0,1,,,,,0,,,72,28
55171,set_tempo,,,,,25,1,0,,597609,,,,,,,
55185,note_on,,,,,15,0,1,,,,,0,,,72,0
55185,note_on,,,,,0,0,1,,,,,0,,,73,29
55200,note_on,,,,,120,0,2,,,,,0,,,56,0
55200,note_on,,,,,0,0,1,,,,,0,,,72,29
55200,note_on,,,,,15,0,1,,,,,0,,,73,0
55200,note_on,,,,,0,0,2,,,,,0,,,51,21
55201,set_tempo,,,,,30,1,0,,526777,,,,,,,
55206,set_tempo,,,,,5,1,0,,526777,,,,,,,
55211,set_tempo,,,,,5,1,0,,529100,,,,,,,
55241,set_tempo,,,,,30,1,0,,526777,,,,,,,
55251,set_tempo,,,,,10,1,0,,524475,,,,,,,
55260,note_on,,,,,60,0,1,,,,,0,,,72,0
55260,note_on,,,,,0,0,1,,,,,0,,,70,32
55281,set_tempo,,,,,30,1,0,,522193,,,,,,,
55301,set_tempo,,,,,20,1,0,,519930,,,,,,,
55311,set_tempo,,,,,10,1,0,,517687,,,,,,,
55320,note_on,,,,,60,0,1,,,,,0,,,70,0
55320,note_on,,,,,0,0,1,,,,,0,,,72,36
55320,control_change,,,,,0,0,1,,,,,0,64,0,,
55361,set_tempo,,,,,50,1,0,,515463,,,,,,,
55381,set_tempo,,,,,20,1,0,,513259,,,,,,,
55431,set_tempo,,,,,50,1,0,,511073,,,,,,,
55440,control_change,,,,,0,0,1,,,,,0,64,96,,
55440,note_on,,,,,0,0,1,,,,,0,,,75,31
55440,note_on,,,,,0,0,1,,,,,0,,,75,0
55440,note_on,,,,,120,0,1,,,,,0,,,72,0
55440,note_on,,,,,240,0,2,,,,,0,,,51,0
55440,note_on,,,,,0,0,2,,,,,0,,,63,0
55440,note_on,,,,,0,0,2,,,,,0,,,58,21
55440,note_on,,,,,0,0,2,,,,,0,,,63,21
55440,note_on,,,,,0,0,1,,,,,0,,,73,31
55481,set_tempo,,,,,50,1,0,,508905,,,,,,,
55551,set_tempo,,,,,70,1,0,,506756,,,,,,,
55560,note_on,,,,,120,0,2,,,,,0,,,58,0
55560,note_on,,,,,0,0,2,,,,,0,,,51,21
55605,note_on,,,,,165,0,1,,,,,0,,,73,0
55611,set_tempo,,,,,60,1,0,,504625,,,,,,,
55620,note_on,,,,,15,0,1,,,,,0,,,75,35
55641,set_tempo,,,,,30,1,0,,502512,,,,,,,
55661,set_tempo,,,,,20,1,0,,500417,,,,,,,
55680,control_change,,,,,0,0,1,,,,,0,64,0,,
55680,note_on,,,,,0,0,1,,,,,0,,,73,29
55680,note_on,,,,,60,0,1,,,,,0,,,75,0
55701,set_tempo,,,,,40,1,0,,498338,,,,,,,
55721,set_tempo,,,,,20,1,0,,496277,,,,,,,
55740,note_on,,,,,0,0,1,,,,,0,,,72,28
55740,note_on,,,,,60,0,1,,,,,0,,,73,0
55741,set_tempo,,,,,20,1,0,,494233,,,,,,,
55800,note_on,,,,,0,0,1,,,,,0,,,75,33
55800,control_change,,,,,0,0,1,,,,,0,64,95,,
55800,note_on,,,,,60,0,1,,,,,0,,,72,0
55800,note_on,,,,,0,0,1,,,,,0,,,75,0
55800,note_on,,,,,0,0,2,,,,,0,,,63,21
55800,note_on,,,,,0,0,2,,,,,0,,,55,21
55800,note_on,,,,,0,0,2,,,,,0,,,63,0
55800,note_on,,,,,0,0,1,,,,,0,,,72,33
55800,note_on,,,,,240,0,2,,,,,0,,,51,0
55801,set_tempo,,,,,60,1,0,,496277,,,,,,,
55830,note_on,,,,,0,0,1,,,,,0,,,70,25
55830,note_on,,,,,30,0,1,,,,,0,,,72,0
55831,set_tempo,,,,,30,1,0,,428877,,,,,,,
55836,set_tempo,,,,,5,1,0,,458365,,,,,,,
55880,note_on,,,,,50,0,1,,,,,0,,,70,0
55881,set_tempo,,,,,45,1,0,,460122,,,,,,,
55890,note_on,,,,,10,0,1,,,,,0,,,70,27
55891,set_tempo,,,,,10,1,0,,597609,,,,,,,
55905,note_on,,,,,0,0,1,,,,,0,,,72,27
55905,note_on,,,,,15,0,1,,,,,0,,,70,0
55911,set_tempo,,,,,20,1,0,,458365,,,,,,,
55916,set_tempo,,,,,5,1,0,,460122,,,,,,,
55920,note_on,,,,,0,0,1,,,,,0,,,70,27
55920,note_on,,,,,15,0,1,,,,,0,,,72,0
55920,note_on,,,,,0,0,2,,,,,0,,,51,21
55920,note_on,,,,,120,0,2,,,,,0,,,55,0
55941,set_tempo,,,,,25,1,0,,467289,,,,,,,
55951,set_tempo,,,,,10,1,0,,500417,,,,,,,
55980,note_on,,,,,0,0,1,,,,,0,,,68,28
55980,note_on,,,,,60,0,1,,,,,0,,,70,0
56040,note_on,,,,,0,0,1,,,,,0,,,70,30
56040,note_on,,,,,60,0,1,,,,,0,,,68,0
56040,control_change,,,,,0,0,1,,,,,0,64,0,,
56160,note_on,,,,,0,0,1,,,,,0,,,75,0
56160,note_on,,,,,0,0,2,,,,,0,,,63,0
56160,note_on,,,,,240,0,2,,,,,0,,,51,0
56160,note_on,,,,,0,0,1,,,,,0,,,72,31
56160,note_on,,,,,0,0,1,,,,,0,,,75,31
56160,control_change,,,,,0,0,1,,,,,0,64,95,,
56160,note_on,,,,,0,0,2,,,,,0,,,63,27
56160,note_on,,,,,0,0,2,,,,,0,,,56,27
56160,note_on,,,,,120,0,1,,,,,0,,,70,0
56280,note_on,,,,,0,0,2,,,,,0,,,51,31
56280,note_on,,,,,120,0,2,,,,,0,,,56,0
56310,note_on,,,,,150,0,1,,,,,0,,,72,0
56340,note_on,,,,,30,0,1,,,,,0,,,63,33
56386,set_tempo,,,,,435,1,0,,498338,,,,,,,
56400,note_on,,,,,60,0,1,,,,,0,,,63,0
56400,note_on,,,,,0,0,1,,,,,0,,,68,37
56400,control_change,,,,,0,0,1,,,,,0,64,0,,
56436,set_tempo,,,,,50,1,0,,500417,,,,,,,
56456,set_tempo,,,,,20,1,0,,502512,,,,,,,
56460,note_on,,,,,60,0,1,,,,,0,,,68,0
56460,note_on,,,,,0,0,1,,,,,0,,,70,41
56520,note_on,,,,,0,0,2,,,,,0,,,63,28
56520,note_on,,,,,0,0,2,,,,,0,,,56,28
56520,note_on,,,,,0,0,2,,,,,0,,,63,0
56520,note_on,,,,,240,0,2,,,,,0,,,51,0
56520,note_on,,,,,0,0,1,,,,,0,,,75,0
56520,note_on,,,,,0,0,1,,,,,0,,,72,29
56520,note_on,,,,,60,0,1,,,,,0,,,70,0
56520,control_change,,,,,0,0,1,,,,,0,64,96,,
56520,note_on,,,,,0,0,1,,,,,0,,,75,29
56552,set_tempo,,,,,96,1,0,,517687,,,,,,,
56612,set_tempo,,,,,60,1,0,,519930,,,,,,,
56622,set_tempo,,,,,10,1,0,,522193,,,,,,,
56640,note_on,,,,,0,0,2,,,,,0,,,51,24
56640,note_on,,,,,120,0,2,,,,,0,,,56,0
56662,set_tempo,,,,,40,1,0,,524475,,,,,,,
56670,note_on,,,,,150,0,1,,,,,0,,,72,0
56682,set_tempo,,,,,20,1,0,,526777,,,,,,,
56700,note_on,,,,,30,0,1,,,,,0,,,63,29
56722,set_tempo,,,,,40,1,0,,529100,,,,,,,
56732,set_tempo,,,,,10,1,0,,531443,,,,,,,
56760,note_on,,,,,0,0,1,,,,,0,,,68,25
56760,control_change,,,,,0,0,1,,,,,0,64,0,,
56760,note_on,,,,,60,0,1,,,,,0,,,63,0
56762,set_tempo,,,,,30,1,0,,550964,,,,,,,
56772,set_tempo,,,,,10,1,0,,558659,,,,,,,
56782,set_tempo,,,,,10,1,0,,561272,,,,,,,
56792,set_tempo,,,,,10,1,0,,580270,,,,,,,
56802,set_tempo,,,,,10,1,0,,600600,,,,,,,
56812,set_tempo,,,,,10,1,0,,612870,,,,,,,
56820,note_on,,,,,60,0,1,,,,,0,,,68,0
56820,note_on,,,,,0,0,1,,,,,0,,,70,21
56822,set_tempo,,,,,10,1,0,,619195,,,,,,,
56862,set_tempo,,,,,40,1,0,,750938,,,,,,,
56880,note_on,,,,,0,0,2,,,,,0,,,56,21
56880,note_on,,,,,0,0,2,,,,,0,,,63,21
56880,note_on,,,,,0,0,1,,,,,0,,,71,17
56880,note_on,,,,,0,0,1,,,,,0,,,75,0
56880,note_on,,,,,0,0,2,,,,,0,,,63,0
56880,note_on,,,,,60,0,1,,,,,0,,,70,0
56880,control_change,,,,,0,0,1,,,,,0,64,96,,
56880,note_on,,,,,0,0,1,,,,,0,,,75,17
56880,note_on,,,,,240,0,2,,,,,0,,,51,0
56882,set_tempo,,,,,20,1,0,,571973,,,,,,,
56972,set_tempo,,,,,90,1,0,,533807,,,,,,,
57000,note_on,,,,,0,0,2,,,,,0,,,51,21
57000,note_on,,,,,120,0,2,,,,,0,,,56,0
57030,note_on,,,,,150,0,1,,,,,0,,,71,0
57052,set_tempo,,,,,80,1,0,,536193,,,,,,,
57060,note_on,,,,,30,0,1,,,,,0,,,66,22
57112,set_tempo,,,,,60,1,0,,538599,,,,,,,
57120,control_change,,,,,0,0,1,,,,,0,64,0,,
57120,note_on,,,,,0,0,1,,,,,0,,,71,22
57120,note_on,,,,,60,0,1,,,,,0,,,66,0
57162,set_tempo,,,,,50,1,0,,541027,,,,,,,
57180,note_on,,,,,0,0,1,,,,,0,,,73,24
57180,note_on,,,,,60,0,1,,,,,0,,,71,0
57192,set_tempo,,,,,30,1,0,,545950,,,,,,,
57202,set_tempo,,,,,10,1,0,,543478,,,,,,,
57232,set_tempo,,,,,30,1,0,,541027,,,,,,,
57240,note_on,,,,,0,0,2,,,,,0,,,59,21
57240,note_on,,,,,0,0,2,,,,,0,,,63,0
57240,note_on,,,,,0,0,1,,,,,0,,,78,26
57240,note_on,,,,,0,0,2,,,,,0,,,66,21
57240,note_on,,,,,60,0,1,,,,,0,,,73,0
57240,note_on,,,,,0,0,1,,,,,0,,,75,0
57240,note_on,,,,,0,0,1,,,,,0,,,75,26
57240,note_on,,,,,240,0,2,,,,,0,,,51,0
57240,control_change,,,,,0,0,1,,,,,0,64,96,,
57262,set_tempo,,,,,30,1,0,,536193,,,,,,,
57272,set_tempo,,,,,10,1,0,,533807,,,,,,,
57282,set_tempo,,,,,10,1,0,,531443,,,,,,,
57312,set_tempo,,,,,30,1,0,,529100,,,,,,,
57322,set_tempo,,,,,10,1,0,,526777,,,,,,,
57352,set_tempo,,,,,30,1,0,,524475,,,,,,,
57360,note_on,,,,,120,0,2,,,,,0,,,59,0
57360,note_on,,,,,0,0,2,,,,,0,,,51,21
57382,set_tempo,,,,,30,1,0,,522193,,,,,,,
57390,note_on,,,,,150,0,1,,,,,0,,,75,0
57392,set_tempo,,,,,10,1,0,,519930,,,,,,,
57402,set_tempo,,,,,10,1,0,,517687,,,,,,,
57420,note_on,,,,,30,0,1,,,,,0,,,66,31
57442,set_tempo,,,,,40,1,0,,513259,,,,,,,
57480,control_change,,,,,0,0,1,,,,,0,64,0,,
57480,note_on,,,,,0,0,1,,,,,0,,,71,32
57480,note_on,,,,,60,0,1,,,,,0,,,66,0
57502,set_tempo,,,,,60,1,0,,511073,,,,,,,
57512,set_tempo,,,,,10,1,0,,508905,,,,,,,
57540,note_on,,,,,60,0,1,,,,,0,,,71,0
57540,note_on,,,,,0,0,1,,,,,0,,,73,32
57572,set_tempo,,,,,60,1,0,,506756,,,,,,,
57600,note_on,,,,,0,0,2,,,,,0,,,59,24
57600,note_on,,,,,0,0,2,,,,,0,,,66,0
57600,note_on,,,,,240,0,2,,,,,0,,,51,0
57600,control_change,,,,,0,0,1,,,,,0,64,96,,
57600,note_on,,,,,0,0,1,,,,,0,,,78,32
57600,note_on,,,,,0,0,1,,,,,0,,,75,32
57600,note_on,,,,,0,0,1,,,,,0,,,78,0
57600,note_on,,,,,60,0,1,,,,,0,,,73,0
57600,note_on,,,,,0,0,2,,,,,0,,,54,24
57602,set_tempo,,,,,30,1,0,,504625,,,,,,,
57612,set_tempo,,,,,10,1,0,,502512,,,,,,,
57622,set_tempo,,,,,10,1,0,,502512,,,,,,,
57632,set_tempo,,,,,10,1,0,,504625,,,,,,,
57662,set_tempo,,,,,30,1,0,,506756,,,,,,,
57720,note_on,,,,,120,0,2,,,,,0,,,54,0
57720,note_on,,,,,0,0,2,,,,,0,,,47,26
57732,set_tempo,,,,,70,1,0,,508905,,,,,,,
57750,note_on,,,,,150,0,1,,,,,0,,,75,0
57772,set_tempo,,,,,40,1,0,,513259,,,,,,,
57780,note_on,,,,,30,0,1,,,,,0,,,66,28
57812,set_tempo,,,,,40,1,0,,515463,,,,,,,
57832,set_tempo,,,,,20,1,0,,517687,,,,,,,
57840,control_change,,,,,0,0,1,,,,,0,64,0,,
57840,note_on,,,,,0,0,1,,,,,0,,,71,26
57840,note_on,,,,,60,0,1,,,,,0,,,66,0
57900,note_on,,,,,0,0,1,,,,,0,,,73,24
57900,note_on,,,,,60,0,1,,,,,0,,,71,0
57902,set_tempo,,,,,70,1,0,,522193,,,,,,,
57960,note_on,,,,,0,0,1,,,,,0,,,75,27
57960,note_on,,,,,0,0,1,,,,,0,,,71,27
57960,note_on,,,,,240,0,2,,,,,0,,,47,0
57960,note_on,,,,,0,0,2,,,,,0,,,59,0
57960,note_on,,,,,0,0,2,,,,,0,,,54,26
57960,note_on,,,,,60,0,1,,,,,0,,,73,0
57960,note_on,,,,,0,0,1,,,,,0,,,78,0
57960,control_change,,,,,0,0,1,,,,,0,64,95,,
57960,note_on,,,,,0,0,1,,,,,0,,,78,27
57962,set_tempo,,,,,60,1,0,,524475,,,,,,,
57972,set_tempo,,,,,10,1,0,,526777,,,,,,,
57992,set_tempo,,,,,20,1,0,,529100,,,,,,,
58012,set_tempo,,,,,20,1,0,,531443,,,,,,,
58080,note_on,,,,,0,0,1,,,,,0,,,71,0
58080,note_on,,,,,120,0,2,,,,,0,,,42,22
58080,note_on,,,,,0,0,1,,,,,0,,,70,26
58080,note_on,,,,,0,0,1,,,,,0,,,73,26
58080,note_on,,,,,120,0,1,,,,,0,,,75,0
58102,set_tempo,,,,,90,1,0,,536193,,,,,,,
58162,set_tempo,,,,,60,1,0,,541027,,,,,,,
58182,set_tempo,,,,,20,1,0,,543478,,,,,,,
58185,note_on,,,,,105,0,1,,,,,0,,,73,0
58185,note_on,,,,,0,0,1,,,,,0,,,70,0
58200,note_on,,,,,15,0,1,,,,,0,,,78,0
58200,note_on,,,,,0,0,1,,,,,0,,,73,22
58200,control_change,,,,,0,0,1,,,,,0,64,0,,
58200,note_on,,,,,0,0,1,,,,,0,,,70,22
58200,note_on,,,,,0,0,1,,,,,0,,,78,22
58252,set_tempo,,,,,70,1,0,,545950,,,,,,,
58312,set_tempo,,,,,60,1,0,,550964,,,,,,,
58320,note_on,,,,,0,0,1,,,,,0,,,70,0
58320,note_on,,,,,0,0,1,,,,,0,,,73,0
58320,note_on,,,,,120,0,1,,,,,0,,,78,0
58320,note_on,,,,,0,0,1,,,,,0,,,78,18
58320,control_change,,,,,0,0,1,,,,,0,64,94,,
58320,note_on,,,,,0,0,1,,,,,0,,,71,18
58320,note_on,,,,,0,0,2,,,,,0,,,47,25
58320,note_on,,,,,0,0,1,,,,,0,,,75,18
58320,note_on,,,,,240,0,2,,,,,0,,,42,0
58320,note_on,,,,,0,0,2,,,,,0,,,54,0
58322,set_tempo,,,,,10,1,0,,553505,,,,,,,
58362,set_tempo,,,,,40,1,0,,556070,,,,,,,
58382,set_tempo,,,,,20,1,0,,561272,,,,,,,
58432,set_tempo,,,,,50,1,0,,909090,,,,,,,
58440,note_on,,,,,120,0,2,,,,,0,,,35,18
58442,set_tempo,,,,,10,1,0,,902255,,,,,,,
58470,note_on,,,,,0,0,1,,,,,0,,,71,0
58470,note_on,,,,,30,0,2,,,,,0,,,35,0
58470,note_on,,,,,0,0,2,,,,,0,,,47,0
58470,note_on,,,,,0,0,1,,,,,0,,,75,0
58470,note_on,,,,,150,0,1,,,,,0,,,78,0
58555,control_change,,,,,85,0,1,,,,,0,67,0,,
58560,control_change,,,,,5,0,1,,,,,0,91,96,,
58560,note_on,,,,,0,0,1,,,,,0,,,66,111
58560,note_on,,,,,0,0,2,,,,,0,,,54,112
58560,control_change,,,,,90,0,2,,,,,0,91,96,,
58562,set_tempo,,,,,120,1,0,,351082,,,,,,,
58572,set_tempo,,,,,10,1,0,,351082,,,,,,,
58662,set_tempo,,,,,90,1,0,,398936,,,,,,,
58680,note_on,,,,,0,0,2,,,,,0,,,47,127
58680,note_on,,,,,120,0,2,,,,,0,,,54,0
58680,note_on,,,,,120,0,1,,,,,0,,,66,0
58680,note_on,,,,,0,0,1,,,,,0,,,62,127
58680,note_on,,,,,0,0,1,,,,,0,,,66,127
58680,note_on,,,,,0,0,1,,,,,0,,,74,127
58680,control_change,,,,,0,0,1,,,,,0,64,96,,
58680,note_on,,,,,0,0,2,,,,,0,,,54,127
58680,note_on,,,,,0,0,2,,,,,0,,,59,127
58682,set_tempo,,,,,20,1,0,,352112,,,,,,,
58770,note_on,,,,,90,0,1,,,,,0,,,74,0
58770,note_on,,,,,0,0,1,,,,,0,,,62,0
58770,note_on,,,,,0,0,1,,,,,0,,,66,0
58770,note_on,,,,,90,0,2,,,,,0,,,59,0
58770,note_on,,,,,0,0,2,,,,,0,,,54,0
58770,note_on,,,,,0,0,2,,,,,0,,,47,0
58800,note_on,,,,,30,0,2,,,,,0,,,47,77
58800,note_on,,,,,0,0,2,,,,,0,,,54,77
58800,note_on,,,,,0,0,2,,,,,0,,,59,77
58800,note_on,,,,,30,0,1,,,,,0,,,62,77
58800,note_on,,,,,0,0,1,,,,,0,,,66,77
58800,note_on,,,,,0,0,1,,,,,0,,,74,77
58845,note_on,,,,,0,0,1,,,,,0,,,62,0
58845,note_on,,,,,0,0,2,,,,,0,,,47,0
58845,note_on,,,,,0,0,1,,,,,0,,,66,0
58845,note_on,,,,,0,0,2,,,,,0,,,54,0
58845,note_on,,,,,45,0,2,,,,,0,,,59,0
58845,note_on,,,,,45,0,1,,,,,0,,,74,0
58860,note_on,,,,,0,0,1,,,,,0,,,66,81
58860,note_on,,,,,0,0,1,,,,,0,,,74,81
58860,note_on,,,,,15,0,1,,,,,0,,,62,81
58860,note_on,,,,,0,0,2,,,,,0,,,59,92
58860,note_on,,,,,0,0,2,,,,,0,,,54,92
58860,note_on,,,,,15,0,2,,,,,0,,,47,92
58905,note_on,,,,,45,0,1,,,,,0,,,74,0
58905,note_on,,,,,0,0,1,,,,,0,,,62,0
58905,note_on,,,,,0,0,2,,,,,0,,,47,0
58905,note_on,,,,,45,0,2,,,,,0,,,59,0
58905,note_on,,,,,0,0,1,,,,,0,,,66,0
58905,note_on,,,,,0,0,2,,,,,0,,,54,0
58920,note_on,,,,,15,0,1,,,,,0,,,62,94
58920,note_on,,,,,0,0,2,,,,,0,,,59,102
58920,note_on,,,,,0,0,1,,,,,0,,,66,94
58920,note_on,,,,,0,0,2,,,,,0,,,54,102
58920,note_on,,,,,15,0,2,,,,,0,,,47,102
58920,note_on,,,,,0,0,1,,,,,0,,,74,94
58965,note_on,,,,,0,0,1,,,,,0,,,66,0
58965,note_on,,,,,0,0,1,,,,,0,,,62,0
58965,note_on,,,,,45,0,1,,,,,0,,,74,0
58965,note_on,,,,,0,0,2,,,,,0,,,47,0
58965,note_on,,,,,0,0,2,,,,,0,,,54,0
58965,note_on,,,,,45,0,2,,,,,0,,,59,0
58980,note_on,,,,,15,0,1,,,,,0,,,62,108
58980,note_on,,,,,0,0,1,,,,,0,,,66,108
58980,note_on,,,,,0,0,1,,,,,0,,,74,108
58980,note_on,,,,,15,0,2,,,,,0,,,47,112
58980,note_on,,,,,0,0,2,,,,,0,,,59,112
58980,note_on,,,,,0,0,2,,,,,0,,,54,112
59025,note_on,,,,,0,0,2,,,,,0,,,47,0
59025,note_on,,,,,0,0,2,,,,,0,,,54,0
59025,note_on,,,,,45,0,2,,,,,0,,,59,0
59025,note_on,,,,,45,0,1,,,,,0,,,74,0
59025,note_on,,,,,0,0,1,,,,,0,,,66,0
59025,note_on,,,,,0,0,1,,,,,0,,,62,0
59035,control_change,,,,,10,0,1,,,,,0,64,0,,
59040,note_on,,,,,5,0,1,,,,,0,,,62,116
59040,note_on,,,,,15,0,2,,,,,0,,,50,114
59040,note_on,,,,,0,0,2,,,,,0,,,59,114
59040,note_on,,,,,0,0,1,,,,,0,,,66,116
59040,note_on,,,,,0,0,1,,,,,0,,,71,116
59040,control_change,,,,,0,0,1,,,,,0,64,95,,
59040,note_on,,,,,0,0,2,,,,,0,,,54,114
59130,note_on,,,,,90,0,2,,,,,0,,,59,0
59130,note_on,,,,,0,0,2,,,,,0,,,54,0
59130,note_on,,,,,0,0,2,,,,,0,,,50,0
59130,note_on,,,,,90,0,1,,,,,0,,,71,0
59130,note_on,,,,,0,0,1,,,,,0,,,66,0
59130,note_on,,,,,0,0,1,,,,,0,,,62,0
59160,note_on,,,,,30,0,2,,,,,0,,,50,101
59160,note_on,,,,,0,0,2,,,,,0,,,54,101
59160,note_on,,,,,0,0,2,,,,,0,,,59,101
59160,note_on,,,,,0,0,1,,,,,0,,,71,99
59160,note_on,,,,,0,0,1,,,,,0,,,66,99
59160,note_on,,,,,30,0,1,,,,,0,,,62,99
59250,note_on,,,,,0,0,1,,,,,0,,,66,0
59250,note_on,,,,,90,0,1,,,,,0,,,71,0
59250,note_on,,,,,0,0,2,,,,,0,,,50,0
59250,note_on,,,,,0,0,2,,,,,0,,,54,0
59250,note_on,,,,,90,0,2,,,,,0,,,59,0
59250,note_on,,,,,0,0,1,,,,,0,,,62,0
59280,note_on,,,,,0,0,1,,,,,0,,,71,83
59280,note_on,,,,,0,0,1,,,,,0,,,66,83
59280,note_on,,,,,30,0,1,,,,,0,,,62,83
59280,note_on,,,,,0,0,2,,,,,0,,,59,84
59280,note_on,,,,,0,0,2,,,,,0,,,54,84
59280,note_on,,,,,30,0,2,,,,,0,,,50,84
59370,note_on,,,,,90,0,1,,,,,0,,,71,0
59370,note_on,,,,,0,0,1,,,,,0,,,62,0
59370,note_on,,,,,0,0,2,,,,,0,,,50,0
59370,note_on,,,,,90,0,2,,,,,0,,,59,0
59370,note_on,,,,,0,0,1,,,,,0,,,66,0
59370,note_on,,,,,0,0,2,,,,,0,,,54,0
59382,set_tempo,,,,,700,1,0,,353148,,,,,,,
59395,control_change,,,,,25,0,1,,,,,0,64,0,,
59400,note_on,,,,,5,0,1,,,,,0,,,66,127
59400,key_signature,,,,,18,1,0,D,,,,,,,,
59400,note_on,,,,,0,0,1,,,,,0,,,64,127
59400,note_on,,,,,0,0,2,,,,,0,,,54,127
59400,note_on,,,,,30,0,2,,,,,0,,,42,127
59400,control_change,,,,,0,0,1,,,,,0,64,95,,
59400,note_on,,,,,0,0,1,,,,,0,,,73,127
59412,set_tempo,,,,,12,1,0,,354191,,,,,,,
59422,set_tempo,,,,,10,1,0,,355239,,,,,,,
59430,note_on,,,,,30,0,1,,,,,0,,,58,127
59442,set_tempo,,,,,20,1,0,,356294,,,,,,,
59452,set_tempo,,,,,10,1,0,,358422,,,,,,,
59462,set_tempo,,,,,10,1,0,,359496,,,,,,,
59482,set_tempo,,,,,20,1,0,,360576,,,,,,,
59490,note_on,,,,,0,0,1,,,,,0,,,64,0
59490,note_on,,,,,0,0,2,,,,,0,,,42,0
59490,note_on,,,,,90,0,2,,,,,0,,,54,0
59490,note_on,,,,,60,0,1,,,,,0,,,58,0
59490,note_on,,,,,0,0,1,,,,,0,,,66,0
59490,note_on,,,,,0,0,1,,,,,0,,,73,0
59492,set_tempo,,,,,10,1,0,,361663,,,,,,,
59512,set_tempo,,,,,20,1,0,,363856,,,,,,,
59520,note_on,,,,,0,0,2,,,,,0,,,58,78
59520,note_on,,,,,30,0,2,,,,,0,,,54,78
59520,note_on,,,,,30,0,1,,,,,0,,,64,82
59520,note_on,,,,,0,0,1,,,,,0,,,73,82
59520,note_on,,,,,0,0,1,,,,,0,,,66,82
59522,set_tempo,,,,,10,1,0,,364963,,,,,,,
59532,set_tempo,,,,,10,1,0,,367197,,,,,,,
59552,set_tempo,,,,,20,1,0,,368324,,,,,,,
59562,set_tempo,,,,,10,1,0,,369458,,,,,,,
59565,note_on,,,,,45,0,1,,,,,0,,,73,0
59565,note_on,,,,,45,0,2,,,,,0,,,58,0
59565,note_on,,,,,0,0,2,,,,,0,,,54,0
59565,note_on,,,,,0,0,1,,,,,0,,,64,0
59565,note_on,,,,,0,0,1,,,,,0,,,66,0
59572,set_tempo,,,,,10,1,0,,370599,,,,,,,
59580,note_on,,,,,15,0,1,,,,,0,,,64,95
59580,note_on,,,,,15,0,2,,,,,0,,,54,91
59580,note_on,,,,,0,0,1,,,,,0,,,66,95
59580,note_on,,,,,0,0,1,,,,,0,,,73,95
59580,note_on,,,,,0,0,2,,,,,0,,,58,91
59582,set_tempo,,,,,10,1,0,,371747,,,,,,,
59602,set_tempo,,,,,20,1,0,,372902,,,,,,,
59612,set_tempo,,,,,10,1,0,,374064,,,,,,,
59625,note_on,,,,,45,0,2,,,,,0,,,58,0
59625,note_on,,,,,0,0,2,,,,,0,,,54,0
59625,note_on,,,,,0,0,1,,,,,0,,,64,0
59625,note_on,,,,,0,0,1,,,,,0,,,66,0
59625,note_on,,,,,45,0,1,,,,,0,,,73,0
59632,set_tempo,,,,,20,1,0,,376411,,,,,,,
59640,note_on,,,,,15,0,2,,,,,0,,,54,98
59640,note_on,,,,,0,0,1,,,,,0,,,66,104
59640,note_on,,,,,15,0,1,,,,,0,,,64,104
59640,note_on,,,,,0,0,1,,,,,0,,,73,104
59640,note_on,,,,,0,0,2,,,,,0,,,58,98
59642,set_tempo,,,,,10,1,0,,378787,,,,,,,
59652,set_tempo,,,,,10,1,0,,379987,,,,,,,
59685,note_on,,,,,0,0,2,,,,,0,,,54,0
59685,note_on,,,,,45,0,2,,,,,0,,,58,0
59685,note_on,,,,,0,0,1,,,,,0,,,66,0
59685,note_on,,,,,0,0,1,,,,,0,,,64,0
59685,note_on,,,,,45,0,1,,,,,0,,,73,0
59700,note_on,,,,,15,0,1,,,,,0,,,64,117
59700,note_on,,,,,0,0,1,,,,,0,,,66,117
59700,note_on,,,,,0,0,1,,,,,0,,,73,117
59700,note_on,,,,,15,0,2,,,,,0,,,54,107
59700,note_on,,,,,0,0,2,,,,,0,,,58,107
59742,set_tempo,,,,,90,1,0,,396301,,,,,,,
59745,note_on,,,,,45,0,1,,,,,0,,,73,0
59745,note_on,,,,,0,0,1,,,,,0,,,64,0
59745,note_on,,,,,0,0,2,,,,,0,,,54,0
59745,note_on,,,,,45,0,2,,,,,0,,,58,0
59745,note_on,,,,,0,0,1,,,,,0,,,66,0
59755,control_change,,,,,10,0,1,,,,,0,64,0,,
59760,note_on,,,,,5,0,1,,,,,0,,,58,123
59760,note_on,,,,,0,0,2,,,,,0,,,54,118
59760,note_on,,,,,15,0,2,,,,,0,,,49,118
59760,note_on,,,,,0,0,1,,,,,0,,,64,123
59760,note_on,,,,,0,0,1,,,,,0,,,66,123
59760,control_change,,,,,0,0,1,,,,,0,64,95,,
59762,set_tempo,,,,,20,1,0,,346020,,,,,,,
59767,set_tempo,,,,,5,1,0,,357355,,,,,,,
59772,set_tempo,,,,,5,1,0,,363856,,,,,,,
59952,set_tempo,,,,,180,1,0,,366076,,,,,,,
59982,set_tempo,,,,,30,1,0,,364963,,,,,,,
60002,set_tempo,,,,,20,1,0,,362756,,,,,,,
60022,set_tempo,,,,,20,1,0,,361663,,,,,,,
60032,set_tempo,,,,,10,1,0,,360576,,,,,,,
60052,set_tempo,,,,,20,1,0,,359496,,,,,,,
60072,set_tempo,,,,,20,1,0,,358422,,,,,,,
60090,note_on,,,,,0,0,2,,,,,0,,,49,0
60090,note_on,,,,,0,0,1,,,,,0,,,58,0
60090,note_on,,,,,0,0,1,,,,,0,,,64,0
60090,note_on,,,,,330,0,1,,,,,0,,,66,0
60090,note_on,,,,,330,0,2,,,,,0,,,54,0
60102,set_tempo,,,,,30,1,0,,357355,,,,,,,
60115,control_change,,,,,25,0,1,,,,,0,64,0,,
60120,note_on,,,,,0,0,2,,,,,0,,,50,127
60120,note_on,,,,,0,0,2,,,,,0,,,54,127
60120,control_change,,,,,0,0,1,,,,,0,64,96,,
60120,note_on,,,,,0,0,1,,,,,0,,,66,127
60120,note_on,,,,,0,0,1,,,,,0,,,62,127
60120,note_on,,,,,5,0,1,,,,,0,,,59,127
60120,note_on,,,,,30,0,2,,,,,0,,,47,127
60120,note_on,,,,,0,0,1,,,,,0,,,71,127
60142,set_tempo,,,,,40,1,0,,356294,,,,,,,
60172,set_tempo,,,,,30,1,0,,355239,,,,,,,
60210,control_change,,,,,90,0,1,,,,,0,64,0,,
60222,set_tempo,,,,,50,1,0,,354191,,,,,,,
60240,note_on,,,,,30,0,1,,,,,0,,,71,0
60240,note_on,,,,,0,0,2,,,,,0,,,54,99
60240,note_on,,,,,0,0,2,,,,,0,,,50,99
60240,note_on,,,,,0,0,2,,,,,0,,,47,99
60240,note_on,,,,,0,0,2,,,,,0,,,47,0
60240,note_on,,,,,0,0,2,,,,,0,,,50,0
60240,note_on,,,,,120,0,2,,,,,0,,,54,0
60240,note_on,,,,,0,0,1,,,,,0,,,59,0
60240,note_on,,,,,0,0,1,,,,,0,,,62,0
60240,note_on,,,,,0,0,1,,,,,0,,,66,0
60240,note_on,,,,,0,0,1,,,,,0,,,58,100
60240,note_on,,,,,0,0,1,,,,,0,,,70,100
60242,set_tempo,,,,,20,1,0,,352112,,,,,,,
60285,note_on,,,,,45,0,2,,,,,0,,,54,0
60285,note_on,,,,,0,0,1,,,,,0,,,58,0
60285,note_on,,,,,45,0,1,,,,,0,,,70,0
60285,note_on,,,,,0,0,2,,,,,0,,,47,0
60285,note_on,,,,,0,0,2,,,,,0,,,50,0
60300,note_on,,,,,15,0,2,,,,,0,,,47,95
60300,note_on,,,,,0,0,2,,,,,0,,,50,95
60300,note_on,,,,,0,0,2,,,,,0,,,54,95
60300,note_on,,,,,15,0,1,,,,,0,,,59,95
60300,note_on,,,,,0,0,1,,,,,0,,,71,95
60312,set_tempo,,,,,70,1,0,,351082,,,,,,,
60345,note_on,,,,,0,0,2,,,,,0,,,47,0
60345,note_on,,,,,0,0,1,,,,,0,,,59,0
60345,note_on,,,,,45,0,1,,,,,0,,,71,0
60345,note_on,,,,,0,0,2,,,,,0,,,50,0
60345,note_on,,,,,45,0,2,,,,,0,,,54,0
60360,note_on,,,,,0,0,2,,,,,0,,,54,104
60360,note_on,,,,,0,0,1,,,,,0,,,71,104
60360,note_on,,,,,15,0,1,,,,,0,,,59,104
60360,note_on,,,,,15,0,2,,,,,0,,,47,104
60360,note_on,,,,,0,0,2,,,,,0,,,50,104
60382,set_tempo,,,,,70,1,0,,350058,,,,,,,
60392,set_tempo,,,,,10,1,0,,349040,,,,,,,
60405,note_on,,,,,0,0,2,,,,,0,,,47,0
60405,note_on,,,,,0,0,2,,,,,0,,,50,0
60405,note_on,,,,,45,0,1,,,,,0,,,71,0
60405,note_on,,,,,0,0,1,,,,,0,,,59,0
60405,note_on,,,,,45,0,2,,,,,0,,,54,0
60420,note_on,,,,,0,0,2,,,,,0,,,50,117
60420,note_on,,,,,15,0,2,,,,,0,,,47,117
60420,note_on,,,,,15,0,1,,,,,0,,,61,117
60420,note_on,,,,,0,0,1,,,,,0,,,73,117
60420,note_on,,,,,0,0,2,,,,,0,,,54,117
60422,set_tempo,,,,,30,1,0,,348027,,,,,,,
60442,set_tempo,,,,,20,1,0,,347021,,,,,,,
60452,set_tempo,,,,,10,1,0,,346020,,,,,,,
60465,note_on,,,,,0,0,2,,,,,0,,,50,0
60465,note_on,,,,,0,0,2,,,,,0,,,47,0
60465,note_on,,,,,0,0,1,,,,,0,,,61,0
60465,note_on,,,,,45,0,1,,,,,0,,,73,0
60465,note_on,,,,,45,0,2,,,,,0,,,54,0
60475,control_change,,,,,10,0,1,,,,,0,64,0,,
60480,note_on,,,,,0,0,1,,,,,0,,,74,127
60480,control_change,,,,,0,0,1,,,,,0,64,96,,
60480,note_on,,,,,5,0,1,,,,,0,,,62,127
60480,note_on,,,,,15,0,2,,,,,0,,,43,127
60480,note_on,,,,,0,0,2,,,,,0,,,47,127
60480,note_on,,,,,0,0,2,,,,,0,,,50,127
60480,note_on,,,,,0,0,2,,,,,0,,,55,127
60492,set_tempo,,,,,40,1,0,,345025,,,,,,,
60502,set_tempo,,,,,10,1,0,,344036,,,,,,,
60522,set_tempo,,,,,20,1,0,,347021,,,,,,,
60532,set_tempo,,,,,10,1,0,,349040,,,,,,,
60552,set_tempo,,,,,20,1,0,,351082,,,,,,,
60562,set_tempo,,,,,10,1,0,,352112,,,,,,,
60570,note_on,,,,,90,0,1,,,,,0,,,74,0
60570,note_on,,,,,0,0,1,,,,,0,,,62,0
60570,note_on,,,,,0,0,2,,,,,0,,,43,0
60570,note_on,,,,,0,0,2,,,,,0,,,47,0
60570,note_on,,,,,0,0,2,,,,,0,,,50,0
60570,note_on,,,,,90,0,2,,,,,0,,,55,0
60572,set_tempo,,,,,10,1,0,,353148,,,,,,,
60582,set_tempo,,,,,10,1,0,,354191,,,,,,,
60592,set_tempo,,,,,10,1,0,,355239,,,,,,,
60600,note_on,,,,,0,0,1,,,,,0,,,74,115
60600,note_on,,,,,30,0,1,,,,,0,,,62,115
60600,note_on,,,,,0,0,2,,,,,0,,,55,118
60600,note_on,,,,,0,0,2,,,,,0,,,50,118
60600,note_on,,,,,0,0,2,,,,,0,,,47,118
60600,note_on,,,,,30,0,2,,,,,0,,,43,118
60602,set_tempo,,,,,10,1,0,,356294,,,,,,,
60612,set_tempo,,,,,10,1,0,,357355,,,,,,,
60622,set_tempo,,,,,10,1,0,,358422,,,,,,,
60632,set_tempo,,,,,10,1,0,,359496,,,,,,,
60652,set_tempo,,,,,20,1,0,,361663,,,,,,,
60690,note_on,,,,,90,0,2,,,,,0,,,55,0
60690,note_on,,,,,0,0,2,,,,,0,,,43,0
60690,note_on,,,,,0,0,2,,,,,0,,,47,0
60690,note_on,,,,,0,0,2,,,,,0,,,50,0
60690,note_on,,,,,90,0,1,,,,,0,,,74,0
60690,note_on,,,,,0,0,1,,,,,0,,,62,0
60720,note_on,,,,,30,0,1,,,,,0,,,62,100
60720,note_on,,,,,0,0,1,,,,,0,,,74,100
60720,note_on,,,,,30,0,2,,,,,0,,,43,99
60720,note_on,,,,,0,0,2,,,,,0,,,47,99
60720,note_on,,,,,0,0,2,,,,,0,,,50,99
60720,note_on,,,,,0,0,2,,,,,0,,,55,99
60732,set_tempo,,,,,80,1,0,,363856,,,,,,,
60742,set_tempo,,,,,10,1,0,,366076,,,,,,,
60782,set_tempo,,,,,40,1,0,,368324,,,,,,,
60802,set_tempo,,,,,20,1,0,,369458,,,,,,,
60810,note_on,,,,,0,0,1,,,,,0,,,62,0
60810,note_on,,,,,90,0,1,,,,,0,,,74,0
60810,note_on,,,,,0,0,2,,,,,0,,,43,0
60810,note_on,,,,,0,0,2,,,,,0,,,47,0
60810,note_on,,,,,0,0,2,,,,,0,,,50,0
60810,note_on,,,,,90,0,2,,,,,0,,,55,0
60812,set_tempo,,,,,10,1,0,,370599,,,,,,,
60832,set_tempo,,,,,20,1,0,,371747,,,,,,,
60835,control_change,,,,,25,0,1,,,,,0,64,0,,
60840,note_on,,,,,0,0,2,,,,,0,,,52,108
60840,note_on,,,,,0,0,2,,,,,0,,,49,108
60840,note_on,,,,,0,0,2,,,,,0,,,46,108
60840,note_on,,,,,30,0,2,,,,,0,,,40,108
60840,note_on,,,,,0,0,1,,,,,0,,,70,108
60840,note_on,,,,,5,0,1,,,,,0,,,64,108
60840,note_on,,,,,0,0,1,,,,,0,,,76,108
60840,control_change,,,,,0,0,1,,,,,0,64,94,,
60840,note_on,,,,,0,0,1,,,,,0,,,67,108
60842,set_tempo,,,,,10,1,0,,372902,,,,,,,
60852,set_tempo,,,,,10,1,0,,374064,,,,,,,
60862,set_tempo,,,,,10,1,0,,376411,,,,,,,
60872,set_tempo,,,,,10,1,0,,377595,,,,,,,
60882,set_tempo,,,,,10,1,0,,379987,,,,,,,
60892,set_tempo,,,,,10,1,0,,381194,,,,,,,
60902,set_tempo,,,,,10,1,0,,384862,,,,,,,
60922,set_tempo,,,,,20,1,0,,386100,,,,,,,
60930,note_on,,,,,0,0,1,,,,,0,,,64,0
60930,note_on,,,,,0,0,2,,,,,0,,,40,0
60930,note_on,,,,,90,0,1,,,,,0,,,76,0
60930,note_on,,,,,90,0,2,,,,,0,,,52,0
60930,note_on,,,,,0,0,2,,,,,0,,,49,0
60930,note_on,,,,,0,0,2,,,,,0,,,46,0
60930,note_on,,,,,0,0,1,,,,,0,,,70,0
60930,note_on,,,,,0,0,1,,,,,0,,,67,0
60932,set_tempo,,,,,10,1,0,,388601,,,,,,,
60942,set_tempo,,,,,10,1,0,,389863,,,,,,,
60952,set_tempo,,,,,10,1,0,,391134,,,,,,,
60960,note_on,,,,,30,0,2,,,,,0,,,40,115
60960,note_on,,,,,0,0,2,,,,,0,,,46,115
60960,note_on,,,,,0,0,2,,,,,0,,,52,115
60960,note_on,,,,,30,0,1,,,,,0,,,64,112
60960,note_on,,,,,0,0,1,,,,,0,,,67,112
60960,note_on,,,,,0,0,1,,,,,0,,,76,112
60960,note_on,,,,,0,0,2,,,,,0,,,49,115
60960,note_on,,,,,0,0,1,,,,,0,,,70,112
60962,set_tempo,,,,,10,1,0,,392413,,,,,,,
60972,set_tempo,,,,,10,1,0,,396301,,,,,,,
60982,set_tempo,,,,,10,1,0,,397614,,,,,,,
61002,set_tempo,,,,,20,1,0,,398936,,,,,,,
61012,set_tempo,,,,,10,1,0,,402955,,,,,,,
61032,set_tempo,,,,,20,1,0,,404312,,,,,,,
61042,set_tempo,,,,,10,1,0,,405679,,,,,,,
61050,note_on,,,,,90,0,2,,,,,0,,,52,0
61050,note_on,,,,,0,0,2,,,,,0,,,40,0
61050,note_on,,,,,0,0,2,,,,,0,,,46,0
61050,note_on,,,,,0,0,2,,,,,0,,,49,0
61050,note_on,,,,,90,0,1,,,,,0,,,76,0
61050,note_on,,,,,0,0,1,,,,,0,,,64,0
61050,note_on,,,,,0,0,1,,,,,0,,,67,0
61050,note_on,,,,,0,0,1,,,,,0,,,70,0
61052,set_tempo,,,,,10,1,0,,408441,,,,,,,
61062,set_tempo,,,,,10,1,0,,412654,,,,,,,
61080,note_on,,,,,0,0,1,,,,,0,,,70,119
61080,note_on,,,,,0,0,1,,,,,0,,,67,119
61080,note_on,,,,,0,0,1,,,,,0,,,76,119
61080,note_on,,,,,30,0,1,,,,,0,,,64,119
61080,note_on,,,,,0,0,2,,,,,0,,,49,122
61080,note_on,,,,,0,0,2,,,,,0,,,52,122
61080,note_on,,,,,0,0,2,,,,,0,,,46,122
61080,note_on,,,,,30,0,2,,,,,0,,,40,122
61082,set_tempo,,,,,20,1,0,,416956,,,,,,,
61092,set_tempo,,,,,10,1,0,,418410,,,,,,,
61102,set_tempo,,,,,10,1,0,,419874,,,,,,,
61112,set_tempo,,,,,10,1,0,,421348,,,,,,,
61117,set_tempo,,,,,5,1,0,,398936,,,,,,,
61132,set_tempo,,,,,15,1,0,,400266,,,,,,,
61142,set_tempo,,,,,10,1,0,,401606,,,,,,,
61147,set_tempo,,,,,5,1,0,,402955,,,,,,,
61157,set_tempo,,,,,10,1,0,,404312,,,,,,,
61167,set_tempo,,,,,10,1,0,,563909,,,,,,,
61170,note_on,,,,,0,0,2,,,,,0,,,49,0
61170,note_on,,,,,0,0,2,,,,,0,,,46,0
61170,note_on,,,,,0,0,2,,,,,0,,,40,0
61170,note_on,,,,,90,0,2,,,,,0,,,52,0
61170,note_on,,,,,0,0,1,,,,,0,,,67,0
61170,note_on,,,,,0,0,1,,,,,0,,,64,0
61170,note_on,,,,,90,0,1,,,,,0,,,76,0
61170,note_on,,,,,0,0,1,,,,,0,,,70,0
61195,control_change,,,,,25,0,1,,,,,0,64,0,,
61200,note_on,,,,,0,0,2,,,,,0,,,49,127
61200,note_on,,,,,5,0,1,,,,,0,,,67,127
61200,note_on,,,,,0,0,1,,,,,0,,,69,127
61200,note_on,,,,,0,0,1,,,,,0,,,76,127
61200,note_on,,,,,0,0,1,,,,,0,,,79,127
61200,note_on,,,,,0,0,2,,,,,0,,,45,127
61200,note_on,,,,,30,0,2,,,,,0,,,37,127
61200,control_change,,,,,0,0,1,,,,,0,64,94,,
61202,set_tempo,,,,,35,1,0,,397614,,,,,,,
61530,note_on,,,,,330,0,2,,,,,0,,,49,0
61530,note_on,,,,,330,0,1,,,,,0,,,79,0
61530,note_on,,,,,0,0,1,,,,,0,,,67,0
61530,note_on,,,,,0,0,2,,,,,0,,,37,0
61530,note_on,,,,,0,0,1,,,,,0,,,76,0
61530,control_change,,,,,0,0,1,,,,,0,64,0,,
61530,note_on,,,,,0,0,2,,,,,0,,,45,0
61530,note_on,,,,,0,0,1,,,,,0,,,69,0
61560,note_on,,,,,0,0,1,,,,,0,,,78,64
61560,note_on,,,,,30,0,2,,,,,0,,,50,77
61560,note_on,,,,,30,0,1,,,,,0,,,90,64
61562,set_tempo,,,,,360,1,0,,352112,,,,,,,
61650,note_on,,,,,0,0,1,,,,,0,,,90,0
61650,note_on,,,,,90,0,1,,,,,0,,,78,0
61652,set_tempo,,,,,90,1,0,,372902,,,,,,,
61680,note_on,,,,,120,0,2,,,,,0,,,57,62
61680,note_on,,,,,30,0,1,,,,,0,,,90,74
61680,note_on,,,,,0,0,1,,,,,0,,,78,74
61752,set_tempo,,,,,100,1,0,,408441,,,,,,,
61770,note_on,,,,,0,0,1,,,,,0,,,90,0
61770,note_on,,,,,90,0,1,,,,,0,,,78,0
61800,control_change,,,,,0,0,1,,,,,0,64,95,,
61800,note_on,,,,,0,0,1,,,,,0,,,78,82
61800,note_on,,,,,120,0,2,,,,,0,,,57,0
61800,note_on,,,,,0,0,2,,,,,0,,,58,70
61800,note_on,,,,,30,0,1,,,,,0,,,90,82
61802,set_tempo,,,,,50,1,0,,354191,,,,,,,
61807,set_tempo,,,,,5,1,0,,353148,,,,,,,
61812,set_tempo,,,,,5,1,0,,374064,,,,,,,
61822,set_tempo,,,,,10,1,0,,371747,,,,,,,
61920,note_on,,,,,0,0,2,,,,,0,,,59,78
61920,note_on,,,,,0,0,2,,,,,0,,,55,78
61920,note_on,,,,,0,0,2,,,,,0,,,50,0
61920,note_on,,,,,120,0,2,,,,,0,,,58,0
61922,set_tempo,,,,,100,1,0,,370599,,,,,,,
61942,set_tempo,,,,,20,1,0,,369458,,,,,,,
61962,set_tempo,,,,,20,1,0,,368324,,,,,,,
62022,set_tempo,,,,,60,1,0,,367197,,,,,,,
62040,control_change,,,,,0,0,1,,,,,0,64,0,,
62040,note_on,,,,,0,0,1,,,,,0,,,88,85
62040,note_on,,,,,0,0,1,,,,,0,,,76,85
62040,note_on,,,,,0,0,1,,,,,0,,,90,0
62040,note_on,,,,,240,0,1,,,,,0,,,78,0
62040,note_on,,,,,120,0,2,,,,,0,,,59,0
62040,note_on,,,,,0,0,2,,,,,0,,,64,64
62042,set_tempo,,,,,20,1,0,,366076,,,,,,,
62062,set_tempo,,,,,20,1,0,,364963,,,,,,,
62100,note_on,,,,,0,0,1,,,,,0,,,76,0
62100,note_on,,,,,60,0,1,,,,,0,,,88,0
62100,note_on,,,,,0,0,1,,,,,0,,,86,80
62100,note_on,,,,,0,0,1,,,,,0,,,74,80
62122,set_tempo,,,,,60,1,0,,363856,,,,,,,
62132,set_tempo,,,,,10,1,0,,362756,,,,,,,
62145,note_on,,,,,45,0,1,,,,,0,,,74,0
62145,note_on,,,,,0,0,1,,,,,0,,,86,0
62160,note_on,,,,,0,0,2,,,,,0,,,67,71
62160,note_on,,,,,0,0,1,,,,,0,,,74,72
62160,note_on,,,,,15,0,1,,,,,0,,,86,72
62160,note_on,,,,,120,0,2,,,,,0,,,64,0
62192,set_tempo,,,,,60,1,0,,361663,,,,,,,
62202,set_tempo,,,,,10,1,0,,360576,,,,,,,
62205,note_on,,,,,45,0,1,,,,,0,,,74,0
62205,note_on,,,,,0,0,1,,,,,0,,,86,0
62220,note_on,,,,,15,0,1,,,,,0,,,83,61
62220,note_on,,,,,0,0,1,,,,,0,,,71,61
62232,set_tempo,,,,,30,1,0,,359496,,,,,,,
62242,set_tempo,,,,,10,1,0,,358422,,,,,,,
62252,set_tempo,,,,,10,1,0,,357355,,,,,,,
62262,set_tempo,,,,,10,1,0,,356294,,,,,,,
62265,note_on,,,,,0,0,1,,,,,0,,,83,0
62265,note_on,,,,,45,0,1,,,,,0,,,71,0
62272,set_tempo,,,,,10,1,0,,353148,,,,,,,
62280,note_on,,,,,120,0,2,,,,,0,,,67,0
62280,note_on,,,,,0,0,2,,,,,0,,,57,79
62280,control_change,,,,,0,0,1,,,,,0,64,95,,
62280,note_on,,,,,0,0,1,,,,,0,,,81,82
62280,note_on,,,,,15,0,1,,,,,0,,,69,82
62280,note_on,,,,,0,0,2,,,,,0,,,55,0
62292,set_tempo,,,,,20,1,0,,354191,,,,,,,
62322,set_tempo,,,,,30,1,0,,357355,,,,,,,
62332,set_tempo,,,,,10,1,0,,358422,,,,,,,
62352,set_tempo,,,,,20,1,0,,359496,,,,,,,
62362,set_tempo,,,,,10,1,0,,361663,,,,,,,
62372,set_tempo,,,,,10,1,0,,362756,,,,,,,
62400,note_on,,,,,120,0,2,,,,,0,,,61,64
62400,note_on,,,,,120,0,1,,,,,0,,,81,0
62400,note_on,,,,,0,0,1,,,,,0,,,69,0
62400,note_on,,,,,0,0,1,,,,,0,,,69,74
62400,note_on,,,,,0,0,1,,,,,0,,,81,74
62402,set_tempo,,,,,30,1,0,,364963,,,,,,,
62412,set_tempo,,,,,10,1,0,,367197,,,,,,,
62432,set_tempo,,,,,20,1,0,,368324,,,,,,,
62442,set_tempo,,,,,10,1,0,,370599,,,,,,,
62445,note_on,,,,,45,0,1,,,,,0,,,81,0
62445,note_on,,,,,0,0,1,,,,,0,,,69,0
62452,set_tempo,,,,,10,1,0,,371747,,,,,,,
62455,control_change,,,,,10,0,1,,,,,0,64,0,,
62460,note_on,,,,,5,0,1,,,,,0,,,71,64
62460,note_on,,,,,0,0,1,,,,,0,,,83,64
62462,set_tempo,,,,,10,1,0,,372902,,,,,,,
62472,set_tempo,,,,,10,1,0,,375234,,,,,,,
62482,set_tempo,,,,,10,1,0,,377595,,,,,,,
62492,set_tempo,,,,,10,1,0,,379987,,,,,,,
62505,note_on,,,,,0,0,1,,,,,0,,,71,0
62505,note_on,,,,,45,0,1,,,,,0,,,83,0
62512,set_tempo,,,,,20,1,0,,381194,,,,,,,
62520,note_on,,,,,0,0,1,,,,,0,,,79,58
62520,note_on,,,,,120,0,2,,,,,0,,,61,0
62520,note_on,,,,,0,0,2,,,,,0,,,64,57
62520,note_on,,,,,15,0,1,,,,,0,,,67,58
62522,set_tempo,,,,,10,1,0,,383631,,,,,,,
62532,set_tempo,,,,,10,1,0,,384862,,,,,,,
62542,set_tempo,,,,,10,1,0,,386100,,,,,,,
62552,set_tempo,,,,,10,1,0,,387346,,,,,,,
62562,set_tempo,,,,,10,1,0,,389863,,,,,,,
62582,set_tempo,,,,,20,1,0,,391134,,,,,,,
62592,set_tempo,,,,,10,1,0,,392413,,,,,,,
62602,set_tempo,,,,,10,1,0,,393700,,,,,,,
62632,set_tempo,,,,,30,1,0,,394996,,,,,,,
62640,note_on,,,,,120,0,1,,,,,0,,,79,0
62640,note_on,,,,,0,0,2,,,,,0,,,50,39
62640,note_on,,,,,0,0,1,,,,,0,,,78,55
62640,note_on,,,,,0,0,2,,,,,0,,,62,39
62640,note_on,,,,,0,0,2,,,,,0,,,57,0
62640,note_on,,,,,120,0,2,,,,,0,,,64,0
62640,control_change,,,,,0,0,1,,,,,0,64,95,,
62640,note_on,,,,,0,0,1,,,,,0,,,67,0
62640,note_on,,,,,0,0,1,,,,,0,,,66,55
62757,set_tempo,,,,,125,1,0,,351082,,,,,,,
62760,note_on,,,,,0,0,2,,,,,0,,,54,44
62760,note_on,,,,,120,0,2,,,,,0,,,62,0
62850,note_on,,,,,90,0,2,,,,,0,,,54,0
62850,note_on,,,,,0,0,2,,,,,0,,,50,0
62850,note_on,,,,,210,0,1,,,,,0,,,78,0
62850,note_on,,,,,0,0,1,,,,,0,,,66,0
62880,note_on,,,,,30,0,1,,,,,0,,,57,65
62880,note_on,,,,,0,0,1,,,,,0,,,66,65
62880,control_change,,,,,0,0,1,,,,,0,64,0,,
62997,set_tempo,,,,,240,1,0,,353148,,,,,,,
63000,control_change,,,,,0,0,1,,,,,0,64,96,,
63000,note_on,,,,,150,0,2,,,,,0,,,45,58
63000,note_on,,,,,120,0,1,,,,,0,,,73,59
63032,set_tempo,,,,,35,1,0,,355239,,,,,,,
63042,set_tempo,,,,,10,1,0,,356294,,,,,,,
63052,set_tempo,,,,,10,1,0,,357355,,,,,,,
63067,set_tempo,,,,,15,1,0,,358422,,,,,,,
63077,set_tempo,,,,,10,1,0,,359496,,,,,,,
63092,set_tempo,,,,,15,1,0,,360576,,,,,,,
63102,set_tempo,,,,,10,1,0,,361663,,,,,,,
63112,set_tempo,,,,,10,1,0,,362756,,,,,,,
63117,set_tempo,,,,,5,1,0,,363856,,,,,,,
63120,note_on,,,,,0,0,1,,,,,0,,,57,0
63120,note_on,,,,,0,0,1,,,,,0,,,57,43
63120,note_on,,,,,0,0,1,,,,,0,,,66,43
63120,control_change,,,,,0,0,1,,,,,0,64,0,,
63120,note_on,,,,,120,0,1,,,,,0,,,66,0
63165,note_on,,,,,45,0,1,,,,,0,,,66,0
63165,note_on,,,,,0,0,1,,,,,0,,,57,0
63180,note_on,,,,,0,0,1,,,,,0,,,67,49
63180,note_on,,,,,15,0,1,,,,,0,,,59,49
63187,set_tempo,,,,,70,1,0,,366076,,,,,,,
63217,set_tempo,,,,,30,1,0,,367197,,,,,,,
63225,note_on,,,,,0,0,1,,,,,0,,,59,0
63225,note_on,,,,,45,0,1,,,,,0,,,67,0
63240,note_on,,,,,0,0,1,,,,,0,,,64,53
63240,note_on,,,,,15,0,1,,,,,0,,,55,53
63247,set_tempo,,,,,30,1,0,,368324,,,,,,,
63257,set_tempo,,,,,10,1,0,,369458,,,,,,,
63292,set_tempo,,,,,35,1,0,,370599,,,,,,,
63312,set_tempo,,,,,20,1,0,,371747,,,,,,,
63322,set_tempo,,,,,10,1,0,,372902,,,,,,,
63332,set_tempo,,,,,10,1,0,,374064,,,,,,,
63342,set_tempo,,,,,10,1,0,,375234,,,,,,,
63352,set_tempo,,,,,10,1,0,,376411,,,,,,,
63360,note_on,,,,,120,0,1,,,,,0,,,64,0
63360,note_on,,,,,0,0,2,,,,,0,,,50,48
63360,control_change,,,,,0,0,1,,,,,0,64,95,,
63360,note_on,,,,,0,0,1,,,,,0,,,62,46
63360,note_on,,,,,0,0,1,,,,,0,,,54,46
63360,note_on,,,,,0,0,1,,,,,0,,,74,46
63360,note_on,,,,,0,0,1,,,,,0,,,73,0
63360,note_on,,,,,0,0,1,,,,,0,,,55,0
63360,note_on,,,,,360,0,2,,,,,0,,,45,0
63387,set_tempo,,,,,35,1,0,,377595,,,,,,,
63450,note_on,,,,,90,0,2,,,,,0,,,50,0
63450,note_on,,,,,90,0,1,,,,,0,,,62,0
63450,note_on,,,,,0,0,1,,,,,0,,,54,0
63480,note_on,,,,,30,0,2,,,,,0,,,62,45
63550,control_change,,,,,100,0,1,,,,,0,64,0,,
63552,set_tempo,,,,,165,1,0,,376411,,,,,,,
63567,set_tempo,,,,,15,1,0,,375234,,,,,,,
63570,note_on,,,,,20,0,1,,,,,0,,,74,0
63597,set_tempo,,,,,30,1,0,,372902,,,,,,,
63600,note_on,,,,,30,0,1,,,,,0,,,69,65
63600,note_on,,,,,0,0,2,,,,,0,,,66,41
63600,note_on,,,,,120,0,2,,,,,0,,,62,0
63600,note_on,,,,,0,0,1,,,,,0,,,81,65
63627,set_tempo,,,,,30,1,0,,371747,,,,,,,
63657,set_tempo,,,,,30,1,0,,369458,,,,,,,
63667,set_tempo,,,,,10,1,0,,368324,,,,,,,
63677,set_tempo,,,,,10,1,0,,366076,,,,,,,
63682,set_tempo,,,,,5,1,0,,364963,,,,,,,
63687,set_tempo,,,,,5,1,0,,363856,,,,,,,
63690,note_on,,,,,90,0,2,,,,,0,,,66,0
63702,set_tempo,,,,,15,1,0,,357355,,,,,,,
63712,set_tempo,,,,,10,1,0,,351082,,,,,,,
63717,set_tempo,,,,,5,1,0,,351082,,,,,,,
63720,control_change,,,,,120,0,1,,,,,0,64,96,,
63720,note_on,,,,,30,0,2,,,,,0,,,57,48
63787,set_tempo,,,,,70,1,0,,352112,,,,,,,
63792,set_tempo,,,,,5,1,0,,353148,,,,,,,
63797,set_tempo,,,,,5,1,0,,354191,,,,,,,
63807,set_tempo,,,,,10,1,0,,355239,,,,,,,
63817,set_tempo,,,,,10,1,0,,356294,,,,,,,
63827,set_tempo,,,,,10,1,0,,357355,,,,,,,
63840,note_on,,,,,120,0,2,,,,,0,,,61,45
63840,note_on,,,,,0,0,1,,,,,0,,,81,46
63840,note_on,,,,,0,0,1,,,,,0,,,69,46
63840,note_on,,,,,0,0,1,,,,,0,,,69,0
63840,note_on,,,,,120,0,1,,,,,0,,,81,0
63842,set_tempo,,,,,15,1,0,,358422,,,,,,,
63847,set_tempo,,,,,5,1,0,,359496,,,,,,,
63862,set_tempo,,,,,15,1,0,,360576,,,,,,,
63872,set_tempo,,,,,10,1,0,,361663,,,,,,,
63885,note_on,,,,,0,0,1,,,,,0,,,69,0
63885,note_on,,,,,45,0,1,,,,,0,,,81,0
63887,set_tempo,,,,,15,1,0,,362756,,,,,,,
63897,set_tempo,,,,,10,1,0,,363856,,,,,,,
63900,note_on,,,,,0,0,1,,,,,0,,,83,47
63900,note_on,,,,,15,0,1,,,,,0,,,71,47
63902,set_tempo,,,,,5,1,0,,364963,,,,,,,
63905,control_change,,,,,5,0,1,,,,,0,64,0,,
63922,set_tempo,,,,,20,1,0,,366076,,,,,,,
63945,note_on,,,,,40,0,1,,,,,0,,,83,0
63945,note_on,,,,,0,0,1,,,,,0,,,71,0
63947,set_tempo,,,,,25,1,0,,367197,,,,,,,
63960,note_on,,,,,0,0,1,,,,,0,,,67,55
63960,note_on,,,,,15,0,1,,,,,0,,,79,55
63960,note_on,,,,,0,0,2,,,,,0,,,64,41
63960,note_on,,,,,120,0,2,,,,,0,,,61,0
64050,note_on,,,,,90,0,2,,,,,0,,,64,0
64050,note_on,,,,,90,0,1,,,,,0,,,67,0
64050,note_on,,,,,0,0,1,,,,,0,,,79,0
64080,control_change,,,,,0,0,1,,,,,0,64,96,,
64080,note_on,,,,,0,0,2,,,,,0,,,62,39
64080,note_on,,,,,0,0,1,,,,,0,,,78,46
64080,note_on,,,,,30,0,2,,,,,0,,,57,0
64080,note_on,,,,,0,0,2,,,,,0,,,50,39
64080,note_on,,,,,30,0,1,,,,,0,,,66,46
64097,set_tempo,,,,,150,1,0,,364963,,,,,,,
64102,set_tempo,,,,,5,1,0,,362756,,,,,,,
64117,set_tempo,,,,,15,1,0,,359496,,,,,,,
64127,set_tempo,,,,,10,1,0,,358422,,,,,,,
64137,set_tempo,,,,,10,1,0,,356294,,,,,,,
64152,set_tempo,,,,,15,1,0,,355239,,,,,,,
64187,set_tempo,,,,,35,1,0,,356294,,,,,,,
64200,note_on,,,,,120,0,2,,,,,0,,,62,0
64200,note_on,,,,,0,0,2,,,,,0,,,54,35
64202,set_tempo,,,,,15,1,0,,357355,,,,,,,
64232,set_tempo,,,,,30,1,0,,358422,,,,,,,
64237,set_tempo,,,,,5,1,0,,359496,,,,,,,
64247,set_tempo,,,,,10,1,0,,360576,,,,,,,
64257,set_tempo,,,,,10,1,0,,361663,,,,,,,
64262,set_tempo,,,,,5,1,0,,362756,,,,,,,
64265,control_change,,,,,185,0,1,,,,,0,64,0,,
64290,note_on,,,,,0,0,1,,,,,0,,,66,0
64290,note_on,,,,,25,0,1,,,,,0,,,78,0
64290,note_on,,,,,0,0,2,,,,,0,,,50,0
64290,note_on,,,,,90,0,2,,,,,0,,,54,0
64292,set_tempo,,,,,30,1,0,,364963,,,,,,,
64307,set_tempo,,,,,15,1,0,,366076,,,,,,,
64312,set_tempo,,,,,5,1,0,,367197,,,,,,,
64317,set_tempo,,,,,5,1,0,,353148,,,,,,,
64320,note_on,,,,,30,0,1,,,,,0,,,57,53
64320,note_on,,,,,0,0,1,,,,,0,,,66,53
64320,control_change,,,,,0,0,1,,,,,0,64,0,,
64332,set_tempo,,,,,15,1,0,,355239,,,,,,,
64372,set_tempo,,,,,40,1,0,,356294,,,,,,,
64382,set_tempo,,,,,10,1,0,,357355,,,,,,,
64412,set_tempo,,,,,30,1,0,,358422,,,,,,,
64422,set_tempo,,,,,10,1,0,,364963,,,,,,,
64432,set_tempo,,,,,10,1,0,,366076,,,,,,,
64440,control_change,,,,,0,0,1,,,,,0,64,96,,
64440,note_on,,,,,150,0,2,,,,,0,,,45,44
64440,note_on,,,,,120,0,1,,,,,0,,,73,45
64452,set_tempo,,,,,20,1,0,,367197,,,,,,,
64462,set_tempo,,,,,10,1,0,,368324,,,,,,,
64472,set_tempo,,,,,10,1,0,,370599,,,,,,,
64532,set_tempo,,,,,60,1,0,,375234,,,,,,,
64552,set_tempo,,,,,20,1,0,,376411,,,,,,,
64560,control_change,,,,,0,0,1,,,,,0,64,0,,
64560,note_on,,,,,0,0,1,,,,,0,,,66,33
64560,note_on,,,,,0,0,1,,,,,0,,,57,33
64560,note_on,,,,,0,0,1,,,,,0,,,57,0
64560,note_on,,,,,120,0,1,,,,,0,,,66,0
64572,set_tempo,,,,,20,1,0,,378787,,,,,,,
64582,set_tempo,,,,,10,1,0,,379987,,,,,,,
64605,note_on,,,,,0,0,1,,,,,0,,,57,0
64605,note_on,,,,,45,0,1,,,,,0,,,66,0
64620,note_on,,,,,0,0,1,,,,,0,,,67,36
64620,note_on,,,,,15,0,1,,,,,0,,,59,36
64642,set_tempo,,,,,60,1,0,,387346,,,,,,,
64662,set_tempo,,,,,20,1,0,,389863,,,,,,,
64665,note_on,,,,,45,0,1,,,,,0,,,67,0
64665,note_on,,,,,0,0,1,,,,,0,,,59,0
64680,note_on,,,,,15,0,1,,,,,0,,,55,39
64680,note_on,,,,,0,0,1,,,,,0,,,64,39
64682,set_tempo,,,,,20,1,0,,391134,,,,,,,
64702,set_tempo,,,,,20,1,0,,392413,,,,,,,
64712,set_tempo,,,,,10,1,0,,393700,,,,,,,
64722,set_tempo,,,,,10,1,0,,394996,,,,,,,
64732,set_tempo,,,,,10,1,0,,397614,,,,,,,
64792,set_tempo,,,,,60,1,0,,400266,,,,,,,
64800,note_on,,,,,0,0,2,,,,,0,,,50,39
64800,note_on,,,,,120,0,1,,,,,0,,,64,0
64800,note_on,,,,,0,0,1,,,,,0,,,55,0
64800,note_on,,,,,0,0,1,,,,,0,,,73,0
64800,note_on,,,,,360,0,2,,,,,0,,,45,0
64800,note_on,,,,,0,0,1,,,,,0,,,62,35
64800,note_on,,,,,0,0,1,,,,,0,,,74,35
64800,control_change,,,,,0,0,1,,,,,0,64,95,,
64800,note_on,,,,,0,0,1,,,,,0,,,54,35
64852,set_tempo,,,,,60,1,0,,402955,,,,,,,
64862,set_tempo,,,,,10,1,0,,405679,,,,,,,
64922,set_tempo,,,,,60,1,0,,408441,,,,,,,
64932,set_tempo,,,,,10,1,0,,409836,,,,,,,
64942,set_tempo,,,,,10,1,0,,411240,,,,,,,
64962,set_tempo,,,,,20,1,0,,741656,,,,,,,
65010,control_change,,,,,0,0,1,,,,,0,64,0,,
65010,note_on,,,,,210,0,1,,,,,0,,,74,0
65010,note_on,,,,,0,0,1,,,,,0,,,54,0
65010,note_on,,,,,210,0,2,,,,,0,,,50,0
65010,note_on,,,,,0,0,1,,,,,0,,,62,0
65032,set_tempo,,,,,70,1,0,,402955,,,,,,,
65040,note_on,,,,,0,0,1,,,,,0,,,62,113
65040,note_on,,,,,30,0,1,,,,,0,,,74,113
65040,note_on,,,,,30,0,2,,,,,0,,,50,113
65040,note_on,,,,,0,0,2,,,,,0,,,38,113
65145,note_on,,,,,105,0,2,,,,,0,,,38,0
65145,note_on,,,,,0,0,2,,,,,0,,,50,0
65145,note_on,,,,,0,0,1,,,,,0,,,74,0
65145,note_on,,,,,105,0,1,,,,,0,,,62,0
65160,note_on,,,,,0,0,1,,,,,0,,,74,120
65160,note_on,,,,,0,0,2,,,,,0,,,50,120
65160,note_on,,,,,15,0,1,,,,,0,,,62,120
65160,note_on,,,,,15,0,2,,,,,0,,,38,120
65162,set_tempo,,,,,130,1,0,,355239,,,,,,,
65172,set_tempo,,,,,10,1,0,,391134,,,,,,,
65192,set_tempo,,,,,20,1,0,,383631,,,,,,,
65212,set_tempo,,,,,20,1,0,,381194,,,,,,,
65222,set_tempo,,,,,10,1,0,,378787,,,,,,,
65242,set_tempo,,,,,20,1,0,,376411,,,,,,,
65280,note_on,,,,,0,0,2,,,,,0,,,38,0
65280,note_on,,,,,0,0,2,,,,,0,,,38,100
65280,note_on,,,,,0,0,2,,,,,0,,,50,100
65280,note_on,,,,,0,0,1,,,,,0,,,74,100
65280,note_on,,,,,0,0,1,,,,,0,,,62,100
65280,note_on,,,,,0,0,1,,,,,0,,,62,0
65280,note_on,,,,,120,0,1,,,,,0,,,74,0
65280,note_on,,,,,120,0,2,,,,,0,,,50,0
65282,set_tempo,,,,,40,1,0,,374064,,,,,,,
65302,set_tempo,,,,,20,1,0,,371747,,,,,,,
65322,set_tempo,,,,,20,1,0,,370599,,,,,,,
65325,note_on,,,,,0,0,1,,,,,0,,,62,0
65325,note_on,,,,,45,0,1,,,,,0,,,74,0
65325,note_on,,,,,0,0,2,,,,,0,,,38,0
65325,note_on,,,,,45,0,2,,,,,0,,,50,0
65340,note_on,,,,,0,0,1,,,,,0,,,74,105
65340,note_on,,,,,0,0,2,,,,,0,,,50,105
65340,note_on,,,,,15,0,1,,,,,0,,,62,105
65340,note_on,,,,,15,0,2,,,,,0,,,38,105
65342,set_tempo,,,,,20,1,0,,368324,,,,,,,
65385,note_on,,,,,45,0,1,,,,,0,,,74,0
65385,note_on,,,,,0,0,1,,,,,0,,,62,0
65385,note_on,,,,,0,0,2,,,,,0,,,38,0
65385,note_on,,,,,45,0,2,,,,,0,,,50,0
65400,note_on,,,,,15,0,1,,,,,0,,,62,110
65400,note_on,,,,,0,0,1,,,,,0,,,74,110
65400,note_on,,,,,15,0,2,,,,,0,,,38,110
65400,note_on,,,,,0,0,2,,,,,0,,,50,110
65402,set_tempo,,,,,60,1,0,,367197,,,,,,,
65412,set_tempo,,,,,10,1,0,,364963,,,,,,,
65445,note_on,,,,,0,0,1,,,,,0,,,62,0
65445,note_on,,,,,45,0,2,,,,,0,,,50,0
65445,note_on,,,,,0,0,2,,,,,0,,,38,0
65445,note_on,,,,,45,0,1,,,,,0,,,74,0
65460,note_on,,,,,15,0,2,,,,,0,,,38,118
65460,note_on,,,,,0,0,2,,,,,0,,,50,118
65460,note_on,,,,,15,0,1,,,,,0,,,62,118
65460,note_on,,,,,0,0,1,,,,,0,,,74,118
65472,set_tempo,,,,,60,1,0,,363856,,,,,,,
65482,set_tempo,,,,,10,1,0,,362756,,,,,,,
65505,note_on,,,,,0,0,1,,,,,0,,,74,119
65505,note_on,,,,,0,0,2,,,,,0,,,38,0
65505,note_on,,,,,45,0,2,,,,,0,,,50,0
65505,note_on,,,,,0,0,1,,,,,0,,,62,0
65505,note_on,,,,,45,0,1,,,,,0,,,74,0
65512,set_tempo,,,,,30,1,0,,594648,,,,,,,
65520,note_on,,,,,0,0,1,,,,,0,,,74,122
65520,note_on,,,,,0,0,1,,,,,0,,,72,122
65520,note_on,,,,,0,0,1,,,,,0,,,62,122
65520,note_on,,,,,0,0,2,,,,,0,,,50,122
65520,note_on,,,,,15,0,2,,,,,0,,,38,122
65520,note_on,,,,,0,0,2,,,,,0,,,48,122
65520,note_on,,,,,15,0,1,,,,,0,,,74,0
65522,set_tempo,,,,,10,1,0,,362756,,,,,,,
65582,set_tempo,,,,,60,1,0,,360576,,,,,,,
65622,set_tempo,,,,,40,1,0,,361663,,,,,,,
65625,note_on,,,,,105,0,1,,,,,0,,,74,0
65625,note_on,,,,,0,0,1,,,,,0,,,72,0
65625,note_on,,,,,0,0,2,,,,,0,,,38,0
65625,note_on,,,,,0,0,2,,,,,0,,,48,0
65625,note_on,,,,,105,0,2,,,,,0,,,50,0
65625,note_on,,,,,0,0,1,,,,,0,,,62,0
65640,note_on,,,,,15,0,2,,,,,0,,,38,115
65640,note_on,,,,,0,0,1,,,,,0,,,74,115
65640,note_on,,,,,0,0,1,,,,,0,,,72,115
65640,note_on,,,,,15,0,1,,,,,0,,,62,115
65640,note_on,,,,,0,0,2,,,,,0,,,48,115
65640,note_on,,,,,0,0,2,,,,,0,,,50,115
65745,note_on,,,,,105,0,2,,,,,0,,,50,0
65745,note_on,,,,,0,0,1,,,,,0,,,72,0
65745,note_on,,,,,105,0,1,,,,,0,,,74,0
65745,note_on,,,,,0,0,2,,,,,0,,,38,0
65745,note_on,,,,,0,0,1,,,,,0,,,62,0
65745,note_on,,,,,0,0,2,,,,,0,,,48,0
65760,note_on,,,,,0,0,2,,,,,0,,,50,105
65760,note_on,,,,,0,0,2,,,,,0,,,48,105
65760,note_on,,,,,15,0,2,,,,,0,,,38,105
65760,note_on,,,,,0,0,1,,,,,0,,,72,105
65760,note_on,,,,,0,0,1,,,,,0,,,74,105
65760,note_on,,,,,15,0,1,,,,,0,,,62,105
65762,set_tempo,,,,,140,1,0,,362756,,,,,,,
65782,set_tempo,,,,,20,1,0,,363856,,,,,,,
65842,set_tempo,,,,,60,1,0,,364963,,,,,,,
65865,note_on,,,,,105,0,2,,,,,0,,,50,0
65865,note_on,,,,,0,0,2,,,,,0,,,38,0
65865,note_on,,,,,0,0,2,,,,,0,,,48,0
65865,note_on,,,,,0,0,1,,,,,0,,,62,0
65865,note_on,,,,,105,0,1,,,,,0,,,74,0
65865,note_on,,,,,0,0,1,,,,,0,,,72,0
65865,note_on,,,,,0,0,1,,,,,0,,,72,119
65872,set_tempo,,,,,30,1,0,,600600,,,,,,,
65880,note_on,,,,,0,0,2,,,,,0,,,46,101
65880,note_on,,,,,0,0,2,,,,,0,,,50,101
65880,note_on,,,,,15,0,1,,,,,0,,,72,0
65880,note_on,,,,,0,0,1,,,,,0,,,62,101
65880,note_on,,,,,0,0,1,,,,,0,,,70,101
65880,note_on,,,,,0,0,1,,,,,0,,,74,101
65880,note_on,,,,,15,0,2,,,,,0,,,38,101
65882,set_tempo,,,,,10,1,0,,366076,,,,,,,
65922,set_tempo,,,,,40,1,0,,366076,,,,,,,
65982,set_tempo,,,,,60,1,0,,367197,,,,,,,
65985,note_on,,,,,105,0,2,,,,,0,,,50,0
65985,note_on,,,,,0,0,2,,,,,0,,,46,0
65985,note_on,,,,,0,0,1,,,,,0,,,70,0
65985,note_on,,,,,0,0,1,,,,,0,,,62,0
65985,note_on,,,,,0,0,1,,,,,0,,,70,119
65985,note_on,,,,,0,0,2,,,,,0,,,38,0
65985,note_on,,,,,105,0,1,,,,,0,,,74,0
65992,set_tempo,,,,,10,1,0,,597609,,,,,,,
66000,note_on,,,,,0,0,1,,,,,0,,,69,104
66000,note_on,,,,,15,0,1,,,,,0,,,70,0
66000,note_on,,,,,0,0,2,,,,,0,,,50,104
66000,note_on,,,,,0,0,2,,,,,0,,,45,104
66000,note_on,,,,,15,0,2,,,,,0,,,38,104
66000,note_on,,,,,0,0,1,,,,,0,,,74,104
66000,note_on,,,,,0,0,1,,,,,0,,,62,104
66002,set_tempo,,,,,10,1,0,,367197,,,,,,,
66105,note_on,,,,,105,0,1,,,,,0,,,74,0
66105,note_on,,,,,0,0,1,,,,,0,,,69,0
66105,note_on,,,,,0,0,1,,,,,0,,,69,119
66105,note_on,,,,,0,0,1,,,,,0,,,62,0
66105,note_on,,,,,105,0,2,,,,,0,,,50,0
66105,note_on,,,,,0,0,2,,,,,0,,,45,0
66105,note_on,,,,,0,0,2,,,,,0,,,38,0
66112,set_tempo,,,,,110,1,0,,594648,,,,,,,
66120,note_on,,,,,15,0,2,,,,,0,,,38,108
66120,note_on,,,,,0,0,2,,,,,0,,,43,108
66120,note_on,,,,,0,0,2,,,,,0,,,50,108
66120,note_on,,,,,0,0,1,,,,,0,,,74,108
66120,note_on,,,,,0,0,1,,,,,0,,,67,108
66120,note_on,,,,,0,0,1,,,,,0,,,62,108
66120,note_on,,,,,15,0,1,,,,,0,,,69,0
66122,set_tempo,,,,,10,1,0,,367197,,,,,,,
66162,set_tempo,,,,,40,1,0,,370599,,,,,,,
66225,note_on,,,,,105,0,1,,,,,0,,,74,0
66225,note_on,,,,,0,0,1,,,,,0,,,67,0
66225,note_on,,,,,0,0,1,,,,,0,,,62,0
66225,note_on,,,,,0,0,1,,,,,0,,,67,119
66225,note_on,,,,,0,0,2,,,,,0,,,38,0
66225,note_on,,,,,0,0,2,,,,,0,,,43,0
66225,note_on,,,,,105,0,2,,,,,0,,,50,0
66232,set_tempo,,,,,70,1,0,,600600,,,,,,,
66240,note_on,,,,,0,0,2,,,,,0,,,50,113
66240,note_on,,,,,15,0,1,,,,,0,,,67,0
66240,note_on,,,,,0,0,1,,,,,0,,,65,113
66240,note_on,,,,,0,0,1,,,,,0,,,74,113
66240,note_on,,,,,0,0,2,,,,,0,,,41,113
66240,note_on,,,,,15,0,2,,,,,0,,,38,113
66242,set_tempo,,,,,10,1,0,,372902,,,,,,,
66252,set_tempo,,,,,10,1,0,,371747,,,,,,,
66345,note_on,,,,,0,0,2,,,,,0,,,41,0
66345,note_on,,,,,105,0,2,,,,,0,,,50,0
66345,note_on,,,,,105,0,1,,,,,0,,,74,0
66345,note_on,,,,,0,0,1,,,,,0,,,65,0
66345,note_on,,,,,0,0,1,,,,,0,,,65,119
66345,note_on,,,,,0,0,2,,,,,0,,,38,0
66352,set_tempo,,,,,100,1,0,,600600,,,,,,,
66360,note_on,,,,,0,0,2,,,,,0,,,40,119
66360,note_on,,,,,15,0,1,,,,,0,,,65,0
66360,note_on,,,,,15,0,2,,,,,0,,,38,119
66360,note_on,,,,,0,0,2,,,,,0,,,50,119
66360,note_on,,,,,0,0,1,,,,,0,,,64,119
66360,note_on,,,,,0,0,1,,,,,0,,,74,119
66362,set_tempo,,,,,10,1,0,,371747,,,,,,,
66465,note_on,,,,,0,0,2,,,,,0,,,40,0
66465,note_on,,,,,0,0,1,,,,,0,,,64,0
66465,note_on,,,,,0,0,1,,,,,0,,,64,119
66465,note_on,,,,,105,0,1,,,,,0,,,74,0
66465,note_on,,,,,105,0,2,,,,,0,,,50,0
66465,note_on,,,,,0,0,2,,,,,0,,,38,0
66472,set_tempo,,,,,110,1,0,,600600,,,,,,,
66480,note_on,,,,,0,0,2,,,,,0,,,50,127
66480,note_on,,,,,15,0,2,,,,,0,,,38,127
66480,note_on,,,,,0,0,1,,,,,0,,,74,127
66480,note_on,,,,,15,0,1,,,,,0,,,64,0
66480,note_on,,,,,0,0,1,,,,,0,,,62,127
66482,set_tempo,,,,,10,1,0,,372902,,,,,,,
66572,set_tempo,,,,,90,1,0,,428877,,,,,,,
66585,note_on,,,,,105,0,1,,,,,0,,,74,0
66585,note_on,,,,,0,0,1,,,,,0,,,62,0
66585,note_on,,,,,0,0,2,,,,,0,,,38,0
66585,note_on,,,,,105,0,2,,,,,0,,,50,0
66592,set_tempo,,,,,20,1,0,,597609,,,,,,,
66600,note_on,,,,,15,0,1,,,,,0,,,62,125
66600,note_on,,,,,0,0,1,,,,,0,,,68,125
66600,note_on,,,,,0,0,2,,,,,0,,,46,122
66600,note_on,,,,,15,0,2,,,,,0,,,34,122
66600,note_on,,,,,0,0,1,,,,,0,,,74,125
66600,control_change,,,,,0,0,1,,,,,0,64,95,,
66602,set_tempo,,,,,10,1,0,,359496,,,,,,,
66612,set_tempo,,,,,10,1,0,,371747,,,,,,,
66642,set_tempo,,,,,30,1,0,,378787,,,,,,,
66652,set_tempo,,,,,10,1,0,,381194,,,,,,,
66662,set_tempo,,,,,10,1,0,,388601,,,,,,,
66672,set_tempo,,,,,10,1,0,,389863,,,,,,,
66690,note_on,,,,,0,0,1,,,,,0,,,68,0
66690,note_on,,,,,90,0,1,,,,,0,,,74,0
66690,note_on,,,,,0,0,2,,,,,0,,,34,0
66690,note_on,,,,,0,0,1,,,,,0,,,62,0
66690,note_on,,,,,90,0,2,,,,,0,,,46,0
66692,set_tempo,,,,,20,1,0,,397614,,,,,,,
66702,set_tempo,,,,,10,1,0,,407055,,,,,,,
66712,set_tempo,,,,,10,1,0,,409836,,,,,,,
66720,note_on,,,,,30,0,2,,,,,0,,,34,122
66720,note_on,,,,,0,0,2,,,,,0,,,46,122
66720,note_on,,,,,0,0,1,,,,,0,,,74,123
66720,note_on,,,,,0,0,1,,,,,0,,,68,123
66720,note_on,,,,,30,0,1,,,,,0,,,62,123
66722,set_tempo,,,,,10,1,0,,412654,,,,,,,
66732,set_tempo,,,,,10,1,0,,419874,,,,,,,
66742,set_tempo,,,,,10,1,0,,425833,,,,,,,
66752,set_tempo,,,,,10,1,0,,430416,,,,,,,
66762,set_tempo,,,,,10,1,0,,439882,,,,,,,
66765,note_on,,,,,45,0,1,,,,,0,,,74,0
66765,note_on,,,,,45,0,2,,,,,0,,,46,0
66765,note_on,,,,,0,0,2,,,,,0,,,34,0
66765,note_on,,,,,0,0,1,,,,,0,,,68,0
66765,note_on,,,,,0,0,1,,,,,0,,,62,0
66772,set_tempo,,,,,10,1,0,,446428,,,,,,,
66780,note_on,,,,,15,0,1,,,,,0,,,62,127
66780,note_on,,,,,0,0,1,,,,,0,,,74,127
66780,note_on,,,,,0,0,1,,,,,0,,,68,127
66780,note_on,,,,,15,0,2,,,,,0,,,34,125
66780,note_on,,,,,0,0,2,,,,,0,,,46,125
66782,set_tempo,,,,,10,1,0,,454890,,,,,,,
66792,set_tempo,,,,,10,1,0,,461893,,,,,,,
66802,set_tempo,,,,,10,1,0,,472813,,,,,,,
66812,set_tempo,,,,,10,1,0,,476568,,,,,,,
66822,set_tempo,,,,,10,1,0,,492206,,,,,,,
66825,note_on,,,,,45,0,2,,,,,0,,,46,0
66825,note_on,,,,,0,0,1,,,,,0,,,62,0
66825,note_on,,,,,0,0,1,,,,,0,,,68,0
66825,note_on,,,,,45,0,1,,,,,0,,,74,0
66825,note_on,,,,,0,0,2,,,,,0,,,34,0
66832,set_tempo,,,,,10,1,0,,498338,,,,,,,
66840,note_on,,,,,15,0,2,,,,,0,,,34,126
66840,note_on,,,,,0,0,1,,,,,0,,,68,127
66840,note_on,,,,,0,0,1,,,,,0,,,74,127
66840,note_on,,,,,0,0,2,,,,,0,,,46,126
66840,note_on,,,,,15,0,1,,,,,0,,,62,127
66842,set_tempo,,,,,10,1,0,,511073,,,,,,,
66852,set_tempo,,,,,10,1,0,,515463,,,,,,,
66862,set_tempo,,,,,10,1,0,,513259,,,,,,,
66872,set_tempo,,,,,10,1,0,,524475,,,,,,,
66882,set_tempo,,,,,10,1,0,,553505,,,,,,,
66885,note_on,,,,,45,0,1,,,,,0,,,74,0
66885,note_on,,,,,45,0,2,,,,,0,,,46,0
66885,note_on,,,,,0,0,1,,,,,0,,,62,0
66885,note_on,,,,,0,0,2,,,,,0,,,34,0
66885,note_on,,,,,0,0,1,,,,,0,,,68,0
66892,set_tempo,,,,,10,1,0,,638977,,,,,,,
66900,note_on,,,,,15,0,1,,,,,0,,,62,127
66900,note_on,,,,,0,0,1,,,,,0,,,68,127
66900,note_on,,,,,0,0,1,,,,,0,,,74,127
66900,note_on,,,,,0,0,2,,,,,0,,,46,127
66900,note_on,,,,,15,0,2,,,,,0,,,34,127
66902,set_tempo,,,,,10,1,0,,635593,,,,,,,
66942,set_tempo,,,,,40,1,0,,864553,,,,,,,
66945,note_on,,,,,45,0,2,,,,,0,,,46,0
66945,note_on,,,,,0,0,2,,,,,0,,,34,0
66945,note_on,,,,,0,0,1,,,,,0,,,62,0
66945,note_on,,,,,0,0,1,,,,,0,,,68,0
66945,note_on,,,,,45,0,1,,,,,0,,,74,0
66950,control_change,,,,,5,0,1,,,,,0,64,0,,
66960,note_on,,,,,15,0,2,,,,,0,,,33,127
66960,note_on,,,,,0,0,2,,,,,0,,,45,127
66960,control_change,,,,,0,0,1,,,,,0,64,96,,
66960,note_on,,,,,0,0,1,,,,,0,,,76,127
66960,note_on,,,,,0,0,1,,,,,0,,,73,127
66960,note_on,,,,,0,0,1,,,,,0,,,69,127
66960,note_on,,,,,10,0,1,,,,,0,,,64,127
66972,set_tempo,,,,,30,1,0,,597609,,,,,,,
67172,set_tempo,,,,,200,1,0,,352112,,,,,,,
67230,note_on,,,,,0,0,1,,,,,0,,,64,0
67230,control_change,,,,,0,0,1,,,,,0,64,0,,
67230,note_on,,,,,270,0,2,,,,,0,,,45,0
67230,note_on,,,,,0,0,2,,,,,0,,,33,0
67230,note_on,,,,,0,0,1,,,,,0,,,73,0
67230,note_on,,,,,270,0,1,,,,,0,,,76,0
67230,note_on,,,,,0,0,1,,,,,0,,,69,0
67272,set_tempo,,,,,100,1,0,,790513,,,,,,,
67282,set_tempo,,,,,10,1,0,,795755,,,,,,,
67302,set_tempo,,,,,20,1,0,,801068,,,,,,,
67320,note_on,,,,,90,0,2,,,,,0,,,46,56
67320,control_change,,,,,0,0,1,,,,,0,64,95,,
67320,note_on,,,,,0,0,1,,,,,0,,,65,55
67320,note_on,,,,,90,0,1,,,,,0,,,56,55
67320,note_on,,,,,0,0,2,,,,,0,,,50,56
67322,set_tempo,,,,,20,1,0,,375234,,,,,,,
67332,set_tempo,,,,,10,1,0,,376411,,,,,,,
67362,set_tempo,,,,,30,1,0,,386100,,,,,,,
67422,set_tempo,,,,,60,1,0,,393700,,,,,,,
67432,set_tempo,,,,,10,1,0,,394996,,,,,,,
67435,control_change,,,,,115,0,1,,,,,0,64,0,,
67440,note_on,,,,,120,0,2,,,,,0,,,50,0
67440,note_on,,,,,0,0,2,,,,,0,,,46,0
67440,note_on,,,,,0,0,2,,,,,0,,,52,48
67440,note_on,,,,,0,0,2,,,,,0,,,46,48
67440,note_on,,,,,0,0,1,,,,,0,,,64,45
67440,note_on,,,,,5,0,1,,,,,0,,,65,0
67440,note_on,,,,,0,0,1,,,,,0,,,56,0
67440,note_on,,,,,0,0,1,,,,,0,,,56,45
67462,set_tempo,,,,,30,1,0,,397614,,,,,,,
67472,set_tempo,,,,,10,1,0,,400266,,,,,,,
67482,set_tempo,,,,,10,1,0,,402955,,,,,,,
67485,note_on,,,,,45,0,2,,,,,0,,,46,0
67485,note_on,,,,,0,0,2,,,,,0,,,52,0
67485,note_on,,,,,0,0,1,,,,,0,,,56,0
67485,note_on,,,,,45,0,1,,,,,0,,,64,0
67492,set_tempo,,,,,10,1,0,,404312,,,,,,,
67500,note_on,,,,,15,0,2,,,,,0,,,52,46
67500,note_on,,,,,0,0,2,,,,,0,,,46,46
67500,note_on,,,,,15,0,1,,,,,0,,,56,43
67500,note_on,,,,,0,0,1,,,,,0,,,64,43
67512,set_tempo,,,,,20,1,0,,405679,,,,,,,
67522,set_tempo,,,,,10,1,0,,408441,,,,,,,
67542,set_tempo,,,,,20,1,0,,411240,,,,,,,
67545,note_on,,,,,0,0,1,,,,,0,,,56,0
67545,note_on,,,,,45,0,1,,,,,0,,,64,0
67545,note_on,,,,,0,0,2,,,,,0,,,52,0
67545,note_on,,,,,45,0,2,,,,,0,,,46,0
67560,note_on,,,,,0,0,2,,,,,0,,,46,42
67560,note_on,,,,,15,0,2,,,,,0,,,53,42
67560,note_on,,,,,0,0,1,,,,,0,,,62,37
67560,note_on,,,,,15,0,1,,,,,0,,,56,37
67562,set_tempo,,,,,20,1,0,,422832,,,,,,,
67582,set_tempo,,,,,20,1,0,,425833,,,,,,,
67592,set_tempo,,,,,10,1,0,,430416,,,,,,,
67602,set_tempo,,,,,10,1,0,,433526,,,,,,,
67605,note_on,,,,,0,0,2,,,,,0,,,53,0
67605,note_on,,,,,45,0,1,,,,,0,,,62,0
67605,note_on,,,,,0,0,1,,,,,0,,,56,0
67605,note_on,,,,,45,0,2,,,,,0,,,46,0
67620,note_on,,,,,0,0,1,,,,,0,,,62,34
67620,note_on,,,,,15,0,2,,,,,0,,,53,39
67620,note_on,,,,,0,0,2,,,,,0,,,46,39
67620,note_on,,,,,15,0,1,,,,,0,,,56,34
67662,set_tempo,,,,,60,1,0,,436681,,,,,,,
67665,note_on,,,,,0,0,1,,,,,0,,,56,0
67665,note_on,,,,,0,0,2,,,,,0,,,53,0
67665,note_on,,,,,45,0,2,,,,,0,,,46,0
67665,note_on,,,,,45,0,1,,,,,0,,,62,0
67672,set_tempo,,,,,10,1,0,,446428,,,,,,,
67680,note_on,,,,,0,0,2,,,,,0,,,49,34
67680,control_change,,,,,0,0,1,,,,,0,64,95,,
67680,note_on,,,,,0,0,1,,,,,0,,,64,32
67680,note_on,,,,,15,0,1,,,,,0,,,57,32
67680,note_on,,,,,15,0,2,,,,,0,,,45,34
67692,set_tempo,,,,,20,1,0,,448095,,,,,,,
67712,set_tempo,,,,,20,1,0,,458365,,,,,,,
67772,set_tempo,,,,,60,1,0,,472813,,,,,,,
67782,set_tempo,,,,,10,1,0,,476568,,,,,,,
67812,set_tempo,,,,,30,1,0,,480384,,,,,,,
67832,set_tempo,,,,,20,1,0,,484261,,,,,,,
67842,set_tempo,,,,,10,1,0,,488201,,,,,,,
67872,set_tempo,,,,,30,1,0,,490196,,,,,,,
67950,note_on,,,,,270,0,1,,,,,0,,,64,0
67950,note_on,,,,,0,0,2,,,,,0,,,45,0
67950,note_on,,,,,270,0,2,,,,,0,,,49,0
67950,note_on,,,,,0,0,1,,,,,0,,,57,0
67965,control_change,,,,,15,0,1,,,,,0,64,0,,
68010,note_on,,,,,60,0,2,,,,,0,,,49,80
68010,control_change,,,,,45,0,1,,,,,0,64,95,,
68012,set_tempo,,,,,140,1,0,,671140,,,,,,,
68020,note_on,,,,,10,0,2,,,,,0,,,55,80
68030,note_on,,,,,10,0,2,,,,,0,,,58,80
68040,note_on,,,,,10,0,2,,,,,0,,,64,80
68040,note_on,,,,,0,0,1,,,,,0,,,70,90
68040,note_on,,,,,0,0,1,,,,,0,,,76,90
68040,note_on,,,,,30,0,1,,,,,0,,,67,90
68052,set_tempo,,,,,40,1,0,,353148,,,,,,,
68062,set_tempo,,,,,10,1,0,,376411,,,,,,,
68100,note_on,,,,,60,0,2,,,,,0,,,49,0
68102,set_tempo,,,,,40,1,0,,375234,,,,,,,
68110,note_on,,,,,10,0,2,,,,,0,,,55,0
68112,set_tempo,,,,,10,1,0,,374064,,,,,,,
68120,note_on,,,,,10,0,2,,,,,0,,,58,0
68130,note_on,,,,,10,0,2,,,,,0,,,64,0
68130,note_on,,,,,0,0,1,,,,,0,,,70,0
68130,note_on,,,,,90,0,1,,,,,0,,,76,0
68130,note_on,,,,,0,0,1,,,,,0,,,67,0
68142,set_tempo,,,,,30,1,0,,372902,,,,,,,
68160,note_on,,,,,0,0,1,,,,,0,,,76,58
68160,note_on,,,,,0,0,1,,,,,0,,,70,58
68160,note_on,,,,,30,0,1,,,,,0,,,67,58
68160,note_on,,,,,30,0,2,,,,,0,,,55,58
68160,note_on,,,,,0,0,2,,,,,0,,,58,58
68160,note_on,,,,,0,0,2,,,,,0,,,64,58
68162,set_tempo,,,,,20,1,0,,371747,,,,,,,
68205,note_on,,,,,0,0,1,,,,,0,,,67,0
68205,note_on,,,,,0,0,1,,,,,0,,,70,0
68205,note_on,,,,,45,0,1,,,,,0,,,76,0
68205,note_on,,,,,0,0,2,,,,,0,,,58,0
68205,note_on,,,,,0,0,2,,,,,0,,,55,0
68205,note_on,,,,,45,0,2,,,,,0,,,64,0
68220,note_on,,,,,0,0,1,,,,,0,,,76,64
68220,note_on,,,,,0,0,2,,,,,0,,,64,64
68220,note_on,,,,,0,0,2,,,,,0,,,58,64
68220,note_on,,,,,0,0,1,,,,,0,,,70,64
68220,note_on,,,,,15,0,1,,,,,0,,,67,64
68220,note_on,,,,,15,0,2,,,,,0,,,55,64
68222,set_tempo,,,,,60,1,0,,369458,,,,,,,
68242,set_tempo,,,,,20,1,0,,368324,,,,,,,
68262,set_tempo,,,,,20,1,0,,367197,,,,,,,
68265,note_on,,,,,45,0,1,,,,,0,,,76,0
68265,note_on,,,,,0,0,1,,,,,0,,,70,0
68265,note_on,,,,,0,0,1,,,,,0,,,67,0
68265,note_on,,,,,0,0,2,,,,,0,,,55,0
68265,note_on,,,,,45,0,2,,,,,0,,,64,0
68265,note_on,,,,,0,0,2,,,,,0,,,58,0
68280,note_on,,,,,0,0,2,,,,,0,,,58,67
68280,note_on,,,,,15,0,2,,,,,0,,,55,67
68280,note_on,,,,,0,0,2,,,,,0,,,64,67
68280,note_on,,,,,0,0,1,,,,,0,,,70,67
68280,note_on,,,,,0,0,1,,,,,0,,,76,67
68280,note_on,,,,,15,0,1,,,,,0,,,67,67
68292,set_tempo,,,,,30,1,0,,366076,,,,,,,
68312,set_tempo,,,,,20,1,0,,363856,,,,,,,
68325,note_on,,,,,0,0,1,,,,,0,,,70,0
68325,note_on,,,,,45,0,1,,,,,0,,,76,0
68325,note_on,,,,,0,0,2,,,,,0,,,58,0
68325,note_on,,,,,0,0,1,,,,,0,,,67,0
68325,note_on,,,,,0,0,2,,,,,0,,,55,0
68325,note_on,,,,,45,0,2,,,,,0,,,64,0
68340,note_on,,,,,0,0,1,,,,,0,,,76,75
68340,note_on,,,,,0,0,2,,,,,0,,,64,75
68340,note_on,,,,,0,0,2,,,,,0,,,58,75
68340,note_on,,,,,15,0,2,,,,,0,,,55,75
68340,note_on,,,,,0,0,1,,,,,0,,,70,75
68340,note_on,,,,,15,0,1,,,,,0,,,67,75
68372,set_tempo,,,,,60,1,0,,362756,,,,,,,
68382,set_tempo,,,,,10,1,0,,360576,,,,,,,
68385,note_on,,,,,0,0,2,,,,,0,,,55,0
68385,note_on,,,,,0,0,2,,,,,0,,,58,0
68385,note_on,,,,,45,0,2,,,,,0,,,64,0
68385,note_on,,,,,45,0,1,,,,,0,,,76,0
68385,note_on,,,,,0,0,1,,,,,0,,,70,0
68385,note_on,,,,,0,0,1,,,,,0,,,67,0
68395,control_change,,,,,10,0,1,,,,,0,64,0,,
68400,note_on,,,,,5,0,1,,,,,0,,,67,85
68400,note_on,,,,,0,0,1,,,,,0,,,76,85
68400,note_on,,,,,0,0,1,,,,,0,,,69,85
68400,note_on,,,,,0,0,2,,,,,0,,,57,84
68400,control_change,,,,,0,0,1,,,,,0,64,96,,
68400,note_on,,,,,0,0,2,,,,,0,,,50,84
68400,note_on,,,,,15,0,2,,,,,0,,,55,84
68400,note_on,,,,,0,0,2,,,,,0,,,64,84
68442,set_tempo,,,,,60,1,0,,359496,,,,,,,
68452,set_tempo,,,,,10,1,0,,358422,,,,,,,
68472,set_tempo,,,,,20,1,0,,357355,,,,,,,
68492,set_tempo,,,,,20,1,0,,355239,,,,,,,
68520,control_change,,,,,0,0,1,,,,,0,64,0,,
68520,note_on,,,,,0,0,1,,,,,0,,,74,64
68520,note_on,,,,,0,0,1,,,,,0,,,66,64
68520,note_on,,,,,120,0,1,,,,,0,,,76,0
68520,note_on,,,,,0,0,1,,,,,0,,,67,0
68520,note_on,,,,,0,0,2,,,,,0,,,55,0
68520,note_on,,,,,0,0,2,,,,,0,,,54,65
68520,note_on,,,,,0,0,2,,,,,0,,,62,65
68520,note_on,,,,,120,0,2,,,,,0,,,64,0
68572,set_tempo,,,,,80,1,0,,356294,,,,,,,
68602,set_tempo,,,,,30,1,0,,358422,,,,,,,
68610,note_on,,,,,0,0,1,,,,,0,,,66,0
68610,note_on,,,,,90,0,2,,,,,0,,,62,0
68610,note_on,,,,,0,0,2,,,,,0,,,54,0
68610,note_on,,,,,90,0,1,,,,,0,,,74,0
68612,set_tempo,,,,,10,1,0,,359496,,,,,,,
68632,set_tempo,,,,,20,1,0,,360576,,,,,,,
68640,note_on,,,,,0,0,2,,,,,0,,,57,59
68640,note_on,,,,,0,0,1,,,,,0,,,69,59
68640,note_on,,,,,30,0,1,,,,,0,,,69,0
68640,note_on,,,,,0,0,2,,,,,0,,,54,59
68640,note_on,,,,,30,0,2,,,,,0,,,50,0
68640,note_on,,,,,0,0,2,,,,,0,,,57,0
68640,note_on,,,,,0,0,1,,,,,0,,,66,59
68642,set_tempo,,,,,10,1,0,,362756,,,,,,,
68692,set_tempo,,,,,50,1,0,,364963,,,,,,,
68722,set_tempo,,,,,30,1,0,,367197,,,,,,,
68760,note_on,,,,,120,0,1,,,,,0,,,61,73
68760,control_change,,,,,0,0,1,,,,,0,64,96,,
68760,note_on,,,,,120,0,2,,,,,0,,,45,67
68762,set_tempo,,,,,40,1,0,,369458,,,,,,,
68802,set_tempo,,,,,40,1,0,,370599,,,,,,,
68822,set_tempo,,,,,20,1,0,,371747,,,,,,,
68832,set_tempo,,,,,10,1,0,,372902,,,,,,,
68880,note_on,,,,,0,0,1,,,,,0,,,69,60
68880,note_on,,,,,120,0,1,,,,,0,,,66,0
68880,note_on,,,,,0,0,1,,,,,0,,,69,0
68880,note_on,,,,,0,0,1,,,,,0,,,66,60
68880,control_change,,,,,0,0,1,,,,,0,64,0,,
68880,note_on,,,,,120,0,2,,,,,0,,,54,0
68880,note_on,,,,,0,0,2,,,,,0,,,54,58
68880,note_on,,,,,0,0,2,,,,,0,,,57,58
68880,note_on,,,,,0,0,2,,,,,0,,,57,0
68882,set_tempo,,,,,50,1,0,,375234,,,,,,,
68925,note_on,,,,,0,0,1,,,,,0,,,69,0
68925,note_on,,,,,45,0,1,,,,,0,,,66,0
68925,note_on,,,,,0,0,2,,,,,0,,,57,0
68925,note_on,,,,,45,0,2,,,,,0,,,54,0
68940,note_on,,,,,0,0,2,,,,,0,,,55,55
68940,note_on,,,,,15,0,2,,,,,0,,,59,55
68940,note_on,,,,,15,0,1,,,,,0,,,71,56
68940,note_on,,,,,0,0,1,,,,,0,,,67,56
68985,note_on,,,,,45,0,2,,,,,0,,,55,0
68985,note_on,,,,,0,0,2,,,,,0,,,59,0
68985,note_on,,,,,45,0,1,,,,,0,,,67,0
68985,note_on,,,,,0,0,1,,,,,0,,,71,0
69000,note_on,,,,,15,0,1,,,,,0,,,64,50
69000,note_on,,,,,0,0,1,,,,,0,,,67,50
69000,note_on,,,,,0,0,2,,,,,0,,,55,53
69000,note_on,,,,,15,0,2,,,,,0,,,52,53
69120,note_on,,,,,0,0,1,,,,,0,,,66,37
69120,note_on,,,,,0,0,2,,,,,0,,,52,0
69120,note_on,,,,,0,0,2,,,,,0,,,45,0
69120,note_on,,,,,0,0,1,,,,,0,,,62,37
69120,control_change,,,,,0,0,1,,,,,0,64,95,,
69120,note_on,,,,,120,0,1,,,,,0,,,67,0
69120,note_on,,,,,0,0,1,,,,,0,,,64,0
69120,note_on,,,,,0,0,1,,,,,0,,,61,0
69120,note_on,,,,,120,0,2,,,,,0,,,55,0
69120,note_on,,,,,0,0,2,,,,,0,,,54,46
69120,note_on,,,,,0,0,2,,,,,0,,,50,46
69122,set_tempo,,,,,240,1,0,,351082,,,,,,,
69142,set_tempo,,,,,20,1,0,,349040,,,,,,,
69172,set_tempo,,,,,30,1,0,,348027,,,,,,,
69192,set_tempo,,,,,20,1,0,,347021,,,,,,,
69272,set_tempo,,,,,80,1,0,,346020,,,,,,,
69282,set_tempo,,,,,10,1,0,,345025,,,,,,,
69330,note_on,,,,,0,0,2,,,,,0,,,54,0
69330,note_on,,,,,0,0,1,,,,,0,,,66,0
69330,note_on,,,,,210,0,2,,,,,0,,,50,0
69330,note_on,,,,,210,0,1,,,,,0,,,62,0
69360,note_on,,,,,0,0,1,,,,,0,,,69,75
69360,note_on,,,,,30,0,1,,,,,0,,,66,75
69360,note_on,,,,,30,0,2,,,,,0,,,57,79
69360,note_on,,,,,0,0,2,,,,,0,,,54,79
69450,control_change,,,,,90,0,1,,,,,0,64,96,,
69450,note_on,,,,,0,0,2,,,,,0,,,49,98
69450,note_on,,,,,0,0,2,,,,,0,,,57,0
69450,note_on,,,,,90,0,2,,,,,0,,,54,0
69452,set_tempo,,,,,170,1,0,,663716,,,,,,,
69460,note_on,,,,,10,0,2,,,,,0,,,55,101
69462,set_tempo,,,,,10,1,0,,663716,,,,,,,
69470,note_on,,,,,10,0,2,,,,,0,,,58,103
69480,note_on,,,,,30,0,1,,,,,0,,,69,0
69480,note_on,,,,,0,0,1,,,,,0,,,66,0
69480,note_on,,,,,0,0,1,,,,,0,,,79,95
69480,note_on,,,,,10,0,2,,,,,0,,,64,104
69480,note_on,,,,,0,0,1,,,,,0,,,70,95
69480,note_on,,,,,0,0,1,,,,,0,,,67,95
69482,set_tempo,,,,,20,1,0,,490196,,,,,,,
69492,set_tempo,,,,,10,1,0,,353148,,,,,,,
69540,note_on,,,,,60,0,2,,,,,0,,,49,0
69550,note_on,,,,,10,0,2,,,,,0,,,55,0
69560,note_on,,,,,10,0,2,,,,,0,,,58,0
69570,note_on,,,,,10,0,2,,,,,0,,,64,0
69570,note_on,,,,,0,0,1,,,,,0,,,67,0
69570,note_on,,,,,0,0,1,,,,,0,,,79,0
69570,note_on,,,,,90,0,1,,,,,0,,,70,0
69592,set_tempo,,,,,100,1,0,,372902,,,,,,,
69600,note_on,,,,,0,0,1,,,,,0,,,70,78
69600,note_on,,,,,0,0,1,,,,,0,,,67,78
69600,note_on,,,,,0,0,2,,,,,0,,,58,83
69600,note_on,,,,,30,0,2,,,,,0,,,55,83
69600,note_on,,,,,30,0,1,,,,,0,,,79,78
69600,note_on,,,,,0,0,2,,,,,0,,,64,83
69602,set_tempo,,,,,10,1,0,,370599,,,,,,,
69612,set_tempo,,,,,10,1,0,,378787,,,,,,,
69645,note_on,,,,,45,0,1,,,,,0,,,70,0
69645,note_on,,,,,0,0,1,,,,,0,,,67,0
69645,note_on,,,,,45,0,2,,,,,0,,,64,0
69645,note_on,,,,,0,0,2,,,,,0,,,58,0
69645,note_on,,,,,0,0,2,,,,,0,,,55,0
69645,note_on,,,,,0,0,1,,,,,0,,,79,0
69660,note_on,,,,,15,0,1,,,,,0,,,79,84
69660,note_on,,,,,0,0,1,,,,,0,,,67,84
69660,note_on,,,,,15,0,2,,,,,0,,,55,89
69660,note_on,,,,,0,0,2,,,,,0,,,64,89
69660,note_on,,,,,0,0,2,,,,,0,,,58,89
69660,note_on,,,,,0,0,1,,,,,0,,,70,84
69682,set_tempo,,,,,70,1,0,,376411,,,,,,,
69692,set_tempo,,,,,10,1,0,,374064,,,,,,,
69705,note_on,,,,,45,0,1,,,,,0,,,70,0
69705,note_on,,,,,0,0,1,,,,,0,,,79,0
69705,note_on,,,,,0,0,1,,,,,0,,,67,0
69705,note_on,,,,,45,0,2,,,,,0,,,64,0
69705,note_on,,,,,0,0,2,,,,,0,,,58,0
69705,note_on,,,,,0,0,2,,,,,0,,,55,0
69720,note_on,,,,,15,0,2,,,,,0,,,55,94
69720,note_on,,,,,0,0,2,,,,,0,,,58,94
69720,note_on,,,,,0,0,2,,,,,0,,,64,94
69720,note_on,,,,,0,0,1,,,,,0,,,67,89
69720,note_on,,,,,0,0,1,,,,,0,,,70,89
69720,note_on,,,,,15,0,1,,,,,0,,,79,89
69752,set_tempo,,,,,60,1,0,,371747,,,,,,,
69765,note_on,,,,,45,0,2,,,,,0,,,64,0
69765,note_on,,,,,0,0,1,,,,,0,,,79,0
69765,note_on,,,,,0,0,1,,,,,0,,,67,0
69765,note_on,,,,,45,0,1,,,,,0,,,70,0
69765,note_on,,,,,0,0,2,,,,,0,,,58,0
69765,note_on,,,,,0,0,2,,,,,0,,,55,0
69780,note_on,,,,,0,0,1,,,,,0,,,67,92
69780,note_on,,,,,15,0,1,,,,,0,,,79,92
69780,note_on,,,,,0,0,1,,,,,0,,,70,92
69780,note_on,,,,,0,0,2,,,,,0,,,64,96
69780,note_on,,,,,0,0,2,,,,,0,,,58,96
69780,note_on,,,,,15,0,2,,,,,0,,,55,96
69812,set_tempo,,,,,60,1,0,,369458,,,,,,,
69825,note_on,,,,,0,0,1,,,,,0,,,79,0
69825,note_on,,,,,0,0,1,,,,,0,,,67,0
69825,note_on,,,,,45,0,1,,,,,0,,,70,0
69825,note_on,,,,,45,0,2,,,,,0,,,64,0
69825,note_on,,,,,0,0,2,,,,,0,,,58,0
69825,note_on,,,,,0,0,2,,,,,0,,,55,0
69832,set_tempo,,,,,20,1,0,,367197,,,,,,,
69835,control_change,,,,,10,0,1,,,,,0,64,0,,
69840,note_on,,,,,0,0,2,,,,,0,,,57,99
69840,note_on,,,,,0,0,2,,,,,0,,,50,99
69840,note_on,,,,,0,0,2,,,,,0,,,64,99
69840,note_on,,,,,15,0,2,,,,,0,,,55,99
69840,note_on,,,,,5,0,1,,,,,0,,,79,95
69840,note_on,,,,,0,0,1,,,,,0,,,67,95
69840,note_on,,,,,0,0,1,,,,,0,,,69,95
69840,control_change,,,,,0,0,1,,,,,0,64,96,,
69852,set_tempo,,,,,20,1,0,,364963,,,,,,,
69872,set_tempo,,,,,20,1,0,,360576,,,,,,,
69882,set_tempo,,,,,10,1,0,,353148,,,,,,,
69912,set_tempo,,,,,30,1,0,,354191,,,,,,,
69932,set_tempo,,,,,20,1,0,,356294,,,,,,,
69952,set_tempo,,,,,20,1,0,,360576,,,,,,,
69960,note_on,,,,,0,0,1,,,,,0,,,66,87
69960,note_on,,,,,0,0,2,,,,,0,,,54,99
69960,note_on,,,,,0,0,2,,,,,0,,,62,99
69960,note_on,,,,,0,0,2,,,,,0,,,55,0
69960,note_on,,,,,120,0,1,,,,,0,,,67,0
69960,note_on,,,,,0,0,1,,,,,0,,,79,0
69960,note_on,,,,,0,0,1,,,,,0,,,78,87
69960,note_on,,,,,120,0,2,,,,,0,,,64,0
69960,control_change,,,,,0,0,1,,,,,0,64,0,,
69982,set_tempo,,,,,30,1,0,,362756,,,,,,,
70002,set_tempo,,,,,20,1,0,,369458,,,,,,,
70022,set_tempo,,,,,20,1,0,,371747,,,,,,,
70032,set_tempo,,,,,10,1,0,,372902,,,,,,,
70050,note_on,,,,,90,0,2,,,,,0,,,62,0
70050,note_on,,,,,0,0,2,,,,,0,,,54,0
70050,note_on,,,,,90,0,1,,,,,0,,,66,0
70050,note_on,,,,,0,0,1,,,,,0,,,78,0
70062,set_tempo,,,,,30,1,0,,374064,,,,,,,
70072,set_tempo,,,,,10,1,0,,381194,,,,,,,
70080,note_on,,,,,30,0,2,,,,,0,,,50,0
70080,note_on,,,,,0,0,2,,,,,0,,,57,0
70080,note_on,,,,,0,0,2,,,,,0,,,57,85
70080,note_on,,,,,0,0,2,,,,,0,,,54,85
70080,note_on,,,,,30,0,1,,,,,0,,,69,0
70080,note_on,,,,,0,0,1,,,,,0,,,66,79
70080,note_on,,,,,0,0,1,,,,,0,,,78,79
70080,note_on,,,,,0,0,1,,,,,0,,,69,79
70112,set_tempo,,,,,40,1,0,,383631,,,,,,,
70152,set_tempo,,,,,40,1,0,,386100,,,,,,,
70162,set_tempo,,,,,10,1,0,,388601,,,,,,,
70182,set_tempo,,,,,20,1,0,,389863,,,,,,,
70192,set_tempo,,,,,10,1,0,,391134,,,,,,,
70200,note_on,,,,,120,0,2,,,,,0,,,45,80
70200,control_change,,,,,120,0,1,,,,,0,64,96,,
70232,set_tempo,,,,,40,1,0,,392413,,,,,,,
70242,set_tempo,,,,,10,1,0,,394996,,,,,,,
70252,set_tempo,,,,,10,1,0,,396301,,,,,,,
70262,set_tempo,,,,,10,1,0,,397614,,,,,,,
70272,set_tempo,,,,,10,1,0,,398936,,,,,,,
70292,set_tempo,,,,,20,1,0,,400266,,,,,,,
70312,set_tempo,,,,,20,1,0,,401606,,,,,,,
70320,note_on,,,,,120,0,1,,,,,0,,,66,0
70320,control_change,,,,,0,0,1,,,,,0,64,0,,
70320,note_on,,,,,0,0,1,,,,,0,,,69,81
70320,note_on,,,,,0,0,1,,,,,0,,,78,81
70320,note_on,,,,,0,0,1,,,,,0,,,78,0
70320,note_on,,,,,0,0,1,,,,,0,,,69,0
70320,note_on,,,,,0,0,1,,,,,0,,,66,81
70365,note_on,,,,,45,0,1,,,,,0,,,66,0
70365,note_on,,,,,0,0,1,,,,,0,,,69,0
70365,note_on,,,,,0,0,1,,,,,0,,,78,0
70380,note_on,,,,,15,0,1,,,,,0,,,79,75
70380,note_on,,,,,0,0,1,,,,,0,,,71,75
70380,note_on,,,,,0,0,1,,,,,0,,,67,75
70425,note_on,,,,,45,0,1,,,,,0,,,67,0
70425,note_on,,,,,0,0,1,,,,,0,,,71,0
70425,note_on,,,,,0,0,1,,,,,0,,,79,0
70440,note_on,,,,,0,0,2,,,,,0,,,54,0
70440,note_on,,,,,0,0,2,,,,,0,,,57,0
70440,note_on,,,,,0,0,2,,,,,0,,,45,53
70440,note_on,,,,,0,0,2,,,,,0,,,57,53
70440,note_on,,,,,0,0,2,,,,,0,,,55,53
70440,note_on,,,,,0,0,1,,,,,0,,,67,69
70440,note_on,,,,,0,0,1,,,,,0,,,76,69
70440,note_on,,,,,15,0,1,,,,,0,,,64,69
70440,note_on,,,,,240,0,2,,,,,0,,,45,0
70542,set_tempo,,,,,230,1,0,,402955,,,,,,,
70560,note_on,,,,,0,0,2,,,,,0,,,45,0
70560,note_on,,,,,0,0,2,,,,,0,,,57,0
70560,note_on,,,,,120,0,2,,,,,0,,,55,0
70560,note_on,,,,,0,0,2,,,,,0,,,54,46
70560,note_on,,,,,0,0,2,,,,,0,,,57,46
70560,note_on,,,,,0,0,1,,,,,0,,,62,44
70560,control_change,,,,,0,0,1,,,,,0,64,95,,
70560,note_on,,,,,0,0,1,,,,,0,,,66,44
70560,note_on,,,,,0,0,1,,,,,0,,,74,44
70560,note_on,,,,,0,0,1,,,,,0,,,64,0
70560,note_on,,,,,0,0,1,,,,,0,,,67,0
70560,note_on,,,,,120,0,1,,,,,0,,,76,0
70560,note_on,,,,,0,0,2,,,,,0,,,50,46
70562,set_tempo,,,,,20,1,0,,400266,,,,,,,
70572,set_tempo,,,,,10,1,0,,333518,,,,,,,
70582,set_tempo,,,,,10,1,0,,352112,,,,,,,
70770,note_on,,,,,0,0,1,,,,,0,,,66,0
70770,note_on,,,,,0,0,1,,,,,0,,,74,0
70770,note_on,,,,,0,0,2,,,,,0,,,57,0
70770,note_on,,,,,0,0,2,,,,,0,,,54,0
70770,note_on,,,,,210,0,1,,,,,0,,,62,0
70770,note_on,,,,,210,0,2,,,,,0,,,50,0
70772,set_tempo,,,,,190,1,0,,746268,,,,,,,
70800,control_change,,,,,30,0,2,,,,,0,91,96,,
70800,note_on,,,,,0,0,2,,,,,0,,,54,52
70800,control_change,,,,,30,0,1,,,,,0,91,96,,
70800,note_on,,,,,0,0,1,,,,,0,,,66,46
70800,control_change,,,,,0,0,1,,,,,0,64,0,,
70802,set_tempo,,,,,30,1,0,,353148,,,,,,,
70902,set_tempo,,,,,100,1,0,,398936,,,,,,,
70920,control_change,,,,,0,0,1,,,,,0,64,96,,
70920,note_on,,,,,120,0,2,,,,,0,,,54,0
70920,note_on,,,,,0,0,1,,,,,0,,,62,48
70920,note_on,,,,,120,0,1,,,,,0,,,66,0
70920,note_on,,,,,0,0,2,,,,,0,,,47,51
70920,note_on,,,,,0,0,2,,,,,0,,,59,51
70920,note_on,,,,,0,0,2,,,,,0,,,54,51
70920,note_on,,,,,0,0,1,,,,,0,,,74,48
70920,note_on,,,,,0,0,1,,,,,0,,,66,48
70922,set_tempo,,,,,20,1,0,,333518,,,,,,,
70932,set_tempo,,,,,10,1,0,,354191,,,,,,,
71010,note_on,,,,,90,0,1,,,,,0,,,74,0
71010,note_on,,,,,0,0,2,,,,,0,,,47,0
71010,note_on,,,,,0,0,2,,,,,0,,,54,0
71010,note_on,,,,,90,0,2,,,,,0,,,59,0
71010,note_on,,,,,0,0,1,,,,,0,,,66,0
71010,note_on,,,,,0,0,1,,,,,0,,,62,0
71040,note_on,,,,,30,0,1,,,,,0,,,62,41
71040,note_on,,,,,0,0,1,,,,,0,,,66,41
71040,note_on,,,,,0,0,1,,,,,0,,,74,41
71040,note_on,,,,,30,0,2,,,,,0,,,47,37
71040,note_on,,,,,0,0,2,,,,,0,,,54,37
71040,note_on,,,,,0,0,2,,,,,0,,,59,37
71085,note_on,,,,,45,0,2,,,,,0,,,59,0
71085,note_on,,,,,0,0,1,,,,,0,,,62,0
71085,note_on,,,,,0,0,1,,,,,0,,,66,0
71085,note_on,,,,,0,0,2,,,,,0,,,54,0
71085,note_on,,,,,0,0,2,,,,,0,,,47,0
71085,note_on,,,,,45,0,1,,,,,0,,,74,0
71100,note_on,,,,,0,0,1,,,,,0,,,66,47
71100,note_on,,,,,0,0,1,,,,,0,,,74,47
71100,note_on,,,,,15,0,1,,,,,0,,,62,47
71100,note_on,,,,,15,0,2,,,,,0,,,47,40
71100,note_on,,,,,0,0,2,,,,,0,,,54,40
71100,note_on,,,,,0,0,2,,,,,0,,,59,40
71145,note_on,,,,,0,0,2,,,,,0,,,54,0
71145,note_on,,,,,0,0,2,,,,,0,,,47,0
71145,note_on,,,,,45,0,1,,,,,0,,,74,0
71145,note_on,,,,,0,0,1,,,,,0,,,66,0
71145,note_on,,,,,0,0,1,,,,,0,,,62,0
71145,note_on,,,,,45,0,2,,,,,0,,,59,0
71160,note_on,,,,,0,0,1,,,,,0,,,66,50
71160,note_on,,,,,0,0,1,,,,,0,,,74,50
71160,note_on,,,,,0,0,2,,,,,0,,,54,45
71160,note_on,,,,,15,0,2,,,,,0,,,47,45
71160,note_on,,,,,15,0,1,,,,,0,,,62,50
71160,note_on,,,,,0,0,2,,,,,0,,,59,45
71205,note_on,,,,,45,0,1,,,,,0,,,74,0
71205,note_on,,,,,0,0,1,,,,,0,,,66,0
71205,note_on,,,,,0,0,1,,,,,0,,,62,0
71205,note_on,,,,,0,0,2,,,,,0,,,47,0
71205,note_on,,,,,0,0,2,,,,,0,,,54,0
71205,note_on,,,,,45,0,2,,,,,0,,,59,0
71220,note_on,,,,,0,0,2,,,,,0,,,59,47
71220,note_on,,,,,0,0,2,,,,,0,,,54,47
71220,note_on,,,,,15,0,2,,,,,0,,,47,47
71220,note_on,,,,,15,0,1,,,,,0,,,62,51
71220,note_on,,,,,0,0,1,,,,,0,,,66,51
71220,note_on,,,,,0,0,1,,,,,0,,,74,51
71265,note_on,,,,,0,0,2,,,,,0,,,47,0
71265,note_on,,,,,0,0,1,,,,,0,,,67,60
71265,note_on,,,,,0,0,1,,,,,0,,,62,0
71265,note_on,,,,,0,0,1,,,,,0,,,66,0
71265,note_on,,,,,0,0,2,,,,,0,,,54,0
71265,note_on,,,,,0,0,2,,,,,0,,,55,60
71265,note_on,,,,,45,0,2,,,,,0,,,59,0
71265,note_on,,,,,45,0,1,,,,,0,,,74,0
71272,set_tempo,,,,,340,1,0,,741656,,,,,,,
71275,control_change,,,,,10,0,1,,,,,0,64,0,,
71280,note_on,,,,,5,0,1,,,,,0,,,67,0
71280,control_change,,,,,0,0,1,,,,,0,64,95,,
71280,note_on,,,,,0,0,1,,,,,0,,,71,60
71280,note_on,,,,,0,0,1,,,,,0,,,62,60
71280,note_on,,,,,0,0,1,,,,,0,,,66,60
71280,note_on,,,,,0,0,2,,,,,0,,,50,52
71280,note_on,,,,,0,0,2,,,,,0,,,54,52
71280,note_on,,,,,15,0,2,,,,,0,,,55,0
71280,note_on,,,,,0,0,2,,,,,0,,,59,52
71282,set_tempo,,,,,10,1,0,,354191,,,,,,,
71370,note_on,,,,,90,0,2,,,,,0,,,59,0
71370,note_on,,,,,90,0,1,,,,,0,,,71,0
71370,note_on,,,,,0,0,1,,,,,0,,,66,0
71370,note_on,,,,,0,0,2,,,,,0,,,54,0
71370,note_on,,,,,0,0,2,,,,,0,,,50,0
71370,note_on,,,,,0,0,1,,,,,0,,,62,0
71400,note_on,,,,,30,0,1,,,,,0,,,62,47
71400,note_on,,,,,0,0,1,,,,,0,,,66,47
71400,note_on,,,,,0,0,1,,,,,0,,,71,47
71400,note_on,,,,,0,0,2,,,,,0,,,59,50
71400,note_on,,,,,30,0,2,,,,,0,,,50,50
71400,note_on,,,,,0,0,2,,,,,0,,,54,50
71490,note_on,,,,,0,0,2,,,,,0,,,50,0
71490,note_on,,,,,90,0,2,,,,,0,,,59,0
71490,note_on,,,,,0,0,1,,,,,0,,,66,0
71490,note_on,,,,,0,0,1,,,,,0,,,62,0
71490,note_on,,,,,90,0,1,,,,,0,,,71,0
71490,note_on,,,,,0,0,2,,,,,0,,,54,0
71520,note_on,,,,,0,0,1,,,,,0,,,66,38
71520,note_on,,,,,0,0,2,,,,,0,,,59,44
71520,note_on,,,,,30,0,1,,,,,0,,,62,38
71520,note_on,,,,,30,0,2,,,,,0,,,50,44
71520,note_on,,,,,0,0,2,,,,,0,,,54,44
71520,note_on,,,,,0,0,1,,,,,0,,,71,38
71610,note_on,,,,,0,0,2,,,,,0,,,54,0
71610,note_on,,,,,0,0,2,,,,,0,,,50,0
71610,note_on,,,,,0,0,1,,,,,0,,,62,0
71610,note_on,,,,,90,0,2,,,,,0,,,59,0
71610,note_on,,,,,90,0,1,,,,,0,,,71,0
71610,note_on,,,,,0,0,1,,,,,0,,,66,0
71610,note_on,,,,,0,0,1,,,,,0,,,58,54
71612,set_tempo,,,,,330,1,0,,545950,,,,,,,
71635,control_change,,,,,25,0,1,,,,,0,64,0,,
71640,control_change,,,,,0,0,1,,,,,0,64,95,,
71640,note_on,,,,,0,0,1,,,,,0,,,73,38
71640,note_on,,,,,0,0,1,,,,,0,,,64,38
71640,note_on,,,,,5,0,1,,,,,0,,,66,38
71640,note_on,,,,,30,0,2,,,,,0,,,42,55
71640,note_on,,,,,0,0,2,,,,,0,,,54,55
71642,set_tempo,,,,,30,1,0,,354191,,,,,,,
71700,note_on,,,,,60,0,1,,,,,0,,,58,0
71712,set_tempo,,,,,70,1,0,,356294,,,,,,,
71722,set_tempo,,,,,10,1,0,,357355,,,,,,,
71730,note_on,,,,,0,0,2,,,,,0,,,42,0
71730,note_on,,,,,30,0,1,,,,,0,,,66,0
71730,note_on,,,,,0,0,1,,,,,0,,,64,0
71730,note_on,,,,,90,0,2,,,,,0,,,54,0
71730,note_on,,,,,0,0,1,,,,,0,,,73,0
71732,set_tempo,,,,,10,1,0,,358422,,,,,,,
71742,set_tempo,,,,,10,1,0,,359496,,,,,,,
71752,set_tempo,,,,,10,1,0,,362756,,,,,,,
71760,note_on,,,,,30,0,1,,,,,0,,,64,47
71760,note_on,,,,,0,0,1,,,,,0,,,66,47
71760,note_on,,,,,0,0,1,,,,,0,,,73,47
71760,note_on,,,,,0,0,2,,,,,0,,,58,39
71760,note_on,,,,,30,0,2,,,,,0,,,54,39
71762,set_tempo,,,,,10,1,0,,363856,,,,,,,
71782,set_tempo,,,,,20,1,0,,366076,,,,,,,
71792,set_tempo,,,,,10,1,0,,368324,,,,,,,
71802,set_tempo,,,,,10,1,0,,369458,,,,,,,
71805,note_on,,,,,45,0,1,,,,,0,,,73,0
71805,note_on,,,,,0,0,2,,,,,0,,,54,0
71805,note_on,,,,,45,0,2,,,,,0,,,58,0
71805,note_on,,,,,0,0,1,,,,,0,,,66,0
71805,note_on,,,,,0,0,1,,,,,0,,,64,0
71820,note_on,,,,,0,0,2,,,,,0,,,58,45
71820,note_on,,,,,15,0,2,,,,,0,,,54,45
71820,note_on,,,,,0,0,1,,,,,0,,,66,50
71820,note_on,,,,,15,0,1,,,,,0,,,64,50
71820,note_on,,,,,0,0,1,,,,,0,,,73,50
71865,note_on,,,,,0,0,1,,,,,0,,,64,0
71865,note_on,,,,,45,0,2,,,,,0,,,58,0
71865,note_on,,,,,0,0,2,,,,,0,,,54,0
71865,note_on,,,,,45,0,1,,,,,0,,,73,0
71865,note_on,,,,,0,0,1,,,,,0,,,66,0
71880,note_on,,,,,15,0,2,,,,,0,,,54,49
71880,note_on,,,,,0,0,1,,,,,0,,,73,52
71880,note_on,,,,,0,0,1,,,,,0,,,66,52
71880,note_on,,,,,15,0,1,,,,,0,,,64,52
71880,note_on,,,,,0,0,2,,,,,0,,,58,49
71925,note_on,,,,,0,0,1,,,,,0,,,64,0
71925,note_on,,,,,0,0,1,,,,,0,,,66,0
71925,note_on,,,,,45,0,1,,,,,0,,,73,0
71925,note_on,,,,,45,0,2,,,,,0,,,58,0
71925,note_on,,,,,0,0,2,,,,,0,,,54,0
71940,note_on,,,,,15,0,1,,,,,0,,,64,53
71940,note_on,,,,,15,0,2,,,,,0,,,54,53
71940,note_on,,,,,0,0,1,,,,,0,,,66,53
71940,note_on,,,,,0,0,2,,,,,0,,,58,53
71940,note_on,,,,,0,0,1,,,,,0,,,73,53
71982,set_tempo,,,,,180,1,0,,369458,,,,,,,
71985,note_on,,,,,45,0,1,,,,,0,,,73,0
71985,note_on,,,,,0,0,1,,,,,0,,,66,0
71985,note_on,,,,,0,0,1,,,,,0,,,64,0
71985,note_on,,,,,0,0,1,,,,,0,,,67,54
71985,note_on,,,,,0,0,2,,,,,0,,,55,54
71985,note_on,,,,,0,0,2,,,,,0,,,54,0
71985,note_on,,,,,45,0,2,,,,,0,,,58,0
71992,set_tempo,,,,,10,1,0,,746268,,,,,,,
71995,control_change,,,,,10,0,1,,,,,0,64,0,,
72000,note_on,,,,,0,0,2,,,,,0,,,54,55
72000,note_on,,,,,0,0,2,,,,,0,,,49,55
72000,note_on,,,,,15,0,2,,,,,0,,,55,0
72000,note_on,,,,,0,0,1,,,,,0,,,58,56
72000,control_change,,,,,0,0,1,,,,,0,64,95,,
72000,note_on,,,,,0,0,1,,,,,0,,,66,56
72000,note_on,,,,,5,0,1,,,,,0,,,67,0
72000,note_on,,,,,0,0,1,,,,,0,,,64,56
72002,set_tempo,,,,,10,1,0,,346020,,,,,,,
72007,set_tempo,,,,,5,1,0,,357355,,,,,,,
72182,set_tempo,,,,,175,1,0,,367197,,,,,,,
72242,set_tempo,,,,,60,1,0,,366076,,,,,,,
72262,set_tempo,,,,,20,1,0,,364963,,,,,,,
72330,note_on,,,,,0,0,1,,,,,0,,,58,0
72330,note_on,,,,,0,0,2,,,,,0,,,49,0
72330,note_on,,,,,330,0,2,,,,,0,,,54,0
72330,note_on,,,,,330,0,1,,,,,0,,,66,0
72330,note_on,,,,,0,0,1,,,,,0,,,64,0
72342,set_tempo,,,,,80,1,0,,603621,,,,,,,
72355,control_change,,,,,25,0,1,,,,,0,64,0,,
72360,note_on,,,,,0,0,2,,,,,0,,,54,127
72360,note_on,,,,,0,0,2,,,,,0,,,50,127
72360,control_change,,,,,0,0,1,,,,,0,64,96,,
72360,note_on,,,,,0,0,1,,,,,0,,,71,127
72360,note_on,,,,,0,0,1,,,,,0,,,66,127
72360,note_on,,,,,0,0,1,,,,,0,,,62,127
72360,note_on,,,,,5,0,1,,,,,0,,,59,127
72360,note_on,,,,,30,0,2,,,,,0,,,47,127
72362,set_tempo,,,,,20,1,0,,362756,,,,,,,
72372,set_tempo,,,,,10,1,0,,361663,,,,,,,
72432,set_tempo,,,,,60,1,0,,359496,,,,,,,
72442,set_tempo,,,,,10,1,0,,358422,,,,,,,
72450,control_change,,,,,90,0,1,,,,,0,64,0,,
72480,note_on,,,,,120,0,2,,,,,0,,,54,0
72480,note_on,,,,,0,0,2,,,,,0,,,50,0
72480,note_on,,,,,0,0,2,,,,,0,,,47,0
72480,note_on,,,,,0,0,2,,,,,0,,,47,99
72480,note_on,,,,,0,0,2,,,,,0,,,50,99
72480,note_on,,,,,0,0,2,,,,,0,,,54,99
72480,note_on,,,,,30,0,1,,,,,0,,,71,0
72480,note_on,,,,,0,0,1,,,,,0,,,59,0
72480,note_on,,,,,0,0,1,,,,,0,,,62,0
72480,note_on,,,,,0,0,1,,,,,0,,,66,0
72480,note_on,,,,,0,0,1,,,,,0,,,58,100
72480,note_on,,,,,0,0,1,,,,,0,,,70,100
72482,set_tempo,,,,,40,1,0,,357355,,,,,,,
72502,set_tempo,,,,,20,1,0,,356294,,,,,,,
72525,note_on,,,,,45,0,2,,,,,0,,,54,0
72525,note_on,,,,,0,0,2,,,,,0,,,50,0
72525,note_on,,,,,0,0,2,,,,,0,,,47,0
72525,note_on,,,,,45,0,1,,,,,0,,,70,0
72525,note_on,,,,,0,0,1,,,,,0,,,58,0
72532,set_tempo,,,,,30,1,0,,354191,,,,,,,
72540,note_on,,,,,0,0,2,,,,,0,,,54,95
72540,note_on,,,,,0,0,2,,,,,0,,,50,95
72540,note_on,,,,,15,0,2,,,,,0,,,47,95
72540,note_on,,,,,15,0,1,,,,,0,,,59,95
72540,note_on,,,,,0,0,1,,,,,0,,,71,95
72585,note_on,,,,,45,0,1,,,,,0,,,71,0
72585,note_on,,,,,0,0,1,,,,,0,,,59,0
72585,note_on,,,,,0,0,2,,,,,0,,,50,0
72585,note_on,,,,,45,0,2,,,,,0,,,54,0
72585,note_on,,,,,0,0,2,,,,,0,,,47,0
72592,set_tempo,,,,,60,1,0,,353148,,,,,,,
72600,note_on,,,,,15,0,2,,,,,0,,,47,104
72600,note_on,,,,,0,0,2,,,,,0,,,50,104
72600,note_on,,,,,0,0,2,,,,,0,,,54,104
72600,note_on,,,,,15,0,1,,,,,0,,,59,104
72600,note_on,,,,,0,0,1,,,,,0,,,71,104
72645,note_on,,,,,45,0,2,,,,,0,,,54,0
72645,note_on,,,,,0,0,2,,,,,0,,,50,0
72645,note_on,,,,,0,0,2,,,,,0,,,47,0
72645,note_on,,,,,45,0,1,,,,,0,,,71,0
72645,note_on,,,,,0,0,1,,,,,0,,,59,0
72652,set_tempo,,,,,60,1,0,,351082,,,,,,,
72660,note_on,,,,,15,0,2,,,,,0,,,47,117
72660,note_on,,,,,0,0,2,,,,,0,,,50,117
72660,note_on,,,,,0,0,2,,,,,0,,,54,117
72660,note_on,,,,,15,0,1,,,,,0,,,61,117
72660,note_on,,,,,0,0,1,,,,,0,,,73,117
72662,set_tempo,,,,,10,1,0,,350058,,,,,,,
72672,set_tempo,,,,,10,1,0,,349040,,,,,,,
72692,set_tempo,,,,,20,1,0,,348027,,,,,,,
72705,note_on,,,,,45,0,1,,,,,0,,,73,0
72705,note_on,,,,,0,0,1,,,,,0,,,61,0
72705,note_on,,,,,0,0,2,,,,,0,,,50,0
72705,note_on,,,,,0,0,2,,,,,0,,,47,0
72705,note_on,,,,,45,0,2,,,,,0,,,54,0
72715,control_change,,,,,10,0,1,,,,,0,64,0,,
72720,note_on,,,,,15,0,2,,,,,0,,,43,127
72720,note_on,,,,,0,0,2,,,,,0,,,47,127
72720,note_on,,,,,0,0,2,,,,,0,,,50,127
72720,note_on,,,,,0,0,2,,,,,0,,,55,127
72720,control_change,,,,,0,0,1,,,,,0,64,96,,
72720,note_on,,,,,0,0,1,,,,,0,,,74,127
72720,note_on,,,,,5,0,1,,,,,0,,,62,127
72742,set_tempo,,,,,50,1,0,,355239,,,,,,,
72752,set_tempo,,,,,10,1,0,,360576,,,,,,,
72762,set_tempo,,,,,10,1,0,,361663,,,,,,,
72782,set_tempo,,,,,20,1,0,,363856,,,,,,,
72792,set_tempo,,,,,10,1,0,,367197,,,,,,,
72810,note_on,,,,,0,0,2,,,,,0,,,50,0
72810,note_on,,,,,0,0,2,,,,,0,,,47,0
72810,note_on,,,,,0,0,2,,,,,0,,,43,0
72810,note_on,,,,,90,0,2,,,,,0,,,55,0
72810,note_on,,,,,0,0,1,,,,,0,,,62,0
72810,note_on,,,,,90,0,1,,,,,0,,,74,0
72822,set_tempo,,,,,30,1,0,,370599,,,,,,,
72832,set_tempo,,,,,10,1,0,,371747,,,,,,,
72840,note_on,,,,,0,0,2,,,,,0,,,47,118
72840,note_on,,,,,0,0,2,,,,,0,,,50,118
72840,note_on,,,,,0,0,2,,,,,0,,,55,118
72840,note_on,,,,,30,0,2,,,,,0,,,43,118
72840,note_on,,,,,30,0,1,,,,,0,,,62,115
72840,note_on,,,,,0,0,1,,,,,0,,,74,115
72842,set_tempo,,,,,10,1,0,,372902,,,,,,,
72852,set_tempo,,,,,10,1,0,,375234,,,,,,,
72862,set_tempo,,,,,10,1,0,,376411,,,,,,,
72872,set_tempo,,,,,10,1,0,,379987,,,,,,,
72892,set_tempo,,,,,20,1,0,,381194,,,,,,,
72902,set_tempo,,,,,10,1,0,,384862,,,,,,,
72922,set_tempo,,,,,20,1,0,,387346,,,,,,,
72930,note_on,,,,,0,0,2,,,,,0,,,47,0
72930,note_on,,,,,0,0,2,,,,,0,,,43,0
72930,note_on,,,,,90,0,2,,,,,0,,,55,0
72930,note_on,,,,,90,0,1,,,,,0,,,74,0
72930,note_on,,,,,0,0,2,,,,,0,,,50,0
72930,note_on,,,,,0,0,1,,,,,0,,,62,0
72942,set_tempo,,,,,20,1,0,,394996,,,,,,,
72952,set_tempo,,,,,10,1,0,,397614,,,,,,,
72960,note_on,,,,,30,0,2,,,,,0,,,43,99
72960,note_on,,,,,0,0,2,,,,,0,,,55,99
72960,note_on,,,,,0,0,2,,,,,0,,,50,99
72960,note_on,,,,,0,0,2,,,,,0,,,47,99
72960,note_on,,,,,30,0,1,,,,,0,,,62,100
72960,note_on,,,,,0,0,1,,,,,0,,,74,100
72962,set_tempo,,,,,10,1,0,,398936,,,,,,,
72972,set_tempo,,,,,10,1,0,,401606,,,,,,,
72982,set_tempo,,,,,10,1,0,,407055,,,,,,,
72992,set_tempo,,,,,10,1,0,,414078,,,,,,,
73002,set_tempo,,,,,10,1,0,,415512,,,,,,,
73012,set_tempo,,,,,10,1,0,,421348,,,,,,,
73022,set_tempo,,,,,10,1,0,,430107,,,,,,,
73042,set_tempo,,,,,20,1,0,,439560,,,,,,,
73050,note_on,,,,,90,0,1,,,,,0,,,74,0
73050,note_on,,,,,0,0,2,,,,,0,,,50,0
73050,note_on,,,,,0,0,1,,,,,0,,,62,0
73050,note_on,,,,,0,0,2,,,,,0,,,43,0
73050,note_on,,,,,90,0,2,,,,,0,,,55,0
73050,note_on,,,,,0,0,2,,,,,0,,,47,0
73062,set_tempo,,,,,20,1,0,,442804,,,,,,,
73075,control_change,,,,,25,0,1,,,,,0,64,0,,
73080,control_change,,,,,0,0,1,,,,,0,64,94,,
73080,note_on,,,,,0,0,1,,,,,0,,,76,108
73080,note_on,,,,,0,0,1,,,,,0,,,67,108
73080,note_on,,,,,30,0,2,,,,,0,,,40,108
73080,note_on,,,,,0,0,2,,,,,0,,,46,108
73080,note_on,,,,,0,0,2,,,,,0,,,49,108
73080,note_on,,,,,0,0,2,,,,,0,,,52,108
73080,note_on,,,,,0,0,1,,,,,0,,,70,108
73080,note_on,,,,,5,0,1,,,,,0,,,64,108
73092,set_tempo,,,,,30,1,0,,459770,,,,,,,
73112,set_tempo,,,,,20,1,0,,470588,,,,,,,
73122,set_tempo,,,,,10,1,0,,487804,,,,,,,
73152,set_tempo,,,,,30,1,0,,504201,,,,,,,
73170,note_on,,,,,0,0,1,,,,,0,,,70,0
73170,note_on,,,,,0,0,2,,,,,0,,,46,0
73170,note_on,,,,,0,0,2,,,,,0,,,40,0
73170,note_on,,,,,90,0,2,,,,,0,,,52,0
73170,note_on,,,,,90,0,1,,,,,0,,,76,0
73170,note_on,,,,,0,0,1,,,,,0,,,64,0
73170,note_on,,,,,0,0,1,,,,,0,,,67,0
73170,note_on,,,,,0,0,2,,,,,0,,,49,0
73172,set_tempo,,,,,20,1,0,,521739,,,,,,,
73182,set_tempo,,,,,10,1,0,,526315,,,,,,,
73200,note_on,,,,,0,0,1,,,,,0,,,67,112
73200,note_on,,,,,30,0,1,,,,,0,,,64,112
73200,note_on,,,,,0,0,1,,,,,0,,,76,112
73200,note_on,,,,,0,0,2,,,,,0,,,46,115
73200,note_on,,,,,0,0,2,,,,,0,,,49,115
73200,note_on,,,,,0,0,2,,,,,0,,,52,115
73200,note_on,,,,,30,0,2,,,,,0,,,40,115
73200,note_on,,,,,0,0,1,,,,,0,,,70,112
73202,set_tempo,,,,,20,1,0,,530973,,,,,,,
73212,set_tempo,,,,,10,1,0,,535714,,,,,,,
73222,set_tempo,,,,,10,1,0,,540540,,,,,,,
73232,set_tempo,,,,,10,1,0,,545454,,,,,,,
73242,set_tempo,,,,,10,1,0,,550458,,,,,,,
73262,set_tempo,,,,,20,1,0,,552995,,,,,,,
73282,set_tempo,,,,,20,1,0,,558139,,,,,,,
73290,note_on,,,,,0,0,2,,,,,0,,,49,0
73290,note_on,,,,,0,0,2,,,,,0,,,46,0
73290,note_on,,,,,0,0,2,,,,,0,,,40,0
73290,note_on,,,,,90,0,2,,,,,0,,,52,0
73290,note_on,,,,,90,0,1,,,,,0,,,76,0
73290,note_on,,,,,0,0,1,,,,,0,,,64,0
73290,note_on,,,,,0,0,1,,,,,0,,,67,0
73290,note_on,,,,,0,0,1,,,,,0,,,70,0
73312,set_tempo,,,,,30,1,0,,560747,,,,,,,
73320,note_on,,,,,30,0,2,,,,,0,,,45,122
73320,note_on,,,,,30,0,1,,,,,0,,,69,119
73320,note_on,,,,,0,0,1,,,,,0,,,64,119
73320,note_on,,,,,0,0,1,,,,,0,,,67,119
73320,note_on,,,,,0,0,1,,,,,0,,,76,119
73320,note_on,,,,,0,0,2,,,,,0,,,52,122
73320,note_on,,,,,0,0,2,,,,,0,,,49,122
73320,note_on,,,,,0,0,2,,,,,0,,,40,122
73342,set_tempo,,,,,30,1,0,,563380,,,,,,,
73352,set_tempo,,,,,10,1,0,,566037,,,,,,,
73362,set_tempo,,,,,10,1,0,,560747,,,,,,,
73392,set_tempo,,,,,30,1,0,,1000000,,,,,,,
73410,note_on,,,,,0,0,1,,,,,0,,,67,0
73410,note_on,,,,,0,0,1,,,,,0,,,64,0
73410,note_on,,,,,0,0,2,,,,,0,,,49,0
73410,note_on,,,,,90,0,2,,,,,0,,,52,0
73410,note_on,,,,,0,0,1,,,,,0,,,69,0
73410,note_on,,,,,90,0,1,,,,,0,,,76,0
73410,note_on,,,,,0,0,2,,,,,0,,,45,0
73410,note_on,,,,,0,0,2,,,,,0,,,40,0
73435,control_change,,,,,25,0,1,,,,,0,64,0,,
73440,note_on,,,,,5,0,1,,,,,0,,,66,127
73440,note_on,,,,,0,0,1,,,,,0,,,78,127
73440,note_on,,,,,0,0,1,,,,,0,,,69,127
73440,control_change,,,,,0,0,1,,,,,0,64,94,,
73440,note_on,,,,,30,0,2,,,,,0,,,38,127
73440,note_on,,,,,0,0,2,,,,,0,,,50,127
73440,note_on,,,,,0,0,2,,,,,0,,,45,127
73442,set_tempo,,,,,50,1,0,,435097,,,,,,,
73450,set_tempo,,,,,8,1,0,,600000,,,,,,,
73510,set_tempo,,,,,60,1,0,,606060,,,,,,,
73540,set_tempo,,,,,30,1,0,,612244,,,,,,,
73742,set_tempo,,,,,202,1,0,,431965,,,,,,,
73752,set_tempo,,,,,10,1,0,,430416,,,,,,,
73762,set_tempo,,,,,10,1,0,,428877,,,,,,,
73770,note_on,,,,,0,0,1,,,,,0,,,78,0
73770,note_on,,,,,0,0,1,,,,,0,,,66,0
73770,control_change,,,,,0,0,1,,,,,0,64,0,,
73770,note_on,,,,,0,0,2,,,,,0,,,38,0
73770,note_on,,,,,0,0,2,,,,,0,,,50,0
73770,note_on,,,,,330,0,2,,,,,0,,,45,0
73770,note_on,,,,,330,0,1,,,,,0,,,69,0
73782,set_tempo,,,,,20,1,0,,425833,,,,,,,
73792,set_tempo,,,,,10,1,0,,419874,,,,,,,
73800,note_on,,,,,0,0,1,,,,,0,,,78,64
73800,note_on,,,,,30,0,1,,,,,0,,,90,64
73800,note_on,,,,,30,0,2,,,,,0,,,51,77
73802,set_tempo,,,,,10,1,0,,370599,,,,,,,
73890,note_on,,,,,90,0,1,,,,,0,,,78,0
73890,note_on,,,,,0,0,1,,,,,0,,,90,0
73892,set_tempo,,,,,90,1,0,,372902,,,,,,,
73920,note_on,,,,,0,0,1,,,,,0,,,78,74
73920,note_on,,,,,30,0,1,,,,,0,,,90,74
73920,note_on,,,,,120,0,2,,,,,0,,,59,62
73992,set_tempo,,,,,100,1,0,,408441,,,,,,,
74010,note_on,,,,,90,0,1,,,,,0,,,78,0
74010,note_on,,,,,0,0,1,,,,,0,,,90,0
74040,note_on,,,,,0,0,2,,,,,0,,,66,70
74040,note_on,,,,,30,0,1,,,,,0,,,81,82
74040,note_on,,,,,0,0,1,,,,,0,,,93,82
74040,control_change,,,,,0,0,1,,,,,0,64,95,,
74040,note_on,,,,,120,0,2,,,,,0,,,59,0
74042,set_tempo,,,,,50,1,0,,354191,,,,,,,
74047,set_tempo,,,,,5,1,0,,353148,,,,,,,
74052,set_tempo,,,,,5,1,0,,374064,,,,,,,
74072,set_tempo,,,,,20,1,0,,372902,,,,,,,
74077,set_tempo,,,,,5,1,0,,371747,,,,,,,
74082,set_tempo,,,,,5,1,0,,370599,,,,,,,
74092,set_tempo,,,,,10,1,0,,372902,,,,,,,
74142,set_tempo,,,,,50,1,0,,370599,,,,,,,
74160,note_on,,,,,120,0,2,,,,,0,,,66,0
74160,note_on,,,,,0,0,2,,,,,0,,,51,0
74160,note_on,,,,,0,0,2,,,,,0,,,52,78
74182,set_tempo,,,,,40,1,0,,368324,,,,,,,
74192,set_tempo,,,,,10,1,0,,367197,,,,,,,
74252,set_tempo,,,,,60,1,0,,366076,,,,,,,
74262,set_tempo,,,,,10,1,0,,364963,,,,,,,
74280,note_on,,,,,120,0,2,,,,,0,,,59,64
74280,control_change,,,,,0,0,1,,,,,0,64,0,,
74280,note_on,,,,,0,0,1,,,,,0,,,91,85
74280,note_on,,,,,240,0,1,,,,,0,,,93,0
74280,note_on,,,,,0,0,1,,,,,0,,,81,0
74280,note_on,,,,,0,0,1,,,,,0,,,79,85
74282,set_tempo,,,,,20,1,0,,363856,,,,,,,
74312,set_tempo,,,,,30,1,0,,362756,,,,,,,
74332,set_tempo,,,,,20,1,0,,361663,,,,,,,
74340,note_on,,,,,60,0,1,,,,,0,,,91,0
74340,note_on,,,,,0,0,1,,,,,0,,,79,0
74340,note_on,,,,,0,0,1,,,,,0,,,78,80
74340,note_on,,,,,0,0,1,,,,,0,,,90,80
74382,set_tempo,,,,,50,1,0,,360576,,,,,,,
74385,note_on,,,,,45,0,1,,,,,0,,,90,0
74385,note_on,,,,,0,0,1,,,,,0,,,78,0
74400,note_on,,,,,15,0,1,,,,,0,,,78,72
74400,note_on,,,,,0,0,1,,,,,0,,,90,72
74400,note_on,,,,,120,0,2,,,,,0,,,59,0
74400,note_on,,,,,0,0,2,,,,,0,,,67,71
74402,set_tempo,,,,,20,1,0,,359496,,,,,,,
74412,set_tempo,,,,,10,1,0,,358422,,,,,,,
74445,note_on,,,,,45,0,1,,,,,0,,,90,0
74445,note_on,,,,,0,0,1,,,,,0,,,78,0
74452,set_tempo,,,,,40,1,0,,357355,,,,,,,
74460,note_on,,,,,0,0,1,,,,,0,,,88,61
74460,note_on,,,,,15,0,1,,,,,0,,,76,61
74472,set_tempo,,,,,20,1,0,,355239,,,,,,,
74492,set_tempo,,,,,20,1,0,,354191,,,,,,,
74502,set_tempo,,,,,10,1,0,,353148,,,,,,,
74505,note_on,,,,,0,0,1,,,,,0,,,76,0
74505,note_on,,,,,45,0,1,,,,,0,,,88,0
74520,note_on,,,,,15,0,1,,,,,0,,,74,82
74520,note_on,,,,,0,0,1,,,,,0,,,86,82
74520,control_change,,,,,0,0,1,,,,,0,64,95,,
74520,note_on,,,,,120,0,2,,,,,0,,,67,0
74520,note_on,,,,,0,0,2,,,,,0,,,54,79
74520,note_on,,,,,0,0,2,,,,,0,,,52,0
74562,set_tempo,,,,,60,1,0,,354191,,,,,,,
74572,set_tempo,,,,,10,1,0,,356294,,,,,,,
74582,set_tempo,,,,,10,1,0,,357355,,,,,,,
74592,set_tempo,,,,,10,1,0,,358422,,,,,,,
74602,set_tempo,,,,,10,1,0,,359496,,,,,,,
74612,set_tempo,,,,,10,1,0,,361663,,,,,,,
74632,set_tempo,,,,,20,1,0,,362756,,,,,,,
74640,note_on,,,,,0,0,1,,,,,0,,,86,74
74640,note_on,,,,,0,0,1,,,,,0,,,74,74
74640,note_on,,,,,120,0,2,,,,,0,,,66,64
74640,note_on,,,,,0,0,1,,,,,0,,,74,0
74640,note_on,,,,,120,0,1,,,,,0,,,86,0
74652,set_tempo,,,,,20,1,0,,363856,,,,,,,
74662,set_tempo,,,,,10,1,0,,364963,,,,,,,
74682,set_tempo,,,,,20,1,0,,367197,,,,,,,
74685,note_on,,,,,0,0,1,,,,,0,,,74,0
74685,note_on,,,,,45,0,1,,,,,0,,,86,0
74692,set_tempo,,,,,10,1,0,,368324,,,,,,,
74695,control_change,,,,,10,0,1,,,,,0,64,0,,
74700,note_on,,,,,5,0,1,,,,,0,,,76,64
74700,note_on,,,,,0,0,1,,,,,0,,,88,64
74745,note_on,,,,,0,0,1,,,,,0,,,76,0
74745,note_on,,,,,45,0,1,,,,,0,,,88,0
74752,set_tempo,,,,,60,1,0,,370599,,,,,,,
74760,note_on,,,,,15,0,1,,,,,0,,,73,58
74760,note_on,,,,,0,0,1,,,,,0,,,85,58
74760,note_on,,,,,0,0,2,,,,,0,,,54,0
74760,note_on,,,,,0,0,2,,,,,0,,,64,57
74760,note_on,,,,,0,0,2,,,,,0,,,58,57
74760,note_on,,,,,0,0,2,,,,,0,,,54,57
74760,note_on,,,,,120,0,2,,,,,0,,,66,0
74762,set_tempo,,,,,10,1,0,,372902,,,,,,,
74802,set_tempo,,,,,40,1,0,,374064,,,,,,,
74880,control_change,,,,,0,0,1,,,,,0,64,95,,
74880,note_on,,,,,0,0,1,,,,,0,,,83,55
74880,note_on,,,,,0,0,1,,,,,0,,,71,55
74880,note_on,,,,,0,0,1,,,,,0,,,73,0
74880,note_on,,,,,120,0,1,,,,,0,,,85,0
74880,note_on,,,,,0,0,2,,,,,0,,,58,0
74880,note_on,,,,,120,0,2,,,,,0,,,64,0
74880,note_on,,,,,0,0,2,,,,,0,,,59,50
74880,note_on,,,,,0,0,2,,,,,0,,,54,0
74882,set_tempo,,,,,80,1,0,,376411,,,,,,,
74892,set_tempo,,,,,10,1,0,,377595,,,,,,,
74952,set_tempo,,,,,60,1,0,,379987,,,,,,,
74997,set_tempo,,,,,45,1,0,,351082,,,,,,,
75000,note_on,,,,,120,0,2,,,,,0,,,62,44
75090,note_on,,,,,210,0,1,,,,,0,,,83,0
75090,note_on,,,,,90,0,2,,,,,0,,,62,0
75090,note_on,,,,,0,0,1,,,,,0,,,71,0
75090,note_on,,,,,0,0,2,,,,,0,,,59,0
75120,control_change,,,,,0,0,1,,,,,0,64,0,,
75120,note_on,,,,,0,0,1,,,,,0,,,66,65
75120,note_on,,,,,30,0,1,,,,,0,,,74,65
75222,set_tempo,,,,,225,1,0,,355029,,,,,,,
75232,set_tempo,,,,,10,1,0,,357142,,,,,,,
75240,note_on,,,,,120,0,1,,,,,0,,,82,59
75240,control_change,,,,,0,0,1,,,,,0,64,96,,
75240,note_on,,,,,150,0,2,,,,,0,,,54,58
75262,set_tempo,,,,,30,1,0,,359281,,,,,,,
75292,set_tempo,,,,,30,1,0,,361445,,,,,,,
75312,set_tempo,,,,,20,1,0,,363636,,,,,,,
75322,set_tempo,,,,,10,1,0,,365853,,,,,,,
75360,note_on,,,,,0,0,1,,,,,0,,,66,43
75360,note_on,,,,,120,0,1,,,,,0,,,66,0
75360,note_on,,,,,0,0,1,,,,,0,,,74,0
75360,note_on,,,,,0,0,1,,,,,0,,,74,43
75360,control_change,,,,,0,0,1,,,,,0,64,0,,
75362,set_tempo,,,,,40,1,0,,368098,,,,,,,
75372,set_tempo,,,,,10,1,0,,370370,,,,,,,
75402,set_tempo,,,,,30,1,0,,375000,,,,,,,
75405,note_on,,,,,45,0,1,,,,,0,,,66,0
75405,note_on,,,,,0,0,1,,,,,0,,,74,0
75420,note_on,,,,,15,0,1,,,,,0,,,76,49
75420,note_on,,,,,0,0,1,,,,,0,,,67,49
75462,set_tempo,,,,,60,1,0,,377358,,,,,,,
75465,note_on,,,,,45,0,1,,,,,0,,,67,0
75465,note_on,,,,,0,0,1,,,,,0,,,76,0
75480,note_on,,,,,0,0,1,,,,,0,,,73,53
75480,note_on,,,,,15,0,1,,,,,0,,,64,53
75482,set_tempo,,,,,20,1,0,,382165,,,,,,,
75542,set_tempo,,,,,60,1,0,,384615,,,,,,,
75600,note_on,,,,,120,0,1,,,,,0,,,73,0
75600,note_on,,,,,0,0,1,,,,,0,,,64,0
75600,note_on,,,,,0,0,1,,,,,0,,,82,0
75600,note_on,,,,,0,0,1,,,,,0,,,83,46
75600,note_on,,,,,0,0,1,,,,,0,,,71,46
75600,note_on,,,,,0,0,1,,,,,0,,,62,46
75600,control_change,,,,,0,0,1,,,,,0,64,95,,
75600,note_on,,,,,0,0,2,,,,,0,,,59,58
75600,note_on,,,,,360,0,2,,,,,0,,,54,0
75622,set_tempo,,,,,80,1,0,,400000,,,,,,,
75690,note_on,,,,,90,0,2,,,,,0,,,59,0
75690,note_on,,,,,90,0,1,,,,,0,,,62,0
75690,note_on,,,,,0,0,1,,,,,0,,,71,0
75702,set_tempo,,,,,80,1,0,,402684,,,,,,,
75712,set_tempo,,,,,10,1,0,,405405,,,,,,,
75720,note_on,,,,,30,0,1,,,,,0,,,71,45
75742,set_tempo,,,,,30,1,0,,408163,,,,,,,
75790,control_change,,,,,70,0,1,,,,,0,64,0,,
75802,set_tempo,,,,,60,1,0,,410958,,,,,,,
75810,note_on,,,,,20,0,1,,,,,0,,,83,0
75840,note_on,,,,,0,0,1,,,,,0,,,74,41
75840,note_on,,,,,0,0,1,,,,,0,,,90,65
75840,note_on,,,,,0,0,1,,,,,0,,,78,65
75840,note_on,,,,,30,0,1,,,,,0,,,71,0
75882,set_tempo,,,,,80,1,0,,413793,,,,,,,
75892,set_tempo,,,,,10,1,0,,419580,,,,,,,
75930,note_on,,,,,90,0,1,,,,,0,,,74,0
75960,control_change,,,,,30,0,1,,,,,0,64,96,,
75960,note_on,,,,,270,0,2,,,,,0,,,66,58
75972,set_tempo,,,,,80,1,0,,422535,,,,,,,
75982,set_tempo,,,,,10,1,0,,425531,,,,,,,
76062,set_tempo,,,,,80,1,0,,431654,,,,,,,
76080,note_on,,,,,0,0,1,,,,,0,,,90,46
76080,note_on,,,,,0,0,1,,,,,0,,,78,46
76080,note_on,,,,,0,0,1,,,,,0,,,70,45
76080,note_on,,,,,0,0,1,,,,,0,,,78,0
76080,note_on,,,,,120,0,1,,,,,0,,,90,0
76122,set_tempo,,,,,60,1,0,,437956,,,,,,,
76125,note_on,,,,,45,0,1,,,,,0,,,90,0
76125,note_on,,,,,0,0,1,,,,,0,,,78,0
76140,note_on,,,,,15,0,1,,,,,0,,,79,47
76140,note_on,,,,,0,0,1,,,,,0,,,91,47
76145,control_change,,,,,5,0,1,,,,,0,64,0,,
76185,note_on,,,,,40,0,1,,,,,0,,,91,0
76185,note_on,,,,,0,0,1,,,,,0,,,79,0
76200,note_on,,,,,0,0,1,,,,,0,,,88,55
76200,note_on,,,,,0,0,1,,,,,0,,,76,55
76200,note_on,,,,,0,0,1,,,,,0,,,73,41
76200,note_on,,,,,15,0,1,,,,,0,,,70,0
76202,set_tempo,,,,,80,1,0,,444444,,,,,,,
76262,set_tempo,,,,,60,1,0,,451127,,,,,,,
76320,control_change,,,,,0,0,1,,,,,0,64,96,,
76320,note_on,,,,,0,0,1,,,,,0,,,86,46
76320,note_on,,,,,0,0,1,,,,,0,,,74,46
76320,note_on,,,,,0,0,1,,,,,0,,,71,45
76320,note_on,,,,,0,0,1,,,,,0,,,76,0
76320,note_on,,,,,120,0,1,,,,,0,,,88,0
76320,note_on,,,,,360,0,2,,,,,0,,,66,0
76320,note_on,,,,,0,0,2,,,,,0,,,59,44
76320,note_on,,,,,0,0,1,,,,,0,,,73,0
76342,set_tempo,,,,,80,1,0,,458015,,,,,,,
76402,set_tempo,,,,,60,1,0,,465116,,,,,,,
76440,note_on,,,,,120,0,2,,,,,0,,,62,35
76440,note_on,,,,,120,0,1,,,,,0,,,71,0
76500,control_change,,,,,60,0,1,,,,,0,64,0,,
76502,set_tempo,,,,,100,1,0,,472440,,,,,,,
76530,note_on,,,,,30,0,1,,,,,0,,,86,0
76530,note_on,,,,,0,0,2,,,,,0,,,59,0
76530,note_on,,,,,90,0,2,,,,,0,,,62,0
76530,note_on,,,,,0,0,1,,,,,0,,,74,0
76560,note_on,,,,,0,0,1,,,,,0,,,66,53
76560,note_on,,,,,30,0,1,,,,,0,,,74,53
76562,set_tempo,,,,,60,1,0,,480000,,,,,,,
76582,set_tempo,,,,,20,1,0,,483870,,,,,,,
76642,set_tempo,,,,,60,1,0,,491803,,,,,,,
76680,note_on,,,,,120,0,1,,,,,0,,,82,45
76680,control_change,,,,,0,0,1,,,,,0,64,96,,
76680,note_on,,,,,150,0,2,,,,,0,,,54,44
76702,set_tempo,,,,,60,1,0,,495867,,,,,,,
76722,set_tempo,,,,,20,1,0,,504201,,,,,,,
76782,set_tempo,,,,,60,1,0,,512820,,,,,,,
76800,note_on,,,,,0,0,1,,,,,0,,,74,33
76800,note_on,,,,,120,0,1,,,,,0,,,66,0
76800,note_on,,,,,0,0,1,,,,,0,,,74,0
76800,note_on,,,,,0,0,1,,,,,0,,,66,33
76800,control_change,,,,,0,0,1,,,,,0,64,0,,
76812,set_tempo,,,,,30,1,0,,517241,,,,,,,
76822,set_tempo,,,,,10,1,0,,521739,,,,,,,
76842,set_tempo,,,,,20,1,0,,526315,,,,,,,
76845,note_on,,,,,0,0,1,,,,,0,,,74,0
76845,note_on,,,,,45,0,1,,,,,0,,,66,0
76852,set_tempo,,,,,10,1,0,,530973,,,,,,,
76860,note_on,,,,,15,0,1,,,,,0,,,76,36
76860,note_on,,,,,0,0,1,,,,,0,,,67,36
76872,set_tempo,,,,,20,1,0,,571428,,,,,,,
76905,note_on,,,,,45,0,1,,,,,0,,,67,0
76905,note_on,,,,,0,0,1,,,,,0,,,76,0
76920,note_on,,,,,0,0,1,,,,,0,,,73,39
76920,note_on,,,,,15,0,1,,,,,0,,,64,39
76952,set_tempo,,,,,80,1,0,,594059,,,,,,,
76972,set_tempo,,,,,20,1,0,,612244,,,,,,,
76992,set_tempo,,,,,20,1,0,,618556,,,,,,,
77040,note_on,,,,,0,0,1,,,,,0,,,83,35
77040,note_on,,,,,0,0,1,,,,,0,,,71,35
77040,note_on,,,,,0,0,1,,,,,0,,,62,35
77040,note_on,,,,,0,0,1,,,,,0,,,82,0
77040,note_on,,,,,0,0,1,,,,,0,,,64,0
77040,note_on,,,,,120,0,1,,,,,0,,,73,0
77040,control_change,,,,,0,0,1,,,,,0,64,95,,
77040,note_on,,,,,360,0,2,,,,,0,,,54,0
77040,note_on,,,,,0,0,2,,,,,0,,,59,39
77072,set_tempo,,,,,80,1,0,,645161,,,,,,,
77132,set_tempo,,,,,60,1,0,,681818,,,,,,,
77152,set_tempo,,,,,20,1,0,,689655,,,,,,,
77172,set_tempo,,,,,20,1,0,,693641,,,,,,,
77182,set_tempo,,,,,10,1,0,,701754,,,,,,,
77242,set_tempo,,,,,60,1,0,,727272,,,,,,,
77250,note_on,,,,,210,0,2,,,,,0,,,59,0
77250,end_of_track,,,,,0,1,1,,,,,,,,,
77250,control_change,,,,,0,0,1,,,,,0,64,0,,
77250,note_on,,,,,0,0,1,,,,,0,,,62,0
77250,note_on,,,,,0,0,1,,,,,0,,,71,0
77250,note_on,,,,,210,0,1,,,,,0,,,83,0
77250,end_of_track,,,,,0,1,2,,,,,,,,,
77262,set_tempo,,,,,20,1,0,,736196,,,,,,,
77282,set_tempo,,,,,20,1,0,,740740,,,,,,,
77292,set_tempo,,,,,10,1,0,,750000,,,,,,,
77302,set_tempo,,,,,10,1,0,,754716,,,,,,,
77332,set_tempo,,,,,30,1,0,,759493,,,,,,,
77392,set_tempo,,,,,60,1,0,,769230,,,,,,,
77392,end_of_track,,,,,0,1,0,,,,,,,,,
