tick,type,time,meta,track,frame_rate,hours,minutes,seconds,frames,sub_frames,numerator,denominator,clocks_per_click,notated_32nd_notes_per_beat,key,tempo,port,program,channel,control,value,note,velocity
0,track_name,0,1,0,,,,,,,,,,,,,,,,,,,
0,program_change,0,0,1,,,,,,,,,,,,,,1,0,,,,
0,control_change,0,0,1,,,,,,,,,,,,,,,0,7,100,,
0,control_change,0,0,1,,,,,,,,,,,,,,,0,91,127,,
0,text,0,1,1,,,,,,,,,,,,,,,,,,,
0,midi_port,0,1,10,,,,,,,,,,,,,0,,,,,,
0,midi_port,0,1,2,,,,,,,,,,,,,0,,,,,,
0,track_name,0,1,2,,,,,,,,,,,,,,,,,,,
0,program_change,0,0,2,,,,,,,,,,,,,,1,0,,,,
0,control_change,0,0,2,,,,,,,,,,,,,,,0,7,100,,
0,control_change,0,0,2,,,,,,,,,,,,,,,0,64,0,,
0,midi_port,0,1,3,,,,,,,,,,,,,0,,,,,,
0,track_name,0,1,3,,,,,,,,,,,,,,,,,,,
0,end_of_track,0,1,3,,,,,,,,,,,,,,,,,,,
0,midi_port,0,1,4,,,,,,,,,,,,,0,,,,,,
0,track_name,0,1,4,,,,,,,,,,,,,,,,,,,
0,end_of_track,0,1,4,,,,,,,,,,,,,,,,,,,
0,midi_port,0,1,5,,,,,,,,,,,,,0,,,,,,
0,track_name,0,1,5,,,,,,,,,,,,,,,,,,,
0,end_of_track,0,1,5,,,,,,,,,,,,,,,,,,,
0,midi_port,0,1,6,,,,,,,,,,,,,0,,,,,,
0,track_name,0,1,6,,,,,,,,,,,,,,,,,,,
0,end_of_track,0,1,6,,,,,,,,,,,,,,,,,,,
0,midi_port,0,1,7,,,,,,,,,,,,,0,,,,,,
0,track_name,0,1,7,,,,,,,,,,,,,,,,,,,
0,end_of_track,0,1,7,,,,,,,,,,,,,,,,,,,
0,midi_port,0,1,8,,,,,,,,,,,,,0,,,,,,
0,end_of_track,0,1,8,,,,,,,,,,,,,,,,,,,
0,midi_port,0,1,9,,,,,,,,,,,,,0,,,,,,
0,end_of_track,0,1,9,,,,,,,,,,,,,,,,,,,
0,track_name,0,1,1,,,,,,,,,,,,,,,,,,,
0,midi_port,0,1,1,,,,,,,,,,,,,0,,,,,,
0,end_of_track,0,1,10,,,,,,,,,,,,,,,,,,,
0,text,0,1,0,,,,,,,,,,,,,,,,,,,
0,copyright,0,1,0,,,,,,,,,,,,,,,,,,,
0,text,0,1,0,,,,,,,,,,,,,,,,,,,
0,text,0,1,0,,,,,,,,,,,,,,,,,,,
0,text,0,1,0,,,,,,,,,,,,,,,,,,,
0,text,0,1,0,,,,,,,,,,,,,,,,,,,
0,set_tempo,0,1,0,,,,,,,,,,,,284522,,,,,,,
0,key_signature,0,1,0,,,,,,,,,,,Bb,,,,,,,,
0,time_signature,0,1,0,,,,,,,4,4,24,8,,,,,,,,,
0,smpte_offset,0,1,0,25,32,0,3,0,0,,,,,,,,,,,,,
0,text,0,1,0,,,,,,,,,,,,,,,,,,,
1440,note_on,1440,0,2,,,,,,,,,,,,,,,0,,,50,33
1440,note_on,0,0,2,,,,,,,,,,,,,,,0,,,46,27
1440,note_on,1440,0,1,,,,,,,,,,,,,,,0,,,65,40
1440,note_on,0,0,1,,,,,,,,,,,,,,,0,,,70,48
1440,note_on,0,0,1,,,,,,,,,,,,,,,0,,,58,36
1440,set_tempo,1440,1,0,,,,,,,,,,,,765404,,,,,,,
1454,control_change,14,0,2,,,,,,,,,,,,,,,0,64,127,,
1680,note_on,0,0,2,,,,,,,,,,,,,,,0,,,53,28
1680,note_on,226,0,2,,,,,,,,,,,,,,,0,,,50,0
1920,note_on,0,0,1,,,,,,,,,,,,,,,0,,,70,50
1920,note_on,0,0,2,,,,,,,,,,,,,,,0,,,46,0
1920,note_on,0,0,2,,,,,,,,,,,,,,,0,,,46,28
1920,note_on,0,0,2,,,,,,,,,,,,,,,0,,,50,34
1920,control_change,0,0,2,,,,,,,,,,,,,,,0,64,0,,
1920,note_on,240,0,2,,,,,,,,,,,,,,,0,,,53,0
1920,note_on,0,0,1,,,,,,,,,,,,,,,0,,,65,0
1920,note_on,0,0,1,,,,,,,,,,,,,,,0,,,70,0
1920,note_on,480,0,1,,,,,,,,,,,,,,,0,,,58,0
1920,note_on,0,0,1,,,,,,,,,,,,,,,0,,,65,42
1920,note_on,0,0,1,,,,,,,,,,,,,,,0,,,58,37
1920,set_tempo,480,1,0,,,,,,,,,,,,743863,,,,,,,
2005,control_change,85,0,2,,,,,,,,,,,,,,,0,64,127,,
2160,note_on,0,0,2,,,,,,,,,,,,,,,0,,,53,28
2160,note_on,155,0,2,,,,,,,,,,,,,,,0,,,50,0
2200,set_tempo,280,1,0,,,,,,,,,,,,765404,,,,,,,
2400,control_change,0,0,2,,,,,,,,,,,,,,,0,64,0,,
2400,note_on,0,0,2,,,,,,,,,,,,,,,0,,,46,24
2400,note_on,0,0,2,,,,,,,,,,,,,,,0,,,48,31
2400,note_on,0,0,2,,,,,,,,,,,,,,,0,,,46,0
2400,note_on,240,0,2,,,,,,,,,,,,,,,0,,,53,0
2400,note_on,480,0,1,,,,,,,,,,,,,,,0,,,65,0
2400,set_tempo,200,1,0,,,,,,,,,,,,743863,,,,,,,
2400,note_on,0,0,1,,,,,,,,,,,,,,,0,,,58,0
2400,note_on,0,0,1,,,,,,,,,,,,,,,0,,,70,0
2400,note_on,0,0,1,,,,,,,,,,,,,,,0,,,65,40
2400,note_on,0,0,1,,,,,,,,,,,,,,,0,,,57,31
2400,note_on,0,0,1,,,,,,,,,,,,,,,0,,,69,48
2485,control_change,85,0,2,,,,,,,,,,,,,,,0,64,127,,
2640,set_tempo,240,1,0,,,,,,,,,,,,771010,,,,,,,
2640,note_on,0,0,2,,,,,,,,,,,,,,,0,,,53,27
2640,note_on,155,0,2,,,,,,,,,,,,,,,0,,,48,0
2800,set_tempo,160,1,0,,,,,,,,,,,,749157,,,,,,,
2880,note_on,0,0,2,,,,,,,,,,,,,,,0,,,46,0
2880,note_on,240,0,2,,,,,,,,,,,,,,,0,,,53,0
2880,note_on,0,0,1,,,,,,,,,,,,,,,0,,,58,37
2880,note_on,0,0,2,,,,,,,,,,,,,,,0,,,46,28
2880,note_on,480,0,1,,,,,,,,,,,,,,,0,,,65,0
2880,note_on,0,0,1,,,,,,,,,,,,,,,0,,,57,0
2880,note_on,0,0,1,,,,,,,,,,,,,,,0,,,69,0
2880,note_on,0,0,1,,,,,,,,,,,,,,,0,,,70,50
2880,note_on,0,0,1,,,,,,,,,,,,,,,0,,,65,42
2880,note_on,0,0,2,,,,,,,,,,,,,,,0,,,50,34
2922,control_change,42,0,2,,,,,,,,,,,,,,,0,64,0,,
3035,control_change,113,0,2,,,,,,,,,,,,,,,0,64,127,,
3120,set_tempo,320,1,0,,,,,,,,,,,,776699,,,,,,,
3120,note_on,0,0,2,,,,,,,,,,,,,,,0,,,53,27
3120,note_on,85,0,2,,,,,,,,,,,,,,,0,,,50,0
3360,set_tempo,240,1,0,,,,,,,,,,,,749157,,,,,,,
3360,note_on,0,0,1,,,,,,,,,,,,,,,0,,,65,40
3360,note_on,0,0,1,,,,,,,,,,,,,,,0,,,60,36
3360,note_on,0,0,1,,,,,,,,,,,,,,,0,,,72,48
3360,note_on,0,0,1,,,,,,,,,,,,,,,0,,,70,0
3360,note_on,0,0,1,,,,,,,,,,,,,,,0,,,58,0
3360,note_on,480,0,1,,,,,,,,,,,,,,,0,,,65,0
3360,note_on,0,0,2,,,,,,,,,,,,,,,0,,,51,33
3360,note_on,240,0,2,,,,,,,,,,,,,,,0,,,53,0
3360,note_on,0,0,2,,,,,,,,,,,,,,,0,,,46,0
3360,note_on,0,0,2,,,,,,,,,,,,,,,0,,,46,27
3388,control_change,28,0,2,,,,,,,,,,,,,,,0,64,0,,
3501,control_change,113,0,2,,,,,,,,,,,,,,,0,64,127,,
3600,note_on,99,0,2,,,,,,,,,,,,,,,0,,,51,0
3600,note_on,0,0,2,,,,,,,,,,,,,,,0,,,53,26
3600,set_tempo,240,1,0,,,,,,,,,,,,776699,,,,,,,
3840,note_on,0,0,2,,,,,,,,,,,,,,,0,,,46,28
3840,note_on,0,0,1,,,,,,,,,,,,,,,0,,,74,53
3840,note_on,0,0,1,,,,,,,,,,,,,,,0,,,65,45
3840,note_on,0,0,1,,,,,,,,,,,,,,,0,,,62,40
3840,note_on,0,0,1,,,,,,,,,,,,,,,0,,,72,0
3840,note_on,0,0,1,,,,,,,,,,,,,,,0,,,60,0
3840,note_on,480,0,1,,,,,,,,,,,,,,,0,,,65,0
3840,note_on,0,0,2,,,,,,,,,,,,,,,0,,,46,0
3840,set_tempo,240,1,0,,,,,,,,,,,,743863,,,,,,,
3840,note_on,0,0,2,,,,,,,,,,,,,,,0,,,52,34
3840,control_change,0,0,2,,,,,,,,,,,,,,,0,64,0,,
3840,note_on,240,0,2,,,,,,,,,,,,,,,0,,,53,0
3943,control_change,103,0,2,,,,,,,,,,,,,,,0,64,127,,
4059,control_change,116,0,2,,,,,,,,,,,,,,,0,64,0,,
4080,note_on,21,0,2,,,,,,,,,,,,,,,0,,,52,0
4080,set_tempo,240,1,0,,,,,,,,,,,,728332,,,,,,,
4080,note_on,0,0,2,,,,,,,,,,,,,,,0,,,53,26
4144,control_change,64,0,2,,,,,,,,,,,,,,,0,64,127,,
4200,note_on,56,0,2,,,,,,,,,,,,,,,0,,,53,0
4320,set_tempo,240,1,0,,,,,,,,,,,,728332,,,,,,,
4320,note_on,120,0,2,,,,,,,,,,,,,,,0,,,53,26
4440,note_on,120,0,2,,,,,,,,,,,,,,,0,,,53,0
4560,note_on,120,0,2,,,,,,,,,,,,,,,0,,,53,26
4680,note_on,120,0,2,,,,,,,,,,,,,,,0,,,53,0
4800,note_on,120,0,2,,,,,,,,,,,,,,,0,,,53,26
4920,note_on,120,0,2,,,,,,,,,,,,,,,0,,,53,0
5040,note_on,120,0,2,,,,,,,,,,,,,,,0,,,53,26
5160,note_on,120,0,2,,,,,,,,,,,,,,,0,,,53,0
5280,note_on,1440,0,1,,,,,,,,,,,,,,,0,,,74,0
5280,note_on,0,0,1,,,,,,,,,,,,,,,0,,,65,0
5280,note_on,0,0,1,,,,,,,,,,,,,,,0,,,62,0
5280,note_on,0,0,1,,,,,,,,,,,,,,,0,,,60,37
5280,note_on,0,0,1,,,,,,,,,,,,,,,0,,,65,42
5280,note_on,0,0,1,,,,,,,,,,,,,,,0,,,72,50
5280,set_tempo,960,1,0,,,,,,,,,,,,733407,,,,,,,
5280,note_on,0,0,2,,,,,,,,,,,,,,,0,,,51,33
5280,note_on,0,0,2,,,,,,,,,,,,,,,0,,,46,27
5280,note_on,120,0,2,,,,,,,,,,,,,,,0,,,46,0
5287,control_change,7,0,2,,,,,,,,,,,,,,,0,64,0,,
5360,control_change,73,0,2,,,,,,,,,,,,,,,0,64,127,,
5520,note_on,0,0,1,,,,,,,,,,,,,,,0,,,58,35
5520,note_on,0,0,1,,,,,,,,,,,,,,,0,,,60,0
5520,note_on,0,0,2,,,,,,,,,,,,,,,0,,,50,27
5520,note_on,160,0,2,,,,,,,,,,,,,,,0,,,51,0
5520,note_on,0,0,1,,,,,,,,,,,,,,,0,,,70,46
5520,set_tempo,240,1,0,,,,,,,,,,,,789474,,,,,,,
5520,note_on,0,0,1,,,,,,,,,,,,,,,0,,,65,39
5520,note_on,240,0,1,,,,,,,,,,,,,,,0,,,72,0
5520,note_on,0,0,1,,,,,,,,,,,,,,,0,,,65,0
5760,note_on,0,0,1,,,,,,,,,,,,,,,0,,,60,35
5760,note_on,0,0,1,,,,,,,,,,,,,,,0,,,58,0
5760,set_tempo,240,1,0,,,,,,,,,,,,743863,,,,,,,
5760,note_on,0,0,1,,,,,,,,,,,,,,,0,,,65,0
5760,control_change,0,0,2,,,,,,,,,,,,,,,0,64,0,,
5760,note_on,0,0,2,,,,,,,,,,,,,,,0,,,41,26
5760,note_on,240,0,1,,,,,,,,,,,,,,,0,,,70,0
5760,note_on,0,0,2,,,,,,,,,,,,,,,0,,,46,0
5760,note_on,240,0,2,,,,,,,,,,,,,,,0,,,50,0
5760,note_on,0,0,1,,,,,,,,,,,,,,,0,,,72,47
5760,note_on,0,0,2,,,,,,,,,,,,,,,0,,,51,31
5760,note_on,0,0,1,,,,,,,,,,,,,,,0,,,65,39
5887,control_change,127,0,2,,,,,,,,,,,,,,,0,64,127,,
6000,set_tempo,240,1,0,,,,,,,,,,,,754527,,,,,,,
6000,note_on,0,0,2,,,,,,,,,,,,,,,0,,,53,25
6000,note_on,113,0,2,,,,,,,,,,,,,,,0,,,51,0
6240,note_on,0,0,1,,,,,,,,,,,,,,,0,,,72,46
6240,note_on,0,0,1,,,,,,,,,,,,,,,0,,,60,34
6240,note_on,0,0,1,,,,,,,,,,,,,,,0,,,65,38
6240,set_tempo,240,1,0,,,,,,,,,,,,743863,,,,,,,
6240,note_on,240,0,2,,,,,,,,,,,,,,,0,,,53,0
6240,note_on,0,0,2,,,,,,,,,,,,,,,0,,,51,29
6240,note_on,0,0,2,,,,,,,,,,,,,,,0,,,41,26
6240,note_on,480,0,1,,,,,,,,,,,,,,,0,,,65,0
6240,note_on,0,0,1,,,,,,,,,,,,,,,0,,,72,0
6240,note_on,0,0,1,,,,,,,,,,,,,,,0,,,60,0
6240,note_on,0,0,2,,,,,,,,,,,,,,,0,,,41,0
6480,note_on,240,0,2,,,,,,,,,,,,,,,0,,,51,0
6480,set_tempo,240,1,0,,,,,,,,,,,,754527,,,,,,,
6480,note_on,0,0,2,,,,,,,,,,,,,,,0,,,53,25
6720,note_on,480,0,1,,,,,,,,,,,,,,,0,,,72,0
6720,note_on,0,0,2,,,,,,,,,,,,,,,0,,,41,0
6720,note_on,0,0,1,,,,,,,,,,,,,,,0,,,60,34
6720,note_on,0,0,1,,,,,,,,,,,,,,,0,,,72,46
6720,note_on,0,0,2,,,,,,,,,,,,,,,0,,,51,29
6720,note_on,0,0,2,,,,,,,,,,,,,,,0,,,41,26
6720,note_on,0,0,1,,,,,,,,,,,,,,,0,,,60,0
6720,note_on,240,0,2,,,,,,,,,,,,,,,0,,,53,0
6720,note_on,0,0,1,,,,,,,,,,,,,,,0,,,65,38
6720,note_on,0,0,1,,,,,,,,,,,,,,,0,,,65,0
6760,set_tempo,280,1,0,,,,,,,,,,,,743863,,,,,,,
6960,note_on,0,0,2,,,,,,,,,,,,,,,0,,,53,26
6960,note_on,240,0,2,,,,,,,,,,,,,,,0,,,51,0
6960,set_tempo,200,1,0,,,,,,,,,,,,771010,,,,,,,
7200,note_on,480,0,1,,,,,,,,,,,,,,,0,,,72,0
7200,note_on,0,0,1,,,,,,,,,,,,,,,0,,,60,0
7200,note_on,0,0,1,,,,,,,,,,,,,,,0,,,65,0
7200,note_on,0,0,1,,,,,,,,,,,,,,,0,,,65,42
7200,note_on,240,0,2,,,,,,,,,,,,,,,0,,,53,0
7200,note_on,0,0,2,,,,,,,,,,,,,,,0,,,41,27
7200,note_on,0,0,2,,,,,,,,,,,,,,,0,,,50,33
7200,note_on,0,0,2,,,,,,,,,,,,,,,0,,,41,0
7200,note_on,0,0,1,,,,,,,,,,,,,,,0,,,58,37
7200,set_tempo,240,1,0,,,,,,,,,,,,743863,,,,,,,
7200,note_on,0,0,1,,,,,,,,,,,,,,,0,,,70,50
7214,control_change,14,0,2,,,,,,,,,,,,,,,0,64,0,,
7313,control_change,99,0,2,,,,,,,,,,,,,,,0,64,127,,
7420,set_tempo,220,1,0,,,,,,,,,,,,827586,,,,,,,
7440,note_on,0,0,1,,,,,,,,,,,,,,,0,,,65,38
7440,note_on,0,0,2,,,,,,,,,,,,,,,0,,,48,25
7440,note_on,127,0,2,,,,,,,,,,,,,,,0,,,50,0
7440,note_on,0,0,1,,,,,,,,,,,,,,,0,,,69,45
7440,note_on,0,0,1,,,,,,,,,,,,,,,0,,,65,0
7440,note_on,240,0,1,,,,,,,,,,,,,,,0,,,70,0
7440,note_on,0,0,1,,,,,,,,,,,,,,,0,,,58,0
7440,note_on,0,0,1,,,,,,,,,,,,,,,0,,,57,30
7640,set_tempo,220,1,0,,,,,,,,,,,,754527,,,,,,,
7680,note_on,240,0,1,,,,,,,,,,,,,,,0,,,69,0
7680,note_on,0,0,1,,,,,,,,,,,,,,,0,,,57,0
7680,note_on,0,0,1,,,,,,,,,,,,,,,0,,,65,0
7680,note_on,0,0,1,,,,,,,,,,,,,,,0,,,58,37
7680,control_change,0,0,2,,,,,,,,,,,,,,,0,64,0,,
7680,note_on,0,0,1,,,,,,,,,,,,,,,0,,,65,52
7680,note_on,0,0,2,,,,,,,,,,,,,,,0,,,41,0
7680,note_on,0,0,2,,,,,,,,,,,,,,,0,,,46,28
7680,note_on,0,0,2,,,,,,,,,,,,,,,0,,,50,34
7680,note_on,0,0,1,,,,,,,,,,,,,,,0,,,70,52
7680,note_on,240,0,2,,,,,,,,,,,,,,,0,,,48,0
7807,control_change,127,0,2,,,,,,,,,,,,,,,0,64,127,,
7920,note_on,0,0,2,,,,,,,,,,,,,,,0,,,53,30
7920,note_on,113,0,2,,,,,,,,,,,,,,,0,,,50,0
8160,note_on,240,0,2,,,,,,,,,,,,,,,0,,,53,0
8160,set_tempo,520,1,0,,,,,,,,,,,,754527,,,,,,,
8160,note_on,0,0,2,,,,,,,,,,,,,,,0,,,51,33
8160,note_on,480,0,1,,,,,,,,,,,,,,,0,,,65,0
8160,note_on,0,0,1,,,,,,,,,,,,,,,0,,,63,42
8160,note_on,0,0,1,,,,,,,,,,,,,,,0,,,67,50
8231,control_change,71,0,2,,,,,,,,,,,,,,,0,64,0,,
8315,control_change,84,0,2,,,,,,,,,,,,,,,0,64,127,,
8400,note_on,0,0,2,,,,,,,,,,,,,,,0,,,55,28
8400,note_on,85,0,2,,,,,,,,,,,,,,,0,,,51,0
8440,set_tempo,280,1,0,,,,,,,,,,,,782371,,,,,,,
8640,set_tempo,200,1,0,,,,,,,,,,,,759878,,,,,,,
8640,note_on,0,0,1,,,,,,,,,,,,,,,0,,,63,0
8640,note_on,0,0,1,,,,,,,,,,,,,,,0,,,62,36
8640,note_on,0,0,2,,,,,,,,,,,,,,,0,,,50,29
8640,note_on,480,0,1,,,,,,,,,,,,,,,0,,,67,0
8640,note_on,0,0,1,,,,,,,,,,,,,,,0,,,65,44
8640,note_on,240,0,2,,,,,,,,,,,,,,,0,,,55,0
8696,control_change,56,0,2,,,,,,,,,,,,,,,0,64,0,,
8852,control_change,156,0,2,,,,,,,,,,,,,,,0,64,127,,
8880,set_tempo,240,1,0,,,,,,,,,,,,782371,,,,,,,
8880,note_on,28,0,2,,,,,,,,,,,,,,,0,,,50,0
8880,note_on,0,0,2,,,,,,,,,,,,,,,0,,,53,30
9120,note_on,240,0,2,,,,,,,,,,,,,,,0,,,53,0
9120,note_on,0,0,2,,,,,,,,,,,,,,,0,,,46,0
9120,note_on,0,0,2,,,,,,,,,,,,,,,0,,,50,39
9120,note_on,0,0,2,,,,,,,,,,,,,,,0,,,46,28
9120,note_on,0,0,1,,,,,,,,,,,,,,,0,,,70,61
9120,note_on,0,0,1,,,,,,,,,,,,,,,0,,,62,0
9120,note_on,0,0,1,,,,,,,,,,,,,,,0,,,70,0
9120,note_on,0,0,1,,,,,,,,,,,,,,,0,,,58,0
9120,note_on,480,0,1,,,,,,,,,,,,,,,0,,,65,0
9162,control_change,42,0,2,,,,,,,,,,,,,,,0,64,0,,
9219,control_change,57,0,2,,,,,,,,,,,,,,,0,64,127,,
9360,set_tempo,480,1,0,,,,,,,,,,,,789474,,,,,,,
9360,note_on,0,0,2,,,,,,,,,,,,,,,0,,,58,34
9360,note_on,141,0,2,,,,,,,,,,,,,,,0,,,50,0
9600,note_on,240,0,2,,,,,,,,,,,,,,,0,,,58,0
9600,note_on,0,0,2,,,,,,,,,,,,,,,0,,,46,0
9600,note_on,0,0,2,,,,,,,,,,,,,,,0,,,55,36
9600,control_change,0,0,2,,,,,,,,,,,,,,,0,64,0,,
9600,note_on,0,0,2,,,,,,,,,,,,,,,0,,,46,30
9600,note_on,0,0,1,,,,,,,,,,,,,,,0,,,70,51
9600,note_on,0,0,1,,,,,,,,,,,,,,,0,,,75,60
9600,set_tempo,240,1,0,,,,,,,,,,,,743863,,,,,,,
9600,note_on,0,0,1,,,,,,,,,,,,,,,0,,,63,45
9600,note_on,480,0,1,,,,,,,,,,,,,,,0,,,70,0
9714,control_change,114,0,2,,,,,,,,,,,,,,,0,64,127,,
9840,set_tempo,240,1,0,,,,,,,,,,,,738643,,,,,,,
9840,note_on,126,0,2,,,,,,,,,,,,,,,0,,,58,32
9960,note_on,120,0,2,,,,,,,,,,,,,,,0,,,58,0
10080,set_tempo,240,1,0,,,,,,,,,,,,728332,,,,,,,
10080,note_on,120,0,2,,,,,,,,,,,,,,,0,,,58,33
10200,note_on,120,0,2,,,,,,,,,,,,,,,0,,,58,0
10320,note_on,120,0,2,,,,,,,,,,,,,,,0,,,58,30
10440,note_on,120,0,2,,,,,,,,,,,,,,,0,,,58,0
10560,note_on,120,0,2,,,,,,,,,,,,,,,0,,,58,34
10680,note_on,120,0,2,,,,,,,,,,,,,,,0,,,58,0
10800,note_on,120,0,2,,,,,,,,,,,,,,,0,,,58,31
10920,note_on,120,0,2,,,,,,,,,,,,,,,0,,,58,0
11040,note_on,120,0,2,,,,,,,,,,,,,,,0,,,46,0
11040,note_on,0,0,1,,,,,,,,,,,,,,,0,,,70,0
11040,note_on,0,0,1,,,,,,,,,,,,,,,0,,,63,0
11040,note_on,0,0,1,,,,,,,,,,,,,,,0,,,62,41
11040,note_on,0,0,1,,,,,,,,,,,,,,,0,,,74,55
11040,note_on,0,0,1,,,,,,,,,,,,,,,0,,,70,46
11040,note_on,1440,0,1,,,,,,,,,,,,,,,0,,,75,0
11040,note_on,0,0,2,,,,,,,,,,,,,,,0,,,55,0
11040,note_on,0,0,2,,,,,,,,,,,,,,,0,,,46,27
11040,note_on,0,0,2,,,,,,,,,,,,,,,0,,,53,33
11040,control_change,0,0,2,,,,,,,,,,,,,,,0,64,0,,
11154,control_change,114,0,2,,,,,,,,,,,,,,,0,64,127,,
11280,note_on,0,0,1,,,,,,,,,,,,,,,0,,,72,50
11280,set_tempo,1200,1,0,,,,,,,,,,,,776699,,,,,,,
11280,note_on,240,0,1,,,,,,,,,,,,,,,0,,,70,0
11280,note_on,0,0,1,,,,,,,,,,,,,,,0,,,74,0
11280,note_on,0,0,1,,,,,,,,,,,,,,,0,,,62,0
11280,note_on,126,0,2,,,,,,,,,,,,,,,0,,,53,0
11280,note_on,0,0,1,,,,,,,,,,,,,,,0,,,70,42
11280,note_on,0,0,1,,,,,,,,,,,,,,,0,,,60,37
11280,note_on,0,0,2,,,,,,,,,,,,,,,0,,,51,31
11520,set_tempo,240,1,0,,,,,,,,,,,,743863,,,,,,,
11520,note_on,240,0,2,,,,,,,,,,,,,,,0,,,51,0
11520,note_on,0,0,1,,,,,,,,,,,,,,,0,,,60,0
11520,note_on,0,0,1,,,,,,,,,,,,,,,0,,,70,0
11520,note_on,0,0,1,,,,,,,,,,,,,,,0,,,70,45
11520,note_on,0,0,1,,,,,,,,,,,,,,,0,,,74,53
11520,control_change,0,0,2,,,,,,,,,,,,,,,0,64,0,,
11520,note_on,0,0,2,,,,,,,,,,,,,,,0,,,46,27
11520,note_on,0,0,2,,,,,,,,,,,,,,,0,,,53,33
11520,note_on,0,0,2,,,,,,,,,,,,,,,0,,,46,0
11520,note_on,240,0,1,,,,,,,,,,,,,,,0,,,72,0
11520,note_on,0,0,1,,,,,,,,,,,,,,,0,,,62,45
11633,control_change,113,0,2,,,,,,,,,,,,,,,0,64,127,,
11760,note_on,0,0,2,,,,,,,,,,,,,,,0,,,50,28
11760,note_on,127,0,2,,,,,,,,,,,,,,,0,,,53,0
12000,set_tempo,480,1,0,,,,,,,,,,,,754527,,,,,,,
12000,note_on,480,0,1,,,,,,,,,,,,,,,0,,,74,0
12000,note_on,0,0,1,,,,,,,,,,,,,,,0,,,62,0
12000,note_on,0,0,1,,,,,,,,,,,,,,,0,,,70,0
12000,note_on,0,0,1,,,,,,,,,,,,,,,0,,,57,37
12000,note_on,0,0,1,,,,,,,,,,,,,,,0,,,69,50
12000,note_on,0,0,1,,,,,,,,,,,,,,,0,,,65,42
12000,note_on,240,0,2,,,,,,,,,,,,,,,0,,,50,0
12000,note_on,0,0,2,,,,,,,,,,,,,,,0,,,46,0
12000,note_on,0,0,2,,,,,,,,,,,,,,,0,,,41,27
12000,note_on,0,0,2,,,,,,,,,,,,,,,0,,,48,33
12028,control_change,28,0,2,,,,,,,,,,,,,,,0,64,0,,
12127,control_change,99,0,2,,,,,,,,,,,,,,,0,64,127,,
12240,note_on,0,0,2,,,,,,,,,,,,,,,0,,,53,28
12240,set_tempo,240,1,0,,,,,,,,,,,,771010,,,,,,,
12240,note_on,113,0,2,,,,,,,,,,,,,,,0,,,48,0
12480,set_tempo,240,1,0,,,,,,,,,,,,759878,,,,,,,
12480,note_on,240,0,2,,,,,,,,,,,,,,,0,,,53,0
12480,note_on,480,0,1,,,,,,,,,,,,,,,0,,,69,0
12480,note_on,0,0,2,,,,,,,,,,,,,,,0,,,50,33
12480,note_on,0,0,2,,,,,,,,,,,,,,,0,,,41,27
12480,note_on,0,0,1,,,,,,,,,,,,,,,0,,,57,0
12480,note_on,0,0,2,,,,,,,,,,,,,,,0,,,41,0
12480,note_on,0,0,1,,,,,,,,,,,,,,,0,,,58,39
12480,note_on,0,0,1,,,,,,,,,,,,,,,0,,,65,0
12480,note_on,0,0,1,,,,,,,,,,,,,,,0,,,70,52
12480,note_on,0,0,1,,,,,,,,,,,,,,,0,,,65,44
12551,control_change,71,0,2,,,,,,,,,,,,,,,0,64,0,,
12649,control_change,98,0,2,,,,,,,,,,,,,,,0,64,127,,
12720,note_on,71,0,2,,,,,,,,,,,,,,,0,,,50,0
12720,note_on,0,0,2,,,,,,,,,,,,,,,0,,,53,30
12946,control_change,226,0,2,,,,,,,,,,,,,,,0,64,0,,
12960,note_on,0,0,1,,,,,,,,,,,,,,,0,,,60,37
12960,note_on,0,0,1,,,,,,,,,,,,,,,0,,,72,50
12960,note_on,0,0,1,,,,,,,,,,,,,,,0,,,65,42
12960,note_on,0,0,1,,,,,,,,,,,,,,,0,,,65,0
12960,note_on,0,0,1,,,,,,,,,,,,,,,0,,,58,0
12960,note_on,480,0,1,,,,,,,,,,,,,,,0,,,70,0
12960,set_tempo,480,1,0,,,,,,,,,,,,749157,,,,,,,
12960,note_on,0,0,2,,,,,,,,,,,,,,,0,,,41,27
12960,note_on,0,0,2,,,,,,,,,,,,,,,0,,,51,32
12960,note_on,0,0,2,,,,,,,,,,,,,,,0,,,41,0
12960,note_on,14,0,2,,,,,,,,,,,,,,,0,,,53,0
13045,control_change,85,0,2,,,,,,,,,,,,,,,0,64,127,,
13200,note_on,0,0,2,,,,,,,,,,,,,,,0,,,53,29
13200,note_on,155,0,2,,,,,,,,,,,,,,,0,,,51,0
13240,set_tempo,280,1,0,,,,,,,,,,,,782371,,,,,,,
13440,note_on,480,0,1,,,,,,,,,,,,,,,0,,,60,0
13440,note_on,0,0,1,,,,,,,,,,,,,,,0,,,65,44
13440,note_on,0,0,1,,,,,,,,,,,,,,,0,,,58,39
13440,note_on,0,0,1,,,,,,,,,,,,,,,0,,,70,52
13440,note_on,0,0,1,,,,,,,,,,,,,,,0,,,72,0
13440,note_on,0,0,2,,,,,,,,,,,,,,,0,,,41,27
13440,note_on,0,0,2,,,,,,,,,,,,,,,0,,,50,32
13440,note_on,0,0,2,,,,,,,,,,,,,,,0,,,41,0
13440,note_on,240,0,2,,,,,,,,,,,,,,,0,,,53,0
13440,note_on,0,0,1,,,,,,,,,,,,,,,0,,,65,0
13440,set_tempo,200,1,0,,,,,,,,,,,,771010,,,,,,,
13496,control_change,56,0,2,,,,,,,,,,,,,,,0,64,0,,
13581,control_change,85,0,2,,,,,,,,,,,,,,,0,64,127,,
13680,set_tempo,240,1,0,,,,,,,,,,,,794176,,,,,,,
13680,note_on,0,0,2,,,,,,,,,,,,,,,0,,,53,29
13680,note_on,99,0,2,,,,,,,,,,,,,,,0,,,50,0
13920,note_on,0,0,2,,,,,,,,,,,,,,,0,,,50,32
13920,note_on,240,0,2,,,,,,,,,,,,,,,0,,,53,0
13920,set_tempo,240,1,0,,,,,,,,,,,,821918,,,,,,,
13920,note_on,0,0,1,,,,,,,,,,,,,,,0,,,62,39
13920,note_on,480,0,1,,,,,,,,,,,,,,,0,,,65,0
13920,note_on,0,0,1,,,,,,,,,,,,,,,0,,,58,0
13920,note_on,0,0,1,,,,,,,,,,,,,,,0,,,70,0
13920,note_on,0,0,1,,,,,,,,,,,,,,,0,,,70,44
13920,note_on,0,0,1,,,,,,,,,,,,,,,0,,,65,44
13920,note_on,0,0,1,,,,,,,,,,,,,,,0,,,74,52
14160,set_tempo,240,1,0,,,,,,,,,,,,888889,,,,,,,
14160,note_on,0,0,2,,,,,,,,,,,,,,,0,,,46,29
14160,note_on,240,0,2,,,,,,,,,,,,,,,0,,,50,0
14400,note_on,0,0,2,,,,,,,,,,,,,,,0,,,41,32
14400,note_on,0,0,2,,,,,,,,,,,,,,,0,,,41,0
14400,note_on,240,0,2,,,,,,,,,,,,,,,0,,,46,0
14400,note_on,0,0,1,,,,,,,,,,,,,,,0,,,72,50
14400,note_on,480,0,1,,,,,,,,,,,,,,,0,,,65,0
14400,note_on,0,0,1,,,,,,,,,,,,,,,0,,,70,0
14400,note_on,0,0,1,,,,,,,,,,,,,,,0,,,74,0
14400,note_on,0,0,1,,,,,,,,,,,,,,,0,,,62,0
14400,note_on,0,0,1,,,,,,,,,,,,,,,0,,,65,42
14400,set_tempo,240,1,0,,,,,,,,,,,,789474,,,,,,,
14400,note_on,0,0,1,,,,,,,,,,,,,,,0,,,69,42
14400,note_on,0,0,1,,,,,,,,,,,,,,,0,,,60,37
14485,control_change,85,0,2,,,,,,,,,,,,,,,0,64,0,,
14880,set_tempo,480,1,0,,,,,,,,,,,,865801,,,,,,,
14880,note_on,395,0,2,,,,,,,,,,,,,,,0,,,41,0
15120,note_on,240,0,2,,,,,,,,,,,,,,,0,,,29,27
15120,set_tempo,240,1,0,,,,,,,,,,,,771010,,,,,,,
15200,note_on,80,0,2,,,,,,,,,,,,,,,0,,,30,22
15220,note_on,20,0,2,,,,,,,,,,,,,,,0,,,29,0
15280,note_on,60,0,2,,,,,,,,,,,,,,,0,,,32,22
15300,note_on,20,0,2,,,,,,,,,,,,,,,0,,,30,0
15360,set_tempo,240,1,0,,,,,,,,,,,,825196,,,,,,,
15360,note_on,60,0,2,,,,,,,,,,,,,,,0,,,30,27
15380,note_on,20,0,2,,,,,,,,,,,,,,,0,,,32,0
15420,note_on,40,0,2,,,,,,,,,,,,,,,0,,,32,23
15424,set_tempo,64,1,0,,,,,,,,,,,,818777,,,,,,,
15460,note_on,40,0,2,,,,,,,,,,,,,,,0,,,30,0
15480,note_on,20,0,2,,,,,,,,,,,,,,,0,,,30,24
15480,set_tempo,56,1,0,,,,,,,,,,,,812458,,,,,,,
15520,note_on,40,0,2,,,,,,,,,,,,,,,0,,,32,0
15540,note_on,20,0,2,,,,,,,,,,,,,,,0,,,32,22
15544,set_tempo,64,1,0,,,,,,,,,,,,806235,,,,,,,
15580,note_on,40,0,2,,,,,,,,,,,,,,,0,,,30,0
15600,note_on,20,0,2,,,,,,,,,,,,,,,0,,,30,24
15600,set_tempo,56,1,0,,,,,,,,,,,,800213,,,,,,,
15640,note_on,40,0,2,,,,,,,,,,,,,,,0,,,32,0
15660,note_on,20,0,2,,,,,,,,,,,,,,,0,,,32,22
15664,set_tempo,64,1,0,,,,,,,,,,,,794176,,,,,,,
15700,note_on,40,0,2,,,,,,,,,,,,,,,0,,,30,0
15720,note_on,20,0,2,,,,,,,,,,,,,,,0,,,30,25
15720,set_tempo,56,1,0,,,,,,,,,,,,788229,,,,,,,
15732,set_tempo,12,1,0,,,,,,,,,,,,765404,,,,,,,
15744,set_tempo,12,1,0,,,,,,,,,,,,759878,,,,,,,
15760,note_on,40,0,2,,,,,,,,,,,,,,,0,,,32,0
15780,note_on,20,0,2,,,,,,,,,,,,,,,0,,,32,24
15800,set_tempo,56,1,0,,,,,,,,,,,,765404,,,,,,,
15812,set_tempo,12,1,0,,,,,,,,,,,,776699,,,,,,,
15820,note_on,40,0,2,,,,,,,,,,,,,,,0,,,30,0
15840,note_on,20,0,2,,,,,,,,,,,,,,,0,,,30,26
15852,set_tempo,40,1,0,,,,,,,,,,,,765404,,,,,,,
15880,set_tempo,28,1,0,,,,,,,,,,,,759878,,,,,,,
15880,note_on,40,0,2,,,,,,,,,,,,,,,0,,,32,0
15892,set_tempo,12,1,0,,,,,,,,,,,,749157,,,,,,,
15900,note_on,20,0,2,,,,,,,,,,,,,,,0,,,32,23
15904,set_tempo,12,1,0,,,,,,,,,,,,743863,,,,,,,
15920,set_tempo,16,1,0,,,,,,,,,,,,754527,,,,,,,
15932,set_tempo,12,1,0,,,,,,,,,,,,759878,,,,,,,
15940,note_on,40,0,2,,,,,,,,,,,,,,,0,,,30,0
15944,set_tempo,12,1,0,,,,,,,,,,,,771010,,,,,,,
15960,set_tempo,16,1,0,,,,,,,,,,,,765404,,,,,,,
15960,note_on,20,0,2,,,,,,,,,,,,,,,0,,,30,26
15972,set_tempo,12,1,0,,,,,,,,,,,,754527,,,,,,,
15984,set_tempo,12,1,0,,,,,,,,,,,,749157,,,,,,,
16000,set_tempo,16,1,0,,,,,,,,,,,,743863,,,,,,,
16000,note_on,40,0,2,,,,,,,,,,,,,,,0,,,32,0
16012,set_tempo,12,1,0,,,,,,,,,,,,738643,,,,,,,
16020,note_on,20,0,2,,,,,,,,,,,,,,,0,,,32,22
16052,set_tempo,40,1,0,,,,,,,,,,,,749157,,,,,,,
16060,note_on,40,0,2,,,,,,,,,,,,,,,0,,,30,0
16064,set_tempo,12,1,0,,,,,,,,,,,,759878,,,,,,,
16080,note_on,20,0,2,,,,,,,,,,,,,,,0,,,30,25
16080,set_tempo,16,1,0,,,,,,,,,,,,765404,,,,,,,
16092,set_tempo,12,1,0,,,,,,,,,,,,771010,,,,,,,
16120,note_on,40,0,2,,,,,,,,,,,,,,,0,,,32,0
16120,set_tempo,28,1,0,,,,,,,,,,,,765404,,,,,,,
16132,set_tempo,12,1,0,,,,,,,,,,,,754527,,,,,,,
16140,note_on,20,0,2,,,,,,,,,,,,,,,0,,,32,23
16144,set_tempo,12,1,0,,,,,,,,,,,,749157,,,,,,,
16160,set_tempo,16,1,0,,,,,,,,,,,,743863,,,,,,,
16172,set_tempo,12,1,0,,,,,,,,,,,,738643,,,,,,,
16180,note_on,40,0,2,,,,,,,,,,,,,,,0,,,30,0
16184,set_tempo,12,1,0,,,,,,,,,,,,743863,,,,,,,
16200,set_tempo,16,1,0,,,,,,,,,,,,754527,,,,,,,
16200,note_on,20,0,2,,,,,,,,,,,,,,,0,,,30,24
16212,set_tempo,12,1,0,,,,,,,,,,,,759878,,,,,,,
16240,note_on,40,0,2,,,,,,,,,,,,,,,0,,,32,0
16240,set_tempo,28,1,0,,,,,,,,,,,,765404,,,,,,,
16260,note_on,20,0,2,,,,,,,,,,,,,,,0,,,32,22
16264,set_tempo,24,1,0,,,,,,,,,,,,754527,,,,,,,
16280,set_tempo,16,1,0,,,,,,,,,,,,749157,,,,,,,
16292,set_tempo,12,1,0,,,,,,,,,,,,738643,,,,,,,
16300,note_on,40,0,2,,,,,,,,,,,,,,,0,,,30,0
16304,set_tempo,12,1,0,,,,,,,,,,,,743863,,,,,,,
16320,note_on,20,0,2,,,,,,,,,,,,,,,0,,,30,26
16320,set_tempo,16,1,0,,,,,,,,,,,,765404,,,,,,,
16332,set_tempo,12,1,0,,,,,,,,,,,,776699,,,,,,,
16344,set_tempo,12,1,0,,,,,,,,,,,,782371,,,,,,,
16360,set_tempo,16,1,0,,,,,,,,,,,,776699,,,,,,,
16360,note_on,40,0,2,,,,,,,,,,,,,,,0,,,32,0
16372,set_tempo,12,1,0,,,,,,,,,,,,759878,,,,,,,
16380,note_on,20,0,2,,,,,,,,,,,,,,,0,,,32,23
16384,set_tempo,12,1,0,,,,,,,,,,,,754527,,,,,,,
16400,set_tempo,16,1,0,,,,,,,,,,,,749157,,,,,,,
16412,set_tempo,12,1,0,,,,,,,,,,,,743863,,,,,,,
16420,note_on,40,0,2,,,,,,,,,,,,,,,0,,,30,0
16424,set_tempo,12,1,0,,,,,,,,,,,,749157,,,,,,,
16440,note_on,20,0,2,,,,,,,,,,,,,,,0,,,30,25
16440,set_tempo,16,1,0,,,,,,,,,,,,765404,,,,,,,
16452,set_tempo,12,1,0,,,,,,,,,,,,771010,,,,,,,
16480,set_tempo,28,1,0,,,,,,,,,,,,759878,,,,,,,
16480,note_on,40,0,2,,,,,,,,,,,,,,,0,,,32,0
16492,set_tempo,12,1,0,,,,,,,,,,,,749157,,,,,,,
16500,note_on,20,0,2,,,,,,,,,,,,,,,0,,,32,23
16504,set_tempo,12,1,0,,,,,,,,,,,,743863,,,,,,,
16520,set_tempo,16,1,0,,,,,,,,,,,,738643,,,,,,,
16532,set_tempo,12,1,0,,,,,,,,,,,,743863,,,,,,,
16540,note_on,40,0,2,,,,,,,,,,,,,,,0,,,30,0
16544,set_tempo,12,1,0,,,,,,,,,,,,754527,,,,,,,
16560,note_on,20,0,2,,,,,,,,,,,,,,,0,,,30,25
16560,set_tempo,16,1,0,,,,,,,,,,,,759878,,,,,,,
16572,set_tempo,12,1,0,,,,,,,,,,,,765404,,,,,,,
16600,note_on,40,0,2,,,,,,,,,,,,,,,0,,,32,0
16612,set_tempo,40,1,0,,,,,,,,,,,,754527,,,,,,,
16620,note_on,20,0,2,,,,,,,,,,,,,,,0,,,32,22
16624,set_tempo,12,1,0,,,,,,,,,,,,749157,,,,,,,
16640,set_tempo,16,1,0,,,,,,,,,,,,743863,,,,,,,
16660,note_on,40,0,2,,,,,,,,,,,,,,,0,,,30,0
16680,note_on,20,0,2,,,,,,,,,,,,,,,0,,,30,25
16692,set_tempo,52,1,0,,,,,,,,,,,,754527,,,,,,,
16704,set_tempo,12,1,0,,,,,,,,,,,,765404,,,,,,,
16720,set_tempo,16,1,0,,,,,,,,,,,,771010,,,,,,,
16720,note_on,40,0,2,,,,,,,,,,,,,,,0,,,32,0
16732,set_tempo,12,1,0,,,,,,,,,,,,759878,,,,,,,
16740,note_on,20,0,2,,,,,,,,,,,,,,,0,,,32,22
16744,set_tempo,12,1,0,,,,,,,,,,,,754527,,,,,,,
16760,set_tempo,16,1,0,,,,,,,,,,,,749157,,,,,,,
16772,set_tempo,12,1,0,,,,,,,,,,,,743863,,,,,,,
16780,note_on,40,0,2,,,,,,,,,,,,,,,0,,,30,0
16784,set_tempo,12,1,0,,,,,,,,,,,,749157,,,,,,,
16800,set_tempo,16,1,0,,,,,,,,,,,,759878,,,,,,,
16800,note_on,20,0,2,,,,,,,,,,,,,,,0,,,30,27
16812,set_tempo,12,1,0,,,,,,,,,,,,771010,,,,,,,
16824,set_tempo,12,1,0,,,,,,,,,,,,776699,,,,,,,
16840,note_on,40,0,2,,,,,,,,,,,,,,,0,,,32,0
16840,set_tempo,16,1,0,,,,,,,,,,,,782371,,,,,,,
16852,set_tempo,12,1,0,,,,,,,,,,,,788229,,,,,,,
16860,note_on,20,0,2,,,,,,,,,,,,,,,0,,,32,23
16864,set_tempo,12,1,0,,,,,,,,,,,,782371,,,,,,,
16880,set_tempo,16,1,0,,,,,,,,,,,,771010,,,,,,,
16892,set_tempo,12,1,0,,,,,,,,,,,,765404,,,,,,,
16900,note_on,40,0,2,,,,,,,,,,,,,,,0,,,30,0
16920,note_on,20,0,2,,,,,,,,,,,,,,,0,,,30,26
16960,note_on,40,0,2,,,,,,,,,,,,,,,0,,,32,0
16980,note_on,20,0,2,,,,,,,,,,,,,,,0,,,32,22
17000,set_tempo,108,1,0,,,,,,,,,,,,771010,,,,,,,
17020,note_on,40,0,2,,,,,,,,,,,,,,,0,,,30,0
17040,note_on,20,0,2,,,,,,,,,,,,,,,0,,,29,22
17040,set_tempo,40,1,0,,,,,,,,,,,,743863,,,,,,,
17080,note_on,40,0,2,,,,,,,,,,,,,,,0,,,32,0
17160,note_on,80,0,2,,,,,,,,,,,,,,,0,,,30,18
17160,set_tempo,120,1,0,,,,,,,,,,,,845070,,,,,,,
17180,note_on,20,0,2,,,,,,,,,,,,,,,0,,,29,0
17280,note_on,100,0,2,,,,,,,,,,,,,,,0,,,29,23
17280,set_tempo,120,1,0,,,,,,,,,,,,782371,,,,,,,
17300,note_on,20,0,2,,,,,,,,,,,,,,,0,,,30,0
17400,note_on,100,0,2,,,,,,,,,,,,,,,0,,,29,0
17520,note_on,0,0,1,,,,,,,,,,,,,,,0,,,60,0
17520,note_on,0,0,1,,,,,,,,,,,,,,,0,,,72,0
17520,note_on,0,0,1,,,,,,,,,,,,,,,0,,,65,0
17520,note_on,3120,0,1,,,,,,,,,,,,,,,0,,,69,0
18720,set_tempo,1440,1,0,,,,,,,,,,,,765404,,,,,,,
18720,note_on,1320,0,2,,,,,,,,,,,,,,,0,,,46,27
18720,note_on,0,0,2,,,,,,,,,,,,,,,0,,,50,33
18720,note_on,1200,0,1,,,,,,,,,,,,,,,0,,,65,40
18720,note_on,0,0,1,,,,,,,,,,,,,,,0,,,58,36
18720,note_on,0,0,1,,,,,,,,,,,,,,,0,,,70,48
18734,control_change,14,0,2,,,,,,,,,,,,,,,0,64,127,,
18960,note_on,226,0,2,,,,,,,,,,,,,,,0,,,50,0
18960,note_on,0,0,2,,,,,,,,,,,,,,,0,,,53,28
19200,note_on,480,0,1,,,,,,,,,,,,,,,0,,,70,0
19200,note_on,0,0,1,,,,,,,,,,,,,,,0,,,58,0
19200,note_on,0,0,1,,,,,,,,,,,,,,,0,,,65,42
19200,note_on,0,0,1,,,,,,,,,,,,,,,0,,,58,37
19200,note_on,0,0,1,,,,,,,,,,,,,,,0,,,70,50
19200,note_on,0,0,1,,,,,,,,,,,,,,,0,,,65,0
19200,control_change,0,0,2,,,,,,,,,,,,,,,0,64,0,,
19200,note_on,0,0,2,,,,,,,,,,,,,,,0,,,46,28
19200,note_on,0,0,2,,,,,,,,,,,,,,,0,,,50,34
19200,note_on,0,0,2,,,,,,,,,,,,,,,0,,,46,0
19200,note_on,240,0,2,,,,,,,,,,,,,,,0,,,53,0
19200,set_tempo,480,1,0,,,,,,,,,,,,743863,,,,,,,
19285,control_change,85,0,2,,,,,,,,,,,,,,,0,64,127,,
19440,note_on,155,0,2,,,,,,,,,,,,,,,0,,,50,0
19440,note_on,0,0,2,,,,,,,,,,,,,,,0,,,53,28
19480,set_tempo,280,1,0,,,,,,,,,,,,765404,,,,,,,
19680,set_tempo,200,1,0,,,,,,,,,,,,743863,,,,,,,
19680,control_change,0,0,2,,,,,,,,,,,,,,,0,64,0,,
19680,note_on,0,0,2,,,,,,,,,,,,,,,0,,,48,31
19680,note_on,0,0,2,,,,,,,,,,,,,,,0,,,46,0
19680,note_on,0,0,2,,,,,,,,,,,,,,,0,,,46,24
19680,note_on,480,0,1,,,,,,,,,,,,,,,0,,,70,0
19680,note_on,0,0,1,,,,,,,,,,,,,,,0,,,58,0
19680,note_on,0,0,1,,,,,,,,,,,,,,,0,,,65,0
19680,note_on,0,0,1,,,,,,,,,,,,,,,0,,,65,40
19680,note_on,0,0,1,,,,,,,,,,,,,,,0,,,57,31
19680,note_on,0,0,1,,,,,,,,,,,,,,,0,,,69,48
19680,note_on,240,0,2,,,,,,,,,,,,,,,0,,,53,0
19765,control_change,85,0,2,,,,,,,,,,,,,,,0,64,127,,
19920,set_tempo,240,1,0,,,,,,,,,,,,771010,,,,,,,
19920,note_on,0,0,2,,,,,,,,,,,,,,,0,,,53,27
19920,note_on,155,0,2,,,,,,,,,,,,,,,0,,,48,0
20080,set_tempo,160,1,0,,,,,,,,,,,,749157,,,,,,,
20160,set_tempo,80,1,0,,,,,,,,,,,,765404,,,,,,,
20160,note_on,0,0,1,,,,,,,,,,,,,,,0,,,70,50
20160,note_on,0,0,2,,,,,,,,,,,,,,,0,,,50,34
20160,note_on,0,0,2,,,,,,,,,,,,,,,0,,,46,28
20160,note_on,0,0,1,,,,,,,,,,,,,,,0,,,65,42
20160,note_on,0,0,1,,,,,,,,,,,,,,,0,,,65,0
20160,note_on,0,0,1,,,,,,,,,,,,,,,0,,,57,0
20160,note_on,0,0,1,,,,,,,,,,,,,,,0,,,58,37
20160,note_on,0,0,2,,,,,,,,,,,,,,,0,,,46,0
20160,note_on,240,0,2,,,,,,,,,,,,,,,0,,,53,0
20160,note_on,480,0,1,,,,,,,,,,,,,,,0,,,69,0
20202,control_change,42,0,2,,,,,,,,,,,,,,,0,64,0,,
20315,control_change,113,0,2,,,,,,,,,,,,,,,0,64,127,,
20400,set_tempo,240,1,0,,,,,,,,,,,,776699,,,,,,,
20400,note_on,0,0,2,,,,,,,,,,,,,,,0,,,53,27
20400,note_on,85,0,2,,,,,,,,,,,,,,,0,,,50,0
20640,note_on,0,0,2,,,,,,,,,,,,,,,0,,,51,33
20640,note_on,0,0,2,,,,,,,,,,,,,,,0,,,46,0
20640,note_on,240,0,2,,,,,,,,,,,,,,,0,,,53,0
20640,note_on,0,0,2,,,,,,,,,,,,,,,0,,,46,27
20640,set_tempo,240,1,0,,,,,,,,,,,,774194,,,,,,,
20640,note_on,0,0,1,,,,,,,,,,,,,,,0,,,60,36
20640,note_on,0,0,1,,,,,,,,,,,,,,,0,,,72,48
20640,note_on,0,0,1,,,,,,,,,,,,,,,0,,,65,40
20640,note_on,0,0,1,,,,,,,,,,,,,,,0,,,65,0
20640,note_on,0,0,1,,,,,,,,,,,,,,,0,,,58,0
20640,note_on,480,0,1,,,,,,,,,,,,,,,0,,,70,0
20668,control_change,28,0,2,,,,,,,,,,,,,,,0,64,0,,
20781,control_change,113,0,2,,,,,,,,,,,,,,,0,64,127,,
20880,note_on,99,0,2,,,,,,,,,,,,,,,0,,,51,0
20880,set_tempo,240,1,0,,,,,,,,,,,,816327,,,,,,,
20880,note_on,0,0,2,,,,,,,,,,,,,,,0,,,53,26
21120,note_on,0,0,1,,,,,,,,,,,,,,,0,,,74,53
21120,note_on,0,0,1,,,,,,,,,,,,,,,0,,,65,0
21120,note_on,0,0,1,,,,,,,,,,,,,,,0,,,72,0
21120,note_on,480,0,1,,,,,,,,,,,,,,,0,,,60,0
21120,set_tempo,240,1,0,,,,,,,,,,,,743863,,,,,,,
21120,note_on,240,0,2,,,,,,,,,,,,,,,0,,,53,0
21120,note_on,0,0,2,,,,,,,,,,,,,,,0,,,46,0
21120,note_on,0,0,2,,,,,,,,,,,,,,,0,,,52,34
21120,note_on,0,0,2,,,,,,,,,,,,,,,0,,,46,28
21120,control_change,0,0,2,,,,,,,,,,,,,,,0,64,0,,
21120,note_on,0,0,1,,,,,,,,,,,,,,,0,,,65,45
21120,note_on,0,0,1,,,,,,,,,,,,,,,0,,,62,40
21223,control_change,103,0,2,,,,,,,,,,,,,,,0,64,127,,
21339,control_change,116,0,2,,,,,,,,,,,,,,,0,64,0,,
21360,note_on,21,0,2,,,,,,,,,,,,,,,0,,,52,0
21360,set_tempo,240,1,0,,,,,,,,,,,,728332,,,,,,,
21360,note_on,0,0,2,,,,,,,,,,,,,,,0,,,53,26
21424,control_change,64,0,2,,,,,,,,,,,,,,,0,64,127,,
21480,note_on,56,0,2,,,,,,,,,,,,,,,0,,,53,0
21600,set_tempo,240,1,0,,,,,,,,,,,,728332,,,,,,,
21600,note_on,120,0,2,,,,,,,,,,,,,,,0,,,53,26
21720,note_on,120,0,2,,,,,,,,,,,,,,,0,,,53,0
21840,note_on,120,0,2,,,,,,,,,,,,,,,0,,,53,26
21960,note_on,120,0,2,,,,,,,,,,,,,,,0,,,53,0
22080,note_on,120,0,2,,,,,,,,,,,,,,,0,,,53,26
22200,note_on,120,0,2,,,,,,,,,,,,,,,0,,,53,0
22320,note_on,120,0,2,,,,,,,,,,,,,,,0,,,53,26
22440,note_on,120,0,2,,,,,,,,,,,,,,,0,,,53,0
22560,note_on,0,0,1,,,,,,,,,,,,,,,0,,,60,37
22560,note_on,0,0,1,,,,,,,,,,,,,,,0,,,65,42
22560,note_on,0,0,1,,,,,,,,,,,,,,,0,,,74,0
22560,note_on,0,0,1,,,,,,,,,,,,,,,0,,,62,0
22560,note_on,1440,0,1,,,,,,,,,,,,,,,0,,,65,0
22560,set_tempo,960,1,0,,,,,,,,,,,,733407,,,,,,,
22560,note_on,0,0,2,,,,,,,,,,,,,,,0,,,46,27
22560,note_on,0,0,2,,,,,,,,,,,,,,,0,,,51,33
22560,note_on,120,0,2,,,,,,,,,,,,,,,0,,,46,0
22560,note_on,0,0,1,,,,,,,,,,,,,,,0,,,72,50
22567,control_change,7,0,2,,,,,,,,,,,,,,,0,64,0,,
22640,control_change,73,0,2,,,,,,,,,,,,,,,0,64,127,,
22800,note_on,0,0,2,,,,,,,,,,,,,,,0,,,50,27
22800,note_on,0,0,1,,,,,,,,,,,,,,,0,,,58,35
22800,note_on,0,0,1,,,,,,,,,,,,,,,0,,,70,46
22800,note_on,0,0,1,,,,,,,,,,,,,,,0,,,60,0
22800,note_on,240,0,1,,,,,,,,,,,,,,,0,,,65,0
22800,set_tempo,240,1,0,,,,,,,,,,,,765404,,,,,,,
22800,note_on,160,0,2,,,,,,,,,,,,,,,0,,,51,0
22800,note_on,0,0,1,,,,,,,,,,,,,,,0,,,65,39
22800,note_on,0,0,1,,,,,,,,,,,,,,,0,,,72,0
23040,note_on,240,0,2,,,,,,,,,,,,,,,0,,,50,0
23040,note_on,0,0,2,,,,,,,,,,,,,,,0,,,51,31
23040,control_change,0,0,2,,,,,,,,,,,,,,,0,64,0,,
23040,set_tempo,240,1,0,,,,,,,,,,,,743863,,,,,,,
23040,note_on,240,0,1,,,,,,,,,,,,,,,0,,,65,0
23040,note_on,0,0,1,,,,,,,,,,,,,,,0,,,58,0
23040,note_on,0,0,2,,,,,,,,,,,,,,,0,,,41,26
23040,note_on,0,0,2,,,,,,,,,,,,,,,0,,,46,0
23040,note_on,0,0,1,,,,,,,,,,,,,,,0,,,70,0
23040,note_on,0,0,1,,,,,,,,,,,,,,,0,,,60,35
23040,note_on,0,0,1,,,,,,,,,,,,,,,0,,,65,39
23040,note_on,0,0,1,,,,,,,,,,,,,,,0,,,72,47
23167,control_change,127,0,2,,,,,,,,,,,,,,,0,64,127,,
23280,set_tempo,240,1,0,,,,,,,,,,,,754527,,,,,,,
23280,note_on,0,0,2,,,,,,,,,,,,,,,0,,,53,25
23280,note_on,113,0,2,,,,,,,,,,,,,,,0,,,51,0
23520,note_on,0,0,1,,,,,,,,,,,,,,,0,,,65,0
23520,note_on,0,0,1,,,,,,,,,,,,,,,0,,,72,46
23520,set_tempo,240,1,0,,,,,,,,,,,,743863,,,,,,,
23520,note_on,480,0,1,,,,,,,,,,,,,,,0,,,60,0
23520,note_on,0,0,1,,,,,,,,,,,,,,,0,,,65,38
23520,note_on,0,0,1,,,,,,,,,,,,,,,0,,,60,34
23520,note_on,0,0,2,,,,,,,,,,,,,,,0,,,41,26
23520,note_on,0,0,2,,,,,,,,,,,,,,,0,,,51,29
23520,note_on,0,0,1,,,,,,,,,,,,,,,0,,,72,0
23520,note_on,240,0,2,,,,,,,,,,,,,,,0,,,53,0
23520,note_on,0,0,2,,,,,,,,,,,,,,,0,,,41,0
23760,note_on,240,0,2,,,,,,,,,,,,,,,0,,,51,0
23760,set_tempo,240,1,0,,,,,,,,,,,,754527,,,,,,,
23760,note_on,0,0,2,,,,,,,,,,,,,,,0,,,53,25
24000,note_on,240,0,2,,,,,,,,,,,,,,,0,,,53,0
24000,note_on,0,0,2,,,,,,,,,,,,,,,0,,,41,0
24000,note_on,0,0,2,,,,,,,,,,,,,,,0,,,51,29
24000,note_on,0,0,2,,,,,,,,,,,,,,,0,,,41,26
24000,note_on,0,0,1,,,,,,,,,,,,,,,0,,,60,0
24000,note_on,0,0,1,,,,,,,,,,,,,,,0,,,65,0
24000,note_on,480,0,1,,,,,,,,,,,,,,,0,,,72,0
24000,note_on,0,0,1,,,,,,,,,,,,,,,0,,,72,46
24000,note_on,0,0,1,,,,,,,,,,,,,,,0,,,60,34
24000,note_on,0,0,1,,,,,,,,,,,,,,,0,,,65,38
24040,set_tempo,280,1,0,,,,,,,,,,,,743863,,,,,,,
24240,note_on,0,0,2,,,,,,,,,,,,,,,0,,,53,28
24240,note_on,240,0,2,,,,,,,,,,,,,,,0,,,51,0
24240,set_tempo,200,1,0,,,,,,,,,,,,771010,,,,,,,
24480,note_on,0,0,2,,,,,,,,,,,,,,,0,,,50,33
24480,note_on,0,0,2,,,,,,,,,,,,,,,0,,,41,27
24480,note_on,0,0,2,,,,,,,,,,,,,,,0,,,41,0
24480,note_on,240,0,2,,,,,,,,,,,,,,,0,,,53,0
24480,set_tempo,240,1,0,,,,,,,,,,,,743863,,,,,,,
24480,note_on,0,0,1,,,,,,,,,,,,,,,0,,,60,0
24480,note_on,0,0,1,,,,,,,,,,,,,,,0,,,65,0
24480,note_on,0,0,1,,,,,,,,,,,,,,,0,,,65,42
24480,note_on,0,0,1,,,,,,,,,,,,,,,0,,,58,37
24480,note_on,0,0,1,,,,,,,,,,,,,,,0,,,70,50
24480,note_on,480,0,1,,,,,,,,,,,,,,,0,,,72,0
24494,control_change,14,0,2,,,,,,,,,,,,,,,0,64,0,,
24593,control_change,99,0,2,,,,,,,,,,,,,,,0,64,127,,
24720,note_on,127,0,2,,,,,,,,,,,,,,,0,,,50,0
24720,note_on,0,0,2,,,,,,,,,,,,,,,0,,,48,25
24720,note_on,0,0,1,,,,,,,,,,,,,,,0,,,69,45
24720,set_tempo,240,1,0,,,,,,,,,,,,805369,,,,,,,
24720,note_on,240,0,1,,,,,,,,,,,,,,,0,,,70,0
24720,note_on,0,0,1,,,,,,,,,,,,,,,0,,,58,0
24720,note_on,0,0,1,,,,,,,,,,,,,,,0,,,65,0
24720,note_on,0,0,1,,,,,,,,,,,,,,,0,,,65,38
24720,note_on,0,0,1,,,,,,,,,,,,,,,0,,,57,30
24920,set_tempo,200,1,0,,,,,,,,,,,,754527,,,,,,,
24960,note_on,240,0,1,,,,,,,,,,,,,,,0,,,69,0
24960,control_change,0,0,2,,,,,,,,,,,,,,,0,64,0,,
24960,note_on,0,0,1,,,,,,,,,,,,,,,0,,,57,0
24960,note_on,0,0,2,,,,,,,,,,,,,,,0,,,41,0
24960,note_on,240,0,2,,,,,,,,,,,,,,,0,,,48,0
24960,note_on,0,0,1,,,,,,,,,,,,,,,0,,,65,0
24960,note_on,0,0,1,,,,,,,,,,,,,,,0,,,58,37
24960,note_on,0,0,2,,,,,,,,,,,,,,,0,,,46,28
24960,note_on,0,0,1,,,,,,,,,,,,,,,0,,,65,52
24960,note_on,0,0,2,,,,,,,,,,,,,,,0,,,50,34
24960,note_on,0,0,1,,,,,,,,,,,,,,,0,,,70,52
25087,control_change,127,0,2,,,,,,,,,,,,,,,0,64,127,,
25200,note_on,0,0,2,,,,,,,,,,,,,,,0,,,53,30
25200,note_on,113,0,2,,,,,,,,,,,,,,,0,,,50,0
25440,note_on,480,0,1,,,,,,,,,,,,,,,0,,,65,0
25440,note_on,0,0,1,,,,,,,,,,,,,,,0,,,63,42
25440,note_on,0,0,1,,,,,,,,,,,,,,,0,,,67,50
25440,note_on,240,0,2,,,,,,,,,,,,,,,0,,,53,0
25440,note_on,0,0,2,,,,,,,,,,,,,,,0,,,51,33
25440,set_tempo,520,1,0,,,,,,,,,,,,754527,,,,,,,
25511,control_change,71,0,2,,,,,,,,,,,,,,,0,64,0,,
25595,control_change,84,0,2,,,,,,,,,,,,,,,0,64,127,,
25680,note_on,85,0,2,,,,,,,,,,,,,,,0,,,51,0
25680,note_on,0,0,2,,,,,,,,,,,,,,,0,,,55,28
25720,set_tempo,280,1,0,,,,,,,,,,,,782371,,,,,,,
25920,set_tempo,200,1,0,,,,,,,,,,,,759878,,,,,,,
25920,note_on,480,0,1,,,,,,,,,,,,,,,0,,,67,0
25920,note_on,0,0,1,,,,,,,,,,,,,,,0,,,63,0
25920,note_on,0,0,1,,,,,,,,,,,,,,,0,,,65,44
25920,note_on,0,0,1,,,,,,,,,,,,,,,0,,,62,36
25920,note_on,240,0,2,,,,,,,,,,,,,,,0,,,55,0
25920,note_on,0,0,2,,,,,,,,,,,,,,,0,,,50,29
25976,control_change,56,0,2,,,,,,,,,,,,,,,0,64,0,,
26132,control_change,156,0,2,,,,,,,,,,,,,,,0,64,127,,
26160,set_tempo,240,1,0,,,,,,,,,,,,782371,,,,,,,
26160,note_on,0,0,2,,,,,,,,,,,,,,,0,,,53,30
26160,note_on,28,0,2,,,,,,,,,,,,,,,0,,,50,0
26400,note_on,0,0,1,,,,,,,,,,,,,,,0,,,62,0
26400,note_on,0,0,1,,,,,,,,,,,,,,,0,,,70,0
26400,note_on,0,0,1,,,,,,,,,,,,,,,0,,,58,0
26400,note_on,480,0,1,,,,,,,,,,,,,,,0,,,65,0
26400,note_on,0,0,1,,,,,,,,,,,,,,,0,,,65,51
26400,set_tempo,240,1,0,,,,,,,,,,,,805369,,,,,,,
26400,note_on,240,0,2,,,,,,,,,,,,,,,0,,,53,0
26400,note_on,0,0,2,,,,,,,,,,,,,,,0,,,46,0
26400,note_on,0,0,2,,,,,,,,,,,,,,,0,,,50,39
26400,note_on,0,0,2,,,,,,,,,,,,,,,0,,,44,28
26400,note_on,0,0,1,,,,,,,,,,,,,,,0,,,62,45
26400,note_on,0,0,1,,,,,,,,,,,,,,,0,,,74,61
26442,control_change,42,0,2,,,,,,,,,,,,,,,0,64,0,,
26499,control_change,57,0,2,,,,,,,,,,,,,,,0,64,127,,
26640,note_on,0,0,2,,,,,,,,,,,,,,,0,,,53,34
26640,note_on,141,0,2,,,,,,,,,,,,,,,0,,,50,0
26640,set_tempo,240,1,0,,,,,,,,,,,,875912,,,,,,,
26880,note_on,0,0,2,,,,,,,,,,,,,,,0,,,43,30
26880,note_on,0,0,2,,,,,,,,,,,,,,,0,,,44,0
26880,note_on,240,0,2,,,,,,,,,,,,,,,0,,,53,0
26880,set_tempo,240,1,0,,,,,,,,,,,,743863,,,,,,,
26880,control_change,0,0,2,,,,,,,,,,,,,,,0,64,0,,
26880,note_on,480,0,1,,,,,,,,,,,,,,,0,,,74,0
26880,note_on,0,0,1,,,,,,,,,,,,,,,0,,,62,0
26880,note_on,0,0,1,,,,,,,,,,,,,,,0,,,65,0
26880,note_on,0,0,2,,,,,,,,,,,,,,,0,,,53,36
26880,note_on,0,0,1,,,,,,,,,,,,,,,0,,,62,45
26880,note_on,0,0,1,,,,,,,,,,,,,,,0,,,74,60
26880,note_on,0,0,1,,,,,,,,,,,,,,,0,,,67,51
26994,control_change,114,0,2,,,,,,,,,,,,,,,0,64,127,,
27120,set_tempo,240,1,0,,,,,,,,,,,,738643,,,,,,,
27120,note_on,126,0,2,,,,,,,,,,,,,,,0,,,55,32
27240,note_on,120,0,2,,,,,,,,,,,,,,,0,,,55,0
27360,note_on,120,0,2,,,,,,,,,,,,,,,0,,,55,33
27360,set_tempo,240,1,0,,,,,,,,,,,,728332,,,,,,,
27480,note_on,120,0,2,,,,,,,,,,,,,,,0,,,55,0
27600,note_on,120,0,2,,,,,,,,,,,,,,,0,,,55,30
27720,note_on,120,0,2,,,,,,,,,,,,,,,0,,,55,0
27840,note_on,120,0,2,,,,,,,,,,,,,,,0,,,55,34
27960,note_on,120,0,2,,,,,,,,,,,,,,,0,,,55,0
28080,note_on,120,0,2,,,,,,,,,,,,,,,0,,,55,31
28200,note_on,120,0,2,,,,,,,,,,,,,,,0,,,55,0
28320,note_on,0,0,1,,,,,,,,,,,,,,,0,,,67,0
28320,note_on,0,0,1,,,,,,,,,,,,,,,0,,,67,46
28320,note_on,120,0,2,,,,,,,,,,,,,,,0,,,43,0
28320,note_on,0,0,2,,,,,,,,,,,,,,,0,,,53,0
28320,note_on,0,0,2,,,,,,,,,,,,,,,0,,,43,24
28320,control_change,0,0,2,,,,,,,,,,,,,,,0,64,0,,
28320,note_on,0,0,2,,,,,,,,,,,,,,,0,,,55,33
28320,note_on,0,0,2,,,,,,,,,,,,,,,0,,,51,27
28320,note_on,0,0,1,,,,,,,,,,,,,,,0,,,72,55
28320,note_on,0,0,1,,,,,,,,,,,,,,,0,,,62,0
28320,note_on,1440,0,1,,,,,,,,,,,,,,,0,,,74,0
28320,note_on,0,0,1,,,,,,,,,,,,,,,0,,,60,41
28434,control_change,114,0,2,,,,,,,,,,,,,,,0,64,127,,
28560,note_on,240,0,1,,,,,,,,,,,,,,,0,,,60,0
28560,note_on,0,0,1,,,,,,,,,,,,,,,0,,,72,0
28560,note_on,0,0,2,,,,,,,,,,,,,,,0,,,51,0
28560,note_on,0,0,2,,,,,,,,,,,,,,,0,,,43,24
28560,note_on,0,0,2,,,,,,,,,,,,,,,0,,,55,31
28560,note_on,0,0,2,,,,,,,,,,,,,,,0,,,50,27
28560,note_on,0,0,2,,,,,,,,,,,,,,,0,,,43,0
28560,note_on,126,0,2,,,,,,,,,,,,,,,0,,,55,0
28560,note_on,0,0,1,,,,,,,,,,,,,,,0,,,71,50
28560,note_on,0,0,1,,,,,,,,,,,,,,,0,,,67,42
28560,note_on,0,0,1,,,,,,,,,,,,,,,0,,,59,37
28560,set_tempo,1200,1,0,,,,,,,,,,,,733407,,,,,,,
28560,note_on,0,0,1,,,,,,,,,,,,,,,0,,,67,0
28800,set_tempo,240,1,0,,,,,,,,,,,,713606,,,,,,,
28800,note_on,0,0,2,,,,,,,,,,,,,,,0,,,48,34
28800,control_change,0,0,2,,,,,,,,,,,,,,,0,64,0,,
28800,note_on,0,0,1,,,,,,,,,,,,,,,0,,,75,65
28800,note_on,0,0,1,,,,,,,,,,,,,,,0,,,71,0
28800,note_on,0,0,1,,,,,,,,,,,,,,,0,,,59,0
28800,note_on,240,0,1,,,,,,,,,,,,,,,0,,,67,0
28800,note_on,240,0,2,,,,,,,,,,,,,,,0,,,43,0
28800,note_on,0,0,2,,,,,,,,,,,,,,,0,,,55,0
28800,note_on,0,0,2,,,,,,,,,,,,,,,0,,,50,0
28800,note_on,0,0,2,,,,,,,,,,,,,,,0,,,43,28
28800,note_on,0,0,1,,,,,,,,,,,,,,,0,,,63,53
28800,note_on,0,0,1,,,,,,,,,,,,,,,0,,,67,54
28927,control_change,127,0,2,,,,,,,,,,,,,,,0,64,127,,
29040,set_tempo,240,1,0,,,,,,,,,,,,733407,,,,,,,
29040,note_on,0,0,2,,,,,,,,,,,,,,,0,,,55,30
29040,note_on,113,0,2,,,,,,,,,,,,,,,0,,,48,0
29280,note_on,0,0,2,,,,,,,,,,,,,,,0,,,53,33
29280,set_tempo,240,1,0,,,,,,,,,,,,728332,,,,,,,
29280,note_on,480,0,1,,,,,,,,,,,,,,,0,,,67,0
29280,note_on,0,0,1,,,,,,,,,,,,,,,0,,,63,0
29280,note_on,0,0,1,,,,,,,,,,,,,,,0,,,67,50
29280,note_on,0,0,2,,,,,,,,,,,,,,,0,,,43,28
29280,note_on,0,0,1,,,,,,,,,,,,,,,0,,,62,50
29280,note_on,0,0,1,,,,,,,,,,,,,,,0,,,75,0
29280,note_on,0,0,1,,,,,,,,,,,,,,,0,,,74,59
29280,note_on,240,0,2,,,,,,,,,,,,,,,0,,,55,0
29280,note_on,0,0,2,,,,,,,,,,,,,,,0,,,43,0
29351,control_change,71,0,2,,,,,,,,,,,,,,,0,64,0,,
29435,control_change,84,0,2,,,,,,,,,,,,,,,0,64,127,,
29520,note_on,85,0,2,,,,,,,,,,,,,,,0,,,53,0
29520,set_tempo,240,1,0,,,,,,,,,,,,765404,,,,,,,
29520,note_on,0,0,2,,,,,,,,,,,,,,,0,,,55,28
29560,set_tempo,40,1,0,,,,,,,,,,,,782371,,,,,,,
29760,note_on,480,0,1,,,,,,,,,,,,,,,0,,,67,0
29760,note_on,0,0,1,,,,,,,,,,,,,,,0,,,62,0
29760,note_on,0,0,1,,,,,,,,,,,,,,,0,,,74,0
29760,note_on,0,0,2,,,,,,,,,,,,,,,0,,,43,0
29760,note_on,0,0,1,,,,,,,,,,,,,,,0,,,67,48
29760,note_on,240,0,2,,,,,,,,,,,,,,,0,,,55,0
29760,note_on,0,0,1,,,,,,,,,,,,,,,0,,,60,48
29760,note_on,0,0,2,,,,,,,,,,,,,,,0,,,43,27
29760,note_on,0,0,2,,,,,,,,,,,,,,,0,,,51,28
29760,set_tempo,200,1,0,,,,,,,,,,,,743863,,,,,,,
29760,note_on,0,0,1,,,,,,,,,,,,,,,0,,,72,57
29816,control_change,56,0,2,,,,,,,,,,,,,,,0,64,0,,
29972,control_change,156,0,2,,,,,,,,,,,,,,,0,64,127,,
30000,set_tempo,240,1,0,,,,,,,,,,,,782371,,,,,,,
30000,note_on,28,0,2,,,,,,,,,,,,,,,0,,,51,0
30000,note_on,0,0,2,,,,,,,,,,,,,,,0,,,55,29
30240,note_on,240,0,2,,,,,,,,,,,,,,,0,,,55,0
30240,note_on,0,0,2,,,,,,,,,,,,,,,0,,,42,28
30240,note_on,0,0,1,,,,,,,,,,,,,,,0,,,72,61
30240,note_on,0,0,1,,,,,,,,,,,,,,,0,,,69,51
30240,note_on,0,0,1,,,,,,,,,,,,,,,0,,,60,45
30240,note_on,0,0,1,,,,,,,,,,,,,,,0,,,72,0
30240,note_on,0,0,1,,,,,,,,,,,,,,,0,,,60,0
30240,note_on,480,0,1,,,,,,,,,,,,,,,0,,,67,0
30240,set_tempo,240,1,0,,,,,,,,,,,,794702,,,,,,,
30240,note_on,0,0,2,,,,,,,,,,,,,,,0,,,43,0
30240,note_on,0,0,2,,,,,,,,,,,,,,,0,,,51,39
30282,control_change,42,0,2,,,,,,,,,,,,,,,0,64,0,,
30339,control_change,57,0,2,,,,,,,,,,,,,,,0,64,127,,
30480,note_on,141,0,2,,,,,,,,,,,,,,,0,,,51,0
30480,note_on,0,0,2,,,,,,,,,,,,,,,0,,,54,34
30480,set_tempo,240,1,0,,,,,,,,,,,,833333,,,,,,,
30720,note_on,0,0,2,,,,,,,,,,,,,,,0,,,51,36
30720,note_on,0,0,1,,,,,,,,,,,,,,,0,,,69,51
30720,note_on,0,0,1,,,,,,,,,,,,,,,0,,,60,45
30720,note_on,0,0,1,,,,,,,,,,,,,,,0,,,72,60
30720,note_on,0,0,1,,,,,,,,,,,,,,,0,,,65,45
30720,note_on,0,0,1,,,,,,,,,,,,,,,0,,,60,0
30720,note_on,0,0,1,,,,,,,,,,,,,,,0,,,69,0
30720,note_on,480,0,1,,,,,,,,,,,,,,,0,,,72,0
30720,note_on,0,0,2,,,,,,,,,,,,,,,0,,,41,30
30720,note_on,0,0,2,,,,,,,,,,,,,,,0,,,42,0
30720,note_on,240,0,2,,,,,,,,,,,,,,,0,,,54,0
30720,control_change,0,0,2,,,,,,,,,,,,,,,0,64,0,,
30720,set_tempo,240,1,0,,,,,,,,,,,,743863,,,,,,,
30834,control_change,114,0,2,,,,,,,,,,,,,,,0,64,127,,
30960,set_tempo,240,1,0,,,,,,,,,,,,738643,,,,,,,
30960,note_on,126,0,2,,,,,,,,,,,,,,,0,,,53,32
31080,note_on,120,0,2,,,,,,,,,,,,,,,0,,,53,0
31200,note_on,120,0,2,,,,,,,,,,,,,,,0,,,53,33
31200,set_tempo,240,1,0,,,,,,,,,,,,728332,,,,,,,
31320,note_on,120,0,2,,,,,,,,,,,,,,,0,,,53,0
31440,note_on,120,0,2,,,,,,,,,,,,,,,0,,,53,30
31560,note_on,120,0,2,,,,,,,,,,,,,,,0,,,53,0
31680,note_on,120,0,2,,,,,,,,,,,,,,,0,,,53,34
31800,note_on,120,0,2,,,,,,,,,,,,,,,0,,,53,0
31920,note_on,120,0,2,,,,,,,,,,,,,,,0,,,53,31
32040,note_on,120,0,2,,,,,,,,,,,,,,,0,,,53,0
32160,note_on,0,0,1,,,,,,,,,,,,,,,0,,,65,0
32160,note_on,0,0,1,,,,,,,,,,,,,,,0,,,72,0
32160,note_on,0,0,1,,,,,,,,,,,,,,,0,,,60,0
32160,note_on,0,0,1,,,,,,,,,,,,,,,0,,,70,55
32160,note_on,0,0,1,,,,,,,,,,,,,,,0,,,58,41
32160,note_on,0,0,1,,,,,,,,,,,,,,,0,,,65,46
32160,note_on,1440,0,1,,,,,,,,,,,,,,,0,,,69,0
32160,note_on,120,0,2,,,,,,,,,,,,,,,0,,,51,0
32160,note_on,0,0,2,,,,,,,,,,,,,,,0,,,41,0
32160,note_on,0,0,2,,,,,,,,,,,,,,,0,,,41,24
32160,note_on,0,0,2,,,,,,,,,,,,,,,0,,,53,33
32160,note_on,0,0,2,,,,,,,,,,,,,,,0,,,50,27
32160,control_change,0,0,2,,,,,,,,,,,,,,,0,64,0,,
32274,control_change,114,0,2,,,,,,,,,,,,,,,0,64,127,,
32400,note_on,0,0,2,,,,,,,,,,,,,,,0,,,53,0
32400,note_on,0,0,1,,,,,,,,,,,,,,,0,,,57,37
32400,note_on,0,0,1,,,,,,,,,,,,,,,0,,,65,42
32400,note_on,240,0,1,,,,,,,,,,,,,,,0,,,65,0
32400,note_on,0,0,2,,,,,,,,,,,,,,,0,,,41,0
32400,note_on,0,0,2,,,,,,,,,,,,,,,0,,,41,24
32400,note_on,0,0,2,,,,,,,,,,,,,,,0,,,53,31
32400,note_on,0,0,1,,,,,,,,,,,,,,,0,,,69,50
32400,note_on,126,0,2,,,,,,,,,,,,,,,0,,,50,0
32400,note_on,0,0,1,,,,,,,,,,,,,,,0,,,70,0
32400,set_tempo,1200,1,0,,,,,,,,,,,,754527,,,,,,,
32400,note_on,0,0,2,,,,,,,,,,,,,,,0,,,48,27
32400,note_on,0,0,1,,,,,,,,,,,,,,,0,,,58,0
32640,control_change,0,0,2,,,,,,,,,,,,,,,0,64,0,,
32640,note_on,0,0,2,,,,,,,,,,,,,,,0,,,46,34
32640,note_on,0,0,2,,,,,,,,,,,,,,,0,,,41,28
32640,note_on,0,0,2,,,,,,,,,,,,,,,0,,,41,0
32640,note_on,0,0,1,,,,,,,,,,,,,,,0,,,57,0
32640,note_on,0,0,2,,,,,,,,,,,,,,,0,,,53,0
32640,note_on,0,0,1,,,,,,,,,,,,,,,0,,,69,0
32640,note_on,0,0,1,,,,,,,,,,,,,,,0,,,62,51
32640,note_on,0,0,1,,,,,,,,,,,,,,,0,,,65,55
32640,note_on,0,0,1,,,,,,,,,,,,,,,0,,,74,65
32640,set_tempo,240,1,0,,,,,,,,,,,,723327,,,,,,,
32640,note_on,240,0,1,,,,,,,,,,,,,,,0,,,65,0
32640,note_on,240,0,2,,,,,,,,,,,,,,,0,,,48,0
32767,control_change,127,0,2,,,,,,,,,,,,,,,0,64,127,,
32880,note_on,113,0,2,,,,,,,,,,,,,,,0,,,46,0
32880,set_tempo,240,1,0,,,,,,,,,,,,754527,,,,,,,
32880,note_on,0,0,2,,,,,,,,,,,,,,,0,,,53,30
33120,set_tempo,240,1,0,,,,,,,,,,,,728332,,,,,,,
33120,note_on,0,0,2,,,,,,,,,,,,,,,0,,,41,26
33120,note_on,0,0,2,,,,,,,,,,,,,,,0,,,48,31
33120,note_on,0,0,2,,,,,,,,,,,,,,,0,,,41,0
33120,note_on,480,0,1,,,,,,,,,,,,,,,0,,,74,0
33120,note_on,0,0,1,,,,,,,,,,,,,,,0,,,65,0
33120,note_on,0,0,1,,,,,,,,,,,,,,,0,,,62,0
33120,note_on,0,0,1,,,,,,,,,,,,,,,0,,,57,47
33120,note_on,0,0,1,,,,,,,,,,,,,,,0,,,69,56
33120,note_on,240,0,2,,,,,,,,,,,,,,,0,,,53,0
33120,note_on,0,0,1,,,,,,,,,,,,,,,0,,,65,47
33191,control_change,71,0,2,,,,,,,,,,,,,,,0,64,0,,
33275,control_change,84,0,2,,,,,,,,,,,,,,,0,64,127,,
33360,note_on,0,0,2,,,,,,,,,,,,,,,0,,,53,26
33360,note_on,85,0,2,,,,,,,,,,,,,,,0,,,48,0
33360,set_tempo,240,1,0,,,,,,,,,,,,765404,,,,,,,
33400,set_tempo,40,1,0,,,,,,,,,,,,782371,,,,,,,
33600,note_on,0,0,1,,,,,,,,,,,,,,,0,,,70,59
33600,note_on,0,0,1,,,,,,,,,,,,,,,0,,,58,50
33600,note_on,0,0,1,,,,,,,,,,,,,,,0,,,57,0
33600,set_tempo,200,1,0,,,,,,,,,,,,743863,,,,,,,
33600,note_on,0,0,2,,,,,,,,,,,,,,,0,,,41,28
33600,note_on,0,0,2,,,,,,,,,,,,,,,0,,,50,29
33600,note_on,0,0,2,,,,,,,,,,,,,,,0,,,41,0
33600,note_on,240,0,2,,,,,,,,,,,,,,,0,,,53,0
33600,note_on,0,0,1,,,,,,,,,,,,,,,0,,,65,0
33600,note_on,0,0,1,,,,,,,,,,,,,,,0,,,65,50
33600,note_on,480,0,1,,,,,,,,,,,,,,,0,,,69,0
33656,control_change,56,0,2,,,,,,,,,,,,,,,0,64,0,,
33812,control_change,156,0,2,,,,,,,,,,,,,,,0,64,127,,
33840,note_on,0,0,2,,,,,,,,,,,,,,,0,,,53,27
33840,set_tempo,240,1,0,,,,,,,,,,,,782371,,,,,,,
33840,note_on,28,0,2,,,,,,,,,,,,,,,0,,,50,0
34080,note_on,0,0,2,,,,,,,,,,,,,,,0,,,51,35
34080,note_on,0,0,2,,,,,,,,,,,,,,,0,,,41,25
34080,note_on,240,0,2,,,,,,,,,,,,,,,0,,,53,0
34080,note_on,0,0,2,,,,,,,,,,,,,,,0,,,41,0
34080,note_on,0,0,1,,,,,,,,,,,,,,,0,,,60,40
34080,note_on,480,0,1,,,,,,,,,,,,,,,0,,,70,0
34080,note_on,0,0,1,,,,,,,,,,,,,,,0,,,65,0
34080,note_on,0,0,1,,,,,,,,,,,,,,,0,,,58,0
34080,note_on,0,0,1,,,,,,,,,,,,,,,0,,,65,45
34080,note_on,0,0,1,,,,,,,,,,,,,,,0,,,72,54
34080,note_on,0,0,1,,,,,,,,,,,,,,,0,,,69,45
34122,control_change,42,0,2,,,,,,,,,,,,,,,0,64,0,,
34179,control_change,57,0,2,,,,,,,,,,,,,,,0,64,127,,
34320,set_tempo,480,1,0,,,,,,,,,,,,800213,,,,,,,
34320,note_on,141,0,2,,,,,,,,,,,,,,,0,,,51,0
34320,note_on,0,0,2,,,,,,,,,,,,,,,0,,,53,30
34560,note_on,240,0,2,,,,,,,,,,,,,,,0,,,53,0
34560,note_on,0,0,2,,,,,,,,,,,,,,,0,,,41,0
34560,note_on,0,0,2,,,,,,,,,,,,,,,0,,,41,27
34560,note_on,0,0,2,,,,,,,,,,,,,,,0,,,51,32
34560,note_on,0,0,2,,,,,,,,,,,,,,,0,,,53,32
34560,control_change,0,0,2,,,,,,,,,,,,,,,0,64,0,,
34560,note_on,0,0,1,,,,,,,,,,,,,,,0,,,60,0
34560,note_on,0,0,1,,,,,,,,,,,,,,,0,,,65,0
34560,note_on,0,0,1,,,,,,,,,,,,,,,0,,,69,45
34560,note_on,0,0,1,,,,,,,,,,,,,,,0,,,60,40
34560,note_on,0,0,1,,,,,,,,,,,,,,,0,,,72,54
34560,note_on,0,0,1,,,,,,,,,,,,,,,0,,,72,0
34560,note_on,480,0,1,,,,,,,,,,,,,,,0,,,69,0
34560,note_on,0,0,1,,,,,,,,,,,,,,,0,,,65,40
34560,set_tempo,240,1,0,,,,,,,,,,,,782371,,,,,,,
34674,control_change,114,0,2,,,,,,,,,,,,,,,0,64,127,,
35520,note_on,960,0,1,,,,,,,,,,,,,,,0,,,69,0
35520,control_change,0,0,2,,,,,,,,,,,,,,,0,64,0,,
35520,note_on,846,0,2,,,,,,,,,,,,,,,0,,,51,0
35520,note_on,0,0,2,,,,,,,,,,,,,,,0,,,41,0
35520,note_on,0,0,2,,,,,,,,,,,,,,,0,,,50,28
35520,note_on,0,0,2,,,,,,,,,,,,,,,0,,,46,28
35520,note_on,0,0,1,,,,,,,,,,,,,,,0,,,60,0
35520,note_on,0,0,1,,,,,,,,,,,,,,,0,,,72,0
35520,note_on,0,0,1,,,,,,,,,,,,,,,0,,,58,48
35520,note_on,0,0,1,,,,,,,,,,,,,,,0,,,70,48
35760,note_on,0,0,1,,,,,,,,,,,,,,,0,,,58,0
35760,note_on,0,0,2,,,,,,,,,,,,,,,0,,,50,0
35760,note_on,0,0,1,,,,,,,,,,,,,,,0,,,65,0
35760,note_on,240,0,1,,,,,,,,,,,,,,,0,,,70,0
35760,note_on,0,0,2,,,,,,,,,,,,,,,0,,,53,0
35760,note_on,240,0,2,,,,,,,,,,,,,,,0,,,46,0
36000,note_on,240,0,2,,,,,,,,,,,,,,,0,,,34,30
36000,set_tempo,1440,1,0,,,,,,,,,,,,728332,,,,,,,
36240,note_on,240,0,2,,,,,,,,,,,,,,,0,,,34,0
36480,set_tempo,480,1,0,,,,,,,,,,,,825196,,,,,,,
36480,note_on,240,0,2,,,,,,,,,,,,,,,0,,,34,30
36540,note_on,60,0,2,,,,,,,,,,,,,,,0,,,35,26
36544,set_tempo,64,1,0,,,,,,,,,,,,818777,,,,,,,
36570,note_on,30,0,2,,,,,,,,,,,,,,,0,,,34,0
36600,note_on,30,0,2,,,,,,,,,,,,,,,0,,,34,27
36600,set_tempo,56,1,0,,,,,,,,,,,,812458,,,,,,,
36630,note_on,30,0,2,,,,,,,,,,,,,,,0,,,35,0
36660,note_on,30,0,2,,,,,,,,,,,,,,,0,,,35,25
36664,set_tempo,64,1,0,,,,,,,,,,,,806235,,,,,,,
36690,note_on,30,0,2,,,,,,,,,,,,,,,0,,,34,0
36720,set_tempo,56,1,0,,,,,,,,,,,,800213,,,,,,,
36720,note_on,30,0,2,,,,,,,,,,,,,,,0,,,34,27
36750,note_on,30,0,2,,,,,,,,,,,,,,,0,,,35,0
36780,note_on,30,0,2,,,,,,,,,,,,,,,0,,,35,25
36784,set_tempo,64,1,0,,,,,,,,,,,,794176,,,,,,,
36810,note_on,30,0,2,,,,,,,,,,,,,,,0,,,34,0
36840,note_on,30,0,2,,,,,,,,,,,,,,,0,,,34,28
36840,set_tempo,56,1,0,,,,,,,,,,,,788229,,,,,,,
36852,set_tempo,12,1,0,,,,,,,,,,,,765404,,,,,,,
36864,set_tempo,12,1,0,,,,,,,,,,,,759878,,,,,,,
36870,note_on,30,0,2,,,,,,,,,,,,,,,0,,,35,0
36900,note_on,30,0,2,,,,,,,,,,,,,,,0,,,35,27
36920,set_tempo,56,1,0,,,,,,,,,,,,765404,,,,,,,
36930,note_on,30,0,2,,,,,,,,,,,,,,,0,,,34,0
36932,set_tempo,12,1,0,,,,,,,,,,,,776699,,,,,,,
36960,note_on,30,0,2,,,,,,,,,,,,,,,0,,,34,29
36972,set_tempo,40,1,0,,,,,,,,,,,,765404,,,,,,,
36990,note_on,30,0,2,,,,,,,,,,,,,,,0,,,35,0
37000,set_tempo,28,1,0,,,,,,,,,,,,759878,,,,,,,
37012,set_tempo,12,1,0,,,,,,,,,,,,749157,,,,,,,
37020,note_on,30,0,2,,,,,,,,,,,,,,,0,,,35,26
37024,set_tempo,12,1,0,,,,,,,,,,,,743863,,,,,,,
37040,set_tempo,16,1,0,,,,,,,,,,,,754527,,,,,,,
37050,note_on,30,0,2,,,,,,,,,,,,,,,0,,,34,0
37052,set_tempo,12,1,0,,,,,,,,,,,,759878,,,,,,,
37064,set_tempo,12,1,0,,,,,,,,,,,,771010,,,,,,,
37080,set_tempo,16,1,0,,,,,,,,,,,,765404,,,,,,,
37080,note_on,30,0,2,,,,,,,,,,,,,,,0,,,34,29
37092,set_tempo,12,1,0,,,,,,,,,,,,754527,,,,,,,
37104,set_tempo,12,1,0,,,,,,,,,,,,749157,,,,,,,
37110,note_on,30,0,2,,,,,,,,,,,,,,,0,,,35,0
37120,set_tempo,16,1,0,,,,,,,,,,,,743863,,,,,,,
37132,set_tempo,12,1,0,,,,,,,,,,,,738643,,,,,,,
37140,note_on,30,0,2,,,,,,,,,,,,,,,0,,,35,25
37170,note_on,30,0,2,,,,,,,,,,,,,,,0,,,34,0
37172,set_tempo,40,1,0,,,,,,,,,,,,749157,,,,,,,
37184,set_tempo,12,1,0,,,,,,,,,,,,759878,,,,,,,
37200,note_on,30,0,2,,,,,,,,,,,,,,,0,,,34,28
37200,set_tempo,16,1,0,,,,,,,,,,,,765404,,,,,,,
37212,set_tempo,12,1,0,,,,,,,,,,,,771010,,,,,,,
37230,note_on,30,0,2,,,,,,,,,,,,,,,0,,,35,0
37240,set_tempo,28,1,0,,,,,,,,,,,,765404,,,,,,,
37252,set_tempo,12,1,0,,,,,,,,,,,,754527,,,,,,,
37260,note_on,30,0,2,,,,,,,,,,,,,,,0,,,35,26
37264,set_tempo,12,1,0,,,,,,,,,,,,749157,,,,,,,
37280,set_tempo,16,1,0,,,,,,,,,,,,743863,,,,,,,
37290,note_on,30,0,2,,,,,,,,,,,,,,,0,,,34,0
37292,set_tempo,12,1,0,,,,,,,,,,,,738643,,,,,,,
37304,set_tempo,12,1,0,,,,,,,,,,,,743863,,,,,,,
37320,note_on,30,0,2,,,,,,,,,,,,,,,0,,,34,27
37320,set_tempo,16,1,0,,,,,,,,,,,,754527,,,,,,,
37332,set_tempo,12,1,0,,,,,,,,,,,,759878,,,,,,,
37350,note_on,30,0,2,,,,,,,,,,,,,,,0,,,35,0
37360,set_tempo,28,1,0,,,,,,,,,,,,765404,,,,,,,
37380,note_on,30,0,2,,,,,,,,,,,,,,,0,,,35,25
37384,set_tempo,24,1,0,,,,,,,,,,,,754527,,,,,,,
37400,set_tempo,16,1,0,,,,,,,,,,,,749157,,,,,,,
37410,note_on,30,0,2,,,,,,,,,,,,,,,0,,,34,0
37412,set_tempo,12,1,0,,,,,,,,,,,,738643,,,,,,,
37424,set_tempo,12,1,0,,,,,,,,,,,,743863,,,,,,,
37440,set_tempo,16,1,0,,,,,,,,,,,,765404,,,,,,,
37440,note_on,30,0,2,,,,,,,,,,,,,,,0,,,34,29
37452,set_tempo,12,1,0,,,,,,,,,,,,776699,,,,,,,
37464,set_tempo,12,1,0,,,,,,,,,,,,782371,,,,,,,
37470,note_on,30,0,2,,,,,,,,,,,,,,,0,,,35,0
37480,set_tempo,16,1,0,,,,,,,,,,,,776699,,,,,,,
37492,set_tempo,12,1,0,,,,,,,,,,,,759878,,,,,,,
37500,note_on,30,0,2,,,,,,,,,,,,,,,0,,,35,26
37504,set_tempo,12,1,0,,,,,,,,,,,,754527,,,,,,,
37520,set_tempo,16,1,0,,,,,,,,,,,,749157,,,,,,,
37530,note_on,30,0,2,,,,,,,,,,,,,,,0,,,34,0
37532,set_tempo,12,1,0,,,,,,,,,,,,743863,,,,,,,
37544,set_tempo,12,1,0,,,,,,,,,,,,749157,,,,,,,
37560,set_tempo,16,1,0,,,,,,,,,,,,765404,,,,,,,
37560,note_on,30,0,2,,,,,,,,,,,,,,,0,,,34,28
37572,set_tempo,12,1,0,,,,,,,,,,,,771010,,,,,,,
37590,note_on,30,0,2,,,,,,,,,,,,,,,0,,,35,0
37600,set_tempo,28,1,0,,,,,,,,,,,,759878,,,,,,,
37612,set_tempo,12,1,0,,,,,,,,,,,,749157,,,,,,,
37620,note_on,30,0,2,,,,,,,,,,,,,,,0,,,35,26
37624,set_tempo,12,1,0,,,,,,,,,,,,743863,,,,,,,
37640,set_tempo,16,1,0,,,,,,,,,,,,738643,,,,,,,
37650,note_on,30,0,2,,,,,,,,,,,,,,,0,,,34,0
37652,set_tempo,12,1,0,,,,,,,,,,,,743863,,,,,,,
37664,set_tempo,12,1,0,,,,,,,,,,,,754527,,,,,,,
37680,note_on,30,0,2,,,,,,,,,,,,,,,0,,,34,28
37680,set_tempo,16,1,0,,,,,,,,,,,,759878,,,,,,,
37692,set_tempo,12,1,0,,,,,,,,,,,,765404,,,,,,,
37710,note_on,30,0,2,,,,,,,,,,,,,,,0,,,35,0
37732,set_tempo,40,1,0,,,,,,,,,,,,754527,,,,,,,
37740,note_on,30,0,2,,,,,,,,,,,,,,,0,,,35,25
37744,set_tempo,12,1,0,,,,,,,,,,,,749157,,,,,,,
37760,set_tempo,16,1,0,,,,,,,,,,,,743863,,,,,,,
37770,note_on,30,0,2,,,,,,,,,,,,,,,0,,,34,0
37800,note_on,30,0,2,,,,,,,,,,,,,,,0,,,34,28
37812,set_tempo,52,1,0,,,,,,,,,,,,754527,,,,,,,
37824,set_tempo,12,1,0,,,,,,,,,,,,765404,,,,,,,
37830,note_on,30,0,2,,,,,,,,,,,,,,,0,,,35,0
37860,note_on,30,0,2,,,,,,,,,,,,,,,0,,,35,25
37880,set_tempo,56,1,0,,,,,,,,,,,,681431,,,,,,,
37890,note_on,30,0,2,,,,,,,,,,,,,,,0,,,34,0
37920,set_tempo,40,1,0,,,,,,,,,,,,759494,,,,,,,
37920,note_on,2160,0,1,,,,,,,,,,,,,,,0,,,70,51
37920,note_on,30,0,2,,,,,,,,,,,,,,,0,,,34,30
37943,control_change,23,0,2,,,,,,,,,,,,,,,0,64,127,,
37950,note_on,7,0,2,,,,,,,,,,,,,,,0,,,35,0
37960,set_tempo,40,1,0,,,,,,,,,,,,764331,,,,,,,
37980,set_tempo,20,1,0,,,,,,,,,,,,769231,,,,,,,
38020,set_tempo,40,1,0,,,,,,,,,,,,774194,,,,,,,
38040,set_tempo,20,1,0,,,,,,,,,,,,779221,,,,,,,
38040,note_on,90,0,2,,,,,,,,,,,,,,,0,,,33,26
38060,note_on,20,0,2,,,,,,,,,,,,,,,0,,,34,0
38080,set_tempo,40,1,0,,,,,,,,,,,,784314,,,,,,,
38100,set_tempo,20,1,0,,,,,,,,,,,,789474,,,,,,,
38120,set_tempo,20,1,0,,,,,,,,,,,,794702,,,,,,,
38160,note_on,100,0,2,,,,,,,,,,,,,,,0,,,32,30
38160,set_tempo,40,1,0,,,,,,,,,,,,800000,,,,,,,
38180,note_on,20,0,2,,,,,,,,,,,,,,,0,,,33,0
38180,set_tempo,20,1,0,,,,,,,,,,,,805369,,,,,,,
38220,set_tempo,40,1,0,,,,,,,,,,,,810811,,,,,,,
38240,set_tempo,20,1,0,,,,,,,,,,,,816327,,,,,,,
38260,set_tempo,20,1,0,,,,,,,,,,,,821918,,,,,,,
38280,note_on,100,0,2,,,,,,,,,,,,,,,0,,,31,26
38300,set_tempo,40,1,0,,,,,,,,,,,,827586,,,,,,,
38300,note_on,20,0,2,,,,,,,,,,,,,,,0,,,32,0
38320,set_tempo,20,1,0,,,,,,,,,,,,833333,,,,,,,
38360,set_tempo,40,1,0,,,,,,,,,,,,839161,,,,,,,
38380,set_tempo,20,1,0,,,,,,,,,,,,845070,,,,,,,
38400,note_on,0,0,1,,,,,,,,,,,,,,,0,,,70,52
38400,note_on,480,0,1,,,,,,,,,,,,,,,0,,,70,0
38400,note_on,100,0,2,,,,,,,,,,,,,,,0,,,30,30
38400,set_tempo,20,1,0,,,,,,,,,,,,851064,,,,,,,
38411,control_change,11,0,2,,,,,,,,,,,,,,,0,64,0,,
38420,note_on,9,0,2,,,,,,,,,,,,,,,0,,,31,0
38434,control_change,14,0,2,,,,,,,,,,,,,,,0,64,127,,
38520,note_on,86,0,2,,,,,,,,,,,,,,,0,,,30,0
38520,note_on,0,0,2,,,,,,,,,,,,,,,0,,,49,26
38640,set_tempo,240,1,0,,,,,,,,,,,,750000,,,,,,,
38640,note_on,120,0,2,,,,,,,,,,,,,,,0,,,49,0
38640,note_on,0,0,2,,,,,,,,,,,,,,,0,,,54,26
38760,note_on,0,0,2,,,,,,,,,,,,,,,0,,,49,26
38760,note_on,120,0,2,,,,,,,,,,,,,,,0,,,54,0
38880,set_tempo,240,1,0,,,,,,,,,,,,713012,,,,,,,
38880,note_on,0,0,2,,,,,,,,,,,,,,,0,,,42,31
38880,note_on,480,0,1,,,,,,,,,,,,,,,0,,,70,0
38880,note_on,0,0,1,,,,,,,,,,,,,,,0,,,68,51
38880,note_on,120,0,2,,,,,,,,,,,,,,,0,,,49,0
38900,set_tempo,20,1,0,,,,,,,,,,,,736196,,,,,,,
38914,control_change,34,0,2,,,,,,,,,,,,,,,0,64,0,,
38949,control_change,35,0,2,,,,,,,,,,,,,,,0,64,127,,
39000,note_on,51,0,2,,,,,,,,,,,,,,,0,,,42,0
39000,note_on,0,0,2,,,,,,,,,,,,,,,0,,,49,26
39020,set_tempo,120,1,0,,,,,,,,,,,,731707,,,,,,,
39100,set_tempo,80,1,0,,,,,,,,,,,,727273,,,,,,,
39120,note_on,120,0,2,,,,,,,,,,,,,,,0,,,49,0
39120,note_on,0,0,2,,,,,,,,,,,,,,,0,,,53,26
39180,set_tempo,80,1,0,,,,,,,,,,,,722892,,,,,,,
39240,note_on,120,0,2,,,,,,,,,,,,,,,0,,,53,0
39240,note_on,0,0,2,,,,,,,,,,,,,,,0,,,49,25
39260,set_tempo,80,1,0,,,,,,,,,,,,718563,,,,,,,
39340,set_tempo,80,1,0,,,,,,,,,,,,714286,,,,,,,
39360,note_on,480,0,1,,,,,,,,,,,,,,,0,,,68,0
39360,note_on,0,0,2,,,,,,,,,,,,,,,0,,,42,30
39360,note_on,120,0,2,,,,,,,,,,,,,,,0,,,49,0
39360,note_on,0,0,1,,,,,,,,,,,,,,,0,,,70,52
39377,control_change,17,0,2,,,,,,,,,,,,,,,0,64,0,,
39423,control_change,46,0,2,,,,,,,,,,,,,,,0,64,127,,
39480,note_on,57,0,2,,,,,,,,,,,,,,,0,,,42,0
39480,note_on,0,0,2,,,,,,,,,,,,,,,0,,,49,27
39500,set_tempo,160,1,0,,,,,,,,,,,,718563,,,,,,,
39600,note_on,0,0,2,,,,,,,,,,,,,,,0,,,54,27
39600,note_on,120,0,2,,,,,,,,,,,,,,,0,,,49,0
39660,set_tempo,160,1,0,,,,,,,,,,,,722892,,,,,,,
39720,note_on,120,0,2,,,,,,,,,,,,,,,0,,,54,0
39720,note_on,0,0,2,,,,,,,,,,,,,,,0,,,49,27
39780,set_tempo,120,1,0,,,,,,,,,,,,727273,,,,,,,
39800,set_tempo,20,1,0,,,,,,,,,,,,717618,,,,,,,
39829,control_change,109,0,2,,,,,,,,,,,,,,,0,64,0,,
39840,note_on,480,0,1,,,,,,,,,,,,,,,0,,,70,0
39840,set_tempo,40,1,0,,,,,,,,,,,,727273,,,,,,,
39840,note_on,0,0,2,,,,,,,,,,,,,,,0,,,42,30
39840,note_on,11,0,2,,,,,,,,,,,,,,,0,,,49,0
39840,note_on,0,0,1,,,,,,,,,,,,,,,0,,,71,50
39880,control_change,40,0,2,,,,,,,,,,,,,,,0,64,127,,
39960,note_on,0,0,2,,,,,,,,,,,,,,,0,,,49,27
39960,note_on,80,0,2,,,,,,,,,,,,,,,0,,,42,0
40080,note_on,120,0,2,,,,,,,,,,,,,,,0,,,49,0
40080,note_on,0,0,2,,,,,,,,,,,,,,,0,,,56,27
40200,note_on,0,0,2,,,,,,,,,,,,,,,0,,,49,27
40200,note_on,120,0,2,,,,,,,,,,,,,,,0,,,56,0
40320,note_on,480,0,1,,,,,,,,,,,,,,,0,,,71,0
40320,note_on,120,0,2,,,,,,,,,,,,,,,0,,,49,0
40320,note_on,0,0,2,,,,,,,,,,,,,,,0,,,42,33
40320,control_change,0,0,2,,,,,,,,,,,,,,,0,64,0,,
40320,note_on,0,0,1,,,,,,,,,,,,,,,0,,,73,52
40320,set_tempo,480,1,0,,,,,,,,,,,,717961,,,,,,,
40366,control_change,46,0,2,,,,,,,,,,,,,,,0,64,127,,
40440,note_on,0,0,2,,,,,,,,,,,,,,,0,,,49,27
40440,note_on,74,0,2,,,,,,,,,,,,,,,0,,,42,0
40560,note_on,0,0,2,,,,,,,,,,,,,,,0,,,58,27
40560,note_on,120,0,2,,,,,,,,,,,,,,,0,,,49,0
40680,note_on,0,0,2,,,,,,,,,,,,,,,0,,,49,27
40680,note_on,120,0,2,,,,,,,,,,,,,,,0,,,58,0
40760,set_tempo,440,1,0,,,,,,,,,,,,713012,,,,,,,
40800,note_on,120,0,2,,,,,,,,,,,,,,,0,,,49,0
40800,note_on,0,0,2,,,,,,,,,,,,,,,0,,,42,31
40920,note_on,0,0,2,,,,,,,,,,,,,,,0,,,49,27
40920,note_on,120,0,2,,,,,,,,,,,,,,,0,,,42,0
41040,set_tempo,280,1,0,,,,,,,,,,,,707965,,,,,,,
41040,note_on,120,0,2,,,,,,,,,,,,,,,0,,,49,0
41040,note_on,0,0,2,,,,,,,,,,,,,,,0,,,58,27
41160,note_on,120,0,2,,,,,,,,,,,,,,,0,,,58,0
41160,note_on,0,0,2,,,,,,,,,,,,,,,0,,,49,27
41280,note_on,120,0,2,,,,,,,,,,,,,,,0,,,49,0
41280,note_on,0,0,2,,,,,,,,,,,,,,,0,,,42,30
41280,set_tempo,240,1,0,,,,,,,,,,,,703317,,,,,,,
41400,note_on,0,0,2,,,,,,,,,,,,,,,0,,,49,27
41400,note_on,120,0,2,,,,,,,,,,,,,,,0,,,42,0
41520,note_on,0,0,2,,,,,,,,,,,,,,,0,,,58,27
41520,note_on,120,0,2,,,,,,,,,,,,,,,0,,,49,0
41520,set_tempo,240,1,0,,,,,,,,,,,,707965,,,,,,,
41640,note_on,0,0,2,,,,,,,,,,,,,,,0,,,49,27
41640,note_on,120,0,2,,,,,,,,,,,,,,,0,,,58,0
41760,note_on,120,0,2,,,,,,,,,,,,,,,0,,,49,0
41760,note_on,0,0,1,,,,,,,,,,,,,,,0,,,71,56
41760,note_on,1440,0,1,,,,,,,,,,,,,,,0,,,73,0
41760,note_on,0,0,2,,,,,,,,,,,,,,,0,,,42,31
41760,set_tempo,240,1,0,,,,,,,,,,,,713012,,,,,,,
41829,control_change,69,0,2,,,,,,,,,,,,,,,0,64,0,,
41863,control_change,34,0,2,,,,,,,,,,,,,,,0,64,127,,
41880,note_on,0,0,2,,,,,,,,,,,,,,,0,,,49,25
41880,note_on,17,0,2,,,,,,,,,,,,,,,0,,,42,0
42000,note_on,0,0,1,,,,,,,,,,,,,,,0,,,70,53
42000,note_on,240,0,1,,,,,,,,,,,,,,,0,,,71,0
42000,note_on,120,0,2,,,,,,,,,,,,,,,0,,,49,0
42000,note_on,0,0,2,,,,,,,,,,,,,,,0,,,54,28
42120,note_on,120,0,2,,,,,,,,,,,,,,,0,,,54,0
42120,note_on,0,0,2,,,,,,,,,,,,,,,0,,,49,27
42240,note_on,0,0,1,,,,,,,,,,,,,,,0,,,75,58
42240,control_change,0,0,2,,,,,,,,,,,,,,,0,64,0,,
42240,note_on,120,0,2,,,,,,,,,,,,,,,0,,,49,0
42240,set_tempo,480,1,0,,,,,,,,,,,,713012,,,,,,,
42240,note_on,240,0,1,,,,,,,,,,,,,,,0,,,70,0
42240,note_on,0,0,2,,,,,,,,,,,,,,,0,,,42,33
42280,control_change,40,0,2,,,,,,,,,,,,,,,0,64,127,,
42360,note_on,80,0,2,,,,,,,,,,,,,,,0,,,42,0
42360,note_on,0,0,2,,,,,,,,,,,,,,,0,,,51,27
42480,note_on,120,0,2,,,,,,,,,,,,,,,0,,,51,0
42480,note_on,0,0,2,,,,,,,,,,,,,,,0,,,59,27
42480,note_on,240,0,1,,,,,,,,,,,,,,,0,,,75,0
42600,note_on,120,0,2,,,,,,,,,,,,,,,0,,,59,0
42600,note_on,0,0,2,,,,,,,,,,,,,,,0,,,51,27
42720,set_tempo,480,1,0,,,,,,,,,,,,703317,,,,,,,
42720,note_on,240,0,1,,,,,,,,,,,,,,,0,,,75,54
42720,note_on,0,0,2,,,,,,,,,,,,,,,0,,,42,32
42720,note_on,120,0,2,,,,,,,,,,,,,,,0,,,51,0
42840,note_on,0,0,2,,,,,,,,,,,,,,,0,,,51,27
42840,note_on,120,0,2,,,,,,,,,,,,,,,0,,,42,0
42960,note_on,240,0,1,,,,,,,,,,,,,,,0,,,75,0
42960,note_on,0,0,2,,,,,,,,,,,,,,,0,,,59,27
42960,note_on,120,0,2,,,,,,,,,,,,,,,0,,,51,0
43080,note_on,0,0,2,,,,,,,,,,,,,,,0,,,51,27
43080,note_on,120,0,2,,,,,,,,,,,,,,,0,,,59,0
43200,note_on,0,0,2,,,,,,,,,,,,,,,0,,,42,32
43200,note_on,120,0,2,,,,,,,,,,,,,,,0,,,51,0
43200,note_on,240,0,1,,,,,,,,,,,,,,,0,,,75,54
43320,note_on,0,0,2,,,,,,,,,,,,,,,0,,,51,27
43320,note_on,120,0,2,,,,,,,,,,,,,,,0,,,42,0
43440,note_on,120,0,2,,,,,,,,,,,,,,,0,,,51,0
43440,note_on,0,0,2,,,,,,,,,,,,,,,0,,,59,27
43440,note_on,240,0,1,,,,,,,,,,,,,,,0,,,75,0
43560,note_on,120,0,2,,,,,,,,,,,,,,,0,,,59,0
43560,note_on,0,0,2,,,,,,,,,,,,,,,0,,,51,27
43680,note_on,120,0,2,,,,,,,,,,,,,,,0,,,51,0
43680,note_on,0,0,2,,,,,,,,,,,,,,,0,,,42,33
43680,note_on,240,0,1,,,,,,,,,,,,,,,0,,,77,56
43680,set_tempo,960,1,0,,,,,,,,,,,,774194,,,,,,,
43686,control_change,6,0,2,,,,,,,,,,,,,,,0,64,0,,
43726,control_change,40,0,2,,,,,,,,,,,,,,,0,64,127,,
43800,note_on,74,0,2,,,,,,,,,,,,,,,0,,,42,0
43800,note_on,0,0,2,,,,,,,,,,,,,,,0,,,51,27
43920,set_tempo,240,1,0,,,,,,,,,,,,731707,,,,,,,
43920,note_on,120,0,2,,,,,,,,,,,,,,,0,,,51,0
43920,note_on,0,0,2,,,,,,,,,,,,,,,0,,,59,31
43920,note_on,0,0,1,,,,,,,,,,,,,,,0,,,78,51
43920,note_on,240,0,1,,,,,,,,,,,,,,,0,,,77,0
44040,note_on,120,0,2,,,,,,,,,,,,,,,0,,,59,0
44040,note_on,0,0,2,,,,,,,,,,,,,,,0,,,51,27
44160,note_on,0,0,2,,,,,,,,,,,,,,,0,,,42,33
44160,control_change,0,0,2,,,,,,,,,,,,,,,0,64,0,,
44160,note_on,0,0,1,,,,,,,,,,,,,,,0,,,73,54
44160,note_on,240,0,1,,,,,,,,,,,,,,,0,,,78,0
44160,set_tempo,240,1,0,,,,,,,,,,,,717961,,,,,,,
44160,note_on,120,0,2,,,,,,,,,,,,,,,0,,,51,0
44211,control_change,51,0,2,,,,,,,,,,,,,,,0,64,127,,
44280,note_on,69,0,2,,,,,,,,,,,,,,,0,,,42,0
44280,note_on,0,0,2,,,,,,,,,,,,,,,0,,,49,28
44400,note_on,0,0,2,,,,,,,,,,,,,,,0,,,58,28
44400,note_on,120,0,2,,,,,,,,,,,,,,,0,,,49,0
44520,note_on,0,0,2,,,,,,,,,,,,,,,0,,,49,28
44520,note_on,120,0,2,,,,,,,,,,,,,,,0,,,58,0
44640,note_on,0,0,2,,,,,,,,,,,,,,,0,,,42,33
44640,note_on,120,0,2,,,,,,,,,,,,,,,0,,,49,0
44640,set_tempo,480,1,0,,,,,,,,,,,,717961,,,,,,,
44760,note_on,0,0,2,,,,,,,,,,,,,,,0,,,49,27
44760,note_on,120,0,2,,,,,,,,,,,,,,,0,,,42,0
44800,set_tempo,160,1,0,,,,,,,,,,,,713012,,,,,,,
44880,note_on,0,0,2,,,,,,,,,,,,,,,0,,,58,28
44880,note_on,120,0,2,,,,,,,,,,,,,,,0,,,49,0
44960,set_tempo,160,1,0,,,,,,,,,,,,707965,,,,,,,
45000,note_on,0,0,2,,,,,,,,,,,,,,,0,,,49,27
45000,note_on,120,0,2,,,,,,,,,,,,,,,0,,,58,0
45080,set_tempo,120,1,0,,,,,,,,,,,,703317,,,,,,,
45120,note_on,0,0,2,,,,,,,,,,,,,,,0,,,42,33
45120,note_on,120,0,2,,,,,,,,,,,,,,,0,,,49,0
45160,set_tempo,80,1,0,,,,,,,,,,,,703317,,,,,,,
45240,note_on,0,0,2,,,,,,,,,,,,,,,0,,,49,28
45240,note_on,120,0,2,,,,,,,,,,,,,,,0,,,42,0
45360,note_on,120,0,2,,,,,,,,,,,,,,,0,,,49,0
45360,note_on,0,0,2,,,,,,,,,,,,,,,0,,,58,29
45400,set_tempo,240,1,0,,,,,,,,,,,,707965,,,,,,,
45480,note_on,120,0,2,,,,,,,,,,,,,,,0,,,58,0
45480,note_on,0,0,2,,,,,,,,,,,,,,,0,,,49,29
45600,note_on,120,0,2,,,,,,,,,,,,,,,0,,,49,0
45600,note_on,0,0,2,,,,,,,,,,,,,,,0,,,42,33
45600,note_on,0,0,1,,,,,,,,,,,,,,,0,,,71,52
45600,set_tempo,200,1,0,,,,,,,,,,,,713012,,,,,,,
45600,note_on,1440,0,1,,,,,,,,,,,,,,,0,,,73,0
45674,control_change,74,0,2,,,,,,,,,,,,,,,0,64,0,,
45720,note_on,46,0,2,,,,,,,,,,,,,,,0,,,42,0
45720,note_on,0,0,2,,,,,,,,,,,,,,,0,,,49,27
45720,control_change,0,0,2,,,,,,,,,,,,,,,0,64,127,,
45840,note_on,0,0,1,,,,,,,,,,,,,,,0,,,70,51
45840,note_on,240,0,1,,,,,,,,,,,,,,,0,,,71,0
45840,note_on,120,0,2,,,,,,,,,,,,,,,0,,,49,0
45840,note_on,0,0,2,,,,,,,,,,,,,,,0,,,54,31
45960,note_on,120,0,2,,,,,,,,,,,,,,,0,,,54,0
45960,note_on,0,0,2,,,,,,,,,,,,,,,0,,,49,27
46080,note_on,120,0,2,,,,,,,,,,,,,,,0,,,49,0
46080,note_on,0,0,2,,,,,,,,,,,,,,,0,,,42,33
46080,control_change,0,0,2,,,,,,,,,,,,,,,0,64,0,,
46080,set_tempo,480,1,0,,,,,,,,,,,,703317,,,,,,,
46080,note_on,240,0,1,,,,,,,,,,,,,,,0,,,70,0
46080,note_on,0,0,1,,,,,,,,,,,,,,,0,,,71,52
46143,control_change,63,0,2,,,,,,,,,,,,,,,0,64,127,,
46200,note_on,57,0,2,,,,,,,,,,,,,,,0,,,42,0
46200,note_on,0,0,2,,,,,,,,,,,,,,,0,,,51,28
46320,note_on,0,0,2,,,,,,,,,,,,,,,0,,,59,28
46320,note_on,120,0,2,,,,,,,,,,,,,,,0,,,51,0
46440,note_on,0,0,2,,,,,,,,,,,,,,,0,,,51,28
46440,note_on,120,0,2,,,,,,,,,,,,,,,0,,,59,0
46560,note_on,0,0,2,,,,,,,,,,,,,,,0,,,42,33
46560,note_on,0,0,1,,,,,,,,,,,,,,,0,,,75,52
46560,note_on,480,0,1,,,,,,,,,,,,,,,0,,,71,0
46560,note_on,120,0,2,,,,,,,,,,,,,,,0,,,51,0
46680,note_on,0,0,2,,,,,,,,,,,,,,,0,,,51,29
46680,note_on,120,0,2,,,,,,,,,,,,,,,0,,,42,0
46800,note_on,120,0,2,,,,,,,,,,,,,,,0,,,51,0
46800,note_on,0,0,2,,,,,,,,,,,,,,,0,,,59,29
46920,note_on,0,0,2,,,,,,,,,,,,,,,0,,,51,29
46920,note_on,120,0,2,,,,,,,,,,,,,,,0,,,59,0
47040,set_tempo,960,1,0,,,,,,,,,,,,713012,,,,,,,
47040,note_on,480,0,1,,,,,,,,,,,,,,,0,,,75,0
47040,note_on,0,0,1,,,,,,,,,,,,,,,0,,,68,52
47040,note_on,0,0,2,,,,,,,,,,,,,,,0,,,42,33
47040,note_on,120,0,2,,,,,,,,,,,,,,,0,,,51,0
47046,control_change,6,0,2,,,,,,,,,,,,,,,0,64,0,,
47103,control_change,57,0,2,,,,,,,,,,,,,,,0,64,127,,
47160,note_on,0,0,2,,,,,,,,,,,,,,,0,,,49,28
47160,note_on,57,0,2,,,,,,,,,,,,,,,0,,,42,0
47280,note_on,0,0,2,,,,,,,,,,,,,,,0,,,53,28
47280,note_on,120,0,2,,,,,,,,,,,,,,,0,,,49,0
47400,note_on,0,0,2,,,,,,,,,,,,,,,0,,,49,27
47400,note_on,120,0,2,,,,,,,,,,,,,,,0,,,53,0
47520,note_on,0,0,2,,,,,,,,,,,,,,,0,,,42,31
47520,note_on,120,0,2,,,,,,,,,,,,,,,0,,,49,0
47520,note_on,480,0,1,,,,,,,,,,,,,,,0,,,68,0
47520,note_on,0,0,1,,,,,,,,,,,,,,,0,,,71,52
47640,note_on,120,0,2,,,,,,,,,,,,,,,0,,,42,0
47640,note_on,0,0,2,,,,,,,,,,,,,,,0,,,49,27
47760,note_on,120,0,2,,,,,,,,,,,,,,,0,,,49,0
47760,note_on,0,0,2,,,,,,,,,,,,,,,0,,,56,28
47880,note_on,0,0,2,,,,,,,,,,,,,,,0,,,49,28
47880,note_on,120,0,2,,,,,,,,,,,,,,,0,,,56,0
48000,note_on,0,0,1,,,,,,,,,,,,,,,0,,,70,54
48000,note_on,480,0,1,,,,,,,,,,,,,,,0,,,71,0
48000,set_tempo,960,1,0,,,,,,,,,,,,717961,,,,,,,
48000,note_on,120,0,2,,,,,,,,,,,,,,,0,,,49,0
48000,control_change,0,0,2,,,,,,,,,,,,,,,0,64,0,,
48000,note_on,0,0,2,,,,,,,,,,,,,,,0,,,42,33
48051,control_change,51,0,2,,,,,,,,,,,,,,,0,64,127,,
48120,note_on,69,0,2,,,,,,,,,,,,,,,0,,,42,0
48120,note_on,0,0,2,,,,,,,,,,,,,,,0,,,49,28
48240,note_on,120,0,2,,,,,,,,,,,,,,,0,,,49,0
48240,note_on,0,0,2,,,,,,,,,,,,,,,0,,,58,28
48360,note_on,120,0,2,,,,,,,,,,,,,,,0,,,58,0
48360,note_on,0,0,2,,,,,,,,,,,,,,,0,,,49,28
48480,set_tempo,480,1,0,,,,,,,,,,,,697674,,,,,,,
48480,note_on,120,0,2,,,,,,,,,,,,,,,0,,,49,0
48480,note_on,0,0,2,,,,,,,,,,,,,,,0,,,42,33
48480,note_on,480,0,1,,,,,,,,,,,,,,,0,,,70,0
48480,note_on,0,0,1,,,,,,,,,,,,,,,0,,,66,51
48480,note_on,0,0,1,,,,,,,,,,,,,,,0,,,78,61
48600,note_on,120,0,2,,,,,,,,,,,,,,,0,,,42,0
48600,note_on,0,0,2,,,,,,,,,,,,,,,0,,,49,27
48600,set_tempo,120,1,0,,,,,,,,,,,,693642,,,,,,,
48680,set_tempo,80,1,0,,,,,,,,,,,,689655,,,,,,,
48720,note_on,0,0,2,,,,,,,,,,,,,,,0,,,58,28
48720,note_on,120,0,2,,,,,,,,,,,,,,,0,,,49,0
48760,set_tempo,80,1,0,,,,,,,,,,,,685714,,,,,,,
48840,note_on,120,0,2,,,,,,,,,,,,,,,0,,,58,0
48840,set_tempo,80,1,0,,,,,,,,,,,,681818,,,,,,,
48840,note_on,0,0,2,,,,,,,,,,,,,,,0,,,49,27
48920,set_tempo,80,1,0,,,,,,,,,,,,677966,,,,,,,
48960,note_on,120,0,2,,,,,,,,,,,,,,,0,,,49,0
48960,note_on,0,0,2,,,,,,,,,,,,,,,0,,,42,33
49000,set_tempo,80,1,0,,,,,,,,,,,,681818,,,,,,,
49080,note_on,0,0,2,,,,,,,,,,,,,,,0,,,49,28
49080,set_tempo,80,1,0,,,,,,,,,,,,685714,,,,,,,
49080,note_on,120,0,2,,,,,,,,,,,,,,,0,,,42,0
49120,set_tempo,40,1,0,,,,,,,,,,,,689655,,,,,,,
49160,set_tempo,40,1,0,,,,,,,,,,,,693642,,,,,,,
49200,note_on,0,0,1,,,,,,,,,,,,,,,0,,,77,53
49200,note_on,0,0,1,,,,,,,,,,,,,,,0,,,65,45
49200,note_on,0,0,1,,,,,,,,,,,,,,,0,,,66,0
49200,note_on,720,0,1,,,,,,,,,,,,,,,0,,,78,0
49200,set_tempo,40,1,0,,,,,,,,,,,,697674,,,,,,,
49200,note_on,120,0,2,,,,,,,,,,,,,,,0,,,49,0
49200,note_on,0,0,2,,,,,,,,,,,,,,,0,,,58,29
49240,set_tempo,40,1,0,,,,,,,,,,,,701754,,,,,,,
49280,set_tempo,40,1,0,,,,,,,,,,,,705882,,,,,,,
49320,note_on,0,0,2,,,,,,,,,,,,,,,0,,,49,29
49320,note_on,120,0,2,,,,,,,,,,,,,,,0,,,58,0
49320,set_tempo,40,1,0,,,,,,,,,,,,710059,,,,,,,
49360,set_tempo,40,1,0,,,,,,,,,,,,714286,,,,,,,
49440,note_on,0,0,2,,,,,,,,,,,,,,,0,,,42,33
49440,note_on,0,0,1,,,,,,,,,,,,,,,0,,,63,47
49440,note_on,240,0,1,,,,,,,,,,,,,,,0,,,77,0
49440,note_on,0,0,1,,,,,,,,,,,,,,,0,,,65,0
49440,note_on,0,0,1,,,,,,,,,,,,,,,0,,,75,56
49440,set_tempo,80,1,0,,,,,,,,,,,,713012,,,,,,,
49440,note_on,120,0,2,,,,,,,,,,,,,,,0,,,49,0
49457,control_change,17,0,2,,,,,,,,,,,,,,,0,64,0,,
49514,control_change,57,0,2,,,,,,,,,,,,,,,0,64,127,,
49560,note_on,46,0,2,,,,,,,,,,,,,,,0,,,42,0
49560,note_on,0,0,2,,,,,,,,,,,,,,,0,,,49,27
49680,note_on,240,0,1,,,,,,,,,,,,,,,0,,,63,0
49680,note_on,120,0,2,,,,,,,,,,,,,,,0,,,49,0
49680,note_on,0,0,2,,,,,,,,,,,,,,,0,,,58,31
49680,note_on,0,0,1,,,,,,,,,,,,,,,0,,,61,43
49680,note_on,0,0,1,,,,,,,,,,,,,,,0,,,73,51
49680,note_on,0,0,1,,,,,,,,,,,,,,,0,,,75,0
49800,note_on,120,0,2,,,,,,,,,,,,,,,0,,,58,0
49800,note_on,0,0,2,,,,,,,,,,,,,,,0,,,49,27
49920,note_on,240,0,1,,,,,,,,,,,,,,,0,,,73,0
49920,note_on,0,0,1,,,,,,,,,,,,,,,0,,,59,46
49920,note_on,0,0,1,,,,,,,,,,,,,,,0,,,71,54
49920,note_on,0,0,1,,,,,,,,,,,,,,,0,,,61,0
49920,set_tempo,480,1,0,,,,,,,,,,,,703317,,,,,,,
49920,control_change,0,0,2,,,,,,,,,,,,,,,0,64,0,,
49920,note_on,0,0,2,,,,,,,,,,,,,,,0,,,42,33
49920,note_on,120,0,2,,,,,,,,,,,,,,,0,,,49,0
49983,control_change,63,0,2,,,,,,,,,,,,,,,0,64,127,,
50040,note_on,0,0,2,,,,,,,,,,,,,,,0,,,51,28
50040,note_on,57,0,2,,,,,,,,,,,,,,,0,,,42,0
50160,note_on,120,0,2,,,,,,,,,,,,,,,0,,,51,0
50160,note_on,0,0,2,,,,,,,,,,,,,,,0,,,54,28
50280,note_on,0,0,2,,,,,,,,,,,,,,,0,,,51,28
50280,note_on,120,0,2,,,,,,,,,,,,,,,0,,,54,0
50400,note_on,0,0,2,,,,,,,,,,,,,,,0,,,42,33
50400,note_on,120,0,2,,,,,,,,,,,,,,,0,,,51,0
50400,note_on,0,0,1,,,,,,,,,,,,,,,0,,,59,0
50400,note_on,480,0,1,,,,,,,,,,,,,,,0,,,71,0
50400,note_on,0,0,1,,,,,,,,,,,,,,,0,,,75,56
50520,note_on,0,0,2,,,,,,,,,,,,,,,0,,,51,29
50520,note_on,120,0,2,,,,,,,,,,,,,,,0,,,42,0
50640,note_on,0,0,2,,,,,,,,,,,,,,,0,,,59,29
50640,note_on,120,0,2,,,,,,,,,,,,,,,0,,,51,0
50760,note_on,120,0,2,,,,,,,,,,,,,,,0,,,59,0
50760,note_on,0,0,2,,,,,,,,,,,,,,,0,,,51,29
50880,note_on,0,0,1,,,,,,,,,,,,,,,0,,,68,54
50880,set_tempo,960,1,0,,,,,,,,,,,,713012,,,,,,,
50880,note_on,480,0,1,,,,,,,,,,,,,,,0,,,75,0
50880,note_on,0,0,2,,,,,,,,,,,,,,,0,,,42,33
50880,note_on,120,0,2,,,,,,,,,,,,,,,0,,,51,0
50886,control_change,6,0,2,,,,,,,,,,,,,,,0,64,0,,
50943,control_change,57,0,2,,,,,,,,,,,,,,,0,64,127,,
51000,note_on,0,0,2,,,,,,,,,,,,,,,0,,,49,28
51000,note_on,57,0,2,,,,,,,,,,,,,,,0,,,42,0
51120,note_on,0,0,2,,,,,,,,,,,,,,,0,,,53,28
51120,note_on,120,0,2,,,,,,,,,,,,,,,0,,,49,0
51240,note_on,0,0,2,,,,,,,,,,,,,,,0,,,49,27
51240,note_on,120,0,2,,,,,,,,,,,,,,,0,,,53,0
51360,note_on,120,0,2,,,,,,,,,,,,,,,0,,,49,0
51360,note_on,0,0,2,,,,,,,,,,,,,,,0,,,42,31
51360,note_on,480,0,1,,,,,,,,,,,,,,,0,,,68,0
51360,note_on,0,0,1,,,,,,,,,,,,,,,0,,,70,52
51480,note_on,120,0,2,,,,,,,,,,,,,,,0,,,42,0
51480,note_on,0,0,2,,,,,,,,,,,,,,,0,,,49,27
51600,note_on,120,0,2,,,,,,,,,,,,,,,0,,,49,0
51600,note_on,0,0,2,,,,,,,,,,,,,,,0,,,56,28
51600,note_on,240,0,1,,,,,,,,,,,,,,,0,,,70,0
51600,note_on,0,0,1,,,,,,,,,,,,,,,0,,,71,52
51720,note_on,120,0,2,,,,,,,,,,,,,,,0,,,56,0
51720,note_on,0,0,2,,,,,,,,,,,,,,,0,,,49,28
51840,set_tempo,960,1,0,,,,,,,,,,,,666667,,,,,,,
51840,note_on,240,0,1,,,,,,,,,,,,,,,0,,,71,0
51840,note_on,0,0,2,,,,,,,,,,,,,,,0,,,42,33
51840,note_on,120,0,2,,,,,,,,,,,,,,,0,,,49,0
51840,control_change,0,0,2,,,,,,,,,,,,,,,0,64,0,,
51840,note_on,0,0,1,,,,,,,,,,,,,,,0,,,70,55
51903,control_change,63,0,2,,,,,,,,,,,,,,,0,64,127,,
51960,note_on,57,0,2,,,,,,,,,,,,,,,0,,,42,0
51960,note_on,0,0,2,,,,,,,,,,,,,,,0,,,58,28
52080,set_tempo,240,1,0,,,,,,,,,,,,689655,,,,,,,
52080,note_on,240,0,1,,,,,,,,,,,,,,,0,,,70,0
52080,note_on,0,0,1,,,,,,,,,,,,,,,0,,,73,52
52080,note_on,0,0,2,,,,,,,,,,,,,,,0,,,54,28
52080,note_on,120,0,2,,,,,,,,,,,,,,,0,,,58,0
52200,note_on,0,0,2,,,,,,,,,,,,,,,0,,,58,28
52200,note_on,120,0,2,,,,,,,,,,,,,,,0,,,54,0
52320,note_on,240,0,1,,,,,,,,,,,,,,,0,,,73,0
52320,note_on,0,0,1,,,,,,,,,,,,,,,0,,,82,56
52320,note_on,0,0,2,,,,,,,,,,,,,,,0,,,54,33
52320,note_on,120,0,2,,,,,,,,,,,,,,,0,,,58,0
52320,set_tempo,240,1,0,,,,,,,,,,,,666667,,,,,,,
52440,note_on,0,0,2,,,,,,,,,,,,,,,0,,,58,29
52440,note_on,120,0,2,,,,,,,,,,,,,,,0,,,54,0
52560,note_on,0,0,1,,,,,,,,,,,,,,,0,,,78,52
52560,set_tempo,240,1,0,,,,,,,,,,,,685714,,,,,,,
52560,note_on,240,0,1,,,,,,,,,,,,,,,0,,,82,0
52560,note_on,120,0,2,,,,,,,,,,,,,,,0,,,58,0
52560,note_on,0,0,2,,,,,,,,,,,,,,,0,,,54,29
52680,note_on,0,0,2,,,,,,,,,,,,,,,0,,,58,29
52680,note_on,120,0,2,,,,,,,,,,,,,,,0,,,54,0
52800,set_tempo,240,1,0,,,,,,,,,,,,648649,,,,,,,
52800,note_on,120,0,2,,,,,,,,,,,,,,,0,,,58,0
52800,note_on,0,0,2,,,,,,,,,,,,,,,0,,,42,33
52800,note_on,240,0,1,,,,,,,,,,,,,,,0,,,78,0
52800,note_on,0,0,1,,,,,,,,,,,,,,,0,,,73,56
52806,control_change,6,0,2,,,,,,,,,,,,,,,0,64,0,,
52863,control_change,57,0,2,,,,,,,,,,,,,,,0,64,127,,
52920,note_on,0,0,2,,,,,,,,,,,,,,,0,,,58,28
52920,note_on,57,0,2,,,,,,,,,,,,,,,0,,,42,0
53040,set_tempo,240,1,0,,,,,,,,,,,,666667,,,,,,,
53040,note_on,240,0,1,,,,,,,,,,,,,,,0,,,73,0
53040,note_on,120,0,2,,,,,,,,,,,,,,,0,,,58,0
53040,note_on,0,0,2,,,,,,,,,,,,,,,0,,,54,28
53040,note_on,0,0,1,,,,,,,,,,,,,,,0,,,70,52
53160,note_on,120,0,2,,,,,,,,,,,,,,,0,,,54,0
53160,note_on,0,0,2,,,,,,,,,,,,,,,0,,,58,27
53280,set_tempo,240,1,0,,,,,,,,,,,,646343,,,,,,,
53280,note_on,0,0,1,,,,,,,,,,,,,,,0,,,78,55
53280,note_on,120,0,2,,,,,,,,,,,,,,,0,,,58,0
53280,note_on,0,0,2,,,,,,,,,,,,,,,0,,,54,31
53280,note_on,240,0,1,,,,,,,,,,,,,,,0,,,70,0
53400,note_on,0,0,2,,,,,,,,,,,,,,,0,,,58,27
53400,note_on,120,0,2,,,,,,,,,,,,,,,0,,,54,0
53520,note_on,240,0,1,,,,,,,,,,,,,,,0,,,78,0
53520,set_tempo,240,1,0,,,,,,,,,,,,659848,,,,,,,
53520,note_on,120,0,2,,,,,,,,,,,,,,,0,,,58,0
53520,note_on,0,0,2,,,,,,,,,,,,,,,0,,,54,28
53520,note_on,0,0,1,,,,,,,,,,,,,,,0,,,74,52
53640,note_on,120,0,2,,,,,,,,,,,,,,,0,,,54,0
53640,note_on,0,0,2,,,,,,,,,,,,,,,0,,,58,28
53760,note_on,240,0,1,,,,,,,,,,,,,,,0,,,74,0
53760,note_on,0,0,1,,,,,,,,,,,,,,,0,,,75,55
53760,set_tempo,240,1,0,,,,,,,,,,,,646343,,,,,,,
53760,note_on,120,0,2,,,,,,,,,,,,,,,0,,,58,0
53760,note_on,0,0,2,,,,,,,,,,,,,,,0,,,42,33
53760,control_change,0,0,2,,,,,,,,,,,,,,,0,64,0,,
53823,control_change,63,0,2,,,,,,,,,,,,,,,0,64,127,,
53880,note_on,0,0,2,,,,,,,,,,,,,,,0,,,59,28
53880,note_on,57,0,2,,,,,,,,,,,,,,,0,,,42,0
54000,note_on,240,0,1,,,,,,,,,,,,,,,0,,,75,0
54000,note_on,120,0,2,,,,,,,,,,,,,,,0,,,59,0
54000,note_on,0,0,2,,,,,,,,,,,,,,,0,,,54,28
54000,set_tempo,240,1,0,,,,,,,,,,,,652174,,,,,,,
54000,note_on,0,0,1,,,,,,,,,,,,,,,0,,,71,52
54120,note_on,120,0,2,,,,,,,,,,,,,,,0,,,54,0
54120,note_on,0,0,2,,,,,,,,,,,,,,,0,,,59,28
54240,note_on,120,0,2,,,,,,,,,,,,,,,0,,,59,0
54240,note_on,0,0,1,,,,,,,,,,,,,,,0,,,83,56
54240,note_on,0,0,2,,,,,,,,,,,,,,,0,,,54,33
54240,note_on,240,0,1,,,,,,,,,,,,,,,0,,,71,0
54240,set_tempo,240,1,0,,,,,,,,,,,,638298,,,,,,,
54360,note_on,0,0,2,,,,,,,,,,,,,,,0,,,59,29
54360,note_on,120,0,2,,,,,,,,,,,,,,,0,,,54,0
54480,set_tempo,240,1,0,,,,,,,,,,,,648649,,,,,,,
54480,note_on,0,0,1,,,,,,,,,,,,,,,0,,,80,54
54480,note_on,0,0,2,,,,,,,,,,,,,,,0,,,54,29
54480,note_on,120,0,2,,,,,,,,,,,,,,,0,,,59,0
54480,note_on,240,0,1,,,,,,,,,,,,,,,0,,,83,0
54600,note_on,0,0,2,,,,,,,,,,,,,,,0,,,59,29
54600,note_on,120,0,2,,,,,,,,,,,,,,,0,,,54,0
54720,set_tempo,240,1,0,,,,,,,,,,,,626697,,,,,,,
54720,note_on,0,0,1,,,,,,,,,,,,,,,0,,,77,58
54720,note_on,0,0,2,,,,,,,,,,,,,,,0,,,42,33
54720,note_on,120,0,2,,,,,,,,,,,,,,,0,,,59,0
54720,note_on,240,0,1,,,,,,,,,,,,,,,0,,,80,0
54726,control_change,6,0,2,,,,,,,,,,,,,,,0,64,0,,
54783,control_change,57,0,2,,,,,,,,,,,,,,,0,64,127,,
54840,note_on,57,0,2,,,,,,,,,,,,,,,0,,,42,0
54840,note_on,0,0,2,,,,,,,,,,,,,,,0,,,59,28
54960,note_on,240,0,1,,,,,,,,,,,,,,,0,,,77,0
54960,note_on,0,0,1,,,,,,,,,,,,,,,0,,,80,56
54960,set_tempo,240,1,0,,,,,,,,,,,,641437,,,,,,,
54960,note_on,120,0,2,,,,,,,,,,,,,,,0,,,59,0
54960,note_on,0,0,2,,,,,,,,,,,,,,,0,,,54,28
55080,note_on,120,0,2,,,,,,,,,,,,,,,0,,,54,0
55080,note_on,0,0,2,,,,,,,,,,,,,,,0,,,59,27
55200,note_on,120,0,2,,,,,,,,,,,,,,,0,,,59,0
55200,note_on,0,0,2,,,,,,,,,,,,,,,0,,,54,31
55200,note_on,240,0,1,,,,,,,,,,,,,,,0,,,80,0
55200,note_on,0,0,1,,,,,,,,,,,,,,,0,,,85,58
55200,set_tempo,240,1,0,,,,,,,,,,,,626697,,,,,,,
55320,note_on,120,0,2,,,,,,,,,,,,,,,0,,,54,0
55320,note_on,0,0,2,,,,,,,,,,,,,,,0,,,59,27
55440,note_on,240,0,1,,,,,,,,,,,,,,,0,,,85,0
55440,note_on,120,0,2,,,,,,,,,,,,,,,0,,,59,0
55440,note_on,0,0,2,,,,,,,,,,,,,,,0,,,54,28
55440,note_on,0,0,1,,,,,,,,,,,,,,,0,,,81,54
55440,set_tempo,240,1,0,,,,,,,,,,,,653097,,,,,,,
55560,note_on,120,0,2,,,,,,,,,,,,,,,0,,,54,0
55560,note_on,0,0,2,,,,,,,,,,,,,,,0,,,59,28
55680,set_tempo,240,1,0,,,,,,,,,,,,646343,,,,,,,
55680,note_on,120,0,2,,,,,,,,,,,,,,,0,,,59,0
55680,note_on,240,0,1,,,,,,,,,,,,,,,0,,,81,0
55680,note_on,0,0,2,,,,,,,,,,,,,,,0,,,42,33
55680,note_on,0,0,1,,,,,,,,,,,,,,,0,,,82,57
55680,control_change,0,0,2,,,,,,,,,,,,,,,0,64,0,,
55700,control_change,20,0,2,,,,,,,,,,,,,,,0,64,127,,
55740,note_on,40,0,2,,,,,,,,,,,,,,,0,,,42,0
55800,note_on,60,0,2,,,,,,,,,,,,,,,0,,,58,28
55920,note_on,240,0,1,,,,,,,,,,,,,,,0,,,82,0
55920,note_on,0,0,1,,,,,,,,,,,,,,,0,,,78,54
55920,note_on,120,0,2,,,,,,,,,,,,,,,0,,,58,0
55920,note_on,0,0,2,,,,,,,,,,,,,,,0,,,54,28
55920,set_tempo,240,1,0,,,,,,,,,,,,637552,,,,,,,
56040,note_on,0,0,2,,,,,,,,,,,,,,,0,,,58,28
56040,note_on,120,0,2,,,,,,,,,,,,,,,0,,,54,0
56160,note_on,0,0,2,,,,,,,,,,,,,,,0,,,54,33
56160,note_on,0,0,1,,,,,,,,,,,,,,,0,,,82,57
56160,note_on,240,0,1,,,,,,,,,,,,,,,0,,,78,0
56160,note_on,120,0,2,,,,,,,,,,,,,,,0,,,58,0
56160,set_tempo,240,1,0,,,,,,,,,,,,592417,,,,,,,
56280,note_on,0,0,1,,,,,,,,,,,,,,,0,,,78,51
56280,note_on,120,0,1,,,,,,,,,,,,,,,0,,,82,0
56280,note_on,120,0,2,,,,,,,,,,,,,,,0,,,54,0
56280,note_on,0,0,2,,,,,,,,,,,,,,,0,,,58,29
56400,note_on,0,0,1,,,,,,,,,,,,,,,0,,,82,56
56400,note_on,120,0,1,,,,,,,,,,,,,,,0,,,78,0
56400,note_on,0,0,2,,,,,,,,,,,,,,,0,,,54,29
56400,note_on,120,0,2,,,,,,,,,,,,,,,0,,,58,0
56400,set_tempo,240,1,0,,,,,,,,,,,,612495,,,,,,,
56520,note_on,0,0,1,,,,,,,,,,,,,,,0,,,78,50
56520,note_on,120,0,1,,,,,,,,,,,,,,,0,,,82,0
56520,note_on,0,0,2,,,,,,,,,,,,,,,0,,,58,29
56520,note_on,120,0,2,,,,,,,,,,,,,,,0,,,54,0
56640,note_on,0,0,2,,,,,,,,,,,,,,,0,,,42,33
56640,note_on,0,0,1,,,,,,,,,,,,,,,0,,,73,56
56640,note_on,120,0,1,,,,,,,,,,,,,,,0,,,78,0
56640,set_tempo,240,1,0,,,,,,,,,,,,592417,,,,,,,
56640,note_on,120,0,2,,,,,,,,,,,,,,,0,,,58,0
56646,control_change,6,0,2,,,,,,,,,,,,,,,0,64,0,,
56669,control_change,23,0,2,,,,,,,,,,,,,,,0,64,127,,
56700,note_on,31,0,2,,,,,,,,,,,,,,,0,,,42,0
56760,note_on,60,0,2,,,,,,,,,,,,,,,0,,,58,28
56760,note_on,0,0,1,,,,,,,,,,,,,,,0,,,70,52
56760,note_on,120,0,1,,,,,,,,,,,,,,,0,,,73,0
56880,note_on,120,0,1,,,,,,,,,,,,,,,0,,,70,0
56880,note_on,0,0,1,,,,,,,,,,,,,,,0,,,73,56
56880,note_on,0,0,2,,,,,,,,,,,,,,,0,,,54,28
56880,set_tempo,240,1,0,,,,,,,,,,,,612495,,,,,,,
56880,note_on,120,0,2,,,,,,,,,,,,,,,0,,,58,0
57000,note_on,120,0,2,,,,,,,,,,,,,,,0,,,54,0
57000,note_on,0,0,1,,,,,,,,,,,,,,,0,,,70,53
57000,note_on,0,0,2,,,,,,,,,,,,,,,0,,,58,27
57000,note_on,120,0,1,,,,,,,,,,,,,,,0,,,73,0
57120,note_on,0,0,2,,,,,,,,,,,,,,,0,,,54,31
57120,note_on,0,0,1,,,,,,,,,,,,,,,0,,,78,58
57120,note_on,120,0,1,,,,,,,,,,,,,,,0,,,70,0
57120,note_on,120,0,2,,,,,,,,,,,,,,,0,,,58,0
57120,set_tempo,240,1,0,,,,,,,,,,,,626697,,,,,,,
57240,note_on,0,0,1,,,,,,,,,,,,,,,0,,,74,53
57240,note_on,120,0,1,,,,,,,,,,,,,,,0,,,78,0
57240,note_on,120,0,2,,,,,,,,,,,,,,,0,,,54,0
57240,note_on,0,0,2,,,,,,,,,,,,,,,0,,,58,27
57360,note_on,120,0,2,,,,,,,,,,,,,,,0,,,58,0
57360,note_on,0,0,2,,,,,,,,,,,,,,,0,,,54,28
57360,note_on,120,0,1,,,,,,,,,,,,,,,0,,,74,0
57360,set_tempo,240,1,0,,,,,,,,,,,,637755,,,,,,,
57360,note_on,0,0,1,,,,,,,,,,,,,,,0,,,78,57
57480,note_on,0,0,1,,,,,,,,,,,,,,,0,,,74,52
57480,note_on,120,0,1,,,,,,,,,,,,,,,0,,,78,0
57480,note_on,120,0,2,,,,,,,,,,,,,,,0,,,54,0
57480,note_on,0,0,2,,,,,,,,,,,,,,,0,,,58,28
57600,control_change,0,0,2,,,,,,,,,,,,,,,0,64,0,,
57600,note_on,0,0,2,,,,,,,,,,,,,,,0,,,42,33
57600,note_on,120,0,2,,,,,,,,,,,,,,,0,,,58,0
57600,note_on,0,0,1,,,,,,,,,,,,,,,0,,,75,57
57600,set_tempo,240,1,0,,,,,,,,,,,,619515,,,,,,,
57600,note_on,120,0,1,,,,,,,,,,,,,,,0,,,74,0
57617,control_change,17,0,2,,,,,,,,,,,,,,,0,64,127,,
57660,note_on,43,0,2,,,,,,,,,,,,,,,0,,,42,0
57720,note_on,120,0,1,,,,,,,,,,,,,,,0,,,75,0
57720,note_on,0,0,1,,,,,,,,,,,,,,,0,,,71,52
57720,note_on,60,0,2,,,,,,,,,,,,,,,0,,,59,28
57840,set_tempo,240,1,0,,,,,,,,,,,,602289,,,,,,,
57840,note_on,0,0,1,,,,,,,,,,,,,,,0,,,75,54
57840,note_on,120,0,1,,,,,,,,,,,,,,,0,,,71,0
57840,note_on,120,0,2,,,,,,,,,,,,,,,0,,,59,0
57840,note_on,0,0,2,,,,,,,,,,,,,,,0,,,54,28
57960,note_on,120,0,1,,,,,,,,,,,,,,,0,,,75,0
57960,note_on,120,0,2,,,,,,,,,,,,,,,0,,,54,0
57960,note_on,0,0,2,,,,,,,,,,,,,,,0,,,59,28
57960,note_on,0,0,1,,,,,,,,,,,,,,,0,,,71,52
58080,note_on,120,0,2,,,,,,,,,,,,,,,0,,,59,0
58080,note_on,120,0,1,,,,,,,,,,,,,,,0,,,71,0
58080,note_on,0,0,1,,,,,,,,,,,,,,,0,,,83,57
58080,note_on,0,0,2,,,,,,,,,,,,,,,0,,,54,33
58080,set_tempo,240,1,0,,,,,,,,,,,,581677,,,,,,,
58200,note_on,0,0,1,,,,,,,,,,,,,,,0,,,80,51
58200,note_on,120,0,2,,,,,,,,,,,,,,,0,,,54,0
58200,note_on,0,0,2,,,,,,,,,,,,,,,0,,,59,29
58200,note_on,120,0,1,,,,,,,,,,,,,,,0,,,83,0
58320,note_on,0,0,2,,,,,,,,,,,,,,,0,,,54,29
58320,set_tempo,240,1,0,,,,,,,,,,,,619515,,,,,,,
58320,note_on,120,0,1,,,,,,,,,,,,,,,0,,,80,0
58320,note_on,0,0,1,,,,,,,,,,,,,,,0,,,83,56
58320,note_on,120,0,2,,,,,,,,,,,,,,,0,,,59,0
58440,note_on,0,0,2,,,,,,,,,,,,,,,0,,,59,29
58440,note_on,120,0,1,,,,,,,,,,,,,,,0,,,83,0
58440,note_on,0,0,1,,,,,,,,,,,,,,,0,,,80,50
58440,note_on,120,0,2,,,,,,,,,,,,,,,0,,,54,0
58560,note_on,120,0,2,,,,,,,,,,,,,,,0,,,59,0
58560,note_on,0,0,2,,,,,,,,,,,,,,,0,,,42,33
58560,set_tempo,240,1,0,,,,,,,,,,,,600000,,,,,,,
58560,note_on,120,0,1,,,,,,,,,,,,,,,0,,,80,0
58560,note_on,0,0,1,,,,,,,,,,,,,,,0,,,77,56
58566,control_change,6,0,2,,,,,,,,,,,,,,,0,64,0,,
58583,control_change,17,0,2,,,,,,,,,,,,,,,0,64,127,,
58620,note_on,37,0,2,,,,,,,,,,,,,,,0,,,42,0
58680,note_on,120,0,1,,,,,,,,,,,,,,,0,,,77,0
58680,note_on,0,0,1,,,,,,,,,,,,,,,0,,,80,52
58680,note_on,60,0,2,,,,,,,,,,,,,,,0,,,59,28
58800,note_on,0,0,1,,,,,,,,,,,,,,,0,,,77,56
58800,note_on,120,0,2,,,,,,,,,,,,,,,0,,,59,0
58800,note_on,0,0,2,,,,,,,,,,,,,,,0,,,54,28
58800,note_on,120,0,1,,,,,,,,,,,,,,,0,,,80,0
58800,set_tempo,240,1,0,,,,,,,,,,,,615385,,,,,,,
58920,note_on,0,0,2,,,,,,,,,,,,,,,0,,,59,27
58920,note_on,120,0,2,,,,,,,,,,,,,,,0,,,54,0
58920,note_on,0,0,1,,,,,,,,,,,,,,,0,,,80,53
58920,note_on,120,0,1,,,,,,,,,,,,,,,0,,,77,0
59040,note_on,0,0,1,,,,,,,,,,,,,,,0,,,85,58
59040,note_on,120,0,1,,,,,,,,,,,,,,,0,,,80,0
59040,note_on,120,0,2,,,,,,,,,,,,,,,0,,,59,0
59040,note_on,0,0,2,,,,,,,,,,,,,,,0,,,54,31
59040,set_tempo,240,1,0,,,,,,,,,,,,600000,,,,,,,
59160,note_on,0,0,1,,,,,,,,,,,,,,,0,,,81,53
59160,note_on,120,0,2,,,,,,,,,,,,,,,0,,,54,0
59160,note_on,0,0,2,,,,,,,,,,,,,,,0,,,59,27
59160,note_on,120,0,1,,,,,,,,,,,,,,,0,,,85,0
59280,set_tempo,240,1,0,,,,,,,,,,,,618557,,,,,,,
59280,note_on,120,0,2,,,,,,,,,,,,,,,0,,,59,0
59280,note_on,0,0,2,,,,,,,,,,,,,,,0,,,54,28
59280,note_on,120,0,1,,,,,,,,,,,,,,,0,,,81,0
59280,note_on,0,0,1,,,,,,,,,,,,,,,0,,,85,57
59400,note_on,120,0,1,,,,,,,,,,,,,,,0,,,85,0
59400,note_on,0,0,1,,,,,,,,,,,,,,,0,,,81,52
59400,note_on,0,0,2,,,,,,,,,,,,,,,0,,,59,28
59400,note_on,120,0,2,,,,,,,,,,,,,,,0,,,54,0
59520,control_change,0,0,2,,,,,,,,,,,,,,,0,64,0,,
59520,note_on,120,0,2,,,,,,,,,,,,,,,0,,,59,0
59520,note_on,0,0,2,,,,,,,,,,,,,,,0,,,42,33
59520,set_tempo,240,1,0,,,,,,,,,,,,630318,,,,,,,
59520,note_on,0,0,1,,,,,,,,,,,,,,,0,,,82,57
59520,note_on,120,0,1,,,,,,,,,,,,,,,0,,,81,0
59549,control_change,29,0,2,,,,,,,,,,,,,,,0,64,127,,
59580,note_on,31,0,2,,,,,,,,,,,,,,,0,,,42,0
59640,note_on,0,0,1,,,,,,,,,,,,,,,0,,,81,53
59640,note_on,120,0,1,,,,,,,,,,,,,,,0,,,82,0
59640,note_on,60,0,2,,,,,,,,,,,,,,,0,,,58,28
59760,note_on,120,0,2,,,,,,,,,,,,,,,0,,,58,0
59760,note_on,0,0,2,,,,,,,,,,,,,,,0,,,54,28
59760,note_on,120,0,1,,,,,,,,,,,,,,,0,,,81,0
59760,note_on,0,0,1,,,,,,,,,,,,,,,0,,,82,52
59760,set_tempo,240,1,0,,,,,,,,,,,,615953,,,,,,,
59880,note_on,120,0,1,,,,,,,,,,,,,,,0,,,82,0
59880,note_on,0,0,1,,,,,,,,,,,,,,,0,,,77,52
59880,note_on,120,0,2,,,,,,,,,,,,,,,0,,,54,0
59880,note_on,0,0,2,,,,,,,,,,,,,,,0,,,58,28
60000,note_on,0,0,2,,,,,,,,,,,,,,,0,,,54,33
60000,note_on,120,0,2,,,,,,,,,,,,,,,0,,,58,0
60000,set_tempo,240,1,0,,,,,,,,,,,,602289,,,,,,,
60000,note_on,120,0,1,,,,,,,,,,,,,,,0,,,77,0
60000,note_on,0,0,1,,,,,,,,,,,,,,,0,,,78,57
60120,note_on,120,0,2,,,,,,,,,,,,,,,0,,,54,0
60120,note_on,0,0,2,,,,,,,,,,,,,,,0,,,58,29
60120,note_on,0,0,1,,,,,,,,,,,,,,,0,,,77,51
60120,note_on,120,0,1,,,,,,,,,,,,,,,0,,,78,0
60240,note_on,120,0,2,,,,,,,,,,,,,,,0,,,58,0
60240,note_on,0,0,2,,,,,,,,,,,,,,,0,,,54,29
60240,note_on,120,0,1,,,,,,,,,,,,,,,0,,,77,0
60240,set_tempo,240,1,0,,,,,,,,,,,,623053,,,,,,,
60240,note_on,0,0,1,,,,,,,,,,,,,,,0,,,78,51
60360,note_on,120,0,1,,,,,,,,,,,,,,,0,,,78,0
60360,note_on,0,0,2,,,,,,,,,,,,,,,0,,,58,29
60360,note_on,0,0,1,,,,,,,,,,,,,,,0,,,72,50
60360,note_on,120,0,2,,,,,,,,,,,,,,,0,,,54,0
60480,note_on,120,0,1,,,,,,,,,,,,,,,0,,,72,0
60480,note_on,120,0,2,,,,,,,,,,,,,,,0,,,58,0
60480,note_on,0,0,1,,,,,,,,,,,,,,,0,,,73,55
60480,note_on,0,0,2,,,,,,,,,,,,,,,0,,,54,33
60480,set_tempo,240,1,0,,,,,,,,,,,,612495,,,,,,,
60486,control_change,6,0,2,,,,,,,,,,,,,,,0,64,0,,
60526,control_change,40,0,2,,,,,,,,,,,,,,,0,64,127,,
60600,note_on,120,0,1,,,,,,,,,,,,,,,0,,,73,0
60600,note_on,0,0,2,,,,,,,,,,,,,,,0,,,58,28
60600,note_on,74,0,2,,,,,,,,,,,,,,,0,,,54,0
60600,note_on,0,0,1,,,,,,,,,,,,,,,0,,,72,51
60720,set_tempo,240,1,0,,,,,,,,,,,,626697,,,,,,,
60720,note_on,120,0,1,,,,,,,,,,,,,,,0,,,72,0
60720,note_on,0,0,2,,,,,,,,,,,,,,,0,,,54,28
60720,note_on,0,0,1,,,,,,,,,,,,,,,0,,,73,51
60720,note_on,120,0,2,,,,,,,,,,,,,,,0,,,58,0
60840,note_on,120,0,1,,,,,,,,,,,,,,,0,,,73,0
60840,note_on,120,0,2,,,,,,,,,,,,,,,0,,,54,0
60840,note_on,0,0,2,,,,,,,,,,,,,,,0,,,58,27
60840,note_on,0,0,1,,,,,,,,,,,,,,,0,,,69,51
60960,note_on,120,0,2,,,,,,,,,,,,,,,0,,,58,0
60960,note_on,0,0,2,,,,,,,,,,,,,,,0,,,54,31
60960,set_tempo,240,1,0,,,,,,,,,,,,633981,,,,,,,
60960,note_on,0,0,1,,,,,,,,,,,,,,,0,,,70,54
60960,note_on,120,0,1,,,,,,,,,,,,,,,0,,,69,0
61080,note_on,0,0,1,,,,,,,,,,,,,,,0,,,69,47
61080,note_on,0,0,2,,,,,,,,,,,,,,,0,,,58,27
61080,note_on,120,0,1,,,,,,,,,,,,,,,0,,,70,0
61080,note_on,120,0,2,,,,,,,,,,,,,,,0,,,54,0
61200,note_on,120,0,2,,,,,,,,,,,,,,,0,,,58,0
61200,note_on,0,0,2,,,,,,,,,,,,,,,0,,,54,28
61200,note_on,120,0,1,,,,,,,,,,,,,,,0,,,69,0
61200,set_tempo,240,1,0,,,,,,,,,,,,649210,,,,,,,
61200,note_on,0,0,1,,,,,,,,,,,,,,,0,,,70,49
61320,note_on,120,0,1,,,,,,,,,,,,,,,0,,,70,0
61320,note_on,0,0,1,,,,,,,,,,,,,,,0,,,65,47
61320,note_on,0,0,2,,,,,,,,,,,,,,,0,,,58,28
61320,note_on,120,0,2,,,,,,,,,,,,,,,0,,,54,0
61440,control_change,0,0,2,,,,,,,,,,,,,,,0,64,0,,
61440,note_on,120,0,2,,,,,,,,,,,,,,,0,,,58,0
61440,note_on,0,0,1,,,,,,,,,,,,,,,0,,,66,57
61440,set_tempo,240,1,0,,,,,,,,,,,,633981,,,,,,,
61440,note_on,120,0,1,,,,,,,,,,,,,,,0,,,65,0
61440,note_on,0,0,2,,,,,,,,,,,,,,,0,,,42,33
61471,control_change,31,0,2,,,,,,,,,,,,,,,0,64,127,,
61500,note_on,29,0,2,,,,,,,,,,,,,,,0,,,42,0
61560,note_on,120,0,1,,,,,,,,,,,,,,,0,,,66,0
61560,note_on,0,0,1,,,,,,,,,,,,,,,0,,,81,53
61560,note_on,60,0,2,,,,,,,,,,,,,,,0,,,58,28
61680,note_on,120,0,2,,,,,,,,,,,,,,,0,,,58,0
61680,note_on,0,0,2,,,,,,,,,,,,,,,0,,,54,28
61680,note_on,120,0,1,,,,,,,,,,,,,,,0,,,81,0
61680,note_on,0,0,1,,,,,,,,,,,,,,,0,,,82,52
61680,set_tempo,240,1,0,,,,,,,,,,,,623053,,,,,,,
61800,note_on,120,0,1,,,,,,,,,,,,,,,0,,,82,0
61800,note_on,0,0,1,,,,,,,,,,,,,,,0,,,77,52
61800,note_on,0,0,2,,,,,,,,,,,,,,,0,,,58,28
61800,note_on,120,0,2,,,,,,,,,,,,,,,0,,,54,0
61920,set_tempo,240,1,0,,,,,,,,,,,,596956,,,,,,,
61920,note_on,120,0,1,,,,,,,,,,,,,,,0,,,77,0
61920,note_on,0,0,1,,,,,,,,,,,,,,,0,,,78,57
61920,note_on,120,0,2,,,,,,,,,,,,,,,0,,,58,0
61920,note_on,0,0,2,,,,,,,,,,,,,,,0,,,54,33
62040,note_on,120,0,1,,,,,,,,,,,,,,,0,,,78,0
62040,note_on,0,0,1,,,,,,,,,,,,,,,0,,,77,51
62040,note_on,120,0,2,,,,,,,,,,,,,,,0,,,54,0
62040,note_on,0,0,2,,,,,,,,,,,,,,,0,,,58,29
62160,note_on,0,0,1,,,,,,,,,,,,,,,0,,,78,51
62160,note_on,120,0,1,,,,,,,,,,,,,,,0,,,77,0
62160,set_tempo,240,1,0,,,,,,,,,,,,623053,,,,,,,
62160,note_on,120,0,2,,,,,,,,,,,,,,,0,,,58,0
62160,note_on,0,0,2,,,,,,,,,,,,,,,0,,,54,29
62280,note_on,0,0,1,,,,,,,,,,,,,,,0,,,72,50
62280,note_on,120,0,1,,,,,,,,,,,,,,,0,,,78,0
62280,note_on,120,0,2,,,,,,,,,,,,,,,0,,,54,0
62280,note_on,0,0,2,,,,,,,,,,,,,,,0,,,58,29
62400,set_tempo,240,1,0,,,,,,,,,,,,605632,,,,,,,
62400,note_on,0,0,1,,,,,,,,,,,,,,,0,,,73,55
62400,note_on,0,0,2,,,,,,,,,,,,,,,0,,,54,33
62400,note_on,120,0,1,,,,,,,,,,,,,,,0,,,72,0
62400,note_on,120,0,2,,,,,,,,,,,,,,,0,,,58,0
62406,control_change,6,0,2,,,,,,,,,,,,,,,0,64,0,,
62463,control_change,57,0,2,,,,,,,,,,,,,,,0,64,127,,
62520,note_on,0,0,1,,,,,,,,,,,,,,,0,,,72,51
62520,note_on,120,0,1,,,,,,,,,,,,,,,0,,,73,0
62520,note_on,57,0,2,,,,,,,,,,,,,,,0,,,54,0
62520,note_on,0,0,2,,,,,,,,,,,,,,,0,,,58,28
62640,note_on,0,0,2,,,,,,,,,,,,,,,0,,,54,28
62640,note_on,0,0,1,,,,,,,,,,,,,,,0,,,73,51
62640,set_tempo,240,1,0,,,,,,,,,,,,630318,,,,,,,
62640,note_on,120,0,1,,,,,,,,,,,,,,,0,,,72,0
62640,note_on,120,0,2,,,,,,,,,,,,,,,0,,,58,0
62760,note_on,120,0,2,,,,,,,,,,,,,,,0,,,54,0
62760,note_on,120,0,1,,,,,,,,,,,,,,,0,,,73,0
62760,note_on,0,0,1,,,,,,,,,,,,,,,0,,,69,51
62760,note_on,0,0,2,,,,,,,,,,,,,,,0,,,58,27
62880,note_on,0,0,1,,,,,,,,,,,,,,,0,,,70,54
62880,note_on,120,0,1,,,,,,,,,,,,,,,0,,,69,0
62880,note_on,0,0,2,,,,,,,,,,,,,,,0,,,54,31
62880,note_on,120,0,2,,,,,,,,,,,,,,,0,,,58,0
62880,set_tempo,240,1,0,,,,,,,,,,,,612495,,,,,,,
63000,note_on,0,0,2,,,,,,,,,,,,,,,0,,,58,27
63000,note_on,120,0,2,,,,,,,,,,,,,,,0,,,54,0
63000,note_on,0,0,1,,,,,,,,,,,,,,,0,,,69,47
63000,note_on,120,0,1,,,,,,,,,,,,,,,0,,,70,0
63120,note_on,120,0,1,,,,,,,,,,,,,,,0,,,69,0
63120,set_tempo,240,1,0,,,,,,,,,,,,633981,,,,,,,
63120,note_on,0,0,1,,,,,,,,,,,,,,,0,,,70,49
63120,note_on,0,0,2,,,,,,,,,,,,,,,0,,,54,28
63120,note_on,120,0,2,,,,,,,,,,,,,,,0,,,58,0
63240,note_on,120,0,2,,,,,,,,,,,,,,,0,,,54,0
63240,note_on,0,0,2,,,,,,,,,,,,,,,0,,,58,28
63240,note_on,0,0,1,,,,,,,,,,,,,,,0,,,65,47
63240,note_on,120,0,1,,,,,,,,,,,,,,,0,,,70,0
63360,note_on,120,0,2,,,,,,,,,,,,,,,0,,,58,0
63360,control_change,0,0,2,,,,,,,,,,,,,,,0,64,0,,
63360,note_on,0,0,2,,,,,,,,,,,,,,,0,,,54,33
63360,set_tempo,240,1,0,,,,,,,,,,,,630318,,,,,,,
63360,note_on,0,0,1,,,,,,,,,,,,,,,0,,,66,53
63360,note_on,120,0,1,,,,,,,,,,,,,,,0,,,65,0
63423,control_change,63,0,2,,,,,,,,,,,,,,,0,64,127,,
63480,note_on,120,0,1,,,,,,,,,,,,,,,0,,,66,0
63480,note_on,0,0,1,,,,,,,,,,,,,,,0,,,65,49
63480,note_on,0,0,2,,,,,,,,,,,,,,,0,,,58,28
63480,note_on,57,0,2,,,,,,,,,,,,,,,0,,,54,0
63600,note_on,0,0,2,,,,,,,,,,,,,,,0,,,54,28
63600,note_on,120,0,1,,,,,,,,,,,,,,,0,,,65,0
63600,note_on,0,0,1,,,,,,,,,,,,,,,0,,,66,49
63600,set_tempo,240,1,0,,,,,,,,,,,,623053,,,,,,,
63600,note_on,120,0,2,,,,,,,,,,,,,,,0,,,58,0
63720,note_on,0,0,2,,,,,,,,,,,,,,,0,,,58,28
63720,note_on,120,0,2,,,,,,,,,,,,,,,0,,,54,0
63720,note_on,120,0,1,,,,,,,,,,,,,,,0,,,66,0
63720,note_on,0,0,1,,,,,,,,,,,,,,,0,,,68,49
63840,note_on,0,0,2,,,,,,,,,,,,,,,0,,,54,33
63840,note_on,120,0,2,,,,,,,,,,,,,,,0,,,58,0
63840,note_on,120,0,1,,,,,,,,,,,,,,,0,,,68,0
63840,note_on,0,0,1,,,,,,,,,,,,,,,0,,,70,55
63960,note_on,0,0,1,,,,,,,,,,,,,,,0,,,71,49
63960,note_on,120,0,1,,,,,,,,,,,,,,,0,,,70,0
63960,note_on,120,0,2,,,,,,,,,,,,,,,0,,,54,0
63960,note_on,0,0,2,,,,,,,,,,,,,,,0,,,58,29
64080,note_on,120,0,1,,,,,,,,,,,,,,,0,,,71,0
64080,note_on,120,0,2,,,,,,,,,,,,,,,0,,,58,0
64080,note_on,0,0,2,,,,,,,,,,,,,,,0,,,54,29
64080,note_on,0,0,1,,,,,,,,,,,,,,,0,,,70,49
64080,set_tempo,480,1,0,,,,,,,,,,,,637552,,,,,,,
64200,note_on,0,0,1,,,,,,,,,,,,,,,0,,,68,49
64200,note_on,120,0,1,,,,,,,,,,,,,,,0,,,70,0
64200,note_on,120,0,2,,,,,,,,,,,,,,,0,,,54,0
64200,note_on,0,0,2,,,,,,,,,,,,,,,0,,,58,30
64320,note_on,0,0,1,,,,,,,,,,,,,,,0,,,66,55
64320,note_on,120,0,1,,,,,,,,,,,,,,,0,,,68,0
64320,note_on,120,0,2,,,,,,,,,,,,,,,0,,,58,0
64320,note_on,0,0,2,,,,,,,,,,,,,,,0,,,54,34
64320,set_tempo,240,1,0,,,,,,,,,,,,655236,,,,,,,
64326,control_change,6,0,2,,,,,,,,,,,,,,,0,64,0,,
64383,control_change,57,0,2,,,,,,,,,,,,,,,0,64,127,,
64440,note_on,0,0,2,,,,,,,,,,,,,,,0,,,58,29
64440,note_on,57,0,2,,,,,,,,,,,,,,,0,,,54,0
64440,note_on,120,0,1,,,,,,,,,,,,,,,0,,,66,0
64440,note_on,0,0,1,,,,,,,,,,,,,,,0,,,68,50
64560,note_on,120,0,2,,,,,,,,,,,,,,,0,,,58,0
64560,set_tempo,240,1,0,,,,,,,,,,,,678656,,,,,,,
64560,note_on,0,0,2,,,,,,,,,,,,,,,0,,,54,29
64560,note_on,0,0,1,,,,,,,,,,,,,,,0,,,70,50
64560,note_on,120,0,1,,,,,,,,,,,,,,,0,,,68,0
64680,note_on,0,0,1,,,,,,,,,,,,,,,0,,,68,50
64680,note_on,120,0,1,,,,,,,,,,,,,,,0,,,70,0
64680,note_on,120,0,2,,,,,,,,,,,,,,,0,,,54,0
64680,note_on,0,0,2,,,,,,,,,,,,,,,0,,,58,28
64800,note_on,120,0,2,,,,,,,,,,,,,,,0,,,58,0
64800,set_tempo,240,1,0,,,,,,,,,,,,666741,,,,,,,
64800,note_on,120,0,1,,,,,,,,,,,,,,,0,,,68,0
64800,note_on,0,0,1,,,,,,,,,,,,,,,0,,,66,55
64800,note_on,0,0,2,,,,,,,,,,,,,,,0,,,54,33
64920,note_on,0,0,1,,,,,,,,,,,,,,,0,,,68,50
64920,note_on,0,0,2,,,,,,,,,,,,,,,0,,,58,29
64920,note_on,120,0,1,,,,,,,,,,,,,,,0,,,66,0
64920,note_on,120,0,2,,,,,,,,,,,,,,,0,,,54,0
65040,note_on,120,0,1,,,,,,,,,,,,,,,0,,,68,0
65040,note_on,0,0,1,,,,,,,,,,,,,,,0,,,66,52
65040,note_on,120,0,2,,,,,,,,,,,,,,,0,,,58,0
65040,note_on,0,0,2,,,,,,,,,,,,,,,0,,,54,30
65040,set_tempo,240,1,0,,,,,,,,,,,,695249,,,,,,,
65160,note_on,120,0,2,,,,,,,,,,,,,,,0,,,54,0
65160,note_on,0,0,2,,,,,,,,,,,,,,,0,,,58,30
65160,note_on,0,0,1,,,,,,,,,,,,,,,0,,,65,51
65160,note_on,120,0,1,,,,,,,,,,,,,,,0,,,66,0
65280,note_on,120,0,1,,,,,,,,,,,,,,,0,,,65,0
65280,note_on,0,0,1,,,,,,,,,,,,,,,0,,,64,57
65280,note_on,120,0,2,,,,,,,,,,,,,,,0,,,58,0
65280,note_on,0,0,2,,,,,,,,,,,,,,,0,,,42,34
65280,control_change,0,0,2,,,,,,,,,,,,,,,0,64,0,,
65280,set_tempo,240,1,0,,,,,,,,,,,,745342,,,,,,,
65326,control_change,46,0,2,,,,,,,,,,,,,,,0,64,127,,
65440,note_on,160,0,1,,,,,,,,,,,,,,,0,,,64,0
65440,note_on,0,0,1,,,,,,,,,,,,,,,0,,,70,52
65440,note_on,114,0,2,,,,,,,,,,,,,,,0,,,42,0
65440,note_on,0,0,2,,,,,,,,,,,,,,,0,,,54,31
65440,set_tempo,160,1,0,,,,,,,,,,,,705882,,,,,,,
65600,note_on,0,0,1,,,,,,,,,,,,,,,0,,,58,45
65600,note_on,0,0,1,,,,,,,,,,,,,,,0,,,70,54
65600,note_on,160,0,2,,,,,,,,,,,,,,,0,,,54,0
65600,note_on,0,0,2,,,,,,,,,,,,,,,0,,,54,31
65600,note_on,0,0,2,,,,,,,,,,,,,,,0,,,42,25
65600,note_on,0,0,1,,,,,,,,,,,,,,,0,,,64,45
65600,note_on,160,0,1,,,,,,,,,,,,,,,0,,,70,0
65760,note_on,160,0,2,,,,,,,,,,,,,,,0,,,42,0
65760,note_on,160,0,1,,,,,,,,,,,,,,,0,,,70,0
65760,note_on,0,0,2,,,,,,,,,,,,,,,0,,,42,29
65760,note_on,0,0,2,,,,,,,,,,,,,,,0,,,54,35
65760,note_on,0,0,1,,,,,,,,,,,,,,,0,,,64,0
65760,note_on,0,0,1,,,,,,,,,,,,,,,0,,,58,0
65760,note_on,0,0,1,,,,,,,,,,,,,,,0,,,58,50
65760,note_on,0,0,1,,,,,,,,,,,,,,,0,,,70,59
65760,note_on,0,0,1,,,,,,,,,,,,,,,0,,,64,50
65760,note_on,0,0,2,,,,,,,,,,,,,,,0,,,54,0
65920,note_on,160,0,1,,,,,,,,,,,,,,,0,,,64,0
65920,note_on,0,0,1,,,,,,,,,,,,,,,0,,,70,0
65920,note_on,0,0,1,,,,,,,,,,,,,,,0,,,58,0
65920,note_on,0,0,1,,,,,,,,,,,,,,,0,,,64,47
65920,note_on,160,0,2,,,,,,,,,,,,,,,0,,,54,0
65920,note_on,0,0,2,,,,,,,,,,,,,,,0,,,54,31
65920,note_on,0,0,1,,,,,,,,,,,,,,,0,,,58,47
65920,note_on,0,0,1,,,,,,,,,,,,,,,0,,,70,56
65920,note_on,0,0,2,,,,,,,,,,,,,,,0,,,42,25
65920,note_on,0,0,2,,,,,,,,,,,,,,,0,,,42,0
66080,note_on,0,0,1,,,,,,,,,,,,,,,0,,,64,0
66080,note_on,0,0,1,,,,,,,,,,,,,,,0,,,58,48
66080,note_on,0,0,1,,,,,,,,,,,,,,,0,,,64,48
66080,note_on,0,0,2,,,,,,,,,,,,,,,0,,,54,33
66080,note_on,0,0,2,,,,,,,,,,,,,,,0,,,42,0
66080,note_on,160,0,2,,,,,,,,,,,,,,,0,,,54,0
66080,note_on,0,0,1,,,,,,,,,,,,,,,0,,,70,0
66080,note_on,160,0,1,,,,,,,,,,,,,,,0,,,58,0
66080,note_on,0,0,1,,,,,,,,,,,,,,,0,,,70,57
66080,note_on,0,0,2,,,,,,,,,,,,,,,0,,,42,27
66240,note_on,0,0,1,,,,,,,,,,,,,,,0,,,70,0
66240,note_on,160,0,2,,,,,,,,,,,,,,,0,,,54,0
66240,set_tempo,800,1,0,,,,,,,,,,,,694525,,,,,,,
66240,note_on,0,0,1,,,,,,,,,,,,,,,0,,,70,62
66240,note_on,0,0,2,,,,,,,,,,,,,,,0,,,42,0
66240,note_on,0,0,2,,,,,,,,,,,,,,,0,,,54,37
66240,note_on,0,0,2,,,,,,,,,,,,,,,0,,,42,31
66240,note_on,0,0,1,,,,,,,,,,,,,,,0,,,58,0
66240,note_on,160,0,1,,,,,,,,,,,,,,,0,,,64,0
66240,note_on,0,0,1,,,,,,,,,,,,,,,0,,,58,52
66240,note_on,0,0,1,,,,,,,,,,,,,,,0,,,64,52
66280,set_tempo,40,1,0,,,,,,,,,,,,694847,,,,,,,
66286,control_change,46,0,2,,,,,,,,,,,,,,,0,64,0,,
66343,control_change,57,0,2,,,,,,,,,,,,,,,0,64,127,,
66400,note_on,0,0,1,,,,,,,,,,,,,,,0,,,58,0
66400,note_on,0,0,1,,,,,,,,,,,,,,,0,,,64,47
66400,note_on,160,0,1,,,,,,,,,,,,,,,0,,,64,0
66400,note_on,0,0,1,,,,,,,,,,,,,,,0,,,58,47
66400,note_on,0,0,1,,,,,,,,,,,,,,,0,,,70,56
66400,note_on,0,0,2,,,,,,,,,,,,,,,0,,,54,35
66400,note_on,0,0,1,,,,,,,,,,,,,,,0,,,70,0
66400,note_on,0,0,2,,,,,,,,,,,,,,,0,,,42,29
66400,note_on,57,0,2,,,,,,,,,,,,,,,0,,,42,0
66400,note_on,0,0,2,,,,,,,,,,,,,,,0,,,54,0
66440,set_tempo,160,1,0,,,,,,,,,,,,690290,,,,,,,
66560,note_on,0,0,1,,,,,,,,,,,,,,,0,,,58,0
66560,note_on,0,0,1,,,,,,,,,,,,,,,0,,,70,0
66560,note_on,0,0,2,,,,,,,,,,,,,,,0,,,54,35
66560,note_on,0,0,1,,,,,,,,,,,,,,,0,,,64,47
66560,note_on,0,0,1,,,,,,,,,,,,,,,0,,,70,57
66560,note_on,160,0,2,,,,,,,,,,,,,,,0,,,54,0
66560,note_on,0,0,2,,,,,,,,,,,,,,,0,,,42,0
66560,note_on,0,0,2,,,,,,,,,,,,,,,0,,,42,29
66560,note_on,160,0,1,,,,,,,,,,,,,,,0,,,64,0
66560,note_on,0,0,1,,,,,,,,,,,,,,,0,,,58,47
66600,set_tempo,160,1,0,,,,,,,,,,,,685793,,,,,,,
66720,note_on,160,0,1,,,,,,,,,,,,,,,0,,,64,0
66720,note_on,0,0,1,,,,,,,,,,,,,,,0,,,70,65
66720,set_tempo,120,1,0,,,,,,,,,,,,681431,,,,,,,
66720,note_on,0,0,1,,,,,,,,,,,,,,,0,,,58,0
66720,note_on,0,0,1,,,,,,,,,,,,,,,0,,,70,0
66720,note_on,0,0,1,,,,,,,,,,,,,,,0,,,64,55
66720,note_on,0,0,2,,,,,,,,,,,,,,,0,,,42,32
66720,note_on,0,0,2,,,,,,,,,,,,,,,0,,,54,38
66720,note_on,0,0,2,,,,,,,,,,,,,,,0,,,49,32
66720,note_on,0,0,2,,,,,,,,,,,,,,,0,,,42,0
66720,note_on,160,0,2,,,,,,,,,,,,,,,0,,,54,0
66720,note_on,0,0,1,,,,,,,,,,,,,,,0,,,58,55
66880,note_on,0,0,2,,,,,,,,,,,,,,,0,,,54,35
66880,note_on,160,0,1,,,,,,,,,,,,,,,0,,,70,0
66880,note_on,0,0,1,,,,,,,,,,,,,,,0,,,64,0
66880,note_on,0,0,1,,,,,,,,,,,,,,,0,,,58,0
66880,set_tempo,160,1,0,,,,,,,,,,,,677048,,,,,,,
66880,note_on,0,0,2,,,,,,,,,,,,,,,0,,,49,32
66880,note_on,0,0,2,,,,,,,,,,,,,,,0,,,54,0
66880,note_on,0,0,2,,,,,,,,,,,,,,,0,,,42,28
66880,note_on,0,0,2,,,,,,,,,,,,,,,0,,,49,0
66880,note_on,0,0,1,,,,,,,,,,,,,,,0,,,58,51
66880,note_on,0,0,1,,,,,,,,,,,,,,,0,,,64,51
66880,note_on,0,0,1,,,,,,,,,,,,,,,0,,,70,61
66880,note_on,160,0,2,,,,,,,,,,,,,,,0,,,42,0
67040,note_on,160,0,2,,,,,,,,,,,,,,,0,,,49,0
67040,note_on,0,0,2,,,,,,,,,,,,,,,0,,,54,0
67040,note_on,0,0,2,,,,,,,,,,,,,,,0,,,42,0
67040,note_on,0,0,2,,,,,,,,,,,,,,,0,,,42,29
67040,note_on,0,0,2,,,,,,,,,,,,,,,0,,,49,33
67040,note_on,0,0,2,,,,,,,,,,,,,,,0,,,54,35
67040,note_on,0,0,1,,,,,,,,,,,,,,,0,,,70,62
67040,set_tempo,160,1,0,,,,,,,,,,,,672646,,,,,,,
67040,note_on,160,0,1,,,,,,,,,,,,,,,0,,,70,0
67040,note_on,0,0,1,,,,,,,,,,,,,,,0,,,64,0
67040,note_on,0,0,1,,,,,,,,,,,,,,,0,,,58,0
67040,note_on,0,0,1,,,,,,,,,,,,,,,0,,,58,52
67040,note_on,0,0,1,,,,,,,,,,,,,,,0,,,64,52
67160,set_tempo,120,1,0,,,,,,,,,,,,668449,,,,,,,
67200,note_on,160,0,2,,,,,,,,,,,,,,,0,,,54,0
67200,note_on,0,0,2,,,,,,,,,,,,,,,0,,,49,0
67200,note_on,0,0,2,,,,,,,,,,,,,,,0,,,42,0
67200,note_on,0,0,2,,,,,,,,,,,,,,,0,,,42,33
67200,note_on,0,0,2,,,,,,,,,,,,,,,0,,,49,33
67200,note_on,0,0,2,,,,,,,,,,,,,,,0,,,54,40
67200,set_tempo,40,1,0,,,,,,,,,,,,668449,,,,,,,
67200,note_on,0,0,1,,,,,,,,,,,,,,,0,,,70,67
67200,note_on,0,0,1,,,,,,,,,,,,,,,0,,,58,57
67200,note_on,0,0,1,,,,,,,,,,,,,,,0,,,58,0
67200,note_on,0,0,1,,,,,,,,,,,,,,,0,,,64,0
67200,note_on,160,0,1,,,,,,,,,,,,,,,0,,,70,0
67200,control_change,0,0,2,,,,,,,,,,,,,,,0,64,0,,
67200,note_on,0,0,1,,,,,,,,,,,,,,,0,,,64,57
67263,control_change,63,0,2,,,,,,,,,,,,,,,0,64,127,,
67360,note_on,0,0,2,,,,,,,,,,,,,,,0,,,49,0
67360,note_on,0,0,1,,,,,,,,,,,,,,,0,,,58,53
67360,note_on,0,0,2,,,,,,,,,,,,,,,0,,,42,30
67360,note_on,0,0,2,,,,,,,,,,,,,,,0,,,54,36
67360,note_on,0,0,2,,,,,,,,,,,,,,,0,,,49,34
67360,note_on,0,0,1,,,,,,,,,,,,,,,0,,,70,64
67360,note_on,0,0,1,,,,,,,,,,,,,,,0,,,64,53
67360,note_on,0,0,1,,,,,,,,,,,,,,,0,,,58,0
67360,note_on,0,0,1,,,,,,,,,,,,,,,0,,,70,0
67360,note_on,160,0,1,,,,,,,,,,,,,,,0,,,64,0
67360,note_on,0,0,2,,,,,,,,,,,,,,,0,,,42,0
67360,note_on,97,0,2,,,,,,,,,,,,,,,0,,,54,0
67520,note_on,0,0,1,,,,,,,,,,,,,,,0,,,70,65
67520,note_on,0,0,1,,,,,,,,,,,,,,,0,,,58,0
67520,note_on,160,0,2,,,,,,,,,,,,,,,0,,,49,0
67520,set_tempo,320,1,0,,,,,,,,,,,,672646,,,,,,,
67520,note_on,160,0,1,,,,,,,,,,,,,,,0,,,70,0
67520,note_on,0,0,1,,,,,,,,,,,,,,,0,,,64,0
67520,note_on,0,0,1,,,,,,,,,,,,,,,0,,,58,55
67520,note_on,0,0,2,,,,,,,,,,,,,,,0,,,54,0
67520,note_on,0,0,2,,,,,,,,,,,,,,,0,,,49,35
67520,note_on,0,0,1,,,,,,,,,,,,,,,0,,,64,55
67520,note_on,0,0,2,,,,,,,,,,,,,,,0,,,42,0
67520,note_on,0,0,2,,,,,,,,,,,,,,,0,,,42,30
67520,note_on,0,0,2,,,,,,,,,,,,,,,0,,,54,37
67680,note_on,160,0,2,,,,,,,,,,,,,,,0,,,42,0
67680,note_on,0,0,2,,,,,,,,,,,,,,,0,,,54,0
67680,note_on,0,0,2,,,,,,,,,,,,,,,0,,,49,0
67680,note_on,0,0,2,,,,,,,,,,,,,,,0,,,42,36
67680,note_on,0,0,2,,,,,,,,,,,,,,,0,,,49,36
67680,note_on,0,0,2,,,,,,,,,,,,,,,0,,,54,44
67680,note_on,0,0,1,,,,,,,,,,,,,,,0,,,64,59
67680,note_on,0,0,1,,,,,,,,,,,,,,,0,,,58,59
67680,note_on,0,0,1,,,,,,,,,,,,,,,0,,,64,0
67680,note_on,0,0,1,,,,,,,,,,,,,,,0,,,70,71
67680,note_on,160,0,1,,,,,,,,,,,,,,,0,,,70,0
67680,note_on,0,0,1,,,,,,,,,,,,,,,0,,,58,0
67840,note_on,0,0,1,,,,,,,,,,,,,,,0,,,58,0
67840,note_on,0,0,1,,,,,,,,,,,,,,,0,,,64,56
67840,note_on,160,0,1,,,,,,,,,,,,,,,0,,,70,0
67840,note_on,0,0,1,,,,,,,,,,,,,,,0,,,64,0
67840,note_on,0,0,2,,,,,,,,,,,,,,,0,,,49,37
67840,note_on,0,0,1,,,,,,,,,,,,,,,0,,,70,67
67840,note_on,0,0,2,,,,,,,,,,,,,,,0,,,54,40
67840,note_on,0,0,2,,,,,,,,,,,,,,,0,,,42,33
67840,note_on,0,0,2,,,,,,,,,,,,,,,0,,,42,0
67840,note_on,0,0,2,,,,,,,,,,,,,,,0,,,49,0
67840,note_on,160,0,2,,,,,,,,,,,,,,,0,,,54,0
67840,set_tempo,320,1,0,,,,,,,,,,,,677048,,,,,,,
67840,note_on,0,0,1,,,,,,,,,,,,,,,0,,,58,56
68000,note_on,0,0,2,,,,,,,,,,,,,,,0,,,42,34
68000,note_on,0,0,1,,,,,,,,,,,,,,,0,,,58,0
68000,note_on,0,0,1,,,,,,,,,,,,,,,0,,,64,0
68000,note_on,0,0,1,,,,,,,,,,,,,,,0,,,64,57
68000,note_on,0,0,1,,,,,,,,,,,,,,,0,,,58,57
68000,note_on,0,0,2,,,,,,,,,,,,,,,0,,,54,42
68000,note_on,0,0,2,,,,,,,,,,,,,,,0,,,49,39
68000,note_on,0,0,2,,,,,,,,,,,,,,,0,,,42,0
68000,note_on,0,0,2,,,,,,,,,,,,,,,0,,,54,0
68000,note_on,160,0,2,,,,,,,,,,,,,,,0,,,49,0
68000,note_on,160,0,1,,,,,,,,,,,,,,,0,,,70,0
68000,note_on,0,0,1,,,,,,,,,,,,,,,0,,,70,69
68120,set_tempo,280,1,0,,,,,,,,,,,,681431,,,,,,,
68160,note_on,0,0,1,,,,,,,,,,,,,,,0,,,70,0
68160,note_on,160,0,2,,,,,,,,,,,,,,,0,,,42,0
68160,set_tempo,40,1,0,,,,,,,,,,,,681431,,,,,,,
68160,note_on,0,0,2,,,,,,,,,,,,,,,0,,,54,48
68160,note_on,0,0,2,,,,,,,,,,,,,,,0,,,49,40
68160,note_on,0,0,2,,,,,,,,,,,,,,,0,,,42,40
68160,note_on,0,0,2,,,,,,,,,,,,,,,0,,,49,0
68160,note_on,0,0,2,,,,,,,,,,,,,,,0,,,54,0
68160,note_on,0,0,1,,,,,,,,,,,,,,,0,,,64,62
68160,note_on,0,0,1,,,,,,,,,,,,,,,0,,,58,62
68160,note_on,0,0,1,,,,,,,,,,,,,,,0,,,70,74
68160,note_on,0,0,1,,,,,,,,,,,,,,,0,,,64,0
68160,note_on,160,0,1,,,,,,,,,,,,,,,0,,,58,0
68240,set_tempo,80,1,0,,,,,,,,,,,,685793,,,,,,,
68320,note_on,160,0,1,,,,,,,,,,,,,,,0,,,64,0
68320,note_on,0,0,1,,,,,,,,,,,,,,,0,,,58,0
68320,note_on,0,0,1,,,,,,,,,,,,,,,0,,,70,0
68320,note_on,0,0,1,,,,,,,,,,,,,,,0,,,70,71
68320,note_on,0,0,1,,,,,,,,,,,,,,,0,,,58,59
68320,note_on,160,0,2,,,,,,,,,,,,,,,0,,,54,0
68320,note_on,0,0,1,,,,,,,,,,,,,,,0,,,64,59
68320,note_on,0,0,2,,,,,,,,,,,,,,,0,,,42,0
68320,note_on,0,0,2,,,,,,,,,,,,,,,0,,,42,37
68320,note_on,0,0,2,,,,,,,,,,,,,,,0,,,54,44
68320,note_on,0,0,2,,,,,,,,,,,,,,,0,,,49,41
68320,note_on,0,0,2,,,,,,,,,,,,,,,0,,,49,0
68320,set_tempo,80,1,0,,,,,,,,,,,,690290,,,,,,,
68360,set_tempo,40,1,0,,,,,,,,,,,,694847,,,,,,,
68440,set_tempo,80,1,0,,,,,,,,,,,,699464,,,,,,,
68480,note_on,0,0,1,,,,,,,,,,,,,,,0,,,70,72
68480,note_on,0,0,2,,,,,,,,,,,,,,,0,,,42,0
68480,note_on,0,0,2,,,,,,,,,,,,,,,0,,,49,43
68480,note_on,0,0,2,,,,,,,,,,,,,,,0,,,54,46
68480,note_on,0,0,2,,,,,,,,,,,,,,,0,,,42,37
68480,note_on,0,0,1,,,,,,,,,,,,,,,0,,,70,0
68480,note_on,0,0,2,,,,,,,,,,,,,,,0,,,54,0
68480,note_on,160,0,2,,,,,,,,,,,,,,,0,,,49,0
68480,note_on,0,0,1,,,,,,,,,,,,,,,0,,,58,60
68480,set_tempo,40,1,0,,,,,,,,,,,,704060,,,,,,,
68480,note_on,160,0,1,,,,,,,,,,,,,,,0,,,64,0
68480,note_on,0,0,1,,,,,,,,,,,,,,,0,,,58,0
68480,note_on,0,0,1,,,,,,,,,,,,,,,0,,,64,60
68560,set_tempo,80,1,0,,,,,,,,,,,,708801,,,,,,,
68600,set_tempo,40,1,0,,,,,,,,,,,,713606,,,,,,,
68640,note_on,0,0,1,,,,,,,,,,,,,,,0,,,58,0
68640,note_on,0,0,1,,,,,,,,,,,,,,,0,,,70,0
68640,note_on,0,0,1,,,,,,,,,,,,,,,0,,,70,85
68640,note_on,0,0,1,,,,,,,,,,,,,,,0,,,65,72
68640,note_on,0,0,1,,,,,,,,,,,,,,,0,,,58,72
68640,note_on,160,0,1,,,,,,,,,,,,,,,0,,,64,0
68640,set_tempo,40,1,0,,,,,,,,,,,,733407,,,,,,,
68640,note_on,160,0,2,,,,,,,,,,,,,,,0,,,42,0
68640,note_on,0,0,2,,,,,,,,,,,,,,,0,,,53,57
68640,note_on,0,0,2,,,,,,,,,,,,,,,0,,,41,48
68640,note_on,0,0,2,,,,,,,,,,,,,,,0,,,49,0
68640,note_on,0,0,2,,,,,,,,,,,,,,,0,,,54,0
68640,note_on,0,0,2,,,,,,,,,,,,,,,0,,,50,48
68657,control_change,17,0,2,,,,,,,,,,,,,,,0,64,0,,
68703,control_change,46,0,2,,,,,,,,,,,,,,,0,64,127,,
68800,note_on,0,0,2,,,,,,,,,,,,,,,0,,,53,52
68800,note_on,0,0,2,,,,,,,,,,,,,,,0,,,50,48
68800,note_on,0,0,2,,,,,,,,,,,,,,,0,,,41,42
68800,note_on,0,0,2,,,,,,,,,,,,,,,0,,,41,0
68800,note_on,0,0,2,,,,,,,,,,,,,,,0,,,50,0
68800,note_on,97,0,2,,,,,,,,,,,,,,,0,,,53,0
68800,note_on,0,0,1,,,,,,,,,,,,,,,0,,,65,67
68800,note_on,0,0,1,,,,,,,,,,,,,,,0,,,70,0
68800,note_on,0,0,1,,,,,,,,,,,,,,,0,,,70,80
68800,note_on,0,0,1,,,,,,,,,,,,,,,0,,,58,67
68800,note_on,160,0,1,,,,,,,,,,,,,,,0,,,58,0
68800,note_on,0,0,1,,,,,,,,,,,,,,,0,,,65,0
68960,note_on,0,0,1,,,,,,,,,,,,,,,0,,,65,67
68960,note_on,160,0,1,,,,,,,,,,,,,,,0,,,70,0
68960,note_on,0,0,1,,,,,,,,,,,,,,,0,,,58,67
68960,note_on,0,0,1,,,,,,,,,,,,,,,0,,,70,80
68960,note_on,0,0,1,,,,,,,,,,,,,,,0,,,58,0
68960,note_on,0,0,1,,,,,,,,,,,,,,,0,,,65,0
68960,note_on,0,0,2,,,,,,,,,,,,,,,0,,,53,52
68960,note_on,0,0,2,,,,,,,,,,,,,,,0,,,41,0
68960,note_on,0,0,2,,,,,,,,,,,,,,,0,,,50,0
68960,note_on,160,0,2,,,,,,,,,,,,,,,0,,,53,0
68960,note_on,0,0,2,,,,,,,,,,,,,,,0,,,41,42
68960,note_on,0,0,2,,,,,,,,,,,,,,,0,,,50,48
69120,set_tempo,480,1,0,,,,,,,,,,,,729483,,,,,,,
69120,note_on,0,0,1,,,,,,,,,,,,,,,0,,,70,90
69120,note_on,0,0,1,,,,,,,,,,,,,,,0,,,65,77
69120,note_on,0,0,1,,,,,,,,,,,,,,,0,,,58,63
69120,note_on,0,0,1,,,,,,,,,,,,,,,0,,,65,0
69120,note_on,0,0,1,,,,,,,,,,,,,,,0,,,58,0
69120,note_on,160,0,1,,,,,,,,,,,,,,,0,,,70,0
69120,note_on,0,0,2,,,,,,,,,,,,,,,0,,,50,0
69120,note_on,160,0,2,,,,,,,,,,,,,,,0,,,41,0
69120,note_on,0,0,2,,,,,,,,,,,,,,,0,,,50,63
69120,note_on,0,0,2,,,,,,,,,,,,,,,0,,,41,63
69120,control_change,0,0,2,,,,,,,,,,,,,,,0,64,0,,
69120,control_change,0,0,2,,,,,,,,,,,,,,,0,64,0,,
69120,note_on,0,0,2,,,,,,,,,,,,,,,0,,,53,0
69205,control_change,85,0,2,,,,,,,,,,,,,,,0,64,127,,
69280,note_on,75,0,2,,,,,,,,,,,,,,,0,,,50,0
69280,note_on,0,0,2,,,,,,,,,,,,,,,0,,,53,58
69400,set_tempo,280,1,0,,,,,,,,,,,,750657,,,,,,,
69440,note_on,0,0,2,,,,,,,,,,,,,,,0,,,53,58
69440,note_on,160,0,2,,,,,,,,,,,,,,,0,,,53,0
69520,note_on,80,0,2,,,,,,,,,,,,,,,0,,,53,0
69600,note_on,0,0,1,,,,,,,,,,,,,,,0,,,69,85
69600,note_on,480,0,1,,,,,,,,,,,,,,,0,,,70,0
69600,note_on,0,0,1,,,,,,,,,,,,,,,0,,,65,0
69600,note_on,0,0,1,,,,,,,,,,,,,,,0,,,58,0
69600,note_on,0,0,1,,,,,,,,,,,,,,,0,,,57,60
69600,note_on,0,0,1,,,,,,,,,,,,,,,0,,,65,72
69600,set_tempo,200,1,0,,,,,,,,,,,,729483,,,,,,,
69600,note_on,80,0,2,,,,,,,,,,,,,,,0,,,41,0
69600,note_on,0,0,2,,,,,,,,,,,,,,,0,,,48,62
69600,note_on,0,0,2,,,,,,,,,,,,,,,0,,,41,62
69600,control_change,0,0,2,,,,,,,,,,,,,,,0,64,0,,
69685,control_change,85,0,2,,,,,,,,,,,,,,,0,64,127,,
69760,note_on,75,0,2,,,,,,,,,,,,,,,0,,,48,0
69760,note_on,0,0,2,,,,,,,,,,,,,,,0,,,53,58
69840,set_tempo,240,1,0,,,,,,,,,,,,756144,,,,,,,
69920,note_on,0,0,2,,,,,,,,,,,,,,,0,,,53,58
69920,note_on,160,0,2,,,,,,,,,,,,,,,0,,,53,0
70000,note_on,80,0,2,,,,,,,,,,,,,,,0,,,53,0
70000,set_tempo,160,1,0,,,,,,,,,,,,734574,,,,,,,
70080,set_tempo,80,1,0,,,,,,,,,,,,750657,,,,,,,
70080,note_on,0,0,1,,,,,,,,,,,,,,,0,,,70,85
70080,note_on,0,0,1,,,,,,,,,,,,,,,0,,,58,60
70080,note_on,0,0,1,,,,,,,,,,,,,,,0,,,65,72
70080,note_on,0,0,1,,,,,,,,,,,,,,,0,,,57,0
70080,note_on,0,0,1,,,,,,,,,,,,,,,0,,,69,0
70080,note_on,480,0,1,,,,,,,,,,,,,,,0,,,65,0
70080,note_on,80,0,2,,,,,,,,,,,,,,,0,,,41,0
70080,note_on,0,0,2,,,,,,,,,,,,,,,0,,,41,60
70080,note_on,0,0,2,,,,,,,,,,,,,,,0,,,50,60
70122,control_change,42,0,2,,,,,,,,,,,,,,,0,64,0,,
70235,control_change,113,0,2,,,,,,,,,,,,,,,0,64,127,,
70240,note_on,0,0,2,,,,,,,,,,,,,,,0,,,53,58
70240,note_on,5,0,2,,,,,,,,,,,,,,,0,,,50,0
70320,set_tempo,240,1,0,,,,,,,,,,,,761615,,,,,,,
70400,note_on,0,0,2,,,,,,,,,,,,,,,0,,,53,58
70400,note_on,160,0,2,,,,,,,,,,,,,,,0,,,53,0
70480,note_on,80,0,2,,,,,,,,,,,,,,,0,,,53,0
70560,note_on,0,0,1,,,,,,,,,,,,,,,0,,,65,72
70560,set_tempo,240,1,0,,,,,,,,,,,,734574,,,,,,,
70560,note_on,480,0,1,,,,,,,,,,,,,,,0,,,70,0
70560,note_on,0,0,1,,,,,,,,,,,,,,,0,,,72,85
70560,note_on,0,0,1,,,,,,,,,,,,,,,0,,,60,60
70560,note_on,0,0,1,,,,,,,,,,,,,,,0,,,65,0
70560,note_on,0,0,1,,,,,,,,,,,,,,,0,,,58,0
70560,note_on,80,0,2,,,,,,,,,,,,,,,0,,,41,0
70560,note_on,0,0,2,,,,,,,,,,,,,,,0,,,41,61
70560,note_on,0,0,2,,,,,,,,,,,,,,,0,,,51,61
70588,control_change,28,0,2,,,,,,,,,,,,,,,0,64,0,,
70701,control_change,113,0,2,,,,,,,,,,,,,,,0,64,127,,
70720,note_on,19,0,2,,,,,,,,,,,,,,,0,,,51,0
70720,note_on,0,0,2,,,,,,,,,,,,,,,0,,,53,58
70800,set_tempo,240,1,0,,,,,,,,,,,,789474,,,,,,,
70880,note_on,160,0,2,,,,,,,,,,,,,,,0,,,53,0
70880,note_on,0,0,2,,,,,,,,,,,,,,,0,,,53,58
70960,note_on,80,0,2,,,,,,,,,,,,,,,0,,,53,0
71040,note_on,0,0,1,,,,,,,,,,,,,,,0,,,65,0
71040,note_on,0,0,1,,,,,,,,,,,,,,,0,,,60,0
71040,note_on,480,0,1,,,,,,,,,,,,,,,0,,,72,0
71040,note_on,0,0,2,,,,,,,,,,,,,,,0,,,52,60
71040,note_on,0,0,2,,,,,,,,,,,,,,,0,,,41,60
71040,note_on,0,0,1,,,,,,,,,,,,,,,0,,,65,78
71040,note_on,80,0,2,,,,,,,,,,,,,,,0,,,41,0
71040,note_on,0,0,1,,,,,,,,,,,,,,,0,,,74,92
71040,set_tempo,240,1,0,,,,,,,,,,,,729483,,,,,,,
71040,control_change,0,0,2,,,,,,,,,,,,,,,0,64,0,,
71040,note_on,0,0,1,,,,,,,,,,,,,,,0,,,62,64
71143,control_change,103,0,2,,,,,,,,,,,,,,,0,64,127,,
71200,note_on,0,0,2,,,,,,,,,,,,,,,0,,,53,58
71200,note_on,57,0,2,,,,,,,,,,,,,,,0,,,52,0
71259,control_change,59,0,2,,,,,,,,,,,,,,,0,64,0,,
71280,set_tempo,240,1,0,,,,,,,,,,,,714371,,,,,,,
71344,control_change,85,0,2,,,,,,,,,,,,,,,0,64,127,,
71360,note_on,16,0,2,,,,,,,,,,,,,,,0,,,53,0
71360,note_on,0,0,2,,,,,,,,,,,,,,,0,,,53,58
71440,note_on,80,0,2,,,,,,,,,,,,,,,0,,,53,0
71520,note_on,80,0,2,,,,,,,,,,,,,,,0,,,53,60
71520,set_tempo,240,1,0,,,,,,,,,,,,714371,,,,,,,
71680,note_on,0,0,2,,,,,,,,,,,,,,,0,,,53,58
71680,note_on,160,0,2,,,,,,,,,,,,,,,0,,,53,0
71840,note_on,0,0,2,,,,,,,,,,,,,,,0,,,53,58
71840,note_on,160,0,2,,,,,,,,,,,,,,,0,,,53,0
71920,note_on,80,0,2,,,,,,,,,,,,,,,0,,,53,0
72000,note_on,80,0,2,,,,,,,,,,,,,,,0,,,53,62
72160,note_on,160,0,2,,,,,,,,,,,,,,,0,,,53,0
72160,note_on,0,0,2,,,,,,,,,,,,,,,0,,,53,58
72320,note_on,160,0,2,,,,,,,,,,,,,,,0,,,53,0
72320,note_on,0,0,2,,,,,,,,,,,,,,,0,,,53,58
72480,set_tempo,960,1,0,,,,,,,,,,,,745342,,,,,,,
72480,note_on,0,0,1,,,,,,,,,,,,,,,0,,,65,74
72480,note_on,0,0,1,,,,,,,,,,,,,,,0,,,65,0
72480,note_on,0,0,1,,,,,,,,,,,,,,,0,,,62,0
72480,note_on,1440,0,1,,,,,,,,,,,,,,,0,,,74,0
72480,note_on,0,0,1,,,,,,,,,,,,,,,0,,,72,89
72480,note_on,160,0,2,,,,,,,,,,,,,,,0,,,53,0
72480,note_on,0,0,2,,,,,,,,,,,,,,,0,,,41,0
72480,note_on,0,0,2,,,,,,,,,,,,,,,0,,,51,61
72480,note_on,0,0,2,,,,,,,,,,,,,,,0,,,41,55
72480,note_on,0,0,1,,,,,,,,,,,,,,,0,,,60,62
72487,control_change,7,0,2,,,,,,,,,,,,,,,0,64,0,,
72560,control_change,73,0,2,,,,,,,,,,,,,,,0,64,127,,
72640,note_on,80,0,2,,,,,,,,,,,,,,,0,,,51,0
72640,note_on,0,0,2,,,,,,,,,,,,,,,0,,,53,53
72720,note_on,0,0,1,,,,,,,,,,,,,,,0,,,65,0
72720,note_on,0,0,1,,,,,,,,,,,,,,,0,,,58,58
72720,note_on,0,0,1,,,,,,,,,,,,,,,0,,,70,82
72720,note_on,0,0,1,,,,,,,,,,,,,,,0,,,65,69
72720,note_on,0,0,1,,,,,,,,,,,,,,,0,,,60,0
72720,set_tempo,240,1,0,,,,,,,,,,,,789474,,,,,,,
72720,note_on,240,0,1,,,,,,,,,,,,,,,0,,,72,0
72800,note_on,160,0,2,,,,,,,,,,,,,,,0,,,53,0
72800,note_on,0,0,2,,,,,,,,,,,,,,,0,,,50,53
72960,note_on,0,0,1,,,,,,,,,,,,,,,0,,,60,61
72960,note_on,0,0,2,,,,,,,,,,,,,,,0,,,51,60
72960,note_on,0,0,1,,,,,,,,,,,,,,,0,,,65,0
72960,note_on,0,0,1,,,,,,,,,,,,,,,0,,,72,88
72960,note_on,0,0,2,,,,,,,,,,,,,,,0,,,41,60
72960,note_on,0,0,1,,,,,,,,,,,,,,,0,,,70,0
72960,note_on,240,0,1,,,,,,,,,,,,,,,0,,,58,0
72960,note_on,0,0,1,,,,,,,,,,,,,,,0,,,65,73
72960,control_change,0,0,2,,,,,,,,,,,,,,,0,64,0,,
72960,note_on,0,0,2,,,,,,,,,,,,,,,0,,,41,0
72960,note_on,160,0,2,,,,,,,,,,,,,,,0,,,50,0
72960,set_tempo,240,1,0,,,,,,,,,,,,729483,,,,,,,
73016,control_change,56,0,2,,,,,,,,,,,,,,,0,64,127,,
73120,note_on,104,0,2,,,,,,,,,,,,,,,0,,,51,0
73120,note_on,0,0,2,,,,,,,,,,,,,,,0,,,53,55
73200,set_tempo,240,1,0,,,,,,,,,,,,740010,,,,,,,
73280,note_on,160,0,2,,,,,,,,,,,,,,,0,,,53,0
73280,note_on,0,0,2,,,,,,,,,,,,,,,0,,,53,55
73426,control_change,146,0,2,,,,,,,,,,,,,,,0,64,0,,
73440,note_on,0,0,1,,,,,,,,,,,,,,,0,,,65,71
73440,note_on,0,0,1,,,,,,,,,,,,,,,0,,,60,59
73440,note_on,0,0,1,,,,,,,,,,,,,,,0,,,72,84
73440,note_on,0,0,2,,,,,,,,,,,,,,,0,,,41,60
73440,note_on,0,0,2,,,,,,,,,,,,,,,0,,,41,0
73440,note_on,0,0,2,,,,,,,,,,,,,,,0,,,51,60
73440,note_on,0,0,1,,,,,,,,,,,,,,,0,,,72,0
73440,note_on,0,0,1,,,,,,,,,,,,,,,0,,,60,0
73440,note_on,480,0,1,,,,,,,,,,,,,,,0,,,65,0
73440,set_tempo,240,1,0,,,,,,,,,,,,729483,,,,,,,
73440,note_on,14,0,2,,,,,,,,,,,,,,,0,,,53,0
73482,control_change,42,0,2,,,,,,,,,,,,,,,0,64,127,,
73600,note_on,118,0,2,,,,,,,,,,,,,,,0,,,51,0
73600,note_on,0,0,2,,,,,,,,,,,,,,,0,,,53,56
73680,set_tempo,240,1,0,,,,,,,,,,,,740010,,,,,,,
73760,note_on,160,0,2,,,,,,,,,,,,,,,0,,,53,0
73760,note_on,0,0,2,,,,,,,,,,,,,,,0,,,53,56
73920,note_on,0,0,1,,,,,,,,,,,,,,,0,,,72,0
73920,note_on,0,0,1,,,,,,,,,,,,,,,0,,,65,70
73920,note_on,480,0,1,,,,,,,,,,,,,,,0,,,65,0
73920,note_on,0,0,1,,,,,,,,,,,,,,,0,,,60,0
73920,note_on,0,0,1,,,,,,,,,,,,,,,0,,,72,83
73920,note_on,0,0,2,,,,,,,,,,,,,,,0,,,51,62
73920,note_on,160,0,2,,,,,,,,,,,,,,,0,,,53,0
73920,note_on,0,0,2,,,,,,,,,,,,,,,0,,,41,0
73920,note_on,0,0,2,,,,,,,,,,,,,,,0,,,41,62
73920,note_on,0,0,1,,,,,,,,,,,,,,,0,,,60,59
73955,control_change,35,0,2,,,,,,,,,,,,,,,0,64,0,,
73960,set_tempo,280,1,0,,,,,,,,,,,,729483,,,,,,,
73976,control_change,21,0,2,,,,,,,,,,,,,,,0,64,127,,
74080,note_on,0,0,2,,,,,,,,,,,,,,,0,,,53,58
74080,note_on,104,0,2,,,,,,,,,,,,,,,0,,,51,0
74160,set_tempo,200,1,0,,,,,,,,,,,,756144,,,,,,,
74240,note_on,160,0,2,,,,,,,,,,,,,,,0,,,53,0
74240,note_on,0,0,2,,,,,,,,,,,,,,,0,,,53,58
74400,note_on,0,0,1,,,,,,,,,,,,,,,0,,,70,88
74400,note_on,0,0,1,,,,,,,,,,,,,,,0,,,72,0
74400,note_on,0,0,1,,,,,,,,,,,,,,,0,,,60,0
74400,note_on,0,0,2,,,,,,,,,,,,,,,0,,,50,62
74400,note_on,0,0,2,,,,,,,,,,,,,,,0,,,41,62
74400,note_on,0,0,1,,,,,,,,,,,,,,,0,,,58,61
74400,note_on,0,0,2,,,,,,,,,,,,,,,0,,,41,0
74400,set_tempo,240,1,0,,,,,,,,,,,,729483,,,,,,,
74400,note_on,160,0,2,,,,,,,,,,,,,,,0,,,53,0
74400,note_on,480,0,1,,,,,,,,,,,,,,,0,,,65,0
74400,note_on,0,0,1,,,,,,,,,,,,,,,0,,,65,73
74442,control_change,42,0,2,,,,,,,,,,,,,,,0,64,0,,
74513,control_change,71,0,2,,,,,,,,,,,,,,,0,64,127,,
74560,note_on,47,0,2,,,,,,,,,,,,,,,0,,,50,0
74560,note_on,0,0,2,,,,,,,,,,,,,,,0,,,53,59
74640,note_on,0,0,1,,,,,,,,,,,,,,,0,,,58,0
74640,note_on,0,0,1,,,,,,,,,,,,,,,0,,,70,0
74640,note_on,0,0,1,,,,,,,,,,,,,,,0,,,57,58
74640,note_on,0,0,1,,,,,,,,,,,,,,,0,,,69,82
74640,set_tempo,240,1,0,,,,,,,,,,,,810811,,,,,,,
74640,note_on,240,0,1,,,,,,,,,,,,,,,0,,,65,0
74640,note_on,0,0,1,,,,,,,,,,,,,,,0,,,65,69
74720,note_on,0,0,2,,,,,,,,,,,,,,,0,,,48,59
74720,note_on,160,0,2,,,,,,,,,,,,,,,0,,,53,0
74840,set_tempo,200,1,0,,,,,,,,,,,,740010,,,,,,,
74880,note_on,0,0,1,,,,,,,,,,,,,,,0,,,65,0
74880,note_on,160,0,2,,,,,,,,,,,,,,,0,,,48,0
74880,note_on,0,0,2,,,,,,,,,,,,,,,0,,,41,0
74880,note_on,0,0,2,,,,,,,,,,,,,,,0,,,50,62
74880,note_on,0,0,2,,,,,,,,,,,,,,,0,,,46,62
74880,note_on,240,0,1,,,,,,,,,,,,,,,0,,,69,0
74880,note_on,0,0,1,,,,,,,,,,,,,,,0,,,57,0
74880,note_on,0,0,1,,,,,,,,,,,,,,,0,,,65,82
74880,note_on,0,0,1,,,,,,,,,,,,,,,0,,,58,75
74880,note_on,0,0,1,,,,,,,,,,,,,,,0,,,70,90
74915,control_change,35,0,2,,,,,,,,,,,,,,,0,64,0,,
75007,control_change,92,0,2,,,,,,,,,,,,,,,0,64,127,,
75040,note_on,33,0,2,,,,,,,,,,,,,,,0,,,50,0
75040,note_on,0,0,2,,,,,,,,,,,,,,,0,,,53,56
75200,note_on,160,0,2,,,,,,,,,,,,,,,0,,,53,0
75200,note_on,0,0,2,,,,,,,,,,,,,,,0,,,53,56
75360,note_on,0,0,1,,,,,,,,,,,,,,,0,,,67,88
75360,note_on,0,0,2,,,,,,,,,,,,,,,0,,,51,60
75360,note_on,160,0,2,,,,,,,,,,,,,,,0,,,53,0
75360,note_on,0,0,1,,,,,,,,,,,,,,,0,,,63,73
75360,set_tempo,520,1,0,,,,,,,,,,,,759878,,,,,,,
75360,note_on,480,0,1,,,,,,,,,,,,,,,0,,,65,0
75431,control_change,71,0,2,,,,,,,,,,,,,,,0,64,0,,
75515,control_change,84,0,2,,,,,,,,,,,,,,,0,64,127,,
75520,note_on,5,0,2,,,,,,,,,,,,,,,0,,,51,0
75520,note_on,0,0,2,,,,,,,,,,,,,,,0,,,55,56
75640,set_tempo,280,1,0,,,,,,,,,,,,767362,,,,,,,
75680,note_on,160,0,2,,,,,,,,,,,,,,,0,,,55,0
75680,note_on,0,0,2,,,,,,,,,,,,,,,0,,,55,56
75840,note_on,160,0,2,,,,,,,,,,,,,,,0,,,55,0
75840,note_on,0,0,2,,,,,,,,,,,,,,,0,,,50,60
75840,note_on,0,0,1,,,,,,,,,,,,,,,0,,,62,70
75840,note_on,0,0,1,,,,,,,,,,,,,,,0,,,65,83
75840,note_on,0,0,1,,,,,,,,,,,,,,,0,,,63,0
75840,set_tempo,200,1,0,,,,,,,,,,,,745156,,,,,,,
75840,note_on,480,0,1,,,,,,,,,,,,,,,0,,,67,0
75896,control_change,56,0,2,,,,,,,,,,,,,,,0,64,0,,
76000,note_on,104,0,2,,,,,,,,,,,,,,,0,,,50,0
76000,note_on,0,0,2,,,,,,,,,,,,,,,0,,,53,56
76052,control_change,52,0,2,,,,,,,,,,,,,,,0,64,127,,
76080,set_tempo,240,1,0,,,,,,,,,,,,767362,,,,,,,
76160,note_on,108,0,2,,,,,,,,,,,,,,,0,,,53,0
76160,note_on,0,0,2,,,,,,,,,,,,,,,0,,,53,57
76320,note_on,480,0,1,,,,,,,,,,,,,,,0,,,62,0
76320,note_on,0,0,1,,,,,,,,,,,,,,,0,,,58,0
76320,note_on,0,0,1,,,,,,,,,,,,,,,0,,,70,0
76320,note_on,0,0,1,,,,,,,,,,,,,,,0,,,65,0
76320,note_on,0,0,1,,,,,,,,,,,,,,,0,,,74,89
76320,note_on,0,0,1,,,,,,,,,,,,,,,0,,,65,75
76320,note_on,0,0,1,,,,,,,,,,,,,,,0,,,62,64
76320,set_tempo,240,1,0,,,,,,,,,,,,789474,,,,,,,
76320,note_on,0,0,2,,,,,,,,,,,,,,,0,,,50,59
76320,note_on,0,0,2,,,,,,,,,,,,,,,0,,,44,59
76320,note_on,0,0,2,,,,,,,,,,,,,,,0,,,46,0
76320,note_on,160,0,2,,,,,,,,,,,,,,,0,,,53,0
76362,control_change,42,0,2,,,,,,,,,,,,,,,0,64,0,,
76419,control_change,57,0,2,,,,,,,,,,,,,,,0,64,127,,
76480,note_on,0,0,2,,,,,,,,,,,,,,,0,,,53,54
76480,note_on,61,0,2,,,,,,,,,,,,,,,0,,,50,0
76560,set_tempo,240,1,0,,,,,,,,,,,,902256,,,,,,,
76640,note_on,0,0,2,,,,,,,,,,,,,,,0,,,53,54
76640,note_on,160,0,2,,,,,,,,,,,,,,,0,,,53,0
76800,note_on,480,0,1,,,,,,,,,,,,,,,0,,,62,0
76800,control_change,0,0,2,,,,,,,,,,,,,,,0,64,0,,
76800,note_on,0,0,2,,,,,,,,,,,,,,,0,,,53,59
76800,note_on,0,0,2,,,,,,,,,,,,,,,0,,,43,59
76800,note_on,0,0,2,,,,,,,,,,,,,,,0,,,44,0
76800,note_on,160,0,2,,,,,,,,,,,,,,,0,,,53,0
76800,set_tempo,240,1,0,,,,,,,,,,,,729483,,,,,,,
76800,note_on,0,0,1,,,,,,,,,,,,,,,0,,,62,64
76800,note_on,0,0,1,,,,,,,,,,,,,,,0,,,65,0
76800,note_on,0,0,1,,,,,,,,,,,,,,,0,,,74,0
76800,note_on,0,0,1,,,,,,,,,,,,,,,0,,,67,75
76800,note_on,0,0,1,,,,,,,,,,,,,,,0,,,74,89
76914,control_change,114,0,2,,,,,,,,,,,,,,,0,64,127,,
76960,note_on,46,0,2,,,,,,,,,,,,,,,0,,,53,0
76960,note_on,0,0,2,,,,,,,,,,,,,,,0,,,55,53
77040,set_tempo,240,1,0,,,,,,,,,,,,724288,,,,,,,
77120,note_on,160,0,2,,,,,,,,,,,,,,,0,,,55,0
77120,note_on,0,0,2,,,,,,,,,,,,,,,0,,,55,53
77280,set_tempo,240,1,0,,,,,,,,,,,,714371,,,,,,,
77280,note_on,0,0,2,,,,,,,,,,,,,,,0,,,53,56
77280,note_on,160,0,2,,,,,,,,,,,,,,,0,,,55,0
77287,control_change,7,0,2,,,,,,,,,,,,,,,0,64,0,,
77329,control_change,42,0,2,,,,,,,,,,,,,,,0,64,127,,
77440,note_on,111,0,2,,,,,,,,,,,,,,,0,,,53,0
77440,note_on,0,0,2,,,,,,,,,,,,,,,0,,,55,53
77520,set_tempo,240,1,0,,,,,,,,,,,,728332,,,,,,,
77600,note_on,160,0,2,,,,,,,,,,,,,,,0,,,55,0
77600,note_on,0,0,2,,,,,,,,,,,,,,,0,,,55,53
77760,note_on,160,0,2,,,,,,,,,,,,,,,0,,,55,0
77760,note_on,0,0,2,,,,,,,,,,,,,,,0,,,53,57
77760,set_tempo,240,1,0,,,,,,,,,,,,713606,,,,,,,
77795,control_change,35,0,2,,,,,,,,,,,,,,,0,64,0,,
77838,control_change,43,0,2,,,,,,,,,,,,,,,0,64,127,,
77920,note_on,82,0,2,,,,,,,,,,,,,,,0,,,53,0
77920,note_on,0,0,2,,,,,,,,,,,,,,,0,,,55,51
78080,note_on,160,0,2,,,,,,,,,,,,,,,0,,,55,0
78080,note_on,0,0,2,,,,,,,,,,,,,,,0,,,55,51
78240,note_on,0,0,2,,,,,,,,,,,,,,,0,,,51,56
78240,note_on,0,0,2,,,,,,,,,,,,,,,0,,,43,56
78240,control_change,0,0,2,,,,,,,,,,,,,,,0,64,0,,
78240,note_on,0,0,2,,,,,,,,,,,,,,,0,,,43,0
78240,note_on,160,0,2,,,,,,,,,,,,,,,0,,,55,0
78240,note_on,0,0,1,,,,,,,,,,,,,,,0,,,74,0
78240,note_on,0,0,1,,,,,,,,,,,,,,,0,,,60,59
78240,note_on,0,0,1,,,,,,,,,,,,,,,0,,,72,84
78240,note_on,0,0,1,,,,,,,,,,,,,,,0,,,67,71
78240,note_on,0,0,1,,,,,,,,,,,,,,,0,,,67,0
78240,note_on,1440,0,1,,,,,,,,,,,,,,,0,,,62,0
78354,control_change,114,0,2,,,,,,,,,,,,,,,0,64,127,,
78400,note_on,46,0,2,,,,,,,,,,,,,,,0,,,51,0
78400,note_on,0,0,2,,,,,,,,,,,,,,,0,,,55,51
78480,set_tempo,720,1,0,,,,,,,,,,,,733407,,,,,,,
78480,note_on,240,0,1,,,,,,,,,,,,,,,0,,,67,0
78480,note_on,0,0,1,,,,,,,,,,,,,,,0,,,67,67
78480,note_on,0,0,1,,,,,,,,,,,,,,,0,,,59,56
78480,note_on,0,0,1,,,,,,,,,,,,,,,0,,,71,79
78480,note_on,0,0,1,,,,,,,,,,,,,,,0,,,72,0
78480,note_on,0,0,1,,,,,,,,,,,,,,,0,,,60,0
78560,note_on,160,0,2,,,,,,,,,,,,,,,0,,,55,0
78560,note_on,0,0,2,,,,,,,,,,,,,,,0,,,50,51
78720,note_on,0,0,2,,,,,,,,,,,,,,,0,,,43,0
78720,set_tempo,240,1,0,,,,,,,,,,,,699872,,,,,,,
78720,note_on,0,0,2,,,,,,,,,,,,,,,0,,,48,54
78720,note_on,160,0,2,,,,,,,,,,,,,,,0,,,50,0
78720,note_on,0,0,2,,,,,,,,,,,,,,,0,,,43,54
78720,note_on,240,0,1,,,,,,,,,,,,,,,0,,,67,0
78720,note_on,0,0,1,,,,,,,,,,,,,,,0,,,67,79
78720,note_on,0,0,1,,,,,,,,,,,,,,,0,,,63,67
78720,note_on,0,0,1,,,,,,,,,,,,,,,0,,,75,94
78720,note_on,0,0,1,,,,,,,,,,,,,,,0,,,71,0
78720,note_on,0,0,1,,,,,,,,,,,,,,,0,,,59,0
78754,control_change,34,0,2,,,,,,,,,,,,,,,0,64,0,,
78847,control_change,93,0,2,,,,,,,,,,,,,,,0,64,127,,
78880,note_on,0,0,2,,,,,,,,,,,,,,,0,,,55,50
78880,note_on,33,0,2,,,,,,,,,,,,,,,0,,,48,0
78960,set_tempo,240,1,0,,,,,,,,,,,,719338,,,,,,,
79040,note_on,160,0,2,,,,,,,,,,,,,,,0,,,55,0
79040,note_on,0,0,2,,,,,,,,,,,,,,,0,,,55,50
79200,note_on,0,0,1,,,,,,,,,,,,,,,0,,,75,0
79200,note_on,0,0,1,,,,,,,,,,,,,,,0,,,74,91
79200,note_on,0,0,1,,,,,,,,,,,,,,,0,,,62,65
79200,note_on,0,0,1,,,,,,,,,,,,,,,0,,,67,76
79200,note_on,0,0,2,,,,,,,,,,,,,,,0,,,43,54
79200,note_on,480,0,1,,,,,,,,,,,,,,,0,,,67,0
79200,note_on,0,0,2,,,,,,,,,,,,,,,0,,,53,54
79200,note_on,0,0,2,,,,,,,,,,,,,,,0,,,43,0
79200,note_on,160,0,2,,,,,,,,,,,,,,,0,,,55,0
79200,note_on,0,0,1,,,,,,,,,,,,,,,0,,,63,0
79200,set_tempo,240,1,0,,,,,,,,,,,,714371,,,,,,,
79271,control_change,71,0,2,,,,,,,,,,,,,,,0,64,0,,
79309,control_change,38,0,2,,,,,,,,,,,,,,,0,64,127,,
79360,note_on,0,0,2,,,,,,,,,,,,,,,0,,,55,50
79360,note_on,51,0,2,,,,,,,,,,,,,,,0,,,53,0
79440,set_tempo,240,1,0,,,,,,,,,,,,750657,,,,,,,
79480,set_tempo,40,1,0,,,,,,,,,,,,767362,,,,,,,
79520,note_on,160,0,2,,,,,,,,,,,,,,,0,,,55,0
79520,note_on,0,0,2,,,,,,,,,,,,,,,0,,,55,50
79680,note_on,0,0,1,,,,,,,,,,,,,,,0,,,72,88
79680,note_on,0,0,2,,,,,,,,,,,,,,,0,,,43,55
79680,set_tempo,200,1,0,,,,,,,,,,,,729483,,,,,,,
79680,note_on,0,0,1,,,,,,,,,,,,,,,0,,,67,74
79680,note_on,0,0,2,,,,,,,,,,,,,,,0,,,51,55
79680,note_on,0,0,1,,,,,,,,,,,,,,,0,,,74,0
79680,note_on,160,0,2,,,,,,,,,,,,,,,0,,,55,0
79680,note_on,0,0,1,,,,,,,,,,,,,,,0,,,60,63
79680,note_on,0,0,2,,,,,,,,,,,,,,,0,,,43,0
79680,note_on,0,0,1,,,,,,,,,,,,,,,0,,,62,0
79680,note_on,480,0,1,,,,,,,,,,,,,,,0,,,67,0
79736,control_change,56,0,2,,,,,,,,,,,,,,,0,64,0,,
79777,control_change,41,0,2,,,,,,,,,,,,,,,0,64,127,,
79840,note_on,63,0,2,,,,,,,,,,,,,,,0,,,51,0
79840,note_on,0,0,2,,,,,,,,,,,,,,,0,,,55,50
79920,set_tempo,240,1,0,,,,,,,,,,,,767362,,,,,,,
80000,note_on,160,0,2,,,,,,,,,,,,,,,0,,,55,0
80000,note_on,0,0,2,,,,,,,,,,,,,,,0,,,55,50
80160,note_on,0,0,2,,,,,,,,,,,,,,,0,,,51,57
80160,note_on,160,0,2,,,,,,,,,,,,,,,0,,,55,0
80160,note_on,0,0,2,,,,,,,,,,,,,,,0,,,43,0
80160,note_on,0,0,2,,,,,,,,,,,,,,,0,,,42,57
80160,note_on,480,0,1,,,,,,,,,,,,,,,0,,,72,0
80160,set_tempo,240,1,0,,,,,,,,,,,,779221,,,,,,,
80160,note_on,0,0,1,,,,,,,,,,,,,,,0,,,72,86
80160,note_on,0,0,1,,,,,,,,,,,,,,,0,,,69,72
80160,note_on,0,0,1,,,,,,,,,,,,,,,0,,,60,60
80160,note_on,0,0,1,,,,,,,,,,,,,,,0,,,60,0
80160,note_on,0,0,1,,,,,,,,,,,,,,,0,,,67,0
80202,control_change,42,0,2,,,,,,,,,,,,,,,0,64,0,,
80259,control_change,57,0,2,,,,,,,,,,,,,,,0,64,127,,
80320,note_on,0,0,2,,,,,,,,,,,,,,,0,,,54,52
80320,note_on,61,0,2,,,,,,,,,,,,,,,0,,,51,0
80400,set_tempo,240,1,0,,,,,,,,,,,,827586,,,,,,,
80480,note_on,0,0,2,,,,,,,,,,,,,,,0,,,54,52
80480,note_on,160,0,2,,,,,,,,,,,,,,,0,,,54,0
80640,note_on,160,0,2,,,,,,,,,,,,,,,0,,,54,0
80640,note_on,0,0,1,,,,,,,,,,,,,,,0,,,60,0
80640,note_on,0,0,2,,,,,,,,,,,,,,,0,,,42,0
80640,note_on,0,0,1,,,,,,,,,,,,,,,0,,,65,76
80640,note_on,0,0,2,,,,,,,,,,,,,,,0,,,51,58
80640,note_on,0,0,2,,,,,,,,,,,,,,,0,,,41,58
80640,control_change,0,0,2,,,,,,,,,,,,,,,0,64,0,,
80640,note_on,0,0,1,,,,,,,,,,,,,,,0,,,72,89
80640,note_on,0,0,1,,,,,,,,,,,,,,,0,,,60,65
80640,note_on,0,0,1,,,,,,,,,,,,,,,0,,,69,78
80640,set_tempo,240,1,0,,,,,,,,,,,,729483,,,,,,,
80640,note_on,480,0,1,,,,,,,,,,,,,,,0,,,72,0
80640,note_on,0,0,1,,,,,,,,,,,,,,,0,,,69,0
80754,control_change,114,0,2,,,,,,,,,,,,,,,0,64,127,,
80800,note_on,46,0,2,,,,,,,,,,,,,,,0,,,51,0
80800,note_on,0,0,2,,,,,,,,,,,,,,,0,,,53,52
80880,set_tempo,240,1,0,,,,,,,,,,,,724288,,,,,,,
80960,note_on,160,0,2,,,,,,,,,,,,,,,0,,,53,0
80960,note_on,0,0,2,,,,,,,,,,,,,,,0,,,53,52
81120,note_on,160,0,2,,,,,,,,,,,,,,,0,,,53,0
81120,note_on,0,0,2,,,,,,,,,,,,,,,0,,,51,56
81120,set_tempo,240,1,0,,,,,,,,,,,,714371,,,,,,,
81162,control_change,42,0,2,,,,,,,,,,,,,,,0,64,0,,
81198,control_change,36,0,2,,,,,,,,,,,,,,,0,64,127,,
81280,note_on,82,0,2,,,,,,,,,,,,,,,0,,,51,0
81280,note_on,0,0,2,,,,,,,,,,,,,,,0,,,53,52
81440,note_on,160,0,2,,,,,,,,,,,,,,,0,,,53,0
81440,note_on,0,0,2,,,,,,,,,,,,,,,0,,,53,53
81600,note_on,160,0,2,,,,,,,,,,,,,,,0,,,53,0
81600,note_on,0,0,2,,,,,,,,,,,,,,,0,,,51,57
81621,control_change,21,0,2,,,,,,,,,,,,,,,0,64,0,,
81656,control_change,35,0,2,,,,,,,,,,,,,,,0,64,127,,
81760,note_on,104,0,2,,,,,,,,,,,,,,,0,,,51,0
81760,note_on,0,0,2,,,,,,,,,,,,,,,0,,,53,52
81920,note_on,0,0,2,,,,,,,,,,,,,,,0,,,53,52
81920,note_on,160,0,2,,,,,,,,,,,,,,,0,,,53,0
82080,note_on,160,0,2,,,,,,,,,,,,,,,0,,,53,0
82080,note_on,0,0,2,,,,,,,,,,,,,,,0,,,41,0
82080,note_on,0,0,2,,,,,,,,,,,,,,,0,,,50,57
82080,note_on,0,0,2,,,,,,,,,,,,,,,0,,,41,57
82080,control_change,0,0,2,,,,,,,,,,,,,,,0,64,0,,
82080,note_on,1440,0,1,,,,,,,,,,,,,,,0,,,69,0
82080,note_on,0,0,1,,,,,,,,,,,,,,,0,,,65,0
82080,note_on,0,0,1,,,,,,,,,,,,,,,0,,,72,0
82080,note_on,0,0,1,,,,,,,,,,,,,,,0,,,60,0
82080,note_on,0,0,1,,,,,,,,,,,,,,,0,,,65,74
82080,note_on,0,0,1,,,,,,,,,,,,,,,0,,,58,63
82080,note_on,0,0,1,,,,,,,,,,,,,,,0,,,70,88
82194,control_change,114,0,2,,,,,,,,,,,,,,,0,64,127,,
82240,note_on,46,0,2,,,,,,,,,,,,,,,0,,,50,0
82240,note_on,0,0,2,,,,,,,,,,,,,,,0,,,53,54
82320,note_on,0,0,1,,,,,,,,,,,,,,,0,,,58,0
82320,note_on,240,0,1,,,,,,,,,,,,,,,0,,,65,0
82320,note_on,0,0,1,,,,,,,,,,,,,,,0,,,70,0
82320,note_on,0,0,1,,,,,,,,,,,,,,,0,,,57,57
82320,note_on,0,0,1,,,,,,,,,,,,,,,0,,,69,80
82320,set_tempo,1200,1,0,,,,,,,,,,,,740010,,,,,,,
82320,note_on,0,0,1,,,,,,,,,,,,,,,0,,,65,68
82400,note_on,160,0,2,,,,,,,,,,,,,,,0,,,53,0
82400,note_on,0,0,2,,,,,,,,,,,,,,,0,,,48,51
82560,note_on,0,0,1,,,,,,,,,,,,,,,0,,,65,0
82560,note_on,0,0,2,,,,,,,,,,,,,,,0,,,46,58
82560,note_on,0,0,2,,,,,,,,,,,,,,,0,,,41,58
82560,control_change,0,0,2,,,,,,,,,,,,,,,0,64,0,,
82560,note_on,240,0,1,,,,,,,,,,,,,,,0,,,69,0
82560,set_tempo,240,1,0,,,,,,,,,,,,709471,,,,,,,
82560,note_on,0,0,2,,,,,,,,,,,,,,,0,,,41,0
82560,note_on,160,0,2,,,,,,,,,,,,,,,0,,,48,0
82560,note_on,0,0,1,,,,,,,,,,,,,,,0,,,57,0
82560,note_on,0,0,1,,,,,,,,,,,,,,,0,,,62,65
82560,note_on,0,0,1,,,,,,,,,,,,,,,0,,,65,77
82560,note_on,0,0,1,,,,,,,,,,,,,,,0,,,74,92
82687,control_change,127,0,2,,,,,,,,,,,,,,,0,64,127,,
82720,note_on,33,0,2,,,,,,,,,,,,,,,0,,,46,0
82720,note_on,0,0,2,,,,,,,,,,,,,,,0,,,53,53
82800,set_tempo,240,1,0,,,,,,,,,,,,740010,,,,,,,
82880,note_on,0,0,2,,,,,,,,,,,,,,,0,,,53,53
82880,note_on,160,0,2,,,,,,,,,,,,,,,0,,,53,0
83040,note_on,0,0,2,,,,,,,,,,,,,,,0,,,41,0
83040,note_on,160,0,2,,,,,,,,,,,,,,,0,,,53,0
83040,set_tempo,240,1,0,,,,,,,,,,,,714371,,,,,,,
83040,note_on,0,0,1,,,,,,,,,,,,,,,0,,,65,73
83040,note_on,480,0,1,,,,,,,,,,,,,,,0,,,74,0
83040,note_on,0,0,2,,,,,,,,,,,,,,,0,,,48,58
83040,note_on,0,0,1,,,,,,,,,,,,,,,0,,,65,0
83040,note_on,0,0,1,,,,,,,,,,,,,,,0,,,57,61
83040,note_on,0,0,2,,,,,,,,,,,,,,,0,,,41,58
83040,note_on,0,0,1,,,,,,,,,,,,,,,0,,,62,0
83040,note_on,0,0,1,,,,,,,,,,,,,,,0,,,69,87
83111,control_change,71,0,2,,,,,,,,,,,,,,,0,64,0,,
83195,control_change,84,0,2,,,,,,,,,,,,,,,0,64,127,,
83200,note_on,5,0,2,,,,,,,,,,,,,,,0,,,48,0
83200,note_on,0,0,2,,,,,,,,,,,,,,,0,,,53,52
83280,set_tempo,240,1,0,,,,,,,,,,,,750657,,,,,,,
83320,set_tempo,40,1,0,,,,,,,,,,,,767362,,,,,,,
83360,note_on,160,0,2,,,,,,,,,,,,,,,0,,,53,0
83360,note_on,0,0,2,,,,,,,,,,,,,,,0,,,53,52
83520,note_on,0,0,1,,,,,,,,,,,,,,,0,,,65,77
83520,note_on,480,0,1,,,,,,,,,,,,,,,0,,,69,0
83520,note_on,0,0,1,,,,,,,,,,,,,,,0,,,65,0
83520,note_on,0,0,1,,,,,,,,,,,,,,,0,,,57,0
83520,note_on,0,0,1,,,,,,,,,,,,,,,0,,,58,65
83520,note_on,0,0,1,,,,,,,,,,,,,,,0,,,70,92
83520,set_tempo,200,1,0,,,,,,,,,,,,729483,,,,,,,
83520,note_on,0,0,2,,,,,,,,,,,,,,,0,,,50,56
83520,note_on,160,0,2,,,,,,,,,,,,,,,0,,,53,0
83520,note_on,0,0,2,,,,,,,,,,,,,,,0,,,41,56
83520,note_on,0,0,2,,,,,,,,,,,,,,,0,,,41,0
83576,control_change,56,0,2,,,,,,,,,,,,,,,0,64,0,,
83640,control_change,64,0,2,,,,,,,,,,,,,,,0,64,127,,
83680,note_on,40,0,2,,,,,,,,,,,,,,,0,,,50,0
83680,note_on,0,0,2,,,,,,,,,,,,,,,0,,,53,52
83760,set_tempo,240,1,0,,,,,,,,,,,,767362,,,,,,,
83840,note_on,0,0,2,,,,,,,,,,,,,,,0,,,53,52
83840,note_on,160,0,2,,,,,,,,,,,,,,,0,,,53,0
84000,note_on,0,0,1,,,,,,,,,,,,,,,0,,,58,0
84000,note_on,0,0,2,,,,,,,,,,,,,,,0,,,51,56
84000,note_on,0,0,2,,,,,,,,,,,,,,,0,,,41,56
84000,note_on,0,0,2,,,,,,,,,,,,,,,0,,,41,0
84000,note_on,160,0,2,,,,,,,,,,,,,,,0,,,53,0
84000,note_on,0,0,1,,,,,,,,,,,,,,,0,,,65,70
84000,note_on,480,0,1,,,,,,,,,,,,,,,0,,,65,0
84000,note_on,0,0,1,,,,,,,,,,,,,,,0,,,70,0
84000,note_on,0,0,1,,,,,,,,,,,,,,,0,,,60,59
84000,note_on,0,0,1,,,,,,,,,,,,,,,0,,,72,82
84000,note_on,0,0,1,,,,,,,,,,,,,,,0,,,69,70
84042,control_change,42,0,2,,,,,,,,,,,,,,,0,64,0,,
84099,control_change,57,0,2,,,,,,,,,,,,,,,0,64,127,,
84160,note_on,0,0,2,,,,,,,,,,,,,,,0,,,53,52
84160,note_on,61,0,2,,,,,,,,,,,,,,,0,,,51,0
84240,set_tempo,480,1,0,,,,,,,,,,,,784621,,,,,,,
84320,note_on,0,0,2,,,,,,,,,,,,,,,0,,,53,52
84320,note_on,160,0,2,,,,,,,,,,,,,,,0,,,53,0
84480,note_on,480,0,1,,,,,,,,,,,,,,,0,,,65,0
84480,note_on,0,0,1,,,,,,,,,,,,,,,0,,,60,0
84480,note_on,0,0,1,,,,,,,,,,,,,,,0,,,72,0
84480,note_on,0,0,1,,,,,,,,,,,,,,,0,,,69,0
84480,set_tempo,240,1,0,,,,,,,,,,,,767362,,,,,,,
84480,note_on,0,0,1,,,,,,,,,,,,,,,0,,,72,89
84480,note_on,0,0,1,,,,,,,,,,,,,,,0,,,60,64
84480,note_on,0,0,1,,,,,,,,,,,,,,,0,,,69,75
84480,control_change,0,0,2,,,,,,,,,,,,,,,0,64,0,,
84480,note_on,0,0,2,,,,,,,,,,,,,,,0,,,51,51
84480,note_on,0,0,2,,,,,,,,,,,,,,,0,,,41,51
84480,note_on,0,0,2,,,,,,,,,,,,,,,0,,,41,0
84480,note_on,160,0,2,,,,,,,,,,,,,,,0,,,53,0
84480,note_on,0,0,1,,,,,,,,,,,,,,,0,,,65,75
84594,control_change,114,0,2,,,,,,,,,,,,,,,0,64,127,,
84640,note_on,46,0,2,,,,,,,,,,,,,,,0,,,53,50
84720,set_tempo,240,1,0,,,,,,,,,,,,733407,,,,,,,
84800,note_on,0,0,2,,,,,,,,,,,,,,,0,,,53,50
84800,note_on,160,0,2,,,,,,,,,,,,,,,0,,,53,0
84960,note_on,0,0,2,,,,,,,,,,,,,,,0,,,53,50
84960,note_on,160,0,2,,,,,,,,,,,,,,,0,,,53,0
85120,note_on,0,0,2,,,,,,,,,,,,,,,0,,,53,50
85120,note_on,160,0,2,,,,,,,,,,,,,,,0,,,53,0
85280,note_on,0,0,2,,,,,,,,,,,,,,,0,,,53,49
85280,note_on,160,0,2,,,,,,,,,,,,,,,0,,,53,0
85440,note_on,0,0,2,,,,,,,,,,,,,,,0,,,53,49
85440,note_on,0,0,2,,,,,,,,,,,,,,,0,,,41,0
85440,note_on,0,0,2,,,,,,,,,,,,,,,0,,,51,0
85440,note_on,160,0,2,,,,,,,,,,,,,,,0,,,53,0
85600,note_on,0,0,2,,,,,,,,,,,,,,,0,,,53,49
85600,note_on,160,0,2,,,,,,,,,,,,,,,0,,,53,0
85760,note_on,0,0,2,,,,,,,,,,,,,,,0,,,53,49
85760,note_on,160,0,2,,,,,,,,,,,,,,,0,,,53,0
85920,note_on,0,0,2,,,,,,,,,,,,,,,0,,,53,48
85920,note_on,160,0,2,,,,,,,,,,,,,,,0,,,53,0
86080,note_on,0,0,2,,,,,,,,,,,,,,,0,,,53,48
86080,note_on,160,0,2,,,,,,,,,,,,,,,0,,,53,0
86240,note_on,160,0,2,,,,,,,,,,,,,,,0,,,53,0
86240,note_on,0,0,2,,,,,,,,,,,,,,,0,,,53,48
86400,note_on,0,0,1,,,,,,,,,,,,,,,0,,,71,73
86400,note_on,0,0,2,,,,,,,,,,,,,,,0,,,50,48
86400,set_tempo,1680,1,0,,,,,,,,,,,,782371,,,,,,,
86400,note_on,0,0,1,,,,,,,,,,,,,,,0,,,59,61
86400,note_on,0,0,1,,,,,,,,,,,,,,,0,,,60,0
86400,note_on,1920,0,1,,,,,,,,,,,,,,,0,,,69,0
86400,note_on,0,0,1,,,,,,,,,,,,,,,0,,,68,61
86400,note_on,0,0,2,,,,,,,,,,,,,,,0,,,41,45
86400,note_on,0,0,1,,,,,,,,,,,,,,,0,,,72,0
86400,control_change,0,0,2,,,,,,,,,,,,,,,0,64,0,,
86400,note_on,160,0,2,,,,,,,,,,,,,,,0,,,53,0
86449,control_change,49,0,2,,,,,,,,,,,,,,,0,64,127,,
86560,note_on,111,0,2,,,,,,,,,,,,,,,0,,,53,42
86640,set_tempo,240,1,0,,,,,,,,,,,,733407,,,,,,,
86720,note_on,0,0,2,,,,,,,,,,,,,,,0,,,53,39
86720,note_on,160,0,2,,,,,,,,,,,,,,,0,,,53,0
86880,note_on,0,0,2,,,,,,,,,,,,,,,0,,,53,38
86880,note_on,160,0,2,,,,,,,,,,,,,,,0,,,53,0
87040,note_on,0,0,2,,,,,,,,,,,,,,,0,,,53,38
87040,note_on,160,0,2,,,,,,,,,,,,,,,0,,,53,0
87200,note_on,160,0,2,,,,,,,,,,,,,,,0,,,53,0
87200,note_on,0,0,2,,,,,,,,,,,,,,,0,,,53,37
87360,note_on,960,0,1,,,,,,,,,,,,,,,0,,,65,0
87360,note_on,0,0,2,,,,,,,,,,,,,,,0,,,53,37
87360,note_on,160,0,2,,,,,,,,,,,,,,,0,,,53,0
87520,note_on,0,0,2,,,,,,,,,,,,,,,0,,,53,36
87520,note_on,160,0,2,,,,,,,,,,,,,,,0,,,53,0
87680,note_on,0,0,2,,,,,,,,,,,,,,,0,,,53,35
87680,note_on,160,0,2,,,,,,,,,,,,,,,0,,,53,0
87840,note_on,0,0,2,,,,,,,,,,,,,,,0,,,53,36
87840,note_on,160,0,2,,,,,,,,,,,,,,,0,,,53,0
87840,note_on,0,0,1,,,,,,,,,,,,,,,0,,,62,55
87840,note_on,0,0,1,,,,,,,,,,,,,,,0,,,68,55
87840,set_tempo,1200,1,0,,,,,,,,,,,,771010,,,,,,,
87840,note_on,0,0,1,,,,,,,,,,,,,,,0,,,71,66
87840,note_on,0,0,1,,,,,,,,,,,,,,,0,,,68,0
87840,note_on,0,0,1,,,,,,,,,,,,,,,0,,,59,0
87840,note_on,480,0,1,,,,,,,,,,,,,,,0,,,71,0
87840,note_on,0,0,1,,,,,,,,,,,,,,,0,,,65,55
87868,control_change,28,0,2,,,,,,,,,,,,,,,0,64,0,,
87893,control_change,25,0,2,,,,,,,,,,,,,,,0,64,127,,
88000,note_on,107,0,2,,,,,,,,,,,,,,,0,,,53,0
88000,note_on,0,0,2,,,,,,,,,,,,,,,0,,,53,40
88160,note_on,160,0,2,,,,,,,,,,,,,,,0,,,53,0
88160,note_on,0,0,2,,,,,,,,,,,,,,,0,,,53,44
88320,note_on,0,0,1,,,,,,,,,,,,,,,0,,,71,66
88320,control_change,0,0,2,,,,,,,,,,,,,,,0,64,0,,
88320,note_on,0,0,2,,,,,,,,,,,,,,,0,,,53,50
88320,note_on,0,0,2,,,,,,,,,,,,,,,0,,,50,0
88320,note_on,0,0,1,,,,,,,,,,,,,,,0,,,65,55
88320,note_on,0,0,1,,,,,,,,,,,,,,,0,,,62,55
88320,note_on,0,0,1,,,,,,,,,,,,,,,0,,,68,55
88320,note_on,0,0,1,,,,,,,,,,,,,,,0,,,71,0
88320,note_on,0,0,1,,,,,,,,,,,,,,,0,,,68,0
88320,note_on,480,0,1,,,,,,,,,,,,,,,0,,,65,0
88320,note_on,0,0,2,,,,,,,,,,,,,,,0,,,41,0
88320,note_on,160,0,2,,,,,,,,,,,,,,,0,,,53,0
88320,note_on,0,0,1,,,,,,,,,,,,,,,0,,,62,0
88320,set_tempo,480,1,0,,,,,,,,,,,,771010,,,,,,,
88371,control_change,51,0,2,,,,,,,,,,,,,,,0,64,127,,
88480,note_on,109,0,2,,,,,,,,,,,,,,,0,,,53,0
88480,note_on,0,0,2,,,,,,,,,,,,,,,0,,,44,42
88560,set_tempo,240,1,0,,,,,,,,,,,,743863,,,,,,,
88640,note_on,160,0,2,,,,,,,,,,,,,,,0,,,44,0
88640,note_on,0,0,2,,,,,,,,,,,,,,,0,,,44,42
88800,note_on,160,0,2,,,,,,,,,,,,,,,0,,,44,0
88800,note_on,0,0,2,,,,,,,,,,,,,,,0,,,44,42
88960,note_on,160,0,2,,,,,,,,,,,,,,,0,,,44,0
88960,note_on,0,0,2,,,,,,,,,,,,,,,0,,,44,42
89120,note_on,160,0,2,,,,,,,,,,,,,,,0,,,44,0
89120,note_on,0,0,2,,,,,,,,,,,,,,,0,,,44,42
89280,note_on,0,0,2,,,,,,,,,,,,,,,0,,,44,42
89280,note_on,160,0,2,,,,,,,,,,,,,,,0,,,44,0
89440,note_on,0,0,2,,,,,,,,,,,,,,,0,,,44,42
89440,note_on,160,0,2,,,,,,,,,,,,,,,0,,,44,0
89600,note_on,0,0,2,,,,,,,,,,,,,,,0,,,44,42
89600,note_on,160,0,2,,,,,,,,,,,,,,,0,,,44,0
89720,set_tempo,1160,1,0,,,,,,,,,,,,733407,,,,,,,
89737,control_change,137,0,2,,,,,,,,,,,,,,,0,64,0,,
89760,note_on,23,0,2,,,,,,,,,,,,,,,0,,,44,0
89760,note_on,0,0,1,,,,,,,,,,,,,,,0,,,74,78
89760,note_on,0,0,1,,,,,,,,,,,,,,,0,,,68,66
89760,note_on,0,0,1,,,,,,,,,,,,,,,0,,,65,0
89760,note_on,0,0,1,,,,,,,,,,,,,,,0,,,62,0
89760,note_on,0,0,1,,,,,,,,,,,,,,,0,,,68,0
89760,note_on,1440,0,1,,,,,,,,,,,,,,,0,,,71,0
89760,note_on,0,0,1,,,,,,,,,,,,,,,0,,,65,66
89760,note_on,0,0,1,,,,,,,,,,,,,,,0,,,71,66
89760,note_on,0,0,2,,,,,,,,,,,,,,,0,,,44,42
89760,set_tempo,40,1,0,,,,,,,,,,,,727273,,,,,,,
89777,control_change,17,0,2,,,,,,,,,,,,,,,0,64,127,,
89800,set_tempo,40,1,0,,,,,,,,,,,,731707,,,,,,,
89840,set_tempo,40,1,0,,,,,,,,,,,,736196,,,,,,,
89880,set_tempo,40,1,0,,,,,,,,,,,,740741,,,,,,,
89920,set_tempo,40,1,0,,,,,,,,,,,,750000,,,,,,,
89920,note_on,143,0,2,,,,,,,,,,,,,,,0,,,44,0
89920,note_on,0,0,2,,,,,,,,,,,,,,,0,,,44,42
89960,set_tempo,40,1,0,,,,,,,,,,,,754717,,,,,,,
90000,set_tempo,40,1,0,,,,,,,,,,,,759494,,,,,,,
90040,set_tempo,40,1,0,,,,,,,,,,,,764331,,,,,,,
90080,note_on,160,0,2,,,,,,,,,,,,,,,0,,,44,0
90080,set_tempo,40,1,0,,,,,,,,,,,,774194,,,,,,,
90080,note_on,0,0,2,,,,,,,,,,,,,,,0,,,44,42
90120,set_tempo,40,1,0,,,,,,,,,,,,779221,,,,,,,
90160,set_tempo,40,1,0,,,,,,,,,,,,784314,,,,,,,
90200,set_tempo,40,1,0,,,,,,,,,,,,789474,,,,,,,
90240,set_tempo,40,1,0,,,,,,,,,,,,800000,,,,,,,
90240,note_on,0,0,2,,,,,,,,,,,,,,,0,,,44,46
90240,control_change,0,0,2,,,,,,,,,,,,,,,0,64,0,,
90240,note_on,480,0,1,,,,,,,,,,,,,,,0,,,65,0
90240,note_on,0,0,1,,,,,,,,,,,,,,,0,,,68,0
90240,note_on,0,0,1,,,,,,,,,,,,,,,0,,,74,0
90240,note_on,0,0,1,,,,,,,,,,,,,,,0,,,71,0
90240,note_on,0,0,1,,,,,,,,,,,,,,,0,,,65,72
90240,note_on,0,0,1,,,,,,,,,,,,,,,0,,,74,86
90240,note_on,0,0,1,,,,,,,,,,,,,,,0,,,68,72
90240,note_on,0,0,1,,,,,,,,,,,,,,,0,,,71,72
90240,note_on,160,0,2,,,,,,,,,,,,,,,0,,,44,0
90303,control_change,63,0,2,,,,,,,,,,,,,,,0,64,127,,
90400,note_on,0,0,2,,,,,,,,,,,,,,,0,,,37,46
90400,note_on,97,0,2,,,,,,,,,,,,,,,0,,,44,0
90480,set_tempo,240,1,0,,,,,,,,,,,,759494,,,,,,,
90560,note_on,0,0,2,,,,,,,,,,,,,,,0,,,37,46
90560,note_on,160,0,2,,,,,,,,,,,,,,,0,,,37,0
90720,note_on,160,0,2,,,,,,,,,,,,,,,0,,,37,0
90720,note_on,0,0,2,,,,,,,,,,,,,,,0,,,37,53
90880,note_on,160,0,2,,,,,,,,,,,,,,,0,,,37,0
90880,note_on,0,0,2,,,,,,,,,,,,,,,0,,,37,53
91040,note_on,160,0,2,,,,,,,,,,,,,,,0,,,37,0
91040,note_on,0,0,2,,,,,,,,,,,,,,,0,,,37,53
91200,note_on,0,0,1,,,,,,,,,,,,,,,0,,,73,86
91200,note_on,0,0,2,,,,,,,,,,,,,,,0,,,37,53
91200,note_on,960,0,1,,,,,,,,,,,,,,,0,,,74,0
91200,note_on,160,0,2,,,,,,,,,,,,,,,0,,,37,0
91360,note_on,0,0,2,,,,,,,,,,,,,,,0,,,37,52
91360,note_on,160,0,2,,,,,,,,,,,,,,,0,,,37,0
91440,note_on,0,0,1,,,,,,,,,,,,,,,0,,,71,0
91440,note_on,0,0,1,,,,,,,,,,,,,,,0,,,68,0
91440,note_on,0,0,1,,,,,,,,,,,,,,,0,,,65,0
91440,note_on,240,0,1,,,,,,,,,,,,,,,0,,,73,0
91520,note_on,160,0,2,,,,,,,,,,,,,,,0,,,37,0
91520,note_on,0,0,2,,,,,,,,,,,,,,,0,,,37,52
91680,note_on,160,0,2,,,,,,,,,,,,,,,0,,,37,0
91680,note_on,0,0,2,,,,,,,,,,,,,,,0,,,37,65
91680,set_tempo,1200,1,0,,,,,,,,,,,,845070,,,,,,,
91680,note_on,0,0,1,,,,,,,,,,,,,,,0,,,77,96
91680,note_on,0,0,1,,,,,,,,,,,,,,,0,,,71,80
91680,note_on,0,0,1,,,,,,,,,,,,,,,0,,,68,80
91680,note_on,240,0,1,,,,,,,,,,,,,,,0,,,73,80
91686,control_change,6,0,2,,,,,,,,,,,,,,,0,64,0,,
91731,control_change,45,0,2,,,,,,,,,,,,,,,0,64,127,,
91760,set_tempo,80,1,0,,,,,,,,,,,,851064,,,,,,,
91800,set_tempo,40,1,0,,,,,,,,,,,,857143,,,,,,,
91800,note_on,0,0,2,,,,,,,,,,,,,,,0,,,35,59
91800,note_on,69,0,2,,,,,,,,,,,,,,,0,,,37,0
91840,set_tempo,40,1,0,,,,,,,,,,,,863309,,,,,,,
91880,set_tempo,40,1,0,,,,,,,,,,,,869565,,,,,,,
91920,note_on,0,0,1,,,,,,,,,,,,,,,0,,,73,0
91920,note_on,0,0,1,,,,,,,,,,,,,,,0,,,68,0
91920,note_on,0,0,1,,,,,,,,,,,,,,,0,,,71,0
91920,note_on,240,0,1,,,,,,,,,,,,,,,0,,,77,0
91920,note_on,0,0,2,,,,,,,,,,,,,,,0,,,33,61
91920,note_on,120,0,2,,,,,,,,,,,,,,,0,,,35,0
91960,set_tempo,80,1,0,,,,,,,,,,,,875912,,,,,,,
92000,set_tempo,40,1,0,,,,,,,,,,,,882353,,,,,,,
92040,set_tempo,40,1,0,,,,,,,,,,,,888889,,,,,,,
92040,note_on,0,0,2,,,,,,,,,,,,,,,0,,,32,59
92040,note_on,120,0,2,,,,,,,,,,,,,,,0,,,33,0
92080,set_tempo,40,1,0,,,,,,,,,,,,895522,,,,,,,
92120,set_tempo,40,1,0,,,,,,,,,,,,902256,,,,,,,
92160,note_on,0,0,1,,,,,,,,,,,,,,,0,,,69,77
92160,note_on,0,0,1,,,,,,,,,,,,,,,0,,,78,92
92160,note_on,240,0,1,,,,,,,,,,,,,,,0,,,73,77
92160,set_tempo,0,1,0,,,,,,,,,,,,857143,,,,,,,
92160,key_signature,40,1,0,,,,,,,,,,,A,,,,,,,,
92160,control_change,0,0,2,,,,,,,,,,,,,,,0,64,0,,
92160,note_on,0,0,2,,,,,,,,,,,,,,,0,,,30,65
92160,note_on,120,0,2,,,,,,,,,,,,,,,0,,,32,0
92280,note_on,120,0,2,,,,,,,,,,,,,,,0,,,30,0
92320,note_on,0,0,1,,,,,,,,,,,,,,,0,,,69,0
92320,note_on,160,0,1,,,,,,,,,,,,,,,0,,,78,0
92320,note_on,0,0,1,,,,,,,,,,,,,,,0,,,73,34
92320,note_on,0,0,1,,,,,,,,,,,,,,,0,,,69,28
92320,note_on,0,0,1,,,,,,,,,,,,,,,0,,,73,0
92400,set_tempo,240,1,0,,,,,,,,,,,,736196,,,,,,,
92480,note_on,160,0,1,,,,,,,,,,,,,,,0,,,69,0
92480,note_on,0,0,1,,,,,,,,,,,,,,,0,,,73,0
92480,note_on,0,0,1,,,,,,,,,,,,,,,0,,,73,36
92480,note_on,0,0,1,,,,,,,,,,,,,,,0,,,69,30
92640,note_on,160,0,1,,,,,,,,,,,,,,,0,,,69,0
92640,note_on,0,0,1,,,,,,,,,,,,,,,0,,,73,0
92640,note_on,0,0,1,,,,,,,,,,,,,,,0,,,73,38
92640,note_on,0,0,1,,,,,,,,,,,,,,,0,,,69,32
92800,note_on,160,0,1,,,,,,,,,,,,,,,0,,,69,0
92800,note_on,0,0,1,,,,,,,,,,,,,,,0,,,73,35
92800,note_on,0,0,1,,,,,,,,,,,,,,,0,,,69,29
92800,note_on,0,0,1,,,,,,,,,,,,,,,0,,,73,0
92960,note_on,0,0,1,,,,,,,,,,,,,,,0,,,69,0
92960,note_on,160,0,1,,,,,,,,,,,,,,,0,,,73,0
92960,note_on,0,0,1,,,,,,,,,,,,,,,0,,,69,29
92960,note_on,0,0,1,,,,,,,,,,,,,,,0,,,73,35
93120,note_on,160,0,1,,,,,,,,,,,,,,,0,,,73,0
93120,note_on,0,0,1,,,,,,,,,,,,,,,0,,,69,0
93120,note_on,0,0,1,,,,,,,,,,,,,,,0,,,73,38
93120,note_on,0,0,1,,,,,,,,,,,,,,,0,,,69,32
93280,note_on,0,0,1,,,,,,,,,,,,,,,0,,,73,0
93280,note_on,0,0,1,,,,,,,,,,,,,,,0,,,69,29
93280,note_on,0,0,1,,,,,,,,,,,,,,,0,,,73,35
93280,note_on,160,0,1,,,,,,,,,,,,,,,0,,,69,0
93440,note_on,0,0,1,,,,,,,,,,,,,,,0,,,73,35
93440,note_on,0,0,1,,,,,,,,,,,,,,,0,,,69,0
93440,note_on,0,0,1,,,,,,,,,,,,,,,0,,,69,29
93440,note_on,160,0,1,,,,,,,,,,,,,,,0,,,73,0
93600,note_on,160,0,1,,,,,,,,,,,,,,,0,,,73,0
93600,note_on,0,0,1,,,,,,,,,,,,,,,0,,,69,0
93600,note_on,0,0,1,,,,,,,,,,,,,,,0,,,78,54
93600,note_on,1320,0,2,,,,,,,,,,,,,,,0,,,61,42
93600,note_on,0,0,2,,,,,,,,,,,,,,,0,,,54,42
93635,control_change,35,0,2,,,,,,,,,,,,,,,0,64,127,,
93760,note_on,0,0,1,,,,,,,,,,,,,,,0,,,69,27
93760,note_on,160,0,1,,,,,,,,,,,,,,,0,,,73,32
93920,note_on,0,0,1,,,,,,,,,,,,,,,0,,,73,0
93920,note_on,0,0,1,,,,,,,,,,,,,,,0,,,69,27
93920,note_on,160,0,1,,,,,,,,,,,,,,,0,,,69,0
93920,note_on,0,0,1,,,,,,,,,,,,,,,0,,,73,32
94080,set_tempo,1680,1,0,,,,,,,,,,,,723327,,,,,,,
94080,note_on,445,0,2,,,,,,,,,,,,,,,0,,,54,0
94080,note_on,160,0,1,,,,,,,,,,,,,,,0,,,73,0
94080,note_on,0,0,2,,,,,,,,,,,,,,,0,,,54,42
94080,note_on,0,0,2,,,,,,,,,,,,,,,0,,,61,42
94080,note_on,0,0,1,,,,,,,,,,,,,,,0,,,78,0
94080,note_on,0,0,1,,,,,,,,,,,,,,,0,,,69,0
94080,note_on,0,0,2,,,,,,,,,,,,,,,0,,,61,0
94080,note_on,0,0,1,,,,,,,,,,,,,,,0,,,78,53
94094,control_change,14,0,2,,,,,,,,,,,,,,,0,64,0,,
94129,control_change,35,0,2,,,,,,,,,,,,,,,0,64,127,,
94240,note_on,0,0,1,,,,,,,,,,,,,,,0,,,73,32
94240,note_on,160,0,1,,,,,,,,,,,,,,,0,,,69,27
94400,note_on,160,0,1,,,,,,,,,,,,,,,0,,,73,0
94400,note_on,0,0,1,,,,,,,,,,,,,,,0,,,69,27
94400,note_on,0,0,1,,,,,,,,,,,,,,,0,,,73,32
94400,note_on,0,0,1,,,,,,,,,,,,,,,0,,,69,0
94560,note_on,160,0,1,,,,,,,,,,,,,,,0,,,73,0
94560,note_on,0,0,1,,,,,,,,,,,,,,,0,,,69,0
94560,note_on,0,0,1,,,,,,,,,,,,,,,0,,,78,0
94560,note_on,0,0,1,,,,,,,,,,,,,,,0,,,81,53
94720,note_on,160,0,1,,,,,,,,,,,,,,,0,,,69,26
94720,note_on,0,0,1,,,,,,,,,,,,,,,0,,,73,31
94800,note_on,671,0,2,,,,,,,,,,,,,,,0,,,61,0
94800,note_on,0,0,2,,,,,,,,,,,,,,,0,,,59,38
94840,set_tempo,760,1,0,,,,,,,,,,,,738643,,,,,,,
94880,note_on,0,0,1,,,,,,,,,,,,,,,0,,,73,31
94880,note_on,0,0,1,,,,,,,,,,,,,,,0,,,69,26
94880,note_on,0,0,1,,,,,,,,,,,,,,,0,,,69,0
94880,note_on,160,0,1,,,,,,,,,,,,,,,0,,,73,0
95040,note_on,0,0,1,,,,,,,,,,,,,,,0,,,81,0
95040,note_on,0,0,1,,,,,,,,,,,,,,,0,,,78,53
95040,note_on,0,0,1,,,,,,,,,,,,,,,0,,,69,0
95040,note_on,160,0,1,,,,,,,,,,,,,,,0,,,73,0
95040,note_on,240,0,2,,,,,,,,,,,,,,,0,,,59,0
95040,note_on,0,0,2,,,,,,,,,,,,,,,0,,,57,41
95040,control_change,0,0,2,,,,,,,,,,,,,,,0,64,0,,
95089,control_change,49,0,2,,,,,,,,,,,,,,,0,64,127,,
95200,note_on,0,0,1,,,,,,,,,,,,,,,0,,,73,32
95200,note_on,160,0,1,,,,,,,,,,,,,,,0,,,69,27
95280,note_on,191,0,2,,,,,,,,,,,,,,,0,,,57,0
95280,note_on,0,0,2,,,,,,,,,,,,,,,0,,,54,0
95360,note_on,0,0,1,,,,,,,,,,,,,,,0,,,69,0
95360,note_on,0,0,1,,,,,,,,,,,,,,,0,,,69,27
95360,note_on,160,0,1,,,,,,,,,,,,,,,0,,,73,0
95360,note_on,0,0,1,,,,,,,,,,,,,,,0,,,73,32
95513,control_change,233,0,2,,,,,,,,,,,,,,,0,64,0,,
95520,set_tempo,680,1,0,,,,,,,,,,,,728332,,,,,,,
95520,note_on,160,0,1,,,,,,,,,,,,,,,0,,,69,0
95520,note_on,0,0,1,,,,,,,,,,,,,,,0,,,73,0
95520,note_on,0,0,1,,,,,,,,,,,,,,,0,,,78,0
95520,note_on,0,0,1,,,,,,,,,,,,,,,0,,,81,53
95520,note_on,7,0,2,,,,,,,,,,,,,,,0,,,57,38
95520,note_on,0,0,2,,,,,,,,,,,,,,,0,,,54,38
95562,control_change,42,0,2,,,,,,,,,,,,,,,0,64,127,,
95680,note_on,160,0,1,,,,,,,,,,,,,,,0,,,73,31
95680,note_on,0,0,1,,,,,,,,,,,,,,,0,,,69,26
95840,note_on,160,0,1,,,,,,,,,,,,,,,0,,,69,0
95840,note_on,0,0,1,,,,,,,,,,,,,,,0,,,73,0
95840,note_on,0,0,1,,,,,,,,,,,,,,,0,,,69,26
95840,note_on,0,0,1,,,,,,,,,,,,,,,0,,,73,31
96000,control_change,0,0,2,,,,,,,,,,,,,,,0,64,0,,
96000,note_on,0,0,2,,,,,,,,,,,,,,,0,,,54,41
96000,note_on,0,0,2,,,,,,,,,,,,,,,0,,,57,41
96000,note_on,0,0,2,,,,,,,,,,,,,,,0,,,57,0
96000,note_on,438,0,2,,,,,,,,,,,,,,,0,,,54,0
96000,note_on,160,0,1,,,,,,,,,,,,,,,0,,,73,0
96000,note_on,0,0,1,,,,,,,,,,,,,,,0,,,81,56
96000,note_on,0,0,1,,,,,,,,,,,,,,,0,,,81,0
96000,note_on,0,0,1,,,,,,,,,,,,,,,0,,,69,0
96056,control_change,56,0,2,,,,,,,,,,,,,,,0,64,127,,
96160,note_on,0,0,1,,,,,,,,,,,,,,,0,,,73,27
96160,note_on,160,0,1,,,,,,,,,,,,,,,0,,,78,32
96320,note_on,160,0,1,,,,,,,,,,,,,,,0,,,73,0
96320,note_on,0,0,1,,,,,,,,,,,,,,,0,,,78,0
96320,note_on,0,0,1,,,,,,,,,,,,,,,0,,,78,32
96320,note_on,0,0,1,,,,,,,,,,,,,,,0,,,73,27
96480,note_on,0,0,1,,,,,,,,,,,,,,,0,,,85,55
96480,note_on,0,0,1,,,,,,,,,,,,,,,0,,,78,0
96480,note_on,0,0,1,,,,,,,,,,,,,,,0,,,81,0
96480,note_on,160,0,1,,,,,,,,,,,,,,,0,,,73,0
96640,note_on,160,0,1,,,,,,,,,,,,,,,0,,,78,32
96640,note_on,0,0,1,,,,,,,,,,,,,,,0,,,73,27
96720,set_tempo,1200,1,0,,,,,,,,,,,,738643,,,,,,,
96720,note_on,664,0,2,,,,,,,,,,,,,,,0,,,57,0
96720,note_on,0,0,2,,,,,,,,,,,,,,,0,,,56,41
96800,note_on,160,0,1,,,,,,,,,,,,,,,0,,,73,0
96800,note_on,0,0,1,,,,,,,,,,,,,,,0,,,78,0
96800,note_on,0,0,1,,,,,,,,,,,,,,,0,,,73,27
96800,note_on,0,0,1,,,,,,,,,,,,,,,0,,,78,32
96946,control_change,226,0,2,,,,,,,,,,,,,,,0,64,0,,
96960,note_on,0,0,2,,,,,,,,,,,,,,,0,,,54,0
96960,note_on,14,0,2,,,,,,,,,,,,,,,0,,,56,0
96960,note_on,0,0,1,,,,,,,,,,,,,,,0,,,81,55
96960,note_on,0,0,1,,,,,,,,,,,,,,,0,,,85,0
96960,note_on,0,0,1,,,,,,,,,,,,,,,0,,,73,0
96960,note_on,160,0,1,,,,,,,,,,,,,,,0,,,78,0
96960,note_on,0,0,2,,,,,,,,,,,,,,,0,,,54,44
97009,control_change,49,0,2,,,,,,,,,,,,,,,0,64,127,,
97120,note_on,0,0,1,,,,,,,,,,,,,,,0,,,78,32
97120,note_on,160,0,1,,,,,,,,,,,,,,,0,,,73,27
97200,note_on,191,0,2,,,,,,,,,,,,,,,0,,,54,0
97280,note_on,0,0,1,,,,,,,,,,,,,,,0,,,78,32
97280,note_on,0,0,1,,,,,,,,,,,,,,,0,,,73,0
97280,note_on,160,0,1,,,,,,,,,,,,,,,0,,,78,0
97280,note_on,0,0,1,,,,,,,,,,,,,,,0,,,73,27
97440,note_on,0,0,1,,,,,,,,,,,,,,,0,,,85,56
97440,note_on,0,0,1,,,,,,,,,,,,,,,0,,,81,0
97440,note_on,0,0,1,,,,,,,,,,,,,,,0,,,73,0
97440,note_on,160,0,1,,,,,,,,,,,,,,,0,,,78,0
97440,note_on,240,0,2,,,,,,,,,,,,,,,0,,,54,34
97468,control_change,28,0,2,,,,,,,,,,,,,,,0,64,0,,
97532,control_change,64,0,2,,,,,,,,,,,,,,,0,64,127,,
97600,note_on,0,0,1,,,,,,,,,,,,,,,0,,,73,27
97600,note_on,160,0,1,,,,,,,,,,,,,,,0,,,78,32
97760,note_on,160,0,1,,,,,,,,,,,,,,,0,,,73,0
97760,note_on,0,0,1,,,,,,,,,,,,,,,0,,,78,0
97760,note_on,0,0,1,,,,,,,,,,,,,,,0,,,73,27
97760,note_on,0,0,1,,,,,,,,,,,,,,,0,,,78,32
97920,note_on,0,0,1,,,,,,,,,,,,,,,0,,,73,0
97920,note_on,0,0,2,,,,,,,,,,,,,,,0,,,54,41
97920,note_on,160,0,1,,,,,,,,,,,,,,,0,,,78,0
97920,note_on,0,0,1,,,,,,,,,,,,,,,0,,,73,56
97920,control_change,0,0,2,,,,,,,,,,,,,,,0,64,0,,
97920,set_tempo,1200,1,0,,,,,,,,,,,,714286,,,,,,,
97920,note_on,388,0,2,,,,,,,,,,,,,,,0,,,54,0
97920,control_change,0,0,2,,,,,,,,,,,,,,,0,64,0,,
97920,note_on,0,0,1,,,,,,,,,,,,,,,0,,,85,0
97976,control_change,56,0,2,,,,,,,,,,,,,,,0,64,127,,
98040,set_tempo,120,1,0,,,,,,,,,,,,710059,,,,,,,
98080,note_on,0,0,1,,,,,,,,,,,,,,,0,,,69,32
98080,note_on,160,0,1,,,,,,,,,,,,,,,0,,,66,27
98160,set_tempo,120,1,0,,,,,,,,,,,,705882,,,,,,,
98240,note_on,0,0,1,,,,,,,,,,,,,,,0,,,69,32
98240,note_on,160,0,1,,,,,,,,,,,,,,,0,,,69,0
98240,note_on,0,0,1,,,,,,,,,,,,,,,0,,,66,0
98240,note_on,0,0,1,,,,,,,,,,,,,,,0,,,66,27
98280,set_tempo,120,1,0,,,,,,,,,,,,701754,,,,,,,
98360,set_tempo,80,1,0,,,,,,,,,,,,697674,,,,,,,
98400,note_on,0,0,1,,,,,,,,,,,,,,,0,,,66,0
98400,note_on,0,0,1,,,,,,,,,,,,,,,0,,,77,56
98400,note_on,0,0,1,,,,,,,,,,,,,,,0,,,73,0
98400,note_on,0,0,2,,,,,,,,,,,,,,,0,,,56,42
98400,note_on,424,0,2,,,,,,,,,,,,,,,0,,,54,0
98400,set_tempo,40,1,0,,,,,,,,,,,,693642,,,,,,,
98400,note_on,160,0,1,,,,,,,,,,,,,,,0,,,69,0
98429,control_change,29,0,2,,,,,,,,,,,,,,,0,64,0,,
98441,control_change,12,0,2,,,,,,,,,,,,,,,0,64,127,,
98560,note_on,160,0,1,,,,,,,,,,,,,,,0,,,73,33
98560,note_on,0,0,1,,,,,,,,,,,,,,,0,,,71,33
98560,note_on,0,0,1,,,,,,,,,,,,,,,0,,,65,27
98640,set_tempo,240,1,0,,,,,,,,,,,,718563,,,,,,,
98720,note_on,0,0,1,,,,,,,,,,,,,,,0,,,73,34
98720,note_on,0,0,1,,,,,,,,,,,,,,,0,,,71,34
98720,note_on,160,0,1,,,,,,,,,,,,,,,0,,,65,0
98720,note_on,0,0,1,,,,,,,,,,,,,,,0,,,71,0
98720,note_on,0,0,1,,,,,,,,,,,,,,,0,,,73,0
98720,note_on,0,0,1,,,,,,,,,,,,,,,0,,,65,27
98866,control_change,425,0,2,,,,,,,,,,,,,,,0,64,0,,
98880,note_on,0,0,1,,,,,,,,,,,,,,,0,,,77,0
98880,note_on,0,0,1,,,,,,,,,,,,,,,0,,,65,0
98880,note_on,0,0,1,,,,,,,,,,,,,,,0,,,73,0
98880,note_on,0,0,1,,,,,,,,,,,,,,,0,,,78,58
98880,set_tempo,240,1,0,,,,,,,,,,,,697674,,,,,,,
98880,note_on,160,0,1,,,,,,,,,,,,,,,0,,,71,0
98880,note_on,0,0,2,,,,,,,,,,,,,,,0,,,57,47
98880,note_on,14,0,2,,,,,,,,,,,,,,,0,,,56,0
98929,control_change,49,0,2,,,,,,,,,,,,,,,0,64,127,,
99040,note_on,160,0,1,,,,,,,,,,,,,,,0,,,73,34
99040,note_on,0,0,1,,,,,,,,,,,,,,,0,,,69,34
99040,note_on,0,0,1,,,,,,,,,,,,,,,0,,,66,28
99200,note_on,0,0,1,,,,,,,,,,,,,,,0,,,66,29
99200,note_on,0,0,1,,,,,,,,,,,,,,,0,,,73,0
99200,note_on,0,0,1,,,,,,,,,,,,,,,0,,,66,0
99200,note_on,0,0,1,,,,,,,,,,,,,,,0,,,69,35
99200,note_on,0,0,1,,,,,,,,,,,,,,,0,,,73,35
99200,note_on,160,0,1,,,,,,,,,,,,,,,0,,,69,0
99360,set_tempo,480,1,0,,,,,,,,,,,,718563,,,,,,,
99360,note_on,0,0,1,,,,,,,,,,,,,,,0,,,80,62
99360,note_on,0,0,1,,,,,,,,,,,,,,,0,,,66,0
99360,note_on,0,0,1,,,,,,,,,,,,,,,0,,,73,0
99360,note_on,431,0,2,,,,,,,,,,,,,,,0,,,57,0
99360,note_on,160,0,1,,,,,,,,,,,,,,,0,,,69,0
99360,note_on,0,0,2,,,,,,,,,,,,,,,0,,,59,37
99360,note_on,0,0,2,,,,,,,,,,,,,,,0,,,52,31
99360,note_on,0,0,1,,,,,,,,,,,,,,,0,,,78,0
99401,control_change,41,0,2,,,,,,,,,,,,,,,0,64,0,,
99452,control_change,51,0,2,,,,,,,,,,,,,,,0,64,127,,
99520,note_on,160,0,1,,,,,,,,,,,,,,,0,,,74,36
99520,note_on,0,0,1,,,,,,,,,,,,,,,0,,,76,36
99520,note_on,0,0,1,,,,,,,,,,,,,,,0,,,68,29
99680,note_on,0,0,1,,,,,,,,,,,,,,,0,,,74,36
99680,note_on,0,0,1,,,,,,,,,,,,,,,0,,,68,29
99680,note_on,0,0,1,,,,,,,,,,,,,,,0,,,74,0
99680,note_on,0,0,1,,,,,,,,,,,,,,,0,,,76,0
99680,note_on,0,0,1,,,,,,,,,,,,,,,0,,,76,36
99680,note_on,160,0,1,,,,,,,,,,,,,,,0,,,68,0
99840,note_on,160,0,1,,,,,,,,,,,,,,,0,,,74,0
99840,note_on,0,0,1,,,,,,,,,,,,,,,0,,,80,0
99840,note_on,0,0,1,,,,,,,,,,,,,,,0,,,76,0
99840,note_on,0,0,1,,,,,,,,,,,,,,,0,,,68,0
99840,note_on,0,0,1,,,,,,,,,,,,,,,0,,,81,61
99840,note_on,388,0,2,,,,,,,,,,,,,,,0,,,59,0
99840,note_on,0,0,2,,,,,,,,,,,,,,,0,,,52,0
99840,note_on,0,0,2,,,,,,,,,,,,,,,0,,,61,47
99840,note_on,0,0,2,,,,,,,,,,,,,,,0,,,57,39
99840,control_change,0,0,2,,,,,,,,,,,,,,,0,64,0,,
99840,control_change,0,0,2,,,,,,,,,,,,,,,0,64,0,,
99840,set_tempo,480,1,0,,,,,,,,,,,,705882,,,,,,,
99896,control_change,56,0,2,,,,,,,,,,,,,,,0,64,127,,
100000,note_on,160,0,1,,,,,,,,,,,,,,,0,,,76,36
100000,note_on,0,0,1,,,,,,,,,,,,,,,0,,,69,30
100000,note_on,0,0,1,,,,,,,,,,,,,,,0,,,73,30
100160,note_on,0,0,1,,,,,,,,,,,,,,,0,,,69,29
100160,note_on,0,0,1,,,,,,,,,,,,,,,0,,,76,36
100160,note_on,0,0,1,,,,,,,,,,,,,,,0,,,76,0
100160,note_on,0,0,1,,,,,,,,,,,,,,,0,,,69,0
100160,note_on,160,0,1,,,,,,,,,,,,,,,0,,,73,0
100160,note_on,0,0,1,,,,,,,,,,,,,,,0,,,73,29
100320,note_on,160,0,1,,,,,,,,,,,,,,,0,,,73,0
100320,note_on,0,0,1,,,,,,,,,,,,,,,0,,,81,0
100320,note_on,0,0,1,,,,,,,,,,,,,,,0,,,83,60
100320,note_on,0,0,1,,,,,,,,,,,,,,,0,,,69,0
100320,note_on,0,0,1,,,,,,,,,,,,,,,0,,,76,0
100320,note_on,0,0,2,,,,,,,,,,,,,,,0,,,61,45
100320,note_on,0,0,2,,,,,,,,,,,,,,,0,,,56,38
100320,note_on,0,0,2,,,,,,,,,,,,,,,0,,,61,0
100320,note_on,424,0,2,,,,,,,,,,,,,,,0,,,57,0
100349,control_change,29,0,2,,,,,,,,,,,,,,,0,64,0,,
100361,control_change,12,0,2,,,,,,,,,,,,,,,0,64,127,,
100480,note_on,0,0,1,,,,,,,,,,,,,,,0,,,77,35
100480,note_on,0,0,1,,,,,,,,,,,,,,,0,,,73,35
100480,note_on,160,0,1,,,,,,,,,,,,,,,0,,,71,28
100560,set_tempo,720,1,0,,,,,,,,,,,,738643,,,,,,,
100640,note_on,0,0,1,,,,,,,,,,,,,,,0,,,73,0
100640,note_on,0,0,1,,,,,,,,,,,,,,,0,,,73,34
100640,note_on,0,0,1,,,,,,,,,,,,,,,0,,,71,28
100640,note_on,160,0,1,,,,,,,,,,,,,,,0,,,77,0
100640,note_on,0,0,1,,,,,,,,,,,,,,,0,,,71,0
100640,note_on,0,0,1,,,,,,,,,,,,,,,0,,,77,34
100786,control_change,425,0,2,,,,,,,,,,,,,,,0,64,0,,
100800,note_on,14,0,2,,,,,,,,,,,,,,,0,,,61,0
100800,note_on,0,0,1,,,,,,,,,,,,,,,0,,,81,57
100800,note_on,0,0,1,,,,,,,,,,,,,,,0,,,77,0
100800,note_on,0,0,1,,,,,,,,,,,,,,,0,,,73,0
100800,note_on,0,0,1,,,,,,,,,,,,,,,0,,,83,0
100800,note_on,160,0,1,,,,,,,,,,,,,,,0,,,71,0
100800,note_on,0,0,2,,,,,,,,,,,,,,,0,,,61,46
100800,note_on,0,0,2,,,,,,,,,,,,,,,0,,,54,38
100800,note_on,0,0,2,,,,,,,,,,,,,,,0,,,56,0
100849,control_change,49,0,2,,,,,,,,,,,,,,,0,64,127,,
100960,note_on,0,0,1,,,,,,,,,,,,,,,0,,,73,33
100960,note_on,160,0,1,,,,,,,,,,,,,,,0,,,66,27
100960,note_on,0,0,1,,,,,,,,,,,,,,,0,,,78,33
101120,note_on,0,0,1,,,,,,,,,,,,,,,0,,,78,0
101120,note_on,0,0,1,,,,,,,,,,,,,,,0,,,66,0
101120,note_on,0,0,1,,,,,,,,,,,,,,,0,,,66,27
101120,note_on,0,0,1,,,,,,,,,,,,,,,0,,,78,32
101120,note_on,0,0,1,,,,,,,,,,,,,,,0,,,73,32
101120,note_on,160,0,1,,,,,,,,,,,,,,,0,,,73,0
101280,note_on,160,0,1,,,,,,,,,,,,,,,0,,,73,0
101280,note_on,0,0,1,,,,,,,,,,,,,,,0,,,66,0
101280,note_on,0,0,1,,,,,,,,,,,,,,,0,,,78,0
101280,note_on,0,0,1,,,,,,,,,,,,,,,0,,,81,0
101280,note_on,0,0,1,,,,,,,,,,,,,,,0,,,80,56
101280,note_on,0,0,2,,,,,,,,,,,,,,,0,,,52,33
101280,note_on,0,0,2,,,,,,,,,,,,,,,0,,,62,39
101280,note_on,0,0,2,,,,,,,,,,,,,,,0,,,61,0
101280,note_on,431,0,2,,,,,,,,,,,,,,,0,,,54,0
101321,control_change,41,0,2,,,,,,,,,,,,,,,0,64,0,,
101372,control_change,51,0,2,,,,,,,,,,,,,,,0,64,127,,
101440,note_on,160,0,1,,,,,,,,,,,,,,,0,,,68,27
101440,note_on,0,0,1,,,,,,,,,,,,,,,0,,,76,32
101440,note_on,0,0,1,,,,,,,,,,,,,,,0,,,71,32
101600,note_on,160,0,1,,,,,,,,,,,,,,,0,,,71,0
101600,note_on,0,0,1,,,,,,,,,,,,,,,0,,,76,0
101600,note_on,0,0,1,,,,,,,,,,,,,,,0,,,68,0
101600,note_on,0,0,1,,,,,,,,,,,,,,,0,,,68,27
101600,note_on,0,0,1,,,,,,,,,,,,,,,0,,,76,32
101600,note_on,0,0,1,,,,,,,,,,,,,,,0,,,71,32
101760,note_on,0,0,2,,,,,,,,,,,,,,,0,,,62,0
101760,note_on,0,0,2,,,,,,,,,,,,,,,0,,,62,39
101760,note_on,0,0,2,,,,,,,,,,,,,,,0,,,52,33
101760,note_on,0,0,1,,,,,,,,,,,,,,,0,,,76,0
101760,note_on,160,0,1,,,,,,,,,,,,,,,0,,,71,0
101760,control_change,0,0,2,,,,,,,,,,,,,,,0,64,0,,
101760,note_on,0,0,1,,,,,,,,,,,,,,,0,,,80,0
101760,note_on,0,0,1,,,,,,,,,,,,,,,0,,,68,0
101760,note_on,388,0,2,,,,,,,,,,,,,,,0,,,52,0
101760,note_on,0,0,1,,,,,,,,,,,,,,,0,,,80,54
101813,control_change,53,0,2,,,,,,,,,,,,,,,0,64,127,,
101920,note_on,0,0,1,,,,,,,,,,,,,,,0,,,71,26
101920,note_on,0,0,1,,,,,,,,,,,,,,,0,,,76,31
101920,note_on,160,0,1,,,,,,,,,,,,,,,0,,,68,26
102080,note_on,160,0,1,,,,,,,,,,,,,,,0,,,76,0
102080,note_on,0,0,1,,,,,,,,,,,,,,,0,,,71,0
102080,note_on,0,0,1,,,,,,,,,,,,,,,0,,,68,26
102080,note_on,0,0,1,,,,,,,,,,,,,,,0,,,76,31
102080,note_on,0,0,1,,,,,,,,,,,,,,,0,,,71,26
102080,note_on,0,0,1,,,,,,,,,,,,,,,0,,,68,0
102240,note_on,160,0,1,,,,,,,,,,,,,,,0,,,71,0
102240,note_on,0,0,1,,,,,,,,,,,,,,,0,,,76,0
102240,note_on,0,0,1,,,,,,,,,,,,,,,0,,,68,0
102240,note_on,0,0,1,,,,,,,,,,,,,,,0,,,71,26
102240,note_on,0,0,1,,,,,,,,,,,,,,,0,,,68,26
102240,note_on,0,0,1,,,,,,,,,,,,,,,0,,,76,31
102400,note_on,0,0,1,,,,,,,,,,,,,,,0,,,68,0
102400,note_on,0,0,1,,,,,,,,,,,,,,,0,,,71,0
102400,note_on,0,0,1,,,,,,,,,,,,,,,0,,,71,26
102400,note_on,0,0,1,,,,,,,,,,,,,,,0,,,68,26
102400,note_on,0,0,1,,,,,,,,,,,,,,,0,,,76,31
102400,note_on,160,0,1,,,,,,,,,,,,,,,0,,,76,0
102560,note_on,0,0,1,,,,,,,,,,,,,,,0,,,76,32
102560,note_on,0,0,1,,,,,,,,,,,,,,,0,,,71,27
102560,note_on,0,0,1,,,,,,,,,,,,,,,0,,,68,27
102560,note_on,0,0,1,,,,,,,,,,,,,,,0,,,68,0
102560,note_on,160,0,1,,,,,,,,,,,,,,,0,,,76,0
102560,note_on,0,0,1,,,,,,,,,,,,,,,0,,,71,0
102720,note_on,0,0,2,,,,,,,,,,,,,,,0,,,62,0
102720,note_on,0,0,1,,,,,,,,,,,,,,,0,,,80,55
102720,note_on,0,0,1,,,,,,,,,,,,,,,0,,,68,0
102720,note_on,0,0,1,,,,,,,,,,,,,,,0,,,71,0
102720,note_on,0,0,1,,,,,,,,,,,,,,,0,,,80,0
102720,note_on,160,0,1,,,,,,,,,,,,,,,0,,,76,0
102720,note_on,0,0,2,,,,,,,,,,,,,,,0,,,53,30
102720,note_on,907,0,2,,,,,,,,,,,,,,,0,,,52,0
102720,note_on,0,0,2,,,,,,,,,,,,,,,0,,,61,37
102745,control_change,25,0,2,,,,,,,,,,,,,,,0,64,0,,
102773,control_change,28,0,2,,,,,,,,,,,,,,,0,64,127,,
102880,note_on,160,0,1,,,,,,,,,,,,,,,0,,,68,25
102880,note_on,0,0,1,,,,,,,,,,,,,,,0,,,73,29
102880,note_on,0,0,1,,,,,,,,,,,,,,,0,,,71,25
103040,note_on,0,0,1,,,,,,,,,,,,,,,0,,,68,25
103040,note_on,0,0,1,,,,,,,,,,,,,,,0,,,73,30
103040,note_on,0,0,1,,,,,,,,,,,,,,,0,,,71,25
103040,note_on,0,0,1,,,,,,,,,,,,,,,0,,,68,0
103040,note_on,0,0,1,,,,,,,,,,,,,,,0,,,73,0
103040,note_on,160,0,1,,,,,,,,,,,,,,,0,,,71,0
103200,note_on,0,0,2,,,,,,,,,,,,,,,0,,,61,36
103200,note_on,0,0,2,,,,,,,,,,,,,,,0,,,54,30
103200,note_on,0,0,2,,,,,,,,,,,,,,,0,,,53,0
103200,note_on,427,0,2,,,,,,,,,,,,,,,0,,,61,0
103200,note_on,160,0,1,,,,,,,,,,,,,,,0,,,68,0
103200,note_on,0,0,1,,,,,,,,,,,,,,,0,,,80,0
103200,note_on,0,0,1,,,,,,,,,,,,,,,0,,,73,0
103200,note_on,0,0,1,,,,,,,,,,,,,,,0,,,81,54
103200,note_on,0,0,1,,,,,,,,,,,,,,,0,,,71,0
103214,control_change,14,0,2,,,,,,,,,,,,,,,0,64,0,,
103260,control_change,46,0,2,,,,,,,,,,,,,,,0,64,127,,
103360,note_on,0,0,1,,,,,,,,,,,,,,,0,,,69,25
103360,note_on,160,0,1,,,,,,,,,,,,,,,0,,,73,29
103520,note_on,0,0,1,,,,,,,,,,,,,,,0,,,73,29
103520,note_on,0,0,1,,,,,,,,,,,,,,,0,,,69,25
103520,note_on,0,0,1,,,,,,,,,,,,,,,0,,,73,0
103520,note_on,160,0,1,,,,,,,,,,,,,,,0,,,69,0
103680,note_on,420,0,2,,,,,,,,,,,,,,,0,,,61,0
103680,note_on,160,0,1,,,,,,,,,,,,,,,0,,,73,0
103680,note_on,0,0,1,,,,,,,,,,,,,,,0,,,78,53
103680,note_on,0,0,1,,,,,,,,,,,,,,,0,,,69,0
103680,note_on,0,0,1,,,,,,,,,,,,,,,0,,,81,0
103680,set_tempo,3120,1,0,,,,,,,,,,,,723327,,,,,,,
103680,control_change,0,0,2,,,,,,,,,,,,,,,0,64,0,,
103680,note_on,0,0,2,,,,,,,,,,,,,,,0,,,61,42
103680,note_on,0,0,2,,,,,,,,,,,,,,,0,,,54,32
103680,note_on,0,0,2,,,,,,,,,,,,,,,0,,,54,0
103694,control_change,14,0,2,,,,,,,,,,,,,,,0,64,0,,
103729,control_change,35,0,2,,,,,,,,,,,,,,,0,64,127,,
103840,note_on,0,0,1,,,,,,,,,,,,,,,0,,,73,32
103840,note_on,160,0,1,,,,,,,,,,,,,,,0,,,69,27
104000,note_on,0,0,1,,,,,,,,,,,,,,,0,,,73,32
104000,note_on,0,0,1,,,,,,,,,,,,,,,0,,,69,27
104000,note_on,160,0,1,,,,,,,,,,,,,,,0,,,73,0
104000,note_on,0,0,1,,,,,,,,,,,,,,,0,,,69,0
104160,note_on,0,0,1,,,,,,,,,,,,,,,0,,,78,0
104160,note_on,0,0,1,,,,,,,,,,,,,,,0,,,81,53
104160,note_on,160,0,1,,,,,,,,,,,,,,,0,,,73,0
104160,note_on,0,0,1,,,,,,,,,,,,,,,0,,,69,0
104320,note_on,0,0,1,,,,,,,,,,,,,,,0,,,69,26
104320,note_on,160,0,1,,,,,,,,,,,,,,,0,,,73,31
104400,note_on,671,0,2,,,,,,,,,,,,,,,0,,,61,0
104400,note_on,0,0,2,,,,,,,,,,,,,,,0,,,59,38
104440,set_tempo,760,1,0,,,,,,,,,,,,738643,,,,,,,
104480,note_on,0,0,1,,,,,,,,,,,,,,,0,,,73,0
104480,note_on,0,0,1,,,,,,,,,,,,,,,0,,,73,31
104480,note_on,0,0,1,,,,,,,,,,,,,,,0,,,69,26
104480,note_on,160,0,1,,,,,,,,,,,,,,,0,,,69,0
104640,note_on,0,0,1,,,,,,,,,,,,,,,0,,,81,0
104640,note_on,240,0,2,,,,,,,,,,,,,,,0,,,59,0
104640,control_change,0,0,2,,,,,,,,,,,,,,,0,64,0,,
104640,note_on,0,0,2,,,,,,,,,,,,,,,0,,,57,41
104640,note_on,0,0,1,,,,,,,,,,,,,,,0,,,78,53
104640,note_on,160,0,1,,,,,,,,,,,,,,,0,,,73,0
104640,note_on,0,0,1,,,,,,,,,,,,,,,0,,,69,0
104689,control_change,49,0,2,,,,,,,,,,,,,,,0,64,127,,
104800,note_on,160,0,1,,,,,,,,,,,,,,,0,,,69,27
104800,note_on,0,0,1,,,,,,,,,,,,,,,0,,,73,32
104880,note_on,191,0,2,,,,,,,,,,,,,,,0,,,57,0
104880,note_on,0,0,2,,,,,,,,,,,,,,,0,,,54,0
104960,note_on,160,0,1,,,,,,,,,,,,,,,0,,,73,0
104960,note_on,0,0,1,,,,,,,,,,,,,,,0,,,69,0
104960,note_on,0,0,1,,,,,,,,,,,,,,,0,,,69,27
104960,note_on,0,0,1,,,,,,,,,,,,,,,0,,,73,32
105113,control_change,233,0,2,,,,,,,,,,,,,,,0,64,0,,
105120,note_on,0,0,1,,,,,,,,,,,,,,,0,,,81,53
105120,note_on,0,0,1,,,,,,,,,,,,,,,0,,,78,0
105120,note_on,7,0,2,,,,,,,,,,,,,,,0,,,57,38
105120,note_on,160,0,1,,,,,,,,,,,,,,,0,,,73,0
105120,note_on,0,0,2,,,,,,,,,,,,,,,0,,,54,32
105120,note_on,0,0,1,,,,,,,,,,,,,,,0,,,69,0
105120,set_tempo,680,1,0,,,,,,,,,,,,728332,,,,,,,
105162,control_change,42,0,2,,,,,,,,,,,,,,,0,64,127,,
105280,note_on,160,0,1,,,,,,,,,,,,,,,0,,,69,26
105280,note_on,0,0,1,,,,,,,,,,,,,,,0,,,73,31
105440,note_on,160,0,1,,,,,,,,,,,,,,,0,,,73,0
105440,note_on,0,0,1,,,,,,,,,,,,,,,0,,,69,0
105440,note_on,0,0,1,,,,,,,,,,,,,,,0,,,73,31
105440,note_on,0,0,1,,,,,,,,,,,,,,,0,,,69,26
105600,control_change,0,0,2,,,,,,,,,,,,,,,0,64,0,,
105600,note_on,0,0,2,,,,,,,,,,,,,,,0,,,54,34
105600,note_on,0,0,2,,,,,,,,,,,,,,,0,,,57,41
105600,note_on,0,0,2,,,,,,,,,,,,,,,0,,,57,0
105600,note_on,0,0,1,,,,,,,,,,,,,,,0,,,73,0
105600,note_on,438,0,2,,,,,,,,,,,,,,,0,,,54,0
105600,note_on,160,0,1,,,,,,,,,,,,,,,0,,,69,0
105600,note_on,0,0,1,,,,,,,,,,,,,,,0,,,81,0
105600,note_on,0,0,1,,,,,,,,,,,,,,,0,,,81,56
105656,control_change,56,0,2,,,,,,,,,,,,,,,0,64,127,,
105760,note_on,160,0,1,,,,,,,,,,,,,,,0,,,73,27
105760,note_on,0,0,1,,,,,,,,,,,,,,,0,,,78,32
105920,note_on,160,0,1,,,,,,,,,,,,,,,0,,,78,0
105920,note_on,0,0,1,,,,,,,,,,,,,,,0,,,73,0
105920,note_on,0,0,1,,,,,,,,,,,,,,,0,,,73,27
105920,note_on,0,0,1,,,,,,,,,,,,,,,0,,,78,32
106080,note_on,0,0,1,,,,,,,,,,,,,,,0,,,73,0
106080,note_on,160,0,1,,,,,,,,,,,,,,,0,,,78,0
106080,note_on,0,0,1,,,,,,,,,,,,,,,0,,,81,0
106080,note_on,0,0,1,,,,,,,,,,,,,,,0,,,85,55
106240,note_on,0,0,1,,,,,,,,,,,,,,,0,,,78,32
106240,note_on,160,0,1,,,,,,,,,,,,,,,0,,,73,27
106320,note_on,0,0,2,,,,,,,,,,,,,,,0,,,56,41
106320,note_on,664,0,2,,,,,,,,,,,,,,,0,,,57,0
106320,set_tempo,1200,1,0,,,,,,,,,,,,738643,,,,,,,
106400,note_on,0,0,1,,,,,,,,,,,,,,,0,,,73,0
106400,note_on,0,0,1,,,,,,,,,,,,,,,0,,,73,27
106400,note_on,160,0,1,,,,,,,,,,,,,,,0,,,78,0
106400,note_on,0,0,1,,,,,,,,,,,,,,,0,,,78,32
106546,control_change,226,0,2,,,,,,,,,,,,,,,0,64,0,,
106560,note_on,14,0,2,,,,,,,,,,,,,,,0,,,56,0
106560,note_on,0,0,2,,,,,,,,,,,,,,,0,,,54,0
106560,note_on,0,0,2,,,,,,,,,,,,,,,0,,,54,44
106560,note_on,160,0,1,,,,,,,,,,,,,,,0,,,73,0
106560,note_on,0,0,1,,,,,,,,,,,,,,,0,,,78,0
106560,note_on,0,0,1,,,,,,,,,,,,,,,0,,,85,0
106560,note_on,0,0,1,,,,,,,,,,,,,,,0,,,81,55
106609,control_change,49,0,2,,,,,,,,,,,,,,,0,64,127,,
106720,note_on,160,0,1,,,,,,,,,,,,,,,0,,,78,32
106720,note_on,0,0,1,,,,,,,,,,,,,,,0,,,73,27
106800,note_on,191,0,2,,,,,,,,,,,,,,,0,,,54,0
106880,note_on,0,0,1,,,,,,,,,,,,,,,0,,,73,27
106880,note_on,0,0,1,,,,,,,,,,,,,,,0,,,78,0
106880,note_on,160,0,1,,,,,,,,,,,,,,,0,,,73,0
106880,note_on,0,0,1,,,,,,,,,,,,,,,0,,,78,32
107040,note_on,0,0,1,,,,,,,,,,,,,,,0,,,73,0
107040,note_on,160,0,1,,,,,,,,,,,,,,,0,,,78,0
107040,note_on,0,0,1,,,,,,,,,,,,,,,0,,,85,56
107040,note_on,240,0,2,,,,,,,,,,,,,,,0,,,54,34
107040,note_on,0,0,1,,,,,,,,,,,,,,,0,,,81,0
107068,control_change,28,0,2,,,,,,,,,,,,,,,0,64,0,,
107132,control_change,64,0,2,,,,,,,,,,,,,,,0,64,127,,
107200,note_on,160,0,1,,,,,,,,,,,,,,,0,,,73,27
107200,note_on,0,0,1,,,,,,,,,,,,,,,0,,,78,32
107360,note_on,0,0,1,,,,,,,,,,,,,,,0,,,78,32
107360,note_on,0,0,1,,,,,,,,,,,,,,,0,,,73,27
107360,note_on,160,0,1,,,,,,,,,,,,,,,0,,,78,0
107360,note_on,0,0,1,,,,,,,,,,,,,,,0,,,73,0
107520,set_tempo,1200,1,0,,,,,,,,,,,,705882,,,,,,,
107520,note_on,388,0,2,,,,,,,,,,,,,,,0,,,54,0
107520,control_change,0,0,2,,,,,,,,,,,,,,,0,64,0,,
107520,control_change,0,0,2,,,,,,,,,,,,,,,0,64,0,,
107520,note_on,0,0,2,,,,,,,,,,,,,,,0,,,54,41
107520,note_on,0,0,1,,,,,,,,,,,,,,,0,,,78,0
107520,note_on,0,0,1,,,,,,,,,,,,,,,0,,,73,56
107520,note_on,0,0,1,,,,,,,,,,,,,,,0,,,85,0
107520,note_on,160,0,1,,,,,,,,,,,,,,,0,,,73,0
107576,control_change,56,0,2,,,,,,,,,,,,,,,0,64,127,,
107680,note_on,160,0,1,,,,,,,,,,,,,,,0,,,69,32
107680,note_on,0,0,1,,,,,,,,,,,,,,,0,,,66,27
107840,note_on,0,0,1,,,,,,,,,,,,,,,0,,,69,0
107840,note_on,0,0,1,,,,,,,,,,,,,,,0,,,66,27
107840,note_on,160,0,1,,,,,,,,,,,,,,,0,,,66,0
107840,note_on,0,0,1,,,,,,,,,,,,,,,0,,,69,32
108000,note_on,0,0,1,,,,,,,,,,,,,,,0,,,73,0
108000,note_on,0,0,1,,,,,,,,,,,,,,,0,,,77,56
108000,note_on,0,0,1,,,,,,,,,,,,,,,0,,,69,0
108000,note_on,0,0,2,,,,,,,,,,,,,,,0,,,56,42
108000,note_on,424,0,2,,,,,,,,,,,,,,,0,,,54,0
108000,note_on,160,0,1,,,,,,,,,,,,,,,0,,,66,0
108000,set_tempo,480,1,0,,,,,,,,,,,,693642,,,,,,,
108029,control_change,29,0,2,,,,,,,,,,,,,,,0,64,0,,
108041,control_change,12,0,2,,,,,,,,,,,,,,,0,64,127,,
108160,note_on,0,0,1,,,,,,,,,,,,,,,0,,,71,33
108160,note_on,0,0,1,,,,,,,,,,,,,,,0,,,65,27
108160,note_on,160,0,1,,,,,,,,,,,,,,,0,,,73,33
108240,set_tempo,240,1,0,,,,,,,,,,,,714286,,,,,,,
108320,note_on,0,0,1,,,,,,,,,,,,,,,0,,,71,34
108320,note_on,0,0,1,,,,,,,,,,,,,,,0,,,65,27
108320,note_on,0,0,1,,,,,,,,,,,,,,,0,,,73,34
108320,note_on,0,0,1,,,,,,,,,,,,,,,0,,,73,0
108320,note_on,160,0,1,,,,,,,,,,,,,,,0,,,71,0
108320,note_on,0,0,1,,,,,,,,,,,,,,,0,,,65,0
108466,control_change,425,0,2,,,,,,,,,,,,,,,0,64,0,,
108480,note_on,0,0,1,,,,,,,,,,,,,,,0,,,78,58
108480,note_on,0,0,1,,,,,,,,,,,,,,,0,,,65,0
108480,note_on,0,0,1,,,,,,,,,,,,,,,0,,,73,0
108480,note_on,0,0,1,,,,,,,,,,,,,,,0,,,77,0
108480,note_on,14,0,2,,,,,,,,,,,,,,,0,,,56,0
108480,note_on,0,0,2,,,,,,,,,,,,,,,0,,,57,47
108480,note_on,160,0,1,,,,,,,,,,,,,,,0,,,71,0
108480,set_tempo,240,1,0,,,,,,,,,,,,693642,,,,,,,
108529,control_change,49,0,2,,,,,,,,,,,,,,,0,64,127,,
108640,note_on,0,0,1,,,,,,,,,,,,,,,0,,,66,28
108640,note_on,160,0,1,,,,,,,,,,,,,,,0,,,69,34
108640,note_on,0,0,1,,,,,,,,,,,,,,,0,,,73,34
108800,note_on,0,0,1,,,,,,,,,,,,,,,0,,,73,35
108800,note_on,0,0,1,,,,,,,,,,,,,,,0,,,66,29
108800,note_on,160,0,1,,,,,,,,,,,,,,,0,,,66,0
108800,note_on,0,0,1,,,,,,,,,,,,,,,0,,,73,0
108800,note_on,0,0,1,,,,,,,,,,,,,,,0,,,69,0
108800,note_on,0,0,1,,,,,,,,,,,,,,,0,,,69,35
108960,note_on,160,0,1,,,,,,,,,,,,,,,0,,,66,0
108960,note_on,0,0,1,,,,,,,,,,,,,,,0,,,78,0
108960,note_on,0,0,1,,,,,,,,,,,,,,,0,,,69,0
108960,note_on,0,0,1,,,,,,,,,,,,,,,0,,,73,0
108960,note_on,431,0,2,,,,,,,,,,,,,,,0,,,57,0
108960,note_on,0,0,2,,,,,,,,,,,,,,,0,,,52,31
108960,set_tempo,480,1,0,,,,,,,,,,,,718563,,,,,,,
108960,note_on,0,0,2,,,,,,,,,,,,,,,0,,,59,37
108960,note_on,0,0,1,,,,,,,,,,,,,,,0,,,80,62
109001,control_change,41,0,2,,,,,,,,,,,,,,,0,64,0,,
109052,control_change,51,0,2,,,,,,,,,,,,,,,0,64,127,,
109120,note_on,0,0,1,,,,,,,,,,,,,,,0,,,76,36
109120,note_on,0,0,1,,,,,,,,,,,,,,,0,,,68,29
109120,note_on,160,0,1,,,,,,,,,,,,,,,0,,,74,36
109280,note_on,160,0,1,,,,,,,,,,,,,,,0,,,68,0
109280,note_on,0,0,1,,,,,,,,,,,,,,,0,,,76,0
109280,note_on,0,0,1,,,,,,,,,,,,,,,0,,,74,0
109280,note_on,0,0,1,,,,,,,,,,,,,,,0,,,74,36
109280,note_on,0,0,1,,,,,,,,,,,,,,,0,,,76,36
109280,note_on,0,0,1,,,,,,,,,,,,,,,0,,,68,29
109440,note_on,0,0,2,,,,,,,,,,,,,,,0,,,61,47
109440,note_on,0,0,1,,,,,,,,,,,,,,,0,,,76,0
109440,note_on,0,0,1,,,,,,,,,,,,,,,0,,,80,0
109440,note_on,0,0,1,,,,,,,,,,,,,,,0,,,74,0
109440,note_on,0,0,2,,,,,,,,,,,,,,,0,,,57,39
109440,note_on,0,0,1,,,,,,,,,,,,,,,0,,,81,61
109440,note_on,0,0,2,,,,,,,,,,,,,,,0,,,52,0
109440,control_change,0,0,2,,,,,,,,,,,,,,,0,64,0,,
109440,control_change,0,0,2,,,,,,,,,,,,,,,0,64,0,,
109440,note_on,160,0,1,,,,,,,,,,,,,,,0,,,68,0
109440,set_tempo,480,1,0,,,,,,,,,,,,705882,,,,,,,
109440,note_on,388,0,2,,,,,,,,,,,,,,,0,,,59,0
109496,control_change,56,0,2,,,,,,,,,,,,,,,0,64,127,,
109600,note_on,160,0,1,,,,,,,,,,,,,,,0,,,73,30
109600,note_on,0,0,1,,,,,,,,,,,,,,,0,,,69,30
109600,note_on,0,0,1,,,,,,,,,,,,,,,0,,,76,36
109760,note_on,160,0,1,,,,,,,,,,,,,,,0,,,76,0
109760,note_on,0,0,1,,,,,,,,,,,,,,,0,,,69,0
109760,note_on,0,0,1,,,,,,,,,,,,,,,0,,,73,0
109760,note_on,0,0,1,,,,,,,,,,,,,,,0,,,73,29
109760,note_on,0,0,1,,,,,,,,,,,,,,,0,,,76,36
109760,note_on,0,0,1,,,,,,,,,,,,,,,0,,,69,29
109920,note_on,424,0,2,,,,,,,,,,,,,,,0,,,61,0
109920,note_on,0,0,2,,,,,,,,,,,,,,,0,,,56,38
109920,note_on,0,0,2,,,,,,,,,,,,,,,0,,,61,45
109920,note_on,0,0,1,,,,,,,,,,,,,,,0,,,83,60
109920,note_on,0,0,1,,,,,,,,,,,,,,,0,,,76,0
109920,note_on,0,0,1,,,,,,,,,,,,,,,0,,,73,0
109920,note_on,0,0,1,,,,,,,,,,,,,,,0,,,81,0
109920,note_on,0,0,2,,,,,,,,,,,,,,,0,,,57,0
109920,note_on,160,0,1,,,,,,,,,,,,,,,0,,,69,0
109949,control_change,29,0,2,,,,,,,,,,,,,,,0,64,0,,
109961,control_change,12,0,2,,,,,,,,,,,,,,,0,64,127,,
110080,note_on,160,0,1,,,,,,,,,,,,,,,0,,,71,28
110080,note_on,0,0,1,,,,,,,,,,,,,,,0,,,77,35
110080,note_on,0,0,1,,,,,,,,,,,,,,,0,,,73,35
110160,set_tempo,720,1,0,,,,,,,,,,,,738643,,,,,,,
110240,note_on,0,0,1,,,,,,,,,,,,,,,0,,,71,0
110240,note_on,160,0,1,,,,,,,,,,,,,,,0,,,73,0
110240,note_on,0,0,1,,,,,,,,,,,,,,,0,,,73,34
110240,note_on,0,0,1,,,,,,,,,,,,,,,0,,,77,34
110240,note_on,0,0,1,,,,,,,,,,,,,,,0,,,71,28
110240,note_on,0,0,1,,,,,,,,,,,,,,,0,,,77,0
110386,control_change,425,0,2,,,,,,,,,,,,,,,0,64,0,,
110400,note_on,160,0,1,,,,,,,,,,,,,,,0,,,73,0
110400,note_on,0,0,1,,,,,,,,,,,,,,,0,,,71,0
110400,note_on,0,0,1,,,,,,,,,,,,,,,0,,,77,0
110400,note_on,0,0,1,,,,,,,,,,,,,,,0,,,81,57
110400,note_on,14,0,2,,,,,,,,,,,,,,,0,,,56,0
110400,note_on,0,0,1,,,,,,,,,,,,,,,0,,,83,0
110400,note_on,0,0,2,,,,,,,,,,,,,,,0,,,61,0
110400,note_on,0,0,2,,,,,,,,,,,,,,,0,,,61,46
110400,note_on,0,0,2,,,,,,,,,,,,,,,0,,,54,38
110449,control_change,49,0,2,,,,,,,,,,,,,,,0,64,127,,
110560,note_on,160,0,1,,,,,,,,,,,,,,,0,,,78,33
110560,note_on,0,0,1,,,,,,,,,,,,,,,0,,,73,33
110560,note_on,0,0,1,,,,,,,,,,,,,,,0,,,66,27
110720,note_on,0,0,1,,,,,,,,,,,,,,,0,,,66,27
110720,note_on,0,0,1,,,,,,,,,,,,,,,0,,,78,0
110720,note_on,0,0,1,,,,,,,,,,,,,,,0,,,73,0
110720,note_on,160,0,1,,,,,,,,,,,,,,,0,,,66,0
110720,note_on,0,0,1,,,,,,,,,,,,,,,0,,,73,32
110720,note_on,0,0,1,,,,,,,,,,,,,,,0,,,78,32
110880,note_on,160,0,1,,,,,,,,,,,,,,,0,,,73,0
110880,note_on,0,0,1,,,,,,,,,,,,,,,0,,,66,0
110880,note_on,0,0,1,,,,,,,,,,,,,,,0,,,78,0
110880,note_on,0,0,1,,,,,,,,,,,,,,,0,,,80,56
110880,set_tempo,720,1,0,,,,,,,,,,,,800000,,,,,,,
110880,note_on,431,0,2,,,,,,,,,,,,,,,0,,,61,0
110880,note_on,0,0,2,,,,,,,,,,,,,,,0,,,54,0
110880,note_on,0,0,2,,,,,,,,,,,,,,,0,,,52,33
110880,note_on,0,0,2,,,,,,,,,,,,,,,0,,,62,39
110880,note_on,0,0,1,,,,,,,,,,,,,,,0,,,81,0
110921,control_change,41,0,2,,,,,,,,,,,,,,,0,64,0,,
110972,control_change,51,0,2,,,,,,,,,,,,,,,0,64,127,,
111040,note_on,0,0,1,,,,,,,,,,,,,,,0,,,68,27
111040,note_on,160,0,1,,,,,,,,,,,,,,,0,,,76,32
111040,note_on,0,0,1,,,,,,,,,,,,,,,0,,,71,32
111200,note_on,0,0,1,,,,,,,,,,,,,,,0,,,71,32
111200,note_on,160,0,1,,,,,,,,,,,,,,,0,,,71,0
111200,note_on,0,0,1,,,,,,,,,,,,,,,0,,,68,0
111200,note_on,0,0,1,,,,,,,,,,,,,,,0,,,76,0
111200,note_on,0,0,1,,,,,,,,,,,,,,,0,,,76,32
111200,note_on,0,0,1,,,,,,,,,,,,,,,0,,,68,27
111360,note_on,0,0,1,,,,,,,,,,,,,,,0,,,80,0
111360,set_tempo,480,1,0,,,,,,,,,,,,736196,,,,,,,
111360,note_on,388,0,2,,,,,,,,,,,,,,,0,,,62,0
111360,note_on,0,0,2,,,,,,,,,,,,,,,0,,,52,0
111360,note_on,0,0,2,,,,,,,,,,,,,,,0,,,52,33
111360,note_on,0,0,2,,,,,,,,,,,,,,,0,,,62,39
111360,control_change,0,0,2,,,,,,,,,,,,,,,0,64,0,,
111360,note_on,0,0,1,,,,,,,,,,,,,,,0,,,80,54
111360,note_on,0,0,1,,,,,,,,,,,,,,,0,,,68,0
111360,note_on,0,0,1,,,,,,,,,,,,,,,0,,,76,0
111360,note_on,160,0,1,,,,,,,,,,,,,,,0,,,71,0
111413,control_change,53,0,2,,,,,,,,,,,,,,,0,64,127,,
111520,note_on,0,0,1,,,,,,,,,,,,,,,0,,,71,26
111520,note_on,160,0,1,,,,,,,,,,,,,,,0,,,76,31
111520,note_on,0,0,1,,,,,,,,,,,,,,,0,,,68,26
111680,note_on,0,0,1,,,,,,,,,,,,,,,0,,,76,0
111680,note_on,160,0,1,,,,,,,,,,,,,,,0,,,68,0
111680,note_on,0,0,1,,,,,,,,,,,,,,,0,,,71,26
111680,note_on,0,0,1,,,,,,,,,,,,,,,0,,,68,26
111680,note_on,0,0,1,,,,,,,,,,,,,,,0,,,76,31
111680,note_on,0,0,1,,,,,,,,,,,,,,,0,,,71,0
111840,note_on,160,0,1,,,,,,,,,,,,,,,0,,,76,0
111840,note_on,0,0,1,,,,,,,,,,,,,,,0,,,68,0
111840,note_on,0,0,1,,,,,,,,,,,,,,,0,,,71,0
111840,note_on,0,0,1,,,,,,,,,,,,,,,0,,,68,26
111840,note_on,0,0,1,,,,,,,,,,,,,,,0,,,76,31
111840,note_on,0,0,1,,,,,,,,,,,,,,,0,,,71,26
112000,note_on,0,0,1,,,,,,,,,,,,,,,0,,,71,0
112000,note_on,0,0,1,,,,,,,,,,,,,,,0,,,71,26
112000,note_on,0,0,1,,,,,,,,,,,,,,,0,,,68,26
112000,note_on,0,0,1,,,,,,,,,,,,,,,0,,,76,31
112000,note_on,0,0,1,,,,,,,,,,,,,,,0,,,68,0
112000,note_on,160,0,1,,,,,,,,,,,,,,,0,,,76,0
112160,note_on,160,0,1,,,,,,,,,,,,,,,0,,,76,0
112160,note_on,0,0,1,,,,,,,,,,,,,,,0,,,68,0
112160,note_on,0,0,1,,,,,,,,,,,,,,,0,,,71,27
112160,note_on,0,0,1,,,,,,,,,,,,,,,0,,,68,27
112160,note_on,0,0,1,,,,,,,,,,,,,,,0,,,76,32
112160,note_on,0,0,1,,,,,,,,,,,,,,,0,,,71,0
112320,note_on,0,0,2,,,,,,,,,,,,,,,0,,,61,37
112320,note_on,0,0,1,,,,,,,,,,,,,,,0,,,73,41
112320,note_on,0,0,1,,,,,,,,,,,,,,,0,,,68,0
112320,note_on,0,0,1,,,,,,,,,,,,,,,0,,,71,0
112320,note_on,0,0,1,,,,,,,,,,,,,,,0,,,80,0
112320,note_on,160,0,1,,,,,,,,,,,,,,,0,,,76,0
112320,note_on,0,0,1,,,,,,,,,,,,,,,0,,,81,49
112320,note_on,907,0,2,,,,,,,,,,,,,,,0,,,62,0
112320,note_on,0,0,2,,,,,,,,,,,,,,,0,,,52,0
112320,note_on,0,0,1,,,,,,,,,,,,,,,0,,,76,41
112320,note_on,0,0,2,,,,,,,,,,,,,,,0,,,57,37
112320,note_on,0,0,1,,,,,,,,,,,,,,,0,,,69,41
112345,control_change,25,0,2,,,,,,,,,,,,,,,0,64,0,,
112373,control_change,28,0,2,,,,,,,,,,,,,,,0,64,127,,
112480,note_on,107,0,2,,,,,,,,,,,,,,,0,,,57,0
112480,note_on,0,0,2,,,,,,,,,,,,,,,0,,,61,0
112480,note_on,0,0,2,,,,,,,,,,,,,,,0,,,64,29
112560,note_on,0,0,1,,,,,,,,,,,,,,,0,,,76,0
112560,note_on,0,0,1,,,,,,,,,,,,,,,0,,,73,0
112560,note_on,240,0,1,,,,,,,,,,,,,,,0,,,81,0
112560,note_on,0,0,1,,,,,,,,,,,,,,,0,,,69,0
112640,note_on,160,0,2,,,,,,,,,,,,,,,0,,,64,0
112640,note_on,0,0,2,,,,,,,,,,,,,,,0,,,64,29
112800,note_on,160,0,2,,,,,,,,,,,,,,,0,,,64,0
112800,note_on,240,0,1,,,,,,,,,,,,,,,0,,,76,52
112800,note_on,0,0,2,,,,,,,,,,,,,,,0,,,64,33
112800,set_tempo,1440,1,0,,,,,,,,,,,,727802,,,,,,,
112814,control_change,14,0,2,,,,,,,,,,,,,,,0,64,0,,
112860,control_change,46,0,2,,,,,,,,,,,,,,,0,64,127,,
112960,note_on,0,0,2,,,,,,,,,,,,,,,0,,,64,29
112960,note_on,100,0,2,,,,,,,,,,,,,,,0,,,64,0
113120,note_on,160,0,2,,,,,,,,,,,,,,,0,,,64,0
113120,note_on,0,0,2,,,,,,,,,,,,,,,0,,,64,29
113240,set_tempo,440,1,0,,,,,,,,,,,,702658,,,,,,,
113280,note_on,160,0,2,,,,,,,,,,,,,,,0,,,64,0
113280,note_on,0,0,2,,,,,,,,,,,,,,,0,,,58,33
113280,note_on,0,0,1,,,,,,,,,,,,,,,0,,,76,54
113280,note_on,480,0,1,,,,,,,,,,,,,,,0,,,76,0
113280,control_change,0,0,2,,,,,,,,,,,,,,,0,64,0,,
113280,set_tempo,40,1,0,,,,,,,,,,,,672570,,,,,,,
113314,control_change,34,0,2,,,,,,,,,,,,,,,0,64,127,,
113400,note_on,86,0,2,,,,,,,,,,,,,,,0,,,58,0
113400,note_on,0,0,2,,,,,,,,,,,,,,,0,,,64,27
113520,set_tempo,240,1,0,,,,,,,,,,,,668077,,,,,,,
113520,note_on,120,0,2,,,,,,,,,,,,,,,0,,,64,0
113520,note_on,0,0,2,,,,,,,,,,,,,,,0,,,61,27
113640,note_on,120,0,2,,,,,,,,,,,,,,,0,,,61,0
113640,note_on,0,0,2,,,,,,,,,,,,,,,0,,,64,27
113760,note_on,0,0,2,,,,,,,,,,,,,,,0,,,58,33
113760,set_tempo,240,1,0,,,,,,,,,,,,663497,,,,,,,
113760,note_on,120,0,2,,,,,,,,,,,,,,,0,,,64,0
113880,note_on,120,0,2,,,,,,,,,,,,,,,0,,,58,0
113880,note_on,0,0,2,,,,,,,,,,,,,,,0,,,64,28
114000,note_on,720,0,1,,,,,,,,,,,,,,,0,,,76,0
114000,note_on,120,0,2,,,,,,,,,,,,,,,0,,,64,0
114000,note_on,0,0,2,,,,,,,,,,,,,,,0,,,61,28
114000,note_on,0,0,1,,,,,,,,,,,,,,,0,,,74,51
114120,note_on,120,0,2,,,,,,,,,,,,,,,0,,,61,0
114120,note_on,0,0,2,,,,,,,,,,,,,,,0,,,64,29
114240,note_on,0,0,1,,,,,,,,,,,,,,,0,,,73,51
114240,note_on,120,0,2,,,,,,,,,,,,,,,0,,,64,0
114240,note_on,240,0,1,,,,,,,,,,,,,,,0,,,74,0
114240,note_on,0,0,2,,,,,,,,,,,,,,,0,,,58,33
114274,control_change,34,0,2,,,,,,,,,,,,,,,0,64,0,,
114337,control_change,63,0,2,,,,,,,,,,,,,,,0,64,127,,
114360,note_on,23,0,2,,,,,,,,,,,,,,,0,,,58,0
114360,note_on,0,0,2,,,,,,,,,,,,,,,0,,,64,29
114480,note_on,240,0,1,,,,,,,,,,,,,,,0,,,73,0
114480,note_on,120,0,2,,,,,,,,,,,,,,,0,,,64,0
114480,note_on,0,0,2,,,,,,,,,,,,,,,0,,,61,29
114600,note_on,0,0,2,,,,,,,,,,,,,,,0,,,64,29
114600,note_on,120,0,2,,,,,,,,,,,,,,,0,,,61,0
114720,note_on,120,0,2,,,,,,,,,,,,,,,0,,,64,0
114720,note_on,0,0,2,,,,,,,,,,,,,,,0,,,57,33
114720,control_change,0,0,2,,,,,,,,,,,,,,,0,64,0,,
114720,note_on,240,0,1,,,,,,,,,,,,,,,0,,,73,52
114720,set_tempo,960,1,0,,,,,,,,,,,,668077,,,,,,,
114766,control_change,46,0,2,,,,,,,,,,,,,,,0,64,127,,
114840,note_on,74,0,2,,,,,,,,,,,,,,,0,,,57,0
114840,note_on,0,0,2,,,,,,,,,,,,,,,0,,,64,29
114960,note_on,0,0,2,,,,,,,,,,,,,,,0,,,61,29
114960,note_on,120,0,2,,,,,,,,,,,,,,,0,,,64,0
115080,note_on,0,0,2,,,,,,,,,,,,,,,0,,,64,29
115080,note_on,120,0,2,,,,,,,,,,,,,,,0,,,61,0
115200,note_on,480,0,1,,,,,,,,,,,,,,,0,,,73,0
115200,note_on,0,0,1,,,,,,,,,,,,,,,0,,,73,54
115200,note_on,120,0,2,,,,,,,,,,,,,,,0,,,64,0
115200,control_change,0,0,2,,,,,,,,,,,,,,,0,64,0,,
115200,set_tempo,480,1,0,,,,,,,,,,,,658906,,,,,,,
115200,note_on,0,0,2,,,,,,,,,,,,,,,0,,,55,33
115234,control_change,34,0,2,,,,,,,,,,,,,,,0,64,127,,
115320,note_on,0,0,2,,,,,,,,,,,,,,,0,,,64,27
115320,note_on,86,0,2,,,,,,,,,,,,,,,0,,,55,0
115440,note_on,0,0,2,,,,,,,,,,,,,,,0,,,61,27
115440,note_on,120,0,2,,,,,,,,,,,,,,,0,,,64,0
115560,note_on,0,0,2,,,,,,,,,,,,,,,0,,,64,27
115560,note_on,120,0,2,,,,,,,,,,,,,,,0,,,61,0
115680,note_on,0,0,2,,,,,,,,,,,,,,,0,,,55,33
115680,note_on,120,0,2,,,,,,,,,,,,,,,0,,,64,0
115800,note_on,0,0,2,,,,,,,,,,,,,,,0,,,64,28
115800,note_on,120,0,2,,,,,,,,,,,,,,,0,,,55,0
115920,note_on,120,0,2,,,,,,,,,,,,,,,0,,,64,0
115920,note_on,0,0,2,,,,,,,,,,,,,,,0,,,61,28
115920,note_on,0,0,1,,,,,,,,,,,,,,,0,,,71,51
115920,note_on,720,0,1,,,,,,,,,,,,,,,0,,,73,0
115920,set_tempo,720,1,0,,,,,,,,,,,,668077,,,,,,,
116040,note_on,0,0,2,,,,,,,,,,,,,,,0,,,64,29
116040,note_on,120,0,2,,,,,,,,,,,,,,,0,,,61,0
116160,note_on,0,0,2,,,,,,,,,,,,,,,0,,,55,33
116160,note_on,120,0,2,,,,,,,,,,,,,,,0,,,64,0
116160,note_on,0,0,1,,,,,,,,,,,,,,,0,,,70,51
116160,note_on,240,0,1,,,,,,,,,,,,,,,0,,,71,0
116194,control_change,34,0,2,,,,,,,,,,,,,,,0,64,0,,
116257,control_change,63,0,2,,,,,,,,,,,,,,,0,64,127,,
116280,note_on,0,0,2,,,,,,,,,,,,,,,0,,,64,29
116280,note_on,23,0,2,,,,,,,,,,,,,,,0,,,55,0
116400,note_on,120,0,2,,,,,,,,,,,,,,,0,,,64,0
116400,note_on,0,0,2,,,,,,,,,,,,,,,0,,,61,29
116400,note_on,240,0,1,,,,,,,,,,,,,,,0,,,70,0
116520,note_on,120,0,2,,,,,,,,,,,,,,,0,,,61,0
116520,note_on,0,0,2,,,,,,,,,,,,,,,0,,,64,29
116640,note_on,240,0,1,,,,,,,,,,,,,,,0,,,70,52
116640,set_tempo,720,1,0,,,,,,,,,,,,652032,,,,,,,
116640,note_on,0,0,2,,,,,,,,,,,,,,,0,,,54,33
116640,note_on,0,0,1,,,,,,,,,,,,,,,0,,,66,52
116640,note_on,120,0,2,,,,,,,,,,,,,,,0,,,64,0
116640,control_change,0,0,2,,,,,,,,,,,,,,,0,64,0,,
116686,control_change,46,0,2,,,,,,,,,,,,,,,0,64,127,,
116760,note_on,74,0,2,,,,,,,,,,,,,,,0,,,54,0
116760,note_on,0,0,2,,,,,,,,,,,,,,,0,,,64,29
116880,note_on,120,0,2,,,,,,,,,,,,,,,0,,,64,0
116880,note_on,0,0,2,,,,,,,,,,,,,,,0,,,61,29
117000,note_on,120,0,2,,,,,,,,,,,,,,,0,,,61,0
117000,note_on,0,0,2,,,,,,,,,,,,,,,0,,,64,29
117080,set_tempo,440,1,0,,,,,,,,,,,,641026,,,,,,,
117120,note_on,0,0,1,,,,,,,,,,,,,,,0,,,70,0
117120,note_on,0,0,2,,,,,,,,,,,,,,,0,,,54,33
117120,control_change,0,0,2,,,,,,,,,,,,,,,0,64,0,,
117120,note_on,0,0,1,,,,,,,,,,,,,,,0,,,70,52
117120,note_on,120,0,2,,,,,,,,,,,,,,,0,,,64,0
117120,note_on,480,0,1,,,,,,,,,,,,,,,0,,,66,0
117120,note_on,0,0,1,,,,,,,,,,,,,,,0,,,66,44
117160,control_change,40,0,2,,,,,,,,,,,,,,,0,64,127,,
117240,note_on,80,0,2,,,,,,,,,,,,,,,0,,,54,0
117240,set_tempo,160,1,0,,,,,,,,,,,,637416,,,,,,,
117240,note_on,0,0,2,,,,,,,,,,,,,,,0,,,64,28
117360,set_tempo,120,1,0,,,,,,,,,,,,633914,,,,,,,
117360,note_on,120,0,2,,,,,,,,,,,,,,,0,,,64,0
117360,note_on,0,0,2,,,,,,,,,,,,,,,0,,,61,28
117480,note_on,0,0,2,,,,,,,,,,,,,,,0,,,64,28
117480,set_tempo,120,1,0,,,,,,,,,,,,630451,,,,,,,
117480,note_on,120,0,2,,,,,,,,,,,,,,,0,,,61,0
117594,control_change,114,0,2,,,,,,,,,,,,,,,0,64,0,,
117600,note_on,0,0,1,,,,,,,,,,,,,,,0,,,66,47
117600,note_on,0,0,1,,,,,,,,,,,,,,,0,,,71,55
117600,note_on,480,0,1,,,,,,,,,,,,,,,0,,,66,0
117600,note_on,0,0,1,,,,,,,,,,,,,,,0,,,70,0
117600,note_on,6,0,2,,,,,,,,,,,,,,,0,,,64,0
117600,note_on,0,0,2,,,,,,,,,,,,,,,0,,,54,34
117634,control_change,34,0,2,,,,,,,,,,,,,,,0,64,127,,
117640,set_tempo,160,1,0,,,,,,,,,,,,626894,,,,,,,
117720,note_on,86,0,2,,,,,,,,,,,,,,,0,,,54,0
117720,note_on,0,0,2,,,,,,,,,,,,,,,0,,,62,28
117760,set_tempo,120,1,0,,,,,,,,,,,,623506,,,,,,,
117840,note_on,120,0,2,,,,,,,,,,,,,,,0,,,62,0
117840,note_on,0,0,2,,,,,,,,,,,,,,,0,,,59,28
117880,set_tempo,120,1,0,,,,,,,,,,,,620155,,,,,,,
117960,note_on,120,0,2,,,,,,,,,,,,,,,0,,,59,0
117960,note_on,0,0,2,,,,,,,,,,,,,,,0,,,62,29
118000,set_tempo,120,1,0,,,,,,,,,,,,616776,,,,,,,
118057,control_change,97,0,2,,,,,,,,,,,,,,,0,64,0,,
118080,note_on,0,0,1,,,,,,,,,,,,,,,0,,,73,56
118080,note_on,0,0,1,,,,,,,,,,,,,,,0,,,70,47
118080,note_on,0,0,1,,,,,,,,,,,,,,,0,,,66,0
118080,note_on,480,0,1,,,,,,,,,,,,,,,0,,,71,0
118080,note_on,23,0,2,,,,,,,,,,,,,,,0,,,62,0
118080,note_on,0,0,2,,,,,,,,,,,,,,,0,,,54,35
118080,note_on,0,0,1,,,,,,,,,,,,,,,0,,,66,47
118103,control_change,23,0,2,,,,,,,,,,,,,,,0,64,127,,
118160,set_tempo,160,1,0,,,,,,,,,,,,613434,,,,,,,
118200,note_on,97,0,2,,,,,,,,,,,,,,,0,,,54,0
118200,note_on,0,0,2,,,,,,,,,,,,,,,0,,,61,29
118280,set_tempo,120,1,0,,,,,,,,,,,,610190,,,,,,,
118320,note_on,120,0,2,,,,,,,,,,,,,,,0,,,61,0
118320,note_on,0,0,2,,,,,,,,,,,,,,,0,,,58,29
118400,set_tempo,120,1,0,,,,,,,,,,,,606919,,,,,,,
118440,note_on,120,0,2,,,,,,,,,,,,,,,0,,,58,0
118440,note_on,0,0,2,,,,,,,,,,,,,,,0,,,61,29
118520,set_tempo,120,1,0,,,,,,,,,,,,603743,,,,,,,
118560,note_on,0,0,2,,,,,,,,,,,,,,,0,,,54,36
118560,note_on,120,0,2,,,,,,,,,,,,,,,0,,,61,0
118560,set_tempo,40,1,0,,,,,,,,,,,,603743,,,,,,,
118560,note_on,0,0,1,,,,,,,,,,,,,,,0,,,74,57
118560,note_on,0,0,1,,,,,,,,,,,,,,,0,,,71,48
118560,note_on,0,0,1,,,,,,,,,,,,,,,0,,,66,48
118560,note_on,0,0,1,,,,,,,,,,,,,,,0,,,66,0
118560,note_on,0,0,1,,,,,,,,,,,,,,,0,,,70,0
118560,note_on,480,0,1,,,,,,,,,,,,,,,0,,,73,0
118566,control_change,6,0,2,,,,,,,,,,,,,,,0,64,0,,
118600,control_change,34,0,2,,,,,,,,,,,,,,,0,64,127,,
118680,note_on,80,0,2,,,,,,,,,,,,,,,0,,,54,0
118680,note_on,0,0,2,,,,,,,,,,,,,,,0,,,62,31
118720,set_tempo,160,1,0,,,,,,,,,,,,606919,,,,,,,
118800,note_on,120,0,2,,,,,,,,,,,,,,,0,,,62,0
118800,note_on,0,0,2,,,,,,,,,,,,,,,0,,,59,31
118880,set_tempo,160,1,0,,,,,,,,,,,,610190,,,,,,,
118920,note_on,120,0,2,,,,,,,,,,,,,,,0,,,59,0
118920,note_on,0,0,2,,,,,,,,,,,,,,,0,,,62,31
119040,note_on,0,0,1,,,,,,,,,,,,,,,0,,,71,0
119040,set_tempo,160,1,0,,,,,,,,,,,,613434,,,,,,,
119040,note_on,0,0,1,,,,,,,,,,,,,,,0,,,66,0
119040,note_on,0,0,1,,,,,,,,,,,,,,,0,,,66,50
119040,note_on,0,0,1,,,,,,,,,,,,,,,0,,,76,59
119040,note_on,120,0,2,,,,,,,,,,,,,,,0,,,62,0
119040,note_on,0,0,2,,,,,,,,,,,,,,,0,,,54,37
119040,control_change,0,0,2,,,,,,,,,,,,,,,0,64,0,,
119040,note_on,480,0,1,,,,,,,,,,,,,,,0,,,74,0
119040,note_on,0,0,1,,,,,,,,,,,,,,,0,,,73,50
119086,control_change,46,0,2,,,,,,,,,,,,,,,0,64,127,,
119160,note_on,0,0,2,,,,,,,,,,,,,,,0,,,64,31
119160,note_on,74,0,2,,,,,,,,,,,,,,,0,,,54,0
119280,note_on,120,0,2,,,,,,,,,,,,,,,0,,,64,0
119280,note_on,0,0,2,,,,,,,,,,,,,,,0,,,61,32
119400,note_on,0,0,2,,,,,,,,,,,,,,,0,,,64,32
119400,note_on,120,0,2,,,,,,,,,,,,,,,0,,,61,0
119514,control_change,114,0,2,,,,,,,,,,,,,,,0,64,0,,
119520,set_tempo,480,1,0,,,,,,,,,,,,620155,,,,,,,
119520,note_on,6,0,2,,,,,,,,,,,,,,,0,,,64,0
119520,note_on,0,0,2,,,,,,,,,,,,,,,0,,,55,37
119520,note_on,0,0,1,,,,,,,,,,,,,,,0,,,76,60
119520,note_on,480,0,1,,,,,,,,,,,,,,,0,,,73,0
119520,note_on,0,0,1,,,,,,,,,,,,,,,0,,,76,0
119520,note_on,0,0,1,,,,,,,,,,,,,,,0,,,66,0
119520,note_on,0,0,1,,,,,,,,,,,,,,,0,,,73,51
119520,note_on,0,0,1,,,,,,,,,,,,,,,0,,,67,51
119554,control_change,34,0,2,,,,,,,,,,,,,,,0,64,127,,
119640,note_on,86,0,2,,,,,,,,,,,,,,,0,,,55,0
119640,note_on,0,0,2,,,,,,,,,,,,,,,0,,,64,31
119760,set_tempo,240,1,0,,,,,,,,,,,,637416,,,,,,,
119760,note_on,120,0,2,,,,,,,,,,,,,,,0,,,64,0
119760,note_on,0,0,2,,,,,,,,,,,,,,,0,,,61,31
119880,note_on,120,0,2,,,,,,,,,,,,,,,0,,,61,0
119880,note_on,0,0,2,,,,,,,,,,,,,,,0,,,64,31
119989,control_change,109,0,2,,,,,,,,,,,,,,,0,64,0,,
120000,note_on,11,0,2,,,,,,,,,,,,,,,0,,,64,0
120000,set_tempo,240,1,0,,,,,,,,,,,,650125,,,,,,,
120000,note_on,0,0,2,,,,,,,,,,,,,,,0,,,56,38
120000,note_on,480,0,1,,,,,,,,,,,,,,,0,,,76,0
120000,note_on,0,0,1,,,,,,,,,,,,,,,0,,,76,61
120000,note_on,0,0,1,,,,,,,,,,,,,,,0,,,68,52
120000,note_on,0,0,1,,,,,,,,,,,,,,,0,,,73,52
120000,note_on,0,0,1,,,,,,,,,,,,,,,0,,,73,0
120000,note_on,0,0,1,,,,,,,,,,,,,,,0,,,67,0
120029,control_change,29,0,2,,,,,,,,,,,,,,,0,64,127,,
120120,note_on,0,0,2,,,,,,,,,,,,,,,0,,,64,32
120120,note_on,91,0,2,,,,,,,,,,,,,,,0,,,56,0
120240,note_on,120,0,2,,,,,,,,,,,,,,,0,,,64,0
120240,note_on,0,0,2,,,,,,,,,,,,,,,0,,,61,32
120240,set_tempo,240,1,0,,,,,,,,,,,,654522,,,,,,,
120360,note_on,120,0,2,,,,,,,,,,,,,,,0,,,61,0
120360,note_on,0,0,2,,,,,,,,,,,,,,,0,,,64,33
120440,set_tempo,200,1,0,,,,,,,,,,,,658906,,,,,,,
120469,control_change,109,0,2,,,,,,,,,,,,,,,0,64,0,,
120480,note_on,0,0,1,,,,,,,,,,,,,,,0,,,68,0
120480,set_tempo,40,1,0,,,,,,,,,,,,668077,,,,,,,
120480,note_on,0,0,1,,,,,,,,,,,,,,,0,,,76,63
120480,note_on,11,0,2,,,,,,,,,,,,,,,0,,,64,0
120480,note_on,0,0,2,,,,,,,,,,,,,,,0,,,57,39
120480,note_on,480,0,1,,,,,,,,,,,,,,,0,,,76,0
120480,note_on,0,0,1,,,,,,,,,,,,,,,0,,,69,53
120480,note_on,0,0,1,,,,,,,,,,,,,,,0,,,73,0
120480,note_on,0,0,1,,,,,,,,,,,,,,,0,,,73,53
120509,control_change,29,0,2,,,,,,,,,,,,,,,0,64,127,,
120600,note_on,91,0,2,,,,,,,,,,,,,,,0,,,57,0
120600,note_on,0,0,2,,,,,,,,,,,,,,,0,,,64,32
120720,note_on,0,0,2,,,,,,,,,,,,,,,0,,,61,34
120720,note_on,120,0,2,,,,,,,,,,,,,,,0,,,64,0
120840,note_on,120,0,2,,,,,,,,,,,,,,,0,,,61,0
120840,note_on,0,0,2,,,,,,,,,,,,,,,0,,,64,34
120960,note_on,0,0,1,,,,,,,,,,,,,,,0,,,69,0
120960,note_on,0,0,1,,,,,,,,,,,,,,,0,,,76,59
120960,note_on,0,0,1,,,,,,,,,,,,,,,0,,,73,0
120960,note_on,0,0,2,,,,,,,,,,,,,,,0,,,57,33
120960,note_on,480,0,1,,,,,,,,,,,,,,,0,,,76,0
120960,control_change,0,0,2,,,,,,,,,,,,,,,0,64,0,,
120960,note_on,120,0,2,,,,,,,,,,,,,,,0,,,64,0
120960,set_tempo,480,1,0,,,,,,,,,,,,644676,,,,,,,
120960,control_change,0,0,2,,,,,,,,,,,,,,,0,64,0,,
120994,control_change,34,0,2,,,,,,,,,,,,,,,0,64,127,,
121080,note_on,86,0,2,,,,,,,,,,,,,,,0,,,57,0
121080,note_on,0,0,2,,,,,,,,,,,,,,,0,,,64,27
121200,note_on,0,0,2,,,,,,,,,,,,,,,0,,,61,27
121200,note_on,120,0,2,,,,,,,,,,,,,,,0,,,64,0
121320,note_on,120,0,2,,,,,,,,,,,,,,,0,,,61,0
121320,note_on,0,0,2,,,,,,,,,,,,,,,0,,,64,27
121440,set_tempo,480,1,0,,,,,,,,,,,,597015,,,,,,,
121440,note_on,120,0,2,,,,,,,,,,,,,,,0,,,64,0
121440,note_on,0,0,2,,,,,,,,,,,,,,,0,,,58,33
121560,note_on,0,0,1,,,,,,,,,,,,,,,0,,,77,51
121560,note_on,600,0,1,,,,,,,,,,,,,,,0,,,76,0
121560,note_on,120,0,2,,,,,,,,,,,,,,,0,,,58,0
121560,note_on,0,0,2,,,,,,,,,,,,,,,0,,,64,28
121680,note_on,0,0,1,,,,,,,,,,,,,,,0,,,76,53
121680,note_on,120,0,1,,,,,,,,,,,,,,,0,,,77,0
121680,set_tempo,240,1,0,,,,,,,,,,,,591133,,,,,,,
121680,note_on,0,0,2,,,,,,,,,,,,,,,0,,,61,28
121680,note_on,120,0,2,,,,,,,,,,,,,,,0,,,64,0
121800,note_on,0,0,1,,,,,,,,,,,,,,,0,,,74,51
121800,note_on,120,0,1,,,,,,,,,,,,,,,0,,,76,0
121800,note_on,0,0,2,,,,,,,,,,,,,,,0,,,64,29
121800,note_on,120,0,2,,,,,,,,,,,,,,,0,,,61,0
121920,set_tempo,240,1,0,,,,,,,,,,,,606061,,,,,,,
121920,note_on,0,0,1,,,,,,,,,,,,,,,0,,,73,56
121920,note_on,120,0,1,,,,,,,,,,,,,,,0,,,74,0
121920,note_on,0,0,2,,,,,,,,,,,,,,,0,,,58,33
121920,note_on,120,0,2,,,,,,,,,,,,,,,0,,,64,0
121954,control_change,34,0,2,,,,,,,,,,,,,,,0,64,0,,
122017,control_change,63,0,2,,,,,,,,,,,,,,,0,64,127,,
122040,note_on,23,0,2,,,,,,,,,,,,,,,0,,,58,0
122040,note_on,0,0,2,,,,,,,,,,,,,,,0,,,64,29
122160,note_on,120,0,2,,,,,,,,,,,,,,,0,,,64,0
122160,note_on,0,0,2,,,,,,,,,,,,,,,0,,,61,29
122160,set_tempo,240,1,0,,,,,,,,,,,,609137,,,,,,,
122160,note_on,240,0,1,,,,,,,,,,,,,,,0,,,73,0
122280,note_on,120,0,2,,,,,,,,,,,,,,,0,,,61,0
122280,note_on,0,0,2,,,,,,,,,,,,,,,0,,,64,29
122400,note_on,120,0,2,,,,,,,,,,,,,,,0,,,64,0
122400,note_on,240,0,1,,,,,,,,,,,,,,,0,,,73,57
122400,set_tempo,240,1,0,,,,,,,,,,,,657318,,,,,,,
122400,note_on,0,0,2,,,,,,,,,,,,,,,0,,,57,33
122400,control_change,0,0,2,,,,,,,,,,,,,,,0,64,0,,
122446,control_change,46,0,2,,,,,,,,,,,,,,,0,64,127,,
122520,note_on,74,0,2,,,,,,,,,,,,,,,0,,,57,0
122520,note_on,0,0,2,,,,,,,,,,,,,,,0,,,64,29
122640,note_on,0,0,2,,,,,,,,,,,,,,,0,,,61,29
122640,note_on,120,0,2,,,,,,,,,,,,,,,0,,,64,0
122760,note_on,120,0,2,,,,,,,,,,,,,,,0,,,61,0
122760,note_on,0,0,2,,,,,,,,,,,,,,,0,,,64,29
122880,note_on,480,0,1,,,,,,,,,,,,,,,0,,,73,0
122880,set_tempo,480,1,0,,,,,,,,,,,,641026,,,,,,,
122880,note_on,0,0,1,,,,,,,,,,,,,,,0,,,73,59
122880,note_on,120,0,2,,,,,,,,,,,,,,,0,,,64,0
122880,control_change,0,0,2,,,,,,,,,,,,,,,0,64,0,,
122880,note_on,0,0,2,,,,,,,,,,,,,,,0,,,55,33
122914,control_change,34,0,2,,,,,,,,,,,,,,,0,64,127,,
123000,note_on,86,0,2,,,,,,,,,,,,,,,0,,,55,0
123000,note_on,0,0,2,,,,,,,,,,,,,,,0,,,64,27
123120,note_on,0,0,2,,,,,,,,,,,,,,,0,,,61,27
123120,note_on,120,0,2,,,,,,,,,,,,,,,0,,,64,0
123240,note_on,120,0,2,,,,,,,,,,,,,,,0,,,61,0
123240,note_on,0,0,2,,,,,,,,,,,,,,,0,,,64,27
123360,note_on,120,0,2,,,,,,,,,,,,,,,0,,,64,0
123360,note_on,0,0,2,,,,,,,,,,,,,,,0,,,55,33
123360,set_tempo,480,1,0,,,,,,,,,,,,616776,,,,,,,
123480,note_on,120,0,2,,,,,,,,,,,,,,,0,,,55,0
123480,note_on,0,0,2,,,,,,,,,,,,,,,0,,,64,28
123480,note_on,600,0,1,,,,,,,,,,,,,,,0,,,73,0
123480,note_on,0,0,1,,,,,,,,,,,,,,,0,,,74,53
123600,note_on,120,0,1,,,,,,,,,,,,,,,0,,,74,0
123600,note_on,0,0,1,,,,,,,,,,,,,,,0,,,73,53
123600,note_on,0,0,2,,,,,,,,,,,,,,,0,,,61,28
123600,note_on,120,0,2,,,,,,,,,,,,,,,0,,,64,0
123600,set_tempo,240,1,0,,,,,,,,,,,,597015,,,,,,,
123720,note_on,0,0,1,,,,,,,,,,,,,,,0,,,71,53
123720,note_on,120,0,1,,,,,,,,,,,,,,,0,,,73,0
123720,note_on,0,0,2,,,,,,,,,,,,,,,0,,,64,29
123720,note_on,120,0,2,,,,,,,,,,,,,,,0,,,61,0
123840,note_on,120,0,1,,,,,,,,,,,,,,,0,,,71,0
123840,set_tempo,240,1,0,,,,,,,,,,,,609137,,,,,,,
123840,note_on,0,0,1,,,,,,,,,,,,,,,0,,,70,56
123840,note_on,0,0,2,,,,,,,,,,,,,,,0,,,55,33
123840,note_on,120,0,2,,,,,,,,,,,,,,,0,,,64,0
123874,control_change,34,0,2,,,,,,,,,,,,,,,0,64,0,,
123937,control_change,63,0,2,,,,,,,,,,,,,,,0,64,127,,
123960,note_on,0,0,2,,,,,,,,,,,,,,,0,,,64,29
123960,note_on,23,0,2,,,,,,,,,,,,,,,0,,,55,0
124080,note_on,120,0,2,,,,,,,,,,,,,,,0,,,64,0
124080,note_on,240,0,1,,,,,,,,,,,,,,,0,,,70,0
124080,note_on,0,0,2,,,,,,,,,,,,,,,0,,,61,29
124200,note_on,0,0,2,,,,,,,,,,,,,,,0,,,64,31
124200,note_on,120,0,2,,,,,,,,,,,,,,,0,,,61,0
124320,note_on,120,0,2,,,,,,,,,,,,,,,0,,,64,0
124320,note_on,0,0,1,,,,,,,,,,,,,,,0,,,70,57
124320,note_on,240,0,1,,,,,,,,,,,,,,,0,,,66,57
124320,set_tempo,480,1,0,,,,,,,,,,,,648999,,,,,,,
124320,note_on,0,0,2,,,,,,,,,,,,,,,0,,,54,36
124320,control_change,0,0,2,,,,,,,,,,,,,,,0,64,0,,
124366,control_change,46,0,2,,,,,,,,,,,,,,,0,64,127,,
124440,note_on,74,0,2,,,,,,,,,,,,,,,0,,,54,0
124440,note_on,0,0,2,,,,,,,,,,,,,,,0,,,64,31
124560,note_on,0,0,2,,,,,,,,,,,,,,,0,,,61,31
124560,note_on,120,0,2,,,,,,,,,,,,,,,0,,,64,0
124680,note_on,0,0,2,,,,,,,,,,,,,,,0,,,64,31
124680,note_on,120,0,2,,,,,,,,,,,,,,,0,,,61,0
124770,set_tempo,450,1,0,,,,,,,,,,,,623506,,,,,,,
124800,note_on,120,0,2,,,,,,,,,,,,,,,0,,,64,0
124800,note_on,0,0,2,,,,,,,,,,,,,,,0,,,54,36
124800,control_change,0,0,2,,,,,,,,,,,,,,,0,64,0,,
124800,note_on,0,0,1,,,,,,,,,,,,,,,0,,,66,0
124800,note_on,0,0,1,,,,,,,,,,,,,,,0,,,70,57
124800,note_on,480,0,1,,,,,,,,,,,,,,,0,,,70,0
124800,note_on,0,0,1,,,,,,,,,,,,,,,0,,,66,48
124840,control_change,40,0,2,,,,,,,,,,,,,,,0,64,127,,
124920,note_on,0,0,2,,,,,,,,,,,,,,,0,,,64,30
124920,note_on,80,0,2,,,,,,,,,,,,,,,0,,,54,0
124930,set_tempo,160,1,0,,,,,,,,,,,,620155,,,,,,,
125040,note_on,120,0,2,,,,,,,,,,,,,,,0,,,64,0
125040,note_on,0,0,2,,,,,,,,,,,,,,,0,,,61,30
125090,set_tempo,160,1,0,,,,,,,,,,,,616776,,,,,,,
125160,note_on,360,0,1,,,,,,,,,,,,,,,0,,,66,0
125160,note_on,0,0,1,,,,,,,,,,,,,,,0,,,66,48
125160,note_on,0,0,1,,,,,,,,,,,,,,,0,,,70,57
125160,note_on,0,0,1,,,,,,,,,,,,,,,0,,,70,0
125160,note_on,0,0,2,,,,,,,,,,,,,,,0,,,64,30
125160,note_on,120,0,2,,,,,,,,,,,,,,,0,,,61,0
125250,set_tempo,160,1,0,,,,,,,,,,,,613434,,,,,,,
125274,control_change,114,0,2,,,,,,,,,,,,,,,0,64,0,,
125280,note_on,0,0,1,,,,,,,,,,,,,,,0,,,66,51
125280,note_on,0,0,1,,,,,,,,,,,,,,,0,,,71,60
125280,note_on,0,0,1,,,,,,,,,,,,,,,0,,,70,0
125280,note_on,0,0,2,,,,,,,,,,,,,,,0,,,54,37
125280,note_on,120,0,1,,,,,,,,,,,,,,,0,,,66,0
125280,note_on,6,0,2,,,,,,,,,,,,,,,0,,,64,0
125314,control_change,34,0,2,,,,,,,,,,,,,,,0,64,127,,
125400,note_on,86,0,2,,,,,,,,,,,,,,,0,,,54,0
125400,note_on,0,0,2,,,,,,,,,,,,,,,0,,,62,30
125410,set_tempo,160,1,0,,,,,,,,,,,,610190,,,,,,,
125520,note_on,0,0,2,,,,,,,,,,,,,,,0,,,59,30
125520,note_on,120,0,2,,,,,,,,,,,,,,,0,,,62,0
125570,set_tempo,160,1,0,,,,,,,,,,,,606919,,,,,,,
125640,note_on,360,0,1,,,,,,,,,,,,,,,0,,,66,0
125640,note_on,0,0,1,,,,,,,,,,,,,,,0,,,71,60
125640,note_on,0,0,1,,,,,,,,,,,,,,,0,,,66,51
125640,note_on,0,0,2,,,,,,,,,,,,,,,0,,,62,31
125640,note_on,0,0,1,,,,,,,,,,,,,,,0,,,71,0
125640,note_on,120,0,2,,,,,,,,,,,,,,,0,,,59,0
125730,set_tempo,160,1,0,,,,,,,,,,,,603743,,,,,,,
125737,control_change,97,0,2,,,,,,,,,,,,,,,0,64,0,,
125760,note_on,120,0,1,,,,,,,,,,,,,,,0,,,71,0
125760,note_on,0,0,1,,,,,,,,,,,,,,,0,,,70,51
125760,note_on,0,0,1,,,,,,,,,,,,,,,0,,,73,61
125760,note_on,23,0,2,,,,,,,,,,,,,,,0,,,62,0
125760,note_on,0,0,2,,,,,,,,,,,,,,,0,,,54,38
125760,note_on,0,0,1,,,,,,,,,,,,,,,0,,,66,0
125760,note_on,0,0,1,,,,,,,,,,,,,,,0,,,66,51
125783,control_change,23,0,2,,,,,,,,,,,,,,,0,64,127,,
125880,note_on,0,0,2,,,,,,,,,,,,,,,0,,,61,31
125880,note_on,97,0,2,,,,,,,,,,,,,,,0,,,54,0
125890,set_tempo,160,1,0,,,,,,,,,,,,600540,,,,,,,
126000,note_on,0,0,2,,,,,,,,,,,,,,,0,,,58,31
126000,note_on,120,0,2,,,,,,,,,,,,,,,0,,,61,0
126050,set_tempo,160,1,0,,,,,,,,,,,,597372,,,,,,,
126120,note_on,120,0,2,,,,,,,,,,,,,,,0,,,58,0
126120,note_on,0,0,2,,,,,,,,,,,,,,,0,,,61,31
126120,note_on,0,0,1,,,,,,,,,,,,,,,0,,,73,61
126120,note_on,0,0,1,,,,,,,,,,,,,,,0,,,66,51
126120,note_on,0,0,1,,,,,,,,,,,,,,,0,,,70,51
126120,note_on,0,0,1,,,,,,,,,,,,,,,0,,,70,0
126120,note_on,360,0,1,,,,,,,,,,,,,,,0,,,73,0
126120,note_on,0,0,1,,,,,,,,,,,,,,,0,,,66,0
126210,set_tempo,160,1,0,,,,,,,,,,,,594295,,,,,,,
126240,note_on,0,0,1,,,,,,,,,,,,,,,0,,,74,62
126240,note_on,120,0,2,,,,,,,,,,,,,,,0,,,61,0
126240,note_on,0,0,1,,,,,,,,,,,,,,,0,,,71,52
126240,note_on,0,0,1,,,,,,,,,,,,,,,0,,,66,52
126240,note_on,0,0,1,,,,,,,,,,,,,,,0,,,70,0
126240,note_on,0,0,1,,,,,,,,,,,,,,,0,,,66,0
126240,note_on,0,0,2,,,,,,,,,,,,,,,0,,,54,39
126240,note_on,120,0,1,,,,,,,,,,,,,,,0,,,73,0
126246,control_change,6,0,2,,,,,,,,,,,,,,,0,64,0,,
126280,control_change,34,0,2,,,,,,,,,,,,,,,0,64,127,,
126360,note_on,0,0,2,,,,,,,,,,,,,,,0,,,62,34
126360,note_on,80,0,2,,,,,,,,,,,,,,,0,,,54,0
126370,set_tempo,160,1,0,,,,,,,,,,,,591250,,,,,,,
126480,note_on,0,0,2,,,,,,,,,,,,,,,0,,,59,34
126480,note_on,120,0,2,,,,,,,,,,,,,,,0,,,62,0
126530,set_tempo,160,1,0,,,,,,,,,,,,588120,,,,,,,
126600,note_on,0,0,1,,,,,,,,,,,,,,,0,,,71,52
126600,note_on,0,0,1,,,,,,,,,,,,,,,0,,,66,0
126600,note_on,0,0,1,,,,,,,,,,,,,,,0,,,74,0
126600,note_on,360,0,1,,,,,,,,,,,,,,,0,,,71,0
126600,note_on,0,0,1,,,,,,,,,,,,,,,0,,,66,52
126600,note_on,120,0,2,,,,,,,,,,,,,,,0,,,59,0
126600,note_on,0,0,2,,,,,,,,,,,,,,,0,,,62,34
126600,note_on,0,0,1,,,,,,,,,,,,,,,0,,,74,62
126690,set_tempo,160,1,0,,,,,,,,,,,,588120,,,,,,,
126720,note_on,0,0,1,,,,,,,,,,,,,,,0,,,66,0
126720,note_on,120,0,2,,,,,,,,,,,,,,,0,,,62,0
126720,note_on,0,0,1,,,,,,,,,,,,,,,0,,,71,0
126720,note_on,120,0,1,,,,,,,,,,,,,,,0,,,74,0
126720,control_change,0,0,2,,,,,,,,,,,,,,,0,64,0,,
126720,note_on,0,0,1,,,,,,,,,,,,,,,0,,,73,55
126720,note_on,0,0,1,,,,,,,,,,,,,,,0,,,76,64
126720,note_on,0,0,2,,,,,,,,,,,,,,,0,,,54,40
126720,note_on,0,0,1,,,,,,,,,,,,,,,0,,,66,55
126766,control_change,46,0,2,,,,,,,,,,,,,,,0,64,127,,
126810,set_tempo,120,1,0,,,,,,,,,,,,591250,,,,,,,
126840,note_on,74,0,2,,,,,,,,,,,,,,,0,,,54,0
126840,note_on,0,0,2,,,,,,,,,,,,,,,0,,,64,34
126890,set_tempo,80,1,0,,,,,,,,,,,,594295,,,,,,,
126960,note_on,0,0,2,,,,,,,,,,,,,,,0,,,61,35
126960,note_on,120,0,2,,,,,,,,,,,,,,,0,,,64,0
126970,set_tempo,80,1,0,,,,,,,,,,,,597372,,,,,,,
127080,note_on,120,0,2,,,,,,,,,,,,,,,0,,,61,0
127080,note_on,0,0,2,,,,,,,,,,,,,,,0,,,64,35
127080,note_on,0,0,1,,,,,,,,,,,,,,,0,,,73,0
127080,note_on,0,0,1,,,,,,,,,,,,,,,0,,,66,0
127080,note_on,360,0,1,,,,,,,,,,,,,,,0,,,76,0
127080,note_on,0,0,1,,,,,,,,,,,,,,,0,,,76,64
127080,note_on,0,0,1,,,,,,,,,,,,,,,0,,,66,55
127080,note_on,0,0,1,,,,,,,,,,,,,,,0,,,73,55
127090,set_tempo,120,1,0,,,,,,,,,,,,600540,,,,,,,
127170,set_tempo,80,1,0,,,,,,,,,,,,603743,,,,,,,
127194,control_change,114,0,2,,,,,,,,,,,,,,,0,64,0,,
127200,note_on,0,0,1,,,,,,,,,,,,,,,0,,,66,0
127200,note_on,6,0,2,,,,,,,,,,,,,,,0,,,64,0
127200,note_on,0,0,2,,,,,,,,,,,,,,,0,,,55,40
127200,note_on,0,0,1,,,,,,,,,,,,,,,0,,,76,66
127200,note_on,0,0,1,,,,,,,,,,,,,,,0,,,67,56
127200,note_on,0,0,1,,,,,,,,,,,,,,,0,,,73,56
127200,note_on,120,0,1,,,,,,,,,,,,,,,0,,,76,0
127200,note_on,0,0,1,,,,,,,,,,,,,,,0,,,73,0
127234,control_change,34,0,2,,,,,,,,,,,,,,,0,64,127,,
127250,set_tempo,80,1,0,,,,,,,,,,,,606919,,,,,,,
127320,note_on,0,0,2,,,,,,,,,,,,,,,0,,,64,34
127320,note_on,86,0,2,,,,,,,,,,,,,,,0,,,55,0
127370,set_tempo,120,1,0,,,,,,,,,,,,610190,,,,,,,
127440,note_on,120,0,2,,,,,,,,,,,,,,,0,,,64,0
127440,note_on,0,0,2,,,,,,,,,,,,,,,0,,,61,34
127450,set_tempo,80,1,0,,,,,,,,,,,,613434,,,,,,,
127530,set_tempo,80,1,0,,,,,,,,,,,,616776,,,,,,,
127560,note_on,120,0,2,,,,,,,,,,,,,,,0,,,61,0
127560,note_on,0,0,1,,,,,,,,,,,,,,,0,,,67,0
127560,note_on,360,0,1,,,,,,,,,,,,,,,0,,,76,0
127560,note_on,0,0,1,,,,,,,,,,,,,,,0,,,76,66
127560,note_on,0,0,1,,,,,,,,,,,,,,,0,,,67,56
127560,note_on,0,0,2,,,,,,,,,,,,,,,0,,,64,34
127560,note_on,0,0,1,,,,,,,,,,,,,,,0,,,73,56
127560,note_on,0,0,1,,,,,,,,,,,,,,,0,,,73,0
127610,set_tempo,80,1,0,,,,,,,,,,,,620155,,,,,,,
127669,control_change,109,0,2,,,,,,,,,,,,,,,0,64,0,,
127680,note_on,120,0,1,,,,,,,,,,,,,,,0,,,67,0
127680,note_on,0,0,1,,,,,,,,,,,,,,,0,,,76,67
127680,note_on,0,0,1,,,,,,,,,,,,,,,0,,,68,57
127680,note_on,0,0,1,,,,,,,,,,,,,,,0,,,73,57
127680,note_on,0,0,1,,,,,,,,,,,,,,,0,,,76,0
127680,set_tempo,70,1,0,,,,,,,,,,,,637416,,,,,,,
127680,note_on,0,0,1,,,,,,,,,,,,,,,0,,,73,0
127680,note_on,11,0,2,,,,,,,,,,,,,,,0,,,64,0
127680,note_on,0,0,2,,,,,,,,,,,,,,,0,,,56,41
127709,control_change,29,0,2,,,,,,,,,,,,,,,0,64,127,,
127800,note_on,0,0,2,,,,,,,,,,,,,,,0,,,64,35
127800,note_on,91,0,2,,,,,,,,,,,,,,,0,,,56,0
127920,note_on,120,0,2,,,,,,,,,,,,,,,0,,,64,0
127920,note_on,0,0,2,,,,,,,,,,,,,,,0,,,61,35
128040,note_on,120,0,2,,,,,,,,,,,,,,,0,,,61,0
128040,note_on,0,0,2,,,,,,,,,,,,,,,0,,,64,36
128040,note_on,360,0,1,,,,,,,,,,,,,,,0,,,73,0
128040,note_on,0,0,1,,,,,,,,,,,,,,,0,,,68,0
128040,note_on,0,0,1,,,,,,,,,,,,,,,0,,,76,0
128040,note_on,0,0,1,,,,,,,,,,,,,,,0,,,76,67
128040,note_on,0,0,1,,,,,,,,,,,,,,,0,,,68,57
128040,note_on,0,0,1,,,,,,,,,,,,,,,0,,,73,57
128149,control_change,109,0,2,,,,,,,,,,,,,,,0,64,0,,
128160,note_on,120,0,1,,,,,,,,,,,,,,,0,,,73,0
128160,note_on,0,0,1,,,,,,,,,,,,,,,0,,,73,58
128160,note_on,0,0,1,,,,,,,,,,,,,,,0,,,76,0
128160,note_on,0,0,1,,,,,,,,,,,,,,,0,,,76,69
128160,note_on,0,0,1,,,,,,,,,,,,,,,0,,,69,58
128160,note_on,11,0,2,,,,,,,,,,,,,,,0,,,64,0
128160,note_on,0,0,2,,,,,,,,,,,,,,,0,,,57,42
128160,note_on,0,0,1,,,,,,,,,,,,,,,0,,,68,0
128189,control_change,29,0,2,,,,,,,,,,,,,,,0,64,127,,
128280,note_on,0,0,2,,,,,,,,,,,,,,,0,,,64,35
128280,note_on,91,0,2,,,,,,,,,,,,,,,0,,,57,0
128400,note_on,120,0,2,,,,,,,,,,,,,,,0,,,64,0
128400,note_on,0,0,2,,,,,,,,,,,,,,,0,,,61,37
128520,note_on,0,0,2,,,,,,,,,,,,,,,0,,,64,37
128520,note_on,120,0,2,,,,,,,,,,,,,,,0,,,61,0
128640,note_on,0,0,1,,,,,,,,,,,,,,,0,,,69,0
128640,note_on,0,0,1,,,,,,,,,,,,,,,0,,,76,59
128640,note_on,0,0,2,,,,,,,,,,,,,,,0,,,57,36
128640,set_tempo,960,1,0,,,,,,,,,,,,648298,,,,,,,
128640,control_change,0,0,2,,,,,,,,,,,,,,,0,64,0,,
128640,note_on,120,0,2,,,,,,,,,,,,,,,0,,,64,0
128640,note_on,480,0,1,,,,,,,,,,,,,,,0,,,73,0
128640,note_on,0,0,1,,,,,,,,,,,,,,,0,,,76,0
128674,control_change,34,0,2,,,,,,,,,,,,,,,0,64,127,,
128760,note_on,0,0,2,,,,,,,,,,,,,,,0,,,64,29
128760,note_on,86,0,2,,,,,,,,,,,,,,,0,,,57,0
128880,note_on,0,0,2,,,,,,,,,,,,,,,0,,,61,29
128880,note_on,120,0,2,,,,,,,,,,,,,,,0,,,64,0
129000,note_on,120,0,2,,,,,,,,,,,,,,,0,,,61,0
129000,note_on,0,0,2,,,,,,,,,,,,,,,0,,,64,29
129120,note_on,0,0,2,,,,,,,,,,,,,,,0,,,58,36
129120,set_tempo,480,1,0,,,,,,,,,,,,633914,,,,,,,
129120,note_on,120,0,2,,,,,,,,,,,,,,,0,,,64,0
129240,note_on,120,0,2,,,,,,,,,,,,,,,0,,,58,0
129240,note_on,0,0,2,,,,,,,,,,,,,,,0,,,64,30
129360,note_on,120,0,2,,,,,,,,,,,,,,,0,,,64,0
129360,note_on,0,0,2,,,,,,,,,,,,,,,0,,,61,30
129480,note_on,120,0,2,,,,,,,,,,,,,,,0,,,61,0
129480,note_on,0,0,2,,,,,,,,,,,,,,,0,,,64,31
129480,note_on,840,0,1,,,,,,,,,,,,,,,0,,,76,0
129480,note_on,0,0,1,,,,,,,,,,,,,,,0,,,74,56
129600,note_on,120,0,1,,,,,,,,,,,,,,,0,,,74,0
129600,note_on,0,0,1,,,,,,,,,,,,,,,0,,,73,56
129600,note_on,120,0,2,,,,,,,,,,,,,,,0,,,64,0
129600,note_on,0,0,2,,,,,,,,,,,,,,,0,,,57,36
129634,control_change,34,0,2,,,,,,,,,,,,,,,0,64,0,,
129697,control_change,63,0,2,,,,,,,,,,,,,,,0,64,127,,
129720,note_on,23,0,2,,,,,,,,,,,,,,,0,,,57,0
129720,note_on,0,0,2,,,,,,,,,,,,,,,0,,,64,31
129840,note_on,120,0,2,,,,,,,,,,,,,,,0,,,64,0
129840,note_on,0,0,2,,,,,,,,,,,,,,,0,,,61,31
129840,note_on,240,0,1,,,,,,,,,,,,,,,0,,,73,0
129960,note_on,0,0,2,,,,,,,,,,,,,,,0,,,64,31
129960,note_on,120,0,2,,,,,,,,,,,,,,,0,,,61,0
130080,note_on,0,0,2,,,,,,,,,,,,,,,0,,,55,36
130080,set_tempo,960,1,0,,,,,,,,,,,,648999,,,,,,,
130080,note_on,120,0,2,,,,,,,,,,,,,,,0,,,64,0
130080,note_on,240,0,1,,,,,,,,,,,,,,,0,,,73,57
130080,control_change,0,0,2,,,,,,,,,,,,,,,0,64,0,,
130126,control_change,46,0,2,,,,,,,,,,,,,,,0,64,127,,
130200,note_on,0,0,2,,,,,,,,,,,,,,,0,,,64,31
130200,note_on,74,0,2,,,,,,,,,,,,,,,0,,,55,0
130320,note_on,120,0,2,,,,,,,,,,,,,,,0,,,64,0
130320,note_on,0,0,2,,,,,,,,,,,,,,,0,,,61,31
130440,note_on,120,0,2,,,,,,,,,,,,,,,0,,,61,0
130440,note_on,0,0,2,,,,,,,,,,,,,,,0,,,64,31
130440,set_tempo,360,1,0,,,,,,,,,,,,738825,,,,,,,
130500,set_tempo,60,1,0,,,,,,,,,,,,538696,,,,,,,
130500,note_on,420,0,1,,,,,,,,,,,,,,,0,,,76,49
130560,set_tempo,60,1,0,,,,,,,,,,,,616776,,,,,,,
130560,note_on,0,0,1,,,,,,,,,,,,,,,0,,,74,60
130560,note_on,60,0,1,,,,,,,,,,,,,,,0,,,76,0
130560,note_on,0,0,1,,,,,,,,,,,,,,,0,,,73,0
130560,note_on,120,0,2,,,,,,,,,,,,,,,0,,,64,0
130560,control_change,0,0,2,,,,,,,,,,,,,,,0,64,0,,
130560,note_on,0,0,2,,,,,,,,,,,,,,,0,,,53,36
130594,control_change,34,0,2,,,,,,,,,,,,,,,0,64,127,,
130680,note_on,0,0,2,,,,,,,,,,,,,,,0,,,62,29
130680,note_on,86,0,2,,,,,,,,,,,,,,,0,,,53,0
130680,note_on,120,0,1,,,,,,,,,,,,,,,0,,,74,0
130680,note_on,0,0,1,,,,,,,,,,,,,,,0,,,73,57
130800,note_on,120,0,2,,,,,,,,,,,,,,,0,,,62,0
130800,note_on,120,0,1,,,,,,,,,,,,,,,0,,,73,0
130800,note_on,0,0,1,,,,,,,,,,,,,,,0,,,74,57
130800,note_on,0,0,2,,,,,,,,,,,,,,,0,,,57,29
130920,note_on,120,0,2,,,,,,,,,,,,,,,0,,,57,0
130920,set_tempo,360,1,0,,,,,,,,,,,,744509,,,,,,,
130920,note_on,120,0,1,,,,,,,,,,,,,,,0,,,74,0
130920,note_on,0,0,1,,,,,,,,,,,,,,,0,,,76,57
130920,note_on,0,0,2,,,,,,,,,,,,,,,0,,,62,29
130980,note_on,60,0,1,,,,,,,,,,,,,,,0,,,79,49
130980,set_tempo,60,1,0,,,,,,,,,,,,541761,,,,,,,
131040,note_on,0,0,1,,,,,,,,,,,,,,,0,,,77,60
131040,note_on,60,0,1,,,,,,,,,,,,,,,0,,,79,0
131040,note_on,0,0,1,,,,,,,,,,,,,,,0,,,76,0
131040,set_tempo,60,1,0,,,,,,,,,,,,616776,,,,,,,
131040,note_on,120,0,2,,,,,,,,,,,,,,,0,,,62,0
131040,note_on,0,0,2,,,,,,,,,,,,,,,0,,,52,36
131040,control_change,0,0,2,,,,,,,,,,,,,,,0,64,0,,
131060,control_change,20,0,2,,,,,,,,,,,,,,,0,64,127,,
131160,note_on,100,0,2,,,,,,,,,,,,,,,0,,,52,0
131160,note_on,0,0,2,,,,,,,,,,,,,,,0,,,62,30
131160,note_on,0,0,1,,,,,,,,,,,,,,,0,,,76,57
131160,note_on,120,0,1,,,,,,,,,,,,,,,0,,,77,0
131280,note_on,0,0,1,,,,,,,,,,,,,,,0,,,77,57
131280,note_on,120,0,1,,,,,,,,,,,,,,,0,,,76,0
131280,note_on,120,0,2,,,,,,,,,,,,,,,0,,,62,0
131280,note_on,0,0,2,,,,,,,,,,,,,,,0,,,55,30
131400,note_on,0,0,1,,,,,,,,,,,,,,,0,,,79,57
131400,note_on,120,0,1,,,,,,,,,,,,,,,0,,,77,0
131400,note_on,120,0,2,,,,,,,,,,,,,,,0,,,55,0
131400,note_on,0,0,2,,,,,,,,,,,,,,,0,,,62,31
131520,note_on,120,0,1,,,,,,,,,,,,,,,0,,,79,0
131520,note_on,120,0,2,,,,,,,,,,,,,,,0,,,62,0
131520,set_tempo,480,1,0,,,,,,,,,,,,633914,,,,,,,
131520,note_on,0,0,1,,,,,,,,,,,,,,,0,,,81,59
131520,note_on,0,0,2,,,,,,,,,,,,,,,0,,,50,36
131554,control_change,34,0,2,,,,,,,,,,,,,,,0,64,0,,
131617,control_change,63,0,2,,,,,,,,,,,,,,,0,64,127,,
131640,note_on,23,0,2,,,,,,,,,,,,,,,0,,,50,0
131640,note_on,0,0,2,,,,,,,,,,,,,,,0,,,62,31
131760,note_on,240,0,1,,,,,,,,,,,,,,,0,,,81,0
131760,note_on,120,0,2,,,,,,,,,,,,,,,0,,,62,0
131760,note_on,0,0,2,,,,,,,,,,,,,,,0,,,53,31
131880,note_on,0,0,2,,,,,,,,,,,,,,,0,,,62,31
131880,note_on,120,0,2,,,,,,,,,,,,,,,0,,,53,0
132000,note_on,240,0,1,,,,,,,,,,,,,,,0,,,81,59
132000,note_on,0,0,2,,,,,,,,,,,,,,,0,,,53,36
132000,note_on,120,0,2,,,,,,,,,,,,,,,0,,,62,0
132020,control_change,20,0,2,,,,,,,,,,,,,,,0,64,0,,
132046,control_change,26,0,2,,,,,,,,,,,,,,,0,64,127,,
132120,note_on,74,0,2,,,,,,,,,,,,,,,0,,,53,0
132120,note_on,0,0,2,,,,,,,,,,,,,,,0,,,62,31
132240,note_on,120,0,2,,,,,,,,,,,,,,,0,,,62,0
132240,note_on,0,0,2,,,,,,,,,,,,,,,0,,,57,31
132240,note_on,0,0,1,,,,,,,,,,,,,,,0,,,77,57
132240,note_on,240,0,1,,,,,,,,,,,,,,,0,,,81,0
132360,note_on,120,0,2,,,,,,,,,,,,,,,0,,,57,0
132360,note_on,0,0,2,,,,,,,,,,,,,,,0,,,62,31
132480,note_on,120,0,2,,,,,,,,,,,,,,,0,,,62,0
132480,control_change,0,0,2,,,,,,,,,,,,,,,0,64,0,,
132480,note_on,0,0,2,,,,,,,,,,,,,,,0,,,57,36
132480,set_tempo,960,1,0,,,,,,,,,,,,644884,,,,,,,
132480,note_on,0,0,1,,,,,,,,,,,,,,,0,,,76,59
132480,note_on,240,0,1,,,,,,,,,,,,,,,0,,,77,0
132514,control_change,34,0,2,,,,,,,,,,,,,,,0,64,127,,
132600,note_on,0,0,2,,,,,,,,,,,,,,,0,,,64,29
132600,note_on,86,0,2,,,,,,,,,,,,,,,0,,,57,0
132720,note_on,0,0,2,,,,,,,,,,,,,,,0,,,61,29
132720,note_on,120,0,2,,,,,,,,,,,,,,,0,,,64,0
132840,note_on,120,0,2,,,,,,,,,,,,,,,0,,,61,0
132840,note_on,0,0,2,,,,,,,,,,,,,,,0,,,64,29
132960,set_tempo,480,1,0,,,,,,,,,,,,636807,,,,,,,
132960,note_on,0,0,2,,,,,,,,,,,,,,,0,,,58,36
132960,note_on,120,0,2,,,,,,,,,,,,,,,0,,,64,0
133080,note_on,0,0,2,,,,,,,,,,,,,,,0,,,64,30
133080,note_on,120,0,2,,,,,,,,,,,,,,,0,,,58,0
133200,note_on,0,0,2,,,,,,,,,,,,,,,0,,,61,30
133200,note_on,120,0,2,,,,,,,,,,,,,,,0,,,64,0
133320,note_on,120,0,2,,,,,,,,,,,,,,,0,,,61,0
133320,note_on,0,0,1,,,,,,,,,,,,,,,0,,,74,56
133320,note_on,840,0,1,,,,,,,,,,,,,,,0,,,76,0
133320,note_on,0,0,2,,,,,,,,,,,,,,,0,,,64,31
133440,note_on,0,0,1,,,,,,,,,,,,,,,0,,,73,56
133440,note_on,120,0,1,,,,,,,,,,,,,,,0,,,74,0
133440,note_on,120,0,2,,,,,,,,,,,,,,,0,,,64,0
133440,note_on,0,0,2,,,,,,,,,,,,,,,0,,,57,36
133474,control_change,34,0,2,,,,,,,,,,,,,,,0,64,0,,
133537,control_change,63,0,2,,,,,,,,,,,,,,,0,64,127,,
133560,note_on,23,0,2,,,,,,,,,,,,,,,0,,,57,0
133560,note_on,0,0,2,,,,,,,,,,,,,,,0,,,64,31
133680,note_on,120,0,2,,,,,,,,,,,,,,,0,,,64,0
133680,note_on,240,0,1,,,,,,,,,,,,,,,0,,,73,0
133680,note_on,0,0,2,,,,,,,,,,,,,,,0,,,61,31
133800,note_on,0,0,2,,,,,,,,,,,,,,,0,,,64,31
133800,note_on,120,0,2,,,,,,,,,,,,,,,0,,,61,0
133920,note_on,0,0,1,,,,,,,,,,,,,,,0,,,73,63
133920,note_on,240,0,1,,,,,,,,,,,,,,,0,,,85,63
133920,set_tempo,960,1,0,,,,,,,,,,,,668077,,,,,,,
133920,control_change,0,0,2,,,,,,,,,,,,,,,0,64,0,,
133920,note_on,0,0,2,,,,,,,,,,,,,,,0,,,55,37
133920,note_on,120,0,2,,,,,,,,,,,,,,,0,,,64,0
133966,control_change,46,0,2,,,,,,,,,,,,,,,0,64,127,,
134040,note_on,0,0,2,,,,,,,,,,,,,,,0,,,64,32
134040,note_on,74,0,2,,,,,,,,,,,,,,,0,,,55,0
134160,note_on,0,0,2,,,,,,,,,,,,,,,0,,,61,32
134160,note_on,120,0,2,,,,,,,,,,,,,,,0,,,64,0
134280,note_on,0,0,2,,,,,,,,,,,,,,,0,,,64,32
134280,note_on,120,0,2,,,,,,,,,,,,,,,0,,,61,0
134400,note_on,480,0,1,,,,,,,,,,,,,,,0,,,73,0
134400,note_on,0,0,1,,,,,,,,,,,,,,,0,,,85,0
134400,note_on,0,0,1,,,,,,,,,,,,,,,0,,,74,63
134400,note_on,0,0,1,,,,,,,,,,,,,,,0,,,86,63
134400,set_tempo,0,1,0,,,,,,,,,,,,640820,,,,,,,
134400,key_signature,480,1,0,,,,,,,,,,,Bb,,,,,,,,
134400,note_on,120,0,2,,,,,,,,,,,,,,,0,,,64,0
134400,note_on,0,0,2,,,,,,,,,,,,,,,0,,,53,37
134400,control_change,0,0,2,,,,,,,,,,,,,,,0,64,0,,
134440,set_tempo,40,1,0,,,,,,,,,,,,636807,,,,,,,
134499,control_change,99,0,2,,,,,,,,,,,,,,,0,64,127,,
134520,note_on,21,0,2,,,,,,,,,,,,,,,0,,,53,0
134520,note_on,0,0,2,,,,,,,,,,,,,,,0,,,65,31
134640,note_on,120,0,2,,,,,,,,,,,,,,,0,,,65,0
134640,note_on,240,0,1,,,,,,,,,,,,,,,0,,,86,0
134640,note_on,0,0,1,,,,,,,,,,,,,,,0,,,74,0
134640,note_on,0,0,1,,,,,,,,,,,,,,,0,,,77,64
134640,note_on,0,0,1,,,,,,,,,,,,,,,0,,,89,64
134640,note_on,0,0,2,,,,,,,,,,,,,,,0,,,62,32
134760,set_tempo,320,1,0,,,,,,,,,,,,632845,,,,,,,
134760,note_on,0,0,2,,,,,,,,,,,,,,,0,,,65,32
134760,note_on,120,0,2,,,,,,,,,,,,,,,0,,,62,0
134880,note_on,240,0,1,,,,,,,,,,,,,,,0,,,89,0
134880,note_on,0,0,1,,,,,,,,,,,,,,,0,,,77,0
134880,note_on,0,0,1,,,,,,,,,,,,,,,0,,,79,64
134880,note_on,0,0,1,,,,,,,,,,,,,,,0,,,91,64
134880,note_on,0,0,2,,,,,,,,,,,,,,,0,,,53,39
134880,note_on,120,0,2,,,,,,,,,,,,,,,0,,,65,0
135000,note_on,120,0,2,,,,,,,,,,,,,,,0,,,53,0
135000,note_on,0,0,2,,,,,,,,,,,,,,,0,,,65,34
135040,set_tempo,280,1,0,,,,,,,,,,,,628997,,,,,,,
135120,note_on,120,0,2,,,,,,,,,,,,,,,0,,,65,0
135120,note_on,0,0,2,,,,,,,,,,,,,,,0,,,62,34
135120,note_on,240,0,1,,,,,,,,,,,,,,,0,,,91,0
135120,note_on,0,0,1,,,,,,,,,,,,,,,0,,,79,0
135120,note_on,0,0,1,,,,,,,,,,,,,,,0,,,81,65
135120,note_on,0,0,1,,,,,,,,,,,,,,,0,,,93,65
135240,note_on,120,0,2,,,,,,,,,,,,,,,0,,,62,0
135240,note_on,0,0,2,,,,,,,,,,,,,,,0,,,65,35
135320,set_tempo,280,1,0,,,,,,,,,,,,625065,,,,,,,
135360,note_on,240,0,1,,,,,,,,,,,,,,,0,,,93,0
135360,note_on,0,0,2,,,,,,,,,,,,,,,0,,,53,42
135360,note_on,0,0,1,,,,,,,,,,,,,,,0,,,81,0
135360,note_on,0,0,1,,,,,,,,,,,,,,,0,,,82,66
135360,note_on,0,0,1,,,,,,,,,,,,,,,0,,,94,66
135360,note_on,120,0,2,,,,,,,,,,,,,,,0,,,65,0
135388,control_change,28,0,2,,,,,,,,,,,,,,,0,64,0,,
135445,control_change,57,0,2,,,,,,,,,,,,,,,0,64,127,,
135480,note_on,35,0,2,,,,,,,,,,,,,,,0,,,53,0
135480,note_on,0,0,2,,,,,,,,,,,,,,,0,,,65,37
135600,note_on,120,0,2,,,,,,,,,,,,,,,0,,,65,0
135600,note_on,0,0,2,,,,,,,,,,,,,,,0,,,62,37
135720,note_on,120,0,2,,,,,,,,,,,,,,,0,,,62,0
135720,note_on,0,0,2,,,,,,,,,,,,,,,0,,,65,37
135840,note_on,480,0,1,,,,,,,,,,,,,,,0,,,94,0
135840,note_on,0,0,1,,,,,,,,,,,,,,,0,,,82,0
135840,note_on,0,0,1,,,,,,,,,,,,,,,0,,,79,69
135840,note_on,0,0,1,,,,,,,,,,,,,,,0,,,91,69
135840,note_on,0,0,2,,,,,,,,,,,,,,,0,,,53,44
135840,note_on,120,0,2,,,,,,,,,,,,,,,0,,,65,0
135861,control_change,21,0,2,,,,,,,,,,,,,,,0,64,0,,
135911,control_change,50,0,2,,,,,,,,,,,,,,,0,64,127,,
135960,note_on,49,0,2,,,,,,,,,,,,,,,0,,,53,0
135960,note_on,0,0,2,,,,,,,,,,,,,,,0,,,67,39
136080,note_on,0,0,2,,,,,,,,,,,,,,,0,,,63,40
136080,note_on,120,0,2,,,,,,,,,,,,,,,0,,,67,0
136200,note_on,0,0,2,,,,,,,,,,,,,,,0,,,67,40
136200,note_on,120,0,2,,,,,,,,,,,,,,,0,,,63,0
136320,note_on,0,0,1,,,,,,,,,,,,,,,0,,,91,0
136320,note_on,0,0,1,,,,,,,,,,,,,,,0,,,89,70
136320,note_on,0,0,2,,,,,,,,,,,,,,,0,,,53,48
136320,note_on,0,0,1,,,,,,,,,,,,,,,0,,,77,70
136320,control_change,0,0,2,,,,,,,,,,,,,,,0,64,0,,
136320,note_on,120,0,2,,,,,,,,,,,,,,,0,,,67,0
136320,note_on,480,0,1,,,,,,,,,,,,,,,0,,,79,0
136384,control_change,64,0,2,,,,,,,,,,,,,,,0,64,127,,
136440,note_on,56,0,2,,,,,,,,,,,,,,,0,,,53,0
136440,note_on,0,0,2,,,,,,,,,,,,,,,0,,,65,38
136560,note_on,0,0,2,,,,,,,,,,,,,,,0,,,62,38
136560,note_on,120,0,2,,,,,,,,,,,,,,,0,,,65,0
136680,note_on,120,0,2,,,,,,,,,,,,,,,0,,,62,0
136680,note_on,0,0,2,,,,,,,,,,,,,,,0,,,65,38
136779,control_change,99,0,2,,,,,,,,,,,,,,,0,64,0,,
136800,note_on,0,0,2,,,,,,,,,,,,,,,0,,,53,47
136800,note_on,21,0,2,,,,,,,,,,,,,,,0,,,65,0
136800,note_on,0,0,1,,,,,,,,,,,,,,,0,,,75,69
136800,note_on,480,0,1,,,,,,,,,,,,,,,0,,,77,0
136800,note_on,0,0,1,,,,,,,,,,,,,,,0,,,89,0
136800,note_on,0,0,1,,,,,,,,,,,,,,,0,,,87,69
136821,control_change,21,0,2,,,,,,,,,,,,,,,0,64,127,,
136920,note_on,0,0,2,,,,,,,,,,,,,,,0,,,63,39
136920,note_on,99,0,2,,,,,,,,,,,,,,,0,,,53,0
137040,note_on,120,0,2,,,,,,,,,,,,,,,0,,,63,0
137040,note_on,0,0,2,,,,,,,,,,,,,,,0,,,60,39
137160,note_on,0,0,2,,,,,,,,,,,,,,,0,,,63,39
137160,note_on,120,0,2,,,,,,,,,,,,,,,0,,,60,0
137259,control_change,99,0,2,,,,,,,,,,,,,,,0,64,0,,
137280,note_on,0,0,1,,,,,,,,,,,,,,,0,,,74,66
137280,note_on,0,0,2,,,,,,,,,,,,,,,0,,,53,42
137280,note_on,21,0,2,,,,,,,,,,,,,,,0,,,63,0
137280,note_on,0,0,1,,,,,,,,,,,,,,,0,,,86,66
137280,note_on,480,0,1,,,,,,,,,,,,,,,0,,,75,0
137280,note_on,0,0,1,,,,,,,,,,,,,,,0,,,87,0
137315,control_change,35,0,2,,,,,,,,,,,,,,,0,64,127,,
137400,note_on,85,0,2,,,,,,,,,,,,,,,0,,,53,0
137400,note_on,0,0,2,,,,,,,,,,,,,,,0,,,62,36
137520,note_on,0,0,2,,,,,,,,,,,,,,,0,,,58,36
137520,note_on,120,0,2,,,,,,,,,,,,,,,0,,,62,0
137640,note_on,0,0,2,,,,,,,,,,,,,,,0,,,62,37
137640,note_on,120,0,2,,,,,,,,,,,,,,,0,,,58,0
137760,note_on,480,0,1,,,,,,,,,,,,,,,0,,,74,0
137760,note_on,0,0,1,,,,,,,,,,,,,,,0,,,86,0
137760,note_on,0,0,1,,,,,,,,,,,,,,,0,,,84,65
137760,note_on,0,0,1,,,,,,,,,,,,,,,0,,,72,65
137760,note_on,120,0,2,,,,,,,,,,,,,,,0,,,62,0
137760,note_on,0,0,2,,,,,,,,,,,,,,,0,,,53,42
137760,control_change,0,0,2,,,,,,,,,,,,,,,0,64,0,,
137824,control_change,64,0,2,,,,,,,,,,,,,,,0,64,127,,
137880,note_on,0,0,2,,,,,,,,,,,,,,,0,,,60,35
137880,note_on,56,0,2,,,,,,,,,,,,,,,0,,,53,0
138000,note_on,120,0,2,,,,,,,,,,,,,,,0,,,60,0
138000,note_on,0,0,2,,,,,,,,,,,,,,,0,,,56,35
138120,note_on,120,0,2,,,,,,,,,,,,,,,0,,,56,0
138120,note_on,0,0,2,,,,,,,,,,,,,,,0,,,60,35
138240,note_on,120,0,2,,,,,,,,,,,,,,,0,,,60,0
138240,control_change,0,0,2,,,,,,,,,,,,,,,0,64,0,,
138240,note_on,0,0,2,,,,,,,,,,,,,,,0,,,53,35
138240,set_tempo,2920,1,0,,,,,,,,,,,,625065,,,,,,,
138240,note_on,480,0,1,,,,,,,,,,,,,,,0,,,72,0
138240,note_on,0,0,1,,,,,,,,,,,,,,,0,,,83,61
138240,note_on,0,0,1,,,,,,,,,,,,,,,0,,,71,61
138240,note_on,0,0,1,,,,,,,,,,,,,,,0,,,84,0
138297,control_change,57,0,2,,,,,,,,,,,,,,,0,64,127,,
138360,note_on,63,0,2,,,,,,,,,,,,,,,0,,,53,0
138360,note_on,0,0,2,,,,,,,,,,,,,,,0,,,59,29
138480,note_on,0,0,2,,,,,,,,,,,,,,,0,,,56,29
138480,note_on,120,0,2,,,,,,,,,,,,,,,0,,,59,0
138600,note_on,0,0,2,,,,,,,,,,,,,,,0,,,59,29
138600,note_on,120,0,2,,,,,,,,,,,,,,,0,,,56,0
138680,set_tempo,440,1,0,,,,,,,,,,,,628997,,,,,,,
138720,note_on,0,0,2,,,,,,,,,,,,,,,0,,,53,34
138720,note_on,120,0,2,,,,,,,,,,,,,,,0,,,59,0
138840,note_on,0,0,2,,,,,,,,,,,,,,,0,,,59,29
138840,note_on,120,0,2,,,,,,,,,,,,,,,0,,,53,0
138960,note_on,0,0,2,,,,,,,,,,,,,,,0,,,56,29
138960,note_on,120,0,2,,,,,,,,,,,,,,,0,,,59,0
139080,note_on,0,0,2,,,,,,,,,,,,,,,0,,,59,29
139080,note_on,120,0,2,,,,,,,,,,,,,,,0,,,56,0
139120,set_tempo,440,1,0,,,,,,,,,,,,632845,,,,,,,
139200,note_on,0,0,2,,,,,,,,,,,,,,,0,,,53,33
139200,note_on,120,0,2,,,,,,,,,,,,,,,0,,,59,0
139320,note_on,0,0,2,,,,,,,,,,,,,,,0,,,59,29
139320,note_on,120,0,2,,,,,,,,,,,,,,,0,,,53,0
139440,note_on,120,0,2,,,,,,,,,,,,,,,0,,,59,0
139440,note_on,0,0,2,,,,,,,,,,,,,,,0,,,56,29
139560,set_tempo,440,1,0,,,,,,,,,,,,636807,,,,,,,
139560,note_on,0,0,2,,,,,,,,,,,,,,,0,,,59,29
139560,note_on,120,0,2,,,,,,,,,,,,,,,0,,,56,0
139680,note_on,120,0,2,,,,,,,,,,,,,,,0,,,59,0
139680,note_on,0,0,2,,,,,,,,,,,,,,,0,,,53,33
139800,note_on,120,0,2,,,,,,,,,,,,,,,0,,,53,0
139800,note_on,0,0,2,,,,,,,,,,,,,,,0,,,59,29
139920,note_on,120,0,2,,,,,,,,,,,,,,,0,,,59,0
139920,note_on,0,0,2,,,,,,,,,,,,,,,0,,,56,29
140000,set_tempo,440,1,0,,,,,,,,,,,,640820,,,,,,,
140040,note_on,120,0,2,,,,,,,,,,,,,,,0,,,56,0
140040,note_on,0,0,2,,,,,,,,,,,,,,,0,,,59,29
140160,note_on,120,0,2,,,,,,,,,,,,,,,0,,,59,0
140160,note_on,0,0,2,,,,,,,,,,,,,,,0,,,53,31
140160,control_change,0,0,2,,,,,,,,,,,,,,,0,64,0,,
140263,control_change,103,0,2,,,,,,,,,,,,,,,0,64,127,,
140280,note_on,17,0,2,,,,,,,,,,,,,,,0,,,53,0
140280,note_on,0,0,2,,,,,,,,,,,,,,,0,,,59,27
140400,note_on,120,0,2,,,,,,,,,,,,,,,0,,,59,0
140400,note_on,0,0,1,,,,,,,,,,,,,,,0,,,71,51
140400,note_on,0,0,1,,,,,,,,,,,,,,,0,,,71,0
140400,note_on,2160,0,1,,,,,,,,,,,,,,,0,,,83,0
140400,note_on,0,0,2,,,,,,,,,,,,,,,0,,,56,27
140520,note_on,120,0,2,,,,,,,,,,,,,,,0,,,56,0
140520,note_on,0,0,2,,,,,,,,,,,,,,,0,,,59,27
140640,note_on,120,0,2,,,,,,,,,,,,,,,0,,,59,0
140640,note_on,0,0,2,,,,,,,,,,,,,,,0,,,53,32
140640,note_on,240,0,1,,,,,,,,,,,,,,,0,,,71,0
140640,note_on,0,0,1,,,,,,,,,,,,,,,0,,,71,51
140760,note_on,120,0,2,,,,,,,,,,,,,,,0,,,53,0
140760,note_on,0,0,2,,,,,,,,,,,,,,,0,,,59,27
140880,note_on,120,0,2,,,,,,,,,,,,,,,0,,,59,0
140880,note_on,0,0,2,,,,,,,,,,,,,,,0,,,56,27
140880,note_on,0,0,1,,,,,,,,,,,,,,,0,,,71,51
140880,note_on,240,0,1,,,,,,,,,,,,,,,0,,,71,0
141000,note_on,120,0,2,,,,,,,,,,,,,,,0,,,56,0
141000,note_on,0,0,2,,,,,,,,,,,,,,,0,,,59,27
141109,control_change,109,0,2,,,,,,,,,,,,,,,0,64,0,,
141120,note_on,0,0,1,,,,,,,,,,,,,,,0,,,71,50
141120,note_on,240,0,1,,,,,,,,,,,,,,,0,,,71,0
141120,note_on,0,0,2,,,,,,,,,,,,,,,0,,,52,32
141120,note_on,11,0,2,,,,,,,,,,,,,,,0,,,59,0
141160,control_change,40,0,2,,,,,,,,,,,,,,,0,64,127,,
141240,note_on,0,0,2,,,,,,,,,,,,,,,0,,,59,26
141240,note_on,80,0,2,,,,,,,,,,,,,,,0,,,52,0
141360,note_on,0,0,2,,,,,,,,,,,,,,,0,,,56,26
141360,note_on,0,0,1,,,,,,,,,,,,,,,0,,,71,50
141360,note_on,240,0,1,,,,,,,,,,,,,,,0,,,71,0
141360,note_on,120,0,2,,,,,,,,,,,,,,,0,,,59,0
141480,note_on,0,0,2,,,,,,,,,,,,,,,0,,,59,26
141480,note_on,120,0,2,,,,,,,,,,,,,,,0,,,56,0
141589,control_change,109,0,2,,,,,,,,,,,,,,,0,64,0,,
141600,note_on,0,0,1,,,,,,,,,,,,,,,0,,,71,50
141600,note_on,11,0,2,,,,,,,,,,,,,,,0,,,59,0
141600,note_on,240,0,1,,,,,,,,,,,,,,,0,,,71,0
141600,note_on,0,0,2,,,,,,,,,,,,,,,0,,,50,31
141646,control_change,46,0,2,,,,,,,,,,,,,,,0,64,127,,
141720,note_on,74,0,2,,,,,,,,,,,,,,,0,,,50,0
141720,note_on,0,0,2,,,,,,,,,,,,,,,0,,,59,26
141840,note_on,0,0,2,,,,,,,,,,,,,,,0,,,56,26
141840,note_on,240,0,1,,,,,,,,,,,,,,,0,,,71,0
141840,note_on,0,0,1,,,,,,,,,,,,,,,0,,,71,50
141840,note_on,120,0,2,,,,,,,,,,,,,,,0,,,59,0
141960,note_on,120,0,2,,,,,,,,,,,,,,,0,,,56,0
141960,note_on,0,0,2,,,,,,,,,,,,,,,0,,,59,26
142080,note_on,0,0,1,,,,,,,,,,,,,,,0,,,72,53
142080,note_on,240,0,1,,,,,,,,,,,,,,,0,,,71,0
142080,set_tempo,2080,1,0,,,,,,,,,,,,616776,,,,,,,
142080,note_on,120,0,2,,,,,,,,,,,,,,,0,,,59,0
142080,control_change,0,0,2,,,,,,,,,,,,,,,0,64,0,,
142080,note_on,0,0,2,,,,,,,,,,,,,,,0,,,48,31
142149,control_change,69,0,2,,,,,,,,,,,,,,,0,64,127,,
142200,note_on,51,0,2,,,,,,,,,,,,,,,0,,,48,0
142200,note_on,0,0,2,,,,,,,,,,,,,,,0,,,60,24
142320,note_on,0,0,2,,,,,,,,,,,,,,,0,,,57,24
142320,note_on,120,0,2,,,,,,,,,,,,,,,0,,,60,0
142440,note_on,120,0,2,,,,,,,,,,,,,,,0,,,57,0
142440,note_on,0,0,2,,,,,,,,,,,,,,,0,,,60,24
142560,set_tempo,480,1,0,,,,,,,,,,,,636807,,,,,,,
142560,note_on,120,0,2,,,,,,,,,,,,,,,0,,,60,0
142560,note_on,0,0,2,,,,,,,,,,,,,,,0,,,48,30
142680,note_on,120,0,2,,,,,,,,,,,,,,,0,,,48,0
142680,note_on,0,0,2,,,,,,,,,,,,,,,0,,,62,25
142800,note_on,120,0,2,,,,,,,,,,,,,,,0,,,62,0
142800,note_on,0,0,2,,,,,,,,,,,,,,,0,,,58,25
142920,note_on,120,0,2,,,,,,,,,,,,,,,0,,,58,0
142920,note_on,0,0,2,,,,,,,,,,,,,,,0,,,62,26
142920,note_on,840,0,1,,,,,,,,,,,,,,,0,,,72,0
142920,note_on,0,0,1,,,,,,,,,,,,,,,0,,,74,47
143040,note_on,120,0,1,,,,,,,,,,,,,,,0,,,74,0
143040,note_on,0,0,1,,,,,,,,,,,,,,,0,,,72,52
143040,note_on,0,0,2,,,,,,,,,,,,,,,0,,,48,29
143040,note_on,120,0,2,,,,,,,,,,,,,,,0,,,62,0
143074,control_change,34,0,2,,,,,,,,,,,,,,,0,64,0,,
143137,control_change,63,0,2,,,,,,,,,,,,,,,0,64,127,,
143160,note_on,23,0,2,,,,,,,,,,,,,,,0,,,48,0
143160,note_on,0,0,2,,,,,,,,,,,,,,,0,,,60,26
143280,note_on,240,0,1,,,,,,,,,,,,,,,0,,,72,0
143280,note_on,120,0,2,,,,,,,,,,,,,,,0,,,60,0
143280,note_on,0,0,2,,,,,,,,,,,,,,,0,,,57,26
143400,note_on,0,0,2,,,,,,,,,,,,,,,0,,,60,26
143400,note_on,120,0,2,,,,,,,,,,,,,,,0,,,57,0
143520,note_on,240,0,1,,,,,,,,,,,,,,,0,,,77,49
143520,note_on,120,0,2,,,,,,,,,,,,,,,0,,,60,0
143520,control_change,0,0,2,,,,,,,,,,,,,,,0,64,0,,
143520,note_on,0,0,2,,,,,,,,,,,,,,,0,,,48,30
143520,set_tempo,960,1,0,,,,,,,,,,,,582298,,,,,,,
143540,control_change,20,0,2,,,,,,,,,,,,,,,0,64,127,,
143560,set_tempo,40,1,0,,,,,,,,,,,,575595,,,,,,,
143580,note_on,60,0,1,,,,,,,,,,,,,,,0,,,77,0
143580,note_on,0,0,1,,,,,,,,,,,,,,,0,,,79,43
143600,set_tempo,40,1,0,,,,,,,,,,,,569206,,,,,,,
143640,note_on,0,0,1,,,,,,,,,,,,,,,0,,,77,44
143640,note_on,60,0,1,,,,,,,,,,,,,,,0,,,79,0
143640,note_on,0,0,2,,,,,,,,,,,,,,,0,,,62,26
143640,set_tempo,40,1,0,,,,,,,,,,,,562957,,,,,,,
143640,note_on,100,0,2,,,,,,,,,,,,,,,0,,,48,0
143680,set_tempo,40,1,0,,,,,,,,,,,,556793,,,,,,,
143700,note_on,0,0,1,,,,,,,,,,,,,,,0,,,79,44
143700,note_on,60,0,1,,,,,,,,,,,,,,,0,,,77,0
143720,set_tempo,40,1,0,,,,,,,,,,,,547795,,,,,,,
143760,note_on,0,0,1,,,,,,,,,,,,,,,0,,,77,44
143760,note_on,120,0,2,,,,,,,,,,,,,,,0,,,62,0
143760,note_on,0,0,2,,,,,,,,,,,,,,,0,,,58,26
143760,note_on,60,0,1,,,,,,,,,,,,,,,0,,,79,0
143820,note_on,0,0,1,,,,,,,,,,,,,,,0,,,79,46
143820,note_on,60,0,1,,,,,,,,,,,,,,,0,,,77,0
143864,set_tempo,144,1,0,,,,,,,,,,,,543380,,,,,,,
143880,note_on,120,0,2,,,,,,,,,,,,,,,0,,,58,0
143880,note_on,0,0,2,,,,,,,,,,,,,,,0,,,62,26
143880,note_on,60,0,1,,,,,,,,,,,,,,,0,,,79,0
143880,note_on,0,0,1,,,,,,,,,,,,,,,0,,,76,51
143880,set_tempo,16,1,0,,,,,,,,,,,,559336,,,,,,,
143892,set_tempo,12,1,0,,,,,,,,,,,,576258,,,,,,,
143904,set_tempo,12,1,0,,,,,,,,,,,,594295,,,,,,,
143920,set_tempo,16,1,0,,,,,,,,,,,,616776,,,,,,,
143932,set_tempo,12,1,0,,,,,,,,,,,,637416,,,,,,,
143940,note_on,60,0,1,,,,,,,,,,,,,,,0,,,76,0
143940,note_on,0,0,1,,,,,,,,,,,,,,,0,,,77,44
143944,set_tempo,12,1,0,,,,,,,,,,,,659631,,,,,,,
143960,set_tempo,16,1,0,,,,,,,,,,,,683293,,,,,,,
143972,set_tempo,12,1,0,,,,,,,,,,,,713182,,,,,,,
144000,note_on,0,0,2,,,,,,,,,,,,,,,0,,,48,31
144000,note_on,120,0,2,,,,,,,,,,,,,,,0,,,62,0
144000,control_change,0,0,2,,,,,,,,,,,,,,,0,64,0,,
144000,note_on,60,0,1,,,,,,,,,,,,,,,0,,,77,0
144000,note_on,0,0,1,,,,,,,,,,,,,,,0,,,81,58
144000,note_on,0,0,1,,,,,,,,,,,,,,,0,,,69,46
144000,set_tempo,28,1,0,,,,,,,,,,,,620155,,,,,,,
144113,control_change,113,0,2,,,,,,,,,,,,,,,0,64,127,,
144120,note_on,7,0,2,,,,,,,,,,,,,,,0,,,48,0
144120,note_on,0,0,2,,,,,,,,,,,,,,,0,,,60,24
144240,note_on,120,0,2,,,,,,,,,,,,,,,0,,,60,0
144240,note_on,0,0,2,,,,,,,,,,,,,,,0,,,57,24
144360,note_on,0,0,2,,,,,,,,,,,,,,,0,,,60,24
144360,note_on,120,0,2,,,,,,,,,,,,,,,0,,,57,0
144480,set_tempo,480,1,0,,,,,,,,,,,,636807,,,,,,,
144480,note_on,0,0,2,,,,,,,,,,,,,,,0,,,48,30
144480,note_on,120,0,2,,,,,,,,,,,,,,,0,,,60,0
144600,note_on,120,0,2,,,,,,,,,,,,,,,0,,,48,0
144600,note_on,0,0,2,,,,,,,,,,,,,,,0,,,62,25
144720,note_on,120,0,2,,,,,,,,,,,,,,,0,,,62,0
144720,note_on,0,0,2,,,,,,,,,,,,,,,0,,,58,25
144840,note_on,120,0,2,,,,,,,,,,,,,,,0,,,58,0
144840,note_on,0,0,2,,,,,,,,,,,,,,,0,,,62,26
144840,note_on,840,0,1,,,,,,,,,,,,,,,0,,,69,0
144840,note_on,0,0,1,,,,,,,,,,,,,,,0,,,81,0
144840,note_on,0,0,1,,,,,,,,,,,,,,,0,,,67,40
144840,note_on,0,0,1,,,,,,,,,,,,,,,0,,,79,51
144960,note_on,0,0,1,,,,,,,,,,,,,,,0,,,77,53
144960,note_on,120,0,1,,,,,,,,,,,,,,,0,,,79,0
144960,note_on,0,0,1,,,,,,,,,,,,,,,0,,,67,0
144960,note_on,0,0,1,,,,,,,,,,,,,,,0,,,65,43
144960,note_on,0,0,2,,,,,,,,,,,,,,,0,,,48,29
144960,note_on,120,0,2,,,,,,,,,,,,,,,0,,,62,0
144994,control_change,34,0,2,,,,,,,,,,,,,,,0,64,0,,
145057,control_change,63,0,2,,,,,,,,,,,,,,,0,64,127,,
145080,note_on,23,0,2,,,,,,,,,,,,,,,0,,,48,0
145080,note_on,0,0,2,,,,,,,,,,,,,,,0,,,60,26
145200,note_on,240,0,1,,,,,,,,,,,,,,,0,,,77,0
145200,note_on,0,0,1,,,,,,,,,,,,,,,0,,,65,0
145200,note_on,120,0,2,,,,,,,,,,,,,,,0,,,60,0
145200,note_on,0,0,2,,,,,,,,,,,,,,,0,,,57,26
145320,note_on,120,0,2,,,,,,,,,,,,,,,0,,,57,0
145320,note_on,0,0,2,,,,,,,,,,,,,,,0,,,60,26
145440,set_tempo,960,1,0,,,,,,,,,,,,648999,,,,,,,
145440,note_on,120,0,2,,,,,,,,,,,,,,,0,,,60,0
145440,control_change,0,0,2,,,,,,,,,,,,,,,0,64,0,,
145440,note_on,0,0,2,,,,,,,,,,,,,,,0,,,48,30
145440,note_on,240,0,1,,,,,,,,,,,,,,,0,,,74,54
145486,control_change,46,0,2,,,,,,,,,,,,,,,0,64,127,,
145560,note_on,74,0,2,,,,,,,,,,,,,,,0,,,48,0
145560,note_on,0,0,2,,,,,,,,,,,,,,,0,,,62,26
145680,note_on,0,0,2,,,,,,,,,,,,,,,0,,,58,26
145680,note_on,120,0,2,,,,,,,,,,,,,,,0,,,62,0
145800,note_on,0,0,2,,,,,,,,,,,,,,,0,,,62,26
145800,note_on,120,0,2,,,,,,,,,,,,,,,0,,,58,0
145920,note_on,0,0,2,,,,,,,,,,,,,,,0,,,48,31
145920,control_change,0,0,2,,,,,,,,,,,,,,,0,64,0,,
145920,note_on,120,0,2,,,,,,,,,,,,,,,0,,,62,0
145920,note_on,480,0,1,,,,,,,,,,,,,,,0,,,74,0
145920,note_on,0,0,1,,,,,,,,,,,,,,,0,,,72,58
145920,set_tempo,480,1,0,,,,,,,,,,,,644884,,,,,,,
145989,control_change,69,0,2,,,,,,,,,,,,,,,0,64,127,,
146040,note_on,51,0,2,,,,,,,,,,,,,,,0,,,48,0
146040,note_on,0,0,2,,,,,,,,,,,,,,,0,,,60,24
146160,note_on,120,0,2,,,,,,,,,,,,,,,0,,,60,0
146160,note_on,0,0,2,,,,,,,,,,,,,,,0,,,57,24
146280,note_on,0,0,2,,,,,,,,,,,,,,,0,,,60,24
146280,note_on,120,0,2,,,,,,,,,,,,,,,0,,,57,0
146400,set_tempo,480,1,0,,,,,,,,,,,,636807,,,,,,,
146400,note_on,120,0,2,,,,,,,,,,,,,,,0,,,60,0
146400,note_on,0,0,2,,,,,,,,,,,,,,,0,,,48,30
146520,note_on,120,0,2,,,,,,,,,,,,,,,0,,,48,0
146520,note_on,0,0,2,,,,,,,,,,,,,,,0,,,62,26
146640,note_on,0,0,2,,,,,,,,,,,,,,,0,,,58,26
146640,note_on,120,0,2,,,,,,,,,,,,,,,0,,,62,0
146760,note_on,0,0,1,,,,,,,,,,,,,,,0,,,74,53
146760,note_on,0,0,2,,,,,,,,,,,,,,,0,,,62,27
146760,note_on,840,0,1,,,,,,,,,,,,,,,0,,,72,0
146760,note_on,120,0,2,,,,,,,,,,,,,,,0,,,58,0
146880,note_on,120,0,2,,,,,,,,,,,,,,,0,,,62,0
146880,note_on,0,0,2,,,,,,,,,,,,,,,0,,,48,30
146880,note_on,0,0,1,,,,,,,,,,,,,,,0,,,72,60
146880,note_on,120,0,1,,,,,,,,,,,,,,,0,,,74,0
146914,control_change,34,0,2,,,,,,,,,,,,,,,0,64,0,,
146977,control_change,63,0,2,,,,,,,,,,,,,,,0,64,127,,
147000,note_on,23,0,2,,,,,,,,,,,,,,,0,,,48,0
147000,note_on,0,0,2,,,,,,,,,,,,,,,0,,,60,27
147120,note_on,240,0,1,,,,,,,,,,,,,,,0,,,72,0
147120,note_on,0,0,2,,,,,,,,,,,,,,,0,,,57,28
147120,note_on,120,0,2,,,,,,,,,,,,,,,0,,,60,0
147240,note_on,120,0,2,,,,,,,,,,,,,,,0,,,57,0
147240,note_on,0,0,2,,,,,,,,,,,,,,,0,,,60,28
147360,note_on,240,0,1,,,,,,,,,,,,,,,0,,,89,53
147360,control_change,0,0,2,,,,,,,,,,,,,,,0,64,0,,
147360,note_on,0,0,2,,,,,,,,,,,,,,,0,,,48,33
147360,set_tempo,960,1,0,,,,,,,,,,,,582298,,,,,,,
147360,note_on,120,0,2,,,,,,,,,,,,,,,0,,,60,0
147380,control_change,20,0,2,,,,,,,,,,,,,,,0,64,127,,
147400,set_tempo,40,1,0,,,,,,,,,,,,575595,,,,,,,
147420,note_on,60,0,1,,,,,,,,,,,,,,,0,,,89,0
147420,note_on,0,0,1,,,,,,,,,,,,,,,0,,,91,47
147440,set_tempo,40,1,0,,,,,,,,,,,,569206,,,,,,,
147480,note_on,60,0,1,,,,,,,,,,,,,,,0,,,91,0
147480,set_tempo,40,1,0,,,,,,,,,,,,559858,,,,,,,
147480,note_on,0,0,1,,,,,,,,,,,,,,,0,,,89,48
147480,note_on,100,0,2,,,,,,,,,,,,,,,0,,,48,0
147480,note_on,0,0,2,,,,,,,,,,,,,,,0,,,62,28
147520,set_tempo,40,1,0,,,,,,,,,,,,553812,,,,,,,
147540,note_on,0,0,1,,,,,,,,,,,,,,,0,,,91,48
147540,note_on,60,0,1,,,,,,,,,,,,,,,0,,,89,0
147560,set_tempo,40,1,0,,,,,,,,,,,,544910,,,,,,,
147600,note_on,120,0,2,,,,,,,,,,,,,,,0,,,62,0
147600,note_on,60,0,1,,,,,,,,,,,,,,,0,,,91,0
147600,note_on,0,0,2,,,,,,,,,,,,,,,0,,,58,28
147600,note_on,0,0,1,,,,,,,,,,,,,,,0,,,89,48
147660,note_on,60,0,1,,,,,,,,,,,,,,,0,,,89,0
147660,note_on,0,0,1,,,,,,,,,,,,,,,0,,,91,50
147720,note_on,0,0,1,,,,,,,,,,,,,,,0,,,88,55
147720,note_on,0,0,2,,,,,,,,,,,,,,,0,,,62,28
147720,note_on,60,0,1,,,,,,,,,,,,,,,0,,,91,0
147720,note_on,120,0,2,,,,,,,,,,,,,,,0,,,58,0
147720,set_tempo,160,1,0,,,,,,,,,,,,545951,,,,,,,
147732,set_tempo,12,1,0,,,,,,,,,,,,567698,,,,,,,
147744,set_tempo,12,1,0,,,,,,,,,,,,591250,,,,,,,
147760,set_tempo,16,1,0,,,,,,,,,,,,620155,,,,,,,
147772,set_tempo,12,1,0,,,,,,,,,,,,648298,,,,,,,
147780,note_on,0,0,1,,,,,,,,,,,,,,,0,,,89,48
147780,note_on,60,0,1,,,,,,,,,,,,,,,0,,,88,0
147784,set_tempo,12,1,0,,,,,,,,,,,,679194,,,,,,,
147800,set_tempo,16,1,0,,,,,,,,,,,,717618,,,,,,,
147840,note_on,0,0,1,,,,,,,,,,,,,,,0,,,81,63
147840,note_on,0,0,2,,,,,,,,,,,,,,,0,,,48,34
147840,control_change,0,0,2,,,,,,,,,,,,,,,0,64,0,,
147840,note_on,120,0,2,,,,,,,,,,,,,,,0,,,62,0
147840,set_tempo,40,1,0,,,,,,,,,,,,620155,,,,,,,
147840,note_on,60,0,1,,,,,,,,,,,,,,,0,,,89,0
147840,note_on,0,0,1,,,,,,,,,,,,,,,0,,,93,69
147904,control_change,64,0,2,,,,,,,,,,,,,,,0,64,127,,
147960,note_on,56,0,2,,,,,,,,,,,,,,,0,,,48,0
147960,note_on,0,0,2,,,,,,,,,,,,,,,0,,,60,26
148080,note_on,120,0,2,,,,,,,,,,,,,,,0,,,60,0
148080,note_on,0,0,2,,,,,,,,,,,,,,,0,,,57,26
148200,note_on,120,0,2,,,,,,,,,,,,,,,0,,,57,0
148200,note_on,0,0,2,,,,,,,,,,,,,,,0,,,60,26
148320,note_on,120,0,2,,,,,,,,,,,,,,,0,,,60,0
148320,note_on,0,0,2,,,,,,,,,,,,,,,0,,,48,33
148320,set_tempo,480,1,0,,,,,,,,,,,,636807,,,,,,,
148440,note_on,0,0,2,,,,,,,,,,,,,,,0,,,62,27
148440,note_on,120,0,2,,,,,,,,,,,,,,,0,,,48,0
148560,note_on,120,0,2,,,,,,,,,,,,,,,0,,,62,0
148560,note_on,0,0,2,,,,,,,,,,,,,,,0,,,58,27
148680,note_on,120,0,2,,,,,,,,,,,,,,,0,,,58,0
148680,note_on,0,0,1,,,,,,,,,,,,,,,0,,,91,62
148680,note_on,0,0,1,,,,,,,,,,,,,,,0,,,79,62
148680,note_on,840,0,1,,,,,,,,,,,,,,,0,,,81,0
148680,note_on,0,0,1,,,,,,,,,,,,,,,0,,,93,0
148680,note_on,0,0,2,,,,,,,,,,,,,,,0,,,62,28
148800,note_on,120,0,1,,,,,,,,,,,,,,,0,,,91,0
148800,note_on,0,0,1,,,,,,,,,,,,,,,0,,,79,0
148800,note_on,0,0,1,,,,,,,,,,,,,,,0,,,77,67
148800,note_on,0,0,1,,,,,,,,,,,,,,,0,,,89,67
148800,note_on,0,0,2,,,,,,,,,,,,,,,0,,,48,31
148800,note_on,120,0,2,,,,,,,,,,,,,,,0,,,62,0
148834,control_change,34,0,2,,,,,,,,,,,,,,,0,64,0,,
148897,control_change,63,0,2,,,,,,,,,,,,,,,0,64,127,,
148920,note_on,0,0,2,,,,,,,,,,,,,,,0,,,60,28
148920,note_on,23,0,2,,,,,,,,,,,,,,,0,,,48,0
149040,note_on,120,0,2,,,,,,,,,,,,,,,0,,,60,0
149040,note_on,240,0,1,,,,,,,,,,,,,,,0,,,89,0
149040,note_on,0,0,1,,,,,,,,,,,,,,,0,,,77,0
149040,note_on,0,0,2,,,,,,,,,,,,,,,0,,,57,28
149160,note_on,0,0,2,,,,,,,,,,,,,,,0,,,60,28
149160,note_on,120,0,2,,,,,,,,,,,,,,,0,,,57,0
149280,control_change,0,0,2,,,,,,,,,,,,,,,0,64,0,,
149280,note_on,0,0,2,,,,,,,,,,,,,,,0,,,48,36
149280,note_on,120,0,2,,,,,,,,,,,,,,,0,,,60,0
149280,set_tempo,960,1,0,,,,,,,,,,,,653168,,,,,,,
149280,note_on,0,0,1,,,,,,,,,,,,,,,0,,,86,69
149280,note_on,0,0,1,,,,,,,,,,,,,,,0,,,82,69
149280,note_on,0,0,1,,,,,,,,,,,,,,,0,,,77,48
149280,note_on,240,0,1,,,,,,,,,,,,,,,0,,,74,48
149326,control_change,46,0,2,,,,,,,,,,,,,,,0,64,127,,
149400,note_on,74,0,2,,,,,,,,,,,,,,,0,,,48,0
149400,note_on,0,0,2,,,,,,,,,,,,,,,0,,,62,30
149520,note_on,120,0,2,,,,,,,,,,,,,,,0,,,62,0
149520,note_on,0,0,2,,,,,,,,,,,,,,,0,,,58,30
149640,note_on,120,0,2,,,,,,,,,,,,,,,0,,,58,0
149640,note_on,0,0,2,,,,,,,,,,,,,,,0,,,62,30
149760,note_on,120,0,2,,,,,,,,,,,,,,,0,,,62,0
149760,set_tempo,480,1,0,,,,,,,,,,,,636807,,,,,,,
149760,note_on,0,0,1,,,,,,,,,,,,,,,0,,,84,69
149760,control_change,0,0,2,,,,,,,,,,,,,,,0,64,0,,
149760,note_on,0,0,1,,,,,,,,,,,,,,,0,,,77,58
149760,note_on,0,0,1,,,,,,,,,,,,,,,0,,,81,69
149760,note_on,0,0,1,,,,,,,,,,,,,,,0,,,82,0
149760,note_on,0,0,1,,,,,,,,,,,,,,,0,,,77,0
149760,note_on,0,0,1,,,,,,,,,,,,,,,0,,,74,0
149760,note_on,480,0,1,,,,,,,,,,,,,,,0,,,86,0
149760,note_on,0,0,1,,,,,,,,,,,,,,,0,,,72,58
149760,note_on,0,0,2,,,,,,,,,,,,,,,0,,,48,42
149809,control_change,49,0,2,,,,,,,,,,,,,,,0,64,127,,
149880,note_on,0,0,2,,,,,,,,,,,,,,,0,,,60,35
149880,note_on,71,0,2,,,,,,,,,,,,,,,0,,,48,0
150000,note_on,0,0,2,,,,,,,,,,,,,,,0,,,57,35
150000,note_on,120,0,2,,,,,,,,,,,,,,,0,,,60,0
150120,note_on,120,0,2,,,,,,,,,,,,,,,0,,,57,0
150120,note_on,0,0,2,,,,,,,,,,,,,,,0,,,60,35
150240,note_on,120,0,2,,,,,,,,,,,,,,,0,,,60,0
150240,note_on,0,0,1,,,,,,,,,,,,,,,0,,,77,61
150240,note_on,0,0,1,,,,,,,,,,,,,,,0,,,74,61
150240,note_on,0,0,1,,,,,,,,,,,,,,,0,,,81,0
150240,note_on,0,0,1,,,,,,,,,,,,,,,0,,,77,0
150240,set_tempo,480,1,0,,,,,,,,,,,,628997,,,,,,,
150240,note_on,0,0,1,,,,,,,,,,,,,,,0,,,72,0
150240,note_on,480,0,1,,,,,,,,,,,,,,,0,,,84,0
150240,note_on,0,0,2,,,,,,,,,,,,,,,0,,,48,44
150240,control_change,0,0,2,,,,,,,,,,,,,,,0,64,0,,
150240,note_on,0,0,1,,,,,,,,,,,,,,,0,,,86,72
150240,note_on,0,0,1,,,,,,,,,,,,,,,0,,,82,72
150289,control_change,49,0,2,,,,,,,,,,,,,,,0,64,127,,
150360,note_on,0,0,2,,,,,,,,,,,,,,,0,,,62,37
150360,note_on,71,0,2,,,,,,,,,,,,,,,0,,,48,0
150480,note_on,120,0,2,,,,,,,,,,,,,,,0,,,62,0
150480,note_on,0,0,2,,,,,,,,,,,,,,,0,,,58,38
150600,note_on,0,0,2,,,,,,,,,,,,,,,0,,,62,37
150600,note_on,120,0,2,,,,,,,,,,,,,,,0,,,58,0
150720,note_on,0,0,1,,,,,,,,,,,,,,,0,,,89,74
150720,note_on,0,0,1,,,,,,,,,,,,,,,0,,,84,74
150720,note_on,0,0,1,,,,,,,,,,,,,,,0,,,77,62
150720,note_on,0,0,1,,,,,,,,,,,,,,,0,,,82,0
150720,note_on,0,0,1,,,,,,,,,,,,,,,0,,,77,0
150720,note_on,0,0,1,,,,,,,,,,,,,,,0,,,74,0
150720,note_on,480,0,1,,,,,,,,,,,,,,,0,,,86,0
150720,note_on,0,0,2,,,,,,,,,,,,,,,0,,,48,47
150720,note_on,120,0,2,,,,,,,,,,,,,,,0,,,62,0
150720,note_on,0,0,1,,,,,,,,,,,,,,,0,,,81,62
150720,control_change,0,0,2,,,,,,,,,,,,,,,0,64,0,,
150784,control_change,64,0,2,,,,,,,,,,,,,,,0,64,127,,
150840,note_on,0,0,2,,,,,,,,,,,,,,,0,,,60,37
150840,note_on,56,0,2,,,,,,,,,,,,,,,0,,,48,0
150960,note_on,120,0,2,,,,,,,,,,,,,,,0,,,60,0
150960,note_on,0,0,2,,,,,,,,,,,,,,,0,,,57,38
151080,note_on,120,0,2,,,,,,,,,,,,,,,0,,,57,0
151080,note_on,0,0,2,,,,,,,,,,,,,,,0,,,60,38
151200,note_on,0,0,1,,,,,,,,,,,,,,,0,,,79,66
151200,note_on,0,0,1,,,,,,,,,,,,,,,0,,,84,0
151200,note_on,0,0,1,,,,,,,,,,,,,,,0,,,81,0
151200,note_on,0,0,1,,,,,,,,,,,,,,,0,,,77,0
151200,note_on,120,0,2,,,,,,,,,,,,,,,0,,,60,0
151200,note_on,0,0,1,,,,,,,,,,,,,,,0,,,84,66
151200,note_on,0,0,1,,,,,,,,,,,,,,,0,,,88,78
151200,note_on,0,0,1,,,,,,,,,,,,,,,0,,,91,78
151200,note_on,480,0,1,,,,,,,,,,,,,,,0,,,89,0
151200,set_tempo,960,1,0,,,,,,,,,,,,661667,,,,,,,
151200,note_on,0,0,2,,,,,,,,,,,,,,,0,,,48,49
151200,control_change,0,0,2,,,,,,,,,,,,,,,0,64,0,,
151249,control_change,49,0,2,,,,,,,,,,,,,,,0,64,127,,
151320,note_on,71,0,2,,,,,,,,,,,,,,,0,,,48,0
151320,note_on,0,0,2,,,,,,,,,,,,,,,0,,,60,40
151440,note_on,120,0,2,,,,,,,,,,,,,,,0,,,60,0
151440,note_on,0,0,2,,,,,,,,,,,,,,,0,,,58,40
151560,note_on,120,0,2,,,,,,,,,,,,,,,0,,,58,0
151560,note_on,0,0,2,,,,,,,,,,,,,,,0,,,60,40
151680,note_on,0,0,1,,,,,,,,,,,,,,,0,,,79,63
151680,note_on,0,0,1,,,,,,,,,,,,,,,0,,,91,75
151680,note_on,0,0,1,,,,,,,,,,,,,,,0,,,88,75
151680,note_on,0,0,1,,,,,,,,,,,,,,,0,,,84,63
151680,note_on,0,0,1,,,,,,,,,,,,,,,0,,,88,0
151680,note_on,0,0,1,,,,,,,,,,,,,,,0,,,84,0
151680,note_on,480,0,1,,,,,,,,,,,,,,,0,,,91,0
151680,note_on,0,0,1,,,,,,,,,,,,,,,0,,,79,0
151680,note_on,0,0,2,,,,,,,,,,,,,,,0,,,58,41
151680,note_on,0,0,2,,,,,,,,,,,,,,,0,,,60,49
151680,note_on,0,0,2,,,,,,,,,,,,,,,0,,,48,41
151680,control_change,0,0,2,,,,,,,,,,,,,,,0,64,0,,
151680,note_on,120,0,2,,,,,,,,,,,,,,,0,,,60,0
151920,control_change,240,0,2,,,,,,,,,,,,,,,0,64,127,,
152640,note_on,960,0,1,,,,,,,,,,,,,,,0,,,91,0
152640,note_on,0,0,1,,,,,,,,,,,,,,,0,,,84,0
152640,set_tempo,1440,1,0,,,,,,,,,,,,640820,,,,,,,
152640,note_on,0,0,1,,,,,,,,,,,,,,,0,,,88,0
152640,note_on,0,0,1,,,,,,,,,,,,,,,0,,,79,0
152640,note_on,0,0,1,,,,,,,,,,,,,,,0,,,88,63
152663,control_change,743,0,2,,,,,,,,,,,,,,,0,64,0,,
152709,control_change,46,0,2,,,,,,,,,,,,,,,0,64,127,,
152800,note_on,160,0,1,,,,,,,,,,,,,,,0,,,88,0
152800,note_on,0,0,1,,,,,,,,,,,,,,,0,,,84,54
152960,note_on,160,0,1,,,,,,,,,,,,,,,0,,,84,0
152960,note_on,0,0,1,,,,,,,,,,,,,,,0,,,79,54
153120,note_on,160,0,1,,,,,,,,,,,,,,,0,,,79,0
153120,note_on,0,0,1,,,,,,,,,,,,,,,0,,,76,54
153280,note_on,160,0,1,,,,,,,,,,,,,,,0,,,76,0
153280,note_on,0,0,1,,,,,,,,,,,,,,,0,,,79,52
153440,note_on,160,0,1,,,,,,,,,,,,,,,0,,,79,0
153440,note_on,0,0,1,,,,,,,,,,,,,,,0,,,84,51
153600,note_on,0,0,2,,,,,,,,,,,,,,,0,,,48,0
153600,note_on,0,0,2,,,,,,,,,,,,,,,0,,,57,32
153600,note_on,0,0,2,,,,,,,,,,,,,,,0,,,60,38
153600,control_change,0,0,2,,,,,,,,,,,,,,,0,64,0,,
153600,note_on,160,0,1,,,,,,,,,,,,,,,0,,,84,0
153600,note_on,0,0,1,,,,,,,,,,,,,,,0,,,77,53
153600,note_on,891,0,2,,,,,,,,,,,,,,,0,,,58,0
153600,set_tempo,960,1,0,,,,,,,,,,,,659631,,,,,,,
153600,note_on,0,0,2,,,,,,,,,,,,,,,0,,,60,0
153600,note_on,0,0,2,,,,,,,,,,,,,,,0,,,53,32
153660,control_change,60,0,2,,,,,,,,,,,,,,,0,64,127,,
153760,note_on,160,0,1,,,,,,,,,,,,,,,0,,,77,0
153760,note_on,0,0,1,,,,,,,,,,,,,,,0,,,84,49
153840,set_tempo,240,1,0,,,,,,,,,,,,606919,,,,,,,
153844,control_change,184,0,2,,,,,,,,,,,,,,,0,64,0,,
153920,note_on,160,0,1,,,,,,,,,,,,,,,0,,,84,0
153920,note_on,0,0,1,,,,,,,,,,,,,,,0,,,81,49
154000,note_on,80,0,1,,,,,,,,,,,,,,,0,,,81,0
154080,set_tempo,240,1,0,,,,,,,,,,,,603743,,,,,,,
154080,note_on,0,0,2,,,,,,,,,,,,,,,0,,,53,0
154080,note_on,236,0,2,,,,,,,,,,,,,,,0,,,60,0
154080,note_on,80,0,1,,,,,,,,,,,,,,,0,,,77,53
154080,note_on,0,0,2,,,,,,,,,,,,,,,0,,,57,0
154160,note_on,80,0,1,,,,,,,,,,,,,,,0,,,77,0
154240,note_on,80,0,1,,,,,,,,,,,,,,,0,,,72,48
154320,note_on,80,0,1,,,,,,,,,,,,,,,0,,,72,0
154400,note_on,80,0,1,,,,,,,,,,,,,,,0,,,69,46
154480,note_on,80,0,1,,,,,,,,,,,,,,,0,,,69,0
154560,set_tempo,480,1,0,,,,,,,,,,,,613434,,,,,,,
154560,note_on,480,0,2,,,,,,,,,,,,,,,0,,,53,29
154560,note_on,80,0,1,,,,,,,,,,,,,,,0,,,65,51
154560,note_on,0,0,2,,,,,,,,,,,,,,,0,,,60,35
154560,note_on,0,0,2,,,,,,,,,,,,,,,0,,,57,29
154640,note_on,80,0,1,,,,,,,,,,,,,,,0,,,65,0
154720,note_on,80,0,1,,,,,,,,,,,,,,,0,,,69,46
154800,note_on,240,0,2,,,,,,,,,,,,,,,0,,,60,0
154800,note_on,0,0,2,,,,,,,,,,,,,,,0,,,57,0
154800,note_on,0,0,2,,,,,,,,,,,,,,,0,,,53,0
154800,note_on,80,0,1,,,,,,,,,,,,,,,0,,,69,0
154880,note_on,80,0,1,,,,,,,,,,,,,,,0,,,72,46
154960,note_on,80,0,1,,,,,,,,,,,,,,,0,,,72,0
155040,note_on,240,0,2,,,,,,,,,,,,,,,0,,,53,29
155040,note_on,0,0,2,,,,,,,,,,,,,,,0,,,63,35
155040,note_on,80,0,1,,,,,,,,,,,,,,,0,,,69,53
155040,set_tempo,480,1,0,,,,,,,,,,,,630451,,,,,,,
155040,note_on,0,0,2,,,,,,,,,,,,,,,0,,,60,29
155120,note_on,80,0,1,,,,,,,,,,,,,,,0,,,69,0
155200,note_on,80,0,1,,,,,,,,,,,,,,,0,,,72,50
155280,note_on,80,0,1,,,,,,,,,,,,,,,0,,,72,0
155280,note_on,0,0,2,,,,,,,,,,,,,,,0,,,53,0
155280,note_on,0,0,2,,,,,,,,,,,,,,,0,,,60,0
155280,note_on,240,0,2,,,,,,,,,,,,,,,0,,,63,0
155360,note_on,80,0,1,,,,,,,,,,,,,,,0,,,77,50
155440,note_on,80,0,1,,,,,,,,,,,,,,,0,,,77,0
155520,note_on,0,0,2,,,,,,,,,,,,,,,0,,,53,32
155520,control_change,240,0,2,,,,,,,,,,,,,,,0,64,0,,
155520,note_on,80,0,1,,,,,,,,,,,,,,,0,,,77,53
155520,note_on,0,0,2,,,,,,,,,,,,,,,0,,,58,32
155520,note_on,0,0,2,,,,,,,,,,,,,,,0,,,62,38
155520,set_tempo,480,1,0,,,,,,,,,,,,648298,,,,,,,
155580,control_change,60,0,2,,,,,,,,,,,,,,,0,64,127,,
155680,note_on,0,0,1,,,,,,,,,,,,,,,0,,,86,49
155680,note_on,160,0,1,,,,,,,,,,,,,,,0,,,77,0
155760,set_tempo,240,1,0,,,,,,,,,,,,606919,,,,,,,
155764,control_change,184,0,2,,,,,,,,,,,,,,,0,64,0,,
155840,note_on,0,0,1,,,,,,,,,,,,,,,0,,,82,49
155840,note_on,160,0,1,,,,,,,,,,,,,,,0,,,86,0
155920,note_on,80,0,1,,,,,,,,,,,,,,,0,,,82,0
156000,note_on,0,0,2,,,,,,,,,,,,,,,0,,,53,0
156000,note_on,236,0,2,,,,,,,,,,,,,,,0,,,62,0
156000,note_on,80,0,1,,,,,,,,,,,,,,,0,,,77,53
156000,note_on,0,0,2,,,,,,,,,,,,,,,0,,,58,0
156080,note_on,80,0,1,,,,,,,,,,,,,,,0,,,77,0
156160,note_on,80,0,1,,,,,,,,,,,,,,,0,,,74,48
156240,note_on,80,0,1,,,,,,,,,,,,,,,0,,,74,0
156320,note_on,80,0,1,,,,,,,,,,,,,,,0,,,70,46
156400,note_on,80,0,1,,,,,,,,,,,,,,,0,,,70,0
156480,note_on,480,0,2,,,,,,,,,,,,,,,0,,,53,29
156480,note_on,0,0,2,,,,,,,,,,,,,,,0,,,58,29
156480,note_on,0,0,2,,,,,,,,,,,,,,,0,,,62,35
156480,note_on,80,0,1,,,,,,,,,,,,,,,0,,,65,51
156560,note_on,80,0,1,,,,,,,,,,,,,,,0,,,65,0
156640,note_on,80,0,1,,,,,,,,,,,,,,,0,,,70,46
156720,note_on,0,0,2,,,,,,,,,,,,,,,0,,,58,0
156720,note_on,0,0,2,,,,,,,,,,,,,,,0,,,53,0
156720,note_on,240,0,2,,,,,,,,,,,,,,,0,,,62,0
156720,note_on,80,0,1,,,,,,,,,,,,,,,0,,,70,0
156800,note_on,80,0,1,,,,,,,,,,,,,,,0,,,74,46
156880,note_on,80,0,1,,,,,,,,,,,,,,,0,,,74,0
156960,set_tempo,1200,1,0,,,,,,,,,,,,620155,,,,,,,
156960,note_on,80,0,1,,,,,,,,,,,,,,,0,,,70,53
156960,note_on,0,0,2,,,,,,,,,,,,,,,0,,,62,29
156960,note_on,240,0,2,,,,,,,,,,,,,,,0,,,53,29
156960,note_on,0,0,2,,,,,,,,,,,,,,,0,,,65,35
157040,note_on,80,0,1,,,,,,,,,,,,,,,0,,,70,0
157120,note_on,80,0,1,,,,,,,,,,,,,,,0,,,74,50
157200,note_on,80,0,1,,,,,,,,,,,,,,,0,,,74,0
157200,note_on,0,0,2,,,,,,,,,,,,,,,0,,,53,0
157200,note_on,0,0,2,,,,,,,,,,,,,,,0,,,62,0
157200,note_on,240,0,2,,,,,,,,,,,,,,,0,,,65,0
157280,note_on,80,0,1,,,,,,,,,,,,,,,0,,,77,50
157360,note_on,80,0,1,,,,,,,,,,,,,,,0,,,77,0
157440,set_tempo,480,1,0,,,,,,,,,,,,652032,,,,,,,
157440,note_on,0,0,2,,,,,,,,,,,,,,,0,,,53,32
157440,note_on,80,0,1,,,,,,,,,,,,,,,0,,,77,53
157440,note_on,0,0,2,,,,,,,,,,,,,,,0,,,57,32
157440,note_on,0,0,2,,,,,,,,,,,,,,,0,,,60,38
157440,control_change,240,0,2,,,,,,,,,,,,,,,0,64,0,,
157500,control_change,60,0,2,,,,,,,,,,,,,,,0,64,127,,
157600,note_on,160,0,1,,,,,,,,,,,,,,,0,,,77,0
157600,note_on,0,0,1,,,,,,,,,,,,,,,0,,,89,49
157680,set_tempo,240,1,0,,,,,,,,,,,,606919,,,,,,,
157684,control_change,184,0,2,,,,,,,,,,,,,,,0,64,0,,
157760,note_on,160,0,1,,,,,,,,,,,,,,,0,,,89,0
157760,note_on,0,0,1,,,,,,,,,,,,,,,0,,,84,49
157840,note_on,80,0,1,,,,,,,,,,,,,,,0,,,84,0
157920,note_on,0,0,2,,,,,,,,,,,,,,,0,,,53,0
157920,note_on,0,0,2,,,,,,,,,,,,,,,0,,,57,0
157920,note_on,80,0,1,,,,,,,,,,,,,,,0,,,81,53
157920,note_on,236,0,2,,,,,,,,,,,,,,,0,,,60,0
158000,note_on,80,0,1,,,,,,,,,,,,,,,0,,,81,0
158080,note_on,80,0,1,,,,,,,,,,,,,,,0,,,77,48
158160,note_on,80,0,1,,,,,,,,,,,,,,,0,,,77,0
158240,note_on,80,0,1,,,,,,,,,,,,,,,0,,,72,46
158320,note_on,80,0,1,,,,,,,,,,,,,,,0,,,72,0
158400,note_on,480,0,2,,,,,,,,,,,,,,,0,,,53,29
158400,note_on,80,0,1,,,,,,,,,,,,,,,0,,,69,51
158400,note_on,0,0,2,,,,,,,,,,,,,,,0,,,57,35
158480,note_on,80,0,1,,,,,,,,,,,,,,,0,,,69,0
158560,note_on,80,0,1,,,,,,,,,,,,,,,0,,,65,46
158640,note_on,80,0,1,,,,,,,,,,,,,,,0,,,65,0
158640,note_on,240,0,2,,,,,,,,,,,,,,,0,,,57,0
158640,note_on,0,0,2,,,,,,,,,,,,,,,0,,,53,0
158720,note_on,80,0,1,,,,,,,,,,,,,,,0,,,60,46
158800,note_on,80,0,1,,,,,,,,,,,,,,,0,,,60,0
158880,set_tempo,1200,1,0,,,,,,,,,,,,613434,,,,,,,
158880,note_on,80,0,1,,,,,,,,,,,,,,,0,,,65,53
158880,note_on,240,0,2,,,,,,,,,,,,,,,0,,,57,29
158880,note_on,0,0,2,,,,,,,,,,,,,,,0,,,60,35
158960,note_on,80,0,1,,,,,,,,,,,,,,,0,,,65,0
159040,note_on,80,0,1,,,,,,,,,,,,,,,0,,,69,50
159120,note_on,240,0,2,,,,,,,,,,,,,,,0,,,60,0
159120,note_on,0,0,2,,,,,,,,,,,,,,,0,,,57,0
159120,note_on,80,0,1,,,,,,,,,,,,,,,0,,,69,0
159200,note_on,80,0,1,,,,,,,,,,,,,,,0,,,72,50
159280,note_on,80,0,1,,,,,,,,,,,,,,,0,,,72,0
159360,note_on,80,0,1,,,,,,,,,,,,,,,0,,,72,51
159360,note_on,0,0,2,,,,,,,,,,,,,,,0,,,60,35
159360,note_on,0,0,2,,,,,,,,,,,,,,,0,,,57,29
159360,note_on,240,0,2,,,,,,,,,,,,,,,0,,,48,29
159371,control_change,11,0,2,,,,,,,,,,,,,,,0,64,127,,
159520,note_on,160,0,1,,,,,,,,,,,,,,,0,,,72,0
159520,note_on,0,0,1,,,,,,,,,,,,,,,0,,,77,47
159600,note_on,0,0,2,,,,,,,,,,,,,,,0,,,57,0
159600,note_on,229,0,2,,,,,,,,,,,,,,,0,,,60,0
159600,note_on,0,0,2,,,,,,,,,,,,,,,0,,,48,0
159680,note_on,0,0,1,,,,,,,,,,,,,,,0,,,77,47
159680,note_on,160,0,1,,,,,,,,,,,,,,,0,,,77,0
159692,control_change,92,0,2,,,,,,,,,,,,,,,0,64,0,,
159760,note_on,80,0,1,,,,,,,,,,,,,,,0,,,77,0
159840,note_on,148,0,2,,,,,,,,,,,,,,,0,,,48,28
159840,note_on,0,0,2,,,,,,,,,,,,,,,0,,,62,34
159840,note_on,0,0,2,,,,,,,,,,,,,,,0,,,58,28
159840,note_on,80,0,1,,,,,,,,,,,,,,,0,,,74,51
159840,set_tempo,960,1,0,,,,,,,,,,,,623506,,,,,,,
159872,control_change,32,0,2,,,,,,,,,,,,,,,0,64,127,,
160000,note_on,160,0,1,,,,,,,,,,,,,,,0,,,74,0
160000,note_on,0,0,1,,,,,,,,,,,,,,,0,,,79,48
160080,note_on,208,0,2,,,,,,,,,,,,,,,0,,,58,0
160080,note_on,0,0,2,,,,,,,,,,,,,,,0,,,62,0
160080,note_on,0,0,2,,,,,,,,,,,,,,,0,,,48,0
160160,note_on,160,0,1,,,,,,,,,,,,,,,0,,,79,0
160160,note_on,0,0,1,,,,,,,,,,,,,,,0,,,79,48
160161,control_change,81,0,2,,,,,,,,,,,,,,,0,64,0,,
160240,note_on,80,0,1,,,,,,,,,,,,,,,0,,,79,0
160320,note_on,159,0,2,,,,,,,,,,,,,,,0,,,48,28
160320,note_on,0,0,2,,,,,,,,,,,,,,,0,,,57,28
160320,note_on,80,0,1,,,,,,,,,,,,,,,0,,,72,51
160320,note_on,0,0,2,,,,,,,,,,,,,,,0,,,60,33
160345,control_change,25,0,2,,,,,,,,,,,,,,,0,64,127,,
160480,note_on,160,0,1,,,,,,,,,,,,,,,0,,,72,0
160480,note_on,0,0,1,,,,,,,,,,,,,,,0,,,77,47
160560,note_on,215,0,2,,,,,,,,,,,,,,,0,,,60,0
160560,note_on,0,0,2,,,,,,,,,,,,,,,0,,,57,0
160560,note_on,0,0,2,,,,,,,,,,,,,,,0,,,48,0
160640,note_on,0,0,1,,,,,,,,,,,,,,,0,,,77,47
160640,note_on,160,0,1,,,,,,,,,,,,,,,0,,,77,0
160669,control_change,109,0,2,,,,,,,,,,,,,,,0,64,0,,
160720,note_on,80,0,1,,,,,,,,,,,,,,,0,,,77,0
160800,note_on,80,0,1,,,,,,,,,,,,,,,0,,,72,51
160800,note_on,0,0,2,,,,,,,,,,,,,,,0,,,58,34
160800,note_on,131,0,2,,,,,,,,,,,,,,,0,,,48,28
160800,note_on,0,0,2,,,,,,,,,,,,,,,0,,,55,28
160804,control_change,4,0,2,,,,,,,,,,,,,,,0,64,127,,
160960,note_on,0,0,1,,,,,,,,,,,,,,,0,,,76,47
160960,note_on,160,0,1,,,,,,,,,,,,,,,0,,,72,0
161040,note_on,0,0,2,,,,,,,,,,,,,,,0,,,55,0
161040,note_on,236,0,2,,,,,,,,,,,,,,,0,,,58,0
161040,note_on,0,0,2,,,,,,,,,,,,,,,0,,,48,0
161120,note_on,0,0,1,,,,,,,,,,,,,,,0,,,76,47
161120,note_on,160,0,1,,,,,,,,,,,,,,,0,,,76,0
161125,control_change,85,0,2,,,,,,,,,,,,,,,0,64,0,,
161200,note_on,80,0,1,,,,,,,,,,,,,,,0,,,76,0
161280,note_on,155,0,2,,,,,,,,,,,,,,,0,,,48,29
161280,note_on,0,0,2,,,,,,,,,,,,,,,0,,,54,29
161280,set_tempo,1440,1,0,,,,,,,,,,,,623506,,,,,,,
161280,note_on,80,0,1,,,,,,,,,,,,,,,0,,,72,51
161280,note_on,0,0,2,,,,,,,,,,,,,,,0,,,57,35
161326,control_change,46,0,2,,,,,,,,,,,,,,,0,64,127,,
161440,note_on,0,0,1,,,,,,,,,,,,,,,0,,,75,47
161440,note_on,160,0,1,,,,,,,,,,,,,,,0,,,72,0
161520,note_on,0,0,2,,,,,,,,,,,,,,,0,,,54,0
161520,note_on,0,0,2,,,,,,,,,,,,,,,0,,,48,0
161520,note_on,194,0,2,,,,,,,,,,,,,,,0,,,57,0
161600,note_on,0,0,1,,,,,,,,,,,,,,,0,,,75,47
161600,note_on,160,0,1,,,,,,,,,,,,,,,0,,,75,0
161629,control_change,109,0,2,,,,,,,,,,,,,,,0,64,0,,
161680,note_on,80,0,1,,,,,,,,,,,,,,,0,,,75,0
161760,note_on,0,0,2,,,,,,,,,,,,,,,0,,,54,28
161760,note_on,0,0,2,,,,,,,,,,,,,,,0,,,57,35
161760,note_on,131,0,2,,,,,,,,,,,,,,,0,,,48,28
161760,note_on,80,0,1,,,,,,,,,,,,,,,0,,,72,52
161792,control_change,32,0,2,,,,,,,,,,,,,,,0,64,127,,
161920,note_on,0,0,1,,,,,,,,,,,,,,,0,,,74,50
161920,note_on,160,0,1,,,,,,,,,,,,,,,0,,,72,0
162000,note_on,0,0,2,,,,,,,,,,,,,,,0,,,48,0
162000,note_on,208,0,2,,,,,,,,,,,,,,,0,,,54,0
162000,note_on,0,0,2,,,,,,,,,,,,,,,0,,,57,0
162080,note_on,0,0,1,,,,,,,,,,,,,,,0,,,74,50
162080,note_on,160,0,1,,,,,,,,,,,,,,,0,,,74,0
162120,control_change,120,0,2,,,,,,,,,,,,,,,0,64,0,,
162160,note_on,80,0,1,,,,,,,,,,,,,,,0,,,74,0
162240,note_on,120,0,2,,,,,,,,,,,,,,,0,,,48,29
162240,note_on,0,0,1,,,,,,,,,,,,,,,0,,,69,54
162240,note_on,0,0,2,,,,,,,,,,,,,,,0,,,54,29
162240,note_on,0,0,2,,,,,,,,,,,,,,,0,,,57,35
162240,note_on,80,0,1,,,,,,,,,,,,,,,0,,,66,46
162291,control_change,51,0,2,,,,,,,,,,,,,,,0,64,127,,
162400,note_on,160,0,1,,,,,,,,,,,,,,,0,,,69,0
162400,note_on,0,0,1,,,,,,,,,,,,,,,0,,,66,0
162400,note_on,0,0,1,,,,,,,,,,,,,,,0,,,75,50
162480,note_on,0,0,2,,,,,,,,,,,,,,,0,,,48,0
162480,note_on,0,0,2,,,,,,,,,,,,,,,0,,,54,0
162480,note_on,189,0,2,,,,,,,,,,,,,,,0,,,57,0
162560,note_on,160,0,1,,,,,,,,,,,,,,,0,,,75,0
162560,note_on,0,0,1,,,,,,,,,,,,,,,0,,,75,51
162593,control_change,113,0,2,,,,,,,,,,,,,,,0,64,0,,
162640,note_on,80,0,1,,,,,,,,,,,,,,,0,,,75,0
162720,note_on,0,0,1,,,,,,,,,,,,,,,0,,,69,56
162720,note_on,127,0,2,,,,,,,,,,,,,,,0,,,48,31
162720,note_on,0,0,2,,,,,,,,,,,,,,,0,,,54,31
162720,note_on,0,0,2,,,,,,,,,,,,,,,0,,,57,37
162720,note_on,80,0,1,,,,,,,,,,,,,,,0,,,66,47
162777,control_change,57,0,2,,,,,,,,,,,,,,,0,64,127,,
162880,note_on,160,0,1,,,,,,,,,,,,,,,0,,,69,0
162880,note_on,0,0,1,,,,,,,,,,,,,,,0,,,74,52
162880,note_on,0,0,1,,,,,,,,,,,,,,,0,,,66,0
162960,note_on,183,0,2,,,,,,,,,,,,,,,0,,,57,0
162960,note_on,0,0,2,,,,,,,,,,,,,,,0,,,48,0
162960,note_on,0,0,2,,,,,,,,,,,,,,,0,,,54,0
163040,note_on,160,0,1,,,,,,,,,,,,,,,0,,,74,0
163040,note_on,0,0,1,,,,,,,,,,,,,,,0,,,74,53
163119,control_change,159,0,2,,,,,,,,,,,,,,,0,64,0,,
163120,note_on,80,0,1,,,,,,,,,,,,,,,0,,,74,0
163200,note_on,0,0,2,,,,,,,,,,,,,,,0,,,53,33
163200,note_on,81,0,2,,,,,,,,,,,,,,,0,,,46,33
163200,set_tempo,1920,1,0,,,,,,,,,,,,623506,,,,,,,
163200,note_on,80,0,1,,,,,,,,,,,,,,,0,,,65,49
163200,note_on,0,0,1,,,,,,,,,,,,,,,0,,,70,58
163200,note_on,0,0,2,,,,,,,,,,,,,,,0,,,58,40
163263,control_change,63,0,2,,,,,,,,,,,,,,,0,64,127,,
163360,note_on,160,0,1,,,,,,,,,,,,,,,0,,,70,0
163360,note_on,0,0,1,,,,,,,,,,,,,,,0,,,75,54
163360,note_on,0,0,1,,,,,,,,,,,,,,,0,,,65,0
163400,set_tempo,200,1,0,,,,,,,,,,,,626894,,,,,,,
163440,note_on,177,0,2,,,,,,,,,,,,,,,0,,,58,0
163440,note_on,0,0,2,,,,,,,,,,,,,,,0,,,53,0
163440,note_on,0,0,2,,,,,,,,,,,,,,,0,,,46,0
163520,note_on,0,0,1,,,,,,,,,,,,,,,0,,,75,54
163520,note_on,160,0,1,,,,,,,,,,,,,,,0,,,75,0
163553,control_change,113,0,2,,,,,,,,,,,,,,,0,64,0,,
163560,set_tempo,160,1,0,,,,,,,,,,,,630451,,,,,,,
163600,note_on,80,0,1,,,,,,,,,,,,,,,0,,,75,0
163680,note_on,0,0,2,,,,,,,,,,,,,,,0,,,53,31
163680,note_on,0,0,2,,,,,,,,,,,,,,,0,,,58,38
163680,note_on,127,0,2,,,,,,,,,,,,,,,0,,,46,31
163680,note_on,0,0,1,,,,,,,,,,,,,,,0,,,70,58
163680,note_on,80,0,1,,,,,,,,,,,,,,,0,,,65,49
163712,control_change,32,0,2,,,,,,,,,,,,,,,0,64,127,,
163720,set_tempo,160,1,0,,,,,,,,,,,,633914,,,,,,,
163840,note_on,160,0,1,,,,,,,,,,,,,,,0,,,70,0
163840,note_on,0,0,1,,,,,,,,,,,,,,,0,,,65,0
163840,note_on,0,0,1,,,,,,,,,,,,,,,0,,,74,54
163920,set_tempo,200,1,0,,,,,,,,,,,,637416,,,,,,,
163920,note_on,0,0,2,,,,,,,,,,,,,,,0,,,46,0
163920,note_on,208,0,2,,,,,,,,,,,,,,,0,,,53,0
163920,note_on,0,0,2,,,,,,,,,,,,,,,0,,,58,0
164000,note_on,0,0,1,,,,,,,,,,,,,,,0,,,74,54
164000,note_on,160,0,1,,,,,,,,,,,,,,,0,,,74,0
164040,control_change,120,0,2,,,,,,,,,,,,,,,0,64,0,,
164080,set_tempo,160,1,0,,,,,,,,,,,,641026,,,,,,,
164080,note_on,80,0,1,,,,,,,,,,,,,,,0,,,74,0
164160,note_on,120,0,2,,,,,,,,,,,,,,,0,,,48,31
164160,note_on,0,0,2,,,,,,,,,,,,,,,0,,,53,31
164160,note_on,0,0,2,,,,,,,,,,,,,,,0,,,57,37
164160,note_on,0,0,1,,,,,,,,,,,,,,,0,,,69,57
164160,note_on,80,0,1,,,,,,,,,,,,,,,0,,,65,48
164211,control_change,51,0,2,,,,,,,,,,,,,,,0,64,127,,
164240,set_tempo,160,1,0,,,,,,,,,,,,644676,,,,,,,
164320,note_on,0,0,1,,,,,,,,,,,,,,,0,,,72,53
164320,note_on,160,0,1,,,,,,,,,,,,,,,0,,,69,0
164320,note_on,0,0,1,,,,,,,,,,,,,,,0,,,65,0
164400,set_tempo,160,1,0,,,,,,,,,,,,648298,,,,,,,
164400,note_on,189,0,2,,,,,,,,,,,,,,,0,,,57,0
164400,note_on,0,0,2,,,,,,,,,,,,,,,0,,,53,0
164400,note_on,0,0,2,,,,,,,,,,,,,,,0,,,48,0
164480,note_on,160,0,1,,,,,,,,,,,,,,,0,,,72,0
164480,note_on,0,0,1,,,,,,,,,,,,,,,0,,,72,52
164560,note_on,80,0,1,,,,,,,,,,,,,,,0,,,72,0
164562,control_change,162,0,2,,,,,,,,,,,,,,,0,64,0,,
164600,set_tempo,200,1,0,,,,,,,,,,,,652032,,,,,,,
164640,note_on,0,0,2,,,,,,,,,,,,,,,0,,,58,38
164640,note_on,80,0,1,,,,,,,,,,,,,,,0,,,64,48
164640,note_on,0,0,1,,,,,,,,,,,,,,,0,,,67,57
164640,note_on,0,0,2,,,,,,,,,,,,,,,0,,,55,31
164640,note_on,78,0,2,,,,,,,,,,,,,,,0,,,48,31
164697,control_change,57,0,2,,,,,,,,,,,,,,,0,64,127,,
164760,set_tempo,160,1,0,,,,,,,,,,,,655738,,,,,,,
164800,note_on,0,0,1,,,,,,,,,,,,,,,0,,,72,52
164800,note_on,160,0,1,,,,,,,,,,,,,,,0,,,67,0
164800,note_on,0,0,1,,,,,,,,,,,,,,,0,,,64,0
164880,note_on,183,0,2,,,,,,,,,,,,,,,0,,,58,0
164880,note_on,0,0,2,,,,,,,,,,,,,,,0,,,55,0
164880,note_on,0,0,2,,,,,,,,,,,,,,,0,,,48,0
164920,set_tempo,160,1,0,,,,,,,,,,,,659631,,,,,,,
164960,note_on,160,0,1,,,,,,,,,,,,,,,0,,,72,0
164960,note_on,0,0,1,,,,,,,,,,,,,,,0,,,72,52
164989,control_change,109,0,2,,,,,,,,,,,,,,,0,64,0,,
165040,note_on,80,0,1,,,,,,,,,,,,,,,0,,,72,0
165080,set_tempo,160,1,0,,,,,,,,,,,,663423,,,,,,,
165120,note_on,80,0,1,,,,,,,,,,,,,,,0,,,65,41
165120,note_on,0,0,1,,,,,,,,,,,,,,,0,,,69,41
165120,note_on,0,0,1,,,,,,,,,,,,,,,0,,,72,49
165120,set_tempo,40,1,0,,,,,,,,,,,,687364,,,,,,,
165120,note_on,131,0,2,,,,,,,,,,,,,,,0,,,53,47
165160,set_tempo,40,1,0,,,,,,,,,,,,652032,,,,,,,
165280,note_on,160,0,2,,,,,,,,,,,,,,,0,,,53,0
165280,note_on,0,0,2,,,,,,,,,,,,,,,0,,,60,44
165360,set_tempo,200,1,0,,,,,,,,,,,,606919,,,,,,,
165440,note_on,0,0,2,,,,,,,,,,,,,,,0,,,57,44
165440,note_on,160,0,2,,,,,,,,,,,,,,,0,,,60,0
165520,note_on,80,0,2,,,,,,,,,,,,,,,0,,,57,0
165600,note_on,0,0,1,,,,,,,,,,,,,,,0,,,65,0
165600,note_on,480,0,1,,,,,,,,,,,,,,,0,,,72,0
165600,note_on,80,0,2,,,,,,,,,,,,,,,0,,,53,47
165600,note_on,0,0,1,,,,,,,,,,,,,,,0,,,69,0
165680,note_on,80,0,2,,,,,,,,,,,,,,,0,,,53,0
165760,note_on,80,0,2,,,,,,,,,,,,,,,0,,,48,43
165840,note_on,80,0,2,,,,,,,,,,,,,,,0,,,48,0
165920,note_on,80,0,2,,,,,,,,,,,,,,,0,,,45,41
166000,note_on,80,0,2,,,,,,,,,,,,,,,0,,,45,0
166080,set_tempo,720,1,0,,,,,,,,,,,,610190,,,,,,,
166080,note_on,480,0,1,,,,,,,,,,,,,,,0,,,77,49
166080,note_on,0,0,1,,,,,,,,,,,,,,,0,,,69,40
166080,note_on,0,0,1,,,,,,,,,,,,,,,0,,,72,40
166080,note_on,80,0,2,,,,,,,,,,,,,,,0,,,41,45
166160,note_on,80,0,2,,,,,,,,,,,,,,,0,,,41,0
166240,note_on,80,0,2,,,,,,,,,,,,,,,0,,,45,41
166320,note_on,0,0,1,,,,,,,,,,,,,,,0,,,77,0
166320,note_on,0,0,1,,,,,,,,,,,,,,,0,,,69,0
166320,note_on,240,0,1,,,,,,,,,,,,,,,0,,,72,0
166320,note_on,80,0,2,,,,,,,,,,,,,,,0,,,45,0
166400,note_on,80,0,2,,,,,,,,,,,,,,,0,,,48,41
166480,note_on,80,0,2,,,,,,,,,,,,,,,0,,,48,0
166560,note_on,0,0,1,,,,,,,,,,,,,,,0,,,75,40
166560,note_on,240,0,1,,,,,,,,,,,,,,,0,,,72,40
166560,note_on,0,0,1,,,,,,,,,,,,,,,0,,,77,49
166560,set_tempo,480,1,0,,,,,,,,,,,,626894,,,,,,,
166560,note_on,80,0,2,,,,,,,,,,,,,,,0,,,45,47
166600,set_tempo,40,1,0,,,,,,,,,,,,623506,,,,,,,
166640,note_on,80,0,2,,,,,,,,,,,,,,,0,,,45,0
166720,note_on,80,0,2,,,,,,,,,,,,,,,0,,,48,45
166800,note_on,80,0,2,,,,,,,,,,,,,,,0,,,48,0
166800,note_on,240,0,1,,,,,,,,,,,,,,,0,,,77,0
166800,note_on,0,0,1,,,,,,,,,,,,,,,0,,,72,0
166800,note_on,0,0,1,,,,,,,,,,,,,,,0,,,75,0
166880,note_on,80,0,2,,,,,,,,,,,,,,,0,,,53,45
166960,note_on,80,0,2,,,,,,,,,,,,,,,0,,,53,0
167040,set_tempo,440,1,0,,,,,,,,,,,,641026,,,,,,,
167040,note_on,80,0,2,,,,,,,,,,,,,,,0,,,53,47
167040,note_on,0,0,1,,,,,,,,,,,,,,,0,,,77,53
167040,note_on,0,0,1,,,,,,,,,,,,,,,0,,,74,45
167040,note_on,240,0,1,,,,,,,,,,,,,,,0,,,70,45
167200,note_on,0,0,2,,,,,,,,,,,,,,,0,,,62,44
167200,note_on,160,0,2,,,,,,,,,,,,,,,0,,,53,0
167280,set_tempo,240,1,0,,,,,,,,,,,,606919,,,,,,,
167360,note_on,160,0,2,,,,,,,,,,,,,,,0,,,62,0
167360,note_on,0,0,2,,,,,,,,,,,,,,,0,,,58,44
167440,note_on,80,0,2,,,,,,,,,,,,,,,0,,,58,0
167520,note_on,0,0,1,,,,,,,,,,,,,,,0,,,70,0
167520,note_on,480,0,1,,,,,,,,,,,,,,,0,,,77,0
167520,note_on,80,0,2,,,,,,,,,,,,,,,0,,,53,47
167520,note_on,0,0,1,,,,,,,,,,,,,,,0,,,74,0
167600,note_on,80,0,2,,,,,,,,,,,,,,,0,,,53,0
167680,note_on,80,0,2,,,,,,,,,,,,,,,0,,,50,43
167760,note_on,80,0,2,,,,,,,,,,,,,,,0,,,50,0
167840,note_on,80,0,2,,,,,,,,,,,,,,,0,,,46,41
167920,note_on,80,0,2,,,,,,,,,,,,,,,0,,,46,0
168000,note_on,0,0,1,,,,,,,,,,,,,,,0,,,74,40
168000,note_on,0,0,1,,,,,,,,,,,,,,,0,,,77,49
168000,note_on,480,0,1,,,,,,,,,,,,,,,0,,,70,40
168000,note_on,80,0,2,,,,,,,,,,,,,,,0,,,41,45
168000,set_tempo,720,1,0,,,,,,,,,,,,613434,,,,,,,
168080,note_on,80,0,2,,,,,,,,,,,,,,,0,,,41,0
168160,note_on,80,0,2,,,,,,,,,,,,,,,0,,,46,41
168240,note_on,80,0,2,,,,,,,,,,,,,,,0,,,46,0
168240,note_on,240,0,1,,,,,,,,,,,,,,,0,,,77,0
168240,note_on,0,0,1,,,,,,,,,,,,,,,0,,,74,0
168240,note_on,0,0,1,,,,,,,,,,,,,,,0,,,70,0
168320,note_on,80,0,2,,,,,,,,,,,,,,,0,,,50,41
168400,note_on,80,0,2,,,,,,,,,,,,,,,0,,,50,0
168480,set_tempo,480,1,0,,,,,,,,,,,,623506,,,,,,,
168480,note_on,240,0,1,,,,,,,,,,,,,,,0,,,74,40
168480,note_on,0,0,1,,,,,,,,,,,,,,,0,,,77,49
168480,note_on,80,0,2,,,,,,,,,,,,,,,0,,,46,47
168560,note_on,80,0,2,,,,,,,,,,,,,,,0,,,46,0
168640,note_on,80,0,2,,,,,,,,,,,,,,,0,,,50,45
168720,note_on,0,0,1,,,,,,,,,,,,,,,0,,,74,0
168720,note_on,240,0,1,,,,,,,,,,,,,,,0,,,77,0
168720,note_on,80,0,2,,,,,,,,,,,,,,,0,,,50,0
168800,note_on,80,0,2,,,,,,,,,,,,,,,0,,,53,45
168880,note_on,80,0,2,,,,,,,,,,,,,,,0,,,53,0
168960,note_on,80,0,2,,,,,,,,,,,,,,,0,,,53,47
168960,note_on,240,0,1,,,,,,,,,,,,,,,0,,,69,45
168960,note_on,0,0,1,,,,,,,,,,,,,,,0,,,72,45
168960,note_on,0,0,1,,,,,,,,,,,,,,,0,,,77,53
168960,set_tempo,480,1,0,,,,,,,,,,,,652032,,,,,,,
169120,note_on,160,0,2,,,,,,,,,,,,,,,0,,,53,0
169120,note_on,0,0,2,,,,,,,,,,,,,,,0,,,65,44
169200,set_tempo,240,1,0,,,,,,,,,,,,606919,,,,,,,
169280,note_on,160,0,2,,,,,,,,,,,,,,,0,,,65,0
169280,note_on,0,0,2,,,,,,,,,,,,,,,0,,,60,44
169360,note_on,80,0,2,,,,,,,,,,,,,,,0,,,60,0
169440,note_on,0,0,1,,,,,,,,,,,,,,,0,,,69,0
169440,note_on,0,0,1,,,,,,,,,,,,,,,0,,,72,0
169440,note_on,480,0,1,,,,,,,,,,,,,,,0,,,77,0
169440,note_on,80,0,2,,,,,,,,,,,,,,,0,,,57,47
169520,note_on,80,0,2,,,,,,,,,,,,,,,0,,,57,0
169600,note_on,80,0,2,,,,,,,,,,,,,,,0,,,53,43
169680,note_on,80,0,2,,,,,,,,,,,,,,,0,,,53,0
169760,note_on,80,0,2,,,,,,,,,,,,,,,0,,,48,41
169840,note_on,80,0,2,,,,,,,,,,,,,,,0,,,48,0
169920,note_on,0,0,1,,,,,,,,,,,,,,,0,,,81,53
169920,note_on,480,0,1,,,,,,,,,,,,,,,0,,,72,44
169920,note_on,0,0,1,,,,,,,,,,,,,,,0,,,77,44
169920,note_on,80,0,2,,,,,,,,,,,,,,,0,,,45,45
169920,set_tempo,720,1,0,,,,,,,,,,,,616776,,,,,,,
170000,note_on,80,0,2,,,,,,,,,,,,,,,0,,,45,0
170080,note_on,80,0,2,,,,,,,,,,,,,,,0,,,41,41
170160,note_on,240,0,1,,,,,,,,,,,,,,,0,,,81,0
170160,note_on,0,0,1,,,,,,,,,,,,,,,0,,,77,0
170160,note_on,0,0,1,,,,,,,,,,,,,,,0,,,72,0
170160,note_on,80,0,2,,,,,,,,,,,,,,,0,,,41,0
170240,note_on,80,0,2,,,,,,,,,,,,,,,0,,,36,41
170320,note_on,80,0,2,,,,,,,,,,,,,,,0,,,36,0
170400,note_on,80,0,2,,,,,,,,,,,,,,,0,,,41,47
170400,set_tempo,480,1,0,,,,,,,,,,,,626894,,,,,,,
170400,note_on,240,0,1,,,,,,,,,,,,,,,0,,,72,44
170400,note_on,0,0,1,,,,,,,,,,,,,,,0,,,81,44
170400,note_on,0,0,1,,,,,,,,,,,,,,,0,,,84,53
170480,note_on,80,0,2,,,,,,,,,,,,,,,0,,,41,0
170560,note_on,80,0,2,,,,,,,,,,,,,,,0,,,45,45
170640,note_on,80,0,2,,,,,,,,,,,,,,,0,,,45,0
170640,note_on,0,0,1,,,,,,,,,,,,,,,0,,,72,0
170640,note_on,0,0,1,,,,,,,,,,,,,,,0,,,81,0
170640,note_on,240,0,1,,,,,,,,,,,,,,,0,,,84,0
170720,note_on,80,0,2,,,,,,,,,,,,,,,0,,,48,45
170800,note_on,80,0,2,,,,,,,,,,,,,,,0,,,48,0
170880,note_on,240,0,1,,,,,,,,,,,,,,,0,,,84,56
170880,set_tempo,480,1,0,,,,,,,,,,,,616776,,,,,,,
170880,note_on,80,0,2,,,,,,,,,,,,,,,0,,,48,29
170880,note_on,0,0,2,,,,,,,,,,,,,,,0,,,57,29
170880,note_on,0,0,2,,,,,,,,,,,,,,,0,,,60,35
170891,control_change,11,0,2,,,,,,,,,,,,,,,0,64,127,,
171040,note_on,0,0,1,,,,,,,,,,,,,,,0,,,89,51
171040,note_on,160,0,1,,,,,,,,,,,,,,,0,,,84,0
171120,note_on,0,0,2,,,,,,,,,,,,,,,0,,,48,0
171120,note_on,0,0,2,,,,,,,,,,,,,,,0,,,57,0
171120,note_on,229,0,2,,,,,,,,,,,,,,,0,,,60,0
171200,note_on,0,0,1,,,,,,,,,,,,,,,0,,,89,51
171200,note_on,160,0,1,,,,,,,,,,,,,,,0,,,89,0
171212,control_change,92,0,2,,,,,,,,,,,,,,,0,64,0,,
171280,note_on,80,0,1,,,,,,,,,,,,,,,0,,,89,0
171360,note_on,80,0,1,,,,,,,,,,,,,,,0,,,86,56
171360,note_on,148,0,2,,,,,,,,,,,,,,,0,,,60,28
171360,note_on,0,0,2,,,,,,,,,,,,,,,0,,,74,34
171360,note_on,0,0,2,,,,,,,,,,,,,,,0,,,70,28
171392,control_change,32,0,2,,,,,,,,,,,,,,,0,64,127,,
171520,note_on,160,0,1,,,,,,,,,,,,,,,0,,,86,0
171520,note_on,0,0,1,,,,,,,,,,,,,,,0,,,91,52
171600,note_on,0,0,2,,,,,,,,,,,,,,,0,,,74,0
171600,note_on,0,0,2,,,,,,,,,,,,,,,0,,,60,0
171600,note_on,208,0,2,,,,,,,,,,,,,,,0,,,70,0
171680,note_on,160,0,1,,,,,,,,,,,,,,,0,,,91,0
171680,note_on,0,0,1,,,,,,,,,,,,,,,0,,,91,52
171681,control_change,81,0,2,,,,,,,,,,,,,,,0,64,0,,
171760,note_on,80,0,1,,,,,,,,,,,,,,,0,,,91,0
171840,note_on,80,0,1,,,,,,,,,,,,,,,0,,,84,56
171840,note_on,0,0,2,,,,,,,,,,,,,,,0,,,72,33
171840,note_on,0,0,2,,,,,,,,,,,,,,,0,,,69,28
171840,note_on,159,0,2,,,,,,,,,,,,,,,0,,,60,28
171865,control_change,25,0,2,,,,,,,,,,,,,,,0,64,127,,
172000,note_on,160,0,1,,,,,,,,,,,,,,,0,,,84,0
172000,note_on,0,0,1,,,,,,,,,,,,,,,0,,,89,51
172080,note_on,0,0,2,,,,,,,,,,,,,,,0,,,60,0
172080,note_on,0,0,2,,,,,,,,,,,,,,,0,,,69,0
172080,note_on,215,0,2,,,,,,,,,,,,,,,0,,,72,0
172160,note_on,0,0,1,,,,,,,,,,,,,,,0,,,89,51
172160,note_on,160,0,1,,,,,,,,,,,,,,,0,,,89,0
172189,control_change,109,0,2,,,,,,,,,,,,,,,0,64,0,,
172240,note_on,80,0,1,,,,,,,,,,,,,,,0,,,89,0
172320,note_on,80,0,1,,,,,,,,,,,,,,,0,,,84,56
172320,note_on,0,0,2,,,,,,,,,,,,,,,0,,,70,34
172320,note_on,0,0,2,,,,,,,,,,,,,,,0,,,67,28
172320,note_on,131,0,2,,,,,,,,,,,,,,,0,,,60,28
172324,control_change,4,0,2,,,,,,,,,,,,,,,0,64,127,,
172480,note_on,160,0,1,,,,,,,,,,,,,,,0,,,84,0
172480,note_on,0,0,1,,,,,,,,,,,,,,,0,,,88,51
172560,note_on,0,0,2,,,,,,,,,,,,,,,0,,,60,0
172560,note_on,0,0,2,,,,,,,,,,,,,,,0,,,67,0
172560,note_on,236,0,2,,,,,,,,,,,,,,,0,,,70,0
172640,note_on,160,0,1,,,,,,,,,,,,,,,0,,,88,0
172640,note_on,0,0,1,,,,,,,,,,,,,,,0,,,88,51
172645,control_change,85,0,2,,,,,,,,,,,,,,,0,64,0,,
172720,note_on,80,0,1,,,,,,,,,,,,,,,0,,,88,0
172800,note_on,0,0,2,,,,,,,,,,,,,,,0,,,66,29
172800,note_on,0,0,2,,,,,,,,,,,,,,,0,,,69,35
172800,set_tempo,1920,1,0,,,,,,,,,,,,626894,,,,,,,
172800,note_on,155,0,2,,,,,,,,,,,,,,,0,,,60,29
172800,note_on,80,0,1,,,,,,,,,,,,,,,0,,,84,56
172846,control_change,46,0,2,,,,,,,,,,,,,,,0,64,127,,
172960,note_on,160,0,1,,,,,,,,,,,,,,,0,,,84,0
172960,note_on,0,0,1,,,,,,,,,,,,,,,0,,,87,51
173040,note_on,194,0,2,,,,,,,,,,,,,,,0,,,69,0
173040,note_on,0,0,2,,,,,,,,,,,,,,,0,,,60,0
173040,note_on,0,0,2,,,,,,,,,,,,,,,0,,,66,0
173120,note_on,0,0,1,,,,,,,,,,,,,,,0,,,87,51
173120,note_on,160,0,1,,,,,,,,,,,,,,,0,,,87,0
173160,control_change,120,0,2,,,,,,,,,,,,,,,0,64,0,,
173200,note_on,80,0,1,,,,,,,,,,,,,,,0,,,87,0
173280,note_on,0,0,2,,,,,,,,,,,,,,,0,,,66,28
173280,note_on,0,0,2,,,,,,,,,,,,,,,0,,,69,35
173280,note_on,120,0,2,,,,,,,,,,,,,,,0,,,60,28
173280,note_on,80,0,1,,,,,,,,,,,,,,,0,,,84,57
173312,control_change,32,0,2,,,,,,,,,,,,,,,0,64,127,,
173440,note_on,160,0,1,,,,,,,,,,,,,,,0,,,84,0
173440,note_on,0,0,1,,,,,,,,,,,,,,,0,,,86,55
173520,note_on,0,0,2,,,,,,,,,,,,,,,0,,,60,0
173520,note_on,0,0,2,,,,,,,,,,,,,,,0,,,69,0
173520,note_on,208,0,2,,,,,,,,,,,,,,,0,,,66,0
173600,note_on,160,0,1,,,,,,,,,,,,,,,0,,,86,0
173600,note_on,0,0,1,,,,,,,,,,,,,,,0,,,86,55
173615,control_change,95,0,2,,,,,,,,,,,,,,,0,64,0,,
173680,note_on,80,0,1,,,,,,,,,,,,,,,0,,,86,0
173760,note_on,145,0,2,,,,,,,,,,,,,,,0,,,60,29
173760,note_on,0,0,2,,,,,,,,,,,,,,,0,,,66,29
173760,note_on,0,0,2,,,,,,,,,,,,,,,0,,,69,35
173760,note_on,0,0,1,,,,,,,,,,,,,,,0,,,81,58
173760,note_on,80,0,1,,,,,,,,,,,,,,,0,,,78,58
173811,control_change,51,0,2,,,,,,,,,,,,,,,0,64,127,,
173920,note_on,0,0,1,,,,,,,,,,,,,,,0,,,78,0
173920,note_on,160,0,1,,,,,,,,,,,,,,,0,,,81,0
173920,note_on,0,0,1,,,,,,,,,,,,,,,0,,,87,53
174000,note_on,0,0,2,,,,,,,,,,,,,,,0,,,60,0
174000,note_on,0,0,2,,,,,,,,,,,,,,,0,,,66,0
174000,note_on,189,0,2,,,,,,,,,,,,,,,0,,,69,0
174080,note_on,0,0,1,,,,,,,,,,,,,,,0,,,87,53
174080,note_on,160,0,1,,,,,,,,,,,,,,,0,,,87,0
174127,control_change,127,0,2,,,,,,,,,,,,,,,0,64,0,,
174160,note_on,80,0,1,,,,,,,,,,,,,,,0,,,87,0
174240,note_on,113,0,2,,,,,,,,,,,,,,,0,,,60,31
174240,note_on,0,0,2,,,,,,,,,,,,,,,0,,,66,31
174240,note_on,0,0,1,,,,,,,,,,,,,,,0,,,81,57
174240,note_on,80,0,1,,,,,,,,,,,,,,,0,,,78,48
174240,note_on,0,0,2,,,,,,,,,,,,,,,0,,,69,37
174297,control_change,57,0,2,,,,,,,,,,,,,,,0,64,127,,
174400,note_on,160,0,1,,,,,,,,,,,,,,,0,,,81,0
174400,note_on,0,0,1,,,,,,,,,,,,,,,0,,,86,54
174400,note_on,0,0,1,,,,,,,,,,,,,,,0,,,78,0
174480,note_on,183,0,2,,,,,,,,,,,,,,,0,,,69,0
174480,note_on,0,0,2,,,,,,,,,,,,,,,0,,,60,0
174480,note_on,0,0,2,,,,,,,,,,,,,,,0,,,66,0
174560,note_on,0,0,1,,,,,,,,,,,,,,,0,,,86,54
174560,note_on,160,0,1,,,,,,,,,,,,,,,0,,,86,0
174596,control_change,116,0,2,,,,,,,,,,,,,,,0,64,0,,
174640,note_on,80,0,1,,,,,,,,,,,,,,,0,,,86,0
174720,note_on,0,0,1,,,,,,,,,,,,,,,0,,,82,57
174720,note_on,80,0,1,,,,,,,,,,,,,,,0,,,77,48
174720,note_on,0,0,2,,,,,,,,,,,,,,,0,,,70,40
174720,note_on,0,0,2,,,,,,,,,,,,,,,0,,,65,33
174720,note_on,124,0,2,,,,,,,,,,,,,,,0,,,58,33
174760,set_tempo,1960,1,0,,,,,,,,,,,,630451,,,,,,,
174783,control_change,63,0,2,,,,,,,,,,,,,,,0,64,127,,
174880,note_on,0,0,1,,,,,,,,,,,,,,,0,,,77,0
174880,note_on,160,0,1,,,,,,,,,,,,,,,0,,,82,0
174880,note_on,0,0,1,,,,,,,,,,,,,,,0,,,87,52
174960,note_on,177,0,2,,,,,,,,,,,,,,,0,,,70,0
174960,note_on,0,0,2,,,,,,,,,,,,,,,0,,,65,0
174960,note_on,0,0,2,,,,,,,,,,,,,,,0,,,58,0
175040,note_on,160,0,1,,,,,,,,,,,,,,,0,,,87,0
175040,note_on,0,0,1,,,,,,,,,,,,,,,0,,,87,52
175076,control_change,116,0,2,,,,,,,,,,,,,,,0,64,0,,
175080,set_tempo,320,1,0,,,,,,,,,,,,633914,,,,,,,
175120,note_on,80,0,1,,,,,,,,,,,,,,,0,,,87,0
175200,note_on,124,0,2,,,,,,,,,,,,,,,0,,,58,31
175200,note_on,80,0,1,,,,,,,,,,,,,,,0,,,77,48
175200,note_on,0,0,1,,,,,,,,,,,,,,,0,,,82,57
175200,note_on,0,0,2,,,,,,,,,,,,,,,0,,,70,38
175200,note_on,0,0,2,,,,,,,,,,,,,,,0,,,65,31
175232,control_change,32,0,2,,,,,,,,,,,,,,,0,64,127,,
175360,set_tempo,280,1,0,,,,,,,,,,,,637416,,,,,,,
175360,note_on,0,0,1,,,,,,,,,,,,,,,0,,,77,0
175360,note_on,0,0,1,,,,,,,,,,,,,,,0,,,86,53
175360,note_on,160,0,1,,,,,,,,,,,,,,,0,,,82,0
175440,note_on,208,0,2,,,,,,,,,,,,,,,0,,,65,0
175440,note_on,0,0,2,,,,,,,,,,,,,,,0,,,70,0
175440,note_on,0,0,2,,,,,,,,,,,,,,,0,,,58,0
175520,note_on,0,0,1,,,,,,,,,,,,,,,0,,,86,52
175520,note_on,160,0,1,,,,,,,,,,,,,,,0,,,86,0
175553,control_change,113,0,2,,,,,,,,,,,,,,,0,64,0,,
175600,note_on,80,0,1,,,,,,,,,,,,,,,0,,,86,0
175680,note_on,0,0,1,,,,,,,,,,,,,,,0,,,81,57
175680,set_tempo,320,1,0,,,,,,,,,,,,641026,,,,,,,
175680,note_on,80,0,1,,,,,,,,,,,,,,,0,,,77,48
175680,note_on,127,0,2,,,,,,,,,,,,,,,0,,,60,31
175680,note_on,0,0,2,,,,,,,,,,,,,,,0,,,69,37
175680,note_on,0,0,2,,,,,,,,,,,,,,,0,,,65,31
175731,control_change,51,0,2,,,,,,,,,,,,,,,0,64,127,,
175840,note_on,160,0,1,,,,,,,,,,,,,,,0,,,81,0
175840,note_on,0,0,1,,,,,,,,,,,,,,,0,,,84,53
175840,note_on,0,0,1,,,,,,,,,,,,,,,0,,,77,0
175920,note_on,0,0,2,,,,,,,,,,,,,,,0,,,65,0
175920,note_on,0,0,2,,,,,,,,,,,,,,,0,,,60,0
175920,note_on,189,0,2,,,,,,,,,,,,,,,0,,,69,0
175960,set_tempo,280,1,0,,,,,,,,,,,,644676,,,,,,,
176000,note_on,0,0,1,,,,,,,,,,,,,,,0,,,84,49
176000,note_on,160,0,1,,,,,,,,,,,,,,,0,,,84,0
176022,control_change,102,0,2,,,,,,,,,,,,,,,0,64,0,,
176080,note_on,80,0,1,,,,,,,,,,,,,,,0,,,84,0
176160,note_on,138,0,2,,,,,,,,,,,,,,,0,,,60,31
176160,note_on,0,0,1,,,,,,,,,,,,,,,0,,,79,54
176160,note_on,0,0,2,,,,,,,,,,,,,,,0,,,70,38
176160,note_on,80,0,1,,,,,,,,,,,,,,,0,,,76,45
176160,note_on,0,0,2,,,,,,,,,,,,,,,0,,,67,31
176217,control_change,57,0,2,,,,,,,,,,,,,,,0,64,127,,
176280,set_tempo,320,1,0,,,,,,,,,,,,648298,,,,,,,
176320,note_on,0,0,1,,,,,,,,,,,,,,,0,,,84,48
176320,note_on,0,0,1,,,,,,,,,,,,,,,0,,,76,0
176320,note_on,160,0,1,,,,,,,,,,,,,,,0,,,79,0
176400,note_on,0,0,2,,,,,,,,,,,,,,,0,,,67,0
176400,note_on,183,0,2,,,,,,,,,,,,,,,0,,,70,0
176400,note_on,0,0,2,,,,,,,,,,,,,,,0,,,60,0
176480,note_on,0,0,1,,,,,,,,,,,,,,,0,,,84,48
176480,note_on,160,0,1,,,,,,,,,,,,,,,0,,,84,0
176548,control_change,148,0,2,,,,,,,,,,,,,,,0,64,0,,
176560,note_on,80,0,1,,,,,,,,,,,,,,,0,,,84,0
176560,set_tempo,280,1,0,,,,,,,,,,,,652032,,,,,,,
176640,note_on,92,0,2,,,,,,,,,,,,,,,0,,,46,26
176640,note_on,80,0,1,,,,,,,,,,,,,,,0,,,70,45
176640,note_on,0,0,2,,,,,,,,,,,,,,,0,,,55,31
176640,note_on,0,0,2,,,,,,,,,,,,,,,0,,,52,26
176640,set_tempo,80,1,0,,,,,,,,,,,,648298,,,,,,,
176686,control_change,46,0,2,,,,,,,,,,,,,,,0,64,127,,
176800,note_on,0,0,1,,,,,,,,,,,,,,,0,,,73,42
176800,note_on,160,0,1,,,,,,,,,,,,,,,0,,,70,0
176880,note_on,0,0,2,,,,,,,,,,,,,,,0,,,46,0
176880,note_on,0,0,2,,,,,,,,,,,,,,,0,,,52,0
176880,note_on,194,0,2,,,,,,,,,,,,,,,0,,,55,0
176960,note_on,0,0,1,,,,,,,,,,,,,,,0,,,73,42
176960,note_on,160,0,1,,,,,,,,,,,,,,,0,,,73,0
176982,control_change,102,0,2,,,,,,,,,,,,,,,0,64,0,,
177040,note_on,80,0,1,,,,,,,,,,,,,,,0,,,73,0
177120,note_on,138,0,2,,,,,,,,,,,,,,,0,,,46,25
177120,note_on,0,0,2,,,,,,,,,,,,,,,0,,,55,31
177120,note_on,0,0,2,,,,,,,,,,,,,,,0,,,52,25
177120,note_on,80,0,1,,,,,,,,,,,,,,,0,,,70,46
177152,control_change,32,0,2,,,,,,,,,,,,,,,0,64,127,,
177280,note_on,0,0,1,,,,,,,,,,,,,,,0,,,72,45
177280,note_on,160,0,1,,,,,,,,,,,,,,,0,,,70,0
177360,note_on,208,0,2,,,,,,,,,,,,,,,0,,,52,0
177360,note_on,0,0,2,,,,,,,,,,,,,,,0,,,55,0
177360,note_on,0,0,2,,,,,,,,,,,,,,,0,,,46,0
177440,note_on,0,0,1,,,,,,,,,,,,,,,0,,,72,45
177440,note_on,160,0,1,,,,,,,,,,,,,,,0,,,72,0
177469,control_change,109,0,2,,,,,,,,,,,,,,,0,64,0,,
177520,note_on,80,0,1,,,,,,,,,,,,,,,0,,,72,0
177600,note_on,0,0,2,,,,,,,,,,,,,,,0,,,52,26
177600,note_on,131,0,2,,,,,,,,,,,,,,,0,,,46,26
177600,note_on,0,0,2,,,,,,,,,,,,,,,0,,,55,31
177600,note_on,80,0,1,,,,,,,,,,,,,,,0,,,64,41
177600,note_on,0,0,1,,,,,,,,,,,,,,,0,,,67,48
177651,control_change,51,0,2,,,,,,,,,,,,,,,0,64,127,,
177760,note_on,160,0,1,,,,,,,,,,,,,,,0,,,67,0
177760,note_on,0,0,1,,,,,,,,,,,,,,,0,,,64,0
177760,note_on,0,0,1,,,,,,,,,,,,,,,0,,,73,45
177840,note_on,189,0,2,,,,,,,,,,,,,,,0,,,55,0
177840,note_on,0,0,2,,,,,,,,,,,,,,,0,,,46,0
177840,note_on,0,0,2,,,,,,,,,,,,,,,0,,,52,0
177920,note_on,160,0,1,,,,,,,,,,,,,,,0,,,73,0
177920,note_on,0,0,1,,,,,,,,,,,,,,,0,,,73,45
177967,control_change,127,0,2,,,,,,,,,,,,,,,0,64,0,,
178000,note_on,80,0,1,,,,,,,,,,,,,,,0,,,73,0
178080,note_on,80,0,1,,,,,,,,,,,,,,,0,,,64,42
178080,note_on,0,0,1,,,,,,,,,,,,,,,0,,,67,50
178080,note_on,0,0,2,,,,,,,,,,,,,,,0,,,55,33
178080,note_on,0,0,2,,,,,,,,,,,,,,,0,,,52,27
178080,note_on,113,0,2,,,,,,,,,,,,,,,0,,,46,27
178137,control_change,57,0,2,,,,,,,,,,,,,,,0,64,127,,
178240,note_on,0,0,1,,,,,,,,,,,,,,,0,,,72,46
178240,note_on,0,0,1,,,,,,,,,,,,,,,0,,,64,0
178240,note_on,160,0,1,,,,,,,,,,,,,,,0,,,67,0
178320,note_on,183,0,2,,,,,,,,,,,,,,,0,,,55,0
178320,note_on,0,0,2,,,,,,,,,,,,,,,0,,,46,0
178320,note_on,0,0,2,,,,,,,,,,,,,,,0,,,52,0
178400,note_on,0,0,1,,,,,,,,,,,,,,,0,,,72,47
178400,note_on,160,0,1,,,,,,,,,,,,,,,0,,,72,0
178426,control_change,106,0,2,,,,,,,,,,,,,,,0,64,0,,
178480,note_on,80,0,1,,,,,,,,,,,,,,,0,,,72,0
178560,note_on,0,0,1,,,,,,,,,,,,,,,0,,,68,52
178560,note_on,0,0,2,,,,,,,,,,,,,,,0,,,51,29
178560,note_on,0,0,2,,,,,,,,,,,,,,,0,,,56,36
178560,note_on,134,0,2,,,,,,,,,,,,,,,0,,,44,29
178560,note_on,80,0,1,,,,,,,,,,,,,,,0,,,63,44
178600,set_tempo,1960,1,0,,,,,,,,,,,,648298,,,,,,,
178623,control_change,63,0,2,,,,,,,,,,,,,,,0,64,127,,
178720,note_on,160,0,1,,,,,,,,,,,,,,,0,,,68,0
178720,note_on,0,0,1,,,,,,,,,,,,,,,0,,,63,0
178720,note_on,0,0,1,,,,,,,,,,,,,,,0,,,73,48
178800,set_tempo,200,1,0,,,,,,,,,,,,652032,,,,,,,
178800,note_on,0,0,2,,,,,,,,,,,,,,,0,,,44,0
178800,note_on,0,0,2,,,,,,,,,,,,,,,0,,,51,0
178800,note_on,177,0,2,,,,,,,,,,,,,,,0,,,56,0
178880,note_on,160,0,1,,,,,,,,,,,,,,,0,,,73,0
178880,note_on,0,0,1,,,,,,,,,,,,,,,0,,,73,48
178920,control_change,120,0,2,,,,,,,,,,,,,,,0,64,0,,
178960,note_on,80,0,1,,,,,,,,,,,,,,,0,,,73,0
179000,set_tempo,200,1,0,,,,,,,,,,,,655738,,,,,,,
179040,note_on,0,0,2,,,,,,,,,,,,,,,0,,,56,34
179040,note_on,120,0,2,,,,,,,,,,,,,,,0,,,44,27
179040,note_on,0,0,2,,,,,,,,,,,,,,,0,,,51,27
179040,note_on,80,0,1,,,,,,,,,,,,,,,0,,,63,44
179040,note_on,0,0,1,,,,,,,,,,,,,,,0,,,68,52
179072,control_change,32,0,2,,,,,,,,,,,,,,,0,64,127,,
179200,note_on,160,0,1,,,,,,,,,,,,,,,0,,,68,0
179200,note_on,0,0,1,,,,,,,,,,,,,,,0,,,63,0
179200,note_on,0,0,1,,,,,,,,,,,,,,,0,,,72,48
179200,set_tempo,200,1,0,,,,,,,,,,,,659631,,,,,,,
179280,note_on,208,0,2,,,,,,,,,,,,,,,0,,,51,0
179280,note_on,0,0,2,,,,,,,,,,,,,,,0,,,56,0
179280,note_on,0,0,2,,,,,,,,,,,,,,,0,,,44,0
179360,set_tempo,160,1,0,,,,,,,,,,,,663423,,,,,,,
179360,note_on,0,0,1,,,,,,,,,,,,,,,0,,,72,48
179360,note_on,160,0,1,,,,,,,,,,,,,,,0,,,72,0
179404,control_change,124,0,2,,,,,,,,,,,,,,,0,64,0,,
179440,note_on,80,0,1,,,,,,,,,,,,,,,0,,,72,0
179520,note_on,0,0,2,,,,,,,,,,,,,,,0,,,55,33
179520,note_on,80,0,1,,,,,,,,,,,,,,,0,,,63,43
179520,note_on,116,0,2,,,,,,,,,,,,,,,0,,,46,27
179520,note_on,0,0,1,,,,,,,,,,,,,,,0,,,67,51
179520,note_on,0,0,2,,,,,,,,,,,,,,,0,,,51,27
179560,set_tempo,200,1,0,,,,,,,,,,,,667260,,,,,,,
179571,control_change,51,0,2,,,,,,,,,,,,,,,0,64,127,,
179680,note_on,0,0,1,,,,,,,,,,,,,,,0,,,70,47
179680,note_on,0,0,1,,,,,,,,,,,,,,,0,,,63,0
179680,note_on,160,0,1,,,,,,,,,,,,,,,0,,,67,0
179760,note_on,189,0,2,,,,,,,,,,,,,,,0,,,55,0
179760,note_on,0,0,2,,,,,,,,,,,,,,,0,,,51,0
179760,set_tempo,200,1,0,,,,,,,,,,,,671216,,,,,,,
179760,note_on,0,0,2,,,,,,,,,,,,,,,0,,,46,0
179840,note_on,160,0,1,,,,,,,,,,,,,,,0,,,70,0
179840,note_on,0,0,1,,,,,,,,,,,,,,,0,,,70,46
179887,control_change,127,0,2,,,,,,,,,,,,,,,0,64,0,,
179920,note_on,80,0,1,,,,,,,,,,,,,,,0,,,70,0
179920,set_tempo,160,1,0,,,,,,,,,,,,675143,,,,,,,
180000,note_on,0,0,2,,,,,,,,,,,,,,,0,,,53,27
180000,note_on,0,0,2,,,,,,,,,,,,,,,0,,,56,34
180000,note_on,80,0,1,,,,,,,,,,,,,,,0,,,62,43
180000,note_on,0,0,1,,,,,,,,,,,,,,,0,,,65,51
180000,note_on,113,0,2,,,,,,,,,,,,,,,0,,,46,27
180057,control_change,57,0,2,,,,,,,,,,,,,,,0,64,127,,
180120,set_tempo,200,1,0,,,,,,,,,,,,679194,,,,,,,
180160,note_on,160,0,1,,,,,,,,,,,,,,,0,,,65,0
180160,note_on,0,0,1,,,,,,,,,,,,,,,0,,,62,0
180160,note_on,0,0,1,,,,,,,,,,,,,,,0,,,70,46
180240,note_on,0,0,2,,,,,,,,,,,,,,,0,,,53,0
180240,note_on,0,0,2,,,,,,,,,,,,,,,0,,,46,0
180240,note_on,183,0,2,,,,,,,,,,,,,,,0,,,56,0
180320,set_tempo,200,1,0,,,,,,,,,,,,683293,,,,,,,
180320,note_on,160,0,1,,,,,,,,,,,,,,,0,,,70,0
180320,note_on,0,0,1,,,,,,,,,,,,,,,0,,,70,46
180356,control_change,116,0,2,,,,,,,,,,,,,,,0,64,0,,
180400,note_on,80,0,1,,,,,,,,,,,,,,,0,,,70,0
180480,set_tempo,160,1,0,,,,,,,,,,,,652032,,,,,,,
181440,note_on,1084,0,2,,,,,,,,,,,,,,,0,,,66,31
181440,note_on,0,0,1,,,,,,,,,,,,,,,0,,,78,48
181440,set_tempo,960,1,0,,,,,,,,,,,,648298,,,,,,,
181440,note_on,1040,0,1,,,,,,,,,,,,,,,0,,,73,41
181460,control_change,20,0,2,,,,,,,,,,,,,,,0,64,0,,
181491,control_change,31,0,2,,,,,,,,,,,,,,,0,64,127,,
181600,note_on,0,0,1,,,,,,,,,,,,,,,0,,,73,0
181600,note_on,160,0,1,,,,,,,,,,,,,,,0,,,78,0
181600,note_on,0,0,1,,,,,,,,,,,,,,,0,,,82,45
181680,note_on,189,0,2,,,,,,,,,,,,,,,0,,,66,0
181760,note_on,0,0,1,,,,,,,,,,,,,,,0,,,82,45
181760,note_on,160,0,1,,,,,,,,,,,,,,,0,,,82,0
181793,control_change,113,0,2,,,,,,,,,,,,,,,0,64,0,,
181840,note_on,80,0,1,,,,,,,,,,,,,,,0,,,82,0
181920,note_on,80,0,1,,,,,,,,,,,,,,,0,,,73,41
181920,note_on,0,0,1,,,,,,,,,,,,,,,0,,,78,49
181920,note_on,127,0,2,,,,,,,,,,,,,,,0,,,63,33
181977,control_change,57,0,2,,,,,,,,,,,,,,,0,64,127,,
182080,note_on,160,0,1,,,,,,,,,,,,,,,0,,,78,0
182080,note_on,0,0,1,,,,,,,,,,,,,,,0,,,73,0
182080,note_on,0,0,1,,,,,,,,,,,,,,,0,,,81,44
182160,note_on,183,0,2,,,,,,,,,,,,,,,0,,,63,0
182240,note_on,160,0,1,,,,,,,,,,,,,,,0,,,81,0
182240,note_on,0,0,1,,,,,,,,,,,,,,,0,,,81,44
182276,control_change,116,0,2,,,,,,,,,,,,,,,0,64,0,,
182320,note_on,80,0,1,,,,,,,,,,,,,,,0,,,81,0
182400,note_on,80,0,1,,,,,,,,,,,,,,,0,,,73,42
182400,note_on,124,0,2,,,,,,,,,,,,,,,0,,,68,33
182400,note_on,0,0,1,,,,,,,,,,,,,,,0,,,77,50
182440,set_tempo,1000,1,0,,,,,,,,,,,,648298,,,,,,,
182463,control_change,63,0,2,,,,,,,,,,,,,,,0,64,127,,
182560,note_on,0,0,1,,,,,,,,,,,,,,,0,,,80,46
182560,note_on,0,0,1,,,,,,,,,,,,,,,0,,,73,0
182560,note_on,160,0,1,,,,,,,,,,,,,,,0,,,77,0
182640,note_on,177,0,2,,,,,,,,,,,,,,,0,,,68,0
182640,set_tempo,200,1,0,,,,,,,,,,,,652032,,,,,,,
182720,note_on,160,0,1,,,,,,,,,,,,,,,0,,,80,0
182720,note_on,0,0,1,,,,,,,,,,,,,,,0,,,80,46
182781,control_change,141,0,2,,,,,,,,,,,,,,,0,64,0,,
182800,note_on,80,0,1,,,,,,,,,,,,,,,0,,,80,0
182840,set_tempo,200,1,0,,,,,,,,,,,,655738,,,,,,,
182880,note_on,99,0,2,,,,,,,,,,,,,,,0,,,68,31
182880,note_on,0,0,1,,,,,,,,,,,,,,,0,,,75,48
182880,note_on,80,0,1,,,,,,,,,,,,,,,0,,,72,40
182912,control_change,32,0,2,,,,,,,,,,,,,,,0,64,127,,
183040,set_tempo,200,1,0,,,,,,,,,,,,659631,,,,,,,
183040,note_on,160,0,1,,,,,,,,,,,,,,,0,,,75,0
183040,note_on,0,0,1,,,,,,,,,,,,,,,0,,,72,0
183040,note_on,0,0,1,,,,,,,,,,,,,,,0,,,80,44
183120,note_on,208,0,2,,,,,,,,,,,,,,,0,,,68,0
183200,set_tempo,160,1,0,,,,,,,,,,,,663423,,,,,,,
183200,note_on,160,0,1,,,,,,,,,,,,,,,0,,,80,0
183200,note_on,0,0,1,,,,,,,,,,,,,,,0,,,80,44
183268,control_change,148,0,2,,,,,,,,,,,,,,,0,64,0,,
183280,note_on,80,0,1,,,,,,,,,,,,,,,0,,,80,0
183840,note_on,560,0,1,,,,,,,,,,,,,,,0,,,61,37
183840,note_on,0,0,1,,,,,,,,,,,,,,,0,,,64,44
183840,set_tempo,640,1,0,,,,,,,,,,,,659631,,,,,,,
183840,control_change,572,0,2,,,,,,,,,,,,,,,0,64,0,,
183840,note_on,0,0,2,,,,,,,,,,,,,,,0,,,44,29
183897,control_change,57,0,2,,,,,,,,,,,,,,,0,64,127,,
184000,note_on,0,0,1,,,,,,,,,,,,,,,0,,,61,0
184000,note_on,0,0,1,,,,,,,,,,,,,,,0,,,68,39
184000,note_on,160,0,1,,,,,,,,,,,,,,,0,,,64,0
184080,note_on,183,0,2,,,,,,,,,,,,,,,0,,,44,0
184160,note_on,0,0,1,,,,,,,,,,,,,,,0,,,68,39
184160,note_on,160,0,1,,,,,,,,,,,,,,,0,,,68,0
184214,control_change,134,0,2,,,,,,,,,,,,,,,0,64,0,,
184240,note_on,80,0,1,,,,,,,,,,,,,,,0,,,68,0
184320,note_on,0,0,1,,,,,,,,,,,,,,,0,,,63,45
184320,note_on,80,0,1,,,,,,,,,,,,,,,0,,,60,38
184320,set_tempo,480,1,0,,,,,,,,,,,,675143,,,,,,,
184320,note_on,106,0,2,,,,,,,,,,,,,,,0,,,44,29
184383,control_change,63,0,2,,,,,,,,,,,,,,,0,64,127,,
184480,note_on,0,0,1,,,,,,,,,,,,,,,0,,,60,0
184480,note_on,160,0,1,,,,,,,,,,,,,,,0,,,63,0
184480,note_on,0,0,1,,,,,,,,,,,,,,,0,,,68,41
184560,note_on,177,0,2,,,,,,,,,,,,,,,0,,,44,0
184640,note_on,0,0,1,,,,,,,,,,,,,,,0,,,68,41
184640,note_on,160,0,1,,,,,,,,,,,,,,,0,,,68,0
184705,control_change,145,0,2,,,,,,,,,,,,,,,0,64,0,,
184720,note_on,80,0,1,,,,,,,,,,,,,,,0,,,68,0
185280,note_on,0,0,2,,,,,,,,,,,,,,,0,,,45,26
185280,control_change,575,0,2,,,,,,,,,,,,,,,0,64,0,,
185280,note_on,0,0,1,,,,,,,,,,,,,,,0,,,63,39
185280,note_on,560,0,1,,,,,,,,,,,,,,,0,,,60,33
185280,set_tempo,960,1,0,,,,,,,,,,,,687364,,,,,,,
185337,control_change,57,0,2,,,,,,,,,,,,,,,0,64,127,,
185440,note_on,0,0,1,,,,,,,,,,,,,,,0,,,66,35
185440,note_on,0,0,1,,,,,,,,,,,,,,,0,,,60,0
185440,note_on,160,0,1,,,,,,,,,,,,,,,0,,,63,0
185520,note_on,183,0,2,,,,,,,,,,,,,,,0,,,45,0
185600,note_on,0,0,1,,,,,,,,,,,,,,,0,,,66,35
185600,note_on,160,0,1,,,,,,,,,,,,,,,0,,,66,0
185644,control_change,124,0,2,,,,,,,,,,,,,,,0,64,0,,
185680,note_on,80,0,1,,,,,,,,,,,,,,,0,,,66,0
185760,note_on,0,0,1,,,,,,,,,,,,,,,0,,,63,40
185760,note_on,116,0,2,,,,,,,,,,,,,,,0,,,45,26
185760,set_tempo,480,1,0,,,,,,,,,,,,745712,,,,,,,
185760,note_on,80,0,1,,,,,,,,,,,,,,,0,,,60,34
185823,control_change,63,0,2,,,,,,,,,,,,,,,0,64,127,,
185920,note_on,160,0,1,,,,,,,,,,,,,,,0,,,63,0
185920,note_on,0,0,1,,,,,,,,,,,,,,,0,,,60,0
185920,note_on,0,0,1,,,,,,,,,,,,,,,0,,,65,36
186000,note_on,177,0,2,,,,,,,,,,,,,,,0,,,45,0
186080,note_on,0,0,1,,,,,,,,,,,,,,,0,,,65,36
186080,note_on,160,0,1,,,,,,,,,,,,,,,0,,,65,0
186120,control_change,120,0,2,,,,,,,,,,,,,,,0,64,0,,
186160,note_on,80,0,1,,,,,,,,,,,,,,,0,,,65,0
186240,set_tempo,480,1,0,,,,,,,,,,,,691483,,,,,,,
186720,set_tempo,480,1,0,,,,,,,,,,,,663423,,,,,,,
186720,note_on,560,0,1,,,,,,,,,,,,,,,0,,,72,40
186720,note_on,0,0,1,,,,,,,,,,,,,,,0,,,75,40
186720,note_on,600,0,2,,,,,,,,,,,,,,,0,,,57,26
186748,control_change,28,0,2,,,,,,,,,,,,,,,0,64,127,,
186880,note_on,160,0,1,,,,,,,,,,,,,,,0,,,75,0
186880,note_on,0,0,1,,,,,,,,,,,,,,,0,,,72,0
186880,note_on,0,0,1,,,,,,,,,,,,,,,0,,,77,36
186960,note_on,212,0,2,,,,,,,,,,,,,,,0,,,57,0
187040,note_on,160,0,1,,,,,,,,,,,,,,,0,,,77,0
187040,note_on,0,0,1,,,,,,,,,,,,,,,0,,,77,36
187091,control_change,131,0,2,,,,,,,,,,,,,,,0,64,0,,
187120,note_on,80,0,1,,,,,,,,,,,,,,,0,,,77,0
187200,note_on,80,0,1,,,,,,,,,,,,,,,0,,,70,45
187200,note_on,0,0,1,,,,,,,,,,,,,,,0,,,75,45
187200,note_on,109,0,2,,,,,,,,,,,,,,,0,,,58,27
187249,control_change,49,0,2,,,,,,,,,,,,,,,0,64,127,,
187360,note_on,160,0,1,,,,,,,,,,,,,,,0,,,75,0
187360,note_on,0,0,1,,,,,,,,,,,,,,,0,,,70,0
187360,note_on,0,0,1,,,,,,,,,,,,,,,0,,,79,37
187440,note_on,191,0,2,,,,,,,,,,,,,,,0,,,58,0
187520,note_on,0,0,1,,,,,,,,,,,,,,,0,,,79,37
187520,note_on,160,0,1,,,,,,,,,,,,,,,0,,,79,0
187560,control_change,120,0,2,,,,,,,,,,,,,,,0,64,0,,
187600,note_on,80,0,1,,,,,,,,,,,,,,,0,,,79,0
187680,note_on,120,0,2,,,,,,,,,,,,,,,0,,,46,30
187680,note_on,80,0,1,,,,,,,,,,,,,,,0,,,70,45
187680,note_on,0,0,1,,,,,,,,,,,,,,,0,,,74,45
187751,control_change,71,0,2,,,,,,,,,,,,,,,0,64,127,,
187840,note_on,160,0,1,,,,,,,,,,,,,,,0,,,74,0
187840,note_on,0,0,1,,,,,,,,,,,,,,,0,,,70,0
187840,note_on,0,0,1,,,,,,,,,,,,,,,0,,,77,39
187920,note_on,169,0,2,,,,,,,,,,,,,,,0,,,46,0
188000,note_on,0,0,1,,,,,,,,,,,,,,,0,,,77,39
188000,set_tempo,1280,1,0,,,,,,,,,,,,700035,,,,,,,
188000,note_on,160,0,1,,,,,,,,,,,,,,,0,,,77,0
188058,control_change,138,0,2,,,,,,,,,,,,,,,0,64,0,,
188080,note_on,80,0,1,,,,,,,,,,,,,,,0,,,77,0
188160,note_on,102,0,2,,,,,,,,,,,,,,,0,,,48,33
188160,set_tempo,160,1,0,,,,,,,,,,,,671216,,,,,,,
188160,note_on,80,0,1,,,,,,,,,,,,,,,0,,,58,39
188160,note_on,0,0,1,,,,,,,,,,,,,,,0,,,62,47
188229,control_change,69,0,2,,,,,,,,,,,,,,,0,64,127,,
188320,note_on,0,0,1,,,,,,,,,,,,,,,0,,,65,40
188320,note_on,160,0,1,,,,,,,,,,,,,,,0,,,62,0
188320,note_on,0,0,1,,,,,,,,,,,,,,,0,,,58,0
188400,note_on,171,0,2,,,,,,,,,,,,,,,0,,,48,0
188480,note_on,0,0,1,,,,,,,,,,,,,,,0,,,65,40
188480,set_tempo,320,1,0,,,,,,,,,,,,675143,,,,,,,
188480,note_on,160,0,1,,,,,,,,,,,,,,,0,,,65,0
188527,control_change,127,0,2,,,,,,,,,,,,,,,0,64,0,,
188560,note_on,80,0,1,,,,,,,,,,,,,,,0,,,65,0
188640,note_on,80,0,1,,,,,,,,,,,,,,,0,,,57,43
188640,note_on,0,0,1,,,,,,,,,,,,,,,0,,,60,51
188640,note_on,113,0,2,,,,,,,,,,,,,,,0,,,48,35
188697,control_change,57,0,2,,,,,,,,,,,,,,,0,64,127,,
188800,note_on,0,0,1,,,,,,,,,,,,,,,0,,,65,46
188800,set_tempo,320,1,0,,,,,,,,,,,,679194,,,,,,,
188800,note_on,0,0,1,,,,,,,,,,,,,,,0,,,57,0
188800,note_on,160,0,1,,,,,,,,,,,,,,,0,,,60,0
188880,note_on,183,0,2,,,,,,,,,,,,,,,0,,,48,0
188960,note_on,160,0,1,,,,,,,,,,,,,,,0,,,65,0
188960,note_on,0,0,1,,,,,,,,,,,,,,,0,,,65,46
188960,set_tempo,160,1,0,,,,,,,,,,,,726744,,,,,,,
189007,control_change,127,0,2,,,,,,,,,,,,,,,0,64,0,,
189040,note_on,80,0,1,,,,,,,,,,,,,,,0,,,65,0
189080,set_tempo,120,1,0,,,,,,,,,,,,683293,,,,,,,
189120,note_on,0,0,2,,,,,,,,,,,,,,,0,,,55,35
189120,note_on,80,0,1,,,,,,,,,,,,,,,0,,,60,49
189120,note_on,0,0,1,,,,,,,,,,,,,,,0,,,65,58
189120,note_on,0,0,2,,,,,,,,,,,,,,,0,,,48,35
189120,note_on,113,0,2,,,,,,,,,,,,,,,0,,,58,41
189120,set_tempo,40,1,0,,,,,,,,,,,,687364,,,,,,,
189194,control_change,74,0,2,,,,,,,,,,,,,,,0,64,127,,
189240,set_tempo,120,1,0,,,,,,,,,,,,691483,,,,,,,
189280,note_on,0,0,1,,,,,,,,,,,,,,,0,,,72,50
189280,note_on,160,0,1,,,,,,,,,,,,,,,0,,,65,0
189280,note_on,0,0,1,,,,,,,,,,,,,,,0,,,60,0
189320,set_tempo,80,1,0,,,,,,,,,,,,695814,,,,,,,
189360,note_on,166,0,2,,,,,,,,,,,,,,,0,,,48,0
189360,note_on,0,0,2,,,,,,,,,,,,,,,0,,,55,0
189360,note_on,0,0,2,,,,,,,,,,,,,,,0,,,58,0
189440,set_tempo,120,1,0,,,,,,,,,,,,700035,,,,,,,
189440,note_on,0,0,1,,,,,,,,,,,,,,,0,,,72,50
189440,note_on,160,0,1,,,,,,,,,,,,,,,0,,,72,0
189494,control_change,134,0,2,,,,,,,,,,,,,,,0,64,0,,
189520,note_on,80,0,1,,,,,,,,,,,,,,,0,,,72,0
189520,set_tempo,80,1,0,,,,,,,,,,,,704308,,,,,,,
189600,note_on,0,0,1,,,,,,,,,,,,,,,0,,,64,60
189600,note_on,106,0,2,,,,,,,,,,,,,,,0,,,48,36
189600,note_on,0,0,2,,,,,,,,,,,,,,,0,,,55,36
189600,note_on,0,0,2,,,,,,,,,,,,,,,0,,,58,42
189600,note_on,80,0,1,,,,,,,,,,,,,,,0,,,60,50
189640,set_tempo,120,1,0,,,,,,,,,,,,708717,,,,,,,
189669,control_change,69,0,2,,,,,,,,,,,,,,,0,64,127,,
189720,set_tempo,80,1,0,,,,,,,,,,,,713182,,,,,,,
189760,note_on,160,0,1,,,,,,,,,,,,,,,0,,,64,0
189760,note_on,0,0,1,,,,,,,,,,,,,,,0,,,72,53
189760,note_on,0,0,1,,,,,,,,,,,,,,,0,,,60,0
189800,set_tempo,80,1,0,,,,,,,,,,,,717618,,,,,,,
189840,note_on,0,0,2,,,,,,,,,,,,,,,0,,,48,0
189840,note_on,171,0,2,,,,,,,,,,,,,,,0,,,58,0
189840,note_on,0,0,2,,,,,,,,,,,,,,,0,,,55,0
189920,note_on,160,0,1,,,,,,,,,,,,,,,0,,,72,0
189920,set_tempo,120,1,0,,,,,,,,,,,,776297,,,,,,,
189920,note_on,0,0,1,,,,,,,,,,,,,,,0,,,72,53
189921,control_change,81,0,2,,,,,,,,,,,,,,,0,64,0,,
190000,note_on,80,0,1,,,,,,,,,,,,,,,0,,,72,0
190080,note_on,0,0,1,,,,,,,,,,,,,,,0,,,65,58
190080,note_on,80,0,1,,,,,,,,,,,,,,,0,,,57,58
190080,note_on,0,0,2,,,,,,,,,,,,,,,0,,,41,36
190080,set_tempo,160,1,0,,,,,,,,,,,,713182,,,,,,,
190080,control_change,159,0,2,,,,,,,,,,,,,,,0,64,127,,
190080,note_on,0,0,2,,,,,,,,,,,,,,,0,,,53,42
190080,note_on,0,0,1,,,,,,,,,,,,,,,0,,,60,58
190200,note_on,0,0,2,,,,,,,,,,,,,,,0,,,41,0
190200,note_on,120,0,2,,,,,,,,,,,,,,,0,,,53,0
190200,note_on,0,0,1,,,,,,,,,,,,,,,0,,,57,0
190200,note_on,0,0,1,,,,,,,,,,,,,,,0,,,60,0
190200,note_on,120,0,1,,,,,,,,,,,,,,,0,,,65,0
190240,note_on,40,0,1,,,,,,,,,,,,,,,0,,,60,47
190400,note_on,160,0,1,,,,,,,,,,,,,,,0,,,60,0
190400,note_on,0,0,1,,,,,,,,,,,,,,,0,,,57,47
190560,note_on,160,0,1,,,,,,,,,,,,,,,0,,,57,0
190560,note_on,0,0,1,,,,,,,,,,,,,,,0,,,60,47
190720,note_on,160,0,1,,,,,,,,,,,,,,,0,,,60,0
190720,note_on,0,0,1,,,,,,,,,,,,,,,0,,,65,51
190880,note_on,0,0,1,,,,,,,,,,,,,,,0,,,69,55
190880,note_on,160,0,1,,,,,,,,,,,,,,,0,,,65,0
191040,note_on,0,0,1,,,,,,,,,,,,,,,0,,,72,68
191040,note_on,160,0,1,,,,,,,,,,,,,,,0,,,69,0
191040,set_tempo,960,1,0,,,,,,,,,,,,683293,,,,,,,
191040,note_on,840,0,2,,,,,,,,,,,,,,,0,,,57,36
191040,note_on,0,0,2,,,,,,,,,,,,,,,0,,,60,44
191089,control_change,49,0,2,,,,,,,,,,,,,,,0,64,0,,
191132,control_change,43,0,2,,,,,,,,,,,,,,,0,64,127,,
191520,note_on,480,0,1,,,,,,,,,,,,,,,0,,,62,48
191760,note_on,0,0,1,,,,,,,,,,,,,,,0,,,70,54
191760,set_tempo,720,1,0,,,,,,,,,,,,736196,,,,,,,
191760,note_on,0,0,1,,,,,,,,,,,,,,,0,,,64,45
191760,note_on,0,0,2,,,,,,,,,,,,,,,0,,,58,36
191760,note_on,0,0,2,,,,,,,,,,,,,,,0,,,55,30
191760,note_on,628,0,2,,,,,,,,,,,,,,,0,,,57,0
191760,note_on,0,0,1,,,,,,,,,,,,,,,0,,,72,0
191760,note_on,240,0,1,,,,,,,,,,,,,,,0,,,62,0
192000,note_on,0,0,1,,,,,,,,,,,,,,,0,,,60,47
192000,note_on,0,0,1,,,,,,,,,,,,,,,0,,,64,0
192000,note_on,240,0,1,,,,,,,,,,,,,,,0,,,70,0
192000,note_on,0,0,2,,,,,,,,,,,,,,,0,,,53,36
192000,set_tempo,240,1,0,,,,,,,,,,,,695814,,,,,,,
192000,note_on,240,0,2,,,,,,,,,,,,,,,0,,,58,0
192000,note_on,0,0,2,,,,,,,,,,,,,,,0,,,55,0
192000,note_on,0,0,1,,,,,,,,,,,,,,,0,,,65,47
192000,note_on,0,0,2,,,,,,,,,,,,,,,0,,,60,0
192000,control_change,0,0,2,,,,,,,,,,,,,,,0,64,0,,
192000,note_on,0,0,1,,,,,,,,,,,,,,,0,,,69,56
192000,note_on,0,0,2,,,,,,,,,,,,,,,0,,,57,44
192064,control_change,64,0,2,,,,,,,,,,,,,,,0,64,127,,
192480,note_on,0,0,1,,,,,,,,,,,,,,,0,,,67,52
192480,note_on,0,0,1,,,,,,,,,,,,,,,0,,,61,52
192480,note_on,0,0,1,,,,,,,,,,,,,,,0,,,60,0
192480,note_on,0,0,1,,,,,,,,,,,,,,,0,,,65,0
192480,note_on,480,0,1,,,,,,,,,,,,,,,0,,,69,0
192480,note_on,416,0,2,,,,,,,,,,,,,,,0,,,57,0
192480,note_on,0,0,2,,,,,,,,,,,,,,,0,,,53,0
192480,note_on,0,0,1,,,,,,,,,,,,,,,0,,,69,62
192480,note_on,0,0,2,,,,,,,,,,,,,,,0,,,57,45
192480,note_on,0,0,2,,,,,,,,,,,,,,,0,,,51,38
192508,control_change,28,0,2,,,,,,,,,,,,,,,0,64,0,,
192642,control_change,134,0,2,,,,,,,,,,,,,,,0,64,127,,
192960,note_on,0,0,1,,,,,,,,,,,,,,,0,,,62,54
192960,note_on,0,0,2,,,,,,,,,,,,,,,0,,,51,0
192960,note_on,0,0,2,,,,,,,,,,,,,,,0,,,50,40
192960,note_on,0,0,2,,,,,,,,,,,,,,,0,,,57,48
192960,note_on,480,0,1,,,,,,,,,,,,,,,0,,,69,0
192960,note_on,0,0,1,,,,,,,,,,,,,,,0,,,67,0
192960,note_on,0,0,1,,,,,,,,,,,,,,,0,,,61,0
192960,note_on,0,0,1,,,,,,,,,,,,,,,0,,,60,54
192960,note_on,318,0,2,,,,,,,,,,,,,,,0,,,57,0
192960,note_on,0,0,1,,,,,,,,,,,,,,,0,,,69,64
192960,note_on,0,0,1,,,,,,,,,,,,,,,0,,,66,54
192981,control_change,21,0,2,,,,,,,,,,,,,,,0,64,0,,
193108,control_change,127,0,2,,,,,,,,,,,,,,,0,64,127,,
193440,note_on,0,0,1,,,,,,,,,,,,,,,0,,,66,0
193440,note_on,0,0,1,,,,,,,,,,,,,,,0,,,70,65
193440,note_on,0,0,1,,,,,,,,,,,,,,,0,,,58,55
193440,note_on,0,0,1,,,,,,,,,,,,,,,0,,,62,55
193440,note_on,0,0,1,,,,,,,,,,,,,,,0,,,67,55
193440,note_on,0,0,1,,,,,,,,,,,,,,,0,,,62,0
193440,note_on,332,0,2,,,,,,,,,,,,,,,0,,,57,0
193440,note_on,0,0,1,,,,,,,,,,,,,,,0,,,60,0
193440,note_on,0,0,2,,,,,,,,,,,,,,,0,,,55,44
193440,note_on,480,0,1,,,,,,,,,,,,,,,0,,,69,0
193440,note_on,0,0,2,,,,,,,,,,,,,,,0,,,50,37
193440,note_on,0,0,2,,,,,,,,,,,,,,,0,,,43,37
193440,note_on,0,0,2,,,,,,,,,,,,,,,0,,,50,0
193504,control_change,64,0,2,,,,,,,,,,,,,,,0,64,0,,
193560,control_change,56,0,2,,,,,,,,,,,,,,,0,64,127,,
193680,set_tempo,1680,1,0,,,,,,,,,,,,736196,,,,,,,
193800,note_on,0,0,1,,,,,,,,,,,,,,,0,,,69,55
193800,note_on,360,0,1,,,,,,,,,,,,,,,0,,,70,0
193920,note_on,0,0,1,,,,,,,,,,,,,,,0,,,62,0
193920,note_on,0,0,1,,,,,,,,,,,,,,,0,,,64,44
193920,note_on,0,0,1,,,,,,,,,,,,,,,0,,,60,44
193920,note_on,0,0,1,,,,,,,,,,,,,,,0,,,58,0
193920,note_on,0,0,1,,,,,,,,,,,,,,,0,,,67,0
193920,note_on,120,0,1,,,,,,,,,,,,,,,0,,,69,0
193920,note_on,360,0,2,,,,,,,,,,,,,,,0,,,55,0
193920,note_on,0,0,1,,,,,,,,,,,,,,,0,,,67,52
193920,note_on,0,0,2,,,,,,,,,,,,,,,0,,,43,0
193920,note_on,0,0,2,,,,,,,,,,,,,,,0,,,50,0
193920,note_on,0,0,2,,,,,,,,,,,,,,,0,,,58,49
193920,set_tempo,240,1,0,,,,,,,,,,,,687364,,,,,,,
193920,note_on,0,0,2,,,,,,,,,,,,,,,0,,,48,41
193969,control_change,49,0,2,,,,,,,,,,,,,,,0,64,0,,
194061,control_change,92,0,2,,,,,,,,,,,,,,,0,64,127,,
194400,set_tempo,480,1,0,,,,,,,,,,,,687364,,,,,,,
194640,note_on,720,0,1,,,,,,,,,,,,,,,0,,,67,0
194640,note_on,0,0,1,,,,,,,,,,,,,,,0,,,68,47
194873,control_change,812,0,2,,,,,,,,,,,,,,,0,64,0,,
194880,note_on,0,0,2,,,,,,,,,,,,,,,0,,,57,38
194880,note_on,7,0,2,,,,,,,,,,,,,,,0,,,58,0
194880,note_on,0,0,2,,,,,,,,,,,,,,,0,,,53,32
194880,note_on,0,0,1,,,,,,,,,,,,,,,0,,,64,0
194880,note_on,0,0,2,,,,,,,,,,,,,,,0,,,48,0
194880,note_on,0,0,1,,,,,,,,,,,,,,,0,,,69,51
194880,note_on,0,0,1,,,,,,,,,,,,,,,0,,,65,43
194880,note_on,240,0,1,,,,,,,,,,,,,,,0,,,68,0
194920,set_tempo,520,1,0,,,,,,,,,,,,726744,,,,,,,
195000,note_on,0,0,1,,,,,,,,,,,,,,,0,,,60,0
195000,note_on,120,0,1,,,,,,,,,,,,,,,0,,,69,0
195000,note_on,0,0,1,,,,,,,,,,,,,,,0,,,65,0
195000,note_on,120,0,2,,,,,,,,,,,,,,,0,,,57,0
195000,note_on,0,0,2,,,,,,,,,,,,,,,0,,,53,0
195360,note_on,0,0,1,,,,,,,,,,,,,,,0,,,69,46
195360,note_on,360,0,1,,,,,,,,,,,,,,,0,,,60,39
195360,note_on,0,0,1,,,,,,,,,,,,,,,0,,,65,39
195360,note_on,0,0,2,,,,,,,,,,,,,,,0,,,57,34
195360,note_on,360,0,2,,,,,,,,,,,,,,,0,,,53,28
195480,note_on,0,0,2,,,,,,,,,,,,,,,0,,,53,0
195480,note_on,120,0,2,,,,,,,,,,,,,,,0,,,57,0
195480,note_on,120,0,1,,,,,,,,,,,,,,,0,,,69,0
195480,note_on,0,0,1,,,,,,,,,,,,,,,0,,,65,0
195480,note_on,0,0,1,,,,,,,,,,,,,,,0,,,60,0
195840,set_tempo,920,1,0,,,,,,,,,,,,713182,,,,,,,
195840,control_change,360,0,2,,,,,,,,,,,,,,,0,64,0,,
196000,note_on,520,0,1,,,,,,,,,,,,,,,0,,,48,47
196006,control_change,166,0,2,,,,,,,,,,,,,,,0,64,127,,
196160,note_on,0,0,1,,,,,,,,,,,,,,,0,,,45,47
196160,note_on,160,0,1,,,,,,,,,,,,,,,0,,,48,0
196320,note_on,160,0,1,,,,,,,,,,,,,,,0,,,45,0
196320,note_on,0,0,1,,,,,,,,,,,,,,,0,,,48,47
196480,note_on,160,0,1,,,,,,,,,,,,,,,0,,,48,0
196480,note_on,0,0,1,,,,,,,,,,,,,,,0,,,53,51
196640,note_on,160,0,1,,,,,,,,,,,,,,,0,,,53,0
196640,note_on,0,0,1,,,,,,,,,,,,,,,0,,,57,55
196800,note_on,160,0,1,,,,,,,,,,,,,,,0,,,57,0
196800,note_on,0,0,1,,,,,,,,,,,,,,,0,,,60,65
196800,note_on,794,0,2,,,,,,,,,,,,,,,0,,,45,35
196800,note_on,0,0,2,,,,,,,,,,,,,,,0,,,48,42
196800,set_tempo,960,1,0,,,,,,,,,,,,683293,,,,,,,
196849,control_change,49,0,2,,,,,,,,,,,,,,,0,64,0,,
196892,control_change,43,0,2,,,,,,,,,,,,,,,0,64,127,,
197037,note_on,145,0,2,,,,,,,,,,,,,,,0,,,48,0
197040,note_on,240,0,1,,,,,,,,,,,,,,,0,,,48,46
197280,note_on,240,0,1,,,,,,,,,,,,,,,0,,,50,48
197520,note_on,0,0,1,,,,,,,,,,,,,,,0,,,48,0
197520,note_on,240,0,1,,,,,,,,,,,,,,,0,,,50,0
197520,note_on,483,0,2,,,,,,,,,,,,,,,0,,,45,0
197520,note_on,0,0,2,,,,,,,,,,,,,,,0,,,43,30
197520,note_on,0,0,2,,,,,,,,,,,,,,,0,,,46,36
197520,set_tempo,720,1,0,,,,,,,,,,,,736196,,,,,,,
197520,note_on,0,0,1,,,,,,,,,,,,,,,0,,,48,45
197520,note_on,0,0,1,,,,,,,,,,,,,,,0,,,52,45
197520,note_on,0,0,1,,,,,,,,,,,,,,,0,,,58,54
197520,note_on,0,0,1,,,,,,,,,,,,,,,0,,,60,0
197760,set_tempo,240,1,0,,,,,,,,,,,,695814,,,,,,,
197760,note_on,0,0,1,,,,,,,,,,,,,,,0,,,57,56
197760,note_on,0,0,1,,,,,,,,,,,,,,,0,,,53,47
197760,note_on,0,0,1,,,,,,,,,,,,,,,0,,,48,47
197760,note_on,0,0,1,,,,,,,,,,,,,,,0,,,48,0
197760,note_on,240,0,1,,,,,,,,,,,,,,,0,,,58,0
197760,control_change,0,0,2,,,,,,,,,,,,,,,0,64,0,,
197760,note_on,0,0,2,,,,,,,,,,,,,,,0,,,45,44
197760,note_on,0,0,2,,,,,,,,,,,,,,,0,,,41,36
197760,note_on,0,0,2,,,,,,,,,,,,,,,0,,,43,0
197760,note_on,240,0,2,,,,,,,,,,,,,,,0,,,46,0
197760,note_on,0,0,1,,,,,,,,,,,,,,,0,,,52,0
197824,control_change,64,0,2,,,,,,,,,,,,,,,0,64,127,,
198240,note_on,480,0,1,,,,,,,,,,,,,,,0,,,57,0
198240,note_on,0,0,1,,,,,,,,,,,,,,,0,,,53,0
198240,note_on,0,0,1,,,,,,,,,,,,,,,0,,,48,0
198240,note_on,0,0,1,,,,,,,,,,,,,,,0,,,49,52
198240,note_on,0,0,2,,,,,,,,,,,,,,,0,,,39,38
198240,note_on,0,0,1,,,,,,,,,,,,,,,0,,,57,62
198240,note_on,416,0,2,,,,,,,,,,,,,,,0,,,45,0
198240,note_on,0,0,2,,,,,,,,,,,,,,,0,,,41,0
198240,note_on,0,0,2,,,,,,,,,,,,,,,0,,,45,45
198240,note_on,0,0,1,,,,,,,,,,,,,,,0,,,55,52
198268,control_change,28,0,2,,,,,,,,,,,,,,,0,64,0,,
198402,control_change,134,0,2,,,,,,,,,,,,,,,0,64,127,,
198720,note_on,318,0,2,,,,,,,,,,,,,,,0,,,45,0
198720,note_on,0,0,2,,,,,,,,,,,,,,,0,,,39,0
198720,note_on,0,0,2,,,,,,,,,,,,,,,0,,,38,40
198720,note_on,0,0,2,,,,,,,,,,,,,,,0,,,45,48
198720,note_on,0,0,1,,,,,,,,,,,,,,,0,,,57,64
198720,note_on,0,0,1,,,,,,,,,,,,,,,0,,,54,54
198720,note_on,0,0,1,,,,,,,,,,,,,,,0,,,48,54
198720,note_on,0,0,1,,,,,,,,,,,,,,,0,,,50,54
198720,note_on,0,0,1,,,,,,,,,,,,,,,0,,,55,0
198720,note_on,0,0,1,,,,,,,,,,,,,,,0,,,49,0
198720,note_on,480,0,1,,,,,,,,,,,,,,,0,,,57,0
198741,control_change,21,0,2,,,,,,,,,,,,,,,0,64,0,,
198868,control_change,127,0,2,,,,,,,,,,,,,,,0,64,127,,
199200,note_on,0,0,1,,,,,,,,,,,,,,,0,,,50,0
199200,note_on,0,0,1,,,,,,,,,,,,,,,0,,,48,0
199200,note_on,0,0,1,,,,,,,,,,,,,,,0,,,46,60
199200,note_on,480,0,1,,,,,,,,,,,,,,,0,,,57,0
199200,note_on,0,0,2,,,,,,,,,,,,,,,0,,,43,48
199200,note_on,0,0,2,,,,,,,,,,,,,,,0,,,38,40
199200,note_on,0,0,1,,,,,,,,,,,,,,,0,,,50,60
199200,note_on,0,0,1,,,,,,,,,,,,,,,0,,,55,60
199200,note_on,0,0,1,,,,,,,,,,,,,,,0,,,58,71
199200,note_on,0,0,1,,,,,,,,,,,,,,,0,,,54,0
199200,note_on,0,0,2,,,,,,,,,,,,,,,0,,,31,40
199200,note_on,0,0,2,,,,,,,,,,,,,,,0,,,38,0
199200,note_on,332,0,2,,,,,,,,,,,,,,,0,,,45,0
199264,control_change,64,0,2,,,,,,,,,,,,,,,0,64,0,,
199440,note_on,0,0,1,,,,,,,,,,,,,,,0,,,46,0
199440,note_on,0,0,1,,,,,,,,,,,,,,,0,,,50,0
199440,note_on,0,0,2,,,,,,,,,,,,,,,0,,,31,0
199440,note_on,240,0,1,,,,,,,,,,,,,,,0,,,55,0
199440,note_on,0,0,1,,,,,,,,,,,,,,,0,,,58,0
199440,note_on,176,0,2,,,,,,,,,,,,,,,0,,,43,0
199440,set_tempo,1680,1,0,,,,,,,,,,,,736196,,,,,,,
199440,note_on,0,0,2,,,,,,,,,,,,,,,0,,,38,0
200160,set_tempo,720,1,0,,,,,,,,,,,,700035,,,,,,,
200160,note_on,720,0,1,,,,,,,,,,,,,,,0,,,62,62
200160,note_on,0,0,1,,,,,,,,,,,,,,,0,,,68,62
200160,note_on,0,0,1,,,,,,,,,,,,,,,0,,,70,74
200160,note_on,0,0,2,,,,,,,,,,,,,,,0,,,58,53
200160,note_on,720,0,2,,,,,,,,,,,,,,,0,,,53,45
200188,control_change,28,0,2,,,,,,,,,,,,,,,0,64,0,,
200322,control_change,134,0,2,,,,,,,,,,,,,,,0,64,127,,
200640,note_on,318,0,2,,,,,,,,,,,,,,,0,,,58,0
200640,note_on,0,0,2,,,,,,,,,,,,,,,0,,,53,0
200640,note_on,0,0,2,,,,,,,,,,,,,,,0,,,51,49
200640,note_on,0,0,2,,,,,,,,,,,,,,,0,,,58,59
200640,note_on,0,0,1,,,,,,,,,,,,,,,0,,,63,64
200640,note_on,0,0,1,,,,,,,,,,,,,,,0,,,61,64
200640,note_on,0,0,1,,,,,,,,,,,,,,,0,,,62,0
200640,note_on,0,0,1,,,,,,,,,,,,,,,0,,,68,0
200640,note_on,480,0,1,,,,,,,,,,,,,,,0,,,70,0
200640,note_on,0,0,1,,,,,,,,,,,,,,,0,,,70,77
200640,note_on,0,0,1,,,,,,,,,,,,,,,0,,,67,64
200661,control_change,21,0,2,,,,,,,,,,,,,,,0,64,0,,
200788,control_change,127,0,2,,,,,,,,,,,,,,,0,64,127,,
201120,note_on,0,0,1,,,,,,,,,,,,,,,0,,,68,72
201120,note_on,0,0,1,,,,,,,,,,,,,,,0,,,63,72
201120,note_on,0,0,1,,,,,,,,,,,,,,,0,,,59,72
201120,note_on,0,0,1,,,,,,,,,,,,,,,0,,,71,85
201120,note_on,0,0,1,,,,,,,,,,,,,,,0,,,67,0
201120,note_on,0,0,2,,,,,,,,,,,,,,,0,,,56,60
201120,note_on,0,0,2,,,,,,,,,,,,,,,0,,,44,50
201120,note_on,0,0,2,,,,,,,,,,,,,,,0,,,51,50
201120,note_on,332,0,2,,,,,,,,,,,,,,,0,,,58,0
201120,note_on,0,0,1,,,,,,,,,,,,,,,0,,,61,0
201120,note_on,0,0,2,,,,,,,,,,,,,,,0,,,51,0
201120,note_on,0,0,1,,,,,,,,,,,,,,,0,,,63,0
201120,note_on,480,0,1,,,,,,,,,,,,,,,0,,,70,0
201184,control_change,64,0,2,,,,,,,,,,,,,,,0,64,0,,
201360,note_on,0,0,2,,,,,,,,,,,,,,,0,,,51,0
201360,note_on,0,0,2,,,,,,,,,,,,,,,0,,,44,0
201360,note_on,0,0,1,,,,,,,,,,,,,,,0,,,59,0
201360,note_on,240,0,1,,,,,,,,,,,,,,,0,,,68,0
201360,note_on,0,0,1,,,,,,,,,,,,,,,0,,,71,0
201360,note_on,176,0,2,,,,,,,,,,,,,,,0,,,56,0
201360,note_on,0,0,1,,,,,,,,,,,,,,,0,,,63,0
202080,note_on,0,0,1,,,,,,,,,,,,,,,0,,,76,82
202080,note_on,720,0,1,,,,,,,,,,,,,,,0,,,74,82
202080,note_on,0,0,1,,,,,,,,,,,,,,,0,,,80,99
202080,note_on,0,0,1,,,,,,,,,,,,,,,0,,,83,99
202080,note_on,0,0,2,,,,,,,,,,,,,,,0,,,52,84
202080,note_on,720,0,2,,,,,,,,,,,,,,,0,,,40,70
202080,note_on,0,0,2,,,,,,,,,,,,,,,0,,,47,70
202165,control_change,85,0,2,,,,,,,,,,,,,,,0,64,127,,
202560,note_on,0,0,1,,,,,,,,,,,,,,,0,,,76,88
202560,note_on,0,0,1,,,,,,,,,,,,,,,0,,,74,0
202560,note_on,0,0,1,,,,,,,,,,,,,,,0,,,81,103
202560,note_on,395,0,2,,,,,,,,,,,,,,,0,,,52,0
202560,note_on,0,0,2,,,,,,,,,,,,,,,0,,,47,0
202560,note_on,0,0,2,,,,,,,,,,,,,,,0,,,40,0
202560,note_on,0,0,2,,,,,,,,,,,,,,,0,,,33,70
202560,note_on,0,0,2,,,,,,,,,,,,,,,0,,,40,70
202560,note_on,0,0,2,,,,,,,,,,,,,,,0,,,45,84
202560,note_on,0,0,1,,,,,,,,,,,,,,,0,,,84,103
202560,note_on,0,0,1,,,,,,,,,,,,,,,0,,,72,88
202560,note_on,0,0,1,,,,,,,,,,,,,,,0,,,83,0
202560,note_on,0,0,1,,,,,,,,,,,,,,,0,,,76,0
202560,note_on,480,0,1,,,,,,,,,,,,,,,0,,,80,0
202631,control_change,71,0,2,,,,,,,,,,,,,,,0,64,0,,
202800,note_on,0,0,1,,,,,,,,,,,,,,,0,,,72,0
202800,note_on,0,0,1,,,,,,,,,,,,,,,0,,,81,0
202800,note_on,0,0,1,,,,,,,,,,,,,,,0,,,76,0
202800,note_on,0,0,2,,,,,,,,,,,,,,,0,,,33,0
202800,note_on,0,0,2,,,,,,,,,,,,,,,0,,,40,0
202800,note_on,169,0,2,,,,,,,,,,,,,,,0,,,45,0
202800,note_on,240,0,1,,,,,,,,,,,,,,,0,,,84,0
203520,note_on,0,0,1,,,,,,,,,,,,,,,0,,,84,62
203520,note_on,0,0,1,,,,,,,,,,,,,,,0,,,81,52
203520,note_on,720,0,1,,,,,,,,,,,,,,,0,,,77,52
203520,note_on,0,0,2,,,,,,,,,,,,,,,0,,,75,58
203520,note_on,720,0,2,,,,,,,,,,,,,,,0,,,65,49
203520,set_tempo,3360,1,0,,,,,,,,,,,,687364,,,,,,,
203569,control_change,49,0,2,,,,,,,,,,,,,,,0,64,0,,
203661,control_change,92,0,2,,,,,,,,,,,,,,,0,64,127,,
204000,set_tempo,480,1,0,,,,,,,,,,,,687364,,,,,,,
204240,note_on,720,0,1,,,,,,,,,,,,,,,0,,,84,0
204240,note_on,0,0,1,,,,,,,,,,,,,,,0,,,85,56
204473,control_change,812,0,2,,,,,,,,,,,,,,,0,64,0,,
204480,note_on,0,0,2,,,,,,,,,,,,,,,0,,,74,45
204480,note_on,0,0,2,,,,,,,,,,,,,,,0,,,70,38
204480,note_on,0,0,2,,,,,,,,,,,,,,,0,,,65,0
204480,note_on,7,0,2,,,,,,,,,,,,,,,0,,,75,0
204480,note_on,240,0,1,,,,,,,,,,,,,,,0,,,85,0
204480,note_on,0,0,1,,,,,,,,,,,,,,,0,,,81,0
204480,note_on,0,0,1,,,,,,,,,,,,,,,0,,,82,51
204480,note_on,0,0,1,,,,,,,,,,,,,,,0,,,86,61
204520,set_tempo,520,1,0,,,,,,,,,,,,731440,,,,,,,
204600,note_on,0,0,1,,,,,,,,,,,,,,,0,,,82,0
204600,note_on,120,0,1,,,,,,,,,,,,,,,0,,,86,0
204600,note_on,0,0,1,,,,,,,,,,,,,,,0,,,77,0
204600,note_on,120,0,2,,,,,,,,,,,,,,,0,,,74,0
204600,note_on,0,0,2,,,,,,,,,,,,,,,0,,,70,0
204960,set_tempo,440,1,0,,,,,,,,,,,,786885,,,,,,,
204960,note_on,0,0,2,,,,,,,,,,,,,,,0,,,74,40
204960,note_on,0,0,1,,,,,,,,,,,,,,,0,,,82,46
204960,note_on,360,0,1,,,,,,,,,,,,,,,0,,,77,46
204960,note_on,0,0,1,,,,,,,,,,,,,,,0,,,86,55
204960,note_on,360,0,2,,,,,,,,,,,,,,,0,,,70,33
205080,note_on,120,0,2,,,,,,,,,,,,,,,0,,,74,0
205080,note_on,0,0,2,,,,,,,,,,,,,,,0,,,70,0
205080,note_on,0,0,1,,,,,,,,,,,,,,,0,,,82,0
205080,note_on,120,0,1,,,,,,,,,,,,,,,0,,,86,0
205080,note_on,0,0,1,,,,,,,,,,,,,,,0,,,77,0
205440,note_on,0,0,1,,,,,,,,,,,,,,,0,,,89,61
205440,note_on,360,0,2,,,,,,,,,,,,,,,0,,,70,38
205440,note_on,0,0,2,,,,,,,,,,,,,,,0,,,74,45
205440,note_on,360,0,1,,,,,,,,,,,,,,,0,,,77,51
205440,note_on,0,0,1,,,,,,,,,,,,,,,0,,,86,61
205920,set_tempo,960,1,0,,,,,,,,,,,,713182,,,,,,,
206880,note_on,0,0,2,,,,,,,,,,,,,,,0,,,70,0
206880,note_on,1440,0,2,,,,,,,,,,,,,,,0,,,74,0
206880,note_on,0,0,1,,,,,,,,,,,,,,,0,,,77,0
206880,note_on,0,0,1,,,,,,,,,,,,,,,0,,,86,0
206880,note_on,1440,0,1,,,,,,,,,,,,,,,0,,,89,0
207360,control_change,480,0,2,,,,,,,,,,,,,,,0,64,127,,
207360,note_on,480,0,1,,,,,,,,,,,,,,,0,,,77,54
208560,note_on,1200,0,1,,,,,,,,,,,,,,,0,,,77,0
208560,note_on,0,0,1,,,,,,,,,,,,,,,0,,,74,45
208800,note_on,0,0,1,,,,,,,,,,,,,,,0,,,70,50
208800,note_on,240,0,1,,,,,,,,,,,,,,,0,,,74,0
209040,note_on,0,0,1,,,,,,,,,,,,,,,0,,,69,45
209040,note_on,240,0,1,,,,,,,,,,,,,,,0,,,70,0
209280,note_on,0,0,1,,,,,,,,,,,,,,,0,,,69,49
209280,note_on,0,0,1,,,,,,,,,,,,,,,0,,,64,34
209280,note_on,0,0,1,,,,,,,,,,,,,,,0,,,60,34
209280,note_on,240,0,1,,,,,,,,,,,,,,,0,,,69,0
209280,note_on,1920,0,2,,,,,,,,,,,,,,,0,,,48,33
209280,note_on,0,0,2,,,,,,,,,,,,,,,0,,,58,39
209280,set_tempo,3360,1,0,,,,,,,,,,,,687364,,,,,,,
209329,control_change,49,0,2,,,,,,,,,,,,,,,0,64,0,,
209421,control_change,92,0,2,,,,,,,,,,,,,,,0,64,127,,
209760,set_tempo,480,1,0,,,,,,,,,,,,687364,,,,,,,
209760,note_on,0,0,1,,,,,,,,,,,,,,,0,,,67,44
209760,note_on,480,0,1,,,,,,,,,,,,,,,0,,,69,0
210120,note_on,0,0,1,,,,,,,,,,,,,,,0,,,68,44
210120,note_on,360,0,1,,,,,,,,,,,,,,,0,,,67,0
210233,control_change,812,0,2,,,,,,,,,,,,,,,0,64,0,,
210240,note_on,7,0,2,,,,,,,,,,,,,,,0,,,58,0
210240,note_on,0,0,1,,,,,,,,,,,,,,,0,,,64,0
210240,note_on,0,0,1,,,,,,,,,,,,,,,0,,,65,40
210240,note_on,0,0,1,,,,,,,,,,,,,,,0,,,69,48
210240,note_on,120,0,1,,,,,,,,,,,,,,,0,,,68,0
210240,note_on,0,0,2,,,,,,,,,,,,,,,0,,,57,36
210240,note_on,0,0,2,,,,,,,,,,,,,,,0,,,53,30
210240,note_on,0,0,2,,,,,,,,,,,,,,,0,,,48,0
210280,set_tempo,520,1,0,,,,,,,,,,,,731440,,,,,,,
210360,note_on,120,0,1,,,,,,,,,,,,,,,0,,,69,0
210360,note_on,0,0,1,,,,,,,,,,,,,,,0,,,65,0
210360,note_on,0,0,1,,,,,,,,,,,,,,,0,,,60,0
210360,note_on,0,0,2,,,,,,,,,,,,,,,0,,,53,0
210360,note_on,120,0,2,,,,,,,,,,,,,,,0,,,57,0
210720,set_tempo,440,1,0,,,,,,,,,,,,786885,,,,,,,
210720,note_on,360,0,2,,,,,,,,,,,,,,,0,,,53,24
210720,note_on,0,0,2,,,,,,,,,,,,,,,0,,,57,32
210720,note_on,360,0,1,,,,,,,,,,,,,,,0,,,60,30
210720,note_on,0,0,1,,,,,,,,,,,,,,,0,,,65,36
210720,note_on,0,0,1,,,,,,,,,,,,,,,0,,,69,44
210840,note_on,120,0,1,,,,,,,,,,,,,,,0,,,69,0
210840,note_on,0,0,1,,,,,,,,,,,,,,,0,,,60,0
210840,note_on,0,0,1,,,,,,,,,,,,,,,0,,,65,0
210840,note_on,120,0,2,,,,,,,,,,,,,,,0,,,57,0
210840,note_on,0,0,2,,,,,,,,,,,,,,,0,,,53,0
211200,note_on,0,0,1,,,,,,,,,,,,,,,0,,,72,48
211200,note_on,360,0,1,,,,,,,,,,,,,,,0,,,69,48
211200,note_on,360,0,2,,,,,,,,,,,,,,,0,,,53,30
211200,note_on,0,0,2,,,,,,,,,,,,,,,0,,,60,36
211360,control_change,160,0,2,,,,,,,,,,,,,,,0,64,127,,
212560,control_change,1200,0,2,,,,,,,,,,,,,,,0,64,0,,
212640,note_on,80,0,2,,,,,,,,,,,,,,,0,,,60,0
212640,note_on,0,0,2,,,,,,,,,,,,,,,0,,,53,0
212640,note_on,1440,0,1,,,,,,,,,,,,,,,0,,,72,0
212640,note_on,0,0,1,,,,,,,,,,,,,,,0,,,69,0
213120,set_tempo,2400,1,0,,,,,,,,,,,,687364,,,,,,,
213120,note_on,0,0,2,,,,,,,,,,,,,,,0,,,75,58
213120,note_on,480,0,1,,,,,,,,,,,,,,,0,,,77,52
213120,note_on,0,0,1,,,,,,,,,,,,,,,0,,,84,62
213120,note_on,0,0,1,,,,,,,,,,,,,,,0,,,81,52
213120,note_on,480,0,2,,,,,,,,,,,,,,,0,,,65,49
213169,control_change,49,0,2,,,,,,,,,,,,,,,0,64,0,,
213261,control_change,92,0,2,,,,,,,,,,,,,,,0,64,127,,
213600,set_tempo,480,1,0,,,,,,,,,,,,687364,,,,,,,
213840,note_on,720,0,1,,,,,,,,,,,,,,,0,,,84,0
213840,note_on,0,0,1,,,,,,,,,,,,,,,0,,,85,56
214073,control_change,812,0,2,,,,,,,,,,,,,,,0,64,0,,
214080,note_on,7,0,2,,,,,,,,,,,,,,,0,,,75,0
214080,note_on,0,0,2,,,,,,,,,,,,,,,0,,,65,0
214080,note_on,0,0,2,,,,,,,,,,,,,,,0,,,70,38
214080,note_on,0,0,2,,,,,,,,,,,,,,,0,,,74,45
214080,note_on,0,0,1,,,,,,,,,,,,,,,0,,,86,61
214080,note_on,0,0,1,,,,,,,,,,,,,,,0,,,82,51
214080,note_on,0,0,1,,,,,,,,,,,,,,,0,,,81,0
214080,note_on,240,0,1,,,,,,,,,,,,,,,0,,,85,0
214120,set_tempo,520,1,0,,,,,,,,,,,,731440,,,,,,,
214200,note_on,120,0,2,,,,,,,,,,,,,,,0,,,74,0
214200,note_on,0,0,2,,,,,,,,,,,,,,,0,,,70,0
214200,note_on,0,0,1,,,,,,,,,,,,,,,0,,,77,0
214200,note_on,0,0,1,,,,,,,,,,,,,,,0,,,82,0
214200,note_on,120,0,1,,,,,,,,,,,,,,,0,,,86,0
214560,note_on,360,0,2,,,,,,,,,,,,,,,0,,,70,39
214560,note_on,0,0,2,,,,,,,,,,,,,,,0,,,74,48
214560,note_on,0,0,1,,,,,,,,,,,,,,,0,,,86,66
214560,note_on,0,0,1,,,,,,,,,,,,,,,0,,,82,55
214560,note_on,360,0,1,,,,,,,,,,,,,,,0,,,77,55
214560,set_tempo,440,1,0,,,,,,,,,,,,786885,,,,,,,
214680,note_on,120,0,2,,,,,,,,,,,,,,,0,,,74,0
214680,note_on,0,0,2,,,,,,,,,,,,,,,0,,,70,0
214680,note_on,0,0,1,,,,,,,,,,,,,,,0,,,82,0
214680,note_on,0,0,1,,,,,,,,,,,,,,,0,,,77,0
214680,note_on,120,0,1,,,,,,,,,,,,,,,0,,,86,0
215029,set_tempo,469,1,0,,,,,,,,,,,,983607,,,,,,,
215040,set_tempo,11,1,0,,,,,,,,,,,,875912,,,,,,,
215040,note_on,360,0,1,,,,,,,,,,,,,,,0,,,70,80
215052,set_tempo,12,1,0,,,,,,,,,,,,869565,,,,,,,
215058,control_change,378,0,2,,,,,,,,,,,,,,,0,64,127,,
215064,set_tempo,12,1,0,,,,,,,,,,,,863309,,,,,,,
215080,set_tempo,16,1,0,,,,,,,,,,,,857143,,,,,,,
215092,set_tempo,12,1,0,,,,,,,,,,,,845070,,,,,,,
215100,note_on,60,0,1,,,,,,,,,,,,,,,0,,,70,0
215100,note_on,0,0,1,,,,,,,,,,,,,,,0,,,74,79
215104,set_tempo,12,1,0,,,,,,,,,,,,839161,,,,,,,
215120,set_tempo,16,1,0,,,,,,,,,,,,833333,,,,,,,
215132,set_tempo,12,1,0,,,,,,,,,,,,827586,,,,,,,
215144,set_tempo,12,1,0,,,,,,,,,,,,816327,,,,,,,
215160,set_tempo,16,1,0,,,,,,,,,,,,810811,,,,,,,
215160,note_on,60,0,1,,,,,,,,,,,,,,,0,,,74,0
215160,note_on,0,0,1,,,,,,,,,,,,,,,0,,,77,78
215172,set_tempo,12,1,0,,,,,,,,,,,,805369,,,,,,,
215184,set_tempo,12,1,0,,,,,,,,,,,,800000,,,,,,,
215200,set_tempo,16,1,0,,,,,,,,,,,,789474,,,,,,,
215212,set_tempo,12,1,0,,,,,,,,,,,,784314,,,,,,,
215220,note_on,0,0,1,,,,,,,,,,,,,,,0,,,82,77
215220,note_on,60,0,1,,,,,,,,,,,,,,,0,,,77,0
215224,set_tempo,12,1,0,,,,,,,,,,,,779221,,,,,,,
215240,set_tempo,16,1,0,,,,,,,,,,,,769231,,,,,,,
215252,set_tempo,12,1,0,,,,,,,,,,,,764331,,,,,,,
215264,set_tempo,12,1,0,,,,,,,,,,,,759494,,,,,,,
215280,note_on,60,0,1,,,,,,,,,,,,,,,0,,,82,0
215280,note_on,0,0,1,,,,,,,,,,,,,,,0,,,86,76
215280,set_tempo,16,1,0,,,,,,,,,,,,754717,,,,,,,
215292,set_tempo,12,1,0,,,,,,,,,,,,745342,,,,,,,
215304,set_tempo,12,1,0,,,,,,,,,,,,740741,,,,,,,
215320,set_tempo,16,1,0,,,,,,,,,,,,736196,,,,,,,
215332,set_tempo,12,1,0,,,,,,,,,,,,731707,,,,,,,
215340,note_on,0,0,1,,,,,,,,,,,,,,,0,,,89,74
215340,note_on,60,0,1,,,,,,,,,,,,,,,0,,,86,0
215344,set_tempo,12,1,0,,,,,,,,,,,,722892,,,,,,,
215360,set_tempo,16,1,0,,,,,,,,,,,,718563,,,,,,,
215372,set_tempo,12,1,0,,,,,,,,,,,,714286,,,,,,,
215384,set_tempo,12,1,0,,,,,,,,,,,,710059,,,,,,,
215400,note_on,60,0,1,,,,,,,,,,,,,,,0,,,89,0
215400,set_tempo,16,1,0,,,,,,,,,,,,701754,,,,,,,
215400,note_on,0,0,1,,,,,,,,,,,,,,,0,,,94,73
215412,set_tempo,12,1,0,,,,,,,,,,,,697674,,,,,,,
215424,set_tempo,12,1,0,,,,,,,,,,,,693642,,,,,,,
215440,set_tempo,16,1,0,,,,,,,,,,,,685714,,,,,,,
215441,set_tempo,1,1,0,,,,,,,,,,,,740924,,,,,,,
215460,set_tempo,19,1,0,,,,,,,,,,,,975610,,,,,,,
215460,note_on,0,0,1,,,,,,,,,,,,,,,0,,,98,72
215460,note_on,60,0,1,,,,,,,,,,,,,,,0,,,94,0
215520,set_tempo,60,1,0,,,,,,,,,,,,920245,,,,,,,
215520,note_on,0,0,1,,,,,,,,,,,,,,,0,,,101,71
215520,note_on,60,0,1,,,,,,,,,,,,,,,0,,,98,0
215524,set_tempo,4,1,0,,,,,,,,,,,,920245,,,,,,,
215580,note_on,60,0,1,,,,,,,,,,,,,,,0,,,101,0
215961,control_change,903,0,2,,,,,,,,,,,,,,,0,64,0,,
216960,set_tempo,1436,1,0,,,,,,,,,,,,713182,,,,,,,
216960,note_on,1380,0,1,,,,,,,,,,,,,,,0,,,77,62
218640,note_on,0,0,1,,,,,,,,,,,,,,,0,,,76,50
218640,note_on,1680,0,1,,,,,,,,,,,,,,,0,,,77,0
218880,note_on,0,0,1,,,,,,,,,,,,,,,0,,,76,53
218880,note_on,240,0,1,,,,,,,,,,,,,,,0,,,76,0
219360,note_on,0,0,1,,,,,,,,,,,,,,,0,,,74,51
219360,note_on,480,0,1,,,,,,,,,,,,,,,0,,,76,0
219720,note_on,0,0,1,,,,,,,,,,,,,,,0,,,72,47
219720,note_on,360,0,1,,,,,,,,,,,,,,,0,,,74,0
219840,note_on,0,0,1,,,,,,,,,,,,,,,0,,,72,51
219840,note_on,120,0,1,,,,,,,,,,,,,,,0,,,72,0
220320,note_on,0,0,1,,,,,,,,,,,,,,,0,,,70,48
220320,note_on,480,0,1,,,,,,,,,,,,,,,0,,,72,0
220680,note_on,0,0,1,,,,,,,,,,,,,,,0,,,69,41
220680,note_on,360,0,1,,,,,,,,,,,,,,,0,,,70,0
220800,note_on,0,0,2,,,,,,,,,,,,,,,0,,,58,35
220800,note_on,0,0,1,,,,,,,,,,,,,,,0,,,60,30
220800,note_on,0,0,1,,,,,,,,,,,,,,,0,,,64,30
220800,note_on,0,0,1,,,,,,,,,,,,,,,0,,,69,44
220800,note_on,4839,0,2,,,,,,,,,,,,,,,0,,,48,29
220800,set_tempo,3840,1,0,,,,,,,,,,,,700035,,,,,,,
220800,note_on,120,0,1,,,,,,,,,,,,,,,0,,,69,0
220849,control_change,49,0,2,,,,,,,,,,,,,,,0,64,0,,
220941,control_change,92,0,2,,,,,,,,,,,,,,,0,64,127,,
221280,note_on,0,0,1,,,,,,,,,,,,,,,0,,,67,39
221280,note_on,480,0,1,,,,,,,,,,,,,,,0,,,69,0
221280,set_tempo,480,1,0,,,,,,,,,,,,722195,,,,,,,
221640,note_on,360,0,1,,,,,,,,,,,,,,,0,,,67,0
221640,note_on,0,0,1,,,,,,,,,,,,,,,0,,,68,39
221753,control_change,812,0,2,,,,,,,,,,,,,,,0,64,0,,
221760,note_on,7,0,2,,,,,,,,,,,,,,,0,,,58,0
221760,note_on,0,0,2,,,,,,,,,,,,,,,0,,,48,0
221760,note_on,0,0,2,,,,,,,,,,,,,,,0,,,53,27
221760,note_on,0,0,2,,,,,,,,,,,,,,,0,,,57,32
221760,note_on,120,0,1,,,,,,,,,,,,,,,0,,,68,0
221760,set_tempo,480,1,0,,,,,,,,,,,,745712,,,,,,,
221760,note_on,0,0,1,,,,,,,,,,,,,,,0,,,64,0
221760,note_on,0,0,1,,,,,,,,,,,,,,,0,,,65,36
221760,note_on,0,0,1,,,,,,,,,,,,,,,0,,,69,43
221880,note_on,120,0,1,,,,,,,,,,,,,,,0,,,69,0
221880,note_on,0,0,1,,,,,,,,,,,,,,,0,,,65,0
221880,note_on,0,0,1,,,,,,,,,,,,,,,0,,,60,0
221880,note_on,120,0,2,,,,,,,,,,,,,,,0,,,57,0
221880,note_on,0,0,2,,,,,,,,,,,,,,,0,,,53,0
222240,note_on,0,0,1,,,,,,,,,,,,,,,0,,,69,39
222240,note_on,0,0,1,,,,,,,,,,,,,,,0,,,65,32
222240,note_on,0,0,2,,,,,,,,,,,,,,,0,,,57,28
222240,note_on,360,0,2,,,,,,,,,,,,,,,0,,,53,21
222240,note_on,360,0,1,,,,,,,,,,,,,,,0,,,60,27
222240,set_tempo,480,1,0,,,,,,,,,,,,815107,,,,,,,
222360,note_on,120,0,2,,,,,,,,,,,,,,,0,,,57,0
222360,note_on,0,0,2,,,,,,,,,,,,,,,0,,,53,0
222360,note_on,120,0,1,,,,,,,,,,,,,,,0,,,69,0
222360,note_on,0,0,1,,,,,,,,,,,,,,,0,,,65,0
222360,note_on,0,0,1,,,,,,,,,,,,,,,0,,,60,0
222720,note_on,360,0,2,,,,,,,,,,,,,,,0,,,53,27
222720,note_on,0,0,2,,,,,,,,,,,,,,,0,,,60,32
222720,note_on,360,0,1,,,,,,,,,,,,,,,0,,,69,43
222720,note_on,0,0,1,,,,,,,,,,,,,,,0,,,72,43
222760,set_tempo,520,1,0,,,,,,,,,,,,713182,,,,,,,
222880,control_change,160,0,2,,,,,,,,,,,,,,,0,64,127,,
224080,control_change,1200,0,2,,,,,,,,,,,,,,,0,64,0,,
224160,note_on,0,0,2,,,,,,,,,,,,,,,0,,,53,0
224160,note_on,1440,0,1,,,,,,,,,,,,,,,0,,,72,0
224160,note_on,0,0,1,,,,,,,,,,,,,,,0,,,69,0
224160,note_on,80,0,2,,,,,,,,,,,,,,,0,,,60,0
224640,set_tempo,1880,1,0,,,,,,,,,,,,582185,,,,,,,
224640,note_on,480,0,2,,,,,,,,,,,,,,,0,,,53,42
224760,note_on,120,0,2,,,,,,,,,,,,,,,0,,,53,0
224760,note_on,0,0,2,,,,,,,,,,,,,,,0,,,54,47
224880,set_tempo,240,1,0,,,,,,,,,,,,610190,,,,,,,
224880,note_on,120,0,2,,,,,,,,,,,,,,,0,,,54,0
225120,set_tempo,240,1,0,,,,,,,,,,,,573394,,,,,,,
225120,note_on,240,0,2,,,,,,,,,,,,,,,0,,,51,43
225240,note_on,0,0,2,,,,,,,,,,,,,,,0,,,54,49
225240,note_on,120,0,2,,,,,,,,,,,,,,,0,,,51,0
225360,set_tempo,240,1,0,,,,,,,,,,,,597372,,,,,,,
225360,note_on,120,0,2,,,,,,,,,,,,,,,0,,,54,0
225600,note_on,1440,0,1,,,,,,,,,,,,,,,0,,,65,48
225600,set_tempo,240,1,0,,,,,,,,,,,,576258,,,,,,,
225600,note_on,240,0,2,,,,,,,,,,,,,,,0,,,53,33
225720,note_on,0,0,1,,,,,,,,,,,,,,,0,,,66,53
225720,note_on,0,0,2,,,,,,,,,,,,,,,0,,,54,37
225720,note_on,120,0,2,,,,,,,,,,,,,,,0,,,53,0
225720,note_on,120,0,1,,,,,,,,,,,,,,,0,,,65,0
225840,note_on,120,0,2,,,,,,,,,,,,,,,0,,,54,0
225840,set_tempo,240,1,0,,,,,,,,,,,,616776,,,,,,,
225840,note_on,120,0,1,,,,,,,,,,,,,,,0,,,66,0
225880,set_tempo,40,1,0,,,,,,,,,,,,597372,,,,,,,
226080,note_on,240,0,2,,,,,,,,,,,,,,,0,,,51,33
226080,set_tempo,200,1,0,,,,,,,,,,,,585138,,,,,,,
226080,note_on,240,0,1,,,,,,,,,,,,,,,0,,,63,48
226200,note_on,120,0,1,,,,,,,,,,,,,,,0,,,63,0
226200,note_on,0,0,1,,,,,,,,,,,,,,,0,,,66,52
226200,note_on,0,0,2,,,,,,,,,,,,,,,0,,,54,39
226200,note_on,120,0,2,,,,,,,,,,,,,,,0,,,51,0
226320,note_on,120,0,2,,,,,,,,,,,,,,,0,,,54,0
226320,set_tempo,240,1,0,,,,,,,,,,,,803536,,,,,,,
226320,note_on,120,0,1,,,,,,,,,,,,,,,0,,,66,0
226560,set_tempo,240,1,0,,,,,,,,,,,,765795,,,,,,,
226560,note_on,240,0,1,,,,,,,,,,,,,,,0,,,72,36
226560,note_on,0,0,2,,,,,,,,,,,,,,,0,,,69,32
226560,note_on,240,0,2,,,,,,,,,,,,,,,0,,,60,27
226560,note_on,0,0,1,,,,,,,,,,,,,,,0,,,81,43
226680,note_on,0,0,1,,,,,,,,,,,,,,,0,,,72,0
226680,note_on,0,0,2,,,,,,,,,,,,,,,0,,,60,0
226680,note_on,120,0,1,,,,,,,,,,,,,,,0,,,81,0
226680,note_on,120,0,2,,,,,,,,,,,,,,,0,,,69,0
227040,note_on,0,0,2,,,,,,,,,,,,,,,0,,,69,28
227040,note_on,360,0,2,,,,,,,,,,,,,,,0,,,60,21
227040,note_on,0,0,1,,,,,,,,,,,,,,,0,,,81,39
227040,note_on,360,0,1,,,,,,,,,,,,,,,0,,,72,32
227040,set_tempo,480,1,0,,,,,,,,,,,,815107,,,,,,,
227160,note_on,0,0,2,,,,,,,,,,,,,,,0,,,60,0
227160,note_on,120,0,2,,,,,,,,,,,,,,,0,,,69,0
227160,note_on,0,0,1,,,,,,,,,,,,,,,0,,,72,0
227160,note_on,120,0,1,,,,,,,,,,,,,,,0,,,81,0
227520,note_on,0,0,2,,,,,,,,,,,,,,,0,,,72,32
227520,note_on,360,0,2,,,,,,,,,,,,,,,0,,,69,27
227520,note_on,360,0,1,,,,,,,,,,,,,,,0,,,81,43
227520,note_on,0,0,1,,,,,,,,,,,,,,,0,,,84,43
227560,set_tempo,520,1,0,,,,,,,,,,,,713182,,,,,,,
227680,control_change,160,0,2,,,,,,,,,,,,,,,0,64,127,,
228424,control_change,744,0,2,,,,,,,,,,,,,,,0,64,0,,
228480,set_tempo,920,1,0,,,,,,,,,,,,582185,,,,,,,
228480,note_on,0,0,1,,,,,,,,,,,,,,,0,,,81,0
228480,note_on,960,0,1,,,,,,,,,,,,,,,0,,,84,0
228480,note_on,56,0,2,,,,,,,,,,,,,,,0,,,72,0
228480,note_on,0,0,2,,,,,,,,,,,,,,,0,,,69,0
228480,note_on,0,0,2,,,,,,,,,,,,,,,0,,,41,35
228600,note_on,120,0,2,,,,,,,,,,,,,,,0,,,41,0
228600,note_on,0,0,2,,,,,,,,,,,,,,,0,,,42,40
228720,note_on,120,0,2,,,,,,,,,,,,,,,0,,,42,0
228720,set_tempo,240,1,0,,,,,,,,,,,,597372,,,,,,,
228960,note_on,240,0,2,,,,,,,,,,,,,,,0,,,39,36
228960,set_tempo,240,1,0,,,,,,,,,,,,582185,,,,,,,
229080,note_on,120,0,2,,,,,,,,,,,,,,,0,,,39,0
229080,note_on,0,0,2,,,,,,,,,,,,,,,0,,,42,40
229200,note_on,120,0,2,,,,,,,,,,,,,,,0,,,42,0
229200,set_tempo,240,1,0,,,,,,,,,,,,603743,,,,,,,
229440,note_on,240,0,2,,,,,,,,,,,,,,,0,,,41,31
229440,note_on,960,0,1,,,,,,,,,,,,,,,0,,,53,42
229480,set_tempo,280,1,0,,,,,,,,,,,,585138,,,,,,,
229560,note_on,0,0,1,,,,,,,,,,,,,,,0,,,54,48
229560,note_on,120,0,1,,,,,,,,,,,,,,,0,,,53,0
229560,note_on,0,0,2,,,,,,,,,,,,,,,0,,,42,35
229560,note_on,120,0,2,,,,,,,,,,,,,,,0,,,41,0
229680,set_tempo,200,1,0,,,,,,,,,,,,603743,,,,,,,
229680,note_on,120,0,2,,,,,,,,,,,,,,,0,,,42,0
229680,note_on,120,0,1,,,,,,,,,,,,,,,0,,,54,0
229920,note_on,240,0,2,,,,,,,,,,,,,,,0,,,39,30
229920,note_on,240,0,1,,,,,,,,,,,,,,,0,,,51,41
229920,set_tempo,240,1,0,,,,,,,,,,,,588120,,,,,,,
230040,note_on,0,0,2,,,,,,,,,,,,,,,0,,,42,35
230040,note_on,0,0,1,,,,,,,,,,,,,,,0,,,54,48
230040,note_on,120,0,2,,,,,,,,,,,,,,,0,,,39,0
230040,note_on,120,0,1,,,,,,,,,,,,,,,0,,,51,0
230160,note_on,120,0,2,,,,,,,,,,,,,,,0,,,42,0
230160,set_tempo,240,1,0,,,,,,,,,,,,809280,,,,,,,
230160,note_on,120,0,1,,,,,,,,,,,,,,,0,,,54,0
230400,note_on,0,0,1,,,,,,,,,,,,,,,0,,,69,38
230400,note_on,0,0,2,,,,,,,,,,,,,,,0,,,57,28
230400,note_on,240,0,2,,,,,,,,,,,,,,,0,,,48,24
230400,set_tempo,240,1,0,,,,,,,,,,,,765795,,,,,,,
230400,note_on,240,0,1,,,,,,,,,,,,,,,0,,,60,32
230520,note_on,0,0,1,,,,,,,,,,,,,,,0,,,60,0
230520,note_on,120,0,1,,,,,,,,,,,,,,,0,,,69,0
230520,note_on,0,0,2,,,,,,,,,,,,,,,0,,,48,0
230520,note_on,120,0,2,,,,,,,,,,,,,,,0,,,57,0
230880,note_on,0,0,2,,,,,,,,,,,,,,,0,,,57,25
230880,note_on,360,0,2,,,,,,,,,,,,,,,0,,,48,18
230880,note_on,360,0,1,,,,,,,,,,,,,,,0,,,60,28
230880,note_on,0,0,1,,,,,,,,,,,,,,,0,,,69,35
230880,set_tempo,480,1,0,,,,,,,,,,,,815107,,,,,,,
231000,note_on,0,0,2,,,,,,,,,,,,,,,0,,,48,0
231000,note_on,120,0,2,,,,,,,,,,,,,,,0,,,57,0
231000,note_on,120,0,1,,,,,,,,,,,,,,,0,,,69,0
231000,note_on,0,0,1,,,,,,,,,,,,,,,0,,,60,0
231360,note_on,360,0,1,,,,,,,,,,,,,,,0,,,69,38
231360,note_on,0,0,1,,,,,,,,,,,,,,,0,,,72,38
231360,note_on,360,0,2,,,,,,,,,,,,,,,0,,,57,24
231360,note_on,0,0,2,,,,,,,,,,,,,,,0,,,60,28
231400,set_tempo,520,1,0,,,,,,,,,,,,713182,,,,,,,
231520,control_change,160,0,2,,,,,,,,,,,,,,,0,64,127,,
232264,control_change,744,0,2,,,,,,,,,,,,,,,0,64,0,,
232320,note_on,56,0,2,,,,,,,,,,,,,,,0,,,60,0
232320,note_on,0,0,2,,,,,,,,,,,,,,,0,,,57,0
232320,note_on,0,0,2,,,,,,,,,,,,,,,0,,,53,47
232320,note_on,960,0,1,,,,,,,,,,,,,,,0,,,72,0
232320,note_on,0,0,1,,,,,,,,,,,,,,,0,,,69,0
232320,set_tempo,920,1,0,,,,,,,,,,,,591250,,,,,,,
232440,note_on,0,0,2,,,,,,,,,,,,,,,0,,,54,52
232440,note_on,120,0,2,,,,,,,,,,,,,,,0,,,53,0
232560,set_tempo,240,1,0,,,,,,,,,,,,610190,,,,,,,
232560,note_on,120,0,2,,,,,,,,,,,,,,,0,,,54,0
232800,note_on,480,0,1,,,,,,,,,,,,,,,0,,,63,54
232800,note_on,240,0,2,,,,,,,,,,,,,,,0,,,51,42
232800,set_tempo,240,1,0,,,,,,,,,,,,585138,,,,,,,
232920,note_on,120,0,2,,,,,,,,,,,,,,,0,,,51,0
232920,note_on,0,0,2,,,,,,,,,,,,,,,0,,,54,47
232920,note_on,0,0,1,,,,,,,,,,,,,,,0,,,66,61
232920,note_on,120,0,1,,,,,,,,,,,,,,,0,,,63,0
233040,note_on,120,0,2,,,,,,,,,,,,,,,0,,,54,0
233040,note_on,120,0,1,,,,,,,,,,,,,,,0,,,66,0
233040,set_tempo,240,1,0,,,,,,,,,,,,600540,,,,,,,
233280,note_on,240,0,2,,,,,,,,,,,,,,,0,,,41,48
233280,set_tempo,240,1,0,,,,,,,,,,,,579206,,,,,,,
233400,note_on,120,0,2,,,,,,,,,,,,,,,0,,,41,0
233400,note_on,0,0,2,,,,,,,,,,,,,,,0,,,42,52
233520,note_on,120,0,2,,,,,,,,,,,,,,,0,,,42,0
233520,set_tempo,240,1,0,,,,,,,,,,,,597372,,,,,,,
233760,note_on,240,0,2,,,,,,,,,,,,,,,0,,,39,43
233760,set_tempo,240,1,0,,,,,,,,,,,,579206,,,,,,,
233760,note_on,720,0,1,,,,,,,,,,,,,,,0,,,63,55
233880,note_on,120,0,2,,,,,,,,,,,,,,,0,,,39,0
233880,note_on,0,0,2,,,,,,,,,,,,,,,0,,,42,47
233880,note_on,0,0,1,,,,,,,,,,,,,,,0,,,66,62
233880,note_on,120,0,1,,,,,,,,,,,,,,,0,,,63,0
234000,set_tempo,240,1,0,,,,,,,,,,,,597372,,,,,,,
234000,note_on,120,0,2,,,,,,,,,,,,,,,0,,,42,0
234000,note_on,120,0,1,,,,,,,,,,,,,,,0,,,66,0
234240,set_tempo,240,1,0,,,,,,,,,,,,579206,,,,,,,
234240,note_on,240,0,2,,,,,,,,,,,,,,,0,,,38,68
234360,note_on,120,0,2,,,,,,,,,,,,,,,0,,,38,0
234360,note_on,0,0,2,,,,,,,,,,,,,,,0,,,42,75
234480,note_on,120,0,2,,,,,,,,,,,,,,,0,,,42,0
234480,set_tempo,240,1,0,,,,,,,,,,,,603743,,,,,,,
234720,set_tempo,240,1,0,,,,,,,,,,,,591250,,,,,,,
234720,note_on,720,0,1,,,,,,,,,,,,,,,0,,,63,77
234720,note_on,240,0,2,,,,,,,,,,,,,,,0,,,39,61
234840,note_on,0,0,2,,,,,,,,,,,,,,,0,,,42,69
234840,note_on,0,0,1,,,,,,,,,,,,,,,0,,,66,83
234840,note_on,120,0,2,,,,,,,,,,,,,,,0,,,39,0
234840,note_on,120,0,1,,,,,,,,,,,,,,,0,,,63,0
234960,note_on,120,0,1,,,,,,,,,,,,,,,0,,,66,0
234960,set_tempo,240,1,0,,,,,,,,,,,,610190,,,,,,,
234960,note_on,120,0,2,,,,,,,,,,,,,,,0,,,42,0
235200,set_tempo,240,1,0,,,,,,,,,,,,600540,,,,,,,
235200,note_on,240,0,1,,,,,,,,,,,,,,,0,,,59,81
235200,note_on,240,0,2,,,,,,,,,,,,,,,0,,,35,66
235320,note_on,0,0,2,,,,,,,,,,,,,,,0,,,42,72
235320,note_on,120,0,2,,,,,,,,,,,,,,,0,,,35,0
235320,note_on,0,0,1,,,,,,,,,,,,,,,0,,,66,88
235320,note_on,120,0,1,,,,,,,,,,,,,,,0,,,59,0
235440,note_on,120,0,2,,,,,,,,,,,,,,,0,,,42,0
235440,note_on,120,0,1,,,,,,,,,,,,,,,0,,,66,0
235440,set_tempo,240,1,0,,,,,,,,,,,,637416,,,,,,,
235480,set_tempo,40,1,0,,,,,,,,,,,,626894,,,,,,,
235680,note_on,240,0,2,,,,,,,,,,,,,,,0,,,34,70
235680,set_tempo,200,1,0,,,,,,,,,,,,610190,,,,,,,
235680,note_on,240,0,1,,,,,,,,,,,,,,,0,,,58,88
235800,note_on,0,0,1,,,,,,,,,,,,,,,0,,,66,94
235800,note_on,120,0,1,,,,,,,,,,,,,,,0,,,58,0
235800,note_on,0,0,2,,,,,,,,,,,,,,,0,,,42,75
235800,note_on,120,0,2,,,,,,,,,,,,,,,0,,,34,0
235920,note_on,120,0,1,,,,,,,,,,,,,,,0,,,66,0
235920,set_tempo,240,1,0,,,,,,,,,,,,671216,,,,,,,
235920,note_on,120,0,2,,,,,,,,,,,,,,,0,,,42,0
236160,note_on,240,0,1,,,,,,,,,,,,,,,0,,,57,95
236160,set_tempo,240,1,0,,,,,,,,,,,,641026,,,,,,,
236160,note_on,240,0,2,,,,,,,,,,,,,,,0,,,33,72
236280,note_on,0,0,2,,,,,,,,,,,,,,,0,,,41,78
236280,note_on,120,0,2,,,,,,,,,,,,,,,0,,,33,0
236280,note_on,0,0,1,,,,,,,,,,,,,,,0,,,65,103
236280,note_on,120,0,1,,,,,,,,,,,,,,,0,,,57,0
236400,note_on,120,0,2,,,,,,,,,,,,,,,0,,,41,0
236400,set_tempo,240,1,0,,,,,,,,,,,,809280,,,,,,,
236400,note_on,120,0,1,,,,,,,,,,,,,,,0,,,65,0
236640,note_on,0,0,1,,,,,,,,,,,,,,,0,,,77,101
236640,note_on,0,0,1,,,,,,,,,,,,,,,0,,,75,101
236640,note_on,240,0,2,,,,,,,,,,,,,,,0,,,33,62
236640,note_on,0,0,2,,,,,,,,,,,,,,,0,,,45,74
236640,set_tempo,240,1,0,,,,,,,,,,,,736196,,,,,,,
236640,note_on,0,0,1,,,,,,,,,,,,,,,0,,,72,85
236640,note_on,0,0,2,,,,,,,,,,,,,,,0,,,41,62
236640,note_on,240,0,1,,,,,,,,,,,,,,,0,,,65,85
236653,control_change,13,0,2,,,,,,,,,,,,,,,0,64,127,,
236720,note_on,0,0,1,,,,,,,,,,,,,,,0,,,75,0
236720,note_on,0,0,1,,,,,,,,,,,,,,,0,,,72,0
236720,note_on,0,0,1,,,,,,,,,,,,,,,0,,,65,0
236720,note_on,80,0,1,,,,,,,,,,,,,,,0,,,77,0
236720,note_on,0,0,2,,,,,,,,,,,,,,,0,,,33,0
236720,note_on,0,0,2,,,,,,,,,,,,,,,0,,,41,0
236720,note_on,67,0,2,,,,,,,,,,,,,,,0,,,45,0
236800,note_on,80,0,2,,,,,,,,,,,,,,,0,,,33,62
236800,note_on,80,0,1,,,,,,,,,,,,,,,0,,,65,85
236800,note_on,0,0,1,,,,,,,,,,,,,,,0,,,72,85
236800,note_on,0,0,1,,,,,,,,,,,,,,,0,,,75,101
236800,note_on,0,0,1,,,,,,,,,,,,,,,0,,,77,101
236800,note_on,0,0,2,,,,,,,,,,,,,,,0,,,45,74
236800,note_on,0,0,2,,,,,,,,,,,,,,,0,,,41,62
236880,note_on,0,0,1,,,,,,,,,,,,,,,0,,,65,0
236880,note_on,80,0,2,,,,,,,,,,,,,,,0,,,45,0
236880,note_on,0,0,2,,,,,,,,,,,,,,,0,,,41,0
236880,note_on,0,0,2,,,,,,,,,,,,,,,0,,,33,0
236880,note_on,80,0,1,,,,,,,,,,,,,,,0,,,77,0
236880,note_on,0,0,1,,,,,,,,,,,,,,,0,,,72,0
236880,note_on,0,0,1,,,,,,,,,,,,,,,0,,,75,0
236960,note_on,80,0,2,,,,,,,,,,,,,,,0,,,33,62
236960,note_on,0,0,2,,,,,,,,,,,,,,,0,,,41,62
236960,note_on,0,0,2,,,,,,,,,,,,,,,0,,,45,74
236960,set_tempo,320,1,0,,,,,,,,,,,,776297,,,,,,,
236960,note_on,0,0,1,,,,,,,,,,,,,,,0,,,77,101
236960,note_on,0,0,1,,,,,,,,,,,,,,,0,,,75,101
236960,note_on,0,0,1,,,,,,,,,,,,,,,0,,,72,85
236960,note_on,80,0,1,,,,,,,,,,,,,,,0,,,65,85
237040,note_on,0,0,2,,,,,,,,,,,,,,,0,,,33,0
237040,note_on,0,0,1,,,,,,,,,,,,,,,0,,,72,0
237040,note_on,0,0,1,,,,,,,,,,,,,,,0,,,65,0
237040,note_on,80,0,1,,,,,,,,,,,,,,,0,,,77,0
237040,note_on,0,0,1,,,,,,,,,,,,,,,0,,,75,0
237040,note_on,0,0,2,,,,,,,,,,,,,,,0,,,41,0
237040,note_on,80,0,2,,,,,,,,,,,,,,,0,,,45,0
237120,set_tempo,160,1,0,,,,,,,,,,,,736196,,,,,,,
237120,note_on,0,0,2,,,,,,,,,,,,,,,0,,,45,83
237120,note_on,0,0,2,,,,,,,,,,,,,,,0,,,41,70
237120,note_on,80,0,2,,,,,,,,,,,,,,,0,,,33,70
237120,note_on,80,0,1,,,,,,,,,,,,,,,0,,,77,94
237120,note_on,0,0,1,,,,,,,,,,,,,,,0,,,89,112
237120,note_on,0,0,1,,,,,,,,,,,,,,,0,,,84,94
237120,note_on,0,0,1,,,,,,,,,,,,,,,0,,,87,112
237240,note_on,0,0,1,,,,,,,,,,,,,,,0,,,84,0
237240,note_on,0,0,1,,,,,,,,,,,,,,,0,,,77,0
237240,note_on,120,0,1,,,,,,,,,,,,,,,0,,,89,0
237240,note_on,120,0,2,,,,,,,,,,,,,,,0,,,45,0
237240,note_on,0,0,2,,,,,,,,,,,,,,,0,,,41,0
237240,note_on,0,0,1,,,,,,,,,,,,,,,0,,,87,0
237240,note_on,0,0,2,,,,,,,,,,,,,,,0,,,33,0
237322,control_change,82,0,2,,,,,,,,,,,,,,,0,64,0,,
237840,set_tempo,720,1,0,,,,,,,,,,,,771010,,,,,,,
237840,note_on,518,0,2,,,,,,,,,,,,,,,0,,,29,86
237920,note_on,80,0,2,,,,,,,,,,,,,,,0,,,30,70
237940,note_on,20,0,2,,,,,,,,,,,,,,,0,,,29,0
238000,note_on,60,0,2,,,,,,,,,,,,,,,0,,,32,70
238020,note_on,20,0,2,,,,,,,,,,,,,,,0,,,30,0
238080,note_on,60,0,2,,,,,,,,,,,,,,,0,,,30,86
238080,set_tempo,240,1,0,,,,,,,,,,,,825196,,,,,,,
238100,note_on,20,0,2,,,,,,,,,,,,,,,0,,,32,0
238140,note_on,40,0,2,,,,,,,,,,,,,,,0,,,32,73
238144,set_tempo,64,1,0,,,,,,,,,,,,818777,,,,,,,
238170,note_on,30,0,2,,,,,,,,,,,,,,,0,,,30,0
238200,note_on,30,0,2,,,,,,,,,,,,,,,0,,,30,76
238200,set_tempo,56,1,0,,,,,,,,,,,,812458,,,,,,,
238230,note_on,30,0,2,,,,,,,,,,,,,,,0,,,32,0
238260,note_on,30,0,2,,,,,,,,,,,,,,,0,,,32,70
238264,set_tempo,64,1,0,,,,,,,,,,,,806235,,,,,,,
238290,note_on,30,0,2,,,,,,,,,,,,,,,0,,,30,0
238320,note_on,30,0,2,,,,,,,,,,,,,,,0,,,30,76
238320,set_tempo,56,1,0,,,,,,,,,,,,800213,,,,,,,
238350,note_on,30,0,2,,,,,,,,,,,,,,,0,,,32,0
238380,note_on,30,0,2,,,,,,,,,,,,,,,0,,,32,70
238384,set_tempo,64,1,0,,,,,,,,,,,,794176,,,,,,,
238410,note_on,30,0,2,,,,,,,,,,,,,,,0,,,30,0
238440,set_tempo,56,1,0,,,,,,,,,,,,788229,,,,,,,
238440,note_on,30,0,2,,,,,,,,,,,,,,,0,,,30,80
238452,set_tempo,12,1,0,,,,,,,,,,,,765404,,,,,,,
238464,set_tempo,12,1,0,,,,,,,,,,,,759878,,,,,,,
238470,note_on,30,0,2,,,,,,,,,,,,,,,0,,,32,0
238500,note_on,30,0,2,,,,,,,,,,,,,,,0,,,32,76
238520,set_tempo,56,1,0,,,,,,,,,,,,765404,,,,,,,
238530,note_on,30,0,2,,,,,,,,,,,,,,,0,,,30,0
238532,set_tempo,12,1,0,,,,,,,,,,,,776699,,,,,,,
238560,note_on,30,0,2,,,,,,,,,,,,,,,0,,,30,83
238572,set_tempo,40,1,0,,,,,,,,,,,,765404,,,,,,,
238590,note_on,30,0,2,,,,,,,,,,,,,,,0,,,32,0
238600,set_tempo,28,1,0,,,,,,,,,,,,759878,,,,,,,
238612,set_tempo,12,1,0,,,,,,,,,,,,749157,,,,,,,
238620,note_on,30,0,2,,,,,,,,,,,,,,,0,,,32,73
238624,set_tempo,12,1,0,,,,,,,,,,,,743863,,,,,,,
238640,set_tempo,16,1,0,,,,,,,,,,,,754527,,,,,,,
238650,note_on,30,0,2,,,,,,,,,,,,,,,0,,,30,0
238652,set_tempo,12,1,0,,,,,,,,,,,,759878,,,,,,,
238664,set_tempo,12,1,0,,,,,,,,,,,,771010,,,,,,,
238680,note_on,30,0,2,,,,,,,,,,,,,,,0,,,30,83
238680,set_tempo,16,1,0,,,,,,,,,,,,765404,,,,,,,
238692,set_tempo,12,1,0,,,,,,,,,,,,754527,,,,,,,
238704,set_tempo,12,1,0,,,,,,,,,,,,749157,,,,,,,
238710,note_on,30,0,2,,,,,,,,,,,,,,,0,,,32,0
238720,set_tempo,16,1,0,,,,,,,,,,,,743863,,,,,,,
238732,set_tempo,12,1,0,,,,,,,,,,,,738643,,,,,,,
238740,note_on,30,0,2,,,,,,,,,,,,,,,0,,,32,70
238770,note_on,30,0,2,,,,,,,,,,,,,,,0,,,30,0
238772,set_tempo,40,1,0,,,,,,,,,,,,749157,,,,,,,
238784,set_tempo,12,1,0,,,,,,,,,,,,759878,,,,,,,
238800,set_tempo,16,1,0,,,,,,,,,,,,765404,,,,,,,
238800,note_on,30,0,2,,,,,,,,,,,,,,,0,,,30,80
238812,set_tempo,12,1,0,,,,,,,,,,,,771010,,,,,,,
238830,note_on,30,0,2,,,,,,,,,,,,,,,0,,,32,0
238840,set_tempo,28,1,0,,,,,,,,,,,,765404,,,,,,,
238852,set_tempo,12,1,0,,,,,,,,,,,,754527,,,,,,,
238860,note_on,30,0,2,,,,,,,,,,,,,,,0,,,32,73
238864,set_tempo,12,1,0,,,,,,,,,,,,749157,,,,,,,
238880,set_tempo,16,1,0,,,,,,,,,,,,743863,,,,,,,
238890,note_on,30,0,2,,,,,,,,,,,,,,,0,,,30,0
238892,set_tempo,12,1,0,,,,,,,,,,,,738643,,,,,,,
238904,set_tempo,12,1,0,,,,,,,,,,,,743863,,,,,,,
238920,note_on,30,0,2,,,,,,,,,,,,,,,0,,,30,76
238920,set_tempo,16,1,0,,,,,,,,,,,,754527,,,,,,,
238932,set_tempo,12,1,0,,,,,,,,,,,,759878,,,,,,,
238950,note_on,30,0,2,,,,,,,,,,,,,,,0,,,32,0
238960,set_tempo,28,1,0,,,,,,,,,,,,765404,,,,,,,
238980,note_on,30,0,2,,,,,,,,,,,,,,,0,,,32,70
238984,set_tempo,24,1,0,,,,,,,,,,,,754527,,,,,,,
239000,set_tempo,16,1,0,,,,,,,,,,,,749157,,,,,,,
239010,note_on,30,0,2,,,,,,,,,,,,,,,0,,,30,0
239012,set_tempo,12,1,0,,,,,,,,,,,,738643,,,,,,,
239024,set_tempo,12,1,0,,,,,,,,,,,,743863,,,,,,,
239040,set_tempo,16,1,0,,,,,,,,,,,,765404,,,,,,,
239040,note_on,30,0,2,,,,,,,,,,,,,,,0,,,30,83
239052,set_tempo,12,1,0,,,,,,,,,,,,776699,,,,,,,
239064,set_tempo,12,1,0,,,,,,,,,,,,782371,,,,,,,
239070,note_on,30,0,2,,,,,,,,,,,,,,,0,,,32,0
239080,set_tempo,16,1,0,,,,,,,,,,,,776699,,,,,,,
239092,set_tempo,12,1,0,,,,,,,,,,,,759878,,,,,,,
239100,note_on,30,0,2,,,,,,,,,,,,,,,0,,,32,72
239104,set_tempo,12,1,0,,,,,,,,,,,,754527,,,,,,,
239120,set_tempo,16,1,0,,,,,,,,,,,,749157,,,,,,,
239130,note_on,30,0,2,,,,,,,,,,,,,,,0,,,30,0
239132,set_tempo,12,1,0,,,,,,,,,,,,743863,,,,,,,
239144,set_tempo,12,1,0,,,,,,,,,,,,749157,,,,,,,
239160,note_on,30,0,2,,,,,,,,,,,,,,,0,,,30,77
239160,set_tempo,16,1,0,,,,,,,,,,,,765404,,,,,,,
239172,set_tempo,12,1,0,,,,,,,,,,,,771010,,,,,,,
239190,note_on,30,0,2,,,,,,,,,,,,,,,0,,,32,0
239200,set_tempo,28,1,0,,,,,,,,,,,,759878,,,,,,,
239212,set_tempo,12,1,0,,,,,,,,,,,,749157,,,,,,,
239220,note_on,30,0,2,,,,,,,,,,,,,,,0,,,32,69
239224,set_tempo,12,1,0,,,,,,,,,,,,743863,,,,,,,
239240,set_tempo,16,1,0,,,,,,,,,,,,738643,,,,,,,
239250,note_on,30,0,2,,,,,,,,,,,,,,,0,,,30,0
239252,set_tempo,12,1,0,,,,,,,,,,,,743863,,,,,,,
239264,set_tempo,12,1,0,,,,,,,,,,,,754527,,,,,,,
239280,set_tempo,16,1,0,,,,,,,,,,,,759878,,,,,,,
239280,note_on,30,0,2,,,,,,,,,,,,,,,0,,,30,74
239292,set_tempo,12,1,0,,,,,,,,,,,,765404,,,,,,,
239310,note_on,30,0,2,,,,,,,,,,,,,,,0,,,32,0
239332,set_tempo,40,1,0,,,,,,,,,,,,754527,,,,,,,
239340,note_on,30,0,2,,,,,,,,,,,,,,,0,,,32,63
239344,set_tempo,12,1,0,,,,,,,,,,,,749157,,,,,,,
239360,set_tempo,16,1,0,,,,,,,,,,,,743863,,,,,,,
239370,note_on,30,0,2,,,,,,,,,,,,,,,0,,,30,0
239400,note_on,30,0,2,,,,,,,,,,,,,,,0,,,30,72
239412,set_tempo,52,1,0,,,,,,,,,,,,754527,,,,,,,
239424,set_tempo,12,1,0,,,,,,,,,,,,765404,,,,,,,
239430,note_on,30,0,2,,,,,,,,,,,,,,,0,,,32,0
239440,set_tempo,16,1,0,,,,,,,,,,,,771010,,,,,,,
239452,set_tempo,12,1,0,,,,,,,,,,,,759878,,,,,,,
239460,note_on,30,0,2,,,,,,,,,,,,,,,0,,,32,61
239464,set_tempo,12,1,0,,,,,,,,,,,,754527,,,,,,,
239480,set_tempo,16,1,0,,,,,,,,,,,,749157,,,,,,,
239490,note_on,30,0,2,,,,,,,,,,,,,,,0,,,30,0
239492,set_tempo,12,1,0,,,,,,,,,,,,743863,,,,,,,
239504,set_tempo,12,1,0,,,,,,,,,,,,749157,,,,,,,
239520,note_on,30,0,2,,,,,,,,,,,,,,,0,,,30,73
239520,set_tempo,16,1,0,,,,,,,,,,,,759878,,,,,,,
239532,set_tempo,12,1,0,,,,,,,,,,,,771010,,,,,,,
239544,set_tempo,12,1,0,,,,,,,,,,,,776699,,,,,,,
239550,note_on,30,0,2,,,,,,,,,,,,,,,0,,,32,0
239560,set_tempo,16,1,0,,,,,,,,,,,,782371,,,,,,,
239572,set_tempo,12,1,0,,,,,,,,,,,,788229,,,,,,,
239580,note_on,30,0,2,,,,,,,,,,,,,,,0,,,32,61
239584,set_tempo,12,1,0,,,,,,,,,,,,782371,,,,,,,
239600,set_tempo,16,1,0,,,,,,,,,,,,771010,,,,,,,
239610,note_on,30,0,2,,,,,,,,,,,,,,,0,,,30,0
239612,set_tempo,12,1,0,,,,,,,,,,,,765404,,,,,,,
239640,note_on,30,0,2,,,,,,,,,,,,,,,0,,,30,68
239670,note_on,30,0,2,,,,,,,,,,,,,,,0,,,32,0
239700,note_on,30,0,2,,,,,,,,,,,,,,,0,,,32,56
239720,set_tempo,108,1,0,,,,,,,,,,,,771010,,,,,,,
239730,note_on,30,0,2,,,,,,,,,,,,,,,0,,,30,0
239760,set_tempo,40,1,0,,,,,,,,,,,,743863,,,,,,,
239760,note_on,30,0,2,,,,,,,,,,,,,,,0,,,29,67
239790,note_on,30,0,2,,,,,,,,,,,,,,,0,,,32,0
239880,set_tempo,120,1,0,,,,,,,,,,,,812458,,,,,,,
239880,note_on,90,0,2,,,,,,,,,,,,,,,0,,,30,61
239900,note_on,20,0,2,,,,,,,,,,,,,,,0,,,29,0
240000,set_tempo,120,1,0,,,,,,,,,,,,782371,,,,,,,
240000,note_on,100,0,2,,,,,,,,,,,,,,,0,,,29,75
240020,note_on,20,0,2,,,,,,,,,,,,,,,0,,,30,0
240120,note_on,100,0,2,,,,,,,,,,,,,,,0,,,29,0
240480,set_tempo,480,1,0,,,,,,,,,,,,1141118,,,,,,,
241440,set_tempo,960,1,0,,,,,,,,,,,,765404,,,,,,,
241440,note_on,1320,0,2,,,,,,,,,,,,,,,0,,,46,27
241440,note_on,0,0,2,,,,,,,,,,,,,,,0,,,50,33
241440,note_on,4200,0,1,,,,,,,,,,,,,,,0,,,58,36
241440,note_on,0,0,1,,,,,,,,,,,,,,,0,,,65,40
241440,note_on,0,0,1,,,,,,,,,,,,,,,0,,,70,48
241454,control_change,14,0,2,,,,,,,,,,,,,,,0,64,127,,
241680,note_on,0,0,2,,,,,,,,,,,,,,,0,,,53,28
241680,note_on,226,0,2,,,,,,,,,,,,,,,0,,,50,0
241920,note_on,0,0,1,,,,,,,,,,,,,,,0,,,65,42
241920,note_on,0,0,1,,,,,,,,,,,,,,,0,,,65,0
241920,control_change,0,0,2,,,,,,,,,,,,,,,0,64,0,,
241920,note_on,0,0,2,,,,,,,,,,,,,,,0,,,50,34
241920,note_on,0,0,2,,,,,,,,,,,,,,,0,,,46,28
241920,note_on,480,0,1,,,,,,,,,,,,,,,0,,,70,0
241920,set_tempo,480,1,0,,,,,,,,,,,,743863,,,,,,,
241920,note_on,240,0,2,,,,,,,,,,,,,,,0,,,53,0
241920,note_on,0,0,2,,,,,,,,,,,,,,,0,,,46,0
241920,note_on,0,0,1,,,,,,,,,,,,,,,0,,,58,0
241920,note_on,0,0,1,,,,,,,,,,,,,,,0,,,58,37
241920,note_on,0,0,1,,,,,,,,,,,,,,,0,,,70,50
242005,control_change,85,0,2,,,,,,,,,,,,,,,0,64,127,,
242160,note_on,0,0,2,,,,,,,,,,,,,,,0,,,53,28
242160,note_on,155,0,2,,,,,,,,,,,,,,,0,,,50,0
242200,set_tempo,280,1,0,,,,,,,,,,,,765404,,,,,,,
242400,note_on,480,0,1,,,,,,,,,,,,,,,0,,,70,0
242400,note_on,0,0,1,,,,,,,,,,,,,,,0,,,65,0
242400,note_on,0,0,1,,,,,,,,,,,,,,,0,,,58,0
242400,note_on,0,0,1,,,,,,,,,,,,,,,0,,,69,48
242400,note_on,0,0,1,,,,,,,,,,,,,,,0,,,65,40
242400,note_on,240,0,2,,,,,,,,,,,,,,,0,,,53,0
242400,note_on,0,0,2,,,,,,,,,,,,,,,0,,,46,0
242400,note_on,0,0,2,,,,,,,,,,,,,,,0,,,46,24
242400,note_on,0,0,2,,,,,,,,,,,,,,,0,,,48,31
242400,control_change,0,0,2,,,,,,,,,,,,,,,0,64,0,,
242400,set_tempo,200,1,0,,,,,,,,,,,,743863,,,,,,,
242400,note_on,0,0,1,,,,,,,,,,,,,,,0,,,57,31
242485,control_change,85,0,2,,,,,,,,,,,,,,,0,64,127,,
242640,note_on,0,0,2,,,,,,,,,,,,,,,0,,,53,27
242640,set_tempo,240,1,0,,,,,,,,,,,,771010,,,,,,,
242640,note_on,155,0,2,,,,,,,,,,,,,,,0,,,48,0
242800,set_tempo,160,1,0,,,,,,,,,,,,749157,,,,,,,
242880,set_tempo,80,1,0,,,,,,,,,,,,765404,,,,,,,
242880,note_on,0,0,1,,,,,,,,,,,,,,,0,,,70,50
242880,note_on,0,0,2,,,,,,,,,,,,,,,0,,,46,28
242880,note_on,0,0,2,,,,,,,,,,,,,,,0,,,46,0
242880,note_on,0,0,2,,,,,,,,,,,,,,,0,,,50,34
242880,note_on,0,0,1,,,,,,,,,,,,,,,0,,,65,0
242880,note_on,480,0,1,,,,,,,,,,,,,,,0,,,69,0
242880,note_on,240,0,2,,,,,,,,,,,,,,,0,,,53,0
242880,note_on,0,0,1,,,,,,,,,,,,,,,0,,,58,37
242880,note_on,0,0,1,,,,,,,,,,,,,,,0,,,57,0
242880,note_on,0,0,1,,,,,,,,,,,,,,,0,,,65,42
242922,control_change,42,0,2,,,,,,,,,,,,,,,0,64,0,,
243035,control_change,113,0,2,,,,,,,,,,,,,,,0,64,127,,
243120,set_tempo,240,1,0,,,,,,,,,,,,776699,,,,,,,
243120,note_on,85,0,2,,,,,,,,,,,,,,,0,,,50,0
243120,note_on,0,0,2,,,,,,,,,,,,,,,0,,,53,27
243360,note_on,240,0,2,,,,,,,,,,,,,,,0,,,53,0
243360,note_on,0,0,2,,,,,,,,,,,,,,,0,,,46,0
243360,note_on,0,0,2,,,,,,,,,,,,,,,0,,,46,27
243360,note_on,0,0,2,,,,,,,,,,,,,,,0,,,51,33
243360,set_tempo,240,1,0,,,,,,,,,,,,749157,,,,,,,
243360,note_on,480,0,1,,,,,,,,,,,,,,,0,,,70,0
243360,note_on,0,0,1,,,,,,,,,,,,,,,0,,,72,48
243360,note_on,0,0,1,,,,,,,,,,,,,,,0,,,65,40
243360,note_on,0,0,1,,,,,,,,,,,,,,,0,,,60,36
243360,note_on,0,0,1,,,,,,,,,,,,,,,0,,,58,0
243360,note_on,0,0,1,,,,,,,,,,,,,,,0,,,65,0
243388,control_change,28,0,2,,,,,,,,,,,,,,,0,64,0,,
243501,control_change,113,0,2,,,,,,,,,,,,,,,0,64,127,,
243600,set_tempo,240,1,0,,,,,,,,,,,,776699,,,,,,,
243600,note_on,99,0,2,,,,,,,,,,,,,,,0,,,51,0
243600,note_on,0,0,2,,,,,,,,,,,,,,,0,,,53,26
243840,note_on,0,0,2,,,,,,,,,,,,,,,0,,,46,28
243840,note_on,0,0,2,,,,,,,,,,,,,,,0,,,52,34
243840,note_on,0,0,2,,,,,,,,,,,,,,,0,,,46,0
243840,note_on,240,0,2,,,,,,,,,,,,,,,0,,,53,0
243840,note_on,0,0,1,,,,,,,,,,,,,,,0,,,74,53
243840,note_on,0,0,1,,,,,,,,,,,,,,,0,,,65,0
243840,note_on,0,0,1,,,,,,,,,,,,,,,0,,,62,40
243840,note_on,0,0,1,,,,,,,,,,,,,,,0,,,65,45
243840,note_on,480,0,1,,,,,,,,,,,,,,,0,,,72,0
243840,control_change,0,0,2,,,,,,,,,,,,,,,0,64,0,,
243840,note_on,0,0,1,,,,,,,,,,,,,,,0,,,60,0
243840,set_tempo,240,1,0,,,,,,,,,,,,743863,,,,,,,
243943,control_change,103,0,2,,,,,,,,,,,,,,,0,64,127,,
244059,control_change,116,0,2,,,,,,,,,,,,,,,0,64,0,,
244080,set_tempo,240,1,0,,,,,,,,,,,,728332,,,,,,,
244080,note_on,21,0,2,,,,,,,,,,,,,,,0,,,52,0
244080,note_on,0,0,2,,,,,,,,,,,,,,,0,,,53,26
244144,control_change,64,0,2,,,,,,,,,,,,,,,0,64,127,,
244200,note_on,56,0,2,,,,,,,,,,,,,,,0,,,53,0
244320,set_tempo,240,1,0,,,,,,,,,,,,728332,,,,,,,
244320,note_on,120,0,2,,,,,,,,,,,,,,,0,,,53,26
244440,note_on,120,0,2,,,,,,,,,,,,,,,0,,,53,0
244560,note_on,120,0,2,,,,,,,,,,,,,,,0,,,53,26
244680,note_on,120,0,2,,,,,,,,,,,,,,,0,,,53,0
244800,note_on,120,0,2,,,,,,,,,,,,,,,0,,,53,26
244920,note_on,120,0,2,,,,,,,,,,,,,,,0,,,53,0
245040,note_on,120,0,2,,,,,,,,,,,,,,,0,,,53,26
245160,note_on,120,0,2,,,,,,,,,,,,,,,0,,,53,0
245280,note_on,0,0,1,,,,,,,,,,,,,,,0,,,65,0
245280,note_on,120,0,2,,,,,,,,,,,,,,,0,,,46,0
245280,note_on,0,0,1,,,,,,,,,,,,,,,0,,,72,50
245280,note_on,0,0,1,,,,,,,,,,,,,,,0,,,65,42
245280,note_on,0,0,1,,,,,,,,,,,,,,,0,,,60,37
245280,note_on,0,0,1,,,,,,,,,,,,,,,0,,,62,0
245280,note_on,0,0,2,,,,,,,,,,,,,,,0,,,51,33
245280,note_on,1440,0,1,,,,,,,,,,,,,,,0,,,74,0
245280,note_on,0,0,2,,,,,,,,,,,,,,,0,,,46,27
245280,set_tempo,960,1,0,,,,,,,,,,,,733407,,,,,,,
245287,control_change,7,0,2,,,,,,,,,,,,,,,0,64,0,,
245360,control_change,73,0,2,,,,,,,,,,,,,,,0,64,127,,
245520,note_on,160,0,2,,,,,,,,,,,,,,,0,,,51,0
245520,note_on,0,0,1,,,,,,,,,,,,,,,0,,,70,46
245520,note_on,0,0,1,,,,,,,,,,,,,,,0,,,65,39
245520,note_on,0,0,1,,,,,,,,,,,,,,,0,,,58,35
245520,note_on,0,0,1,,,,,,,,,,,,,,,0,,,60,0
245520,note_on,0,0,1,,,,,,,,,,,,,,,0,,,65,0
245520,note_on,240,0,1,,,,,,,,,,,,,,,0,,,72,0
245520,note_on,0,0,2,,,,,,,,,,,,,,,0,,,50,27
245520,set_tempo,240,1,0,,,,,,,,,,,,789474,,,,,,,
245760,note_on,0,0,1,,,,,,,,,,,,,,,0,,,60,35
245760,note_on,0,0,1,,,,,,,,,,,,,,,0,,,65,39
245760,note_on,240,0,1,,,,,,,,,,,,,,,0,,,70,0
245760,note_on,0,0,1,,,,,,,,,,,,,,,0,,,72,47
245760,note_on,0,0,1,,,,,,,,,,,,,,,0,,,65,0
245760,note_on,0,0,1,,,,,,,,,,,,,,,0,,,58,0
245760,note_on,240,0,2,,,,,,,,,,,,,,,0,,,50,0
245760,note_on,0,0,2,,,,,,,,,,,,,,,0,,,46,0
245760,note_on,0,0,2,,,,,,,,,,,,,,,0,,,41,26
245760,note_on,0,0,2,,,,,,,,,,,,,,,0,,,51,31
245760,control_change,0,0,2,,,,,,,,,,,,,,,0,64,0,,
245760,set_tempo,240,1,0,,,,,,,,,,,,743863,,,,,,,
245887,control_change,127,0,2,,,,,,,,,,,,,,,0,64,127,,
246000,set_tempo,240,1,0,,,,,,,,,,,,754527,,,,,,,
246000,note_on,113,0,2,,,,,,,,,,,,,,,0,,,51,0
246000,note_on,0,0,2,,,,,,,,,,,,,,,0,,,53,25
246240,note_on,240,0,2,,,,,,,,,,,,,,,0,,,53,0
246240,note_on,480,0,1,,,,,,,,,,,,,,,0,,,72,0
246240,note_on,0,0,1,,,,,,,,,,,,,,,0,,,65,0
246240,note_on,0,0,1,,,,,,,,,,,,,,,0,,,60,0
246240,note_on,0,0,2,,,,,,,,,,,,,,,0,,,41,26
246240,note_on,0,0,2,,,,,,,,,,,,,,,0,,,51,29
246240,note_on,0,0,1,,,,,,,,,,,,,,,0,,,60,34
246240,note_on,0,0,1,,,,,,,,,,,,,,,0,,,65,38
246240,note_on,0,0,2,,,,,,,,,,,,,,,0,,,41,0
246240,note_on,0,0,1,,,,,,,,,,,,,,,0,,,72,46
246240,set_tempo,240,1,0,,,,,,,,,,,,743863,,,,,,,
246480,set_tempo,240,1,0,,,,,,,,,,,,754527,,,,,,,
246480,note_on,240,0,2,,,,,,,,,,,,,,,0,,,51,0
246480,note_on,0,0,2,,,,,,,,,,,,,,,0,,,53,25
246720,note_on,0,0,1,,,,,,,,,,,,,,,0,,,60,0
246720,note_on,0,0,2,,,,,,,,,,,,,,,0,,,41,0
246720,note_on,0,0,2,,,,,,,,,,,,,,,0,,,51,29
246720,note_on,0,0,1,,,,,,,,,,,,,,,0,,,72,46
246720,note_on,0,0,1,,,,,,,,,,,,,,,0,,,65,38
246720,note_on,0,0,1,,,,,,,,,,,,,,,0,,,60,34
246720,note_on,480,0,1,,,,,,,,,,,,,,,0,,,72,0
246720,note_on,240,0,2,,,,,,,,,,,,,,,0,,,53,0
246720,note_on,0,0,2,,,,,,,,,,,,,,,0,,,41,26
246720,note_on,0,0,1,,,,,,,,,,,,,,,0,,,65,0
246760,set_tempo,280,1,0,,,,,,,,,,,,743863,,,,,,,
246960,note_on,240,0,2,,,,,,,,,,,,,,,0,,,51,0
246960,set_tempo,200,1,0,,,,,,,,,,,,771010,,,,,,,
246960,note_on,0,0,2,,,,,,,,,,,,,,,0,,,53,26
247200,note_on,0,0,2,,,,,,,,,,,,,,,0,,,41,0
247200,note_on,0,0,1,,,,,,,,,,,,,,,0,,,65,0
247200,note_on,0,0,2,,,,,,,,,,,,,,,0,,,41,27
247200,note_on,240,0,2,,,,,,,,,,,,,,,0,,,53,0
247200,note_on,0,0,2,,,,,,,,,,,,,,,0,,,50,33
247200,set_tempo,240,1,0,,,,,,,,,,,,743863,,,,,,,
247200,note_on,0,0,1,,,,,,,,,,,,,,,0,,,70,50
247200,note_on,0,0,1,,,,,,,,,,,,,,,0,,,65,42
247200,note_on,0,0,1,,,,,,,,,,,,,,,0,,,58,37
247200,note_on,0,0,1,,,,,,,,,,,,,,,0,,,60,0
247200,note_on,480,0,1,,,,,,,,,,,,,,,0,,,72,0
247214,control_change,14,0,2,,,,,,,,,,,,,,,0,64,0,,
247313,control_change,99,0,2,,,,,,,,,,,,,,,0,64,127,,
247440,note_on,0,0,2,,,,,,,,,,,,,,,0,,,48,25
247440,note_on,127,0,2,,,,,,,,,,,,,,,0,,,50,0
247440,set_tempo,240,1,0,,,,,,,,,,,,810811,,,,,,,
247440,note_on,0,0,1,,,,,,,,,,,,,,,0,,,65,38
247440,note_on,0,0,1,,,,,,,,,,,,,,,0,,,58,0
247440,note_on,0,0,1,,,,,,,,,,,,,,,0,,,65,0
247440,note_on,240,0,1,,,,,,,,,,,,,,,0,,,70,0
247440,note_on,0,0,1,,,,,,,,,,,,,,,0,,,69,45
247440,note_on,0,0,1,,,,,,,,,,,,,,,0,,,57,30
247640,set_tempo,200,1,0,,,,,,,,,,,,754527,,,,,,,
247680,control_change,0,0,2,,,,,,,,,,,,,,,0,64,0,,
247680,note_on,0,0,2,,,,,,,,,,,,,,,0,,,50,34
247680,note_on,0,0,2,,,,,,,,,,,,,,,0,,,46,28
247680,note_on,0,0,1,,,,,,,,,,,,,,,0,,,70,52
247680,note_on,240,0,1,,,,,,,,,,,,,,,0,,,69,0
247680,note_on,0,0,1,,,,,,,,,,,,,,,0,,,58,37
247680,note_on,240,0,2,,,,,,,,,,,,,,,0,,,48,0
247680,note_on,0,0,1,,,,,,,,,,,,,,,0,,,65,0
247680,note_on,0,0,1,,,,,,,,,,,,,,,0,,,57,0
247680,note_on,0,0,1,,,,,,,,,,,,,,,0,,,65,52
247680,note_on,0,0,2,,,,,,,,,,,,,,,0,,,41,0
247807,control_change,127,0,2,,,,,,,,,,,,,,,0,64,127,,
247920,note_on,113,0,2,,,,,,,,,,,,,,,0,,,50,0
247920,note_on,0,0,2,,,,,,,,,,,,,,,0,,,53,30
248160,note_on,0,0,1,,,,,,,,,,,,,,,0,,,63,42
248160,note_on,240,0,2,,,,,,,,,,,,,,,0,,,53,0
248160,note_on,0,0,2,,,,,,,,,,,,,,,0,,,51,33
248160,note_on,0,0,1,,,,,,,,,,,,,,,0,,,67,50
248160,set_tempo,520,1,0,,,,,,,,,,,,754527,,,,,,,
248160,note_on,480,0,1,,,,,,,,,,,,,,,0,,,65,0
248231,control_change,71,0,2,,,,,,,,,,,,,,,0,64,0,,
248315,control_change,84,0,2,,,,,,,,,,,,,,,0,64,127,,
248400,note_on,0,0,2,,,,,,,,,,,,,,,0,,,55,28
248400,note_on,85,0,2,,,,,,,,,,,,,,,0,,,51,0
248440,set_tempo,280,1,0,,,,,,,,,,,,782371,,,,,,,
248640,set_tempo,200,1,0,,,,,,,,,,,,759878,,,,,,,
248640,note_on,0,0,2,,,,,,,,,,,,,,,0,,,50,29
248640,note_on,240,0,2,,,,,,,,,,,,,,,0,,,55,0
248640,note_on,480,0,1,,,,,,,,,,,,,,,0,,,67,0
248640,note_on,0,0,1,,,,,,,,,,,,,,,0,,,63,0
248640,note_on,0,0,1,,,,,,,,,,,,,,,0,,,62,36
248640,note_on,0,0,1,,,,,,,,,,,,,,,0,,,65,44
248696,control_change,56,0,2,,,,,,,,,,,,,,,0,64,0,,
248852,control_change,156,0,2,,,,,,,,,,,,,,,0,64,127,,
248880,note_on,0,0,2,,,,,,,,,,,,,,,0,,,53,30
248880,set_tempo,240,1,0,,,,,,,,,,,,782371,,,,,,,
248880,note_on,28,0,2,,,,,,,,,,,,,,,0,,,50,0
249120,note_on,240,0,2,,,,,,,,,,,,,,,0,,,53,0
249120,note_on,0,0,2,,,,,,,,,,,,,,,0,,,46,0
249120,note_on,0,0,2,,,,,,,,,,,,,,,0,,,46,28
249120,note_on,480,0,1,,,,,,,,,,,,,,,0,,,65,0
249120,note_on,0,0,1,,,,,,,,,,,,,,,0,,,58,0
249120,note_on,0,0,1,,,,,,,,,,,,,,,0,,,62,0
249120,note_on,0,0,1,,,,,,,,,,,,,,,0,,,70,61
249120,note_on,0,0,2,,,,,,,,,,,,,,,0,,,50,39
249120,set_tempo,240,1,0,,,,,,,,,,,,789474,,,,,,,
249120,note_on,0,0,1,,,,,,,,,,,,,,,0,,,70,0
249162,control_change,42,0,2,,,,,,,,,,,,,,,0,64,0,,
249219,control_change,57,0,2,,,,,,,,,,,,,,,0,64,127,,
249360,note_on,0,0,2,,,,,,,,,,,,,,,0,,,58,34
249360,note_on,141,0,2,,,,,,,,,,,,,,,0,,,50,0
249360,set_tempo,240,1,0,,,,,,,,,,,,810811,,,,,,,
249600,set_tempo,240,1,0,,,,,,,,,,,,743863,,,,,,,
249600,control_change,0,0,2,,,,,,,,,,,,,,,0,64,0,,
249600,note_on,0,0,2,,,,,,,,,,,,,,,0,,,55,36
249600,note_on,0,0,2,,,,,,,,,,,,,,,0,,,46,30
249600,note_on,0,0,2,,,,,,,,,,,,,,,0,,,46,0
249600,note_on,240,0,2,,,,,,,,,,,,,,,0,,,58,0
249600,note_on,480,0,1,,,,,,,,,,,,,,,0,,,70,0
249600,note_on,0,0,1,,,,,,,,,,,,,,,0,,,63,45
249600,note_on,0,0,1,,,,,,,,,,,,,,,0,,,70,51
249600,note_on,0,0,1,,,,,,,,,,,,,,,0,,,75,60
249714,control_change,114,0,2,,,,,,,,,,,,,,,0,64,127,,
249840,note_on,126,0,2,,,,,,,,,,,,,,,0,,,58,32
249840,set_tempo,240,1,0,,,,,,,,,,,,738643,,,,,,,
249960,note_on,120,0,2,,,,,,,,,,,,,,,0,,,58,0
250080,note_on,120,0,2,,,,,,,,,,,,,,,0,,,58,33
250080,set_tempo,240,1,0,,,,,,,,,,,,728332,,,,,,,
250200,note_on,120,0,2,,,,,,,,,,,,,,,0,,,58,0
250320,note_on,120,0,2,,,,,,,,,,,,,,,0,,,58,30
250440,note_on,120,0,2,,,,,,,,,,,,,,,0,,,58,0
250560,note_on,120,0,2,,,,,,,,,,,,,,,0,,,58,34
250680,note_on,120,0,2,,,,,,,,,,,,,,,0,,,58,0
250800,note_on,120,0,2,,,,,,,,,,,,,,,0,,,58,31
250920,note_on,120,0,2,,,,,,,,,,,,,,,0,,,58,0
251040,note_on,120,0,2,,,,,,,,,,,,,,,0,,,55,0
251040,note_on,0,0,1,,,,,,,,,,,,,,,0,,,70,0
251040,note_on,0,0,2,,,,,,,,,,,,,,,0,,,46,0
251040,note_on,0,0,2,,,,,,,,,,,,,,,0,,,46,27
251040,note_on,0,0,2,,,,,,,,,,,,,,,0,,,53,33
251040,note_on,0,0,1,,,,,,,,,,,,,,,0,,,74,55
251040,note_on,0,0,1,,,,,,,,,,,,,,,0,,,70,46
251040,note_on,0,0,1,,,,,,,,,,,,,,,0,,,62,41
251040,note_on,1440,0,1,,,,,,,,,,,,,,,0,,,75,0
251040,note_on,0,0,1,,,,,,,,,,,,,,,0,,,63,0
251040,control_change,0,0,2,,,,,,,,,,,,,,,0,64,0,,
251154,control_change,114,0,2,,,,,,,,,,,,,,,0,64,127,,
251280,note_on,126,0,2,,,,,,,,,,,,,,,0,,,53,0
251280,note_on,0,0,1,,,,,,,,,,,,,,,0,,,72,50
251280,note_on,0,0,2,,,,,,,,,,,,,,,0,,,51,31
251280,note_on,0,0,1,,,,,,,,,,,,,,,0,,,70,42
251280,note_on,0,0,1,,,,,,,,,,,,,,,0,,,60,37
251280,note_on,0,0,1,,,,,,,,,,,,,,,0,,,62,0
251280,note_on,0,0,1,,,,,,,,,,,,,,,0,,,70,0
251280,set_tempo,1200,1,0,,,,,,,,,,,,776699,,,,,,,
251280,note_on,240,0,1,,,,,,,,,,,,,,,0,,,74,0
251520,note_on,0,0,2,,,,,,,,,,,,,,,0,,,46,27
251520,note_on,240,0,2,,,,,,,,,,,,,,,0,,,51,0
251520,control_change,0,0,2,,,,,,,,,,,,,,,0,64,0,,
251520,note_on,0,0,2,,,,,,,,,,,,,,,0,,,53,33
251520,note_on,0,0,2,,,,,,,,,,,,,,,0,,,46,0
251520,note_on,0,0,1,,,,,,,,,,,,,,,0,,,74,53
251520,set_tempo,240,1,0,,,,,,,,,,,,743863,,,,,,,
251520,note_on,240,0,1,,,,,,,,,,,,,,,0,,,72,0
251520,note_on,0,0,1,,,,,,,,,,,,,,,0,,,70,0
251520,note_on,0,0,1,,,,,,,,,,,,,,,0,,,60,0
251520,note_on,0,0,1,,,,,,,,,,,,,,,0,,,62,45
251520,note_on,0,0,1,,,,,,,,,,,,,,,0,,,70,45
251633,control_change,113,0,2,,,,,,,,,,,,,,,0,64,127,,
251760,note_on,127,0,2,,,,,,,,,,,,,,,0,,,53,0
251760,note_on,0,0,2,,,,,,,,,,,,,,,0,,,50,28
252000,note_on,240,0,2,,,,,,,,,,,,,,,0,,,50,0
252000,note_on,0,0,2,,,,,,,,,,,,,,,0,,,46,0
252000,note_on,0,0,2,,,,,,,,,,,,,,,0,,,41,27
252000,note_on,0,0,2,,,,,,,,,,,,,,,0,,,48,33
252000,set_tempo,480,1,0,,,,,,,,,,,,754527,,,,,,,
252000,note_on,480,0,1,,,,,,,,,,,,,,,0,,,74,0
252000,note_on,0,0,1,,,,,,,,,,,,,,,0,,,70,0
252000,note_on,0,0,1,,,,,,,,,,,,,,,0,,,62,0
252000,note_on,0,0,1,,,,,,,,,,,,,,,0,,,57,37
252000,note_on,0,0,1,,,,,,,,,,,,,,,0,,,65,42
252000,note_on,0,0,1,,,,,,,,,,,,,,,0,,,69,50
252028,control_change,28,0,2,,,,,,,,,,,,,,,0,64,0,,
252127,control_change,99,0,2,,,,,,,,,,,,,,,0,64,127,,
252240,note_on,113,0,2,,,,,,,,,,,,,,,0,,,48,0
252240,note_on,0,0,2,,,,,,,,,,,,,,,0,,,53,28
252240,set_tempo,240,1,0,,,,,,,,,,,,771010,,,,,,,
252480,note_on,480,0,1,,,,,,,,,,,,,,,0,,,69,0
252480,note_on,0,0,2,,,,,,,,,,,,,,,0,,,50,33
252480,note_on,0,0,2,,,,,,,,,,,,,,,0,,,41,27
252480,note_on,0,0,2,,,,,,,,,,,,,,,0,,,41,0
252480,note_on,240,0,2,,,,,,,,,,,,,,,0,,,53,0
252480,note_on,0,0,1,,,,,,,,,,,,,,,0,,,65,0
252480,note_on,0,0,1,,,,,,,,,,,,,,,0,,,57,0
252480,note_on,0,0,1,,,,,,,,,,,,,,,0,,,70,52
252480,set_tempo,240,1,0,,,,,,,,,,,,759878,,,,,,,
252480,note_on,0,0,1,,,,,,,,,,,,,,,0,,,58,39
252480,note_on,0,0,1,,,,,,,,,,,,,,,0,,,65,44
252551,control_change,71,0,2,,,,,,,,,,,,,,,0,64,0,,
252649,control_change,98,0,2,,,,,,,,,,,,,,,0,64,127,,
252720,note_on,0,0,2,,,,,,,,,,,,,,,0,,,53,30
252720,note_on,71,0,2,,,,,,,,,,,,,,,0,,,50,0
252946,control_change,226,0,2,,,,,,,,,,,,,,,0,64,0,,
252960,note_on,480,0,1,,,,,,,,,,,,,,,0,,,70,0
252960,note_on,0,0,1,,,,,,,,,,,,,,,0,,,58,0
252960,note_on,0,0,1,,,,,,,,,,,,,,,0,,,60,37
252960,note_on,0,0,1,,,,,,,,,,,,,,,0,,,65,42
252960,note_on,0,0,1,,,,,,,,,,,,,,,0,,,72,50
252960,note_on,14,0,2,,,,,,,,,,,,,,,0,,,53,0
252960,note_on,0,0,2,,,,,,,,,,,,,,,0,,,41,0
252960,note_on,0,0,2,,,,,,,,,,,,,,,0,,,41,27
252960,note_on,0,0,2,,,,,,,,,,,,,,,0,,,51,32
252960,set_tempo,480,1,0,,,,,,,,,,,,749157,,,,,,,
252960,note_on,0,0,1,,,,,,,,,,,,,,,0,,,65,0
253045,control_change,85,0,2,,,,,,,,,,,,,,,0,64,127,,
253200,note_on,0,0,2,,,,,,,,,,,,,,,0,,,53,29
253200,note_on,155,0,2,,,,,,,,,,,,,,,0,,,51,0
253240,set_tempo,280,1,0,,,,,,,,,,,,782371,,,,,,,
253440,note_on,0,0,1,,,,,,,,,,,,,,,0,,,65,44
253440,note_on,0,0,2,,,,,,,,,,,,,,,0,,,41,0
253440,set_tempo,200,1,0,,,,,,,,,,,,771010,,,,,,,
253440,note_on,0,0,2,,,,,,,,,,,,,,,0,,,41,27
253440,note_on,0,0,1,,,,,,,,,,,,,,,0,,,60,0
253440,note_on,0,0,1,,,,,,,,,,,,,,,0,,,65,0
253440,note_on,0,0,2,,,,,,,,,,,,,,,0,,,50,32
253440,note_on,0,0,1,,,,,,,,,,,,,,,0,,,58,39
253440,note_on,480,0,1,,,,,,,,,,,,,,,0,,,72,0
253440,note_on,0,0,1,,,,,,,,,,,,,,,0,,,70,52
253440,note_on,240,0,2,,,,,,,,,,,,,,,0,,,53,0
253496,control_change,56,0,2,,,,,,,,,,,,,,,0,64,0,,
253581,control_change,85,0,2,,,,,,,,,,,,,,,0,64,127,,
253680,set_tempo,240,1,0,,,,,,,,,,,,794176,,,,,,,
253680,note_on,0,0,2,,,,,,,,,,,,,,,0,,,53,29
253680,note_on,99,0,2,,,,,,,,,,,,,,,0,,,50,0
253920,note_on,0,0,1,,,,,,,,,,,,,,,0,,,65,0
253920,note_on,0,0,1,,,,,,,,,,,,,,,0,,,74,52
253920,note_on,0,0,1,,,,,,,,,,,,,,,0,,,70,44
253920,note_on,0,0,1,,,,,,,,,,,,,,,0,,,62,39
253920,note_on,480,0,1,,,,,,,,,,,,,,,0,,,70,0
253920,note_on,0,0,1,,,,,,,,,,,,,,,0,,,58,0
253920,note_on,0,0,1,,,,,,,,,,,,,,,0,,,65,44
253920,note_on,0,0,2,,,,,,,,,,,,,,,0,,,50,32
253920,note_on,240,0,2,,,,,,,,,,,,,,,0,,,53,0
253920,set_tempo,240,1,0,,,,,,,,,,,,810811,,,,,,,
254160,set_tempo,240,1,0,,,,,,,,,,,,923077,,,,,,,
254160,note_on,240,0,2,,,,,,,,,,,,,,,0,,,50,0
254160,note_on,0,0,2,,,,,,,,,,,,,,,0,,,46,29
254400,note_on,480,0,1,,,,,,,,,,,,,,,0,,,74,0
254400,note_on,0,0,1,,,,,,,,,,,,,,,0,,,65,0
254400,set_tempo,240,1,0,,,,,,,,,,,,794702,,,,,,,
254400,note_on,0,0,2,,,,,,,,,,,,,,,0,,,41,0
254400,note_on,240,0,2,,,,,,,,,,,,,,,0,,,46,0
254400,note_on,0,0,1,,,,,,,,,,,,,,,0,,,72,50
254400,note_on,0,0,2,,,,,,,,,,,,,,,0,,,41,32
254400,note_on,0,0,1,,,,,,,,,,,,,,,0,,,65,42
254400,note_on,0,0,1,,,,,,,,,,,,,,,0,,,60,37
254400,note_on,0,0,1,,,,,,,,,,,,,,,0,,,70,0
254400,note_on,0,0,1,,,,,,,,,,,,,,,0,,,62,0
254400,note_on,0,0,1,,,,,,,,,,,,,,,0,,,69,42
254485,control_change,85,0,2,,,,,,,,,,,,,,,0,64,0,,
254880,set_tempo,480,1,0,,,,,,,,,,,,865801,,,,,,,
254880,note_on,395,0,2,,,,,,,,,,,,,,,0,,,41,0
255120,set_tempo,240,1,0,,,,,,,,,,,,771010,,,,,,,
255120,note_on,240,0,2,,,,,,,,,,,,,,,0,,,29,27
255200,note_on,80,0,2,,,,,,,,,,,,,,,0,,,30,22
255220,note_on,20,0,2,,,,,,,,,,,,,,,0,,,29,0
255280,note_on,60,0,2,,,,,,,,,,,,,,,0,,,32,22
255300,note_on,20,0,2,,,,,,,,,,,,,,,0,,,30,0
255360,note_on,60,0,2,,,,,,,,,,,,,,,0,,,30,27
255360,set_tempo,240,1,0,,,,,,,,,,,,825196,,,,,,,
255380,note_on,20,0,2,,,,,,,,,,,,,,,0,,,32,0
255420,note_on,40,0,2,,,,,,,,,,,,,,,0,,,32,23
255424,set_tempo,64,1,0,,,,,,,,,,,,818777,,,,,,,
255460,note_on,40,0,2,,,,,,,,,,,,,,,0,,,30,0
255480,set_tempo,56,1,0,,,,,,,,,,,,812458,,,,,,,
255480,note_on,20,0,2,,,,,,,,,,,,,,,0,,,30,24
255520,note_on,40,0,2,,,,,,,,,,,,,,,0,,,32,0
255540,note_on,20,0,2,,,,,,,,,,,,,,,0,,,32,22
255544,set_tempo,64,1,0,,,,,,,,,,,,806235,,,,,,,
255580,note_on,40,0,2,,,,,,,,,,,,,,,0,,,30,0
255600,set_tempo,56,1,0,,,,,,,,,,,,800213,,,,,,,
255600,note_on,20,0,2,,,,,,,,,,,,,,,0,,,30,24
255640,note_on,40,0,2,,,,,,,,,,,,,,,0,,,32,0
255660,note_on,20,0,2,,,,,,,,,,,,,,,0,,,32,22
255664,set_tempo,64,1,0,,,,,,,,,,,,794176,,,,,,,
255700,note_on,40,0,2,,,,,,,,,,,,,,,0,,,30,0
255720,set_tempo,56,1,0,,,,,,,,,,,,788229,,,,,,,
255720,note_on,20,0,2,,,,,,,,,,,,,,,0,,,30,25
255732,set_tempo,12,1,0,,,,,,,,,,,,765404,,,,,,,
255744,set_tempo,12,1,0,,,,,,,,,,,,759878,,,,,,,
255760,note_on,40,0,2,,,,,,,,,,,,,,,0,,,32,0
255780,note_on,20,0,2,,,,,,,,,,,,,,,0,,,32,24
255800,set_tempo,56,1,0,,,,,,,,,,,,765404,,,,,,,
255812,set_tempo,12,1,0,,,,,,,,,,,,776699,,,,,,,
255820,note_on,40,0,2,,,,,,,,,,,,,,,0,,,30,0
255840,note_on,20,0,2,,,,,,,,,,,,,,,0,,,30,26
255852,set_tempo,40,1,0,,,,,,,,,,,,765404,,,,,,,
255880,note_on,40,0,2,,,,,,,,,,,,,,,0,,,32,0
255880,set_tempo,28,1,0,,,,,,,,,,,,759878,,,,,,,
255892,set_tempo,12,1,0,,,,,,,,,,,,749157,,,,,,,
255900,note_on,20,0,2,,,,,,,,,,,,,,,0,,,32,23
255904,set_tempo,12,1,0,,,,,,,,,,,,743863,,,,,,,
255920,set_tempo,16,1,0,,,,,,,,,,,,754527,,,,,,,
255932,set_tempo,12,1,0,,,,,,,,,,,,759878,,,,,,,
255940,note_on,40,0,2,,,,,,,,,,,,,,,0,,,30,0
255944,set_tempo,12,1,0,,,,,,,,,,,,771010,,,,,,,
255960,note_on,20,0,2,,,,,,,,,,,,,,,0,,,30,26
255960,set_tempo,16,1,0,,,,,,,,,,,,765404,,,,,,,
255972,set_tempo,12,1,0,,,,,,,,,,,,754527,,,,,,,
255984,set_tempo,12,1,0,,,,,,,,,,,,749157,,,,,,,
256000,note_on,40,0,2,,,,,,,,,,,,,,,0,,,32,0
256000,set_tempo,16,1,0,,,,,,,,,,,,743863,,,,,,,
256012,set_tempo,12,1,0,,,,,,,,,,,,738643,,,,,,,
256020,note_on,20,0,2,,,,,,,,,,,,,,,0,,,32,22
256052,set_tempo,40,1,0,,,,,,,,,,,,749157,,,,,,,
256060,note_on,40,0,2,,,,,,,,,,,,,,,0,,,30,0
256064,set_tempo,12,1,0,,,,,,,,,,,,759878,,,,,,,
256080,set_tempo,16,1,0,,,,,,,,,,,,765404,,,,,,,
256080,note_on,20,0,2,,,,,,,,,,,,,,,0,,,30,25
256092,set_tempo,12,1,0,,,,,,,,,,,,771010,,,,,,,
256120,note_on,40,0,2,,,,,,,,,,,,,,,0,,,32,0
256120,set_tempo,28,1,0,,,,,,,,,,,,765404,,,,,,,
256132,set_tempo,12,1,0,,,,,,,,,,,,754527,,,,,,,
256140,note_on,20,0,2,,,,,,,,,,,,,,,0,,,32,23
256144,set_tempo,12,1,0,,,,,,,,,,,,749157,,,,,,,
256160,set_tempo,16,1,0,,,,,,,,,,,,743863,,,,,,,
256172,set_tempo,12,1,0,,,,,,,,,,,,738643,,,,,,,
256180,note_on,40,0,2,,,,,,,,,,,,,,,0,,,30,0
256184,set_tempo,12,1,0,,,,,,,,,,,,743863,,,,,,,
256200,set_tempo,16,1,0,,,,,,,,,,,,754527,,,,,,,
256200,note_on,20,0,2,,,,,,,,,,,,,,,0,,,30,24
256212,set_tempo,12,1,0,,,,,,,,,,,,759878,,,,,,,
256240,note_on,40,0,2,,,,,,,,,,,,,,,0,,,32,0
256240,set_tempo,28,1,0,,,,,,,,,,,,765404,,,,,,,
256260,note_on,20,0,2,,,,,,,,,,,,,,,0,,,32,22
256264,set_tempo,24,1,0,,,,,,,,,,,,754527,,,,,,,
256280,set_tempo,16,1,0,,,,,,,,,,,,749157,,,,,,,
256292,set_tempo,12,1,0,,,,,,,,,,,,738643,,,,,,,
256300,note_on,40,0,2,,,,,,,,,,,,,,,0,,,30,0
256304,set_tempo,12,1,0,,,,,,,,,,,,743863,,,,,,,
256320,note_on,20,0,2,,,,,,,,,,,,,,,0,,,30,26
256320,set_tempo,16,1,0,,,,,,,,,,,,765404,,,,,,,
256332,set_tempo,12,1,0,,,,,,,,,,,,776699,,,,,,,
256344,set_tempo,12,1,0,,,,,,,,,,,,782371,,,,,,,
256360,set_tempo,16,1,0,,,,,,,,,,,,776699,,,,,,,
256360,note_on,40,0,2,,,,,,,,,,,,,,,0,,,32,0
256372,set_tempo,12,1,0,,,,,,,,,,,,759878,,,,,,,
256380,note_on,20,0,2,,,,,,,,,,,,,,,0,,,32,23
256384,set_tempo,12,1,0,,,,,,,,,,,,754527,,,,,,,
256400,set_tempo,16,1,0,,,,,,,,,,,,749157,,,,,,,
256412,set_tempo,12,1,0,,,,,,,,,,,,743863,,,,,,,
256420,note_on,40,0,2,,,,,,,,,,,,,,,0,,,30,0
256424,set_tempo,12,1,0,,,,,,,,,,,,749157,,,,,,,
256440,note_on,20,0,2,,,,,,,,,,,,,,,0,,,30,25
256440,set_tempo,16,1,0,,,,,,,,,,,,765404,,,,,,,
256452,set_tempo,12,1,0,,,,,,,,,,,,771010,,,,,,,
256480,note_on,40,0,2,,,,,,,,,,,,,,,0,,,32,0
256480,set_tempo,28,1,0,,,,,,,,,,,,759878,,,,,,,
256492,set_tempo,12,1,0,,,,,,,,,,,,749157,,,,,,,
256500,note_on,20,0,2,,,,,,,,,,,,,,,0,,,32,23
256504,set_tempo,12,1,0,,,,,,,,,,,,743863,,,,,,,
256520,set_tempo,16,1,0,,,,,,,,,,,,738643,,,,,,,
256532,set_tempo,12,1,0,,,,,,,,,,,,743863,,,,,,,
256540,note_on,40,0,2,,,,,,,,,,,,,,,0,,,30,0
256544,set_tempo,12,1,0,,,,,,,,,,,,754527,,,,,,,
256560,note_on,20,0,2,,,,,,,,,,,,,,,0,,,30,25
256560,set_tempo,16,1,0,,,,,,,,,,,,759878,,,,,,,
256572,set_tempo,12,1,0,,,,,,,,,,,,765404,,,,,,,
256600,note_on,40,0,2,,,,,,,,,,,,,,,0,,,32,0
256612,set_tempo,40,1,0,,,,,,,,,,,,754527,,,,,,,
256620,note_on,20,0,2,,,,,,,,,,,,,,,0,,,32,22
256624,set_tempo,12,1,0,,,,,,,,,,,,749157,,,,,,,
256640,set_tempo,16,1,0,,,,,,,,,,,,743863,,,,,,,
256660,note_on,40,0,2,,,,,,,,,,,,,,,0,,,30,0
256680,note_on,20,0,2,,,,,,,,,,,,,,,0,,,30,25
256692,set_tempo,52,1,0,,,,,,,,,,,,754527,,,,,,,
256704,set_tempo,12,1,0,,,,,,,,,,,,765404,,,,,,,
256720,note_on,40,0,2,,,,,,,,,,,,,,,0,,,32,0
256720,set_tempo,16,1,0,,,,,,,,,,,,771010,,,,,,,
256732,set_tempo,12,1,0,,,,,,,,,,,,759878,,,,,,,
256740,note_on,20,0,2,,,,,,,,,,,,,,,0,,,32,22
256744,set_tempo,12,1,0,,,,,,,,,,,,754527,,,,,,,
256760,set_tempo,16,1,0,,,,,,,,,,,,749157,,,,,,,
256772,set_tempo,12,1,0,,,,,,,,,,,,743863,,,,,,,
256780,note_on,40,0,2,,,,,,,,,,,,,,,0,,,30,0
256784,set_tempo,12,1,0,,,,,,,,,,,,749157,,,,,,,
256800,note_on,20,0,2,,,,,,,,,,,,,,,0,,,30,27
256800,set_tempo,16,1,0,,,,,,,,,,,,759878,,,,,,,
256812,set_tempo,12,1,0,,,,,,,,,,,,771010,,,,,,,
256824,set_tempo,12,1,0,,,,,,,,,,,,776699,,,,,,,
256840,set_tempo,16,1,0,,,,,,,,,,,,782371,,,,,,,
256840,note_on,40,0,2,,,,,,,,,,,,,,,0,,,32,0
256852,set_tempo,12,1,0,,,,,,,,,,,,788229,,,,,,,
256860,note_on,20,0,2,,,,,,,,,,,,,,,0,,,32,23
256864,set_tempo,12,1,0,,,,,,,,,,,,782371,,,,,,,
256880,set_tempo,16,1,0,,,,,,,,,,,,771010,,,,,,,
256892,set_tempo,12,1,0,,,,,,,,,,,,765404,,,,,,,
256900,note_on,40,0,2,,,,,,,,,,,,,,,0,,,30,0
256920,note_on,20,0,2,,,,,,,,,,,,,,,0,,,30,26
256960,note_on,40,0,2,,,,,,,,,,,,,,,0,,,32,0
256980,note_on,20,0,2,,,,,,,,,,,,,,,0,,,32,22
257000,set_tempo,108,1,0,,,,,,,,,,,,771010,,,,,,,
257020,note_on,40,0,2,,,,,,,,,,,,,,,0,,,30,0
257040,note_on,20,0,2,,,,,,,,,,,,,,,0,,,29,22
257040,set_tempo,40,1,0,,,,,,,,,,,,743863,,,,,,,
257080,note_on,40,0,2,,,,,,,,,,,,,,,0,,,32,0
257160,note_on,80,0,2,,,,,,,,,,,,,,,0,,,30,18
257160,set_tempo,120,1,0,,,,,,,,,,,,839161,,,,,,,
257180,note_on,20,0,2,,,,,,,,,,,,,,,0,,,29,0
257280,set_tempo,120,1,0,,,,,,,,,,,,782371,,,,,,,
257280,note_on,100,0,2,,,,,,,,,,,,,,,0,,,29,23
257300,note_on,20,0,2,,,,,,,,,,,,,,,0,,,30,0
257400,note_on,100,0,2,,,,,,,,,,,,,,,0,,,29,0
257520,note_on,0,0,1,,,,,,,,,,,,,,,0,,,69,0
257520,note_on,3120,0,1,,,,,,,,,,,,,,,0,,,72,0
257520,note_on,0,0,1,,,,,,,,,,,,,,,0,,,60,0
257520,note_on,0,0,1,,,,,,,,,,,,,,,0,,,65,0
258720,note_on,0,0,2,,,,,,,,,,,,,,,0,,,50,33
258720,note_on,1320,0,2,,,,,,,,,,,,,,,0,,,46,27
258720,set_tempo,1440,1,0,,,,,,,,,,,,765404,,,,,,,
258720,note_on,1200,0,1,,,,,,,,,,,,,,,0,,,58,36
258720,note_on,0,0,1,,,,,,,,,,,,,,,0,,,65,40
258720,note_on,0,0,1,,,,,,,,,,,,,,,0,,,70,48
258734,control_change,14,0,2,,,,,,,,,,,,,,,0,64,127,,
258960,note_on,226,0,2,,,,,,,,,,,,,,,0,,,50,0
258960,note_on,0,0,2,,,,,,,,,,,,,,,0,,,53,28
259200,note_on,0,0,1,,,,,,,,,,,,,,,0,,,70,50
259200,note_on,240,0,2,,,,,,,,,,,,,,,0,,,53,0
259200,set_tempo,480,1,0,,,,,,,,,,,,743863,,,,,,,
259200,note_on,0,0,2,,,,,,,,,,,,,,,0,,,46,0
259200,note_on,0,0,2,,,,,,,,,,,,,,,0,,,50,34
259200,note_on,0,0,2,,,,,,,,,,,,,,,0,,,46,28
259200,note_on,0,0,1,,,,,,,,,,,,,,,0,,,65,0
259200,note_on,480,0,1,,,,,,,,,,,,,,,0,,,70,0
259200,note_on,0,0,1,,,,,,,,,,,,,,,0,,,58,37
259200,note_on,0,0,1,,,,,,,,,,,,,,,0,,,58,0
259200,note_on,0,0,1,,,,,,,,,,,,,,,0,,,65,42
259200,control_change,0,0,2,,,,,,,,,,,,,,,0,64,0,,
259285,control_change,85,0,2,,,,,,,,,,,,,,,0,64,127,,
259440,note_on,155,0,2,,,,,,,,,,,,,,,0,,,50,0
259440,note_on,0,0,2,,,,,,,,,,,,,,,0,,,53,28
259480,set_tempo,280,1,0,,,,,,,,,,,,765404,,,,,,,
259680,note_on,480,0,1,,,,,,,,,,,,,,,0,,,70,0
259680,note_on,0,0,1,,,,,,,,,,,,,,,0,,,65,0
259680,note_on,0,0,1,,,,,,,,,,,,,,,0,,,58,0
259680,note_on,0,0,1,,,,,,,,,,,,,,,0,,,57,31
259680,note_on,0,0,1,,,,,,,,,,,,,,,0,,,65,40
259680,note_on,0,0,1,,,,,,,,,,,,,,,0,,,69,48
259680,control_change,0,0,2,,,,,,,,,,,,,,,0,64,0,,
259680,note_on,240,0,2,,,,,,,,,,,,,,,0,,,53,0
259680,note_on,0,0,2,,,,,,,,,,,,,,,0,,,48,31
259680,set_tempo,200,1,0,,,,,,,,,,,,743863,,,,,,,
259680,note_on,0,0,2,,,,,,,,,,,,,,,0,,,46,0
259680,note_on,0,0,2,,,,,,,,,,,,,,,0,,,46,24
259765,control_change,85,0,2,,,,,,,,,,,,,,,0,64,127,,
259920,note_on,155,0,2,,,,,,,,,,,,,,,0,,,48,0
259920,note_on,0,0,2,,,,,,,,,,,,,,,0,,,53,27
259920,set_tempo,240,1,0,,,,,,,,,,,,771010,,,,,,,
260080,set_tempo,160,1,0,,,,,,,,,,,,749157,,,,,,,
260160,note_on,0,0,1,,,,,,,,,,,,,,,0,,,70,50
260160,note_on,480,0,1,,,,,,,,,,,,,,,0,,,69,0
260160,note_on,0,0,1,,,,,,,,,,,,,,,0,,,65,42
260160,note_on,0,0,1,,,,,,,,,,,,,,,0,,,58,37
260160,note_on,0,0,1,,,,,,,,,,,,,,,0,,,57,0
260160,note_on,0,0,1,,,,,,,,,,,,,,,0,,,65,0
260160,note_on,0,0,2,,,,,,,,,,,,,,,0,,,50,34
260160,note_on,0,0,2,,,,,,,,,,,,,,,0,,,46,28
260160,note_on,0,0,2,,,,,,,,,,,,,,,0,,,46,0
260160,set_tempo,80,1,0,,,,,,,,,,,,765404,,,,,,,
260160,note_on,240,0,2,,,,,,,,,,,,,,,0,,,53,0
260202,control_change,42,0,2,,,,,,,,,,,,,,,0,64,0,,
260315,control_change,113,0,2,,,,,,,,,,,,,,,0,64,127,,
260400,note_on,85,0,2,,,,,,,,,,,,,,,0,,,50,0
260400,note_on,0,0,2,,,,,,,,,,,,,,,0,,,53,27
260400,set_tempo,240,1,0,,,,,,,,,,,,776699,,,,,,,
260640,note_on,480,0,1,,,,,,,,,,,,,,,0,,,70,0
260640,note_on,0,0,1,,,,,,,,,,,,,,,0,,,65,0
260640,note_on,0,0,1,,,,,,,,,,,,,,,0,,,58,0
260640,note_on,0,0,1,,,,,,,,,,,,,,,0,,,60,36
260640,note_on,0,0,1,,,,,,,,,,,,,,,0,,,65,40
260640,note_on,0,0,1,,,,,,,,,,,,,,,0,,,72,48
260640,set_tempo,240,1,0,,,,,,,,,,,,749157,,,,,,,
260640,note_on,0,0,2,,,,,,,,,,,,,,,0,,,46,0
260640,note_on,0,0,2,,,,,,,,,,,,,,,0,,,46,27
260640,note_on,0,0,2,,,,,,,,,,,,,,,0,,,51,33
260640,note_on,240,0,2,,,,,,,,,,,,,,,0,,,53,0
260668,control_change,28,0,2,,,,,,,,,,,,,,,0,64,0,,
260781,control_change,113,0,2,,,,,,,,,,,,,,,0,64,127,,
260880,note_on,99,0,2,,,,,,,,,,,,,,,0,,,51,0
260880,note_on,0,0,2,,,,,,,,,,,,,,,0,,,53,26
260880,set_tempo,240,1,0,,,,,,,,,,,,776699,,,,,,,
261120,control_change,0,0,2,,,,,,,,,,,,,,,0,64,0,,
261120,note_on,480,0,1,,,,,,,,,,,,,,,0,,,72,0
261120,note_on,0,0,1,,,,,,,,,,,,,,,0,,,65,0
261120,note_on,0,0,1,,,,,,,,,,,,,,,0,,,60,0
261120,note_on,0,0,1,,,,,,,,,,,,,,,0,,,65,45
261120,note_on,0,0,1,,,,,,,,,,,,,,,0,,,74,53
261120,note_on,0,0,1,,,,,,,,,,,,,,,0,,,62,40
261120,note_on,0,0,2,,,,,,,,,,,,,,,0,,,46,0
261120,set_tempo,240,1,0,,,,,,,,,,,,743863,,,,,,,
261120,note_on,0,0,2,,,,,,,,,,,,,,,0,,,46,28
261120,note_on,0,0,2,,,,,,,,,,,,,,,0,,,52,34
261120,note_on,240,0,2,,,,,,,,,,,,,,,0,,,53,0
261223,control_change,103,0,2,,,,,,,,,,,,,,,0,64,127,,
261339,control_change,116,0,2,,,,,,,,,,,,,,,0,64,0,,
261360,note_on,0,0,2,,,,,,,,,,,,,,,0,,,53,26
261360,set_tempo,240,1,0,,,,,,,,,,,,728332,,,,,,,
261360,note_on,21,0,2,,,,,,,,,,,,,,,0,,,52,0
261424,control_change,64,0,2,,,,,,,,,,,,,,,0,64,127,,
261480,note_on,56,0,2,,,,,,,,,,,,,,,0,,,53,0
261600,set_tempo,240,1,0,,,,,,,,,,,,728332,,,,,,,
261600,note_on,120,0,2,,,,,,,,,,,,,,,0,,,53,26
261720,note_on,120,0,2,,,,,,,,,,,,,,,0,,,53,0
261840,note_on,120,0,2,,,,,,,,,,,,,,,0,,,53,26
261960,note_on,120,0,2,,,,,,,,,,,,,,,0,,,53,0
262080,note_on,120,0,2,,,,,,,,,,,,,,,0,,,53,26
262200,note_on,120,0,2,,,,,,,,,,,,,,,0,,,53,0
262320,note_on,120,0,2,,,,,,,,,,,,,,,0,,,53,26
262440,note_on,120,0,2,,,,,,,,,,,,,,,0,,,53,0
262560,note_on,0,0,2,,,,,,,,,,,,,,,0,,,46,27
262560,note_on,0,0,2,,,,,,,,,,,,,,,0,,,51,33
262560,note_on,0,0,1,,,,,,,,,,,,,,,0,,,72,50
262560,note_on,1440,0,1,,,,,,,,,,,,,,,0,,,74,0
262560,note_on,0,0,1,,,,,,,,,,,,,,,0,,,65,0
262560,note_on,120,0,2,,,,,,,,,,,,,,,0,,,46,0
262560,note_on,0,0,1,,,,,,,,,,,,,,,0,,,62,0
262560,note_on,0,0,1,,,,,,,,,,,,,,,0,,,60,37
262560,note_on,0,0,1,,,,,,,,,,,,,,,0,,,65,42
262560,set_tempo,960,1,0,,,,,,,,,,,,733407,,,,,,,
262567,control_change,7,0,2,,,,,,,,,,,,,,,0,64,0,,
262640,control_change,73,0,2,,,,,,,,,,,,,,,0,64,127,,
262800,note_on,0,0,1,,,,,,,,,,,,,,,0,,,70,46
262800,note_on,0,0,1,,,,,,,,,,,,,,,0,,,65,39
262800,note_on,0,0,1,,,,,,,,,,,,,,,0,,,58,35
262800,note_on,0,0,1,,,,,,,,,,,,,,,0,,,60,0
262800,note_on,0,0,1,,,,,,,,,,,,,,,0,,,65,0
262800,note_on,240,0,1,,,,,,,,,,,,,,,0,,,72,0
262800,note_on,160,0,2,,,,,,,,,,,,,,,0,,,51,0
262800,note_on,0,0,2,,,,,,,,,,,,,,,0,,,50,27
262800,set_tempo,240,1,0,,,,,,,,,,,,789474,,,,,,,
263040,note_on,0,0,1,,,,,,,,,,,,,,,0,,,60,35
263040,note_on,0,0,1,,,,,,,,,,,,,,,0,,,65,39
263040,note_on,0,0,1,,,,,,,,,,,,,,,0,,,58,0
263040,set_tempo,240,1,0,,,,,,,,,,,,743863,,,,,,,
263040,note_on,240,0,1,,,,,,,,,,,,,,,0,,,70,0
263040,note_on,0,0,1,,,,,,,,,,,,,,,0,,,65,0
263040,note_on,240,0,2,,,,,,,,,,,,,,,0,,,50,0
263040,note_on,0,0,2,,,,,,,,,,,,,,,0,,,46,0
263040,note_on,0,0,2,,,,,,,,,,,,,,,0,,,41,26
263040,note_on,0,0,2,,,,,,,,,,,,,,,0,,,51,31
263040,control_change,0,0,2,,,,,,,,,,,,,,,0,64,0,,
263040,note_on,0,0,1,,,,,,,,,,,,,,,0,,,72,47
263167,control_change,127,0,2,,,,,,,,,,,,,,,0,64,127,,
263280,set_tempo,240,1,0,,,,,,,,,,,,754527,,,,,,,
263280,note_on,113,0,2,,,,,,,,,,,,,,,0,,,51,0
263280,note_on,0,0,2,,,,,,,,,,,,,,,0,,,53,25
263520,note_on,0,0,1,,,,,,,,,,,,,,,0,,,60,34
263520,set_tempo,240,1,0,,,,,,,,,,,,743863,,,,,,,
263520,note_on,480,0,1,,,,,,,,,,,,,,,0,,,72,0
263520,note_on,0,0,1,,,,,,,,,,,,,,,0,,,65,0
263520,note_on,0,0,1,,,,,,,,,,,,,,,0,,,60,0
263520,note_on,240,0,2,,,,,,,,,,,,,,,0,,,53,0
263520,note_on,0,0,2,,,,,,,,,,,,,,,0,,,41,0
263520,note_on,0,0,2,,,,,,,,,,,,,,,0,,,41,26
263520,note_on,0,0,1,,,,,,,,,,,,,,,0,,,65,38
263520,note_on,0,0,2,,,,,,,,,,,,,,,0,,,51,29
263520,note_on,0,0,1,,,,,,,,,,,,,,,0,,,72,46
263760,set_tempo,240,1,0,,,,,,,,,,,,754527,,,,,,,
263760,note_on,0,0,2,,,,,,,,,,,,,,,0,,,53,25
263760,note_on,240,0,2,,,,,,,,,,,,,,,0,,,51,0
264000,note_on,0,0,2,,,,,,,,,,,,,,,0,,,41,0
264000,note_on,240,0,2,,,,,,,,,,,,,,,0,,,53,0
264000,note_on,0,0,1,,,,,,,,,,,,,,,0,,,60,0
264000,note_on,0,0,1,,,,,,,,,,,,,,,0,,,60,34
264000,note_on,0,0,1,,,,,,,,,,,,,,,0,,,65,38
264000,note_on,0,0,1,,,,,,,,,,,,,,,0,,,72,46
264000,note_on,0,0,2,,,,,,,,,,,,,,,0,,,51,29
264000,note_on,0,0,2,,,,,,,,,,,,,,,0,,,41,26
264000,note_on,480,0,1,,,,,,,,,,,,,,,0,,,72,0
264000,note_on,0,0,1,,,,,,,,,,,,,,,0,,,65,0
264040,set_tempo,280,1,0,,,,,,,,,,,,743863,,,,,,,
264240,set_tempo,200,1,0,,,,,,,,,,,,771010,,,,,,,
264240,note_on,240,0,2,,,,,,,,,,,,,,,0,,,51,0
264240,note_on,0,0,2,,,,,,,,,,,,,,,0,,,53,28
264480,note_on,240,0,2,,,,,,,,,,,,,,,0,,,53,0
264480,note_on,0,0,2,,,,,,,,,,,,,,,0,,,41,0
264480,note_on,0,0,2,,,,,,,,,,,,,,,0,,,41,27
264480,note_on,0,0,1,,,,,,,,,,,,,,,0,,,70,50
264480,set_tempo,240,1,0,,,,,,,,,,,,743863,,,,,,,
264480,note_on,0,0,1,,,,,,,,,,,,,,,0,,,58,37
264480,note_on,0,0,1,,,,,,,,,,,,,,,0,,,60,0
264480,note_on,0,0,1,,,,,,,,,,,,,,,0,,,65,0
264480,note_on,0,0,1,,,,,,,,,,,,,,,0,,,65,42
264480,note_on,0,0,2,,,,,,,,,,,,,,,0,,,50,33
264480,note_on,480,0,1,,,,,,,,,,,,,,,0,,,72,0
264494,control_change,14,0,2,,,,,,,,,,,,,,,0,64,0,,
264593,control_change,99,0,2,,,,,,,,,,,,,,,0,64,127,,
264720,note_on,0,0,1,,,,,,,,,,,,,,,0,,,65,38
264720,set_tempo,240,1,0,,,,,,,,,,,,810811,,,,,,,
264720,note_on,0,0,1,,,,,,,,,,,,,,,0,,,69,45
264720,note_on,0,0,2,,,,,,,,,,,,,,,0,,,48,25
264720,note_on,0,0,1,,,,,,,,,,,,,,,0,,,57,30
264720,note_on,0,0,1,,,,,,,,,,,,,,,0,,,58,0
264720,note_on,0,0,1,,,,,,,,,,,,,,,0,,,65,0
264720,note_on,240,0,1,,,,,,,,,,,,,,,0,,,70,0
264720,note_on,127,0,2,,,,,,,,,,,,,,,0,,,50,0
264920,set_tempo,200,1,0,,,,,,,,,,,,754527,,,,,,,
264960,note_on,0,0,1,,,,,,,,,,,,,,,0,,,57,0
264960,note_on,0,0,1,,,,,,,,,,,,,,,0,,,65,52
264960,note_on,240,0,1,,,,,,,,,,,,,,,0,,,69,0
264960,note_on,0,0,1,,,,,,,,,,,,,,,0,,,65,0
264960,note_on,0,0,1,,,,,,,,,,,,,,,0,,,70,52
264960,control_change,0,0,2,,,,,,,,,,,,,,,0,64,0,,
264960,note_on,0,0,1,,,,,,,,,,,,,,,0,,,58,37
264960,note_on,240,0,2,,,,,,,,,,,,,,,0,,,48,0
264960,note_on,0,0,2,,,,,,,,,,,,,,,0,,,41,0
264960,note_on,0,0,2,,,,,,,,,,,,,,,0,,,50,34
264960,note_on,0,0,2,,,,,,,,,,,,,,,0,,,46,28
265087,control_change,127,0,2,,,,,,,,,,,,,,,0,64,127,,
265200,note_on,0,0,2,,,,,,,,,,,,,,,0,,,53,30
265200,note_on,113,0,2,,,,,,,,,,,,,,,0,,,50,0
265440,note_on,0,0,1,,,,,,,,,,,,,,,0,,,67,50
265440,set_tempo,520,1,0,,,,,,,,,,,,754527,,,,,,,
265440,note_on,0,0,1,,,,,,,,,,,,,,,0,,,63,42
265440,note_on,240,0,2,,,,,,,,,,,,,,,0,,,53,0
265440,note_on,480,0,1,,,,,,,,,,,,,,,0,,,65,0
265440,note_on,0,0,2,,,,,,,,,,,,,,,0,,,51,33
265511,control_change,71,0,2,,,,,,,,,,,,,,,0,64,0,,
265595,control_change,84,0,2,,,,,,,,,,,,,,,0,64,127,,
265680,note_on,85,0,2,,,,,,,,,,,,,,,0,,,51,0
265680,note_on,0,0,2,,,,,,,,,,,,,,,0,,,55,28
265720,set_tempo,280,1,0,,,,,,,,,,,,782371,,,,,,,
265920,note_on,0,0,1,,,,,,,,,,,,,,,0,,,63,0
265920,note_on,480,0,1,,,,,,,,,,,,,,,0,,,67,0
265920,note_on,0,0,1,,,,,,,,,,,,,,,0,,,62,36
265920,note_on,0,0,2,,,,,,,,,,,,,,,0,,,50,29
265920,note_on,240,0,2,,,,,,,,,,,,,,,0,,,55,0
265920,note_on,0,0,1,,,,,,,,,,,,,,,0,,,65,44
265920,set_tempo,200,1,0,,,,,,,,,,,,759878,,,,,,,
265976,control_change,56,0,2,,,,,,,,,,,,,,,0,64,0,,
266132,control_change,156,0,2,,,,,,,,,,,,,,,0,64,127,,
266160,note_on,0,0,2,,,,,,,,,,,,,,,0,,,53,30
266160,note_on,28,0,2,,,,,,,,,,,,,,,0,,,50,0
266160,set_tempo,240,1,0,,,,,,,,,,,,782371,,,,,,,
266400,note_on,0,0,2,,,,,,,,,,,,,,,0,,,44,28
266400,note_on,0,0,2,,,,,,,,,,,,,,,0,,,46,0
266400,note_on,240,0,2,,,,,,,,,,,,,,,0,,,53,0
266400,note_on,480,0,1,,,,,,,,,,,,,,,0,,,65,0
266400,set_tempo,240,1,0,,,,,,,,,,,,810811,,,,,,,
266400,note_on,0,0,1,,,,,,,,,,,,,,,0,,,74,61
266400,note_on,0,0,1,,,,,,,,,,,,,,,0,,,65,51
266400,note_on,0,0,1,,,,,,,,,,,,,,,0,,,62,45
266400,note_on,0,0,1,,,,,,,,,,,,,,,0,,,62,0
266400,note_on,0,0,1,,,,,,,,,,,,,,,0,,,70,0
266400,note_on,0,0,1,,,,,,,,,,,,,,,0,,,58,0
266400,note_on,0,0,2,,,,,,,,,,,,,,,0,,,50,39
266442,control_change,42,0,2,,,,,,,,,,,,,,,0,64,0,,
266499,control_change,57,0,2,,,,,,,,,,,,,,,0,64,127,,
266640,set_tempo,240,1,0,,,,,,,,,,,,909091,,,,,,,
266640,note_on,0,0,2,,,,,,,,,,,,,,,0,,,53,34
266640,note_on,141,0,2,,,,,,,,,,,,,,,0,,,50,0
266880,note_on,240,0,2,,,,,,,,,,,,,,,0,,,53,0
266880,note_on,0,0,2,,,,,,,,,,,,,,,0,,,44,0
266880,note_on,0,0,2,,,,,,,,,,,,,,,0,,,43,30
266880,note_on,0,0,2,,,,,,,,,,,,,,,0,,,53,36
266880,note_on,0,0,1,,,,,,,,,,,,,,,0,,,74,60
266880,note_on,0,0,1,,,,,,,,,,,,,,,0,,,67,51
266880,note_on,0,0,1,,,,,,,,,,,,,,,0,,,62,45
266880,note_on,0,0,1,,,,,,,,,,,,,,,0,,,62,0
266880,note_on,0,0,1,,,,,,,,,,,,,,,0,,,65,0
266880,note_on,480,0,1,,,,,,,,,,,,,,,0,,,74,0
266880,set_tempo,240,1,0,,,,,,,,,,,,779221,,,,,,,
266880,control_change,0,0,2,,,,,,,,,,,,,,,0,64,0,,
266994,control_change,114,0,2,,,,,,,,,,,,,,,0,64,127,,
267120,set_tempo,240,1,0,,,,,,,,,,,,738643,,,,,,,
267120,note_on,126,0,2,,,,,,,,,,,,,,,0,,,55,32
267240,note_on,120,0,2,,,,,,,,,,,,,,,0,,,55,0
267360,set_tempo,240,1,0,,,,,,,,,,,,728332,,,,,,,
267360,note_on,120,0,2,,,,,,,,,,,,,,,0,,,55,33
267480,note_on,120,0,2,,,,,,,,,,,,,,,0,,,55,0
267600,note_on,120,0,2,,,,,,,,,,,,,,,0,,,55,30
267720,note_on,120,0,2,,,,,,,,,,,,,,,0,,,55,0
267840,note_on,120,0,2,,,,,,,,,,,,,,,0,,,55,34
267960,note_on,120,0,2,,,,,,,,,,,,,,,0,,,55,0
268080,note_on,120,0,2,,,,,,,,,,,,,,,0,,,55,31
268200,note_on,120,0,2,,,,,,,,,,,,,,,0,,,55,0
268320,note_on,120,0,2,,,,,,,,,,,,,,,0,,,53,0
268320,note_on,0,0,1,,,,,,,,,,,,,,,0,,,67,0
268320,control_change,0,0,2,,,,,,,,,,,,,,,0,64,0,,
268320,note_on,0,0,2,,,,,,,,,,,,,,,0,,,43,24
268320,note_on,0,0,2,,,,,,,,,,,,,,,0,,,55,33
268320,note_on,1440,0,1,,,,,,,,,,,,,,,0,,,74,0
268320,note_on,0,0,2,,,,,,,,,,,,,,,0,,,43,0
268320,note_on,0,0,2,,,,,,,,,,,,,,,0,,,51,27
268320,note_on,0,0,1,,,,,,,,,,,,,,,0,,,72,55
268320,note_on,0,0,1,,,,,,,,,,,,,,,0,,,67,46
268320,note_on,0,0,1,,,,,,,,,,,,,,,0,,,60,41
268320,note_on,0,0,1,,,,,,,,,,,,,,,0,,,62,0
268434,control_change,114,0,2,,,,,,,,,,,,,,,0,64,127,,
268560,note_on,0,0,2,,,,,,,,,,,,,,,0,,,50,27
268560,note_on,0,0,2,,,,,,,,,,,,,,,0,,,43,24
268560,note_on,0,0,2,,,,,,,,,,,,,,,0,,,43,0
268560,note_on,126,0,2,,,,,,,,,,,,,,,0,,,55,0
268560,set_tempo,1200,1,0,,,,,,,,,,,,733407,,,,,,,
268560,note_on,0,0,2,,,,,,,,,,,,,,,0,,,55,31
268560,note_on,0,0,2,,,,,,,,,,,,,,,0,,,51,0
268560,note_on,240,0,1,,,,,,,,,,,,,,,0,,,72,0
268560,note_on,0,0,1,,,,,,,,,,,,,,,0,,,67,0
268560,note_on,0,0,1,,,,,,,,,,,,,,,0,,,60,0
268560,note_on,0,0,1,,,,,,,,,,,,,,,0,,,71,50
268560,note_on,0,0,1,,,,,,,,,,,,,,,0,,,67,42
268560,note_on,0,0,1,,,,,,,,,,,,,,,0,,,59,37
268800,note_on,0,0,1,,,,,,,,,,,,,,,0,,,67,54
268800,set_tempo,240,1,0,,,,,,,,,,,,713606,,,,,,,
268800,control_change,0,0,2,,,,,,,,,,,,,,,0,64,0,,
268800,note_on,0,0,1,,,,,,,,,,,,,,,0,,,75,65
268800,note_on,0,0,2,,,,,,,,,,,,,,,0,,,43,28
268800,note_on,0,0,2,,,,,,,,,,,,,,,0,,,48,34
268800,note_on,0,0,2,,,,,,,,,,,,,,,0,,,50,0
268800,note_on,240,0,2,,,,,,,,,,,,,,,0,,,55,0
268800,note_on,240,0,1,,,,,,,,,,,,,,,0,,,71,0
268800,note_on,0,0,1,,,,,,,,,,,,,,,0,,,67,0
268800,note_on,0,0,1,,,,,,,,,,,,,,,0,,,59,0
268800,note_on,0,0,1,,,,,,,,,,,,,,,0,,,63,53
268800,note_on,0,0,2,,,,,,,,,,,,,,,0,,,43,0
268927,control_change,127,0,2,,,,,,,,,,,,,,,0,64,127,,
269040,note_on,113,0,2,,,,,,,,,,,,,,,0,,,48,0
269040,note_on,0,0,2,,,,,,,,,,,,,,,0,,,55,30
269040,set_tempo,240,1,0,,,,,,,,,,,,733407,,,,,,,
269280,note_on,240,0,2,,,,,,,,,,,,,,,0,,,55,0
269280,note_on,0,0,2,,,,,,,,,,,,,,,0,,,43,0
269280,note_on,0,0,2,,,,,,,,,,,,,,,0,,,43,28
269280,note_on,0,0,2,,,,,,,,,,,,,,,0,,,53,33
269280,set_tempo,240,1,0,,,,,,,,,,,,728332,,,,,,,
269280,note_on,0,0,1,,,,,,,,,,,,,,,0,,,62,50
269280,note_on,0,0,1,,,,,,,,,,,,,,,0,,,67,50
269280,note_on,0,0,1,,,,,,,,,,,,,,,0,,,63,0
269280,note_on,0,0,1,,,,,,,,,,,,,,,0,,,67,0
269280,note_on,0,0,1,,,,,,,,,,,,,,,0,,,74,59
269280,note_on,480,0,1,,,,,,,,,,,,,,,0,,,75,0
269351,control_change,71,0,2,,,,,,,,,,,,,,,0,64,0,,
269435,control_change,84,0,2,,,,,,,,,,,,,,,0,64,127,,
269520,set_tempo,240,1,0,,,,,,,,,,,,765404,,,,,,,
269520,note_on,85,0,2,,,,,,,,,,,,,,,0,,,53,0
269520,note_on,0,0,2,,,,,,,,,,,,,,,0,,,55,28
269560,set_tempo,40,1,0,,,,,,,,,,,,782371,,,,,,,
269760,note_on,0,0,1,,,,,,,,,,,,,,,0,,,60,48
269760,note_on,0,0,2,,,,,,,,,,,,,,,0,,,43,27
269760,note_on,0,0,2,,,,,,,,,,,,,,,0,,,51,28
269760,note_on,0,0,2,,,,,,,,,,,,,,,0,,,43,0
269760,note_on,240,0,2,,,,,,,,,,,,,,,0,,,55,0
269760,set_tempo,200,1,0,,,,,,,,,,,,743863,,,,,,,
269760,note_on,0,0,1,,,,,,,,,,,,,,,0,,,67,48
269760,note_on,0,0,1,,,,,,,,,,,,,,,0,,,62,0
269760,note_on,0,0,1,,,,,,,,,,,,,,,0,,,72,57
269760,note_on,480,0,1,,,,,,,,,,,,,,,0,,,74,0
269760,note_on,0,0,1,,,,,,,,,,,,,,,0,,,67,0
269816,control_change,56,0,2,,,,,,,,,,,,,,,0,64,0,,
269972,control_change,156,0,2,,,,,,,,,,,,,,,0,64,127,,
270000,note_on,0,0,2,,,,,,,,,,,,,,,0,,,55,29
270000,set_tempo,240,1,0,,,,,,,,,,,,833333,,,,,,,
270000,note_on,28,0,2,,,,,,,,,,,,,,,0,,,51,0
270240,note_on,0,0,1,,,,,,,,,,,,,,,0,,,60,0
270240,note_on,0,0,1,,,,,,,,,,,,,,,0,,,67,0
270240,note_on,0,0,2,,,,,,,,,,,,,,,0,,,42,28
270240,note_on,240,0,2,,,,,,,,,,,,,,,0,,,55,0
270240,note_on,0,0,2,,,,,,,,,,,,,,,0,,,51,39
270240,note_on,480,0,1,,,,,,,,,,,,,,,0,,,72,0
270240,note_on,0,0,1,,,,,,,,,,,,,,,0,,,72,61
270240,note_on,0,0,1,,,,,,,,,,,,,,,0,,,69,51
270240,note_on,0,0,1,,,,,,,,,,,,,,,0,,,60,45
270240,set_tempo,240,1,0,,,,,,,,,,,,794702,,,,,,,
270240,note_on,0,0,2,,,,,,,,,,,,,,,0,,,43,0
270282,control_change,42,0,2,,,,,,,,,,,,,,,0,64,0,,
270339,control_change,57,0,2,,,,,,,,,,,,,,,0,64,127,,
270480,note_on,141,0,2,,,,,,,,,,,,,,,0,,,51,0
270480,note_on,0,0,2,,,,,,,,,,,,,,,0,,,54,34
270480,set_tempo,240,1,0,,,,,,,,,,,,845070,,,,,,,
270720,note_on,0,0,1,,,,,,,,,,,,,,,0,,,72,60
270720,note_on,0,0,2,,,,,,,,,,,,,,,0,,,51,36
270720,control_change,0,0,2,,,,,,,,,,,,,,,0,64,0,,
270720,note_on,240,0,2,,,,,,,,,,,,,,,0,,,54,0
270720,note_on,0,0,2,,,,,,,,,,,,,,,0,,,41,30
270720,note_on,480,0,1,,,,,,,,,,,,,,,0,,,72,0
270720,set_tempo,240,1,0,,,,,,,,,,,,743863,,,,,,,
270720,note_on,0,0,1,,,,,,,,,,,,,,,0,,,69,0
270720,note_on,0,0,1,,,,,,,,,,,,,,,0,,,60,0
270720,note_on,0,0,1,,,,,,,,,,,,,,,0,,,65,45
270720,note_on,0,0,1,,,,,,,,,,,,,,,0,,,60,45
270720,note_on,0,0,2,,,,,,,,,,,,,,,0,,,42,0
270720,note_on,0,0,1,,,,,,,,,,,,,,,0,,,69,51
270834,control_change,114,0,2,,,,,,,,,,,,,,,0,64,127,,
270960,set_tempo,240,1,0,,,,,,,,,,,,738643,,,,,,,
270960,note_on,126,0,2,,,,,,,,,,,,,,,0,,,53,32
271080,note_on,120,0,2,,,,,,,,,,,,,,,0,,,53,0
271200,set_tempo,240,1,0,,,,,,,,,,,,728332,,,,,,,
271200,note_on,120,0,2,,,,,,,,,,,,,,,0,,,53,33
271320,note_on,120,0,2,,,,,,,,,,,,,,,0,,,53,0
271440,note_on,120,0,2,,,,,,,,,,,,,,,0,,,53,30
271560,note_on,120,0,2,,,,,,,,,,,,,,,0,,,53,0
271680,note_on,120,0,2,,,,,,,,,,,,,,,0,,,53,34
271800,note_on,120,0,2,,,,,,,,,,,,,,,0,,,53,0
271920,note_on,120,0,2,,,,,,,,,,,,,,,0,,,53,31
272040,note_on,120,0,2,,,,,,,,,,,,,,,0,,,53,0
272160,control_change,0,0,2,,,,,,,,,,,,,,,0,64,0,,
272160,note_on,0,0,2,,,,,,,,,,,,,,,0,,,41,24
272160,note_on,0,0,2,,,,,,,,,,,,,,,0,,,50,27
272160,note_on,0,0,2,,,,,,,,,,,,,,,0,,,53,33
272160,note_on,0,0,1,,,,,,,,,,,,,,,0,,,65,46
272160,note_on,0,0,2,,,,,,,,,,,,,,,0,,,41,0
272160,note_on,120,0,2,,,,,,,,,,,,,,,0,,,51,0
272160,note_on,0,0,1,,,,,,,,,,,,,,,0,,,70,55
272160,note_on,0,0,1,,,,,,,,,,,,,,,0,,,60,0
272160,note_on,0,0,1,,,,,,,,,,,,,,,0,,,65,0
272160,note_on,1440,0,1,,,,,,,,,,,,,,,0,,,72,0
272160,note_on,0,0,1,,,,,,,,,,,,,,,0,,,58,41
272160,note_on,0,0,1,,,,,,,,,,,,,,,0,,,69,0
272274,control_change,114,0,2,,,,,,,,,,,,,,,0,64,127,,
272400,note_on,240,0,1,,,,,,,,,,,,,,,0,,,70,0
272400,note_on,0,0,1,,,,,,,,,,,,,,,0,,,65,0
272400,note_on,0,0,1,,,,,,,,,,,,,,,0,,,58,0
272400,note_on,0,0,1,,,,,,,,,,,,,,,0,,,57,37
272400,note_on,0,0,1,,,,,,,,,,,,,,,0,,,65,42
272400,note_on,0,0,1,,,,,,,,,,,,,,,0,,,69,50
272400,note_on,0,0,2,,,,,,,,,,,,,,,0,,,50,0
272400,note_on,0,0,2,,,,,,,,,,,,,,,0,,,41,0
272400,set_tempo,1200,1,0,,,,,,,,,,,,754527,,,,,,,
272400,note_on,0,0,2,,,,,,,,,,,,,,,0,,,48,27
272400,note_on,0,0,2,,,,,,,,,,,,,,,0,,,41,24
272400,note_on,126,0,2,,,,,,,,,,,,,,,0,,,53,0
272400,note_on,0,0,2,,,,,,,,,,,,,,,0,,,53,31
272640,set_tempo,240,1,0,,,,,,,,,,,,723327,,,,,,,
272640,note_on,0,0,1,,,,,,,,,,,,,,,0,,,74,65
272640,note_on,0,0,1,,,,,,,,,,,,,,,0,,,65,55
272640,note_on,0,0,1,,,,,,,,,,,,,,,0,,,62,51
272640,note_on,0,0,1,,,,,,,,,,,,,,,0,,,57,0
272640,note_on,240,0,1,,,,,,,,,,,,,,,0,,,69,0
272640,note_on,0,0,2,,,,,,,,,,,,,,,0,,,48,0
272640,note_on,0,0,2,,,,,,,,,,,,,,,0,,,41,0
272640,note_on,0,0,2,,,,,,,,,,,,,,,0,,,41,28
272640,note_on,0,0,2,,,,,,,,,,,,,,,0,,,46,34
272640,control_change,0,0,2,,,,,,,,,,,,,,,0,64,0,,
272640,note_on,240,0,2,,,,,,,,,,,,,,,0,,,53,0
272640,note_on,0,0,1,,,,,,,,,,,,,,,0,,,65,0
272767,control_change,127,0,2,,,,,,,,,,,,,,,0,64,127,,
272880,note_on,113,0,2,,,,,,,,,,,,,,,0,,,46,0
272880,note_on,0,0,2,,,,,,,,,,,,,,,0,,,53,30
272880,set_tempo,240,1,0,,,,,,,,,,,,754527,,,,,,,
273120,note_on,240,0,2,,,,,,,,,,,,,,,0,,,53,0
273120,note_on,0,0,2,,,,,,,,,,,,,,,0,,,41,0
273120,note_on,0,0,2,,,,,,,,,,,,,,,0,,,41,26
273120,note_on,0,0,2,,,,,,,,,,,,,,,0,,,48,31
273120,note_on,480,0,1,,,,,,,,,,,,,,,0,,,74,0
273120,note_on,0,0,1,,,,,,,,,,,,,,,0,,,65,0
273120,note_on,0,0,1,,,,,,,,,,,,,,,0,,,62,0
273120,note_on,0,0,1,,,,,,,,,,,,,,,0,,,57,47
273120,note_on,0,0,1,,,,,,,,,,,,,,,0,,,65,47
273120,note_on,0,0,1,,,,,,,,,,,,,,,0,,,69,56
273120,set_tempo,240,1,0,,,,,,,,,,,,728332,,,,,,,
273191,control_change,71,0,2,,,,,,,,,,,,,,,0,64,0,,
273275,control_change,84,0,2,,,,,,,,,,,,,,,0,64,127,,
273360,set_tempo,240,1,0,,,,,,,,,,,,765404,,,,,,,
273360,note_on,85,0,2,,,,,,,,,,,,,,,0,,,48,0
273360,note_on,0,0,2,,,,,,,,,,,,,,,0,,,53,26
273400,set_tempo,40,1,0,,,,,,,,,,,,782371,,,,,,,
273600,note_on,0,0,1,,,,,,,,,,,,,,,0,,,70,59
273600,note_on,240,0,2,,,,,,,,,,,,,,,0,,,53,0
273600,note_on,0,0,2,,,,,,,,,,,,,,,0,,,41,0
273600,note_on,0,0,2,,,,,,,,,,,,,,,0,,,41,28
273600,note_on,0,0,2,,,,,,,,,,,,,,,0,,,50,29
273600,note_on,0,0,1,,,,,,,,,,,,,,,0,,,58,50
273600,note_on,0,0,1,,,,,,,,,,,,,,,0,,,57,0
273600,note_on,0,0,1,,,,,,,,,,,,,,,0,,,65,50
273600,set_tempo,200,1,0,,,,,,,,,,,,743863,,,,,,,
273600,note_on,0,0,1,,,,,,,,,,,,,,,0,,,65,0
273600,note_on,480,0,1,,,,,,,,,,,,,,,0,,,69,0
273656,control_change,56,0,2,,,,,,,,,,,,,,,0,64,0,,
273812,control_change,156,0,2,,,,,,,,,,,,,,,0,64,127,,
273840,note_on,28,0,2,,,,,,,,,,,,,,,0,,,50,0
273840,note_on,0,0,2,,,,,,,,,,,,,,,0,,,53,27
273840,set_tempo,240,1,0,,,,,,,,,,,,782371,,,,,,,
274080,note_on,240,0,2,,,,,,,,,,,,,,,0,,,53,0
274080,note_on,0,0,1,,,,,,,,,,,,,,,0,,,65,45
274080,note_on,0,0,1,,,,,,,,,,,,,,,0,,,65,0
274080,note_on,0,0,1,,,,,,,,,,,,,,,0,,,58,0
274080,note_on,0,0,1,,,,,,,,,,,,,,,0,,,60,40
274080,note_on,0,0,1,,,,,,,,,,,,,,,0,,,69,45
274080,note_on,0,0,1,,,,,,,,,,,,,,,0,,,72,54
274080,note_on,0,0,2,,,,,,,,,,,,,,,0,,,51,35
274080,note_on,0,0,2,,,,,,,,,,,,,,,0,,,41,25
274080,note_on,0,0,2,,,,,,,,,,,,,,,0,,,41,0
274080,note_on,480,0,1,,,,,,,,,,,,,,,0,,,70,0
274122,control_change,42,0,2,,,,,,,,,,,,,,,0,64,0,,
274179,control_change,57,0,2,,,,,,,,,,,,,,,0,64,127,,
274320,set_tempo,480,1,0,,,,,,,,,,,,851064,,,,,,,
274320,note_on,0,0,2,,,,,,,,,,,,,,,0,,,53,30
274320,note_on,141,0,2,,,,,,,,,,,,,,,0,,,51,0
274560,note_on,0,0,1,,,,,,,,,,,,,,,0,,,72,54
274560,note_on,480,0,1,,,,,,,,,,,,,,,0,,,72,0
274560,note_on,0,0,2,,,,,,,,,,,,,,,0,,,53,32
274560,note_on,0,0,2,,,,,,,,,,,,,,,0,,,41,27
274560,note_on,0,0,2,,,,,,,,,,,,,,,0,,,51,32
274560,control_change,0,0,2,,,,,,,,,,,,,,,0,64,0,,
274560,note_on,0,0,2,,,,,,,,,,,,,,,0,,,41,0
274560,note_on,0,0,1,,,,,,,,,,,,,,,0,,,65,0
274560,note_on,0,0,1,,,,,,,,,,,,,,,0,,,60,0
274560,note_on,0,0,1,,,,,,,,,,,,,,,0,,,69,0
274560,note_on,0,0,1,,,,,,,,,,,,,,,0,,,65,40
274560,note_on,240,0,2,,,,,,,,,,,,,,,0,,,53,0
274560,note_on,0,0,1,,,,,,,,,,,,,,,0,,,69,45
274560,set_tempo,240,1,0,,,,,,,,,,,,782371,,,,,,,
274560,note_on,0,0,1,,,,,,,,,,,,,,,0,,,60,40
274674,control_change,114,0,2,,,,,,,,,,,,,,,0,64,127,,
275520,note_on,0,0,1,,,,,,,,,,,,,,,0,,,70,48
275520,note_on,0,0,1,,,,,,,,,,,,,,,0,,,58,48
275520,note_on,846,0,2,,,,,,,,,,,,,,,0,,,51,0
275520,note_on,0,0,2,,,,,,,,,,,,,,,0,,,41,0
275520,note_on,0,0,2,,,,,,,,,,,,,,,0,,,46,28
275520,note_on,0,0,1,,,,,,,,,,,,,,,0,,,60,0
275520,note_on,0,0,1,,,,,,,,,,,,,,,0,,,69,0
275520,note_on,960,0,1,,,,,,,,,,,,,,,0,,,72,0
275520,note_on,0,0,2,,,,,,,,,,,,,,,0,,,50,28
275520,control_change,0,0,2,,,,,,,,,,,,,,,0,64,0,,
275760,note_on,0,0,1,,,,,,,,,,,,,,,0,,,58,0
275760,note_on,240,0,2,,,,,,,,,,,,,,,0,,,50,0
275760,note_on,0,0,2,,,,,,,,,,,,,,,0,,,46,0
275760,note_on,0,0,2,,,,,,,,,,,,,,,0,,,53,0
275760,note_on,240,0,1,,,,,,,,,,,,,,,0,,,70,0
275760,note_on,0,0,1,,,,,,,,,,,,,,,0,,,65,0
276000,note_on,240,0,2,,,,,,,,,,,,,,,0,,,34,30
276000,set_tempo,1440,1,0,,,,,,,,,,,,728332,,,,,,,
276240,note_on,240,0,2,,,,,,,,,,,,,,,0,,,34,0
276480,set_tempo,480,1,0,,,,,,,,,,,,825196,,,,,,,
276480,note_on,240,0,2,,,,,,,,,,,,,,,0,,,34,30
276540,note_on,60,0,2,,,,,,,,,,,,,,,0,,,35,26
276544,set_tempo,64,1,0,,,,,,,,,,,,818777,,,,,,,
276570,note_on,30,0,2,,,,,,,,,,,,,,,0,,,34,0
276600,set_tempo,56,1,0,,,,,,,,,,,,812458,,,,,,,
276600,note_on,30,0,2,,,,,,,,,,,,,,,0,,,34,27
276630,note_on,30,0,2,,,,,,,,,,,,,,,0,,,35,0
276660,note_on,30,0,2,,,,,,,,,,,,,,,0,,,35,25
276664,set_tempo,64,1,0,,,,,,,,,,,,806235,,,,,,,
276690,note_on,30,0,2,,,,,,,,,,,,,,,0,,,34,0
276720,set_tempo,56,1,0,,,,,,,,,,,,800213,,,,,,,
276720,note_on,30,0,2,,,,,,,,,,,,,,,0,,,34,27
276750,note_on,30,0,2,,,,,,,,,,,,,,,0,,,35,0
276780,note_on,30,0,2,,,,,,,,,,,,,,,0,,,35,25
276784,set_tempo,64,1,0,,,,,,,,,,,,794176,,,,,,,
276810,note_on,30,0,2,,,,,,,,,,,,,,,0,,,34,0
276840,set_tempo,56,1,0,,,,,,,,,,,,788229,,,,,,,
276840,note_on,30,0,2,,,,,,,,,,,,,,,0,,,34,28
276852,set_tempo,12,1,0,,,,,,,,,,,,765404,,,,,,,
276864,set_tempo,12,1,0,,,,,,,,,,,,759878,,,,,,,
276870,note_on,30,0,2,,,,,,,,,,,,,,,0,,,35,0
276900,note_on,30,0,2,,,,,,,,,,,,,,,0,,,35,27
276920,set_tempo,56,1,0,,,,,,,,,,,,765404,,,,,,,
276930,note_on,30,0,2,,,,,,,,,,,,,,,0,,,34,0
276932,set_tempo,12,1,0,,,,,,,,,,,,776699,,,,,,,
276960,note_on,30,0,2,,,,,,,,,,,,,,,0,,,34,29
276972,set_tempo,40,1,0,,,,,,,,,,,,765404,,,,,,,
276990,note_on,30,0,2,,,,,,,,,,,,,,,0,,,35,0
277000,set_tempo,28,1,0,,,,,,,,,,,,759878,,,,,,,
277012,set_tempo,12,1,0,,,,,,,,,,,,749157,,,,,,,
277020,note_on,30,0,2,,,,,,,,,,,,,,,0,,,35,26
277024,set_tempo,12,1,0,,,,,,,,,,,,743863,,,,,,,
277040,set_tempo,16,1,0,,,,,,,,,,,,754527,,,,,,,
277050,note_on,30,0,2,,,,,,,,,,,,,,,0,,,34,0
277052,set_tempo,12,1,0,,,,,,,,,,,,759878,,,,,,,
277064,set_tempo,12,1,0,,,,,,,,,,,,771010,,,,,,,
277080,set_tempo,16,1,0,,,,,,,,,,,,765404,,,,,,,
277080,note_on,30,0,2,,,,,,,,,,,,,,,0,,,34,29
277092,set_tempo,12,1,0,,,,,,,,,,,,754527,,,,,,,
277104,set_tempo,12,1,0,,,,,,,,,,,,749157,,,,,,,
277110,note_on,30,0,2,,,,,,,,,,,,,,,0,,,35,0
277120,set_tempo,16,1,0,,,,,,,,,,,,743863,,,,,,,
277132,set_tempo,12,1,0,,,,,,,,,,,,738643,,,,,,,
277140,note_on,30,0,2,,,,,,,,,,,,,,,0,,,35,25
277170,note_on,30,0,2,,,,,,,,,,,,,,,0,,,34,0
277172,set_tempo,40,1,0,,,,,,,,,,,,749157,,,,,,,
277184,set_tempo,12,1,0,,,,,,,,,,,,759878,,,,,,,
277200,note_on,30,0,2,,,,,,,,,,,,,,,0,,,34,28
277200,set_tempo,16,1,0,,,,,,,,,,,,765404,,,,,,,
277212,set_tempo,12,1,0,,,,,,,,,,,,771010,,,,,,,
277230,note_on,30,0,2,,,,,,,,,,,,,,,0,,,35,0
277240,set_tempo,28,1,0,,,,,,,,,,,,765404,,,,,,,
277252,set_tempo,12,1,0,,,,,,,,,,,,754527,,,,,,,
277260,note_on,30,0,2,,,,,,,,,,,,,,,0,,,35,26
277264,set_tempo,12,1,0,,,,,,,,,,,,749157,,,,,,,
277280,set_tempo,16,1,0,,,,,,,,,,,,743863,,,,,,,
277290,note_on,30,0,2,,,,,,,,,,,,,,,0,,,34,0
277292,set_tempo,12,1,0,,,,,,,,,,,,738643,,,,,,,
277304,set_tempo,12,1,0,,,,,,,,,,,,743863,,,,,,,
277320,note_on,30,0,2,,,,,,,,,,,,,,,0,,,34,27
277320,set_tempo,16,1,0,,,,,,,,,,,,754527,,,,,,,
277332,set_tempo,12,1,0,,,,,,,,,,,,759878,,,,,,,
277350,note_on,30,0,2,,,,,,,,,,,,,,,0,,,35,0
277360,set_tempo,28,1,0,,,,,,,,,,,,765404,,,,,,,
277380,note_on,30,0,2,,,,,,,,,,,,,,,0,,,35,25
277384,set_tempo,24,1,0,,,,,,,,,,,,754527,,,,,,,
277400,set_tempo,16,1,0,,,,,,,,,,,,749157,,,,,,,
277410,note_on,30,0,2,,,,,,,,,,,,,,,0,,,34,0
277412,set_tempo,12,1,0,,,,,,,,,,,,738643,,,,,,,
277424,set_tempo,12,1,0,,,,,,,,,,,,743863,,,,,,,
277440,note_on,30,0,2,,,,,,,,,,,,,,,0,,,34,29
277440,set_tempo,16,1,0,,,,,,,,,,,,765404,,,,,,,
277452,set_tempo,12,1,0,,,,,,,,,,,,776699,,,,,,,
277464,set_tempo,12,1,0,,,,,,,,,,,,782371,,,,,,,
277470,note_on,30,0,2,,,,,,,,,,,,,,,0,,,35,0
277480,set_tempo,16,1,0,,,,,,,,,,,,776699,,,,,,,
277492,set_tempo,12,1,0,,,,,,,,,,,,759878,,,,,,,
277500,note_on,30,0,2,,,,,,,,,,,,,,,0,,,35,26
277504,set_tempo,12,1,0,,,,,,,,,,,,754527,,,,,,,
277520,set_tempo,16,1,0,,,,,,,,,,,,749157,,,,,,,
277530,note_on,30,0,2,,,,,,,,,,,,,,,0,,,34,0
277532,set_tempo,12,1,0,,,,,,,,,,,,743863,,,,,,,
277544,set_tempo,12,1,0,,,,,,,,,,,,749157,,,,,,,
277560,note_on,30,0,2,,,,,,,,,,,,,,,0,,,34,28
277560,set_tempo,16,1,0,,,,,,,,,,,,765404,,,,,,,
277572,set_tempo,12,1,0,,,,,,,,,,,,771010,,,,,,,
277590,note_on,30,0,2,,,,,,,,,,,,,,,0,,,35,0
277600,set_tempo,28,1,0,,,,,,,,,,,,759878,,,,,,,
277612,set_tempo,12,1,0,,,,,,,,,,,,749157,,,,,,,
277620,note_on,30,0,2,,,,,,,,,,,,,,,0,,,35,26
277624,set_tempo,12,1,0,,,,,,,,,,,,743863,,,,,,,
277640,set_tempo,16,1,0,,,,,,,,,,,,738643,,,,,,,
277650,note_on,30,0,2,,,,,,,,,,,,,,,0,,,34,0
277652,set_tempo,12,1,0,,,,,,,,,,,,743863,,,,,,,
277664,set_tempo,12,1,0,,,,,,,,,,,,754527,,,,,,,
277680,set_tempo,16,1,0,,,,,,,,,,,,759878,,,,,,,
277680,note_on,30,0,2,,,,,,,,,,,,,,,0,,,34,28
277692,set_tempo,12,1,0,,,,,,,,,,,,765404,,,,,,,
277710,note_on,30,0,2,,,,,,,,,,,,,,,0,,,35,0
277732,set_tempo,40,1,0,,,,,,,,,,,,754527,,,,,,,
277740,note_on,30,0,2,,,,,,,,,,,,,,,0,,,35,25
277744,set_tempo,12,1,0,,,,,,,,,,,,749157,,,,,,,
277760,set_tempo,16,1,0,,,,,,,,,,,,743863,,,,,,,
277770,note_on,30,0,2,,,,,,,,,,,,,,,0,,,34,0
277800,note_on,30,0,2,,,,,,,,,,,,,,,0,,,34,28
277812,set_tempo,52,1,0,,,,,,,,,,,,754527,,,,,,,
277824,set_tempo,12,1,0,,,,,,,,,,,,765404,,,,,,,
277830,note_on,30,0,2,,,,,,,,,,,,,,,0,,,35,0
277860,note_on,30,0,2,,,,,,,,,,,,,,,0,,,35,25
277880,set_tempo,56,1,0,,,,,,,,,,,,681431,,,,,,,
277890,note_on,30,0,2,,,,,,,,,,,,,,,0,,,34,0
277920,set_tempo,40,1,0,,,,,,,,,,,,800000,,,,,,,
277920,note_on,2160,0,1,,,,,,,,,,,,,,,0,,,70,51
277920,note_on,30,0,2,,,,,,,,,,,,,,,0,,,34,30
277943,control_change,23,0,2,,,,,,,,,,,,,,,0,64,127,,
277950,note_on,7,0,2,,,,,,,,,,,,,,,0,,,35,0
277960,set_tempo,40,1,0,,,,,,,,,,,,805369,,,,,,,
277980,set_tempo,20,1,0,,,,,,,,,,,,810811,,,,,,,
278020,set_tempo,40,1,0,,,,,,,,,,,,816327,,,,,,,
278040,note_on,90,0,2,,,,,,,,,,,,,,,0,,,33,26
278040,set_tempo,20,1,0,,,,,,,,,,,,821918,,,,,,,
278060,note_on,20,0,2,,,,,,,,,,,,,,,0,,,34,0
278080,set_tempo,40,1,0,,,,,,,,,,,,827586,,,,,,,
278100,set_tempo,20,1,0,,,,,,,,,,,,833333,,,,,,,
278120,set_tempo,20,1,0,,,,,,,,,,,,839161,,,,,,,
278160,set_tempo,40,1,0,,,,,,,,,,,,845070,,,,,,,
278160,note_on,100,0,2,,,,,,,,,,,,,,,0,,,32,30
278180,set_tempo,20,1,0,,,,,,,,,,,,851064,,,,,,,
278180,note_on,20,0,2,,,,,,,,,,,,,,,0,,,33,0
278220,set_tempo,40,1,0,,,,,,,,,,,,857143,,,,,,,
278240,set_tempo,20,1,0,,,,,,,,,,,,863309,,,,,,,
278260,set_tempo,20,1,0,,,,,,,,,,,,869565,,,,,,,
278280,note_on,100,0,2,,,,,,,,,,,,,,,0,,,31,26
278300,set_tempo,40,1,0,,,,,,,,,,,,875912,,,,,,,
278300,note_on,20,0,2,,,,,,,,,,,,,,,0,,,32,0
278320,set_tempo,20,1,0,,,,,,,,,,,,882353,,,,,,,
278360,set_tempo,40,1,0,,,,,,,,,,,,888889,,,,,,,
278380,set_tempo,20,1,0,,,,,,,,,,,,895522,,,,,,,
278400,note_on,100,0,2,,,,,,,,,,,,,,,0,,,30,30
278400,set_tempo,20,1,0,,,,,,,,,,,,902256,,,,,,,
278400,note_on,480,0,1,,,,,,,,,,,,,,,0,,,70,0
278400,note_on,0,0,1,,,,,,,,,,,,,,,0,,,70,52
278411,control_change,11,0,2,,,,,,,,,,,,,,,0,64,0,,
278420,note_on,9,0,2,,,,,,,,,,,,,,,0,,,31,0
278434,control_change,14,0,2,,,,,,,,,,,,,,,0,64,127,,
278520,note_on,86,0,2,,,,,,,,,,,,,,,0,,,30,0
278520,note_on,0,0,2,,,,,,,,,,,,,,,0,,,49,26
278520,set_tempo,120,1,0,,,,,,,,,,,,740741,,,,,,,
278640,note_on,120,0,2,,,,,,,,,,,,,,,0,,,49,0
278640,note_on,0,0,2,,,,,,,,,,,,,,,0,,,54,26
278760,note_on,120,0,2,,,,,,,,,,,,,,,0,,,54,0
278760,note_on,0,0,2,,,,,,,,,,,,,,,0,,,49,26
278880,note_on,0,0,1,,,,,,,,,,,,,,,0,,,68,51
278880,note_on,480,0,1,,,,,,,,,,,,,,,0,,,70,0
278880,set_tempo,360,1,0,,,,,,,,,,,,731707,,,,,,,
278880,note_on,120,0,2,,,,,,,,,,,,,,,0,,,49,0
278880,note_on,0,0,2,,,,,,,,,,,,,,,0,,,42,31
278914,control_change,34,0,2,,,,,,,,,,,,,,,0,64,0,,
278949,control_change,35,0,2,,,,,,,,,,,,,,,0,64,127,,
279000,note_on,0,0,2,,,,,,,,,,,,,,,0,,,49,26
279000,set_tempo,120,1,0,,,,,,,,,,,,727273,,,,,,,
279000,note_on,51,0,2,,,,,,,,,,,,,,,0,,,42,0
279120,note_on,120,0,2,,,,,,,,,,,,,,,0,,,49,0
279120,set_tempo,120,1,0,,,,,,,,,,,,722892,,,,,,,
279120,note_on,0,0,2,,,,,,,,,,,,,,,0,,,53,26
279240,note_on,120,0,2,,,,,,,,,,,,,,,0,,,53,0
279240,note_on,0,0,2,,,,,,,,,,,,,,,0,,,49,25
279240,set_tempo,120,1,0,,,,,,,,,,,,718563,,,,,,,
279360,note_on,120,0,2,,,,,,,,,,,,,,,0,,,49,0
279360,note_on,0,0,2,,,,,,,,,,,,,,,0,,,42,30
279360,note_on,480,0,1,,,,,,,,,,,,,,,0,,,68,0
279360,note_on,0,0,1,,,,,,,,,,,,,,,0,,,70,52
279360,set_tempo,120,1,0,,,,,,,,,,,,714286,,,,,,,
279377,control_change,17,0,2,,,,,,,,,,,,,,,0,64,0,,
279423,control_change,46,0,2,,,,,,,,,,,,,,,0,64,127,,
279480,note_on,57,0,2,,,,,,,,,,,,,,,0,,,42,0
279480,note_on,0,0,2,,,,,,,,,,,,,,,0,,,49,27
279520,set_tempo,160,1,0,,,,,,,,,,,,718563,,,,,,,
279600,note_on,120,0,2,,,,,,,,,,,,,,,0,,,49,0
279600,note_on,0,0,2,,,,,,,,,,,,,,,0,,,54,27
279680,set_tempo,160,1,0,,,,,,,,,,,,722892,,,,,,,
279720,note_on,120,0,2,,,,,,,,,,,,,,,0,,,54,0
279720,note_on,0,0,2,,,,,,,,,,,,,,,0,,,49,27
279829,control_change,109,0,2,,,,,,,,,,,,,,,0,64,0,,
279840,note_on,0,0,1,,,,,,,,,,,,,,,0,,,71,50
279840,note_on,480,0,1,,,,,,,,,,,,,,,0,,,70,0
279840,note_on,0,0,2,,,,,,,,,,,,,,,0,,,42,30
279840,note_on,11,0,2,,,,,,,,,,,,,,,0,,,49,0
279840,set_tempo,160,1,0,,,,,,,,,,,,727273,,,,,,,
279880,control_change,40,0,2,,,,,,,,,,,,,,,0,64,127,,
279960,note_on,0,0,2,,,,,,,,,,,,,,,0,,,49,27
279960,note_on,80,0,2,,,,,,,,,,,,,,,0,,,42,0
280080,note_on,0,0,2,,,,,,,,,,,,,,,0,,,56,27
280080,note_on,120,0,2,,,,,,,,,,,,,,,0,,,49,0
280200,note_on,0,0,2,,,,,,,,,,,,,,,0,,,49,27
280200,note_on,120,0,2,,,,,,,,,,,,,,,0,,,56,0
280320,set_tempo,480,1,0,,,,,,,,,,,,717961,,,,,,,
280320,control_change,0,0,2,,,,,,,,,,,,,,,0,64,0,,
280320,note_on,0,0,2,,,,,,,,,,,,,,,0,,,42,33
280320,note_on,120,0,2,,,,,,,,,,,,,,,0,,,49,0
280320,note_on,0,0,1,,,,,,,,,,,,,,,0,,,73,52
280320,note_on,480,0,1,,,,,,,,,,,,,,,0,,,71,0
280366,control_change,46,0,2,,,,,,,,,,,,,,,0,64,127,,
280440,note_on,0,0,2,,,,,,,,,,,,,,,0,,,49,27
280440,note_on,74,0,2,,,,,,,,,,,,,,,0,,,42,0
280560,note_on,0,0,2,,,,,,,,,,,,,,,0,,,58,27
280560,note_on,120,0,2,,,,,,,,,,,,,,,0,,,49,0
280680,note_on,0,0,2,,,,,,,,,,,,,,,0,,,49,27
280680,note_on,120,0,2,,,,,,,,,,,,,,,0,,,58,0
280760,set_tempo,440,1,0,,,,,,,,,,,,713012,,,,,,,
280800,note_on,0,0,2,,,,,,,,,,,,,,,0,,,42,31
280800,note_on,120,0,2,,,,,,,,,,,,,,,0,,,49,0
280920,note_on,0,0,2,,,,,,,,,,,,,,,0,,,49,27
280920,note_on,120,0,2,,,,,,,,,,,,,,,0,,,42,0
281040,note_on,0,0,2,,,,,,,,,,,,,,,0,,,58,27
281040,note_on,120,0,2,,,,,,,,,,,,,,,0,,,49,0
281040,set_tempo,280,1,0,,,,,,,,,,,,707965,,,,,,,
281160,note_on,120,0,2,,,,,,,,,,,,,,,0,,,58,0
281160,note_on,0,0,2,,,,,,,,,,,,,,,0,,,49,27
281280,note_on,0,0,2,,,,,,,,,,,,,,,0,,,42,30
281280,note_on,120,0,2,,,,,,,,,,,,,,,0,,,49,0
281280,set_tempo,240,1,0,,,,,,,,,,,,703317,,,,,,,
281400,note_on,120,0,2,,,,,,,,,,,,,,,0,,,42,0
281400,note_on,0,0,2,,,,,,,,,,,,,,,0,,,49,27
281520,set_tempo,240,1,0,,,,,,,,,,,,707965,,,,,,,
281520,note_on,120,0,2,,,,,,,,,,,,,,,0,,,49,0
281520,note_on,0,0,2,,,,,,,,,,,,,,,0,,,58,27
281640,note_on,0,0,2,,,,,,,,,,,,,,,0,,,49,27
281640,note_on,120,0,2,,,,,,,,,,,,,,,0,,,58,0
281760,note_on,120,0,2,,,,,,,,,,,,,,,0,,,49,0
281760,note_on,0,0,2,,,,,,,,,,,,,,,0,,,42,31
281760,set_tempo,240,1,0,,,,,,,,,,,,713012,,,,,,,
281760,note_on,1440,0,1,,,,,,,,,,,,,,,0,,,73,0
281760,note_on,0,0,1,,,,,,,,,,,,,,,0,,,71,55
281829,control_change,69,0,2,,,,,,,,,,,,,,,0,64,0,,
281863,control_change,34,0,2,,,,,,,,,,,,,,,0,64,127,,
281880,note_on,17,0,2,,,,,,,,,,,,,,,0,,,42,0
281880,note_on,0,0,2,,,,,,,,,,,,,,,0,,,49,25
282000,note_on,120,0,2,,,,,,,,,,,,,,,0,,,49,0
282000,note_on,0,0,1,,,,,,,,,,,,,,,0,,,70,52
282000,note_on,0,0,2,,,,,,,,,,,,,,,0,,,54,28
282000,note_on,240,0,1,,,,,,,,,,,,,,,0,,,71,0
282120,note_on,120,0,2,,,,,,,,,,,,,,,0,,,54,0
282120,note_on,0,0,2,,,,,,,,,,,,,,,0,,,49,27
282240,note_on,240,0,1,,,,,,,,,,,,,,,0,,,70,0
282240,note_on,0,0,1,,,,,,,,,,,,,,,0,,,75,58
282240,note_on,0,0,2,,,,,,,,,,,,,,,0,,,42,33
282240,control_change,0,0,2,,,,,,,,,,,,,,,0,64,0,,
282240,note_on,120,0,2,,,,,,,,,,,,,,,0,,,49,0
282240,set_tempo,480,1,0,,,,,,,,,,,,713012,,,,,,,
282280,control_change,40,0,2,,,,,,,,,,,,,,,0,64,127,,
282360,note_on,0,0,2,,,,,,,,,,,,,,,0,,,51,27
282360,note_on,80,0,2,,,,,,,,,,,,,,,0,,,42,0
282480,note_on,120,0,2,,,,,,,,,,,,,,,0,,,51,0
282480,note_on,0,0,2,,,,,,,,,,,,,,,0,,,59,27
282480,note_on,240,0,1,,,,,,,,,,,,,,,0,,,75,0
282600,note_on,120,0,2,,,,,,,,,,,,,,,0,,,59,0
282600,note_on,0,0,2,,,,,,,,,,,,,,,0,,,51,27
282720,note_on,120,0,2,,,,,,,,,,,,,,,0,,,51,0
282720,note_on,0,0,2,,,,,,,,,,,,,,,0,,,42,32
282720,note_on,240,0,1,,,,,,,,,,,,,,,0,,,75,54
282720,set_tempo,480,1,0,,,,,,,,,,,,703317,,,,,,,
282840,note_on,120,0,2,,,,,,,,,,,,,,,0,,,42,0
282840,note_on,0,0,2,,,,,,,,,,,,,,,0,,,51,27
282960,note_on,120,0,2,,,,,,,,,,,,,,,0,,,51,0
282960,note_on,240,0,1,,,,,,,,,,,,,,,0,,,75,0
282960,note_on,0,0,2,,,,,,,,,,,,,,,0,,,59,27
283080,note_on,120,0,2,,,,,,,,,,,,,,,0,,,59,0
283080,note_on,0,0,2,,,,,,,,,,,,,,,0,,,51,27
283200,note_on,240,0,1,,,,,,,,,,,,,,,0,,,75,54
283200,note_on,120,0,2,,,,,,,,,,,,,,,0,,,51,0
283200,note_on,0,0,2,,,,,,,,,,,,,,,0,,,42,32
283320,note_on,120,0,2,,,,,,,,,,,,,,,0,,,42,0
283320,note_on,0,0,2,,,,,,,,,,,,,,,0,,,51,27
283440,note_on,120,0,2,,,,,,,,,,,,,,,0,,,51,0
283440,note_on,0,0,2,,,,,,,,,,,,,,,0,,,59,27
283440,note_on,240,0,1,,,,,,,,,,,,,,,0,,,75,0
283560,note_on,120,0,2,,,,,,,,,,,,,,,0,,,59,0
283560,note_on,0,0,2,,,,,,,,,,,,,,,0,,,51,27
283680,set_tempo,960,1,0,,,,,,,,,,,,754717,,,,,,,
283680,note_on,120,0,2,,,,,,,,,,,,,,,0,,,51,0
283680,note_on,0,0,2,,,,,,,,,,,,,,,0,,,42,33
283680,note_on,240,0,1,,,,,,,,,,,,,,,0,,,77,56
283686,control_change,6,0,2,,,,,,,,,,,,,,,0,64,0,,
283726,control_change,40,0,2,,,,,,,,,,,,,,,0,64,127,,
283800,note_on,74,0,2,,,,,,,,,,,,,,,0,,,42,0
283800,note_on,0,0,2,,,,,,,,,,,,,,,0,,,51,27
283920,note_on,0,0,2,,,,,,,,,,,,,,,0,,,59,31
283920,set_tempo,240,1,0,,,,,,,,,,,,717961,,,,,,,
283920,note_on,0,0,1,,,,,,,,,,,,,,,0,,,78,51
283920,note_on,240,0,1,,,,,,,,,,,,,,,0,,,77,0
283920,note_on,120,0,2,,,,,,,,,,,,,,,0,,,51,0
284040,note_on,120,0,2,,,,,,,,,,,,,,,0,,,59,0
284040,note_on,0,0,2,,,,,,,,,,,,,,,0,,,51,27
284160,set_tempo,240,1,0,,,,,,,,,,,,717961,,,,,,,
284160,note_on,120,0,2,,,,,,,,,,,,,,,0,,,51,0
284160,control_change,0,0,2,,,,,,,,,,,,,,,0,64,0,,
284160,note_on,0,0,1,,,,,,,,,,,,,,,0,,,73,54
284160,note_on,240,0,1,,,,,,,,,,,,,,,0,,,78,0
284160,note_on,0,0,2,,,,,,,,,,,,,,,0,,,42,33
284211,control_change,51,0,2,,,,,,,,,,,,,,,0,64,127,,
284280,note_on,69,0,2,,,,,,,,,,,,,,,0,,,42,0
284280,note_on,0,0,2,,,,,,,,,,,,,,,0,,,49,28
284400,note_on,120,0,2,,,,,,,,,,,,,,,0,,,49,0
284400,note_on,0,0,2,,,,,,,,,,,,,,,0,,,58,28
284520,note_on,0,0,2,,,,,,,,,,,,,,,0,,,49,28
284520,note_on,120,0,2,,,,,,,,,,,,,,,0,,,58,0
284640,note_on,0,0,2,,,,,,,,,,,,,,,0,,,42,33
284640,note_on,120,0,2,,,,,,,,,,,,,,,0,,,49,0
284640,set_tempo,480,1,0,,,,,,,,,,,,717961,,,,,,,
284760,note_on,120,0,2,,,,,,,,,,,,,,,0,,,42,0
284760,note_on,0,0,2,,,,,,,,,,,,,,,0,,,49,27
284800,set_tempo,160,1,0,,,,,,,,,,,,713012,,,,,,,
284880,note_on,120,0,2,,,,,,,,,,,,,,,0,,,49,0
284880,note_on,0,0,2,,,,,,,,,,,,,,,0,,,58,28
284960,set_tempo,160,1,0,,,,,,,,,,,,707965,,,,,,,
285000,note_on,0,0,2,,,,,,,,,,,,,,,0,,,49,27
285000,note_on,120,0,2,,,,,,,,,,,,,,,0,,,58,0
285080,set_tempo,120,1,0,,,,,,,,,,,,703317,,,,,,,
285120,note_on,120,0,2,,,,,,,,,,,,,,,0,,,49,0
285120,note_on,0,0,2,,,,,,,,,,,,,,,0,,,42,33
285160,set_tempo,80,1,0,,,,,,,,,,,,703317,,,,,,,
285240,note_on,120,0,2,,,,,,,,,,,,,,,0,,,42,0
285240,note_on,0,0,2,,,,,,,,,,,,,,,0,,,49,28
285360,note_on,120,0,2,,,,,,,,,,,,,,,0,,,49,0
285360,note_on,0,0,2,,,,,,,,,,,,,,,0,,,58,29
285400,set_tempo,240,1,0,,,,,,,,,,,,707965,,,,,,,
285480,note_on,120,0,2,,,,,,,,,,,,,,,0,,,58,0
285480,note_on,0,0,2,,,,,,,,,,,,,,,0,,,49,29
285600,note_on,0,0,2,,,,,,,,,,,,,,,0,,,42,33
285600,note_on,0,0,1,,,,,,,,,,,,,,,0,,,71,52
285600,note_on,1440,0,1,,,,,,,,,,,,,,,0,,,73,0
285600,note_on,120,0,2,,,,,,,,,,,,,,,0,,,49,0
285600,set_tempo,200,1,0,,,,,,,,,,,,713012,,,,,,,
285674,control_change,74,0,2,,,,,,,,,,,,,,,0,64,0,,
285720,control_change,0,0,2,,,,,,,,,,,,,,,0,64,127,,
285720,note_on,46,0,2,,,,,,,,,,,,,,,0,,,42,0
285720,note_on,0,0,2,,,,,,,,,,,,,,,0,,,49,27
285840,note_on,240,0,1,,,,,,,,,,,,,,,0,,,71,0
285840,note_on,0,0,2,,,,,,,,,,,,,,,0,,,54,31
285840,note_on,0,0,1,,,,,,,,,,,,,,,0,,,70,51
285840,note_on,120,0,2,,,,,,,,,,,,,,,0,,,49,0
285960,note_on,120,0,2,,,,,,,,,,,,,,,0,,,54,0
285960,note_on,0,0,2,,,,,,,,,,,,,,,0,,,49,27
286080,control_change,0,0,2,,,,,,,,,,,,,,,0,64,0,,
286080,note_on,0,0,2,,,,,,,,,,,,,,,0,,,42,33
286080,set_tempo,480,1,0,,,,,,,,,,,,703317,,,,,,,
286080,note_on,0,0,1,,,,,,,,,,,,,,,0,,,71,52
286080,note_on,240,0,1,,,,,,,,,,,,,,,0,,,70,0
286080,note_on,120,0,2,,,,,,,,,,,,,,,0,,,49,0
286143,control_change,63,0,2,,,,,,,,,,,,,,,0,64,127,,
286200,note_on,57,0,2,,,,,,,,,,,,,,,0,,,42,0
286200,note_on,0,0,2,,,,,,,,,,,,,,,0,,,51,28
286320,note_on,120,0,2,,,,,,,,,,,,,,,0,,,51,0
286320,note_on,0,0,2,,,,,,,,,,,,,,,0,,,59,28
286440,note_on,0,0,2,,,,,,,,,,,,,,,0,,,51,28
286440,note_on,120,0,2,,,,,,,,,,,,,,,0,,,59,0
286560,note_on,480,0,1,,,,,,,,,,,,,,,0,,,71,0
286560,note_on,120,0,2,,,,,,,,,,,,,,,0,,,51,0
286560,note_on,0,0,2,,,,,,,,,,,,,,,0,,,42,33
286560,note_on,0,0,1,,,,,,,,,,,,,,,0,,,75,52
286680,note_on,120,0,2,,,,,,,,,,,,,,,0,,,42,0
286680,note_on,0,0,2,,,,,,,,,,,,,,,0,,,51,29
286800,note_on,120,0,2,,,,,,,,,,,,,,,0,,,51,0
286800,note_on,0,0,2,,,,,,,,,,,,,,,0,,,59,29
286920,note_on,120,0,2,,,,,,,,,,,,,,,0,,,59,0
286920,note_on,0,0,2,,,,,,,,,,,,,,,0,,,51,29
287040,note_on,480,0,1,,,,,,,,,,,,,,,0,,,75,0
287040,note_on,0,0,2,,,,,,,,,,,,,,,0,,,42,33
287040,note_on,0,0,1,,,,,,,,,,,,,,,0,,,68,52
287040,set_tempo,960,1,0,,,,,,,,,,,,713012,,,,,,,
287040,note_on,120,0,2,,,,,,,,,,,,,,,0,,,51,0
287046,control_change,6,0,2,,,,,,,,,,,,,,,0,64,0,,
287103,control_change,57,0,2,,,,,,,,,,,,,,,0,64,127,,
287160,note_on,57,0,2,,,,,,,,,,,,,,,0,,,42,0
287160,note_on,0,0,2,,,,,,,,,,,,,,,0,,,49,28
287280,note_on,120,0,2,,,,,,,,,,,,,,,0,,,49,0
287280,note_on,0,0,2,,,,,,,,,,,,,,,0,,,53,28
287400,note_on,120,0,2,,,,,,,,,,,,,,,0,,,53,0
287400,note_on,0,0,2,,,,,,,,,,,,,,,0,,,49,27
287520,note_on,0,0,2,,,,,,,,,,,,,,,0,,,42,31
287520,note_on,0,0,1,,,,,,,,,,,,,,,0,,,71,52
287520,note_on,120,0,2,,,,,,,,,,,,,,,0,,,49,0
287520,note_on,480,0,1,,,,,,,,,,,,,,,0,,,68,0
287640,note_on,0,0,2,,,,,,,,,,,,,,,0,,,49,27
287640,note_on,120,0,2,,,,,,,,,,,,,,,0,,,42,0
287760,note_on,120,0,2,,,,,,,,,,,,,,,0,,,49,0
287760,note_on,0,0,2,,,,,,,,,,,,,,,0,,,56,28
287880,note_on,0,0,2,,,,,,,,,,,,,,,0,,,49,28
287880,note_on,120,0,2,,,,,,,,,,,,,,,0,,,56,0
288000,note_on,0,0,1,,,,,,,,,,,,,,,0,,,70,54
288000,set_tempo,960,1,0,,,,,,,,,,,,717961,,,,,,,
288000,note_on,0,0,2,,,,,,,,,,,,,,,0,,,42,33
288000,control_change,0,0,2,,,,,,,,,,,,,,,0,64,0,,
288000,note_on,120,0,2,,,,,,,,,,,,,,,0,,,49,0
288000,note_on,480,0,1,,,,,,,,,,,,,,,0,,,71,0
288051,control_change,51,0,2,,,,,,,,,,,,,,,0,64,127,,
288120,note_on,69,0,2,,,,,,,,,,,,,,,0,,,42,0
288120,note_on,0,0,2,,,,,,,,,,,,,,,0,,,49,28
288240,note_on,0,0,2,,,,,,,,,,,,,,,0,,,58,28
288240,note_on,120,0,2,,,,,,,,,,,,,,,0,,,49,0
288360,note_on,0,0,2,,,,,,,,,,,,,,,0,,,49,28
288360,note_on,120,0,2,,,,,,,,,,,,,,,0,,,58,0
288480,set_tempo,480,1,0,,,,,,,,,,,,717961,,,,,,,
288480,note_on,0,0,2,,,,,,,,,,,,,,,0,,,42,33
288480,note_on,120,0,2,,,,,,,,,,,,,,,0,,,49,0
288480,note_on,480,0,1,,,,,,,,,,,,,,,0,,,70,0
288480,note_on,0,0,1,,,,,,,,,,,,,,,0,,,66,51
288480,note_on,0,0,1,,,,,,,,,,,,,,,0,,,78,61
288600,note_on,0,0,2,,,,,,,,,,,,,,,0,,,49,27
288600,note_on,120,0,2,,,,,,,,,,,,,,,0,,,42,0
288640,set_tempo,160,1,0,,,,,,,,,,,,713012,,,,,,,
288720,note_on,120,0,2,,,,,,,,,,,,,,,0,,,49,0
288720,note_on,0,0,2,,,,,,,,,,,,,,,0,,,58,28
288800,set_tempo,160,1,0,,,,,,,,,,,,707965,,,,,,,
288840,note_on,120,0,2,,,,,,,,,,,,,,,0,,,58,0
288840,note_on,0,0,2,,,,,,,,,,,,,,,0,,,49,27
288920,set_tempo,120,1,0,,,,,,,,,,,,703317,,,,,,,
288960,note_on,120,0,2,,,,,,,,,,,,,,,0,,,49,0
288960,note_on,0,0,2,,,,,,,,,,,,,,,0,,,42,33
289000,set_tempo,80,1,0,,,,,,,,,,,,703317,,,,,,,
289080,note_on,120,0,2,,,,,,,,,,,,,,,0,,,42,0
289080,note_on,0,0,2,,,,,,,,,,,,,,,0,,,49,28
289200,note_on,0,0,1,,,,,,,,,,,,,,,0,,,66,0
289200,note_on,720,0,1,,,,,,,,,,,,,,,0,,,78,0
289200,note_on,0,0,1,,,,,,,,,,,,,,,0,,,65,45
289200,note_on,0,0,2,,,,,,,,,,,,,,,0,,,58,29
289200,note_on,120,0,2,,,,,,,,,,,,,,,0,,,49,0
289200,note_on,0,0,1,,,,,,,,,,,,,,,0,,,77,53
289240,set_tempo,240,1,0,,,,,,,,,,,,707965,,,,,,,
289320,note_on,0,0,2,,,,,,,,,,,,,,,0,,,49,29
289320,note_on,120,0,2,,,,,,,,,,,,,,,0,,,58,0
289440,set_tempo,200,1,0,,,,,,,,,,,,713012,,,,,,,
289440,note_on,0,0,2,,,,,,,,,,,,,,,0,,,42,33
289440,note_on,120,0,2,,,,,,,,,,,,,,,0,,,49,0
289440,note_on,240,0,1,,,,,,,,,,,,,,,0,,,77,0
289440,note_on,0,0,1,,,,,,,,,,,,,,,0,,,65,0
289440,note_on,0,0,1,,,,,,,,,,,,,,,0,,,63,47
289440,note_on,0,0,1,,,,,,,,,,,,,,,0,,,75,56
289514,control_change,74,0,2,,,,,,,,,,,,,,,0,64,0,,
289560,note_on,0,0,2,,,,,,,,,,,,,,,0,,,49,27
289560,note_on,46,0,2,,,,,,,,,,,,,,,0,,,42,0
289560,control_change,0,0,2,,,,,,,,,,,,,,,0,64,127,,
289680,note_on,0,0,1,,,,,,,,,,,,,,,0,,,73,51
289680,note_on,240,0,1,,,,,,,,,,,,,,,0,,,75,0
289680,note_on,0,0,1,,,,,,,,,,,,,,,0,,,63,0
289680,note_on,0,0,2,,,,,,,,,,,,,,,0,,,58,31
289680,note_on,120,0,2,,,,,,,,,,,,,,,0,,,49,0
289680,note_on,0,0,1,,,,,,,,,,,,,,,0,,,61,43
289800,note_on,120,0,2,,,,,,,,,,,,,,,0,,,58,0
289800,note_on,0,0,2,,,,,,,,,,,,,,,0,,,49,27
289920,note_on,0,0,1,,,,,,,,,,,,,,,0,,,61,0
289920,set_tempo,480,1,0,,,,,,,,,,,,703317,,,,,,,
289920,note_on,240,0,1,,,,,,,,,,,,,,,0,,,73,0
289920,note_on,0,0,1,,,,,,,,,,,,,,,0,,,71,54
289920,note_on,0,0,1,,,,,,,,,,,,,,,0,,,59,46
289920,note_on,0,0,2,,,,,,,,,,,,,,,0,,,42,33
289920,control_change,0,0,2,,,,,,,,,,,,,,,0,64,0,,
289920,note_on,120,0,2,,,,,,,,,,,,,,,0,,,49,0
289983,control_change,63,0,2,,,,,,,,,,,,,,,0,64,127,,
290040,note_on,0,0,2,,,,,,,,,,,,,,,0,,,51,28
290040,note_on,57,0,2,,,,,,,,,,,,,,,0,,,42,0
290160,note_on,0,0,2,,,,,,,,,,,,,,,0,,,54,28
290160,note_on,120,0,2,,,,,,,,,,,,,,,0,,,51,0
290280,note_on,0,0,2,,,,,,,,,,,,,,,0,,,51,28
290280,note_on,120,0,2,,,,,,,,,,,,,,,0,,,54,0
290400,note_on,0,0,1,,,,,,,,,,,,,,,0,,,59,0
290400,note_on,480,0,1,,,,,,,,,,,,,,,0,,,71,0
290400,note_on,0,0,1,,,,,,,,,,,,,,,0,,,75,56
290400,note_on,0,0,2,,,,,,,,,,,,,,,0,,,42,33
290400,note_on,120,0,2,,,,,,,,,,,,,,,0,,,51,0
290520,note_on,0,0,2,,,,,,,,,,,,,,,0,,,51,29
290520,note_on,120,0,2,,,,,,,,,,,,,,,0,,,42,0
290640,note_on,0,0,2,,,,,,,,,,,,,,,0,,,59,29
290640,note_on,120,0,2,,,,,,,,,,,,,,,0,,,51,0
290760,note_on,0,0,2,,,,,,,,,,,,,,,0,,,51,29
290760,note_on,120,0,2,,,,,,,,,,,,,,,0,,,59,0
290880,note_on,120,0,2,,,,,,,,,,,,,,,0,,,51,0
290880,note_on,480,0,1,,,,,,,,,,,,,,,0,,,75,0
290880,note_on,0,0,2,,,,,,,,,,,,,,,0,,,42,33
290880,note_on,0,0,1,,,,,,,,,,,,,,,0,,,68,54
290880,set_tempo,960,1,0,,,,,,,,,,,,713012,,,,,,,
290886,control_change,6,0,2,,,,,,,,,,,,,,,0,64,0,,
290943,control_change,57,0,2,,,,,,,,,,,,,,,0,64,127,,
291000,note_on,0,0,2,,,,,,,,,,,,,,,0,,,49,28
291000,note_on,57,0,2,,,,,,,,,,,,,,,0,,,42,0
291120,note_on,0,0,2,,,,,,,,,,,,,,,0,,,53,28
291120,note_on,120,0,2,,,,,,,,,,,,,,,0,,,49,0
291240,note_on,0,0,2,,,,,,,,,,,,,,,0,,,49,27
291240,note_on,120,0,2,,,,,,,,,,,,,,,0,,,53,0
291360,note_on,0,0,1,,,,,,,,,,,,,,,0,,,70,52
291360,note_on,120,0,2,,,,,,,,,,,,,,,0,,,49,0
291360,note_on,0,0,2,,,,,,,,,,,,,,,0,,,42,31
291360,note_on,480,0,1,,,,,,,,,,,,,,,0,,,68,0
291480,note_on,0,0,2,,,,,,,,,,,,,,,0,,,49,27
291480,note_on,120,0,2,,,,,,,,,,,,,,,0,,,42,0
291600,note_on,240,0,1,,,,,,,,,,,,,,,0,,,70,0
291600,note_on,120,0,2,,,,,,,,,,,,,,,0,,,49,0
291600,note_on,0,0,2,,,,,,,,,,,,,,,0,,,56,28
291600,note_on,0,0,1,,,,,,,,,,,,,,,0,,,71,52
291720,note_on,120,0,2,,,,,,,,,,,,,,,0,,,56,0
291720,note_on,0,0,2,,,,,,,,,,,,,,,0,,,49,28
291840,note_on,0,0,2,,,,,,,,,,,,,,,0,,,42,33
291840,set_tempo,960,1,0,,,,,,,,,,,,662983,,,,,,,
291840,note_on,120,0,2,,,,,,,,,,,,,,,0,,,49,0
291840,control_change,0,0,2,,,,,,,,,,,,,,,0,64,0,,
291840,note_on,240,0,1,,,,,,,,,,,,,,,0,,,71,0
291840,note_on,0,0,1,,,,,,,,,,,,,,,0,,,70,55
291880,control_change,40,0,2,,,,,,,,,,,,,,,0,64,127,,
291900,note_on,20,0,2,,,,,,,,,,,,,,,0,,,42,0
291960,note_on,60,0,2,,,,,,,,,,,,,,,0,,,58,28
292080,note_on,120,0,2,,,,,,,,,,,,,,,0,,,58,0
292080,note_on,0,0,2,,,,,,,,,,,,,,,0,,,54,28
292080,note_on,0,0,1,,,,,,,,,,,,,,,0,,,73,52
292080,set_tempo,240,1,0,,,,,,,,,,,,681818,,,,,,,
292080,note_on,240,0,1,,,,,,,,,,,,,,,0,,,70,0
292200,note_on,120,0,2,,,,,,,,,,,,,,,0,,,54,0
292200,note_on,0,0,2,,,,,,,,,,,,,,,0,,,58,28
292320,set_tempo,240,1,0,,,,,,,,,,,,662983,,,,,,,
292320,note_on,240,0,1,,,,,,,,,,,,,,,0,,,73,0
292320,note_on,120,0,2,,,,,,,,,,,,,,,0,,,58,0
292320,note_on,0,0,1,,,,,,,,,,,,,,,0,,,82,56
292320,note_on,0,0,2,,,,,,,,,,,,,,,0,,,54,33
292440,note_on,0,0,2,,,,,,,,,,,,,,,0,,,58,29
292440,note_on,120,0,2,,,,,,,,,,,,,,,0,,,54,0
292560,note_on,0,0,2,,,,,,,,,,,,,,,0,,,54,29
292560,note_on,240,0,1,,,,,,,,,,,,,,,0,,,82,0
292560,set_tempo,240,1,0,,,,,,,,,,,,677966,,,,,,,
292560,note_on,120,0,2,,,,,,,,,,,,,,,0,,,58,0
292560,note_on,0,0,1,,,,,,,,,,,,,,,0,,,78,52
292680,note_on,0,0,2,,,,,,,,,,,,,,,0,,,58,29
292680,note_on,120,0,2,,,,,,,,,,,,,,,0,,,54,0
292800,note_on,120,0,2,,,,,,,,,,,,,,,0,,,58,0
292800,note_on,0,0,2,,,,,,,,,,,,,,,0,,,42,33
292800,set_tempo,240,1,0,,,,,,,,,,,,645161,,,,,,,
292800,note_on,0,0,1,,,,,,,,,,,,,,,0,,,73,56
292800,note_on,240,0,1,,,,,,,,,,,,,,,0,,,78,0
292806,control_change,6,0,2,,,,,,,,,,,,,,,0,64,0,,
292831,control_change,25,0,2,,,,,,,,,,,,,,,0,64,127,,
292860,note_on,29,0,2,,,,,,,,,,,,,,,0,,,42,0
292920,note_on,60,0,2,,,,,,,,,,,,,,,0,,,58,28
293040,note_on,120,0,2,,,,,,,,,,,,,,,0,,,58,0
293040,set_tempo,240,1,0,,,,,,,,,,,,659341,,,,,,,
293040,note_on,240,0,1,,,,,,,,,,,,,,,0,,,73,0
293040,note_on,0,0,1,,,,,,,,,,,,,,,0,,,70,52
293040,note_on,0,0,2,,,,,,,,,,,,,,,0,,,54,28
293160,note_on,0,0,2,,,,,,,,,,,,,,,0,,,58,27
293160,note_on,120,0,2,,,,,,,,,,,,,,,0,,,54,0
293280,set_tempo,240,1,0,,,,,,,,,,,,645578,,,,,,,
293280,note_on,0,0,2,,,,,,,,,,,,,,,0,,,54,31
293280,note_on,120,0,2,,,,,,,,,,,,,,,0,,,58,0
293280,note_on,240,0,1,,,,,,,,,,,,,,,0,,,70,0
293280,note_on,0,0,1,,,,,,,,,,,,,,,0,,,78,55
293400,note_on,0,0,2,,,,,,,,,,,,,,,0,,,58,27
293400,note_on,120,0,2,,,,,,,,,,,,,,,0,,,54,0
293520,note_on,0,0,1,,,,,,,,,,,,,,,0,,,74,52
293520,note_on,0,0,2,,,,,,,,,,,,,,,0,,,54,28
293520,note_on,120,0,2,,,,,,,,,,,,,,,0,,,58,0
293520,set_tempo,240,1,0,,,,,,,,,,,,659123,,,,,,,
293520,note_on,240,0,1,,,,,,,,,,,,,,,0,,,78,0
293640,note_on,0,0,2,,,,,,,,,,,,,,,0,,,58,28
293640,note_on,120,0,2,,,,,,,,,,,,,,,0,,,54,0
293760,note_on,240,0,1,,,,,,,,,,,,,,,0,,,74,0
293760,note_on,0,0,2,,,,,,,,,,,,,,,0,,,42,33
293760,control_change,0,0,2,,,,,,,,,,,,,,,0,64,0,,
293760,set_tempo,240,1,0,,,,,,,,,,,,645578,,,,,,,
293760,note_on,120,0,2,,,,,,,,,,,,,,,0,,,58,0
293760,note_on,0,0,1,,,,,,,,,,,,,,,0,,,75,55
293794,control_change,34,0,2,,,,,,,,,,,,,,,0,64,127,,
293820,note_on,26,0,2,,,,,,,,,,,,,,,0,,,42,0
293880,note_on,60,0,2,,,,,,,,,,,,,,,0,,,59,28
294000,note_on,0,0,2,,,,,,,,,,,,,,,0,,,54,28
294000,note_on,240,0,1,,,,,,,,,,,,,,,0,,,75,0
294000,note_on,0,0,1,,,,,,,,,,,,,,,0,,,71,52
294000,note_on,120,0,2,,,,,,,,,,,,,,,0,,,59,0
294000,set_tempo,240,1,0,,,,,,,,,,,,652174,,,,,,,
294120,note_on,0,0,2,,,,,,,,,,,,,,,0,,,59,28
294120,note_on,120,0,2,,,,,,,,,,,,,,,0,,,54,0
294240,note_on,0,0,1,,,,,,,,,,,,,,,0,,,83,56
294240,note_on,240,0,1,,,,,,,,,,,,,,,0,,,71,0
294240,note_on,0,0,2,,,,,,,,,,,,,,,0,,,54,33
294240,set_tempo,240,1,0,,,,,,,,,,,,638298,,,,,,,
294240,note_on,120,0,2,,,,,,,,,,,,,,,0,,,59,0
294360,note_on,0,0,2,,,,,,,,,,,,,,,0,,,59,29
294360,note_on,120,0,2,,,,,,,,,,,,,,,0,,,54,0
294480,note_on,120,0,2,,,,,,,,,,,,,,,0,,,59,0
294480,set_tempo,240,1,0,,,,,,,,,,,,648649,,,,,,,
294480,note_on,0,0,2,,,,,,,,,,,,,,,0,,,54,29
294480,note_on,0,0,1,,,,,,,,,,,,,,,0,,,80,54
294480,note_on,240,0,1,,,,,,,,,,,,,,,0,,,83,0
294600,note_on,0,0,2,,,,,,,,,,,,,,,0,,,59,29
294600,note_on,120,0,2,,,,,,,,,,,,,,,0,,,54,0
294720,note_on,0,0,2,,,,,,,,,,,,,,,0,,,42,33
294720,note_on,120,0,2,,,,,,,,,,,,,,,0,,,59,0
294720,set_tempo,240,1,0,,,,,,,,,,,,625978,,,,,,,
294720,note_on,240,0,1,,,,,,,,,,,,,,,0,,,80,0
294720,note_on,0,0,1,,,,,,,,,,,,,,,0,,,77,58
294726,control_change,6,0,2,,,,,,,,,,,,,,,0,64,0,,
294754,control_change,28,0,2,,,,,,,,,,,,,,,0,64,127,,
294780,note_on,26,0,2,,,,,,,,,,,,,,,0,,,42,0
294840,note_on,60,0,2,,,,,,,,,,,,,,,0,,,59,28
294960,note_on,120,0,2,,,,,,,,,,,,,,,0,,,59,0
294960,set_tempo,240,1,0,,,,,,,,,,,,640683,,,,,,,
294960,note_on,0,0,1,,,,,,,,,,,,,,,0,,,80,56
294960,note_on,240,0,1,,,,,,,,,,,,,,,0,,,77,0
294960,note_on,0,0,2,,,,,,,,,,,,,,,0,,,54,28
295080,note_on,0,0,2,,,,,,,,,,,,,,,0,,,59,27
295080,note_on,120,0,2,,,,,,,,,,,,,,,0,,,54,0
295200,set_tempo,240,1,0,,,,,,,,,,,,625978,,,,,,,
295200,note_on,0,0,2,,,,,,,,,,,,,,,0,,,54,31
295200,note_on,120,0,2,,,,,,,,,,,,,,,0,,,59,0
295200,note_on,0,0,1,,,,,,,,,,,,,,,0,,,85,58
295200,note_on,240,0,1,,,,,,,,,,,,,,,0,,,80,0
295320,note_on,120,0,2,,,,,,,,,,,,,,,0,,,54,0
295320,note_on,0,0,2,,,,,,,,,,,,,,,0,,,59,27
295440,set_tempo,240,1,0,,,,,,,,,,,,652316,,,,,,,
295440,note_on,0,0,2,,,,,,,,,,,,,,,0,,,54,28
295440,note_on,120,0,2,,,,,,,,,,,,,,,0,,,59,0
295440,note_on,240,0,1,,,,,,,,,,,,,,,0,,,85,0
295440,note_on,0,0,1,,,,,,,,,,,,,,,0,,,81,54
295560,note_on,0,0,2,,,,,,,,,,,,,,,0,,,59,28
295560,note_on,120,0,2,,,,,,,,,,,,,,,0,,,54,0
295680,note_on,0,0,2,,,,,,,,,,,,,,,0,,,42,33
295680,control_change,0,0,2,,,,,,,,,,,,,,,0,64,0,,
295680,note_on,120,0,2,,,,,,,,,,,,,,,0,,,59,0
295680,note_on,240,0,1,,,,,,,,,,,,,,,0,,,81,0
295680,note_on,0,0,1,,,,,,,,,,,,,,,0,,,82,57
295680,set_tempo,240,1,0,,,,,,,,,,,,645578,,,,,,,
295709,control_change,29,0,2,,,,,,,,,,,,,,,0,64,127,,
295740,note_on,31,0,2,,,,,,,,,,,,,,,0,,,42,0
295800,note_on,60,0,2,,,,,,,,,,,,,,,0,,,58,28
295920,note_on,240,0,1,,,,,,,,,,,,,,,0,,,82,0
295920,set_tempo,240,1,0,,,,,,,,,,,,636740,,,,,,,
295920,note_on,0,0,1,,,,,,,,,,,,,,,0,,,78,54
295920,note_on,0,0,2,,,,,,,,,,,,,,,0,,,54,28
295920,note_on,120,0,2,,,,,,,,,,,,,,,0,,,58,0
296040,note_on,0,0,2,,,,,,,,,,,,,,,0,,,58,28
296040,note_on,120,0,2,,,,,,,,,,,,,,,0,,,54,0
296160,note_on,120,0,2,,,,,,,,,,,,,,,0,,,58,0
296160,note_on,0,0,2,,,,,,,,,,,,,,,0,,,54,33
296160,note_on,240,0,1,,,,,,,,,,,,,,,0,,,78,0
296160,note_on,0,0,1,,,,,,,,,,,,,,,0,,,82,57
296160,set_tempo,240,1,0,,,,,,,,,,,,591716,,,,,,,
296280,note_on,120,0,1,,,,,,,,,,,,,,,0,,,82,0
296280,note_on,120,0,2,,,,,,,,,,,,,,,0,,,54,0
296280,note_on,0,0,2,,,,,,,,,,,,,,,0,,,58,29
296280,note_on,0,0,1,,,,,,,,,,,,,,,0,,,78,51
296400,note_on,120,0,2,,,,,,,,,,,,,,,0,,,58,0
296400,note_on,0,0,2,,,,,,,,,,,,,,,0,,,54,29
296400,note_on,0,0,1,,,,,,,,,,,,,,,0,,,82,56
296400,set_tempo,240,1,0,,,,,,,,,,,,611808,,,,,,,
296400,note_on,120,0,1,,,,,,,,,,,,,,,0,,,78,0
296520,note_on,0,0,1,,,,,,,,,,,,,,,0,,,78,50
296520,note_on,120,0,2,,,,,,,,,,,,,,,0,,,54,0
296520,note_on,0,0,2,,,,,,,,,,,,,,,0,,,58,29
296520,note_on,120,0,1,,,,,,,,,,,,,,,0,,,82,0
296640,set_tempo,240,1,0,,,,,,,,,,,,591716,,,,,,,
296640,note_on,120,0,1,,,,,,,,,,,,,,,0,,,78,0
296640,note_on,0,0,1,,,,,,,,,,,,,,,0,,,73,56
296640,note_on,120,0,2,,,,,,,,,,,,,,,0,,,58,0
296640,note_on,0,0,2,,,,,,,,,,,,,,,0,,,42,33
296646,control_change,6,0,2,,,,,,,,,,,,,,,0,64,0,,
296671,control_change,25,0,2,,,,,,,,,,,,,,,0,64,127,,
296700,note_on,29,0,2,,,,,,,,,,,,,,,0,,,42,0
296760,note_on,120,0,1,,,,,,,,,,,,,,,0,,,73,0
296760,note_on,60,0,2,,,,,,,,,,,,,,,0,,,58,28
296760,note_on,0,0,1,,,,,,,,,,,,,,,0,,,70,52
296880,note_on,120,0,2,,,,,,,,,,,,,,,0,,,58,0
296880,note_on,0,0,2,,,,,,,,,,,,,,,0,,,54,28
296880,set_tempo,240,1,0,,,,,,,,,,,,611808,,,,,,,
296880,note_on,0,0,1,,,,,,,,,,,,,,,0,,,73,56
296880,note_on,120,0,1,,,,,,,,,,,,,,,0,,,70,0
297000,note_on,0,0,1,,,,,,,,,,,,,,,0,,,70,53
297000,note_on,120,0,1,,,,,,,,,,,,,,,0,,,73,0
297000,note_on,120,0,2,,,,,,,,,,,,,,,0,,,54,0
297000,note_on,0,0,2,,,,,,,,,,,,,,,0,,,58,27
297120,note_on,120,0,2,,,,,,,,,,,,,,,0,,,58,0
297120,note_on,0,0,2,,,,,,,,,,,,,,,0,,,54,31
297120,set_tempo,240,1,0,,,,,,,,,,,,625978,,,,,,,
297120,note_on,0,0,1,,,,,,,,,,,,,,,0,,,78,58
297120,note_on,120,0,1,,,,,,,,,,,,,,,0,,,70,0
297240,note_on,120,0,2,,,,,,,,,,,,,,,0,,,54,0
297240,note_on,0,0,1,,,,,,,,,,,,,,,0,,,74,53
297240,note_on,120,0,1,,,,,,,,,,,,,,,0,,,78,0
297240,note_on,0,0,2,,,,,,,,,,,,,,,0,,,58,27
297360,note_on,0,0,1,,,,,,,,,,,,,,,0,,,78,57
297360,set_tempo,240,1,0,,,,,,,,,,,,637010,,,,,,,
297360,note_on,120,0,2,,,,,,,,,,,,,,,0,,,58,0
297360,note_on,0,0,2,,,,,,,,,,,,,,,0,,,54,28
297360,note_on,120,0,1,,,,,,,,,,,,,,,0,,,74,0
297480,note_on,120,0,1,,,,,,,,,,,,,,,0,,,78,0
297480,note_on,0,0,1,,,,,,,,,,,,,,,0,,,74,52
297480,note_on,120,0,2,,,,,,,,,,,,,,,0,,,54,0
297480,note_on,0,0,2,,,,,,,,,,,,,,,0,,,58,28
297600,control_change,0,0,2,,,,,,,,,,,,,,,0,64,0,,
297600,note_on,120,0,2,,,,,,,,,,,,,,,0,,,58,0
297600,set_tempo,240,1,0,,,,,,,,,,,,618812,,,,,,,
297600,note_on,0,0,1,,,,,,,,,,,,,,,0,,,75,57
297600,note_on,120,0,1,,,,,,,,,,,,,,,0,,,74,0
297600,note_on,0,0,2,,,,,,,,,,,,,,,0,,,42,33
297629,control_change,29,0,2,,,,,,,,,,,,,,,0,64,127,,
297660,note_on,31,0,2,,,,,,,,,,,,,,,0,,,42,0
297720,note_on,60,0,2,,,,,,,,,,,,,,,0,,,59,28
297720,note_on,120,0,1,,,,,,,,,,,,,,,0,,,75,0
297720,note_on,0,0,1,,,,,,,,,,,,,,,0,,,71,52
297840,set_tempo,240,1,0,,,,,,,,,,,,601564,,,,,,,
297840,note_on,120,0,2,,,,,,,,,,,,,,,0,,,59,0
297840,note_on,120,0,1,,,,,,,,,,,,,,,0,,,71,0
297840,note_on,0,0,1,,,,,,,,,,,,,,,0,,,75,54
297840,note_on,0,0,2,,,,,,,,,,,,,,,0,,,54,28
297960,note_on,120,0,1,,,,,,,,,,,,,,,0,,,75,0
297960,note_on,120,0,2,,,,,,,,,,,,,,,0,,,54,0
297960,note_on,0,0,2,,,,,,,,,,,,,,,0,,,59,28
297960,note_on,0,0,1,,,,,,,,,,,,,,,0,,,71,52
298080,note_on,120,0,2,,,,,,,,,,,,,,,0,,,59,0
298080,note_on,0,0,1,,,,,,,,,,,,,,,0,,,83,57
298080,note_on,120,0,1,,,,,,,,,,,,,,,0,,,71,0
298080,note_on,0,0,2,,,,,,,,,,,,,,,0,,,54,33
298200,note_on,120,0,1,,,,,,,,,,,,,,,0,,,83,0
298200,note_on,0,0,1,,,,,,,,,,,,,,,0,,,80,51
298200,note_on,120,0,2,,,,,,,,,,,,,,,0,,,54,0
298200,note_on,0,0,2,,,,,,,,,,,,,,,0,,,59,29
298320,set_tempo,480,1,0,,,,,,,,,,,,618812,,,,,,,
298320,note_on,120,0,1,,,,,,,,,,,,,,,0,,,80,0
298320,note_on,120,0,2,,,,,,,,,,,,,,,0,,,59,0
298320,note_on,0,0,2,,,,,,,,,,,,,,,0,,,54,29
298320,note_on,0,0,1,,,,,,,,,,,,,,,0,,,83,56
298440,note_on,120,0,1,,,,,,,,,,,,,,,0,,,83,0
298440,note_on,120,0,2,,,,,,,,,,,,,,,0,,,54,0
298440,note_on,0,0,2,,,,,,,,,,,,,,,0,,,59,29
298440,note_on,0,0,1,,,,,,,,,,,,,,,0,,,80,50
298560,note_on,120,0,1,,,,,,,,,,,,,,,0,,,80,0
298560,note_on,0,0,1,,,,,,,,,,,,,,,0,,,77,56
298560,note_on,0,0,2,,,,,,,,,,,,,,,0,,,42,33
298560,note_on,120,0,2,,,,,,,,,,,,,,,0,,,59,0
298560,set_tempo,240,1,0,,,,,,,,,,,,611808,,,,,,,
298566,control_change,6,0,2,,,,,,,,,,,,,,,0,64,0,,
298606,control_change,40,0,2,,,,,,,,,,,,,,,0,64,127,,
298620,note_on,14,0,2,,,,,,,,,,,,,,,0,,,42,0
298680,note_on,120,0,1,,,,,,,,,,,,,,,0,,,77,0
298680,note_on,60,0,2,,,,,,,,,,,,,,,0,,,59,28
298680,note_on,0,0,1,,,,,,,,,,,,,,,0,,,80,52
298800,note_on,120,0,1,,,,,,,,,,,,,,,0,,,80,0
298800,note_on,0,0,1,,,,,,,,,,,,,,,0,,,77,56
298800,set_tempo,240,1,0,,,,,,,,,,,,625978,,,,,,,
298800,note_on,120,0,2,,,,,,,,,,,,,,,0,,,59,0
298800,note_on,0,0,2,,,,,,,,,,,,,,,0,,,54,28
298920,note_on,120,0,1,,,,,,,,,,,,,,,0,,,77,0
298920,note_on,0,0,1,,,,,,,,,,,,,,,0,,,80,53
298920,note_on,120,0,2,,,,,,,,,,,,,,,0,,,54,0
298920,note_on,0,0,2,,,,,,,,,,,,,,,0,,,59,27
299040,note_on,0,0,1,,,,,,,,,,,,,,,0,,,85,58
299040,note_on,0,0,2,,,,,,,,,,,,,,,0,,,54,31
299040,note_on,120,0,2,,,,,,,,,,,,,,,0,,,59,0
299040,note_on,120,0,1,,,,,,,,,,,,,,,0,,,80,0
299040,set_tempo,240,1,0,,,,,,,,,,,,645578,,,,,,,
299160,note_on,0,0,1,,,,,,,,,,,,,,,0,,,81,53
299160,note_on,120,0,2,,,,,,,,,,,,,,,0,,,54,0
299160,note_on,120,0,1,,,,,,,,,,,,,,,0,,,85,0
299160,note_on,0,0,2,,,,,,,,,,,,,,,0,,,59,27
299280,note_on,0,0,1,,,,,,,,,,,,,,,0,,,85,57
299280,set_tempo,240,1,0,,,,,,,,,,,,678196,,,,,,,
299280,note_on,120,0,1,,,,,,,,,,,,,,,0,,,81,0
299280,note_on,120,0,2,,,,,,,,,,,,,,,0,,,59,0
299280,note_on,0,0,2,,,,,,,,,,,,,,,0,,,54,28
299400,note_on,0,0,1,,,,,,,,,,,,,,,0,,,81,52
299400,note_on,120,0,2,,,,,,,,,,,,,,,0,,,54,0
299400,note_on,0,0,2,,,,,,,,,,,,,,,0,,,59,28
299400,note_on,120,0,1,,,,,,,,,,,,,,,0,,,85,0
299520,note_on,120,0,2,,,,,,,,,,,,,,,0,,,59,0
299520,control_change,0,0,2,,,,,,,,,,,,,,,0,64,0,,
299520,note_on,120,0,1,,,,,,,,,,,,,,,0,,,81,0
299520,set_tempo,240,1,0,,,,,,,,,,,,629591,,,,,,,
299520,note_on,0,0,2,,,,,,,,,,,,,,,0,,,42,33
299520,note_on,0,0,1,,,,,,,,,,,,,,,0,,,82,57
299553,control_change,33,0,2,,,,,,,,,,,,,,,0,64,127,,
299580,note_on,27,0,2,,,,,,,,,,,,,,,0,,,42,0
299640,note_on,0,0,1,,,,,,,,,,,,,,,0,,,81,53
299640,note_on,120,0,1,,,,,,,,,,,,,,,0,,,82,0
299640,note_on,60,0,2,,,,,,,,,,,,,,,0,,,58,28
299760,set_tempo,240,1,0,,,,,,,,,,,,615258,,,,,,,
299760,note_on,120,0,2,,,,,,,,,,,,,,,0,,,58,0
299760,note_on,0,0,2,,,,,,,,,,,,,,,0,,,54,28
299760,note_on,120,0,1,,,,,,,,,,,,,,,0,,,81,0
299760,note_on,0,0,1,,,,,,,,,,,,,,,0,,,82,52
299880,note_on,120,0,1,,,,,,,,,,,,,,,0,,,82,0
299880,note_on,0,0,1,,,,,,,,,,,,,,,0,,,77,52
299880,note_on,0,0,2,,,,,,,,,,,,,,,0,,,58,28
299880,note_on,120,0,2,,,,,,,,,,,,,,,0,,,54,0
300000,set_tempo,240,1,0,,,,,,,,,,,,601564,,,,,,,
300000,note_on,0,0,2,,,,,,,,,,,,,,,0,,,54,33
300000,note_on,120,0,1,,,,,,,,,,,,,,,0,,,77,0
300000,note_on,0,0,1,,,,,,,,,,,,,,,0,,,78,57
300000,note_on,120,0,2,,,,,,,,,,,,,,,0,,,58,0
300120,note_on,120,0,1,,,,,,,,,,,,,,,0,,,78,0
300120,note_on,0,0,1,,,,,,,,,,,,,,,0,,,77,51
300120,note_on,120,0,2,,,,,,,,,,,,,,,0,,,54,0
300120,note_on,0,0,2,,,,,,,,,,,,,,,0,,,58,29
300240,note_on,0,0,1,,,,,,,,,,,,,,,0,,,78,51
300240,note_on,0,0,2,,,,,,,,,,,,,,,0,,,54,29
300240,note_on,120,0,2,,,,,,,,,,,,,,,0,,,58,0
300240,note_on,120,0,1,,,,,,,,,,,,,,,0,,,77,0
300240,set_tempo,240,1,0,,,,,,,,,,,,622278,,,,,,,
300360,note_on,120,0,2,,,,,,,,,,,,,,,0,,,54,0
300360,note_on,0,0,2,,,,,,,,,,,,,,,0,,,58,29
300360,note_on,0,0,1,,,,,,,,,,,,,,,0,,,72,50
300360,note_on,120,0,1,,,,,,,,,,,,,,,0,,,78,0
300480,set_tempo,240,1,0,,,,,,,,,,,,611808,,,,,,,
300480,note_on,0,0,2,,,,,,,,,,,,,,,0,,,54,33
300480,note_on,120,0,2,,,,,,,,,,,,,,,0,,,58,0
300480,note_on,0,0,1,,,,,,,,,,,,,,,0,,,73,55
300480,note_on,120,0,1,,,,,,,,,,,,,,,0,,,72,0
300486,control_change,6,0,2,,,,,,,,,,,,,,,0,64,0,,
300543,control_change,57,0,2,,,,,,,,,,,,,,,0,64,127,,
300600,note_on,57,0,2,,,,,,,,,,,,,,,0,,,54,0
300600,note_on,0,0,2,,,,,,,,,,,,,,,0,,,58,28
300600,note_on,0,0,1,,,,,,,,,,,,,,,0,,,72,51
300600,note_on,120,0,1,,,,,,,,,,,,,,,0,,,73,0
300720,note_on,120,0,1,,,,,,,,,,,,,,,0,,,72,0
300720,note_on,120,0,2,,,,,,,,,,,,,,,0,,,58,0
300720,note_on,0,0,2,,,,,,,,,,,,,,,0,,,54,28
300720,note_on,0,0,1,,,,,,,,,,,,,,,0,,,73,51
300720,set_tempo,240,1,0,,,,,,,,,,,,625978,,,,,,,
300840,note_on,120,0,1,,,,,,,,,,,,,,,0,,,73,0
300840,note_on,0,0,1,,,,,,,,,,,,,,,0,,,69,51
300840,note_on,120,0,2,,,,,,,,,,,,,,,0,,,54,0
300840,note_on,0,0,2,,,,,,,,,,,,,,,0,,,58,27
300960,note_on,120,0,2,,,,,,,,,,,,,,,0,,,58,0
300960,note_on,0,0,2,,,,,,,,,,,,,,,0,,,54,31
300960,note_on,120,0,1,,,,,,,,,,,,,,,0,,,69,0
300960,note_on,0,0,1,,,,,,,,,,,,,,,0,,,70,54
300960,set_tempo,240,1,0,,,,,,,,,,,,633245,,,,,,,
301080,note_on,0,0,2,,,,,,,,,,,,,,,0,,,58,27
301080,note_on,120,0,2,,,,,,,,,,,,,,,0,,,54,0
301080,note_on,0,0,1,,,,,,,,,,,,,,,0,,,69,47
301080,note_on,120,0,1,,,,,,,,,,,,,,,0,,,70,0
301200,note_on,120,0,2,,,,,,,,,,,,,,,0,,,58,0
301200,set_tempo,240,1,0,,,,,,,,,,,,648438,,,,,,,
301200,note_on,0,0,2,,,,,,,,,,,,,,,0,,,54,28
301200,note_on,120,0,1,,,,,,,,,,,,,,,0,,,69,0
301200,note_on,0,0,1,,,,,,,,,,,,,,,0,,,70,49
301320,note_on,120,0,2,,,,,,,,,,,,,,,0,,,54,0
301320,note_on,0,0,2,,,,,,,,,,,,,,,0,,,58,28
301320,note_on,0,0,1,,,,,,,,,,,,,,,0,,,65,47
301320,note_on,120,0,1,,,,,,,,,,,,,,,0,,,70,0
301440,note_on,0,0,1,,,,,,,,,,,,,,,0,,,66,57
301440,note_on,0,0,2,,,,,,,,,,,,,,,0,,,42,33
301440,note_on,120,0,1,,,,,,,,,,,,,,,0,,,65,0
301440,control_change,0,0,2,,,,,,,,,,,,,,,0,64,0,,
301440,note_on,120,0,2,,,,,,,,,,,,,,,0,,,58,0
301440,set_tempo,240,1,0,,,,,,,,,,,,633245,,,,,,,
301468,control_change,28,0,2,,,,,,,,,,,,,,,0,64,127,,
301500,note_on,32,0,2,,,,,,,,,,,,,,,0,,,42,0
301560,note_on,120,0,1,,,,,,,,,,,,,,,0,,,66,0
301560,note_on,60,0,2,,,,,,,,,,,,,,,0,,,58,28
301560,note_on,0,0,1,,,,,,,,,,,,,,,0,,,81,53
301680,note_on,120,0,1,,,,,,,,,,,,,,,0,,,81,0
301680,note_on,120,0,2,,,,,,,,,,,,,,,0,,,58,0
301680,note_on,0,0,2,,,,,,,,,,,,,,,0,,,54,28
301680,set_tempo,240,1,0,,,,,,,,,,,,622278,,,,,,,
301680,note_on,0,0,1,,,,,,,,,,,,,,,0,,,82,52
301800,note_on,120,0,2,,,,,,,,,,,,,,,0,,,54,0
301800,note_on,0,0,2,,,,,,,,,,,,,,,0,,,58,28
301800,note_on,0,0,1,,,,,,,,,,,,,,,0,,,77,52
301800,note_on,120,0,1,,,,,,,,,,,,,,,0,,,82,0
301920,note_on,120,0,2,,,,,,,,,,,,,,,0,,,58,0
301920,note_on,0,0,2,,,,,,,,,,,,,,,0,,,54,33
301920,note_on,0,0,1,,,,,,,,,,,,,,,0,,,78,57
301920,note_on,120,0,1,,,,,,,,,,,,,,,0,,,77,0
301920,set_tempo,240,1,0,,,,,,,,,,,,608334,,,,,,,
302040,note_on,0,0,2,,,,,,,,,,,,,,,0,,,58,29
302040,note_on,120,0,2,,,,,,,,,,,,,,,0,,,54,0
302040,note_on,0,0,1,,,,,,,,,,,,,,,0,,,77,51
302040,note_on,120,0,1,,,,,,,,,,,,,,,0,,,78,0
302160,note_on,120,0,2,,,,,,,,,,,,,,,0,,,58,0
302160,note_on,0,0,1,,,,,,,,,,,,,,,0,,,78,51
302160,note_on,120,0,1,,,,,,,,,,,,,,,0,,,77,0
302160,note_on,0,0,2,,,,,,,,,,,,,,,0,,,54,29
302160,set_tempo,240,1,0,,,,,,,,,,,,622278,,,,,,,
302280,note_on,0,0,2,,,,,,,,,,,,,,,0,,,58,29
302280,note_on,0,0,1,,,,,,,,,,,,,,,0,,,72,50
302280,note_on,120,0,1,,,,,,,,,,,,,,,0,,,78,0
302280,note_on,120,0,2,,,,,,,,,,,,,,,0,,,54,0
302400,note_on,120,0,2,,,,,,,,,,,,,,,0,,,58,0
302400,note_on,0,0,2,,,,,,,,,,,,,,,0,,,54,33
302400,note_on,0,0,1,,,,,,,,,,,,,,,0,,,73,55
302400,note_on,120,0,1,,,,,,,,,,,,,,,0,,,72,0
302400,set_tempo,240,1,0,,,,,,,,,,,,604900,,,,,,,
302406,control_change,6,0,2,,,,,,,,,,,,,,,0,64,0,,
302463,control_change,57,0,2,,,,,,,,,,,,,,,0,64,127,,
302520,note_on,0,0,1,,,,,,,,,,,,,,,0,,,72,51
302520,note_on,120,0,1,,,,,,,,,,,,,,,0,,,73,0
302520,note_on,0,0,2,,,,,,,,,,,,,,,0,,,58,28
302520,note_on,57,0,2,,,,,,,,,,,,,,,0,,,54,0
302640,note_on,0,0,1,,,,,,,,,,,,,,,0,,,73,51
302640,note_on,120,0,1,,,,,,,,,,,,,,,0,,,72,0
302640,set_tempo,240,1,0,,,,,,,,,,,,629591,,,,,,,
302640,note_on,120,0,2,,,,,,,,,,,,,,,0,,,58,0
302640,note_on,0,0,2,,,,,,,,,,,,,,,0,,,54,28
302760,note_on,0,0,1,,,,,,,,,,,,,,,0,,,69,51
302760,note_on,120,0,1,,,,,,,,,,,,,,,0,,,73,0
302760,note_on,0,0,2,,,,,,,,,,,,,,,0,,,58,27
302760,note_on,120,0,2,,,,,,,,,,,,,,,0,,,54,0
302880,note_on,0,0,1,,,,,,,,,,,,,,,0,,,70,54
302880,note_on,0,0,2,,,,,,,,,,,,,,,0,,,54,31
302880,set_tempo,240,1,0,,,,,,,,,,,,611808,,,,,,,
302880,note_on,120,0,1,,,,,,,,,,,,,,,0,,,69,0
302880,note_on,120,0,2,,,,,,,,,,,,,,,0,,,58,0
303000,note_on,0,0,2,,,,,,,,,,,,,,,0,,,58,27
303000,note_on,120,0,2,,,,,,,,,,,,,,,0,,,54,0
303000,note_on,0,0,1,,,,,,,,,,,,,,,0,,,69,47
303000,note_on,120,0,1,,,,,,,,,,,,,,,0,,,70,0
303120,note_on,120,0,1,,,,,,,,,,,,,,,0,,,69,0
303120,note_on,0,0,1,,,,,,,,,,,,,,,0,,,70,49
303120,note_on,120,0,2,,,,,,,,,,,,,,,0,,,58,0
303120,note_on,0,0,2,,,,,,,,,,,,,,,0,,,54,28
303120,set_tempo,240,1,0,,,,,,,,,,,,633245,,,,,,,
303240,note_on,120,0,2,,,,,,,,,,,,,,,0,,,54,0
303240,note_on,120,0,1,,,,,,,,,,,,,,,0,,,70,0
303240,note_on,0,0,1,,,,,,,,,,,,,,,0,,,65,47
303240,note_on,0,0,2,,,,,,,,,,,,,,,0,,,58,28
303360,note_on,0,0,1,,,,,,,,,,,,,,,0,,,66,53
303360,note_on,0,0,2,,,,,,,,,,,,,,,0,,,54,33
303360,note_on,120,0,2,,,,,,,,,,,,,,,0,,,58,0
303360,control_change,0,0,2,,,,,,,,,,,,,,,0,64,0,,
303360,note_on,120,0,1,,,,,,,,,,,,,,,0,,,65,0
303360,set_tempo,240,1,0,,,,,,,,,,,,629591,,,,,,,
303423,control_change,63,0,2,,,,,,,,,,,,,,,0,64,127,,
303480,note_on,0,0,2,,,,,,,,,,,,,,,0,,,58,28
303480,note_on,57,0,2,,,,,,,,,,,,,,,0,,,54,0
303480,note_on,120,0,1,,,,,,,,,,,,,,,0,,,66,0
303480,note_on,0,0,1,,,,,,,,,,,,,,,0,,,65,49
303600,note_on,0,0,2,,,,,,,,,,,,,,,0,,,54,28
303600,note_on,120,0,2,,,,,,,,,,,,,,,0,,,58,0
303600,note_on,120,0,1,,,,,,,,,,,,,,,0,,,65,0
303600,set_tempo,240,1,0,,,,,,,,,,,,622278,,,,,,,
303600,note_on,0,0,1,,,,,,,,,,,,,,,0,,,66,49
303720,note_on,120,0,1,,,,,,,,,,,,,,,0,,,66,0
303720,note_on,0,0,1,,,,,,,,,,,,,,,0,,,68,49
303720,note_on,0,0,2,,,,,,,,,,,,,,,0,,,58,28
303720,note_on,120,0,2,,,,,,,,,,,,,,,0,,,54,0
303840,note_on,120,0,1,,,,,,,,,,,,,,,0,,,68,0
303840,note_on,0,0,1,,,,,,,,,,,,,,,0,,,70,55
303840,note_on,120,0,2,,,,,,,,,,,,,,,0,,,58,0
303840,note_on,0,0,2,,,,,,,,,,,,,,,0,,,54,33
303960,note_on,0,0,2,,,,,,,,,,,,,,,0,,,58,29
303960,note_on,120,0,2,,,,,,,,,,,,,,,0,,,54,0
303960,note_on,120,0,1,,,,,,,,,,,,,,,0,,,70,0
303960,note_on,0,0,1,,,,,,,,,,,,,,,0,,,71,49
304080,note_on,120,0,2,,,,,,,,,,,,,,,0,,,58,0
304080,set_tempo,480,1,0,,,,,,,,,,,,636740,,,,,,,
304080,note_on,0,0,1,,,,,,,,,,,,,,,0,,,70,49
304080,note_on,120,0,1,,,,,,,,,,,,,,,0,,,71,0
304080,note_on,0,0,2,,,,,,,,,,,,,,,0,,,54,29
304200,note_on,120,0,1,,,,,,,,,,,,,,,0,,,70,0
304200,note_on,0,0,1,,,,,,,,,,,,,,,0,,,68,49
304200,note_on,120,0,2,,,,,,,,,,,,,,,0,,,54,0
304200,note_on,0,0,2,,,,,,,,,,,,,,,0,,,58,30
304320,note_on,0,0,2,,,,,,,,,,,,,,,0,,,54,34
304320,note_on,0,0,1,,,,,,,,,,,,,,,0,,,66,55
304320,note_on,120,0,1,,,,,,,,,,,,,,,0,,,68,0
304320,set_tempo,240,1,0,,,,,,,,,,,,641231,,,,,,,
304320,note_on,120,0,2,,,,,,,,,,,,,,,0,,,58,0
304326,control_change,6,0,2,,,,,,,,,,,,,,,0,64,0,,
304383,control_change,57,0,2,,,,,,,,,,,,,,,0,64,127,,
304440,note_on,0,0,2,,,,,,,,,,,,,,,0,,,58,29
304440,note_on,57,0,2,,,,,,,,,,,,,,,0,,,54,0
304440,note_on,0,0,1,,,,,,,,,,,,,,,0,,,68,50
304440,note_on,120,0,1,,,,,,,,,,,,,,,0,,,66,0
304560,note_on,120,0,1,,,,,,,,,,,,,,,0,,,68,0
304560,note_on,0,0,1,,,,,,,,,,,,,,,0,,,70,50
304560,set_tempo,240,1,0,,,,,,,,,,,,654379,,,,,,,
304560,note_on,0,0,2,,,,,,,,,,,,,,,0,,,54,29
304560,note_on,120,0,2,,,,,,,,,,,,,,,0,,,58,0
304680,note_on,120,0,1,,,,,,,,,,,,,,,0,,,70,0
304680,note_on,0,0,1,,,,,,,,,,,,,,,0,,,68,50
304680,note_on,0,0,2,,,,,,,,,,,,,,,0,,,58,28
304680,note_on,120,0,2,,,,,,,,,,,,,,,0,,,54,0
304800,note_on,120,0,2,,,,,,,,,,,,,,,0,,,58,0
304800,note_on,0,0,1,,,,,,,,,,,,,,,0,,,66,55
304800,note_on,0,0,2,,,,,,,,,,,,,,,0,,,54,33
304800,set_tempo,240,1,0,,,,,,,,,,,,645578,,,,,,,
304800,note_on,120,0,1,,,,,,,,,,,,,,,0,,,68,0
304920,note_on,120,0,1,,,,,,,,,,,,,,,0,,,66,0
304920,note_on,0,0,1,,,,,,,,,,,,,,,0,,,68,50
304920,note_on,0,0,2,,,,,,,,,,,,,,,0,,,58,29
304920,note_on,120,0,2,,,,,,,,,,,,,,,0,,,54,0
305040,set_tempo,240,1,0,,,,,,,,,,,,659123,,,,,,,
305040,note_on,0,0,1,,,,,,,,,,,,,,,0,,,66,52
305040,note_on,120,0,2,,,,,,,,,,,,,,,0,,,58,0
305040,note_on,0,0,2,,,,,,,,,,,,,,,0,,,54,30
305040,note_on,120,0,1,,,,,,,,,,,,,,,0,,,68,0
305160,note_on,120,0,2,,,,,,,,,,,,,,,0,,,54,0
305160,note_on,0,0,1,,,,,,,,,,,,,,,0,,,65,51
305160,note_on,120,0,1,,,,,,,,,,,,,,,0,,,66,0
305160,note_on,0,0,2,,,,,,,,,,,,,,,0,,,58,30
305280,note_on,120,0,2,,,,,,,,,,,,,,,0,,,58,0
305280,control_change,0,0,2,,,,,,,,,,,,,,,0,64,0,,
305280,note_on,0,0,2,,,,,,,,,,,,,,,0,,,42,34
305280,set_tempo,240,1,0,,,,,,,,,,,,694525,,,,,,,
305280,note_on,0,0,1,,,,,,,,,,,,,,,0,,,64,57
305280,note_on,120,0,1,,,,,,,,,,,,,,,0,,,65,0
305326,control_change,46,0,2,,,,,,,,,,,,,,,0,64,127,,
305440,note_on,160,0,1,,,,,,,,,,,,,,,0,,,64,0
305440,note_on,0,0,2,,,,,,,,,,,,,,,0,,,54,31
305440,note_on,114,0,2,,,,,,,,,,,,,,,0,,,42,0
305440,note_on,0,0,1,,,,,,,,,,,,,,,0,,,70,52
305600,note_on,160,0,1,,,,,,,,,,,,,,,0,,,70,0
305600,note_on,0,0,1,,,,,,,,,,,,,,,0,,,58,45
305600,note_on,0,0,2,,,,,,,,,,,,,,,0,,,42,25
305600,note_on,0,0,2,,,,,,,,,,,,,,,0,,,54,31
305600,note_on,160,0,2,,,,,,,,,,,,,,,0,,,54,0
305600,note_on,0,0,1,,,,,,,,,,,,,,,0,,,64,45
305600,note_on,0,0,1,,,,,,,,,,,,,,,0,,,70,54
305760,note_on,0,0,1,,,,,,,,,,,,,,,0,,,58,50
305760,note_on,0,0,1,,,,,,,,,,,,,,,0,,,58,0
305760,note_on,0,0,1,,,,,,,,,,,,,,,0,,,64,0
305760,note_on,160,0,1,,,,,,,,,,,,,,,0,,,70,0
305760,note_on,0,0,2,,,,,,,,,,,,,,,0,,,54,35
305760,note_on,160,0,2,,,,,,,,,,,,,,,0,,,42,0
305760,note_on,0,0,2,,,,,,,,,,,,,,,0,,,54,0
305760,note_on,0,0,2,,,,,,,,,,,,,,,0,,,42,29
305760,note_on,0,0,1,,,,,,,,,,,,,,,0,,,70,59
305760,note_on,0,0,1,,,,,,,,,,,,,,,0,,,64,50
305920,note_on,0,0,1,,,,,,,,,,,,,,,0,,,58,47
305920,note_on,0,0,1,,,,,,,,,,,,,,,0,,,70,56
305920,note_on,0,0,1,,,,,,,,,,,,,,,0,,,64,47
305920,note_on,160,0,2,,,,,,,,,,,,,,,0,,,54,0
305920,note_on,0,0,1,,,,,,,,,,,,,,,0,,,58,0
305920,note_on,0,0,1,,,,,,,,,,,,,,,0,,,64,0
305920,note_on,0,0,2,,,,,,,,,,,,,,,0,,,54,31
305920,note_on,0,0,2,,,,,,,,,,,,,,,0,,,42,25
305920,note_on,160,0,1,,,,,,,,,,,,,,,0,,,70,0
305920,note_on,0,0,2,,,,,,,,,,,,,,,0,,,42,0
306080,note_on,0,0,1,,,,,,,,,,,,,,,0,,,58,48
306080,note_on,0,0,1,,,,,,,,,,,,,,,0,,,64,48
306080,note_on,160,0,1,,,,,,,,,,,,,,,0,,,70,0
306080,note_on,0,0,1,,,,,,,,,,,,,,,0,,,58,0
306080,note_on,0,0,2,,,,,,,,,,,,,,,0,,,42,0
306080,note_on,0,0,2,,,,,,,,,,,,,,,0,,,42,27
306080,note_on,0,0,2,,,,,,,,,,,,,,,0,,,54,33
306080,note_on,160,0,2,,,,,,,,,,,,,,,0,,,54,0
306080,note_on,0,0,1,,,,,,,,,,,,,,,0,,,70,57
306080,note_on,0,0,1,,,,,,,,,,,,,,,0,,,64,0
306240,note_on,0,0,2,,,,,,,,,,,,,,,0,,,42,0
306240,set_tempo,960,1,0,,,,,,,,,,,,694525,,,,,,,
306240,note_on,0,0,1,,,,,,,,,,,,,,,0,,,70,62
306240,note_on,0,0,1,,,,,,,,,,,,,,,0,,,64,52
306240,note_on,0,0,1,,,,,,,,,,,,,,,0,,,58,52
306240,note_on,0,0,1,,,,,,,,,,,,,,,0,,,58,0
306240,note_on,0,0,1,,,,,,,,,,,,,,,0,,,64,0
306240,note_on,160,0,1,,,,,,,,,,,,,,,0,,,70,0
306240,note_on,0,0,2,,,,,,,,,,,,,,,0,,,54,37
306240,note_on,160,0,2,,,,,,,,,,,,,,,0,,,54,0
306240,note_on,0,0,2,,,,,,,,,,,,,,,0,,,42,31
306280,set_tempo,40,1,0,,,,,,,,,,,,694847,,,,,,,
306286,control_change,46,0,2,,,,,,,,,,,,,,,0,64,0,,
306343,control_change,57,0,2,,,,,,,,,,,,,,,0,64,127,,
306400,note_on,160,0,1,,,,,,,,,,,,,,,0,,,70,0
306400,note_on,0,0,1,,,,,,,,,,,,,,,0,,,64,0
306400,note_on,0,0,2,,,,,,,,,,,,,,,0,,,42,29
306400,note_on,0,0,1,,,,,,,,,,,,,,,0,,,58,47
306400,note_on,0,0,1,,,,,,,,,,,,,,,0,,,64,47
306400,note_on,0,0,1,,,,,,,,,,,,,,,0,,,70,56
306400,note_on,0,0,2,,,,,,,,,,,,,,,0,,,54,35
306400,note_on,57,0,2,,,,,,,,,,,,,,,0,,,54,0
306400,note_on,0,0,2,,,,,,,,,,,,,,,0,,,42,0
306400,note_on,0,0,1,,,,,,,,,,,,,,,0,,,58,0
306440,set_tempo,160,1,0,,,,,,,,,,,,690290,,,,,,,
306560,note_on,160,0,1,,,,,,,,,,,,,,,0,,,70,0
306560,note_on,0,0,1,,,,,,,,,,,,,,,0,,,58,0
306560,note_on,0,0,1,,,,,,,,,,,,,,,0,,,58,47
306560,note_on,0,0,1,,,,,,,,,,,,,,,0,,,64,47
306560,note_on,0,0,1,,,,,,,,,,,,,,,0,,,70,57
306560,note_on,0,0,1,,,,,,,,,,,,,,,0,,,64,0
306560,note_on,160,0,2,,,,,,,,,,,,,,,0,,,54,0
306560,note_on,0,0,2,,,,,,,,,,,,,,,0,,,42,29
306560,note_on,0,0,2,,,,,,,,,,,,,,,0,,,42,0
306560,note_on,0,0,2,,,,,,,,,,,,,,,0,,,54,35
306600,set_tempo,160,1,0,,,,,,,,,,,,685793,,,,,,,
306720,note_on,0,0,1,,,,,,,,,,,,,,,0,,,64,55
306720,note_on,0,0,1,,,,,,,,,,,,,,,0,,,70,65
306720,note_on,0,0,2,,,,,,,,,,,,,,,0,,,54,38
306720,note_on,0,0,2,,,,,,,,,,,,,,,0,,,42,32
306720,note_on,0,0,2,,,,,,,,,,,,,,,0,,,49,32
306720,note_on,0,0,2,,,,,,,,,,,,,,,0,,,42,0
306720,note_on,160,0,2,,,,,,,,,,,,,,,0,,,54,0
306720,note_on,160,0,1,,,,,,,,,,,,,,,0,,,70,0
306720,set_tempo,120,1,0,,,,,,,,,,,,681431,,,,,,,
306720,note_on,0,0,1,,,,,,,,,,,,,,,0,,,64,0
306720,note_on,0,0,1,,,,,,,,,,,,,,,0,,,58,55
306720,note_on,0,0,1,,,,,,,,,,,,,,,0,,,58,0
306880,note_on,0,0,1,,,,,,,,,,,,,,,0,,,64,0
306880,note_on,0,0,1,,,,,,,,,,,,,,,0,,,58,0
306880,note_on,0,0,1,,,,,,,,,,,,,,,0,,,58,51
306880,note_on,160,0,1,,,,,,,,,,,,,,,0,,,70,0
306880,note_on,0,0,1,,,,,,,,,,,,,,,0,,,64,51
306880,note_on,0,0,1,,,,,,,,,,,,,,,0,,,70,61
306880,note_on,0,0,2,,,,,,,,,,,,,,,0,,,54,35
306880,note_on,160,0,2,,,,,,,,,,,,,,,0,,,54,0
306880,note_on,0,0,2,,,,,,,,,,,,,,,0,,,42,28
306880,note_on,0,0,2,,,,,,,,,,,,,,,0,,,49,32
306880,note_on,0,0,2,,,,,,,,,,,,,,,0,,,49,0
306880,note_on,0,0,2,,,,,,,,,,,,,,,0,,,42,0
306880,set_tempo,160,1,0,,,,,,,,,,,,677048,,,,,,,
307040,note_on,0,0,1,,,,,,,,,,,,,,,0,,,58,0
307040,note_on,0,0,1,,,,,,,,,,,,,,,0,,,64,0
307040,note_on,160,0,1,,,,,,,,,,,,,,,0,,,70,0
307040,note_on,0,0,1,,,,,,,,,,,,,,,0,,,70,62
307040,set_tempo,160,1,0,,,,,,,,,,,,672646,,,,,,,
307040,note_on,160,0,2,,,,,,,,,,,,,,,0,,,54,0
307040,note_on,0,0,2,,,,,,,,,,,,,,,0,,,54,35
307040,note_on,0,0,2,,,,,,,,,,,,,,,0,,,42,29
307040,note_on,0,0,2,,,,,,,,,,,,,,,0,,,49,33
307040,note_on,0,0,2,,,,,,,,,,,,,,,0,,,49,0
307040,note_on,0,0,2,,,,,,,,,,,,,,,0,,,42,0
307040,note_on,0,0,1,,,,,,,,,,,,,,,0,,,64,52
307040,note_on,0,0,1,,,,,,,,,,,,,,,0,,,58,52
307160,set_tempo,120,1,0,,,,,,,,,,,,668449,,,,,,,
307200,note_on,0,0,1,,,,,,,,,,,,,,,0,,,70,67
307200,note_on,0,0,1,,,,,,,,,,,,,,,0,,,58,0
307200,note_on,0,0,1,,,,,,,,,,,,,,,0,,,58,57
307200,note_on,0,0,2,,,,,,,,,,,,,,,0,,,42,0
307200,note_on,0,0,1,,,,,,,,,,,,,,,0,,,64,0
307200,note_on,160,0,1,,,,,,,,,,,,,,,0,,,70,0
307200,set_tempo,40,1,0,,,,,,,,,,,,668449,,,,,,,
307200,note_on,160,0,2,,,,,,,,,,,,,,,0,,,54,0
307200,note_on,0,0,2,,,,,,,,,,,,,,,0,,,49,0
307200,note_on,0,0,2,,,,,,,,,,,,,,,0,,,49,33
307200,note_on,0,0,2,,,,,,,,,,,,,,,0,,,42,33
307200,note_on,0,0,2,,,,,,,,,,,,,,,0,,,54,40
307200,control_change,0,0,2,,,,,,,,,,,,,,,0,64,0,,
307200,note_on,0,0,1,,,,,,,,,,,,,,,0,,,64,57
307263,control_change,63,0,2,,,,,,,,,,,,,,,0,64,127,,
307360,note_on,0,0,2,,,,,,,,,,,,,,,0,,,54,36
307360,note_on,97,0,2,,,,,,,,,,,,,,,0,,,54,0
307360,note_on,0,0,2,,,,,,,,,,,,,,,0,,,42,0
307360,note_on,0,0,1,,,,,,,,,,,,,,,0,,,70,64
307360,note_on,0,0,1,,,,,,,,,,,,,,,0,,,64,53
307360,note_on,0,0,1,,,,,,,,,,,,,,,0,,,58,53
307360,note_on,0,0,1,,,,,,,,,,,,,,,0,,,58,0
307360,note_on,0,0,1,,,,,,,,,,,,,,,0,,,64,0
307360,note_on,160,0,1,,,,,,,,,,,,,,,0,,,70,0
307360,note_on,0,0,2,,,,,,,,,,,,,,,0,,,49,0
307360,note_on,0,0,2,,,,,,,,,,,,,,,0,,,49,34
307360,note_on,0,0,2,,,,,,,,,,,,,,,0,,,42,30
307520,note_on,0,0,2,,,,,,,,,,,,,,,0,,,42,30
307520,note_on,0,0,1,,,,,,,,,,,,,,,0,,,70,65
307520,note_on,0,0,1,,,,,,,,,,,,,,,0,,,64,55
307520,note_on,160,0,1,,,,,,,,,,,,,,,0,,,70,0
307520,note_on,0,0,1,,,,,,,,,,,,,,,0,,,64,0
307520,note_on,0,0,1,,,,,,,,,,,,,,,0,,,58,0
307520,note_on,0,0,1,,,,,,,,,,,,,,,0,,,58,55
307520,set_tempo,320,1,0,,,,,,,,,,,,672646,,,,,,,
307520,note_on,160,0,2,,,,,,,,,,,,,,,0,,,54,0
307520,note_on,0,0,2,,,,,,,,,,,,,,,0,,,42,0
307520,note_on,0,0,2,,,,,,,,,,,,,,,0,,,49,0
307520,note_on,0,0,2,,,,,,,,,,,,,,,0,,,49,35
307520,note_on,0,0,2,,,,,,,,,,,,,,,0,,,54,37
307680,note_on,0,0,1,,,,,,,,,,,,,,,0,,,58,59
307680,note_on,0,0,2,,,,,,,,,,,,,,,0,,,49,0
307680,note_on,0,0,2,,,,,,,,,,,,,,,0,,,42,0
307680,note_on,0,0,1,,,,,,,,,,,,,,,0,,,64,59
307680,note_on,0,0,2,,,,,,,,,,,,,,,0,,,49,36
307680,note_on,0,0,2,,,,,,,,,,,,,,,0,,,42,36
307680,note_on,0,0,2,,,,,,,,,,,,,,,0,,,54,44
307680,note_on,160,0,1,,,,,,,,,,,,,,,0,,,70,0
307680,note_on,0,0,1,,,,,,,,,,,,,,,0,,,70,71
307680,note_on,0,0,1,,,,,,,,,,,,,,,0,,,58,0
307680,note_on,160,0,2,,,,,,,,,,,,,,,0,,,54,0
307680,note_on,0,0,1,,,,,,,,,,,,,,,0,,,64,0
307840,note_on,160,0,2,,,,,,,,,,,,,,,0,,,54,0
307840,note_on,0,0,1,,,,,,,,,,,,,,,0,,,64,0
307840,note_on,0,0,1,,,,,,,,,,,,,,,0,,,58,0
307840,note_on,0,0,1,,,,,,,,,,,,,,,0,,,58,56
307840,note_on,0,0,1,,,,,,,,,,,,,,,0,,,64,56
307840,note_on,0,0,1,,,,,,,,,,,,,,,0,,,70,67
307840,note_on,0,0,2,,,,,,,,,,,,,,,0,,,54,40
307840,note_on,0,0,2,,,,,,,,,,,,,,,0,,,42,33
307840,note_on,0,0,2,,,,,,,,,,,,,,,0,,,49,37
307840,note_on,0,0,2,,,,,,,,,,,,,,,0,,,49,0
307840,note_on,0,0,2,,,,,,,,,,,,,,,0,,,42,0
307840,set_tempo,320,1,0,,,,,,,,,,,,677048,,,,,,,
307840,note_on,160,0,1,,,,,,,,,,,,,,,0,,,70,0
308000,note_on,160,0,1,,,,,,,,,,,,,,,0,,,70,0
308000,note_on,0,0,1,,,,,,,,,,,,,,,0,,,64,0
308000,note_on,0,0,2,,,,,,,,,,,,,,,0,,,54,42
308000,note_on,0,0,2,,,,,,,,,,,,,,,0,,,42,0
308000,note_on,0,0,1,,,,,,,,,,,,,,,0,,,70,69
308000,note_on,0,0,2,,,,,,,,,,,,,,,0,,,42,34
308000,note_on,0,0,2,,,,,,,,,,,,,,,0,,,49,39
308000,note_on,0,0,2,,,,,,,,,,,,,,,0,,,49,0
308000,note_on,0,0,1,,,,,,,,,,,,,,,0,,,58,0
308000,note_on,160,0,2,,,,,,,,,,,,,,,0,,,54,0
308000,note_on,0,0,1,,,,,,,,,,,,,,,0,,,64,57
308000,note_on,0,0,1,,,,,,,,,,,,,,,0,,,58,57
308120,set_tempo,280,1,0,,,,,,,,,,,,681431,,,,,,,
308160,note_on,160,0,1,,,,,,,,,,,,,,,0,,,70,0
308160,note_on,0,0,1,,,,,,,,,,,,,,,0,,,64,0
308160,note_on,0,0,1,,,,,,,,,,,,,,,0,,,58,0
308160,note_on,0,0,1,,,,,,,,,,,,,,,0,,,58,62
308160,set_tempo,40,1,0,,,,,,,,,,,,681431,,,,,,,
308160,note_on,0,0,2,,,,,,,,,,,,,,,0,,,42,40
308160,note_on,0,0,2,,,,,,,,,,,,,,,0,,,49,40
308160,note_on,0,0,2,,,,,,,,,,,,,,,0,,,49,0
308160,note_on,0,0,2,,,,,,,,,,,,,,,0,,,42,0
308160,note_on,160,0,2,,,,,,,,,,,,,,,0,,,54,0
308160,note_on,0,0,2,,,,,,,,,,,,,,,0,,,54,48
308160,note_on,0,0,1,,,,,,,,,,,,,,,0,,,70,74
308160,note_on,0,0,1,,,,,,,,,,,,,,,0,,,64,62
308240,set_tempo,80,1,0,,,,,,,,,,,,685793,,,,,,,
308320,note_on,0,0,2,,,,,,,,,,,,,,,0,,,42,37
308320,note_on,0,0,1,,,,,,,,,,,,,,,0,,,58,59
308320,note_on,0,0,1,,,,,,,,,,,,,,,0,,,58,0
308320,note_on,0,0,1,,,,,,,,,,,,,,,0,,,64,0
308320,note_on,160,0,1,,,,,,,,,,,,,,,0,,,70,0
308320,note_on,0,0,2,,,,,,,,,,,,,,,0,,,54,44
308320,note_on,0,0,1,,,,,,,,,,,,,,,0,,,64,59
308320,note_on,0,0,1,,,,,,,,,,,,,,,0,,,70,71
308320,note_on,0,0,2,,,,,,,,,,,,,,,0,,,49,0
308320,note_on,0,0,2,,,,,,,,,,,,,,,0,,,42,0
308320,note_on,160,0,2,,,,,,,,,,,,,,,0,,,54,0
308320,set_tempo,80,1,0,,,,,,,,,,,,690290,,,,,,,
308320,note_on,0,0,2,,,,,,,,,,,,,,,0,,,49,41
308360,set_tempo,40,1,0,,,,,,,,,,,,694847,,,,,,,
308440,set_tempo,80,1,0,,,,,,,,,,,,699464,,,,,,,
308480,note_on,0,0,2,,,,,,,,,,,,,,,0,,,42,37
308480,note_on,0,0,2,,,,,,,,,,,,,,,0,,,49,43
308480,note_on,0,0,1,,,,,,,,,,,,,,,0,,,70,72
308480,note_on,0,0,1,,,,,,,,,,,,,,,0,,,64,60
308480,note_on,0,0,1,,,,,,,,,,,,,,,0,,,64,0
308480,note_on,0,0,1,,,,,,,,,,,,,,,0,,,58,0
308480,note_on,0,0,1,,,,,,,,,,,,,,,0,,,58,60
308480,note_on,0,0,2,,,,,,,,,,,,,,,0,,,54,46
308480,note_on,0,0,2,,,,,,,,,,,,,,,0,,,49,0
308480,note_on,0,0,2,,,,,,,,,,,,,,,0,,,42,0
308480,note_on,160,0,2,,,,,,,,,,,,,,,0,,,54,0
308480,note_on,160,0,1,,,,,,,,,,,,,,,0,,,70,0
308480,set_tempo,40,1,0,,,,,,,,,,,,704060,,,,,,,
308560,set_tempo,80,1,0,,,,,,,,,,,,708801,,,,,,,
308600,set_tempo,40,1,0,,,,,,,,,,,,713606,,,,,,,
308640,note_on,160,0,2,,,,,,,,,,,,,,,0,,,54,0
308640,note_on,0,0,2,,,,,,,,,,,,,,,0,,,50,48
308640,note_on,0,0,2,,,,,,,,,,,,,,,0,,,41,48
308640,note_on,0,0,2,,,,,,,,,,,,,,,0,,,53,57
308640,note_on,0,0,2,,,,,,,,,,,,,,,0,,,49,0
308640,note_on,0,0,2,,,,,,,,,,,,,,,0,,,42,0
308640,note_on,0,0,1,,,,,,,,,,,,,,,0,,,70,85
308640,set_tempo,40,1,0,,,,,,,,,,,,733407,,,,,,,
308640,note_on,160,0,1,,,,,,,,,,,,,,,0,,,70,0
308640,note_on,0,0,1,,,,,,,,,,,,,,,0,,,64,0
308640,note_on,0,0,1,,,,,,,,,,,,,,,0,,,58,0
308640,note_on,0,0,1,,,,,,,,,,,,,,,0,,,65,72
308640,note_on,0,0,1,,,,,,,,,,,,,,,0,,,58,72
308657,control_change,17,0,2,,,,,,,,,,,,,,,0,64,0,,
308703,control_change,46,0,2,,,,,,,,,,,,,,,0,64,127,,
308800,note_on,97,0,2,,,,,,,,,,,,,,,0,,,50,0
308800,note_on,160,0,1,,,,,,,,,,,,,,,0,,,70,0
308800,note_on,0,0,1,,,,,,,,,,,,,,,0,,,70,80
308800,note_on,0,0,1,,,,,,,,,,,,,,,0,,,65,0
308800,note_on,0,0,1,,,,,,,,,,,,,,,0,,,65,67
308800,note_on,0,0,1,,,,,,,,,,,,,,,0,,,58,67
308800,note_on,0,0,2,,,,,,,,,,,,,,,0,,,41,0
308800,note_on,0,0,2,,,,,,,,,,,,,,,0,,,50,48
308800,note_on,0,0,2,,,,,,,,,,,,,,,0,,,53,52
308800,note_on,0,0,1,,,,,,,,,,,,,,,0,,,58,0
308800,note_on,0,0,2,,,,,,,,,,,,,,,0,,,53,0
308800,note_on,0,0,2,,,,,,,,,,,,,,,0,,,41,42
308960,note_on,160,0,2,,,,,,,,,,,,,,,0,,,50,0
308960,note_on,0,0,1,,,,,,,,,,,,,,,0,,,70,80
308960,note_on,0,0,1,,,,,,,,,,,,,,,0,,,58,67
308960,note_on,0,0,1,,,,,,,,,,,,,,,0,,,65,67
308960,note_on,0,0,1,,,,,,,,,,,,,,,0,,,65,0
308960,note_on,160,0,1,,,,,,,,,,,,,,,0,,,70,0
308960,note_on,0,0,1,,,,,,,,,,,,,,,0,,,58,0
308960,note_on,0,0,2,,,,,,,,,,,,,,,0,,,41,42
308960,note_on,0,0,2,,,,,,,,,,,,,,,0,,,53,52
308960,note_on,0,0,2,,,,,,,,,,,,,,,0,,,53,0
308960,note_on,0,0,2,,,,,,,,,,,,,,,0,,,41,0
308960,note_on,0,0,2,,,,,,,,,,,,,,,0,,,50,48
309120,note_on,0,0,1,,,,,,,,,,,,,,,0,,,70,90
309120,control_change,0,0,2,,,,,,,,,,,,,,,0,64,0,,
309120,note_on,160,0,2,,,,,,,,,,,,,,,0,,,50,0
309120,note_on,0,0,2,,,,,,,,,,,,,,,0,,,41,0
309120,note_on,0,0,1,,,,,,,,,,,,,,,0,,,65,77
309120,note_on,0,0,1,,,,,,,,,,,,,,,0,,,58,63
309120,note_on,0,0,1,,,,,,,,,,,,,,,0,,,65,0
309120,note_on,0,0,1,,,,,,,,,,,,,,,0,,,58,0
309120,note_on,160,0,1,,,,,,,,,,,,,,,0,,,70,0
309120,note_on,0,0,2,,,,,,,,,,,,,,,0,,,53,0
309120,note_on,0,0,2,,,,,,,,,,,,,,,0,,,50,63
309120,note_on,0,0,2,,,,,,,,,,,,,,,0,,,41,63
309120,control_change,0,0,2,,,,,,,,,,,,,,,0,64,0,,
309120,set_tempo,480,1,0,,,,,,,,,,,,729483,,,,,,,
309205,control_change,85,0,2,,,,,,,,,,,,,,,0,64,127,,
309280,note_on,0,0,2,,,,,,,,,,,,,,,0,,,53,58
309280,note_on,75,0,2,,,,,,,,,,,,,,,0,,,50,0
309400,set_tempo,280,1,0,,,,,,,,,,,,750657,,,,,,,
309440,note_on,0,0,2,,,,,,,,,,,,,,,0,,,53,58
309440,note_on,160,0,2,,,,,,,,,,,,,,,0,,,53,0
309520,note_on,80,0,2,,,,,,,,,,,,,,,0,,,53,0
309600,note_on,0,0,1,,,,,,,,,,,,,,,0,,,65,72
309600,control_change,0,0,2,,,,,,,,,,,,,,,0,64,0,,
309600,note_on,80,0,2,,,,,,,,,,,,,,,0,,,41,0
309600,note_on,0,0,1,,,,,,,,,,,,,,,0,,,69,85
309600,note_on,0,0,1,,,,,,,,,,,,,,,0,,,57,60
309600,note_on,0,0,1,,,,,,,,,,,,,,,0,,,58,0
309600,note_on,0,0,1,,,,,,,,,,,,,,,0,,,65,0
309600,note_on,480,0,1,,,,,,,,,,,,,,,0,,,70,0
309600,note_on,0,0,2,,,,,,,,,,,,,,,0,,,48,62
309600,note_on,0,0,2,,,,,,,,,,,,,,,0,,,41,62
309600,set_tempo,200,1,0,,,,,,,,,,,,729483,,,,,,,
309685,control_change,85,0,2,,,,,,,,,,,,,,,0,64,127,,
309760,note_on,0,0,2,,,,,,,,,,,,,,,0,,,53,58
309760,note_on,75,0,2,,,,,,,,,,,,,,,0,,,48,0
309840,set_tempo,240,1,0,,,,,,,,,,,,756144,,,,,,,
309920,note_on,0,0,2,,,,,,,,,,,,,,,0,,,53,58
309920,note_on,160,0,2,,,,,,,,,,,,,,,0,,,53,0
310000,note_on,80,0,2,,,,,,,,,,,,,,,0,,,53,0
310000,set_tempo,160,1,0,,,,,,,,,,,,734574,,,,,,,
310080,note_on,0,0,1,,,,,,,,,,,,,,,0,,,70,85
310080,note_on,0,0,1,,,,,,,,,,,,,,,0,,,57,0
310080,note_on,0,0,1,,,,,,,,,,,,,,,0,,,65,0
310080,note_on,480,0,1,,,,,,,,,,,,,,,0,,,69,0
310080,set_tempo,80,1,0,,,,,,,,,,,,750657,,,,,,,
310080,note_on,0,0,1,,,,,,,,,,,,,,,0,,,58,60
310080,note_on,0,0,1,,,,,,,,,,,,,,,0,,,65,72
310080,note_on,0,0,2,,,,,,,,,,,,,,,0,,,41,60
310080,note_on,80,0,2,,,,,,,,,,,,,,,0,,,41,0
310080,note_on,0,0,2,,,,,,,,,,,,,,,0,,,50,60
310122,control_change,42,0,2,,,,,,,,,,,,,,,0,64,0,,
310235,control_change,113,0,2,,,,,,,,,,,,,,,0,64,127,,
310240,note_on,5,0,2,,,,,,,,,,,,,,,0,,,50,0
310240,note_on,0,0,2,,,,,,,,,,,,,,,0,,,53,58
310320,set_tempo,240,1,0,,,,,,,,,,,,761615,,,,,,,
310400,note_on,160,0,2,,,,,,,,,,,,,,,0,,,53,0
310400,note_on,0,0,2,,,,,,,,,,,,,,,0,,,53,58
310480,note_on,80,0,2,,,,,,,,,,,,,,,0,,,53,0
310560,note_on,480,0,1,,,,,,,,,,,,,,,0,,,70,0
310560,note_on,0,0,1,,,,,,,,,,,,,,,0,,,65,0
310560,note_on,0,0,1,,,,,,,,,,,,,,,0,,,58,0
310560,note_on,0,0,1,,,,,,,,,,,,,,,0,,,60,60
310560,note_on,0,0,1,,,,,,,,,,,,,,,0,,,65,72
310560,note_on,0,0,1,,,,,,,,,,,,,,,0,,,72,85
310560,note_on,80,0,2,,,,,,,,,,,,,,,0,,,41,0
310560,note_on,0,0,2,,,,,,,,,,,,,,,0,,,41,61
310560,note_on,0,0,2,,,,,,,,,,,,,,,0,,,51,61
310560,set_tempo,240,1,0,,,,,,,,,,,,734574,,,,,,,
310588,control_change,28,0,2,,,,,,,,,,,,,,,0,64,0,,
310701,control_change,113,0,2,,,,,,,,,,,,,,,0,64,127,,
310720,note_on,0,0,2,,,,,,,,,,,,,,,0,,,53,58
310720,note_on,19,0,2,,,,,,,,,,,,,,,0,,,51,0
310800,set_tempo,240,1,0,,,,,,,,,,,,800000,,,,,,,
310880,note_on,160,0,2,,,,,,,,,,,,,,,0,,,53,0
310880,note_on,0,0,2,,,,,,,,,,,,,,,0,,,53,58
310960,note_on,80,0,2,,,,,,,,,,,,,,,0,,,53,0
311040,note_on,0,0,1,,,,,,,,,,,,,,,0,,,65,78
311040,note_on,0,0,1,,,,,,,,,,,,,,,0,,,74,92
311040,note_on,80,0,2,,,,,,,,,,,,,,,0,,,41,0
311040,note_on,480,0,1,,,,,,,,,,,,,,,0,,,72,0
311040,control_change,0,0,2,,,,,,,,,,,,,,,0,64,0,,
311040,note_on,0,0,2,,,,,,,,,,,,,,,0,,,41,60
311040,note_on,0,0,2,,,,,,,,,,,,,,,0,,,52,60
311040,note_on,0,0,1,,,,,,,,,,,,,,,0,,,65,0
311040,note_on,0,0,1,,,,,,,,,,,,,,,0,,,60,0
311040,set_tempo,240,1,0,,,,,,,,,,,,729483,,,,,,,
311040,note_on,0,0,1,,,,,,,,,,,,,,,0,,,62,64
311143,control_change,103,0,2,,,,,,,,,,,,,,,0,64,127,,
311200,note_on,0,0,2,,,,,,,,,,,,,,,0,,,53,58
311200,note_on,57,0,2,,,,,,,,,,,,,,,0,,,52,0
311259,control_change,59,0,2,,,,,,,,,,,,,,,0,64,0,,
311280,set_tempo,240,1,0,,,,,,,,,,,,714371,,,,,,,
311344,control_change,85,0,2,,,,,,,,,,,,,,,0,64,127,,
311360,note_on,16,0,2,,,,,,,,,,,,,,,0,,,53,0
311360,note_on,0,0,2,,,,,,,,,,,,,,,0,,,53,58
311440,note_on,80,0,2,,,,,,,,,,,,,,,0,,,53,0
311520,note_on,80,0,2,,,,,,,,,,,,,,,0,,,53,60
311520,set_tempo,240,1,0,,,,,,,,,,,,714371,,,,,,,
311680,note_on,0,0,2,,,,,,,,,,,,,,,0,,,53,58
311680,note_on,160,0,2,,,,,,,,,,,,,,,0,,,53,0
311840,note_on,0,0,2,,,,,,,,,,,,,,,0,,,53,58
311840,note_on,160,0,2,,,,,,,,,,,,,,,0,,,53,0
311920,note_on,80,0,2,,,,,,,,,,,,,,,0,,,53,0
312000,note_on,80,0,2,,,,,,,,,,,,,,,0,,,53,62
312160,note_on,0,0,2,,,,,,,,,,,,,,,0,,,53,58
312160,note_on,160,0,2,,,,,,,,,,,,,,,0,,,53,0
312320,note_on,160,0,2,,,,,,,,,,,,,,,0,,,53,0
312320,note_on,0,0,2,,,,,,,,,,,,,,,0,,,53,58
312480,note_on,0,0,2,,,,,,,,,,,,,,,0,,,41,0
312480,note_on,0,0,2,,,,,,,,,,,,,,,0,,,51,61
312480,note_on,0,0,2,,,,,,,,,,,,,,,0,,,41,53
312480,note_on,160,0,2,,,,,,,,,,,,,,,0,,,53,0
312480,note_on,0,0,1,,,,,,,,,,,,,,,0,,,62,0
312480,note_on,1440,0,1,,,,,,,,,,,,,,,0,,,74,0
312480,note_on,0,0,1,,,,,,,,,,,,,,,0,,,65,0
312480,set_tempo,960,1,0,,,,,,,,,,,,719338,,,,,,,
312480,note_on,0,0,1,,,,,,,,,,,,,,,0,,,60,62
312480,note_on,0,0,1,,,,,,,,,,,,,,,0,,,65,74
312480,note_on,0,0,1,,,,,,,,,,,,,,,0,,,72,89
312487,control_change,7,0,2,,,,,,,,,,,,,,,0,64,0,,
312560,control_change,73,0,2,,,,,,,,,,,,,,,0,64,127,,
312640,note_on,80,0,2,,,,,,,,,,,,,,,0,,,51,0
312640,note_on,0,0,2,,,,,,,,,,,,,,,0,,,53,53
312720,note_on,0,0,1,,,,,,,,,,,,,,,0,,,65,0
312720,note_on,0,0,1,,,,,,,,,,,,,,,0,,,60,0
312720,note_on,0,0,1,,,,,,,,,,,,,,,0,,,58,58
312720,note_on,0,0,1,,,,,,,,,,,,,,,0,,,65,69
312720,note_on,0,0,1,,,,,,,,,,,,,,,0,,,70,82
312720,note_on,240,0,1,,,,,,,,,,,,,,,0,,,72,0
312720,set_tempo,240,1,0,,,,,,,,,,,,750657,,,,,,,
312800,note_on,0,0,2,,,,,,,,,,,,,,,0,,,50,53
312800,note_on,160,0,2,,,,,,,,,,,,,,,0,,,53,0
312960,note_on,0,0,2,,,,,,,,,,,,,,,0,,,41,60
312960,note_on,0,0,2,,,,,,,,,,,,,,,0,,,41,0
312960,note_on,0,0,2,,,,,,,,,,,,,,,0,,,51,60
312960,note_on,160,0,2,,,,,,,,,,,,,,,0,,,50,0
312960,control_change,0,0,2,,,,,,,,,,,,,,,0,64,0,,
312960,set_tempo,240,1,0,,,,,,,,,,,,729483,,,,,,,
312960,note_on,0,0,1,,,,,,,,,,,,,,,0,,,65,73
312960,note_on,0,0,1,,,,,,,,,,,,,,,0,,,60,61
312960,note_on,0,0,1,,,,,,,,,,,,,,,0,,,58,0
312960,note_on,0,0,1,,,,,,,,,,,,,,,0,,,65,0
312960,note_on,240,0,1,,,,,,,,,,,,,,,0,,,70,0
312960,note_on,0,0,1,,,,,,,,,,,,,,,0,,,72,88
313016,control_change,56,0,2,,,,,,,,,,,,,,,0,64,127,,
313120,note_on,104,0,2,,,,,,,,,,,,,,,0,,,51,0
313120,note_on,0,0,2,,,,,,,,,,,,,,,0,,,53,55
313200,set_tempo,240,1,0,,,,,,,,,,,,740010,,,,,,,
313280,note_on,0,0,2,,,,,,,,,,,,,,,0,,,53,55
313280,note_on,160,0,2,,,,,,,,,,,,,,,0,,,53,0
313426,control_change,146,0,2,,,,,,,,,,,,,,,0,64,0,,
313440,note_on,14,0,2,,,,,,,,,,,,,,,0,,,53,0
313440,set_tempo,240,1,0,,,,,,,,,,,,729483,,,,,,,
313440,note_on,0,0,2,,,,,,,,,,,,,,,0,,,51,60
313440,note_on,0,0,2,,,,,,,,,,,,,,,0,,,41,0
313440,note_on,480,0,1,,,,,,,,,,,,,,,0,,,72,0
313440,note_on,0,0,1,,,,,,,,,,,,,,,0,,,65,0
313440,note_on,0,0,1,,,,,,,,,,,,,,,0,,,60,0
313440,note_on,0,0,1,,,,,,,,,,,,,,,0,,,60,59
313440,note_on,0,0,1,,,,,,,,,,,,,,,0,,,65,71
313440,note_on,0,0,1,,,,,,,,,,,,,,,0,,,72,84
313440,note_on,0,0,2,,,,,,,,,,,,,,,0,,,41,60
313482,control_change,42,0,2,,,,,,,,,,,,,,,0,64,127,,
313600,note_on,118,0,2,,,,,,,,,,,,,,,0,,,51,0
313600,note_on,0,0,2,,,,,,,,,,,,,,,0,,,53,56
313680,set_tempo,240,1,0,,,,,,,,,,,,740010,,,,,,,
313760,note_on,0,0,2,,,,,,,,,,,,,,,0,,,53,56
313760,note_on,160,0,2,,,,,,,,,,,,,,,0,,,53,0
313920,note_on,0,0,1,,,,,,,,,,,,,,,0,,,65,70
313920,note_on,0,0,1,,,,,,,,,,,,,,,0,,,72,83
313920,note_on,0,0,1,,,,,,,,,,,,,,,0,,,60,0
313920,note_on,480,0,1,,,,,,,,,,,,,,,0,,,72,0
313920,note_on,0,0,1,,,,,,,,,,,,,,,0,,,60,59
313920,note_on,0,0,1,,,,,,,,,,,,,,,0,,,65,0
313920,note_on,0,0,2,,,,,,,,,,,,,,,0,,,41,62
313920,note_on,160,0,2,,,,,,,,,,,,,,,0,,,53,0
313920,note_on,0,0,2,,,,,,,,,,,,,,,0,,,41,0
313920,note_on,0,0,2,,,,,,,,,,,,,,,0,,,51,62
313955,control_change,35,0,2,,,,,,,,,,,,,,,0,64,0,,
313960,set_tempo,280,1,0,,,,,,,,,,,,729483,,,,,,,
313976,control_change,21,0,2,,,,,,,,,,,,,,,0,64,127,,
314080,note_on,0,0,2,,,,,,,,,,,,,,,0,,,53,58
314080,note_on,104,0,2,,,,,,,,,,,,,,,0,,,51,0
314160,set_tempo,200,1,0,,,,,,,,,,,,756144,,,,,,,
314240,note_on,0,0,2,,,,,,,,,,,,,,,0,,,53,58
314240,note_on,160,0,2,,,,,,,,,,,,,,,0,,,53,0
314400,note_on,0,0,2,,,,,,,,,,,,,,,0,,,41,62
314400,note_on,0,0,2,,,,,,,,,,,,,,,0,,,50,62
314400,note_on,0,0,2,,,,,,,,,,,,,,,0,,,41,0
314400,note_on,160,0,2,,,,,,,,,,,,,,,0,,,53,0
314400,note_on,0,0,1,,,,,,,,,,,,,,,0,,,65,0
314400,note_on,480,0,1,,,,,,,,,,,,,,,0,,,72,0
314400,set_tempo,240,1,0,,,,,,,,,,,,729483,,,,,,,
314400,note_on,0,0,1,,,,,,,,,,,,,,,0,,,58,61
314400,note_on,0,0,1,,,,,,,,,,,,,,,0,,,70,88
314400,note_on,0,0,1,,,,,,,,,,,,,,,0,,,65,73
314400,note_on,0,0,1,,,,,,,,,,,,,,,0,,,60,0
314442,control_change,42,0,2,,,,,,,,,,,,,,,0,64,0,,
314513,control_change,71,0,2,,,,,,,,,,,,,,,0,64,127,,
314560,note_on,0,0,2,,,,,,,,,,,,,,,0,,,53,59
314560,note_on,47,0,2,,,,,,,,,,,,,,,0,,,50,0
314640,note_on,240,0,1,,,,,,,,,,,,,,,0,,,70,0
314640,set_tempo,240,1,0,,,,,,,,,,,,805369,,,,,,,
314640,note_on,0,0,1,,,,,,,,,,,,,,,0,,,58,0
314640,note_on,0,0,1,,,,,,,,,,,,,,,0,,,69,82
314640,note_on,0,0,1,,,,,,,,,,,,,,,0,,,65,0
314640,note_on,0,0,1,,,,,,,,,,,,,,,0,,,57,58
314640,note_on,0,0,1,,,,,,,,,,,,,,,0,,,65,69
314720,note_on,160,0,2,,,,,,,,,,,,,,,0,,,53,0
314720,note_on,0,0,2,,,,,,,,,,,,,,,0,,,48,59
314840,set_tempo,200,1,0,,,,,,,,,,,,740010,,,,,,,
314880,note_on,0,0,1,,,,,,,,,,,,,,,0,,,57,0
314880,note_on,0,0,1,,,,,,,,,,,,,,,0,,,70,90
314880,note_on,0,0,1,,,,,,,,,,,,,,,0,,,58,75
314880,note_on,0,0,2,,,,,,,,,,,,,,,0,,,46,62
314880,note_on,0,0,1,,,,,,,,,,,,,,,0,,,65,77
314880,note_on,240,0,1,,,,,,,,,,,,,,,0,,,69,0
314880,note_on,160,0,2,,,,,,,,,,,,,,,0,,,48,0
314880,note_on,0,0,2,,,,,,,,,,,,,,,0,,,41,0
314880,note_on,0,0,2,,,,,,,,,,,,,,,0,,,50,62
314880,note_on,0,0,1,,,,,,,,,,,,,,,0,,,65,0
314915,control_change,35,0,2,,,,,,,,,,,,,,,0,64,0,,
315007,control_change,92,0,2,,,,,,,,,,,,,,,0,64,127,,
315040,note_on,33,0,2,,,,,,,,,,,,,,,0,,,50,0
315040,note_on,0,0,2,,,,,,,,,,,,,,,0,,,53,56
315200,note_on,160,0,2,,,,,,,,,,,,,,,0,,,53,0
315200,note_on,0,0,2,,,,,,,,,,,,,,,0,,,53,56
315360,note_on,0,0,1,,,,,,,,,,,,,,,0,,,67,88
315360,set_tempo,520,1,0,,,,,,,,,,,,759878,,,,,,,
315360,note_on,0,0,1,,,,,,,,,,,,,,,0,,,63,73
315360,note_on,0,0,2,,,,,,,,,,,,,,,0,,,51,60
315360,note_on,160,0,2,,,,,,,,,,,,,,,0,,,53,0
315360,note_on,480,0,1,,,,,,,,,,,,,,,0,,,65,0
315431,control_change,71,0,2,,,,,,,,,,,,,,,0,64,0,,
315515,control_change,84,0,2,,,,,,,,,,,,,,,0,64,127,,
315520,note_on,0,0,2,,,,,,,,,,,,,,,0,,,55,56
315520,note_on,5,0,2,,,,,,,,,,,,,,,0,,,51,0
315640,set_tempo,280,1,0,,,,,,,,,,,,767362,,,,,,,
315680,note_on,0,0,2,,,,,,,,,,,,,,,0,,,55,56
315680,note_on,160,0,2,,,,,,,,,,,,,,,0,,,55,0
315840,note_on,0,0,2,,,,,,,,,,,,,,,0,,,50,60
315840,note_on,160,0,2,,,,,,,,,,,,,,,0,,,55,0
315840,set_tempo,200,1,0,,,,,,,,,,,,745156,,,,,,,
315840,note_on,0,0,1,,,,,,,,,,,,,,,0,,,65,83
315840,note_on,0,0,1,,,,,,,,,,,,,,,0,,,62,70
315840,note_on,0,0,1,,,,,,,,,,,,,,,0,,,63,0
315840,note_on,480,0,1,,,,,,,,,,,,,,,0,,,67,0
315896,control_change,56,0,2,,,,,,,,,,,,,,,0,64,0,,
316000,note_on,104,0,2,,,,,,,,,,,,,,,0,,,50,0
316000,note_on,0,0,2,,,,,,,,,,,,,,,0,,,53,56
316052,control_change,52,0,2,,,,,,,,,,,,,,,0,64,127,,
316080,set_tempo,240,1,0,,,,,,,,,,,,767362,,,,,,,
316160,note_on,0,0,2,,,,,,,,,,,,,,,0,,,53,57
316160,note_on,108,0,2,,,,,,,,,,,,,,,0,,,53,0
316320,note_on,0,0,2,,,,,,,,,,,,,,,0,,,46,0
316320,set_tempo,240,1,0,,,,,,,,,,,,805369,,,,,,,
316320,note_on,160,0,2,,,,,,,,,,,,,,,0,,,53,0
316320,note_on,0,0,1,,,,,,,,,,,,,,,0,,,58,0
316320,note_on,0,0,1,,,,,,,,,,,,,,,0,,,70,0
316320,note_on,0,0,1,,,,,,,,,,,,,,,0,,,74,89
316320,note_on,0,0,1,,,,,,,,,,,,,,,0,,,65,75
316320,note_on,480,0,1,,,,,,,,,,,,,,,0,,,65,0
316320,note_on,0,0,1,,,,,,,,,,,,,,,0,,,62,64
316320,note_on,0,0,1,,,,,,,,,,,,,,,0,,,62,0
316320,note_on,0,0,2,,,,,,,,,,,,,,,0,,,50,59
316320,note_on,0,0,2,,,,,,,,,,,,,,,0,,,44,59
316362,control_change,42,0,2,,,,,,,,,,,,,,,0,64,0,,
316419,control_change,57,0,2,,,,,,,,,,,,,,,0,64,127,,
316480,note_on,0,0,2,,,,,,,,,,,,,,,0,,,53,54
316480,note_on,61,0,2,,,,,,,,,,,,,,,0,,,50,0
316560,set_tempo,240,1,0,,,,,,,,,,,,916031,,,,,,,
316640,note_on,0,0,2,,,,,,,,,,,,,,,0,,,53,54
316640,note_on,160,0,2,,,,,,,,,,,,,,,0,,,53,0
316800,note_on,0,0,1,,,,,,,,,,,,,,,0,,,62,64
316800,note_on,0,0,1,,,,,,,,,,,,,,,0,,,67,75
316800,note_on,0,0,1,,,,,,,,,,,,,,,0,,,74,89
316800,note_on,0,0,1,,,,,,,,,,,,,,,0,,,65,0
316800,note_on,0,0,2,,,,,,,,,,,,,,,0,,,43,59
316800,note_on,160,0,2,,,,,,,,,,,,,,,0,,,53,0
316800,note_on,0,0,2,,,,,,,,,,,,,,,0,,,44,0
316800,note_on,480,0,1,,,,,,,,,,,,,,,0,,,74,0
316800,control_change,0,0,2,,,,,,,,,,,,,,,0,64,0,,
316800,set_tempo,240,1,0,,,,,,,,,,,,729483,,,,,,,
316800,note_on,0,0,2,,,,,,,,,,,,,,,0,,,53,59
316800,note_on,0,0,1,,,,,,,,,,,,,,,0,,,62,0
316914,control_change,114,0,2,,,,,,,,,,,,,,,0,64,127,,
316960,note_on,46,0,2,,,,,,,,,,,,,,,0,,,53,0
316960,note_on,0,0,2,,,,,,,,,,,,,,,0,,,55,53
317040,set_tempo,240,1,0,,,,,,,,,,,,724288,,,,,,,
317120,note_on,160,0,2,,,,,,,,,,,,,,,0,,,55,0
317120,note_on,0,0,2,,,,,,,,,,,,,,,0,,,55,53
317280,set_tempo,240,1,0,,,,,,,,,,,,714371,,,,,,,
317280,note_on,160,0,2,,,,,,,,,,,,,,,0,,,55,0
317280,note_on,0,0,2,,,,,,,,,,,,,,,0,,,53,56
317287,control_change,7,0,2,,,,,,,,,,,,,,,0,64,0,,
317329,control_change,42,0,2,,,,,,,,,,,,,,,0,64,127,,
317440,note_on,0,0,2,,,,,,,,,,,,,,,0,,,55,53
317440,note_on,111,0,2,,,,,,,,,,,,,,,0,,,53,0
317520,set_tempo,240,1,0,,,,,,,,,,,,728332,,,,,,,
317600,note_on,0,0,2,,,,,,,,,,,,,,,0,,,55,53
317600,note_on,160,0,2,,,,,,,,,,,,,,,0,,,55,0
317760,note_on,0,0,2,,,,,,,,,,,,,,,0,,,53,57
317760,note_on,160,0,2,,,,,,,,,,,,,,,0,,,55,0
317760,set_tempo,240,1,0,,,,,,,,,,,,713606,,,,,,,
317795,control_change,35,0,2,,,,,,,,,,,,,,,0,64,0,,
317838,control_change,43,0,2,,,,,,,,,,,,,,,0,64,127,,
317920,note_on,0,0,2,,,,,,,,,,,,,,,0,,,55,51
317920,note_on,82,0,2,,,,,,,,,,,,,,,0,,,53,0
318080,note_on,160,0,2,,,,,,,,,,,,,,,0,,,55,0
318080,note_on,0,0,2,,,,,,,,,,,,,,,0,,,55,51
318240,note_on,0,0,1,,,,,,,,,,,,,,,0,,,67,0
318240,note_on,0,0,1,,,,,,,,,,,,,,,0,,,62,0
318240,note_on,0,0,1,,,,,,,,,,,,,,,0,,,60,59
318240,note_on,0,0,1,,,,,,,,,,,,,,,0,,,67,71
318240,note_on,0,0,1,,,,,,,,,,,,,,,0,,,72,84
318240,note_on,160,0,2,,,,,,,,,,,,,,,0,,,55,0
318240,note_on,0,0,2,,,,,,,,,,,,,,,0,,,43,0
318240,note_on,0,0,2,,,,,,,,,,,,,,,0,,,51,56
318240,note_on,1440,0,1,,,,,,,,,,,,,,,0,,,74,0
318240,control_change,0,0,2,,,,,,,,,,,,,,,0,64,0,,
318240,note_on,0,0,2,,,,,,,,,,,,,,,0,,,43,56
318354,control_change,114,0,2,,,,,,,,,,,,,,,0,64,127,,
318400,note_on,46,0,2,,,,,,,,,,,,,,,0,,,51,0
318400,note_on,0,0,2,,,,,,,,,,,,,,,0,,,55,51
318480,set_tempo,720,1,0,,,,,,,,,,,,733407,,,,,,,
318480,note_on,0,0,1,,,,,,,,,,,,,,,0,,,59,56
318480,note_on,0,0,1,,,,,,,,,,,,,,,0,,,67,67
318480,note_on,0,0,1,,,,,,,,,,,,,,,0,,,71,79
318480,note_on,240,0,1,,,,,,,,,,,,,,,0,,,72,0
318480,note_on,0,0,1,,,,,,,,,,,,,,,0,,,60,0
318480,note_on,0,0,1,,,,,,,,,,,,,,,0,,,67,0
318560,note_on,160,0,2,,,,,,,,,,,,,,,0,,,55,0
318560,note_on,0,0,2,,,,,,,,,,,,,,,0,,,50,51
318720,note_on,0,0,1,,,,,,,,,,,,,,,0,,,67,79
318720,note_on,0,0,1,,,,,,,,,,,,,,,0,,,59,0
318720,note_on,0,0,1,,,,,,,,,,,,,,,0,,,67,0
318720,note_on,240,0,1,,,,,,,,,,,,,,,0,,,71,0
318720,note_on,0,0,1,,,,,,,,,,,,,,,0,,,75,94
318720,note_on,0,0,1,,,,,,,,,,,,,,,0,,,63,67
318720,note_on,160,0,2,,,,,,,,,,,,,,,0,,,50,0
318720,set_tempo,240,1,0,,,,,,,,,,,,699872,,,,,,,
318720,note_on,0,0,2,,,,,,,,,,,,,,,0,,,43,54
318720,note_on,0,0,2,,,,,,,,,,,,,,,0,,,43,0
318720,note_on,0,0,2,,,,,,,,,,,,,,,0,,,48,54
318754,control_change,34,0,2,,,,,,,,,,,,,,,0,64,0,,
318847,control_change,93,0,2,,,,,,,,,,,,,,,0,64,127,,
318880,note_on,0,0,2,,,,,,,,,,,,,,,0,,,55,50
318880,note_on,33,0,2,,,,,,,,,,,,,,,0,,,48,0
318960,set_tempo,240,1,0,,,,,,,,,,,,719338,,,,,,,
319040,note_on,160,0,2,,,,,,,,,,,,,,,0,,,55,0
319040,note_on,0,0,2,,,,,,,,,,,,,,,0,,,55,50
319200,note_on,160,0,2,,,,,,,,,,,,,,,0,,,55,0
319200,note_on,480,0,1,,,,,,,,,,,,,,,0,,,75,0
319200,note_on,0,0,1,,,,,,,,,,,,,,,0,,,67,0
319200,note_on,0,0,1,,,,,,,,,,,,,,,0,,,63,0
319200,note_on,0,0,1,,,,,,,,,,,,,,,0,,,62,65
319200,set_tempo,240,1,0,,,,,,,,,,,,714371,,,,,,,
319200,note_on,0,0,1,,,,,,,,,,,,,,,0,,,74,91
319200,note_on,0,0,2,,,,,,,,,,,,,,,0,,,43,54
319200,note_on,0,0,2,,,,,,,,,,,,,,,0,,,53,54
319200,note_on,0,0,1,,,,,,,,,,,,,,,0,,,67,76
319200,note_on,0,0,2,,,,,,,,,,,,,,,0,,,43,0
319271,control_change,71,0,2,,,,,,,,,,,,,,,0,64,0,,
319309,control_change,38,0,2,,,,,,,,,,,,,,,0,64,127,,
319360,note_on,0,0,2,,,,,,,,,,,,,,,0,,,55,50
319360,note_on,51,0,2,,,,,,,,,,,,,,,0,,,53,0
319440,set_tempo,240,1,0,,,,,,,,,,,,750657,,,,,,,
319480,set_tempo,40,1,0,,,,,,,,,,,,767362,,,,,,,
319520,note_on,160,0,2,,,,,,,,,,,,,,,0,,,55,0
319520,note_on,0,0,2,,,,,,,,,,,,,,,0,,,55,50
319680,note_on,480,0,1,,,,,,,,,,,,,,,0,,,74,0
319680,note_on,0,0,2,,,,,,,,,,,,,,,0,,,43,0
319680,note_on,160,0,2,,,,,,,,,,,,,,,0,,,55,0
319680,note_on,0,0,2,,,,,,,,,,,,,,,0,,,51,55
319680,note_on,0,0,2,,,,,,,,,,,,,,,0,,,43,55
319680,note_on,0,0,1,,,,,,,,,,,,,,,0,,,72,88
319680,set_tempo,200,1,0,,,,,,,,,,,,729483,,,,,,,
319680,note_on,0,0,1,,,,,,,,,,,,,,,0,,,67,0
319680,note_on,0,0,1,,,,,,,,,,,,,,,0,,,62,0
319680,note_on,0,0,1,,,,,,,,,,,,,,,0,,,60,63
319680,note_on,0,0,1,,,,,,,,,,,,,,,0,,,67,74
319736,control_change,56,0,2,,,,,,,,,,,,,,,0,64,0,,
319777,control_change,41,0,2,,,,,,,,,,,,,,,0,64,127,,
319840,note_on,63,0,2,,,,,,,,,,,,,,,0,,,51,0
319840,note_on,0,0,2,,,,,,,,,,,,,,,0,,,55,50
319920,set_tempo,240,1,0,,,,,,,,,,,,767362,,,,,,,
320000,note_on,160,0,2,,,,,,,,,,,,,,,0,,,55,0
320000,note_on,0,0,2,,,,,,,,,,,,,,,0,,,55,50
320160,note_on,0,0,2,,,,,,,,,,,,,,,0,,,43,0
320160,note_on,0,0,1,,,,,,,,,,,,,,,0,,,72,86
320160,note_on,160,0,2,,,,,,,,,,,,,,,0,,,55,0
320160,note_on,0,0,2,,,,,,,,,,,,,,,0,,,42,57
320160,note_on,0,0,2,,,,,,,,,,,,,,,0,,,51,57
320160,set_tempo,240,1,0,,,,,,,,,,,,774194,,,,,,,
320160,note_on,0,0,1,,,,,,,,,,,,,,,0,,,60,60
320160,note_on,0,0,1,,,,,,,,,,,,,,,0,,,60,0
320160,note_on,0,0,1,,,,,,,,,,,,,,,0,,,67,0
320160,note_on,480,0,1,,,,,,,,,,,,,,,0,,,72,0
320160,note_on,0,0,1,,,,,,,,,,,,,,,0,,,69,72
320202,control_change,42,0,2,,,,,,,,,,,,,,,0,64,0,,
320259,control_change,57,0,2,,,,,,,,,,,,,,,0,64,127,,
320320,note_on,0,0,2,,,,,,,,,,,,,,,0,,,54,52
320320,note_on,61,0,2,,,,,,,,,,,,,,,0,,,51,0
320400,set_tempo,240,1,0,,,,,,,,,,,,839161,,,,,,,
320480,note_on,160,0,2,,,,,,,,,,,,,,,0,,,54,0
320480,note_on,0,0,2,,,,,,,,,,,,,,,0,,,54,52
320640,note_on,0,0,1,,,,,,,,,,,,,,,0,,,72,89
320640,note_on,0,0,1,,,,,,,,,,,,,,,0,,,65,76
320640,set_tempo,240,1,0,,,,,,,,,,,,729483,,,,,,,
320640,note_on,0,0,2,,,,,,,,,,,,,,,0,,,51,58
320640,note_on,0,0,1,,,,,,,,,,,,,,,0,,,60,0
320640,note_on,0,0,1,,,,,,,,,,,,,,,0,,,69,0
320640,note_on,480,0,1,,,,,,,,,,,,,,,0,,,72,0
320640,note_on,0,0,1,,,,,,,,,,,,,,,0,,,69,78
320640,note_on,0,0,1,,,,,,,,,,,,,,,0,,,60,65
320640,note_on,0,0,2,,,,,,,,,,,,,,,0,,,41,58
320640,note_on,160,0,2,,,,,,,,,,,,,,,0,,,54,0
320640,note_on,0,0,2,,,,,,,,,,,,,,,0,,,42,0
320640,control_change,0,0,2,,,,,,,,,,,,,,,0,64,0,,
320754,control_change,114,0,2,,,,,,,,,,,,,,,0,64,127,,
320800,note_on,46,0,2,,,,,,,,,,,,,,,0,,,51,0
320800,note_on,0,0,2,,,,,,,,,,,,,,,0,,,53,52
320880,set_tempo,240,1,0,,,,,,,,,,,,724288,,,,,,,
320960,note_on,160,0,2,,,,,,,,,,,,,,,0,,,53,0
320960,note_on,0,0,2,,,,,,,,,,,,,,,0,,,53,52
321120,note_on,0,0,2,,,,,,,,,,,,,,,0,,,51,56
321120,note_on,160,0,2,,,,,,,,,,,,,,,0,,,53,0
321120,set_tempo,240,1,0,,,,,,,,,,,,714371,,,,,,,
321162,control_change,42,0,2,,,,,,,,,,,,,,,0,64,0,,
321198,control_change,36,0,2,,,,,,,,,,,,,,,0,64,127,,
321280,note_on,0,0,2,,,,,,,,,,,,,,,0,,,53,52
321280,note_on,82,0,2,,,,,,,,,,,,,,,0,,,51,0
321440,note_on,0,0,2,,,,,,,,,,,,,,,0,,,53,53
321440,note_on,160,0,2,,,,,,,,,,,,,,,0,,,53,0
321600,note_on,0,0,2,,,,,,,,,,,,,,,0,,,51,57
321600,note_on,160,0,2,,,,,,,,,,,,,,,0,,,53,0
321621,control_change,21,0,2,,,,,,,,,,,,,,,0,64,0,,
321656,control_change,35,0,2,,,,,,,,,,,,,,,0,64,127,,
321760,note_on,104,0,2,,,,,,,,,,,,,,,0,,,51,0
321760,note_on,0,0,2,,,,,,,,,,,,,,,0,,,53,52
321920,note_on,160,0,2,,,,,,,,,,,,,,,0,,,53,0
321920,note_on,0,0,2,,,,,,,,,,,,,,,0,,,53,52
322080,note_on,0,0,1,,,,,,,,,,,,,,,0,,,60,0
322080,note_on,0,0,1,,,,,,,,,,,,,,,0,,,69,0
322080,note_on,0,0,1,,,,,,,,,,,,,,,0,,,58,63
322080,control_change,0,0,2,,,,,,,,,,,,,,,0,64,0,,
322080,note_on,0,0,2,,,,,,,,,,,,,,,0,,,50,57
322080,note_on,0,0,2,,,,,,,,,,,,,,,0,,,41,57
322080,note_on,1440,0,1,,,,,,,,,,,,,,,0,,,72,0
322080,note_on,0,0,2,,,,,,,,,,,,,,,0,,,41,0
322080,note_on,160,0,2,,,,,,,,,,,,,,,0,,,53,0
322080,note_on,0,0,1,,,,,,,,,,,,,,,0,,,70,88
322080,note_on,0,0,1,,,,,,,,,,,,,,,0,,,65,74
322080,note_on,0,0,1,,,,,,,,,,,,,,,0,,,65,0
322194,control_change,114,0,2,,,,,,,,,,,,,,,0,64,127,,
322240,note_on,46,0,2,,,,,,,,,,,,,,,0,,,50,0
322240,note_on,0,0,2,,,,,,,,,,,,,,,0,,,53,54
322320,set_tempo,1200,1,0,,,,,,,,,,,,740010,,,,,,,
322320,note_on,0,0,1,,,,,,,,,,,,,,,0,,,65,68
322320,note_on,240,0,1,,,,,,,,,,,,,,,0,,,70,0
322320,note_on,0,0,1,,,,,,,,,,,,,,,0,,,65,0
322320,note_on,0,0,1,,,,,,,,,,,,,,,0,,,58,0
322320,note_on,0,0,1,,,,,,,,,,,,,,,0,,,57,57
322320,note_on,0,0,1,,,,,,,,,,,,,,,0,,,69,80
322400,note_on,160,0,2,,,,,,,,,,,,,,,0,,,53,0
322400,note_on,0,0,2,,,,,,,,,,,,,,,0,,,48,51
322560,set_tempo,240,1,0,,,,,,,,,,,,709471,,,,,,,
322560,note_on,0,0,1,,,,,,,,,,,,,,,0,,,65,0
322560,note_on,160,0,2,,,,,,,,,,,,,,,0,,,48,0
322560,note_on,0,0,2,,,,,,,,,,,,,,,0,,,41,0
322560,note_on,0,0,2,,,,,,,,,,,,,,,0,,,46,58
322560,note_on,0,0,2,,,,,,,,,,,,,,,0,,,41,58
322560,note_on,240,0,1,,,,,,,,,,,,,,,0,,,69,0
322560,control_change,0,0,2,,,,,,,,,,,,,,,0,64,0,,
322560,note_on,0,0,1,,,,,,,,,,,,,,,0,,,57,0
322560,note_on,0,0,1,,,,,,,,,,,,,,,0,,,62,65
322560,note_on,0,0,1,,,,,,,,,,,,,,,0,,,65,77
322560,note_on,0,0,1,,,,,,,,,,,,,,,0,,,74,92
322687,control_change,127,0,2,,,,,,,,,,,,,,,0,64,127,,
322720,note_on,0,0,2,,,,,,,,,,,,,,,0,,,53,53
322720,note_on,33,0,2,,,,,,,,,,,,,,,0,,,46,0
322800,set_tempo,240,1,0,,,,,,,,,,,,740010,,,,,,,
322880,note_on,0,0,2,,,,,,,,,,,,,,,0,,,53,53
322880,note_on,160,0,2,,,,,,,,,,,,,,,0,,,53,0
323040,note_on,0,0,1,,,,,,,,,,,,,,,0,,,65,0
323040,note_on,0,0,2,,,,,,,,,,,,,,,0,,,41,0
323040,note_on,160,0,2,,,,,,,,,,,,,,,0,,,53,0
323040,note_on,480,0,1,,,,,,,,,,,,,,,0,,,74,0
323040,note_on,0,0,1,,,,,,,,,,,,,,,0,,,62,0
323040,set_tempo,240,1,0,,,,,,,,,,,,714371,,,,,,,
323040,note_on,0,0,1,,,,,,,,,,,,,,,0,,,69,87
323040,note_on,0,0,1,,,,,,,,,,,,,,,0,,,65,73
323040,note_on,0,0,1,,,,,,,,,,,,,,,0,,,57,61
323040,note_on,0,0,2,,,,,,,,,,,,,,,0,,,41,58
323040,note_on,0,0,2,,,,,,,,,,,,,,,0,,,48,58
323111,control_change,71,0,2,,,,,,,,,,,,,,,0,64,0,,
323195,control_change,84,0,2,,,,,,,,,,,,,,,0,64,127,,
323200,note_on,0,0,2,,,,,,,,,,,,,,,0,,,53,52
323200,note_on,5,0,2,,,,,,,,,,,,,,,0,,,48,0
323280,set_tempo,240,1,0,,,,,,,,,,,,750657,,,,,,,
323320,set_tempo,40,1,0,,,,,,,,,,,,767362,,,,,,,
323360,note_on,0,0,2,,,,,,,,,,,,,,,0,,,53,52
323360,note_on,160,0,2,,,,,,,,,,,,,,,0,,,53,0
323520,note_on,160,0,2,,,,,,,,,,,,,,,0,,,53,0
323520,note_on,0,0,2,,,,,,,,,,,,,,,0,,,50,56
323520,set_tempo,200,1,0,,,,,,,,,,,,729483,,,,,,,
323520,note_on,0,0,1,,,,,,,,,,,,,,,0,,,70,92
323520,note_on,0,0,1,,,,,,,,,,,,,,,0,,,65,77
323520,note_on,0,0,1,,,,,,,,,,,,,,,0,,,58,65
323520,note_on,0,0,1,,,,,,,,,,,,,,,0,,,57,0
323520,note_on,0,0,1,,,,,,,,,,,,,,,0,,,65,0
323520,note_on,480,0,1,,,,,,,,,,,,,,,0,,,69,0
323520,note_on,0,0,2,,,,,,,,,,,,,,,0,,,41,0
323520,note_on,0,0,2,,,,,,,,,,,,,,,0,,,41,56
323576,control_change,56,0,2,,,,,,,,,,,,,,,0,64,0,,
323640,control_change,64,0,2,,,,,,,,,,,,,,,0,64,127,,
323680,note_on,40,0,2,,,,,,,,,,,,,,,0,,,50,0
323680,note_on,0,0,2,,,,,,,,,,,,,,,0,,,53,52
323760,set_tempo,240,1,0,,,,,,,,,,,,767362,,,,,,,
323840,note_on,160,0,2,,,,,,,,,,,,,,,0,,,53,0
323840,note_on,0,0,2,,,,,,,,,,,,,,,0,,,53,52
324000,note_on,0,0,2,,,,,,,,,,,,,,,0,,,41,56
324000,note_on,480,0,1,,,,,,,,,,,,,,,0,,,70,0
324000,note_on,160,0,2,,,,,,,,,,,,,,,0,,,53,0
324000,note_on,0,0,2,,,,,,,,,,,,,,,0,,,51,56
324000,note_on,0,0,1,,,,,,,,,,,,,,,0,,,65,0
324000,note_on,0,0,2,,,,,,,,,,,,,,,0,,,41,0
324000,note_on,0,0,1,,,,,,,,,,,,,,,0,,,58,0
324000,note_on,0,0,1,,,,,,,,,,,,,,,0,,,72,82
324000,note_on,0,0,1,,,,,,,,,,,,,,,0,,,69,70
324000,note_on,0,0,1,,,,,,,,,,,,,,,0,,,60,59
324000,note_on,0,0,1,,,,,,,,,,,,,,,0,,,65,70
324042,control_change,42,0,2,,,,,,,,,,,,,,,0,64,0,,
324099,control_change,57,0,2,,,,,,,,,,,,,,,0,64,127,,
324160,note_on,61,0,2,,,,,,,,,,,,,,,0,,,51,0
324160,note_on,0,0,2,,,,,,,,,,,,,,,0,,,53,52
324240,set_tempo,480,1,0,,,,,,,,,,,,784621,,,,,,,
324320,note_on,160,0,2,,,,,,,,,,,,,,,0,,,53,0
324320,note_on,0,0,2,,,,,,,,,,,,,,,0,,,53,52
324480,note_on,160,0,2,,,,,,,,,,,,,,,0,,,53,0
324480,note_on,0,0,2,,,,,,,,,,,,,,,0,,,41,0
324480,note_on,0,0,2,,,,,,,,,,,,,,,0,,,41,51
324480,note_on,0,0,1,,,,,,,,,,,,,,,0,,,69,0
324480,control_change,0,0,2,,,,,,,,,,,,,,,0,64,0,,
324480,note_on,0,0,1,,,,,,,,,,,,,,,0,,,60,0
324480,note_on,480,0,1,,,,,,,,,,,,,,,0,,,72,0
324480,set_tempo,240,1,0,,,,,,,,,,,,767362,,,,,,,
324480,note_on,0,0,1,,,,,,,,,,,,,,,0,,,65,0
324480,note_on,0,0,1,,,,,,,,,,,,,,,0,,,72,89
324480,note_on,0,0,1,,,,,,,,,,,,,,,0,,,69,75
324480,note_on,0,0,1,,,,,,,,,,,,,,,0,,,60,64
324480,note_on,0,0,1,,,,,,,,,,,,,,,0,,,65,75
324480,note_on,0,0,2,,,,,,,,,,,,,,,0,,,51,51
324594,control_change,114,0,2,,,,,,,,,,,,,,,0,64,127,,
324640,note_on,46,0,2,,,,,,,,,,,,,,,0,,,53,50
324720,set_tempo,240,1,0,,,,,,,,,,,,733407,,,,,,,
324800,note_on,0,0,2,,,,,,,,,,,,,,,0,,,53,50
324800,note_on,160,0,2,,,,,,,,,,,,,,,0,,,53,0
324960,note_on,160,0,2,,,,,,,,,,,,,,,0,,,53,0
324960,note_on,0,0,2,,,,,,,,,,,,,,,0,,,53,50
325120,note_on,160,0,2,,,,,,,,,,,,,,,0,,,53,0
325120,note_on,0,0,2,,,,,,,,,,,,,,,0,,,53,50
325280,note_on,160,0,2,,,,,,,,,,,,,,,0,,,53,0
325280,note_on,0,0,2,,,,,,,,,,,,,,,0,,,53,49
325440,note_on,160,0,2,,,,,,,,,,,,,,,0,,,53,0
325440,note_on,0,0,2,,,,,,,,,,,,,,,0,,,51,0
325440,note_on,0,0,2,,,,,,,,,,,,,,,0,,,41,0
325440,note_on,0,0,2,,,,,,,,,,,,,,,0,,,53,49
325600,note_on,160,0,2,,,,,,,,,,,,,,,0,,,53,0
325600,note_on,0,0,2,,,,,,,,,,,,,,,0,,,53,49
325760,note_on,160,0,2,,,,,,,,,,,,,,,0,,,53,0
325760,note_on,0,0,2,,,,,,,,,,,,,,,0,,,53,49
325920,note_on,0,0,2,,,,,,,,,,,,,,,0,,,53,48
325920,note_on,160,0,2,,,,,,,,,,,,,,,0,,,53,0
326080,note_on,160,0,2,,,,,,,,,,,,,,,0,,,53,0
326080,note_on,0,0,2,,,,,,,,,,,,,,,0,,,53,48
326240,note_on,160,0,2,,,,,,,,,,,,,,,0,,,53,0
326240,note_on,0,0,2,,,,,,,,,,,,,,,0,,,53,48
326400,note_on,160,0,2,,,,,,,,,,,,,,,0,,,53,0
326400,note_on,0,0,2,,,,,,,,,,,,,,,0,,,41,45
326400,note_on,0,0,2,,,,,,,,,,,,,,,0,,,50,48
326400,control_change,0,0,2,,,,,,,,,,,,,,,0,64,0,,
326400,note_on,0,0,1,,,,,,,,,,,,,,,0,,,69,0
326400,note_on,0,0,1,,,,,,,,,,,,,,,0,,,60,0
326400,note_on,0,0,1,,,,,,,,,,,,,,,0,,,59,61
326400,note_on,0,0,1,,,,,,,,,,,,,,,0,,,68,61
326400,note_on,0,0,1,,,,,,,,,,,,,,,0,,,71,73
326400,note_on,1920,0,1,,,,,,,,,,,,,,,0,,,72,0
326400,set_tempo,1680,1,0,,,,,,,,,,,,782371,,,,,,,
326449,control_change,49,0,2,,,,,,,,,,,,,,,0,64,127,,
326560,note_on,111,0,2,,,,,,,,,,,,,,,0,,,53,42
326640,set_tempo,240,1,0,,,,,,,,,,,,733407,,,,,,,
326720,note_on,160,0,2,,,,,,,,,,,,,,,0,,,53,0
326720,note_on,0,0,2,,,,,,,,,,,,,,,0,,,53,39
326880,note_on,0,0,2,,,,,,,,,,,,,,,0,,,53,38
326880,note_on,160,0,2,,,,,,,,,,,,,,,0,,,53,0
327040,note_on,0,0,2,,,,,,,,,,,,,,,0,,,53,38
327040,note_on,160,0,2,,,,,,,,,,,,,,,0,,,53,0
327200,note_on,0,0,2,,,,,,,,,,,,,,,0,,,53,37
327200,note_on,160,0,2,,,,,,,,,,,,,,,0,,,53,0
327360,note_on,0,0,2,,,,,,,,,,,,,,,0,,,53,37
327360,note_on,160,0,2,,,,,,,,,,,,,,,0,,,53,0
327360,note_on,960,0,1,,,,,,,,,,,,,,,0,,,65,0
327520,note_on,160,0,2,,,,,,,,,,,,,,,0,,,53,0
327520,note_on,0,0,2,,,,,,,,,,,,,,,0,,,53,36
327680,note_on,0,0,2,,,,,,,,,,,,,,,0,,,53,35
327680,note_on,160,0,2,,,,,,,,,,,,,,,0,,,53,0
327840,note_on,0,0,1,,,,,,,,,,,,,,,0,,,62,55
327840,note_on,480,0,1,,,,,,,,,,,,,,,0,,,59,0
327840,note_on,0,0,1,,,,,,,,,,,,,,,0,,,71,66
327840,note_on,0,0,1,,,,,,,,,,,,,,,0,,,68,55
327840,note_on,0,0,1,,,,,,,,,,,,,,,0,,,65,55
327840,set_tempo,1200,1,0,,,,,,,,,,,,771010,,,,,,,
327840,note_on,0,0,1,,,,,,,,,,,,,,,0,,,68,0
327840,note_on,0,0,1,,,,,,,,,,,,,,,0,,,71,0
327840,note_on,160,0,2,,,,,,,,,,,,,,,0,,,53,0
327840,note_on,0,0,2,,,,,,,,,,,,,,,0,,,53,36
327868,control_change,28,0,2,,,,,,,,,,,,,,,0,64,0,,
327893,control_change,25,0,2,,,,,,,,,,,,,,,0,64,127,,
328000,note_on,107,0,2,,,,,,,,,,,,,,,0,,,53,0
328000,note_on,0,0,2,,,,,,,,,,,,,,,0,,,53,40
328160,note_on,0,0,2,,,,,,,,,,,,,,,0,,,53,44
328160,note_on,160,0,2,,,,,,,,,,,,,,,0,,,53,0
328320,note_on,0,0,1,,,,,,,,,,,,,,,0,,,65,55
328320,note_on,0,0,1,,,,,,,,,,,,,,,0,,,62,55
328320,note_on,0,0,1,,,,,,,,,,,,,,,0,,,68,0
328320,note_on,0,0,2,,,,,,,,,,,,,,,0,,,53,50
328320,note_on,0,0,1,,,,,,,,,,,,,,,0,,,62,0
328320,note_on,480,0,1,,,,,,,,,,,,,,,0,,,71,0
328320,note_on,0,0,2,,,,,,,,,,,,,,,0,,,50,0
328320,note_on,0,0,1,,,,,,,,,,,,,,,0,,,65,0
328320,note_on,0,0,1,,,,,,,,,,,,,,,0,,,68,55
328320,note_on,160,0,2,,,,,,,,,,,,,,,0,,,53,0
328320,note_on,0,0,2,,,,,,,,,,,,,,,0,,,41,0
328320,control_change,0,0,2,,,,,,,,,,,,,,,0,64,0,,
328320,note_on,0,0,1,,,,,,,,,,,,,,,0,,,71,66
328320,set_tempo,480,1,0,,,,,,,,,,,,771010,,,,,,,
328371,control_change,51,0,2,,,,,,,,,,,,,,,0,64,127,,
328480,note_on,109,0,2,,,,,,,,,,,,,,,0,,,53,0
328480,note_on,0,0,2,,,,,,,,,,,,,,,0,,,44,42
328560,set_tempo,240,1,0,,,,,,,,,,,,743863,,,,,,,
328640,note_on,160,0,2,,,,,,,,,,,,,,,0,,,44,0
328640,note_on,0,0,2,,,,,,,,,,,,,,,0,,,44,42
328800,note_on,160,0,2,,,,,,,,,,,,,,,0,,,44,0
328800,note_on,0,0,2,,,,,,,,,,,,,,,0,,,44,42
328960,note_on,0,0,2,,,,,,,,,,,,,,,0,,,44,42
328960,note_on,160,0,2,,,,,,,,,,,,,,,0,,,44,0
329120,note_on,0,0,2,,,,,,,,,,,,,,,0,,,44,42
329120,note_on,160,0,2,,,,,,,,,,,,,,,0,,,44,0
329280,note_on,0,0,2,,,,,,,,,,,,,,,0,,,44,42
329280,note_on,160,0,2,,,,,,,,,,,,,,,0,,,44,0
329440,note_on,160,0,2,,,,,,,,,,,,,,,0,,,44,0
329440,note_on,0,0,2,,,,,,,,,,,,,,,0,,,44,42
329600,note_on,160,0,2,,,,,,,,,,,,,,,0,,,44,0
329600,note_on,0,0,2,,,,,,,,,,,,,,,0,,,44,42
329720,set_tempo,1160,1,0,,,,,,,,,,,,754717,,,,,,,
329737,control_change,137,0,2,,,,,,,,,,,,,,,0,64,0,,
329760,note_on,0,0,2,,,,,,,,,,,,,,,0,,,44,42
329760,note_on,0,0,1,,,,,,,,,,,,,,,0,,,74,78
329760,note_on,0,0,1,,,,,,,,,,,,,,,0,,,71,66
329760,note_on,1440,0,1,,,,,,,,,,,,,,,0,,,71,0
329760,note_on,0,0,1,,,,,,,,,,,,,,,0,,,65,66
329760,note_on,0,0,1,,,,,,,,,,,,,,,0,,,62,0
329760,note_on,0,0,1,,,,,,,,,,,,,,,0,,,68,66
329760,note_on,0,0,1,,,,,,,,,,,,,,,0,,,65,0
329760,note_on,0,0,1,,,,,,,,,,,,,,,0,,,68,0
329760,note_on,23,0,2,,,,,,,,,,,,,,,0,,,44,0
329777,control_change,17,0,2,,,,,,,,,,,,,,,0,64,127,,
329800,set_tempo,80,1,0,,,,,,,,,,,,759494,,,,,,,
329840,set_tempo,40,1,0,,,,,,,,,,,,764331,,,,,,,
329880,set_tempo,40,1,0,,,,,,,,,,,,769231,,,,,,,
329920,note_on,0,0,2,,,,,,,,,,,,,,,0,,,44,42
329920,note_on,143,0,2,,,,,,,,,,,,,,,0,,,44,0
329960,set_tempo,80,1,0,,,,,,,,,,,,774194,,,,,,,
330000,set_tempo,40,1,0,,,,,,,,,,,,779221,,,,,,,
330040,set_tempo,40,1,0,,,,,,,,,,,,784314,,,,,,,
330080,note_on,0,0,2,,,,,,,,,,,,,,,0,,,44,42
330080,note_on,160,0,2,,,,,,,,,,,,,,,0,,,44,0
330120,set_tempo,80,1,0,,,,,,,,,,,,789474,,,,,,,
330160,set_tempo,40,1,0,,,,,,,,,,,,794702,,,,,,,
330200,set_tempo,40,1,0,,,,,,,,,,,,800000,,,,,,,
330240,note_on,160,0,2,,,,,,,,,,,,,,,0,,,44,0
330240,note_on,480,0,1,,,,,,,,,,,,,,,0,,,74,0
330240,note_on,0,0,1,,,,,,,,,,,,,,,0,,,65,0
330240,note_on,0,0,1,,,,,,,,,,,,,,,0,,,71,0
330240,note_on,0,0,1,,,,,,,,,,,,,,,0,,,65,72
330240,note_on,0,0,1,,,,,,,,,,,,,,,0,,,68,72
330240,note_on,0,0,1,,,,,,,,,,,,,,,0,,,71,72
330240,note_on,0,0,1,,,,,,,,,,,,,,,0,,,68,0
330240,control_change,0,0,2,,,,,,,,,,,,,,,0,64,0,,
330240,note_on,0,0,1,,,,,,,,,,,,,,,0,,,74,86
330240,set_tempo,40,1,0,,,,,,,,,,,,805369,,,,,,,
330240,note_on,0,0,2,,,,,,,,,,,,,,,0,,,44,46
330303,control_change,63,0,2,,,,,,,,,,,,,,,0,64,127,,
330400,note_on,0,0,2,,,,,,,,,,,,,,,0,,,37,46
330400,note_on,97,0,2,,,,,,,,,,,,,,,0,,,44,0
330480,set_tempo,240,1,0,,,,,,,,,,,,743863,,,,,,,
330560,note_on,160,0,2,,,,,,,,,,,,,,,0,,,37,0
330560,note_on,0,0,2,,,,,,,,,,,,,,,0,,,37,46
330720,note_on,0,0,2,,,,,,,,,,,,,,,0,,,37,53
330720,note_on,160,0,2,,,,,,,,,,,,,,,0,,,37,0
330880,note_on,0,0,2,,,,,,,,,,,,,,,0,,,37,53
330880,note_on,160,0,2,,,,,,,,,,,,,,,0,,,37,0
331040,note_on,0,0,2,,,,,,,,,,,,,,,0,,,37,53
331040,note_on,160,0,2,,,,,,,,,,,,,,,0,,,37,0
331200,note_on,0,0,1,,,,,,,,,,,,,,,0,,,73,86
331200,note_on,960,0,1,,,,,,,,,,,,,,,0,,,74,0
331200,note_on,0,0,2,,,,,,,,,,,,,,,0,,,37,53
331200,note_on,160,0,2,,,,,,,,,,,,,,,0,,,37,0
331360,note_on,160,0,2,,,,,,,,,,,,,,,0,,,37,0
331360,note_on,0,0,2,,,,,,,,,,,,,,,0,,,37,52
331440,note_on,0,0,1,,,,,,,,,,,,,,,0,,,68,0
331440,note_on,0,0,1,,,,,,,,,,,,,,,0,,,65,0
331440,note_on,240,0,1,,,,,,,,,,,,,,,0,,,73,0
331440,note_on,0,0,1,,,,,,,,,,,,,,,0,,,71,0
331520,note_on,160,0,2,,,,,,,,,,,,,,,0,,,37,0
331520,note_on,0,0,2,,,,,,,,,,,,,,,0,,,37,52
331640,set_tempo,1160,1,0,,,,,,,,,,,,789474,,,,,,,
331680,note_on,0,0,2,,,,,,,,,,,,,,,0,,,37,65
331680,note_on,0,0,1,,,,,,,,,,,,,,,0,,,71,80
331680,note_on,240,0,1,,,,,,,,,,,,,,,0,,,68,80
331680,note_on,0,0,1,,,,,,,,,,,,,,,0,,,73,80
331680,note_on,160,0,2,,,,,,,,,,,,,,,0,,,37,0
331680,note_on,0,0,1,,,,,,,,,,,,,,,0,,,77,96
331686,control_change,6,0,2,,,,,,,,,,,,,,,0,64,0,,
331720,set_tempo,80,1,0,,,,,,,,,,,,794702,,,,,,,
331731,control_change,45,0,2,,,,,,,,,,,,,,,0,64,127,,
331760,set_tempo,40,1,0,,,,,,,,,,,,800000,,,,,,,
331800,note_on,69,0,2,,,,,,,,,,,,,,,0,,,37,0
331800,note_on,0,0,2,,,,,,,,,,,,,,,0,,,35,59
331800,set_tempo,40,1,0,,,,,,,,,,,,805369,,,,,,,
331840,set_tempo,40,1,0,,,,,,,,,,,,810811,,,,,,,
331880,set_tempo,40,1,0,,,,,,,,,,,,816327,,,,,,,
331920,note_on,240,0,1,,,,,,,,,,,,,,,0,,,77,0
331920,note_on,0,0,1,,,,,,,,,,,,,,,0,,,71,0
331920,note_on,0,0,1,,,,,,,,,,,,,,,0,,,73,0
331920,note_on,120,0,2,,,,,,,,,,,,,,,0,,,35,0
331920,note_on,0,0,1,,,,,,,,,,,,,,,0,,,68,0
331920,note_on,0,0,2,,,,,,,,,,,,,,,0,,,33,61
331960,set_tempo,80,1,0,,,,,,,,,,,,821918,,,,,,,
332000,set_tempo,40,1,0,,,,,,,,,,,,827586,,,,,,,
332040,set_tempo,40,1,0,,,,,,,,,,,,833333,,,,,,,
332040,note_on,120,0,2,,,,,,,,,,,,,,,0,,,33,0
332040,note_on,0,0,2,,,,,,,,,,,,,,,0,,,32,59
332080,set_tempo,40,1,0,,,,,,,,,,,,839161,,,,,,,
332120,set_tempo,40,1,0,,,,,,,,,,,,845070,,,,,,,
332160,note_on,240,0,1,,,,,,,,,,,,,,,0,,,69,77
332160,note_on,0,0,1,,,,,,,,,,,,,,,0,,,78,92
332160,note_on,0,0,2,,,,,,,,,,,,,,,0,,,30,65
332160,note_on,120,0,2,,,,,,,,,,,,,,,0,,,32,0
332160,note_on,0,0,1,,,,,,,,,,,,,,,0,,,73,77
332160,key_signature,40,1,0,,,,,,,,,,,A,,,,,,,,
332160,set_tempo,0,1,0,,,,,,,,,,,,851064,,,,,,,
332160,control_change,0,0,2,,,,,,,,,,,,,,,0,64,0,,
332280,note_on,120,0,2,,,,,,,,,,,,,,,0,,,30,0
332280,set_tempo,120,1,0,,,,,,,,,,,,736196,,,,,,,
332320,note_on,0,0,1,,,,,,,,,,,,,,,0,,,73,34
332320,note_on,0,0,1,,,,,,,,,,,,,,,0,,,69,0
332320,note_on,0,0,1,,,,,,,,,,,,,,,0,,,73,0
332320,note_on,0,0,1,,,,,,,,,,,,,,,0,,,69,28
332320,note_on,160,0,1,,,,,,,,,,,,,,,0,,,78,0
332480,note_on,160,0,1,,,,,,,,,,,,,,,0,,,73,0
332480,note_on,0,0,1,,,,,,,,,,,,,,,0,,,69,0
332480,note_on,0,0,1,,,,,,,,,,,,,,,0,,,69,30
332480,note_on,0,0,1,,,,,,,,,,,,,,,0,,,73,36
332640,note_on,0,0,1,,,,,,,,,,,,,,,0,,,73,38
332640,note_on,0,0,1,,,,,,,,,,,,,,,0,,,69,0
332640,note_on,0,0,1,,,,,,,,,,,,,,,0,,,69,32
332640,note_on,160,0,1,,,,,,,,,,,,,,,0,,,73,0
332800,note_on,160,0,1,,,,,,,,,,,,,,,0,,,73,0
332800,note_on,0,0,1,,,,,,,,,,,,,,,0,,,69,0
332800,note_on,0,0,1,,,,,,,,,,,,,,,0,,,69,29
332800,note_on,0,0,1,,,,,,,,,,,,,,,0,,,73,35
332960,note_on,0,0,1,,,,,,,,,,,,,,,0,,,69,0
332960,note_on,160,0,1,,,,,,,,,,,,,,,0,,,73,0
332960,note_on,0,0,1,,,,,,,,,,,,,,,0,,,73,35
332960,note_on,0,0,1,,,,,,,,,,,,,,,0,,,69,29
333120,note_on,0,0,1,,,,,,,,,,,,,,,0,,,73,38
333120,note_on,0,0,1,,,,,,,,,,,,,,,0,,,69,32
333120,note_on,160,0,1,,,,,,,,,,,,,,,0,,,73,0
333120,note_on,0,0,1,,,,,,,,,,,,,,,0,,,69,0
333280,note_on,0,0,1,,,,,,,,,,,,,,,0,,,73,35
333280,note_on,0,0,1,,,,,,,,,,,,,,,0,,,69,29
333280,note_on,0,0,1,,,,,,,,,,,,,,,0,,,69,0
333280,note_on,160,0,1,,,,,,,,,,,,,,,0,,,73,0
333440,note_on,160,0,1,,,,,,,,,,,,,,,0,,,73,0
333440,note_on,0,0,1,,,,,,,,,,,,,,,0,,,73,35
333440,note_on,0,0,1,,,,,,,,,,,,,,,0,,,69,29
333440,note_on,0,0,1,,,,,,,,,,,,,,,0,,,69,0
333600,note_on,0,0,1,,,,,,,,,,,,,,,0,,,78,54
333600,note_on,0,0,1,,,,,,,,,,,,,,,0,,,69,0
333600,note_on,160,0,1,,,,,,,,,,,,,,,0,,,73,0
333600,note_on,1320,0,2,,,,,,,,,,,,,,,0,,,54,42
333600,note_on,0,0,2,,,,,,,,,,,,,,,0,,,61,42
333635,control_change,35,0,2,,,,,,,,,,,,,,,0,64,127,,
333760,note_on,160,0,1,,,,,,,,,,,,,,,0,,,69,27
333760,note_on,0,0,1,,,,,,,,,,,,,,,0,,,73,32
333920,note_on,0,0,1,,,,,,,,,,,,,,,0,,,73,32
333920,note_on,0,0,1,,,,,,,,,,,,,,,0,,,69,0
333920,note_on,0,0,1,,,,,,,,,,,,,,,0,,,69,27
333920,note_on,160,0,1,,,,,,,,,,,,,,,0,,,73,0
334080,note_on,445,0,2,,,,,,,,,,,,,,,0,,,61,0
334080,note_on,0,0,2,,,,,,,,,,,,,,,0,,,54,0
334080,note_on,0,0,2,,,,,,,,,,,,,,,0,,,54,42
334080,note_on,0,0,2,,,,,,,,,,,,,,,0,,,61,42
334080,set_tempo,1800,1,0,,,,,,,,,,,,723327,,,,,,,
334080,note_on,160,0,1,,,,,,,,,,,,,,,0,,,73,0
334080,note_on,0,0,1,,,,,,,,,,,,,,,0,,,69,0
334080,note_on,0,0,1,,,,,,,,,,,,,,,0,,,78,0
334080,note_on,0,0,1,,,,,,,,,,,,,,,0,,,78,53
334094,control_change,14,0,2,,,,,,,,,,,,,,,0,64,0,,
334129,control_change,35,0,2,,,,,,,,,,,,,,,0,64,127,,
334240,note_on,160,0,1,,,,,,,,,,,,,,,0,,,69,27
334240,note_on,0,0,1,,,,,,,,,,,,,,,0,,,73,32
334400,note_on,160,0,1,,,,,,,,,,,,,,,0,,,73,0
334400,note_on,0,0,1,,,,,,,,,,,,,,,0,,,69,0
334400,note_on,0,0,1,,,,,,,,,,,,,,,0,,,69,27
334400,note_on,0,0,1,,,,,,,,,,,,,,,0,,,73,32
334560,note_on,0,0,1,,,,,,,,,,,,,,,0,,,69,0
334560,note_on,0,0,1,,,,,,,,,,,,,,,0,,,81,53
334560,note_on,0,0,1,,,,,,,,,,,,,,,0,,,78,0
334560,note_on,160,0,1,,,,,,,,,,,,,,,0,,,73,0
334720,note_on,160,0,1,,,,,,,,,,,,,,,0,,,69,26
334720,note_on,0,0,1,,,,,,,,,,,,,,,0,,,73,31
334800,note_on,0,0,2,,,,,,,,,,,,,,,0,,,59,38
334800,note_on,671,0,2,,,,,,,,,,,,,,,0,,,61,0
334840,set_tempo,760,1,0,,,,,,,,,,,,738643,,,,,,,
334880,note_on,0,0,1,,,,,,,,,,,,,,,0,,,73,31
334880,note_on,0,0,1,,,,,,,,,,,,,,,0,,,69,26
334880,note_on,0,0,1,,,,,,,,,,,,,,,0,,,69,0
334880,note_on,160,0,1,,,,,,,,,,,,,,,0,,,73,0
335040,note_on,0,0,1,,,,,,,,,,,,,,,0,,,69,0
335040,note_on,0,0,2,,,,,,,,,,,,,,,0,,,57,41
335040,note_on,160,0,1,,,,,,,,,,,,,,,0,,,73,0
335040,control_change,0,0,2,,,,,,,,,,,,,,,0,64,0,,
335040,note_on,240,0,2,,,,,,,,,,,,,,,0,,,59,0
335040,note_on,0,0,1,,,,,,,,,,,,,,,0,,,78,53
335040,note_on,0,0,1,,,,,,,,,,,,,,,0,,,81,0
335089,control_change,49,0,2,,,,,,,,,,,,,,,0,64,127,,
335200,note_on,160,0,1,,,,,,,,,,,,,,,0,,,69,27
335200,note_on,0,0,1,,,,,,,,,,,,,,,0,,,73,32
335280,note_on,0,0,2,,,,,,,,,,,,,,,0,,,54,0
335280,note_on,191,0,2,,,,,,,,,,,,,,,0,,,57,0
335360,note_on,160,0,1,,,,,,,,,,,,,,,0,,,73,0
335360,note_on,0,0,1,,,,,,,,,,,,,,,0,,,69,0
335360,note_on,0,0,1,,,,,,,,,,,,,,,0,,,73,32
335360,note_on,0,0,1,,,,,,,,,,,,,,,0,,,69,27
335513,control_change,233,0,2,,,,,,,,,,,,,,,0,64,0,,
335520,note_on,0,0,2,,,,,,,,,,,,,,,0,,,57,38
335520,note_on,7,0,2,,,,,,,,,,,,,,,0,,,54,38
335520,set_tempo,680,1,0,,,,,,,,,,,,728332,,,,,,,
335520,note_on,160,0,1,,,,,,,,,,,,,,,0,,,73,0
335520,note_on,0,0,1,,,,,,,,,,,,,,,0,,,69,0
335520,note_on,0,0,1,,,,,,,,,,,,,,,0,,,78,0
335520,note_on,0,0,1,,,,,,,,,,,,,,,0,,,81,53
335562,control_change,42,0,2,,,,,,,,,,,,,,,0,64,127,,
335680,note_on,160,0,1,,,,,,,,,,,,,,,0,,,69,26
335680,note_on,0,0,1,,,,,,,,,,,,,,,0,,,73,31
335840,note_on,0,0,1,,,,,,,,,,,,,,,0,,,73,31
335840,note_on,0,0,1,,,,,,,,,,,,,,,0,,,69,26
335840,note_on,0,0,1,,,,,,,,,,,,,,,0,,,69,0
335840,note_on,160,0,1,,,,,,,,,,,,,,,0,,,73,0
336000,note_on,160,0,1,,,,,,,,,,,,,,,0,,,73,0
336000,note_on,0,0,2,,,,,,,,,,,,,,,0,,,54,41
336000,note_on,0,0,2,,,,,,,,,,,,,,,0,,,57,41
336000,control_change,0,0,2,,,,,,,,,,,,,,,0,64,0,,
336000,note_on,438,0,2,,,,,,,,,,,,,,,0,,,57,0
336000,note_on,0,0,1,,,,,,,,,,,,,,,0,,,69,0
336000,note_on,0,0,2,,,,,,,,,,,,,,,0,,,54,0
336000,note_on,0,0,1,,,,,,,,,,,,,,,0,,,81,0
336000,note_on,0,0,1,,,,,,,,,,,,,,,0,,,81,56
336056,control_change,56,0,2,,,,,,,,,,,,,,,0,64,127,,
336160,note_on,160,0,1,,,,,,,,,,,,,,,0,,,73,27
336160,note_on,0,0,1,,,,,,,,,,,,,,,0,,,78,32
336320,note_on,160,0,1,,,,,,,,,,,,,,,0,,,78,0
336320,note_on,0,0,1,,,,,,,,,,,,,,,0,,,73,0
336320,note_on,0,0,1,,,,,,,,,,,,,,,0,,,73,27
336320,note_on,0,0,1,,,,,,,,,,,,,,,0,,,78,32
336480,note_on,160,0,1,,,,,,,,,,,,,,,0,,,78,0
336480,note_on,0,0,1,,,,,,,,,,,,,,,0,,,73,0
336480,note_on,0,0,1,,,,,,,,,,,,,,,0,,,81,0
336480,note_on,0,0,1,,,,,,,,,,,,,,,0,,,85,55
336640,note_on,0,0,1,,,,,,,,,,,,,,,0,,,78,32
336640,note_on,160,0,1,,,,,,,,,,,,,,,0,,,73,27
336720,set_tempo,1200,1,0,,,,,,,,,,,,738643,,,,,,,
336720,note_on,664,0,2,,,,,,,,,,,,,,,0,,,57,0
336720,note_on,0,0,2,,,,,,,,,,,,,,,0,,,56,41
336800,note_on,160,0,1,,,,,,,,,,,,,,,0,,,78,0
336800,note_on,0,0,1,,,,,,,,,,,,,,,0,,,73,0
336800,note_on,0,0,1,,,,,,,,,,,,,,,0,,,73,27
336800,note_on,0,0,1,,,,,,,,,,,,,,,0,,,78,32
336946,control_change,226,0,2,,,,,,,,,,,,,,,0,64,0,,
336960,note_on,14,0,2,,,,,,,,,,,,,,,0,,,56,0
336960,note_on,0,0,2,,,,,,,,,,,,,,,0,,,54,0
336960,note_on,0,0,2,,,,,,,,,,,,,,,0,,,54,44
336960,note_on,0,0,1,,,,,,,,,,,,,,,0,,,81,55
336960,note_on,0,0,1,,,,,,,,,,,,,,,0,,,85,0
336960,note_on,0,0,1,,,,,,,,,,,,,,,0,,,73,0
336960,note_on,160,0,1,,,,,,,,,,,,,,,0,,,78,0
337009,control_change,49,0,2,,,,,,,,,,,,,,,0,64,127,,
337120,note_on,0,0,1,,,,,,,,,,,,,,,0,,,78,32
337120,note_on,160,0,1,,,,,,,,,,,,,,,0,,,73,27
337200,note_on,191,0,2,,,,,,,,,,,,,,,0,,,54,0
337280,note_on,0,0,1,,,,,,,,,,,,,,,0,,,78,32
337280,note_on,0,0,1,,,,,,,,,,,,,,,0,,,73,27
337280,note_on,0,0,1,,,,,,,,,,,,,,,0,,,73,0
337280,note_on,160,0,1,,,,,,,,,,,,,,,0,,,78,0
337440,note_on,240,0,2,,,,,,,,,,,,,,,0,,,54,34
337440,note_on,0,0,1,,,,,,,,,,,,,,,0,,,85,56
337440,note_on,0,0,1,,,,,,,,,,,,,,,0,,,81,0
337440,note_on,0,0,1,,,,,,,,,,,,,,,0,,,73,0
337440,note_on,160,0,1,,,,,,,,,,,,,,,0,,,78,0
337468,control_change,28,0,2,,,,,,,,,,,,,,,0,64,0,,
337532,control_change,64,0,2,,,,,,,,,,,,,,,0,64,127,,
337600,note_on,0,0,1,,,,,,,,,,,,,,,0,,,78,32
337600,note_on,160,0,1,,,,,,,,,,,,,,,0,,,73,27
337760,note_on,0,0,1,,,,,,,,,,,,,,,0,,,73,27
337760,note_on,0,0,1,,,,,,,,,,,,,,,0,,,78,32
337760,note_on,160,0,1,,,,,,,,,,,,,,,0,,,78,0
337760,note_on,0,0,1,,,,,,,,,,,,,,,0,,,73,0
337920,note_on,160,0,1,,,,,,,,,,,,,,,0,,,78,0
337920,note_on,0,0,1,,,,,,,,,,,,,,,0,,,73,0
337920,note_on,0,0,1,,,,,,,,,,,,,,,0,,,73,56
337920,set_tempo,1200,1,0,,,,,,,,,,,,697674,,,,,,,
337920,note_on,0,0,1,,,,,,,,,,,,,,,0,,,85,0
337920,control_change,0,0,2,,,,,,,,,,,,,,,0,64,0,,
337920,control_change,0,0,2,,,,,,,,,,,,,,,0,64,0,,
337920,note_on,388,0,2,,,,,,,,,,,,,,,0,,,54,0
337920,note_on,0,0,2,,,,,,,,,,,,,,,0,,,54,41
337960,set_tempo,40,1,0,,,,,,,,,,,,714286,,,,,,,
337976,control_change,56,0,2,,,,,,,,,,,,,,,0,64,127,,
338040,set_tempo,80,1,0,,,,,,,,,,,,710059,,,,,,,
338080,note_on,160,0,1,,,,,,,,,,,,,,,0,,,66,27
338080,note_on,0,0,1,,,,,,,,,,,,,,,0,,,69,32
338120,set_tempo,80,1,0,,,,,,,,,,,,705882,,,,,,,
338200,set_tempo,80,1,0,,,,,,,,,,,,701754,,,,,,,
338240,note_on,160,0,1,,,,,,,,,,,,,,,0,,,69,0
338240,note_on,0,0,1,,,,,,,,,,,,,,,0,,,66,0
338240,note_on,0,0,1,,,,,,,,,,,,,,,0,,,66,27
338240,note_on,0,0,1,,,,,,,,,,,,,,,0,,,69,32
338280,set_tempo,80,1,0,,,,,,,,,,,,697674,,,,,,,
338360,set_tempo,80,1,0,,,,,,,,,,,,693642,,,,,,,
338400,note_on,424,0,2,,,,,,,,,,,,,,,0,,,54,0
338400,note_on,0,0,1,,,,,,,,,,,,,,,0,,,77,56
338400,note_on,0,0,2,,,,,,,,,,,,,,,0,,,56,42
338400,note_on,0,0,1,,,,,,,,,,,,,,,0,,,66,0
338400,note_on,0,0,1,,,,,,,,,,,,,,,0,,,73,0
338400,set_tempo,40,1,0,,,,,,,,,,,,689655,,,,,,,
338400,note_on,160,0,1,,,,,,,,,,,,,,,0,,,69,0
338429,control_change,29,0,2,,,,,,,,,,,,,,,0,64,0,,
338440,set_tempo,40,1,0,,,,,,,,,,,,697674,,,,,,,
338441,control_change,12,0,2,,,,,,,,,,,,,,,0,64,127,,
338560,note_on,0,0,1,,,,,,,,,,,,,,,0,,,71,33
338560,note_on,0,0,1,,,,,,,,,,,,,,,0,,,65,27
338560,note_on,160,0,1,,,,,,,,,,,,,,,0,,,73,33
338640,set_tempo,200,1,0,,,,,,,,,,,,718563,,,,,,,
338720,note_on,0,0,1,,,,,,,,,,,,,,,0,,,71,34
338720,note_on,0,0,1,,,,,,,,,,,,,,,0,,,65,27
338720,note_on,0,0,1,,,,,,,,,,,,,,,0,,,73,34
338720,note_on,0,0,1,,,,,,,,,,,,,,,0,,,73,0
338720,note_on,0,0,1,,,,,,,,,,,,,,,0,,,65,0
338720,note_on,160,0,1,,,,,,,,,,,,,,,0,,,71,0
338866,control_change,425,0,2,,,,,,,,,,,,,,,0,64,0,,
338880,set_tempo,240,1,0,,,,,,,,,,,,685714,,,,,,,
338880,note_on,0,0,1,,,,,,,,,,,,,,,0,,,78,58
338880,note_on,0,0,1,,,,,,,,,,,,,,,0,,,73,0
338880,note_on,0,0,1,,,,,,,,,,,,,,,0,,,77,0
338880,note_on,160,0,1,,,,,,,,,,,,,,,0,,,71,0
338880,note_on,0,0,1,,,,,,,,,,,,,,,0,,,65,0
338880,note_on,14,0,2,,,,,,,,,,,,,,,0,,,56,0
338880,note_on,0,0,2,,,,,,,,,,,,,,,0,,,57,47
338929,control_change,49,0,2,,,,,,,,,,,,,,,0,64,127,,
339040,note_on,160,0,1,,,,,,,,,,,,,,,0,,,73,34
339040,note_on,0,0,1,,,,,,,,,,,,,,,0,,,66,28
339040,note_on,0,0,1,,,,,,,,,,,,,,,0,,,69,34
339200,note_on,0,0,1,,,,,,,,,,,,,,,0,,,69,35
339200,note_on,0,0,1,,,,,,,,,,,,,,,0,,,66,29
339200,note_on,0,0,1,,,,,,,,,,,,,,,0,,,73,35
339200,note_on,0,0,1,,,,,,,,,,,,,,,0,,,73,0
339200,note_on,0,0,1,,,,,,,,,,,,,,,0,,,66,0
339200,note_on,160,0,1,,,,,,,,,,,,,,,0,,,69,0
339360,note_on,0,0,2,,,,,,,,,,,,,,,0,,,59,37
339360,note_on,0,0,2,,,,,,,,,,,,,,,0,,,52,31
339360,note_on,431,0,2,,,,,,,,,,,,,,,0,,,57,0
339360,note_on,160,0,1,,,,,,,,,,,,,,,0,,,69,0
339360,note_on,0,0,1,,,,,,,,,,,,,,,0,,,78,0
339360,note_on,0,0,1,,,,,,,,,,,,,,,0,,,73,0
339360,note_on,0,0,1,,,,,,,,,,,,,,,0,,,66,0
339360,note_on,0,0,1,,,,,,,,,,,,,,,0,,,80,62
339360,set_tempo,480,1,0,,,,,,,,,,,,710059,,,,,,,
339401,control_change,41,0,2,,,,,,,,,,,,,,,0,64,0,,
339452,control_change,51,0,2,,,,,,,,,,,,,,,0,64,127,,
339520,note_on,160,0,1,,,,,,,,,,,,,,,0,,,76,36
339520,note_on,0,0,1,,,,,,,,,,,,,,,0,,,68,29
339520,note_on,0,0,1,,,,,,,,,,,,,,,0,,,74,36
339680,note_on,0,0,1,,,,,,,,,,,,,,,0,,,76,0
339680,note_on,0,0,1,,,,,,,,,,,,,,,0,,,74,36
339680,note_on,0,0,1,,,,,,,,,,,,,,,0,,,68,29
339680,note_on,0,0,1,,,,,,,,,,,,,,,0,,,76,36
339680,note_on,0,0,1,,,,,,,,,,,,,,,0,,,68,0
339680,note_on,160,0,1,,,,,,,,,,,,,,,0,,,74,0
339840,note_on,0,0,1,,,,,,,,,,,,,,,0,,,76,0
339840,note_on,0,0,1,,,,,,,,,,,,,,,0,,,80,0
339840,note_on,160,0,1,,,,,,,,,,,,,,,0,,,74,0
339840,note_on,0,0,1,,,,,,,,,,,,,,,0,,,81,61
339840,control_change,0,0,2,,,,,,,,,,,,,,,0,64,0,,
339840,control_change,0,0,2,,,,,,,,,,,,,,,0,64,0,,
339840,note_on,0,0,2,,,,,,,,,,,,,,,0,,,61,47
339840,note_on,0,0,2,,,,,,,,,,,,,,,0,,,57,39
339840,note_on,0,0,2,,,,,,,,,,,,,,,0,,,52,0
339840,note_on,388,0,2,,,,,,,,,,,,,,,0,,,59,0
339840,set_tempo,480,1,0,,,,,,,,,,,,693642,,,,,,,
339840,note_on,0,0,1,,,,,,,,,,,,,,,0,,,68,0
339896,control_change,56,0,2,,,,,,,,,,,,,,,0,64,127,,
340000,note_on,0,0,1,,,,,,,,,,,,,,,0,,,73,30
340000,note_on,0,0,1,,,,,,,,,,,,,,,0,,,76,36
340000,note_on,160,0,1,,,,,,,,,,,,,,,0,,,69,30
340160,note_on,0,0,1,,,,,,,,,,,,,,,0,,,73,0
340160,note_on,0,0,1,,,,,,,,,,,,,,,0,,,76,36
340160,note_on,0,0,1,,,,,,,,,,,,,,,0,,,73,29
340160,note_on,0,0,1,,,,,,,,,,,,,,,0,,,69,29
340160,note_on,0,0,1,,,,,,,,,,,,,,,0,,,69,0
340160,note_on,160,0,1,,,,,,,,,,,,,,,0,,,76,0
340320,note_on,160,0,1,,,,,,,,,,,,,,,0,,,76,0
340320,note_on,0,0,1,,,,,,,,,,,,,,,0,,,81,0
340320,note_on,0,0,1,,,,,,,,,,,,,,,0,,,69,0
340320,note_on,0,0,1,,,,,,,,,,,,,,,0,,,73,0
340320,note_on,0,0,1,,,,,,,,,,,,,,,0,,,83,60
340320,note_on,0,0,2,,,,,,,,,,,,,,,0,,,61,45
340320,note_on,0,0,2,,,,,,,,,,,,,,,0,,,56,38
340320,note_on,0,0,2,,,,,,,,,,,,,,,0,,,57,0
340320,note_on,424,0,2,,,,,,,,,,,,,,,0,,,61,0
340349,control_change,29,0,2,,,,,,,,,,,,,,,0,64,0,,
340361,control_change,12,0,2,,,,,,,,,,,,,,,0,64,127,,
340480,note_on,160,0,1,,,,,,,,,,,,,,,0,,,77,35
340480,note_on,0,0,1,,,,,,,,,,,,,,,0,,,71,28
340480,note_on,0,0,1,,,,,,,,,,,,,,,0,,,73,35
340560,set_tempo,720,1,0,,,,,,,,,,,,738643,,,,,,,
340640,note_on,0,0,1,,,,,,,,,,,,,,,0,,,77,34
340640,note_on,0,0,1,,,,,,,,,,,,,,,0,,,71,28
340640,note_on,0,0,1,,,,,,,,,,,,,,,0,,,77,0
340640,note_on,160,0,1,,,,,,,,,,,,,,,0,,,73,0
340640,note_on,0,0,1,,,,,,,,,,,,,,,0,,,73,34
340640,note_on,0,0,1,,,,,,,,,,,,,,,0,,,71,0
340786,control_change,425,0,2,,,,,,,,,,,,,,,0,64,0,,
340800,note_on,0,0,2,,,,,,,,,,,,,,,0,,,61,46
340800,note_on,0,0,1,,,,,,,,,,,,,,,0,,,71,0
340800,note_on,0,0,1,,,,,,,,,,,,,,,0,,,81,57
340800,note_on,0,0,1,,,,,,,,,,,,,,,0,,,77,0
340800,note_on,0,0,2,,,,,,,,,,,,,,,0,,,56,0
340800,note_on,14,0,2,,,,,,,,,,,,,,,0,,,61,0
340800,note_on,0,0,2,,,,,,,,,,,,,,,0,,,54,38
340800,note_on,0,0,1,,,,,,,,,,,,,,,0,,,83,0
340800,note_on,160,0,1,,,,,,,,,,,,,,,0,,,73,0
340849,control_change,49,0,2,,,,,,,,,,,,,,,0,64,127,,
340960,note_on,160,0,1,,,,,,,,,,,,,,,0,,,78,33
340960,note_on,0,0,1,,,,,,,,,,,,,,,0,,,66,27
340960,note_on,0,0,1,,,,,,,,,,,,,,,0,,,73,33
341120,note_on,0,0,1,,,,,,,,,,,,,,,0,,,78,32
341120,note_on,0,0,1,,,,,,,,,,,,,,,0,,,73,32
341120,note_on,0,0,1,,,,,,,,,,,,,,,0,,,66,27
341120,note_on,0,0,1,,,,,,,,,,,,,,,0,,,78,0
341120,note_on,0,0,1,,,,,,,,,,,,,,,0,,,66,0
341120,note_on,160,0,1,,,,,,,,,,,,,,,0,,,73,0
341280,note_on,0,0,1,,,,,,,,,,,,,,,0,,,80,56
341280,note_on,0,0,1,,,,,,,,,,,,,,,0,,,66,0
341280,note_on,0,0,2,,,,,,,,,,,,,,,0,,,54,0
341280,note_on,160,0,1,,,,,,,,,,,,,,,0,,,73,0
341280,note_on,0,0,1,,,,,,,,,,,,,,,0,,,81,0
341280,note_on,0,0,2,,,,,,,,,,,,,,,0,,,62,39
341280,note_on,431,0,2,,,,,,,,,,,,,,,0,,,61,0
341280,note_on,0,0,1,,,,,,,,,,,,,,,0,,,78,0
341280,note_on,0,0,2,,,,,,,,,,,,,,,0,,,52,33
341321,control_change,41,0,2,,,,,,,,,,,,,,,0,64,0,,
341372,control_change,51,0,2,,,,,,,,,,,,,,,0,64,127,,
341440,note_on,160,0,1,,,,,,,,,,,,,,,0,,,76,32
341440,note_on,0,0,1,,,,,,,,,,,,,,,0,,,68,27
341440,note_on,0,0,1,,,,,,,,,,,,,,,0,,,71,32
341600,note_on,0,0,1,,,,,,,,,,,,,,,0,,,68,0
341600,note_on,160,0,1,,,,,,,,,,,,,,,0,,,71,0
341600,note_on,0,0,1,,,,,,,,,,,,,,,0,,,76,0
341600,note_on,0,0,1,,,,,,,,,,,,,,,0,,,76,32
341600,note_on,0,0,1,,,,,,,,,,,,,,,0,,,68,27
341600,note_on,0,0,1,,,,,,,,,,,,,,,0,,,71,32
341760,note_on,0,0,1,,,,,,,,,,,,,,,0,,,80,54
341760,note_on,0,0,1,,,,,,,,,,,,,,,0,,,68,0
341760,note_on,0,0,1,,,,,,,,,,,,,,,0,,,76,0
341760,note_on,0,0,1,,,,,,,,,,,,,,,0,,,80,0
341760,control_change,0,0,2,,,,,,,,,,,,,,,0,64,0,,
341760,note_on,0,0,2,,,,,,,,,,,,,,,0,,,62,39
341760,note_on,0,0,2,,,,,,,,,,,,,,,0,,,52,33
341760,note_on,0,0,2,,,,,,,,,,,,,,,0,,,52,0
341760,note_on,388,0,2,,,,,,,,,,,,,,,0,,,62,0
341760,note_on,160,0,1,,,,,,,,,,,,,,,0,,,71,0
341813,control_change,53,0,2,,,,,,,,,,,,,,,0,64,127,,
341920,note_on,160,0,1,,,,,,,,,,,,,,,0,,,68,26
341920,note_on,0,0,1,,,,,,,,,,,,,,,0,,,71,26
341920,note_on,0,0,1,,,,,,,,,,,,,,,0,,,76,31
342080,note_on,0,0,1,,,,,,,,,,,,,,,0,,,76,31
342080,note_on,0,0,1,,,,,,,,,,,,,,,0,,,71,26
342080,note_on,0,0,1,,,,,,,,,,,,,,,0,,,71,0
342080,note_on,0,0,1,,,,,,,,,,,,,,,0,,,68,0
342080,note_on,0,0,1,,,,,,,,,,,,,,,0,,,68,26
342080,note_on,160,0,1,,,,,,,,,,,,,,,0,,,76,0
342240,note_on,0,0,1,,,,,,,,,,,,,,,0,,,76,31
342240,note_on,0,0,1,,,,,,,,,,,,,,,0,,,71,26
342240,note_on,0,0,1,,,,,,,,,,,,,,,0,,,68,26
342240,note_on,0,0,1,,,,,,,,,,,,,,,0,,,71,0
342240,note_on,160,0,1,,,,,,,,,,,,,,,0,,,76,0
342240,note_on,0,0,1,,,,,,,,,,,,,,,0,,,68,0
342400,note_on,160,0,1,,,,,,,,,,,,,,,0,,,76,0
342400,note_on,0,0,1,,,,,,,,,,,,,,,0,,,71,0
342400,note_on,0,0,1,,,,,,,,,,,,,,,0,,,68,0
342400,note_on,0,0,1,,,,,,,,,,,,,,,0,,,71,26
342400,note_on,0,0,1,,,,,,,,,,,,,,,0,,,76,31
342400,note_on,0,0,1,,,,,,,,,,,,,,,0,,,68,26
342560,note_on,160,0,1,,,,,,,,,,,,,,,0,,,76,0
342560,note_on,0,0,1,,,,,,,,,,,,,,,0,,,71,0
342560,note_on,0,0,1,,,,,,,,,,,,,,,0,,,68,0
342560,note_on,0,0,1,,,,,,,,,,,,,,,0,,,68,27
342560,note_on,0,0,1,,,,,,,,,,,,,,,0,,,71,27
342560,note_on,0,0,1,,,,,,,,,,,,,,,0,,,76,32
342720,note_on,0,0,1,,,,,,,,,,,,,,,0,,,80,0
342720,note_on,0,0,1,,,,,,,,,,,,,,,0,,,71,0
342720,note_on,0,0,1,,,,,,,,,,,,,,,0,,,68,0
342720,note_on,0,0,2,,,,,,,,,,,,,,,0,,,53,30
342720,note_on,0,0,2,,,,,,,,,,,,,,,0,,,61,37
342720,note_on,160,0,1,,,,,,,,,,,,,,,0,,,76,0
342720,note_on,0,0,2,,,,,,,,,,,,,,,0,,,52,0
342720,note_on,907,0,2,,,,,,,,,,,,,,,0,,,62,0
342720,note_on,0,0,1,,,,,,,,,,,,,,,0,,,80,55
342745,control_change,25,0,2,,,,,,,,,,,,,,,0,64,0,,
342773,control_change,28,0,2,,,,,,,,,,,,,,,0,64,127,,
342880,note_on,0,0,1,,,,,,,,,,,,,,,0,,,73,29
342880,note_on,0,0,1,,,,,,,,,,,,,,,0,,,71,25
342880,note_on,160,0,1,,,,,,,,,,,,,,,0,,,68,25
343040,note_on,0,0,1,,,,,,,,,,,,,,,0,,,68,0
343040,note_on,0,0,1,,,,,,,,,,,,,,,0,,,68,25
343040,note_on,0,0,1,,,,,,,,,,,,,,,0,,,71,25
343040,note_on,160,0,1,,,,,,,,,,,,,,,0,,,73,0
343040,note_on,0,0,1,,,,,,,,,,,,,,,0,,,71,0
343040,note_on,0,0,1,,,,,,,,,,,,,,,0,,,73,30
343200,note_on,0,0,2,,,,,,,,,,,,,,,0,,,54,30
343200,note_on,0,0,2,,,,,,,,,,,,,,,0,,,53,0
343200,note_on,427,0,2,,,,,,,,,,,,,,,0,,,61,0
343200,note_on,0,0,2,,,,,,,,,,,,,,,0,,,61,36
343200,note_on,0,0,1,,,,,,,,,,,,,,,0,,,71,0
343200,note_on,0,0,1,,,,,,,,,,,,,,,0,,,80,0
343200,note_on,0,0,1,,,,,,,,,,,,,,,0,,,68,0
343200,note_on,0,0,1,,,,,,,,,,,,,,,0,,,81,54
343200,note_on,160,0,1,,,,,,,,,,,,,,,0,,,73,0
343214,control_change,14,0,2,,,,,,,,,,,,,,,0,64,0,,
343260,control_change,46,0,2,,,,,,,,,,,,,,,0,64,127,,
343360,note_on,160,0,1,,,,,,,,,,,,,,,0,,,69,25
343360,note_on,0,0,1,,,,,,,,,,,,,,,0,,,73,29
343520,note_on,0,0,1,,,,,,,,,,,,,,,0,,,69,0
343520,note_on,0,0,1,,,,,,,,,,,,,,,0,,,69,25
343520,note_on,0,0,1,,,,,,,,,,,,,,,0,,,73,29
343520,note_on,160,0,1,,,,,,,,,,,,,,,0,,,73,0
343680,note_on,0,0,2,,,,,,,,,,,,,,,0,,,54,32
343680,note_on,0,0,2,,,,,,,,,,,,,,,0,,,61,42
343680,note_on,0,0,2,,,,,,,,,,,,,,,0,,,54,0
343680,note_on,420,0,2,,,,,,,,,,,,,,,0,,,61,0
343680,control_change,0,0,2,,,,,,,,,,,,,,,0,64,0,,
343680,note_on,0,0,1,,,,,,,,,,,,,,,0,,,69,0
343680,note_on,160,0,1,,,,,,,,,,,,,,,0,,,73,0
343680,set_tempo,3120,1,0,,,,,,,,,,,,723327,,,,,,,
343680,note_on,0,0,1,,,,,,,,,,,,,,,0,,,78,53
343680,note_on,0,0,1,,,,,,,,,,,,,,,0,,,81,0
343694,control_change,14,0,2,,,,,,,,,,,,,,,0,64,0,,
343729,control_change,35,0,2,,,,,,,,,,,,,,,0,64,127,,
343840,note_on,0,0,1,,,,,,,,,,,,,,,0,,,73,32
343840,note_on,160,0,1,,,,,,,,,,,,,,,0,,,69,27
344000,note_on,0,0,1,,,,,,,,,,,,,,,0,,,73,32
344000,note_on,0,0,1,,,,,,,,,,,,,,,0,,,69,27
344000,note_on,0,0,1,,,,,,,,,,,,,,,0,,,69,0
344000,note_on,160,0,1,,,,,,,,,,,,,,,0,,,73,0
344160,note_on,0,0,1,,,,,,,,,,,,,,,0,,,81,53
344160,note_on,0,0,1,,,,,,,,,,,,,,,0,,,78,0
344160,note_on,0,0,1,,,,,,,,,,,,,,,0,,,69,0
344160,note_on,160,0,1,,,,,,,,,,,,,,,0,,,73,0
344320,note_on,0,0,1,,,,,,,,,,,,,,,0,,,73,31
344320,note_on,160,0,1,,,,,,,,,,,,,,,0,,,69,26
344400,note_on,0,0,2,,,,,,,,,,,,,,,0,,,59,38
344400,note_on,671,0,2,,,,,,,,,,,,,,,0,,,61,0
344440,set_tempo,760,1,0,,,,,,,,,,,,738643,,,,,,,
344480,note_on,0,0,1,,,,,,,,,,,,,,,0,,,73,31
344480,note_on,0,0,1,,,,,,,,,,,,,,,0,,,69,0
344480,note_on,0,0,1,,,,,,,,,,,,,,,0,,,69,26
344480,note_on,160,0,1,,,,,,,,,,,,,,,0,,,73,0
344640,control_change,0,0,2,,,,,,,,,,,,,,,0,64,0,,
344640,note_on,0,0,2,,,,,,,,,,,,,,,0,,,57,41
344640,note_on,240,0,2,,,,,,,,,,,,,,,0,,,59,0
344640,note_on,160,0,1,,,,,,,,,,,,,,,0,,,73,0
344640,note_on,0,0,1,,,,,,,,,,,,,,,0,,,81,0
344640,note_on,0,0,1,,,,,,,,,,,,,,,0,,,69,0
344640,note_on,0,0,1,,,,,,,,,,,,,,,0,,,78,53
344689,control_change,49,0,2,,,,,,,,,,,,,,,0,64,127,,
344800,note_on,160,0,1,,,,,,,,,,,,,,,0,,,69,27
344800,note_on,0,0,1,,,,,,,,,,,,,,,0,,,73,32
344880,note_on,191,0,2,,,,,,,,,,,,,,,0,,,57,0
344880,note_on,0,0,2,,,,,,,,,,,,,,,0,,,54,0
344960,note_on,0,0,1,,,,,,,,,,,,,,,0,,,69,27
344960,note_on,0,0,1,,,,,,,,,,,,,,,0,,,69,0
344960,note_on,160,0,1,,,,,,,,,,,,,,,0,,,73,0
344960,note_on,0,0,1,,,,,,,,,,,,,,,0,,,73,32
345113,control_change,233,0,2,,,,,,,,,,,,,,,0,64,0,,
345120,set_tempo,680,1,0,,,,,,,,,,,,728332,,,,,,,
345120,note_on,7,0,2,,,,,,,,,,,,,,,0,,,54,32
345120,note_on,0,0,2,,,,,,,,,,,,,,,0,,,57,38
345120,note_on,0,0,1,,,,,,,,,,,,,,,0,,,69,0
345120,note_on,0,0,1,,,,,,,,,,,,,,,0,,,81,53
345120,note_on,0,0,1,,,,,,,,,,,,,,,0,,,78,0
345120,note_on,160,0,1,,,,,,,,,,,,,,,0,,,73,0
345162,control_change,42,0,2,,,,,,,,,,,,,,,0,64,127,,
345280,note_on,160,0,1,,,,,,,,,,,,,,,0,,,69,26
345280,note_on,0,0,1,,,,,,,,,,,,,,,0,,,73,31
345440,note_on,0,0,1,,,,,,,,,,,,,,,0,,,69,26
345440,note_on,0,0,1,,,,,,,,,,,,,,,0,,,69,0
345440,note_on,160,0,1,,,,,,,,,,,,,,,0,,,73,0
345440,note_on,0,0,1,,,,,,,,,,,,,,,0,,,73,31
345600,note_on,0,0,1,,,,,,,,,,,,,,,0,,,81,56
345600,control_change,0,0,2,,,,,,,,,,,,,,,0,64,0,,
345600,note_on,0,0,1,,,,,,,,,,,,,,,0,,,69,0
345600,note_on,160,0,1,,,,,,,,,,,,,,,0,,,73,0
345600,note_on,438,0,2,,,,,,,,,,,,,,,0,,,57,0
345600,note_on,0,0,2,,,,,,,,,,,,,,,0,,,54,0
345600,note_on,0,0,2,,,,,,,,,,,,,,,0,,,54,34
345600,note_on,0,0,2,,,,,,,,,,,,,,,0,,,57,41
345600,note_on,0,0,1,,,,,,,,,,,,,,,0,,,81,0
345656,control_change,56,0,2,,,,,,,,,,,,,,,0,64,127,,
345760,note_on,160,0,1,,,,,,,,,,,,,,,0,,,73,27
345760,note_on,0,0,1,,,,,,,,,,,,,,,0,,,78,32
345920,note_on,160,0,1,,,,,,,,,,,,,,,0,,,78,0
345920,note_on,0,0,1,,,,,,,,,,,,,,,0,,,73,0
345920,note_on,0,0,1,,,,,,,,,,,,,,,0,,,78,32
345920,note_on,0,0,1,,,,,,,,,,,,,,,0,,,73,27
346080,note_on,160,0,1,,,,,,,,,,,,,,,0,,,78,0
346080,note_on,0,0,1,,,,,,,,,,,,,,,0,,,73,0
346080,note_on,0,0,1,,,,,,,,,,,,,,,0,,,81,0
346080,note_on,0,0,1,,,,,,,,,,,,,,,0,,,85,55
346240,note_on,160,0,1,,,,,,,,,,,,,,,0,,,73,27
346240,note_on,0,0,1,,,,,,,,,,,,,,,0,,,78,32
346320,note_on,664,0,2,,,,,,,,,,,,,,,0,,,57,0
346320,set_tempo,1200,1,0,,,,,,,,,,,,738643,,,,,,,
346320,note_on,0,0,2,,,,,,,,,,,,,,,0,,,56,41
346400,note_on,0,0,1,,,,,,,,,,,,,,,0,,,73,27
346400,note_on,0,0,1,,,,,,,,,,,,,,,0,,,73,0
346400,note_on,160,0,1,,,,,,,,,,,,,,,0,,,78,0
346400,note_on,0,0,1,,,,,,,,,,,,,,,0,,,78,32
346546,control_change,226,0,2,,,,,,,,,,,,,,,0,64,0,,
346560,note_on,160,0,1,,,,,,,,,,,,,,,0,,,78,0
346560,note_on,0,0,1,,,,,,,,,,,,,,,0,,,85,0
346560,note_on,0,0,1,,,,,,,,,,,,,,,0,,,81,55
346560,note_on,0,0,2,,,,,,,,,,,,,,,0,,,54,44
346560,note_on,0,0,2,,,,,,,,,,,,,,,0,,,54,0
346560,note_on,14,0,2,,,,,,,,,,,,,,,0,,,56,0
346560,note_on,0,0,1,,,,,,,,,,,,,,,0,,,73,0
346609,control_change,49,0,2,,,,,,,,,,,,,,,0,64,127,,
346720,note_on,0,0,1,,,,,,,,,,,,,,,0,,,78,32
346720,note_on,160,0,1,,,,,,,,,,,,,,,0,,,73,27
346800,note_on,191,0,2,,,,,,,,,,,,,,,0,,,54,0
346880,note_on,0,0,1,,,,,,,,,,,,,,,0,,,78,32
346880,note_on,160,0,1,,,,,,,,,,,,,,,0,,,78,0
346880,note_on,0,0,1,,,,,,,,,,,,,,,0,,,73,0
346880,note_on,0,0,1,,,,,,,,,,,,,,,0,,,73,27
347040,note_on,0,0,1,,,,,,,,,,,,,,,0,,,85,56
347040,note_on,240,0,2,,,,,,,,,,,,,,,0,,,54,34
347040,note_on,0,0,1,,,,,,,,,,,,,,,0,,,81,0
347040,note_on,0,0,1,,,,,,,,,,,,,,,0,,,73,0
347040,note_on,160,0,1,,,,,,,,,,,,,,,0,,,78,0
347068,control_change,28,0,2,,,,,,,,,,,,,,,0,64,0,,
347132,control_change,64,0,2,,,,,,,,,,,,,,,0,64,127,,
347200,note_on,160,0,1,,,,,,,,,,,,,,,0,,,73,27
347200,note_on,0,0,1,,,,,,,,,,,,,,,0,,,78,32
347360,note_on,0,0,1,,,,,,,,,,,,,,,0,,,73,0
347360,note_on,0,0,1,,,,,,,,,,,,,,,0,,,78,32
347360,note_on,0,0,1,,,,,,,,,,,,,,,0,,,73,27
347360,note_on,160,0,1,,,,,,,,,,,,,,,0,,,78,0
347520,note_on,0,0,1,,,,,,,,,,,,,,,0,,,85,0
347520,note_on,0,0,1,,,,,,,,,,,,,,,0,,,73,0
347520,note_on,160,0,1,,,,,,,,,,,,,,,0,,,78,0
347520,note_on,0,0,1,,,,,,,,,,,,,,,0,,,73,56
347520,set_tempo,1200,1,0,,,,,,,,,,,,705882,,,,,,,
347520,note_on,388,0,2,,,,,,,,,,,,,,,0,,,54,0
347520,control_change,0,0,2,,,,,,,,,,,,,,,0,64,0,,
347520,control_change,0,0,2,,,,,,,,,,,,,,,0,64,0,,
347520,note_on,0,0,2,,,,,,,,,,,,,,,0,,,54,41
347576,control_change,56,0,2,,,,,,,,,,,,,,,0,64,127,,
347680,note_on,0,0,1,,,,,,,,,,,,,,,0,,,69,32
347680,note_on,160,0,1,,,,,,,,,,,,,,,0,,,66,27
347840,note_on,0,0,1,,,,,,,,,,,,,,,0,,,69,32
347840,note_on,0,0,1,,,,,,,,,,,,,,,0,,,66,27
347840,note_on,0,0,1,,,,,,,,,,,,,,,0,,,66,0
347840,note_on,160,0,1,,,,,,,,,,,,,,,0,,,69,0
348000,note_on,0,0,1,,,,,,,,,,,,,,,0,,,77,56
348000,note_on,0,0,1,,,,,,,,,,,,,,,0,,,73,0
348000,note_on,0,0,1,,,,,,,,,,,,,,,0,,,66,0
348000,note_on,160,0,1,,,,,,,,,,,,,,,0,,,69,0
348000,set_tempo,480,1,0,,,,,,,,,,,,689655,,,,,,,
348000,note_on,0,0,2,,,,,,,,,,,,,,,0,,,56,42
348000,note_on,424,0,2,,,,,,,,,,,,,,,0,,,54,0
348029,control_change,29,0,2,,,,,,,,,,,,,,,0,64,0,,
348041,control_change,12,0,2,,,,,,,,,,,,,,,0,64,127,,
348160,note_on,160,0,1,,,,,,,,,,,,,,,0,,,73,33
348160,note_on,0,0,1,,,,,,,,,,,,,,,0,,,65,27
348160,note_on,0,0,1,,,,,,,,,,,,,,,0,,,71,33
348240,set_tempo,240,1,0,,,,,,,,,,,,718563,,,,,,,
348320,note_on,0,0,1,,,,,,,,,,,,,,,0,,,65,27
348320,note_on,0,0,1,,,,,,,,,,,,,,,0,,,71,34
348320,note_on,0,0,1,,,,,,,,,,,,,,,0,,,73,34
348320,note_on,0,0,1,,,,,,,,,,,,,,,0,,,73,0
348320,note_on,0,0,1,,,,,,,,,,,,,,,0,,,65,0
348320,note_on,160,0,1,,,,,,,,,,,,,,,0,,,71,0
348466,control_change,425,0,2,,,,,,,,,,,,,,,0,64,0,,
348480,note_on,0,0,1,,,,,,,,,,,,,,,0,,,65,0
348480,note_on,14,0,2,,,,,,,,,,,,,,,0,,,56,0
348480,note_on,0,0,2,,,,,,,,,,,,,,,0,,,57,47
348480,note_on,0,0,1,,,,,,,,,,,,,,,0,,,77,0
348480,note_on,0,0,1,,,,,,,,,,,,,,,0,,,73,0
348480,note_on,0,0,1,,,,,,,,,,,,,,,0,,,78,58
348480,note_on,160,0,1,,,,,,,,,,,,,,,0,,,71,0
348480,set_tempo,240,1,0,,,,,,,,,,,,689655,,,,,,,
348529,control_change,49,0,2,,,,,,,,,,,,,,,0,64,127,,
348640,note_on,160,0,1,,,,,,,,,,,,,,,0,,,73,34
348640,note_on,0,0,1,,,,,,,,,,,,,,,0,,,69,34
348640,note_on,0,0,1,,,,,,,,,,,,,,,0,,,66,28
348800,note_on,0,0,1,,,,,,,,,,,,,,,0,,,66,29
348800,note_on,0,0,1,,,,,,,,,,,,,,,0,,,69,35
348800,note_on,0,0,1,,,,,,,,,,,,,,,0,,,66,0
348800,note_on,160,0,1,,,,,,,,,,,,,,,0,,,69,0
348800,note_on,0,0,1,,,,,,,,,,,,,,,0,,,73,35
348800,note_on,0,0,1,,,,,,,,,,,,,,,0,,,73,0
348960,note_on,431,0,2,,,,,,,,,,,,,,,0,,,57,0
348960,note_on,0,0,2,,,,,,,,,,,,,,,0,,,52,31
348960,note_on,0,0,2,,,,,,,,,,,,,,,0,,,59,37
348960,note_on,0,0,1,,,,,,,,,,,,,,,0,,,80,62
348960,set_tempo,480,1,0,,,,,,,,,,,,705882,,,,,,,
348960,note_on,0,0,1,,,,,,,,,,,,,,,0,,,73,0
348960,note_on,0,0,1,,,,,,,,,,,,,,,0,,,78,0
348960,note_on,160,0,1,,,,,,,,,,,,,,,0,,,69,0
348960,note_on,0,0,1,,,,,,,,,,,,,,,0,,,66,0
349001,control_change,41,0,2,,,,,,,,,,,,,,,0,64,0,,
349052,control_change,51,0,2,,,,,,,,,,,,,,,0,64,127,,
349120,note_on,160,0,1,,,,,,,,,,,,,,,0,,,76,36
349120,note_on,0,0,1,,,,,,,,,,,,,,,0,,,68,29
349120,note_on,0,0,1,,,,,,,,,,,,,,,0,,,74,36
349280,note_on,0,0,1,,,,,,,,,,,,,,,0,,,74,36
349280,note_on,0,0,1,,,,,,,,,,,,,,,0,,,76,0
349280,note_on,0,0,1,,,,,,,,,,,,,,,0,,,76,36
349280,note_on,0,0,1,,,,,,,,,,,,,,,0,,,68,0
349280,note_on,160,0,1,,,,,,,,,,,,,,,0,,,74,0
349280,note_on,0,0,1,,,,,,,,,,,,,,,0,,,68,29
349440,control_change,0,0,2,,,,,,,,,,,,,,,0,64,0,,
349440,note_on,0,0,2,,,,,,,,,,,,,,,0,,,57,39
349440,note_on,0,0,2,,,,,,,,,,,,,,,0,,,61,47
349440,control_change,0,0,2,,,,,,,,,,,,,,,0,64,0,,
349440,note_on,0,0,2,,,,,,,,,,,,,,,0,,,52,0
349440,note_on,0,0,1,,,,,,,,,,,,,,,0,,,68,0
349440,note_on,0,0,1,,,,,,,,,,,,,,,0,,,81,61
349440,note_on,0,0,1,,,,,,,,,,,,,,,0,,,80,0
349440,set_tempo,480,1,0,,,,,,,,,,,,693642,,,,,,,
349440,note_on,0,0,1,,,,,,,,,,,,,,,0,,,76,0
349440,note_on,160,0,1,,,,,,,,,,,,,,,0,,,74,0
349440,note_on,388,0,2,,,,,,,,,,,,,,,0,,,59,0
349496,control_change,56,0,2,,,,,,,,,,,,,,,0,64,127,,
349600,note_on,160,0,1,,,,,,,,,,,,,,,0,,,69,30
349600,note_on,0,0,1,,,,,,,,,,,,,,,0,,,73,30
349600,note_on,0,0,1,,,,,,,,,,,,,,,0,,,76,36
349760,note_on,0,0,1,,,,,,,,,,,,,,,0,,,76,36
349760,note_on,0,0,1,,,,,,,,,,,,,,,0,,,69,0
349760,note_on,0,0,1,,,,,,,,,,,,,,,0,,,73,0
349760,note_on,160,0,1,,,,,,,,,,,,,,,0,,,76,0
349760,note_on,0,0,1,,,,,,,,,,,,,,,0,,,73,29
349760,note_on,0,0,1,,,,,,,,,,,,,,,0,,,69,29
349920,note_on,0,0,1,,,,,,,,,,,,,,,0,,,69,0
349920,note_on,0,0,1,,,,,,,,,,,,,,,0,,,73,0
349920,note_on,0,0,1,,,,,,,,,,,,,,,0,,,81,0
349920,note_on,0,0,1,,,,,,,,,,,,,,,0,,,83,60
349920,note_on,424,0,2,,,,,,,,,,,,,,,0,,,61,0
349920,note_on,0,0,2,,,,,,,,,,,,,,,0,,,57,0
349920,note_on,0,0,2,,,,,,,,,,,,,,,0,,,56,38
349920,note_on,0,0,2,,,,,,,,,,,,,,,0,,,61,45
349920,note_on,160,0,1,,,,,,,,,,,,,,,0,,,76,0
349949,control_change,29,0,2,,,,,,,,,,,,,,,0,64,0,,
349961,control_change,12,0,2,,,,,,,,,,,,,,,0,64,127,,
350080,note_on,160,0,1,,,,,,,,,,,,,,,0,,,77,35
350080,note_on,0,0,1,,,,,,,,,,,,,,,0,,,71,28
350080,note_on,0,0,1,,,,,,,,,,,,,,,0,,,73,35
350160,set_tempo,720,1,0,,,,,,,,,,,,738643,,,,,,,
350240,note_on,0,0,1,,,,,,,,,,,,,,,0,,,71,28
350240,note_on,160,0,1,,,,,,,,,,,,,,,0,,,73,0
350240,note_on,0,0,1,,,,,,,,,,,,,,,0,,,77,34
350240,note_on,0,0,1,,,,,,,,,,,,,,,0,,,77,0
350240,note_on,0,0,1,,,,,,,,,,,,,,,0,,,73,34
350240,note_on,0,0,1,,,,,,,,,,,,,,,0,,,71,0
350386,control_change,425,0,2,,,,,,,,,,,,,,,0,64,0,,
350400,note_on,0,0,2,,,,,,,,,,,,,,,0,,,54,38
350400,note_on,0,0,2,,,,,,,,,,,,,,,0,,,61,46
350400,note_on,0,0,1,,,,,,,,,,,,,,,0,,,71,0
350400,note_on,14,0,2,,,,,,,,,,,,,,,0,,,61,0
350400,note_on,0,0,1,,,,,,,,,,,,,,,0,,,81,57
350400,note_on,160,0,1,,,,,,,,,,,,,,,0,,,73,0
350400,note_on,0,0,1,,,,,,,,,,,,,,,0,,,83,0
350400,note_on,0,0,1,,,,,,,,,,,,,,,0,,,77,0
350400,note_on,0,0,2,,,,,,,,,,,,,,,0,,,56,0
350449,control_change,49,0,2,,,,,,,,,,,,,,,0,64,127,,
350560,note_on,160,0,1,,,,,,,,,,,,,,,0,,,78,33
350560,note_on,0,0,1,,,,,,,,,,,,,,,0,,,66,27
350560,note_on,0,0,1,,,,,,,,,,,,,,,0,,,73,33
350720,note_on,160,0,1,,,,,,,,,,,,,,,0,,,73,0
350720,note_on,0,0,1,,,,,,,,,,,,,,,0,,,66,0
350720,note_on,0,0,1,,,,,,,,,,,,,,,0,,,78,0
350720,note_on,0,0,1,,,,,,,,,,,,,,,0,,,78,32
350720,note_on,0,0,1,,,,,,,,,,,,,,,0,,,66,27
350720,note_on,0,0,1,,,,,,,,,,,,,,,0,,,73,32
350880,note_on,431,0,2,,,,,,,,,,,,,,,0,,,61,0
350880,note_on,0,0,2,,,,,,,,,,,,,,,0,,,54,0
350880,note_on,0,0,2,,,,,,,,,,,,,,,0,,,52,33
350880,note_on,0,0,1,,,,,,,,,,,,,,,0,,,80,56
350880,note_on,0,0,2,,,,,,,,,,,,,,,0,,,62,39
350880,note_on,0,0,1,,,,,,,,,,,,,,,0,,,78,0
350880,note_on,0,0,1,,,,,,,,,,,,,,,0,,,66,0
350880,note_on,0,0,1,,,,,,,,,,,,,,,0,,,81,0
350880,note_on,160,0,1,,,,,,,,,,,,,,,0,,,73,0
350921,control_change,41,0,2,,,,,,,,,,,,,,,0,64,0,,
350972,control_change,51,0,2,,,,,,,,,,,,,,,0,64,127,,
351040,note_on,160,0,1,,,,,,,,,,,,,,,0,,,76,32
351040,note_on,0,0,1,,,,,,,,,,,,,,,0,,,68,27
351040,note_on,0,0,1,,,,,,,,,,,,,,,0,,,71,32
351200,note_on,160,0,1,,,,,,,,,,,,,,,0,,,71,0
351200,note_on,0,0,1,,,,,,,,,,,,,,,0,,,76,0
351200,note_on,0,0,1,,,,,,,,,,,,,,,0,,,68,27
351200,note_on,0,0,1,,,,,,,,,,,,,,,0,,,68,0
351200,note_on,0,0,1,,,,,,,,,,,,,,,0,,,76,32
351200,note_on,0,0,1,,,,,,,,,,,,,,,0,,,71,32
351360,control_change,0,0,2,,,,,,,,,,,,,,,0,64,0,,
351360,note_on,0,0,2,,,,,,,,,,,,,,,0,,,62,39
351360,note_on,0,0,2,,,,,,,,,,,,,,,0,,,52,33
351360,note_on,0,0,2,,,,,,,,,,,,,,,0,,,52,0
351360,note_on,388,0,2,,,,,,,,,,,,,,,0,,,62,0
351360,note_on,160,0,1,,,,,,,,,,,,,,,0,,,71,0
351360,note_on,0,0,1,,,,,,,,,,,,,,,0,,,80,54
351360,note_on,0,0,1,,,,,,,,,,,,,,,0,,,68,0
351360,note_on,0,0,1,,,,,,,,,,,,,,,0,,,76,0
351360,note_on,0,0,1,,,,,,,,,,,,,,,0,,,80,0
351413,control_change,53,0,2,,,,,,,,,,,,,,,0,64,127,,
351520,note_on,160,0,1,,,,,,,,,,,,,,,0,,,68,26
351520,note_on,0,0,1,,,,,,,,,,,,,,,0,,,76,31
351520,note_on,0,0,1,,,,,,,,,,,,,,,0,,,71,26
351680,note_on,0,0,1,,,,,,,,,,,,,,,0,,,76,31
351680,note_on,0,0,1,,,,,,,,,,,,,,,0,,,68,26
351680,note_on,0,0,1,,,,,,,,,,,,,,,0,,,68,0
351680,note_on,0,0,1,,,,,,,,,,,,,,,0,,,71,26
351680,note_on,0,0,1,,,,,,,,,,,,,,,0,,,71,0
351680,note_on,160,0,1,,,,,,,,,,,,,,,0,,,76,0
351840,note_on,160,0,1,,,,,,,,,,,,,,,0,,,76,0
351840,note_on,0,0,1,,,,,,,,,,,,,,,0,,,71,0
351840,note_on,0,0,1,,,,,,,,,,,,,,,0,,,68,0
351840,note_on,0,0,1,,,,,,,,,,,,,,,0,,,68,26
351840,note_on,0,0,1,,,,,,,,,,,,,,,0,,,71,26
351840,note_on,0,0,1,,,,,,,,,,,,,,,0,,,76,31
352000,note_on,0,0,1,,,,,,,,,,,,,,,0,,,71,26
352000,note_on,0,0,1,,,,,,,,,,,,,,,0,,,68,26
352000,note_on,0,0,1,,,,,,,,,,,,,,,0,,,68,0
352000,note_on,0,0,1,,,,,,,,,,,,,,,0,,,71,0
352000,note_on,0,0,1,,,,,,,,,,,,,,,0,,,76,31
352000,note_on,160,0,1,,,,,,,,,,,,,,,0,,,76,0
352160,note_on,160,0,1,,,,,,,,,,,,,,,0,,,76,0
352160,note_on,0,0,1,,,,,,,,,,,,,,,0,,,76,32
352160,note_on,0,0,1,,,,,,,,,,,,,,,0,,,68,0
352160,note_on,0,0,1,,,,,,,,,,,,,,,0,,,68,27
352160,note_on,0,0,1,,,,,,,,,,,,,,,0,,,71,27
352160,note_on,0,0,1,,,,,,,,,,,,,,,0,,,71,0
352320,note_on,0,0,1,,,,,,,,,,,,,,,0,,,71,0
352320,note_on,0,0,1,,,,,,,,,,,,,,,0,,,81,49
352320,note_on,0,0,1,,,,,,,,,,,,,,,0,,,76,41
352320,note_on,0,0,1,,,,,,,,,,,,,,,0,,,73,41
352320,note_on,0,0,1,,,,,,,,,,,,,,,0,,,69,41
352320,note_on,0,0,1,,,,,,,,,,,,,,,0,,,68,0
352320,note_on,0,0,1,,,,,,,,,,,,,,,0,,,80,0
352320,note_on,0,0,2,,,,,,,,,,,,,,,0,,,57,37
352320,note_on,907,0,2,,,,,,,,,,,,,,,0,,,62,0
352320,note_on,0,0,2,,,,,,,,,,,,,,,0,,,52,0
352320,note_on,0,0,2,,,,,,,,,,,,,,,0,,,61,37
352320,note_on,160,0,1,,,,,,,,,,,,,,,0,,,76,0
352345,control_change,25,0,2,,,,,,,,,,,,,,,0,64,0,,
352373,control_change,28,0,2,,,,,,,,,,,,,,,0,64,127,,
352480,note_on,107,0,2,,,,,,,,,,,,,,,0,,,61,0
352480,note_on,0,0,2,,,,,,,,,,,,,,,0,,,57,0
352480,note_on,0,0,2,,,,,,,,,,,,,,,0,,,64,29
352560,note_on,240,0,1,,,,,,,,,,,,,,,0,,,81,0
352560,note_on,0,0,1,,,,,,,,,,,,,,,0,,,76,0
352560,note_on,0,0,1,,,,,,,,,,,,,,,0,,,69,0
352560,note_on,0,0,1,,,,,,,,,,,,,,,0,,,73,0
352640,note_on,0,0,2,,,,,,,,,,,,,,,0,,,64,29
352640,note_on,160,0,2,,,,,,,,,,,,,,,0,,,64,0
352800,note_on,160,0,2,,,,,,,,,,,,,,,0,,,64,0
352800,set_tempo,2640,1,0,,,,,,,,,,,,727802,,,,,,,
352800,note_on,0,0,2,,,,,,,,,,,,,,,0,,,64,33
352800,note_on,240,0,1,,,,,,,,,,,,,,,0,,,76,52
352814,control_change,14,0,2,,,,,,,,,,,,,,,0,64,0,,
352860,control_change,46,0,2,,,,,,,,,,,,,,,0,64,127,,
352960,note_on,100,0,2,,,,,,,,,,,,,,,0,,,64,0
352960,note_on,0,0,2,,,,,,,,,,,,,,,0,,,64,29
353120,note_on,0,0,2,,,,,,,,,,,,,,,0,,,64,29
353120,note_on,160,0,2,,,,,,,,,,,,,,,0,,,64,0
353240,set_tempo,440,1,0,,,,,,,,,,,,702658,,,,,,,
353280,note_on,480,0,1,,,,,,,,,,,,,,,0,,,76,0
353280,note_on,160,0,2,,,,,,,,,,,,,,,0,,,64,0
353280,set_tempo,40,1,0,,,,,,,,,,,,672570,,,,,,,
353280,control_change,0,0,2,,,,,,,,,,,,,,,0,64,0,,
353280,note_on,0,0,2,,,,,,,,,,,,,,,0,,,58,33
353280,note_on,0,0,1,,,,,,,,,,,,,,,0,,,76,54
353314,control_change,34,0,2,,,,,,,,,,,,,,,0,64,127,,
353400,note_on,86,0,2,,,,,,,,,,,,,,,0,,,58,0
353400,note_on,0,0,2,,,,,,,,,,,,,,,0,,,64,27
353520,set_tempo,240,1,0,,,,,,,,,,,,668077,,,,,,,
353520,note_on,0,0,2,,,,,,,,,,,,,,,0,,,61,27
353520,note_on,120,0,2,,,,,,,,,,,,,,,0,,,64,0
353640,note_on,0,0,2,,,,,,,,,,,,,,,0,,,64,27
353640,note_on,120,0,2,,,,,,,,,,,,,,,0,,,61,0
353760,set_tempo,240,1,0,,,,,,,,,,,,663497,,,,,,,
353760,note_on,0,0,2,,,,,,,,,,,,,,,0,,,58,33
353760,note_on,120,0,2,,,,,,,,,,,,,,,0,,,64,0
353880,note_on,120,0,2,,,,,,,,,,,,,,,0,,,58,0
353880,note_on,0,0,2,,,,,,,,,,,,,,,0,,,64,28
354000,note_on,0,0,2,,,,,,,,,,,,,,,0,,,61,28
354000,note_on,720,0,1,,,,,,,,,,,,,,,0,,,76,0
354000,note_on,0,0,1,,,,,,,,,,,,,,,0,,,74,51
354000,note_on,120,0,2,,,,,,,,,,,,,,,0,,,64,0
354120,note_on,120,0,2,,,,,,,,,,,,,,,0,,,61,0
354120,note_on,0,0,2,,,,,,,,,,,,,,,0,,,64,29
354240,note_on,240,0,1,,,,,,,,,,,,,,,0,,,74,0
354240,note_on,0,0,1,,,,,,,,,,,,,,,0,,,73,51
354240,note_on,120,0,2,,,,,,,,,,,,,,,0,,,64,0
354240,note_on,0,0,2,,,,,,,,,,,,,,,0,,,58,33
354274,control_change,34,0,2,,,,,,,,,,,,,,,0,64,0,,
354337,control_change,63,0,2,,,,,,,,,,,,,,,0,64,127,,
354360,note_on,23,0,2,,,,,,,,,,,,,,,0,,,58,0
354360,note_on,0,0,2,,,,,,,,,,,,,,,0,,,64,29
354480,note_on,240,0,1,,,,,,,,,,,,,,,0,,,73,0
354480,note_on,120,0,2,,,,,,,,,,,,,,,0,,,64,0
354480,note_on,0,0,2,,,,,,,,,,,,,,,0,,,61,29
354600,note_on,120,0,2,,,,,,,,,,,,,,,0,,,61,0
354600,note_on,0,0,2,,,,,,,,,,,,,,,0,,,64,29
354720,note_on,240,0,1,,,,,,,,,,,,,,,0,,,73,52
354720,note_on,0,0,2,,,,,,,,,,,,,,,0,,,57,33
354720,set_tempo,960,1,0,,,,,,,,,,,,668077,,,,,,,
354720,control_change,0,0,2,,,,,,,,,,,,,,,0,64,0,,
354720,note_on,120,0,2,,,,,,,,,,,,,,,0,,,64,0
354766,control_change,46,0,2,,,,,,,,,,,,,,,0,64,127,,
354840,note_on,74,0,2,,,,,,,,,,,,,,,0,,,57,0
354840,note_on,0,0,2,,,,,,,,,,,,,,,0,,,64,29
354960,note_on,120,0,2,,,,,,,,,,,,,,,0,,,64,0
354960,note_on,0,0,2,,,,,,,,,,,,,,,0,,,61,29
355080,note_on,120,0,2,,,,,,,,,,,,,,,0,,,61,0
355080,note_on,0,0,2,,,,,,,,,,,,,,,0,,,64,29
355200,set_tempo,480,1,0,,,,,,,,,,,,658906,,,,,,,
355200,note_on,0,0,2,,,,,,,,,,,,,,,0,,,55,33
355200,control_change,0,0,2,,,,,,,,,,,,,,,0,64,0,,
355200,note_on,120,0,2,,,,,,,,,,,,,,,0,,,64,0
355200,note_on,0,0,1,,,,,,,,,,,,,,,0,,,73,54
355200,note_on,480,0,1,,,,,,,,,,,,,,,0,,,73,0
355234,control_change,34,0,2,,,,,,,,,,,,,,,0,64,127,,
355320,note_on,86,0,2,,,,,,,,,,,,,,,0,,,55,0
355320,note_on,0,0,2,,,,,,,,,,,,,,,0,,,64,27
355440,note_on,120,0,2,,,,,,,,,,,,,,,0,,,64,0
355440,note_on,0,0,2,,,,,,,,,,,,,,,0,,,61,27
355560,note_on,120,0,2,,,,,,,,,,,,,,,0,,,61,0
355560,note_on,0,0,2,,,,,,,,,,,,,,,0,,,64,27
355680,note_on,120,0,2,,,,,,,,,,,,,,,0,,,64,0
355680,note_on,0,0,2,,,,,,,,,,,,,,,0,,,55,33
355800,note_on,120,0,2,,,,,,,,,,,,,,,0,,,55,0
355800,note_on,0,0,2,,,,,,,,,,,,,,,0,,,64,28
355920,note_on,0,0,1,,,,,,,,,,,,,,,0,,,71,51
355920,note_on,720,0,1,,,,,,,,,,,,,,,0,,,73,0
355920,set_tempo,720,1,0,,,,,,,,,,,,668077,,,,,,,
355920,note_on,120,0,2,,,,,,,,,,,,,,,0,,,64,0
355920,note_on,0,0,2,,,,,,,,,,,,,,,0,,,61,28
356040,note_on,120,0,2,,,,,,,,,,,,,,,0,,,61,0
356040,note_on,0,0,2,,,,,,,,,,,,,,,0,,,64,29
356160,note_on,120,0,2,,,,,,,,,,,,,,,0,,,64,0
356160,note_on,0,0,2,,,,,,,,,,,,,,,0,,,55,33
356160,note_on,0,0,1,,,,,,,,,,,,,,,0,,,70,51
356160,note_on,240,0,1,,,,,,,,,,,,,,,0,,,71,0
356194,control_change,34,0,2,,,,,,,,,,,,,,,0,64,0,,
356257,control_change,63,0,2,,,,,,,,,,,,,,,0,64,127,,
356280,note_on,23,0,2,,,,,,,,,,,,,,,0,,,55,0
356280,note_on,0,0,2,,,,,,,,,,,,,,,0,,,64,29
356400,note_on,120,0,2,,,,,,,,,,,,,,,0,,,64,0
356400,note_on,240,0,1,,,,,,,,,,,,,,,0,,,70,0
356400,note_on,0,0,2,,,,,,,,,,,,,,,0,,,61,29
356520,note_on,120,0,2,,,,,,,,,,,,,,,0,,,61,0
356520,note_on,0,0,2,,,,,,,,,,,,,,,0,,,64,29
356640,set_tempo,720,1,0,,,,,,,,,,,,652032,,,,,,,
356640,note_on,0,0,1,,,,,,,,,,,,,,,0,,,70,52
356640,note_on,240,0,1,,,,,,,,,,,,,,,0,,,66,52
356640,control_change,0,0,2,,,,,,,,,,,,,,,0,64,0,,
356640,note_on,0,0,2,,,,,,,,,,,,,,,0,,,54,33
356640,note_on,120,0,2,,,,,,,,,,,,,,,0,,,64,0
356686,control_change,46,0,2,,,,,,,,,,,,,,,0,64,127,,
356760,note_on,74,0,2,,,,,,,,,,,,,,,0,,,54,0
356760,note_on,0,0,2,,,,,,,,,,,,,,,0,,,64,29
356880,note_on,120,0,2,,,,,,,,,,,,,,,0,,,64,0
356880,note_on,0,0,2,,,,,,,,,,,,,,,0,,,61,29
357000,note_on,120,0,2,,,,,,,,,,,,,,,0,,,61,0
357000,note_on,0,0,2,,,,,,,,,,,,,,,0,,,64,29
357080,set_tempo,440,1,0,,,,,,,,,,,,641026,,,,,,,
357120,note_on,0,0,1,,,,,,,,,,,,,,,0,,,70,52
357120,note_on,0,0,1,,,,,,,,,,,,,,,0,,,66,44
357120,note_on,0,0,1,,,,,,,,,,,,,,,0,,,66,0
357120,note_on,480,0,1,,,,,,,,,,,,,,,0,,,70,0
357120,note_on,0,0,2,,,,,,,,,,,,,,,0,,,54,33
357120,control_change,0,0,2,,,,,,,,,,,,,,,0,64,0,,
357120,note_on,120,0,2,,,,,,,,,,,,,,,0,,,64,0
357160,control_change,40,0,2,,,,,,,,,,,,,,,0,64,127,,
357240,note_on,0,0,2,,,,,,,,,,,,,,,0,,,64,28
357240,set_tempo,160,1,0,,,,,,,,,,,,637416,,,,,,,
357240,note_on,80,0,2,,,,,,,,,,,,,,,0,,,54,0
357360,set_tempo,120,1,0,,,,,,,,,,,,633914,,,,,,,
357360,note_on,0,0,2,,,,,,,,,,,,,,,0,,,61,28
357360,note_on,120,0,2,,,,,,,,,,,,,,,0,,,64,0
357480,set_tempo,120,1,0,,,,,,,,,,,,630451,,,,,,,
357480,note_on,0,0,2,,,,,,,,,,,,,,,0,,,64,28
357480,note_on,120,0,2,,,,,,,,,,,,,,,0,,,61,0
357594,control_change,114,0,2,,,,,,,,,,,,,,,0,64,0,,
357600,note_on,0,0,1,,,,,,,,,,,,,,,0,,,66,47
357600,note_on,6,0,2,,,,,,,,,,,,,,,0,,,64,0
357600,note_on,0,0,2,,,,,,,,,,,,,,,0,,,54,34
357600,note_on,480,0,1,,,,,,,,,,,,,,,0,,,70,0
357600,note_on,0,0,1,,,,,,,,,,,,,,,0,,,66,0
357600,note_on,0,0,1,,,,,,,,,,,,,,,0,,,71,55
357634,control_change,34,0,2,,,,,,,,,,,,,,,0,64,127,,
357640,set_tempo,160,1,0,,,,,,,,,,,,626894,,,,,,,
357720,note_on,86,0,2,,,,,,,,,,,,,,,0,,,54,0
357720,note_on,0,0,2,,,,,,,,,,,,,,,0,,,62,28
357760,set_tempo,120,1,0,,,,,,,,,,,,623506,,,,,,,
357840,note_on,120,0,2,,,,,,,,,,,,,,,0,,,62,0
357840,note_on,0,0,2,,,,,,,,,,,,,,,0,,,59,28
357880,set_tempo,120,1,0,,,,,,,,,,,,620155,,,,,,,
357960,note_on,0,0,2,,,,,,,,,,,,,,,0,,,62,29
357960,note_on,120,0,2,,,,,,,,,,,,,,,0,,,59,0
358000,set_tempo,120,1,0,,,,,,,,,,,,616776,,,,,,,
358057,control_change,97,0,2,,,,,,,,,,,,,,,0,64,0,,
358080,note_on,0,0,2,,,,,,,,,,,,,,,0,,,54,35
358080,note_on,0,0,1,,,,,,,,,,,,,,,0,,,66,0
358080,note_on,23,0,2,,,,,,,,,,,,,,,0,,,62,0
358080,note_on,480,0,1,,,,,,,,,,,,,,,0,,,71,0
358080,note_on,0,0,1,,,,,,,,,,,,,,,0,,,70,47
358080,note_on,0,0,1,,,,,,,,,,,,,,,0,,,66,47
358080,note_on,0,0,1,,,,,,,,,,,,,,,0,,,73,56
358103,control_change,23,0,2,,,,,,,,,,,,,,,0,64,127,,
358160,set_tempo,160,1,0,,,,,,,,,,,,613434,,,,,,,
358200,note_on,97,0,2,,,,,,,,,,,,,,,0,,,54,0
358200,note_on,0,0,2,,,,,,,,,,,,,,,0,,,61,29
358280,set_tempo,120,1,0,,,,,,,,,,,,610190,,,,,,,
358320,note_on,120,0,2,,,,,,,,,,,,,,,0,,,61,0
358320,note_on,0,0,2,,,,,,,,,,,,,,,0,,,58,29
358400,set_tempo,120,1,0,,,,,,,,,,,,606919,,,,,,,
358440,note_on,120,0,2,,,,,,,,,,,,,,,0,,,58,0
358440,note_on,0,0,2,,,,,,,,,,,,,,,0,,,61,29
358520,set_tempo,120,1,0,,,,,,,,,,,,603743,,,,,,,
358560,note_on,0,0,1,,,,,,,,,,,,,,,0,,,74,57
358560,note_on,0,0,1,,,,,,,,,,,,,,,0,,,70,0
358560,note_on,0,0,1,,,,,,,,,,,,,,,0,,,66,48
358560,set_tempo,40,1,0,,,,,,,,,,,,603743,,,,,,,
358560,note_on,0,0,1,,,,,,,,,,,,,,,0,,,66,0
358560,note_on,0,0,1,,,,,,,,,,,,,,,0,,,71,48
358560,note_on,480,0,1,,,,,,,,,,,,,,,0,,,73,0
358560,note_on,120,0,2,,,,,,,,,,,,,,,0,,,61,0
358560,note_on,0,0,2,,,,,,,,,,,,,,,0,,,54,36
358566,control_change,6,0,2,,,,,,,,,,,,,,,0,64,0,,
358600,control_change,34,0,2,,,,,,,,,,,,,,,0,64,127,,
358680,note_on,80,0,2,,,,,,,,,,,,,,,0,,,54,0
358680,note_on,0,0,2,,,,,,,,,,,,,,,0,,,62,31
358720,set_tempo,160,1,0,,,,,,,,,,,,606919,,,,,,,
358800,note_on,120,0,2,,,,,,,,,,,,,,,0,,,62,0
358800,note_on,0,0,2,,,,,,,,,,,,,,,0,,,59,31
358880,set_tempo,160,1,0,,,,,,,,,,,,610190,,,,,,,
358920,note_on,120,0,2,,,,,,,,,,,,,,,0,,,59,0
358920,note_on,0,0,2,,,,,,,,,,,,,,,0,,,62,31
359040,note_on,480,0,1,,,,,,,,,,,,,,,0,,,74,0
359040,note_on,0,0,1,,,,,,,,,,,,,,,0,,,71,0
359040,note_on,0,0,1,,,,,,,,,,,,,,,0,,,66,0
359040,note_on,0,0,1,,,,,,,,,,,,,,,0,,,66,50
359040,note_on,120,0,2,,,,,,,,,,,,,,,0,,,62,0
359040,note_on,0,0,1,,,,,,,,,,,,,,,0,,,73,50
359040,note_on,0,0,2,,,,,,,,,,,,,,,0,,,54,37
359040,control_change,0,0,2,,,,,,,,,,,,,,,0,64,0,,
359040,note_on,0,0,1,,,,,,,,,,,,,,,0,,,76,59
359040,set_tempo,160,1,0,,,,,,,,,,,,613434,,,,,,,
359086,control_change,46,0,2,,,,,,,,,,,,,,,0,64,127,,
359160,note_on,0,0,2,,,,,,,,,,,,,,,0,,,64,31
359160,note_on,74,0,2,,,,,,,,,,,,,,,0,,,54,0
359280,note_on,0,0,2,,,,,,,,,,,,,,,0,,,61,32
359280,note_on,120,0,2,,,,,,,,,,,,,,,0,,,64,0
359400,note_on,0,0,2,,,,,,,,,,,,,,,0,,,64,32
359400,note_on,120,0,2,,,,,,,,,,,,,,,0,,,61,0
359514,control_change,114,0,2,,,,,,,,,,,,,,,0,64,0,,
359520,note_on,0,0,1,,,,,,,,,,,,,,,0,,,67,51
359520,note_on,0,0,1,,,,,,,,,,,,,,,0,,,73,51
359520,note_on,0,0,1,,,,,,,,,,,,,,,0,,,76,60
359520,note_on,0,0,1,,,,,,,,,,,,,,,0,,,66,0
359520,note_on,6,0,2,,,,,,,,,,,,,,,0,,,64,0
359520,note_on,0,0,1,,,,,,,,,,,,,,,0,,,73,0
359520,note_on,480,0,1,,,,,,,,,,,,,,,0,,,76,0
359520,set_tempo,480,1,0,,,,,,,,,,,,620155,,,,,,,
359520,note_on,0,0,2,,,,,,,,,,,,,,,0,,,55,37
359554,control_change,34,0,2,,,,,,,,,,,,,,,0,64,127,,
359640,note_on,86,0,2,,,,,,,,,,,,,,,0,,,55,0
359640,note_on,0,0,2,,,,,,,,,,,,,,,0,,,64,31
359760,set_tempo,240,1,0,,,,,,,,,,,,637416,,,,,,,
359760,note_on,120,0,2,,,,,,,,,,,,,,,0,,,64,0
359760,note_on,0,0,2,,,,,,,,,,,,,,,0,,,61,31
359880,note_on,120,0,2,,,,,,,,,,,,,,,0,,,61,0
359880,note_on,0,0,2,,,,,,,,,,,,,,,0,,,64,31
359989,control_change,109,0,2,,,,,,,,,,,,,,,0,64,0,,
360000,note_on,0,0,1,,,,,,,,,,,,,,,0,,,73,52
360000,note_on,0,0,1,,,,,,,,,,,,,,,0,,,68,52
360000,note_on,480,0,1,,,,,,,,,,,,,,,0,,,76,0
360000,note_on,0,0,1,,,,,,,,,,,,,,,0,,,67,0
360000,set_tempo,240,1,0,,,,,,,,,,,,650125,,,,,,,
360000,note_on,0,0,1,,,,,,,,,,,,,,,0,,,73,0
360000,note_on,0,0,1,,,,,,,,,,,,,,,0,,,76,61
360000,note_on,0,0,2,,,,,,,,,,,,,,,0,,,56,38
360000,note_on,11,0,2,,,,,,,,,,,,,,,0,,,64,0
360029,control_change,29,0,2,,,,,,,,,,,,,,,0,64,127,,
360120,note_on,0,0,2,,,,,,,,,,,,,,,0,,,64,32
360120,note_on,91,0,2,,,,,,,,,,,,,,,0,,,56,0
360240,set_tempo,240,1,0,,,,,,,,,,,,654522,,,,,,,
360240,note_on,120,0,2,,,,,,,,,,,,,,,0,,,64,0
360240,note_on,0,0,2,,,,,,,,,,,,,,,0,,,61,32
360360,note_on,120,0,2,,,,,,,,,,,,,,,0,,,61,0
360360,note_on,0,0,2,,,,,,,,,,,,,,,0,,,64,33
360440,set_tempo,200,1,0,,,,,,,,,,,,658906,,,,,,,
360469,control_change,109,0,2,,,,,,,,,,,,,,,0,64,0,,
360480,set_tempo,40,1,0,,,,,,,,,,,,668077,,,,,,,
360480,note_on,480,0,1,,,,,,,,,,,,,,,0,,,76,0
360480,note_on,0,0,1,,,,,,,,,,,,,,,0,,,73,0
360480,note_on,11,0,2,,,,,,,,,,,,,,,0,,,64,0
360480,note_on,0,0,1,,,,,,,,,,,,,,,0,,,69,53
360480,note_on,0,0,2,,,,,,,,,,,,,,,0,,,57,39
360480,note_on,0,0,1,,,,,,,,,,,,,,,0,,,68,0
360480,note_on,0,0,1,,,,,,,,,,,,,,,0,,,73,53
360480,note_on,0,0,1,,,,,,,,,,,,,,,0,,,76,63
360509,control_change,29,0,2,,,,,,,,,,,,,,,0,64,127,,
360600,note_on,91,0,2,,,,,,,,,,,,,,,0,,,57,0
360600,note_on,0,0,2,,,,,,,,,,,,,,,0,,,64,32
360720,note_on,120,0,2,,,,,,,,,,,,,,,0,,,64,0
360720,note_on,0,0,2,,,,,,,,,,,,,,,0,,,61,34
360840,note_on,120,0,2,,,,,,,,,,,,,,,0,,,61,0
360840,note_on,0,0,2,,,,,,,,,,,,,,,0,,,64,34
360960,note_on,480,0,1,,,,,,,,,,,,,,,0,,,76,0
360960,note_on,0,0,2,,,,,,,,,,,,,,,0,,,57,33
360960,control_change,0,0,2,,,,,,,,,,,,,,,0,64,0,,
360960,control_change,0,0,2,,,,,,,,,,,,,,,0,64,0,,
360960,note_on,120,0,2,,,,,,,,,,,,,,,0,,,64,0
360960,note_on,0,0,1,,,,,,,,,,,,,,,0,,,76,59
360960,note_on,0,0,1,,,,,,,,,,,,,,,0,,,69,0
360960,note_on,0,0,1,,,,,,,,,,,,,,,0,,,73,0
360960,set_tempo,480,1,0,,,,,,,,,,,,644676,,,,,,,
360994,control_change,34,0,2,,,,,,,,,,,,,,,0,64,127,,
361080,note_on,86,0,2,,,,,,,,,,,,,,,0,,,57,0
361080,note_on,0,0,2,,,,,,,,,,,,,,,0,,,64,27
361200,note_on,120,0,2,,,,,,,,,,,,,,,0,,,64,0
361200,note_on,0,0,2,,,,,,,,,,,,,,,0,,,61,27
361320,note_on,120,0,2,,,,,,,,,,,,,,,0,,,61,0
361320,note_on,0,0,2,,,,,,,,,,,,,,,0,,,64,27
361440,note_on,120,0,2,,,,,,,,,,,,,,,0,,,64,0
361440,note_on,0,0,2,,,,,,,,,,,,,,,0,,,58,33
361440,set_tempo,480,1,0,,,,,,,,,,,,594059,,,,,,,
361560,note_on,120,0,2,,,,,,,,,,,,,,,0,,,58,0
361560,note_on,0,0,2,,,,,,,,,,,,,,,0,,,64,28
361560,note_on,0,0,1,,,,,,,,,,,,,,,0,,,77,51
361560,note_on,600,0,1,,,,,,,,,,,,,,,0,,,76,0
361680,note_on,120,0,1,,,,,,,,,,,,,,,0,,,77,0
361680,note_on,120,0,2,,,,,,,,,,,,,,,0,,,64,0
361680,note_on,0,0,2,,,,,,,,,,,,,,,0,,,61,28
361680,note_on,0,0,1,,,,,,,,,,,,,,,0,,,76,53
361800,note_on,120,0,2,,,,,,,,,,,,,,,0,,,61,0
361800,note_on,0,0,2,,,,,,,,,,,,,,,0,,,64,29
361800,note_on,120,0,1,,,,,,,,,,,,,,,0,,,76,0
361800,note_on,0,0,1,,,,,,,,,,,,,,,0,,,74,51
361920,note_on,0,0,2,,,,,,,,,,,,,,,0,,,58,33
361920,set_tempo,480,1,0,,,,,,,,,,,,612245,,,,,,,
361920,note_on,120,0,1,,,,,,,,,,,,,,,0,,,74,0
361920,note_on,0,0,1,,,,,,,,,,,,,,,0,,,73,56
361920,note_on,120,0,2,,,,,,,,,,,,,,,0,,,64,0
361954,control_change,34,0,2,,,,,,,,,,,,,,,0,64,0,,
362017,control_change,63,0,2,,,,,,,,,,,,,,,0,64,127,,
362040,note_on,23,0,2,,,,,,,,,,,,,,,0,,,58,0
362040,note_on,0,0,2,,,,,,,,,,,,,,,0,,,64,29
362160,note_on,120,0,2,,,,,,,,,,,,,,,0,,,64,0
362160,note_on,240,0,1,,,,,,,,,,,,,,,0,,,73,0
362160,note_on,0,0,2,,,,,,,,,,,,,,,0,,,61,29
362280,note_on,0,0,2,,,,,,,,,,,,,,,0,,,64,29
362280,note_on,120,0,2,,,,,,,,,,,,,,,0,,,61,0
362400,note_on,120,0,2,,,,,,,,,,,,,,,0,,,64,0
362400,control_change,0,0,2,,,,,,,,,,,,,,,0,64,0,,
362400,note_on,0,0,2,,,,,,,,,,,,,,,0,,,57,33
362400,set_tempo,480,1,0,,,,,,,,,,,,657318,,,,,,,
362400,note_on,240,0,1,,,,,,,,,,,,,,,0,,,73,57
362446,control_change,46,0,2,,,,,,,,,,,,,,,0,64,127,,
362520,note_on,74,0,2,,,,,,,,,,,,,,,0,,,57,0
362520,note_on,0,0,2,,,,,,,,,,,,,,,0,,,64,29
362640,note_on,0,0,2,,,,,,,,,,,,,,,0,,,61,29
362640,note_on,120,0,2,,,,,,,,,,,,,,,0,,,64,0
362760,note_on,0,0,2,,,,,,,,,,,,,,,0,,,64,29
362760,note_on,120,0,2,,,,,,,,,,,,,,,0,,,61,0
362880,note_on,0,0,2,,,,,,,,,,,,,,,0,,,55,33
362880,control_change,0,0,2,,,,,,,,,,,,,,,0,64,0,,
362880,note_on,120,0,2,,,,,,,,,,,,,,,0,,,64,0
362880,note_on,0,0,1,,,,,,,,,,,,,,,0,,,73,59
362880,set_tempo,480,1,0,,,,,,,,,,,,641026,,,,,,,
362880,note_on,480,0,1,,,,,,,,,,,,,,,0,,,73,0
362914,control_change,34,0,2,,,,,,,,,,,,,,,0,64,127,,
363000,note_on,0,0,2,,,,,,,,,,,,,,,0,,,64,27
363000,note_on,86,0,2,,,,,,,,,,,,,,,0,,,55,0
363120,note_on,0,0,2,,,,,,,,,,,,,,,0,,,61,27
363120,note_on,120,0,2,,,,,,,,,,,,,,,0,,,64,0
363240,note_on,120,0,2,,,,,,,,,,,,,,,0,,,61,0
363240,note_on,0,0,2,,,,,,,,,,,,,,,0,,,64,27
363360,note_on,120,0,2,,,,,,,,,,,,,,,0,,,64,0
363360,note_on,0,0,2,,,,,,,,,,,,,,,0,,,55,33
363360,set_tempo,480,1,0,,,,,,,,,,,,594059,,,,,,,
363480,note_on,120,0,2,,,,,,,,,,,,,,,0,,,55,0
363480,note_on,0,0,2,,,,,,,,,,,,,,,0,,,64,28
363480,note_on,600,0,1,,,,,,,,,,,,,,,0,,,73,0
363480,note_on,0,0,1,,,,,,,,,,,,,,,0,,,74,53
363600,note_on,120,0,2,,,,,,,,,,,,,,,0,,,64,0
363600,note_on,120,0,1,,,,,,,,,,,,,,,0,,,74,0
363600,note_on,0,0,1,,,,,,,,,,,,,,,0,,,73,53
363600,note_on,0,0,2,,,,,,,,,,,,,,,0,,,61,28
363720,note_on,0,0,2,,,,,,,,,,,,,,,0,,,64,29
363720,note_on,120,0,2,,,,,,,,,,,,,,,0,,,61,0
363720,note_on,120,0,1,,,,,,,,,,,,,,,0,,,73,0
363720,note_on,0,0,1,,,,,,,,,,,,,,,0,,,71,53
363840,set_tempo,480,1,0,,,,,,,,,,,,612245,,,,,,,
363840,note_on,0,0,1,,,,,,,,,,,,,,,0,,,70,56
363840,note_on,0,0,2,,,,,,,,,,,,,,,0,,,55,33
363840,note_on,120,0,2,,,,,,,,,,,,,,,0,,,64,0
363840,note_on,120,0,1,,,,,,,,,,,,,,,0,,,71,0
363874,control_change,34,0,2,,,,,,,,,,,,,,,0,64,0,,
363937,control_change,63,0,2,,,,,,,,,,,,,,,0,64,127,,
363960,note_on,23,0,2,,,,,,,,,,,,,,,0,,,55,0
363960,note_on,0,0,2,,,,,,,,,,,,,,,0,,,64,29
364080,note_on,0,0,2,,,,,,,,,,,,,,,0,,,61,29
364080,note_on,120,0,2,,,,,,,,,,,,,,,0,,,64,0
364080,note_on,240,0,1,,,,,,,,,,,,,,,0,,,70,0
364200,note_on,120,0,2,,,,,,,,,,,,,,,0,,,61,0
364200,note_on,0,0,2,,,,,,,,,,,,,,,0,,,64,31
364320,set_tempo,480,1,0,,,,,,,,,,,,648999,,,,,,,
364320,note_on,120,0,2,,,,,,,,,,,,,,,0,,,64,0
364320,control_change,0,0,2,,,,,,,,,,,,,,,0,64,0,,
364320,note_on,0,0,2,,,,,,,,,,,,,,,0,,,54,36
364320,note_on,0,0,1,,,,,,,,,,,,,,,0,,,70,57
364320,note_on,240,0,1,,,,,,,,,,,,,,,0,,,66,57
364366,control_change,46,0,2,,,,,,,,,,,,,,,0,64,127,,
364440,note_on,0,0,2,,,,,,,,,,,,,,,0,,,64,31
364440,note_on,74,0,2,,,,,,,,,,,,,,,0,,,54,0
364560,note_on,0,0,2,,,,,,,,,,,,,,,0,,,61,31
364560,note_on,120,0,2,,,,,,,,,,,,,,,0,,,64,0
364680,note_on,120,0,2,,,,,,,,,,,,,,,0,,,61,0
364680,note_on,0,0,2,,,,,,,,,,,,,,,0,,,64,31
364800,note_on,0,0,2,,,,,,,,,,,,,,,0,,,54,36
364800,control_change,0,0,2,,,,,,,,,,,,,,,0,64,0,,
364800,note_on,120,0,2,,,,,,,,,,,,,,,0,,,64,0
364800,set_tempo,480,1,0,,,,,,,,,,,,626894,,,,,,,
364800,note_on,480,0,1,,,,,,,,,,,,,,,0,,,70,0
364800,note_on,0,0,1,,,,,,,,,,,,,,,0,,,66,0
364800,note_on,0,0,1,,,,,,,,,,,,,,,0,,,66,48
364800,note_on,0,0,1,,,,,,,,,,,,,,,0,,,70,57
364840,control_change,40,0,2,,,,,,,,,,,,,,,0,64,127,,
364920,note_on,0,0,2,,,,,,,,,,,,,,,0,,,64,30
364920,note_on,80,0,2,,,,,,,,,,,,,,,0,,,54,0
364960,set_tempo,160,1,0,,,,,,,,,,,,623506,,,,,,,
365040,note_on,0,0,2,,,,,,,,,,,,,,,0,,,61,30
365040,note_on,120,0,2,,,,,,,,,,,,,,,0,,,64,0
365120,set_tempo,160,1,0,,,,,,,,,,,,620155,,,,,,,
365160,note_on,0,0,1,,,,,,,,,,,,,,,0,,,70,57
365160,note_on,120,0,2,,,,,,,,,,,,,,,0,,,61,0
365160,note_on,0,0,1,,,,,,,,,,,,,,,0,,,66,48
365160,note_on,360,0,1,,,,,,,,,,,,,,,0,,,70,0
365160,note_on,0,0,2,,,,,,,,,,,,,,,0,,,64,30
365160,note_on,0,0,1,,,,,,,,,,,,,,,0,,,66,0
365240,set_tempo,120,1,0,,,,,,,,,,,,616776,,,,,,,
365274,control_change,114,0,2,,,,,,,,,,,,,,,0,64,0,,
365280,note_on,120,0,1,,,,,,,,,,,,,,,0,,,70,0
365280,note_on,6,0,2,,,,,,,,,,,,,,,0,,,64,0
365280,note_on,0,0,2,,,,,,,,,,,,,,,0,,,54,37
365280,note_on,0,0,1,,,,,,,,,,,,,,,0,,,66,0
365280,note_on,0,0,1,,,,,,,,,,,,,,,0,,,71,60
365280,note_on,0,0,1,,,,,,,,,,,,,,,0,,,66,51
365314,control_change,34,0,2,,,,,,,,,,,,,,,0,64,127,,
365400,note_on,86,0,2,,,,,,,,,,,,,,,0,,,54,0
365400,note_on,0,0,2,,,,,,,,,,,,,,,0,,,62,30
365400,set_tempo,160,1,0,,,,,,,,,,,,613434,,,,,,,
365520,note_on,120,0,2,,,,,,,,,,,,,,,0,,,62,0
365520,note_on,0,0,2,,,,,,,,,,,,,,,0,,,59,30
365520,set_tempo,120,1,0,,,,,,,,,,,,610190,,,,,,,
365640,note_on,360,0,1,,,,,,,,,,,,,,,0,,,71,0
365640,note_on,120,0,2,,,,,,,,,,,,,,,0,,,59,0
365640,note_on,0,0,2,,,,,,,,,,,,,,,0,,,62,31
365640,note_on,0,0,1,,,,,,,,,,,,,,,0,,,71,60
365640,note_on,0,0,1,,,,,,,,,,,,,,,0,,,66,51
365640,note_on,0,0,1,,,,,,,,,,,,,,,0,,,66,0
365680,set_tempo,160,1,0,,,,,,,,,,,,606919,,,,,,,
365737,control_change,97,0,2,,,,,,,,,,,,,,,0,64,0,,
365760,note_on,0,0,1,,,,,,,,,,,,,,,0,,,73,61
365760,note_on,0,0,1,,,,,,,,,,,,,,,0,,,70,51
365760,note_on,0,0,1,,,,,,,,,,,,,,,0,,,66,51
365760,note_on,0,0,1,,,,,,,,,,,,,,,0,,,66,0
365760,note_on,120,0,1,,,,,,,,,,,,,,,0,,,71,0
365760,note_on,0,0,2,,,,,,,,,,,,,,,0,,,54,38
365760,note_on,23,0,2,,,,,,,,,,,,,,,0,,,62,0
365783,control_change,23,0,2,,,,,,,,,,,,,,,0,64,127,,
365800,set_tempo,120,1,0,,,,,,,,,,,,603743,,,,,,,
365880,note_on,97,0,2,,,,,,,,,,,,,,,0,,,54,0
365880,note_on,0,0,2,,,,,,,,,,,,,,,0,,,61,31
365960,set_tempo,160,1,0,,,,,,,,,,,,600540,,,,,,,
366000,note_on,120,0,2,,,,,,,,,,,,,,,0,,,61,0
366000,note_on,0,0,2,,,,,,,,,,,,,,,0,,,58,31
366080,set_tempo,120,1,0,,,,,,,,,,,,597372,,,,,,,
366120,note_on,360,0,1,,,,,,,,,,,,,,,0,,,73,0
366120,note_on,120,0,2,,,,,,,,,,,,,,,0,,,58,0
366120,note_on,0,0,2,,,,,,,,,,,,,,,0,,,61,31
366120,note_on,0,0,1,,,,,,,,,,,,,,,0,,,70,0
366120,note_on,0,0,1,,,,,,,,,,,,,,,0,,,66,0
366120,note_on,0,0,1,,,,,,,,,,,,,,,0,,,66,51
366120,note_on,0,0,1,,,,,,,,,,,,,,,0,,,70,51
366120,note_on,0,0,1,,,,,,,,,,,,,,,0,,,73,61
366240,note_on,120,0,1,,,,,,,,,,,,,,,0,,,73,0
366240,note_on,0,0,1,,,,,,,,,,,,,,,0,,,70,0
366240,note_on,0,0,1,,,,,,,,,,,,,,,0,,,66,0
366240,note_on,0,0,1,,,,,,,,,,,,,,,0,,,66,52
366240,note_on,0,0,1,,,,,,,,,,,,,,,0,,,71,52
366240,note_on,0,0,1,,,,,,,,,,,,,,,0,,,74,62
366240,set_tempo,160,1,0,,,,,,,,,,,,594295,,,,,,,
366240,note_on,120,0,2,,,,,,,,,,,,,,,0,,,61,0
366240,note_on,0,0,2,,,,,,,,,,,,,,,0,,,54,39
366246,control_change,6,0,2,,,,,,,,,,,,,,,0,64,0,,
366280,control_change,34,0,2,,,,,,,,,,,,,,,0,64,127,,
366360,note_on,80,0,2,,,,,,,,,,,,,,,0,,,54,0
366360,note_on,0,0,2,,,,,,,,,,,,,,,0,,,62,34
366360,set_tempo,120,1,0,,,,,,,,,,,,591250,,,,,,,
366480,note_on,120,0,2,,,,,,,,,,,,,,,0,,,62,0
366480,note_on,0,0,2,,,,,,,,,,,,,,,0,,,59,34
366520,set_tempo,160,1,0,,,,,,,,,,,,588120,,,,,,,
366600,note_on,0,0,2,,,,,,,,,,,,,,,0,,,62,34
366600,note_on,0,0,1,,,,,,,,,,,,,,,0,,,71,52
366600,note_on,0,0,1,,,,,,,,,,,,,,,0,,,74,62
366600,note_on,0,0,1,,,,,,,,,,,,,,,0,,,71,0
366600,note_on,360,0,1,,,,,,,,,,,,,,,0,,,74,0
366600,note_on,0,0,1,,,,,,,,,,,,,,,0,,,66,0
366600,note_on,120,0,2,,,,,,,,,,,,,,,0,,,59,0
366600,note_on,0,0,1,,,,,,,,,,,,,,,0,,,66,52
366640,set_tempo,120,1,0,,,,,,,,,,,,585138,,,,,,,
366720,note_on,120,0,2,,,,,,,,,,,,,,,0,,,62,0
366720,control_change,0,0,2,,,,,,,,,,,,,,,0,64,0,,
366720,note_on,0,0,2,,,,,,,,,,,,,,,0,,,54,40
366720,note_on,0,0,1,,,,,,,,,,,,,,,0,,,76,64
366720,note_on,0,0,1,,,,,,,,,,,,,,,0,,,73,55
366720,note_on,0,0,1,,,,,,,,,,,,,,,0,,,66,0
366720,note_on,0,0,1,,,,,,,,,,,,,,,0,,,71,0
366720,note_on,120,0,1,,,,,,,,,,,,,,,0,,,74,0
366720,note_on,0,0,1,,,,,,,,,,,,,,,0,,,66,55
366760,set_tempo,120,1,0,,,,,,,,,,,,588120,,,,,,,
366766,control_change,46,0,2,,,,,,,,,,,,,,,0,64,127,,
366840,note_on,74,0,2,,,,,,,,,,,,,,,0,,,54,0
366840,note_on,0,0,2,,,,,,,,,,,,,,,0,,,64,34
366880,set_tempo,120,1,0,,,,,,,,,,,,591250,,,,,,,
366960,set_tempo,80,1,0,,,,,,,,,,,,594295,,,,,,,
366960,note_on,0,0,2,,,,,,,,,,,,,,,0,,,61,35
366960,note_on,120,0,2,,,,,,,,,,,,,,,0,,,64,0
367080,note_on,0,0,1,,,,,,,,,,,,,,,0,,,73,0
367080,note_on,0,0,1,,,,,,,,,,,,,,,0,,,66,0
367080,note_on,0,0,1,,,,,,,,,,,,,,,0,,,66,55
367080,set_tempo,120,1,0,,,,,,,,,,,,597372,,,,,,,
367080,note_on,0,0,1,,,,,,,,,,,,,,,0,,,76,64
367080,note_on,0,0,2,,,,,,,,,,,,,,,0,,,64,35
367080,note_on,120,0,2,,,,,,,,,,,,,,,0,,,61,0
367080,note_on,360,0,1,,,,,,,,,,,,,,,0,,,76,0
367080,note_on,0,0,1,,,,,,,,,,,,,,,0,,,73,55
367160,set_tempo,80,1,0,,,,,,,,,,,,600540,,,,,,,
367194,control_change,114,0,2,,,,,,,,,,,,,,,0,64,0,,
367200,note_on,6,0,2,,,,,,,,,,,,,,,0,,,64,0
367200,note_on,0,0,1,,,,,,,,,,,,,,,0,,,76,66
367200,note_on,0,0,1,,,,,,,,,,,,,,,0,,,73,56
367200,note_on,0,0,1,,,,,,,,,,,,,,,0,,,66,0
367200,note_on,0,0,1,,,,,,,,,,,,,,,0,,,73,0
367200,note_on,120,0,1,,,,,,,,,,,,,,,0,,,76,0
367200,note_on,0,0,1,,,,,,,,,,,,,,,0,,,67,56
367200,note_on,0,0,2,,,,,,,,,,,,,,,0,,,55,40
367234,control_change,34,0,2,,,,,,,,,,,,,,,0,64,127,,
367280,set_tempo,120,1,0,,,,,,,,,,,,603743,,,,,,,
367320,note_on,86,0,2,,,,,,,,,,,,,,,0,,,55,0
367320,note_on,0,0,2,,,,,,,,,,,,,,,0,,,64,34
367400,set_tempo,120,1,0,,,,,,,,,,,,606919,,,,,,,
367440,note_on,120,0,2,,,,,,,,,,,,,,,0,,,64,0
367440,note_on,0,0,2,,,,,,,,,,,,,,,0,,,61,34
367480,set_tempo,80,1,0,,,,,,,,,,,,610190,,,,,,,
367560,note_on,0,0,2,,,,,,,,,,,,,,,0,,,64,34
367560,note_on,0,0,1,,,,,,,,,,,,,,,0,,,76,66
367560,note_on,0,0,1,,,,,,,,,,,,,,,0,,,73,56
367560,note_on,0,0,1,,,,,,,,,,,,,,,0,,,67,56
367560,note_on,0,0,1,,,,,,,,,,,,,,,0,,,67,0
367560,note_on,120,0,2,,,,,,,,,,,,,,,0,,,61,0
367560,note_on,360,0,1,,,,,,,,,,,,,,,0,,,76,0
367560,note_on,0,0,1,,,,,,,,,,,,,,,0,,,73,0
367600,set_tempo,120,1,0,,,,,,,,,,,,613434,,,,,,,
367669,control_change,109,0,2,,,,,,,,,,,,,,,0,64,0,,
367680,note_on,0,0,1,,,,,,,,,,,,,,,0,,,73,57
367680,note_on,0,0,1,,,,,,,,,,,,,,,0,,,76,67
367680,note_on,0,0,1,,,,,,,,,,,,,,,0,,,68,57
367680,note_on,0,0,1,,,,,,,,,,,,,,,0,,,67,0
367680,note_on,0,0,1,,,,,,,,,,,,,,,0,,,73,0
367680,note_on,120,0,1,,,,,,,,,,,,,,,0,,,76,0
367680,note_on,11,0,2,,,,,,,,,,,,,,,0,,,64,0
367680,set_tempo,80,1,0,,,,,,,,,,,,626894,,,,,,,
367680,note_on,0,0,2,,,,,,,,,,,,,,,0,,,56,41
367709,control_change,29,0,2,,,,,,,,,,,,,,,0,64,127,,
367800,note_on,91,0,2,,,,,,,,,,,,,,,0,,,56,0
367800,note_on,0,0,2,,,,,,,,,,,,,,,0,,,64,35
367920,note_on,120,0,2,,,,,,,,,,,,,,,0,,,64,0
367920,note_on,0,0,2,,,,,,,,,,,,,,,0,,,61,35
368040,note_on,0,0,2,,,,,,,,,,,,,,,0,,,64,36
368040,note_on,0,0,1,,,,,,,,,,,,,,,0,,,76,67
368040,note_on,0,0,1,,,,,,,,,,,,,,,0,,,73,57
368040,note_on,0,0,1,,,,,,,,,,,,,,,0,,,68,57
368040,note_on,0,0,1,,,,,,,,,,,,,,,0,,,73,0
368040,note_on,360,0,1,,,,,,,,,,,,,,,0,,,76,0
368040,note_on,120,0,2,,,,,,,,,,,,,,,0,,,61,0
368040,note_on,0,0,1,,,,,,,,,,,,,,,0,,,68,0
368149,control_change,109,0,2,,,,,,,,,,,,,,,0,64,0,,
368160,note_on,0,0,1,,,,,,,,,,,,,,,0,,,76,69
368160,note_on,120,0,1,,,,,,,,,,,,,,,0,,,76,0
368160,note_on,0,0,1,,,,,,,,,,,,,,,0,,,73,0
368160,note_on,0,0,1,,,,,,,,,,,,,,,0,,,68,0
368160,note_on,0,0,1,,,,,,,,,,,,,,,0,,,69,58
368160,note_on,0,0,1,,,,,,,,,,,,,,,0,,,73,58
368160,set_tempo,480,1,0,,,,,,,,,,,,644676,,,,,,,
368160,note_on,11,0,2,,,,,,,,,,,,,,,0,,,64,0
368160,note_on,0,0,2,,,,,,,,,,,,,,,0,,,57,42
368189,control_change,29,0,2,,,,,,,,,,,,,,,0,64,127,,
368280,note_on,91,0,2,,,,,,,,,,,,,,,0,,,57,0
368280,note_on,0,0,2,,,,,,,,,,,,,,,0,,,64,35
368400,note_on,120,0,2,,,,,,,,,,,,,,,0,,,64,0
368400,note_on,0,0,2,,,,,,,,,,,,,,,0,,,61,37
368520,note_on,120,0,2,,,,,,,,,,,,,,,0,,,61,0
368520,note_on,0,0,2,,,,,,,,,,,,,,,0,,,64,37
368640,note_on,480,0,1,,,,,,,,,,,,,,,0,,,76,0
368640,note_on,0,0,1,,,,,,,,,,,,,,,0,,,76,59
368640,note_on,0,0,2,,,,,,,,,,,,,,,0,,,57,36
368640,note_on,120,0,2,,,,,,,,,,,,,,,0,,,64,0
368640,note_on,0,0,1,,,,,,,,,,,,,,,0,,,73,0
368640,set_tempo,480,1,0,,,,,,,,,,,,648298,,,,,,,
368640,control_change,0,0,2,,,,,,,,,,,,,,,0,64,0,,
368640,note_on,0,0,1,,,,,,,,,,,,,,,0,,,69,0
368674,control_change,34,0,2,,,,,,,,,,,,,,,0,64,127,,
368760,note_on,86,0,2,,,,,,,,,,,,,,,0,,,57,0
368760,note_on,0,0,2,,,,,,,,,,,,,,,0,,,64,29
368880,note_on,120,0,2,,,,,,,,,,,,,,,0,,,64,0
368880,note_on,0,0,2,,,,,,,,,,,,,,,0,,,61,29
369000,note_on,0,0,2,,,,,,,,,,,,,,,0,,,64,29
369000,note_on,120,0,2,,,,,,,,,,,,,,,0,,,61,0
369120,note_on,120,0,2,,,,,,,,,,,,,,,0,,,64,0
369120,note_on,0,0,2,,,,,,,,,,,,,,,0,,,58,36
369120,set_tempo,480,1,0,,,,,,,,,,,,633914,,,,,,,
369240,note_on,120,0,2,,,,,,,,,,,,,,,0,,,58,0
369240,note_on,0,0,2,,,,,,,,,,,,,,,0,,,64,30
369360,note_on,120,0,2,,,,,,,,,,,,,,,0,,,64,0
369360,note_on,0,0,2,,,,,,,,,,,,,,,0,,,61,30
369480,note_on,840,0,1,,,,,,,,,,,,,,,0,,,76,0
369480,note_on,0,0,1,,,,,,,,,,,,,,,0,,,74,56
369480,note_on,120,0,2,,,,,,,,,,,,,,,0,,,61,0
369480,note_on,0,0,2,,,,,,,,,,,,,,,0,,,64,31
369600,note_on,120,0,2,,,,,,,,,,,,,,,0,,,64,0
369600,note_on,0,0,2,,,,,,,,,,,,,,,0,,,57,36
369600,note_on,0,0,1,,,,,,,,,,,,,,,0,,,73,56
369600,note_on,120,0,1,,,,,,,,,,,,,,,0,,,74,0
369634,control_change,34,0,2,,,,,,,,,,,,,,,0,64,0,,
369697,control_change,63,0,2,,,,,,,,,,,,,,,0,64,127,,
369720,note_on,23,0,2,,,,,,,,,,,,,,,0,,,57,0
369720,note_on,0,0,2,,,,,,,,,,,,,,,0,,,64,31
369840,note_on,120,0,2,,,,,,,,,,,,,,,0,,,64,0
369840,note_on,240,0,1,,,,,,,,,,,,,,,0,,,73,0
369840,note_on,0,0,2,,,,,,,,,,,,,,,0,,,61,31
369960,note_on,0,0,2,,,,,,,,,,,,,,,0,,,64,31
369960,note_on,120,0,2,,,,,,,,,,,,,,,0,,,61,0
370080,set_tempo,960,1,0,,,,,,,,,,,,648999,,,,,,,
370080,note_on,240,0,1,,,,,,,,,,,,,,,0,,,73,57
370080,note_on,120,0,2,,,,,,,,,,,,,,,0,,,64,0
370080,control_change,0,0,2,,,,,,,,,,,,,,,0,64,0,,
370080,note_on,0,0,2,,,,,,,,,,,,,,,0,,,55,36
370126,control_change,46,0,2,,,,,,,,,,,,,,,0,64,127,,
370200,note_on,74,0,2,,,,,,,,,,,,,,,0,,,55,0
370200,note_on,0,0,2,,,,,,,,,,,,,,,0,,,64,31
370320,note_on,120,0,2,,,,,,,,,,,,,,,0,,,64,0
370320,note_on,0,0,2,,,,,,,,,,,,,,,0,,,61,31
370440,set_tempo,360,1,0,,,,,,,,,,,,738825,,,,,,,
370440,note_on,120,0,2,,,,,,,,,,,,,,,0,,,61,0
370440,note_on,0,0,2,,,,,,,,,,,,,,,0,,,64,31
370500,set_tempo,60,1,0,,,,,,,,,,,,538696,,,,,,,
370500,note_on,420,0,1,,,,,,,,,,,,,,,0,,,76,49
370560,note_on,0,0,1,,,,,,,,,,,,,,,0,,,74,60
370560,set_tempo,60,1,0,,,,,,,,,,,,636807,,,,,,,
370560,note_on,60,0,1,,,,,,,,,,,,,,,0,,,76,0
370560,note_on,120,0,2,,,,,,,,,,,,,,,0,,,64,0
370560,note_on,0,0,2,,,,,,,,,,,,,,,0,,,53,36
370560,control_change,0,0,2,,,,,,,,,,,,,,,0,64,0,,
370560,note_on,0,0,1,,,,,,,,,,,,,,,0,,,73,0
370580,set_tempo,20,1,0,,,,,,,,,,,,616776,,,,,,,
370594,control_change,34,0,2,,,,,,,,,,,,,,,0,64,127,,
370680,note_on,0,0,1,,,,,,,,,,,,,,,0,,,73,57
370680,note_on,120,0,1,,,,,,,,,,,,,,,0,,,74,0
370680,note_on,0,0,2,,,,,,,,,,,,,,,0,,,62,29
370680,note_on,86,0,2,,,,,,,,,,,,,,,0,,,53,0
370800,note_on,0,0,1,,,,,,,,,,,,,,,0,,,74,57
370800,note_on,120,0,1,,,,,,,,,,,,,,,0,,,73,0
370800,note_on,0,0,2,,,,,,,,,,,,,,,0,,,57,29
370800,note_on,120,0,2,,,,,,,,,,,,,,,0,,,62,0
370920,note_on,120,0,2,,,,,,,,,,,,,,,0,,,57,0
370920,set_tempo,340,1,0,,,,,,,,,,,,744509,,,,,,,
370920,note_on,0,0,1,,,,,,,,,,,,,,,0,,,76,57
370920,note_on,120,0,1,,,,,,,,,,,,,,,0,,,74,0
370920,note_on,0,0,2,,,,,,,,,,,,,,,0,,,62,29
370980,set_tempo,60,1,0,,,,,,,,,,,,541761,,,,,,,
370980,note_on,60,0,1,,,,,,,,,,,,,,,0,,,79,49
371040,note_on,0,0,1,,,,,,,,,,,,,,,0,,,76,0
371040,note_on,60,0,1,,,,,,,,,,,,,,,0,,,79,0
371040,note_on,0,0,1,,,,,,,,,,,,,,,0,,,77,60
371040,set_tempo,60,1,0,,,,,,,,,,,,620155,,,,,,,
371040,note_on,0,0,2,,,,,,,,,,,,,,,0,,,52,36
371040,control_change,0,0,2,,,,,,,,,,,,,,,0,64,0,,
371040,note_on,120,0,2,,,,,,,,,,,,,,,0,,,62,0
371060,control_change,20,0,2,,,,,,,,,,,,,,,0,64,127,,
371160,note_on,0,0,2,,,,,,,,,,,,,,,0,,,62,30
371160,note_on,100,0,2,,,,,,,,,,,,,,,0,,,52,0
371160,note_on,120,0,1,,,,,,,,,,,,,,,0,,,77,0
371160,note_on,0,0,1,,,,,,,,,,,,,,,0,,,76,57
371280,note_on,120,0,2,,,,,,,,,,,,,,,0,,,62,0
371280,note_on,0,0,1,,,,,,,,,,,,,,,0,,,77,57
371280,note_on,0,0,2,,,,,,,,,,,,,,,0,,,55,30
371280,note_on,120,0,1,,,,,,,,,,,,,,,0,,,76,0
371400,note_on,0,0,2,,,,,,,,,,,,,,,0,,,62,31
371400,note_on,120,0,2,,,,,,,,,,,,,,,0,,,55,0
371400,note_on,0,0,1,,,,,,,,,,,,,,,0,,,79,57
371400,note_on,120,0,1,,,,,,,,,,,,,,,0,,,77,0
371520,note_on,0,0,1,,,,,,,,,,,,,,,0,,,81,59
371520,note_on,120,0,1,,,,,,,,,,,,,,,0,,,79,0
371520,set_tempo,480,1,0,,,,,,,,,,,,630451,,,,,,,
371520,note_on,120,0,2,,,,,,,,,,,,,,,0,,,62,0
371520,note_on,0,0,2,,,,,,,,,,,,,,,0,,,50,36
371554,control_change,34,0,2,,,,,,,,,,,,,,,0,64,0,,
371617,control_change,63,0,2,,,,,,,,,,,,,,,0,64,127,,
371640,note_on,23,0,2,,,,,,,,,,,,,,,0,,,50,0
371640,note_on,0,0,2,,,,,,,,,,,,,,,0,,,62,31
371760,note_on,120,0,2,,,,,,,,,,,,,,,0,,,62,0
371760,note_on,240,0,1,,,,,,,,,,,,,,,0,,,81,0
371760,note_on,0,0,2,,,,,,,,,,,,,,,0,,,53,31
371880,note_on,0,0,2,,,,,,,,,,,,,,,0,,,62,31
371880,note_on,120,0,2,,,,,,,,,,,,,,,0,,,53,0
372000,note_on,120,0,2,,,,,,,,,,,,,,,0,,,62,0
372000,note_on,0,0,2,,,,,,,,,,,,,,,0,,,53,36
372000,note_on,240,0,1,,,,,,,,,,,,,,,0,,,81,59
372020,control_change,20,0,2,,,,,,,,,,,,,,,0,64,0,,
372046,control_change,26,0,2,,,,,,,,,,,,,,,0,64,127,,
372120,note_on,74,0,2,,,,,,,,,,,,,,,0,,,53,0
372120,note_on,0,0,2,,,,,,,,,,,,,,,0,,,62,31
372240,note_on,0,0,1,,,,,,,,,,,,,,,0,,,77,57
372240,note_on,0,0,2,,,,,,,,,,,,,,,0,,,57,31
372240,note_on,240,0,1,,,,,,,,,,,,,,,0,,,81,0
372240,note_on,120,0,2,,,,,,,,,,,,,,,0,,,62,0
372360,note_on,0,0,2,,,,,,,,,,,,,,,0,,,62,31
372360,note_on,120,0,2,,,,,,,,,,,,,,,0,,,57,0
372480,note_on,0,0,2,,,,,,,,,,,,,,,0,,,57,36
372480,note_on,120,0,2,,,,,,,,,,,,,,,0,,,62,0
372480,note_on,0,0,1,,,,,,,,,,,,,,,0,,,76,59
372480,note_on,240,0,1,,,,,,,,,,,,,,,0,,,77,0
372480,set_tempo,960,1,0,,,,,,,,,,,,644884,,,,,,,
372480,control_change,0,0,2,,,,,,,,,,,,,,,0,64,0,,
372514,control_change,34,0,2,,,,,,,,,,,,,,,0,64,127,,
372600,note_on,0,0,2,,,,,,,,,,,,,,,0,,,64,29
372600,note_on,86,0,2,,,,,,,,,,,,,,,0,,,57,0
372720,note_on,0,0,2,,,,,,,,,,,,,,,0,,,61,29
372720,note_on,120,0,2,,,,,,,,,,,,,,,0,,,64,0
372840,note_on,0,0,2,,,,,,,,,,,,,,,0,,,64,29
372840,note_on,120,0,2,,,,,,,,,,,,,,,0,,,61,0
372960,set_tempo,480,1,0,,,,,,,,,,,,636807,,,,,,,
372960,note_on,0,0,2,,,,,,,,,,,,,,,0,,,58,36
372960,note_on,120,0,2,,,,,,,,,,,,,,,0,,,64,0
373080,note_on,0,0,2,,,,,,,,,,,,,,,0,,,64,30
373080,note_on,120,0,2,,,,,,,,,,,,,,,0,,,58,0
373200,note_on,0,0,2,,,,,,,,,,,,,,,0,,,61,30
373200,note_on,120,0,2,,,,,,,,,,,,,,,0,,,64,0
373320,note_on,0,0,1,,,,,,,,,,,,,,,0,,,74,56
373320,note_on,120,0,2,,,,,,,,,,,,,,,0,,,61,0
373320,note_on,0,0,2,,,,,,,,,,,,,,,0,,,64,31
373320,note_on,840,0,1,,,,,,,,,,,,,,,0,,,76,0
373440,note_on,120,0,2,,,,,,,,,,,,,,,0,,,64,0
373440,note_on,0,0,2,,,,,,,,,,,,,,,0,,,57,36
373440,note_on,120,0,1,,,,,,,,,,,,,,,0,,,74,0
373440,note_on,0,0,1,,,,,,,,,,,,,,,0,,,73,56
373474,control_change,34,0,2,,,,,,,,,,,,,,,0,64,0,,
373537,control_change,63,0,2,,,,,,,,,,,,,,,0,64,127,,
373560,note_on,23,0,2,,,,,,,,,,,,,,,0,,,57,0
373560,note_on,0,0,2,,,,,,,,,,,,,,,0,,,64,31
373680,note_on,240,0,1,,,,,,,,,,,,,,,0,,,73,0
373680,note_on,120,0,2,,,,,,,,,,,,,,,0,,,64,0
373680,note_on,0,0,2,,,,,,,,,,,,,,,0,,,61,31
373800,note_on,120,0,2,,,,,,,,,,,,,,,0,,,61,0
373800,note_on,0,0,2,,,,,,,,,,,,,,,0,,,64,31
373920,note_on,240,0,1,,,,,,,,,,,,,,,0,,,85,63
373920,note_on,0,0,1,,,,,,,,,,,,,,,0,,,73,63
373920,note_on,0,0,2,,,,,,,,,,,,,,,0,,,55,37
373920,control_change,0,0,2,,,,,,,,,,,,,,,0,64,0,,
373920,set_tempo,960,1,0,,,,,,,,,,,,668077,,,,,,,
373920,note_on,120,0,2,,,,,,,,,,,,,,,0,,,64,0
373966,control_change,46,0,2,,,,,,,,,,,,,,,0,64,127,,
374040,note_on,74,0,2,,,,,,,,,,,,,,,0,,,55,0
374040,note_on,0,0,2,,,,,,,,,,,,,,,0,,,64,32
374160,note_on,0,0,2,,,,,,,,,,,,,,,0,,,61,32
374160,note_on,120,0,2,,,,,,,,,,,,,,,0,,,64,0
374280,note_on,120,0,2,,,,,,,,,,,,,,,0,,,61,0
374280,note_on,0,0,2,,,,,,,,,,,,,,,0,,,64,32
374400,key_signature,480,1,0,,,,,,,,,,,Bb,,,,,,,,
374400,set_tempo,0,1,0,,,,,,,,,,,,640820,,,,,,,
374400,note_on,0,0,1,,,,,,,,,,,,,,,0,,,86,63
374400,note_on,0,0,1,,,,,,,,,,,,,,,0,,,74,63
374400,note_on,0,0,1,,,,,,,,,,,,,,,0,,,85,0
374400,note_on,480,0,1,,,,,,,,,,,,,,,0,,,73,0
374400,note_on,120,0,2,,,,,,,,,,,,,,,0,,,64,0
374400,note_on,0,0,2,,,,,,,,,,,,,,,0,,,53,37
374400,control_change,0,0,2,,,,,,,,,,,,,,,0,64,0,,
374440,set_tempo,40,1,0,,,,,,,,,,,,636807,,,,,,,
374499,control_change,99,0,2,,,,,,,,,,,,,,,0,64,127,,
374520,note_on,21,0,2,,,,,,,,,,,,,,,0,,,53,0
374520,note_on,0,0,2,,,,,,,,,,,,,,,0,,,65,31
374640,note_on,0,0,1,,,,,,,,,,,,,,,0,,,74,0
374640,note_on,240,0,1,,,,,,,,,,,,,,,0,,,86,0
374640,note_on,0,0,1,,,,,,,,,,,,,,,0,,,89,64
374640,note_on,0,0,1,,,,,,,,,,,,,,,0,,,77,64
374640,note_on,0,0,2,,,,,,,,,,,,,,,0,,,62,32
374640,note_on,120,0,2,,,,,,,,,,,,,,,0,,,65,0
374760,note_on,120,0,2,,,,,,,,,,,,,,,0,,,62,0
374760,note_on,0,0,2,,,,,,,,,,,,,,,0,,,65,32
374760,set_tempo,320,1,0,,,,,,,,,,,,632845,,,,,,,
374880,note_on,0,0,1,,,,,,,,,,,,,,,0,,,91,64
374880,note_on,120,0,2,,,,,,,,,,,,,,,0,,,65,0
374880,note_on,0,0,2,,,,,,,,,,,,,,,0,,,53,39
374880,note_on,240,0,1,,,,,,,,,,,,,,,0,,,89,0
374880,note_on,0,0,1,,,,,,,,,,,,,,,0,,,77,0
374880,note_on,0,0,1,,,,,,,,,,,,,,,0,,,79,64
375000,note_on,0,0,2,,,,,,,,,,,,,,,0,,,65,34
375000,note_on,120,0,2,,,,,,,,,,,,,,,0,,,53,0
375040,set_tempo,280,1,0,,,,,,,,,,,,628997,,,,,,,
375120,note_on,0,0,1,,,,,,,,,,,,,,,0,,,79,0
375120,note_on,0,0,1,,,,,,,,,,,,,,,0,,,81,65
375120,note_on,0,0,1,,,,,,,,,,,,,,,0,,,93,65
375120,note_on,240,0,1,,,,,,,,,,,,,,,0,,,91,0
375120,note_on,120,0,2,,,,,,,,,,,,,,,0,,,65,0
375120,note_on,0,0,2,,,,,,,,,,,,,,,0,,,62,34
375240,note_on,120,0,2,,,,,,,,,,,,,,,0,,,62,0
375240,note_on,0,0,2,,,,,,,,,,,,,,,0,,,65,35
375320,set_tempo,280,1,0,,,,,,,,,,,,625065,,,,,,,
375360,note_on,0,0,1,,,,,,,,,,,,,,,0,,,81,0
375360,note_on,0,0,1,,,,,,,,,,,,,,,0,,,82,66
375360,note_on,0,0,1,,,,,,,,,,,,,,,0,,,94,66
375360,note_on,240,0,1,,,,,,,,,,,,,,,0,,,93,0
375360,note_on,120,0,2,,,,,,,,,,,,,,,0,,,65,0
375360,note_on,0,0,2,,,,,,,,,,,,,,,0,,,53,42
375388,control_change,28,0,2,,,,,,,,,,,,,,,0,64,0,,
375445,control_change,57,0,2,,,,,,,,,,,,,,,0,64,127,,
375480,note_on,35,0,2,,,,,,,,,,,,,,,0,,,53,0
375480,note_on,0,0,2,,,,,,,,,,,,,,,0,,,65,37
375600,note_on,120,0,2,,,,,,,,,,,,,,,0,,,65,0
375600,note_on,0,0,2,,,,,,,,,,,,,,,0,,,62,37
375720,note_on,120,0,2,,,,,,,,,,,,,,,0,,,62,0
375720,note_on,0,0,2,,,,,,,,,,,,,,,0,,,65,37
375840,note_on,480,0,1,,,,,,,,,,,,,,,0,,,94,0
375840,note_on,120,0,2,,,,,,,,,,,,,,,0,,,65,0
375840,note_on,0,0,1,,,,,,,,,,,,,,,0,,,91,69
375840,note_on,0,0,1,,,,,,,,,,,,,,,0,,,79,69
375840,note_on,0,0,2,,,,,,,,,,,,,,,0,,,53,44
375840,note_on,0,0,1,,,,,,,,,,,,,,,0,,,82,0
375861,control_change,21,0,2,,,,,,,,,,,,,,,0,64,0,,
375911,control_change,50,0,2,,,,,,,,,,,,,,,0,64,127,,
375960,note_on,49,0,2,,,,,,,,,,,,,,,0,,,53,0
375960,note_on,0,0,2,,,,,,,,,,,,,,,0,,,67,39
376080,note_on,120,0,2,,,,,,,,,,,,,,,0,,,67,0
376080,note_on,0,0,2,,,,,,,,,,,,,,,0,,,63,40
376200,note_on,0,0,2,,,,,,,,,,,,,,,0,,,67,40
376200,note_on,120,0,2,,,,,,,,,,,,,,,0,,,63,0
376320,control_change,0,0,2,,,,,,,,,,,,,,,0,64,0,,
376320,note_on,120,0,2,,,,,,,,,,,,,,,0,,,67,0
376320,note_on,480,0,1,,,,,,,,,,,,,,,0,,,79,0
376320,note_on,0,0,1,,,,,,,,,,,,,,,0,,,89,70
376320,note_on,0,0,1,,,,,,,,,,,,,,,0,,,91,0
376320,note_on,0,0,1,,,,,,,,,,,,,,,0,,,77,70
376320,note_on,0,0,2,,,,,,,,,,,,,,,0,,,53,48
376384,control_change,64,0,2,,,,,,,,,,,,,,,0,64,127,,
376440,note_on,56,0,2,,,,,,,,,,,,,,,0,,,53,0
376440,note_on,0,0,2,,,,,,,,,,,,,,,0,,,65,38
376560,note_on,120,0,2,,,,,,,,,,,,,,,0,,,65,0
376560,note_on,0,0,2,,,,,,,,,,,,,,,0,,,62,38
376680,note_on,0,0,2,,,,,,,,,,,,,,,0,,,65,38
376680,note_on,120,0,2,,,,,,,,,,,,,,,0,,,62,0
376779,control_change,99,0,2,,,,,,,,,,,,,,,0,64,0,,
376800,note_on,480,0,1,,,,,,,,,,,,,,,0,,,77,0
376800,note_on,0,0,1,,,,,,,,,,,,,,,0,,,75,69
376800,note_on,0,0,1,,,,,,,,,,,,,,,0,,,87,69
376800,note_on,0,0,1,,,,,,,,,,,,,,,0,,,89,0
376800,note_on,21,0,2,,,,,,,,,,,,,,,0,,,65,0
376800,note_on,0,0,2,,,,,,,,,,,,,,,0,,,53,47
376821,control_change,21,0,2,,,,,,,,,,,,,,,0,64,127,,
376920,note_on,99,0,2,,,,,,,,,,,,,,,0,,,53,0
376920,note_on,0,0,2,,,,,,,,,,,,,,,0,,,63,39
377040,note_on,0,0,2,,,,,,,,,,,,,,,0,,,60,39
377040,note_on,120,0,2,,,,,,,,,,,,,,,0,,,63,0
377160,note_on,120,0,2,,,,,,,,,,,,,,,0,,,60,0
377160,note_on,0,0,2,,,,,,,,,,,,,,,0,,,63,39
377259,control_change,99,0,2,,,,,,,,,,,,,,,0,64,0,,
377280,note_on,480,0,1,,,,,,,,,,,,,,,0,,,75,0
377280,note_on,0,0,1,,,,,,,,,,,,,,,0,,,87,0
377280,note_on,0,0,1,,,,,,,,,,,,,,,0,,,86,66
377280,note_on,0,0,2,,,,,,,,,,,,,,,0,,,53,42
377280,note_on,0,0,1,,,,,,,,,,,,,,,0,,,74,66
377280,note_on,21,0,2,,,,,,,,,,,,,,,0,,,63,0
377315,control_change,35,0,2,,,,,,,,,,,,,,,0,64,127,,
377400,note_on,85,0,2,,,,,,,,,,,,,,,0,,,53,0
377400,note_on,0,0,2,,,,,,,,,,,,,,,0,,,62,36
377520,note_on,0,0,2,,,,,,,,,,,,,,,0,,,58,36
377520,note_on,120,0,2,,,,,,,,,,,,,,,0,,,62,0
377640,note_on,120,0,2,,,,,,,,,,,,,,,0,,,58,0
377640,note_on,0,0,2,,,,,,,,,,,,,,,0,,,62,37
377760,note_on,120,0,2,,,,,,,,,,,,,,,0,,,62,0
377760,control_change,0,0,2,,,,,,,,,,,,,,,0,64,0,,
377760,note_on,0,0,2,,,,,,,,,,,,,,,0,,,53,42
377760,note_on,0,0,1,,,,,,,,,,,,,,,0,,,72,65
377760,note_on,0,0,1,,,,,,,,,,,,,,,0,,,84,65
377760,note_on,480,0,1,,,,,,,,,,,,,,,0,,,74,0
377760,note_on,0,0,1,,,,,,,,,,,,,,,0,,,86,0
377824,control_change,64,0,2,,,,,,,,,,,,,,,0,64,127,,
377880,note_on,56,0,2,,,,,,,,,,,,,,,0,,,53,0
377880,note_on,0,0,2,,,,,,,,,,,,,,,0,,,60,35
378000,note_on,120,0,2,,,,,,,,,,,,,,,0,,,60,0
378000,note_on,0,0,2,,,,,,,,,,,,,,,0,,,56,35
378120,note_on,0,0,2,,,,,,,,,,,,,,,0,,,60,35
378120,note_on,120,0,2,,,,,,,,,,,,,,,0,,,56,0
378240,note_on,0,0,2,,,,,,,,,,,,,,,0,,,53,35
378240,control_change,0,0,2,,,,,,,,,,,,,,,0,64,0,,
378240,note_on,120,0,2,,,,,,,,,,,,,,,0,,,60,0
378240,set_tempo,2920,1,0,,,,,,,,,,,,625065,,,,,,,
378240,note_on,480,0,1,,,,,,,,,,,,,,,0,,,72,0
378240,note_on,0,0,1,,,,,,,,,,,,,,,0,,,83,61
378240,note_on,0,0,1,,,,,,,,,,,,,,,0,,,71,61
378240,note_on,0,0,1,,,,,,,,,,,,,,,0,,,84,0
378297,control_change,57,0,2,,,,,,,,,,,,,,,0,64,127,,
378360,note_on,63,0,2,,,,,,,,,,,,,,,0,,,53,0
378360,note_on,0,0,2,,,,,,,,,,,,,,,0,,,59,29
378480,note_on,0,0,2,,,,,,,,,,,,,,,0,,,56,29
378480,note_on,120,0,2,,,,,,,,,,,,,,,0,,,59,0
378600,note_on,0,0,2,,,,,,,,,,,,,,,0,,,59,29
378600,note_on,120,0,2,,,,,,,,,,,,,,,0,,,56,0
378680,set_tempo,440,1,0,,,,,,,,,,,,628997,,,,,,,
378720,note_on,120,0,2,,,,,,,,,,,,,,,0,,,59,0
378720,note_on,0,0,2,,,,,,,,,,,,,,,0,,,53,34
378840,note_on,120,0,2,,,,,,,,,,,,,,,0,,,53,0
378840,note_on,0,0,2,,,,,,,,,,,,,,,0,,,59,29
378960,note_on,0,0,2,,,,,,,,,,,,,,,0,,,56,29
378960,note_on,120,0,2,,,,,,,,,,,,,,,0,,,59,0
379080,note_on,120,0,2,,,,,,,,,,,,,,,0,,,56,0
379080,note_on,0,0,2,,,,,,,,,,,,,,,0,,,59,29
379120,set_tempo,440,1,0,,,,,,,,,,,,632845,,,,,,,
379200,note_on,120,0,2,,,,,,,,,,,,,,,0,,,59,0
379200,note_on,0,0,2,,,,,,,,,,,,,,,0,,,53,33
379320,note_on,120,0,2,,,,,,,,,,,,,,,0,,,53,0
379320,note_on,0,0,2,,,,,,,,,,,,,,,0,,,59,29
379440,note_on,120,0,2,,,,,,,,,,,,,,,0,,,59,0
379440,note_on,0,0,2,,,,,,,,,,,,,,,0,,,56,29
379560,note_on,120,0,2,,,,,,,,,,,,,,,0,,,56,0
379560,note_on,0,0,2,,,,,,,,,,,,,,,0,,,59,29
379560,set_tempo,440,1,0,,,,,,,,,,,,636807,,,,,,,
379680,note_on,120,0,2,,,,,,,,,,,,,,,0,,,59,0
379680,note_on,0,0,2,,,,,,,,,,,,,,,0,,,53,33
379800,note_on,0,0,2,,,,,,,,,,,,,,,0,,,59,29
379800,note_on,120,0,2,,,,,,,,,,,,,,,0,,,53,0
379920,note_on,120,0,2,,,,,,,,,,,,,,,0,,,59,0
379920,note_on,0,0,2,,,,,,,,,,,,,,,0,,,56,29
380000,set_tempo,440,1,0,,,,,,,,,,,,640820,,,,,,,
380040,note_on,120,0,2,,,,,,,,,,,,,,,0,,,56,0
380040,note_on,0,0,2,,,,,,,,,,,,,,,0,,,59,29
380160,control_change,0,0,2,,,,,,,,,,,,,,,0,64,0,,
380160,note_on,120,0,2,,,,,,,,,,,,,,,0,,,59,0
380160,note_on,0,0,2,,,,,,,,,,,,,,,0,,,53,31
380263,control_change,103,0,2,,,,,,,,,,,,,,,0,64,127,,
380280,note_on,0,0,2,,,,,,,,,,,,,,,0,,,59,27
380280,note_on,17,0,2,,,,,,,,,,,,,,,0,,,53,0
380400,note_on,0,0,2,,,,,,,,,,,,,,,0,,,56,27
380400,note_on,120,0,2,,,,,,,,,,,,,,,0,,,59,0
380400,note_on,0,0,1,,,,,,,,,,,,,,,0,,,71,51
380400,note_on,0,0,1,,,,,,,,,,,,,,,0,,,71,0
380400,note_on,2160,0,1,,,,,,,,,,,,,,,0,,,83,0
380520,note_on,120,0,2,,,,,,,,,,,,,,,0,,,56,0
380520,note_on,0,0,2,,,,,,,,,,,,,,,0,,,59,27
380640,note_on,0,0,2,,,,,,,,,,,,,,,0,,,53,32
380640,note_on,240,0,1,,,,,,,,,,,,,,,0,,,71,0
380640,note_on,120,0,2,,,,,,,,,,,,,,,0,,,59,0
380640,note_on,0,0,1,,,,,,,,,,,,,,,0,,,71,51
380760,note_on,0,0,2,,,,,,,,,,,,,,,0,,,59,27
380760,note_on,120,0,2,,,,,,,,,,,,,,,0,,,53,0
380880,note_on,0,0,2,,,,,,,,,,,,,,,0,,,56,27
380880,note_on,0,0,1,,,,,,,,,,,,,,,0,,,71,51
380880,note_on,240,0,1,,,,,,,,,,,,,,,0,,,71,0
380880,note_on,120,0,2,,,,,,,,,,,,,,,0,,,59,0
381000,note_on,0,0,2,,,,,,,,,,,,,,,0,,,59,27
381000,note_on,120,0,2,,,,,,,,,,,,,,,0,,,56,0
381109,control_change,109,0,2,,,,,,,,,,,,,,,0,64,0,,
381120,note_on,0,0,2,,,,,,,,,,,,,,,0,,,52,32
381120,note_on,240,0,1,,,,,,,,,,,,,,,0,,,71,0
381120,note_on,0,0,1,,,,,,,,,,,,,,,0,,,71,50
381120,note_on,11,0,2,,,,,,,,,,,,,,,0,,,59,0
381160,control_change,40,0,2,,,,,,,,,,,,,,,0,64,127,,
381240,note_on,80,0,2,,,,,,,,,,,,,,,0,,,52,0
381240,note_on,0,0,2,,,,,,,,,,,,,,,0,,,59,26
381360,note_on,0,0,2,,,,,,,,,,,,,,,0,,,56,26
381360,note_on,120,0,2,,,,,,,,,,,,,,,0,,,59,0
381360,note_on,0,0,1,,,,,,,,,,,,,,,0,,,71,50
381360,note_on,240,0,1,,,,,,,,,,,,,,,0,,,71,0
381480,note_on,0,0,2,,,,,,,,,,,,,,,0,,,59,26
381480,note_on,120,0,2,,,,,,,,,,,,,,,0,,,56,0
381589,control_change,109,0,2,,,,,,,,,,,,,,,0,64,0,,
381600,note_on,0,0,1,,,,,,,,,,,,,,,0,,,71,50
381600,note_on,240,0,1,,,,,,,,,,,,,,,0,,,71,0
381600,note_on,11,0,2,,,,,,,,,,,,,,,0,,,59,0
381600,note_on,0,0,2,,,,,,,,,,,,,,,0,,,50,31
381646,control_change,46,0,2,,,,,,,,,,,,,,,0,64,127,,
381720,note_on,74,0,2,,,,,,,,,,,,,,,0,,,50,0
381720,note_on,0,0,2,,,,,,,,,,,,,,,0,,,59,26
381840,note_on,120,0,2,,,,,,,,,,,,,,,0,,,59,0
381840,note_on,0,0,2,,,,,,,,,,,,,,,0,,,56,26
381840,note_on,240,0,1,,,,,,,,,,,,,,,0,,,71,0
381840,note_on,0,0,1,,,,,,,,,,,,,,,0,,,71,50
381960,note_on,120,0,2,,,,,,,,,,,,,,,0,,,56,0
381960,note_on,0,0,2,,,,,,,,,,,,,,,0,,,59,26
382080,note_on,240,0,1,,,,,,,,,,,,,,,0,,,71,0
382080,note_on,0,0,1,,,,,,,,,,,,,,,0,,,72,53
382080,note_on,120,0,2,,,,,,,,,,,,,,,0,,,59,0
382080,control_change,0,0,2,,,,,,,,,,,,,,,0,64,0,,
382080,note_on,0,0,2,,,,,,,,,,,,,,,0,,,48,31
382080,set_tempo,2080,1,0,,,,,,,,,,,,616776,,,,,,,
382149,control_change,69,0,2,,,,,,,,,,,,,,,0,64,127,,
382200,note_on,51,0,2,,,,,,,,,,,,,,,0,,,48,0
382200,note_on,0,0,2,,,,,,,,,,,,,,,0,,,60,24
382320,note_on,120,0,2,,,,,,,,,,,,,,,0,,,60,0
382320,note_on,0,0,2,,,,,,,,,,,,,,,0,,,57,24
382440,note_on,120,0,2,,,,,,,,,,,,,,,0,,,57,0
382440,note_on,0,0,2,,,,,,,,,,,,,,,0,,,60,24
382560,set_tempo,480,1,0,,,,,,,,,,,,636807,,,,,,,
382560,note_on,120,0,2,,,,,,,,,,,,,,,0,,,60,0
382560,note_on,0,0,2,,,,,,,,,,,,,,,0,,,48,30
382680,note_on,0,0,2,,,,,,,,,,,,,,,0,,,62,25
382680,note_on,120,0,2,,,,,,,,,,,,,,,0,,,48,0
382800,note_on,120,0,2,,,,,,,,,,,,,,,0,,,62,0
382800,note_on,0,0,2,,,,,,,,,,,,,,,0,,,58,25
382920,note_on,120,0,2,,,,,,,,,,,,,,,0,,,58,0
382920,note_on,0,0,2,,,,,,,,,,,,,,,0,,,62,26
382920,note_on,0,0,1,,,,,,,,,,,,,,,0,,,74,47
382920,note_on,840,0,1,,,,,,,,,,,,,,,0,,,72,0
383040,note_on,0,0,1,,,,,,,,,,,,,,,0,,,72,52
383040,note_on,120,0,2,,,,,,,,,,,,,,,0,,,62,0
383040,note_on,0,0,2,,,,,,,,,,,,,,,0,,,48,29
383040,note_on,120,0,1,,,,,,,,,,,,,,,0,,,74,0
383074,control_change,34,0,2,,,,,,,,,,,,,,,0,64,0,,
383137,control_change,63,0,2,,,,,,,,,,,,,,,0,64,127,,
383160,note_on,23,0,2,,,,,,,,,,,,,,,0,,,48,0
383160,note_on,0,0,2,,,,,,,,,,,,,,,0,,,60,26
383280,note_on,240,0,1,,,,,,,,,,,,,,,0,,,72,0
383280,note_on,0,0,2,,,,,,,,,,,,,,,0,,,57,26
383280,note_on,120,0,2,,,,,,,,,,,,,,,0,,,60,0
383400,note_on,120,0,2,,,,,,,,,,,,,,,0,,,57,0
383400,note_on,0,0,2,,,,,,,,,,,,,,,0,,,60,26
383520,note_on,240,0,1,,,,,,,,,,,,,,,0,,,77,49
383520,control_change,0,0,2,,,,,,,,,,,,,,,0,64,0,,
383520,note_on,0,0,2,,,,,,,,,,,,,,,0,,,48,30
383520,set_tempo,960,1,0,,,,,,,,,,,,582298,,,,,,,
383520,note_on,120,0,2,,,,,,,,,,,,,,,0,,,60,0
383540,control_change,20,0,2,,,,,,,,,,,,,,,0,64,127,,
383560,set_tempo,40,1,0,,,,,,,,,,,,575595,,,,,,,
383580,note_on,60,0,1,,,,,,,,,,,,,,,0,,,77,0
383580,note_on,0,0,1,,,,,,,,,,,,,,,0,,,79,43
383600,set_tempo,40,1,0,,,,,,,,,,,,569206,,,,,,,
383640,note_on,100,0,2,,,,,,,,,,,,,,,0,,,48,0
383640,note_on,0,0,2,,,,,,,,,,,,,,,0,,,62,26
383640,set_tempo,40,1,0,,,,,,,,,,,,562957,,,,,,,
383640,note_on,60,0,1,,,,,,,,,,,,,,,0,,,79,0
383640,note_on,0,0,1,,,,,,,,,,,,,,,0,,,77,44
383680,set_tempo,40,1,0,,,,,,,,,,,,556793,,,,,,,
383700,note_on,60,0,1,,,,,,,,,,,,,,,0,,,77,0
383700,note_on,0,0,1,,,,,,,,,,,,,,,0,,,79,44
383720,set_tempo,40,1,0,,,,,,,,,,,,547795,,,,,,,
383760,note_on,0,0,1,,,,,,,,,,,,,,,0,,,77,44
383760,note_on,60,0,1,,,,,,,,,,,,,,,0,,,79,0
383760,note_on,0,0,2,,,,,,,,,,,,,,,0,,,58,26
383760,note_on,120,0,2,,,,,,,,,,,,,,,0,,,62,0
383820,note_on,0,0,1,,,,,,,,,,,,,,,0,,,79,46
383820,note_on,60,0,1,,,,,,,,,,,,,,,0,,,77,0
383864,set_tempo,144,1,0,,,,,,,,,,,,543380,,,,,,,
383880,set_tempo,16,1,0,,,,,,,,,,,,559336,,,,,,,
383880,note_on,0,0,2,,,,,,,,,,,,,,,0,,,62,26
383880,note_on,120,0,2,,,,,,,,,,,,,,,0,,,58,0
383880,note_on,60,0,1,,,,,,,,,,,,,,,0,,,79,0
383880,note_on,0,0,1,,,,,,,,,,,,,,,0,,,76,51
383892,set_tempo,12,1,0,,,,,,,,,,,,576258,,,,,,,
383904,set_tempo,12,1,0,,,,,,,,,,,,594295,,,,,,,
383920,set_tempo,16,1,0,,,,,,,,,,,,616776,,,,,,,
383932,set_tempo,12,1,0,,,,,,,,,,,,637416,,,,,,,
383940,note_on,60,0,1,,,,,,,,,,,,,,,0,,,76,0
383940,note_on,0,0,1,,,,,,,,,,,,,,,0,,,77,44
383944,set_tempo,12,1,0,,,,,,,,,,,,659631,,,,,,,
383960,set_tempo,16,1,0,,,,,,,,,,,,683293,,,,,,,
383972,set_tempo,12,1,0,,,,,,,,,,,,713182,,,,,,,
384000,note_on,120,0,2,,,,,,,,,,,,,,,0,,,62,0
384000,control_change,0,0,2,,,,,,,,,,,,,,,0,64,0,,
384000,set_tempo,28,1,0,,,,,,,,,,,,620155,,,,,,,
384000,note_on,0,0,2,,,,,,,,,,,,,,,0,,,48,31
384000,note_on,0,0,1,,,,,,,,,,,,,,,0,,,81,58
384000,note_on,0,0,1,,,,,,,,,,,,,,,0,,,69,46
384000,note_on,60,0,1,,,,,,,,,,,,,,,0,,,77,0
384113,control_change,113,0,2,,,,,,,,,,,,,,,0,64,127,,
384120,note_on,7,0,2,,,,,,,,,,,,,,,0,,,48,0
384120,note_on,0,0,2,,,,,,,,,,,,,,,0,,,60,24
384240,note_on,120,0,2,,,,,,,,,,,,,,,0,,,60,0
384240,note_on,0,0,2,,,,,,,,,,,,,,,0,,,57,24
384360,note_on,120,0,2,,,,,,,,,,,,,,,0,,,57,0
384360,note_on,0,0,2,,,,,,,,,,,,,,,0,,,60,24
384480,set_tempo,480,1,0,,,,,,,,,,,,636807,,,,,,,
384480,note_on,0,0,2,,,,,,,,,,,,,,,0,,,48,30
384480,note_on,120,0,2,,,,,,,,,,,,,,,0,,,60,0
384600,note_on,0,0,2,,,,,,,,,,,,,,,0,,,62,25
384600,note_on,120,0,2,,,,,,,,,,,,,,,0,,,48,0
384720,note_on,120,0,2,,,,,,,,,,,,,,,0,,,62,0
384720,note_on,0,0,2,,,,,,,,,,,,,,,0,,,58,25
384840,note_on,0,0,2,,,,,,,,,,,,,,,0,,,62,26
384840,note_on,0,0,1,,,,,,,,,,,,,,,0,,,67,40
384840,note_on,0,0,1,,,,,,,,,,,,,,,0,,,81,0
384840,note_on,120,0,2,,,,,,,,,,,,,,,0,,,58,0
384840,note_on,840,0,1,,,,,,,,,,,,,,,0,,,69,0
384840,note_on,0,0,1,,,,,,,,,,,,,,,0,,,79,51
384960,note_on,0,0,2,,,,,,,,,,,,,,,0,,,48,29
384960,note_on,0,0,1,,,,,,,,,,,,,,,0,,,77,53
384960,note_on,0,0,1,,,,,,,,,,,,,,,0,,,65,43
384960,note_on,0,0,1,,,,,,,,,,,,,,,0,,,67,0
384960,note_on,120,0,2,,,,,,,,,,,,,,,0,,,62,0
384960,note_on,120,0,1,,,,,,,,,,,,,,,0,,,79,0
384994,control_change,34,0,2,,,,,,,,,,,,,,,0,64,0,,
385057,control_change,63,0,2,,,,,,,,,,,,,,,0,64,127,,
385080,note_on,0,0,2,,,,,,,,,,,,,,,0,,,60,26
385080,note_on,23,0,2,,,,,,,,,,,,,,,0,,,48,0
385200,note_on,120,0,2,,,,,,,,,,,,,,,0,,,60,0
385200,note_on,0,0,1,,,,,,,,,,,,,,,0,,,65,0
385200,note_on,240,0,1,,,,,,,,,,,,,,,0,,,77,0
385200,note_on,0,0,2,,,,,,,,,,,,,,,0,,,57,26
385320,note_on,120,0,2,,,,,,,,,,,,,,,0,,,57,0
385320,note_on,0,0,2,,,,,,,,,,,,,,,0,,,60,26
385440,set_tempo,960,1,0,,,,,,,,,,,,648999,,,,,,,
385440,note_on,240,0,1,,,,,,,,,,,,,,,0,,,74,54
385440,note_on,120,0,2,,,,,,,,,,,,,,,0,,,60,0
385440,control_change,0,0,2,,,,,,,,,,,,,,,0,64,0,,
385440,note_on,0,0,2,,,,,,,,,,,,,,,0,,,48,30
385486,control_change,46,0,2,,,,,,,,,,,,,,,0,64,127,,
385560,note_on,74,0,2,,,,,,,,,,,,,,,0,,,48,0
385560,note_on,0,0,2,,,,,,,,,,,,,,,0,,,62,26
385680,note_on,0,0,2,,,,,,,,,,,,,,,0,,,58,26
385680,note_on,120,0,2,,,,,,,,,,,,,,,0,,,62,0
385800,note_on,120,0,2,,,,,,,,,,,,,,,0,,,58,0
385800,note_on,0,0,2,,,,,,,,,,,,,,,0,,,62,26
385920,note_on,120,0,2,,,,,,,,,,,,,,,0,,,62,0
385920,control_change,0,0,2,,,,,,,,,,,,,,,0,64,0,,
385920,note_on,0,0,2,,,,,,,,,,,,,,,0,,,48,31
385920,note_on,480,0,1,,,,,,,,,,,,,,,0,,,74,0
385920,note_on,0,0,1,,,,,,,,,,,,,,,0,,,72,58
385920,set_tempo,480,1,0,,,,,,,,,,,,644884,,,,,,,
385989,control_change,69,0,2,,,,,,,,,,,,,,,0,64,127,,
386040,note_on,0,0,2,,,,,,,,,,,,,,,0,,,60,24
386040,note_on,51,0,2,,,,,,,,,,,,,,,0,,,48,0
386160,note_on,0,0,2,,,,,,,,,,,,,,,0,,,57,24
386160,note_on,120,0,2,,,,,,,,,,,,,,,0,,,60,0
386280,note_on,0,0,2,,,,,,,,,,,,,,,0,,,60,24
386280,note_on,120,0,2,,,,,,,,,,,,,,,0,,,57,0
386400,note_on,0,0,2,,,,,,,,,,,,,,,0,,,48,30
386400,set_tempo,480,1,0,,,,,,,,,,,,636807,,,,,,,
386400,note_on,120,0,2,,,,,,,,,,,,,,,0,,,60,0
386520,note_on,0,0,2,,,,,,,,,,,,,,,0,,,62,26
386520,note_on,120,0,2,,,,,,,,,,,,,,,0,,,48,0
386640,note_on,120,0,2,,,,,,,,,,,,,,,0,,,62,0
386640,note_on,0,0,2,,,,,,,,,,,,,,,0,,,58,26
386760,note_on,840,0,1,,,,,,,,,,,,,,,0,,,72,0
386760,note_on,0,0,1,,,,,,,,,,,,,,,0,,,74,53
386760,note_on,120,0,2,,,,,,,,,,,,,,,0,,,58,0
386760,note_on,0,0,2,,,,,,,,,,,,,,,0,,,62,27
386880,note_on,0,0,2,,,,,,,,,,,,,,,0,,,48,30
386880,note_on,120,0,2,,,,,,,,,,,,,,,0,,,62,0
386880,note_on,120,0,1,,,,,,,,,,,,,,,0,,,74,0
386880,note_on,0,0,1,,,,,,,,,,,,,,,0,,,72,60
386914,control_change,34,0,2,,,,,,,,,,,,,,,0,64,0,,
386977,control_change,63,0,2,,,,,,,,,,,,,,,0,64,127,,
387000,note_on,23,0,2,,,,,,,,,,,,,,,0,,,48,0
387000,note_on,0,0,2,,,,,,,,,,,,,,,0,,,60,27
387120,note_on,120,0,2,,,,,,,,,,,,,,,0,,,60,0
387120,note_on,0,0,2,,,,,,,,,,,,,,,0,,,57,28
387120,note_on,240,0,1,,,,,,,,,,,,,,,0,,,72,0
387240,note_on,120,0,2,,,,,,,,,,,,,,,0,,,57,0
387240,note_on,0,0,2,,,,,,,,,,,,,,,0,,,60,28
387360,set_tempo,960,1,0,,,,,,,,,,,,582298,,,,,,,
387360,control_change,0,0,2,,,,,,,,,,,,,,,0,64,0,,
387360,note_on,0,0,2,,,,,,,,,,,,,,,0,,,48,33
387360,note_on,120,0,2,,,,,,,,,,,,,,,0,,,60,0
387360,note_on,240,0,1,,,,,,,,,,,,,,,0,,,89,53
387380,control_change,20,0,2,,,,,,,,,,,,,,,0,64,127,,
387400,set_tempo,40,1,0,,,,,,,,,,,,575595,,,,,,,
387420,note_on,60,0,1,,,,,,,,,,,,,,,0,,,89,0
387420,note_on,0,0,1,,,,,,,,,,,,,,,0,,,91,47
387440,set_tempo,40,1,0,,,,,,,,,,,,569206,,,,,,,
387480,note_on,100,0,2,,,,,,,,,,,,,,,0,,,48,0
387480,note_on,0,0,2,,,,,,,,,,,,,,,0,,,62,28
387480,note_on,0,0,1,,,,,,,,,,,,,,,0,,,89,48
387480,note_on,60,0,1,,,,,,,,,,,,,,,0,,,91,0
387480,set_tempo,40,1,0,,,,,,,,,,,,559858,,,,,,,
387520,set_tempo,40,1,0,,,,,,,,,,,,553812,,,,,,,
387540,note_on,0,0,1,,,,,,,,,,,,,,,0,,,91,48
387540,note_on,60,0,1,,,,,,,,,,,,,,,0,,,89,0
387560,set_tempo,40,1,0,,,,,,,,,,,,544910,,,,,,,
387600,note_on,0,0,1,,,,,,,,,,,,,,,0,,,89,48
387600,note_on,60,0,1,,,,,,,,,,,,,,,0,,,91,0
387600,note_on,120,0,2,,,,,,,,,,,,,,,0,,,62,0
387600,note_on,0,0,2,,,,,,,,,,,,,,,0,,,58,28
387660,note_on,60,0,1,,,,,,,,,,,,,,,0,,,89,0
387660,note_on,0,0,1,,,,,,,,,,,,,,,0,,,91,50
387720,set_tempo,160,1,0,,,,,,,,,,,,545951,,,,,,,
387720,note_on,0,0,1,,,,,,,,,,,,,,,0,,,88,55
387720,note_on,60,0,1,,,,,,,,,,,,,,,0,,,91,0
387720,note_on,0,0,2,,,,,,,,,,,,,,,0,,,62,28
387720,note_on,120,0,2,,,,,,,,,,,,,,,0,,,58,0
387732,set_tempo,12,1,0,,,,,,,,,,,,567698,,,,,,,
387744,set_tempo,12,1,0,,,,,,,,,,,,591250,,,,,,,
387760,set_tempo,16,1,0,,,,,,,,,,,,620155,,,,,,,
387772,set_tempo,12,1,0,,,,,,,,,,,,648298,,,,,,,
387780,note_on,0,0,1,,,,,,,,,,,,,,,0,,,89,48
387780,note_on,60,0,1,,,,,,,,,,,,,,,0,,,88,0
387784,set_tempo,12,1,0,,,,,,,,,,,,679194,,,,,,,
387800,set_tempo,16,1,0,,,,,,,,,,,,717618,,,,,,,
387840,set_tempo,40,1,0,,,,,,,,,,,,620155,,,,,,,
387840,note_on,60,0,1,,,,,,,,,,,,,,,0,,,89,0
387840,note_on,0,0,1,,,,,,,,,,,,,,,0,,,93,69
387840,note_on,0,0,2,,,,,,,,,,,,,,,0,,,48,34
387840,note_on,0,0,1,,,,,,,,,,,,,,,0,,,81,63
387840,note_on,120,0,2,,,,,,,,,,,,,,,0,,,62,0
387840,control_change,0,0,2,,,,,,,,,,,,,,,0,64,0,,
387904,control_change,64,0,2,,,,,,,,,,,,,,,0,64,127,,
387960,note_on,56,0,2,,,,,,,,,,,,,,,0,,,48,0
387960,note_on,0,0,2,,,,,,,,,,,,,,,0,,,60,26
388080,note_on,120,0,2,,,,,,,,,,,,,,,0,,,60,0
388080,note_on,0,0,2,,,,,,,,,,,,,,,0,,,57,26
388200,note_on,120,0,2,,,,,,,,,,,,,,,0,,,57,0
388200,note_on,0,0,2,,,,,,,,,,,,,,,0,,,60,26
388320,note_on,120,0,2,,,,,,,,,,,,,,,0,,,60,0
388320,note_on,0,0,2,,,,,,,,,,,,,,,0,,,48,33
388320,set_tempo,480,1,0,,,,,,,,,,,,636807,,,,,,,
388440,note_on,120,0,2,,,,,,,,,,,,,,,0,,,48,0
388440,note_on,0,0,2,,,,,,,,,,,,,,,0,,,62,27
388560,note_on,120,0,2,,,,,,,,,,,,,,,0,,,62,0
388560,note_on,0,0,2,,,,,,,,,,,,,,,0,,,58,27
388680,note_on,0,0,2,,,,,,,,,,,,,,,0,,,62,28
388680,note_on,0,0,1,,,,,,,,,,,,,,,0,,,91,62
388680,note_on,0,0,1,,,,,,,,,,,,,,,0,,,79,62
388680,note_on,0,0,1,,,,,,,,,,,,,,,0,,,93,0
388680,note_on,840,0,1,,,,,,,,,,,,,,,0,,,81,0
388680,note_on,120,0,2,,,,,,,,,,,,,,,0,,,58,0
388800,note_on,120,0,2,,,,,,,,,,,,,,,0,,,62,0
388800,note_on,0,0,2,,,,,,,,,,,,,,,0,,,48,31
388800,note_on,0,0,1,,,,,,,,,,,,,,,0,,,89,67
388800,note_on,0,0,1,,,,,,,,,,,,,,,0,,,77,67
388800,note_on,0,0,1,,,,,,,,,,,,,,,0,,,79,0
388800,note_on,120,0,1,,,,,,,,,,,,,,,0,,,91,0
388834,control_change,34,0,2,,,,,,,,,,,,,,,0,64,0,,
388897,control_change,63,0,2,,,,,,,,,,,,,,,0,64,127,,
388920,note_on,0,0,2,,,,,,,,,,,,,,,0,,,60,28
388920,note_on,23,0,2,,,,,,,,,,,,,,,0,,,48,0
389040,note_on,0,0,2,,,,,,,,,,,,,,,0,,,57,28
389040,note_on,120,0,2,,,,,,,,,,,,,,,0,,,60,0
389040,note_on,240,0,1,,,,,,,,,,,,,,,0,,,89,0
389040,note_on,0,0,1,,,,,,,,,,,,,,,0,,,77,0
389160,note_on,0,0,2,,,,,,,,,,,,,,,0,,,60,28
389160,note_on,120,0,2,,,,,,,,,,,,,,,0,,,57,0
389280,note_on,0,0,1,,,,,,,,,,,,,,,0,,,77,48
389280,note_on,240,0,1,,,,,,,,,,,,,,,0,,,74,48
389280,set_tempo,960,1,0,,,,,,,,,,,,653168,,,,,,,
389280,note_on,0,0,1,,,,,,,,,,,,,,,0,,,82,69
389280,note_on,0,0,2,,,,,,,,,,,,,,,0,,,48,36
389280,note_on,120,0,2,,,,,,,,,,,,,,,0,,,60,0
389280,control_change,0,0,2,,,,,,,,,,,,,,,0,64,0,,
389280,note_on,0,0,1,,,,,,,,,,,,,,,0,,,86,69
389326,control_change,46,0,2,,,,,,,,,,,,,,,0,64,127,,
389400,note_on,74,0,2,,,,,,,,,,,,,,,0,,,48,0
389400,note_on,0,0,2,,,,,,,,,,,,,,,0,,,62,30
389520,note_on,0,0,2,,,,,,,,,,,,,,,0,,,58,30
389520,note_on,120,0,2,,,,,,,,,,,,,,,0,,,62,0
389640,note_on,0,0,2,,,,,,,,,,,,,,,0,,,62,30
389640,note_on,120,0,2,,,,,,,,,,,,,,,0,,,58,0
389760,set_tempo,480,1,0,,,,,,,,,,,,636807,,,,,,,
389760,note_on,480,0,1,,,,,,,,,,,,,,,0,,,86,0
389760,note_on,0,0,1,,,,,,,,,,,,,,,0,,,84,69
389760,note_on,0,0,1,,,,,,,,,,,,,,,0,,,82,0
389760,note_on,0,0,1,,,,,,,,,,,,,,,0,,,77,0
389760,note_on,0,0,1,,,,,,,,,,,,,,,0,,,74,0
389760,note_on,0,0,1,,,,,,,,,,,,,,,0,,,81,69
389760,note_on,0,0,1,,,,,,,,,,,,,,,0,,,77,58
389760,note_on,0,0,1,,,,,,,,,,,,,,,0,,,72,58
389760,note_on,120,0,2,,,,,,,,,,,,,,,0,,,62,0
389760,note_on,0,0,2,,,,,,,,,,,,,,,0,,,48,42
389760,control_change,0,0,2,,,,,,,,,,,,,,,0,64,0,,
389809,control_change,49,0,2,,,,,,,,,,,,,,,0,64,127,,
389880,note_on,0,0,2,,,,,,,,,,,,,,,0,,,60,35
389880,note_on,71,0,2,,,,,,,,,,,,,,,0,,,48,0
390000,note_on,0,0,2,,,,,,,,,,,,,,,0,,,57,35
390000,note_on,120,0,2,,,,,,,,,,,,,,,0,,,60,0
390120,note_on,0,0,2,,,,,,,,,,,,,,,0,,,60,35
390120,note_on,120,0,2,,,,,,,,,,,,,,,0,,,57,0
390240,note_on,0,0,1,,,,,,,,,,,,,,,0,,,77,61
390240,note_on,0,0,2,,,,,,,,,,,,,,,0,,,48,44
390240,control_change,0,0,2,,,,,,,,,,,,,,,0,64,0,,
390240,note_on,120,0,2,,,,,,,,,,,,,,,0,,,60,0
390240,note_on,0,0,1,,,,,,,,,,,,,,,0,,,74,61
390240,note_on,480,0,1,,,,,,,,,,,,,,,0,,,84,0
390240,note_on,0,0,1,,,,,,,,,,,,,,,0,,,77,0
390240,set_tempo,480,1,0,,,,,,,,,,,,628997,,,,,,,
390240,note_on,0,0,1,,,,,,,,,,,,,,,0,,,81,0
390240,note_on,0,0,1,,,,,,,,,,,,,,,0,,,86,72
390240,note_on,0,0,1,,,,,,,,,,,,,,,0,,,82,72
390240,note_on,0,0,1,,,,,,,,,,,,,,,0,,,72,0
390289,control_change,49,0,2,,,,,,,,,,,,,,,0,64,127,,
390360,note_on,71,0,2,,,,,,,,,,,,,,,0,,,48,0
390360,note_on,0,0,2,,,,,,,,,,,,,,,0,,,62,37
390480,note_on,0,0,2,,,,,,,,,,,,,,,0,,,58,38
390480,note_on,120,0,2,,,,,,,,,,,,,,,0,,,62,0
390600,note_on,120,0,2,,,,,,,,,,,,,,,0,,,58,0
390600,note_on,0,0,2,,,,,,,,,,,,,,,0,,,62,37
390720,note_on,0,0,1,,,,,,,,,,,,,,,0,,,84,74
390720,note_on,120,0,2,,,,,,,,,,,,,,,0,,,62,0
390720,control_change,0,0,2,,,,,,,,,,,,,,,0,64,0,,
390720,note_on,0,0,1,,,,,,,,,,,,,,,0,,,77,0
390720,note_on,0,0,2,,,,,,,,,,,,,,,0,,,48,47
390720,note_on,0,0,1,,,,,,,,,,,,,,,0,,,74,0
390720,note_on,480,0,1,,,,,,,,,,,,,,,0,,,86,0
390720,note_on,0,0,1,,,,,,,,,,,,,,,0,,,82,0
390720,note_on,0,0,1,,,,,,,,,,,,,,,0,,,77,62
390720,note_on,0,0,1,,,,,,,,,,,,,,,0,,,81,62
390720,note_on,0,0,1,,,,,,,,,,,,,,,0,,,89,74
390784,control_change,64,0,2,,,,,,,,,,,,,,,0,64,127,,
390840,note_on,0,0,2,,,,,,,,,,,,,,,0,,,60,37
390840,note_on,56,0,2,,,,,,,,,,,,,,,0,,,48,0
390960,note_on,120,0,2,,,,,,,,,,,,,,,0,,,60,0
390960,note_on,0,0,2,,,,,,,,,,,,,,,0,,,57,38
391080,note_on,120,0,2,,,,,,,,,,,,,,,0,,,57,0
391080,note_on,0,0,2,,,,,,,,,,,,,,,0,,,60,38
391200,note_on,120,0,2,,,,,,,,,,,,,,,0,,,60,0
391200,control_change,0,0,2,,,,,,,,,,,,,,,0,64,0,,
391200,note_on,0,0,2,,,,,,,,,,,,,,,0,,,48,49
391200,note_on,0,0,1,,,,,,,,,,,,,,,0,,,81,0
391200,note_on,0,0,1,,,,,,,,,,,,,,,0,,,77,0
391200,set_tempo,960,1,0,,,,,,,,,,,,661667,,,,,,,
391200,note_on,0,0,1,,,,,,,,,,,,,,,0,,,91,78
391200,note_on,0,0,1,,,,,,,,,,,,,,,0,,,88,78
391200,note_on,0,0,1,,,,,,,,,,,,,,,0,,,84,66
391200,note_on,0,0,1,,,,,,,,,,,,,,,0,,,79,66
391200,note_on,0,0,1,,,,,,,,,,,,,,,0,,,84,0
391200,note_on,480,0,1,,,,,,,,,,,,,,,0,,,89,0
391249,control_change,49,0,2,,,,,,,,,,,,,,,0,64,127,,
391320,note_on,0,0,2,,,,,,,,,,,,,,,0,,,60,40
391320,note_on,71,0,2,,,,,,,,,,,,,,,0,,,48,0
391440,note_on,0,0,2,,,,,,,,,,,,,,,0,,,58,40
391440,note_on,120,0,2,,,,,,,,,,,,,,,0,,,60,0
391560,note_on,120,0,2,,,,,,,,,,,,,,,0,,,58,0
391560,note_on,0,0,2,,,,,,,,,,,,,,,0,,,60,40
391680,note_on,0,0,1,,,,,,,,,,,,,,,0,,,79,0
391680,note_on,0,0,1,,,,,,,,,,,,,,,0,,,84,0
391680,note_on,0,0,1,,,,,,,,,,,,,,,0,,,88,0
391680,note_on,0,0,1,,,,,,,,,,,,,,,0,,,79,63
391680,note_on,0,0,1,,,,,,,,,,,,,,,0,,,84,63
391680,note_on,0,0,1,,,,,,,,,,,,,,,0,,,88,75
391680,note_on,0,0,1,,,,,,,,,,,,,,,0,,,91,75
391680,note_on,120,0,2,,,,,,,,,,,,,,,0,,,60,0
391680,control_change,0,0,2,,,,,,,,,,,,,,,0,64,0,,
391680,note_on,0,0,2,,,,,,,,,,,,,,,0,,,48,41
391680,note_on,0,0,2,,,,,,,,,,,,,,,0,,,60,49
391680,note_on,480,0,1,,,,,,,,,,,,,,,0,,,91,0
391680,note_on,0,0,2,,,,,,,,,,,,,,,0,,,58,41
391920,control_change,240,0,2,,,,,,,,,,,,,,,0,64,127,,
392640,note_on,0,0,1,,,,,,,,,,,,,,,0,,,88,63
392640,note_on,0,0,1,,,,,,,,,,,,,,,0,,,88,0
392640,note_on,0,0,1,,,,,,,,,,,,,,,0,,,84,0
392640,note_on,0,0,1,,,,,,,,,,,,,,,0,,,79,0
392640,note_on,960,0,1,,,,,,,,,,,,,,,0,,,91,0
392640,set_tempo,1440,1,0,,,,,,,,,,,,640820,,,,,,,
392663,control_change,743,0,2,,,,,,,,,,,,,,,0,64,0,,
392709,control_change,46,0,2,,,,,,,,,,,,,,,0,64,127,,
392800,note_on,160,0,1,,,,,,,,,,,,,,,0,,,88,0
392800,note_on,0,0,1,,,,,,,,,,,,,,,0,,,84,54
392960,note_on,0,0,1,,,,,,,,,,,,,,,0,,,79,54
392960,note_on,160,0,1,,,,,,,,,,,,,,,0,,,84,0
393120,note_on,0,0,1,,,,,,,,,,,,,,,0,,,76,54
393120,note_on,160,0,1,,,,,,,,,,,,,,,0,,,79,0
393280,note_on,0,0,1,,,,,,,,,,,,,,,0,,,79,52
393280,note_on,160,0,1,,,,,,,,,,,,,,,0,,,76,0
393440,note_on,160,0,1,,,,,,,,,,,,,,,0,,,79,0
393440,note_on,0,0,1,,,,,,,,,,,,,,,0,,,84,51
393600,note_on,0,0,2,,,,,,,,,,,,,,,0,,,53,32
393600,note_on,891,0,2,,,,,,,,,,,,,,,0,,,58,0
393600,note_on,160,0,1,,,,,,,,,,,,,,,0,,,84,0
393600,note_on,0,0,1,,,,,,,,,,,,,,,0,,,77,53
393600,set_tempo,960,1,0,,,,,,,,,,,,659631,,,,,,,
393600,note_on,0,0,2,,,,,,,,,,,,,,,0,,,57,32
393600,note_on,0,0,2,,,,,,,,,,,,,,,0,,,48,0
393600,note_on,0,0,2,,,,,,,,,,,,,,,0,,,60,0
393600,note_on,0,0,2,,,,,,,,,,,,,,,0,,,60,38
393600,control_change,0,0,2,,,,,,,,,,,,,,,0,64,0,,
393660,control_change,60,0,2,,,,,,,,,,,,,,,0,64,127,,
393760,note_on,0,0,1,,,,,,,,,,,,,,,0,,,84,49
393760,note_on,160,0,1,,,,,,,,,,,,,,,0,,,77,0
393840,set_tempo,240,1,0,,,,,,,,,,,,606919,,,,,,,
393844,control_change,184,0,2,,,,,,,,,,,,,,,0,64,0,,
393920,note_on,0,0,1,,,,,,,,,,,,,,,0,,,81,49
393920,note_on,160,0,1,,,,,,,,,,,,,,,0,,,84,0
394000,note_on,80,0,1,,,,,,,,,,,,,,,0,,,81,0
394080,note_on,0,0,2,,,,,,,,,,,,,,,0,,,53,0
394080,set_tempo,240,1,0,,,,,,,,,,,,603743,,,,,,,
394080,note_on,80,0,1,,,,,,,,,,,,,,,0,,,77,53
394080,note_on,0,0,2,,,,,,,,,,,,,,,0,,,57,0
394080,note_on,236,0,2,,,,,,,,,,,,,,,0,,,60,0
394160,note_on,80,0,1,,,,,,,,,,,,,,,0,,,77,0
394240,note_on,80,0,1,,,,,,,,,,,,,,,0,,,72,48
394320,note_on,80,0,1,,,,,,,,,,,,,,,0,,,72,0
394400,note_on,80,0,1,,,,,,,,,,,,,,,0,,,69,46
394480,note_on,80,0,1,,,,,,,,,,,,,,,0,,,69,0
394560,note_on,0,0,2,,,,,,,,,,,,,,,0,,,57,29
394560,note_on,480,0,2,,,,,,,,,,,,,,,0,,,53,29
394560,note_on,0,0,2,,,,,,,,,,,,,,,0,,,60,35
394560,note_on,80,0,1,,,,,,,,,,,,,,,0,,,65,51
394560,set_tempo,480,1,0,,,,,,,,,,,,613434,,,,,,,
394640,note_on,80,0,1,,,,,,,,,,,,,,,0,,,65,0
394720,note_on,80,0,1,,,,,,,,,,,,,,,0,,,69,46
394800,note_on,80,0,1,,,,,,,,,,,,,,,0,,,69,0
394800,note_on,240,0,2,,,,,,,,,,,,,,,0,,,60,0
394800,note_on,0,0,2,,,,,,,,,,,,,,,0,,,57,0
394800,note_on,0,0,2,,,,,,,,,,,,,,,0,,,53,0
394880,note_on,80,0,1,,,,,,,,,,,,,,,0,,,72,46
394960,note_on,80,0,1,,,,,,,,,,,,,,,0,,,72,0
395040,note_on,240,0,2,,,,,,,,,,,,,,,0,,,53,29
395040,note_on,0,0,2,,,,,,,,,,,,,,,0,,,60,29
395040,note_on,80,0,1,,,,,,,,,,,,,,,0,,,69,53
395040,set_tempo,480,1,0,,,,,,,,,,,,630451,,,,,,,
395040,note_on,0,0,2,,,,,,,,,,,,,,,0,,,63,35
395120,note_on,80,0,1,,,,,,,,,,,,,,,0,,,69,0
395200,note_on,80,0,1,,,,,,,,,,,,,,,0,,,72,50
395280,note_on,0,0,2,,,,,,,,,,,,,,,0,,,53,0
395280,note_on,0,0,2,,,,,,,,,,,,,,,0,,,60,0
395280,note_on,240,0,2,,,,,,,,,,,,,,,0,,,63,0
395280,note_on,80,0,1,,,,,,,,,,,,,,,0,,,72,0
395360,note_on,80,0,1,,,,,,,,,,,,,,,0,,,77,50
395440,note_on,80,0,1,,,,,,,,,,,,,,,0,,,77,0
395520,set_tempo,480,1,0,,,,,,,,,,,,648298,,,,,,,
395520,note_on,80,0,1,,,,,,,,,,,,,,,0,,,77,53
395520,control_change,240,0,2,,,,,,,,,,,,,,,0,64,0,,
395520,note_on,0,0,2,,,,,,,,,,,,,,,0,,,53,32
395520,note_on,0,0,2,,,,,,,,,,,,,,,0,,,58,32
395520,note_on,0,0,2,,,,,,,,,,,,,,,0,,,62,38
395580,control_change,60,0,2,,,,,,,,,,,,,,,0,64,127,,
395680,note_on,160,0,1,,,,,,,,,,,,,,,0,,,77,0
395680,note_on,0,0,1,,,,,,,,,,,,,,,0,,,86,49
395760,set_tempo,240,1,0,,,,,,,,,,,,606919,,,,,,,
395764,control_change,184,0,2,,,,,,,,,,,,,,,0,64,0,,
395840,note_on,160,0,1,,,,,,,,,,,,,,,0,,,86,0
395840,note_on,0,0,1,,,,,,,,,,,,,,,0,,,82,49
395920,note_on,80,0,1,,,,,,,,,,,,,,,0,,,82,0
396000,note_on,0,0,2,,,,,,,,,,,,,,,0,,,58,0
396000,note_on,236,0,2,,,,,,,,,,,,,,,0,,,62,0
396000,note_on,0,0,2,,,,,,,,,,,,,,,0,,,53,0
396000,note_on,80,0,1,,,,,,,,,,,,,,,0,,,77,53
396080,note_on,80,0,1,,,,,,,,,,,,,,,0,,,77,0
396160,note_on,80,0,1,,,,,,,,,,,,,,,0,,,74,48
396240,note_on,80,0,1,,,,,,,,,,,,,,,0,,,74,0
396320,note_on,80,0,1,,,,,,,,,,,,,,,0,,,70,46
396400,note_on,80,0,1,,,,,,,,,,,,,,,0,,,70,0
396480,note_on,0,0,2,,,,,,,,,,,,,,,0,,,58,29
396480,note_on,0,0,2,,,,,,,,,,,,,,,0,,,62,35
396480,note_on,80,0,1,,,,,,,,,,,,,,,0,,,65,51
396480,note_on,480,0,2,,,,,,,,,,,,,,,0,,,53,29
396560,note_on,80,0,1,,,,,,,,,,,,,,,0,,,65,0
396640,note_on,80,0,1,,,,,,,,,,,,,,,0,,,70,46
396720,note_on,240,0,2,,,,,,,,,,,,,,,0,,,62,0
396720,note_on,0,0,2,,,,,,,,,,,,,,,0,,,58,0
396720,note_on,0,0,2,,,,,,,,,,,,,,,0,,,53,0
396720,note_on,80,0,1,,,,,,,,,,,,,,,0,,,70,0
396800,note_on,80,0,1,,,,,,,,,,,,,,,0,,,74,46
396880,note_on,80,0,1,,,,,,,,,,,,,,,0,,,74,0
396960,note_on,0,0,2,,,,,,,,,,,,,,,0,,,62,29
396960,note_on,0,0,2,,,,,,,,,,,,,,,0,,,65,35
396960,note_on,80,0,1,,,,,,,,,,,,,,,0,,,70,53
396960,set_tempo,1200,1,0,,,,,,,,,,,,620155,,,,,,,
396960,note_on,240,0,2,,,,,,,,,,,,,,,0,,,53,29
397040,note_on,80,0,1,,,,,,,,,,,,,,,0,,,70,0
397120,note_on,80,0,1,,,,,,,,,,,,,,,0,,,74,50
397200,note_on,240,0,2,,,,,,,,,,,,,,,0,,,65,0
397200,note_on,0,0,2,,,,,,,,,,,,,,,0,,,62,0
397200,note_on,0,0,2,,,,,,,,,,,,,,,0,,,53,0
397200,note_on,80,0,1,,,,,,,,,,,,,,,0,,,74,0
397280,note_on,80,0,1,,,,,,,,,,,,,,,0,,,77,50
397360,note_on,80,0,1,,,,,,,,,,,,,,,0,,,77,0
397440,note_on,80,0,1,,,,,,,,,,,,,,,0,,,77,53
397440,set_tempo,480,1,0,,,,,,,,,,,,652032,,,,,,,
397440,note_on,0,0,2,,,,,,,,,,,,,,,0,,,60,38
397440,note_on,0,0,2,,,,,,,,,,,,,,,0,,,57,32
397440,note_on,0,0,2,,,,,,,,,,,,,,,0,,,53,32
397440,control_change,240,0,2,,,,,,,,,,,,,,,0,64,0,,
397500,control_change,60,0,2,,,,,,,,,,,,,,,0,64,127,,
397600,note_on,160,0,1,,,,,,,,,,,,,,,0,,,77,0
397600,note_on,0,0,1,,,,,,,,,,,,,,,0,,,89,49
397680,set_tempo,240,1,0,,,,,,,,,,,,606919,,,,,,,
397684,control_change,184,0,2,,,,,,,,,,,,,,,0,64,0,,
397760,note_on,0,0,1,,,,,,,,,,,,,,,0,,,84,49
397760,note_on,160,0,1,,,,,,,,,,,,,,,0,,,89,0
397840,note_on,80,0,1,,,,,,,,,,,,,,,0,,,84,0
397920,note_on,0,0,2,,,,,,,,,,,,,,,0,,,53,0
397920,note_on,0,0,2,,,,,,,,,,,,,,,0,,,57,0
397920,note_on,236,0,2,,,,,,,,,,,,,,,0,,,60,0
397920,note_on,80,0,1,,,,,,,,,,,,,,,0,,,81,53
398000,note_on,80,0,1,,,,,,,,,,,,,,,0,,,81,0
398080,note_on,80,0,1,,,,,,,,,,,,,,,0,,,77,48
398160,note_on,80,0,1,,,,,,,,,,,,,,,0,,,77,0
398240,note_on,80,0,1,,,,,,,,,,,,,,,0,,,72,46
398320,note_on,80,0,1,,,,,,,,,,,,,,,0,,,72,0
398400,note_on,80,0,1,,,,,,,,,,,,,,,0,,,69,51
398400,note_on,480,0,2,,,,,,,,,,,,,,,0,,,53,29
398400,note_on,0,0,2,,,,,,,,,,,,,,,0,,,57,35
398480,note_on,80,0,1,,,,,,,,,,,,,,,0,,,69,0
398560,note_on,80,0,1,,,,,,,,,,,,,,,0,,,65,46
398640,note_on,80,0,1,,,,,,,,,,,,,,,0,,,65,0
398640,note_on,0,0,2,,,,,,,,,,,,,,,0,,,53,0
398640,note_on,240,0,2,,,,,,,,,,,,,,,0,,,57,0
398720,note_on,80,0,1,,,,,,,,,,,,,,,0,,,60,46
398800,note_on,80,0,1,,,,,,,,,,,,,,,0,,,60,0
398880,set_tempo,1200,1,0,,,,,,,,,,,,613434,,,,,,,
398880,note_on,80,0,1,,,,,,,,,,,,,,,0,,,65,53
398880,note_on,0,0,2,,,,,,,,,,,,,,,0,,,60,35
398880,note_on,240,0,2,,,,,,,,,,,,,,,0,,,57,29
398960,note_on,80,0,1,,,,,,,,,,,,,,,0,,,65,0
399040,note_on,80,0,1,,,,,,,,,,,,,,,0,,,69,50
399120,note_on,80,0,1,,,,,,,,,,,,,,,0,,,69,0
399120,note_on,0,0,2,,,,,,,,,,,,,,,0,,,57,0
399120,note_on,240,0,2,,,,,,,,,,,,,,,0,,,60,0
399200,note_on,80,0,1,,,,,,,,,,,,,,,0,,,72,50
399280,note_on,80,0,1,,,,,,,,,,,,,,,0,,,72,0
399360,note_on,80,0,1,,,,,,,,,,,,,,,0,,,72,51
399360,note_on,240,0,2,,,,,,,,,,,,,,,0,,,48,29
399360,note_on,0,0,2,,,,,,,,,,,,,,,0,,,57,29
399360,note_on,0,0,2,,,,,,,,,,,,,,,0,,,60,35
399371,control_change,11,0,2,,,,,,,,,,,,,,,0,64,127,,
399520,note_on,0,0,1,,,,,,,,,,,,,,,0,,,77,47
399520,note_on,160,0,1,,,,,,,,,,,,,,,0,,,72,0
399600,note_on,0,0,2,,,,,,,,,,,,,,,0,,,48,0
399600,note_on,0,0,2,,,,,,,,,,,,,,,0,,,57,0
399600,note_on,229,0,2,,,,,,,,,,,,,,,0,,,60,0
399680,note_on,0,0,1,,,,,,,,,,,,,,,0,,,77,47
399680,note_on,160,0,1,,,,,,,,,,,,,,,0,,,77,0
399692,control_change,92,0,2,,,,,,,,,,,,,,,0,64,0,,
399760,note_on,80,0,1,,,,,,,,,,,,,,,0,,,77,0
399840,note_on,0,0,2,,,,,,,,,,,,,,,0,,,58,28
399840,note_on,0,0,2,,,,,,,,,,,,,,,0,,,62,34
399840,set_tempo,960,1,0,,,,,,,,,,,,623506,,,,,,,
399840,note_on,148,0,2,,,,,,,,,,,,,,,0,,,48,28
399840,note_on,80,0,1,,,,,,,,,,,,,,,0,,,74,51
399872,control_change,32,0,2,,,,,,,,,,,,,,,0,64,127,,
400000,note_on,160,0,1,,,,,,,,,,,,,,,0,,,74,0
400000,note_on,0,0,1,,,,,,,,,,,,,,,0,,,79,48
400080,note_on,0,0,2,,,,,,,,,,,,,,,0,,,62,0
400080,note_on,208,0,2,,,,,,,,,,,,,,,0,,,58,0
400080,note_on,0,0,2,,,,,,,,,,,,,,,0,,,48,0
400160,note_on,0,0,1,,,,,,,,,,,,,,,0,,,79,48
400160,note_on,160,0,1,,,,,,,,,,,,,,,0,,,79,0
400161,control_change,81,0,2,,,,,,,,,,,,,,,0,64,0,,
400240,note_on,80,0,1,,,,,,,,,,,,,,,0,,,79,0
400320,note_on,80,0,1,,,,,,,,,,,,,,,0,,,72,51
400320,note_on,159,0,2,,,,,,,,,,,,,,,0,,,48,28
400320,note_on,0,0,2,,,,,,,,,,,,,,,0,,,57,28
400320,note_on,0,0,2,,,,,,,,,,,,,,,0,,,60,33
400345,control_change,25,0,2,,,,,,,,,,,,,,,0,64,127,,
400480,note_on,0,0,1,,,,,,,,,,,,,,,0,,,77,47
400480,note_on,160,0,1,,,,,,,,,,,,,,,0,,,72,0
400560,note_on,0,0,2,,,,,,,,,,,,,,,0,,,48,0
400560,note_on,0,0,2,,,,,,,,,,,,,,,0,,,57,0
400560,note_on,215,0,2,,,,,,,,,,,,,,,0,,,60,0
400640,note_on,0,0,1,,,,,,,,,,,,,,,0,,,77,47
400640,note_on,160,0,1,,,,,,,,,,,,,,,0,,,77,0
400669,control_change,109,0,2,,,,,,,,,,,,,,,0,64,0,,
400720,note_on,80,0,1,,,,,,,,,,,,,,,0,,,77,0
400800,note_on,0,0,2,,,,,,,,,,,,,,,0,,,58,34
400800,note_on,80,0,1,,,,,,,,,,,,,,,0,,,72,51
400800,note_on,131,0,2,,,,,,,,,,,,,,,0,,,48,28
400800,note_on,0,0,2,,,,,,,,,,,,,,,0,,,55,28
400804,control_change,4,0,2,,,,,,,,,,,,,,,0,64,127,,
400960,note_on,0,0,1,,,,,,,,,,,,,,,0,,,76,47
400960,note_on,160,0,1,,,,,,,,,,,,,,,0,,,72,0
401040,note_on,0,0,2,,,,,,,,,,,,,,,0,,,55,0
401040,note_on,0,0,2,,,,,,,,,,,,,,,0,,,48,0
401040,note_on,236,0,2,,,,,,,,,,,,,,,0,,,58,0
401120,note_on,0,0,1,,,,,,,,,,,,,,,0,,,76,47
401120,note_on,160,0,1,,,,,,,,,,,,,,,0,,,76,0
401125,control_change,85,0,2,,,,,,,,,,,,,,,0,64,0,,
401200,note_on,80,0,1,,,,,,,,,,,,,,,0,,,76,0
401280,note_on,80,0,1,,,,,,,,,,,,,,,0,,,72,51
401280,set_tempo,1440,1,0,,,,,,,,,,,,623506,,,,,,,
401280,note_on,155,0,2,,,,,,,,,,,,,,,0,,,48,29
401280,note_on,0,0,2,,,,,,,,,,,,,,,0,,,57,35
401280,note_on,0,0,2,,,,,,,,,,,,,,,0,,,54,29
401326,control_change,46,0,2,,,,,,,,,,,,,,,0,64,127,,
401440,note_on,0,0,1,,,,,,,,,,,,,,,0,,,75,47
401440,note_on,160,0,1,,,,,,,,,,,,,,,0,,,72,0
401520,note_on,194,0,2,,,,,,,,,,,,,,,0,,,57,0
401520,note_on,0,0,2,,,,,,,,,,,,,,,0,,,54,0
401520,note_on,0,0,2,,,,,,,,,,,,,,,0,,,48,0
401600,note_on,160,0,1,,,,,,,,,,,,,,,0,,,75,0
401600,note_on,0,0,1,,,,,,,,,,,,,,,0,,,75,47
401629,control_change,109,0,2,,,,,,,,,,,,,,,0,64,0,,
401680,note_on,80,0,1,,,,,,,,,,,,,,,0,,,75,0
401760,note_on,131,0,2,,,,,,,,,,,,,,,0,,,48,28
401760,note_on,80,0,1,,,,,,,,,,,,,,,0,,,72,52
401760,note_on,0,0,2,,,,,,,,,,,,,,,0,,,57,35
401760,note_on,0,0,2,,,,,,,,,,,,,,,0,,,54,28
401792,control_change,32,0,2,,,,,,,,,,,,,,,0,64,127,,
401920,note_on,0,0,1,,,,,,,,,,,,,,,0,,,74,50
401920,note_on,160,0,1,,,,,,,,,,,,,,,0,,,72,0
402000,note_on,0,0,2,,,,,,,,,,,,,,,0,,,48,0
402000,note_on,0,0,2,,,,,,,,,,,,,,,0,,,57,0
402000,note_on,208,0,2,,,,,,,,,,,,,,,0,,,54,0
402080,note_on,0,0,1,,,,,,,,,,,,,,,0,,,74,50
402080,note_on,160,0,1,,,,,,,,,,,,,,,0,,,74,0
402120,control_change,120,0,2,,,,,,,,,,,,,,,0,64,0,,
402160,note_on,80,0,1,,,,,,,,,,,,,,,0,,,74,0
402240,note_on,0,0,2,,,,,,,,,,,,,,,0,,,57,35
402240,note_on,0,0,2,,,,,,,,,,,,,,,0,,,54,29
402240,note_on,0,0,1,,,,,,,,,,,,,,,0,,,69,54
402240,note_on,80,0,1,,,,,,,,,,,,,,,0,,,66,46
402240,note_on,120,0,2,,,,,,,,,,,,,,,0,,,48,29
402291,control_change,51,0,2,,,,,,,,,,,,,,,0,64,127,,
402400,note_on,0,0,1,,,,,,,,,,,,,,,0,,,75,50
402400,note_on,0,0,1,,,,,,,,,,,,,,,0,,,66,0
402400,note_on,160,0,1,,,,,,,,,,,,,,,0,,,69,0
402480,note_on,0,0,2,,,,,,,,,,,,,,,0,,,48,0
402480,note_on,0,0,2,,,,,,,,,,,,,,,0,,,54,0
402480,note_on,189,0,2,,,,,,,,,,,,,,,0,,,57,0
402560,note_on,0,0,1,,,,,,,,,,,,,,,0,,,75,51
402560,note_on,160,0,1,,,,,,,,,,,,,,,0,,,75,0
402593,control_change,113,0,2,,,,,,,,,,,,,,,0,64,0,,
402640,note_on,80,0,1,,,,,,,,,,,,,,,0,,,75,0
402720,note_on,127,0,2,,,,,,,,,,,,,,,0,,,48,31
402720,note_on,0,0,2,,,,,,,,,,,,,,,0,,,54,31
402720,note_on,0,0,2,,,,,,,,,,,,,,,0,,,57,37
402720,note_on,0,0,1,,,,,,,,,,,,,,,0,,,69,56
402720,note_on,80,0,1,,,,,,,,,,,,,,,0,,,66,47
402777,control_change,57,0,2,,,,,,,,,,,,,,,0,64,127,,
402880,note_on,0,0,1,,,,,,,,,,,,,,,0,,,66,0
402880,note_on,0,0,1,,,,,,,,,,,,,,,0,,,74,52
402880,note_on,160,0,1,,,,,,,,,,,,,,,0,,,69,0
402960,note_on,0,0,2,,,,,,,,,,,,,,,0,,,54,0
402960,note_on,183,0,2,,,,,,,,,,,,,,,0,,,57,0
402960,note_on,0,0,2,,,,,,,,,,,,,,,0,,,48,0
403040,note_on,160,0,1,,,,,,,,,,,,,,,0,,,74,0
403040,note_on,0,0,1,,,,,,,,,,,,,,,0,,,74,53
403119,control_change,159,0,2,,,,,,,,,,,,,,,0,64,0,,
403120,note_on,80,0,1,,,,,,,,,,,,,,,0,,,74,0
403200,note_on,0,0,1,,,,,,,,,,,,,,,0,,,70,58
403200,note_on,0,0,2,,,,,,,,,,,,,,,0,,,58,40
403200,note_on,0,0,2,,,,,,,,,,,,,,,0,,,53,33
403200,note_on,81,0,2,,,,,,,,,,,,,,,0,,,46,33
403200,set_tempo,1920,1,0,,,,,,,,,,,,623506,,,,,,,
403200,note_on,80,0,1,,,,,,,,,,,,,,,0,,,65,49
403263,control_change,63,0,2,,,,,,,,,,,,,,,0,64,127,,
403360,note_on,160,0,1,,,,,,,,,,,,,,,0,,,70,0
403360,note_on,0,0,1,,,,,,,,,,,,,,,0,,,65,0
403360,note_on,0,0,1,,,,,,,,,,,,,,,0,,,75,54
403400,set_tempo,200,1,0,,,,,,,,,,,,626894,,,,,,,
403440,note_on,0,0,2,,,,,,,,,,,,,,,0,,,46,0
403440,note_on,177,0,2,,,,,,,,,,,,,,,0,,,58,0
403440,note_on,0,0,2,,,,,,,,,,,,,,,0,,,53,0
403520,note_on,0,0,1,,,,,,,,,,,,,,,0,,,75,54
403520,note_on,160,0,1,,,,,,,,,,,,,,,0,,,75,0
403553,control_change,113,0,2,,,,,,,,,,,,,,,0,64,0,,
403560,set_tempo,160,1,0,,,,,,,,,,,,630451,,,,,,,
403600,note_on,80,0,1,,,,,,,,,,,,,,,0,,,75,0
403680,note_on,0,0,1,,,,,,,,,,,,,,,0,,,70,58
403680,note_on,80,0,1,,,,,,,,,,,,,,,0,,,65,49
403680,note_on,127,0,2,,,,,,,,,,,,,,,0,,,46,31
403680,note_on,0,0,2,,,,,,,,,,,,,,,0,,,58,38
403680,note_on,0,0,2,,,,,,,,,,,,,,,0,,,53,31
403712,control_change,32,0,2,,,,,,,,,,,,,,,0,64,127,,
403720,set_tempo,160,1,0,,,,,,,,,,,,633914,,,,,,,
403840,note_on,0,0,1,,,,,,,,,,,,,,,0,,,65,0
403840,note_on,0,0,1,,,,,,,,,,,,,,,0,,,74,54
403840,note_on,160,0,1,,,,,,,,,,,,,,,0,,,70,0
403920,set_tempo,200,1,0,,,,,,,,,,,,637416,,,,,,,
403920,note_on,0,0,2,,,,,,,,,,,,,,,0,,,46,0
403920,note_on,0,0,2,,,,,,,,,,,,,,,0,,,58,0
403920,note_on,208,0,2,,,,,,,,,,,,,,,0,,,53,0
404000,note_on,160,0,1,,,,,,,,,,,,,,,0,,,74,0
404000,note_on,0,0,1,,,,,,,,,,,,,,,0,,,74,54
404040,control_change,120,0,2,,,,,,,,,,,,,,,0,64,0,,
404080,set_tempo,160,1,0,,,,,,,,,,,,641026,,,,,,,
404080,note_on,80,0,1,,,,,,,,,,,,,,,0,,,74,0
404160,note_on,0,0,2,,,,,,,,,,,,,,,0,,,57,37
404160,note_on,120,0,2,,,,,,,,,,,,,,,0,,,48,31
404160,note_on,80,0,1,,,,,,,,,,,,,,,0,,,65,48
404160,note_on,0,0,1,,,,,,,,,,,,,,,0,,,69,57
404160,note_on,0,0,2,,,,,,,,,,,,,,,0,,,53,31
404211,control_change,51,0,2,,,,,,,,,,,,,,,0,64,127,,
404240,set_tempo,160,1,0,,,,,,,,,,,,644676,,,,,,,
404320,note_on,160,0,1,,,,,,,,,,,,,,,0,,,69,0
404320,note_on,0,0,1,,,,,,,,,,,,,,,0,,,65,0
404320,note_on,0,0,1,,,,,,,,,,,,,,,0,,,72,53
404400,note_on,0,0,2,,,,,,,,,,,,,,,0,,,48,0
404400,note_on,0,0,2,,,,,,,,,,,,,,,0,,,53,0
404400,note_on,189,0,2,,,,,,,,,,,,,,,0,,,57,0
404400,set_tempo,160,1,0,,,,,,,,,,,,648298,,,,,,,
404480,note_on,160,0,1,,,,,,,,,,,,,,,0,,,72,0
404480,note_on,0,0,1,,,,,,,,,,,,,,,0,,,72,52
404560,note_on,80,0,1,,,,,,,,,,,,,,,0,,,72,0
404562,control_change,162,0,2,,,,,,,,,,,,,,,0,64,0,,
404600,set_tempo,200,1,0,,,,,,,,,,,,652032,,,,,,,
404640,note_on,0,0,1,,,,,,,,,,,,,,,0,,,67,57
404640,note_on,80,0,1,,,,,,,,,,,,,,,0,,,64,48
404640,note_on,0,0,2,,,,,,,,,,,,,,,0,,,58,38
404640,note_on,0,0,2,,,,,,,,,,,,,,,0,,,55,31
404640,note_on,78,0,2,,,,,,,,,,,,,,,0,,,48,31
404697,control_change,57,0,2,,,,,,,,,,,,,,,0,64,127,,
404760,set_tempo,160,1,0,,,,,,,,,,,,655738,,,,,,,
404800,note_on,0,0,1,,,,,,,,,,,,,,,0,,,72,52
404800,note_on,160,0,1,,,,,,,,,,,,,,,0,,,67,0
404800,note_on,0,0,1,,,,,,,,,,,,,,,0,,,64,0
404880,note_on,0,0,2,,,,,,,,,,,,,,,0,,,48,0
404880,note_on,0,0,2,,,,,,,,,,,,,,,0,,,55,0
404880,note_on,183,0,2,,,,,,,,,,,,,,,0,,,58,0
404920,set_tempo,160,1,0,,,,,,,,,,,,659631,,,,,,,
404960,note_on,0,0,1,,,,,,,,,,,,,,,0,,,72,52
404960,note_on,160,0,1,,,,,,,,,,,,,,,0,,,72,0
404989,control_change,109,0,2,,,,,,,,,,,,,,,0,64,0,,
405040,note_on,80,0,1,,,,,,,,,,,,,,,0,,,72,0
405080,set_tempo,160,1,0,,,,,,,,,,,,663423,,,,,,,
405120,note_on,0,0,1,,,,,,,,,,,,,,,0,,,69,41
405120,set_tempo,40,1,0,,,,,,,,,,,,687364,,,,,,,
405120,note_on,131,0,2,,,,,,,,,,,,,,,0,,,53,47
405120,note_on,80,0,1,,,,,,,,,,,,,,,0,,,65,41
405120,note_on,0,0,1,,,,,,,,,,,,,,,0,,,72,49
405160,set_tempo,40,1,0,,,,,,,,,,,,652032,,,,,,,
405280,note_on,160,0,2,,,,,,,,,,,,,,,0,,,53,0
405280,note_on,0,0,2,,,,,,,,,,,,,,,0,,,60,44
405360,set_tempo,200,1,0,,,,,,,,,,,,606919,,,,,,,
405440,note_on,0,0,2,,,,,,,,,,,,,,,0,,,57,44
405440,note_on,160,0,2,,,,,,,,,,,,,,,0,,,60,0
405520,note_on,80,0,2,,,,,,,,,,,,,,,0,,,57,0
405600,note_on,0,0,1,,,,,,,,,,,,,,,0,,,65,0
405600,note_on,0,0,1,,,,,,,,,,,,,,,0,,,69,0
405600,note_on,480,0,1,,,,,,,,,,,,,,,0,,,72,0
405600,note_on,80,0,2,,,,,,,,,,,,,,,0,,,53,47
405680,note_on,80,0,2,,,,,,,,,,,,,,,0,,,53,0
405760,note_on,80,0,2,,,,,,,,,,,,,,,0,,,48,43
405840,note_on,80,0,2,,,,,,,,,,,,,,,0,,,48,0
405920,note_on,80,0,2,,,,,,,,,,,,,,,0,,,45,41
406000,note_on,80,0,2,,,,,,,,,,,,,,,0,,,45,0
406080,note_on,0,0,1,,,,,,,,,,,,,,,0,,,72,40
406080,set_tempo,720,1,0,,,,,,,,,,,,610190,,,,,,,
406080,note_on,0,0,1,,,,,,,,,,,,,,,0,,,69,40
406080,note_on,80,0,2,,,,,,,,,,,,,,,0,,,41,45
406080,note_on,480,0,1,,,,,,,,,,,,,,,0,,,77,49
406160,note_on,80,0,2,,,,,,,,,,,,,,,0,,,41,0
406240,note_on,80,0,2,,,,,,,,,,,,,,,0,,,45,41
406320,note_on,0,0,1,,,,,,,,,,,,,,,0,,,77,0
406320,note_on,0,0,1,,,,,,,,,,,,,,,0,,,69,0
406320,note_on,240,0,1,,,,,,,,,,,,,,,0,,,72,0
406320,note_on,80,0,2,,,,,,,,,,,,,,,0,,,45,0
406400,note_on,80,0,2,,,,,,,,,,,,,,,0,,,48,41
406480,note_on,80,0,2,,,,,,,,,,,,,,,0,,,48,0
406560,set_tempo,480,1,0,,,,,,,,,,,,626894,,,,,,,
406560,note_on,0,0,1,,,,,,,,,,,,,,,0,,,77,49
406560,note_on,240,0,1,,,,,,,,,,,,,,,0,,,72,40
406560,note_on,0,0,1,,,,,,,,,,,,,,,0,,,75,40
406560,note_on,80,0,2,,,,,,,,,,,,,,,0,,,45,47
406600,set_tempo,40,1,0,,,,,,,,,,,,623506,,,,,,,
406640,note_on,80,0,2,,,,,,,,,,,,,,,0,,,45,0
406720,note_on,80,0,2,,,,,,,,,,,,,,,0,,,48,45
406800,note_on,0,0,1,,,,,,,,,,,,,,,0,,,75,0
406800,note_on,0,0,1,,,,,,,,,,,,,,,0,,,72,0
406800,note_on,240,0,1,,,,,,,,,,,,,,,0,,,77,0
406800,note_on,80,0,2,,,,,,,,,,,,,,,0,,,48,0
406880,note_on,80,0,2,,,,,,,,,,,,,,,0,,,53,45
406960,note_on,80,0,2,,,,,,,,,,,,,,,0,,,53,0
407040,note_on,80,0,2,,,,,,,,,,,,,,,0,,,53,47
407040,note_on,240,0,1,,,,,,,,,,,,,,,0,,,70,45
407040,note_on,0,0,1,,,,,,,,,,,,,,,0,,,74,45
407040,note_on,0,0,1,,,,,,,,,,,,,,,0,,,77,53
407040,set_tempo,440,1,0,,,,,,,,,,,,641026,,,,,,,
407200,note_on,0,0,2,,,,,,,,,,,,,,,0,,,62,44
407200,note_on,160,0,2,,,,,,,,,,,,,,,0,,,53,0
407280,set_tempo,240,1,0,,,,,,,,,,,,606919,,,,,,,
407360,note_on,160,0,2,,,,,,,,,,,,,,,0,,,62,0
407360,note_on,0,0,2,,,,,,,,,,,,,,,0,,,58,44
407440,note_on,80,0,2,,,,,,,,,,,,,,,0,,,58,0
407520,note_on,0,0,1,,,,,,,,,,,,,,,0,,,70,0
407520,note_on,80,0,2,,,,,,,,,,,,,,,0,,,53,47
407520,note_on,480,0,1,,,,,,,,,,,,,,,0,,,77,0
407520,note_on,0,0,1,,,,,,,,,,,,,,,0,,,74,0
407600,note_on,80,0,2,,,,,,,,,,,,,,,0,,,53,0
407680,note_on,80,0,2,,,,,,,,,,,,,,,0,,,50,43
407760,note_on,80,0,2,,,,,,,,,,,,,,,0,,,50,0
407840,note_on,80,0,2,,,,,,,,,,,,,,,0,,,46,41
407920,note_on,80,0,2,,,,,,,,,,,,,,,0,,,46,0
408000,note_on,80,0,2,,,,,,,,,,,,,,,0,,,41,45
408000,note_on,0,0,1,,,,,,,,,,,,,,,0,,,77,49
408000,note_on,0,0,1,,,,,,,,,,,,,,,0,,,74,40
408000,note_on,480,0,1,,,,,,,,,,,,,,,0,,,70,40
408000,set_tempo,720,1,0,,,,,,,,,,,,613434,,,,,,,
408080,note_on,80,0,2,,,,,,,,,,,,,,,0,,,41,0
408160,note_on,80,0,2,,,,,,,,,,,,,,,0,,,46,41
408240,note_on,80,0,2,,,,,,,,,,,,,,,0,,,46,0
408240,note_on,0,0,1,,,,,,,,,,,,,,,0,,,70,0
408240,note_on,0,0,1,,,,,,,,,,,,,,,0,,,74,0
408240,note_on,240,0,1,,,,,,,,,,,,,,,0,,,77,0
408320,note_on,80,0,2,,,,,,,,,,,,,,,0,,,50,41
408400,note_on,80,0,2,,,,,,,,,,,,,,,0,,,50,0
408480,note_on,80,0,2,,,,,,,,,,,,,,,0,,,46,47
408480,note_on,0,0,1,,,,,,,,,,,,,,,0,,,77,49
408480,note_on,240,0,1,,,,,,,,,,,,,,,0,,,74,40
408480,set_tempo,480,1,0,,,,,,,,,,,,623506,,,,,,,
408560,note_on,80,0,2,,,,,,,,,,,,,,,0,,,46,0
408640,note_on,80,0,2,,,,,,,,,,,,,,,0,,,50,45
408720,note_on,240,0,1,,,,,,,,,,,,,,,0,,,77,0
408720,note_on,0,0,1,,,,,,,,,,,,,,,0,,,74,0
408720,note_on,80,0,2,,,,,,,,,,,,,,,0,,,50,0
408800,note_on,80,0,2,,,,,,,,,,,,,,,0,,,53,45
408880,note_on,80,0,2,,,,,,,,,,,,,,,0,,,53,0
408960,note_on,0,0,1,,,,,,,,,,,,,,,0,,,77,53
408960,note_on,80,0,2,,,,,,,,,,,,,,,0,,,53,47
408960,note_on,240,0,1,,,,,,,,,,,,,,,0,,,69,45
408960,note_on,0,0,1,,,,,,,,,,,,,,,0,,,72,45
408960,set_tempo,480,1,0,,,,,,,,,,,,652032,,,,,,,
409120,note_on,160,0,2,,,,,,,,,,,,,,,0,,,53,0
409120,note_on,0,0,2,,,,,,,,,,,,,,,0,,,65,44
409200,set_tempo,240,1,0,,,,,,,,,,,,606919,,,,,,,
409280,note_on,0,0,2,,,,,,,,,,,,,,,0,,,60,44
409280,note_on,160,0,2,,,,,,,,,,,,,,,0,,,65,0
409360,note_on,80,0,2,,,,,,,,,,,,,,,0,,,60,0
409440,note_on,480,0,1,,,,,,,,,,,,,,,0,,,77,0
409440,note_on,0,0,1,,,,,,,,,,,,,,,0,,,69,0
409440,note_on,80,0,2,,,,,,,,,,,,,,,0,,,57,47
409440,note_on,0,0,1,,,,,,,,,,,,,,,0,,,72,0
409520,note_on,80,0,2,,,,,,,,,,,,,,,0,,,57,0
409600,note_on,80,0,2,,,,,,,,,,,,,,,0,,,53,43
409680,note_on,80,0,2,,,,,,,,,,,,,,,0,,,53,0
409760,note_on,80,0,2,,,,,,,,,,,,,,,0,,,48,41
409840,note_on,80,0,2,,,,,,,,,,,,,,,0,,,48,0
409920,note_on,80,0,2,,,,,,,,,,,,,,,0,,,45,45
409920,note_on,480,0,1,,,,,,,,,,,,,,,0,,,72,44
409920,note_on,0,0,1,,,,,,,,,,,,,,,0,,,77,44
409920,note_on,0,0,1,,,,,,,,,,,,,,,0,,,81,53
409920,set_tempo,720,1,0,,,,,,,,,,,,616776,,,,,,,
410000,note_on,80,0,2,,,,,,,,,,,,,,,0,,,45,0
410080,note_on,80,0,2,,,,,,,,,,,,,,,0,,,41,41
410160,note_on,0,0,1,,,,,,,,,,,,,,,0,,,72,0
410160,note_on,0,0,1,,,,,,,,,,,,,,,0,,,77,0
410160,note_on,80,0,2,,,,,,,,,,,,,,,0,,,41,0
410160,note_on,240,0,1,,,,,,,,,,,,,,,0,,,81,0
410240,note_on,80,0,2,,,,,,,,,,,,,,,0,,,36,41
410320,note_on,80,0,2,,,,,,,,,,,,,,,0,,,36,0
410400,note_on,240,0,1,,,,,,,,,,,,,,,0,,,72,44
410400,note_on,0,0,1,,,,,,,,,,,,,,,0,,,81,44
410400,note_on,0,0,1,,,,,,,,,,,,,,,0,,,84,53
410400,note_on,80,0,2,,,,,,,,,,,,,,,0,,,41,47
410400,set_tempo,480,1,0,,,,,,,,,,,,626894,,,,,,,
410480,note_on,80,0,2,,,,,,,,,,,,,,,0,,,41,0
410560,note_on,80,0,2,,,,,,,,,,,,,,,0,,,45,45
410640,note_on,240,0,1,,,,,,,,,,,,,,,0,,,84,0
410640,note_on,0,0,1,,,,,,,,,,,,,,,0,,,81,0
410640,note_on,80,0,2,,,,,,,,,,,,,,,0,,,45,0
410640,note_on,0,0,1,,,,,,,,,,,,,,,0,,,72,0
410720,note_on,80,0,2,,,,,,,,,,,,,,,0,,,48,45
410800,note_on,80,0,2,,,,,,,,,,,,,,,0,,,48,0
410880,note_on,240,0,1,,,,,,,,,,,,,,,0,,,84,56
410880,note_on,80,0,2,,,,,,,,,,,,,,,0,,,48,29
410880,note_on,0,0,2,,,,,,,,,,,,,,,0,,,57,29
410880,note_on,0,0,2,,,,,,,,,,,,,,,0,,,60,35
410880,set_tempo,480,1,0,,,,,,,,,,,,616776,,,,,,,
410891,control_change,11,0,2,,,,,,,,,,,,,,,0,64,127,,
411040,note_on,0,0,1,,,,,,,,,,,,,,,0,,,89,51
411040,note_on,160,0,1,,,,,,,,,,,,,,,0,,,84,0
411120,note_on,229,0,2,,,,,,,,,,,,,,,0,,,60,0
411120,note_on,0,0,2,,,,,,,,,,,,,,,0,,,57,0
411120,note_on,0,0,2,,,,,,,,,,,,,,,0,,,48,0
411200,note_on,160,0,1,,,,,,,,,,,,,,,0,,,89,0
411200,note_on,0,0,1,,,,,,,,,,,,,,,0,,,89,51
411212,control_change,92,0,2,,,,,,,,,,,,,,,0,64,0,,
411280,note_on,80,0,1,,,,,,,,,,,,,,,0,,,89,0
411360,note_on,0,0,2,,,,,,,,,,,,,,,0,,,70,28
411360,note_on,0,0,2,,,,,,,,,,,,,,,0,,,74,34
411360,note_on,80,0,1,,,,,,,,,,,,,,,0,,,86,56
411360,note_on,148,0,2,,,,,,,,,,,,,,,0,,,60,28
411392,control_change,32,0,2,,,,,,,,,,,,,,,0,64,127,,
411520,note_on,0,0,1,,,,,,,,,,,,,,,0,,,91,52
411520,note_on,160,0,1,,,,,,,,,,,,,,,0,,,86,0
411600,note_on,208,0,2,,,,,,,,,,,,,,,0,,,70,0
411600,note_on,0,0,2,,,,,,,,,,,,,,,0,,,74,0
411600,note_on,0,0,2,,,,,,,,,,,,,,,0,,,60,0
411680,note_on,160,0,1,,,,,,,,,,,,,,,0,,,91,0
411680,note_on,0,0,1,,,,,,,,,,,,,,,0,,,91,52
411681,control_change,81,0,2,,,,,,,,,,,,,,,0,64,0,,
411760,note_on,80,0,1,,,,,,,,,,,,,,,0,,,91,0
411840,note_on,80,0,1,,,,,,,,,,,,,,,0,,,84,56
411840,note_on,0,0,2,,,,,,,,,,,,,,,0,,,69,28
411840,note_on,159,0,2,,,,,,,,,,,,,,,0,,,60,28
411840,note_on,0,0,2,,,,,,,,,,,,,,,0,,,72,33
411865,control_change,25,0,2,,,,,,,,,,,,,,,0,64,127,,
412000,note_on,160,0,1,,,,,,,,,,,,,,,0,,,84,0
412000,note_on,0,0,1,,,,,,,,,,,,,,,0,,,89,51
412080,note_on,215,0,2,,,,,,,,,,,,,,,0,,,72,0
412080,note_on,0,0,2,,,,,,,,,,,,,,,0,,,69,0
412080,note_on,0,0,2,,,,,,,,,,,,,,,0,,,60,0
412160,note_on,160,0,1,,,,,,,,,,,,,,,0,,,89,0
412160,note_on,0,0,1,,,,,,,,,,,,,,,0,,,89,51
412189,control_change,109,0,2,,,,,,,,,,,,,,,0,64,0,,
412240,note_on,80,0,1,,,,,,,,,,,,,,,0,,,89,0
412320,note_on,0,0,2,,,,,,,,,,,,,,,0,,,67,28
412320,note_on,0,0,2,,,,,,,,,,,,,,,0,,,70,34
412320,note_on,131,0,2,,,,,,,,,,,,,,,0,,,60,28
412320,note_on,80,0,1,,,,,,,,,,,,,,,0,,,84,56
412324,control_change,4,0,2,,,,,,,,,,,,,,,0,64,127,,
412480,note_on,160,0,1,,,,,,,,,,,,,,,0,,,84,0
412480,note_on,0,0,1,,,,,,,,,,,,,,,0,,,88,51
412560,note_on,236,0,2,,,,,,,,,,,,,,,0,,,70,0
412560,note_on,0,0,2,,,,,,,,,,,,,,,0,,,67,0
412560,note_on,0,0,2,,,,,,,,,,,,,,,0,,,60,0
412640,note_on,0,0,1,,,,,,,,,,,,,,,0,,,88,51
412640,note_on,160,0,1,,,,,,,,,,,,,,,0,,,88,0
412645,control_change,85,0,2,,,,,,,,,,,,,,,0,64,0,,
412720,note_on,80,0,1,,,,,,,,,,,,,,,0,,,88,0
412800,note_on,0,0,2,,,,,,,,,,,,,,,0,,,66,29
412800,note_on,155,0,2,,,,,,,,,,,,,,,0,,,60,29
412800,note_on,80,0,1,,,,,,,,,,,,,,,0,,,84,56
412800,set_tempo,1920,1,0,,,,,,,,,,,,626894,,,,,,,
412800,note_on,0,0,2,,,,,,,,,,,,,,,0,,,69,35
412846,control_change,46,0,2,,,,,,,,,,,,,,,0,64,127,,
412960,note_on,160,0,1,,,,,,,,,,,,,,,0,,,84,0
412960,note_on,0,0,1,,,,,,,,,,,,,,,0,,,87,51
413040,note_on,0,0,2,,,,,,,,,,,,,,,0,,,60,0
413040,note_on,0,0,2,,,,,,,,,,,,,,,0,,,66,0
413040,note_on,194,0,2,,,,,,,,,,,,,,,0,,,69,0
413120,note_on,160,0,1,,,,,,,,,,,,,,,0,,,87,0
413120,note_on,0,0,1,,,,,,,,,,,,,,,0,,,87,51
413160,control_change,120,0,2,,,,,,,,,,,,,,,0,64,0,,
413200,note_on,80,0,1,,,,,,,,,,,,,,,0,,,87,0
413280,note_on,120,0,2,,,,,,,,,,,,,,,0,,,60,28
413280,note_on,0,0,2,,,,,,,,,,,,,,,0,,,69,35
413280,note_on,0,0,2,,,,,,,,,,,,,,,0,,,66,28
413280,note_on,80,0,1,,,,,,,,,,,,,,,0,,,84,57
413312,control_change,32,0,2,,,,,,,,,,,,,,,0,64,127,,
413440,note_on,0,0,1,,,,,,,,,,,,,,,0,,,86,55
413440,note_on,160,0,1,,,,,,,,,,,,,,,0,,,84,0
413520,note_on,208,0,2,,,,,,,,,,,,,,,0,,,66,0
413520,note_on,0,0,2,,,,,,,,,,,,,,,0,,,69,0
413520,note_on,0,0,2,,,,,,,,,,,,,,,0,,,60,0
413600,note_on,160,0,1,,,,,,,,,,,,,,,0,,,86,0
413600,note_on,0,0,1,,,,,,,,,,,,,,,0,,,86,55
413615,control_change,95,0,2,,,,,,,,,,,,,,,0,64,0,,
413680,note_on,80,0,1,,,,,,,,,,,,,,,0,,,86,0
413760,note_on,145,0,2,,,,,,,,,,,,,,,0,,,60,29
413760,note_on,0,0,2,,,,,,,,,,,,,,,0,,,66,29
413760,note_on,0,0,2,,,,,,,,,,,,,,,0,,,69,35
413760,note_on,80,0,1,,,,,,,,,,,,,,,0,,,78,58
413760,note_on,0,0,1,,,,,,,,,,,,,,,0,,,81,58
413811,control_change,51,0,2,,,,,,,,,,,,,,,0,64,127,,
413920,note_on,0,0,1,,,,,,,,,,,,,,,0,,,87,53
413920,note_on,160,0,1,,,,,,,,,,,,,,,0,,,81,0
413920,note_on,0,0,1,,,,,,,,,,,,,,,0,,,78,0
414000,note_on,189,0,2,,,,,,,,,,,,,,,0,,,69,0
414000,note_on,0,0,2,,,,,,,,,,,,,,,0,,,66,0
414000,note_on,0,0,2,,,,,,,,,,,,,,,0,,,60,0
414080,note_on,0,0,1,,,,,,,,,,,,,,,0,,,87,53
414080,note_on,160,0,1,,,,,,,,,,,,,,,0,,,87,0
414127,control_change,127,0,2,,,,,,,,,,,,,,,0,64,0,,
414160,note_on,80,0,1,,,,,,,,,,,,,,,0,,,87,0
414240,note_on,113,0,2,,,,,,,,,,,,,,,0,,,60,31
414240,note_on,0,0,2,,,,,,,,,,,,,,,0,,,66,31
414240,note_on,0,0,2,,,,,,,,,,,,,,,0,,,69,37
414240,note_on,0,0,1,,,,,,,,,,,,,,,0,,,81,57
414240,note_on,80,0,1,,,,,,,,,,,,,,,0,,,78,48
414297,control_change,57,0,2,,,,,,,,,,,,,,,0,64,127,,
414400,note_on,0,0,1,,,,,,,,,,,,,,,0,,,86,54
414400,note_on,0,0,1,,,,,,,,,,,,,,,0,,,78,0
414400,note_on,160,0,1,,,,,,,,,,,,,,,0,,,81,0
414480,note_on,0,0,2,,,,,,,,,,,,,,,0,,,66,0
414480,note_on,0,0,2,,,,,,,,,,,,,,,0,,,60,0
414480,note_on,183,0,2,,,,,,,,,,,,,,,0,,,69,0
414560,note_on,160,0,1,,,,,,,,,,,,,,,0,,,86,0
414560,note_on,0,0,1,,,,,,,,,,,,,,,0,,,86,54
414596,control_change,116,0,2,,,,,,,,,,,,,,,0,64,0,,
414640,note_on,80,0,1,,,,,,,,,,,,,,,0,,,86,0
414720,note_on,80,0,1,,,,,,,,,,,,,,,0,,,77,48
414720,note_on,0,0,1,,,,,,,,,,,,,,,0,,,82,57
414720,note_on,124,0,2,,,,,,,,,,,,,,,0,,,58,33
414720,note_on,0,0,2,,,,,,,,,,,,,,,0,,,65,33
414720,note_on,0,0,2,,,,,,,,,,,,,,,0,,,70,40
414760,set_tempo,1960,1,0,,,,,,,,,,,,630451,,,,,,,
414783,control_change,63,0,2,,,,,,,,,,,,,,,0,64,127,,
414880,note_on,0,0,1,,,,,,,,,,,,,,,0,,,77,0
414880,note_on,0,0,1,,,,,,,,,,,,,,,0,,,87,52
414880,note_on,160,0,1,,,,,,,,,,,,,,,0,,,82,0
414960,note_on,0,0,2,,,,,,,,,,,,,,,0,,,58,0
414960,note_on,177,0,2,,,,,,,,,,,,,,,0,,,70,0
414960,note_on,0,0,2,,,,,,,,,,,,,,,0,,,65,0
415040,note_on,160,0,1,,,,,,,,,,,,,,,0,,,87,0
415040,note_on,0,0,1,,,,,,,,,,,,,,,0,,,87,52
415076,control_change,116,0,2,,,,,,,,,,,,,,,0,64,0,,
415080,set_tempo,320,1,0,,,,,,,,,,,,633914,,,,,,,
415120,note_on,80,0,1,,,,,,,,,,,,,,,0,,,87,0
415200,note_on,124,0,2,,,,,,,,,,,,,,,0,,,58,31
415200,note_on,0,0,2,,,,,,,,,,,,,,,0,,,70,38
415200,note_on,0,0,2,,,,,,,,,,,,,,,0,,,65,31
415200,note_on,0,0,1,,,,,,,,,,,,,,,0,,,82,57
415200,note_on,80,0,1,,,,,,,,,,,,,,,0,,,77,48
415232,control_change,32,0,2,,,,,,,,,,,,,,,0,64,127,,
415360,set_tempo,280,1,0,,,,,,,,,,,,637416,,,,,,,
415360,note_on,160,0,1,,,,,,,,,,,,,,,0,,,82,0
415360,note_on,0,0,1,,,,,,,,,,,,,,,0,,,77,0
415360,note_on,0,0,1,,,,,,,,,,,,,,,0,,,86,53
415440,note_on,0,0,2,,,,,,,,,,,,,,,0,,,58,0
415440,note_on,0,0,2,,,,,,,,,,,,,,,0,,,70,0
415440,note_on,208,0,2,,,,,,,,,,,,,,,0,,,65,0
415520,note_on,160,0,1,,,,,,,,,,,,,,,0,,,86,0
415520,note_on,0,0,1,,,,,,,,,,,,,,,0,,,86,52
415553,control_change,113,0,2,,,,,,,,,,,,,,,0,64,0,,
415600,note_on,80,0,1,,,,,,,,,,,,,,,0,,,86,0
415680,note_on,0,0,1,,,,,,,,,,,,,,,0,,,81,57
415680,set_tempo,320,1,0,,,,,,,,,,,,641026,,,,,,,
415680,note_on,0,0,2,,,,,,,,,,,,,,,0,,,69,37
415680,note_on,127,0,2,,,,,,,,,,,,,,,0,,,60,31
415680,note_on,80,0,1,,,,,,,,,,,,,,,0,,,77,48
415680,note_on,0,0,2,,,,,,,,,,,,,,,0,,,65,31
415731,control_change,51,0,2,,,,,,,,,,,,,,,0,64,127,,
415840,note_on,0,0,1,,,,,,,,,,,,,,,0,,,84,53
415840,note_on,0,0,1,,,,,,,,,,,,,,,0,,,77,0
415840,note_on,160,0,1,,,,,,,,,,,,,,,0,,,81,0
415920,note_on,0,0,2,,,,,,,,,,,,,,,0,,,65,0
415920,note_on,0,0,2,,,,,,,,,,,,,,,0,,,60,0
415920,note_on,189,0,2,,,,,,,,,,,,,,,0,,,69,0
415960,set_tempo,280,1,0,,,,,,,,,,,,644676,,,,,,,
416000,note_on,0,0,1,,,,,,,,,,,,,,,0,,,84,49
416000,note_on,160,0,1,,,,,,,,,,,,,,,0,,,84,0
416022,control_change,102,0,2,,,,,,,,,,,,,,,0,64,0,,
416080,note_on,80,0,1,,,,,,,,,,,,,,,0,,,84,0
416160,note_on,80,0,1,,,,,,,,,,,,,,,0,,,76,45
416160,note_on,0,0,1,,,,,,,,,,,,,,,0,,,79,54
416160,note_on,0,0,2,,,,,,,,,,,,,,,0,,,70,38
416160,note_on,138,0,2,,,,,,,,,,,,,,,0,,,60,31
416160,note_on,0,0,2,,,,,,,,,,,,,,,0,,,67,31
416217,control_change,57,0,2,,,,,,,,,,,,,,,0,64,127,,
416280,set_tempo,320,1,0,,,,,,,,,,,,648298,,,,,,,
416320,note_on,160,0,1,,,,,,,,,,,,,,,0,,,79,0
416320,note_on,0,0,1,,,,,,,,,,,,,,,0,,,76,0
416320,note_on,0,0,1,,,,,,,,,,,,,,,0,,,84,48
416400,note_on,183,0,2,,,,,,,,,,,,,,,0,,,70,0
416400,note_on,0,0,2,,,,,,,,,,,,,,,0,,,60,0
416400,note_on,0,0,2,,,,,,,,,,,,,,,0,,,67,0
416480,note_on,0,0,1,,,,,,,,,,,,,,,0,,,84,48
416480,note_on,160,0,1,,,,,,,,,,,,,,,0,,,84,0
416548,control_change,148,0,2,,,,,,,,,,,,,,,0,64,0,,
416560,note_on,80,0,1,,,,,,,,,,,,,,,0,,,84,0
416560,set_tempo,280,1,0,,,,,,,,,,,,652032,,,,,,,
416640,note_on,0,0,2,,,,,,,,,,,,,,,0,,,51,26
416640,note_on,0,0,2,,,,,,,,,,,,,,,0,,,55,31
416640,note_on,92,0,2,,,,,,,,,,,,,,,0,,,46,26
416640,set_tempo,80,1,0,,,,,,,,,,,,648298,,,,,,,
416640,note_on,80,0,1,,,,,,,,,,,,,,,0,,,70,45
416686,control_change,46,0,2,,,,,,,,,,,,,,,0,64,127,,
416800,note_on,160,0,1,,,,,,,,,,,,,,,0,,,70,0
416800,note_on,0,0,1,,,,,,,,,,,,,,,0,,,73,42
416880,note_on,0,0,2,,,,,,,,,,,,,,,0,,,46,0
416880,note_on,194,0,2,,,,,,,,,,,,,,,0,,,55,0
416880,note_on,0,0,2,,,,,,,,,,,,,,,0,,,51,0
416960,note_on,0,0,1,,,,,,,,,,,,,,,0,,,73,42
416960,note_on,160,0,1,,,,,,,,,,,,,,,0,,,73,0
416982,control_change,102,0,2,,,,,,,,,,,,,,,0,64,0,,
417040,note_on,80,0,1,,,,,,,,,,,,,,,0,,,73,0
417120,note_on,80,0,1,,,,,,,,,,,,,,,0,,,70,46
417120,note_on,0,0,2,,,,,,,,,,,,,,,0,,,51,25
417120,note_on,0,0,2,,,,,,,,,,,,,,,0,,,55,31
417120,note_on,138,0,2,,,,,,,,,,,,,,,0,,,46,25
417152,control_change,32,0,2,,,,,,,,,,,,,,,0,64,127,,
417280,note_on,160,0,1,,,,,,,,,,,,,,,0,,,70,0
417280,note_on,0,0,1,,,,,,,,,,,,,,,0,,,72,45
417360,note_on,0,0,2,,,,,,,,,,,,,,,0,,,55,0
417360,note_on,208,0,2,,,,,,,,,,,,,,,0,,,51,0
417360,note_on,0,0,2,,,,,,,,,,,,,,,0,,,46,0
417440,note_on,0,0,1,,,,,,,,,,,,,,,0,,,72,45
417440,note_on,160,0,1,,,,,,,,,,,,,,,0,,,72,0
417469,control_change,109,0,2,,,,,,,,,,,,,,,0,64,0,,
417520,note_on,80,0,1,,,,,,,,,,,,,,,0,,,72,0
417600,note_on,131,0,2,,,,,,,,,,,,,,,0,,,46,26
417600,note_on,0,0,2,,,,,,,,,,,,,,,0,,,51,26
417600,note_on,0,0,2,,,,,,,,,,,,,,,0,,,55,31
417600,note_on,80,0,1,,,,,,,,,,,,,,,0,,,64,41
417600,note_on,0,0,1,,,,,,,,,,,,,,,0,,,67,48
417651,control_change,51,0,2,,,,,,,,,,,,,,,0,64,127,,
417760,note_on,0,0,1,,,,,,,,,,,,,,,0,,,73,45
417760,note_on,0,0,1,,,,,,,,,,,,,,,0,,,64,0
417760,note_on,160,0,1,,,,,,,,,,,,,,,0,,,67,0
417840,note_on,0,0,2,,,,,,,,,,,,,,,0,,,51,0
417840,note_on,0,0,2,,,,,,,,,,,,,,,0,,,46,0
417840,note_on,189,0,2,,,,,,,,,,,,,,,0,,,55,0
417920,note_on,160,0,1,,,,,,,,,,,,,,,0,,,73,0
417920,note_on,0,0,1,,,,,,,,,,,,,,,0,,,73,45
417967,control_change,127,0,2,,,,,,,,,,,,,,,0,64,0,,
418000,note_on,80,0,1,,,,,,,,,,,,,,,0,,,73,0
418080,note_on,80,0,1,,,,,,,,,,,,,,,0,,,64,42
418080,note_on,0,0,1,,,,,,,,,,,,,,,0,,,67,50
418080,note_on,0,0,2,,,,,,,,,,,,,,,0,,,55,33
418080,note_on,0,0,2,,,,,,,,,,,,,,,0,,,51,27
418080,note_on,113,0,2,,,,,,,,,,,,,,,0,,,46,27
418137,control_change,57,0,2,,,,,,,,,,,,,,,0,64,127,,
418240,note_on,160,0,1,,,,,,,,,,,,,,,0,,,67,0
418240,note_on,0,0,1,,,,,,,,,,,,,,,0,,,64,0
418240,note_on,0,0,1,,,,,,,,,,,,,,,0,,,72,46
418320,note_on,0,0,2,,,,,,,,,,,,,,,0,,,51,0
418320,note_on,0,0,2,,,,,,,,,,,,,,,0,,,46,0
418320,note_on,183,0,2,,,,,,,,,,,,,,,0,,,55,0
418400,note_on,160,0,1,,,,,,,,,,,,,,,0,,,72,0
418400,note_on,0,0,1,,,,,,,,,,,,,,,0,,,72,47
418426,control_change,106,0,2,,,,,,,,,,,,,,,0,64,0,,
418480,note_on,80,0,1,,,,,,,,,,,,,,,0,,,72,0
418560,note_on,134,0,2,,,,,,,,,,,,,,,0,,,44,29
418560,note_on,0,0,1,,,,,,,,,,,,,,,0,,,68,52
418560,note_on,0,0,2,,,,,,,,,,,,,,,0,,,56,36
418560,note_on,0,0,2,,,,,,,,,,,,,,,0,,,51,29
418560,note_on,80,0,1,,,,,,,,,,,,,,,0,,,63,44
418600,set_tempo,1960,1,0,,,,,,,,,,,,648298,,,,,,,
418623,control_change,63,0,2,,,,,,,,,,,,,,,0,64,127,,
418720,note_on,160,0,1,,,,,,,,,,,,,,,0,,,68,0
418720,note_on,0,0,1,,,,,,,,,,,,,,,0,,,63,0
418720,note_on,0,0,1,,,,,,,,,,,,,,,0,,,73,48
418800,note_on,0,0,2,,,,,,,,,,,,,,,0,,,51,0
418800,note_on,0,0,2,,,,,,,,,,,,,,,0,,,44,0
418800,note_on,177,0,2,,,,,,,,,,,,,,,0,,,56,0
418800,set_tempo,200,1,0,,,,,,,,,,,,652032,,,,,,,
418880,note_on,0,0,1,,,,,,,,,,,,,,,0,,,73,48
418880,note_on,160,0,1,,,,,,,,,,,,,,,0,,,73,0
418920,control_change,120,0,2,,,,,,,,,,,,,,,0,64,0,,
418960,note_on,80,0,1,,,,,,,,,,,,,,,0,,,73,0
419000,set_tempo,200,1,0,,,,,,,,,,,,655738,,,,,,,
419040,note_on,0,0,1,,,,,,,,,,,,,,,0,,,68,52
419040,note_on,80,0,1,,,,,,,,,,,,,,,0,,,63,44
419040,note_on,0,0,2,,,,,,,,,,,,,,,0,,,56,34
419040,note_on,0,0,2,,,,,,,,,,,,,,,0,,,51,27
419040,note_on,120,0,2,,,,,,,,,,,,,,,0,,,44,27
419072,control_change,32,0,2,,,,,,,,,,,,,,,0,64,127,,
419200,set_tempo,200,1,0,,,,,,,,,,,,659631,,,,,,,
419200,note_on,160,0,1,,,,,,,,,,,,,,,0,,,68,0
419200,note_on,0,0,1,,,,,,,,,,,,,,,0,,,63,0
419200,note_on,0,0,1,,,,,,,,,,,,,,,0,,,72,48
419280,note_on,208,0,2,,,,,,,,,,,,,,,0,,,51,0
419280,note_on,0,0,2,,,,,,,,,,,,,,,0,,,56,0
419280,note_on,0,0,2,,,,,,,,,,,,,,,0,,,44,0
419360,note_on,0,0,1,,,,,,,,,,,,,,,0,,,72,48
419360,set_tempo,160,1,0,,,,,,,,,,,,663423,,,,,,,
419360,note_on,160,0,1,,,,,,,,,,,,,,,0,,,72,0
419404,control_change,124,0,2,,,,,,,,,,,,,,,0,64,0,,
419440,note_on,80,0,1,,,,,,,,,,,,,,,0,,,72,0
419520,note_on,80,0,1,,,,,,,,,,,,,,,0,,,63,43
419520,note_on,0,0,1,,,,,,,,,,,,,,,0,,,67,51
419520,note_on,0,0,2,,,,,,,,,,,,,,,0,,,51,27
419520,note_on,0,0,2,,,,,,,,,,,,,,,0,,,55,33
419520,note_on,116,0,2,,,,,,,,,,,,,,,0,,,46,27
419560,set_tempo,200,1,0,,,,,,,,,,,,667260,,,,,,,
419571,control_change,51,0,2,,,,,,,,,,,,,,,0,64,127,,
419680,note_on,0,0,1,,,,,,,,,,,,,,,0,,,63,0
419680,note_on,0,0,1,,,,,,,,,,,,,,,0,,,70,47
419680,note_on,160,0,1,,,,,,,,,,,,,,,0,,,67,0
419760,note_on,0,0,2,,,,,,,,,,,,,,,0,,,51,0
419760,note_on,189,0,2,,,,,,,,,,,,,,,0,,,55,0
419760,set_tempo,200,1,0,,,,,,,,,,,,671216,,,,,,,
419760,note_on,0,0,2,,,,,,,,,,,,,,,0,,,46,0
419840,note_on,160,0,1,,,,,,,,,,,,,,,0,,,70,0
419840,note_on,0,0,1,,,,,,,,,,,,,,,0,,,70,46
419887,control_change,127,0,2,,,,,,,,,,,,,,,0,64,0,,
419920,note_on,80,0,1,,,,,,,,,,,,,,,0,,,70,0
419920,set_tempo,160,1,0,,,,,,,,,,,,675143,,,,,,,
420000,note_on,0,0,2,,,,,,,,,,,,,,,0,,,53,27
420000,note_on,0,0,2,,,,,,,,,,,,,,,0,,,56,34
420000,note_on,80,0,1,,,,,,,,,,,,,,,0,,,62,43
420000,note_on,113,0,2,,,,,,,,,,,,,,,0,,,46,27
420000,note_on,0,0,1,,,,,,,,,,,,,,,0,,,65,51
420057,control_change,57,0,2,,,,,,,,,,,,,,,0,64,127,,
420120,set_tempo,200,1,0,,,,,,,,,,,,679194,,,,,,,
420160,note_on,0,0,1,,,,,,,,,,,,,,,0,,,62,0
420160,note_on,160,0,1,,,,,,,,,,,,,,,0,,,65,0
420160,note_on,0,0,1,,,,,,,,,,,,,,,0,,,70,46
420240,note_on,0,0,2,,,,,,,,,,,,,,,0,,,46,0
420240,note_on,0,0,2,,,,,,,,,,,,,,,0,,,53,0
420240,note_on,183,0,2,,,,,,,,,,,,,,,0,,,56,0
420320,set_tempo,200,1,0,,,,,,,,,,,,683293,,,,,,,
420320,note_on,160,0,1,,,,,,,,,,,,,,,0,,,70,0
420320,note_on,0,0,1,,,,,,,,,,,,,,,0,,,70,46
420356,control_change,116,0,2,,,,,,,,,,,,,,,0,64,0,,
420400,note_on,80,0,1,,,,,,,,,,,,,,,0,,,70,0
420480,set_tempo,160,1,0,,,,,,,,,,,,652032,,,,,,,
421440,note_on,1084,0,2,,,,,,,,,,,,,,,0,,,66,31
421440,set_tempo,960,1,0,,,,,,,,,,,,648298,,,,,,,
421440,note_on,1040,0,1,,,,,,,,,,,,,,,0,,,73,41
421440,note_on,0,0,1,,,,,,,,,,,,,,,0,,,78,48
421460,control_change,20,0,2,,,,,,,,,,,,,,,0,64,0,,
421491,control_change,31,0,2,,,,,,,,,,,,,,,0,64,127,,
421600,note_on,160,0,1,,,,,,,,,,,,,,,0,,,78,0
421600,note_on,0,0,1,,,,,,,,,,,,,,,0,,,73,0
421600,note_on,0,0,1,,,,,,,,,,,,,,,0,,,82,45
421680,note_on,189,0,2,,,,,,,,,,,,,,,0,,,66,0
421760,note_on,160,0,1,,,,,,,,,,,,,,,0,,,82,0
421760,note_on,0,0,1,,,,,,,,,,,,,,,0,,,82,45
421793,control_change,113,0,2,,,,,,,,,,,,,,,0,64,0,,
421840,note_on,80,0,1,,,,,,,,,,,,,,,0,,,82,0
421920,note_on,127,0,2,,,,,,,,,,,,,,,0,,,63,33
421920,note_on,80,0,1,,,,,,,,,,,,,,,0,,,73,41
421920,note_on,0,0,1,,,,,,,,,,,,,,,0,,,78,49
421977,control_change,57,0,2,,,,,,,,,,,,,,,0,64,127,,
422080,note_on,0,0,1,,,,,,,,,,,,,,,0,,,81,44
422080,note_on,0,0,1,,,,,,,,,,,,,,,0,,,73,0
422080,note_on,160,0,1,,,,,,,,,,,,,,,0,,,78,0
422160,note_on,183,0,2,,,,,,,,,,,,,,,0,,,63,0
422240,note_on,0,0,1,,,,,,,,,,,,,,,0,,,81,44
422240,note_on,160,0,1,,,,,,,,,,,,,,,0,,,81,0
422276,control_change,116,0,2,,,,,,,,,,,,,,,0,64,0,,
422320,note_on,80,0,1,,,,,,,,,,,,,,,0,,,81,0
422400,note_on,124,0,2,,,,,,,,,,,,,,,0,,,68,33
422400,note_on,80,0,1,,,,,,,,,,,,,,,0,,,73,42
422400,note_on,0,0,1,,,,,,,,,,,,,,,0,,,77,50
422440,set_tempo,1000,1,0,,,,,,,,,,,,648298,,,,,,,
422463,control_change,63,0,2,,,,,,,,,,,,,,,0,64,127,,
422560,note_on,160,0,1,,,,,,,,,,,,,,,0,,,77,0
422560,note_on,0,0,1,,,,,,,,,,,,,,,0,,,73,0
422560,note_on,0,0,1,,,,,,,,,,,,,,,0,,,80,46
422640,set_tempo,200,1,0,,,,,,,,,,,,652032,,,,,,,
422640,note_on,177,0,2,,,,,,,,,,,,,,,0,,,68,0
422720,note_on,160,0,1,,,,,,,,,,,,,,,0,,,80,0
422720,note_on,0,0,1,,,,,,,,,,,,,,,0,,,80,46
422781,control_change,141,0,2,,,,,,,,,,,,,,,0,64,0,,
422800,note_on,80,0,1,,,,,,,,,,,,,,,0,,,80,0
422840,set_tempo,200,1,0,,,,,,,,,,,,655738,,,,,,,
422880,note_on,0,0,1,,,,,,,,,,,,,,,0,,,75,48
422880,note_on,80,0,1,,,,,,,,,,,,,,,0,,,72,40
422880,note_on,99,0,2,,,,,,,,,,,,,,,0,,,68,31
422912,control_change,32,0,2,,,,,,,,,,,,,,,0,64,127,,
423040,set_tempo,200,1,0,,,,,,,,,,,,659631,,,,,,,
423040,note_on,0,0,1,,,,,,,,,,,,,,,0,,,80,44
423040,note_on,0,0,1,,,,,,,,,,,,,,,0,,,72,0
423040,note_on,160,0,1,,,,,,,,,,,,,,,0,,,75,0
423120,note_on,208,0,2,,,,,,,,,,,,,,,0,,,68,0
423200,set_tempo,160,1,0,,,,,,,,,,,,663423,,,,,,,
423200,note_on,0,0,1,,,,,,,,,,,,,,,0,,,80,44
423200,note_on,160,0,1,,,,,,,,,,,,,,,0,,,80,0
423268,control_change,148,0,2,,,,,,,,,,,,,,,0,64,0,,
423280,note_on,80,0,1,,,,,,,,,,,,,,,0,,,80,0
423840,set_tempo,640,1,0,,,,,,,,,,,,659631,,,,,,,
423840,control_change,572,0,2,,,,,,,,,,,,,,,0,64,0,,
423840,note_on,0,0,2,,,,,,,,,,,,,,,0,,,44,29
423840,note_on,560,0,1,,,,,,,,,,,,,,,0,,,61,37
423840,note_on,0,0,1,,,,,,,,,,,,,,,0,,,64,44
423897,control_change,57,0,2,,,,,,,,,,,,,,,0,64,127,,
424000,note_on,0,0,1,,,,,,,,,,,,,,,0,,,68,39
424000,note_on,0,0,1,,,,,,,,,,,,,,,0,,,61,0
424000,note_on,160,0,1,,,,,,,,,,,,,,,0,,,64,0
424080,note_on,183,0,2,,,,,,,,,,,,,,,0,,,44,0
424160,note_on,160,0,1,,,,,,,,,,,,,,,0,,,68,0
424160,note_on,0,0,1,,,,,,,,,,,,,,,0,,,68,39
424214,control_change,134,0,2,,,,,,,,,,,,,,,0,64,0,,
424240,note_on,80,0,1,,,,,,,,,,,,,,,0,,,68,0
424320,note_on,106,0,2,,,,,,,,,,,,,,,0,,,44,29
424320,set_tempo,480,1,0,,,,,,,,,,,,675143,,,,,,,
424320,note_on,80,0,1,,,,,,,,,,,,,,,0,,,60,38
424320,note_on,0,0,1,,,,,,,,,,,,,,,0,,,63,45
424383,control_change,63,0,2,,,,,,,,,,,,,,,0,64,127,,
424480,note_on,160,0,1,,,,,,,,,,,,,,,0,,,63,0
424480,note_on,0,0,1,,,,,,,,,,,,,,,0,,,68,41
424480,note_on,0,0,1,,,,,,,,,,,,,,,0,,,60,0
424560,note_on,177,0,2,,,,,,,,,,,,,,,0,,,44,0
424640,note_on,160,0,1,,,,,,,,,,,,,,,0,,,68,0
424640,note_on,0,0,1,,,,,,,,,,,,,,,0,,,68,41
424705,control_change,145,0,2,,,,,,,,,,,,,,,0,64,0,,
424720,note_on,80,0,1,,,,,,,,,,,,,,,0,,,68,0
425280,control_change,575,0,2,,,,,,,,,,,,,,,0,64,0,,
425280,note_on,0,0,2,,,,,,,,,,,,,,,0,,,45,26
425280,set_tempo,960,1,0,,,,,,,,,,,,687364,,,,,,,
425280,note_on,560,0,1,,,,,,,,,,,,,,,0,,,60,33
425280,note_on,0,0,1,,,,,,,,,,,,,,,0,,,63,39
425337,control_change,57,0,2,,,,,,,,,,,,,,,0,64,127,,
425440,note_on,160,0,1,,,,,,,,,,,,,,,0,,,63,0
425440,note_on,0,0,1,,,,,,,,,,,,,,,0,,,60,0
425440,note_on,0,0,1,,,,,,,,,,,,,,,0,,,66,35
425520,note_on,183,0,2,,,,,,,,,,,,,,,0,,,45,0
425600,note_on,160,0,1,,,,,,,,,,,,,,,0,,,66,0
425600,note_on,0,0,1,,,,,,,,,,,,,,,0,,,66,35
425644,control_change,124,0,2,,,,,,,,,,,,,,,0,64,0,,
425680,note_on,80,0,1,,,,,,,,,,,,,,,0,,,66,0
425760,set_tempo,480,1,0,,,,,,,,,,,,745712,,,,,,,
425760,note_on,80,0,1,,,,,,,,,,,,,,,0,,,60,34
425760,note_on,0,0,1,,,,,,,,,,,,,,,0,,,63,40
425760,note_on,116,0,2,,,,,,,,,,,,,,,0,,,45,26
425823,control_change,63,0,2,,,,,,,,,,,,,,,0,64,127,,
425920,note_on,160,0,1,,,,,,,,,,,,,,,0,,,63,0
425920,note_on,0,0,1,,,,,,,,,,,,,,,0,,,65,36
425920,note_on,0,0,1,,,,,,,,,,,,,,,0,,,60,0
426000,note_on,177,0,2,,,,,,,,,,,,,,,0,,,45,0
426080,note_on,160,0,1,,,,,,,,,,,,,,,0,,,65,0
426080,note_on,0,0,1,,,,,,,,,,,,,,,0,,,65,36
426120,control_change,120,0,2,,,,,,,,,,,,,,,0,64,0,,
426160,note_on,80,0,1,,,,,,,,,,,,,,,0,,,65,0
426240,set_tempo,480,1,0,,,,,,,,,,,,691483,,,,,,,
426720,note_on,600,0,2,,,,,,,,,,,,,,,0,,,57,26
426720,set_tempo,480,1,0,,,,,,,,,,,,663423,,,,,,,
426720,note_on,560,0,1,,,,,,,,,,,,,,,0,,,72,40
426720,note_on,0,0,1,,,,,,,,,,,,,,,0,,,75,40
426748,control_change,28,0,2,,,,,,,,,,,,,,,0,64,127,,
426880,note_on,0,0,1,,,,,,,,,,,,,,,0,,,72,0
426880,note_on,160,0,1,,,,,,,,,,,,,,,0,,,75,0
426880,note_on,0,0,1,,,,,,,,,,,,,,,0,,,77,36
426960,note_on,212,0,2,,,,,,,,,,,,,,,0,,,57,0
427040,note_on,160,0,1,,,,,,,,,,,,,,,0,,,77,0
427040,note_on,0,0,1,,,,,,,,,,,,,,,0,,,77,36
427091,control_change,131,0,2,,,,,,,,,,,,,,,0,64,0,,
427120,note_on,80,0,1,,,,,,,,,,,,,,,0,,,77,0
427200,note_on,80,0,1,,,,,,,,,,,,,,,0,,,70,45
427200,note_on,109,0,2,,,,,,,,,,,,,,,0,,,58,27
427200,note_on,0,0,1,,,,,,,,,,,,,,,0,,,75,45
427249,control_change,49,0,2,,,,,,,,,,,,,,,0,64,127,,
427360,note_on,0,0,1,,,,,,,,,,,,,,,0,,,79,37
427360,note_on,0,0,1,,,,,,,,,,,,,,,0,,,70,0
427360,note_on,160,0,1,,,,,,,,,,,,,,,0,,,75,0
427440,note_on,191,0,2,,,,,,,,,,,,,,,0,,,58,0
427520,note_on,0,0,1,,,,,,,,,,,,,,,0,,,79,37
427520,note_on,160,0,1,,,,,,,,,,,,,,,0,,,79,0
427560,control_change,120,0,2,,,,,,,,,,,,,,,0,64,0,,
427600,note_on,80,0,1,,,,,,,,,,,,,,,0,,,79,0
427680,note_on,80,0,1,,,,,,,,,,,,,,,0,,,70,45
427680,note_on,120,0,2,,,,,,,,,,,,,,,0,,,46,30
427680,note_on,0,0,1,,,,,,,,,,,,,,,0,,,74,45
427751,control_change,71,0,2,,,,,,,,,,,,,,,0,64,127,,
427840,note_on,160,0,1,,,,,,,,,,,,,,,0,,,74,0
427840,note_on,0,0,1,,,,,,,,,,,,,,,0,,,70,0
427840,note_on,0,0,1,,,,,,,,,,,,,,,0,,,77,39
427920,note_on,169,0,2,,,,,,,,,,,,,,,0,,,46,0
428000,set_tempo,1280,1,0,,,,,,,,,,,,700035,,,,,,,
428000,note_on,0,0,1,,,,,,,,,,,,,,,0,,,77,39
428000,note_on,160,0,1,,,,,,,,,,,,,,,0,,,77,0
428058,control_change,138,0,2,,,,,,,,,,,,,,,0,64,0,,
428080,note_on,80,0,1,,,,,,,,,,,,,,,0,,,77,0
428160,set_tempo,160,1,0,,,,,,,,,,,,671216,,,,,,,
428160,note_on,0,0,1,,,,,,,,,,,,,,,0,,,62,47
428160,note_on,102,0,2,,,,,,,,,,,,,,,0,,,48,33
428160,note_on,80,0,1,,,,,,,,,,,,,,,0,,,58,39
428229,control_change,69,0,2,,,,,,,,,,,,,,,0,64,127,,
428320,note_on,160,0,1,,,,,,,,,,,,,,,0,,,62,0
428320,note_on,0,0,1,,,,,,,,,,,,,,,0,,,58,0
428320,note_on,0,0,1,,,,,,,,,,,,,,,0,,,65,40
428400,note_on,171,0,2,,,,,,,,,,,,,,,0,,,48,0
428480,note_on,0,0,1,,,,,,,,,,,,,,,0,,,65,40
428480,set_tempo,320,1,0,,,,,,,,,,,,675143,,,,,,,
428480,note_on,160,0,1,,,,,,,,,,,,,,,0,,,65,0
428527,control_change,127,0,2,,,,,,,,,,,,,,,0,64,0,,
428560,note_on,80,0,1,,,,,,,,,,,,,,,0,,,65,0
428640,note_on,0,0,1,,,,,,,,,,,,,,,0,,,60,51
428640,note_on,80,0,1,,,,,,,,,,,,,,,0,,,57,43
428640,note_on,113,0,2,,,,,,,,,,,,,,,0,,,48,35
428697,control_change,57,0,2,,,,,,,,,,,,,,,0,64,127,,
428800,note_on,0,0,1,,,,,,,,,,,,,,,0,,,65,46
428800,note_on,0,0,1,,,,,,,,,,,,,,,0,,,57,0
428800,note_on,160,0,1,,,,,,,,,,,,,,,0,,,60,0
428800,set_tempo,320,1,0,,,,,,,,,,,,679194,,,,,,,
428880,note_on,183,0,2,,,,,,,,,,,,,,,0,,,48,0
428960,set_tempo,160,1,0,,,,,,,,,,,,726744,,,,,,,
428960,note_on,160,0,1,,,,,,,,,,,,,,,0,,,65,0
428960,note_on,0,0,1,,,,,,,,,,,,,,,0,,,65,46
429007,control_change,127,0,2,,,,,,,,,,,,,,,0,64,0,,
429040,note_on,80,0,1,,,,,,,,,,,,,,,0,,,65,0
429080,set_tempo,120,1,0,,,,,,,,,,,,683293,,,,,,,
429120,note_on,113,0,2,,,,,,,,,,,,,,,0,,,58,41
429120,note_on,0,0,1,,,,,,,,,,,,,,,0,,,65,58
429120,note_on,80,0,1,,,,,,,,,,,,,,,0,,,60,49
429120,note_on,0,0,2,,,,,,,,,,,,,,,0,,,55,35
429120,set_tempo,40,1,0,,,,,,,,,,,,687364,,,,,,,
429120,note_on,0,0,2,,,,,,,,,,,,,,,0,,,48,35
429194,control_change,74,0,2,,,,,,,,,,,,,,,0,64,127,,
429240,set_tempo,120,1,0,,,,,,,,,,,,691483,,,,,,,
429280,note_on,160,0,1,,,,,,,,,,,,,,,0,,,65,0
429280,note_on,0,0,1,,,,,,,,,,,,,,,0,,,60,0
429280,note_on,0,0,1,,,,,,,,,,,,,,,0,,,72,50
429320,set_tempo,80,1,0,,,,,,,,,,,,695814,,,,,,,
429360,note_on,166,0,2,,,,,,,,,,,,,,,0,,,48,0
429360,note_on,0,0,2,,,,,,,,,,,,,,,0,,,55,0
429360,note_on,0,0,2,,,,,,,,,,,,,,,0,,,58,0
429440,set_tempo,120,1,0,,,,,,,,,,,,700035,,,,,,,
429440,note_on,160,0,1,,,,,,,,,,,,,,,0,,,72,0
429440,note_on,0,0,1,,,,,,,,,,,,,,,0,,,72,50
429494,control_change,134,0,2,,,,,,,,,,,,,,,0,64,0,,
429520,set_tempo,80,1,0,,,,,,,,,,,,704308,,,,,,,
429520,note_on,80,0,1,,,,,,,,,,,,,,,0,,,72,0
429600,note_on,106,0,2,,,,,,,,,,,,,,,0,,,48,36
429600,note_on,0,0,2,,,,,,,,,,,,,,,0,,,55,36
429600,note_on,0,0,2,,,,,,,,,,,,,,,0,,,58,42
429600,note_on,0,0,1,,,,,,,,,,,,,,,0,,,64,60
429600,note_on,80,0,1,,,,,,,,,,,,,,,0,,,60,50
429640,set_tempo,120,1,0,,,,,,,,,,,,708717,,,,,,,
429669,control_change,69,0,2,,,,,,,,,,,,,,,0,64,127,,
429720,set_tempo,80,1,0,,,,,,,,,,,,713182,,,,,,,
429760,note_on,0,0,1,,,,,,,,,,,,,,,0,,,72,53
429760,note_on,160,0,1,,,,,,,,,,,,,,,0,,,64,0
429760,note_on,0,0,1,,,,,,,,,,,,,,,0,,,60,0
429800,set_tempo,80,1,0,,,,,,,,,,,,717618,,,,,,,
429840,note_on,171,0,2,,,,,,,,,,,,,,,0,,,58,0
429840,note_on,0,0,2,,,,,,,,,,,,,,,0,,,48,0
429840,note_on,0,0,2,,,,,,,,,,,,,,,0,,,55,0
429920,set_tempo,120,1,0,,,,,,,,,,,,776297,,,,,,,
429920,note_on,0,0,1,,,,,,,,,,,,,,,0,,,72,53
429920,note_on,160,0,1,,,,,,,,,,,,,,,0,,,72,0
429921,control_change,81,0,2,,,,,,,,,,,,,,,0,64,0,,
430000,note_on,80,0,1,,,,,,,,,,,,,,,0,,,72,0
430080,control_change,159,0,2,,,,,,,,,,,,,,,0,64,127,,
430080,note_on,0,0,2,,,,,,,,,,,,,,,0,,,41,36
430080,note_on,0,0,2,,,,,,,,,,,,,,,0,,,53,42
430080,note_on,0,0,1,,,,,,,,,,,,,,,0,,,65,58
430080,note_on,80,0,1,,,,,,,,,,,,,,,0,,,57,58
430080,note_on,0,0,1,,,,,,,,,,,,,,,0,,,60,58
430080,set_tempo,160,1,0,,,,,,,,,,,,713182,,,,,,,
430200,note_on,120,0,2,,,,,,,,,,,,,,,0,,,53,0
430200,note_on,0,0,1,,,,,,,,,,,,,,,0,,,57,0
430200,note_on,0,0,1,,,,,,,,,,,,,,,0,,,60,0
430200,note_on,120,0,1,,,,,,,,,,,,,,,0,,,65,0
430200,note_on,0,0,2,,,,,,,,,,,,,,,0,,,41,0
430240,note_on,40,0,1,,,,,,,,,,,,,,,0,,,60,47
430400,note_on,160,0,1,,,,,,,,,,,,,,,0,,,60,0
430400,note_on,0,0,1,,,,,,,,,,,,,,,0,,,57,47
430560,note_on,160,0,1,,,,,,,,,,,,,,,0,,,57,0
430560,note_on,0,0,1,,,,,,,,,,,,,,,0,,,60,47
430720,note_on,160,0,1,,,,,,,,,,,,,,,0,,,60,0
430720,note_on,0,0,1,,,,,,,,,,,,,,,0,,,65,51
430880,note_on,0,0,1,,,,,,,,,,,,,,,0,,,69,55
430880,note_on,160,0,1,,,,,,,,,,,,,,,0,,,65,0
431040,note_on,0,0,2,,,,,,,,,,,,,,,0,,,60,44
431040,note_on,840,0,2,,,,,,,,,,,,,,,0,,,57,36
431040,note_on,0,0,1,,,,,,,,,,,,,,,0,,,72,68
431040,set_tempo,960,1,0,,,,,,,,,,,,683293,,,,,,,
431040,note_on,160,0,1,,,,,,,,,,,,,,,0,,,69,0
431089,control_change,49,0,2,,,,,,,,,,,,,,,0,64,0,,
431132,control_change,43,0,2,,,,,,,,,,,,,,,0,64,127,,
431520,note_on,480,0,1,,,,,,,,,,,,,,,0,,,62,48
431760,note_on,0,0,2,,,,,,,,,,,,,,,0,,,55,30
431760,note_on,240,0,1,,,,,,,,,,,,,,,0,,,62,0
431760,note_on,0,0,1,,,,,,,,,,,,,,,0,,,72,0
431760,note_on,0,0,1,,,,,,,,,,,,,,,0,,,64,45
431760,note_on,0,0,1,,,,,,,,,,,,,,,0,,,70,54
431760,note_on,628,0,2,,,,,,,,,,,,,,,0,,,57,0
431760,note_on,0,0,2,,,,,,,,,,,,,,,0,,,58,36
431760,set_tempo,720,1,0,,,,,,,,,,,,736196,,,,,,,
432000,note_on,0,0,1,,,,,,,,,,,,,,,0,,,64,0
432000,note_on,0,0,1,,,,,,,,,,,,,,,0,,,69,56
432000,note_on,0,0,1,,,,,,,,,,,,,,,0,,,65,47
432000,note_on,0,0,1,,,,,,,,,,,,,,,0,,,60,47
432000,note_on,240,0,1,,,,,,,,,,,,,,,0,,,70,0
432000,set_tempo,240,1,0,,,,,,,,,,,,695814,,,,,,,
432000,note_on,240,0,2,,,,,,,,,,,,,,,0,,,58,0
432000,note_on,0,0,2,,,,,,,,,,,,,,,0,,,55,0
432000,note_on,0,0,2,,,,,,,,,,,,,,,0,,,60,0
432000,note_on,0,0,2,,,,,,,,,,,,,,,0,,,57,44
432000,control_change,0,0,2,,,,,,,,,,,,,,,0,64,0,,
432000,note_on,0,0,2,,,,,,,,,,,,,,,0,,,53,36
432064,control_change,64,0,2,,,,,,,,,,,,,,,0,64,127,,
432480,note_on,480,0,1,,,,,,,,,,,,,,,0,,,69,0
432480,note_on,416,0,2,,,,,,,,,,,,,,,0,,,57,0
432480,note_on,0,0,2,,,,,,,,,,,,,,,0,,,53,0
432480,note_on,0,0,2,,,,,,,,,,,,,,,0,,,51,38
432480,note_on,0,0,2,,,,,,,,,,,,,,,0,,,57,45
432480,note_on,0,0,1,,,,,,,,,,,,,,,0,,,60,0
432480,note_on,0,0,1,,,,,,,,,,,,,,,0,,,65,0
432480,note_on,0,0,1,,,,,,,,,,,,,,,0,,,67,52
432480,note_on,0,0,1,,,,,,,,,,,,,,,0,,,69,62
432480,note_on,0,0,1,,,,,,,,,,,,,,,0,,,61,52
432508,control_change,28,0,2,,,,,,,,,,,,,,,0,64,0,,
432642,control_change,134,0,2,,,,,,,,,,,,,,,0,64,127,,
432960,note_on,0,0,1,,,,,,,,,,,,,,,0,,,61,0
432960,note_on,0,0,1,,,,,,,,,,,,,,,0,,,62,54
432960,note_on,0,0,1,,,,,,,,,,,,,,,0,,,60,54
432960,note_on,0,0,1,,,,,,,,,,,,,,,0,,,66,54
432960,note_on,0,0,1,,,,,,,,,,,,,,,0,,,67,0
432960,note_on,0,0,2,,,,,,,,,,,,,,,0,,,57,48
432960,note_on,480,0,1,,,,,,,,,,,,,,,0,,,69,0
432960,note_on,0,0,2,,,,,,,,,,,,,,,0,,,50,40
432960,note_on,0,0,2,,,,,,,,,,,,,,,0,,,51,0
432960,note_on,318,0,2,,,,,,,,,,,,,,,0,,,57,0
432960,note_on,0,0,1,,,,,,,,,,,,,,,0,,,69,64
432981,control_change,21,0,2,,,,,,,,,,,,,,,0,64,0,,
433108,control_change,127,0,2,,,,,,,,,,,,,,,0,64,127,,
433440,note_on,332,0,2,,,,,,,,,,,,,,,0,,,57,0
433440,note_on,0,0,2,,,,,,,,,,,,,,,0,,,50,0
433440,note_on,0,0,1,,,,,,,,,,,,,,,0,,,70,65
433440,note_on,0,0,1,,,,,,,,,,,,,,,0,,,62,55
433440,note_on,0,0,1,,,,,,,,,,,,,,,0,,,58,55
433440,note_on,0,0,1,,,,,,,,,,,,,,,0,,,66,0
433440,note_on,0,0,1,,,,,,,,,,,,,,,0,,,60,0
433440,note_on,0,0,1,,,,,,,,,,,,,,,0,,,62,0
433440,note_on,480,0,1,,,,,,,,,,,,,,,0,,,69,0
433440,note_on,0,0,2,,,,,,,,,,,,,,,0,,,43,37
433440,note_on,0,0,1,,,,,,,,,,,,,,,0,,,67,55
433440,note_on,0,0,2,,,,,,,,,,,,,,,0,,,50,37
433440,note_on,0,0,2,,,,,,,,,,,,,,,0,,,55,44
433504,control_change,64,0,2,,,,,,,,,,,,,,,0,64,0,,
433560,control_change,56,0,2,,,,,,,,,,,,,,,0,64,127,,
433680,set_tempo,1680,1,0,,,,,,,,,,,,736196,,,,,,,
433800,note_on,360,0,1,,,,,,,,,,,,,,,0,,,70,0
433800,note_on,0,0,1,,,,,,,,,,,,,,,0,,,69,55
433920,set_tempo,240,1,0,,,,,,,,,,,,687364,,,,,,,
433920,note_on,120,0,1,,,,,,,,,,,,,,,0,,,69,0
433920,note_on,0,0,1,,,,,,,,,,,,,,,0,,,67,0
433920,note_on,0,0,1,,,,,,,,,,,,,,,0,,,62,0
433920,note_on,0,0,1,,,,,,,,,,,,,,,0,,,58,0
433920,note_on,0,0,1,,,,,,,,,,,,,,,0,,,60,44
433920,note_on,0,0,1,,,,,,,,,,,,,,,0,,,67,52
433920,note_on,0,0,1,,,,,,,,,,,,,,,0,,,64,44
433920,note_on,0,0,2,,,,,,,,,,,,,,,0,,,58,49
433920,note_on,0,0,2,,,,,,,,,,,,,,,0,,,48,41
433920,note_on,0,0,2,,,,,,,,,,,,,,,0,,,43,0
433920,note_on,0,0,2,,,,,,,,,,,,,,,0,,,50,0
433920,note_on,360,0,2,,,,,,,,,,,,,,,0,,,55,0
433969,control_change,49,0,2,,,,,,,,,,,,,,,0,64,0,,
434061,control_change,92,0,2,,,,,,,,,,,,,,,0,64,127,,
434400,set_tempo,480,1,0,,,,,,,,,,,,687364,,,,,,,
434640,note_on,0,0,1,,,,,,,,,,,,,,,0,,,68,47
434640,note_on,720,0,1,,,,,,,,,,,,,,,0,,,67,0
434873,control_change,812,0,2,,,,,,,,,,,,,,,0,64,0,,
434880,note_on,0,0,2,,,,,,,,,,,,,,,0,,,53,32
434880,note_on,7,0,2,,,,,,,,,,,,,,,0,,,58,0
434880,note_on,0,0,2,,,,,,,,,,,,,,,0,,,57,38
434880,note_on,0,0,2,,,,,,,,,,,,,,,0,,,48,0
434880,note_on,240,0,1,,,,,,,,,,,,,,,0,,,68,0
434880,note_on,0,0,1,,,,,,,,,,,,,,,0,,,64,0
434880,note_on,0,0,1,,,,,,,,,,,,,,,0,,,65,43
434880,note_on,0,0,1,,,,,,,,,,,,,,,0,,,69,51
434920,set_tempo,520,1,0,,,,,,,,,,,,726744,,,,,,,
435000,note_on,0,0,2,,,,,,,,,,,,,,,0,,,53,0
435000,note_on,120,0,1,,,,,,,,,,,,,,,0,,,69,0
435000,note_on,0,0,1,,,,,,,,,,,,,,,0,,,65,0
435000,note_on,0,0,1,,,,,,,,,,,,,,,0,,,60,0
435000,note_on,120,0,2,,,,,,,,,,,,,,,0,,,57,0
435360,note_on,360,0,2,,,,,,,,,,,,,,,0,,,53,28
435360,note_on,0,0,2,,,,,,,,,,,,,,,0,,,57,34
435360,note_on,0,0,1,,,,,,,,,,,,,,,0,,,69,46
435360,note_on,360,0,1,,,,,,,,,,,,,,,0,,,60,39
435360,note_on,0,0,1,,,,,,,,,,,,,,,0,,,65,39
435480,note_on,0,0,1,,,,,,,,,,,,,,,0,,,60,0
435480,note_on,120,0,1,,,,,,,,,,,,,,,0,,,69,0
435480,note_on,120,0,2,,,,,,,,,,,,,,,0,,,57,0
435480,note_on,0,0,2,,,,,,,,,,,,,,,0,,,53,0
435480,note_on,0,0,1,,,,,,,,,,,,,,,0,,,65,0
435840,control_change,360,0,2,,,,,,,,,,,,,,,0,64,0,,
435840,set_tempo,920,1,0,,,,,,,,,,,,713182,,,,,,,
436000,note_on,520,0,1,,,,,,,,,,,,,,,0,,,48,47
436006,control_change,166,0,2,,,,,,,,,,,,,,,0,64,127,,
436160,note_on,160,0,1,,,,,,,,,,,,,,,0,,,48,0
436160,note_on,0,0,1,,,,,,,,,,,,,,,0,,,45,47
436320,note_on,160,0,1,,,,,,,,,,,,,,,0,,,45,0
436320,note_on,0,0,1,,,,,,,,,,,,,,,0,,,48,47
436480,note_on,160,0,1,,,,,,,,,,,,,,,0,,,48,0
436480,note_on,0,0,1,,,,,,,,,,,,,,,0,,,53,51
436640,note_on,160,0,1,,,,,,,,,,,,,,,0,,,53,0
436640,note_on,0,0,1,,,,,,,,,,,,,,,0,,,57,55
436800,set_tempo,960,1,0,,,,,,,,,,,,683293,,,,,,,
436800,note_on,160,0,1,,,,,,,,,,,,,,,0,,,57,0
436800,note_on,0,0,1,,,,,,,,,,,,,,,0,,,60,65
436800,note_on,794,0,2,,,,,,,,,,,,,,,0,,,45,35
436800,note_on,0,0,2,,,,,,,,,,,,,,,0,,,48,42
436849,control_change,49,0,2,,,,,,,,,,,,,,,0,64,0,,
436892,control_change,43,0,2,,,,,,,,,,,,,,,0,64,127,,
437037,note_on,145,0,2,,,,,,,,,,,,,,,0,,,48,0
437040,note_on,240,0,1,,,,,,,,,,,,,,,0,,,48,46
437280,note_on,240,0,1,,,,,,,,,,,,,,,0,,,50,48
437520,set_tempo,720,1,0,,,,,,,,,,,,736196,,,,,,,
437520,note_on,0,0,2,,,,,,,,,,,,,,,0,,,46,36
437520,note_on,0,0,2,,,,,,,,,,,,,,,0,,,43,30
437520,note_on,483,0,2,,,,,,,,,,,,,,,0,,,45,0
437520,note_on,0,0,1,,,,,,,,,,,,,,,0,,,48,0
437520,note_on,0,0,1,,,,,,,,,,,,,,,0,,,60,0
437520,note_on,0,0,1,,,,,,,,,,,,,,,0,,,48,45
437520,note_on,0,0,1,,,,,,,,,,,,,,,0,,,52,45
437520,note_on,0,0,1,,,,,,,,,,,,,,,0,,,58,54
437520,note_on,240,0,1,,,,,,,,,,,,,,,0,,,50,0
437760,note_on,240,0,2,,,,,,,,,,,,,,,0,,,46,0
437760,note_on,0,0,1,,,,,,,,,,,,,,,0,,,52,0
437760,note_on,0,0,1,,,,,,,,,,,,,,,0,,,57,56
437760,note_on,0,0,2,,,,,,,,,,,,,,,0,,,43,0
437760,note_on,0,0,2,,,,,,,,,,,,,,,0,,,41,36
437760,note_on,0,0,1,,,,,,,,,,,,,,,0,,,48,0
437760,set_tempo,240,1,0,,,,,,,,,,,,695814,,,,,,,
437760,note_on,0,0,1,,,,,,,,,,,,,,,0,,,48,47
437760,note_on,0,0,1,,,,,,,,,,,,,,,0,,,53,47
437760,note_on,240,0,1,,,,,,,,,,,,,,,0,,,58,0
437760,note_on,0,0,2,,,,,,,,,,,,,,,0,,,45,44
437760,control_change,0,0,2,,,,,,,,,,,,,,,0,64,0,,
437824,control_change,64,0,2,,,,,,,,,,,,,,,0,64,127,,
438240,note_on,0,0,1,,,,,,,,,,,,,,,0,,,55,52
438240,note_on,0,0,1,,,,,,,,,,,,,,,0,,,57,62
438240,note_on,0,0,1,,,,,,,,,,,,,,,0,,,48,0
438240,note_on,0,0,2,,,,,,,,,,,,,,,0,,,41,0
438240,note_on,0,0,2,,,,,,,,,,,,,,,0,,,39,38
438240,note_on,0,0,2,,,,,,,,,,,,,,,0,,,45,45
438240,note_on,0,0,1,,,,,,,,,,,,,,,0,,,53,0
438240,note_on,480,0,1,,,,,,,,,,,,,,,0,,,57,0
438240,note_on,416,0,2,,,,,,,,,,,,,,,0,,,45,0
438240,note_on,0,0,1,,,,,,,,,,,,,,,0,,,49,52
438268,control_change,28,0,2,,,,,,,,,,,,,,,0,64,0,,
438402,control_change,134,0,2,,,,,,,,,,,,,,,0,64,127,,
438720,note_on,0,0,1,,,,,,,,,,,,,,,0,,,49,0
438720,note_on,318,0,2,,,,,,,,,,,,,,,0,,,45,0
438720,note_on,0,0,2,,,,,,,,,,,,,,,0,,,45,48
438720,note_on,0,0,2,,,,,,,,,,,,,,,0,,,38,40
438720,note_on,480,0,1,,,,,,,,,,,,,,,0,,,57,0
438720,note_on,0,0,1,,,,,,,,,,,,,,,0,,,55,0
438720,note_on,0,0,1,,,,,,,,,,,,,,,0,,,50,54
438720,note_on,0,0,1,,,,,,,,,,,,,,,0,,,54,54
438720,note_on,0,0,1,,,,,,,,,,,,,,,0,,,57,64
438720,note_on,0,0,1,,,,,,,,,,,,,,,0,,,48,54
438720,note_on,0,0,2,,,,,,,,,,,,,,,0,,,39,0
438741,control_change,21,0,2,,,,,,,,,,,,,,,0,64,0,,
438868,control_change,127,0,2,,,,,,,,,,,,,,,0,64,127,,
439200,note_on,0,0,1,,,,,,,,,,,,,,,0,,,58,71
439200,note_on,0,0,2,,,,,,,,,,,,,,,0,,,43,48
439200,note_on,0,0,2,,,,,,,,,,,,,,,0,,,38,40
439200,note_on,0,0,2,,,,,,,,,,,,,,,0,,,31,40
439200,note_on,0,0,2,,,,,,,,,,,,,,,0,,,38,0
439200,note_on,332,0,2,,,,,,,,,,,,,,,0,,,45,0
439200,note_on,0,0,1,,,,,,,,,,,,,,,0,,,50,0
439200,note_on,0,0,1,,,,,,,,,,,,,,,0,,,50,60
439200,note_on,0,0,1,,,,,,,,,,,,,,,0,,,55,60
439200,note_on,0,0,1,,,,,,,,,,,,,,,0,,,48,0
439200,note_on,480,0,1,,,,,,,,,,,,,,,0,,,57,0
439200,note_on,0,0,1,,,,,,,,,,,,,,,0,,,46,60
439200,note_on,0,0,1,,,,,,,,,,,,,,,0,,,54,0
439264,control_change,64,0,2,,,,,,,,,,,,,,,0,64,0,,
439440,note_on,240,0,1,,,,,,,,,,,,,,,0,,,55,0
439440,note_on,0,0,1,,,,,,,,,,,,,,,0,,,58,0
439440,note_on,0,0,1,,,,,,,,,,,,,,,0,,,46,0
439440,note_on,0,0,1,,,,,,,,,,,,,,,0,,,50,0
439440,set_tempo,1680,1,0,,,,,,,,,,,,736196,,,,,,,
439440,note_on,0,0,2,,,,,,,,,,,,,,,0,,,31,0
439440,note_on,0,0,2,,,,,,,,,,,,,,,0,,,38,0
439440,note_on,176,0,2,,,,,,,,,,,,,,,0,,,43,0
440160,note_on,720,0,1,,,,,,,,,,,,,,,0,,,61,62
440160,set_tempo,720,1,0,,,,,,,,,,,,700035,,,,,,,
440160,note_on,0,0,1,,,,,,,,,,,,,,,0,,,70,74
440160,note_on,0,0,1,,,,,,,,,,,,,,,0,,,68,62
440160,note_on,0,0,2,,,,,,,,,,,,,,,0,,,58,53
440160,note_on,720,0,2,,,,,,,,,,,,,,,0,,,53,45
440188,control_change,28,0,2,,,,,,,,,,,,,,,0,64,0,,
440322,control_change,134,0,2,,,,,,,,,,,,,,,0,64,127,,
440640,note_on,0,0,1,,,,,,,,,,,,,,,0,,,70,77
440640,note_on,0,0,1,,,,,,,,,,,,,,,0,,,67,64
440640,note_on,480,0,1,,,,,,,,,,,,,,,0,,,70,0
440640,note_on,0,0,1,,,,,,,,,,,,,,,0,,,68,0
440640,note_on,0,0,1,,,,,,,,,,,,,,,0,,,61,0
440640,note_on,0,0,1,,,,,,,,,,,,,,,0,,,63,64
440640,note_on,0,0,1,,,,,,,,,,,,,,,0,,,61,64
440640,note_on,0,0,2,,,,,,,,,,,,,,,0,,,58,59
440640,note_on,318,0,2,,,,,,,,,,,,,,,0,,,58,0
440640,note_on,0,0,2,,,,,,,,,,,,,,,0,,,53,0
440640,note_on,0,0,2,,,,,,,,,,,,,,,0,,,51,49
440661,control_change,21,0,2,,,,,,,,,,,,,,,0,64,0,,
440788,control_change,127,0,2,,,,,,,,,,,,,,,0,64,127,,
441120,note_on,0,0,1,,,,,,,,,,,,,,,0,,,63,72
441120,note_on,480,0,1,,,,,,,,,,,,,,,0,,,70,0
441120,note_on,332,0,2,,,,,,,,,,,,,,,0,,,58,0
441120,note_on,0,0,2,,,,,,,,,,,,,,,0,,,51,0
441120,note_on,0,0,2,,,,,,,,,,,,,,,0,,,44,50
441120,note_on,0,0,2,,,,,,,,,,,,,,,0,,,51,50
441120,note_on,0,0,2,,,,,,,,,,,,,,,0,,,56,60
441120,note_on,0,0,1,,,,,,,,,,,,,,,0,,,59,72
441120,note_on,0,0,1,,,,,,,,,,,,,,,0,,,71,85
441120,note_on,0,0,1,,,,,,,,,,,,,,,0,,,67,0
441120,note_on,0,0,1,,,,,,,,,,,,,,,0,,,61,0
441120,note_on,0,0,1,,,,,,,,,,,,,,,0,,,63,0
441120,note_on,0,0,1,,,,,,,,,,,,,,,0,,,68,72
441184,control_change,64,0,2,,,,,,,,,,,,,,,0,64,0,,
441360,note_on,240,0,1,,,,,,,,,,,,,,,0,,,68,0
441360,note_on,0,0,1,,,,,,,,,,,,,,,0,,,71,0
441360,note_on,0,0,1,,,,,,,,,,,,,,,0,,,59,0
441360,note_on,0,0,2,,,,,,,,,,,,,,,0,,,44,0
441360,note_on,176,0,2,,,,,,,,,,,,,,,0,,,56,0
441360,note_on,0,0,2,,,,,,,,,,,,,,,0,,,51,0
441360,note_on,0,0,1,,,,,,,,,,,,,,,0,,,63,0
442080,note_on,720,0,1,,,,,,,,,,,,,,,0,,,74,82
442080,note_on,0,0,1,,,,,,,,,,,,,,,0,,,76,82
442080,note_on,0,0,1,,,,,,,,,,,,,,,0,,,83,99
442080,note_on,0,0,1,,,,,,,,,,,,,,,0,,,80,99
442080,note_on,0,0,2,,,,,,,,,,,,,,,0,,,47,70
442080,note_on,0,0,2,,,,,,,,,,,,,,,0,,,52,84
442080,note_on,720,0,2,,,,,,,,,,,,,,,0,,,40,70
442165,control_change,85,0,2,,,,,,,,,,,,,,,0,64,127,,
442560,note_on,0,0,1,,,,,,,,,,,,,,,0,,,83,0
442560,note_on,0,0,1,,,,,,,,,,,,,,,0,,,72,88
442560,note_on,0,0,1,,,,,,,,,,,,,,,0,,,76,88
442560,note_on,0,0,1,,,,,,,,,,,,,,,0,,,81,103
442560,note_on,395,0,2,,,,,,,,,,,,,,,0,,,52,0
442560,note_on,0,0,2,,,,,,,,,,,,,,,0,,,47,0
442560,note_on,0,0,2,,,,,,,,,,,,,,,0,,,40,0
442560,note_on,0,0,2,,,,,,,,,,,,,,,0,,,33,70
442560,note_on,0,0,2,,,,,,,,,,,,,,,0,,,40,70
442560,note_on,0,0,2,,,,,,,,,,,,,,,0,,,45,84
442560,note_on,0,0,1,,,,,,,,,,,,,,,0,,,84,103
442560,note_on,0,0,1,,,,,,,,,,,,,,,0,,,74,0
442560,note_on,480,0,1,,,,,,,,,,,,,,,0,,,80,0
442560,note_on,0,0,1,,,,,,,,,,,,,,,0,,,76,0
442631,control_change,71,0,2,,,,,,,,,,,,,,,0,64,0,,
442800,note_on,240,0,1,,,,,,,,,,,,,,,0,,,84,0
442800,note_on,0,0,1,,,,,,,,,,,,,,,0,,,72,0
442800,note_on,0,0,1,,,,,,,,,,,,,,,0,,,76,0
442800,note_on,0,0,1,,,,,,,,,,,,,,,0,,,81,0
442800,note_on,0,0,2,,,,,,,,,,,,,,,0,,,40,0
442800,note_on,0,0,2,,,,,,,,,,,,,,,0,,,33,0
442800,note_on,169,0,2,,,,,,,,,,,,,,,0,,,45,0
443520,note_on,0,0,1,,,,,,,,,,,,,,,0,,,84,62
443520,note_on,0,0,1,,,,,,,,,,,,,,,0,,,81,52
443520,note_on,720,0,1,,,,,,,,,,,,,,,0,,,77,52
443520,note_on,720,0,2,,,,,,,,,,,,,,,0,,,65,49
443520,note_on,0,0,2,,,,,,,,,,,,,,,0,,,75,58
443520,set_tempo,3360,1,0,,,,,,,,,,,,687364,,,,,,,
443569,control_change,49,0,2,,,,,,,,,,,,,,,0,64,0,,
443661,control_change,92,0,2,,,,,,,,,,,,,,,0,64,127,,
444000,set_tempo,480,1,0,,,,,,,,,,,,687364,,,,,,,
444240,note_on,720,0,1,,,,,,,,,,,,,,,0,,,84,0
444240,note_on,0,0,1,,,,,,,,,,,,,,,0,,,85,56
444473,control_change,812,0,2,,,,,,,,,,,,,,,0,64,0,,
444480,note_on,0,0,1,,,,,,,,,,,,,,,0,,,86,61
444480,note_on,0,0,1,,,,,,,,,,,,,,,0,,,82,51
444480,note_on,0,0,1,,,,,,,,,,,,,,,0,,,81,0
444480,note_on,240,0,1,,,,,,,,,,,,,,,0,,,85,0
444480,note_on,0,0,2,,,,,,,,,,,,,,,0,,,70,38
444480,note_on,0,0,2,,,,,,,,,,,,,,,0,,,65,0
444480,note_on,0,0,2,,,,,,,,,,,,,,,0,,,74,45
444480,note_on,7,0,2,,,,,,,,,,,,,,,0,,,75,0
444520,set_tempo,520,1,0,,,,,,,,,,,,731440,,,,,,,
444600,note_on,0,0,2,,,,,,,,,,,,,,,0,,,70,0
444600,note_on,120,0,2,,,,,,,,,,,,,,,0,,,74,0
444600,note_on,120,0,1,,,,,,,,,,,,,,,0,,,86,0
444600,note_on,0,0,1,,,,,,,,,,,,,,,0,,,82,0
444600,note_on,0,0,1,,,,,,,,,,,,,,,0,,,77,0
444960,note_on,0,0,1,,,,,,,,,,,,,,,0,,,82,46
444960,note_on,360,0,1,,,,,,,,,,,,,,,0,,,77,46
444960,note_on,0,0,1,,,,,,,,,,,,,,,0,,,86,55
444960,note_on,0,0,2,,,,,,,,,,,,,,,0,,,74,40
444960,note_on,360,0,2,,,,,,,,,,,,,,,0,,,70,33
444960,set_tempo,440,1,0,,,,,,,,,,,,786885,,,,,,,
445080,note_on,120,0,2,,,,,,,,,,,,,,,0,,,74,0
445080,note_on,120,0,1,,,,,,,,,,,,,,,0,,,86,0
445080,note_on,0,0,1,,,,,,,,,,,,,,,0,,,82,0
445080,note_on,0,0,1,,,,,,,,,,,,,,,0,,,77,0
445080,note_on,0,0,2,,,,,,,,,,,,,,,0,,,70,0
445440,note_on,360,0,2,,,,,,,,,,,,,,,0,,,70,38
445440,note_on,0,0,2,,,,,,,,,,,,,,,0,,,74,45
445440,note_on,360,0,1,,,,,,,,,,,,,,,0,,,77,51
445440,note_on,0,0,1,,,,,,,,,,,,,,,0,,,89,61
445440,note_on,0,0,1,,,,,,,,,,,,,,,0,,,86,61
445920,set_tempo,960,1,0,,,,,,,,,,,,713182,,,,,,,
446880,note_on,1440,0,1,,,,,,,,,,,,,,,0,,,89,0
446880,note_on,0,0,1,,,,,,,,,,,,,,,0,,,86,0
446880,note_on,0,0,1,,,,,,,,,,,,,,,0,,,77,0
446880,note_on,0,0,2,,,,,,,,,,,,,,,0,,,70,0
446880,note_on,1440,0,2,,,,,,,,,,,,,,,0,,,74,0
447360,note_on,480,0,1,,,,,,,,,,,,,,,0,,,77,54
447360,control_change,480,0,2,,,,,,,,,,,,,,,0,64,127,,
448560,note_on,0,0,1,,,,,,,,,,,,,,,0,,,74,45
448560,note_on,1200,0,1,,,,,,,,,,,,,,,0,,,77,0
448800,note_on,0,0,1,,,,,,,,,,,,,,,0,,,70,50
448800,note_on,240,0,1,,,,,,,,,,,,,,,0,,,74,0
449040,note_on,240,0,1,,,,,,,,,,,,,,,0,,,70,0
449040,note_on,0,0,1,,,,,,,,,,,,,,,0,,,69,45
449280,note_on,0,0,1,,,,,,,,,,,,,,,0,,,64,34
449280,note_on,0,0,1,,,,,,,,,,,,,,,0,,,60,34
449280,note_on,240,0,1,,,,,,,,,,,,,,,0,,,69,0
449280,note_on,1920,0,2,,,,,,,,,,,,,,,0,,,48,33
449280,note_on,0,0,2,,,,,,,,,,,,,,,0,,,58,39
449280,set_tempo,3360,1,0,,,,,,,,,,,,687364,,,,,,,
449280,note_on,0,0,1,,,,,,,,,,,,,,,0,,,69,49
449329,control_change,49,0,2,,,,,,,,,,,,,,,0,64,0,,
449421,control_change,92,0,2,,,,,,,,,,,,,,,0,64,127,,
449760,note_on,0,0,1,,,,,,,,,,,,,,,0,,,67,44
449760,set_tempo,480,1,0,,,,,,,,,,,,687364,,,,,,,
449760,note_on,480,0,1,,,,,,,,,,,,,,,0,,,69,0
450120,note_on,360,0,1,,,,,,,,,,,,,,,0,,,67,0
450120,note_on,0,0,1,,,,,,,,,,,,,,,0,,,68,44
450233,control_change,812,0,2,,,,,,,,,,,,,,,0,64,0,,
450240,note_on,0,0,2,,,,,,,,,,,,,,,0,,,48,0
450240,note_on,0,0,1,,,,,,,,,,,,,,,0,,,69,48
450240,note_on,7,0,2,,,,,,,,,,,,,,,0,,,58,0
450240,note_on,0,0,1,,,,,,,,,,,,,,,0,,,65,40
450240,note_on,0,0,2,,,,,,,,,,,,,,,0,,,53,30
450240,note_on,0,0,2,,,,,,,,,,,,,,,0,,,57,36
450240,note_on,0,0,1,,,,,,,,,,,,,,,0,,,64,0
450240,note_on,120,0,1,,,,,,,,,,,,,,,0,,,68,0
450280,set_tempo,520,1,0,,,,,,,,,,,,731440,,,,,,,
450360,note_on,0,0,2,,,,,,,,,,,,,,,0,,,53,0
450360,note_on,120,0,2,,,,,,,,,,,,,,,0,,,57,0
450360,note_on,120,0,1,,,,,,,,,,,,,,,0,,,69,0
450360,note_on,0,0,1,,,,,,,,,,,,,,,0,,,65,0
450360,note_on,0,0,1,,,,,,,,,,,,,,,0,,,60,0
450720,note_on,0,0,2,,,,,,,,,,,,,,,0,,,57,32
450720,note_on,360,0,2,,,,,,,,,,,,,,,0,,,53,24
450720,note_on,0,0,1,,,,,,,,,,,,,,,0,,,69,44
450720,set_tempo,440,1,0,,,,,,,,,,,,786885,,,,,,,
450720,note_on,0,0,1,,,,,,,,,,,,,,,0,,,65,36
450720,note_on,360,0,1,,,,,,,,,,,,,,,0,,,60,30
450840,note_on,120,0,1,,,,,,,,,,,,,,,0,,,69,0
450840,note_on,120,0,2,,,,,,,,,,,,,,,0,,,57,0
450840,note_on,0,0,1,,,,,,,,,,,,,,,0,,,65,0
450840,note_on,0,0,2,,,,,,,,,,,,,,,0,,,53,0
450840,note_on,0,0,1,,,,,,,,,,,,,,,0,,,60,0
451200,note_on,0,0,2,,,,,,,,,,,,,,,0,,,60,36
451200,note_on,360,0,2,,,,,,,,,,,,,,,0,,,53,30
451200,note_on,360,0,1,,,,,,,,,,,,,,,0,,,69,48
451200,note_on,0,0,1,,,,,,,,,,,,,,,0,,,72,48
451360,control_change,160,0,2,,,,,,,,,,,,,,,0,64,127,,
452560,control_change,1200,0,2,,,,,,,,,,,,,,,0,64,0,,
452640,note_on,1440,0,1,,,,,,,,,,,,,,,0,,,72,0
452640,note_on,80,0,2,,,,,,,,,,,,,,,0,,,60,0
452640,note_on,0,0,2,,,,,,,,,,,,,,,0,,,53,0
452640,note_on,0,0,1,,,,,,,,,,,,,,,0,,,69,0
453120,set_tempo,2400,1,0,,,,,,,,,,,,687364,,,,,,,
453120,note_on,480,0,1,,,,,,,,,,,,,,,0,,,77,52
453120,note_on,0,0,1,,,,,,,,,,,,,,,0,,,81,52
453120,note_on,0,0,1,,,,,,,,,,,,,,,0,,,84,62
453120,note_on,480,0,2,,,,,,,,,,,,,,,0,,,65,49
453120,note_on,0,0,2,,,,,,,,,,,,,,,0,,,75,58
453169,control_change,49,0,2,,,,,,,,,,,,,,,0,64,0,,
453261,control_change,92,0,2,,,,,,,,,,,,,,,0,64,127,,
453600,set_tempo,480,1,0,,,,,,,,,,,,687364,,,,,,,
453840,note_on,720,0,1,,,,,,,,,,,,,,,0,,,84,0
453840,note_on,0,0,1,,,,,,,,,,,,,,,0,,,85,56
454073,control_change,812,0,2,,,,,,,,,,,,,,,0,64,0,,
454080,note_on,7,0,2,,,,,,,,,,,,,,,0,,,75,0
454080,note_on,0,0,2,,,,,,,,,,,,,,,0,,,70,38
454080,note_on,0,0,2,,,,,,,,,,,,,,,0,,,74,45
454080,note_on,0,0,1,,,,,,,,,,,,,,,0,,,81,0
454080,note_on,0,0,1,,,,,,,,,,,,,,,0,,,82,51
454080,note_on,0,0,1,,,,,,,,,,,,,,,0,,,86,61
454080,note_on,0,0,2,,,,,,,,,,,,,,,0,,,65,0
454080,note_on,240,0,1,,,,,,,,,,,,,,,0,,,85,0
454120,set_tempo,520,1,0,,,,,,,,,,,,731440,,,,,,,
454200,note_on,0,0,1,,,,,,,,,,,,,,,0,,,77,0
454200,note_on,0,0,2,,,,,,,,,,,,,,,0,,,70,0
454200,note_on,120,0,1,,,,,,,,,,,,,,,0,,,86,0
454200,note_on,0,0,1,,,,,,,,,,,,,,,0,,,82,0
454200,note_on,120,0,2,,,,,,,,,,,,,,,0,,,74,0
454560,note_on,360,0,1,,,,,,,,,,,,,,,0,,,77,55
454560,note_on,360,0,2,,,,,,,,,,,,,,,0,,,70,39
454560,set_tempo,440,1,0,,,,,,,,,,,,786885,,,,,,,
454560,note_on,0,0,1,,,,,,,,,,,,,,,0,,,86,66
454560,note_on,0,0,1,,,,,,,,,,,,,,,0,,,82,55
454560,note_on,0,0,2,,,,,,,,,,,,,,,0,,,74,48
454680,note_on,0,0,2,,,,,,,,,,,,,,,0,,,70,0
454680,note_on,120,0,1,,,,,,,,,,,,,,,0,,,86,0
454680,note_on,0,0,1,,,,,,,,,,,,,,,0,,,82,0
454680,note_on,120,0,2,,,,,,,,,,,,,,,0,,,74,0
454680,note_on,0,0,1,,,,,,,,,,,,,,,0,,,77,0
455029,set_tempo,469,1,0,,,,,,,,,,,,983607,,,,,,,
455040,set_tempo,11,1,0,,,,,,,,,,,,863309,,,,,,,
455040,note_on,360,0,1,,,,,,,,,,,,,,,0,,,70,79
455052,set_tempo,12,1,0,,,,,,,,,,,,857143,,,,,,,
455058,control_change,378,0,2,,,,,,,,,,,,,,,0,64,127,,
455064,set_tempo,12,1,0,,,,,,,,,,,,851064,,,,,,,
455080,set_tempo,16,1,0,,,,,,,,,,,,845070,,,,,,,
455092,set_tempo,12,1,0,,,,,,,,,,,,833333,,,,,,,
455100,note_on,60,0,1,,,,,,,,,,,,,,,0,,,70,0
455100,note_on,0,0,1,,,,,,,,,,,,,,,0,,,74,79
455104,set_tempo,12,1,0,,,,,,,,,,,,827586,,,,,,,
455120,set_tempo,16,1,0,,,,,,,,,,,,821918,,,,,,,
455132,set_tempo,12,1,0,,,,,,,,,,,,810811,,,,,,,
455144,set_tempo,12,1,0,,,,,,,,,,,,805369,,,,,,,
455160,note_on,60,0,1,,,,,,,,,,,,,,,0,,,74,0
455160,note_on,0,0,1,,,,,,,,,,,,,,,0,,,77,78
455160,set_tempo,16,1,0,,,,,,,,,,,,800000,,,,,,,
455172,set_tempo,12,1,0,,,,,,,,,,,,789474,,,,,,,
455184,set_tempo,12,1,0,,,,,,,,,,,,784314,,,,,,,
455200,set_tempo,16,1,0,,,,,,,,,,,,779221,,,,,,,
455212,set_tempo,12,1,0,,,,,,,,,,,,774194,,,,,,,
455220,note_on,0,0,1,,,,,,,,,,,,,,,0,,,82,77
455220,note_on,60,0,1,,,,,,,,,,,,,,,0,,,77,0
455224,set_tempo,12,1,0,,,,,,,,,,,,764331,,,,,,,
455240,set_tempo,16,1,0,,,,,,,,,,,,759494,,,,,,,
455252,set_tempo,12,1,0,,,,,,,,,,,,754717,,,,,,,
455264,set_tempo,12,1,0,,,,,,,,,,,,745342,,,,,,,
455280,set_tempo,16,1,0,,,,,,,,,,,,740741,,,,,,,
455280,note_on,0,0,1,,,,,,,,,,,,,,,0,,,86,76
455280,note_on,60,0,1,,,,,,,,,,,,,,,0,,,82,0
455292,set_tempo,12,1,0,,,,,,,,,,,,736196,,,,,,,
455304,set_tempo,12,1,0,,,,,,,,,,,,727273,,,,,,,
455320,set_tempo,16,1,0,,,,,,,,,,,,722892,,,,,,,
455332,set_tempo,12,1,0,,,,,,,,,,,,718563,,,,,,,
455340,note_on,60,0,1,,,,,,,,,,,,,,,0,,,86,0
455340,note_on,0,0,1,,,,,,,,,,,,,,,0,,,89,75
455344,set_tempo,12,1,0,,,,,,,,,,,,714286,,,,,,,
455360,set_tempo,16,1,0,,,,,,,,,,,,705882,,,,,,,
455372,set_tempo,12,1,0,,,,,,,,,,,,701754,,,,,,,
455384,set_tempo,12,1,0,,,,,,,,,,,,697674,,,,,,,
455400,set_tempo,16,1,0,,,,,,,,,,,,689655,,,,,,,
455400,note_on,60,0,1,,,,,,,,,,,,,,,0,,,89,0
455400,note_on,0,0,1,,,,,,,,,,,,,,,0,,,94,74
455412,set_tempo,12,1,0,,,,,,,,,,,,685714,,,,,,,
455424,set_tempo,12,1,0,,,,,,,,,,,,681818,,,,,,,
455440,set_tempo,16,1,0,,,,,,,,,,,,674157,,,,,,,
455441,set_tempo,1,1,0,,,,,,,,,,,,740924,,,,,,,
455460,note_on,0,0,1,,,,,,,,,,,,,,,0,,,98,73
455460,note_on,60,0,1,,,,,,,,,,,,,,,0,,,94,0
455460,set_tempo,19,1,0,,,,,,,,,,,,991736,,,,,,,
455520,set_tempo,60,1,0,,,,,,,,,,,,920245,,,,,,,
455520,note_on,0,0,1,,,,,,,,,,,,,,,0,,,101,72
455520,note_on,60,0,1,,,,,,,,,,,,,,,0,,,98,0
455524,set_tempo,4,1,0,,,,,,,,,,,,920245,,,,,,,
455580,note_on,60,0,1,,,,,,,,,,,,,,,0,,,101,0
455982,control_change,924,0,2,,,,,,,,,,,,,,,0,64,0,,
456960,set_tempo,1436,1,0,,,,,,,,,,,,713182,,,,,,,
456960,note_on,1380,0,1,,,,,,,,,,,,,,,0,,,77,62
458640,note_on,0,0,1,,,,,,,,,,,,,,,0,,,76,50
458640,note_on,1680,0,1,,,,,,,,,,,,,,,0,,,77,0
458880,note_on,240,0,1,,,,,,,,,,,,,,,0,,,76,0
458880,note_on,0,0,1,,,,,,,,,,,,,,,0,,,76,53
459360,note_on,480,0,1,,,,,,,,,,,,,,,0,,,76,0
459360,note_on,0,0,1,,,,,,,,,,,,,,,0,,,74,51
459720,note_on,360,0,1,,,,,,,,,,,,,,,0,,,74,0
459720,note_on,0,0,1,,,,,,,,,,,,,,,0,,,72,47
459840,note_on,120,0,1,,,,,,,,,,,,,,,0,,,72,0
459840,note_on,0,0,1,,,,,,,,,,,,,,,0,,,72,51
460320,note_on,0,0,1,,,,,,,,,,,,,,,0,,,70,48
460320,note_on,480,0,1,,,,,,,,,,,,,,,0,,,72,0
460680,note_on,360,0,1,,,,,,,,,,,,,,,0,,,70,0
460680,note_on,0,0,1,,,,,,,,,,,,,,,0,,,69,41
460800,note_on,120,0,1,,,,,,,,,,,,,,,0,,,69,0
460800,note_on,0,0,1,,,,,,,,,,,,,,,0,,,60,30
460800,note_on,0,0,1,,,,,,,,,,,,,,,0,,,64,30
460800,note_on,0,0,1,,,,,,,,,,,,,,,0,,,69,44
460800,set_tempo,3840,1,0,,,,,,,,,,,,700035,,,,,,,
460800,note_on,4818,0,2,,,,,,,,,,,,,,,0,,,48,29
460800,note_on,0,0,2,,,,,,,,,,,,,,,0,,,58,35
460849,control_change,49,0,2,,,,,,,,,,,,,,,0,64,0,,
460941,control_change,92,0,2,,,,,,,,,,,,,,,0,64,127,,
461280,set_tempo,480,1,0,,,,,,,,,,,,722195,,,,,,,
461280,note_on,0,0,1,,,,,,,,,,,,,,,0,,,67,39
461280,note_on,480,0,1,,,,,,,,,,,,,,,0,,,69,0
461640,note_on,360,0,1,,,,,,,,,,,,,,,0,,,67,0
461640,note_on,0,0,1,,,,,,,,,,,,,,,0,,,68,39
461753,control_change,812,0,2,,,,,,,,,,,,,,,0,64,0,,
461760,set_tempo,480,1,0,,,,,,,,,,,,745712,,,,,,,
461760,note_on,0,0,1,,,,,,,,,,,,,,,0,,,64,0
461760,note_on,0,0,2,,,,,,,,,,,,,,,0,,,53,27
461760,note_on,0,0,1,,,,,,,,,,,,,,,0,,,65,36
461760,note_on,0,0,1,,,,,,,,,,,,,,,0,,,69,43
461760,note_on,7,0,2,,,,,,,,,,,,,,,0,,,58,0
461760,note_on,0,0,2,,,,,,,,,,,,,,,0,,,48,0
461760,note_on,0,0,2,,,,,,,,,,,,,,,0,,,57,32
461760,note_on,120,0,1,,,,,,,,,,,,,,,0,,,68,0
461880,note_on,120,0,1,,,,,,,,,,,,,,,0,,,69,0
461880,note_on,0,0,1,,,,,,,,,,,,,,,0,,,65,0
461880,note_on,0,0,1,,,,,,,,,,,,,,,0,,,60,0
461880,note_on,0,0,2,,,,,,,,,,,,,,,0,,,53,0
461880,note_on,120,0,2,,,,,,,,,,,,,,,0,,,57,0
462240,set_tempo,480,1,0,,,,,,,,,,,,815107,,,,,,,
462240,note_on,0,0,1,,,,,,,,,,,,,,,0,,,65,32
462240,note_on,360,0,1,,,,,,,,,,,,,,,0,,,60,27
462240,note_on,360,0,2,,,,,,,,,,,,,,,0,,,53,21
462240,note_on,0,0,2,,,,,,,,,,,,,,,0,,,57,28
462240,note_on,0,0,1,,,,,,,,,,,,,,,0,,,69,39
462360,note_on,120,0,1,,,,,,,,,,,,,,,0,,,69,0
462360,note_on,0,0,1,,,,,,,,,,,,,,,0,,,65,0
462360,note_on,120,0,2,,,,,,,,,,,,,,,0,,,57,0
462360,note_on,0,0,2,,,,,,,,,,,,,,,0,,,53,0
462360,note_on,0,0,1,,,,,,,,,,,,,,,0,,,60,0
462720,note_on,0,0,2,,,,,,,,,,,,,,,0,,,60,32
462720,note_on,360,0,1,,,,,,,,,,,,,,,0,,,69,43
462720,note_on,0,0,1,,,,,,,,,,,,,,,0,,,72,43
462720,note_on,360,0,2,,,,,,,,,,,,,,,0,,,53,27
462760,set_tempo,520,1,0,,,,,,,,,,,,713182,,,,,,,
462880,control_change,160,0,2,,,,,,,,,,,,,,,0,64,127,,
464080,control_change,1200,0,2,,,,,,,,,,,,,,,0,64,0,,
464160,note_on,1440,0,1,,,,,,,,,,,,,,,0,,,72,0
464160,note_on,0,0,1,,,,,,,,,,,,,,,0,,,69,0
464160,note_on,80,0,2,,,,,,,,,,,,,,,0,,,60,0
464160,note_on,0,0,2,,,,,,,,,,,,,,,0,,,53,0
464640,set_tempo,1880,1,0,,,,,,,,,,,,784314,,,,,,,
464640,note_on,480,0,2,,,,,,,,,,,,,,,0,,,52,24
464640,note_on,0,0,2,,,,,,,,,,,,,,,0,,,56,24
464640,note_on,0,0,1,,,,,,,,,,,,,,,0,,,73,38
464640,note_on,0,0,1,,,,,,,,,,,,,,,0,,,68,32
464640,note_on,480,0,1,,,,,,,,,,,,,,,0,,,64,32
464640,note_on,0,0,2,,,,,,,,,,,,,,,0,,,61,28
464760,note_on,0,0,1,,,,,,,,,,,,,,,0,,,64,0
464760,note_on,0,0,1,,,,,,,,,,,,,,,0,,,68,0
464760,note_on,120,0,2,,,,,,,,,,,,,,,0,,,61,0
464760,note_on,0,0,2,,,,,,,,,,,,,,,0,,,52,0
464760,note_on,0,0,2,,,,,,,,,,,,,,,0,,,56,0
464760,note_on,120,0,1,,,,,,,,,,,,,,,0,,,73,0
465120,note_on,360,0,1,,,,,,,,,,,,,,,0,,,64,24
465120,note_on,0,0,1,,,,,,,,,,,,,,,0,,,68,28
465120,note_on,0,0,1,,,,,,,,,,,,,,,0,,,73,35
465120,note_on,0,0,2,,,,,,,,,,,,,,,0,,,56,18
465120,note_on,360,0,2,,,,,,,,,,,,,,,0,,,52,18
465120,set_tempo,480,1,0,,,,,,,,,,,,902256,,,,,,,
465120,note_on,0,0,2,,,,,,,,,,,,,,,0,,,61,25
465240,note_on,120,0,2,,,,,,,,,,,,,,,0,,,61,0
465240,note_on,0,0,2,,,,,,,,,,,,,,,0,,,52,0
465240,note_on,0,0,2,,,,,,,,,,,,,,,0,,,56,0
465240,note_on,0,0,1,,,,,,,,,,,,,,,0,,,64,0
465240,note_on,120,0,1,,,,,,,,,,,,,,,0,,,73,0
465240,note_on,0,0,1,,,,,,,,,,,,,,,0,,,68,0
465600,note_on,0,0,2,,,,,,,,,,,,,,,0,,,56,24
465600,note_on,360,0,1,,,,,,,,,,,,,,,0,,,64,38
465600,note_on,0,0,1,,,,,,,,,,,,,,,0,,,68,38
465600,note_on,0,0,1,,,,,,,,,,,,,,,0,,,76,38
465600,note_on,0,0,2,,,,,,,,,,,,,,,0,,,61,28
465600,note_on,360,0,2,,,,,,,,,,,,,,,0,,,49,24
465600,set_tempo,480,1,0,,,,,,,,,,,,2854424,,,,,,,
465760,control_change,160,0,2,,,,,,,,,,,,,,,0,64,127,,
466080,note_on,0,0,2,,,,,,,,,,,,,,,0,,,49,34
466080,note_on,0,0,2,,,,,,,,,,,,,,,0,,,56,0
466080,note_on,320,0,2,,,,,,,,,,,,,,,0,,,61,0
466080,set_tempo,480,1,0,,,,,,,,,,,,693481,,,,,,,
466080,note_on,0,0,2,,,,,,,,,,,,,,,0,,,49,0
466080,note_on,0,0,1,,,,,,,,,,,,,,,0,,,64,50
466080,note_on,0,0,1,,,,,,,,,,,,,,,0,,,68,0
466080,note_on,480,0,1,,,,,,,,,,,,,,,0,,,76,0
466080,note_on,0,0,1,,,,,,,,,,,,,,,0,,,64,0
466103,control_change,23,0,2,,,,,,,,,,,,,,,0,64,0,,
466103,control_change,0,0,2,,,,,,,,,,,,,,,0,64,127,,
466320,note_on,0,0,2,,,,,,,,,,,,,,,0,,,56,29
466320,note_on,217,0,2,,,,,,,,,,,,,,,0,,,49,0
466560,note_on,0,0,2,,,,,,,,,,,,,,,0,,,49,33
466560,note_on,240,0,2,,,,,,,,,,,,,,,0,,,56,0
466560,set_tempo,0,1,0,,,,,,,,,,,,655738,,,,,,,
466560,key_signature,480,1,0,,,,,,,,,,,E,,,,,,,,
466560,note_on,0,0,1,,,,,,,,,,,,,,,0,,,64,54
466560,note_on,480,0,1,,,,,,,,,,,,,,,0,,,64,0
466571,control_change,11,0,2,,,,,,,,,,,,,,,0,64,0,,
466594,control_change,23,0,2,,,,,,,,,,,,,,,0,64,127,,
466800,note_on,206,0,2,,,,,,,,,,,,,,,0,,,49,0
466800,note_on,0,0,2,,,,,,,,,,,,,,,0,,,56,28
467040,note_on,480,0,1,,,,,,,,,,,,,,,0,,,64,0
467040,note_on,240,0,2,,,,,,,,,,,,,,,0,,,56,0
467040,note_on,0,0,2,,,,,,,,,,,,,,,0,,,48,33
467040,note_on,0,0,1,,,,,,,,,,,,,,,0,,,63,52
467040,set_tempo,480,1,0,,,,,,,,,,,,641026,,,,,,,
467074,control_change,34,0,2,,,,,,,,,,,,,,,0,64,0,,
467109,control_change,35,0,2,,,,,,,,,,,,,,,0,64,127,,
467280,note_on,171,0,2,,,,,,,,,,,,,,,0,,,48,0
467280,note_on,0,0,2,,,,,,,,,,,,,,,0,,,56,28
467400,set_tempo,360,1,0,,,,,,,,,,,,660793,,,,,,,
467480,set_tempo,80,1,0,,,,,,,,,,,,656599,,,,,,,
467520,note_on,0,0,2,,,,,,,,,,,,,,,0,,,49,33
467520,note_on,480,0,1,,,,,,,,,,,,,,,0,,,63,0
467520,set_tempo,40,1,0,,,,,,,,,,,,626894,,,,,,,
467520,note_on,240,0,2,,,,,,,,,,,,,,,0,,,56,0
467520,note_on,0,0,1,,,,,,,,,,,,,,,0,,,64,54
467537,control_change,17,0,2,,,,,,,,,,,,,,,0,64,0,,
467583,control_change,46,0,2,,,,,,,,,,,,,,,0,64,127,,
467760,set_tempo,240,1,0,,,,,,,,,,,,612245,,,,,,,
467760,note_on,177,0,2,,,,,,,,,,,,,,,0,,,49,0
467760,note_on,0,0,2,,,,,,,,,,,,,,,0,,,56,28
467989,control_change,229,0,2,,,,,,,,,,,,,,,0,64,0,,
468000,note_on,0,0,1,,,,,,,,,,,,,,,0,,,66,51
468000,note_on,11,0,2,,,,,,,,,,,,,,,0,,,56,0
468000,set_tempo,240,1,0,,,,,,,,,,,,625000,,,,,,,
468000,note_on,480,0,1,,,,,,,,,,,,,,,0,,,64,0
468000,note_on,0,0,2,,,,,,,,,,,,,,,0,,,51,34
468040,control_change,40,0,2,,,,,,,,,,,,,,,0,64,127,,
468240,set_tempo,240,1,0,,,,,,,,,,,,612245,,,,,,,
468240,note_on,200,0,2,,,,,,,,,,,,,,,0,,,51,0
468240,note_on,0,0,2,,,,,,,,,,,,,,,0,,,56,28
468440,set_tempo,200,1,0,,,,,,,,,,,,644676,,,,,,,
468480,note_on,240,0,2,,,,,,,,,,,,,,,0,,,56,0
468480,note_on,0,0,2,,,,,,,,,,,,,,,0,,,52,33
468480,control_change,0,0,2,,,,,,,,,,,,,,,0,64,0,,
468480,note_on,480,0,1,,,,,,,,,,,,,,,0,,,66,0
468480,note_on,0,0,1,,,,,,,,,,,,,,,0,,,68,54
468526,control_change,46,0,2,,,,,,,,,,,,,,,0,64,127,,
468720,set_tempo,280,1,0,,,,,,,,,,,,600000,,,,,,,
468720,note_on,194,0,2,,,,,,,,,,,,,,,0,,,52,0
468720,note_on,0,0,2,,,,,,,,,,,,,,,0,,,56,27
468960,note_on,0,0,2,,,,,,,,,,,,,,,0,,,61,30
468960,note_on,240,0,2,,,,,,,,,,,,,,,0,,,56,0
468960,set_tempo,240,1,0,,,,,,,,,,,,623506,,,,,,,
469200,note_on,240,0,2,,,,,,,,,,,,,,,0,,,61,0
469200,note_on,0,0,2,,,,,,,,,,,,,,,0,,,56,27
469200,set_tempo,240,1,0,,,,,,,,,,,,620155,,,,,,,
469440,set_tempo,240,1,0,,,,,,,,,,,,637416,,,,,,,
469440,note_on,240,0,2,,,,,,,,,,,,,,,0,,,56,0
469440,note_on,0,0,2,,,,,,,,,,,,,,,0,,,52,33
469480,set_tempo,40,1,0,,,,,,,,,,,,610190,,,,,,,
469680,set_tempo,200,1,0,,,,,,,,,,,,630451,,,,,,,
469680,note_on,240,0,2,,,,,,,,,,,,,,,0,,,52,0
469680,note_on,0,0,2,,,,,,,,,,,,,,,0,,,56,28
469864,control_change,184,0,2,,,,,,,,,,,,,,,0,64,0,,
469920,note_on,0,0,2,,,,,,,,,,,,,,,0,,,51,34
469920,set_tempo,240,1,0,,,,,,,,,,,,637416,,,,,,,
469920,note_on,0,0,1,,,,,,,,,,,,,,,0,,,68,52
469920,note_on,56,0,2,,,,,,,,,,,,,,,0,,,56,0
469920,note_on,1440,0,1,,,,,,,,,,,,,,,0,,,68,0
469960,set_tempo,40,1,0,,,,,,,,,,,,620155,,,,,,,
469991,control_change,71,0,2,,,,,,,,,,,,,,,0,64,127,,
470160,note_on,0,0,2,,,,,,,,,,,,,,,0,,,56,29
470160,note_on,169,0,2,,,,,,,,,,,,,,,0,,,51,0
470200,set_tempo,240,1,0,,,,,,,,,,,,633914,,,,,,,
470400,note_on,0,0,2,,,,,,,,,,,,,,,0,,,52,33
470400,set_tempo,200,1,0,,,,,,,,,,,,623506,,,,,,,
470400,note_on,240,0,2,,,,,,,,,,,,,,,0,,,56,0
470400,note_on,0,0,1,,,,,,,,,,,,,,,0,,,68,55
470400,note_on,480,0,1,,,,,,,,,,,,,,,0,,,68,0
470411,control_change,11,0,2,,,,,,,,,,,,,,,0,64,0,,
470434,control_change,23,0,2,,,,,,,,,,,,,,,0,64,127,,
470640,note_on,240,0,1,,,,,,,,,,,,,,,0,,,68,0
470640,note_on,0,0,1,,,,,,,,,,,,,,,0,,,66,52
470640,set_tempo,240,1,0,,,,,,,,,,,,613434,,,,,,,
470640,note_on,206,0,2,,,,,,,,,,,,,,,0,,,52,0
470640,note_on,0,0,2,,,,,,,,,,,,,,,0,,,56,28
470680,set_tempo,40,1,0,,,,,,,,,,,,610190,,,,,,,
470880,set_tempo,200,1,0,,,,,,,,,,,,597015,,,,,,,
470880,note_on,0,0,1,,,,,,,,,,,,,,,0,,,68,55
470880,note_on,240,0,2,,,,,,,,,,,,,,,0,,,56,0
470880,note_on,0,0,2,,,,,,,,,,,,,,,0,,,61,31
470880,note_on,240,0,1,,,,,,,,,,,,,,,0,,,66,0
470914,control_change,34,0,2,,,,,,,,,,,,,,,0,64,0,,
470949,control_change,35,0,2,,,,,,,,,,,,,,,0,64,127,,
471120,set_tempo,240,1,0,,,,,,,,,,,,618557,,,,,,,
471120,note_on,0,0,1,,,,,,,,,,,,,,,0,,,69,51
471120,note_on,240,0,1,,,,,,,,,,,,,,,0,,,68,0
471120,note_on,0,0,2,,,,,,,,,,,,,,,0,,,56,28
471120,note_on,171,0,2,,,,,,,,,,,,,,,0,,,61,0
471360,note_on,240,0,1,,,,,,,,,,,,,,,0,,,69,0
471360,note_on,0,0,1,,,,,,,,,,,,,,,0,,,71,55
471360,set_tempo,240,1,0,,,,,,,,,,,,603015,,,,,,,
471360,note_on,0,0,2,,,,,,,,,,,,,,,0,,,53,31
471360,note_on,240,0,2,,,,,,,,,,,,,,,0,,,56,0
471377,control_change,17,0,2,,,,,,,,,,,,,,,0,64,0,,
471423,control_change,46,0,2,,,,,,,,,,,,,,,0,64,127,,
471600,note_on,177,0,2,,,,,,,,,,,,,,,0,,,53,0
471600,set_tempo,240,1,0,,,,,,,,,,,,585366,,,,,,,
471600,note_on,0,0,1,,,,,,,,,,,,,,,0,,,74,57
471600,note_on,0,0,2,,,,,,,,,,,,,,,0,,,56,25
471600,note_on,240,0,1,,,,,,,,,,,,,,,0,,,71,0
471829,control_change,229,0,2,,,,,,,,,,,,,,,0,64,0,,
471840,note_on,0,0,1,,,,,,,,,,,,,,,0,,,73,55
471840,set_tempo,240,1,0,,,,,,,,,,,,606919,,,,,,,
471840,note_on,0,0,2,,,,,,,,,,,,,,,0,,,53,34
471840,note_on,240,0,1,,,,,,,,,,,,,,,0,,,74,0
471840,note_on,11,0,2,,,,,,,,,,,,,,,0,,,56,0
471880,control_change,40,0,2,,,,,,,,,,,,,,,0,64,127,,
472080,note_on,240,0,1,,,,,,,,,,,,,,,0,,,73,0
472080,note_on,0,0,1,,,,,,,,,,,,,,,0,,,68,53
472080,note_on,0,0,2,,,,,,,,,,,,,,,0,,,61,28
472080,note_on,200,0,2,,,,,,,,,,,,,,,0,,,53,0
472080,set_tempo,240,1,0,,,,,,,,,,,,623506,,,,,,,
472320,note_on,0,0,1,,,,,,,,,,,,,,,0,,,69,54
472320,note_on,240,0,2,,,,,,,,,,,,,,,0,,,61,0
472320,note_on,0,0,2,,,,,,,,,,,,,,,0,,,54,37
472320,control_change,0,0,2,,,,,,,,,,,,,,,0,64,0,,
472320,note_on,240,0,1,,,,,,,,,,,,,,,0,,,68,0
472320,set_tempo,240,1,0,,,,,,,,,,,,600540,,,,,,,
472366,control_change,46,0,2,,,,,,,,,,,,,,,0,64,127,,
472560,set_tempo,240,1,0,,,,,,,,,,,,574163,,,,,,,
472560,note_on,194,0,2,,,,,,,,,,,,,,,0,,,54,0
472560,note_on,0,0,2,,,,,,,,,,,,,,,0,,,61,27
472800,note_on,240,0,2,,,,,,,,,,,,,,,0,,,61,0
472800,set_tempo,240,1,0,,,,,,,,,,,,603743,,,,,,,
472800,note_on,0,0,2,,,,,,,,,,,,,,,0,,,54,31
473040,note_on,0,0,2,,,,,,,,,,,,,,,0,,,62,27
473040,set_tempo,240,1,0,,,,,,,,,,,,582524,,,,,,,
473040,note_on,240,0,2,,,,,,,,,,,,,,,0,,,54,0
473280,note_on,240,0,2,,,,,,,,,,,,,,,0,,,62,0
473280,note_on,0,0,2,,,,,,,,,,,,,,,0,,,54,31
473280,set_tempo,240,1,0,,,,,,,,,,,,606919,,,,,,,
473520,set_tempo,240,1,0,,,,,,,,,,,,633914,,,,,,,
473520,note_on,240,0,2,,,,,,,,,,,,,,,0,,,54,0
473520,note_on,0,0,2,,,,,,,,,,,,,,,0,,,61,25
473760,note_on,0,0,2,,,,,,,,,,,,,,,0,,,54,34
473760,set_tempo,240,1,0,,,,,,,,,,,,616776,,,,,,,
473760,note_on,240,0,2,,,,,,,,,,,,,,,0,,,61,0
473760,note_on,0,0,1,,,,,,,,,,,,,,,0,,,81,50
473760,note_on,0,0,1,,,,,,,,,,,,,,,0,,,69,42
473760,note_on,1440,0,1,,,,,,,,,,,,,,,0,,,69,0
473780,set_tempo,20,1,0,,,,,,,,,,,,603015,,,,,,,
473783,control_change,23,0,2,,,,,,,,,,,,,,,0,64,0,,
473783,control_change,0,0,2,,,,,,,,,,,,,,,0,64,127,,
474000,note_on,217,0,2,,,,,,,,,,,,,,,0,,,54,0
474000,note_on,0,0,2,,,,,,,,,,,,,,,0,,,60,29
474240,note_on,0,0,1,,,,,,,,,,,,,,,0,,,69,45
474240,note_on,0,0,1,,,,,,,,,,,,,,,0,,,69,0
474240,note_on,480,0,1,,,,,,,,,,,,,,,0,,,81,0
474240,set_tempo,460,1,0,,,,,,,,,,,,616776,,,,,,,
474240,note_on,0,0,1,,,,,,,,,,,,,,,0,,,81,54
474240,note_on,240,0,2,,,,,,,,,,,,,,,0,,,60,0
474240,note_on,0,0,2,,,,,,,,,,,,,,,0,,,54,33
474251,control_change,11,0,2,,,,,,,,,,,,,,,0,64,0,,
474274,control_change,23,0,2,,,,,,,,,,,,,,,0,64,127,,
474480,note_on,0,0,2,,,,,,,,,,,,,,,0,,,61,28
474480,set_tempo,240,1,0,,,,,,,,,,,,630451,,,,,,,
474480,note_on,206,0,2,,,,,,,,,,,,,,,0,,,54,0
474720,note_on,0,0,1,,,,,,,,,,,,,,,0,,,69,0
474720,note_on,0,0,1,,,,,,,,,,,,,,,0,,,80,52
474720,note_on,0,0,1,,,,,,,,,,,,,,,0,,,68,44
474720,note_on,0,0,2,,,,,,,,,,,,,,,0,,,53,33
474720,note_on,480,0,1,,,,,,,,,,,,,,,0,,,81,0
474720,note_on,240,0,2,,,,,,,,,,,,,,,0,,,61,0
474720,set_tempo,240,1,0,,,,,,,,,,,,606919,,,,,,,
474754,control_change,34,0,2,,,,,,,,,,,,,,,0,64,0,,
474789,control_change,35,0,2,,,,,,,,,,,,,,,0,64,127,,
474960,note_on,171,0,2,,,,,,,,,,,,,,,0,,,53,0
474960,note_on,0,0,2,,,,,,,,,,,,,,,0,,,61,28
474960,set_tempo,240,1,0,,,,,,,,,,,,585366,,,,,,,
475200,note_on,0,0,2,,,,,,,,,,,,,,,0,,,54,33
475200,note_on,240,0,2,,,,,,,,,,,,,,,0,,,61,0
475200,note_on,480,0,1,,,,,,,,,,,,,,,0,,,80,0
475200,set_tempo,240,1,0,,,,,,,,,,,,610190,,,,,,,
475200,note_on,0,0,1,,,,,,,,,,,,,,,0,,,69,45
475200,note_on,0,0,1,,,,,,,,,,,,,,,0,,,81,54
475200,note_on,0,0,1,,,,,,,,,,,,,,,0,,,68,0
475217,control_change,17,0,2,,,,,,,,,,,,,,,0,64,0,,
475240,set_tempo,40,1,0,,,,,,,,,,,,603743,,,,,,,
475263,control_change,46,0,2,,,,,,,,,,,,,,,0,64,127,,
475440,note_on,177,0,2,,,,,,,,,,,,,,,0,,,54,0
475440,note_on,0,0,2,,,,,,,,,,,,,,,0,,,61,28
475440,set_tempo,200,1,0,,,,,,,,,,,,591133,,,,,,,
475669,control_change,229,0,2,,,,,,,,,,,,,,,0,64,0,,
475680,note_on,480,0,1,,,,,,,,,,,,,,,0,,,81,0
475680,note_on,0,0,1,,,,,,,,,,,,,,,0,,,71,43
475680,note_on,0,0,1,,,,,,,,,,,,,,,0,,,83,51
475680,note_on,0,0,1,,,,,,,,,,,,,,,0,,,69,0
475680,note_on,0,0,2,,,,,,,,,,,,,,,0,,,56,34
475680,note_on,11,0,2,,,,,,,,,,,,,,,0,,,61,0
475680,set_tempo,240,1,0,,,,,,,,,,,,603015,,,,,,,
475720,control_change,40,0,2,,,,,,,,,,,,,,,0,64,127,,
475920,note_on,0,0,2,,,,,,,,,,,,,,,0,,,61,28
475920,note_on,200,0,2,,,,,,,,,,,,,,,0,,,56,0
475920,set_tempo,240,1,0,,,,,,,,,,,,588235,,,,,,,
476160,note_on,240,0,2,,,,,,,,,,,,,,,0,,,61,0
476160,note_on,0,0,1,,,,,,,,,,,,,,,0,,,85,54
476160,note_on,0,0,1,,,,,,,,,,,,,,,0,,,73,45
476160,note_on,0,0,1,,,,,,,,,,,,,,,0,,,71,0
476160,note_on,480,0,1,,,,,,,,,,,,,,,0,,,83,0
476160,set_tempo,240,1,0,,,,,,,,,,,,603015,,,,,,,
476160,note_on,0,0,2,,,,,,,,,,,,,,,0,,,57,33
476160,control_change,0,0,2,,,,,,,,,,,,,,,0,64,0,,
476206,control_change,46,0,2,,,,,,,,,,,,,,,0,64,127,,
476400,note_on,194,0,2,,,,,,,,,,,,,,,0,,,57,0
476400,note_on,0,0,2,,,,,,,,,,,,,,,0,,,61,27
476400,set_tempo,240,1,0,,,,,,,,,,,,585366,,,,,,,
476640,set_tempo,240,1,0,,,,,,,,,,,,610190,,,,,,,
476640,note_on,0,0,2,,,,,,,,,,,,,,,0,,,66,31
476640,note_on,240,0,2,,,,,,,,,,,,,,,0,,,61,0
476880,note_on,0,0,2,,,,,,,,,,,,,,,0,,,61,27
476880,note_on,240,0,2,,,,,,,,,,,,,,,0,,,66,0
476880,set_tempo,240,1,0,,,,,,,,,,,,588235,,,,,,,
477120,note_on,240,0,2,,,,,,,,,,,,,,,0,,,61,0
477120,set_tempo,240,1,0,,,,,,,,,,,,606919,,,,,,,
477120,note_on,0,0,2,,,,,,,,,,,,,,,0,,,57,33
477360,note_on,240,0,2,,,,,,,,,,,,,,,0,,,57,0
477360,note_on,0,0,2,,,,,,,,,,,,,,,0,,,61,28
477360,set_tempo,240,1,0,,,,,,,,,,,,630451,,,,,,,
477544,control_change,184,0,2,,,,,,,,,,,,,,,0,64,0,,
477600,note_on,56,0,2,,,,,,,,,,,,,,,0,,,61,0
477600,note_on,0,0,2,,,,,,,,,,,,,,,0,,,56,34
477600,note_on,0,0,1,,,,,,,,,,,,,,,0,,,85,52
477600,set_tempo,240,1,0,,,,,,,,,,,,612245,,,,,,,
477600,note_on,0,0,1,,,,,,,,,,,,,,,0,,,73,44
477600,note_on,0,0,1,,,,,,,,,,,,,,,0,,,73,0
477600,note_on,1440,0,1,,,,,,,,,,,,,,,0,,,85,0
477671,control_change,71,0,2,,,,,,,,,,,,,,,0,64,127,,
477840,note_on,0,0,2,,,,,,,,,,,,,,,0,,,61,29
477840,note_on,169,0,2,,,,,,,,,,,,,,,0,,,56,0
478080,note_on,240,0,2,,,,,,,,,,,,,,,0,,,61,0
478080,set_tempo,480,1,0,,,,,,,,,,,,591133,,,,,,,
478080,note_on,0,0,2,,,,,,,,,,,,,,,0,,,57,33
478080,note_on,480,0,1,,,,,,,,,,,,,,,0,,,85,0
478080,note_on,0,0,1,,,,,,,,,,,,,,,0,,,73,0
478080,note_on,0,0,1,,,,,,,,,,,,,,,0,,,73,46
478080,note_on,0,0,1,,,,,,,,,,,,,,,0,,,85,55
478091,control_change,11,0,2,,,,,,,,,,,,,,,0,64,0,,
478114,control_change,23,0,2,,,,,,,,,,,,,,,0,64,127,,
478320,note_on,0,0,2,,,,,,,,,,,,,,,0,,,61,28
478320,note_on,206,0,2,,,,,,,,,,,,,,,0,,,57,0
478320,note_on,0,0,1,,,,,,,,,,,,,,,0,,,83,52
478320,note_on,240,0,1,,,,,,,,,,,,,,,0,,,85,0
478320,set_tempo,240,1,0,,,,,,,,,,,,613434,,,,,,,
478320,note_on,0,0,1,,,,,,,,,,,,,,,0,,,73,0
478320,note_on,0,0,1,,,,,,,,,,,,,,,0,,,71,44
478560,note_on,0,0,1,,,,,,,,,,,,,,,0,,,73,46
478560,note_on,240,0,2,,,,,,,,,,,,,,,0,,,61,0
478560,note_on,0,0,2,,,,,,,,,,,,,,,0,,,66,33
478560,note_on,240,0,1,,,,,,,,,,,,,,,0,,,83,0
478560,note_on,0,0,1,,,,,,,,,,,,,,,0,,,85,55
478560,set_tempo,240,1,0,,,,,,,,,,,,576923,,,,,,,
478560,note_on,0,0,1,,,,,,,,,,,,,,,0,,,71,0
478594,control_change,34,0,2,,,,,,,,,,,,,,,0,64,0,,
478629,control_change,35,0,2,,,,,,,,,,,,,,,0,64,127,,
478800,note_on,0,0,2,,,,,,,,,,,,,,,0,,,61,28
478800,note_on,171,0,2,,,,,,,,,,,,,,,0,,,66,0
478800,set_tempo,240,1,0,,,,,,,,,,,,606919,,,,,,,
478800,note_on,0,0,1,,,,,,,,,,,,,,,0,,,86,51
478800,note_on,0,0,1,,,,,,,,,,,,,,,0,,,74,43
478800,note_on,0,0,1,,,,,,,,,,,,,,,0,,,73,0
478800,note_on,240,0,1,,,,,,,,,,,,,,,0,,,85,0
479040,note_on,240,0,1,,,,,,,,,,,,,,,0,,,86,0
479040,set_tempo,240,1,0,,,,,,,,,,,,582524,,,,,,,
479040,note_on,240,0,2,,,,,,,,,,,,,,,0,,,61,0
479040,note_on,0,0,2,,,,,,,,,,,,,,,0,,,58,35
479040,note_on,0,0,1,,,,,,,,,,,,,,,0,,,74,0
479040,note_on,0,0,1,,,,,,,,,,,,,,,0,,,88,55
479040,note_on,0,0,1,,,,,,,,,,,,,,,0,,,76,46
479057,control_change,17,0,2,,,,,,,,,,,,,,,0,64,0,,
479103,control_change,46,0,2,,,,,,,,,,,,,,,0,64,127,,
479280,note_on,0,0,2,,,,,,,,,,,,,,,0,,,61,29
479280,set_tempo,240,1,0,,,,,,,,,,,,613434,,,,,,,
479280,note_on,0,0,1,,,,,,,,,,,,,,,0,,,91,57
479280,note_on,0,0,1,,,,,,,,,,,,,,,0,,,79,48
479280,note_on,0,0,1,,,,,,,,,,,,,,,0,,,76,0
479280,note_on,240,0,1,,,,,,,,,,,,,,,0,,,88,0
479280,note_on,177,0,2,,,,,,,,,,,,,,,0,,,58,0
479509,control_change,229,0,2,,,,,,,,,,,,,,,0,64,0,,
479520,note_on,0,0,2,,,,,,,,,,,,,,,0,,,58,35
479520,note_on,11,0,2,,,,,,,,,,,,,,,0,,,61,0
479520,set_tempo,240,1,0,,,,,,,,,,,,613434,,,,,,,
479520,note_on,0,0,1,,,,,,,,,,,,,,,0,,,78,46
479520,note_on,240,0,1,,,,,,,,,,,,,,,0,,,91,0
479520,note_on,0,0,1,,,,,,,,,,,,,,,0,,,90,55
479520,note_on,0,0,1,,,,,,,,,,,,,,,0,,,79,0
479560,control_change,40,0,2,,,,,,,,,,,,,,,0,64,127,,
479760,note_on,0,0,2,,,,,,,,,,,,,,,0,,,66,28
479760,note_on,200,0,2,,,,,,,,,,,,,,,0,,,58,0
479760,note_on,0,0,1,,,,,,,,,,,,,,,0,,,85,53
479760,note_on,0,0,1,,,,,,,,,,,,,,,0,,,73,45
479760,note_on,0,0,1,,,,,,,,,,,,,,,0,,,78,0
479760,note_on,240,0,1,,,,,,,,,,,,,,,0,,,90,0
480000,note_on,240,0,1,,,,,,,,,,,,,,,0,,,85,0
480000,note_on,0,0,1,,,,,,,,,,,,,,,0,,,73,0
480000,note_on,0,0,2,,,,,,,,,,,,,,,0,,,59,37
480000,note_on,0,0,1,,,,,,,,,,,,,,,0,,,86,54
480000,control_change,0,0,2,,,,,,,,,,,,,,,0,64,0,,
480000,note_on,240,0,2,,,,,,,,,,,,,,,0,,,66,0
480000,note_on,0,0,1,,,,,,,,,,,,,,,0,,,74,45
480040,set_tempo,520,1,0,,,,,,,,,,,,610190,,,,,,,
480046,control_change,46,0,2,,,,,,,,,,,,,,,0,64,127,,
480240,note_on,194,0,2,,,,,,,,,,,,,,,0,,,59,0
480240,note_on,0,0,2,,,,,,,,,,,,,,,0,,,66,40
480240,set_tempo,200,1,0,,,,,,,,,,,,582524,,,,,,,
480480,set_tempo,240,1,0,,,,,,,,,,,,606919,,,,,,,
480480,note_on,240,0,2,,,,,,,,,,,,,,,0,,,66,0
480480,note_on,0,0,2,,,,,,,,,,,,,,,0,,,59,33
480720,set_tempo,240,1,0,,,,,,,,,,,,579710,,,,,,,
480720,note_on,240,0,2,,,,,,,,,,,,,,,0,,,59,0
480720,note_on,0,0,2,,,,,,,,,,,,,,,0,,,67,39
480949,control_change,229,0,2,,,,,,,,,,,,,,,0,64,0,,
480960,note_on,11,0,2,,,,,,,,,,,,,,,0,,,67,0
480960,set_tempo,240,1,0,,,,,,,,,,,,613434,,,,,,,
480960,note_on,0,0,2,,,,,,,,,,,,,,,0,,,59,33
481017,control_change,57,0,2,,,,,,,,,,,,,,,0,64,127,,
481200,note_on,0,0,2,,,,,,,,,,,,,,,0,,,66,36
481200,note_on,183,0,2,,,,,,,,,,,,,,,0,,,59,0
481440,note_on,0,0,2,,,,,,,,,,,,,,,0,,,59,33
481440,note_on,240,0,2,,,,,,,,,,,,,,,0,,,66,0
481440,note_on,1440,0,1,,,,,,,,,,,,,,,0,,,86,0
481440,set_tempo,480,1,0,,,,,,,,,,,,628272,,,,,,,
481440,note_on,0,0,1,,,,,,,,,,,,,,,0,,,86,54
481440,note_on,0,0,1,,,,,,,,,,,,,,,0,,,74,54
481440,note_on,0,0,1,,,,,,,,,,,,,,,0,,,74,0
481463,control_change,23,0,2,,,,,,,,,,,,,,,0,64,0,,
481554,control_change,91,0,2,,,,,,,,,,,,,,,0,64,127,,
481680,note_on,0,0,2,,,,,,,,,,,,,,,0,,,65,29
481680,note_on,126,0,2,,,,,,,,,,,,,,,0,,,59,0
481920,note_on,0,0,2,,,,,,,,,,,,,,,0,,,57,35
481920,note_on,240,0,2,,,,,,,,,,,,,,,0,,,65,0
481920,note_on,480,0,1,,,,,,,,,,,,,,,0,,,86,0
481920,note_on,0,0,1,,,,,,,,,,,,,,,0,,,74,0
481920,note_on,0,0,1,,,,,,,,,,,,,,,0,,,73,58
481920,note_on,0,0,1,,,,,,,,,,,,,,,0,,,85,58
481920,control_change,0,0,2,,,,,,,,,,,,,,,0,64,0,,
481960,set_tempo,520,1,0,,,,,,,,,,,,630451,,,,,,,
482000,control_change,80,0,2,,,,,,,,,,,,,,,0,64,127,,
482160,set_tempo,200,1,0,,,,,,,,,,,,610190,,,,,,,
482160,note_on,0,0,2,,,,,,,,,,,,,,,0,,,66,31
482160,note_on,160,0,2,,,,,,,,,,,,,,,0,,,57,0
482400,set_tempo,240,1,0,,,,,,,,,,,,591133,,,,,,,
482400,note_on,0,0,2,,,,,,,,,,,,,,,0,,,56,33
482400,note_on,240,0,2,,,,,,,,,,,,,,,0,,,66,0
482640,note_on,720,0,1,,,,,,,,,,,,,,,0,,,85,0
482640,note_on,0,0,1,,,,,,,,,,,,,,,0,,,73,0
482640,note_on,0,0,1,,,,,,,,,,,,,,,0,,,71,54
482640,note_on,0,0,1,,,,,,,,,,,,,,,0,,,83,54
482640,note_on,240,0,2,,,,,,,,,,,,,,,0,,,56,0
482640,set_tempo,240,1,0,,,,,,,,,,,,623506,,,,,,,
482640,note_on,0,0,2,,,,,,,,,,,,,,,0,,,65,30
482880,set_tempo,240,1,0,,,,,,,,,,,,616776,,,,,,,
482880,note_on,240,0,2,,,,,,,,,,,,,,,0,,,65,0
482880,note_on,240,0,1,,,,,,,,,,,,,,,0,,,83,0
482880,note_on,0,0,1,,,,,,,,,,,,,,,0,,,71,0
482880,note_on,0,0,1,,,,,,,,,,,,,,,0,,,69,54
482880,note_on,0,0,1,,,,,,,,,,,,,,,0,,,81,54
482880,note_on,0,0,2,,,,,,,,,,,,,,,0,,,54,33
482960,control_change,80,0,2,,,,,,,,,,,,,,,0,64,0,,
483040,control_change,80,0,2,,,,,,,,,,,,,,,0,64,127,,
483120,note_on,0,0,1,,,,,,,,,,,,,,,0,,,69,0
483120,note_on,240,0,1,,,,,,,,,,,,,,,0,,,81,0
483120,note_on,0,0,2,,,,,,,,,,,,,,,0,,,66,30
483120,note_on,80,0,2,,,,,,,,,,,,,,,0,,,54,0
483360,note_on,0,0,2,,,,,,,,,,,,,,,0,,,51,33
483360,note_on,0,0,1,,,,,,,,,,,,,,,0,,,81,54
483360,note_on,240,0,1,,,,,,,,,,,,,,,0,,,69,54
483360,note_on,240,0,2,,,,,,,,,,,,,,,0,,,66,0
483600,note_on,0,0,2,,,,,,,,,,,,,,,0,,,60,29
483600,note_on,240,0,2,,,,,,,,,,,,,,,0,,,51,0
483840,note_on,0,0,1,,,,,,,,,,,,,,,0,,,80,57
483840,note_on,0,0,1,,,,,,,,,,,,,,,0,,,68,57
483840,note_on,240,0,2,,,,,,,,,,,,,,,0,,,60,0
483840,control_change,0,0,2,,,,,,,,,,,,,,,0,64,0,,
483840,note_on,0,0,2,,,,,,,,,,,,,,,0,,,52,36
483840,note_on,480,0,1,,,,,,,,,,,,,,,0,,,81,0
483840,note_on,0,0,1,,,,,,,,,,,,,,,0,,,69,0
483931,control_change,91,0,2,,,,,,,,,,,,,,,0,64,127,,
484080,set_tempo,1200,1,0,,,,,,,,,,,,588235,,,,,,,
484080,note_on,149,0,2,,,,,,,,,,,,,,,0,,,52,0
484080,note_on,0,0,2,,,,,,,,,,,,,,,0,,,61,30
484320,note_on,0,0,2,,,,,,,,,,,,,,,0,,,48,33
484320,set_tempo,240,1,0,,,,,,,,,,,,606061,,,,,,,
484320,note_on,240,0,2,,,,,,,,,,,,,,,0,,,61,0
484560,note_on,720,0,1,,,,,,,,,,,,,,,0,,,80,0
484560,note_on,240,0,2,,,,,,,,,,,,,,,0,,,48,0
484560,note_on,0,0,2,,,,,,,,,,,,,,,0,,,57,29
484560,set_tempo,240,1,0,,,,,,,,,,,,633914,,,,,,,
484560,note_on,0,0,1,,,,,,,,,,,,,,,0,,,68,0
484560,note_on,0,0,1,,,,,,,,,,,,,,,0,,,66,52
484560,note_on,0,0,1,,,,,,,,,,,,,,,0,,,78,52
484800,note_on,0,0,1,,,,,,,,,,,,,,,0,,,66,0
484800,note_on,0,0,2,,,,,,,,,,,,,,,0,,,49,33
484800,note_on,240,0,2,,,,,,,,,,,,,,,0,,,57,0
484800,set_tempo,240,1,0,,,,,,,,,,,,609137,,,,,,,
484800,note_on,0,0,1,,,,,,,,,,,,,,,0,,,76,54
484800,note_on,240,0,1,,,,,,,,,,,,,,,0,,,78,0
484800,note_on,0,0,1,,,,,,,,,,,,,,,0,,,64,54
484891,control_change,91,0,2,,,,,,,,,,,,,,,0,64,0,,
485040,note_on,0,0,2,,,,,,,,,,,,,,,0,,,56,29
485040,note_on,149,0,2,,,,,,,,,,,,,,,0,,,49,0
485040,note_on,240,0,1,,,,,,,,,,,,,,,0,,,76,0
485040,note_on,0,0,1,,,,,,,,,,,,,,,0,,,64,0
485051,control_change,11,0,2,,,,,,,,,,,,,,,0,64,127,,
485280,set_tempo,480,1,0,,,,,,,,,,,,621762,,,,,,,
485280,note_on,0,0,1,,,,,,,,,,,,,,,0,,,76,51
485280,note_on,240,0,1,,,,,,,,,,,,,,,0,,,64,51
485280,note_on,229,0,2,,,,,,,,,,,,,,,0,,,56,0
485280,note_on,0,0,2,,,,,,,,,,,,,,,0,,,52,33
485520,note_on,240,0,2,,,,,,,,,,,,,,,0,,,52,0
485520,note_on,0,0,2,,,,,,,,,,,,,,,0,,,56,30
485760,note_on,0,0,1,,,,,,,,,,,,,,,0,,,64,0
485760,note_on,0,0,1,,,,,,,,,,,,,,,0,,,62,54
485760,control_change,0,0,2,,,,,,,,,,,,,,,0,64,0,,
485760,set_tempo,480,1,0,,,,,,,,,,,,616776,,,,,,,
485760,note_on,240,0,2,,,,,,,,,,,,,,,0,,,56,0
485760,note_on,480,0,1,,,,,,,,,,,,,,,0,,,76,0
485760,note_on,0,0,1,,,,,,,,,,,,,,,0,,,74,54
485760,note_on,0,0,2,,,,,,,,,,,,,,,0,,,54,33
485915,control_change,155,0,2,,,,,,,,,,,,,,,0,64,127,,
486000,note_on,85,0,2,,,,,,,,,,,,,,,0,,,54,0
486000,note_on,0,0,2,,,,,,,,,,,,,,,0,,,57,30
486240,set_tempo,480,1,0,,,,,,,,,,,,633914,,,,,,,
486240,note_on,0,0,1,,,,,,,,,,,,,,,0,,,78,50
486240,note_on,0,0,1,,,,,,,,,,,,,,,0,,,66,50
486240,note_on,0,0,1,,,,,,,,,,,,,,,0,,,62,0
486240,note_on,480,0,1,,,,,,,,,,,,,,,0,,,74,0
486240,note_on,240,0,2,,,,,,,,,,,,,,,0,,,57,0
486240,note_on,0,0,2,,,,,,,,,,,,,,,0,,,54,34
486480,note_on,240,0,2,,,,,,,,,,,,,,,0,,,54,0
486480,note_on,0,0,2,,,,,,,,,,,,,,,0,,,57,30
486720,note_on,0,0,1,,,,,,,,,,,,,,,0,,,66,0
486720,note_on,480,0,1,,,,,,,,,,,,,,,0,,,78,0
486720,set_tempo,480,1,0,,,,,,,,,,,,620155,,,,,,,
486720,note_on,240,0,2,,,,,,,,,,,,,,,0,,,57,0
486720,note_on,0,0,2,,,,,,,,,,,,,,,0,,,44,35
486720,note_on,0,0,2,,,,,,,,,,,,,,,0,,,52,35
486720,note_on,0,0,1,,,,,,,,,,,,,,,0,,,61,54
486720,note_on,0,0,1,,,,,,,,,,,,,,,0,,,73,54
486791,control_change,71,0,2,,,,,,,,,,,,,,,0,64,0,,
486904,control_change,113,0,2,,,,,,,,,,,,,,,0,64,127,,
486960,note_on,56,0,2,,,,,,,,,,,,,,,0,,,52,0
486960,note_on,0,0,2,,,,,,,,,,,,,,,0,,,44,0
486960,note_on,0,0,2,,,,,,,,,,,,,,,0,,,56,31
487200,note_on,0,0,1,,,,,,,,,,,,,,,0,,,61,0
487200,note_on,0,0,1,,,,,,,,,,,,,,,0,,,60,52
487200,note_on,0,0,1,,,,,,,,,,,,,,,0,,,72,52
487200,set_tempo,480,1,0,,,,,,,,,,,,659631,,,,,,,
487200,note_on,240,0,2,,,,,,,,,,,,,,,0,,,56,0
487200,note_on,0,0,2,,,,,,,,,,,,,,,0,,,44,35
487200,note_on,0,0,2,,,,,,,,,,,,,,,0,,,51,35
487200,note_on,480,0,1,,,,,,,,,,,,,,,0,,,73,0
487440,note_on,0,0,2,,,,,,,,,,,,,,,0,,,56,33
487440,note_on,240,0,2,,,,,,,,,,,,,,,0,,,51,0
487440,note_on,0,0,2,,,,,,,,,,,,,,,0,,,44,0
487680,note_on,0,0,1,,,,,,,,,,,,,,,0,,,62,62
487680,note_on,0,0,2,,,,,,,,,,,,,,,0,,,50,39
487680,note_on,0,0,2,,,,,,,,,,,,,,,0,,,42,39
487680,note_on,0,0,1,,,,,,,,,,,,,,,0,,,74,62
487680,note_on,480,0,1,,,,,,,,,,,,,,,0,,,72,0
487680,note_on,0,0,1,,,,,,,,,,,,,,,0,,,60,0
487680,note_on,240,0,2,,,,,,,,,,,,,,,0,,,56,0
487680,set_tempo,480,1,0,,,,,,,,,,,,626894,,,,,,,
487703,control_change,23,0,2,,,,,,,,,,,,,,,0,64,0,,
487794,control_change,91,0,2,,,,,,,,,,,,,,,0,64,127,,
487920,note_on,126,0,2,,,,,,,,,,,,,,,0,,,50,0
487920,note_on,0,0,2,,,,,,,,,,,,,,,0,,,42,0
487920,note_on,0,0,2,,,,,,,,,,,,,,,0,,,57,29
487920,set_tempo,240,1,0,,,,,,,,,,,,588235,,,,,,,
488160,note_on,240,0,2,,,,,,,,,,,,,,,0,,,57,0
488160,note_on,0,0,2,,,,,,,,,,,,,,,0,,,54,35
488160,set_tempo,240,1,0,,,,,,,,,,,,616776,,,,,,,
488400,set_tempo,240,1,0,,,,,,,,,,,,582524,,,,,,,
488400,note_on,240,0,2,,,,,,,,,,,,,,,0,,,54,0
488400,note_on,0,0,2,,,,,,,,,,,,,,,0,,,57,31
488640,note_on,0,0,2,,,,,,,,,,,,,,,0,,,54,36
488640,set_tempo,240,1,0,,,,,,,,,,,,616776,,,,,,,
488640,note_on,240,0,2,,,,,,,,,,,,,,,0,,,57,0
488880,note_on,0,0,2,,,,,,,,,,,,,,,0,,,57,33
488880,note_on,240,0,2,,,,,,,,,,,,,,,0,,,54,0
489109,control_change,229,0,2,,,,,,,,,,,,,,,0,64,0,,
489120,set_tempo,480,1,0,,,,,,,,,,,,610190,,,,,,,
489120,note_on,0,0,2,,,,,,,,,,,,,,,0,,,50,31
489120,note_on,11,0,2,,,,,,,,,,,,,,,0,,,57,0
489120,note_on,0,0,1,,,,,,,,,,,,,,,0,,,64,54
489120,note_on,1440,0,1,,,,,,,,,,,,,,,0,,,74,0
489120,note_on,0,0,1,,,,,,,,,,,,,,,0,,,62,0
489120,note_on,0,0,1,,,,,,,,,,,,,,,0,,,76,54
489200,control_change,80,0,2,,,,,,,,,,,,,,,0,64,127,,
489360,note_on,0,0,1,,,,,,,,,,,,,,,0,,,78,49
489360,note_on,0,0,1,,,,,,,,,,,,,,,0,,,66,49
489360,note_on,0,0,1,,,,,,,,,,,,,,,0,,,64,0
489360,note_on,240,0,1,,,,,,,,,,,,,,,0,,,76,0
489360,note_on,160,0,2,,,,,,,,,,,,,,,0,,,50,0
489360,note_on,0,0,2,,,,,,,,,,,,,,,0,,,57,27
489360,set_tempo,240,1,0,,,,,,,,,,,,637416,,,,,,,
489600,note_on,240,0,2,,,,,,,,,,,,,,,0,,,57,0
489600,note_on,0,0,1,,,,,,,,,,,,,,,0,,,66,0
489600,note_on,0,0,1,,,,,,,,,,,,,,,0,,,68,57
489600,note_on,0,0,1,,,,,,,,,,,,,,,0,,,80,57
489600,control_change,0,0,2,,,,,,,,,,,,,,,0,64,0,,
489600,note_on,240,0,1,,,,,,,,,,,,,,,0,,,78,0
489600,note_on,0,0,2,,,,,,,,,,,,,,,0,,,52,33
489600,set_tempo,240,1,0,,,,,,,,,,,,623506,,,,,,,
489713,control_change,113,0,2,,,,,,,,,,,,,,,0,64,127,,
489840,note_on,0,0,2,,,,,,,,,,,,,,,0,,,56,28
489840,note_on,127,0,2,,,,,,,,,,,,,,,0,,,52,0
490080,note_on,480,0,1,,,,,,,,,,,,,,,0,,,80,0
490080,note_on,0,0,1,,,,,,,,,,,,,,,0,,,68,0
490080,note_on,0,0,1,,,,,,,,,,,,,,,0,,,69,55
490080,note_on,0,0,1,,,,,,,,,,,,,,,0,,,81,55
490080,note_on,0,0,2,,,,,,,,,,,,,,,0,,,54,33
490080,note_on,240,0,2,,,,,,,,,,,,,,,0,,,56,0
490080,set_tempo,480,1,0,,,,,,,,,,,,637416,,,,,,,
490320,note_on,0,0,2,,,,,,,,,,,,,,,0,,,56,28
490320,note_on,240,0,2,,,,,,,,,,,,,,,0,,,54,0
490546,control_change,226,0,2,,,,,,,,,,,,,,,0,64,0,,
490560,note_on,480,0,1,,,,,,,,,,,,,,,0,,,81,0
490560,note_on,0,0,1,,,,,,,,,,,,,,,0,,,69,0
490560,note_on,0,0,2,,,,,,,,,,,,,,,0,,,44,33
490560,note_on,0,0,1,,,,,,,,,,,,,,,0,,,73,54
490560,note_on,0,0,2,,,,,,,,,,,,,,,0,,,52,33
490560,note_on,0,0,1,,,,,,,,,,,,,,,0,,,61,54
490560,note_on,14,0,2,,,,,,,,,,,,,,,0,,,56,0
490687,control_change,127,0,2,,,,,,,,,,,,,,,0,64,127,,
490800,note_on,0,0,2,,,,,,,,,,,,,,,0,,,56,28
490800,note_on,0,0,2,,,,,,,,,,,,,,,0,,,44,0
490800,note_on,113,0,2,,,,,,,,,,,,,,,0,,,52,0
491040,note_on,0,0,1,,,,,,,,,,,,,,,0,,,72,52
491040,note_on,0,0,1,,,,,,,,,,,,,,,0,,,60,52
491040,note_on,0,0,1,,,,,,,,,,,,,,,0,,,61,0
491040,note_on,240,0,2,,,,,,,,,,,,,,,0,,,56,0
491040,note_on,0,0,2,,,,,,,,,,,,,,,0,,,44,33
491040,note_on,0,0,2,,,,,,,,,,,,,,,0,,,54,33
491040,note_on,480,0,1,,,,,,,,,,,,,,,0,,,73,0
491280,note_on,240,0,2,,,,,,,,,,,,,,,0,,,54,0
491280,note_on,0,0,2,,,,,,,,,,,,,,,0,,,44,0
491280,note_on,0,0,2,,,,,,,,,,,,,,,0,,,56,29
491520,note_on,0,0,2,,,,,,,,,,,,,,,0,,,52,32
491520,note_on,0,0,2,,,,,,,,,,,,,,,0,,,45,32
491520,note_on,0,0,2,,,,,,,,,,,,,,,0,,,57,38
491520,note_on,240,0,2,,,,,,,,,,,,,,,0,,,56,0
491520,control_change,0,0,2,,,,,,,,,,,,,,,0,64,0,,
491520,control_change,0,0,2,,,,,,,,,,,,,,,0,64,0,,
491520,note_on,480,0,1,,,,,,,,,,,,,,,0,,,72,0
491520,note_on,0,0,1,,,,,,,,,,,,,,,0,,,60,0
491520,note_on,0,0,1,,,,,,,,,,,,,,,0,,,73,60
491520,set_tempo,1440,1,0,,,,,,,,,,,,638434,,,,,,,
491580,control_change,60,0,2,,,,,,,,,,,,,,,0,64,127,,
491680,note_on,0,0,1,,,,,,,,,,,,,,,0,,,85,49
491680,note_on,160,0,1,,,,,,,,,,,,,,,0,,,73,0
491760,set_tempo,240,1,0,,,,,,,,,,,,587487,,,,,,,
491764,control_change,184,0,2,,,,,,,,,,,,,,,0,64,0,,
491840,note_on,0,0,1,,,,,,,,,,,,,,,0,,,81,49
491840,note_on,160,0,1,,,,,,,,,,,,,,,0,,,85,0
491920,note_on,80,0,1,,,,,,,,,,,,,,,0,,,81,0
492000,note_on,80,0,1,,,,,,,,,,,,,,,0,,,76,53
492000,set_tempo,240,1,0,,,,,,,,,,,,584397,,,,,,,
492080,note_on,80,0,1,,,,,,,,,,,,,,,0,,,76,0
492160,note_on,80,0,1,,,,,,,,,,,,,,,0,,,73,48
492240,note_on,80,0,1,,,,,,,,,,,,,,,0,,,73,0
492320,note_on,80,0,1,,,,,,,,,,,,,,,0,,,69,46
492400,note_on,80,0,1,,,,,,,,,,,,,,,0,,,69,0
492480,set_tempo,480,1,0,,,,,,,,,,,,593883,,,,,,,
492480,control_change,0,0,2,,,,,,,,,,,,,,,0,64,127,,
492480,note_on,0,0,2,,,,,,,,,,,,,,,0,,,49,35
492480,note_on,0,0,2,,,,,,,,,,,,,,,0,,,45,0
492480,note_on,0,0,2,,,,,,,,,,,,,,,0,,,52,0
492480,note_on,716,0,2,,,,,,,,,,,,,,,0,,,57,0
492480,note_on,80,0,1,,,,,,,,,,,,,,,0,,,64,51
492640,note_on,0,0,1,,,,,,,,,,,,,,,0,,,61,46
492640,note_on,160,0,1,,,,,,,,,,,,,,,0,,,64,0
492720,note_on,240,0,2,,,,,,,,,,,,,,,0,,,49,0
492800,note_on,160,0,1,,,,,,,,,,,,,,,0,,,61,0
492800,note_on,0,0,1,,,,,,,,,,,,,,,0,,,57,46
492960,note_on,240,0,2,,,,,,,,,,,,,,,0,,,52,35
492960,note_on,160,0,1,,,,,,,,,,,,,,,0,,,57,0
492960,note_on,0,0,1,,,,,,,,,,,,,,,0,,,61,53
492960,set_tempo,480,1,0,,,,,,,,,,,,610252,,,,,,,
493120,note_on,160,0,1,,,,,,,,,,,,,,,0,,,61,0
493120,note_on,0,0,1,,,,,,,,,,,,,,,0,,,64,50
493200,note_on,240,0,2,,,,,,,,,,,,,,,0,,,52,0
493280,note_on,160,0,1,,,,,,,,,,,,,,,0,,,64,0
493280,note_on,0,0,1,,,,,,,,,,,,,,,0,,,69,50
493440,set_tempo,480,1,0,,,,,,,,,,,,603622,,,,,,,
493440,control_change,0,0,2,,,,,,,,,,,,,,,0,64,0,,
493440,note_on,160,0,1,,,,,,,,,,,,,,,0,,,69,0
493440,control_change,0,0,2,,,,,,,,,,,,,,,0,64,0,,
493440,note_on,0,0,2,,,,,,,,,,,,,,,0,,,45,32
493440,note_on,0,0,2,,,,,,,,,,,,,,,0,,,52,32
493440,note_on,0,0,2,,,,,,,,,,,,,,,0,,,57,38
493440,note_on,0,0,1,,,,,,,,,,,,,,,0,,,73,57
493440,control_change,240,0,2,,,,,,,,,,,,,,,0,64,0,,
493500,control_change,60,0,2,,,,,,,,,,,,,,,0,64,127,,
493600,note_on,160,0,1,,,,,,,,,,,,,,,0,,,73,0
493600,note_on,0,0,1,,,,,,,,,,,,,,,0,,,85,49
493680,set_tempo,240,1,0,,,,,,,,,,,,578258,,,,,,,
493684,control_change,184,0,2,,,,,,,,,,,,,,,0,64,0,,
493760,note_on,0,0,1,,,,,,,,,,,,,,,0,,,81,49
493760,note_on,160,0,1,,,,,,,,,,,,,,,0,,,85,0
493840,note_on,80,0,1,,,,,,,,,,,,,,,0,,,81,0
493920,note_on,80,0,1,,,,,,,,,,,,,,,0,,,76,53
493920,set_tempo,240,1,0,,,,,,,,,,,,584397,,,,,,,
494000,note_on,80,0,1,,,,,,,,,,,,,,,0,,,76,0
494080,note_on,80,0,1,,,,,,,,,,,,,,,0,,,73,48
494160,note_on,80,0,1,,,,,,,,,,,,,,,0,,,73,0
494240,note_on,80,0,1,,,,,,,,,,,,,,,0,,,69,46
494320,note_on,80,0,1,,,,,,,,,,,,,,,0,,,69,0
494400,note_on,716,0,2,,,,,,,,,,,,,,,0,,,57,0
494400,note_on,0,0,2,,,,,,,,,,,,,,,0,,,52,0
494400,note_on,0,0,2,,,,,,,,,,,,,,,0,,,45,0
494400,note_on,0,0,2,,,,,,,,,,,,,,,0,,,49,35
494400,set_tempo,480,1,0,,,,,,,,,,,,593883,,,,,,,
494400,control_change,0,0,2,,,,,,,,,,,,,,,0,64,127,,
494400,note_on,80,0,1,,,,,,,,,,,,,,,0,,,64,51
494560,note_on,0,0,1,,,,,,,,,,,,,,,0,,,61,46
494560,note_on,160,0,1,,,,,,,,,,,,,,,0,,,64,0
494640,note_on,240,0,2,,,,,,,,,,,,,,,0,,,49,0
494720,note_on,160,0,1,,,,,,,,,,,,,,,0,,,61,0
494720,note_on,0,0,1,,,,,,,,,,,,,,,0,,,57,46
494880,set_tempo,480,1,0,,,,,,,,,,,,610252,,,,,,,
494880,note_on,160,0,1,,,,,,,,,,,,,,,0,,,57,0
494880,note_on,0,0,1,,,,,,,,,,,,,,,0,,,61,53
494880,note_on,240,0,2,,,,,,,,,,,,,,,0,,,52,35
495040,note_on,160,0,1,,,,,,,,,,,,,,,0,,,61,0
495040,note_on,0,0,1,,,,,,,,,,,,,,,0,,,64,50
495120,note_on,240,0,2,,,,,,,,,,,,,,,0,,,52,0
495200,note_on,0,0,1,,,,,,,,,,,,,,,0,,,69,50
495200,note_on,160,0,1,,,,,,,,,,,,,,,0,,,64,0
495360,note_on,0,0,2,,,,,,,,,,,,,,,0,,,45,35
495360,note_on,160,0,1,,,,,,,,,,,,,,,0,,,69,0
495360,note_on,0,0,1,,,,,,,,,,,,,,,0,,,73,53
495360,control_change,240,0,2,,,,,,,,,,,,,,,0,64,0,,
495360,set_tempo,480,1,0,,,,,,,,,,,,595652,,,,,,,
495400,set_tempo,40,1,0,,,,,,,,,,,,602228,,,,,,,
495411,control_change,51,0,2,,,,,,,,,,,,,,,0,64,127,,
495520,note_on,160,0,1,,,,,,,,,,,,,,,0,,,73,0
495520,note_on,0,0,1,,,,,,,,,,,,,,,0,,,69,48
495600,note_on,189,0,2,,,,,,,,,,,,,,,0,,,45,0
495680,note_on,160,0,1,,,,,,,,,,,,,,,0,,,69,0
495680,note_on,0,0,1,,,,,,,,,,,,,,,0,,,64,48
495840,note_on,0,0,1,,,,,,,,,,,,,,,0,,,76,53
495840,note_on,240,0,2,,,,,,,,,,,,,,,0,,,52,28
495840,note_on,0,0,2,,,,,,,,,,,,,,,0,,,61,33
495840,note_on,160,0,1,,,,,,,,,,,,,,,0,,,64,0
495880,set_tempo,480,1,0,,,,,,,,,,,,589275,,,,,,,
496000,note_on,160,0,1,,,,,,,,,,,,,,,0,,,69,47
496160,note_on,0,0,1,,,,,,,,,,,,,,,0,,,64,45
496160,note_on,160,0,1,,,,,,,,,,,,,,,0,,,69,0
496160,set_tempo,280,1,0,,,,,,,,,,,,612182,,,,,,,
496320,note_on,480,0,2,,,,,,,,,,,,,,,0,,,61,0
496320,note_on,0,0,2,,,,,,,,,,,,,,,0,,,59,35
496320,note_on,160,0,1,,,,,,,,,,,,,,,0,,,64,0
496320,note_on,0,0,1,,,,,,,,,,,,,,,0,,,76,0
496320,note_on,0,0,1,,,,,,,,,,,,,,,0,,,77,55
496320,set_tempo,160,1,0,,,,,,,,,,,,595652,,,,,,,
496320,note_on,0,0,1,,,,,,,,,,,,,,,0,,,74,46
496331,control_change,11,0,2,,,,,,,,,,,,,,,0,64,0,,
496371,control_change,40,0,2,,,,,,,,,,,,,,,0,64,127,,
496480,note_on,0,0,1,,,,,,,,,,,,,,,0,,,68,42
496480,note_on,160,0,1,,,,,,,,,,,,,,,0,,,74,0
496640,note_on,160,0,1,,,,,,,,,,,,,,,0,,,68,0
496640,note_on,0,0,1,,,,,,,,,,,,,,,0,,,65,41
496800,note_on,160,0,1,,,,,,,,,,,,,,,0,,,65,0
496800,note_on,0,0,1,,,,,,,,,,,,,,,0,,,77,0
496800,note_on,0,0,1,,,,,,,,,,,,,,,0,,,76,55
496800,note_on,0,0,2,,,,,,,,,,,,,,,0,,,62,32
496800,note_on,429,0,2,,,,,,,,,,,,,,,0,,,59,0
496800,note_on,0,0,1,,,,,,,,,,,,,,,0,,,71,46
496834,control_change,34,0,2,,,,,,,,,,,,,,,0,64,0,,
496886,control_change,52,0,2,,,,,,,,,,,,,,,0,64,127,,
496960,note_on,160,0,1,,,,,,,,,,,,,,,0,,,71,0
496960,note_on,0,0,1,,,,,,,,,,,,,,,0,,,68,42
497120,note_on,160,0,1,,,,,,,,,,,,,,,0,,,68,0
497120,note_on,0,0,1,,,,,,,,,,,,,,,0,,,64,42
497280,note_on,394,0,2,,,,,,,,,,,,,,,0,,,62,0
497280,control_change,0,0,2,,,,,,,,,,,,,,,0,64,0,,
497280,note_on,0,0,2,,,,,,,,,,,,,,,0,,,52,0
497280,note_on,160,0,1,,,,,,,,,,,,,,,0,,,64,0
497280,set_tempo,960,1,0,,,,,,,,,,,,595652,,,,,,,
497280,note_on,0,0,2,,,,,,,,,,,,,,,0,,,45,35
497280,note_on,0,0,1,,,,,,,,,,,,,,,0,,,76,0
497280,note_on,0,0,1,,,,,,,,,,,,,,,0,,,73,53
497320,set_tempo,40,1,0,,,,,,,,,,,,602228,,,,,,,
497331,control_change,51,0,2,,,,,,,,,,,,,,,0,64,127,,
497440,note_on,160,0,1,,,,,,,,,,,,,,,0,,,69,48
497520,note_on,189,0,2,,,,,,,,,,,,,,,0,,,45,0
497600,note_on,0,0,1,,,,,,,,,,,,,,,0,,,64,48
497600,note_on,160,0,1,,,,,,,,,,,,,,,0,,,69,0
497760,note_on,0,0,1,,,,,,,,,,,,,,,0,,,73,0
497760,note_on,0,0,2,,,,,,,,,,,,,,,0,,,61,33
497760,note_on,0,0,1,,,,,,,,,,,,,,,0,,,76,53
497760,note_on,160,0,1,,,,,,,,,,,,,,,0,,,64,0
497760,note_on,240,0,2,,,,,,,,,,,,,,,0,,,52,28
497800,set_tempo,480,1,0,,,,,,,,,,,,589275,,,,,,,
497920,note_on,160,0,1,,,,,,,,,,,,,,,0,,,69,47
498080,set_tempo,280,1,0,,,,,,,,,,,,612182,,,,,,,
498080,note_on,160,0,1,,,,,,,,,,,,,,,0,,,69,0
498080,note_on,0,0,1,,,,,,,,,,,,,,,0,,,64,45
498240,note_on,0,0,2,,,,,,,,,,,,,,,0,,,59,35
498240,note_on,480,0,2,,,,,,,,,,,,,,,0,,,61,0
498240,note_on,0,0,1,,,,,,,,,,,,,,,0,,,77,55
498240,set_tempo,160,1,0,,,,,,,,,,,,595652,,,,,,,
498240,note_on,0,0,1,,,,,,,,,,,,,,,0,,,76,0
498240,note_on,160,0,1,,,,,,,,,,,,,,,0,,,64,0
498240,note_on,0,0,1,,,,,,,,,,,,,,,0,,,74,46
498251,control_change,11,0,2,,,,,,,,,,,,,,,0,64,0,,
498291,control_change,40,0,2,,,,,,,,,,,,,,,0,64,127,,
498400,note_on,160,0,1,,,,,,,,,,,,,,,0,,,74,0
498400,note_on,0,0,1,,,,,,,,,,,,,,,0,,,68,42
498560,note_on,0,0,1,,,,,,,,,,,,,,,0,,,65,41
498560,note_on,160,0,1,,,,,,,,,,,,,,,0,,,68,0
498720,note_on,429,0,2,,,,,,,,,,,,,,,0,,,59,0
498720,note_on,160,0,1,,,,,,,,,,,,,,,0,,,65,0
498720,note_on,0,0,1,,,,,,,,,,,,,,,0,,,77,0
498720,note_on,0,0,1,,,,,,,,,,,,,,,0,,,76,55
498720,note_on,0,0,1,,,,,,,,,,,,,,,0,,,71,46
498720,note_on,0,0,2,,,,,,,,,,,,,,,0,,,62,32
498754,control_change,34,0,2,,,,,,,,,,,,,,,0,64,0,,
498806,control_change,52,0,2,,,,,,,,,,,,,,,0,64,127,,
498880,note_on,160,0,1,,,,,,,,,,,,,,,0,,,71,0
498880,note_on,0,0,1,,,,,,,,,,,,,,,0,,,68,42
499040,note_on,0,0,1,,,,,,,,,,,,,,,0,,,64,42
499040,note_on,160,0,1,,,,,,,,,,,,,,,0,,,68,0
499200,control_change,0,0,2,,,,,,,,,,,,,,,0,64,0,,
499200,control_change,0,0,2,,,,,,,,,,,,,,,0,64,0,,
499200,note_on,0,0,2,,,,,,,,,,,,,,,0,,,45,38
499200,set_tempo,960,1,0,,,,,,,,,,,,589912,,,,,,,
499200,note_on,0,0,2,,,,,,,,,,,,,,,0,,,57,45
499200,note_on,160,0,1,,,,,,,,,,,,,,,0,,,64,0
499200,note_on,0,0,1,,,,,,,,,,,,,,,0,,,76,0
499200,note_on,0,0,1,,,,,,,,,,,,,,,0,,,73,77
499200,note_on,0,0,2,,,,,,,,,,,,,,,0,,,52,0
499200,note_on,394,0,2,,,,,,,,,,,,,,,0,,,62,0
499200,note_on,0,0,2,,,,,,,,,,,,,,,0,,,52,38
499260,control_change,60,0,2,,,,,,,,,,,,,,,0,64,127,,
499360,note_on,160,0,1,,,,,,,,,,,,,,,0,,,73,0
499360,note_on,0,0,1,,,,,,,,,,,,,,,0,,,85,68
499440,set_tempo,240,1,0,,,,,,,,,,,,586682,,,,,,,
499444,control_change,184,0,2,,,,,,,,,,,,,,,0,64,0,,
499520,note_on,0,0,1,,,,,,,,,,,,,,,0,,,81,58
499520,note_on,160,0,1,,,,,,,,,,,,,,,0,,,85,0
499600,note_on,80,0,1,,,,,,,,,,,,,,,0,,,81,0
499680,note_on,80,0,1,,,,,,,,,,,,,,,0,,,76,63
499680,set_tempo,240,1,0,,,,,,,,,,,,583658,,,,,,,
499760,note_on,80,0,1,,,,,,,,,,,,,,,0,,,76,0
499840,note_on,80,0,1,,,,,,,,,,,,,,,0,,,73,57
499920,note_on,80,0,1,,,,,,,,,,,,,,,0,,,73,0
500000,note_on,80,0,1,,,,,,,,,,,,,,,0,,,69,55
500080,note_on,80,0,1,,,,,,,,,,,,,,,0,,,69,0
500160,note_on,0,0,2,,,,,,,,,,,,,,,0,,,52,0
500160,note_on,0,0,2,,,,,,,,,,,,,,,0,,,45,0
500160,note_on,0,0,2,,,,,,,,,,,,,,,0,,,49,37
500160,control_change,0,0,2,,,,,,,,,,,,,,,0,64,127,,
500160,note_on,80,0,1,,,,,,,,,,,,,,,0,,,64,61
500160,set_tempo,480,1,0,,,,,,,,,,,,593061,,,,,,,
500160,note_on,716,0,2,,,,,,,,,,,,,,,0,,,57,0
500320,note_on,0,0,1,,,,,,,,,,,,,,,0,,,61,55
500320,note_on,160,0,1,,,,,,,,,,,,,,,0,,,64,0
500400,note_on,240,0,2,,,,,,,,,,,,,,,0,,,49,0
500480,note_on,0,0,1,,,,,,,,,,,,,,,0,,,57,55
500480,note_on,160,0,1,,,,,,,,,,,,,,,0,,,61,0
500640,note_on,0,0,1,,,,,,,,,,,,,,,0,,,61,63
500640,note_on,160,0,1,,,,,,,,,,,,,,,0,,,57,0
500640,note_on,240,0,2,,,,,,,,,,,,,,,0,,,52,37
500640,set_tempo,480,1,0,,,,,,,,,,,,609385,,,,,,,
500800,note_on,160,0,1,,,,,,,,,,,,,,,0,,,61,0
500800,note_on,0,0,1,,,,,,,,,,,,,,,0,,,64,56
500880,note_on,240,0,2,,,,,,,,,,,,,,,0,,,52,0
500960,note_on,160,0,1,,,,,,,,,,,,,,,0,,,64,0
500960,note_on,0,0,1,,,,,,,,,,,,,,,0,,,69,57
501120,control_change,0,0,2,,,,,,,,,,,,,,,0,64,0,,
501120,set_tempo,480,1,0,,,,,,,,,,,,589912,,,,,,,
501120,note_on,240,0,2,,,,,,,,,,,,,,,0,,,46,37
501120,note_on,160,0,1,,,,,,,,,,,,,,,0,,,69,0
501120,note_on,0,0,1,,,,,,,,,,,,,,,0,,,73,59
501177,control_change,57,0,2,,,,,,,,,,,,,,,0,64,127,,
501280,note_on,0,0,1,,,,,,,,,,,,,,,0,,,67,56
501280,note_on,160,0,1,,,,,,,,,,,,,,,0,,,73,0
501360,note_on,183,0,2,,,,,,,,,,,,,,,0,,,46,0
501440,note_on,160,0,1,,,,,,,,,,,,,,,0,,,67,0
501440,note_on,0,0,1,,,,,,,,,,,,,,,0,,,64,56
501600,note_on,160,0,1,,,,,,,,,,,,,,,0,,,64,0
501600,note_on,0,0,1,,,,,,,,,,,,,,,0,,,76,63
501600,note_on,240,0,2,,,,,,,,,,,,,,,0,,,49,37
501600,set_tempo,480,1,0,,,,,,,,,,,,593061,,,,,,,
501606,control_change,6,0,2,,,,,,,,,,,,,,,0,64,0,,
501651,control_change,45,0,2,,,,,,,,,,,,,,,0,64,127,,
501760,note_on,160,0,1,,,,,,,,,,,,,,,0,,,76,0
501760,note_on,0,0,1,,,,,,,,,,,,,,,0,,,70,58
501840,note_on,189,0,2,,,,,,,,,,,,,,,0,,,49,0
501920,note_on,160,0,1,,,,,,,,,,,,,,,0,,,70,0
501920,note_on,0,0,1,,,,,,,,,,,,,,,0,,,67,58
502069,control_change,229,0,2,,,,,,,,,,,,,,,0,64,0,,
502080,note_on,11,0,2,,,,,,,,,,,,,,,0,,,43,42
502080,note_on,0,0,1,,,,,,,,,,,,,,,0,,,82,66
502080,note_on,160,0,1,,,,,,,,,,,,,,,0,,,67,0
502131,control_change,51,0,2,,,,,,,,,,,,,,,0,64,127,,
502240,note_on,160,0,1,,,,,,,,,,,,,,,0,,,82,0
502240,note_on,0,0,1,,,,,,,,,,,,,,,0,,,76,58
502320,note_on,189,0,2,,,,,,,,,,,,,,,0,,,43,0
502400,note_on,0,0,1,,,,,,,,,,,,,,,0,,,73,60
502400,note_on,160,0,1,,,,,,,,,,,,,,,0,,,76,0
502560,note_on,160,0,1,,,,,,,,,,,,,,,0,,,73,0
502560,note_on,0,0,1,,,,,,,,,,,,,,,0,,,79,63
502560,note_on,240,0,2,,,,,,,,,,,,,,,0,,,51,37
502577,control_change,17,0,2,,,,,,,,,,,,,,,0,64,0,,
502629,control_change,52,0,2,,,,,,,,,,,,,,,0,64,127,,
502720,note_on,160,0,1,,,,,,,,,,,,,,,0,,,79,0
502720,note_on,0,0,1,,,,,,,,,,,,,,,0,,,75,58
502800,note_on,171,0,2,,,,,,,,,,,,,,,0,,,51,0
502880,note_on,160,0,1,,,,,,,,,,,,,,,0,,,75,0
502880,note_on,0,0,1,,,,,,,,,,,,,,,0,,,73,58
503040,set_tempo,1440,1,0,,,,,,,,,,,,638434,,,,,,,
503040,note_on,160,0,1,,,,,,,,,,,,,,,0,,,73,0
503040,control_change,0,0,2,,,,,,,,,,,,,,,0,64,0,,
503040,note_on,0,0,1,,,,,,,,,,,,,,,0,,,71,69
503040,note_on,0,0,2,,,,,,,,,,,,,,,0,,,56,38
503040,note_on,0,0,2,,,,,,,,,,,,,,,0,,,51,32
503040,note_on,0,0,2,,,,,,,,,,,,,,,0,,,44,32
503040,control_change,0,0,2,,,,,,,,,,,,,,,0,64,0,,
503040,control_change,240,0,2,,,,,,,,,,,,,,,0,64,0,,
503100,control_change,60,0,2,,,,,,,,,,,,,,,0,64,127,,
503200,note_on,160,0,1,,,,,,,,,,,,,,,0,,,71,0
503200,note_on,0,0,1,,,,,,,,,,,,,,,0,,,83,49
503280,set_tempo,240,1,0,,,,,,,,,,,,587487,,,,,,,
503284,control_change,184,0,2,,,,,,,,,,,,,,,0,64,0,,
503360,note_on,0,0,1,,,,,,,,,,,,,,,0,,,80,49
503360,note_on,160,0,1,,,,,,,,,,,,,,,0,,,83,0
503440,note_on,80,0,1,,,,,,,,,,,,,,,0,,,80,0
503520,set_tempo,240,1,0,,,,,,,,,,,,584397,,,,,,,
503520,note_on,80,0,1,,,,,,,,,,,,,,,0,,,75,53
503600,note_on,80,0,1,,,,,,,,,,,,,,,0,,,75,0
503680,note_on,80,0,1,,,,,,,,,,,,,,,0,,,71,48
503760,note_on,80,0,1,,,,,,,,,,,,,,,0,,,71,0
503840,note_on,80,0,1,,,,,,,,,,,,,,,0,,,68,46
503920,note_on,80,0,1,,,,,,,,,,,,,,,0,,,68,0
504000,note_on,0,0,2,,,,,,,,,,,,,,,0,,,47,35
504000,set_tempo,480,1,0,,,,,,,,,,,,593883,,,,,,,
504000,note_on,0,0,2,,,,,,,,,,,,,,,0,,,44,0
504000,note_on,80,0,1,,,,,,,,,,,,,,,0,,,63,51
504000,control_change,0,0,2,,,,,,,,,,,,,,,0,64,127,,
504000,note_on,0,0,2,,,,,,,,,,,,,,,0,,,51,0
504000,note_on,716,0,2,,,,,,,,,,,,,,,0,,,56,0
504160,note_on,160,0,1,,,,,,,,,,,,,,,0,,,63,0
504160,note_on,0,0,1,,,,,,,,,,,,,,,0,,,59,46
504240,note_on,240,0,2,,,,,,,,,,,,,,,0,,,47,0
504320,note_on,0,0,1,,,,,,,,,,,,,,,0,,,56,46
504320,note_on,160,0,1,,,,,,,,,,,,,,,0,,,59,0
504480,set_tempo,480,1,0,,,,,,,,,,,,610252,,,,,,,
504480,note_on,240,0,2,,,,,,,,,,,,,,,0,,,51,35
504480,note_on,0,0,1,,,,,,,,,,,,,,,0,,,59,53
504480,note_on,160,0,1,,,,,,,,,,,,,,,0,,,56,0
504640,note_on,0,0,1,,,,,,,,,,,,,,,0,,,63,50
504640,note_on,160,0,1,,,,,,,,,,,,,,,0,,,59,0
504720,note_on,240,0,2,,,,,,,,,,,,,,,0,,,51,0
504800,note_on,0,0,1,,,,,,,,,,,,,,,0,,,68,50
504800,note_on,160,0,1,,,,,,,,,,,,,,,0,,,63,0
504960,note_on,160,0,1,,,,,,,,,,,,,,,0,,,68,0
504960,control_change,0,0,2,,,,,,,,,,,,,,,0,64,0,,
504960,set_tempo,480,1,0,,,,,,,,,,,,603622,,,,,,,
504960,note_on,0,0,1,,,,,,,,,,,,,,,0,,,71,67
504960,note_on,0,0,2,,,,,,,,,,,,,,,0,,,56,38
504960,note_on,0,0,2,,,,,,,,,,,,,,,0,,,51,32
504960,note_on,0,0,2,,,,,,,,,,,,,,,0,,,44,32
504960,control_change,0,0,2,,,,,,,,,,,,,,,0,64,0,,
504960,control_change,240,0,2,,,,,,,,,,,,,,,0,64,0,,
505020,control_change,60,0,2,,,,,,,,,,,,,,,0,64,127,,
505120,note_on,160,0,1,,,,,,,,,,,,,,,0,,,71,0
505120,note_on,0,0,1,,,,,,,,,,,,,,,0,,,83,49
505200,set_tempo,240,1,0,,,,,,,,,,,,578258,,,,,,,
505204,control_change,184,0,2,,,,,,,,,,,,,,,0,64,0,,
505280,note_on,160,0,1,,,,,,,,,,,,,,,0,,,83,0
505280,note_on,0,0,1,,,,,,,,,,,,,,,0,,,80,49
505360,note_on,80,0,1,,,,,,,,,,,,,,,0,,,80,0
505440,set_tempo,240,1,0,,,,,,,,,,,,584397,,,,,,,
505440,note_on,80,0,1,,,,,,,,,,,,,,,0,,,75,53
505520,note_on,80,0,1,,,,,,,,,,,,,,,0,,,75,0
505600,note_on,80,0,1,,,,,,,,,,,,,,,0,,,71,48
505680,note_on,80,0,1,,,,,,,,,,,,,,,0,,,71,0
505760,note_on,80,0,1,,,,,,,,,,,,,,,0,,,68,46
505840,note_on,80,0,1,,,,,,,,,,,,,,,0,,,68,0
505920,note_on,80,0,1,,,,,,,,,,,,,,,0,,,63,51
505920,set_tempo,480,1,0,,,,,,,,,,,,593883,,,,,,,
505920,note_on,716,0,2,,,,,,,,,,,,,,,0,,,56,0
505920,note_on,0,0,2,,,,,,,,,,,,,,,0,,,51,0
505920,note_on,0,0,2,,,,,,,,,,,,,,,0,,,44,0
505920,control_change,0,0,2,,,,,,,,,,,,,,,0,64,127,,
505920,note_on,0,0,2,,,,,,,,,,,,,,,0,,,47,35
506080,note_on,0,0,1,,,,,,,,,,,,,,,0,,,59,46
506080,note_on,160,0,1,,,,,,,,,,,,,,,0,,,63,0
506160,note_on,240,0,2,,,,,,,,,,,,,,,0,,,47,0
506240,note_on,0,0,1,,,,,,,,,,,,,,,0,,,56,46
506240,note_on,160,0,1,,,,,,,,,,,,,,,0,,,59,0
506400,set_tempo,480,1,0,,,,,,,,,,,,610252,,,,,,,
506400,note_on,0,0,1,,,,,,,,,,,,,,,0,,,59,53
506400,note_on,160,0,1,,,,,,,,,,,,,,,0,,,56,0
506400,note_on,240,0,2,,,,,,,,,,,,,,,0,,,51,35
506560,note_on,0,0,1,,,,,,,,,,,,,,,0,,,63,50
506560,note_on,160,0,1,,,,,,,,,,,,,,,0,,,59,0
506640,note_on,240,0,2,,,,,,,,,,,,,,,0,,,51,0
506720,note_on,0,0,1,,,,,,,,,,,,,,,0,,,68,50
506720,note_on,160,0,1,,,,,,,,,,,,,,,0,,,63,0
506880,note_on,160,0,1,,,,,,,,,,,,,,,0,,,68,0
506880,set_tempo,480,1,0,,,,,,,,,,,,610190,,,,,,,
506880,note_on,0,0,1,,,,,,,,,,,,,,,0,,,71,55
506880,control_change,240,0,2,,,,,,,,,,,,,,,0,64,0,,
506880,note_on,0,0,2,,,,,,,,,,,,,,,0,,,44,36
506943,control_change,63,0,2,,,,,,,,,,,,,,,0,64,127,,
507040,note_on,0,0,1,,,,,,,,,,,,,,,0,,,68,52
507040,note_on,160,0,1,,,,,,,,,,,,,,,0,,,71,0
507080,set_tempo,200,1,0,,,,,,,,,,,,606919,,,,,,,
507120,note_on,177,0,2,,,,,,,,,,,,,,,0,,,44,0
507200,note_on,0,0,1,,,,,,,,,,,,,,,0,,,63,52
507200,note_on,160,0,1,,,,,,,,,,,,,,,0,,,68,0
507280,set_tempo,200,1,0,,,,,,,,,,,,603743,,,,,,,
507360,note_on,240,0,2,,,,,,,,,,,,,,,0,,,47,40
507360,note_on,160,0,1,,,,,,,,,,,,,,,0,,,63,0
507360,note_on,0,0,1,,,,,,,,,,,,,,,0,,,75,60
507440,set_tempo,160,1,0,,,,,,,,,,,,600540,,,,,,,
507520,note_on,0,0,1,,,,,,,,,,,,,,,0,,,71,56
507520,note_on,160,0,1,,,,,,,,,,,,,,,0,,,75,0
507600,note_on,240,0,2,,,,,,,,,,,,,,,0,,,47,0
507640,set_tempo,200,1,0,,,,,,,,,,,,597372,,,,,,,
507680,note_on,0,0,1,,,,,,,,,,,,,,,0,,,68,56
507680,note_on,160,0,1,,,,,,,,,,,,,,,0,,,71,0
507800,set_tempo,160,1,0,,,,,,,,,,,,594295,,,,,,,
507840,note_on,160,0,1,,,,,,,,,,,,,,,0,,,68,0
507840,note_on,240,0,2,,,,,,,,,,,,,,,0,,,41,44
507840,note_on,0,0,1,,,,,,,,,,,,,,,0,,,80,65
507857,control_change,17,0,2,,,,,,,,,,,,,,,0,64,0,,
507920,control_change,63,0,2,,,,,,,,,,,,,,,0,64,127,,
508000,set_tempo,200,1,0,,,,,,,,,,,,597372,,,,,,,
508000,note_on,0,0,1,,,,,,,,,,,,,,,0,,,74,59
508000,note_on,160,0,1,,,,,,,,,,,,,,,0,,,80,0
508080,note_on,160,0,2,,,,,,,,,,,,,,,0,,,41,0
508160,note_on,0,0,1,,,,,,,,,,,,,,,0,,,71,59
508160,note_on,160,0,1,,,,,,,,,,,,,,,0,,,74,0
508200,set_tempo,200,1,0,,,,,,,,,,,,600540,,,,,,,
508320,note_on,0,0,1,,,,,,,,,,,,,,,0,,,82,70
508320,note_on,160,0,1,,,,,,,,,,,,,,,0,,,71,0
508320,note_on,0,0,1,,,,,,,,,,,,,,,0,,,78,70
508320,note_on,240,0,2,,,,,,,,,,,,,,,0,,,42,48
508349,control_change,29,0,2,,,,,,,,,,,,,,,0,64,0,,
508360,set_tempo,160,1,0,,,,,,,,,,,,603743,,,,,,,
508400,control_change,51,0,2,,,,,,,,,,,,,,,0,64,127,,
508480,note_on,0,0,1,,,,,,,,,,,,,,,0,,,76,63
508480,note_on,160,0,1,,,,,,,,,,,,,,,0,,,78,0
508480,note_on,0,0,1,,,,,,,,,,,,,,,0,,,82,0
508560,set_tempo,200,1,0,,,,,,,,,,,,606919,,,,,,,
508560,note_on,160,0,2,,,,,,,,,,,,,,,0,,,42,0
508640,note_on,160,0,1,,,,,,,,,,,,,,,0,,,76,0
508640,note_on,0,0,1,,,,,,,,,,,,,,,0,,,73,63
508720,set_tempo,160,1,0,,,,,,,,,,,,610190,,,,,,,
508800,note_on,0,0,2,,,,,,,,,,,,,,,0,,,42,47
508800,control_change,240,0,2,,,,,,,,,,,,,,,0,64,0,,
508800,control_change,0,0,2,,,,,,,,,,,,,,,0,64,0,,
508800,control_change,0,0,2,,,,,,,,,,,,,,,0,64,0,,
508800,control_change,0,0,2,,,,,,,,,,,,,,,0,64,0,,
508800,note_on,0,0,2,,,,,,,,,,,,,,,0,,,35,47
508800,note_on,0,0,1,,,,,,,,,,,,,,,0,,,75,86
508800,note_on,0,0,2,,,,,,,,,,,,,,,0,,,47,56
508800,set_tempo,80,1,0,,,,,,,,,,,,603622,,,,,,,
508800,note_on,160,0,1,,,,,,,,,,,,,,,0,,,73,0
508860,control_change,60,0,2,,,,,,,,,,,,,,,0,64,127,,
508960,note_on,0,0,1,,,,,,,,,,,,,,,0,,,87,78
508960,note_on,160,0,1,,,,,,,,,,,,,,,0,,,75,0
509040,set_tempo,240,1,0,,,,,,,,,,,,578258,,,,,,,
509120,note_on,0,0,1,,,,,,,,,,,,,,,0,,,83,57
509120,note_on,160,0,1,,,,,,,,,,,,,,,0,,,87,0
509280,note_on,160,0,1,,,,,,,,,,,,,,,0,,,83,0
509280,note_on,0,0,1,,,,,,,,,,,,,,,0,,,78,65
509280,set_tempo,240,1,0,,,,,,,,,,,,584397,,,,,,,
509440,note_on,160,0,1,,,,,,,,,,,,,,,0,,,78,0
509440,note_on,0,0,1,,,,,,,,,,,,,,,0,,,75,56
509600,note_on,160,0,1,,,,,,,,,,,,,,,0,,,75,0
509600,note_on,0,0,1,,,,,,,,,,,,,,,0,,,71,50
509760,note_on,0,0,1,,,,,,,,,,,,,,,0,,,66,51
509760,note_on,0,0,2,,,,,,,,,,,,,,,0,,,42,0
509760,note_on,160,0,1,,,,,,,,,,,,,,,0,,,71,0
509760,note_on,900,0,2,,,,,,,,,,,,,,,0,,,47,0
509760,note_on,0,0,2,,,,,,,,,,,,,,,0,,,39,35
509760,note_on,0,0,2,,,,,,,,,,,,,,,0,,,35,0
509760,set_tempo,480,1,0,,,,,,,,,,,,593883,,,,,,,
509795,control_change,35,0,2,,,,,,,,,,,,,,,0,64,0,,
509866,control_change,71,0,2,,,,,,,,,,,,,,,0,64,127,,
509920,note_on,0,0,1,,,,,,,,,,,,,,,0,,,63,46
509920,note_on,160,0,1,,,,,,,,,,,,,,,0,,,66,0
510000,note_on,134,0,2,,,,,,,,,,,,,,,0,,,39,0
510080,note_on,160,0,1,,,,,,,,,,,,,,,0,,,63,0
510080,note_on,0,0,1,,,,,,,,,,,,,,,0,,,59,46
510240,note_on,240,0,2,,,,,,,,,,,,,,,0,,,42,35
510240,set_tempo,480,1,0,,,,,,,,,,,,610252,,,,,,,
510240,note_on,0,0,1,,,,,,,,,,,,,,,0,,,63,53
510240,note_on,160,0,1,,,,,,,,,,,,,,,0,,,59,0
510400,note_on,0,0,1,,,,,,,,,,,,,,,0,,,66,50
510400,note_on,160,0,1,,,,,,,,,,,,,,,0,,,63,0
510480,note_on,240,0,2,,,,,,,,,,,,,,,0,,,42,0
510560,note_on,0,0,1,,,,,,,,,,,,,,,0,,,71,50
510560,note_on,160,0,1,,,,,,,,,,,,,,,0,,,66,0
510720,control_change,0,0,2,,,,,,,,,,,,,,,0,64,0,,
510720,control_change,0,0,2,,,,,,,,,,,,,,,0,64,0,,
510720,control_change,0,0,2,,,,,,,,,,,,,,,0,64,0,,
510720,note_on,0,0,2,,,,,,,,,,,,,,,0,,,35,47
510720,note_on,160,0,1,,,,,,,,,,,,,,,0,,,71,0
510720,note_on,0,0,1,,,,,,,,,,,,,,,0,,,75,79
510720,note_on,0,0,2,,,,,,,,,,,,,,,0,,,47,56
510720,note_on,0,0,2,,,,,,,,,,,,,,,0,,,42,47
510720,control_change,240,0,2,,,,,,,,,,,,,,,0,64,0,,
510720,set_tempo,480,1,0,,,,,,,,,,,,603622,,,,,,,
510780,control_change,60,0,2,,,,,,,,,,,,,,,0,64,127,,
510880,note_on,0,0,1,,,,,,,,,,,,,,,0,,,87,66
510880,note_on,160,0,1,,,,,,,,,,,,,,,0,,,75,0
510960,set_tempo,240,1,0,,,,,,,,,,,,578258,,,,,,,
511040,note_on,0,0,1,,,,,,,,,,,,,,,0,,,83,57
511040,note_on,160,0,1,,,,,,,,,,,,,,,0,,,87,0
511200,set_tempo,240,1,0,,,,,,,,,,,,584397,,,,,,,
511200,note_on,0,0,1,,,,,,,,,,,,,,,0,,,78,65
511200,note_on,160,0,1,,,,,,,,,,,,,,,0,,,83,0
511360,note_on,160,0,1,,,,,,,,,,,,,,,0,,,78,0
511360,note_on,0,0,1,,,,,,,,,,,,,,,0,,,75,56
511520,note_on,0,0,1,,,,,,,,,,,,,,,0,,,71,50
511520,note_on,160,0,1,,,,,,,,,,,,,,,0,,,75,0
511680,note_on,0,0,2,,,,,,,,,,,,,,,0,,,39,35
511680,set_tempo,480,1,0,,,,,,,,,,,,593883,,,,,,,
511680,note_on,0,0,2,,,,,,,,,,,,,,,0,,,42,0
511680,note_on,160,0,1,,,,,,,,,,,,,,,0,,,71,0
511680,note_on,0,0,1,,,,,,,,,,,,,,,0,,,66,51
511680,note_on,900,0,2,,,,,,,,,,,,,,,0,,,47,0
511680,note_on,0,0,2,,,,,,,,,,,,,,,0,,,35,0
511715,control_change,35,0,2,,,,,,,,,,,,,,,0,64,0,,
511786,control_change,71,0,2,,,,,,,,,,,,,,,0,64,127,,
511840,note_on,160,0,1,,,,,,,,,,,,,,,0,,,66,0
511840,note_on,0,0,1,,,,,,,,,,,,,,,0,,,63,46
511920,note_on,134,0,2,,,,,,,,,,,,,,,0,,,39,0
512000,note_on,0,0,1,,,,,,,,,,,,,,,0,,,59,46
512000,note_on,160,0,1,,,,,,,,,,,,,,,0,,,63,0
512160,note_on,0,0,1,,,,,,,,,,,,,,,0,,,63,53
512160,note_on,160,0,1,,,,,,,,,,,,,,,0,,,59,0
512160,set_tempo,480,1,0,,,,,,,,,,,,610252,,,,,,,
512160,note_on,240,0,2,,,,,,,,,,,,,,,0,,,42,35
512320,note_on,0,0,1,,,,,,,,,,,,,,,0,,,66,50
512320,note_on,160,0,1,,,,,,,,,,,,,,,0,,,63,0
512400,note_on,240,0,2,,,,,,,,,,,,,,,0,,,42,0
512480,note_on,160,0,1,,,,,,,,,,,,,,,0,,,66,0
512480,note_on,0,0,1,,,,,,,,,,,,,,,0,,,71,50
512640,note_on,0,0,2,,,,,,,,,,,,,,,0,,,35,35
512640,control_change,240,0,2,,,,,,,,,,,,,,,0,64,0,,
512640,set_tempo,480,1,0,,,,,,,,,,,,595652,,,,,,,
512640,note_on,0,0,1,,,,,,,,,,,,,,,0,,,75,53
512640,note_on,160,0,1,,,,,,,,,,,,,,,0,,,71,0
512680,set_tempo,40,1,0,,,,,,,,,,,,602228,,,,,,,
512691,control_change,51,0,2,,,,,,,,,,,,,,,0,64,127,,
512800,note_on,0,0,1,,,,,,,,,,,,,,,0,,,71,48
512800,note_on,160,0,1,,,,,,,,,,,,,,,0,,,75,0
512880,note_on,189,0,2,,,,,,,,,,,,,,,0,,,35,0
512960,note_on,0,0,1,,,,,,,,,,,,,,,0,,,66,48
512960,note_on,160,0,1,,,,,,,,,,,,,,,0,,,71,0
513120,note_on,0,0,1,,,,,,,,,,,,,,,0,,,78,53
513120,note_on,160,0,1,,,,,,,,,,,,,,,0,,,66,0
513120,note_on,0,0,2,,,,,,,,,,,,,,,0,,,63,33
513120,note_on,240,0,2,,,,,,,,,,,,,,,0,,,54,28
513160,set_tempo,480,1,0,,,,,,,,,,,,589275,,,,,,,
513280,note_on,160,0,1,,,,,,,,,,,,,,,0,,,71,47
513440,set_tempo,280,1,0,,,,,,,,,,,,612182,,,,,,,
513440,note_on,0,0,1,,,,,,,,,,,,,,,0,,,66,45
513440,note_on,160,0,1,,,,,,,,,,,,,,,0,,,71,0
513600,note_on,480,0,2,,,,,,,,,,,,,,,0,,,63,0
513600,note_on,0,0,2,,,,,,,,,,,,,,,0,,,61,35
513600,set_tempo,160,1,0,,,,,,,,,,,,595652,,,,,,,
513600,note_on,160,0,1,,,,,,,,,,,,,,,0,,,66,0
513600,note_on,0,0,1,,,,,,,,,,,,,,,0,,,78,0
513600,note_on,0,0,1,,,,,,,,,,,,,,,0,,,79,55
513600,note_on,0,0,1,,,,,,,,,,,,,,,0,,,76,46
513611,control_change,11,0,2,,,,,,,,,,,,,,,0,64,0,,
513651,control_change,40,0,2,,,,,,,,,,,,,,,0,64,127,,
513760,note_on,0,0,1,,,,,,,,,,,,,,,0,,,70,42
513760,note_on,160,0,1,,,,,,,,,,,,,,,0,,,76,0
513920,note_on,160,0,1,,,,,,,,,,,,,,,0,,,70,0
513920,note_on,0,0,1,,,,,,,,,,,,,,,0,,,67,41
514080,note_on,0,0,1,,,,,,,,,,,,,,,0,,,73,46
514080,note_on,0,0,1,,,,,,,,,,,,,,,0,,,78,55
514080,note_on,0,0,1,,,,,,,,,,,,,,,0,,,79,0
514080,note_on,160,0,1,,,,,,,,,,,,,,,0,,,67,0
514080,note_on,0,0,2,,,,,,,,,,,,,,,0,,,64,32
514080,note_on,429,0,2,,,,,,,,,,,,,,,0,,,61,0
514114,control_change,34,0,2,,,,,,,,,,,,,,,0,64,0,,
514166,control_change,52,0,2,,,,,,,,,,,,,,,0,64,127,,
514240,note_on,0,0,1,,,,,,,,,,,,,,,0,,,70,42
514240,note_on,160,0,1,,,,,,,,,,,,,,,0,,,73,0
514400,note_on,0,0,1,,,,,,,,,,,,,,,0,,,66,42
514400,note_on,160,0,1,,,,,,,,,,,,,,,0,,,70,0
514560,note_on,0,0,1,,,,,,,,,,,,,,,0,,,75,53
514560,note_on,0,0,1,,,,,,,,,,,,,,,0,,,78,0
514560,set_tempo,960,1,0,,,,,,,,,,,,595652,,,,,,,
514560,control_change,0,0,2,,,,,,,,,,,,,,,0,64,0,,
514560,note_on,394,0,2,,,,,,,,,,,,,,,0,,,64,0
514560,note_on,160,0,1,,,,,,,,,,,,,,,0,,,66,0
514560,note_on,0,0,2,,,,,,,,,,,,,,,0,,,47,35
514560,note_on,0,0,2,,,,,,,,,,,,,,,0,,,54,0
514600,set_tempo,40,1,0,,,,,,,,,,,,602228,,,,,,,
514611,control_change,51,0,2,,,,,,,,,,,,,,,0,64,127,,
514720,note_on,160,0,1,,,,,,,,,,,,,,,0,,,71,48
514800,note_on,189,0,2,,,,,,,,,,,,,,,0,,,47,0
514880,note_on,0,0,1,,,,,,,,,,,,,,,0,,,66,48
514880,note_on,160,0,1,,,,,,,,,,,,,,,0,,,71,0
515040,note_on,240,0,2,,,,,,,,,,,,,,,0,,,54,28
515040,note_on,0,0,2,,,,,,,,,,,,,,,0,,,63,33
515040,note_on,0,0,1,,,,,,,,,,,,,,,0,,,75,46
515040,note_on,160,0,1,,,,,,,,,,,,,,,0,,,66,0
515040,note_on,0,0,1,,,,,,,,,,,,,,,0,,,78,53
515040,note_on,0,0,1,,,,,,,,,,,,,,,0,,,75,0
515080,set_tempo,480,1,0,,,,,,,,,,,,589275,,,,,,,
515200,note_on,0,0,1,,,,,,,,,,,,,,,0,,,71,47
515200,note_on,160,0,1,,,,,,,,,,,,,,,0,,,75,0
515360,note_on,0,0,1,,,,,,,,,,,,,,,0,,,66,45
515360,set_tempo,280,1,0,,,,,,,,,,,,612182,,,,,,,
515360,note_on,160,0,1,,,,,,,,,,,,,,,0,,,71,0
515520,note_on,0,0,1,,,,,,,,,,,,,,,0,,,76,46
515520,note_on,0,0,1,,,,,,,,,,,,,,,0,,,79,55
515520,note_on,0,0,1,,,,,,,,,,,,,,,0,,,78,0
515520,note_on,160,0,1,,,,,,,,,,,,,,,0,,,66,0
515520,note_on,480,0,2,,,,,,,,,,,,,,,0,,,63,0
515520,note_on,0,0,2,,,,,,,,,,,,,,,0,,,61,35
515520,set_tempo,160,1,0,,,,,,,,,,,,595652,,,,,,,
515531,control_change,11,0,2,,,,,,,,,,,,,,,0,64,0,,
515571,control_change,40,0,2,,,,,,,,,,,,,,,0,64,127,,
515680,note_on,0,0,1,,,,,,,,,,,,,,,0,,,70,42
515680,note_on,160,0,1,,,,,,,,,,,,,,,0,,,76,0
515840,note_on,0,0,1,,,,,,,,,,,,,,,0,,,67,41
515840,note_on,160,0,1,,,,,,,,,,,,,,,0,,,70,0
516000,note_on,0,0,1,,,,,,,,,,,,,,,0,,,78,55
516000,note_on,0,0,1,,,,,,,,,,,,,,,0,,,73,46
516000,note_on,429,0,2,,,,,,,,,,,,,,,0,,,61,0
516000,note_on,0,0,2,,,,,,,,,,,,,,,0,,,64,32
516000,note_on,160,0,1,,,,,,,,,,,,,,,0,,,67,0
516000,note_on,0,0,1,,,,,,,,,,,,,,,0,,,79,0
516034,control_change,34,0,2,,,,,,,,,,,,,,,0,64,0,,
516086,control_change,52,0,2,,,,,,,,,,,,,,,0,64,127,,
516160,note_on,160,0,1,,,,,,,,,,,,,,,0,,,73,0
516160,note_on,0,0,1,,,,,,,,,,,,,,,0,,,70,42
516320,note_on,160,0,1,,,,,,,,,,,,,,,0,,,70,0
516320,note_on,0,0,1,,,,,,,,,,,,,,,0,,,66,42
516480,control_change,0,0,2,,,,,,,,,,,,,,,0,64,0,,
516480,note_on,160,0,1,,,,,,,,,,,,,,,0,,,66,0
516480,note_on,0,0,1,,,,,,,,,,,,,,,0,,,78,0
516480,note_on,0,0,1,,,,,,,,,,,,,,,0,,,75,79
516480,note_on,0,0,2,,,,,,,,,,,,,,,0,,,54,45
516480,set_tempo,960,1,0,,,,,,,,,,,,589912,,,,,,,
516480,note_on,0,0,2,,,,,,,,,,,,,,,0,,,47,45
516480,note_on,0,0,2,,,,,,,,,,,,,,,0,,,59,53
516480,note_on,0,0,2,,,,,,,,,,,,,,,0,,,54,0
516480,note_on,394,0,2,,,,,,,,,,,,,,,0,,,64,0
516480,control_change,0,0,2,,,,,,,,,,,,,,,0,64,0,,
516540,control_change,60,0,2,,,,,,,,,,,,,,,0,64,127,,
516640,note_on,0,0,1,,,,,,,,,,,,,,,0,,,87,70
516640,note_on,160,0,1,,,,,,,,,,,,,,,0,,,75,0
516720,set_tempo,240,1,0,,,,,,,,,,,,586682,,,,,,,
516800,note_on,160,0,1,,,,,,,,,,,,,,,0,,,87,0
516800,note_on,0,0,1,,,,,,,,,,,,,,,0,,,83,62
516960,note_on,160,0,1,,,,,,,,,,,,,,,0,,,83,0
516960,note_on,0,0,1,,,,,,,,,,,,,,,0,,,78,69
516960,set_tempo,240,1,0,,,,,,,,,,,,583658,,,,,,,
517120,note_on,160,0,1,,,,,,,,,,,,,,,0,,,78,0
517120,note_on,0,0,1,,,,,,,,,,,,,,,0,,,75,64
517280,note_on,160,0,1,,,,,,,,,,,,,,,0,,,75,0
517280,note_on,0,0,1,,,,,,,,,,,,,,,0,,,71,63
517436,control_change,896,0,2,,,,,,,,,,,,,,,0,64,0,,
517440,note_on,160,0,1,,,,,,,,,,,,,,,0,,,71,0
517440,note_on,0,0,1,,,,,,,,,,,,,,,0,,,66,73
517440,note_on,0,0,2,,,,,,,,,,,,,,,0,,,51,42
517440,note_on,0,0,2,,,,,,,,,,,,,,,0,,,47,0
517440,note_on,0,0,2,,,,,,,,,,,,,,,0,,,54,0
517440,note_on,4,0,2,,,,,,,,,,,,,,,0,,,59,0
517440,set_tempo,480,1,0,,,,,,,,,,,,593061,,,,,,,
517489,control_change,49,0,2,,,,,,,,,,,,,,,0,64,127,,
517600,note_on,0,0,1,,,,,,,,,,,,,,,0,,,63,66
517600,note_on,160,0,1,,,,,,,,,,,,,,,0,,,66,0
517680,note_on,191,0,2,,,,,,,,,,,,,,,0,,,51,0
517760,note_on,160,0,1,,,,,,,,,,,,,,,0,,,63,0
517760,note_on,0,0,1,,,,,,,,,,,,,,,0,,,59,66
517920,set_tempo,480,1,0,,,,,,,,,,,,609385,,,,,,,
517920,note_on,240,0,2,,,,,,,,,,,,,,,0,,,54,42
517920,note_on,160,0,1,,,,,,,,,,,,,,,0,,,59,0
517920,note_on,0,0,1,,,,,,,,,,,,,,,0,,,63,70
518080,note_on,160,0,1,,,,,,,,,,,,,,,0,,,63,0
518080,note_on,0,0,1,,,,,,,,,,,,,,,0,,,66,67
518160,note_on,240,0,2,,,,,,,,,,,,,,,0,,,54,0
518240,note_on,0,0,1,,,,,,,,,,,,,,,0,,,71,68
518240,note_on,160,0,1,,,,,,,,,,,,,,,0,,,66,0
518400,control_change,0,0,2,,,,,,,,,,,,,,,0,64,0,,
518400,note_on,240,0,2,,,,,,,,,,,,,,,0,,,48,50
518400,note_on,160,0,1,,,,,,,,,,,,,,,0,,,71,0
518400,note_on,0,0,1,,,,,,,,,,,,,,,0,,,75,70
518400,set_tempo,480,1,0,,,,,,,,,,,,589912,,,,,,,
518457,control_change,57,0,2,,,,,,,,,,,,,,,0,64,127,,
518560,note_on,160,0,1,,,,,,,,,,,,,,,0,,,75,0
518560,note_on,0,0,1,,,,,,,,,,,,,,,0,,,69,67
518640,note_on,183,0,2,,,,,,,,,,,,,,,0,,,48,0
518720,note_on,160,0,1,,,,,,,,,,,,,,,0,,,69,0
518720,note_on,0,0,1,,,,,,,,,,,,,,,0,,,66,67
518880,note_on,0,0,1,,,,,,,,,,,,,,,0,,,78,75
518880,set_tempo,480,1,0,,,,,,,,,,,,593061,,,,,,,
518880,note_on,160,0,1,,,,,,,,,,,,,,,0,,,66,0
518880,note_on,240,0,2,,,,,,,,,,,,,,,0,,,51,41
518886,control_change,6,0,2,,,,,,,,,,,,,,,0,64,0,,
518931,control_change,45,0,2,,,,,,,,,,,,,,,0,64,127,,
519040,note_on,0,0,1,,,,,,,,,,,,,,,0,,,72,69
519040,note_on,160,0,1,,,,,,,,,,,,,,,0,,,78,0
519120,note_on,189,0,2,,,,,,,,,,,,,,,0,,,51,0
519200,note_on,0,0,1,,,,,,,,,,,,,,,0,,,69,69
519200,note_on,160,0,1,,,,,,,,,,,,,,,0,,,72,0
519349,control_change,229,0,2,,,,,,,,,,,,,,,0,64,0,,
519360,note_on,0,0,1,,,,,,,,,,,,,,,0,,,84,76
519360,note_on,160,0,1,,,,,,,,,,,,,,,0,,,69,0
519360,note_on,11,0,2,,,,,,,,,,,,,,,0,,,45,50
519411,control_change,51,0,2,,,,,,,,,,,,,,,0,64,127,,
519520,note_on,160,0,1,,,,,,,,,,,,,,,0,,,84,0
519520,note_on,0,0,1,,,,,,,,,,,,,,,0,,,78,69
519600,note_on,189,0,2,,,,,,,,,,,,,,,0,,,45,0
519680,note_on,0,0,1,,,,,,,,,,,,,,,0,,,75,72
519680,note_on,160,0,1,,,,,,,,,,,,,,,0,,,78,0
519840,note_on,0,0,1,,,,,,,,,,,,,,,0,,,81,75
519840,note_on,160,0,1,,,,,,,,,,,,,,,0,,,75,0
519840,note_on,240,0,2,,,,,,,,,,,,,,,0,,,53,40
519857,control_change,17,0,2,,,,,,,,,,,,,,,0,64,0,,
519909,control_change,52,0,2,,,,,,,,,,,,,,,0,64,127,,
520000,note_on,0,0,1,,,,,,,,,,,,,,,0,,,77,67
520000,note_on,160,0,1,,,,,,,,,,,,,,,0,,,81,0
520080,note_on,171,0,2,,,,,,,,,,,,,,,0,,,53,0
520160,note_on,160,0,1,,,,,,,,,,,,,,,0,,,77,0
520160,note_on,0,0,1,,,,,,,,,,,,,,,0,,,75,61
520320,key_signature,1440,1,0,,,,,,,,,,,Bb,,,,,,,,
520320,note_on,0,0,2,,,,,,,,,,,,,,,0,,,46,32
520320,control_change,0,0,2,,,,,,,,,,,,,,,0,64,0,,
520320,control_change,0,0,2,,,,,,,,,,,,,,,0,64,0,,
520320,control_change,240,0,2,,,,,,,,,,,,,,,0,64,0,,
520320,set_tempo,0,1,0,,,,,,,,,,,,638434,,,,,,,
520320,note_on,0,0,2,,,,,,,,,,,,,,,0,,,53,32
520320,note_on,0,0,2,,,,,,,,,,,,,,,0,,,58,38
520320,note_on,160,0,1,,,,,,,,,,,,,,,0,,,75,0
520320,note_on,0,0,1,,,,,,,,,,,,,,,0,,,73,66
520380,control_change,60,0,2,,,,,,,,,,,,,,,0,64,127,,
520480,note_on,160,0,1,,,,,,,,,,,,,,,0,,,73,0
520480,note_on,0,0,1,,,,,,,,,,,,,,,0,,,85,49
520560,set_tempo,240,1,0,,,,,,,,,,,,587487,,,,,,,
520640,note_on,160,0,1,,,,,,,,,,,,,,,0,,,85,0
520640,note_on,0,0,1,,,,,,,,,,,,,,,0,,,82,49
520800,set_tempo,240,1,0,,,,,,,,,,,,584397,,,,,,,
520800,note_on,160,0,1,,,,,,,,,,,,,,,0,,,82,0
520800,note_on,0,0,1,,,,,,,,,,,,,,,0,,,77,53
520960,note_on,0,0,1,,,,,,,,,,,,,,,0,,,73,48
520960,note_on,160,0,1,,,,,,,,,,,,,,,0,,,77,0
521120,note_on,0,0,1,,,,,,,,,,,,,,,0,,,70,46
521120,note_on,160,0,1,,,,,,,,,,,,,,,0,,,73,0
521269,control_change,889,0,2,,,,,,,,,,,,,,,0,64,0,,
521280,note_on,0,0,2,,,,,,,,,,,,,,,0,,,53,0
521280,note_on,11,0,2,,,,,,,,,,,,,,,0,,,58,0
521280,note_on,160,0,1,,,,,,,,,,,,,,,0,,,70,0
521280,note_on,0,0,1,,,,,,,,,,,,,,,0,,,65,51
521280,note_on,0,0,2,,,,,,,,,,,,,,,0,,,49,35
521280,note_on,0,0,2,,,,,,,,,,,,,,,0,,,46,0
521280,set_tempo,480,1,0,,,,,,,,,,,,593883,,,,,,,
521320,control_change,40,0,2,,,,,,,,,,,,,,,0,64,127,,
521440,note_on,160,0,1,,,,,,,,,,,,,,,0,,,65,0
521440,note_on,0,0,1,,,,,,,,,,,,,,,0,,,61,46
521520,note_on,200,0,2,,,,,,,,,,,,,,,0,,,49,0
521600,note_on,160,0,1,,,,,,,,,,,,,,,0,,,61,0
521600,note_on,0,0,1,,,,,,,,,,,,,,,0,,,58,46
521760,note_on,240,0,2,,,,,,,,,,,,,,,0,,,53,35
521760,set_tempo,480,1,0,,,,,,,,,,,,610252,,,,,,,
521760,note_on,160,0,1,,,,,,,,,,,,,,,0,,,58,0
521760,note_on,0,0,1,,,,,,,,,,,,,,,0,,,61,57
521920,note_on,160,0,1,,,,,,,,,,,,,,,0,,,61,0
521920,note_on,0,0,1,,,,,,,,,,,,,,,0,,,65,50
522000,note_on,240,0,2,,,,,,,,,,,,,,,0,,,53,0
522080,note_on,160,0,1,,,,,,,,,,,,,,,0,,,65,0
522080,note_on,0,0,1,,,,,,,,,,,,,,,0,,,70,50
522240,note_on,160,0,1,,,,,,,,,,,,,,,0,,,70,0
522240,note_on,0,0,1,,,,,,,,,,,,,,,0,,,73,53
522240,set_tempo,480,1,0,,,,,,,,,,,,603622,,,,,,,
522240,control_change,240,0,2,,,,,,,,,,,,,,,0,64,0,,
522240,control_change,0,0,2,,,,,,,,,,,,,,,0,64,0,,
522240,control_change,0,0,2,,,,,,,,,,,,,,,0,64,0,,
522240,note_on,0,0,2,,,,,,,,,,,,,,,0,,,46,32
522240,note_on,0,0,2,,,,,,,,,,,,,,,0,,,53,32
522240,note_on,0,0,2,,,,,,,,,,,,,,,0,,,58,38
522300,control_change,60,0,2,,,,,,,,,,,,,,,0,64,127,,
522400,note_on,0,0,1,,,,,,,,,,,,,,,0,,,85,49
522400,note_on,160,0,1,,,,,,,,,,,,,,,0,,,73,0
522480,set_tempo,240,1,0,,,,,,,,,,,,578258,,,,,,,
522484,control_change,184,0,2,,,,,,,,,,,,,,,0,64,0,,
522560,note_on,0,0,1,,,,,,,,,,,,,,,0,,,82,49
522560,note_on,160,0,1,,,,,,,,,,,,,,,0,,,85,0
522720,note_on,0,0,1,,,,,,,,,,,,,,,0,,,77,53
522720,note_on,160,0,1,,,,,,,,,,,,,,,0,,,82,0
522720,set_tempo,240,1,0,,,,,,,,,,,,584397,,,,,,,
522880,note_on,0,0,1,,,,,,,,,,,,,,,0,,,73,48
522880,note_on,160,0,1,,,,,,,,,,,,,,,0,,,77,0
523040,note_on,0,0,1,,,,,,,,,,,,,,,0,,,70,46
523040,note_on,160,0,1,,,,,,,,,,,,,,,0,,,73,0
523200,note_on,0,0,1,,,,,,,,,,,,,,,0,,,65,51
523200,note_on,160,0,1,,,,,,,,,,,,,,,0,,,70,0
523200,set_tempo,480,1,0,,,,,,,,,,,,593883,,,,,,,
523200,note_on,0,0,2,,,,,,,,,,,,,,,0,,,53,0
523200,note_on,716,0,2,,,,,,,,,,,,,,,0,,,58,0
523200,note_on,0,0,2,,,,,,,,,,,,,,,0,,,46,0
523200,note_on,0,0,2,,,,,,,,,,,,,,,0,,,49,35
523200,control_change,0,0,2,,,,,,,,,,,,,,,0,64,127,,
523360,note_on,160,0,1,,,,,,,,,,,,,,,0,,,65,0
523360,note_on,0,0,1,,,,,,,,,,,,,,,0,,,61,46
523440,note_on,240,0,2,,,,,,,,,,,,,,,0,,,49,0
523520,note_on,0,0,1,,,,,,,,,,,,,,,0,,,58,46
523520,note_on,160,0,1,,,,,,,,,,,,,,,0,,,61,0
523680,note_on,240,0,2,,,,,,,,,,,,,,,0,,,53,35
523680,note_on,160,0,1,,,,,,,,,,,,,,,0,,,58,0
523680,note_on,0,0,1,,,,,,,,,,,,,,,0,,,61,53
523680,set_tempo,480,1,0,,,,,,,,,,,,610252,,,,,,,
523840,note_on,160,0,1,,,,,,,,,,,,,,,0,,,61,0
523840,note_on,0,0,1,,,,,,,,,,,,,,,0,,,65,50
523920,note_on,240,0,2,,,,,,,,,,,,,,,0,,,53,0
524000,note_on,160,0,1,,,,,,,,,,,,,,,0,,,65,0
524000,note_on,0,0,1,,,,,,,,,,,,,,,0,,,70,50
524160,note_on,0,0,2,,,,,,,,,,,,,,,0,,,46,39
524160,note_on,160,0,1,,,,,,,,,,,,,,,0,,,70,0
524160,note_on,0,0,1,,,,,,,,,,,,,,,0,,,73,60
524160,control_change,240,0,2,,,,,,,,,,,,,,,0,64,0,,
524223,control_change,63,0,2,,,,,,,,,,,,,,,0,64,127,,
524320,note_on,0,0,1,,,,,,,,,,,,,,,0,,,70,57
524320,note_on,160,0,1,,,,,,,,,,,,,,,0,,,73,0
524400,note_on,177,0,2,,,,,,,,,,,,,,,0,,,46,0
524480,note_on,0,0,1,,,,,,,,,,,,,,,0,,,65,57
524480,note_on,160,0,1,,,,,,,,,,,,,,,0,,,70,0
524600,set_tempo,920,1,0,,,,,,,,,,,,606919,,,,,,,
524640,note_on,0,0,1,,,,,,,,,,,,,,,0,,,77,66
524640,note_on,240,0,2,,,,,,,,,,,,,,,0,,,49,47
524640,note_on,160,0,1,,,,,,,,,,,,,,,0,,,65,0
524720,set_tempo,120,1,0,,,,,,,,,,,,603743,,,,,,,
524800,set_tempo,80,1,0,,,,,,,,,,,,600540,,,,,,,
524800,note_on,0,0,1,,,,,,,,,,,,,,,0,,,73,61
524800,note_on,160,0,1,,,,,,,,,,,,,,,0,,,77,0
524880,note_on,240,0,2,,,,,,,,,,,,,,,0,,,49,0
524920,set_tempo,120,1,0,,,,,,,,,,,,597372,,,,,,,
524960,note_on,160,0,1,,,,,,,,,,,,,,,0,,,73,0
524960,note_on,0,0,1,,,,,,,,,,,,,,,0,,,70,61
525000,set_tempo,80,1,0,,,,,,,,,,,,594295,,,,,,,
525080,set_tempo,80,1,0,,,,,,,,,,,,591250,,,,,,,
525120,note_on,240,0,2,,,,,,,,,,,,,,,0,,,43,53
525120,note_on,0,0,1,,,,,,,,,,,,,,,0,,,82,71
525120,note_on,160,0,1,,,,,,,,,,,,,,,0,,,70,0
525137,control_change,17,0,2,,,,,,,,,,,,,,,0,64,0,,
525160,set_tempo,80,1,0,,,,,,,,,,,,594295,,,,,,,
525200,control_change,63,0,2,,,,,,,,,,,,,,,0,64,127,,
525240,set_tempo,80,1,0,,,,,,,,,,,,597372,,,,,,,
525280,note_on,160,0,1,,,,,,,,,,,,,,,0,,,82,0
525280,note_on,0,0,1,,,,,,,,,,,,,,,0,,,76,64
525320,set_tempo,80,1,0,,,,,,,,,,,,600540,,,,,,,
525360,note_on,160,0,2,,,,,,,,,,,,,,,0,,,43,0
525400,set_tempo,80,1,0,,,,,,,,,,,,603743,,,,,,,
525440,note_on,160,0,1,,,,,,,,,,,,,,,0,,,76,0
525440,note_on,0,0,1,,,,,,,,,,,,,,,0,,,73,64
525480,set_tempo,80,1,0,,,,,,,,,,,,606919,,,,,,,
525560,set_tempo,80,1,0,,,,,,,,,,,,610190,,,,,,,
525600,set_tempo,40,1,0,,,,,,,,,,,,613434,,,,,,,
525600,note_on,240,0,2,,,,,,,,,,,,,,,0,,,44,58
525600,note_on,0,0,1,,,,,,,,,,,,,,,0,,,84,77
525600,note_on,160,0,1,,,,,,,,,,,,,,,0,,,73,0
525600,note_on,0,0,1,,,,,,,,,,,,,,,0,,,80,77
525629,control_change,29,0,2,,,,,,,,,,,,,,,0,64,0,,
525680,control_change,51,0,2,,,,,,,,,,,,,,,0,64,127,,
525760,note_on,160,0,1,,,,,,,,,,,,,,,0,,,80,0
525760,note_on,0,0,1,,,,,,,,,,,,,,,0,,,84,0
525760,note_on,0,0,1,,,,,,,,,,,,,,,0,,,78,69
525840,note_on,160,0,2,,,,,,,,,,,,,,,0,,,44,0
525920,note_on,0,0,1,,,,,,,,,,,,,,,0,,,75,69
525920,note_on,160,0,1,,,,,,,,,,,,,,,0,,,78,0
526080,note_on,0,0,2,,,,,,,,,,,,,,,0,,,44,58
526080,set_tempo,480,1,0,,,,,,,,,,,,603622,,,,,,,
526080,note_on,0,0,1,,,,,,,,,,,,,,,0,,,77,86
526080,control_change,0,0,2,,,,,,,,,,,,,,,0,64,0,,
526080,control_change,0,0,2,,,,,,,,,,,,,,,0,64,0,,
526080,control_change,0,0,2,,,,,,,,,,,,,,,0,64,0,,
526080,control_change,240,0,2,,,,,,,,,,,,,,,0,64,0,,
526080,note_on,160,0,1,,,,,,,,,,,,,,,0,,,75,0
526080,note_on,0,0,2,,,,,,,,,,,,,,,0,,,37,58
526080,note_on,0,0,2,,,,,,,,,,,,,,,0,,,49,70
526140,control_change,60,0,2,,,,,,,,,,,,,,,0,64,127,,
526240,note_on,0,0,1,,,,,,,,,,,,,,,0,,,89,77
526240,note_on,160,0,1,,,,,,,,,,,,,,,0,,,77,0
526320,set_tempo,240,1,0,,,,,,,,,,,,578258,,,,,,,
526400,note_on,160,0,1,,,,,,,,,,,,,,,0,,,89,0
526400,note_on,0,0,1,,,,,,,,,,,,,,,0,,,85,72
526560,note_on,160,0,1,,,,,,,,,,,,,,,0,,,85,0
526560,note_on,0,0,1,,,,,,,,,,,,,,,0,,,80,75
526560,set_tempo,240,1,0,,,,,,,,,,,,584397,,,,,,,
526720,note_on,160,0,1,,,,,,,,,,,,,,,0,,,80,0
526720,note_on,0,0,1,,,,,,,,,,,,,,,0,,,77,68
526880,note_on,160,0,1,,,,,,,,,,,,,,,0,,,77,0
526880,note_on,0,0,1,,,,,,,,,,,,,,,0,,,73,60
527040,set_tempo,480,1,0,,,,,,,,,,,,593883,,,,,,,
527040,note_on,160,0,1,,,,,,,,,,,,,,,0,,,73,0
527040,note_on,0,0,1,,,,,,,,,,,,,,,0,,,68,57
527075,control_change,935,0,2,,,,,,,,,,,,,,,0,64,0,,
527146,control_change,71,0,2,,,,,,,,,,,,,,,0,64,127,,
527200,note_on,160,0,1,,,,,,,,,,,,,,,0,,,68,0
527200,note_on,0,0,1,,,,,,,,,,,,,,,0,,,65,49
527360,note_on,160,0,1,,,,,,,,,,,,,,,0,,,65,0
527360,note_on,0,0,1,,,,,,,,,,,,,,,0,,,61,47
527520,note_on,374,0,2,,,,,,,,,,,,,,,0,,,49,0
527520,note_on,0,0,2,,,,,,,,,,,,,,,0,,,44,0
527520,note_on,0,0,2,,,,,,,,,,,,,,,0,,,37,0
527520,note_on,0,0,2,,,,,,,,,,,,,,,0,,,56,50
527520,set_tempo,480,1,0,,,,,,,,,,,,610252,,,,,,,
527520,note_on,160,0,1,,,,,,,,,,,,,,,0,,,61,0
527680,note_on,0,0,2,,,,,,,,,,,,,,,0,,,53,44
527680,note_on,160,0,2,,,,,,,,,,,,,,,0,,,56,0
527840,note_on,0,0,2,,,,,,,,,,,,,,,0,,,49,37
527840,note_on,160,0,2,,,,,,,,,,,,,,,0,,,53,0
528000,note_on,160,0,2,,,,,,,,,,,,,,,0,,,49,0
528000,control_change,0,0,2,,,,,,,,,,,,,,,0,64,0,,
528000,set_tempo,480,1,0,,,,,,,,,,,,594295,,,,,,,
528000,note_on,0,0,2,,,,,,,,,,,,,,,0,,,37,36
528240,set_tempo,240,1,0,,,,,,,,,,,,616776,,,,,,,
528240,note_on,0,0,2,,,,,,,,,,,,,,,0,,,37,30
528240,note_on,240,0,2,,,,,,,,,,,,,,,0,,,37,0
528480,note_on,240,0,2,,,,,,,,,,,,,,,0,,,37,0
528480,note_on,0,0,2,,,,,,,,,,,,,,,0,,,37,31
528720,note_on,240,0,2,,,,,,,,,,,,,,,0,,,37,0
528720,note_on,0,0,2,,,,,,,,,,,,,,,0,,,37,31
528960,note_on,240,0,2,,,,,,,,,,,,,,,0,,,37,0
528960,note_on,0,0,2,,,,,,,,,,,,,,,0,,,37,30
529200,note_on,0,0,2,,,,,,,,,,,,,,,0,,,37,30
529200,note_on,240,0,2,,,,,,,,,,,,,,,0,,,37,0
529440,note_on,240,0,2,,,,,,,,,,,,,,,0,,,37,0
529440,note_on,0,0,2,,,,,,,,,,,,,,,0,,,37,29
529680,note_on,240,0,2,,,,,,,,,,,,,,,0,,,37,0
529680,note_on,0,0,2,,,,,,,,,,,,,,,0,,,37,29
529920,note_on,0,0,2,,,,,,,,,,,,,,,0,,,37,26
529920,note_on,0,0,1,,,,,,,,,,,,,,,0,,,61,47
529920,note_on,0,0,1,,,,,,,,,,,,,,,0,,,56,40
529920,set_tempo,1680,1,0,,,,,,,,,,,,637416,,,,,,,
529920,note_on,2400,0,1,,,,,,,,,,,,,,,0,,,53,40
529920,note_on,240,0,2,,,,,,,,,,,,,,,0,,,37,0
530160,note_on,0,0,2,,,,,,,,,,,,,,,0,,,37,26
530160,note_on,240,0,2,,,,,,,,,,,,,,,0,,,37,0
530400,note_on,240,0,2,,,,,,,,,,,,,,,0,,,37,0
530400,note_on,0,0,2,,,,,,,,,,,,,,,0,,,37,26
530640,note_on,240,0,2,,,,,,,,,,,,,,,0,,,37,0
530640,note_on,0,0,2,,,,,,,,,,,,,,,0,,,37,26
530880,note_on,0,0,1,,,,,,,,,,,,,,,0,,,53,0
530880,note_on,0,0,1,,,,,,,,,,,,,,,0,,,65,46
530880,note_on,240,0,2,,,,,,,,,,,,,,,0,,,37,0
530880,set_tempo,960,1,0,,,,,,,,,,,,620155,,,,,,,
530880,note_on,960,0,1,,,,,,,,,,,,,,,0,,,61,0
530880,note_on,0,0,1,,,,,,,,,,,,,,,0,,,56,0
530880,note_on,0,0,2,,,,,,,,,,,,,,,0,,,37,26
531120,note_on,0,0,2,,,,,,,,,,,,,,,0,,,37,26
531120,note_on,240,0,2,,,,,,,,,,,,,,,0,,,37,0
531120,note_on,240,0,1,,,,,,,,,,,,,,,0,,,65,0
531360,note_on,240,0,2,,,,,,,,,,,,,,,0,,,37,0
531360,note_on,0,0,2,,,,,,,,,,,,,,,0,,,37,26
531360,note_on,240,0,1,,,,,,,,,,,,,,,0,,,68,46
531600,note_on,240,0,2,,,,,,,,,,,,,,,0,,,37,0
531600,note_on,0,0,2,,,,,,,,,,,,,,,0,,,37,26
531600,note_on,240,0,1,,,,,,,,,,,,,,,0,,,68,0
531840,note_on,0,0,1,,,,,,,,,,,,,,,0,,,58,40
531840,note_on,240,0,1,,,,,,,,,,,,,,,0,,,54,40
531840,note_on,0,0,1,,,,,,,,,,,,,,,0,,,63,47
531840,set_tempo,960,1,0,,,,,,,,,,,,633914,,,,,,,
531840,note_on,0,0,2,,,,,,,,,,,,,,,0,,,37,26
531840,note_on,240,0,2,,,,,,,,,,,,,,,0,,,37,0
532080,note_on,0,0,2,,,,,,,,,,,,,,,0,,,37,26
532080,note_on,240,0,2,,,,,,,,,,,,,,,0,,,37,0
532320,note_on,240,0,2,,,,,,,,,,,,,,,0,,,37,0
532320,note_on,0,0,2,,,,,,,,,,,,,,,0,,,37,26
532560,note_on,240,0,2,,,,,,,,,,,,,,,0,,,37,0
532560,note_on,0,0,2,,,,,,,,,,,,,,,0,,,37,26
532800,note_on,240,0,2,,,,,,,,,,,,,,,0,,,37,0
532800,note_on,0,0,2,,,,,,,,,,,,,,,0,,,37,26
532800,note_on,960,0,1,,,,,,,,,,,,,,,0,,,63,0
532800,note_on,0,0,1,,,,,,,,,,,,,,,0,,,58,0
532800,note_on,0,0,1,,,,,,,,,,,,,,,0,,,54,0
532800,note_on,0,0,1,,,,,,,,,,,,,,,0,,,66,45
532800,set_tempo,960,1,0,,,,,,,,,,,,620155,,,,,,,
533040,note_on,240,0,2,,,,,,,,,,,,,,,0,,,37,0
533040,note_on,240,0,1,,,,,,,,,,,,,,,0,,,66,0
533040,note_on,0,0,2,,,,,,,,,,,,,,,0,,,37,26
533280,note_on,240,0,1,,,,,,,,,,,,,,,0,,,70,45
533280,note_on,240,0,2,,,,,,,,,,,,,,,0,,,37,0
533280,note_on,0,0,2,,,,,,,,,,,,,,,0,,,37,26
533520,note_on,240,0,1,,,,,,,,,,,,,,,0,,,70,0
533520,note_on,0,0,2,,,,,,,,,,,,,,,0,,,37,26
533520,note_on,240,0,2,,,,,,,,,,,,,,,0,,,37,0
533760,note_on,240,0,1,,,,,,,,,,,,,,,0,,,70,48
533760,set_tempo,960,1,0,,,,,,,,,,,,606919,,,,,,,
533760,control_change,0,0,2,,,,,,,,,,,,,,,0,64,127,,
533760,note_on,240,0,2,,,,,,,,,,,,,,,0,,,37,0
533760,note_on,0,0,2,,,,,,,,,,,,,,,0,,,37,26
534000,note_on,0,0,2,,,,,,,,,,,,,,,0,,,37,26
534000,note_on,240,0,2,,,,,,,,,,,,,,,0,,,37,0
534000,note_on,0,0,1,,,,,,,,,,,,,,,0,,,68,45
534000,note_on,240,0,1,,,,,,,,,,,,,,,0,,,70,0
534240,note_on,0,0,2,,,,,,,,,,,,,,,0,,,37,26
534240,note_on,240,0,1,,,,,,,,,,,,,,,0,,,68,0
534240,note_on,0,0,1,,,,,,,,,,,,,,,0,,,68,48
534240,note_on,0,0,2,,,,,,,,,,,,,,,0,,,39,26
534240,note_on,240,0,2,,,,,,,,,,,,,,,0,,,37,0
534240,note_on,0,0,1,,,,,,,,,,,,,,,0,,,60,40
534480,note_on,240,0,2,,,,,,,,,,,,,,,0,,,37,0
534480,note_on,240,0,1,,,,,,,,,,,,,,,0,,,68,0
534480,note_on,0,0,1,,,,,,,,,,,,,,,0,,,66,45
534480,note_on,0,0,2,,,,,,,,,,,,,,,0,,,37,26
534680,set_tempo,920,1,0,,,,,,,,,,,,562061,,,,,,,
534720,control_change,0,0,2,,,,,,,,,,,,,,,0,64,0,,
534720,note_on,0,0,1,,,,,,,,,,,,,,,0,,,60,0
534720,note_on,0,0,2,,,,,,,,,,,,,,,0,,,44,26
534720,note_on,0,0,2,,,,,,,,,,,,,,,0,,,37,26
534720,note_on,0,0,2,,,,,,,,,,,,,,,0,,,39,0
534720,note_on,240,0,2,,,,,,,,,,,,,,,0,,,37,0
534720,note_on,0,0,1,,,,,,,,,,,,,,,0,,,66,50
534720,note_on,0,0,1,,,,,,,,,,,,,,,0,,,60,42
534720,note_on,240,0,1,,,,,,,,,,,,,,,0,,,66,0
534720,set_tempo,40,1,0,,,,,,,,,,,,603743,,,,,,,
534811,control_change,91,0,2,,,,,,,,,,,,,,,0,64,127,,
534960,note_on,0,0,1,,,,,,,,,,,,,,,0,,,65,45
534960,note_on,240,0,1,,,,,,,,,,,,,,,0,,,66,0
534960,note_on,149,0,2,,,,,,,,,,,,,,,0,,,37,0
534960,note_on,0,0,2,,,,,,,,,,,,,,,0,,,37,26
534960,set_tempo,240,1,0,,,,,,,,,,,,606919,,,,,,,
535200,set_tempo,240,1,0,,,,,,,,,,,,610190,,,,,,,
535200,note_on,0,0,2,,,,,,,,,,,,,,,0,,,44,0
535200,note_on,0,0,2,,,,,,,,,,,,,,,0,,,45,26
535200,note_on,240,0,2,,,,,,,,,,,,,,,0,,,37,0
535200,note_on,240,0,1,,,,,,,,,,,,,,,0,,,65,0
535200,note_on,0,0,1,,,,,,,,,,,,,,,0,,,60,0
535200,note_on,0,0,1,,,,,,,,,,,,,,,0,,,60,41
535200,note_on,0,0,1,,,,,,,,,,,,,,,0,,,65,49
535200,note_on,0,0,2,,,,,,,,,,,,,,,0,,,37,26
535440,note_on,240,0,2,,,,,,,,,,,,,,,0,,,37,0
535440,set_tempo,240,1,0,,,,,,,,,,,,613434,,,,,,,
535440,note_on,0,0,1,,,,,,,,,,,,,,,0,,,64,45
535440,note_on,0,0,2,,,,,,,,,,,,,,,0,,,37,26
535440,note_on,240,0,1,,,,,,,,,,,,,,,0,,,65,0
535640,set_tempo,200,1,0,,,,,,,,,,,,616776,,,,,,,
535680,note_on,0,0,2,,,,,,,,,,,,,,,0,,,44,31
535680,note_on,0,0,2,,,,,,,,,,,,,,,0,,,37,26
535680,control_change,0,0,2,,,,,,,,,,,,,,,0,64,0,,
535680,note_on,240,0,2,,,,,,,,,,,,,,,0,,,37,0
535680,set_tempo,40,1,0,,,,,,,,,,,,564812,,,,,,,
535680,note_on,240,0,1,,,,,,,,,,,,,,,0,,,64,0
535680,note_on,0,0,1,,,,,,,,,,,,,,,0,,,60,0
535680,note_on,0,0,1,,,,,,,,,,,,,,,0,,,61,45
535680,note_on,0,0,1,,,,,,,,,,,,,,,0,,,65,45
535680,note_on,0,0,2,,,,,,,,,,,,,,,0,,,45,0
535720,control_change,40,0,2,,,,,,,,,,,,,,,0,64,127,,
535840,note_on,120,0,2,,,,,,,,,,,,,,,0,,,44,0
535840,note_on,0,0,2,,,,,,,,,,,,,,,0,,,43,28
536000,note_on,0,0,2,,,,,,,,,,,,,,,0,,,44,28
536000,note_on,160,0,2,,,,,,,,,,,,,,,0,,,43,0
536160,note_on,160,0,2,,,,,,,,,,,,,,,0,,,44,0
536160,note_on,0,0,2,,,,,,,,,,,,,,,0,,,45,31
536185,control_change,25,0,2,,,,,,,,,,,,,,,0,64,0,,
536215,control_change,30,0,2,,,,,,,,,,,,,,,0,64,127,,
536320,note_on,105,0,2,,,,,,,,,,,,,,,0,,,45,0
536320,note_on,0,0,2,,,,,,,,,,,,,,,0,,,44,27
536480,note_on,160,0,2,,,,,,,,,,,,,,,0,,,44,0
536480,note_on,0,0,2,,,,,,,,,,,,,,,0,,,43,27
536640,note_on,160,0,2,,,,,,,,,,,,,,,0,,,43,0
536640,note_on,0,0,2,,,,,,,,,,,,,,,0,,,44,32
536640,set_tempo,960,1,0,,,,,,,,,,,,564812,,,,,,,
536660,control_change,20,0,2,,,,,,,,,,,,,,,0,64,0,,
536700,control_change,40,0,2,,,,,,,,,,,,,,,0,64,127,,
536800,note_on,0,0,2,,,,,,,,,,,,,,,0,,,41,28
536800,note_on,100,0,2,,,,,,,,,,,,,,,0,,,44,0
536800,set_tempo,160,1,0,,,,,,,,,,,,567698,,,,,,,
536920,set_tempo,120,1,0,,,,,,,,,,,,570505,,,,,,,
536960,note_on,160,0,2,,,,,,,,,,,,,,,0,,,41,0
536960,note_on,0,0,2,,,,,,,,,,,,,,,0,,,40,28
537080,set_tempo,160,1,0,,,,,,,,,,,,573394,,,,,,,
537120,note_on,0,0,2,,,,,,,,,,,,,,,0,,,41,32
537120,note_on,160,0,2,,,,,,,,,,,,,,,0,,,40,0
537120,note_on,0,0,2,,,,,,,,,,,,,,,0,,,37,0
537130,control_change,10,0,2,,,,,,,,,,,,,,,0,64,0,,
537160,control_change,30,0,2,,,,,,,,,,,,,,,0,64,127,,
537200,set_tempo,120,1,0,,,,,,,,,,,,576258,,,,,,,
537280,note_on,0,0,2,,,,,,,,,,,,,,,0,,,37,27
537280,note_on,120,0,2,,,,,,,,,,,,,,,0,,,41,0
537360,set_tempo,160,1,0,,,,,,,,,,,,579206,,,,,,,
537440,note_on,160,0,2,,,,,,,,,,,,,,,0,,,37,0
537440,note_on,0,0,2,,,,,,,,,,,,,,,0,,,38,28
537480,set_tempo,120,1,0,,,,,,,,,,,,582185,,,,,,,
537600,note_on,0,0,1,,,,,,,,,,,,,,,0,,,53,40
537600,note_on,0,0,1,,,,,,,,,,,,,,,0,,,61,0
537600,note_on,1920,0,1,,,,,,,,,,,,,,,0,,,65,0
537600,note_on,160,0,2,,,,,,,,,,,,,,,0,,,38,0
537600,note_on,0,0,1,,,,,,,,,,,,,,,0,,,61,47
537600,note_on,0,0,2,,,,,,,,,,,,,,,0,,,37,26
537600,note_on,0,0,1,,,,,,,,,,,,,,,0,,,56,40
537600,set_tempo,120,1,0,,,,,,,,,,,,626894,,,,,,,
537600,control_change,0,0,2,,,,,,,,,,,,,,,0,64,0,,
537840,note_on,0,0,2,,,,,,,,,,,,,,,0,,,37,26
537840,note_on,240,0,2,,,,,,,,,,,,,,,0,,,37,0
538080,note_on,240,0,2,,,,,,,,,,,,,,,0,,,37,0
538080,note_on,0,0,2,,,,,,,,,,,,,,,0,,,37,26
538320,note_on,240,0,2,,,,,,,,,,,,,,,0,,,37,0
538320,note_on,0,0,2,,,,,,,,,,,,,,,0,,,37,26
538560,note_on,0,0,1,,,,,,,,,,,,,,,0,,,56,0
538560,set_tempo,960,1,0,,,,,,,,,,,,616776,,,,,,,
538560,note_on,960,0,1,,,,,,,,,,,,,,,0,,,61,0
538560,note_on,240,0,2,,,,,,,,,,,,,,,0,,,37,0
538560,note_on,0,0,2,,,,,,,,,,,,,,,0,,,37,26
538560,note_on,0,0,1,,,,,,,,,,,,,,,0,,,65,46
538560,note_on,0,0,1,,,,,,,,,,,,,,,0,,,53,0
538800,note_on,240,0,1,,,,,,,,,,,,,,,0,,,65,0
538800,note_on,240,0,2,,,,,,,,,,,,,,,0,,,37,0
538800,note_on,0,0,2,,,,,,,,,,,,,,,0,,,37,26
539040,note_on,240,0,1,,,,,,,,,,,,,,,0,,,68,46
539040,note_on,240,0,2,,,,,,,,,,,,,,,0,,,37,0
539040,note_on,0,0,2,,,,,,,,,,,,,,,0,,,37,26
539280,note_on,240,0,2,,,,,,,,,,,,,,,0,,,37,0
539280,note_on,240,0,1,,,,,,,,,,,,,,,0,,,68,0
539280,note_on,0,0,2,,,,,,,,,,,,,,,0,,,37,26
539520,note_on,240,0,2,,,,,,,,,,,,,,,0,,,37,0
539520,note_on,0,0,2,,,,,,,,,,,,,,,0,,,36,26
539520,note_on,240,0,1,,,,,,,,,,,,,,,0,,,54,40
539520,note_on,0,0,1,,,,,,,,,,,,,,,0,,,57,40
539520,note_on,0,0,1,,,,,,,,,,,,,,,0,,,63,47
539520,set_tempo,960,1,0,,,,,,,,,,,,626894,,,,,,,
539760,note_on,240,0,2,,,,,,,,,,,,,,,0,,,36,0
539760,note_on,0,0,2,,,,,,,,,,,,,,,0,,,36,26
540000,note_on,0,0,2,,,,,,,,,,,,,,,0,,,36,26
540000,note_on,240,0,2,,,,,,,,,,,,,,,0,,,36,0
540240,note_on,240,0,2,,,,,,,,,,,,,,,0,,,36,0
540240,note_on,0,0,2,,,,,,,,,,,,,,,0,,,36,26
540480,note_on,0,0,2,,,,,,,,,,,,,,,0,,,36,26
540480,note_on,240,0,2,,,,,,,,,,,,,,,0,,,36,0
540480,note_on,0,0,1,,,,,,,,,,,,,,,0,,,54,0
540480,note_on,960,0,1,,,,,,,,,,,,,,,0,,,63,0
540480,set_tempo,960,1,0,,,,,,,,,,,,613434,,,,,,,
540480,note_on,0,0,1,,,,,,,,,,,,,,,0,,,57,0
540480,note_on,0,0,1,,,,,,,,,,,,,,,0,,,66,45
540720,note_on,0,0,2,,,,,,,,,,,,,,,0,,,36,26
540720,note_on,240,0,2,,,,,,,,,,,,,,,0,,,36,0
540720,note_on,240,0,1,,,,,,,,,,,,,,,0,,,66,0
540960,note_on,240,0,1,,,,,,,,,,,,,,,0,,,69,45
540960,note_on,240,0,2,,,,,,,,,,,,,,,0,,,36,0
540960,note_on,0,0,2,,,,,,,,,,,,,,,0,,,36,26
541200,note_on,240,0,1,,,,,,,,,,,,,,,0,,,69,0
541200,note_on,240,0,2,,,,,,,,,,,,,,,0,,,36,0
541200,note_on,0,0,2,,,,,,,,,,,,,,,0,,,36,26
541440,set_tempo,960,1,0,,,,,,,,,,,,606919,,,,,,,
541440,note_on,0,0,2,,,,,,,,,,,,,,,0,,,35,26
541440,note_on,240,0,1,,,,,,,,,,,,,,,0,,,69,48
541440,control_change,0,0,2,,,,,,,,,,,,,,,0,64,127,,
541440,note_on,240,0,2,,,,,,,,,,,,,,,0,,,36,0
541680,note_on,240,0,2,,,,,,,,,,,,,,,0,,,35,0
541680,note_on,0,0,1,,,,,,,,,,,,,,,0,,,68,45
541680,note_on,240,0,1,,,,,,,,,,,,,,,0,,,69,0
541680,note_on,0,0,2,,,,,,,,,,,,,,,0,,,35,26
541920,note_on,0,0,2,,,,,,,,,,,,,,,0,,,42,26
541920,note_on,0,0,1,,,,,,,,,,,,,,,0,,,71,48
541920,note_on,0,0,2,,,,,,,,,,,,,,,0,,,35,26
541920,note_on,240,0,1,,,,,,,,,,,,,,,0,,,68,0
541920,note_on,0,0,1,,,,,,,,,,,,,,,0,,,63,40
541920,note_on,240,0,2,,,,,,,,,,,,,,,0,,,35,0
542160,note_on,0,0,1,,,,,,,,,,,,,,,0,,,69,45
542160,note_on,240,0,2,,,,,,,,,,,,,,,0,,,35,0
542160,note_on,240,0,1,,,,,,,,,,,,,,,0,,,71,0
542160,note_on,0,0,2,,,,,,,,,,,,,,,0,,,35,26
542360,set_tempo,920,1,0,,,,,,,,,,,,603743,,,,,,,
542400,note_on,240,0,2,,,,,,,,,,,,,,,0,,,35,0
542400,note_on,0,0,1,,,,,,,,,,,,,,,0,,,63,42
542400,note_on,0,0,1,,,,,,,,,,,,,,,0,,,69,50
542400,note_on,240,0,1,,,,,,,,,,,,,,,0,,,69,0
542400,note_on,0,0,2,,,,,,,,,,,,,,,0,,,42,0
542400,note_on,0,0,2,,,,,,,,,,,,,,,0,,,47,26
542400,note_on,0,0,2,,,,,,,,,,,,,,,0,,,35,26
542400,control_change,0,0,2,,,,,,,,,,,,,,,0,64,0,,
542400,note_on,0,0,1,,,,,,,,,,,,,,,0,,,63,0
542491,control_change,91,0,2,,,,,,,,,,,,,,,0,64,127,,
542560,set_tempo,200,1,0,,,,,,,,,,,,606919,,,,,,,
542640,note_on,0,0,2,,,,,,,,,,,,,,,0,,,35,26
542640,note_on,240,0,1,,,,,,,,,,,,,,,0,,,69,0
542640,note_on,0,0,1,,,,,,,,,,,,,,,0,,,68,45
542640,note_on,149,0,2,,,,,,,,,,,,,,,0,,,35,0
542760,set_tempo,200,1,0,,,,,,,,,,,,610190,,,,,,,
542880,note_on,240,0,1,,,,,,,,,,,,,,,0,,,68,0
542880,note_on,0,0,1,,,,,,,,,,,,,,,0,,,68,49
542880,note_on,0,0,1,,,,,,,,,,,,,,,0,,,63,0
542880,note_on,0,0,2,,,,,,,,,,,,,,,0,,,35,26
542880,note_on,0,0,2,,,,,,,,,,,,,,,0,,,48,26
542880,note_on,0,0,2,,,,,,,,,,,,,,,0,,,47,0
542880,note_on,240,0,2,,,,,,,,,,,,,,,0,,,35,0
542880,note_on,0,0,1,,,,,,,,,,,,,,,0,,,63,41
542960,set_tempo,200,1,0,,,,,,,,,,,,613434,,,,,,,
543120,note_on,0,0,1,,,,,,,,,,,,,,,0,,,67,45
543120,note_on,240,0,2,,,,,,,,,,,,,,,0,,,35,0
543120,note_on,0,0,2,,,,,,,,,,,,,,,0,,,35,26
543120,note_on,240,0,1,,,,,,,,,,,,,,,0,,,68,0
543160,set_tempo,200,1,0,,,,,,,,,,,,616776,,,,,,,
543320,set_tempo,160,1,0,,,,,,,,,,,,620155,,,,,,,
543360,note_on,0,0,2,,,,,,,,,,,,,,,0,,,48,0
543360,note_on,0,0,2,,,,,,,,,,,,,,,0,,,47,31
543360,note_on,0,0,2,,,,,,,,,,,,,,,0,,,40,26
543360,control_change,0,0,2,,,,,,,,,,,,,,,0,64,0,,
543360,set_tempo,40,1,0,,,,,,,,,,,,564812,,,,,,,
543360,note_on,240,0,2,,,,,,,,,,,,,,,0,,,35,0
543360,note_on,0,0,1,,,,,,,,,,,,,,,0,,,68,45
543360,note_on,240,0,1,,,,,,,,,,,,,,,0,,,67,0
543360,note_on,0,0,1,,,,,,,,,,,,,,,0,,,63,0
543360,note_on,0,0,1,,,,,,,,,,,,,,,0,,,64,45
543400,control_change,40,0,2,,,,,,,,,,,,,,,0,64,127,,
543520,note_on,120,0,2,,,,,,,,,,,,,,,0,,,47,0
543520,note_on,0,0,2,,,,,,,,,,,,,,,0,,,46,28
543680,note_on,0,0,2,,,,,,,,,,,,,,,0,,,47,28
543680,note_on,160,0,2,,,,,,,,,,,,,,,0,,,46,0
543840,note_on,160,0,2,,,,,,,,,,,,,,,0,,,47,0
543840,note_on,0,0,2,,,,,,,,,,,,,,,0,,,48,31
543865,control_change,25,0,2,,,,,,,,,,,,,,,0,64,0,,
543895,control_change,30,0,2,,,,,,,,,,,,,,,0,64,127,,
544000,note_on,0,0,2,,,,,,,,,,,,,,,0,,,47,27
544000,note_on,105,0,2,,,,,,,,,,,,,,,0,,,48,0
544160,note_on,0,0,2,,,,,,,,,,,,,,,0,,,46,27
544160,note_on,160,0,2,,,,,,,,,,,,,,,0,,,47,0
544320,note_on,0,0,2,,,,,,,,,,,,,,,0,,,47,32
544320,note_on,160,0,2,,,,,,,,,,,,,,,0,,,46,0
544320,set_tempo,960,1,0,,,,,,,,,,,,564812,,,,,,,
544340,control_change,20,0,2,,,,,,,,,,,,,,,0,64,0,,
544380,control_change,40,0,2,,,,,,,,,,,,,,,0,64,127,,
544480,set_tempo,160,1,0,,,,,,,,,,,,567698,,,,,,,
544480,note_on,0,0,2,,,,,,,,,,,,,,,0,,,44,28
544480,note_on,100,0,2,,,,,,,,,,,,,,,0,,,47,0
544600,set_tempo,120,1,0,,,,,,,,,,,,570505,,,,,,,
544640,note_on,0,0,2,,,,,,,,,,,,,,,0,,,43,28
544640,note_on,160,0,2,,,,,,,,,,,,,,,0,,,44,0
544760,set_tempo,160,1,0,,,,,,,,,,,,573394,,,,,,,
544800,note_on,0,0,2,,,,,,,,,,,,,,,0,,,40,0
544800,note_on,160,0,2,,,,,,,,,,,,,,,0,,,43,0
544800,note_on,0,0,2,,,,,,,,,,,,,,,0,,,44,32
544810,control_change,10,0,2,,,,,,,,,,,,,,,0,64,0,,
544840,control_change,30,0,2,,,,,,,,,,,,,,,0,64,127,,
544880,set_tempo,120,1,0,,,,,,,,,,,,576258,,,,,,,
544960,note_on,120,0,2,,,,,,,,,,,,,,,0,,,44,0
544960,note_on,0,0,2,,,,,,,,,,,,,,,0,,,40,27
545040,set_tempo,160,1,0,,,,,,,,,,,,579206,,,,,,,
545120,note_on,0,0,2,,,,,,,,,,,,,,,0,,,41,28
545120,note_on,160,0,2,,,,,,,,,,,,,,,0,,,40,0
545160,set_tempo,120,1,0,,,,,,,,,,,,582185,,,,,,,
545280,set_tempo,120,1,0,,,,,,,,,,,,582185,,,,,,,
545280,note_on,0,0,2,,,,,,,,,,,,,,,0,,,40,38
545280,control_change,0,0,2,,,,,,,,,,,,,,,0,64,0,,
545280,note_on,1920,0,1,,,,,,,,,,,,,,,0,,,68,0
545280,note_on,0,0,1,,,,,,,,,,,,,,,0,,,64,0
545280,note_on,0,0,1,,,,,,,,,,,,,,,0,,,64,35
545280,note_on,160,0,2,,,,,,,,,,,,,,,0,,,41,0
545520,note_on,240,0,1,,,,,,,,,,,,,,,0,,,64,0
545520,note_on,0,0,1,,,,,,,,,,,,,,,0,,,64,35
545760,note_on,240,0,1,,,,,,,,,,,,,,,0,,,64,0
545760,note_on,0,0,1,,,,,,,,,,,,,,,0,,,64,35
546000,note_on,240,0,1,,,,,,,,,,,,,,,0,,,64,0
546000,note_on,0,0,1,,,,,,,,,,,,,,,0,,,64,35
546240,note_on,0,0,1,,,,,,,,,,,,,,,0,,,64,35
546240,note_on,240,0,1,,,,,,,,,,,,,,,0,,,64,0
546240,set_tempo,960,1,0,,,,,,,,,,,,579206,,,,,,,
546240,note_on,960,0,2,,,,,,,,,,,,,,,0,,,40,0
546240,note_on,0,0,2,,,,,,,,,,,,,,,0,,,44,37
546480,note_on,0,0,1,,,,,,,,,,,,,,,0,,,64,35
546480,note_on,240,0,1,,,,,,,,,,,,,,,0,,,64,0
546480,note_on,240,0,2,,,,,,,,,,,,,,,0,,,44,0
546720,note_on,0,0,1,,,,,,,,,,,,,,,0,,,64,35
546720,note_on,240,0,2,,,,,,,,,,,,,,,0,,,47,37
546720,note_on,240,0,1,,,,,,,,,,,,,,,0,,,64,0
546960,note_on,240,0,1,,,,,,,,,,,,,,,0,,,64,0
546960,note_on,0,0,1,,,,,,,,,,,,,,,0,,,64,35
546960,note_on,240,0,2,,,,,,,,,,,,,,,0,,,47,0
547200,control_change,240,0,2,,,,,,,,,,,,,,,0,64,0,,
547200,set_tempo,960,1,0,,,,,,,,,,,,579206,,,,,,,
547200,note_on,240,0,1,,,,,,,,,,,,,,,0,,,64,0
547200,note_on,0,0,1,,,,,,,,,,,,,,,0,,,65,35
547200,note_on,0,0,1,,,,,,,,,,,,,,,0,,,64,35
547200,note_on,0,0,2,,,,,,,,,,,,,,,0,,,40,38
547440,note_on,240,0,1,,,,,,,,,,,,,,,0,,,64,0
547440,note_on,0,0,1,,,,,,,,,,,,,,,0,,,65,0
547440,note_on,0,0,1,,,,,,,,,,,,,,,0,,,65,35
547440,note_on,0,0,1,,,,,,,,,,,,,,,0,,,64,35
547680,note_on,0,0,1,,,,,,,,,,,,,,,0,,,65,35
547680,note_on,240,0,1,,,,,,,,,,,,,,,0,,,64,0
547680,note_on,0,0,1,,,,,,,,,,,,,,,0,,,65,0
547680,note_on,0,0,1,,,,,,,,,,,,,,,0,,,64,35
547920,note_on,0,0,1,,,,,,,,,,,,,,,0,,,65,0
547920,note_on,0,0,1,,,,,,,,,,,,,,,0,,,65,35
547920,note_on,240,0,1,,,,,,,,,,,,,,,0,,,64,0
547920,note_on,0,0,1,,,,,,,,,,,,,,,0,,,64,35
548160,note_on,240,0,1,,,,,,,,,,,,,,,0,,,64,0
548160,note_on,0,0,1,,,,,,,,,,,,,,,0,,,65,0
548160,note_on,0,0,1,,,,,,,,,,,,,,,0,,,65,35
548160,note_on,0,0,1,,,,,,,,,,,,,,,0,,,64,35
548160,set_tempo,960,1,0,,,,,,,,,,,,573394,,,,,,,
548160,note_on,960,0,2,,,,,,,,,,,,,,,0,,,40,0
548160,note_on,0,0,2,,,,,,,,,,,,,,,0,,,45,37
548400,note_on,0,0,1,,,,,,,,,,,,,,,0,,,64,35
548400,note_on,0,0,1,,,,,,,,,,,,,,,0,,,65,35
548400,note_on,0,0,1,,,,,,,,,,,,,,,0,,,65,0
548400,note_on,240,0,1,,,,,,,,,,,,,,,0,,,64,0
548400,note_on,240,0,2,,,,,,,,,,,,,,,0,,,45,0
548640,note_on,240,0,2,,,,,,,,,,,,,,,0,,,48,37
548640,note_on,240,0,1,,,,,,,,,,,,,,,0,,,64,0
548640,note_on,0,0,1,,,,,,,,,,,,,,,0,,,65,0
548640,note_on,0,0,1,,,,,,,,,,,,,,,0,,,65,35
548640,note_on,0,0,1,,,,,,,,,,,,,,,0,,,64,35
548880,note_on,0,0,1,,,,,,,,,,,,,,,0,,,64,35
548880,note_on,0,0,1,,,,,,,,,,,,,,,0,,,65,35
548880,note_on,240,0,2,,,,,,,,,,,,,,,0,,,48,0
548880,note_on,0,0,1,,,,,,,,,,,,,,,0,,,65,0
548880,note_on,240,0,1,,,,,,,,,,,,,,,0,,,64,0
549080,set_tempo,920,1,0,,,,,,,,,,,,582185,,,,,,,
549120,note_on,240,0,2,,,,,,,,,,,,,,,0,,,50,41
549120,note_on,240,0,1,,,,,,,,,,,,,,,0,,,64,0
549120,note_on,0,0,1,,,,,,,,,,,,,,,0,,,65,0
549120,note_on,0,0,1,,,,,,,,,,,,,,,0,,,65,36
549120,note_on,0,0,1,,,,,,,,,,,,,,,0,,,64,36
549133,control_change,13,0,2,,,,,,,,,,,,,,,0,64,127,,
549280,set_tempo,200,1,0,,,,,,,,,,,,579206,,,,,,,
549360,note_on,0,0,1,,,,,,,,,,,,,,,0,,,64,0
549360,note_on,0,0,1,,,,,,,,,,,,,,,0,,,64,38
549360,note_on,240,0,1,,,,,,,,,,,,,,,0,,,65,0
549360,note_on,0,0,2,,,,,,,,,,,,,,,0,,,48,42
549360,note_on,0,0,1,,,,,,,,,,,,,,,0,,,65,38
549360,note_on,227,0,2,,,,,,,,,,,,,,,0,,,50,0
549480,set_tempo,200,1,0,,,,,,,,,,,,576258,,,,,,,
549587,control_change,227,0,2,,,,,,,,,,,,,,,0,64,0,,
549600,note_on,0,0,1,,,,,,,,,,,,,,,0,,,64,39
549600,note_on,0,0,1,,,,,,,,,,,,,,,0,,,64,0
549600,note_on,240,0,1,,,,,,,,,,,,,,,0,,,65,0
549600,note_on,0,0,2,,,,,,,,,,,,,,,0,,,48,44
549600,note_on,13,0,2,,,,,,,,,,,,,,,0,,,48,0
549600,note_on,0,0,1,,,,,,,,,,,,,,,0,,,65,39
549658,control_change,58,0,2,,,,,,,,,,,,,,,0,64,127,,
549680,set_tempo,200,1,0,,,,,,,,,,,,573394,,,,,,,
549840,note_on,182,0,2,,,,,,,,,,,,,,,0,,,48,0
549840,note_on,0,0,2,,,,,,,,,,,,,,,0,,,47,46
549840,note_on,0,0,1,,,,,,,,,,,,,,,0,,,64,0
549840,note_on,0,0,1,,,,,,,,,,,,,,,0,,,64,41
549840,set_tempo,160,1,0,,,,,,,,,,,,570505,,,,,,,
549840,note_on,240,0,1,,,,,,,,,,,,,,,0,,,65,0
549840,note_on,0,0,1,,,,,,,,,,,,,,,0,,,65,41
550040,set_tempo,200,1,0,,,,,,,,,,,,567698,,,,,,,
550080,note_on,0,0,2,,,,,,,,,,,,,,,0,,,47,47
550080,note_on,240,0,2,,,,,,,,,,,,,,,0,,,47,0
550080,note_on,240,0,1,,,,,,,,,,,,,,,0,,,65,0
550080,note_on,0,0,1,,,,,,,,,,,,,,,0,,,64,0
550080,note_on,0,0,1,,,,,,,,,,,,,,,0,,,62,43
550080,note_on,0,0,1,,,,,,,,,,,,,,,0,,,65,43
550119,control_change,39,0,2,,,,,,,,,,,,,,,0,64,0,,
550171,control_change,52,0,2,,,,,,,,,,,,,,,0,64,127,,
550240,set_tempo,200,1,0,,,,,,,,,,,,564812,,,,,,,
550320,note_on,0,0,1,,,,,,,,,,,,,,,0,,,65,45
550320,note_on,149,0,2,,,,,,,,,,,,,,,0,,,47,0
550320,note_on,0,0,2,,,,,,,,,,,,,,,0,,,45,49
550320,note_on,0,0,1,,,,,,,,,,,,,,,0,,,62,45
550320,note_on,0,0,1,,,,,,,,,,,,,,,0,,,62,0
550320,note_on,240,0,1,,,,,,,,,,,,,,,0,,,65,0
550400,set_tempo,160,1,0,,,,,,,,,,,,562061,,,,,,,
550560,note_on,0,0,1,,,,,,,,,,,,,,,0,,,62,47
550560,note_on,0,0,1,,,,,,,,,,,,,,,0,,,60,47
550560,note_on,0,0,1,,,,,,,,,,,,,,,0,,,62,0
550560,note_on,240,0,1,,,,,,,,,,,,,,,0,,,65,0
550560,note_on,0,0,1,,,,,,,,,,,,,,,0,,,66,47
550560,note_on,0,0,2,,,,,,,,,,,,,,,0,,,45,51
550560,note_on,240,0,2,,,,,,,,,,,,,,,0,,,45,0
550592,control_change,32,0,2,,,,,,,,,,,,,,,0,64,0,,
550600,set_tempo,200,1,0,,,,,,,,,,,,559336,,,,,,,
550644,control_change,52,0,2,,,,,,,,,,,,,,,0,64,127,,
550800,note_on,0,0,1,,,,,,,,,,,,,,,0,,,62,48
550800,note_on,0,0,1,,,,,,,,,,,,,,,0,,,60,48
550800,note_on,0,0,1,,,,,,,,,,,,,,,0,,,60,0
550800,note_on,0,0,1,,,,,,,,,,,,,,,0,,,62,0
550800,set_tempo,200,1,0,,,,,,,,,,,,556586,,,,,,,
550800,note_on,0,0,1,,,,,,,,,,,,,,,0,,,66,48
550800,note_on,240,0,1,,,,,,,,,,,,,,,0,,,66,0
550800,note_on,156,0,2,,,,,,,,,,,,,,,0,,,45,0
550800,note_on,0,0,2,,,,,,,,,,,,,,,0,,,43,53
550960,set_tempo,160,1,0,,,,,,,,,,,,553914,,,,,,,
551040,note_on,0,0,1,,,,,,,,,,,,,,,0,,,62,49
551040,set_tempo,80,1,0,,,,,,,,,,,,553914,,,,,,,
551040,note_on,240,0,2,,,,,,,,,,,,,,,0,,,43,0
551040,control_change,0,0,2,,,,,,,,,,,,,,,0,64,0,,
551040,note_on,0,0,1,,,,,,,,,,,,,,,0,,,67,49
551040,note_on,0,0,2,,,,,,,,,,,,,,,0,,,43,53
551040,note_on,0,0,1,,,,,,,,,,,,,,,0,,,59,49
551040,note_on,0,0,1,,,,,,,,,,,,,,,0,,,60,0
551040,note_on,0,0,1,,,,,,,,,,,,,,,0,,,62,0
551040,note_on,240,0,1,,,,,,,,,,,,,,,0,,,66,0
551131,control_change,91,0,2,,,,,,,,,,,,,,,0,64,127,,
551240,set_tempo,200,1,0,,,,,,,,,,,,556586,,,,,,,
551280,note_on,0,0,1,,,,,,,,,,,,,,,0,,,59,0
551280,note_on,240,0,1,,,,,,,,,,,,,,,0,,,67,0
551280,note_on,0,0,1,,,,,,,,,,,,,,,0,,,62,0
551280,note_on,0,0,2,,,,,,,,,,,,,,,0,,,41,52
551280,note_on,0,0,1,,,,,,,,,,,,,,,0,,,67,48
551280,note_on,0,0,1,,,,,,,,,,,,,,,0,,,62,48
551280,note_on,0,0,1,,,,,,,,,,,,,,,0,,,59,48
551280,note_on,149,0,2,,,,,,,,,,,,,,,0,,,43,0
551440,set_tempo,200,1,0,,,,,,,,,,,,559336,,,,,,,
551520,note_on,0,0,1,,,,,,,,,,,,,,,0,,,67,46
551520,note_on,0,0,1,,,,,,,,,,,,,,,0,,,62,46
551520,note_on,0,0,1,,,,,,,,,,,,,,,0,,,59,46
551520,note_on,0,0,1,,,,,,,,,,,,,,,0,,,59,0
551520,note_on,0,0,1,,,,,,,,,,,,,,,0,,,62,0
551520,note_on,240,0,1,,,,,,,,,,,,,,,0,,,67,0
551520,note_on,0,0,2,,,,,,,,,,,,,,,0,,,41,50
551520,note_on,240,0,2,,,,,,,,,,,,,,,0,,,41,0
551600,set_tempo,160,1,0,,,,,,,,,,,,562061,,,,,,,
551600,control_change,80,0,2,,,,,,,,,,,,,,,0,64,0,,
551703,control_change,103,0,2,,,,,,,,,,,,,,,0,64,127,,
551760,note_on,0,0,1,,,,,,,,,,,,,,,0,,,62,44
551760,note_on,0,0,1,,,,,,,,,,,,,,,0,,,67,44
551760,note_on,0,0,1,,,,,,,,,,,,,,,0,,,62,0
551760,note_on,0,0,2,,,,,,,,,,,,,,,0,,,40,48
551760,note_on,240,0,1,,,,,,,,,,,,,,,0,,,67,0
551760,note_on,0,0,1,,,,,,,,,,,,,,,0,,,59,0
551760,note_on,57,0,2,,,,,,,,,,,,,,,0,,,41,0
551760,note_on,0,0,1,,,,,,,,,,,,,,,0,,,59,44
551800,set_tempo,200,1,0,,,,,,,,,,,,564812,,,,,,,
552000,note_on,0,0,1,,,,,,,,,,,,,,,0,,,62,0
552000,note_on,0,0,1,,,,,,,,,,,,,,,0,,,59,0
552000,note_on,0,0,1,,,,,,,,,,,,,,,0,,,60,42
552000,note_on,0,0,1,,,,,,,,,,,,,,,0,,,64,42
552000,note_on,0,0,1,,,,,,,,,,,,,,,0,,,67,42
552000,note_on,0,0,2,,,,,,,,,,,,,,,0,,,40,47
552000,set_tempo,200,1,0,,,,,,,,,,,,567698,,,,,,,
552000,note_on,240,0,2,,,,,,,,,,,,,,,0,,,40,0
552000,note_on,240,0,1,,,,,,,,,,,,,,,0,,,67,0
552057,control_change,57,0,2,,,,,,,,,,,,,,,0,64,0,,
552160,set_tempo,160,1,0,,,,,,,,,,,,570505,,,,,,,
552171,control_change,114,0,2,,,,,,,,,,,,,,,0,64,127,,
552240,note_on,240,0,1,,,,,,,,,,,,,,,0,,,67,0
552240,note_on,0,0,1,,,,,,,,,,,,,,,0,,,64,0
552240,note_on,0,0,1,,,,,,,,,,,,,,,0,,,60,0
552240,note_on,0,0,1,,,,,,,,,,,,,,,0,,,60,40
552240,note_on,0,0,1,,,,,,,,,,,,,,,0,,,64,40
552240,note_on,0,0,1,,,,,,,,,,,,,,,0,,,67,40
552240,note_on,69,0,2,,,,,,,,,,,,,,,0,,,40,0
552240,note_on,0,0,2,,,,,,,,,,,,,,,0,,,38,45
552360,set_tempo,200,1,0,,,,,,,,,,,,573394,,,,,,,
552480,note_on,0,0,2,,,,,,,,,,,,,,,0,,,38,44
552480,note_on,240,0,2,,,,,,,,,,,,,,,0,,,38,0
552480,note_on,0,0,1,,,,,,,,,,,,,,,0,,,67,38
552480,note_on,0,0,1,,,,,,,,,,,,,,,0,,,60,0
552480,note_on,0,0,1,,,,,,,,,,,,,,,0,,,59,38
552480,note_on,0,0,1,,,,,,,,,,,,,,,0,,,64,0
552480,note_on,240,0,1,,,,,,,,,,,,,,,0,,,67,0
552480,note_on,0,0,1,,,,,,,,,,,,,,,0,,,65,38
552526,control_change,46,0,2,,,,,,,,,,,,,,,0,64,0,,
552560,set_tempo,200,1,0,,,,,,,,,,,,576258,,,,,,,
552594,control_change,68,0,2,,,,,,,,,,,,,,,0,64,127,,
552720,note_on,0,0,2,,,,,,,,,,,,,,,0,,,36,42
552720,note_on,126,0,2,,,,,,,,,,,,,,,0,,,38,0
552720,note_on,0,0,1,,,,,,,,,,,,,,,0,,,67,36
552720,note_on,0,0,1,,,,,,,,,,,,,,,0,,,65,36
552720,note_on,0,0,1,,,,,,,,,,,,,,,0,,,59,36
552720,set_tempo,160,1,0,,,,,,,,,,,,579206,,,,,,,
552720,note_on,0,0,1,,,,,,,,,,,,,,,0,,,59,0
552720,note_on,0,0,1,,,,,,,,,,,,,,,0,,,65,0
552720,note_on,240,0,1,,,,,,,,,,,,,,,0,,,67,0
552960,note_on,240,0,2,,,,,,,,,,,,,,,0,,,36,0
552960,note_on,0,0,2,,,,,,,,,,,,,,,0,,,48,44
552960,control_change,0,0,2,,,,,,,,,,,,,,,0,64,0,,
552960,note_on,0,0,2,,,,,,,,,,,,,,,0,,,36,44
552960,control_change,0,0,2,,,,,,,,,,,,,,,0,64,0,,
552960,set_tempo,240,1,0,,,,,,,,,,,,576258,,,,,,,
552960,note_on,0,0,1,,,,,,,,,,,,,,,0,,,72,41
552960,note_on,0,0,1,,,,,,,,,,,,,,,0,,,59,0
552960,note_on,0,0,1,,,,,,,,,,,,,,,0,,,65,0
552960,note_on,240,0,1,,,,,,,,,,,,,,,0,,,67,0
553200,note_on,240,0,1,,,,,,,,,,,,,,,0,,,72,0
553200,note_on,0,0,1,,,,,,,,,,,,,,,0,,,72,41
553440,note_on,240,0,1,,,,,,,,,,,,,,,0,,,72,0
553440,note_on,0,0,1,,,,,,,,,,,,,,,0,,,72,42
553680,note_on,0,0,1,,,,,,,,,,,,,,,0,,,72,42
553680,note_on,240,0,1,,,,,,,,,,,,,,,0,,,72,0
553920,set_tempo,960,1,0,,,,,,,,,,,,567698,,,,,,,
553920,note_on,0,0,2,,,,,,,,,,,,,,,0,,,36,0
553920,note_on,240,0,1,,,,,,,,,,,,,,,0,,,72,0
553920,note_on,0,0,1,,,,,,,,,,,,,,,0,,,72,42
553920,note_on,960,0,2,,,,,,,,,,,,,,,0,,,48,0
553920,note_on,0,0,2,,,,,,,,,,,,,,,0,,,52,44
554160,note_on,240,0,1,,,,,,,,,,,,,,,0,,,72,0
554160,note_on,0,0,1,,,,,,,,,,,,,,,0,,,72,43
554160,note_on,240,0,2,,,,,,,,,,,,,,,0,,,52,0
554400,note_on,240,0,2,,,,,,,,,,,,,,,0,,,55,45
554400,note_on,0,0,1,,,,,,,,,,,,,,,0,,,72,43
554400,note_on,240,0,1,,,,,,,,,,,,,,,0,,,72,0
554640,note_on,240,0,2,,,,,,,,,,,,,,,0,,,55,0
554640,note_on,0,0,1,,,,,,,,,,,,,,,0,,,72,44
554640,note_on,240,0,1,,,,,,,,,,,,,,,0,,,72,0
554880,note_on,0,0,1,,,,,,,,,,,,,,,0,,,73,45
554880,set_tempo,960,1,0,,,,,,,,,,,,570505,,,,,,,
554880,control_change,240,0,2,,,,,,,,,,,,,,,0,64,0,,
554880,note_on,0,0,2,,,,,,,,,,,,,,,0,,,48,49
554880,note_on,0,0,1,,,,,,,,,,,,,,,0,,,72,45
554880,note_on,240,0,1,,,,,,,,,,,,,,,0,,,72,0
555120,note_on,0,0,1,,,,,,,,,,,,,,,0,,,73,45
555120,note_on,0,0,1,,,,,,,,,,,,,,,0,,,73,0
555120,note_on,240,0,1,,,,,,,,,,,,,,,0,,,72,0
555120,note_on,0,0,1,,,,,,,,,,,,,,,0,,,72,45
555360,note_on,0,0,1,,,,,,,,,,,,,,,0,,,72,45
555360,note_on,0,0,1,,,,,,,,,,,,,,,0,,,73,0
555360,note_on,240,0,1,,,,,,,,,,,,,,,0,,,72,0
555360,note_on,0,0,1,,,,,,,,,,,,,,,0,,,73,45
555600,note_on,0,0,1,,,,,,,,,,,,,,,0,,,73,45
555600,note_on,0,0,1,,,,,,,,,,,,,,,0,,,73,0
555600,note_on,240,0,1,,,,,,,,,,,,,,,0,,,72,0
555600,note_on,0,0,1,,,,,,,,,,,,,,,0,,,72,45
555840,note_on,0,0,1,,,,,,,,,,,,,,,0,,,72,47
555840,note_on,0,0,1,,,,,,,,,,,,,,,0,,,73,47
555840,note_on,0,0,1,,,,,,,,,,,,,,,0,,,73,0
555840,note_on,0,0,2,,,,,,,,,,,,,,,0,,,53,50
555840,note_on,960,0,2,,,,,,,,,,,,,,,0,,,48,0
555840,note_on,240,0,1,,,,,,,,,,,,,,,0,,,72,0
555840,set_tempo,960,1,0,,,,,,,,,,,,564812,,,,,,,
556080,note_on,240,0,1,,,,,,,,,,,,,,,0,,,72,0
556080,note_on,0,0,1,,,,,,,,,,,,,,,0,,,73,0
556080,note_on,0,0,1,,,,,,,,,,,,,,,0,,,73,47
556080,note_on,0,0,1,,,,,,,,,,,,,,,0,,,72,47
556080,note_on,240,0,2,,,,,,,,,,,,,,,0,,,53,0
556320,note_on,240,0,1,,,,,,,,,,,,,,,0,,,72,0
556320,note_on,0,0,1,,,,,,,,,,,,,,,0,,,73,0
556320,note_on,0,0,1,,,,,,,,,,,,,,,0,,,72,47
556320,note_on,240,0,2,,,,,,,,,,,,,,,0,,,56,50
556320,note_on,0,0,1,,,,,,,,,,,,,,,0,,,73,47
556560,note_on,240,0,1,,,,,,,,,,,,,,,0,,,72,0
556560,note_on,240,0,2,,,,,,,,,,,,,,,0,,,56,0
556560,note_on,0,0,1,,,,,,,,,,,,,,,0,,,72,47
556560,note_on,0,0,1,,,,,,,,,,,,,,,0,,,73,47
556560,note_on,0,0,1,,,,,,,,,,,,,,,0,,,73,0
556760,set_tempo,920,1,0,,,,,,,,,,,,582185,,,,,,,
556800,note_on,240,0,1,,,,,,,,,,,,,,,0,,,72,0
556800,note_on,0,0,1,,,,,,,,,,,,,,,0,,,73,0
556800,note_on,0,0,1,,,,,,,,,,,,,,,0,,,73,51
556800,note_on,0,0,1,,,,,,,,,,,,,,,0,,,72,51
556800,note_on,240,0,2,,,,,,,,,,,,,,,0,,,58,59
556800,set_tempo,40,1,0,,,,,,,,,,,,559336,,,,,,,
556813,control_change,13,0,2,,,,,,,,,,,,,,,0,64,127,,
557040,note_on,240,0,1,,,,,,,,,,,,,,,0,,,73,0
557040,note_on,0,0,1,,,,,,,,,,,,,,,0,,,72,0
557040,note_on,0,0,1,,,,,,,,,,,,,,,0,,,72,53
557040,note_on,0,0,1,,,,,,,,,,,,,,,0,,,73,53
557040,note_on,227,0,2,,,,,,,,,,,,,,,0,,,58,0
557040,note_on,0,0,2,,,,,,,,,,,,,,,0,,,56,60
557120,set_tempo,320,1,0,,,,,,,,,,,,556586,,,,,,,
557267,control_change,227,0,2,,,,,,,,,,,,,,,0,64,0,,
557280,note_on,13,0,2,,,,,,,,,,,,,,,0,,,56,0
557280,note_on,0,0,2,,,,,,,,,,,,,,,0,,,56,62
557280,note_on,240,0,1,,,,,,,,,,,,,,,0,,,73,0
557280,note_on,0,0,1,,,,,,,,,,,,,,,0,,,72,0
557280,note_on,0,0,1,,,,,,,,,,,,,,,0,,,73,55
557280,note_on,0,0,1,,,,,,,,,,,,,,,0,,,72,55
557338,control_change,58,0,2,,,,,,,,,,,,,,,0,64,127,,
557440,set_tempo,320,1,0,,,,,,,,,,,,553914,,,,,,,
557520,note_on,0,0,1,,,,,,,,,,,,,,,0,,,72,0
557520,note_on,0,0,2,,,,,,,,,,,,,,,0,,,55,64
557520,note_on,0,0,1,,,,,,,,,,,,,,,0,,,73,59
557520,note_on,0,0,1,,,,,,,,,,,,,,,0,,,72,59
557520,note_on,240,0,1,,,,,,,,,,,,,,,0,,,73,0
557520,note_on,182,0,2,,,,,,,,,,,,,,,0,,,56,0
557720,set_tempo,280,1,0,,,,,,,,,,,,551217,,,,,,,
557760,note_on,240,0,1,,,,,,,,,,,,,,,0,,,73,0
557760,note_on,0,0,1,,,,,,,,,,,,,,,0,,,72,0
557760,note_on,0,0,1,,,,,,,,,,,,,,,0,,,73,61
557760,note_on,240,0,2,,,,,,,,,,,,,,,0,,,55,0
557760,note_on,0,0,2,,,,,,,,,,,,,,,0,,,55,68
557760,note_on,0,0,1,,,,,,,,,,,,,,,0,,,70,61
557799,control_change,39,0,2,,,,,,,,,,,,,,,0,64,0,,
557851,control_change,52,0,2,,,,,,,,,,,,,,,0,64,127,,
558000,note_on,240,0,1,,,,,,,,,,,,,,,0,,,73,0
558000,note_on,0,0,1,,,,,,,,,,,,,,,0,,,70,0
558000,note_on,0,0,1,,,,,,,,,,,,,,,0,,,70,63
558000,note_on,0,0,1,,,,,,,,,,,,,,,0,,,73,63
558000,note_on,149,0,2,,,,,,,,,,,,,,,0,,,55,0
558000,note_on,0,0,2,,,,,,,,,,,,,,,0,,,53,70
558040,set_tempo,320,1,0,,,,,,,,,,,,548546,,,,,,,
558240,note_on,0,0,1,,,,,,,,,,,,,,,0,,,74,68
558240,note_on,0,0,1,,,,,,,,,,,,,,,0,,,70,68
558240,note_on,0,0,1,,,,,,,,,,,,,,,0,,,68,68
558240,note_on,240,0,1,,,,,,,,,,,,,,,0,,,73,0
558240,note_on,240,0,2,,,,,,,,,,,,,,,0,,,53,0
558240,note_on,0,0,1,,,,,,,,,,,,,,,0,,,70,0
558240,note_on,0,0,2,,,,,,,,,,,,,,,0,,,53,72
558272,control_change,32,0,2,,,,,,,,,,,,,,,0,64,0,,
558324,control_change,52,0,2,,,,,,,,,,,,,,,0,64,127,,
558360,set_tempo,320,1,0,,,,,,,,,,,,545951,,,,,,,
558480,note_on,0,0,1,,,,,,,,,,,,,,,0,,,74,69
558480,note_on,0,0,1,,,,,,,,,,,,,,,0,,,70,69
558480,note_on,0,0,1,,,,,,,,,,,,,,,0,,,68,0
558480,note_on,0,0,1,,,,,,,,,,,,,,,0,,,70,0
558480,note_on,0,0,1,,,,,,,,,,,,,,,0,,,68,69
558480,note_on,0,0,2,,,,,,,,,,,,,,,0,,,51,75
558480,note_on,156,0,2,,,,,,,,,,,,,,,0,,,53,0
558480,note_on,240,0,1,,,,,,,,,,,,,,,0,,,74,0
558640,set_tempo,280,1,0,,,,,,,,,,,,543380,,,,,,,
558680,set_tempo,40,1,0,,,,,,,,,,,,543380,,,,,,,
558720,control_change,0,0,2,,,,,,,,,,,,,,,0,64,0,,
558720,note_on,240,0,2,,,,,,,,,,,,,,,0,,,51,0
558720,note_on,0,0,1,,,,,,,,,,,,,,,0,,,68,0
558720,note_on,0,0,2,,,,,,,,,,,,,,,0,,,51,75
558720,note_on,0,0,1,,,,,,,,,,,,,,,0,,,75,70
558720,note_on,0,0,1,,,,,,,,,,,,,,,0,,,70,59
558720,note_on,240,0,1,,,,,,,,,,,,,,,0,,,74,0
558720,note_on,0,0,1,,,,,,,,,,,,,,,0,,,70,0
558720,note_on,0,0,1,,,,,,,,,,,,,,,0,,,67,59
558811,control_change,91,0,2,,,,,,,,,,,,,,,0,64,127,,
558920,set_tempo,240,1,0,,,,,,,,,,,,545951,,,,,,,
558960,note_on,0,0,1,,,,,,,,,,,,,,,0,,,70,67
558960,note_on,0,0,1,,,,,,,,,,,,,,,0,,,67,67
558960,note_on,0,0,1,,,,,,,,,,,,,,,0,,,67,0
558960,note_on,0,0,1,,,,,,,,,,,,,,,0,,,75,67
558960,note_on,0,0,2,,,,,,,,,,,,,,,0,,,49,73
558960,note_on,149,0,2,,,,,,,,,,,,,,,0,,,51,0
558960,note_on,240,0,1,,,,,,,,,,,,,,,0,,,75,0
558960,note_on,0,0,1,,,,,,,,,,,,,,,0,,,70,0
559120,set_tempo,200,1,0,,,,,,,,,,,,548546,,,,,,,
559200,note_on,0,0,1,,,,,,,,,,,,,,,0,,,75,66
559200,note_on,0,0,1,,,,,,,,,,,,,,,0,,,71,56
559200,note_on,0,0,1,,,,,,,,,,,,,,,0,,,67,0
559200,note_on,0,0,1,,,,,,,,,,,,,,,0,,,70,0
559200,note_on,240,0,1,,,,,,,,,,,,,,,0,,,75,0
559200,note_on,240,0,2,,,,,,,,,,,,,,,0,,,49,0
559200,note_on,0,0,2,,,,,,,,,,,,,,,0,,,49,71
559200,note_on,0,0,1,,,,,,,,,,,,,,,0,,,68,56
559280,control_change,80,0,2,,,,,,,,,,,,,,,0,64,0,,
559320,set_tempo,200,1,0,,,,,,,,,,,,551217,,,,,,,
559383,control_change,103,0,2,,,,,,,,,,,,,,,0,64,127,,
559440,note_on,0,0,1,,,,,,,,,,,,,,,0,,,75,64
559440,note_on,0,0,1,,,,,,,,,,,,,,,0,,,71,55
559440,note_on,0,0,1,,,,,,,,,,,,,,,0,,,68,0
559440,note_on,0,0,1,,,,,,,,,,,,,,,0,,,71,0
559440,note_on,240,0,1,,,,,,,,,,,,,,,0,,,75,0
559440,note_on,0,0,1,,,,,,,,,,,,,,,0,,,68,55
559440,note_on,0,0,2,,,,,,,,,,,,,,,0,,,47,69
559440,note_on,57,0,2,,,,,,,,,,,,,,,0,,,49,0
559560,set_tempo,240,1,0,,,,,,,,,,,,553914,,,,,,,
559680,note_on,0,0,2,,,,,,,,,,,,,,,0,,,47,68
559680,note_on,240,0,2,,,,,,,,,,,,,,,0,,,47,0
559680,note_on,240,0,1,,,,,,,,,,,,,,,0,,,75,0
559680,note_on,0,0,1,,,,,,,,,,,,,,,0,,,71,0
559680,note_on,0,0,1,,,,,,,,,,,,,,,0,,,68,0
559680,note_on,0,0,1,,,,,,,,,,,,,,,0,,,67,53
559680,note_on,0,0,1,,,,,,,,,,,,,,,0,,,73,53
559680,note_on,0,0,1,,,,,,,,,,,,,,,0,,,75,63
559737,control_change,57,0,2,,,,,,,,,,,,,,,0,64,0,,
559760,set_tempo,200,1,0,,,,,,,,,,,,556586,,,,,,,
559851,control_change,114,0,2,,,,,,,,,,,,,,,0,64,127,,
559920,note_on,240,0,1,,,,,,,,,,,,,,,0,,,75,0
559920,note_on,0,0,1,,,,,,,,,,,,,,,0,,,73,0
559920,note_on,0,0,1,,,,,,,,,,,,,,,0,,,67,0
559920,note_on,0,0,1,,,,,,,,,,,,,,,0,,,73,52
559920,note_on,0,0,1,,,,,,,,,,,,,,,0,,,67,52
559920,note_on,69,0,2,,,,,,,,,,,,,,,0,,,47,0
559920,note_on,0,0,1,,,,,,,,,,,,,,,0,,,75,62
559920,note_on,0,0,2,,,,,,,,,,,,,,,0,,,46,63
559960,set_tempo,200,1,0,,,,,,,,,,,,559336,,,,,,,
560160,note_on,0,0,1,,,,,,,,,,,,,,,0,,,71,51
560160,note_on,240,0,2,,,,,,,,,,,,,,,0,,,46,0
560160,note_on,0,0,2,,,,,,,,,,,,,,,0,,,44,62
560160,note_on,0,0,1,,,,,,,,,,,,,,,0,,,67,0
560160,note_on,0,0,1,,,,,,,,,,,,,,,0,,,68,51
560160,note_on,0,0,1,,,,,,,,,,,,,,,0,,,73,0
560160,note_on,240,0,1,,,,,,,,,,,,,,,0,,,75,0
560160,note_on,0,0,1,,,,,,,,,,,,,,,0,,,75,61
560200,set_tempo,240,1,0,,,,,,,,,,,,562061,,,,,,,
560206,control_change,46,0,2,,,,,,,,,,,,,,,0,64,0,,
560274,control_change,68,0,2,,,,,,,,,,,,,,,0,64,127,,
560400,note_on,126,0,2,,,,,,,,,,,,,,,0,,,44,0
560400,note_on,0,0,1,,,,,,,,,,,,,,,0,,,71,0
560400,note_on,0,0,1,,,,,,,,,,,,,,,0,,,68,0
560400,note_on,0,0,1,,,,,,,,,,,,,,,0,,,75,60
560400,set_tempo,200,1,0,,,,,,,,,,,,564812,,,,,,,
560400,note_on,240,0,1,,,,,,,,,,,,,,,0,,,75,0
560400,note_on,0,0,2,,,,,,,,,,,,,,,0,,,59,60
560600,set_tempo,200,1,0,,,,,,,,,,,,567698,,,,,,,
560640,note_on,240,0,2,,,,,,,,,,,,,,,0,,,59,0
560640,note_on,240,0,1,,,,,,,,,,,,,,,0,,,75,0
560640,note_on,0,0,1,,,,,,,,,,,,,,,0,,,75,67
560640,note_on,0,0,1,,,,,,,,,,,,,,,0,,,76,80
560640,note_on,0,0,2,,,,,,,,,,,,,,,0,,,61,72
560640,control_change,0,0,2,,,,,,,,,,,,,,,0,64,0,,
560689,control_change,49,0,2,,,,,,,,,,,,,,,0,64,127,,
560800,note_on,0,0,1,,,,,,,,,,,,,,,0,,,64,70
560800,note_on,0,0,1,,,,,,,,,,,,,,,0,,,75,0
560800,note_on,160,0,1,,,,,,,,,,,,,,,0,,,76,0
560880,note_on,191,0,2,,,,,,,,,,,,,,,0,,,61,0
560880,note_on,0,0,2,,,,,,,,,,,,,,,0,,,59,63
560960,note_on,160,0,1,,,,,,,,,,,,,,,0,,,64,0
560960,note_on,0,0,1,,,,,,,,,,,,,,,0,,,75,60
560960,note_on,0,0,1,,,,,,,,,,,,,,,0,,,76,70
561120,note_on,0,0,2,,,,,,,,,,,,,,,0,,,59,70
561120,note_on,240,0,2,,,,,,,,,,,,,,,0,,,59,0
561120,note_on,0,0,1,,,,,,,,,,,,,,,0,,,76,79
561120,note_on,0,0,1,,,,,,,,,,,,,,,0,,,75,67
561120,note_on,0,0,1,,,,,,,,,,,,,,,0,,,75,0
561120,note_on,160,0,1,,,,,,,,,,,,,,,0,,,76,0
561123,control_change,3,0,2,,,,,,,,,,,,,,,0,64,0,,
561146,control_change,23,0,2,,,,,,,,,,,,,,,0,64,127,,
561280,note_on,0,0,1,,,,,,,,,,,,,,,0,,,64,72
561280,note_on,160,0,1,,,,,,,,,,,,,,,0,,,76,0
561280,note_on,0,0,1,,,,,,,,,,,,,,,0,,,75,0
561360,note_on,214,0,2,,,,,,,,,,,,,,,0,,,59,0
561360,note_on,0,0,2,,,,,,,,,,,,,,,0,,,58,63
561440,note_on,0,0,1,,,,,,,,,,,,,,,0,,,76,72
561440,note_on,0,0,1,,,,,,,,,,,,,,,0,,,75,61
561440,note_on,160,0,1,,,,,,,,,,,,,,,0,,,64,0
561600,note_on,0,0,1,,,,,,,,,,,,,,,0,,,73,67
561600,note_on,0,0,1,,,,,,,,,,,,,,,0,,,75,0
561600,note_on,160,0,1,,,,,,,,,,,,,,,0,,,76,0
561600,note_on,240,0,2,,,,,,,,,,,,,,,0,,,58,0
561600,note_on,0,0,2,,,,,,,,,,,,,,,0,,,58,70
561600,note_on,0,0,1,,,,,,,,,,,,,,,0,,,76,79
561626,control_change,26,0,2,,,,,,,,,,,,,,,0,64,0,,
561655,control_change,29,0,2,,,,,,,,,,,,,,,0,64,127,,
561760,note_on,0,0,1,,,,,,,,,,,,,,,0,,,64,70
561760,note_on,160,0,1,,,,,,,,,,,,,,,0,,,76,0
561760,note_on,0,0,1,,,,,,,,,,,,,,,0,,,73,0
561840,note_on,185,0,2,,,,,,,,,,,,,,,0,,,58,0
561840,note_on,0,0,2,,,,,,,,,,,,,,,0,,,56,64
561920,note_on,160,0,1,,,,,,,,,,,,,,,0,,,64,0
561920,note_on,0,0,1,,,,,,,,,,,,,,,0,,,73,60
561920,note_on,0,0,1,,,,,,,,,,,,,,,0,,,76,70
562080,note_on,240,0,2,,,,,,,,,,,,,,,0,,,56,0
562080,note_on,160,0,1,,,,,,,,,,,,,,,0,,,76,0
562080,note_on,0,0,1,,,,,,,,,,,,,,,0,,,73,0
562080,note_on,0,0,1,,,,,,,,,,,,,,,0,,,71,67
562080,note_on,0,0,1,,,,,,,,,,,,,,,0,,,73,67
562080,note_on,0,0,1,,,,,,,,,,,,,,,0,,,77,79
562080,note_on,0,0,2,,,,,,,,,,,,,,,0,,,56,70
562096,control_change,16,0,2,,,,,,,,,,,,,,,0,64,0,,
562138,control_change,42,0,2,,,,,,,,,,,,,,,0,64,127,,
562240,note_on,0,0,1,,,,,,,,,,,,,,,0,,,73,0
562240,note_on,0,0,1,,,,,,,,,,,,,,,0,,,71,0
562240,note_on,0,0,1,,,,,,,,,,,,,,,0,,,65,69
562240,note_on,160,0,1,,,,,,,,,,,,,,,0,,,77,0
562320,note_on,0,0,2,,,,,,,,,,,,,,,0,,,54,64
562320,note_on,182,0,2,,,,,,,,,,,,,,,0,,,56,0
562400,note_on,0,0,1,,,,,,,,,,,,,,,0,,,71,60
562400,note_on,0,0,1,,,,,,,,,,,,,,,0,,,73,60
562400,note_on,0,0,1,,,,,,,,,,,,,,,0,,,77,70
562400,note_on,160,0,1,,,,,,,,,,,,,,,0,,,65,0
562560,set_tempo,1960,1,0,,,,,,,,,,,,570505,,,,,,,
562560,note_on,160,0,1,,,,,,,,,,,,,,,0,,,77,0
562560,note_on,0,0,1,,,,,,,,,,,,,,,0,,,73,0
562560,note_on,0,0,1,,,,,,,,,,,,,,,0,,,71,0
562560,note_on,0,0,1,,,,,,,,,,,,,,,0,,,70,67
562560,note_on,0,0,1,,,,,,,,,,,,,,,0,,,73,67
562560,note_on,0,0,1,,,,,,,,,,,,,,,0,,,78,80
562560,note_on,240,0,2,,,,,,,,,,,,,,,0,,,54,0
562560,control_change,0,0,2,,,,,,,,,,,,,,,0,64,0,,
562560,control_change,0,0,2,,,,,,,,,,,,,,,0,64,0,,
562560,note_on,0,0,2,,,,,,,,,,,,,,,0,,,54,72
562609,control_change,49,0,2,,,,,,,,,,,,,,,0,64,127,,
562720,note_on,0,0,1,,,,,,,,,,,,,,,0,,,70,0
562720,note_on,0,0,1,,,,,,,,,,,,,,,0,,,73,0
562720,note_on,160,0,1,,,,,,,,,,,,,,,0,,,78,0
562720,set_tempo,160,1,0,,,,,,,,,,,,567698,,,,,,,
562720,note_on,0,0,1,,,,,,,,,,,,,,,0,,,66,70
562800,note_on,0,0,2,,,,,,,,,,,,,,,0,,,52,64
562800,note_on,191,0,2,,,,,,,,,,,,,,,0,,,54,0
562880,note_on,0,0,1,,,,,,,,,,,,,,,0,,,78,72
562880,note_on,0,0,1,,,,,,,,,,,,,,,0,,,73,61
562880,note_on,0,0,1,,,,,,,,,,,,,,,0,,,70,69
562880,set_tempo,160,1,0,,,,,,,,,,,,564812,,,,,,,
562880,note_on,160,0,1,,,,,,,,,,,,,,,0,,,66,0
563040,note_on,0,0,2,,,,,,,,,,,,,,,0,,,52,73
563040,note_on,240,0,2,,,,,,,,,,,,,,,0,,,52,0
563040,note_on,160,0,1,,,,,,,,,,,,,,,0,,,78,0
563040,note_on,0,0,1,,,,,,,,,,,,,,,0,,,73,0
563040,note_on,0,0,1,,,,,,,,,,,,,,,0,,,70,0
563040,note_on,0,0,1,,,,,,,,,,,,,,,0,,,71,63
563040,note_on,0,0,1,,,,,,,,,,,,,,,0,,,74,69
563040,note_on,0,0,1,,,,,,,,,,,,,,,0,,,78,82
563040,set_tempo,160,1,0,,,,,,,,,,,,562061,,,,,,,
563043,control_change,3,0,2,,,,,,,,,,,,,,,0,64,0,,
563066,control_change,23,0,2,,,,,,,,,,,,,,,0,64,127,,
563200,note_on,0,0,1,,,,,,,,,,,,,,,0,,,66,75
563200,set_tempo,160,1,0,,,,,,,,,,,,559336,,,,,,,
563200,note_on,0,0,1,,,,,,,,,,,,,,,0,,,74,0
563200,note_on,0,0,1,,,,,,,,,,,,,,,0,,,71,0
563200,note_on,160,0,1,,,,,,,,,,,,,,,0,,,78,0
563280,note_on,0,0,2,,,,,,,,,,,,,,,0,,,50,67
563280,note_on,214,0,2,,,,,,,,,,,,,,,0,,,52,0
563360,note_on,160,0,1,,,,,,,,,,,,,,,0,,,66,0
563360,note_on,0,0,1,,,,,,,,,,,,,,,0,,,78,77
563360,note_on,0,0,1,,,,,,,,,,,,,,,0,,,74,64
563360,note_on,0,0,1,,,,,,,,,,,,,,,0,,,71,64
563360,set_tempo,160,1,0,,,,,,,,,,,,556586,,,,,,,
563480,set_tempo,120,1,0,,,,,,,,,,,,553914,,,,,,,
563520,note_on,0,0,2,,,,,,,,,,,,,,,0,,,50,73
563520,note_on,240,0,2,,,,,,,,,,,,,,,0,,,50,0
563520,note_on,160,0,1,,,,,,,,,,,,,,,0,,,78,0
563520,note_on,0,0,1,,,,,,,,,,,,,,,0,,,76,69
563520,note_on,0,0,1,,,,,,,,,,,,,,,0,,,70,69
563520,note_on,0,0,1,,,,,,,,,,,,,,,0,,,71,0
563520,note_on,0,0,1,,,,,,,,,,,,,,,0,,,74,0
563520,note_on,0,0,1,,,,,,,,,,,,,,,0,,,78,82
563546,control_change,26,0,2,,,,,,,,,,,,,,,0,64,0,,
563575,control_change,29,0,2,,,,,,,,,,,,,,,0,64,127,,
563680,note_on,0,0,1,,,,,,,,,,,,,,,0,,,66,73
563680,note_on,0,0,1,,,,,,,,,,,,,,,0,,,70,0
563680,note_on,160,0,1,,,,,,,,,,,,,,,0,,,78,0
563680,note_on,0,0,1,,,,,,,,,,,,,,,0,,,76,0
563720,set_tempo,240,1,0,,,,,,,,,,,,556586,,,,,,,
563760,note_on,0,0,2,,,,,,,,,,,,,,,0,,,49,67
563760,note_on,185,0,2,,,,,,,,,,,,,,,0,,,50,0
563840,note_on,0,0,1,,,,,,,,,,,,,,,0,,,78,73
563840,note_on,0,0,1,,,,,,,,,,,,,,,0,,,76,61
563840,note_on,0,0,1,,,,,,,,,,,,,,,0,,,70,68
563840,note_on,160,0,1,,,,,,,,,,,,,,,0,,,66,0
563920,set_tempo,200,1,0,,,,,,,,,,,,559336,,,,,,,
564000,note_on,240,0,2,,,,,,,,,,,,,,,0,,,49,0
564000,note_on,0,0,2,,,,,,,,,,,,,,,0,,,47,72
564000,note_on,160,0,1,,,,,,,,,,,,,,,0,,,78,0
564000,note_on,0,0,1,,,,,,,,,,,,,,,0,,,78,80
564000,note_on,0,0,1,,,,,,,,,,,,,,,0,,,74,67
564000,note_on,0,0,1,,,,,,,,,,,,,,,0,,,71,67
564000,note_on,0,0,1,,,,,,,,,,,,,,,0,,,70,0
564000,note_on,0,0,1,,,,,,,,,,,,,,,0,,,76,0
564016,control_change,16,0,2,,,,,,,,,,,,,,,0,64,0,,
564058,control_change,42,0,2,,,,,,,,,,,,,,,0,64,127,,
564120,set_tempo,200,1,0,,,,,,,,,,,,562061,,,,,,,
564160,note_on,0,0,1,,,,,,,,,,,,,,,0,,,71,0
564160,note_on,0,0,1,,,,,,,,,,,,,,,0,,,74,0
564160,note_on,160,0,1,,,,,,,,,,,,,,,0,,,78,0
564160,note_on,0,0,1,,,,,,,,,,,,,,,0,,,66,70
564240,note_on,0,0,2,,,,,,,,,,,,,,,0,,,62,66
564240,note_on,182,0,2,,,,,,,,,,,,,,,0,,,47,0
564240,note_on,0,0,2,,,,,,,,,,,,,,,0,,,50,55
564320,set_tempo,200,1,0,,,,,,,,,,,,564812,,,,,,,
564320,note_on,0,0,1,,,,,,,,,,,,,,,0,,,78,70
564320,note_on,0,0,1,,,,,,,,,,,,,,,0,,,74,60
564320,note_on,160,0,1,,,,,,,,,,,,,,,0,,,66,0
564320,note_on,0,0,1,,,,,,,,,,,,,,,0,,,71,60
564480,note_on,0,0,1,,,,,,,,,,,,,,,0,,,71,0
564480,note_on,0,0,1,,,,,,,,,,,,,,,0,,,78,67
564480,note_on,0,0,1,,,,,,,,,,,,,,,0,,,74,0
564480,note_on,240,0,2,,,,,,,,,,,,,,,0,,,50,0
564480,note_on,0,0,2,,,,,,,,,,,,,,,0,,,64,72
564480,note_on,0,0,2,,,,,,,,,,,,,,,0,,,52,72
564480,control_change,0,0,2,,,,,,,,,,,,,,,0,64,0,,
564480,control_change,0,0,2,,,,,,,,,,,,,,,0,64,0,,
564480,control_change,0,0,2,,,,,,,,,,,,,,,0,64,0,,
564480,note_on,0,0,2,,,,,,,,,,,,,,,0,,,62,0
564480,note_on,0,0,1,,,,,,,,,,,,,,,0,,,79,80
564480,note_on,160,0,1,,,,,,,,,,,,,,,0,,,78,0
564520,set_tempo,200,1,0,,,,,,,,,,,,567698,,,,,,,
564529,control_change,49,0,2,,,,,,,,,,,,,,,0,64,127,,
564640,note_on,0,0,1,,,,,,,,,,,,,,,0,,,78,0
564640,note_on,0,0,1,,,,,,,,,,,,,,,0,,,67,70
564640,note_on,160,0,1,,,,,,,,,,,,,,,0,,,79,0
564720,note_on,0,0,2,,,,,,,,,,,,,,,0,,,50,53
564720,note_on,0,0,2,,,,,,,,,,,,,,,0,,,62,63
564720,note_on,0,0,2,,,,,,,,,,,,,,,0,,,64,0
564720,note_on,191,0,2,,,,,,,,,,,,,,,0,,,52,0
564760,set_tempo,240,1,0,,,,,,,,,,,,564812,,,,,,,
564800,note_on,160,0,1,,,,,,,,,,,,,,,0,,,67,0
564800,note_on,0,0,1,,,,,,,,,,,,,,,0,,,78,60
564800,note_on,0,0,1,,,,,,,,,,,,,,,0,,,79,70
564960,note_on,0,0,2,,,,,,,,,,,,,,,0,,,50,61
564960,note_on,240,0,2,,,,,,,,,,,,,,,0,,,50,0
564960,note_on,0,0,2,,,,,,,,,,,,,,,0,,,62,0
564960,note_on,0,0,1,,,,,,,,,,,,,,,0,,,78,0
564960,note_on,160,0,1,,,,,,,,,,,,,,,0,,,79,0
564960,note_on,0,0,1,,,,,,,,,,,,,,,0,,,79,80
564960,note_on,0,0,2,,,,,,,,,,,,,,,0,,,62,72
564960,note_on,0,0,1,,,,,,,,,,,,,,,0,,,78,67
564963,control_change,3,0,2,,,,,,,,,,,,,,,0,64,0,,
564986,control_change,23,0,2,,,,,,,,,,,,,,,0,64,127,,
565000,set_tempo,240,1,0,,,,,,,,,,,,562061,,,,,,,
565120,note_on,160,0,1,,,,,,,,,,,,,,,0,,,79,0
565120,note_on,0,0,1,,,,,,,,,,,,,,,0,,,67,73
565120,note_on,0,0,1,,,,,,,,,,,,,,,0,,,78,0
565200,note_on,0,0,2,,,,,,,,,,,,,,,0,,,49,53
565200,note_on,0,0,2,,,,,,,,,,,,,,,0,,,61,64
565200,note_on,0,0,2,,,,,,,,,,,,,,,0,,,62,0
565200,note_on,214,0,2,,,,,,,,,,,,,,,0,,,50,0
565240,set_tempo,240,1,0,,,,,,,,,,,,559336,,,,,,,
565280,note_on,0,0,1,,,,,,,,,,,,,,,0,,,78,62
565280,note_on,0,0,1,,,,,,,,,,,,,,,0,,,79,74
565280,note_on,160,0,1,,,,,,,,,,,,,,,0,,,67,0
565440,note_on,160,0,1,,,,,,,,,,,,,,,0,,,79,0
565440,note_on,0,0,1,,,,,,,,,,,,,,,0,,,78,0
565440,note_on,0,0,1,,,,,,,,,,,,,,,0,,,76,69
565440,note_on,0,0,1,,,,,,,,,,,,,,,0,,,79,82
565440,note_on,0,0,2,,,,,,,,,,,,,,,0,,,49,61
565440,set_tempo,200,1,0,,,,,,,,,,,,556586,,,,,,,
565440,note_on,0,0,2,,,,,,,,,,,,,,,0,,,61,73
565440,note_on,0,0,2,,,,,,,,,,,,,,,0,,,61,0
565440,note_on,240,0,2,,,,,,,,,,,,,,,0,,,49,0
565466,control_change,26,0,2,,,,,,,,,,,,,,,0,64,0,,
565495,control_change,29,0,2,,,,,,,,,,,,,,,0,64,127,,
565600,note_on,0,0,1,,,,,,,,,,,,,,,0,,,67,73
565600,note_on,0,0,1,,,,,,,,,,,,,,,0,,,76,0
565600,note_on,160,0,1,,,,,,,,,,,,,,,0,,,79,0
565680,note_on,185,0,2,,,,,,,,,,,,,,,0,,,49,0
565680,note_on,0,0,2,,,,,,,,,,,,,,,0,,,61,0
565680,note_on,0,0,2,,,,,,,,,,,,,,,0,,,59,68
565680,note_on,0,0,2,,,,,,,,,,,,,,,0,,,47,57
565720,set_tempo,280,1,0,,,,,,,,,,,,559336,,,,,,,
565760,note_on,0,0,1,,,,,,,,,,,,,,,0,,,76,62
565760,note_on,0,0,1,,,,,,,,,,,,,,,0,,,79,74
565760,note_on,160,0,1,,,,,,,,,,,,,,,0,,,67,0
565920,note_on,0,0,2,,,,,,,,,,,,,,,0,,,59,0
565920,note_on,0,0,2,,,,,,,,,,,,,,,0,,,59,75
565920,note_on,0,0,2,,,,,,,,,,,,,,,0,,,47,63
565920,note_on,160,0,1,,,,,,,,,,,,,,,0,,,79,0
565920,note_on,0,0,1,,,,,,,,,,,,,,,0,,,76,0
565920,note_on,0,0,1,,,,,,,,,,,,,,,0,,,74,70
565920,note_on,0,0,1,,,,,,,,,,,,,,,0,,,76,70
565920,note_on,0,0,1,,,,,,,,,,,,,,,0,,,80,84
565920,note_on,240,0,2,,,,,,,,,,,,,,,0,,,47,0
565936,control_change,16,0,2,,,,,,,,,,,,,,,0,64,0,,
565960,set_tempo,240,1,0,,,,,,,,,,,,562061,,,,,,,
565978,control_change,42,0,2,,,,,,,,,,,,,,,0,64,127,,
566080,note_on,0,0,1,,,,,,,,,,,,,,,0,,,74,0
566080,note_on,160,0,1,,,,,,,,,,,,,,,0,,,80,0
566080,note_on,0,0,1,,,,,,,,,,,,,,,0,,,76,0
566080,note_on,0,0,1,,,,,,,,,,,,,,,0,,,68,74
566160,note_on,182,0,2,,,,,,,,,,,,,,,0,,,47,0
566160,note_on,0,0,2,,,,,,,,,,,,,,,0,,,59,0
566160,note_on,0,0,2,,,,,,,,,,,,,,,0,,,57,69
566160,note_on,0,0,2,,,,,,,,,,,,,,,0,,,45,58
566200,set_tempo,240,1,0,,,,,,,,,,,,564812,,,,,,,
566240,note_on,0,0,1,,,,,,,,,,,,,,,0,,,74,64
566240,note_on,0,0,1,,,,,,,,,,,,,,,0,,,76,64
566240,note_on,160,0,1,,,,,,,,,,,,,,,0,,,68,0
566240,note_on,0,0,1,,,,,,,,,,,,,,,0,,,80,77
566400,note_on,0,0,1,,,,,,,,,,,,,,,0,,,74,0
566400,note_on,0,0,1,,,,,,,,,,,,,,,0,,,76,0
566400,note_on,160,0,1,,,,,,,,,,,,,,,0,,,80,0
566400,control_change,0,0,2,,,,,,,,,,,,,,,0,64,0,,
566400,control_change,0,0,2,,,,,,,,,,,,,,,0,64,0,,
566400,control_change,0,0,2,,,,,,,,,,,,,,,0,64,0,,
566400,note_on,0,0,2,,,,,,,,,,,,,,,0,,,45,67
566400,note_on,0,0,2,,,,,,,,,,,,,,,0,,,57,79
566400,note_on,0,0,2,,,,,,,,,,,,,,,0,,,57,0
566400,note_on,240,0,2,,,,,,,,,,,,,,,0,,,45,0
566400,note_on,0,0,1,,,,,,,,,,,,,,,0,,,73,74
566400,note_on,0,0,1,,,,,,,,,,,,,,,0,,,76,74
566400,note_on,0,0,1,,,,,,,,,,,,,,,0,,,81,88
566440,set_tempo,240,1,0,,,,,,,,,,,,570505,,,,,,,
566449,control_change,49,0,2,,,,,,,,,,,,,,,0,64,127,,
566560,note_on,160,0,1,,,,,,,,,,,,,,,0,,,81,0
566560,note_on,0,0,1,,,,,,,,,,,,,,,0,,,76,0
566560,note_on,0,0,1,,,,,,,,,,,,,,,0,,,73,0
566560,note_on,0,0,1,,,,,,,,,,,,,,,0,,,69,77
566640,note_on,0,0,2,,,,,,,,,,,,,,,0,,,43,58
566640,note_on,0,0,2,,,,,,,,,,,,,,,0,,,55,69
566640,note_on,0,0,2,,,,,,,,,,,,,,,0,,,57,0
566640,note_on,191,0,2,,,,,,,,,,,,,,,0,,,45,0
566680,set_tempo,240,1,0,,,,,,,,,,,,567698,,,,,,,
566720,note_on,160,0,1,,,,,,,,,,,,,,,0,,,69,0
566720,note_on,0,0,1,,,,,,,,,,,,,,,0,,,73,74
566720,note_on,0,0,1,,,,,,,,,,,,,,,0,,,81,78
566720,note_on,0,0,1,,,,,,,,,,,,,,,0,,,76,66
566880,note_on,0,0,1,,,,,,,,,,,,,,,0,,,73,0
566880,note_on,0,0,1,,,,,,,,,,,,,,,0,,,73,67
566880,note_on,0,0,1,,,,,,,,,,,,,,,0,,,76,74
566880,note_on,0,0,1,,,,,,,,,,,,,,,0,,,81,88
566880,note_on,240,0,2,,,,,,,,,,,,,,,0,,,43,0
566880,note_on,0,0,1,,,,,,,,,,,,,,,0,,,76,0
566880,note_on,0,0,2,,,,,,,,,,,,,,,0,,,55,0
566880,note_on,160,0,1,,,,,,,,,,,,,,,0,,,81,0
566880,note_on,0,0,2,,,,,,,,,,,,,,,0,,,43,67
566880,note_on,0,0,2,,,,,,,,,,,,,,,0,,,55,79
566883,control_change,3,0,2,,,,,,,,,,,,,,,0,64,0,,
566906,control_change,23,0,2,,,,,,,,,,,,,,,0,64,127,,
566920,set_tempo,240,1,0,,,,,,,,,,,,564812,,,,,,,
567040,note_on,0,0,1,,,,,,,,,,,,,,,0,,,69,80
567040,note_on,0,0,1,,,,,,,,,,,,,,,0,,,73,0
567040,note_on,0,0,1,,,,,,,,,,,,,,,0,,,76,0
567040,note_on,160,0,1,,,,,,,,,,,,,,,0,,,81,0
567120,note_on,214,0,2,,,,,,,,,,,,,,,0,,,43,0
567120,note_on,0,0,2,,,,,,,,,,,,,,,0,,,55,0
567120,note_on,0,0,2,,,,,,,,,,,,,,,0,,,53,70
567120,note_on,0,0,2,,,,,,,,,,,,,,,0,,,41,60
567160,set_tempo,240,1,0,,,,,,,,,,,,562061,,,,,,,
567200,note_on,0,0,1,,,,,,,,,,,,,,,0,,,81,81
567200,note_on,160,0,1,,,,,,,,,,,,,,,0,,,69,0
567200,note_on,0,0,1,,,,,,,,,,,,,,,0,,,73,68
567200,note_on,0,0,1,,,,,,,,,,,,,,,0,,,76,68
567360,note_on,160,0,1,,,,,,,,,,,,,,,0,,,81,0
567360,note_on,0,0,2,,,,,,,,,,,,,,,0,,,41,67
567360,note_on,0,0,2,,,,,,,,,,,,,,,0,,,53,80
567360,note_on,0,0,2,,,,,,,,,,,,,,,0,,,53,0
567360,note_on,0,0,1,,,,,,,,,,,,,,,0,,,76,0
567360,note_on,0,0,1,,,,,,,,,,,,,,,0,,,73,0
567360,note_on,240,0,2,,,,,,,,,,,,,,,0,,,41,0
567360,note_on,0,0,1,,,,,,,,,,,,,,,0,,,77,75
567360,note_on,0,0,1,,,,,,,,,,,,,,,0,,,81,90
567360,note_on,0,0,1,,,,,,,,,,,,,,,0,,,74,67
567360,set_tempo,200,1,0,,,,,,,,,,,,559336,,,,,,,
567386,control_change,26,0,2,,,,,,,,,,,,,,,0,64,0,,
567415,control_change,29,0,2,,,,,,,,,,,,,,,0,64,127,,
567520,note_on,160,0,1,,,,,,,,,,,,,,,0,,,81,0
567520,note_on,0,0,1,,,,,,,,,,,,,,,0,,,77,0
567520,note_on,0,0,1,,,,,,,,,,,,,,,0,,,74,0
567520,note_on,0,0,1,,,,,,,,,,,,,,,0,,,69,80
567600,note_on,185,0,2,,,,,,,,,,,,,,,0,,,41,0
567600,note_on,0,0,2,,,,,,,,,,,,,,,0,,,53,0
567600,note_on,0,0,2,,,,,,,,,,,,,,,0,,,52,74
567600,note_on,0,0,2,,,,,,,,,,,,,,,0,,,40,62
567680,note_on,0,0,1,,,,,,,,,,,,,,,0,,,74,68
567680,note_on,160,0,1,,,,,,,,,,,,,,,0,,,69,0
567680,note_on,0,0,1,,,,,,,,,,,,,,,0,,,77,68
567680,note_on,0,0,1,,,,,,,,,,,,,,,0,,,81,81
567840,note_on,0,0,1,,,,,,,,,,,,,,,0,,,74,0
567840,note_on,0,0,2,,,,,,,,,,,,,,,0,,,52,82
567840,note_on,0,0,2,,,,,,,,,,,,,,,0,,,52,0
567840,note_on,240,0,2,,,,,,,,,,,,,,,0,,,40,0
567840,note_on,0,0,1,,,,,,,,,,,,,,,0,,,81,92
567840,note_on,0,0,1,,,,,,,,,,,,,,,0,,,79,78
567840,note_on,0,0,1,,,,,,,,,,,,,,,0,,,73,78
567840,note_on,0,0,2,,,,,,,,,,,,,,,0,,,40,69
567840,note_on,0,0,1,,,,,,,,,,,,,,,0,,,77,0
567840,note_on,160,0,1,,,,,,,,,,,,,,,0,,,81,0
567856,control_change,16,0,2,,,,,,,,,,,,,,,0,64,0,,
567898,control_change,42,0,2,,,,,,,,,,,,,,,0,64,127,,
568000,note_on,0,0,1,,,,,,,,,,,,,,,0,,,79,0
568000,note_on,0,0,1,,,,,,,,,,,,,,,0,,,73,0
568000,note_on,0,0,1,,,,,,,,,,,,,,,0,,,69,81
568000,note_on,160,0,1,,,,,,,,,,,,,,,0,,,81,0
568080,note_on,182,0,2,,,,,,,,,,,,,,,0,,,40,0
568080,note_on,0,0,2,,,,,,,,,,,,,,,0,,,50,75
568080,note_on,0,0,2,,,,,,,,,,,,,,,0,,,52,0
568080,note_on,0,0,2,,,,,,,,,,,,,,,0,,,38,63
568160,note_on,160,0,1,,,,,,,,,,,,,,,0,,,69,0
568160,note_on,0,0,1,,,,,,,,,,,,,,,0,,,79,70
568160,note_on,0,0,1,,,,,,,,,,,,,,,0,,,81,84
568160,note_on,0,0,1,,,,,,,,,,,,,,,0,,,73,70
568320,note_on,160,0,1,,,,,,,,,,,,,,,0,,,81,0
568320,note_on,0,0,1,,,,,,,,,,,,,,,0,,,79,0
568320,note_on,0,0,1,,,,,,,,,,,,,,,0,,,73,0
568320,note_on,0,0,1,,,,,,,,,,,,,,,0,,,74,81
568320,note_on,0,0,1,,,,,,,,,,,,,,,0,,,77,81
568320,note_on,0,0,1,,,,,,,,,,,,,,,0,,,81,96
568320,note_on,240,0,2,,,,,,,,,,,,,,,0,,,38,0
568320,note_on,0,0,2,,,,,,,,,,,,,,,0,,,50,0
568320,control_change,0,0,2,,,,,,,,,,,,,,,0,64,0,,
568320,control_change,0,0,2,,,,,,,,,,,,,,,0,64,0,,
568320,control_change,0,0,2,,,,,,,,,,,,,,,0,64,0,,
568320,note_on,0,0,2,,,,,,,,,,,,,,,0,,,38,86
568369,control_change,49,0,2,,,,,,,,,,,,,,,0,64,127,,
568480,note_on,160,0,1,,,,,,,,,,,,,,,0,,,81,0
568480,note_on,0,0,1,,,,,,,,,,,,,,,0,,,77,0
568480,note_on,0,0,1,,,,,,,,,,,,,,,0,,,74,0
568480,note_on,0,0,1,,,,,,,,,,,,,,,0,,,69,84
568560,note_on,191,0,2,,,,,,,,,,,,,,,0,,,50,75
568560,note_on,0,0,2,,,,,,,,,,,,,,,0,,,45,63
568640,note_on,160,0,1,,,,,,,,,,,,,,,0,,,69,0
568640,note_on,0,0,1,,,,,,,,,,,,,,,0,,,77,70
568640,note_on,0,0,1,,,,,,,,,,,,,,,0,,,81,84
568640,note_on,0,0,1,,,,,,,,,,,,,,,0,,,74,81
568800,note_on,160,0,1,,,,,,,,,,,,,,,0,,,81,0
568800,note_on,0,0,1,,,,,,,,,,,,,,,0,,,77,0
568800,note_on,0,0,1,,,,,,,,,,,,,,,0,,,73,73
568800,note_on,0,0,1,,,,,,,,,,,,,,,0,,,79,80
568800,note_on,0,0,1,,,,,,,,,,,,,,,0,,,81,94
568800,note_on,0,0,2,,,,,,,,,,,,,,,0,,,50,0
568800,note_on,240,0,2,,,,,,,,,,,,,,,0,,,45,0
568800,note_on,0,0,2,,,,,,,,,,,,,,,0,,,38,0
568800,note_on,0,0,2,,,,,,,,,,,,,,,0,,,38,84
568800,note_on,0,0,1,,,,,,,,,,,,,,,0,,,74,0
568803,control_change,3,0,2,,,,,,,,,,,,,,,0,64,0,,
568826,control_change,23,0,2,,,,,,,,,,,,,,,0,64,127,,
568960,note_on,0,0,1,,,,,,,,,,,,,,,0,,,79,0
568960,note_on,160,0,1,,,,,,,,,,,,,,,0,,,81,0
568960,note_on,0,0,1,,,,,,,,,,,,,,,0,,,73,0
568960,note_on,0,0,1,,,,,,,,,,,,,,,0,,,69,86
569040,note_on,214,0,2,,,,,,,,,,,,,,,0,,,52,75
569040,note_on,0,0,2,,,,,,,,,,,,,,,0,,,45,63
569120,note_on,0,0,1,,,,,,,,,,,,,,,0,,,81,86
569120,note_on,0,0,1,,,,,,,,,,,,,,,0,,,79,73
569120,note_on,0,0,1,,,,,,,,,,,,,,,0,,,73,73
569120,note_on,160,0,1,,,,,,,,,,,,,,,0,,,69,0
569280,note_on,0,0,1,,,,,,,,,,,,,,,0,,,73,0
569280,note_on,160,0,1,,,,,,,,,,,,,,,0,,,81,0
569280,note_on,0,0,1,,,,,,,,,,,,,,,0,,,79,0
569280,note_on,240,0,2,,,,,,,,,,,,,,,0,,,45,0
569280,note_on,0,0,2,,,,,,,,,,,,,,,0,,,52,0
569280,note_on,0,0,2,,,,,,,,,,,,,,,0,,,38,0
569280,note_on,0,0,2,,,,,,,,,,,,,,,0,,,38,84
569280,note_on,0,0,1,,,,,,,,,,,,,,,0,,,74,70
569280,note_on,0,0,1,,,,,,,,,,,,,,,0,,,77,80
569280,note_on,0,0,1,,,,,,,,,,,,,,,0,,,81,94
569306,control_change,26,0,2,,,,,,,,,,,,,,,0,64,0,,
569335,control_change,29,0,2,,,,,,,,,,,,,,,0,64,127,,
569440,note_on,160,0,1,,,,,,,,,,,,,,,0,,,81,0
569440,note_on,0,0,1,,,,,,,,,,,,,,,0,,,77,0
569440,note_on,0,0,1,,,,,,,,,,,,,,,0,,,69,84
569440,note_on,0,0,1,,,,,,,,,,,,,,,0,,,74,0
569520,note_on,0,0,2,,,,,,,,,,,,,,,0,,,45,64
569520,note_on,185,0,2,,,,,,,,,,,,,,,0,,,50,77
569600,note_on,160,0,1,,,,,,,,,,,,,,,0,,,69,0
569600,note_on,0,0,1,,,,,,,,,,,,,,,0,,,77,70
569600,note_on,0,0,1,,,,,,,,,,,,,,,0,,,81,84
569600,note_on,0,0,1,,,,,,,,,,,,,,,0,,,74,70
569760,note_on,0,0,1,,,,,,,,,,,,,,,0,,,73,80
569760,note_on,240,0,2,,,,,,,,,,,,,,,0,,,45,0
569760,note_on,0,0,2,,,,,,,,,,,,,,,0,,,50,0
569760,note_on,0,0,2,,,,,,,,,,,,,,,0,,,38,0
569760,note_on,0,0,2,,,,,,,,,,,,,,,0,,,38,84
569760,note_on,0,0,1,,,,,,,,,,,,,,,0,,,74,0
569760,note_on,0,0,1,,,,,,,,,,,,,,,0,,,81,94
569760,note_on,0,0,1,,,,,,,,,,,,,,,0,,,79,80
569760,note_on,160,0,1,,,,,,,,,,,,,,,0,,,81,0
569760,note_on,0,0,1,,,,,,,,,,,,,,,0,,,77,0
569776,control_change,16,0,2,,,,,,,,,,,,,,,0,64,0,,
569818,control_change,42,0,2,,,,,,,,,,,,,,,0,64,127,,
569920,note_on,0,0,1,,,,,,,,,,,,,,,0,,,69,82
569920,note_on,0,0,1,,,,,,,,,,,,,,,0,,,79,0
569920,note_on,0,0,1,,,,,,,,,,,,,,,0,,,73,0
569920,note_on,160,0,1,,,,,,,,,,,,,,,0,,,81,0
570000,note_on,182,0,2,,,,,,,,,,,,,,,0,,,52,77
570000,note_on,0,0,2,,,,,,,,,,,,,,,0,,,45,64
570080,note_on,0,0,1,,,,,,,,,,,,,,,0,,,81,84
570080,note_on,0,0,1,,,,,,,,,,,,,,,0,,,79,70
570080,note_on,0,0,1,,,,,,,,,,,,,,,0,,,73,70
570080,note_on,160,0,1,,,,,,,,,,,,,,,0,,,69,0
570240,note_on,0,0,1,,,,,,,,,,,,,,,0,,,81,81
570240,note_on,0,0,1,,,,,,,,,,,,,,,0,,,77,81
570240,note_on,0,0,1,,,,,,,,,,,,,,,0,,,86,96
570240,note_on,0,0,1,,,,,,,,,,,,,,,0,,,73,0
570240,note_on,0,0,1,,,,,,,,,,,,,,,0,,,79,0
570240,note_on,160,0,1,,,,,,,,,,,,,,,0,,,81,0
570240,control_change,0,0,2,,,,,,,,,,,,,,,0,64,0,,
570240,note_on,0,0,2,,,,,,,,,,,,,,,0,,,38,0
570240,note_on,240,0,2,,,,,,,,,,,,,,,0,,,45,0
570240,note_on,0,0,2,,,,,,,,,,,,,,,0,,,52,0
570240,set_tempo,2880,1,0,,,,,,,,,,,,556586,,,,,,,
570240,note_on,0,0,2,,,,,,,,,,,,,,,0,,,38,86
570240,control_change,0,0,2,,,,,,,,,,,,,,,0,64,0,,
570240,control_change,0,0,2,,,,,,,,,,,,,,,0,64,0,,
570289,control_change,49,0,2,,,,,,,,,,,,,,,0,64,127,,
570400,note_on,0,0,1,,,,,,,,,,,,,,,0,,,86,0
570400,note_on,160,0,1,,,,,,,,,,,,,,,0,,,81,0
570400,note_on,0,0,1,,,,,,,,,,,,,,,0,,,77,0
570400,note_on,0,0,1,,,,,,,,,,,,,,,0,,,74,84
570480,note_on,0,0,2,,,,,,,,,,,,,,,0,,,45,64
570480,note_on,191,0,2,,,,,,,,,,,,,,,0,,,50,77
570560,note_on,0,0,1,,,,,,,,,,,,,,,0,,,86,97
570560,note_on,0,0,1,,,,,,,,,,,,,,,0,,,77,72
570560,note_on,0,0,1,,,,,,,,,,,,,,,0,,,81,72
570560,note_on,160,0,1,,,,,,,,,,,,,,,0,,,74,0
570720,note_on,0,0,2,,,,,,,,,,,,,,,0,,,50,0
570720,note_on,0,0,1,,,,,,,,,,,,,,,0,,,81,81
570720,note_on,0,0,1,,,,,,,,,,,,,,,0,,,79,81
570720,note_on,0,0,1,,,,,,,,,,,,,,,0,,,85,88
570720,note_on,0,0,1,,,,,,,,,,,,,,,0,,,86,0
570720,note_on,160,0,1,,,,,,,,,,,,,,,0,,,81,0
570720,note_on,240,0,2,,,,,,,,,,,,,,,0,,,45,0
570720,note_on,0,0,1,,,,,,,,,,,,,,,0,,,77,0
570720,note_on,0,0,2,,,,,,,,,,,,,,,0,,,38,85
570720,note_on,0,0,2,,,,,,,,,,,,,,,0,,,38,0
570723,control_change,3,0,2,,,,,,,,,,,,,,,0,64,0,,
570746,control_change,23,0,2,,,,,,,,,,,,,,,0,64,127,,
570840,set_tempo,600,1,0,,,,,,,,,,,,559336,,,,,,,
570880,note_on,160,0,1,,,,,,,,,,,,,,,0,,,81,0
570880,note_on,0,0,1,,,,,,,,,,,,,,,0,,,79,0
570880,note_on,0,0,1,,,,,,,,,,,,,,,0,,,85,0
570880,note_on,0,0,1,,,,,,,,,,,,,,,0,,,73,88
570960,note_on,214,0,2,,,,,,,,,,,,,,,0,,,52,78
570960,note_on,0,0,2,,,,,,,,,,,,,,,0,,,45,66
571040,note_on,0,0,1,,,,,,,,,,,,,,,0,,,85,89
571040,note_on,160,0,1,,,,,,,,,,,,,,,0,,,73,0
571040,note_on,0,0,1,,,,,,,,,,,,,,,0,,,79,74
571040,note_on,0,0,1,,,,,,,,,,,,,,,0,,,81,74
571200,note_on,0,0,1,,,,,,,,,,,,,,,0,,,79,0
571200,note_on,240,0,2,,,,,,,,,,,,,,,0,,,45,0
571200,note_on,0,0,2,,,,,,,,,,,,,,,0,,,52,0
571200,note_on,0,0,2,,,,,,,,,,,,,,,0,,,38,0
571200,note_on,0,0,1,,,,,,,,,,,,,,,0,,,81,81
571200,note_on,0,0,1,,,,,,,,,,,,,,,0,,,77,81
571200,note_on,0,0,1,,,,,,,,,,,,,,,0,,,86,88
571200,note_on,0,0,1,,,,,,,,,,,,,,,0,,,85,0
571200,note_on,0,0,2,,,,,,,,,,,,,,,0,,,38,88
571200,note_on,160,0,1,,,,,,,,,,,,,,,0,,,81,0
571226,control_change,26,0,2,,,,,,,,,,,,,,,0,64,0,,
571255,control_change,29,0,2,,,,,,,,,,,,,,,0,64,127,,
571360,note_on,0,0,1,,,,,,,,,,,,,,,0,,,74,88
571360,note_on,0,0,1,,,,,,,,,,,,,,,0,,,86,0
571360,note_on,0,0,1,,,,,,,,,,,,,,,0,,,77,0
571360,note_on,160,0,1,,,,,,,,,,,,,,,0,,,81,0
571440,set_tempo,600,1,0,,,,,,,,,,,,562061,,,,,,,
571440,note_on,0,0,2,,,,,,,,,,,,,,,0,,,45,68
571440,note_on,185,0,2,,,,,,,,,,,,,,,0,,,50,81
571520,note_on,160,0,1,,,,,,,,,,,,,,,0,,,74,0
571520,note_on,0,0,1,,,,,,,,,,,,,,,0,,,86,89
571520,note_on,0,0,1,,,,,,,,,,,,,,,0,,,77,74
571520,note_on,0,0,1,,,,,,,,,,,,,,,0,,,81,74
571680,note_on,0,0,2,,,,,,,,,,,,,,,0,,,38,89
571680,note_on,0,0,2,,,,,,,,,,,,,,,0,,,50,0
571680,note_on,0,0,2,,,,,,,,,,,,,,,0,,,38,0
571680,note_on,240,0,2,,,,,,,,,,,,,,,0,,,45,0
571680,note_on,0,0,1,,,,,,,,,,,,,,,0,,,77,0
571680,note_on,0,0,1,,,,,,,,,,,,,,,0,,,86,0
571680,note_on,0,0,1,,,,,,,,,,,,,,,0,,,85,100
571680,note_on,0,0,1,,,,,,,,,,,,,,,0,,,79,84
571680,note_on,0,0,1,,,,,,,,,,,,,,,0,,,81,84
571680,note_on,160,0,1,,,,,,,,,,,,,,,0,,,81,0
571696,control_change,16,0,2,,,,,,,,,,,,,,,0,64,0,,
571738,control_change,42,0,2,,,,,,,,,,,,,,,0,64,127,,
571840,note_on,0,0,1,,,,,,,,,,,,,,,0,,,73,89
571840,note_on,0,0,1,,,,,,,,,,,,,,,0,,,85,0
571840,note_on,160,0,1,,,,,,,,,,,,,,,0,,,81,0
571840,note_on,0,0,1,,,,,,,,,,,,,,,0,,,79,0
571920,note_on,182,0,2,,,,,,,,,,,,,,,0,,,52,82
571920,note_on,0,0,2,,,,,,,,,,,,,,,0,,,45,69
572000,note_on,0,0,1,,,,,,,,,,,,,,,0,,,79,77
572000,note_on,0,0,1,,,,,,,,,,,,,,,0,,,85,91
572000,set_tempo,560,1,0,,,,,,,,,,,,564812,,,,,,,
572000,note_on,160,0,1,,,,,,,,,,,,,,,0,,,73,0
572000,note_on,0,0,1,,,,,,,,,,,,,,,0,,,81,77
572160,control_change,0,0,2,,,,,,,,,,,,,,,0,64,0,,
572160,note_on,0,0,2,,,,,,,,,,,,,,,0,,,45,77
572160,note_on,0,0,2,,,,,,,,,,,,,,,0,,,38,77
572160,note_on,0,0,2,,,,,,,,,,,,,,,0,,,52,0
572160,note_on,240,0,2,,,,,,,,,,,,,,,0,,,45,0
572160,note_on,0,0,2,,,,,,,,,,,,,,,0,,,50,91
572160,note_on,0,0,2,,,,,,,,,,,,,,,0,,,38,0
572160,note_on,0,0,1,,,,,,,,,,,,,,,0,,,86,103
572160,note_on,0,0,1,,,,,,,,,,,,,,,0,,,81,88
572160,set_tempo,160,1,0,,,,,,,,,,,,626894,,,,,,,
572160,note_on,0,0,1,,,,,,,,,,,,,,,0,,,79,0
572160,note_on,0,0,1,,,,,,,,,,,,,,,0,,,85,0
572160,note_on,0,0,1,,,,,,,,,,,,,,,0,,,74,88
572160,note_on,0,0,1,,,,,,,,,,,,,,,0,,,77,88
572160,note_on,160,0,1,,,,,,,,,,,,,,,0,,,81,0
572400,note_on,0,0,2,,,,,,,,,,,,,,,0,,,62,20
572400,note_on,0,0,2,,,,,,,,,,,,,,,0,,,65,24
572400,note_on,0,0,2,,,,,,,,,,,,,,,0,,,69,29
572400,note_on,0,0,2,,,,,,,,,,,,,,,0,,,38,0
572400,note_on,0,0,2,,,,,,,,,,,,,,,0,,,45,0
572400,note_on,240,0,2,,,,,,,,,,,,,,,0,,,50,0
572400,note_on,0,0,1,,,,,,,,,,,,,,,0,,,77,0
572400,note_on,0,0,1,,,,,,,,,,,,,,,0,,,74,0
572400,note_on,0,0,1,,,,,,,,,,,,,,,0,,,81,0
572400,note_on,240,0,1,,,,,,,,,,,,,,,0,,,86,0
572471,control_change,71,0,2,,,,,,,,,,,,,,,0,64,127,,
572640,note_on,0,0,2,,,,,,,,,,,,,,,0,,,69,30
572640,note_on,0,0,2,,,,,,,,,,,,,,,0,,,65,25
572640,note_on,0,0,2,,,,,,,,,,,,,,,0,,,62,21
572640,set_tempo,480,1,0,,,,,,,,,,,,630318,,,,,,,
572640,note_on,0,0,2,,,,,,,,,,,,,,,0,,,69,0
572640,note_on,169,0,2,,,,,,,,,,,,,,,0,,,62,0
572640,note_on,0,0,2,,,,,,,,,,,,,,,0,,,65,0
572880,note_on,240,0,2,,,,,,,,,,,,,,,0,,,62,0
572880,note_on,0,0,2,,,,,,,,,,,,,,,0,,,65,0
572880,note_on,0,0,2,,,,,,,,,,,,,,,0,,,69,0
572880,note_on,0,0,2,,,,,,,,,,,,,,,0,,,69,30
572880,note_on,0,0,2,,,,,,,,,,,,,,,0,,,65,25
572880,note_on,0,0,2,,,,,,,,,,,,,,,0,,,62,21
573120,note_on,0,0,2,,,,,,,,,,,,,,,0,,,62,20
573120,note_on,0,0,2,,,,,,,,,,,,,,,0,,,65,24
573120,note_on,0,0,2,,,,,,,,,,,,,,,0,,,69,29
573120,note_on,0,0,2,,,,,,,,,,,,,,,0,,,65,0
573120,note_on,240,0,2,,,,,,,,,,,,,,,0,,,62,0
573120,note_on,0,0,2,,,,,,,,,,,,,,,0,,,69,0
573360,note_on,0,0,2,,,,,,,,,,,,,,,0,,,62,20
573360,note_on,240,0,2,,,,,,,,,,,,,,,0,,,62,0
573360,note_on,0,0,2,,,,,,,,,,,,,,,0,,,65,0
573360,note_on,0,0,2,,,,,,,,,,,,,,,0,,,69,0
573360,note_on,0,0,2,,,,,,,,,,,,,,,0,,,69,29
573360,note_on,0,0,2,,,,,,,,,,,,,,,0,,,65,24
573600,note_on,0,0,2,,,,,,,,,,,,,,,0,,,65,0
573600,note_on,240,0,2,,,,,,,,,,,,,,,0,,,62,0
573600,note_on,0,0,2,,,,,,,,,,,,,,,0,,,69,0
573600,note_on,0,0,2,,,,,,,,,,,,,,,0,,,69,27
573600,note_on,0,0,2,,,,,,,,,,,,,,,0,,,65,23
573600,note_on,0,0,2,,,,,,,,,,,,,,,0,,,62,19
573840,note_on,240,0,2,,,,,,,,,,,,,,,0,,,62,0
573840,note_on,0,0,2,,,,,,,,,,,,,,,0,,,65,0
573840,note_on,0,0,2,,,,,,,,,,,,,,,0,,,69,0
573840,note_on,0,0,2,,,,,,,,,,,,,,,0,,,69,27
573840,note_on,0,0,2,,,,,,,,,,,,,,,0,,,65,23
573840,note_on,0,0,2,,,,,,,,,,,,,,,0,,,62,19
574080,set_tempo,1440,1,0,,,,,,,,,,,,633513,,,,,,,
574080,note_on,240,0,2,,,,,,,,,,,,,,,0,,,62,0
574080,note_on,0,0,2,,,,,,,,,,,,,,,0,,,65,0
574080,note_on,0,0,2,,,,,,,,,,,,,,,0,,,69,0
574080,note_on,0,0,2,,,,,,,,,,,,,,,0,,,69,28
574080,note_on,0,0,2,,,,,,,,,,,,,,,0,,,65,24
574080,control_change,0,0,2,,,,,,,,,,,,,,,0,64,0,,
574080,note_on,0,0,2,,,,,,,,,,,,,,,0,,,62,20
574080,note_on,1680,0,1,,,,,,,,,,,,,,,0,,,74,71
574207,control_change,127,0,2,,,,,,,,,,,,,,,0,64,127,,
574320,note_on,0,0,2,,,,,,,,,,,,,,,0,,,65,0
574320,note_on,0,0,2,,,,,,,,,,,,,,,0,,,69,0
574320,note_on,113,0,2,,,,,,,,,,,,,,,0,,,62,0
574320,note_on,0,0,2,,,,,,,,,,,,,,,0,,,62,17
574320,note_on,0,0,2,,,,,,,,,,,,,,,0,,,65,21
574320,note_on,0,0,2,,,,,,,,,,,,,,,0,,,69,25
574560,note_on,0,0,2,,,,,,,,,,,,,,,0,,,65,0
574560,note_on,0,0,2,,,,,,,,,,,,,,,0,,,69,0
574560,note_on,0,0,2,,,,,,,,,,,,,,,0,,,69,25
574560,note_on,0,0,2,,,,,,,,,,,,,,,0,,,65,21
574560,note_on,240,0,2,,,,,,,,,,,,,,,0,,,62,0
574560,note_on,0,0,2,,,,,,,,,,,,,,,0,,,62,17
574800,note_on,240,0,2,,,,,,,,,,,,,,,0,,,62,0
574800,note_on,0,0,2,,,,,,,,,,,,,,,0,,,65,0
574800,note_on,0,0,2,,,,,,,,,,,,,,,0,,,69,0
574800,note_on,0,0,2,,,,,,,,,,,,,,,0,,,65,21
574800,note_on,0,0,2,,,,,,,,,,,,,,,0,,,62,17
574800,note_on,0,0,2,,,,,,,,,,,,,,,0,,,69,25
575040,set_tempo,960,1,0,,,,,,,,,,,,620989,,,,,,,
575040,note_on,0,0,2,,,,,,,,,,,,,,,0,,,62,17
575040,note_on,0,0,2,,,,,,,,,,,,,,,0,,,65,21
575040,note_on,960,0,1,,,,,,,,,,,,,,,0,,,74,0
575040,note_on,0,0,1,,,,,,,,,,,,,,,0,,,77,61
575040,note_on,0,0,2,,,,,,,,,,,,,,,0,,,69,25
575040,note_on,0,0,2,,,,,,,,,,,,,,,0,,,69,0
575040,note_on,0,0,2,,,,,,,,,,,,,,,0,,,65,0
575040,note_on,240,0,2,,,,,,,,,,,,,,,0,,,62,0
575054,control_change,14,0,2,,,,,,,,,,,,,,,0,64,0,,
575167,control_change,113,0,2,,,,,,,,,,,,,,,0,64,127,,
575280,note_on,0,0,2,,,,,,,,,,,,,,,0,,,69,25
575280,note_on,0,0,2,,,,,,,,,,,,,,,0,,,65,21
575280,note_on,0,0,2,,,,,,,,,,,,,,,0,,,65,0
575280,note_on,240,0,1,,,,,,,,,,,,,,,0,,,77,0
575280,note_on,113,0,2,,,,,,,,,,,,,,,0,,,62,0
575280,note_on,0,0,2,,,,,,,,,,,,,,,0,,,62,17
575280,note_on,0,0,2,,,,,,,,,,,,,,,0,,,69,0
575520,note_on,0,0,2,,,,,,,,,,,,,,,0,,,69,25
575520,note_on,0,0,2,,,,,,,,,,,,,,,0,,,69,0
575520,note_on,0,0,2,,,,,,,,,,,,,,,0,,,65,0
575520,note_on,240,0,1,,,,,,,,,,,,,,,0,,,81,61
575520,note_on,240,0,2,,,,,,,,,,,,,,,0,,,62,0
575520,note_on,0,0,2,,,,,,,,,,,,,,,0,,,65,21
575520,note_on,0,0,2,,,,,,,,,,,,,,,0,,,62,17
575760,note_on,0,0,2,,,,,,,,,,,,,,,0,,,65,0
575760,note_on,0,0,2,,,,,,,,,,,,,,,0,,,69,0
575760,note_on,0,0,2,,,,,,,,,,,,,,,0,,,69,25
575760,note_on,0,0,2,,,,,,,,,,,,,,,0,,,65,21
575760,note_on,0,0,2,,,,,,,,,,,,,,,0,,,62,17
575760,note_on,240,0,2,,,,,,,,,,,,,,,0,,,62,0
575760,note_on,240,0,1,,,,,,,,,,,,,,,0,,,81,0
575995,note_on,235,0,2,,,,,,,,,,,,,,,0,,,69,0
576000,note_on,0,0,2,,,,,,,,,,,,,,,0,,,61,20
576000,note_on,0,0,2,,,,,,,,,,,,,,,0,,,65,0
576000,note_on,0,0,2,,,,,,,,,,,,,,,0,,,65,24
576000,control_change,0,0,2,,,,,,,,,,,,,,,0,64,0,,
576000,note_on,5,0,2,,,,,,,,,,,,,,,0,,,62,0
576000,note_on,240,0,1,,,,,,,,,,,,,,,0,,,69,71
576000,set_tempo,960,1,0,,,,,,,,,,,,633513,,,,,,,
576114,control_change,114,0,2,,,,,,,,,,,,,,,0,64,127,,
576240,note_on,0,0,2,,,,,,,,,,,,,,,0,,,65,21
576240,note_on,0,0,2,,,,,,,,,,,,,,,0,,,61,0
576240,note_on,126,0,2,,,,,,,,,,,,,,,0,,,65,0
576240,note_on,0,0,2,,,,,,,,,,,,,,,0,,,61,17
576480,note_on,0,0,2,,,,,,,,,,,,,,,0,,,61,0
576480,note_on,0,0,2,,,,,,,,,,,,,,,0,,,61,17
576480,note_on,240,0,2,,,,,,,,,,,,,,,0,,,65,0
576480,note_on,0,0,2,,,,,,,,,,,,,,,0,,,65,21
576720,note_on,0,0,2,,,,,,,,,,,,,,,0,,,65,21
576720,note_on,0,0,2,,,,,,,,,,,,,,,0,,,61,17
576720,note_on,0,0,2,,,,,,,,,,,,,,,0,,,61,0
576720,note_on,240,0,2,,,,,,,,,,,,,,,0,,,65,0
576960,note_on,0,0,2,,,,,,,,,,,,,,,0,,,61,0
576960,note_on,240,0,2,,,,,,,,,,,,,,,0,,,65,0
576960,note_on,0,0,2,,,,,,,,,,,,,,,0,,,65,21
576960,set_tempo,960,1,0,,,,,,,,,,,,620989,,,,,,,
576960,note_on,0,0,2,,,,,,,,,,,,,,,0,,,69,25
576960,note_on,0,0,2,,,,,,,,,,,,,,,0,,,61,17
576960,note_on,0,0,1,,,,,,,,,,,,,,,0,,,77,59
576960,note_on,960,0,1,,,,,,,,,,,,,,,0,,,69,0
577029,control_change,69,0,2,,,,,,,,,,,,,,,0,64,0,,
577109,control_change,80,0,2,,,,,,,,,,,,,,,0,64,127,,
577200,note_on,0,0,2,,,,,,,,,,,,,,,0,,,65,21
577200,note_on,0,0,2,,,,,,,,,,,,,,,0,,,61,17
577200,note_on,0,0,2,,,,,,,,,,,,,,,0,,,65,0
577200,note_on,91,0,2,,,,,,,,,,,,,,,0,,,69,0
577200,note_on,0,0,2,,,,,,,,,,,,,,,0,,,69,25
577200,note_on,0,0,2,,,,,,,,,,,,,,,0,,,61,0
577200,note_on,240,0,1,,,,,,,,,,,,,,,0,,,77,0
577440,note_on,0,0,2,,,,,,,,,,,,,,,0,,,65,0
577440,note_on,240,0,1,,,,,,,,,,,,,,,0,,,81,59
577440,note_on,0,0,2,,,,,,,,,,,,,,,0,,,69,25
577440,note_on,0,0,2,,,,,,,,,,,,,,,0,,,65,21
577440,note_on,240,0,2,,,,,,,,,,,,,,,0,,,69,0
577440,note_on,0,0,2,,,,,,,,,,,,,,,0,,,61,17
577440,note_on,0,0,2,,,,,,,,,,,,,,,0,,,61,0
577680,note_on,0,0,2,,,,,,,,,,,,,,,0,,,61,17
577680,note_on,0,0,2,,,,,,,,,,,,,,,0,,,61,0
577680,note_on,0,0,2,,,,,,,,,,,,,,,0,,,65,0
577680,note_on,240,0,2,,,,,,,,,,,,,,,0,,,69,0
577680,note_on,0,0,2,,,,,,,,,,,,,,,0,,,69,25
577680,note_on,240,0,1,,,,,,,,,,,,,,,0,,,81,0
577680,note_on,0,0,2,,,,,,,,,,,,,,,0,,,65,21
577920,control_change,0,0,2,,,,,,,,,,,,,,,0,64,0,,
577920,note_on,0,0,2,,,,,,,,,,,,,,,0,,,69,28
577920,note_on,0,0,2,,,,,,,,,,,,,,,0,,,65,0
577920,note_on,0,0,2,,,,,,,,,,,,,,,0,,,62,20
577920,note_on,0,0,2,,,,,,,,,,,,,,,0,,,65,24
577920,note_on,0,0,2,,,,,,,,,,,,,,,0,,,61,0
577920,set_tempo,960,1,0,,,,,,,,,,,,630451,,,,,,,
577920,note_on,240,0,1,,,,,,,,,,,,,,,0,,,74,71
577920,note_on,240,0,2,,,,,,,,,,,,,,,0,,,69,0
578011,control_change,91,0,2,,,,,,,,,,,,,,,0,64,127,,
578160,note_on,0,0,2,,,,,,,,,,,,,,,0,,,65,21
578160,note_on,149,0,2,,,,,,,,,,,,,,,0,,,69,0
578160,note_on,0,0,2,,,,,,,,,,,,,,,0,,,62,0
578160,note_on,0,0,2,,,,,,,,,,,,,,,0,,,65,0
578160,note_on,0,0,2,,,,,,,,,,,,,,,0,,,62,17
578160,note_on,0,0,2,,,,,,,,,,,,,,,0,,,69,25
578400,note_on,0,0,2,,,,,,,,,,,,,,,0,,,69,25
578400,note_on,0,0,2,,,,,,,,,,,,,,,0,,,62,17
578400,note_on,0,0,2,,,,,,,,,,,,,,,0,,,65,21
578400,note_on,0,0,2,,,,,,,,,,,,,,,0,,,65,0
578400,note_on,0,0,2,,,,,,,,,,,,,,,0,,,62,0
578400,note_on,240,0,2,,,,,,,,,,,,,,,0,,,69,0
578640,note_on,0,0,2,,,,,,,,,,,,,,,0,,,65,0
578640,note_on,0,0,2,,,,,,,,,,,,,,,0,,,62,17
578640,note_on,0,0,2,,,,,,,,,,,,,,,0,,,69,25
578640,note_on,0,0,2,,,,,,,,,,,,,,,0,,,65,21
578640,note_on,240,0,2,,,,,,,,,,,,,,,0,,,69,0
578640,note_on,0,0,2,,,,,,,,,,,,,,,0,,,62,0
578880,set_tempo,960,1,0,,,,,,,,,,,,620989,,,,,,,
578880,note_on,240,0,2,,,,,,,,,,,,,,,0,,,65,0
578880,note_on,960,0,1,,,,,,,,,,,,,,,0,,,74,0
578880,note_on,0,0,1,,,,,,,,,,,,,,,0,,,77,60
578880,note_on,0,0,2,,,,,,,,,,,,,,,0,,,62,0
578880,note_on,0,0,2,,,,,,,,,,,,,,,0,,,69,0
578880,note_on,0,0,2,,,,,,,,,,,,,,,0,,,69,25
578880,note_on,0,0,2,,,,,,,,,,,,,,,0,,,65,21
578880,note_on,0,0,2,,,,,,,,,,,,,,,0,,,62,17
578937,control_change,57,0,2,,,,,,,,,,,,,,,0,64,0,,
579029,control_change,92,0,2,,,,,,,,,,,,,,,0,64,127,,
579120,note_on,0,0,2,,,,,,,,,,,,,,,0,,,62,17
579120,note_on,0,0,2,,,,,,,,,,,,,,,0,,,65,21
579120,note_on,0,0,2,,,,,,,,,,,,,,,0,,,69,25
579120,note_on,0,0,2,,,,,,,,,,,,,,,0,,,65,0
579120,note_on,91,0,2,,,,,,,,,,,,,,,0,,,62,0
579120,note_on,0,0,2,,,,,,,,,,,,,,,0,,,69,0
579120,note_on,240,0,1,,,,,,,,,,,,,,,0,,,77,0
579360,note_on,240,0,2,,,,,,,,,,,,,,,0,,,62,0
579360,note_on,240,0,1,,,,,,,,,,,,,,,0,,,81,60
579360,note_on,0,0,2,,,,,,,,,,,,,,,0,,,69,26
579360,note_on,0,0,2,,,,,,,,,,,,,,,0,,,65,21
579360,note_on,0,0,2,,,,,,,,,,,,,,,0,,,61,17
579360,note_on,0,0,2,,,,,,,,,,,,,,,0,,,69,0
579360,note_on,0,0,2,,,,,,,,,,,,,,,0,,,65,0
579486,control_change,126,0,2,,,,,,,,,,,,,,,0,64,0,,
579577,control_change,91,0,2,,,,,,,,,,,,,,,0,64,127,,
579600,note_on,23,0,2,,,,,,,,,,,,,,,0,,,61,0
579600,note_on,0,0,2,,,,,,,,,,,,,,,0,,,65,0
579600,note_on,0,0,2,,,,,,,,,,,,,,,0,,,69,27
579600,note_on,0,0,2,,,,,,,,,,,,,,,0,,,61,18
579600,note_on,0,0,2,,,,,,,,,,,,,,,0,,,69,0
579600,note_on,240,0,1,,,,,,,,,,,,,,,0,,,81,0
579600,note_on,0,0,2,,,,,,,,,,,,,,,0,,,65,22
579840,note_on,240,0,2,,,,,,,,,,,,,,,0,,,61,0
579840,note_on,0,0,2,,,,,,,,,,,,,,,0,,,65,0
579840,note_on,0,0,2,,,,,,,,,,,,,,,0,,,69,0
579840,note_on,0,0,2,,,,,,,,,,,,,,,0,,,60,23
579840,note_on,0,0,2,,,,,,,,,,,,,,,0,,,69,34
579840,set_tempo,960,1,0,,,,,,,,,,,,617920,,,,,,,
579840,note_on,240,0,1,,,,,,,,,,,,,,,0,,,84,66
579840,note_on,0,0,2,,,,,,,,,,,,,,,0,,,65,28
579977,control_change,137,0,2,,,,,,,,,,,,,,,0,64,0,,
580011,control_change,34,0,2,,,,,,,,,,,,,,,0,64,127,,
580080,note_on,240,0,1,,,,,,,,,,,,,,,0,,,84,0
580080,note_on,0,0,2,,,,,,,,,,,,,,,0,,,69,34
580080,note_on,0,0,2,,,,,,,,,,,,,,,0,,,65,28
580080,note_on,0,0,2,,,,,,,,,,,,,,,0,,,60,23
580080,note_on,0,0,2,,,,,,,,,,,,,,,0,,,60,0
580080,note_on,0,0,2,,,,,,,,,,,,,,,0,,,65,0
580080,note_on,0,0,1,,,,,,,,,,,,,,,0,,,81,57
580080,note_on,69,0,2,,,,,,,,,,,,,,,0,,,69,0
580320,note_on,240,0,1,,,,,,,,,,,,,,,0,,,81,0
580320,note_on,0,0,2,,,,,,,,,,,,,,,0,,,60,0
580320,note_on,0,0,1,,,,,,,,,,,,,,,0,,,81,60
580320,note_on,0,0,2,,,,,,,,,,,,,,,0,,,65,27
580320,note_on,0,0,2,,,,,,,,,,,,,,,0,,,69,33
580320,note_on,0,0,2,,,,,,,,,,,,,,,0,,,65,0
580320,note_on,240,0,2,,,,,,,,,,,,,,,0,,,69,0
580320,note_on,0,0,2,,,,,,,,,,,,,,,0,,,60,22
580560,note_on,0,0,2,,,,,,,,,,,,,,,0,,,60,0
580560,note_on,240,0,1,,,,,,,,,,,,,,,0,,,81,0
580560,note_on,0,0,1,,,,,,,,,,,,,,,0,,,79,55
580560,note_on,240,0,2,,,,,,,,,,,,,,,0,,,69,0
580560,note_on,0,0,2,,,,,,,,,,,,,,,0,,,65,0
580560,note_on,0,0,2,,,,,,,,,,,,,,,0,,,69,33
580560,note_on,0,0,2,,,,,,,,,,,,,,,0,,,60,22
580560,note_on,0,0,2,,,,,,,,,,,,,,,0,,,65,27
580760,set_tempo,920,1,0,,,,,,,,,,,,603015,,,,,,,
580800,note_on,0,0,2,,,,,,,,,,,,,,,0,,,60,22
580800,note_on,0,0,2,,,,,,,,,,,,,,,0,,,60,0
580800,note_on,0,0,2,,,,,,,,,,,,,,,0,,,65,0
580800,note_on,240,0,2,,,,,,,,,,,,,,,0,,,69,0
580800,note_on,240,0,1,,,,,,,,,,,,,,,0,,,79,0
580800,note_on,0,0,1,,,,,,,,,,,,,,,0,,,79,58
580800,control_change,0,0,2,,,,,,,,,,,,,,,0,64,0,,
580800,note_on,0,0,2,,,,,,,,,,,,,,,0,,,65,26
580800,note_on,0,0,2,,,,,,,,,,,,,,,0,,,69,31
580880,set_tempo,120,1,0,,,,,,,,,,,,605999,,,,,,,
580891,control_change,91,0,2,,,,,,,,,,,,,,,0,64,127,,
580960,set_tempo,80,1,0,,,,,,,,,,,,608952,,,,,,,
581040,note_on,0,0,1,,,,,,,,,,,,,,,0,,,77,54
581040,note_on,149,0,2,,,,,,,,,,,,,,,0,,,69,0
581040,note_on,0,0,2,,,,,,,,,,,,,,,0,,,65,0
581040,note_on,0,0,2,,,,,,,,,,,,,,,0,,,60,0
581040,note_on,0,0,2,,,,,,,,,,,,,,,0,,,60,22
581040,note_on,0,0,2,,,,,,,,,,,,,,,0,,,65,26
581040,note_on,0,0,2,,,,,,,,,,,,,,,0,,,69,31
581040,note_on,240,0,1,,,,,,,,,,,,,,,0,,,79,0
581280,note_on,0,0,2,,,,,,,,,,,,,,,0,,,61,21
581280,note_on,0,0,2,,,,,,,,,,,,,,,0,,,69,30
581280,note_on,0,0,2,,,,,,,,,,,,,,,0,,,65,25
581280,note_on,0,0,2,,,,,,,,,,,,,,,0,,,65,0
581280,note_on,240,0,2,,,,,,,,,,,,,,,0,,,69,0
581280,note_on,0,0,2,,,,,,,,,,,,,,,0,,,60,0
581280,note_on,0,0,1,,,,,,,,,,,,,,,0,,,77,56
581280,note_on,240,0,1,,,,,,,,,,,,,,,0,,,77,0
581349,control_change,69,0,2,,,,,,,,,,,,,,,0,64,0,,
581440,control_change,91,0,2,,,,,,,,,,,,,,,0,64,127,,
581520,note_on,0,0,1,,,,,,,,,,,,,,,0,,,76,52
581520,note_on,240,0,1,,,,,,,,,,,,,,,0,,,77,0
581520,note_on,0,0,2,,,,,,,,,,,,,,,0,,,61,21
581520,note_on,80,0,2,,,,,,,,,,,,,,,0,,,69,0
581520,note_on,0,0,2,,,,,,,,,,,,,,,0,,,65,0
581520,note_on,0,0,2,,,,,,,,,,,,,,,0,,,69,30
581520,note_on,0,0,2,,,,,,,,,,,,,,,0,,,65,25
581520,note_on,0,0,2,,,,,,,,,,,,,,,0,,,61,0
581760,note_on,0,0,1,,,,,,,,,,,,,,,0,,,76,55
581760,note_on,240,0,1,,,,,,,,,,,,,,,0,,,76,0
581760,set_tempo,800,1,0,,,,,,,,,,,,610190,,,,,,,
581760,note_on,0,0,2,,,,,,,,,,,,,,,0,,,65,0
581760,note_on,0,0,2,,,,,,,,,,,,,,,0,,,61,0
581760,note_on,0,0,2,,,,,,,,,,,,,,,0,,,62,26
581760,note_on,0,0,2,,,,,,,,,,,,,,,0,,,65,31
581760,note_on,0,0,2,,,,,,,,,,,,,,,0,,,69,31
581760,control_change,0,0,2,,,,,,,,,,,,,,,0,64,0,,
581760,note_on,240,0,2,,,,,,,,,,,,,,,0,,,69,0
581886,control_change,126,0,2,,,,,,,,,,,,,,,0,64,127,,
582000,note_on,0,0,2,,,,,,,,,,,,,,,0,,,65,0
582000,note_on,0,0,2,,,,,,,,,,,,,,,0,,,62,0
582000,note_on,0,0,2,,,,,,,,,,,,,,,0,,,62,26
582000,note_on,114,0,2,,,,,,,,,,,,,,,0,,,69,0
582000,note_on,0,0,2,,,,,,,,,,,,,,,0,,,69,31
582000,note_on,0,0,1,,,,,,,,,,,,,,,0,,,77,51
582000,set_tempo,240,1,0,,,,,,,,,,,,613434,,,,,,,
582000,note_on,0,0,2,,,,,,,,,,,,,,,0,,,65,31
582000,note_on,240,0,1,,,,,,,,,,,,,,,0,,,76,0
582240,note_on,240,0,2,,,,,,,,,,,,,,,0,,,69,0
582240,note_on,240,0,1,,,,,,,,,,,,,,,0,,,77,0
582240,note_on,0,0,2,,,,,,,,,,,,,,,0,,,62,0
582240,note_on,0,0,2,,,,,,,,,,,,,,,0,,,69,31
582240,note_on,0,0,2,,,,,,,,,,,,,,,0,,,65,26
582240,note_on,0,0,1,,,,,,,,,,,,,,,0,,,77,56
582240,note_on,0,0,2,,,,,,,,,,,,,,,0,,,65,0
582480,note_on,240,0,1,,,,,,,,,,,,,,,0,,,77,0
582480,note_on,0,0,1,,,,,,,,,,,,,,,0,,,74,52
582480,note_on,0,0,2,,,,,,,,,,,,,,,0,,,69,31
582480,note_on,0,0,2,,,,,,,,,,,,,,,0,,,65,26
582480,note_on,0,0,2,,,,,,,,,,,,,,,0,,,65,0
582480,note_on,240,0,2,,,,,,,,,,,,,,,0,,,69,0
582720,note_on,0,0,1,,,,,,,,,,,,,,,0,,,74,55
582720,set_tempo,720,1,0,,,,,,,,,,,,608952,,,,,,,
582720,note_on,240,0,1,,,,,,,,,,,,,,,0,,,74,0
582720,note_on,0,0,2,,,,,,,,,,,,,,,0,,,65,0
582720,note_on,0,0,2,,,,,,,,,,,,,,,0,,,69,31
582720,note_on,240,0,2,,,,,,,,,,,,,,,0,,,69,0
582743,control_change,23,0,2,,,,,,,,,,,,,,,0,64,0,,
582760,set_tempo,40,1,0,,,,,,,,,,,,630451,,,,,,,
582823,control_change,80,0,2,,,,,,,,,,,,,,,0,64,127,,
582840,set_tempo,80,1,0,,,,,,,,,,,,633914,,,,,,,
582880,set_tempo,40,1,0,,,,,,,,,,,,637416,,,,,,,
582960,note_on,0,0,1,,,,,,,,,,,,,,,0,,,72,50
582960,note_on,240,0,1,,,,,,,,,,,,,,,0,,,74,0
582960,set_tempo,80,1,0,,,,,,,,,,,,641026,,,,,,,
582960,note_on,0,0,2,,,,,,,,,,,,,,,0,,,69,31
582960,note_on,137,0,2,,,,,,,,,,,,,,,0,,,69,0
583000,set_tempo,40,1,0,,,,,,,,,,,,644676,,,,,,,
583080,set_tempo,80,1,0,,,,,,,,,,,,648298,,,,,,,
583120,set_tempo,40,1,0,,,,,,,,,,,,652032,,,,,,,
583200,note_on,0,0,2,,,,,,,,,,,,,,,0,,,70,31
583200,note_on,0,0,2,,,,,,,,,,,,,,,0,,,60,26
583200,note_on,240,0,2,,,,,,,,,,,,,,,0,,,69,0
583200,set_tempo,80,1,0,,,,,,,,,,,,655738,,,,,,,
583200,note_on,240,0,1,,,,,,,,,,,,,,,0,,,72,0
583200,note_on,0,0,1,,,,,,,,,,,,,,,0,,,74,55
583200,note_on,0,0,2,,,,,,,,,,,,,,,0,,,64,31
583223,control_change,23,0,2,,,,,,,,,,,,,,,0,64,0,,
583240,set_tempo,40,1,0,,,,,,,,,,,,659631,,,,,,,
583303,control_change,80,0,2,,,,,,,,,,,,,,,0,64,127,,
583440,note_on,0,0,2,,,,,,,,,,,,,,,0,,,70,31
583440,note_on,137,0,2,,,,,,,,,,,,,,,0,,,70,0
583440,note_on,0,0,2,,,,,,,,,,,,,,,0,,,64,0
583440,note_on,0,0,2,,,,,,,,,,,,,,,0,,,60,0
583440,note_on,0,0,2,,,,,,,,,,,,,,,0,,,60,26
583440,note_on,0,0,2,,,,,,,,,,,,,,,0,,,64,31
583440,note_on,240,0,1,,,,,,,,,,,,,,,0,,,74,0
583440,note_on,0,0,1,,,,,,,,,,,,,,,0,,,72,51
583680,note_on,240,0,1,,,,,,,,,,,,,,,0,,,72,0
583680,set_tempo,440,1,0,,,,,,,,,,,,633914,,,,,,,
583680,note_on,0,0,2,,,,,,,,,,,,,,,0,,,60,0
583680,note_on,0,0,2,,,,,,,,,,,,,,,0,,,64,0
583680,note_on,240,0,2,,,,,,,,,,,,,,,0,,,70,0
583680,control_change,0,0,2,,,,,,,,,,,,,,,0,64,0,,
583680,note_on,0,0,1,,,,,,,,,,,,,,,0,,,69,52
583821,control_change,141,0,2,,,,,,,,,,,,,,,0,64,127,,
583920,note_on,240,0,1,,,,,,,,,,,,,,,0,,,69,0
583920,note_on,0,0,1,,,,,,,,,,,,,,,0,,,69,31
583920,note_on,0,0,1,,,,,,,,,,,,,,,0,,,65,25
583920,note_on,0,0,1,,,,,,,,,,,,,,,0,,,62,21
583920,set_tempo,240,1,0,,,,,,,,,,,,627221,,,,,,,
584160,note_on,0,0,1,,,,,,,,,,,,,,,0,,,69,32
584160,note_on,240,0,1,,,,,,,,,,,,,,,0,,,62,0
584160,note_on,0,0,1,,,,,,,,,,,,,,,0,,,62,22
584160,note_on,0,0,1,,,,,,,,,,,,,,,0,,,69,0
584160,note_on,0,0,1,,,,,,,,,,,,,,,0,,,65,0
584160,note_on,0,0,1,,,,,,,,,,,,,,,0,,,65,26
584400,note_on,240,0,1,,,,,,,,,,,,,,,0,,,62,0
584400,note_on,0,0,1,,,,,,,,,,,,,,,0,,,69,32
584400,note_on,0,0,1,,,,,,,,,,,,,,,0,,,65,26
584400,note_on,0,0,1,,,,,,,,,,,,,,,0,,,62,22
584400,note_on,0,0,1,,,,,,,,,,,,,,,0,,,65,0
584400,note_on,0,0,1,,,,,,,,,,,,,,,0,,,69,0
584640,note_on,0,0,1,,,,,,,,,,,,,,,0,,,65,25
584640,note_on,0,0,1,,,,,,,,,,,,,,,0,,,69,31
584640,note_on,0,0,1,,,,,,,,,,,,,,,0,,,69,0
584640,note_on,0,0,1,,,,,,,,,,,,,,,0,,,65,0
584640,note_on,240,0,1,,,,,,,,,,,,,,,0,,,62,0
584640,note_on,0,0,1,,,,,,,,,,,,,,,0,,,62,21
584880,note_on,240,0,1,,,,,,,,,,,,,,,0,,,62,0
584880,note_on,0,0,1,,,,,,,,,,,,,,,0,,,65,0
584880,note_on,0,0,1,,,,,,,,,,,,,,,0,,,69,0
584880,note_on,0,0,1,,,,,,,,,,,,,,,0,,,65,25
584880,note_on,0,0,1,,,,,,,,,,,,,,,0,,,62,21
584880,note_on,0,0,1,,,,,,,,,,,,,,,0,,,69,31
585120,note_on,0,0,1,,,,,,,,,,,,,,,0,,,65,0
585120,note_on,0,0,1,,,,,,,,,,,,,,,0,,,62,20
585120,note_on,0,0,1,,,,,,,,,,,,,,,0,,,65,24
585120,note_on,0,0,1,,,,,,,,,,,,,,,0,,,69,29
585120,note_on,0,0,1,,,,,,,,,,,,,,,0,,,69,0
585120,note_on,240,0,1,,,,,,,,,,,,,,,0,,,62,0
585360,note_on,0,0,1,,,,,,,,,,,,,,,0,,,62,20
585360,note_on,0,0,1,,,,,,,,,,,,,,,0,,,65,24
585360,note_on,0,0,1,,,,,,,,,,,,,,,0,,,69,29
585360,note_on,0,0,1,,,,,,,,,,,,,,,0,,,69,0
585360,note_on,240,0,1,,,,,,,,,,,,,,,0,,,62,0
585360,note_on,0,0,1,,,,,,,,,,,,,,,0,,,65,0
585600,note_on,0,0,1,,,,,,,,,,,,,,,0,,,65,22
585600,note_on,0,0,1,,,,,,,,,,,,,,,0,,,65,0
585600,note_on,240,0,1,,,,,,,,,,,,,,,0,,,62,0
585600,set_tempo,1680,1,0,,,,,,,,,,,,633513,,,,,,,
585600,note_on,0,0,2,,,,,,,,,,,,,,,0,,,50,56
585600,note_on,0,0,1,,,,,,,,,,,,,,,0,,,69,27
585600,note_on,0,0,1,,,,,,,,,,,,,,,0,,,69,0
585600,control_change,1779,0,2,,,,,,,,,,,,,,,0,64,0,,
585600,note_on,0,0,1,,,,,,,,,,,,,,,0,,,74,32
585741,control_change,141,0,2,,,,,,,,,,,,,,,0,64,127,,
585840,note_on,0,0,1,,,,,,,,,,,,,,,0,,,74,32
585840,note_on,0,0,1,,,,,,,,,,,,,,,0,,,69,27
585840,note_on,0,0,1,,,,,,,,,,,,,,,0,,,65,22
585840,note_on,240,0,1,,,,,,,,,,,,,,,0,,,65,0
585840,note_on,0,0,1,,,,,,,,,,,,,,,0,,,74,0
585840,note_on,0,0,1,,,,,,,,,,,,,,,0,,,69,0
586080,note_on,240,0,1,,,,,,,,,,,,,,,0,,,65,0
586080,note_on,0,0,1,,,,,,,,,,,,,,,0,,,69,0
586080,note_on,0,0,1,,,,,,,,,,,,,,,0,,,74,0
586080,note_on,0,0,1,,,,,,,,,,,,,,,0,,,69,27
586080,note_on,0,0,1,,,,,,,,,,,,,,,0,,,65,22
586080,note_on,0,0,1,,,,,,,,,,,,,,,0,,,74,32
586320,note_on,240,0,1,,,,,,,,,,,,,,,0,,,65,0
586320,note_on,0,0,1,,,,,,,,,,,,,,,0,,,74,0
586320,note_on,0,0,1,,,,,,,,,,,,,,,0,,,74,32
586320,note_on,0,0,1,,,,,,,,,,,,,,,0,,,69,27
586320,note_on,0,0,1,,,,,,,,,,,,,,,0,,,65,22
586320,note_on,0,0,1,,,,,,,,,,,,,,,0,,,69,0
586560,note_on,240,0,1,,,,,,,,,,,,,,,0,,,65,0
586560,note_on,0,0,1,,,,,,,,,,,,,,,0,,,69,0
586560,note_on,0,0,1,,,,,,,,,,,,,,,0,,,74,0
586560,note_on,0,0,1,,,,,,,,,,,,,,,0,,,65,22
586560,set_tempo,960,1,0,,,,,,,,,,,,620989,,,,,,,
586560,note_on,0,0,1,,,,,,,,,,,,,,,0,,,69,27
586560,note_on,819,0,2,,,,,,,,,,,,,,,0,,,50,0
586560,note_on,0,0,1,,,,,,,,,,,,,,,0,,,74,32
586560,note_on,0,0,2,,,,,,,,,,,,,,,0,,,53,48
586616,control_change,56,0,2,,,,,,,,,,,,,,,0,64,0,,
586744,control_change,128,0,2,,,,,,,,,,,,,,,0,64,127,,
586800,note_on,56,0,2,,,,,,,,,,,,,,,0,,,53,0
586800,note_on,240,0,1,,,,,,,,,,,,,,,0,,,65,0
586800,note_on,0,0,1,,,,,,,,,,,,,,,0,,,69,0
586800,note_on,0,0,1,,,,,,,,,,,,,,,0,,,74,0
586800,note_on,0,0,1,,,,,,,,,,,,,,,0,,,74,32
586800,note_on,0,0,1,,,,,,,,,,,,,,,0,,,69,27
586800,note_on,0,0,1,,,,,,,,,,,,,,,0,,,65,22
587040,note_on,0,0,1,,,,,,,,,,,,,,,0,,,65,22
587040,note_on,0,0,1,,,,,,,,,,,,,,,0,,,69,27
587040,note_on,0,0,1,,,,,,,,,,,,,,,0,,,74,32
587040,note_on,0,0,1,,,,,,,,,,,,,,,0,,,69,0
587040,note_on,240,0,1,,,,,,,,,,,,,,,0,,,65,0
587040,note_on,240,0,2,,,,,,,,,,,,,,,0,,,57,48
587040,note_on,0,0,1,,,,,,,,,,,,,,,0,,,74,0
587280,note_on,0,0,1,,,,,,,,,,,,,,,0,,,65,22
587280,note_on,240,0,2,,,,,,,,,,,,,,,0,,,57,0
587280,note_on,240,0,1,,,,,,,,,,,,,,,0,,,65,0
587280,note_on,0,0,1,,,,,,,,,,,,,,,0,,,69,0
587280,note_on,0,0,1,,,,,,,,,,,,,,,0,,,74,0
587280,note_on,0,0,1,,,,,,,,,,,,,,,0,,,74,32
587280,note_on,0,0,1,,,,,,,,,,,,,,,0,,,69,27
587515,note_on,235,0,1,,,,,,,,,,,,,,,0,,,74,0
587520,note_on,0,0,1,,,,,,,,,,,,,,,0,,,69,0
587520,set_tempo,960,1,0,,,,,,,,,,,,633513,,,,,,,
587520,control_change,240,0,2,,,,,,,,,,,,,,,0,64,0,,
587520,note_on,0,0,2,,,,,,,,,,,,,,,0,,,45,56
587520,note_on,5,0,1,,,,,,,,,,,,,,,0,,,65,0
587520,note_on,0,0,1,,,,,,,,,,,,,,,0,,,65,22
587520,note_on,0,0,1,,,,,,,,,,,,,,,0,,,73,32
587520,note_on,0,0,1,,,,,,,,,,,,,,,0,,,69,27
587611,control_change,91,0,2,,,,,,,,,,,,,,,0,64,127,,
587760,note_on,0,0,1,,,,,,,,,,,,,,,0,,,65,0
587760,note_on,0,0,1,,,,,,,,,,,,,,,0,,,65,22
587760,note_on,0,0,1,,,,,,,,,,,,,,,0,,,69,27
587760,note_on,0,0,1,,,,,,,,,,,,,,,0,,,73,32
587760,note_on,240,0,1,,,,,,,,,,,,,,,0,,,73,0
587760,note_on,0,0,1,,,,,,,,,,,,,,,0,,,69,0
588000,note_on,0,0,1,,,,,,,,,,,,,,,0,,,69,0
588000,note_on,0,0,1,,,,,,,,,,,,,,,0,,,65,0
588000,note_on,0,0,1,,,,,,,,,,,,,,,0,,,65,22
588000,note_on,0,0,1,,,,,,,,,,,,,,,0,,,69,27
588000,note_on,0,0,1,,,,,,,,,,,,,,,0,,,73,32
588000,note_on,240,0,1,,,,,,,,,,,,,,,0,,,73,0
588240,note_on,0,0,1,,,,,,,,,,,,,,,0,,,73,32
588240,note_on,0,0,1,,,,,,,,,,,,,,,0,,,69,0
588240,note_on,0,0,1,,,,,,,,,,,,,,,0,,,65,0
588240,note_on,0,0,1,,,,,,,,,,,,,,,0,,,65,22
588240,note_on,0,0,1,,,,,,,,,,,,,,,0,,,69,27
588240,note_on,240,0,1,,,,,,,,,,,,,,,0,,,73,0
588480,set_tempo,960,1,0,,,,,,,,,,,,620989,,,,,,,
588480,note_on,0,0,2,,,,,,,,,,,,,,,0,,,53,47
588480,note_on,0,0,1,,,,,,,,,,,,,,,0,,,73,32
588480,note_on,869,0,2,,,,,,,,,,,,,,,0,,,45,0
588480,note_on,0,0,1,,,,,,,,,,,,,,,0,,,65,22
588480,note_on,0,0,1,,,,,,,,,,,,,,,0,,,65,0
588480,note_on,0,0,1,,,,,,,,,,,,,,,0,,,69,0
588480,note_on,240,0,1,,,,,,,,,,,,,,,0,,,73,0
588480,note_on,0,0,1,,,,,,,,,,,,,,,0,,,69,27
588571,control_change,91,0,2,,,,,,,,,,,,,,,0,64,0,,
588640,control_change,69,0,2,,,,,,,,,,,,,,,0,64,127,,
588720,note_on,240,0,1,,,,,,,,,,,,,,,0,,,73,0
588720,note_on,0,0,1,,,,,,,,,,,,,,,0,,,65,0
588720,note_on,0,0,1,,,,,,,,,,,,,,,0,,,65,22
588720,note_on,0,0,1,,,,,,,,,,,,,,,0,,,69,27
588720,note_on,0,0,1,,,,,,,,,,,,,,,0,,,73,32
588720,note_on,80,0,2,,,,,,,,,,,,,,,0,,,53,0
588720,note_on,0,0,1,,,,,,,,,,,,,,,0,,,69,0
588960,note_on,240,0,2,,,,,,,,,,,,,,,0,,,57,47
588960,note_on,0,0,1,,,,,,,,,,,,,,,0,,,65,22
588960,note_on,0,0,1,,,,,,,,,,,,,,,0,,,73,32
588960,note_on,0,0,1,,,,,,,,,,,,,,,0,,,69,27
588960,note_on,0,0,1,,,,,,,,,,,,,,,0,,,65,0
588960,note_on,0,0,1,,,,,,,,,,,,,,,0,,,69,0
588960,note_on,240,0,1,,,,,,,,,,,,,,,0,,,73,0
589200,note_on,0,0,1,,,,,,,,,,,,,,,0,,,65,22
589200,note_on,0,0,1,,,,,,,,,,,,,,,0,,,69,27
589200,note_on,0,0,1,,,,,,,,,,,,,,,0,,,73,32
589200,note_on,0,0,1,,,,,,,,,,,,,,,0,,,69,0
589200,note_on,240,0,1,,,,,,,,,,,,,,,0,,,73,0
589200,note_on,240,0,2,,,,,,,,,,,,,,,0,,,57,0
589200,note_on,0,0,1,,,,,,,,,,,,,,,0,,,65,0
589440,control_change,240,0,2,,,,,,,,,,,,,,,0,64,0,,
589440,note_on,0,0,2,,,,,,,,,,,,,,,0,,,50,56
589440,set_tempo,960,1,0,,,,,,,,,,,,630451,,,,,,,
589440,note_on,0,0,1,,,,,,,,,,,,,,,0,,,65,0
589440,note_on,240,0,1,,,,,,,,,,,,,,,0,,,73,0
589440,note_on,0,0,1,,,,,,,,,,,,,,,0,,,69,0
589440,note_on,0,0,1,,,,,,,,,,,,,,,0,,,69,27
589440,note_on,0,0,1,,,,,,,,,,,,,,,0,,,65,22
589440,note_on,0,0,1,,,,,,,,,,,,,,,0,,,74,32
589554,control_change,114,0,2,,,,,,,,,,,,,,,0,64,127,,
589680,note_on,0,0,1,,,,,,,,,,,,,,,0,,,74,32
589680,note_on,240,0,1,,,,,,,,,,,,,,,0,,,74,0
589680,note_on,0,0,1,,,,,,,,,,,,,,,0,,,65,0
589680,note_on,0,0,1,,,,,,,,,,,,,,,0,,,69,0
589680,note_on,0,0,1,,,,,,,,,,,,,,,0,,,69,27
589680,note_on,0,0,1,,,,,,,,,,,,,,,0,,,65,22
589920,note_on,0,0,1,,,,,,,,,,,,,,,0,,,69,0
589920,note_on,0,0,1,,,,,,,,,,,,,,,0,,,69,27
589920,note_on,0,0,1,,,,,,,,,,,,,,,0,,,65,22
589920,note_on,0,0,1,,,,,,,,,,,,,,,0,,,74,32
589920,note_on,240,0,1,,,,,,,,,,,,,,,0,,,74,0
589920,note_on,0,0,1,,,,,,,,,,,,,,,0,,,65,0
590160,note_on,240,0,1,,,,,,,,,,,,,,,0,,,74,0
590160,note_on,0,0,1,,,,,,,,,,,,,,,0,,,65,0
590160,note_on,0,0,1,,,,,,,,,,,,,,,0,,,69,0
590160,note_on,0,0,1,,,,,,,,,,,,,,,0,,,65,22
590160,note_on,0,0,1,,,,,,,,,,,,,,,0,,,74,32
590160,note_on,0,0,1,,,,,,,,,,,,,,,0,,,69,27
590400,note_on,240,0,1,,,,,,,,,,,,,,,0,,,69,0
590400,note_on,846,0,2,,,,,,,,,,,,,,,0,,,50,0
590400,note_on,0,0,2,,,,,,,,,,,,,,,0,,,53,48
590400,note_on,0,0,1,,,,,,,,,,,,,,,0,,,65,22
590400,note_on,0,0,1,,,,,,,,,,,,,,,0,,,69,27
590400,note_on,0,0,1,,,,,,,,,,,,,,,0,,,74,32
590400,set_tempo,960,1,0,,,,,,,,,,,,620989,,,,,,,
590400,note_on,0,0,1,,,,,,,,,,,,,,,0,,,74,0
590400,note_on,0,0,1,,,,,,,,,,,,,,,0,,,65,0
590411,control_change,11,0,2,,,,,,,,,,,,,,,0,64,0,,
590606,control_change,195,0,2,,,,,,,,,,,,,,,0,64,127,,
590640,note_on,0,0,1,,,,,,,,,,,,,,,0,,,69,0
590640,note_on,0,0,1,,,,,,,,,,,,,,,0,,,74,0
590640,note_on,0,0,1,,,,,,,,,,,,,,,0,,,74,32
590640,note_on,0,0,1,,,,,,,,,,,,,,,0,,,69,27
590640,note_on,0,0,1,,,,,,,,,,,,,,,0,,,65,22
590640,note_on,240,0,1,,,,,,,,,,,,,,,0,,,65,0
590640,note_on,34,0,2,,,,,,,,,,,,,,,0,,,53,0
590880,note_on,0,0,1,,,,,,,,,,,,,,,0,,,65,22
590880,note_on,240,0,1,,,,,,,,,,,,,,,0,,,65,0
590880,note_on,0,0,1,,,,,,,,,,,,,,,0,,,69,0
590880,note_on,0,0,1,,,,,,,,,,,,,,,0,,,74,0
590880,note_on,0,0,1,,,,,,,,,,,,,,,0,,,73,33
590880,note_on,0,0,1,,,,,,,,,,,,,,,0,,,69,27
590880,note_on,240,0,2,,,,,,,,,,,,,,,0,,,57,48
590914,control_change,34,0,2,,,,,,,,,,,,,,,0,64,0,,
590994,control_change,80,0,2,,,,,,,,,,,,,,,0,64,127,,
591120,note_on,0,0,1,,,,,,,,,,,,,,,0,,,73,34
591120,note_on,0,0,1,,,,,,,,,,,,,,,0,,,69,28
591120,note_on,0,0,1,,,,,,,,,,,,,,,0,,,65,23
591120,note_on,0,0,1,,,,,,,,,,,,,,,0,,,69,0
591120,note_on,240,0,1,,,,,,,,,,,,,,,0,,,65,0
591120,note_on,126,0,2,,,,,,,,,,,,,,,0,,,57,0
591120,note_on,0,0,1,,,,,,,,,,,,,,,0,,,73,0
591360,set_tempo,960,1,0,,,,,,,,,,,,617920,,,,,,,
591360,note_on,0,0,1,,,,,,,,,,,,,,,0,,,69,0
591360,note_on,0,0,1,,,,,,,,,,,,,,,0,,,73,0
591360,note_on,0,0,1,,,,,,,,,,,,,,,0,,,65,27
591360,note_on,0,0,1,,,,,,,,,,,,,,,0,,,69,32
591360,note_on,0,0,1,,,,,,,,,,,,,,,0,,,72,39
591360,note_on,240,0,2,,,,,,,,,,,,,,,0,,,60,52
591360,note_on,240,0,1,,,,,,,,,,,,,,,0,,,65,0
591429,control_change,69,0,2,,,,,,,,,,,,,,,0,64,0,,
591451,control_change,22,0,2,,,,,,,,,,,,,,,0,64,127,,
591600,note_on,0,0,2,,,,,,,,,,,,,,,0,,,57,45
591600,note_on,149,0,2,,,,,,,,,,,,,,,0,,,60,0
591600,note_on,0,0,1,,,,,,,,,,,,,,,0,,,69,32
591600,note_on,0,0,1,,,,,,,,,,,,,,,0,,,65,27
591600,note_on,0,0,1,,,,,,,,,,,,,,,0,,,65,0
591600,note_on,0,0,1,,,,,,,,,,,,,,,0,,,69,0
591600,note_on,240,0,1,,,,,,,,,,,,,,,0,,,72,0
591600,note_on,0,0,1,,,,,,,,,,,,,,,0,,,72,39
591840,note_on,240,0,1,,,,,,,,,,,,,,,0,,,72,0
591840,note_on,0,0,1,,,,,,,,,,,,,,,0,,,69,0
591840,note_on,0,0,1,,,,,,,,,,,,,,,0,,,65,26
591840,note_on,0,0,1,,,,,,,,,,,,,,,0,,,69,31
591840,note_on,0,0,1,,,,,,,,,,,,,,,0,,,72,37
591840,note_on,0,0,2,,,,,,,,,,,,,,,0,,,57,48
591840,note_on,240,0,2,,,,,,,,,,,,,,,0,,,57,0
591840,note_on,0,0,1,,,,,,,,,,,,,,,0,,,65,0
592080,note_on,0,0,2,,,,,,,,,,,,,,,0,,,55,44
592080,note_on,240,0,2,,,,,,,,,,,,,,,0,,,57,0
592080,note_on,0,0,1,,,,,,,,,,,,,,,0,,,69,0
592080,note_on,0,0,1,,,,,,,,,,,,,,,0,,,69,31
592080,note_on,0,0,1,,,,,,,,,,,,,,,0,,,65,26
592080,note_on,0,0,1,,,,,,,,,,,,,,,0,,,65,0
592080,note_on,240,0,1,,,,,,,,,,,,,,,0,,,72,0
592080,note_on,0,0,1,,,,,,,,,,,,,,,0,,,72,37
592280,set_tempo,920,1,0,,,,,,,,,,,,603015,,,,,,,
592320,note_on,0,0,2,,,,,,,,,,,,,,,0,,,55,46
592320,note_on,240,0,2,,,,,,,,,,,,,,,0,,,55,0
592320,control_change,0,0,2,,,,,,,,,,,,,,,0,64,0,,
592320,note_on,0,0,1,,,,,,,,,,,,,,,0,,,72,35
592320,note_on,240,0,1,,,,,,,,,,,,,,,0,,,72,0
592320,note_on,0,0,1,,,,,,,,,,,,,,,0,,,69,0
592320,note_on,0,0,1,,,,,,,,,,,,,,,0,,,65,0
592320,note_on,0,0,1,,,,,,,,,,,,,,,0,,,65,24
592320,note_on,0,0,1,,,,,,,,,,,,,,,0,,,69,29
592400,set_tempo,120,1,0,,,,,,,,,,,,605999,,,,,,,
592411,control_change,91,0,2,,,,,,,,,,,,,,,0,64,127,,
592480,set_tempo,80,1,0,,,,,,,,,,,,608952,,,,,,,
592560,note_on,0,0,1,,,,,,,,,,,,,,,0,,,65,24
592560,note_on,240,0,1,,,,,,,,,,,,,,,0,,,72,0
592560,note_on,0,0,2,,,,,,,,,,,,,,,0,,,53,43
592560,note_on,149,0,2,,,,,,,,,,,,,,,0,,,55,0
592560,note_on,0,0,1,,,,,,,,,,,,,,,0,,,69,0
592560,note_on,0,0,1,,,,,,,,,,,,,,,0,,,65,0
592560,note_on,0,0,1,,,,,,,,,,,,,,,0,,,72,35
592560,note_on,0,0,1,,,,,,,,,,,,,,,0,,,69,29
592800,note_on,0,0,1,,,,,,,,,,,,,,,0,,,69,28
592800,note_on,0,0,1,,,,,,,,,,,,,,,0,,,65,23
592800,note_on,240,0,2,,,,,,,,,,,,,,,0,,,53,0
592800,note_on,0,0,2,,,,,,,,,,,,,,,0,,,53,44
592800,note_on,0,0,1,,,,,,,,,,,,,,,0,,,65,0
592800,note_on,0,0,1,,,,,,,,,,,,,,,0,,,73,34
592800,note_on,240,0,1,,,,,,,,,,,,,,,0,,,72,0
592800,note_on,0,0,1,,,,,,,,,,,,,,,0,,,69,0
592811,control_change,11,0,2,,,,,,,,,,,,,,,0,64,0,,
592903,control_change,92,0,2,,,,,,,,,,,,,,,0,64,127,,
593040,note_on,0,0,1,,,,,,,,,,,,,,,0,,,69,28
593040,note_on,0,0,1,,,,,,,,,,,,,,,0,,,69,0
593040,note_on,0,0,1,,,,,,,,,,,,,,,0,,,65,0
593040,note_on,137,0,2,,,,,,,,,,,,,,,0,,,53,0
593040,note_on,0,0,2,,,,,,,,,,,,,,,0,,,52,41
593040,note_on,240,0,1,,,,,,,,,,,,,,,0,,,73,0
593040,note_on,0,0,1,,,,,,,,,,,,,,,0,,,73,34
593040,note_on,0,0,1,,,,,,,,,,,,,,,0,,,65,23
593280,note_on,240,0,2,,,,,,,,,,,,,,,0,,,52,0
593280,control_change,0,0,2,,,,,,,,,,,,,,,0,64,0,,
593280,note_on,0,0,2,,,,,,,,,,,,,,,0,,,52,44
593280,note_on,0,0,1,,,,,,,,,,,,,,,0,,,74,38
593280,note_on,0,0,1,,,,,,,,,,,,,,,0,,,65,32
593280,note_on,0,0,1,,,,,,,,,,,,,,,0,,,65,0
593280,note_on,0,0,1,,,,,,,,,,,,,,,0,,,69,0
593280,note_on,240,0,1,,,,,,,,,,,,,,,0,,,73,0
593280,note_on,0,0,1,,,,,,,,,,,,,,,0,,,69,38
593280,set_tempo,800,1,0,,,,,,,,,,,,620989,,,,,,,
593417,control_change,137,0,2,,,,,,,,,,,,,,,0,64,127,,
593520,note_on,240,0,1,,,,,,,,,,,,,,,0,,,74,0
593520,note_on,0,0,1,,,,,,,,,,,,,,,0,,,69,0
593520,note_on,0,0,1,,,,,,,,,,,,,,,0,,,74,38
593520,note_on,0,0,1,,,,,,,,,,,,,,,0,,,69,38
593520,note_on,0,0,2,,,,,,,,,,,,,,,0,,,53,40
593520,note_on,0,0,1,,,,,,,,,,,,,,,0,,,65,32
593520,note_on,0,0,1,,,,,,,,,,,,,,,0,,,65,0
593520,set_tempo,240,1,0,,,,,,,,,,,,611870,,,,,,,
593520,note_on,103,0,2,,,,,,,,,,,,,,,0,,,52,0
593760,note_on,240,0,2,,,,,,,,,,,,,,,0,,,53,0
593760,note_on,0,0,2,,,,,,,,,,,,,,,0,,,53,44
593760,note_on,0,0,1,,,,,,,,,,,,,,,0,,,69,38
593760,set_tempo,240,1,0,,,,,,,,,,,,623506,,,,,,,
593760,note_on,240,0,1,,,,,,,,,,,,,,,0,,,74,0
593760,note_on,0,0,1,,,,,,,,,,,,,,,0,,,69,0
593760,note_on,0,0,1,,,,,,,,,,,,,,,0,,,65,0
593760,note_on,0,0,1,,,,,,,,,,,,,,,0,,,77,38
593760,note_on,0,0,1,,,,,,,,,,,,,,,0,,,65,32
594000,note_on,240,0,1,,,,,,,,,,,,,,,0,,,69,0
594000,note_on,0,0,1,,,,,,,,,,,,,,,0,,,65,0
594000,note_on,0,0,1,,,,,,,,,,,,,,,0,,,77,38
594000,note_on,0,0,1,,,,,,,,,,,,,,,0,,,65,32
594000,note_on,0,0,1,,,,,,,,,,,,,,,0,,,69,38
594000,note_on,0,0,2,,,,,,,,,,,,,,,0,,,50,41
594000,note_on,240,0,2,,,,,,,,,,,,,,,0,,,53,0
594000,note_on,0,0,1,,,,,,,,,,,,,,,0,,,77,0
594240,note_on,0,0,1,,,,,,,,,,,,,,,0,,,65,0
594240,note_on,0,0,1,,,,,,,,,,,,,,,0,,,77,0
594240,note_on,0,0,1,,,,,,,,,,,,,,,0,,,69,32
594240,note_on,0,0,2,,,,,,,,,,,,,,,0,,,50,44
594240,note_on,240,0,2,,,,,,,,,,,,,,,0,,,50,0
594240,set_tempo,480,1,0,,,,,,,,,,,,633914,,,,,,,
594240,note_on,240,0,1,,,,,,,,,,,,,,,0,,,69,0
594240,note_on,0,0,1,,,,,,,,,,,,,,,0,,,81,38
594274,control_change,34,0,2,,,,,,,,,,,,,,,0,64,0,,
594320,set_tempo,80,1,0,,,,,,,,,,,,637416,,,,,,,
594366,control_change,92,0,2,,,,,,,,,,,,,,,0,64,127,,
594400,set_tempo,80,1,0,,,,,,,,,,,,641026,,,,,,,
594480,set_tempo,80,1,0,,,,,,,,,,,,644676,,,,,,,
594480,note_on,0,0,1,,,,,,,,,,,,,,,0,,,81,0
594480,note_on,0,0,1,,,,,,,,,,,,,,,0,,,81,38
594480,note_on,114,0,2,,,,,,,,,,,,,,,0,,,50,0
594480,note_on,0,0,2,,,,,,,,,,,,,,,0,,,48,40
594480,note_on,240,0,1,,,,,,,,,,,,,,,0,,,69,0
594480,note_on,0,0,1,,,,,,,,,,,,,,,0,,,69,32
594560,set_tempo,80,1,0,,,,,,,,,,,,648298,,,,,,,
594600,set_tempo,40,1,0,,,,,,,,,,,,652032,,,,,,,
594680,set_tempo,80,1,0,,,,,,,,,,,,655738,,,,,,,
594720,note_on,0,0,1,,,,,,,,,,,,,,,0,,,82,38
594720,note_on,0,0,1,,,,,,,,,,,,,,,0,,,76,38
594720,note_on,0,0,1,,,,,,,,,,,,,,,0,,,81,0
594720,note_on,240,0,1,,,,,,,,,,,,,,,0,,,69,0
594720,note_on,0,0,2,,,,,,,,,,,,,,,0,,,50,44
594720,note_on,240,0,2,,,,,,,,,,,,,,,0,,,48,0
594720,note_on,0,0,1,,,,,,,,,,,,,,,0,,,70,32
594731,control_change,11,0,2,,,,,,,,,,,,,,,0,64,0,,
594760,set_tempo,80,1,0,,,,,,,,,,,,659631,,,,,,,
594823,control_change,92,0,2,,,,,,,,,,,,,,,0,64,127,,
594840,set_tempo,80,1,0,,,,,,,,,,,,663423,,,,,,,
594880,set_tempo,40,1,0,,,,,,,,,,,,667260,,,,,,,
594960,note_on,240,0,1,,,,,,,,,,,,,,,0,,,82,0
594960,note_on,0,0,1,,,,,,,,,,,,,,,0,,,76,0
594960,note_on,0,0,1,,,,,,,,,,,,,,,0,,,70,0
594960,note_on,0,0,1,,,,,,,,,,,,,,,0,,,70,32
594960,note_on,0,0,1,,,,,,,,,,,,,,,0,,,82,38
594960,set_tempo,80,1,0,,,,,,,,,,,,671216,,,,,,,
594960,note_on,0,0,2,,,,,,,,,,,,,,,0,,,48,40
594960,note_on,137,0,2,,,,,,,,,,,,,,,0,,,50,0
594960,note_on,0,0,1,,,,,,,,,,,,,,,0,,,76,38
595040,set_tempo,80,1,0,,,,,,,,,,,,675143,,,,,,,
595120,set_tempo,80,1,0,,,,,,,,,,,,679194,,,,,,,
595160,set_tempo,40,1,0,,,,,,,,,,,,683293,,,,,,,
595200,note_on,240,0,1,,,,,,,,,,,,,,,0,,,82,0
595200,note_on,0,0,1,,,,,,,,,,,,,,,0,,,70,0
595200,note_on,0,0,1,,,,,,,,,,,,,,,0,,,69,32
595200,note_on,0,0,1,,,,,,,,,,,,,,,0,,,77,32
595200,note_on,0,0,1,,,,,,,,,,,,,,,0,,,81,38
595200,control_change,0,0,2,,,,,,,,,,,,,,,0,64,0,,
595200,note_on,0,0,2,,,,,,,,,,,,,,,0,,,50,44
595200,note_on,240,0,2,,,,,,,,,,,,,,,0,,,48,0
595200,set_tempo,40,1,0,,,,,,,,,,,,630451,,,,,,,
595200,note_on,0,0,1,,,,,,,,,,,,,,,0,,,76,0
595280,control_change,80,0,2,,,,,,,,,,,,,,,0,64,127,,
595440,note_on,0,0,1,,,,,,,,,,,,,,,0,,,69,27
595440,note_on,0,0,1,,,,,,,,,,,,,,,0,,,69,0
595440,set_tempo,240,1,0,,,,,,,,,,,,627221,,,,,,,
595440,note_on,0,0,1,,,,,,,,,,,,,,,0,,,77,0
595440,note_on,0,0,1,,,,,,,,,,,,,,,0,,,65,23
595440,note_on,0,0,1,,,,,,,,,,,,,,,0,,,62,19
595440,note_on,240,0,1,,,,,,,,,,,,,,,0,,,81,0
595650,set_tempo,210,1,0,,,,,,,,,,,,621762,,,,,,,
595674,set_tempo,24,1,0,,,,,,,,,,,,621762,,,,,,,
595680,note_on,0,0,1,,,,,,,,,,,,,,,0,,,69,0
595680,note_on,0,0,1,,,,,,,,,,,,,,,0,,,65,0
595680,note_on,240,0,1,,,,,,,,,,,,,,,0,,,62,0
595680,note_on,0,0,1,,,,,,,,,,,,,,,0,,,65,23
595680,note_on,400,0,2,,,,,,,,,,,,,,,0,,,50,0
595680,note_on,0,0,1,,,,,,,,,,,,,,,0,,,62,19
595680,note_on,0,0,1,,,,,,,,,,,,,,,0,,,69,27
595690,set_tempo,16,1,0,,,,,,,,,,,,615385,,,,,,,
595702,set_tempo,12,1,0,,,,,,,,,,,,612245,,,,,,,
595730,set_tempo,28,1,0,,,,,,,,,,,,615385,,,,,,,
595742,set_tempo,12,1,0,,,,,,,,,,,,621762,,,,,,,
595754,set_tempo,12,1,0,,,,,,,,,,,,628272,,,,,,,
595782,set_tempo,28,1,0,,,,,,,,,,,,625000,,,,,,,
595794,set_tempo,12,1,0,,,,,,,,,,,,621762,,,,,,,
595822,set_tempo,28,1,0,,,,,,,,,,,,618557,,,,,,,
595834,set_tempo,12,1,0,,,,,,,,,,,,615385,,,,,,,
595850,set_tempo,16,1,0,,,,,,,,,,,,618557,,,,,,,
595862,set_tempo,12,1,0,,,,,,,,,,,,625000,,,,,,,
595890,set_tempo,28,1,0,,,,,,,,,,,,621762,,,,,,,
595914,set_tempo,24,1,0,,,,,,,,,,,,618557,,,,,,,
595920,note_on,0,0,1,,,,,,,,,,,,,,,0,,,62,19
595920,note_on,0,0,1,,,,,,,,,,,,,,,0,,,65,23
595920,note_on,0,0,1,,,,,,,,,,,,,,,0,,,69,27
595920,note_on,0,0,1,,,,,,,,,,,,,,,0,,,69,0
595920,note_on,0,0,1,,,,,,,,,,,,,,,0,,,65,0
595920,note_on,240,0,1,,,,,,,,,,,,,,,0,,,62,0
595930,set_tempo,16,1,0,,,,,,,,,,,,615385,,,,,,,
595970,set_tempo,40,1,0,,,,,,,,,,,,618557,,,,,,,
595994,set_tempo,24,1,0,,,,,,,,,,,,625000,,,,,,,
596034,set_tempo,40,1,0,,,,,,,,,,,,621762,,,,,,,
596050,set_tempo,16,1,0,,,,,,,,,,,,615385,,,,,,,
596074,set_tempo,24,1,0,,,,,,,,,,,,618557,,,,,,,
596090,set_tempo,16,1,0,,,,,,,,,,,,621762,,,,,,,
596130,set_tempo,40,1,0,,,,,,,,,,,,618557,,,,,,,
596142,set_tempo,12,1,0,,,,,,,,,,,,615385,,,,,,,
596160,note_on,0,0,1,,,,,,,,,,,,,,,0,,,62,19
596160,note_on,0,0,1,,,,,,,,,,,,,,,0,,,65,23
596160,note_on,0,0,1,,,,,,,,,,,,,,,0,,,69,27
596160,note_on,0,0,1,,,,,,,,,,,,,,,0,,,65,0
596160,note_on,240,0,1,,,,,,,,,,,,,,,0,,,62,0
596160,note_on,0,0,1,,,,,,,,,,,,,,,0,,,69,0
596170,set_tempo,28,1,0,,,,,,,,,,,,609137,,,,,,,
596182,set_tempo,12,1,0,,,,,,,,,,,,612245,,,,,,,
596210,set_tempo,28,1,0,,,,,,,,,,,,615385,,,,,,,
596222,set_tempo,12,1,0,,,,,,,,,,,,621762,,,,,,,
596234,set_tempo,12,1,0,,,,,,,,,,,,625000,,,,,,,
596262,set_tempo,28,1,0,,,,,,,,,,,,621762,,,,,,,
596274,set_tempo,12,1,0,,,,,,,,,,,,615385,,,,,,,
596302,set_tempo,28,1,0,,,,,,,,,,,,609137,,,,,,,
596314,set_tempo,12,1,0,,,,,,,,,,,,615385,,,,,,,
596330,set_tempo,16,1,0,,,,,,,,,,,,618557,,,,,,,
596342,set_tempo,12,1,0,,,,,,,,,,,,621762,,,,,,,
596354,set_tempo,12,1,0,,,,,,,,,,,,625000,,,,,,,
596382,set_tempo,28,1,0,,,,,,,,,,,,621762,,,,,,,
596394,set_tempo,12,1,0,,,,,,,,,,,,615385,,,,,,,
596400,note_on,240,0,1,,,,,,,,,,,,,,,0,,,62,0
596400,note_on,0,0,1,,,,,,,,,,,,,,,0,,,65,0
596400,note_on,0,0,1,,,,,,,,,,,,,,,0,,,69,0
596400,note_on,0,0,1,,,,,,,,,,,,,,,0,,,69,27
596400,note_on,0,0,1,,,,,,,,,,,,,,,0,,,65,23
596400,note_on,0,0,1,,,,,,,,,,,,,,,0,,,62,19
596410,set_tempo,16,1,0,,,,,,,,,,,,612245,,,,,,,
596422,set_tempo,12,1,0,,,,,,,,,,,,609137,,,,,,,
596434,set_tempo,12,1,0,,,,,,,,,,,,618557,,,,,,,
596502,set_tempo,68,1,0,,,,,,,,,,,,615385,,,,,,,
596530,set_tempo,28,1,0,,,,,,,,,,,,612245,,,,,,,
596542,set_tempo,12,1,0,,,,,,,,,,,,609137,,,,,,,
596554,set_tempo,12,1,0,,,,,,,,,,,,615385,,,,,,,
596570,set_tempo,16,1,0,,,,,,,,,,,,621762,,,,,,,
596610,set_tempo,40,1,0,,,,,,,,,,,,618557,,,,,,,
596622,set_tempo,12,1,0,,,,,,,,,,,,615385,,,,,,,
596634,set_tempo,12,1,0,,,,,,,,,,,,612245,,,,,,,
596640,note_on,0,0,1,,,,,,,,,,,,,,,0,,,69,27
596640,note_on,0,0,1,,,,,,,,,,,,,,,0,,,65,23
596640,note_on,0,0,1,,,,,,,,,,,,,,,0,,,62,19
596640,note_on,0,0,1,,,,,,,,,,,,,,,0,,,65,0
596640,note_on,240,0,1,,,,,,,,,,,,,,,0,,,62,0
596640,note_on,0,0,1,,,,,,,,,,,,,,,0,,,69,0
596650,set_tempo,16,1,0,,,,,,,,,,,,609137,,,,,,,
596662,set_tempo,12,1,0,,,,,,,,,,,,618557,,,,,,,
596674,set_tempo,12,1,0,,,,,,,,,,,,621762,,,,,,,
596690,set_tempo,16,1,0,,,,,,,,,,,,625000,,,,,,,
596702,set_tempo,12,1,0,,,,,,,,,,,,628272,,,,,,,
596754,set_tempo,52,1,0,,,,,,,,,,,,625000,,,,,,,
596770,set_tempo,16,1,0,,,,,,,,,,,,618557,,,,,,,
596782,set_tempo,12,1,0,,,,,,,,,,,,615385,,,,,,,
596794,set_tempo,12,1,0,,,,,,,,,,,,612245,,,,,,,
596810,set_tempo,16,1,0,,,,,,,,,,,,609137,,,,,,,
596822,set_tempo,12,1,0,,,,,,,,,,,,618557,,,,,,,
596834,set_tempo,12,1,0,,,,,,,,,,,,621762,,,,,,,
596880,note_on,0,0,1,,,,,,,,,,,,,,,0,,,62,19
596880,note_on,0,0,1,,,,,,,,,,,,,,,0,,,65,23
596880,note_on,240,0,1,,,,,,,,,,,,,,,0,,,62,0
596880,note_on,0,0,1,,,,,,,,,,,,,,,0,,,65,0
596880,note_on,0,0,1,,,,,,,,,,,,,,,0,,,69,0
596880,note_on,0,0,1,,,,,,,,,,,,,,,0,,,69,27
596890,set_tempo,56,1,0,,,,,,,,,,,,618557,,,,,,,
596902,set_tempo,12,1,0,,,,,,,,,,,,615385,,,,,,,
596914,set_tempo,12,1,0,,,,,,,,,,,,612245,,,,,,,
596942,set_tempo,28,1,0,,,,,,,,,,,,615385,,,,,,,
596954,set_tempo,12,1,0,,,,,,,,,,,,618557,,,,,,,
596970,set_tempo,16,1,0,,,,,,,,,,,,625000,,,,,,,
596982,set_tempo,12,1,0,,,,,,,,,,,,621762,,,,,,,
596994,set_tempo,12,1,0,,,,,,,,,,,,618557,,,,,,,
597009,control_change,1329,0,2,,,,,,,,,,,,,,,0,64,0,,
597060,note_on,51,0,2,,,,,,,,,,,,,,,0,,,40,27
597120,note_on,0,0,1,,,,,,,,,,,,,,,0,,,65,23
597120,note_on,0,0,2,,,,,,,,,,,,,,,0,,,38,27
597120,note_on,240,0,1,,,,,,,,,,,,,,,0,,,62,0
597120,note_on,0,0,1,,,,,,,,,,,,,,,0,,,65,0
597120,note_on,0,0,1,,,,,,,,,,,,,,,0,,,69,0
597120,note_on,0,0,1,,,,,,,,,,,,,,,0,,,62,19
597120,note_on,0,0,1,,,,,,,,,,,,,,,0,,,69,27
597120,note_on,60,0,2,,,,,,,,,,,,,,,0,,,40,0
597120,set_tempo,126,1,0,,,,,,,,,,,,656743,,,,,,,
597180,note_on,60,0,2,,,,,,,,,,,,,,,0,,,40,23
597200,set_tempo,80,1,0,,,,,,,,,,,,653310,,,,,,,
597210,note_on,30,0,2,,,,,,,,,,,,,,,0,,,38,0
597240,note_on,30,0,2,,,,,,,,,,,,,,,0,,,38,24
597270,note_on,30,0,2,,,,,,,,,,,,,,,0,,,40,0
597280,set_tempo,80,1,0,,,,,,,,,,,,649984,,,,,,,
597300,note_on,30,0,2,,,,,,,,,,,,,,,0,,,40,22
597320,set_tempo,40,1,0,,,,,,,,,,,,646621,,,,,,,
597330,note_on,30,0,2,,,,,,,,,,,,,,,0,,,38,0
597360,note_on,0,0,1,,,,,,,,,,,,,,,0,,,62,19
597360,note_on,240,0,1,,,,,,,,,,,,,,,0,,,69,0
597360,note_on,0,0,1,,,,,,,,,,,,,,,0,,,65,23
597360,note_on,0,0,1,,,,,,,,,,,,,,,0,,,69,27
597360,note_on,0,0,1,,,,,,,,,,,,,,,0,,,62,0
597360,note_on,0,0,1,,,,,,,,,,,,,,,0,,,65,0
597360,note_on,30,0,2,,,,,,,,,,,,,,,0,,,38,24
597390,note_on,30,0,2,,,,,,,,,,,,,,,0,,,40,0
597400,set_tempo,80,1,0,,,,,,,,,,,,643225,,,,,,,
597420,note_on,30,0,2,,,,,,,,,,,,,,,0,,,40,22
597440,set_tempo,40,1,0,,,,,,,,,,,,640000,,,,,,,
597450,note_on,30,0,2,,,,,,,,,,,,,,,0,,,38,0
597480,note_on,30,0,2,,,,,,,,,,,,,,,0,,,38,25
597510,note_on,30,0,2,,,,,,,,,,,,,,,0,,,40,0
597520,set_tempo,80,1,0,,,,,,,,,,,,636740,,,,,,,
597540,note_on,30,0,2,,,,,,,,,,,,,,,0,,,40,24
597560,set_tempo,40,1,0,,,,,,,,,,,,633513,,,,,,,
597570,note_on,30,0,2,,,,,,,,,,,,,,,0,,,38,0
597584,set_tempo,24,1,0,,,,,,,,,,,,620989,,,,,,,
597600,note_on,30,0,2,,,,,,,,,,,,,,,0,,,38,26
597600,note_on,240,0,1,,,,,,,,,,,,,,,0,,,62,0
597600,set_tempo,16,1,0,,,,,,,,,,,,614880,,,,,,,
597600,note_on,0,0,1,,,,,,,,,,,,,,,0,,,69,0
597600,note_on,0,0,1,,,,,,,,,,,,,,,0,,,69,27
597600,note_on,0,0,1,,,,,,,,,,,,,,,0,,,65,23
597600,note_on,0,0,1,,,,,,,,,,,,,,,0,,,62,19
597600,note_on,0,0,1,,,,,,,,,,,,,,,0,,,65,0
597612,set_tempo,12,1,0,,,,,,,,,,,,611870,,,,,,,
597630,note_on,30,0,2,,,,,,,,,,,,,,,0,,,40,0
597640,set_tempo,28,1,0,,,,,,,,,,,,614880,,,,,,,
597652,set_tempo,12,1,0,,,,,,,,,,,,620989,,,,,,,
597660,note_on,30,0,2,,,,,,,,,,,,,,,0,,,40,23
597664,set_tempo,12,1,0,,,,,,,,,,,,624025,,,,,,,
597680,set_tempo,16,1,0,,,,,,,,,,,,633513,,,,,,,
597690,note_on,30,0,2,,,,,,,,,,,,,,,0,,,38,0
597692,set_tempo,12,1,0,,,,,,,,,,,,636740,,,,,,,
597704,set_tempo,12,1,0,,,,,,,,,,,,633513,,,,,,,
597720,set_tempo,16,1,0,,,,,,,,,,,,627221,,,,,,,
597720,note_on,30,0,2,,,,,,,,,,,,,,,0,,,38,26
597732,set_tempo,12,1,0,,,,,,,,,,,,624025,,,,,,,
597744,set_tempo,12,1,0,,,,,,,,,,,,620989,,,,,,,
597750,note_on,30,0,2,,,,,,,,,,,,,,,0,,,40,0
597760,set_tempo,16,1,0,,,,,,,,,,,,614880,,,,,,,
597780,note_on,30,0,2,,,,,,,,,,,,,,,0,,,40,22
597800,set_tempo,40,1,0,,,,,,,,,,,,630451,,,,,,,
597810,note_on,30,0,2,,,,,,,,,,,,,,,0,,,38,0
597812,set_tempo,12,1,0,,,,,,,,,,,,633513,,,,,,,
597824,set_tempo,12,1,0,,,,,,,,,,,,636740,,,,,,,
597840,note_on,240,0,1,,,,,,,,,,,,,,,0,,,62,0
597840,note_on,0,0,1,,,,,,,,,,,,,,,0,,,65,0
597840,note_on,0,0,1,,,,,,,,,,,,,,,0,,,69,0
597840,note_on,0,0,1,,,,,,,,,,,,,,,0,,,69,27
597840,note_on,0,0,1,,,,,,,,,,,,,,,0,,,65,23
597840,note_on,0,0,1,,,,,,,,,,,,,,,0,,,62,19
597840,set_tempo,16,1,0,,,,,,,,,,,,630451,,,,,,,
597840,note_on,30,0,2,,,,,,,,,,,,,,,0,,,38,25
597852,set_tempo,12,1,0,,,,,,,,,,,,624025,,,,,,,
597864,set_tempo,12,1,0,,,,,,,,,,,,620989,,,,,,,
597870,note_on,30,0,2,,,,,,,,,,,,,,,0,,,40,0
597880,set_tempo,16,1,0,,,,,,,,,,,,630451,,,,,,,
597900,note_on,30,0,2,,,,,,,,,,,,,,,0,,,40,23
597904,set_tempo,24,1,0,,,,,,,,,,,,636740,,,,,,,
597920,set_tempo,16,1,0,,,,,,,,,,,,640000,,,,,,,
597930,note_on,30,0,2,,,,,,,,,,,,,,,0,,,38,0
597932,set_tempo,12,1,0,,,,,,,,,,,,643225,,,,,,,
597960,note_on,30,0,2,,,,,,,,,,,,,,,0,,,38,24
597990,note_on,30,0,2,,,,,,,,,,,,,,,0,,,40,0
598012,set_tempo,80,1,0,,,,,,,,,,,,627221,,,,,,,
598020,note_on,30,0,2,,,,,,,,,,,,,,,0,,,40,22
598024,set_tempo,12,1,0,,,,,,,,,,,,617920,,,,,,,
598040,set_tempo,16,1,0,,,,,,,,,,,,614880,,,,,,,
598050,note_on,30,0,2,,,,,,,,,,,,,,,0,,,38,0
598064,set_tempo,24,1,0,,,,,,,,,,,,617920,,,,,,,
598080,note_on,240,0,1,,,,,,,,,,,,,,,0,,,62,0
598080,set_tempo,16,1,0,,,,,,,,,,,,624025,,,,,,,
598080,note_on,30,0,2,,,,,,,,,,,,,,,0,,,38,26
598080,note_on,0,0,1,,,,,,,,,,,,,,,0,,,65,0
598080,note_on,0,0,1,,,,,,,,,,,,,,,0,,,69,0
598080,note_on,0,0,1,,,,,,,,,,,,,,,0,,,69,27
598080,note_on,0,0,1,,,,,,,,,,,,,,,0,,,65,23
598080,note_on,0,0,1,,,,,,,,,,,,,,,0,,,62,19
598092,set_tempo,12,1,0,,,,,,,,,,,,630451,,,,,,,
598104,set_tempo,12,1,0,,,,,,,,,,,,633513,,,,,,,
598110,note_on,30,0,2,,,,,,,,,,,,,,,0,,,40,0
598120,set_tempo,16,1,0,,,,,,,,,,,,636740,,,,,,,
598140,note_on,30,0,2,,,,,,,,,,,,,,,0,,,40,23
598144,set_tempo,24,1,0,,,,,,,,,,,,633513,,,,,,,
598160,set_tempo,16,1,0,,,,,,,,,,,,630451,,,,,,,
598170,note_on,30,0,2,,,,,,,,,,,,,,,0,,,38,0
598172,set_tempo,12,1,0,,,,,,,,,,,,624025,,,,,,,
598184,set_tempo,12,1,0,,,,,,,,,,,,617920,,,,,,,
598200,set_tempo,16,1,0,,,,,,,,,,,,614880,,,,,,,
598200,note_on,30,0,2,,,,,,,,,,,,,,,0,,,38,25
598212,set_tempo,12,1,0,,,,,,,,,,,,617920,,,,,,,
598224,set_tempo,12,1,0,,,,,,,,,,,,630451,,,,,,,
598230,note_on,30,0,2,,,,,,,,,,,,,,,0,,,40,0
598252,set_tempo,28,1,0,,,,,,,,,,,,633513,,,,,,,
598260,note_on,30,0,2,,,,,,,,,,,,,,,0,,,40,23
598264,set_tempo,12,1,0,,,,,,,,,,,,636740,,,,,,,
598280,set_tempo,16,1,0,,,,,,,,,,,,630451,,,,,,,
598290,note_on,30,0,2,,,,,,,,,,,,,,,0,,,38,0
598292,set_tempo,12,1,0,,,,,,,,,,,,620989,,,,,,,
598304,set_tempo,12,1,0,,,,,,,,,,,,614880,,,,,,,
598320,note_on,0,0,1,,,,,,,,,,,,,,,0,,,65,23
598320,note_on,30,0,2,,,,,,,,,,,,,,,0,,,38,25
598320,note_on,0,0,1,,,,,,,,,,,,,,,0,,,69,27
598320,note_on,0,0,1,,,,,,,,,,,,,,,0,,,62,19
598320,note_on,0,0,1,,,,,,,,,,,,,,,0,,,65,0
598320,note_on,240,0,1,,,,,,,,,,,,,,,0,,,62,0
598320,note_on,0,0,1,,,,,,,,,,,,,,,0,,,69,0
598332,set_tempo,28,1,0,,,,,,,,,,,,620989,,,,,,,
598344,set_tempo,12,1,0,,,,,,,,,,,,627221,,,,,,,
598350,note_on,30,0,2,,,,,,,,,,,,,,,0,,,40,0
598372,set_tempo,28,1,0,,,,,,,,,,,,630451,,,,,,,
598380,note_on,30,0,2,,,,,,,,,,,,,,,0,,,40,22
598410,note_on,30,0,2,,,,,,,,,,,,,,,0,,,38,0
598424,set_tempo,52,1,0,,,,,,,,,,,,627221,,,,,,,
598440,note_on,30,0,2,,,,,,,,,,,,,,,0,,,38,25
598440,set_tempo,16,1,0,,,,,,,,,,,,620989,,,,,,,
598464,set_tempo,24,1,0,,,,,,,,,,,,617920,,,,,,,
598470,note_on,30,0,2,,,,,,,,,,,,,,,0,,,40,0
598492,set_tempo,28,1,0,,,,,,,,,,,,627221,,,,,,,
598500,note_on,30,0,2,,,,,,,,,,,,,,,0,,,40,22
598504,set_tempo,12,1,0,,,,,,,,,,,,630451,,,,,,,
598520,set_tempo,16,1,0,,,,,,,,,,,,633513,,,,,,,
598530,note_on,30,0,2,,,,,,,,,,,,,,,0,,,38,0
598532,set_tempo,12,1,0,,,,,,,,,,,,624025,,,,,,,
598544,set_tempo,12,1,0,,,,,,,,,,,,620989,,,,,,,
598560,note_on,240,0,1,,,,,,,,,,,,,,,0,,,62,0
598560,note_on,0,0,1,,,,,,,,,,,,,,,0,,,65,0
598560,note_on,0,0,1,,,,,,,,,,,,,,,0,,,69,0
598560,note_on,0,0,1,,,,,,,,,,,,,,,0,,,69,27
598560,note_on,0,0,1,,,,,,,,,,,,,,,0,,,62,19
598560,note_on,0,0,1,,,,,,,,,,,,,,,0,,,65,23
598560,note_on,30,0,2,,,,,,,,,,,,,,,0,,,38,27
598572,set_tempo,28,1,0,,,,,,,,,,,,624025,,,,,,,
598584,set_tempo,12,1,0,,,,,,,,,,,,636740,,,,,,,
598590,note_on,30,0,2,,,,,,,,,,,,,,,0,,,40,0
598600,set_tempo,16,1,0,,,,,,,,,,,,649984,,,,,,,
598612,set_tempo,12,1,0,,,,,,,,,,,,646621,,,,,,,
598620,note_on,30,0,2,,,,,,,,,,,,,,,0,,,40,23
598624,set_tempo,12,1,0,,,,,,,,,,,,640000,,,,,,,
598640,set_tempo,16,1,0,,,,,,,,,,,,636740,,,,,,,
598650,note_on,30,0,2,,,,,,,,,,,,,,,0,,,38,0
598664,set_tempo,24,1,0,,,,,,,,,,,,633513,,,,,,,
598680,note_on,30,0,2,,,,,,,,,,,,,,,0,,,38,26
598704,set_tempo,40,1,0,,,,,,,,,,,,646621,,,,,,,
598710,note_on,30,0,2,,,,,,,,,,,,,,,0,,,40,0
598720,set_tempo,16,1,0,,,,,,,,,,,,649984,,,,,,,
598740,note_on,30,0,2,,,,,,,,,,,,,,,0,,,40,22
598760,set_tempo,40,1,0,,,,,,,,,,,,653310,,,,,,,
598770,note_on,30,0,2,,,,,,,,,,,,,,,0,,,38,0
598800,note_on,0,0,1,,,,,,,,,,,,,,,0,,,65,23
598800,note_on,0,0,1,,,,,,,,,,,,,,,0,,,62,19
598800,note_on,0,0,1,,,,,,,,,,,,,,,0,,,69,27
598800,note_on,0,0,1,,,,,,,,,,,,,,,0,,,69,0
598800,note_on,0,0,1,,,,,,,,,,,,,,,0,,,65,0
598800,note_on,240,0,1,,,,,,,,,,,,,,,0,,,62,0
598800,set_tempo,40,1,0,,,,,,,,,,,,712843,,,,,,,
598800,note_on,30,0,2,,,,,,,,,,,,,,,0,,,37,28
598830,note_on,30,0,2,,,,,,,,,,,,,,,0,,,40,0
598880,note_on,50,0,2,,,,,,,,,,,,,,,0,,,38,31
598900,note_on,20,0,2,,,,,,,,,,,,,,,0,,,37,0
598960,note_on,60,0,2,,,,,,,,,,,,,,,0,,,40,32
598980,note_on,20,0,2,,,,,,,,,,,,,,,0,,,38,0
599040,note_on,0,0,1,,,,,,,,,,,,,,,0,,,69,0
599040,note_on,0,0,1,,,,,,,,,,,,,,,0,,,62,19
599040,note_on,0,0,1,,,,,,,,,,,,,,,0,,,65,23
599040,note_on,0,0,1,,,,,,,,,,,,,,,0,,,69,27
599040,note_on,0,0,1,,,,,,,,,,,,,,,0,,,65,0
599040,note_on,240,0,1,,,,,,,,,,,,,,,0,,,62,0
599040,control_change,60,0,2,,,,,,,,,,,,,,,0,64,127,,
599040,note_on,0,0,2,,,,,,,,,,,,,,,0,,,38,34
599040,set_tempo,240,1,0,,,,,,,,,,,,636740,,,,,,,
599060,note_on,20,0,2,,,,,,,,,,,,,,,0,,,40,0
599160,note_on,100,0,2,,,,,,,,,,,,,,,0,,,38,0
599250,set_tempo,210,1,0,,,,,,,,,,,,631579,,,,,,,
599274,set_tempo,24,1,0,,,,,,,,,,,,628272,,,,,,,
599280,note_on,0,0,1,,,,,,,,,,,,,,,0,,,69,0
599280,note_on,0,0,1,,,,,,,,,,,,,,,0,,,65,0
599280,note_on,240,0,1,,,,,,,,,,,,,,,0,,,62,0
599280,note_on,0,0,1,,,,,,,,,,,,,,,0,,,62,19
599280,note_on,0,0,1,,,,,,,,,,,,,,,0,,,65,23
599280,note_on,0,0,1,,,,,,,,,,,,,,,0,,,69,27
599354,set_tempo,80,1,0,,,,,,,,,,,,625000,,,,,,,
599370,set_tempo,16,1,0,,,,,,,,,,,,645161,,,,,,,
599382,set_tempo,12,1,0,,,,,,,,,,,,652174,,,,,,,
599410,set_tempo,28,1,0,,,,,,,,,,,,648649,,,,,,,
599434,set_tempo,24,1,0,,,,,,,,,,,,641711,,,,,,,
599450,set_tempo,16,1,0,,,,,,,,,,,,638298,,,,,,,
599462,set_tempo,12,1,0,,,,,,,,,,,,634921,,,,,,,
599474,set_tempo,12,1,0,,,,,,,,,,,,631579,,,,,,,
599502,set_tempo,28,1,0,,,,,,,,,,,,634921,,,,,,,
599514,set_tempo,12,1,0,,,,,,,,,,,,641711,,,,,,,
599520,note_on,240,0,1,,,,,,,,,,,,,,,0,,,62,0
599520,note_on,0,0,1,,,,,,,,,,,,,,,0,,,65,0
599520,note_on,0,0,1,,,,,,,,,,,,,,,0,,,69,0
599520,note_on,0,0,1,,,,,,,,,,,,,,,0,,,69,27
599520,note_on,0,0,1,,,,,,,,,,,,,,,0,,,65,23
599520,note_on,0,0,1,,,,,,,,,,,,,,,0,,,62,19
599542,set_tempo,28,1,0,,,,,,,,,,,,634921,,,,,,,
599554,set_tempo,12,1,0,,,,,,,,,,,,631579,,,,,,,
599582,set_tempo,28,1,0,,,,,,,,,,,,628272,,,,,,,
599594,set_tempo,12,1,0,,,,,,,,,,,,625000,,,,,,,
599610,set_tempo,16,1,0,,,,,,,,,,,,628272,,,,,,,
599622,set_tempo,12,1,0,,,,,,,,,,,,634921,,,,,,,
599634,set_tempo,12,1,0,,,,,,,,,,,,638298,,,,,,,
599690,set_tempo,56,1,0,,,,,,,,,,,,628272,,,,,,,
599702,set_tempo,12,1,0,,,,,,,,,,,,625000,,,,,,,
599730,set_tempo,28,1,0,,,,,,,,,,,,621762,,,,,,,
599742,set_tempo,12,1,0,,,,,,,,,,,,631579,,,,,,,
599754,set_tempo,12,1,0,,,,,,,,,,,,634921,,,,,,,
599760,note_on,0,0,1,,,,,,,,,,,,,,,0,,,62,19
599760,note_on,240,0,1,,,,,,,,,,,,,,,0,,,62,0
599760,note_on,0,0,1,,,,,,,,,,,,,,,0,,,65,0
599760,note_on,0,0,1,,,,,,,,,,,,,,,0,,,69,0
599760,note_on,0,0,1,,,,,,,,,,,,,,,0,,,69,27
599760,note_on,0,0,1,,,,,,,,,,,,,,,0,,,65,23
599850,set_tempo,96,1,0,,,,,,,,,,,,628272,,,,,,,
599862,set_tempo,12,1,0,,,,,,,,,,,,625000,,,,,,,
599890,set_tempo,28,1,0,,,,,,,,,,,,631579,,,,,,,
599914,set_tempo,24,1,0,,,,,,,,,,,,634921,,,,,,,
599930,set_tempo,16,1,0,,,,,,,,,,,,638298,,,,,,,
599942,set_tempo,12,1,0,,,,,,,,,,,,645161,,,,,,,
599954,set_tempo,12,1,0,,,,,,,,,,,,648649,,,,,,,
599970,set_tempo,16,1,0,,,,,,,,,,,,634921,,,,,,,
599994,set_tempo,24,1,0,,,,,,,,,,,,628272,,,,,,,
600000,note_on,0,0,2,,,,,,,,,,,,,,,0,,,65,23
600000,note_on,240,0,1,,,,,,,,,,,,,,,0,,,62,0
600000,note_on,0,0,1,,,,,,,,,,,,,,,0,,,65,0
600000,note_on,0,0,1,,,,,,,,,,,,,,,0,,,69,0
600000,note_on,0,0,2,,,,,,,,,,,,,,,0,,,62,19
600000,note_on,0,0,2,,,,,,,,,,,,,,,0,,,69,27
600000,control_change,840,0,2,,,,,,,,,,,,,,,0,64,0,,
600022,set_tempo,28,1,0,,,,,,,,,,,,631579,,,,,,,
600050,set_tempo,28,1,0,,,,,,,,,,,,634921,,,,,,,
600056,control_change,56,0,2,,,,,,,,,,,,,,,0,64,127,,
600102,set_tempo,52,1,0,,,,,,,,,,,,631579,,,,,,,
600114,set_tempo,12,1,0,,,,,,,,,,,,625000,,,,,,,
600154,set_tempo,40,1,0,,,,,,,,,,,,628272,,,,,,,
600170,set_tempo,16,1,0,,,,,,,,,,,,631579,,,,,,,
600182,set_tempo,12,1,0,,,,,,,,,,,,634921,,,,,,,
600210,set_tempo,28,1,0,,,,,,,,,,,,638298,,,,,,,
600234,set_tempo,24,1,0,,,,,,,,,,,,634921,,,,,,,
600240,note_on,184,0,2,,,,,,,,,,,,,,,0,,,62,0
600240,note_on,0,0,2,,,,,,,,,,,,,,,0,,,65,0
600240,note_on,0,0,2,,,,,,,,,,,,,,,0,,,69,0
600240,note_on,0,0,2,,,,,,,,,,,,,,,0,,,69,27
600240,note_on,0,0,2,,,,,,,,,,,,,,,0,,,65,23
600240,note_on,0,0,2,,,,,,,,,,,,,,,0,,,62,19
600250,set_tempo,16,1,0,,,,,,,,,,,,631579,,,,,,,
600262,set_tempo,12,1,0,,,,,,,,,,,,628272,,,,,,,
600274,set_tempo,12,1,0,,,,,,,,,,,,625000,,,,,,,
600302,set_tempo,28,1,0,,,,,,,,,,,,628272,,,,,,,
600330,set_tempo,28,1,0,,,,,,,,,,,,631579,,,,,,,
600342,set_tempo,12,1,0,,,,,,,,,,,,634921,,,,,,,
600480,note_on,0,0,2,,,,,,,,,,,,,,,0,,,62,17
600480,note_on,0,0,2,,,,,,,,,,,,,,,0,,,65,20
600480,note_on,0,0,2,,,,,,,,,,,,,,,0,,,69,24
600480,note_on,0,0,2,,,,,,,,,,,,,,,0,,,69,0
600480,set_tempo,138,1,0,,,,,,,,,,,,616776,,,,,,,
600480,note_on,0,0,2,,,,,,,,,,,,,,,0,,,65,0
600480,note_on,240,0,2,,,,,,,,,,,,,,,0,,,62,0
600480,note_on,480,0,1,,,,,,,,,,,,,,,0,,,77,50
600520,set_tempo,40,1,0,,,,,,,,,,,,648298,,,,,,,
600720,note_on,0,0,2,,,,,,,,,,,,,,,0,,,65,20
600720,note_on,0,0,2,,,,,,,,,,,,,,,0,,,65,0
600720,note_on,240,0,2,,,,,,,,,,,,,,,0,,,62,0
600720,note_on,0,0,2,,,,,,,,,,,,,,,0,,,62,17
600720,note_on,0,0,2,,,,,,,,,,,,,,,0,,,69,24
600720,note_on,0,0,2,,,,,,,,,,,,,,,0,,,69,0
600960,note_on,240,0,2,,,,,,,,,,,,,,,0,,,62,0
600960,note_on,0,0,1,,,,,,,,,,,,,,,0,,,77,54
600960,note_on,0,0,2,,,,,,,,,,,,,,,0,,,62,17
600960,control_change,0,0,2,,,,,,,,,,,,,,,0,64,0,,
600960,set_tempo,440,1,0,,,,,,,,,,,,655738,,,,,,,
600960,note_on,0,0,2,,,,,,,,,,,,,,,0,,,65,20
600960,note_on,0,0,2,,,,,,,,,,,,,,,0,,,65,0
600960,note_on,480,0,1,,,,,,,,,,,,,,,0,,,77,0
600960,note_on,0,0,2,,,,,,,,,,,,,,,0,,,69,24
600960,note_on,0,0,2,,,,,,,,,,,,,,,0,,,69,0
601073,control_change,113,0,2,,,,,,,,,,,,,,,0,64,127,,
601200,note_on,0,0,2,,,,,,,,,,,,,,,0,,,62,17
601200,note_on,0,0,2,,,,,,,,,,,,,,,0,,,65,20
601200,note_on,0,0,2,,,,,,,,,,,,,,,0,,,69,24
601200,note_on,0,0,2,,,,,,,,,,,,,,,0,,,69,0
601200,note_on,127,0,2,,,,,,,,,,,,,,,0,,,62,0
601200,note_on,0,0,2,,,,,,,,,,,,,,,0,,,65,0
601440,note_on,0,0,2,,,,,,,,,,,,,,,0,,,65,0
601440,note_on,0,0,2,,,,,,,,,,,,,,,0,,,69,0
601440,note_on,0,0,2,,,,,,,,,,,,,,,0,,,65,20
601440,note_on,240,0,2,,,,,,,,,,,,,,,0,,,62,0
601440,note_on,0,0,2,,,,,,,,,,,,,,,0,,,69,24
601440,note_on,0,0,2,,,,,,,,,,,,,,,0,,,62,17
601440,set_tempo,480,1,0,,,,,,,,,,,,641026,,,,,,,
601440,note_on,480,0,1,,,,,,,,,,,,,,,0,,,77,0
601440,note_on,0,0,1,,,,,,,,,,,,,,,0,,,76,52
601680,note_on,0,0,2,,,,,,,,,,,,,,,0,,,69,24
601680,note_on,0,0,2,,,,,,,,,,,,,,,0,,,69,0
601680,note_on,0,0,2,,,,,,,,,,,,,,,0,,,65,0
601680,note_on,240,0,2,,,,,,,,,,,,,,,0,,,62,0
601680,note_on,0,0,2,,,,,,,,,,,,,,,0,,,65,20
601680,note_on,0,0,2,,,,,,,,,,,,,,,0,,,62,17
601800,set_tempo,360,1,0,,,,,,,,,,,,660793,,,,,,,
601880,set_tempo,80,1,0,,,,,,,,,,,,656599,,,,,,,
601920,note_on,0,0,1,,,,,,,,,,,,,,,0,,,77,54
601920,note_on,240,0,2,,,,,,,,,,,,,,,0,,,62,0
601920,set_tempo,40,1,0,,,,,,,,,,,,626894,,,,,,,
601920,note_on,0,0,2,,,,,,,,,,,,,,,0,,,65,0
601920,note_on,0,0,2,,,,,,,,,,,,,,,0,,,69,0
601920,note_on,0,0,2,,,,,,,,,,,,,,,0,,,69,24
601920,note_on,0,0,2,,,,,,,,,,,,,,,0,,,65,20
601920,note_on,0,0,2,,,,,,,,,,,,,,,0,,,62,17
601920,note_on,480,0,1,,,,,,,,,,,,,,,0,,,76,0
601976,control_change,56,0,2,,,,,,,,,,,,,,,0,64,0,,
602075,control_change,99,0,2,,,,,,,,,,,,,,,0,64,127,,
602160,note_on,0,0,2,,,,,,,,,,,,,,,0,,,65,0
602160,note_on,0,0,2,,,,,,,,,,,,,,,0,,,69,0
602160,note_on,0,0,2,,,,,,,,,,,,,,,0,,,62,17
602160,note_on,0,0,2,,,,,,,,,,,,,,,0,,,65,20
602160,note_on,85,0,2,,,,,,,,,,,,,,,0,,,62,0
602160,note_on,0,0,2,,,,,,,,,,,,,,,0,,,69,24
602400,note_on,0,0,2,,,,,,,,,,,,,,,0,,,62,17
602400,note_on,0,0,2,,,,,,,,,,,,,,,0,,,65,20
602400,note_on,0,0,2,,,,,,,,,,,,,,,0,,,69,24
602400,note_on,0,0,2,,,,,,,,,,,,,,,0,,,69,0
602400,note_on,0,0,2,,,,,,,,,,,,,,,0,,,65,0
602400,note_on,240,0,2,,,,,,,,,,,,,,,0,,,62,0
602400,note_on,480,0,1,,,,,,,,,,,,,,,0,,,77,0
602400,note_on,0,0,1,,,,,,,,,,,,,,,0,,,79,51
602640,note_on,0,0,2,,,,,,,,,,,,,,,0,,,69,24
602640,note_on,240,0,2,,,,,,,,,,,,,,,0,,,62,0
602640,note_on,0,0,2,,,,,,,,,,,,,,,0,,,69,0
602640,note_on,0,0,2,,,,,,,,,,,,,,,0,,,62,17
602640,note_on,0,0,2,,,,,,,,,,,,,,,0,,,65,20
602640,note_on,0,0,2,,,,,,,,,,,,,,,0,,,65,0
602840,set_tempo,920,1,0,,,,,,,,,,,,644676,,,,,,,
602880,note_on,0,0,2,,,,,,,,,,,,,,,0,,,62,17
602880,note_on,0,0,2,,,,,,,,,,,,,,,0,,,65,20
602880,note_on,0,0,2,,,,,,,,,,,,,,,0,,,69,24
602880,note_on,0,0,2,,,,,,,,,,,,,,,0,,,69,0
602880,note_on,240,0,2,,,,,,,,,,,,,,,0,,,62,0
602880,control_change,0,0,2,,,,,,,,,,,,,,,0,64,0,,
602880,note_on,0,0,2,,,,,,,,,,,,,,,0,,,65,0
602880,note_on,0,0,1,,,,,,,,,,,,,,,0,,,81,54
602880,note_on,480,0,1,,,,,,,,,,,,,,,0,,,79,0
602949,control_change,69,0,2,,,,,,,,,,,,,,,0,64,127,,
603120,note_on,0,0,2,,,,,,,,,,,,,,,0,,,69,24
603120,note_on,0,0,2,,,,,,,,,,,,,,,0,,,65,0
603120,note_on,171,0,2,,,,,,,,,,,,,,,0,,,62,0
603120,note_on,0,0,2,,,,,,,,,,,,,,,0,,,65,20
603120,note_on,0,0,2,,,,,,,,,,,,,,,0,,,69,0
603120,note_on,0,0,2,,,,,,,,,,,,,,,0,,,62,17
603337,control_change,217,0,2,,,,,,,,,,,,,,,0,64,0,,
603360,note_on,0,0,2,,,,,,,,,,,,,,,0,,,65,0
603360,note_on,0,0,2,,,,,,,,,,,,,,,0,,,69,0
603360,note_on,0,0,2,,,,,,,,,,,,,,,0,,,69,25
603360,note_on,0,0,2,,,,,,,,,,,,,,,0,,,65,21
603360,note_on,0,0,2,,,,,,,,,,,,,,,0,,,61,17
603360,note_on,23,0,2,,,,,,,,,,,,,,,0,,,62,0
603417,control_change,57,0,2,,,,,,,,,,,,,,,0,64,127,,
603600,note_on,0,0,2,,,,,,,,,,,,,,,0,,,69,25
603600,note_on,0,0,2,,,,,,,,,,,,,,,0,,,69,0
603600,note_on,0,0,2,,,,,,,,,,,,,,,0,,,61,17
603600,note_on,0,0,2,,,,,,,,,,,,,,,0,,,65,21
603600,note_on,183,0,2,,,,,,,,,,,,,,,0,,,61,0
603600,note_on,0,0,2,,,,,,,,,,,,,,,0,,,65,0
603840,note_on,0,0,2,,,,,,,,,,,,,,,0,,,60,17
603840,note_on,0,0,2,,,,,,,,,,,,,,,0,,,69,0
603840,note_on,0,0,2,,,,,,,,,,,,,,,0,,,65,0
603840,note_on,240,0,2,,,,,,,,,,,,,,,0,,,61,0
603840,note_on,0,0,2,,,,,,,,,,,,,,,0,,,69,25
603840,note_on,0,0,2,,,,,,,,,,,,,,,0,,,65,21
603863,control_change,23,0,2,,,,,,,,,,,,,,,0,64,0,,
603931,control_change,68,0,2,,,,,,,,,,,,,,,0,64,127,,
604080,note_on,149,0,2,,,,,,,,,,,,,,,0,,,60,0
604080,note_on,0,0,2,,,,,,,,,,,,,,,0,,,65,0
604080,note_on,0,0,2,,,,,,,,,,,,,,,0,,,69,0
604080,note_on,0,0,2,,,,,,,,,,,,,,,0,,,69,25
604080,note_on,0,0,2,,,,,,,,,,,,,,,0,,,65,21
604080,note_on,0,0,2,,,,,,,,,,,,,,,0,,,60,17
604320,note_on,1440,0,1,,,,,,,,,,,,,,,0,,,81,0
604320,note_on,240,0,2,,,,,,,,,,,,,,,0,,,60,0
604320,note_on,0,0,2,,,,,,,,,,,,,,,0,,,65,0
604320,note_on,0,0,2,,,,,,,,,,,,,,,0,,,69,0
604320,note_on,0,0,2,,,,,,,,,,,,,,,0,,,69,28
604320,note_on,0,0,2,,,,,,,,,,,,,,,0,,,65,24
604320,note_on,0,0,1,,,,,,,,,,,,,,,0,,,79,54
604320,note_on,0,0,2,,,,,,,,,,,,,,,0,,,59,20
604320,set_tempo,1480,1,0,,,,,,,,,,,,630451,,,,,,,
604354,control_change,34,0,2,,,,,,,,,,,,,,,0,64,0,,
604446,control_change,92,0,2,,,,,,,,,,,,,,,0,64,127,,
604560,note_on,114,0,2,,,,,,,,,,,,,,,0,,,59,0
604560,note_on,0,0,2,,,,,,,,,,,,,,,0,,,65,0
604560,note_on,0,0,2,,,,,,,,,,,,,,,0,,,69,0
604560,note_on,0,0,2,,,,,,,,,,,,,,,0,,,69,28
604560,note_on,0,0,2,,,,,,,,,,,,,,,0,,,65,24
604560,note_on,0,0,2,,,,,,,,,,,,,,,0,,,59,20
604560,note_on,240,0,1,,,,,,,,,,,,,,,0,,,79,0
604560,note_on,0,0,1,,,,,,,,,,,,,,,0,,,77,54
604800,set_tempo,480,1,0,,,,,,,,,,,,648298,,,,,,,
604800,note_on,240,0,1,,,,,,,,,,,,,,,0,,,77,0
604800,note_on,0,0,1,,,,,,,,,,,,,,,0,,,79,54
604800,note_on,0,0,2,,,,,,,,,,,,,,,0,,,65,24
604800,note_on,0,0,2,,,,,,,,,,,,,,,0,,,65,0
604800,control_change,0,0,2,,,,,,,,,,,,,,,0,64,0,,
604800,note_on,0,0,2,,,,,,,,,,,,,,,0,,,67,28
604800,note_on,240,0,2,,,,,,,,,,,,,,,0,,,59,0
604800,note_on,0,0,2,,,,,,,,,,,,,,,0,,,58,20
604800,note_on,0,0,2,,,,,,,,,,,,,,,0,,,69,0
604880,control_change,80,0,2,,,,,,,,,,,,,,,0,64,127,,
605040,note_on,160,0,2,,,,,,,,,,,,,,,0,,,67,0
605040,note_on,0,0,2,,,,,,,,,,,,,,,0,,,65,0
605040,note_on,0,0,2,,,,,,,,,,,,,,,0,,,58,0
605040,note_on,0,0,2,,,,,,,,,,,,,,,0,,,58,20
605040,note_on,0,0,2,,,,,,,,,,,,,,,0,,,65,24
605040,note_on,0,0,2,,,,,,,,,,,,,,,0,,,67,28
605280,set_tempo,480,1,0,,,,,,,,,,,,641026,,,,,,,
605280,note_on,0,0,1,,,,,,,,,,,,,,,0,,,79,54
605280,note_on,480,0,1,,,,,,,,,,,,,,,0,,,79,0
605280,note_on,0,0,2,,,,,,,,,,,,,,,0,,,62,24
605280,note_on,0,0,2,,,,,,,,,,,,,,,0,,,67,28
605280,note_on,0,0,2,,,,,,,,,,,,,,,0,,,58,0
605280,note_on,240,0,2,,,,,,,,,,,,,,,0,,,67,0
605280,note_on,0,0,2,,,,,,,,,,,,,,,0,,,58,20
605280,note_on,0,0,2,,,,,,,,,,,,,,,0,,,65,0
605520,note_on,0,0,2,,,,,,,,,,,,,,,0,,,62,0
605520,note_on,240,0,2,,,,,,,,,,,,,,,0,,,67,0
605520,note_on,0,0,2,,,,,,,,,,,,,,,0,,,58,0
605520,note_on,0,0,2,,,,,,,,,,,,,,,0,,,58,20
605520,note_on,0,0,2,,,,,,,,,,,,,,,0,,,62,24
605520,note_on,0,0,2,,,,,,,,,,,,,,,0,,,67,28
605760,note_on,480,0,1,,,,,,,,,,,,,,,0,,,79,0
605760,note_on,0,0,2,,,,,,,,,,,,,,,0,,,67,28
605760,note_on,0,0,1,,,,,,,,,,,,,,,0,,,79,54
605760,note_on,0,0,2,,,,,,,,,,,,,,,0,,,58,20
605760,note_on,0,0,2,,,,,,,,,,,,,,,0,,,62,0
605760,note_on,240,0,2,,,,,,,,,,,,,,,0,,,67,0
605760,note_on,0,0,2,,,,,,,,,,,,,,,0,,,64,24
605760,note_on,0,0,2,,,,,,,,,,,,,,,0,,,58,0
605840,control_change,80,0,2,,,,,,,,,,,,,,,0,64,0,,
605931,control_change,91,0,2,,,,,,,,,,,,,,,0,64,127,,
606000,note_on,0,0,2,,,,,,,,,,,,,,,0,,,58,0
606000,note_on,69,0,2,,,,,,,,,,,,,,,0,,,67,0
606000,note_on,0,0,2,,,,,,,,,,,,,,,0,,,64,0
606000,note_on,0,0,2,,,,,,,,,,,,,,,0,,,58,20
606000,note_on,0,0,2,,,,,,,,,,,,,,,0,,,64,24
606000,note_on,0,0,2,,,,,,,,,,,,,,,0,,,67,28
606240,note_on,240,0,2,,,,,,,,,,,,,,,0,,,67,0
606240,note_on,480,0,1,,,,,,,,,,,,,,,0,,,79,0
606240,note_on,0,0,1,,,,,,,,,,,,,,,0,,,77,54
606240,set_tempo,960,1,0,,,,,,,,,,,,648298,,,,,,,
606240,note_on,0,0,2,,,,,,,,,,,,,,,0,,,64,0
606240,note_on,0,0,2,,,,,,,,,,,,,,,0,,,58,0
606240,note_on,0,0,2,,,,,,,,,,,,,,,0,,,57,20
606240,note_on,0,0,2,,,,,,,,,,,,,,,0,,,61,24
606240,note_on,0,0,2,,,,,,,,,,,,,,,0,,,67,28
606274,control_change,34,0,2,,,,,,,,,,,,,,,0,64,0,,
606354,control_change,80,0,2,,,,,,,,,,,,,,,0,64,127,,
606480,note_on,0,0,2,,,,,,,,,,,,,,,0,,,61,0
606480,note_on,0,0,2,,,,,,,,,,,,,,,0,,,57,0
606480,note_on,0,0,2,,,,,,,,,,,,,,,0,,,57,20
606480,note_on,0,0,2,,,,,,,,,,,,,,,0,,,61,24
606480,note_on,0,0,2,,,,,,,,,,,,,,,0,,,67,28
606480,note_on,126,0,2,,,,,,,,,,,,,,,0,,,67,0
606480,note_on,0,0,1,,,,,,,,,,,,,,,0,,,76,54
606480,note_on,240,0,1,,,,,,,,,,,,,,,0,,,77,0
606720,note_on,0,0,1,,,,,,,,,,,,,,,0,,,77,54
606720,note_on,0,0,2,,,,,,,,,,,,,,,0,,,57,0
606720,control_change,0,0,2,,,,,,,,,,,,,,,0,64,0,,
606720,note_on,0,0,2,,,,,,,,,,,,,,,0,,,65,28
606720,note_on,0,0,2,,,,,,,,,,,,,,,0,,,62,24
606720,note_on,0,0,2,,,,,,,,,,,,,,,0,,,61,0
606720,note_on,240,0,2,,,,,,,,,,,,,,,0,,,67,0
606720,note_on,240,0,1,,,,,,,,,,,,,,,0,,,76,0
606833,control_change,113,0,2,,,,,,,,,,,,,,,0,64,127,,
606960,note_on,0,0,2,,,,,,,,,,,,,,,0,,,65,28
606960,note_on,127,0,2,,,,,,,,,,,,,,,0,,,65,0
606960,note_on,0,0,2,,,,,,,,,,,,,,,0,,,62,0
606960,note_on,0,0,2,,,,,,,,,,,,,,,0,,,62,24
607200,note_on,480,0,1,,,,,,,,,,,,,,,0,,,77,0
607200,note_on,240,0,2,,,,,,,,,,,,,,,0,,,65,0
607200,note_on,0,0,2,,,,,,,,,,,,,,,0,,,62,0
607200,note_on,0,0,2,,,,,,,,,,,,,,,0,,,62,24
607200,note_on,0,0,2,,,,,,,,,,,,,,,0,,,65,28
607440,note_on,240,0,2,,,,,,,,,,,,,,,0,,,65,0
607440,note_on,0,0,2,,,,,,,,,,,,,,,0,,,62,0
607440,note_on,0,0,2,,,,,,,,,,,,,,,0,,,65,28
607440,note_on,0,0,2,,,,,,,,,,,,,,,0,,,62,24
607680,note_on,0,0,1,,,,,,,,,,,,,,,0,,,62,19
607680,note_on,0,0,1,,,,,,,,,,,,,,,0,,,65,23
607680,note_on,480,0,1,,,,,,,,,,,,,,,0,,,69,27
607680,note_on,240,0,2,,,,,,,,,,,,,,,0,,,65,0
607680,note_on,0,0,2,,,,,,,,,,,,,,,0,,,62,0
607680,set_tempo,1440,1,0,,,,,,,,,,,,630451,,,,,,,
607793,control_change,113,0,2,,,,,,,,,,,,,,,0,64,0,,
607920,note_on,0,0,1,,,,,,,,,,,,,,,0,,,69,0
607920,note_on,0,0,1,,,,,,,,,,,,,,,0,,,65,0
607920,note_on,240,0,1,,,,,,,,,,,,,,,0,,,62,0
607920,note_on,0,0,1,,,,,,,,,,,,,,,0,,,62,19
607920,note_on,0,0,1,,,,,,,,,,,,,,,0,,,69,27
607920,note_on,0,0,1,,,,,,,,,,,,,,,0,,,65,23
608160,note_on,0,0,1,,,,,,,,,,,,,,,0,,,69,27
608160,note_on,0,0,1,,,,,,,,,,,,,,,0,,,62,19
608160,note_on,0,0,1,,,,,,,,,,,,,,,0,,,65,0
608160,note_on,240,0,1,,,,,,,,,,,,,,,0,,,62,0
608160,note_on,0,0,1,,,,,,,,,,,,,,,0,,,65,23
608160,note_on,0,0,1,,,,,,,,,,,,,,,0,,,69,0
608400,note_on,240,0,1,,,,,,,,,,,,,,,0,,,62,0
608400,note_on,0,0,1,,,,,,,,,,,,,,,0,,,65,0
608400,note_on,0,0,1,,,,,,,,,,,,,,,0,,,69,0
608400,note_on,0,0,1,,,,,,,,,,,,,,,0,,,69,27
608400,note_on,0,0,1,,,,,,,,,,,,,,,0,,,65,23
608400,note_on,0,0,1,,,,,,,,,,,,,,,0,,,62,19
608580,note_on,787,0,2,,,,,,,,,,,,,,,0,,,40,27
608640,note_on,60,0,2,,,,,,,,,,,,,,,0,,,40,0
608640,note_on,0,0,1,,,,,,,,,,,,,,,0,,,65,0
608640,note_on,0,0,1,,,,,,,,,,,,,,,0,,,69,0
608640,note_on,0,0,1,,,,,,,,,,,,,,,0,,,62,19
608640,note_on,0,0,1,,,,,,,,,,,,,,,0,,,65,23
608640,note_on,0,0,1,,,,,,,,,,,,,,,0,,,69,27
608640,set_tempo,960,1,0,,,,,,,,,,,,656743,,,,,,,
608640,note_on,240,0,1,,,,,,,,,,,,,,,0,,,62,0
608640,note_on,0,0,2,,,,,,,,,,,,,,,0,,,38,27
608700,note_on,60,0,2,,,,,,,,,,,,,,,0,,,40,23
608720,set_tempo,80,1,0,,,,,,,,,,,,653310,,,,,,,
608730,note_on,30,0,2,,,,,,,,,,,,,,,0,,,38,0
608760,note_on,30,0,2,,,,,,,,,,,,,,,0,,,38,24
608790,note_on,30,0,2,,,,,,,,,,,,,,,0,,,40,0
608800,set_tempo,80,1,0,,,,,,,,,,,,649984,,,,,,,
608820,note_on,30,0,2,,,,,,,,,,,,,,,0,,,40,22
608840,set_tempo,40,1,0,,,,,,,,,,,,646621,,,,,,,
608850,note_on,30,0,2,,,,,,,,,,,,,,,0,,,38,0
608880,note_on,0,0,1,,,,,,,,,,,,,,,0,,,65,0
608880,note_on,0,0,1,,,,,,,,,,,,,,,0,,,62,0
608880,note_on,0,0,1,,,,,,,,,,,,,,,0,,,69,27
608880,note_on,0,0,1,,,,,,,,,,,,,,,0,,,65,23
608880,note_on,0,0,1,,,,,,,,,,,,,,,0,,,62,19
608880,note_on,30,0,2,,,,,,,,,,,,,,,0,,,38,24
608880,note_on,240,0,1,,,,,,,,,,,,,,,0,,,69,0
608910,note_on,30,0,2,,,,,,,,,,,,,,,0,,,40,0
608920,set_tempo,80,1,0,,,,,,,,,,,,643225,,,,,,,
608940,note_on,30,0,2,,,,,,,,,,,,,,,0,,,40,22
608960,set_tempo,40,1,0,,,,,,,,,,,,640000,,,,,,,
608970,note_on,30,0,2,,,,,,,,,,,,,,,0,,,38,0
609000,note_on,30,0,2,,,,,,,,,,,,,,,0,,,38,25
609030,note_on,30,0,2,,,,,,,,,,,,,,,0,,,40,0
609040,set_tempo,80,1,0,,,,,,,,,,,,636740,,,,,,,
609060,note_on,30,0,2,,,,,,,,,,,,,,,0,,,40,24
609080,set_tempo,40,1,0,,,,,,,,,,,,633513,,,,,,,
609090,note_on,30,0,2,,,,,,,,,,,,,,,0,,,38,0
609104,set_tempo,24,1,0,,,,,,,,,,,,620989,,,,,,,
609120,note_on,30,0,2,,,,,,,,,,,,,,,0,,,38,26
609120,note_on,0,0,1,,,,,,,,,,,,,,,0,,,69,27
609120,note_on,0,0,1,,,,,,,,,,,,,,,0,,,65,23
609120,note_on,0,0,1,,,,,,,,,,,,,,,0,,,69,0
609120,set_tempo,16,1,0,,,,,,,,,,,,614880,,,,,,,
609120,note_on,0,0,1,,,,,,,,,,,,,,,0,,,62,19
609120,note_on,0,0,1,,,,,,,,,,,,,,,0,,,65,0
609120,note_on,240,0,1,,,,,,,,,,,,,,,0,,,62,0
609132,set_tempo,12,1,0,,,,,,,,,,,,611870,,,,,,,
609150,note_on,30,0,2,,,,,,,,,,,,,,,0,,,40,0
609160,set_tempo,28,1,0,,,,,,,,,,,,614880,,,,,,,
609172,set_tempo,12,1,0,,,,,,,,,,,,620989,,,,,,,
609180,note_on,30,0,2,,,,,,,,,,,,,,,0,,,40,23
609184,set_tempo,12,1,0,,,,,,,,,,,,624025,,,,,,,
609200,set_tempo,16,1,0,,,,,,,,,,,,633513,,,,,,,
609210,note_on,30,0,2,,,,,,,,,,,,,,,0,,,38,0
609212,set_tempo,12,1,0,,,,,,,,,,,,636740,,,,,,,
609224,set_tempo,12,1,0,,,,,,,,,,,,633513,,,,,,,
609240,set_tempo,16,1,0,,,,,,,,,,,,627221,,,,,,,
609240,note_on,30,0,2,,,,,,,,,,,,,,,0,,,38,26
609252,set_tempo,12,1,0,,,,,,,,,,,,624025,,,,,,,
609264,set_tempo,12,1,0,,,,,,,,,,,,620989,,,,,,,
609270,note_on,30,0,2,,,,,,,,,,,,,,,0,,,40,0
609280,set_tempo,16,1,0,,,,,,,,,,,,614880,,,,,,,
609300,note_on,30,0,2,,,,,,,,,,,,,,,0,,,40,22
609320,set_tempo,40,1,0,,,,,,,,,,,,630451,,,,,,,
609330,note_on,30,0,2,,,,,,,,,,,,,,,0,,,38,0
609332,set_tempo,12,1,0,,,,,,,,,,,,633513,,,,,,,
609344,set_tempo,12,1,0,,,,,,,,,,,,636740,,,,,,,
609360,set_tempo,16,1,0,,,,,,,,,,,,630451,,,,,,,
609360,note_on,240,0,1,,,,,,,,,,,,,,,0,,,62,0
609360,note_on,0,0,1,,,,,,,,,,,,,,,0,,,65,0
609360,note_on,30,0,2,,,,,,,,,,,,,,,0,,,38,25
609360,note_on,0,0,1,,,,,,,,,,,,,,,0,,,65,23
609360,note_on,0,0,1,,,,,,,,,,,,,,,0,,,69,27
609360,note_on,0,0,1,,,,,,,,,,,,,,,0,,,69,0
609360,note_on,0,0,1,,,,,,,,,,,,,,,0,,,62,19
609372,set_tempo,12,1,0,,,,,,,,,,,,624025,,,,,,,
609384,set_tempo,12,1,0,,,,,,,,,,,,620989,,,,,,,
609390,note_on,30,0,2,,,,,,,,,,,,,,,0,,,40,0
609400,set_tempo,16,1,0,,,,,,,,,,,,630451,,,,,,,
609420,note_on,30,0,2,,,,,,,,,,,,,,,0,,,40,23
609424,set_tempo,24,1,0,,,,,,,,,,,,636740,,,,,,,
609440,set_tempo,16,1,0,,,,,,,,,,,,640000,,,,,,,
609450,note_on,30,0,2,,,,,,,,,,,,,,,0,,,38,0
609452,set_tempo,12,1,0,,,,,,,,,,,,643225,,,,,,,
609480,note_on,30,0,2,,,,,,,,,,,,,,,0,,,38,24
609510,note_on,30,0,2,,,,,,,,,,,,,,,0,,,40,0
609532,set_tempo,80,1,0,,,,,,,,,,,,627221,,,,,,,
609540,note_on,30,0,2,,,,,,,,,,,,,,,0,,,40,22
609544,set_tempo,12,1,0,,,,,,,,,,,,617920,,,,,,,
609560,set_tempo,16,1,0,,,,,,,,,,,,614880,,,,,,,
609570,note_on,30,0,2,,,,,,,,,,,,,,,0,,,38,0
609584,set_tempo,24,1,0,,,,,,,,,,,,617920,,,,,,,
609600,note_on,0,0,1,,,,,,,,,,,,,,,0,,,69,0
609600,note_on,0,0,1,,,,,,,,,,,,,,,0,,,69,27
609600,note_on,0,0,1,,,,,,,,,,,,,,,0,,,65,23
609600,note_on,0,0,1,,,,,,,,,,,,,,,0,,,62,19
609600,note_on,0,0,1,,,,,,,,,,,,,,,0,,,65,0
609600,note_on,30,0,2,,,,,,,,,,,,,,,0,,,38,26
609600,note_on,240,0,1,,,,,,,,,,,,,,,0,,,62,0
609600,set_tempo,16,1,0,,,,,,,,,,,,624025,,,,,,,
609612,set_tempo,12,1,0,,,,,,,,,,,,630451,,,,,,,
609624,set_tempo,12,1,0,,,,,,,,,,,,633513,,,,,,,
609630,note_on,30,0,2,,,,,,,,,,,,,,,0,,,40,0
609640,set_tempo,16,1,0,,,,,,,,,,,,636740,,,,,,,
609660,note_on,30,0,2,,,,,,,,,,,,,,,0,,,40,23
609664,set_tempo,24,1,0,,,,,,,,,,,,633513,,,,,,,
609680,set_tempo,16,1,0,,,,,,,,,,,,630451,,,,,,,
609690,note_on,30,0,2,,,,,,,,,,,,,,,0,,,38,0
609692,set_tempo,12,1,0,,,,,,,,,,,,624025,,,,,,,
609704,set_tempo,12,1,0,,,,,,,,,,,,617920,,,,,,,
609720,note_on,30,0,2,,,,,,,,,,,,,,,0,,,38,25
609720,set_tempo,16,1,0,,,,,,,,,,,,614880,,,,,,,
609732,set_tempo,12,1,0,,,,,,,,,,,,617920,,,,,,,
609744,set_tempo,12,1,0,,,,,,,,,,,,630451,,,,,,,
609750,note_on,30,0,2,,,,,,,,,,,,,,,0,,,40,0
609772,set_tempo,28,1,0,,,,,,,,,,,,633513,,,,,,,
609780,note_on,30,0,2,,,,,,,,,,,,,,,0,,,40,23
609784,set_tempo,12,1,0,,,,,,,,,,,,636740,,,,,,,
609800,set_tempo,16,1,0,,,,,,,,,,,,630451,,,,,,,
609810,note_on,30,0,2,,,,,,,,,,,,,,,0,,,38,0
609812,set_tempo,12,1,0,,,,,,,,,,,,620989,,,,,,,
609824,set_tempo,12,1,0,,,,,,,,,,,,614880,,,,,,,
609840,note_on,0,0,1,,,,,,,,,,,,,,,0,,,62,19
609840,note_on,240,0,1,,,,,,,,,,,,,,,0,,,62,0
609840,note_on,0,0,1,,,,,,,,,,,,,,,0,,,65,0
609840,note_on,0,0,1,,,,,,,,,,,,,,,0,,,69,0
609840,note_on,0,0,1,,,,,,,,,,,,,,,0,,,69,27
609840,note_on,30,0,2,,,,,,,,,,,,,,,0,,,38,25
609840,note_on,0,0,1,,,,,,,,,,,,,,,0,,,65,23
609852,set_tempo,28,1,0,,,,,,,,,,,,620989,,,,,,,
609864,set_tempo,12,1,0,,,,,,,,,,,,627221,,,,,,,
609870,note_on,30,0,2,,,,,,,,,,,,,,,0,,,40,0
609892,set_tempo,28,1,0,,,,,,,,,,,,630451,,,,,,,
609900,note_on,30,0,2,,,,,,,,,,,,,,,0,,,40,22
609930,note_on,30,0,2,,,,,,,,,,,,,,,0,,,38,0
609944,set_tempo,52,1,0,,,,,,,,,,,,627221,,,,,,,
609960,set_tempo,16,1,0,,,,,,,,,,,,620989,,,,,,,
609960,note_on,30,0,2,,,,,,,,,,,,,,,0,,,38,25
609984,set_tempo,24,1,0,,,,,,,,,,,,617920,,,,,,,
609990,note_on,30,0,2,,,,,,,,,,,,,,,0,,,40,0
610012,set_tempo,28,1,0,,,,,,,,,,,,627221,,,,,,,
610020,note_on,30,0,2,,,,,,,,,,,,,,,0,,,40,22
610024,set_tempo,12,1,0,,,,,,,,,,,,630451,,,,,,,
610040,set_tempo,16,1,0,,,,,,,,,,,,633513,,,,,,,
610050,note_on,30,0,2,,,,,,,,,,,,,,,0,,,38,0
610052,set_tempo,12,1,0,,,,,,,,,,,,624025,,,,,,,
610064,set_tempo,12,1,0,,,,,,,,,,,,620989,,,,,,,
610080,note_on,30,0,2,,,,,,,,,,,,,,,0,,,38,27
610080,note_on,0,0,1,,,,,,,,,,,,,,,0,,,69,27
610080,note_on,240,0,1,,,,,,,,,,,,,,,0,,,62,0
610080,note_on,0,0,1,,,,,,,,,,,,,,,0,,,65,0
610080,note_on,0,0,1,,,,,,,,,,,,,,,0,,,62,19
610080,note_on,0,0,1,,,,,,,,,,,,,,,0,,,65,23
610080,note_on,0,0,1,,,,,,,,,,,,,,,0,,,69,0
610092,set_tempo,28,1,0,,,,,,,,,,,,624025,,,,,,,
610104,set_tempo,12,1,0,,,,,,,,,,,,636740,,,,,,,
610110,note_on,30,0,2,,,,,,,,,,,,,,,0,,,40,0
610120,set_tempo,16,1,0,,,,,,,,,,,,649984,,,,,,,
610132,set_tempo,12,1,0,,,,,,,,,,,,646621,,,,,,,
610140,note_on,30,0,2,,,,,,,,,,,,,,,0,,,40,23
610144,set_tempo,12,1,0,,,,,,,,,,,,640000,,,,,,,
610160,set_tempo,16,1,0,,,,,,,,,,,,636740,,,,,,,
610170,note_on,30,0,2,,,,,,,,,,,,,,,0,,,38,0
610184,set_tempo,24,1,0,,,,,,,,,,,,633513,,,,,,,
610200,note_on,30,0,2,,,,,,,,,,,,,,,0,,,38,26
610224,set_tempo,40,1,0,,,,,,,,,,,,646621,,,,,,,
610230,note_on,30,0,2,,,,,,,,,,,,,,,0,,,40,0
610240,set_tempo,16,1,0,,,,,,,,,,,,649984,,,,,,,
610260,note_on,30,0,2,,,,,,,,,,,,,,,0,,,40,22
610280,set_tempo,40,1,0,,,,,,,,,,,,653310,,,,,,,
610290,note_on,30,0,2,,,,,,,,,,,,,,,0,,,38,0
610320,note_on,240,0,1,,,,,,,,,,,,,,,0,,,62,0
610320,note_on,0,0,1,,,,,,,,,,,,,,,0,,,65,0
610320,set_tempo,40,1,0,,,,,,,,,,,,710059,,,,,,,
610320,note_on,0,0,1,,,,,,,,,,,,,,,0,,,62,19
610320,note_on,0,0,1,,,,,,,,,,,,,,,0,,,65,23
610320,note_on,0,0,1,,,,,,,,,,,,,,,0,,,69,27
610320,note_on,0,0,1,,,,,,,,,,,,,,,0,,,69,0
610320,note_on,30,0,2,,,,,,,,,,,,,,,0,,,38,26
610340,set_tempo,20,1,0,,,,,,,,,,,,714286,,,,,,,
610350,note_on,30,0,2,,,,,,,,,,,,,,,0,,,40,0
610360,set_tempo,20,1,0,,,,,,,,,,,,718563,,,,,,,
610380,note_on,30,0,2,,,,,,,,,,,,,,,0,,,40,22
610380,set_tempo,20,1,0,,,,,,,,,,,,722892,,,,,,,
610400,set_tempo,20,1,0,,,,,,,,,,,,727273,,,,,,,
610410,note_on,30,0,2,,,,,,,,,,,,,,,0,,,38,0
610420,set_tempo,20,1,0,,,,,,,,,,,,731707,,,,,,,
610440,set_tempo,20,1,0,,,,,,,,,,,,736196,,,,,,,
610440,note_on,30,0,2,,,,,,,,,,,,,,,0,,,36,28
610460,set_tempo,20,1,0,,,,,,,,,,,,740741,,,,,,,
610470,note_on,30,0,2,,,,,,,,,,,,,,,0,,,40,0
610480,set_tempo,20,1,0,,,,,,,,,,,,745342,,,,,,,
610500,set_tempo,20,1,0,,,,,,,,,,,,750000,,,,,,,
610520,set_tempo,20,1,0,,,,,,,,,,,,754717,,,,,,,
610540,set_tempo,20,1,0,,,,,,,,,,,,764331,,,,,,,
610560,note_on,0,0,1,,,,,,,,,,,,,,,0,,,62,19
610560,note_on,0,0,1,,,,,,,,,,,,,,,0,,,65,23
610560,note_on,0,0,1,,,,,,,,,,,,,,,0,,,70,27
610560,note_on,0,0,1,,,,,,,,,,,,,,,0,,,69,0
610560,note_on,0,0,1,,,,,,,,,,,,,,,0,,,65,0
610560,note_on,90,0,2,,,,,,,,,,,,,,,0,,,36,0
610560,control_change,0,0,2,,,,,,,,,,,,,,,0,64,127,,
610560,note_on,0,0,2,,,,,,,,,,,,,,,0,,,34,34
610560,note_on,240,0,1,,,,,,,,,,,,,,,0,,,62,0
610560,set_tempo,20,1,0,,,,,,,,,,,,710059,,,,,,,
610680,note_on,120,0,2,,,,,,,,,,,,,,,0,,,34,0
610680,set_tempo,120,1,0,,,,,,,,,,,,634921,,,,,,,
610800,note_on,0,0,1,,,,,,,,,,,,,,,0,,,70,27
610800,note_on,240,0,1,,,,,,,,,,,,,,,0,,,62,0
610800,note_on,0,0,1,,,,,,,,,,,,,,,0,,,70,0
610800,note_on,0,0,1,,,,,,,,,,,,,,,0,,,65,0
610800,note_on,0,0,1,,,,,,,,,,,,,,,0,,,62,19
610800,note_on,0,0,1,,,,,,,,,,,,,,,0,,,65,23
611040,note_on,240,0,1,,,,,,,,,,,,,,,0,,,62,0
611040,note_on,0,0,1,,,,,,,,,,,,,,,0,,,65,0
611040,note_on,0,0,1,,,,,,,,,,,,,,,0,,,70,0
611040,note_on,0,0,1,,,,,,,,,,,,,,,0,,,70,27
611040,note_on,0,0,1,,,,,,,,,,,,,,,0,,,65,23
611040,note_on,0,0,1,,,,,,,,,,,,,,,0,,,62,19
611280,note_on,240,0,1,,,,,,,,,,,,,,,0,,,62,0
611280,note_on,0,0,1,,,,,,,,,,,,,,,0,,,65,0
611280,note_on,0,0,1,,,,,,,,,,,,,,,0,,,70,0
611280,note_on,0,0,1,,,,,,,,,,,,,,,0,,,70,27
611280,note_on,0,0,1,,,,,,,,,,,,,,,0,,,65,23
611280,note_on,0,0,1,,,,,,,,,,,,,,,0,,,62,19
611520,control_change,840,0,2,,,,,,,,,,,,,,,0,64,0,,
611520,note_on,0,0,2,,,,,,,,,,,,,,,0,,,70,24
611520,note_on,0,0,2,,,,,,,,,,,,,,,0,,,62,17
611520,note_on,240,0,1,,,,,,,,,,,,,,,0,,,62,0
611520,note_on,0,0,1,,,,,,,,,,,,,,,0,,,65,0
611520,note_on,0,0,1,,,,,,,,,,,,,,,0,,,70,0
611520,note_on,0,0,2,,,,,,,,,,,,,,,0,,,65,20
611576,control_change,56,0,2,,,,,,,,,,,,,,,0,64,127,,
611760,note_on,0,0,2,,,,,,,,,,,,,,,0,,,70,24
611760,note_on,184,0,2,,,,,,,,,,,,,,,0,,,62,0
611760,note_on,0,0,2,,,,,,,,,,,,,,,0,,,65,0
611760,note_on,0,0,2,,,,,,,,,,,,,,,0,,,70,0
611760,note_on,0,0,2,,,,,,,,,,,,,,,0,,,65,20
611760,note_on,0,0,2,,,,,,,,,,,,,,,0,,,62,17
612000,note_on,0,0,2,,,,,,,,,,,,,,,0,,,70,21
612000,note_on,0,0,2,,,,,,,,,,,,,,,0,,,70,0
612000,note_on,0,0,2,,,,,,,,,,,,,,,0,,,65,0
612000,note_on,240,0,2,,,,,,,,,,,,,,,0,,,62,0
612000,note_on,0,0,2,,,,,,,,,,,,,,,0,,,62,15
612000,note_on,0,0,2,,,,,,,,,,,,,,,0,,,65,18
612000,note_on,480,0,1,,,,,,,,,,,,,,,0,,,82,52
612000,set_tempo,1320,1,0,,,,,,,,,,,,616776,,,,,,,
612040,set_tempo,40,1,0,,,,,,,,,,,,648298,,,,,,,
612240,note_on,0,0,2,,,,,,,,,,,,,,,0,,,65,18
612240,note_on,0,0,2,,,,,,,,,,,,,,,0,,,62,15
612240,note_on,0,0,2,,,,,,,,,,,,,,,0,,,70,0
612240,note_on,0,0,2,,,,,,,,,,,,,,,0,,,70,21
612240,note_on,0,0,2,,,,,,,,,,,,,,,0,,,65,0
612240,note_on,240,0,2,,,,,,,,,,,,,,,0,,,62,0
612480,note_on,0,0,2,,,,,,,,,,,,,,,0,,,65,18
612480,note_on,0,0,1,,,,,,,,,,,,,,,0,,,82,56
612480,note_on,480,0,1,,,,,,,,,,,,,,,0,,,82,0
612480,set_tempo,440,1,0,,,,,,,,,,,,655738,,,,,,,
612480,note_on,240,0,2,,,,,,,,,,,,,,,0,,,62,0
612480,note_on,0,0,2,,,,,,,,,,,,,,,0,,,65,0
612480,note_on,0,0,2,,,,,,,,,,,,,,,0,,,70,0
612480,note_on,0,0,2,,,,,,,,,,,,,,,0,,,70,21
612480,note_on,0,0,2,,,,,,,,,,,,,,,0,,,62,15
612480,control_change,0,0,2,,,,,,,,,,,,,,,0,64,0,,
612593,control_change,113,0,2,,,,,,,,,,,,,,,0,64,127,,
612720,note_on,0,0,2,,,,,,,,,,,,,,,0,,,65,0
612720,note_on,0,0,2,,,,,,,,,,,,,,,0,,,70,21
612720,note_on,0,0,2,,,,,,,,,,,,,,,0,,,62,15
612720,note_on,0,0,2,,,,,,,,,,,,,,,0,,,65,18
612720,note_on,127,0,2,,,,,,,,,,,,,,,0,,,62,0
612720,note_on,0,0,2,,,,,,,,,,,,,,,0,,,70,0
612960,set_tempo,480,1,0,,,,,,,,,,,,641026,,,,,,,
612960,note_on,0,0,1,,,,,,,,,,,,,,,0,,,81,54
612960,note_on,480,0,1,,,,,,,,,,,,,,,0,,,82,0
612960,note_on,240,0,2,,,,,,,,,,,,,,,0,,,62,0
612960,note_on,0,0,2,,,,,,,,,,,,,,,0,,,65,0
612960,note_on,0,0,2,,,,,,,,,,,,,,,0,,,70,0
612960,note_on,0,0,2,,,,,,,,,,,,,,,0,,,72,21
612960,note_on,0,0,2,,,,,,,,,,,,,,,0,,,65,18
612960,note_on,0,0,2,,,,,,,,,,,,,,,0,,,62,15
612974,control_change,14,0,2,,,,,,,,,,,,,,,0,64,0,,
613031,control_change,57,0,2,,,,,,,,,,,,,,,0,64,127,,
613200,note_on,169,0,2,,,,,,,,,,,,,,,0,,,62,0
613200,note_on,0,0,2,,,,,,,,,,,,,,,0,,,62,15
613200,note_on,0,0,2,,,,,,,,,,,,,,,0,,,65,0
613200,note_on,0,0,2,,,,,,,,,,,,,,,0,,,72,0
613200,note_on,0,0,2,,,,,,,,,,,,,,,0,,,72,21
613200,note_on,0,0,2,,,,,,,,,,,,,,,0,,,65,18
613320,set_tempo,360,1,0,,,,,,,,,,,,660793,,,,,,,
613400,set_tempo,80,1,0,,,,,,,,,,,,656599,,,,,,,
613440,note_on,480,0,1,,,,,,,,,,,,,,,0,,,81,0
613440,note_on,0,0,1,,,,,,,,,,,,,,,0,,,82,56
613440,note_on,0,0,2,,,,,,,,,,,,,,,0,,,62,15
613440,set_tempo,40,1,0,,,,,,,,,,,,626894,,,,,,,
613440,note_on,0,0,2,,,,,,,,,,,,,,,0,,,74,21
613440,note_on,0,0,2,,,,,,,,,,,,,,,0,,,72,0
613440,note_on,0,0,2,,,,,,,,,,,,,,,0,,,65,0
613440,note_on,240,0,2,,,,,,,,,,,,,,,0,,,62,0
613440,note_on,0,0,2,,,,,,,,,,,,,,,0,,,65,18
613496,control_change,56,0,2,,,,,,,,,,,,,,,0,64,0,,
613595,control_change,99,0,2,,,,,,,,,,,,,,,0,64,127,,
613680,note_on,0,0,2,,,,,,,,,,,,,,,0,,,74,0
613680,note_on,0,0,2,,,,,,,,,,,,,,,0,,,65,0
613680,note_on,85,0,2,,,,,,,,,,,,,,,0,,,62,0
613680,note_on,0,0,2,,,,,,,,,,,,,,,0,,,74,21
613680,note_on,0,0,2,,,,,,,,,,,,,,,0,,,62,15
613680,note_on,0,0,2,,,,,,,,,,,,,,,0,,,65,18
613920,note_on,0,0,2,,,,,,,,,,,,,,,0,,,65,0
613920,note_on,0,0,2,,,,,,,,,,,,,,,0,,,74,0
613920,note_on,0,0,2,,,,,,,,,,,,,,,0,,,69,21
613920,note_on,0,0,2,,,,,,,,,,,,,,,0,,,65,18
613920,note_on,0,0,2,,,,,,,,,,,,,,,0,,,62,15
613920,note_on,480,0,1,,,,,,,,,,,,,,,0,,,82,0
613920,note_on,240,0,2,,,,,,,,,,,,,,,0,,,62,0
613920,note_on,0,0,1,,,,,,,,,,,,,,,0,,,84,53
614160,note_on,0,0,2,,,,,,,,,,,,,,,0,,,65,18
614160,note_on,0,0,2,,,,,,,,,,,,,,,0,,,62,15
614160,note_on,0,0,2,,,,,,,,,,,,,,,0,,,69,21
614160,note_on,0,0,2,,,,,,,,,,,,,,,0,,,69,0
614160,note_on,240,0,2,,,,,,,,,,,,,,,0,,,62,0
614160,note_on,0,0,2,,,,,,,,,,,,,,,0,,,65,0
614360,set_tempo,920,1,0,,,,,,,,,,,,644676,,,,,,,
614400,note_on,480,0,1,,,,,,,,,,,,,,,0,,,84,0
614400,control_change,0,0,2,,,,,,,,,,,,,,,0,64,0,,
614400,note_on,0,0,2,,,,,,,,,,,,,,,0,,,70,21
614400,note_on,240,0,2,,,,,,,,,,,,,,,0,,,62,0
614400,note_on,0,0,2,,,,,,,,,,,,,,,0,,,65,0
614400,note_on,0,0,2,,,,,,,,,,,,,,,0,,,69,0
614400,note_on,0,0,1,,,,,,,,,,,,,,,0,,,86,60
614400,note_on,0,0,2,,,,,,,,,,,,,,,0,,,65,18
614400,note_on,0,0,2,,,,,,,,,,,,,,,0,,,62,15
614469,control_change,69,0,2,,,,,,,,,,,,,,,0,64,127,,
614640,note_on,171,0,2,,,,,,,,,,,,,,,0,,,62,0
614640,note_on,0,0,2,,,,,,,,,,,,,,,0,,,65,0
614640,note_on,0,0,2,,,,,,,,,,,,,,,0,,,62,15
614640,note_on,0,0,2,,,,,,,,,,,,,,,0,,,65,18
614640,note_on,0,0,2,,,,,,,,,,,,,,,0,,,70,21
614640,note_on,0,0,2,,,,,,,,,,,,,,,0,,,70,0
614880,note_on,0,0,2,,,,,,,,,,,,,,,0,,,62,15
614880,note_on,0,0,2,,,,,,,,,,,,,,,0,,,70,0
614880,note_on,0,0,2,,,,,,,,,,,,,,,0,,,65,0
614880,note_on,240,0,2,,,,,,,,,,,,,,,0,,,62,0
614880,note_on,0,0,2,,,,,,,,,,,,,,,0,,,70,22
614880,note_on,0,0,2,,,,,,,,,,,,,,,0,,,65,18
615120,note_on,0,0,2,,,,,,,,,,,,,,,0,,,65,18
615120,note_on,240,0,2,,,,,,,,,,,,,,,0,,,62,0
615120,note_on,0,0,2,,,,,,,,,,,,,,,0,,,65,0
615120,note_on,0,0,2,,,,,,,,,,,,,,,0,,,70,0
615120,note_on,0,0,2,,,,,,,,,,,,,,,0,,,70,22
615120,note_on,0,0,2,,,,,,,,,,,,,,,0,,,62,15
615360,note_on,0,0,2,,,,,,,,,,,,,,,0,,,65,18
615360,note_on,0,0,2,,,,,,,,,,,,,,,0,,,62,15
615360,note_on,0,0,2,,,,,,,,,,,,,,,0,,,70,0
615360,note_on,240,0,2,,,,,,,,,,,,,,,0,,,62,0
615360,note_on,0,0,2,,,,,,,,,,,,,,,0,,,65,0
615360,note_on,0,0,2,,,,,,,,,,,,,,,0,,,70,22
615600,note_on,0,0,2,,,,,,,,,,,,,,,0,,,70,0
615600,note_on,0,0,2,,,,,,,,,,,,,,,0,,,62,15
615600,note_on,0,0,2,,,,,,,,,,,,,,,0,,,65,18
615600,note_on,0,0,2,,,,,,,,,,,,,,,0,,,70,22
615600,note_on,0,0,2,,,,,,,,,,,,,,,0,,,65,0
615600,note_on,240,0,2,,,,,,,,,,,,,,,0,,,62,0
615840,note_on,0,0,2,,,,,,,,,,,,,,,0,,,65,18
615840,note_on,0,0,1,,,,,,,,,,,,,,,0,,,84,56
615840,note_on,1440,0,1,,,,,,,,,,,,,,,0,,,86,0
615840,note_on,0,0,2,,,,,,,,,,,,,,,0,,,65,0
615840,note_on,240,0,2,,,,,,,,,,,,,,,0,,,62,0
615840,note_on,0,0,2,,,,,,,,,,,,,,,0,,,70,22
615840,note_on,0,0,2,,,,,,,,,,,,,,,0,,,70,0
615840,set_tempo,1480,1,0,,,,,,,,,,,,630451,,,,,,,
615840,note_on,0,0,2,,,,,,,,,,,,,,,0,,,62,15
616080,note_on,0,0,2,,,,,,,,,,,,,,,0,,,62,15
616080,note_on,240,0,1,,,,,,,,,,,,,,,0,,,84,0
616080,note_on,240,0,2,,,,,,,,,,,,,,,0,,,62,0
616080,note_on,0,0,2,,,,,,,,,,,,,,,0,,,65,0
616080,note_on,0,0,2,,,,,,,,,,,,,,,0,,,70,0
616080,note_on,0,0,2,,,,,,,,,,,,,,,0,,,70,22
616080,note_on,0,0,2,,,,,,,,,,,,,,,0,,,65,18
616080,note_on,0,0,1,,,,,,,,,,,,,,,0,,,82,56
616320,note_on,0,0,2,,,,,,,,,,,,,,,0,,,66,18
616320,note_on,0,0,2,,,,,,,,,,,,,,,0,,,65,0
616320,set_tempo,480,1,0,,,,,,,,,,,,648298,,,,,,,
616320,note_on,0,0,2,,,,,,,,,,,,,,,0,,,70,0
616320,note_on,0,0,2,,,,,,,,,,,,,,,0,,,63,15
616320,note_on,240,0,1,,,,,,,,,,,,,,,0,,,82,0
616320,control_change,0,0,2,,,,,,,,,,,,,,,0,64,0,,
616320,note_on,0,0,1,,,,,,,,,,,,,,,0,,,84,56
616320,note_on,240,0,2,,,,,,,,,,,,,,,0,,,62,0
616320,note_on,0,0,2,,,,,,,,,,,,,,,0,,,70,22
616400,control_change,80,0,2,,,,,,,,,,,,,,,0,64,127,,
616560,note_on,0,0,2,,,,,,,,,,,,,,,0,,,66,0
616560,note_on,0,0,2,,,,,,,,,,,,,,,0,,,70,22
616560,note_on,0,0,2,,,,,,,,,,,,,,,0,,,66,18
616560,note_on,0,0,2,,,,,,,,,,,,,,,0,,,63,15
616560,note_on,0,0,2,,,,,,,,,,,,,,,0,,,63,0
616560,note_on,160,0,2,,,,,,,,,,,,,,,0,,,70,0
616800,note_on,0,0,1,,,,,,,,,,,,,,,0,,,84,56
616800,note_on,0,0,2,,,,,,,,,,,,,,,0,,,70,22
616800,note_on,0,0,2,,,,,,,,,,,,,,,0,,,66,18
616800,note_on,0,0,2,,,,,,,,,,,,,,,0,,,63,15
616800,note_on,0,0,2,,,,,,,,,,,,,,,0,,,63,0
616800,note_on,240,0,2,,,,,,,,,,,,,,,0,,,70,0
616800,set_tempo,480,1,0,,,,,,,,,,,,641026,,,,,,,
616800,note_on,480,0,1,,,,,,,,,,,,,,,0,,,84,0
616800,note_on,0,0,2,,,,,,,,,,,,,,,0,,,66,0
617040,note_on,0,0,2,,,,,,,,,,,,,,,0,,,66,18
617040,note_on,0,0,2,,,,,,,,,,,,,,,0,,,66,0
617040,note_on,0,0,2,,,,,,,,,,,,,,,0,,,63,15
617040,note_on,0,0,2,,,,,,,,,,,,,,,0,,,70,22
617040,note_on,240,0,2,,,,,,,,,,,,,,,0,,,70,0
617040,note_on,0,0,2,,,,,,,,,,,,,,,0,,,63,0
617280,note_on,0,0,2,,,,,,,,,,,,,,,0,,,70,22
617280,note_on,0,0,2,,,,,,,,,,,,,,,0,,,66,18
617280,note_on,0,0,2,,,,,,,,,,,,,,,0,,,63,0
617280,note_on,0,0,2,,,,,,,,,,,,,,,0,,,66,0
617280,note_on,240,0,2,,,,,,,,,,,,,,,0,,,70,0
617280,note_on,0,0,1,,,,,,,,,,,,,,,0,,,84,56
617280,note_on,480,0,1,,,,,,,,,,,,,,,0,,,84,0
617280,note_on,0,0,2,,,,,,,,,,,,,,,0,,,63,15
617360,control_change,80,0,2,,,,,,,,,,,,,,,0,64,0,,
617451,control_change,91,0,2,,,,,,,,,,,,,,,0,64,127,,
617520,note_on,0,0,2,,,,,,,,,,,,,,,0,,,66,0
617520,note_on,0,0,2,,,,,,,,,,,,,,,0,,,63,0
617520,note_on,0,0,2,,,,,,,,,,,,,,,0,,,63,15
617520,note_on,69,0,2,,,,,,,,,,,,,,,0,,,70,0
617520,note_on,0,0,2,,,,,,,,,,,,,,,0,,,70,22
617520,note_on,0,0,2,,,,,,,,,,,,,,,0,,,66,18
617760,note_on,480,0,1,,,,,,,,,,,,,,,0,,,84,0
617760,note_on,0,0,2,,,,,,,,,,,,,,,0,,,63,0
617760,note_on,0,0,2,,,,,,,,,,,,,,,0,,,63,15
617760,note_on,0,0,2,,,,,,,,,,,,,,,0,,,66,18
617760,note_on,0,0,2,,,,,,,,,,,,,,,0,,,70,22
617760,set_tempo,960,1,0,,,,,,,,,,,,648298,,,,,,,
617760,note_on,240,0,2,,,,,,,,,,,,,,,0,,,70,0
617760,note_on,0,0,2,,,,,,,,,,,,,,,0,,,66,0
617760,note_on,0,0,1,,,,,,,,,,,,,,,0,,,82,56
618000,note_on,240,0,2,,,,,,,,,,,,,,,0,,,70,0
618000,note_on,0,0,2,,,,,,,,,,,,,,,0,,,63,15
618000,note_on,0,0,2,,,,,,,,,,,,,,,0,,,66,18
618000,note_on,0,0,2,,,,,,,,,,,,,,,0,,,70,22
618000,note_on,0,0,1,,,,,,,,,,,,,,,0,,,81,56
618000,note_on,240,0,1,,,,,,,,,,,,,,,0,,,82,0
618000,note_on,0,0,2,,,,,,,,,,,,,,,0,,,63,0
618000,note_on,0,0,2,,,,,,,,,,,,,,,0,,,66,0
618240,note_on,0,0,1,,,,,,,,,,,,,,,0,,,82,56
618240,note_on,0,0,2,,,,,,,,,,,,,,,0,,,70,22
618240,note_on,240,0,2,,,,,,,,,,,,,,,0,,,70,0
618240,note_on,0,0,2,,,,,,,,,,,,,,,0,,,66,0
618240,note_on,240,0,1,,,,,,,,,,,,,,,0,,,81,0
618240,note_on,0,0,2,,,,,,,,,,,,,,,0,,,63,0
618240,note_on,0,0,2,,,,,,,,,,,,,,,0,,,65,18
618240,note_on,0,0,2,,,,,,,,,,,,,,,0,,,62,15
618240,control_change,0,0,2,,,,,,,,,,,,,,,0,64,0,,
618353,control_change,113,0,2,,,,,,,,,,,,,,,0,64,127,,
618480,note_on,0,0,2,,,,,,,,,,,,,,,0,,,65,0
618480,note_on,0,0,2,,,,,,,,,,,,,,,0,,,65,18
618480,note_on,0,0,2,,,,,,,,,,,,,,,0,,,62,15
618480,note_on,0,0,2,,,,,,,,,,,,,,,0,,,70,22
618480,note_on,127,0,2,,,,,,,,,,,,,,,0,,,70,0
618480,note_on,0,0,2,,,,,,,,,,,,,,,0,,,62,0
618720,note_on,0,0,2,,,,,,,,,,,,,,,0,,,70,22
618720,note_on,0,0,2,,,,,,,,,,,,,,,0,,,62,15
618720,note_on,0,0,2,,,,,,,,,,,,,,,0,,,65,18
618720,note_on,0,0,2,,,,,,,,,,,,,,,0,,,62,0
618720,note_on,240,0,2,,,,,,,,,,,,,,,0,,,70,0
618720,note_on,480,0,1,,,,,,,,,,,,,,,0,,,82,0
618720,note_on,0,0,2,,,,,,,,,,,,,,,0,,,65,0
618960,note_on,240,0,2,,,,,,,,,,,,,,,0,,,70,0
618960,note_on,0,0,2,,,,,,,,,,,,,,,0,,,62,0
618960,note_on,0,0,2,,,,,,,,,,,,,,,0,,,65,0
618960,note_on,0,0,2,,,,,,,,,,,,,,,0,,,65,18
618960,note_on,0,0,2,,,,,,,,,,,,,,,0,,,62,15
618960,note_on,0,0,2,,,,,,,,,,,,,,,0,,,70,22
619200,note_on,0,0,2,,,,,,,,,,,,,,,0,,,65,0
619200,note_on,0,0,1,,,,,,,,,,,,,,,0,,,65,20
619200,note_on,0,0,1,,,,,,,,,,,,,,,0,,,62,17
619200,set_tempo,1440,1,0,,,,,,,,,,,,633914,,,,,,,
619200,note_on,240,0,2,,,,,,,,,,,,,,,0,,,70,0
619200,note_on,480,0,1,,,,,,,,,,,,,,,0,,,70,24
619200,note_on,0,0,2,,,,,,,,,,,,,,,0,,,62,0
619440,note_on,0,0,1,,,,,,,,,,,,,,,0,,,62,17
619440,note_on,0,0,1,,,,,,,,,,,,,,,0,,,65,20
619440,note_on,0,0,1,,,,,,,,,,,,,,,0,,,70,24
619440,note_on,0,0,1,,,,,,,,,,,,,,,0,,,70,0
619440,note_on,240,0,1,,,,,,,,,,,,,,,0,,,62,0
619440,note_on,0,0,1,,,,,,,,,,,,,,,0,,,65,0
619680,note_on,0,0,1,,,,,,,,,,,,,,,0,,,65,20
619680,note_on,0,0,1,,,,,,,,,,,,,,,0,,,62,17
619680,note_on,0,0,1,,,,,,,,,,,,,,,0,,,70,24
619680,note_on,0,0,1,,,,,,,,,,,,,,,0,,,70,0
619680,note_on,0,0,1,,,,,,,,,,,,,,,0,,,65,0
619680,note_on,240,0,1,,,,,,,,,,,,,,,0,,,62,0
619920,note_on,0,0,1,,,,,,,,,,,,,,,0,,,62,17
619920,note_on,0,0,1,,,,,,,,,,,,,,,0,,,65,20
619920,note_on,0,0,1,,,,,,,,,,,,,,,0,,,70,24
619920,note_on,0,0,1,,,,,,,,,,,,,,,0,,,70,0
619920,note_on,0,0,1,,,,,,,,,,,,,,,0,,,65,0
619920,note_on,240,0,1,,,,,,,,,,,,,,,0,,,62,0
620100,note_on,900,0,2,,,,,,,,,,,,,,,0,,,36,27
620160,note_on,0,0,1,,,,,,,,,,,,,,,0,,,70,27
620160,note_on,0,0,1,,,,,,,,,,,,,,,0,,,65,0
620160,note_on,0,0,1,,,,,,,,,,,,,,,0,,,62,19
620160,note_on,0,0,1,,,,,,,,,,,,,,,0,,,70,0
620160,note_on,0,0,1,,,,,,,,,,,,,,,0,,,65,23
620160,set_tempo,960,1,0,,,,,,,,,,,,656743,,,,,,,
620160,note_on,240,0,1,,,,,,,,,,,,,,,0,,,62,0
620160,note_on,60,0,2,,,,,,,,,,,,,,,0,,,36,0
620160,note_on,0,0,2,,,,,,,,,,,,,,,0,,,34,27
620220,note_on,60,0,2,,,,,,,,,,,,,,,0,,,36,23
620240,set_tempo,80,1,0,,,,,,,,,,,,653310,,,,,,,
620250,note_on,30,0,2,,,,,,,,,,,,,,,0,,,34,0
620280,note_on,30,0,2,,,,,,,,,,,,,,,0,,,34,24
620310,note_on,30,0,2,,,,,,,,,,,,,,,0,,,36,0
620320,set_tempo,80,1,0,,,,,,,,,,,,649984,,,,,,,
620340,note_on,30,0,2,,,,,,,,,,,,,,,0,,,36,22
620360,set_tempo,40,1,0,,,,,,,,,,,,646621,,,,,,,
620370,note_on,30,0,2,,,,,,,,,,,,,,,0,,,34,0
620400,note_on,0,0,1,,,,,,,,,,,,,,,0,,,62,19
620400,note_on,0,0,1,,,,,,,,,,,,,,,0,,,65,23
620400,note_on,0,0,1,,,,,,,,,,,,,,,0,,,70,27
620400,note_on,0,0,1,,,,,,,,,,,,,,,0,,,62,0
620400,note_on,0,0,1,,,,,,,,,,,,,,,0,,,65,0
620400,note_on,240,0,1,,,,,,,,,,,,,,,0,,,70,0
620400,note_on,30,0,2,,,,,,,,,,,,,,,0,,,34,24
620430,note_on,30,0,2,,,,,,,,,,,,,,,0,,,36,0
620440,set_tempo,80,1,0,,,,,,,,,,,,643225,,,,,,,
620460,note_on,30,0,2,,,,,,,,,,,,,,,0,,,36,22
620480,set_tempo,40,1,0,,,,,,,,,,,,640000,,,,,,,
620490,note_on,30,0,2,,,,,,,,,,,,,,,0,,,34,0
620520,note_on,30,0,2,,,,,,,,,,,,,,,0,,,34,26
620550,note_on,30,0,2,,,,,,,,,,,,,,,0,,,36,0
620560,set_tempo,80,1,0,,,,,,,,,,,,636740,,,,,,,
620580,note_on,30,0,2,,,,,,,,,,,,,,,0,,,36,25
620600,set_tempo,40,1,0,,,,,,,,,,,,633513,,,,,,,
620610,note_on,30,0,2,,,,,,,,,,,,,,,0,,,34,0
620624,set_tempo,24,1,0,,,,,,,,,,,,620989,,,,,,,
620640,note_on,0,0,1,,,,,,,,,,,,,,,0,,,62,20
620640,note_on,0,0,1,,,,,,,,,,,,,,,0,,,65,24
620640,note_on,0,0,1,,,,,,,,,,,,,,,0,,,70,28
620640,note_on,0,0,1,,,,,,,,,,,,,,,0,,,70,0
620640,note_on,240,0,1,,,,,,,,,,,,,,,0,,,62,0
620640,note_on,0,0,1,,,,,,,,,,,,,,,0,,,65,0
620640,set_tempo,16,1,0,,,,,,,,,,,,614880,,,,,,,
620640,note_on,30,0,2,,,,,,,,,,,,,,,0,,,34,27
620652,set_tempo,12,1,0,,,,,,,,,,,,611870,,,,,,,
620670,note_on,30,0,2,,,,,,,,,,,,,,,0,,,36,0
620680,set_tempo,28,1,0,,,,,,,,,,,,614880,,,,,,,
620692,set_tempo,12,1,0,,,,,,,,,,,,620989,,,,,,,
620700,note_on,30,0,2,,,,,,,,,,,,,,,0,,,36,24
620704,set_tempo,12,1,0,,,,,,,,,,,,624025,,,,,,,
620720,set_tempo,16,1,0,,,,,,,,,,,,633513,,,,,,,
620730,note_on,30,0,2,,,,,,,,,,,,,,,0,,,34,0
620732,set_tempo,12,1,0,,,,,,,,,,,,636740,,,,,,,
620744,set_tempo,12,1,0,,,,,,,,,,,,633513,,,,,,,
620760,set_tempo,16,1,0,,,,,,,,,,,,627221,,,,,,,
620760,note_on,30,0,2,,,,,,,,,,,,,,,0,,,34,28
620772,set_tempo,12,1,0,,,,,,,,,,,,624025,,,,,,,
620784,set_tempo,12,1,0,,,,,,,,,,,,620989,,,,,,,
620790,note_on,30,0,2,,,,,,,,,,,,,,,0,,,36,0
620800,set_tempo,16,1,0,,,,,,,,,,,,614880,,,,,,,
620820,note_on,30,0,2,,,,,,,,,,,,,,,0,,,36,23
620840,set_tempo,40,1,0,,,,,,,,,,,,630451,,,,,,,
620850,note_on,30,0,2,,,,,,,,,,,,,,,0,,,34,0
620852,set_tempo,12,1,0,,,,,,,,,,,,633513,,,,,,,
620864,set_tempo,12,1,0,,,,,,,,,,,,636740,,,,,,,
620880,note_on,30,0,2,,,,,,,,,,,,,,,0,,,34,27
620880,note_on,0,0,1,,,,,,,,,,,,,,,0,,,62,21
620880,note_on,0,0,1,,,,,,,,,,,,,,,0,,,65,0
620880,note_on,0,0,1,,,,,,,,,,,,,,,0,,,70,0
620880,note_on,0,0,1,,,,,,,,,,,,,,,0,,,70,29
620880,note_on,0,0,1,,,,,,,,,,,,,,,0,,,65,25
620880,set_tempo,16,1,0,,,,,,,,,,,,630451,,,,,,,
620880,note_on,240,0,1,,,,,,,,,,,,,,,0,,,62,0
620892,set_tempo,12,1,0,,,,,,,,,,,,624025,,,,,,,
620904,set_tempo,12,1,0,,,,,,,,,,,,620989,,,,,,,
620910,note_on,30,0,2,,,,,,,,,,,,,,,0,,,36,0
620920,set_tempo,16,1,0,,,,,,,,,,,,630451,,,,,,,
620940,note_on,30,0,2,,,,,,,,,,,,,,,0,,,36,25
620944,set_tempo,24,1,0,,,,,,,,,,,,636740,,,,,,,
620960,set_tempo,16,1,0,,,,,,,,,,,,640000,,,,,,,
620970,note_on,30,0,2,,,,,,,,,,,,,,,0,,,34,0
620972,set_tempo,12,1,0,,,,,,,,,,,,643225,,,,,,,
621000,note_on,30,0,2,,,,,,,,,,,,,,,0,,,34,26
621030,note_on,30,0,2,,,,,,,,,,,,,,,0,,,36,0
621052,set_tempo,80,1,0,,,,,,,,,,,,627221,,,,,,,
621060,note_on,30,0,2,,,,,,,,,,,,,,,0,,,36,24
621064,set_tempo,12,1,0,,,,,,,,,,,,617920,,,,,,,
621080,set_tempo,16,1,0,,,,,,,,,,,,614880,,,,,,,
621090,note_on,30,0,2,,,,,,,,,,,,,,,0,,,34,0
621104,set_tempo,24,1,0,,,,,,,,,,,,617920,,,,,,,
621120,note_on,30,0,2,,,,,,,,,,,,,,,0,,,34,29
621120,note_on,240,0,1,,,,,,,,,,,,,,,0,,,62,0
621120,note_on,0,0,1,,,,,,,,,,,,,,,0,,,62,21
621120,note_on,0,0,1,,,,,,,,,,,,,,,0,,,65,25
621120,note_on,0,0,1,,,,,,,,,,,,,,,0,,,70,30
621120,note_on,0,0,1,,,,,,,,,,,,,,,0,,,70,0
621120,set_tempo,16,1,0,,,,,,,,,,,,624025,,,,,,,
621120,note_on,0,0,1,,,,,,,,,,,,,,,0,,,65,0
621132,set_tempo,12,1,0,,,,,,,,,,,,630451,,,,,,,
621144,set_tempo,12,1,0,,,,,,,,,,,,633513,,,,,,,
621150,note_on,30,0,2,,,,,,,,,,,,,,,0,,,36,0
621160,set_tempo,16,1,0,,,,,,,,,,,,636740,,,,,,,
621180,note_on,30,0,2,,,,,,,,,,,,,,,0,,,36,26
621184,set_tempo,24,1,0,,,,,,,,,,,,633513,,,,,,,
621200,set_tempo,16,1,0,,,,,,,,,,,,630451,,,,,,,
621210,note_on,30,0,2,,,,,,,,,,,,,,,0,,,34,0
621212,set_tempo,12,1,0,,,,,,,,,,,,624025,,,,,,,
621224,set_tempo,12,1,0,,,,,,,,,,,,617920,,,,,,,
621240,set_tempo,16,1,0,,,,,,,,,,,,614880,,,,,,,
621240,note_on,30,0,2,,,,,,,,,,,,,,,0,,,34,28
621252,set_tempo,12,1,0,,,,,,,,,,,,617920,,,,,,,
621264,set_tempo,12,1,0,,,,,,,,,,,,630451,,,,,,,
621270,note_on,30,0,2,,,,,,,,,,,,,,,0,,,36,0
621292,set_tempo,28,1,0,,,,,,,,,,,,633513,,,,,,,
621300,note_on,30,0,2,,,,,,,,,,,,,,,0,,,36,26
621304,set_tempo,12,1,0,,,,,,,,,,,,636740,,,,,,,
621320,set_tempo,16,1,0,,,,,,,,,,,,630451,,,,,,,
621330,note_on,30,0,2,,,,,,,,,,,,,,,0,,,34,0
621332,set_tempo,12,1,0,,,,,,,,,,,,620989,,,,,,,
621344,set_tempo,12,1,0,,,,,,,,,,,,614880,,,,,,,
621360,note_on,30,0,2,,,,,,,,,,,,,,,0,,,34,29
621360,note_on,0,0,1,,,,,,,,,,,,,,,0,,,65,26
621360,note_on,0,0,1,,,,,,,,,,,,,,,0,,,70,31
621360,note_on,0,0,1,,,,,,,,,,,,,,,0,,,70,0
621360,note_on,0,0,1,,,,,,,,,,,,,,,0,,,65,0
621360,note_on,240,0,1,,,,,,,,,,,,,,,0,,,62,0
621360,note_on,0,0,1,,,,,,,,,,,,,,,0,,,62,22
621372,set_tempo,28,1,0,,,,,,,,,,,,620989,,,,,,,
621384,set_tempo,12,1,0,,,,,,,,,,,,627221,,,,,,,
621390,note_on,30,0,2,,,,,,,,,,,,,,,0,,,36,0
621412,set_tempo,28,1,0,,,,,,,,,,,,630451,,,,,,,
621420,note_on,30,0,2,,,,,,,,,,,,,,,0,,,36,25
621450,note_on,30,0,2,,,,,,,,,,,,,,,0,,,34,0
621464,set_tempo,52,1,0,,,,,,,,,,,,627221,,,,,,,
621480,set_tempo,16,1,0,,,,,,,,,,,,620989,,,,,,,
621480,note_on,30,0,2,,,,,,,,,,,,,,,0,,,34,29
621504,set_tempo,24,1,0,,,,,,,,,,,,617920,,,,,,,
621510,note_on,30,0,2,,,,,,,,,,,,,,,0,,,36,0
621532,set_tempo,28,1,0,,,,,,,,,,,,627221,,,,,,,
621540,note_on,30,0,2,,,,,,,,,,,,,,,0,,,36,26
621544,set_tempo,12,1,0,,,,,,,,,,,,630451,,,,,,,
621560,set_tempo,16,1,0,,,,,,,,,,,,633513,,,,,,,
621570,note_on,30,0,2,,,,,,,,,,,,,,,0,,,34,0
621572,set_tempo,12,1,0,,,,,,,,,,,,624025,,,,,,,
621584,set_tempo,12,1,0,,,,,,,,,,,,620989,,,,,,,
621600,note_on,0,0,1,,,,,,,,,,,,,,,0,,,62,22
621600,note_on,0,0,1,,,,,,,,,,,,,,,0,,,65,27
621600,note_on,0,0,1,,,,,,,,,,,,,,,0,,,70,32
621600,note_on,0,0,1,,,,,,,,,,,,,,,0,,,65,0
621600,note_on,0,0,1,,,,,,,,,,,,,,,0,,,70,0
621600,note_on,240,0,1,,,,,,,,,,,,,,,0,,,62,0
621600,note_on,30,0,2,,,,,,,,,,,,,,,0,,,34,32
621612,set_tempo,28,1,0,,,,,,,,,,,,624025,,,,,,,
621624,set_tempo,12,1,0,,,,,,,,,,,,636740,,,,,,,
621630,note_on,30,0,2,,,,,,,,,,,,,,,0,,,36,0
621640,set_tempo,16,1,0,,,,,,,,,,,,649984,,,,,,,
621652,set_tempo,12,1,0,,,,,,,,,,,,646621,,,,,,,
621660,note_on,30,0,2,,,,,,,,,,,,,,,0,,,36,27
621664,set_tempo,12,1,0,,,,,,,,,,,,640000,,,,,,,
621680,set_tempo,16,1,0,,,,,,,,,,,,636740,,,,,,,
621690,note_on,30,0,2,,,,,,,,,,,,,,,0,,,34,0
621704,set_tempo,24,1,0,,,,,,,,,,,,633513,,,,,,,
621720,note_on,30,0,2,,,,,,,,,,,,,,,0,,,34,31
621744,set_tempo,40,1,0,,,,,,,,,,,,646621,,,,,,,
621750,note_on,30,0,2,,,,,,,,,,,,,,,0,,,36,0
621760,set_tempo,16,1,0,,,,,,,,,,,,649984,,,,,,,
621780,note_on,30,0,2,,,,,,,,,,,,,,,0,,,36,26
621800,set_tempo,40,1,0,,,,,,,,,,,,653310,,,,,,,
621810,note_on,30,0,2,,,,,,,,,,,,,,,0,,,34,0
621820,set_tempo,20,1,0,,,,,,,,,,,,714286,,,,,,,
621840,note_on,0,0,1,,,,,,,,,,,,,,,0,,,62,23
621840,note_on,0,0,1,,,,,,,,,,,,,,,0,,,65,28
621840,note_on,0,0,1,,,,,,,,,,,,,,,0,,,70,33
621840,note_on,0,0,1,,,,,,,,,,,,,,,0,,,70,0
621840,note_on,0,0,1,,,,,,,,,,,,,,,0,,,65,0
621840,note_on,240,0,1,,,,,,,,,,,,,,,0,,,62,0
621840,note_on,30,0,2,,,,,,,,,,,,,,,0,,,33,34
621860,set_tempo,40,1,0,,,,,,,,,,,,718563,,,,,,,
621870,note_on,30,0,2,,,,,,,,,,,,,,,0,,,36,0
621900,set_tempo,40,1,0,,,,,,,,,,,,722892,,,,,,,
621920,note_on,50,0,2,,,,,,,,,,,,,,,0,,,34,38
621940,set_tempo,40,1,0,,,,,,,,,,,,727273,,,,,,,
621940,note_on,20,0,2,,,,,,,,,,,,,,,0,,,33,0
621980,set_tempo,40,1,0,,,,,,,,,,,,731707,,,,,,,
622000,note_on,60,0,2,,,,,,,,,,,,,,,0,,,36,40
622020,set_tempo,40,1,0,,,,,,,,,,,,736196,,,,,,,
622020,note_on,20,0,2,,,,,,,,,,,,,,,0,,,34,0
622060,set_tempo,40,1,0,,,,,,,,,,,,740741,,,,,,,
622080,note_on,0,0,1,,,,,,,,,,,,,,,0,,,69,34
622080,note_on,60,0,2,,,,,,,,,,,,,,,0,,,38,42
622080,note_on,240,0,1,,,,,,,,,,,,,,,0,,,62,0
622080,note_on,0,0,1,,,,,,,,,,,,,,,0,,,65,0
622080,note_on,0,0,1,,,,,,,,,,,,,,,0,,,70,0
622080,note_on,0,0,1,,,,,,,,,,,,,,,0,,,65,28
622080,note_on,0,0,1,,,,,,,,,,,,,,,0,,,62,23
622080,set_tempo,20,1,0,,,,,,,,,,,,681818,,,,,,,
622100,note_on,20,0,2,,,,,,,,,,,,,,,0,,,36,0
622200,set_tempo,120,1,0,,,,,,,,,,,,634921,,,,,,,
622200,note_on,100,0,2,,,,,,,,,,,,,,,0,,,38,0
622221,control_change,21,0,2,,,,,,,,,,,,,,,0,64,127,,
622320,note_on,240,0,1,,,,,,,,,,,,,,,0,,,62,0
622320,note_on,0,0,1,,,,,,,,,,,,,,,0,,,65,0
622320,note_on,0,0,1,,,,,,,,,,,,,,,0,,,69,27
622320,note_on,0,0,1,,,,,,,,,,,,,,,0,,,65,23
622320,note_on,0,0,1,,,,,,,,,,,,,,,0,,,62,19
622320,note_on,0,0,1,,,,,,,,,,,,,,,0,,,69,0
622334,control_change,113,0,2,,,,,,,,,,,,,,,0,64,0,,
622560,note_on,0,0,1,,,,,,,,,,,,,,,0,,,65,0
622560,note_on,0,0,1,,,,,,,,,,,,,,,0,,,69,0
622560,note_on,0,0,1,,,,,,,,,,,,,,,0,,,69,27
622560,note_on,0,0,1,,,,,,,,,,,,,,,0,,,65,23
622560,note_on,0,0,1,,,,,,,,,,,,,,,0,,,62,19
622560,note_on,240,0,1,,,,,,,,,,,,,,,0,,,62,0
622800,note_on,0,0,1,,,,,,,,,,,,,,,0,,,69,0
622800,note_on,240,0,1,,,,,,,,,,,,,,,0,,,62,0
622800,note_on,0,0,1,,,,,,,,,,,,,,,0,,,69,27
622800,note_on,0,0,1,,,,,,,,,,,,,,,0,,,65,0
622800,note_on,0,0,1,,,,,,,,,,,,,,,0,,,65,23
622800,note_on,0,0,1,,,,,,,,,,,,,,,0,,,62,19
623040,note_on,240,0,1,,,,,,,,,,,,,,,0,,,62,0
623040,note_on,0,0,1,,,,,,,,,,,,,,,0,,,65,0
623040,note_on,0,0,1,,,,,,,,,,,,,,,0,,,69,0
623040,note_on,0,0,2,,,,,,,,,,,,,,,0,,,62,19
623040,note_on,0,0,2,,,,,,,,,,,,,,,0,,,65,23
623040,note_on,706,0,2,,,,,,,,,,,,,,,0,,,69,27
623096,control_change,56,0,2,,,,,,,,,,,,,,,0,64,127,,
623280,note_on,0,0,2,,,,,,,,,,,,,,,0,,,62,19
623280,note_on,0,0,2,,,,,,,,,,,,,,,0,,,69,27
623280,note_on,0,0,2,,,,,,,,,,,,,,,0,,,69,0
623280,note_on,0,0,2,,,,,,,,,,,,,,,0,,,65,0
623280,note_on,184,0,2,,,,,,,,,,,,,,,0,,,62,0
623280,note_on,0,0,2,,,,,,,,,,,,,,,0,,,65,23
623520,note_on,0,0,2,,,,,,,,,,,,,,,0,,,69,0
623520,note_on,480,0,1,,,,,,,,,,,,,,,0,,,77,50
623520,set_tempo,1320,1,0,,,,,,,,,,,,616776,,,,,,,
623520,note_on,240,0,2,,,,,,,,,,,,,,,0,,,62,0
623520,note_on,0,0,2,,,,,,,,,,,,,,,0,,,65,0
623520,note_on,0,0,2,,,,,,,,,,,,,,,0,,,69,24
623520,note_on,0,0,2,,,,,,,,,,,,,,,0,,,65,20
623520,note_on,0,0,2,,,,,,,,,,,,,,,0,,,62,17
623560,set_tempo,40,1,0,,,,,,,,,,,,648298,,,,,,,
623760,note_on,0,0,2,,,,,,,,,,,,,,,0,,,62,17
623760,note_on,0,0,2,,,,,,,,,,,,,,,0,,,65,20
623760,note_on,0,0,2,,,,,,,,,,,,,,,0,,,69,24
623760,note_on,0,0,2,,,,,,,,,,,,,,,0,,,69,0
623760,note_on,0,0,2,,,,,,,,,,,,,,,0,,,65,0
623760,note_on,240,0,2,,,,,,,,,,,,,,,0,,,62,0
624000,set_tempo,440,1,0,,,,,,,,,,,,655738,,,,,,,
624000,note_on,480,0,1,,,,,,,,,,,,,,,0,,,77,0
624000,note_on,0,0,1,,,,,,,,,,,,,,,0,,,77,54
624000,note_on,240,0,2,,,,,,,,,,,,,,,0,,,62,0
624000,note_on,0,0,2,,,,,,,,,,,,,,,0,,,65,0
624000,note_on,0,0,2,,,,,,,,,,,,,,,0,,,69,0
624000,note_on,0,0,2,,,,,,,,,,,,,,,0,,,69,24
624000,note_on,0,0,2,,,,,,,,,,,,,,,0,,,65,20
624000,note_on,0,0,2,,,,,,,,,,,,,,,0,,,62,17
624000,control_change,0,0,2,,,,,,,,,,,,,,,0,64,0,,
624113,control_change,113,0,2,,,,,,,,,,,,,,,0,64,127,,
624240,note_on,0,0,2,,,,,,,,,,,,,,,0,,,69,24
624240,note_on,0,0,2,,,,,,,,,,,,,,,0,,,65,20
624240,note_on,0,0,2,,,,,,,,,,,,,,,0,,,62,17
624240,note_on,0,0,2,,,,,,,,,,,,,,,0,,,69,0
624240,note_on,127,0,2,,,,,,,,,,,,,,,0,,,62,0
624240,note_on,0,0,2,,,,,,,,,,,,,,,0,,,65,0
624480,note_on,0,0,2,,,,,,,,,,,,,,,0,,,65,0
624480,note_on,0,0,1,,,,,,,,,,,,,,,0,,,76,52
624480,note_on,480,0,1,,,,,,,,,,,,,,,0,,,77,0
624480,note_on,240,0,2,,,,,,,,,,,,,,,0,,,62,0
624480,note_on,0,0,2,,,,,,,,,,,,,,,0,,,69,0
624480,note_on,0,0,2,,,,,,,,,,,,,,,0,,,62,17
624480,note_on,0,0,2,,,,,,,,,,,,,,,0,,,65,20
624480,set_tempo,480,1,0,,,,,,,,,,,,641026,,,,,,,
624480,note_on,0,0,2,,,,,,,,,,,,,,,0,,,69,24
624720,note_on,240,0,2,,,,,,,,,,,,,,,0,,,62,0
624720,note_on,0,0,2,,,,,,,,,,,,,,,0,,,65,0
624720,note_on,0,0,2,,,,,,,,,,,,,,,0,,,69,0
624720,note_on,0,0,2,,,,,,,,,,,,,,,0,,,69,24
624720,note_on,0,0,2,,,,,,,,,,,,,,,0,,,65,20
624720,note_on,0,0,2,,,,,,,,,,,,,,,0,,,62,17
624840,set_tempo,360,1,0,,,,,,,,,,,,660793,,,,,,,
624920,set_tempo,80,1,0,,,,,,,,,,,,656599,,,,,,,
624960,set_tempo,40,1,0,,,,,,,,,,,,626894,,,,,,,
624960,note_on,480,0,1,,,,,,,,,,,,,,,0,,,76,0
624960,note_on,0,0,1,,,,,,,,,,,,,,,0,,,77,54
624960,note_on,0,0,2,,,,,,,,,,,,,,,0,,,62,17
624960,note_on,0,0,2,,,,,,,,,,,,,,,0,,,65,0
624960,note_on,0,0,2,,,,,,,,,,,,,,,0,,,65,20
624960,note_on,240,0,2,,,,,,,,,,,,,,,0,,,62,0
624960,note_on,0,0,2,,,,,,,,,,,,,,,0,,,69,0
624960,note_on,0,0,2,,,,,,,,,,,,,,,0,,,69,24
625016,control_change,56,0,2,,,,,,,,,,,,,,,0,64,0,,
625115,control_change,99,0,2,,,,,,,,,,,,,,,0,64,127,,
625200,note_on,85,0,2,,,,,,,,,,,,,,,0,,,62,0
625200,note_on,0,0,2,,,,,,,,,,,,,,,0,,,65,0
625200,note_on,0,0,2,,,,,,,,,,,,,,,0,,,69,0
625200,note_on,0,0,2,,,,,,,,,,,,,,,0,,,69,24
625200,note_on,0,0,2,,,,,,,,,,,,,,,0,,,65,20
625200,note_on,0,0,2,,,,,,,,,,,,,,,0,,,62,17
625440,note_on,0,0,1,,,,,,,,,,,,,,,0,,,79,51
625440,note_on,240,0,2,,,,,,,,,,,,,,,0,,,62,0
625440,note_on,0,0,2,,,,,,,,,,,,,,,0,,,65,0
625440,note_on,0,0,2,,,,,,,,,,,,,,,0,,,69,24
625440,note_on,0,0,2,,,,,,,,,,,,,,,0,,,69,0
625440,note_on,0,0,2,,,,,,,,,,,,,,,0,,,62,17
625440,note_on,0,0,2,,,,,,,,,,,,,,,0,,,65,20
625440,note_on,480,0,1,,,,,,,,,,,,,,,0,,,77,0
625680,note_on,0,0,2,,,,,,,,,,,,,,,0,,,69,0
625680,note_on,0,0,2,,,,,,,,,,,,,,,0,,,69,24
625680,note_on,0,0,2,,,,,,,,,,,,,,,0,,,65,20
625680,note_on,0,0,2,,,,,,,,,,,,,,,0,,,62,17
625680,note_on,240,0,2,,,,,,,,,,,,,,,0,,,62,0
625680,note_on,0,0,2,,,,,,,,,,,,,,,0,,,65,0
625880,set_tempo,920,1,0,,,,,,,,,,,,644676,,,,,,,
625920,note_on,480,0,1,,,,,,,,,,,,,,,0,,,79,0
625920,note_on,0,0,1,,,,,,,,,,,,,,,0,,,81,54
625920,control_change,0,0,2,,,,,,,,,,,,,,,0,64,0,,
625920,note_on,0,0,2,,,,,,,,,,,,,,,0,,,69,24
625920,note_on,0,0,2,,,,,,,,,,,,,,,0,,,65,20
625920,note_on,0,0,2,,,,,,,,,,,,,,,0,,,65,0
625920,note_on,240,0,2,,,,,,,,,,,,,,,0,,,62,0
625920,note_on,0,0,2,,,,,,,,,,,,,,,0,,,62,17
625920,note_on,0,0,2,,,,,,,,,,,,,,,0,,,69,0
625989,control_change,69,0,2,,,,,,,,,,,,,,,0,64,127,,
626160,note_on,171,0,2,,,,,,,,,,,,,,,0,,,62,0
626160,note_on,0,0,2,,,,,,,,,,,,,,,0,,,65,0
626160,note_on,0,0,2,,,,,,,,,,,,,,,0,,,65,20
626160,note_on,0,0,2,,,,,,,,,,,,,,,0,,,69,0
626160,note_on,0,0,2,,,,,,,,,,,,,,,0,,,69,24
626160,note_on,0,0,2,,,,,,,,,,,,,,,0,,,62,17
626377,control_change,217,0,2,,,,,,,,,,,,,,,0,64,0,,
626400,note_on,0,0,2,,,,,,,,,,,,,,,0,,,61,17
626400,note_on,0,0,2,,,,,,,,,,,,,,,0,,,65,21
626400,note_on,0,0,2,,,,,,,,,,,,,,,0,,,69,25
626400,note_on,0,0,2,,,,,,,,,,,,,,,0,,,69,0
626400,note_on,0,0,2,,,,,,,,,,,,,,,0,,,65,0
626400,note_on,23,0,2,,,,,,,,,,,,,,,0,,,62,0
626457,control_change,57,0,2,,,,,,,,,,,,,,,0,64,127,,
626640,note_on,0,0,2,,,,,,,,,,,,,,,0,,,65,0
626640,note_on,0,0,2,,,,,,,,,,,,,,,0,,,65,21
626640,note_on,183,0,2,,,,,,,,,,,,,,,0,,,61,0
626640,note_on,0,0,2,,,,,,,,,,,,,,,0,,,69,0
626640,note_on,0,0,2,,,,,,,,,,,,,,,0,,,69,25
626640,note_on,0,0,2,,,,,,,,,,,,,,,0,,,61,17
626880,note_on,0,0,2,,,,,,,,,,,,,,,0,,,65,21
626880,note_on,0,0,2,,,,,,,,,,,,,,,0,,,60,17
626880,note_on,240,0,2,,,,,,,,,,,,,,,0,,,61,0
626880,note_on,0,0,2,,,,,,,,,,,,,,,0,,,69,0
626880,note_on,0,0,2,,,,,,,,,,,,,,,0,,,69,25
626880,note_on,0,0,2,,,,,,,,,,,,,,,0,,,65,0
626903,control_change,23,0,2,,,,,,,,,,,,,,,0,64,0,,
626971,control_change,68,0,2,,,,,,,,,,,,,,,0,64,127,,
627120,note_on,149,0,2,,,,,,,,,,,,,,,0,,,60,0
627120,note_on,0,0,2,,,,,,,,,,,,,,,0,,,65,0
627120,note_on,0,0,2,,,,,,,,,,,,,,,0,,,69,0
627120,note_on,0,0,2,,,,,,,,,,,,,,,0,,,69,25
627120,note_on,0,0,2,,,,,,,,,,,,,,,0,,,60,17
627120,note_on,0,0,2,,,,,,,,,,,,,,,0,,,65,21
627360,note_on,1440,0,1,,,,,,,,,,,,,,,0,,,81,0
627360,note_on,0,0,2,,,,,,,,,,,,,,,0,,,65,21
627360,note_on,0,0,2,,,,,,,,,,,,,,,0,,,69,0
627360,note_on,240,0,2,,,,,,,,,,,,,,,0,,,60,0
627360,note_on,0,0,2,,,,,,,,,,,,,,,0,,,65,0
627360,set_tempo,1480,1,0,,,,,,,,,,,,630451,,,,,,,
627360,note_on,0,0,1,,,,,,,,,,,,,,,0,,,79,54
627360,note_on,0,0,2,,,,,,,,,,,,,,,0,,,59,17
627360,note_on,0,0,2,,,,,,,,,,,,,,,0,,,69,25
627394,control_change,34,0,2,,,,,,,,,,,,,,,0,64,0,,
627486,control_change,92,0,2,,,,,,,,,,,,,,,0,64,127,,
627600,note_on,114,0,2,,,,,,,,,,,,,,,0,,,59,0
627600,note_on,0,0,2,,,,,,,,,,,,,,,0,,,65,0
627600,note_on,0,0,2,,,,,,,,,,,,,,,0,,,69,0
627600,note_on,0,0,2,,,,,,,,,,,,,,,0,,,69,25
627600,note_on,0,0,2,,,,,,,,,,,,,,,0,,,65,21
627600,note_on,0,0,2,,,,,,,,,,,,,,,0,,,59,17
627600,note_on,240,0,1,,,,,,,,,,,,,,,0,,,79,0
627600,note_on,0,0,1,,,,,,,,,,,,,,,0,,,77,53
627840,note_on,0,0,1,,,,,,,,,,,,,,,0,,,79,54
627840,control_change,0,0,2,,,,,,,,,,,,,,,0,64,0,,
627840,note_on,240,0,1,,,,,,,,,,,,,,,0,,,77,0
627840,note_on,0,0,2,,,,,,,,,,,,,,,0,,,67,25
627840,set_tempo,480,1,0,,,,,,,,,,,,648298,,,,,,,
627840,note_on,0,0,2,,,,,,,,,,,,,,,0,,,58,17
627840,note_on,0,0,2,,,,,,,,,,,,,,,0,,,69,0
627840,note_on,0,0,2,,,,,,,,,,,,,,,0,,,65,0
627840,note_on,0,0,2,,,,,,,,,,,,,,,0,,,65,21
627840,note_on,240,0,2,,,,,,,,,,,,,,,0,,,59,0
627920,control_change,80,0,2,,,,,,,,,,,,,,,0,64,127,,
628080,note_on,160,0,2,,,,,,,,,,,,,,,0,,,67,0
628080,note_on,0,0,2,,,,,,,,,,,,,,,0,,,65,0
628080,note_on,0,0,2,,,,,,,,,,,,,,,0,,,58,0
628080,note_on,0,0,2,,,,,,,,,,,,,,,0,,,58,17
628080,note_on,0,0,2,,,,,,,,,,,,,,,0,,,65,21
628080,note_on,0,0,2,,,,,,,,,,,,,,,0,,,67,25
628320,note_on,0,0,2,,,,,,,,,,,,,,,0,,,65,0
628320,note_on,0,0,2,,,,,,,,,,,,,,,0,,,58,17
628320,note_on,0,0,2,,,,,,,,,,,,,,,0,,,62,21
628320,note_on,0,0,2,,,,,,,,,,,,,,,0,,,67,25
628320,set_tempo,480,1,0,,,,,,,,,,,,641026,,,,,,,
628320,note_on,480,0,1,,,,,,,,,,,,,,,0,,,79,0
628320,note_on,0,0,1,,,,,,,,,,,,,,,0,,,79,54
628320,note_on,0,0,2,,,,,,,,,,,,,,,0,,,58,0
628320,note_on,240,0,2,,,,,,,,,,,,,,,0,,,67,0
628560,note_on,0,0,2,,,,,,,,,,,,,,,0,,,62,0
628560,note_on,0,0,2,,,,,,,,,,,,,,,0,,,67,25
628560,note_on,0,0,2,,,,,,,,,,,,,,,0,,,62,21
628560,note_on,0,0,2,,,,,,,,,,,,,,,0,,,58,17
628560,note_on,0,0,2,,,,,,,,,,,,,,,0,,,58,0
628560,note_on,240,0,2,,,,,,,,,,,,,,,0,,,67,0
628800,note_on,480,0,1,,,,,,,,,,,,,,,0,,,79,0
628800,note_on,0,0,1,,,,,,,,,,,,,,,0,,,79,54
628800,note_on,0,0,2,,,,,,,,,,,,,,,0,,,64,21
628800,note_on,0,0,2,,,,,,,,,,,,,,,0,,,58,17
628800,note_on,0,0,2,,,,,,,,,,,,,,,0,,,58,0
628800,note_on,0,0,2,,,,,,,,,,,,,,,0,,,62,0
628800,note_on,240,0,2,,,,,,,,,,,,,,,0,,,67,0
628800,note_on,0,0,2,,,,,,,,,,,,,,,0,,,67,25
628880,control_change,80,0,2,,,,,,,,,,,,,,,0,64,0,,
628971,control_change,91,0,2,,,,,,,,,,,,,,,0,64,127,,
629040,note_on,0,0,2,,,,,,,,,,,,,,,0,,,67,25
629040,note_on,0,0,2,,,,,,,,,,,,,,,0,,,64,21
629040,note_on,0,0,2,,,,,,,,,,,,,,,0,,,58,17
629040,note_on,0,0,2,,,,,,,,,,,,,,,0,,,58,0
629040,note_on,0,0,2,,,,,,,,,,,,,,,0,,,64,0
629040,note_on,69,0,2,,,,,,,,,,,,,,,0,,,67,0
629280,note_on,0,0,2,,,,,,,,,,,,,,,0,,,67,25
629280,note_on,0,0,2,,,,,,,,,,,,,,,0,,,60,21
629280,note_on,0,0,2,,,,,,,,,,,,,,,0,,,58,17
629280,note_on,0,0,2,,,,,,,,,,,,,,,0,,,58,0
629280,note_on,0,0,2,,,,,,,,,,,,,,,0,,,64,0
629280,note_on,240,0,2,,,,,,,,,,,,,,,0,,,67,0
629280,note_on,480,0,1,,,,,,,,,,,,,,,0,,,79,0
629280,set_tempo,960,1,0,,,,,,,,,,,,648298,,,,,,,
629280,note_on,0,0,1,,,,,,,,,,,,,,,0,,,77,54
629314,control_change,34,0,2,,,,,,,,,,,,,,,0,64,0,,
629394,control_change,80,0,2,,,,,,,,,,,,,,,0,64,127,,
629520,note_on,0,0,1,,,,,,,,,,,,,,,0,,,76,50
629520,note_on,0,0,2,,,,,,,,,,,,,,,0,,,67,25
629520,note_on,0,0,2,,,,,,,,,,,,,,,0,,,60,21
629520,note_on,0,0,2,,,,,,,,,,,,,,,0,,,58,17
629520,note_on,0,0,2,,,,,,,,,,,,,,,0,,,58,0
629520,note_on,0,0,2,,,,,,,,,,,,,,,0,,,60,0
629520,note_on,126,0,2,,,,,,,,,,,,,,,0,,,67,0
629520,note_on,240,0,1,,,,,,,,,,,,,,,0,,,77,0
629760,note_on,0,0,2,,,,,,,,,,,,,,,0,,,65,35
629760,note_on,0,0,2,,,,,,,,,,,,,,,0,,,60,0
629760,note_on,0,0,2,,,,,,,,,,,,,,,0,,,58,0
629760,note_on,0,0,2,,,,,,,,,,,,,,,0,,,57,24
629760,note_on,0,0,2,,,,,,,,,,,,,,,0,,,60,29
629760,note_on,0,0,2,,,,,,,,,,,,,,,0,,,63,35
629760,control_change,0,0,2,,,,,,,,,,,,,,,0,64,0,,
629760,note_on,240,0,2,,,,,,,,,,,,,,,0,,,67,0
629760,note_on,0,0,1,,,,,,,,,,,,,,,0,,,77,66
629760,note_on,240,0,1,,,,,,,,,,,,,,,0,,,76,0
629873,control_change,113,0,2,,,,,,,,,,,,,,,0,64,127,,
630000,note_on,0,0,2,,,,,,,,,,,,,,,0,,,65,27
630000,note_on,0,0,2,,,,,,,,,,,,,,,0,,,63,27
630000,note_on,0,0,2,,,,,,,,,,,,,,,0,,,57,18
630000,note_on,0,0,2,,,,,,,,,,,,,,,0,,,63,0
630000,note_on,0,0,2,,,,,,,,,,,,,,,0,,,60,22
630000,note_on,0,0,2,,,,,,,,,,,,,,,0,,,57,0
630000,note_on,127,0,2,,,,,,,,,,,,,,,0,,,65,0
630000,set_tempo,720,1,0,,,,,,,,,,,,634921,,,,,,,
630000,note_on,0,0,2,,,,,,,,,,,,,,,0,,,60,0
630240,note_on,0,0,2,,,,,,,,,,,,,,,0,,,57,19
630240,note_on,0,0,2,,,,,,,,,,,,,,,0,,,63,27
630240,note_on,240,0,2,,,,,,,,,,,,,,,0,,,65,0
630240,note_on,0,0,2,,,,,,,,,,,,,,,0,,,57,0
630240,note_on,0,0,2,,,,,,,,,,,,,,,0,,,60,0
630240,note_on,0,0,2,,,,,,,,,,,,,,,0,,,63,0
630240,note_on,0,0,2,,,,,,,,,,,,,,,0,,,65,27
630240,note_on,0,0,2,,,,,,,,,,,,,,,0,,,60,23
630480,note_on,0,0,2,,,,,,,,,,,,,,,0,,,57,19
630480,note_on,0,0,2,,,,,,,,,,,,,,,0,,,60,23
630480,note_on,0,0,2,,,,,,,,,,,,,,,0,,,65,27
630480,note_on,0,0,2,,,,,,,,,,,,,,,0,,,63,0
630480,note_on,0,0,2,,,,,,,,,,,,,,,0,,,63,27
630480,note_on,0,0,2,,,,,,,,,,,,,,,0,,,57,0
630480,note_on,240,0,2,,,,,,,,,,,,,,,0,,,65,0
630480,note_on,0,0,2,,,,,,,,,,,,,,,0,,,60,0
630720,note_on,240,0,2,,,,,,,,,,,,,,,0,,,65,0
630720,note_on,0,0,2,,,,,,,,,,,,,,,0,,,57,0
630720,note_on,0,0,2,,,,,,,,,,,,,,,0,,,60,0
630720,note_on,0,0,2,,,,,,,,,,,,,,,0,,,63,0
630720,note_on,0,0,2,,,,,,,,,,,,,,,0,,,57,19
630720,note_on,0,0,2,,,,,,,,,,,,,,,0,,,60,23
630720,note_on,0,0,2,,,,,,,,,,,,,,,0,,,63,27
630720,note_on,0,0,2,,,,,,,,,,,,,,,0,,,65,27
630960,note_on,0,0,2,,,,,,,,,,,,,,,0,,,57,0
630960,note_on,0,0,2,,,,,,,,,,,,,,,0,,,60,0
630960,note_on,0,0,2,,,,,,,,,,,,,,,0,,,63,0
630960,note_on,0,0,2,,,,,,,,,,,,,,,0,,,57,19
630960,note_on,0,0,2,,,,,,,,,,,,,,,0,,,63,27
630960,note_on,0,0,2,,,,,,,,,,,,,,,0,,,65,27
630960,note_on,0,0,2,,,,,,,,,,,,,,,0,,,60,23
630960,note_on,240,0,2,,,,,,,,,,,,,,,0,,,65,0
631200,set_tempo,1200,1,0,,,,,,,,,,,,645161,,,,,,,
631200,note_on,240,0,2,,,,,,,,,,,,,,,0,,,65,0
631200,note_on,0,0,2,,,,,,,,,,,,,,,0,,,57,0
631200,note_on,0,0,2,,,,,,,,,,,,,,,0,,,60,0
631200,note_on,0,0,2,,,,,,,,,,,,,,,0,,,63,0
631200,note_on,0,0,2,,,,,,,,,,,,,,,0,,,57,19
631200,note_on,0,0,2,,,,,,,,,,,,,,,0,,,60,23
631200,note_on,0,0,2,,,,,,,,,,,,,,,0,,,63,27
631200,note_on,0,0,2,,,,,,,,,,,,,,,0,,,65,27
631440,note_on,0,0,2,,,,,,,,,,,,,,,0,,,65,27
631440,note_on,240,0,2,,,,,,,,,,,,,,,0,,,65,0
631440,note_on,0,0,2,,,,,,,,,,,,,,,0,,,57,0
631440,note_on,0,0,2,,,,,,,,,,,,,,,0,,,60,0
631440,note_on,0,0,2,,,,,,,,,,,,,,,0,,,63,0
631440,note_on,0,0,2,,,,,,,,,,,,,,,0,,,57,19
631440,note_on,0,0,2,,,,,,,,,,,,,,,0,,,60,23
631440,note_on,0,0,2,,,,,,,,,,,,,,,0,,,63,27
631680,note_on,0,0,2,,,,,,,,,,,,,,,0,,,57,0
631680,note_on,0,0,2,,,,,,,,,,,,,,,0,,,60,0
631680,note_on,0,0,2,,,,,,,,,,,,,,,0,,,63,0
631680,note_on,0,0,2,,,,,,,,,,,,,,,0,,,57,21
631680,note_on,0,0,2,,,,,,,,,,,,,,,0,,,60,25
631680,note_on,0,0,2,,,,,,,,,,,,,,,0,,,65,30
631680,note_on,0,0,2,,,,,,,,,,,,,,,0,,,63,30
631680,note_on,240,0,2,,,,,,,,,,,,,,,0,,,65,0
631920,note_on,0,0,1,,,,,,,,,,,,,,,0,,,81,50
631920,set_tempo,720,1,0,,,,,,,,,,,,630451,,,,,,,
631920,note_on,2160,0,1,,,,,,,,,,,,,,,0,,,77,0
632008,control_change,328,0,2,,,,,,,,,,,,,,,0,64,0,,
632160,note_on,240,0,1,,,,,,,,,,,,,,,0,,,81,0
632160,note_on,152,0,2,,,,,,,,,,,,,,,0,,,65,0
632160,note_on,0,0,2,,,,,,,,,,,,,,,0,,,60,0
632160,note_on,0,0,2,,,,,,,,,,,,,,,0,,,57,0
632160,note_on,0,0,2,,,,,,,,,,,,,,,0,,,63,0
632160,note_on,0,0,1,,,,,,,,,,,,,,,0,,,79,50
632400,note_on,240,0,1,,,,,,,,,,,,,,,0,,,79,0
632400,note_on,0,0,1,,,,,,,,,,,,,,,0,,,77,48
632640,note_on,0,0,1,,,,,,,,,,,,,,,0,,,84,54
632640,note_on,240,0,1,,,,,,,,,,,,,,,0,,,77,0
632880,note_on,0,0,1,,,,,,,,,,,,,,,0,,,82,50
632880,note_on,240,0,1,,,,,,,,,,,,,,,0,,,84,0
633120,note_on,0,0,1,,,,,,,,,,,,,,,0,,,81,50
633120,note_on,240,0,1,,,,,,,,,,,,,,,0,,,82,0
633360,note_on,240,0,1,,,,,,,,,,,,,,,0,,,81,0
633360,note_on,0,0,1,,,,,,,,,,,,,,,0,,,87,54
633600,note_on,240,0,1,,,,,,,,,,,,,,,0,,,87,0
633600,note_on,0,0,1,,,,,,,,,,,,,,,0,,,86,54
633840,note_on,240,0,1,,,,,,,,,,,,,,,0,,,86,0
633840,note_on,0,0,1,,,,,,,,,,,,,,,0,,,84,50
634080,note_on,0,0,1,,,,,,,,,,,,,,,0,,,91,54
634080,set_tempo,2160,1,0,,,,,,,,,,,,626894,,,,,,,
634080,note_on,240,0,1,,,,,,,,,,,,,,,0,,,84,0
634240,set_tempo,160,1,0,,,,,,,,,,,,630451,,,,,,,
634320,note_on,240,0,1,,,,,,,,,,,,,,,0,,,91,0
634320,note_on,0,0,1,,,,,,,,,,,,,,,0,,,89,52
634400,set_tempo,160,1,0,,,,,,,,,,,,633914,,,,,,,
634520,set_tempo,120,1,0,,,,,,,,,,,,637416,,,,,,,
634560,note_on,0,0,1,,,,,,,,,,,,,,,0,,,87,52
634560,note_on,240,0,1,,,,,,,,,,,,,,,0,,,89,0
634680,set_tempo,160,1,0,,,,,,,,,,,,641026,,,,,,,
634800,note_on,0,0,1,,,,,,,,,,,,,,,0,,,86,51
634800,note_on,240,0,1,,,,,,,,,,,,,,,0,,,87,0
634800,set_tempo,120,1,0,,,,,,,,,,,,644676,,,,,,,
634960,set_tempo,160,1,0,,,,,,,,,,,,648298,,,,,,,
635040,note_on,240,0,1,,,,,,,,,,,,,,,0,,,86,0
635040,note_on,0,0,1,,,,,,,,,,,,,,,0,,,84,54
635080,set_tempo,120,1,0,,,,,,,,,,,,652032,,,,,,,
635280,note_on,240,0,1,,,,,,,,,,,,,,,0,,,84,0
635280,note_on,0,0,1,,,,,,,,,,,,,,,0,,,86,57
635520,set_tempo,440,1,0,,,,,,,,,,,,648298,,,,,,,
635520,note_on,3360,0,2,,,,,,,,,,,,,,,0,,,57,22
635520,note_on,0,0,2,,,,,,,,,,,,,,,0,,,60,26
635520,note_on,0,0,2,,,,,,,,,,,,,,,0,,,63,31
635520,note_on,0,0,2,,,,,,,,,,,,,,,0,,,66,31
635520,control_change,0,0,2,,,,,,,,,,,,,,,0,64,0,,
635520,note_on,0,0,1,,,,,,,,,,,,,,,0,,,87,66
635520,note_on,240,0,1,,,,,,,,,,,,,,,0,,,86,0
635633,control_change,113,0,2,,,,,,,,,,,,,,,0,64,127,,
635760,note_on,0,0,2,,,,,,,,,,,,,,,0,,,60,0
635760,set_tempo,240,1,0,,,,,,,,,,,,631579,,,,,,,
635760,note_on,127,0,2,,,,,,,,,,,,,,,0,,,66,0
635760,note_on,0,0,2,,,,,,,,,,,,,,,0,,,66,24
635760,note_on,0,0,2,,,,,,,,,,,,,,,0,,,57,0
635760,note_on,0,0,2,,,,,,,,,,,,,,,0,,,60,20
635760,note_on,0,0,2,,,,,,,,,,,,,,,0,,,57,17
635760,note_on,0,0,2,,,,,,,,,,,,,,,0,,,63,0
635760,note_on,0,0,2,,,,,,,,,,,,,,,0,,,63,24
636000,note_on,240,0,2,,,,,,,,,,,,,,,0,,,66,0
636000,note_on,0,0,2,,,,,,,,,,,,,,,0,,,57,0
636000,note_on,0,0,2,,,,,,,,,,,,,,,0,,,60,0
636000,note_on,0,0,2,,,,,,,,,,,,,,,0,,,63,0
636000,note_on,0,0,2,,,,,,,,,,,,,,,0,,,57,17
636000,note_on,0,0,2,,,,,,,,,,,,,,,0,,,60,20
636000,note_on,0,0,2,,,,,,,,,,,,,,,0,,,63,24
636000,note_on,0,0,2,,,,,,,,,,,,,,,0,,,66,24
636240,note_on,0,0,2,,,,,,,,,,,,,,,0,,,66,24
636240,note_on,0,0,2,,,,,,,,,,,,,,,0,,,63,24
636240,note_on,0,0,2,,,,,,,,,,,,,,,0,,,60,20
636240,note_on,0,0,2,,,,,,,,,,,,,,,0,,,63,0
636240,note_on,0,0,2,,,,,,,,,,,,,,,0,,,60,0
636240,note_on,240,0,2,,,,,,,,,,,,,,,0,,,66,0
636240,note_on,0,0,2,,,,,,,,,,,,,,,0,,,57,17
636240,note_on,0,0,2,,,,,,,,,,,,,,,0,,,57,0
636480,note_on,240,0,2,,,,,,,,,,,,,,,0,,,66,0
636480,note_on,0,0,2,,,,,,,,,,,,,,,0,,,57,0
636480,note_on,0,0,2,,,,,,,,,,,,,,,0,,,60,0
636480,note_on,0,0,2,,,,,,,,,,,,,,,0,,,63,0
636480,note_on,0,0,2,,,,,,,,,,,,,,,0,,,57,17
636480,note_on,0,0,2,,,,,,,,,,,,,,,0,,,60,20
636480,note_on,0,0,2,,,,,,,,,,,,,,,0,,,66,24
636480,note_on,0,0,2,,,,,,,,,,,,,,,0,,,63,24
636720,note_on,0,0,2,,,,,,,,,,,,,,,0,,,60,20
636720,note_on,0,0,2,,,,,,,,,,,,,,,0,,,66,24
636720,note_on,0,0,2,,,,,,,,,,,,,,,0,,,63,24
636720,note_on,0,0,2,,,,,,,,,,,,,,,0,,,57,17
636720,note_on,0,0,2,,,,,,,,,,,,,,,0,,,60,0
636720,note_on,0,0,2,,,,,,,,,,,,,,,0,,,57,0
636720,note_on,240,0,2,,,,,,,,,,,,,,,0,,,66,0
636720,note_on,0,0,2,,,,,,,,,,,,,,,0,,,63,0
636960,set_tempo,1200,1,0,,,,,,,,,,,,645161,,,,,,,
636960,note_on,0,0,2,,,,,,,,,,,,,,,0,,,60,20
636960,note_on,0,0,2,,,,,,,,,,,,,,,0,,,57,17
636960,note_on,0,0,2,,,,,,,,,,,,,,,0,,,63,0
636960,note_on,0,0,2,,,,,,,,,,,,,,,0,,,60,0
636960,note_on,0,0,2,,,,,,,,,,,,,,,0,,,57,0
636960,note_on,240,0,2,,,,,,,,,,,,,,,0,,,66,0
636960,note_on,0,0,2,,,,,,,,,,,,,,,0,,,63,24
636960,note_on,0,0,2,,,,,,,,,,,,,,,0,,,66,24
637200,note_on,240,0,2,,,,,,,,,,,,,,,0,,,66,0
637200,note_on,0,0,2,,,,,,,,,,,,,,,0,,,57,0
637200,note_on,0,0,2,,,,,,,,,,,,,,,0,,,57,17
637200,note_on,0,0,2,,,,,,,,,,,,,,,0,,,63,0
637200,note_on,0,0,2,,,,,,,,,,,,,,,0,,,60,20
637200,note_on,0,0,2,,,,,,,,,,,,,,,0,,,63,24
637200,note_on,0,0,2,,,,,,,,,,,,,,,0,,,66,24
637200,note_on,0,0,2,,,,,,,,,,,,,,,0,,,60,0
637440,note_on,0,0,2,,,,,,,,,,,,,,,0,,,63,27
637440,note_on,0,0,2,,,,,,,,,,,,,,,0,,,66,27
637440,note_on,0,0,2,,,,,,,,,,,,,,,0,,,60,22
637440,note_on,0,0,2,,,,,,,,,,,,,,,0,,,63,0
637440,note_on,0,0,2,,,,,,,,,,,,,,,0,,,60,0
637440,note_on,0,0,2,,,,,,,,,,,,,,,0,,,57,0
637440,note_on,240,0,2,,,,,,,,,,,,,,,0,,,66,0
637440,note_on,0,0,2,,,,,,,,,,,,,,,0,,,57,18
637680,note_on,2160,0,1,,,,,,,,,,,,,,,0,,,87,0
637680,note_on,0,0,1,,,,,,,,,,,,,,,0,,,84,53
637680,set_tempo,720,1,0,,,,,,,,,,,,637416,,,,,,,
637768,control_change,328,0,2,,,,,,,,,,,,,,,0,64,0,,
637920,note_on,0,0,1,,,,,,,,,,,,,,,0,,,90,58
637920,note_on,0,0,2,,,,,,,,,,,,,,,0,,,63,0
637920,note_on,0,0,2,,,,,,,,,,,,,,,0,,,60,0
637920,note_on,0,0,2,,,,,,,,,,,,,,,0,,,57,0
637920,note_on,240,0,1,,,,,,,,,,,,,,,0,,,84,0
637920,note_on,152,0,2,,,,,,,,,,,,,,,0,,,66,0
638160,note_on,240,0,1,,,,,,,,,,,,,,,0,,,90,0
638160,note_on,0,0,1,,,,,,,,,,,,,,,0,,,89,54
638400,note_on,240,0,1,,,,,,,,,,,,,,,0,,,89,0
638400,note_on,0,0,1,,,,,,,,,,,,,,,0,,,87,56
638400,set_tempo,720,1,0,,,,,,,,,,,,648298,,,,,,,
638640,note_on,240,0,1,,,,,,,,,,,,,,,0,,,87,0
638640,note_on,0,0,1,,,,,,,,,,,,,,,0,,,86,51
638880,set_tempo,480,1,0,,,,,,,,,,,,667260,,,,,,,
638880,note_on,240,0,1,,,,,,,,,,,,,,,0,,,86,0
638880,note_on,0,0,1,,,,,,,,,,,,,,,0,,,84,51
639120,note_on,0,0,1,,,,,,,,,,,,,,,0,,,86,51
639120,note_on,240,0,1,,,,,,,,,,,,,,,0,,,84,0
639360,note_on,240,0,1,,,,,,,,,,,,,,,0,,,86,0
639360,control_change,0,0,2,,,,,,,,,,,,,,,0,64,0,,
639360,note_on,0,0,2,,,,,,,,,,,,,,,0,,,60,21
639360,set_tempo,480,1,0,,,,,,,,,,,,655738,,,,,,,
639360,note_on,0,0,2,,,,,,,,,,,,,,,0,,,65,25
639360,note_on,0,0,2,,,,,,,,,,,,,,,0,,,63,21
639360,note_on,1440,0,2,,,,,,,,,,,,,,,0,,,57,17
639360,note_on,0,0,1,,,,,,,,,,,,,,,0,,,87,53
639473,control_change,113,0,2,,,,,,,,,,,,,,,0,64,127,,
639600,note_on,0,0,2,,,,,,,,,,,,,,,0,,,65,25
639600,note_on,0,0,2,,,,,,,,,,,,,,,0,,,57,17
639600,note_on,0,0,2,,,,,,,,,,,,,,,0,,,60,21
639600,note_on,0,0,2,,,,,,,,,,,,,,,0,,,63,25
639600,note_on,0,0,2,,,,,,,,,,,,,,,0,,,60,0
639600,note_on,0,0,2,,,,,,,,,,,,,,,0,,,57,0
639600,note_on,127,0,2,,,,,,,,,,,,,,,0,,,65,0
639600,set_tempo,240,1,0,,,,,,,,,,,,645161,,,,,,,
639600,note_on,0,0,2,,,,,,,,,,,,,,,0,,,63,0
639840,note_on,240,0,2,,,,,,,,,,,,,,,0,,,65,0
639840,note_on,0,0,2,,,,,,,,,,,,,,,0,,,57,0
639840,note_on,0,0,2,,,,,,,,,,,,,,,0,,,60,0
639840,note_on,0,0,2,,,,,,,,,,,,,,,0,,,63,0
639840,note_on,0,0,2,,,,,,,,,,,,,,,0,,,57,18
639840,note_on,0,0,2,,,,,,,,,,,,,,,0,,,60,22
639840,note_on,0,0,2,,,,,,,,,,,,,,,0,,,63,26
639840,note_on,0,0,2,,,,,,,,,,,,,,,0,,,65,26
640080,note_on,0,0,2,,,,,,,,,,,,,,,0,,,65,26
640080,note_on,0,0,2,,,,,,,,,,,,,,,0,,,60,22
640080,note_on,0,0,2,,,,,,,,,,,,,,,0,,,57,18
640080,note_on,0,0,2,,,,,,,,,,,,,,,0,,,63,26
640080,note_on,0,0,2,,,,,,,,,,,,,,,0,,,60,0
640080,note_on,0,0,2,,,,,,,,,,,,,,,0,,,57,0
640080,note_on,240,0,2,,,,,,,,,,,,,,,0,,,65,0
640080,note_on,0,0,2,,,,,,,,,,,,,,,0,,,63,0
640320,note_on,0,0,2,,,,,,,,,,,,,,,0,,,65,26
640320,note_on,0,0,2,,,,,,,,,,,,,,,0,,,60,22
640320,note_on,0,0,2,,,,,,,,,,,,,,,0,,,57,18
640320,note_on,0,0,2,,,,,,,,,,,,,,,0,,,63,26
640320,note_on,0,0,2,,,,,,,,,,,,,,,0,,,60,0
640320,note_on,0,0,2,,,,,,,,,,,,,,,0,,,57,0
640320,note_on,240,0,2,,,,,,,,,,,,,,,0,,,65,0
640320,note_on,0,0,2,,,,,,,,,,,,,,,0,,,63,0
640560,note_on,0,0,2,,,,,,,,,,,,,,,0,,,65,26
640560,note_on,240,0,2,,,,,,,,,,,,,,,0,,,65,0
640560,note_on,0,0,2,,,,,,,,,,,,,,,0,,,57,0
640560,note_on,0,0,2,,,,,,,,,,,,,,,0,,,60,0
640560,note_on,0,0,2,,,,,,,,,,,,,,,0,,,63,0
640560,note_on,0,0,2,,,,,,,,,,,,,,,0,,,57,18
640560,note_on,0,0,2,,,,,,,,,,,,,,,0,,,60,22
640560,note_on,0,0,2,,,,,,,,,,,,,,,0,,,63,26
640800,note_on,0,0,2,,,,,,,,,,,,,,,0,,,63,0
640800,note_on,0,0,2,,,,,,,,,,,,,,,0,,,60,0
640800,note_on,0,0,2,,,,,,,,,,,,,,,0,,,65,26
640800,note_on,240,0,2,,,,,,,,,,,,,,,0,,,65,0
640800,note_on,0,0,2,,,,,,,,,,,,,,,0,,,57,18
640800,note_on,0,0,2,,,,,,,,,,,,,,,0,,,57,0
640800,note_on,0,0,2,,,,,,,,,,,,,,,0,,,60,22
640800,note_on,0,0,2,,,,,,,,,,,,,,,0,,,63,26
640800,set_tempo,1200,1,0,,,,,,,,,,,,655738,,,,,,,
641040,note_on,240,0,2,,,,,,,,,,,,,,,0,,,65,0
641040,note_on,0,0,2,,,,,,,,,,,,,,,0,,,63,0
641040,note_on,0,0,2,,,,,,,,,,,,,,,0,,,57,18
641040,note_on,0,0,2,,,,,,,,,,,,,,,0,,,60,22
641040,note_on,0,0,2,,,,,,,,,,,,,,,0,,,63,26
641040,note_on,0,0,2,,,,,,,,,,,,,,,0,,,65,26
641040,note_on,0,0,2,,,,,,,,,,,,,,,0,,,60,0
641040,note_on,0,0,2,,,,,,,,,,,,,,,0,,,57,0
641280,note_on,0,0,2,,,,,,,,,,,,,,,0,,,63,0
641280,note_on,0,0,2,,,,,,,,,,,,,,,0,,,57,0
641280,note_on,240,0,2,,,,,,,,,,,,,,,0,,,65,0
641280,note_on,0,0,2,,,,,,,,,,,,,,,0,,,57,22
641280,note_on,0,0,2,,,,,,,,,,,,,,,0,,,60,22
641280,note_on,0,0,2,,,,,,,,,,,,,,,0,,,63,27
641280,note_on,0,0,2,,,,,,,,,,,,,,,0,,,65,27
641280,note_on,0,0,2,,,,,,,,,,,,,,,0,,,60,0
641520,note_on,0,0,1,,,,,,,,,,,,,,,0,,,84,53
641520,set_tempo,720,1,0,,,,,,,,,,,,644676,,,,,,,
641520,note_on,2160,0,1,,,,,,,,,,,,,,,0,,,87,0
641626,control_change,346,0,2,,,,,,,,,,,,,,,0,64,0,,
641760,note_on,0,0,2,,,,,,,,,,,,,,,0,,,57,0
641760,note_on,0,0,2,,,,,,,,,,,,,,,0,,,60,0
641760,note_on,0,0,2,,,,,,,,,,,,,,,0,,,63,0
641760,note_on,240,0,1,,,,,,,,,,,,,,,0,,,84,0
641760,note_on,0,0,1,,,,,,,,,,,,,,,0,,,91,56
641760,note_on,134,0,2,,,,,,,,,,,,,,,0,,,65,0
641880,note_on,120,0,1,,,,,,,,,,,,,,,0,,,91,0
642000,note_on,120,0,1,,,,,,,,,,,,,,,0,,,89,53
642120,note_on,120,0,1,,,,,,,,,,,,,,,0,,,89,0
642240,note_on,120,0,1,,,,,,,,,,,,,,,0,,,87,53
642360,note_on,120,0,1,,,,,,,,,,,,,,,0,,,87,0
642480,note_on,120,0,1,,,,,,,,,,,,,,,0,,,86,51
642600,note_on,120,0,1,,,,,,,,,,,,,,,0,,,86,0
642720,note_on,120,0,1,,,,,,,,,,,,,,,0,,,84,53
642840,note_on,120,0,1,,,,,,,,,,,,,,,0,,,84,0
642960,note_on,120,0,1,,,,,,,,,,,,,,,0,,,82,52
643080,note_on,120,0,1,,,,,,,,,,,,,,,0,,,82,0
643200,note_on,120,0,1,,,,,,,,,,,,,,,0,,,81,53
643320,note_on,120,0,1,,,,,,,,,,,,,,,0,,,81,0
643440,note_on,120,0,1,,,,,,,,,,,,,,,0,,,79,49
643560,note_on,120,0,1,,,,,,,,,,,,,,,0,,,79,0
643680,note_on,120,0,1,,,,,,,,,,,,,,,0,,,77,53
643800,note_on,120,0,1,,,,,,,,,,,,,,,0,,,77,0
643920,note_on,120,0,1,,,,,,,,,,,,,,,0,,,76,49
644040,note_on,120,0,1,,,,,,,,,,,,,,,0,,,76,0
644160,note_on,120,0,1,,,,,,,,,,,,,,,0,,,75,44
644171,control_change,2411,0,2,,,,,,,,,,,,,,,0,64,127,,
644320,note_on,0,0,1,,,,,,,,,,,,,,,0,,,74,44
644320,note_on,160,0,1,,,,,,,,,,,,,,,0,,,75,0
644480,note_on,0,0,1,,,,,,,,,,,,,,,0,,,72,43
644480,note_on,160,0,1,,,,,,,,,,,,,,,0,,,74,0
644640,note_on,160,0,1,,,,,,,,,,,,,,,0,,,72,0
644640,note_on,0,0,1,,,,,,,,,,,,,,,0,,,70,42
644663,control_change,492,0,2,,,,,,,,,,,,,,,0,64,0,,
644709,control_change,46,0,2,,,,,,,,,,,,,,,0,64,127,,
644800,note_on,160,0,1,,,,,,,,,,,,,,,0,,,70,0
644800,note_on,0,0,1,,,,,,,,,,,,,,,0,,,69,42
644960,note_on,0,0,1,,,,,,,,,,,,,,,0,,,67,41
644960,note_on,160,0,1,,,,,,,,,,,,,,,0,,,69,0
645120,control_change,411,0,2,,,,,,,,,,,,,,,0,64,0,,
645120,note_on,160,0,1,,,,,,,,,,,,,,,0,,,67,0
645120,note_on,0,0,1,,,,,,,,,,,,,,,0,,,65,40
645148,control_change,28,0,2,,,,,,,,,,,,,,,0,64,127,,
645280,note_on,0,0,1,,,,,,,,,,,,,,,0,,,64,40
645280,note_on,160,0,1,,,,,,,,,,,,,,,0,,,65,0
645440,note_on,160,0,1,,,,,,,,,,,,,,,0,,,64,0
645440,note_on,0,0,1,,,,,,,,,,,,,,,0,,,63,39
645600,note_on,160,0,1,,,,,,,,,,,,,,,0,,,63,0
645600,note_on,0,0,1,,,,,,,,,,,,,,,0,,,62,38
645607,control_change,459,0,2,,,,,,,,,,,,,,,0,64,0,,
645649,control_change,42,0,2,,,,,,,,,,,,,,,0,64,127,,
645760,note_on,160,0,1,,,,,,,,,,,,,,,0,,,62,0
645760,note_on,0,0,1,,,,,,,,,,,,,,,0,,,61,38
645920,note_on,160,0,1,,,,,,,,,,,,,,,0,,,61,0
645920,note_on,0,0,1,,,,,,,,,,,,,,,0,,,60,37
646048,set_tempo,4528,1,0,,,,,,,,,,,,652032,,,,,,,
646080,note_on,160,0,1,,,,,,,,,,,,,,,0,,,60,0
646080,note_on,431,0,2,,,,,,,,,,,,,,,0,,,59,33
646084,control_change,4,0,2,,,,,,,,,,,,,,,0,64,0,,
646108,control_change,24,0,2,,,,,,,,,,,,,,,0,64,127,,
646240,note_on,132,0,2,,,,,,,,,,,,,,,0,,,59,0
646240,note_on,0,0,2,,,,,,,,,,,,,,,0,,,58,32
646400,note_on,160,0,2,,,,,,,,,,,,,,,0,,,58,0
646400,note_on,0,0,2,,,,,,,,,,,,,,,0,,,57,31
646488,set_tempo,440,1,0,,,,,,,,,,,,655738,,,,,,,
646560,note_on,160,0,2,,,,,,,,,,,,,,,0,,,57,0
646560,note_on,0,0,2,,,,,,,,,,,,,,,0,,,56,30
646581,control_change,21,0,2,,,,,,,,,,,,,,,0,64,0,,
646620,control_change,39,0,2,,,,,,,,,,,,,,,0,64,127,,
646720,note_on,100,0,2,,,,,,,,,,,,,,,0,,,56,0
646720,note_on,0,0,2,,,,,,,,,,,,,,,0,,,55,29
646880,note_on,160,0,2,,,,,,,,,,,,,,,0,,,55,0
646880,note_on,0,0,2,,,,,,,,,,,,,,,0,,,54,27
646928,set_tempo,440,1,0,,,,,,,,,,,,659631,,,,,,,
647015,control_change,135,0,2,,,,,,,,,,,,,,,0,64,0,,
647040,note_on,25,0,2,,,,,,,,,,,,,,,0,,,54,0
647040,note_on,0,0,2,,,,,,,,,,,,,,,0,,,56,22
647040,set_tempo,112,1,0,,,,,,,,,,,,736196,,,,,,,
647080,set_tempo,40,1,0,,,,,,,,,,,,740924,,,,,,,
647100,note_on,60,0,2,,,,,,,,,,,,,,,0,,,54,19
647130,note_on,30,0,2,,,,,,,,,,,,,,,0,,,56,0
647160,note_on,30,0,2,,,,,,,,,,,,,,,0,,,56,20
647190,note_on,30,0,2,,,,,,,,,,,,,,,0,,,54,0
647200,set_tempo,120,1,0,,,,,,,,,,,,736196,,,,,,,
647220,note_on,30,0,2,,,,,,,,,,,,,,,0,,,54,18
647250,note_on,30,0,2,,,,,,,,,,,,,,,0,,,56,0
647280,note_on,30,0,2,,,,,,,,,,,,,,,0,,,56,20
647310,note_on,30,0,2,,,,,,,,,,,,,,,0,,,54,0
647320,set_tempo,120,1,0,,,,,,,,,,,,731440,,,,,,,
647340,note_on,30,0,2,,,,,,,,,,,,,,,0,,,54,18
647370,note_on,30,0,2,,,,,,,,,,,,,,,0,,,56,0
647400,note_on,30,0,2,,,,,,,,,,,,,,,0,,,56,21
647430,note_on,30,0,2,,,,,,,,,,,,,,,0,,,54,0
647440,set_tempo,120,1,0,,,,,,,,,,,,726744,,,,,,,
647460,note_on,30,0,2,,,,,,,,,,,,,,,0,,,54,20
647490,note_on,30,0,2,,,,,,,,,,,,,,,0,,,56,0
647520,note_on,30,0,2,,,,,,,,,,,,,,,0,,,56,22
647520,set_tempo,80,1,0,,,,,,,,,,,,717618,,,,,,,
647544,set_tempo,24,1,0,,,,,,,,,,,,713182,,,,,,,
647550,note_on,30,0,2,,,,,,,,,,,,,,,0,,,54,0
647580,note_on,30,0,2,,,,,,,,,,,,,,,0,,,54,19
647584,set_tempo,40,1,0,,,,,,,,,,,,708717,,,,,,,
647610,note_on,30,0,2,,,,,,,,,,,,,,,0,,,56,0
647612,set_tempo,28,1,0,,,,,,,,,,,,704308,,,,,,,
647624,set_tempo,12,1,0,,,,,,,,,,,,722195,,,,,,,
647640,note_on,30,0,2,,,,,,,,,,,,,,,0,,,56,22
647640,set_tempo,16,1,0,,,,,,,,,,,,717618,,,,,,,
647652,set_tempo,12,1,0,,,,,,,,,,,,713182,,,,,,,
647664,set_tempo,12,1,0,,,,,,,,,,,,708717,,,,,,,
647670,note_on,30,0,2,,,,,,,,,,,,,,,0,,,54,0
647680,set_tempo,16,1,0,,,,,,,,,,,,704308,,,,,,,
647692,set_tempo,12,1,0,,,,,,,,,,,,700035,,,,,,,
647700,note_on,30,0,2,,,,,,,,,,,,,,,0,,,54,18
647720,set_tempo,28,1,0,,,,,,,,,,,,708717,,,,,,,
647730,note_on,30,0,2,,,,,,,,,,,,,,,0,,,56,0
647732,set_tempo,12,1,0,,,,,,,,,,,,722195,,,,,,,
647760,note_on,30,0,2,,,,,,,,,,,,,,,0,,,56,21
647760,set_tempo,28,1,0,,,,,,,,,,,,717618,,,,,,,
647784,set_tempo,24,1,0,,,,,,,,,,,,713182,,,,,,,
647790,note_on,30,0,2,,,,,,,,,,,,,,,0,,,54,0
647800,set_tempo,16,1,0,,,,,,,,,,,,704308,,,,,,,
647812,set_tempo,12,1,0,,,,,,,,,,,,695814,,,,,,,
647820,note_on,30,0,2,,,,,,,,,,,,,,,0,,,54,19
647840,set_tempo,28,1,0,,,,,,,,,,,,704308,,,,,,,
647850,note_on,30,0,2,,,,,,,,,,,,,,,0,,,56,0
647852,set_tempo,12,1,0,,,,,,,,,,,,713182,,,,,,,
647864,set_tempo,12,1,0,,,,,,,,,,,,717618,,,,,,,
647880,note_on,30,0,2,,,,,,,,,,,,,,,0,,,56,20
647880,set_tempo,16,1,0,,,,,,,,,,,,722195,,,,,,,
647910,note_on,30,0,2,,,,,,,,,,,,,,,0,,,54,0
647932,set_tempo,52,1,0,,,,,,,,,,,,717618,,,,,,,
647940,note_on,30,0,2,,,,,,,,,,,,,,,0,,,54,18
647944,set_tempo,12,1,0,,,,,,,,,,,,713182,,,,,,,
647960,set_tempo,16,1,0,,,,,,,,,,,,708717,,,,,,,
647970,note_on,30,0,2,,,,,,,,,,,,,,,0,,,56,0
647972,set_tempo,12,1,0,,,,,,,,,,,,700035,,,,,,,
648000,note_on,30,0,2,,,,,,,,,,,,,,,0,,,56,22
648000,set_tempo,28,1,0,,,,,,,,,,,,704308,,,,,,,
648012,set_tempo,12,1,0,,,,,,,,,,,,717618,,,,,,,
648024,set_tempo,12,1,0,,,,,,,,,,,,731440,,,,,,,
648030,note_on,30,0,2,,,,,,,,,,,,,,,0,,,54,0
648060,note_on,30,0,2,,,,,,,,,,,,,,,0,,,54,19
648064,set_tempo,40,1,0,,,,,,,,,,,,722195,,,,,,,
648080,set_tempo,16,1,0,,,,,,,,,,,,713182,,,,,,,
648090,note_on,30,0,2,,,,,,,,,,,,,,,0,,,56,0
648092,set_tempo,12,1,0,,,,,,,,,,,,708717,,,,,,,
648104,set_tempo,12,1,0,,,,,,,,,,,,704308,,,,,,,
648120,note_on,30,0,2,,,,,,,,,,,,,,,0,,,56,21
648120,set_tempo,16,1,0,,,,,,,,,,,,700035,,,,,,,
648144,set_tempo,24,1,0,,,,,,,,,,,,695814,,,,,,,
648150,note_on,30,0,2,,,,,,,,,,,,,,,0,,,54,0
648172,set_tempo,28,1,0,,,,,,,,,,,,704308,,,,,,,
648180,note_on,30,0,2,,,,,,,,,,,,,,,0,,,54,19
648184,set_tempo,12,1,0,,,,,,,,,,,,708717,,,,,,,
648200,set_tempo,16,1,0,,,,,,,,,,,,713182,,,,,,,
648210,note_on,30,0,2,,,,,,,,,,,,,,,0,,,56,0
648212,set_tempo,12,1,0,,,,,,,,,,,,717618,,,,,,,
648224,set_tempo,12,1,0,,,,,,,,,,,,726744,,,,,,,
648240,note_on,30,0,2,,,,,,,,,,,,,,,0,,,56,21
648240,set_tempo,16,1,0,,,,,,,,,,,,722195,,,,,,,
648264,set_tempo,24,1,0,,,,,,,,,,,,713182,,,,,,,
648270,note_on,30,0,2,,,,,,,,,,,,,,,0,,,54,0
648280,set_tempo,16,1,0,,,,,,,,,,,,704308,,,,,,,
648292,set_tempo,12,1,0,,,,,,,,,,,,700035,,,,,,,
648300,note_on,30,0,2,,,,,,,,,,,,,,,0,,,54,18
648304,set_tempo,12,1,0,,,,,,,,,,,,695814,,,,,,,
648320,set_tempo,16,1,0,,,,,,,,,,,,700035,,,,,,,
648330,note_on,30,0,2,,,,,,,,,,,,,,,0,,,56,0
648332,set_tempo,12,1,0,,,,,,,,,,,,713182,,,,,,,
648344,set_tempo,12,1,0,,,,,,,,,,,,722195,,,,,,,
648360,note_on,30,0,2,,,,,,,,,,,,,,,0,,,56,21
648360,set_tempo,16,1,0,,,,,,,,,,,,726744,,,,,,,
648390,note_on,30,0,2,,,,,,,,,,,,,,,0,,,54,0
648400,set_tempo,40,1,0,,,,,,,,,,,,722195,,,,,,,
648412,set_tempo,12,1,0,,,,,,,,,,,,717618,,,,,,,
648420,note_on,30,0,2,,,,,,,,,,,,,,,0,,,54,18
648424,set_tempo,12,1,0,,,,,,,,,,,,713182,,,,,,,
648440,set_tempo,16,1,0,,,,,,,,,,,,704308,,,,,,,
648450,note_on,30,0,2,,,,,,,,,,,,,,,0,,,56,0
648452,set_tempo,12,1,0,,,,,,,,,,,,700035,,,,,,,
648464,set_tempo,12,1,0,,,,,,,,,,,,708717,,,,,,,
648480,note_on,30,0,2,,,,,,,,,,,,,,,0,,,56,22
648504,set_tempo,40,1,0,,,,,,,,,,,,713182,,,,,,,
648510,note_on,30,0,2,,,,,,,,,,,,,,,0,,,54,0
648532,set_tempo,28,1,0,,,,,,,,,,,,717618,,,,,,,
648540,note_on,30,0,2,,,,,,,,,,,,,,,0,,,54,19
648560,set_tempo,28,1,0,,,,,,,,,,,,722195,,,,,,,
648570,note_on,30,0,2,,,,,,,,,,,,,,,0,,,56,0
648584,set_tempo,24,1,0,,,,,,,,,,,,726744,,,,,,,
648600,note_on,30,0,2,,,,,,,,,,,,,,,0,,,56,22
648612,set_tempo,28,1,0,,,,,,,,,,,,731440,,,,,,,
648630,note_on,30,0,2,,,,,,,,,,,,,,,0,,,54,0
648640,set_tempo,28,1,0,,,,,,,,,,,,736196,,,,,,,
648660,note_on,30,0,2,,,,,,,,,,,,,,,0,,,54,18
648664,set_tempo,24,1,0,,,,,,,,,,,,740924,,,,,,,
648690,note_on,30,0,2,,,,,,,,,,,,,,,0,,,56,0
648692,set_tempo,28,1,0,,,,,,,,,,,,745712,,,,,,,
648720,note_on,30,0,2,,,,,,,,,,,,,,,0,,,53,20
648720,set_tempo,28,1,0,,,,,,,,,,,,750751,,,,,,,
648750,note_on,30,0,2,,,,,,,,,,,,,,,0,,,54,0
648840,note_on,90,0,2,,,,,,,,,,,,,,,0,,,54,23
648860,note_on,20,0,2,,,,,,,,,,,,,,,0,,,53,0
648960,note_on,100,0,2,,,,,,,,,,,,,,,0,,,53,25
648960,set_tempo,240,1,0,,,,,,,,,,,,713182,,,,,,,
648980,note_on,20,0,2,,,,,,,,,,,,,,,0,,,54,0
649080,note_on,100,0,2,,,,,,,,,,,,,,,0,,,53,0
650640,note_on,1560,0,2,,,,,,,,,,,,,,,0,,,29,27
650640,set_tempo,1680,1,0,,,,,,,,,,,,771010,,,,,,,
650720,note_on,80,0,2,,,,,,,,,,,,,,,0,,,30,22
650740,note_on,20,0,2,,,,,,,,,,,,,,,0,,,29,0
650800,note_on,60,0,2,,,,,,,,,,,,,,,0,,,32,22
650820,note_on,20,0,2,,,,,,,,,,,,,,,0,,,30,0
650880,set_tempo,240,1,0,,,,,,,,,,,,803536,,,,,,,
650880,note_on,60,0,2,,,,,,,,,,,,,,,0,,,30,27
650892,set_tempo,12,1,0,,,,,,,,,,,,771010,,,,,,,
650900,note_on,20,0,2,,,,,,,,,,,,,,,0,,,32,0
650932,set_tempo,40,1,0,,,,,,,,,,,,765795,,,,,,,
650940,note_on,40,0,2,,,,,,,,,,,,,,,0,,,32,23
650970,note_on,30,0,2,,,,,,,,,,,,,,,0,,,30,0
650972,set_tempo,40,1,0,,,,,,,,,,,,760649,,,,,,,
651000,note_on,30,0,2,,,,,,,,,,,,,,,0,,,30,24
651012,set_tempo,40,1,0,,,,,,,,,,,,755668,,,,,,,
651030,note_on,30,0,2,,,,,,,,,,,,,,,0,,,32,0
651040,set_tempo,28,1,0,,,,,,,,,,,,750751,,,,,,,
651060,note_on,30,0,2,,,,,,,,,,,,,,,0,,,32,22
651080,set_tempo,40,1,0,,,,,,,,,,,,745712,,,,,,,
651090,note_on,30,0,2,,,,,,,,,,,,,,,0,,,30,0
651120,set_tempo,40,1,0,,,,,,,,,,,,740924,,,,,,,
651120,note_on,30,0,2,,,,,,,,,,,,,,,0,,,30,24
651150,note_on,30,0,2,,,,,,,,,,,,,,,0,,,32,0
651160,set_tempo,40,1,0,,,,,,,,,,,,736196,,,,,,,
651180,note_on,30,0,2,,,,,,,,,,,,,,,0,,,32,22
651184,set_tempo,24,1,0,,,,,,,,,,,,731440,,,,,,,
651210,note_on,30,0,2,,,,,,,,,,,,,,,0,,,30,0
651224,set_tempo,40,1,0,,,,,,,,,,,,726744,,,,,,,
651240,note_on,30,0,2,,,,,,,,,,,,,,,0,,,30,25
651264,set_tempo,40,1,0,,,,,,,,,,,,722195,,,,,,,
651270,note_on,30,0,2,,,,,,,,,,,,,,,0,,,32,0
651292,set_tempo,28,1,0,,,,,,,,,,,,722195,,,,,,,
651300,note_on,30,0,2,,,,,,,,,,,,,,,0,,,32,24
651304,set_tempo,12,1,0,,,,,,,,,,,,717618,,,,,,,
651320,set_tempo,16,1,0,,,,,,,,,,,,713182,,,,,,,
651330,note_on,30,0,2,,,,,,,,,,,,,,,0,,,30,0
651332,set_tempo,12,1,0,,,,,,,,,,,,708717,,,,,,,
651344,set_tempo,12,1,0,,,,,,,,,,,,704308,,,,,,,
651360,note_on,30,0,2,,,,,,,,,,,,,,,0,,,30,26
651372,set_tempo,28,1,0,,,,,,,,,,,,708717,,,,,,,
651384,set_tempo,12,1,0,,,,,,,,,,,,713182,,,,,,,
651390,note_on,30,0,2,,,,,,,,,,,,,,,0,,,32,0
651400,set_tempo,16,1,0,,,,,,,,,,,,722195,,,,,,,
651412,set_tempo,12,1,0,,,,,,,,,,,,726744,,,,,,,
651420,note_on,30,0,2,,,,,,,,,,,,,,,0,,,32,23
651424,set_tempo,12,1,0,,,,,,,,,,,,722195,,,,,,,
651440,set_tempo,16,1,0,,,,,,,,,,,,713182,,,,,,,
651450,note_on,30,0,2,,,,,,,,,,,,,,,0,,,30,0
651464,set_tempo,24,1,0,,,,,,,,,,,,708717,,,,,,,
651480,set_tempo,16,1,0,,,,,,,,,,,,704308,,,,,,,
651480,note_on,30,0,2,,,,,,,,,,,,,,,0,,,30,26
651510,note_on,30,0,2,,,,,,,,,,,,,,,0,,,32,0
651520,set_tempo,40,1,0,,,,,,,,,,,,700035,,,,,,,
651540,note_on,30,0,2,,,,,,,,,,,,,,,0,,,32,22
651544,set_tempo,24,1,0,,,,,,,,,,,,708717,,,,,,,
651570,note_on,30,0,2,,,,,,,,,,,,,,,0,,,30,0
651572,set_tempo,28,1,0,,,,,,,,,,,,713182,,,,,,,
651584,set_tempo,12,1,0,,,,,,,,,,,,722195,,,,,,,
651600,set_tempo,16,1,0,,,,,,,,,,,,717618,,,,,,,
651600,note_on,30,0,2,,,,,,,,,,,,,,,0,,,30,25
651612,set_tempo,12,1,0,,,,,,,,,,,,708717,,,,,,,
651624,set_tempo,12,1,0,,,,,,,,,,,,704308,,,,,,,
651630,note_on,30,0,2,,,,,,,,,,,,,,,0,,,32,0
651640,set_tempo,16,1,0,,,,,,,,,,,,695814,,,,,,,
651652,set_tempo,12,1,0,,,,,,,,,,,,704308,,,,,,,
651660,note_on,30,0,2,,,,,,,,,,,,,,,0,,,32,23
651664,set_tempo,12,1,0,,,,,,,,,,,,708717,,,,,,,
651680,set_tempo,16,1,0,,,,,,,,,,,,722195,,,,,,,
651690,note_on,30,0,2,,,,,,,,,,,,,,,0,,,30,0
651692,set_tempo,12,1,0,,,,,,,,,,,,726744,,,,,,,
651704,set_tempo,12,1,0,,,,,,,,,,,,731440,,,,,,,
651720,note_on,30,0,2,,,,,,,,,,,,,,,0,,,30,24
651732,set_tempo,28,1,0,,,,,,,,,,,,726744,,,,,,,
651744,set_tempo,12,1,0,,,,,,,,,,,,722195,,,,,,,
651750,note_on,30,0,2,,,,,,,,,,,,,,,0,,,32,0
651760,set_tempo,16,1,0,,,,,,,,,,,,713182,,,,,,,
651780,note_on,30,0,2,,,,,,,,,,,,,,,0,,,32,22
651784,set_tempo,24,1,0,,,,,,,,,,,,708717,,,,,,,
651800,set_tempo,16,1,0,,,,,,,,,,,,700035,,,,,,,
651810,note_on,30,0,2,,,,,,,,,,,,,,,0,,,30,0
651812,set_tempo,12,1,0,,,,,,,,,,,,726744,,,,,,,
651824,set_tempo,12,1,0,,,,,,,,,,,,736196,,,,,,,
651840,set_tempo,16,1,0,,,,,,,,,,,,745712,,,,,,,
651840,note_on,30,0,2,,,,,,,,,,,,,,,0,,,30,26
651852,set_tempo,12,1,0,,,,,,,,,,,,740924,,,,,,,
651864,set_tempo,12,1,0,,,,,,,,,,,,731440,,,,,,,
651870,note_on,30,0,2,,,,,,,,,,,,,,,0,,,32,0
651880,set_tempo,16,1,0,,,,,,,,,,,,726744,,,,,,,
651892,set_tempo,12,1,0,,,,,,,,,,,,713182,,,,,,,
651900,note_on,30,0,2,,,,,,,,,,,,,,,0,,,32,23
651904,set_tempo,12,1,0,,,,,,,,,,,,708717,,,,,,,
651920,set_tempo,16,1,0,,,,,,,,,,,,704308,,,,,,,
651930,note_on,30,0,2,,,,,,,,,,,,,,,0,,,30,0
651944,set_tempo,24,1,0,,,,,,,,,,,,713182,,,,,,,
651960,note_on,30,0,2,,,,,,,,,,,,,,,0,,,30,25
651960,set_tempo,16,1,0,,,,,,,,,,,,717618,,,,,,,
651972,set_tempo,12,1,0,,,,,,,,,,,,722195,,,,,,,
651984,set_tempo,12,1,0,,,,,,,,,,,,726744,,,,,,,
651990,note_on,30,0,2,,,,,,,,,,,,,,,0,,,32,0
652012,set_tempo,28,1,0,,,,,,,,,,,,731440,,,,,,,
652020,note_on,30,0,2,,,,,,,,,,,,,,,0,,,32,23
652024,set_tempo,12,1,0,,,,,,,,,,,,722195,,,,,,,
652050,note_on,30,0,2,,,,,,,,,,,,,,,0,,,30,0
652052,set_tempo,28,1,0,,,,,,,,,,,,717618,,,,,,,
652064,set_tempo,12,1,0,,,,,,,,,,,,708717,,,,,,,
652080,note_on,30,0,2,,,,,,,,,,,,,,,0,,,30,25
652080,set_tempo,16,1,0,,,,,,,,,,,,700035,,,,,,,
652092,set_tempo,12,1,0,,,,,,,,,,,,695814,,,,,,,
652104,set_tempo,12,1,0,,,,,,,,,,,,708717,,,,,,,
652110,note_on,30,0,2,,,,,,,,,,,,,,,0,,,32,0
652140,note_on,30,0,2,,,,,,,,,,,,,,,0,,,32,22
652144,set_tempo,40,1,0,,,,,,,,,,,,713182,,,,,,,
652160,set_tempo,16,1,0,,,,,,,,,,,,717618,,,,,,,
652170,note_on,30,0,2,,,,,,,,,,,,,,,0,,,30,0
652184,set_tempo,24,1,0,,,,,,,,,,,,713182,,,,,,,
652200,note_on,30,0,2,,,,,,,,,,,,,,,0,,,30,25
652212,set_tempo,28,1,0,,,,,,,,,,,,704308,,,,,,,
652224,set_tempo,12,1,0,,,,,,,,,,,,700035,,,,,,,
652230,note_on,30,0,2,,,,,,,,,,,,,,,0,,,32,0
652240,set_tempo,16,1,0,,,,,,,,,,,,695814,,,,,,,
652260,note_on,30,0,2,,,,,,,,,,,,,,,0,,,32,22
652264,set_tempo,24,1,0,,,,,,,,,,,,700035,,,,,,,
652280,set_tempo,16,1,0,,,,,,,,,,,,713182,,,,,,,
652290,note_on,30,0,2,,,,,,,,,,,,,,,0,,,30,0
652292,set_tempo,12,1,0,,,,,,,,,,,,726744,,,,,,,
652304,set_tempo,12,1,0,,,,,,,,,,,,722195,,,,,,,
652320,note_on,30,0,2,,,,,,,,,,,,,,,0,,,30,27
652320,set_tempo,16,1,0,,,,,,,,,,,,713182,,,,,,,
652344,set_tempo,24,1,0,,,,,,,,,,,,726744,,,,,,,
652350,note_on,30,0,2,,,,,,,,,,,,,,,0,,,32,0
652360,set_tempo,16,1,0,,,,,,,,,,,,740924,,,,,,,
652372,set_tempo,12,1,0,,,,,,,,,,,,750751,,,,,,,
652380,note_on,30,0,2,,,,,,,,,,,,,,,0,,,32,23
652384,set_tempo,12,1,0,,,,,,,,,,,,755668,,,,,,,
652410,note_on,30,0,2,,,,,,,,,,,,,,,0,,,30,0
652412,set_tempo,28,1,0,,,,,,,,,,,,745712,,,,,,,
652424,set_tempo,12,1,0,,,,,,,,,,,,731440,,,,,,,
652440,set_tempo,16,1,0,,,,,,,,,,,,722195,,,,,,,
652440,note_on,30,0,2,,,,,,,,,,,,,,,0,,,30,26
652470,note_on,30,0,2,,,,,,,,,,,,,,,0,,,32,0
652500,note_on,30,0,2,,,,,,,,,,,,,,,0,,,32,22
652520,set_tempo,80,1,0,,,,,,,,,,,,771010,,,,,,,
652530,note_on,30,0,2,,,,,,,,,,,,,,,0,,,30,0
652560,note_on,30,0,2,,,,,,,,,,,,,,,0,,,29,22
652560,set_tempo,40,1,0,,,,,,,,,,,,722195,,,,,,,
652590,note_on,30,0,2,,,,,,,,,,,,,,,0,,,32,0
652680,set_tempo,120,1,0,,,,,,,,,,,,863309,,,,,,,
652680,note_on,90,0,2,,,,,,,,,,,,,,,0,,,30,18
652700,note_on,20,0,2,,,,,,,,,,,,,,,0,,,29,0
652800,set_tempo,120,1,0,,,,,,,,,,,,782371,,,,,,,
652800,note_on,100,0,2,,,,,,,,,,,,,,,0,,,29,23
652820,note_on,20,0,2,,,,,,,,,,,,,,,0,,,30,0
652920,note_on,100,0,2,,,,,,,,,,,,,,,0,,,29,0
653280,set_tempo,480,1,0,,,,,,,,,,,,1141118,,,,,,,
654240,note_on,0,0,1,,,,,,,,,,,,,,,0,,,70,43
654240,note_on,8160,0,1,,,,,,,,,,,,,,,0,,,58,32
654240,set_tempo,960,1,0,,,,,,,,,,,,765404,,,,,,,
654240,note_on,1320,0,2,,,,,,,,,,,,,,,0,,,46,24
654240,note_on,0,0,1,,,,,,,,,,,,,,,0,,,65,36
654240,note_on,0,0,2,,,,,,,,,,,,,,,0,,,50,29
654254,control_change,14,0,2,,,,,,,,,,,,,,,0,64,127,,
654480,note_on,226,0,2,,,,,,,,,,,,,,,0,,,50,0
654480,note_on,0,0,2,,,,,,,,,,,,,,,0,,,53,25
654720,note_on,0,0,1,,,,,,,,,,,,,,,0,,,58,33
654720,note_on,0,0,1,,,,,,,,,,,,,,,0,,,58,0
654720,note_on,0,0,1,,,,,,,,,,,,,,,0,,,65,0
654720,note_on,480,0,1,,,,,,,,,,,,,,,0,,,70,0
654720,control_change,0,0,2,,,,,,,,,,,,,,,0,64,0,,
654720,note_on,0,0,2,,,,,,,,,,,,,,,0,,,50,30
654720,note_on,0,0,2,,,,,,,,,,,,,,,0,,,46,25
654720,note_on,0,0,2,,,,,,,,,,,,,,,0,,,46,0
654720,note_on,240,0,2,,,,,,,,,,,,,,,0,,,53,0
654720,note_on,0,0,1,,,,,,,,,,,,,,,0,,,65,37
654720,set_tempo,480,1,0,,,,,,,,,,,,743863,,,,,,,
654720,note_on,0,0,1,,,,,,,,,,,,,,,0,,,70,45
654805,control_change,85,0,2,,,,,,,,,,,,,,,0,64,127,,
654960,note_on,0,0,2,,,,,,,,,,,,,,,0,,,53,25
654960,note_on,155,0,2,,,,,,,,,,,,,,,0,,,50,0
655000,set_tempo,280,1,0,,,,,,,,,,,,765404,,,,,,,
655200,note_on,0,0,1,,,,,,,,,,,,,,,0,,,65,36
655200,control_change,0,0,2,,,,,,,,,,,,,,,0,64,0,,
655200,set_tempo,200,1,0,,,,,,,,,,,,743863,,,,,,,
655200,note_on,0,0,1,,,,,,,,,,,,,,,0,,,65,0
655200,note_on,0,0,1,,,,,,,,,,,,,,,0,,,58,0
655200,note_on,0,0,1,,,,,,,,,,,,,,,0,,,57,27
655200,note_on,480,0,1,,,,,,,,,,,,,,,0,,,70,0
655200,note_on,0,0,1,,,,,,,,,,,,,,,0,,,69,43
655200,note_on,0,0,2,,,,,,,,,,,,,,,0,,,48,27
655200,note_on,0,0,2,,,,,,,,,,,,,,,0,,,46,21
655200,note_on,0,0,2,,,,,,,,,,,,,,,0,,,46,0
655200,note_on,240,0,2,,,,,,,,,,,,,,,0,,,53,0
655285,control_change,85,0,2,,,,,,,,,,,,,,,0,64,127,,
655440,set_tempo,240,1,0,,,,,,,,,,,,771010,,,,,,,
655440,note_on,0,0,2,,,,,,,,,,,,,,,0,,,53,24
655440,note_on,155,0,2,,,,,,,,,,,,,,,0,,,48,0
655600,set_tempo,160,1,0,,,,,,,,,,,,749157,,,,,,,
655680,note_on,0,0,2,,,,,,,,,,,,,,,0,,,46,0
655680,set_tempo,80,1,0,,,,,,,,,,,,765404,,,,,,,
655680,note_on,240,0,2,,,,,,,,,,,,,,,0,,,53,0
655680,note_on,0,0,2,,,,,,,,,,,,,,,0,,,46,25
655680,note_on,0,0,1,,,,,,,,,,,,,,,0,,,70,45
655680,note_on,0,0,2,,,,,,,,,,,,,,,0,,,50,30
655680,note_on,0,0,1,,,,,,,,,,,,,,,0,,,65,37
655680,note_on,0,0,1,,,,,,,,,,,,,,,0,,,58,33
655680,note_on,0,0,1,,,,,,,,,,,,,,,0,,,57,0
655680,note_on,0,0,1,,,,,,,,,,,,,,,0,,,65,0
655680,note_on,480,0,1,,,,,,,,,,,,,,,0,,,69,0
655722,control_change,42,0,2,,,,,,,,,,,,,,,0,64,0,,
655835,control_change,113,0,2,,,,,,,,,,,,,,,0,64,127,,
655920,note_on,0,0,2,,,,,,,,,,,,,,,0,,,53,24
655920,note_on,85,0,2,,,,,,,,,,,,,,,0,,,50,0
655920,set_tempo,240,1,0,,,,,,,,,,,,776699,,,,,,,
656160,note_on,0,0,2,,,,,,,,,,,,,,,0,,,46,0
656160,note_on,0,0,2,,,,,,,,,,,,,,,0,,,46,24
656160,note_on,0,0,2,,,,,,,,,,,,,,,0,,,51,29
656160,note_on,480,0,1,,,,,,,,,,,,,,,0,,,70,0
656160,note_on,0,0,1,,,,,,,,,,,,,,,0,,,65,36
656160,note_on,0,0,1,,,,,,,,,,,,,,,0,,,60,32
656160,note_on,0,0,1,,,,,,,,,,,,,,,0,,,58,0
656160,note_on,0,0,1,,,,,,,,,,,,,,,0,,,65,0
656160,set_tempo,240,1,0,,,,,,,,,,,,749157,,,,,,,
656160,note_on,0,0,1,,,,,,,,,,,,,,,0,,,72,43
656160,note_on,240,0,2,,,,,,,,,,,,,,,0,,,53,0
656188,control_change,28,0,2,,,,,,,,,,,,,,,0,64,0,,
656301,control_change,113,0,2,,,,,,,,,,,,,,,0,64,127,,
656400,note_on,0,0,2,,,,,,,,,,,,,,,0,,,53,23
656400,set_tempo,240,1,0,,,,,,,,,,,,794702,,,,,,,
656400,note_on,99,0,2,,,,,,,,,,,,,,,0,,,51,0
656640,note_on,0,0,1,,,,,,,,,,,,,,,0,,,65,40
656640,control_change,0,0,2,,,,,,,,,,,,,,,0,64,0,,
656640,note_on,0,0,2,,,,,,,,,,,,,,,0,,,46,25
656640,set_tempo,240,1,0,,,,,,,,,,,,743863,,,,,,,
656640,note_on,480,0,1,,,,,,,,,,,,,,,0,,,72,0
656640,note_on,0,0,1,,,,,,,,,,,,,,,0,,,60,0
656640,note_on,0,0,1,,,,,,,,,,,,,,,0,,,62,36
656640,note_on,0,0,2,,,,,,,,,,,,,,,0,,,52,30
656640,note_on,0,0,2,,,,,,,,,,,,,,,0,,,46,0
656640,note_on,240,0,2,,,,,,,,,,,,,,,0,,,53,0
656640,note_on,0,0,1,,,,,,,,,,,,,,,0,,,65,0
656640,note_on,0,0,1,,,,,,,,,,,,,,,0,,,74,47
656743,control_change,103,0,2,,,,,,,,,,,,,,,0,64,127,,
656859,control_change,116,0,2,,,,,,,,,,,,,,,0,64,0,,
656880,set_tempo,240,1,0,,,,,,,,,,,,728332,,,,,,,
656880,note_on,21,0,2,,,,,,,,,,,,,,,0,,,52,0
656880,note_on,0,0,2,,,,,,,,,,,,,,,0,,,53,23
656944,control_change,64,0,2,,,,,,,,,,,,,,,0,64,127,,
657000,note_on,56,0,2,,,,,,,,,,,,,,,0,,,53,0
657120,note_on,120,0,2,,,,,,,,,,,,,,,0,,,53,23
657120,set_tempo,240,1,0,,,,,,,,,,,,728332,,,,,,,
657240,note_on,120,0,2,,,,,,,,,,,,,,,0,,,53,0
657360,note_on,120,0,2,,,,,,,,,,,,,,,0,,,53,23
657480,note_on,120,0,2,,,,,,,,,,,,,,,0,,,53,0
657600,note_on,120,0,2,,,,,,,,,,,,,,,0,,,53,23
657720,note_on,120,0,2,,,,,,,,,,,,,,,0,,,53,0
657840,note_on,120,0,2,,,,,,,,,,,,,,,0,,,53,23
657960,note_on,120,0,2,,,,,,,,,,,,,,,0,,,53,0
658080,note_on,0,0,2,,,,,,,,,,,,,,,0,,,51,29
658080,note_on,0,0,2,,,,,,,,,,,,,,,0,,,46,24
658080,set_tempo,960,1,0,,,,,,,,,,,,733407,,,,,,,
658080,note_on,120,0,2,,,,,,,,,,,,,,,0,,,46,0
658080,note_on,0,0,1,,,,,,,,,,,,,,,0,,,65,37
658080,note_on,0,0,1,,,,,,,,,,,,,,,0,,,65,0
658080,note_on,0,0,1,,,,,,,,,,,,,,,0,,,72,45
658080,note_on,1440,0,1,,,,,,,,,,,,,,,0,,,74,0
658080,note_on,0,0,1,,,,,,,,,,,,,,,0,,,62,0
658080,note_on,0,0,1,,,,,,,,,,,,,,,0,,,60,33
658087,control_change,7,0,2,,,,,,,,,,,,,,,0,64,0,,
658160,control_change,73,0,2,,,,,,,,,,,,,,,0,64,127,,
658320,note_on,160,0,2,,,,,,,,,,,,,,,0,,,51,0
658320,note_on,0,0,2,,,,,,,,,,,,,,,0,,,50,24
658320,note_on,0,0,1,,,,,,,,,,,,,,,0,,,70,41
658320,note_on,0,0,1,,,,,,,,,,,,,,,0,,,58,31
658320,note_on,0,0,1,,,,,,,,,,,,,,,0,,,60,0
658320,note_on,240,0,1,,,,,,,,,,,,,,,0,,,72,0
658320,set_tempo,240,1,0,,,,,,,,,,,,789474,,,,,,,
658560,set_tempo,240,1,0,,,,,,,,,,,,743863,,,,,,,
658560,control_change,0,0,2,,,,,,,,,,,,,,,0,64,0,,
658560,note_on,0,0,2,,,,,,,,,,,,,,,0,,,51,27
658560,note_on,0,0,2,,,,,,,,,,,,,,,0,,,41,23
658560,note_on,0,0,2,,,,,,,,,,,,,,,0,,,46,0
658560,note_on,240,0,2,,,,,,,,,,,,,,,0,,,50,0
658560,note_on,0,0,1,,,,,,,,,,,,,,,0,,,65,35
658560,note_on,0,0,1,,,,,,,,,,,,,,,0,,,60,31
658560,note_on,0,0,1,,,,,,,,,,,,,,,0,,,65,0
658560,note_on,240,0,1,,,,,,,,,,,,,,,0,,,70,0
658560,note_on,0,0,1,,,,,,,,,,,,,,,0,,,72,42
658560,note_on,0,0,1,,,,,,,,,,,,,,,0,,,58,0
658687,control_change,127,0,2,,,,,,,,,,,,,,,0,64,127,,
658800,note_on,0,0,2,,,,,,,,,,,,,,,0,,,53,22
658800,note_on,113,0,2,,,,,,,,,,,,,,,0,,,51,0
658800,set_tempo,240,1,0,,,,,,,,,,,,754527,,,,,,,
659040,note_on,0,0,2,,,,,,,,,,,,,,,0,,,51,26
659040,note_on,0,0,2,,,,,,,,,,,,,,,0,,,41,23
659040,note_on,0,0,2,,,,,,,,,,,,,,,0,,,41,0
659040,note_on,240,0,2,,,,,,,,,,,,,,,0,,,53,0
659040,note_on,0,0,1,,,,,,,,,,,,,,,0,,,72,41
659040,note_on,0,0,1,,,,,,,,,,,,,,,0,,,65,34
659040,note_on,0,0,1,,,,,,,,,,,,,,,0,,,60,30
659040,note_on,0,0,1,,,,,,,,,,,,,,,0,,,60,0
659040,set_tempo,240,1,0,,,,,,,,,,,,743863,,,,,,,
659040,note_on,0,0,1,,,,,,,,,,,,,,,0,,,65,0
659040,note_on,480,0,1,,,,,,,,,,,,,,,0,,,72,0
659280,set_tempo,240,1,0,,,,,,,,,,,,754527,,,,,,,
659280,note_on,240,0,2,,,,,,,,,,,,,,,0,,,51,0
659280,note_on,0,0,2,,,,,,,,,,,,,,,0,,,53,22
659520,note_on,0,0,2,,,,,,,,,,,,,,,0,,,51,26
659520,note_on,0,0,2,,,,,,,,,,,,,,,0,,,41,23
659520,note_on,0,0,2,,,,,,,,,,,,,,,0,,,41,0
659520,note_on,240,0,2,,,,,,,,,,,,,,,0,,,53,0
659520,note_on,480,0,1,,,,,,,,,,,,,,,0,,,72,0
659520,note_on,0,0,1,,,,,,,,,,,,,,,0,,,65,0
659520,note_on,0,0,1,,,,,,,,,,,,,,,0,,,60,0
659520,note_on,0,0,1,,,,,,,,,,,,,,,0,,,60,30
659520,note_on,0,0,1,,,,,,,,,,,,,,,0,,,65,34
659520,note_on,0,0,1,,,,,,,,,,,,,,,0,,,72,41
659560,set_tempo,280,1,0,,,,,,,,,,,,743863,,,,,,,
659760,note_on,0,0,2,,,,,,,,,,,,,,,0,,,53,23
659760,note_on,240,0,2,,,,,,,,,,,,,,,0,,,51,0
659760,set_tempo,200,1,0,,,,,,,,,,,,771010,,,,,,,
660000,note_on,0,0,1,,,,,,,,,,,,,,,0,,,60,0
660000,note_on,0,0,2,,,,,,,,,,,,,,,0,,,41,0
660000,note_on,0,0,2,,,,,,,,,,,,,,,0,,,41,24
660000,note_on,0,0,2,,,,,,,,,,,,,,,0,,,50,29
660000,note_on,0,0,1,,,,,,,,,,,,,,,0,,,65,0
660000,set_tempo,240,1,0,,,,,,,,,,,,743863,,,,,,,
660000,note_on,480,0,1,,,,,,,,,,,,,,,0,,,72,0
660000,note_on,0,0,1,,,,,,,,,,,,,,,0,,,70,45
660000,note_on,0,0,1,,,,,,,,,,,,,,,0,,,65,37
660000,note_on,0,0,1,,,,,,,,,,,,,,,0,,,58,33
660000,note_on,240,0,2,,,,,,,,,,,,,,,0,,,53,0
660014,control_change,14,0,2,,,,,,,,,,,,,,,0,64,0,,
660113,control_change,99,0,2,,,,,,,,,,,,,,,0,64,127,,
660240,note_on,0,0,1,,,,,,,,,,,,,,,0,,,57,27
660240,note_on,0,0,2,,,,,,,,,,,,,,,0,,,48,22
660240,note_on,0,0,1,,,,,,,,,,,,,,,0,,,58,0
660240,note_on,0,0,1,,,,,,,,,,,,,,,0,,,69,40
660240,set_tempo,240,1,0,,,,,,,,,,,,816327,,,,,,,
660240,note_on,240,0,1,,,,,,,,,,,,,,,0,,,70,0
660240,note_on,127,0,2,,,,,,,,,,,,,,,0,,,50,0
660440,set_tempo,200,1,0,,,,,,,,,,,,754527,,,,,,,
660480,note_on,0,0,1,,,,,,,,,,,,,,,0,,,65,46
660480,note_on,0,0,2,,,,,,,,,,,,,,,0,,,46,25
660480,control_change,0,0,2,,,,,,,,,,,,,,,0,64,0,,
660480,note_on,0,0,1,,,,,,,,,,,,,,,0,,,70,46
660480,note_on,0,0,1,,,,,,,,,,,,,,,0,,,58,33
660480,note_on,0,0,1,,,,,,,,,,,,,,,0,,,65,0
660480,note_on,0,0,2,,,,,,,,,,,,,,,0,,,50,30
660480,note_on,240,0,1,,,,,,,,,,,,,,,0,,,69,0
660480,note_on,0,0,2,,,,,,,,,,,,,,,0,,,41,0
660480,note_on,240,0,2,,,,,,,,,,,,,,,0,,,48,0
660480,note_on,0,0,1,,,,,,,,,,,,,,,0,,,57,0
660607,control_change,127,0,2,,,,,,,,,,,,,,,0,64,127,,
660720,note_on,0,0,2,,,,,,,,,,,,,,,0,,,53,27
660720,note_on,113,0,2,,,,,,,,,,,,,,,0,,,50,0
660960,note_on,480,0,1,,,,,,,,,,,,,,,0,,,65,0
660960,note_on,0,0,1,,,,,,,,,,,,,,,0,,,63,37
660960,note_on,0,0,1,,,,,,,,,,,,,,,0,,,67,45
660960,set_tempo,520,1,0,,,,,,,,,,,,754527,,,,,,,
660960,note_on,240,0,2,,,,,,,,,,,,,,,0,,,53,0
660960,note_on,0,0,2,,,,,,,,,,,,,,,0,,,51,29
661031,control_change,71,0,2,,,,,,,,,,,,,,,0,64,0,,
661115,control_change,84,0,2,,,,,,,,,,,,,,,0,64,127,,
661200,note_on,85,0,2,,,,,,,,,,,,,,,0,,,51,0
661200,note_on,0,0,2,,,,,,,,,,,,,,,0,,,55,25
661240,set_tempo,280,1,0,,,,,,,,,,,,782371,,,,,,,
661440,set_tempo,200,1,0,,,,,,,,,,,,759878,,,,,,,
661440,note_on,0,0,1,,,,,,,,,,,,,,,0,,,65,39
661440,note_on,0,0,1,,,,,,,,,,,,,,,0,,,62,32
661440,note_on,0,0,1,,,,,,,,,,,,,,,0,,,63,0
661440,note_on,480,0,1,,,,,,,,,,,,,,,0,,,67,0
661440,note_on,0,0,2,,,,,,,,,,,,,,,0,,,50,26
661440,note_on,240,0,2,,,,,,,,,,,,,,,0,,,55,0
661496,control_change,56,0,2,,,,,,,,,,,,,,,0,64,0,,
661652,control_change,156,0,2,,,,,,,,,,,,,,,0,64,127,,
661680,note_on,28,0,2,,,,,,,,,,,,,,,0,,,50,0
661680,note_on,0,0,2,,,,,,,,,,,,,,,0,,,53,27
661680,set_tempo,240,1,0,,,,,,,,,,,,782371,,,,,,,
661920,note_on,0,0,1,,,,,,,,,,,,,,,0,,,58,0
661920,note_on,0,0,1,,,,,,,,,,,,,,,0,,,70,0
661920,note_on,0,0,1,,,,,,,,,,,,,,,0,,,62,0
661920,note_on,480,0,1,,,,,,,,,,,,,,,0,,,65,0
661920,note_on,0,0,1,,,,,,,,,,,,,,,0,,,70,54
661920,note_on,0,0,2,,,,,,,,,,,,,,,0,,,46,25
661920,note_on,0,0,2,,,,,,,,,,,,,,,0,,,50,35
661920,note_on,0,0,2,,,,,,,,,,,,,,,0,,,46,0
661920,note_on,240,0,2,,,,,,,,,,,,,,,0,,,53,0
661962,control_change,42,0,2,,,,,,,,,,,,,,,0,64,0,,
662019,control_change,57,0,2,,,,,,,,,,,,,,,0,64,127,,
662160,note_on,141,0,2,,,,,,,,,,,,,,,0,,,50,0
662160,set_tempo,480,1,0,,,,,,,,,,,,839161,,,,,,,
662160,note_on,0,0,2,,,,,,,,,,,,,,,0,,,58,30
662400,note_on,0,0,1,,,,,,,,,,,,,,,0,,,70,45
662400,note_on,0,0,1,,,,,,,,,,,,,,,0,,,63,40
662400,note_on,480,0,1,,,,,,,,,,,,,,,0,,,70,0
662400,note_on,240,0,2,,,,,,,,,,,,,,,0,,,58,0
662400,note_on,0,0,2,,,,,,,,,,,,,,,0,,,46,0
662400,note_on,0,0,2,,,,,,,,,,,,,,,0,,,46,27
662400,note_on,0,0,2,,,,,,,,,,,,,,,0,,,55,32
662400,note_on,0,0,1,,,,,,,,,,,,,,,0,,,75,54
662400,set_tempo,240,1,0,,,,,,,,,,,,743863,,,,,,,
662400,control_change,0,0,2,,,,,,,,,,,,,,,0,64,0,,
662514,control_change,114,0,2,,,,,,,,,,,,,,,0,64,127,,
662640,note_on,126,0,2,,,,,,,,,,,,,,,0,,,58,28
662640,set_tempo,240,1,0,,,,,,,,,,,,738643,,,,,,,
662760,note_on,120,0,2,,,,,,,,,,,,,,,0,,,58,0
662880,note_on,120,0,2,,,,,,,,,,,,,,,0,,,58,29
662880,set_tempo,240,1,0,,,,,,,,,,,,728332,,,,,,,
663000,note_on,120,0,2,,,,,,,,,,,,,,,0,,,58,0
663120,note_on,120,0,2,,,,,,,,,,,,,,,0,,,58,27
663240,note_on,120,0,2,,,,,,,,,,,,,,,0,,,58,0
663360,note_on,120,0,2,,,,,,,,,,,,,,,0,,,58,30
663480,note_on,120,0,2,,,,,,,,,,,,,,,0,,,58,0
663600,note_on,120,0,2,,,,,,,,,,,,,,,0,,,58,27
663720,note_on,120,0,2,,,,,,,,,,,,,,,0,,,58,0
663840,note_on,0,0,2,,,,,,,,,,,,,,,0,,,53,29
663840,note_on,0,0,1,,,,,,,,,,,,,,,0,,,63,0
663840,note_on,0,0,2,,,,,,,,,,,,,,,0,,,46,24
663840,note_on,0,0,2,,,,,,,,,,,,,,,0,,,46,0
663840,note_on,120,0,2,,,,,,,,,,,,,,,0,,,55,0
663840,control_change,0,0,2,,,,,,,,,,,,,,,0,64,0,,
663840,note_on,0,0,1,,,,,,,,,,,,,,,0,,,74,49
663840,note_on,0,0,1,,,,,,,,,,,,,,,0,,,70,41
663840,note_on,0,0,1,,,,,,,,,,,,,,,0,,,62,36
663840,note_on,1440,0,1,,,,,,,,,,,,,,,0,,,75,0
663840,note_on,0,0,1,,,,,,,,,,,,,,,0,,,70,0
663954,control_change,114,0,2,,,,,,,,,,,,,,,0,64,127,,
664080,note_on,0,0,1,,,,,,,,,,,,,,,0,,,72,45
664080,note_on,0,0,1,,,,,,,,,,,,,,,0,,,70,37
664080,note_on,0,0,1,,,,,,,,,,,,,,,0,,,60,33
664080,note_on,0,0,1,,,,,,,,,,,,,,,0,,,62,0
664080,note_on,240,0,1,,,,,,,,,,,,,,,0,,,74,0
664080,note_on,0,0,1,,,,,,,,,,,,,,,0,,,70,0
664080,set_tempo,1200,1,0,,,,,,,,,,,,776699,,,,,,,
664080,note_on,126,0,2,,,,,,,,,,,,,,,0,,,53,0
664080,note_on,0,0,2,,,,,,,,,,,,,,,0,,,51,27
664320,note_on,240,0,1,,,,,,,,,,,,,,,0,,,72,0
664320,note_on,0,0,1,,,,,,,,,,,,,,,0,,,70,0
664320,note_on,0,0,1,,,,,,,,,,,,,,,0,,,60,0
664320,note_on,0,0,1,,,,,,,,,,,,,,,0,,,62,40
664320,note_on,0,0,1,,,,,,,,,,,,,,,0,,,70,40
664320,note_on,0,0,1,,,,,,,,,,,,,,,0,,,74,47
664320,set_tempo,240,1,0,,,,,,,,,,,,743863,,,,,,,
664320,control_change,0,0,2,,,,,,,,,,,,,,,0,64,0,,
664320,note_on,0,0,2,,,,,,,,,,,,,,,0,,,53,29
664320,note_on,0,0,2,,,,,,,,,,,,,,,0,,,46,24
664320,note_on,0,0,2,,,,,,,,,,,,,,,0,,,46,0
664320,note_on,240,0,2,,,,,,,,,,,,,,,0,,,51,0
664433,control_change,113,0,2,,,,,,,,,,,,,,,0,64,127,,
664560,note_on,0,0,2,,,,,,,,,,,,,,,0,,,50,25
664560,note_on,127,0,2,,,,,,,,,,,,,,,0,,,53,0
664800,note_on,0,0,1,,,,,,,,,,,,,,,0,,,65,37
664800,set_tempo,480,1,0,,,,,,,,,,,,754527,,,,,,,
664800,note_on,0,0,1,,,,,,,,,,,,,,,0,,,62,0
664800,note_on,0,0,1,,,,,,,,,,,,,,,0,,,70,0
664800,note_on,480,0,1,,,,,,,,,,,,,,,0,,,74,0
664800,note_on,0,0,1,,,,,,,,,,,,,,,0,,,57,33
664800,note_on,0,0,1,,,,,,,,,,,,,,,0,,,69,45
664800,note_on,0,0,2,,,,,,,,,,,,,,,0,,,48,29
664800,note_on,0,0,2,,,,,,,,,,,,,,,0,,,46,24
664800,note_on,0,0,2,,,,,,,,,,,,,,,0,,,46,0
664800,note_on,240,0,2,,,,,,,,,,,,,,,0,,,50,0
664828,control_change,28,0,2,,,,,,,,,,,,,,,0,64,0,,
664927,control_change,99,0,2,,,,,,,,,,,,,,,0,64,127,,
665040,set_tempo,240,1,0,,,,,,,,,,,,771010,,,,,,,
665040,note_on,113,0,2,,,,,,,,,,,,,,,0,,,48,0
665040,note_on,0,0,2,,,,,,,,,,,,,,,0,,,53,25
665280,note_on,0,0,1,,,,,,,,,,,,,,,0,,,65,0
665280,set_tempo,240,1,0,,,,,,,,,,,,759878,,,,,,,
665280,note_on,0,0,1,,,,,,,,,,,,,,,0,,,57,0
665280,note_on,0,0,1,,,,,,,,,,,,,,,0,,,58,35
665280,note_on,0,0,1,,,,,,,,,,,,,,,0,,,65,39
665280,note_on,240,0,2,,,,,,,,,,,,,,,0,,,53,0
665280,note_on,0,0,2,,,,,,,,,,,,,,,0,,,46,0
665280,note_on,0,0,2,,,,,,,,,,,,,,,0,,,46,24
665280,note_on,0,0,2,,,,,,,,,,,,,,,0,,,50,29
665280,note_on,0,0,1,,,,,,,,,,,,,,,0,,,70,46
665280,note_on,480,0,1,,,,,,,,,,,,,,,0,,,69,0
665351,control_change,71,0,2,,,,,,,,,,,,,,,0,64,0,,
665449,control_change,98,0,2,,,,,,,,,,,,,,,0,64,127,,
665520,note_on,71,0,2,,,,,,,,,,,,,,,0,,,50,0
665520,note_on,0,0,2,,,,,,,,,,,,,,,0,,,53,27
665746,control_change,226,0,2,,,,,,,,,,,,,,,0,64,0,,
665760,note_on,14,0,2,,,,,,,,,,,,,,,0,,,53,0
665760,note_on,0,0,1,,,,,,,,,,,,,,,0,,,72,45
665760,note_on,0,0,1,,,,,,,,,,,,,,,0,,,65,37
665760,note_on,0,0,1,,,,,,,,,,,,,,,0,,,60,33
665760,note_on,0,0,1,,,,,,,,,,,,,,,0,,,58,0
665760,note_on,0,0,1,,,,,,,,,,,,,,,0,,,65,0
665760,note_on,480,0,1,,,,,,,,,,,,,,,0,,,70,0
665760,note_on,0,0,2,,,,,,,,,,,,,,,0,,,46,0
665760,note_on,0,0,2,,,,,,,,,,,,,,,0,,,46,24
665760,note_on,0,0,2,,,,,,,,,,,,,,,0,,,51,28
665760,set_tempo,480,1,0,,,,,,,,,,,,749157,,,,,,,
665845,control_change,85,0,2,,,,,,,,,,,,,,,0,64,127,,
666000,note_on,0,0,2,,,,,,,,,,,,,,,0,,,53,26
666000,note_on,155,0,2,,,,,,,,,,,,,,,0,,,51,0
666040,set_tempo,280,1,0,,,,,,,,,,,,782371,,,,,,,
666240,note_on,480,0,1,,,,,,,,,,,,,,,0,,,72,0
666240,note_on,0,0,1,,,,,,,,,,,,,,,0,,,60,0
666240,note_on,0,0,2,,,,,,,,,,,,,,,0,,,50,28
666240,note_on,0,0,2,,,,,,,,,,,,,,,0,,,46,24
666240,note_on,0,0,2,,,,,,,,,,,,,,,0,,,46,0
666240,note_on,240,0,2,,,,,,,,,,,,,,,0,,,53,0
666240,note_on,0,0,1,,,,,,,,,,,,,,,0,,,58,35
666240,note_on,0,0,1,,,,,,,,,,,,,,,0,,,65,39
666240,note_on,0,0,1,,,,,,,,,,,,,,,0,,,65,0
666240,set_tempo,200,1,0,,,,,,,,,,,,771010,,,,,,,
666240,note_on,0,0,1,,,,,,,,,,,,,,,0,,,70,46
666296,control_change,56,0,2,,,,,,,,,,,,,,,0,64,0,,
666381,control_change,85,0,2,,,,,,,,,,,,,,,0,64,127,,
666480,note_on,0,0,2,,,,,,,,,,,,,,,0,,,53,26
666480,set_tempo,240,1,0,,,,,,,,,,,,794176,,,,,,,
666480,note_on,99,0,2,,,,,,,,,,,,,,,0,,,50,0
666720,note_on,480,0,1,,,,,,,,,,,,,,,0,,,70,0
666720,note_on,0,0,1,,,,,,,,,,,,,,,0,,,65,39
666720,note_on,0,0,1,,,,,,,,,,,,,,,0,,,62,35
666720,note_on,0,0,1,,,,,,,,,,,,,,,0,,,65,0
666720,note_on,0,0,1,,,,,,,,,,,,,,,0,,,58,0
666720,note_on,0,0,1,,,,,,,,,,,,,,,0,,,74,46
666720,note_on,240,0,2,,,,,,,,,,,,,,,0,,,53,0
666720,note_on,0,0,2,,,,,,,,,,,,,,,0,,,46,28
666720,note_on,0,0,1,,,,,,,,,,,,,,,0,,,70,39
666720,note_on,0,0,2,,,,,,,,,,,,,,,0,,,46,0
666960,note_on,240,0,2,,,,,,,,,,,,,,,0,,,53,26
666960,set_tempo,480,1,0,,,,,,,,,,,,794176,,,,,,,
667200,note_on,0,0,1,,,,,,,,,,,,,,,0,,,69,37
667200,note_on,0,0,1,,,,,,,,,,,,,,,0,,,65,37
667200,note_on,0,0,1,,,,,,,,,,,,,,,0,,,60,33
667200,note_on,0,0,1,,,,,,,,,,,,,,,0,,,70,0
667200,note_on,0,0,1,,,,,,,,,,,,,,,0,,,65,0
667200,note_on,0,0,1,,,,,,,,,,,,,,,0,,,72,45
667200,note_on,0,0,1,,,,,,,,,,,,,,,0,,,62,0
667200,note_on,0,0,2,,,,,,,,,,,,,,,0,,,46,0
667200,note_on,240,0,2,,,,,,,,,,,,,,,0,,,53,0
667200,note_on,0,0,2,,,,,,,,,,,,,,,0,,,41,28
667200,note_on,480,0,1,,,,,,,,,,,,,,,0,,,74,0
667285,control_change,85,0,2,,,,,,,,,,,,,,,0,64,0,,
667680,note_on,395,0,2,,,,,,,,,,,,,,,0,,,41,0
667680,set_tempo,720,1,0,,,,,,,,,,,,865801,,,,,,,
667920,set_tempo,240,1,0,,,,,,,,,,,,771010,,,,,,,
667920,note_on,240,0,2,,,,,,,,,,,,,,,0,,,29,24
668000,note_on,80,0,2,,,,,,,,,,,,,,,0,,,30,19
668020,note_on,20,0,2,,,,,,,,,,,,,,,0,,,29,0
668080,note_on,60,0,2,,,,,,,,,,,,,,,0,,,32,19
668100,note_on,20,0,2,,,,,,,,,,,,,,,0,,,30,0
668160,set_tempo,240,1,0,,,,,,,,,,,,825196,,,,,,,
668160,note_on,60,0,2,,,,,,,,,,,,,,,0,,,30,24
668180,note_on,20,0,2,,,,,,,,,,,,,,,0,,,32,0
668220,note_on,40,0,2,,,,,,,,,,,,,,,0,,,32,20
668224,set_tempo,64,1,0,,,,,,,,,,,,818777,,,,,,,
668260,note_on,40,0,2,,,,,,,,,,,,,,,0,,,30,0
668280,note_on,20,0,2,,,,,,,,,,,,,,,0,,,30,21
668280,set_tempo,56,1,0,,,,,,,,,,,,812458,,,,,,,
668320,note_on,40,0,2,,,,,,,,,,,,,,,0,,,32,0
668340,note_on,20,0,2,,,,,,,,,,,,,,,0,,,32,19
668344,set_tempo,64,1,0,,,,,,,,,,,,806235,,,,,,,
668380,note_on,40,0,2,,,,,,,,,,,,,,,0,,,30,0
668400,note_on,20,0,2,,,,,,,,,,,,,,,0,,,30,21
668400,set_tempo,56,1,0,,,,,,,,,,,,800213,,,,,,,
668440,note_on,40,0,2,,,,,,,,,,,,,,,0,,,32,0
668460,note_on,20,0,2,,,,,,,,,,,,,,,0,,,32,19
668464,set_tempo,64,1,0,,,,,,,,,,,,794176,,,,,,,
668500,note_on,40,0,2,,,,,,,,,,,,,,,0,,,30,0
668520,set_tempo,56,1,0,,,,,,,,,,,,788229,,,,,,,
668520,note_on,20,0,2,,,,,,,,,,,,,,,0,,,30,22
668532,set_tempo,12,1,0,,,,,,,,,,,,765404,,,,,,,
668544,set_tempo,12,1,0,,,,,,,,,,,,759878,,,,,,,
668560,note_on,40,0,2,,,,,,,,,,,,,,,0,,,32,0
668580,note_on,20,0,2,,,,,,,,,,,,,,,0,,,32,21
668600,set_tempo,56,1,0,,,,,,,,,,,,765404,,,,,,,
668612,set_tempo,12,1,0,,,,,,,,,,,,776699,,,,,,,
668620,note_on,40,0,2,,,,,,,,,,,,,,,0,,,30,0
668640,note_on,20,0,2,,,,,,,,,,,,,,,0,,,30,23
668652,set_tempo,40,1,0,,,,,,,,,,,,765404,,,,,,,
668680,set_tempo,28,1,0,,,,,,,,,,,,759878,,,,,,,
668680,note_on,40,0,2,,,,,,,,,,,,,,,0,,,32,0
668692,set_tempo,12,1,0,,,,,,,,,,,,749157,,,,,,,
668700,note_on,20,0,2,,,,,,,,,,,,,,,0,,,32,20
668704,set_tempo,12,1,0,,,,,,,,,,,,743863,,,,,,,
668720,set_tempo,16,1,0,,,,,,,,,,,,754527,,,,,,,
668732,set_tempo,12,1,0,,,,,,,,,,,,759878,,,,,,,
668740,note_on,40,0,2,,,,,,,,,,,,,,,0,,,30,0
668744,set_tempo,12,1,0,,,,,,,,,,,,771010,,,,,,,
668760,set_tempo,16,1,0,,,,,,,,,,,,765404,,,,,,,
668760,note_on,20,0,2,,,,,,,,,,,,,,,0,,,30,23
668772,set_tempo,12,1,0,,,,,,,,,,,,754527,,,,,,,
668784,set_tempo,12,1,0,,,,,,,,,,,,749157,,,,,,,
668800,set_tempo,16,1,0,,,,,,,,,,,,743863,,,,,,,
668800,note_on,40,0,2,,,,,,,,,,,,,,,0,,,32,0
668812,set_tempo,12,1,0,,,,,,,,,,,,738643,,,,,,,
668820,note_on,20,0,2,,,,,,,,,,,,,,,0,,,32,19
668852,set_tempo,40,1,0,,,,,,,,,,,,749157,,,,,,,
668860,note_on,40,0,2,,,,,,,,,,,,,,,0,,,30,0
668864,set_tempo,12,1,0,,,,,,,,,,,,759878,,,,,,,
668880,set_tempo,16,1,0,,,,,,,,,,,,765404,,,,,,,
668880,note_on,20,0,2,,,,,,,,,,,,,,,0,,,30,22
668892,set_tempo,12,1,0,,,,,,,,,,,,771010,,,,,,,
668920,set_tempo,28,1,0,,,,,,,,,,,,765404,,,,,,,
668920,note_on,40,0,2,,,,,,,,,,,,,,,0,,,32,0
668932,set_tempo,12,1,0,,,,,,,,,,,,754527,,,,,,,
668940,note_on,20,0,2,,,,,,,,,,,,,,,0,,,32,20
668944,set_tempo,12,1,0,,,,,,,,,,,,749157,,,,,,,
668960,set_tempo,16,1,0,,,,,,,,,,,,743863,,,,,,,
668972,set_tempo,12,1,0,,,,,,,,,,,,738643,,,,,,,
668980,note_on,40,0,2,,,,,,,,,,,,,,,0,,,30,0
668984,set_tempo,12,1,0,,,,,,,,,,,,743863,,,,,,,
669000,note_on,20,0,2,,,,,,,,,,,,,,,0,,,30,21
669000,set_tempo,16,1,0,,,,,,,,,,,,754527,,,,,,,
669012,set_tempo,12,1,0,,,,,,,,,,,,759878,,,,,,,
669040,set_tempo,28,1,0,,,,,,,,,,,,765404,,,,,,,
669040,note_on,40,0,2,,,,,,,,,,,,,,,0,,,32,0
669060,note_on,20,0,2,,,,,,,,,,,,,,,0,,,32,19
669064,set_tempo,24,1,0,,,,,,,,,,,,754527,,,,,,,
669080,set_tempo,16,1,0,,,,,,,,,,,,749157,,,,,,,
669092,set_tempo,12,1,0,,,,,,,,,,,,738643,,,,,,,
669100,note_on,40,0,2,,,,,,,,,,,,,,,0,,,30,0
669104,set_tempo,12,1,0,,,,,,,,,,,,743863,,,,,,,
669120,set_tempo,16,1,0,,,,,,,,,,,,765404,,,,,,,
669120,note_on,20,0,2,,,,,,,,,,,,,,,0,,,30,23
669132,set_tempo,12,1,0,,,,,,,,,,,,776699,,,,,,,
669144,set_tempo,12,1,0,,,,,,,,,,,,782371,,,,,,,
669160,set_tempo,16,1,0,,,,,,,,,,,,776699,,,,,,,
669160,note_on,40,0,2,,,,,,,,,,,,,,,0,,,32,0
669172,set_tempo,12,1,0,,,,,,,,,,,,759878,,,,,,,
669180,note_on,20,0,2,,,,,,,,,,,,,,,0,,,32,20
669184,set_tempo,12,1,0,,,,,,,,,,,,754527,,,,,,,
669200,set_tempo,16,1,0,,,,,,,,,,,,749157,,,,,,,
669212,set_tempo,12,1,0,,,,,,,,,,,,743863,,,,,,,
669220,note_on,40,0,2,,,,,,,,,,,,,,,0,,,30,0
669224,set_tempo,12,1,0,,,,,,,,,,,,749157,,,,,,,
669240,note_on,20,0,2,,,,,,,,,,,,,,,0,,,30,22
669240,set_tempo,16,1,0,,,,,,,,,,,,765404,,,,,,,
669252,set_tempo,12,1,0,,,,,,,,,,,,771010,,,,,,,
669280,set_tempo,28,1,0,,,,,,,,,,,,759878,,,,,,,
669280,note_on,40,0,2,,,,,,,,,,,,,,,0,,,32,0
669292,set_tempo,12,1,0,,,,,,,,,,,,749157,,,,,,,
669300,note_on,20,0,2,,,,,,,,,,,,,,,0,,,32,20
669304,set_tempo,12,1,0,,,,,,,,,,,,743863,,,,,,,
669320,set_tempo,16,1,0,,,,,,,,,,,,738643,,,,,,,
669332,set_tempo,12,1,0,,,,,,,,,,,,743863,,,,,,,
669340,note_on,40,0,2,,,,,,,,,,,,,,,0,,,30,0
669344,set_tempo,12,1,0,,,,,,,,,,,,754527,,,,,,,
669360,set_tempo,16,1,0,,,,,,,,,,,,759878,,,,,,,
669360,note_on,20,0,2,,,,,,,,,,,,,,,0,,,30,22
669372,set_tempo,12,1,0,,,,,,,,,,,,765404,,,,,,,
669400,note_on,40,0,2,,,,,,,,,,,,,,,0,,,32,0
669412,set_tempo,40,1,0,,,,,,,,,,,,754527,,,,,,,
669420,note_on,20,0,2,,,,,,,,,,,,,,,0,,,32,19
669424,set_tempo,12,1,0,,,,,,,,,,,,749157,,,,,,,
669440,set_tempo,16,1,0,,,,,,,,,,,,743863,,,,,,,
669460,note_on,40,0,2,,,,,,,,,,,,,,,0,,,30,0
669480,note_on,20,0,2,,,,,,,,,,,,,,,0,,,30,22
669492,set_tempo,52,1,0,,,,,,,,,,,,754527,,,,,,,
669504,set_tempo,12,1,0,,,,,,,,,,,,765404,,,,,,,
669520,note_on,40,0,2,,,,,,,,,,,,,,,0,,,32,0
669520,set_tempo,16,1,0,,,,,,,,,,,,771010,,,,,,,
669532,set_tempo,12,1,0,,,,,,,,,,,,759878,,,,,,,
669540,note_on,20,0,2,,,,,,,,,,,,,,,0,,,32,19
669544,set_tempo,12,1,0,,,,,,,,,,,,754527,,,,,,,
669560,set_tempo,16,1,0,,,,,,,,,,,,749157,,,,,,,
669572,set_tempo,12,1,0,,,,,,,,,,,,743863,,,,,,,
669580,note_on,40,0,2,,,,,,,,,,,,,,,0,,,30,0
669584,set_tempo,12,1,0,,,,,,,,,,,,749157,,,,,,,
669600,note_on,20,0,2,,,,,,,,,,,,,,,0,,,30,24
669600,set_tempo,16,1,0,,,,,,,,,,,,759878,,,,,,,
669612,set_tempo,12,1,0,,,,,,,,,,,,771010,,,,,,,
669624,set_tempo,12,1,0,,,,,,,,,,,,776699,,,,,,,
669640,note_on,40,0,2,,,,,,,,,,,,,,,0,,,32,0
669640,set_tempo,16,1,0,,,,,,,,,,,,782371,,,,,,,
669652,set_tempo,12,1,0,,,,,,,,,,,,788229,,,,,,,
669660,note_on,20,0,2,,,,,,,,,,,,,,,0,,,32,20
669664,set_tempo,12,1,0,,,,,,,,,,,,782371,,,,,,,
669680,set_tempo,16,1,0,,,,,,,,,,,,771010,,,,,,,
669692,set_tempo,12,1,0,,,,,,,,,,,,765404,,,,,,,
669700,note_on,40,0,2,,,,,,,,,,,,,,,0,,,30,0
669720,note_on,20,0,2,,,,,,,,,,,,,,,0,,,30,23
669760,note_on,40,0,2,,,,,,,,,,,,,,,0,,,32,0
669780,note_on,20,0,2,,,,,,,,,,,,,,,0,,,32,19
669800,set_tempo,108,1,0,,,,,,,,,,,,771010,,,,,,,
669820,note_on,40,0,2,,,,,,,,,,,,,,,0,,,30,0
669840,note_on,20,0,2,,,,,,,,,,,,,,,0,,,29,19
669840,set_tempo,40,1,0,,,,,,,,,,,,743863,,,,,,,
669880,note_on,40,0,2,,,,,,,,,,,,,,,0,,,32,0
669960,set_tempo,120,1,0,,,,,,,,,,,,857143,,,,,,,
669960,note_on,80,0,2,,,,,,,,,,,,,,,0,,,30,16
669980,note_on,20,0,2,,,,,,,,,,,,,,,0,,,29,0
670080,set_tempo,120,1,0,,,,,,,,,,,,782371,,,,,,,
670080,note_on,100,0,2,,,,,,,,,,,,,,,0,,,29,20
670100,note_on,20,0,2,,,,,,,,,,,,,,,0,,,30,0
670200,note_on,100,0,2,,,,,,,,,,,,,,,0,,,29,0
670320,note_on,0,0,1,,,,,,,,,,,,,,,0,,,60,0
670320,note_on,3120,0,1,,,,,,,,,,,,,,,0,,,72,0
670320,note_on,0,0,1,,,,,,,,,,,,,,,0,,,69,0
670320,note_on,0,0,1,,,,,,,,,,,,,,,0,,,65,0
671520,note_on,0,0,1,,,,,,,,,,,,,,,0,,,70,43
671520,note_on,1200,0,1,,,,,,,,,,,,,,,0,,,58,32
671520,note_on,1320,0,2,,,,,,,,,,,,,,,0,,,46,24
671520,note_on,0,0,2,,,,,,,,,,,,,,,0,,,50,29
671520,set_tempo,1440,1,0,,,,,,,,,,,,765404,,,,,,,
671520,note_on,0,0,1,,,,,,,,,,,,,,,0,,,65,36
671534,control_change,14,0,2,,,,,,,,,,,,,,,0,64,127,,
671760,note_on,226,0,2,,,,,,,,,,,,,,,0,,,50,0
671760,note_on,0,0,2,,,,,,,,,,,,,,,0,,,53,25
672000,note_on,240,0,2,,,,,,,,,,,,,,,0,,,53,0
672000,note_on,0,0,1,,,,,,,,,,,,,,,0,,,65,0
672000,note_on,0,0,2,,,,,,,,,,,,,,,0,,,50,30
672000,control_change,0,0,2,,,,,,,,,,,,,,,0,64,0,,
672000,note_on,480,0,1,,,,,,,,,,,,,,,0,,,70,0
672000,set_tempo,480,1,0,,,,,,,,,,,,743863,,,,,,,
672000,note_on,0,0,1,,,,,,,,,,,,,,,0,,,70,45
672000,note_on,0,0,1,,,,,,,,,,,,,,,0,,,65,37
672000,note_on,0,0,1,,,,,,,,,,,,,,,0,,,58,33
672000,note_on,0,0,1,,,,,,,,,,,,,,,0,,,58,0
672000,note_on,0,0,2,,,,,,,,,,,,,,,0,,,46,0
672000,note_on,0,0,2,,,,,,,,,,,,,,,0,,,46,25
672085,control_change,85,0,2,,,,,,,,,,,,,,,0,64,127,,
672240,note_on,0,0,2,,,,,,,,,,,,,,,0,,,53,25
672240,note_on,155,0,2,,,,,,,,,,,,,,,0,,,50,0
672280,set_tempo,280,1,0,,,,,,,,,,,,765404,,,,,,,
672480,note_on,480,0,1,,,,,,,,,,,,,,,0,,,70,0
672480,control_change,0,0,2,,,,,,,,,,,,,,,0,64,0,,
672480,note_on,0,0,2,,,,,,,,,,,,,,,0,,,48,27
672480,note_on,0,0,2,,,,,,,,,,,,,,,0,,,46,21
672480,note_on,0,0,2,,,,,,,,,,,,,,,0,,,46,0
672480,note_on,0,0,1,,,,,,,,,,,,,,,0,,,57,27
672480,note_on,0,0,1,,,,,,,,,,,,,,,0,,,65,0
672480,note_on,0,0,1,,,,,,,,,,,,,,,0,,,65,36
672480,note_on,240,0,2,,,,,,,,,,,,,,,0,,,53,0
672480,note_on,0,0,1,,,,,,,,,,,,,,,0,,,58,0
672480,note_on,0,0,1,,,,,,,,,,,,,,,0,,,69,43
672480,set_tempo,200,1,0,,,,,,,,,,,,743863,,,,,,,
672565,control_change,85,0,2,,,,,,,,,,,,,,,0,64,127,,
672720,set_tempo,240,1,0,,,,,,,,,,,,771010,,,,,,,
672720,note_on,155,0,2,,,,,,,,,,,,,,,0,,,48,0
672720,note_on,0,0,2,,,,,,,,,,,,,,,0,,,53,24
672880,set_tempo,160,1,0,,,,,,,,,,,,749157,,,,,,,
672960,note_on,0,0,1,,,,,,,,,,,,,,,0,,,65,37
672960,note_on,0,0,1,,,,,,,,,,,,,,,0,,,70,45
672960,note_on,0,0,1,,,,,,,,,,,,,,,0,,,57,0
672960,note_on,0,0,1,,,,,,,,,,,,,,,0,,,65,0
672960,note_on,240,0,2,,,,,,,,,,,,,,,0,,,53,0
672960,note_on,0,0,2,,,,,,,,,,,,,,,0,,,46,0
672960,note_on,0,0,2,,,,,,,,,,,,,,,0,,,46,25
672960,note_on,0,0,2,,,,,,,,,,,,,,,0,,,50,30
672960,set_tempo,80,1,0,,,,,,,,,,,,765404,,,,,,,
672960,note_on,0,0,1,,,,,,,,,,,,,,,0,,,58,33
672960,note_on,480,0,1,,,,,,,,,,,,,,,0,,,69,0
673002,control_change,42,0,2,,,,,,,,,,,,,,,0,64,0,,
673115,control_change,113,0,2,,,,,,,,,,,,,,,0,64,127,,
673200,set_tempo,240,1,0,,,,,,,,,,,,776699,,,,,,,
673200,note_on,85,0,2,,,,,,,,,,,,,,,0,,,50,0
673200,note_on,0,0,2,,,,,,,,,,,,,,,0,,,53,24
673440,note_on,240,0,2,,,,,,,,,,,,,,,0,,,53,0
673440,set_tempo,240,1,0,,,,,,,,,,,,749157,,,,,,,
673440,note_on,0,0,1,,,,,,,,,,,,,,,0,,,60,32
673440,note_on,0,0,1,,,,,,,,,,,,,,,0,,,58,0
673440,note_on,0,0,1,,,,,,,,,,,,,,,0,,,65,0
673440,note_on,480,0,1,,,,,,,,,,,,,,,0,,,70,0
673440,note_on,0,0,1,,,,,,,,,,,,,,,0,,,72,43
673440,note_on,0,0,1,,,,,,,,,,,,,,,0,,,65,36
673440,note_on,0,0,2,,,,,,,,,,,,,,,0,,,51,29
673440,note_on,0,0,2,,,,,,,,,,,,,,,0,,,46,24
673440,note_on,0,0,2,,,,,,,,,,,,,,,0,,,46,0
673468,control_change,28,0,2,,,,,,,,,,,,,,,0,64,0,,
673581,control_change,113,0,2,,,,,,,,,,,,,,,0,64,127,,
673680,note_on,0,0,2,,,,,,,,,,,,,,,0,,,53,23
673680,note_on,99,0,2,,,,,,,,,,,,,,,0,,,51,0
673680,set_tempo,240,1,0,,,,,,,,,,,,776699,,,,,,,
673920,note_on,0,0,2,,,,,,,,,,,,,,,0,,,52,30
673920,note_on,0,0,2,,,,,,,,,,,,,,,0,,,46,0
673920,note_on,240,0,2,,,,,,,,,,,,,,,0,,,53,0
673920,set_tempo,240,1,0,,,,,,,,,,,,743863,,,,,,,
673920,note_on,0,0,2,,,,,,,,,,,,,,,0,,,46,25
673920,control_change,0,0,2,,,,,,,,,,,,,,,0,64,0,,
673920,note_on,0,0,1,,,,,,,,,,,,,,,0,,,65,0
673920,note_on,0,0,1,,,,,,,,,,,,,,,0,,,74,47
673920,note_on,0,0,1,,,,,,,,,,,,,,,0,,,62,36
673920,note_on,0,0,1,,,,,,,,,,,,,,,0,,,65,40
673920,note_on,480,0,1,,,,,,,,,,,,,,,0,,,72,0
673920,note_on,0,0,1,,,,,,,,,,,,,,,0,,,60,0
674023,control_change,103,0,2,,,,,,,,,,,,,,,0,64,127,,
674139,control_change,116,0,2,,,,,,,,,,,,,,,0,64,0,,
674160,set_tempo,240,1,0,,,,,,,,,,,,728332,,,,,,,
674160,note_on,21,0,2,,,,,,,,,,,,,,,0,,,52,0
674160,note_on,0,0,2,,,,,,,,,,,,,,,0,,,53,23
674224,control_change,64,0,2,,,,,,,,,,,,,,,0,64,127,,
674280,note_on,56,0,2,,,,,,,,,,,,,,,0,,,53,0
674400,note_on,120,0,2,,,,,,,,,,,,,,,0,,,53,23
674400,set_tempo,240,1,0,,,,,,,,,,,,728332,,,,,,,
674520,note_on,120,0,2,,,,,,,,,,,,,,,0,,,53,0
674640,note_on,120,0,2,,,,,,,,,,,,,,,0,,,53,23
674760,note_on,120,0,2,,,,,,,,,,,,,,,0,,,53,0
674880,note_on,120,0,2,,,,,,,,,,,,,,,0,,,53,23
675000,note_on,120,0,2,,,,,,,,,,,,,,,0,,,53,0
675120,note_on,120,0,2,,,,,,,,,,,,,,,0,,,53,23
675240,note_on,120,0,2,,,,,,,,,,,,,,,0,,,53,0
675360,note_on,0,0,1,,,,,,,,,,,,,,,0,,,65,0
675360,note_on,1440,0,1,,,,,,,,,,,,,,,0,,,74,0
675360,note_on,0,0,1,,,,,,,,,,,,,,,0,,,72,45
675360,note_on,0,0,1,,,,,,,,,,,,,,,0,,,60,33
675360,note_on,0,0,1,,,,,,,,,,,,,,,0,,,65,37
675360,note_on,0,0,2,,,,,,,,,,,,,,,0,,,51,29
675360,note_on,0,0,2,,,,,,,,,,,,,,,0,,,46,24
675360,note_on,120,0,2,,,,,,,,,,,,,,,0,,,46,0
675360,note_on,0,0,1,,,,,,,,,,,,,,,0,,,62,0
675360,set_tempo,960,1,0,,,,,,,,,,,,733407,,,,,,,
675367,control_change,7,0,2,,,,,,,,,,,,,,,0,64,0,,
675440,control_change,73,0,2,,,,,,,,,,,,,,,0,64,127,,
675600,note_on,0,0,2,,,,,,,,,,,,,,,0,,,50,24
675600,set_tempo,240,1,0,,,,,,,,,,,,789474,,,,,,,
675600,note_on,240,0,1,,,,,,,,,,,,,,,0,,,72,0
675600,note_on,0,0,1,,,,,,,,,,,,,,,0,,,60,0
675600,note_on,0,0,1,,,,,,,,,,,,,,,0,,,58,31
675600,note_on,0,0,1,,,,,,,,,,,,,,,0,,,70,41
675600,note_on,160,0,2,,,,,,,,,,,,,,,0,,,51,0
675840,note_on,0,0,1,,,,,,,,,,,,,,,0,,,60,31
675840,note_on,0,0,1,,,,,,,,,,,,,,,0,,,65,35
675840,note_on,240,0,1,,,,,,,,,,,,,,,0,,,70,0
675840,note_on,0,0,1,,,,,,,,,,,,,,,0,,,58,0
675840,note_on,0,0,1,,,,,,,,,,,,,,,0,,,65,0
675840,note_on,0,0,1,,,,,,,,,,,,,,,0,,,72,42
675840,note_on,240,0,2,,,,,,,,,,,,,,,0,,,50,0
675840,note_on,0,0,2,,,,,,,,,,,,,,,0,,,46,0
675840,note_on,0,0,2,,,,,,,,,,,,,,,0,,,41,23
675840,note_on,0,0,2,,,,,,,,,,,,,,,0,,,51,27
675840,control_change,0,0,2,,,,,,,,,,,,,,,0,64,0,,
675840,set_tempo,240,1,0,,,,,,,,,,,,743863,,,,,,,
675967,control_change,127,0,2,,,,,,,,,,,,,,,0,64,127,,
676080,set_tempo,240,1,0,,,,,,,,,,,,754527,,,,,,,
676080,note_on,113,0,2,,,,,,,,,,,,,,,0,,,51,0
676080,note_on,0,0,2,,,,,,,,,,,,,,,0,,,53,22
676320,note_on,0,0,1,,,,,,,,,,,,,,,0,,,72,41
676320,note_on,0,0,1,,,,,,,,,,,,,,,0,,,65,34
676320,note_on,0,0,1,,,,,,,,,,,,,,,0,,,60,30
676320,note_on,0,0,1,,,,,,,,,,,,,,,0,,,60,0
676320,note_on,0,0,1,,,,,,,,,,,,,,,0,,,65,0
676320,note_on,480,0,1,,,,,,,,,,,,,,,0,,,72,0
676320,note_on,0,0,2,,,,,,,,,,,,,,,0,,,41,0
676320,note_on,0,0,2,,,,,,,,,,,,,,,0,,,51,26
676320,note_on,0,0,2,,,,,,,,,,,,,,,0,,,41,23
676320,note_on,240,0,2,,,,,,,,,,,,,,,0,,,53,0
676320,set_tempo,240,1,0,,,,,,,,,,,,743863,,,,,,,
676560,note_on,0,0,2,,,,,,,,,,,,,,,0,,,53,22
676560,set_tempo,240,1,0,,,,,,,,,,,,754527,,,,,,,
676560,note_on,240,0,2,,,,,,,,,,,,,,,0,,,51,0
676800,note_on,0,0,1,,,,,,,,,,,,,,,0,,,65,34
676800,note_on,240,0,2,,,,,,,,,,,,,,,0,,,53,0
676800,note_on,0,0,1,,,,,,,,,,,,,,,0,,,60,30
676800,note_on,0,0,1,,,,,,,,,,,,,,,0,,,72,41
676800,note_on,0,0,1,,,,,,,,,,,,,,,0,,,65,0
676800,note_on,0,0,1,,,,,,,,,,,,,,,0,,,60,0
676800,note_on,0,0,2,,,,,,,,,,,,,,,0,,,51,26
676800,note_on,0,0,2,,,,,,,,,,,,,,,0,,,41,0
676800,note_on,480,0,1,,,,,,,,,,,,,,,0,,,72,0
676800,note_on,0,0,2,,,,,,,,,,,,,,,0,,,41,23
676840,set_tempo,280,1,0,,,,,,,,,,,,743863,,,,,,,
677040,set_tempo,200,1,0,,,,,,,,,,,,771010,,,,,,,
677040,note_on,0,0,2,,,,,,,,,,,,,,,0,,,53,25
677040,note_on,240,0,2,,,,,,,,,,,,,,,0,,,51,0
677280,note_on,0,0,1,,,,,,,,,,,,,,,0,,,65,37
677280,note_on,0,0,2,,,,,,,,,,,,,,,0,,,41,24
677280,note_on,0,0,2,,,,,,,,,,,,,,,0,,,41,0
677280,note_on,240,0,2,,,,,,,,,,,,,,,0,,,53,0
677280,note_on,480,0,1,,,,,,,,,,,,,,,0,,,72,0
677280,note_on,0,0,1,,,,,,,,,,,,,,,0,,,65,0
677280,note_on,0,0,1,,,,,,,,,,,,,,,0,,,60,0
677280,note_on,0,0,1,,,,,,,,,,,,,,,0,,,58,33
677280,set_tempo,240,1,0,,,,,,,,,,,,743863,,,,,,,
677280,note_on,0,0,1,,,,,,,,,,,,,,,0,,,70,45
677280,note_on,0,0,2,,,,,,,,,,,,,,,0,,,50,29
677294,control_change,14,0,2,,,,,,,,,,,,,,,0,64,0,,
677393,control_change,99,0,2,,,,,,,,,,,,,,,0,64,127,,
677520,note_on,0,0,2,,,,,,,,,,,,,,,0,,,48,22
677520,set_tempo,240,1,0,,,,,,,,,,,,821918,,,,,,,
677520,note_on,127,0,2,,,,,,,,,,,,,,,0,,,50,0
677520,note_on,240,0,1,,,,,,,,,,,,,,,0,,,70,0
677520,note_on,0,0,1,,,,,,,,,,,,,,,0,,,58,0
677520,note_on,0,0,1,,,,,,,,,,,,,,,0,,,57,27
677520,note_on,0,0,1,,,,,,,,,,,,,,,0,,,69,40
677720,set_tempo,200,1,0,,,,,,,,,,,,754527,,,,,,,
677760,note_on,0,0,1,,,,,,,,,,,,,,,0,,,65,46
677760,note_on,0,0,1,,,,,,,,,,,,,,,0,,,57,0
677760,note_on,240,0,2,,,,,,,,,,,,,,,0,,,48,0
677760,note_on,240,0,1,,,,,,,,,,,,,,,0,,,69,0
677760,note_on,0,0,1,,,,,,,,,,,,,,,0,,,58,33
677760,note_on,0,0,1,,,,,,,,,,,,,,,0,,,70,46
677760,note_on,0,0,2,,,,,,,,,,,,,,,0,,,41,0
677760,note_on,0,0,2,,,,,,,,,,,,,,,0,,,46,25
677760,note_on,0,0,2,,,,,,,,,,,,,,,0,,,50,30
677760,control_change,0,0,2,,,,,,,,,,,,,,,0,64,0,,
677760,note_on,0,0,1,,,,,,,,,,,,,,,0,,,65,0
677887,control_change,127,0,2,,,,,,,,,,,,,,,0,64,127,,
678000,note_on,0,0,2,,,,,,,,,,,,,,,0,,,53,27
678000,note_on,113,0,2,,,,,,,,,,,,,,,0,,,50,0
678240,note_on,0,0,1,,,,,,,,,,,,,,,0,,,67,45
678240,note_on,0,0,1,,,,,,,,,,,,,,,0,,,63,37
678240,note_on,480,0,1,,,,,,,,,,,,,,,0,,,65,0
678240,set_tempo,520,1,0,,,,,,,,,,,,754527,,,,,,,
678240,note_on,240,0,2,,,,,,,,,,,,,,,0,,,53,0
678240,note_on,0,0,2,,,,,,,,,,,,,,,0,,,51,29
678311,control_change,71,0,2,,,,,,,,,,,,,,,0,64,0,,
678395,control_change,84,0,2,,,,,,,,,,,,,,,0,64,127,,
678480,note_on,85,0,2,,,,,,,,,,,,,,,0,,,51,0
678480,note_on,0,0,2,,,,,,,,,,,,,,,0,,,55,25
678520,set_tempo,280,1,0,,,,,,,,,,,,782371,,,,,,,
678720,note_on,240,0,2,,,,,,,,,,,,,,,0,,,55,0
678720,set_tempo,200,1,0,,,,,,,,,,,,759878,,,,,,,
678720,note_on,0,0,1,,,,,,,,,,,,,,,0,,,65,39
678720,note_on,0,0,1,,,,,,,,,,,,,,,0,,,62,32
678720,note_on,0,0,1,,,,,,,,,,,,,,,0,,,63,0
678720,note_on,480,0,1,,,,,,,,,,,,,,,0,,,67,0
678720,note_on,0,0,2,,,,,,,,,,,,,,,0,,,50,26
678776,control_change,56,0,2,,,,,,,,,,,,,,,0,64,0,,
678932,control_change,156,0,2,,,,,,,,,,,,,,,0,64,127,,
678960,note_on,0,0,2,,,,,,,,,,,,,,,0,,,53,27
678960,note_on,28,0,2,,,,,,,,,,,,,,,0,,,50,0
678960,set_tempo,240,1,0,,,,,,,,,,,,782371,,,,,,,
679200,note_on,0,0,2,,,,,,,,,,,,,,,0,,,44,25
679200,note_on,0,0,2,,,,,,,,,,,,,,,0,,,50,35
679200,note_on,0,0,1,,,,,,,,,,,,,,,0,,,62,0
679200,note_on,240,0,2,,,,,,,,,,,,,,,0,,,53,0
679200,note_on,480,0,1,,,,,,,,,,,,,,,0,,,65,0
679200,note_on,0,0,1,,,,,,,,,,,,,,,0,,,58,0
679200,set_tempo,240,1,0,,,,,,,,,,,,794702,,,,,,,
679200,note_on,0,0,2,,,,,,,,,,,,,,,0,,,46,0
679200,note_on,0,0,1,,,,,,,,,,,,,,,0,,,62,40
679200,note_on,0,0,1,,,,,,,,,,,,,,,0,,,70,0
679200,note_on,0,0,1,,,,,,,,,,,,,,,0,,,74,54
679200,note_on,0,0,1,,,,,,,,,,,,,,,0,,,65,45
679242,control_change,42,0,2,,,,,,,,,,,,,,,0,64,0,,
679299,control_change,57,0,2,,,,,,,,,,,,,,,0,64,127,,
679440,note_on,141,0,2,,,,,,,,,,,,,,,0,,,50,0
679440,set_tempo,240,1,0,,,,,,,,,,,,944882,,,,,,,
679440,note_on,0,0,2,,,,,,,,,,,,,,,0,,,53,30
679680,control_change,0,0,2,,,,,,,,,,,,,,,0,64,0,,
679680,note_on,0,0,2,,,,,,,,,,,,,,,0,,,53,32
679680,note_on,0,0,2,,,,,,,,,,,,,,,0,,,43,27
679680,note_on,0,0,2,,,,,,,,,,,,,,,0,,,44,0
679680,note_on,240,0,2,,,,,,,,,,,,,,,0,,,53,0
679680,note_on,0,0,1,,,,,,,,,,,,,,,0,,,67,45
679680,note_on,0,0,1,,,,,,,,,,,,,,,0,,,74,54
679680,set_tempo,240,1,0,,,,,,,,,,,,784314,,,,,,,
679680,note_on,480,0,1,,,,,,,,,,,,,,,0,,,74,0
679680,note_on,0,0,1,,,,,,,,,,,,,,,0,,,65,0
679680,note_on,0,0,1,,,,,,,,,,,,,,,0,,,62,0
679680,note_on,0,0,1,,,,,,,,,,,,,,,0,,,62,40
679794,control_change,114,0,2,,,,,,,,,,,,,,,0,64,127,,
679920,set_tempo,240,1,0,,,,,,,,,,,,738643,,,,,,,
679920,note_on,126,0,2,,,,,,,,,,,,,,,0,,,55,28
680040,note_on,120,0,2,,,,,,,,,,,,,,,0,,,55,0
680160,note_on,120,0,2,,,,,,,,,,,,,,,0,,,55,29
680160,set_tempo,240,1,0,,,,,,,,,,,,728332,,,,,,,
680280,note_on,120,0,2,,,,,,,,,,,,,,,0,,,55,0
680400,note_on,120,0,2,,,,,,,,,,,,,,,0,,,55,27
680520,note_on,120,0,2,,,,,,,,,,,,,,,0,,,55,0
680640,note_on,120,0,2,,,,,,,,,,,,,,,0,,,55,30
680760,note_on,120,0,2,,,,,,,,,,,,,,,0,,,55,0
680880,note_on,120,0,2,,,,,,,,,,,,,,,0,,,55,27
681000,note_on,120,0,2,,,,,,,,,,,,,,,0,,,55,0
681120,note_on,120,0,2,,,,,,,,,,,,,,,0,,,53,0
681120,note_on,0,0,1,,,,,,,,,,,,,,,0,,,72,49
681120,note_on,0,0,1,,,,,,,,,,,,,,,0,,,67,41
681120,note_on,0,0,1,,,,,,,,,,,,,,,0,,,60,36
681120,note_on,0,0,1,,,,,,,,,,,,,,,0,,,62,0
681120,note_on,0,0,1,,,,,,,,,,,,,,,0,,,67,0
681120,note_on,1440,0,1,,,,,,,,,,,,,,,0,,,74,0
681120,control_change,0,0,2,,,,,,,,,,,,,,,0,64,0,,
681120,note_on,0,0,2,,,,,,,,,,,,,,,0,,,55,29
681120,note_on,0,0,2,,,,,,,,,,,,,,,0,,,51,24
681120,note_on,0,0,2,,,,,,,,,,,,,,,0,,,43,21
681120,note_on,0,0,2,,,,,,,,,,,,,,,0,,,43,0
681234,control_change,114,0,2,,,,,,,,,,,,,,,0,64,127,,
681360,note_on,0,0,1,,,,,,,,,,,,,,,0,,,67,37
681360,note_on,0,0,1,,,,,,,,,,,,,,,0,,,71,45
681360,note_on,0,0,1,,,,,,,,,,,,,,,0,,,60,0
681360,set_tempo,1200,1,0,,,,,,,,,,,,733407,,,,,,,
681360,note_on,0,0,1,,,,,,,,,,,,,,,0,,,59,33
681360,note_on,0,0,2,,,,,,,,,,,,,,,0,,,51,0
681360,note_on,0,0,1,,,,,,,,,,,,,,,0,,,67,0
681360,note_on,240,0,1,,,,,,,,,,,,,,,0,,,72,0
681360,note_on,0,0,2,,,,,,,,,,,,,,,0,,,55,27
681360,note_on,0,0,2,,,,,,,,,,,,,,,0,,,50,24
681360,note_on,0,0,2,,,,,,,,,,,,,,,0,,,43,21
681360,note_on,0,0,2,,,,,,,,,,,,,,,0,,,43,0
681360,note_on,126,0,2,,,,,,,,,,,,,,,0,,,55,0
681600,note_on,0,0,1,,,,,,,,,,,,,,,0,,,67,0
681600,note_on,0,0,1,,,,,,,,,,,,,,,0,,,59,0
681600,note_on,0,0,1,,,,,,,,,,,,,,,0,,,63,47
681600,note_on,0,0,1,,,,,,,,,,,,,,,0,,,67,48
681600,note_on,0,0,1,,,,,,,,,,,,,,,0,,,75,58
681600,set_tempo,240,1,0,,,,,,,,,,,,713606,,,,,,,
681600,note_on,240,0,1,,,,,,,,,,,,,,,0,,,71,0
681600,note_on,240,0,2,,,,,,,,,,,,,,,0,,,55,0
681600,note_on,0,0,2,,,,,,,,,,,,,,,0,,,50,0
681600,note_on,0,0,2,,,,,,,,,,,,,,,0,,,43,0
681600,note_on,0,0,2,,,,,,,,,,,,,,,0,,,43,25
681600,note_on,0,0,2,,,,,,,,,,,,,,,0,,,48,30
681600,control_change,0,0,2,,,,,,,,,,,,,,,0,64,0,,
681727,control_change,127,0,2,,,,,,,,,,,,,,,0,64,127,,
681840,set_tempo,240,1,0,,,,,,,,,,,,733407,,,,,,,
681840,note_on,113,0,2,,,,,,,,,,,,,,,0,,,48,0
681840,note_on,0,0,2,,,,,,,,,,,,,,,0,,,55,27
682080,set_tempo,240,1,0,,,,,,,,,,,,728332,,,,,,,
682080,note_on,0,0,1,,,,,,,,,,,,,,,0,,,67,45
682080,note_on,0,0,2,,,,,,,,,,,,,,,0,,,43,25
682080,note_on,0,0,1,,,,,,,,,,,,,,,0,,,67,0
682080,note_on,0,0,1,,,,,,,,,,,,,,,0,,,63,0
682080,note_on,0,0,1,,,,,,,,,,,,,,,0,,,74,53
682080,note_on,240,0,2,,,,,,,,,,,,,,,0,,,55,0
682080,note_on,0,0,2,,,,,,,,,,,,,,,0,,,43,0
682080,note_on,0,0,2,,,,,,,,,,,,,,,0,,,53,29
682080,note_on,0,0,1,,,,,,,,,,,,,,,0,,,62,45
682080,note_on,480,0,1,,,,,,,,,,,,,,,0,,,75,0
682151,control_change,71,0,2,,,,,,,,,,,,,,,0,64,0,,
682235,control_change,84,0,2,,,,,,,,,,,,,,,0,64,127,,
682320,note_on,0,0,2,,,,,,,,,,,,,,,0,,,55,25
682320,note_on,85,0,2,,,,,,,,,,,,,,,0,,,53,0
682320,set_tempo,240,1,0,,,,,,,,,,,,765404,,,,,,,
682360,set_tempo,40,1,0,,,,,,,,,,,,782371,,,,,,,
682560,note_on,0,0,2,,,,,,,,,,,,,,,0,,,43,0
682560,note_on,240,0,2,,,,,,,,,,,,,,,0,,,55,0
682560,note_on,0,0,2,,,,,,,,,,,,,,,0,,,51,25
682560,note_on,0,0,1,,,,,,,,,,,,,,,0,,,72,51
682560,note_on,0,0,1,,,,,,,,,,,,,,,0,,,67,43
682560,set_tempo,200,1,0,,,,,,,,,,,,743863,,,,,,,
682560,note_on,0,0,2,,,,,,,,,,,,,,,0,,,43,24
682560,note_on,480,0,1,,,,,,,,,,,,,,,0,,,74,0
682560,note_on,0,0,1,,,,,,,,,,,,,,,0,,,67,0
682560,note_on,0,0,1,,,,,,,,,,,,,,,0,,,62,0
682560,note_on,0,0,1,,,,,,,,,,,,,,,0,,,60,43
682616,control_change,56,0,2,,,,,,,,,,,,,,,0,64,0,,
682772,control_change,156,0,2,,,,,,,,,,,,,,,0,64,127,,
682800,note_on,28,0,2,,,,,,,,,,,,,,,0,,,51,0
682800,note_on,0,0,2,,,,,,,,,,,,,,,0,,,55,26
682800,set_tempo,240,1,0,,,,,,,,,,,,782371,,,,,,,
683040,note_on,0,0,1,,,,,,,,,,,,,,,0,,,69,45
683040,note_on,0,0,1,,,,,,,,,,,,,,,0,,,72,54
683040,note_on,0,0,1,,,,,,,,,,,,,,,0,,,60,0
683040,note_on,0,0,1,,,,,,,,,,,,,,,0,,,60,40
683040,note_on,0,0,1,,,,,,,,,,,,,,,0,,,67,0
683040,note_on,480,0,1,,,,,,,,,,,,,,,0,,,72,0
683040,set_tempo,240,1,0,,,,,,,,,,,,800000,,,,,,,
683040,note_on,0,0,2,,,,,,,,,,,,,,,0,,,51,35
683040,note_on,0,0,2,,,,,,,,,,,,,,,0,,,42,25
683040,note_on,0,0,2,,,,,,,,,,,,,,,0,,,43,0
683040,note_on,240,0,2,,,,,,,,,,,,,,,0,,,55,0
683082,control_change,42,0,2,,,,,,,,,,,,,,,0,64,0,,
683139,control_change,57,0,2,,,,,,,,,,,,,,,0,64,127,,
683280,set_tempo,240,1,0,,,,,,,,,,,,863309,,,,,,,
683280,note_on,0,0,2,,,,,,,,,,,,,,,0,,,54,30
683280,note_on,141,0,2,,,,,,,,,,,,,,,0,,,51,0
683520,set_tempo,240,1,0,,,,,,,,,,,,743863,,,,,,,
683520,note_on,480,0,1,,,,,,,,,,,,,,,0,,,72,0
683520,note_on,0,0,1,,,,,,,,,,,,,,,0,,,69,0
683520,note_on,0,0,1,,,,,,,,,,,,,,,0,,,60,0
683520,note_on,0,0,1,,,,,,,,,,,,,,,0,,,65,40
683520,note_on,0,0,1,,,,,,,,,,,,,,,0,,,60,40
683520,note_on,0,0,1,,,,,,,,,,,,,,,0,,,69,45
683520,note_on,0,0,1,,,,,,,,,,,,,,,0,,,72,54
683520,note_on,0,0,2,,,,,,,,,,,,,,,0,,,41,27
683520,note_on,0,0,2,,,,,,,,,,,,,,,0,,,51,32
683520,control_change,0,0,2,,,,,,,,,,,,,,,0,64,0,,
683520,note_on,0,0,2,,,,,,,,,,,,,,,0,,,42,0
683520,note_on,240,0,2,,,,,,,,,,,,,,,0,,,54,0
683634,control_change,114,0,2,,,,,,,,,,,,,,,0,64,127,,
683760,set_tempo,240,1,0,,,,,,,,,,,,738643,,,,,,,
683760,note_on,126,0,2,,,,,,,,,,,,,,,0,,,53,28
683880,note_on,120,0,2,,,,,,,,,,,,,,,0,,,53,0
684000,note_on,120,0,2,,,,,,,,,,,,,,,0,,,53,29
684000,set_tempo,240,1,0,,,,,,,,,,,,728332,,,,,,,
684120,note_on,120,0,2,,,,,,,,,,,,,,,0,,,53,0
684240,note_on,120,0,2,,,,,,,,,,,,,,,0,,,53,27
684360,note_on,120,0,2,,,,,,,,,,,,,,,0,,,53,0
684480,note_on,120,0,2,,,,,,,,,,,,,,,0,,,53,30
684600,note_on,120,0,2,,,,,,,,,,,,,,,0,,,53,0
684720,note_on,120,0,2,,,,,,,,,,,,,,,0,,,53,27
684840,note_on,120,0,2,,,,,,,,,,,,,,,0,,,53,0
684960,note_on,0,0,1,,,,,,,,,,,,,,,0,,,65,41
684960,note_on,0,0,2,,,,,,,,,,,,,,,0,,,53,29
684960,control_change,0,0,2,,,,,,,,,,,,,,,0,64,0,,
684960,note_on,0,0,1,,,,,,,,,,,,,,,0,,,65,0
684960,note_on,0,0,1,,,,,,,,,,,,,,,0,,,70,49
684960,note_on,0,0,1,,,,,,,,,,,,,,,0,,,58,36
684960,note_on,0,0,1,,,,,,,,,,,,,,,0,,,69,0
684960,note_on,0,0,1,,,,,,,,,,,,,,,0,,,60,0
684960,note_on,0,0,2,,,,,,,,,,,,,,,0,,,50,24
684960,note_on,0,0,2,,,,,,,,,,,,,,,0,,,41,21
684960,note_on,1440,0,1,,,,,,,,,,,,,,,0,,,72,0
684960,note_on,120,0,2,,,,,,,,,,,,,,,0,,,51,0
684960,note_on,0,0,2,,,,,,,,,,,,,,,0,,,41,0
685074,control_change,114,0,2,,,,,,,,,,,,,,,0,64,127,,
685200,note_on,0,0,1,,,,,,,,,,,,,,,0,,,65,37
685200,note_on,240,0,1,,,,,,,,,,,,,,,0,,,70,0
685200,note_on,126,0,2,,,,,,,,,,,,,,,0,,,53,0
685200,note_on,0,0,2,,,,,,,,,,,,,,,0,,,50,0
685200,note_on,0,0,2,,,,,,,,,,,,,,,0,,,41,0
685200,note_on,0,0,2,,,,,,,,,,,,,,,0,,,41,21
685200,note_on,0,0,2,,,,,,,,,,,,,,,0,,,48,24
685200,note_on,0,0,2,,,,,,,,,,,,,,,0,,,53,27
685200,note_on,0,0,1,,,,,,,,,,,,,,,0,,,57,33
685200,note_on,0,0,1,,,,,,,,,,,,,,,0,,,58,0
685200,note_on,0,0,1,,,,,,,,,,,,,,,0,,,65,0
685200,note_on,0,0,1,,,,,,,,,,,,,,,0,,,69,45
685200,set_tempo,1200,1,0,,,,,,,,,,,,754527,,,,,,,
685440,set_tempo,240,1,0,,,,,,,,,,,,723327,,,,,,,
685440,note_on,0,0,1,,,,,,,,,,,,,,,0,,,65,0
685440,note_on,0,0,1,,,,,,,,,,,,,,,0,,,57,0
685440,note_on,0,0,1,,,,,,,,,,,,,,,0,,,62,45
685440,note_on,240,0,1,,,,,,,,,,,,,,,0,,,69,0
685440,note_on,0,0,1,,,,,,,,,,,,,,,0,,,65,49
685440,note_on,0,0,2,,,,,,,,,,,,,,,0,,,46,30
685440,control_change,0,0,2,,,,,,,,,,,,,,,0,64,0,,
685440,note_on,0,0,1,,,,,,,,,,,,,,,0,,,74,58
685440,note_on,0,0,2,,,,,,,,,,,,,,,0,,,41,0
685440,note_on,0,0,2,,,,,,,,,,,,,,,0,,,48,0
685440,note_on,240,0,2,,,,,,,,,,,,,,,0,,,53,0
685440,note_on,0,0,2,,,,,,,,,,,,,,,0,,,41,25
685567,control_change,127,0,2,,,,,,,,,,,,,,,0,64,127,,
685680,note_on,113,0,2,,,,,,,,,,,,,,,0,,,46,0
685680,set_tempo,240,1,0,,,,,,,,,,,,754527,,,,,,,
685680,note_on,0,0,2,,,,,,,,,,,,,,,0,,,53,27
685920,note_on,0,0,2,,,,,,,,,,,,,,,0,,,41,23
685920,note_on,0,0,2,,,,,,,,,,,,,,,0,,,48,27
685920,note_on,480,0,1,,,,,,,,,,,,,,,0,,,74,0
685920,set_tempo,240,1,0,,,,,,,,,,,,728332,,,,,,,
685920,note_on,240,0,2,,,,,,,,,,,,,,,0,,,53,0
685920,note_on,0,0,2,,,,,,,,,,,,,,,0,,,41,0
685920,note_on,0,0,1,,,,,,,,,,,,,,,0,,,65,0
685920,note_on,0,0,1,,,,,,,,,,,,,,,0,,,69,50
685920,note_on,0,0,1,,,,,,,,,,,,,,,0,,,65,42
685920,note_on,0,0,1,,,,,,,,,,,,,,,0,,,57,42
685920,note_on,0,0,1,,,,,,,,,,,,,,,0,,,62,0
685991,control_change,71,0,2,,,,,,,,,,,,,,,0,64,0,,
686075,control_change,84,0,2,,,,,,,,,,,,,,,0,64,127,,
686160,set_tempo,240,1,0,,,,,,,,,,,,765404,,,,,,,
686160,note_on,85,0,2,,,,,,,,,,,,,,,0,,,48,0
686160,note_on,0,0,2,,,,,,,,,,,,,,,0,,,53,23
686200,set_tempo,40,1,0,,,,,,,,,,,,782371,,,,,,,
686400,set_tempo,200,1,0,,,,,,,,,,,,743863,,,,,,,
686400,note_on,0,0,2,,,,,,,,,,,,,,,0,,,50,26
686400,note_on,240,0,2,,,,,,,,,,,,,,,0,,,53,0
686400,note_on,480,0,1,,,,,,,,,,,,,,,0,,,69,0
686400,note_on,0,0,1,,,,,,,,,,,,,,,0,,,65,0
686400,note_on,0,0,1,,,,,,,,,,,,,,,0,,,57,0
686400,note_on,0,0,1,,,,,,,,,,,,,,,0,,,58,45
686400,note_on,0,0,1,,,,,,,,,,,,,,,0,,,65,45
686400,note_on,0,0,1,,,,,,,,,,,,,,,0,,,70,53
686400,note_on,0,0,2,,,,,,,,,,,,,,,0,,,41,0
686400,note_on,0,0,2,,,,,,,,,,,,,,,0,,,41,25
686456,control_change,56,0,2,,,,,,,,,,,,,,,0,64,0,,
686612,control_change,156,0,2,,,,,,,,,,,,,,,0,64,127,,
686640,note_on,28,0,2,,,,,,,,,,,,,,,0,,,50,0
686640,note_on,0,0,2,,,,,,,,,,,,,,,0,,,53,24
686640,set_tempo,240,1,0,,,,,,,,,,,,782371,,,,,,,
686880,note_on,0,0,2,,,,,,,,,,,,,,,0,,,51,31
686880,note_on,0,0,2,,,,,,,,,,,,,,,0,,,41,22
686880,note_on,240,0,2,,,,,,,,,,,,,,,0,,,53,0
686880,note_on,0,0,1,,,,,,,,,,,,,,,0,,,72,48
686880,note_on,0,0,1,,,,,,,,,,,,,,,0,,,69,40
686880,note_on,0,0,1,,,,,,,,,,,,,,,0,,,60,36
686880,note_on,0,0,2,,,,,,,,,,,,,,,0,,,41,0
686880,note_on,0,0,1,,,,,,,,,,,,,,,0,,,58,0
686880,note_on,0,0,1,,,,,,,,,,,,,,,0,,,65,0
686880,note_on,480,0,1,,,,,,,,,,,,,,,0,,,70,0
686880,note_on,0,0,1,,,,,,,,,,,,,,,0,,,65,40
686922,control_change,42,0,2,,,,,,,,,,,,,,,0,64,0,,
686979,control_change,57,0,2,,,,,,,,,,,,,,,0,64,127,,
687120,note_on,0,0,2,,,,,,,,,,,,,,,0,,,53,27
687120,note_on,141,0,2,,,,,,,,,,,,,,,0,,,51,0
687120,set_tempo,480,1,0,,,,,,,,,,,,800213,,,,,,,
687360,note_on,240,0,2,,,,,,,,,,,,,,,0,,,53,0
687360,set_tempo,240,1,0,,,,,,,,,,,,782371,,,,,,,
687360,note_on,0,0,2,,,,,,,,,,,,,,,0,,,41,24
687360,note_on,0,0,2,,,,,,,,,,,,,,,0,,,51,28
687360,control_change,0,0,2,,,,,,,,,,,,,,,0,64,0,,
687360,note_on,0,0,2,,,,,,,,,,,,,,,0,,,53,28
687360,note_on,0,0,2,,,,,,,,,,,,,,,0,,,41,0
687360,note_on,0,0,1,,,,,,,,,,,,,,,0,,,72,48
687360,note_on,0,0,1,,,,,,,,,,,,,,,0,,,69,40
687360,note_on,0,0,1,,,,,,,,,,,,,,,0,,,60,36
687360,note_on,0,0,1,,,,,,,,,,,,,,,0,,,65,36
687360,note_on,0,0,1,,,,,,,,,,,,,,,0,,,69,0
687360,note_on,0,0,1,,,,,,,,,,,,,,,0,,,60,0
687360,note_on,0,0,1,,,,,,,,,,,,,,,0,,,65,0
687360,note_on,480,0,1,,,,,,,,,,,,,,,0,,,72,0
687474,control_change,114,0,2,,,,,,,,,,,,,,,0,64,127,,
688320,note_on,0,0,2,,,,,,,,,,,,,,,0,,,46,25
688320,note_on,846,0,2,,,,,,,,,,,,,,,0,,,51,0
688320,note_on,0,0,2,,,,,,,,,,,,,,,0,,,41,0
688320,note_on,0,0,2,,,,,,,,,,,,,,,0,,,50,25
688320,note_on,0,0,1,,,,,,,,,,,,,,,0,,,70,43
688320,note_on,0,0,1,,,,,,,,,,,,,,,0,,,58,43
688320,note_on,0,0,1,,,,,,,,,,,,,,,0,,,60,0
688320,note_on,0,0,1,,,,,,,,,,,,,,,0,,,69,0
688320,note_on,960,0,1,,,,,,,,,,,,,,,0,,,72,0
688320,control_change,0,0,2,,,,,,,,,,,,,,,0,64,0,,
688560,note_on,0,0,1,,,,,,,,,,,,,,,0,,,65,0
688560,note_on,0,0,1,,,,,,,,,,,,,,,0,,,58,0
688560,note_on,240,0,1,,,,,,,,,,,,,,,0,,,70,0
688560,note_on,0,0,2,,,,,,,,,,,,,,,0,,,53,0
688560,note_on,0,0,2,,,,,,,,,,,,,,,0,,,46,0
688560,note_on,240,0,2,,,,,,,,,,,,,,,0,,,50,0
688800,note_on,240,0,2,,,,,,,,,,,,,,,0,,,34,30
688800,set_tempo,1440,1,0,,,,,,,,,,,,728332,,,,,,,
689040,note_on,240,0,2,,,,,,,,,,,,,,,0,,,34,0
689280,set_tempo,480,1,0,,,,,,,,,,,,825196,,,,,,,
689280,note_on,240,0,2,,,,,,,,,,,,,,,0,,,34,30
689340,note_on,60,0,2,,,,,,,,,,,,,,,0,,,35,26
689344,set_tempo,64,1,0,,,,,,,,,,,,818777,,,,,,,
689370,note_on,30,0,2,,,,,,,,,,,,,,,0,,,34,0
689400,set_tempo,56,1,0,,,,,,,,,,,,812458,,,,,,,
689400,note_on,30,0,2,,,,,,,,,,,,,,,0,,,34,27
689430,note_on,30,0,2,,,,,,,,,,,,,,,0,,,35,0
689460,note_on,30,0,2,,,,,,,,,,,,,,,0,,,35,25
689464,set_tempo,64,1,0,,,,,,,,,,,,806235,,,,,,,
689490,note_on,30,0,2,,,,,,,,,,,,,,,0,,,34,0
689520,set_tempo,56,1,0,,,,,,,,,,,,800213,,,,,,,
689520,note_on,30,0,2,,,,,,,,,,,,,,,0,,,34,27
689550,note_on,30,0,2,,,,,,,,,,,,,,,0,,,35,0
689580,note_on,30,0,2,,,,,,,,,,,,,,,0,,,35,25
689584,set_tempo,64,1,0,,,,,,,,,,,,794176,,,,,,,
689610,note_on,30,0,2,,,,,,,,,,,,,,,0,,,34,0
689640,set_tempo,56,1,0,,,,,,,,,,,,788229,,,,,,,
689640,note_on,30,0,2,,,,,,,,,,,,,,,0,,,34,28
689652,set_tempo,12,1,0,,,,,,,,,,,,765404,,,,,,,
689664,set_tempo,12,1,0,,,,,,,,,,,,759878,,,,,,,
689670,note_on,30,0,2,,,,,,,,,,,,,,,0,,,35,0
689700,note_on,30,0,2,,,,,,,,,,,,,,,0,,,35,27
689720,set_tempo,56,1,0,,,,,,,,,,,,765404,,,,,,,
689730,note_on,30,0,2,,,,,,,,,,,,,,,0,,,34,0
689732,set_tempo,12,1,0,,,,,,,,,,,,776699,,,,,,,
689760,note_on,30,0,2,,,,,,,,,,,,,,,0,,,34,29
689772,set_tempo,40,1,0,,,,,,,,,,,,765404,,,,,,,
689790,note_on,30,0,2,,,,,,,,,,,,,,,0,,,35,0
689800,set_tempo,28,1,0,,,,,,,,,,,,759878,,,,,,,
689812,set_tempo,12,1,0,,,,,,,,,,,,749157,,,,,,,
689820,note_on,30,0,2,,,,,,,,,,,,,,,0,,,35,26
689824,set_tempo,12,1,0,,,,,,,,,,,,743863,,,,,,,
689840,set_tempo,16,1,0,,,,,,,,,,,,754527,,,,,,,
689850,note_on,30,0,2,,,,,,,,,,,,,,,0,,,34,0
689852,set_tempo,12,1,0,,,,,,,,,,,,759878,,,,,,,
689864,set_tempo,12,1,0,,,,,,,,,,,,771010,,,,,,,
689880,set_tempo,16,1,0,,,,,,,,,,,,765404,,,,,,,
689880,note_on,30,0,2,,,,,,,,,,,,,,,0,,,34,29
689892,set_tempo,12,1,0,,,,,,,,,,,,754527,,,,,,,
689904,set_tempo,12,1,0,,,,,,,,,,,,749157,,,,,,,
689910,note_on,30,0,2,,,,,,,,,,,,,,,0,,,35,0
689920,set_tempo,16,1,0,,,,,,,,,,,,743863,,,,,,,
689932,set_tempo,12,1,0,,,,,,,,,,,,738643,,,,,,,
689940,note_on,30,0,2,,,,,,,,,,,,,,,0,,,35,25
689970,note_on,30,0,2,,,,,,,,,,,,,,,0,,,34,0
689972,set_tempo,40,1,0,,,,,,,,,,,,749157,,,,,,,
689984,set_tempo,12,1,0,,,,,,,,,,,,759878,,,,,,,
690000,note_on,30,0,2,,,,,,,,,,,,,,,0,,,34,28
690000,set_tempo,16,1,0,,,,,,,,,,,,765404,,,,,,,
690012,set_tempo,12,1,0,,,,,,,,,,,,771010,,,,,,,
690030,note_on,30,0,2,,,,,,,,,,,,,,,0,,,35,0
690040,set_tempo,28,1,0,,,,,,,,,,,,765404,,,,,,,
690052,set_tempo,12,1,0,,,,,,,,,,,,754527,,,,,,,
690060,note_on,30,0,2,,,,,,,,,,,,,,,0,,,35,26
690064,set_tempo,12,1,0,,,,,,,,,,,,749157,,,,,,,
690080,set_tempo,16,1,0,,,,,,,,,,,,743863,,,,,,,
690090,note_on,30,0,2,,,,,,,,,,,,,,,0,,,34,0
690092,set_tempo,12,1,0,,,,,,,,,,,,738643,,,,,,,
690104,set_tempo,12,1,0,,,,,,,,,,,,743863,,,,,,,
690120,note_on,30,0,2,,,,,,,,,,,,,,,0,,,34,27
690120,set_tempo,16,1,0,,,,,,,,,,,,754527,,,,,,,
690132,set_tempo,12,1,0,,,,,,,,,,,,759878,,,,,,,
690150,note_on,30,0,2,,,,,,,,,,,,,,,0,,,35,0
690160,set_tempo,28,1,0,,,,,,,,,,,,765404,,,,,,,
690180,note_on,30,0,2,,,,,,,,,,,,,,,0,,,35,25
690184,set_tempo,24,1,0,,,,,,,,,,,,754527,,,,,,,
690200,set_tempo,16,1,0,,,,,,,,,,,,749157,,,,,,,
690210,note_on,30,0,2,,,,,,,,,,,,,,,0,,,34,0
690212,set_tempo,12,1,0,,,,,,,,,,,,738643,,,,,,,
690224,set_tempo,12,1,0,,,,,,,,,,,,743863,,,,,,,
690240,set_tempo,16,1,0,,,,,,,,,,,,765404,,,,,,,
690240,note_on,30,0,2,,,,,,,,,,,,,,,0,,,34,29
690252,set_tempo,12,1,0,,,,,,,,,,,,776699,,,,,,,
690264,set_tempo,12,1,0,,,,,,,,,,,,782371,,,,,,,
690270,note_on,30,0,2,,,,,,,,,,,,,,,0,,,35,0
690280,set_tempo,16,1,0,,,,,,,,,,,,776699,,,,,,,
690292,set_tempo,12,1,0,,,,,,,,,,,,759878,,,,,,,
690300,note_on,30,0,2,,,,,,,,,,,,,,,0,,,35,26
690304,set_tempo,12,1,0,,,,,,,,,,,,754527,,,,,,,
690320,set_tempo,16,1,0,,,,,,,,,,,,749157,,,,,,,
690330,note_on,30,0,2,,,,,,,,,,,,,,,0,,,34,0
690332,set_tempo,12,1,0,,,,,,,,,,,,743863,,,,,,,
690344,set_tempo,12,1,0,,,,,,,,,,,,749157,,,,,,,
690360,set_tempo,16,1,0,,,,,,,,,,,,765404,,,,,,,
690360,note_on,30,0,2,,,,,,,,,,,,,,,0,,,34,28
690372,set_tempo,12,1,0,,,,,,,,,,,,771010,,,,,,,
690390,note_on,30,0,2,,,,,,,,,,,,,,,0,,,35,0
690400,set_tempo,28,1,0,,,,,,,,,,,,759878,,,,,,,
690412,set_tempo,12,1,0,,,,,,,,,,,,749157,,,,,,,
690420,note_on,30,0,2,,,,,,,,,,,,,,,0,,,35,26
690424,set_tempo,12,1,0,,,,,,,,,,,,743863,,,,,,,
690440,set_tempo,16,1,0,,,,,,,,,,,,738643,,,,,,,
690450,note_on,30,0,2,,,,,,,,,,,,,,,0,,,34,0
690452,set_tempo,12,1,0,,,,,,,,,,,,743863,,,,,,,
690464,set_tempo,12,1,0,,,,,,,,,,,,754527,,,,,,,
690480,note_on,30,0,2,,,,,,,,,,,,,,,0,,,34,28
690480,set_tempo,16,1,0,,,,,,,,,,,,759878,,,,,,,
690492,set_tempo,12,1,0,,,,,,,,,,,,765404,,,,,,,
690510,note_on,30,0,2,,,,,,,,,,,,,,,0,,,35,0
690532,set_tempo,40,1,0,,,,,,,,,,,,754527,,,,,,,
690540,note_on,30,0,2,,,,,,,,,,,,,,,0,,,35,25
690544,set_tempo,12,1,0,,,,,,,,,,,,749157,,,,,,,
690560,set_tempo,16,1,0,,,,,,,,,,,,743863,,,,,,,
690570,note_on,30,0,2,,,,,,,,,,,,,,,0,,,34,0
690600,note_on,30,0,2,,,,,,,,,,,,,,,0,,,34,28
690612,set_tempo,52,1,0,,,,,,,,,,,,754527,,,,,,,
690624,set_tempo,12,1,0,,,,,,,,,,,,765404,,,,,,,
690630,note_on,30,0,2,,,,,,,,,,,,,,,0,,,35,0
690660,note_on,30,0,2,,,,,,,,,,,,,,,0,,,35,25
690680,set_tempo,56,1,0,,,,,,,,,,,,681431,,,,,,,
690690,note_on,30,0,2,,,,,,,,,,,,,,,0,,,34,0
690720,set_tempo,40,1,0,,,,,,,,,,,,800000,,,,,,,
690720,note_on,30,0,2,,,,,,,,,,,,,,,0,,,34,30
690720,note_on,2160,0,1,,,,,,,,,,,,,,,0,,,70,51
690743,control_change,23,0,2,,,,,,,,,,,,,,,0,64,127,,
690750,note_on,7,0,2,,,,,,,,,,,,,,,0,,,35,0
690760,set_tempo,40,1,0,,,,,,,,,,,,805369,,,,,,,
690800,set_tempo,40,1,0,,,,,,,,,,,,810811,,,,,,,
690820,set_tempo,20,1,0,,,,,,,,,,,,816327,,,,,,,
690840,note_on,90,0,2,,,,,,,,,,,,,,,0,,,33,26
690860,set_tempo,40,1,0,,,,,,,,,,,,821918,,,,,,,
690860,note_on,20,0,2,,,,,,,,,,,,,,,0,,,34,0
690880,set_tempo,20,1,0,,,,,,,,,,,,827586,,,,,,,
690920,set_tempo,40,1,0,,,,,,,,,,,,833333,,,,,,,
690960,note_on,100,0,2,,,,,,,,,,,,,,,0,,,32,30
690960,set_tempo,40,1,0,,,,,,,,,,,,839161,,,,,,,
690980,note_on,20,0,2,,,,,,,,,,,,,,,0,,,33,0
690980,set_tempo,20,1,0,,,,,,,,,,,,845070,,,,,,,
691020,set_tempo,40,1,0,,,,,,,,,,,,851064,,,,,,,
691040,set_tempo,20,1,0,,,,,,,,,,,,857143,,,,,,,
691080,note_on,100,0,2,,,,,,,,,,,,,,,0,,,31,26
691080,set_tempo,40,1,0,,,,,,,,,,,,863309,,,,,,,
691100,note_on,20,0,2,,,,,,,,,,,,,,,0,,,32,0
691120,set_tempo,40,1,0,,,,,,,,,,,,869565,,,,,,,
691140,set_tempo,20,1,0,,,,,,,,,,,,875912,,,,,,,
691180,set_tempo,40,1,0,,,,,,,,,,,,882353,,,,,,,
691200,note_on,480,0,1,,,,,,,,,,,,,,,0,,,70,0
691200,note_on,0,0,1,,,,,,,,,,,,,,,0,,,70,52
691200,set_tempo,20,1,0,,,,,,,,,,,,888889,,,,,,,
691200,note_on,100,0,2,,,,,,,,,,,,,,,0,,,30,30
691211,control_change,11,0,2,,,,,,,,,,,,,,,0,64,0,,
691220,note_on,9,0,2,,,,,,,,,,,,,,,0,,,31,0
691234,control_change,14,0,2,,,,,,,,,,,,,,,0,64,127,,
691260,note_on,26,0,2,,,,,,,,,,,,,,,0,,,30,0
691320,note_on,60,0,2,,,,,,,,,,,,,,,0,,,49,26
691320,set_tempo,120,1,0,,,,,,,,,,,,754717,,,,,,,
691440,note_on,0,0,2,,,,,,,,,,,,,,,0,,,54,26
691440,note_on,120,0,2,,,,,,,,,,,,,,,0,,,49,0
691440,set_tempo,120,1,0,,,,,,,,,,,,731440,,,,,,,
691560,note_on,120,0,2,,,,,,,,,,,,,,,0,,,54,0
691560,note_on,0,0,2,,,,,,,,,,,,,,,0,,,49,26
691620,set_tempo,180,1,0,,,,,,,,,,,,722892,,,,,,,
691680,note_on,0,0,1,,,,,,,,,,,,,,,0,,,68,51
691680,note_on,480,0,1,,,,,,,,,,,,,,,0,,,70,0
691680,note_on,120,0,2,,,,,,,,,,,,,,,0,,,49,0
691680,note_on,0,0,2,,,,,,,,,,,,,,,0,,,42,31
691714,control_change,34,0,2,,,,,,,,,,,,,,,0,64,0,,
691749,control_change,35,0,2,,,,,,,,,,,,,,,0,64,127,,
691800,note_on,0,0,2,,,,,,,,,,,,,,,0,,,49,26
691800,note_on,51,0,2,,,,,,,,,,,,,,,0,,,42,0
691860,set_tempo,240,1,0,,,,,,,,,,,,718563,,,,,,,
691920,note_on,0,0,2,,,,,,,,,,,,,,,0,,,53,26
691920,note_on,120,0,2,,,,,,,,,,,,,,,0,,,49,0
692040,note_on,0,0,2,,,,,,,,,,,,,,,0,,,49,25
692040,note_on,120,0,2,,,,,,,,,,,,,,,0,,,53,0
692100,set_tempo,240,1,0,,,,,,,,,,,,714286,,,,,,,
692160,note_on,0,0,1,,,,,,,,,,,,,,,0,,,70,52
692160,note_on,0,0,2,,,,,,,,,,,,,,,0,,,42,30
692160,note_on,120,0,2,,,,,,,,,,,,,,,0,,,49,0
692160,note_on,480,0,1,,,,,,,,,,,,,,,0,,,68,0
692177,control_change,17,0,2,,,,,,,,,,,,,,,0,64,0,,
692223,control_change,46,0,2,,,,,,,,,,,,,,,0,64,127,,
692280,note_on,0,0,2,,,,,,,,,,,,,,,0,,,49,27
692280,note_on,57,0,2,,,,,,,,,,,,,,,0,,,42,0
692340,set_tempo,240,1,0,,,,,,,,,,,,718563,,,,,,,
692400,note_on,120,0,2,,,,,,,,,,,,,,,0,,,49,0
692400,note_on,0,0,2,,,,,,,,,,,,,,,0,,,54,27
692520,note_on,0,0,2,,,,,,,,,,,,,,,0,,,49,27
692520,note_on,120,0,2,,,,,,,,,,,,,,,0,,,54,0
692580,set_tempo,240,1,0,,,,,,,,,,,,722892,,,,,,,
692600,set_tempo,20,1,0,,,,,,,,,,,,717618,,,,,,,
692629,control_change,109,0,2,,,,,,,,,,,,,,,0,64,0,,
692640,note_on,11,0,2,,,,,,,,,,,,,,,0,,,49,0
692640,note_on,480,0,1,,,,,,,,,,,,,,,0,,,70,0
692640,note_on,0,0,1,,,,,,,,,,,,,,,0,,,71,50
692640,set_tempo,40,1,0,,,,,,,,,,,,713182,,,,,,,
692640,note_on,0,0,2,,,,,,,,,,,,,,,0,,,42,30
692680,control_change,40,0,2,,,,,,,,,,,,,,,0,64,127,,
692760,note_on,80,0,2,,,,,,,,,,,,,,,0,,,42,0
692760,note_on,0,0,2,,,,,,,,,,,,,,,0,,,49,27
692880,note_on,0,0,2,,,,,,,,,,,,,,,0,,,56,27
692880,note_on,120,0,2,,,,,,,,,,,,,,,0,,,49,0
693000,note_on,0,0,2,,,,,,,,,,,,,,,0,,,49,27
693000,note_on,120,0,2,,,,,,,,,,,,,,,0,,,56,0
693120,control_change,0,0,2,,,,,,,,,,,,,,,0,64,0,,
693120,note_on,0,0,2,,,,,,,,,,,,,,,0,,,42,33
693120,set_tempo,480,1,0,,,,,,,,,,,,717961,,,,,,,
693120,note_on,0,0,1,,,,,,,,,,,,,,,0,,,73,52
693120,note_on,480,0,1,,,,,,,,,,,,,,,0,,,71,0
693120,note_on,120,0,2,,,,,,,,,,,,,,,0,,,49,0
693166,control_change,46,0,2,,,,,,,,,,,,,,,0,64,127,,
693240,note_on,0,0,2,,,,,,,,,,,,,,,0,,,49,27
693240,note_on,74,0,2,,,,,,,,,,,,,,,0,,,42,0
693360,note_on,0,0,2,,,,,,,,,,,,,,,0,,,58,27
693360,note_on,120,0,2,,,,,,,,,,,,,,,0,,,49,0
693480,note_on,120,0,2,,,,,,,,,,,,,,,0,,,58,0
693480,note_on,0,0,2,,,,,,,,,,,,,,,0,,,49,27
693560,set_tempo,440,1,0,,,,,,,,,,,,713012,,,,,,,
693600,note_on,120,0,2,,,,,,,,,,,,,,,0,,,49,0
693600,note_on,0,0,2,,,,,,,,,,,,,,,0,,,42,31
693720,note_on,120,0,2,,,,,,,,,,,,,,,0,,,42,0
693720,note_on,0,0,2,,,,,,,,,,,,,,,0,,,49,27
693840,note_on,120,0,2,,,,,,,,,,,,,,,0,,,49,0
693840,set_tempo,280,1,0,,,,,,,,,,,,707965,,,,,,,
693840,note_on,0,0,2,,,,,,,,,,,,,,,0,,,58,27
693960,note_on,120,0,2,,,,,,,,,,,,,,,0,,,58,0
693960,note_on,0,0,2,,,,,,,,,,,,,,,0,,,49,27
694080,set_tempo,240,1,0,,,,,,,,,,,,703317,,,,,,,
694080,note_on,0,0,2,,,,,,,,,,,,,,,0,,,42,30
694080,note_on,120,0,2,,,,,,,,,,,,,,,0,,,49,0
694200,note_on,120,0,2,,,,,,,,,,,,,,,0,,,42,0
694200,note_on,0,0,2,,,,,,,,,,,,,,,0,,,49,27
694320,note_on,120,0,2,,,,,,,,,,,,,,,0,,,49,0
694320,set_tempo,240,1,0,,,,,,,,,,,,707965,,,,,,,
694320,note_on,0,0,2,,,,,,,,,,,,,,,0,,,58,27
694440,note_on,120,0,2,,,,,,,,,,,,,,,0,,,58,0
694440,note_on,0,0,2,,,,,,,,,,,,,,,0,,,49,27
694560,set_tempo,240,1,0,,,,,,,,,,,,713012,,,,,,,
694560,note_on,1440,0,1,,,,,,,,,,,,,,,0,,,73,0
694560,note_on,0,0,1,,,,,,,,,,,,,,,0,,,71,56
694560,note_on,0,0,2,,,,,,,,,,,,,,,0,,,42,31
694560,note_on,120,0,2,,,,,,,,,,,,,,,0,,,49,0
694629,control_change,69,0,2,,,,,,,,,,,,,,,0,64,0,,
694663,control_change,34,0,2,,,,,,,,,,,,,,,0,64,127,,
694680,note_on,0,0,2,,,,,,,,,,,,,,,0,,,49,25
694680,note_on,17,0,2,,,,,,,,,,,,,,,0,,,42,0
694800,note_on,240,0,1,,,,,,,,,,,,,,,0,,,71,0
694800,note_on,0,0,1,,,,,,,,,,,,,,,0,,,70,53
694800,note_on,120,0,2,,,,,,,,,,,,,,,0,,,49,0
694800,note_on,0,0,2,,,,,,,,,,,,,,,0,,,54,28
694920,note_on,0,0,2,,,,,,,,,,,,,,,0,,,49,27
694920,note_on,120,0,2,,,,,,,,,,,,,,,0,,,54,0
695040,note_on,120,0,2,,,,,,,,,,,,,,,0,,,49,0
695040,note_on,0,0,1,,,,,,,,,,,,,,,0,,,75,58
695040,note_on,0,0,2,,,,,,,,,,,,,,,0,,,42,33
695040,set_tempo,480,1,0,,,,,,,,,,,,713012,,,,,,,
695040,note_on,240,0,1,,,,,,,,,,,,,,,0,,,70,0
695040,control_change,0,0,2,,,,,,,,,,,,,,,0,64,0,,
695080,control_change,40,0,2,,,,,,,,,,,,,,,0,64,127,,
695160,note_on,80,0,2,,,,,,,,,,,,,,,0,,,42,0
695160,note_on,0,0,2,,,,,,,,,,,,,,,0,,,51,27
695280,note_on,120,0,2,,,,,,,,,,,,,,,0,,,51,0
695280,note_on,240,0,1,,,,,,,,,,,,,,,0,,,75,0
695280,note_on,0,0,2,,,,,,,,,,,,,,,0,,,59,27
695400,note_on,120,0,2,,,,,,,,,,,,,,,0,,,59,0
695400,note_on,0,0,2,,,,,,,,,,,,,,,0,,,51,27
695520,set_tempo,480,1,0,,,,,,,,,,,,703317,,,,,,,
695520,note_on,0,0,2,,,,,,,,,,,,,,,0,,,42,32
695520,note_on,240,0,1,,,,,,,,,,,,,,,0,,,75,54
695520,note_on,120,0,2,,,,,,,,,,,,,,,0,,,51,0
695640,note_on,0,0,2,,,,,,,,,,,,,,,0,,,51,27
695640,note_on,120,0,2,,,,,,,,,,,,,,,0,,,42,0
695760,note_on,0,0,2,,,,,,,,,,,,,,,0,,,59,27
695760,note_on,120,0,2,,,,,,,,,,,,,,,0,,,51,0
695760,note_on,240,0,1,,,,,,,,,,,,,,,0,,,75,0
695880,note_on,120,0,2,,,,,,,,,,,,,,,0,,,59,0
695880,note_on,0,0,2,,,,,,,,,,,,,,,0,,,51,27
696000,note_on,240,0,1,,,,,,,,,,,,,,,0,,,75,54
696000,note_on,120,0,2,,,,,,,,,,,,,,,0,,,51,0
696000,note_on,0,0,2,,,,,,,,,,,,,,,0,,,42,32
696120,note_on,120,0,2,,,,,,,,,,,,,,,0,,,42,0
696120,note_on,0,0,2,,,,,,,,,,,,,,,0,,,51,27
696240,note_on,240,0,1,,,,,,,,,,,,,,,0,,,75,0
696240,note_on,120,0,2,,,,,,,,,,,,,,,0,,,51,0
696240,note_on,0,0,2,,,,,,,,,,,,,,,0,,,59,27
696360,note_on,0,0,2,,,,,,,,,,,,,,,0,,,51,27
696360,note_on,120,0,2,,,,,,,,,,,,,,,0,,,59,0
696480,note_on,240,0,1,,,,,,,,,,,,,,,0,,,77,56
696480,set_tempo,960,1,0,,,,,,,,,,,,744048,,,,,,,
696480,note_on,0,0,2,,,,,,,,,,,,,,,0,,,42,33
696480,note_on,120,0,2,,,,,,,,,,,,,,,0,,,51,0
696486,control_change,6,0,2,,,,,,,,,,,,,,,0,64,0,,
696526,control_change,40,0,2,,,,,,,,,,,,,,,0,64,127,,
696600,note_on,74,0,2,,,,,,,,,,,,,,,0,,,42,0
696600,note_on,0,0,2,,,,,,,,,,,,,,,0,,,51,27
696720,note_on,0,0,2,,,,,,,,,,,,,,,0,,,59,31
696720,note_on,120,0,2,,,,,,,,,,,,,,,0,,,51,0
696720,set_tempo,240,1,0,,,,,,,,,,,,717961,,,,,,,
696720,note_on,0,0,1,,,,,,,,,,,,,,,0,,,78,51
696720,note_on,240,0,1,,,,,,,,,,,,,,,0,,,77,0
696840,note_on,0,0,2,,,,,,,,,,,,,,,0,,,51,27
696840,note_on,120,0,2,,,,,,,,,,,,,,,0,,,59,0
696960,note_on,240,0,1,,,,,,,,,,,,,,,0,,,78,0
696960,note_on,120,0,2,,,,,,,,,,,,,,,0,,,51,0
696960,control_change,0,0,2,,,,,,,,,,,,,,,0,64,0,,
696960,note_on,0,0,2,,,,,,,,,,,,,,,0,,,42,33
696960,set_tempo,240,1,0,,,,,,,,,,,,717961,,,,,,,
696960,note_on,0,0,1,,,,,,,,,,,,,,,0,,,73,54
697011,control_change,51,0,2,,,,,,,,,,,,,,,0,64,127,,
697080,note_on,69,0,2,,,,,,,,,,,,,,,0,,,42,0
697080,note_on,0,0,2,,,,,,,,,,,,,,,0,,,49,28
697200,note_on,0,0,2,,,,,,,,,,,,,,,0,,,58,28
697200,note_on,120,0,2,,,,,,,,,,,,,,,0,,,49,0
697320,note_on,120,0,2,,,,,,,,,,,,,,,0,,,58,0
697320,note_on,0,0,2,,,,,,,,,,,,,,,0,,,49,28
697440,note_on,120,0,2,,,,,,,,,,,,,,,0,,,49,0
697440,note_on,0,0,2,,,,,,,,,,,,,,,0,,,42,33
697440,set_tempo,480,1,0,,,,,,,,,,,,717961,,,,,,,
697560,note_on,120,0,2,,,,,,,,,,,,,,,0,,,42,0
697560,note_on,0,0,2,,,,,,,,,,,,,,,0,,,49,27
697600,set_tempo,160,1,0,,,,,,,,,,,,713012,,,,,,,
697680,note_on,120,0,2,,,,,,,,,,,,,,,0,,,49,0
697680,note_on,0,0,2,,,,,,,,,,,,,,,0,,,58,28
697760,set_tempo,160,1,0,,,,,,,,,,,,707965,,,,,,,
697800,note_on,120,0,2,,,,,,,,,,,,,,,0,,,58,0
697800,note_on,0,0,2,,,,,,,,,,,,,,,0,,,49,27
697880,set_tempo,120,1,0,,,,,,,,,,,,703317,,,,,,,
697920,note_on,0,0,2,,,,,,,,,,,,,,,0,,,42,33
697920,note_on,120,0,2,,,,,,,,,,,,,,,0,,,49,0
697960,set_tempo,80,1,0,,,,,,,,,,,,703317,,,,,,,
698040,note_on,0,0,2,,,,,,,,,,,,,,,0,,,49,28
698040,note_on,120,0,2,,,,,,,,,,,,,,,0,,,42,0
698160,note_on,0,0,2,,,,,,,,,,,,,,,0,,,58,29
698160,note_on,120,0,2,,,,,,,,,,,,,,,0,,,49,0
698160,set_tempo,200,1,0,,,,,,,,,,,,789474,,,,,,,
698280,note_on,120,0,2,,,,,,,,,,,,,,,0,,,58,0
698280,note_on,0,0,2,,,,,,,,,,,,,,,0,,,49,29
698400,note_on,0,0,1,,,,,,,,,,,,,,,0,,,69,51
698400,note_on,1440,0,1,,,,,,,,,,,,,,,0,,,73,0
698400,set_tempo,240,1,0,,,,,,,,,,,,722892,,,,,,,
698400,note_on,0,0,2,,,,,,,,,,,,,,,0,,,42,33
698400,note_on,120,0,2,,,,,,,,,,,,,,,0,,,49,0
698423,control_change,23,0,2,,,,,,,,,,,,,,,0,64,127,,
698520,note_on,0,0,2,,,,,,,,,,,,,,,0,,,49,28
698520,note_on,97,0,2,,,,,,,,,,,,,,,0,,,42,0
698640,note_on,0,0,2,,,,,,,,,,,,,,,0,,,54,28
698640,note_on,120,0,2,,,,,,,,,,,,,,,0,,,49,0
698760,note_on,0,0,2,,,,,,,,,,,,,,,0,,,49,28
698760,note_on,120,0,2,,,,,,,,,,,,,,,0,,,54,0
698880,note_on,120,0,2,,,,,,,,,,,,,,,0,,,49,0
698880,note_on,0,0,2,,,,,,,,,,,,,,,0,,,42,30
698880,note_on,480,0,1,,,,,,,,,,,,,,,0,,,69,0
698880,note_on,0,0,1,,,,,,,,,,,,,,,0,,,69,52
698880,set_tempo,480,1,0,,,,,,,,,,,,750751,,,,,,,
698891,control_change,11,0,2,,,,,,,,,,,,,,,0,64,0,,
698900,set_tempo,20,1,0,,,,,,,,,,,,731440,,,,,,,
698914,control_change,23,0,2,,,,,,,,,,,,,,,0,64,127,,
699000,note_on,0,0,2,,,,,,,,,,,,,,,0,,,49,26
699000,note_on,86,0,2,,,,,,,,,,,,,,,0,,,42,0
699120,note_on,120,0,2,,,,,,,,,,,,,,,0,,,49,0
699120,note_on,0,0,2,,,,,,,,,,,,,,,0,,,54,26
699120,set_tempo,220,1,0,,,,,,,,,,,,731440,,,,,,,
699240,note_on,120,0,2,,,,,,,,,,,,,,,0,,,54,0
699240,note_on,0,0,2,,,,,,,,,,,,,,,0,,,49,26
699360,note_on,120,0,2,,,,,,,,,,,,,,,0,,,49,0
699360,note_on,0,0,2,,,,,,,,,,,,,,,0,,,42,31
699360,note_on,0,0,1,,,,,,,,,,,,,,,0,,,68,51
699360,set_tempo,240,1,0,,,,,,,,,,,,713012,,,,,,,
699360,note_on,480,0,1,,,,,,,,,,,,,,,0,,,69,0
699394,control_change,34,0,2,,,,,,,,,,,,,,,0,64,0,,
699400,set_tempo,40,1,0,,,,,,,,,,,,726744,,,,,,,
699429,control_change,35,0,2,,,,,,,,,,,,,,,0,64,127,,
699480,note_on,51,0,2,,,,,,,,,,,,,,,0,,,42,0
699480,set_tempo,80,1,0,,,,,,,,,,,,722195,,,,,,,
699480,note_on,0,0,2,,,,,,,,,,,,,,,0,,,49,26
699560,set_tempo,80,1,0,,,,,,,,,,,,717618,,,,,,,
699600,note_on,120,0,2,,,,,,,,,,,,,,,0,,,49,0
699600,note_on,0,0,2,,,,,,,,,,,,,,,0,,,53,26
699640,set_tempo,80,1,0,,,,,,,,,,,,713182,,,,,,,
699720,set_tempo,80,1,0,,,,,,,,,,,,708717,,,,,,,
699720,note_on,120,0,2,,,,,,,,,,,,,,,0,,,53,0
699720,note_on,0,0,2,,,,,,,,,,,,,,,0,,,49,25
699800,set_tempo,80,1,0,,,,,,,,,,,,704308,,,,,,,
699840,note_on,0,0,1,,,,,,,,,,,,,,,0,,,69,52
699840,note_on,120,0,2,,,,,,,,,,,,,,,0,,,49,0
699840,note_on,480,0,1,,,,,,,,,,,,,,,0,,,68,0
699840,note_on,0,0,2,,,,,,,,,,,,,,,0,,,42,30
699857,control_change,17,0,2,,,,,,,,,,,,,,,0,64,0,,
699903,control_change,46,0,2,,,,,,,,,,,,,,,0,64,127,,
699960,note_on,0,0,2,,,,,,,,,,,,,,,0,,,49,27
699960,note_on,57,0,2,,,,,,,,,,,,,,,0,,,42,0
699960,set_tempo,160,1,0,,,,,,,,,,,,708717,,,,,,,
700080,note_on,0,0,2,,,,,,,,,,,,,,,0,,,54,27
700080,note_on,120,0,2,,,,,,,,,,,,,,,0,,,49,0
700120,set_tempo,160,1,0,,,,,,,,,,,,713182,,,,,,,
700200,note_on,0,0,2,,,,,,,,,,,,,,,0,,,49,27
700200,note_on,120,0,2,,,,,,,,,,,,,,,0,,,54,0
700280,set_tempo,160,1,0,,,,,,,,,,,,717618,,,,,,,
700309,control_change,109,0,2,,,,,,,,,,,,,,,0,64,0,,
700320,note_on,0,0,2,,,,,,,,,,,,,,,0,,,42,30
700320,note_on,11,0,2,,,,,,,,,,,,,,,0,,,49,0
700320,note_on,0,0,1,,,,,,,,,,,,,,,0,,,71,50
700320,note_on,480,0,1,,,,,,,,,,,,,,,0,,,69,0
700320,set_tempo,40,1,0,,,,,,,,,,,,713182,,,,,,,
700360,control_change,40,0,2,,,,,,,,,,,,,,,0,64,127,,
700440,note_on,0,0,2,,,,,,,,,,,,,,,0,,,49,27
700440,note_on,80,0,2,,,,,,,,,,,,,,,0,,,42,0
700560,note_on,0,0,2,,,,,,,,,,,,,,,0,,,56,27
700560,note_on,120,0,2,,,,,,,,,,,,,,,0,,,49,0
700680,note_on,120,0,2,,,,,,,,,,,,,,,0,,,56,0
700680,note_on,0,0,2,,,,,,,,,,,,,,,0,,,49,27
700800,set_tempo,480,1,0,,,,,,,,,,,,717961,,,,,,,
700800,note_on,120,0,2,,,,,,,,,,,,,,,0,,,49,0
700800,note_on,0,0,1,,,,,,,,,,,,,,,0,,,73,52
700800,note_on,480,0,1,,,,,,,,,,,,,,,0,,,71,0
700800,control_change,0,0,2,,,,,,,,,,,,,,,0,64,0,,
700800,note_on,0,0,2,,,,,,,,,,,,,,,0,,,42,33
700846,control_change,46,0,2,,,,,,,,,,,,,,,0,64,127,,
700920,note_on,0,0,2,,,,,,,,,,,,,,,0,,,49,27
700920,note_on,74,0,2,,,,,,,,,,,,,,,0,,,42,0
701040,note_on,120,0,2,,,,,,,,,,,,,,,0,,,49,0
701040,note_on,0,0,2,,,,,,,,,,,,,,,0,,,57,27
701160,note_on,120,0,2,,,,,,,,,,,,,,,0,,,57,0
701160,note_on,0,0,2,,,,,,,,,,,,,,,0,,,49,27
701240,set_tempo,440,1,0,,,,,,,,,,,,713012,,,,,,,
701269,control_change,109,0,2,,,,,,,,,,,,,,,0,64,0,,
701280,note_on,11,0,2,,,,,,,,,,,,,,,0,,,49,0
701280,note_on,0,0,2,,,,,,,,,,,,,,,0,,,44,31
701297,control_change,17,0,2,,,,,,,,,,,,,,,0,64,127,,
701400,note_on,103,0,2,,,,,,,,,,,,,,,0,,,44,0
701400,note_on,0,0,2,,,,,,,,,,,,,,,0,,,49,27
701520,note_on,120,0,2,,,,,,,,,,,,,,,0,,,49,0
701520,note_on,0,0,2,,,,,,,,,,,,,,,0,,,57,27
701520,set_tempo,280,1,0,,,,,,,,,,,,707965,,,,,,,
701640,note_on,120,0,2,,,,,,,,,,,,,,,0,,,57,0
701640,note_on,0,0,2,,,,,,,,,,,,,,,0,,,49,27
701760,note_on,120,0,2,,,,,,,,,,,,,,,0,,,49,0
701760,note_on,0,0,2,,,,,,,,,,,,,,,0,,,45,30
701760,set_tempo,240,1,0,,,,,,,,,,,,703317,,,,,,,
701766,control_change,6,0,2,,,,,,,,,,,,,,,0,64,0,,
701811,control_change,45,0,2,,,,,,,,,,,,,,,0,64,127,,
701880,note_on,0,0,2,,,,,,,,,,,,,,,0,,,49,27
701880,note_on,69,0,2,,,,,,,,,,,,,,,0,,,45,0
702000,set_tempo,240,1,0,,,,,,,,,,,,707965,,,,,,,
702000,note_on,0,0,2,,,,,,,,,,,,,,,0,,,57,27
702000,note_on,120,0,2,,,,,,,,,,,,,,,0,,,49,0
702120,note_on,120,0,2,,,,,,,,,,,,,,,0,,,57,0
702120,note_on,0,0,2,,,,,,,,,,,,,,,0,,,49,27
702240,note_on,120,0,2,,,,,,,,,,,,,,,0,,,49,0
702240,note_on,0,0,2,,,,,,,,,,,,,,,0,,,45,31
702240,set_tempo,240,1,0,,,,,,,,,,,,713012,,,,,,,
702240,note_on,1440,0,1,,,,,,,,,,,,,,,0,,,73,0
702240,note_on,0,0,1,,,,,,,,,,,,,,,0,,,74,56
702360,note_on,120,0,2,,,,,,,,,,,,,,,0,,,45,0
702360,note_on,0,0,2,,,,,,,,,,,,,,,0,,,49,25
702480,note_on,120,0,2,,,,,,,,,,,,,,,0,,,49,0
702480,note_on,0,0,2,,,,,,,,,,,,,,,0,,,57,28
702480,note_on,240,0,1,,,,,,,,,,,,,,,0,,,74,0
702480,note_on,0,0,1,,,,,,,,,,,,,,,0,,,76,53
702600,note_on,0,0,2,,,,,,,,,,,,,,,0,,,49,27
702600,note_on,120,0,2,,,,,,,,,,,,,,,0,,,57,0
702720,note_on,0,0,1,,,,,,,,,,,,,,,0,,,78,58
702720,note_on,240,0,1,,,,,,,,,,,,,,,0,,,76,0
702720,set_tempo,480,1,0,,,,,,,,,,,,713012,,,,,,,
702720,note_on,120,0,2,,,,,,,,,,,,,,,0,,,49,0
702720,note_on,0,0,2,,,,,,,,,,,,,,,0,,,45,33
702720,control_change,0,0,2,,,,,,,,,,,,,,,0,64,0,,
702760,control_change,40,0,2,,,,,,,,,,,,,,,0,64,127,,
702840,note_on,0,0,2,,,,,,,,,,,,,,,0,,,54,27
702840,note_on,80,0,2,,,,,,,,,,,,,,,0,,,45,0
702960,note_on,240,0,1,,,,,,,,,,,,,,,0,,,78,0
702960,note_on,120,0,2,,,,,,,,,,,,,,,0,,,54,0
702960,note_on,0,0,2,,,,,,,,,,,,,,,0,,,62,27
703080,note_on,0,0,2,,,,,,,,,,,,,,,0,,,54,27
703080,note_on,120,0,2,,,,,,,,,,,,,,,0,,,62,0
703200,note_on,120,0,2,,,,,,,,,,,,,,,0,,,54,0
703200,note_on,240,0,1,,,,,,,,,,,,,,,0,,,78,54
703200,note_on,0,0,2,,,,,,,,,,,,,,,0,,,45,32
703200,set_tempo,480,1,0,,,,,,,,,,,,703317,,,,,,,
703320,note_on,0,0,2,,,,,,,,,,,,,,,0,,,54,27
703320,note_on,120,0,2,,,,,,,,,,,,,,,0,,,45,0
703440,note_on,240,0,1,,,,,,,,,,,,,,,0,,,78,0
703440,note_on,120,0,2,,,,,,,,,,,,,,,0,,,54,0
703440,note_on,0,0,2,,,,,,,,,,,,,,,0,,,62,27
703560,note_on,0,0,2,,,,,,,,,,,,,,,0,,,54,27
703560,note_on,120,0,2,,,,,,,,,,,,,,,0,,,62,0
703680,note_on,0,0,2,,,,,,,,,,,,,,,0,,,45,32
703680,note_on,120,0,2,,,,,,,,,,,,,,,0,,,54,0
703680,note_on,240,0,1,,,,,,,,,,,,,,,0,,,78,54
703800,note_on,120,0,2,,,,,,,,,,,,,,,0,,,45,0
703800,note_on,0,0,2,,,,,,,,,,,,,,,0,,,54,27
703920,note_on,120,0,2,,,,,,,,,,,,,,,0,,,54,0
703920,note_on,240,0,1,,,,,,,,,,,,,,,0,,,78,0
703920,note_on,0,0,2,,,,,,,,,,,,,,,0,,,62,27
704040,note_on,120,0,2,,,,,,,,,,,,,,,0,,,62,0
704040,note_on,0,0,2,,,,,,,,,,,,,,,0,,,54,27
704160,set_tempo,960,1,0,,,,,,,,,,,,764331,,,,,,,
704160,note_on,0,0,2,,,,,,,,,,,,,,,0,,,45,33
704160,note_on,120,0,2,,,,,,,,,,,,,,,0,,,54,0
704160,note_on,240,0,1,,,,,,,,,,,,,,,0,,,80,56
704166,control_change,6,0,2,,,,,,,,,,,,,,,0,64,0,,
704206,control_change,40,0,2,,,,,,,,,,,,,,,0,64,127,,
704280,note_on,0,0,2,,,,,,,,,,,,,,,0,,,54,27
704280,note_on,74,0,2,,,,,,,,,,,,,,,0,,,45,0
704400,note_on,0,0,1,,,,,,,,,,,,,,,0,,,81,51
704400,note_on,240,0,1,,,,,,,,,,,,,,,0,,,80,0
704400,note_on,120,0,2,,,,,,,,,,,,,,,0,,,54,0
704400,set_tempo,240,1,0,,,,,,,,,,,,717961,,,,,,,
704400,note_on,0,0,2,,,,,,,,,,,,,,,0,,,62,31
704520,note_on,0,0,2,,,,,,,,,,,,,,,0,,,54,27
704520,note_on,120,0,2,,,,,,,,,,,,,,,0,,,62,0
704640,set_tempo,240,1,0,,,,,,,,,,,,717961,,,,,,,
704640,control_change,0,0,2,,,,,,,,,,,,,,,0,64,0,,
704640,note_on,120,0,2,,,,,,,,,,,,,,,0,,,54,0
704640,note_on,0,0,1,,,,,,,,,,,,,,,0,,,76,54
704640,note_on,0,0,2,,,,,,,,,,,,,,,0,,,45,33
704640,note_on,240,0,1,,,,,,,,,,,,,,,0,,,81,0
704691,control_change,51,0,2,,,,,,,,,,,,,,,0,64,127,,
704760,note_on,69,0,2,,,,,,,,,,,,,,,0,,,45,0
704760,note_on,0,0,2,,,,,,,,,,,,,,,0,,,52,28
704880,note_on,120,0,2,,,,,,,,,,,,,,,0,,,52,0
704880,note_on,0,0,2,,,,,,,,,,,,,,,0,,,61,28
705000,note_on,0,0,2,,,,,,,,,,,,,,,0,,,52,28
705000,note_on,120,0,2,,,,,,,,,,,,,,,0,,,61,0
705120,set_tempo,480,1,0,,,,,,,,,,,,717961,,,,,,,
705120,note_on,0,0,2,,,,,,,,,,,,,,,0,,,45,33
705120,note_on,120,0,2,,,,,,,,,,,,,,,0,,,52,0
705240,note_on,120,0,2,,,,,,,,,,,,,,,0,,,45,0
705240,note_on,0,0,2,,,,,,,,,,,,,,,0,,,52,27
705280,set_tempo,160,1,0,,,,,,,,,,,,713012,,,,,,,
705360,note_on,120,0,2,,,,,,,,,,,,,,,0,,,52,0
705360,note_on,0,0,2,,,,,,,,,,,,,,,0,,,61,28
705440,set_tempo,160,1,0,,,,,,,,,,,,707965,,,,,,,
705480,note_on,0,0,2,,,,,,,,,,,,,,,0,,,52,27
705480,note_on,120,0,2,,,,,,,,,,,,,,,0,,,61,0
705560,set_tempo,120,1,0,,,,,,,,,,,,703317,,,,,,,
705600,note_on,120,0,2,,,,,,,,,,,,,,,0,,,52,0
705600,note_on,0,0,2,,,,,,,,,,,,,,,0,,,45,33
705640,set_tempo,80,1,0,,,,,,,,,,,,703317,,,,,,,
705720,note_on,120,0,2,,,,,,,,,,,,,,,0,,,45,0
705720,note_on,0,0,2,,,,,,,,,,,,,,,0,,,52,28
705840,note_on,0,0,2,,,,,,,,,,,,,,,0,,,61,29
705840,note_on,120,0,2,,,,,,,,,,,,,,,0,,,52,0
705880,set_tempo,240,1,0,,,,,,,,,,,,707965,,,,,,,
705960,note_on,0,0,2,,,,,,,,,,,,,,,0,,,52,29
705960,note_on,120,0,2,,,,,,,,,,,,,,,0,,,61,0
706080,set_tempo,200,1,0,,,,,,,,,,,,713012,,,,,,,
706080,note_on,0,0,2,,,,,,,,,,,,,,,0,,,45,33
706080,note_on,120,0,2,,,,,,,,,,,,,,,0,,,52,0
706080,note_on,1440,0,1,,,,,,,,,,,,,,,0,,,76,0
706080,note_on,0,0,1,,,,,,,,,,,,,,,0,,,74,53
706154,control_change,74,0,2,,,,,,,,,,,,,,,0,64,0,,
706200,note_on,46,0,2,,,,,,,,,,,,,,,0,,,45,0
706200,control_change,0,0,2,,,,,,,,,,,,,,,0,64,127,,
706200,note_on,0,0,2,,,,,,,,,,,,,,,0,,,52,27
706320,note_on,240,0,1,,,,,,,,,,,,,,,0,,,74,0
706320,note_on,0,0,1,,,,,,,,,,,,,,,0,,,73,51
706320,note_on,120,0,2,,,,,,,,,,,,,,,0,,,52,0
706320,note_on,0,0,2,,,,,,,,,,,,,,,0,,,57,31
706440,note_on,120,0,2,,,,,,,,,,,,,,,0,,,57,0
706440,note_on,0,0,2,,,,,,,,,,,,,,,0,,,52,27
706560,note_on,120,0,2,,,,,,,,,,,,,,,0,,,52,0
706560,note_on,240,0,1,,,,,,,,,,,,,,,0,,,73,0
706560,note_on,0,0,1,,,,,,,,,,,,,,,0,,,74,54
706560,set_tempo,480,1,0,,,,,,,,,,,,703317,,,,,,,
706560,note_on,0,0,2,,,,,,,,,,,,,,,0,,,45,33
706560,control_change,0,0,2,,,,,,,,,,,,,,,0,64,0,,
706623,control_change,63,0,2,,,,,,,,,,,,,,,0,64,127,,
706680,note_on,57,0,2,,,,,,,,,,,,,,,0,,,45,0
706680,note_on,0,0,2,,,,,,,,,,,,,,,0,,,54,28
706800,note_on,120,0,2,,,,,,,,,,,,,,,0,,,54,0
706800,note_on,0,0,2,,,,,,,,,,,,,,,0,,,62,28
706920,note_on,120,0,2,,,,,,,,,,,,,,,0,,,62,0
706920,note_on,0,0,2,,,,,,,,,,,,,,,0,,,54,28
707040,note_on,0,0,1,,,,,,,,,,,,,,,0,,,78,52
707040,note_on,480,0,1,,,,,,,,,,,,,,,0,,,74,0
707040,note_on,120,0,2,,,,,,,,,,,,,,,0,,,54,0
707040,note_on,0,0,2,,,,,,,,,,,,,,,0,,,45,33
707160,note_on,120,0,2,,,,,,,,,,,,,,,0,,,45,0
707160,note_on,0,0,2,,,,,,,,,,,,,,,0,,,54,29
707280,note_on,0,0,2,,,,,,,,,,,,,,,0,,,62,29
707280,note_on,120,0,2,,,,,,,,,,,,,,,0,,,54,0
707400,note_on,0,0,2,,,,,,,,,,,,,,,0,,,54,29
707400,note_on,120,0,2,,,,,,,,,,,,,,,0,,,62,0
707520,set_tempo,960,1,0,,,,,,,,,,,,713012,,,,,,,
707520,note_on,0,0,1,,,,,,,,,,,,,,,0,,,71,52
707520,note_on,480,0,1,,,,,,,,,,,,,,,0,,,78,0
707520,note_on,0,0,2,,,,,,,,,,,,,,,0,,,45,33
707520,note_on,120,0,2,,,,,,,,,,,,,,,0,,,54,0
707526,control_change,6,0,2,,,,,,,,,,,,,,,0,64,0,,
707583,control_change,57,0,2,,,,,,,,,,,,,,,0,64,127,,
707640,note_on,0,0,2,,,,,,,,,,,,,,,0,,,52,28
707640,note_on,57,0,2,,,,,,,,,,,,,,,0,,,45,0
707760,note_on,0,0,2,,,,,,,,,,,,,,,0,,,56,28
707760,note_on,120,0,2,,,,,,,,,,,,,,,0,,,52,0
707880,note_on,0,0,2,,,,,,,,,,,,,,,0,,,52,27
707880,note_on,120,0,2,,,,,,,,,,,,,,,0,,,56,0
708000,note_on,0,0,2,,,,,,,,,,,,,,,0,,,45,31
708000,note_on,120,0,2,,,,,,,,,,,,,,,0,,,52,0
708000,note_on,0,0,1,,,,,,,,,,,,,,,0,,,74,52
708000,note_on,480,0,1,,,,,,,,,,,,,,,0,,,71,0
708120,note_on,0,0,2,,,,,,,,,,,,,,,0,,,52,27
708120,note_on,120,0,2,,,,,,,,,,,,,,,0,,,45,0
708240,note_on,120,0,2,,,,,,,,,,,,,,,0,,,52,0
708240,note_on,0,0,2,,,,,,,,,,,,,,,0,,,59,28
708360,note_on,120,0,2,,,,,,,,,,,,,,,0,,,59,0
708360,note_on,0,0,2,,,,,,,,,,,,,,,0,,,52,28
708480,set_tempo,960,1,0,,,,,,,,,,,,717961,,,,,,,
708480,note_on,120,0,2,,,,,,,,,,,,,,,0,,,52,0
708480,note_on,0,0,2,,,,,,,,,,,,,,,0,,,45,33
708480,control_change,0,0,2,,,,,,,,,,,,,,,0,64,0,,
708480,note_on,480,0,1,,,,,,,,,,,,,,,0,,,74,0
708480,note_on,0,0,1,,,,,,,,,,,,,,,0,,,73,54
708531,control_change,51,0,2,,,,,,,,,,,,,,,0,64,127,,
708600,note_on,69,0,2,,,,,,,,,,,,,,,0,,,45,0
708600,note_on,0,0,2,,,,,,,,,,,,,,,0,,,52,28
708720,note_on,120,0,2,,,,,,,,,,,,,,,0,,,52,0
708720,note_on,0,0,2,,,,,,,,,,,,,,,0,,,57,28
708840,note_on,0,0,2,,,,,,,,,,,,,,,0,,,52,28
708840,note_on,120,0,2,,,,,,,,,,,,,,,0,,,57,0
708920,set_tempo,440,1,0,,,,,,,,,,,,705882,,,,,,,
708960,note_on,0,0,2,,,,,,,,,,,,,,,0,,,45,33
708960,note_on,0,0,1,,,,,,,,,,,,,,,0,,,69,51
708960,note_on,0,0,1,,,,,,,,,,,,,,,0,,,81,61
708960,note_on,480,0,1,,,,,,,,,,,,,,,0,,,73,0
708960,note_on,120,0,2,,,,,,,,,,,,,,,0,,,52,0
709000,set_tempo,80,1,0,,,,,,,,,,,,701754,,,,,,,
709040,set_tempo,40,1,0,,,,,,,,,,,,697674,,,,,,,
709080,note_on,120,0,2,,,,,,,,,,,,,,,0,,,45,0
709080,note_on,0,0,2,,,,,,,,,,,,,,,0,,,52,27
709120,set_tempo,80,1,0,,,,,,,,,,,,693642,,,,,,,
709160,set_tempo,40,1,0,,,,,,,,,,,,689655,,,,,,,
709200,note_on,120,0,2,,,,,,,,,,,,,,,0,,,52,0
709200,note_on,0,0,2,,,,,,,,,,,,,,,0,,,61,28
709240,set_tempo,80,1,0,,,,,,,,,,,,685714,,,,,,,
709280,set_tempo,40,1,0,,,,,,,,,,,,681818,,,,,,,
709320,note_on,0,0,2,,,,,,,,,,,,,,,0,,,52,27
709320,note_on,120,0,2,,,,,,,,,,,,,,,0,,,61,0
709360,set_tempo,80,1,0,,,,,,,,,,,,677966,,,,,,,
709400,set_tempo,40,1,0,,,,,,,,,,,,674157,,,,,,,
709440,note_on,120,0,2,,,,,,,,,,,,,,,0,,,52,0
709440,note_on,0,0,2,,,,,,,,,,,,,,,0,,,45,33
709480,set_tempo,80,1,0,,,,,,,,,,,,677966,,,,,,,
709520,set_tempo,40,1,0,,,,,,,,,,,,681818,,,,,,,
709560,note_on,120,0,2,,,,,,,,,,,,,,,0,,,45,0
709560,note_on,0,0,2,,,,,,,,,,,,,,,0,,,52,28
709600,set_tempo,80,1,0,,,,,,,,,,,,685714,,,,,,,
709640,set_tempo,40,1,0,,,,,,,,,,,,689655,,,,,,,
709680,note_on,120,0,2,,,,,,,,,,,,,,,0,,,52,0
709680,note_on,720,0,1,,,,,,,,,,,,,,,0,,,81,0
709680,note_on,0,0,1,,,,,,,,,,,,,,,0,,,69,0
709680,note_on,0,0,2,,,,,,,,,,,,,,,0,,,61,29
709680,note_on,0,0,1,,,,,,,,,,,,,,,0,,,80,53
709680,note_on,0,0,1,,,,,,,,,,,,,,,0,,,68,45
709720,set_tempo,80,1,0,,,,,,,,,,,,693642,,,,,,,
709760,set_tempo,40,1,0,,,,,,,,,,,,697674,,,,,,,
709800,note_on,0,0,2,,,,,,,,,,,,,,,0,,,52,29
709800,note_on,120,0,2,,,,,,,,,,,,,,,0,,,61,0
709840,set_tempo,80,1,0,,,,,,,,,,,,701754,,,,,,,
709880,set_tempo,40,1,0,,,,,,,,,,,,705882,,,,,,,
709920,note_on,120,0,2,,,,,,,,,,,,,,,0,,,52,0
709920,note_on,0,0,2,,,,,,,,,,,,,,,0,,,45,33
709920,note_on,0,0,1,,,,,,,,,,,,,,,0,,,78,56
709920,note_on,0,0,1,,,,,,,,,,,,,,,0,,,66,47
709920,note_on,240,0,1,,,,,,,,,,,,,,,0,,,80,0
709920,set_tempo,40,1,0,,,,,,,,,,,,713012,,,,,,,
709920,note_on,0,0,1,,,,,,,,,,,,,,,0,,,68,0
709937,control_change,17,0,2,,,,,,,,,,,,,,,0,64,0,,
709994,control_change,57,0,2,,,,,,,,,,,,,,,0,64,127,,
710040,note_on,46,0,2,,,,,,,,,,,,,,,0,,,45,0
710040,note_on,0,0,2,,,,,,,,,,,,,,,0,,,52,27
710160,note_on,0,0,2,,,,,,,,,,,,,,,0,,,61,31
710160,note_on,0,0,1,,,,,,,,,,,,,,,0,,,66,0
710160,note_on,0,0,1,,,,,,,,,,,,,,,0,,,76,51
710160,note_on,120,0,2,,,,,,,,,,,,,,,0,,,52,0
710160,note_on,0,0,1,,,,,,,,,,,,,,,0,,,64,43
710160,note_on,240,0,1,,,,,,,,,,,,,,,0,,,78,0
710280,note_on,120,0,2,,,,,,,,,,,,,,,0,,,61,0
710280,note_on,0,0,2,,,,,,,,,,,,,,,0,,,52,27
710400,note_on,240,0,1,,,,,,,,,,,,,,,0,,,76,0
710400,note_on,0,0,1,,,,,,,,,,,,,,,0,,,64,0
710400,note_on,0,0,1,,,,,,,,,,,,,,,0,,,62,46
710400,note_on,0,0,2,,,,,,,,,,,,,,,0,,,45,33
710400,set_tempo,480,1,0,,,,,,,,,,,,703317,,,,,,,
710400,control_change,0,0,2,,,,,,,,,,,,,,,0,64,0,,
710400,note_on,120,0,2,,,,,,,,,,,,,,,0,,,52,0
710400,note_on,0,0,1,,,,,,,,,,,,,,,0,,,74,54
710463,control_change,63,0,2,,,,,,,,,,,,,,,0,64,127,,
710520,note_on,0,0,2,,,,,,,,,,,,,,,0,,,54,28
710520,note_on,57,0,2,,,,,,,,,,,,,,,0,,,45,0
710640,note_on,120,0,2,,,,,,,,,,,,,,,0,,,54,0
710640,note_on,0,0,2,,,,,,,,,,,,,,,0,,,62,28
710760,note_on,120,0,2,,,,,,,,,,,,,,,0,,,62,0
710760,note_on,0,0,2,,,,,,,,,,,,,,,0,,,54,28
710880,note_on,0,0,1,,,,,,,,,,,,,,,0,,,62,0
710880,set_tempo,480,1,0,,,,,,,,,,,,693642,,,,,,,
710880,note_on,480,0,1,,,,,,,,,,,,,,,0,,,74,0
710880,note_on,0,0,2,,,,,,,,,,,,,,,0,,,45,33
710880,note_on,0,0,1,,,,,,,,,,,,,,,0,,,78,56
710880,note_on,120,0,2,,,,,,,,,,,,,,,0,,,54,0
711000,note_on,120,0,2,,,,,,,,,,,,,,,0,,,45,0
711000,note_on,0,0,2,,,,,,,,,,,,,,,0,,,54,29
711120,note_on,0,0,2,,,,,,,,,,,,,,,0,,,62,29
711120,note_on,120,0,2,,,,,,,,,,,,,,,0,,,54,0
711240,note_on,0,0,2,,,,,,,,,,,,,,,0,,,54,29
711240,note_on,120,0,2,,,,,,,,,,,,,,,0,,,62,0
711360,note_on,480,0,1,,,,,,,,,,,,,,,0,,,78,0
711360,note_on,0,0,2,,,,,,,,,,,,,,,0,,,45,33
711360,note_on,0,0,1,,,,,,,,,,,,,,,0,,,71,54
711360,note_on,120,0,2,,,,,,,,,,,,,,,0,,,54,0
711360,set_tempo,480,1,0,,,,,,,,,,,,713012,,,,,,,
711366,control_change,6,0,2,,,,,,,,,,,,,,,0,64,0,,
711423,control_change,57,0,2,,,,,,,,,,,,,,,0,64,127,,
711480,note_on,57,0,2,,,,,,,,,,,,,,,0,,,45,0
711480,note_on,0,0,2,,,,,,,,,,,,,,,0,,,52,28
711600,note_on,120,0,2,,,,,,,,,,,,,,,0,,,52,0
711600,note_on,0,0,2,,,,,,,,,,,,,,,0,,,56,28
711720,note_on,120,0,2,,,,,,,,,,,,,,,0,,,56,0
711720,note_on,0,0,2,,,,,,,,,,,,,,,0,,,52,27
711840,note_on,120,0,2,,,,,,,,,,,,,,,0,,,52,0
711840,note_on,480,0,1,,,,,,,,,,,,,,,0,,,71,0
711840,note_on,0,0,1,,,,,,,,,,,,,,,0,,,73,52
711840,note_on,0,0,2,,,,,,,,,,,,,,,0,,,45,31
711960,note_on,120,0,2,,,,,,,,,,,,,,,0,,,45,0
711960,note_on,0,0,2,,,,,,,,,,,,,,,0,,,52,27
712080,note_on,0,0,1,,,,,,,,,,,,,,,0,,,74,52
712080,note_on,240,0,1,,,,,,,,,,,,,,,0,,,73,0
712080,note_on,0,0,2,,,,,,,,,,,,,,,0,,,59,28
712080,note_on,120,0,2,,,,,,,,,,,,,,,0,,,52,0
712200,note_on,0,0,2,,,,,,,,,,,,,,,0,,,52,28
712200,note_on,120,0,2,,,,,,,,,,,,,,,0,,,59,0
712320,note_on,0,0,2,,,,,,,,,,,,,,,0,,,45,33
712320,control_change,0,0,2,,,,,,,,,,,,,,,0,64,0,,
712320,note_on,120,0,2,,,,,,,,,,,,,,,0,,,52,0
712320,note_on,240,0,1,,,,,,,,,,,,,,,0,,,74,0
712320,note_on,0,0,1,,,,,,,,,,,,,,,0,,,73,55
712320,set_tempo,960,1,0,,,,,,,,,,,,670391,,,,,,,
712380,note_on,60,0,2,,,,,,,,,,,,,,,0,,,45,0
712383,control_change,3,0,2,,,,,,,,,,,,,,,0,64,127,,
712440,note_on,57,0,2,,,,,,,,,,,,,,,0,,,61,28
712560,note_on,0,0,2,,,,,,,,,,,,,,,0,,,57,28
712560,note_on,120,0,2,,,,,,,,,,,,,,,0,,,61,0
712560,set_tempo,240,1,0,,,,,,,,,,,,693642,,,,,,,
712560,note_on,240,0,1,,,,,,,,,,,,,,,0,,,73,0
712560,note_on,0,0,1,,,,,,,,,,,,,,,0,,,76,52
712680,note_on,0,0,2,,,,,,,,,,,,,,,0,,,61,28
712680,note_on,120,0,2,,,,,,,,,,,,,,,0,,,57,0
712800,note_on,0,0,1,,,,,,,,,,,,,,,0,,,85,56
712800,note_on,120,0,2,,,,,,,,,,,,,,,0,,,61,0
712800,note_on,0,0,2,,,,,,,,,,,,,,,0,,,57,33
712800,set_tempo,240,1,0,,,,,,,,,,,,666667,,,,,,,
712800,note_on,240,0,1,,,,,,,,,,,,,,,0,,,76,0
712920,note_on,120,0,2,,,,,,,,,,,,,,,0,,,57,0
712920,note_on,0,0,2,,,,,,,,,,,,,,,0,,,61,29
713040,note_on,120,0,2,,,,,,,,,,,,,,,0,,,61,0
713040,note_on,0,0,2,,,,,,,,,,,,,,,0,,,57,29
713040,note_on,0,0,1,,,,,,,,,,,,,,,0,,,81,52
713040,set_tempo,240,1,0,,,,,,,,,,,,689655,,,,,,,
713040,note_on,240,0,1,,,,,,,,,,,,,,,0,,,85,0
713160,note_on,0,0,2,,,,,,,,,,,,,,,0,,,61,29
713160,note_on,120,0,2,,,,,,,,,,,,,,,0,,,57,0
713280,note_on,0,0,1,,,,,,,,,,,,,,,0,,,76,56
713280,note_on,240,0,1,,,,,,,,,,,,,,,0,,,81,0
713280,set_tempo,240,1,0,,,,,,,,,,,,645161,,,,,,,
713280,note_on,0,0,2,,,,,,,,,,,,,,,0,,,45,33
713280,note_on,120,0,2,,,,,,,,,,,,,,,0,,,61,0
713286,control_change,6,0,2,,,,,,,,,,,,,,,0,64,0,,
713340,note_on,54,0,2,,,,,,,,,,,,,,,0,,,45,0
713343,control_change,3,0,2,,,,,,,,,,,,,,,0,64,127,,
713400,note_on,57,0,2,,,,,,,,,,,,,,,0,,,61,28
713520,note_on,120,0,2,,,,,,,,,,,,,,,0,,,61,0
713520,note_on,0,0,1,,,,,,,,,,,,,,,0,,,73,52
713520,note_on,240,0,1,,,,,,,,,,,,,,,0,,,76,0
713520,set_tempo,240,1,0,,,,,,,,,,,,659341,,,,,,,
713520,note_on,0,0,2,,,,,,,,,,,,,,,0,,,57,28
713640,note_on,120,0,2,,,,,,,,,,,,,,,0,,,57,0
713640,note_on,0,0,2,,,,,,,,,,,,,,,0,,,61,27
713760,note_on,0,0,2,,,,,,,,,,,,,,,0,,,57,31
713760,note_on,120,0,2,,,,,,,,,,,,,,,0,,,61,0
713760,note_on,0,0,1,,,,,,,,,,,,,,,0,,,81,55
713760,note_on,240,0,1,,,,,,,,,,,,,,,0,,,73,0
713760,set_tempo,240,1,0,,,,,,,,,,,,644815,,,,,,,
713880,note_on,120,0,2,,,,,,,,,,,,,,,0,,,57,0
713880,note_on,0,0,2,,,,,,,,,,,,,,,0,,,61,27
714000,note_on,0,0,2,,,,,,,,,,,,,,,0,,,57,28
714000,note_on,120,0,2,,,,,,,,,,,,,,,0,,,61,0
714000,set_tempo,240,1,0,,,,,,,,,,,,658328,,,,,,,
714000,note_on,240,0,1,,,,,,,,,,,,,,,0,,,81,0
714000,note_on,0,0,1,,,,,,,,,,,,,,,0,,,77,52
714120,note_on,120,0,2,,,,,,,,,,,,,,,0,,,57,0
714120,note_on,0,0,2,,,,,,,,,,,,,,,0,,,61,28
714240,set_tempo,240,1,0,,,,,,,,,,,,644815,,,,,,,
714240,note_on,240,0,1,,,,,,,,,,,,,,,0,,,77,0
714240,note_on,0,0,1,,,,,,,,,,,,,,,0,,,78,55
714240,note_on,120,0,2,,,,,,,,,,,,,,,0,,,61,0
714240,control_change,0,0,2,,,,,,,,,,,,,,,0,64,0,,
714240,note_on,0,0,2,,,,,,,,,,,,,,,0,,,45,33
714300,note_on,60,0,2,,,,,,,,,,,,,,,0,,,45,0
714303,control_change,3,0,2,,,,,,,,,,,,,,,0,64,127,,
714360,note_on,57,0,2,,,,,,,,,,,,,,,0,,,62,28
714480,note_on,240,0,1,,,,,,,,,,,,,,,0,,,78,0
714480,note_on,120,0,2,,,,,,,,,,,,,,,0,,,62,0
714480,note_on,0,0,1,,,,,,,,,,,,,,,0,,,74,52
714480,note_on,0,0,2,,,,,,,,,,,,,,,0,,,57,28
714480,set_tempo,240,1,0,,,,,,,,,,,,652174,,,,,,,
714600,note_on,120,0,2,,,,,,,,,,,,,,,0,,,57,0
714600,note_on,0,0,2,,,,,,,,,,,,,,,0,,,62,28
714720,note_on,0,0,2,,,,,,,,,,,,,,,0,,,57,33
714720,note_on,240,0,1,,,,,,,,,,,,,,,0,,,74,0
714720,set_tempo,240,1,0,,,,,,,,,,,,638298,,,,,,,
714720,note_on,120,0,2,,,,,,,,,,,,,,,0,,,62,0
714720,note_on,0,0,1,,,,,,,,,,,,,,,0,,,86,56
714840,note_on,120,0,2,,,,,,,,,,,,,,,0,,,57,0
714840,note_on,0,0,2,,,,,,,,,,,,,,,0,,,62,29
714960,note_on,120,0,2,,,,,,,,,,,,,,,0,,,62,0
714960,note_on,0,0,2,,,,,,,,,,,,,,,0,,,57,29
714960,set_tempo,240,1,0,,,,,,,,,,,,645161,,,,,,,
714960,note_on,240,0,1,,,,,,,,,,,,,,,0,,,86,0
714960,note_on,0,0,1,,,,,,,,,,,,,,,0,,,83,54
715080,note_on,120,0,2,,,,,,,,,,,,,,,0,,,57,0
715080,note_on,0,0,2,,,,,,,,,,,,,,,0,,,62,29
715200,set_tempo,240,1,0,,,,,,,,,,,,625261,,,,,,,
715200,note_on,0,0,2,,,,,,,,,,,,,,,0,,,45,33
715200,note_on,240,0,1,,,,,,,,,,,,,,,0,,,83,0
715200,note_on,120,0,2,,,,,,,,,,,,,,,0,,,62,0
715200,note_on,0,0,1,,,,,,,,,,,,,,,0,,,80,58
715206,control_change,6,0,2,,,,,,,,,,,,,,,0,64,0,,
715260,note_on,54,0,2,,,,,,,,,,,,,,,0,,,45,0
715263,control_change,3,0,2,,,,,,,,,,,,,,,0,64,127,,
715320,note_on,57,0,2,,,,,,,,,,,,,,,0,,,62,28
715440,set_tempo,240,1,0,,,,,,,,,,,,639932,,,,,,,
715440,note_on,0,0,1,,,,,,,,,,,,,,,0,,,83,56
715440,note_on,240,0,1,,,,,,,,,,,,,,,0,,,80,0
715440,note_on,120,0,2,,,,,,,,,,,,,,,0,,,62,0
715440,note_on,0,0,2,,,,,,,,,,,,,,,0,,,57,28
715560,note_on,0,0,2,,,,,,,,,,,,,,,0,,,62,27
715560,note_on,120,0,2,,,,,,,,,,,,,,,0,,,57,0
715680,note_on,0,0,2,,,,,,,,,,,,,,,0,,,57,31
715680,set_tempo,240,1,0,,,,,,,,,,,,625261,,,,,,,
715680,note_on,120,0,2,,,,,,,,,,,,,,,0,,,62,0
715680,note_on,240,0,1,,,,,,,,,,,,,,,0,,,83,0
715680,note_on,0,0,1,,,,,,,,,,,,,,,0,,,88,58
715800,note_on,120,0,2,,,,,,,,,,,,,,,0,,,57,0
715800,note_on,0,0,2,,,,,,,,,,,,,,,0,,,62,27
715920,note_on,240,0,1,,,,,,,,,,,,,,,0,,,88,0
715920,note_on,0,0,1,,,,,,,,,,,,,,,0,,,84,54
715920,note_on,120,0,2,,,,,,,,,,,,,,,0,,,62,0
715920,note_on,0,0,2,,,,,,,,,,,,,,,0,,,57,28
715920,set_tempo,240,1,0,,,,,,,,,,,,651537,,,,,,,
716040,note_on,120,0,2,,,,,,,,,,,,,,,0,,,57,0
716040,note_on,0,0,2,,,,,,,,,,,,,,,0,,,62,28
716160,note_on,0,0,2,,,,,,,,,,,,,,,0,,,45,33
716160,control_change,0,0,2,,,,,,,,,,,,,,,0,64,0,,
716160,note_on,240,0,1,,,,,,,,,,,,,,,0,,,84,0
716160,note_on,0,0,1,,,,,,,,,,,,,,,0,,,85,57
716160,set_tempo,240,1,0,,,,,,,,,,,,644815,,,,,,,
716160,note_on,120,0,2,,,,,,,,,,,,,,,0,,,62,0
716220,note_on,60,0,2,,,,,,,,,,,,,,,0,,,45,0
716223,control_change,3,0,2,,,,,,,,,,,,,,,0,64,127,,
716280,note_on,57,0,2,,,,,,,,,,,,,,,0,,,61,28
716400,note_on,240,0,1,,,,,,,,,,,,,,,0,,,85,0
716400,note_on,0,0,1,,,,,,,,,,,,,,,0,,,81,54
716400,set_tempo,240,1,0,,,,,,,,,,,,635997,,,,,,,
716400,note_on,120,0,2,,,,,,,,,,,,,,,0,,,61,0
716400,note_on,0,0,2,,,,,,,,,,,,,,,0,,,57,28
716520,note_on,120,0,2,,,,,,,,,,,,,,,0,,,57,0
716520,note_on,0,0,2,,,,,,,,,,,,,,,0,,,61,28
716640,note_on,120,0,2,,,,,,,,,,,,,,,0,,,61,0
716640,set_tempo,240,1,0,,,,,,,,,,,,591017,,,,,,,
716640,note_on,0,0,1,,,,,,,,,,,,,,,0,,,85,57
716640,note_on,240,0,1,,,,,,,,,,,,,,,0,,,81,0
716640,note_on,0,0,2,,,,,,,,,,,,,,,0,,,57,33
716760,note_on,0,0,1,,,,,,,,,,,,,,,0,,,81,51
716760,note_on,0,0,2,,,,,,,,,,,,,,,0,,,61,29
716760,note_on,120,0,1,,,,,,,,,,,,,,,0,,,85,0
716760,note_on,120,0,2,,,,,,,,,,,,,,,0,,,57,0
716880,note_on,0,0,1,,,,,,,,,,,,,,,0,,,85,56
716880,note_on,0,0,2,,,,,,,,,,,,,,,0,,,57,29
716880,note_on,120,0,2,,,,,,,,,,,,,,,0,,,61,0
716880,set_tempo,240,1,0,,,,,,,,,,,,611060,,,,,,,
716880,note_on,120,0,1,,,,,,,,,,,,,,,0,,,81,0
717000,note_on,120,0,2,,,,,,,,,,,,,,,0,,,57,0
717000,note_on,0,0,1,,,,,,,,,,,,,,,0,,,81,50
717000,note_on,0,0,2,,,,,,,,,,,,,,,0,,,61,29
717000,note_on,120,0,1,,,,,,,,,,,,,,,0,,,85,0
717120,note_on,0,0,1,,,,,,,,,,,,,,,0,,,76,56
717120,set_tempo,240,1,0,,,,,,,,,,,,591017,,,,,,,
717120,note_on,0,0,2,,,,,,,,,,,,,,,0,,,45,33
717120,note_on,120,0,2,,,,,,,,,,,,,,,0,,,61,0
717120,note_on,120,0,1,,,,,,,,,,,,,,,0,,,81,0
717126,control_change,6,0,2,,,,,,,,,,,,,,,0,64,0,,
717180,note_on,54,0,2,,,,,,,,,,,,,,,0,,,45,0
717183,control_change,3,0,2,,,,,,,,,,,,,,,0,64,127,,
717240,note_on,120,0,1,,,,,,,,,,,,,,,0,,,76,0
717240,note_on,0,0,1,,,,,,,,,,,,,,,0,,,73,52
717240,note_on,57,0,2,,,,,,,,,,,,,,,0,,,61,28
717360,note_on,120,0,2,,,,,,,,,,,,,,,0,,,61,0
717360,note_on,120,0,1,,,,,,,,,,,,,,,0,,,73,0
717360,note_on,0,0,1,,,,,,,,,,,,,,,0,,,76,56
717360,set_tempo,240,1,0,,,,,,,,,,,,611060,,,,,,,
717360,note_on,0,0,2,,,,,,,,,,,,,,,0,,,57,28
717480,note_on,0,0,2,,,,,,,,,,,,,,,0,,,61,27
717480,note_on,120,0,2,,,,,,,,,,,,,,,0,,,57,0
717480,note_on,0,0,1,,,,,,,,,,,,,,,0,,,73,53
717480,note_on,120,0,1,,,,,,,,,,,,,,,0,,,76,0
717600,note_on,0,0,1,,,,,,,,,,,,,,,0,,,81,58
717600,note_on,0,0,2,,,,,,,,,,,,,,,0,,,57,31
717600,set_tempo,240,1,0,,,,,,,,,,,,597015,,,,,,,
717600,note_on,120,0,1,,,,,,,,,,,,,,,0,,,73,0
717600,note_on,120,0,2,,,,,,,,,,,,,,,0,,,61,0
717720,note_on,120,0,1,,,,,,,,,,,,,,,0,,,81,0
717720,note_on,0,0,1,,,,,,,,,,,,,,,0,,,77,53
717720,note_on,0,0,2,,,,,,,,,,,,,,,0,,,61,27
717720,note_on,120,0,2,,,,,,,,,,,,,,,0,,,57,0
717840,note_on,120,0,1,,,,,,,,,,,,,,,0,,,77,0
717840,note_on,0,0,1,,,,,,,,,,,,,,,0,,,81,57
717840,set_tempo,240,1,0,,,,,,,,,,,,615385,,,,,,,
717840,note_on,0,0,2,,,,,,,,,,,,,,,0,,,57,28
717840,note_on,120,0,2,,,,,,,,,,,,,,,0,,,61,0
717960,note_on,0,0,2,,,,,,,,,,,,,,,0,,,61,28
717960,note_on,120,0,2,,,,,,,,,,,,,,,0,,,57,0
717960,note_on,120,0,1,,,,,,,,,,,,,,,0,,,81,0
717960,note_on,0,0,1,,,,,,,,,,,,,,,0,,,77,52
718080,set_tempo,240,1,0,,,,,,,,,,,,618047,,,,,,,
718080,control_change,0,0,2,,,,,,,,,,,,,,,0,64,0,,
718080,note_on,120,0,2,,,,,,,,,,,,,,,0,,,61,0
718080,note_on,120,0,1,,,,,,,,,,,,,,,0,,,77,0
718080,note_on,0,0,1,,,,,,,,,,,,,,,0,,,78,57
718080,note_on,0,0,2,,,,,,,,,,,,,,,0,,,45,33
718140,note_on,60,0,2,,,,,,,,,,,,,,,0,,,45,0
718143,control_change,3,0,2,,,,,,,,,,,,,,,0,64,127,,
718200,note_on,57,0,2,,,,,,,,,,,,,,,0,,,62,28
718200,note_on,0,0,1,,,,,,,,,,,,,,,0,,,74,52
718200,note_on,120,0,1,,,,,,,,,,,,,,,0,,,78,0
718320,note_on,120,0,2,,,,,,,,,,,,,,,0,,,62,0
718320,note_on,0,0,1,,,,,,,,,,,,,,,0,,,78,54
718320,note_on,120,0,1,,,,,,,,,,,,,,,0,,,74,0
718320,set_tempo,240,1,0,,,,,,,,,,,,600901,,,,,,,
718320,note_on,0,0,2,,,,,,,,,,,,,,,0,,,57,28
718440,note_on,120,0,2,,,,,,,,,,,,,,,0,,,57,0
718440,note_on,0,0,1,,,,,,,,,,,,,,,0,,,74,52
718440,note_on,120,0,1,,,,,,,,,,,,,,,0,,,78,0
718440,note_on,0,0,2,,,,,,,,,,,,,,,0,,,62,28
718560,note_on,120,0,2,,,,,,,,,,,,,,,0,,,62,0
718560,note_on,0,0,2,,,,,,,,,,,,,,,0,,,57,33
718560,note_on,120,0,1,,,,,,,,,,,,,,,0,,,74,0
718560,note_on,0,0,1,,,,,,,,,,,,,,,0,,,86,57
718680,note_on,0,0,1,,,,,,,,,,,,,,,0,,,83,51
718680,note_on,120,0,1,,,,,,,,,,,,,,,0,,,86,0
718680,note_on,120,0,2,,,,,,,,,,,,,,,0,,,57,0
718680,note_on,0,0,2,,,,,,,,,,,,,,,0,,,62,29
718800,note_on,0,0,1,,,,,,,,,,,,,,,0,,,86,56
718800,set_tempo,480,1,0,,,,,,,,,,,,618047,,,,,,,
718800,note_on,120,0,1,,,,,,,,,,,,,,,0,,,83,0
718800,note_on,0,0,2,,,,,,,,,,,,,,,0,,,57,29
718800,note_on,120,0,2,,,,,,,,,,,,,,,0,,,62,0
718920,note_on,0,0,2,,,,,,,,,,,,,,,0,,,62,29
718920,note_on,120,0,2,,,,,,,,,,,,,,,0,,,57,0
718920,note_on,0,0,1,,,,,,,,,,,,,,,0,,,83,50
718920,note_on,120,0,1,,,,,,,,,,,,,,,0,,,86,0
719040,set_tempo,240,1,0,,,,,,,,,,,,611060,,,,,,,
719040,note_on,120,0,2,,,,,,,,,,,,,,,0,,,62,0
719040,note_on,0,0,2,,,,,,,,,,,,,,,0,,,45,33
719040,note_on,120,0,1,,,,,,,,,,,,,,,0,,,83,0
719040,note_on,0,0,1,,,,,,,,,,,,,,,0,,,80,56
719046,control_change,6,0,2,,,,,,,,,,,,,,,0,64,0,,
719100,note_on,54,0,2,,,,,,,,,,,,,,,0,,,45,0
719103,control_change,3,0,2,,,,,,,,,,,,,,,0,64,127,,
719160,note_on,57,0,2,,,,,,,,,,,,,,,0,,,62,28
719160,note_on,120,0,1,,,,,,,,,,,,,,,0,,,80,0
719160,note_on,0,0,1,,,,,,,,,,,,,,,0,,,83,52
719280,note_on,120,0,1,,,,,,,,,,,,,,,0,,,83,0
719280,note_on,0,0,2,,,,,,,,,,,,,,,0,,,57,28
719280,note_on,120,0,2,,,,,,,,,,,,,,,0,,,62,0
719280,set_tempo,240,1,0,,,,,,,,,,,,625261,,,,,,,
719280,note_on,0,0,1,,,,,,,,,,,,,,,0,,,80,56
719400,note_on,0,0,2,,,,,,,,,,,,,,,0,,,62,27
719400,note_on,120,0,2,,,,,,,,,,,,,,,0,,,57,0
719400,note_on,0,0,1,,,,,,,,,,,,,,,0,,,83,53
719400,note_on,120,0,1,,,,,,,,,,,,,,,0,,,80,0
719520,note_on,120,0,2,,,,,,,,,,,,,,,0,,,62,0
719520,note_on,0,0,2,,,,,,,,,,,,,,,0,,,57,31
719520,set_tempo,240,1,0,,,,,,,,,,,,628865,,,,,,,
719520,note_on,120,0,1,,,,,,,,,,,,,,,0,,,83,0
719520,note_on,0,0,1,,,,,,,,,,,,,,,0,,,88,58
719640,note_on,120,0,2,,,,,,,,,,,,,,,0,,,57,0
719640,note_on,0,0,2,,,,,,,,,,,,,,,0,,,62,27
719640,note_on,0,0,1,,,,,,,,,,,,,,,0,,,84,53
719640,note_on,120,0,1,,,,,,,,,,,,,,,0,,,88,0
719760,note_on,120,0,1,,,,,,,,,,,,,,,0,,,84,0
719760,note_on,0,0,1,,,,,,,,,,,,,,,0,,,88,57
719760,set_tempo,240,1,0,,,,,,,,,,,,651537,,,,,,,
719760,note_on,120,0,2,,,,,,,,,,,,,,,0,,,62,0
719760,note_on,0,0,2,,,,,,,,,,,,,,,0,,,57,28
719880,note_on,0,0,1,,,,,,,,,,,,,,,0,,,84,52
719880,note_on,120,0,1,,,,,,,,,,,,,,,0,,,88,0
719880,note_on,120,0,2,,,,,,,,,,,,,,,0,,,57,0
719880,note_on,0,0,2,,,,,,,,,,,,,,,0,,,62,28
720000,set_tempo,240,1,0,,,,,,,,,,,,628865,,,,,,,
720000,note_on,0,0,1,,,,,,,,,,,,,,,0,,,85,57
720000,note_on,120,0,1,,,,,,,,,,,,,,,0,,,84,0
720000,note_on,0,0,2,,,,,,,,,,,,,,,0,,,45,33
720000,control_change,0,0,2,,,,,,,,,,,,,,,0,64,0,,
720000,note_on,120,0,2,,,,,,,,,,,,,,,0,,,62,0
720060,note_on,60,0,2,,,,,,,,,,,,,,,0,,,45,0
720063,control_change,3,0,2,,,,,,,,,,,,,,,0,64,127,,
720120,note_on,57,0,2,,,,,,,,,,,,,,,0,,,61,28
720120,note_on,120,0,1,,,,,,,,,,,,,,,0,,,85,0
720120,note_on,0,0,1,,,,,,,,,,,,,,,0,,,84,53
720240,note_on,0,0,1,,,,,,,,,,,,,,,0,,,85,52
720240,note_on,120,0,1,,,,,,,,,,,,,,,0,,,84,0
720240,set_tempo,240,1,0,,,,,,,,,,,,614502,,,,,,,
720240,note_on,0,0,2,,,,,,,,,,,,,,,0,,,57,28
720240,note_on,120,0,2,,,,,,,,,,,,,,,0,,,61,0
720360,note_on,120,0,2,,,,,,,,,,,,,,,0,,,57,0
720360,note_on,0,0,2,,,,,,,,,,,,,,,0,,,61,28
720360,note_on,0,0,1,,,,,,,,,,,,,,,0,,,80,52
720360,note_on,120,0,1,,,,,,,,,,,,,,,0,,,85,0
720480,note_on,0,0,1,,,,,,,,,,,,,,,0,,,81,57
720480,set_tempo,240,1,0,,,,,,,,,,,,600901,,,,,,,
720480,note_on,120,0,2,,,,,,,,,,,,,,,0,,,61,0
720480,note_on,0,0,2,,,,,,,,,,,,,,,0,,,57,33
720480,note_on,120,0,1,,,,,,,,,,,,,,,0,,,80,0
720600,note_on,0,0,1,,,,,,,,,,,,,,,0,,,80,51
720600,note_on,120,0,1,,,,,,,,,,,,,,,0,,,81,0
720600,note_on,0,0,2,,,,,,,,,,,,,,,0,,,61,29
720600,note_on,120,0,2,,,,,,,,,,,,,,,0,,,57,0
720720,note_on,0,0,2,,,,,,,,,,,,,,,0,,,57,29
720720,note_on,120,0,2,,,,,,,,,,,,,,,0,,,61,0
720720,note_on,0,0,1,,,,,,,,,,,,,,,0,,,81,51
720720,set_tempo,240,1,0,,,,,,,,,,,,621568,,,,,,,
720720,note_on,120,0,1,,,,,,,,,,,,,,,0,,,80,0
720840,note_on,120,0,2,,,,,,,,,,,,,,,0,,,57,0
720840,note_on,120,0,1,,,,,,,,,,,,,,,0,,,81,0
720840,note_on,0,0,1,,,,,,,,,,,,,,,0,,,75,50
720840,note_on,0,0,2,,,,,,,,,,,,,,,0,,,61,29
720960,note_on,120,0,2,,,,,,,,,,,,,,,0,,,61,0
720960,note_on,0,0,2,,,,,,,,,,,,,,,0,,,57,33
720960,set_tempo,240,1,0,,,,,,,,,,,,611060,,,,,,,
720960,note_on,0,0,1,,,,,,,,,,,,,,,0,,,76,55
720960,note_on,120,0,1,,,,,,,,,,,,,,,0,,,75,0
720966,control_change,6,0,2,,,,,,,,,,,,,,,0,64,0,,
721023,control_change,57,0,2,,,,,,,,,,,,,,,0,64,127,,
721080,note_on,0,0,2,,,,,,,,,,,,,,,0,,,61,28
721080,note_on,57,0,2,,,,,,,,,,,,,,,0,,,57,0
721080,note_on,0,0,1,,,,,,,,,,,,,,,0,,,75,51
721080,note_on,120,0,1,,,,,,,,,,,,,,,0,,,76,0
721200,note_on,0,0,2,,,,,,,,,,,,,,,0,,,57,28
721200,set_tempo,240,1,0,,,,,,,,,,,,625261,,,,,,,
721200,note_on,120,0,1,,,,,,,,,,,,,,,0,,,75,0
721200,note_on,0,0,1,,,,,,,,,,,,,,,0,,,76,51
721200,note_on,120,0,2,,,,,,,,,,,,,,,0,,,61,0
721320,note_on,120,0,2,,,,,,,,,,,,,,,0,,,57,0
721320,note_on,0,0,2,,,,,,,,,,,,,,,0,,,61,27
721320,note_on,120,0,1,,,,,,,,,,,,,,,0,,,76,0
721320,note_on,0,0,1,,,,,,,,,,,,,,,0,,,72,51
721440,set_tempo,240,1,0,,,,,,,,,,,,632511,,,,,,,
721440,note_on,120,0,1,,,,,,,,,,,,,,,0,,,72,0
721440,note_on,0,0,1,,,,,,,,,,,,,,,0,,,73,54
721440,note_on,0,0,2,,,,,,,,,,,,,,,0,,,57,31
721440,note_on,120,0,2,,,,,,,,,,,,,,,0,,,61,0
721560,note_on,0,0,1,,,,,,,,,,,,,,,0,,,72,47
721560,note_on,120,0,2,,,,,,,,,,,,,,,0,,,57,0
721560,note_on,0,0,2,,,,,,,,,,,,,,,0,,,61,27
721560,note_on,120,0,1,,,,,,,,,,,,,,,0,,,73,0
721680,set_tempo,240,1,0,,,,,,,,,,,,647668,,,,,,,
721680,note_on,0,0,1,,,,,,,,,,,,,,,0,,,73,49
721680,note_on,120,0,1,,,,,,,,,,,,,,,0,,,72,0
721680,note_on,120,0,2,,,,,,,,,,,,,,,0,,,61,0
721680,note_on,0,0,2,,,,,,,,,,,,,,,0,,,57,28
721800,note_on,0,0,1,,,,,,,,,,,,,,,0,,,68,47
721800,note_on,120,0,1,,,,,,,,,,,,,,,0,,,73,0
721800,note_on,120,0,2,,,,,,,,,,,,,,,0,,,57,0
721800,note_on,0,0,2,,,,,,,,,,,,,,,0,,,61,28
721920,note_on,0,0,1,,,,,,,,,,,,,,,0,,,69,57
721920,note_on,120,0,1,,,,,,,,,,,,,,,0,,,68,0
721920,control_change,0,0,2,,,,,,,,,,,,,,,0,64,0,,
721920,note_on,0,0,2,,,,,,,,,,,,,,,0,,,45,33
721920,note_on,120,0,2,,,,,,,,,,,,,,,0,,,61,0
721920,set_tempo,240,1,0,,,,,,,,,,,,632511,,,,,,,
721980,note_on,60,0,2,,,,,,,,,,,,,,,0,,,45,0
721983,control_change,3,0,2,,,,,,,,,,,,,,,0,64,127,,
722040,note_on,57,0,2,,,,,,,,,,,,,,,0,,,61,28
722040,note_on,120,0,1,,,,,,,,,,,,,,,0,,,69,0
722040,note_on,0,0,1,,,,,,,,,,,,,,,0,,,84,53
722160,note_on,120,0,2,,,,,,,,,,,,,,,0,,,61,0
722160,note_on,0,0,2,,,,,,,,,,,,,,,0,,,57,28
722160,note_on,0,0,1,,,,,,,,,,,,,,,0,,,85,52
722160,note_on,120,0,1,,,,,,,,,,,,,,,0,,,84,0
722160,set_tempo,240,1,0,,,,,,,,,,,,621568,,,,,,,
722280,note_on,0,0,1,,,,,,,,,,,,,,,0,,,80,52
722280,note_on,0,0,2,,,,,,,,,,,,,,,0,,,61,28
722280,note_on,120,0,1,,,,,,,,,,,,,,,0,,,85,0
722280,note_on,120,0,2,,,,,,,,,,,,,,,0,,,57,0
722400,note_on,120,0,2,,,,,,,,,,,,,,,0,,,61,0
722400,note_on,0,0,2,,,,,,,,,,,,,,,0,,,57,33
722400,note_on,120,0,1,,,,,,,,,,,,,,,0,,,80,0
722400,note_on,0,0,1,,,,,,,,,,,,,,,0,,,81,57
722400,set_tempo,240,1,0,,,,,,,,,,,,607595,,,,,,,
722520,note_on,120,0,2,,,,,,,,,,,,,,,0,,,57,0
722520,note_on,120,0,1,,,,,,,,,,,,,,,0,,,81,0
722520,note_on,0,0,1,,,,,,,,,,,,,,,0,,,80,51
722520,note_on,0,0,2,,,,,,,,,,,,,,,0,,,61,29
722640,note_on,120,0,2,,,,,,,,,,,,,,,0,,,61,0
722640,note_on,0,0,2,,,,,,,,,,,,,,,0,,,57,29
722640,set_tempo,240,1,0,,,,,,,,,,,,621568,,,,,,,
722640,note_on,0,0,1,,,,,,,,,,,,,,,0,,,81,51
722640,note_on,120,0,1,,,,,,,,,,,,,,,0,,,80,0
722760,note_on,120,0,2,,,,,,,,,,,,,,,0,,,57,0
722760,note_on,120,0,1,,,,,,,,,,,,,,,0,,,81,0
722760,note_on,0,0,2,,,,,,,,,,,,,,,0,,,61,29
722760,note_on,0,0,1,,,,,,,,,,,,,,,0,,,75,50
722880,note_on,0,0,2,,,,,,,,,,,,,,,0,,,57,33
722880,note_on,120,0,2,,,,,,,,,,,,,,,0,,,61,0
722880,note_on,120,0,1,,,,,,,,,,,,,,,0,,,75,0
722880,note_on,0,0,1,,,,,,,,,,,,,,,0,,,76,55
722880,set_tempo,240,1,0,,,,,,,,,,,,604169,,,,,,,
722886,control_change,6,0,2,,,,,,,,,,,,,,,0,64,0,,
722943,control_change,57,0,2,,,,,,,,,,,,,,,0,64,127,,
723000,note_on,0,0,1,,,,,,,,,,,,,,,0,,,75,51
723000,note_on,120,0,1,,,,,,,,,,,,,,,0,,,76,0
723000,note_on,57,0,2,,,,,,,,,,,,,,,0,,,57,0
723000,note_on,0,0,2,,,,,,,,,,,,,,,0,,,61,28
723120,set_tempo,240,1,0,,,,,,,,,,,,628865,,,,,,,
723120,note_on,0,0,1,,,,,,,,,,,,,,,0,,,76,51
723120,note_on,120,0,1,,,,,,,,,,,,,,,0,,,75,0
723120,note_on,0,0,2,,,,,,,,,,,,,,,0,,,57,28
723120,note_on,120,0,2,,,,,,,,,,,,,,,0,,,61,0
723240,note_on,120,0,2,,,,,,,,,,,,,,,0,,,57,0
723240,note_on,120,0,1,,,,,,,,,,,,,,,0,,,76,0
723240,note_on,0,0,2,,,,,,,,,,,,,,,0,,,61,27
723240,note_on,0,0,1,,,,,,,,,,,,,,,0,,,72,51
723360,note_on,120,0,2,,,,,,,,,,,,,,,0,,,61,0
723360,note_on,120,0,1,,,,,,,,,,,,,,,0,,,72,0
723360,set_tempo,240,1,0,,,,,,,,,,,,611060,,,,,,,
723360,note_on,0,0,2,,,,,,,,,,,,,,,0,,,57,31
723360,note_on,0,0,1,,,,,,,,,,,,,,,0,,,73,54
723480,note_on,120,0,2,,,,,,,,,,,,,,,0,,,57,0
723480,note_on,120,0,1,,,,,,,,,,,,,,,0,,,73,0
723480,note_on,0,0,1,,,,,,,,,,,,,,,0,,,72,47
723480,note_on,0,0,2,,,,,,,,,,,,,,,0,,,61,27
723600,set_tempo,240,1,0,,,,,,,,,,,,632511,,,,,,,
723600,note_on,120,0,2,,,,,,,,,,,,,,,0,,,61,0
723600,note_on,120,0,1,,,,,,,,,,,,,,,0,,,72,0
723600,note_on,0,0,1,,,,,,,,,,,,,,,0,,,73,49
723600,note_on,0,0,2,,,,,,,,,,,,,,,0,,,57,28
723720,note_on,120,0,1,,,,,,,,,,,,,,,0,,,73,0
723720,note_on,120,0,2,,,,,,,,,,,,,,,0,,,57,0
723720,note_on,0,0,2,,,,,,,,,,,,,,,0,,,61,28
723720,note_on,0,0,1,,,,,,,,,,,,,,,0,,,68,47
723840,set_tempo,240,1,0,,,,,,,,,,,,628865,,,,,,,
723840,note_on,0,0,1,,,,,,,,,,,,,,,0,,,69,53
723840,note_on,120,0,1,,,,,,,,,,,,,,,0,,,68,0
723840,note_on,120,0,2,,,,,,,,,,,,,,,0,,,61,0
723840,note_on,0,0,2,,,,,,,,,,,,,,,0,,,57,33
723840,control_change,0,0,2,,,,,,,,,,,,,,,0,64,0,,
723903,control_change,63,0,2,,,,,,,,,,,,,,,0,64,127,,
723960,note_on,0,0,2,,,,,,,,,,,,,,,0,,,61,28
723960,note_on,57,0,2,,,,,,,,,,,,,,,0,,,57,0
723960,note_on,0,0,1,,,,,,,,,,,,,,,0,,,68,49
723960,note_on,120,0,1,,,,,,,,,,,,,,,0,,,69,0
724080,set_tempo,240,1,0,,,,,,,,,,,,621568,,,,,,,
724080,note_on,120,0,1,,,,,,,,,,,,,,,0,,,68,0
724080,note_on,0,0,1,,,,,,,,,,,,,,,0,,,69,49
724080,note_on,0,0,2,,,,,,,,,,,,,,,0,,,57,28
724080,note_on,120,0,2,,,,,,,,,,,,,,,0,,,61,0
724200,note_on,0,0,1,,,,,,,,,,,,,,,0,,,71,49
724200,note_on,120,0,1,,,,,,,,,,,,,,,0,,,69,0
724200,note_on,0,0,2,,,,,,,,,,,,,,,0,,,61,28
724200,note_on,120,0,2,,,,,,,,,,,,,,,0,,,57,0
724320,note_on,0,0,1,,,,,,,,,,,,,,,0,,,73,55
724320,note_on,0,0,2,,,,,,,,,,,,,,,0,,,57,33
724320,note_on,120,0,2,,,,,,,,,,,,,,,0,,,61,0
724320,note_on,120,0,1,,,,,,,,,,,,,,,0,,,71,0
724440,note_on,120,0,1,,,,,,,,,,,,,,,0,,,73,0
724440,note_on,0,0,1,,,,,,,,,,,,,,,0,,,74,49
724440,note_on,0,0,2,,,,,,,,,,,,,,,0,,,61,29
724440,note_on,120,0,2,,,,,,,,,,,,,,,0,,,57,0
724560,note_on,120,0,2,,,,,,,,,,,,,,,0,,,61,0
724560,note_on,0,0,1,,,,,,,,,,,,,,,0,,,73,49
724560,note_on,120,0,1,,,,,,,,,,,,,,,0,,,74,0
724560,set_tempo,480,1,0,,,,,,,,,,,,635997,,,,,,,
724560,note_on,0,0,2,,,,,,,,,,,,,,,0,,,57,29
724680,note_on,0,0,2,,,,,,,,,,,,,,,0,,,61,30
724680,note_on,120,0,2,,,,,,,,,,,,,,,0,,,57,0
724680,note_on,120,0,1,,,,,,,,,,,,,,,0,,,73,0
724680,note_on,0,0,1,,,,,,,,,,,,,,,0,,,71,49
724800,set_tempo,240,1,0,,,,,,,,,,,,640478,,,,,,,
724800,note_on,120,0,1,,,,,,,,,,,,,,,0,,,71,0
724800,note_on,0,0,1,,,,,,,,,,,,,,,0,,,69,55
724800,note_on,0,0,2,,,,,,,,,,,,,,,0,,,57,34
724800,note_on,120,0,2,,,,,,,,,,,,,,,0,,,61,0
724806,control_change,6,0,2,,,,,,,,,,,,,,,0,64,0,,
724863,control_change,57,0,2,,,,,,,,,,,,,,,0,64,127,,
724920,note_on,0,0,1,,,,,,,,,,,,,,,0,,,71,50
724920,note_on,0,0,2,,,,,,,,,,,,,,,0,,,61,29
724920,note_on,57,0,2,,,,,,,,,,,,,,,0,,,57,0
724920,note_on,120,0,1,,,,,,,,,,,,,,,0,,,69,0
725040,note_on,120,0,1,,,,,,,,,,,,,,,0,,,71,0
725040,note_on,0,0,1,,,,,,,,,,,,,,,0,,,73,50
725040,set_tempo,240,1,0,,,,,,,,,,,,653666,,,,,,,
725040,note_on,120,0,2,,,,,,,,,,,,,,,0,,,61,0
725040,note_on,0,0,2,,,,,,,,,,,,,,,0,,,57,29
725160,note_on,120,0,2,,,,,,,,,,,,,,,0,,,57,0
725160,note_on,0,0,2,,,,,,,,,,,,,,,0,,,61,28
725160,note_on,120,0,1,,,,,,,,,,,,,,,0,,,73,0
725160,note_on,0,0,1,,,,,,,,,,,,,,,0,,,71,50
725280,note_on,0,0,1,,,,,,,,,,,,,,,0,,,69,55
725280,note_on,120,0,1,,,,,,,,,,,,,,,0,,,71,0
725280,set_tempo,240,1,0,,,,,,,,,,,,644815,,,,,,,
725280,note_on,120,0,2,,,,,,,,,,,,,,,0,,,61,0
725280,note_on,0,0,2,,,,,,,,,,,,,,,0,,,57,33
725400,note_on,0,0,1,,,,,,,,,,,,,,,0,,,71,50
725400,note_on,120,0,1,,,,,,,,,,,,,,,0,,,69,0
725400,note_on,120,0,2,,,,,,,,,,,,,,,0,,,57,0
725400,note_on,0,0,2,,,,,,,,,,,,,,,0,,,61,29
725520,note_on,120,0,1,,,,,,,,,,,,,,,0,,,71,0
725520,note_on,120,0,2,,,,,,,,,,,,,,,0,,,61,0
725520,note_on,0,0,2,,,,,,,,,,,,,,,0,,,57,30
725520,set_tempo,240,1,0,,,,,,,,,,,,658328,,,,,,,
725520,note_on,0,0,1,,,,,,,,,,,,,,,0,,,69,52
725640,note_on,120,0,2,,,,,,,,,,,,,,,0,,,57,0
725640,note_on,120,0,1,,,,,,,,,,,,,,,0,,,69,0
725640,note_on,0,0,1,,,,,,,,,,,,,,,0,,,68,51
725640,note_on,0,0,2,,,,,,,,,,,,,,,0,,,61,30
725760,note_on,120,0,1,,,,,,,,,,,,,,,0,,,68,0
725760,note_on,0,0,1,,,,,,,,,,,,,,,0,,,67,57
725760,note_on,0,0,2,,,,,,,,,,,,,,,0,,,45,34
725760,note_on,120,0,2,,,,,,,,,,,,,,,0,,,61,0
725760,control_change,0,0,2,,,,,,,,,,,,,,,0,64,0,,
725760,set_tempo,240,1,0,,,,,,,,,,,,694525,,,,,,,
725806,control_change,46,0,2,,,,,,,,,,,,,,,0,64,127,,
725920,note_on,0,0,2,,,,,,,,,,,,,,,0,,,57,31
725920,note_on,114,0,2,,,,,,,,,,,,,,,0,,,45,0
725920,note_on,160,0,1,,,,,,,,,,,,,,,0,,,67,0
725920,note_on,0,0,1,,,,,,,,,,,,,,,0,,,73,52
726080,note_on,0,0,2,,,,,,,,,,,,,,,0,,,45,25
726080,note_on,0,0,2,,,,,,,,,,,,,,,0,,,57,31
726080,note_on,160,0,2,,,,,,,,,,,,,,,0,,,57,0
726080,note_on,160,0,1,,,,,,,,,,,,,,,0,,,73,0
726080,note_on,0,0,1,,,,,,,,,,,,,,,0,,,61,45
726080,note_on,0,0,1,,,,,,,,,,,,,,,0,,,67,45
726080,note_on,0,0,1,,,,,,,,,,,,,,,0,,,73,54
726240,note_on,0,0,2,,,,,,,,,,,,,,,0,,,57,0
726240,note_on,160,0,2,,,,,,,,,,,,,,,0,,,45,0
726240,note_on,0,0,2,,,,,,,,,,,,,,,0,,,57,35
726240,note_on,0,0,2,,,,,,,,,,,,,,,0,,,45,29
726240,note_on,0,0,1,,,,,,,,,,,,,,,0,,,73,59
726240,note_on,0,0,1,,,,,,,,,,,,,,,0,,,67,50
726240,note_on,0,0,1,,,,,,,,,,,,,,,0,,,61,50
726240,note_on,0,0,1,,,,,,,,,,,,,,,0,,,61,0
726240,note_on,0,0,1,,,,,,,,,,,,,,,0,,,67,0
726240,note_on,160,0,1,,,,,,,,,,,,,,,0,,,73,0
726400,note_on,0,0,2,,,,,,,,,,,,,,,0,,,45,0
726400,note_on,0,0,1,,,,,,,,,,,,,,,0,,,73,56
726400,note_on,0,0,1,,,,,,,,,,,,,,,0,,,67,47
726400,note_on,0,0,1,,,,,,,,,,,,,,,0,,,61,47
726400,note_on,0,0,1,,,,,,,,,,,,,,,0,,,61,0
726400,note_on,0,0,1,,,,,,,,,,,,,,,0,,,67,0
726400,note_on,160,0,1,,,,,,,,,,,,,,,0,,,73,0
726400,note_on,160,0,2,,,,,,,,,,,,,,,0,,,57,0
726400,note_on,0,0,2,,,,,,,,,,,,,,,0,,,45,25
726400,note_on,0,0,2,,,,,,,,,,,,,,,0,,,57,31
726560,note_on,0,0,1,,,,,,,,,,,,,,,0,,,73,57
726560,note_on,0,0,1,,,,,,,,,,,,,,,0,,,67,48
726560,note_on,0,0,1,,,,,,,,,,,,,,,0,,,61,48
726560,note_on,0,0,1,,,,,,,,,,,,,,,0,,,67,0
726560,note_on,160,0,1,,,,,,,,,,,,,,,0,,,73,0
726560,note_on,160,0,2,,,,,,,,,,,,,,,0,,,57,0
726560,note_on,0,0,2,,,,,,,,,,,,,,,0,,,45,0
726560,note_on,0,0,2,,,,,,,,,,,,,,,0,,,45,27
726560,note_on,0,0,1,,,,,,,,,,,,,,,0,,,61,0
726560,note_on,0,0,2,,,,,,,,,,,,,,,0,,,57,33
726720,note_on,160,0,2,,,,,,,,,,,,,,,0,,,57,0
726720,note_on,0,0,1,,,,,,,,,,,,,,,0,,,73,62
726720,note_on,0,0,1,,,,,,,,,,,,,,,0,,,67,52
726720,note_on,0,0,1,,,,,,,,,,,,,,,0,,,61,52
726720,note_on,0,0,1,,,,,,,,,,,,,,,0,,,67,0
726720,note_on,160,0,1,,,,,,,,,,,,,,,0,,,73,0
726720,note_on,0,0,1,,,,,,,,,,,,,,,0,,,61,0
726720,note_on,0,0,2,,,,,,,,,,,,,,,0,,,57,37
726720,note_on,0,0,2,,,,,,,,,,,,,,,0,,,45,31
726720,note_on,0,0,2,,,,,,,,,,,,,,,0,,,45,0
726720,set_tempo,960,1,0,,,,,,,,,,,,694525,,,,,,,
726760,set_tempo,40,1,0,,,,,,,,,,,,694847,,,,,,,
726766,control_change,46,0,2,,,,,,,,,,,,,,,0,64,0,,
726823,control_change,57,0,2,,,,,,,,,,,,,,,0,64,127,,
726880,note_on,0,0,2,,,,,,,,,,,,,,,0,,,45,0
726880,note_on,160,0,1,,,,,,,,,,,,,,,0,,,73,0
726880,note_on,0,0,1,,,,,,,,,,,,,,,0,,,67,0
726880,note_on,0,0,1,,,,,,,,,,,,,,,0,,,61,0
726880,note_on,0,0,1,,,,,,,,,,,,,,,0,,,61,47
726880,note_on,0,0,1,,,,,,,,,,,,,,,0,,,67,47
726880,note_on,0,0,1,,,,,,,,,,,,,,,0,,,73,56
726880,note_on,57,0,2,,,,,,,,,,,,,,,0,,,57,0
726880,note_on,0,0,2,,,,,,,,,,,,,,,0,,,45,29
726880,note_on,0,0,2,,,,,,,,,,,,,,,0,,,57,35
726920,set_tempo,160,1,0,,,,,,,,,,,,690290,,,,,,,
727040,note_on,0,0,2,,,,,,,,,,,,,,,0,,,45,0
727040,note_on,0,0,1,,,,,,,,,,,,,,,0,,,61,0
727040,note_on,0,0,1,,,,,,,,,,,,,,,0,,,61,47
727040,note_on,0,0,1,,,,,,,,,,,,,,,0,,,67,47
727040,note_on,0,0,1,,,,,,,,,,,,,,,0,,,73,57
727040,note_on,0,0,2,,,,,,,,,,,,,,,0,,,57,35
727040,note_on,0,0,2,,,,,,,,,,,,,,,0,,,45,29
727040,note_on,0,0,1,,,,,,,,,,,,,,,0,,,67,0
727040,note_on,160,0,2,,,,,,,,,,,,,,,0,,,57,0
727040,note_on,160,0,1,,,,,,,,,,,,,,,0,,,73,0
727080,set_tempo,160,1,0,,,,,,,,,,,,685793,,,,,,,
727200,note_on,160,0,2,,,,,,,,,,,,,,,0,,,57,0
727200,note_on,0,0,2,,,,,,,,,,,,,,,0,,,45,0
727200,note_on,0,0,2,,,,,,,,,,,,,,,0,,,55,32
727200,note_on,0,0,2,,,,,,,,,,,,,,,0,,,45,32
727200,note_on,0,0,2,,,,,,,,,,,,,,,0,,,57,38
727200,set_tempo,120,1,0,,,,,,,,,,,,681431,,,,,,,
727200,note_on,0,0,2,,,,,,,,,,,,,,,0,,,52,32
727200,note_on,0,0,1,,,,,,,,,,,,,,,0,,,73,65
727200,note_on,0,0,1,,,,,,,,,,,,,,,0,,,67,55
727200,note_on,160,0,1,,,,,,,,,,,,,,,0,,,73,0
727200,note_on,0,0,1,,,,,,,,,,,,,,,0,,,67,0
727200,note_on,0,0,1,,,,,,,,,,,,,,,0,,,61,0
727200,note_on,0,0,1,,,,,,,,,,,,,,,0,,,61,55
727360,note_on,0,0,2,,,,,,,,,,,,,,,0,,,57,35
727360,note_on,0,0,2,,,,,,,,,,,,,,,0,,,45,28
727360,note_on,0,0,2,,,,,,,,,,,,,,,0,,,52,32
727360,note_on,0,0,2,,,,,,,,,,,,,,,0,,,55,32
727360,note_on,0,0,2,,,,,,,,,,,,,,,0,,,45,0
727360,note_on,0,0,2,,,,,,,,,,,,,,,0,,,52,0
727360,note_on,0,0,2,,,,,,,,,,,,,,,0,,,55,0
727360,note_on,160,0,1,,,,,,,,,,,,,,,0,,,73,0
727360,set_tempo,160,1,0,,,,,,,,,,,,677048,,,,,,,
727360,note_on,0,0,1,,,,,,,,,,,,,,,0,,,73,61
727360,note_on,0,0,1,,,,,,,,,,,,,,,0,,,67,51
727360,note_on,0,0,1,,,,,,,,,,,,,,,0,,,61,51
727360,note_on,0,0,1,,,,,,,,,,,,,,,0,,,61,0
727360,note_on,0,0,1,,,,,,,,,,,,,,,0,,,67,0
727360,note_on,160,0,2,,,,,,,,,,,,,,,0,,,57,0
727520,set_tempo,160,1,0,,,,,,,,,,,,672646,,,,,,,
727520,note_on,160,0,2,,,,,,,,,,,,,,,0,,,57,0
727520,note_on,0,0,2,,,,,,,,,,,,,,,0,,,55,0
727520,note_on,0,0,2,,,,,,,,,,,,,,,0,,,52,0
727520,note_on,0,0,2,,,,,,,,,,,,,,,0,,,45,0
727520,note_on,0,0,2,,,,,,,,,,,,,,,0,,,52,33
727520,note_on,0,0,2,,,,,,,,,,,,,,,0,,,45,29
727520,note_on,0,0,2,,,,,,,,,,,,,,,0,,,57,35
727520,note_on,160,0,1,,,,,,,,,,,,,,,0,,,73,0
727520,note_on,0,0,1,,,,,,,,,,,,,,,0,,,67,0
727520,note_on,0,0,1,,,,,,,,,,,,,,,0,,,61,0
727520,note_on,0,0,1,,,,,,,,,,,,,,,0,,,61,52
727520,note_on,0,0,1,,,,,,,,,,,,,,,0,,,67,52
727520,note_on,0,0,1,,,,,,,,,,,,,,,0,,,73,62
727520,note_on,0,0,2,,,,,,,,,,,,,,,0,,,55,32
727640,set_tempo,120,1,0,,,,,,,,,,,,668449,,,,,,,
727680,set_tempo,40,1,0,,,,,,,,,,,,668449,,,,,,,
727680,control_change,0,0,2,,,,,,,,,,,,,,,0,64,0,,
727680,note_on,0,0,2,,,,,,,,,,,,,,,0,,,52,33
727680,note_on,160,0,1,,,,,,,,,,,,,,,0,,,73,0
727680,note_on,0,0,1,,,,,,,,,,,,,,,0,,,61,0
727680,note_on,0,0,2,,,,,,,,,,,,,,,0,,,55,33
727680,note_on,0,0,1,,,,,,,,,,,,,,,0,,,61,57
727680,note_on,0,0,1,,,,,,,,,,,,,,,0,,,67,57
727680,note_on,0,0,1,,,,,,,,,,,,,,,0,,,73,67
727680,note_on,0,0,2,,,,,,,,,,,,,,,0,,,45,33
727680,note_on,0,0,2,,,,,,,,,,,,,,,0,,,45,0
727680,note_on,0,0,2,,,,,,,,,,,,,,,0,,,52,0
727680,note_on,160,0,2,,,,,,,,,,,,,,,0,,,57,0
727680,note_on,0,0,1,,,,,,,,,,,,,,,0,,,67,0
727680,note_on,0,0,2,,,,,,,,,,,,,,,0,,,55,0
727680,note_on,0,0,2,,,,,,,,,,,,,,,0,,,57,40
727743,control_change,63,0,2,,,,,,,,,,,,,,,0,64,127,,
727840,note_on,0,0,2,,,,,,,,,,,,,,,0,,,52,0
727840,note_on,0,0,1,,,,,,,,,,,,,,,0,,,61,0
727840,note_on,0,0,1,,,,,,,,,,,,,,,0,,,61,53
727840,note_on,0,0,1,,,,,,,,,,,,,,,0,,,67,53
727840,note_on,0,0,1,,,,,,,,,,,,,,,0,,,73,64
727840,note_on,0,0,2,,,,,,,,,,,,,,,0,,,57,36
727840,note_on,0,0,1,,,,,,,,,,,,,,,0,,,67,0
727840,note_on,160,0,1,,,,,,,,,,,,,,,0,,,73,0
727840,note_on,0,0,2,,,,,,,,,,,,,,,0,,,52,34
727840,note_on,0,0,2,,,,,,,,,,,,,,,0,,,55,33
727840,note_on,0,0,2,,,,,,,,,,,,,,,0,,,45,0
727840,note_on,0,0,2,,,,,,,,,,,,,,,0,,,55,0
727840,note_on,97,0,2,,,,,,,,,,,,,,,0,,,57,0
727840,note_on,0,0,2,,,,,,,,,,,,,,,0,,,45,30
728000,note_on,0,0,1,,,,,,,,,,,,,,,0,,,73,65
728000,set_tempo,320,1,0,,,,,,,,,,,,672646,,,,,,,
728000,note_on,0,0,1,,,,,,,,,,,,,,,0,,,61,55
728000,note_on,0,0,1,,,,,,,,,,,,,,,0,,,61,0
728000,note_on,0,0,1,,,,,,,,,,,,,,,0,,,67,0
728000,note_on,160,0,1,,,,,,,,,,,,,,,0,,,73,0
728000,note_on,160,0,2,,,,,,,,,,,,,,,0,,,57,0
728000,note_on,0,0,1,,,,,,,,,,,,,,,0,,,67,55
728000,note_on,0,0,2,,,,,,,,,,,,,,,0,,,55,0
728000,note_on,0,0,2,,,,,,,,,,,,,,,0,,,52,35
728000,note_on,0,0,2,,,,,,,,,,,,,,,0,,,52,0
728000,note_on,0,0,2,,,,,,,,,,,,,,,0,,,45,0
728000,note_on,0,0,2,,,,,,,,,,,,,,,0,,,55,33
728000,note_on,0,0,2,,,,,,,,,,,,,,,0,,,45,30
728000,note_on,0,0,2,,,,,,,,,,,,,,,0,,,57,37
728160,note_on,0,0,1,,,,,,,,,,,,,,,0,,,61,59
728160,note_on,0,0,1,,,,,,,,,,,,,,,0,,,67,59
728160,note_on,0,0,1,,,,,,,,,,,,,,,0,,,61,0
728160,note_on,0,0,1,,,,,,,,,,,,,,,0,,,67,0
728160,note_on,160,0,1,,,,,,,,,,,,,,,0,,,73,0
728160,note_on,160,0,2,,,,,,,,,,,,,,,0,,,57,0
728160,note_on,0,0,2,,,,,,,,,,,,,,,0,,,55,0
728160,note_on,0,0,2,,,,,,,,,,,,,,,0,,,52,0
728160,note_on,0,0,1,,,,,,,,,,,,,,,0,,,73,71
728160,note_on,0,0,2,,,,,,,,,,,,,,,0,,,55,44
728160,note_on,0,0,2,,,,,,,,,,,,,,,0,,,52,36
728160,note_on,0,0,2,,,,,,,,,,,,,,,0,,,45,36
728160,note_on,0,0,2,,,,,,,,,,,,,,,0,,,45,0
728160,note_on,0,0,2,,,,,,,,,,,,,,,0,,,57,44
728320,note_on,0,0,2,,,,,,,,,,,,,,,0,,,57,40
728320,note_on,160,0,1,,,,,,,,,,,,,,,0,,,73,0
728320,note_on,0,0,1,,,,,,,,,,,,,,,0,,,67,0
728320,note_on,0,0,1,,,,,,,,,,,,,,,0,,,61,0
728320,note_on,0,0,1,,,,,,,,,,,,,,,0,,,61,56
728320,note_on,0,0,2,,,,,,,,,,,,,,,0,,,52,37
728320,note_on,0,0,1,,,,,,,,,,,,,,,0,,,67,56
728320,note_on,0,0,1,,,,,,,,,,,,,,,0,,,73,67
728320,note_on,0,0,2,,,,,,,,,,,,,,,0,,,55,44
728320,note_on,0,0,2,,,,,,,,,,,,,,,0,,,45,0
728320,note_on,0,0,2,,,,,,,,,,,,,,,0,,,52,0
728320,note_on,0,0,2,,,,,,,,,,,,,,,0,,,45,33
728320,note_on,160,0,2,,,,,,,,,,,,,,,0,,,57,0
728320,set_tempo,320,1,0,,,,,,,,,,,,677048,,,,,,,
728320,note_on,0,0,2,,,,,,,,,,,,,,,0,,,55,0
728480,note_on,0,0,2,,,,,,,,,,,,,,,0,,,45,0
728480,note_on,0,0,2,,,,,,,,,,,,,,,0,,,55,45
728480,note_on,0,0,2,,,,,,,,,,,,,,,0,,,52,39
728480,note_on,0,0,2,,,,,,,,,,,,,,,0,,,45,34
728480,note_on,0,0,2,,,,,,,,,,,,,,,0,,,57,42
728480,note_on,160,0,1,,,,,,,,,,,,,,,0,,,73,0
728480,note_on,0,0,1,,,,,,,,,,,,,,,0,,,67,0
728480,note_on,0,0,1,,,,,,,,,,,,,,,0,,,61,0
728480,note_on,0,0,1,,,,,,,,,,,,,,,0,,,67,57
728480,note_on,160,0,2,,,,,,,,,,,,,,,0,,,57,0
728480,note_on,0,0,1,,,,,,,,,,,,,,,0,,,73,69
728480,note_on,0,0,2,,,,,,,,,,,,,,,0,,,52,0
728480,note_on,0,0,2,,,,,,,,,,,,,,,0,,,55,0
728480,note_on,0,0,1,,,,,,,,,,,,,,,0,,,61,57
728600,set_tempo,280,1,0,,,,,,,,,,,,681431,,,,,,,
728640,note_on,0,0,1,,,,,,,,,,,,,,,0,,,73,74
728640,note_on,0,0,1,,,,,,,,,,,,,,,0,,,61,62
728640,note_on,0,0,1,,,,,,,,,,,,,,,0,,,67,62
728640,note_on,0,0,1,,,,,,,,,,,,,,,0,,,61,0
728640,note_on,160,0,2,,,,,,,,,,,,,,,0,,,57,0
728640,note_on,0,0,2,,,,,,,,,,,,,,,0,,,55,0
728640,note_on,0,0,2,,,,,,,,,,,,,,,0,,,52,0
728640,note_on,0,0,2,,,,,,,,,,,,,,,0,,,45,0
728640,note_on,0,0,2,,,,,,,,,,,,,,,0,,,52,40
728640,note_on,0,0,2,,,,,,,,,,,,,,,0,,,45,40
728640,note_on,0,0,2,,,,,,,,,,,,,,,0,,,57,48
728640,note_on,0,0,1,,,,,,,,,,,,,,,0,,,67,0
728640,set_tempo,40,1,0,,,,,,,,,,,,681431,,,,,,,
728640,note_on,160,0,1,,,,,,,,,,,,,,,0,,,73,0
728640,note_on,0,0,2,,,,,,,,,,,,,,,0,,,55,48
728720,set_tempo,80,1,0,,,,,,,,,,,,685793,,,,,,,
728800,note_on,0,0,1,,,,,,,,,,,,,,,0,,,61,0
728800,note_on,0,0,1,,,,,,,,,,,,,,,0,,,67,0
728800,note_on,160,0,1,,,,,,,,,,,,,,,0,,,73,0
728800,note_on,0,0,1,,,,,,,,,,,,,,,0,,,73,71
728800,note_on,0,0,2,,,,,,,,,,,,,,,0,,,55,49
728800,note_on,0,0,2,,,,,,,,,,,,,,,0,,,55,0
728800,set_tempo,80,1,0,,,,,,,,,,,,690290,,,,,,,
728800,note_on,160,0,2,,,,,,,,,,,,,,,0,,,57,0
728800,note_on,0,0,1,,,,,,,,,,,,,,,0,,,67,59
728800,note_on,0,0,2,,,,,,,,,,,,,,,0,,,57,44
728800,note_on,0,0,1,,,,,,,,,,,,,,,0,,,61,59
728800,note_on,0,0,2,,,,,,,,,,,,,,,0,,,52,41
728800,note_on,0,0,2,,,,,,,,,,,,,,,0,,,45,0
728800,note_on,0,0,2,,,,,,,,,,,,,,,0,,,52,0
728800,note_on,0,0,2,,,,,,,,,,,,,,,0,,,45,37
728840,set_tempo,40,1,0,,,,,,,,,,,,694847,,,,,,,
728920,set_tempo,80,1,0,,,,,,,,,,,,699464,,,,,,,
728960,note_on,0,0,2,,,,,,,,,,,,,,,0,,,57,46
728960,note_on,160,0,1,,,,,,,,,,,,,,,0,,,73,0
728960,note_on,0,0,1,,,,,,,,,,,,,,,0,,,67,0
728960,note_on,0,0,1,,,,,,,,,,,,,,,0,,,61,0
728960,note_on,0,0,1,,,,,,,,,,,,,,,0,,,61,60
728960,note_on,0,0,1,,,,,,,,,,,,,,,0,,,67,60
728960,note_on,0,0,1,,,,,,,,,,,,,,,0,,,73,72
728960,note_on,160,0,2,,,,,,,,,,,,,,,0,,,57,0
728960,note_on,0,0,2,,,,,,,,,,,,,,,0,,,45,37
728960,note_on,0,0,2,,,,,,,,,,,,,,,0,,,52,43
728960,note_on,0,0,2,,,,,,,,,,,,,,,0,,,55,49
728960,note_on,0,0,2,,,,,,,,,,,,,,,0,,,45,0
728960,note_on,0,0,2,,,,,,,,,,,,,,,0,,,52,0
728960,note_on,0,0,2,,,,,,,,,,,,,,,0,,,55,0
728960,set_tempo,40,1,0,,,,,,,,,,,,704060,,,,,,,
729040,set_tempo,80,1,0,,,,,,,,,,,,708801,,,,,,,
729080,set_tempo,40,1,0,,,,,,,,,,,,713606,,,,,,,
729120,note_on,0,0,2,,,,,,,,,,,,,,,0,,,46,48
729120,note_on,0,0,1,,,,,,,,,,,,,,,0,,,67,0
729120,note_on,0,0,2,,,,,,,,,,,,,,,0,,,53,48
729120,note_on,0,0,2,,,,,,,,,,,,,,,0,,,58,57
729120,set_tempo,40,1,0,,,,,,,,,,,,733407,,,,,,,
729120,note_on,160,0,2,,,,,,,,,,,,,,,0,,,57,0
729120,note_on,0,0,2,,,,,,,,,,,,,,,0,,,55,0
729120,note_on,0,0,2,,,,,,,,,,,,,,,0,,,52,0
729120,note_on,0,0,2,,,,,,,,,,,,,,,0,,,50,48
729120,note_on,0,0,2,,,,,,,,,,,,,,,0,,,45,0
729120,note_on,160,0,1,,,,,,,,,,,,,,,0,,,73,0
729120,note_on,0,0,1,,,,,,,,,,,,,,,0,,,74,85
729120,note_on,0,0,1,,,,,,,,,,,,,,,0,,,62,72
729120,note_on,0,0,1,,,,,,,,,,,,,,,0,,,65,72
729120,note_on,0,0,1,,,,,,,,,,,,,,,0,,,61,0
729137,control_change,17,0,2,,,,,,,,,,,,,,,0,64,0,,
729183,control_change,46,0,2,,,,,,,,,,,,,,,0,64,127,,
729280,note_on,0,0,2,,,,,,,,,,,,,,,0,,,46,42
729280,note_on,0,0,2,,,,,,,,,,,,,,,0,,,53,48
729280,note_on,0,0,2,,,,,,,,,,,,,,,0,,,50,48
729280,note_on,0,0,2,,,,,,,,,,,,,,,0,,,46,0
729280,note_on,0,0,2,,,,,,,,,,,,,,,0,,,58,52
729280,note_on,0,0,2,,,,,,,,,,,,,,,0,,,58,0
729280,note_on,0,0,2,,,,,,,,,,,,,,,0,,,50,0
729280,note_on,97,0,2,,,,,,,,,,,,,,,0,,,53,0
729280,note_on,160,0,1,,,,,,,,,,,,,,,0,,,74,0
729280,note_on,0,0,1,,,,,,,,,,,,,,,0,,,62,0
729280,note_on,0,0,1,,,,,,,,,,,,,,,0,,,65,67
729280,note_on,0,0,1,,,,,,,,,,,,,,,0,,,62,67
729280,note_on,0,0,1,,,,,,,,,,,,,,,0,,,74,80
729280,note_on,0,0,1,,,,,,,,,,,,,,,0,,,65,0
729440,note_on,0,0,1,,,,,,,,,,,,,,,0,,,62,0
729440,note_on,0,0,1,,,,,,,,,,,,,,,0,,,65,0
729440,note_on,0,0,1,,,,,,,,,,,,,,,0,,,65,67
729440,note_on,0,0,2,,,,,,,,,,,,,,,0,,,53,48
729440,note_on,0,0,1,,,,,,,,,,,,,,,0,,,62,67
729440,note_on,0,0,1,,,,,,,,,,,,,,,0,,,74,80
729440,note_on,160,0,2,,,,,,,,,,,,,,,0,,,53,0
729440,note_on,0,0,2,,,,,,,,,,,,,,,0,,,50,0
729440,note_on,0,0,2,,,,,,,,,,,,,,,0,,,58,0
729440,note_on,0,0,2,,,,,,,,,,,,,,,0,,,46,0
729440,note_on,0,0,2,,,,,,,,,,,,,,,0,,,50,48
729440,note_on,0,0,2,,,,,,,,,,,,,,,0,,,58,52
729440,note_on,0,0,2,,,,,,,,,,,,,,,0,,,46,42
729440,note_on,160,0,1,,,,,,,,,,,,,,,0,,,74,0
729600,note_on,160,0,2,,,,,,,,,,,,,,,0,,,53,0
729600,note_on,160,0,1,,,,,,,,,,,,,,,0,,,74,0
729600,note_on,0,0,2,,,,,,,,,,,,,,,0,,,58,0
729600,note_on,0,0,1,,,,,,,,,,,,,,,0,,,74,90
729600,note_on,0,0,1,,,,,,,,,,,,,,,0,,,65,0
729600,set_tempo,480,1,0,,,,,,,,,,,,729483,,,,,,,
729600,note_on,0,0,1,,,,,,,,,,,,,,,0,,,62,0
729600,note_on,0,0,2,,,,,,,,,,,,,,,0,,,50,0
729600,note_on,0,0,1,,,,,,,,,,,,,,,0,,,65,77
729600,note_on,0,0,1,,,,,,,,,,,,,,,0,,,62,63
729600,control_change,0,0,2,,,,,,,,,,,,,,,0,64,0,,
729600,control_change,0,0,2,,,,,,,,,,,,,,,0,64,0,,
729600,note_on,0,0,2,,,,,,,,,,,,,,,0,,,41,63
729600,note_on,0,0,2,,,,,,,,,,,,,,,0,,,58,63
729600,note_on,0,0,2,,,,,,,,,,,,,,,0,,,46,63
729600,note_on,0,0,2,,,,,,,,,,,,,,,0,,,46,0
729685,control_change,85,0,2,,,,,,,,,,,,,,,0,64,127,,
729760,note_on,0,0,2,,,,,,,,,,,,,,,0,,,53,58
729760,note_on,75,0,2,,,,,,,,,,,,,,,0,,,58,0
729880,set_tempo,280,1,0,,,,,,,,,,,,750657,,,,,,,
729920,note_on,160,0,2,,,,,,,,,,,,,,,0,,,53,0
729920,note_on,0,0,2,,,,,,,,,,,,,,,0,,,53,58
730000,note_on,80,0,2,,,,,,,,,,,,,,,0,,,53,0
730080,set_tempo,200,1,0,,,,,,,,,,,,729483,,,,,,,
730080,note_on,480,0,1,,,,,,,,,,,,,,,0,,,74,0
730080,note_on,0,0,1,,,,,,,,,,,,,,,0,,,62,0
730080,note_on,0,0,1,,,,,,,,,,,,,,,0,,,60,60
730080,note_on,0,0,1,,,,,,,,,,,,,,,0,,,69,72
730080,note_on,0,0,1,,,,,,,,,,,,,,,0,,,72,85
730080,note_on,0,0,1,,,,,,,,,,,,,,,0,,,65,0
730080,control_change,0,0,2,,,,,,,,,,,,,,,0,64,0,,
730080,note_on,0,0,2,,,,,,,,,,,,,,,0,,,46,62
730080,note_on,0,0,2,,,,,,,,,,,,,,,0,,,51,62
730080,note_on,80,0,2,,,,,,,,,,,,,,,0,,,41,0
730080,note_on,0,0,2,,,,,,,,,,,,,,,0,,,46,0
730165,control_change,85,0,2,,,,,,,,,,,,,,,0,64,127,,
730240,note_on,75,0,2,,,,,,,,,,,,,,,0,,,51,0
730240,note_on,0,0,2,,,,,,,,,,,,,,,0,,,53,58
730320,set_tempo,240,1,0,,,,,,,,,,,,756144,,,,,,,
730400,note_on,160,0,2,,,,,,,,,,,,,,,0,,,53,0
730400,note_on,0,0,2,,,,,,,,,,,,,,,0,,,53,58
730480,set_tempo,160,1,0,,,,,,,,,,,,734574,,,,,,,
730480,note_on,80,0,2,,,,,,,,,,,,,,,0,,,53,0
730560,set_tempo,80,1,0,,,,,,,,,,,,750657,,,,,,,
730560,note_on,480,0,1,,,,,,,,,,,,,,,0,,,72,0
730560,note_on,0,0,1,,,,,,,,,,,,,,,0,,,70,85
730560,note_on,0,0,2,,,,,,,,,,,,,,,0,,,46,60
730560,note_on,0,0,1,,,,,,,,,,,,,,,0,,,65,72
730560,note_on,80,0,2,,,,,,,,,,,,,,,0,,,46,0
730560,note_on,0,0,1,,,,,,,,,,,,,,,0,,,69,0
730560,note_on,0,0,1,,,,,,,,,,,,,,,0,,,60,0
730560,note_on,0,0,1,,,,,,,,,,,,,,,0,,,58,60
730560,note_on,0,0,2,,,,,,,,,,,,,,,0,,,50,60
730602,control_change,42,0,2,,,,,,,,,,,,,,,0,64,0,,
730715,control_change,113,0,2,,,,,,,,,,,,,,,0,64,127,,
730720,note_on,5,0,2,,,,,,,,,,,,,,,0,,,50,0
730720,note_on,0,0,2,,,,,,,,,,,,,,,0,,,53,58
730800,set_tempo,240,1,0,,,,,,,,,,,,761615,,,,,,,
730880,note_on,160,0,2,,,,,,,,,,,,,,,0,,,53,0
730880,note_on,0,0,2,,,,,,,,,,,,,,,0,,,53,58
730960,note_on,80,0,2,,,,,,,,,,,,,,,0,,,53,0
731040,note_on,0,0,2,,,,,,,,,,,,,,,0,,,51,61
731040,set_tempo,240,1,0,,,,,,,,,,,,734574,,,,,,,
731040,note_on,0,0,1,,,,,,,,,,,,,,,0,,,60,60
731040,note_on,0,0,1,,,,,,,,,,,,,,,0,,,58,0
731040,note_on,0,0,1,,,,,,,,,,,,,,,0,,,65,0
731040,note_on,80,0,2,,,,,,,,,,,,,,,0,,,46,0
731040,note_on,480,0,1,,,,,,,,,,,,,,,0,,,70,0
731040,note_on,0,0,1,,,,,,,,,,,,,,,0,,,72,85
731040,note_on,0,0,1,,,,,,,,,,,,,,,0,,,65,72
731040,note_on,0,0,2,,,,,,,,,,,,,,,0,,,46,61
731068,control_change,28,0,2,,,,,,,,,,,,,,,0,64,0,,
731181,control_change,113,0,2,,,,,,,,,,,,,,,0,64,127,,
731200,note_on,0,0,2,,,,,,,,,,,,,,,0,,,53,58
731200,note_on,19,0,2,,,,,,,,,,,,,,,0,,,51,0
731280,set_tempo,240,1,0,,,,,,,,,,,,761615,,,,,,,
731360,note_on,160,0,2,,,,,,,,,,,,,,,0,,,53,0
731360,note_on,0,0,2,,,,,,,,,,,,,,,0,,,53,58
731440,note_on,80,0,2,,,,,,,,,,,,,,,0,,,53,0
731520,note_on,0,0,1,,,,,,,,,,,,,,,0,,,65,78
731520,note_on,0,0,1,,,,,,,,,,,,,,,0,,,60,0
731520,note_on,0,0,1,,,,,,,,,,,,,,,0,,,62,64
731520,note_on,0,0,1,,,,,,,,,,,,,,,0,,,74,92
731520,note_on,0,0,1,,,,,,,,,,,,,,,0,,,65,0
731520,note_on,480,0,1,,,,,,,,,,,,,,,0,,,72,0
731520,set_tempo,240,1,0,,,,,,,,,,,,729483,,,,,,,
731520,note_on,0,0,2,,,,,,,,,,,,,,,0,,,52,60
731520,note_on,80,0,2,,,,,,,,,,,,,,,0,,,46,0
731520,control_change,0,0,2,,,,,,,,,,,,,,,0,64,0,,
731520,note_on,0,0,2,,,,,,,,,,,,,,,0,,,46,60
731623,control_change,103,0,2,,,,,,,,,,,,,,,0,64,127,,
731680,note_on,57,0,2,,,,,,,,,,,,,,,0,,,52,0
731680,note_on,0,0,2,,,,,,,,,,,,,,,0,,,53,58
731739,control_change,59,0,2,,,,,,,,,,,,,,,0,64,0,,
731760,set_tempo,240,1,0,,,,,,,,,,,,714371,,,,,,,
731824,control_change,85,0,2,,,,,,,,,,,,,,,0,64,127,,
731840,note_on,0,0,2,,,,,,,,,,,,,,,0,,,53,58
731840,note_on,16,0,2,,,,,,,,,,,,,,,0,,,53,0
731920,note_on,80,0,2,,,,,,,,,,,,,,,0,,,53,0
732000,set_tempo,240,1,0,,,,,,,,,,,,714371,,,,,,,
732000,note_on,80,0,2,,,,,,,,,,,,,,,0,,,53,60
732160,note_on,160,0,2,,,,,,,,,,,,,,,0,,,53,0
732160,note_on,0,0,2,,,,,,,,,,,,,,,0,,,53,58
732320,note_on,160,0,2,,,,,,,,,,,,,,,0,,,53,0
732320,note_on,0,0,2,,,,,,,,,,,,,,,0,,,53,58
732400,note_on,80,0,2,,,,,,,,,,,,,,,0,,,53,0
732480,note_on,80,0,2,,,,,,,,,,,,,,,0,,,53,62
732640,note_on,160,0,2,,,,,,,,,,,,,,,0,,,53,0
732640,note_on,0,0,2,,,,,,,,,,,,,,,0,,,53,58
732800,note_on,160,0,2,,,,,,,,,,,,,,,0,,,53,0
732800,note_on,0,0,2,,,,,,,,,,,,,,,0,,,53,58
732960,note_on,0,0,2,,,,,,,,,,,,,,,0,,,46,61
732960,note_on,0,0,2,,,,,,,,,,,,,,,0,,,51,61
732960,note_on,0,0,2,,,,,,,,,,,,,,,0,,,46,0
732960,note_on,160,0,2,,,,,,,,,,,,,,,0,,,53,0
732960,note_on,1440,0,1,,,,,,,,,,,,,,,0,,,74,0
732960,note_on,0,0,1,,,,,,,,,,,,,,,0,,,65,0
732960,note_on,0,0,1,,,,,,,,,,,,,,,0,,,62,0
732960,note_on,0,0,1,,,,,,,,,,,,,,,0,,,65,74
732960,note_on,0,0,1,,,,,,,,,,,,,,,0,,,60,62
732960,set_tempo,960,1,0,,,,,,,,,,,,719338,,,,,,,
732960,note_on,0,0,1,,,,,,,,,,,,,,,0,,,72,89
732967,control_change,7,0,2,,,,,,,,,,,,,,,0,64,0,,
733040,control_change,73,0,2,,,,,,,,,,,,,,,0,64,127,,
733120,note_on,80,0,2,,,,,,,,,,,,,,,0,,,51,0
733120,note_on,0,0,2,,,,,,,,,,,,,,,0,,,53,53
733200,note_on,240,0,1,,,,,,,,,,,,,,,0,,,72,0
733200,note_on,0,0,1,,,,,,,,,,,,,,,0,,,65,0
733200,note_on,0,0,1,,,,,,,,,,,,,,,0,,,60,0
733200,note_on,0,0,1,,,,,,,,,,,,,,,0,,,58,58
733200,note_on,0,0,1,,,,,,,,,,,,,,,0,,,65,69
733200,note_on,0,0,1,,,,,,,,,,,,,,,0,,,70,82
733200,set_tempo,240,1,0,,,,,,,,,,,,750657,,,,,,,
733280,note_on,160,0,2,,,,,,,,,,,,,,,0,,,53,0
733280,note_on,0,0,2,,,,,,,,,,,,,,,0,,,50,53
733440,note_on,160,0,2,,,,,,,,,,,,,,,0,,,50,0
733440,note_on,0,0,2,,,,,,,,,,,,,,,0,,,46,0
733440,note_on,0,0,2,,,,,,,,,,,,,,,0,,,51,60
733440,note_on,0,0,2,,,,,,,,,,,,,,,0,,,41,60
733440,set_tempo,240,1,0,,,,,,,,,,,,729483,,,,,,,
733440,note_on,0,0,1,,,,,,,,,,,,,,,0,,,60,61
733440,control_change,0,0,2,,,,,,,,,,,,,,,0,64,0,,
733440,note_on,0,0,1,,,,,,,,,,,,,,,0,,,58,0
733440,note_on,0,0,1,,,,,,,,,,,,,,,0,,,65,0
733440,note_on,240,0,1,,,,,,,,,,,,,,,0,,,70,0
733440,note_on,0,0,1,,,,,,,,,,,,,,,0,,,65,73
733440,note_on,0,0,1,,,,,,,,,,,,,,,0,,,72,88
733496,control_change,56,0,2,,,,,,,,,,,,,,,0,64,127,,
733600,note_on,0,0,2,,,,,,,,,,,,,,,0,,,53,55
733600,note_on,104,0,2,,,,,,,,,,,,,,,0,,,51,0
733680,set_tempo,240,1,0,,,,,,,,,,,,740010,,,,,,,
733760,note_on,0,0,2,,,,,,,,,,,,,,,0,,,53,55
733760,note_on,160,0,2,,,,,,,,,,,,,,,0,,,53,0
733906,control_change,146,0,2,,,,,,,,,,,,,,,0,64,0,,
733920,note_on,0,0,1,,,,,,,,,,,,,,,0,,,65,71
733920,note_on,480,0,1,,,,,,,,,,,,,,,0,,,72,0
733920,note_on,0,0,1,,,,,,,,,,,,,,,0,,,65,0
733920,note_on,14,0,2,,,,,,,,,,,,,,,0,,,53,0
733920,note_on,0,0,1,,,,,,,,,,,,,,,0,,,60,59
733920,note_on,0,0,1,,,,,,,,,,,,,,,0,,,72,84
733920,note_on,0,0,2,,,,,,,,,,,,,,,0,,,41,0
733920,note_on,0,0,2,,,,,,,,,,,,,,,0,,,51,60
733920,note_on,0,0,2,,,,,,,,,,,,,,,0,,,41,60
733920,set_tempo,240,1,0,,,,,,,,,,,,729483,,,,,,,
733920,note_on,0,0,1,,,,,,,,,,,,,,,0,,,60,0
733962,control_change,42,0,2,,,,,,,,,,,,,,,0,64,127,,
734080,note_on,118,0,2,,,,,,,,,,,,,,,0,,,51,0
734080,note_on,0,0,2,,,,,,,,,,,,,,,0,,,53,56
734160,set_tempo,240,1,0,,,,,,,,,,,,740010,,,,,,,
734240,note_on,160,0,2,,,,,,,,,,,,,,,0,,,53,0
734240,note_on,0,0,2,,,,,,,,,,,,,,,0,,,53,56
734400,note_on,0,0,1,,,,,,,,,,,,,,,0,,,65,0
734400,note_on,480,0,1,,,,,,,,,,,,,,,0,,,72,0
734400,note_on,0,0,2,,,,,,,,,,,,,,,0,,,41,62
734400,note_on,0,0,2,,,,,,,,,,,,,,,0,,,51,62
734400,note_on,160,0,2,,,,,,,,,,,,,,,0,,,53,0
734400,note_on,0,0,2,,,,,,,,,,,,,,,0,,,41,0
734400,note_on,0,0,1,,,,,,,,,,,,,,,0,,,60,59
734400,note_on,0,0,1,,,,,,,,,,,,,,,0,,,72,83
734400,note_on,0,0,1,,,,,,,,,,,,,,,0,,,60,0
734400,note_on,0,0,1,,,,,,,,,,,,,,,0,,,65,70
734435,control_change,35,0,2,,,,,,,,,,,,,,,0,64,0,,
734440,set_tempo,280,1,0,,,,,,,,,,,,729483,,,,,,,
734456,control_change,21,0,2,,,,,,,,,,,,,,,0,64,127,,
734560,note_on,104,0,2,,,,,,,,,,,,,,,0,,,51,0
734560,note_on,0,0,2,,,,,,,,,,,,,,,0,,,53,58
734640,set_tempo,200,1,0,,,,,,,,,,,,756144,,,,,,,
734720,note_on,160,0,2,,,,,,,,,,,,,,,0,,,53,0
734720,note_on,0,0,2,,,,,,,,,,,,,,,0,,,53,58
734880,note_on,0,0,2,,,,,,,,,,,,,,,0,,,50,62
734880,note_on,0,0,2,,,,,,,,,,,,,,,0,,,41,62
734880,set_tempo,240,1,0,,,,,,,,,,,,729483,,,,,,,
734880,note_on,160,0,2,,,,,,,,,,,,,,,0,,,53,0
734880,note_on,0,0,1,,,,,,,,,,,,,,,0,,,65,73
734880,note_on,480,0,1,,,,,,,,,,,,,,,0,,,72,0
734880,note_on,0,0,1,,,,,,,,,,,,,,,0,,,65,0
734880,note_on,0,0,1,,,,,,,,,,,,,,,0,,,60,0
734880,note_on,0,0,1,,,,,,,,,,,,,,,0,,,58,61
734880,note_on,0,0,2,,,,,,,,,,,,,,,0,,,41,0
734880,note_on,0,0,1,,,,,,,,,,,,,,,0,,,70,88
734922,control_change,42,0,2,,,,,,,,,,,,,,,0,64,0,,
734993,control_change,71,0,2,,,,,,,,,,,,,,,0,64,127,,
735040,note_on,0,0,2,,,,,,,,,,,,,,,0,,,53,59
735040,note_on,47,0,2,,,,,,,,,,,,,,,0,,,50,0
735120,note_on,0,0,1,,,,,,,,,,,,,,,0,,,57,58
735120,note_on,240,0,1,,,,,,,,,,,,,,,0,,,70,0
735120,set_tempo,240,1,0,,,,,,,,,,,,794702,,,,,,,
735120,note_on,0,0,1,,,,,,,,,,,,,,,0,,,65,69
735120,note_on,0,0,1,,,,,,,,,,,,,,,0,,,58,0
735120,note_on,0,0,1,,,,,,,,,,,,,,,0,,,65,0
735120,note_on,0,0,1,,,,,,,,,,,,,,,0,,,69,82
735200,note_on,160,0,2,,,,,,,,,,,,,,,0,,,53,0
735200,note_on,0,0,2,,,,,,,,,,,,,,,0,,,48,59
735320,set_tempo,200,1,0,,,,,,,,,,,,740010,,,,,,,
735360,note_on,0,0,1,,,,,,,,,,,,,,,0,,,58,75
735360,note_on,0,0,1,,,,,,,,,,,,,,,0,,,65,75
735360,note_on,0,0,1,,,,,,,,,,,,,,,0,,,57,0
735360,note_on,240,0,1,,,,,,,,,,,,,,,0,,,69,0
735360,note_on,0,0,1,,,,,,,,,,,,,,,0,,,70,90
735360,note_on,0,0,2,,,,,,,,,,,,,,,0,,,46,62
735360,note_on,0,0,1,,,,,,,,,,,,,,,0,,,65,0
735360,note_on,0,0,2,,,,,,,,,,,,,,,0,,,50,62
735360,note_on,0,0,2,,,,,,,,,,,,,,,0,,,41,0
735360,note_on,160,0,2,,,,,,,,,,,,,,,0,,,48,0
735395,control_change,35,0,2,,,,,,,,,,,,,,,0,64,0,,
735487,control_change,92,0,2,,,,,,,,,,,,,,,0,64,127,,
735520,note_on,0,0,2,,,,,,,,,,,,,,,0,,,53,56
735520,note_on,33,0,2,,,,,,,,,,,,,,,0,,,50,0
735680,note_on,160,0,2,,,,,,,,,,,,,,,0,,,53,0
735680,note_on,0,0,2,,,,,,,,,,,,,,,0,,,53,56
735840,set_tempo,520,1,0,,,,,,,,,,,,759878,,,,,,,
735840,note_on,0,0,1,,,,,,,,,,,,,,,0,,,63,73
735840,note_on,480,0,1,,,,,,,,,,,,,,,0,,,65,0
735840,note_on,0,0,1,,,,,,,,,,,,,,,0,,,67,88
735840,note_on,160,0,2,,,,,,,,,,,,,,,0,,,53,0
735840,note_on,0,0,2,,,,,,,,,,,,,,,0,,,51,60
735911,control_change,71,0,2,,,,,,,,,,,,,,,0,64,0,,
735995,control_change,84,0,2,,,,,,,,,,,,,,,0,64,127,,
736000,note_on,0,0,2,,,,,,,,,,,,,,,0,,,55,56
736000,note_on,5,0,2,,,,,,,,,,,,,,,0,,,51,0
736120,set_tempo,280,1,0,,,,,,,,,,,,767362,,,,,,,
736160,note_on,160,0,2,,,,,,,,,,,,,,,0,,,55,0
736160,note_on,0,0,2,,,,,,,,,,,,,,,0,,,55,56
736320,set_tempo,200,1,0,,,,,,,,,,,,745156,,,,,,,
736320,note_on,0,0,2,,,,,,,,,,,,,,,0,,,50,60
736320,note_on,160,0,2,,,,,,,,,,,,,,,0,,,55,0
736320,note_on,0,0,1,,,,,,,,,,,,,,,0,,,65,83
736320,note_on,0,0,1,,,,,,,,,,,,,,,0,,,62,70
736320,note_on,480,0,1,,,,,,,,,,,,,,,0,,,67,0
736320,note_on,0,0,1,,,,,,,,,,,,,,,0,,,63,0
736376,control_change,56,0,2,,,,,,,,,,,,,,,0,64,0,,
736398,control_change,22,0,2,,,,,,,,,,,,,,,0,64,127,,
736480,note_on,82,0,2,,,,,,,,,,,,,,,0,,,50,0
736480,note_on,0,0,2,,,,,,,,,,,,,,,0,,,53,56
736560,set_tempo,240,1,0,,,,,,,,,,,,767362,,,,,,,
736640,note_on,0,0,2,,,,,,,,,,,,,,,0,,,53,57
736640,note_on,160,0,2,,,,,,,,,,,,,,,0,,,53,0
736800,note_on,0,0,1,,,,,,,,,,,,,,,0,,,74,89
736800,set_tempo,240,1,0,,,,,,,,,,,,789474,,,,,,,
736800,note_on,480,0,1,,,,,,,,,,,,,,,0,,,65,0
736800,note_on,0,0,1,,,,,,,,,,,,,,,0,,,58,0
736800,note_on,0,0,2,,,,,,,,,,,,,,,0,,,50,59
736800,note_on,0,0,1,,,,,,,,,,,,,,,0,,,70,0
736800,note_on,0,0,1,,,,,,,,,,,,,,,0,,,62,0
736800,note_on,0,0,1,,,,,,,,,,,,,,,0,,,62,64
736800,note_on,0,0,1,,,,,,,,,,,,,,,0,,,65,75
736800,note_on,0,0,2,,,,,,,,,,,,,,,0,,,44,59
736800,note_on,160,0,2,,,,,,,,,,,,,,,0,,,53,0
736800,note_on,0,0,2,,,,,,,,,,,,,,,0,,,46,0
736842,control_change,42,0,2,,,,,,,,,,,,,,,0,64,0,,
736899,control_change,57,0,2,,,,,,,,,,,,,,,0,64,127,,
736960,note_on,61,0,2,,,,,,,,,,,,,,,0,,,50,0
736960,note_on,0,0,2,,,,,,,,,,,,,,,0,,,53,54
737040,set_tempo,240,1,0,,,,,,,,,,,,882353,,,,,,,
737120,note_on,0,0,2,,,,,,,,,,,,,,,0,,,53,54
737120,note_on,160,0,2,,,,,,,,,,,,,,,0,,,53,0
737280,note_on,0,0,1,,,,,,,,,,,,,,,0,,,65,0
737280,note_on,480,0,1,,,,,,,,,,,,,,,0,,,74,0
737280,note_on,0,0,1,,,,,,,,,,,,,,,0,,,62,64
737280,note_on,0,0,2,,,,,,,,,,,,,,,0,,,53,59
737280,note_on,0,0,2,,,,,,,,,,,,,,,0,,,44,0
737280,note_on,160,0,2,,,,,,,,,,,,,,,0,,,53,0
737280,note_on,0,0,1,,,,,,,,,,,,,,,0,,,67,75
737280,note_on,0,0,1,,,,,,,,,,,,,,,0,,,74,89
737280,control_change,0,0,2,,,,,,,,,,,,,,,0,64,0,,
737280,set_tempo,240,1,0,,,,,,,,,,,,729483,,,,,,,
737280,note_on,0,0,1,,,,,,,,,,,,,,,0,,,62,0
737280,note_on,0,0,2,,,,,,,,,,,,,,,0,,,43,59
737394,control_change,114,0,2,,,,,,,,,,,,,,,0,64,127,,
737440,note_on,46,0,2,,,,,,,,,,,,,,,0,,,53,0
737440,note_on,0,0,2,,,,,,,,,,,,,,,0,,,55,53
737520,set_tempo,240,1,0,,,,,,,,,,,,724288,,,,,,,
737600,note_on,0,0,2,,,,,,,,,,,,,,,0,,,55,53
737600,note_on,160,0,2,,,,,,,,,,,,,,,0,,,55,0
737760,note_on,0,0,2,,,,,,,,,,,,,,,0,,,53,56
737760,set_tempo,240,1,0,,,,,,,,,,,,714371,,,,,,,
737760,note_on,160,0,2,,,,,,,,,,,,,,,0,,,55,0
737767,control_change,7,0,2,,,,,,,,,,,,,,,0,64,0,,
737809,control_change,42,0,2,,,,,,,,,,,,,,,0,64,127,,
737920,note_on,111,0,2,,,,,,,,,,,,,,,0,,,53,0
737920,note_on,0,0,2,,,,,,,,,,,,,,,0,,,55,53
738000,set_tempo,240,1,0,,,,,,,,,,,,728332,,,,,,,
738080,note_on,160,0,2,,,,,,,,,,,,,,,0,,,55,0
738080,note_on,0,0,2,,,,,,,,,,,,,,,0,,,55,53
738240,note_on,0,0,2,,,,,,,,,,,,,,,0,,,53,57
738240,set_tempo,240,1,0,,,,,,,,,,,,713606,,,,,,,
738240,note_on,160,0,2,,,,,,,,,,,,,,,0,,,55,0
738275,control_change,35,0,2,,,,,,,,,,,,,,,0,64,0,,
738318,control_change,43,0,2,,,,,,,,,,,,,,,0,64,127,,
738400,note_on,82,0,2,,,,,,,,,,,,,,,0,,,53,0
738400,note_on,0,0,2,,,,,,,,,,,,,,,0,,,55,51
738560,note_on,160,0,2,,,,,,,,,,,,,,,0,,,55,0
738560,note_on,0,0,2,,,,,,,,,,,,,,,0,,,55,51
738720,note_on,160,0,2,,,,,,,,,,,,,,,0,,,55,0
738720,note_on,0,0,2,,,,,,,,,,,,,,,0,,,51,56
738720,note_on,0,0,2,,,,,,,,,,,,,,,0,,,43,56
738720,control_change,0,0,2,,,,,,,,,,,,,,,0,64,0,,
738720,note_on,1440,0,1,,,,,,,,,,,,,,,0,,,74,0
738720,note_on,0,0,2,,,,,,,,,,,,,,,0,,,43,0
738720,note_on,0,0,1,,,,,,,,,,,,,,,0,,,67,0
738720,note_on,0,0,1,,,,,,,,,,,,,,,0,,,62,0
738720,note_on,0,0,1,,,,,,,,,,,,,,,0,,,60,59
738720,note_on,0,0,1,,,,,,,,,,,,,,,0,,,67,71
738720,note_on,0,0,1,,,,,,,,,,,,,,,0,,,72,84
738834,control_change,114,0,2,,,,,,,,,,,,,,,0,64,127,,
738880,note_on,46,0,2,,,,,,,,,,,,,,,0,,,51,0
738880,note_on,0,0,2,,,,,,,,,,,,,,,0,,,55,51
738960,note_on,0,0,1,,,,,,,,,,,,,,,0,,,71,79
738960,note_on,0,0,1,,,,,,,,,,,,,,,0,,,67,67
738960,set_tempo,720,1,0,,,,,,,,,,,,733407,,,,,,,
738960,note_on,0,0,1,,,,,,,,,,,,,,,0,,,60,0
738960,note_on,0,0,1,,,,,,,,,,,,,,,0,,,59,56
738960,note_on,240,0,1,,,,,,,,,,,,,,,0,,,72,0
738960,note_on,0,0,1,,,,,,,,,,,,,,,0,,,67,0
739040,note_on,0,0,2,,,,,,,,,,,,,,,0,,,50,51
739040,note_on,160,0,2,,,,,,,,,,,,,,,0,,,55,0
739200,note_on,0,0,1,,,,,,,,,,,,,,,0,,,59,0
739200,note_on,240,0,1,,,,,,,,,,,,,,,0,,,71,0
739200,note_on,0,0,1,,,,,,,,,,,,,,,0,,,67,0
739200,note_on,0,0,1,,,,,,,,,,,,,,,0,,,67,79
739200,note_on,0,0,2,,,,,,,,,,,,,,,0,,,43,54
739200,note_on,0,0,2,,,,,,,,,,,,,,,0,,,48,54
739200,note_on,0,0,2,,,,,,,,,,,,,,,0,,,43,0
739200,note_on,160,0,2,,,,,,,,,,,,,,,0,,,50,0
739200,note_on,0,0,1,,,,,,,,,,,,,,,0,,,75,94
739200,note_on,0,0,1,,,,,,,,,,,,,,,0,,,63,67
739200,set_tempo,240,1,0,,,,,,,,,,,,699872,,,,,,,
739234,control_change,34,0,2,,,,,,,,,,,,,,,0,64,0,,
739327,control_change,93,0,2,,,,,,,,,,,,,,,0,64,127,,
739360,note_on,33,0,2,,,,,,,,,,,,,,,0,,,48,0
739360,note_on,0,0,2,,,,,,,,,,,,,,,0,,,55,50
739440,set_tempo,240,1,0,,,,,,,,,,,,719338,,,,,,,
739520,note_on,160,0,2,,,,,,,,,,,,,,,0,,,55,0
739520,note_on,0,0,2,,,,,,,,,,,,,,,0,,,55,50
739680,note_on,0,0,2,,,,,,,,,,,,,,,0,,,53,54
739680,set_tempo,240,1,0,,,,,,,,,,,,714371,,,,,,,
739680,note_on,0,0,2,,,,,,,,,,,,,,,0,,,43,54
739680,note_on,0,0,1,,,,,,,,,,,,,,,0,,,67,0
739680,note_on,0,0,1,,,,,,,,,,,,,,,0,,,74,91
739680,note_on,160,0,2,,,,,,,,,,,,,,,0,,,55,0
739680,note_on,0,0,1,,,,,,,,,,,,,,,0,,,67,76
739680,note_on,480,0,1,,,,,,,,,,,,,,,0,,,75,0
739680,note_on,0,0,1,,,,,,,,,,,,,,,0,,,63,0
739680,note_on,0,0,1,,,,,,,,,,,,,,,0,,,62,65
739680,note_on,0,0,2,,,,,,,,,,,,,,,0,,,43,0
739751,control_change,71,0,2,,,,,,,,,,,,,,,0,64,0,,
739789,control_change,38,0,2,,,,,,,,,,,,,,,0,64,127,,
739840,note_on,0,0,2,,,,,,,,,,,,,,,0,,,55,50
739840,note_on,51,0,2,,,,,,,,,,,,,,,0,,,53,0
739920,set_tempo,240,1,0,,,,,,,,,,,,750657,,,,,,,
739960,set_tempo,40,1,0,,,,,,,,,,,,767362,,,,,,,
740000,note_on,0,0,2,,,,,,,,,,,,,,,0,,,55,50
740000,note_on,160,0,2,,,,,,,,,,,,,,,0,,,55,0
740160,note_on,0,0,2,,,,,,,,,,,,,,,0,,,51,55
740160,note_on,0,0,1,,,,,,,,,,,,,,,0,,,60,63
740160,note_on,0,0,1,,,,,,,,,,,,,,,0,,,67,74
740160,note_on,0,0,1,,,,,,,,,,,,,,,0,,,72,88
740160,set_tempo,200,1,0,,,,,,,,,,,,729483,,,,,,,
740160,note_on,0,0,2,,,,,,,,,,,,,,,0,,,43,55
740160,note_on,0,0,1,,,,,,,,,,,,,,,0,,,62,0
740160,note_on,160,0,2,,,,,,,,,,,,,,,0,,,55,0
740160,note_on,0,0,2,,,,,,,,,,,,,,,0,,,43,0
740160,note_on,480,0,1,,,,,,,,,,,,,,,0,,,74,0
740160,note_on,0,0,1,,,,,,,,,,,,,,,0,,,67,0
740216,control_change,56,0,2,,,,,,,,,,,,,,,0,64,0,,
740257,control_change,41,0,2,,,,,,,,,,,,,,,0,64,127,,
740320,note_on,0,0,2,,,,,,,,,,,,,,,0,,,55,50
740320,note_on,63,0,2,,,,,,,,,,,,,,,0,,,51,0
740400,set_tempo,240,1,0,,,,,,,,,,,,767362,,,,,,,
740480,note_on,160,0,2,,,,,,,,,,,,,,,0,,,55,0
740480,note_on,0,0,2,,,,,,,,,,,,,,,0,,,55,50
740640,set_tempo,240,1,0,,,,,,,,,,,,779221,,,,,,,
740640,note_on,160,0,2,,,,,,,,,,,,,,,0,,,55,0
740640,note_on,0,0,1,,,,,,,,,,,,,,,0,,,67,0
740640,note_on,480,0,1,,,,,,,,,,,,,,,0,,,72,0
740640,note_on,0,0,1,,,,,,,,,,,,,,,0,,,60,0
740640,note_on,0,0,1,,,,,,,,,,,,,,,0,,,60,60
740640,note_on,0,0,1,,,,,,,,,,,,,,,0,,,69,72
740640,note_on,0,0,1,,,,,,,,,,,,,,,0,,,72,86
740640,note_on,0,0,2,,,,,,,,,,,,,,,0,,,51,57
740640,note_on,0,0,2,,,,,,,,,,,,,,,0,,,42,57
740640,note_on,0,0,2,,,,,,,,,,,,,,,0,,,43,0
740682,control_change,42,0,2,,,,,,,,,,,,,,,0,64,0,,
740739,control_change,57,0,2,,,,,,,,,,,,,,,0,64,127,,
740800,note_on,0,0,2,,,,,,,,,,,,,,,0,,,54,52
740800,note_on,61,0,2,,,,,,,,,,,,,,,0,,,51,0
740880,set_tempo,240,1,0,,,,,,,,,,,,833333,,,,,,,
740960,note_on,160,0,2,,,,,,,,,,,,,,,0,,,54,0
740960,note_on,0,0,2,,,,,,,,,,,,,,,0,,,54,52
741120,note_on,160,0,2,,,,,,,,,,,,,,,0,,,54,0
741120,note_on,0,0,2,,,,,,,,,,,,,,,0,,,42,0
741120,note_on,0,0,2,,,,,,,,,,,,,,,0,,,51,58
741120,control_change,0,0,2,,,,,,,,,,,,,,,0,64,0,,
741120,set_tempo,240,1,0,,,,,,,,,,,,729483,,,,,,,
741120,note_on,480,0,1,,,,,,,,,,,,,,,0,,,72,0
741120,note_on,0,0,1,,,,,,,,,,,,,,,0,,,69,0
741120,note_on,0,0,1,,,,,,,,,,,,,,,0,,,60,0
741120,note_on,0,0,1,,,,,,,,,,,,,,,0,,,65,76
741120,note_on,0,0,1,,,,,,,,,,,,,,,0,,,60,65
741120,note_on,0,0,1,,,,,,,,,,,,,,,0,,,69,78
741120,note_on,0,0,1,,,,,,,,,,,,,,,0,,,72,89
741120,note_on,0,0,2,,,,,,,,,,,,,,,0,,,41,58
741234,control_change,114,0,2,,,,,,,,,,,,,,,0,64,127,,
741280,note_on,46,0,2,,,,,,,,,,,,,,,0,,,51,0
741280,note_on,0,0,2,,,,,,,,,,,,,,,0,,,53,52
741360,set_tempo,240,1,0,,,,,,,,,,,,724288,,,,,,,
741440,note_on,160,0,2,,,,,,,,,,,,,,,0,,,53,0
741440,note_on,0,0,2,,,,,,,,,,,,,,,0,,,53,52
741600,note_on,0,0,2,,,,,,,,,,,,,,,0,,,51,56
741600,set_tempo,240,1,0,,,,,,,,,,,,714371,,,,,,,
741600,note_on,160,0,2,,,,,,,,,,,,,,,0,,,53,0
741642,control_change,42,0,2,,,,,,,,,,,,,,,0,64,0,,
741678,control_change,36,0,2,,,,,,,,,,,,,,,0,64,127,,
741760,note_on,82,0,2,,,,,,,,,,,,,,,0,,,51,0
741760,note_on,0,0,2,,,,,,,,,,,,,,,0,,,53,52
741920,note_on,0,0,2,,,,,,,,,,,,,,,0,,,53,53
741920,note_on,160,0,2,,,,,,,,,,,,,,,0,,,53,0
742080,note_on,0,0,2,,,,,,,,,,,,,,,0,,,51,57
742080,note_on,160,0,2,,,,,,,,,,,,,,,0,,,53,0
742101,control_change,21,0,2,,,,,,,,,,,,,,,0,64,0,,
742136,control_change,35,0,2,,,,,,,,,,,,,,,0,64,127,,
742240,note_on,0,0,2,,,,,,,,,,,,,,,0,,,53,52
742240,note_on,104,0,2,,,,,,,,,,,,,,,0,,,51,0
742400,note_on,160,0,2,,,,,,,,,,,,,,,0,,,53,0
742400,note_on,0,0,2,,,,,,,,,,,,,,,0,,,53,52
742560,note_on,0,0,1,,,,,,,,,,,,,,,0,,,69,0
742560,note_on,0,0,1,,,,,,,,,,,,,,,0,,,58,63
742560,note_on,0,0,1,,,,,,,,,,,,,,,0,,,65,74
742560,note_on,0,0,1,,,,,,,,,,,,,,,0,,,70,88
742560,note_on,1440,0,1,,,,,,,,,,,,,,,0,,,72,0
742560,note_on,0,0,1,,,,,,,,,,,,,,,0,,,60,0
742560,note_on,0,0,1,,,,,,,,,,,,,,,0,,,65,0
742560,control_change,0,0,2,,,,,,,,,,,,,,,0,64,0,,
742560,note_on,0,0,2,,,,,,,,,,,,,,,0,,,41,57
742560,note_on,0,0,2,,,,,,,,,,,,,,,0,,,50,57
742560,note_on,0,0,2,,,,,,,,,,,,,,,0,,,41,0
742560,note_on,160,0,2,,,,,,,,,,,,,,,0,,,53,0
742674,control_change,114,0,2,,,,,,,,,,,,,,,0,64,127,,
742720,note_on,46,0,2,,,,,,,,,,,,,,,0,,,50,0
742720,note_on,0,0,2,,,,,,,,,,,,,,,0,,,53,54
742800,note_on,0,0,1,,,,,,,,,,,,,,,0,,,57,57
742800,note_on,0,0,1,,,,,,,,,,,,,,,0,,,58,0
742800,note_on,0,0,1,,,,,,,,,,,,,,,0,,,65,0
742800,note_on,240,0,1,,,,,,,,,,,,,,,0,,,70,0
742800,note_on,0,0,1,,,,,,,,,,,,,,,0,,,69,80
742800,note_on,0,0,1,,,,,,,,,,,,,,,0,,,65,68
742800,set_tempo,1200,1,0,,,,,,,,,,,,740010,,,,,,,
742880,note_on,0,0,2,,,,,,,,,,,,,,,0,,,48,51
742880,note_on,160,0,2,,,,,,,,,,,,,,,0,,,53,0
743040,note_on,0,0,1,,,,,,,,,,,,,,,0,,,65,0
743040,note_on,240,0,1,,,,,,,,,,,,,,,0,,,69,0
743040,note_on,0,0,1,,,,,,,,,,,,,,,0,,,62,65
743040,set_tempo,240,1,0,,,,,,,,,,,,709471,,,,,,,
743040,note_on,0,0,1,,,,,,,,,,,,,,,0,,,65,77
743040,control_change,0,0,2,,,,,,,,,,,,,,,0,64,0,,
743040,note_on,0,0,2,,,,,,,,,,,,,,,0,,,41,58
743040,note_on,0,0,2,,,,,,,,,,,,,,,0,,,46,58
743040,note_on,0,0,2,,,,,,,,,,,,,,,0,,,41,0
743040,note_on,160,0,2,,,,,,,,,,,,,,,0,,,48,0
743040,note_on,0,0,1,,,,,,,,,,,,,,,0,,,74,92
743040,note_on,0,0,1,,,,,,,,,,,,,,,0,,,57,0
743167,control_change,127,0,2,,,,,,,,,,,,,,,0,64,127,,
743200,note_on,0,0,2,,,,,,,,,,,,,,,0,,,53,53
743200,note_on,33,0,2,,,,,,,,,,,,,,,0,,,46,0
743280,set_tempo,240,1,0,,,,,,,,,,,,740010,,,,,,,
743360,note_on,0,0,2,,,,,,,,,,,,,,,0,,,53,53
743360,note_on,160,0,2,,,,,,,,,,,,,,,0,,,53,0
743520,note_on,160,0,2,,,,,,,,,,,,,,,0,,,53,0
743520,set_tempo,240,1,0,,,,,,,,,,,,714371,,,,,,,
743520,note_on,480,0,1,,,,,,,,,,,,,,,0,,,74,0
743520,note_on,0,0,1,,,,,,,,,,,,,,,0,,,65,0
743520,note_on,0,0,1,,,,,,,,,,,,,,,0,,,62,0
743520,note_on,0,0,1,,,,,,,,,,,,,,,0,,,57,61
743520,note_on,0,0,1,,,,,,,,,,,,,,,0,,,65,73
743520,note_on,0,0,1,,,,,,,,,,,,,,,0,,,69,87
743520,note_on,0,0,2,,,,,,,,,,,,,,,0,,,48,58
743520,note_on,0,0,2,,,,,,,,,,,,,,,0,,,41,0
743520,note_on,0,0,2,,,,,,,,,,,,,,,0,,,41,58
743591,control_change,71,0,2,,,,,,,,,,,,,,,0,64,0,,
743675,control_change,84,0,2,,,,,,,,,,,,,,,0,64,127,,
743680,note_on,5,0,2,,,,,,,,,,,,,,,0,,,48,0
743680,note_on,0,0,2,,,,,,,,,,,,,,,0,,,53,52
743760,set_tempo,240,1,0,,,,,,,,,,,,750657,,,,,,,
743800,set_tempo,40,1,0,,,,,,,,,,,,767362,,,,,,,
743840,note_on,160,0,2,,,,,,,,,,,,,,,0,,,53,0
743840,note_on,0,0,2,,,,,,,,,,,,,,,0,,,53,52
744000,note_on,0,0,1,,,,,,,,,,,,,,,0,,,58,65
744000,note_on,0,0,1,,,,,,,,,,,,,,,0,,,57,0
744000,note_on,0,0,1,,,,,,,,,,,,,,,0,,,65,0
744000,note_on,480,0,1,,,,,,,,,,,,,,,0,,,69,0
744000,note_on,0,0,2,,,,,,,,,,,,,,,0,,,41,0
744000,note_on,0,0,1,,,,,,,,,,,,,,,0,,,65,77
744000,note_on,0,0,2,,,,,,,,,,,,,,,0,,,50,56
744000,note_on,0,0,2,,,,,,,,,,,,,,,0,,,41,56
744000,set_tempo,200,1,0,,,,,,,,,,,,729483,,,,,,,
744000,note_on,160,0,2,,,,,,,,,,,,,,,0,,,53,0
744000,note_on,0,0,1,,,,,,,,,,,,,,,0,,,70,92
744056,control_change,56,0,2,,,,,,,,,,,,,,,0,64,0,,
744120,control_change,64,0,2,,,,,,,,,,,,,,,0,64,127,,
744160,note_on,0,0,2,,,,,,,,,,,,,,,0,,,53,52
744160,note_on,40,0,2,,,,,,,,,,,,,,,0,,,50,0
744240,set_tempo,240,1,0,,,,,,,,,,,,767362,,,,,,,
744320,note_on,160,0,2,,,,,,,,,,,,,,,0,,,53,0
744320,note_on,0,0,2,,,,,,,,,,,,,,,0,,,53,52
744480,note_on,0,0,1,,,,,,,,,,,,,,,0,,,65,0
744480,note_on,480,0,1,,,,,,,,,,,,,,,0,,,70,0
744480,note_on,0,0,1,,,,,,,,,,,,,,,0,,,65,70
744480,note_on,0,0,1,,,,,,,,,,,,,,,0,,,60,59
744480,note_on,0,0,1,,,,,,,,,,,,,,,0,,,69,70
744480,note_on,0,0,1,,,,,,,,,,,,,,,0,,,72,82
744480,note_on,160,0,2,,,,,,,,,,,,,,,0,,,53,0
744480,note_on,0,0,2,,,,,,,,,,,,,,,0,,,41,0
744480,note_on,0,0,2,,,,,,,,,,,,,,,0,,,51,56
744480,note_on,0,0,2,,,,,,,,,,,,,,,0,,,41,56
744480,note_on,0,0,1,,,,,,,,,,,,,,,0,,,58,0
744522,control_change,42,0,2,,,,,,,,,,,,,,,0,64,0,,
744579,control_change,57,0,2,,,,,,,,,,,,,,,0,64,127,,
744640,note_on,0,0,2,,,,,,,,,,,,,,,0,,,53,52
744640,note_on,61,0,2,,,,,,,,,,,,,,,0,,,51,0
744720,set_tempo,480,1,0,,,,,,,,,,,,784621,,,,,,,
744800,note_on,160,0,2,,,,,,,,,,,,,,,0,,,53,0
744800,note_on,0,0,2,,,,,,,,,,,,,,,0,,,53,52
744960,note_on,160,0,2,,,,,,,,,,,,,,,0,,,53,0
744960,note_on,0,0,2,,,,,,,,,,,,,,,0,,,41,0
744960,note_on,0,0,2,,,,,,,,,,,,,,,0,,,41,51
744960,note_on,0,0,2,,,,,,,,,,,,,,,0,,,51,51
744960,control_change,0,0,2,,,,,,,,,,,,,,,0,64,0,,
744960,set_tempo,240,1,0,,,,,,,,,,,,767362,,,,,,,
744960,note_on,480,0,1,,,,,,,,,,,,,,,0,,,72,0
744960,note_on,0,0,1,,,,,,,,,,,,,,,0,,,65,0
744960,note_on,0,0,1,,,,,,,,,,,,,,,0,,,60,0
744960,note_on,0,0,1,,,,,,,,,,,,,,,0,,,69,0
744960,note_on,0,0,1,,,,,,,,,,,,,,,0,,,72,89
744960,note_on,0,0,1,,,,,,,,,,,,,,,0,,,65,75
744960,note_on,0,0,1,,,,,,,,,,,,,,,0,,,60,64
744960,note_on,0,0,1,,,,,,,,,,,,,,,0,,,69,75
745074,control_change,114,0,2,,,,,,,,,,,,,,,0,64,127,,
745120,note_on,46,0,2,,,,,,,,,,,,,,,0,,,53,50
745200,set_tempo,240,1,0,,,,,,,,,,,,733407,,,,,,,
745280,note_on,160,0,2,,,,,,,,,,,,,,,0,,,53,0
745280,note_on,0,0,2,,,,,,,,,,,,,,,0,,,53,50
745440,note_on,0,0,2,,,,,,,,,,,,,,,0,,,53,50
745440,note_on,160,0,2,,,,,,,,,,,,,,,0,,,53,0
745600,note_on,160,0,2,,,,,,,,,,,,,,,0,,,53,0
745600,note_on,0,0,2,,,,,,,,,,,,,,,0,,,53,50
745760,note_on,160,0,2,,,,,,,,,,,,,,,0,,,53,0
745760,note_on,0,0,2,,,,,,,,,,,,,,,0,,,53,49
745920,note_on,0,0,2,,,,,,,,,,,,,,,0,,,53,49
745920,note_on,0,0,2,,,,,,,,,,,,,,,0,,,41,0
745920,note_on,0,0,2,,,,,,,,,,,,,,,0,,,51,0
745920,note_on,160,0,2,,,,,,,,,,,,,,,0,,,53,0
746080,note_on,0,0,2,,,,,,,,,,,,,,,0,,,53,49
746080,note_on,160,0,2,,,,,,,,,,,,,,,0,,,53,0
746240,note_on,0,0,2,,,,,,,,,,,,,,,0,,,53,49
746240,note_on,160,0,2,,,,,,,,,,,,,,,0,,,53,0
746400,note_on,0,0,2,,,,,,,,,,,,,,,0,,,53,48
746400,note_on,160,0,2,,,,,,,,,,,,,,,0,,,53,0
746560,note_on,160,0,2,,,,,,,,,,,,,,,0,,,53,0
746560,note_on,0,0,2,,,,,,,,,,,,,,,0,,,53,48
746720,note_on,0,0,2,,,,,,,,,,,,,,,0,,,53,48
746720,note_on,160,0,2,,,,,,,,,,,,,,,0,,,53,0
746880,note_on,0,0,1,,,,,,,,,,,,,,,0,,,69,0
746880,set_tempo,1680,1,0,,,,,,,,,,,,782371,,,,,,,
746880,note_on,0,0,1,,,,,,,,,,,,,,,0,,,59,61
746880,note_on,1920,0,1,,,,,,,,,,,,,,,0,,,72,0
746880,note_on,0,0,1,,,,,,,,,,,,,,,0,,,68,61
746880,note_on,0,0,1,,,,,,,,,,,,,,,0,,,60,0
746880,control_change,0,0,2,,,,,,,,,,,,,,,0,64,0,,
746880,note_on,0,0,2,,,,,,,,,,,,,,,0,,,50,48
746880,note_on,0,0,2,,,,,,,,,,,,,,,0,,,41,45
746880,note_on,160,0,2,,,,,,,,,,,,,,,0,,,53,0
746880,note_on,0,0,1,,,,,,,,,,,,,,,0,,,71,73
746929,control_change,49,0,2,,,,,,,,,,,,,,,0,64,127,,
747040,note_on,111,0,2,,,,,,,,,,,,,,,0,,,53,42
747120,set_tempo,240,1,0,,,,,,,,,,,,733407,,,,,,,
747200,note_on,0,0,2,,,,,,,,,,,,,,,0,,,53,39
747200,note_on,160,0,2,,,,,,,,,,,,,,,0,,,53,0
747360,note_on,160,0,2,,,,,,,,,,,,,,,0,,,53,0
747360,note_on,0,0,2,,,,,,,,,,,,,,,0,,,53,38
747520,note_on,160,0,2,,,,,,,,,,,,,,,0,,,53,0
747520,note_on,0,0,2,,,,,,,,,,,,,,,0,,,53,38
747680,note_on,160,0,2,,,,,,,,,,,,,,,0,,,53,0
747680,note_on,0,0,2,,,,,,,,,,,,,,,0,,,53,37
747840,note_on,160,0,2,,,,,,,,,,,,,,,0,,,53,0
747840,note_on,960,0,1,,,,,,,,,,,,,,,0,,,65,0
747840,note_on,0,0,2,,,,,,,,,,,,,,,0,,,53,37
748000,note_on,0,0,2,,,,,,,,,,,,,,,0,,,53,36
748000,note_on,160,0,2,,,,,,,,,,,,,,,0,,,53,0
748160,note_on,160,0,2,,,,,,,,,,,,,,,0,,,53,0
748160,note_on,0,0,2,,,,,,,,,,,,,,,0,,,53,35
748320,note_on,0,0,1,,,,,,,,,,,,,,,0,,,71,66
748320,note_on,0,0,1,,,,,,,,,,,,,,,0,,,68,55
748320,note_on,0,0,1,,,,,,,,,,,,,,,0,,,65,55
748320,note_on,0,0,1,,,,,,,,,,,,,,,0,,,62,55
748320,note_on,0,0,1,,,,,,,,,,,,,,,0,,,71,0
748320,note_on,0,0,1,,,,,,,,,,,,,,,0,,,68,0
748320,set_tempo,1200,1,0,,,,,,,,,,,,771010,,,,,,,
748320,note_on,480,0,1,,,,,,,,,,,,,,,0,,,59,0
748320,note_on,160,0,2,,,,,,,,,,,,,,,0,,,53,0
748320,note_on,0,0,2,,,,,,,,,,,,,,,0,,,53,36
748348,control_change,28,0,2,,,,,,,,,,,,,,,0,64,0,,
748373,control_change,25,0,2,,,,,,,,,,,,,,,0,64,127,,
748480,note_on,107,0,2,,,,,,,,,,,,,,,0,,,53,0
748480,note_on,0,0,2,,,,,,,,,,,,,,,0,,,53,40
748640,note_on,160,0,2,,,,,,,,,,,,,,,0,,,53,0
748640,note_on,0,0,2,,,,,,,,,,,,,,,0,,,53,44
748800,note_on,0,0,1,,,,,,,,,,,,,,,0,,,62,55
748800,note_on,0,0,1,,,,,,,,,,,,,,,0,,,68,0
748800,note_on,0,0,1,,,,,,,,,,,,,,,0,,,65,0
748800,note_on,0,0,1,,,,,,,,,,,,,,,0,,,62,0
748800,note_on,480,0,1,,,,,,,,,,,,,,,0,,,71,0
748800,note_on,0,0,2,,,,,,,,,,,,,,,0,,,41,0
748800,note_on,0,0,2,,,,,,,,,,,,,,,0,,,53,50
748800,note_on,0,0,2,,,,,,,,,,,,,,,0,,,50,0
748800,note_on,160,0,2,,,,,,,,,,,,,,,0,,,53,0
748800,note_on,0,0,1,,,,,,,,,,,,,,,0,,,65,55
748800,control_change,0,0,2,,,,,,,,,,,,,,,0,64,0,,
748800,note_on,0,0,1,,,,,,,,,,,,,,,0,,,68,55
748800,set_tempo,480,1,0,,,,,,,,,,,,771010,,,,,,,
748800,note_on,0,0,1,,,,,,,,,,,,,,,0,,,71,66
748851,control_change,51,0,2,,,,,,,,,,,,,,,0,64,127,,
748960,note_on,109,0,2,,,,,,,,,,,,,,,0,,,53,0
748960,note_on,0,0,2,,,,,,,,,,,,,,,0,,,44,42
749040,set_tempo,240,1,0,,,,,,,,,,,,743863,,,,,,,
749120,note_on,0,0,2,,,,,,,,,,,,,,,0,,,44,42
749120,note_on,160,0,2,,,,,,,,,,,,,,,0,,,44,0
749280,note_on,160,0,2,,,,,,,,,,,,,,,0,,,44,0
749280,note_on,0,0,2,,,,,,,,,,,,,,,0,,,44,42
749440,note_on,160,0,2,,,,,,,,,,,,,,,0,,,44,0
749440,note_on,0,0,2,,,,,,,,,,,,,,,0,,,44,42
749600,note_on,160,0,2,,,,,,,,,,,,,,,0,,,44,0
749600,note_on,0,0,2,,,,,,,,,,,,,,,0,,,44,42
749760,note_on,160,0,2,,,,,,,,,,,,,,,0,,,44,0
749760,note_on,0,0,2,,,,,,,,,,,,,,,0,,,44,42
749920,note_on,160,0,2,,,,,,,,,,,,,,,0,,,44,0
749920,note_on,0,0,2,,,,,,,,,,,,,,,0,,,44,42
750080,note_on,160,0,2,,,,,,,,,,,,,,,0,,,44,0
750080,note_on,0,0,2,,,,,,,,,,,,,,,0,,,44,42
750200,set_tempo,1160,1,0,,,,,,,,,,,,733407,,,,,,,
750217,control_change,137,0,2,,,,,,,,,,,,,,,0,64,0,,
750240,note_on,23,0,2,,,,,,,,,,,,,,,0,,,44,0
750240,note_on,0,0,2,,,,,,,,,,,,,,,0,,,44,44
750240,set_tempo,40,1,0,,,,,,,,,,,,759494,,,,,,,
750240,note_on,1440,0,1,,,,,,,,,,,,,,,0,,,71,0
750240,note_on,0,0,1,,,,,,,,,,,,,,,0,,,65,66
750240,note_on,0,0,1,,,,,,,,,,,,,,,0,,,62,0
750240,note_on,0,0,1,,,,,,,,,,,,,,,0,,,65,0
750240,note_on,0,0,1,,,,,,,,,,,,,,,0,,,68,0
750240,note_on,0,0,1,,,,,,,,,,,,,,,0,,,71,66
750240,note_on,0,0,1,,,,,,,,,,,,,,,0,,,74,78
750257,control_change,17,0,2,,,,,,,,,,,,,,,0,64,127,,
750320,set_tempo,80,1,0,,,,,,,,,,,,764331,,,,,,,
750360,set_tempo,40,1,0,,,,,,,,,,,,769231,,,,,,,
750400,note_on,143,0,2,,,,,,,,,,,,,,,0,,,44,0
750400,note_on,0,0,2,,,,,,,,,,,,,,,0,,,44,44
750400,set_tempo,40,1,0,,,,,,,,,,,,774194,,,,,,,
750440,set_tempo,40,1,0,,,,,,,,,,,,779221,,,,,,,
750520,set_tempo,80,1,0,,,,,,,,,,,,784314,,,,,,,
750560,note_on,0,0,2,,,,,,,,,,,,,,,0,,,44,44
750560,note_on,160,0,2,,,,,,,,,,,,,,,0,,,44,0
750560,set_tempo,40,1,0,,,,,,,,,,,,789474,,,,,,,
750600,set_tempo,40,1,0,,,,,,,,,,,,794702,,,,,,,
750640,set_tempo,40,1,0,,,,,,,,,,,,800000,,,,,,,
750680,set_tempo,40,1,0,,,,,,,,,,,,805369,,,,,,,
750720,note_on,160,0,2,,,,,,,,,,,,,,,0,,,44,0
750720,note_on,0,0,1,,,,,,,,,,,,,,,0,,,71,0
750720,note_on,0,0,1,,,,,,,,,,,,,,,0,,,65,0
750720,note_on,0,0,1,,,,,,,,,,,,,,,0,,,66,72
750720,note_on,0,0,1,,,,,,,,,,,,,,,0,,,71,72
750720,note_on,0,0,1,,,,,,,,,,,,,,,0,,,74,86
750720,note_on,0,0,2,,,,,,,,,,,,,,,0,,,44,49
750720,note_on,480,0,1,,,,,,,,,,,,,,,0,,,74,0
750720,control_change,0,0,2,,,,,,,,,,,,,,,0,64,0,,
750783,control_change,63,0,2,,,,,,,,,,,,,,,0,64,127,,
750880,note_on,97,0,2,,,,,,,,,,,,,,,0,,,44,0
750880,note_on,0,0,2,,,,,,,,,,,,,,,0,,,42,49
750960,set_tempo,280,1,0,,,,,,,,,,,,743863,,,,,,,
751040,note_on,160,0,2,,,,,,,,,,,,,,,0,,,42,0
751040,note_on,0,0,2,,,,,,,,,,,,,,,0,,,42,49
751200,note_on,160,0,2,,,,,,,,,,,,,,,0,,,42,0
751200,note_on,0,0,2,,,,,,,,,,,,,,,0,,,42,55
751360,note_on,160,0,2,,,,,,,,,,,,,,,0,,,42,0
751360,note_on,0,0,2,,,,,,,,,,,,,,,0,,,42,55
751520,note_on,0,0,2,,,,,,,,,,,,,,,0,,,42,56
751520,note_on,160,0,2,,,,,,,,,,,,,,,0,,,42,0
751680,note_on,0,0,1,,,,,,,,,,,,,,,0,,,66,73
751680,note_on,0,0,1,,,,,,,,,,,,,,,0,,,70,73
751680,note_on,0,0,1,,,,,,,,,,,,,,,0,,,73,86
751680,note_on,960,0,1,,,,,,,,,,,,,,,0,,,74,0
751680,note_on,0,0,2,,,,,,,,,,,,,,,0,,,42,63
751680,note_on,160,0,2,,,,,,,,,,,,,,,0,,,42,0
751920,note_on,0,0,1,,,,,,,,,,,,,,,0,,,70,0
751920,note_on,0,0,1,,,,,,,,,,,,,,,0,,,71,0
751920,note_on,0,0,1,,,,,,,,,,,,,,,0,,,66,0
751920,note_on,240,0,1,,,,,,,,,,,,,,,0,,,73,0
751920,note_on,0,0,1,,,,,,,,,,,,,,,0,,,66,0
751920,note_on,240,0,2,,,,,,,,,,,,,,,0,,,42,0
752160,note_on,0,0,1,,,,,,,,,,,,,,,0,,,82,96
752160,note_on,240,0,2,,,,,,,,,,,,,,,0,,,42,65
752160,note_on,240,0,1,,,,,,,,,,,,,,,0,,,73,80
752160,note_on,0,0,1,,,,,,,,,,,,,,,0,,,76,80
752160,set_tempo,1200,1,0,,,,,,,,,,,,779221,,,,,,,
752160,note_on,0,0,1,,,,,,,,,,,,,,,0,,,78,80
752166,control_change,6,0,2,,,,,,,,,,,,,,,0,64,0,,
752184,set_tempo,24,1,0,,,,,,,,,,,,784314,,,,,,,
752211,control_change,45,0,2,,,,,,,,,,,,,,,0,64,127,,
752212,set_tempo,28,1,0,,,,,,,,,,,,789474,,,,,,,
752240,set_tempo,28,1,0,,,,,,,,,,,,794702,,,,,,,
752264,set_tempo,24,1,0,,,,,,,,,,,,800000,,,,,,,
752292,set_tempo,28,1,0,,,,,,,,,,,,805369,,,,,,,
752304,set_tempo,12,1,0,,,,,,,,,,,,810811,,,,,,,
752332,set_tempo,28,1,0,,,,,,,,,,,,816327,,,,,,,
752360,set_tempo,28,1,0,,,,,,,,,,,,821918,,,,,,,
752384,set_tempo,24,1,0,,,,,,,,,,,,827586,,,,,,,
752400,note_on,0,0,1,,,,,,,,,,,,,,,0,,,78,0
752400,note_on,0,0,1,,,,,,,,,,,,,,,0,,,76,0
752400,note_on,0,0,1,,,,,,,,,,,,,,,0,,,73,0
752400,note_on,240,0,1,,,,,,,,,,,,,,,0,,,82,0
752412,set_tempo,28,1,0,,,,,,,,,,,,833333,,,,,,,
752424,set_tempo,12,1,0,,,,,,,,,,,,839161,,,,,,,
752452,set_tempo,28,1,0,,,,,,,,,,,,845070,,,,,,,
752480,set_tempo,28,1,0,,,,,,,,,,,,851064,,,,,,,
752504,set_tempo,24,1,0,,,,,,,,,,,,857143,,,,,,,
752520,note_on,309,0,2,,,,,,,,,,,,,,,0,,,42,0
752520,note_on,0,0,2,,,,,,,,,,,,,,,0,,,39,59
752532,set_tempo,28,1,0,,,,,,,,,,,,863309,,,,,,,
752544,set_tempo,12,1,0,,,,,,,,,,,,869565,,,,,,,
752560,set_tempo,16,1,0,,,,,,,,,,,,1046938,,,,,,,
752560,note_on,0,0,2,,,,,,,,,,,,,,,0,,,38,61
752560,note_on,40,0,2,,,,,,,,,,,,,,,0,,,39,0
752600,note_on,40,0,2,,,,,,,,,,,,,,,0,,,38,0
752600,note_on,0,0,2,,,,,,,,,,,,,,,0,,,37,59
752640,note_on,40,0,2,,,,,,,,,,,,,,,0,,,37,0
752640,note_on,240,0,1,,,,,,,,,,,,,,,0,,,74,77
752640,note_on,0,0,1,,,,,,,,,,,,,,,0,,,78,77
752640,note_on,0,0,1,,,,,,,,,,,,,,,0,,,83,92
752640,control_change,0,0,2,,,,,,,,,,,,,,,0,64,0,,
752640,note_on,0,0,2,,,,,,,,,,,,,,,0,,,35,65
752640,set_tempo,0,1,0,,,,,,,,,,,,869565,,,,,,,
752640,key_signature,80,1,0,,,,,,,,,,,D,,,,,,,,
752760,set_tempo,120,1,0,,,,,,,,,,,,736196,,,,,,,
752760,note_on,120,0,2,,,,,,,,,,,,,,,0,,,35,0
752800,note_on,160,0,1,,,,,,,,,,,,,,,0,,,83,0
752800,note_on,0,0,1,,,,,,,,,,,,,,,0,,,74,0
752800,note_on,0,0,1,,,,,,,,,,,,,,,0,,,74,28
752800,note_on,0,0,1,,,,,,,,,,,,,,,0,,,78,34
752800,note_on,0,0,1,,,,,,,,,,,,,,,0,,,78,0
752960,note_on,0,0,1,,,,,,,,,,,,,,,0,,,74,0
752960,note_on,160,0,1,,,,,,,,,,,,,,,0,,,78,0
752960,note_on,0,0,1,,,,,,,,,,,,,,,0,,,74,30
752960,note_on,0,0,1,,,,,,,,,,,,,,,0,,,78,36
753120,note_on,160,0,1,,,,,,,,,,,,,,,0,,,78,0
753120,note_on,0,0,1,,,,,,,,,,,,,,,0,,,74,0
753120,note_on,0,0,1,,,,,,,,,,,,,,,0,,,74,32
753120,note_on,0,0,1,,,,,,,,,,,,,,,0,,,78,38
753280,note_on,0,0,1,,,,,,,,,,,,,,,0,,,78,35
753280,note_on,0,0,1,,,,,,,,,,,,,,,0,,,74,0
753280,note_on,0,0,1,,,,,,,,,,,,,,,0,,,74,29
753280,note_on,160,0,1,,,,,,,,,,,,,,,0,,,78,0
753440,note_on,160,0,1,,,,,,,,,,,,,,,0,,,78,0
753440,note_on,0,0,1,,,,,,,,,,,,,,,0,,,74,0
753440,note_on,0,0,1,,,,,,,,,,,,,,,0,,,74,29
753440,note_on,0,0,1,,,,,,,,,,,,,,,0,,,78,35
753600,note_on,0,0,1,,,,,,,,,,,,,,,0,,,74,0
753600,note_on,0,0,1,,,,,,,,,,,,,,,0,,,78,38
753600,note_on,160,0,1,,,,,,,,,,,,,,,0,,,78,0
753600,note_on,0,0,1,,,,,,,,,,,,,,,0,,,74,32
753760,note_on,0,0,1,,,,,,,,,,,,,,,0,,,74,0
753760,note_on,160,0,1,,,,,,,,,,,,,,,0,,,78,0
753760,note_on,0,0,1,,,,,,,,,,,,,,,0,,,74,29
753760,note_on,0,0,1,,,,,,,,,,,,,,,0,,,78,35
753920,note_on,160,0,1,,,,,,,,,,,,,,,0,,,78,0
753920,note_on,0,0,1,,,,,,,,,,,,,,,0,,,74,29
753920,note_on,0,0,1,,,,,,,,,,,,,,,0,,,74,0
753920,note_on,0,0,1,,,,,,,,,,,,,,,0,,,78,35
754080,note_on,0,0,1,,,,,,,,,,,,,,,0,,,83,54
754080,note_on,160,0,1,,,,,,,,,,,,,,,0,,,78,0
754080,note_on,0,0,2,,,,,,,,,,,,,,,0,,,66,42
754080,note_on,0,0,1,,,,,,,,,,,,,,,0,,,74,0
754080,note_on,1320,0,2,,,,,,,,,,,,,,,0,,,59,42
754115,control_change,35,0,2,,,,,,,,,,,,,,,0,64,127,,
754240,note_on,0,0,1,,,,,,,,,,,,,,,0,,,78,32
754240,note_on,160,0,1,,,,,,,,,,,,,,,0,,,74,27
754400,note_on,0,0,1,,,,,,,,,,,,,,,0,,,78,32
754400,note_on,0,0,1,,,,,,,,,,,,,,,0,,,74,27
754400,note_on,160,0,1,,,,,,,,,,,,,,,0,,,78,0
754400,note_on,0,0,1,,,,,,,,,,,,,,,0,,,74,0
754560,note_on,0,0,1,,,,,,,,,,,,,,,0,,,83,0
754560,note_on,0,0,1,,,,,,,,,,,,,,,0,,,74,0
754560,note_on,160,0,1,,,,,,,,,,,,,,,0,,,78,0
754560,set_tempo,1800,1,0,,,,,,,,,,,,723327,,,,,,,
754560,note_on,0,0,2,,,,,,,,,,,,,,,0,,,66,42
754560,note_on,0,0,1,,,,,,,,,,,,,,,0,,,83,53
754560,note_on,445,0,2,,,,,,,,,,,,,,,0,,,66,0
754560,note_on,0,0,2,,,,,,,,,,,,,,,0,,,59,0
754560,note_on,0,0,2,,,,,,,,,,,,,,,0,,,59,42
754574,control_change,14,0,2,,,,,,,,,,,,,,,0,64,0,,
754609,control_change,35,0,2,,,,,,,,,,,,,,,0,64,127,,
754720,note_on,0,0,1,,,,,,,,,,,,,,,0,,,78,32
754720,note_on,160,0,1,,,,,,,,,,,,,,,0,,,74,27
754880,note_on,0,0,1,,,,,,,,,,,,,,,0,,,78,32
754880,note_on,0,0,1,,,,,,,,,,,,,,,0,,,74,27
754880,note_on,0,0,1,,,,,,,,,,,,,,,0,,,74,0
754880,note_on,160,0,1,,,,,,,,,,,,,,,0,,,78,0
755040,note_on,0,0,1,,,,,,,,,,,,,,,0,,,74,0
755040,note_on,160,0,1,,,,,,,,,,,,,,,0,,,78,0
755040,note_on,0,0,1,,,,,,,,,,,,,,,0,,,83,0
755040,note_on,0,0,1,,,,,,,,,,,,,,,0,,,86,53
755200,note_on,0,0,1,,,,,,,,,,,,,,,0,,,78,31
755200,note_on,160,0,1,,,,,,,,,,,,,,,0,,,74,26
755280,note_on,0,0,2,,,,,,,,,,,,,,,0,,,64,38
755280,note_on,671,0,2,,,,,,,,,,,,,,,0,,,66,0
755320,set_tempo,760,1,0,,,,,,,,,,,,738643,,,,,,,
755360,note_on,160,0,1,,,,,,,,,,,,,,,0,,,78,0
755360,note_on,0,0,1,,,,,,,,,,,,,,,0,,,74,0
755360,note_on,0,0,1,,,,,,,,,,,,,,,0,,,74,26
755360,note_on,0,0,1,,,,,,,,,,,,,,,0,,,78,31
755520,note_on,0,0,2,,,,,,,,,,,,,,,0,,,62,41
755520,control_change,0,0,2,,,,,,,,,,,,,,,0,64,0,,
755520,note_on,240,0,2,,,,,,,,,,,,,,,0,,,64,0
755520,note_on,0,0,1,,,,,,,,,,,,,,,0,,,83,53
755520,note_on,0,0,1,,,,,,,,,,,,,,,0,,,86,0
755520,note_on,0,0,1,,,,,,,,,,,,,,,0,,,74,0
755520,note_on,160,0,1,,,,,,,,,,,,,,,0,,,78,0
755569,control_change,49,0,2,,,,,,,,,,,,,,,0,64,127,,
755680,note_on,160,0,1,,,,,,,,,,,,,,,0,,,74,27
755680,note_on,0,0,1,,,,,,,,,,,,,,,0,,,78,32
755760,note_on,191,0,2,,,,,,,,,,,,,,,0,,,62,0
755760,note_on,0,0,2,,,,,,,,,,,,,,,0,,,59,0
755840,note_on,160,0,1,,,,,,,,,,,,,,,0,,,78,0
755840,note_on,0,0,1,,,,,,,,,,,,,,,0,,,74,0
755840,note_on,0,0,1,,,,,,,,,,,,,,,0,,,74,27
755840,note_on,0,0,1,,,,,,,,,,,,,,,0,,,78,32
755993,control_change,233,0,2,,,,,,,,,,,,,,,0,64,0,,
756000,note_on,160,0,1,,,,,,,,,,,,,,,0,,,78,0
756000,note_on,0,0,1,,,,,,,,,,,,,,,0,,,74,0
756000,note_on,0,0,1,,,,,,,,,,,,,,,0,,,83,0
756000,note_on,0,0,1,,,,,,,,,,,,,,,0,,,86,53
756000,note_on,0,0,2,,,,,,,,,,,,,,,0,,,62,38
756000,note_on,7,0,2,,,,,,,,,,,,,,,0,,,59,38
756000,set_tempo,680,1,0,,,,,,,,,,,,728332,,,,,,,
756042,control_change,42,0,2,,,,,,,,,,,,,,,0,64,127,,
756160,note_on,0,0,1,,,,,,,,,,,,,,,0,,,78,31
756160,note_on,160,0,1,,,,,,,,,,,,,,,0,,,74,26
756320,note_on,160,0,1,,,,,,,,,,,,,,,0,,,78,0
756320,note_on,0,0,1,,,,,,,,,,,,,,,0,,,74,0
756320,note_on,0,0,1,,,,,,,,,,,,,,,0,,,74,26
756320,note_on,0,0,1,,,,,,,,,,,,,,,0,,,78,31
756480,control_change,0,0,2,,,,,,,,,,,,,,,0,64,0,,
756480,note_on,0,0,2,,,,,,,,,,,,,,,0,,,62,41
756480,note_on,0,0,2,,,,,,,,,,,,,,,0,,,59,0
756480,note_on,0,0,1,,,,,,,,,,,,,,,0,,,86,56
756480,note_on,438,0,2,,,,,,,,,,,,,,,0,,,62,0
756480,note_on,0,0,1,,,,,,,,,,,,,,,0,,,86,0
756480,note_on,0,0,2,,,,,,,,,,,,,,,0,,,59,41
756480,note_on,160,0,1,,,,,,,,,,,,,,,0,,,78,0
756480,note_on,0,0,1,,,,,,,,,,,,,,,0,,,74,0
756536,control_change,56,0,2,,,,,,,,,,,,,,,0,64,127,,
756640,note_on,160,0,1,,,,,,,,,,,,,,,0,,,78,27
756640,note_on,0,0,1,,,,,,,,,,,,,,,0,,,83,32
756800,note_on,0,0,1,,,,,,,,,,,,,,,0,,,83,32
756800,note_on,0,0,1,,,,,,,,,,,,,,,0,,,78,0
756800,note_on,0,0,1,,,,,,,,,,,,,,,0,,,78,27
756800,note_on,160,0,1,,,,,,,,,,,,,,,0,,,83,0
756960,note_on,160,0,1,,,,,,,,,,,,,,,0,,,83,0
756960,note_on,0,0,1,,,,,,,,,,,,,,,0,,,78,0
756960,note_on,0,0,1,,,,,,,,,,,,,,,0,,,86,0
756960,note_on,0,0,1,,,,,,,,,,,,,,,0,,,90,55
757120,note_on,160,0,1,,,,,,,,,,,,,,,0,,,78,27
757120,note_on,0,0,1,,,,,,,,,,,,,,,0,,,83,32
757200,set_tempo,1200,1,0,,,,,,,,,,,,738643,,,,,,,
757200,note_on,664,0,2,,,,,,,,,,,,,,,0,,,62,0
757200,note_on,0,0,2,,,,,,,,,,,,,,,0,,,61,41
757280,note_on,0,0,1,,,,,,,,,,,,,,,0,,,78,0
757280,note_on,0,0,1,,,,,,,,,,,,,,,0,,,78,27
757280,note_on,0,0,1,,,,,,,,,,,,,,,0,,,83,32
757280,note_on,160,0,1,,,,,,,,,,,,,,,0,,,83,0
757426,control_change,226,0,2,,,,,,,,,,,,,,,0,64,0,,
757440,note_on,14,0,2,,,,,,,,,,,,,,,0,,,61,0
757440,note_on,0,0,2,,,,,,,,,,,,,,,0,,,59,0
757440,note_on,0,0,2,,,,,,,,,,,,,,,0,,,59,44
757440,note_on,160,0,1,,,,,,,,,,,,,,,0,,,83,0
757440,note_on,0,0,1,,,,,,,,,,,,,,,0,,,86,55
757440,note_on,0,0,1,,,,,,,,,,,,,,,0,,,90,0
757440,note_on,0,0,1,,,,,,,,,,,,,,,0,,,78,0
757489,control_change,49,0,2,,,,,,,,,,,,,,,0,64,127,,
757600,note_on,0,0,1,,,,,,,,,,,,,,,0,,,83,32
757600,note_on,160,0,1,,,,,,,,,,,,,,,0,,,78,27
757680,note_on,191,0,2,,,,,,,,,,,,,,,0,,,59,0
757760,note_on,0,0,1,,,,,,,,,,,,,,,0,,,78,0
757760,note_on,0,0,1,,,,,,,,,,,,,,,0,,,83,32
757760,note_on,160,0,1,,,,,,,,,,,,,,,0,,,83,0
757760,note_on,0,0,1,,,,,,,,,,,,,,,0,,,78,27
757920,note_on,160,0,1,,,,,,,,,,,,,,,0,,,83,0
757920,note_on,240,0,2,,,,,,,,,,,,,,,0,,,59,34
757920,note_on,0,0,1,,,,,,,,,,,,,,,0,,,78,0
757920,note_on,0,0,1,,,,,,,,,,,,,,,0,,,90,56
757920,note_on,0,0,1,,,,,,,,,,,,,,,0,,,86,0
757948,control_change,28,0,2,,,,,,,,,,,,,,,0,64,0,,
758012,control_change,64,0,2,,,,,,,,,,,,,,,0,64,127,,
758080,note_on,160,0,1,,,,,,,,,,,,,,,0,,,78,27
758080,note_on,0,0,1,,,,,,,,,,,,,,,0,,,83,32
758240,note_on,0,0,1,,,,,,,,,,,,,,,0,,,83,32
758240,note_on,0,0,1,,,,,,,,,,,,,,,0,,,78,27
758240,note_on,0,0,1,,,,,,,,,,,,,,,0,,,78,0
758240,note_on,160,0,1,,,,,,,,,,,,,,,0,,,83,0
758400,set_tempo,1200,1,0,,,,,,,,,,,,705882,,,,,,,
758400,note_on,0,0,1,,,,,,,,,,,,,,,0,,,78,56
758400,note_on,0,0,1,,,,,,,,,,,,,,,0,,,90,0
758400,note_on,388,0,2,,,,,,,,,,,,,,,0,,,59,0
758400,note_on,160,0,1,,,,,,,,,,,,,,,0,,,83,0
758400,note_on,0,0,2,,,,,,,,,,,,,,,0,,,59,41
758400,control_change,0,0,2,,,,,,,,,,,,,,,0,64,0,,
758400,control_change,0,0,2,,,,,,,,,,,,,,,0,64,0,,
758400,note_on,0,0,1,,,,,,,,,,,,,,,0,,,78,0
758456,control_change,56,0,2,,,,,,,,,,,,,,,0,64,127,,
758520,set_tempo,120,1,0,,,,,,,,,,,,701754,,,,,,,
758560,note_on,0,0,1,,,,,,,,,,,,,,,0,,,74,32
758560,note_on,160,0,1,,,,,,,,,,,,,,,0,,,71,27
758600,set_tempo,80,1,0,,,,,,,,,,,,697674,,,,,,,
758720,note_on,160,0,1,,,,,,,,,,,,,,,0,,,74,0
758720,note_on,0,0,1,,,,,,,,,,,,,,,0,,,71,0
758720,set_tempo,120,1,0,,,,,,,,,,,,693642,,,,,,,
758720,note_on,0,0,1,,,,,,,,,,,,,,,0,,,71,27
758720,note_on,0,0,1,,,,,,,,,,,,,,,0,,,74,32
758800,set_tempo,80,1,0,,,,,,,,,,,,689655,,,,,,,
758880,note_on,160,0,1,,,,,,,,,,,,,,,0,,,74,0
758880,note_on,0,0,1,,,,,,,,,,,,,,,0,,,71,0
758880,note_on,0,0,1,,,,,,,,,,,,,,,0,,,78,0
758880,note_on,0,0,1,,,,,,,,,,,,,,,0,,,82,56
758880,note_on,424,0,2,,,,,,,,,,,,,,,0,,,59,0
758880,set_tempo,80,1,0,,,,,,,,,,,,685714,,,,,,,
758880,note_on,0,0,2,,,,,,,,,,,,,,,0,,,61,42
758909,control_change,29,0,2,,,,,,,,,,,,,,,0,64,0,,
758921,control_change,12,0,2,,,,,,,,,,,,,,,0,64,127,,
759040,note_on,160,0,1,,,,,,,,,,,,,,,0,,,78,33
759040,note_on,0,0,1,,,,,,,,,,,,,,,0,,,70,27
759040,note_on,0,0,1,,,,,,,,,,,,,,,0,,,76,33
759120,set_tempo,240,1,0,,,,,,,,,,,,714286,,,,,,,
759200,note_on,160,0,1,,,,,,,,,,,,,,,0,,,76,0
759200,note_on,0,0,1,,,,,,,,,,,,,,,0,,,76,34
759200,note_on,0,0,1,,,,,,,,,,,,,,,0,,,78,0
759200,note_on,0,0,1,,,,,,,,,,,,,,,0,,,78,34
759200,note_on,0,0,1,,,,,,,,,,,,,,,0,,,70,27
759200,note_on,0,0,1,,,,,,,,,,,,,,,0,,,70,0
759346,control_change,425,0,2,,,,,,,,,,,,,,,0,64,0,,
759360,note_on,14,0,2,,,,,,,,,,,,,,,0,,,61,0
759360,note_on,0,0,2,,,,,,,,,,,,,,,0,,,62,47
759360,note_on,0,0,1,,,,,,,,,,,,,,,0,,,82,0
759360,note_on,0,0,1,,,,,,,,,,,,,,,0,,,78,0
759360,note_on,0,0,1,,,,,,,,,,,,,,,0,,,70,0
759360,note_on,0,0,1,,,,,,,,,,,,,,,0,,,83,58
759360,set_tempo,240,1,0,,,,,,,,,,,,685714,,,,,,,
759360,note_on,160,0,1,,,,,,,,,,,,,,,0,,,76,0
759409,control_change,49,0,2,,,,,,,,,,,,,,,0,64,127,,
759520,note_on,160,0,1,,,,,,,,,,,,,,,0,,,78,34
759520,note_on,0,0,1,,,,,,,,,,,,,,,0,,,71,28
759520,note_on,0,0,1,,,,,,,,,,,,,,,0,,,74,34
759680,note_on,0,0,1,,,,,,,,,,,,,,,0,,,71,0
759680,note_on,0,0,1,,,,,,,,,,,,,,,0,,,78,0
759680,note_on,0,0,1,,,,,,,,,,,,,,,0,,,78,35
759680,note_on,0,0,1,,,,,,,,,,,,,,,0,,,71,29
759680,note_on,0,0,1,,,,,,,,,,,,,,,0,,,74,35
759680,note_on,160,0,1,,,,,,,,,,,,,,,0,,,74,0
759840,note_on,0,0,2,,,,,,,,,,,,,,,0,,,57,31
759840,note_on,431,0,2,,,,,,,,,,,,,,,0,,,62,0
759840,note_on,0,0,1,,,,,,,,,,,,,,,0,,,85,62
759840,note_on,0,0,1,,,,,,,,,,,,,,,0,,,71,0
759840,note_on,0,0,1,,,,,,,,,,,,,,,0,,,78,0
759840,note_on,0,0,1,,,,,,,,,,,,,,,0,,,83,0
759840,note_on,160,0,1,,,,,,,,,,,,,,,0,,,74,0
759840,set_tempo,480,1,0,,,,,,,,,,,,710059,,,,,,,
759840,note_on,0,0,2,,,,,,,,,,,,,,,0,,,64,37
759881,control_change,41,0,2,,,,,,,,,,,,,,,0,64,0,,
759932,control_change,51,0,2,,,,,,,,,,,,,,,0,64,127,,
760000,note_on,0,0,1,,,,,,,,,,,,,,,0,,,79,36
760000,note_on,0,0,1,,,,,,,,,,,,,,,0,,,73,29
760000,note_on,160,0,1,,,,,,,,,,,,,,,0,,,81,36
760160,note_on,0,0,1,,,,,,,,,,,,,,,0,,,73,0
760160,note_on,160,0,1,,,,,,,,,,,,,,,0,,,79,0
760160,note_on,0,0,1,,,,,,,,,,,,,,,0,,,81,0
760160,note_on,0,0,1,,,,,,,,,,,,,,,0,,,79,36
760160,note_on,0,0,1,,,,,,,,,,,,,,,0,,,81,36
760160,note_on,0,0,1,,,,,,,,,,,,,,,0,,,73,29
760320,note_on,0,0,2,,,,,,,,,,,,,,,0,,,62,39
760320,note_on,0,0,1,,,,,,,,,,,,,,,0,,,85,0
760320,note_on,0,0,1,,,,,,,,,,,,,,,0,,,81,0
760320,note_on,0,0,1,,,,,,,,,,,,,,,0,,,73,0
760320,note_on,0,0,1,,,,,,,,,,,,,,,0,,,86,61
760320,note_on,0,0,2,,,,,,,,,,,,,,,0,,,66,47
760320,note_on,0,0,2,,,,,,,,,,,,,,,0,,,57,0
760320,note_on,388,0,2,,,,,,,,,,,,,,,0,,,64,0
760320,control_change,0,0,2,,,,,,,,,,,,,,,0,64,0,,
760320,note_on,160,0,1,,,,,,,,,,,,,,,0,,,79,0
760320,set_tempo,480,1,0,,,,,,,,,,,,705882,,,,,,,
760320,control_change,0,0,2,,,,,,,,,,,,,,,0,64,0,,
760376,control_change,56,0,2,,,,,,,,,,,,,,,0,64,127,,
760480,note_on,160,0,1,,,,,,,,,,,,,,,0,,,74,30
760480,note_on,0,0,1,,,,,,,,,,,,,,,0,,,78,30
760480,note_on,0,0,1,,,,,,,,,,,,,,,0,,,81,36
760640,note_on,160,0,1,,,,,,,,,,,,,,,0,,,81,0
760640,note_on,0,0,1,,,,,,,,,,,,,,,0,,,74,0
760640,note_on,0,0,1,,,,,,,,,,,,,,,0,,,74,29
760640,note_on,0,0,1,,,,,,,,,,,,,,,0,,,78,29
760640,note_on,0,0,1,,,,,,,,,,,,,,,0,,,81,36
760640,note_on,0,0,1,,,,,,,,,,,,,,,0,,,78,0
760800,note_on,160,0,1,,,,,,,,,,,,,,,0,,,81,0
760800,note_on,0,0,1,,,,,,,,,,,,,,,0,,,86,0
760800,note_on,0,0,1,,,,,,,,,,,,,,,0,,,88,60
760800,note_on,0,0,1,,,,,,,,,,,,,,,0,,,78,0
760800,note_on,0,0,1,,,,,,,,,,,,,,,0,,,74,0
760800,note_on,424,0,2,,,,,,,,,,,,,,,0,,,66,0
760800,note_on,0,0,2,,,,,,,,,,,,,,,0,,,62,0
760800,note_on,0,0,2,,,,,,,,,,,,,,,0,,,61,38
760800,note_on,0,0,2,,,,,,,,,,,,,,,0,,,66,45
760829,control_change,29,0,2,,,,,,,,,,,,,,,0,64,0,,
760841,control_change,12,0,2,,,,,,,,,,,,,,,0,64,127,,
760960,note_on,0,0,1,,,,,,,,,,,,,,,0,,,78,35
760960,note_on,0,0,1,,,,,,,,,,,,,,,0,,,76,28
760960,note_on,160,0,1,,,,,,,,,,,,,,,0,,,82,35
761040,set_tempo,720,1,0,,,,,,,,,,,,738643,,,,,,,
761120,note_on,160,0,1,,,,,,,,,,,,,,,0,,,78,0
761120,note_on,0,0,1,,,,,,,,,,,,,,,0,,,76,0
761120,note_on,0,0,1,,,,,,,,,,,,,,,0,,,82,0
761120,note_on,0,0,1,,,,,,,,,,,,,,,0,,,82,34
761120,note_on,0,0,1,,,,,,,,,,,,,,,0,,,76,28
761120,note_on,0,0,1,,,,,,,,,,,,,,,0,,,78,34
761266,control_change,425,0,2,,,,,,,,,,,,,,,0,64,0,,
761280,note_on,160,0,1,,,,,,,,,,,,,,,0,,,78,0
761280,note_on,0,0,1,,,,,,,,,,,,,,,0,,,82,0
761280,note_on,0,0,1,,,,,,,,,,,,,,,0,,,76,0
761280,note_on,0,0,2,,,,,,,,,,,,,,,0,,,66,46
761280,note_on,0,0,2,,,,,,,,,,,,,,,0,,,59,38
761280,note_on,0,0,2,,,,,,,,,,,,,,,0,,,61,0
761280,note_on,14,0,2,,,,,,,,,,,,,,,0,,,66,0
761280,note_on,0,0,1,,,,,,,,,,,,,,,0,,,88,0
761280,note_on,0,0,1,,,,,,,,,,,,,,,0,,,86,57
761329,control_change,49,0,2,,,,,,,,,,,,,,,0,64,127,,
761440,note_on,160,0,1,,,,,,,,,,,,,,,0,,,74,27
761440,note_on,0,0,1,,,,,,,,,,,,,,,0,,,83,33
761440,note_on,0,0,1,,,,,,,,,,,,,,,0,,,78,33
761600,note_on,0,0,1,,,,,,,,,,,,,,,0,,,78,32
761600,note_on,0,0,1,,,,,,,,,,,,,,,0,,,83,32
761600,note_on,0,0,1,,,,,,,,,,,,,,,0,,,74,27
761600,note_on,0,0,1,,,,,,,,,,,,,,,0,,,74,0
761600,note_on,0,0,1,,,,,,,,,,,,,,,0,,,83,0
761600,note_on,160,0,1,,,,,,,,,,,,,,,0,,,78,0
761760,note_on,0,0,2,,,,,,,,,,,,,,,0,,,59,0
761760,note_on,0,0,1,,,,,,,,,,,,,,,0,,,83,0
761760,note_on,0,0,1,,,,,,,,,,,,,,,0,,,74,0
761760,note_on,0,0,1,,,,,,,,,,,,,,,0,,,86,0
761760,note_on,431,0,2,,,,,,,,,,,,,,,0,,,66,0
761760,note_on,160,0,1,,,,,,,,,,,,,,,0,,,78,0
761760,note_on,0,0,1,,,,,,,,,,,,,,,0,,,85,56
761760,note_on,0,0,2,,,,,,,,,,,,,,,0,,,67,39
761760,note_on,0,0,2,,,,,,,,,,,,,,,0,,,57,33
761801,control_change,41,0,2,,,,,,,,,,,,,,,0,64,0,,
761852,control_change,51,0,2,,,,,,,,,,,,,,,0,64,127,,
761920,note_on,160,0,1,,,,,,,,,,,,,,,0,,,81,32
761920,note_on,0,0,1,,,,,,,,,,,,,,,0,,,73,27
761920,note_on,0,0,1,,,,,,,,,,,,,,,0,,,76,32
762080,note_on,0,0,1,,,,,,,,,,,,,,,0,,,76,32
762080,note_on,0,0,1,,,,,,,,,,,,,,,0,,,73,27
762080,note_on,0,0,1,,,,,,,,,,,,,,,0,,,81,32
762080,note_on,0,0,1,,,,,,,,,,,,,,,0,,,81,0
762080,note_on,160,0,1,,,,,,,,,,,,,,,0,,,76,0
762080,note_on,0,0,1,,,,,,,,,,,,,,,0,,,73,0
762240,note_on,0,0,2,,,,,,,,,,,,,,,0,,,67,39
762240,control_change,0,0,2,,,,,,,,,,,,,,,0,64,0,,
762240,note_on,388,0,2,,,,,,,,,,,,,,,0,,,67,0
762240,note_on,0,0,2,,,,,,,,,,,,,,,0,,,57,0
762240,note_on,160,0,1,,,,,,,,,,,,,,,0,,,76,0
762240,note_on,0,0,1,,,,,,,,,,,,,,,0,,,85,0
762240,note_on,0,0,1,,,,,,,,,,,,,,,0,,,81,0
762240,note_on,0,0,1,,,,,,,,,,,,,,,0,,,73,0
762240,note_on,0,0,1,,,,,,,,,,,,,,,0,,,85,54
762240,note_on,0,0,2,,,,,,,,,,,,,,,0,,,57,33
762293,control_change,53,0,2,,,,,,,,,,,,,,,0,64,127,,
762400,note_on,160,0,1,,,,,,,,,,,,,,,0,,,73,26
762400,note_on,0,0,1,,,,,,,,,,,,,,,0,,,76,26
762400,note_on,0,0,1,,,,,,,,,,,,,,,0,,,81,31
762560,note_on,0,0,1,,,,,,,,,,,,,,,0,,,81,31
762560,note_on,160,0,1,,,,,,,,,,,,,,,0,,,81,0
762560,note_on,0,0,1,,,,,,,,,,,,,,,0,,,76,0
762560,note_on,0,0,1,,,,,,,,,,,,,,,0,,,73,0
762560,note_on,0,0,1,,,,,,,,,,,,,,,0,,,73,26
762560,note_on,0,0,1,,,,,,,,,,,,,,,0,,,76,26
762720,note_on,0,0,1,,,,,,,,,,,,,,,0,,,81,31
762720,note_on,0,0,1,,,,,,,,,,,,,,,0,,,76,26
762720,note_on,0,0,1,,,,,,,,,,,,,,,0,,,73,26
762720,note_on,160,0,1,,,,,,,,,,,,,,,0,,,81,0
762720,note_on,0,0,1,,,,,,,,,,,,,,,0,,,76,0
762720,note_on,0,0,1,,,,,,,,,,,,,,,0,,,73,0
762880,note_on,0,0,1,,,,,,,,,,,,,,,0,,,76,26
762880,note_on,160,0,1,,,,,,,,,,,,,,,0,,,81,0
762880,note_on,0,0,1,,,,,,,,,,,,,,,0,,,76,0
762880,note_on,0,0,1,,,,,,,,,,,,,,,0,,,73,0
762880,note_on,0,0,1,,,,,,,,,,,,,,,0,,,81,31
762880,note_on,0,0,1,,,,,,,,,,,,,,,0,,,73,26
763040,note_on,0,0,1,,,,,,,,,,,,,,,0,,,76,0
763040,note_on,0,0,1,,,,,,,,,,,,,,,0,,,73,0
763040,note_on,0,0,1,,,,,,,,,,,,,,,0,,,73,27
763040,note_on,0,0,1,,,,,,,,,,,,,,,0,,,76,27
763040,note_on,0,0,1,,,,,,,,,,,,,,,0,,,81,32
763040,note_on,160,0,1,,,,,,,,,,,,,,,0,,,81,0
763200,note_on,160,0,1,,,,,,,,,,,,,,,0,,,81,0
763200,note_on,0,0,1,,,,,,,,,,,,,,,0,,,85,0
763200,note_on,0,0,1,,,,,,,,,,,,,,,0,,,73,0
763200,note_on,0,0,1,,,,,,,,,,,,,,,0,,,76,0
763200,note_on,0,0,1,,,,,,,,,,,,,,,0,,,85,55
763200,note_on,0,0,2,,,,,,,,,,,,,,,0,,,66,37
763200,note_on,0,0,2,,,,,,,,,,,,,,,0,,,58,30
763200,note_on,0,0,2,,,,,,,,,,,,,,,0,,,57,0
763200,note_on,907,0,2,,,,,,,,,,,,,,,0,,,67,0
763225,control_change,25,0,2,,,,,,,,,,,,,,,0,64,0,,
763253,control_change,28,0,2,,,,,,,,,,,,,,,0,64,127,,
763360,note_on,0,0,1,,,,,,,,,,,,,,,0,,,78,29
763360,note_on,160,0,1,,,,,,,,,,,,,,,0,,,73,25
763360,note_on,0,0,1,,,,,,,,,,,,,,,0,,,76,25
763520,note_on,0,0,1,,,,,,,,,,,,,,,0,,,73,25
763520,note_on,0,0,1,,,,,,,,,,,,,,,0,,,76,25
763520,note_on,0,0,1,,,,,,,,,,,,,,,0,,,76,0
763520,note_on,160,0,1,,,,,,,,,,,,,,,0,,,78,0
763520,note_on,0,0,1,,,,,,,,,,,,,,,0,,,73,0
763520,note_on,0,0,1,,,,,,,,,,,,,,,0,,,78,30
763680,note_on,427,0,2,,,,,,,,,,,,,,,0,,,66,0
763680,note_on,0,0,2,,,,,,,,,,,,,,,0,,,59,30
763680,note_on,0,0,1,,,,,,,,,,,,,,,0,,,76,0
763680,note_on,0,0,2,,,,,,,,,,,,,,,0,,,66,36
763680,note_on,0,0,1,,,,,,,,,,,,,,,0,,,73,0
763680,note_on,0,0,1,,,,,,,,,,,,,,,0,,,85,0
763680,note_on,160,0,1,,,,,,,,,,,,,,,0,,,78,0
763680,note_on,0,0,2,,,,,,,,,,,,,,,0,,,58,0
763680,note_on,0,0,1,,,,,,,,,,,,,,,0,,,86,54
763694,control_change,14,0,2,,,,,,,,,,,,,,,0,64,0,,
763740,control_change,46,0,2,,,,,,,,,,,,,,,0,64,127,,
763840,note_on,0,0,1,,,,,,,,,,,,,,,0,,,78,29
763840,note_on,160,0,1,,,,,,,,,,,,,,,0,,,74,25
764000,note_on,0,0,1,,,,,,,,,,,,,,,0,,,78,29
764000,note_on,160,0,1,,,,,,,,,,,,,,,0,,,78,0
764000,note_on,0,0,1,,,,,,,,,,,,,,,0,,,74,0
764000,note_on,0,0,1,,,,,,,,,,,,,,,0,,,74,25
764160,note_on,0,0,2,,,,,,,,,,,,,,,0,,,59,32
764160,set_tempo,3120,1,0,,,,,,,,,,,,723327,,,,,,,
764160,note_on,0,0,1,,,,,,,,,,,,,,,0,,,83,53
764160,note_on,0,0,1,,,,,,,,,,,,,,,0,,,86,0
764160,note_on,160,0,1,,,,,,,,,,,,,,,0,,,78,0
764160,note_on,0,0,1,,,,,,,,,,,,,,,0,,,74,0
764160,control_change,0,0,2,,,,,,,,,,,,,,,0,64,0,,
764160,note_on,0,0,2,,,,,,,,,,,,,,,0,,,66,42
764160,note_on,420,0,2,,,,,,,,,,,,,,,0,,,66,0
764160,note_on,0,0,2,,,,,,,,,,,,,,,0,,,59,0
764174,control_change,14,0,2,,,,,,,,,,,,,,,0,64,0,,
764209,control_change,35,0,2,,,,,,,,,,,,,,,0,64,127,,
764320,note_on,160,0,1,,,,,,,,,,,,,,,0,,,74,27
764320,note_on,0,0,1,,,,,,,,,,,,,,,0,,,78,32
764480,note_on,160,0,1,,,,,,,,,,,,,,,0,,,78,0
764480,note_on,0,0,1,,,,,,,,,,,,,,,0,,,74,0
764480,note_on,0,0,1,,,,,,,,,,,,,,,0,,,74,27
764480,note_on,0,0,1,,,,,,,,,,,,,,,0,,,78,32
764640,note_on,160,0,1,,,,,,,,,,,,,,,0,,,78,0
764640,note_on,0,0,1,,,,,,,,,,,,,,,0,,,74,0
764640,note_on,0,0,1,,,,,,,,,,,,,,,0,,,86,53
764640,note_on,0,0,1,,,,,,,,,,,,,,,0,,,83,0
764800,note_on,160,0,1,,,,,,,,,,,,,,,0,,,74,26
764800,note_on,0,0,1,,,,,,,,,,,,,,,0,,,78,31
764880,note_on,671,0,2,,,,,,,,,,,,,,,0,,,66,0
764880,note_on,0,0,2,,,,,,,,,,,,,,,0,,,64,38
764920,set_tempo,760,1,0,,,,,,,,,,,,738643,,,,,,,
764960,note_on,0,0,1,,,,,,,,,,,,,,,0,,,74,26
764960,note_on,0,0,1,,,,,,,,,,,,,,,0,,,78,31
764960,note_on,0,0,1,,,,,,,,,,,,,,,0,,,74,0
764960,note_on,160,0,1,,,,,,,,,,,,,,,0,,,78,0
765120,note_on,160,0,1,,,,,,,,,,,,,,,0,,,78,0
765120,note_on,0,0,1,,,,,,,,,,,,,,,0,,,74,0
765120,control_change,0,0,2,,,,,,,,,,,,,,,0,64,0,,
765120,note_on,240,0,2,,,,,,,,,,,,,,,0,,,64,0
765120,note_on,0,0,1,,,,,,,,,,,,,,,0,,,86,0
765120,note_on,0,0,1,,,,,,,,,,,,,,,0,,,83,53
765120,note_on,0,0,2,,,,,,,,,,,,,,,0,,,62,41
765169,control_change,49,0,2,,,,,,,,,,,,,,,0,64,127,,
765280,note_on,160,0,1,,,,,,,,,,,,,,,0,,,74,27
765280,note_on,0,0,1,,,,,,,,,,,,,,,0,,,78,32
765360,note_on,191,0,2,,,,,,,,,,,,,,,0,,,62,0
765360,note_on,0,0,2,,,,,,,,,,,,,,,0,,,59,0
765440,note_on,0,0,1,,,,,,,,,,,,,,,0,,,74,0
765440,note_on,0,0,1,,,,,,,,,,,,,,,0,,,78,32
765440,note_on,0,0,1,,,,,,,,,,,,,,,0,,,74,27
765440,note_on,160,0,1,,,,,,,,,,,,,,,0,,,78,0
765593,control_change,233,0,2,,,,,,,,,,,,,,,0,64,0,,
765600,note_on,0,0,1,,,,,,,,,,,,,,,0,,,86,53
765600,note_on,7,0,2,,,,,,,,,,,,,,,0,,,59,32
765600,note_on,0,0,2,,,,,,,,,,,,,,,0,,,62,38
765600,note_on,0,0,1,,,,,,,,,,,,,,,0,,,83,0
765600,set_tempo,680,1,0,,,,,,,,,,,,728332,,,,,,,
765600,note_on,0,0,1,,,,,,,,,,,,,,,0,,,74,0
765600,note_on,160,0,1,,,,,,,,,,,,,,,0,,,78,0
765642,control_change,42,0,2,,,,,,,,,,,,,,,0,64,127,,
765760,note_on,0,0,1,,,,,,,,,,,,,,,0,,,78,31
765760,note_on,160,0,1,,,,,,,,,,,,,,,0,,,74,26
765920,note_on,0,0,1,,,,,,,,,,,,,,,0,,,74,0
765920,note_on,160,0,1,,,,,,,,,,,,,,,0,,,78,0
765920,note_on,0,0,1,,,,,,,,,,,,,,,0,,,78,31
765920,note_on,0,0,1,,,,,,,,,,,,,,,0,,,74,26
766080,note_on,0,0,1,,,,,,,,,,,,,,,0,,,86,56
766080,note_on,438,0,2,,,,,,,,,,,,,,,0,,,62,0
766080,note_on,0,0,2,,,,,,,,,,,,,,,0,,,62,41
766080,note_on,0,0,2,,,,,,,,,,,,,,,0,,,59,34
766080,control_change,0,0,2,,,,,,,,,,,,,,,0,64,0,,
766080,note_on,0,0,1,,,,,,,,,,,,,,,0,,,86,0
766080,note_on,160,0,1,,,,,,,,,,,,,,,0,,,78,0
766080,note_on,0,0,2,,,,,,,,,,,,,,,0,,,59,0
766080,note_on,0,0,1,,,,,,,,,,,,,,,0,,,74,0
766136,control_change,56,0,2,,,,,,,,,,,,,,,0,64,127,,
766240,note_on,0,0,1,,,,,,,,,,,,,,,0,,,83,32
766240,note_on,160,0,1,,,,,,,,,,,,,,,0,,,78,27
766400,note_on,160,0,1,,,,,,,,,,,,,,,0,,,83,0
766400,note_on,0,0,1,,,,,,,,,,,,,,,0,,,78,0
766400,note_on,0,0,1,,,,,,,,,,,,,,,0,,,78,27
766400,note_on,0,0,1,,,,,,,,,,,,,,,0,,,83,32
766560,note_on,160,0,1,,,,,,,,,,,,,,,0,,,83,0
766560,note_on,0,0,1,,,,,,,,,,,,,,,0,,,78,0
766560,note_on,0,0,1,,,,,,,,,,,,,,,0,,,86,0
766560,note_on,0,0,1,,,,,,,,,,,,,,,0,,,90,55
766720,note_on,0,0,1,,,,,,,,,,,,,,,0,,,83,32
766720,note_on,160,0,1,,,,,,,,,,,,,,,0,,,78,27
766800,set_tempo,1200,1,0,,,,,,,,,,,,738643,,,,,,,
766800,note_on,664,0,2,,,,,,,,,,,,,,,0,,,62,0
766800,note_on,0,0,2,,,,,,,,,,,,,,,0,,,61,41
766880,note_on,0,0,1,,,,,,,,,,,,,,,0,,,83,32
766880,note_on,0,0,1,,,,,,,,,,,,,,,0,,,78,27
766880,note_on,160,0,1,,,,,,,,,,,,,,,0,,,83,0
766880,note_on,0,0,1,,,,,,,,,,,,,,,0,,,78,0
767026,control_change,226,0,2,,,,,,,,,,,,,,,0,64,0,,
767040,note_on,0,0,2,,,,,,,,,,,,,,,0,,,59,44
767040,note_on,0,0,2,,,,,,,,,,,,,,,0,,,59,0
767040,note_on,14,0,2,,,,,,,,,,,,,,,0,,,61,0
767040,note_on,160,0,1,,,,,,,,,,,,,,,0,,,83,0
767040,note_on,0,0,1,,,,,,,,,,,,,,,0,,,78,0
767040,note_on,0,0,1,,,,,,,,,,,,,,,0,,,90,0
767040,note_on,0,0,1,,,,,,,,,,,,,,,0,,,86,55
767089,control_change,49,0,2,,,,,,,,,,,,,,,0,64,127,,
767200,note_on,0,0,1,,,,,,,,,,,,,,,0,,,83,32
767200,note_on,160,0,1,,,,,,,,,,,,,,,0,,,78,27
767280,note_on,191,0,2,,,,,,,,,,,,,,,0,,,59,0
767360,note_on,160,0,1,,,,,,,,,,,,,,,0,,,83,0
767360,note_on,0,0,1,,,,,,,,,,,,,,,0,,,78,0
767360,note_on,0,0,1,,,,,,,,,,,,,,,0,,,78,27
767360,note_on,0,0,1,,,,,,,,,,,,,,,0,,,83,32
767520,note_on,0,0,1,,,,,,,,,,,,,,,0,,,86,0
767520,note_on,160,0,1,,,,,,,,,,,,,,,0,,,83,0
767520,note_on,0,0,1,,,,,,,,,,,,,,,0,,,90,56
767520,note_on,0,0,1,,,,,,,,,,,,,,,0,,,78,0
767520,note_on,240,0,2,,,,,,,,,,,,,,,0,,,59,34
767548,control_change,28,0,2,,,,,,,,,,,,,,,0,64,0,,
767612,control_change,64,0,2,,,,,,,,,,,,,,,0,64,127,,
767680,note_on,0,0,1,,,,,,,,,,,,,,,0,,,83,32
767680,note_on,160,0,1,,,,,,,,,,,,,,,0,,,78,27
767840,note_on,0,0,1,,,,,,,,,,,,,,,0,,,78,27
767840,note_on,160,0,1,,,,,,,,,,,,,,,0,,,83,0
767840,note_on,0,0,1,,,,,,,,,,,,,,,0,,,78,0
767840,note_on,0,0,1,,,,,,,,,,,,,,,0,,,83,32
768000,note_on,0,0,1,,,,,,,,,,,,,,,0,,,78,0
768000,set_tempo,1200,1,0,,,,,,,,,,,,705882,,,,,,,
768000,note_on,388,0,2,,,,,,,,,,,,,,,0,,,59,0
768000,control_change,0,0,2,,,,,,,,,,,,,,,0,64,0,,
768000,control_change,0,0,2,,,,,,,,,,,,,,,0,64,0,,
768000,note_on,160,0,1,,,,,,,,,,,,,,,0,,,83,0
768000,note_on,0,0,2,,,,,,,,,,,,,,,0,,,59,41
768000,note_on,0,0,1,,,,,,,,,,,,,,,0,,,78,56
768000,note_on,0,0,1,,,,,,,,,,,,,,,0,,,90,0
768056,control_change,56,0,2,,,,,,,,,,,,,,,0,64,127,,
768160,note_on,0,0,1,,,,,,,,,,,,,,,0,,,74,32
768160,note_on,160,0,1,,,,,,,,,,,,,,,0,,,71,27
768320,note_on,0,0,1,,,,,,,,,,,,,,,0,,,71,27
768320,note_on,160,0,1,,,,,,,,,,,,,,,0,,,74,0
768320,note_on,0,0,1,,,,,,,,,,,,,,,0,,,74,32
768320,note_on,0,0,1,,,,,,,,,,,,,,,0,,,71,0
768480,set_tempo,480,1,0,,,,,,,,,,,,689655,,,,,,,
768480,note_on,424,0,2,,,,,,,,,,,,,,,0,,,59,0
768480,note_on,160,0,1,,,,,,,,,,,,,,,0,,,74,0
768480,note_on,0,0,1,,,,,,,,,,,,,,,0,,,82,56
768480,note_on,0,0,2,,,,,,,,,,,,,,,0,,,61,42
768480,note_on,0,0,1,,,,,,,,,,,,,,,0,,,71,0
768480,note_on,0,0,1,,,,,,,,,,,,,,,0,,,78,0
768509,control_change,29,0,2,,,,,,,,,,,,,,,0,64,0,,
768521,control_change,12,0,2,,,,,,,,,,,,,,,0,64,127,,
768640,note_on,160,0,1,,,,,,,,,,,,,,,0,,,78,33
768640,note_on,0,0,1,,,,,,,,,,,,,,,0,,,70,27
768640,note_on,0,0,1,,,,,,,,,,,,,,,0,,,76,33
768720,set_tempo,240,1,0,,,,,,,,,,,,710059,,,,,,,
768800,note_on,0,0,1,,,,,,,,,,,,,,,0,,,76,34
768800,note_on,0,0,1,,,,,,,,,,,,,,,0,,,70,27
768800,note_on,0,0,1,,,,,,,,,,,,,,,0,,,78,0
768800,note_on,0,0,1,,,,,,,,,,,,,,,0,,,70,0
768800,note_on,160,0,1,,,,,,,,,,,,,,,0,,,76,0
768800,note_on,0,0,1,,,,,,,,,,,,,,,0,,,78,34
768946,control_change,425,0,2,,,,,,,,,,,,,,,0,64,0,,
768960,set_tempo,240,1,0,,,,,,,,,,,,693642,,,,,,,
768960,note_on,0,0,2,,,,,,,,,,,,,,,0,,,62,47
768960,note_on,14,0,2,,,,,,,,,,,,,,,0,,,61,0
768960,note_on,0,0,1,,,,,,,,,,,,,,,0,,,78,0
768960,note_on,0,0,1,,,,,,,,,,,,,,,0,,,83,58
768960,note_on,160,0,1,,,,,,,,,,,,,,,0,,,76,0
768960,note_on,0,0,1,,,,,,,,,,,,,,,0,,,82,0
768960,note_on,0,0,1,,,,,,,,,,,,,,,0,,,70,0
769009,control_change,49,0,2,,,,,,,,,,,,,,,0,64,127,,
769120,note_on,160,0,1,,,,,,,,,,,,,,,0,,,78,34
769120,note_on,0,0,1,,,,,,,,,,,,,,,0,,,71,28
769120,note_on,0,0,1,,,,,,,,,,,,,,,0,,,74,34
769280,note_on,0,0,1,,,,,,,,,,,,,,,0,,,71,0
769280,note_on,0,0,1,,,,,,,,,,,,,,,0,,,78,0
769280,note_on,0,0,1,,,,,,,,,,,,,,,0,,,78,35
769280,note_on,0,0,1,,,,,,,,,,,,,,,0,,,71,29
769280,note_on,0,0,1,,,,,,,,,,,,,,,0,,,74,35
769280,note_on,160,0,1,,,,,,,,,,,,,,,0,,,74,0
769440,note_on,0,0,2,,,,,,,,,,,,,,,0,,,64,37
769440,set_tempo,480,1,0,,,,,,,,,,,,718563,,,,,,,
769440,note_on,0,0,1,,,,,,,,,,,,,,,0,,,85,62
769440,note_on,0,0,1,,,,,,,,,,,,,,,0,,,71,0
769440,note_on,0,0,1,,,,,,,,,,,,,,,0,,,78,0
769440,note_on,0,0,1,,,,,,,,,,,,,,,0,,,83,0
769440,note_on,160,0,1,,,,,,,,,,,,,,,0,,,74,0
769440,note_on,0,0,2,,,,,,,,,,,,,,,0,,,57,31
769440,note_on,431,0,2,,,,,,,,,,,,,,,0,,,62,0
769481,control_change,41,0,2,,,,,,,,,,,,,,,0,64,0,,
769532,control_change,51,0,2,,,,,,,,,,,,,,,0,64,127,,
769600,note_on,0,0,1,,,,,,,,,,,,,,,0,,,79,36
769600,note_on,0,0,1,,,,,,,,,,,,,,,0,,,73,29
769600,note_on,160,0,1,,,,,,,,,,,,,,,0,,,81,36
769760,note_on,0,0,1,,,,,,,,,,,,,,,0,,,79,36
769760,note_on,0,0,1,,,,,,,,,,,,,,,0,,,73,29
769760,note_on,0,0,1,,,,,,,,,,,,,,,0,,,81,36
769760,note_on,0,0,1,,,,,,,,,,,,,,,0,,,81,0
769760,note_on,0,0,1,,,,,,,,,,,,,,,0,,,73,0
769760,note_on,160,0,1,,,,,,,,,,,,,,,0,,,79,0
769920,note_on,0,0,2,,,,,,,,,,,,,,,0,,,62,39
769920,note_on,0,0,2,,,,,,,,,,,,,,,0,,,66,47
769920,control_change,0,0,2,,,,,,,,,,,,,,,0,64,0,,
769920,control_change,0,0,2,,,,,,,,,,,,,,,0,64,0,,
769920,set_tempo,480,1,0,,,,,,,,,,,,701754,,,,,,,
769920,note_on,388,0,2,,,,,,,,,,,,,,,0,,,64,0
769920,note_on,0,0,2,,,,,,,,,,,,,,,0,,,57,0
769920,note_on,160,0,1,,,,,,,,,,,,,,,0,,,79,0
769920,note_on,0,0,1,,,,,,,,,,,,,,,0,,,85,0
769920,note_on,0,0,1,,,,,,,,,,,,,,,0,,,81,0
769920,note_on,0,0,1,,,,,,,,,,,,,,,0,,,73,0
769920,note_on,0,0,1,,,,,,,,,,,,,,,0,,,86,61
769976,control_change,56,0,2,,,,,,,,,,,,,,,0,64,127,,
770080,note_on,0,0,1,,,,,,,,,,,,,,,0,,,78,30
770080,note_on,160,0,1,,,,,,,,,,,,,,,0,,,74,30
770080,note_on,0,0,1,,,,,,,,,,,,,,,0,,,81,36
770240,note_on,0,0,1,,,,,,,,,,,,,,,0,,,74,29
770240,note_on,0,0,1,,,,,,,,,,,,,,,0,,,78,29
770240,note_on,0,0,1,,,,,,,,,,,,,,,0,,,81,36
770240,note_on,0,0,1,,,,,,,,,,,,,,,0,,,78,0
770240,note_on,160,0,1,,,,,,,,,,,,,,,0,,,81,0
770240,note_on,0,0,1,,,,,,,,,,,,,,,0,,,74,0
770400,note_on,0,0,2,,,,,,,,,,,,,,,0,,,61,38
770400,note_on,0,0,2,,,,,,,,,,,,,,,0,,,66,45
770400,note_on,0,0,1,,,,,,,,,,,,,,,0,,,74,0
770400,note_on,424,0,2,,,,,,,,,,,,,,,0,,,66,0
770400,note_on,0,0,1,,,,,,,,,,,,,,,0,,,86,0
770400,note_on,0,0,2,,,,,,,,,,,,,,,0,,,62,0
770400,note_on,0,0,1,,,,,,,,,,,,,,,0,,,78,0
770400,note_on,0,0,1,,,,,,,,,,,,,,,0,,,88,60
770400,note_on,160,0,1,,,,,,,,,,,,,,,0,,,81,0
770429,control_change,29,0,2,,,,,,,,,,,,,,,0,64,0,,
770441,control_change,12,0,2,,,,,,,,,,,,,,,0,64,127,,
770560,note_on,0,0,1,,,,,,,,,,,,,,,0,,,78,35
770560,note_on,160,0,1,,,,,,,,,,,,,,,0,,,82,35
770560,note_on,0,0,1,,,,,,,,,,,,,,,0,,,76,28
770640,set_tempo,720,1,0,,,,,,,,,,,,738643,,,,,,,
770720,note_on,160,0,1,,,,,,,,,,,,,,,0,,,78,0
770720,note_on,0,0,1,,,,,,,,,,,,,,,0,,,82,0
770720,note_on,0,0,1,,,,,,,,,,,,,,,0,,,78,34
770720,note_on,0,0,1,,,,,,,,,,,,,,,0,,,76,28
770720,note_on,0,0,1,,,,,,,,,,,,,,,0,,,82,34
770720,note_on,0,0,1,,,,,,,,,,,,,,,0,,,76,0
770866,control_change,425,0,2,,,,,,,,,,,,,,,0,64,0,,
770880,note_on,0,0,2,,,,,,,,,,,,,,,0,,,61,0
770880,note_on,0,0,2,,,,,,,,,,,,,,,0,,,59,38
770880,note_on,0,0,2,,,,,,,,,,,,,,,0,,,66,46
770880,note_on,0,0,1,,,,,,,,,,,,,,,0,,,86,57
770880,note_on,0,0,1,,,,,,,,,,,,,,,0,,,76,0
770880,note_on,0,0,1,,,,,,,,,,,,,,,0,,,82,0
770880,note_on,0,0,1,,,,,,,,,,,,,,,0,,,88,0
770880,note_on,160,0,1,,,,,,,,,,,,,,,0,,,78,0
770880,note_on,14,0,2,,,,,,,,,,,,,,,0,,,66,0
770929,control_change,49,0,2,,,,,,,,,,,,,,,0,64,127,,
771040,note_on,0,0,1,,,,,,,,,,,,,,,0,,,78,33
771040,note_on,160,0,1,,,,,,,,,,,,,,,0,,,83,33
771040,note_on,0,0,1,,,,,,,,,,,,,,,0,,,74,27
771200,note_on,160,0,1,,,,,,,,,,,,,,,0,,,78,0
771200,note_on,0,0,1,,,,,,,,,,,,,,,0,,,74,0
771200,note_on,0,0,1,,,,,,,,,,,,,,,0,,,83,0
771200,note_on,0,0,1,,,,,,,,,,,,,,,0,,,83,32
771200,note_on,0,0,1,,,,,,,,,,,,,,,0,,,74,27
771200,note_on,0,0,1,,,,,,,,,,,,,,,0,,,78,32
771360,note_on,0,0,2,,,,,,,,,,,,,,,0,,,67,39
771360,note_on,0,0,2,,,,,,,,,,,,,,,0,,,57,33
771360,note_on,0,0,2,,,,,,,,,,,,,,,0,,,59,0
771360,note_on,431,0,2,,,,,,,,,,,,,,,0,,,66,0
771360,note_on,160,0,1,,,,,,,,,,,,,,,0,,,78,0
771360,note_on,0,0,1,,,,,,,,,,,,,,,0,,,85,56
771360,note_on,0,0,1,,,,,,,,,,,,,,,0,,,83,0
771360,note_on,0,0,1,,,,,,,,,,,,,,,0,,,74,0
771360,note_on,0,0,1,,,,,,,,,,,,,,,0,,,86,0
771401,control_change,41,0,2,,,,,,,,,,,,,,,0,64,0,,
771452,control_change,51,0,2,,,,,,,,,,,,,,,0,64,127,,
771520,note_on,160,0,1,,,,,,,,,,,,,,,0,,,81,32
771520,note_on,0,0,1,,,,,,,,,,,,,,,0,,,73,27
771520,note_on,0,0,1,,,,,,,,,,,,,,,0,,,76,32
771680,note_on,160,0,1,,,,,,,,,,,,,,,0,,,76,0
771680,note_on,0,0,1,,,,,,,,,,,,,,,0,,,76,32
771680,note_on,0,0,1,,,,,,,,,,,,,,,0,,,73,27
771680,note_on,0,0,1,,,,,,,,,,,,,,,0,,,81,32
771680,note_on,0,0,1,,,,,,,,,,,,,,,0,,,81,0
771680,note_on,0,0,1,,,,,,,,,,,,,,,0,,,73,0
771840,note_on,0,0,1,,,,,,,,,,,,,,,0,,,81,0
771840,note_on,0,0,1,,,,,,,,,,,,,,,0,,,85,54
771840,control_change,0,0,2,,,,,,,,,,,,,,,0,64,0,,
771840,note_on,0,0,2,,,,,,,,,,,,,,,0,,,67,39
771840,note_on,0,0,2,,,,,,,,,,,,,,,0,,,57,33
771840,note_on,0,0,2,,,,,,,,,,,,,,,0,,,57,0
771840,note_on,388,0,2,,,,,,,,,,,,,,,0,,,67,0
771840,note_on,0,0,1,,,,,,,,,,,,,,,0,,,85,0
771840,note_on,0,0,1,,,,,,,,,,,,,,,0,,,73,0
771840,note_on,160,0,1,,,,,,,,,,,,,,,0,,,76,0
771893,control_change,53,0,2,,,,,,,,,,,,,,,0,64,127,,
772000,note_on,160,0,1,,,,,,,,,,,,,,,0,,,73,26
772000,note_on,0,0,1,,,,,,,,,,,,,,,0,,,76,26
772000,note_on,0,0,1,,,,,,,,,,,,,,,0,,,81,31
772160,note_on,0,0,1,,,,,,,,,,,,,,,0,,,76,26
772160,note_on,160,0,1,,,,,,,,,,,,,,,0,,,81,0
772160,note_on,0,0,1,,,,,,,,,,,,,,,0,,,76,0
772160,note_on,0,0,1,,,,,,,,,,,,,,,0,,,73,0
772160,note_on,0,0,1,,,,,,,,,,,,,,,0,,,73,26
772160,note_on,0,0,1,,,,,,,,,,,,,,,0,,,81,31
772320,note_on,160,0,1,,,,,,,,,,,,,,,0,,,81,0
772320,note_on,0,0,1,,,,,,,,,,,,,,,0,,,76,0
772320,note_on,0,0,1,,,,,,,,,,,,,,,0,,,73,0
772320,note_on,0,0,1,,,,,,,,,,,,,,,0,,,73,26
772320,note_on,0,0,1,,,,,,,,,,,,,,,0,,,76,26
772320,note_on,0,0,1,,,,,,,,,,,,,,,0,,,81,31
772480,note_on,0,0,1,,,,,,,,,,,,,,,0,,,81,31
772480,note_on,0,0,1,,,,,,,,,,,,,,,0,,,76,26
772480,note_on,0,0,1,,,,,,,,,,,,,,,0,,,73,26
772480,note_on,0,0,1,,,,,,,,,,,,,,,0,,,73,0
772480,note_on,0,0,1,,,,,,,,,,,,,,,0,,,76,0
772480,note_on,160,0,1,,,,,,,,,,,,,,,0,,,81,0
772640,note_on,160,0,1,,,,,,,,,,,,,,,0,,,81,0
772640,note_on,0,0,1,,,,,,,,,,,,,,,0,,,76,0
772640,note_on,0,0,1,,,,,,,,,,,,,,,0,,,73,0
772640,note_on,0,0,1,,,,,,,,,,,,,,,0,,,73,27
772640,note_on,0,0,1,,,,,,,,,,,,,,,0,,,76,27
772640,note_on,0,0,1,,,,,,,,,,,,,,,0,,,81,32
772800,note_on,0,0,2,,,,,,,,,,,,,,,0,,,62,37
772800,note_on,0,0,2,,,,,,,,,,,,,,,0,,,66,37
772800,note_on,0,0,2,,,,,,,,,,,,,,,0,,,57,0
772800,note_on,0,0,1,,,,,,,,,,,,,,,0,,,86,49
772800,note_on,0,0,1,,,,,,,,,,,,,,,0,,,81,41
772800,note_on,907,0,2,,,,,,,,,,,,,,,0,,,67,0
772800,note_on,0,0,1,,,,,,,,,,,,,,,0,,,74,41
772800,note_on,0,0,1,,,,,,,,,,,,,,,0,,,76,0
772800,note_on,0,0,1,,,,,,,,,,,,,,,0,,,78,41
772800,note_on,0,0,1,,,,,,,,,,,,,,,0,,,73,0
772800,note_on,160,0,1,,,,,,,,,,,,,,,0,,,81,0
772800,note_on,0,0,1,,,,,,,,,,,,,,,0,,,85,0
772825,control_change,25,0,2,,,,,,,,,,,,,,,0,64,0,,
772853,control_change,28,0,2,,,,,,,,,,,,,,,0,64,127,,
772960,note_on,0,0,2,,,,,,,,,,,,,,,0,,,69,29
772960,note_on,0,0,2,,,,,,,,,,,,,,,0,,,62,0
772960,note_on,107,0,2,,,,,,,,,,,,,,,0,,,66,0
773040,note_on,0,0,1,,,,,,,,,,,,,,,0,,,81,0
773040,note_on,0,0,1,,,,,,,,,,,,,,,0,,,78,0
773040,note_on,0,0,1,,,,,,,,,,,,,,,0,,,74,0
773040,note_on,240,0,1,,,,,,,,,,,,,,,0,,,86,0
773120,note_on,160,0,2,,,,,,,,,,,,,,,0,,,69,0
773120,note_on,0,0,2,,,,,,,,,,,,,,,0,,,69,29
773280,set_tempo,2640,1,0,,,,,,,,,,,,727802,,,,,,,
773280,note_on,160,0,2,,,,,,,,,,,,,,,0,,,69,0
773280,note_on,0,0,2,,,,,,,,,,,,,,,0,,,69,33
773280,note_on,240,0,1,,,,,,,,,,,,,,,0,,,81,52
773294,control_change,14,0,2,,,,,,,,,,,,,,,0,64,0,,
773340,control_change,46,0,2,,,,,,,,,,,,,,,0,64,127,,
773440,note_on,100,0,2,,,,,,,,,,,,,,,0,,,69,0
773440,note_on,0,0,2,,,,,,,,,,,,,,,0,,,69,29
773600,note_on,160,0,2,,,,,,,,,,,,,,,0,,,69,0
773600,note_on,0,0,2,,,,,,,,,,,,,,,0,,,69,29
773720,set_tempo,440,1,0,,,,,,,,,,,,702658,,,,,,,
773760,note_on,160,0,2,,,,,,,,,,,,,,,0,,,69,0
773760,note_on,0,0,1,,,,,,,,,,,,,,,0,,,81,54
773760,set_tempo,40,1,0,,,,,,,,,,,,672570,,,,,,,
773760,note_on,480,0,1,,,,,,,,,,,,,,,0,,,81,0
773760,note_on,0,0,2,,,,,,,,,,,,,,,0,,,63,33
773760,control_change,0,0,2,,,,,,,,,,,,,,,0,64,0,,
773794,control_change,34,0,2,,,,,,,,,,,,,,,0,64,127,,
773880,note_on,0,0,2,,,,,,,,,,,,,,,0,,,69,27
773880,note_on,86,0,2,,,,,,,,,,,,,,,0,,,63,0
774000,note_on,120,0,2,,,,,,,,,,,,,,,0,,,69,0
774000,note_on,0,0,2,,,,,,,,,,,,,,,0,,,66,27
774000,set_tempo,240,1,0,,,,,,,,,,,,668077,,,,,,,
774120,note_on,120,0,2,,,,,,,,,,,,,,,0,,,66,0
774120,note_on,0,0,2,,,,,,,,,,,,,,,0,,,69,27
774240,set_tempo,240,1,0,,,,,,,,,,,,663497,,,,,,,
774240,note_on,0,0,2,,,,,,,,,,,,,,,0,,,63,33
774240,note_on,120,0,2,,,,,,,,,,,,,,,0,,,69,0
774360,note_on,120,0,2,,,,,,,,,,,,,,,0,,,63,0
774360,note_on,0,0,2,,,,,,,,,,,,,,,0,,,69,28
774480,note_on,120,0,2,,,,,,,,,,,,,,,0,,,69,0
774480,note_on,0,0,1,,,,,,,,,,,,,,,0,,,79,51
774480,note_on,720,0,1,,,,,,,,,,,,,,,0,,,81,0
774480,note_on,0,0,2,,,,,,,,,,,,,,,0,,,66,28
774600,note_on,120,0,2,,,,,,,,,,,,,,,0,,,66,0
774600,note_on,0,0,2,,,,,,,,,,,,,,,0,,,69,29
774720,note_on,0,0,2,,,,,,,,,,,,,,,0,,,63,33
774720,note_on,0,0,1,,,,,,,,,,,,,,,0,,,78,51
774720,note_on,240,0,1,,,,,,,,,,,,,,,0,,,79,0
774720,note_on,120,0,2,,,,,,,,,,,,,,,0,,,69,0
774754,control_change,34,0,2,,,,,,,,,,,,,,,0,64,0,,
774817,control_change,63,0,2,,,,,,,,,,,,,,,0,64,127,,
774840,note_on,23,0,2,,,,,,,,,,,,,,,0,,,63,0
774840,note_on,0,0,2,,,,,,,,,,,,,,,0,,,69,29
774960,note_on,240,0,1,,,,,,,,,,,,,,,0,,,78,0
774960,note_on,0,0,2,,,,,,,,,,,,,,,0,,,66,29
774960,note_on,120,0,2,,,,,,,,,,,,,,,0,,,69,0
775080,note_on,120,0,2,,,,,,,,,,,,,,,0,,,66,0
775080,note_on,0,0,2,,,,,,,,,,,,,,,0,,,69,29
775200,note_on,0,0,2,,,,,,,,,,,,,,,0,,,62,33
775200,set_tempo,960,1,0,,,,,,,,,,,,668077,,,,,,,
775200,note_on,120,0,2,,,,,,,,,,,,,,,0,,,69,0
775200,note_on,240,0,1,,,,,,,,,,,,,,,0,,,78,52
775200,control_change,0,0,2,,,,,,,,,,,,,,,0,64,0,,
775246,control_change,46,0,2,,,,,,,,,,,,,,,0,64,127,,
775320,note_on,74,0,2,,,,,,,,,,,,,,,0,,,62,0
775320,note_on,0,0,2,,,,,,,,,,,,,,,0,,,69,29
775440,note_on,120,0,2,,,,,,,,,,,,,,,0,,,69,0
775440,note_on,0,0,2,,,,,,,,,,,,,,,0,,,66,29
775560,note_on,120,0,2,,,,,,,,,,,,,,,0,,,66,0
775560,note_on,0,0,2,,,,,,,,,,,,,,,0,,,69,29
775680,note_on,0,0,1,,,,,,,,,,,,,,,0,,,78,54
775680,note_on,480,0,1,,,,,,,,,,,,,,,0,,,78,0
775680,set_tempo,480,1,0,,,,,,,,,,,,658906,,,,,,,
775680,note_on,0,0,2,,,,,,,,,,,,,,,0,,,60,33
775680,control_change,0,0,2,,,,,,,,,,,,,,,0,64,0,,
775680,note_on,120,0,2,,,,,,,,,,,,,,,0,,,69,0
775714,control_change,34,0,2,,,,,,,,,,,,,,,0,64,127,,
775800,note_on,86,0,2,,,,,,,,,,,,,,,0,,,60,0
775800,note_on,0,0,2,,,,,,,,,,,,,,,0,,,69,27
775920,note_on,120,0,2,,,,,,,,,,,,,,,0,,,69,0
775920,note_on,0,0,2,,,,,,,,,,,,,,,0,,,66,27
776040,note_on,0,0,2,,,,,,,,,,,,,,,0,,,69,27
776040,note_on,120,0,2,,,,,,,,,,,,,,,0,,,66,0
776160,note_on,120,0,2,,,,,,,,,,,,,,,0,,,69,0
776160,note_on,0,0,2,,,,,,,,,,,,,,,0,,,60,33
776280,note_on,120,0,2,,,,,,,,,,,,,,,0,,,60,0
776280,note_on,0,0,2,,,,,,,,,,,,,,,0,,,69,28
776400,note_on,0,0,2,,,,,,,,,,,,,,,0,,,66,28
776400,note_on,0,0,1,,,,,,,,,,,,,,,0,,,76,51
776400,note_on,120,0,2,,,,,,,,,,,,,,,0,,,69,0
776400,set_tempo,720,1,0,,,,,,,,,,,,668077,,,,,,,
776400,note_on,720,0,1,,,,,,,,,,,,,,,0,,,78,0
776520,note_on,120,0,2,,,,,,,,,,,,,,,0,,,66,0
776520,note_on,0,0,2,,,,,,,,,,,,,,,0,,,69,29
776640,note_on,0,0,1,,,,,,,,,,,,,,,0,,,75,51
776640,note_on,120,0,2,,,,,,,,,,,,,,,0,,,69,0
776640,note_on,0,0,2,,,,,,,,,,,,,,,0,,,60,33
776640,note_on,240,0,1,,,,,,,,,,,,,,,0,,,76,0
776674,control_change,34,0,2,,,,,,,,,,,,,,,0,64,0,,
776737,control_change,63,0,2,,,,,,,,,,,,,,,0,64,127,,
776760,note_on,0,0,2,,,,,,,,,,,,,,,0,,,69,29
776760,note_on,23,0,2,,,,,,,,,,,,,,,0,,,60,0
776880,note_on,0,0,2,,,,,,,,,,,,,,,0,,,66,29
776880,note_on,240,0,1,,,,,,,,,,,,,,,0,,,75,0
776880,note_on,120,0,2,,,,,,,,,,,,,,,0,,,69,0
777000,note_on,120,0,2,,,,,,,,,,,,,,,0,,,66,0
777000,note_on,0,0,2,,,,,,,,,,,,,,,0,,,69,29
777120,note_on,120,0,2,,,,,,,,,,,,,,,0,,,69,0
777120,control_change,0,0,2,,,,,,,,,,,,,,,0,64,0,,
777120,note_on,0,0,2,,,,,,,,,,,,,,,0,,,59,33
777120,note_on,0,0,1,,,,,,,,,,,,,,,0,,,75,52
777120,set_tempo,720,1,0,,,,,,,,,,,,652032,,,,,,,
777120,note_on,240,0,1,,,,,,,,,,,,,,,0,,,71,52
777166,control_change,46,0,2,,,,,,,,,,,,,,,0,64,127,,
777240,note_on,74,0,2,,,,,,,,,,,,,,,0,,,59,0
777240,note_on,0,0,2,,,,,,,,,,,,,,,0,,,69,29
777360,note_on,0,0,2,,,,,,,,,,,,,,,0,,,66,29
777360,note_on,120,0,2,,,,,,,,,,,,,,,0,,,69,0
777480,note_on,0,0,2,,,,,,,,,,,,,,,0,,,69,29
777480,note_on,120,0,2,,,,,,,,,,,,,,,0,,,66,0
777560,set_tempo,440,1,0,,,,,,,,,,,,641026,,,,,,,
777600,note_on,0,0,1,,,,,,,,,,,,,,,0,,,71,0
777600,note_on,0,0,1,,,,,,,,,,,,,,,0,,,71,44
777600,note_on,0,0,2,,,,,,,,,,,,,,,0,,,59,33
777600,note_on,0,0,1,,,,,,,,,,,,,,,0,,,75,52
777600,control_change,0,0,2,,,,,,,,,,,,,,,0,64,0,,
777600,note_on,480,0,1,,,,,,,,,,,,,,,0,,,75,0
777600,note_on,120,0,2,,,,,,,,,,,,,,,0,,,69,0
777640,control_change,40,0,2,,,,,,,,,,,,,,,0,64,127,,
777720,note_on,80,0,2,,,,,,,,,,,,,,,0,,,59,0
777720,note_on,0,0,2,,,,,,,,,,,,,,,0,,,69,28
777720,set_tempo,160,1,0,,,,,,,,,,,,637416,,,,,,,
777840,note_on,120,0,2,,,,,,,,,,,,,,,0,,,69,0
777840,note_on,0,0,2,,,,,,,,,,,,,,,0,,,66,28
777840,set_tempo,120,1,0,,,,,,,,,,,,633914,,,,,,,
777960,note_on,120,0,2,,,,,,,,,,,,,,,0,,,66,0
777960,set_tempo,120,1,0,,,,,,,,,,,,630451,,,,,,,
777960,note_on,0,0,2,,,,,,,,,,,,,,,0,,,69,28
778074,control_change,114,0,2,,,,,,,,,,,,,,,0,64,0,,
778080,note_on,0,0,1,,,,,,,,,,,,,,,0,,,71,47
778080,note_on,0,0,2,,,,,,,,,,,,,,,0,,,59,34
778080,note_on,6,0,2,,,,,,,,,,,,,,,0,,,69,0
778080,note_on,480,0,1,,,,,,,,,,,,,,,0,,,75,0
778080,note_on,0,0,1,,,,,,,,,,,,,,,0,,,76,55
778080,note_on,0,0,1,,,,,,,,,,,,,,,0,,,71,0
778114,control_change,34,0,2,,,,,,,,,,,,,,,0,64,127,,
778120,set_tempo,160,1,0,,,,,,,,,,,,626894,,,,,,,
778200,note_on,0,0,2,,,,,,,,,,,,,,,0,,,67,28
778200,note_on,86,0,2,,,,,,,,,,,,,,,0,,,59,0
778240,set_tempo,120,1,0,,,,,,,,,,,,623506,,,,,,,
778320,note_on,0,0,2,,,,,,,,,,,,,,,0,,,64,28
778320,note_on,120,0,2,,,,,,,,,,,,,,,0,,,67,0
778360,set_tempo,120,1,0,,,,,,,,,,,,620155,,,,,,,
778440,note_on,120,0,2,,,,,,,,,,,,,,,0,,,64,0
778440,note_on,0,0,2,,,,,,,,,,,,,,,0,,,67,29
778480,set_tempo,120,1,0,,,,,,,,,,,,616776,,,,,,,
778537,control_change,97,0,2,,,,,,,,,,,,,,,0,64,0,,
778560,note_on,0,0,2,,,,,,,,,,,,,,,0,,,59,35
778560,note_on,23,0,2,,,,,,,,,,,,,,,0,,,67,0
778560,note_on,480,0,1,,,,,,,,,,,,,,,0,,,76,0
778560,note_on,0,0,1,,,,,,,,,,,,,,,0,,,78,56
778560,note_on,0,0,1,,,,,,,,,,,,,,,0,,,71,0
778560,note_on,0,0,1,,,,,,,,,,,,,,,0,,,75,47
778560,note_on,0,0,1,,,,,,,,,,,,,,,0,,,71,47
778583,control_change,23,0,2,,,,,,,,,,,,,,,0,64,127,,
778640,set_tempo,160,1,0,,,,,,,,,,,,613434,,,,,,,
778680,note_on,0,0,2,,,,,,,,,,,,,,,0,,,66,29
778680,note_on,97,0,2,,,,,,,,,,,,,,,0,,,59,0
778760,set_tempo,120,1,0,,,,,,,,,,,,610190,,,,,,,
778800,note_on,0,0,2,,,,,,,,,,,,,,,0,,,63,29
778800,note_on,120,0,2,,,,,,,,,,,,,,,0,,,66,0
778880,set_tempo,120,1,0,,,,,,,,,,,,606919,,,,,,,
778920,note_on,0,0,2,,,,,,,,,,,,,,,0,,,66,29
778920,note_on,120,0,2,,,,,,,,,,,,,,,0,,,63,0
779000,set_tempo,120,1,0,,,,,,,,,,,,603743,,,,,,,
779040,note_on,0,0,2,,,,,,,,,,,,,,,0,,,59,36
779040,note_on,120,0,2,,,,,,,,,,,,,,,0,,,66,0
779040,note_on,0,0,1,,,,,,,,,,,,,,,0,,,79,57
779040,note_on,0,0,1,,,,,,,,,,,,,,,0,,,76,48
779040,note_on,0,0,1,,,,,,,,,,,,,,,0,,,71,48
779040,note_on,0,0,1,,,,,,,,,,,,,,,0,,,71,0
779040,set_tempo,40,1,0,,,,,,,,,,,,603743,,,,,,,
779040,note_on,0,0,1,,,,,,,,,,,,,,,0,,,75,0
779040,note_on,480,0,1,,,,,,,,,,,,,,,0,,,78,0
779046,control_change,6,0,2,,,,,,,,,,,,,,,0,64,0,,
779080,control_change,34,0,2,,,,,,,,,,,,,,,0,64,127,,
779160,note_on,0,0,2,,,,,,,,,,,,,,,0,,,67,31
779160,note_on,80,0,2,,,,,,,,,,,,,,,0,,,59,0
779200,set_tempo,160,1,0,,,,,,,,,,,,606919,,,,,,,
779280,note_on,120,0,2,,,,,,,,,,,,,,,0,,,67,0
779280,note_on,0,0,2,,,,,,,,,,,,,,,0,,,64,31
779360,set_tempo,160,1,0,,,,,,,,,,,,610190,,,,,,,
779400,note_on,120,0,2,,,,,,,,,,,,,,,0,,,64,0
779400,note_on,0,0,2,,,,,,,,,,,,,,,0,,,67,31
779520,note_on,120,0,2,,,,,,,,,,,,,,,0,,,67,0
779520,control_change,0,0,2,,,,,,,,,,,,,,,0,64,0,,
779520,note_on,0,0,2,,,,,,,,,,,,,,,0,,,59,37
779520,note_on,0,0,1,,,,,,,,,,,,,,,0,,,71,0
779520,set_tempo,160,1,0,,,,,,,,,,,,613434,,,,,,,
779520,note_on,0,0,1,,,,,,,,,,,,,,,0,,,81,59
779520,note_on,0,0,1,,,,,,,,,,,,,,,0,,,78,50
779520,note_on,0,0,1,,,,,,,,,,,,,,,0,,,71,50
779520,note_on,480,0,1,,,,,,,,,,,,,,,0,,,79,0
779520,note_on,0,0,1,,,,,,,,,,,,,,,0,,,76,0
779566,control_change,46,0,2,,,,,,,,,,,,,,,0,64,127,,
779640,note_on,0,0,2,,,,,,,,,,,,,,,0,,,69,31
779640,note_on,74,0,2,,,,,,,,,,,,,,,0,,,59,0
779760,note_on,0,0,2,,,,,,,,,,,,,,,0,,,66,32
779760,note_on,120,0,2,,,,,,,,,,,,,,,0,,,69,0
779880,note_on,0,0,2,,,,,,,,,,,,,,,0,,,69,32
779880,note_on,120,0,2,,,,,,,,,,,,,,,0,,,66,0
779994,control_change,114,0,2,,,,,,,,,,,,,,,0,64,0,,
780000,note_on,0,0,1,,,,,,,,,,,,,,,0,,,81,60
780000,note_on,0,0,2,,,,,,,,,,,,,,,0,,,60,37
780000,note_on,480,0,1,,,,,,,,,,,,,,,0,,,81,0
780000,note_on,0,0,1,,,,,,,,,,,,,,,0,,,78,0
780000,note_on,0,0,1,,,,,,,,,,,,,,,0,,,71,0
780000,note_on,0,0,1,,,,,,,,,,,,,,,0,,,72,51
780000,note_on,0,0,1,,,,,,,,,,,,,,,0,,,78,51
780000,note_on,6,0,2,,,,,,,,,,,,,,,0,,,69,0
780000,set_tempo,480,1,0,,,,,,,,,,,,620155,,,,,,,
780034,control_change,34,0,2,,,,,,,,,,,,,,,0,64,127,,
780120,note_on,0,0,2,,,,,,,,,,,,,,,0,,,69,31
780120,note_on,86,0,2,,,,,,,,,,,,,,,0,,,60,0
780240,set_tempo,240,1,0,,,,,,,,,,,,637416,,,,,,,
780240,note_on,0,0,2,,,,,,,,,,,,,,,0,,,66,31
780240,note_on,120,0,2,,,,,,,,,,,,,,,0,,,69,0
780360,note_on,0,0,2,,,,,,,,,,,,,,,0,,,69,31
780360,note_on,120,0,2,,,,,,,,,,,,,,,0,,,66,0
780469,control_change,109,0,2,,,,,,,,,,,,,,,0,64,0,,
780480,note_on,0,0,2,,,,,,,,,,,,,,,0,,,61,38
780480,set_tempo,240,1,0,,,,,,,,,,,,650125,,,,,,,
780480,note_on,480,0,1,,,,,,,,,,,,,,,0,,,81,0
780480,note_on,11,0,2,,,,,,,,,,,,,,,0,,,69,0
780480,note_on,0,0,1,,,,,,,,,,,,,,,0,,,81,61
780480,note_on,0,0,1,,,,,,,,,,,,,,,0,,,78,0
780480,note_on,0,0,1,,,,,,,,,,,,,,,0,,,73,52
780480,note_on,0,0,1,,,,,,,,,,,,,,,0,,,78,52
780480,note_on,0,0,1,,,,,,,,,,,,,,,0,,,72,0
780509,control_change,29,0,2,,,,,,,,,,,,,,,0,64,127,,
780600,note_on,0,0,2,,,,,,,,,,,,,,,0,,,69,32
780600,note_on,91,0,2,,,,,,,,,,,,,,,0,,,61,0
780720,set_tempo,240,1,0,,,,,,,,,,,,654522,,,,,,,
780720,note_on,0,0,2,,,,,,,,,,,,,,,0,,,66,32
780720,note_on,120,0,2,,,,,,,,,,,,,,,0,,,69,0
780840,note_on,0,0,2,,,,,,,,,,,,,,,0,,,69,33
780840,note_on,120,0,2,,,,,,,,,,,,,,,0,,,66,0
780920,set_tempo,200,1,0,,,,,,,,,,,,658906,,,,,,,
780949,control_change,109,0,2,,,,,,,,,,,,,,,0,64,0,,
780960,note_on,0,0,1,,,,,,,,,,,,,,,0,,,78,53
780960,note_on,0,0,1,,,,,,,,,,,,,,,0,,,81,63
780960,note_on,0,0,1,,,,,,,,,,,,,,,0,,,73,0
780960,note_on,0,0,1,,,,,,,,,,,,,,,0,,,78,0
780960,note_on,480,0,1,,,,,,,,,,,,,,,0,,,81,0
780960,note_on,0,0,1,,,,,,,,,,,,,,,0,,,74,53
780960,note_on,11,0,2,,,,,,,,,,,,,,,0,,,69,0
780960,set_tempo,40,1,0,,,,,,,,,,,,668077,,,,,,,
780960,note_on,0,0,2,,,,,,,,,,,,,,,0,,,62,39
780989,control_change,29,0,2,,,,,,,,,,,,,,,0,64,127,,
781080,note_on,91,0,2,,,,,,,,,,,,,,,0,,,62,0
781080,note_on,0,0,2,,,,,,,,,,,,,,,0,,,69,32
781200,note_on,120,0,2,,,,,,,,,,,,,,,0,,,69,0
781200,note_on,0,0,2,,,,,,,,,,,,,,,0,,,66,34
781320,note_on,120,0,2,,,,,,,,,,,,,,,0,,,66,0
781320,note_on,0,0,2,,,,,,,,,,,,,,,0,,,69,34
781440,note_on,0,0,2,,,,,,,,,,,,,,,0,,,62,33
781440,note_on,120,0,2,,,,,,,,,,,,,,,0,,,69,0
781440,control_change,0,0,2,,,,,,,,,,,,,,,0,64,0,,
781440,control_change,0,0,2,,,,,,,,,,,,,,,0,64,0,,
781440,note_on,480,0,1,,,,,,,,,,,,,,,0,,,81,0
781440,note_on,0,0,1,,,,,,,,,,,,,,,0,,,74,0
781440,note_on,0,0,1,,,,,,,,,,,,,,,0,,,78,0
781440,set_tempo,480,1,0,,,,,,,,,,,,644676,,,,,,,
781440,note_on,0,0,1,,,,,,,,,,,,,,,0,,,81,59
781474,control_change,34,0,2,,,,,,,,,,,,,,,0,64,127,,
781560,note_on,86,0,2,,,,,,,,,,,,,,,0,,,62,0
781560,note_on,0,0,2,,,,,,,,,,,,,,,0,,,69,27
781680,note_on,120,0,2,,,,,,,,,,,,,,,0,,,69,0
781680,note_on,0,0,2,,,,,,,,,,,,,,,0,,,66,27
781800,note_on,120,0,2,,,,,,,,,,,,,,,0,,,66,0
781800,note_on,0,0,2,,,,,,,,,,,,,,,0,,,69,27
781920,set_tempo,480,1,0,,,,,,,,,,,,591133,,,,,,,
781920,note_on,0,0,2,,,,,,,,,,,,,,,0,,,63,33
781920,note_on,120,0,2,,,,,,,,,,,,,,,0,,,69,0
782040,note_on,0,0,1,,,,,,,,,,,,,,,0,,,82,51
782040,note_on,600,0,1,,,,,,,,,,,,,,,0,,,81,0
782040,note_on,0,0,2,,,,,,,,,,,,,,,0,,,69,28
782040,note_on,120,0,2,,,,,,,,,,,,,,,0,,,63,0
782160,note_on,0,0,1,,,,,,,,,,,,,,,0,,,81,53
782160,note_on,120,0,1,,,,,,,,,,,,,,,0,,,82,0
782160,note_on,120,0,2,,,,,,,,,,,,,,,0,,,69,0
782160,note_on,0,0,2,,,,,,,,,,,,,,,0,,,66,28
782280,note_on,120,0,1,,,,,,,,,,,,,,,0,,,81,0
782280,note_on,0,0,2,,,,,,,,,,,,,,,0,,,69,29
782280,note_on,0,0,1,,,,,,,,,,,,,,,0,,,79,51
782280,note_on,120,0,2,,,,,,,,,,,,,,,0,,,66,0
782400,note_on,0,0,2,,,,,,,,,,,,,,,0,,,63,33
782400,note_on,120,0,2,,,,,,,,,,,,,,,0,,,69,0
782400,set_tempo,480,1,0,,,,,,,,,,,,612245,,,,,,,
782400,note_on,0,0,1,,,,,,,,,,,,,,,0,,,78,56
782400,note_on,120,0,1,,,,,,,,,,,,,,,0,,,79,0
782434,control_change,34,0,2,,,,,,,,,,,,,,,0,64,0,,
782497,control_change,63,0,2,,,,,,,,,,,,,,,0,64,127,,
782520,note_on,0,0,2,,,,,,,,,,,,,,,0,,,69,29
782520,note_on,23,0,2,,,,,,,,,,,,,,,0,,,63,0
782640,note_on,120,0,2,,,,,,,,,,,,,,,0,,,69,0
782640,note_on,0,0,2,,,,,,,,,,,,,,,0,,,66,29
782640,note_on,240,0,1,,,,,,,,,,,,,,,0,,,78,0
782760,note_on,0,0,2,,,,,,,,,,,,,,,0,,,69,29
782760,note_on,120,0,2,,,,,,,,,,,,,,,0,,,66,0
782880,note_on,0,0,2,,,,,,,,,,,,,,,0,,,62,33
782880,control_change,0,0,2,,,,,,,,,,,,,,,0,64,0,,
782880,note_on,120,0,2,,,,,,,,,,,,,,,0,,,69,0
782880,set_tempo,480,1,0,,,,,,,,,,,,657318,,,,,,,
782880,note_on,240,0,1,,,,,,,,,,,,,,,0,,,78,57
782926,control_change,46,0,2,,,,,,,,,,,,,,,0,64,127,,
783000,note_on,0,0,2,,,,,,,,,,,,,,,0,,,69,29
783000,note_on,74,0,2,,,,,,,,,,,,,,,0,,,62,0
783120,note_on,0,0,2,,,,,,,,,,,,,,,0,,,66,29
783120,note_on,120,0,2,,,,,,,,,,,,,,,0,,,69,0
783240,note_on,120,0,2,,,,,,,,,,,,,,,0,,,66,0
783240,note_on,0,0,2,,,,,,,,,,,,,,,0,,,69,29
783360,set_tempo,480,1,0,,,,,,,,,,,,641026,,,,,,,
783360,note_on,120,0,2,,,,,,,,,,,,,,,0,,,69,0
783360,control_change,0,0,2,,,,,,,,,,,,,,,0,64,0,,
783360,note_on,480,0,1,,,,,,,,,,,,,,,0,,,78,0
783360,note_on,0,0,1,,,,,,,,,,,,,,,0,,,78,59
783360,note_on,0,0,2,,,,,,,,,,,,,,,0,,,60,33
783394,control_change,34,0,2,,,,,,,,,,,,,,,0,64,127,,
783480,note_on,86,0,2,,,,,,,,,,,,,,,0,,,60,0
783480,note_on,0,0,2,,,,,,,,,,,,,,,0,,,69,27
783600,note_on,120,0,2,,,,,,,,,,,,,,,0,,,69,0
783600,note_on,0,0,2,,,,,,,,,,,,,,,0,,,66,27
783720,note_on,120,0,2,,,,,,,,,,,,,,,0,,,66,0
783720,note_on,0,0,2,,,,,,,,,,,,,,,0,,,69,27
783840,set_tempo,480,1,0,,,,,,,,,,,,591133,,,,,,,
783840,note_on,120,0,2,,,,,,,,,,,,,,,0,,,69,0
783840,note_on,0,0,2,,,,,,,,,,,,,,,0,,,60,33
783960,note_on,0,0,1,,,,,,,,,,,,,,,0,,,79,53
783960,note_on,600,0,1,,,,,,,,,,,,,,,0,,,78,0
783960,note_on,0,0,2,,,,,,,,,,,,,,,0,,,69,28
783960,note_on,120,0,2,,,,,,,,,,,,,,,0,,,60,0
784080,note_on,0,0,1,,,,,,,,,,,,,,,0,,,78,53
784080,note_on,120,0,1,,,,,,,,,,,,,,,0,,,79,0
784080,note_on,0,0,2,,,,,,,,,,,,,,,0,,,66,28
784080,note_on,120,0,2,,,,,,,,,,,,,,,0,,,69,0
784200,note_on,0,0,1,,,,,,,,,,,,,,,0,,,76,53
784200,note_on,120,0,1,,,,,,,,,,,,,,,0,,,78,0
784200,note_on,120,0,2,,,,,,,,,,,,,,,0,,,66,0
784200,note_on,0,0,2,,,,,,,,,,,,,,,0,,,69,29
784320,note_on,120,0,1,,,,,,,,,,,,,,,0,,,76,0
784320,set_tempo,480,1,0,,,,,,,,,,,,615385,,,,,,,
784320,note_on,0,0,1,,,,,,,,,,,,,,,0,,,75,56
784320,note_on,120,0,2,,,,,,,,,,,,,,,0,,,69,0
784320,note_on,0,0,2,,,,,,,,,,,,,,,0,,,60,33
784354,control_change,34,0,2,,,,,,,,,,,,,,,0,64,0,,
784417,control_change,63,0,2,,,,,,,,,,,,,,,0,64,127,,
784440,note_on,23,0,2,,,,,,,,,,,,,,,0,,,60,0
784440,note_on,0,0,2,,,,,,,,,,,,,,,0,,,69,29
784560,note_on,120,0,2,,,,,,,,,,,,,,,0,,,69,0
784560,note_on,0,0,2,,,,,,,,,,,,,,,0,,,66,29
784560,note_on,240,0,1,,,,,,,,,,,,,,,0,,,75,0
784680,note_on,120,0,2,,,,,,,,,,,,,,,0,,,66,0
784680,note_on,0,0,2,,,,,,,,,,,,,,,0,,,69,31
784800,note_on,0,0,1,,,,,,,,,,,,,,,0,,,75,57
784800,note_on,120,0,2,,,,,,,,,,,,,,,0,,,69,0
784800,control_change,0,0,2,,,,,,,,,,,,,,,0,64,0,,
784800,note_on,0,0,2,,,,,,,,,,,,,,,0,,,59,36
784800,set_tempo,480,1,0,,,,,,,,,,,,648999,,,,,,,
784800,note_on,240,0,1,,,,,,,,,,,,,,,0,,,71,57
784846,control_change,46,0,2,,,,,,,,,,,,,,,0,64,127,,
784920,note_on,0,0,2,,,,,,,,,,,,,,,0,,,69,31
784920,note_on,74,0,2,,,,,,,,,,,,,,,0,,,59,0
785040,note_on,120,0,2,,,,,,,,,,,,,,,0,,,69,0
785040,note_on,0,0,2,,,,,,,,,,,,,,,0,,,66,31
785160,note_on,120,0,2,,,,,,,,,,,,,,,0,,,66,0
785160,note_on,0,0,2,,,,,,,,,,,,,,,0,,,69,31
785250,set_tempo,450,1,0,,,,,,,,,,,,623506,,,,,,,
785280,note_on,120,0,2,,,,,,,,,,,,,,,0,,,69,0
785280,note_on,0,0,1,,,,,,,,,,,,,,,0,,,71,0
785280,note_on,480,0,1,,,,,,,,,,,,,,,0,,,75,0
785280,note_on,0,0,2,,,,,,,,,,,,,,,0,,,59,36
785280,control_change,0,0,2,,,,,,,,,,,,,,,0,64,0,,
785280,note_on,0,0,1,,,,,,,,,,,,,,,0,,,75,57
785280,note_on,0,0,1,,,,,,,,,,,,,,,0,,,71,48
785320,control_change,40,0,2,,,,,,,,,,,,,,,0,64,127,,
785400,note_on,0,0,2,,,,,,,,,,,,,,,0,,,69,30
785400,note_on,80,0,2,,,,,,,,,,,,,,,0,,,59,0
785410,set_tempo,160,1,0,,,,,,,,,,,,620155,,,,,,,
785520,note_on,0,0,2,,,,,,,,,,,,,,,0,,,66,30
785520,note_on,120,0,2,,,,,,,,,,,,,,,0,,,69,0
785570,set_tempo,160,1,0,,,,,,,,,,,,616776,,,,,,,
785640,note_on,120,0,2,,,,,,,,,,,,,,,0,,,66,0
785640,note_on,0,0,2,,,,,,,,,,,,,,,0,,,69,30
785640,note_on,0,0,1,,,,,,,,,,,,,,,0,,,71,48
785640,note_on,0,0,1,,,,,,,,,,,,,,,0,,,71,0
785640,note_on,0,0,1,,,,,,,,,,,,,,,0,,,75,57
785640,note_on,360,0,1,,,,,,,,,,,,,,,0,,,75,0
785730,set_tempo,160,1,0,,,,,,,,,,,,613434,,,,,,,
785754,control_change,114,0,2,,,,,,,,,,,,,,,0,64,0,,
785760,note_on,120,0,1,,,,,,,,,,,,,,,0,,,75,0
785760,note_on,0,0,1,,,,,,,,,,,,,,,0,,,71,0
785760,note_on,0,0,1,,,,,,,,,,,,,,,0,,,71,51
785760,note_on,0,0,1,,,,,,,,,,,,,,,0,,,76,60
785760,note_on,6,0,2,,,,,,,,,,,,,,,0,,,69,0
785760,note_on,0,0,2,,,,,,,,,,,,,,,0,,,59,37
785794,control_change,34,0,2,,,,,,,,,,,,,,,0,64,127,,
785880,note_on,0,0,2,,,,,,,,,,,,,,,0,,,67,30
785880,note_on,86,0,2,,,,,,,,,,,,,,,0,,,59,0
785890,set_tempo,160,1,0,,,,,,,,,,,,610190,,,,,,,
786000,note_on,120,0,2,,,,,,,,,,,,,,,0,,,67,0
786000,note_on,0,0,2,,,,,,,,,,,,,,,0,,,64,30
786050,set_tempo,160,1,0,,,,,,,,,,,,606919,,,,,,,
786120,note_on,0,0,1,,,,,,,,,,,,,,,0,,,71,51
786120,note_on,0,0,1,,,,,,,,,,,,,,,0,,,71,0
786120,note_on,360,0,1,,,,,,,,,,,,,,,0,,,76,0
786120,note_on,0,0,1,,,,,,,,,,,,,,,0,,,76,60
786120,note_on,0,0,2,,,,,,,,,,,,,,,0,,,67,31
786120,note_on,120,0,2,,,,,,,,,,,,,,,0,,,64,0
786210,set_tempo,160,1,0,,,,,,,,,,,,603743,,,,,,,
786217,control_change,97,0,2,,,,,,,,,,,,,,,0,64,0,,
786240,note_on,0,0,1,,,,,,,,,,,,,,,0,,,71,0
786240,note_on,0,0,1,,,,,,,,,,,,,,,0,,,71,51
786240,note_on,0,0,1,,,,,,,,,,,,,,,0,,,75,51
786240,note_on,0,0,1,,,,,,,,,,,,,,,0,,,78,61
786240,note_on,0,0,2,,,,,,,,,,,,,,,0,,,59,38
786240,note_on,23,0,2,,,,,,,,,,,,,,,0,,,67,0
786240,note_on,120,0,1,,,,,,,,,,,,,,,0,,,76,0
786263,control_change,23,0,2,,,,,,,,,,,,,,,0,64,127,,
786360,note_on,97,0,2,,,,,,,,,,,,,,,0,,,59,0
786360,note_on,0,0,2,,,,,,,,,,,,,,,0,,,66,31
786370,set_tempo,160,1,0,,,,,,,,,,,,600540,,,,,,,
786480,note_on,120,0,2,,,,,,,,,,,,,,,0,,,66,0
786480,note_on,0,0,2,,,,,,,,,,,,,,,0,,,63,31
786530,set_tempo,160,1,0,,,,,,,,,,,,597372,,,,,,,
786600,note_on,120,0,2,,,,,,,,,,,,,,,0,,,63,0
786600,note_on,0,0,2,,,,,,,,,,,,,,,0,,,66,31
786600,note_on,360,0,1,,,,,,,,,,,,,,,0,,,78,0
786600,note_on,0,0,1,,,,,,,,,,,,,,,0,,,71,0
786600,note_on,0,0,1,,,,,,,,,,,,,,,0,,,71,51
786600,note_on,0,0,1,,,,,,,,,,,,,,,0,,,75,51
786600,note_on,0,0,1,,,,,,,,,,,,,,,0,,,78,61
786600,note_on,0,0,1,,,,,,,,,,,,,,,0,,,75,0
786690,set_tempo,160,1,0,,,,,,,,,,,,594295,,,,,,,
786720,note_on,0,0,1,,,,,,,,,,,,,,,0,,,79,62
786720,note_on,120,0,2,,,,,,,,,,,,,,,0,,,66,0
786720,note_on,0,0,2,,,,,,,,,,,,,,,0,,,59,39
786720,note_on,120,0,1,,,,,,,,,,,,,,,0,,,78,0
786720,note_on,0,0,1,,,,,,,,,,,,,,,0,,,71,52
786720,note_on,0,0,1,,,,,,,,,,,,,,,0,,,76,52
786720,note_on,0,0,1,,,,,,,,,,,,,,,0,,,71,0
786720,note_on,0,0,1,,,,,,,,,,,,,,,0,,,75,0
786726,control_change,6,0,2,,,,,,,,,,,,,,,0,64,0,,
786760,control_change,34,0,2,,,,,,,,,,,,,,,0,64,127,,
786840,note_on,80,0,2,,,,,,,,,,,,,,,0,,,59,0
786840,note_on,0,0,2,,,,,,,,,,,,,,,0,,,67,34
786850,set_tempo,160,1,0,,,,,,,,,,,,591250,,,,,,,
786960,note_on,120,0,2,,,,,,,,,,,,,,,0,,,67,0
786960,note_on,0,0,2,,,,,,,,,,,,,,,0,,,64,34
787010,set_tempo,160,1,0,,,,,,,,,,,,588120,,,,,,,
787080,note_on,0,0,1,,,,,,,,,,,,,,,0,,,76,0
787080,note_on,0,0,1,,,,,,,,,,,,,,,0,,,79,62
787080,note_on,0,0,1,,,,,,,,,,,,,,,0,,,76,52
787080,note_on,120,0,2,,,,,,,,,,,,,,,0,,,64,0
787080,note_on,360,0,1,,,,,,,,,,,,,,,0,,,79,0
787080,note_on,0,0,1,,,,,,,,,,,,,,,0,,,71,52
787080,note_on,0,0,1,,,,,,,,,,,,,,,0,,,71,0
787080,note_on,0,0,2,,,,,,,,,,,,,,,0,,,67,34
787170,set_tempo,160,1,0,,,,,,,,,,,,588120,,,,,,,
787200,note_on,120,0,2,,,,,,,,,,,,,,,0,,,67,0
787200,note_on,0,0,2,,,,,,,,,,,,,,,0,,,59,40
787200,note_on,0,0,1,,,,,,,,,,,,,,,0,,,76,0
787200,note_on,0,0,1,,,,,,,,,,,,,,,0,,,71,0
787200,note_on,0,0,1,,,,,,,,,,,,,,,0,,,71,55
787200,note_on,0,0,1,,,,,,,,,,,,,,,0,,,78,55
787200,note_on,0,0,1,,,,,,,,,,,,,,,0,,,81,64
787200,note_on,120,0,1,,,,,,,,,,,,,,,0,,,79,0
787200,control_change,0,0,2,,,,,,,,,,,,,,,0,64,0,,
787246,control_change,46,0,2,,,,,,,,,,,,,,,0,64,127,,
787290,set_tempo,120,1,0,,,,,,,,,,,,591250,,,,,,,
787320,note_on,0,0,2,,,,,,,,,,,,,,,0,,,69,34
787320,note_on,74,0,2,,,,,,,,,,,,,,,0,,,59,0
787370,set_tempo,80,1,0,,,,,,,,,,,,594295,,,,,,,
787440,note_on,120,0,2,,,,,,,,,,,,,,,0,,,69,0
787440,note_on,0,0,2,,,,,,,,,,,,,,,0,,,66,35
787450,set_tempo,80,1,0,,,,,,,,,,,,597372,,,,,,,
787560,note_on,360,0,1,,,,,,,,,,,,,,,0,,,81,0
787560,note_on,0,0,1,,,,,,,,,,,,,,,0,,,78,0
787560,note_on,0,0,1,,,,,,,,,,,,,,,0,,,71,0
787560,note_on,0,0,1,,,,,,,,,,,,,,,0,,,71,55
787560,note_on,0,0,1,,,,,,,,,,,,,,,0,,,78,55
787560,note_on,0,0,1,,,,,,,,,,,,,,,0,,,81,64
787560,note_on,0,0,2,,,,,,,,,,,,,,,0,,,69,35
787560,note_on,120,0,2,,,,,,,,,,,,,,,0,,,66,0
787570,set_tempo,120,1,0,,,,,,,,,,,,600540,,,,,,,
787650,set_tempo,80,1,0,,,,,,,,,,,,603743,,,,,,,
787674,control_change,114,0,2,,,,,,,,,,,,,,,0,64,0,,
787680,note_on,0,0,2,,,,,,,,,,,,,,,0,,,60,40
787680,note_on,0,0,1,,,,,,,,,,,,,,,0,,,78,0
787680,note_on,0,0,1,,,,,,,,,,,,,,,0,,,81,66
787680,note_on,0,0,1,,,,,,,,,,,,,,,0,,,78,56
787680,note_on,6,0,2,,,,,,,,,,,,,,,0,,,69,0
787680,note_on,0,0,1,,,,,,,,,,,,,,,0,,,71,0
787680,note_on,120,0,1,,,,,,,,,,,,,,,0,,,81,0
787680,note_on,0,0,1,,,,,,,,,,,,,,,0,,,72,56
787714,control_change,34,0,2,,,,,,,,,,,,,,,0,64,127,,
787730,set_tempo,80,1,0,,,,,,,,,,,,606919,,,,,,,
787800,note_on,0,0,2,,,,,,,,,,,,,,,0,,,69,34
787800,note_on,86,0,2,,,,,,,,,,,,,,,0,,,60,0
787850,set_tempo,120,1,0,,,,,,,,,,,,610190,,,,,,,
787920,note_on,0,0,2,,,,,,,,,,,,,,,0,,,66,34
787920,note_on,120,0,2,,,,,,,,,,,,,,,0,,,69,0
787930,set_tempo,80,1,0,,,,,,,,,,,,613434,,,,,,,
788010,set_tempo,80,1,0,,,,,,,,,,,,616776,,,,,,,
788040,note_on,0,0,2,,,,,,,,,,,,,,,0,,,69,34
788040,note_on,120,0,2,,,,,,,,,,,,,,,0,,,66,0
788040,note_on,360,0,1,,,,,,,,,,,,,,,0,,,81,0
788040,note_on,0,0,1,,,,,,,,,,,,,,,0,,,81,66
788040,note_on,0,0,1,,,,,,,,,,,,,,,0,,,78,56
788040,note_on,0,0,1,,,,,,,,,,,,,,,0,,,72,56
788040,note_on,0,0,1,,,,,,,,,,,,,,,0,,,72,0
788040,note_on,0,0,1,,,,,,,,,,,,,,,0,,,78,0
788090,set_tempo,80,1,0,,,,,,,,,,,,620155,,,,,,,
788149,control_change,109,0,2,,,,,,,,,,,,,,,0,64,0,,
788160,note_on,11,0,2,,,,,,,,,,,,,,,0,,,69,0
788160,note_on,0,0,2,,,,,,,,,,,,,,,0,,,61,41
788160,set_tempo,70,1,0,,,,,,,,,,,,637416,,,,,,,
788160,note_on,0,0,1,,,,,,,,,,,,,,,0,,,73,57
788160,note_on,0,0,1,,,,,,,,,,,,,,,0,,,81,67
788160,note_on,0,0,1,,,,,,,,,,,,,,,0,,,72,0
788160,note_on,0,0,1,,,,,,,,,,,,,,,0,,,78,57
788160,note_on,0,0,1,,,,,,,,,,,,,,,0,,,78,0
788160,note_on,120,0,1,,,,,,,,,,,,,,,0,,,81,0
788189,control_change,29,0,2,,,,,,,,,,,,,,,0,64,127,,
788280,note_on,0,0,2,,,,,,,,,,,,,,,0,,,69,35
788280,note_on,91,0,2,,,,,,,,,,,,,,,0,,,61,0
788400,note_on,0,0,2,,,,,,,,,,,,,,,0,,,66,35
788400,note_on,120,0,2,,,,,,,,,,,,,,,0,,,69,0
788520,note_on,360,0,1,,,,,,,,,,,,,,,0,,,81,0
788520,note_on,0,0,1,,,,,,,,,,,,,,,0,,,78,0
788520,note_on,0,0,1,,,,,,,,,,,,,,,0,,,73,0
788520,note_on,120,0,2,,,,,,,,,,,,,,,0,,,66,0
788520,note_on,0,0,2,,,,,,,,,,,,,,,0,,,69,36
788520,note_on,0,0,1,,,,,,,,,,,,,,,0,,,78,57
788520,note_on,0,0,1,,,,,,,,,,,,,,,0,,,81,67
788520,note_on,0,0,1,,,,,,,,,,,,,,,0,,,73,57
788629,control_change,109,0,2,,,,,,,,,,,,,,,0,64,0,,
788640,note_on,0,0,1,,,,,,,,,,,,,,,0,,,78,58
788640,note_on,0,0,1,,,,,,,,,,,,,,,0,,,81,69
788640,note_on,0,0,1,,,,,,,,,,,,,,,0,,,74,58
788640,note_on,120,0,1,,,,,,,,,,,,,,,0,,,81,0
788640,note_on,0,0,1,,,,,,,,,,,,,,,0,,,73,0
788640,note_on,11,0,2,,,,,,,,,,,,,,,0,,,69,0
788640,note_on,0,0,2,,,,,,,,,,,,,,,0,,,62,42
788640,note_on,0,0,1,,,,,,,,,,,,,,,0,,,78,0
788669,control_change,29,0,2,,,,,,,,,,,,,,,0,64,127,,
788760,note_on,91,0,2,,,,,,,,,,,,,,,0,,,62,0
788760,note_on,0,0,2,,,,,,,,,,,,,,,0,,,69,35
788880,note_on,120,0,2,,,,,,,,,,,,,,,0,,,69,0
788880,note_on,0,0,2,,,,,,,,,,,,,,,0,,,66,37
789000,note_on,0,0,2,,,,,,,,,,,,,,,0,,,69,37
789000,note_on,120,0,2,,,,,,,,,,,,,,,0,,,66,0
789120,note_on,0,0,1,,,,,,,,,,,,,,,0,,,74,0
789120,note_on,0,0,1,,,,,,,,,,,,,,,0,,,78,0
789120,note_on,480,0,1,,,,,,,,,,,,,,,0,,,81,0
789120,control_change,0,0,2,,,,,,,,,,,,,,,0,64,0,,
789120,note_on,120,0,2,,,,,,,,,,,,,,,0,,,69,0
789120,set_tempo,960,1,0,,,,,,,,,,,,648298,,,,,,,
789120,note_on,0,0,2,,,,,,,,,,,,,,,0,,,62,36
789120,note_on,0,0,1,,,,,,,,,,,,,,,0,,,81,59
789154,control_change,34,0,2,,,,,,,,,,,,,,,0,64,127,,
789240,note_on,86,0,2,,,,,,,,,,,,,,,0,,,62,0
789240,note_on,0,0,2,,,,,,,,,,,,,,,0,,,69,29
789360,note_on,0,0,2,,,,,,,,,,,,,,,0,,,66,29
789360,note_on,120,0,2,,,,,,,,,,,,,,,0,,,69,0
789480,note_on,120,0,2,,,,,,,,,,,,,,,0,,,66,0
789480,note_on,0,0,2,,,,,,,,,,,,,,,0,,,69,29
789600,note_on,120,0,2,,,,,,,,,,,,,,,0,,,69,0
789600,note_on,0,0,2,,,,,,,,,,,,,,,0,,,63,36
789600,set_tempo,480,1,0,,,,,,,,,,,,633914,,,,,,,
789720,note_on,0,0,2,,,,,,,,,,,,,,,0,,,69,30
789720,note_on,120,0,2,,,,,,,,,,,,,,,0,,,63,0
789840,note_on,0,0,2,,,,,,,,,,,,,,,0,,,66,30
789840,note_on,120,0,2,,,,,,,,,,,,,,,0,,,69,0
789960,note_on,120,0,2,,,,,,,,,,,,,,,0,,,66,0
789960,note_on,840,0,1,,,,,,,,,,,,,,,0,,,81,0
789960,note_on,0,0,1,,,,,,,,,,,,,,,0,,,79,56
789960,note_on,0,0,2,,,,,,,,,,,,,,,0,,,69,31
790080,note_on,120,0,2,,,,,,,,,,,,,,,0,,,69,0
790080,note_on,0,0,2,,,,,,,,,,,,,,,0,,,62,36
790080,note_on,120,0,1,,,,,,,,,,,,,,,0,,,79,0
790080,note_on,0,0,1,,,,,,,,,,,,,,,0,,,78,56
790114,control_change,34,0,2,,,,,,,,,,,,,,,0,64,0,,
790177,control_change,63,0,2,,,,,,,,,,,,,,,0,64,127,,
790200,note_on,23,0,2,,,,,,,,,,,,,,,0,,,62,0
790200,note_on,0,0,2,,,,,,,,,,,,,,,0,,,69,31
790320,note_on,0,0,2,,,,,,,,,,,,,,,0,,,66,31
790320,note_on,240,0,1,,,,,,,,,,,,,,,0,,,78,0
790320,note_on,120,0,2,,,,,,,,,,,,,,,0,,,69,0
790440,note_on,0,0,2,,,,,,,,,,,,,,,0,,,69,31
790440,note_on,120,0,2,,,,,,,,,,,,,,,0,,,66,0
790560,note_on,0,0,2,,,,,,,,,,,,,,,0,,,60,36
790560,control_change,0,0,2,,,,,,,,,,,,,,,0,64,0,,
790560,set_tempo,960,1,0,,,,,,,,,,,,648999,,,,,,,
790560,note_on,120,0,2,,,,,,,,,,,,,,,0,,,69,0
790560,note_on,240,0,1,,,,,,,,,,,,,,,0,,,78,57
790606,control_change,46,0,2,,,,,,,,,,,,,,,0,64,127,,
790680,note_on,0,0,2,,,,,,,,,,,,,,,0,,,69,31
790680,note_on,74,0,2,,,,,,,,,,,,,,,0,,,60,0
790800,note_on,120,0,2,,,,,,,,,,,,,,,0,,,69,0
790800,note_on,0,0,2,,,,,,,,,,,,,,,0,,,66,31
790920,note_on,0,0,2,,,,,,,,,,,,,,,0,,,69,31
790920,note_on,120,0,2,,,,,,,,,,,,,,,0,,,66,0
790920,set_tempo,360,1,0,,,,,,,,,,,,738825,,,,,,,
790980,note_on,420,0,1,,,,,,,,,,,,,,,0,,,81,49
790980,set_tempo,60,1,0,,,,,,,,,,,,538696,,,,,,,
791040,note_on,120,0,2,,,,,,,,,,,,,,,0,,,69,0
791040,note_on,60,0,1,,,,,,,,,,,,,,,0,,,81,0
791040,note_on,0,0,1,,,,,,,,,,,,,,,0,,,78,0
791040,note_on,0,0,1,,,,,,,,,,,,,,,0,,,79,60
791040,set_tempo,60,1,0,,,,,,,,,,,,616776,,,,,,,
791040,note_on,0,0,2,,,,,,,,,,,,,,,0,,,58,36
791040,control_change,0,0,2,,,,,,,,,,,,,,,0,64,0,,
791074,control_change,34,0,2,,,,,,,,,,,,,,,0,64,127,,
791160,note_on,120,0,1,,,,,,,,,,,,,,,0,,,79,0
791160,note_on,0,0,1,,,,,,,,,,,,,,,0,,,78,57
791160,note_on,86,0,2,,,,,,,,,,,,,,,0,,,58,0
791160,note_on,0,0,2,,,,,,,,,,,,,,,0,,,67,29
791280,note_on,120,0,2,,,,,,,,,,,,,,,0,,,67,0
791280,note_on,120,0,1,,,,,,,,,,,,,,,0,,,78,0
791280,note_on,0,0,1,,,,,,,,,,,,,,,0,,,79,57
791280,note_on,0,0,2,,,,,,,,,,,,,,,0,,,62,29
791400,note_on,120,0,2,,,,,,,,,,,,,,,0,,,62,0
791400,note_on,0,0,2,,,,,,,,,,,,,,,0,,,67,29
791400,note_on,0,0,1,,,,,,,,,,,,,,,0,,,81,57
791400,set_tempo,360,1,0,,,,,,,,,,,,744509,,,,,,,
791400,note_on,120,0,1,,,,,,,,,,,,,,,0,,,79,0
791460,note_on,60,0,1,,,,,,,,,,,,,,,0,,,84,49
791460,set_tempo,60,1,0,,,,,,,,,,,,541761,,,,,,,
791520,note_on,0,0,1,,,,,,,,,,,,,,,0,,,82,60
791520,note_on,0,0,1,,,,,,,,,,,,,,,0,,,81,0
791520,note_on,60,0,1,,,,,,,,,,,,,,,0,,,84,0
791520,set_tempo,60,1,0,,,,,,,,,,,,616776,,,,,,,
791520,control_change,0,0,2,,,,,,,,,,,,,,,0,64,0,,
791520,note_on,0,0,2,,,,,,,,,,,,,,,0,,,57,36
791520,note_on,120,0,2,,,,,,,,,,,,,,,0,,,67,0
791540,control_change,20,0,2,,,,,,,,,,,,,,,0,64,127,,
791640,note_on,100,0,2,,,,,,,,,,,,,,,0,,,57,0
791640,note_on,0,0,2,,,,,,,,,,,,,,,0,,,67,30
791640,note_on,120,0,1,,,,,,,,,,,,,,,0,,,82,0
791640,note_on,0,0,1,,,,,,,,,,,,,,,0,,,81,57
791760,note_on,120,0,1,,,,,,,,,,,,,,,0,,,81,0
791760,note_on,0,0,1,,,,,,,,,,,,,,,0,,,82,57
791760,note_on,0,0,2,,,,,,,,,,,,,,,0,,,60,30
791760,note_on,120,0,2,,,,,,,,,,,,,,,0,,,67,0
791880,note_on,120,0,2,,,,,,,,,,,,,,,0,,,60,0
791880,note_on,0,0,2,,,,,,,,,,,,,,,0,,,67,31
791880,note_on,120,0,1,,,,,,,,,,,,,,,0,,,82,0
791880,note_on,0,0,1,,,,,,,,,,,,,,,0,,,84,57
792000,note_on,120,0,2,,,,,,,,,,,,,,,0,,,67,0
792000,set_tempo,480,1,0,,,,,,,,,,,,633914,,,,,,,
792000,note_on,0,0,2,,,,,,,,,,,,,,,0,,,55,36
792000,note_on,120,0,1,,,,,,,,,,,,,,,0,,,84,0
792000,note_on,0,0,1,,,,,,,,,,,,,,,0,,,86,59
792034,control_change,34,0,2,,,,,,,,,,,,,,,0,64,0,,
792097,control_change,63,0,2,,,,,,,,,,,,,,,0,64,127,,
792120,note_on,0,0,2,,,,,,,,,,,,,,,0,,,67,31
792120,note_on,23,0,2,,,,,,,,,,,,,,,0,,,55,0
792240,note_on,120,0,2,,,,,,,,,,,,,,,0,,,67,0
792240,note_on,0,0,2,,,,,,,,,,,,,,,0,,,58,31
792240,note_on,240,0,1,,,,,,,,,,,,,,,0,,,86,0
792360,note_on,120,0,2,,,,,,,,,,,,,,,0,,,58,0
792360,note_on,0,0,2,,,,,,,,,,,,,,,0,,,67,31
792480,note_on,120,0,2,,,,,,,,,,,,,,,0,,,67,0
792480,note_on,0,0,2,,,,,,,,,,,,,,,0,,,58,36
792480,note_on,240,0,1,,,,,,,,,,,,,,,0,,,86,59
792500,control_change,20,0,2,,,,,,,,,,,,,,,0,64,0,,
792526,control_change,26,0,2,,,,,,,,,,,,,,,0,64,127,,
792600,note_on,74,0,2,,,,,,,,,,,,,,,0,,,58,0
792600,note_on,0,0,2,,,,,,,,,,,,,,,0,,,67,31
792720,note_on,240,0,1,,,,,,,,,,,,,,,0,,,86,0
792720,note_on,0,0,1,,,,,,,,,,,,,,,0,,,82,57
792720,note_on,120,0,2,,,,,,,,,,,,,,,0,,,67,0
792720,note_on,0,0,2,,,,,,,,,,,,,,,0,,,62,31
792840,note_on,120,0,2,,,,,,,,,,,,,,,0,,,62,0
792840,note_on,0,0,2,,,,,,,,,,,,,,,0,,,67,31
792960,note_on,0,0,2,,,,,,,,,,,,,,,0,,,62,36
792960,control_change,0,0,2,,,,,,,,,,,,,,,0,64,0,,
792960,note_on,120,0,2,,,,,,,,,,,,,,,0,,,67,0
792960,set_tempo,960,1,0,,,,,,,,,,,,644884,,,,,,,
792960,note_on,0,0,1,,,,,,,,,,,,,,,0,,,81,59
792960,note_on,240,0,1,,,,,,,,,,,,,,,0,,,82,0
792994,control_change,34,0,2,,,,,,,,,,,,,,,0,64,127,,
793080,note_on,86,0,2,,,,,,,,,,,,,,,0,,,62,0
793080,note_on,0,0,2,,,,,,,,,,,,,,,0,,,69,29
793200,note_on,120,0,2,,,,,,,,,,,,,,,0,,,69,0
793200,note_on,0,0,2,,,,,,,,,,,,,,,0,,,66,29
793320,note_on,120,0,2,,,,,,,,,,,,,,,0,,,66,0
793320,note_on,0,0,2,,,,,,,,,,,,,,,0,,,69,29
793440,note_on,0,0,2,,,,,,,,,,,,,,,0,,,63,36
793440,note_on,120,0,2,,,,,,,,,,,,,,,0,,,69,0
793440,set_tempo,480,1,0,,,,,,,,,,,,636807,,,,,,,
793560,note_on,0,0,2,,,,,,,,,,,,,,,0,,,69,30
793560,note_on,120,0,2,,,,,,,,,,,,,,,0,,,63,0
793680,note_on,120,0,2,,,,,,,,,,,,,,,0,,,69,0
793680,note_on,0,0,2,,,,,,,,,,,,,,,0,,,66,30
793800,note_on,120,0,2,,,,,,,,,,,,,,,0,,,66,0
793800,note_on,0,0,2,,,,,,,,,,,,,,,0,,,69,31
793800,note_on,840,0,1,,,,,,,,,,,,,,,0,,,81,0
793800,note_on,0,0,1,,,,,,,,,,,,,,,0,,,79,56
793920,note_on,120,0,2,,,,,,,,,,,,,,,0,,,69,0
793920,note_on,0,0,2,,,,,,,,,,,,,,,0,,,62,36
793920,note_on,120,0,1,,,,,,,,,,,,,,,0,,,79,0
793920,note_on,0,0,1,,,,,,,,,,,,,,,0,,,78,56
793954,control_change,34,0,2,,,,,,,,,,,,,,,0,64,0,,
794017,control_change,63,0,2,,,,,,,,,,,,,,,0,64,127,,
794040,note_on,23,0,2,,,,,,,,,,,,,,,0,,,62,0
794040,note_on,0,0,2,,,,,,,,,,,,,,,0,,,69,31
794160,note_on,120,0,2,,,,,,,,,,,,,,,0,,,69,0
794160,note_on,0,0,2,,,,,,,,,,,,,,,0,,,66,31
794160,note_on,240,0,1,,,,,,,,,,,,,,,0,,,78,0
794280,note_on,120,0,2,,,,,,,,,,,,,,,0,,,66,0
794280,note_on,0,0,2,,,,,,,,,,,,,,,0,,,69,31
794400,set_tempo,960,1,0,,,,,,,,,,,,668077,,,,,,,
794400,note_on,0,0,1,,,,,,,,,,,,,,,0,,,78,63
794400,note_on,240,0,1,,,,,,,,,,,,,,,0,,,90,63
794400,control_change,0,0,2,,,,,,,,,,,,,,,0,64,0,,
794400,note_on,120,0,2,,,,,,,,,,,,,,,0,,,69,0
794400,note_on,0,0,2,,,,,,,,,,,,,,,0,,,60,37
794446,control_change,46,0,2,,,,,,,,,,,,,,,0,64,127,,
794520,note_on,0,0,2,,,,,,,,,,,,,,,0,,,69,32
794520,note_on,74,0,2,,,,,,,,,,,,,,,0,,,60,0
794640,note_on,120,0,2,,,,,,,,,,,,,,,0,,,69,0
794640,note_on,0,0,2,,,,,,,,,,,,,,,0,,,66,32
794760,note_on,120,0,2,,,,,,,,,,,,,,,0,,,66,0
794760,note_on,0,0,2,,,,,,,,,,,,,,,0,,,69,32
794880,note_on,0,0,1,,,,,,,,,,,,,,,0,,,91,63
794880,note_on,0,0,1,,,,,,,,,,,,,,,0,,,79,63
794880,note_on,0,0,1,,,,,,,,,,,,,,,0,,,90,0
794880,note_on,480,0,1,,,,,,,,,,,,,,,0,,,78,0
794880,note_on,0,0,2,,,,,,,,,,,,,,,0,,,58,37
794880,key_signature,480,1,0,,,,,,,,,,,Bb,,,,,,,,
794880,note_on,120,0,2,,,,,,,,,,,,,,,0,,,69,0
794880,set_tempo,0,1,0,,,,,,,,,,,,640820,,,,,,,
794880,control_change,0,0,2,,,,,,,,,,,,,,,0,64,0,,
794920,set_tempo,40,1,0,,,,,,,,,,,,636807,,,,,,,
794979,control_change,99,0,2,,,,,,,,,,,,,,,0,64,127,,
795000,note_on,21,0,2,,,,,,,,,,,,,,,0,,,58,0
795000,note_on,0,0,2,,,,,,,,,,,,,,,0,,,70,31
795120,note_on,240,0,1,,,,,,,,,,,,,,,0,,,91,0
795120,note_on,0,0,1,,,,,,,,,,,,,,,0,,,94,64
795120,note_on,0,0,1,,,,,,,,,,,,,,,0,,,79,0
795120,note_on,0,0,2,,,,,,,,,,,,,,,0,,,67,32
795120,note_on,0,0,1,,,,,,,,,,,,,,,0,,,82,64
795120,note_on,120,0,2,,,,,,,,,,,,,,,0,,,70,0
795240,note_on,120,0,2,,,,,,,,,,,,,,,0,,,67,0
795240,set_tempo,320,1,0,,,,,,,,,,,,632845,,,,,,,
795240,note_on,0,0,2,,,,,,,,,,,,,,,0,,,70,32
795360,note_on,0,0,2,,,,,,,,,,,,,,,0,,,58,39
795360,note_on,0,0,1,,,,,,,,,,,,,,,0,,,96,64
795360,note_on,0,0,1,,,,,,,,,,,,,,,0,,,84,64
795360,note_on,0,0,1,,,,,,,,,,,,,,,0,,,82,0
795360,note_on,240,0,1,,,,,,,,,,,,,,,0,,,94,0
795360,note_on,120,0,2,,,,,,,,,,,,,,,0,,,70,0
795480,note_on,120,0,2,,,,,,,,,,,,,,,0,,,58,0
795480,note_on,0,0,2,,,,,,,,,,,,,,,0,,,70,34
795520,set_tempo,280,1,0,,,,,,,,,,,,628997,,,,,,,
795600,note_on,0,0,2,,,,,,,,,,,,,,,0,,,67,34
795600,note_on,120,0,2,,,,,,,,,,,,,,,0,,,70,0
795600,note_on,240,0,1,,,,,,,,,,,,,,,0,,,96,0
795600,note_on,0,0,1,,,,,,,,,,,,,,,0,,,84,0
795600,note_on,0,0,1,,,,,,,,,,,,,,,0,,,86,65
795600,note_on,0,0,1,,,,,,,,,,,,,,,0,,,98,65
795720,note_on,0,0,2,,,,,,,,,,,,,,,0,,,70,35
795720,note_on,120,0,2,,,,,,,,,,,,,,,0,,,67,0
795800,set_tempo,280,1,0,,,,,,,,,,,,625065,,,,,,,
795840,note_on,0,0,1,,,,,,,,,,,,,,,0,,,86,0
795840,note_on,0,0,2,,,,,,,,,,,,,,,0,,,58,42
795840,note_on,120,0,2,,,,,,,,,,,,,,,0,,,70,0
795840,note_on,0,0,1,,,,,,,,,,,,,,,0,,,99,66
795840,note_on,0,0,1,,,,,,,,,,,,,,,0,,,87,66
795840,note_on,240,0,1,,,,,,,,,,,,,,,0,,,98,0
795868,control_change,28,0,2,,,,,,,,,,,,,,,0,64,0,,
795925,control_change,57,0,2,,,,,,,,,,,,,,,0,64,127,,
795960,note_on,0,0,2,,,,,,,,,,,,,,,0,,,70,37
795960,note_on,35,0,2,,,,,,,,,,,,,,,0,,,58,0
796080,note_on,0,0,2,,,,,,,,,,,,,,,0,,,67,37
796080,note_on,120,0,2,,,,,,,,,,,,,,,0,,,70,0
796200,note_on,0,0,2,,,,,,,,,,,,,,,0,,,70,37
796200,note_on,120,0,2,,,,,,,,,,,,,,,0,,,67,0
796320,note_on,0,0,1,,,,,,,,,,,,,,,0,,,96,69
796320,note_on,0,0,1,,,,,,,,,,,,,,,0,,,84,69
796320,note_on,0,0,2,,,,,,,,,,,,,,,0,,,58,44
796320,note_on,0,0,1,,,,,,,,,,,,,,,0,,,87,0
796320,note_on,120,0,2,,,,,,,,,,,,,,,0,,,70,0
796320,note_on,480,0,1,,,,,,,,,,,,,,,0,,,99,0
796341,control_change,21,0,2,,,,,,,,,,,,,,,0,64,0,,
796391,control_change,50,0,2,,,,,,,,,,,,,,,0,64,127,,
796440,note_on,0,0,2,,,,,,,,,,,,,,,0,,,72,39
796440,note_on,49,0,2,,,,,,,,,,,,,,,0,,,58,0
796560,note_on,0,0,2,,,,,,,,,,,,,,,0,,,68,40
796560,note_on,120,0,2,,,,,,,,,,,,,,,0,,,72,0
796680,note_on,120,0,2,,,,,,,,,,,,,,,0,,,68,0
796680,note_on,0,0,2,,,,,,,,,,,,,,,0,,,72,40
796800,note_on,480,0,1,,,,,,,,,,,,,,,0,,,84,0
796800,note_on,120,0,2,,,,,,,,,,,,,,,0,,,72,0
796800,control_change,0,0,2,,,,,,,,,,,,,,,0,64,0,,
796800,note_on,0,0,2,,,,,,,,,,,,,,,0,,,58,48
796800,note_on,0,0,1,,,,,,,,,,,,,,,0,,,82,70
796800,note_on,0,0,1,,,,,,,,,,,,,,,0,,,96,0
796800,note_on,0,0,1,,,,,,,,,,,,,,,0,,,94,70
796864,control_change,64,0,2,,,,,,,,,,,,,,,0,64,127,,
796920,note_on,0,0,2,,,,,,,,,,,,,,,0,,,70,38
796920,note_on,56,0,2,,,,,,,,,,,,,,,0,,,58,0
797040,note_on,120,0,2,,,,,,,,,,,,,,,0,,,70,0
797040,note_on,0,0,2,,,,,,,,,,,,,,,0,,,67,38
797160,note_on,0,0,2,,,,,,,,,,,,,,,0,,,70,38
797160,note_on,120,0,2,,,,,,,,,,,,,,,0,,,67,0
797259,control_change,99,0,2,,,,,,,,,,,,,,,0,64,0,,
797280,note_on,0,0,2,,,,,,,,,,,,,,,0,,,58,47
797280,note_on,0,0,1,,,,,,,,,,,,,,,0,,,94,0
797280,note_on,0,0,1,,,,,,,,,,,,,,,0,,,92,69
797280,note_on,0,0,1,,,,,,,,,,,,,,,0,,,80,69
797280,note_on,21,0,2,,,,,,,,,,,,,,,0,,,70,0
797280,note_on,480,0,1,,,,,,,,,,,,,,,0,,,82,0
797301,control_change,21,0,2,,,,,,,,,,,,,,,0,64,127,,
797400,note_on,0,0,2,,,,,,,,,,,,,,,0,,,68,39
797400,note_on,99,0,2,,,,,,,,,,,,,,,0,,,58,0
797520,note_on,120,0,2,,,,,,,,,,,,,,,0,,,68,0
797520,note_on,0,0,2,,,,,,,,,,,,,,,0,,,65,39
797640,note_on,120,0,2,,,,,,,,,,,,,,,0,,,65,0
797640,note_on,0,0,2,,,,,,,,,,,,,,,0,,,68,39
797739,control_change,99,0,2,,,,,,,,,,,,,,,0,64,0,,
797760,note_on,0,0,1,,,,,,,,,,,,,,,0,,,79,66
797760,note_on,0,0,1,,,,,,,,,,,,,,,0,,,91,66
797760,note_on,0,0,1,,,,,,,,,,,,,,,0,,,92,0
797760,note_on,480,0,1,,,,,,,,,,,,,,,0,,,80,0
797760,note_on,0,0,2,,,,,,,,,,,,,,,0,,,58,42
797760,note_on,21,0,2,,,,,,,,,,,,,,,0,,,68,0
797795,control_change,35,0,2,,,,,,,,,,,,,,,0,64,127,,
797880,note_on,85,0,2,,,,,,,,,,,,,,,0,,,58,0
797880,note_on,0,0,2,,,,,,,,,,,,,,,0,,,67,36
798000,note_on,120,0,2,,,,,,,,,,,,,,,0,,,67,0
798000,note_on,0,0,2,,,,,,,,,,,,,,,0,,,63,36
798120,note_on,120,0,2,,,,,,,,,,,,,,,0,,,63,0
798120,note_on,0,0,2,,,,,,,,,,,,,,,0,,,67,37
798240,note_on,0,0,2,,,,,,,,,,,,,,,0,,,58,42
798240,control_change,0,0,2,,,,,,,,,,,,,,,0,64,0,,
798240,note_on,480,0,1,,,,,,,,,,,,,,,0,,,79,0
798240,note_on,0,0,1,,,,,,,,,,,,,,,0,,,91,0
798240,note_on,0,0,1,,,,,,,,,,,,,,,0,,,77,65
798240,note_on,120,0,2,,,,,,,,,,,,,,,0,,,67,0
798240,note_on,0,0,1,,,,,,,,,,,,,,,0,,,89,65
798304,control_change,64,0,2,,,,,,,,,,,,,,,0,64,127,,
798360,note_on,56,0,2,,,,,,,,,,,,,,,0,,,58,0
798360,note_on,0,0,2,,,,,,,,,,,,,,,0,,,65,35
798480,note_on,0,0,2,,,,,,,,,,,,,,,0,,,61,35
798480,note_on,120,0,2,,,,,,,,,,,,,,,0,,,65,0
798600,note_on,120,0,2,,,,,,,,,,,,,,,0,,,61,0
798600,note_on,0,0,2,,,,,,,,,,,,,,,0,,,65,35
798720,set_tempo,2920,1,0,,,,,,,,,,,,625065,,,,,,,
798720,note_on,0,0,1,,,,,,,,,,,,,,,0,,,88,61
798720,note_on,0,0,1,,,,,,,,,,,,,,,0,,,76,61
798720,note_on,480,0,1,,,,,,,,,,,,,,,0,,,77,0
798720,note_on,0,0,1,,,,,,,,,,,,,,,0,,,89,0
798720,note_on,0,0,2,,,,,,,,,,,,,,,0,,,58,35
798720,control_change,0,0,2,,,,,,,,,,,,,,,0,64,0,,
798720,note_on,120,0,2,,,,,,,,,,,,,,,0,,,65,0
798777,control_change,57,0,2,,,,,,,,,,,,,,,0,64,127,,
798840,note_on,63,0,2,,,,,,,,,,,,,,,0,,,58,0
798840,note_on,0,0,2,,,,,,,,,,,,,,,0,,,64,29
798960,note_on,120,0,2,,,,,,,,,,,,,,,0,,,64,0
798960,note_on,0,0,2,,,,,,,,,,,,,,,0,,,61,29
799080,note_on,0,0,2,,,,,,,,,,,,,,,0,,,64,29
799080,note_on,120,0,2,,,,,,,,,,,,,,,0,,,61,0
799160,set_tempo,440,1,0,,,,,,,,,,,,628997,,,,,,,
799200,note_on,120,0,2,,,,,,,,,,,,,,,0,,,64,0
799200,note_on,0,0,2,,,,,,,,,,,,,,,0,,,58,34
799320,note_on,120,0,2,,,,,,,,,,,,,,,0,,,58,0
799320,note_on,0,0,2,,,,,,,,,,,,,,,0,,,64,29
799440,note_on,120,0,2,,,,,,,,,,,,,,,0,,,64,0
799440,note_on,0,0,2,,,,,,,,,,,,,,,0,,,61,29
799560,note_on,120,0,2,,,,,,,,,,,,,,,0,,,61,0
799560,note_on,0,0,2,,,,,,,,,,,,,,,0,,,64,29
799600,set_tempo,440,1,0,,,,,,,,,,,,632845,,,,,,,
799680,note_on,120,0,2,,,,,,,,,,,,,,,0,,,64,0
799680,note_on,0,0,2,,,,,,,,,,,,,,,0,,,58,33
799800,note_on,120,0,2,,,,,,,,,,,,,,,0,,,58,0
799800,note_on,0,0,2,,,,,,,,,,,,,,,0,,,64,29
799920,note_on,120,0,2,,,,,,,,,,,,,,,0,,,64,0
799920,note_on,0,0,2,,,,,,,,,,,,,,,0,,,61,29
800040,note_on,120,0,2,,,,,,,,,,,,,,,0,,,61,0
800040,note_on,0,0,2,,,,,,,,,,,,,,,0,,,64,29
800040,set_tempo,440,1,0,,,,,,,,,,,,636807,,,,,,,
800160,note_on,120,0,2,,,,,,,,,,,,,,,0,,,64,0
800160,note_on,0,0,2,,,,,,,,,,,,,,,0,,,58,33
800280,note_on,120,0,2,,,,,,,,,,,,,,,0,,,58,0
800280,note_on,0,0,2,,,,,,,,,,,,,,,0,,,64,29
800400,note_on,120,0,2,,,,,,,,,,,,,,,0,,,64,0
800400,note_on,0,0,2,,,,,,,,,,,,,,,0,,,61,29
800480,set_tempo,440,1,0,,,,,,,,,,,,640820,,,,,,,
800520,note_on,120,0,2,,,,,,,,,,,,,,,0,,,61,0
800520,note_on,0,0,2,,,,,,,,,,,,,,,0,,,64,29
800640,control_change,0,0,2,,,,,,,,,,,,,,,0,64,0,,
800640,note_on,0,0,2,,,,,,,,,,,,,,,0,,,58,31
800640,note_on,120,0,2,,,,,,,,,,,,,,,0,,,64,0
800743,control_change,103,0,2,,,,,,,,,,,,,,,0,64,127,,
800760,note_on,0,0,2,,,,,,,,,,,,,,,0,,,64,27
800760,note_on,17,0,2,,,,,,,,,,,,,,,0,,,58,0
800880,note_on,2160,0,1,,,,,,,,,,,,,,,0,,,88,0
800880,note_on,0,0,2,,,,,,,,,,,,,,,0,,,61,27
800880,note_on,120,0,2,,,,,,,,,,,,,,,0,,,64,0
800880,note_on,0,0,1,,,,,,,,,,,,,,,0,,,76,0
800880,note_on,0,0,1,,,,,,,,,,,,,,,0,,,76,51
801000,note_on,0,0,2,,,,,,,,,,,,,,,0,,,64,27
801000,note_on,120,0,2,,,,,,,,,,,,,,,0,,,61,0
801120,note_on,0,0,2,,,,,,,,,,,,,,,0,,,58,32
801120,note_on,0,0,1,,,,,,,,,,,,,,,0,,,76,51
801120,note_on,120,0,2,,,,,,,,,,,,,,,0,,,64,0
801120,note_on,240,0,1,,,,,,,,,,,,,,,0,,,76,0
801240,note_on,0,0,2,,,,,,,,,,,,,,,0,,,64,27
801240,note_on,120,0,2,,,,,,,,,,,,,,,0,,,58,0
801360,note_on,240,0,1,,,,,,,,,,,,,,,0,,,76,0
801360,note_on,0,0,1,,,,,,,,,,,,,,,0,,,76,51
801360,note_on,120,0,2,,,,,,,,,,,,,,,0,,,64,0
801360,note_on,0,0,2,,,,,,,,,,,,,,,0,,,61,27
801480,note_on,120,0,2,,,,,,,,,,,,,,,0,,,61,0
801480,note_on,0,0,2,,,,,,,,,,,,,,,0,,,64,27
801589,control_change,109,0,2,,,,,,,,,,,,,,,0,64,0,,
801600,note_on,0,0,2,,,,,,,,,,,,,,,0,,,57,32
801600,note_on,11,0,2,,,,,,,,,,,,,,,0,,,64,0
801600,note_on,240,0,1,,,,,,,,,,,,,,,0,,,76,0
801600,note_on,0,0,1,,,,,,,,,,,,,,,0,,,76,50
801640,control_change,40,0,2,,,,,,,,,,,,,,,0,64,127,,
801720,note_on,80,0,2,,,,,,,,,,,,,,,0,,,57,0
801720,note_on,0,0,2,,,,,,,,,,,,,,,0,,,64,26
801840,note_on,0,0,1,,,,,,,,,,,,,,,0,,,76,50
801840,note_on,240,0,1,,,,,,,,,,,,,,,0,,,76,0
801840,note_on,120,0,2,,,,,,,,,,,,,,,0,,,64,0
801840,note_on,0,0,2,,,,,,,,,,,,,,,0,,,61,26
801960,note_on,120,0,2,,,,,,,,,,,,,,,0,,,61,0
801960,note_on,0,0,2,,,,,,,,,,,,,,,0,,,64,26
802069,control_change,109,0,2,,,,,,,,,,,,,,,0,64,0,,
802080,note_on,0,0,1,,,,,,,,,,,,,,,0,,,76,50
802080,note_on,11,0,2,,,,,,,,,,,,,,,0,,,64,0
802080,note_on,0,0,2,,,,,,,,,,,,,,,0,,,55,31
802080,note_on,240,0,1,,,,,,,,,,,,,,,0,,,76,0
802126,control_change,46,0,2,,,,,,,,,,,,,,,0,64,127,,
802200,note_on,0,0,2,,,,,,,,,,,,,,,0,,,64,26
802200,note_on,74,0,2,,,,,,,,,,,,,,,0,,,55,0
802320,note_on,240,0,1,,,,,,,,,,,,,,,0,,,76,0
802320,note_on,120,0,2,,,,,,,,,,,,,,,0,,,64,0
802320,note_on,0,0,2,,,,,,,,,,,,,,,0,,,61,26
802320,note_on,0,0,1,,,,,,,,,,,,,,,0,,,76,50
802440,note_on,120,0,2,,,,,,,,,,,,,,,0,,,61,0
802440,note_on,0,0,2,,,,,,,,,,,,,,,0,,,64,26
802560,note_on,240,0,1,,,,,,,,,,,,,,,0,,,76,0
802560,set_tempo,2080,1,0,,,,,,,,,,,,616776,,,,,,,
802560,note_on,0,0,1,,,,,,,,,,,,,,,0,,,77,53
802560,note_on,120,0,2,,,,,,,,,,,,,,,0,,,64,0
802560,control_change,0,0,2,,,,,,,,,,,,,,,0,64,0,,
802560,note_on,0,0,2,,,,,,,,,,,,,,,0,,,53,31
802629,control_change,69,0,2,,,,,,,,,,,,,,,0,64,127,,
802680,note_on,0,0,2,,,,,,,,,,,,,,,0,,,65,24
802680,note_on,51,0,2,,,,,,,,,,,,,,,0,,,53,0
802800,note_on,120,0,2,,,,,,,,,,,,,,,0,,,65,0
802800,note_on,0,0,2,,,,,,,,,,,,,,,0,,,62,24
802920,note_on,0,0,2,,,,,,,,,,,,,,,0,,,65,24
802920,note_on,120,0,2,,,,,,,,,,,,,,,0,,,62,0
803040,set_tempo,480,1,0,,,,,,,,,,,,636807,,,,,,,
803040,note_on,0,0,2,,,,,,,,,,,,,,,0,,,53,30
803040,note_on,120,0,2,,,,,,,,,,,,,,,0,,,65,0
803160,note_on,0,0,2,,,,,,,,,,,,,,,0,,,67,25
803160,note_on,120,0,2,,,,,,,,,,,,,,,0,,,53,0
803280,note_on,0,0,2,,,,,,,,,,,,,,,0,,,63,25
803280,note_on,120,0,2,,,,,,,,,,,,,,,0,,,67,0
803400,note_on,120,0,2,,,,,,,,,,,,,,,0,,,63,0
803400,note_on,840,0,1,,,,,,,,,,,,,,,0,,,77,0
803400,note_on,0,0,1,,,,,,,,,,,,,,,0,,,79,47
803400,note_on,0,0,2,,,,,,,,,,,,,,,0,,,67,26
803520,note_on,120,0,2,,,,,,,,,,,,,,,0,,,67,0
803520,note_on,0,0,1,,,,,,,,,,,,,,,0,,,77,52
803520,note_on,0,0,2,,,,,,,,,,,,,,,0,,,53,29
803520,note_on,120,0,1,,,,,,,,,,,,,,,0,,,79,0
803554,control_change,34,0,2,,,,,,,,,,,,,,,0,64,0,,
803617,control_change,63,0,2,,,,,,,,,,,,,,,0,64,127,,
803640,note_on,0,0,2,,,,,,,,,,,,,,,0,,,65,26
803640,note_on,23,0,2,,,,,,,,,,,,,,,0,,,53,0
803760,note_on,120,0,2,,,,,,,,,,,,,,,0,,,65,0
803760,note_on,240,0,1,,,,,,,,,,,,,,,0,,,77,0
803760,note_on,0,0,2,,,,,,,,,,,,,,,0,,,62,26
803880,note_on,0,0,2,,,,,,,,,,,,,,,0,,,65,26
803880,note_on,120,0,2,,,,,,,,,,,,,,,0,,,62,0
804000,note_on,240,0,1,,,,,,,,,,,,,,,0,,,82,49
804000,note_on,0,0,2,,,,,,,,,,,,,,,0,,,53,30
804000,note_on,120,0,2,,,,,,,,,,,,,,,0,,,65,0
804000,control_change,0,0,2,,,,,,,,,,,,,,,0,64,0,,
804000,set_tempo,960,1,0,,,,,,,,,,,,582298,,,,,,,
804020,control_change,20,0,2,,,,,,,,,,,,,,,0,64,127,,
804040,set_tempo,40,1,0,,,,,,,,,,,,575595,,,,,,,
804060,note_on,0,0,1,,,,,,,,,,,,,,,0,,,84,43
804060,note_on,60,0,1,,,,,,,,,,,,,,,0,,,82,0
804080,set_tempo,40,1,0,,,,,,,,,,,,569206,,,,,,,
804120,note_on,60,0,1,,,,,,,,,,,,,,,0,,,84,0
804120,set_tempo,40,1,0,,,,,,,,,,,,562957,,,,,,,
804120,note_on,100,0,2,,,,,,,,,,,,,,,0,,,53,0
804120,note_on,0,0,2,,,,,,,,,,,,,,,0,,,67,26
804120,note_on,0,0,1,,,,,,,,,,,,,,,0,,,82,44
804160,set_tempo,40,1,0,,,,,,,,,,,,556793,,,,,,,
804180,note_on,60,0,1,,,,,,,,,,,,,,,0,,,82,0
804180,note_on,0,0,1,,,,,,,,,,,,,,,0,,,84,44
804200,set_tempo,40,1,0,,,,,,,,,,,,547795,,,,,,,
804240,note_on,0,0,2,,,,,,,,,,,,,,,0,,,63,26
804240,note_on,120,0,2,,,,,,,,,,,,,,,0,,,67,0
804240,note_on,60,0,1,,,,,,,,,,,,,,,0,,,84,0
804240,note_on,0,0,1,,,,,,,,,,,,,,,0,,,82,44
804300,note_on,60,0,1,,,,,,,,,,,,,,,0,,,82,0
804300,note_on,0,0,1,,,,,,,,,,,,,,,0,,,84,46
804344,set_tempo,144,1,0,,,,,,,,,,,,543380,,,,,,,
804360,set_tempo,16,1,0,,,,,,,,,,,,559336,,,,,,,
804360,note_on,120,0,2,,,,,,,,,,,,,,,0,,,63,0
804360,note_on,0,0,2,,,,,,,,,,,,,,,0,,,67,26
804360,note_on,0,0,1,,,,,,,,,,,,,,,0,,,81,51
804360,note_on,60,0,1,,,,,,,,,,,,,,,0,,,84,0
804372,set_tempo,12,1,0,,,,,,,,,,,,576258,,,,,,,
804384,set_tempo,12,1,0,,,,,,,,,,,,594295,,,,,,,
804400,set_tempo,16,1,0,,,,,,,,,,,,616776,,,,,,,
804412,set_tempo,12,1,0,,,,,,,,,,,,637416,,,,,,,
804420,note_on,60,0,1,,,,,,,,,,,,,,,0,,,81,0
804420,note_on,0,0,1,,,,,,,,,,,,,,,0,,,82,44
804424,set_tempo,12,1,0,,,,,,,,,,,,659631,,,,,,,
804440,set_tempo,16,1,0,,,,,,,,,,,,683293,,,,,,,
804452,set_tempo,12,1,0,,,,,,,,,,,,713182,,,,,,,
804480,note_on,60,0,1,,,,,,,,,,,,,,,0,,,82,0
804480,note_on,0,0,1,,,,,,,,,,,,,,,0,,,74,52
804480,note_on,0,0,1,,,,,,,,,,,,,,,0,,,86,67
804480,set_tempo,28,1,0,,,,,,,,,,,,620155,,,,,,,
804480,note_on,0,0,2,,,,,,,,,,,,,,,0,,,53,31
804480,control_change,0,0,2,,,,,,,,,,,,,,,0,64,0,,
804480,note_on,120,0,2,,,,,,,,,,,,,,,0,,,67,0
804593,control_change,113,0,2,,,,,,,,,,,,,,,0,64,127,,
804600,note_on,0,0,2,,,,,,,,,,,,,,,0,,,65,24
804600,note_on,7,0,2,,,,,,,,,,,,,,,0,,,53,0
804720,note_on,120,0,2,,,,,,,,,,,,,,,0,,,65,0
804720,note_on,0,0,2,,,,,,,,,,,,,,,0,,,62,24
804840,note_on,120,0,2,,,,,,,,,,,,,,,0,,,62,0
804840,note_on,0,0,2,,,,,,,,,,,,,,,0,,,65,24
804960,note_on,120,0,2,,,,,,,,,,,,,,,0,,,65,0
804960,note_on,0,0,2,,,,,,,,,,,,,,,0,,,53,30
804960,set_tempo,480,1,0,,,,,,,,,,,,636807,,,,,,,
805080,note_on,0,0,2,,,,,,,,,,,,,,,0,,,67,25
805080,note_on,120,0,2,,,,,,,,,,,,,,,0,,,53,0
805200,note_on,120,0,2,,,,,,,,,,,,,,,0,,,67,0
805200,note_on,0,0,2,,,,,,,,,,,,,,,0,,,63,25
805320,note_on,840,0,1,,,,,,,,,,,,,,,0,,,74,0
805320,note_on,120,0,2,,,,,,,,,,,,,,,0,,,63,0
805320,note_on,0,0,2,,,,,,,,,,,,,,,0,,,67,26
805320,note_on,0,0,1,,,,,,,,,,,,,,,0,,,86,0
805320,note_on,0,0,1,,,,,,,,,,,,,,,0,,,84,57
805320,note_on,0,0,1,,,,,,,,,,,,,,,0,,,72,46
805440,note_on,0,0,1,,,,,,,,,,,,,,,0,,,70,49
805440,note_on,0,0,2,,,,,,,,,,,,,,,0,,,53,29
805440,note_on,120,0,2,,,,,,,,,,,,,,,0,,,67,0
805440,note_on,0,0,1,,,,,,,,,,,,,,,0,,,82,60
805440,note_on,0,0,1,,,,,,,,,,,,,,,0,,,72,0
805440,note_on,120,0,1,,,,,,,,,,,,,,,0,,,84,0
805474,control_change,34,0,2,,,,,,,,,,,,,,,0,64,0,,
805537,control_change,63,0,2,,,,,,,,,,,,,,,0,64,127,,
805560,note_on,0,0,2,,,,,,,,,,,,,,,0,,,65,26
805560,note_on,23,0,2,,,,,,,,,,,,,,,0,,,53,0
805680,note_on,240,0,1,,,,,,,,,,,,,,,0,,,82,0
805680,note_on,0,0,2,,,,,,,,,,,,,,,0,,,62,26
805680,note_on,0,0,1,,,,,,,,,,,,,,,0,,,70,0
805680,note_on,120,0,2,,,,,,,,,,,,,,,0,,,65,0
805800,note_on,0,0,2,,,,,,,,,,,,,,,0,,,65,26
805800,note_on,120,0,2,,,,,,,,,,,,,,,0,,,62,0
805920,note_on,240,0,1,,,,,,,,,,,,,,,0,,,79,54
805920,set_tempo,960,1,0,,,,,,,,,,,,648999,,,,,,,
805920,note_on,0,0,2,,,,,,,,,,,,,,,0,,,53,30
805920,control_change,0,0,2,,,,,,,,,,,,,,,0,64,0,,
805920,note_on,120,0,2,,,,,,,,,,,,,,,0,,,65,0
805966,control_change,46,0,2,,,,,,,,,,,,,,,0,64,127,,
806040,note_on,0,0,2,,,,,,,,,,,,,,,0,,,67,26
806040,note_on,74,0,2,,,,,,,,,,,,,,,0,,,53,0
806160,note_on,0,0,2,,,,,,,,,,,,,,,0,,,63,26
806160,note_on,120,0,2,,,,,,,,,,,,,,,0,,,67,0
806280,note_on,0,0,2,,,,,,,,,,,,,,,0,,,67,26
806280,note_on,120,0,2,,,,,,,,,,,,,,,0,,,63,0
806400,note_on,0,0,1,,,,,,,,,,,,,,,0,,,77,58
806400,note_on,480,0,1,,,,,,,,,,,,,,,0,,,79,0
806400,set_tempo,480,1,0,,,,,,,,,,,,644884,,,,,,,
806400,note_on,120,0,2,,,,,,,,,,,,,,,0,,,67,0
806400,note_on,0,0,2,,,,,,,,,,,,,,,0,,,53,31
806400,control_change,0,0,2,,,,,,,,,,,,,,,0,64,0,,
806469,control_change,69,0,2,,,,,,,,,,,,,,,0,64,127,,
806520,note_on,0,0,2,,,,,,,,,,,,,,,0,,,65,24
806520,note_on,51,0,2,,,,,,,,,,,,,,,0,,,53,0
806640,note_on,120,0,2,,,,,,,,,,,,,,,0,,,65,0
806640,note_on,0,0,2,,,,,,,,,,,,,,,0,,,62,24
806760,note_on,120,0,2,,,,,,,,,,,,,,,0,,,62,0
806760,note_on,0,0,2,,,,,,,,,,,,,,,0,,,65,24
806880,note_on,120,0,2,,,,,,,,,,,,,,,0,,,65,0
806880,note_on,0,0,2,,,,,,,,,,,,,,,0,,,53,30
806880,set_tempo,480,1,0,,,,,,,,,,,,636807,,,,,,,
807000,note_on,120,0,2,,,,,,,,,,,,,,,0,,,53,0
807000,note_on,0,0,2,,,,,,,,,,,,,,,0,,,67,26
807120,note_on,120,0,2,,,,,,,,,,,,,,,0,,,67,0
807120,note_on,0,0,2,,,,,,,,,,,,,,,0,,,63,26
807240,note_on,0,0,1,,,,,,,,,,,,,,,0,,,79,53
807240,note_on,840,0,1,,,,,,,,,,,,,,,0,,,77,0
807240,note_on,120,0,2,,,,,,,,,,,,,,,0,,,63,0
807240,note_on,0,0,2,,,,,,,,,,,,,,,0,,,67,27
807360,note_on,0,0,2,,,,,,,,,,,,,,,0,,,53,30
807360,note_on,0,0,1,,,,,,,,,,,,,,,0,,,77,60
807360,note_on,120,0,2,,,,,,,,,,,,,,,0,,,67,0
807360,note_on,120,0,1,,,,,,,,,,,,,,,0,,,79,0
807394,control_change,34,0,2,,,,,,,,,,,,,,,0,64,0,,
807457,control_change,63,0,2,,,,,,,,,,,,,,,0,64,127,,
807480,note_on,0,0,2,,,,,,,,,,,,,,,0,,,65,27
807480,note_on,23,0,2,,,,,,,,,,,,,,,0,,,53,0
807600,note_on,0,0,2,,,,,,,,,,,,,,,0,,,62,28
807600,note_on,120,0,2,,,,,,,,,,,,,,,0,,,65,0
807600,note_on,240,0,1,,,,,,,,,,,,,,,0,,,77,0
807720,note_on,0,0,2,,,,,,,,,,,,,,,0,,,65,28
807720,note_on,120,0,2,,,,,,,,,,,,,,,0,,,62,0
807840,note_on,120,0,2,,,,,,,,,,,,,,,0,,,65,0
807840,control_change,0,0,2,,,,,,,,,,,,,,,0,64,0,,
807840,note_on,240,0,1,,,,,,,,,,,,,,,0,,,82,53
807840,set_tempo,960,1,0,,,,,,,,,,,,582298,,,,,,,
807840,note_on,0,0,2,,,,,,,,,,,,,,,0,,,53,33
807860,control_change,20,0,2,,,,,,,,,,,,,,,0,64,127,,
807880,set_tempo,40,1,0,,,,,,,,,,,,575595,,,,,,,
807900,note_on,0,0,1,,,,,,,,,,,,,,,0,,,84,47
807900,note_on,60,0,1,,,,,,,,,,,,,,,0,,,82,0
807920,set_tempo,40,1,0,,,,,,,,,,,,569206,,,,,,,
807960,set_tempo,40,1,0,,,,,,,,,,,,559858,,,,,,,
807960,note_on,0,0,1,,,,,,,,,,,,,,,0,,,82,48
807960,note_on,60,0,1,,,,,,,,,,,,,,,0,,,84,0
807960,note_on,100,0,2,,,,,,,,,,,,,,,0,,,53,0
807960,note_on,0,0,2,,,,,,,,,,,,,,,0,,,67,28
808000,set_tempo,40,1,0,,,,,,,,,,,,553812,,,,,,,
808020,note_on,0,0,1,,,,,,,,,,,,,,,0,,,84,48
808020,note_on,60,0,1,,,,,,,,,,,,,,,0,,,82,0
808040,set_tempo,40,1,0,,,,,,,,,,,,544910,,,,,,,
808080,note_on,0,0,1,,,,,,,,,,,,,,,0,,,82,48
808080,note_on,60,0,1,,,,,,,,,,,,,,,0,,,84,0
808080,note_on,0,0,2,,,,,,,,,,,,,,,0,,,63,28
808080,note_on,120,0,2,,,,,,,,,,,,,,,0,,,67,0
808140,note_on,0,0,1,,,,,,,,,,,,,,,0,,,84,50
808140,note_on,60,0,1,,,,,,,,,,,,,,,0,,,82,0
808200,set_tempo,160,1,0,,,,,,,,,,,,545951,,,,,,,
808200,note_on,120,0,2,,,,,,,,,,,,,,,0,,,63,0
808200,note_on,60,0,1,,,,,,,,,,,,,,,0,,,84,0
808200,note_on,0,0,1,,,,,,,,,,,,,,,0,,,81,55
808200,note_on,0,0,2,,,,,,,,,,,,,,,0,,,67,28
808212,set_tempo,12,1,0,,,,,,,,,,,,567698,,,,,,,
808224,set_tempo,12,1,0,,,,,,,,,,,,591250,,,,,,,
808240,set_tempo,16,1,0,,,,,,,,,,,,620155,,,,,,,
808252,set_tempo,12,1,0,,,,,,,,,,,,648298,,,,,,,
808260,note_on,60,0,1,,,,,,,,,,,,,,,0,,,81,0
808260,note_on,0,0,1,,,,,,,,,,,,,,,0,,,82,48
808264,set_tempo,12,1,0,,,,,,,,,,,,679194,,,,,,,
808280,set_tempo,16,1,0,,,,,,,,,,,,717618,,,,,,,
808320,set_tempo,40,1,0,,,,,,,,,,,,620155,,,,,,,
808320,note_on,0,0,1,,,,,,,,,,,,,,,0,,,74,63
808320,note_on,60,0,1,,,,,,,,,,,,,,,0,,,82,0
808320,note_on,0,0,1,,,,,,,,,,,,,,,0,,,86,69
808320,note_on,120,0,2,,,,,,,,,,,,,,,0,,,67,0
808320,control_change,0,0,2,,,,,,,,,,,,,,,0,64,0,,
808320,note_on,0,0,2,,,,,,,,,,,,,,,0,,,53,34
808384,control_change,64,0,2,,,,,,,,,,,,,,,0,64,127,,
808440,note_on,56,0,2,,,,,,,,,,,,,,,0,,,53,0
808440,note_on,0,0,2,,,,,,,,,,,,,,,0,,,65,26
808560,note_on,120,0,2,,,,,,,,,,,,,,,0,,,65,0
808560,note_on,0,0,2,,,,,,,,,,,,,,,0,,,62,26
808680,note_on,120,0,2,,,,,,,,,,,,,,,0,,,62,0
808680,note_on,0,0,2,,,,,,,,,,,,,,,0,,,65,26
808800,note_on,0,0,2,,,,,,,,,,,,,,,0,,,53,33
808800,note_on,120,0,2,,,,,,,,,,,,,,,0,,,65,0
808800,set_tempo,480,1,0,,,,,,,,,,,,636807,,,,,,,
808920,note_on,120,0,2,,,,,,,,,,,,,,,0,,,53,0
808920,note_on,0,0,2,,,,,,,,,,,,,,,0,,,67,27
809040,note_on,120,0,2,,,,,,,,,,,,,,,0,,,67,0
809040,note_on,0,0,2,,,,,,,,,,,,,,,0,,,63,27
809160,note_on,0,0,1,,,,,,,,,,,,,,,0,,,72,62
809160,note_on,0,0,1,,,,,,,,,,,,,,,0,,,86,0
809160,note_on,840,0,1,,,,,,,,,,,,,,,0,,,74,0
809160,note_on,0,0,1,,,,,,,,,,,,,,,0,,,84,62
809160,note_on,0,0,2,,,,,,,,,,,,,,,0,,,67,28
809160,note_on,120,0,2,,,,,,,,,,,,,,,0,,,63,0
809280,note_on,0,0,2,,,,,,,,,,,,,,,0,,,53,31
809280,note_on,120,0,1,,,,,,,,,,,,,,,0,,,84,0
809280,note_on,0,0,1,,,,,,,,,,,,,,,0,,,72,0
809280,note_on,0,0,1,,,,,,,,,,,,,,,0,,,70,67
809280,note_on,0,0,1,,,,,,,,,,,,,,,0,,,82,67
809280,note_on,120,0,2,,,,,,,,,,,,,,,0,,,67,0
809314,control_change,34,0,2,,,,,,,,,,,,,,,0,64,0,,
809377,control_change,63,0,2,,,,,,,,,,,,,,,0,64,127,,
809400,note_on,23,0,2,,,,,,,,,,,,,,,0,,,53,0
809400,note_on,0,0,2,,,,,,,,,,,,,,,0,,,65,28
809520,note_on,240,0,1,,,,,,,,,,,,,,,0,,,82,0
809520,note_on,0,0,1,,,,,,,,,,,,,,,0,,,70,0
809520,note_on,0,0,2,,,,,,,,,,,,,,,0,,,62,28
809520,note_on,120,0,2,,,,,,,,,,,,,,,0,,,65,0
809640,note_on,0,0,2,,,,,,,,,,,,,,,0,,,65,28
809640,note_on,120,0,2,,,,,,,,,,,,,,,0,,,62,0
809760,note_on,0,0,1,,,,,,,,,,,,,,,0,,,75,69
809760,note_on,0,0,1,,,,,,,,,,,,,,,0,,,79,69
809760,set_tempo,960,1,0,,,,,,,,,,,,653168,,,,,,,
809760,note_on,120,0,2,,,,,,,,,,,,,,,0,,,65,0
809760,note_on,240,0,1,,,,,,,,,,,,,,,0,,,70,48
809760,note_on,0,0,2,,,,,,,,,,,,,,,0,,,53,36
809760,control_change,0,0,2,,,,,,,,,,,,,,,0,64,0,,
809806,control_change,46,0,2,,,,,,,,,,,,,,,0,64,127,,
809880,note_on,0,0,2,,,,,,,,,,,,,,,0,,,67,30
809880,note_on,74,0,2,,,,,,,,,,,,,,,0,,,53,0
810000,note_on,0,0,2,,,,,,,,,,,,,,,0,,,63,30
810000,note_on,120,0,2,,,,,,,,,,,,,,,0,,,67,0
810120,note_on,120,0,2,,,,,,,,,,,,,,,0,,,63,0
810120,note_on,0,0,2,,,,,,,,,,,,,,,0,,,67,30
810240,set_tempo,480,1,0,,,,,,,,,,,,636807,,,,,,,
810240,note_on,0,0,2,,,,,,,,,,,,,,,0,,,53,42
810240,note_on,480,0,1,,,,,,,,,,,,,,,0,,,79,0
810240,control_change,0,0,2,,,,,,,,,,,,,,,0,64,0,,
810240,note_on,0,0,1,,,,,,,,,,,,,,,0,,,77,69
810240,note_on,0,0,1,,,,,,,,,,,,,,,0,,,74,69
810240,note_on,120,0,2,,,,,,,,,,,,,,,0,,,67,0
810240,note_on,0,0,1,,,,,,,,,,,,,,,0,,,70,0
810240,note_on,0,0,1,,,,,,,,,,,,,,,0,,,75,0
810240,note_on,0,0,1,,,,,,,,,,,,,,,0,,,70,58
810289,control_change,49,0,2,,,,,,,,,,,,,,,0,64,127,,
810360,note_on,0,0,2,,,,,,,,,,,,,,,0,,,65,35
810360,note_on,71,0,2,,,,,,,,,,,,,,,0,,,53,0
810480,note_on,120,0,2,,,,,,,,,,,,,,,0,,,65,0
810480,note_on,0,0,2,,,,,,,,,,,,,,,0,,,62,35
810600,note_on,120,0,2,,,,,,,,,,,,,,,0,,,62,0
810600,note_on,0,0,2,,,,,,,,,,,,,,,0,,,65,35
810720,control_change,0,0,2,,,,,,,,,,,,,,,0,64,0,,
810720,note_on,120,0,2,,,,,,,,,,,,,,,0,,,65,0
810720,note_on,0,0,2,,,,,,,,,,,,,,,0,,,53,44
810720,note_on,0,0,1,,,,,,,,,,,,,,,0,,,79,72
810720,note_on,480,0,1,,,,,,,,,,,,,,,0,,,77,0
810720,note_on,0,0,1,,,,,,,,,,,,,,,0,,,74,0
810720,note_on,0,0,1,,,,,,,,,,,,,,,0,,,70,0
810720,note_on,0,0,1,,,,,,,,,,,,,,,0,,,70,61
810720,set_tempo,480,1,0,,,,,,,,,,,,628997,,,,,,,
810720,note_on,0,0,1,,,,,,,,,,,,,,,0,,,75,72
810769,control_change,49,0,2,,,,,,,,,,,,,,,0,64,127,,
810840,note_on,0,0,2,,,,,,,,,,,,,,,0,,,67,37
810840,note_on,71,0,2,,,,,,,,,,,,,,,0,,,53,0
810960,note_on,0,0,2,,,,,,,,,,,,,,,0,,,63,38
810960,note_on,120,0,2,,,,,,,,,,,,,,,0,,,67,0
811080,note_on,0,0,2,,,,,,,,,,,,,,,0,,,67,37
811080,note_on,120,0,2,,,,,,,,,,,,,,,0,,,63,0
811200,note_on,480,0,1,,,,,,,,,,,,,,,0,,,79,0
811200,note_on,0,0,1,,,,,,,,,,,,,,,0,,,75,0
811200,note_on,0,0,1,,,,,,,,,,,,,,,0,,,70,0
811200,note_on,0,0,1,,,,,,,,,,,,,,,0,,,74,62
811200,note_on,0,0,1,,,,,,,,,,,,,,,0,,,82,74
811200,note_on,120,0,2,,,,,,,,,,,,,,,0,,,67,0
811200,control_change,0,0,2,,,,,,,,,,,,,,,0,64,0,,
811200,note_on,0,0,2,,,,,,,,,,,,,,,0,,,53,47
811200,note_on,0,0,1,,,,,,,,,,,,,,,0,,,70,62
811200,note_on,0,0,1,,,,,,,,,,,,,,,0,,,77,74
811264,control_change,64,0,2,,,,,,,,,,,,,,,0,64,127,,
811320,note_on,56,0,2,,,,,,,,,,,,,,,0,,,53,0
811320,note_on,0,0,2,,,,,,,,,,,,,,,0,,,65,37
811440,note_on,0,0,2,,,,,,,,,,,,,,,0,,,62,38
811440,note_on,120,0,2,,,,,,,,,,,,,,,0,,,65,0
811560,note_on,120,0,2,,,,,,,,,,,,,,,0,,,62,0
811560,note_on,0,0,2,,,,,,,,,,,,,,,0,,,65,38
811680,note_on,120,0,2,,,,,,,,,,,,,,,0,,,65,0
811680,control_change,0,0,2,,,,,,,,,,,,,,,0,64,0,,
811680,set_tempo,960,1,0,,,,,,,,,,,,661667,,,,,,,
811680,note_on,0,0,1,,,,,,,,,,,,,,,0,,,84,78
811680,note_on,0,0,1,,,,,,,,,,,,,,,0,,,81,78
811680,note_on,0,0,1,,,,,,,,,,,,,,,0,,,77,66
811680,note_on,0,0,1,,,,,,,,,,,,,,,0,,,72,66
811680,note_on,0,0,1,,,,,,,,,,,,,,,0,,,77,0
811680,note_on,0,0,1,,,,,,,,,,,,,,,0,,,74,0
811680,note_on,0,0,1,,,,,,,,,,,,,,,0,,,70,0
811680,note_on,480,0,1,,,,,,,,,,,,,,,0,,,82,0
811680,note_on,0,0,2,,,,,,,,,,,,,,,0,,,53,49
811729,control_change,49,0,2,,,,,,,,,,,,,,,0,64,127,,
811800,note_on,71,0,2,,,,,,,,,,,,,,,0,,,53,0
811800,note_on,0,0,2,,,,,,,,,,,,,,,0,,,65,40
811920,note_on,120,0,2,,,,,,,,,,,,,,,0,,,65,0
811920,note_on,0,0,2,,,,,,,,,,,,,,,0,,,63,40
812040,note_on,0,0,2,,,,,,,,,,,,,,,0,,,65,40
812040,note_on,120,0,2,,,,,,,,,,,,,,,0,,,63,0
812160,note_on,0,0,1,,,,,,,,,,,,,,,0,,,77,0
812160,note_on,0,0,1,,,,,,,,,,,,,,,0,,,84,75
812160,note_on,0,0,1,,,,,,,,,,,,,,,0,,,81,75
812160,note_on,0,0,1,,,,,,,,,,,,,,,0,,,77,63
812160,note_on,0,0,1,,,,,,,,,,,,,,,0,,,72,63
812160,note_on,0,0,1,,,,,,,,,,,,,,,0,,,81,0
812160,note_on,0,0,1,,,,,,,,,,,,,,,0,,,72,0
812160,note_on,480,0,1,,,,,,,,,,,,,,,0,,,84,0
812160,note_on,120,0,2,,,,,,,,,,,,,,,0,,,65,0
812160,control_change,0,0,2,,,,,,,,,,,,,,,0,64,0,,
812160,note_on,0,0,2,,,,,,,,,,,,,,,0,,,53,41
812160,note_on,0,0,2,,,,,,,,,,,,,,,0,,,65,49
812160,note_on,0,0,2,,,,,,,,,,,,,,,0,,,63,41
812400,control_change,240,0,2,,,,,,,,,,,,,,,0,64,127,,
813120,set_tempo,1440,1,0,,,,,,,,,,,,640820,,,,,,,
813120,note_on,960,0,1,,,,,,,,,,,,,,,0,,,84,0
813120,note_on,0,0,1,,,,,,,,,,,,,,,0,,,72,0
813120,note_on,0,0,1,,,,,,,,,,,,,,,0,,,77,0
813120,note_on,0,0,1,,,,,,,,,,,,,,,0,,,81,0
813120,note_on,0,0,1,,,,,,,,,,,,,,,0,,,81,63
813143,control_change,743,0,2,,,,,,,,,,,,,,,0,64,0,,
813189,control_change,46,0,2,,,,,,,,,,,,,,,0,64,127,,
813280,note_on,160,0,1,,,,,,,,,,,,,,,0,,,81,0
813280,note_on,0,0,1,,,,,,,,,,,,,,,0,,,77,54
813440,note_on,160,0,1,,,,,,,,,,,,,,,0,,,77,0
813440,note_on,0,0,1,,,,,,,,,,,,,,,0,,,72,54
813600,note_on,160,0,1,,,,,,,,,,,,,,,0,,,72,0
813600,note_on,0,0,1,,,,,,,,,,,,,,,0,,,77,54
813760,note_on,160,0,1,,,,,,,,,,,,,,,0,,,77,0
813760,note_on,0,0,1,,,,,,,,,,,,,,,0,,,81,52
813920,note_on,160,0,1,,,,,,,,,,,,,,,0,,,81,0
813920,note_on,0,0,1,,,,,,,,,,,,,,,0,,,84,51
814080,set_tempo,960,1,0,,,,,,,,,,,,659631,,,,,,,
814080,note_on,0,0,2,,,,,,,,,,,,,,,0,,,65,38
814080,note_on,0,0,2,,,,,,,,,,,,,,,0,,,62,32
814080,note_on,0,0,2,,,,,,,,,,,,,,,0,,,58,32
814080,note_on,0,0,2,,,,,,,,,,,,,,,0,,,53,0
814080,note_on,160,0,1,,,,,,,,,,,,,,,0,,,84,0
814080,note_on,891,0,2,,,,,,,,,,,,,,,0,,,63,0
814080,note_on,0,0,1,,,,,,,,,,,,,,,0,,,82,53
814080,note_on,0,0,2,,,,,,,,,,,,,,,0,,,65,0
814080,control_change,0,0,2,,,,,,,,,,,,,,,0,64,0,,
814140,control_change,60,0,2,,,,,,,,,,,,,,,0,64,127,,
814240,note_on,0,0,1,,,,,,,,,,,,,,,0,,,89,49
814240,note_on,160,0,1,,,,,,,,,,,,,,,0,,,82,0
814320,set_tempo,240,1,0,,,,,,,,,,,,606919,,,,,,,
814324,control_change,184,0,2,,,,,,,,,,,,,,,0,64,0,,
814400,note_on,160,0,1,,,,,,,,,,,,,,,0,,,89,0
814400,note_on,0,0,1,,,,,,,,,,,,,,,0,,,86,49
814480,note_on,80,0,1,,,,,,,,,,,,,,,0,,,86,0
814560,note_on,236,0,2,,,,,,,,,,,,,,,0,,,65,0
814560,note_on,0,0,2,,,,,,,,,,,,,,,0,,,62,0
814560,note_on,0,0,2,,,,,,,,,,,,,,,0,,,58,0
814560,set_tempo,240,1,0,,,,,,,,,,,,603743,,,,,,,
814560,note_on,80,0,1,,,,,,,,,,,,,,,0,,,82,53
814640,note_on,80,0,1,,,,,,,,,,,,,,,0,,,82,0
814720,note_on,80,0,1,,,,,,,,,,,,,,,0,,,77,48
814800,note_on,80,0,1,,,,,,,,,,,,,,,0,,,77,0
814880,note_on,80,0,1,,,,,,,,,,,,,,,0,,,74,46
814960,note_on,80,0,1,,,,,,,,,,,,,,,0,,,74,0
815040,note_on,0,0,2,,,,,,,,,,,,,,,0,,,62,29
815040,note_on,480,0,2,,,,,,,,,,,,,,,0,,,58,29
815040,note_on,80,0,1,,,,,,,,,,,,,,,0,,,70,51
815040,note_on,0,0,2,,,,,,,,,,,,,,,0,,,65,35
815040,set_tempo,480,1,0,,,,,,,,,,,,613434,,,,,,,
815120,note_on,80,0,1,,,,,,,,,,,,,,,0,,,70,0
815200,note_on,80,0,1,,,,,,,,,,,,,,,0,,,74,46
815280,note_on,0,0,2,,,,,,,,,,,,,,,0,,,62,0
815280,note_on,80,0,1,,,,,,,,,,,,,,,0,,,74,0
815280,note_on,0,0,2,,,,,,,,,,,,,,,0,,,58,0
815280,note_on,240,0,2,,,,,,,,,,,,,,,0,,,65,0
815360,note_on,80,0,1,,,,,,,,,,,,,,,0,,,77,46
815440,note_on,80,0,1,,,,,,,,,,,,,,,0,,,77,0
815520,set_tempo,480,1,0,,,,,,,,,,,,630451,,,,,,,
815520,note_on,0,0,2,,,,,,,,,,,,,,,0,,,68,35
815520,note_on,0,0,2,,,,,,,,,,,,,,,0,,,65,29
815520,note_on,240,0,2,,,,,,,,,,,,,,,0,,,58,29
815520,note_on,80,0,1,,,,,,,,,,,,,,,0,,,74,53
815600,note_on,80,0,1,,,,,,,,,,,,,,,0,,,74,0
815680,note_on,80,0,1,,,,,,,,,,,,,,,0,,,77,50
815760,note_on,0,0,2,,,,,,,,,,,,,,,0,,,65,0
815760,note_on,240,0,2,,,,,,,,,,,,,,,0,,,68,0
815760,note_on,80,0,1,,,,,,,,,,,,,,,0,,,77,0
815760,note_on,0,0,2,,,,,,,,,,,,,,,0,,,58,0
815840,note_on,80,0,1,,,,,,,,,,,,,,,0,,,82,50
815920,note_on,80,0,1,,,,,,,,,,,,,,,0,,,82,0
816000,control_change,240,0,2,,,,,,,,,,,,,,,0,64,0,,
816000,note_on,0,0,2,,,,,,,,,,,,,,,0,,,58,32
816000,note_on,80,0,1,,,,,,,,,,,,,,,0,,,82,53
816000,note_on,0,0,2,,,,,,,,,,,,,,,0,,,63,32
816000,note_on,0,0,2,,,,,,,,,,,,,,,0,,,67,38
816000,set_tempo,480,1,0,,,,,,,,,,,,648298,,,,,,,
816060,control_change,60,0,2,,,,,,,,,,,,,,,0,64,127,,
816160,note_on,0,0,1,,,,,,,,,,,,,,,0,,,91,49
816160,note_on,160,0,1,,,,,,,,,,,,,,,0,,,82,0
816240,set_tempo,240,1,0,,,,,,,,,,,,606919,,,,,,,
816244,control_change,184,0,2,,,,,,,,,,,,,,,0,64,0,,
816320,note_on,0,0,1,,,,,,,,,,,,,,,0,,,87,49
816320,note_on,160,0,1,,,,,,,,,,,,,,,0,,,91,0
816400,note_on,80,0,1,,,,,,,,,,,,,,,0,,,87,0
816480,note_on,80,0,1,,,,,,,,,,,,,,,0,,,82,53
816480,note_on,236,0,2,,,,,,,,,,,,,,,0,,,67,0
816480,note_on,0,0,2,,,,,,,,,,,,,,,0,,,63,0
816480,note_on,0,0,2,,,,,,,,,,,,,,,0,,,58,0
816560,note_on,80,0,1,,,,,,,,,,,,,,,0,,,82,0
816640,note_on,80,0,1,,,,,,,,,,,,,,,0,,,79,48
816720,note_on,80,0,1,,,,,,,,,,,,,,,0,,,79,0
816800,note_on,80,0,1,,,,,,,,,,,,,,,0,,,75,46
816880,note_on,80,0,1,,,,,,,,,,,,,,,0,,,75,0
816960,note_on,0,0,2,,,,,,,,,,,,,,,0,,,67,35
816960,note_on,0,0,2,,,,,,,,,,,,,,,0,,,63,29
816960,note_on,480,0,2,,,,,,,,,,,,,,,0,,,58,29
816960,note_on,80,0,1,,,,,,,,,,,,,,,0,,,70,51
817040,note_on,80,0,1,,,,,,,,,,,,,,,0,,,70,0
817120,note_on,80,0,1,,,,,,,,,,,,,,,0,,,75,46
817200,note_on,240,0,2,,,,,,,,,,,,,,,0,,,67,0
817200,note_on,80,0,1,,,,,,,,,,,,,,,0,,,75,0
817200,note_on,0,0,2,,,,,,,,,,,,,,,0,,,58,0
817200,note_on,0,0,2,,,,,,,,,,,,,,,0,,,63,0
817280,note_on,80,0,1,,,,,,,,,,,,,,,0,,,79,46
817360,note_on,80,0,1,,,,,,,,,,,,,,,0,,,79,0
817440,set_tempo,1200,1,0,,,,,,,,,,,,620155,,,,,,,
817440,note_on,80,0,1,,,,,,,,,,,,,,,0,,,75,53
817440,note_on,0,0,2,,,,,,,,,,,,,,,0,,,70,35
817440,note_on,0,0,2,,,,,,,,,,,,,,,0,,,67,29
817440,note_on,240,0,2,,,,,,,,,,,,,,,0,,,58,29
817520,note_on,80,0,1,,,,,,,,,,,,,,,0,,,75,0
817600,note_on,80,0,1,,,,,,,,,,,,,,,0,,,79,50
817680,note_on,240,0,2,,,,,,,,,,,,,,,0,,,70,0
817680,note_on,0,0,2,,,,,,,,,,,,,,,0,,,58,0
817680,note_on,80,0,1,,,,,,,,,,,,,,,0,,,79,0
817680,note_on,0,0,2,,,,,,,,,,,,,,,0,,,67,0
817760,note_on,80,0,1,,,,,,,,,,,,,,,0,,,82,50
817840,note_on,80,0,1,,,,,,,,,,,,,,,0,,,82,0
817920,control_change,240,0,2,,,,,,,,,,,,,,,0,64,0,,
817920,note_on,0,0,2,,,,,,,,,,,,,,,0,,,58,32
817920,note_on,0,0,2,,,,,,,,,,,,,,,0,,,62,32
817920,set_tempo,480,1,0,,,,,,,,,,,,652032,,,,,,,
817920,note_on,80,0,1,,,,,,,,,,,,,,,0,,,82,53
817920,note_on,0,0,2,,,,,,,,,,,,,,,0,,,65,38
817980,control_change,60,0,2,,,,,,,,,,,,,,,0,64,127,,
818080,note_on,160,0,1,,,,,,,,,,,,,,,0,,,82,0
818080,note_on,0,0,1,,,,,,,,,,,,,,,0,,,94,49
818160,set_tempo,240,1,0,,,,,,,,,,,,606919,,,,,,,
818164,control_change,184,0,2,,,,,,,,,,,,,,,0,64,0,,
818240,note_on,160,0,1,,,,,,,,,,,,,,,0,,,94,0
818240,note_on,0,0,1,,,,,,,,,,,,,,,0,,,89,49
818320,note_on,80,0,1,,,,,,,,,,,,,,,0,,,89,0
818400,note_on,80,0,1,,,,,,,,,,,,,,,0,,,86,53
818400,note_on,0,0,2,,,,,,,,,,,,,,,0,,,58,0
818400,note_on,0,0,2,,,,,,,,,,,,,,,0,,,62,0
818400,note_on,236,0,2,,,,,,,,,,,,,,,0,,,65,0
818480,note_on,80,0,1,,,,,,,,,,,,,,,0,,,86,0
818560,note_on,80,0,1,,,,,,,,,,,,,,,0,,,82,48
818640,note_on,80,0,1,,,,,,,,,,,,,,,0,,,82,0
818720,note_on,80,0,1,,,,,,,,,,,,,,,0,,,77,46
818800,note_on,80,0,1,,,,,,,,,,,,,,,0,,,77,0
818880,note_on,0,0,2,,,,,,,,,,,,,,,0,,,62,35
818880,note_on,480,0,2,,,,,,,,,,,,,,,0,,,58,29
818880,note_on,80,0,1,,,,,,,,,,,,,,,0,,,74,51
818960,note_on,80,0,1,,,,,,,,,,,,,,,0,,,74,0
819040,note_on,80,0,1,,,,,,,,,,,,,,,0,,,70,46
819120,note_on,240,0,2,,,,,,,,,,,,,,,0,,,62,0
819120,note_on,0,0,2,,,,,,,,,,,,,,,0,,,58,0
819120,note_on,80,0,1,,,,,,,,,,,,,,,0,,,70,0
819200,note_on,80,0,1,,,,,,,,,,,,,,,0,,,65,46
819280,note_on,80,0,1,,,,,,,,,,,,,,,0,,,65,0
819360,set_tempo,1200,1,0,,,,,,,,,,,,613434,,,,,,,
819360,note_on,240,0,2,,,,,,,,,,,,,,,0,,,62,29
819360,note_on,80,0,1,,,,,,,,,,,,,,,0,,,70,53
819360,note_on,0,0,2,,,,,,,,,,,,,,,0,,,65,35
819440,note_on,80,0,1,,,,,,,,,,,,,,,0,,,70,0
819520,note_on,80,0,1,,,,,,,,,,,,,,,0,,,74,50
819600,note_on,0,0,2,,,,,,,,,,,,,,,0,,,62,0
819600,note_on,80,0,1,,,,,,,,,,,,,,,0,,,74,0
819600,note_on,240,0,2,,,,,,,,,,,,,,,0,,,65,0
819680,note_on,80,0,1,,,,,,,,,,,,,,,0,,,77,50
819760,note_on,80,0,1,,,,,,,,,,,,,,,0,,,77,0
819840,note_on,80,0,1,,,,,,,,,,,,,,,0,,,77,51
819840,note_on,240,0,2,,,,,,,,,,,,,,,0,,,53,29
819840,note_on,0,0,2,,,,,,,,,,,,,,,0,,,62,29
819840,note_on,0,0,2,,,,,,,,,,,,,,,0,,,65,35
819851,control_change,11,0,2,,,,,,,,,,,,,,,0,64,127,,
820000,note_on,160,0,1,,,,,,,,,,,,,,,0,,,77,0
820000,note_on,0,0,1,,,,,,,,,,,,,,,0,,,82,47
820080,note_on,0,0,2,,,,,,,,,,,,,,,0,,,53,0
820080,note_on,0,0,2,,,,,,,,,,,,,,,0,,,62,0
820080,note_on,229,0,2,,,,,,,,,,,,,,,0,,,65,0
820160,note_on,160,0,1,,,,,,,,,,,,,,,0,,,82,0
820160,note_on,0,0,1,,,,,,,,,,,,,,,0,,,82,47
820172,control_change,92,0,2,,,,,,,,,,,,,,,0,64,0,,
820240,note_on,80,0,1,,,,,,,,,,,,,,,0,,,82,0
820320,note_on,80,0,1,,,,,,,,,,,,,,,0,,,79,51
820320,note_on,0,0,2,,,,,,,,,,,,,,,0,,,63,28
820320,note_on,0,0,2,,,,,,,,,,,,,,,0,,,67,34
820320,set_tempo,960,1,0,,,,,,,,,,,,623506,,,,,,,
820320,note_on,148,0,2,,,,,,,,,,,,,,,0,,,53,28
820352,control_change,32,0,2,,,,,,,,,,,,,,,0,64,127,,
820480,note_on,0,0,1,,,,,,,,,,,,,,,0,,,84,48
820480,note_on,160,0,1,,,,,,,,,,,,,,,0,,,79,0
820560,note_on,0,0,2,,,,,,,,,,,,,,,0,,,67,0
820560,note_on,208,0,2,,,,,,,,,,,,,,,0,,,63,0
820560,note_on,0,0,2,,,,,,,,,,,,,,,0,,,53,0
820640,note_on,0,0,1,,,,,,,,,,,,,,,0,,,84,48
820640,note_on,160,0,1,,,,,,,,,,,,,,,0,,,84,0
820641,control_change,81,0,2,,,,,,,,,,,,,,,0,64,0,,
820720,note_on,80,0,1,,,,,,,,,,,,,,,0,,,84,0
820800,note_on,159,0,2,,,,,,,,,,,,,,,0,,,53,28
820800,note_on,0,0,2,,,,,,,,,,,,,,,0,,,62,28
820800,note_on,0,0,2,,,,,,,,,,,,,,,0,,,65,33
820800,note_on,80,0,1,,,,,,,,,,,,,,,0,,,77,51
820825,control_change,25,0,2,,,,,,,,,,,,,,,0,64,127,,
820960,note_on,0,0,1,,,,,,,,,,,,,,,0,,,82,47
820960,note_on,160,0,1,,,,,,,,,,,,,,,0,,,77,0
821040,note_on,0,0,2,,,,,,,,,,,,,,,0,,,53,0
821040,note_on,215,0,2,,,,,,,,,,,,,,,0,,,65,0
821040,note_on,0,0,2,,,,,,,,,,,,,,,0,,,62,0
821120,note_on,0,0,1,,,,,,,,,,,,,,,0,,,82,47
821120,note_on,160,0,1,,,,,,,,,,,,,,,0,,,82,0
821149,control_change,109,0,2,,,,,,,,,,,,,,,0,64,0,,
821200,note_on,80,0,1,,,,,,,,,,,,,,,0,,,82,0
821280,note_on,0,0,2,,,,,,,,,,,,,,,0,,,60,28
821280,note_on,0,0,2,,,,,,,,,,,,,,,0,,,63,34
821280,note_on,80,0,1,,,,,,,,,,,,,,,0,,,77,51
821280,note_on,131,0,2,,,,,,,,,,,,,,,0,,,53,28
821284,control_change,4,0,2,,,,,,,,,,,,,,,0,64,127,,
821440,note_on,160,0,1,,,,,,,,,,,,,,,0,,,77,0
821440,note_on,0,0,1,,,,,,,,,,,,,,,0,,,81,47
821520,note_on,0,0,2,,,,,,,,,,,,,,,0,,,60,0
821520,note_on,0,0,2,,,,,,,,,,,,,,,0,,,53,0
821520,note_on,236,0,2,,,,,,,,,,,,,,,0,,,63,0
821600,note_on,160,0,1,,,,,,,,,,,,,,,0,,,81,0
821600,note_on,0,0,1,,,,,,,,,,,,,,,0,,,81,47
821605,control_change,85,0,2,,,,,,,,,,,,,,,0,64,0,,
821680,note_on,80,0,1,,,,,,,,,,,,,,,0,,,81,0
821760,note_on,0,0,2,,,,,,,,,,,,,,,0,,,59,29
821760,note_on,80,0,1,,,,,,,,,,,,,,,0,,,77,51
821760,note_on,155,0,2,,,,,,,,,,,,,,,0,,,53,29
821760,set_tempo,1440,1,0,,,,,,,,,,,,623506,,,,,,,
821760,note_on,0,0,2,,,,,,,,,,,,,,,0,,,62,35
821806,control_change,46,0,2,,,,,,,,,,,,,,,0,64,127,,
821920,note_on,160,0,1,,,,,,,,,,,,,,,0,,,77,0
821920,note_on,0,0,1,,,,,,,,,,,,,,,0,,,80,47
822000,note_on,0,0,2,,,,,,,,,,,,,,,0,,,59,0
822000,note_on,0,0,2,,,,,,,,,,,,,,,0,,,53,0
822000,note_on,194,0,2,,,,,,,,,,,,,,,0,,,62,0
822080,note_on,160,0,1,,,,,,,,,,,,,,,0,,,80,0
822080,note_on,0,0,1,,,,,,,,,,,,,,,0,,,80,47
822109,control_change,109,0,2,,,,,,,,,,,,,,,0,64,0,,
822160,note_on,80,0,1,,,,,,,,,,,,,,,0,,,80,0
822240,note_on,80,0,1,,,,,,,,,,,,,,,0,,,77,52
822240,note_on,0,0,2,,,,,,,,,,,,,,,0,,,59,28
822240,note_on,0,0,2,,,,,,,,,,,,,,,0,,,62,35
822240,note_on,131,0,2,,,,,,,,,,,,,,,0,,,53,28
822272,control_change,32,0,2,,,,,,,,,,,,,,,0,64,127,,
822400,note_on,0,0,1,,,,,,,,,,,,,,,0,,,79,50
822400,note_on,160,0,1,,,,,,,,,,,,,,,0,,,77,0
822480,note_on,208,0,2,,,,,,,,,,,,,,,0,,,59,0
822480,note_on,0,0,2,,,,,,,,,,,,,,,0,,,62,0
822480,note_on,0,0,2,,,,,,,,,,,,,,,0,,,53,0
822560,note_on,0,0,1,,,,,,,,,,,,,,,0,,,79,50
822560,note_on,160,0,1,,,,,,,,,,,,,,,0,,,79,0
822600,control_change,120,0,2,,,,,,,,,,,,,,,0,64,0,,
822640,note_on,80,0,1,,,,,,,,,,,,,,,0,,,79,0
822720,note_on,0,0,2,,,,,,,,,,,,,,,0,,,59,29
822720,note_on,80,0,1,,,,,,,,,,,,,,,0,,,71,46
822720,note_on,0,0,1,,,,,,,,,,,,,,,0,,,74,54
822720,note_on,120,0,2,,,,,,,,,,,,,,,0,,,53,29
822720,note_on,0,0,2,,,,,,,,,,,,,,,0,,,62,35
822771,control_change,51,0,2,,,,,,,,,,,,,,,0,64,127,,
822880,note_on,0,0,1,,,,,,,,,,,,,,,0,,,71,0
822880,note_on,160,0,1,,,,,,,,,,,,,,,0,,,74,0
822880,note_on,0,0,1,,,,,,,,,,,,,,,0,,,80,50
822960,note_on,189,0,2,,,,,,,,,,,,,,,0,,,62,0
822960,note_on,0,0,2,,,,,,,,,,,,,,,0,,,53,0
822960,note_on,0,0,2,,,,,,,,,,,,,,,0,,,59,0
823040,note_on,0,0,1,,,,,,,,,,,,,,,0,,,80,51
823040,note_on,160,0,1,,,,,,,,,,,,,,,0,,,80,0
823073,control_change,113,0,2,,,,,,,,,,,,,,,0,64,0,,
823120,note_on,80,0,1,,,,,,,,,,,,,,,0,,,80,0
823200,note_on,0,0,1,,,,,,,,,,,,,,,0,,,74,56
823200,note_on,127,0,2,,,,,,,,,,,,,,,0,,,53,31
823200,note_on,80,0,1,,,,,,,,,,,,,,,0,,,71,47
823200,note_on,0,0,2,,,,,,,,,,,,,,,0,,,59,31
823200,note_on,0,0,2,,,,,,,,,,,,,,,0,,,62,37
823257,control_change,57,0,2,,,,,,,,,,,,,,,0,64,127,,
823360,note_on,0,0,1,,,,,,,,,,,,,,,0,,,71,0
823360,note_on,160,0,1,,,,,,,,,,,,,,,0,,,74,0
823360,note_on,0,0,1,,,,,,,,,,,,,,,0,,,79,52
823440,note_on,0,0,2,,,,,,,,,,,,,,,0,,,59,0
823440,note_on,183,0,2,,,,,,,,,,,,,,,0,,,62,0
823440,note_on,0,0,2,,,,,,,,,,,,,,,0,,,53,0
823520,note_on,160,0,1,,,,,,,,,,,,,,,0,,,79,0
823520,note_on,0,0,1,,,,,,,,,,,,,,,0,,,79,53
823599,control_change,159,0,2,,,,,,,,,,,,,,,0,64,0,,
823600,note_on,80,0,1,,,,,,,,,,,,,,,0,,,79,0
823680,set_tempo,1920,1,0,,,,,,,,,,,,623506,,,,,,,
823680,note_on,81,0,2,,,,,,,,,,,,,,,0,,,51,33
823680,note_on,0,0,2,,,,,,,,,,,,,,,0,,,58,33
823680,note_on,0,0,2,,,,,,,,,,,,,,,0,,,63,40
823680,note_on,80,0,1,,,,,,,,,,,,,,,0,,,70,49
823680,note_on,0,0,1,,,,,,,,,,,,,,,0,,,75,58
823743,control_change,63,0,2,,,,,,,,,,,,,,,0,64,127,,
823840,note_on,160,0,1,,,,,,,,,,,,,,,0,,,75,0
823840,note_on,0,0,1,,,,,,,,,,,,,,,0,,,80,54
823840,note_on,0,0,1,,,,,,,,,,,,,,,0,,,70,0
823880,set_tempo,200,1,0,,,,,,,,,,,,626894,,,,,,,
823920,note_on,177,0,2,,,,,,,,,,,,,,,0,,,63,0
823920,note_on,0,0,2,,,,,,,,,,,,,,,0,,,51,0
823920,note_on,0,0,2,,,,,,,,,,,,,,,0,,,58,0
824000,note_on,160,0,1,,,,,,,,,,,,,,,0,,,80,0
824000,note_on,0,0,1,,,,,,,,,,,,,,,0,,,80,54
824033,control_change,113,0,2,,,,,,,,,,,,,,,0,64,0,,
824040,set_tempo,160,1,0,,,,,,,,,,,,630451,,,,,,,
824080,note_on,80,0,1,,,,,,,,,,,,,,,0,,,80,0
824160,note_on,0,0,2,,,,,,,,,,,,,,,0,,,58,31
824160,note_on,80,0,1,,,,,,,,,,,,,,,0,,,70,49
824160,note_on,0,0,1,,,,,,,,,,,,,,,0,,,75,58
824160,note_on,0,0,2,,,,,,,,,,,,,,,0,,,63,38
824160,note_on,127,0,2,,,,,,,,,,,,,,,0,,,51,31
824192,control_change,32,0,2,,,,,,,,,,,,,,,0,64,127,,
824200,set_tempo,160,1,0,,,,,,,,,,,,633914,,,,,,,
824320,note_on,160,0,1,,,,,,,,,,,,,,,0,,,75,0
824320,note_on,0,0,1,,,,,,,,,,,,,,,0,,,79,54
824320,note_on,0,0,1,,,,,,,,,,,,,,,0,,,70,0
824400,note_on,0,0,2,,,,,,,,,,,,,,,0,,,63,0
824400,note_on,208,0,2,,,,,,,,,,,,,,,0,,,58,0
824400,note_on,0,0,2,,,,,,,,,,,,,,,0,,,51,0
824400,set_tempo,200,1,0,,,,,,,,,,,,637416,,,,,,,
824480,note_on,160,0,1,,,,,,,,,,,,,,,0,,,79,0
824480,note_on,0,0,1,,,,,,,,,,,,,,,0,,,79,54
824520,control_change,120,0,2,,,,,,,,,,,,,,,0,64,0,,
824560,note_on,80,0,1,,,,,,,,,,,,,,,0,,,79,0
824560,set_tempo,160,1,0,,,,,,,,,,,,641026,,,,,,,
824640,note_on,120,0,2,,,,,,,,,,,,,,,0,,,53,31
824640,note_on,0,0,2,,,,,,,,,,,,,,,0,,,58,31
824640,note_on,0,0,2,,,,,,,,,,,,,,,0,,,62,37
824640,note_on,80,0,1,,,,,,,,,,,,,,,0,,,70,48
824640,note_on,0,0,1,,,,,,,,,,,,,,,0,,,74,57
824691,control_change,51,0,2,,,,,,,,,,,,,,,0,64,127,,
824720,set_tempo,160,1,0,,,,,,,,,,,,644676,,,,,,,
824800,note_on,0,0,1,,,,,,,,,,,,,,,0,,,70,0
824800,note_on,0,0,1,,,,,,,,,,,,,,,0,,,77,53
824800,note_on,160,0,1,,,,,,,,,,,,,,,0,,,74,0
824880,set_tempo,160,1,0,,,,,,,,,,,,648298,,,,,,,
824880,note_on,0,0,2,,,,,,,,,,,,,,,0,,,58,0
824880,note_on,189,0,2,,,,,,,,,,,,,,,0,,,62,0
824880,note_on,0,0,2,,,,,,,,,,,,,,,0,,,53,0
824960,note_on,160,0,1,,,,,,,,,,,,,,,0,,,77,0
824960,note_on,0,0,1,,,,,,,,,,,,,,,0,,,77,52
825040,note_on,80,0,1,,,,,,,,,,,,,,,0,,,77,0
825042,control_change,162,0,2,,,,,,,,,,,,,,,0,64,0,,
825080,set_tempo,200,1,0,,,,,,,,,,,,652032,,,,,,,
825120,note_on,0,0,2,,,,,,,,,,,,,,,0,,,63,38
825120,note_on,0,0,2,,,,,,,,,,,,,,,0,,,60,31
825120,note_on,78,0,2,,,,,,,,,,,,,,,0,,,53,31
825120,note_on,80,0,1,,,,,,,,,,,,,,,0,,,69,48
825120,note_on,0,0,1,,,,,,,,,,,,,,,0,,,72,57
825177,control_change,57,0,2,,,,,,,,,,,,,,,0,64,127,,
825240,set_tempo,160,1,0,,,,,,,,,,,,655738,,,,,,,
825280,note_on,160,0,1,,,,,,,,,,,,,,,0,,,72,0
825280,note_on,0,0,1,,,,,,,,,,,,,,,0,,,69,0
825280,note_on,0,0,1,,,,,,,,,,,,,,,0,,,77,52
825360,note_on,183,0,2,,,,,,,,,,,,,,,0,,,63,0
825360,note_on,0,0,2,,,,,,,,,,,,,,,0,,,60,0
825360,note_on,0,0,2,,,,,,,,,,,,,,,0,,,53,0
825400,set_tempo,160,1,0,,,,,,,,,,,,659631,,,,,,,
825440,note_on,0,0,1,,,,,,,,,,,,,,,0,,,77,52
825440,note_on,160,0,1,,,,,,,,,,,,,,,0,,,77,0
825469,control_change,109,0,2,,,,,,,,,,,,,,,0,64,0,,
825520,note_on,80,0,1,,,,,,,,,,,,,,,0,,,77,0
825560,set_tempo,160,1,0,,,,,,,,,,,,663423,,,,,,,
825600,note_on,0,0,1,,,,,,,,,,,,,,,0,,,77,49
825600,note_on,80,0,1,,,,,,,,,,,,,,,0,,,70,41
825600,set_tempo,40,1,0,,,,,,,,,,,,687364,,,,,,,
825600,note_on,131,0,2,,,,,,,,,,,,,,,0,,,58,47
825600,note_on,0,0,1,,,,,,,,,,,,,,,0,,,74,41
825640,set_tempo,40,1,0,,,,,,,,,,,,652032,,,,,,,
825760,note_on,160,0,2,,,,,,,,,,,,,,,0,,,58,0
825760,note_on,0,0,2,,,,,,,,,,,,,,,0,,,65,44
825840,set_tempo,200,1,0,,,,,,,,,,,,606919,,,,,,,
825920,note_on,0,0,2,,,,,,,,,,,,,,,0,,,62,44
825920,note_on,160,0,2,,,,,,,,,,,,,,,0,,,65,0
826000,note_on,80,0,2,,,,,,,,,,,,,,,0,,,62,0
826080,note_on,0,0,1,,,,,,,,,,,,,,,0,,,74,0
826080,note_on,480,0,1,,,,,,,,,,,,,,,0,,,77,0
826080,note_on,0,0,1,,,,,,,,,,,,,,,0,,,70,0
826080,note_on,80,0,2,,,,,,,,,,,,,,,0,,,58,47
826160,note_on,80,0,2,,,,,,,,,,,,,,,0,,,58,0
826240,note_on,80,0,2,,,,,,,,,,,,,,,0,,,53,43
826320,note_on,80,0,2,,,,,,,,,,,,,,,0,,,53,0
826400,note_on,80,0,2,,,,,,,,,,,,,,,0,,,50,41
826480,note_on,80,0,2,,,,,,,,,,,,,,,0,,,50,0
826560,note_on,0,0,1,,,,,,,,,,,,,,,0,,,74,40
826560,note_on,80,0,2,,,,,,,,,,,,,,,0,,,46,45
826560,note_on,480,0,1,,,,,,,,,,,,,,,0,,,82,49
826560,set_tempo,720,1,0,,,,,,,,,,,,610190,,,,,,,
826560,note_on,0,0,1,,,,,,,,,,,,,,,0,,,77,40
826640,note_on,80,0,2,,,,,,,,,,,,,,,0,,,46,0
826720,note_on,80,0,2,,,,,,,,,,,,,,,0,,,50,41
826800,note_on,0,0,1,,,,,,,,,,,,,,,0,,,82,0
826800,note_on,80,0,2,,,,,,,,,,,,,,,0,,,50,0
826800,note_on,240,0,1,,,,,,,,,,,,,,,0,,,77,0
826800,note_on,0,0,1,,,,,,,,,,,,,,,0,,,74,0
826880,note_on,80,0,2,,,,,,,,,,,,,,,0,,,53,41
826960,note_on,80,0,2,,,,,,,,,,,,,,,0,,,53,0
827040,note_on,240,0,1,,,,,,,,,,,,,,,0,,,77,40
827040,note_on,0,0,1,,,,,,,,,,,,,,,0,,,80,40
827040,set_tempo,480,1,0,,,,,,,,,,,,626894,,,,,,,
827040,note_on,80,0,2,,,,,,,,,,,,,,,0,,,50,47
827040,note_on,0,0,1,,,,,,,,,,,,,,,0,,,82,49
827080,set_tempo,40,1,0,,,,,,,,,,,,623506,,,,,,,
827120,note_on,80,0,2,,,,,,,,,,,,,,,0,,,50,0
827200,note_on,80,0,2,,,,,,,,,,,,,,,0,,,53,45
827280,note_on,80,0,2,,,,,,,,,,,,,,,0,,,53,0
827280,note_on,240,0,1,,,,,,,,,,,,,,,0,,,82,0
827280,note_on,0,0,1,,,,,,,,,,,,,,,0,,,77,0
827280,note_on,0,0,1,,,,,,,,,,,,,,,0,,,80,0
827360,note_on,80,0,2,,,,,,,,,,,,,,,0,,,58,45
827440,note_on,80,0,2,,,,,,,,,,,,,,,0,,,58,0
827520,note_on,0,0,1,,,,,,,,,,,,,,,0,,,82,53
827520,note_on,0,0,1,,,,,,,,,,,,,,,0,,,79,45
827520,note_on,240,0,1,,,,,,,,,,,,,,,0,,,75,45
827520,note_on,80,0,2,,,,,,,,,,,,,,,0,,,58,47
827520,set_tempo,440,1,0,,,,,,,,,,,,641026,,,,,,,
827680,note_on,160,0,2,,,,,,,,,,,,,,,0,,,58,0
827680,note_on,0,0,2,,,,,,,,,,,,,,,0,,,67,44
827760,set_tempo,240,1,0,,,,,,,,,,,,606919,,,,,,,
827840,note_on,160,0,2,,,,,,,,,,,,,,,0,,,67,0
827840,note_on,0,0,2,,,,,,,,,,,,,,,0,,,63,44
827920,note_on,80,0,2,,,,,,,,,,,,,,,0,,,63,0
828000,note_on,0,0,1,,,,,,,,,,,,,,,0,,,75,0
828000,note_on,0,0,1,,,,,,,,,,,,,,,0,,,79,0
828000,note_on,480,0,1,,,,,,,,,,,,,,,0,,,82,0
828000,note_on,80,0,2,,,,,,,,,,,,,,,0,,,58,47
828080,note_on,80,0,2,,,,,,,,,,,,,,,0,,,58,0
828160,note_on,80,0,2,,,,,,,,,,,,,,,0,,,55,43
828240,note_on,80,0,2,,,,,,,,,,,,,,,0,,,55,0
828320,note_on,80,0,2,,,,,,,,,,,,,,,0,,,51,41
828400,note_on,80,0,2,,,,,,,,,,,,,,,0,,,51,0
828480,note_on,0,0,1,,,,,,,,,,,,,,,0,,,82,49
828480,note_on,0,0,1,,,,,,,,,,,,,,,0,,,79,40
828480,note_on,480,0,1,,,,,,,,,,,,,,,0,,,75,40
828480,set_tempo,720,1,0,,,,,,,,,,,,613434,,,,,,,
828480,note_on,80,0,2,,,,,,,,,,,,,,,0,,,46,45
828560,note_on,80,0,2,,,,,,,,,,,,,,,0,,,46,0
828640,note_on,80,0,2,,,,,,,,,,,,,,,0,,,51,41
828720,note_on,80,0,2,,,,,,,,,,,,,,,0,,,51,0
828720,note_on,240,0,1,,,,,,,,,,,,,,,0,,,82,0
828720,note_on,0,0,1,,,,,,,,,,,,,,,0,,,79,0
828720,note_on,0,0,1,,,,,,,,,,,,,,,0,,,75,0
828800,note_on,80,0,2,,,,,,,,,,,,,,,0,,,55,41
828880,note_on,80,0,2,,,,,,,,,,,,,,,0,,,55,0
828960,note_on,0,0,1,,,,,,,,,,,,,,,0,,,82,49
828960,set_tempo,480,1,0,,,,,,,,,,,,623506,,,,,,,
828960,note_on,240,0,1,,,,,,,,,,,,,,,0,,,79,40
828960,note_on,80,0,2,,,,,,,,,,,,,,,0,,,51,47
829040,note_on,80,0,2,,,,,,,,,,,,,,,0,,,51,0
829120,note_on,80,0,2,,,,,,,,,,,,,,,0,,,55,45
829200,note_on,240,0,1,,,,,,,,,,,,,,,0,,,82,0
829200,note_on,80,0,2,,,,,,,,,,,,,,,0,,,55,0
829200,note_on,0,0,1,,,,,,,,,,,,,,,0,,,79,0
829280,note_on,80,0,2,,,,,,,,,,,,,,,0,,,58,45
829360,note_on,80,0,2,,,,,,,,,,,,,,,0,,,58,0
829440,note_on,80,0,2,,,,,,,,,,,,,,,0,,,58,47
829440,note_on,240,0,1,,,,,,,,,,,,,,,0,,,74,45
829440,note_on,0,0,1,,,,,,,,,,,,,,,0,,,77,45
829440,note_on,0,0,1,,,,,,,,,,,,,,,0,,,82,53
829440,set_tempo,480,1,0,,,,,,,,,,,,652032,,,,,,,
829600,note_on,160,0,2,,,,,,,,,,,,,,,0,,,58,0
829600,note_on,0,0,2,,,,,,,,,,,,,,,0,,,70,44
829680,set_tempo,240,1,0,,,,,,,,,,,,606919,,,,,,,
829760,note_on,160,0,2,,,,,,,,,,,,,,,0,,,70,0
829760,note_on,0,0,2,,,,,,,,,,,,,,,0,,,65,44
829840,note_on,80,0,2,,,,,,,,,,,,,,,0,,,65,0
829920,note_on,480,0,1,,,,,,,,,,,,,,,0,,,82,0
829920,note_on,0,0,1,,,,,,,,,,,,,,,0,,,74,0
829920,note_on,0,0,1,,,,,,,,,,,,,,,0,,,77,0
829920,note_on,80,0,2,,,,,,,,,,,,,,,0,,,62,47
830000,note_on,80,0,2,,,,,,,,,,,,,,,0,,,62,0
830080,note_on,80,0,2,,,,,,,,,,,,,,,0,,,58,43
830160,note_on,80,0,2,,,,,,,,,,,,,,,0,,,58,0
830240,note_on,80,0,2,,,,,,,,,,,,,,,0,,,53,41
830320,note_on,80,0,2,,,,,,,,,,,,,,,0,,,53,0
830400,note_on,480,0,1,,,,,,,,,,,,,,,0,,,77,44
830400,note_on,0,0,1,,,,,,,,,,,,,,,0,,,82,44
830400,note_on,0,0,1,,,,,,,,,,,,,,,0,,,86,53
830400,note_on,80,0,2,,,,,,,,,,,,,,,0,,,50,45
830400,set_tempo,720,1,0,,,,,,,,,,,,616776,,,,,,,
830480,note_on,80,0,2,,,,,,,,,,,,,,,0,,,50,0
830560,note_on,80,0,2,,,,,,,,,,,,,,,0,,,46,41
830640,note_on,240,0,1,,,,,,,,,,,,,,,0,,,86,0
830640,note_on,0,0,1,,,,,,,,,,,,,,,0,,,82,0
830640,note_on,0,0,1,,,,,,,,,,,,,,,0,,,77,0
830640,note_on,80,0,2,,,,,,,,,,,,,,,0,,,46,0
830720,note_on,80,0,2,,,,,,,,,,,,,,,0,,,41,41
830800,note_on,80,0,2,,,,,,,,,,,,,,,0,,,41,0
830880,note_on,0,0,1,,,,,,,,,,,,,,,0,,,89,53
830880,note_on,0,0,1,,,,,,,,,,,,,,,0,,,86,44
830880,note_on,240,0,1,,,,,,,,,,,,,,,0,,,77,44
830880,note_on,80,0,2,,,,,,,,,,,,,,,0,,,46,47
830880,set_tempo,480,1,0,,,,,,,,,,,,626894,,,,,,,
830960,note_on,80,0,2,,,,,,,,,,,,,,,0,,,46,0
831040,note_on,80,0,2,,,,,,,,,,,,,,,0,,,50,45
831120,note_on,0,0,1,,,,,,,,,,,,,,,0,,,77,0
831120,note_on,0,0,1,,,,,,,,,,,,,,,0,,,86,0
831120,note_on,240,0,1,,,,,,,,,,,,,,,0,,,89,0
831120,note_on,80,0,2,,,,,,,,,,,,,,,0,,,50,0
831200,note_on,80,0,2,,,,,,,,,,,,,,,0,,,53,45
831280,note_on,80,0,2,,,,,,,,,,,,,,,0,,,53,0
831360,set_tempo,480,1,0,,,,,,,,,,,,616776,,,,,,,
831360,note_on,0,0,2,,,,,,,,,,,,,,,0,,,62,29
831360,note_on,0,0,2,,,,,,,,,,,,,,,0,,,65,35
831360,note_on,80,0,2,,,,,,,,,,,,,,,0,,,53,29
831360,note_on,240,0,1,,,,,,,,,,,,,,,0,,,89,56
831371,control_change,11,0,2,,,,,,,,,,,,,,,0,64,127,,
831520,note_on,160,0,1,,,,,,,,,,,,,,,0,,,89,0
831520,note_on,0,0,1,,,,,,,,,,,,,,,0,,,94,51
831600,note_on,0,0,2,,,,,,,,,,,,,,,0,,,53,0
831600,note_on,0,0,2,,,,,,,,,,,,,,,0,,,62,0
831600,note_on,229,0,2,,,,,,,,,,,,,,,0,,,65,0
831680,note_on,0,0,1,,,,,,,,,,,,,,,0,,,94,51
831680,note_on,160,0,1,,,,,,,,,,,,,,,0,,,94,0
831692,control_change,92,0,2,,,,,,,,,,,,,,,0,64,0,,
831760,note_on,80,0,1,,,,,,,,,,,,,,,0,,,94,0
831840,note_on,80,0,1,,,,,,,,,,,,,,,0,,,91,56
831840,note_on,148,0,2,,,,,,,,,,,,,,,0,,,65,28
831840,note_on,0,0,2,,,,,,,,,,,,,,,0,,,79,34
831840,note_on,0,0,2,,,,,,,,,,,,,,,0,,,75,28
831872,control_change,32,0,2,,,,,,,,,,,,,,,0,64,127,,
832000,note_on,160,0,1,,,,,,,,,,,,,,,0,,,91,0
832000,note_on,0,0,1,,,,,,,,,,,,,,,0,,,96,52
832080,note_on,0,0,2,,,,,,,,,,,,,,,0,,,79,0
832080,note_on,0,0,2,,,,,,,,,,,,,,,0,,,65,0
832080,note_on,208,0,2,,,,,,,,,,,,,,,0,,,75,0
832160,note_on,160,0,1,,,,,,,,,,,,,,,0,,,96,0
832160,note_on,0,0,1,,,,,,,,,,,,,,,0,,,96,52
832161,control_change,81,0,2,,,,,,,,,,,,,,,0,64,0,,
832240,note_on,80,0,1,,,,,,,,,,,,,,,0,,,96,0
832320,note_on,159,0,2,,,,,,,,,,,,,,,0,,,65,28
832320,note_on,0,0,2,,,,,,,,,,,,,,,0,,,74,28
832320,note_on,0,0,2,,,,,,,,,,,,,,,0,,,77,33
832320,note_on,80,0,1,,,,,,,,,,,,,,,0,,,89,56
832345,control_change,25,0,2,,,,,,,,,,,,,,,0,64,127,,
832480,note_on,0,0,1,,,,,,,,,,,,,,,0,,,94,51
832480,note_on,160,0,1,,,,,,,,,,,,,,,0,,,89,0
832560,note_on,0,0,2,,,,,,,,,,,,,,,0,,,65,0
832560,note_on,0,0,2,,,,,,,,,,,,,,,0,,,74,0
832560,note_on,215,0,2,,,,,,,,,,,,,,,0,,,77,0
832640,note_on,0,0,1,,,,,,,,,,,,,,,0,,,94,51
832640,note_on,160,0,1,,,,,,,,,,,,,,,0,,,94,0
832669,control_change,109,0,2,,,,,,,,,,,,,,,0,64,0,,
832720,note_on,80,0,1,,,,,,,,,,,,,,,0,,,94,0
832800,note_on,80,0,1,,,,,,,,,,,,,,,0,,,89,56
832800,note_on,131,0,2,,,,,,,,,,,,,,,0,,,65,28
832800,note_on,0,0,2,,,,,,,,,,,,,,,0,,,75,34
832800,note_on,0,0,2,,,,,,,,,,,,,,,0,,,72,28
832804,control_change,4,0,2,,,,,,,,,,,,,,,0,64,127,,
832960,note_on,0,0,1,,,,,,,,,,,,,,,0,,,93,51
832960,note_on,160,0,1,,,,,,,,,,,,,,,0,,,89,0
833040,note_on,236,0,2,,,,,,,,,,,,,,,0,,,75,0
833040,note_on,0,0,2,,,,,,,,,,,,,,,0,,,72,0
833040,note_on,0,0,2,,,,,,,,,,,,,,,0,,,65,0
833120,note_on,160,0,1,,,,,,,,,,,,,,,0,,,93,0
833120,note_on,0,0,1,,,,,,,,,,,,,,,0,,,93,51
833125,control_change,85,0,2,,,,,,,,,,,,,,,0,64,0,,
833200,note_on,80,0,1,,,,,,,,,,,,,,,0,,,93,0
833280,note_on,80,0,1,,,,,,,,,,,,,,,0,,,89,56
833280,set_tempo,1920,1,0,,,,,,,,,,,,626894,,,,,,,
833280,note_on,0,0,2,,,,,,,,,,,,,,,0,,,71,29
833280,note_on,155,0,2,,,,,,,,,,,,,,,0,,,65,29
833280,note_on,0,0,2,,,,,,,,,,,,,,,0,,,74,35
833326,control_change,46,0,2,,,,,,,,,,,,,,,0,64,127,,
833440,note_on,0,0,1,,,,,,,,,,,,,,,0,,,92,51
833440,note_on,160,0,1,,,,,,,,,,,,,,,0,,,89,0
833520,note_on,0,0,2,,,,,,,,,,,,,,,0,,,71,0
833520,note_on,0,0,2,,,,,,,,,,,,,,,0,,,65,0
833520,note_on,194,0,2,,,,,,,,,,,,,,,0,,,74,0
833600,note_on,160,0,1,,,,,,,,,,,,,,,0,,,92,0
833600,note_on,0,0,1,,,,,,,,,,,,,,,0,,,92,51
833640,control_change,120,0,2,,,,,,,,,,,,,,,0,64,0,,
833680,note_on,80,0,1,,,,,,,,,,,,,,,0,,,92,0
833760,note_on,0,0,2,,,,,,,,,,,,,,,0,,,74,35
833760,note_on,0,0,2,,,,,,,,,,,,,,,0,,,71,28
833760,note_on,80,0,1,,,,,,,,,,,,,,,0,,,89,57
833760,note_on,120,0,2,,,,,,,,,,,,,,,0,,,65,28
833792,control_change,32,0,2,,,,,,,,,,,,,,,0,64,127,,
833920,note_on,0,0,1,,,,,,,,,,,,,,,0,,,91,55
833920,note_on,160,0,1,,,,,,,,,,,,,,,0,,,89,0
834000,note_on,0,0,2,,,,,,,,,,,,,,,0,,,74,0
834000,note_on,0,0,2,,,,,,,,,,,,,,,0,,,65,0
834000,note_on,208,0,2,,,,,,,,,,,,,,,0,,,71,0
834080,note_on,160,0,1,,,,,,,,,,,,,,,0,,,91,0
834080,note_on,0,0,1,,,,,,,,,,,,,,,0,,,91,55
834095,control_change,95,0,2,,,,,,,,,,,,,,,0,64,0,,
834160,note_on,80,0,1,,,,,,,,,,,,,,,0,,,91,0
834240,note_on,0,0,1,,,,,,,,,,,,,,,0,,,86,58
834240,note_on,145,0,2,,,,,,,,,,,,,,,0,,,65,29
834240,note_on,0,0,2,,,,,,,,,,,,,,,0,,,71,29
834240,note_on,0,0,2,,,,,,,,,,,,,,,0,,,74,35
834240,note_on,80,0,1,,,,,,,,,,,,,,,0,,,83,58
834291,control_change,51,0,2,,,,,,,,,,,,,,,0,64,127,,
834400,note_on,0,0,1,,,,,,,,,,,,,,,0,,,92,53
834400,note_on,0,0,1,,,,,,,,,,,,,,,0,,,83,0
834400,note_on,160,0,1,,,,,,,,,,,,,,,0,,,86,0
834480,note_on,0,0,2,,,,,,,,,,,,,,,0,,,65,0
834480,note_on,0,0,2,,,,,,,,,,,,,,,0,,,71,0
834480,note_on,189,0,2,,,,,,,,,,,,,,,0,,,74,0
834560,note_on,160,0,1,,,,,,,,,,,,,,,0,,,92,0
834560,note_on,0,0,1,,,,,,,,,,,,,,,0,,,92,53
834607,control_change,127,0,2,,,,,,,,,,,,,,,0,64,0,,
834640,note_on,80,0,1,,,,,,,,,,,,,,,0,,,92,0
834720,note_on,0,0,1,,,,,,,,,,,,,,,0,,,86,57
834720,note_on,80,0,1,,,,,,,,,,,,,,,0,,,83,48
834720,note_on,113,0,2,,,,,,,,,,,,,,,0,,,65,31
834720,note_on,0,0,2,,,,,,,,,,,,,,,0,,,71,31
834720,note_on,0,0,2,,,,,,,,,,,,,,,0,,,74,37
834777,control_change,57,0,2,,,,,,,,,,,,,,,0,64,127,,
834880,note_on,160,0,1,,,,,,,,,,,,,,,0,,,86,0
834880,note_on,0,0,1,,,,,,,,,,,,,,,0,,,83,0
834880,note_on,0,0,1,,,,,,,,,,,,,,,0,,,91,54
834960,note_on,0,0,2,,,,,,,,,,,,,,,0,,,65,0
834960,note_on,0,0,2,,,,,,,,,,,,,,,0,,,71,0
834960,note_on,183,0,2,,,,,,,,,,,,,,,0,,,74,0
835040,note_on,160,0,1,,,,,,,,,,,,,,,0,,,91,0
835040,note_on,0,0,1,,,,,,,,,,,,,,,0,,,91,54
835076,control_change,116,0,2,,,,,,,,,,,,,,,0,64,0,,
835120,note_on,80,0,1,,,,,,,,,,,,,,,0,,,91,0
835200,note_on,0,0,2,,,,,,,,,,,,,,,0,,,75,40
835200,note_on,124,0,2,,,,,,,,,,,,,,,0,,,63,33
835200,note_on,80,0,1,,,,,,,,,,,,,,,0,,,82,48
835200,note_on,0,0,2,,,,,,,,,,,,,,,0,,,70,33
835200,note_on,0,0,1,,,,,,,,,,,,,,,0,,,87,57
835240,set_tempo,1960,1,0,,,,,,,,,,,,630451,,,,,,,
835263,control_change,63,0,2,,,,,,,,,,,,,,,0,64,127,,
835360,note_on,160,0,1,,,,,,,,,,,,,,,0,,,87,0
835360,note_on,0,0,1,,,,,,,,,,,,,,,0,,,92,52
835360,note_on,0,0,1,,,,,,,,,,,,,,,0,,,82,0
835440,note_on,0,0,2,,,,,,,,,,,,,,,0,,,70,0
835440,note_on,0,0,2,,,,,,,,,,,,,,,0,,,63,0
835440,note_on,177,0,2,,,,,,,,,,,,,,,0,,,75,0
835520,note_on,160,0,1,,,,,,,,,,,,,,,0,,,92,0
835520,note_on,0,0,1,,,,,,,,,,,,,,,0,,,92,52
835556,control_change,116,0,2,,,,,,,,,,,,,,,0,64,0,,
835560,set_tempo,320,1,0,,,,,,,,,,,,633914,,,,,,,
835600,note_on,80,0,1,,,,,,,,,,,,,,,0,,,92,0
835680,note_on,124,0,2,,,,,,,,,,,,,,,0,,,63,31
835680,note_on,0,0,2,,,,,,,,,,,,,,,0,,,75,38
835680,note_on,0,0,2,,,,,,,,,,,,,,,0,,,70,31
835680,note_on,80,0,1,,,,,,,,,,,,,,,0,,,82,48
835680,note_on,0,0,1,,,,,,,,,,,,,,,0,,,87,57
835712,control_change,32,0,2,,,,,,,,,,,,,,,0,64,127,,
835840,note_on,0,0,1,,,,,,,,,,,,,,,0,,,91,53
835840,note_on,0,0,1,,,,,,,,,,,,,,,0,,,82,0
835840,note_on,160,0,1,,,,,,,,,,,,,,,0,,,87,0
835840,set_tempo,280,1,0,,,,,,,,,,,,637416,,,,,,,
835920,note_on,0,0,2,,,,,,,,,,,,,,,0,,,75,0
835920,note_on,208,0,2,,,,,,,,,,,,,,,0,,,70,0
835920,note_on,0,0,2,,,,,,,,,,,,,,,0,,,63,0
836000,note_on,0,0,1,,,,,,,,,,,,,,,0,,,91,52
836000,note_on,160,0,1,,,,,,,,,,,,,,,0,,,91,0
836033,control_change,113,0,2,,,,,,,,,,,,,,,0,64,0,,
836080,note_on,80,0,1,,,,,,,,,,,,,,,0,,,91,0
836160,note_on,127,0,2,,,,,,,,,,,,,,,0,,,65,31
836160,note_on,0,0,2,,,,,,,,,,,,,,,0,,,70,31
836160,note_on,0,0,2,,,,,,,,,,,,,,,0,,,74,37
836160,set_tempo,320,1,0,,,,,,,,,,,,641026,,,,,,,
836160,note_on,80,0,1,,,,,,,,,,,,,,,0,,,82,48
836160,note_on,0,0,1,,,,,,,,,,,,,,,0,,,86,57
836211,control_change,51,0,2,,,,,,,,,,,,,,,0,64,127,,
836320,note_on,160,0,1,,,,,,,,,,,,,,,0,,,86,0
836320,note_on,0,0,1,,,,,,,,,,,,,,,0,,,82,0
836320,note_on,0,0,1,,,,,,,,,,,,,,,0,,,89,53
836400,note_on,189,0,2,,,,,,,,,,,,,,,0,,,74,0
836400,note_on,0,0,2,,,,,,,,,,,,,,,0,,,70,0
836400,note_on,0,0,2,,,,,,,,,,,,,,,0,,,65,0
836440,set_tempo,280,1,0,,,,,,,,,,,,644676,,,,,,,
836480,note_on,0,0,1,,,,,,,,,,,,,,,0,,,89,49
836480,note_on,160,0,1,,,,,,,,,,,,,,,0,,,89,0
836502,control_change,102,0,2,,,,,,,,,,,,,,,0,64,0,,
836560,note_on,80,0,1,,,,,,,,,,,,,,,0,,,89,0
836640,note_on,80,0,1,,,,,,,,,,,,,,,0,,,81,45
836640,note_on,0,0,1,,,,,,,,,,,,,,,0,,,84,54
836640,note_on,138,0,2,,,,,,,,,,,,,,,0,,,65,31
836640,note_on,0,0,2,,,,,,,,,,,,,,,0,,,72,31
836640,note_on,0,0,2,,,,,,,,,,,,,,,0,,,75,38
836697,control_change,57,0,2,,,,,,,,,,,,,,,0,64,127,,
836760,set_tempo,320,1,0,,,,,,,,,,,,648298,,,,,,,
836800,note_on,160,0,1,,,,,,,,,,,,,,,0,,,84,0
836800,note_on,0,0,1,,,,,,,,,,,,,,,0,,,81,0
836800,note_on,0,0,1,,,,,,,,,,,,,,,0,,,89,48
836880,note_on,183,0,2,,,,,,,,,,,,,,,0,,,75,0
836880,note_on,0,0,2,,,,,,,,,,,,,,,0,,,65,0
836880,note_on,0,0,2,,,,,,,,,,,,,,,0,,,72,0
836960,note_on,0,0,1,,,,,,,,,,,,,,,0,,,89,48
836960,note_on,160,0,1,,,,,,,,,,,,,,,0,,,89,0
837028,control_change,148,0,2,,,,,,,,,,,,,,,0,64,0,,
837040,note_on,80,0,1,,,,,,,,,,,,,,,0,,,89,0
837040,set_tempo,280,1,0,,,,,,,,,,,,652032,,,,,,,
837120,set_tempo,80,1,0,,,,,,,,,,,,648298,,,,,,,
837120,note_on,0,0,2,,,,,,,,,,,,,,,0,,,60,31
837120,note_on,0,0,2,,,,,,,,,,,,,,,0,,,57,26
837120,note_on,80,0,1,,,,,,,,,,,,,,,0,,,75,45
837120,note_on,92,0,2,,,,,,,,,,,,,,,0,,,51,26
837166,control_change,46,0,2,,,,,,,,,,,,,,,0,64,127,,
837280,note_on,0,0,1,,,,,,,,,,,,,,,0,,,78,42
837280,note_on,160,0,1,,,,,,,,,,,,,,,0,,,75,0
837360,note_on,194,0,2,,,,,,,,,,,,,,,0,,,60,0
837360,note_on,0,0,2,,,,,,,,,,,,,,,0,,,51,0
837360,note_on,0,0,2,,,,,,,,,,,,,,,0,,,57,0
837440,note_on,0,0,1,,,,,,,,,,,,,,,0,,,78,42
837440,note_on,160,0,1,,,,,,,,,,,,,,,0,,,78,0
837462,control_change,102,0,2,,,,,,,,,,,,,,,0,64,0,,
837520,note_on,80,0,1,,,,,,,,,,,,,,,0,,,78,0
837600,note_on,138,0,2,,,,,,,,,,,,,,,0,,,51,25
837600,note_on,0,0,2,,,,,,,,,,,,,,,0,,,60,31
837600,note_on,0,0,2,,,,,,,,,,,,,,,0,,,57,25
837600,note_on,80,0,1,,,,,,,,,,,,,,,0,,,75,46
837632,control_change,32,0,2,,,,,,,,,,,,,,,0,64,127,,
837760,note_on,0,0,1,,,,,,,,,,,,,,,0,,,77,45
837760,note_on,160,0,1,,,,,,,,,,,,,,,0,,,75,0
837840,note_on,208,0,2,,,,,,,,,,,,,,,0,,,57,0
837840,note_on,0,0,2,,,,,,,,,,,,,,,0,,,51,0
837840,note_on,0,0,2,,,,,,,,,,,,,,,0,,,60,0
837920,note_on,0,0,1,,,,,,,,,,,,,,,0,,,77,45
837920,note_on,160,0,1,,,,,,,,,,,,,,,0,,,77,0
837949,control_change,109,0,2,,,,,,,,,,,,,,,0,64,0,,
838000,note_on,80,0,1,,,,,,,,,,,,,,,0,,,77,0
838080,note_on,0,0,2,,,,,,,,,,,,,,,0,,,60,31
838080,note_on,0,0,1,,,,,,,,,,,,,,,0,,,72,48
838080,note_on,80,0,1,,,,,,,,,,,,,,,0,,,69,41
838080,note_on,0,0,2,,,,,,,,,,,,,,,0,,,57,26
838080,note_on,131,0,2,,,,,,,,,,,,,,,0,,,51,26
838131,control_change,51,0,2,,,,,,,,,,,,,,,0,64,127,,
838240,note_on,0,0,1,,,,,,,,,,,,,,,0,,,78,45
838240,note_on,0,0,1,,,,,,,,,,,,,,,0,,,69,0
838240,note_on,160,0,1,,,,,,,,,,,,,,,0,,,72,0
838320,note_on,189,0,2,,,,,,,,,,,,,,,0,,,60,0
838320,note_on,0,0,2,,,,,,,,,,,,,,,0,,,51,0
838320,note_on,0,0,2,,,,,,,,,,,,,,,0,,,57,0
838400,note_on,160,0,1,,,,,,,,,,,,,,,0,,,78,0
838400,note_on,0,0,1,,,,,,,,,,,,,,,0,,,78,45
838447,control_change,127,0,2,,,,,,,,,,,,,,,0,64,0,,
838480,note_on,80,0,1,,,,,,,,,,,,,,,0,,,78,0
838560,note_on,0,0,2,,,,,,,,,,,,,,,0,,,60,33
838560,note_on,0,0,2,,,,,,,,,,,,,,,0,,,57,27
838560,note_on,113,0,2,,,,,,,,,,,,,,,0,,,51,27
838560,note_on,0,0,1,,,,,,,,,,,,,,,0,,,72,50
838560,note_on,80,0,1,,,,,,,,,,,,,,,0,,,69,42
838617,control_change,57,0,2,,,,,,,,,,,,,,,0,64,127,,
838720,note_on,0,0,1,,,,,,,,,,,,,,,0,,,77,46
838720,note_on,0,0,1,,,,,,,,,,,,,,,0,,,69,0
838720,note_on,160,0,1,,,,,,,,,,,,,,,0,,,72,0
838800,note_on,0,0,2,,,,,,,,,,,,,,,0,,,51,0
838800,note_on,0,0,2,,,,,,,,,,,,,,,0,,,57,0
838800,note_on,183,0,2,,,,,,,,,,,,,,,0,,,60,0
838880,note_on,0,0,1,,,,,,,,,,,,,,,0,,,77,47
838880,note_on,160,0,1,,,,,,,,,,,,,,,0,,,77,0
838906,control_change,106,0,2,,,,,,,,,,,,,,,0,64,0,,
838960,note_on,80,0,1,,,,,,,,,,,,,,,0,,,77,0
839040,note_on,80,0,1,,,,,,,,,,,,,,,0,,,68,44
839040,note_on,0,0,1,,,,,,,,,,,,,,,0,,,73,52
839040,note_on,0,0,2,,,,,,,,,,,,,,,0,,,61,36
839040,note_on,134,0,2,,,,,,,,,,,,,,,0,,,49,29
839040,note_on,0,0,2,,,,,,,,,,,,,,,0,,,56,29
839080,set_tempo,1960,1,0,,,,,,,,,,,,648298,,,,,,,
839103,control_change,63,0,2,,,,,,,,,,,,,,,0,64,127,,
839200,note_on,160,0,1,,,,,,,,,,,,,,,0,,,73,0
839200,note_on,0,0,1,,,,,,,,,,,,,,,0,,,68,0
839200,note_on,0,0,1,,,,,,,,,,,,,,,0,,,78,48
839280,note_on,0,0,2,,,,,,,,,,,,,,,0,,,49,0
839280,note_on,0,0,2,,,,,,,,,,,,,,,0,,,56,0
839280,note_on,177,0,2,,,,,,,,,,,,,,,0,,,61,0
839280,set_tempo,200,1,0,,,,,,,,,,,,652032,,,,,,,
839360,note_on,0,0,1,,,,,,,,,,,,,,,0,,,78,48
839360,note_on,160,0,1,,,,,,,,,,,,,,,0,,,78,0
839400,control_change,120,0,2,,,,,,,,,,,,,,,0,64,0,,
839440,note_on,80,0,1,,,,,,,,,,,,,,,0,,,78,0
839480,set_tempo,200,1,0,,,,,,,,,,,,655738,,,,,,,
839520,note_on,0,0,2,,,,,,,,,,,,,,,0,,,56,27
839520,note_on,0,0,2,,,,,,,,,,,,,,,0,,,61,34
839520,note_on,0,0,1,,,,,,,,,,,,,,,0,,,73,52
839520,note_on,80,0,1,,,,,,,,,,,,,,,0,,,68,44
839520,note_on,120,0,2,,,,,,,,,,,,,,,0,,,49,27
839552,control_change,32,0,2,,,,,,,,,,,,,,,0,64,127,,
839680,note_on,0,0,1,,,,,,,,,,,,,,,0,,,68,0
839680,note_on,160,0,1,,,,,,,,,,,,,,,0,,,73,0
839680,set_tempo,200,1,0,,,,,,,,,,,,659631,,,,,,,
839680,note_on,0,0,1,,,,,,,,,,,,,,,0,,,77,48
839760,note_on,0,0,2,,,,,,,,,,,,,,,0,,,61,0
839760,note_on,208,0,2,,,,,,,,,,,,,,,0,,,56,0
839760,note_on,0,0,2,,,,,,,,,,,,,,,0,,,49,0
839840,set_tempo,160,1,0,,,,,,,,,,,,663423,,,,,,,
839840,note_on,160,0,1,,,,,,,,,,,,,,,0,,,77,0
839840,note_on,0,0,1,,,,,,,,,,,,,,,0,,,77,48
839884,control_change,124,0,2,,,,,,,,,,,,,,,0,64,0,,
839920,note_on,80,0,1,,,,,,,,,,,,,,,0,,,77,0
840000,note_on,80,0,1,,,,,,,,,,,,,,,0,,,68,43
840000,note_on,116,0,2,,,,,,,,,,,,,,,0,,,51,27
840000,note_on,0,0,2,,,,,,,,,,,,,,,0,,,56,27
840000,note_on,0,0,2,,,,,,,,,,,,,,,0,,,60,33
840000,note_on,0,0,1,,,,,,,,,,,,,,,0,,,72,51
840040,set_tempo,200,1,0,,,,,,,,,,,,667260,,,,,,,
840051,control_change,51,0,2,,,,,,,,,,,,,,,0,64,127,,
840160,note_on,160,0,1,,,,,,,,,,,,,,,0,,,72,0
840160,note_on,0,0,1,,,,,,,,,,,,,,,0,,,68,0
840160,note_on,0,0,1,,,,,,,,,,,,,,,0,,,75,47
840240,note_on,189,0,2,,,,,,,,,,,,,,,0,,,60,0
840240,note_on,0,0,2,,,,,,,,,,,,,,,0,,,51,0
840240,set_tempo,200,1,0,,,,,,,,,,,,671216,,,,,,,
840240,note_on,0,0,2,,,,,,,,,,,,,,,0,,,56,0
840320,note_on,160,0,1,,,,,,,,,,,,,,,0,,,75,0
840320,note_on,0,0,1,,,,,,,,,,,,,,,0,,,75,46
840367,control_change,127,0,2,,,,,,,,,,,,,,,0,64,0,,
840400,set_tempo,160,1,0,,,,,,,,,,,,675143,,,,,,,
840400,note_on,80,0,1,,,,,,,,,,,,,,,0,,,75,0
840480,note_on,80,0,1,,,,,,,,,,,,,,,0,,,67,43
840480,note_on,0,0,1,,,,,,,,,,,,,,,0,,,70,51
840480,note_on,0,0,2,,,,,,,,,,,,,,,0,,,61,34
840480,note_on,0,0,2,,,,,,,,,,,,,,,0,,,58,27
840480,note_on,113,0,2,,,,,,,,,,,,,,,0,,,51,27
840537,control_change,57,0,2,,,,,,,,,,,,,,,0,64,127,,
840600,set_tempo,200,1,0,,,,,,,,,,,,679194,,,,,,,
840640,note_on,0,0,1,,,,,,,,,,,,,,,0,,,67,0
840640,note_on,0,0,1,,,,,,,,,,,,,,,0,,,75,46
840640,note_on,160,0,1,,,,,,,,,,,,,,,0,,,70,0
840720,note_on,0,0,2,,,,,,,,,,,,,,,0,,,58,0
840720,note_on,0,0,2,,,,,,,,,,,,,,,0,,,51,0
840720,note_on,183,0,2,,,,,,,,,,,,,,,0,,,61,0
840800,set_tempo,200,1,0,,,,,,,,,,,,683293,,,,,,,
840800,note_on,160,0,1,,,,,,,,,,,,,,,0,,,75,0
840800,note_on,0,0,1,,,,,,,,,,,,,,,0,,,75,46
840836,control_change,116,0,2,,,,,,,,,,,,,,,0,64,0,,
840880,note_on,80,0,1,,,,,,,,,,,,,,,0,,,75,0
840960,set_tempo,160,1,0,,,,,,,,,,,,652032,,,,,,,
841920,note_on,0,0,1,,,,,,,,,,,,,,,0,,,83,48
841920,note_on,1084,0,2,,,,,,,,,,,,,,,0,,,71,31
841920,note_on,1040,0,1,,,,,,,,,,,,,,,0,,,78,41
841920,set_tempo,960,1,0,,,,,,,,,,,,648298,,,,,,,
841940,control_change,20,0,2,,,,,,,,,,,,,,,0,64,0,,
841971,control_change,31,0,2,,,,,,,,,,,,,,,0,64,127,,
842080,note_on,160,0,1,,,,,,,,,,,,,,,0,,,83,0
842080,note_on,0,0,1,,,,,,,,,,,,,,,0,,,78,0
842080,note_on,0,0,1,,,,,,,,,,,,,,,0,,,87,45
842160,note_on,189,0,2,,,,,,,,,,,,,,,0,,,71,0
842240,note_on,160,0,1,,,,,,,,,,,,,,,0,,,87,0
842240,note_on,0,0,1,,,,,,,,,,,,,,,0,,,87,45
842273,control_change,113,0,2,,,,,,,,,,,,,,,0,64,0,,
842320,note_on,80,0,1,,,,,,,,,,,,,,,0,,,87,0
842400,note_on,80,0,1,,,,,,,,,,,,,,,0,,,78,41
842400,note_on,127,0,2,,,,,,,,,,,,,,,0,,,68,33
842400,note_on,0,0,1,,,,,,,,,,,,,,,0,,,83,49
842457,control_change,57,0,2,,,,,,,,,,,,,,,0,64,127,,
842560,note_on,0,0,1,,,,,,,,,,,,,,,0,,,86,44
842560,note_on,0,0,1,,,,,,,,,,,,,,,0,,,78,0
842560,note_on,160,0,1,,,,,,,,,,,,,,,0,,,83,0
842640,note_on,183,0,2,,,,,,,,,,,,,,,0,,,68,0
842720,note_on,160,0,1,,,,,,,,,,,,,,,0,,,86,0
842720,note_on,0,0,1,,,,,,,,,,,,,,,0,,,86,44
842756,control_change,116,0,2,,,,,,,,,,,,,,,0,64,0,,
842800,note_on,80,0,1,,,,,,,,,,,,,,,0,,,86,0
842880,note_on,80,0,1,,,,,,,,,,,,,,,0,,,78,42
842880,note_on,124,0,2,,,,,,,,,,,,,,,0,,,73,33
842880,note_on,0,0,1,,,,,,,,,,,,,,,0,,,82,50
842920,set_tempo,1000,1,0,,,,,,,,,,,,648298,,,,,,,
842943,control_change,63,0,2,,,,,,,,,,,,,,,0,64,127,,
843040,note_on,160,0,1,,,,,,,,,,,,,,,0,,,82,0
843040,note_on,0,0,1,,,,,,,,,,,,,,,0,,,78,0
843040,note_on,0,0,1,,,,,,,,,,,,,,,0,,,85,46
843120,note_on,177,0,2,,,,,,,,,,,,,,,0,,,73,0
843120,set_tempo,200,1,0,,,,,,,,,,,,652032,,,,,,,
843200,note_on,160,0,1,,,,,,,,,,,,,,,0,,,85,0
843200,note_on,0,0,1,,,,,,,,,,,,,,,0,,,85,46
843261,control_change,141,0,2,,,,,,,,,,,,,,,0,64,0,,
843280,note_on,80,0,1,,,,,,,,,,,,,,,0,,,85,0
843320,set_tempo,200,1,0,,,,,,,,,,,,655738,,,,,,,
843360,note_on,99,0,2,,,,,,,,,,,,,,,0,,,73,31
843360,note_on,80,0,1,,,,,,,,,,,,,,,0,,,77,40
843360,note_on,0,0,1,,,,,,,,,,,,,,,0,,,80,48
843392,control_change,32,0,2,,,,,,,,,,,,,,,0,64,127,,
843520,set_tempo,200,1,0,,,,,,,,,,,,659631,,,,,,,
843520,note_on,160,0,1,,,,,,,,,,,,,,,0,,,80,0
843520,note_on,0,0,1,,,,,,,,,,,,,,,0,,,77,0
843520,note_on,0,0,1,,,,,,,,,,,,,,,0,,,85,44
843600,note_on,208,0,2,,,,,,,,,,,,,,,0,,,73,0
843680,set_tempo,160,1,0,,,,,,,,,,,,663423,,,,,,,
843680,note_on,160,0,1,,,,,,,,,,,,,,,0,,,85,0
843680,note_on,0,0,1,,,,,,,,,,,,,,,0,,,85,44
843748,control_change,148,0,2,,,,,,,,,,,,,,,0,64,0,,
843760,note_on,80,0,1,,,,,,,,,,,,,,,0,,,85,0
844320,note_on,0,0,1,,,,,,,,,,,,,,,0,,,69,44
844320,note_on,560,0,1,,,,,,,,,,,,,,,0,,,66,37
844320,set_tempo,640,1,0,,,,,,,,,,,,659631,,,,,,,
844320,note_on,0,0,2,,,,,,,,,,,,,,,0,,,49,29
844320,control_change,572,0,2,,,,,,,,,,,,,,,0,64,0,,
844377,control_change,57,0,2,,,,,,,,,,,,,,,0,64,127,,
844480,note_on,0,0,1,,,,,,,,,,,,,,,0,,,66,0
844480,note_on,160,0,1,,,,,,,,,,,,,,,0,,,69,0
844480,note_on,0,0,1,,,,,,,,,,,,,,,0,,,73,39
844560,note_on,183,0,2,,,,,,,,,,,,,,,0,,,49,0
844640,note_on,0,0,1,,,,,,,,,,,,,,,0,,,73,39
844640,note_on,160,0,1,,,,,,,,,,,,,,,0,,,73,0
844694,control_change,134,0,2,,,,,,,,,,,,,,,0,64,0,,
844720,note_on,80,0,1,,,,,,,,,,,,,,,0,,,73,0
844800,set_tempo,480,1,0,,,,,,,,,,,,675143,,,,,,,
844800,note_on,106,0,2,,,,,,,,,,,,,,,0,,,49,29
844800,note_on,80,0,1,,,,,,,,,,,,,,,0,,,65,38
844800,note_on,0,0,1,,,,,,,,,,,,,,,0,,,68,45
844863,control_change,63,0,2,,,,,,,,,,,,,,,0,64,127,,
844960,note_on,160,0,1,,,,,,,,,,,,,,,0,,,68,0
844960,note_on,0,0,1,,,,,,,,,,,,,,,0,,,65,0
844960,note_on,0,0,1,,,,,,,,,,,,,,,0,,,73,41
845040,note_on,177,0,2,,,,,,,,,,,,,,,0,,,49,0
845120,note_on,160,0,1,,,,,,,,,,,,,,,0,,,73,0
845120,note_on,0,0,1,,,,,,,,,,,,,,,0,,,73,41
845185,control_change,145,0,2,,,,,,,,,,,,,,,0,64,0,,
845200,note_on,80,0,1,,,,,,,,,,,,,,,0,,,73,0
845760,note_on,0,0,2,,,,,,,,,,,,,,,0,,,50,26
845760,control_change,575,0,2,,,,,,,,,,,,,,,0,64,0,,
845760,set_tempo,960,1,0,,,,,,,,,,,,687364,,,,,,,
845760,note_on,560,0,1,,,,,,,,,,,,,,,0,,,65,33
845760,note_on,0,0,1,,,,,,,,,,,,,,,0,,,68,39
845817,control_change,57,0,2,,,,,,,,,,,,,,,0,64,127,,
845920,note_on,160,0,1,,,,,,,,,,,,,,,0,,,68,0
845920,note_on,0,0,1,,,,,,,,,,,,,,,0,,,65,0
845920,note_on,0,0,1,,,,,,,,,,,,,,,0,,,71,35
846000,note_on,183,0,2,,,,,,,,,,,,,,,0,,,50,0
846080,note_on,160,0,1,,,,,,,,,,,,,,,0,,,71,0
846080,note_on,0,0,1,,,,,,,,,,,,,,,0,,,71,35
846124,control_change,124,0,2,,,,,,,,,,,,,,,0,64,0,,
846160,note_on,80,0,1,,,,,,,,,,,,,,,0,,,71,0
846240,set_tempo,480,1,0,,,,,,,,,,,,745712,,,,,,,
846240,note_on,116,0,2,,,,,,,,,,,,,,,0,,,50,26
846240,note_on,80,0,1,,,,,,,,,,,,,,,0,,,65,34
846240,note_on,0,0,1,,,,,,,,,,,,,,,0,,,68,40
846303,control_change,63,0,2,,,,,,,,,,,,,,,0,64,127,,
846400,note_on,0,0,1,,,,,,,,,,,,,,,0,,,70,36
846400,note_on,160,0,1,,,,,,,,,,,,,,,0,,,68,0
846400,note_on,0,0,1,,,,,,,,,,,,,,,0,,,65,0
846480,note_on,177,0,2,,,,,,,,,,,,,,,0,,,50,0
846560,note_on,0,0,1,,,,,,,,,,,,,,,0,,,70,36
846560,note_on,160,0,1,,,,,,,,,,,,,,,0,,,70,0
846600,control_change,120,0,2,,,,,,,,,,,,,,,0,64,0,,
846640,note_on,80,0,1,,,,,,,,,,,,,,,0,,,70,0
846720,set_tempo,480,1,0,,,,,,,,,,,,691483,,,,,,,
847200,note_on,600,0,2,,,,,,,,,,,,,,,0,,,62,26
847200,note_on,560,0,1,,,,,,,,,,,,,,,0,,,77,40
847200,note_on,0,0,1,,,,,,,,,,,,,,,0,,,80,40
847200,set_tempo,480,1,0,,,,,,,,,,,,663423,,,,,,,
847228,control_change,28,0,2,,,,,,,,,,,,,,,0,64,127,,
847360,note_on,0,0,1,,,,,,,,,,,,,,,0,,,82,36
847360,note_on,0,0,1,,,,,,,,,,,,,,,0,,,77,0
847360,note_on,160,0,1,,,,,,,,,,,,,,,0,,,80,0
847440,note_on,212,0,2,,,,,,,,,,,,,,,0,,,62,0
847520,note_on,0,0,1,,,,,,,,,,,,,,,0,,,82,36
847520,note_on,160,0,1,,,,,,,,,,,,,,,0,,,82,0
847571,control_change,131,0,2,,,,,,,,,,,,,,,0,64,0,,
847600,note_on,80,0,1,,,,,,,,,,,,,,,0,,,82,0
847680,note_on,109,0,2,,,,,,,,,,,,,,,0,,,63,27
847680,note_on,80,0,1,,,,,,,,,,,,,,,0,,,75,45
847680,note_on,0,0,1,,,,,,,,,,,,,,,0,,,80,45
847729,control_change,49,0,2,,,,,,,,,,,,,,,0,64,127,,
847840,note_on,160,0,1,,,,,,,,,,,,,,,0,,,80,0
847840,note_on,0,0,1,,,,,,,,,,,,,,,0,,,75,0
847840,note_on,0,0,1,,,,,,,,,,,,,,,0,,,84,37
847920,note_on,191,0,2,,,,,,,,,,,,,,,0,,,63,0
848000,note_on,160,0,1,,,,,,,,,,,,,,,0,,,84,0
848000,note_on,0,0,1,,,,,,,,,,,,,,,0,,,84,37
848040,control_change,120,0,2,,,,,,,,,,,,,,,0,64,0,,
848080,note_on,80,0,1,,,,,,,,,,,,,,,0,,,84,0
848160,note_on,0,0,1,,,,,,,,,,,,,,,0,,,79,45
848160,note_on,80,0,1,,,,,,,,,,,,,,,0,,,75,45
848160,note_on,120,0,2,,,,,,,,,,,,,,,0,,,51,30
848231,control_change,71,0,2,,,,,,,,,,,,,,,0,64,127,,
848320,note_on,160,0,1,,,,,,,,,,,,,,,0,,,79,0
848320,note_on,0,0,1,,,,,,,,,,,,,,,0,,,75,0
848320,note_on,0,0,1,,,,,,,,,,,,,,,0,,,82,39
848400,note_on,169,0,2,,,,,,,,,,,,,,,0,,,51,0
848480,note_on,160,0,1,,,,,,,,,,,,,,,0,,,82,0
848480,note_on,0,0,1,,,,,,,,,,,,,,,0,,,82,39
848480,set_tempo,1280,1,0,,,,,,,,,,,,700035,,,,,,,
848538,control_change,138,0,2,,,,,,,,,,,,,,,0,64,0,,
848560,note_on,80,0,1,,,,,,,,,,,,,,,0,,,82,0
848640,note_on,0,0,1,,,,,,,,,,,,,,,0,,,67,47
848640,set_tempo,160,1,0,,,,,,,,,,,,671216,,,,,,,
848640,note_on,102,0,2,,,,,,,,,,,,,,,0,,,53,33
848640,note_on,80,0,1,,,,,,,,,,,,,,,0,,,63,39
848709,control_change,69,0,2,,,,,,,,,,,,,,,0,64,127,,
848800,note_on,160,0,1,,,,,,,,,,,,,,,0,,,67,0
848800,note_on,0,0,1,,,,,,,,,,,,,,,0,,,63,0
848800,note_on,0,0,1,,,,,,,,,,,,,,,0,,,70,40
848880,note_on,171,0,2,,,,,,,,,,,,,,,0,,,53,0
848960,set_tempo,320,1,0,,,,,,,,,,,,675143,,,,,,,
848960,note_on,160,0,1,,,,,,,,,,,,,,,0,,,70,0
848960,note_on,0,0,1,,,,,,,,,,,,,,,0,,,70,40
849007,control_change,127,0,2,,,,,,,,,,,,,,,0,64,0,,
849040,note_on,80,0,1,,,,,,,,,,,,,,,0,,,70,0
849120,note_on,80,0,1,,,,,,,,,,,,,,,0,,,62,43
849120,note_on,0,0,1,,,,,,,,,,,,,,,0,,,65,51
849120,note_on,113,0,2,,,,,,,,,,,,,,,0,,,53,35
849177,control_change,57,0,2,,,,,,,,,,,,,,,0,64,127,,
849280,note_on,160,0,1,,,,,,,,,,,,,,,0,,,65,0
849280,note_on,0,0,1,,,,,,,,,,,,,,,0,,,62,0
849280,note_on,0,0,1,,,,,,,,,,,,,,,0,,,70,46
849280,set_tempo,320,1,0,,,,,,,,,,,,679194,,,,,,,
849360,note_on,183,0,2,,,,,,,,,,,,,,,0,,,53,0
849440,note_on,0,0,1,,,,,,,,,,,,,,,0,,,70,46
849440,set_tempo,160,1,0,,,,,,,,,,,,726744,,,,,,,
849440,note_on,160,0,1,,,,,,,,,,,,,,,0,,,70,0
849487,control_change,127,0,2,,,,,,,,,,,,,,,0,64,0,,
849520,note_on,80,0,1,,,,,,,,,,,,,,,0,,,70,0
849560,set_tempo,120,1,0,,,,,,,,,,,,683293,,,,,,,
849600,note_on,113,0,2,,,,,,,,,,,,,,,0,,,63,41
849600,set_tempo,40,1,0,,,,,,,,,,,,687364,,,,,,,
849600,note_on,0,0,2,,,,,,,,,,,,,,,0,,,53,35
849600,note_on,0,0,2,,,,,,,,,,,,,,,0,,,60,35
849600,note_on,0,0,1,,,,,,,,,,,,,,,0,,,70,58
849600,note_on,80,0,1,,,,,,,,,,,,,,,0,,,65,49
849674,control_change,74,0,2,,,,,,,,,,,,,,,0,64,127,,
849720,set_tempo,120,1,0,,,,,,,,,,,,691483,,,,,,,
849760,note_on,160,0,1,,,,,,,,,,,,,,,0,,,70,0
849760,note_on,0,0,1,,,,,,,,,,,,,,,0,,,77,50
849760,note_on,0,0,1,,,,,,,,,,,,,,,0,,,65,0
849800,set_tempo,80,1,0,,,,,,,,,,,,695814,,,,,,,
849840,note_on,0,0,2,,,,,,,,,,,,,,,0,,,63,0
849840,note_on,166,0,2,,,,,,,,,,,,,,,0,,,53,0
849840,note_on,0,0,2,,,,,,,,,,,,,,,0,,,60,0
849920,note_on,0,0,1,,,,,,,,,,,,,,,0,,,77,50
849920,note_on,160,0,1,,,,,,,,,,,,,,,0,,,77,0
849920,set_tempo,120,1,0,,,,,,,,,,,,700035,,,,,,,
849974,control_change,134,0,2,,,,,,,,,,,,,,,0,64,0,,
850000,set_tempo,80,1,0,,,,,,,,,,,,704308,,,,,,,
850000,note_on,80,0,1,,,,,,,,,,,,,,,0,,,77,0
850080,note_on,0,0,2,,,,,,,,,,,,,,,0,,,60,36
850080,note_on,0,0,2,,,,,,,,,,,,,,,0,,,63,42
850080,note_on,80,0,1,,,,,,,,,,,,,,,0,,,65,50
850080,note_on,0,0,1,,,,,,,,,,,,,,,0,,,69,60
850080,note_on,106,0,2,,,,,,,,,,,,,,,0,,,53,36
850120,set_tempo,120,1,0,,,,,,,,,,,,708717,,,,,,,
850149,control_change,69,0,2,,,,,,,,,,,,,,,0,64,127,,
850200,set_tempo,80,1,0,,,,,,,,,,,,713182,,,,,,,
850240,note_on,160,0,1,,,,,,,,,,,,,,,0,,,69,0
850240,note_on,0,0,1,,,,,,,,,,,,,,,0,,,65,0
850240,note_on,0,0,1,,,,,,,,,,,,,,,0,,,77,53
850280,set_tempo,80,1,0,,,,,,,,,,,,717618,,,,,,,
850320,note_on,0,0,2,,,,,,,,,,,,,,,0,,,60,0
850320,note_on,171,0,2,,,,,,,,,,,,,,,0,,,63,0
850320,note_on,0,0,2,,,,,,,,,,,,,,,0,,,53,0
850400,set_tempo,120,1,0,,,,,,,,,,,,776297,,,,,,,
850400,note_on,0,0,1,,,,,,,,,,,,,,,0,,,77,53
850400,note_on,160,0,1,,,,,,,,,,,,,,,0,,,77,0
850401,control_change,81,0,2,,,,,,,,,,,,,,,0,64,0,,
850480,note_on,80,0,1,,,,,,,,,,,,,,,0,,,77,0
850560,set_tempo,160,1,0,,,,,,,,,,,,713182,,,,,,,
850560,note_on,0,0,1,,,,,,,,,,,,,,,0,,,65,58
850560,note_on,0,0,1,,,,,,,,,,,,,,,0,,,70,58
850560,note_on,0,0,2,,,,,,,,,,,,,,,0,,,58,42
850560,note_on,0,0,2,,,,,,,,,,,,,,,0,,,46,36
850560,control_change,0,0,2,,,,,,,,,,,,,,,0,64,127,,
850560,note_on,159,0,2,,,,,,,,,,,,,,,0,,,53,36
850560,note_on,80,0,1,,,,,,,,,,,,,,,0,,,62,58
850680,note_on,120,0,1,,,,,,,,,,,,,,,0,,,70,0
850680,note_on,0,0,1,,,,,,,,,,,,,,,0,,,65,0
850680,note_on,0,0,1,,,,,,,,,,,,,,,0,,,62,0
850680,note_on,0,0,2,,,,,,,,,,,,,,,0,,,46,0
850680,note_on,120,0,2,,,,,,,,,,,,,,,0,,,58,0
850680,note_on,0,0,2,,,,,,,,,,,,,,,0,,,53,0
850720,note_on,40,0,1,,,,,,,,,,,,,,,0,,,65,47
850880,note_on,0,0,1,,,,,,,,,,,,,,,0,,,62,47
850880,note_on,160,0,1,,,,,,,,,,,,,,,0,,,65,0
851040,note_on,0,0,1,,,,,,,,,,,,,,,0,,,65,47
851040,note_on,160,0,1,,,,,,,,,,,,,,,0,,,62,0
851200,note_on,160,0,1,,,,,,,,,,,,,,,0,,,65,0
851200,note_on,0,0,1,,,,,,,,,,,,,,,0,,,70,51
851360,note_on,0,0,1,,,,,,,,,,,,,,,0,,,74,55
851360,note_on,160,0,1,,,,,,,,,,,,,,,0,,,70,0
851520,note_on,840,0,2,,,,,,,,,,,,,,,0,,,62,36
851520,note_on,0,0,2,,,,,,,,,,,,,,,0,,,65,44
851520,set_tempo,960,1,0,,,,,,,,,,,,683293,,,,,,,
851520,note_on,0,0,1,,,,,,,,,,,,,,,0,,,77,68
851520,note_on,160,0,1,,,,,,,,,,,,,,,0,,,74,0
851569,control_change,49,0,2,,,,,,,,,,,,,,,0,64,0,,
851612,control_change,43,0,2,,,,,,,,,,,,,,,0,64,127,,
852000,note_on,480,0,1,,,,,,,,,,,,,,,0,,,67,48
852240,note_on,0,0,1,,,,,,,,,,,,,,,0,,,77,0
852240,note_on,240,0,1,,,,,,,,,,,,,,,0,,,67,0
852240,note_on,0,0,1,,,,,,,,,,,,,,,0,,,75,54
852240,note_on,0,0,1,,,,,,,,,,,,,,,0,,,69,45
852240,note_on,628,0,2,,,,,,,,,,,,,,,0,,,62,0
852240,set_tempo,720,1,0,,,,,,,,,,,,736196,,,,,,,
852240,note_on,0,0,2,,,,,,,,,,,,,,,0,,,60,30
852240,note_on,0,0,2,,,,,,,,,,,,,,,0,,,63,36
852480,note_on,240,0,1,,,,,,,,,,,,,,,0,,,75,0
852480,note_on,0,0,1,,,,,,,,,,,,,,,0,,,74,56
852480,note_on,0,0,1,,,,,,,,,,,,,,,0,,,70,47
852480,note_on,0,0,1,,,,,,,,,,,,,,,0,,,65,47
852480,note_on,0,0,1,,,,,,,,,,,,,,,0,,,69,0
852480,note_on,240,0,2,,,,,,,,,,,,,,,0,,,63,0
852480,set_tempo,240,1,0,,,,,,,,,,,,695814,,,,,,,
852480,note_on,0,0,2,,,,,,,,,,,,,,,0,,,65,0
852480,note_on,0,0,2,,,,,,,,,,,,,,,0,,,58,36
852480,note_on,0,0,2,,,,,,,,,,,,,,,0,,,62,44
852480,control_change,0,0,2,,,,,,,,,,,,,,,0,64,0,,
852480,note_on,0,0,2,,,,,,,,,,,,,,,0,,,60,0
852544,control_change,64,0,2,,,,,,,,,,,,,,,0,64,127,,
852960,note_on,0,0,2,,,,,,,,,,,,,,,0,,,56,38
852960,note_on,0,0,1,,,,,,,,,,,,,,,0,,,74,62
852960,note_on,0,0,1,,,,,,,,,,,,,,,0,,,72,52
852960,note_on,0,0,1,,,,,,,,,,,,,,,0,,,66,52
852960,note_on,480,0,1,,,,,,,,,,,,,,,0,,,74,0
852960,note_on,0,0,1,,,,,,,,,,,,,,,0,,,70,0
852960,note_on,0,0,2,,,,,,,,,,,,,,,0,,,58,0
852960,note_on,416,0,2,,,,,,,,,,,,,,,0,,,62,0
852960,note_on,0,0,1,,,,,,,,,,,,,,,0,,,65,0
852960,note_on,0,0,2,,,,,,,,,,,,,,,0,,,62,45
852988,control_change,28,0,2,,,,,,,,,,,,,,,0,64,0,,
853122,control_change,134,0,2,,,,,,,,,,,,,,,0,64,127,,
853440,note_on,0,0,1,,,,,,,,,,,,,,,0,,,65,54
853440,note_on,0,0,1,,,,,,,,,,,,,,,0,,,67,54
853440,note_on,480,0,1,,,,,,,,,,,,,,,0,,,74,0
853440,note_on,0,0,1,,,,,,,,,,,,,,,0,,,72,0
853440,note_on,0,0,1,,,,,,,,,,,,,,,0,,,66,0
853440,note_on,0,0,2,,,,,,,,,,,,,,,0,,,55,40
853440,note_on,0,0,2,,,,,,,,,,,,,,,0,,,62,48
853440,note_on,318,0,2,,,,,,,,,,,,,,,0,,,62,0
853440,note_on,0,0,1,,,,,,,,,,,,,,,0,,,74,64
853440,note_on,0,0,1,,,,,,,,,,,,,,,0,,,71,54
853440,note_on,0,0,2,,,,,,,,,,,,,,,0,,,56,0
853461,control_change,21,0,2,,,,,,,,,,,,,,,0,64,0,,
853588,control_change,127,0,2,,,,,,,,,,,,,,,0,64,127,,
853920,note_on,332,0,2,,,,,,,,,,,,,,,0,,,62,0
853920,note_on,0,0,1,,,,,,,,,,,,,,,0,,,67,55
853920,note_on,0,0,1,,,,,,,,,,,,,,,0,,,63,55
853920,note_on,0,0,2,,,,,,,,,,,,,,,0,,,55,0
853920,note_on,0,0,2,,,,,,,,,,,,,,,0,,,60,44
853920,note_on,0,0,2,,,,,,,,,,,,,,,0,,,55,37
853920,note_on,0,0,1,,,,,,,,,,,,,,,0,,,75,65
853920,note_on,0,0,1,,,,,,,,,,,,,,,0,,,71,0
853920,note_on,0,0,1,,,,,,,,,,,,,,,0,,,65,0
853920,note_on,0,0,1,,,,,,,,,,,,,,,0,,,67,0
853920,note_on,480,0,1,,,,,,,,,,,,,,,0,,,74,0
853920,note_on,0,0,2,,,,,,,,,,,,,,,0,,,48,37
853920,note_on,0,0,1,,,,,,,,,,,,,,,0,,,72,55
853984,control_change,64,0,2,,,,,,,,,,,,,,,0,64,0,,
854040,control_change,56,0,2,,,,,,,,,,,,,,,0,64,127,,
854160,set_tempo,1680,1,0,,,,,,,,,,,,736196,,,,,,,
854280,note_on,0,0,1,,,,,,,,,,,,,,,0,,,74,55
854280,note_on,360,0,1,,,,,,,,,,,,,,,0,,,75,0
854400,note_on,0,0,2,,,,,,,,,,,,,,,0,,,63,49
854400,note_on,120,0,1,,,,,,,,,,,,,,,0,,,74,0
854400,note_on,0,0,1,,,,,,,,,,,,,,,0,,,72,0
854400,note_on,0,0,1,,,,,,,,,,,,,,,0,,,67,0
854400,note_on,0,0,1,,,,,,,,,,,,,,,0,,,63,0
854400,note_on,0,0,1,,,,,,,,,,,,,,,0,,,65,44
854400,note_on,0,0,1,,,,,,,,,,,,,,,0,,,69,44
854400,note_on,0,0,1,,,,,,,,,,,,,,,0,,,72,52
854400,note_on,360,0,2,,,,,,,,,,,,,,,0,,,60,0
854400,note_on,0,0,2,,,,,,,,,,,,,,,0,,,55,0
854400,note_on,0,0,2,,,,,,,,,,,,,,,0,,,48,0
854400,set_tempo,240,1,0,,,,,,,,,,,,687364,,,,,,,
854400,note_on,0,0,2,,,,,,,,,,,,,,,0,,,53,41
854449,control_change,49,0,2,,,,,,,,,,,,,,,0,64,0,,
854541,control_change,92,0,2,,,,,,,,,,,,,,,0,64,127,,
854880,set_tempo,480,1,0,,,,,,,,,,,,687364,,,,,,,
855120,note_on,0,0,1,,,,,,,,,,,,,,,0,,,73,47
855120,note_on,720,0,1,,,,,,,,,,,,,,,0,,,72,0
855353,control_change,812,0,2,,,,,,,,,,,,,,,0,64,0,,
855360,note_on,240,0,1,,,,,,,,,,,,,,,0,,,73,0
855360,note_on,0,0,1,,,,,,,,,,,,,,,0,,,69,0
855360,note_on,0,0,1,,,,,,,,,,,,,,,0,,,70,43
855360,note_on,0,0,1,,,,,,,,,,,,,,,0,,,74,51
855360,note_on,0,0,2,,,,,,,,,,,,,,,0,,,62,38
855360,note_on,0,0,2,,,,,,,,,,,,,,,0,,,58,32
855360,note_on,0,0,2,,,,,,,,,,,,,,,0,,,53,0
855360,note_on,7,0,2,,,,,,,,,,,,,,,0,,,63,0
855400,set_tempo,520,1,0,,,,,,,,,,,,726744,,,,,,,
855480,note_on,0,0,2,,,,,,,,,,,,,,,0,,,58,0
855480,note_on,120,0,2,,,,,,,,,,,,,,,0,,,62,0
855480,note_on,120,0,1,,,,,,,,,,,,,,,0,,,74,0
855480,note_on,0,0,1,,,,,,,,,,,,,,,0,,,65,0
855480,note_on,0,0,1,,,,,,,,,,,,,,,0,,,70,0
855840,note_on,0,0,1,,,,,,,,,,,,,,,0,,,74,46
855840,note_on,0,0,1,,,,,,,,,,,,,,,0,,,70,39
855840,note_on,360,0,1,,,,,,,,,,,,,,,0,,,65,39
855840,note_on,0,0,2,,,,,,,,,,,,,,,0,,,62,34
855840,note_on,360,0,2,,,,,,,,,,,,,,,0,,,58,28
855960,note_on,0,0,1,,,,,,,,,,,,,,,0,,,70,0
855960,note_on,120,0,1,,,,,,,,,,,,,,,0,,,74,0
855960,note_on,0,0,2,,,,,,,,,,,,,,,0,,,58,0
855960,note_on,120,0,2,,,,,,,,,,,,,,,0,,,62,0
855960,note_on,0,0,1,,,,,,,,,,,,,,,0,,,65,0
856320,set_tempo,920,1,0,,,,,,,,,,,,713182,,,,,,,
856320,control_change,360,0,2,,,,,,,,,,,,,,,0,64,0,,
856480,note_on,520,0,1,,,,,,,,,,,,,,,0,,,53,47
856486,control_change,166,0,2,,,,,,,,,,,,,,,0,64,127,,
856640,note_on,160,0,1,,,,,,,,,,,,,,,0,,,53,0
856640,note_on,0,0,1,,,,,,,,,,,,,,,0,,,50,47
856800,note_on,0,0,1,,,,,,,,,,,,,,,0,,,53,47
856800,note_on,160,0,1,,,,,,,,,,,,,,,0,,,50,0
856960,note_on,0,0,1,,,,,,,,,,,,,,,0,,,58,51
856960,note_on,160,0,1,,,,,,,,,,,,,,,0,,,53,0
857120,note_on,0,0,1,,,,,,,,,,,,,,,0,,,62,55
857120,note_on,160,0,1,,,,,,,,,,,,,,,0,,,58,0
857280,note_on,0,0,2,,,,,,,,,,,,,,,0,,,53,42
857280,note_on,794,0,2,,,,,,,,,,,,,,,0,,,50,35
857280,set_tempo,960,1,0,,,,,,,,,,,,683293,,,,,,,
857280,note_on,160,0,1,,,,,,,,,,,,,,,0,,,62,0
857280,note_on,0,0,1,,,,,,,,,,,,,,,0,,,65,65
857329,control_change,49,0,2,,,,,,,,,,,,,,,0,64,0,,
857372,control_change,43,0,2,,,,,,,,,,,,,,,0,64,127,,
857517,note_on,145,0,2,,,,,,,,,,,,,,,0,,,53,0
857520,note_on,240,0,1,,,,,,,,,,,,,,,0,,,53,46
857760,note_on,240,0,1,,,,,,,,,,,,,,,0,,,55,48
858000,note_on,0,0,2,,,,,,,,,,,,,,,0,,,48,30
858000,note_on,0,0,1,,,,,,,,,,,,,,,0,,,57,45
858000,note_on,0,0,1,,,,,,,,,,,,,,,0,,,63,54
858000,set_tempo,720,1,0,,,,,,,,,,,,736196,,,,,,,
858000,note_on,483,0,2,,,,,,,,,,,,,,,0,,,50,0
858000,note_on,0,0,1,,,,,,,,,,,,,,,0,,,53,0
858000,note_on,0,0,1,,,,,,,,,,,,,,,0,,,53,45
858000,note_on,240,0,1,,,,,,,,,,,,,,,0,,,55,0
858000,note_on,0,0,1,,,,,,,,,,,,,,,0,,,65,0
858000,note_on,0,0,2,,,,,,,,,,,,,,,0,,,51,36
858240,note_on,0,0,1,,,,,,,,,,,,,,,0,,,62,56
858240,control_change,0,0,2,,,,,,,,,,,,,,,0,64,0,,
858240,note_on,0,0,1,,,,,,,,,,,,,,,0,,,53,0
858240,note_on,0,0,2,,,,,,,,,,,,,,,0,,,50,44
858240,note_on,0,0,2,,,,,,,,,,,,,,,0,,,46,36
858240,set_tempo,240,1,0,,,,,,,,,,,,695814,,,,,,,
858240,note_on,0,0,2,,,,,,,,,,,,,,,0,,,48,0
858240,note_on,0,0,1,,,,,,,,,,,,,,,0,,,57,0
858240,note_on,240,0,1,,,,,,,,,,,,,,,0,,,63,0
858240,note_on,240,0,2,,,,,,,,,,,,,,,0,,,51,0
858240,note_on,0,0,1,,,,,,,,,,,,,,,0,,,58,47
858240,note_on,0,0,1,,,,,,,,,,,,,,,0,,,53,47
858304,control_change,64,0,2,,,,,,,,,,,,,,,0,64,127,,
858720,note_on,0,0,2,,,,,,,,,,,,,,,0,,,46,0
858720,note_on,416,0,2,,,,,,,,,,,,,,,0,,,50,0
858720,note_on,0,0,2,,,,,,,,,,,,,,,0,,,44,38
858720,note_on,0,0,2,,,,,,,,,,,,,,,0,,,50,45
858720,note_on,0,0,1,,,,,,,,,,,,,,,0,,,58,0
858720,note_on,480,0,1,,,,,,,,,,,,,,,0,,,62,0
858720,note_on,0,0,1,,,,,,,,,,,,,,,0,,,62,62
858720,note_on,0,0,1,,,,,,,,,,,,,,,0,,,60,52
858720,note_on,0,0,1,,,,,,,,,,,,,,,0,,,54,52
858720,note_on,0,0,1,,,,,,,,,,,,,,,0,,,53,0
858748,control_change,28,0,2,,,,,,,,,,,,,,,0,64,0,,
858882,control_change,134,0,2,,,,,,,,,,,,,,,0,64,127,,
859200,note_on,318,0,2,,,,,,,,,,,,,,,0,,,50,0
859200,note_on,0,0,2,,,,,,,,,,,,,,,0,,,44,0
859200,note_on,0,0,2,,,,,,,,,,,,,,,0,,,43,40
859200,note_on,0,0,2,,,,,,,,,,,,,,,0,,,50,48
859200,note_on,0,0,1,,,,,,,,,,,,,,,0,,,59,54
859200,note_on,0,0,1,,,,,,,,,,,,,,,0,,,53,54
859200,note_on,0,0,1,,,,,,,,,,,,,,,0,,,62,64
859200,note_on,0,0,1,,,,,,,,,,,,,,,0,,,60,0
859200,note_on,480,0,1,,,,,,,,,,,,,,,0,,,62,0
859200,set_tempo,960,1,0,,,,,,,,,,,,722892,,,,,,,
859200,note_on,0,0,1,,,,,,,,,,,,,,,0,,,54,0
859200,note_on,0,0,1,,,,,,,,,,,,,,,0,,,55,54
859221,control_change,21,0,2,,,,,,,,,,,,,,,0,64,0,,
859348,control_change,127,0,2,,,,,,,,,,,,,,,0,64,127,,
859590,note_on,242,0,2,,,,,,,,,,,,,,,0,,,50,0
859590,note_on,0,0,2,,,,,,,,,,,,,,,0,,,43,0
859590,note_on,0,0,2,,,,,,,,,,,,,,,0,,,36,35
859590,note_on,0,0,1,,,,,,,,,,,,,,,0,,,55,0
859590,note_on,0,0,1,,,,,,,,,,,,,,,0,,,59,0
859590,note_on,390,0,1,,,,,,,,,,,,,,,0,,,62,0
859590,set_tempo,390,1,0,,,,,,,,,,,,701754,,,,,,,
859600,set_tempo,10,1,0,,,,,,,,,,,,710059,,,,,,,
859605,note_on,15,0,2,,,,,,,,,,,,,,,0,,,43,37
859610,set_tempo,10,1,0,,,,,,,,,,,,722892,,,,,,,
859620,note_on,15,0,2,,,,,,,,,,,,,,,0,,,48,40
859620,set_tempo,10,1,0,,,,,,,,,,,,736196,,,,,,,
859630,set_tempo,10,1,0,,,,,,,,,,,,750000,,,,,,,
859635,note_on,45,0,1,,,,,,,,,,,,,,,0,,,51,50
859640,set_tempo,10,1,0,,,,,,,,,,,,759494,,,,,,,
859650,note_on,15,0,1,,,,,,,,,,,,,,,0,,,55,56
859650,set_tempo,10,1,0,,,,,,,,,,,,774194,,,,,,,
859660,set_tempo,10,1,0,,,,,,,,,,,,789474,,,,,,,
859665,note_on,15,0,1,,,,,,,,,,,,,,,0,,,60,63
859670,set_tempo,10,1,0,,,,,,,,,,,,805369,,,,,,,
859680,set_tempo,10,1,0,,,,,,,,,,,,693642,,,,,,,
859680,note_on,0,0,1,,,,,,,,,,,,,,,0,,,63,71
859680,note_on,15,0,1,,,,,,,,,,,,,,,0,,,53,0
859744,control_change,124,0,2,,,,,,,,,,,,,,,0,64,0,,
859920,note_on,240,0,1,,,,,,,,,,,,,,,0,,,63,0
859920,note_on,0,0,2,,,,,,,,,,,,,,,0,,,36,0
859920,note_on,0,0,2,,,,,,,,,,,,,,,0,,,43,0
859920,note_on,0,0,1,,,,,,,,,,,,,,,0,,,60,0
859920,note_on,0,0,1,,,,,,,,,,,,,,,0,,,51,0
859920,note_on,0,0,1,,,,,,,,,,,,,,,0,,,55,0
859920,set_tempo,240,1,0,,,,,,,,,,,,736196,,,,,,,
859920,note_on,176,0,2,,,,,,,,,,,,,,,0,,,48,0
860640,note_on,0,0,1,,,,,,,,,,,,,,,0,,,73,62
860640,note_on,0,0,1,,,,,,,,,,,,,,,0,,,75,74
860640,note_on,720,0,1,,,,,,,,,,,,,,,0,,,67,62
860640,note_on,0,0,2,,,,,,,,,,,,,,,0,,,63,53
860640,set_tempo,720,1,0,,,,,,,,,,,,700035,,,,,,,
860640,note_on,720,0,2,,,,,,,,,,,,,,,0,,,58,45
860668,control_change,28,0,2,,,,,,,,,,,,,,,0,64,0,,
860802,control_change,134,0,2,,,,,,,,,,,,,,,0,64,127,,
861120,note_on,318,0,2,,,,,,,,,,,,,,,0,,,63,0
861120,note_on,0,0,1,,,,,,,,,,,,,,,0,,,75,77
861120,note_on,0,0,1,,,,,,,,,,,,,,,0,,,72,64
861120,note_on,0,0,1,,,,,,,,,,,,,,,0,,,66,64
861120,note_on,0,0,1,,,,,,,,,,,,,,,0,,,68,64
861120,note_on,0,0,1,,,,,,,,,,,,,,,0,,,67,0
861120,note_on,0,0,1,,,,,,,,,,,,,,,0,,,73,0
861120,note_on,0,0,2,,,,,,,,,,,,,,,0,,,58,0
861120,note_on,0,0,2,,,,,,,,,,,,,,,0,,,56,49
861120,note_on,480,0,1,,,,,,,,,,,,,,,0,,,75,0
861120,note_on,0,0,2,,,,,,,,,,,,,,,0,,,63,59
861120,set_tempo,480,1,0,,,,,,,,,,,,731707,,,,,,,
861141,control_change,21,0,2,,,,,,,,,,,,,,,0,64,0,,
861268,control_change,127,0,2,,,,,,,,,,,,,,,0,64,127,,
861500,set_tempo,380,1,0,,,,,,,,,,,,705882,,,,,,,
861510,note_on,242,0,2,,,,,,,,,,,,,,,0,,,63,0
861510,note_on,0,0,2,,,,,,,,,,,,,,,0,,,56,0
861510,note_on,0,0,2,,,,,,,,,,,,,,,0,,,49,49
861510,set_tempo,10,1,0,,,,,,,,,,,,718563,,,,,,,
861510,note_on,390,0,1,,,,,,,,,,,,,,,0,,,75,0
861510,note_on,0,0,1,,,,,,,,,,,,,,,0,,,68,0
861510,note_on,0,0,1,,,,,,,,,,,,,,,0,,,66,0
861510,note_on,0,0,1,,,,,,,,,,,,,,,0,,,72,0
861520,set_tempo,10,1,0,,,,,,,,,,,,731707,,,,,,,
861525,note_on,15,0,2,,,,,,,,,,,,,,,0,,,56,52
861530,set_tempo,10,1,0,,,,,,,,,,,,745342,,,,,,,
861540,set_tempo,10,1,0,,,,,,,,,,,,759494,,,,,,,
861540,note_on,15,0,2,,,,,,,,,,,,,,,0,,,61,56
861550,set_tempo,10,1,0,,,,,,,,,,,,774194,,,,,,,
861555,note_on,45,0,1,,,,,,,,,,,,,,,0,,,64,65
861560,set_tempo,10,1,0,,,,,,,,,,,,789474,,,,,,,
861570,set_tempo,10,1,0,,,,,,,,,,,,805369,,,,,,,
861570,note_on,15,0,1,,,,,,,,,,,,,,,0,,,68,70
861580,set_tempo,10,1,0,,,,,,,,,,,,821918,,,,,,,
861585,note_on,15,0,1,,,,,,,,,,,,,,,0,,,73,72
861590,set_tempo,10,1,0,,,,,,,,,,,,839161,,,,,,,
861600,note_on,15,0,1,,,,,,,,,,,,,,,0,,,76,85
861600,set_tempo,10,1,0,,,,,,,,,,,,697674,,,,,,,
861664,control_change,124,0,2,,,,,,,,,,,,,,,0,64,0,,
861830,note_on,166,0,2,,,,,,,,,,,,,,,0,,,56,0
861840,note_on,0,0,2,,,,,,,,,,,,,,,0,,,49,0
861840,note_on,0,0,1,,,,,,,,,,,,,,,0,,,68,0
861840,note_on,0,0,1,,,,,,,,,,,,,,,0,,,64,0
861840,note_on,240,0,1,,,,,,,,,,,,,,,0,,,76,0
861840,note_on,10,0,2,,,,,,,,,,,,,,,0,,,61,0
861840,note_on,0,0,1,,,,,,,,,,,,,,,0,,,73,0
862560,set_tempo,960,1,0,,,,,,,,,,,,764331,,,,,,,
862560,note_on,0,0,2,,,,,,,,,,,,,,,0,,,52,84
862560,note_on,0,0,2,,,,,,,,,,,,,,,0,,,49,70
862560,note_on,720,0,2,,,,,,,,,,,,,,,0,,,45,70
862560,note_on,720,0,1,,,,,,,,,,,,,,,0,,,79,82
862560,note_on,0,0,1,,,,,,,,,,,,,,,0,,,81,82
862560,note_on,0,0,1,,,,,,,,,,,,,,,0,,,88,99
862560,note_on,0,0,1,,,,,,,,,,,,,,,0,,,85,99
862645,control_change,85,0,2,,,,,,,,,,,,,,,0,64,127,,
862940,set_tempo,380,1,0,,,,,,,,,,,,754717,,,,,,,
862950,note_on,390,0,1,,,,,,,,,,,,,,,0,,,85,0
862950,note_on,0,0,1,,,,,,,,,,,,,,,0,,,88,0
862950,note_on,0,0,1,,,,,,,,,,,,,,,0,,,81,0
862950,note_on,0,0,1,,,,,,,,,,,,,,,0,,,79,0
862950,set_tempo,10,1,0,,,,,,,,,,,,769231,,,,,,,
862950,note_on,0,0,2,,,,,,,,,,,,,,,0,,,45,0
862950,note_on,0,0,2,,,,,,,,,,,,,,,0,,,49,0
862950,note_on,305,0,2,,,,,,,,,,,,,,,0,,,52,0
862950,note_on,0,0,2,,,,,,,,,,,,,,,0,,,38,70
862960,set_tempo,10,1,0,,,,,,,,,,,,784314,,,,,,,
862965,note_on,15,0,2,,,,,,,,,,,,,,,0,,,45,73
862970,set_tempo,10,1,0,,,,,,,,,,,,800000,,,,,,,
862980,set_tempo,10,1,0,,,,,,,,,,,,816327,,,,,,,
862980,note_on,15,0,2,,,,,,,,,,,,,,,0,,,50,77
862990,set_tempo,10,1,0,,,,,,,,,,,,839161,,,,,,,
862995,note_on,45,0,1,,,,,,,,,,,,,,,0,,,77,86
863000,set_tempo,10,1,0,,,,,,,,,,,,857143,,,,,,,
863010,set_tempo,10,1,0,,,,,,,,,,,,875912,,,,,,,
863010,note_on,15,0,1,,,,,,,,,,,,,,,0,,,81,89
863020,set_tempo,10,1,0,,,,,,,,,,,,895522,,,,,,,
863025,note_on,15,0,1,,,,,,,,,,,,,,,0,,,86,94
863030,set_tempo,10,1,0,,,,,,,,,,,,923077,,,,,,,
863040,note_on,15,0,1,,,,,,,,,,,,,,,0,,,89,103
863040,set_tempo,10,1,0,,,,,,,,,,,,697674,,,,,,,
863111,control_change,131,0,2,,,,,,,,,,,,,,,0,64,0,,
863280,note_on,0,0,2,,,,,,,,,,,,,,,0,,,38,0
863280,note_on,0,0,2,,,,,,,,,,,,,,,0,,,45,0
863280,note_on,169,0,2,,,,,,,,,,,,,,,0,,,50,0
863280,note_on,0,0,1,,,,,,,,,,,,,,,0,,,86,0
863280,note_on,0,0,1,,,,,,,,,,,,,,,0,,,81,0
863280,note_on,0,0,1,,,,,,,,,,,,,,,0,,,77,0
863280,note_on,240,0,1,,,,,,,,,,,,,,,0,,,89,0
864000,note_on,0,0,2,,,,,,,,,,,,,,,0,,,68,58
864000,note_on,720,0,1,,,,,,,,,,,,,,,0,,,70,52
864000,note_on,0,0,1,,,,,,,,,,,,,,,0,,,77,62
864000,note_on,720,0,2,,,,,,,,,,,,,,,0,,,58,49
864000,note_on,0,0,1,,,,,,,,,,,,,,,0,,,74,52
864000,set_tempo,960,1,0,,,,,,,,,,,,687364,,,,,,,
864049,control_change,49,0,2,,,,,,,,,,,,,,,0,64,0,,
864141,control_change,92,0,2,,,,,,,,,,,,,,,0,64,127,,
864480,set_tempo,480,1,0,,,,,,,,,,,,687364,,,,,,,
864720,note_on,720,0,1,,,,,,,,,,,,,,,0,,,77,0
864720,note_on,0,0,1,,,,,,,,,,,,,,,0,,,78,56
864953,control_change,812,0,2,,,,,,,,,,,,,,,0,64,0,,
864960,note_on,240,0,1,,,,,,,,,,,,,,,0,,,78,0
864960,note_on,0,0,1,,,,,,,,,,,,,,,0,,,74,0
864960,note_on,0,0,1,,,,,,,,,,,,,,,0,,,79,61
864960,note_on,0,0,1,,,,,,,,,,,,,,,0,,,75,51
864960,note_on,7,0,2,,,,,,,,,,,,,,,0,,,68,0
864960,note_on,0,0,2,,,,,,,,,,,,,,,0,,,58,0
864960,note_on,0,0,2,,,,,,,,,,,,,,,0,,,63,38
864960,note_on,0,0,2,,,,,,,,,,,,,,,0,,,67,45
865000,set_tempo,520,1,0,,,,,,,,,,,,731440,,,,,,,
865080,note_on,120,0,2,,,,,,,,,,,,,,,0,,,67,0
865080,note_on,0,0,2,,,,,,,,,,,,,,,0,,,63,0
865080,note_on,120,0,1,,,,,,,,,,,,,,,0,,,79,0
865080,note_on,0,0,1,,,,,,,,,,,,,,,0,,,75,0
865080,note_on,0,0,1,,,,,,,,,,,,,,,0,,,70,0
865440,note_on,360,0,2,,,,,,,,,,,,,,,0,,,63,33
865440,set_tempo,440,1,0,,,,,,,,,,,,786885,,,,,,,
865440,note_on,0,0,2,,,,,,,,,,,,,,,0,,,67,40
865440,note_on,360,0,1,,,,,,,,,,,,,,,0,,,70,46
865440,note_on,0,0,1,,,,,,,,,,,,,,,0,,,75,46
865440,note_on,0,0,1,,,,,,,,,,,,,,,0,,,79,55
865560,note_on,120,0,2,,,,,,,,,,,,,,,0,,,67,0
865560,note_on,120,0,1,,,,,,,,,,,,,,,0,,,79,0
865560,note_on,0,0,1,,,,,,,,,,,,,,,0,,,75,0
865560,note_on,0,0,1,,,,,,,,,,,,,,,0,,,70,0
865560,note_on,0,0,2,,,,,,,,,,,,,,,0,,,63,0
865920,note_on,360,0,1,,,,,,,,,,,,,,,0,,,79,61
865920,note_on,0,0,1,,,,,,,,,,,,,,,0,,,82,61
865920,note_on,360,0,2,,,,,,,,,,,,,,,0,,,63,38
865920,note_on,0,0,2,,,,,,,,,,,,,,,0,,,70,45
866400,set_tempo,960,1,0,,,,,,,,,,,,713182,,,,,,,
867360,note_on,0,0,1,,,,,,,,,,,,,,,0,,,79,0
867360,note_on,1440,0,1,,,,,,,,,,,,,,,0,,,82,0
867360,note_on,1440,0,2,,,,,,,,,,,,,,,0,,,70,0
867360,note_on,0,0,2,,,,,,,,,,,,,,,0,,,63,0
867840,note_on,480,0,1,,,,,,,,,,,,,,,0,,,70,54
867840,control_change,480,0,2,,,,,,,,,,,,,,,0,64,127,,
869040,note_on,1200,0,1,,,,,,,,,,,,,,,0,,,70,0
869040,note_on,0,0,1,,,,,,,,,,,,,,,0,,,67,45
869280,note_on,0,0,1,,,,,,,,,,,,,,,0,,,63,50
869280,note_on,240,0,1,,,,,,,,,,,,,,,0,,,67,0
869520,note_on,0,0,1,,,,,,,,,,,,,,,0,,,62,45
869520,note_on,240,0,1,,,,,,,,,,,,,,,0,,,63,0
869760,note_on,0,0,1,,,,,,,,,,,,,,,0,,,62,49
869760,note_on,0,0,2,,,,,,,,,,,,,,,0,,,51,39
869760,note_on,0,0,1,,,,,,,,,,,,,,,0,,,57,34
869760,note_on,240,0,1,,,,,,,,,,,,,,,0,,,62,0
869760,note_on,0,0,1,,,,,,,,,,,,,,,0,,,53,34
869760,note_on,1920,0,2,,,,,,,,,,,,,,,0,,,41,33
869760,set_tempo,3360,1,0,,,,,,,,,,,,687364,,,,,,,
869809,control_change,49,0,2,,,,,,,,,,,,,,,0,64,0,,
869901,control_change,92,0,2,,,,,,,,,,,,,,,0,64,127,,
870240,note_on,480,0,1,,,,,,,,,,,,,,,0,,,62,0
870240,note_on,0,0,1,,,,,,,,,,,,,,,0,,,60,44
870240,set_tempo,480,1,0,,,,,,,,,,,,687364,,,,,,,
870600,note_on,0,0,1,,,,,,,,,,,,,,,0,,,61,44
870600,note_on,360,0,1,,,,,,,,,,,,,,,0,,,60,0
870713,control_change,812,0,2,,,,,,,,,,,,,,,0,64,0,,
870720,note_on,120,0,1,,,,,,,,,,,,,,,0,,,61,0
870720,note_on,7,0,2,,,,,,,,,,,,,,,0,,,51,0
870720,note_on,0,0,2,,,,,,,,,,,,,,,0,,,41,0
870720,note_on,0,0,1,,,,,,,,,,,,,,,0,,,58,40
870720,note_on,0,0,2,,,,,,,,,,,,,,,0,,,46,30
870720,note_on,0,0,2,,,,,,,,,,,,,,,0,,,50,36
870720,note_on,0,0,1,,,,,,,,,,,,,,,0,,,62,48
870720,note_on,0,0,1,,,,,,,,,,,,,,,0,,,57,0
870760,set_tempo,520,1,0,,,,,,,,,,,,731440,,,,,,,
870840,note_on,120,0,2,,,,,,,,,,,,,,,0,,,50,0
870840,note_on,0,0,2,,,,,,,,,,,,,,,0,,,46,0
870840,note_on,0,0,1,,,,,,,,,,,,,,,0,,,53,0
870840,note_on,120,0,1,,,,,,,,,,,,,,,0,,,62,0
870840,note_on,0,0,1,,,,,,,,,,,,,,,0,,,58,0
871200,note_on,360,0,1,,,,,,,,,,,,,,,0,,,53,30
871200,note_on,360,0,2,,,,,,,,,,,,,,,0,,,46,24
871200,note_on,0,0,1,,,,,,,,,,,,,,,0,,,62,44
871200,note_on,0,0,1,,,,,,,,,,,,,,,0,,,58,36
871200,set_tempo,440,1,0,,,,,,,,,,,,786885,,,,,,,
871200,note_on,0,0,2,,,,,,,,,,,,,,,0,,,50,32
871320,note_on,0,0,2,,,,,,,,,,,,,,,0,,,46,0
871320,note_on,120,0,2,,,,,,,,,,,,,,,0,,,50,0
871320,note_on,0,0,1,,,,,,,,,,,,,,,0,,,53,0
871320,note_on,0,0,1,,,,,,,,,,,,,,,0,,,58,0
871320,note_on,120,0,1,,,,,,,,,,,,,,,0,,,62,0
871680,note_on,360,0,2,,,,,,,,,,,,,,,0,,,46,30
871680,note_on,0,0,2,,,,,,,,,,,,,,,0,,,53,36
871680,note_on,0,0,1,,,,,,,,,,,,,,,0,,,65,48
871680,note_on,360,0,1,,,,,,,,,,,,,,,0,,,62,48
871840,control_change,160,0,2,,,,,,,,,,,,,,,0,64,127,,
873040,control_change,1200,0,2,,,,,,,,,,,,,,,0,64,0,,
873120,note_on,80,0,2,,,,,,,,,,,,,,,0,,,53,0
873120,note_on,0,0,2,,,,,,,,,,,,,,,0,,,46,0
873120,note_on,0,0,1,,,,,,,,,,,,,,,0,,,62,0
873120,note_on,1440,0,1,,,,,,,,,,,,,,,0,,,65,0
873600,note_on,0,0,1,,,,,,,,,,,,,,,0,,,74,52
873600,note_on,480,0,1,,,,,,,,,,,,,,,0,,,70,52
873600,set_tempo,2400,1,0,,,,,,,,,,,,687364,,,,,,,
873600,note_on,0,0,1,,,,,,,,,,,,,,,0,,,77,62
873600,note_on,0,0,2,,,,,,,,,,,,,,,0,,,68,58
873600,note_on,480,0,2,,,,,,,,,,,,,,,0,,,58,49
873649,control_change,49,0,2,,,,,,,,,,,,,,,0,64,0,,
873741,control_change,92,0,2,,,,,,,,,,,,,,,0,64,127,,
874080,set_tempo,480,1,0,,,,,,,,,,,,687364,,,,,,,
874320,note_on,0,0,1,,,,,,,,,,,,,,,0,,,78,56
874320,note_on,720,0,1,,,,,,,,,,,,,,,0,,,77,0
874553,control_change,812,0,2,,,,,,,,,,,,,,,0,64,0,,
874560,note_on,0,0,1,,,,,,,,,,,,,,,0,,,79,61
874560,note_on,0,0,1,,,,,,,,,,,,,,,0,,,75,51
874560,note_on,0,0,2,,,,,,,,,,,,,,,0,,,67,45
874560,note_on,0,0,2,,,,,,,,,,,,,,,0,,,63,38
874560,note_on,0,0,2,,,,,,,,,,,,,,,0,,,58,0
874560,note_on,7,0,2,,,,,,,,,,,,,,,0,,,68,0
874560,note_on,240,0,1,,,,,,,,,,,,,,,0,,,78,0
874560,note_on,0,0,1,,,,,,,,,,,,,,,0,,,74,0
874600,set_tempo,520,1,0,,,,,,,,,,,,731440,,,,,,,
874680,note_on,0,0,1,,,,,,,,,,,,,,,0,,,75,0
874680,note_on,0,0,1,,,,,,,,,,,,,,,0,,,70,0
874680,note_on,120,0,1,,,,,,,,,,,,,,,0,,,79,0
874680,note_on,0,0,2,,,,,,,,,,,,,,,0,,,63,0
874680,note_on,120,0,2,,,,,,,,,,,,,,,0,,,67,0
875040,note_on,0,0,2,,,,,,,,,,,,,,,0,,,67,48
875040,note_on,360,0,2,,,,,,,,,,,,,,,0,,,63,39
875040,set_tempo,440,1,0,,,,,,,,,,,,786885,,,,,,,
875040,note_on,360,0,1,,,,,,,,,,,,,,,0,,,70,55
875040,note_on,0,0,1,,,,,,,,,,,,,,,0,,,75,55
875040,note_on,0,0,1,,,,,,,,,,,,,,,0,,,79,66
875160,note_on,0,0,2,,,,,,,,,,,,,,,0,,,63,0
875160,note_on,120,0,2,,,,,,,,,,,,,,,0,,,67,0
875160,note_on,0,0,1,,,,,,,,,,,,,,,0,,,70,0
875160,note_on,120,0,1,,,,,,,,,,,,,,,0,,,79,0
875160,note_on,0,0,1,,,,,,,,,,,,,,,0,,,75,0
875509,set_tempo,469,1,0,,,,,,,,,,,,983607,,,,,,,
875520,set_tempo,11,1,0,,,,,,,,,,,,857143,,,,,,,
875520,note_on,360,0,1,,,,,,,,,,,,,,,0,,,63,79
875538,control_change,378,0,2,,,,,,,,,,,,,,,0,64,127,,
875540,set_tempo,20,1,0,,,,,,,,,,,,845070,,,,,,,
875560,set_tempo,20,1,0,,,,,,,,,,,,833333,,,,,,,
875580,note_on,60,0,1,,,,,,,,,,,,,,,0,,,63,0
875580,note_on,0,0,1,,,,,,,,,,,,,,,0,,,67,79
875580,set_tempo,20,1,0,,,,,,,,,,,,821918,,,,,,,
875600,set_tempo,20,1,0,,,,,,,,,,,,810811,,,,,,,
875620,set_tempo,20,1,0,,,,,,,,,,,,800000,,,,,,,
875640,set_tempo,20,1,0,,,,,,,,,,,,789474,,,,,,,
875640,note_on,60,0,1,,,,,,,,,,,,,,,0,,,67,0
875640,note_on,0,0,1,,,,,,,,,,,,,,,0,,,70,78
875660,set_tempo,20,1,0,,,,,,,,,,,,779221,,,,,,,
875680,set_tempo,20,1,0,,,,,,,,,,,,769231,,,,,,,
875700,set_tempo,20,1,0,,,,,,,,,,,,759494,,,,,,,
875700,note_on,0,0,1,,,,,,,,,,,,,,,0,,,75,77
875700,note_on,60,0,1,,,,,,,,,,,,,,,0,,,70,0
875720,set_tempo,20,1,0,,,,,,,,,,,,750000,,,,,,,
875740,set_tempo,20,1,0,,,,,,,,,,,,740741,,,,,,,
875760,set_tempo,20,1,0,,,,,,,,,,,,731707,,,,,,,
875760,note_on,60,0,1,,,,,,,,,,,,,,,0,,,75,0
875760,note_on,0,0,1,,,,,,,,,,,,,,,0,,,79,76
875780,set_tempo,20,1,0,,,,,,,,,,,,722892,,,,,,,
875800,set_tempo,20,1,0,,,,,,,,,,,,714286,,,,,,,
875820,set_tempo,20,1,0,,,,,,,,,,,,705882,,,,,,,
875820,note_on,60,0,1,,,,,,,,,,,,,,,0,,,79,0
875820,note_on,0,0,1,,,,,,,,,,,,,,,0,,,82,76
875840,set_tempo,20,1,0,,,,,,,,,,,,697674,,,,,,,
875860,set_tempo,20,1,0,,,,,,,,,,,,689655,,,,,,,
875880,note_on,0,0,1,,,,,,,,,,,,,,,0,,,87,75
875880,note_on,60,0,1,,,,,,,,,,,,,,,0,,,82,0
875880,set_tempo,20,1,0,,,,,,,,,,,,681818,,,,,,,
875900,set_tempo,20,1,0,,,,,,,,,,,,674157,,,,,,,
875920,set_tempo,20,1,0,,,,,,,,,,,,662983,,,,,,,
875921,set_tempo,1,1,0,,,,,,,,,,,,740924,,,,,,,
875940,note_on,0,0,1,,,,,,,,,,,,,,,0,,,91,74
875940,note_on,60,0,1,,,,,,,,,,,,,,,0,,,87,0
875940,set_tempo,19,1,0,,,,,,,,,,,,952381,,,,,,,
876000,note_on,0,0,1,,,,,,,,,,,,,,,0,,,94,73
876000,note_on,60,0,1,,,,,,,,,,,,,,,0,,,91,0
876000,set_tempo,60,1,0,,,,,,,,,,,,920245,,,,,,,
876004,set_tempo,4,1,0,,,,,,,,,,,,920245,,,,,,,
876060,note_on,60,0,1,,,,,,,,,,,,,,,0,,,94,0
876452,control_change,914,0,2,,,,,,,,,,,,,,,0,64,0,,
877440,note_on,1380,0,1,,,,,,,,,,,,,,,0,,,82,62
877440,set_tempo,1436,1,0,,,,,,,,,,,,713182,,,,,,,
879120,note_on,1680,0,1,,,,,,,,,,,,,,,0,,,82,0
879120,note_on,0,0,1,,,,,,,,,,,,,,,0,,,81,50
879360,note_on,240,0,1,,,,,,,,,,,,,,,0,,,81,0
879360,note_on,0,0,1,,,,,,,,,,,,,,,0,,,81,53
879840,note_on,480,0,1,,,,,,,,,,,,,,,0,,,81,0
879840,note_on,0,0,1,,,,,,,,,,,,,,,0,,,79,51
880200,note_on,360,0,1,,,,,,,,,,,,,,,0,,,79,0
880200,note_on,0,0,1,,,,,,,,,,,,,,,0,,,77,47
880320,note_on,120,0,1,,,,,,,,,,,,,,,0,,,77,0
880320,note_on,0,0,1,,,,,,,,,,,,,,,0,,,77,51
880800,note_on,480,0,1,,,,,,,,,,,,,,,0,,,77,0
880800,note_on,0,0,1,,,,,,,,,,,,,,,0,,,75,48
881160,note_on,360,0,1,,,,,,,,,,,,,,,0,,,75,0
881160,note_on,0,0,1,,,,,,,,,,,,,,,0,,,74,41
881280,note_on,0,0,1,,,,,,,,,,,,,,,0,,,74,44
881280,note_on,0,0,2,,,,,,,,,,,,,,,0,,,63,32
881280,note_on,4828,0,2,,,,,,,,,,,,,,,0,,,53,24
881280,note_on,0,0,1,,,,,,,,,,,,,,,0,,,65,30
881280,set_tempo,3840,1,0,,,,,,,,,,,,700035,,,,,,,
881280,note_on,0,0,1,,,,,,,,,,,,,,,0,,,69,30
881280,note_on,120,0,1,,,,,,,,,,,,,,,0,,,74,0
881329,control_change,49,0,2,,,,,,,,,,,,,,,0,64,0,,
881421,control_change,92,0,2,,,,,,,,,,,,,,,0,64,127,,
881760,set_tempo,480,1,0,,,,,,,,,,,,722195,,,,,,,
881760,note_on,0,0,1,,,,,,,,,,,,,,,0,,,72,39
881760,note_on,480,0,1,,,,,,,,,,,,,,,0,,,74,0
882120,note_on,360,0,1,,,,,,,,,,,,,,,0,,,72,0
882120,note_on,0,0,1,,,,,,,,,,,,,,,0,,,73,39
882233,control_change,812,0,2,,,,,,,,,,,,,,,0,64,0,,
882240,note_on,120,0,1,,,,,,,,,,,,,,,0,,,73,0
882240,note_on,0,0,1,,,,,,,,,,,,,,,0,,,69,0
882240,note_on,0,0,1,,,,,,,,,,,,,,,0,,,70,36
882240,note_on,0,0,1,,,,,,,,,,,,,,,0,,,74,43
882240,note_on,0,0,2,,,,,,,,,,,,,,,0,,,62,32
882240,note_on,0,0,2,,,,,,,,,,,,,,,0,,,58,27
882240,note_on,7,0,2,,,,,,,,,,,,,,,0,,,63,0
882240,set_tempo,480,1,0,,,,,,,,,,,,745712,,,,,,,
882240,note_on,0,0,2,,,,,,,,,,,,,,,0,,,53,0
882360,note_on,0,0,1,,,,,,,,,,,,,,,0,,,65,0
882360,note_on,0,0,1,,,,,,,,,,,,,,,0,,,70,0
882360,note_on,120,0,1,,,,,,,,,,,,,,,0,,,74,0
882360,note_on,0,0,2,,,,,,,,,,,,,,,0,,,58,0
882360,note_on,120,0,2,,,,,,,,,,,,,,,0,,,62,0
882720,note_on,0,0,1,,,,,,,,,,,,,,,0,,,74,39
882720,note_on,0,0,2,,,,,,,,,,,,,,,0,,,62,28
882720,note_on,0,0,1,,,,,,,,,,,,,,,0,,,70,32
882720,note_on,360,0,1,,,,,,,,,,,,,,,0,,,65,27
882720,note_on,360,0,2,,,,,,,,,,,,,,,0,,,58,21
882720,set_tempo,480,1,0,,,,,,,,,,,,815107,,,,,,,
882840,note_on,0,0,2,,,,,,,,,,,,,,,0,,,58,0
882840,note_on,120,0,2,,,,,,,,,,,,,,,0,,,62,0
882840,note_on,0,0,1,,,,,,,,,,,,,,,0,,,65,0
882840,note_on,0,0,1,,,,,,,,,,,,,,,0,,,70,0
882840,note_on,120,0,1,,,,,,,,,,,,,,,0,,,74,0
883200,note_on,360,0,1,,,,,,,,,,,,,,,0,,,74,43
883200,note_on,360,0,2,,,,,,,,,,,,,,,0,,,58,27
883200,note_on,0,0,2,,,,,,,,,,,,,,,0,,,65,32
883200,set_tempo,480,1,0,,,,,,,,,,,,687364,,,,,,,
883200,note_on,0,0,1,,,,,,,,,,,,,,,0,,,77,43
883360,control_change,160,0,2,,,,,,,,,,,,,,,0,64,127,,
884560,control_change,1200,0,2,,,,,,,,,,,,,,,0,64,0,,
884640,note_on,80,0,2,,,,,,,,,,,,,,,0,,,65,0
884640,note_on,0,0,2,,,,,,,,,,,,,,,0,,,58,0
884640,note_on,1440,0,1,,,,,,,,,,,,,,,0,,,77,0
884640,note_on,0,0,1,,,,,,,,,,,,,,,0,,,74,0
885120,note_on,0,0,2,,,,,,,,,,,,,,,0,,,65,41
885120,note_on,480,0,1,,,,,,,,,,,,,,,0,,,74,55
885120,note_on,0,0,1,,,,,,,,,,,,,,,0,,,72,55
885120,note_on,0,0,1,,,,,,,,,,,,,,,0,,,77,55
885120,note_on,0,0,2,,,,,,,,,,,,,,,0,,,62,35
885120,note_on,480,0,2,,,,,,,,,,,,,,,0,,,56,35
885147,control_change,27,0,2,,,,,,,,,,,,,,,0,64,127,,
886107,control_change,960,0,2,,,,,,,,,,,,,,,0,64,0,,
886560,note_on,1440,0,1,,,,,,,,,,,,,,,0,,,77,0
886560,note_on,0,0,1,,,,,,,,,,,,,,,0,,,72,0
886560,note_on,0,0,1,,,,,,,,,,,,,,,0,,,74,0
886560,note_on,453,0,2,,,,,,,,,,,,,,,0,,,65,0
886560,note_on,0,0,2,,,,,,,,,,,,,,,0,,,62,0
886560,note_on,0,0,2,,,,,,,,,,,,,,,0,,,56,0
887040,control_change,480,0,2,,,,,,,,,,,,,,,0,64,127,,
887040,note_on,0,0,2,,,,,,,,,,,,,,,0,,,65,41
887040,note_on,0,0,2,,,,,,,,,,,,,,,0,,,62,34
887040,note_on,0,0,2,,,,,,,,,,,,,,,0,,,55,34
887040,note_on,480,0,1,,,,,,,,,,,,,,,0,,,71,53
887040,set_tempo,3840,1,0,,,,,,,,,,,,708717,,,,,,,
887040,note_on,0,0,1,,,,,,,,,,,,,,,0,,,74,56
887040,note_on,0,0,1,,,,,,,,,,,,,,,0,,,80,67
887040,note_on,0,0,1,,,,,,,,,,,,,,,0,,,68,51
888480,set_tempo,1440,1,0,,,,,,,,,,,,750751,,,,,,,
888480,note_on,0,0,1,,,,,,,,,,,,,,,0,,,79,52
888480,note_on,0,0,1,,,,,,,,,,,,,,,0,,,67,44
888480,note_on,0,0,1,,,,,,,,,,,,,,,0,,,68,0
888480,note_on,1440,0,1,,,,,,,,,,,,,,,0,,,80,0
888960,note_on,0,0,1,,,,,,,,,,,,,,,0,,,72,53
888960,note_on,0,0,1,,,,,,,,,,,,,,,0,,,67,45
888960,note_on,0,0,1,,,,,,,,,,,,,,,0,,,67,0
888960,note_on,0,0,1,,,,,,,,,,,,,,,0,,,74,0
888960,set_tempo,480,1,0,,,,,,,,,,,,722195,,,,,,,
888960,note_on,480,0,1,,,,,,,,,,,,,,,0,,,79,0
888960,note_on,1920,0,2,,,,,,,,,,,,,,,0,,,55,0
888960,note_on,0,0,1,,,,,,,,,,,,,,,0,,,77,53
888960,note_on,0,0,2,,,,,,,,,,,,,,,0,,,65,0
888960,note_on,0,0,2,,,,,,,,,,,,,,,0,,,62,0
888960,control_change,0,0,2,,,,,,,,,,,,,,,0,64,0,,
888960,note_on,0,0,1,,,,,,,,,,,,,,,0,,,71,0
888960,note_on,0,0,2,,,,,,,,,,,,,,,0,,,60,28
888960,note_on,0,0,2,,,,,,,,,,,,,,,0,,,63,34
889040,control_change,80,0,2,,,,,,,,,,,,,,,0,64,127,,
889440,note_on,0,0,1,,,,,,,,,,,,,,,0,,,75,52
889440,note_on,0,0,1,,,,,,,,,,,,,,,0,,,72,0
889440,note_on,480,0,1,,,,,,,,,,,,,,,0,,,77,0
889440,set_tempo,480,1,0,,,,,,,,,,,,695814,,,,,,,
889440,note_on,0,0,1,,,,,,,,,,,,,,,0,,,67,0
889440,note_on,0,0,2,,,,,,,,,,,,,,,0,,,63,0
889440,note_on,400,0,2,,,,,,,,,,,,,,,0,,,60,0
889680,note_on,240,0,1,,,,,,,,,,,,,,,0,,,75,0
889680,set_tempo,240,1,0,,,,,,,,,,,,736196,,,,,,,
889680,note_on,0,0,1,,,,,,,,,,,,,,,0,,,66,40
889680,note_on,0,0,1,,,,,,,,,,,,,,,0,,,74,48
889920,note_on,0,0,1,,,,,,,,,,,,,,,0,,,77,55
889920,note_on,0,0,1,,,,,,,,,,,,,,,0,,,67,46
889920,note_on,240,0,1,,,,,,,,,,,,,,,0,,,74,0
889920,note_on,0,0,1,,,,,,,,,,,,,,,0,,,66,0
889920,set_tempo,240,1,0,,,,,,,,,,,,731440,,,,,,,
890000,control_change,560,0,2,,,,,,,,,,,,,,,0,64,0,,
890080,control_change,80,0,2,,,,,,,,,,,,,,,0,64,127,,
890400,set_tempo,480,1,0,,,,,,,,,,,,717618,,,,,,,
890400,note_on,480,0,1,,,,,,,,,,,,,,,0,,,77,0
890400,note_on,0,0,1,,,,,,,,,,,,,,,0,,,75,52
890640,note_on,240,0,1,,,,,,,,,,,,,,,0,,,75,0
890640,note_on,0,0,1,,,,,,,,,,,,,,,0,,,67,0
890640,note_on,0,0,1,,,,,,,,,,,,,,,0,,,63,39
890640,note_on,0,0,1,,,,,,,,,,,,,,,0,,,72,47
890640,set_tempo,240,1,0,,,,,,,,,,,,750751,,,,,,,
890880,control_change,800,0,2,,,,,,,,,,,,,,,0,64,0,,
890880,note_on,0,0,1,,,,,,,,,,,,,,,0,,,63,0
890880,note_on,240,0,1,,,,,,,,,,,,,,,0,,,72,0
890880,set_tempo,240,1,0,,,,,,,,,,,,726744,,,,,,,
890880,note_on,0,0,2,,,,,,,,,,,,,,,0,,,60,36
890880,note_on,0,0,1,,,,,,,,,,,,,,,0,,,70,53
890944,control_change,64,0,2,,,,,,,,,,,,,,,0,64,127,,
891120,note_on,176,0,2,,,,,,,,,,,,,,,0,,,60,0
891120,set_tempo,240,1,0,,,,,,,,,,,,765795,,,,,,,
891240,note_on,360,0,1,,,,,,,,,,,,,,,0,,,70,0
891240,note_on,0,0,1,,,,,,,,,,,,,,,0,,,69,50
891360,note_on,0,0,1,,,,,,,,,,,,,,,0,,,69,48
891360,note_on,0,0,1,,,,,,,,,,,,,,,0,,,65,40
891360,note_on,120,0,1,,,,,,,,,,,,,,,0,,,69,0
891360,note_on,240,0,2,,,,,,,,,,,,,,,0,,,53,30
891360,note_on,0,0,2,,,,,,,,,,,,,,,0,,,60,36
891360,set_tempo,240,1,0,,,,,,,,,,,,745712,,,,,,,
891402,control_change,42,0,2,,,,,,,,,,,,,,,0,64,0,,
891466,control_change,64,0,2,,,,,,,,,,,,,,,0,64,127,,
891720,note_on,0,0,2,,,,,,,,,,,,,,,0,,,62,31
891720,note_on,254,0,2,,,,,,,,,,,,,,,0,,,60,0
891840,note_on,0,0,1,,,,,,,,,,,,,,,0,,,65,0
891840,note_on,0,0,2,,,,,,,,,,,,,,,0,,,53,0
891840,note_on,0,0,2,,,,,,,,,,,,,,,0,,,53,28
891840,note_on,0,0,2,,,,,,,,,,,,,,,0,,,63,32
891840,control_change,0,0,2,,,,,,,,,,,,,,,0,64,0,,
891840,set_tempo,480,1,0,,,,,,,,,,,,776297,,,,,,,
891840,note_on,0,0,1,,,,,,,,,,,,,,,0,,,69,55
891840,note_on,480,0,1,,,,,,,,,,,,,,,0,,,69,0
891840,note_on,120,0,2,,,,,,,,,,,,,,,0,,,62,0
891840,note_on,0,0,1,,,,,,,,,,,,,,,0,,,66,37
891911,control_change,71,0,2,,,,,,,,,,,,,,,0,64,127,,
892320,note_on,0,0,2,,,,,,,,,,,,,,,0,,,60,32
892320,set_tempo,480,1,0,,,,,,,,,,,,786885,,,,,,,
892320,note_on,0,0,2,,,,,,,,,,,,,,,0,,,53,27
892320,note_on,0,0,1,,,,,,,,,,,,,,,0,,,69,52
892320,note_on,480,0,1,,,,,,,,,,,,,,,0,,,69,0
892320,note_on,0,0,1,,,,,,,,,,,,,,,0,,,66,0
892320,note_on,409,0,2,,,,,,,,,,,,,,,0,,,63,0
892320,note_on,0,0,2,,,,,,,,,,,,,,,0,,,53,0
892320,note_on,0,0,1,,,,,,,,,,,,,,,0,,,65,44
892334,control_change,14,0,2,,,,,,,,,,,,,,,0,64,0,,
892391,control_change,57,0,2,,,,,,,,,,,,,,,0,64,127,,
892560,set_tempo,240,1,0,,,,,,,,,,,,839043,,,,,,,
892560,note_on,240,0,1,,,,,,,,,,,,,,,0,,,65,0
892560,note_on,0,0,1,,,,,,,,,,,,,,,0,,,63,48
892800,control_change,0,0,2,,,,,,,,,,,,,,,0,64,0,,
892800,note_on,0,0,2,,,,,,,,,,,,,,,0,,,53,0
892800,note_on,0,0,2,,,,,,,,,,,,,,,0,,,46,30
892800,note_on,0,0,1,,,,,,,,,,,,,,,0,,,70,54
892800,note_on,409,0,2,,,,,,,,,,,,,,,0,,,60,0
892800,note_on,0,0,1,,,,,,,,,,,,,,,0,,,62,45
892800,note_on,0,0,1,,,,,,,,,,,,,,,0,,,69,0
892800,note_on,240,0,1,,,,,,,,,,,,,,,0,,,63,0
892800,note_on,0,0,2,,,,,,,,,,,,,,,0,,,58,36
893040,note_on,240,0,1,,,,,,,,,,,,,,,0,,,70,0
893040,note_on,240,0,2,,,,,,,,,,,,,,,0,,,58,0
893040,note_on,0,0,2,,,,,,,,,,,,,,,0,,,46,0
893040,note_on,0,0,1,,,,,,,,,,,,,,,0,,,62,0
893280,note_on,240,0,1,,,,,,,,,,,,,,,0,,,62,43
893280,note_on,0,0,1,,,,,,,,,,,,,,,0,,,65,43
893280,note_on,0,0,2,,,,,,,,,,,,,,,0,,,53,32
893280,set_tempo,720,1,0,,,,,,,,,,,,687364,,,,,,,
893280,note_on,240,0,2,,,,,,,,,,,,,,,0,,,46,27
893440,control_change,160,0,2,,,,,,,,,,,,,,,0,64,127,,
894640,control_change,1200,0,2,,,,,,,,,,,,,,,0,64,0,,
894720,note_on,80,0,2,,,,,,,,,,,,,,,0,,,53,0
894720,note_on,0,0,2,,,,,,,,,,,,,,,0,,,46,0
894720,note_on,1440,0,1,,,,,,,,,,,,,,,0,,,65,0
894720,note_on,0,0,1,,,,,,,,,,,,,,,0,,,62,0
895200,note_on,480,0,2,,,,,,,,,,,,,,,0,,,44,35
895200,note_on,480,0,1,,,,,,,,,,,,,,,0,,,62,55
895200,note_on,0,0,1,,,,,,,,,,,,,,,0,,,60,55
895200,note_on,0,0,1,,,,,,,,,,,,,,,0,,,65,55
895200,note_on,0,0,2,,,,,,,,,,,,,,,0,,,53,41
895227,control_change,27,0,2,,,,,,,,,,,,,,,0,64,127,,
896187,control_change,960,0,2,,,,,,,,,,,,,,,0,64,0,,
896640,note_on,0,0,1,,,,,,,,,,,,,,,0,,,68,67
896640,note_on,0,0,1,,,,,,,,,,,,,,,0,,,56,56
896640,note_on,0,0,2,,,,,,,,,,,,,,,0,,,43,34
896640,note_on,0,0,1,,,,,,,,,,,,,,,0,,,59,56
896640,note_on,0,0,1,,,,,,,,,,,,,,,0,,,62,56
896640,set_tempo,3360,1,0,,,,,,,,,,,,708717,,,,,,,
896640,note_on,453,0,2,,,,,,,,,,,,,,,0,,,53,0
896640,control_change,0,0,2,,,,,,,,,,,,,,,0,64,127,,
896640,note_on,0,0,2,,,,,,,,,,,,,,,0,,,50,34
896640,note_on,0,0,2,,,,,,,,,,,,,,,0,,,53,41
896640,note_on,0,0,2,,,,,,,,,,,,,,,0,,,44,0
896640,note_on,0,0,1,,,,,,,,,,,,,,,0,,,62,0
896640,note_on,1440,0,1,,,,,,,,,,,,,,,0,,,65,0
896640,note_on,0,0,1,,,,,,,,,,,,,,,0,,,60,0
898080,note_on,1440,0,1,,,,,,,,,,,,,,,0,,,68,0
898080,note_on,0,0,1,,,,,,,,,,,,,,,0,,,55,39
898080,note_on,0,0,1,,,,,,,,,,,,,,,0,,,67,46
898080,set_tempo,1440,1,0,,,,,,,,,,,,750751,,,,,,,
898080,note_on,0,0,1,,,,,,,,,,,,,,,0,,,56,0
898560,note_on,0,0,2,,,,,,,,,,,,,,,0,,,48,25
898560,note_on,0,0,2,,,,,,,,,,,,,,,0,,,51,30
898560,control_change,0,0,2,,,,,,,,,,,,,,,0,64,0,,
898560,note_on,0,0,2,,,,,,,,,,,,,,,0,,,53,0
898560,note_on,0,0,1,,,,,,,,,,,,,,,0,,,60,47
898560,note_on,0,0,1,,,,,,,,,,,,,,,0,,,55,40
898560,note_on,480,0,1,,,,,,,,,,,,,,,0,,,67,0
898560,note_on,0,0,1,,,,,,,,,,,,,,,0,,,59,0
898560,note_on,0,0,1,,,,,,,,,,,,,,,0,,,65,47
898560,note_on,0,0,1,,,,,,,,,,,,,,,0,,,62,0
898560,note_on,0,0,1,,,,,,,,,,,,,,,0,,,55,0
898560,set_tempo,480,1,0,,,,,,,,,,,,722195,,,,,,,
898560,note_on,1920,0,2,,,,,,,,,,,,,,,0,,,43,0
898560,note_on,0,0,2,,,,,,,,,,,,,,,0,,,50,0
898640,control_change,80,0,2,,,,,,,,,,,,,,,0,64,127,,
899040,note_on,0,0,2,,,,,,,,,,,,,,,0,,,51,0
899040,note_on,400,0,2,,,,,,,,,,,,,,,0,,,48,0
899040,note_on,480,0,1,,,,,,,,,,,,,,,0,,,65,0
899040,note_on,0,0,1,,,,,,,,,,,,,,,0,,,60,0
899040,note_on,0,0,1,,,,,,,,,,,,,,,0,,,55,0
899040,note_on,0,0,1,,,,,,,,,,,,,,,0,,,63,46
899040,set_tempo,480,1,0,,,,,,,,,,,,695814,,,,,,,
899280,set_tempo,240,1,0,,,,,,,,,,,,736196,,,,,,,
899280,note_on,240,0,1,,,,,,,,,,,,,,,0,,,63,0
899280,note_on,0,0,1,,,,,,,,,,,,,,,0,,,54,36
899280,note_on,0,0,1,,,,,,,,,,,,,,,0,,,62,43
899520,note_on,0,0,1,,,,,,,,,,,,,,,0,,,54,0
899520,note_on,0,0,1,,,,,,,,,,,,,,,0,,,65,49
899520,note_on,0,0,1,,,,,,,,,,,,,,,0,,,55,41
899520,set_tempo,240,1,0,,,,,,,,,,,,731440,,,,,,,
899520,note_on,240,0,1,,,,,,,,,,,,,,,0,,,62,0
899600,control_change,560,0,2,,,,,,,,,,,,,,,0,64,0,,
899680,control_change,80,0,2,,,,,,,,,,,,,,,0,64,127,,
900000,set_tempo,480,1,0,,,,,,,,,,,,740924,,,,,,,
900000,note_on,0,0,1,,,,,,,,,,,,,,,0,,,63,46
900000,note_on,480,0,1,,,,,,,,,,,,,,,0,,,65,0
900240,note_on,0,0,1,,,,,,,,,,,,,,,0,,,60,42
900240,note_on,0,0,1,,,,,,,,,,,,,,,0,,,51,35
900240,set_tempo,240,1,0,,,,,,,,,,,,781555,,,,,,,
900240,note_on,240,0,1,,,,,,,,,,,,,,,0,,,63,0
900240,note_on,0,0,1,,,,,,,,,,,,,,,0,,,55,0
900480,set_tempo,240,1,0,,,,,,,,,,,,755668,,,,,,,
900480,note_on,240,0,1,,,,,,,,,,,,,,,0,,,60,0
900480,control_change,800,0,2,,,,,,,,,,,,,,,0,64,0,,
900480,note_on,0,0,1,,,,,,,,,,,,,,,0,,,51,0
900480,note_on,0,0,1,,,,,,,,,,,,,,,0,,,58,47
900480,note_on,0,0,2,,,,,,,,,,,,,,,0,,,48,32
900544,control_change,64,0,2,,,,,,,,,,,,,,,0,64,127,,
900720,note_on,176,0,2,,,,,,,,,,,,,,,0,,,48,0
900720,set_tempo,240,1,0,,,,,,,,,,,,803536,,,,,,,
900840,note_on,360,0,1,,,,,,,,,,,,,,,0,,,58,0
900840,note_on,0,0,1,,,,,,,,,,,,,,,0,,,57,45
900960,note_on,0,0,1,,,,,,,,,,,,,,,0,,,57,43
900960,note_on,0,0,1,,,,,,,,,,,,,,,0,,,53,36
900960,note_on,120,0,1,,,,,,,,,,,,,,,0,,,57,0
900960,note_on,240,0,2,,,,,,,,,,,,,,,0,,,41,27
900960,note_on,0,0,2,,,,,,,,,,,,,,,0,,,48,32
900960,set_tempo,240,1,0,,,,,,,,,,,,771010,,,,,,,
901002,control_change,42,0,2,,,,,,,,,,,,,,,0,64,0,,
901066,control_change,64,0,2,,,,,,,,,,,,,,,0,64,127,,
901320,note_on,254,0,2,,,,,,,,,,,,,,,0,,,48,0
901320,note_on,0,0,2,,,,,,,,,,,,,,,0,,,50,27
901440,control_change,0,0,2,,,,,,,,,,,,,,,0,64,0,,
901440,note_on,0,0,2,,,,,,,,,,,,,,,0,,,51,28
901440,note_on,0,0,2,,,,,,,,,,,,,,,0,,,41,25
901440,note_on,0,0,2,,,,,,,,,,,,,,,0,,,41,0
901440,note_on,120,0,2,,,,,,,,,,,,,,,0,,,50,0
901440,note_on,0,0,1,,,,,,,,,,,,,,,0,,,53,0
901440,set_tempo,480,1,0,,,,,,,,,,,,792498,,,,,,,
901440,note_on,0,0,1,,,,,,,,,,,,,,,0,,,57,49
901440,note_on,0,0,1,,,,,,,,,,,,,,,0,,,54,33
901440,note_on,480,0,1,,,,,,,,,,,,,,,0,,,57,0
901511,control_change,71,0,2,,,,,,,,,,,,,,,0,64,127,,
901920,note_on,0,0,1,,,,,,,,,,,,,,,0,,,57,46
901920,note_on,0,0,1,,,,,,,,,,,,,,,0,,,53,39
901920,note_on,409,0,2,,,,,,,,,,,,,,,0,,,51,0
901920,note_on,0,0,2,,,,,,,,,,,,,,,0,,,41,0
901920,note_on,0,0,2,,,,,,,,,,,,,,,0,,,41,24
901920,note_on,0,0,2,,,,,,,,,,,,,,,0,,,48,28
901920,note_on,480,0,1,,,,,,,,,,,,,,,0,,,57,0
901920,note_on,0,0,1,,,,,,,,,,,,,,,0,,,54,0
901920,set_tempo,480,1,0,,,,,,,,,,,,820906,,,,,,,
901934,control_change,14,0,2,,,,,,,,,,,,,,,0,64,0,,
901991,control_change,57,0,2,,,,,,,,,,,,,,,0,64,127,,
902160,set_tempo,240,1,0,,,,,,,,,,,,877706,,,,,,,
902160,note_on,240,0,1,,,,,,,,,,,,,,,0,,,53,0
902160,note_on,0,0,1,,,,,,,,,,,,,,,0,,,51,43
902400,control_change,0,0,2,,,,,,,,,,,,,,,0,64,0,,
902400,note_on,0,0,2,,,,,,,,,,,,,,,0,,,46,28
902400,note_on,0,0,2,,,,,,,,,,,,,,,0,,,50,34
902400,note_on,0,0,2,,,,,,,,,,,,,,,0,,,41,0
902400,note_on,0,0,1,,,,,,,,,,,,,,,0,,,58,48
902400,note_on,0,0,1,,,,,,,,,,,,,,,0,,,57,0
902400,note_on,240,0,1,,,,,,,,,,,,,,,0,,,51,0
902400,note_on,409,0,2,,,,,,,,,,,,,,,0,,,48,0
902400,set_tempo,240,1,0,,,,,,,,,,,,776297,,,,,,,
902640,note_on,240,0,1,,,,,,,,,,,,,,,0,,,58,0
902640,set_tempo,240,1,0,,,,,,,,,,,,760071,,,,,,,
902640,note_on,0,0,2,,,,,,,,,,,,,,,0,,,53,26
902640,note_on,240,0,2,,,,,,,,,,,,,,,0,,,50,0
902760,note_on,120,0,2,,,,,,,,,,,,,,,0,,,53,0
902880,set_tempo,240,1,0,,,,,,,,,,,,760071,,,,,,,
902880,note_on,0,0,2,,,,,,,,,,,,,,,0,,,53,26
902880,note_on,120,0,2,,,,,,,,,,,,,,,0,,,46,0
903000,note_on,120,0,2,,,,,,,,,,,,,,,0,,,53,0
903120,note_on,120,0,2,,,,,,,,,,,,,,,0,,,53,26
903240,note_on,120,0,2,,,,,,,,,,,,,,,0,,,53,0
903360,note_on,120,0,2,,,,,,,,,,,,,,,0,,,53,26
903480,note_on,120,0,2,,,,,,,,,,,,,,,0,,,53,0
903600,note_on,120,0,2,,,,,,,,,,,,,,,0,,,53,26
903720,note_on,120,0,2,,,,,,,,,,,,,,,0,,,53,0
903840,note_on,0,0,1,,,,,,,,,,,,,,,0,,,70,38
903840,note_on,0,0,1,,,,,,,,,,,,,,,0,,,65,32
903840,note_on,1200,0,1,,,,,,,,,,,,,,,0,,,58,28
903840,note_on,0,0,2,,,,,,,,,,,,,,,0,,,41,21
903840,note_on,120,0,2,,,,,,,,,,,,,,,0,,,50,26
903854,control_change,14,0,2,,,,,,,,,,,,,,,0,64,127,,
904080,note_on,226,0,2,,,,,,,,,,,,,,,0,,,50,0
904080,note_on,0,0,2,,,,,,,,,,,,,,,0,,,53,22
904320,control_change,0,0,2,,,,,,,,,,,,,,,0,64,0,,
904320,note_on,0,0,1,,,,,,,,,,,,,,,0,,,58,29
904320,note_on,0,0,1,,,,,,,,,,,,,,,0,,,58,0
904320,note_on,0,0,1,,,,,,,,,,,,,,,0,,,65,0
904320,note_on,480,0,1,,,,,,,,,,,,,,,0,,,70,0
904320,note_on,0,0,1,,,,,,,,,,,,,,,0,,,65,33
904320,note_on,0,0,1,,,,,,,,,,,,,,,0,,,70,40
904320,note_on,0,0,2,,,,,,,,,,,,,,,0,,,41,22
904320,note_on,0,0,2,,,,,,,,,,,,,,,0,,,41,0
904320,note_on,240,0,2,,,,,,,,,,,,,,,0,,,53,0
904320,note_on,0,0,2,,,,,,,,,,,,,,,0,,,50,27
904405,control_change,85,0,2,,,,,,,,,,,,,,,0,64,127,,
904560,note_on,155,0,2,,,,,,,,,,,,,,,0,,,50,0
904560,note_on,0,0,2,,,,,,,,,,,,,,,0,,,53,22
904600,set_tempo,1720,1,0,,,,,,,,,,,,798722,,,,,,,
904800,note_on,0,0,2,,,,,,,,,,,,,,,0,,,41,0
904800,note_on,0,0,1,,,,,,,,,,,,,,,0,,,65,0
904800,note_on,0,0,2,,,,,,,,,,,,,,,0,,,41,18
904800,note_on,0,0,1,,,,,,,,,,,,,,,0,,,58,0
904800,note_on,0,0,1,,,,,,,,,,,,,,,0,,,57,24
904800,note_on,0,0,1,,,,,,,,,,,,,,,0,,,65,32
904800,note_on,0,0,1,,,,,,,,,,,,,,,0,,,69,38
904800,control_change,0,0,2,,,,,,,,,,,,,,,0,64,0,,
904800,set_tempo,200,1,0,,,,,,,,,,,,776297,,,,,,,
904800,note_on,240,0,2,,,,,,,,,,,,,,,0,,,53,0
904800,note_on,480,0,1,,,,,,,,,,,,,,,0,,,70,0
904800,note_on,0,0,2,,,,,,,,,,,,,,,0,,,48,24
904885,control_change,85,0,2,,,,,,,,,,,,,,,0,64,127,,
905040,note_on,0,0,2,,,,,,,,,,,,,,,0,,,53,21
905040,note_on,155,0,2,,,,,,,,,,,,,,,0,,,48,0
905040,set_tempo,240,1,0,,,,,,,,,,,,804613,,,,,,,
905200,set_tempo,160,1,0,,,,,,,,,,,,781759,,,,,,,
905280,note_on,0,0,1,,,,,,,,,,,,,,,0,,,58,29
905280,note_on,0,0,1,,,,,,,,,,,,,,,0,,,65,0
905280,note_on,0,0,1,,,,,,,,,,,,,,,0,,,65,33
905280,note_on,0,0,1,,,,,,,,,,,,,,,0,,,70,40
905280,note_on,480,0,1,,,,,,,,,,,,,,,0,,,69,0
905280,note_on,0,0,1,,,,,,,,,,,,,,,0,,,57,0
905280,note_on,0,0,2,,,,,,,,,,,,,,,0,,,50,27
905280,note_on,0,0,2,,,,,,,,,,,,,,,0,,,41,22
905280,note_on,0,0,2,,,,,,,,,,,,,,,0,,,41,0
905280,note_on,240,0,2,,,,,,,,,,,,,,,0,,,53,0
905280,set_tempo,80,1,0,,,,,,,,,,,,798722,,,,,,,
905322,control_change,42,0,2,,,,,,,,,,,,,,,0,64,0,,
905435,control_change,113,0,2,,,,,,,,,,,,,,,0,64,127,,
905520,set_tempo,240,1,0,,,,,,,,,,,,810482,,,,,,,
905520,note_on,85,0,2,,,,,,,,,,,,,,,0,,,50,0
905520,note_on,0,0,2,,,,,,,,,,,,,,,0,,,53,21
905760,note_on,480,0,1,,,,,,,,,,,,,,,0,,,70,0
905760,note_on,0,0,1,,,,,,,,,,,,,,,0,,,65,0
905760,note_on,0,0,1,,,,,,,,,,,,,,,0,,,58,0
905760,note_on,0,0,1,,,,,,,,,,,,,,,0,,,65,32
905760,note_on,0,0,1,,,,,,,,,,,,,,,0,,,60,28
905760,note_on,0,0,1,,,,,,,,,,,,,,,0,,,69,32
905760,note_on,0,0,1,,,,,,,,,,,,,,,0,,,72,38
905760,set_tempo,240,1,0,,,,,,,,,,,,781759,,,,,,,
905760,note_on,0,0,2,,,,,,,,,,,,,,,0,,,41,21
905760,note_on,0,0,2,,,,,,,,,,,,,,,0,,,51,26
905760,note_on,0,0,2,,,,,,,,,,,,,,,0,,,41,0
905760,note_on,240,0,2,,,,,,,,,,,,,,,0,,,53,0
905788,control_change,28,0,2,,,,,,,,,,,,,,,0,64,0,,
905901,control_change,113,0,2,,,,,,,,,,,,,,,0,64,127,,
906000,note_on,99,0,2,,,,,,,,,,,,,,,0,,,51,0
906000,set_tempo,240,1,0,,,,,,,,,,,,827586,,,,,,,
906000,note_on,0,0,2,,,,,,,,,,,,,,,0,,,53,20
906240,note_on,0,0,2,,,,,,,,,,,,,,,0,,,46,22
906240,note_on,0,0,2,,,,,,,,,,,,,,,0,,,41,0
906240,note_on,0,0,2,,,,,,,,,,,,,,,0,,,50,27
906240,control_change,0,0,2,,,,,,,,,,,,,,,0,64,0,,
906240,note_on,240,0,2,,,,,,,,,,,,,,,0,,,53,0
906240,set_tempo,240,1,0,,,,,,,,,,,,776297,,,,,,,
906240,note_on,0,0,1,,,,,,,,,,,,,,,0,,,65,0
906240,note_on,0,0,1,,,,,,,,,,,,,,,0,,,60,0
906240,note_on,0,0,1,,,,,,,,,,,,,,,0,,,69,0
906240,note_on,0,0,1,,,,,,,,,,,,,,,0,,,58,32
906240,note_on,0,0,1,,,,,,,,,,,,,,,0,,,65,36
906240,note_on,0,0,1,,,,,,,,,,,,,,,0,,,70,42
906240,note_on,480,0,1,,,,,,,,,,,,,,,0,,,72,0
906343,control_change,103,0,2,,,,,,,,,,,,,,,0,64,127,,
906459,control_change,116,0,2,,,,,,,,,,,,,,,0,64,0,,
906480,note_on,21,0,2,,,,,,,,,,,,,,,0,,,50,0
906480,set_tempo,240,1,0,,,,,,,,,,,,760071,,,,,,,
906480,note_on,0,0,2,,,,,,,,,,,,,,,0,,,53,20
906544,control_change,64,0,2,,,,,,,,,,,,,,,0,64,127,,
906600,note_on,56,0,2,,,,,,,,,,,,,,,0,,,53,0
906720,set_tempo,240,1,0,,,,,,,,,,,,760071,,,,,,,
906720,note_on,120,0,2,,,,,,,,,,,,,,,0,,,53,20
906840,note_on,120,0,2,,,,,,,,,,,,,,,0,,,53,0
906960,note_on,120,0,2,,,,,,,,,,,,,,,0,,,53,20
907080,note_on,120,0,2,,,,,,,,,,,,,,,0,,,53,0
907200,note_on,0,0,1,,,,,,,,,,,,,,,0,,,65,0
907200,note_on,960,0,1,,,,,,,,,,,,,,,0,,,70,0
907200,note_on,120,0,2,,,,,,,,,,,,,,,0,,,46,0
907200,note_on,0,0,2,,,,,,,,,,,,,,,0,,,53,20
907200,note_on,0,0,1,,,,,,,,,,,,,,,0,,,58,0
907320,note_on,120,0,2,,,,,,,,,,,,,,,0,,,53,0
907440,note_on,120,0,2,,,,,,,,,,,,,,,0,,,53,20
907560,note_on,120,0,2,,,,,,,,,,,,,,,0,,,53,0
907680,note_on,120,0,2,,,,,,,,,,,,,,,0,,,46,26
907680,note_on,0,0,2,,,,,,,,,,,,,,,0,,,41,21
907680,note_on,480,0,1,,,,,,,,,,,,,,,0,,,74,38
907680,note_on,0,0,1,,,,,,,,,,,,,,,0,,,65,32
907680,note_on,0,0,1,,,,,,,,,,,,,,,0,,,62,28
907701,control_change,21,0,2,,,,,,,,,,,,,,,0,64,0,,
907736,control_change,35,0,2,,,,,,,,,,,,,,,0,64,127,,
907920,note_on,0,0,2,,,,,,,,,,,,,,,0,,,53,22
907920,note_on,184,0,2,,,,,,,,,,,,,,,0,,,46,0
908160,note_on,0,0,2,,,,,,,,,,,,,,,0,,,41,0
908160,note_on,240,0,2,,,,,,,,,,,,,,,0,,,53,0
908160,control_change,0,0,2,,,,,,,,,,,,,,,0,64,0,,
908160,note_on,480,0,1,,,,,,,,,,,,,,,0,,,65,0
908160,note_on,0,0,1,,,,,,,,,,,,,,,0,,,62,0
908160,note_on,0,0,2,,,,,,,,,,,,,,,0,,,41,22
908160,note_on,0,0,2,,,,,,,,,,,,,,,0,,,46,27
908160,note_on,0,0,1,,,,,,,,,,,,,,,0,,,74,0
908160,note_on,0,0,1,,,,,,,,,,,,,,,0,,,62,29
908160,note_on,0,0,1,,,,,,,,,,,,,,,0,,,65,34
908160,note_on,0,0,1,,,,,,,,,,,,,,,0,,,74,41
908245,control_change,85,0,2,,,,,,,,,,,,,,,0,64,127,,
908400,note_on,0,0,2,,,,,,,,,,,,,,,0,,,53,23
908400,note_on,155,0,2,,,,,,,,,,,,,,,0,,,46,0
908440,set_tempo,1720,1,0,,,,,,,,,,,,798722,,,,,,,
908640,note_on,240,0,2,,,,,,,,,,,,,,,0,,,53,0
908640,note_on,0,0,2,,,,,,,,,,,,,,,0,,,41,0
908640,note_on,0,0,2,,,,,,,,,,,,,,,0,,,41,19
908640,note_on,0,0,2,,,,,,,,,,,,,,,0,,,45,25
908640,control_change,0,0,2,,,,,,,,,,,,,,,0,64,0,,
908640,note_on,0,0,1,,,,,,,,,,,,,,,0,,,62,0
908640,note_on,0,0,1,,,,,,,,,,,,,,,0,,,65,34
908640,set_tempo,200,1,0,,,,,,,,,,,,776297,,,,,,,
908640,note_on,480,0,1,,,,,,,,,,,,,,,0,,,74,0
908640,note_on,0,0,1,,,,,,,,,,,,,,,0,,,65,0
908640,note_on,0,0,1,,,,,,,,,,,,,,,0,,,60,25
908640,note_on,0,0,1,,,,,,,,,,,,,,,0,,,72,40
908725,control_change,85,0,2,,,,,,,,,,,,,,,0,64,127,,
908880,set_tempo,240,1,0,,,,,,,,,,,,804613,,,,,,,
908880,note_on,0,0,2,,,,,,,,,,,,,,,0,,,53,22
908880,note_on,155,0,2,,,,,,,,,,,,,,,0,,,45,0
909040,set_tempo,160,1,0,,,,,,,,,,,,781759,,,,,,,
909120,note_on,0,0,2,,,,,,,,,,,,,,,0,,,41,0
909120,note_on,240,0,2,,,,,,,,,,,,,,,0,,,53,0
909120,note_on,0,0,2,,,,,,,,,,,,,,,0,,,46,28
909120,set_tempo,80,1,0,,,,,,,,,,,,798722,,,,,,,
909120,note_on,0,0,2,,,,,,,,,,,,,,,0,,,41,24
909120,note_on,0,0,1,,,,,,,,,,,,,,,0,,,72,0
909120,note_on,0,0,1,,,,,,,,,,,,,,,0,,,60,0
909120,note_on,0,0,1,,,,,,,,,,,,,,,0,,,74,44
909120,note_on,0,0,1,,,,,,,,,,,,,,,0,,,62,31
909120,note_on,0,0,1,,,,,,,,,,,,,,,0,,,65,36
909120,note_on,480,0,1,,,,,,,,,,,,,,,0,,,65,0
909162,control_change,42,0,2,,,,,,,,,,,,,,,0,64,0,,
909275,control_change,113,0,2,,,,,,,,,,,,,,,0,64,127,,
909360,note_on,0,0,2,,,,,,,,,,,,,,,0,,,53,23
909360,set_tempo,240,1,0,,,,,,,,,,,,810482,,,,,,,
909360,note_on,85,0,2,,,,,,,,,,,,,,,0,,,46,0
909600,note_on,0,0,1,,,,,,,,,,,,,,,0,,,69,36
909600,note_on,0,0,1,,,,,,,,,,,,,,,0,,,63,36
909600,note_on,0,0,1,,,,,,,,,,,,,,,0,,,75,43
909600,note_on,0,0,1,,,,,,,,,,,,,,,0,,,74,0
909600,note_on,0,0,1,,,,,,,,,,,,,,,0,,,62,0
909600,note_on,480,0,1,,,,,,,,,,,,,,,0,,,65,0
909600,set_tempo,240,1,0,,,,,,,,,,,,781759,,,,,,,
909600,note_on,0,0,2,,,,,,,,,,,,,,,0,,,41,23
909600,note_on,0,0,2,,,,,,,,,,,,,,,0,,,48,28
909600,note_on,240,0,2,,,,,,,,,,,,,,,0,,,53,0
909600,note_on,0,0,2,,,,,,,,,,,,,,,0,,,41,0
909628,control_change,28,0,2,,,,,,,,,,,,,,,0,64,0,,
909741,control_change,113,0,2,,,,,,,,,,,,,,,0,64,127,,
909840,set_tempo,240,1,0,,,,,,,,,,,,810482,,,,,,,
909840,note_on,0,0,2,,,,,,,,,,,,,,,0,,,53,22
909840,note_on,99,0,2,,,,,,,,,,,,,,,0,,,48,0
909880,set_tempo,40,1,0,,,,,,,,,,,,863309,,,,,,,
910080,set_tempo,200,1,0,,,,,,,,,,,,776297,,,,,,,
910080,note_on,480,0,1,,,,,,,,,,,,,,,0,,,69,0
910080,note_on,0,0,1,,,,,,,,,,,,,,,0,,,63,0
910080,note_on,0,0,1,,,,,,,,,,,,,,,0,,,75,0
910080,note_on,0,0,1,,,,,,,,,,,,,,,0,,,62,32
910080,note_on,0,0,1,,,,,,,,,,,,,,,0,,,74,42
910080,note_on,0,0,1,,,,,,,,,,,,,,,0,,,70,36
910080,note_on,0,0,2,,,,,,,,,,,,,,,0,,,41,0
910080,control_change,0,0,2,,,,,,,,,,,,,,,0,64,0,,
910080,note_on,0,0,2,,,,,,,,,,,,,,,0,,,46,22
910080,note_on,240,0,2,,,,,,,,,,,,,,,0,,,53,0
910183,control_change,103,0,2,,,,,,,,,,,,,,,0,64,127,,
910299,control_change,116,0,2,,,,,,,,,,,,,,,0,64,0,,
910320,note_on,21,0,2,,,,,,,,,,,,,,,0,,,53,20
910320,set_tempo,240,1,0,,,,,,,,,,,,760071,,,,,,,
910384,control_change,64,0,2,,,,,,,,,,,,,,,0,64,127,,
910440,note_on,56,0,2,,,,,,,,,,,,,,,0,,,53,0
910560,set_tempo,240,1,0,,,,,,,,,,,,760071,,,,,,,
910560,note_on,120,0,2,,,,,,,,,,,,,,,0,,,53,20
910680,note_on,120,0,2,,,,,,,,,,,,,,,0,,,53,0
910800,note_on,120,0,2,,,,,,,,,,,,,,,0,,,53,20
910920,note_on,120,0,2,,,,,,,,,,,,,,,0,,,53,0
911040,note_on,960,0,1,,,,,,,,,,,,,,,0,,,74,0
911040,note_on,0,0,1,,,,,,,,,,,,,,,0,,,70,0
911040,note_on,0,0,1,,,,,,,,,,,,,,,0,,,62,0
911040,note_on,120,0,2,,,,,,,,,,,,,,,0,,,46,0
911040,note_on,0,0,2,,,,,,,,,,,,,,,0,,,53,20
911160,note_on,120,0,2,,,,,,,,,,,,,,,0,,,53,0
911280,note_on,120,0,2,,,,,,,,,,,,,,,0,,,53,20
911400,note_on,120,0,2,,,,,,,,,,,,,,,0,,,53,0
911520,note_on,0,0,2,,,,,,,,,,,,,,,0,,,41,21
911520,set_tempo,960,1,0,,,,,,,,,,,,776297,,,,,,,
911520,note_on,120,0,2,,,,,,,,,,,,,,,0,,,50,26
911520,note_on,0,0,1,,,,,,,,,,,,,,,0,,,70,38
911520,note_on,0,0,1,,,,,,,,,,,,,,,0,,,65,32
911520,note_on,480,0,1,,,,,,,,,,,,,,,0,,,58,28
911534,control_change,14,0,2,,,,,,,,,,,,,,,0,64,127,,
911760,note_on,226,0,2,,,,,,,,,,,,,,,0,,,50,0
911760,note_on,0,0,2,,,,,,,,,,,,,,,0,,,53,22
912000,control_change,0,0,2,,,,,,,,,,,,,,,0,64,0,,
912000,note_on,0,0,2,,,,,,,,,,,,,,,0,,,41,0
912000,note_on,0,0,1,,,,,,,,,,,,,,,0,,,70,40
912000,note_on,0,0,1,,,,,,,,,,,,,,,0,,,65,33
912000,note_on,0,0,1,,,,,,,,,,,,,,,0,,,58,29
912000,note_on,0,0,1,,,,,,,,,,,,,,,0,,,65,0
912000,note_on,0,0,1,,,,,,,,,,,,,,,0,,,58,0
912000,note_on,240,0,2,,,,,,,,,,,,,,,0,,,53,0
912000,note_on,0,0,2,,,,,,,,,,,,,,,0,,,41,22
912000,note_on,0,0,2,,,,,,,,,,,,,,,0,,,50,27
912000,note_on,480,0,1,,,,,,,,,,,,,,,0,,,70,0
912085,control_change,85,0,2,,,,,,,,,,,,,,,0,64,127,,
912240,note_on,0,0,2,,,,,,,,,,,,,,,0,,,53,22
912240,note_on,155,0,2,,,,,,,,,,,,,,,0,,,50,0
912280,set_tempo,760,1,0,,,,,,,,,,,,798722,,,,,,,
912480,note_on,0,0,1,,,,,,,,,,,,,,,0,,,69,38
912480,set_tempo,200,1,0,,,,,,,,,,,,776297,,,,,,,
912480,note_on,0,0,1,,,,,,,,,,,,,,,0,,,58,0
912480,note_on,0,0,1,,,,,,,,,,,,,,,0,,,65,32
912480,note_on,240,0,2,,,,,,,,,,,,,,,0,,,53,0
912480,note_on,0,0,2,,,,,,,,,,,,,,,0,,,41,0
912480,control_change,0,0,2,,,,,,,,,,,,,,,0,64,0,,
912480,note_on,0,0,1,,,,,,,,,,,,,,,0,,,57,24
912480,note_on,0,0,2,,,,,,,,,,,,,,,0,,,48,24
912480,note_on,0,0,1,,,,,,,,,,,,,,,0,,,65,0
912480,note_on,480,0,1,,,,,,,,,,,,,,,0,,,70,0
912480,note_on,0,0,2,,,,,,,,,,,,,,,0,,,41,18
912565,control_change,85,0,2,,,,,,,,,,,,,,,0,64,127,,
912720,set_tempo,240,1,0,,,,,,,,,,,,804613,,,,,,,
912720,note_on,0,0,2,,,,,,,,,,,,,,,0,,,53,21
912720,note_on,155,0,2,,,,,,,,,,,,,,,0,,,48,0
912880,set_tempo,160,1,0,,,,,,,,,,,,781759,,,,,,,
912960,note_on,0,0,1,,,,,,,,,,,,,,,0,,,65,0
912960,note_on,0,0,1,,,,,,,,,,,,,,,0,,,70,40
912960,note_on,0,0,1,,,,,,,,,,,,,,,0,,,65,33
912960,note_on,480,0,1,,,,,,,,,,,,,,,0,,,69,0
912960,note_on,0,0,2,,,,,,,,,,,,,,,0,,,41,22
912960,note_on,0,0,2,,,,,,,,,,,,,,,0,,,50,27
912960,set_tempo,80,1,0,,,,,,,,,,,,798722,,,,,,,
912960,note_on,0,0,2,,,,,,,,,,,,,,,0,,,41,0
912960,note_on,240,0,2,,,,,,,,,,,,,,,0,,,53,0
912960,note_on,0,0,1,,,,,,,,,,,,,,,0,,,57,0
912960,note_on,0,0,1,,,,,,,,,,,,,,,0,,,58,29
913002,control_change,42,0,2,,,,,,,,,,,,,,,0,64,0,,
913115,control_change,113,0,2,,,,,,,,,,,,,,,0,64,127,,
913200,note_on,85,0,2,,,,,,,,,,,,,,,0,,,50,0
913200,note_on,0,0,2,,,,,,,,,,,,,,,0,,,53,21
913200,set_tempo,240,1,0,,,,,,,,,,,,810482,,,,,,,
913440,note_on,240,0,2,,,,,,,,,,,,,,,0,,,53,0
913440,note_on,0,0,2,,,,,,,,,,,,,,,0,,,41,0
913440,note_on,0,0,2,,,,,,,,,,,,,,,0,,,51,26
913440,note_on,0,0,2,,,,,,,,,,,,,,,0,,,41,21
913440,note_on,0,0,1,,,,,,,,,,,,,,,0,,,65,32
913440,set_tempo,240,1,0,,,,,,,,,,,,851064,,,,,,,
913440,note_on,0,0,1,,,,,,,,,,,,,,,0,,,58,0
913440,note_on,0,0,1,,,,,,,,,,,,,,,0,,,60,28
913440,note_on,0,0,1,,,,,,,,,,,,,,,0,,,69,32
913440,note_on,480,0,1,,,,,,,,,,,,,,,0,,,70,0
913440,note_on,0,0,1,,,,,,,,,,,,,,,0,,,65,0
913440,note_on,0,0,1,,,,,,,,,,,,,,,0,,,72,38
913468,control_change,28,0,2,,,,,,,,,,,,,,,0,64,0,,
913581,control_change,113,0,2,,,,,,,,,,,,,,,0,64,127,,
913680,note_on,0,0,2,,,,,,,,,,,,,,,0,,,53,20
913680,note_on,99,0,2,,,,,,,,,,,,,,,0,,,51,0
913680,set_tempo,240,1,0,,,,,,,,,,,,983607,,,,,,,
913920,note_on,0,0,1,,,,,,,,,,,,,,,0,,,65,0
913920,control_change,0,0,2,,,,,,,,,,,,,,,0,64,0,,
913920,note_on,0,0,2,,,,,,,,,,,,,,,0,,,53,27
913920,note_on,0,0,2,,,,,,,,,,,,,,,0,,,51,22
913920,note_on,480,0,1,,,,,,,,,,,,,,,0,,,72,0
913920,note_on,0,0,2,,,,,,,,,,,,,,,0,,,41,0
913920,note_on,240,0,2,,,,,,,,,,,,,,,0,,,53,0
913920,note_on,0,0,2,,,,,,,,,,,,,,,0,,,41,22
913920,note_on,0,0,1,,,,,,,,,,,,,,,0,,,65,36
913920,note_on,0,0,1,,,,,,,,,,,,,,,0,,,60,32
913920,note_on,0,0,1,,,,,,,,,,,,,,,0,,,69,36
913920,note_on,0,0,1,,,,,,,,,,,,,,,0,,,69,0
913920,note_on,0,0,1,,,,,,,,,,,,,,,0,,,60,0
913920,note_on,0,0,1,,,,,,,,,,,,,,,0,,,72,42
913920,set_tempo,240,1,0,,,,,,,,,,,,789474,,,,,,,
914023,control_change,103,0,2,,,,,,,,,,,,,,,0,64,127,,
915574,control_change,1551,0,2,,,,,,,,,,,,,,,0,64,0,,
915600,note_on,26,0,2,,,,,,,,,,,,,,,0,,,53,0
915600,note_on,0,0,2,,,,,,,,,,,,,,,0,,,51,0
915600,note_on,0,0,2,,,,,,,,,,,,,,,0,,,29,20
915600,set_tempo,1680,1,0,,,,,,,,,,,,816327,,,,,,,
915600,note_on,0,0,2,,,,,,,,,,,,,,,0,,,41,0
915680,note_on,80,0,2,,,,,,,,,,,,,,,0,,,30,16
915720,note_on,40,0,2,,,,,,,,,,,,,,,0,,,29,0
915760,note_on,40,0,2,,,,,,,,,,,,,,,0,,,32,16
915800,note_on,40,0,2,,,,,,,,,,,,,,,0,,,30,0
915840,note_on,40,0,2,,,,,,,,,,,,,,,0,,,30,20
915840,set_tempo,240,1,0,,,,,,,,,,,,855920,,,,,,,
915880,note_on,40,0,2,,,,,,,,,,,,,,,0,,,32,0
915900,note_on,20,0,2,,,,,,,,,,,,,,,0,,,32,17
915904,set_tempo,64,1,0,,,,,,,,,,,,849137,,,,,,,
915940,note_on,40,0,2,,,,,,,,,,,,,,,0,,,30,0
915960,note_on,20,0,2,,,,,,,,,,,,,,,0,,,30,18
915960,set_tempo,56,1,0,,,,,,,,,,,,842697,,,,,,,
916000,note_on,40,0,2,,,,,,,,,,,,,,,0,,,32,0
916020,note_on,20,0,2,,,,,,,,,,,,,,,0,,,32,16
916024,set_tempo,64,1,0,,,,,,,,,,,,836120,,,,,,,
916060,note_on,40,0,2,,,,,,,,,,,,,,,0,,,30,0
916080,note_on,20,0,2,,,,,,,,,,,,,,,0,,,30,18
916080,set_tempo,56,1,0,,,,,,,,,,,,829876,,,,,,,
916120,note_on,40,0,2,,,,,,,,,,,,,,,0,,,32,0
916140,note_on,20,0,2,,,,,,,,,,,,,,,0,,,32,16
916144,set_tempo,64,1,0,,,,,,,,,,,,823610,,,,,,,
916180,note_on,40,0,2,,,,,,,,,,,,,,,0,,,30,0
916200,note_on,20,0,2,,,,,,,,,,,,,,,0,,,30,18
916200,set_tempo,56,1,0,,,,,,,,,,,,817550,,,,,,,
916212,set_tempo,12,1,0,,,,,,,,,,,,793861,,,,,,,
916224,set_tempo,12,1,0,,,,,,,,,,,,788126,,,,,,,
916240,note_on,40,0,2,,,,,,,,,,,,,,,0,,,32,0
916260,note_on,20,0,2,,,,,,,,,,,,,,,0,,,32,18
916280,set_tempo,56,1,0,,,,,,,,,,,,793861,,,,,,,
916292,set_tempo,12,1,0,,,,,,,,,,,,805477,,,,,,,
916300,note_on,40,0,2,,,,,,,,,,,,,,,0,,,30,0
916320,note_on,20,0,2,,,,,,,,,,,,,,,0,,,30,19
916332,set_tempo,40,1,0,,,,,,,,,,,,793861,,,,,,,
916360,set_tempo,28,1,0,,,,,,,,,,,,788126,,,,,,,
916360,note_on,40,0,2,,,,,,,,,,,,,,,0,,,32,0
916372,set_tempo,12,1,0,,,,,,,,,,,,777001,,,,,,,
916380,note_on,20,0,2,,,,,,,,,,,,,,,0,,,32,17
916384,set_tempo,12,1,0,,,,,,,,,,,,771506,,,,,,,
916400,set_tempo,16,1,0,,,,,,,,,,,,782473,,,,,,,
916412,set_tempo,12,1,0,,,,,,,,,,,,788126,,,,,,,
916420,note_on,40,0,2,,,,,,,,,,,,,,,0,,,30,0
916424,set_tempo,12,1,0,,,,,,,,,,,,799680,,,,,,,
916440,set_tempo,16,1,0,,,,,,,,,,,,793861,,,,,,,
916440,note_on,20,0,2,,,,,,,,,,,,,,,0,,,30,19
916452,set_tempo,12,1,0,,,,,,,,,,,,782473,,,,,,,
916464,set_tempo,12,1,0,,,,,,,,,,,,777001,,,,,,,
916480,note_on,40,0,2,,,,,,,,,,,,,,,0,,,32,0
916480,set_tempo,16,1,0,,,,,,,,,,,,771506,,,,,,,
916492,set_tempo,12,1,0,,,,,,,,,,,,765990,,,,,,,
916500,note_on,20,0,2,,,,,,,,,,,,,,,0,,,32,16
916532,set_tempo,40,1,0,,,,,,,,,,,,777001,,,,,,,
916540,note_on,40,0,2,,,,,,,,,,,,,,,0,,,30,0
916544,set_tempo,12,1,0,,,,,,,,,,,,788126,,,,,,,
916560,note_on,20,0,2,,,,,,,,,,,,,,,0,,,30,18
916560,set_tempo,16,1,0,,,,,,,,,,,,793861,,,,,,,
916572,set_tempo,12,1,0,,,,,,,,,,,,799680,,,,,,,
916600,set_tempo,28,1,0,,,,,,,,,,,,793861,,,,,,,
916600,note_on,40,0,2,,,,,,,,,,,,,,,0,,,32,0
916612,set_tempo,12,1,0,,,,,,,,,,,,782473,,,,,,,
916620,note_on,20,0,2,,,,,,,,,,,,,,,0,,,32,17
916624,set_tempo,12,1,0,,,,,,,,,,,,777001,,,,,,,
916640,set_tempo,16,1,0,,,,,,,,,,,,771506,,,,,,,
916652,set_tempo,12,1,0,,,,,,,,,,,,765990,,,,,,,
916660,note_on,40,0,2,,,,,,,,,,,,,,,0,,,30,0
916664,set_tempo,12,1,0,,,,,,,,,,,,771506,,,,,,,
916680,note_on,20,0,2,,,,,,,,,,,,,,,0,,,30,17
916680,set_tempo,16,1,0,,,,,,,,,,,,782473,,,,,,,
916692,set_tempo,12,1,0,,,,,,,,,,,,788126,,,,,,,
916720,note_on,40,0,2,,,,,,,,,,,,,,,0,,,32,0
916720,set_tempo,28,1,0,,,,,,,,,,,,793861,,,,,,,
916740,note_on,20,0,2,,,,,,,,,,,,,,,0,,,32,16
916744,set_tempo,24,1,0,,,,,,,,,,,,782473,,,,,,,
916760,set_tempo,16,1,0,,,,,,,,,,,,777001,,,,,,,
916772,set_tempo,12,1,0,,,,,,,,,,,,765990,,,,,,,
916780,note_on,40,0,2,,,,,,,,,,,,,,,0,,,30,0
916784,set_tempo,12,1,0,,,,,,,,,,,,771506,,,,,,,
916800,set_tempo,16,1,0,,,,,,,,,,,,793861,,,,,,,
916800,note_on,20,0,2,,,,,,,,,,,,,,,0,,,30,18
916812,set_tempo,12,1,0,,,,,,,,,,,,805477,,,,,,,
916824,set_tempo,12,1,0,,,,,,,,,,,,811469,,,,,,,
916840,set_tempo,16,1,0,,,,,,,,,,,,805477,,,,,,,
916840,note_on,40,0,2,,,,,,,,,,,,,,,0,,,32,0
916852,set_tempo,12,1,0,,,,,,,,,,,,788126,,,,,,,
916860,note_on,20,0,2,,,,,,,,,,,,,,,0,,,32,17
916864,set_tempo,12,1,0,,,,,,,,,,,,782473,,,,,,,
916880,set_tempo,16,1,0,,,,,,,,,,,,777001,,,,,,,
916892,set_tempo,12,1,0,,,,,,,,,,,,771506,,,,,,,
916900,note_on,40,0,2,,,,,,,,,,,,,,,0,,,30,0
916904,set_tempo,12,1,0,,,,,,,,,,,,777001,,,,,,,
916920,note_on,20,0,2,,,,,,,,,,,,,,,0,,,30,18
916920,set_tempo,16,1,0,,,,,,,,,,,,793861,,,,,,,
916932,set_tempo,12,1,0,,,,,,,,,,,,799680,,,,,,,
916960,note_on,40,0,2,,,,,,,,,,,,,,,0,,,32,0
916960,set_tempo,28,1,0,,,,,,,,,,,,788126,,,,,,,
916972,set_tempo,12,1,0,,,,,,,,,,,,777001,,,,,,,
916980,note_on,20,0,2,,,,,,,,,,,,,,,0,,,32,16
916984,set_tempo,12,1,0,,,,,,,,,,,,771506,,,,,,,
917000,set_tempo,16,1,0,,,,,,,,,,,,765990,,,,,,,
917012,set_tempo,12,1,0,,,,,,,,,,,,771506,,,,,,,
917020,note_on,40,0,2,,,,,,,,,,,,,,,0,,,30,0
917024,set_tempo,12,1,0,,,,,,,,,,,,782473,,,,,,,
917040,set_tempo,16,1,0,,,,,,,,,,,,788126,,,,,,,
917040,note_on,20,0,2,,,,,,,,,,,,,,,0,,,30,18
917052,set_tempo,12,1,0,,,,,,,,,,,,793861,,,,,,,
917080,note_on,40,0,2,,,,,,,,,,,,,,,0,,,32,0
917092,set_tempo,40,1,0,,,,,,,,,,,,782473,,,,,,,
917100,note_on,20,0,2,,,,,,,,,,,,,,,0,,,32,15
917104,set_tempo,12,1,0,,,,,,,,,,,,777001,,,,,,,
917120,set_tempo,16,1,0,,,,,,,,,,,,771506,,,,,,,
917140,note_on,40,0,2,,,,,,,,,,,,,,,0,,,30,0
917160,note_on,20,0,2,,,,,,,,,,,,,,,0,,,30,18
917172,set_tempo,52,1,0,,,,,,,,,,,,782473,,,,,,,
917184,set_tempo,12,1,0,,,,,,,,,,,,793861,,,,,,,
917200,set_tempo,16,1,0,,,,,,,,,,,,799680,,,,,,,
917200,note_on,40,0,2,,,,,,,,,,,,,,,0,,,32,0
917212,set_tempo,12,1,0,,,,,,,,,,,,788126,,,,,,,
917220,note_on,20,0,2,,,,,,,,,,,,,,,0,,,32,15
917224,set_tempo,12,1,0,,,,,,,,,,,,782473,,,,,,,
917240,set_tempo,16,1,0,,,,,,,,,,,,777001,,,,,,,
917252,set_tempo,12,1,0,,,,,,,,,,,,771506,,,,,,,
917260,note_on,40,0,2,,,,,,,,,,,,,,,0,,,30,0
917264,set_tempo,12,1,0,,,,,,,,,,,,777001,,,,,,,
917280,set_tempo,16,1,0,,,,,,,,,,,,788126,,,,,,,
917280,note_on,20,0,2,,,,,,,,,,,,,,,0,,,30,19
917292,set_tempo,12,1,0,,,,,,,,,,,,799680,,,,,,,
917304,set_tempo,12,1,0,,,,,,,,,,,,805477,,,,,,,
917320,set_tempo,16,1,0,,,,,,,,,,,,811469,,,,,,,
917320,note_on,40,0,2,,,,,,,,,,,,,,,0,,,32,0
917332,set_tempo,12,1,0,,,,,,,,,,,,817550,,,,,,,
917340,note_on,20,0,2,,,,,,,,,,,,,,,0,,,32,16
917344,set_tempo,12,1,0,,,,,,,,,,,,811469,,,,,,,
917360,set_tempo,16,1,0,,,,,,,,,,,,799680,,,,,,,
917372,set_tempo,12,1,0,,,,,,,,,,,,793861,,,,,,,
917380,note_on,40,0,2,,,,,,,,,,,,,,,0,,,30,0
917400,note_on,20,0,2,,,,,,,,,,,,,,,0,,,30,18
917440,note_on,40,0,2,,,,,,,,,,,,,,,0,,,32,0
917460,note_on,20,0,2,,,,,,,,,,,,,,,0,,,32,15
917480,set_tempo,108,1,0,,,,,,,,,,,,799680,,,,,,,
917500,note_on,40,0,2,,,,,,,,,,,,,,,0,,,30,0
917520,note_on,20,0,2,,,,,,,,,,,,,,,0,,,29,18
917520,set_tempo,40,1,0,,,,,,,,,,,,771506,,,,,,,
917560,note_on,40,0,2,,,,,,,,,,,,,,,0,,,32,0
917640,set_tempo,120,1,0,,,,,,,,,,,,842697,,,,,,,
917640,note_on,80,0,2,,,,,,,,,,,,,,,0,,,30,14
917680,note_on,40,0,2,,,,,,,,,,,,,,,0,,,29,0
917760,set_tempo,120,1,0,,,,,,,,,,,,782371,,,,,,,
917760,note_on,80,0,2,,,,,,,,,,,,,,,0,,,29,18
917800,note_on,40,0,2,,,,,,,,,,,,,,,0,,,30,0
917880,note_on,80,0,2,,,,,,,,,,,,,,,0,,,29,0
918240,note_on,4320,0,1,,,,,,,,,,,,,,,0,,,72,0
918240,note_on,0,0,1,,,,,,,,,,,,,,,0,,,69,0
918240,note_on,0,0,1,,,,,,,,,,,,,,,0,,,60,0
918240,note_on,0,0,1,,,,,,,,,,,,,,,0,,,65,0
918720,note_on,0,0,2,,,,,,,,,,,,,,,0,,,53,29
918720,note_on,480,0,1,,,,,,,,,,,,,,,0,,,63,30
918720,note_on,0,0,1,,,,,,,,,,,,,,,0,,,69,30
918720,note_on,0,0,2,,,,,,,,,,,,,,,0,,,48,25
918720,note_on,840,0,2,,,,,,,,,,,,,,,0,,,41,25
918720,note_on,0,0,1,,,,,,,,,,,,,,,0,,,77,36
918727,control_change,7,0,2,,,,,,,,,,,,,,,0,64,127,,
919200,note_on,480,0,1,,,,,,,,,,,,,,,0,,,77,0
919200,note_on,0,0,2,,,,,,,,,,,,,,,0,,,41,0
919200,note_on,0,0,2,,,,,,,,,,,,,,,0,,,48,0
919200,note_on,473,0,2,,,,,,,,,,,,,,,0,,,53,0
919200,note_on,0,0,1,,,,,,,,,,,,,,,0,,,63,0
919200,note_on,0,0,1,,,,,,,,,,,,,,,0,,,69,0
919292,control_change,92,0,2,,,,,,,,,,,,,,,0,64,0,,
919680,note_on,0,0,2,,,,,,,,,,,,,,,0,,,53,30
919680,note_on,388,0,2,,,,,,,,,,,,,,,0,,,46,25
919680,note_on,480,0,1,,,,,,,,,,,,,,,0,,,62,30
919680,note_on,0,0,1,,,,,,,,,,,,,,,0,,,70,36
919733,control_change,53,0,2,,,,,,,,,,,,,,,0,64,127,,
920160,note_on,480,0,1,,,,,,,,,,,,,,,0,,,70,0
920160,note_on,0,0,1,,,,,,,,,,,,,,,0,,,62,0
920160,end_of_track,0,1,1,,,,,,,,,,,,,,,,,,,
920160,note_on,427,0,2,,,,,,,,,,,,,,,0,,,53,0
920160,note_on,0,0,2,,,,,,,,,,,,,,,0,,,46,0
920587,control_change,427,0,2,,,,,,,,,,,,,,,0,64,0,,
921600,note_on,1013,0,2,,,,,,,,,,,,,,,0,,,34,24
921600,note_on,0,0,2,,,,,,,,,,,,,,,0,,,46,24
921600,note_on,0,0,2,,,,,,,,,,,,,,,0,,,50,24
921600,note_on,0,0,2,,,,,,,,,,,,,,,0,,,53,24
921600,note_on,0,0,2,,,,,,,,,,,,,,,0,,,58,28
921707,control_change,107,0,2,,,,,,,,,,,,,,,0,64,127,,
922080,note_on,0,0,2,,,,,,,,,,,,,,,0,,,34,0
922080,note_on,373,0,2,,,,,,,,,,,,,,,0,,,58,0
922080,note_on,0,0,2,,,,,,,,,,,,,,,0,,,53,0
922080,note_on,0,0,2,,,,,,,,,,,,,,,0,,,46,0
922080,note_on,0,0,2,,,,,,,,,,,,,,,0,,,50,0
922480,control_change,400,0,2,,,,,,,,,,,,,,,0,64,0,,
923520,note_on,0,0,2,,,,,,,,,,,,,,,0,,,50,24
923520,note_on,1040,0,2,,,,,,,,,,,,,,,0,,,34,24
923520,note_on,0,0,2,,,,,,,,,,,,,,,0,,,58,28
923520,note_on,0,0,2,,,,,,,,,,,,,,,0,,,53,24
923520,note_on,0,0,2,,,,,,,,,,,,,,,0,,,46,24
923600,control_change,80,0,2,,,,,,,,,,,,,,,0,64,127,,
925440,set_tempo,7680,1,0,,,,,,,,,,,,857143,,,,,,,
925920,note_on,0,0,2,,,,,,,,,,,,,,,0,,,53,0
925920,note_on,0,0,2,,,,,,,,,,,,,,,0,,,46,0
925920,note_on,0,0,2,,,,,,,,,,,,,,,0,,,34,0
925920,note_on,0,0,2,,,,,,,,,,,,,,,0,,,50,0
925920,note_on,2320,0,2,,,,,,,,,,,,,,,0,,,58,0
926880,set_tempo,1440,1,0,,,,,,,,,,,,1000000,,,,,,,
926880,end_of_track,0,1,0,,,,,,,,,,,,,,,,,,,
926907,end_of_track,0,1,2,,,,,,,,,,,,,,,,,,,
926907,control_change,987,0,2,,,,,,,,,,,,,,,0,64,0,,
