tick,type,numerator,denominator,clocks_per_click,notated_32nd_notes_per_beat,time,meta,track,key,tempo,port,program,channel,control,value,note,velocity
0,time_signature,3,8,12,8,0,1,0,,,,,,,,,
0,program_change,,,,,0,0,1,,,,0,0,,,,
0,control_change,,,,,0,0,1,,,,,0,7,80,,
0,control_change,,,,,0,0,1,,,,,0,10,80,,
0,track_name,,,,,0,1,9,,,,,,,,,
0,midi_port,,,,,0,1,2,,,0,,,,,,
0,track_name,,,,,0,1,2,,,,,,,,,
0,program_change,,,,,0,0,2,,,,0,0,,,,
0,control_change,,,,,0,0,2,,,,,0,7,80,,
0,control_change,,,,,0,0,2,,,,,0,10,48,,
0,midi_port,,,,,0,1,3,,,0,,,,,,
0,end_of_track,,,,,0,1,3,,,,,,,,,
0,midi_port,,,,,0,1,4,,,0,,,,,,
0,track_name,,,,,0,1,1,,,,,,,,,
0,end_of_track,,,,,0,1,4,,,,,,,,,
0,track_name,,,,,0,1,5,,,,,,,,,
0,end_of_track,,,,,0,1,5,,,,,,,,,
0,midi_port,,,,,0,1,6,,,0,,,,,,
0,track_name,,,,,0,1,6,,,,,,,,,
0,end_of_track,,,,,0,1,6,,,,,,,,,
0,midi_port,,,,,0,1,7,,,0,,,,,,
0,track_name,,,,,0,1,7,,,,,,,,,
0,end_of_track,,,,,0,1,7,,,,,,,,,
0,midi_port,,,,,0,1,8,,,0,,,,,,
0,track_name,,,,,0,1,8,,,,,,,,,
0,end_of_track,,,,,0,1,8,,,,,,,,,
0,midi_port,,,,,0,1,9,,,0,,,,,,
0,midi_port,,,,,0,1,5,,,0,,,,,,
0,midi_port,,,,,0,1,1,,,0,,,,,,
0,end_of_track,,,,,0,1,9,,,,,,,,,
0,key_signature,,,,,0,1,0,D,,,,,,,,
0,set_tempo,,,,,0,1,0,,1428571,,,,,,,
40,set_tempo,,,,,40,1,0,,1428571,,,,,,,
85,set_tempo,,,,,45,1,0,,1428571,,,,,,,
90,note_on,,,,,0,0,1,,,,,0,,,57,42
90,note_on,,,,,0,0,1,,,,,0,,,69,42
90,control_change,,,,,90,0,1,,,,,0,91,96,,
120,note_on,,,,,0,0,1,,,,,0,,,59,48
120,note_on,,,,,0,0,1,,,,,0,,,71,48
120,note_on,,,,,0,0,1,,,,,0,,,69,0
120,note_on,,,,,30,0,1,,,,,0,,,57,0
125,set_tempo,,,,,40,1,0,,1395348,,,,,,,
130,set_tempo,,,,,5,1,0,,1395348,,,,,,,
140,set_tempo,,,,,10,1,0,,1395348,,,,,,,
150,note_on,,,,,0,0,1,,,,,0,,,71,0
150,note_on,,,,,30,0,1,,,,,0,,,59,0
150,note_on,,,,,0,0,1,,,,,0,,,73,52
150,note_on,,,,,0,0,1,,,,,0,,,61,52
150,set_tempo,,,,,10,1,0,,1395348,,,,,,,
160,set_tempo,,,,,10,1,0,,1395348,,,,,,,
165,set_tempo,,,,,5,1,0,,1395348,,,,,,,
180,note_on,,,,,0,0,1,,,,,0,,,73,0
180,note_on,,,,,0,0,2,,,,,0,,,54,46
180,note_on,,,,,180,0,2,,,,,0,,,50,46
180,note_on,,,,,30,0,1,,,,,0,,,61,0
180,note_on,,,,,0,0,1,,,,,0,,,74,55
180,control_change,,,,,0,0,1,,,,,0,64,96,,
180,note_on,,,,,0,0,1,,,,,0,,,62,55
195,set_tempo,,,,,30,1,0,,1363636,,,,,,,
200,set_tempo,,,,,5,1,0,,1363636,,,,,,,
210,set_tempo,,,,,10,1,0,,1363636,,,,,,,
215,set_tempo,,,,,5,1,0,,1395348,,,,,,,
220,set_tempo,,,,,5,1,0,,1395348,,,,,,,
235,set_tempo,,,,,15,1,0,,1395348,,,,,,,
245,set_tempo,,,,,10,1,0,,1395348,,,,,,,
255,set_tempo,,,,,10,1,0,,1395348,,,,,,,
270,set_tempo,,,,,15,1,0,,1395348,,,,,,,
290,set_tempo,,,,,20,1,0,,1395348,,,,,,,
300,set_tempo,,,,,10,1,0,,1395348,,,,,,,
300,control_change,,,,,120,0,1,,,,,0,64,0,,
305,set_tempo,,,,,5,1,0,,1395348,,,,,,,
315,set_tempo,,,,,10,1,0,,1428571,,,,,,,
330,note_on,,,,,0,0,1,,,,,0,,,73,50
330,note_on,,,,,0,0,1,,,,,0,,,74,0
330,note_on,,,,,30,0,1,,,,,0,,,62,0
330,set_tempo,,,,,15,1,0,,1428571,,,,,,,
345,note_on,,,,,0,0,1,,,,,0,,,71,45
345,note_on,,,,,15,0,1,,,,,0,,,73,0
345,set_tempo,,,,,15,1,0,,1428571,,,,,,,
360,note_on,,,,,0,0,1,,,,,0,,,69,40
360,control_change,,,,,0,0,1,,,,,0,64,96,,
360,note_on,,,,,0,0,1,,,,,0,,,57,40
360,note_on,,,,,15,0,1,,,,,0,,,71,0
360,set_tempo,,,,,15,1,0,,1428571,,,,,,,
360,note_on,,,,,0,0,2,,,,,0,,,49,50
360,note_on,,,,,0,0,2,,,,,0,,,50,0
360,note_on,,,,,180,0,2,,,,,0,,,54,0
360,note_on,,,,,0,0,2,,,,,0,,,52,50
420,note_on,,,,,60,0,1,,,,,0,,,69,0
440,set_tempo,,,,,80,1,0,,1428571,,,,,,,
450,set_tempo,,,,,10,1,0,,1395348,,,,,,,
450,note_on,,,,,30,0,1,,,,,0,,,69,42
470,set_tempo,,,,,20,1,0,,1395348,,,,,,,
480,control_change,,,,,0,0,1,,,,,0,64,0,,
480,note_on,,,,,30,0,1,,,,,0,,,69,0
480,note_on,,,,,0,0,1,,,,,0,,,71,47
480,set_tempo,,,,,10,1,0,,1363636,,,,,,,
490,set_tempo,,,,,10,1,0,,1363636,,,,,,,
510,note_on,,,,,30,0,1,,,,,0,,,71,0
510,note_on,,,,,0,0,1,,,,,0,,,67,51
510,note_on,,,,,0,0,1,,,,,0,,,57,0
525,set_tempo,,,,,35,1,0,,1333333,,,,,,,
540,note_on,,,,,0,0,1,,,,,0,,,66,54
540,note_on,,,,,0,0,2,,,,,0,,,50,48
540,note_on,,,,,0,0,2,,,,,0,,,49,0
540,note_on,,,,,180,0,2,,,,,0,,,52,0
540,note_on,,,,,30,0,1,,,,,0,,,67,0
540,note_on,,,,,0,0,1,,,,,0,,,54,54
570,set_tempo,,,,,45,1,0,,1621621,,,,,,,
570,note_on,,,,,30,0,1,,,,,0,,,66,0
570,note_on,,,,,0,0,1,,,,,0,,,67,59
575,note_on,,,,,5,0,1,,,,,0,,,67,0
575,note_on,,,,,0,0,1,,,,,0,,,66,60
580,note_on,,,,,5,0,1,,,,,0,,,66,0
580,note_on,,,,,0,0,1,,,,,0,,,64,60
585,note_on,,,,,45,0,2,,,,,0,,,50,0
585,note_on,,,,,0,0,1,,,,,0,,,54,0
585,note_on,,,,,0,0,1,,,,,0,,,55,60
585,note_on,,,,,5,0,1,,,,,0,,,64,0
585,note_on,,,,,0,0,1,,,,,0,,,66,60
585,note_on,,,,,0,0,2,,,,,0,,,52,50
592,note_on,,,,,7,0,1,,,,,0,,,66,0
592,note_on,,,,,0,0,1,,,,,0,,,67,60
600,set_tempo,,,,,30,1,0,,1333333,,,,,,,
600,note_on,,,,,0,0,1,,,,,0,,,55,0
600,note_on,,,,,0,0,2,,,,,0,,,54,51
600,note_on,,,,,0,0,1,,,,,0,,,57,61
600,note_on,,,,,0,0,1,,,,,0,,,69,61
600,note_on,,,,,15,0,2,,,,,0,,,52,0
600,note_on,,,,,8,0,1,,,,,0,,,67,0
640,set_tempo,,,,,40,1,0,,1304347,,,,,,,
660,note_on,,,,,60,0,2,,,,,0,,,54,0
660,note_on,,,,,0,0,2,,,,,0,,,52,55
660,note_on,,,,,0,0,2,,,,,0,,,55,55
660,set_tempo,,,,,20,1,0,,1304347,,,,,,,
660,note_on,,,,,60,0,1,,,,,0,,,57,0
660,note_on,,,,,0,0,1,,,,,0,,,69,0
660,note_on,,,,,0,0,1,,,,,0,,,71,59
660,note_on,,,,,0,0,1,,,,,0,,,59,59
690,note_on,,,,,30,0,1,,,,,0,,,59,0
690,note_on,,,,,0,0,1,,,,,0,,,71,0
690,note_on,,,,,0,0,1,,,,,0,,,73,52
690,note_on,,,,,0,0,1,,,,,0,,,61,52
695,set_tempo,,,,,35,1,0,,1304347,,,,,,,
700,set_tempo,,,,,5,1,0,,1304347,,,,,,,
705,set_tempo,,,,,5,1,0,,1333333,,,,,,,
720,control_change,,,,,0,0,1,,,,,0,64,96,,
720,note_on,,,,,0,0,1,,,,,0,,,61,62
720,note_on,,,,,0,0,1,,,,,0,,,73,62
720,note_on,,,,,60,0,2,,,,,0,,,55,0
720,note_on,,,,,0,0,2,,,,,0,,,52,0
720,note_on,,,,,0,0,2,,,,,0,,,50,58
720,note_on,,,,,0,0,2,,,,,0,,,55,58
720,note_on,,,,,0,0,2,,,,,0,,,52,58
720,note_on,,,,,30,0,1,,,,,0,,,61,0
720,note_on,,,,,0,0,1,,,,,0,,,73,0
725,set_tempo,,,,,20,1,0,,1333333,,,,,,,
740,set_tempo,,,,,15,1,0,,1363636,,,,,,,
745,set_tempo,,,,,5,1,0,,1363636,,,,,,,
750,set_tempo,,,,,5,1,0,,1395348,,,,,,,
765,set_tempo,,,,,15,1,0,,1395348,,,,,,,
775,set_tempo,,,,,10,1,0,,1428571,,,,,,,
780,note_on,,,,,0,0,1,,,,,0,,,74,49
780,note_on,,,,,60,0,2,,,,,0,,,52,0
780,note_on,,,,,0,0,2,,,,,0,,,55,0
780,note_on,,,,,0,0,2,,,,,0,,,54,51
780,note_on,,,,,0,0,1,,,,,0,,,73,0
780,note_on,,,,,60,0,1,,,,,0,,,61,0
780,note_on,,,,,0,0,1,,,,,0,,,62,49
785,set_tempo,,,,,10,1,0,,1428571,,,,,,,
790,set_tempo,,,,,5,1,0,,1463414,,,,,,,
795,note_on,,,,,0,0,1,,,,,0,,,74,0
795,note_on,,,,,15,0,1,,,,,0,,,62,0
800,set_tempo,,,,,10,1,0,,1500000,,,,,,,
810,control_change,,,,,0,0,1,,,,,0,64,0,,
810,note_on,,,,,0,0,1,,,,,0,,,62,44
810,note_on,,,,,15,0,1,,,,,0,,,74,44
825,set_tempo,,,,,25,1,0,,1463414,,,,,,,
840,note_on,,,,,0,0,1,,,,,0,,,74,0
840,note_on,,,,,0,0,1,,,,,0,,,78,49
840,note_on,,,,,0,0,1,,,,,0,,,66,49
840,note_on,,,,,60,0,2,,,,,0,,,54,0
840,note_on,,,,,0,0,2,,,,,0,,,50,0
840,note_on,,,,,30,0,1,,,,,0,,,62,0
845,set_tempo,,,,,20,1,0,,1463414,,,,,,,
865,set_tempo,,,,,20,1,0,,1428571,,,,,,,
870,note_on,,,,,30,0,1,,,,,0,,,66,0
870,note_on,,,,,0,0,1,,,,,0,,,78,0
870,note_on,,,,,0,0,1,,,,,0,,,81,53
870,note_on,,,,,0,0,1,,,,,0,,,69,53
895,set_tempo,,,,,30,1,0,,1428571,,,,,,,
900,note_on,,,,,0,0,2,,,,,0,,,55,42
900,note_on,,,,,60,0,2,,,,,0,,,57,42
900,note_on,,,,,0,0,1,,,,,0,,,81,0
900,note_on,,,,,30,0,1,,,,,0,,,69,0
900,note_on,,,,,0,0,1,,,,,0,,,78,58
900,note_on,,,,,0,0,1,,,,,0,,,66,58
900,control_change,,,,,0,0,1,,,,,0,64,96,,
930,set_tempo,,,,,35,1,0,,1395348,,,,,,,
940,set_tempo,,,,,10,1,0,,1395348,,,,,,,
990,note_on,,,,,0,0,1,,,,,0,,,78,0
990,note_on,,,,,90,0,1,,,,,0,,,66,0
990,control_change,,,,,0,0,1,,,,,0,64,0,,
990,note_on,,,,,0,0,1,,,,,0,,,64,41
990,note_on,,,,,0,0,1,,,,,0,,,76,41
1010,set_tempo,,,,,70,1,0,,1363636,,,,,,,
1015,set_tempo,,,,,5,1,0,,1363636,,,,,,,
1020,note_on,,,,,0,0,1,,,,,0,,,76,0
1020,note_on,,,,,0,0,1,,,,,0,,,71,45
1020,note_on,,,,,0,0,1,,,,,0,,,59,45
1020,note_on,,,,,30,0,1,,,,,0,,,64,0
1035,set_tempo,,,,,20,1,0,,1333333,,,,,,,
1050,note_on,,,,,30,0,1,,,,,0,,,59,0
1050,note_on,,,,,0,0,1,,,,,0,,,71,0
1050,note_on,,,,,0,0,1,,,,,0,,,73,51
1050,note_on,,,,,0,0,1,,,,,0,,,61,51
1060,set_tempo,,,,,25,1,0,,1333333,,,,,,,
1080,control_change,,,,,0,0,1,,,,,0,64,96,,
1080,note_on,,,,,0,0,1,,,,,0,,,76,58
1080,note_on,,,,,0,0,1,,,,,0,,,73,0
1080,note_on,,,,,30,0,1,,,,,0,,,61,0
1080,note_on,,,,,180,0,2,,,,,0,,,55,0
1080,note_on,,,,,0,0,2,,,,,0,,,57,0
1080,note_on,,,,,0,0,2,,,,,0,,,54,41
1080,note_on,,,,,0,0,2,,,,,0,,,57,41
1080,note_on,,,,,0,0,1,,,,,0,,,64,58
1165,control_change,,,,,85,0,1,,,,,0,64,0,,
1170,note_on,,,,,0,0,1,,,,,0,,,62,44
1170,note_on,,,,,0,0,1,,,,,0,,,76,0
1170,note_on,,,,,5,0,1,,,,,0,,,64,0
1170,note_on,,,,,0,0,1,,,,,0,,,74,44
1200,note_on,,,,,30,0,1,,,,,0,,,62,0
1200,note_on,,,,,0,0,2,,,,,0,,,50,50
1200,note_on,,,,,0,0,1,,,,,0,,,54,49
1200,note_on,,,,,0,0,1,,,,,0,,,66,49
1200,note_on,,,,,0,0,1,,,,,0,,,74,0
1200,note_on,,,,,120,0,2,,,,,0,,,57,0
1200,note_on,,,,,0,0,2,,,,,0,,,54,0
1200,set_tempo,,,,,140,1,0,,1621621,,,,,,,
1210,set_tempo,,,,,10,1,0,,1621621,,,,,,,
1230,note_on,,,,,0,0,1,,,,,0,,,67,54
1230,note_on,,,,,30,0,1,,,,,0,,,66,0
1235,note_on,,,,,5,0,1,,,,,0,,,67,0
1235,note_on,,,,,0,0,1,,,,,0,,,66,54
1240,note_on,,,,,5,0,1,,,,,0,,,66,0
1240,note_on,,,,,0,0,1,,,,,0,,,64,56
1245,note_on,,,,,0,0,1,,,,,0,,,66,56
1245,note_on,,,,,0,0,2,,,,,0,,,52,51
1245,note_on,,,,,45,0,2,,,,,0,,,50,0
1245,note_on,,,,,5,0,1,,,,,0,,,64,0
1245,note_on,,,,,0,0,1,,,,,0,,,54,0
1245,note_on,,,,,0,0,1,,,,,0,,,55,56
1252,note_on,,,,,7,0,1,,,,,0,,,66,0
1252,note_on,,,,,0,0,1,,,,,0,,,67,57
1260,note_on,,,,,8,0,1,,,,,0,,,67,0
1260,note_on,,,,,0,0,1,,,,,0,,,55,0
1260,note_on,,,,,0,0,1,,,,,0,,,69,57
1260,note_on,,,,,0,0,1,,,,,0,,,57,57
1260,note_on,,,,,0,0,2,,,,,0,,,45,51
1260,set_tempo,,,,,50,1,0,,1395348,,,,,,,
1260,note_on,,,,,0,0,2,,,,,0,,,54,51
1260,note_on,,,,,15,0,2,,,,,0,,,52,0
1290,set_tempo,,,,,30,1,0,,1395348,,,,,,,
1305,note_on,,,,,0,0,2,,,,,0,,,45,0
1305,note_on,,,,,45,0,2,,,,,0,,,54,0
1305,note_on,,,,,45,0,1,,,,,0,,,57,0
1305,note_on,,,,,0,0,1,,,,,0,,,69,0
1310,set_tempo,,,,,20,1,0,,1428571,,,,,,,
1315,set_tempo,,,,,5,1,0,,1428571,,,,,,,
1320,note_on,,,,,15,0,1,,,,,0,,,67,51
1320,note_on,,,,,0,0,2,,,,,0,,,52,45
1320,note_on,,,,,15,0,2,,,,,0,,,45,45
1320,note_on,,,,,0,0,1,,,,,0,,,55,51
1330,set_tempo,,,,,15,1,0,,1463414,,,,,,,
1345,set_tempo,,,,,15,1,0,,1463414,,,,,,,
1350,set_tempo,,,,,5,1,0,,1500000,,,,,,,
1365,note_on,,,,,45,0,1,,,,,0,,,55,0
1365,note_on,,,,,0,0,2,,,,,0,,,45,0
1365,note_on,,,,,45,0,2,,,,,0,,,52,0
1365,set_tempo,,,,,15,1,0,,1500000,,,,,,,
1365,note_on,,,,,0,0,1,,,,,0,,,67,0
1370,set_tempo,,,,,5,1,0,,1538461,,,,,,,
1380,note_on,,,,,15,0,1,,,,,0,,,64,41
1380,note_on,,,,,0,0,2,,,,,0,,,52,37
1380,note_on,,,,,15,0,2,,,,,0,,,45,37
1380,note_on,,,,,0,0,1,,,,,0,,,52,41
1385,set_tempo,,,,,15,1,0,,1538461,,,,,,,
1395,set_tempo,,,,,10,1,0,,1578947,,,,,,,
1410,set_tempo,,,,,15,1,0,,1621621,,,,,,,
1420,set_tempo,,,,,10,1,0,,1621621,,,,,,,
1425,note_on,,,,,0,0,1,,,,,0,,,64,0
1425,note_on,,,,,0,0,2,,,,,0,,,45,0
1425,note_on,,,,,45,0,2,,,,,0,,,52,0
1425,note_on,,,,,45,0,1,,,,,0,,,52,0
1440,control_change,,,,,0,0,1,,,,,0,64,96,,
1440,note_on,,,,,15,0,2,,,,,0,,,38,33
1440,note_on,,,,,15,0,1,,,,,0,,,54,34
1440,note_on,,,,,0,0,1,,,,,0,,,62,34
1440,note_on,,,,,0,0,1,,,,,0,,,50,34
1500,note_on,,,,,0,0,1,,,,,0,,,54,0
1500,note_on,,,,,0,0,1,,,,,0,,,62,0
1500,note_on,,,,,60,0,1,,,,,0,,,50,0
1500,note_on,,,,,60,0,2,,,,,0,,,38,0
1505,control_change,,,,,5,0,1,,,,,0,64,0,,
1515,set_tempo,,,,,95,1,0,,1621621,,,,,,,
1525,set_tempo,,,,,10,1,0,,1578947,,,,,,,
1530,note_on,,,,,0,0,1,,,,,0,,,66,41
1530,set_tempo,,,,,5,1,0,,1578947,,,,,,,
1530,note_on,,,,,25,0,1,,,,,0,,,54,41
1535,set_tempo,,,,,5,1,0,,1538461,,,,,,,
1545,set_tempo,,,,,10,1,0,,1538461,,,,,,,
1550,set_tempo,,,,,5,1,0,,1500000,,,,,,,
1560,note_on,,,,,0,0,1,,,,,0,,,55,51
1560,note_on,,,,,0,0,1,,,,,0,,,67,51
1560,note_on,,,,,30,0,1,,,,,0,,,66,0
1560,note_on,,,,,0,0,1,,,,,0,,,54,0
1560,set_tempo,,,,,10,1,0,,1500000,,,,,,,
1565,set_tempo,,,,,5,1,0,,1463414,,,,,,,
1575,set_tempo,,,,,10,1,0,,1428571,,,,,,,
1590,note_on,,,,,0,0,1,,,,,0,,,57,60
1590,note_on,,,,,0,0,1,,,,,0,,,69,60
1590,note_on,,,,,0,0,1,,,,,0,,,55,0
1590,note_on,,,,,30,0,1,,,,,0,,,67,0
1620,control_change,,,,,0,0,1,,,,,0,64,96,,
1620,note_on,,,,,0,0,1,,,,,0,,,71,68
1620,note_on,,,,,0,0,1,,,,,0,,,59,68
1620,note_on,,,,,0,0,1,,,,,0,,,57,0
1620,note_on,,,,,30,0,1,,,,,0,,,69,0
1620,set_tempo,,,,,45,1,0,,1666666,,,,,,,
1620,note_on,,,,,0,0,1,,,,,0,,,52,68
1620,note_on,,,,,120,0,2,,,,,0,,,43,42
1620,note_on,,,,,0,0,2,,,,,0,,,50,42
1680,set_tempo,,,,,60,1,0,,1428571,,,,,,,
1685,set_tempo,,,,,5,1,0,,1463414,,,,,,,
1700,set_tempo,,,,,15,1,0,,1428571,,,,,,,
1705,set_tempo,,,,,5,1,0,,1428571,,,,,,,
1710,note_on,,,,,0,0,1,,,,,0,,,64,55
1710,note_on,,,,,0,0,1,,,,,0,,,52,55
1710,note_on,,,,,0,0,1,,,,,0,,,52,0
1710,note_on,,,,,0,0,1,,,,,0,,,59,0
1710,note_on,,,,,90,0,1,,,,,0,,,71,0
1740,note_on,,,,,0,0,1,,,,,0,,,52,52
1740,note_on,,,,,0,0,1,,,,,0,,,52,0
1740,note_on,,,,,0,0,1,,,,,0,,,64,52
1740,note_on,,,,,30,0,1,,,,,0,,,64,0
1740,set_tempo,,,,,35,1,0,,1395348,,,,,,,
1765,set_tempo,,,,,25,1,0,,1463414,,,,,,,
1785,note_on,,,,,45,0,1,,,,,0,,,64,0
1785,note_on,,,,,0,0,1,,,,,0,,,52,0
1785,note_on,,,,,0,0,2,,,,,0,,,43,0
1785,note_on,,,,,165,0,2,,,,,0,,,50,0
1795,control_change,,,,,10,0,1,,,,,0,64,0,,
1800,note_on,,,,,0,0,2,,,,,0,,,52,61
1800,control_change,,,,,0,0,1,,,,,0,64,96,,
1800,note_on,,,,,5,0,1,,,,,0,,,62,80
1800,set_tempo,,,,,35,1,0,,1463414,,,,,,,
1800,note_on,,,,,15,0,2,,,,,0,,,44,61
1800,note_on,,,,,0,0,1,,,,,0,,,74,80
1830,set_tempo,,,,,30,1,0,,1428571,,,,,,,
1870,set_tempo,,,,,40,1,0,,1395348,,,,,,,
1875,set_tempo,,,,,5,1,0,,1363636,,,,,,,
1880,set_tempo,,,,,5,1,0,,1363636,,,,,,,
1890,note_on,,,,,90,0,1,,,,,0,,,74,0
1890,note_on,,,,,0,0,1,,,,,0,,,62,0
1890,note_on,,,,,0,0,1,,,,,0,,,52,60
1890,note_on,,,,,0,0,1,,,,,0,,,64,60
1890,set_tempo,,,,,10,1,0,,1333333,,,,,,,
1900,set_tempo,,,,,10,1,0,,1304347,,,,,,,
1920,note_on,,,,,0,0,1,,,,,0,,,64,60
1920,note_on,,,,,0,0,1,,,,,0,,,52,60
1920,note_on,,,,,0,0,1,,,,,0,,,52,0
1920,note_on,,,,,30,0,1,,,,,0,,,64,0
1925,set_tempo,,,,,25,1,0,,1304347,,,,,,,
1930,set_tempo,,,,,5,1,0,,1276595,,,,,,,
1945,set_tempo,,,,,15,1,0,,1276595,,,,,,,
1950,control_change,,,,,30,0,1,,,,,0,64,0,,
1950,set_tempo,,,,,5,1,0,,1363636,,,,,,,
1965,note_on,,,,,0,0,1,,,,,0,,,52,0
1965,note_on,,,,,15,0,1,,,,,0,,,64,0
1965,note_on,,,,,165,0,2,,,,,0,,,52,0
1965,note_on,,,,,0,0,2,,,,,0,,,44,0
1980,note_on,,,,,15,0,2,,,,,0,,,45,76
1980,note_on,,,,,15,0,1,,,,,0,,,55,75
1980,note_on,,,,,0,0,1,,,,,0,,,64,75
1980,note_on,,,,,0,0,1,,,,,0,,,74,75
1980,control_change,,,,,0,0,1,,,,,0,64,95,,
2010,set_tempo,,,,,60,1,0,,1363636,,,,,,,
2030,set_tempo,,,,,20,1,0,,1333333,,,,,,,
2040,note_on,,,,,60,0,1,,,,,0,,,74,0
2040,note_on,,,,,0,0,1,,,,,0,,,73,54
2045,set_tempo,,,,,15,1,0,,1333333,,,,,,,
2070,note_on,,,,,30,0,1,,,,,0,,,73,0
2070,note_on,,,,,0,0,1,,,,,0,,,64,0
2070,note_on,,,,,0,0,1,,,,,0,,,54,60
2070,note_on,,,,,0,0,1,,,,,0,,,66,60
2070,note_on,,,,,0,0,1,,,,,0,,,74,60
2070,control_change,,,,,0,0,1,,,,,0,64,0,,
2070,note_on,,,,,0,0,1,,,,,0,,,55,0
2100,note_on,,,,,0,0,1,,,,,0,,,66,0
2100,note_on,,,,,0,0,1,,,,,0,,,54,0
2100,note_on,,,,,0,0,1,,,,,0,,,52,68
2100,note_on,,,,,0,0,1,,,,,0,,,67,68
2100,note_on,,,,,0,0,1,,,,,0,,,76,68
2100,set_tempo,,,,,55,1,0,,1304347,,,,,,,
2100,note_on,,,,,30,0,1,,,,,0,,,74,0
2120,set_tempo,,,,,20,1,0,,1304347,,,,,,,
2130,note_on,,,,,30,0,1,,,,,0,,,76,0
2130,note_on,,,,,0,0,1,,,,,0,,,67,0
2130,note_on,,,,,0,0,1,,,,,0,,,52,0
2130,note_on,,,,,0,0,1,,,,,0,,,57,77
2130,note_on,,,,,0,0,1,,,,,0,,,73,77
2130,note_on,,,,,0,0,1,,,,,0,,,64,77
2145,set_tempo,,,,,25,1,0,,1276595,,,,,,,
2155,set_tempo,,,,,10,1,0,,1250000,,,,,,,
2160,note_on,,,,,0,0,2,,,,,0,,,57,72
2160,note_on,,,,,0,0,2,,,,,0,,,50,72
2160,note_on,,,,,30,0,1,,,,,0,,,73,0
2160,note_on,,,,,0,0,1,,,,,0,,,57,0
2160,note_on,,,,,0,0,1,,,,,0,,,66,81
2160,note_on,,,,,0,0,1,,,,,0,,,74,81
2160,control_change,,,,,0,0,1,,,,,0,64,95,,
2160,note_on,,,,,180,0,2,,,,,0,,,45,0
2160,note_on,,,,,0,0,1,,,,,0,,,64,0
2165,set_tempo,,,,,10,1,0,,1395348,,,,,,,
2220,note_on,,,,,0,0,1,,,,,0,,,78,59
2220,note_on,,,,,60,0,1,,,,,0,,,74,0
2240,set_tempo,,,,,75,1,0,,1621621,,,,,,,
2250,control_change,,,,,30,0,1,,,,,0,64,0,,
2265,note_on,,,,,105,0,2,,,,,0,,,50,0
2265,note_on,,,,,0,0,2,,,,,0,,,57,0
2265,note_on,,,,,15,0,1,,,,,0,,,66,0
2270,note_on,,,,,5,0,1,,,,,0,,,78,0
2280,note_on,,,,,0,0,1,,,,,0,,,69,36
2280,note_on,,,,,0,0,2,,,,,0,,,57,37
2280,note_on,,,,,10,0,1,,,,,0,,,66,36
2280,note_on,,,,,15,0,2,,,,,0,,,50,37
2300,set_tempo,,,,,60,1,0,,1363636,,,,,,,
2330,note_on,,,,,50,0,1,,,,,0,,,69,0
2330,note_on,,,,,0,0,1,,,,,0,,,66,0
2330,note_on,,,,,0,0,2,,,,,0,,,50,0
2330,note_on,,,,,50,0,2,,,,,0,,,57,0
2335,set_tempo,,,,,35,1,0,,1428571,,,,,,,
2340,note_on,,,,,10,0,1,,,,,0,,,66,40
2340,set_tempo,,,,,5,1,0,,1500000,,,,,,,
2340,note_on,,,,,0,0,1,,,,,0,,,69,40
2340,control_change,,,,,0,0,1,,,,,0,64,96,,
2340,note_on,,,,,0,0,2,,,,,0,,,57,37
2340,note_on,,,,,10,0,2,,,,,0,,,49,37
2350,set_tempo,,,,,10,1,0,,1463414,,,,,,,
2355,set_tempo,,,,,5,1,0,,1463414,,,,,,,
2370,set_tempo,,,,,15,1,0,,1428571,,,,,,,
2400,note_on,,,,,0,0,1,,,,,0,,,67,42
2400,note_on,,,,,0,0,1,,,,,0,,,64,42
2400,note_on,,,,,0,0,1,,,,,0,,,66,0
2400,note_on,,,,,60,0,1,,,,,0,,,69,0
2415,set_tempo,,,,,45,1,0,,1428571,,,,,,,
2430,control_change,,,,,0,0,1,,,,,0,64,0,,
2430,note_on,,,,,0,0,1,,,,,0,,,69,38
2430,note_on,,,,,0,0,1,,,,,0,,,66,38
2430,note_on,,,,,0,0,1,,,,,0,,,64,0
2430,note_on,,,,,30,0,1,,,,,0,,,67,0
2435,set_tempo,,,,,20,1,0,,1395348,,,,,,,
2445,note_on,,,,,0,0,2,,,,,0,,,49,0
2445,note_on,,,,,105,0,2,,,,,0,,,57,0
2455,set_tempo,,,,,20,1,0,,1395348,,,,,,,
2460,note_on,,,,,0,0,1,,,,,0,,,67,36
2460,note_on,,,,,0,0,1,,,,,0,,,66,0
2460,note_on,,,,,30,0,1,,,,,0,,,69,0
2460,note_on,,,,,0,0,1,,,,,0,,,71,36
2460,note_on,,,,,15,0,2,,,,,0,,,45,35
2460,note_on,,,,,0,0,2,,,,,0,,,57,35
2470,set_tempo,,,,,15,1,0,,1363636,,,,,,,
2475,set_tempo,,,,,5,1,0,,1363636,,,,,,,
2490,set_tempo,,,,,15,1,0,,1333333,,,,,,,
2490,note_on,,,,,0,0,1,,,,,0,,,67,38
2490,note_on,,,,,0,0,1,,,,,0,,,64,38
2490,note_on,,,,,30,0,1,,,,,0,,,71,0
2490,note_on,,,,,0,0,1,,,,,0,,,67,0
2495,set_tempo,,,,,5,1,0,,1333333,,,,,,,
2510,note_on,,,,,0,0,2,,,,,0,,,45,0
2510,note_on,,,,,50,0,2,,,,,0,,,57,0
2520,note_on,,,,,10,0,2,,,,,0,,,50,32
2520,note_on,,,,,30,0,1,,,,,0,,,67,0
2520,note_on,,,,,0,0,1,,,,,0,,,64,0
2520,note_on,,,,,0,0,1,,,,,0,,,67,49
2520,note_on,,,,,0,0,1,,,,,0,,,69,49
2520,control_change,,,,,0,0,1,,,,,0,64,96,,
2520,note_on,,,,,0,0,2,,,,,0,,,57,32
2550,set_tempo,,,,,55,1,0,,1428571,,,,,,,
2560,set_tempo,,,,,10,1,0,,1395348,,,,,,,
2580,note_on,,,,,60,0,1,,,,,0,,,69,0
2580,note_on,,,,,0,0,1,,,,,0,,,67,0
2580,note_on,,,,,0,0,1,,,,,0,,,66,36
2580,note_on,,,,,0,0,1,,,,,0,,,74,36
2585,set_tempo,,,,,25,1,0,,1395348,,,,,,,
2590,set_tempo,,,,,5,1,0,,1363636,,,,,,,
2595,set_tempo,,,,,5,1,0,,1363636,,,,,,,
2605,control_change,,,,,25,0,1,,,,,0,64,0,,
2610,set_tempo,,,,,15,1,0,,1333333,,,,,,,
2615,set_tempo,,,,,5,1,0,,1333333,,,,,,,
2625,note_on,,,,,105,0,2,,,,,0,,,57,0
2625,note_on,,,,,0,0,2,,,,,0,,,50,0
2630,note_on,,,,,25,0,1,,,,,0,,,74,0
2630,note_on,,,,,0,0,1,,,,,0,,,66,0
2635,set_tempo,,,,,20,1,0,,1304347,,,,,,,
2640,note_on,,,,,0,0,1,,,,,0,,,69,51
2640,note_on,,,,,10,0,1,,,,,0,,,54,51
2655,set_tempo,,,,,20,1,0,,1304347,,,,,,,
2670,set_tempo,,,,,15,1,0,,1276595,,,,,,,
2670,note_on,,,,,0,0,1,,,,,0,,,55,57
2670,note_on,,,,,0,0,1,,,,,0,,,71,57
2670,note_on,,,,,30,0,1,,,,,0,,,69,0
2670,note_on,,,,,0,0,1,,,,,0,,,54,0
2690,set_tempo,,,,,20,1,0,,1276595,,,,,,,
2700,note_on,,,,,30,0,1,,,,,0,,,71,0
2700,note_on,,,,,0,0,1,,,,,0,,,55,0
2700,note_on,,,,,0,0,1,,,,,0,,,55,67
2700,note_on,,,,,0,0,1,,,,,0,,,74,67
2700,control_change,,,,,0,0,1,,,,,0,64,97,,
2700,note_on,,,,,0,0,1,,,,,0,,,64,67
2700,note_on,,,,,75,0,2,,,,,0,,,45,49
2700,set_tempo,,,,,10,1,0,,1250000,,,,,,,
2705,set_tempo,,,,,5,1,0,,1333333,,,,,,,
2735,set_tempo,,,,,30,1,0,,1395348,,,,,,,
2760,note_on,,,,,60,0,1,,,,,0,,,74,0
2760,note_on,,,,,0,0,1,,,,,0,,,73,55
2765,set_tempo,,,,,30,1,0,,1363636,,,,,,,
2785,set_tempo,,,,,20,1,0,,1333333,,,,,,,
2785,control_change,,,,,25,0,1,,,,,0,64,0,,
2790,note_on,,,,,0,0,1,,,,,0,,,74,59
2790,note_on,,,,,0,0,1,,,,,0,,,66,59
2790,note_on,,,,,0,0,1,,,,,0,,,54,59
2790,note_on,,,,,0,0,1,,,,,0,,,64,0
2790,note_on,,,,,0,0,1,,,,,0,,,55,0
2790,set_tempo,,,,,5,1,0,,1333333,,,,,,,
2790,note_on,,,,,5,0,1,,,,,0,,,73,0
2805,set_tempo,,,,,15,1,0,,1304347,,,,,,,
2820,note_on,,,,,30,0,1,,,,,0,,,74,0
2820,note_on,,,,,0,0,1,,,,,0,,,66,0
2820,note_on,,,,,0,0,1,,,,,0,,,54,0
2820,note_on,,,,,0,0,1,,,,,0,,,52,63
2820,note_on,,,,,0,0,1,,,,,0,,,67,63
2820,note_on,,,,,0,0,1,,,,,0,,,76,63
2830,set_tempo,,,,,25,1,0,,1304347,,,,,,,
2840,set_tempo,,,,,10,1,0,,1276595,,,,,,,
2850,note_on,,,,,0,0,1,,,,,0,,,64,66
2850,note_on,,,,,30,0,1,,,,,0,,,76,0
2850,note_on,,,,,0,0,1,,,,,0,,,67,0
2850,note_on,,,,,0,0,1,,,,,0,,,57,66
2850,note_on,,,,,0,0,1,,,,,0,,,73,66
2850,note_on,,,,,0,0,1,,,,,0,,,52,0
2855,set_tempo,,,,,15,1,0,,1276595,,,,,,,
2865,set_tempo,,,,,10,1,0,,1250000,,,,,,,
2875,set_tempo,,,,,10,1,0,,1250000,,,,,,,
2880,note_on,,,,,0,0,2,,,,,0,,,50,55
2880,note_on,,,,,0,0,2,,,,,0,,,57,55
2880,note_on,,,,,0,0,1,,,,,0,,,74,72
2880,set_tempo,,,,,5,1,0,,1395348,,,,,,,
2880,note_on,,,,,180,0,2,,,,,0,,,45,0
2880,note_on,,,,,0,0,1,,,,,0,,,66,72
2880,control_change,,,,,0,0,1,,,,,0,64,95,,
2880,note_on,,,,,0,0,1,,,,,0,,,57,0
2880,note_on,,,,,0,0,1,,,,,0,,,64,0
2880,note_on,,,,,30,0,1,,,,,0,,,73,0
2940,note_on,,,,,0,0,1,,,,,0,,,78,54
2940,note_on,,,,,60,0,1,,,,,0,,,74,0
2970,control_change,,,,,30,0,1,,,,,0,64,0,,
2980,set_tempo,,,,,100,1,0,,1428571,,,,,,,
2985,note_on,,,,,105,0,2,,,,,0,,,57,0
2985,note_on,,,,,15,0,1,,,,,0,,,66,0
2985,note_on,,,,,0,0,2,,,,,0,,,50,0
2990,note_on,,,,,5,0,1,,,,,0,,,78,0
2995,set_tempo,,,,,15,1,0,,1428571,,,,,,,
3000,note_on,,,,,0,0,2,,,,,0,,,49,46
3000,set_tempo,,,,,5,1,0,,1428571,,,,,,,
3000,note_on,,,,,0,0,1,,,,,0,,,69,55
3000,note_on,,,,,10,0,1,,,,,0,,,64,55
3000,note_on,,,,,15,0,2,,,,,0,,,57,46
3020,set_tempo,,,,,20,1,0,,1463414,,,,,,,
3030,note_on,,,,,0,0,2,,,,,0,,,52,42
3030,note_on,,,,,30,0,2,,,,,0,,,57,0
3045,note_on,,,,,15,0,2,,,,,0,,,52,0
3045,set_tempo,,,,,25,1,0,,1463414,,,,,,,
3050,note_on,,,,,5,0,2,,,,,0,,,49,0
3050,note_on,,,,,0,0,1,,,,,0,,,64,0
3050,note_on,,,,,50,0,1,,,,,0,,,69,0
3060,note_on,,,,,10,0,2,,,,,0,,,47,35
3060,note_on,,,,,0,0,2,,,,,0,,,54,35
3060,note_on,,,,,0,0,1,,,,,0,,,69,51
3060,note_on,,,,,10,0,1,,,,,0,,,62,51
3060,control_change,,,,,0,0,1,,,,,0,64,95,,
3105,set_tempo,,,,,60,1,0,,1500000,,,,,,,
3120,note_on,,,,,0,0,1,,,,,0,,,68,37
3120,note_on,,,,,60,0,1,,,,,0,,,69,0
3120,note_on,,,,,0,0,1,,,,,0,,,62,0
3135,set_tempo,,,,,30,1,0,,1500000,,,,,,,
3150,set_tempo,,,,,15,1,0,,1538461,,,,,,,
3150,note_on,,,,,0,0,1,,,,,0,,,63,45
3150,note_on,,,,,30,0,1,,,,,0,,,68,0
3150,note_on,,,,,0,0,1,,,,,0,,,69,45
3160,set_tempo,,,,,10,1,0,,1538461,,,,,,,
3175,set_tempo,,,,,15,1,0,,1578947,,,,,,,
3180,note_on,,,,,0,0,2,,,,,0,,,40,46
3180,note_on,,,,,0,0,2,,,,,0,,,47,0
3180,note_on,,,,,0,0,2,,,,,0,,,52,46
3180,note_on,,,,,30,0,1,,,,,0,,,69,0
3180,note_on,,,,,0,0,1,,,,,0,,,63,0
3180,note_on,,,,,0,0,1,,,,,0,,,64,49
3180,note_on,,,,,0,0,1,,,,,0,,,73,49
3180,note_on,,,,,120,0,2,,,,,0,,,54,0
3180,set_tempo,,,,,5,1,0,,1578947,,,,,,,
3195,set_tempo,,,,,15,1,0,,1621621,,,,,,,
3200,set_tempo,,,,,5,1,0,,1621621,,,,,,,
3210,note_on,,,,,30,0,1,,,,,0,,,73,0
3210,note_on,,,,,0,0,1,,,,,0,,,64,0
3210,note_on,,,,,0,0,1,,,,,0,,,68,47
3210,note_on,,,,,0,0,1,,,,,0,,,71,47
3210,control_change,,,,,0,0,1,,,,,0,64,0,,
3210,note_on,,,,,0,0,2,,,,,0,,,50,43
3210,note_on,,,,,30,0,2,,,,,0,,,52,0
3215,set_tempo,,,,,15,1,0,,1666666,,,,,,,
3220,set_tempo,,,,,5,1,0,,1666666,,,,,,,
3240,set_tempo,,,,,20,1,0,,1714285,,,,,,,
3240,note_on,,,,,0,0,2,,,,,0,,,40,0
3240,note_on,,,,,0,0,2,,,,,0,,,45,37
3240,note_on,,,,,0,0,2,,,,,0,,,49,37
3240,note_on,,,,,30,0,1,,,,,0,,,71,0
3240,note_on,,,,,0,0,1,,,,,0,,,68,0
3240,note_on,,,,,0,0,1,,,,,0,,,69,40
3240,control_change,,,,,0,0,1,,,,,0,64,97,,
3240,note_on,,,,,30,0,2,,,,,0,,,50,0
3250,set_tempo,,,,,10,1,0,,1764705,,,,,,,
3315,note_on,,,,,75,0,2,,,,,0,,,49,0
3315,note_on,,,,,0,0,2,,,,,0,,,45,0
3315,note_on,,,,,75,0,1,,,,,0,,,69,0
3330,note_on,,,,,15,0,1,,,,,0,,,69,42
3330,note_on,,,,,0,0,1,,,,,0,,,57,42
3335,set_tempo,,,,,85,1,0,,1428571,,,,,,,
3360,note_on,,,,,30,0,1,,,,,0,,,57,0
3360,note_on,,,,,0,0,1,,,,,0,,,69,0
3360,note_on,,,,,0,0,1,,,,,0,,,71,48
3360,note_on,,,,,0,0,1,,,,,0,,,59,48
3380,control_change,,,,,20,0,1,,,,,0,64,0,,
3390,note_on,,,,,10,0,1,,,,,0,,,59,0
3390,note_on,,,,,0,0,1,,,,,0,,,61,52
3390,note_on,,,,,0,0,1,,,,,0,,,73,52
3390,note_on,,,,,0,0,1,,,,,0,,,71,0
3420,note_on,,,,,0,0,1,,,,,0,,,62,55
3420,control_change,,,,,0,0,1,,,,,0,64,96,,
3420,note_on,,,,,30,0,1,,,,,0,,,61,0
3420,note_on,,,,,0,0,1,,,,,0,,,73,0
3420,note_on,,,,,0,0,1,,,,,0,,,74,55
3480,note_on,,,,,0,0,2,,,,,0,,,54,42
3480,note_on,,,,,165,0,2,,,,,0,,,50,42
3540,control_change,,,,,120,0,1,,,,,0,64,0,,
3570,note_on,,,,,0,0,1,,,,,0,,,73,50
3570,note_on,,,,,0,0,1,,,,,0,,,74,0
3570,note_on,,,,,30,0,1,,,,,0,,,62,0
3585,note_on,,,,,0,0,1,,,,,0,,,71,45
3585,note_on,,,,,15,0,1,,,,,0,,,73,0
3600,note_on,,,,,120,0,2,,,,,0,,,54,0
3600,note_on,,,,,0,0,2,,,,,0,,,50,0
3600,note_on,,,,,0,0,1,,,,,0,,,69,40
3600,note_on,,,,,15,0,1,,,,,0,,,71,0
3600,note_on,,,,,0,0,1,,,,,0,,,57,40
3600,control_change,,,,,0,0,1,,,,,0,64,96,,
3660,note_on,,,,,0,0,2,,,,,0,,,52,42
3660,note_on,,,,,60,0,2,,,,,0,,,49,42
3660,note_on,,,,,60,0,1,,,,,0,,,69,0
3680,set_tempo,,,,,345,1,0,,1428571,,,,,,,
3690,set_tempo,,,,,10,1,0,,1395348,,,,,,,
3690,note_on,,,,,30,0,1,,,,,0,,,69,42
3710,set_tempo,,,,,20,1,0,,1395348,,,,,,,
3720,note_on,,,,,0,0,1,,,,,0,,,71,47
3720,set_tempo,,,,,10,1,0,,1363636,,,,,,,
3720,control_change,,,,,0,0,1,,,,,0,64,0,,
3720,note_on,,,,,30,0,1,,,,,0,,,69,0
3730,set_tempo,,,,,10,1,0,,1363636,,,,,,,
3750,note_on,,,,,0,0,1,,,,,0,,,57,0
3750,note_on,,,,,30,0,1,,,,,0,,,71,0
3750,note_on,,,,,0,0,1,,,,,0,,,67,51
3765,set_tempo,,,,,35,1,0,,1333333,,,,,,,
3780,note_on,,,,,0,0,2,,,,,0,,,49,0
3780,note_on,,,,,30,0,1,,,,,0,,,67,0
3780,note_on,,,,,0,0,1,,,,,0,,,66,54
3780,note_on,,,,,0,0,1,,,,,0,,,54,54
3780,note_on,,,,,0,0,2,,,,,0,,,50,48
3780,set_tempo,,,,,15,1,0,,1333333,,,,,,,
3780,note_on,,,,,120,0,2,,,,,0,,,52,0
3810,set_tempo,,,,,30,1,0,,1666666,,,,,,,
3810,note_on,,,,,0,0,1,,,,,0,,,67,59
3810,note_on,,,,,30,0,1,,,,,0,,,66,0
3815,note_on,,,,,5,0,1,,,,,0,,,67,0
3815,note_on,,,,,0,0,1,,,,,0,,,66,60
3820,note_on,,,,,5,0,1,,,,,0,,,66,0
3820,note_on,,,,,0,0,1,,,,,0,,,64,60
3825,note_on,,,,,45,0,2,,,,,0,,,50,0
3825,note_on,,,,,0,0,2,,,,,0,,,52,50
3825,note_on,,,,,5,0,1,,,,,0,,,64,0
3825,note_on,,,,,0,0,1,,,,,0,,,54,0
3825,note_on,,,,,0,0,1,,,,,0,,,66,60
3825,note_on,,,,,0,0,1,,,,,0,,,55,60
3832,note_on,,,,,0,0,1,,,,,0,,,67,60
3832,note_on,,,,,7,0,1,,,,,0,,,66,0
3840,note_on,,,,,15,0,2,,,,,0,,,52,0
3840,note_on,,,,,0,0,2,,,,,0,,,54,51
3840,note_on,,,,,8,0,1,,,,,0,,,67,0
3840,note_on,,,,,0,0,1,,,,,0,,,55,0
3840,set_tempo,,,,,30,1,0,,1333333,,,,,,,
3840,note_on,,,,,0,0,1,,,,,0,,,57,61
3840,note_on,,,,,0,0,1,,,,,0,,,69,61
3880,set_tempo,,,,,40,1,0,,1304347,,,,,,,
3900,set_tempo,,,,,20,1,0,,1304347,,,,,,,
3900,note_on,,,,,0,0,2,,,,,0,,,55,55
3900,note_on,,,,,0,0,2,,,,,0,,,52,55
3900,note_on,,,,,60,0,2,,,,,0,,,54,0
3900,note_on,,,,,0,0,1,,,,,0,,,59,59
3900,note_on,,,,,0,0,1,,,,,0,,,71,59
3900,note_on,,,,,0,0,1,,,,,0,,,69,0
3900,note_on,,,,,60,0,1,,,,,0,,,57,0
3930,note_on,,,,,0,0,1,,,,,0,,,71,0
3930,note_on,,,,,0,0,1,,,,,0,,,73,52
3930,note_on,,,,,0,0,1,,,,,0,,,61,52
3930,note_on,,,,,30,0,1,,,,,0,,,59,0
3935,set_tempo,,,,,35,1,0,,1304347,,,,,,,
3940,set_tempo,,,,,5,1,0,,1304347,,,,,,,
3945,set_tempo,,,,,5,1,0,,1333333,,,,,,,
3960,note_on,,,,,30,0,1,,,,,0,,,61,0
3960,note_on,,,,,60,0,2,,,,,0,,,55,0
3960,note_on,,,,,0,0,2,,,,,0,,,52,0
3960,note_on,,,,,0,0,2,,,,,0,,,50,58
3960,note_on,,,,,0,0,2,,,,,0,,,55,58
3960,note_on,,,,,0,0,2,,,,,0,,,52,58
3960,control_change,,,,,0,0,1,,,,,0,64,96,,
3960,note_on,,,,,0,0,1,,,,,0,,,73,62
3960,note_on,,,,,0,0,1,,,,,0,,,73,0
3960,note_on,,,,,0,0,1,,,,,0,,,61,62
3965,set_tempo,,,,,20,1,0,,1333333,,,,,,,
3980,set_tempo,,,,,15,1,0,,1363636,,,,,,,
3985,set_tempo,,,,,5,1,0,,1363636,,,,,,,
3990,set_tempo,,,,,5,1,0,,1395348,,,,,,,
4005,set_tempo,,,,,15,1,0,,1395348,,,,,,,
4015,set_tempo,,,,,10,1,0,,1428571,,,,,,,
4020,note_on,,,,,0,0,2,,,,,0,,,55,0
4020,note_on,,,,,0,0,2,,,,,0,,,54,51
4020,note_on,,,,,0,0,1,,,,,0,,,62,49
4020,note_on,,,,,0,0,1,,,,,0,,,74,49
4020,note_on,,,,,0,0,1,,,,,0,,,73,0
4020,note_on,,,,,60,0,1,,,,,0,,,61,0
4020,note_on,,,,,60,0,2,,,,,0,,,52,0
4025,set_tempo,,,,,10,1,0,,1428571,,,,,,,
4030,set_tempo,,,,,5,1,0,,1463414,,,,,,,
4035,note_on,,,,,0,0,1,,,,,0,,,74,0
4035,note_on,,,,,15,0,1,,,,,0,,,62,0
4040,set_tempo,,,,,10,1,0,,1500000,,,,,,,
4050,note_on,,,,,0,0,1,,,,,0,,,62,44
4050,note_on,,,,,15,0,1,,,,,0,,,74,44
4050,control_change,,,,,0,0,1,,,,,0,64,0,,
4065,set_tempo,,,,,25,1,0,,1463414,,,,,,,
4080,note_on,,,,,0,0,2,,,,,0,,,50,0
4080,note_on,,,,,30,0,1,,,,,0,,,62,0
4080,note_on,,,,,0,0,1,,,,,0,,,74,0
4080,note_on,,,,,0,0,1,,,,,0,,,78,49
4080,note_on,,,,,0,0,1,,,,,0,,,66,49
4080,note_on,,,,,60,0,2,,,,,0,,,54,0
4085,set_tempo,,,,,20,1,0,,1463414,,,,,,,
4105,set_tempo,,,,,20,1,0,,1428571,,,,,,,
4110,note_on,,,,,30,0,1,,,,,0,,,66,0
4110,note_on,,,,,0,0,1,,,,,0,,,81,53
4110,note_on,,,,,0,0,1,,,,,0,,,78,0
4110,note_on,,,,,0,0,1,,,,,0,,,69,53
4135,set_tempo,,,,,30,1,0,,1428571,,,,,,,
4140,note_on,,,,,30,0,1,,,,,0,,,69,0
4140,note_on,,,,,0,0,1,,,,,0,,,81,0
4140,note_on,,,,,0,0,1,,,,,0,,,78,58
4140,note_on,,,,,0,0,1,,,,,0,,,66,58
4140,control_change,,,,,0,0,1,,,,,0,64,96,,
4140,note_on,,,,,60,0,2,,,,,0,,,57,42
4140,note_on,,,,,0,0,2,,,,,0,,,55,42
4170,set_tempo,,,,,35,1,0,,1395348,,,,,,,
4180,set_tempo,,,,,10,1,0,,1395348,,,,,,,
4230,note_on,,,,,0,0,1,,,,,0,,,78,0
4230,control_change,,,,,0,0,1,,,,,0,64,0,,
4230,note_on,,,,,0,0,1,,,,,0,,,64,41
4230,note_on,,,,,0,0,1,,,,,0,,,76,41
4230,note_on,,,,,90,0,1,,,,,0,,,66,0
4250,set_tempo,,,,,70,1,0,,1363636,,,,,,,
4255,set_tempo,,,,,5,1,0,,1363636,,,,,,,
4260,note_on,,,,,30,0,1,,,,,0,,,64,0
4260,note_on,,,,,0,0,1,,,,,0,,,59,45
4260,note_on,,,,,0,0,1,,,,,0,,,76,0
4260,note_on,,,,,0,0,1,,,,,0,,,71,45
4275,set_tempo,,,,,20,1,0,,1333333,,,,,,,
4290,note_on,,,,,0,0,1,,,,,0,,,71,0
4290,note_on,,,,,30,0,1,,,,,0,,,59,0
4290,note_on,,,,,0,0,1,,,,,0,,,73,51
4290,note_on,,,,,0,0,1,,,,,0,,,61,51
4300,set_tempo,,,,,25,1,0,,1333333,,,,,,,
4320,note_on,,,,,30,0,1,,,,,0,,,61,0
4320,note_on,,,,,0,0,1,,,,,0,,,73,0
4320,note_on,,,,,0,0,1,,,,,0,,,76,58
4320,note_on,,,,,0,0,1,,,,,0,,,64,58
4320,control_change,,,,,0,0,1,,,,,0,64,96,,
4320,note_on,,,,,180,0,2,,,,,0,,,55,0
4320,note_on,,,,,0,0,2,,,,,0,,,57,0
4320,note_on,,,,,0,0,2,,,,,0,,,54,41
4320,note_on,,,,,0,0,2,,,,,0,,,57,41
4405,control_change,,,,,85,0,1,,,,,0,64,0,,
4410,note_on,,,,,5,0,1,,,,,0,,,64,0
4410,note_on,,,,,0,0,1,,,,,0,,,62,44
4410,note_on,,,,,0,0,1,,,,,0,,,74,44
4410,note_on,,,,,0,0,1,,,,,0,,,76,0
4440,note_on,,,,,30,0,1,,,,,0,,,62,0
4440,note_on,,,,,0,0,1,,,,,0,,,54,49
4440,note_on,,,,,0,0,2,,,,,0,,,50,50
4440,note_on,,,,,0,0,2,,,,,0,,,54,0
4440,note_on,,,,,120,0,2,,,,,0,,,57,0
4440,note_on,,,,,0,0,1,,,,,0,,,74,0
4440,note_on,,,,,0,0,1,,,,,0,,,66,49
4445,set_tempo,,,,,145,1,0,,1333333,,,,,,,
4470,note_on,,,,,0,0,1,,,,,0,,,67,54
4470,note_on,,,,,30,0,1,,,,,0,,,66,0
4470,set_tempo,,,,,25,1,0,,1578947,,,,,,,
4475,note_on,,,,,5,0,1,,,,,0,,,67,0
4475,note_on,,,,,0,0,1,,,,,0,,,66,54
4480,note_on,,,,,5,0,1,,,,,0,,,66,0
4480,note_on,,,,,0,0,1,,,,,0,,,64,56
4485,note_on,,,,,5,0,1,,,,,0,,,64,0
4485,note_on,,,,,0,0,2,,,,,0,,,52,51
4485,note_on,,,,,0,0,1,,,,,0,,,55,56
4485,note_on,,,,,45,0,2,,,,,0,,,50,0
4485,note_on,,,,,0,0,1,,,,,0,,,66,56
4485,note_on,,,,,0,0,1,,,,,0,,,54,0
4492,note_on,,,,,7,0,1,,,,,0,,,66,0
4492,note_on,,,,,0,0,1,,,,,0,,,67,57
4500,note_on,,,,,15,0,2,,,,,0,,,52,0
4500,set_tempo,,,,,30,1,0,,1395348,,,,,,,
4500,note_on,,,,,0,0,2,,,,,0,,,54,51
4500,note_on,,,,,0,0,2,,,,,0,,,45,51
4500,note_on,,,,,0,0,1,,,,,0,,,57,57
4500,note_on,,,,,8,0,1,,,,,0,,,67,0
4500,note_on,,,,,0,0,1,,,,,0,,,55,0
4500,note_on,,,,,0,0,1,,,,,0,,,69,57
4530,set_tempo,,,,,30,1,0,,1395348,,,,,,,
4545,note_on,,,,,0,0,1,,,,,0,,,69,0
4545,note_on,,,,,45,0,2,,,,,0,,,54,0
4545,note_on,,,,,45,0,1,,,,,0,,,57,0
4545,note_on,,,,,0,0,2,,,,,0,,,45,0
4550,set_tempo,,,,,20,1,0,,1428571,,,,,,,
4555,set_tempo,,,,,5,1,0,,1428571,,,,,,,
4560,note_on,,,,,0,0,2,,,,,0,,,52,45
4560,note_on,,,,,0,0,1,,,,,0,,,55,51
4560,note_on,,,,,15,0,1,,,,,0,,,67,51
4560,note_on,,,,,15,0,2,,,,,0,,,45,45
4570,set_tempo,,,,,15,1,0,,1463414,,,,,,,
4585,set_tempo,,,,,15,1,0,,1463414,,,,,,,
4590,set_tempo,,,,,5,1,0,,1500000,,,,,,,
4605,note_on,,,,,45,0,2,,,,,0,,,52,0
4605,note_on,,,,,0,0,2,,,,,0,,,45,0
4605,set_tempo,,,,,15,1,0,,1500000,,,,,,,
4605,note_on,,,,,0,0,1,,,,,0,,,67,0
4605,note_on,,,,,45,0,1,,,,,0,,,55,0
4610,set_tempo,,,,,5,1,0,,1538461,,,,,,,
4620,note_on,,,,,15,0,2,,,,,0,,,45,37
4620,note_on,,,,,0,0,1,,,,,0,,,52,41
4620,note_on,,,,,15,0,1,,,,,0,,,64,41
4620,note_on,,,,,0,0,2,,,,,0,,,52,37
4625,set_tempo,,,,,15,1,0,,1538461,,,,,,,
4635,set_tempo,,,,,10,1,0,,1578947,,,,,,,
4650,set_tempo,,,,,15,1,0,,1764705,,,,,,,
4665,note_on,,,,,0,0,2,,,,,0,,,45,0
4665,note_on,,,,,0,0,1,,,,,0,,,64,0
4665,note_on,,,,,45,0,1,,,,,0,,,52,0
4665,note_on,,,,,45,0,2,,,,,0,,,52,0
4680,note_on,,,,,0,0,1,,,,,0,,,74,82
4680,note_on,,,,,0,0,1,,,,,0,,,62,82
4680,note_on,,,,,15,0,2,,,,,0,,,50,87
4680,control_change,,,,,0,0,1,,,,,0,64,96,,
4680,set_tempo,,,,,30,1,0,,1428571,,,,,,,
4680,note_on,,,,,15,0,1,,,,,0,,,54,82
4695,set_tempo,,,,,15,1,0,,1428571,,,,,,,
4700,set_tempo,,,,,5,1,0,,1395348,,,,,,,
4705,set_tempo,,,,,5,1,0,,1395348,,,,,,,
4720,set_tempo,,,,,15,1,0,,1363636,,,,,,,
4725,set_tempo,,,,,5,1,0,,1363636,,,,,,,
4735,set_tempo,,,,,10,1,0,,1333333,,,,,,,
4755,set_tempo,,,,,20,1,0,,1304347,,,,,,,
4765,control_change,,,,,85,0,1,,,,,0,64,0,,
4770,note_on,,,,,0,0,1,,,,,0,,,61,54
4770,note_on,,,,,0,0,1,,,,,0,,,62,0
4770,note_on,,,,,0,0,1,,,,,0,,,54,0
4770,note_on,,,,,0,0,1,,,,,0,,,52,54
4770,note_on,,,,,0,0,1,,,,,0,,,73,54
4770,note_on,,,,,5,0,1,,,,,0,,,74,0
4800,note_on,,,,,0,0,1,,,,,0,,,74,49
4800,note_on,,,,,0,0,1,,,,,0,,,62,49
4800,note_on,,,,,0,0,1,,,,,0,,,54,49
4800,note_on,,,,,30,0,1,,,,,0,,,73,0
4800,note_on,,,,,0,0,1,,,,,0,,,61,0
4800,note_on,,,,,0,0,1,,,,,0,,,52,0
4830,note_on,,,,,30,0,1,,,,,0,,,74,0
4830,note_on,,,,,0,0,1,,,,,0,,,54,0
4830,note_on,,,,,0,0,1,,,,,0,,,55,46
4830,note_on,,,,,0,0,1,,,,,0,,,59,46
4830,note_on,,,,,0,0,1,,,,,0,,,71,46
4830,note_on,,,,,0,0,1,,,,,0,,,62,0
4860,note_on,,,,,30,0,1,,,,,0,,,71,0
4860,note_on,,,,,0,0,1,,,,,0,,,59,0
4860,note_on,,,,,0,0,1,,,,,0,,,69,47
4860,note_on,,,,,0,0,1,,,,,0,,,55,0
4860,note_on,,,,,0,0,2,,,,,0,,,54,39
4860,note_on,,,,,0,0,2,,,,,0,,,45,39
4860,note_on,,,,,180,0,2,,,,,0,,,50,0
4860,note_on,,,,,0,0,1,,,,,0,,,57,47
4895,set_tempo,,,,,140,1,0,,1333333,,,,,,,
4900,set_tempo,,,,,5,1,0,,1333333,,,,,,,
4905,note_on,,,,,0,0,1,,,,,0,,,69,0
4905,note_on,,,,,0,0,2,,,,,0,,,45,0
4905,note_on,,,,,45,0,2,,,,,0,,,54,0
4905,note_on,,,,,45,0,1,,,,,0,,,57,0
4915,set_tempo,,,,,15,1,0,,1333333,,,,,,,
4920,note_on,,,,,15,0,2,,,,,0,,,45,37
4920,note_on,,,,,0,0,2,,,,,0,,,52,37
4920,note_on,,,,,0,0,1,,,,,0,,,55,42
4920,note_on,,,,,15,0,1,,,,,0,,,67,42
4920,set_tempo,,,,,5,1,0,,1363636,,,,,,,
4935,set_tempo,,,,,15,1,0,,1395348,,,,,,,
4950,set_tempo,,,,,15,1,0,,1395348,,,,,,,
4955,set_tempo,,,,,5,1,0,,1500000,,,,,,,
4965,note_on,,,,,0,0,2,,,,,0,,,45,0
4965,note_on,,,,,45,0,2,,,,,0,,,52,0
4965,note_on,,,,,45,0,1,,,,,0,,,55,0
4965,note_on,,,,,0,0,1,,,,,0,,,67,0
4975,set_tempo,,,,,20,1,0,,1538461,,,,,,,
4980,note_on,,,,,15,0,2,,,,,0,,,45,36
4980,note_on,,,,,15,0,1,,,,,0,,,64,41
4980,note_on,,,,,0,0,2,,,,,0,,,52,36
4980,note_on,,,,,0,0,1,,,,,0,,,52,41
4985,set_tempo,,,,,10,1,0,,1578947,,,,,,,
4990,set_tempo,,,,,5,1,0,,1578947,,,,,,,
5005,set_tempo,,,,,15,1,0,,1621621,,,,,,,
5010,set_tempo,,,,,5,1,0,,1764705,,,,,,,
5025,note_on,,,,,45,0,1,,,,,0,,,52,0
5025,note_on,,,,,0,0,1,,,,,0,,,64,0
5025,note_on,,,,,0,0,2,,,,,0,,,45,0
5025,note_on,,,,,45,0,2,,,,,0,,,52,0
5040,note_on,,,,,15,0,1,,,,,0,,,62,84
5040,note_on,,,,,0,0,1,,,,,0,,,66,84
5040,note_on,,,,,0,0,1,,,,,0,,,78,84
5040,set_tempo,,,,,30,1,0,,1463414,,,,,,,
5040,control_change,,,,,0,0,1,,,,,0,64,96,,
5040,note_on,,,,,0,0,2,,,,,0,,,57,86
5040,note_on,,,,,15,0,2,,,,,0,,,50,86
5055,set_tempo,,,,,15,1,0,,1428571,,,,,,,
5075,set_tempo,,,,,20,1,0,,1428571,,,,,,,
5115,set_tempo,,,,,40,1,0,,1333333,,,,,,,
5120,set_tempo,,,,,5,1,0,,1363636,,,,,,,
5125,control_change,,,,,85,0,1,,,,,0,64,0,,
5130,note_on,,,,,0,0,1,,,,,0,,,64,56
5130,note_on,,,,,0,0,1,,,,,0,,,62,0
5130,note_on,,,,,0,0,1,,,,,0,,,76,56
5130,note_on,,,,,0,0,1,,,,,0,,,66,0
5130,set_tempo,,,,,10,1,0,,1395348,,,,,,,
5130,note_on,,,,,5,0,1,,,,,0,,,78,0
5130,note_on,,,,,90,0,2,,,,,0,,,57,0
5130,note_on,,,,,0,0,2,,,,,0,,,50,0
5130,note_on,,,,,0,0,2,,,,,0,,,58,48
5130,note_on,,,,,0,0,2,,,,,0,,,54,48
5155,set_tempo,,,,,25,1,0,,1428571,,,,,,,
5160,note_on,,,,,30,0,1,,,,,0,,,76,0
5160,note_on,,,,,0,0,1,,,,,0,,,64,0
5160,note_on,,,,,0,0,1,,,,,0,,,62,50
5160,note_on,,,,,0,0,1,,,,,0,,,74,50
5160,note_on,,,,,30,0,2,,,,,0,,,54,0
5160,note_on,,,,,0,0,2,,,,,0,,,55,41
5160,note_on,,,,,0,0,2,,,,,0,,,59,41
5160,note_on,,,,,0,0,2,,,,,0,,,58,0
5170,set_tempo,,,,,15,1,0,,1428571,,,,,,,
5180,set_tempo,,,,,10,1,0,,1463414,,,,,,,
5190,note_on,,,,,30,0,2,,,,,0,,,59,0
5190,note_on,,,,,0,0,2,,,,,0,,,55,0
5190,note_on,,,,,0,0,2,,,,,0,,,62,36
5190,note_on,,,,,0,0,2,,,,,0,,,56,36
5190,note_on,,,,,30,0,1,,,,,0,,,74,0
5190,note_on,,,,,0,0,1,,,,,0,,,65,47
5190,note_on,,,,,0,0,1,,,,,0,,,62,0
5190,set_tempo,,,,,10,1,0,,1463414,,,,,,,
5190,note_on,,,,,0,0,1,,,,,0,,,71,47
5195,set_tempo,,,,,5,1,0,,1500000,,,,,,,
5205,set_tempo,,,,,10,1,0,,1500000,,,,,,,
5210,set_tempo,,,,,5,1,0,,1538461,,,,,,,
5220,note_on,,,,,0,0,1,,,,,0,,,65,0
5220,note_on,,,,,30,0,1,,,,,0,,,71,0
5220,note_on,,,,,0,0,2,,,,,0,,,62,0
5220,note_on,,,,,30,0,2,,,,,0,,,56,0
5220,note_on,,,,,0,0,1,,,,,0,,,69,47
5220,note_on,,,,,0,0,1,,,,,0,,,66,47
5220,note_on,,,,,0,0,2,,,,,0,,,57,37
5220,note_on,,,,,0,0,2,,,,,0,,,62,37
5230,set_tempo,,,,,20,1,0,,1538461,,,,,,,
5245,set_tempo,,,,,15,1,0,,1538461,,,,,,,
5260,set_tempo,,,,,15,1,0,,1538461,,,,,,,
5265,note_on,,,,,45,0,2,,,,,0,,,57,0
5265,note_on,,,,,0,0,1,,,,,0,,,66,0
5265,note_on,,,,,45,0,1,,,,,0,,,69,0
5265,note_on,,,,,0,0,2,,,,,0,,,62,0
5270,set_tempo,,,,,10,1,0,,1578947,,,,,,,
5280,note_on,,,,,15,0,2,,,,,0,,,57,35
5280,note_on,,,,,15,0,1,,,,,0,,,64,40
5280,note_on,,,,,0,0,1,,,,,0,,,67,40
5280,note_on,,,,,0,0,2,,,,,0,,,45,35
5285,set_tempo,,,,,15,1,0,,1578947,,,,,,,
5295,set_tempo,,,,,10,1,0,,1578947,,,,,,,
5310,set_tempo,,,,,15,1,0,,1578947,,,,,,,
5315,set_tempo,,,,,5,1,0,,1578947,,,,,,,
5320,set_tempo,,,,,5,1,0,,1578947,,,,,,,
5325,note_on,,,,,0,0,2,,,,,0,,,57,0
5325,set_tempo,,,,,5,1,0,,1578947,,,,,,,
5325,note_on,,,,,45,0,2,,,,,0,,,45,0
5325,note_on,,,,,0,0,1,,,,,0,,,64,0
5325,note_on,,,,,45,0,1,,,,,0,,,67,0
5335,set_tempo,,,,,10,1,0,,1621621,,,,,,,
5340,note_on,,,,,0,0,2,,,,,0,,,45,34
5340,note_on,,,,,15,0,1,,,,,0,,,61,37
5340,note_on,,,,,0,0,1,,,,,0,,,64,37
5340,note_on,,,,,15,0,2,,,,,0,,,55,34
5345,set_tempo,,,,,10,1,0,,1621621,,,,,,,
5350,set_tempo,,,,,5,1,0,,1621621,,,,,,,
5355,set_tempo,,,,,5,1,0,,1621621,,,,,,,
5370,set_tempo,,,,,15,1,0,,1621621,,,,,,,
5380,set_tempo,,,,,10,1,0,,1621621,,,,,,,
5385,note_on,,,,,45,0,2,,,,,0,,,45,0
5385,note_on,,,,,0,0,2,,,,,0,,,55,0
5385,note_on,,,,,0,0,1,,,,,0,,,61,0
5385,note_on,,,,,45,0,1,,,,,0,,,64,0
5395,set_tempo,,,,,15,1,0,,1666666,,,,,,,
5400,note_on,,,,,15,0,2,,,,,0,,,50,34
5400,note_on,,,,,15,0,1,,,,,0,,,62,41
5410,set_tempo,,,,,15,1,0,,1666666,,,,,,,
5470,set_tempo,,,,,60,1,0,,2142857,,,,,,,
5475,set_tempo,,,,,5,1,0,,1463414,,,,,,,
5475,note_on,,,,,75,0,2,,,,,0,,,50,0
5475,note_on,,,,,75,0,1,,,,,0,,,62,0
5490,note_on,,,,,15,0,1,,,,,0,,,54,41
5490,note_on,,,,,0,0,1,,,,,0,,,66,41
5520,note_on,,,,,0,0,1,,,,,0,,,54,0
5520,note_on,,,,,30,0,1,,,,,0,,,66,0
5520,note_on,,,,,0,0,1,,,,,0,,,67,51
5520,note_on,,,,,0,0,1,,,,,0,,,55,51
5540,set_tempo,,,,,65,1,0,,1463414,,,,,,,
5550,note_on,,,,,0,0,1,,,,,0,,,69,60
5550,note_on,,,,,0,0,1,,,,,0,,,57,60
5550,note_on,,,,,0,0,1,,,,,0,,,55,0
5550,note_on,,,,,30,0,1,,,,,0,,,67,0
5580,note_on,,,,,0,0,2,,,,,0,,,50,42
5580,note_on,,,,,105,0,2,,,,,0,,,43,42
5580,note_on,,,,,0,0,1,,,,,0,,,57,0
5580,note_on,,,,,30,0,1,,,,,0,,,69,0
5580,note_on,,,,,0,0,1,,,,,0,,,52,68
5580,note_on,,,,,0,0,1,,,,,0,,,59,68
5580,note_on,,,,,0,0,1,,,,,0,,,71,68
5580,control_change,,,,,0,0,1,,,,,0,64,96,,
5580,set_tempo,,,,,40,1,0,,1666666,,,,,,,
5640,set_tempo,,,,,60,1,0,,1428571,,,,,,,
5645,set_tempo,,,,,5,1,0,,1463414,,,,,,,
5660,set_tempo,,,,,15,1,0,,1428571,,,,,,,
5665,set_tempo,,,,,5,1,0,,1428571,,,,,,,
5670,note_on,,,,,0,0,1,,,,,0,,,52,55
5670,note_on,,,,,90,0,1,,,,,0,,,71,0
5670,note_on,,,,,0,0,1,,,,,0,,,59,0
5670,note_on,,,,,0,0,1,,,,,0,,,52,0
5670,note_on,,,,,0,0,1,,,,,0,,,64,55
5700,set_tempo,,,,,35,1,0,,1395348,,,,,,,
5700,note_on,,,,,30,0,1,,,,,0,,,64,0
5700,note_on,,,,,0,0,1,,,,,0,,,64,52
5700,note_on,,,,,0,0,1,,,,,0,,,52,52
5700,note_on,,,,,0,0,1,,,,,0,,,52,0
5725,set_tempo,,,,,25,1,0,,1463414,,,,,,,
5745,note_on,,,,,45,0,1,,,,,0,,,64,0
5745,note_on,,,,,0,0,2,,,,,0,,,43,0
5745,note_on,,,,,165,0,2,,,,,0,,,50,0
5745,note_on,,,,,0,0,1,,,,,0,,,52,0
5755,control_change,,,,,10,0,1,,,,,0,64,0,,
5760,note_on,,,,,5,0,1,,,,,0,,,62,80
5760,note_on,,,,,0,0,2,,,,,0,,,52,61
5760,note_on,,,,,0,0,1,,,,,0,,,74,80
5760,control_change,,,,,0,0,1,,,,,0,64,96,,
5760,note_on,,,,,15,0,2,,,,,0,,,44,61
5760,set_tempo,,,,,35,1,0,,1463414,,,,,,,
5790,set_tempo,,,,,30,1,0,,1428571,,,,,,,
5830,set_tempo,,,,,40,1,0,,1395348,,,,,,,
5835,set_tempo,,,,,5,1,0,,1363636,,,,,,,
5840,set_tempo,,,,,5,1,0,,1363636,,,,,,,
5850,note_on,,,,,90,0,1,,,,,0,,,74,0
5850,note_on,,,,,0,0,1,,,,,0,,,64,60
5850,note_on,,,,,0,0,1,,,,,0,,,52,60
5850,note_on,,,,,0,0,1,,,,,0,,,62,0
5850,set_tempo,,,,,10,1,0,,1333333,,,,,,,
5860,set_tempo,,,,,10,1,0,,1304347,,,,,,,
5880,note_on,,,,,0,0,1,,,,,0,,,52,60
5880,note_on,,,,,0,0,1,,,,,0,,,64,60
5880,note_on,,,,,30,0,1,,,,,0,,,64,0
5880,note_on,,,,,0,0,1,,,,,0,,,52,0
5885,set_tempo,,,,,25,1,0,,1304347,,,,,,,
5890,set_tempo,,,,,5,1,0,,1276595,,,,,,,
5905,set_tempo,,,,,15,1,0,,1276595,,,,,,,
5910,set_tempo,,,,,5,1,0,,1363636,,,,,,,
5910,control_change,,,,,30,0,1,,,,,0,64,0,,
5925,note_on,,,,,0,0,2,,,,,0,,,44,0
5925,note_on,,,,,165,0,2,,,,,0,,,52,0
5925,note_on,,,,,15,0,1,,,,,0,,,64,0
5925,note_on,,,,,0,0,1,,,,,0,,,52,0
5940,note_on,,,,,0,0,1,,,,,0,,,64,75
5940,control_change,,,,,0,0,1,,,,,0,64,95,,
5940,note_on,,,,,15,0,2,,,,,0,,,45,76
5940,note_on,,,,,0,0,1,,,,,0,,,74,75
5940,note_on,,,,,15,0,1,,,,,0,,,55,75
5970,set_tempo,,,,,60,1,0,,1363636,,,,,,,
5990,set_tempo,,,,,20,1,0,,1333333,,,,,,,
6000,note_on,,,,,0,0,1,,,,,0,,,73,54
6000,note_on,,,,,60,0,1,,,,,0,,,74,0
6005,set_tempo,,,,,15,1,0,,1333333,,,,,,,
6030,note_on,,,,,30,0,1,,,,,0,,,73,0
6030,note_on,,,,,0,0,1,,,,,0,,,64,0
6030,note_on,,,,,0,0,1,,,,,0,,,55,0
6030,note_on,,,,,0,0,1,,,,,0,,,66,60
6030,note_on,,,,,0,0,1,,,,,0,,,74,60
6030,control_change,,,,,0,0,1,,,,,0,64,0,,
6030,note_on,,,,,0,0,1,,,,,0,,,54,60
6060,note_on,,,,,30,0,1,,,,,0,,,74,0
6060,note_on,,,,,0,0,1,,,,,0,,,54,0
6060,note_on,,,,,0,0,1,,,,,0,,,52,68
6060,note_on,,,,,0,0,1,,,,,0,,,67,68
6060,note_on,,,,,0,0,1,,,,,0,,,76,68
6060,set_tempo,,,,,55,1,0,,1304347,,,,,,,
6060,note_on,,,,,0,0,1,,,,,0,,,66,0
6080,set_tempo,,,,,20,1,0,,1304347,,,,,,,
6090,note_on,,,,,30,0,1,,,,,0,,,76,0
6090,note_on,,,,,0,0,1,,,,,0,,,73,77
6090,note_on,,,,,0,0,1,,,,,0,,,67,0
6090,note_on,,,,,0,0,1,,,,,0,,,52,0
6090,note_on,,,,,0,0,1,,,,,0,,,57,77
6090,note_on,,,,,0,0,1,,,,,0,,,64,77
6105,set_tempo,,,,,25,1,0,,1276595,,,,,,,
6115,set_tempo,,,,,10,1,0,,1250000,,,,,,,
6120,control_change,,,,,0,0,1,,,,,0,64,95,,
6120,note_on,,,,,0,0,1,,,,,0,,,74,81
6120,note_on,,,,,0,0,1,,,,,0,,,57,0
6120,note_on,,,,,0,0,1,,,,,0,,,64,0
6120,note_on,,,,,0,0,1,,,,,0,,,66,81
6120,note_on,,,,,0,0,2,,,,,0,,,57,72
6120,note_on,,,,,0,0,2,,,,,0,,,50,72
6120,note_on,,,,,180,0,2,,,,,0,,,45,0
6120,note_on,,,,,30,0,1,,,,,0,,,73,0
6125,set_tempo,,,,,10,1,0,,1395348,,,,,,,
6180,note_on,,,,,60,0,1,,,,,0,,,74,0
6180,note_on,,,,,0,0,1,,,,,0,,,78,59
6200,set_tempo,,,,,75,1,0,,1621621,,,,,,,
6210,control_change,,,,,30,0,1,,,,,0,64,0,,
6225,note_on,,,,,105,0,2,,,,,0,,,50,0
6225,note_on,,,,,0,0,2,,,,,0,,,57,0
6225,note_on,,,,,15,0,1,,,,,0,,,66,0
6230,note_on,,,,,5,0,1,,,,,0,,,78,0
6240,note_on,,,,,0,0,2,,,,,0,,,57,37
6240,note_on,,,,,0,0,1,,,,,0,,,69,36
6240,note_on,,,,,10,0,1,,,,,0,,,66,36
6240,note_on,,,,,15,0,2,,,,,0,,,50,37
6260,set_tempo,,,,,60,1,0,,1363636,,,,,,,
6290,note_on,,,,,50,0,1,,,,,0,,,69,0
6290,note_on,,,,,0,0,1,,,,,0,,,66,0
6290,note_on,,,,,50,0,2,,,,,0,,,57,0
6290,note_on,,,,,0,0,2,,,,,0,,,50,0
6295,set_tempo,,,,,35,1,0,,1428571,,,,,,,
6300,note_on,,,,,10,0,1,,,,,0,,,66,40
6300,note_on,,,,,0,0,2,,,,,0,,,57,37
6300,note_on,,,,,0,0,1,,,,,0,,,69,40
6300,control_change,,,,,0,0,1,,,,,0,64,96,,
6300,set_tempo,,,,,5,1,0,,1463414,,,,,,,
6300,note_on,,,,,10,0,2,,,,,0,,,49,37
6330,set_tempo,,,,,30,1,0,,1463414,,,,,,,
6340,set_tempo,,,,,10,1,0,,1428571,,,,,,,
6345,set_tempo,,,,,5,1,0,,1428571,,,,,,,
6355,set_tempo,,,,,10,1,0,,1395348,,,,,,,
6360,note_on,,,,,60,0,1,,,,,0,,,69,0
6360,note_on,,,,,0,0,1,,,,,0,,,66,0
6360,note_on,,,,,0,0,1,,,,,0,,,64,42
6360,note_on,,,,,0,0,1,,,,,0,,,67,42
6365,set_tempo,,,,,10,1,0,,1395348,,,,,,,
6390,note_on,,,,,30,0,1,,,,,0,,,67,0
6390,note_on,,,,,0,0,1,,,,,0,,,66,38
6390,note_on,,,,,0,0,1,,,,,0,,,69,38
6390,note_on,,,,,0,0,1,,,,,0,,,64,0
6390,control_change,,,,,0,0,1,,,,,0,64,0,,
6405,note_on,,,,,105,0,2,,,,,0,,,57,0
6405,note_on,,,,,0,0,2,,,,,0,,,49,0
6405,set_tempo,,,,,40,1,0,,1363636,,,,,,,
6420,note_on,,,,,0,0,2,,,,,0,,,57,35
6420,set_tempo,,,,,15,1,0,,1363636,,,,,,,
6420,note_on,,,,,15,0,2,,,,,0,,,45,35
6420,note_on,,,,,30,0,1,,,,,0,,,69,0
6420,note_on,,,,,0,0,1,,,,,0,,,66,0
6420,note_on,,,,,0,0,1,,,,,0,,,67,36
6420,note_on,,,,,0,0,1,,,,,0,,,71,36
6430,set_tempo,,,,,10,1,0,,1333333,,,,,,,
6450,set_tempo,,,,,20,1,0,,1333333,,,,,,,
6450,note_on,,,,,0,0,1,,,,,0,,,67,38
6450,note_on,,,,,0,0,1,,,,,0,,,64,38
6450,note_on,,,,,0,0,1,,,,,0,,,67,0
6450,note_on,,,,,30,0,1,,,,,0,,,71,0
6460,set_tempo,,,,,10,1,0,,1304347,,,,,,,
6470,note_on,,,,,0,0,2,,,,,0,,,45,0
6470,note_on,,,,,50,0,2,,,,,0,,,57,0
6480,note_on,,,,,0,0,2,,,,,0,,,57,32
6480,note_on,,,,,10,0,2,,,,,0,,,50,32
6480,note_on,,,,,0,0,1,,,,,0,,,64,0
6480,note_on,,,,,0,0,1,,,,,0,,,67,49
6480,note_on,,,,,0,0,1,,,,,0,,,69,49
6480,control_change,,,,,0,0,1,,,,,0,64,96,,
6480,set_tempo,,,,,20,1,0,,1276595,,,,,,,
6480,note_on,,,,,30,0,1,,,,,0,,,67,0
6510,set_tempo,,,,,30,1,0,,1428571,,,,,,,
6520,set_tempo,,,,,10,1,0,,1395348,,,,,,,
6540,note_on,,,,,60,0,1,,,,,0,,,69,0
6540,note_on,,,,,0,0,1,,,,,0,,,74,36
6540,note_on,,,,,0,0,1,,,,,0,,,66,36
6540,note_on,,,,,0,0,1,,,,,0,,,67,0
6545,set_tempo,,,,,25,1,0,,1395348,,,,,,,
6550,set_tempo,,,,,5,1,0,,1363636,,,,,,,
6555,set_tempo,,,,,5,1,0,,1363636,,,,,,,
6565,control_change,,,,,25,0,1,,,,,0,64,0,,
6570,set_tempo,,,,,15,1,0,,1333333,,,,,,,
6575,set_tempo,,,,,5,1,0,,1333333,,,,,,,
6585,note_on,,,,,0,0,2,,,,,0,,,50,0
6585,note_on,,,,,105,0,2,,,,,0,,,57,0
6590,note_on,,,,,0,0,1,,,,,0,,,66,0
6590,note_on,,,,,25,0,1,,,,,0,,,74,0
6595,set_tempo,,,,,20,1,0,,1304347,,,,,,,
6600,note_on,,,,,10,0,1,,,,,0,,,54,51
6600,note_on,,,,,0,0,1,,,,,0,,,69,51
6615,set_tempo,,,,,20,1,0,,1304347,,,,,,,
6630,note_on,,,,,0,0,1,,,,,0,,,71,57
6630,note_on,,,,,0,0,1,,,,,0,,,55,57
6630,note_on,,,,,0,0,1,,,,,0,,,54,0
6630,note_on,,,,,30,0,1,,,,,0,,,69,0
6630,set_tempo,,,,,15,1,0,,1276595,,,,,,,
6650,set_tempo,,,,,20,1,0,,1276595,,,,,,,
6660,set_tempo,,,,,10,1,0,,1250000,,,,,,,
6660,note_on,,,,,30,0,1,,,,,0,,,71,0
6660,note_on,,,,,0,0,1,,,,,0,,,55,0
6660,note_on,,,,,0,0,1,,,,,0,,,55,67
6660,note_on,,,,,0,0,1,,,,,0,,,64,67
6660,note_on,,,,,0,0,1,,,,,0,,,74,67
6660,note_on,,,,,75,0,2,,,,,0,,,45,49
6660,control_change,,,,,0,0,1,,,,,0,64,97,,
6665,set_tempo,,,,,5,1,0,,1333333,,,,,,,
6695,set_tempo,,,,,30,1,0,,1395348,,,,,,,
6720,note_on,,,,,0,0,1,,,,,0,,,73,55
6720,note_on,,,,,60,0,1,,,,,0,,,74,0
6725,set_tempo,,,,,30,1,0,,1363636,,,,,,,
6745,control_change,,,,,25,0,1,,,,,0,64,0,,
6745,set_tempo,,,,,20,1,0,,1333333,,,,,,,
6750,note_on,,,,,0,0,1,,,,,0,,,74,59
6750,note_on,,,,,0,0,1,,,,,0,,,66,59
6750,note_on,,,,,0,0,1,,,,,0,,,54,59
6750,note_on,,,,,0,0,1,,,,,0,,,55,0
6750,note_on,,,,,0,0,1,,,,,0,,,64,0
6750,note_on,,,,,5,0,1,,,,,0,,,73,0
6750,set_tempo,,,,,5,1,0,,1333333,,,,,,,
6765,set_tempo,,,,,15,1,0,,1304347,,,,,,,
6780,note_on,,,,,30,0,1,,,,,0,,,74,0
6780,note_on,,,,,0,0,1,,,,,0,,,52,63
6780,note_on,,,,,0,0,1,,,,,0,,,66,0
6780,note_on,,,,,0,0,1,,,,,0,,,54,0
6780,note_on,,,,,0,0,1,,,,,0,,,67,63
6780,note_on,,,,,0,0,1,,,,,0,,,76,63
6790,set_tempo,,,,,25,1,0,,1304347,,,,,,,
6800,set_tempo,,,,,10,1,0,,1276595,,,,,,,
6810,note_on,,,,,0,0,1,,,,,0,,,64,66
6810,note_on,,,,,30,0,1,,,,,0,,,76,0
6810,note_on,,,,,0,0,1,,,,,0,,,67,0
6810,note_on,,,,,0,0,1,,,,,0,,,52,0
6810,note_on,,,,,0,0,1,,,,,0,,,57,66
6810,note_on,,,,,0,0,1,,,,,0,,,73,66
6815,set_tempo,,,,,15,1,0,,1276595,,,,,,,
6825,set_tempo,,,,,10,1,0,,1250000,,,,,,,
6835,set_tempo,,,,,10,1,0,,1250000,,,,,,,
6840,note_on,,,,,0,0,2,,,,,0,,,57,55
6840,control_change,,,,,0,0,1,,,,,0,64,95,,
6840,note_on,,,,,0,0,1,,,,,0,,,74,72
6840,note_on,,,,,0,0,1,,,,,0,,,57,0
6840,note_on,,,,,0,0,1,,,,,0,,,64,0
6840,note_on,,,,,30,0,1,,,,,0,,,73,0
6840,note_on,,,,,180,0,2,,,,,0,,,45,0
6840,note_on,,,,,0,0,2,,,,,0,,,50,55
6840,set_tempo,,,,,5,1,0,,1395348,,,,,,,
6840,note_on,,,,,0,0,1,,,,,0,,,66,72
6900,note_on,,,,,60,0,1,,,,,0,,,74,0
6900,note_on,,,,,0,0,1,,,,,0,,,78,54
6930,control_change,,,,,30,0,1,,,,,0,64,0,,
6940,set_tempo,,,,,100,1,0,,1428571,,,,,,,
6945,note_on,,,,,105,0,2,,,,,0,,,57,0
6945,note_on,,,,,0,0,2,,,,,0,,,50,0
6945,note_on,,,,,15,0,1,,,,,0,,,66,0
6950,note_on,,,,,5,0,1,,,,,0,,,78,0
6955,set_tempo,,,,,15,1,0,,1428571,,,,,,,
6960,set_tempo,,,,,5,1,0,,1428571,,,,,,,
6960,note_on,,,,,15,0,2,,,,,0,,,57,46
6960,note_on,,,,,0,0,2,,,,,0,,,49,46
6960,note_on,,,,,0,0,1,,,,,0,,,69,55
6960,note_on,,,,,10,0,1,,,,,0,,,64,55
6980,set_tempo,,,,,20,1,0,,1463414,,,,,,,
6990,note_on,,,,,30,0,2,,,,,0,,,57,0
6990,note_on,,,,,0,0,2,,,,,0,,,52,42
7005,note_on,,,,,15,0,2,,,,,0,,,52,0
7005,set_tempo,,,,,25,1,0,,1463414,,,,,,,
7010,note_on,,,,,0,0,1,,,,,0,,,64,0
7010,note_on,,,,,5,0,2,,,,,0,,,49,0
7010,note_on,,,,,50,0,1,,,,,0,,,69,0
7020,note_on,,,,,0,0,2,,,,,0,,,54,35
7020,note_on,,,,,0,0,1,,,,,0,,,69,51
7020,control_change,,,,,0,0,1,,,,,0,64,95,,
7020,note_on,,,,,10,0,2,,,,,0,,,47,35
7020,note_on,,,,,10,0,1,,,,,0,,,62,51
7065,set_tempo,,,,,60,1,0,,1500000,,,,,,,
7080,note_on,,,,,0,0,1,,,,,0,,,62,0
7080,note_on,,,,,0,0,1,,,,,0,,,68,37
7080,note_on,,,,,60,0,1,,,,,0,,,69,0
7095,set_tempo,,,,,30,1,0,,1500000,,,,,,,
7110,set_tempo,,,,,15,1,0,,1538461,,,,,,,
7110,note_on,,,,,0,0,1,,,,,0,,,69,45
7110,note_on,,,,,0,0,1,,,,,0,,,63,45
7110,note_on,,,,,30,0,1,,,,,0,,,68,0
7120,set_tempo,,,,,10,1,0,,1538461,,,,,,,
7135,set_tempo,,,,,15,1,0,,1578947,,,,,,,
7140,note_on,,,,,0,0,1,,,,,0,,,64,49
7140,note_on,,,,,0,0,1,,,,,0,,,73,49
7140,note_on,,,,,0,0,1,,,,,0,,,63,0
7140,set_tempo,,,,,5,1,0,,1578947,,,,,,,
7140,note_on,,,,,30,0,1,,,,,0,,,69,0
7140,note_on,,,,,120,0,2,,,,,0,,,54,0
7140,note_on,,,,,0,0,2,,,,,0,,,47,0
7140,note_on,,,,,0,0,2,,,,,0,,,40,46
7140,note_on,,,,,0,0,2,,,,,0,,,52,46
7155,set_tempo,,,,,15,1,0,,1621621,,,,,,,
7160,set_tempo,,,,,5,1,0,,1621621,,,,,,,
7170,note_on,,,,,30,0,1,,,,,0,,,73,0
7170,note_on,,,,,0,0,1,,,,,0,,,64,0
7170,note_on,,,,,0,0,1,,,,,0,,,68,47
7170,note_on,,,,,0,0,1,,,,,0,,,71,47
7170,control_change,,,,,0,0,1,,,,,0,64,0,,
7170,note_on,,,,,30,0,2,,,,,0,,,52,0
7170,note_on,,,,,0,0,2,,,,,0,,,50,43
7175,set_tempo,,,,,15,1,0,,1666666,,,,,,,
7180,set_tempo,,,,,5,1,0,,1666666,,,,,,,
7200,note_on,,,,,30,0,2,,,,,0,,,50,0
7200,note_on,,,,,0,0,2,,,,,0,,,45,37
7200,note_on,,,,,0,0,2,,,,,0,,,40,0
7200,note_on,,,,,0,0,2,,,,,0,,,49,37
7200,note_on,,,,,30,0,1,,,,,0,,,71,0
7200,set_tempo,,,,,20,1,0,,1714285,,,,,,,
7200,note_on,,,,,0,0,1,,,,,0,,,69,40
7200,note_on,,,,,0,0,1,,,,,0,,,68,0
7200,control_change,,,,,0,0,1,,,,,0,64,97,,
7210,set_tempo,,,,,10,1,0,,1764705,,,,,,,
7275,note_on,,,,,0,0,2,,,,,0,,,45,0
7275,note_on,,,,,75,0,2,,,,,0,,,49,0
7275,note_on,,,,,75,0,1,,,,,0,,,69,0
7290,note_on,,,,,15,0,1,,,,,0,,,69,42
7290,note_on,,,,,0,0,1,,,,,0,,,57,42
7295,set_tempo,,,,,85,1,0,,1428571,,,,,,,
7320,note_on,,,,,30,0,1,,,,,0,,,57,0
7320,note_on,,,,,0,0,1,,,,,0,,,69,0
7320,note_on,,,,,0,0,1,,,,,0,,,71,48
7320,note_on,,,,,0,0,1,,,,,0,,,59,48
7340,control_change,,,,,20,0,1,,,,,0,64,0,,
7350,note_on,,,,,0,0,1,,,,,0,,,61,52
7350,note_on,,,,,10,0,1,,,,,0,,,59,0
7350,note_on,,,,,0,0,1,,,,,0,,,71,0
7350,note_on,,,,,0,0,1,,,,,0,,,73,52
7380,note_on,,,,,30,0,1,,,,,0,,,61,0
7380,note_on,,,,,0,0,1,,,,,0,,,62,55
7380,note_on,,,,,0,0,1,,,,,0,,,74,55
7380,control_change,,,,,0,0,1,,,,,0,64,96,,
7380,note_on,,,,,0,0,1,,,,,0,,,73,0
7440,note_on,,,,,165,0,2,,,,,0,,,50,42
7440,note_on,,,,,0,0,2,,,,,0,,,54,42
7500,control_change,,,,,120,0,1,,,,,0,64,0,,
7530,note_on,,,,,30,0,1,,,,,0,,,62,0
7530,note_on,,,,,0,0,1,,,,,0,,,74,0
7530,note_on,,,,,0,0,1,,,,,0,,,73,50
7545,note_on,,,,,15,0,1,,,,,0,,,73,0
7545,note_on,,,,,0,0,1,,,,,0,,,71,45
7560,note_on,,,,,0,0,1,,,,,0,,,57,40
7560,control_change,,,,,0,0,1,,,,,0,64,96,,
7560,note_on,,,,,15,0,1,,,,,0,,,71,0
7560,note_on,,,,,0,0,1,,,,,0,,,69,40
7560,note_on,,,,,120,0,2,,,,,0,,,54,0
7560,note_on,,,,,0,0,2,,,,,0,,,50,0
7620,note_on,,,,,60,0,1,,,,,0,,,69,0
7620,note_on,,,,,0,0,2,,,,,0,,,52,42
7620,note_on,,,,,60,0,2,,,,,0,,,49,42
7640,set_tempo,,,,,345,1,0,,1428571,,,,,,,
7650,note_on,,,,,30,0,1,,,,,0,,,69,42
7650,set_tempo,,,,,10,1,0,,1395348,,,,,,,
7670,set_tempo,,,,,20,1,0,,1395348,,,,,,,
7680,control_change,,,,,0,0,1,,,,,0,64,0,,
7680,note_on,,,,,0,0,1,,,,,0,,,71,47
7680,set_tempo,,,,,10,1,0,,1363636,,,,,,,
7680,note_on,,,,,30,0,1,,,,,0,,,69,0
7690,set_tempo,,,,,10,1,0,,1363636,,,,,,,
7710,note_on,,,,,30,0,1,,,,,0,,,71,0
7710,note_on,,,,,0,0,1,,,,,0,,,67,51
7710,note_on,,,,,0,0,1,,,,,0,,,57,0
7725,set_tempo,,,,,35,1,0,,1333333,,,,,,,
7740,note_on,,,,,30,0,1,,,,,0,,,67,0
7740,note_on,,,,,0,0,1,,,,,0,,,66,54
7740,note_on,,,,,0,0,1,,,,,0,,,54,54
7740,note_on,,,,,120,0,2,,,,,0,,,52,0
7740,note_on,,,,,0,0,2,,,,,0,,,49,0
7740,note_on,,,,,0,0,2,,,,,0,,,50,48
7770,set_tempo,,,,,45,1,0,,1621621,,,,,,,
7770,note_on,,,,,0,0,1,,,,,0,,,67,59
7770,note_on,,,,,30,0,1,,,,,0,,,66,0
7775,note_on,,,,,5,0,1,,,,,0,,,67,0
7775,note_on,,,,,0,0,1,,,,,0,,,66,60
7780,note_on,,,,,5,0,1,,,,,0,,,66,0
7780,note_on,,,,,0,0,1,,,,,0,,,64,60
7785,note_on,,,,,0,0,1,,,,,0,,,66,60
7785,note_on,,,,,0,0,1,,,,,0,,,55,60
7785,note_on,,,,,0,0,2,,,,,0,,,52,50
7785,note_on,,,,,45,0,2,,,,,0,,,50,0
7785,note_on,,,,,5,0,1,,,,,0,,,64,0
7785,note_on,,,,,0,0,1,,,,,0,,,54,0
7792,note_on,,,,,0,0,1,,,,,0,,,67,60
7792,note_on,,,,,7,0,1,,,,,0,,,66,0
7800,note_on,,,,,0,0,1,,,,,0,,,57,61
7800,note_on,,,,,0,0,2,,,,,0,,,54,51
7800,note_on,,,,,15,0,2,,,,,0,,,52,0
7800,set_tempo,,,,,30,1,0,,1333333,,,,,,,
7800,note_on,,,,,8,0,1,,,,,0,,,67,0
7800,note_on,,,,,0,0,1,,,,,0,,,55,0
7800,note_on,,,,,0,0,1,,,,,0,,,69,61
7840,set_tempo,,,,,40,1,0,,1304347,,,,,,,
7860,note_on,,,,,60,0,2,,,,,0,,,54,0
7860,note_on,,,,,0,0,1,,,,,0,,,59,59
7860,note_on,,,,,0,0,1,,,,,0,,,71,59
7860,note_on,,,,,0,0,1,,,,,0,,,69,0
7860,note_on,,,,,60,0,1,,,,,0,,,57,0
7860,note_on,,,,,0,0,2,,,,,0,,,55,55
7860,note_on,,,,,0,0,2,,,,,0,,,52,55
7860,set_tempo,,,,,20,1,0,,1304347,,,,,,,
7890,note_on,,,,,0,0,1,,,,,0,,,61,52
7890,note_on,,,,,30,0,1,,,,,0,,,59,0
7890,note_on,,,,,0,0,1,,,,,0,,,71,0
7890,note_on,,,,,0,0,1,,,,,0,,,73,52
7895,set_tempo,,,,,35,1,0,,1304347,,,,,,,
7900,set_tempo,,,,,5,1,0,,1304347,,,,,,,
7905,set_tempo,,,,,5,1,0,,1333333,,,,,,,
7920,note_on,,,,,0,0,1,,,,,0,,,61,62
7920,control_change,,,,,0,0,1,,,,,0,64,96,,
7920,note_on,,,,,0,0,1,,,,,0,,,73,62
7920,note_on,,,,,0,0,1,,,,,0,,,73,0
7920,note_on,,,,,0,0,2,,,,,0,,,52,58
7920,note_on,,,,,0,0,2,,,,,0,,,52,0
7920,note_on,,,,,60,0,2,,,,,0,,,55,0
7920,note_on,,,,,30,0,1,,,,,0,,,61,0
7920,note_on,,,,,0,0,2,,,,,0,,,55,58
7920,note_on,,,,,0,0,2,,,,,0,,,50,58
7925,set_tempo,,,,,20,1,0,,1333333,,,,,,,
7940,set_tempo,,,,,15,1,0,,1363636,,,,,,,
7945,set_tempo,,,,,5,1,0,,1363636,,,,,,,
7950,set_tempo,,,,,5,1,0,,1395348,,,,,,,
7965,set_tempo,,,,,15,1,0,,1395348,,,,,,,
7975,set_tempo,,,,,10,1,0,,1428571,,,,,,,
7980,note_on,,,,,60,0,2,,,,,0,,,52,0
7980,note_on,,,,,0,0,1,,,,,0,,,62,49
7980,note_on,,,,,0,0,1,,,,,0,,,73,0
7980,note_on,,,,,60,0,1,,,,,0,,,61,0
7980,note_on,,,,,0,0,2,,,,,0,,,54,51
7980,note_on,,,,,0,0,2,,,,,0,,,55,0
7980,note_on,,,,,0,0,1,,,,,0,,,74,49
7985,set_tempo,,,,,10,1,0,,1428571,,,,,,,
7990,set_tempo,,,,,5,1,0,,1463414,,,,,,,
7995,note_on,,,,,0,0,1,,,,,0,,,74,0
7995,note_on,,,,,15,0,1,,,,,0,,,62,0
8000,set_tempo,,,,,10,1,0,,1500000,,,,,,,
8010,note_on,,,,,15,0,1,,,,,0,,,74,44
8010,note_on,,,,,0,0,1,,,,,0,,,62,44
8010,control_change,,,,,0,0,1,,,,,0,64,0,,
8025,set_tempo,,,,,25,1,0,,1463414,,,,,,,
8040,note_on,,,,,60,0,2,,,,,0,,,54,0
8040,note_on,,,,,0,0,2,,,,,0,,,50,0
8040,note_on,,,,,0,0,1,,,,,0,,,66,49
8040,note_on,,,,,0,0,1,,,,,0,,,78,49
8040,note_on,,,,,0,0,1,,,,,0,,,74,0
8040,note_on,,,,,30,0,1,,,,,0,,,62,0
8045,set_tempo,,,,,20,1,0,,1463414,,,,,,,
8065,set_tempo,,,,,20,1,0,,1428571,,,,,,,
8070,note_on,,,,,0,0,1,,,,,0,,,78,0
8070,note_on,,,,,30,0,1,,,,,0,,,66,0
8070,note_on,,,,,0,0,1,,,,,0,,,81,53
8070,note_on,,,,,0,0,1,,,,,0,,,69,53
8095,set_tempo,,,,,30,1,0,,1428571,,,,,,,
8100,note_on,,,,,0,0,1,,,,,0,,,81,0
8100,note_on,,,,,30,0,1,,,,,0,,,69,0
8100,note_on,,,,,0,0,1,,,,,0,,,66,58
8100,control_change,,,,,0,0,1,,,,,0,64,96,,
8100,note_on,,,,,0,0,2,,,,,0,,,55,42
8100,note_on,,,,,60,0,2,,,,,0,,,57,42
8100,note_on,,,,,0,0,1,,,,,0,,,78,58
8130,set_tempo,,,,,35,1,0,,1395348,,,,,,,
8140,set_tempo,,,,,10,1,0,,1395348,,,,,,,
8190,note_on,,,,,0,0,1,,,,,0,,,64,41
8190,note_on,,,,,0,0,1,,,,,0,,,78,0
8190,note_on,,,,,90,0,1,,,,,0,,,66,0
8190,control_change,,,,,0,0,1,,,,,0,64,0,,
8190,note_on,,,,,0,0,1,,,,,0,,,76,41
8210,set_tempo,,,,,70,1,0,,1363636,,,,,,,
8215,set_tempo,,,,,5,1,0,,1363636,,,,,,,
8220,note_on,,,,,0,0,1,,,,,0,,,59,45
8220,note_on,,,,,30,0,1,,,,,0,,,64,0
8220,note_on,,,,,0,0,1,,,,,0,,,76,0
8220,note_on,,,,,0,0,1,,,,,0,,,71,45
8235,set_tempo,,,,,20,1,0,,1333333,,,,,,,
8250,note_on,,,,,30,0,1,,,,,0,,,59,0
8250,note_on,,,,,0,0,1,,,,,0,,,61,51
8250,note_on,,,,,0,0,1,,,,,0,,,73,51
8250,note_on,,,,,0,0,1,,,,,0,,,71,0
8260,set_tempo,,,,,25,1,0,,1333333,,,,,,,
8280,note_on,,,,,30,0,1,,,,,0,,,61,0
8280,note_on,,,,,0,0,1,,,,,0,,,73,0
8280,note_on,,,,,0,0,1,,,,,0,,,76,58
8280,note_on,,,,,0,0,1,,,,,0,,,64,58
8280,control_change,,,,,0,0,1,,,,,0,64,96,,
8280,note_on,,,,,180,0,2,,,,,0,,,55,0
8280,note_on,,,,,0,0,2,,,,,0,,,57,0
8280,note_on,,,,,0,0,2,,,,,0,,,54,41
8280,note_on,,,,,0,0,2,,,,,0,,,57,41
8365,control_change,,,,,85,0,1,,,,,0,64,0,,
8370,note_on,,,,,0,0,1,,,,,0,,,76,0
8370,note_on,,,,,0,0,1,,,,,0,,,62,44
8370,note_on,,,,,0,0,1,,,,,0,,,74,44
8370,note_on,,,,,5,0,1,,,,,0,,,64,0
8400,note_on,,,,,0,0,1,,,,,0,,,54,49
8400,note_on,,,,,0,0,1,,,,,0,,,66,49
8400,note_on,,,,,0,0,1,,,,,0,,,74,0
8400,note_on,,,,,30,0,1,,,,,0,,,62,0
8400,note_on,,,,,0,0,2,,,,,0,,,54,0
8400,note_on,,,,,0,0,2,,,,,0,,,50,50
8400,note_on,,,,,120,0,2,,,,,0,,,57,0
8405,set_tempo,,,,,145,1,0,,1333333,,,,,,,
8430,note_on,,,,,30,0,1,,,,,0,,,66,0
8430,set_tempo,,,,,25,1,0,,1621621,,,,,,,
8430,note_on,,,,,0,0,1,,,,,0,,,67,54
8435,note_on,,,,,5,0,1,,,,,0,,,67,0
8435,note_on,,,,,0,0,1,,,,,0,,,66,54
8440,note_on,,,,,5,0,1,,,,,0,,,66,0
8440,note_on,,,,,0,0,1,,,,,0,,,64,56
8445,note_on,,,,,0,0,1,,,,,0,,,66,56
8445,note_on,,,,,0,0,1,,,,,0,,,54,0
8445,note_on,,,,,0,0,2,,,,,0,,,52,51
8445,note_on,,,,,45,0,2,,,,,0,,,50,0
8445,note_on,,,,,0,0,1,,,,,0,,,55,56
8445,note_on,,,,,5,0,1,,,,,0,,,64,0
8452,note_on,,,,,7,0,1,,,,,0,,,66,0
8452,note_on,,,,,0,0,1,,,,,0,,,67,57
8460,note_on,,,,,0,0,2,,,,,0,,,45,51
8460,note_on,,,,,0,0,2,,,,,0,,,54,51
8460,note_on,,,,,15,0,2,,,,,0,,,52,0
8460,note_on,,,,,8,0,1,,,,,0,,,67,0
8460,set_tempo,,,,,30,1,0,,1395348,,,,,,,
8460,note_on,,,,,0,0,1,,,,,0,,,57,57
8460,note_on,,,,,0,0,1,,,,,0,,,69,57
8460,note_on,,,,,0,0,1,,,,,0,,,55,0
8490,set_tempo,,,,,30,1,0,,1395348,,,,,,,
8505,note_on,,,,,0,0,2,,,,,0,,,45,0
8505,note_on,,,,,45,0,2,,,,,0,,,54,0
8505,note_on,,,,,45,0,1,,,,,0,,,57,0
8505,note_on,,,,,0,0,1,,,,,0,,,69,0
8510,set_tempo,,,,,20,1,0,,1428571,,,,,,,
8515,set_tempo,,,,,5,1,0,,1428571,,,,,,,
8520,note_on,,,,,15,0,1,,,,,0,,,67,51
8520,note_on,,,,,0,0,2,,,,,0,,,52,45
8520,note_on,,,,,15,0,2,,,,,0,,,45,45
8520,note_on,,,,,0,0,1,,,,,0,,,55,51
8530,set_tempo,,,,,15,1,0,,1463414,,,,,,,
8545,set_tempo,,,,,15,1,0,,1463414,,,,,,,
8550,set_tempo,,,,,5,1,0,,1500000,,,,,,,
8565,set_tempo,,,,,15,1,0,,1500000,,,,,,,
8565,note_on,,,,,45,0,2,,,,,0,,,52,0
8565,note_on,,,,,0,0,2,,,,,0,,,45,0
8565,note_on,,,,,45,0,1,,,,,0,,,55,0
8565,note_on,,,,,0,0,1,,,,,0,,,67,0
8570,set_tempo,,,,,5,1,0,,1538461,,,,,,,
8580,note_on,,,,,15,0,1,,,,,0,,,64,41
8580,note_on,,,,,0,0,2,,,,,0,,,52,37
8580,note_on,,,,,15,0,2,,,,,0,,,45,37
8580,note_on,,,,,0,0,1,,,,,0,,,52,41
8585,set_tempo,,,,,15,1,0,,1538461,,,,,,,
8595,set_tempo,,,,,10,1,0,,1818181,,,,,,,
8625,note_on,,,,,0,0,1,,,,,0,,,64,0
8625,note_on,,,,,0,0,2,,,,,0,,,45,0
8625,note_on,,,,,45,0,2,,,,,0,,,52,0
8625,note_on,,,,,45,0,1,,,,,0,,,52,0
8640,note_on,,,,,15,0,2,,,,,0,,,50,87
8640,note_on,,,,,15,0,1,,,,,0,,,54,83
8640,note_on,,,,,0,0,1,,,,,0,,,62,83
8640,set_tempo,,,,,45,1,0,,1428571,,,,,,,
8640,note_on,,,,,0,0,1,,,,,0,,,74,83
8640,control_change,,,,,0,0,1,,,,,0,64,96,,
8655,set_tempo,,,,,15,1,0,,1428571,,,,,,,
8660,set_tempo,,,,,5,1,0,,1395348,,,,,,,
8665,set_tempo,,,,,5,1,0,,1395348,,,,,,,
8680,set_tempo,,,,,15,1,0,,1363636,,,,,,,
8685,set_tempo,,,,,5,1,0,,1363636,,,,,,,
8695,set_tempo,,,,,10,1,0,,1333333,,,,,,,
8700,set_tempo,,,,,5,1,0,,1333333,,,,,,,
8705,set_tempo,,,,,5,1,0,,1304347,,,,,,,
8720,set_tempo,,,,,15,1,0,,1333333,,,,,,,
8725,set_tempo,,,,,5,1,0,,1333333,,,,,,,
8725,control_change,,,,,85,0,1,,,,,0,64,0,,
8730,note_on,,,,,5,0,1,,,,,0,,,74,0
8730,note_on,,,,,0,0,1,,,,,0,,,62,0
8730,note_on,,,,,0,0,1,,,,,0,,,54,0
8730,note_on,,,,,0,0,1,,,,,0,,,52,54
8730,note_on,,,,,0,0,1,,,,,0,,,61,54
8730,note_on,,,,,0,0,1,,,,,0,,,73,54
8740,set_tempo,,,,,15,1,0,,1363636,,,,,,,
8745,set_tempo,,,,,5,1,0,,1363636,,,,,,,
8760,note_on,,,,,30,0,1,,,,,0,,,73,0
8760,note_on,,,,,0,0,1,,,,,0,,,61,0
8760,note_on,,,,,0,0,1,,,,,0,,,52,0
8760,note_on,,,,,0,0,1,,,,,0,,,54,49
8760,note_on,,,,,0,0,1,,,,,0,,,62,49
8760,note_on,,,,,0,0,1,,,,,0,,,74,49
8760,set_tempo,,,,,15,1,0,,1395348,,,,,,,
8775,set_tempo,,,,,15,1,0,,1395348,,,,,,,
8780,set_tempo,,,,,5,1,0,,1428571,,,,,,,
8790,note_on,,,,,0,0,1,,,,,0,,,59,46
8790,note_on,,,,,0,0,1,,,,,0,,,71,46
8790,note_on,,,,,0,0,1,,,,,0,,,55,46
8790,note_on,,,,,0,0,1,,,,,0,,,62,0
8790,note_on,,,,,30,0,1,,,,,0,,,74,0
8790,note_on,,,,,0,0,1,,,,,0,,,54,0
8795,set_tempo,,,,,15,1,0,,1428571,,,,,,,
8800,set_tempo,,,,,5,1,0,,1463414,,,,,,,
8810,set_tempo,,,,,10,1,0,,1463414,,,,,,,
8815,set_tempo,,,,,5,1,0,,1500000,,,,,,,
8820,note_on,,,,,0,0,1,,,,,0,,,69,43
8820,note_on,,,,,0,0,1,,,,,0,,,57,43
8820,note_on,,,,,0,0,1,,,,,0,,,55,0
8820,note_on,,,,,30,0,1,,,,,0,,,71,0
8820,note_on,,,,,0,0,1,,,,,0,,,59,0
8820,note_on,,,,,180,0,2,,,,,0,,,50,0
8820,note_on,,,,,0,0,2,,,,,0,,,54,39
8820,note_on,,,,,0,0,2,,,,,0,,,45,39
8825,set_tempo,,,,,10,1,0,,1500000,,,,,,,
8845,set_tempo,,,,,20,1,0,,1538461,,,,,,,
8855,set_tempo,,,,,10,1,0,,1538461,,,,,,,
8865,note_on,,,,,0,0,1,,,,,0,,,69,0
8865,note_on,,,,,45,0,1,,,,,0,,,57,0
8865,note_on,,,,,0,0,2,,,,,0,,,45,0
8865,note_on,,,,,45,0,2,,,,,0,,,54,0
8870,set_tempo,,,,,15,1,0,,1578947,,,,,,,
8880,note_on,,,,,15,0,2,,,,,0,,,45,37
8880,note_on,,,,,0,0,2,,,,,0,,,52,37
8880,note_on,,,,,15,0,1,,,,,0,,,67,38
8880,note_on,,,,,0,0,1,,,,,0,,,55,38
8880,set_tempo,,,,,10,1,0,,1578947,,,,,,,
8900,set_tempo,,,,,20,1,0,,1621621,,,,,,,
8925,note_on,,,,,45,0,2,,,,,0,,,52,0
8925,note_on,,,,,0,0,2,,,,,0,,,45,0
8925,note_on,,,,,45,0,1,,,,,0,,,55,0
8925,note_on,,,,,0,0,1,,,,,0,,,67,0
8940,note_on,,,,,0,0,2,,,,,0,,,52,35
8940,set_tempo,,,,,40,1,0,,1621621,,,,,,,
8940,note_on,,,,,0,0,1,,,,,0,,,52,35
8940,note_on,,,,,15,0,1,,,,,0,,,64,35
8940,note_on,,,,,15,0,2,,,,,0,,,45,35
8970,set_tempo,,,,,30,1,0,,1935483,,,,,,,
8985,note_on,,,,,45,0,2,,,,,0,,,52,0
8985,note_on,,,,,0,0,2,,,,,0,,,45,0
8985,note_on,,,,,0,0,1,,,,,0,,,64,0
8985,set_tempo,,,,,15,1,0,,2000000,,,,,,,
8985,note_on,,,,,45,0,1,,,,,0,,,52,0
8995,set_tempo,,,,,10,1,0,,1333333,,,,,,,
9000,control_change,,,,,0,0,1,,,,,0,64,96,,
9000,note_on,,,,,15,0,2,,,,,0,,,50,87
9000,note_on,,,,,0,0,2,,,,,0,,,57,87
9000,note_on,,,,,0,0,1,,,,,0,,,78,86
9000,note_on,,,,,15,0,1,,,,,0,,,62,86
9000,note_on,,,,,0,0,1,,,,,0,,,66,86
9015,set_tempo,,,,,20,1,0,,1333333,,,,,,,
9020,set_tempo,,,,,5,1,0,,1333333,,,,,,,
9025,set_tempo,,,,,5,1,0,,1363636,,,,,,,
9040,set_tempo,,,,,15,1,0,,1363636,,,,,,,
9045,set_tempo,,,,,5,1,0,,1395348,,,,,,,
9060,set_tempo,,,,,15,1,0,,1395348,,,,,,,
9085,control_change,,,,,85,0,1,,,,,0,64,0,,
9090,note_on,,,,,90,0,2,,,,,0,,,57,0
9090,note_on,,,,,0,0,2,,,,,0,,,50,0
9090,note_on,,,,,0,0,2,,,,,0,,,58,48
9090,note_on,,,,,0,0,2,,,,,0,,,54,48
9090,note_on,,,,,0,0,1,,,,,0,,,64,56
9090,note_on,,,,,0,0,1,,,,,0,,,76,56
9090,note_on,,,,,0,0,1,,,,,0,,,62,0
9090,note_on,,,,,0,0,1,,,,,0,,,66,0
9090,note_on,,,,,5,0,1,,,,,0,,,78,0
9095,set_tempo,,,,,35,1,0,,1428571,,,,,,,
9100,set_tempo,,,,,5,1,0,,1428571,,,,,,,
9110,set_tempo,,,,,10,1,0,,1463414,,,,,,,
9120,note_on,,,,,0,0,1,,,,,0,,,74,50
9120,note_on,,,,,30,0,1,,,,,0,,,76,0
9120,note_on,,,,,0,0,1,,,,,0,,,64,0
9120,note_on,,,,,0,0,1,,,,,0,,,62,50
9120,note_on,,,,,0,0,2,,,,,0,,,55,41
9120,note_on,,,,,0,0,2,,,,,0,,,59,41
9120,set_tempo,,,,,10,1,0,,1463414,,,,,,,
9120,note_on,,,,,30,0,2,,,,,0,,,54,0
9120,note_on,,,,,0,0,2,,,,,0,,,58,0
9130,set_tempo,,,,,10,1,0,,1500000,,,,,,,
9140,set_tempo,,,,,10,1,0,,1500000,,,,,,,
9150,note_on,,,,,30,0,2,,,,,0,,,59,0
9150,note_on,,,,,0,0,2,,,,,0,,,55,0
9150,note_on,,,,,0,0,2,,,,,0,,,62,36
9150,note_on,,,,,0,0,2,,,,,0,,,56,36
9150,note_on,,,,,30,0,1,,,,,0,,,74,0
9150,note_on,,,,,0,0,1,,,,,0,,,62,0
9150,note_on,,,,,0,0,1,,,,,0,,,65,47
9150,note_on,,,,,0,0,1,,,,,0,,,71,47
9155,set_tempo,,,,,15,1,0,,1538461,,,,,,,
9160,set_tempo,,,,,5,1,0,,1538461,,,,,,,
9175,set_tempo,,,,,15,1,0,,1578947,,,,,,,
9180,note_on,,,,,30,0,1,,,,,0,,,71,0
9180,note_on,,,,,0,0,1,,,,,0,,,65,0
9180,note_on,,,,,0,0,1,,,,,0,,,66,46
9180,note_on,,,,,0,0,1,,,,,0,,,69,46
9180,note_on,,,,,0,0,2,,,,,0,,,57,41
9180,note_on,,,,,0,0,2,,,,,0,,,62,41
9180,note_on,,,,,0,0,2,,,,,0,,,62,0
9180,note_on,,,,,30,0,2,,,,,0,,,56,0
9195,set_tempo,,,,,20,1,0,,1621621,,,,,,,
9215,set_tempo,,,,,20,1,0,,1621621,,,,,,,
9220,set_tempo,,,,,5,1,0,,1666666,,,,,,,
9225,note_on,,,,,0,0,1,,,,,0,,,66,0
9225,note_on,,,,,45,0,2,,,,,0,,,57,0
9225,note_on,,,,,0,0,2,,,,,0,,,62,0
9225,note_on,,,,,45,0,1,,,,,0,,,69,0
9240,note_on,,,,,0,0,1,,,,,0,,,67,41
9240,note_on,,,,,15,0,1,,,,,0,,,64,41
9240,set_tempo,,,,,20,1,0,,1666666,,,,,,,
9240,note_on,,,,,15,0,2,,,,,0,,,57,37
9240,note_on,,,,,0,0,2,,,,,0,,,45,37
9245,set_tempo,,,,,5,1,0,,1714285,,,,,,,
9260,set_tempo,,,,,15,1,0,,1714285,,,,,,,
9270,set_tempo,,,,,10,1,0,,1764705,,,,,,,
9285,note_on,,,,,0,0,1,,,,,0,,,64,0
9285,note_on,,,,,45,0,1,,,,,0,,,67,0
9285,note_on,,,,,0,0,2,,,,,0,,,57,0
9285,note_on,,,,,45,0,2,,,,,0,,,45,0
9290,set_tempo,,,,,20,1,0,,1764705,,,,,,,
9300,note_on,,,,,15,0,2,,,,,0,,,55,36
9300,note_on,,,,,15,0,1,,,,,0,,,61,37
9300,note_on,,,,,0,0,1,,,,,0,,,64,37
9300,note_on,,,,,0,0,2,,,,,0,,,45,36
9305,set_tempo,,,,,15,1,0,,1818181,,,,,,,
9310,set_tempo,,,,,5,1,0,,1818181,,,,,,,
9320,set_tempo,,,,,10,1,0,,1875000,,,,,,,
9340,set_tempo,,,,,20,1,0,,1875000,,,,,,,
9345,note_on,,,,,45,0,1,,,,,0,,,64,0
9345,note_on,,,,,0,0,2,,,,,0,,,55,0
9345,note_on,,,,,45,0,2,,,,,0,,,45,0
9345,set_tempo,,,,,5,1,0,,1935483,,,,,,,
9345,note_on,,,,,0,0,1,,,,,0,,,61,0
9350,set_tempo,,,,,5,1,0,,1935483,,,,,,,
9360,note_on,,,,,15,0,1,,,,,0,,,62,41
9360,note_on,,,,,15,0,2,,,,,0,,,50,41
9375,set_tempo,,,,,25,1,0,,1875000,,,,,,,
9435,note_on,,,,,75,0,1,,,,,0,,,62,0
9435,note_on,,,,,75,0,2,,,,,0,,,50,0
9480,set_tempo,,,,,105,1,0,,1363636,,,,,,,
9485,set_tempo,,,,,5,1,0,,1428571,,,,,,,
9505,set_tempo,,,,,20,1,0,,1428571,,,,,,,
9510,note_on,,,,,75,0,2,,,,,0,,,42,127
9510,note_on,,,,,0,0,2,,,,,0,,,54,127
9510,note_on,,,,,75,0,1,,,,,0,,,78,127
9510,control_change,,,,,0,0,1,,,,,0,64,95,,
9538,note_on,,,,,28,0,1,,,,,0,,,78,0
9538,note_on,,,,,28,0,2,,,,,0,,,54,0
9538,note_on,,,,,0,0,2,,,,,0,,,42,0
9540,note_on,,,,,2,0,2,,,,,0,,,35,127
9540,note_on,,,,,0,0,2,,,,,0,,,47,127
9540,note_on,,,,,0,0,1,,,,,0,,,83,126
9540,note_on,,,,,0,0,1,,,,,0,,,78,126
9540,note_on,,,,,0,0,1,,,,,0,,,74,126
9540,note_on,,,,,2,0,1,,,,,0,,,71,126
9585,note_on,,,,,45,0,2,,,,,0,,,47,0
9585,control_change,,,,,0,0,1,,,,,0,64,0,,
9585,note_on,,,,,0,0,1,,,,,0,,,78,0
9585,note_on,,,,,0,0,1,,,,,0,,,74,0
9585,note_on,,,,,0,0,1,,,,,0,,,71,0
9585,note_on,,,,,45,0,1,,,,,0,,,83,0
9585,note_on,,,,,0,0,2,,,,,0,,,35,0
9600,note_on,,,,,0,0,1,,,,,0,,,71,114
9600,note_on,,,,,0,0,1,,,,,0,,,66,114
9600,control_change,,,,,0,0,1,,,,,0,64,95,,
9600,note_on,,,,,0,0,2,,,,,0,,,59,113
9600,note_on,,,,,0,0,2,,,,,0,,,54,113
9600,note_on,,,,,0,0,2,,,,,0,,,50,113
9600,note_on,,,,,15,0,2,,,,,0,,,47,113
9600,note_on,,,,,15,0,1,,,,,0,,,62,114
9645,note_on,,,,,45,0,1,,,,,0,,,71,0
9645,note_on,,,,,0,0,1,,,,,0,,,66,0
9645,note_on,,,,,0,0,1,,,,,0,,,62,0
9645,note_on,,,,,0,0,2,,,,,0,,,54,0
9645,note_on,,,,,0,0,2,,,,,0,,,50,0
9645,note_on,,,,,0,0,2,,,,,0,,,47,0
9645,note_on,,,,,45,0,2,,,,,0,,,59,0
9655,set_tempo,,,,,150,1,0,,1578947,,,,,,,
9660,set_tempo,,,,,5,1,0,,1764705,,,,,,,
9660,control_change,,,,,15,0,1,,,,,0,64,0,,
9685,set_tempo,,,,,25,1,0,,1463414,,,,,,,
9690,control_change,,,,,0,0,1,,,,,0,64,95,,
9690,note_on,,,,,0,0,1,,,,,0,,,83,127
9690,note_on,,,,,0,0,1,,,,,0,,,78,127
9690,note_on,,,,,30,0,1,,,,,0,,,74,127
9690,note_on,,,,,45,0,2,,,,,0,,,47,125
9690,note_on,,,,,0,0,2,,,,,0,,,35,125
9710,set_tempo,,,,,25,1,0,,1428571,,,,,,,
9715,set_tempo,,,,,5,1,0,,1463414,,,,,,,
9715,control_change,,,,,25,0,1,,,,,0,64,0,,
9718,note_on,,,,,0,0,1,,,,,0,,,78,0
9718,note_on,,,,,3,0,1,,,,,0,,,83,0
9718,note_on,,,,,0,0,1,,,,,0,,,74,0
9718,note_on,,,,,0,0,2,,,,,0,,,47,0
9718,note_on,,,,,28,0,2,,,,,0,,,35,0
9720,note_on,,,,,2,0,2,,,,,0,,,40,127
9720,note_on,,,,,0,0,2,,,,,0,,,52,127
9720,note_on,,,,,2,0,1,,,,,0,,,76,126
9720,note_on,,,,,0,0,1,,,,,0,,,83,126
9720,note_on,,,,,0,0,1,,,,,0,,,85,126
9720,control_change,,,,,0,0,1,,,,,0,64,96,,
9720,note_on,,,,,0,0,1,,,,,0,,,79,126
9730,set_tempo,,,,,15,1,0,,1463414,,,,,,,
9740,set_tempo,,,,,10,1,0,,1500000,,,,,,,
9750,set_tempo,,,,,10,1,0,,1500000,,,,,,,
9765,note_on,,,,,0,0,1,,,,,0,,,76,0
9765,note_on,,,,,0,0,1,,,,,0,,,79,0
9765,note_on,,,,,0,0,1,,,,,0,,,83,0
9765,note_on,,,,,45,0,2,,,,,0,,,52,0
9765,note_on,,,,,0,0,2,,,,,0,,,40,0
9765,set_tempo,,,,,15,1,0,,1538461,,,,,,,
9765,control_change,,,,,0,0,1,,,,,0,64,0,,
9765,note_on,,,,,45,0,1,,,,,0,,,85,0
9780,note_on,,,,,0,0,2,,,,,0,,,61,113
9780,note_on,,,,,15,0,2,,,,,0,,,52,113
9780,note_on,,,,,0,0,2,,,,,0,,,55,113
9780,note_on,,,,,0,0,2,,,,,0,,,59,113
9780,note_on,,,,,0,0,1,,,,,0,,,71,114
9780,note_on,,,,,15,0,1,,,,,0,,,67,114
9780,note_on,,,,,0,0,1,,,,,0,,,73,114
9780,control_change,,,,,0,0,1,,,,,0,64,95,,
9825,note_on,,,,,0,0,2,,,,,0,,,59,0
9825,note_on,,,,,0,0,2,,,,,0,,,55,0
9825,note_on,,,,,0,0,2,,,,,0,,,52,0
9825,note_on,,,,,45,0,2,,,,,0,,,61,0
9825,note_on,,,,,0,0,1,,,,,0,,,67,0
9825,note_on,,,,,0,0,1,,,,,0,,,71,0
9825,note_on,,,,,45,0,1,,,,,0,,,73,0
9840,set_tempo,,,,,75,1,0,,1764705,,,,,,,
9870,note_on,,,,,45,0,1,,,,,0,,,71,116
9870,note_on,,,,,45,0,2,,,,,0,,,40,119
9870,set_tempo,,,,,30,1,0,,1463414,,,,,,,
9870,control_change,,,,,0,0,1,,,,,0,64,95,,
9870,note_on,,,,,0,0,1,,,,,0,,,73,116
9890,set_tempo,,,,,20,1,0,,1463414,,,,,,,
9895,control_change,,,,,25,0,1,,,,,0,64,0,,
9898,note_on,,,,,0,0,1,,,,,0,,,71,0
9898,note_on,,,,,3,0,1,,,,,0,,,73,0
9898,note_on,,,,,28,0,2,,,,,0,,,40,0
9900,note_on,,,,,2,0,2,,,,,0,,,30,126
9900,note_on,,,,,0,0,1,,,,,0,,,76,123
9900,note_on,,,,,0,0,1,,,,,0,,,79,123
9900,control_change,,,,,0,0,1,,,,,0,64,95,,
9900,note_on,,,,,0,0,2,,,,,0,,,42,126
9900,note_on,,,,,2,0,1,,,,,0,,,70,123
9905,set_tempo,,,,,15,1,0,,1463414,,,,,,,
9910,set_tempo,,,,,5,1,0,,1463414,,,,,,,
9927,note_on,,,,,27,0,2,,,,,0,,,42,0
9927,note_on,,,,,27,0,1,,,,,0,,,79,0
9927,note_on,,,,,0,0,1,,,,,0,,,76,0
9927,note_on,,,,,0,0,2,,,,,0,,,30,0
9927,note_on,,,,,0,0,1,,,,,0,,,70,0
9930,note_on,,,,,0,0,1,,,,,0,,,79,113
9930,note_on,,,,,0,0,1,,,,,0,,,76,113
9930,note_on,,,,,3,0,1,,,,,0,,,70,113
9930,note_on,,,,,0,0,2,,,,,0,,,42,119
9930,set_tempo,,,,,20,1,0,,1500000,,,,,,,
9930,note_on,,,,,3,0,2,,,,,0,,,30,119
9930,control_change,,,,,0,0,1,,,,,0,64,0,,
9944,note_on,,,,,14,0,1,,,,,0,,,79,0
9944,note_on,,,,,0,0,2,,,,,0,,,30,0
9944,note_on,,,,,14,0,2,,,,,0,,,42,0
9944,note_on,,,,,0,0,1,,,,,0,,,70,0
9944,note_on,,,,,0,0,1,,,,,0,,,76,0
9945,note_on,,,,,1,0,2,,,,,0,,,30,113
9945,note_on,,,,,0,0,2,,,,,0,,,42,113
9945,note_on,,,,,1,0,1,,,,,0,,,70,106
9945,note_on,,,,,0,0,1,,,,,0,,,76,106
9945,note_on,,,,,0,0,1,,,,,0,,,79,106
9955,set_tempo,,,,,25,1,0,,1463414,,,,,,,
9959,note_on,,,,,14,0,2,,,,,0,,,42,0
9959,note_on,,,,,0,0,2,,,,,0,,,30,0
9959,note_on,,,,,0,0,1,,,,,0,,,70,0
9959,note_on,,,,,0,0,1,,,,,0,,,76,0
9959,note_on,,,,,14,0,1,,,,,0,,,79,0
9960,control_change,,,,,0,0,1,,,,,0,64,96,,
9960,note_on,,,,,0,0,2,,,,,0,,,44,125
9960,note_on,,,,,1,0,2,,,,,0,,,32,125
9960,note_on,,,,,0,0,1,,,,,0,,,78,124
9960,note_on,,,,,0,0,1,,,,,0,,,74,124
9960,note_on,,,,,1,0,1,,,,,0,,,71,124
9987,note_on,,,,,0,0,1,,,,,0,,,74,0
9987,note_on,,,,,0,0,1,,,,,0,,,71,0
9987,note_on,,,,,27,0,1,,,,,0,,,78,0
9987,note_on,,,,,0,0,2,,,,,0,,,32,0
9987,note_on,,,,,27,0,2,,,,,0,,,44,0
9990,control_change,,,,,0,0,1,,,,,0,64,0,,
9990,note_on,,,,,3,0,1,,,,,0,,,78,113
9990,note_on,,,,,0,0,1,,,,,0,,,71,113
9990,note_on,,,,,0,0,1,,,,,0,,,74,113
9990,set_tempo,,,,,35,1,0,,1538461,,,,,,,
9990,note_on,,,,,3,0,2,,,,,0,,,32,118
9990,note_on,,,,,0,0,2,,,,,0,,,44,118
10004,note_on,,,,,0,0,1,,,,,0,,,78,0
10004,note_on,,,,,0,0,1,,,,,0,,,71,0
10004,note_on,,,,,14,0,1,,,,,0,,,74,0
10004,note_on,,,,,14,0,2,,,,,0,,,44,0
10004,note_on,,,,,0,0,2,,,,,0,,,32,0
10005,note_on,,,,,1,0,1,,,,,0,,,71,106
10005,note_on,,,,,0,0,1,,,,,0,,,78,106
10005,note_on,,,,,0,0,2,,,,,0,,,44,111
10005,note_on,,,,,1,0,2,,,,,0,,,32,111
10005,note_on,,,,,0,0,1,,,,,0,,,74,106
10015,set_tempo,,,,,25,1,0,,1463414,,,,,,,
10019,note_on,,,,,14,0,1,,,,,0,,,78,0
10019,note_on,,,,,0,0,1,,,,,0,,,74,0
10019,note_on,,,,,0,0,1,,,,,0,,,71,0
10019,note_on,,,,,0,0,2,,,,,0,,,32,0
10019,note_on,,,,,14,0,2,,,,,0,,,44,0
10020,note_on,,,,,1,0,2,,,,,0,,,34,124
10020,note_on,,,,,1,0,1,,,,,0,,,66,123
10020,note_on,,,,,0,0,1,,,,,0,,,73,123
10020,note_on,,,,,0,0,2,,,,,0,,,46,124
10020,note_on,,,,,0,0,1,,,,,0,,,76,123
10020,control_change,,,,,0,0,1,,,,,0,64,95,,
10047,note_on,,,,,27,0,2,,,,,0,,,46,0
10047,note_on,,,,,0,0,1,,,,,0,,,73,0
10047,note_on,,,,,0,0,1,,,,,0,,,66,0
10047,note_on,,,,,0,0,2,,,,,0,,,34,0
10047,note_on,,,,,27,0,1,,,,,0,,,76,0
10050,note_on,,,,,0,0,1,,,,,0,,,76,120
10050,note_on,,,,,0,0,2,,,,,0,,,46,116
10050,note_on,,,,,3,0,2,,,,,0,,,34,116
10050,set_tempo,,,,,35,1,0,,1538461,,,,,,,
10050,note_on,,,,,0,0,1,,,,,0,,,73,120
10050,control_change,,,,,0,0,1,,,,,0,64,0,,
10050,note_on,,,,,3,0,1,,,,,0,,,66,120
10064,note_on,,,,,14,0,1,,,,,0,,,76,0
10064,note_on,,,,,0,0,2,,,,,0,,,34,0
10064,note_on,,,,,14,0,2,,,,,0,,,46,0
10064,note_on,,,,,0,0,1,,,,,0,,,73,0
10064,note_on,,,,,0,0,1,,,,,0,,,66,0
10065,note_on,,,,,0,0,1,,,,,0,,,76,126
10065,note_on,,,,,1,0,2,,,,,0,,,34,123
10065,note_on,,,,,1,0,1,,,,,0,,,66,126
10065,note_on,,,,,0,0,2,,,,,0,,,46,123
10065,note_on,,,,,0,0,1,,,,,0,,,73,126
10079,note_on,,,,,0,0,2,,,,,0,,,34,0
10079,note_on,,,,,14,0,2,,,,,0,,,46,0
10079,note_on,,,,,14,0,1,,,,,0,,,76,0
10079,note_on,,,,,0,0,1,,,,,0,,,73,0
10079,note_on,,,,,0,0,1,,,,,0,,,66,0
10080,note_on,,,,,1,0,2,,,,,0,,,35,127
10080,note_on,,,,,0,0,1,,,,,0,,,76,127
10080,note_on,,,,,0,0,1,,,,,0,,,73,127
10080,note_on,,,,,0,0,2,,,,,0,,,47,127
10080,control_change,,,,,0,0,1,,,,,0,64,95,,
10080,note_on,,,,,1,0,1,,,,,0,,,66,127
10085,set_tempo,,,,,35,1,0,,1500000,,,,,,,
10090,set_tempo,,,,,5,1,0,,1500000,,,,,,,
10095,note_on,,,,,0,0,1,,,,,0,,,74,118
10095,note_on,,,,,15,0,1,,,,,0,,,76,0
10095,note_on,,,,,0,0,1,,,,,0,,,71,118
10095,note_on,,,,,0,0,1,,,,,0,,,73,0
10095,set_tempo,,,,,5,1,0,,1538461,,,,,,,
10100,set_tempo,,,,,5,1,0,,1621621,,,,,,,
10105,set_tempo,,,,,5,1,0,,1621621,,,,,,,
10110,note_on,,,,,0,0,1,,,,,0,,,73,110
10110,set_tempo,,,,,5,1,0,,1621621,,,,,,,
10110,control_change,,,,,0,0,1,,,,,0,64,0,,
10110,note_on,,,,,0,0,1,,,,,0,,,71,0
10110,note_on,,,,,15,0,1,,,,,0,,,74,0
10110,note_on,,,,,0,0,2,,,,,0,,,35,0
10110,note_on,,,,,30,0,2,,,,,0,,,47,0
10110,note_on,,,,,0,0,1,,,,,0,,,70,110
10115,set_tempo,,,,,5,1,0,,1666666,,,,,,,
10120,set_tempo,,,,,5,1,0,,1666666,,,,,,,
10125,note_on,,,,,0,0,2,,,,,0,,,50,109
10125,note_on,,,,,15,0,2,,,,,0,,,38,109
10125,set_tempo,,,,,5,1,0,,1714285,,,,,,,
10125,note_on,,,,,0,0,1,,,,,0,,,71,106
10125,note_on,,,,,0,0,1,,,,,0,,,70,0
10125,note_on,,,,,15,0,1,,,,,0,,,73,0
10125,note_on,,,,,0,0,1,,,,,0,,,74,106
10130,set_tempo,,,,,5,1,0,,1764705,,,,,,,
10135,set_tempo,,,,,5,1,0,,1764705,,,,,,,
10140,set_tempo,,,,,5,1,0,,1764705,,,,,,,
10140,control_change,,,,,0,0,1,,,,,0,64,96,,
10140,note_on,,,,,15,0,2,,,,,0,,,50,0
10140,note_on,,,,,0,0,1,,,,,0,,,70,100
10140,note_on,,,,,0,0,1,,,,,0,,,66,100
10140,note_on,,,,,0,0,1,,,,,0,,,66,0
10140,note_on,,,,,0,0,1,,,,,0,,,71,0
10140,note_on,,,,,15,0,1,,,,,0,,,74,0
10140,note_on,,,,,0,0,2,,,,,0,,,38,0
10140,note_on,,,,,0,0,2,,,,,0,,,42,99
10140,note_on,,,,,0,0,2,,,,,0,,,54,99
10140,note_on,,,,,0,0,1,,,,,0,,,73,100
10145,set_tempo,,,,,5,1,0,,1764705,,,,,,,
10170,control_change,,,,,30,0,1,,,,,0,64,0,,
10190,set_tempo,,,,,45,1,0,,1428571,,,,,,,
10200,note_on,,,,,0,0,2,,,,,0,,,42,0
10200,note_on,,,,,60,0,2,,,,,0,,,54,0
10200,note_on,,,,,30,0,1,,,,,0,,,73,0
10200,note_on,,,,,0,0,1,,,,,0,,,70,0
10200,control_change,,,,,0,0,1,,,,,0,64,95,,
10200,note_on,,,,,0,0,1,,,,,0,,,66,0
10230,control_change,,,,,0,0,1,,,,,0,64,0,,
10230,note_on,,,,,30,0,1,,,,,0,,,85,118
10260,note_on,,,,,60,0,2,,,,,0,,,35,120
10260,note_on,,,,,0,0,1,,,,,0,,,86,119
10260,note_on,,,,,30,0,1,,,,,0,,,85,0
10260,control_change,,,,,0,0,1,,,,,0,64,96,,
10260,note_on,,,,,0,0,2,,,,,0,,,47,120
10270,set_tempo,,,,,80,1,0,,1428571,,,,,,,
10275,note_on,,,,,0,0,1,,,,,0,,,80,114
10275,note_on,,,,,15,0,1,,,,,0,,,86,0
10286,note_on,,,,,11,0,1,,,,,0,,,80,0
10290,note_on,,,,,4,0,1,,,,,0,,,83,106
10305,note_on,,,,,15,0,1,,,,,0,,,83,0
10305,note_on,,,,,0,0,1,,,,,0,,,77,99
10305,note_on,,,,,0,0,2,,,,,0,,,35,0
10305,note_on,,,,,45,0,2,,,,,0,,,47,0
10315,control_change,,,,,10,0,1,,,,,0,64,0,,
10316,note_on,,,,,1,0,1,,,,,0,,,77,0
10320,set_tempo,,,,,50,1,0,,1463414,,,,,,,
10320,note_on,,,,,0,0,2,,,,,0,,,56,109
10320,note_on,,,,,15,0,2,,,,,0,,,62,109
10320,note_on,,,,,4,0,1,,,,,0,,,80,94
10320,control_change,,,,,0,0,1,,,,,0,64,95,,
10320,note_on,,,,,0,0,2,,,,,0,,,59,109
10325,set_tempo,,,,,5,1,0,,1463414,,,,,,,
10330,set_tempo,,,,,5,1,0,,1500000,,,,,,,
10335,note_on,,,,,0,0,1,,,,,0,,,74,91
10335,note_on,,,,,15,0,1,,,,,0,,,80,0
10335,set_tempo,,,,,5,1,0,,1500000,,,,,,,
10340,set_tempo,,,,,5,1,0,,1500000,,,,,,,
10345,set_tempo,,,,,5,1,0,,1500000,,,,,,,
10346,note_on,,,,,11,0,1,,,,,0,,,74,0
10350,note_on,,,,,4,0,1,,,,,0,,,77,83
10350,set_tempo,,,,,5,1,0,,1538461,,,,,,,
10360,set_tempo,,,,,10,1,0,,1538461,,,,,,,
10365,note_on,,,,,0,0,2,,,,,0,,,62,0
10365,note_on,,,,,0,0,1,,,,,0,,,71,74
10365,note_on,,,,,15,0,1,,,,,0,,,77,0
10365,note_on,,,,,0,0,2,,,,,0,,,59,0
10365,note_on,,,,,45,0,2,,,,,0,,,56,0
10365,set_tempo,,,,,5,1,0,,1538461,,,,,,,
10370,set_tempo,,,,,5,1,0,,1578947,,,,,,,
10375,control_change,,,,,10,0,1,,,,,0,64,0,,
10376,note_on,,,,,1,0,1,,,,,0,,,71,0
10380,note_on,,,,,4,0,1,,,,,0,,,74,70
10380,set_tempo,,,,,10,1,0,,1578947,,,,,,,
10390,set_tempo,,,,,10,1,0,,1621621,,,,,,,
10395,set_tempo,,,,,5,1,0,,1621621,,,,,,,
10395,note_on,,,,,15,0,1,,,,,0,,,74,0
10395,note_on,,,,,0,0,1,,,,,0,,,68,70
10405,set_tempo,,,,,10,1,0,,1666666,,,,,,,
10406,note_on,,,,,11,0,1,,,,,0,,,68,0
10410,set_tempo,,,,,5,1,0,,1714285,,,,,,,
10410,note_on,,,,,4,0,1,,,,,0,,,71,68
10415,set_tempo,,,,,5,1,0,,1714285,,,,,,,
10420,set_tempo,,,,,5,1,0,,1714285,,,,,,,
10425,note_on,,,,,0,0,1,,,,,0,,,65,66
10425,note_on,,,,,15,0,1,,,,,0,,,71,0
10430,set_tempo,,,,,10,1,0,,1714285,,,,,,,
10436,note_on,,,,,11,0,1,,,,,0,,,65,0
10440,set_tempo,,,,,10,1,0,,1428571,,,,,,,
10440,control_change,,,,,0,0,1,,,,,0,64,96,,
10440,note_on,,,,,4,0,1,,,,,0,,,85,119
10440,note_on,,,,,75,0,2,,,,,0,,,45,120
10440,note_on,,,,,0,0,2,,,,,0,,,33,120
10450,set_tempo,,,,,10,1,0,,1428571,,,,,,,
10455,note_on,,,,,0,0,1,,,,,0,,,78,114
10455,note_on,,,,,15,0,1,,,,,0,,,85,0
10466,note_on,,,,,11,0,1,,,,,0,,,78,0
10470,note_on,,,,,4,0,1,,,,,0,,,81,106
10485,note_on,,,,,45,0,2,,,,,0,,,33,0
10485,note_on,,,,,0,0,2,,,,,0,,,45,0
10485,note_on,,,,,0,0,1,,,,,0,,,73,99
10485,note_on,,,,,15,0,1,,,,,0,,,81,0
10495,control_change,,,,,10,0,1,,,,,0,64,0,,
10496,note_on,,,,,1,0,1,,,,,0,,,73,0
10500,note_on,,,,,4,0,1,,,,,0,,,61,109
10500,note_on,,,,,0,0,1,,,,,0,,,57,109
10500,note_on,,,,,0,0,1,,,,,0,,,78,94
10500,control_change,,,,,0,0,1,,,,,0,64,95,,
10500,note_on,,,,,15,0,2,,,,,0,,,54,109
10500,set_tempo,,,,,50,1,0,,1463414,,,,,,,
10505,set_tempo,,,,,5,1,0,,1463414,,,,,,,
10510,set_tempo,,,,,5,1,0,,1500000,,,,,,,
10515,note_on,,,,,0,0,1,,,,,0,,,69,91
10515,note_on,,,,,15,0,1,,,,,0,,,78,0
10515,set_tempo,,,,,5,1,0,,1500000,,,,,,,
10520,set_tempo,,,,,5,1,0,,1500000,,,,,,,
10525,set_tempo,,,,,5,1,0,,1500000,,,,,,,
10526,note_on,,,,,11,0,1,,,,,0,,,69,0
10530,note_on,,,,,4,0,1,,,,,0,,,73,83
10530,set_tempo,,,,,5,1,0,,1538461,,,,,,,
10540,set_tempo,,,,,10,1,0,,1538461,,,,,,,
10545,note_on,,,,,0,0,1,,,,,0,,,61,0
10545,note_on,,,,,0,0,1,,,,,0,,,57,0
10545,note_on,,,,,0,0,1,,,,,0,,,66,74
10545,note_on,,,,,15,0,1,,,,,0,,,73,0
10545,note_on,,,,,45,0,2,,,,,0,,,54,0
10550,set_tempo,,,,,10,1,0,,1538461,,,,,,,
10555,control_change,,,,,10,0,1,,,,,0,64,0,,
10555,set_tempo,,,,,5,1,0,,1500000,,,,,,,
10556,note_on,,,,,1,0,1,,,,,0,,,66,0
10560,note_on,,,,,4,0,1,,,,,0,,,69,70
10560,set_tempo,,,,,5,1,0,,1500000,,,,,,,
10565,set_tempo,,,,,5,1,0,,1500000,,,,,,,
10570,set_tempo,,,,,5,1,0,,1500000,,,,,,,
10575,note_on,,,,,0,0,1,,,,,0,,,61,70
10575,note_on,,,,,15,0,1,,,,,0,,,69,0
10575,set_tempo,,,,,5,1,0,,1463414,,,,,,,
10580,set_tempo,,,,,5,1,0,,1463414,,,,,,,
10586,note_on,,,,,11,0,1,,,,,0,,,61,0
10590,note_on,,,,,4,0,1,,,,,0,,,66,68
10590,set_tempo,,,,,10,1,0,,1463414,,,,,,,
10595,set_tempo,,,,,5,1,0,,1463414,,,,,,,
10600,set_tempo,,,,,5,1,0,,1463414,,,,,,,
10605,note_on,,,,,0,0,1,,,,,0,,,57,66
10605,note_on,,,,,15,0,1,,,,,0,,,66,0
10610,set_tempo,,,,,10,1,0,,1463414,,,,,,,
10615,set_tempo,,,,,5,1,0,,1428571,,,,,,,
10616,note_on,,,,,11,0,1,,,,,0,,,57,0
10620,note_on,,,,,4,0,1,,,,,0,,,78,119
10620,control_change,,,,,0,0,1,,,,,0,64,96,,
10620,note_on,,,,,0,0,1,,,,,0,,,66,119
10620,control_change,,,,,0,0,1,,,,,0,64,96,,
10635,note_on,,,,,0,0,1,,,,,0,,,78,0
10635,note_on,,,,,0,0,1,,,,,0,,,71,114
10635,note_on,,,,,0,0,1,,,,,0,,,59,114
10635,note_on,,,,,15,0,1,,,,,0,,,66,0
10646,note_on,,,,,11,0,1,,,,,0,,,59,0
10646,note_on,,,,,0,0,1,,,,,0,,,71,0
10650,note_on,,,,,4,0,1,,,,,0,,,74,106
10650,note_on,,,,,0,0,1,,,,,0,,,62,106
10665,note_on,,,,,15,0,1,,,,,0,,,62,0
10665,note_on,,,,,0,0,1,,,,,0,,,74,0
10665,note_on,,,,,0,0,1,,,,,0,,,68,99
10665,note_on,,,,,0,0,1,,,,,0,,,56,99
10675,control_change,,,,,0,0,1,,,,,0,64,0,,
10675,control_change,,,,,10,0,1,,,,,0,64,0,,
10676,note_on,,,,,1,0,1,,,,,0,,,56,0
10676,note_on,,,,,0,0,1,,,,,0,,,68,0
10680,control_change,,,,,0,0,1,,,,,0,64,95,,
10680,control_change,,,,,0,0,1,,,,,0,64,95,,
10680,note_on,,,,,0,0,1,,,,,0,,,59,94
10680,note_on,,,,,4,0,1,,,,,0,,,71,94
10695,note_on,,,,,15,0,1,,,,,0,,,59,0
10695,note_on,,,,,0,0,1,,,,,0,,,71,0
10695,note_on,,,,,0,0,1,,,,,0,,,66,91
10695,note_on,,,,,0,0,1,,,,,0,,,54,91
10706,note_on,,,,,11,0,1,,,,,0,,,54,0
10706,note_on,,,,,0,0,1,,,,,0,,,66,0
10710,note_on,,,,,4,0,1,,,,,0,,,68,83
10710,note_on,,,,,0,0,1,,,,,0,,,56,83
10725,note_on,,,,,15,0,1,,,,,0,,,56,0
10725,note_on,,,,,0,0,1,,,,,0,,,62,80
10725,note_on,,,,,0,0,1,,,,,0,,,68,0
10725,note_on,,,,,0,0,1,,,,,0,,,50,80
10735,control_change,,,,,10,0,1,,,,,0,64,0,,
10736,note_on,,,,,0,0,1,,,,,0,,,62,0
10736,note_on,,,,,1,0,1,,,,,0,,,50,0
10740,note_on,,,,,0,0,1,,,,,0,,,54,82
10740,note_on,,,,,4,0,1,,,,,0,,,66,82
10755,note_on,,,,,15,0,1,,,,,0,,,54,0
10755,note_on,,,,,0,0,1,,,,,0,,,66,0
10755,note_on,,,,,0,0,1,,,,,0,,,59,87
10755,note_on,,,,,0,0,1,,,,,0,,,47,87
10766,note_on,,,,,11,0,1,,,,,0,,,47,0
10766,note_on,,,,,0,0,1,,,,,0,,,59,0
10770,note_on,,,,,0,0,1,,,,,0,,,50,93
10770,note_on,,,,,4,0,1,,,,,0,,,62,93
10785,note_on,,,,,15,0,1,,,,,0,,,50,0
10785,note_on,,,,,0,0,1,,,,,0,,,62,0
10785,note_on,,,,,0,0,1,,,,,0,,,56,99
10785,note_on,,,,,0,0,1,,,,,0,,,44,99
10795,note_on,,,,,0,0,1,,,,,0,,,59,99
10795,note_on,,,,,0,0,1,,,,,0,,,56,0
10795,note_on,,,,,0,0,1,,,,,0,,,47,99
10795,note_on,,,,,10,0,1,,,,,0,,,44,0
10800,note_on,,,,,0,0,1,,,,,0,,,57,102
10800,control_change,,,,,0,0,1,,,,,0,64,95,,
10800,note_on,,,,,0,0,1,,,,,0,,,59,0
10800,note_on,,,,,0,0,1,,,,,0,,,45,102
10800,note_on,,,,,5,0,1,,,,,0,,,47,0
10806,note_on,,,,,6,0,1,,,,,0,,,45,0
10806,note_on,,,,,0,0,1,,,,,0,,,57,0
10806,note_on,,,,,0,0,1,,,,,0,,,59,104
10806,note_on,,,,,0,0,1,,,,,0,,,47,104
10812,note_on,,,,,6,0,1,,,,,0,,,47,0
10812,note_on,,,,,0,0,1,,,,,0,,,59,0
10812,note_on,,,,,0,0,1,,,,,0,,,57,106
10812,note_on,,,,,0,0,1,,,,,0,,,45,106
10818,note_on,,,,,0,0,1,,,,,0,,,57,0
10818,note_on,,,,,0,0,1,,,,,0,,,59,108
10818,note_on,,,,,0,0,1,,,,,0,,,47,108
10818,note_on,,,,,6,0,1,,,,,0,,,45,0
10824,note_on,,,,,6,0,1,,,,,0,,,47,0
10824,note_on,,,,,0,0,1,,,,,0,,,59,0
10824,note_on,,,,,0,0,1,,,,,0,,,57,110
10824,note_on,,,,,0,0,1,,,,,0,,,45,110
10830,note_on,,,,,0,0,1,,,,,0,,,59,114
10830,note_on,,,,,0,0,1,,,,,0,,,47,114
10830,note_on,,,,,6,0,1,,,,,0,,,45,0
10830,note_on,,,,,0,0,1,,,,,0,,,57,0
10836,note_on,,,,,6,0,1,,,,,0,,,47,0
10836,note_on,,,,,0,0,1,,,,,0,,,59,0
10836,note_on,,,,,0,0,1,,,,,0,,,57,117
10836,note_on,,,,,0,0,1,,,,,0,,,45,117
10842,note_on,,,,,6,0,1,,,,,0,,,45,0
10842,note_on,,,,,0,0,1,,,,,0,,,57,0
10842,note_on,,,,,0,0,1,,,,,0,,,56,119
10842,note_on,,,,,0,0,1,,,,,0,,,44,119
10848,note_on,,,,,6,0,1,,,,,0,,,44,0
10848,note_on,,,,,0,0,1,,,,,0,,,56,0
10848,note_on,,,,,0,0,1,,,,,0,,,57,123
10848,note_on,,,,,0,0,1,,,,,0,,,45,123
10854,note_on,,,,,0,0,1,,,,,0,,,47,124
10854,note_on,,,,,0,0,1,,,,,0,,,59,124
10854,note_on,,,,,0,0,1,,,,,0,,,57,0
10854,note_on,,,,,6,0,1,,,,,0,,,45,0
10860,note_on,,,,,6,0,1,,,,,0,,,47,0
10860,note_on,,,,,0,0,1,,,,,0,,,59,0
10860,note_on,,,,,0,0,1,,,,,0,,,61,127
10860,note_on,,,,,0,0,1,,,,,0,,,49,127
10890,control_change,,,,,30,0,1,,,,,0,64,0,,
10905,note_on,,,,,0,0,1,,,,,0,,,61,0
10905,note_on,,,,,15,0,1,,,,,0,,,49,0
10920,note_on,,,,,15,0,1,,,,,0,,,68,125
10920,note_on,,,,,0,0,1,,,,,0,,,65,125
10920,note_on,,,,,0,0,1,,,,,0,,,73,125
10920,control_change,,,,,0,0,1,,,,,0,64,95,,
10920,note_on,,,,,0,0,1,,,,,0,,,37,126
10920,note_on,,,,,0,0,1,,,,,0,,,49,126
10920,note_on,,,,,0,0,1,,,,,0,,,77,125
10972,note_on,,,,,0,0,1,,,,,0,,,65,0
10972,note_on,,,,,0,0,1,,,,,0,,,77,0
10972,note_on,,,,,0,0,1,,,,,0,,,49,0
10972,note_on,,,,,0,0,1,,,,,0,,,73,0
10972,note_on,,,,,52,0,1,,,,,0,,,37,0
10972,note_on,,,,,0,0,1,,,,,0,,,68,0
10975,control_change,,,,,3,0,1,,,,,0,64,0,,
10980,note_on,,,,,0,0,1,,,,,0,,,42,127
10980,note_on,,,,,5,0,1,,,,,0,,,69,127
10980,note_on,,,,,0,0,1,,,,,0,,,66,127
10980,note_on,,,,,0,0,1,,,,,0,,,73,127
10980,note_on,,,,,0,0,1,,,,,0,,,78,127
10980,control_change,,,,,0,0,1,,,,,0,64,96,,
10980,note_on,,,,,0,0,1,,,,,0,,,30,127
11025,note_on,,,,,0,0,1,,,,,0,,,66,0
11025,note_on,,,,,0,0,1,,,,,0,,,69,0
11025,note_on,,,,,0,0,1,,,,,0,,,30,0
11025,note_on,,,,,0,0,1,,,,,0,,,78,0
11025,note_on,,,,,45,0,1,,,,,0,,,42,0
11025,note_on,,,,,0,0,1,,,,,0,,,73,0
11035,control_change,,,,,10,0,1,,,,,0,64,0,,
11040,note_on,,,,,5,0,1,,,,,0,,,66,104
11040,control_change,,,,,0,0,1,,,,,0,64,95,,
11040,note_on,,,,,0,0,1,,,,,0,,,42,104
11085,note_on,,,,,0,0,1,,,,,0,,,66,0
11085,note_on,,,,,45,0,1,,,,,0,,,42,0
11095,control_change,,,,,10,0,1,,,,,0,64,0,,
11130,note_on,,,,,35,0,1,,,,,0,,,73,51
11130,note_on,,,,,0,0,1,,,,,0,,,85,51
11145,set_tempo,,,,,530,1,0,,1666666,,,,,,,
11150,set_tempo,,,,,5,1,0,,1666666,,,,,,,
11155,set_tempo,,,,,5,1,0,,1666666,,,,,,,
11159,control_change,,,,,29,0,1,,,,,0,64,0,,
11160,note_on,,,,,0,0,1,,,,,0,,,86,62
11160,note_on,,,,,615,0,2,,,,,0,,,47,32
11160,control_change,,,,,0,0,1,,,,,0,64,95,,
11160,note_on,,,,,1,0,1,,,,,0,,,85,0
11160,note_on,,,,,0,0,1,,,,,0,,,73,0
11160,note_on,,,,,0,0,1,,,,,0,,,74,62
11165,set_tempo,,,,,10,1,0,,1666666,,,,,,,
11170,set_tempo,,,,,5,1,0,,1621621,,,,,,,
11175,note_on,,,,,0,0,2,,,,,0,,,50,36
11175,note_on,,,,,15,0,2,,,,,0,,,47,0
11180,set_tempo,,,,,10,1,0,,1621621,,,,,,,
11185,set_tempo,,,,,5,1,0,,1621621,,,,,,,
11190,note_on,,,,,0,0,2,,,,,0,,,55,38
11190,note_on,,,,,15,0,2,,,,,0,,,50,0
11195,set_tempo,,,,,10,1,0,,1621621,,,,,,,
11200,set_tempo,,,,,5,1,0,,1621621,,,,,,,
11205,set_tempo,,,,,5,1,0,,1621621,,,,,,,
11205,note_on,,,,,0,0,2,,,,,0,,,50,41
11205,note_on,,,,,15,0,2,,,,,0,,,55,0
11215,set_tempo,,,,,10,1,0,,1621621,,,,,,,
11220,note_on,,,,,60,0,1,,,,,0,,,86,0
11220,note_on,,,,,15,0,2,,,,,0,,,50,0
11220,note_on,,,,,0,0,2,,,,,0,,,47,43
11220,note_on,,,,,0,0,1,,,,,0,,,79,49
11220,note_on,,,,,0,0,1,,,,,0,,,74,0
11220,note_on,,,,,0,0,1,,,,,0,,,67,49
11225,set_tempo,,,,,10,1,0,,1578947,,,,,,,
11235,set_tempo,,,,,10,1,0,,1578947,,,,,,,
11235,note_on,,,,,0,0,2,,,,,0,,,50,44
11235,note_on,,,,,15,0,2,,,,,0,,,47,0
11245,set_tempo,,,,,10,1,0,,1578947,,,,,,,
11250,set_tempo,,,,,5,1,0,,1578947,,,,,,,
11250,note_on,,,,,0,0,2,,,,,0,,,55,45
11250,note_on,,,,,15,0,2,,,,,0,,,50,0
11250,note_on,,,,,30,0,1,,,,,0,,,79,0
11250,note_on,,,,,0,0,1,,,,,0,,,67,0
11265,set_tempo,,,,,15,1,0,,1578947,,,,,,,
11265,note_on,,,,,0,0,2,,,,,0,,,50,46
11265,note_on,,,,,15,0,2,,,,,0,,,55,0
11270,set_tempo,,,,,5,1,0,,1578947,,,,,,,
11275,set_tempo,,,,,5,1,0,,1538461,,,,,,,
11280,note_on,,,,,0,0,2,,,,,0,,,47,47
11280,note_on,,,,,15,0,2,,,,,0,,,50,0
11285,set_tempo,,,,,10,1,0,,1538461,,,,,,,
11290,set_tempo,,,,,5,1,0,,1578947,,,,,,,
11295,note_on,,,,,15,0,2,,,,,0,,,47,0
11295,note_on,,,,,0,0,2,,,,,0,,,50,45
11305,set_tempo,,,,,15,1,0,,1578947,,,,,,,
11310,note_on,,,,,15,0,2,,,,,0,,,50,0
11310,note_on,,,,,0,0,2,,,,,0,,,55,43
11310,note_on,,,,,60,0,1,,,,,0,,,74,53
11310,note_on,,,,,0,0,1,,,,,0,,,86,53
11315,set_tempo,,,,,10,1,0,,1578947,,,,,,,
11320,set_tempo,,,,,5,1,0,,1578947,,,,,,,
11325,note_on,,,,,15,0,2,,,,,0,,,55,0
11325,set_tempo,,,,,5,1,0,,1621621,,,,,,,
11325,note_on,,,,,0,0,2,,,,,0,,,50,40
11330,set_tempo,,,,,5,1,0,,1621621,,,,,,,
11335,set_tempo,,,,,5,1,0,,1621621,,,,,,,
11339,control_change,,,,,29,0,1,,,,,0,64,0,,
11340,note_on,,,,,0,0,2,,,,,0,,,45,39
11340,note_on,,,,,15,0,2,,,,,0,,,50,0
11340,control_change,,,,,0,0,1,,,,,0,64,95,,
11340,note_on,,,,,0,0,1,,,,,0,,,85,62
11340,note_on,,,,,0,0,1,,,,,0,,,73,62
11340,note_on,,,,,0,0,1,,,,,0,,,74,0
11340,note_on,,,,,1,0,1,,,,,0,,,86,0
11350,set_tempo,,,,,15,1,0,,1578947,,,,,,,
11355,note_on,,,,,15,0,2,,,,,0,,,45,0
11355,note_on,,,,,0,0,2,,,,,0,,,49,40
11360,set_tempo,,,,,10,1,0,,1578947,,,,,,,
11370,note_on,,,,,15,0,2,,,,,0,,,49,0
11370,note_on,,,,,0,0,2,,,,,0,,,54,43
11375,set_tempo,,,,,15,1,0,,1578947,,,,,,,
11380,set_tempo,,,,,5,1,0,,1578947,,,,,,,
11385,note_on,,,,,15,0,2,,,,,0,,,54,0
11385,note_on,,,,,0,0,2,,,,,0,,,49,43
11390,set_tempo,,,,,10,1,0,,1578947,,,,,,,
11400,note_on,,,,,60,0,1,,,,,0,,,85,0
11400,note_on,,,,,0,0,1,,,,,0,,,66,49
11400,note_on,,,,,0,0,1,,,,,0,,,73,0
11400,note_on,,,,,0,0,1,,,,,0,,,78,49
11400,note_on,,,,,0,0,2,,,,,0,,,45,45
11400,note_on,,,,,15,0,2,,,,,0,,,49,0
11405,set_tempo,,,,,15,1,0,,1578947,,,,,,,
11415,note_on,,,,,0,0,2,,,,,0,,,49,45
11415,set_tempo,,,,,10,1,0,,1578947,,,,,,,
11415,note_on,,,,,15,0,2,,,,,0,,,45,0
11430,note_on,,,,,0,0,2,,,,,0,,,54,45
11430,note_on,,,,,30,0,1,,,,,0,,,78,0
11430,note_on,,,,,0,0,1,,,,,0,,,66,0
11430,note_on,,,,,15,0,2,,,,,0,,,49,0
11445,note_on,,,,,0,0,2,,,,,0,,,49,45
11445,set_tempo,,,,,30,1,0,,1578947,,,,,,,
11445,note_on,,,,,15,0,2,,,,,0,,,54,0
11460,control_change,,,,,30,0,1,,,,,0,64,0,,
11460,note_on,,,,,15,0,2,,,,,0,,,49,0
11460,note_on,,,,,0,0,2,,,,,0,,,45,41
11475,note_on,,,,,15,0,2,,,,,0,,,45,0
11475,note_on,,,,,0,0,2,,,,,0,,,49,39
11480,set_tempo,,,,,35,1,0,,1578947,,,,,,,
11485,set_tempo,,,,,5,1,0,,1578947,,,,,,,
11490,note_on,,,,,30,0,1,,,,,0,,,78,55
11490,note_on,,,,,0,0,2,,,,,0,,,54,36
11490,set_tempo,,,,,5,1,0,,1578947,,,,,,,
11490,note_on,,,,,0,0,1,,,,,0,,,66,55
11490,note_on,,,,,15,0,2,,,,,0,,,49,0
11495,set_tempo,,,,,5,1,0,,1578947,,,,,,,
11500,set_tempo,,,,,5,1,0,,1578947,,,,,,,
11505,set_tempo,,,,,5,1,0,,1621621,,,,,,,
11505,note_on,,,,,15,0,2,,,,,0,,,54,0
11505,note_on,,,,,0,0,2,,,,,0,,,49,39
11510,set_tempo,,,,,5,1,0,,1621621,,,,,,,
11515,set_tempo,,,,,5,1,0,,1578947,,,,,,,
11517,note_on,,,,,12,0,2,,,,,0,,,49,0
11520,set_tempo,,,,,5,1,0,,1578947,,,,,,,
11520,note_on,,,,,30,0,1,,,,,0,,,66,0
11520,note_on,,,,,0,0,1,,,,,0,,,78,0
11520,note_on,,,,,0,0,1,,,,,0,,,65,69
11520,control_change,,,,,0,0,1,,,,,0,64,96,,
11520,note_on,,,,,0,0,1,,,,,0,,,77,69
11520,note_on,,,,,3,0,2,,,,,0,,,44,42
11525,set_tempo,,,,,5,1,0,,1578947,,,,,,,
11530,set_tempo,,,,,5,1,0,,1578947,,,,,,,
11535,note_on,,,,,15,0,2,,,,,0,,,44,0
11535,note_on,,,,,0,0,2,,,,,0,,,47,45
11540,set_tempo,,,,,10,1,0,,1578947,,,,,,,
11550,set_tempo,,,,,10,1,0,,1578947,,,,,,,
11550,note_on,,,,,0,0,1,,,,,0,,,85,65
11550,note_on,,,,,0,0,2,,,,,0,,,53,49
11550,note_on,,,,,0,0,1,,,,,0,,,65,0
11550,note_on,,,,,0,0,1,,,,,0,,,73,65
11550,note_on,,,,,15,0,2,,,,,0,,,47,0
11550,note_on,,,,,30,0,1,,,,,0,,,77,0
11560,set_tempo,,,,,10,1,0,,1578947,,,,,,,
11565,note_on,,,,,15,0,2,,,,,0,,,53,0
11565,note_on,,,,,0,0,2,,,,,0,,,47,52
11565,set_tempo,,,,,5,1,0,,1538461,,,,,,,
11572,note_on,,,,,22,0,1,,,,,0,,,85,0
11572,note_on,,,,,0,0,1,,,,,0,,,73,0
11580,note_on,,,,,8,0,1,,,,,0,,,73,74
11580,note_on,,,,,0,0,2,,,,,0,,,44,56
11580,control_change,,,,,0,0,1,,,,,0,64,0,,
11580,note_on,,,,,0,0,1,,,,,0,,,85,74
11580,set_tempo,,,,,15,1,0,,1538461,,,,,,,
11580,note_on,,,,,15,0,2,,,,,0,,,47,0
11585,set_tempo,,,,,5,1,0,,1538461,,,,,,,
11590,set_tempo,,,,,5,1,0,,1538461,,,,,,,
11595,note_on,,,,,15,0,2,,,,,0,,,44,0
11595,note_on,,,,,0,0,2,,,,,0,,,47,57
11602,note_on,,,,,0,0,1,,,,,0,,,73,0
11602,note_on,,,,,22,0,1,,,,,0,,,85,0
11605,set_tempo,,,,,15,1,0,,1538461,,,,,,,
11610,set_tempo,,,,,5,1,0,,1538461,,,,,,,
11610,control_change,,,,,0,0,1,,,,,0,64,96,,
11610,note_on,,,,,0,0,1,,,,,0,,,85,80
11610,note_on,,,,,15,0,2,,,,,0,,,47,0
11610,note_on,,,,,0,0,2,,,,,0,,,53,55
11610,note_on,,,,,8,0,1,,,,,0,,,73,80
11615,set_tempo,,,,,5,1,0,,1538461,,,,,,,
11625,set_tempo,,,,,10,1,0,,1538461,,,,,,,
11625,note_on,,,,,0,0,2,,,,,0,,,47,55
11625,note_on,,,,,15,0,2,,,,,0,,,53,0
11630,set_tempo,,,,,5,1,0,,1538461,,,,,,,
11632,note_on,,,,,0,0,1,,,,,0,,,73,0
11632,note_on,,,,,22,0,1,,,,,0,,,85,0
11640,note_on,,,,,8,0,1,,,,,0,,,73,70
11640,note_on,,,,,0,0,1,,,,,0,,,85,70
11640,note_on,,,,,15,0,2,,,,,0,,,47,0
11640,note_on,,,,,0,0,2,,,,,0,,,44,49
11645,set_tempo,,,,,15,1,0,,1578947,,,,,,,
11650,set_tempo,,,,,5,1,0,,1578947,,,,,,,
11655,set_tempo,,,,,5,1,0,,1621621,,,,,,,
11655,note_on,,,,,15,0,2,,,,,0,,,44,0
11655,note_on,,,,,0,0,2,,,,,0,,,47,43
11660,set_tempo,,,,,5,1,0,,1621621,,,,,,,
11662,note_on,,,,,22,0,1,,,,,0,,,85,0
11662,note_on,,,,,0,0,1,,,,,0,,,73,0
11665,set_tempo,,,,,5,1,0,,1621621,,,,,,,
11670,note_on,,,,,15,0,2,,,,,0,,,47,0
11670,note_on,,,,,0,0,2,,,,,0,,,53,39
11670,note_on,,,,,8,0,1,,,,,0,,,73,55
11670,note_on,,,,,0,0,1,,,,,0,,,85,55
11670,set_tempo,,,,,5,1,0,,1666666,,,,,,,
11675,set_tempo,,,,,5,1,0,,1714285,,,,,,,
11680,set_tempo,,,,,5,1,0,,1714285,,,,,,,
11685,note_on,,,,,0,0,2,,,,,0,,,47,36
11685,note_on,,,,,15,0,2,,,,,0,,,53,0
11692,note_on,,,,,0,0,1,,,,,0,,,73,0
11692,note_on,,,,,22,0,1,,,,,0,,,85,0
11695,control_change,,,,,3,0,1,,,,,0,64,0,,
11700,note_on,,,,,0,0,1,,,,,0,,,85,64
11700,note_on,,,,,5,0,1,,,,,0,,,73,64
11700,control_change,,,,,0,0,1,,,,,0,64,95,,
11700,note_on,,,,,0,0,2,,,,,0,,,45,36
11700,note_on,,,,,15,0,2,,,,,0,,,47,0
11715,note_on,,,,,15,0,2,,,,,0,,,45,0
11715,note_on,,,,,0,0,2,,,,,0,,,49,38
11730,note_on,,,,,0,0,2,,,,,0,,,54,38
11730,note_on,,,,,15,0,2,,,,,0,,,49,0
11745,note_on,,,,,0,0,2,,,,,0,,,49,42
11745,note_on,,,,,15,0,2,,,,,0,,,54,0
11755,set_tempo,,,,,75,1,0,,1714285,,,,,,,
11760,note_on,,,,,0,0,2,,,,,0,,,45,42
11760,note_on,,,,,15,0,2,,,,,0,,,49,0
11760,set_tempo,,,,,5,1,0,,1666666,,,,,,,
11765,set_tempo,,,,,5,1,0,,1666666,,,,,,,
11765,control_change,,,,,65,0,1,,,,,0,64,0,,
11775,note_on,,,,,10,0,1,,,,,0,,,85,0
11775,note_on,,,,,0,0,1,,,,,0,,,73,0
11775,note_on,,,,,15,0,2,,,,,0,,,45,0
11775,set_tempo,,,,,10,1,0,,1666666,,,,,,,
11775,note_on,,,,,0,0,2,,,,,0,,,49,44
11780,set_tempo,,,,,5,1,0,,1666666,,,,,,,
11785,set_tempo,,,,,5,1,0,,1666666,,,,,,,
11790,note_on,,,,,0,0,2,,,,,0,,,54,45
11790,note_on,,,,,15,0,2,,,,,0,,,49,0
11790,note_on,,,,,15,0,1,,,,,0,,,71,59
11790,note_on,,,,,0,0,1,,,,,0,,,83,59
11805,note_on,,,,,0,0,1,,,,,0,,,85,62
11805,note_on,,,,,15,0,1,,,,,0,,,83,0
11805,note_on,,,,,0,0,1,,,,,0,,,71,0
11805,note_on,,,,,0,0,1,,,,,0,,,73,62
11805,note_on,,,,,15,0,2,,,,,0,,,54,0
11805,note_on,,,,,0,0,2,,,,,0,,,49,46
11815,set_tempo,,,,,30,1,0,,1666666,,,,,,,
11820,note_on,,,,,0,0,1,,,,,0,,,73,0
11820,note_on,,,,,0,0,1,,,,,0,,,74,63
11820,note_on,,,,,0,0,2,,,,,0,,,47,47
11820,control_change,,,,,0,0,1,,,,,0,64,95,,
11820,note_on,,,,,15,0,1,,,,,0,,,85,0
11820,note_on,,,,,15,0,2,,,,,0,,,49,0
11820,note_on,,,,,0,0,1,,,,,0,,,86,63
11825,set_tempo,,,,,10,1,0,,1621621,,,,,,,
11830,set_tempo,,,,,5,1,0,,1621621,,,,,,,
11835,note_on,,,,,15,0,2,,,,,0,,,47,0
11835,note_on,,,,,0,0,2,,,,,0,,,50,50
11845,set_tempo,,,,,15,1,0,,1621621,,,,,,,
11850,note_on,,,,,15,0,2,,,,,0,,,50,0
11850,note_on,,,,,0,0,2,,,,,0,,,55,51
11850,note_on,,,,,30,0,1,,,,,0,,,86,0
11850,note_on,,,,,0,0,1,,,,,0,,,74,0
11850,set_tempo,,,,,5,1,0,,1578947,,,,,,,
11850,note_on,,,,,0,0,1,,,,,0,,,85,69
11850,note_on,,,,,0,0,1,,,,,0,,,73,69
11860,set_tempo,,,,,10,1,0,,1578947,,,,,,,
11865,note_on,,,,,0,0,1,,,,,0,,,83,73
11865,note_on,,,,,0,0,1,,,,,0,,,85,0
11865,note_on,,,,,0,0,1,,,,,0,,,71,73
11865,note_on,,,,,15,0,1,,,,,0,,,73,0
11865,note_on,,,,,15,0,2,,,,,0,,,55,0
11865,note_on,,,,,0,0,2,,,,,0,,,50,54
11875,control_change,,,,,10,0,1,,,,,0,64,0,,
11880,note_on,,,,,5,0,1,,,,,0,,,71,0
11880,note_on,,,,,0,0,2,,,,,0,,,49,60
11880,note_on,,,,,15,0,2,,,,,0,,,50,0
11880,control_change,,,,,0,0,1,,,,,0,64,96,,
11880,note_on,,,,,0,0,1,,,,,0,,,83,0
11880,note_on,,,,,0,0,1,,,,,0,,,81,76
11880,set_tempo,,,,,20,1,0,,1578947,,,,,,,
11880,note_on,,,,,0,0,1,,,,,0,,,69,76
11895,note_on,,,,,15,0,2,,,,,0,,,49,0
11895,note_on,,,,,0,0,2,,,,,0,,,54,58
11910,note_on,,,,,15,0,2,,,,,0,,,54,0
11910,note_on,,,,,0,0,2,,,,,0,,,57,54
11925,note_on,,,,,15,0,2,,,,,0,,,57,0
11925,note_on,,,,,0,0,2,,,,,0,,,54,51
11940,set_tempo,,,,,60,1,0,,1578947,,,,,,,
11940,note_on,,,,,0,0,2,,,,,0,,,49,48
11940,note_on,,,,,15,0,2,,,,,0,,,54,0
11945,set_tempo,,,,,5,1,0,,1578947,,,,,,,
11955,note_on,,,,,15,0,2,,,,,0,,,49,0
11955,set_tempo,,,,,10,1,0,,1578947,,,,,,,
11955,note_on,,,,,0,0,2,,,,,0,,,54,47
11960,set_tempo,,,,,5,1,0,,1621621,,,,,,,
11965,set_tempo,,,,,5,1,0,,1666666,,,,,,,
11970,note_on,,,,,15,0,2,,,,,0,,,54,0
11970,note_on,,,,,0,0,2,,,,,0,,,57,44
11975,set_tempo,,,,,10,1,0,,1666666,,,,,,,
11980,set_tempo,,,,,5,1,0,,1666666,,,,,,,
11985,set_tempo,,,,,5,1,0,,1714285,,,,,,,
11985,note_on,,,,,0,0,2,,,,,0,,,54,42
11985,note_on,,,,,15,0,2,,,,,0,,,57,0
11995,set_tempo,,,,,10,1,0,,1714285,,,,,,,
11995,control_change,,,,,115,0,1,,,,,0,64,0,,
12000,set_tempo,,,,,5,1,0,,1714285,,,,,,,
12000,note_on,,,,,0,0,1,,,,,0,,,69,0
12000,note_on,,,,,15,0,2,,,,,0,,,54,0
12000,note_on,,,,,0,0,2,,,,,0,,,49,40
12000,note_on,,,,,5,0,1,,,,,0,,,81,0
12000,control_change,,,,,0,0,1,,,,,0,64,95,,
12000,note_on,,,,,0,0,1,,,,,0,,,80,42
12000,note_on,,,,,0,0,1,,,,,0,,,68,42
12005,set_tempo,,,,,5,1,0,,1714285,,,,,,,
12010,set_tempo,,,,,5,1,0,,1714285,,,,,,,
12015,note_on,,,,,15,0,2,,,,,0,,,49,0
12015,set_tempo,,,,,5,1,0,,1714285,,,,,,,
12015,note_on,,,,,0,0,2,,,,,0,,,53,38
12020,set_tempo,,,,,5,1,0,,1764705,,,,,,,
12025,set_tempo,,,,,5,1,0,,1666666,,,,,,,
12030,set_tempo,,,,,5,1,0,,1666666,,,,,,,
12030,note_on,,,,,15,0,2,,,,,0,,,53,0
12030,note_on,,,,,0,0,2,,,,,0,,,56,36
12035,set_tempo,,,,,5,1,0,,2068965,,,,,,,
12045,note_on,,,,,45,0,1,,,,,0,,,80,0
12045,note_on,,,,,0,0,2,,,,,0,,,53,34
12045,note_on,,,,,0,0,1,,,,,0,,,68,0
12045,note_on,,,,,15,0,2,,,,,0,,,56,0
12055,control_change,,,,,10,0,1,,,,,0,64,0,,
12055,note_on,,,,,10,0,2,,,,,0,,,53,0
12055,set_tempo,,,,,20,1,0,,3000000,,,,,,,
12060,note_on,,,,,5,0,2,,,,,0,,,46,47
12060,note_on,,,,,5,0,1,,,,,0,,,73,46
12060,control_change,,,,,0,0,1,,,,,0,64,95,,
12060,note_on,,,,,0,0,1,,,,,0,,,85,46
12060,set_tempo,,,,,5,1,0,,1666666,,,,,,,
12075,note_on,,,,,15,0,2,,,,,0,,,46,0
12075,note_on,,,,,0,0,2,,,,,0,,,49,45
12085,set_tempo,,,,,25,1,0,,1666666,,,,,,,
12090,note_on,,,,,15,0,2,,,,,0,,,49,0
12090,note_on,,,,,0,0,2,,,,,0,,,54,42
12095,set_tempo,,,,,10,1,0,,1666666,,,,,,,
12100,set_tempo,,,,,5,1,0,,1666666,,,,,,,
12105,note_on,,,,,0,0,2,,,,,0,,,49,39
12105,note_on,,,,,15,0,2,,,,,0,,,54,0
12110,set_tempo,,,,,10,1,0,,1666666,,,,,,,
12115,set_tempo,,,,,5,1,0,,1666666,,,,,,,
12120,note_on,,,,,15,0,2,,,,,0,,,49,0
12120,note_on,,,,,0,0,2,,,,,0,,,46,36
12120,set_tempo,,,,,5,1,0,,1666666,,,,,,,
12125,control_change,,,,,65,0,1,,,,,0,64,0,,
12135,note_on,,,,,10,0,1,,,,,0,,,85,0
12135,set_tempo,,,,,15,1,0,,1666666,,,,,,,
12135,note_on,,,,,15,0,2,,,,,0,,,46,0
12135,note_on,,,,,0,0,2,,,,,0,,,49,39
12135,note_on,,,,,0,0,1,,,,,0,,,73,0
12145,set_tempo,,,,,10,1,0,,1666666,,,,,,,
12150,note_on,,,,,0,0,2,,,,,0,,,54,40
12150,note_on,,,,,15,0,2,,,,,0,,,49,0
12150,note_on,,,,,15,0,1,,,,,0,,,72,49
12150,note_on,,,,,0,0,1,,,,,0,,,84,49
12160,set_tempo,,,,,15,1,0,,1621621,,,,,,,
12165,note_on,,,,,0,0,2,,,,,0,,,49,41
12165,note_on,,,,,15,0,2,,,,,0,,,54,0
12165,note_on,,,,,15,0,1,,,,,0,,,84,0
12165,note_on,,,,,0,0,1,,,,,0,,,72,0
12165,note_on,,,,,0,0,1,,,,,0,,,73,51
12165,set_tempo,,,,,5,1,0,,1621621,,,,,,,
12165,note_on,,,,,0,0,1,,,,,0,,,85,51
12175,set_tempo,,,,,10,1,0,,1621621,,,,,,,
12180,set_tempo,,,,,5,1,0,,1621621,,,,,,,
12180,control_change,,,,,0,0,1,,,,,0,64,95,,
12180,note_on,,,,,0,0,1,,,,,0,,,87,53
12180,note_on,,,,,0,0,1,,,,,0,,,75,53
12180,note_on,,,,,15,0,1,,,,,0,,,85,0
12180,note_on,,,,,0,0,1,,,,,0,,,73,0
12180,note_on,,,,,15,0,2,,,,,0,,,49,0
12180,note_on,,,,,0,0,2,,,,,0,,,47,43
12185,set_tempo,,,,,5,1,0,,1621621,,,,,,,
12195,set_tempo,,,,,10,1,0,,1621621,,,,,,,
12195,note_on,,,,,15,0,2,,,,,0,,,47,0
12195,note_on,,,,,0,0,2,,,,,0,,,51,45
12205,set_tempo,,,,,10,1,0,,1621621,,,,,,,
12210,note_on,,,,,0,0,1,,,,,0,,,75,0
12210,note_on,,,,,30,0,1,,,,,0,,,87,0
12210,note_on,,,,,0,0,1,,,,,0,,,89,55
12210,set_tempo,,,,,5,1,0,,1621621,,,,,,,
12210,note_on,,,,,0,0,1,,,,,0,,,77,55
12210,note_on,,,,,0,0,2,,,,,0,,,54,46
12210,note_on,,,,,15,0,2,,,,,0,,,51,0
12225,note_on,,,,,15,0,2,,,,,0,,,54,0
12225,note_on,,,,,0,0,2,,,,,0,,,51,47
12225,set_tempo,,,,,15,1,0,,1621621,,,,,,,
12225,note_on,,,,,0,0,1,,,,,0,,,77,0
12225,note_on,,,,,0,0,1,,,,,0,,,78,55
12225,note_on,,,,,0,0,1,,,,,0,,,90,55
12225,note_on,,,,,15,0,1,,,,,0,,,89,0
12230,set_tempo,,,,,5,1,0,,1621621,,,,,,,
12235,control_change,,,,,10,0,1,,,,,0,64,0,,
12240,note_on,,,,,5,0,1,,,,,0,,,90,0
12240,control_change,,,,,0,0,1,,,,,0,64,95,,
12240,note_on,,,,,0,0,1,,,,,0,,,82,55
12240,note_on,,,,,0,0,1,,,,,0,,,70,55
12240,note_on,,,,,0,0,1,,,,,0,,,78,0
12240,note_on,,,,,0,0,2,,,,,0,,,49,47
12240,note_on,,,,,15,0,2,,,,,0,,,51,0
12240,set_tempo,,,,,10,1,0,,1621621,,,,,,,
12245,set_tempo,,,,,5,1,0,,1621621,,,,,,,
12250,set_tempo,,,,,5,1,0,,1666666,,,,,,,
12255,note_on,,,,,15,0,2,,,,,0,,,49,0
12255,note_on,,,,,0,0,2,,,,,0,,,54,47
12270,set_tempo,,,,,20,1,0,,1621621,,,,,,,
12270,note_on,,,,,0,0,2,,,,,0,,,58,45
12270,note_on,,,,,15,0,2,,,,,0,,,54,0
12280,set_tempo,,,,,10,1,0,,1621621,,,,,,,
12285,set_tempo,,,,,5,1,0,,1621621,,,,,,,
12285,note_on,,,,,0,0,2,,,,,0,,,54,44
12285,note_on,,,,,15,0,2,,,,,0,,,58,0
12290,set_tempo,,,,,5,1,0,,1621621,,,,,,,
12300,note_on,,,,,0,0,2,,,,,0,,,49,43
12300,set_tempo,,,,,10,1,0,,1621621,,,,,,,
12300,note_on,,,,,15,0,2,,,,,0,,,54,0
12305,set_tempo,,,,,5,1,0,,1621621,,,,,,,
12305,control_change,,,,,65,0,1,,,,,0,64,0,,
12315,note_on,,,,,0,0,2,,,,,0,,,54,43
12315,set_tempo,,,,,10,1,0,,1578947,,,,,,,
12315,note_on,,,,,10,0,1,,,,,0,,,82,0
12315,note_on,,,,,0,0,1,,,,,0,,,70,0
12315,note_on,,,,,15,0,2,,,,,0,,,49,0
12325,set_tempo,,,,,10,1,0,,1578947,,,,,,,
12330,note_on,,,,,0,0,2,,,,,0,,,58,42
12330,note_on,,,,,15,0,2,,,,,0,,,54,0
12330,note_on,,,,,0,0,1,,,,,0,,,83,47
12330,note_on,,,,,15,0,1,,,,,0,,,71,47
12340,set_tempo,,,,,15,1,0,,1578947,,,,,,,
12345,note_on,,,,,15,0,2,,,,,0,,,58,0
12345,note_on,,,,,15,0,1,,,,,0,,,83,0
12345,note_on,,,,,0,0,1,,,,,0,,,71,0
12345,set_tempo,,,,,5,1,0,,1578947,,,,,,,
12345,note_on,,,,,0,0,1,,,,,0,,,85,45
12345,note_on,,,,,0,0,1,,,,,0,,,73,45
12345,note_on,,,,,0,0,2,,,,,0,,,54,41
12350,set_tempo,,,,,5,1,0,,1621621,,,,,,,
12355,set_tempo,,,,,5,1,0,,1666666,,,,,,,
12360,note_on,,,,,0,0,2,,,,,0,,,49,39
12360,control_change,,,,,0,0,1,,,,,0,64,95,,
12360,note_on,,,,,0,0,1,,,,,0,,,73,0
12360,note_on,,,,,15,0,1,,,,,0,,,85,0
12360,note_on,,,,,15,0,2,,,,,0,,,54,0
12360,note_on,,,,,0,0,1,,,,,0,,,71,41
12360,set_tempo,,,,,5,1,0,,1666666,,,,,,,
12360,note_on,,,,,0,0,1,,,,,0,,,83,41
12365,set_tempo,,,,,5,1,0,,1666666,,,,,,,
12370,set_tempo,,,,,5,1,0,,1714285,,,,,,,
12375,set_tempo,,,,,5,1,0,,1714285,,,,,,,
12375,note_on,,,,,0,0,2,,,,,0,,,53,39
12375,note_on,,,,,15,0,2,,,,,0,,,49,0
12380,set_tempo,,,,,5,1,0,,1764705,,,,,,,
12385,set_tempo,,,,,5,1,0,,1818181,,,,,,,
12390,set_tempo,,,,,5,1,0,,1818181,,,,,,,
12390,note_on,,,,,0,0,2,,,,,0,,,59,37
12390,note_on,,,,,15,0,2,,,,,0,,,53,0
12390,note_on,,,,,0,0,1,,,,,0,,,70,36
12390,note_on,,,,,0,0,1,,,,,0,,,82,36
12390,note_on,,,,,0,0,1,,,,,0,,,71,0
12390,note_on,,,,,30,0,1,,,,,0,,,83,0
12395,set_tempo,,,,,5,1,0,,1818181,,,,,,,
12400,set_tempo,,,,,5,1,0,,1818181,,,,,,,
12405,note_on,,,,,15,0,1,,,,,0,,,70,0
12405,note_on,,,,,0,0,1,,,,,0,,,82,0
12405,note_on,,,,,0,0,1,,,,,0,,,80,35
12405,note_on,,,,,0,0,1,,,,,0,,,68,35
12405,note_on,,,,,15,0,2,,,,,0,,,59,0
12405,note_on,,,,,0,0,2,,,,,0,,,53,34
12405,set_tempo,,,,,5,1,0,,1875000,,,,,,,
12410,set_tempo,,,,,5,1,0,,1875000,,,,,,,
12415,control_change,,,,,10,0,1,,,,,0,64,0,,
12420,note_on,,,,,15,0,2,,,,,0,,,53,0
12420,control_change,,,,,0,0,1,,,,,0,64,95,,
12420,note_on,,,,,0,0,1,,,,,0,,,78,32
12420,note_on,,,,,0,0,1,,,,,0,,,66,32
12420,note_on,,,,,0,0,1,,,,,0,,,80,0
12420,note_on,,,,,5,0,1,,,,,0,,,68,0
12420,note_on,,,,,0,0,2,,,,,0,,,54,33
12420,note_on,,,,,0,0,2,,,,,0,,,58,33
12425,set_tempo,,,,,15,1,0,,2000000,,,,,,,
12430,set_tempo,,,,,5,1,0,,2068965,,,,,,,
12440,set_tempo,,,,,10,1,0,,2068965,,,,,,,
12442,note_on,,,,,22,0,1,,,,,0,,,78,0
12442,note_on,,,,,0,0,2,,,,,0,,,54,0
12442,note_on,,,,,0,0,1,,,,,0,,,66,0
12442,note_on,,,,,22,0,2,,,,,0,,,58,0
12445,set_tempo,,,,,5,1,0,,1818181,,,,,,,
12445,control_change,,,,,3,0,1,,,,,0,64,0,,
12450,note_on,,,,,0,0,2,,,,,0,,,58,35
12450,control_change,,,,,0,0,1,,,,,0,64,95,,
12450,note_on,,,,,0,0,1,,,,,0,,,73,36
12450,note_on,,,,,5,0,1,,,,,0,,,66,36
12450,note_on,,,,,8,0,2,,,,,0,,,49,35
12472,note_on,,,,,22,0,2,,,,,0,,,58,0
12472,note_on,,,,,0,0,2,,,,,0,,,49,0
12472,note_on,,,,,0,0,1,,,,,0,,,66,0
12472,note_on,,,,,22,0,1,,,,,0,,,73,0
12475,set_tempo,,,,,30,1,0,,1818181,,,,,,,
12480,note_on,,,,,0,0,1,,,,,0,,,75,42
12480,note_on,,,,,8,0,1,,,,,0,,,66,42
12480,set_tempo,,,,,5,1,0,,1818181,,,,,,,
12480,note_on,,,,,8,0,2,,,,,0,,,49,38
12480,note_on,,,,,0,0,2,,,,,0,,,59,38
12495,set_tempo,,,,,15,1,0,,1818181,,,,,,,
12505,set_tempo,,,,,10,1,0,,1818181,,,,,,,
12510,note_on,,,,,0,0,2,,,,,0,,,58,33
12510,note_on,,,,,0,0,2,,,,,0,,,49,33
12510,note_on,,,,,30,0,2,,,,,0,,,59,0
12510,note_on,,,,,0,0,2,,,,,0,,,49,0
12510,note_on,,,,,0,0,1,,,,,0,,,73,39
12510,note_on,,,,,0,0,1,,,,,0,,,66,39
12510,note_on,,,,,0,0,1,,,,,0,,,66,0
12510,note_on,,,,,30,0,1,,,,,0,,,75,0
12515,set_tempo,,,,,10,1,0,,1764705,,,,,,,
12520,set_tempo,,,,,5,1,0,,1764705,,,,,,,
12530,set_tempo,,,,,10,1,0,,1818181,,,,,,,
12532,note_on,,,,,22,0,2,,,,,0,,,58,0
12532,note_on,,,,,0,0,2,,,,,0,,,49,0
12532,note_on,,,,,22,0,1,,,,,0,,,73,0
12532,note_on,,,,,0,0,1,,,,,0,,,66,0
12535,set_tempo,,,,,5,1,0,,1875000,,,,,,,
12540,set_tempo,,,,,5,1,0,,1875000,,,,,,,
12540,note_on,,,,,0,0,2,,,,,0,,,56,30
12540,note_on,,,,,8,0,2,,,,,0,,,49,30
12540,note_on,,,,,8,0,1,,,,,0,,,66,31
12540,note_on,,,,,0,0,1,,,,,0,,,73,31
12545,set_tempo,,,,,5,1,0,,1875000,,,,,,,
12550,set_tempo,,,,,5,1,0,,1935483,,,,,,,
12555,set_tempo,,,,,5,1,0,,2000000,,,,,,,
12560,set_tempo,,,,,5,1,0,,2000000,,,,,,,
12562,note_on,,,,,0,0,2,,,,,0,,,49,0
12562,note_on,,,,,22,0,1,,,,,0,,,73,0
12562,note_on,,,,,22,0,2,,,,,0,,,56,0
12562,note_on,,,,,0,0,1,,,,,0,,,66,0
12570,note_on,,,,,0,0,1,,,,,0,,,73,27
12570,note_on,,,,,0,0,2,,,,,0,,,59,30
12570,note_on,,,,,8,0,2,,,,,0,,,49,30
12570,note_on,,,,,8,0,1,,,,,0,,,65,27
12570,set_tempo,,,,,10,1,0,,2000000,,,,,,,
12575,set_tempo,,,,,5,1,0,,2000000,,,,,,,
12580,set_tempo,,,,,5,1,0,,2000000,,,,,,,
12590,control_change,,,,,20,0,1,,,,,0,64,0,,
12600,set_tempo,,,,,20,1,0,,2400000,,,,,,,
12600,note_on,,,,,0,0,1,,,,,0,,,66,27
12600,note_on,,,,,10,0,1,,,,,0,,,73,0
12600,note_on,,,,,0,0,1,,,,,0,,,73,27
12600,control_change,,,,,0,0,1,,,,,0,64,96,,
12600,note_on,,,,,0,0,1,,,,,0,,,65,0
12600,note_on,,,,,0,0,2,,,,,0,,,58,27
12600,note_on,,,,,0,0,2,,,,,0,,,54,27
12600,note_on,,,,,0,0,2,,,,,0,,,49,0
12600,note_on,,,,,30,0,2,,,,,0,,,59,0
12615,set_tempo,,,,,15,1,0,,2000000,,,,,,,
12622,note_on,,,,,22,0,1,,,,,0,,,66,0
12622,note_on,,,,,0,0,1,,,,,0,,,73,0
12622,note_on,,,,,0,0,2,,,,,0,,,54,0
12622,note_on,,,,,22,0,2,,,,,0,,,58,0
12625,control_change,,,,,3,0,1,,,,,0,64,0,,
12625,set_tempo,,,,,10,1,0,,2000000,,,,,,,
12630,control_change,,,,,0,0,1,,,,,0,64,95,,
12630,note_on,,,,,8,0,2,,,,,0,,,49,35
12630,note_on,,,,,0,0,2,,,,,0,,,58,35
12630,note_on,,,,,5,0,1,,,,,0,,,66,36
12630,note_on,,,,,0,0,1,,,,,0,,,73,36
12635,set_tempo,,,,,10,1,0,,2000000,,,,,,,
12640,set_tempo,,,,,5,1,0,,2000000,,,,,,,
12645,set_tempo,,,,,5,1,0,,1935483,,,,,,,
12650,set_tempo,,,,,5,1,0,,1935483,,,,,,,
12652,note_on,,,,,22,0,2,,,,,0,,,58,0
12652,note_on,,,,,0,0,1,,,,,0,,,66,0
12652,note_on,,,,,0,0,2,,,,,0,,,49,0
12652,note_on,,,,,22,0,1,,,,,0,,,73,0
12655,set_tempo,,,,,5,1,0,,1935483,,,,,,,
12660,note_on,,,,,0,0,1,,,,,0,,,75,42
12660,note_on,,,,,8,0,2,,,,,0,,,49,38
12660,note_on,,,,,0,0,2,,,,,0,,,59,38
12660,note_on,,,,,0,0,1,,,,,0,,,66,42
12660,set_tempo,,,,,5,1,0,,1875000,,,,,,,
12660,note_on,,,,,8,0,1,,,,,0,,,78,42
12690,note_on,,,,,30,0,1,,,,,0,,,75,0
12690,note_on,,,,,0,0,1,,,,,0,,,66,0
12690,note_on,,,,,0,0,2,,,,,0,,,58,33
12690,note_on,,,,,0,0,2,,,,,0,,,49,33
12690,note_on,,,,,0,0,2,,,,,0,,,49,0
12690,note_on,,,,,30,0,2,,,,,0,,,59,0
12690,note_on,,,,,0,0,1,,,,,0,,,78,0
12690,note_on,,,,,0,0,1,,,,,0,,,66,33
12690,note_on,,,,,0,0,1,,,,,0,,,73,33
12710,set_tempo,,,,,50,1,0,,1875000,,,,,,,
12712,note_on,,,,,0,0,2,,,,,0,,,49,0
12712,note_on,,,,,22,0,2,,,,,0,,,58,0
12712,note_on,,,,,22,0,1,,,,,0,,,73,0
12712,note_on,,,,,0,0,1,,,,,0,,,66,0
12715,set_tempo,,,,,5,1,0,,1875000,,,,,,,
12720,note_on,,,,,8,0,1,,,,,0,,,66,38
12720,set_tempo,,,,,5,1,0,,1875000,,,,,,,
12720,note_on,,,,,0,0,2,,,,,0,,,56,30
12720,note_on,,,,,0,0,1,,,,,0,,,73,38
12720,note_on,,,,,8,0,2,,,,,0,,,49,30
12730,set_tempo,,,,,10,1,0,,1935483,,,,,,,
12735,note_on,,,,,15,0,1,,,,,0,,,66,0
12735,note_on,,,,,0,0,1,,,,,0,,,65,36
12735,set_tempo,,,,,5,1,0,,1935483,,,,,,,
12740,set_tempo,,,,,5,1,0,,2000000,,,,,,,
12742,note_on,,,,,7,0,1,,,,,0,,,73,0
12742,note_on,,,,,22,0,2,,,,,0,,,56,0
12742,note_on,,,,,0,0,2,,,,,0,,,49,0
12750,set_tempo,,,,,10,1,0,,2000000,,,,,,,
12750,note_on,,,,,8,0,2,,,,,0,,,49,30
12750,note_on,,,,,0,0,2,,,,,0,,,59,30
12750,note_on,,,,,8,0,1,,,,,0,,,65,0
12750,note_on,,,,,0,0,1,,,,,0,,,66,33
12750,note_on,,,,,0,0,1,,,,,0,,,73,33
12755,set_tempo,,,,,5,1,0,,2000000,,,,,,,
12760,set_tempo,,,,,5,1,0,,2000000,,,,,,,
12765,set_tempo,,,,,5,1,0,,2000000,,,,,,,
12765,note_on,,,,,15,0,1,,,,,0,,,66,0
12765,note_on,,,,,0,0,1,,,,,0,,,68,30
12770,control_change,,,,,5,0,1,,,,,0,64,0,,
12770,set_tempo,,,,,5,1,0,,2000000,,,,,,,
12772,note_on,,,,,22,0,2,,,,,0,,,59,0
12772,note_on,,,,,0,0,2,,,,,0,,,49,0
12772,note_on,,,,,2,0,1,,,,,0,,,73,0
12775,set_tempo,,,,,5,1,0,,1875000,,,,,,,
12780,note_on,,,,,0,0,2,,,,,0,,,58,32
12780,note_on,,,,,0,0,1,,,,,0,,,73,32
12780,note_on,,,,,0,0,1,,,,,0,,,66,32
12780,note_on,,,,,8,0,1,,,,,0,,,68,0
12780,note_on,,,,,8,0,2,,,,,0,,,54,32
12780,set_tempo,,,,,5,1,0,,1935483,,,,,,,
12780,control_change,,,,,0,0,1,,,,,0,64,95,,
12795,set_tempo,,,,,15,1,0,,1935483,,,,,,,
12800,set_tempo,,,,,5,1,0,,2000000,,,,,,,
12802,note_on,,,,,22,0,1,,,,,0,,,73,0
12802,note_on,,,,,0,0,1,,,,,0,,,66,0
12802,note_on,,,,,22,0,2,,,,,0,,,58,0
12802,note_on,,,,,0,0,2,,,,,0,,,54,0
12805,set_tempo,,,,,5,1,0,,2000000,,,,,,,
12810,note_on,,,,,0,0,2,,,,,0,,,56,35
12810,note_on,,,,,0,0,1,,,,,0,,,73,35
12810,note_on,,,,,8,0,1,,,,,0,,,65,35
12810,note_on,,,,,8,0,2,,,,,0,,,49,35
12815,set_tempo,,,,,10,1,0,,2000000,,,,,,,
12820,set_tempo,,,,,5,1,0,,2000000,,,,,,,
12825,set_tempo,,,,,5,1,0,,2068965,,,,,,,
12832,note_on,,,,,22,0,2,,,,,0,,,56,0
12832,note_on,,,,,0,0,2,,,,,0,,,49,0
12832,note_on,,,,,0,0,1,,,,,0,,,65,0
12832,note_on,,,,,22,0,1,,,,,0,,,73,0
12835,control_change,,,,,3,0,1,,,,,0,64,0,,
12835,set_tempo,,,,,10,1,0,,2068965,,,,,,,
12840,set_tempo,,,,,5,1,0,,2068965,,,,,,,
12840,note_on,,,,,5,0,1,,,,,0,,,66,33
12840,note_on,,,,,0,0,1,,,,,0,,,73,33
12840,control_change,,,,,0,0,1,,,,,0,64,95,,
12840,note_on,,,,,8,0,2,,,,,0,,,54,31
12840,note_on,,,,,0,0,2,,,,,0,,,58,31
12845,set_tempo,,,,,5,1,0,,2068965,,,,,,,
12850,set_tempo,,,,,5,1,0,,2068965,,,,,,,
12860,set_tempo,,,,,10,1,0,,2068965,,,,,,,
12862,note_on,,,,,22,0,1,,,,,0,,,73,0
12862,note_on,,,,,0,0,1,,,,,0,,,66,0
12862,note_on,,,,,22,0,2,,,,,0,,,58,0
12862,note_on,,,,,0,0,2,,,,,0,,,54,0
12865,note_on,,,,,3,0,1,,,,,0,,,70,32
12865,set_tempo,,,,,5,1,0,,2500000,,,,,,,
12870,note_on,,,,,0,0,2,,,,,0,,,59,27
12870,note_on,,,,,8,0,2,,,,,0,,,49,27
12870,note_on,,,,,0,0,1,,,,,0,,,68,27
12870,note_on,,,,,0,0,1,,,,,0,,,65,30
12870,note_on,,,,,5,0,1,,,,,0,,,70,0
12870,note_on,,,,,0,0,1,,,,,0,,,73,30
12875,set_tempo,,,,,10,1,0,,2222222,,,,,,,
12892,note_on,,,,,0,0,1,,,,,0,,,65,0
12892,note_on,,,,,22,0,2,,,,,0,,,59,0
12892,note_on,,,,,22,0,1,,,,,0,,,73,0
12892,note_on,,,,,0,0,2,,,,,0,,,49,0
12895,control_change,,,,,3,0,1,,,,,0,64,0,,
12900,note_on,,,,,5,0,1,,,,,0,,,68,0
12900,note_on,,,,,0,0,1,,,,,0,,,66,23
12900,note_on,,,,,0,0,1,,,,,0,,,73,23
12900,control_change,,,,,0,0,1,,,,,0,64,94,,
12900,set_tempo,,,,,25,1,0,,2500000,,,,,,,
12900,note_on,,,,,0,0,2,,,,,0,,,58,23
12900,note_on,,,,,8,0,2,,,,,0,,,54,23
12905,set_tempo,,,,,5,1,0,,2500000,,,,,,,
12910,set_tempo,,,,,5,1,0,,2857142,,,,,,,
12922,note_on,,,,,0,0,1,,,,,0,,,66,0
12922,note_on,,,,,22,0,2,,,,,0,,,58,0
12922,note_on,,,,,22,0,1,,,,,0,,,73,0
12922,note_on,,,,,0,0,2,,,,,0,,,54,0
12925,control_change,,,,,3,0,1,,,,,0,64,0,,
12925,set_tempo,,,,,15,1,0,,1714285,,,,,,,
12930,note_on,,,,,8,0,2,,,,,0,,,42,117
12930,note_on,,,,,0,0,2,,,,,0,,,54,117
12935,set_tempo,,,,,10,1,0,,1714285,,,,,,,
12940,set_tempo,,,,,5,1,0,,1714285,,,,,,,
12950,set_tempo,,,,,10,1,0,,1714285,,,,,,,
12960,note_on,,,,,0,0,2,,,,,0,,,42,0
12960,set_tempo,,,,,10,1,0,,1714285,,,,,,,
12960,note_on,,,,,0,0,2,,,,,0,,,40,126
12960,note_on,,,,,30,0,2,,,,,0,,,54,0
12960,note_on,,,,,0,0,2,,,,,0,,,52,126
12960,control_change,,,,,35,0,1,,,,,0,64,95,,
12970,set_tempo,,,,,10,1,0,,1666666,,,,,,,
12980,set_tempo,,,,,10,1,0,,1666666,,,,,,,
12990,note_on,,,,,0,0,1,,,,,0,,,78,120
12990,note_on,,,,,0,0,1,,,,,0,,,73,120
12990,note_on,,,,,0,0,1,,,,,0,,,70,120
12990,note_on,,,,,30,0,1,,,,,0,,,66,120
12990,set_tempo,,,,,10,1,0,,1666666,,,,,,,
12995,set_tempo,,,,,5,1,0,,1666666,,,,,,,
13000,set_tempo,,,,,5,1,0,,1666666,,,,,,,
13005,note_on,,,,,0,0,2,,,,,0,,,40,0
13005,note_on,,,,,45,0,2,,,,,0,,,52,0
13015,control_change,,,,,25,0,1,,,,,0,64,0,,
13020,control_change,,,,,0,0,1,,,,,0,64,95,,
13020,note_on,,,,,15,0,2,,,,,0,,,52,120
13020,note_on,,,,,0,0,1,,,,,0,,,79,126
13020,note_on,,,,,0,0,2,,,,,0,,,64,120
13020,note_on,,,,,0,0,1,,,,,0,,,73,126
13020,note_on,,,,,0,0,1,,,,,0,,,67,126
13020,note_on,,,,,0,0,1,,,,,0,,,70,126
13020,note_on,,,,,0,0,1,,,,,0,,,73,0
13020,note_on,,,,,0,0,1,,,,,0,,,70,0
13020,note_on,,,,,5,0,1,,,,,0,,,78,0
13020,note_on,,,,,0,0,1,,,,,0,,,66,0
13030,set_tempo,,,,,30,1,0,,1666666,,,,,,,
13040,set_tempo,,,,,10,1,0,,1621621,,,,,,,
13050,set_tempo,,,,,10,1,0,,1621621,,,,,,,
13065,note_on,,,,,45,0,2,,,,,0,,,64,0
13065,note_on,,,,,0,0,2,,,,,0,,,52,0
13065,note_on,,,,,0,0,1,,,,,0,,,67,0
13065,note_on,,,,,0,0,1,,,,,0,,,73,0
13065,note_on,,,,,45,0,1,,,,,0,,,79,0
13065,note_on,,,,,0,0,1,,,,,0,,,70,0
13075,control_change,,,,,10,0,1,,,,,0,64,0,,
13080,set_tempo,,,,,30,1,0,,1621621,,,,,,,
13080,note_on,,,,,5,0,1,,,,,0,,,58,120
13080,note_on,,,,,0,0,1,,,,,0,,,61,120
13080,note_on,,,,,0,0,1,,,,,0,,,67,120
13080,control_change,,,,,0,0,1,,,,,0,64,97,,
13085,set_tempo,,,,,5,1,0,,1578947,,,,,,,
13095,set_tempo,,,,,10,1,0,,1578947,,,,,,,
13105,set_tempo,,,,,10,1,0,,1578947,,,,,,,
13110,note_on,,,,,45,0,2,,,,,0,,,40,118
13110,note_on,,,,,0,0,2,,,,,0,,,52,118
13125,note_on,,,,,0,0,1,,,,,0,,,58,0
13125,note_on,,,,,0,0,1,,,,,0,,,61,0
13125,note_on,,,,,45,0,1,,,,,0,,,67,0
13135,set_tempo,,,,,30,1,0,,1578947,,,,,,,
13135,control_change,,,,,10,0,1,,,,,0,64,0,,
13140,note_on,,,,,0,0,2,,,,,0,,,50,126
13140,note_on,,,,,30,0,2,,,,,0,,,52,0
13140,note_on,,,,,0,0,2,,,,,0,,,38,126
13140,control_change,,,,,5,0,1,,,,,0,64,95,,
13140,note_on,,,,,0,0,2,,,,,0,,,40,0
13145,set_tempo,,,,,10,1,0,,1578947,,,,,,,
13170,note_on,,,,,30,0,1,,,,,0,,,74,120
13170,note_on,,,,,0,0,1,,,,,0,,,79,120
13170,note_on,,,,,0,0,1,,,,,0,,,82,120
13170,note_on,,,,,0,0,1,,,,,0,,,70,120
13175,set_tempo,,,,,30,1,0,,1538461,,,,,,,
13180,set_tempo,,,,,5,1,0,,1538461,,,,,,,
13185,note_on,,,,,45,0,2,,,,,0,,,50,0
13185,note_on,,,,,0,0,2,,,,,0,,,38,0
13190,set_tempo,,,,,10,1,0,,1538461,,,,,,,
13195,control_change,,,,,25,0,1,,,,,0,64,0,,
13200,control_change,,,,,0,0,1,,,,,0,64,95,,
13200,note_on,,,,,0,0,1,,,,,0,,,71,126
13200,note_on,,,,,0,0,1,,,,,0,,,79,126
13200,note_on,,,,,0,0,1,,,,,0,,,83,126
13200,note_on,,,,,0,0,1,,,,,0,,,82,0
13200,note_on,,,,,0,0,1,,,,,0,,,79,0
13200,note_on,,,,,0,0,1,,,,,0,,,74,0
13200,note_on,,,,,5,0,1,,,,,0,,,70,0
13200,note_on,,,,,15,0,2,,,,,0,,,50,120
13200,note_on,,,,,0,0,1,,,,,0,,,74,126
13200,note_on,,,,,0,0,2,,,,,0,,,62,120
13205,set_tempo,,,,,15,1,0,,1538461,,,,,,,
13215,set_tempo,,,,,10,1,0,,1538461,,,,,,,
13225,set_tempo,,,,,10,1,0,,1500000,,,,,,,
13235,set_tempo,,,,,10,1,0,,1500000,,,,,,,
13245,note_on,,,,,0,0,2,,,,,0,,,50,0
13245,note_on,,,,,45,0,2,,,,,0,,,62,0
13245,note_on,,,,,0,0,1,,,,,0,,,71,0
13245,note_on,,,,,0,0,1,,,,,0,,,74,0
13245,note_on,,,,,0,0,1,,,,,0,,,83,0
13245,note_on,,,,,45,0,1,,,,,0,,,79,0
13245,set_tempo,,,,,10,1,0,,1500000,,,,,,,
13255,control_change,,,,,10,0,1,,,,,0,64,0,,
13255,set_tempo,,,,,10,1,0,,1500000,,,,,,,
13260,note_on,,,,,0,0,1,,,,,0,,,67,120
13260,control_change,,,,,0,0,1,,,,,0,64,97,,
13260,note_on,,,,,0,0,1,,,,,0,,,62,120
13260,note_on,,,,,5,0,1,,,,,0,,,59,120
13260,note_on,,,,,0,0,1,,,,,0,,,71,120
13285,set_tempo,,,,,30,1,0,,1500000,,,,,,,
13290,note_on,,,,,0,0,2,,,,,0,,,49,118
13290,set_tempo,,,,,5,1,0,,1500000,,,,,,,
13290,note_on,,,,,45,0,2,,,,,0,,,37,118
13305,set_tempo,,,,,15,1,0,,1500000,,,,,,,
13305,note_on,,,,,45,0,1,,,,,0,,,67,0
13305,note_on,,,,,0,0,1,,,,,0,,,59,0
13305,note_on,,,,,0,0,1,,,,,0,,,62,0
13305,note_on,,,,,0,0,1,,,,,0,,,71,0
13310,set_tempo,,,,,5,1,0,,1500000,,,,,,,
13315,control_change,,,,,10,0,1,,,,,0,64,0,,
13320,control_change,,,,,5,0,1,,,,,0,64,95,,
13320,note_on,,,,,0,0,2,,,,,0,,,37,0
13320,note_on,,,,,0,0,2,,,,,0,,,50,126
13320,note_on,,,,,30,0,2,,,,,0,,,49,0
13320,note_on,,,,,0,0,2,,,,,0,,,38,126
13330,set_tempo,,,,,20,1,0,,1463414,,,,,,,
13335,set_tempo,,,,,5,1,0,,1463414,,,,,,,
13340,set_tempo,,,,,5,1,0,,1500000,,,,,,,
13345,set_tempo,,,,,5,1,0,,1500000,,,,,,,
13350,note_on,,,,,0,0,1,,,,,0,,,73,120
13350,note_on,,,,,30,0,1,,,,,0,,,85,120
13355,set_tempo,,,,,10,1,0,,1538461,,,,,,,
13360,set_tempo,,,,,5,1,0,,1538461,,,,,,,
13365,note_on,,,,,45,0,2,,,,,0,,,50,0
13365,note_on,,,,,0,0,2,,,,,0,,,38,0
13370,set_tempo,,,,,10,1,0,,1538461,,,,,,,
13375,set_tempo,,,,,5,1,0,,1538461,,,,,,,
13375,control_change,,,,,25,0,1,,,,,0,64,0,,
13380,set_tempo,,,,,5,1,0,,1538461,,,,,,,
13380,note_on,,,,,0,0,1,,,,,0,,,74,126
13380,note_on,,,,,0,0,1,,,,,0,,,72,126
13380,control_change,,,,,0,0,1,,,,,0,64,95,,
13380,note_on,,,,,0,0,1,,,,,0,,,81,126
13380,note_on,,,,,0,0,2,,,,,0,,,62,120
13380,note_on,,,,,0,0,1,,,,,0,,,86,126
13380,note_on,,,,,0,0,1,,,,,0,,,85,0
13380,note_on,,,,,5,0,1,,,,,0,,,73,0
13380,note_on,,,,,0,0,1,,,,,0,,,78,126
13380,note_on,,,,,15,0,2,,,,,0,,,50,120
13385,set_tempo,,,,,5,1,0,,1578947,,,,,,,
13390,set_tempo,,,,,5,1,0,,1578947,,,,,,,
13395,set_tempo,,,,,5,1,0,,1578947,,,,,,,
13400,set_tempo,,,,,5,1,0,,1578947,,,,,,,
13405,set_tempo,,,,,5,1,0,,1578947,,,,,,,
13410,set_tempo,,,,,5,1,0,,1621621,,,,,,,
13415,set_tempo,,,,,5,1,0,,1621621,,,,,,,
13420,set_tempo,,,,,5,1,0,,1621621,,,,,,,
13425,note_on,,,,,0,0,1,,,,,0,,,86,0
13425,note_on,,,,,0,0,2,,,,,0,,,50,0
13425,note_on,,,,,45,0,2,,,,,0,,,62,0
13425,note_on,,,,,0,0,1,,,,,0,,,81,0
13425,note_on,,,,,0,0,1,,,,,0,,,72,0
13425,note_on,,,,,0,0,1,,,,,0,,,78,0
13425,set_tempo,,,,,5,1,0,,1621621,,,,,,,
13425,note_on,,,,,45,0,1,,,,,0,,,74,0
13435,set_tempo,,,,,10,1,0,,1621621,,,,,,,
13435,control_change,,,,,10,0,1,,,,,0,64,0,,
13440,set_tempo,,,,,5,1,0,,1621621,,,,,,,
13440,note_on,,,,,5,0,1,,,,,0,,,60,120
13440,note_on,,,,,0,0,1,,,,,0,,,62,120
13440,note_on,,,,,0,0,1,,,,,0,,,66,120
13440,note_on,,,,,0,0,1,,,,,0,,,69,120
13440,note_on,,,,,0,0,1,,,,,0,,,74,120
13440,control_change,,,,,0,0,1,,,,,0,64,97,,
13450,set_tempo,,,,,10,1,0,,1666666,,,,,,,
13455,set_tempo,,,,,5,1,0,,1666666,,,,,,,
13460,set_tempo,,,,,5,1,0,,1666666,,,,,,,
13470,note_on,,,,,0,0,2,,,,,0,,,50,118
13470,note_on,,,,,45,0,2,,,,,0,,,38,118
13470,set_tempo,,,,,10,1,0,,1666666,,,,,,,
13475,set_tempo,,,,,5,1,0,,1666666,,,,,,,
13480,set_tempo,,,,,5,1,0,,1714285,,,,,,,
13485,note_on,,,,,0,0,1,,,,,0,,,66,0
13485,note_on,,,,,0,0,1,,,,,0,,,60,0
13485,note_on,,,,,0,0,1,,,,,0,,,69,0
13485,note_on,,,,,0,0,1,,,,,0,,,62,0
13485,note_on,,,,,45,0,1,,,,,0,,,74,0
13495,set_tempo,,,,,15,1,0,,1714285,,,,,,,
13495,control_change,,,,,10,0,1,,,,,0,64,0,,
13500,note_on,,,,,0,0,2,,,,,0,,,43,126
13500,note_on,,,,,0,0,2,,,,,0,,,31,126
13500,note_on,,,,,0,0,2,,,,,0,,,38,0
13500,note_on,,,,,30,0,2,,,,,0,,,50,0
13500,control_change,,,,,5,0,1,,,,,0,64,95,,
13505,set_tempo,,,,,10,1,0,,1714285,,,,,,,
13515,set_tempo,,,,,10,1,0,,1714285,,,,,,,
13520,set_tempo,,,,,5,1,0,,1714285,,,,,,,
13525,set_tempo,,,,,5,1,0,,1764705,,,,,,,
13530,note_on,,,,,0,0,1,,,,,0,,,79,120
13530,note_on,,,,,30,0,1,,,,,0,,,71,120
13530,note_on,,,,,0,0,1,,,,,0,,,74,120
13540,set_tempo,,,,,15,1,0,,1764705,,,,,,,
13545,set_tempo,,,,,5,1,0,,1764705,,,,,,,
13545,note_on,,,,,0,0,2,,,,,0,,,31,0
13545,note_on,,,,,45,0,2,,,,,0,,,43,0
13555,control_change,,,,,25,0,1,,,,,0,64,0,,
13555,set_tempo,,,,,10,1,0,,1764705,,,,,,,
13560,note_on,,,,,15,0,2,,,,,0,,,43,108
13560,note_on,,,,,5,0,1,,,,,0,,,79,0
13560,note_on,,,,,0,0,1,,,,,0,,,74,0
13560,note_on,,,,,0,0,1,,,,,0,,,71,0
13560,note_on,,,,,0,0,1,,,,,0,,,83,126
13560,note_on,,,,,0,0,1,,,,,0,,,74,126
13560,note_on,,,,,0,0,1,,,,,0,,,71,126
13560,note_on,,,,,0,0,1,,,,,0,,,79,126
13560,note_on,,,,,0,0,2,,,,,0,,,55,108
13560,control_change,,,,,0,0,1,,,,,0,64,95,,
13560,set_tempo,,,,,5,1,0,,1764705,,,,,,,
13570,set_tempo,,,,,10,1,0,,1764705,,,,,,,
13580,set_tempo,,,,,10,1,0,,1818181,,,,,,,
13595,set_tempo,,,,,15,1,0,,1875000,,,,,,,
13600,set_tempo,,,,,5,1,0,,1875000,,,,,,,
13605,note_on,,,,,0,0,1,,,,,0,,,71,0
13605,note_on,,,,,0,0,1,,,,,0,,,74,0
13605,note_on,,,,,0,0,1,,,,,0,,,83,0
13605,note_on,,,,,45,0,1,,,,,0,,,79,0
13605,set_tempo,,,,,5,1,0,,1875000,,,,,,,
13605,note_on,,,,,45,0,2,,,,,0,,,55,0
13605,note_on,,,,,0,0,2,,,,,0,,,43,0
13615,control_change,,,,,10,0,1,,,,,0,64,0,,
13615,set_tempo,,,,,10,1,0,,1935483,,,,,,,
13620,control_change,,,,,0,0,1,,,,,0,64,97,,
13620,set_tempo,,,,,5,1,0,,1935483,,,,,,,
13620,note_on,,,,,5,0,1,,,,,0,,,59,100
13620,note_on,,,,,0,0,1,,,,,0,,,67,100
13620,note_on,,,,,0,0,1,,,,,0,,,62,100
13625,set_tempo,,,,,5,1,0,,2000000,,,,,,,
13635,set_tempo,,,,,10,1,0,,2000000,,,,,,,
13640,note_on,,,,,0,0,1,,,,,0,,,62,0
13640,note_on,,,,,0,0,1,,,,,0,,,59,0
13640,set_tempo,,,,,5,1,0,,2000000,,,,,,,
13640,note_on,,,,,20,0,1,,,,,0,,,67,0
13645,set_tempo,,,,,5,1,0,,2000000,,,,,,,
13650,note_on,,,,,10,0,1,,,,,0,,,86,118
13650,set_tempo,,,,,5,1,0,,2000000,,,,,,,
13655,set_tempo,,,,,5,1,0,,2068965,,,,,,,
13670,set_tempo,,,,,15,1,0,,1818181,,,,,,,
13675,control_change,,,,,25,0,1,,,,,0,64,0,,
13675,set_tempo,,,,,5,1,0,,1818181,,,,,,,
13680,note_on,,,,,75,0,2,,,,,0,,,40,122
13680,note_on,,,,,0,0,2,,,,,0,,,52,122
13680,note_on,,,,,0,0,1,,,,,0,,,91,119
13680,note_on,,,,,5,0,1,,,,,0,,,86,0
13680,set_tempo,,,,,5,1,0,,1764705,,,,,,,
13680,control_change,,,,,0,0,1,,,,,0,64,96,,
13685,set_tempo,,,,,5,1,0,,1764705,,,,,,,
13690,set_tempo,,,,,5,1,0,,1764705,,,,,,,
13695,set_tempo,,,,,5,1,0,,1764705,,,,,,,
13695,note_on,,,,,15,0,1,,,,,0,,,91,0
13695,note_on,,,,,0,0,1,,,,,0,,,85,114
13700,set_tempo,,,,,5,1,0,,1714285,,,,,,,
13702,note_on,,,,,0,0,2,,,,,0,,,40,0
13702,note_on,,,,,22,0,2,,,,,0,,,52,0
13705,set_tempo,,,,,5,1,0,,1714285,,,,,,,
13706,note_on,,,,,11,0,1,,,,,0,,,85,0
13710,note_on,,,,,0,0,2,,,,,0,,,58,120
13710,note_on,,,,,0,0,2,,,,,0,,,55,120
13710,note_on,,,,,0,0,2,,,,,0,,,52,120
13710,set_tempo,,,,,5,1,0,,1666666,,,,,,,
13710,note_on,,,,,8,0,2,,,,,0,,,61,120
13710,note_on,,,,,4,0,1,,,,,0,,,88,106
13715,set_tempo,,,,,5,1,0,,1621621,,,,,,,
13720,set_tempo,,,,,5,1,0,,1621621,,,,,,,
13725,note_on,,,,,0,0,1,,,,,0,,,82,99
13725,note_on,,,,,15,0,1,,,,,0,,,88,0
13725,set_tempo,,,,,5,1,0,,1621621,,,,,,,
13730,set_tempo,,,,,5,1,0,,1621621,,,,,,,
13732,note_on,,,,,22,0,2,,,,,0,,,52,0
13732,note_on,,,,,0,0,2,,,,,0,,,55,0
13732,note_on,,,,,0,0,2,,,,,0,,,58,0
13732,note_on,,,,,0,0,2,,,,,0,,,61,0
13735,set_tempo,,,,,5,1,0,,1621621,,,,,,,
13735,control_change,,,,,10,0,1,,,,,0,64,0,,
13736,note_on,,,,,1,0,1,,,,,0,,,82,0
13740,note_on,,,,,4,0,1,,,,,0,,,85,94
13740,control_change,,,,,0,0,1,,,,,0,64,95,,
13740,note_on,,,,,0,0,2,,,,,0,,,58,122
13740,note_on,,,,,0,0,2,,,,,0,,,61,122
13740,set_tempo,,,,,5,1,0,,1578947,,,,,,,
13740,note_on,,,,,8,0,2,,,,,0,,,55,122
13740,note_on,,,,,0,0,2,,,,,0,,,64,122
13745,set_tempo,,,,,5,1,0,,1578947,,,,,,,
13750,set_tempo,,,,,5,1,0,,1578947,,,,,,,
13755,set_tempo,,,,,5,1,0,,1538461,,,,,,,
13755,note_on,,,,,15,0,1,,,,,0,,,85,0
13755,note_on,,,,,0,0,1,,,,,0,,,79,91
13760,set_tempo,,,,,5,1,0,,1538461,,,,,,,
13765,set_tempo,,,,,5,1,0,,1538461,,,,,,,
13766,note_on,,,,,11,0,1,,,,,0,,,79,0
13770,set_tempo,,,,,5,1,0,,1538461,,,,,,,
13770,note_on,,,,,4,0,1,,,,,0,,,82,83
13780,set_tempo,,,,,10,1,0,,1538461,,,,,,,
13785,note_on,,,,,15,0,1,,,,,0,,,82,0
13785,note_on,,,,,0,0,2,,,,,0,,,64,0
13785,note_on,,,,,0,0,2,,,,,0,,,55,0
13785,note_on,,,,,45,0,2,,,,,0,,,58,0
13785,set_tempo,,,,,5,1,0,,1538461,,,,,,,
13785,note_on,,,,,0,0,1,,,,,0,,,76,74
13785,note_on,,,,,0,0,2,,,,,0,,,61,0
13790,set_tempo,,,,,5,1,0,,1578947,,,,,,,
13795,control_change,,,,,10,0,1,,,,,0,64,0,,
13796,note_on,,,,,1,0,1,,,,,0,,,76,0
13800,note_on,,,,,4,0,1,,,,,0,,,79,70
13800,note_on,,,,,0,0,2,,,,,0,,,58,83
13800,set_tempo,,,,,10,1,0,,1578947,,,,,,,
13800,note_on,,,,,15,0,2,,,,,0,,,67,83
13800,note_on,,,,,0,0,2,,,,,0,,,64,83
13800,note_on,,,,,0,0,2,,,,,0,,,61,83
13810,set_tempo,,,,,10,1,0,,1621621,,,,,,,
13815,note_on,,,,,0,0,1,,,,,0,,,73,70
13815,note_on,,,,,15,0,1,,,,,0,,,79,0
13826,note_on,,,,,11,0,1,,,,,0,,,73,0
13830,note_on,,,,,4,0,1,,,,,0,,,76,68
13845,note_on,,,,,0,0,2,,,,,0,,,67,0
13845,note_on,,,,,45,0,2,,,,,0,,,58,0
13845,note_on,,,,,0,0,2,,,,,0,,,61,0
13845,note_on,,,,,15,0,1,,,,,0,,,76,0
13845,note_on,,,,,0,0,1,,,,,0,,,70,66
13845,note_on,,,,,0,0,2,,,,,0,,,64,0
13856,note_on,,,,,11,0,1,,,,,0,,,70,0
13860,note_on,,,,,15,0,2,,,,,0,,,38,122
13860,set_tempo,,,,,50,1,0,,1428571,,,,,,,
13860,note_on,,,,,4,0,1,,,,,0,,,90,119
13860,control_change,,,,,0,0,1,,,,,0,64,96,,
13860,note_on,,,,,0,0,2,,,,,0,,,50,122
13870,set_tempo,,,,,10,1,0,,1428571,,,,,,,
13875,note_on,,,,,15,0,1,,,,,0,,,90,0
13875,note_on,,,,,0,0,1,,,,,0,,,83,114
13882,note_on,,,,,0,0,2,,,,,0,,,38,0
13882,note_on,,,,,22,0,2,,,,,0,,,50,0
13886,note_on,,,,,11,0,1,,,,,0,,,83,0
13890,note_on,,,,,0,0,2,,,,,0,,,54,117
13890,note_on,,,,,8,0,2,,,,,0,,,50,117
13890,note_on,,,,,0,0,2,,,,,0,,,59,117
13890,note_on,,,,,4,0,1,,,,,0,,,86,106
13905,note_on,,,,,15,0,1,,,,,0,,,86,0
13905,note_on,,,,,0,0,1,,,,,0,,,78,99
13912,note_on,,,,,22,0,2,,,,,0,,,59,0
13912,note_on,,,,,0,0,2,,,,,0,,,54,0
13912,note_on,,,,,0,0,2,,,,,0,,,50,0
13915,control_change,,,,,10,0,1,,,,,0,64,0,,
13916,note_on,,,,,1,0,1,,,,,0,,,78,0
13920,set_tempo,,,,,50,1,0,,1463414,,,,,,,
13920,note_on,,,,,4,0,1,,,,,0,,,83,94
13920,control_change,,,,,0,0,1,,,,,0,64,95,,
13920,note_on,,,,,0,0,2,,,,,0,,,62,121
13920,note_on,,,,,0,0,2,,,,,0,,,59,121
13920,note_on,,,,,8,0,2,,,,,0,,,54,121
13925,set_tempo,,,,,5,1,0,,1463414,,,,,,,
13930,set_tempo,,,,,5,1,0,,1500000,,,,,,,
13935,set_tempo,,,,,5,1,0,,1500000,,,,,,,
13935,note_on,,,,,0,0,1,,,,,0,,,74,91
13935,note_on,,,,,15,0,1,,,,,0,,,83,0
13940,set_tempo,,,,,5,1,0,,1500000,,,,,,,
13945,set_tempo,,,,,5,1,0,,1500000,,,,,,,
13946,note_on,,,,,11,0,1,,,,,0,,,74,0
13950,set_tempo,,,,,5,1,0,,1538461,,,,,,,
13950,note_on,,,,,4,0,1,,,,,0,,,78,83
13960,set_tempo,,,,,10,1,0,,1538461,,,,,,,
13965,note_on,,,,,15,0,1,,,,,0,,,78,0
13965,note_on,,,,,0,0,1,,,,,0,,,71,74
13965,set_tempo,,,,,5,1,0,,1500000,,,,,,,
13965,note_on,,,,,45,0,2,,,,,0,,,62,0
13965,note_on,,,,,0,0,2,,,,,0,,,59,0
13965,note_on,,,,,0,0,2,,,,,0,,,54,0
13975,control_change,,,,,10,0,1,,,,,0,64,0,,
13976,note_on,,,,,1,0,1,,,,,0,,,71,0
13980,set_tempo,,,,,15,1,0,,1500000,,,,,,,
13980,note_on,,,,,4,0,1,,,,,0,,,74,70
13980,note_on,,,,,15,0,2,,,,,0,,,66,85
13980,note_on,,,,,0,0,2,,,,,0,,,62,85
13980,note_on,,,,,0,0,2,,,,,0,,,59,85
13985,set_tempo,,,,,5,1,0,,1500000,,,,,,,
13995,note_on,,,,,15,0,1,,,,,0,,,74,0
13995,note_on,,,,,0,0,1,,,,,0,,,66,70
13995,set_tempo,,,,,10,1,0,,1500000,,,,,,,
14000,set_tempo,,,,,5,1,0,,1500000,,,,,,,
14005,set_tempo,,,,,5,1,0,,1463414,,,,,,,
14006,note_on,,,,,11,0,1,,,,,0,,,66,0
14010,set_tempo,,,,,5,1,0,,1463414,,,,,,,
14010,note_on,,,,,4,0,1,,,,,0,,,71,68
14015,set_tempo,,,,,5,1,0,,1463414,,,,,,,
14025,note_on,,,,,0,0,1,,,,,0,,,62,66
14025,note_on,,,,,0,0,2,,,,,0,,,66,0
14025,note_on,,,,,45,0,2,,,,,0,,,59,0
14025,note_on,,,,,0,0,2,,,,,0,,,62,0
14025,set_tempo,,,,,10,1,0,,1463414,,,,,,,
14025,note_on,,,,,15,0,1,,,,,0,,,71,0
14030,set_tempo,,,,,5,1,0,,1463414,,,,,,,
14036,note_on,,,,,11,0,1,,,,,0,,,62,0
14040,set_tempo,,,,,10,1,0,,1463414,,,,,,,
14040,control_change,,,,,0,0,2,,,,,0,64,96,,
14040,note_on,,,,,4,0,1,,,,,0,,,71,119
14040,control_change,,,,,0,0,1,,,,,0,64,96,,
14040,note_on,,,,,15,0,2,,,,,0,,,59,119
14045,set_tempo,,,,,5,1,0,,1463414,,,,,,,
14055,note_on,,,,,0,0,1,,,,,0,,,64,114
14055,note_on,,,,,15,0,2,,,,,0,,,59,0
14055,note_on,,,,,0,0,2,,,,,0,,,52,114
14055,note_on,,,,,15,0,1,,,,,0,,,71,0
14066,note_on,,,,,11,0,2,,,,,0,,,52,0
14066,note_on,,,,,11,0,1,,,,,0,,,64,0
14070,note_on,,,,,4,0,2,,,,,0,,,55,106
14070,note_on,,,,,4,0,1,,,,,0,,,67,106
14080,set_tempo,,,,,35,1,0,,1463414,,,,,,,
14085,note_on,,,,,15,0,1,,,,,0,,,67,0
14085,note_on,,,,,0,0,1,,,,,0,,,61,99
14085,set_tempo,,,,,5,1,0,,1463414,,,,,,,
14085,note_on,,,,,0,0,2,,,,,0,,,49,99
14085,note_on,,,,,15,0,2,,,,,0,,,55,0
14090,set_tempo,,,,,5,1,0,,1463414,,,,,,,
14095,control_change,,,,,10,0,1,,,,,0,64,0,,
14095,control_change,,,,,10,0,2,,,,,0,64,0,,
14096,note_on,,,,,1,0,1,,,,,0,,,61,0
14096,note_on,,,,,1,0,2,,,,,0,,,49,0
14100,control_change,,,,,0,0,2,,,,,0,64,95,,
14100,note_on,,,,,4,0,1,,,,,0,,,64,94
14100,control_change,,,,,0,0,1,,,,,0,64,95,,
14100,note_on,,,,,4,0,2,,,,,0,,,52,94
14105,set_tempo,,,,,15,1,0,,1463414,,,,,,,
14110,set_tempo,,,,,5,1,0,,1463414,,,,,,,
14115,note_on,,,,,0,0,1,,,,,0,,,59,91
14115,note_on,,,,,0,0,2,,,,,0,,,47,91
14115,note_on,,,,,15,0,2,,,,,0,,,52,0
14115,note_on,,,,,15,0,1,,,,,0,,,64,0
14125,set_tempo,,,,,15,1,0,,1500000,,,,,,,
14126,note_on,,,,,11,0,1,,,,,0,,,59,0
14126,note_on,,,,,11,0,2,,,,,0,,,47,0
14130,note_on,,,,,4,0,1,,,,,0,,,61,83
14130,note_on,,,,,4,0,2,,,,,0,,,49,83
14135,set_tempo,,,,,10,1,0,,1500000,,,,,,,
14140,set_tempo,,,,,5,1,0,,1500000,,,,,,,
14145,note_on,,,,,15,0,1,,,,,0,,,61,0
14145,note_on,,,,,15,0,2,,,,,0,,,49,0
14145,note_on,,,,,0,0,2,,,,,0,,,43,75
14145,note_on,,,,,0,0,1,,,,,0,,,55,74
14145,set_tempo,,,,,5,1,0,,1538461,,,,,,,
14150,set_tempo,,,,,5,1,0,,1538461,,,,,,,
14155,control_change,,,,,10,0,2,,,,,0,64,0,,
14155,control_change,,,,,10,0,1,,,,,0,64,0,,
14155,set_tempo,,,,,5,1,0,,1538461,,,,,,,
14156,note_on,,,,,1,0,2,,,,,0,,,43,0
14156,note_on,,,,,1,0,1,,,,,0,,,55,0
14160,note_on,,,,,4,0,1,,,,,0,,,59,70
14160,set_tempo,,,,,5,1,0,,1538461,,,,,,,
14160,note_on,,,,,4,0,2,,,,,0,,,47,78
14170,set_tempo,,,,,10,1,0,,1538461,,,,,,,
14175,note_on,,,,,15,0,1,,,,,0,,,59,0
14175,note_on,,,,,0,0,2,,,,,0,,,40,86
14175,note_on,,,,,15,0,2,,,,,0,,,47,0
14175,note_on,,,,,0,0,1,,,,,0,,,52,70
14175,set_tempo,,,,,5,1,0,,1538461,,,,,,,
14185,set_tempo,,,,,10,1,0,,1578947,,,,,,,
14186,note_on,,,,,11,0,1,,,,,0,,,52,0
14186,note_on,,,,,11,0,2,,,,,0,,,40,0
14190,note_on,,,,,4,0,1,,,,,0,,,55,66
14190,note_on,,,,,4,0,2,,,,,0,,,43,94
14195,set_tempo,,,,,10,1,0,,1578947,,,,,,,
14205,note_on,,,,,15,0,2,,,,,0,,,43,0
14205,note_on,,,,,0,0,2,,,,,0,,,37,101
14205,note_on,,,,,0,0,1,,,,,0,,,49,72
14205,note_on,,,,,15,0,1,,,,,0,,,55,0
14205,set_tempo,,,,,10,1,0,,1578947,,,,,,,
14210,set_tempo,,,,,5,1,0,,1764705,,,,,,,
14215,note_on,,,,,0,0,2,,,,,0,,,40,106
14215,set_tempo,,,,,5,1,0,,1764705,,,,,,,
14215,note_on,,,,,10,0,2,,,,,0,,,37,0
14215,note_on,,,,,10,0,1,,,,,0,,,49,0
14215,note_on,,,,,0,0,1,,,,,0,,,52,78
14220,note_on,,,,,5,0,1,,,,,0,,,52,0
14220,control_change,,,,,0,0,1,,,,,0,64,95,,
14220,note_on,,,,,0,0,2,,,,,0,,,38,108
14220,note_on,,,,,5,0,2,,,,,0,,,40,0
14220,note_on,,,,,0,0,1,,,,,0,,,50,82
14225,set_tempo,,,,,10,1,0,,1764705,,,,,,,
14226,note_on,,,,,6,0,1,,,,,0,,,50,0
14226,note_on,,,,,0,0,1,,,,,0,,,52,85
14226,note_on,,,,,0,0,2,,,,,0,,,40,110
14226,note_on,,,,,6,0,2,,,,,0,,,38,0
14230,set_tempo,,,,,5,1,0,,1764705,,,,,,,
14232,note_on,,,,,0,0,1,,,,,0,,,50,89
14232,note_on,,,,,0,0,2,,,,,0,,,38,112
14232,note_on,,,,,6,0,1,,,,,0,,,52,0
14232,note_on,,,,,6,0,2,,,,,0,,,40,0
14235,set_tempo,,,,,5,1,0,,1764705,,,,,,,
14238,note_on,,,,,0,0,2,,,,,0,,,40,112
14238,note_on,,,,,6,0,2,,,,,0,,,38,0
14238,note_on,,,,,0,0,1,,,,,0,,,52,95
14238,note_on,,,,,6,0,1,,,,,0,,,50,0
14244,note_on,,,,,0,0,1,,,,,0,,,50,101
14244,note_on,,,,,6,0,2,,,,,0,,,40,0
14244,note_on,,,,,0,0,2,,,,,0,,,38,112
14244,note_on,,,,,6,0,1,,,,,0,,,52,0
14245,set_tempo,,,,,10,1,0,,1714285,,,,,,,
14250,note_on,,,,,6,0,2,,,,,0,,,38,0
14250,set_tempo,,,,,5,1,0,,1714285,,,,,,,
14250,note_on,,,,,0,0,2,,,,,0,,,40,116
14250,note_on,,,,,6,0,1,,,,,0,,,50,0
14250,note_on,,,,,0,0,1,,,,,0,,,52,105
14256,note_on,,,,,6,0,1,,,,,0,,,52,0
14256,note_on,,,,,0,0,1,,,,,0,,,50,107
14256,note_on,,,,,0,0,2,,,,,0,,,38,117
14256,note_on,,,,,6,0,2,,,,,0,,,40,0
14260,set_tempo,,,,,10,1,0,,1714285,,,,,,,
14262,note_on,,,,,6,0,2,,,,,0,,,38,0
14262,note_on,,,,,0,0,2,,,,,0,,,37,119
14262,note_on,,,,,0,0,1,,,,,0,,,49,112
14262,note_on,,,,,6,0,1,,,,,0,,,50,0
14268,note_on,,,,,0,0,2,,,,,0,,,38,122
14268,note_on,,,,,0,0,1,,,,,0,,,50,117
14268,note_on,,,,,6,0,2,,,,,0,,,37,0
14268,note_on,,,,,6,0,1,,,,,0,,,49,0
14270,set_tempo,,,,,10,1,0,,1714285,,,,,,,
14274,note_on,,,,,6,0,2,,,,,0,,,38,0
14274,note_on,,,,,0,0,2,,,,,0,,,40,123
14274,note_on,,,,,6,0,1,,,,,0,,,50,0
14274,note_on,,,,,0,0,1,,,,,0,,,52,120
14275,set_tempo,,,,,5,1,0,,1578947,,,,,,,
14280,note_on,,,,,6,0,2,,,,,0,,,40,0
14280,note_on,,,,,0,0,2,,,,,0,,,42,127
14280,note_on,,,,,6,0,1,,,,,0,,,52,0
14280,note_on,,,,,0,0,1,,,,,0,,,54,127
14280,control_change,,,,,0,0,1,,,,,0,64,0,,
14285,set_tempo,,,,,10,1,0,,1621621,,,,,,,
14295,set_tempo,,,,,10,1,0,,1621621,,,,,,,
14300,set_tempo,,,,,5,1,0,,1621621,,,,,,,
14305,set_tempo,,,,,5,1,0,,1666666,,,,,,,
14310,set_tempo,,,,,5,1,0,,1666666,,,,,,,
14320,set_tempo,,,,,10,1,0,,1666666,,,,,,,
14325,note_on,,,,,45,0,2,,,,,0,,,42,0
14325,note_on,,,,,45,0,1,,,,,0,,,54,0
14330,set_tempo,,,,,10,1,0,,1666666,,,,,,,
14340,note_on,,,,,0,0,2,,,,,0,,,42,126
14340,note_on,,,,,0,0,1,,,,,0,,,70,125
14340,control_change,,,,,0,0,1,,,,,0,64,95,,
14340,note_on,,,,,15,0,2,,,,,0,,,54,126
14340,note_on,,,,,0,0,1,,,,,0,,,82,125
14340,note_on,,,,,15,0,1,,,,,0,,,73,125
14340,note_on,,,,,0,0,1,,,,,0,,,78,125
14345,set_tempo,,,,,15,1,0,,1666666,,,,,,,
14355,set_tempo,,,,,10,1,0,,1666666,,,,,,,
14392,note_on,,,,,0,0,2,,,,,0,,,54,0
14392,note_on,,,,,52,0,1,,,,,0,,,82,0
14392,note_on,,,,,0,0,1,,,,,0,,,73,0
14392,note_on,,,,,0,0,1,,,,,0,,,70,0
14392,note_on,,,,,52,0,2,,,,,0,,,42,0
14392,note_on,,,,,0,0,1,,,,,0,,,78,0
14395,control_change,,,,,3,0,1,,,,,0,64,0,,
14400,note_on,,,,,8,0,2,,,,,0,,,35,127
14400,control_change,,,,,0,0,1,,,,,0,64,96,,
14400,note_on,,,,,0,0,1,,,,,0,,,78,127
14400,note_on,,,,,0,0,1,,,,,0,,,71,127
14400,note_on,,,,,5,0,1,,,,,0,,,74,127
14400,note_on,,,,,0,0,2,,,,,0,,,47,127
14400,note_on,,,,,0,0,1,,,,,0,,,83,127
14445,note_on,,,,,45,0,1,,,,,0,,,83,0
14445,note_on,,,,,0,0,1,,,,,0,,,71,0
14445,note_on,,,,,0,0,1,,,,,0,,,78,0
14445,note_on,,,,,45,0,2,,,,,0,,,47,0
14445,note_on,,,,,0,0,1,,,,,0,,,74,0
14445,note_on,,,,,0,0,2,,,,,0,,,35,0
14455,control_change,,,,,10,0,1,,,,,0,64,0,,
14460,note_on,,,,,15,0,2,,,,,0,,,47,104
14460,control_change,,,,,0,0,1,,,,,0,64,95,,
14460,note_on,,,,,5,0,1,,,,,0,,,71,104
14505,note_on,,,,,45,0,1,,,,,0,,,71,0
14505,note_on,,,,,45,0,2,,,,,0,,,47,0
14515,control_change,,,,,10,0,1,,,,,0,64,0,,
14550,note_on,,,,,0,0,1,,,,,0,,,90,71
14550,note_on,,,,,35,0,1,,,,,0,,,78,71
14565,set_tempo,,,,,210,1,0,,1666666,,,,,,,
14570,set_tempo,,,,,5,1,0,,1666666,,,,,,,
14575,set_tempo,,,,,5,1,0,,1666666,,,,,,,
14580,note_on,,,,,0,0,1,,,,,0,,,78,0
14580,note_on,,,,,0,0,1,,,,,0,,,91,62
14580,note_on,,,,,75,0,2,,,,,0,,,52,32
14580,note_on,,,,,0,0,1,,,,,0,,,79,62
14580,control_change,,,,,0,0,1,,,,,0,64,95,,
14580,note_on,,,,,30,0,1,,,,,0,,,90,0
14585,set_tempo,,,,,10,1,0,,1666666,,,,,,,
14590,set_tempo,,,,,5,1,0,,1621621,,,,,,,
14595,note_on,,,,,0,0,2,,,,,0,,,55,36
14595,note_on,,,,,15,0,2,,,,,0,,,52,0
14600,set_tempo,,,,,10,1,0,,1621621,,,,,,,
14602,note_on,,,,,22,0,1,,,,,0,,,91,0
14602,note_on,,,,,0,0,1,,,,,0,,,79,0
14605,set_tempo,,,,,5,1,0,,1621621,,,,,,,
14610,note_on,,,,,8,0,1,,,,,0,,,66,51
14610,note_on,,,,,15,0,2,,,,,0,,,55,0
14610,note_on,,,,,0,0,2,,,,,0,,,60,38
14610,note_on,,,,,0,0,1,,,,,0,,,78,51
14615,set_tempo,,,,,10,1,0,,1621621,,,,,,,
14620,set_tempo,,,,,5,1,0,,1621621,,,,,,,
14625,note_on,,,,,0,0,2,,,,,0,,,55,41
14625,set_tempo,,,,,5,1,0,,1621621,,,,,,,
14625,note_on,,,,,15,0,2,,,,,0,,,60,0
14635,set_tempo,,,,,10,1,0,,1621621,,,,,,,
14640,note_on,,,,,15,0,2,,,,,0,,,55,0
14640,note_on,,,,,0,0,2,,,,,0,,,52,43
14640,note_on,,,,,0,0,1,,,,,0,,,79,62
14640,note_on,,,,,30,0,1,,,,,0,,,78,0
14640,note_on,,,,,0,0,1,,,,,0,,,66,0
14640,note_on,,,,,0,0,1,,,,,0,,,67,62
14645,set_tempo,,,,,10,1,0,,1578947,,,,,,,
14655,set_tempo,,,,,10,1,0,,1578947,,,,,,,
14655,note_on,,,,,15,0,2,,,,,0,,,52,0
14655,note_on,,,,,0,0,2,,,,,0,,,55,44
14665,set_tempo,,,,,10,1,0,,1578947,,,,,,,
14670,note_on,,,,,0,0,2,,,,,0,,,60,45
14670,note_on,,,,,15,0,2,,,,,0,,,55,0
14670,set_tempo,,,,,5,1,0,,1578947,,,,,,,
14685,note_on,,,,,15,0,2,,,,,0,,,60,0
14685,note_on,,,,,0,0,2,,,,,0,,,55,46
14685,set_tempo,,,,,15,1,0,,1578947,,,,,,,
14690,set_tempo,,,,,5,1,0,,1578947,,,,,,,
14695,set_tempo,,,,,5,1,0,,1538461,,,,,,,
14700,note_on,,,,,60,0,1,,,,,0,,,79,0
14700,note_on,,,,,0,0,1,,,,,0,,,67,0
14700,note_on,,,,,0,0,1,,,,,0,,,60,49
14700,control_change,,,,,0,0,1,,,,,0,64,0,,
14700,note_on,,,,,0,0,2,,,,,0,,,52,47
14700,note_on,,,,,15,0,2,,,,,0,,,55,0
14700,note_on,,,,,0,0,1,,,,,0,,,72,49
14705,set_tempo,,,,,10,1,0,,1538461,,,,,,,
14710,set_tempo,,,,,5,1,0,,1578947,,,,,,,
14715,note_on,,,,,0,0,2,,,,,0,,,55,45
14715,note_on,,,,,15,0,2,,,,,0,,,52,0
14724,note_on,,,,,24,0,1,,,,,0,,,72,0
14724,note_on,,,,,0,0,1,,,,,0,,,60,0
14725,set_tempo,,,,,15,1,0,,1578947,,,,,,,
14730,note_on,,,,,6,0,1,,,,,0,,,79,67
14730,note_on,,,,,0,0,1,,,,,0,,,91,67
14730,note_on,,,,,0,0,2,,,,,0,,,60,43
14730,note_on,,,,,15,0,2,,,,,0,,,55,0
14735,set_tempo,,,,,10,1,0,,1578947,,,,,,,
14740,set_tempo,,,,,5,1,0,,1578947,,,,,,,
14745,set_tempo,,,,,5,1,0,,1621621,,,,,,,
14745,note_on,,,,,0,0,2,,,,,0,,,55,40
14745,note_on,,,,,15,0,2,,,,,0,,,60,0
14750,set_tempo,,,,,5,1,0,,1621621,,,,,,,
14755,set_tempo,,,,,5,1,0,,1621621,,,,,,,
14760,note_on,,,,,30,0,1,,,,,0,,,91,0
14760,note_on,,,,,0,0,1,,,,,0,,,79,0
14760,note_on,,,,,0,0,1,,,,,0,,,78,62
14760,note_on,,,,,0,0,1,,,,,0,,,90,62
14760,control_change,,,,,0,0,1,,,,,0,64,95,,
14760,note_on,,,,,0,0,2,,,,,0,,,50,39
14760,note_on,,,,,15,0,2,,,,,0,,,55,0
14770,set_tempo,,,,,15,1,0,,1578947,,,,,,,
14775,note_on,,,,,15,0,2,,,,,0,,,50,0
14775,note_on,,,,,0,0,2,,,,,0,,,54,40
14780,set_tempo,,,,,10,1,0,,1578947,,,,,,,
14782,note_on,,,,,0,0,1,,,,,0,,,78,0
14782,note_on,,,,,22,0,1,,,,,0,,,90,0
14790,note_on,,,,,8,0,1,,,,,0,,,65,51
14790,note_on,,,,,0,0,2,,,,,0,,,59,43
14790,note_on,,,,,15,0,2,,,,,0,,,54,0
14790,note_on,,,,,0,0,1,,,,,0,,,77,51
14795,set_tempo,,,,,15,1,0,,1578947,,,,,,,
14800,set_tempo,,,,,5,1,0,,1578947,,,,,,,
14805,note_on,,,,,0,0,2,,,,,0,,,54,43
14805,note_on,,,,,15,0,2,,,,,0,,,59,0
14810,set_tempo,,,,,10,1,0,,1578947,,,,,,,
14820,note_on,,,,,0,0,1,,,,,0,,,66,62
14820,note_on,,,,,30,0,1,,,,,0,,,77,0
14820,note_on,,,,,0,0,2,,,,,0,,,50,45
14820,note_on,,,,,15,0,2,,,,,0,,,54,0
14820,note_on,,,,,0,0,1,,,,,0,,,65,0
14820,note_on,,,,,0,0,1,,,,,0,,,78,62
14825,set_tempo,,,,,15,1,0,,1578947,,,,,,,
14835,set_tempo,,,,,10,1,0,,1578947,,,,,,,
14835,note_on,,,,,15,0,2,,,,,0,,,50,0
14835,note_on,,,,,0,0,2,,,,,0,,,54,45
14850,note_on,,,,,15,0,2,,,,,0,,,54,0
14850,note_on,,,,,0,0,2,,,,,0,,,59,45
14865,set_tempo,,,,,30,1,0,,1578947,,,,,,,
14865,note_on,,,,,15,0,2,,,,,0,,,59,0
14865,note_on,,,,,0,0,2,,,,,0,,,54,45
14880,note_on,,,,,0,0,1,,,,,0,,,59,49
14880,control_change,,,,,0,0,1,,,,,0,64,0,,
14880,note_on,,,,,0,0,2,,,,,0,,,50,41
14880,note_on,,,,,0,0,1,,,,,0,,,66,0
14880,note_on,,,,,60,0,1,,,,,0,,,78,0
14880,note_on,,,,,0,0,1,,,,,0,,,71,49
14880,note_on,,,,,15,0,2,,,,,0,,,54,0
14895,note_on,,,,,15,0,2,,,,,0,,,50,0
14895,note_on,,,,,0,0,2,,,,,0,,,54,39
14900,set_tempo,,,,,35,1,0,,1578947,,,,,,,
14904,note_on,,,,,24,0,1,,,,,0,,,71,0
14904,note_on,,,,,0,0,1,,,,,0,,,59,0
14905,set_tempo,,,,,5,1,0,,1578947,,,,,,,
14910,set_tempo,,,,,5,1,0,,1578947,,,,,,,
14910,note_on,,,,,6,0,1,,,,,0,,,71,60
14910,note_on,,,,,0,0,2,,,,,0,,,59,36
14910,note_on,,,,,0,0,1,,,,,0,,,59,60
14910,note_on,,,,,15,0,2,,,,,0,,,54,0
14915,set_tempo,,,,,5,1,0,,1578947,,,,,,,
14920,set_tempo,,,,,5,1,0,,1578947,,,,,,,
14925,note_on,,,,,15,0,2,,,,,0,,,59,0
14925,note_on,,,,,0,0,2,,,,,0,,,54,39
14925,set_tempo,,,,,5,1,0,,1621621,,,,,,,
14930,set_tempo,,,,,5,1,0,,1621621,,,,,,,
14935,set_tempo,,,,,5,1,0,,1578947,,,,,,,
14937,note_on,,,,,12,0,2,,,,,0,,,54,0
14940,note_on,,,,,30,0,1,,,,,0,,,59,0
14940,note_on,,,,,0,0,1,,,,,0,,,71,0
14940,note_on,,,,,0,0,1,,,,,0,,,58,54
14940,note_on,,,,,0,0,1,,,,,0,,,70,54
14940,control_change,,,,,0,0,1,,,,,0,64,96,,
14940,set_tempo,,,,,5,1,0,,1578947,,,,,,,
14940,note_on,,,,,3,0,2,,,,,0,,,49,42
14945,set_tempo,,,,,5,1,0,,1578947,,,,,,,
14950,set_tempo,,,,,5,1,0,,1578947,,,,,,,
14955,note_on,,,,,15,0,2,,,,,0,,,49,0
14955,note_on,,,,,0,0,2,,,,,0,,,52,45
14960,set_tempo,,,,,10,1,0,,1578947,,,,,,,
14970,note_on,,,,,0,0,1,,,,,0,,,58,0
14970,note_on,,,,,30,0,1,,,,,0,,,70,0
14970,set_tempo,,,,,10,1,0,,1578947,,,,,,,
14970,note_on,,,,,0,0,1,,,,,0,,,83,65
14970,note_on,,,,,0,0,1,,,,,0,,,71,65
14970,note_on,,,,,0,0,2,,,,,0,,,58,49
14970,note_on,,,,,15,0,2,,,,,0,,,52,0
14980,set_tempo,,,,,10,1,0,,1578947,,,,,,,
14985,note_on,,,,,15,0,2,,,,,0,,,58,0
14985,set_tempo,,,,,5,1,0,,1538461,,,,,,,
14985,note_on,,,,,0,0,2,,,,,0,,,52,52
15000,note_on,,,,,15,0,2,,,,,0,,,52,0
15000,note_on,,,,,0,0,2,,,,,0,,,49,56
15000,control_change,,,,,0,0,1,,,,,0,64,0,,
15000,note_on,,,,,0,0,1,,,,,0,,,82,56
15000,note_on,,,,,0,0,1,,,,,0,,,70,56
15000,note_on,,,,,0,0,1,,,,,0,,,71,0
15000,note_on,,,,,30,0,1,,,,,0,,,83,0
15000,set_tempo,,,,,15,1,0,,1538461,,,,,,,
15005,set_tempo,,,,,5,1,0,,1538461,,,,,,,
15010,set_tempo,,,,,5,1,0,,1538461,,,,,,,
15015,note_on,,,,,15,0,2,,,,,0,,,49,0
15015,note_on,,,,,0,0,2,,,,,0,,,52,57
15025,set_tempo,,,,,15,1,0,,1538461,,,,,,,
15027,note_on,,,,,27,0,1,,,,,0,,,82,0
15027,note_on,,,,,0,0,1,,,,,0,,,70,0
15030,note_on,,,,,3,0,1,,,,,0,,,78,65
15030,note_on,,,,,0,0,1,,,,,0,,,90,65
15030,control_change,,,,,0,0,1,,,,,0,64,96,,
15030,note_on,,,,,15,0,2,,,,,0,,,52,0
15030,note_on,,,,,0,0,2,,,,,0,,,58,55
15030,set_tempo,,,,,5,1,0,,1538461,,,,,,,
15035,set_tempo,,,,,5,1,0,,1538461,,,,,,,
15045,set_tempo,,,,,10,1,0,,1538461,,,,,,,
15045,note_on,,,,,15,0,2,,,,,0,,,58,0
15045,note_on,,,,,0,0,2,,,,,0,,,52,55
15050,set_tempo,,,,,5,1,0,,1538461,,,,,,,
15052,note_on,,,,,22,0,1,,,,,0,,,90,0
15052,note_on,,,,,0,0,1,,,,,0,,,78,0
15060,note_on,,,,,15,0,2,,,,,0,,,52,0
15060,note_on,,,,,0,0,2,,,,,0,,,49,49
15060,note_on,,,,,0,0,1,,,,,0,,,90,73
15060,note_on,,,,,8,0,1,,,,,0,,,78,73
15065,set_tempo,,,,,15,1,0,,1578947,,,,,,,
15070,set_tempo,,,,,5,1,0,,1578947,,,,,,,
15075,set_tempo,,,,,5,1,0,,1621621,,,,,,,
15075,note_on,,,,,15,0,2,,,,,0,,,49,0
15075,note_on,,,,,0,0,2,,,,,0,,,52,43
15080,set_tempo,,,,,5,1,0,,1621621,,,,,,,
15082,note_on,,,,,22,0,1,,,,,0,,,90,0
15082,note_on,,,,,0,0,1,,,,,0,,,78,0
15085,set_tempo,,,,,5,1,0,,1621621,,,,,,,
15090,note_on,,,,,0,0,2,,,,,0,,,58,39
15090,note_on,,,,,15,0,2,,,,,0,,,52,0
15090,note_on,,,,,8,0,1,,,,,0,,,78,86
15090,note_on,,,,,0,0,1,,,,,0,,,90,86
15090,set_tempo,,,,,5,1,0,,1666666,,,,,,,
15095,set_tempo,,,,,5,1,0,,1714285,,,,,,,
15100,set_tempo,,,,,5,1,0,,1714285,,,,,,,
15105,note_on,,,,,15,0,2,,,,,0,,,58,0
15105,set_tempo,,,,,5,1,0,,1935483,,,,,,,
15105,note_on,,,,,0,0,2,,,,,0,,,52,36
15112,note_on,,,,,22,0,1,,,,,0,,,90,0
15112,note_on,,,,,0,0,1,,,,,0,,,78,0
15115,control_change,,,,,3,0,1,,,,,0,64,0,,
15120,note_on,,,,,0,0,1,,,,,0,,,90,64
15120,note_on,,,,,5,0,1,,,,,0,,,78,64
15120,set_tempo,,,,,15,1,0,,1666666,,,,,,,
15120,note_on,,,,,15,0,2,,,,,0,,,52,0
15120,note_on,,,,,0,0,2,,,,,0,,,50,36
15120,control_change,,,,,0,0,1,,,,,0,64,95,,
15135,note_on,,,,,15,0,2,,,,,0,,,50,0
15135,note_on,,,,,0,0,2,,,,,0,,,54,38
15150,note_on,,,,,0,0,2,,,,,0,,,59,38
15150,note_on,,,,,15,0,2,,,,,0,,,54,0
15165,note_on,,,,,15,0,2,,,,,0,,,59,0
15165,note_on,,,,,0,0,2,,,,,0,,,54,42
15175,set_tempo,,,,,55,1,0,,1714285,,,,,,,
15180,note_on,,,,,15,0,2,,,,,0,,,54,0
15180,note_on,,,,,0,0,2,,,,,0,,,50,42
15180,set_tempo,,,,,5,1,0,,1666666,,,,,,,
15185,set_tempo,,,,,5,1,0,,1666666,,,,,,,
15185,control_change,,,,,65,0,1,,,,,0,64,0,,
15195,note_on,,,,,15,0,2,,,,,0,,,50,0
15195,set_tempo,,,,,10,1,0,,1666666,,,,,,,
15195,note_on,,,,,0,0,2,,,,,0,,,54,44
15195,note_on,,,,,0,0,1,,,,,0,,,78,0
15195,note_on,,,,,10,0,1,,,,,0,,,90,0
15200,set_tempo,,,,,5,1,0,,1666666,,,,,,,
15205,set_tempo,,,,,5,1,0,,1666666,,,,,,,
15210,note_on,,,,,0,0,1,,,,,0,,,88,59
15210,note_on,,,,,15,0,1,,,,,0,,,76,59
15210,note_on,,,,,15,0,2,,,,,0,,,54,0
15210,note_on,,,,,0,0,2,,,,,0,,,59,45
15225,note_on,,,,,0,0,1,,,,,0,,,78,62
15225,note_on,,,,,0,0,2,,,,,0,,,54,46
15225,note_on,,,,,15,0,1,,,,,0,,,88,0
15225,note_on,,,,,0,0,1,,,,,0,,,76,0
15225,note_on,,,,,15,0,2,,,,,0,,,59,0
15225,note_on,,,,,0,0,1,,,,,0,,,90,62
15235,set_tempo,,,,,30,1,0,,1666666,,,,,,,
15240,note_on,,,,,0,0,1,,,,,0,,,78,0
15240,note_on,,,,,0,0,2,,,,,0,,,52,47
15240,note_on,,,,,15,0,2,,,,,0,,,54,0
15240,note_on,,,,,0,0,1,,,,,0,,,91,63
15240,control_change,,,,,0,0,1,,,,,0,64,95,,
15240,note_on,,,,,15,0,1,,,,,0,,,90,0
15240,note_on,,,,,0,0,1,,,,,0,,,79,63
15245,set_tempo,,,,,10,1,0,,1621621,,,,,,,
15250,set_tempo,,,,,5,1,0,,1621621,,,,,,,
15255,note_on,,,,,0,0,2,,,,,0,,,55,50
15255,note_on,,,,,15,0,2,,,,,0,,,52,0
15265,set_tempo,,,,,15,1,0,,1621621,,,,,,,
15270,note_on,,,,,0,0,1,,,,,0,,,79,0
15270,note_on,,,,,0,0,1,,,,,0,,,90,69
15270,note_on,,,,,0,0,1,,,,,0,,,78,69
15270,set_tempo,,,,,5,1,0,,1578947,,,,,,,
15270,note_on,,,,,30,0,1,,,,,0,,,91,0
15270,note_on,,,,,15,0,2,,,,,0,,,55,0
15270,note_on,,,,,0,0,2,,,,,0,,,60,51
15280,set_tempo,,,,,10,1,0,,1578947,,,,,,,
15285,note_on,,,,,0,0,1,,,,,0,,,76,73
15285,note_on,,,,,0,0,1,,,,,0,,,88,73
15285,note_on,,,,,15,0,2,,,,,0,,,60,0
15285,note_on,,,,,0,0,2,,,,,0,,,55,54
15285,note_on,,,,,0,0,1,,,,,0,,,90,0
15285,note_on,,,,,15,0,1,,,,,0,,,78,0
15295,control_change,,,,,10,0,1,,,,,0,64,0,,
15300,control_change,,,,,0,0,1,,,,,0,64,96,,
15300,note_on,,,,,0,0,1,,,,,0,,,86,76
15300,note_on,,,,,0,0,1,,,,,0,,,74,76
15300,note_on,,,,,0,0,1,,,,,0,,,88,0
15300,note_on,,,,,5,0,1,,,,,0,,,76,0
15300,set_tempo,,,,,20,1,0,,1578947,,,,,,,
15300,note_on,,,,,0,0,2,,,,,0,,,54,60
15300,note_on,,,,,15,0,2,,,,,0,,,55,0
15315,note_on,,,,,0,0,2,,,,,0,,,59,58
15315,note_on,,,,,15,0,2,,,,,0,,,54,0
15330,note_on,,,,,15,0,2,,,,,0,,,59,0
15330,note_on,,,,,0,0,2,,,,,0,,,62,54
15345,note_on,,,,,15,0,2,,,,,0,,,62,0
15345,note_on,,,,,0,0,2,,,,,0,,,59,51
15360,note_on,,,,,15,0,2,,,,,0,,,59,0
15360,note_on,,,,,0,0,2,,,,,0,,,54,48
15360,set_tempo,,,,,60,1,0,,1578947,,,,,,,
15365,set_tempo,,,,,5,1,0,,1578947,,,,,,,
15375,note_on,,,,,0,0,2,,,,,0,,,59,47
15375,note_on,,,,,15,0,2,,,,,0,,,54,0
15375,set_tempo,,,,,10,1,0,,1578947,,,,,,,
15380,set_tempo,,,,,5,1,0,,1621621,,,,,,,
15385,set_tempo,,,,,5,1,0,,1666666,,,,,,,
15390,note_on,,,,,0,0,2,,,,,0,,,62,44
15390,note_on,,,,,15,0,2,,,,,0,,,59,0
15395,set_tempo,,,,,10,1,0,,1666666,,,,,,,
15400,set_tempo,,,,,5,1,0,,1666666,,,,,,,
15405,note_on,,,,,0,0,2,,,,,0,,,59,42
15405,note_on,,,,,15,0,2,,,,,0,,,62,0
15405,set_tempo,,,,,5,1,0,,1714285,,,,,,,
15415,set_tempo,,,,,10,1,0,,1714285,,,,,,,
15415,control_change,,,,,115,0,1,,,,,0,64,0,,
15420,note_on,,,,,0,0,1,,,,,0,,,85,42
15420,note_on,,,,,0,0,1,,,,,0,,,73,42
15420,note_on,,,,,0,0,1,,,,,0,,,74,0
15420,note_on,,,,,5,0,1,,,,,0,,,86,0
15420,note_on,,,,,15,0,2,,,,,0,,,59,0
15420,note_on,,,,,0,0,2,,,,,0,,,54,40
15420,set_tempo,,,,,5,1,0,,1714285,,,,,,,
15420,control_change,,,,,0,0,1,,,,,0,64,95,,
15425,set_tempo,,,,,5,1,0,,1714285,,,,,,,
15430,set_tempo,,,,,5,1,0,,1714285,,,,,,,
15435,note_on,,,,,0,0,2,,,,,0,,,58,38
15435,note_on,,,,,15,0,2,,,,,0,,,54,0
15435,set_tempo,,,,,5,1,0,,1714285,,,,,,,
15440,set_tempo,,,,,5,1,0,,1764705,,,,,,,
15445,set_tempo,,,,,5,1,0,,1666666,,,,,,,
15450,note_on,,,,,0,0,2,,,,,0,,,61,36
15450,note_on,,,,,15,0,2,,,,,0,,,58,0
15450,set_tempo,,,,,5,1,0,,1666666,,,,,,,
15455,set_tempo,,,,,5,1,0,,2068965,,,,,,,
15465,note_on,,,,,45,0,1,,,,,0,,,85,0
15465,note_on,,,,,0,0,1,,,,,0,,,73,0
15465,note_on,,,,,0,0,2,,,,,0,,,58,34
15465,note_on,,,,,15,0,2,,,,,0,,,61,0
15475,note_on,,,,,10,0,2,,,,,0,,,58,0
15475,set_tempo,,,,,20,1,0,,3000000,,,,,,,
15475,control_change,,,,,10,0,1,,,,,0,64,0,,
15480,note_on,,,,,5,0,1,,,,,0,,,71,46
15480,set_tempo,,,,,5,1,0,,1666666,,,,,,,
15480,control_change,,,,,0,0,1,,,,,0,64,95,,
15480,note_on,,,,,0,0,1,,,,,0,,,78,46
15480,note_on,,,,,5,0,2,,,,,0,,,51,47
15495,note_on,,,,,0,0,2,,,,,0,,,54,45
15495,note_on,,,,,15,0,2,,,,,0,,,51,0
15505,set_tempo,,,,,25,1,0,,1666666,,,,,,,
15510,note_on,,,,,0,0,2,,,,,0,,,59,42
15510,note_on,,,,,15,0,2,,,,,0,,,54,0
15515,set_tempo,,,,,10,1,0,,1666666,,,,,,,
15520,set_tempo,,,,,5,1,0,,1666666,,,,,,,
15525,note_on,,,,,0,0,2,,,,,0,,,54,39
15525,note_on,,,,,15,0,2,,,,,0,,,59,0
15530,set_tempo,,,,,10,1,0,,1666666,,,,,,,
15535,set_tempo,,,,,5,1,0,,1666666,,,,,,,
15540,set_tempo,,,,,5,1,0,,1666666,,,,,,,
15540,note_on,,,,,15,0,2,,,,,0,,,54,0
15540,note_on,,,,,0,0,2,,,,,0,,,51,36
15545,control_change,,,,,65,0,1,,,,,0,64,0,,
15555,set_tempo,,,,,15,1,0,,1666666,,,,,,,
15555,note_on,,,,,0,0,1,,,,,0,,,71,0
15555,note_on,,,,,10,0,1,,,,,0,,,78,0
15555,note_on,,,,,15,0,2,,,,,0,,,51,0
15555,note_on,,,,,0,0,2,,,,,0,,,54,39
15565,set_tempo,,,,,10,1,0,,1666666,,,,,,,
15570,note_on,,,,,0,0,2,,,,,0,,,59,40
15570,note_on,,,,,15,0,2,,,,,0,,,54,0
15570,note_on,,,,,15,0,1,,,,,0,,,77,49
15580,set_tempo,,,,,15,1,0,,1621621,,,,,,,
15585,note_on,,,,,15,0,2,,,,,0,,,59,0
15585,set_tempo,,,,,5,1,0,,1621621,,,,,,,
15585,note_on,,,,,15,0,1,,,,,0,,,77,0
15585,note_on,,,,,0,0,1,,,,,0,,,78,51
15585,note_on,,,,,0,0,2,,,,,0,,,54,41
15595,set_tempo,,,,,10,1,0,,1621621,,,,,,,
15600,note_on,,,,,0,0,1,,,,,0,,,71,53
15600,note_on,,,,,15,0,2,,,,,0,,,54,0
15600,note_on,,,,,0,0,2,,,,,0,,,52,43
15600,note_on,,,,,15,0,1,,,,,0,,,78,0
15600,control_change,,,,,0,0,1,,,,,0,64,95,,
15600,note_on,,,,,0,0,1,,,,,0,,,80,53
15600,set_tempo,,,,,5,1,0,,1621621,,,,,,,
15605,set_tempo,,,,,5,1,0,,1621621,,,,,,,
15615,note_on,,,,,0,0,2,,,,,0,,,56,45
15615,note_on,,,,,15,0,2,,,,,0,,,52,0
15615,set_tempo,,,,,10,1,0,,1621621,,,,,,,
15625,set_tempo,,,,,10,1,0,,1621621,,,,,,,
15630,note_on,,,,,30,0,1,,,,,0,,,80,0
15630,note_on,,,,,0,0,2,,,,,0,,,59,46
15630,note_on,,,,,15,0,2,,,,,0,,,56,0
15630,set_tempo,,,,,5,1,0,,1621621,,,,,,,
15630,note_on,,,,,0,0,1,,,,,0,,,82,55
15645,note_on,,,,,15,0,1,,,,,0,,,82,0
15645,note_on,,,,,0,0,2,,,,,0,,,56,47
15645,note_on,,,,,0,0,1,,,,,0,,,83,55
15645,note_on,,,,,15,0,2,,,,,0,,,59,0
15645,set_tempo,,,,,15,1,0,,1621621,,,,,,,
15650,set_tempo,,,,,5,1,0,,1621621,,,,,,,
15655,control_change,,,,,10,0,1,,,,,0,64,0,,
15660,control_change,,,,,0,0,1,,,,,0,64,95,,
15660,note_on,,,,,0,0,1,,,,,0,,,75,55
15660,note_on,,,,,0,0,1,,,,,0,,,66,55
15660,note_on,,,,,0,0,1,,,,,0,,,71,55
15660,note_on,,,,,0,0,1,,,,,0,,,71,0
15660,note_on,,,,,5,0,1,,,,,0,,,83,0
15660,note_on,,,,,0,0,2,,,,,0,,,54,47
15660,note_on,,,,,15,0,2,,,,,0,,,56,0
15660,set_tempo,,,,,10,1,0,,1621621,,,,,,,
15665,set_tempo,,,,,5,1,0,,1621621,,,,,,,
15670,set_tempo,,,,,5,1,0,,1666666,,,,,,,
15675,note_on,,,,,0,0,2,,,,,0,,,59,47
15675,note_on,,,,,15,0,2,,,,,0,,,54,0
15690,note_on,,,,,15,0,2,,,,,0,,,59,0
15690,set_tempo,,,,,20,1,0,,1621621,,,,,,,
15690,note_on,,,,,0,0,2,,,,,0,,,63,45
15700,set_tempo,,,,,10,1,0,,1621621,,,,,,,
15705,note_on,,,,,15,0,2,,,,,0,,,63,0
15705,note_on,,,,,0,0,2,,,,,0,,,59,44
15705,set_tempo,,,,,5,1,0,,1621621,,,,,,,
15710,set_tempo,,,,,5,1,0,,1621621,,,,,,,
15720,note_on,,,,,15,0,2,,,,,0,,,59,0
15720,note_on,,,,,0,0,2,,,,,0,,,54,43
15720,set_tempo,,,,,10,1,0,,1621621,,,,,,,
15725,set_tempo,,,,,5,1,0,,1621621,,,,,,,
15725,control_change,,,,,65,0,1,,,,,0,64,0,,
15735,note_on,,,,,0,0,2,,,,,0,,,59,43
15735,note_on,,,,,15,0,2,,,,,0,,,54,0
15735,note_on,,,,,0,0,1,,,,,0,,,71,0
15735,note_on,,,,,0,0,1,,,,,0,,,66,0
15735,note_on,,,,,10,0,1,,,,,0,,,75,0
15735,set_tempo,,,,,10,1,0,,1578947,,,,,,,
15745,set_tempo,,,,,10,1,0,,1578947,,,,,,,
15750,note_on,,,,,15,0,1,,,,,0,,,76,47
15750,note_on,,,,,0,0,2,,,,,0,,,63,42
15750,note_on,,,,,15,0,2,,,,,0,,,59,0
15760,set_tempo,,,,,15,1,0,,1714285,,,,,,,
15765,note_on,,,,,15,0,1,,,,,0,,,76,0
15765,note_on,,,,,0,0,1,,,,,0,,,78,45
15765,note_on,,,,,0,0,2,,,,,0,,,59,41
15765,note_on,,,,,15,0,2,,,,,0,,,63,0
15765,set_tempo,,,,,5,1,0,,1714285,,,,,,,
15770,set_tempo,,,,,5,1,0,,1714285,,,,,,,
15775,set_tempo,,,,,5,1,0,,1764705,,,,,,,
15780,set_tempo,,,,,5,1,0,,1764705,,,,,,,
15780,control_change,,,,,0,0,1,,,,,0,64,95,,
15780,note_on,,,,,0,0,1,,,,,0,,,76,41
15780,note_on,,,,,0,0,1,,,,,0,,,70,41
15780,note_on,,,,,0,0,1,,,,,0,,,66,41
15780,note_on,,,,,15,0,1,,,,,0,,,78,0
15780,note_on,,,,,15,0,2,,,,,0,,,59,0
15780,note_on,,,,,0,0,2,,,,,0,,,54,39
15785,set_tempo,,,,,5,1,0,,1818181,,,,,,,
15790,set_tempo,,,,,5,1,0,,1818181,,,,,,,
15795,note_on,,,,,15,0,2,,,,,0,,,54,0
15795,note_on,,,,,0,0,2,,,,,0,,,61,39
15795,set_tempo,,,,,5,1,0,,1875000,,,,,,,
15800,set_tempo,,,,,5,1,0,,1875000,,,,,,,
15805,set_tempo,,,,,5,1,0,,1875000,,,,,,,
15810,set_tempo,,,,,5,1,0,,1935483,,,,,,,
15810,note_on,,,,,30,0,1,,,,,0,,,76,0
15810,note_on,,,,,0,0,1,,,,,0,,,75,36
15810,note_on,,,,,0,0,2,,,,,0,,,63,37
15810,note_on,,,,,15,0,2,,,,,0,,,61,0
15815,set_tempo,,,,,5,1,0,,2000000,,,,,,,
15820,set_tempo,,,,,5,1,0,,2000000,,,,,,,
15825,note_on,,,,,0,0,1,,,,,0,,,73,35
15825,set_tempo,,,,,5,1,0,,2068965,,,,,,,
15825,note_on,,,,,15,0,1,,,,,0,,,75,0
15825,note_on,,,,,15,0,2,,,,,0,,,63,0
15825,note_on,,,,,0,0,2,,,,,0,,,64,34
15830,set_tempo,,,,,5,1,0,,2068965,,,,,,,
15835,control_change,,,,,10,0,1,,,,,0,64,0,,
15840,control_change,,,,,0,0,1,,,,,0,64,95,,
15840,note_on,,,,,0,0,1,,,,,0,,,66,32
15840,note_on,,,,,0,0,1,,,,,0,,,71,32
15840,note_on,,,,,0,0,2,,,,,0,,,63,33
15840,note_on,,,,,0,0,2,,,,,0,,,59,33
15840,note_on,,,,,15,0,2,,,,,0,,,64,0
15840,note_on,,,,,0,0,1,,,,,0,,,66,0
15840,note_on,,,,,0,0,1,,,,,0,,,70,0
15840,note_on,,,,,5,0,1,,,,,0,,,73,0
15845,set_tempo,,,,,15,1,0,,2000000,,,,,,,
15850,set_tempo,,,,,5,1,0,,2068965,,,,,,,
15860,set_tempo,,,,,10,1,0,,2068965,,,,,,,
15862,note_on,,,,,0,0,2,,,,,0,,,59,0
15862,note_on,,,,,22,0,1,,,,,0,,,71,0
15862,note_on,,,,,0,0,1,,,,,0,,,66,0
15862,note_on,,,,,22,0,2,,,,,0,,,63,0
15865,set_tempo,,,,,5,1,0,,1818181,,,,,,,
15865,control_change,,,,,3,0,1,,,,,0,64,0,,
15870,note_on,,,,,0,0,2,,,,,0,,,63,35
15870,note_on,,,,,8,0,2,,,,,0,,,54,35
15870,note_on,,,,,5,0,1,,,,,0,,,71,36
15870,control_change,,,,,0,0,1,,,,,0,64,95,,
15870,note_on,,,,,0,0,1,,,,,0,,,78,36
15892,note_on,,,,,0,0,2,,,,,0,,,54,0
15892,note_on,,,,,22,0,1,,,,,0,,,78,0
15892,note_on,,,,,0,0,1,,,,,0,,,71,0
15892,note_on,,,,,22,0,2,,,,,0,,,63,0
15895,set_tempo,,,,,30,1,0,,1818181,,,,,,,
15900,set_tempo,,,,,5,1,0,,1818181,,,,,,,
15900,note_on,,,,,0,0,2,,,,,0,,,64,38
15900,note_on,,,,,0,0,1,,,,,0,,,80,42
15900,note_on,,,,,8,0,2,,,,,0,,,54,38
15900,note_on,,,,,8,0,1,,,,,0,,,71,42
15915,set_tempo,,,,,15,1,0,,1818181,,,,,,,
15925,set_tempo,,,,,10,1,0,,1818181,,,,,,,
15930,note_on,,,,,30,0,1,,,,,0,,,80,0
15930,note_on,,,,,0,0,1,,,,,0,,,71,0
15930,note_on,,,,,0,0,1,,,,,0,,,71,39
15930,note_on,,,,,0,0,1,,,,,0,,,78,39
15930,note_on,,,,,30,0,2,,,,,0,,,64,0
15930,note_on,,,,,0,0,2,,,,,0,,,63,33
15930,note_on,,,,,0,0,2,,,,,0,,,54,33
15930,note_on,,,,,0,0,2,,,,,0,,,54,0
15935,set_tempo,,,,,10,1,0,,1764705,,,,,,,
15940,set_tempo,,,,,5,1,0,,1764705,,,,,,,
15950,set_tempo,,,,,10,1,0,,1818181,,,,,,,
15952,note_on,,,,,0,0,1,,,,,0,,,71,0
15952,note_on,,,,,22,0,1,,,,,0,,,78,0
15952,note_on,,,,,0,0,2,,,,,0,,,54,0
15952,note_on,,,,,22,0,2,,,,,0,,,63,0
15955,set_tempo,,,,,5,1,0,,1875000,,,,,,,
15960,note_on,,,,,8,0,2,,,,,0,,,54,30
15960,set_tempo,,,,,5,1,0,,1875000,,,,,,,
15960,note_on,,,,,0,0,1,,,,,0,,,78,31
15960,note_on,,,,,8,0,1,,,,,0,,,71,31
15960,note_on,,,,,0,0,2,,,,,0,,,61,30
15965,set_tempo,,,,,5,1,0,,1875000,,,,,,,
15970,set_tempo,,,,,5,1,0,,1935483,,,,,,,
15975,set_tempo,,,,,5,1,0,,2000000,,,,,,,
15980,set_tempo,,,,,5,1,0,,2000000,,,,,,,
15982,note_on,,,,,0,0,1,,,,,0,,,71,0
15982,note_on,,,,,22,0,1,,,,,0,,,78,0
15982,note_on,,,,,0,0,2,,,,,0,,,54,0
15982,note_on,,,,,22,0,2,,,,,0,,,61,0
15990,note_on,,,,,0,0,1,,,,,0,,,78,27
15990,note_on,,,,,8,0,1,,,,,0,,,70,27
15990,note_on,,,,,0,0,2,,,,,0,,,64,30
15990,note_on,,,,,8,0,2,,,,,0,,,54,30
15990,set_tempo,,,,,10,1,0,,2000000,,,,,,,
15995,set_tempo,,,,,5,1,0,,2000000,,,,,,,
16000,set_tempo,,,,,5,1,0,,2000000,,,,,,,
16010,control_change,,,,,20,0,1,,,,,0,64,0,,
16020,control_change,,,,,0,0,1,,,,,0,64,96,,
16020,set_tempo,,,,,20,1,0,,2400000,,,,,,,
16020,note_on,,,,,10,0,1,,,,,0,,,78,0
16020,note_on,,,,,0,0,1,,,,,0,,,71,27
16020,note_on,,,,,0,0,1,,,,,0,,,78,27
16020,note_on,,,,,0,0,1,,,,,0,,,70,0
16020,note_on,,,,,0,0,2,,,,,0,,,63,27
16020,note_on,,,,,0,0,2,,,,,0,,,59,27
16020,note_on,,,,,0,0,2,,,,,0,,,54,0
16020,note_on,,,,,30,0,2,,,,,0,,,64,0
16035,set_tempo,,,,,15,1,0,,2000000,,,,,,,
16042,note_on,,,,,0,0,1,,,,,0,,,78,0
16042,note_on,,,,,22,0,1,,,,,0,,,71,0
16042,note_on,,,,,22,0,2,,,,,0,,,63,0
16042,note_on,,,,,0,0,2,,,,,0,,,59,0
16045,control_change,,,,,3,0,1,,,,,0,64,0,,
16045,set_tempo,,,,,10,1,0,,2000000,,,,,,,
16050,control_change,,,,,0,0,1,,,,,0,64,95,,
16050,note_on,,,,,0,0,1,,,,,0,,,78,36
16050,note_on,,,,,0,0,2,,,,,0,,,63,35
16050,note_on,,,,,8,0,2,,,,,0,,,54,35
16050,note_on,,,,,5,0,1,,,,,0,,,71,36
16055,set_tempo,,,,,10,1,0,,2000000,,,,,,,
16060,set_tempo,,,,,5,1,0,,2000000,,,,,,,
16065,set_tempo,,,,,5,1,0,,1935483,,,,,,,
16070,set_tempo,,,,,5,1,0,,1935483,,,,,,,
16072,note_on,,,,,0,0,2,,,,,0,,,54,0
16072,note_on,,,,,22,0,1,,,,,0,,,78,0
16072,note_on,,,,,22,0,2,,,,,0,,,63,0
16072,note_on,,,,,0,0,1,,,,,0,,,71,0
16075,set_tempo,,,,,5,1,0,,1935483,,,,,,,
16080,note_on,,,,,0,0,2,,,,,0,,,64,38
16080,note_on,,,,,8,0,2,,,,,0,,,54,38
16080,note_on,,,,,0,0,1,,,,,0,,,80,42
16080,note_on,,,,,0,0,1,,,,,0,,,71,42
16080,set_tempo,,,,,5,1,0,,1875000,,,,,,,
16080,note_on,,,,,8,0,1,,,,,0,,,83,42
16110,note_on,,,,,0,0,1,,,,,0,,,78,33
16110,note_on,,,,,0,0,1,,,,,0,,,71,33
16110,note_on,,,,,0,0,1,,,,,0,,,83,0
16110,note_on,,,,,0,0,1,,,,,0,,,71,0
16110,note_on,,,,,30,0,1,,,,,0,,,80,0
16110,note_on,,,,,0,0,2,,,,,0,,,54,33
16110,note_on,,,,,0,0,2,,,,,0,,,54,0
16110,note_on,,,,,30,0,2,,,,,0,,,64,0
16110,note_on,,,,,0,0,2,,,,,0,,,63,33
16130,set_tempo,,,,,50,1,0,,1875000,,,,,,,
16132,note_on,,,,,0,0,1,,,,,0,,,71,0
16132,note_on,,,,,22,0,1,,,,,0,,,78,0
16132,note_on,,,,,22,0,2,,,,,0,,,63,0
16132,note_on,,,,,0,0,2,,,,,0,,,54,0
16135,set_tempo,,,,,5,1,0,,1875000,,,,,,,
16140,set_tempo,,,,,5,1,0,,1875000,,,,,,,
16140,note_on,,,,,8,0,2,,,,,0,,,54,30
16140,note_on,,,,,0,0,2,,,,,0,,,61,30
16140,note_on,,,,,8,0,1,,,,,0,,,71,38
16140,note_on,,,,,0,0,1,,,,,0,,,78,38
16150,set_tempo,,,,,10,1,0,,1935483,,,,,,,
16155,set_tempo,,,,,5,1,0,,1935483,,,,,,,
16155,note_on,,,,,0,0,1,,,,,0,,,70,36
16155,note_on,,,,,15,0,1,,,,,0,,,71,0
16160,set_tempo,,,,,5,1,0,,2000000,,,,,,,
16162,note_on,,,,,7,0,1,,,,,0,,,78,0
16162,note_on,,,,,0,0,2,,,,,0,,,54,0
16162,note_on,,,,,22,0,2,,,,,0,,,61,0
16170,note_on,,,,,8,0,1,,,,,0,,,70,0
16170,note_on,,,,,0,0,1,,,,,0,,,71,33
16170,note_on,,,,,0,0,1,,,,,0,,,78,33
16170,set_tempo,,,,,10,1,0,,2000000,,,,,,,
16170,note_on,,,,,8,0,2,,,,,0,,,54,30
16170,note_on,,,,,0,0,2,,,,,0,,,64,30
16175,set_tempo,,,,,5,1,0,,2000000,,,,,,,
16180,set_tempo,,,,,5,1,0,,2000000,,,,,,,
16185,set_tempo,,,,,5,1,0,,2000000,,,,,,,
16185,note_on,,,,,0,0,1,,,,,0,,,73,30
16185,note_on,,,,,15,0,1,,,,,0,,,71,0
16190,set_tempo,,,,,5,1,0,,2000000,,,,,,,
16190,control_change,,,,,5,0,1,,,,,0,64,0,,
16192,note_on,,,,,2,0,1,,,,,0,,,78,0
16192,note_on,,,,,0,0,2,,,,,0,,,54,0
16192,note_on,,,,,22,0,2,,,,,0,,,64,0
16195,set_tempo,,,,,5,1,0,,1875000,,,,,,,
16200,note_on,,,,,0,0,1,,,,,0,,,71,32
16200,note_on,,,,,0,0,1,,,,,0,,,78,32
16200,control_change,,,,,0,0,1,,,,,0,64,95,,
16200,note_on,,,,,0,0,2,,,,,0,,,63,32
16200,note_on,,,,,8,0,1,,,,,0,,,73,0
16200,set_tempo,,,,,5,1,0,,1935483,,,,,,,
16200,note_on,,,,,8,0,2,,,,,0,,,59,32
16215,set_tempo,,,,,15,1,0,,1935483,,,,,,,
16220,set_tempo,,,,,5,1,0,,2000000,,,,,,,
16222,note_on,,,,,0,0,1,,,,,0,,,71,0
16222,note_on,,,,,22,0,1,,,,,0,,,78,0
16222,note_on,,,,,0,0,2,,,,,0,,,59,0
16222,note_on,,,,,22,0,2,,,,,0,,,63,0
16225,set_tempo,,,,,5,1,0,,2000000,,,,,,,
16230,note_on,,,,,0,0,1,,,,,0,,,78,35
16230,note_on,,,,,0,0,2,,,,,0,,,61,35
16230,note_on,,,,,8,0,2,,,,,0,,,54,35
16230,note_on,,,,,8,0,1,,,,,0,,,70,35
16235,set_tempo,,,,,10,1,0,,2000000,,,,,,,
16240,set_tempo,,,,,5,1,0,,2000000,,,,,,,
16245,set_tempo,,,,,5,1,0,,2068965,,,,,,,
16252,note_on,,,,,0,0,2,,,,,0,,,54,0
16252,note_on,,,,,0,0,1,,,,,0,,,70,0
16252,note_on,,,,,22,0,1,,,,,0,,,78,0
16252,note_on,,,,,22,0,2,,,,,0,,,61,0
16255,set_tempo,,,,,10,1,0,,2068965,,,,,,,
16255,control_change,,,,,3,0,1,,,,,0,64,0,,
16260,note_on,,,,,8,0,2,,,,,0,,,59,31
16260,note_on,,,,,0,0,2,,,,,0,,,63,31
16260,set_tempo,,,,,5,1,0,,2068965,,,,,,,
16260,control_change,,,,,0,0,1,,,,,0,64,95,,
16260,note_on,,,,,0,0,1,,,,,0,,,78,33
16260,note_on,,,,,5,0,1,,,,,0,,,71,33
16265,set_tempo,,,,,5,1,0,,2068965,,,,,,,
16270,set_tempo,,,,,5,1,0,,2068965,,,,,,,
16280,set_tempo,,,,,10,1,0,,2068965,,,,,,,
16282,note_on,,,,,22,0,2,,,,,0,,,63,0
16282,note_on,,,,,22,0,1,,,,,0,,,78,0
16282,note_on,,,,,0,0,1,,,,,0,,,71,0
16282,note_on,,,,,0,0,2,,,,,0,,,59,0
16285,set_tempo,,,,,5,1,0,,2500000,,,,,,,
16285,note_on,,,,,3,0,1,,,,,0,,,75,32
16290,note_on,,,,,8,0,2,,,,,0,,,54,27
16290,note_on,,,,,0,0,2,,,,,0,,,64,27
16290,note_on,,,,,0,0,1,,,,,0,,,70,30
16290,note_on,,,,,0,0,1,,,,,0,,,78,30
16290,note_on,,,,,0,0,1,,,,,0,,,73,27
16290,note_on,,,,,5,0,1,,,,,0,,,75,0
16295,set_tempo,,,,,10,1,0,,2222222,,,,,,,
16312,note_on,,,,,22,0,1,,,,,0,,,78,0
16312,note_on,,,,,0,0,2,,,,,0,,,54,0
16312,note_on,,,,,0,0,1,,,,,0,,,70,0
16312,note_on,,,,,22,0,2,,,,,0,,,64,0
16315,control_change,,,,,3,0,1,,,,,0,64,0,,
16320,note_on,,,,,0,0,2,,,,,0,,,63,23
16320,note_on,,,,,8,0,2,,,,,0,,,59,23
16320,set_tempo,,,,,25,1,0,,2500000,,,,,,,
16320,note_on,,,,,5,0,1,,,,,0,,,73,0
16320,note_on,,,,,0,0,1,,,,,0,,,71,23
16320,note_on,,,,,0,0,1,,,,,0,,,78,23
16320,control_change,,,,,0,0,1,,,,,0,64,94,,
16325,set_tempo,,,,,5,1,0,,2500000,,,,,,,
16330,set_tempo,,,,,5,1,0,,2857142,,,,,,,
16342,note_on,,,,,0,0,1,,,,,0,,,71,0
16342,note_on,,,,,22,0,2,,,,,0,,,63,0
16342,note_on,,,,,0,0,2,,,,,0,,,59,0
16342,note_on,,,,,22,0,1,,,,,0,,,78,0
16345,control_change,,,,,3,0,1,,,,,0,64,0,,
16345,set_tempo,,,,,15,1,0,,1714285,,,,,,,
16350,note_on,,,,,5,0,1,,,,,0,,,71,40
16355,set_tempo,,,,,10,1,0,,1714285,,,,,,,
16360,set_tempo,,,,,5,1,0,,1714285,,,,,,,
16370,set_tempo,,,,,10,1,0,,1714285,,,,,,,
16380,note_on,,,,,0,0,1,,,,,0,,,74,49
16380,note_on,,,,,38,0,2,,,,,0,,,47,27
16380,set_tempo,,,,,10,1,0,,1666666,,,,,,,
16380,control_change,,,,,0,0,1,,,,,0,64,95,,
16380,note_on,,,,,30,0,1,,,,,0,,,71,0
16385,set_tempo,,,,,5,1,0,,1666666,,,,,,,
16390,set_tempo,,,,,5,1,0,,1621621,,,,,,,
16395,note_on,,,,,15,0,2,,,,,0,,,47,0
16395,note_on,,,,,0,0,2,,,,,0,,,50,27
16400,set_tempo,,,,,10,1,0,,1621621,,,,,,,
16405,set_tempo,,,,,5,1,0,,1621621,,,,,,,
16410,note_on,,,,,0,0,2,,,,,0,,,53,27
16410,note_on,,,,,15,0,2,,,,,0,,,50,0
16415,set_tempo,,,,,10,1,0,,1621621,,,,,,,
16420,set_tempo,,,,,5,1,0,,1621621,,,,,,,
16425,note_on,,,,,15,0,2,,,,,0,,,53,0
16425,note_on,,,,,0,0,2,,,,,0,,,50,30
16425,set_tempo,,,,,5,1,0,,1621621,,,,,,,
16435,set_tempo,,,,,10,1,0,,1621621,,,,,,,
16440,note_on,,,,,0,0,2,,,,,0,,,47,31
16440,note_on,,,,,15,0,2,,,,,0,,,50,0
16440,note_on,,,,,0,0,1,,,,,0,,,68,41
16440,note_on,,,,,60,0,1,,,,,0,,,74,0
16445,set_tempo,,,,,10,1,0,,1578947,,,,,,,
16455,note_on,,,,,0,0,2,,,,,0,,,50,33
16455,note_on,,,,,15,0,2,,,,,0,,,47,0
16455,set_tempo,,,,,10,1,0,,1578947,,,,,,,
16465,set_tempo,,,,,10,1,0,,1578947,,,,,,,
16470,set_tempo,,,,,5,1,0,,1578947,,,,,,,
16470,note_on,,,,,15,0,2,,,,,0,,,50,0
16470,note_on,,,,,30,0,1,,,,,0,,,68,0
16470,note_on,,,,,0,0,2,,,,,0,,,53,34
16485,set_tempo,,,,,15,1,0,,1578947,,,,,,,
16485,note_on,,,,,0,0,2,,,,,0,,,50,36
16485,note_on,,,,,15,0,2,,,,,0,,,53,0
16490,set_tempo,,,,,5,1,0,,1578947,,,,,,,
16495,set_tempo,,,,,5,1,0,,1538461,,,,,,,
16500,control_change,,,,,30,0,1,,,,,0,64,0,,
16500,note_on,,,,,15,0,2,,,,,0,,,50,0
16500,note_on,,,,,0,0,2,,,,,0,,,47,38
16505,set_tempo,,,,,10,1,0,,1538461,,,,,,,
16510,set_tempo,,,,,5,1,0,,1578947,,,,,,,
16515,note_on,,,,,0,0,2,,,,,0,,,50,39
16515,note_on,,,,,15,0,2,,,,,0,,,47,0
16525,set_tempo,,,,,15,1,0,,1578947,,,,,,,
16530,note_on,,,,,15,0,2,,,,,0,,,50,0
16530,note_on,,,,,0,0,2,,,,,0,,,53,38
16530,note_on,,,,,30,0,1,,,,,0,,,74,41
16535,set_tempo,,,,,10,1,0,,1578947,,,,,,,
16540,set_tempo,,,,,5,1,0,,1578947,,,,,,,
16545,set_tempo,,,,,5,1,0,,1621621,,,,,,,
16545,note_on,,,,,0,0,2,,,,,0,,,50,34
16545,note_on,,,,,15,0,2,,,,,0,,,53,0
16550,set_tempo,,,,,5,1,0,,1621621,,,,,,,
16555,set_tempo,,,,,5,1,0,,1621621,,,,,,,
16560,note_on,,,,,0,0,2,,,,,0,,,45,34
16560,note_on,,,,,15,0,2,,,,,0,,,50,0
16560,note_on,,,,,30,0,1,,,,,0,,,74,0
16560,control_change,,,,,0,0,1,,,,,0,64,95,,
16560,note_on,,,,,0,0,1,,,,,0,,,73,52
16570,set_tempo,,,,,15,1,0,,1578947,,,,,,,
16575,note_on,,,,,15,0,2,,,,,0,,,45,0
16575,note_on,,,,,0,0,2,,,,,0,,,49,34
16580,set_tempo,,,,,10,1,0,,1578947,,,,,,,
16590,note_on,,,,,15,0,2,,,,,0,,,49,0
16590,note_on,,,,,0,0,2,,,,,0,,,54,34
16595,set_tempo,,,,,15,1,0,,1578947,,,,,,,
16600,set_tempo,,,,,5,1,0,,1578947,,,,,,,
16605,note_on,,,,,0,0,2,,,,,0,,,49,36
16605,note_on,,,,,15,0,2,,,,,0,,,54,0
16610,set_tempo,,,,,10,1,0,,1578947,,,,,,,
16620,note_on,,,,,60,0,1,,,,,0,,,73,0
16620,note_on,,,,,0,0,2,,,,,0,,,45,37
16620,note_on,,,,,15,0,2,,,,,0,,,49,0
16620,note_on,,,,,0,0,1,,,,,0,,,66,43
16625,set_tempo,,,,,15,1,0,,1578947,,,,,,,
16635,set_tempo,,,,,10,1,0,,1578947,,,,,,,
16635,note_on,,,,,0,0,2,,,,,0,,,49,39
16635,note_on,,,,,15,0,2,,,,,0,,,45,0
16650,note_on,,,,,15,0,2,,,,,0,,,49,0
16650,note_on,,,,,0,0,2,,,,,0,,,54,39
16650,note_on,,,,,30,0,1,,,,,0,,,66,0
16665,note_on,,,,,0,0,2,,,,,0,,,49,39
16665,note_on,,,,,15,0,2,,,,,0,,,54,0
16665,set_tempo,,,,,30,1,0,,1578947,,,,,,,
16680,note_on,,,,,0,0,2,,,,,0,,,45,37
16680,note_on,,,,,15,0,2,,,,,0,,,49,0
16680,control_change,,,,,30,0,1,,,,,0,64,0,,
16695,note_on,,,,,0,0,2,,,,,0,,,49,34
16695,note_on,,,,,15,0,2,,,,,0,,,45,0
16700,set_tempo,,,,,35,1,0,,1578947,,,,,,,
16705,set_tempo,,,,,5,1,0,,1578947,,,,,,,
16710,note_on,,,,,0,0,2,,,,,0,,,54,34
16710,note_on,,,,,15,0,2,,,,,0,,,49,0
16710,set_tempo,,,,,5,1,0,,1578947,,,,,,,
16710,note_on,,,,,30,0,1,,,,,0,,,73,45
16715,set_tempo,,,,,5,1,0,,1578947,,,,,,,
16720,set_tempo,,,,,5,1,0,,1578947,,,,,,,
16725,note_on,,,,,15,0,2,,,,,0,,,54,0
16725,note_on,,,,,0,0,2,,,,,0,,,49,34
16725,set_tempo,,,,,5,1,0,,1621621,,,,,,,
16730,set_tempo,,,,,5,1,0,,1621621,,,,,,,
16735,set_tempo,,,,,5,1,0,,1578947,,,,,,,
16737,note_on,,,,,12,0,2,,,,,0,,,49,0
16740,note_on,,,,,0,0,1,,,,,0,,,73,55
16740,note_on,,,,,30,0,1,,,,,0,,,73,0
16740,note_on,,,,,3,0,2,,,,,0,,,44,35
16740,control_change,,,,,0,0,1,,,,,0,64,96,,
16740,set_tempo,,,,,5,1,0,,1578947,,,,,,,
16745,set_tempo,,,,,5,1,0,,1578947,,,,,,,
16750,set_tempo,,,,,5,1,0,,1578947,,,,,,,
16755,note_on,,,,,15,0,2,,,,,0,,,44,0
16755,note_on,,,,,0,0,2,,,,,0,,,47,40
16760,set_tempo,,,,,10,1,0,,1578947,,,,,,,
16770,note_on,,,,,0,0,1,,,,,0,,,73,50
16770,note_on,,,,,30,0,1,,,,,0,,,73,0
16770,note_on,,,,,15,0,2,,,,,0,,,47,0
16770,note_on,,,,,0,0,2,,,,,0,,,53,43
16770,set_tempo,,,,,10,1,0,,1578947,,,,,,,
16780,set_tempo,,,,,10,1,0,,1578947,,,,,,,
16785,set_tempo,,,,,5,1,0,,1538461,,,,,,,
16785,note_on,,,,,15,0,2,,,,,0,,,53,0
16785,note_on,,,,,0,0,2,,,,,0,,,47,45
16792,note_on,,,,,22,0,1,,,,,0,,,73,0
16800,set_tempo,,,,,15,1,0,,1538461,,,,,,,
16800,note_on,,,,,0,0,2,,,,,0,,,44,46
16800,note_on,,,,,15,0,2,,,,,0,,,47,0
16800,control_change,,,,,0,0,1,,,,,0,64,0,,
16800,note_on,,,,,8,0,1,,,,,0,,,73,54
16805,set_tempo,,,,,5,1,0,,1538461,,,,,,,
16810,set_tempo,,,,,5,1,0,,1538461,,,,,,,
16815,note_on,,,,,0,0,2,,,,,0,,,47,46
16815,note_on,,,,,15,0,2,,,,,0,,,44,0
16822,note_on,,,,,22,0,1,,,,,0,,,73,0
16825,set_tempo,,,,,15,1,0,,1538461,,,,,,,
16830,note_on,,,,,15,0,2,,,,,0,,,47,0
16830,note_on,,,,,0,0,2,,,,,0,,,53,46
16830,control_change,,,,,0,0,1,,,,,0,64,96,,
16830,set_tempo,,,,,5,1,0,,1538461,,,,,,,
16830,note_on,,,,,8,0,1,,,,,0,,,73,53
16835,set_tempo,,,,,5,1,0,,1538461,,,,,,,
16845,note_on,,,,,15,0,2,,,,,0,,,53,0
16845,note_on,,,,,0,0,2,,,,,0,,,47,43
16845,set_tempo,,,,,10,1,0,,1538461,,,,,,,
16850,set_tempo,,,,,5,1,0,,1538461,,,,,,,
16852,note_on,,,,,22,0,1,,,,,0,,,73,0
16860,note_on,,,,,15,0,2,,,,,0,,,47,0
16860,note_on,,,,,0,0,2,,,,,0,,,44,39
16860,note_on,,,,,8,0,1,,,,,0,,,72,52
16865,set_tempo,,,,,15,1,0,,1578947,,,,,,,
16870,set_tempo,,,,,5,1,0,,1578947,,,,,,,
16875,set_tempo,,,,,5,1,0,,1621621,,,,,,,
16875,note_on,,,,,0,0,1,,,,,0,,,73,50
16875,note_on,,,,,15,0,2,,,,,0,,,44,0
16875,note_on,,,,,0,0,2,,,,,0,,,47,38
16875,note_on,,,,,15,0,1,,,,,0,,,72,0
16880,set_tempo,,,,,5,1,0,,1621621,,,,,,,
16885,set_tempo,,,,,5,1,0,,1621621,,,,,,,
16890,note_on,,,,,0,0,2,,,,,0,,,53,34
16890,note_on,,,,,15,0,2,,,,,0,,,47,0
16890,set_tempo,,,,,5,1,0,,1666666,,,,,,,
16890,note_on,,,,,0,0,1,,,,,0,,,74,57
16890,note_on,,,,,15,0,1,,,,,0,,,73,0
16895,set_tempo,,,,,5,1,0,,1714285,,,,,,,
16900,set_tempo,,,,,5,1,0,,1714285,,,,,,,
16905,note_on,,,,,15,0,2,,,,,0,,,53,0
16905,note_on,,,,,0,0,1,,,,,0,,,73,62
16905,note_on,,,,,15,0,1,,,,,0,,,74,0
16905,note_on,,,,,0,0,2,,,,,0,,,47,33
16915,control_change,,,,,10,0,1,,,,,0,64,0,,
16920,note_on,,,,,0,0,2,,,,,0,,,45,32
16920,note_on,,,,,15,0,2,,,,,0,,,47,0
16920,note_on,,,,,5,0,1,,,,,0,,,73,0
16920,note_on,,,,,0,0,1,,,,,0,,,73,66
16920,control_change,,,,,0,0,1,,,,,0,64,95,,
16935,note_on,,,,,0,0,2,,,,,0,,,49,33
16935,note_on,,,,,15,0,2,,,,,0,,,45,0
16950,note_on,,,,,0,0,2,,,,,0,,,54,31
16950,note_on,,,,,15,0,2,,,,,0,,,49,0
16965,note_on,,,,,0,0,2,,,,,0,,,49,29
16965,note_on,,,,,15,0,2,,,,,0,,,54,0
16975,set_tempo,,,,,75,1,0,,1714285,,,,,,,
16980,note_on,,,,,15,0,2,,,,,0,,,49,0
16980,note_on,,,,,0,0,2,,,,,0,,,45,29
16980,set_tempo,,,,,5,1,0,,1666666,,,,,,,
16980,note_on,,,,,0,0,1,,,,,0,,,66,48
16980,note_on,,,,,60,0,1,,,,,0,,,73,0
16985,set_tempo,,,,,5,1,0,,1666666,,,,,,,
16985,control_change,,,,,5,0,1,,,,,0,64,0,,
16995,note_on,,,,,0,0,2,,,,,0,,,49,29
16995,note_on,,,,,15,0,2,,,,,0,,,45,0
16995,set_tempo,,,,,10,1,0,,1666666,,,,,,,
17000,set_tempo,,,,,5,1,0,,1666666,,,,,,,
17005,set_tempo,,,,,5,1,0,,1666666,,,,,,,
17010,note_on,,,,,15,0,2,,,,,0,,,49,0
17010,note_on,,,,,0,0,2,,,,,0,,,54,29
17025,note_on,,,,,15,0,2,,,,,0,,,54,0
17025,note_on,,,,,0,0,2,,,,,0,,,49,29
17032,note_on,,,,,47,0,1,,,,,0,,,66,0
17035,set_tempo,,,,,30,1,0,,1666666,,,,,,,
17040,note_on,,,,,15,0,2,,,,,0,,,49,0
17040,note_on,,,,,0,0,2,,,,,0,,,45,29
17040,control_change,,,,,8,0,1,,,,,0,64,95,,
17045,set_tempo,,,,,10,1,0,,1621621,,,,,,,
17050,set_tempo,,,,,5,1,0,,1621621,,,,,,,
17055,note_on,,,,,15,0,2,,,,,0,,,45,0
17055,note_on,,,,,0,0,2,,,,,0,,,49,29
17065,set_tempo,,,,,15,1,0,,1621621,,,,,,,
17070,note_on,,,,,30,0,1,,,,,0,,,73,43
17070,set_tempo,,,,,5,1,0,,1578947,,,,,,,
17070,note_on,,,,,15,0,2,,,,,0,,,49,0
17070,note_on,,,,,0,0,2,,,,,0,,,54,29
17080,set_tempo,,,,,10,1,0,,1578947,,,,,,,
17085,note_on,,,,,15,0,2,,,,,0,,,54,0
17085,note_on,,,,,0,0,2,,,,,0,,,49,29
17095,control_change,,,,,25,0,1,,,,,0,64,0,,
17100,note_on,,,,,5,0,1,,,,,0,,,73,0
17100,set_tempo,,,,,20,1,0,,1666666,,,,,,,
17100,note_on,,,,,0,0,2,,,,,0,,,47,29
17100,note_on,,,,,15,0,2,,,,,0,,,49,0
17100,note_on,,,,,0,0,1,,,,,0,,,74,47
17100,control_change,,,,,0,0,1,,,,,0,64,95,,
17105,set_tempo,,,,,5,1,0,,1666666,,,,,,,
17110,set_tempo,,,,,5,1,0,,1621621,,,,,,,
17115,note_on,,,,,0,0,2,,,,,0,,,50,29
17115,note_on,,,,,15,0,2,,,,,0,,,47,0
17120,set_tempo,,,,,10,1,0,,1621621,,,,,,,
17125,set_tempo,,,,,5,1,0,,1621621,,,,,,,
17130,note_on,,,,,0,0,2,,,,,0,,,56,29
17130,note_on,,,,,15,0,2,,,,,0,,,50,0
17135,set_tempo,,,,,10,1,0,,1621621,,,,,,,
17140,set_tempo,,,,,5,1,0,,1621621,,,,,,,
17145,set_tempo,,,,,5,1,0,,1621621,,,,,,,
17145,note_on,,,,,0,0,2,,,,,0,,,50,29
17145,note_on,,,,,15,0,2,,,,,0,,,56,0
17155,set_tempo,,,,,10,1,0,,1621621,,,,,,,
17160,note_on,,,,,15,0,2,,,,,0,,,50,0
17160,note_on,,,,,60,0,1,,,,,0,,,74,0
17160,note_on,,,,,0,0,1,,,,,0,,,65,41
17160,note_on,,,,,0,0,2,,,,,0,,,47,29
17165,set_tempo,,,,,10,1,0,,1578947,,,,,,,
17175,set_tempo,,,,,10,1,0,,1578947,,,,,,,
17175,note_on,,,,,15,0,2,,,,,0,,,47,0
17175,note_on,,,,,0,0,2,,,,,0,,,50,29
17185,set_tempo,,,,,10,1,0,,1578947,,,,,,,
17190,note_on,,,,,30,0,1,,,,,0,,,65,0
17190,note_on,,,,,15,0,2,,,,,0,,,50,0
17190,note_on,,,,,0,0,2,,,,,0,,,56,29
17190,set_tempo,,,,,5,1,0,,1578947,,,,,,,
17205,note_on,,,,,15,0,2,,,,,0,,,56,0
17205,note_on,,,,,0,0,2,,,,,0,,,50,29
17205,set_tempo,,,,,15,1,0,,1578947,,,,,,,
17210,set_tempo,,,,,5,1,0,,1578947,,,,,,,
17215,set_tempo,,,,,5,1,0,,1538461,,,,,,,
17220,note_on,,,,,0,0,2,,,,,0,,,47,29
17220,note_on,,,,,15,0,2,,,,,0,,,50,0
17220,control_change,,,,,30,0,1,,,,,0,64,0,,
17225,set_tempo,,,,,10,1,0,,1538461,,,,,,,
17230,set_tempo,,,,,5,1,0,,1578947,,,,,,,
17235,note_on,,,,,15,0,2,,,,,0,,,47,0
17235,note_on,,,,,0,0,2,,,,,0,,,50,29
17245,set_tempo,,,,,15,1,0,,1578947,,,,,,,
17250,note_on,,,,,0,0,2,,,,,0,,,56,30
17250,note_on,,,,,15,0,2,,,,,0,,,50,0
17250,note_on,,,,,30,0,1,,,,,0,,,74,43
17255,set_tempo,,,,,10,1,0,,1578947,,,,,,,
17260,set_tempo,,,,,5,1,0,,1578947,,,,,,,
17265,set_tempo,,,,,5,1,0,,1621621,,,,,,,
17265,note_on,,,,,15,0,2,,,,,0,,,56,0
17265,note_on,,,,,0,0,2,,,,,0,,,50,30
17270,set_tempo,,,,,5,1,0,,1621621,,,,,,,
17275,set_tempo,,,,,5,1,0,,1621621,,,,,,,
17280,note_on,,,,,15,0,2,,,,,0,,,50,0
17280,control_change,,,,,0,0,1,,,,,0,64,95,,
17280,note_on,,,,,0,0,2,,,,,0,,,46,31
17280,note_on,,,,,0,0,1,,,,,0,,,73,46
17280,note_on,,,,,30,0,1,,,,,0,,,74,0
17290,set_tempo,,,,,15,1,0,,1578947,,,,,,,
17295,note_on,,,,,0,0,2,,,,,0,,,49,32
17295,note_on,,,,,15,0,2,,,,,0,,,46,0
17300,set_tempo,,,,,10,1,0,,1578947,,,,,,,
17310,note_on,,,,,15,0,2,,,,,0,,,49,0
17310,note_on,,,,,0,0,2,,,,,0,,,54,32
17315,set_tempo,,,,,15,1,0,,1578947,,,,,,,
17320,set_tempo,,,,,5,1,0,,1578947,,,,,,,
17325,note_on,,,,,15,0,2,,,,,0,,,54,0
17325,note_on,,,,,0,0,2,,,,,0,,,49,34
17330,set_tempo,,,,,10,1,0,,1578947,,,,,,,
17340,note_on,,,,,0,0,2,,,,,0,,,46,35
17340,note_on,,,,,15,0,2,,,,,0,,,49,0
17340,note_on,,,,,0,0,1,,,,,0,,,66,38
17340,note_on,,,,,60,0,1,,,,,0,,,73,0
17345,set_tempo,,,,,15,1,0,,1578947,,,,,,,
17355,note_on,,,,,15,0,2,,,,,0,,,46,0
17355,note_on,,,,,0,0,2,,,,,0,,,49,35
17355,set_tempo,,,,,10,1,0,,1578947,,,,,,,
17370,note_on,,,,,30,0,1,,,,,0,,,66,0
17370,note_on,,,,,15,0,2,,,,,0,,,49,0
17370,note_on,,,,,0,0,2,,,,,0,,,54,36
17385,set_tempo,,,,,30,1,0,,1578947,,,,,,,
17385,note_on,,,,,15,0,2,,,,,0,,,54,0
17385,note_on,,,,,0,0,2,,,,,0,,,49,37
17400,note_on,,,,,15,0,2,,,,,0,,,49,0
17400,note_on,,,,,0,0,2,,,,,0,,,46,39
17400,control_change,,,,,30,0,1,,,,,0,64,0,,
17415,note_on,,,,,15,0,2,,,,,0,,,46,0
17415,note_on,,,,,0,0,2,,,,,0,,,49,35
17420,set_tempo,,,,,35,1,0,,1578947,,,,,,,
17425,set_tempo,,,,,5,1,0,,1578947,,,,,,,
17430,note_on,,,,,30,0,1,,,,,0,,,73,35
17430,note_on,,,,,15,0,2,,,,,0,,,49,0
17430,set_tempo,,,,,5,1,0,,1578947,,,,,,,
17430,note_on,,,,,0,0,2,,,,,0,,,54,33
17435,set_tempo,,,,,5,1,0,,1578947,,,,,,,
17440,set_tempo,,,,,5,1,0,,1578947,,,,,,,
17445,note_on,,,,,15,0,2,,,,,0,,,54,0
17445,set_tempo,,,,,5,1,0,,1621621,,,,,,,
17445,note_on,,,,,0,0,2,,,,,0,,,49,31
17450,set_tempo,,,,,5,1,0,,1621621,,,,,,,
17455,set_tempo,,,,,5,1,0,,1578947,,,,,,,
17457,note_on,,,,,12,0,2,,,,,0,,,49,0
17460,note_on,,,,,0,0,1,,,,,0,,,73,35
17460,set_tempo,,,,,5,1,0,,1578947,,,,,,,
17460,control_change,,,,,0,0,1,,,,,0,64,96,,
17460,note_on,,,,,30,0,1,,,,,0,,,73,0
17460,note_on,,,,,3,0,2,,,,,0,,,44,33
17465,set_tempo,,,,,5,1,0,,1578947,,,,,,,
17470,set_tempo,,,,,5,1,0,,1578947,,,,,,,
17475,note_on,,,,,15,0,2,,,,,0,,,44,0
17475,note_on,,,,,0,0,2,,,,,0,,,47,35
17480,set_tempo,,,,,10,1,0,,1578947,,,,,,,
17490,note_on,,,,,15,0,2,,,,,0,,,47,0
17490,note_on,,,,,0,0,1,,,,,0,,,73,37
17490,note_on,,,,,0,0,2,,,,,0,,,53,36
17490,note_on,,,,,30,0,1,,,,,0,,,73,0
17490,set_tempo,,,,,10,1,0,,1578947,,,,,,,
17500,set_tempo,,,,,10,1,0,,1578947,,,,,,,
17505,note_on,,,,,15,0,2,,,,,0,,,53,0
17505,note_on,,,,,0,0,2,,,,,0,,,47,36
17505,set_tempo,,,,,5,1,0,,1538461,,,,,,,
17512,note_on,,,,,22,0,1,,,,,0,,,73,0
17515,set_tempo,,,,,10,1,0,,1538461,,,,,,,
17520,note_on,,,,,0,0,2,,,,,0,,,44,37
17520,note_on,,,,,15,0,2,,,,,0,,,47,0
17520,note_on,,,,,8,0,1,,,,,0,,,73,38
17520,control_change,,,,,0,0,1,,,,,0,64,0,,
17535,set_tempo,,,,,20,1,0,,1578947,,,,,,,
17535,note_on,,,,,15,0,2,,,,,0,,,44,0
17535,note_on,,,,,0,0,2,,,,,0,,,47,38
17540,set_tempo,,,,,5,1,0,,1578947,,,,,,,
17542,note_on,,,,,22,0,1,,,,,0,,,73,0
17545,set_tempo,,,,,5,1,0,,1578947,,,,,,,
17550,set_tempo,,,,,5,1,0,,1578947,,,,,,,
17550,note_on,,,,,15,0,2,,,,,0,,,47,0
17550,note_on,,,,,8,0,1,,,,,0,,,73,42
17550,note_on,,,,,0,0,2,,,,,0,,,53,39
17550,control_change,,,,,0,0,1,,,,,0,64,96,,
17555,set_tempo,,,,,5,1,0,,1621621,,,,,,,
17560,set_tempo,,,,,5,1,0,,1621621,,,,,,,
17565,set_tempo,,,,,5,1,0,,1621621,,,,,,,
17565,note_on,,,,,15,0,2,,,,,0,,,53,0
17565,note_on,,,,,0,0,2,,,,,0,,,47,40
17570,set_tempo,,,,,5,1,0,,1666666,,,,,,,
17572,note_on,,,,,22,0,1,,,,,0,,,73,0
17575,set_tempo,,,,,5,1,0,,1666666,,,,,,,
17580,set_tempo,,,,,5,1,0,,1666666,,,,,,,
17580,note_on,,,,,0,0,2,,,,,0,,,44,41
17580,note_on,,,,,15,0,2,,,,,0,,,47,0
17580,note_on,,,,,8,0,1,,,,,0,,,72,44
17585,set_tempo,,,,,5,1,0,,1714285,,,,,,,
17590,set_tempo,,,,,5,1,0,,1714285,,,,,,,
17595,set_tempo,,,,,5,1,0,,1714285,,,,,,,
17595,note_on,,,,,15,0,1,,,,,0,,,72,0
17595,note_on,,,,,0,0,2,,,,,0,,,47,42
17595,note_on,,,,,15,0,2,,,,,0,,,44,0
17595,note_on,,,,,0,0,1,,,,,0,,,73,45
17600,set_tempo,,,,,5,1,0,,1714285,,,,,,,
17605,set_tempo,,,,,5,1,0,,1764705,,,,,,,
17610,note_on,,,,,0,0,2,,,,,0,,,53,42
17610,set_tempo,,,,,5,1,0,,1764705,,,,,,,
17610,note_on,,,,,15,0,2,,,,,0,,,47,0
17610,note_on,,,,,15,0,1,,,,,0,,,73,0
17610,note_on,,,,,0,0,1,,,,,0,,,75,46
17615,set_tempo,,,,,5,1,0,,1764705,,,,,,,
17620,set_tempo,,,,,5,1,0,,1764705,,,,,,,
17625,note_on,,,,,0,0,2,,,,,0,,,47,45
17625,note_on,,,,,15,0,2,,,,,0,,,53,0
17625,note_on,,,,,15,0,1,,,,,0,,,75,0
17625,note_on,,,,,0,0,1,,,,,0,,,73,47
17625,set_tempo,,,,,5,1,0,,1764705,,,,,,,
17630,set_tempo,,,,,5,1,0,,1764705,,,,,,,
17635,set_tempo,,,,,5,1,0,,1764705,,,,,,,
17635,control_change,,,,,10,0,1,,,,,0,64,0,,
17640,set_tempo,,,,,5,1,0,,1714285,,,,,,,
17640,control_change,,,,,0,0,1,,,,,0,64,95,,
17640,note_on,,,,,0,0,1,,,,,0,,,73,49
17640,note_on,,,,,5,0,1,,,,,0,,,73,0
17640,note_on,,,,,15,0,2,,,,,0,,,47,0
17640,note_on,,,,,0,0,2,,,,,0,,,42,46
17650,set_tempo,,,,,10,1,0,,1714285,,,,,,,
17655,set_tempo,,,,,5,1,0,,1714285,,,,,,,
17655,note_on,,,,,15,0,2,,,,,0,,,42,0
17655,note_on,,,,,0,0,2,,,,,0,,,46,31
17660,set_tempo,,,,,5,1,0,,1714285,,,,,,,
17665,set_tempo,,,,,5,1,0,,1714285,,,,,,,
17670,note_on,,,,,0,0,2,,,,,0,,,54,31
17670,note_on,,,,,15,0,2,,,,,0,,,46,0
17675,set_tempo,,,,,10,1,0,,1666666,,,,,,,
17680,set_tempo,,,,,5,1,0,,1666666,,,,,,,
17685,note_on,,,,,0,0,2,,,,,0,,,49,31
17685,note_on,,,,,15,0,2,,,,,0,,,54,0
17690,set_tempo,,,,,10,1,0,,1666666,,,,,,,
17700,set_tempo,,,,,10,1,0,,1666666,,,,,,,
17700,note_on,,,,,15,0,2,,,,,0,,,49,0
17700,note_on,,,,,0,0,1,,,,,0,,,66,35
17700,note_on,,,,,60,0,1,,,,,0,,,73,0
17700,note_on,,,,,0,0,2,,,,,0,,,42,33
17705,set_tempo,,,,,5,1,0,,1666666,,,,,,,
17705,control_change,,,,,5,0,1,,,,,0,64,0,,
17715,set_tempo,,,,,10,1,0,,1666666,,,,,,,
17715,note_on,,,,,15,0,2,,,,,0,,,42,0
17715,note_on,,,,,0,0,2,,,,,0,,,46,33
17725,set_tempo,,,,,10,1,0,,1666666,,,,,,,
17730,note_on,,,,,0,0,2,,,,,0,,,54,36
17730,note_on,,,,,15,0,2,,,,,0,,,46,0
17745,note_on,,,,,15,0,2,,,,,0,,,54,0
17745,note_on,,,,,0,0,2,,,,,0,,,46,38
17752,note_on,,,,,47,0,1,,,,,0,,,66,0
17760,note_on,,,,,15,0,2,,,,,0,,,46,0
17760,note_on,,,,,0,0,2,,,,,0,,,42,40
17760,control_change,,,,,8,0,1,,,,,0,64,95,,
17775,note_on,,,,,15,0,2,,,,,0,,,42,0
17775,note_on,,,,,0,0,2,,,,,0,,,46,42
17790,note_on,,,,,30,0,1,,,,,0,,,73,48
17790,note_on,,,,,15,0,2,,,,,0,,,46,0
17790,note_on,,,,,0,0,2,,,,,0,,,54,44
17790,set_tempo,,,,,65,1,0,,1666666,,,,,,,
17795,set_tempo,,,,,5,1,0,,1666666,,,,,,,
17800,set_tempo,,,,,5,1,0,,1666666,,,,,,,
17805,note_on,,,,,15,0,2,,,,,0,,,54,0
17805,note_on,,,,,0,0,2,,,,,0,,,46,45
17815,control_change,,,,,25,0,1,,,,,0,64,0,,
17820,note_on,,,,,5,0,1,,,,,0,,,73,0
17820,note_on,,,,,0,0,1,,,,,0,,,73,56
17820,control_change,,,,,0,0,1,,,,,0,64,96,,
17820,note_on,,,,,15,0,2,,,,,0,,,46,0
17820,note_on,,,,,0,0,2,,,,,0,,,40,48
17830,set_tempo,,,,,30,1,0,,1666666,,,,,,,
17835,note_on,,,,,0,0,2,,,,,0,,,45,49
17835,note_on,,,,,15,0,2,,,,,0,,,40,0
17845,set_tempo,,,,,15,1,0,,1666666,,,,,,,
17850,note_on,,,,,15,0,2,,,,,0,,,45,0
17850,note_on,,,,,0,0,2,,,,,0,,,55,51
17850,note_on,,,,,30,0,1,,,,,0,,,73,0
17850,note_on,,,,,0,0,1,,,,,0,,,73,45
17855,set_tempo,,,,,10,1,0,,1714285,,,,,,,
17860,set_tempo,,,,,5,1,0,,1714285,,,,,,,
17865,note_on,,,,,0,0,2,,,,,0,,,45,52
17865,note_on,,,,,15,0,2,,,,,0,,,55,0
17865,set_tempo,,,,,5,1,0,,1714285,,,,,,,
17870,set_tempo,,,,,5,1,0,,1764705,,,,,,,
17872,note_on,,,,,22,0,1,,,,,0,,,73,0
17875,set_tempo,,,,,5,1,0,,1764705,,,,,,,
17880,note_on,,,,,15,0,2,,,,,0,,,45,0
17880,note_on,,,,,0,0,2,,,,,0,,,40,54
17880,note_on,,,,,8,0,1,,,,,0,,,73,49
17880,set_tempo,,,,,5,1,0,,1818181,,,,,,,
17885,set_tempo,,,,,5,1,0,,1818181,,,,,,,
17890,set_tempo,,,,,5,1,0,,1875000,,,,,,,
17895,note_on,,,,,0,0,2,,,,,0,,,45,56
17895,note_on,,,,,15,0,2,,,,,0,,,40,0
17895,set_tempo,,,,,5,1,0,,1875000,,,,,,,
17900,set_tempo,,,,,5,1,0,,1935483,,,,,,,
17902,note_on,,,,,22,0,1,,,,,0,,,73,0
17905,set_tempo,,,,,5,1,0,,1935483,,,,,,,
17910,note_on,,,,,15,0,2,,,,,0,,,45,0
17910,note_on,,,,,0,0,2,,,,,0,,,55,57
17910,set_tempo,,,,,5,1,0,,2000000,,,,,,,
17910,note_on,,,,,8,0,1,,,,,0,,,73,53
17915,set_tempo,,,,,5,1,0,,2068965,,,,,,,
17920,set_tempo,,,,,5,1,0,,2068965,,,,,,,
17925,set_tempo,,,,,5,1,0,,2068965,,,,,,,
17925,note_on,,,,,15,0,2,,,,,0,,,55,0
17925,note_on,,,,,0,0,2,,,,,0,,,45,59
17930,set_tempo,,,,,5,1,0,,2142857,,,,,,,
17932,note_on,,,,,22,0,1,,,,,0,,,73,0
17935,set_tempo,,,,,5,1,0,,2142857,,,,,,,
17940,note_on,,,,,15,0,2,,,,,0,,,45,0
17940,note_on,,,,,8,0,1,,,,,0,,,73,55
17940,note_on,,,,,0,0,2,,,,,0,,,40,61
17945,set_tempo,,,,,10,1,0,,2142857,,,,,,,
17955,note_on,,,,,15,0,2,,,,,0,,,40,0
17955,note_on,,,,,0,0,2,,,,,0,,,45,64
17960,set_tempo,,,,,15,1,0,,2142857,,,,,,,
17962,note_on,,,,,22,0,1,,,,,0,,,73,0
17970,note_on,,,,,0,0,2,,,,,0,,,55,65
17970,note_on,,,,,15,0,2,,,,,0,,,45,0
17970,note_on,,,,,8,0,1,,,,,0,,,73,57
17980,set_tempo,,,,,20,1,0,,2142857,,,,,,,
17985,note_on,,,,,0,0,2,,,,,0,,,45,67
17985,note_on,,,,,15,0,2,,,,,0,,,55,0
17990,set_tempo,,,,,10,1,0,,2222222,,,,,,,
17992,note_on,,,,,22,0,1,,,,,0,,,73,0
17995,control_change,,,,,3,0,1,,,,,0,64,0,,
18000,note_on,,,,,0,0,2,,,,,0,,,40,70
18000,note_on,,,,,5,0,1,,,,,0,,,73,60
18000,control_change,,,,,0,0,1,,,,,0,64,96,,
18000,note_on,,,,,15,0,2,,,,,0,,,45,0
18005,note_on,,,,,5,0,2,,,,,0,,,45,71
18010,note_on,,,,,5,0,2,,,,,0,,,55,72
18025,set_tempo,,,,,35,1,0,,2222222,,,,,,,
18030,note_on,,,,,0,0,1,,,,,0,,,79,64
18030,note_on,,,,,30,0,1,,,,,0,,,73,0
18055,set_tempo,,,,,30,1,0,,2307692,,,,,,,
18060,note_on,,,,,0,0,1,,,,,0,,,78,52
18060,note_on,,,,,30,0,1,,,,,0,,,79,0
18065,set_tempo,,,,,10,1,0,,2307692,,,,,,,
18080,set_tempo,,,,,15,1,0,,2307692,,,,,,,
18090,note_on,,,,,0,0,1,,,,,0,,,76,45
18090,note_on,,,,,30,0,1,,,,,0,,,78,0
18090,set_tempo,,,,,10,1,0,,2307692,,,,,,,
18095,set_tempo,,,,,5,1,0,,2400000,,,,,,,
18100,set_tempo,,,,,5,1,0,,2400000,,,,,,,
18105,set_tempo,,,,,5,1,0,,2400000,,,,,,,
18110,set_tempo,,,,,5,1,0,,2400000,,,,,,,
18115,set_tempo,,,,,5,1,0,,2608695,,,,,,,
18120,note_on,,,,,0,0,1,,,,,0,,,74,36
18120,set_tempo,,,,,5,1,0,,2857142,,,,,,,
18120,note_on,,,,,110,0,2,,,,,0,,,40,0
18120,note_on,,,,,30,0,1,,,,,0,,,76,0
18125,set_tempo,,,,,5,1,0,,2857142,,,,,,,
18125,note_on,,,,,5,0,2,,,,,0,,,45,0
18125,control_change,,,,,5,0,1,,,,,0,64,0,,
18130,note_on,,,,,5,0,2,,,,,0,,,55,0
18130,set_tempo,,,,,5,1,0,,2857142,,,,,,,
18135,set_tempo,,,,,5,1,0,,3000000,,,,,,,
18140,set_tempo,,,,,5,1,0,,3750000,,,,,,,
18150,note_on,,,,,0,0,1,,,,,0,,,73,30
18150,note_on,,,,,25,0,1,,,,,0,,,74,0
18170,note_on,,,,,20,0,1,,,,,0,,,73,0
18180,set_tempo,,,,,40,1,0,,1428571,,,,,,,
18180,marker,,,,,0,1,0,,,,,,,,,
18220,set_tempo,,,,,40,1,0,,1428571,,,,,,,
18265,set_tempo,,,,,45,1,0,,1428571,,,,,,,
18270,note_on,,,,,0,0,1,,,,,0,,,69,42
18270,control_change,,,,,100,0,1,,,,,0,91,96,,
18270,note_on,,,,,0,0,1,,,,,0,,,57,42
18300,note_on,,,,,30,0,1,,,,,0,,,57,0
18300,note_on,,,,,0,0,1,,,,,0,,,71,48
18300,note_on,,,,,0,0,1,,,,,0,,,59,48
18300,note_on,,,,,0,0,1,,,,,0,,,69,0
18305,set_tempo,,,,,40,1,0,,1395348,,,,,,,
18310,set_tempo,,,,,5,1,0,,1395348,,,,,,,
18320,set_tempo,,,,,10,1,0,,1395348,,,,,,,
18330,set_tempo,,,,,10,1,0,,1395348,,,,,,,
18330,note_on,,,,,0,0,1,,,,,0,,,73,52
18330,note_on,,,,,0,0,1,,,,,0,,,71,0
18330,note_on,,,,,0,0,1,,,,,0,,,61,52
18330,note_on,,,,,30,0,1,,,,,0,,,59,0
18340,set_tempo,,,,,10,1,0,,1395348,,,,,,,
18345,set_tempo,,,,,5,1,0,,1395348,,,,,,,
18360,note_on,,,,,0,0,1,,,,,0,,,62,55
18360,note_on,,,,,0,0,1,,,,,0,,,74,55
18360,control_change,,,,,0,0,1,,,,,0,64,96,,
18360,note_on,,,,,30,0,1,,,,,0,,,61,0
18360,note_on,,,,,230,0,2,,,,,0,,,50,46
18360,note_on,,,,,0,0,1,,,,,0,,,73,0
18360,note_on,,,,,0,0,2,,,,,0,,,54,46
18375,set_tempo,,,,,30,1,0,,1363636,,,,,,,
18380,set_tempo,,,,,5,1,0,,1363636,,,,,,,
18390,set_tempo,,,,,10,1,0,,1363636,,,,,,,
18395,set_tempo,,,,,5,1,0,,1395348,,,,,,,
18400,set_tempo,,,,,5,1,0,,1395348,,,,,,,
18415,set_tempo,,,,,15,1,0,,1395348,,,,,,,
18425,set_tempo,,,,,10,1,0,,1395348,,,,,,,
18435,set_tempo,,,,,10,1,0,,1395348,,,,,,,
18450,set_tempo,,,,,15,1,0,,1395348,,,,,,,
18450,note_on,,,,,0,0,1,,,,,0,,,61,55
18450,note_on,,,,,90,0,1,,,,,0,,,74,0
18450,note_on,,,,,0,0,1,,,,,0,,,62,0
18450,note_on,,,,,0,0,1,,,,,0,,,73,55
18465,note_on,,,,,0,0,1,,,,,0,,,61,0
18465,note_on,,,,,15,0,1,,,,,0,,,73,0
18465,note_on,,,,,0,0,1,,,,,0,,,74,61
18465,note_on,,,,,0,0,1,,,,,0,,,62,61
18470,set_tempo,,,,,20,1,0,,1395348,,,,,,,
18480,note_on,,,,,0,0,1,,,,,0,,,78,62
18480,set_tempo,,,,,10,1,0,,1395348,,,,,,,
18480,note_on,,,,,0,0,1,,,,,0,,,62,0
18480,note_on,,,,,15,0,1,,,,,0,,,74,0
18480,control_change,,,,,0,0,1,,,,,0,64,0,,
18480,note_on,,,,,0,0,1,,,,,0,,,66,62
18485,set_tempo,,,,,5,1,0,,1395348,,,,,,,
18495,set_tempo,,,,,10,1,0,,1428571,,,,,,,
18495,note_on,,,,,15,0,1,,,,,0,,,78,0
18495,note_on,,,,,0,0,1,,,,,0,,,66,0
18495,note_on,,,,,0,0,1,,,,,0,,,62,60
18495,note_on,,,,,0,0,1,,,,,0,,,74,60
18510,note_on,,,,,0,0,1,,,,,0,,,61,55
18510,note_on,,,,,0,0,1,,,,,0,,,62,0
18510,set_tempo,,,,,15,1,0,,1428571,,,,,,,
18510,note_on,,,,,15,0,1,,,,,0,,,74,0
18510,note_on,,,,,0,0,1,,,,,0,,,73,55
18525,note_on,,,,,0,0,1,,,,,0,,,61,0
18525,note_on,,,,,0,0,1,,,,,0,,,59,50
18525,note_on,,,,,0,0,1,,,,,0,,,71,50
18525,note_on,,,,,15,0,1,,,,,0,,,73,0
18525,set_tempo,,,,,15,1,0,,1428571,,,,,,,
18540,note_on,,,,,0,0,2,,,,,0,,,52,50
18540,note_on,,,,,0,0,2,,,,,0,,,49,50
18540,note_on,,,,,0,0,2,,,,,0,,,50,0
18540,note_on,,,,,180,0,2,,,,,0,,,54,0
18540,control_change,,,,,0,0,1,,,,,0,64,96,,
18540,note_on,,,,,0,0,1,,,,,0,,,69,46
18540,note_on,,,,,0,0,1,,,,,0,,,57,46
18540,set_tempo,,,,,15,1,0,,1428571,,,,,,,
18540,note_on,,,,,15,0,1,,,,,0,,,71,0
18540,note_on,,,,,0,0,1,,,,,0,,,59,0
18600,note_on,,,,,0,0,1,,,,,0,,,57,0
18600,note_on,,,,,60,0,1,,,,,0,,,69,0
18620,set_tempo,,,,,80,1,0,,1428571,,,,,,,
18630,set_tempo,,,,,10,1,0,,1395348,,,,,,,
18630,note_on,,,,,0,0,1,,,,,0,,,68,47
18630,note_on,,,,,30,0,1,,,,,0,,,56,47
18645,note_on,,,,,0,0,1,,,,,0,,,69,49
18645,note_on,,,,,0,0,1,,,,,0,,,57,49
18645,note_on,,,,,15,0,1,,,,,0,,,68,0
18645,note_on,,,,,0,0,1,,,,,0,,,56,0
18650,set_tempo,,,,,20,1,0,,1395348,,,,,,,
18660,control_change,,,,,0,0,1,,,,,0,64,0,,
18660,note_on,,,,,0,0,1,,,,,0,,,70,52
18660,note_on,,,,,0,0,1,,,,,0,,,58,52
18660,note_on,,,,,0,0,1,,,,,0,,,57,0
18660,note_on,,,,,15,0,1,,,,,0,,,69,0
18660,set_tempo,,,,,10,1,0,,1363636,,,,,,,
18670,set_tempo,,,,,10,1,0,,1363636,,,,,,,
18675,note_on,,,,,15,0,1,,,,,0,,,70,0
18675,note_on,,,,,0,0,1,,,,,0,,,73,52
18675,note_on,,,,,0,0,1,,,,,0,,,58,0
18675,note_on,,,,,0,0,1,,,,,0,,,61,52
18690,note_on,,,,,0,0,1,,,,,0,,,71,55
18690,note_on,,,,,0,0,1,,,,,0,,,61,0
18690,note_on,,,,,15,0,1,,,,,0,,,73,0
18690,note_on,,,,,0,0,1,,,,,0,,,59,55
18705,note_on,,,,,15,0,1,,,,,0,,,71,0
18705,note_on,,,,,0,0,1,,,,,0,,,59,0
18705,note_on,,,,,0,0,1,,,,,0,,,55,56
18705,note_on,,,,,0,0,1,,,,,0,,,67,56
18705,set_tempo,,,,,35,1,0,,1333333,,,,,,,
18720,note_on,,,,,0,0,1,,,,,0,,,54,57
18720,note_on,,,,,0,0,2,,,,,0,,,49,0
18720,note_on,,,,,0,0,2,,,,,0,,,50,48
18720,note_on,,,,,180,0,2,,,,,0,,,52,0
18720,note_on,,,,,0,0,1,,,,,0,,,66,57
18720,note_on,,,,,0,0,1,,,,,0,,,55,0
18720,note_on,,,,,15,0,1,,,,,0,,,67,0
18750,note_on,,,,,30,0,1,,,,,0,,,66,0
18750,set_tempo,,,,,45,1,0,,1621621,,,,,,,
18750,note_on,,,,,0,0,1,,,,,0,,,67,59
18755,note_on,,,,,0,0,1,,,,,0,,,66,60
18755,note_on,,,,,5,0,1,,,,,0,,,67,0
18760,note_on,,,,,0,0,1,,,,,0,,,64,60
18760,note_on,,,,,5,0,1,,,,,0,,,66,0
18765,note_on,,,,,45,0,2,,,,,0,,,50,0
18765,note_on,,,,,0,0,2,,,,,0,,,52,50
18765,note_on,,,,,0,0,1,,,,,0,,,54,0
18765,note_on,,,,,0,0,1,,,,,0,,,55,60
18765,note_on,,,,,5,0,1,,,,,0,,,64,0
18765,note_on,,,,,0,0,1,,,,,0,,,66,60
18772,note_on,,,,,0,0,1,,,,,0,,,67,60
18772,note_on,,,,,7,0,1,,,,,0,,,66,0
18780,note_on,,,,,0,0,1,,,,,0,,,55,0
18780,note_on,,,,,8,0,1,,,,,0,,,67,0
18780,set_tempo,,,,,30,1,0,,1333333,,,,,,,
18780,note_on,,,,,0,0,2,,,,,0,,,54,51
18780,note_on,,,,,0,0,1,,,,,0,,,69,61
18780,note_on,,,,,0,0,1,,,,,0,,,57,61
18780,note_on,,,,,15,0,2,,,,,0,,,52,0
18820,set_tempo,,,,,40,1,0,,1304347,,,,,,,
18840,note_on,,,,,60,0,1,,,,,0,,,57,0
18840,note_on,,,,,0,0,1,,,,,0,,,69,0
18840,note_on,,,,,0,0,1,,,,,0,,,71,59
18840,note_on,,,,,0,0,1,,,,,0,,,59,59
18840,set_tempo,,,,,20,1,0,,1304347,,,,,,,
18840,note_on,,,,,60,0,2,,,,,0,,,54,0
18840,note_on,,,,,0,0,2,,,,,0,,,52,55
18840,note_on,,,,,0,0,2,,,,,0,,,55,55
18870,note_on,,,,,0,0,1,,,,,0,,,73,52
18870,note_on,,,,,0,0,1,,,,,0,,,61,52
18870,note_on,,,,,0,0,1,,,,,0,,,71,0
18870,note_on,,,,,30,0,1,,,,,0,,,59,0
18875,set_tempo,,,,,35,1,0,,1304347,,,,,,,
18880,set_tempo,,,,,5,1,0,,1304347,,,,,,,
18885,set_tempo,,,,,5,1,0,,1333333,,,,,,,
18900,note_on,,,,,0,0,2,,,,,0,,,52,0
18900,note_on,,,,,60,0,2,,,,,0,,,55,0
18900,note_on,,,,,30,0,1,,,,,0,,,61,0
18900,note_on,,,,,0,0,1,,,,,0,,,73,0
18900,note_on,,,,,0,0,1,,,,,0,,,73,62
18900,note_on,,,,,0,0,1,,,,,0,,,61,62
18900,control_change,,,,,0,0,1,,,,,0,64,96,,
18900,note_on,,,,,0,0,2,,,,,0,,,55,58
18900,note_on,,,,,0,0,2,,,,,0,,,52,58
18900,note_on,,,,,0,0,2,,,,,0,,,50,58
18905,set_tempo,,,,,20,1,0,,1333333,,,,,,,
18920,set_tempo,,,,,15,1,0,,1363636,,,,,,,
18925,set_tempo,,,,,5,1,0,,1363636,,,,,,,
18930,set_tempo,,,,,5,1,0,,1395348,,,,,,,
18945,set_tempo,,,,,15,1,0,,1395348,,,,,,,
18955,set_tempo,,,,,10,1,0,,1428571,,,,,,,
18960,note_on,,,,,0,0,2,,,,,0,,,54,51
18960,note_on,,,,,0,0,2,,,,,0,,,55,0
18960,note_on,,,,,60,0,2,,,,,0,,,52,0
18960,note_on,,,,,60,0,1,,,,,0,,,61,0
18960,note_on,,,,,0,0,1,,,,,0,,,73,0
18960,note_on,,,,,0,0,1,,,,,0,,,74,49
18960,note_on,,,,,0,0,1,,,,,0,,,62,49
18965,set_tempo,,,,,10,1,0,,1428571,,,,,,,
18970,set_tempo,,,,,5,1,0,,1463414,,,,,,,
18975,note_on,,,,,15,0,1,,,,,0,,,62,0
18975,note_on,,,,,0,0,1,,,,,0,,,74,0
18980,set_tempo,,,,,10,1,0,,1500000,,,,,,,
18990,control_change,,,,,0,0,1,,,,,0,64,0,,
18990,note_on,,,,,0,0,1,,,,,0,,,74,42
18990,note_on,,,,,15,0,1,,,,,0,,,62,42
19005,note_on,,,,,15,0,1,,,,,0,,,74,0
19005,note_on,,,,,0,0,1,,,,,0,,,62,0
19005,note_on,,,,,0,0,1,,,,,0,,,66,46
19005,note_on,,,,,0,0,1,,,,,0,,,78,46
19005,set_tempo,,,,,25,1,0,,1463414,,,,,,,
19015,note_on,,,,,10,0,1,,,,,0,,,78,0
19015,note_on,,,,,0,0,1,,,,,0,,,66,0
19020,note_on,,,,,5,0,1,,,,,0,,,66,50
19020,note_on,,,,,0,0,1,,,,,0,,,78,50
19020,note_on,,,,,0,0,2,,,,,0,,,50,0
19020,note_on,,,,,60,0,2,,,,,0,,,54,0
19025,set_tempo,,,,,20,1,0,,1463414,,,,,,,
19035,note_on,,,,,15,0,1,,,,,0,,,78,0
19035,note_on,,,,,0,0,1,,,,,0,,,66,0
19035,note_on,,,,,0,0,1,,,,,0,,,69,52
19035,note_on,,,,,0,0,1,,,,,0,,,81,52
19045,set_tempo,,,,,20,1,0,,1428571,,,,,,,
19050,note_on,,,,,0,0,1,,,,,0,,,69,0
19050,note_on,,,,,0,0,1,,,,,0,,,79,55
19050,note_on,,,,,15,0,1,,,,,0,,,81,0
19050,note_on,,,,,0,0,1,,,,,0,,,67,55
19065,note_on,,,,,0,0,1,,,,,0,,,67,0
19065,note_on,,,,,0,0,1,,,,,0,,,66,57
19065,note_on,,,,,15,0,1,,,,,0,,,79,0
19065,note_on,,,,,0,0,1,,,,,0,,,78,57
19075,set_tempo,,,,,30,1,0,,1428571,,,,,,,
19080,note_on,,,,,60,0,2,,,,,0,,,57,42
19080,note_on,,,,,0,0,2,,,,,0,,,55,42
19080,note_on,,,,,0,0,1,,,,,0,,,66,60
19080,note_on,,,,,0,0,1,,,,,0,,,78,60
19080,control_change,,,,,0,0,1,,,,,0,64,96,,
19080,note_on,,,,,0,0,1,,,,,0,,,66,0
19080,note_on,,,,,15,0,1,,,,,0,,,78,0
19110,set_tempo,,,,,35,1,0,,1395348,,,,,,,
19120,set_tempo,,,,,10,1,0,,1395348,,,,,,,
19130,set_tempo,,,,,10,1,0,,1395348,,,,,,,
19135,set_tempo,,,,,5,1,0,,1395348,,,,,,,
19140,note_on,,,,,0,0,1,,,,,0,,,76,41
19140,set_tempo,,,,,5,1,0,,1428571,,,,,,,
19140,note_on,,,,,0,0,1,,,,,0,,,66,0
19140,note_on,,,,,0,0,1,,,,,0,,,64,41
19140,note_on,,,,,60,0,1,,,,,0,,,78,0
19145,set_tempo,,,,,5,1,0,,1428571,,,,,,,
19150,set_tempo,,,,,5,1,0,,1428571,,,,,,,
19155,set_tempo,,,,,5,1,0,,1428571,,,,,,,
19160,set_tempo,,,,,5,1,0,,1428571,,,,,,,
19162,note_on,,,,,0,0,1,,,,,0,,,64,0
19162,note_on,,,,,22,0,1,,,,,0,,,76,0
19165,set_tempo,,,,,5,1,0,,1428571,,,,,,,
19170,control_change,,,,,0,0,1,,,,,0,64,0,,
19170,note_on,,,,,0,0,1,,,,,0,,,71,44
19170,note_on,,,,,8,0,1,,,,,0,,,59,44
19170,note_on,,,,,0,0,2,,,,,0,,,57,0
19170,note_on,,,,,90,0,2,,,,,0,,,55,0
19170,set_tempo,,,,,5,1,0,,1428571,,,,,,,
19175,set_tempo,,,,,5,1,0,,1428571,,,,,,,
19180,set_tempo,,,,,5,1,0,,1428571,,,,,,,
19185,note_on,,,,,0,0,1,,,,,0,,,73,47
19185,note_on,,,,,0,0,1,,,,,0,,,61,47
19185,note_on,,,,,0,0,1,,,,,0,,,59,0
19185,note_on,,,,,15,0,1,,,,,0,,,71,0
19185,set_tempo,,,,,5,1,0,,1463414,,,,,,,
19195,set_tempo,,,,,10,1,0,,1463414,,,,,,,
19200,note_on,,,,,0,0,1,,,,,0,,,74,52
19200,note_on,,,,,0,0,1,,,,,0,,,61,0
19200,note_on,,,,,15,0,1,,,,,0,,,73,0
19200,note_on,,,,,0,0,1,,,,,0,,,62,52
19200,set_tempo,,,,,5,1,0,,1463414,,,,,,,
19210,set_tempo,,,,,10,1,0,,1463414,,,,,,,
19215,note_on,,,,,15,0,1,,,,,0,,,74,0
19215,note_on,,,,,0,0,1,,,,,0,,,62,0
19215,note_on,,,,,0,0,1,,,,,0,,,61,55
19215,note_on,,,,,0,0,1,,,,,0,,,73,55
19220,set_tempo,,,,,10,1,0,,1463414,,,,,,,
19225,set_tempo,,,,,5,1,0,,1428571,,,,,,,
19230,set_tempo,,,,,5,1,0,,1428571,,,,,,,
19230,note_on,,,,,0,0,1,,,,,0,,,59,57
19230,note_on,,,,,0,0,1,,,,,0,,,71,57
19230,note_on,,,,,15,0,1,,,,,0,,,73,0
19230,note_on,,,,,0,0,1,,,,,0,,,61,0
19240,set_tempo,,,,,10,1,0,,1428571,,,,,,,
19245,note_on,,,,,0,0,1,,,,,0,,,57,60
19245,note_on,,,,,0,0,1,,,,,0,,,69,60
19245,note_on,,,,,0,0,1,,,,,0,,,59,0
19245,set_tempo,,,,,5,1,0,,1395348,,,,,,,
19245,note_on,,,,,15,0,1,,,,,0,,,71,0
19255,set_tempo,,,,,10,1,0,,1395348,,,,,,,
19260,note_on,,,,,0,0,1,,,,,0,,,76,58
19260,note_on,,,,,15,0,1,,,,,0,,,69,0
19260,control_change,,,,,0,0,1,,,,,0,64,96,,
19260,note_on,,,,,0,0,1,,,,,0,,,64,58
19260,note_on,,,,,0,0,1,,,,,0,,,57,0
19260,note_on,,,,,0,0,2,,,,,0,,,57,41
19260,note_on,,,,,90,0,2,,,,,0,,,54,41
19260,set_tempo,,,,,5,1,0,,1395348,,,,,,,
19265,set_tempo,,,,,5,1,0,,1395348,,,,,,,
19270,set_tempo,,,,,5,1,0,,1395348,,,,,,,
19275,set_tempo,,,,,5,1,0,,1395348,,,,,,,
19285,set_tempo,,,,,10,1,0,,1395348,,,,,,,
19290,set_tempo,,,,,5,1,0,,1395348,,,,,,,
19295,set_tempo,,,,,5,1,0,,1428571,,,,,,,
19300,set_tempo,,,,,5,1,0,,1428571,,,,,,,
19310,set_tempo,,,,,10,1,0,,1428571,,,,,,,
19315,set_tempo,,,,,5,1,0,,1428571,,,,,,,
19320,note_on,,,,,0,0,1,,,,,0,,,64,0
19320,note_on,,,,,60,0,1,,,,,0,,,76,0
19320,note_on,,,,,0,0,1,,,,,0,,,74,44
19320,note_on,,,,,0,0,1,,,,,0,,,62,44
19330,set_tempo,,,,,15,1,0,,1428571,,,,,,,
19340,set_tempo,,,,,10,1,0,,1428571,,,,,,,
19342,note_on,,,,,22,0,1,,,,,0,,,74,0
19342,note_on,,,,,0,0,1,,,,,0,,,62,0
19345,control_change,,,,,3,0,1,,,,,0,64,0,,
19350,note_on,,,,,0,0,2,,,,,0,,,54,0
19350,note_on,,,,,0,0,2,,,,,0,,,57,39
19350,note_on,,,,,0,0,2,,,,,0,,,54,39
19350,note_on,,,,,5,0,1,,,,,0,,,69,46
19350,note_on,,,,,90,0,2,,,,,0,,,57,0
19350,set_tempo,,,,,10,1,0,,1428571,,,,,,,
19365,note_on,,,,,0,0,1,,,,,0,,,74,50
19365,note_on,,,,,15,0,1,,,,,0,,,69,0
19370,set_tempo,,,,,20,1,0,,1428571,,,,,,,
19372,note_on,,,,,22,0,2,,,,,0,,,57,0
19372,note_on,,,,,0,0,2,,,,,0,,,54,0
19375,note_on,,,,,10,0,1,,,,,0,,,74,0
19380,note_on,,,,,5,0,1,,,,,0,,,74,52
19380,set_tempo,,,,,10,1,0,,1428571,,,,,,,
19380,note_on,,,,,8,0,2,,,,,0,,,62,43
19380,note_on,,,,,0,0,2,,,,,0,,,57,43
19395,note_on,,,,,15,0,1,,,,,0,,,74,0
19395,note_on,,,,,0,0,1,,,,,0,,,78,55
19402,note_on,,,,,22,0,2,,,,,0,,,57,0
19402,note_on,,,,,0,0,2,,,,,0,,,62,0
19405,note_on,,,,,10,0,1,,,,,0,,,78,0
19410,note_on,,,,,5,0,1,,,,,0,,,78,60
19410,note_on,,,,,8,0,2,,,,,0,,,66,47
19410,note_on,,,,,0,0,2,,,,,0,,,62,47
19425,note_on,,,,,15,0,1,,,,,0,,,78,0
19425,note_on,,,,,0,0,1,,,,,0,,,81,65
19425,set_tempo,,,,,45,1,0,,1428571,,,,,,,
19430,set_tempo,,,,,5,1,0,,1333333,,,,,,,
19432,note_on,,,,,22,0,2,,,,,0,,,62,0
19432,note_on,,,,,0,0,2,,,,,0,,,66,0
19435,set_tempo,,,,,5,1,0,,1333333,,,,,,,
19435,note_on,,,,,10,0,1,,,,,0,,,81,0
19440,note_on,,,,,5,0,1,,,,,0,,,81,67
19440,note_on,,,,,0,0,1,,,,,0,,,69,67
19440,set_tempo,,,,,5,1,0,,1333333,,,,,,,
19440,note_on,,,,,8,0,2,,,,,0,,,57,51
19445,set_tempo,,,,,5,1,0,,1333333,,,,,,,
19450,set_tempo,,,,,5,1,0,,1333333,,,,,,,
19462,note_on,,,,,22,0,2,,,,,0,,,57,0
19470,note_on,,,,,0,0,2,,,,,0,,,66,55
19470,note_on,,,,,8,0,2,,,,,0,,,69,55
19480,set_tempo,,,,,30,1,0,,1333333,,,,,,,
19485,note_on,,,,,45,0,1,,,,,0,,,69,0
19485,note_on,,,,,0,0,1,,,,,0,,,81,0
19490,set_tempo,,,,,10,1,0,,1333333,,,,,,,
19492,note_on,,,,,22,0,2,,,,,0,,,66,0
19492,note_on,,,,,0,0,2,,,,,0,,,69,0
19500,set_tempo,,,,,10,1,0,,1333333,,,,,,,
19500,note_on,,,,,8,0,2,,,,,0,,,57,57
19500,note_on,,,,,15,0,1,,,,,0,,,83,59
19500,note_on,,,,,0,0,1,,,,,0,,,71,59
19515,set_tempo,,,,,15,1,0,,1333333,,,,,,,
19520,set_tempo,,,,,5,1,0,,1333333,,,,,,,
19522,note_on,,,,,22,0,2,,,,,0,,,57,0
19530,set_tempo,,,,,10,1,0,,1333333,,,,,,,
19530,note_on,,,,,8,0,2,,,,,0,,,67,60
19530,note_on,,,,,0,0,2,,,,,0,,,64,60
19535,set_tempo,,,,,5,1,0,,1333333,,,,,,,
19540,set_tempo,,,,,5,1,0,,1363636,,,,,,,
19545,note_on,,,,,45,0,1,,,,,0,,,71,0
19545,note_on,,,,,0,0,1,,,,,0,,,83,0
19550,set_tempo,,,,,10,1,0,,1363636,,,,,,,
19552,note_on,,,,,22,0,2,,,,,0,,,64,0
19552,note_on,,,,,0,0,2,,,,,0,,,67,0
19560,note_on,,,,,8,0,2,,,,,0,,,45,65
19560,note_on,,,,,15,0,1,,,,,0,,,85,67
19560,note_on,,,,,0,0,1,,,,,0,,,73,67
19565,set_tempo,,,,,15,1,0,,1363636,,,,,,,
19575,set_tempo,,,,,10,1,0,,1363636,,,,,,,
19582,note_on,,,,,22,0,2,,,,,0,,,45,0
19585,set_tempo,,,,,10,1,0,,1363636,,,,,,,
19590,note_on,,,,,8,0,2,,,,,0,,,64,76
19590,note_on,,,,,0,0,2,,,,,0,,,57,76
19590,set_tempo,,,,,5,1,0,,1363636,,,,,,,
19595,set_tempo,,,,,5,1,0,,1363636,,,,,,,
19600,set_tempo,,,,,5,1,0,,1363636,,,,,,,
19605,note_on,,,,,0,0,1,,,,,0,,,85,0
19605,note_on,,,,,45,0,1,,,,,0,,,73,0
19610,set_tempo,,,,,10,1,0,,1395348,,,,,,,
19612,note_on,,,,,22,0,2,,,,,0,,,57,0
19612,note_on,,,,,0,0,2,,,,,0,,,64,0
19615,set_tempo,,,,,5,1,0,,1395348,,,,,,,
19620,control_change,,,,,0,0,1,,,,,0,64,96,,
19620,note_on,,,,,0,0,1,,,,,0,,,74,75
19620,set_tempo,,,,,5,1,0,,1395348,,,,,,,
19620,note_on,,,,,15,0,1,,,,,0,,,86,75
19620,note_on,,,,,8,0,2,,,,,0,,,38,94
19630,set_tempo,,,,,10,1,0,,1395348,,,,,,,
19635,set_tempo,,,,,5,1,0,,1428571,,,,,,,
19640,set_tempo,,,,,5,1,0,,1428571,,,,,,,
19642,note_on,,,,,22,0,2,,,,,0,,,38,0
19645,set_tempo,,,,,5,1,0,,1428571,,,,,,,
19650,note_on,,,,,8,0,2,,,,,0,,,62,81
19650,note_on,,,,,0,0,2,,,,,0,,,54,81
19650,set_tempo,,,,,5,1,0,,1428571,,,,,,,
19655,set_tempo,,,,,5,1,0,,1463414,,,,,,,
19660,set_tempo,,,,,5,1,0,,1463414,,,,,,,
19665,set_tempo,,,,,5,1,0,,1538461,,,,,,,
19680,set_tempo,,,,,15,1,0,,2068965,,,,,,,
19680,note_on,,,,,60,0,1,,,,,0,,,74,0
19680,note_on,,,,,0,0,1,,,,,0,,,86,0
19685,set_tempo,,,,,5,1,0,,2068965,,,,,,,
19695,set_tempo,,,,,10,1,0,,2857142,,,,,,,
19695,note_on,,,,,0,0,2,,,,,0,,,62,0
19695,note_on,,,,,45,0,2,,,,,0,,,54,0
19710,set_tempo,,,,,15,1,0,,1428571,,,,,,,
19710,note_on,,,,,30,0,1,,,,,0,,,54,41
19710,control_change,,,,,0,0,1,,,,,0,64,0,,
19710,note_on,,,,,0,0,1,,,,,0,,,66,41
19720,set_tempo,,,,,10,1,0,,1428571,,,,,,,
19735,set_tempo,,,,,15,1,0,,1428571,,,,,,,
19740,note_on,,,,,0,0,1,,,,,0,,,55,51
19740,note_on,,,,,0,0,1,,,,,0,,,67,51
19740,note_on,,,,,30,0,1,,,,,0,,,66,0
19740,note_on,,,,,0,0,1,,,,,0,,,54,0
19755,set_tempo,,,,,20,1,0,,1428571,,,,,,,
19770,note_on,,,,,0,0,1,,,,,0,,,57,60
19770,note_on,,,,,0,0,1,,,,,0,,,55,0
19770,note_on,,,,,30,0,1,,,,,0,,,67,0
19770,note_on,,,,,0,0,1,,,,,0,,,69,60
19800,note_on,,,,,0,0,1,,,,,0,,,59,68
19800,note_on,,,,,0,0,1,,,,,0,,,71,68
19800,note_on,,,,,30,0,1,,,,,0,,,69,0
19800,set_tempo,,,,,45,1,0,,1666666,,,,,,,
19800,note_on,,,,,105,0,2,,,,,0,,,50,42
19800,note_on,,,,,0,0,2,,,,,0,,,43,42
19800,note_on,,,,,0,0,2,,,,,0,,,52,68
19800,note_on,,,,,0,0,1,,,,,0,,,57,0
19800,control_change,,,,,0,0,1,,,,,0,64,96,,
19860,set_tempo,,,,,60,1,0,,1428571,,,,,,,
19865,set_tempo,,,,,5,1,0,,1463414,,,,,,,
19875,note_on,,,,,0,0,1,,,,,0,,,69,62
19875,note_on,,,,,0,0,1,,,,,0,,,57,62
19875,note_on,,,,,75,0,1,,,,,0,,,71,0
19875,note_on,,,,,0,0,1,,,,,0,,,59,0
19880,set_tempo,,,,,15,1,0,,1428571,,,,,,,
19885,set_tempo,,,,,5,1,0,,1428571,,,,,,,
19890,note_on,,,,,0,0,1,,,,,0,,,67,58
19890,note_on,,,,,15,0,1,,,,,0,,,69,0
19890,note_on,,,,,0,0,1,,,,,0,,,57,0
19890,note_on,,,,,0,0,1,,,,,0,,,55,58
19905,note_on,,,,,15,0,1,,,,,0,,,67,0
19905,note_on,,,,,0,0,1,,,,,0,,,54,55
19905,note_on,,,,,0,0,1,,,,,0,,,55,0
19905,note_on,,,,,0,0,1,,,,,0,,,66,55
19920,note_on,,,,,0,0,1,,,,,0,,,64,53
19920,note_on,,,,,15,0,1,,,,,0,,,66,0
19920,note_on,,,,,0,0,1,,,,,0,,,54,0
19920,set_tempo,,,,,35,1,0,,1395348,,,,,,,
19920,note_on,,,,,0,0,1,,,,,0,,,52,53
19945,set_tempo,,,,,25,1,0,,1463414,,,,,,,
19965,note_on,,,,,45,0,1,,,,,0,,,64,0
19965,note_on,,,,,165,0,2,,,,,0,,,52,0
19965,note_on,,,,,0,0,2,,,,,0,,,50,0
19965,note_on,,,,,0,0,2,,,,,0,,,43,0
19965,note_on,,,,,0,0,1,,,,,0,,,52,0
19975,control_change,,,,,10,0,1,,,,,0,64,0,,
19980,note_on,,,,,0,0,2,,,,,0,,,52,61
19980,note_on,,,,,5,0,1,,,,,0,,,62,82
19980,note_on,,,,,0,0,1,,,,,0,,,74,82
19980,control_change,,,,,0,0,1,,,,,0,64,96,,
19980,set_tempo,,,,,35,1,0,,1463414,,,,,,,
19980,note_on,,,,,15,0,2,,,,,0,,,44,61
20010,set_tempo,,,,,30,1,0,,1428571,,,,,,,
20025,note_on,,,,,45,0,1,,,,,0,,,74,0
20025,note_on,,,,,0,0,1,,,,,0,,,62,0
20025,note_on,,,,,0,0,1,,,,,0,,,61,73
20025,note_on,,,,,0,0,1,,,,,0,,,73,73
20040,note_on,,,,,0,0,1,,,,,0,,,61,0
20040,note_on,,,,,15,0,1,,,,,0,,,73,0
20040,note_on,,,,,0,0,1,,,,,0,,,59,69
20040,note_on,,,,,0,0,1,,,,,0,,,71,69
20050,set_tempo,,,,,40,1,0,,1395348,,,,,,,
20055,note_on,,,,,15,0,1,,,,,0,,,71,0
20055,note_on,,,,,0,0,1,,,,,0,,,59,0
20055,note_on,,,,,0,0,1,,,,,0,,,57,67
20055,set_tempo,,,,,5,1,0,,1363636,,,,,,,
20055,note_on,,,,,0,0,1,,,,,0,,,69,67
20060,set_tempo,,,,,5,1,0,,1363636,,,,,,,
20070,note_on,,,,,0,0,1,,,,,0,,,57,0
20070,note_on,,,,,0,0,1,,,,,0,,,68,65
20070,note_on,,,,,0,0,1,,,,,0,,,56,65
20070,set_tempo,,,,,10,1,0,,1333333,,,,,,,
20070,note_on,,,,,15,0,1,,,,,0,,,69,0
20080,set_tempo,,,,,10,1,0,,1304347,,,,,,,
20085,note_on,,,,,0,0,1,,,,,0,,,56,0
20085,note_on,,,,,15,0,1,,,,,0,,,68,0
20085,note_on,,,,,0,0,1,,,,,0,,,54,64
20085,note_on,,,,,0,0,1,,,,,0,,,66,64
20100,note_on,,,,,0,0,1,,,,,0,,,52,61
20100,note_on,,,,,0,0,1,,,,,0,,,54,0
20100,note_on,,,,,15,0,1,,,,,0,,,66,0
20100,note_on,,,,,0,0,1,,,,,0,,,64,61
20105,set_tempo,,,,,25,1,0,,1304347,,,,,,,
20110,set_tempo,,,,,5,1,0,,1276595,,,,,,,
20125,set_tempo,,,,,15,1,0,,1276595,,,,,,,
20130,control_change,,,,,30,0,1,,,,,0,64,0,,
20130,set_tempo,,,,,5,1,0,,1363636,,,,,,,
20145,note_on,,,,,0,0,2,,,,,0,,,44,0
20145,note_on,,,,,15,0,1,,,,,0,,,64,0
20145,note_on,,,,,0,0,1,,,,,0,,,52,0
20145,note_on,,,,,165,0,2,,,,,0,,,52,0
20160,note_on,,,,,0,0,1,,,,,0,,,64,88
20160,note_on,,,,,0,0,1,,,,,0,,,74,88
20160,control_change,,,,,0,0,1,,,,,0,64,95,,
20160,note_on,,,,,15,0,2,,,,,0,,,45,76
20160,note_on,,,,,15,0,1,,,,,0,,,55,88
20190,set_tempo,,,,,60,1,0,,1363636,,,,,,,
20210,set_tempo,,,,,20,1,0,,1333333,,,,,,,
20220,note_on,,,,,60,0,1,,,,,0,,,74,0
20220,note_on,,,,,0,0,1,,,,,0,,,73,54
20225,set_tempo,,,,,15,1,0,,1333333,,,,,,,
20250,note_on,,,,,30,0,1,,,,,0,,,73,0
20250,note_on,,,,,0,0,1,,,,,0,,,64,0
20250,note_on,,,,,0,0,1,,,,,0,,,55,0
20250,note_on,,,,,0,0,1,,,,,0,,,54,60
20250,note_on,,,,,0,0,1,,,,,0,,,66,60
20250,note_on,,,,,0,0,1,,,,,0,,,74,60
20250,control_change,,,,,0,0,1,,,,,0,64,0,,
20280,note_on,,,,,30,0,1,,,,,0,,,74,0
20280,set_tempo,,,,,55,1,0,,1304347,,,,,,,
20280,note_on,,,,,0,0,1,,,,,0,,,52,68
20280,note_on,,,,,0,0,1,,,,,0,,,54,0
20280,note_on,,,,,0,0,1,,,,,0,,,76,68
20280,note_on,,,,,0,0,1,,,,,0,,,67,68
20280,note_on,,,,,0,0,1,,,,,0,,,66,0
20300,set_tempo,,,,,20,1,0,,1304347,,,,,,,
20310,note_on,,,,,0,0,1,,,,,0,,,52,0
20310,note_on,,,,,0,0,1,,,,,0,,,57,77
20310,note_on,,,,,0,0,1,,,,,0,,,64,77
20310,note_on,,,,,0,0,1,,,,,0,,,73,77
20310,note_on,,,,,30,0,1,,,,,0,,,76,0
20310,note_on,,,,,0,0,1,,,,,0,,,67,0
20325,set_tempo,,,,,25,1,0,,1276595,,,,,,,
20335,set_tempo,,,,,10,1,0,,1250000,,,,,,,
20340,note_on,,,,,30,0,1,,,,,0,,,73,0
20340,note_on,,,,,0,0,1,,,,,0,,,57,0
20340,note_on,,,,,0,0,1,,,,,0,,,66,81
20340,note_on,,,,,0,0,1,,,,,0,,,74,81
20340,control_change,,,,,0,0,1,,,,,0,64,95,,
20340,note_on,,,,,0,0,1,,,,,0,,,64,0
20340,note_on,,,,,180,0,2,,,,,0,,,45,0
20340,note_on,,,,,0,0,2,,,,,0,,,57,72
20340,note_on,,,,,0,0,2,,,,,0,,,50,72
20345,set_tempo,,,,,10,1,0,,1395348,,,,,,,
20400,note_on,,,,,60,0,1,,,,,0,,,74,0
20400,note_on,,,,,0,0,1,,,,,0,,,78,59
20420,set_tempo,,,,,75,1,0,,1621621,,,,,,,
20430,control_change,,,,,30,0,1,,,,,0,64,0,,
20445,note_on,,,,,105,0,2,,,,,0,,,50,0
20445,note_on,,,,,0,0,2,,,,,0,,,57,0
20445,note_on,,,,,15,0,1,,,,,0,,,66,0
20450,note_on,,,,,5,0,1,,,,,0,,,78,0
20460,note_on,,,,,0,0,1,,,,,0,,,81,36
20460,note_on,,,,,10,0,1,,,,,0,,,78,36
20460,note_on,,,,,15,0,2,,,,,0,,,62,37
20460,note_on,,,,,0,0,2,,,,,0,,,69,37
20480,set_tempo,,,,,60,1,0,,1363636,,,,,,,
20510,note_on,,,,,50,0,1,,,,,0,,,81,0
20510,note_on,,,,,0,0,1,,,,,0,,,78,0
20510,note_on,,,,,50,0,2,,,,,0,,,69,0
20510,note_on,,,,,0,0,2,,,,,0,,,62,0
20515,set_tempo,,,,,35,1,0,,1428571,,,,,,,
20520,note_on,,,,,10,0,1,,,,,0,,,78,40
20520,note_on,,,,,10,0,2,,,,,0,,,61,37
20520,set_tempo,,,,,5,1,0,,1500000,,,,,,,
20520,note_on,,,,,0,0,1,,,,,0,,,81,40
20520,control_change,,,,,0,0,1,,,,,0,64,96,,
20520,note_on,,,,,0,0,2,,,,,0,,,69,37
20530,set_tempo,,,,,10,1,0,,1463414,,,,,,,
20535,set_tempo,,,,,5,1,0,,1463414,,,,,,,
20550,set_tempo,,,,,15,1,0,,1428571,,,,,,,
20580,note_on,,,,,0,0,1,,,,,0,,,76,30
20580,note_on,,,,,0,0,1,,,,,0,,,78,0
20580,note_on,,,,,60,0,1,,,,,0,,,81,0
20580,note_on,,,,,0,0,1,,,,,0,,,79,30
20595,set_tempo,,,,,45,1,0,,1428571,,,,,,,
20595,note_on,,,,,0,0,1,,,,,0,,,81,32
20595,note_on,,,,,15,0,1,,,,,0,,,79,0
20595,note_on,,,,,0,0,1,,,,,0,,,76,0
20595,note_on,,,,,0,0,1,,,,,0,,,78,32
20610,note_on,,,,,0,0,1,,,,,0,,,76,36
20610,control_change,,,,,0,0,1,,,,,0,64,0,,
20610,note_on,,,,,0,0,1,,,,,0,,,78,0
20610,note_on,,,,,0,0,1,,,,,0,,,79,36
20610,note_on,,,,,15,0,1,,,,,0,,,81,0
20615,set_tempo,,,,,20,1,0,,1395348,,,,,,,
20625,note_on,,,,,15,0,1,,,,,0,,,76,0
20625,note_on,,,,,0,0,1,,,,,0,,,79,0
20625,note_on,,,,,0,0,1,,,,,0,,,78,39
20625,note_on,,,,,0,0,2,,,,,0,,,61,0
20625,note_on,,,,,105,0,2,,,,,0,,,69,0
20625,note_on,,,,,0,0,1,,,,,0,,,81,39
20635,set_tempo,,,,,20,1,0,,1395348,,,,,,,
20640,note_on,,,,,0,0,1,,,,,0,,,83,39
20640,note_on,,,,,0,0,1,,,,,0,,,79,39
20640,note_on,,,,,0,0,1,,,,,0,,,78,0
20640,note_on,,,,,0,0,2,,,,,0,,,69,35
20640,note_on,,,,,15,0,2,,,,,0,,,57,35
20640,note_on,,,,,15,0,1,,,,,0,,,81,0
20650,set_tempo,,,,,15,1,0,,1363636,,,,,,,
20655,set_tempo,,,,,5,1,0,,1363636,,,,,,,
20670,note_on,,,,,30,0,1,,,,,0,,,83,0
20670,note_on,,,,,0,0,1,,,,,0,,,79,0
20670,note_on,,,,,0,0,1,,,,,0,,,76,43
20670,note_on,,,,,0,0,1,,,,,0,,,79,43
20670,set_tempo,,,,,15,1,0,,1333333,,,,,,,
20675,set_tempo,,,,,5,1,0,,1333333,,,,,,,
20690,note_on,,,,,50,0,2,,,,,0,,,69,0
20690,note_on,,,,,0,0,2,,,,,0,,,57,0
20700,control_change,,,,,0,0,1,,,,,0,64,96,,
20700,note_on,,,,,0,0,1,,,,,0,,,76,0
20700,note_on,,,,,30,0,1,,,,,0,,,79,0
20700,note_on,,,,,0,0,2,,,,,0,,,69,32
20700,note_on,,,,,0,0,1,,,,,0,,,81,47
20700,note_on,,,,,10,0,2,,,,,0,,,62,32
20700,note_on,,,,,0,0,1,,,,,0,,,79,47
20730,set_tempo,,,,,55,1,0,,1428571,,,,,,,
20740,set_tempo,,,,,10,1,0,,1395348,,,,,,,
20760,note_on,,,,,60,0,1,,,,,0,,,81,0
20760,note_on,,,,,0,0,1,,,,,0,,,79,0
20760,note_on,,,,,0,0,1,,,,,0,,,78,36
20760,note_on,,,,,0,0,1,,,,,0,,,86,36
20765,set_tempo,,,,,25,1,0,,1395348,,,,,,,
20770,set_tempo,,,,,5,1,0,,1363636,,,,,,,
20775,set_tempo,,,,,5,1,0,,1363636,,,,,,,
20785,control_change,,,,,25,0,1,,,,,0,64,0,,
20790,set_tempo,,,,,15,1,0,,1333333,,,,,,,
20795,set_tempo,,,,,5,1,0,,1333333,,,,,,,
20805,note_on,,,,,105,0,2,,,,,0,,,69,0
20805,note_on,,,,,0,0,2,,,,,0,,,62,0
20810,note_on,,,,,25,0,1,,,,,0,,,86,0
20810,note_on,,,,,0,0,1,,,,,0,,,78,0
20815,set_tempo,,,,,20,1,0,,1304347,,,,,,,
20820,note_on,,,,,10,0,1,,,,,0,,,54,51
20820,note_on,,,,,0,0,1,,,,,0,,,69,51
20835,set_tempo,,,,,20,1,0,,1304347,,,,,,,
20850,note_on,,,,,30,0,1,,,,,0,,,69,0
20850,set_tempo,,,,,15,1,0,,1276595,,,,,,,
20850,note_on,,,,,0,0,1,,,,,0,,,54,0
20850,note_on,,,,,0,0,1,,,,,0,,,71,57
20850,note_on,,,,,0,0,1,,,,,0,,,55,57
20870,set_tempo,,,,,20,1,0,,1276595,,,,,,,
20880,note_on,,,,,0,0,1,,,,,0,,,74,67
20880,note_on,,,,,0,0,1,,,,,0,,,55,67
20880,note_on,,,,,75,0,2,,,,,0,,,45,49
20880,note_on,,,,,0,0,1,,,,,0,,,55,0
20880,note_on,,,,,30,0,1,,,,,0,,,71,0
20880,control_change,,,,,0,0,1,,,,,0,64,97,,
20880,set_tempo,,,,,10,1,0,,1250000,,,,,,,
20880,note_on,,,,,0,0,1,,,,,0,,,64,67
20885,set_tempo,,,,,5,1,0,,1333333,,,,,,,
20915,set_tempo,,,,,30,1,0,,1395348,,,,,,,
20940,note_on,,,,,0,0,1,,,,,0,,,73,55
20940,note_on,,,,,60,0,1,,,,,0,,,74,0
20945,set_tempo,,,,,30,1,0,,1363636,,,,,,,
20965,set_tempo,,,,,20,1,0,,1333333,,,,,,,
20965,control_change,,,,,25,0,1,,,,,0,64,0,,
20970,set_tempo,,,,,5,1,0,,1333333,,,,,,,
20970,note_on,,,,,5,0,1,,,,,0,,,73,0
20970,note_on,,,,,0,0,1,,,,,0,,,74,59
20970,note_on,,,,,0,0,1,,,,,0,,,66,59
20970,note_on,,,,,0,0,1,,,,,0,,,54,59
20970,note_on,,,,,0,0,1,,,,,0,,,55,0
20970,note_on,,,,,0,0,1,,,,,0,,,64,0
20985,set_tempo,,,,,15,1,0,,1304347,,,,,,,
21000,note_on,,,,,30,0,1,,,,,0,,,74,0
21000,note_on,,,,,0,0,1,,,,,0,,,66,0
21000,note_on,,,,,0,0,1,,,,,0,,,54,0
21000,note_on,,,,,0,0,1,,,,,0,,,52,63
21000,note_on,,,,,0,0,1,,,,,0,,,67,63
21000,note_on,,,,,0,0,1,,,,,0,,,76,63
21010,set_tempo,,,,,25,1,0,,1304347,,,,,,,
21020,set_tempo,,,,,10,1,0,,1276595,,,,,,,
21030,note_on,,,,,30,0,1,,,,,0,,,76,0
21030,note_on,,,,,0,0,1,,,,,0,,,67,0
21030,note_on,,,,,0,0,1,,,,,0,,,52,0
21030,note_on,,,,,0,0,1,,,,,0,,,64,66
21030,note_on,,,,,0,0,1,,,,,0,,,73,66
21030,note_on,,,,,0,0,1,,,,,0,,,57,66
21035,set_tempo,,,,,15,1,0,,1276595,,,,,,,
21045,set_tempo,,,,,10,1,0,,1250000,,,,,,,
21055,set_tempo,,,,,10,1,0,,1250000,,,,,,,
21060,note_on,,,,,0,0,2,,,,,0,,,57,55
21060,note_on,,,,,0,0,2,,,,,0,,,50,55
21060,note_on,,,,,30,0,1,,,,,0,,,73,0
21060,note_on,,,,,0,0,1,,,,,0,,,64,0
21060,set_tempo,,,,,5,1,0,,1395348,,,,,,,
21060,control_change,,,,,0,0,1,,,,,0,64,95,,
21060,note_on,,,,,0,0,1,,,,,0,,,74,72
21060,note_on,,,,,0,0,1,,,,,0,,,66,72
21060,note_on,,,,,0,0,1,,,,,0,,,57,0
21060,note_on,,,,,180,0,2,,,,,0,,,45,0
21120,note_on,,,,,0,0,1,,,,,0,,,78,59
21120,note_on,,,,,60,0,1,,,,,0,,,74,0
21150,control_change,,,,,30,0,1,,,,,0,64,0,,
21160,set_tempo,,,,,100,1,0,,1428571,,,,,,,
21165,note_on,,,,,15,0,1,,,,,0,,,66,0
21165,note_on,,,,,105,0,2,,,,,0,,,57,0
21165,note_on,,,,,0,0,2,,,,,0,,,50,0
21170,note_on,,,,,5,0,1,,,,,0,,,78,0
21175,set_tempo,,,,,15,1,0,,1428571,,,,,,,
21180,set_tempo,,,,,5,1,0,,1428571,,,,,,,
21180,note_on,,,,,15,0,2,,,,,0,,,69,46
21180,note_on,,,,,10,0,1,,,,,0,,,76,47
21180,note_on,,,,,0,0,1,,,,,0,,,81,47
21180,note_on,,,,,0,0,2,,,,,0,,,61,46
21200,set_tempo,,,,,20,1,0,,1463414,,,,,,,
21210,note_on,,,,,0,0,2,,,,,0,,,64,42
21210,note_on,,,,,30,0,2,,,,,0,,,69,0
21225,set_tempo,,,,,25,1,0,,1463414,,,,,,,
21225,note_on,,,,,15,0,2,,,,,0,,,64,0
21230,note_on,,,,,0,0,1,,,,,0,,,76,0
21230,note_on,,,,,50,0,1,,,,,0,,,81,0
21230,note_on,,,,,5,0,2,,,,,0,,,61,0
21240,note_on,,,,,0,0,1,,,,,0,,,81,36
21240,note_on,,,,,10,0,1,,,,,0,,,74,36
21240,control_change,,,,,0,0,1,,,,,0,64,95,,
21240,note_on,,,,,0,0,2,,,,,0,,,66,35
21240,note_on,,,,,10,0,2,,,,,0,,,59,35
21285,set_tempo,,,,,60,1,0,,1500000,,,,,,,
21300,note_on,,,,,0,0,1,,,,,0,,,74,0
21300,note_on,,,,,60,0,1,,,,,0,,,81,0
21300,note_on,,,,,0,0,1,,,,,0,,,80,40
21315,set_tempo,,,,,30,1,0,,1500000,,,,,,,
21315,note_on,,,,,15,0,1,,,,,0,,,80,0
21315,note_on,,,,,0,0,1,,,,,0,,,81,43
21330,set_tempo,,,,,15,1,0,,1538461,,,,,,,
21330,note_on,,,,,0,0,1,,,,,0,,,75,45
21330,note_on,,,,,0,0,1,,,,,0,,,80,45
21330,note_on,,,,,15,0,1,,,,,0,,,81,0
21340,set_tempo,,,,,10,1,0,,1538461,,,,,,,
21345,note_on,,,,,15,0,1,,,,,0,,,80,0
21345,note_on,,,,,0,0,1,,,,,0,,,81,48
21355,set_tempo,,,,,15,1,0,,1578947,,,,,,,
21360,note_on,,,,,0,0,2,,,,,0,,,64,39
21360,note_on,,,,,0,0,1,,,,,0,,,75,0
21360,note_on,,,,,15,0,1,,,,,0,,,81,0
21360,note_on,,,,,0,0,1,,,,,0,,,76,50
21360,note_on,,,,,0,0,1,,,,,0,,,85,50
21360,note_on,,,,,120,0,2,,,,,0,,,66,0
21360,note_on,,,,,0,0,2,,,,,0,,,59,0
21360,set_tempo,,,,,5,1,0,,1578947,,,,,,,
21360,note_on,,,,,0,0,2,,,,,0,,,52,39
21375,set_tempo,,,,,15,1,0,,1621621,,,,,,,
21380,set_tempo,,,,,5,1,0,,1621621,,,,,,,
21390,note_on,,,,,30,0,2,,,,,0,,,64,0
21390,note_on,,,,,0,0,2,,,,,0,,,62,32
21390,note_on,,,,,0,0,1,,,,,0,,,76,0
21390,note_on,,,,,30,0,1,,,,,0,,,85,0
21390,note_on,,,,,0,0,1,,,,,0,,,80,38
21390,note_on,,,,,0,0,1,,,,,0,,,83,38
21390,control_change,,,,,0,0,1,,,,,0,64,0,,
21395,set_tempo,,,,,15,1,0,,1666666,,,,,,,
21400,set_tempo,,,,,5,1,0,,1666666,,,,,,,
21420,note_on,,,,,0,0,2,,,,,0,,,52,0
21420,note_on,,,,,30,0,2,,,,,0,,,62,0
21420,note_on,,,,,0,0,2,,,,,0,,,57,27
21420,note_on,,,,,0,0,2,,,,,0,,,61,27
21420,note_on,,,,,30,0,1,,,,,0,,,83,0
21420,note_on,,,,,0,0,1,,,,,0,,,80,0
21420,note_on,,,,,0,0,1,,,,,0,,,81,32
21480,note_on,,,,,60,0,1,,,,,0,,,81,0
21480,note_on,,,,,60,0,2,,,,,0,,,61,0
21480,note_on,,,,,0,0,2,,,,,0,,,57,0
21510,note_on,,,,,0,0,1,,,,,0,,,81,42
21510,note_on,,,,,0,0,1,,,,,0,,,69,42
21510,control_change,,,,,30,0,1,,,,,0,91,96,,
21510,set_tempo,,,,,110,1,0,,1428571,,,,,,,
21540,note_on,,,,,0,0,1,,,,,0,,,81,0
21540,note_on,,,,,0,0,1,,,,,0,,,71,48
21540,note_on,,,,,0,0,1,,,,,0,,,83,48
21540,note_on,,,,,30,0,1,,,,,0,,,69,0
21545,set_tempo,,,,,35,1,0,,1395348,,,,,,,
21550,set_tempo,,,,,5,1,0,,1395348,,,,,,,
21560,set_tempo,,,,,10,1,0,,1395348,,,,,,,
21570,set_tempo,,,,,10,1,0,,1395348,,,,,,,
21570,note_on,,,,,0,0,1,,,,,0,,,85,52
21570,note_on,,,,,0,0,1,,,,,0,,,73,52
21570,note_on,,,,,0,0,1,,,,,0,,,83,0
21570,note_on,,,,,30,0,1,,,,,0,,,71,0
21580,set_tempo,,,,,10,1,0,,1395348,,,,,,,
21585,set_tempo,,,,,5,1,0,,1395348,,,,,,,
21600,note_on,,,,,0,0,1,,,,,0,,,86,55
21600,control_change,,,,,0,0,1,,,,,0,64,96,,
21600,note_on,,,,,0,0,1,,,,,0,,,74,55
21600,note_on,,,,,120,0,2,,,,,0,,,62,46
21600,note_on,,,,,30,0,1,,,,,0,,,73,0
21600,note_on,,,,,0,0,2,,,,,0,,,66,46
21600,note_on,,,,,0,0,1,,,,,0,,,85,0
21615,set_tempo,,,,,30,1,0,,1363636,,,,,,,
21620,set_tempo,,,,,5,1,0,,1363636,,,,,,,
21630,set_tempo,,,,,10,1,0,,1363636,,,,,,,
21635,set_tempo,,,,,5,1,0,,1395348,,,,,,,
21640,set_tempo,,,,,5,1,0,,1395348,,,,,,,
21655,set_tempo,,,,,15,1,0,,1395348,,,,,,,
21665,set_tempo,,,,,10,1,0,,1395348,,,,,,,
21675,set_tempo,,,,,10,1,0,,1395348,,,,,,,
21690,set_tempo,,,,,15,1,0,,1395348,,,,,,,
21690,note_on,,,,,0,0,1,,,,,0,,,85,55
21690,note_on,,,,,0,0,1,,,,,0,,,73,55
21690,note_on,,,,,0,0,1,,,,,0,,,74,0
21690,note_on,,,,,90,0,1,,,,,0,,,86,0
21705,note_on,,,,,15,0,1,,,,,0,,,85,0
21705,note_on,,,,,0,0,1,,,,,0,,,73,0
21705,note_on,,,,,0,0,1,,,,,0,,,86,61
21705,note_on,,,,,0,0,1,,,,,0,,,74,61
21710,set_tempo,,,,,20,1,0,,1395348,,,,,,,
21720,note_on,,,,,0,0,1,,,,,0,,,74,0
21720,note_on,,,,,15,0,1,,,,,0,,,86,0
21720,control_change,,,,,0,0,1,,,,,0,64,0,,
21720,note_on,,,,,0,0,1,,,,,0,,,78,62
21720,note_on,,,,,0,0,1,,,,,0,,,90,62
21720,set_tempo,,,,,10,1,0,,1395348,,,,,,,
21725,set_tempo,,,,,5,1,0,,1395348,,,,,,,
21735,note_on,,,,,0,0,1,,,,,0,,,74,60
21735,set_tempo,,,,,10,1,0,,1428571,,,,,,,
21735,note_on,,,,,15,0,1,,,,,0,,,90,0
21735,note_on,,,,,0,0,1,,,,,0,,,78,0
21735,note_on,,,,,0,0,1,,,,,0,,,86,60
21750,note_on,,,,,0,0,1,,,,,0,,,85,55
21750,note_on,,,,,0,0,1,,,,,0,,,73,55
21750,set_tempo,,,,,15,1,0,,1428571,,,,,,,
21750,note_on,,,,,0,0,1,,,,,0,,,74,0
21750,note_on,,,,,15,0,1,,,,,0,,,86,0
21765,note_on,,,,,0,0,1,,,,,0,,,83,50
21765,note_on,,,,,15,0,1,,,,,0,,,85,0
21765,set_tempo,,,,,15,1,0,,1428571,,,,,,,
21765,note_on,,,,,0,0,1,,,,,0,,,71,50
21765,note_on,,,,,0,0,1,,,,,0,,,73,0
21780,set_tempo,,,,,15,1,0,,1428571,,,,,,,
21780,note_on,,,,,180,0,2,,,,,0,,,66,0
21780,note_on,,,,,0,0,2,,,,,0,,,62,0
21780,note_on,,,,,0,0,2,,,,,0,,,61,50
21780,control_change,,,,,0,0,1,,,,,0,64,96,,
21780,note_on,,,,,0,0,1,,,,,0,,,81,46
21780,note_on,,,,,0,0,1,,,,,0,,,69,46
21780,note_on,,,,,0,0,1,,,,,0,,,71,0
21780,note_on,,,,,15,0,1,,,,,0,,,83,0
21780,note_on,,,,,0,0,2,,,,,0,,,64,50
21840,note_on,,,,,60,0,1,,,,,0,,,81,0
21840,note_on,,,,,0,0,1,,,,,0,,,69,0
21860,set_tempo,,,,,80,1,0,,1428571,,,,,,,
21870,note_on,,,,,30,0,1,,,,,0,,,68,47
21870,note_on,,,,,0,0,1,,,,,0,,,80,47
21870,set_tempo,,,,,10,1,0,,1395348,,,,,,,
21885,note_on,,,,,15,0,1,,,,,0,,,80,0
21885,note_on,,,,,0,0,1,,,,,0,,,68,0
21885,note_on,,,,,0,0,1,,,,,0,,,69,49
21885,note_on,,,,,0,0,1,,,,,0,,,81,49
21890,set_tempo,,,,,20,1,0,,1395348,,,,,,,
21900,set_tempo,,,,,10,1,0,,1363636,,,,,,,
21900,control_change,,,,,0,0,1,,,,,0,64,0,,
21900,note_on,,,,,15,0,1,,,,,0,,,81,0
21900,note_on,,,,,0,0,1,,,,,0,,,70,52
21900,note_on,,,,,0,0,1,,,,,0,,,69,0
21900,note_on,,,,,0,0,1,,,,,0,,,82,52
21910,set_tempo,,,,,10,1,0,,1363636,,,,,,,
21915,note_on,,,,,0,0,1,,,,,0,,,70,0
21915,note_on,,,,,0,0,1,,,,,0,,,73,52
21915,note_on,,,,,0,0,1,,,,,0,,,85,52
21915,note_on,,,,,15,0,1,,,,,0,,,82,0
21930,note_on,,,,,15,0,1,,,,,0,,,85,0
21930,note_on,,,,,0,0,1,,,,,0,,,73,0
21930,note_on,,,,,0,0,1,,,,,0,,,71,55
21930,note_on,,,,,0,0,1,,,,,0,,,83,55
21945,note_on,,,,,15,0,1,,,,,0,,,83,0
21945,note_on,,,,,0,0,1,,,,,0,,,71,0
21945,note_on,,,,,0,0,1,,,,,0,,,67,56
21945,note_on,,,,,0,0,1,,,,,0,,,79,56
21945,set_tempo,,,,,35,1,0,,1333333,,,,,,,
21960,note_on,,,,,0,0,2,,,,,0,,,61,0
21960,note_on,,,,,0,0,1,,,,,0,,,66,57
21960,note_on,,,,,15,0,1,,,,,0,,,79,0
21960,note_on,,,,,0,0,1,,,,,0,,,67,0
21960,note_on,,,,,0,0,2,,,,,0,,,62,48
21960,note_on,,,,,0,0,1,,,,,0,,,78,57
21960,note_on,,,,,180,0,2,,,,,0,,,64,0
21990,note_on,,,,,30,0,1,,,,,0,,,78,0
21990,note_on,,,,,0,0,1,,,,,0,,,79,59
21990,set_tempo,,,,,45,1,0,,1621621,,,,,,,
21995,note_on,,,,,5,0,1,,,,,0,,,79,0
21995,note_on,,,,,0,0,1,,,,,0,,,78,60
22000,note_on,,,,,0,0,1,,,,,0,,,76,60
22000,note_on,,,,,5,0,1,,,,,0,,,78,0
22005,note_on,,,,,5,0,1,,,,,0,,,76,0
22005,note_on,,,,,45,0,2,,,,,0,,,62,0
22005,note_on,,,,,0,0,1,,,,,0,,,67,60
22005,note_on,,,,,0,0,1,,,,,0,,,78,60
22005,note_on,,,,,0,0,1,,,,,0,,,66,0
22005,note_on,,,,,0,0,2,,,,,0,,,64,50
22012,note_on,,,,,0,0,1,,,,,0,,,79,60
22012,note_on,,,,,7,0,1,,,,,0,,,78,0
22020,note_on,,,,,15,0,2,,,,,0,,,64,0
22020,note_on,,,,,0,0,2,,,,,0,,,66,51
22020,note_on,,,,,0,0,1,,,,,0,,,81,61
22020,set_tempo,,,,,30,1,0,,1333333,,,,,,,
22020,note_on,,,,,0,0,1,,,,,0,,,67,0
22020,note_on,,,,,8,0,1,,,,,0,,,79,0
22020,note_on,,,,,0,0,1,,,,,0,,,69,61
22060,set_tempo,,,,,40,1,0,,1304347,,,,,,,
22080,note_on,,,,,0,0,2,,,,,0,,,67,55
22080,note_on,,,,,0,0,1,,,,,0,,,71,59
22080,note_on,,,,,0,0,2,,,,,0,,,64,55
22080,note_on,,,,,60,0,2,,,,,0,,,66,0
22080,note_on,,,,,0,0,1,,,,,0,,,81,0
22080,note_on,,,,,0,0,1,,,,,0,,,83,59
22080,set_tempo,,,,,20,1,0,,1304347,,,,,,,
22080,note_on,,,,,60,0,1,,,,,0,,,69,0
22110,note_on,,,,,30,0,1,,,,,0,,,71,0
22110,note_on,,,,,0,0,1,,,,,0,,,83,0
22110,note_on,,,,,0,0,1,,,,,0,,,85,52
22110,note_on,,,,,0,0,1,,,,,0,,,73,52
22115,set_tempo,,,,,35,1,0,,1304347,,,,,,,
22120,set_tempo,,,,,5,1,0,,1304347,,,,,,,
22125,set_tempo,,,,,5,1,0,,1333333,,,,,,,
22140,note_on,,,,,0,0,2,,,,,0,,,64,0
22140,note_on,,,,,60,0,2,,,,,0,,,67,0
22140,note_on,,,,,0,0,2,,,,,0,,,62,58
22140,note_on,,,,,0,0,1,,,,,0,,,85,0
22140,note_on,,,,,0,0,2,,,,,0,,,64,58
22140,control_change,,,,,0,0,1,,,,,0,64,96,,
22140,note_on,,,,,0,0,1,,,,,0,,,73,62
22140,note_on,,,,,0,0,1,,,,,0,,,85,62
22140,note_on,,,,,30,0,1,,,,,0,,,73,0
22140,note_on,,,,,0,0,2,,,,,0,,,67,58
22145,set_tempo,,,,,20,1,0,,1333333,,,,,,,
22160,set_tempo,,,,,15,1,0,,1363636,,,,,,,
22165,set_tempo,,,,,5,1,0,,1363636,,,,,,,
22170,set_tempo,,,,,5,1,0,,1395348,,,,,,,
22185,set_tempo,,,,,15,1,0,,1395348,,,,,,,
22195,set_tempo,,,,,10,1,0,,1428571,,,,,,,
22200,note_on,,,,,60,0,1,,,,,0,,,73,0
22200,note_on,,,,,60,0,2,,,,,0,,,64,0
22200,note_on,,,,,0,0,1,,,,,0,,,74,49
22200,note_on,,,,,0,0,1,,,,,0,,,86,49
22200,note_on,,,,,0,0,1,,,,,0,,,85,0
22200,note_on,,,,,0,0,2,,,,,0,,,67,0
22200,note_on,,,,,0,0,2,,,,,0,,,66,51
22205,set_tempo,,,,,10,1,0,,1428571,,,,,,,
22210,set_tempo,,,,,5,1,0,,1463414,,,,,,,
22215,note_on,,,,,0,0,1,,,,,0,,,86,0
22215,note_on,,,,,15,0,1,,,,,0,,,74,0
22220,set_tempo,,,,,10,1,0,,1500000,,,,,,,
22230,control_change,,,,,0,0,1,,,,,0,64,0,,
22230,note_on,,,,,0,0,1,,,,,0,,,86,42
22230,note_on,,,,,15,0,1,,,,,0,,,74,42
22245,note_on,,,,,0,0,1,,,,,0,,,90,46
22245,note_on,,,,,0,0,1,,,,,0,,,78,46
22245,note_on,,,,,0,0,1,,,,,0,,,74,0
22245,note_on,,,,,15,0,1,,,,,0,,,86,0
22245,set_tempo,,,,,25,1,0,,1463414,,,,,,,
22255,note_on,,,,,10,0,1,,,,,0,,,90,0
22255,note_on,,,,,0,0,1,,,,,0,,,78,0
22260,note_on,,,,,0,0,2,,,,,0,,,62,0
22260,note_on,,,,,60,0,2,,,,,0,,,66,0
22260,note_on,,,,,0,0,1,,,,,0,,,90,50
22260,note_on,,,,,5,0,1,,,,,0,,,78,50
22265,set_tempo,,,,,20,1,0,,1463414,,,,,,,
22275,note_on,,,,,0,0,1,,,,,0,,,78,0
22275,note_on,,,,,0,0,1,,,,,0,,,93,52
22275,note_on,,,,,0,0,1,,,,,0,,,81,52
22275,note_on,,,,,15,0,1,,,,,0,,,90,0
22285,set_tempo,,,,,20,1,0,,1428571,,,,,,,
22290,note_on,,,,,0,0,1,,,,,0,,,79,55
22290,note_on,,,,,0,0,1,,,,,0,,,81,0
22290,note_on,,,,,15,0,1,,,,,0,,,93,0
22290,note_on,,,,,0,0,1,,,,,0,,,91,55
22305,note_on,,,,,0,0,1,,,,,0,,,90,57
22305,note_on,,,,,0,0,1,,,,,0,,,79,0
22305,note_on,,,,,0,0,1,,,,,0,,,78,57
22305,note_on,,,,,15,0,1,,,,,0,,,91,0
22315,set_tempo,,,,,30,1,0,,1428571,,,,,,,
22320,note_on,,,,,0,0,1,,,,,0,,,78,60
22320,note_on,,,,,0,0,1,,,,,0,,,78,0
22320,note_on,,,,,0,0,1,,,,,0,,,90,60
22320,note_on,,,,,60,0,2,,,,,0,,,69,42
22320,note_on,,,,,0,0,2,,,,,0,,,67,42
22320,control_change,,,,,0,0,1,,,,,0,64,96,,
22320,note_on,,,,,15,0,1,,,,,0,,,90,0
22350,set_tempo,,,,,35,1,0,,1395348,,,,,,,
22360,set_tempo,,,,,10,1,0,,1395348,,,,,,,
22370,set_tempo,,,,,10,1,0,,1395348,,,,,,,
22375,set_tempo,,,,,5,1,0,,1395348,,,,,,,
22380,note_on,,,,,0,0,1,,,,,0,,,88,41
22380,note_on,,,,,0,0,1,,,,,0,,,76,41
22380,note_on,,,,,60,0,1,,,,,0,,,90,0
22380,note_on,,,,,0,0,1,,,,,0,,,78,0
22380,set_tempo,,,,,5,1,0,,1428571,,,,,,,
22385,set_tempo,,,,,5,1,0,,1428571,,,,,,,
22390,set_tempo,,,,,5,1,0,,1428571,,,,,,,
22395,set_tempo,,,,,5,1,0,,1428571,,,,,,,
22400,set_tempo,,,,,5,1,0,,1428571,,,,,,,
22402,note_on,,,,,22,0,1,,,,,0,,,88,0
22402,note_on,,,,,0,0,1,,,,,0,,,76,0
22405,set_tempo,,,,,5,1,0,,1428571,,,,,,,
22410,note_on,,,,,8,0,1,,,,,0,,,71,44
22410,note_on,,,,,0,0,1,,,,,0,,,83,44
22410,note_on,,,,,0,0,2,,,,,0,,,69,0
22410,note_on,,,,,90,0,2,,,,,0,,,67,0
22410,set_tempo,,,,,5,1,0,,1428571,,,,,,,
22410,control_change,,,,,0,0,1,,,,,0,64,0,,
22415,set_tempo,,,,,5,1,0,,1428571,,,,,,,
22420,set_tempo,,,,,5,1,0,,1428571,,,,,,,
22425,set_tempo,,,,,5,1,0,,1463414,,,,,,,
22425,note_on,,,,,0,0,1,,,,,0,,,71,0
22425,note_on,,,,,0,0,1,,,,,0,,,73,47
22425,note_on,,,,,0,0,1,,,,,0,,,85,47
22425,note_on,,,,,15,0,1,,,,,0,,,83,0
22435,set_tempo,,,,,10,1,0,,1463414,,,,,,,
22440,set_tempo,,,,,5,1,0,,1463414,,,,,,,
22440,note_on,,,,,15,0,1,,,,,0,,,85,0
22440,note_on,,,,,0,0,1,,,,,0,,,73,0
22440,note_on,,,,,0,0,1,,,,,0,,,74,52
22440,note_on,,,,,0,0,1,,,,,0,,,86,52
22450,set_tempo,,,,,10,1,0,,1463414,,,,,,,
22455,note_on,,,,,0,0,1,,,,,0,,,74,0
22455,note_on,,,,,0,0,1,,,,,0,,,73,55
22455,note_on,,,,,0,0,1,,,,,0,,,85,55
22455,note_on,,,,,15,0,1,,,,,0,,,86,0
22460,set_tempo,,,,,10,1,0,,1463414,,,,,,,
22465,set_tempo,,,,,5,1,0,,1428571,,,,,,,
22470,note_on,,,,,0,0,1,,,,,0,,,83,57
22470,note_on,,,,,15,0,1,,,,,0,,,85,0
22470,note_on,,,,,0,0,1,,,,,0,,,71,57
22470,note_on,,,,,0,0,1,,,,,0,,,73,0
22470,set_tempo,,,,,5,1,0,,1428571,,,,,,,
22480,set_tempo,,,,,10,1,0,,1428571,,,,,,,
22485,set_tempo,,,,,5,1,0,,1395348,,,,,,,
22485,note_on,,,,,15,0,1,,,,,0,,,83,0
22485,note_on,,,,,0,0,1,,,,,0,,,71,0
22485,note_on,,,,,0,0,1,,,,,0,,,69,60
22485,note_on,,,,,0,0,1,,,,,0,,,81,60
22495,set_tempo,,,,,10,1,0,,1395348,,,,,,,
22500,note_on,,,,,90,0,2,,,,,0,,,66,41
22500,control_change,,,,,0,0,1,,,,,0,64,96,,
22500,note_on,,,,,0,0,1,,,,,0,,,88,58
22500,note_on,,,,,0,0,2,,,,,0,,,69,41
22500,note_on,,,,,0,0,1,,,,,0,,,69,0
22500,note_on,,,,,15,0,1,,,,,0,,,81,0
22500,note_on,,,,,0,0,1,,,,,0,,,76,58
22500,set_tempo,,,,,5,1,0,,1395348,,,,,,,
22505,set_tempo,,,,,5,1,0,,1395348,,,,,,,
22510,set_tempo,,,,,5,1,0,,1395348,,,,,,,
22515,set_tempo,,,,,5,1,0,,1395348,,,,,,,
22525,set_tempo,,,,,10,1,0,,1395348,,,,,,,
22530,set_tempo,,,,,5,1,0,,1395348,,,,,,,
22535,set_tempo,,,,,5,1,0,,1428571,,,,,,,
22540,set_tempo,,,,,5,1,0,,1428571,,,,,,,
22550,set_tempo,,,,,10,1,0,,1428571,,,,,,,
22560,note_on,,,,,0,0,1,,,,,0,,,74,44
22560,note_on,,,,,0,0,1,,,,,0,,,86,44
22560,set_tempo,,,,,10,1,0,,1428571,,,,,,,
22560,note_on,,,,,0,0,1,,,,,0,,,76,0
22560,note_on,,,,,60,0,1,,,,,0,,,88,0
22565,set_tempo,,,,,5,1,0,,1395348,,,,,,,
22570,set_tempo,,,,,5,1,0,,1395348,,,,,,,
22580,set_tempo,,,,,10,1,0,,1395348,,,,,,,
22582,note_on,,,,,22,0,1,,,,,0,,,86,0
22582,note_on,,,,,0,0,1,,,,,0,,,74,0
22585,set_tempo,,,,,5,1,0,,1395348,,,,,,,
22585,control_change,,,,,3,0,1,,,,,0,64,0,,
22590,note_on,,,,,5,0,1,,,,,0,,,69,46
22590,note_on,,,,,0,0,2,,,,,0,,,57,39
22590,note_on,,,,,0,0,2,,,,,0,,,54,39
22590,note_on,,,,,0,0,2,,,,,0,,,66,0
22590,note_on,,,,,90,0,2,,,,,0,,,69,0
22595,set_tempo,,,,,10,1,0,,1395348,,,,,,,
22600,set_tempo,,,,,5,1,0,,1395348,,,,,,,
22605,note_on,,,,,15,0,1,,,,,0,,,69,0
22605,note_on,,,,,0,0,1,,,,,0,,,74,50
22610,set_tempo,,,,,10,1,0,,1395348,,,,,,,
22612,note_on,,,,,0,0,2,,,,,0,,,54,0
22612,note_on,,,,,22,0,2,,,,,0,,,57,0
22615,set_tempo,,,,,5,1,0,,1395348,,,,,,,
22615,note_on,,,,,10,0,1,,,,,0,,,74,0
22620,note_on,,,,,8,0,2,,,,,0,,,62,43
22620,note_on,,,,,5,0,1,,,,,0,,,74,52
22620,set_tempo,,,,,5,1,0,,1395348,,,,,,,
22620,note_on,,,,,0,0,2,,,,,0,,,57,43
22625,set_tempo,,,,,5,1,0,,1363636,,,,,,,
22635,note_on,,,,,0,0,1,,,,,0,,,78,55
22635,note_on,,,,,15,0,1,,,,,0,,,74,0
22640,set_tempo,,,,,15,1,0,,1363636,,,,,,,
22642,note_on,,,,,0,0,2,,,,,0,,,62,0
22642,note_on,,,,,22,0,2,,,,,0,,,57,0
22645,note_on,,,,,10,0,1,,,,,0,,,78,0
22650,note_on,,,,,0,0,2,,,,,0,,,62,47
22650,note_on,,,,,5,0,1,,,,,0,,,78,60
22650,note_on,,,,,8,0,2,,,,,0,,,66,47
22650,set_tempo,,,,,10,1,0,,1363636,,,,,,,
22665,note_on,,,,,0,0,1,,,,,0,,,81,65
22665,note_on,,,,,15,0,1,,,,,0,,,78,0
22672,note_on,,,,,22,0,2,,,,,0,,,62,0
22672,note_on,,,,,0,0,2,,,,,0,,,66,0
22675,note_on,,,,,10,0,1,,,,,0,,,81,0
22680,note_on,,,,,5,0,1,,,,,0,,,81,67
22680,note_on,,,,,0,0,1,,,,,0,,,69,67
22680,set_tempo,,,,,30,1,0,,1333333,,,,,,,
22680,note_on,,,,,8,0,2,,,,,0,,,57,51
22702,note_on,,,,,22,0,2,,,,,0,,,57,0
22710,set_tempo,,,,,30,1,0,,1333333,,,,,,,
22710,note_on,,,,,8,0,2,,,,,0,,,69,55
22710,note_on,,,,,0,0,2,,,,,0,,,66,55
22720,set_tempo,,,,,10,1,0,,1333333,,,,,,,
22725,note_on,,,,,45,0,1,,,,,0,,,69,0
22725,note_on,,,,,0,0,1,,,,,0,,,81,0
22730,set_tempo,,,,,10,1,0,,1333333,,,,,,,
22732,note_on,,,,,0,0,2,,,,,0,,,69,0
22732,note_on,,,,,22,0,2,,,,,0,,,66,0
22735,set_tempo,,,,,5,1,0,,1333333,,,,,,,
22740,note_on,,,,,0,0,1,,,,,0,,,71,59
22740,note_on,,,,,15,0,1,,,,,0,,,83,59
22740,note_on,,,,,8,0,2,,,,,0,,,57,57
22745,set_tempo,,,,,10,1,0,,1333333,,,,,,,
22755,set_tempo,,,,,10,1,0,,1304347,,,,,,,
22760,set_tempo,,,,,5,1,0,,1304347,,,,,,,
22762,note_on,,,,,22,0,2,,,,,0,,,57,0
22765,set_tempo,,,,,5,1,0,,1304347,,,,,,,
22770,note_on,,,,,8,0,2,,,,,0,,,67,60
22770,note_on,,,,,0,0,2,,,,,0,,,64,60
22770,set_tempo,,,,,5,1,0,,1304347,,,,,,,
22780,set_tempo,,,,,10,1,0,,1304347,,,,,,,
22785,note_on,,,,,45,0,1,,,,,0,,,71,0
22785,note_on,,,,,0,0,1,,,,,0,,,83,0
22790,set_tempo,,,,,10,1,0,,1304347,,,,,,,
22792,note_on,,,,,0,0,2,,,,,0,,,67,0
22792,note_on,,,,,22,0,2,,,,,0,,,64,0
22800,note_on,,,,,8,0,2,,,,,0,,,45,65
22800,note_on,,,,,15,0,1,,,,,0,,,85,67
22800,set_tempo,,,,,10,1,0,,1276595,,,,,,,
22800,note_on,,,,,0,0,1,,,,,0,,,73,67
22810,set_tempo,,,,,10,1,0,,1276595,,,,,,,
22815,set_tempo,,,,,5,1,0,,1276595,,,,,,,
22820,set_tempo,,,,,5,1,0,,1276595,,,,,,,
22822,note_on,,,,,22,0,2,,,,,0,,,45,0
22830,note_on,,,,,0,0,2,,,,,0,,,57,76
22830,note_on,,,,,8,0,2,,,,,0,,,64,76
22830,set_tempo,,,,,10,1,0,,1276595,,,,,,,
22845,note_on,,,,,45,0,1,,,,,0,,,73,0
22845,note_on,,,,,0,0,1,,,,,0,,,85,0
22845,set_tempo,,,,,15,1,0,,1276595,,,,,,,
22850,set_tempo,,,,,5,1,0,,1276595,,,,,,,
22852,note_on,,,,,0,0,2,,,,,0,,,64,0
22852,note_on,,,,,22,0,2,,,,,0,,,57,0
22860,note_on,,,,,8,0,2,,,,,0,,,38,94
22860,control_change,,,,,0,0,1,,,,,0,64,96,,
22860,note_on,,,,,15,0,1,,,,,0,,,86,75
22860,note_on,,,,,0,0,1,,,,,0,,,74,75
22865,set_tempo,,,,,15,1,0,,1250000,,,,,,,
22870,set_tempo,,,,,5,1,0,,1250000,,,,,,,
22882,note_on,,,,,22,0,2,,,,,0,,,38,0
22890,note_on,,,,,8,0,2,,,,,0,,,62,81
22890,note_on,,,,,0,0,2,,,,,0,,,54,81
22905,set_tempo,,,,,35,1,0,,1333333,,,,,,,
22910,set_tempo,,,,,5,1,0,,1333333,,,,,,,
22915,set_tempo,,,,,5,1,0,,1363636,,,,,,,
22920,note_on,,,,,0,0,1,,,,,0,,,86,0
22920,note_on,,,,,60,0,1,,,,,0,,,74,0
22920,set_tempo,,,,,5,1,0,,1578947,,,,,,,
22930,set_tempo,,,,,10,1,0,,1578947,,,,,,,
22935,note_on,,,,,0,0,2,,,,,0,,,62,0
22935,note_on,,,,,45,0,2,,,,,0,,,54,0
22950,note_on,,,,,30,0,1,,,,,0,,,85,54
22950,note_on,,,,,0,0,1,,,,,0,,,52,54
22950,note_on,,,,,0,0,1,,,,,0,,,61,54
22950,note_on,,,,,0,0,1,,,,,0,,,73,54
22950,set_tempo,,,,,20,1,0,,1304347,,,,,,,
22980,note_on,,,,,30,0,1,,,,,0,,,73,0
22980,note_on,,,,,0,0,1,,,,,0,,,74,49
22980,note_on,,,,,0,0,1,,,,,0,,,62,49
22980,note_on,,,,,0,0,1,,,,,0,,,54,49
22980,note_on,,,,,0,0,1,,,,,0,,,86,49
22980,note_on,,,,,0,0,1,,,,,0,,,61,0
22980,note_on,,,,,0,0,1,,,,,0,,,52,0
22980,note_on,,,,,0,0,1,,,,,0,,,85,0
22990,control_change,,,,,10,0,1,,,,,0,64,0,,
23010,note_on,,,,,0,0,1,,,,,0,,,62,0
23010,note_on,,,,,0,0,1,,,,,0,,,86,0
23010,note_on,,,,,0,0,1,,,,,0,,,71,46
23010,note_on,,,,,0,0,1,,,,,0,,,59,46
23010,note_on,,,,,0,0,1,,,,,0,,,55,46
23010,note_on,,,,,0,0,1,,,,,0,,,83,46
23010,note_on,,,,,20,0,1,,,,,0,,,74,0
23010,note_on,,,,,0,0,1,,,,,0,,,54,0
23040,note_on,,,,,30,0,1,,,,,0,,,71,0
23040,note_on,,,,,0,0,1,,,,,0,,,81,47
23040,note_on,,,,,0,0,1,,,,,0,,,59,0
23040,note_on,,,,,0,0,1,,,,,0,,,69,47
23040,note_on,,,,,0,0,1,,,,,0,,,55,0
23040,note_on,,,,,105,0,2,,,,,0,,,45,63
23040,note_on,,,,,0,0,1,,,,,0,,,83,0
23062,note_on,,,,,22,0,2,,,,,0,,,45,0
23070,note_on,,,,,0,0,2,,,,,0,,,54,60
23070,note_on,,,,,8,0,2,,,,,0,,,57,60
23075,set_tempo,,,,,125,1,0,,1304347,,,,,,,
23085,note_on,,,,,45,0,1,,,,,0,,,69,0
23085,note_on,,,,,0,0,1,,,,,0,,,81,0
23090,set_tempo,,,,,15,1,0,,1333333,,,,,,,
23092,note_on,,,,,22,0,2,,,,,0,,,54,0
23092,note_on,,,,,0,0,2,,,,,0,,,57,0
23095,set_tempo,,,,,5,1,0,,1333333,,,,,,,
23100,set_tempo,,,,,5,1,0,,1333333,,,,,,,
23100,note_on,,,,,8,0,2,,,,,0,,,45,58
23100,note_on,,,,,15,0,1,,,,,0,,,79,42
23100,note_on,,,,,0,0,1,,,,,0,,,67,42
23105,set_tempo,,,,,5,1,0,,1333333,,,,,,,
23110,set_tempo,,,,,5,1,0,,1363636,,,,,,,
23115,set_tempo,,,,,5,1,0,,1363636,,,,,,,
23122,note_on,,,,,22,0,2,,,,,0,,,45,0
23125,set_tempo,,,,,10,1,0,,1395348,,,,,,,
23130,note_on,,,,,0,0,2,,,,,0,,,55,52
23130,set_tempo,,,,,5,1,0,,1395348,,,,,,,
23130,note_on,,,,,8,0,2,,,,,0,,,52,52
23135,set_tempo,,,,,5,1,0,,1395348,,,,,,,
23140,set_tempo,,,,,5,1,0,,1395348,,,,,,,
23145,note_on,,,,,0,0,1,,,,,0,,,79,0
23145,set_tempo,,,,,5,1,0,,1428571,,,,,,,
23145,note_on,,,,,45,0,1,,,,,0,,,67,0
23150,set_tempo,,,,,5,1,0,,1463414,,,,,,,
23152,note_on,,,,,0,0,2,,,,,0,,,52,0
23152,note_on,,,,,22,0,2,,,,,0,,,55,0
23155,set_tempo,,,,,5,1,0,,1463414,,,,,,,
23160,note_on,,,,,15,0,1,,,,,0,,,76,41
23160,note_on,,,,,8,0,2,,,,,0,,,45,42
23160,set_tempo,,,,,5,1,0,,1463414,,,,,,,
23160,note_on,,,,,0,0,1,,,,,0,,,64,41
23165,set_tempo,,,,,5,1,0,,1500000,,,,,,,
23170,set_tempo,,,,,5,1,0,,1500000,,,,,,,
23175,set_tempo,,,,,5,1,0,,1538461,,,,,,,
23180,set_tempo,,,,,5,1,0,,1538461,,,,,,,
23182,note_on,,,,,22,0,2,,,,,0,,,45,0
23185,set_tempo,,,,,5,1,0,,1538461,,,,,,,
23190,set_tempo,,,,,5,1,0,,1578947,,,,,,,
23190,note_on,,,,,8,0,2,,,,,0,,,49,32
23190,note_on,,,,,0,0,2,,,,,0,,,52,32
23195,set_tempo,,,,,5,1,0,,1578947,,,,,,,
23200,set_tempo,,,,,5,1,0,,1578947,,,,,,,
23205,set_tempo,,,,,5,1,0,,1578947,,,,,,,
23205,note_on,,,,,45,0,1,,,,,0,,,64,0
23205,note_on,,,,,0,0,1,,,,,0,,,76,0
23212,note_on,,,,,22,0,2,,,,,0,,,52,0
23212,note_on,,,,,0,0,2,,,,,0,,,49,0
23220,set_tempo,,,,,15,1,0,,1463414,,,,,,,
23220,note_on,,,,,8,0,2,,,,,0,,,38,94
23220,note_on,,,,,15,0,1,,,,,0,,,90,106
23220,note_on,,,,,0,0,1,,,,,0,,,78,106
23220,control_change,,,,,0,0,1,,,,,0,64,96,,
23225,set_tempo,,,,,5,1,0,,1304347,,,,,,,
23242,note_on,,,,,22,0,2,,,,,0,,,38,0
23250,note_on,,,,,0,0,2,,,,,0,,,57,81
23250,note_on,,,,,8,0,2,,,,,0,,,66,81
23280,set_tempo,,,,,55,1,0,,1578947,,,,,,,
23295,note_on,,,,,0,0,2,,,,,0,,,66,0
23295,note_on,,,,,45,0,2,,,,,0,,,57,0
23305,set_tempo,,,,,25,1,0,,1428571,,,,,,,
23310,note_on,,,,,0,0,2,,,,,0,,,58,52
23310,note_on,,,,,0,0,2,,,,,0,,,54,52
23310,note_on,,,,,15,0,2,,,,,0,,,64,52
23310,note_on,,,,,90,0,1,,,,,0,,,78,0
23310,note_on,,,,,0,0,1,,,,,0,,,90,0
23310,note_on,,,,,0,0,1,,,,,0,,,88,64
23310,note_on,,,,,0,0,1,,,,,0,,,76,64
23315,set_tempo,,,,,10,1,0,,1428571,,,,,,,
23320,set_tempo,,,,,5,1,0,,1428571,,,,,,,
23330,set_tempo,,,,,10,1,0,,1395348,,,,,,,
23340,set_tempo,,,,,10,1,0,,1395348,,,,,,,
23340,note_on,,,,,0,0,2,,,,,0,,,62,58
23340,note_on,,,,,0,0,2,,,,,0,,,64,0
23340,note_on,,,,,0,0,2,,,,,0,,,58,0
23340,note_on,,,,,30,0,2,,,,,0,,,54,0
23340,note_on,,,,,0,0,2,,,,,0,,,55,58
23340,note_on,,,,,0,0,2,,,,,0,,,59,58
23340,note_on,,,,,0,0,1,,,,,0,,,74,74
23340,note_on,,,,,0,0,1,,,,,0,,,86,74
23340,note_on,,,,,0,0,1,,,,,0,,,88,0
23340,note_on,,,,,30,0,1,,,,,0,,,76,0
23350,set_tempo,,,,,10,1,0,,1395348,,,,,,,
23355,set_tempo,,,,,5,1,0,,1395348,,,,,,,
23360,control_change,,,,,20,0,1,,,,,0,64,0,,
23365,set_tempo,,,,,10,1,0,,1395348,,,,,,,
23370,note_on,,,,,0,0,2,,,,,0,,,56,64
23370,note_on,,,,,0,0,2,,,,,0,,,55,0
23370,set_tempo,,,,,5,1,0,,1395348,,,,,,,
23370,note_on,,,,,0,0,2,,,,,0,,,62,0
23370,note_on,,,,,0,0,2,,,,,0,,,65,64
23370,note_on,,,,,0,0,2,,,,,0,,,62,64
23370,note_on,,,,,0,0,1,,,,,0,,,83,86
23370,note_on,,,,,0,0,1,,,,,0,,,71,86
23370,note_on,,,,,0,0,1,,,,,0,,,86,0
23370,note_on,,,,,10,0,1,,,,,0,,,74,0
23370,note_on,,,,,30,0,2,,,,,0,,,59,0
23380,set_tempo,,,,,10,1,0,,1395348,,,,,,,
23390,set_tempo,,,,,10,1,0,,1363636,,,,,,,
23395,set_tempo,,,,,5,1,0,,1363636,,,,,,,
23400,note_on,,,,,30,0,1,,,,,0,,,71,0
23400,note_on,,,,,0,0,1,,,,,0,,,83,0
23400,note_on,,,,,0,0,1,,,,,0,,,83,93
23400,control_change,,,,,0,0,1,,,,,0,64,95,,
23400,note_on,,,,,0,0,2,,,,,0,,,65,0
23400,note_on,,,,,30,0,2,,,,,0,,,56,0
23400,note_on,,,,,0,0,2,,,,,0,,,62,0
23400,note_on,,,,,0,0,2,,,,,0,,,57,65
23405,set_tempo,,,,,10,1,0,,1363636,,,,,,,
23410,set_tempo,,,,,5,1,0,,1363636,,,,,,,
23413,note_on,,,,,13,0,2,,,,,0,,,57,0
23415,set_tempo,,,,,5,1,0,,1333333,,,,,,,
23425,set_tempo,,,,,10,1,0,,1333333,,,,,,,
23430,set_tempo,,,,,5,1,0,,1333333,,,,,,,
23430,note_on,,,,,17,0,2,,,,,0,,,69,63
23430,note_on,,,,,0,0,1,,,,,0,,,81,81
23430,note_on,,,,,0,0,2,,,,,0,,,66,63
23430,note_on,,,,,30,0,1,,,,,0,,,83,0
23440,set_tempo,,,,,10,1,0,,1304347,,,,,,,
23443,note_on,,,,,13,0,2,,,,,0,,,66,0
23443,note_on,,,,,0,0,2,,,,,0,,,69,0
23445,note_on,,,,,15,0,1,,,,,0,,,81,0
23445,control_change,,,,,0,0,1,,,,,0,64,0,,
23450,set_tempo,,,,,10,1,0,,1304347,,,,,,,
23451,note_on,,,,,6,0,1,,,,,0,,,81,82
23455,set_tempo,,,,,5,1,0,,1276595,,,,,,,
23460,note_on,,,,,9,0,1,,,,,0,,,81,0
23460,note_on,,,,,0,0,1,,,,,0,,,93,89
23460,control_change,,,,,0,0,1,,,,,0,64,94,,
23460,note_on,,,,,17,0,2,,,,,0,,,57,68
23465,set_tempo,,,,,10,1,0,,1276595,,,,,,,
23470,set_tempo,,,,,5,1,0,,1276595,,,,,,,
23473,note_on,,,,,13,0,2,,,,,0,,,57,0
23475,set_tempo,,,,,5,1,0,,1250000,,,,,,,
23480,set_tempo,,,,,5,1,0,,1250000,,,,,,,
23490,note_on,,,,,0,0,1,,,,,0,,,91,79
23490,note_on,,,,,30,0,1,,,,,0,,,93,0
23490,note_on,,,,,0,0,2,,,,,0,,,67,72
23490,set_tempo,,,,,10,1,0,,1250000,,,,,,,
23490,note_on,,,,,17,0,2,,,,,0,,,71,72
23495,set_tempo,,,,,5,1,0,,1250000,,,,,,,
23503,note_on,,,,,0,0,2,,,,,0,,,71,0
23503,note_on,,,,,13,0,2,,,,,0,,,67,0
23505,set_tempo,,,,,10,1,0,,1250000,,,,,,,
23505,note_on,,,,,15,0,1,,,,,0,,,91,85
23505,control_change,,,,,0,0,1,,,,,0,64,0,,
23512,note_on,,,,,7,0,1,,,,,0,,,91,0
23512,note_on,,,,,0,0,1,,,,,0,,,91,0
23512,note_on,,,,,0,0,1,,,,,0,,,93,86
23520,control_change,,,,,0,0,1,,,,,0,64,95,,
23520,note_on,,,,,8,0,1,,,,,0,,,93,0
23520,note_on,,,,,17,0,2,,,,,0,,,57,76
23520,note_on,,,,,0,0,1,,,,,0,,,91,89
23530,set_tempo,,,,,25,1,0,,1304347,,,,,,,
23533,note_on,,,,,13,0,2,,,,,0,,,57,0
23535,note_on,,,,,15,0,1,,,,,0,,,91,0
23535,note_on,,,,,0,0,1,,,,,0,,,90,92
23535,set_tempo,,,,,5,1,0,,1304347,,,,,,,
23540,set_tempo,,,,,5,1,0,,1333333,,,,,,,
23545,set_tempo,,,,,5,1,0,,1333333,,,,,,,
23550,set_tempo,,,,,5,1,0,,1333333,,,,,,,
23550,note_on,,,,,15,0,1,,,,,0,,,90,0
23550,note_on,,,,,0,0,2,,,,,0,,,64,80
23550,note_on,,,,,17,0,2,,,,,0,,,73,80
23550,note_on,,,,,0,0,1,,,,,0,,,91,94
23555,set_tempo,,,,,5,1,0,,1363636,,,,,,,
23560,set_tempo,,,,,5,1,0,,1363636,,,,,,,
23563,note_on,,,,,0,0,2,,,,,0,,,73,0
23563,note_on,,,,,13,0,2,,,,,0,,,64,0
23565,note_on,,,,,15,0,1,,,,,0,,,91,0
23565,note_on,,,,,0,0,1,,,,,0,,,88,98
23565,set_tempo,,,,,5,1,0,,1363636,,,,,,,
23570,set_tempo,,,,,5,1,0,,1363636,,,,,,,
23575,control_change,,,,,10,0,1,,,,,0,64,0,,
23580,set_tempo,,,,,10,1,0,,1363636,,,,,,,
23580,control_change,,,,,0,0,1,,,,,0,64,95,,
23580,note_on,,,,,0,0,1,,,,,0,,,86,100
23580,note_on,,,,,5,0,1,,,,,0,,,88,0
23580,note_on,,,,,17,0,2,,,,,0,,,50,108
23585,set_tempo,,,,,5,1,0,,1363636,,,,,,,
23600,set_tempo,,,,,15,1,0,,1395348,,,,,,,
23602,note_on,,,,,22,0,2,,,,,0,,,50,0
23610,note_on,,,,,8,0,2,,,,,0,,,74,81
23610,note_on,,,,,0,0,2,,,,,0,,,66,81
23610,set_tempo,,,,,10,1,0,,1395348,,,,,,,
23625,set_tempo,,,,,15,1,0,,1395348,,,,,,,
23640,set_tempo,,,,,15,1,0,,2000000,,,,,,,
23655,note_on,,,,,0,0,2,,,,,0,,,74,0
23655,note_on,,,,,45,0,2,,,,,0,,,66,0
23685,note_on,,,,,105,0,1,,,,,0,,,86,0
23695,control_change,,,,,10,0,1,,,,,0,64,0,,
23700,set_tempo,,,,,60,1,0,,1578947,,,,,,,
23730,note_on,,,,,35,0,1,,,,,0,,,81,127
23730,control_change,,,,,0,0,1,,,,,0,64,95,,
23730,set_tempo,,,,,30,1,0,,1428571,,,,,,,
23730,note_on,,,,,75,0,2,,,,,0,,,45,127
23730,note_on,,,,,0,0,2,,,,,0,,,57,127
23758,note_on,,,,,28,0,1,,,,,0,,,81,0
23758,note_on,,,,,28,0,2,,,,,0,,,57,0
23758,note_on,,,,,0,0,2,,,,,0,,,45,0
23760,note_on,,,,,2,0,1,,,,,0,,,86,126
23760,key_signature,,,,,30,1,0,F,,,,,,,,
23760,note_on,,,,,0,0,1,,,,,0,,,74,126
23760,note_on,,,,,0,0,1,,,,,0,,,77,126
23760,note_on,,,,,0,0,2,,,,,0,,,50,127
23760,note_on,,,,,2,0,2,,,,,0,,,38,127
23760,note_on,,,,,0,0,1,,,,,0,,,81,126
23782,note_on,,,,,0,0,1,,,,,0,,,86,0
23782,note_on,,,,,0,0,1,,,,,0,,,77,0
23782,note_on,,,,,0,0,1,,,,,0,,,81,0
23782,note_on,,,,,22,0,1,,,,,0,,,74,0
23790,note_on,,,,,0,0,1,,,,,0,,,74,114
23790,note_on,,,,,0,0,1,,,,,0,,,69,114
23790,note_on,,,,,8,0,1,,,,,0,,,65,114
23805,note_on,,,,,0,0,2,,,,,0,,,38,0
23805,note_on,,,,,45,0,2,,,,,0,,,50,0
23820,note_on,,,,,0,0,2,,,,,0,,,62,113
23820,note_on,,,,,15,0,2,,,,,0,,,50,113
23820,note_on,,,,,0,0,2,,,,,0,,,53,113
23820,note_on,,,,,0,0,2,,,,,0,,,57,113
23865,note_on,,,,,45,0,2,,,,,0,,,62,0
23865,note_on,,,,,0,0,2,,,,,0,,,50,0
23865,note_on,,,,,0,0,2,,,,,0,,,53,0
23865,note_on,,,,,0,0,2,,,,,0,,,57,0
23875,set_tempo,,,,,115,1,0,,1578947,,,,,,,
23880,set_tempo,,,,,5,1,0,,1764705,,,,,,,
23880,note_on,,,,,90,0,1,,,,,0,,,74,0
23880,note_on,,,,,0,0,1,,,,,0,,,69,0
23880,note_on,,,,,0,0,1,,,,,0,,,65,0
23880,control_change,,,,,0,0,1,,,,,0,64,0,,
23905,set_tempo,,,,,25,1,0,,1463414,,,,,,,
23910,note_on,,,,,30,0,1,,,,,0,,,77,127
23910,note_on,,,,,45,0,2,,,,,0,,,50,125
23910,note_on,,,,,0,0,1,,,,,0,,,86,127
23910,note_on,,,,,0,0,1,,,,,0,,,81,127
23910,control_change,,,,,0,0,1,,,,,0,64,95,,
23910,note_on,,,,,0,0,2,,,,,0,,,38,125
23930,set_tempo,,,,,25,1,0,,1428571,,,,,,,
23935,control_change,,,,,25,0,1,,,,,0,64,0,,
23935,set_tempo,,,,,5,1,0,,1463414,,,,,,,
23938,note_on,,,,,0,0,2,,,,,0,,,50,0
23938,note_on,,,,,0,0,1,,,,,0,,,77,0
23938,note_on,,,,,0,0,1,,,,,0,,,81,0
23938,note_on,,,,,3,0,1,,,,,0,,,86,0
23938,note_on,,,,,28,0,2,,,,,0,,,38,0
23940,note_on,,,,,2,0,2,,,,,0,,,43,127
23940,note_on,,,,,0,0,1,,,,,0,,,82,126
23940,note_on,,,,,0,0,1,,,,,0,,,86,126
23940,note_on,,,,,0,0,1,,,,,0,,,88,126
23940,control_change,,,,,0,0,1,,,,,0,64,96,,
23940,note_on,,,,,0,0,2,,,,,0,,,55,127
23940,note_on,,,,,2,0,1,,,,,0,,,79,126
23950,set_tempo,,,,,15,1,0,,1463414,,,,,,,
23960,set_tempo,,,,,10,1,0,,1500000,,,,,,,
23962,note_on,,,,,22,0,1,,,,,0,,,88,0
23962,note_on,,,,,0,0,1,,,,,0,,,82,0
23962,note_on,,,,,0,0,1,,,,,0,,,86,0
23962,note_on,,,,,0,0,1,,,,,0,,,79,0
23970,set_tempo,,,,,10,1,0,,1500000,,,,,,,
23970,note_on,,,,,8,0,1,,,,,0,,,76,114
23970,note_on,,,,,0,0,1,,,,,0,,,74,114
23970,note_on,,,,,0,0,1,,,,,0,,,70,114
23985,note_on,,,,,45,0,2,,,,,0,,,55,0
23985,note_on,,,,,0,0,2,,,,,0,,,43,0
23985,set_tempo,,,,,15,1,0,,1538461,,,,,,,
24000,note_on,,,,,0,0,2,,,,,0,,,64,113
24000,note_on,,,,,15,0,2,,,,,0,,,55,113
24000,note_on,,,,,0,0,2,,,,,0,,,58,113
24000,note_on,,,,,0,0,2,,,,,0,,,62,113
24045,note_on,,,,,0,0,2,,,,,0,,,62,0
24045,note_on,,,,,0,0,2,,,,,0,,,58,0
24045,note_on,,,,,0,0,2,,,,,0,,,55,0
24045,note_on,,,,,45,0,2,,,,,0,,,64,0
24060,note_on,,,,,0,0,1,,,,,0,,,76,0
24060,control_change,,,,,0,0,1,,,,,0,64,0,,
24060,set_tempo,,,,,75,1,0,,1764705,,,,,,,
24060,note_on,,,,,90,0,1,,,,,0,,,70,0
24060,note_on,,,,,0,0,1,,,,,0,,,74,0
24090,set_tempo,,,,,30,1,0,,1463414,,,,,,,
24090,note_on,,,,,0,0,1,,,,,0,,,76,116
24090,control_change,,,,,0,0,1,,,,,0,64,95,,
24090,note_on,,,,,45,0,2,,,,,0,,,31,119
24090,note_on,,,,,0,0,2,,,,,0,,,43,119
24090,note_on,,,,,30,0,1,,,,,0,,,74,116
24110,set_tempo,,,,,20,1,0,,1463414,,,,,,,
24115,control_change,,,,,25,0,1,,,,,0,64,0,,
24118,note_on,,,,,0,0,2,,,,,0,,,31,0
24118,note_on,,,,,28,0,2,,,,,0,,,43,0
24118,note_on,,,,,3,0,1,,,,,0,,,76,0
24118,note_on,,,,,0,0,1,,,,,0,,,74,0
24120,note_on,,,,,2,0,2,,,,,0,,,33,126
24120,control_change,,,,,0,0,1,,,,,0,64,95,,
24120,note_on,,,,,0,0,1,,,,,0,,,82,123
24120,note_on,,,,,0,0,1,,,,,0,,,79,123
24120,note_on,,,,,2,0,1,,,,,0,,,73,123
24120,note_on,,,,,0,0,2,,,,,0,,,45,126
24125,set_tempo,,,,,15,1,0,,1463414,,,,,,,
24130,set_tempo,,,,,5,1,0,,1463414,,,,,,,
24147,note_on,,,,,0,0,2,,,,,0,,,33,0
24147,note_on,,,,,27,0,1,,,,,0,,,82,0
24147,note_on,,,,,0,0,1,,,,,0,,,79,0
24147,note_on,,,,,27,0,2,,,,,0,,,45,0
24147,note_on,,,,,0,0,1,,,,,0,,,73,0
24150,note_on,,,,,3,0,2,,,,,0,,,33,119
24150,note_on,,,,,0,0,2,,,,,0,,,45,119
24150,set_tempo,,,,,20,1,0,,1500000,,,,,,,
24150,control_change,,,,,0,0,1,,,,,0,64,0,,
24150,note_on,,,,,3,0,1,,,,,0,,,73,113
24150,note_on,,,,,0,0,1,,,,,0,,,79,113
24150,note_on,,,,,0,0,1,,,,,0,,,82,113
24164,note_on,,,,,0,0,1,,,,,0,,,73,0
24164,note_on,,,,,0,0,1,,,,,0,,,79,0
24164,note_on,,,,,14,0,1,,,,,0,,,82,0
24164,note_on,,,,,0,0,2,,,,,0,,,33,0
24164,note_on,,,,,14,0,2,,,,,0,,,45,0
24165,note_on,,,,,0,0,1,,,,,0,,,82,106
24165,note_on,,,,,1,0,1,,,,,0,,,73,106
24165,note_on,,,,,0,0,1,,,,,0,,,79,106
24165,note_on,,,,,0,0,2,,,,,0,,,45,113
24165,note_on,,,,,1,0,2,,,,,0,,,33,113
24175,set_tempo,,,,,25,1,0,,1463414,,,,,,,
24179,note_on,,,,,14,0,2,,,,,0,,,45,0
24179,note_on,,,,,0,0,2,,,,,0,,,33,0
24179,note_on,,,,,14,0,1,,,,,0,,,82,0
24179,note_on,,,,,0,0,1,,,,,0,,,79,0
24179,note_on,,,,,0,0,1,,,,,0,,,73,0
24180,note_on,,,,,0,0,1,,,,,0,,,81,124
24180,note_on,,,,,0,0,1,,,,,0,,,77,124
24180,control_change,,,,,0,0,1,,,,,0,64,96,,
24180,note_on,,,,,0,0,2,,,,,0,,,47,125
24180,note_on,,,,,1,0,2,,,,,0,,,35,125
24180,note_on,,,,,1,0,1,,,,,0,,,74,124
24207,note_on,,,,,27,0,1,,,,,0,,,81,0
24207,note_on,,,,,0,0,1,,,,,0,,,77,0
24207,note_on,,,,,0,0,1,,,,,0,,,74,0
24207,note_on,,,,,27,0,2,,,,,0,,,47,0
24207,note_on,,,,,0,0,2,,,,,0,,,35,0
24210,set_tempo,,,,,35,1,0,,1538461,,,,,,,
24210,note_on,,,,,3,0,1,,,,,0,,,81,113
24210,note_on,,,,,0,0,1,,,,,0,,,74,113
24210,note_on,,,,,0,0,1,,,,,0,,,77,113
24210,control_change,,,,,0,0,1,,,,,0,64,0,,
24210,note_on,,,,,0,0,2,,,,,0,,,47,118
24210,note_on,,,,,3,0,2,,,,,0,,,35,118
24224,note_on,,,,,0,0,1,,,,,0,,,81,0
24224,note_on,,,,,14,0,2,,,,,0,,,47,0
24224,note_on,,,,,14,0,1,,,,,0,,,77,0
24224,note_on,,,,,0,0,1,,,,,0,,,74,0
24224,note_on,,,,,0,0,2,,,,,0,,,35,0
24225,note_on,,,,,1,0,2,,,,,0,,,35,111
24225,note_on,,,,,0,0,2,,,,,0,,,47,111
24225,note_on,,,,,1,0,1,,,,,0,,,74,106
24225,note_on,,,,,0,0,1,,,,,0,,,77,106
24225,note_on,,,,,0,0,1,,,,,0,,,81,106
24235,set_tempo,,,,,25,1,0,,1463414,,,,,,,
24239,note_on,,,,,14,0,1,,,,,0,,,81,0
24239,note_on,,,,,14,0,2,,,,,0,,,47,0
24239,note_on,,,,,0,0,2,,,,,0,,,35,0
24239,note_on,,,,,0,0,1,,,,,0,,,77,0
24239,note_on,,,,,0,0,1,,,,,0,,,74,0
24240,note_on,,,,,1,0,2,,,,,0,,,37,124
24240,note_on,,,,,0,0,2,,,,,0,,,49,124
24240,note_on,,,,,1,0,1,,,,,0,,,69,123
24240,note_on,,,,,0,0,1,,,,,0,,,76,123
24240,note_on,,,,,0,0,1,,,,,0,,,79,123
24240,control_change,,,,,0,0,1,,,,,0,64,95,,
24267,note_on,,,,,0,0,1,,,,,0,,,69,0
24267,note_on,,,,,0,0,1,,,,,0,,,76,0
24267,note_on,,,,,27,0,2,,,,,0,,,49,0
24267,note_on,,,,,0,0,2,,,,,0,,,37,0
24267,note_on,,,,,27,0,1,,,,,0,,,79,0
24270,note_on,,,,,0,0,2,,,,,0,,,49,116
24270,control_change,,,,,0,0,1,,,,,0,64,0,,
24270,note_on,,,,,0,0,1,,,,,0,,,79,120
24270,note_on,,,,,0,0,1,,,,,0,,,76,120
24270,note_on,,,,,3,0,1,,,,,0,,,69,120
24270,note_on,,,,,3,0,2,,,,,0,,,37,116
24270,set_tempo,,,,,35,1,0,,1538461,,,,,,,
24284,note_on,,,,,14,0,2,,,,,0,,,49,0
24284,note_on,,,,,0,0,2,,,,,0,,,37,0
24284,note_on,,,,,14,0,1,,,,,0,,,79,0
24284,note_on,,,,,0,0,1,,,,,0,,,76,0
24284,note_on,,,,,0,0,1,,,,,0,,,69,0
24285,note_on,,,,,1,0,1,,,,,0,,,69,126
24285,note_on,,,,,0,0,2,,,,,0,,,49,123
24285,note_on,,,,,0,0,1,,,,,0,,,79,126
24285,note_on,,,,,1,0,2,,,,,0,,,37,123
24285,note_on,,,,,0,0,1,,,,,0,,,76,126
24299,note_on,,,,,0,0,2,,,,,0,,,37,0
24299,note_on,,,,,14,0,1,,,,,0,,,79,0
24299,note_on,,,,,0,0,1,,,,,0,,,76,0
24299,note_on,,,,,14,0,2,,,,,0,,,49,0
24299,note_on,,,,,0,0,1,,,,,0,,,69,0
24300,note_on,,,,,1,0,1,,,,,0,,,69,127
24300,note_on,,,,,0,0,2,,,,,0,,,50,127
24300,note_on,,,,,1,0,2,,,,,0,,,38,127
24300,note_on,,,,,0,0,1,,,,,0,,,76,127
24300,note_on,,,,,0,0,1,,,,,0,,,79,127
24305,set_tempo,,,,,35,1,0,,1500000,,,,,,,
24310,set_tempo,,,,,5,1,0,,1500000,,,,,,,
24315,set_tempo,,,,,5,1,0,,1538461,,,,,,,
24315,note_on,,,,,15,0,1,,,,,0,,,79,0
24315,note_on,,,,,0,0,1,,,,,0,,,76,0
24315,note_on,,,,,0,0,1,,,,,0,,,77,118
24315,note_on,,,,,0,0,1,,,,,0,,,74,118
24320,set_tempo,,,,,5,1,0,,1621621,,,,,,,
24325,set_tempo,,,,,5,1,0,,1621621,,,,,,,
24330,note_on,,,,,0,0,1,,,,,0,,,73,110
24330,note_on,,,,,0,0,1,,,,,0,,,74,0
24330,note_on,,,,,15,0,1,,,,,0,,,77,0
24330,note_on,,,,,0,0,2,,,,,0,,,38,0
24330,set_tempo,,,,,5,1,0,,1621621,,,,,,,
24330,note_on,,,,,0,0,1,,,,,0,,,76,110
24330,note_on,,,,,30,0,2,,,,,0,,,50,0
24335,set_tempo,,,,,5,1,0,,1666666,,,,,,,
24340,set_tempo,,,,,5,1,0,,1666666,,,,,,,
24345,note_on,,,,,15,0,1,,,,,0,,,76,0
24345,note_on,,,,,0,0,1,,,,,0,,,77,106
24345,note_on,,,,,0,0,1,,,,,0,,,74,106
24345,note_on,,,,,0,0,1,,,,,0,,,73,0
24345,note_on,,,,,0,0,2,,,,,0,,,53,109
24345,note_on,,,,,15,0,2,,,,,0,,,41,109
24345,set_tempo,,,,,5,1,0,,1714285,,,,,,,
24350,set_tempo,,,,,5,1,0,,1764705,,,,,,,
24355,set_tempo,,,,,5,1,0,,1764705,,,,,,,
24360,note_on,,,,,0,0,1,,,,,0,,,69,0
24360,note_on,,,,,0,0,1,,,,,0,,,69,100
24360,note_on,,,,,0,0,1,,,,,0,,,73,100
24360,note_on,,,,,0,0,1,,,,,0,,,76,100
24360,note_on,,,,,15,0,1,,,,,0,,,77,0
24360,note_on,,,,,0,0,2,,,,,0,,,57,99
24360,note_on,,,,,0,0,2,,,,,0,,,45,99
24360,note_on,,,,,0,0,2,,,,,0,,,41,0
24360,note_on,,,,,15,0,2,,,,,0,,,53,0
24360,note_on,,,,,0,0,1,,,,,0,,,74,0
24360,set_tempo,,,,,5,1,0,,1764705,,,,,,,
24365,set_tempo,,,,,5,1,0,,1764705,,,,,,,
24410,set_tempo,,,,,45,1,0,,1428571,,,,,,,
24420,note_on,,,,,0,0,1,,,,,0,,,69,0
24420,note_on,,,,,0,0,1,,,,,0,,,73,0
24420,note_on,,,,,60,0,1,,,,,0,,,76,0
24420,note_on,,,,,60,0,2,,,,,0,,,57,0
24420,note_on,,,,,0,0,2,,,,,0,,,45,0
24450,note_on,,,,,30,0,1,,,,,0,,,88,118
24480,note_on,,,,,0,0,2,,,,,0,,,50,120
24480,note_on,,,,,0,0,1,,,,,0,,,89,119
24480,control_change,,,,,0,0,1,,,,,0,64,96,,
24480,note_on,,,,,30,0,1,,,,,0,,,88,0
24480,note_on,,,,,60,0,2,,,,,0,,,38,120
24490,set_tempo,,,,,80,1,0,,1428571,,,,,,,
24495,note_on,,,,,0,0,1,,,,,0,,,83,114
24495,note_on,,,,,15,0,1,,,,,0,,,89,0
24502,note_on,,,,,0,0,2,,,,,0,,,38,0
24502,note_on,,,,,22,0,2,,,,,0,,,50,0
24506,note_on,,,,,11,0,1,,,,,0,,,83,0
24510,note_on,,,,,0,0,2,,,,,0,,,50,119
24510,note_on,,,,,0,0,2,,,,,0,,,59,119
24510,note_on,,,,,8,0,2,,,,,0,,,56,119
24510,note_on,,,,,4,0,1,,,,,0,,,86,106
24510,note_on,,,,,0,0,2,,,,,0,,,53,119
24525,note_on,,,,,0,0,1,,,,,0,,,80,99
24525,note_on,,,,,15,0,1,,,,,0,,,86,0
24535,control_change,,,,,10,0,1,,,,,0,64,0,,
24536,note_on,,,,,1,0,1,,,,,0,,,80,0
24540,set_tempo,,,,,50,1,0,,1463414,,,,,,,
24540,note_on,,,,,4,0,1,,,,,0,,,83,94
24540,control_change,,,,,0,0,1,,,,,0,64,95,,
24545,set_tempo,,,,,5,1,0,,1463414,,,,,,,
24550,set_tempo,,,,,5,1,0,,1500000,,,,,,,
24555,note_on,,,,,0,0,2,,,,,0,,,56,0
24555,note_on,,,,,0,0,2,,,,,0,,,59,0
24555,note_on,,,,,0,0,2,,,,,0,,,53,0
24555,set_tempo,,,,,5,1,0,,1500000,,,,,,,
24555,note_on,,,,,15,0,1,,,,,0,,,83,0
24555,note_on,,,,,0,0,1,,,,,0,,,77,91
24555,note_on,,,,,45,0,2,,,,,0,,,50,0
24560,set_tempo,,,,,5,1,0,,1500000,,,,,,,
24565,set_tempo,,,,,5,1,0,,1500000,,,,,,,
24566,note_on,,,,,11,0,1,,,,,0,,,77,0
24570,set_tempo,,,,,5,1,0,,1538461,,,,,,,
24570,note_on,,,,,4,0,1,,,,,0,,,80,83
24570,note_on,,,,,15,0,2,,,,,0,,,62,89
24570,note_on,,,,,0,0,2,,,,,0,,,59,89
24570,note_on,,,,,0,0,2,,,,,0,,,53,89
24570,note_on,,,,,0,0,2,,,,,0,,,56,89
24580,set_tempo,,,,,10,1,0,,1538461,,,,,,,
24585,note_on,,,,,0,0,1,,,,,0,,,74,74
24585,set_tempo,,,,,5,1,0,,1538461,,,,,,,
24585,note_on,,,,,15,0,1,,,,,0,,,80,0
24590,set_tempo,,,,,5,1,0,,1578947,,,,,,,
24592,note_on,,,,,0,0,2,,,,,0,,,56,0
24592,note_on,,,,,0,0,2,,,,,0,,,59,0
24592,note_on,,,,,0,0,2,,,,,0,,,62,0
24592,note_on,,,,,22,0,2,,,,,0,,,53,0
24595,control_change,,,,,10,0,1,,,,,0,64,0,,
24596,note_on,,,,,1,0,1,,,,,0,,,74,0
24600,note_on,,,,,0,0,2,,,,,0,,,62,80
24600,note_on,,,,,8,0,2,,,,,0,,,65,80
24600,note_on,,,,,0,0,2,,,,,0,,,56,80
24600,set_tempo,,,,,10,1,0,,1578947,,,,,,,
24600,note_on,,,,,4,0,1,,,,,0,,,77,70
24600,note_on,,,,,0,0,2,,,,,0,,,59,80
24610,set_tempo,,,,,10,1,0,,1621621,,,,,,,
24615,set_tempo,,,,,5,1,0,,1621621,,,,,,,
24615,note_on,,,,,15,0,1,,,,,0,,,77,0
24615,note_on,,,,,0,0,1,,,,,0,,,71,70
24625,set_tempo,,,,,10,1,0,,1666666,,,,,,,
24626,note_on,,,,,11,0,1,,,,,0,,,71,0
24630,set_tempo,,,,,5,1,0,,1714285,,,,,,,
24630,note_on,,,,,0,0,2,,,,,0,,,59,0
24630,note_on,,,,,30,0,2,,,,,0,,,56,0
24630,note_on,,,,,4,0,1,,,,,0,,,74,68
24630,note_on,,,,,0,0,2,,,,,0,,,65,0
24630,note_on,,,,,0,0,2,,,,,0,,,62,0
24635,set_tempo,,,,,5,1,0,,1714285,,,,,,,
24640,set_tempo,,,,,5,1,0,,1714285,,,,,,,
24645,note_on,,,,,15,0,1,,,,,0,,,74,0
24645,note_on,,,,,0,0,1,,,,,0,,,68,66
24650,set_tempo,,,,,10,1,0,,1714285,,,,,,,
24656,note_on,,,,,11,0,1,,,,,0,,,68,0
24660,control_change,,,,,0,0,1,,,,,0,64,96,,
24660,note_on,,,,,0,0,2,,,,,0,,,48,120
24660,note_on,,,,,4,0,1,,,,,0,,,88,119
24660,set_tempo,,,,,10,1,0,,1428571,,,,,,,
24660,note_on,,,,,30,0,2,,,,,0,,,36,120
24670,set_tempo,,,,,10,1,0,,1428571,,,,,,,
24675,note_on,,,,,0,0,1,,,,,0,,,81,114
24675,note_on,,,,,15,0,1,,,,,0,,,88,0
24682,note_on,,,,,0,0,2,,,,,0,,,36,0
24682,note_on,,,,,22,0,2,,,,,0,,,48,0
24686,note_on,,,,,11,0,1,,,,,0,,,81,0
24690,note_on,,,,,0,0,2,,,,,0,,,52,119
24690,note_on,,,,,8,0,2,,,,,0,,,57,119
24690,note_on,,,,,0,0,2,,,,,0,,,48,119
24690,note_on,,,,,4,0,1,,,,,0,,,84,106
24705,note_on,,,,,0,0,1,,,,,0,,,76,99
24705,note_on,,,,,15,0,1,,,,,0,,,84,0
24715,control_change,,,,,10,0,1,,,,,0,64,0,,
24716,note_on,,,,,1,0,1,,,,,0,,,76,0
24720,note_on,,,,,4,0,1,,,,,0,,,81,94
24720,set_tempo,,,,,50,1,0,,1463414,,,,,,,
24720,control_change,,,,,0,0,1,,,,,0,64,95,,
24725,set_tempo,,,,,5,1,0,,1463414,,,,,,,
24730,set_tempo,,,,,5,1,0,,1500000,,,,,,,
24735,note_on,,,,,15,0,1,,,,,0,,,81,0
24735,note_on,,,,,0,0,1,,,,,0,,,72,91
24735,set_tempo,,,,,5,1,0,,1500000,,,,,,,
24735,note_on,,,,,0,0,2,,,,,0,,,57,0
24735,note_on,,,,,0,0,2,,,,,0,,,52,0
24735,note_on,,,,,45,0,2,,,,,0,,,48,0
24740,set_tempo,,,,,5,1,0,,1500000,,,,,,,
24745,set_tempo,,,,,5,1,0,,1500000,,,,,,,
24746,note_on,,,,,11,0,1,,,,,0,,,72,0
24750,note_on,,,,,0,0,2,,,,,0,,,57,89
24750,note_on,,,,,15,0,2,,,,,0,,,60,89
24750,note_on,,,,,4,0,1,,,,,0,,,76,83
24750,set_tempo,,,,,5,1,0,,1538461,,,,,,,
24750,note_on,,,,,0,0,2,,,,,0,,,52,89
24760,set_tempo,,,,,10,1,0,,1538461,,,,,,,
24765,note_on,,,,,0,0,1,,,,,0,,,69,74
24765,note_on,,,,,15,0,1,,,,,0,,,76,0
24770,set_tempo,,,,,10,1,0,,1538461,,,,,,,
24772,note_on,,,,,0,0,2,,,,,0,,,57,0
24772,note_on,,,,,0,0,2,,,,,0,,,60,0
24772,note_on,,,,,22,0,2,,,,,0,,,52,0
24775,control_change,,,,,10,0,1,,,,,0,64,0,,
24775,set_tempo,,,,,5,1,0,,1500000,,,,,,,
24776,note_on,,,,,1,0,1,,,,,0,,,69,0
24780,note_on,,,,,4,0,1,,,,,0,,,72,70
24780,note_on,,,,,0,0,2,,,,,0,,,57,80
24780,note_on,,,,,0,0,2,,,,,0,,,60,80
24780,note_on,,,,,8,0,2,,,,,0,,,64,80
24780,set_tempo,,,,,5,1,0,,1500000,,,,,,,
24785,set_tempo,,,,,5,1,0,,1500000,,,,,,,
24790,set_tempo,,,,,5,1,0,,1500000,,,,,,,
24795,set_tempo,,,,,5,1,0,,1463414,,,,,,,
24795,note_on,,,,,0,0,1,,,,,0,,,64,70
24795,note_on,,,,,15,0,1,,,,,0,,,72,0
24800,set_tempo,,,,,5,1,0,,1463414,,,,,,,
24806,note_on,,,,,11,0,1,,,,,0,,,64,0
24810,note_on,,,,,4,0,1,,,,,0,,,69,68
24810,note_on,,,,,0,0,2,,,,,0,,,64,0
24810,note_on,,,,,0,0,2,,,,,0,,,60,0
24810,set_tempo,,,,,10,1,0,,1463414,,,,,,,
24810,note_on,,,,,30,0,2,,,,,0,,,57,0
24815,set_tempo,,,,,5,1,0,,1463414,,,,,,,
24820,set_tempo,,,,,5,1,0,,1463414,,,,,,,
24825,note_on,,,,,15,0,1,,,,,0,,,69,0
24825,note_on,,,,,0,0,1,,,,,0,,,60,66
24830,set_tempo,,,,,10,1,0,,1463414,,,,,,,
24835,set_tempo,,,,,5,1,0,,1428571,,,,,,,
24836,note_on,,,,,11,0,1,,,,,0,,,60,0
24840,note_on,,,,,30,0,2,,,,,0,,,57,119
24840,note_on,,,,,4,0,1,,,,,0,,,69,119
24840,control_change,,,,,0,0,1,,,,,0,64,96,,
24840,control_change,,,,,0,0,2,,,,,0,64,96,,
24855,note_on,,,,,0,0,2,,,,,0,,,50,114
24855,note_on,,,,,15,0,1,,,,,0,,,69,0
24855,note_on,,,,,0,0,1,,,,,0,,,62,114
24855,note_on,,,,,15,0,2,,,,,0,,,57,0
24866,note_on,,,,,11,0,1,,,,,0,,,62,0
24866,note_on,,,,,11,0,2,,,,,0,,,50,0
24870,note_on,,,,,4,0,1,,,,,0,,,65,106
24870,note_on,,,,,4,0,2,,,,,0,,,53,106
24875,set_tempo,,,,,40,1,0,,1463414,,,,,,,
24885,note_on,,,,,0,0,1,,,,,0,,,59,99
24885,note_on,,,,,0,0,2,,,,,0,,,47,99
24885,note_on,,,,,15,0,2,,,,,0,,,53,0
24885,note_on,,,,,15,0,1,,,,,0,,,65,0
24895,control_change,,,,,10,0,2,,,,,0,64,0,,
24895,control_change,,,,,10,0,1,,,,,0,64,0,,
24896,note_on,,,,,1,0,1,,,,,0,,,59,0
24896,note_on,,,,,1,0,2,,,,,0,,,47,0
24900,control_change,,,,,0,0,2,,,,,0,64,95,,
24900,note_on,,,,,4,0,2,,,,,0,,,50,94
24900,control_change,,,,,0,0,1,,,,,0,64,95,,
24900,note_on,,,,,4,0,1,,,,,0,,,62,94
24915,note_on,,,,,15,0,2,,,,,0,,,50,0
24915,note_on,,,,,15,0,1,,,,,0,,,62,0
24915,note_on,,,,,0,0,2,,,,,0,,,45,91
24915,note_on,,,,,0,0,1,,,,,0,,,57,91
24925,set_tempo,,,,,50,1,0,,1463414,,,,,,,
24926,note_on,,,,,11,0,1,,,,,0,,,57,0
24926,note_on,,,,,11,0,2,,,,,0,,,45,0
24930,note_on,,,,,4,0,1,,,,,0,,,59,83
24930,set_tempo,,,,,5,1,0,,1500000,,,,,,,
24930,note_on,,,,,4,0,2,,,,,0,,,47,83
24935,set_tempo,,,,,5,1,0,,1500000,,,,,,,
24940,set_tempo,,,,,5,1,0,,1500000,,,,,,,
24945,note_on,,,,,15,0,2,,,,,0,,,47,0
24945,note_on,,,,,0,0,2,,,,,0,,,41,74
24945,note_on,,,,,0,0,1,,,,,0,,,53,70
24945,note_on,,,,,15,0,1,,,,,0,,,59,0
24945,set_tempo,,,,,5,1,0,,1538461,,,,,,,
24950,set_tempo,,,,,5,1,0,,1538461,,,,,,,
24955,set_tempo,,,,,5,1,0,,1538461,,,,,,,
24955,control_change,,,,,10,0,1,,,,,0,64,0,,
24955,control_change,,,,,10,0,2,,,,,0,64,0,,
24956,note_on,,,,,1,0,2,,,,,0,,,41,0
24956,note_on,,,,,1,0,1,,,,,0,,,53,0
24960,note_on,,,,,4,0,1,,,,,0,,,57,71
24960,set_tempo,,,,,5,1,0,,1538461,,,,,,,
24960,note_on,,,,,4,0,2,,,,,0,,,45,81
24970,set_tempo,,,,,10,1,0,,1538461,,,,,,,
24975,note_on,,,,,0,0,2,,,,,0,,,38,83
24975,note_on,,,,,15,0,1,,,,,0,,,57,0
24975,note_on,,,,,15,0,2,,,,,0,,,45,0
24975,set_tempo,,,,,5,1,0,,1538461,,,,,,,
24975,note_on,,,,,0,0,1,,,,,0,,,50,77
24985,set_tempo,,,,,10,1,0,,1578947,,,,,,,
24986,note_on,,,,,11,0,2,,,,,0,,,38,0
24986,note_on,,,,,11,0,1,,,,,0,,,50,0
24990,note_on,,,,,4,0,1,,,,,0,,,53,83
24990,note_on,,,,,4,0,2,,,,,0,,,41,88
24995,set_tempo,,,,,10,1,0,,1578947,,,,,,,
25005,note_on,,,,,0,0,1,,,,,0,,,47,88
25005,note_on,,,,,15,0,2,,,,,0,,,41,0
25005,set_tempo,,,,,10,1,0,,1578947,,,,,,,
25005,note_on,,,,,15,0,1,,,,,0,,,53,0
25005,note_on,,,,,0,0,2,,,,,0,,,35,94
25010,set_tempo,,,,,5,1,0,,1764705,,,,,,,
25015,note_on,,,,,0,0,2,,,,,0,,,38,98
25015,note_on,,,,,10,0,2,,,,,0,,,35,0
25015,note_on,,,,,10,0,1,,,,,0,,,47,0
25015,note_on,,,,,0,0,1,,,,,0,,,50,90
25015,set_tempo,,,,,5,1,0,,1764705,,,,,,,
25020,note_on,,,,,5,0,1,,,,,0,,,50,0
25020,note_on,,,,,0,0,1,,,,,0,,,48,92
25020,control_change,,,,,0,0,1,,,,,0,64,95,,
25020,note_on,,,,,0,0,2,,,,,0,,,36,99
25020,note_on,,,,,5,0,2,,,,,0,,,38,0
25025,set_tempo,,,,,10,1,0,,1764705,,,,,,,
25026,note_on,,,,,0,0,2,,,,,0,,,38,101
25026,note_on,,,,,6,0,2,,,,,0,,,36,0
25026,note_on,,,,,0,0,1,,,,,0,,,50,94
25026,note_on,,,,,6,0,1,,,,,0,,,48,0
25030,set_tempo,,,,,5,1,0,,1764705,,,,,,,
25032,note_on,,,,,6,0,1,,,,,0,,,50,0
25032,note_on,,,,,0,0,2,,,,,0,,,36,102
25032,note_on,,,,,6,0,2,,,,,0,,,38,0
25032,note_on,,,,,0,0,1,,,,,0,,,48,96
25035,set_tempo,,,,,5,1,0,,1764705,,,,,,,
25038,note_on,,,,,6,0,1,,,,,0,,,48,0
25038,note_on,,,,,0,0,1,,,,,0,,,50,104
25038,note_on,,,,,0,0,2,,,,,0,,,38,105
25038,note_on,,,,,6,0,2,,,,,0,,,36,0
25044,note_on,,,,,6,0,1,,,,,0,,,50,0
25044,note_on,,,,,0,0,2,,,,,0,,,36,106
25044,note_on,,,,,6,0,2,,,,,0,,,38,0
25044,note_on,,,,,0,0,1,,,,,0,,,48,105
25045,set_tempo,,,,,10,1,0,,1714285,,,,,,,
25050,note_on,,,,,6,0,1,,,,,0,,,48,0
25050,note_on,,,,,0,0,2,,,,,0,,,38,109
25050,note_on,,,,,6,0,2,,,,,0,,,36,0
25050,note_on,,,,,0,0,1,,,,,0,,,50,109
25050,set_tempo,,,,,5,1,0,,1714285,,,,,,,
25056,note_on,,,,,0,0,2,,,,,0,,,36,113
25056,note_on,,,,,6,0,2,,,,,0,,,38,0
25056,note_on,,,,,6,0,1,,,,,0,,,50,0
25056,note_on,,,,,0,0,1,,,,,0,,,48,113
25060,set_tempo,,,,,10,1,0,,1714285,,,,,,,
25062,note_on,,,,,0,0,2,,,,,0,,,35,115
25062,note_on,,,,,0,0,1,,,,,0,,,47,121
25062,note_on,,,,,6,0,2,,,,,0,,,36,0
25062,note_on,,,,,6,0,1,,,,,0,,,48,0
25068,note_on,,,,,6,0,1,,,,,0,,,47,0
25068,note_on,,,,,6,0,2,,,,,0,,,35,0
25068,note_on,,,,,0,0,2,,,,,0,,,36,120
25068,note_on,,,,,0,0,1,,,,,0,,,48,127
25070,set_tempo,,,,,10,1,0,,1714285,,,,,,,
25074,note_on,,,,,6,0,1,,,,,0,,,48,0
25074,note_on,,,,,0,0,1,,,,,0,,,50,127
25074,note_on,,,,,0,0,2,,,,,0,,,38,124
25074,note_on,,,,,6,0,2,,,,,0,,,36,0
25075,set_tempo,,,,,5,1,0,,1578947,,,,,,,
25080,note_on,,,,,0,0,2,,,,,0,,,40,127
25080,note_on,,,,,6,0,2,,,,,0,,,38,0
25080,control_change,,,,,0,0,1,,,,,0,64,0,,
25080,note_on,,,,,0,0,1,,,,,0,,,52,127
25080,note_on,,,,,6,0,1,,,,,0,,,50,0
25085,set_tempo,,,,,10,1,0,,1621621,,,,,,,
25095,set_tempo,,,,,10,1,0,,1621621,,,,,,,
25100,set_tempo,,,,,5,1,0,,1621621,,,,,,,
25105,set_tempo,,,,,5,1,0,,1666666,,,,,,,
25110,set_tempo,,,,,5,1,0,,1666666,,,,,,,
25120,set_tempo,,,,,10,1,0,,1666666,,,,,,,
25125,note_on,,,,,45,0,1,,,,,0,,,52,0
25125,note_on,,,,,45,0,2,,,,,0,,,40,0
25130,set_tempo,,,,,10,1,0,,1666666,,,,,,,
25140,note_on,,,,,0,0,1,,,,,0,,,68,125
25140,note_on,,,,,0,0,1,,,,,0,,,76,125
25140,note_on,,,,,0,0,1,,,,,0,,,80,125
25140,control_change,,,,,0,0,1,,,,,0,64,95,,
25140,note_on,,,,,15,0,2,,,,,0,,,52,126
25140,note_on,,,,,0,0,2,,,,,0,,,40,126
25140,note_on,,,,,15,0,1,,,,,0,,,71,125
25145,set_tempo,,,,,15,1,0,,1666666,,,,,,,
25155,set_tempo,,,,,10,1,0,,1666666,,,,,,,
25192,note_on,,,,,52,0,1,,,,,0,,,80,0
25192,note_on,,,,,52,0,2,,,,,0,,,40,0
25192,note_on,,,,,0,0,1,,,,,0,,,71,0
25192,note_on,,,,,0,0,1,,,,,0,,,68,0
25192,note_on,,,,,0,0,1,,,,,0,,,76,0
25192,note_on,,,,,0,0,2,,,,,0,,,52,0
25195,control_change,,,,,3,0,1,,,,,0,64,0,,
25200,note_on,,,,,8,0,2,,,,,0,,,33,127
25200,note_on,,,,,0,0,1,,,,,0,,,72,127
25200,note_on,,,,,0,0,1,,,,,0,,,69,127
25200,note_on,,,,,0,0,1,,,,,0,,,76,127
25200,note_on,,,,,5,0,1,,,,,0,,,81,127
25200,note_on,,,,,0,0,2,,,,,0,,,45,127
25200,control_change,,,,,0,0,1,,,,,0,64,96,,
25222,note_on,,,,,0,0,1,,,,,0,,,76,0
25222,note_on,,,,,0,0,1,,,,,0,,,72,0
25222,note_on,,,,,22,0,1,,,,,0,,,69,0
25222,note_on,,,,,0,0,1,,,,,0,,,81,0
25230,note_on,,,,,8,0,1,,,,,0,,,69,121
25245,note_on,,,,,0,0,2,,,,,0,,,33,0
25245,note_on,,,,,45,0,2,,,,,0,,,45,0
25255,control_change,,,,,25,0,1,,,,,0,64,0,,
25260,note_on,,,,,0,0,2,,,,,0,,,57,121
25260,note_on,,,,,15,0,2,,,,,0,,,45,121
25260,control_change,,,,,5,0,1,,,,,0,64,95,,
25305,note_on,,,,,0,0,2,,,,,0,,,45,0
25305,note_on,,,,,45,0,2,,,,,0,,,57,0
25315,control_change,,,,,55,0,1,,,,,0,64,0,,
25335,note_on,,,,,20,0,1,,,,,0,,,69,0
25350,note_on,,,,,15,0,1,,,,,0,,,76,51
25350,note_on,,,,,0,0,1,,,,,0,,,88,51
25365,set_tempo,,,,,210,1,0,,1666666,,,,,,,
25370,set_tempo,,,,,5,1,0,,1666666,,,,,,,
25375,set_tempo,,,,,5,1,0,,1666666,,,,,,,
25380,note_on,,,,,30,0,1,,,,,0,,,88,0
25380,note_on,,,,,0,0,1,,,,,0,,,76,0
25380,note_on,,,,,0,0,1,,,,,0,,,77,55
25380,note_on,,,,,0,0,1,,,,,0,,,89,55
25380,control_change,,,,,0,0,1,,,,,0,64,95,,
25380,note_on,,,,,75,0,2,,,,,0,,,50,32
25385,set_tempo,,,,,10,1,0,,1666666,,,,,,,
25390,set_tempo,,,,,5,1,0,,1621621,,,,,,,
25395,note_on,,,,,15,0,2,,,,,0,,,50,0
25395,note_on,,,,,0,0,2,,,,,0,,,53,36
25400,set_tempo,,,,,10,1,0,,1621621,,,,,,,
25402,note_on,,,,,22,0,1,,,,,0,,,89,0
25402,note_on,,,,,0,0,1,,,,,0,,,77,0
25405,set_tempo,,,,,5,1,0,,1621621,,,,,,,
25410,note_on,,,,,8,0,1,,,,,0,,,70,49
25410,note_on,,,,,0,0,1,,,,,0,,,82,49
25410,note_on,,,,,0,0,2,,,,,0,,,58,38
25410,note_on,,,,,15,0,2,,,,,0,,,53,0
25415,set_tempo,,,,,10,1,0,,1621621,,,,,,,
25420,set_tempo,,,,,5,1,0,,1621621,,,,,,,
25425,note_on,,,,,0,0,2,,,,,0,,,53,41
25425,note_on,,,,,15,0,2,,,,,0,,,58,0
25425,set_tempo,,,,,5,1,0,,1621621,,,,,,,
25435,set_tempo,,,,,10,1,0,,1621621,,,,,,,
25440,note_on,,,,,15,0,2,,,,,0,,,53,0
25440,note_on,,,,,0,0,2,,,,,0,,,50,43
25445,set_tempo,,,,,10,1,0,,1578947,,,,,,,
25455,set_tempo,,,,,10,1,0,,1578947,,,,,,,
25455,note_on,,,,,15,0,2,,,,,0,,,50,0
25455,note_on,,,,,0,0,2,,,,,0,,,53,44
25465,set_tempo,,,,,10,1,0,,1578947,,,,,,,
25470,note_on,,,,,60,0,1,,,,,0,,,82,0
25470,note_on,,,,,0,0,1,,,,,0,,,77,43
25470,note_on,,,,,0,0,1,,,,,0,,,65,43
25470,note_on,,,,,0,0,1,,,,,0,,,70,0
25470,set_tempo,,,,,5,1,0,,1578947,,,,,,,
25470,note_on,,,,,15,0,2,,,,,0,,,53,0
25470,note_on,,,,,0,0,2,,,,,0,,,58,45
25485,set_tempo,,,,,15,1,0,,1578947,,,,,,,
25485,note_on,,,,,0,0,2,,,,,0,,,53,41
25485,note_on,,,,,15,0,2,,,,,0,,,58,0
25490,set_tempo,,,,,5,1,0,,1578947,,,,,,,
25495,set_tempo,,,,,5,1,0,,1538461,,,,,,,
25500,control_change,,,,,0,0,1,,,,,0,64,0,,
25500,note_on,,,,,0,0,1,,,,,0,,,58,39
25500,note_on,,,,,0,0,2,,,,,0,,,50,39
25500,note_on,,,,,0,0,1,,,,,0,,,65,0
25500,note_on,,,,,30,0,1,,,,,0,,,77,0
25500,note_on,,,,,0,0,1,,,,,0,,,70,39
25500,note_on,,,,,15,0,2,,,,,0,,,53,0
25505,set_tempo,,,,,10,1,0,,1538461,,,,,,,
25510,set_tempo,,,,,5,1,0,,1578947,,,,,,,
25515,note_on,,,,,15,0,2,,,,,0,,,50,0
25515,note_on,,,,,0,0,2,,,,,0,,,53,37
25522,note_on,,,,,22,0,1,,,,,0,,,58,0
25522,note_on,,,,,0,0,1,,,,,0,,,70,0
25525,set_tempo,,,,,15,1,0,,1578947,,,,,,,
25530,note_on,,,,,15,0,2,,,,,0,,,53,0
25530,note_on,,,,,8,0,1,,,,,0,,,89,53
25530,note_on,,,,,0,0,2,,,,,0,,,58,36
25530,note_on,,,,,0,0,1,,,,,0,,,77,53
25535,set_tempo,,,,,10,1,0,,1578947,,,,,,,
25540,set_tempo,,,,,5,1,0,,1578947,,,,,,,
25545,set_tempo,,,,,5,1,0,,1621621,,,,,,,
25545,note_on,,,,,15,0,2,,,,,0,,,58,0
25545,note_on,,,,,0,0,2,,,,,0,,,53,36
25550,set_tempo,,,,,5,1,0,,1621621,,,,,,,
25555,set_tempo,,,,,5,1,0,,1621621,,,,,,,
25560,note_on,,,,,30,0,1,,,,,0,,,77,0
25560,note_on,,,,,15,0,2,,,,,0,,,53,0
25560,note_on,,,,,0,0,1,,,,,0,,,89,0
25560,note_on,,,,,0,0,1,,,,,0,,,76,54
25560,note_on,,,,,0,0,1,,,,,0,,,88,54
25560,control_change,,,,,0,0,1,,,,,0,64,95,,
25560,note_on,,,,,0,0,2,,,,,0,,,48,35
25570,set_tempo,,,,,15,1,0,,1578947,,,,,,,
25575,note_on,,,,,0,0,2,,,,,0,,,52,40
25575,note_on,,,,,15,0,2,,,,,0,,,48,0
25580,set_tempo,,,,,10,1,0,,1578947,,,,,,,
25582,note_on,,,,,22,0,1,,,,,0,,,88,0
25582,note_on,,,,,0,0,1,,,,,0,,,76,0
25590,note_on,,,,,8,0,1,,,,,0,,,69,49
25590,note_on,,,,,0,0,1,,,,,0,,,81,49
25590,note_on,,,,,15,0,2,,,,,0,,,52,0
25590,note_on,,,,,0,0,2,,,,,0,,,57,43
25595,set_tempo,,,,,15,1,0,,1578947,,,,,,,
25600,set_tempo,,,,,5,1,0,,1578947,,,,,,,
25605,note_on,,,,,15,0,2,,,,,0,,,57,0
25605,note_on,,,,,0,0,2,,,,,0,,,52,43
25610,set_tempo,,,,,10,1,0,,1578947,,,,,,,
25620,note_on,,,,,15,0,2,,,,,0,,,52,0
25620,note_on,,,,,0,0,2,,,,,0,,,48,45
25625,set_tempo,,,,,15,1,0,,1578947,,,,,,,
25635,set_tempo,,,,,10,1,0,,1578947,,,,,,,
25635,note_on,,,,,0,0,2,,,,,0,,,52,42
25635,note_on,,,,,15,0,2,,,,,0,,,48,0
25650,note_on,,,,,0,0,2,,,,,0,,,57,39
25650,note_on,,,,,15,0,2,,,,,0,,,52,0
25650,note_on,,,,,0,0,1,,,,,0,,,69,0
25650,note_on,,,,,0,0,1,,,,,0,,,64,43
25650,note_on,,,,,0,0,1,,,,,0,,,76,43
25650,note_on,,,,,60,0,1,,,,,0,,,81,0
25665,note_on,,,,,0,0,2,,,,,0,,,52,37
25665,set_tempo,,,,,30,1,0,,1578947,,,,,,,
25665,note_on,,,,,15,0,2,,,,,0,,,57,0
25680,note_on,,,,,0,0,1,,,,,0,,,64,0
25680,note_on,,,,,0,0,1,,,,,0,,,69,45
25680,note_on,,,,,15,0,2,,,,,0,,,52,0
25680,note_on,,,,,30,0,1,,,,,0,,,76,0
25680,note_on,,,,,0,0,2,,,,,0,,,48,33
25680,note_on,,,,,0,0,1,,,,,0,,,57,45
25680,control_change,,,,,0,0,1,,,,,0,64,0,,
25695,note_on,,,,,0,0,2,,,,,0,,,52,33
25695,note_on,,,,,15,0,2,,,,,0,,,48,0
25700,set_tempo,,,,,35,1,0,,1578947,,,,,,,
25702,note_on,,,,,22,0,1,,,,,0,,,69,0
25702,note_on,,,,,0,0,1,,,,,0,,,57,0
25705,set_tempo,,,,,5,1,0,,1578947,,,,,,,
25710,note_on,,,,,15,0,2,,,,,0,,,52,0
25710,control_change,,,,,0,0,1,,,,,0,64,96,,
25710,note_on,,,,,0,0,1,,,,,0,,,57,51
25710,note_on,,,,,8,0,1,,,,,0,,,69,51
25710,note_on,,,,,0,0,2,,,,,0,,,57,33
25710,set_tempo,,,,,5,1,0,,1578947,,,,,,,
25715,set_tempo,,,,,5,1,0,,1578947,,,,,,,
25720,set_tempo,,,,,5,1,0,,1578947,,,,,,,
25725,note_on,,,,,15,0,2,,,,,0,,,57,0
25725,note_on,,,,,0,0,2,,,,,0,,,52,33
25725,set_tempo,,,,,5,1,0,,1621621,,,,,,,
25730,set_tempo,,,,,5,1,0,,1621621,,,,,,,
25735,control_change,,,,,25,0,1,,,,,0,64,0,,
25735,set_tempo,,,,,5,1,0,,1578947,,,,,,,
25737,note_on,,,,,12,0,2,,,,,0,,,52,0
25740,control_change,,,,,0,0,1,,,,,0,64,96,,
25740,note_on,,,,,3,0,2,,,,,0,,,47,42
25740,set_tempo,,,,,5,1,0,,1578947,,,,,,,
25740,note_on,,,,,5,0,1,,,,,0,,,57,0
25740,note_on,,,,,0,0,1,,,,,0,,,69,0
25740,note_on,,,,,0,0,1,,,,,0,,,56,58
25740,note_on,,,,,0,0,1,,,,,0,,,68,58
25745,set_tempo,,,,,5,1,0,,1578947,,,,,,,
25750,set_tempo,,,,,5,1,0,,1578947,,,,,,,
25755,note_on,,,,,15,0,2,,,,,0,,,47,0
25755,note_on,,,,,0,0,2,,,,,0,,,50,45
25760,set_tempo,,,,,10,1,0,,1578947,,,,,,,
25770,note_on,,,,,0,0,1,,,,,0,,,56,0
25770,note_on,,,,,15,0,2,,,,,0,,,50,0
25770,note_on,,,,,30,0,1,,,,,0,,,68,0
25770,note_on,,,,,0,0,1,,,,,0,,,64,52
25770,note_on,,,,,0,0,2,,,,,0,,,56,49
25770,set_tempo,,,,,10,1,0,,1578947,,,,,,,
25770,note_on,,,,,0,0,1,,,,,0,,,76,52
25780,set_tempo,,,,,10,1,0,,1578947,,,,,,,
25785,set_tempo,,,,,5,1,0,,1538461,,,,,,,
25785,note_on,,,,,15,0,2,,,,,0,,,56,0
25785,note_on,,,,,0,0,2,,,,,0,,,50,52
25800,control_change,,,,,30,0,1,,,,,0,64,0,,
25800,note_on,,,,,15,0,2,,,,,0,,,50,0
25800,set_tempo,,,,,15,1,0,,1538461,,,,,,,
25800,note_on,,,,,0,0,2,,,,,0,,,47,56
25805,set_tempo,,,,,5,1,0,,1538461,,,,,,,
25810,set_tempo,,,,,5,1,0,,1538461,,,,,,,
25815,note_on,,,,,0,0,2,,,,,0,,,50,57
25815,note_on,,,,,15,0,2,,,,,0,,,47,0
25822,note_on,,,,,22,0,1,,,,,0,,,76,0
25822,note_on,,,,,0,0,1,,,,,0,,,64,0
25825,set_tempo,,,,,15,1,0,,1538461,,,,,,,
25830,note_on,,,,,15,0,2,,,,,0,,,50,0
25830,note_on,,,,,0,0,2,,,,,0,,,56,55
25830,set_tempo,,,,,5,1,0,,1538461,,,,,,,
25830,control_change,,,,,0,0,1,,,,,0,64,96,,
25830,note_on,,,,,8,0,1,,,,,0,,,80,63
25830,note_on,,,,,0,0,1,,,,,0,,,68,63
25835,set_tempo,,,,,5,1,0,,1538461,,,,,,,
25845,set_tempo,,,,,10,1,0,,1538461,,,,,,,
25845,note_on,,,,,15,0,2,,,,,0,,,56,0
25845,note_on,,,,,0,0,2,,,,,0,,,50,55
25850,set_tempo,,,,,5,1,0,,1538461,,,,,,,
25860,note_on,,,,,0,0,1,,,,,0,,,88,57
25860,note_on,,,,,0,0,1,,,,,0,,,76,57
25860,note_on,,,,,0,0,1,,,,,0,,,80,0
25860,note_on,,,,,30,0,1,,,,,0,,,68,0
25860,note_on,,,,,15,0,2,,,,,0,,,50,0
25860,note_on,,,,,0,0,2,,,,,0,,,47,49
25865,set_tempo,,,,,15,1,0,,1578947,,,,,,,
25870,set_tempo,,,,,5,1,0,,1578947,,,,,,,
25875,set_tempo,,,,,5,1,0,,1621621,,,,,,,
25875,note_on,,,,,15,0,2,,,,,0,,,47,0
25875,note_on,,,,,0,0,2,,,,,0,,,50,43
25880,set_tempo,,,,,5,1,0,,1621621,,,,,,,
25882,note_on,,,,,22,0,1,,,,,0,,,88,0
25882,note_on,,,,,0,0,1,,,,,0,,,76,0
25885,set_tempo,,,,,5,1,0,,1621621,,,,,,,
25890,set_tempo,,,,,5,1,0,,1666666,,,,,,,
25890,note_on,,,,,15,0,2,,,,,0,,,50,0
25890,note_on,,,,,0,0,2,,,,,0,,,56,39
25890,note_on,,,,,8,0,1,,,,,0,,,76,50
25890,note_on,,,,,0,0,1,,,,,0,,,88,50
25895,set_tempo,,,,,5,1,0,,1714285,,,,,,,
25900,set_tempo,,,,,5,1,0,,1714285,,,,,,,
25905,note_on,,,,,15,0,2,,,,,0,,,56,0
25905,note_on,,,,,0,0,2,,,,,0,,,50,36
25912,note_on,,,,,22,0,1,,,,,0,,,88,0
25912,note_on,,,,,0,0,1,,,,,0,,,76,0
25915,control_change,,,,,3,0,1,,,,,0,64,0,,
25920,note_on,,,,,5,0,1,,,,,0,,,76,58
25920,note_on,,,,,0,0,1,,,,,0,,,88,58
25920,control_change,,,,,0,0,1,,,,,0,64,95,,
25920,note_on,,,,,0,0,2,,,,,0,,,48,36
25920,note_on,,,,,15,0,2,,,,,0,,,50,0
25935,note_on,,,,,15,0,2,,,,,0,,,48,0
25935,note_on,,,,,0,0,2,,,,,0,,,52,38
25950,note_on,,,,,15,0,2,,,,,0,,,52,0
25950,note_on,,,,,0,0,2,,,,,0,,,57,38
25965,note_on,,,,,15,0,2,,,,,0,,,57,0
25965,note_on,,,,,0,0,2,,,,,0,,,52,42
25975,set_tempo,,,,,75,1,0,,1714285,,,,,,,
25980,note_on,,,,,0,0,2,,,,,0,,,48,42
25980,set_tempo,,,,,5,1,0,,1666666,,,,,,,
25980,note_on,,,,,15,0,2,,,,,0,,,52,0
25985,control_change,,,,,65,0,1,,,,,0,64,0,,
25985,set_tempo,,,,,5,1,0,,1666666,,,,,,,
25995,note_on,,,,,0,0,2,,,,,0,,,52,44
25995,note_on,,,,,15,0,2,,,,,0,,,48,0
25995,note_on,,,,,10,0,1,,,,,0,,,88,0
25995,note_on,,,,,0,0,1,,,,,0,,,76,0
25995,set_tempo,,,,,10,1,0,,1666666,,,,,,,
26000,set_tempo,,,,,5,1,0,,1666666,,,,,,,
26005,set_tempo,,,,,5,1,0,,1666666,,,,,,,
26010,note_on,,,,,15,0,2,,,,,0,,,52,0
26010,note_on,,,,,0,0,2,,,,,0,,,57,45
26010,note_on,,,,,15,0,1,,,,,0,,,74,59
26010,note_on,,,,,0,0,1,,,,,0,,,86,59
26025,note_on,,,,,15,0,2,,,,,0,,,57,0
26025,note_on,,,,,0,0,2,,,,,0,,,52,46
26025,note_on,,,,,0,0,1,,,,,0,,,76,62
26025,note_on,,,,,15,0,1,,,,,0,,,86,0
26025,note_on,,,,,0,0,1,,,,,0,,,74,0
26025,note_on,,,,,0,0,1,,,,,0,,,88,62
26035,set_tempo,,,,,30,1,0,,1666666,,,,,,,
26040,control_change,,,,,0,0,1,,,,,0,64,95,,
26040,note_on,,,,,0,0,1,,,,,0,,,89,63
26040,note_on,,,,,0,0,2,,,,,0,,,50,47
26040,note_on,,,,,15,0,2,,,,,0,,,52,0
26040,note_on,,,,,0,0,1,,,,,0,,,77,63
26040,note_on,,,,,15,0,1,,,,,0,,,88,0
26040,note_on,,,,,0,0,1,,,,,0,,,76,0
26045,set_tempo,,,,,10,1,0,,1621621,,,,,,,
26050,set_tempo,,,,,5,1,0,,1621621,,,,,,,
26055,note_on,,,,,15,0,2,,,,,0,,,50,0
26055,note_on,,,,,0,0,2,,,,,0,,,53,50
26065,set_tempo,,,,,15,1,0,,1621621,,,,,,,
26070,note_on,,,,,30,0,1,,,,,0,,,89,0
26070,note_on,,,,,0,0,1,,,,,0,,,77,0
26070,note_on,,,,,0,0,1,,,,,0,,,88,69
26070,note_on,,,,,0,0,1,,,,,0,,,76,69
26070,set_tempo,,,,,5,1,0,,1578947,,,,,,,
26070,note_on,,,,,0,0,2,,,,,0,,,58,51
26070,note_on,,,,,15,0,2,,,,,0,,,53,0
26080,set_tempo,,,,,10,1,0,,1578947,,,,,,,
26085,note_on,,,,,0,0,1,,,,,0,,,86,73
26085,note_on,,,,,0,0,1,,,,,0,,,74,73
26085,note_on,,,,,15,0,1,,,,,0,,,76,0
26085,note_on,,,,,15,0,2,,,,,0,,,58,0
26085,note_on,,,,,0,0,2,,,,,0,,,53,54
26085,note_on,,,,,0,0,1,,,,,0,,,88,0
26095,control_change,,,,,10,0,1,,,,,0,64,0,,
26100,note_on,,,,,15,0,2,,,,,0,,,53,0
26100,note_on,,,,,0,0,2,,,,,0,,,52,60
26100,note_on,,,,,0,0,1,,,,,0,,,86,0
26100,control_change,,,,,0,0,1,,,,,0,64,96,,
26100,note_on,,,,,0,0,1,,,,,0,,,84,76
26100,note_on,,,,,0,0,1,,,,,0,,,72,76
26100,note_on,,,,,5,0,1,,,,,0,,,74,0
26100,set_tempo,,,,,20,1,0,,1578947,,,,,,,
26115,note_on,,,,,0,0,2,,,,,0,,,57,58
26115,note_on,,,,,15,0,2,,,,,0,,,52,0
26130,note_on,,,,,0,0,2,,,,,0,,,60,54
26130,note_on,,,,,15,0,2,,,,,0,,,57,0
26145,note_on,,,,,0,0,2,,,,,0,,,57,51
26145,note_on,,,,,15,0,2,,,,,0,,,60,0
26160,note_on,,,,,0,0,2,,,,,0,,,52,48
26160,note_on,,,,,15,0,2,,,,,0,,,57,0
26160,set_tempo,,,,,60,1,0,,1578947,,,,,,,
26165,set_tempo,,,,,5,1,0,,1578947,,,,,,,
26175,set_tempo,,,,,10,1,0,,1578947,,,,,,,
26175,note_on,,,,,0,0,2,,,,,0,,,57,47
26175,note_on,,,,,15,0,2,,,,,0,,,52,0
26180,set_tempo,,,,,5,1,0,,1621621,,,,,,,
26185,set_tempo,,,,,5,1,0,,1666666,,,,,,,
26190,note_on,,,,,0,0,2,,,,,0,,,60,44
26190,note_on,,,,,15,0,2,,,,,0,,,57,0
26195,set_tempo,,,,,10,1,0,,1666666,,,,,,,
26200,set_tempo,,,,,5,1,0,,1666666,,,,,,,
26205,note_on,,,,,15,0,2,,,,,0,,,60,0
26205,note_on,,,,,0,0,2,,,,,0,,,57,42
26205,set_tempo,,,,,5,1,0,,1714285,,,,,,,
26215,set_tempo,,,,,10,1,0,,1714285,,,,,,,
26215,control_change,,,,,115,0,1,,,,,0,64,0,,
26220,set_tempo,,,,,5,1,0,,1714285,,,,,,,
26220,note_on,,,,,5,0,1,,,,,0,,,84,0
26220,note_on,,,,,0,0,1,,,,,0,,,72,0
26220,note_on,,,,,0,0,1,,,,,0,,,71,42
26220,control_change,,,,,0,0,1,,,,,0,64,95,,
26220,note_on,,,,,0,0,2,,,,,0,,,52,40
26220,note_on,,,,,0,0,1,,,,,0,,,83,42
26220,note_on,,,,,15,0,2,,,,,0,,,57,0
26225,set_tempo,,,,,5,1,0,,1714285,,,,,,,
26230,set_tempo,,,,,5,1,0,,1714285,,,,,,,
26235,set_tempo,,,,,5,1,0,,1714285,,,,,,,
26235,note_on,,,,,0,0,2,,,,,0,,,56,38
26235,note_on,,,,,15,0,2,,,,,0,,,52,0
26240,set_tempo,,,,,5,1,0,,1764705,,,,,,,
26245,set_tempo,,,,,5,1,0,,1666666,,,,,,,
26250,note_on,,,,,15,0,2,,,,,0,,,56,0
26250,note_on,,,,,0,0,2,,,,,0,,,59,36
26250,set_tempo,,,,,5,1,0,,1666666,,,,,,,
26255,set_tempo,,,,,5,1,0,,2068965,,,,,,,
26265,note_on,,,,,0,0,1,,,,,0,,,71,0
26265,note_on,,,,,45,0,1,,,,,0,,,83,0
26265,note_on,,,,,15,0,2,,,,,0,,,59,0
26265,note_on,,,,,0,0,2,,,,,0,,,56,34
26275,control_change,,,,,10,0,1,,,,,0,64,0,,
26275,note_on,,,,,10,0,2,,,,,0,,,56,0
26275,set_tempo,,,,,20,1,0,,3000000,,,,,,,
26280,control_change,,,,,0,0,1,,,,,0,64,95,,
26280,note_on,,,,,5,0,1,,,,,0,,,76,46
26280,note_on,,,,,5,0,2,,,,,0,,,49,47
26280,note_on,,,,,0,0,1,,,,,0,,,88,46
26280,set_tempo,,,,,5,1,0,,1666666,,,,,,,
26295,note_on,,,,,15,0,2,,,,,0,,,49,0
26295,note_on,,,,,0,0,2,,,,,0,,,52,45
26305,set_tempo,,,,,25,1,0,,1666666,,,,,,,
26310,note_on,,,,,15,0,2,,,,,0,,,52,0
26310,note_on,,,,,0,0,2,,,,,0,,,57,42
26315,set_tempo,,,,,10,1,0,,1666666,,,,,,,
26320,set_tempo,,,,,5,1,0,,1666666,,,,,,,
26325,note_on,,,,,15,0,2,,,,,0,,,57,0
26325,note_on,,,,,0,0,2,,,,,0,,,52,39
26330,set_tempo,,,,,10,1,0,,1666666,,,,,,,
26335,set_tempo,,,,,5,1,0,,1666666,,,,,,,
26340,set_tempo,,,,,5,1,0,,1666666,,,,,,,
26340,note_on,,,,,0,0,2,,,,,0,,,49,36
26340,note_on,,,,,15,0,2,,,,,0,,,52,0
26345,control_change,,,,,65,0,1,,,,,0,64,0,,
26355,note_on,,,,,0,0,2,,,,,0,,,52,39
26355,note_on,,,,,15,0,2,,,,,0,,,49,0
26355,note_on,,,,,0,0,1,,,,,0,,,76,0
26355,note_on,,,,,10,0,1,,,,,0,,,88,0
26355,set_tempo,,,,,15,1,0,,1666666,,,,,,,
26365,set_tempo,,,,,10,1,0,,1666666,,,,,,,
26370,note_on,,,,,0,0,2,,,,,0,,,57,40
26370,note_on,,,,,15,0,2,,,,,0,,,52,0
26370,note_on,,,,,0,0,1,,,,,0,,,87,49
26370,note_on,,,,,15,0,1,,,,,0,,,75,49
26380,set_tempo,,,,,15,1,0,,1621621,,,,,,,
26385,note_on,,,,,0,0,2,,,,,0,,,52,41
26385,note_on,,,,,15,0,1,,,,,0,,,87,0
26385,note_on,,,,,0,0,1,,,,,0,,,75,0
26385,note_on,,,,,0,0,1,,,,,0,,,88,51
26385,note_on,,,,,0,0,1,,,,,0,,,76,51
26385,note_on,,,,,15,0,2,,,,,0,,,57,0
26385,set_tempo,,,,,5,1,0,,1621621,,,,,,,
26395,set_tempo,,,,,10,1,0,,1621621,,,,,,,
26400,note_on,,,,,15,0,1,,,,,0,,,88,0
26400,note_on,,,,,0,0,2,,,,,0,,,50,43
26400,note_on,,,,,15,0,2,,,,,0,,,52,0
26400,note_on,,,,,0,0,1,,,,,0,,,76,0
26400,note_on,,,,,0,0,1,,,,,0,,,90,53
26400,note_on,,,,,0,0,1,,,,,0,,,78,53
26400,control_change,,,,,0,0,1,,,,,0,64,95,,
26400,set_tempo,,,,,5,1,0,,1621621,,,,,,,
26405,set_tempo,,,,,5,1,0,,1621621,,,,,,,
26415,note_on,,,,,0,0,2,,,,,0,,,54,45
26415,note_on,,,,,15,0,2,,,,,0,,,50,0
26415,set_tempo,,,,,10,1,0,,1621621,,,,,,,
26425,set_tempo,,,,,10,1,0,,1621621,,,,,,,
26430,note_on,,,,,0,0,1,,,,,0,,,78,0
26430,note_on,,,,,0,0,2,,,,,0,,,57,46
26430,note_on,,,,,15,0,2,,,,,0,,,54,0
26430,set_tempo,,,,,5,1,0,,1621621,,,,,,,
26430,note_on,,,,,30,0,1,,,,,0,,,90,0
26430,note_on,,,,,0,0,1,,,,,0,,,80,55
26430,note_on,,,,,0,0,1,,,,,0,,,92,55
26445,note_on,,,,,0,0,1,,,,,0,,,81,55
26445,note_on,,,,,0,0,2,,,,,0,,,54,47
26445,note_on,,,,,15,0,2,,,,,0,,,57,0
26445,note_on,,,,,15,0,1,,,,,0,,,92,0
26445,note_on,,,,,0,0,1,,,,,0,,,80,0
26445,note_on,,,,,0,0,1,,,,,0,,,93,55
26445,set_tempo,,,,,15,1,0,,1621621,,,,,,,
26450,set_tempo,,,,,5,1,0,,1621621,,,,,,,
26455,control_change,,,,,10,0,1,,,,,0,64,0,,
26460,set_tempo,,,,,10,1,0,,1621621,,,,,,,
26460,control_change,,,,,0,0,1,,,,,0,64,95,,
26460,note_on,,,,,5,0,1,,,,,0,,,93,0
26460,note_on,,,,,0,0,1,,,,,0,,,81,0
26460,note_on,,,,,0,0,1,,,,,0,,,73,55
26460,note_on,,,,,15,0,2,,,,,0,,,54,0
26460,note_on,,,,,0,0,2,,,,,0,,,52,47
26460,note_on,,,,,0,0,1,,,,,0,,,85,55
26465,set_tempo,,,,,5,1,0,,1621621,,,,,,,
26470,set_tempo,,,,,5,1,0,,1666666,,,,,,,
26475,note_on,,,,,15,0,2,,,,,0,,,52,0
26475,note_on,,,,,0,0,2,,,,,0,,,57,47
26490,set_tempo,,,,,20,1,0,,1621621,,,,,,,
26490,note_on,,,,,15,0,2,,,,,0,,,57,0
26490,note_on,,,,,0,0,2,,,,,0,,,61,45
26500,set_tempo,,,,,10,1,0,,1621621,,,,,,,
26505,note_on,,,,,15,0,2,,,,,0,,,61,0
26505,note_on,,,,,0,0,2,,,,,0,,,57,44
26505,set_tempo,,,,,5,1,0,,1621621,,,,,,,
26510,set_tempo,,,,,5,1,0,,1621621,,,,,,,
26520,set_tempo,,,,,10,1,0,,1621621,,,,,,,
26520,note_on,,,,,15,0,2,,,,,0,,,57,0
26520,note_on,,,,,0,0,2,,,,,0,,,52,43
26525,control_change,,,,,65,0,1,,,,,0,64,0,,
26525,set_tempo,,,,,5,1,0,,1621621,,,,,,,
26535,note_on,,,,,0,0,2,,,,,0,,,57,43
26535,set_tempo,,,,,10,1,0,,1578947,,,,,,,
26535,note_on,,,,,15,0,2,,,,,0,,,52,0
26535,note_on,,,,,0,0,1,,,,,0,,,73,0
26535,note_on,,,,,10,0,1,,,,,0,,,85,0
26545,set_tempo,,,,,10,1,0,,1578947,,,,,,,
26550,note_on,,,,,0,0,1,,,,,0,,,86,47
26550,note_on,,,,,15,0,1,,,,,0,,,74,47
26550,note_on,,,,,0,0,2,,,,,0,,,61,42
26550,note_on,,,,,15,0,2,,,,,0,,,57,0
26560,set_tempo,,,,,15,1,0,,1578947,,,,,,,
26565,note_on,,,,,15,0,1,,,,,0,,,86,0
26565,note_on,,,,,0,0,2,,,,,0,,,57,41
26565,note_on,,,,,15,0,2,,,,,0,,,61,0
26565,note_on,,,,,0,0,1,,,,,0,,,74,0
26565,set_tempo,,,,,5,1,0,,1578947,,,,,,,
26565,note_on,,,,,0,0,1,,,,,0,,,76,45
26565,note_on,,,,,0,0,1,,,,,0,,,88,45
26570,set_tempo,,,,,5,1,0,,1621621,,,,,,,
26575,set_tempo,,,,,5,1,0,,1666666,,,,,,,
26580,note_on,,,,,15,0,1,,,,,0,,,88,0
26580,control_change,,,,,0,0,1,,,,,0,64,95,,
26580,note_on,,,,,0,0,1,,,,,0,,,86,41
26580,set_tempo,,,,,5,1,0,,1666666,,,,,,,
26580,note_on,,,,,0,0,2,,,,,0,,,52,39
26580,note_on,,,,,15,0,2,,,,,0,,,57,0
26580,note_on,,,,,0,0,1,,,,,0,,,74,41
26580,note_on,,,,,0,0,1,,,,,0,,,76,0
26585,set_tempo,,,,,5,1,0,,1666666,,,,,,,
26590,set_tempo,,,,,5,1,0,,1714285,,,,,,,
26595,note_on,,,,,15,0,2,,,,,0,,,52,0
26595,set_tempo,,,,,5,1,0,,1714285,,,,,,,
26595,note_on,,,,,0,0,2,,,,,0,,,56,39
26600,set_tempo,,,,,5,1,0,,1764705,,,,,,,
26605,set_tempo,,,,,5,1,0,,1818181,,,,,,,
26610,set_tempo,,,,,5,1,0,,1818181,,,,,,,
26610,note_on,,,,,30,0,1,,,,,0,,,86,0
26610,note_on,,,,,0,0,1,,,,,0,,,74,0
26610,note_on,,,,,0,0,1,,,,,0,,,85,36
26610,note_on,,,,,0,0,2,,,,,0,,,62,37
26610,note_on,,,,,15,0,2,,,,,0,,,56,0
26610,note_on,,,,,0,0,1,,,,,0,,,73,36
26615,set_tempo,,,,,5,1,0,,1818181,,,,,,,
26620,set_tempo,,,,,5,1,0,,1818181,,,,,,,
26625,note_on,,,,,15,0,1,,,,,0,,,73,0
26625,note_on,,,,,0,0,1,,,,,0,,,85,0
26625,note_on,,,,,0,0,1,,,,,0,,,83,35
26625,note_on,,,,,0,0,1,,,,,0,,,71,35
26625,note_on,,,,,15,0,2,,,,,0,,,62,0
26625,set_tempo,,,,,5,1,0,,1875000,,,,,,,
26625,note_on,,,,,0,0,2,,,,,0,,,56,34
26630,set_tempo,,,,,5,1,0,,1875000,,,,,,,
26635,control_change,,,,,10,0,1,,,,,0,64,0,,
26640,control_change,,,,,0,0,1,,,,,0,64,95,,
26640,note_on,,,,,0,0,2,,,,,0,,,57,33
26640,note_on,,,,,0,0,2,,,,,0,,,61,33
26640,note_on,,,,,0,0,1,,,,,0,,,81,32
26640,note_on,,,,,15,0,2,,,,,0,,,56,0
26640,note_on,,,,,0,0,1,,,,,0,,,69,32
26640,note_on,,,,,0,0,1,,,,,0,,,83,0
26640,note_on,,,,,5,0,1,,,,,0,,,71,0
26645,set_tempo,,,,,15,1,0,,2000000,,,,,,,
26650,set_tempo,,,,,5,1,0,,2068965,,,,,,,
26660,set_tempo,,,,,10,1,0,,2068965,,,,,,,
26662,note_on,,,,,0,0,2,,,,,0,,,57,0
26662,note_on,,,,,22,0,2,,,,,0,,,61,0
26662,note_on,,,,,0,0,1,,,,,0,,,69,0
26662,note_on,,,,,22,0,1,,,,,0,,,81,0
26665,control_change,,,,,3,0,1,,,,,0,64,0,,
26665,set_tempo,,,,,5,1,0,,1818181,,,,,,,
26670,note_on,,,,,5,0,1,,,,,0,,,69,36
26670,note_on,,,,,0,0,1,,,,,0,,,76,36
26670,control_change,,,,,0,0,1,,,,,0,64,95,,
26670,note_on,,,,,8,0,2,,,,,0,,,52,35
26670,note_on,,,,,0,0,2,,,,,0,,,61,35
26692,note_on,,,,,22,0,2,,,,,0,,,61,0
26692,note_on,,,,,22,0,1,,,,,0,,,76,0
26692,note_on,,,,,0,0,1,,,,,0,,,69,0
26692,note_on,,,,,0,0,2,,,,,0,,,52,0
26695,set_tempo,,,,,30,1,0,,1818181,,,,,,,
26700,note_on,,,,,8,0,2,,,,,0,,,52,38
26700,note_on,,,,,0,0,2,,,,,0,,,62,38
26700,set_tempo,,,,,5,1,0,,1818181,,,,,,,
26700,note_on,,,,,8,0,1,,,,,0,,,69,42
26700,note_on,,,,,0,0,1,,,,,0,,,78,42
26715,set_tempo,,,,,15,1,0,,1818181,,,,,,,
26725,set_tempo,,,,,10,1,0,,1818181,,,,,,,
26730,note_on,,,,,0,0,1,,,,,0,,,76,39
26730,note_on,,,,,0,0,1,,,,,0,,,69,39
26730,note_on,,,,,0,0,1,,,,,0,,,69,0
26730,note_on,,,,,30,0,1,,,,,0,,,78,0
26730,note_on,,,,,30,0,2,,,,,0,,,62,0
26730,note_on,,,,,0,0,2,,,,,0,,,61,33
26730,note_on,,,,,0,0,2,,,,,0,,,52,33
26730,note_on,,,,,0,0,2,,,,,0,,,52,0
26735,set_tempo,,,,,10,1,0,,1764705,,,,,,,
26740,set_tempo,,,,,5,1,0,,1764705,,,,,,,
26750,set_tempo,,,,,10,1,0,,1818181,,,,,,,
26752,note_on,,,,,0,0,2,,,,,0,,,52,0
26752,note_on,,,,,22,0,2,,,,,0,,,61,0
26752,note_on,,,,,0,0,1,,,,,0,,,69,0
26752,note_on,,,,,22,0,1,,,,,0,,,76,0
26755,set_tempo,,,,,5,1,0,,1875000,,,,,,,
26760,note_on,,,,,0,0,1,,,,,0,,,76,31
26760,note_on,,,,,8,0,1,,,,,0,,,69,31
26760,note_on,,,,,0,0,2,,,,,0,,,59,30
26760,note_on,,,,,8,0,2,,,,,0,,,52,30
26760,set_tempo,,,,,5,1,0,,1875000,,,,,,,
26765,set_tempo,,,,,5,1,0,,1875000,,,,,,,
26770,set_tempo,,,,,5,1,0,,1935483,,,,,,,
26775,set_tempo,,,,,5,1,0,,2000000,,,,,,,
26780,set_tempo,,,,,5,1,0,,2000000,,,,,,,
26782,note_on,,,,,0,0,1,,,,,0,,,69,0
26782,note_on,,,,,22,0,2,,,,,0,,,59,0
26782,note_on,,,,,0,0,2,,,,,0,,,52,0
26782,note_on,,,,,22,0,1,,,,,0,,,76,0
26790,note_on,,,,,8,0,1,,,,,0,,,68,27
26790,set_tempo,,,,,10,1,0,,2000000,,,,,,,
26790,note_on,,,,,8,0,2,,,,,0,,,52,30
26790,note_on,,,,,0,0,1,,,,,0,,,76,27
26790,note_on,,,,,0,0,2,,,,,0,,,62,30
26795,set_tempo,,,,,5,1,0,,2000000,,,,,,,
26800,set_tempo,,,,,5,1,0,,2000000,,,,,,,
26810,control_change,,,,,20,0,1,,,,,0,64,0,,
26820,note_on,,,,,10,0,1,,,,,0,,,76,0
26820,note_on,,,,,0,0,1,,,,,0,,,68,0
26820,note_on,,,,,0,0,1,,,,,0,,,76,27
26820,set_tempo,,,,,20,1,0,,2400000,,,,,,,
26820,control_change,,,,,0,0,1,,,,,0,64,96,,
26820,note_on,,,,,0,0,1,,,,,0,,,69,27
26820,note_on,,,,,30,0,2,,,,,0,,,62,0
26820,note_on,,,,,0,0,2,,,,,0,,,52,0
26820,note_on,,,,,0,0,2,,,,,0,,,57,27
26820,note_on,,,,,0,0,2,,,,,0,,,61,27
26835,set_tempo,,,,,15,1,0,,2000000,,,,,,,
26842,note_on,,,,,0,0,1,,,,,0,,,76,0
26842,note_on,,,,,0,0,2,,,,,0,,,57,0
26842,note_on,,,,,22,0,2,,,,,0,,,61,0
26842,note_on,,,,,22,0,1,,,,,0,,,69,0
26845,set_tempo,,,,,10,1,0,,2000000,,,,,,,
26845,control_change,,,,,3,0,1,,,,,0,64,0,,
26850,note_on,,,,,5,0,1,,,,,0,,,69,36
26850,note_on,,,,,8,0,2,,,,,0,,,52,35
26850,note_on,,,,,0,0,2,,,,,0,,,61,35
26850,control_change,,,,,0,0,1,,,,,0,64,95,,
26850,note_on,,,,,0,0,1,,,,,0,,,76,36
26855,set_tempo,,,,,10,1,0,,2000000,,,,,,,
26860,set_tempo,,,,,5,1,0,,2000000,,,,,,,
26865,set_tempo,,,,,5,1,0,,1935483,,,,,,,
26870,set_tempo,,,,,5,1,0,,1935483,,,,,,,
26872,note_on,,,,,22,0,2,,,,,0,,,61,0
26872,note_on,,,,,0,0,2,,,,,0,,,52,0
26872,note_on,,,,,22,0,1,,,,,0,,,76,0
26872,note_on,,,,,0,0,1,,,,,0,,,69,0
26875,set_tempo,,,,,5,1,0,,1935483,,,,,,,
26880,note_on,,,,,8,0,2,,,,,0,,,52,38
26880,note_on,,,,,0,0,2,,,,,0,,,62,38
26880,note_on,,,,,0,0,1,,,,,0,,,78,42
26880,set_tempo,,,,,5,1,0,,1875000,,,,,,,
26880,note_on,,,,,0,0,1,,,,,0,,,69,42
26880,note_on,,,,,8,0,1,,,,,0,,,81,42
26910,note_on,,,,,0,0,1,,,,,0,,,69,0
26910,note_on,,,,,30,0,1,,,,,0,,,78,0
26910,note_on,,,,,0,0,2,,,,,0,,,52,33
26910,note_on,,,,,0,0,2,,,,,0,,,52,0
26910,note_on,,,,,30,0,2,,,,,0,,,62,0
26910,note_on,,,,,0,0,1,,,,,0,,,81,0
26910,note_on,,,,,0,0,2,,,,,0,,,61,33
26910,note_on,,,,,0,0,1,,,,,0,,,76,33
26910,note_on,,,,,0,0,1,,,,,0,,,69,33
26930,set_tempo,,,,,50,1,0,,1875000,,,,,,,
26932,note_on,,,,,0,0,1,,,,,0,,,69,0
26932,note_on,,,,,22,0,1,,,,,0,,,76,0
26932,note_on,,,,,0,0,2,,,,,0,,,52,0
26932,note_on,,,,,22,0,2,,,,,0,,,61,0
26935,set_tempo,,,,,5,1,0,,1875000,,,,,,,
26940,note_on,,,,,0,0,1,,,,,0,,,76,38
26940,note_on,,,,,0,0,2,,,,,0,,,59,30
26940,note_on,,,,,8,0,2,,,,,0,,,52,30
26940,set_tempo,,,,,5,1,0,,1875000,,,,,,,
26940,note_on,,,,,8,0,1,,,,,0,,,69,38
26950,set_tempo,,,,,10,1,0,,1935483,,,,,,,
26955,set_tempo,,,,,5,1,0,,1935483,,,,,,,
26955,note_on,,,,,15,0,1,,,,,0,,,69,0
26955,note_on,,,,,0,0,1,,,,,0,,,68,36
26960,set_tempo,,,,,5,1,0,,2000000,,,,,,,
26962,note_on,,,,,22,0,2,,,,,0,,,59,0
26962,note_on,,,,,0,0,2,,,,,0,,,52,0
26962,note_on,,,,,7,0,1,,,,,0,,,76,0
26970,note_on,,,,,0,0,1,,,,,0,,,69,33
26970,note_on,,,,,0,0,1,,,,,0,,,76,33
26970,note_on,,,,,8,0,2,,,,,0,,,52,30
26970,note_on,,,,,0,0,2,,,,,0,,,62,30
26970,set_tempo,,,,,10,1,0,,2000000,,,,,,,
26970,note_on,,,,,8,0,1,,,,,0,,,68,0
26975,set_tempo,,,,,5,1,0,,2000000,,,,,,,
26980,set_tempo,,,,,5,1,0,,2000000,,,,,,,
26985,set_tempo,,,,,5,1,0,,2000000,,,,,,,
26985,note_on,,,,,15,0,1,,,,,0,,,69,0
26985,note_on,,,,,0,0,1,,,,,0,,,71,30
26990,set_tempo,,,,,5,1,0,,2000000,,,,,,,
26990,control_change,,,,,5,0,1,,,,,0,64,0,,
26992,note_on,,,,,2,0,1,,,,,0,,,76,0
26992,note_on,,,,,22,0,2,,,,,0,,,62,0
26992,note_on,,,,,0,0,2,,,,,0,,,52,0
26995,set_tempo,,,,,5,1,0,,1875000,,,,,,,
27000,note_on,,,,,0,0,2,,,,,0,,,61,32
27000,set_tempo,,,,,5,1,0,,1935483,,,,,,,
27000,note_on,,,,,8,0,1,,,,,0,,,71,0
27000,note_on,,,,,0,0,1,,,,,0,,,69,32
27000,note_on,,,,,0,0,1,,,,,0,,,76,32
27000,control_change,,,,,0,0,1,,,,,0,64,95,,
27000,note_on,,,,,8,0,2,,,,,0,,,57,32
27015,set_tempo,,,,,15,1,0,,1935483,,,,,,,
27020,set_tempo,,,,,5,1,0,,2000000,,,,,,,
27022,note_on,,,,,22,0,1,,,,,0,,,76,0
27022,note_on,,,,,0,0,2,,,,,0,,,57,0
27022,note_on,,,,,22,0,2,,,,,0,,,61,0
27022,note_on,,,,,0,0,1,,,,,0,,,69,0
27025,set_tempo,,,,,5,1,0,,2000000,,,,,,,
27030,note_on,,,,,8,0,2,,,,,0,,,52,35
27030,note_on,,,,,0,0,2,,,,,0,,,59,35
27030,note_on,,,,,0,0,1,,,,,0,,,76,35
27030,note_on,,,,,8,0,1,,,,,0,,,68,35
27035,set_tempo,,,,,10,1,0,,2000000,,,,,,,
27040,set_tempo,,,,,5,1,0,,2000000,,,,,,,
27045,set_tempo,,,,,5,1,0,,2068965,,,,,,,
27052,note_on,,,,,22,0,2,,,,,0,,,59,0
27052,note_on,,,,,0,0,2,,,,,0,,,52,0
27052,note_on,,,,,22,0,1,,,,,0,,,76,0
27052,note_on,,,,,0,0,1,,,,,0,,,68,0
27055,set_tempo,,,,,10,1,0,,2068965,,,,,,,
27055,control_change,,,,,3,0,1,,,,,0,64,0,,
27060,note_on,,,,,8,0,2,,,,,0,,,57,31
27060,note_on,,,,,0,0,2,,,,,0,,,61,31
27060,note_on,,,,,0,0,1,,,,,0,,,76,33
27060,set_tempo,,,,,5,1,0,,2068965,,,,,,,
27060,control_change,,,,,0,0,1,,,,,0,64,95,,
27060,note_on,,,,,5,0,1,,,,,0,,,69,33
27065,set_tempo,,,,,5,1,0,,2068965,,,,,,,
27070,set_tempo,,,,,5,1,0,,2068965,,,,,,,
27080,set_tempo,,,,,10,1,0,,2068965,,,,,,,
27082,note_on,,,,,0,0,1,,,,,0,,,69,0
27082,note_on,,,,,22,0,1,,,,,0,,,76,0
27082,note_on,,,,,22,0,2,,,,,0,,,61,0
27082,note_on,,,,,0,0,2,,,,,0,,,57,0
27085,note_on,,,,,3,0,1,,,,,0,,,73,32
27085,set_tempo,,,,,5,1,0,,2500000,,,,,,,
27090,note_on,,,,,0,0,2,,,,,0,,,62,27
27090,note_on,,,,,8,0,2,,,,,0,,,52,27
27090,note_on,,,,,0,0,1,,,,,0,,,76,30
27090,note_on,,,,,0,0,1,,,,,0,,,68,30
27090,note_on,,,,,5,0,1,,,,,0,,,73,0
27090,note_on,,,,,0,0,1,,,,,0,,,71,27
27095,set_tempo,,,,,10,1,0,,2222222,,,,,,,
27112,note_on,,,,,22,0,1,,,,,0,,,76,0
27112,note_on,,,,,0,0,1,,,,,0,,,68,0
27112,note_on,,,,,22,0,2,,,,,0,,,62,0
27112,note_on,,,,,0,0,2,,,,,0,,,52,0
27115,control_change,,,,,3,0,1,,,,,0,64,0,,
27120,set_tempo,,,,,25,1,0,,2500000,,,,,,,
27120,note_on,,,,,0,0,1,,,,,0,,,69,23
27120,control_change,,,,,0,0,1,,,,,0,64,94,,
27120,note_on,,,,,5,0,1,,,,,0,,,71,0
27120,note_on,,,,,0,0,2,,,,,0,,,61,23
27120,note_on,,,,,8,0,2,,,,,0,,,57,23
27120,note_on,,,,,0,0,1,,,,,0,,,76,23
27125,set_tempo,,,,,5,1,0,,2500000,,,,,,,
27130,set_tempo,,,,,5,1,0,,2857142,,,,,,,
27142,note_on,,,,,0,0,1,,,,,0,,,69,0
27142,note_on,,,,,22,0,1,,,,,0,,,76,0
27142,note_on,,,,,0,0,2,,,,,0,,,57,0
27142,note_on,,,,,22,0,2,,,,,0,,,61,0
27145,control_change,,,,,3,0,1,,,,,0,64,0,,
27145,set_tempo,,,,,15,1,0,,1714285,,,,,,,
27150,note_on,,,,,8,0,2,,,,,0,,,33,117
27150,note_on,,,,,0,0,2,,,,,0,,,45,117
27155,set_tempo,,,,,10,1,0,,1714285,,,,,,,
27160,set_tempo,,,,,5,1,0,,1714285,,,,,,,
27170,set_tempo,,,,,10,1,0,,1714285,,,,,,,
27172,note_on,,,,,0,0,2,,,,,0,,,33,0
27172,note_on,,,,,22,0,2,,,,,0,,,45,0
27180,set_tempo,,,,,10,1,0,,1714285,,,,,,,
27180,note_on,,,,,8,0,2,,,,,0,,,31,126
27180,note_on,,,,,0,0,2,,,,,0,,,43,126
27180,control_change,,,,,35,0,1,,,,,0,64,95,,
27190,set_tempo,,,,,10,1,0,,1666666,,,,,,,
27200,set_tempo,,,,,10,1,0,,1666666,,,,,,,
27210,set_tempo,,,,,10,1,0,,1666666,,,,,,,
27210,note_on,,,,,0,0,1,,,,,0,,,81,120
27210,note_on,,,,,30,0,1,,,,,0,,,69,120
27215,set_tempo,,,,,5,1,0,,1666666,,,,,,,
27220,set_tempo,,,,,5,1,0,,1666666,,,,,,,
27225,note_on,,,,,45,0,2,,,,,0,,,43,0
27225,note_on,,,,,0,0,2,,,,,0,,,31,0
27235,control_change,,,,,25,0,1,,,,,0,64,0,,
27240,note_on,,,,,5,0,1,,,,,0,,,81,0
27240,note_on,,,,,0,0,1,,,,,0,,,69,0
27240,note_on,,,,,0,0,1,,,,,0,,,73,126
27240,note_on,,,,,0,0,1,,,,,0,,,70,126
27240,note_on,,,,,0,0,1,,,,,0,,,76,126
27240,note_on,,,,,0,0,1,,,,,0,,,82,126
27240,control_change,,,,,0,0,1,,,,,0,64,95,,
27240,note_on,,,,,0,0,2,,,,,0,,,55,120
27240,note_on,,,,,15,0,2,,,,,0,,,43,120
27250,set_tempo,,,,,30,1,0,,1666666,,,,,,,
27260,set_tempo,,,,,10,1,0,,1621621,,,,,,,
27262,note_on,,,,,22,0,1,,,,,0,,,82,0
27262,note_on,,,,,0,0,1,,,,,0,,,70,0
27262,note_on,,,,,0,0,1,,,,,0,,,76,0
27262,note_on,,,,,0,0,1,,,,,0,,,73,0
27270,set_tempo,,,,,10,1,0,,1621621,,,,,,,
27270,note_on,,,,,8,0,1,,,,,0,,,61,120
27270,note_on,,,,,0,0,1,,,,,0,,,64,120
27270,note_on,,,,,0,0,1,,,,,0,,,70,120
27285,note_on,,,,,45,0,2,,,,,0,,,55,0
27285,note_on,,,,,0,0,2,,,,,0,,,43,0
27295,control_change,,,,,25,0,1,,,,,0,64,0,,
27300,note_on,,,,,0,0,2,,,,,0,,,58,118
27300,note_on,,,,,15,0,2,,,,,0,,,46,118
27300,set_tempo,,,,,30,1,0,,1621621,,,,,,,
27300,control_change,,,,,5,0,1,,,,,0,64,97,,
27305,set_tempo,,,,,5,1,0,,1578947,,,,,,,
27315,set_tempo,,,,,10,1,0,,1578947,,,,,,,
27322,note_on,,,,,0,0,2,,,,,0,,,46,0
27322,note_on,,,,,22,0,2,,,,,0,,,58,0
27325,set_tempo,,,,,10,1,0,,1578947,,,,,,,
27330,note_on,,,,,0,0,2,,,,,0,,,43,118
27330,note_on,,,,,8,0,2,,,,,0,,,31,118
27352,note_on,,,,,22,0,2,,,,,0,,,43,0
27352,note_on,,,,,0,0,2,,,,,0,,,31,0
27355,control_change,,,,,55,0,1,,,,,0,64,0,,
27355,set_tempo,,,,,30,1,0,,1578947,,,,,,,
27360,note_on,,,,,0,0,2,,,,,0,,,41,126
27360,note_on,,,,,8,0,2,,,,,0,,,29,126
27360,note_on,,,,,5,0,1,,,,,0,,,70,0
27360,control_change,,,,,0,0,1,,,,,0,64,95,,
27360,note_on,,,,,0,0,1,,,,,0,,,61,0
27360,note_on,,,,,0,0,1,,,,,0,,,64,0
27365,set_tempo,,,,,10,1,0,,1578947,,,,,,,
27390,note_on,,,,,0,0,1,,,,,0,,,85,120
27390,note_on,,,,,0,0,1,,,,,0,,,82,120
27390,note_on,,,,,0,0,1,,,,,0,,,73,120
27390,note_on,,,,,30,0,1,,,,,0,,,76,120
27395,set_tempo,,,,,30,1,0,,1538461,,,,,,,
27400,set_tempo,,,,,5,1,0,,1538461,,,,,,,
27405,note_on,,,,,0,0,2,,,,,0,,,29,0
27405,note_on,,,,,45,0,2,,,,,0,,,41,0
27410,set_tempo,,,,,10,1,0,,1538461,,,,,,,
27415,control_change,,,,,25,0,1,,,,,0,64,0,,
27420,control_change,,,,,0,0,1,,,,,0,64,95,,
27420,note_on,,,,,0,0,1,,,,,0,,,74,126
27420,note_on,,,,,0,0,1,,,,,0,,,77,126
27420,note_on,,,,,0,0,1,,,,,0,,,82,126
27420,note_on,,,,,0,0,1,,,,,0,,,86,126
27420,note_on,,,,,0,0,1,,,,,0,,,85,0
27420,note_on,,,,,0,0,1,,,,,0,,,82,0
27420,note_on,,,,,0,0,1,,,,,0,,,76,0
27420,note_on,,,,,5,0,1,,,,,0,,,73,0
27420,note_on,,,,,0,0,2,,,,,0,,,53,120
27420,note_on,,,,,15,0,2,,,,,0,,,41,120
27425,set_tempo,,,,,15,1,0,,1538461,,,,,,,
27435,set_tempo,,,,,10,1,0,,1538461,,,,,,,
27442,note_on,,,,,0,0,1,,,,,0,,,77,0
27442,note_on,,,,,22,0,1,,,,,0,,,74,0
27442,note_on,,,,,0,0,1,,,,,0,,,86,0
27442,note_on,,,,,0,0,1,,,,,0,,,82,0
27445,set_tempo,,,,,10,1,0,,1500000,,,,,,,
27450,note_on,,,,,0,0,1,,,,,0,,,70,120
27450,note_on,,,,,0,0,1,,,,,0,,,65,120
27450,note_on,,,,,8,0,1,,,,,0,,,62,120
27450,note_on,,,,,0,0,1,,,,,0,,,74,120
27455,set_tempo,,,,,10,1,0,,1500000,,,,,,,
27465,note_on,,,,,45,0,2,,,,,0,,,53,0
27465,set_tempo,,,,,10,1,0,,1500000,,,,,,,
27465,note_on,,,,,0,0,2,,,,,0,,,41,0
27475,set_tempo,,,,,10,1,0,,1500000,,,,,,,
27475,control_change,,,,,25,0,1,,,,,0,64,0,,
27480,control_change,,,,,5,0,1,,,,,0,64,97,,
27480,note_on,,,,,15,0,2,,,,,0,,,46,118
27480,note_on,,,,,0,0,2,,,,,0,,,58,118
27502,note_on,,,,,22,0,2,,,,,0,,,58,0
27502,note_on,,,,,0,0,2,,,,,0,,,46,0
27505,set_tempo,,,,,30,1,0,,1500000,,,,,,,
27510,note_on,,,,,0,0,2,,,,,0,,,52,118
27510,note_on,,,,,8,0,2,,,,,0,,,40,118
27510,set_tempo,,,,,5,1,0,,1500000,,,,,,,
27525,set_tempo,,,,,15,1,0,,1500000,,,,,,,
27530,set_tempo,,,,,5,1,0,,1500000,,,,,,,
27532,note_on,,,,,0,0,2,,,,,0,,,40,0
27532,note_on,,,,,22,0,2,,,,,0,,,52,0
27535,control_change,,,,,55,0,1,,,,,0,64,0,,
27540,note_on,,,,,8,0,2,,,,,0,,,41,126
27540,control_change,,,,,0,0,1,,,,,0,64,95,,
27540,note_on,,,,,0,0,2,,,,,0,,,53,126
27540,note_on,,,,,5,0,1,,,,,0,,,74,0
27540,note_on,,,,,0,0,1,,,,,0,,,62,0
27540,note_on,,,,,0,0,1,,,,,0,,,65,0
27540,note_on,,,,,0,0,1,,,,,0,,,70,0
27550,set_tempo,,,,,20,1,0,,1463414,,,,,,,
27555,set_tempo,,,,,5,1,0,,1463414,,,,,,,
27560,set_tempo,,,,,5,1,0,,1500000,,,,,,,
27565,set_tempo,,,,,5,1,0,,1500000,,,,,,,
27570,note_on,,,,,0,0,1,,,,,0,,,76,120
27570,note_on,,,,,30,0,1,,,,,0,,,88,120
27575,set_tempo,,,,,10,1,0,,1538461,,,,,,,
27580,set_tempo,,,,,5,1,0,,1538461,,,,,,,
27585,note_on,,,,,0,0,2,,,,,0,,,41,0
27585,note_on,,,,,45,0,2,,,,,0,,,53,0
27590,set_tempo,,,,,10,1,0,,1538461,,,,,,,
27595,control_change,,,,,25,0,1,,,,,0,64,0,,
27595,set_tempo,,,,,5,1,0,,1538461,,,,,,,
27600,note_on,,,,,0,0,2,,,,,0,,,65,120
27600,note_on,,,,,15,0,2,,,,,0,,,53,120
27600,note_on,,,,,0,0,1,,,,,0,,,89,126
27600,note_on,,,,,5,0,1,,,,,0,,,76,0
27600,note_on,,,,,0,0,1,,,,,0,,,88,0
27600,note_on,,,,,0,0,1,,,,,0,,,77,126
27600,note_on,,,,,0,0,1,,,,,0,,,81,126
27600,note_on,,,,,0,0,1,,,,,0,,,84,126
27600,control_change,,,,,0,0,1,,,,,0,64,95,,
27600,set_tempo,,,,,5,1,0,,1538461,,,,,,,
27600,note_on,,,,,0,0,1,,,,,0,,,87,126
27605,set_tempo,,,,,5,1,0,,1578947,,,,,,,
27610,set_tempo,,,,,5,1,0,,1578947,,,,,,,
27615,set_tempo,,,,,5,1,0,,1578947,,,,,,,
27620,set_tempo,,,,,5,1,0,,1578947,,,,,,,
27622,note_on,,,,,0,0,1,,,,,0,,,87,0
27622,note_on,,,,,0,0,1,,,,,0,,,81,0
27622,note_on,,,,,0,0,1,,,,,0,,,77,0
27622,note_on,,,,,0,0,1,,,,,0,,,84,0
27622,note_on,,,,,22,0,1,,,,,0,,,89,0
27625,set_tempo,,,,,5,1,0,,1578947,,,,,,,
27630,note_on,,,,,0,0,1,,,,,0,,,77,120
27630,note_on,,,,,0,0,1,,,,,0,,,75,120
27630,note_on,,,,,0,0,1,,,,,0,,,72,120
27630,note_on,,,,,8,0,1,,,,,0,,,69,120
27630,set_tempo,,,,,5,1,0,,1621621,,,,,,,
27635,set_tempo,,,,,5,1,0,,1621621,,,,,,,
27640,set_tempo,,,,,5,1,0,,1621621,,,,,,,
27645,set_tempo,,,,,5,1,0,,1621621,,,,,,,
27645,note_on,,,,,0,0,2,,,,,0,,,53,0
27645,note_on,,,,,45,0,2,,,,,0,,,65,0
27655,control_change,,,,,25,0,1,,,,,0,64,0,,
27655,set_tempo,,,,,10,1,0,,1621621,,,,,,,
27660,note_on,,,,,0,0,2,,,,,0,,,57,118
27660,control_change,,,,,5,0,1,,,,,0,64,97,,
27660,set_tempo,,,,,5,1,0,,1621621,,,,,,,
27660,note_on,,,,,15,0,2,,,,,0,,,69,118
27670,set_tempo,,,,,10,1,0,,1666666,,,,,,,
27675,set_tempo,,,,,5,1,0,,1666666,,,,,,,
27680,set_tempo,,,,,5,1,0,,1666666,,,,,,,
27682,note_on,,,,,0,0,2,,,,,0,,,69,0
27682,note_on,,,,,22,0,2,,,,,0,,,57,0
27690,note_on,,,,,8,0,2,,,,,0,,,41,118
27690,note_on,,,,,0,0,2,,,,,0,,,53,118
27690,set_tempo,,,,,10,1,0,,1666666,,,,,,,
27695,set_tempo,,,,,5,1,0,,1666666,,,,,,,
27700,set_tempo,,,,,5,1,0,,1714285,,,,,,,
27712,note_on,,,,,0,0,2,,,,,0,,,41,0
27712,note_on,,,,,22,0,2,,,,,0,,,53,0
27715,set_tempo,,,,,15,1,0,,1714285,,,,,,,
27715,control_change,,,,,55,0,1,,,,,0,64,0,,
27720,note_on,,,,,5,0,1,,,,,0,,,77,0
27720,note_on,,,,,0,0,1,,,,,0,,,69,0
27720,note_on,,,,,0,0,2,,,,,0,,,46,126
27720,note_on,,,,,8,0,2,,,,,0,,,34,126
27720,control_change,,,,,0,0,1,,,,,0,64,95,,
27720,note_on,,,,,0,0,1,,,,,0,,,72,0
27720,note_on,,,,,0,0,1,,,,,0,,,75,0
27725,set_tempo,,,,,10,1,0,,1714285,,,,,,,
27735,set_tempo,,,,,10,1,0,,1714285,,,,,,,
27740,set_tempo,,,,,5,1,0,,1714285,,,,,,,
27745,set_tempo,,,,,5,1,0,,1764705,,,,,,,
27750,note_on,,,,,0,0,1,,,,,0,,,82,120
27750,note_on,,,,,30,0,1,,,,,0,,,74,120
27750,note_on,,,,,0,0,1,,,,,0,,,77,120
27760,set_tempo,,,,,15,1,0,,1764705,,,,,,,
27765,set_tempo,,,,,5,1,0,,1764705,,,,,,,
27765,note_on,,,,,45,0,2,,,,,0,,,46,0
27765,note_on,,,,,0,0,2,,,,,0,,,34,0
27775,set_tempo,,,,,10,1,0,,1764705,,,,,,,
27775,control_change,,,,,25,0,1,,,,,0,64,0,,
27780,set_tempo,,,,,5,1,0,,1764705,,,,,,,
27780,note_on,,,,,0,0,2,,,,,0,,,58,108
27780,note_on,,,,,15,0,2,,,,,0,,,46,108
27780,note_on,,,,,5,0,1,,,,,0,,,82,0
27780,note_on,,,,,0,0,1,,,,,0,,,74,0
27780,note_on,,,,,0,0,1,,,,,0,,,77,126
27780,note_on,,,,,0,0,1,,,,,0,,,74,126
27780,note_on,,,,,0,0,1,,,,,0,,,82,126
27780,note_on,,,,,0,0,1,,,,,0,,,86,126
27780,control_change,,,,,0,0,1,,,,,0,64,95,,
27780,note_on,,,,,0,0,1,,,,,0,,,77,0
27790,set_tempo,,,,,10,1,0,,1764705,,,,,,,
27800,set_tempo,,,,,10,1,0,,1818181,,,,,,,
27802,note_on,,,,,0,0,1,,,,,0,,,77,0
27802,note_on,,,,,0,0,1,,,,,0,,,74,0
27802,note_on,,,,,0,0,1,,,,,0,,,82,0
27802,note_on,,,,,22,0,1,,,,,0,,,86,0
27810,note_on,,,,,8,0,1,,,,,0,,,62,120
27810,note_on,,,,,0,0,1,,,,,0,,,65,120
27810,note_on,,,,,0,0,1,,,,,0,,,70,120
27815,set_tempo,,,,,15,1,0,,1875000,,,,,,,
27820,set_tempo,,,,,5,1,0,,1875000,,,,,,,
27825,note_on,,,,,0,0,2,,,,,0,,,46,0
27825,note_on,,,,,45,0,2,,,,,0,,,58,0
27825,set_tempo,,,,,5,1,0,,1875000,,,,,,,
27835,set_tempo,,,,,10,1,0,,1935483,,,,,,,
27835,control_change,,,,,25,0,1,,,,,0,64,0,,
27840,set_tempo,,,,,5,1,0,,1935483,,,,,,,
27840,control_change,,,,,5,0,1,,,,,0,64,97,,
27840,note_on,,,,,15,0,2,,,,,0,,,50,126
27840,note_on,,,,,0,0,2,,,,,0,,,62,126
27845,set_tempo,,,,,5,1,0,,2000000,,,,,,,
27855,set_tempo,,,,,10,1,0,,2000000,,,,,,,
27860,set_tempo,,,,,5,1,0,,2000000,,,,,,,
27862,note_on,,,,,22,0,2,,,,,0,,,62,0
27862,note_on,,,,,0,0,2,,,,,0,,,50,0
27865,set_tempo,,,,,5,1,0,,2000000,,,,,,,
27870,note_on,,,,,30,0,1,,,,,0,,,89,118
27870,set_tempo,,,,,5,1,0,,2000000,,,,,,,
27870,note_on,,,,,8,0,2,,,,,0,,,46,126
27870,note_on,,,,,0,0,2,,,,,0,,,58,126
27875,set_tempo,,,,,5,1,0,,2068965,,,,,,,
27890,set_tempo,,,,,15,1,0,,1818181,,,,,,,
27892,note_on,,,,,0,0,2,,,,,0,,,46,0
27892,note_on,,,,,22,0,2,,,,,0,,,58,0
27895,set_tempo,,,,,5,1,0,,1818181,,,,,,,
27895,control_change,,,,,25,0,1,,,,,0,64,0,,
27900,note_on,,,,,0,0,1,,,,,0,,,94,119
27900,note_on,,,,,5,0,1,,,,,0,,,89,0
27900,note_on,,,,,0,0,1,,,,,0,,,62,0
27900,note_on,,,,,0,0,1,,,,,0,,,65,0
27900,set_tempo,,,,,5,1,0,,1764705,,,,,,,
27900,note_on,,,,,0,0,2,,,,,0,,,55,125
27900,note_on,,,,,8,0,2,,,,,0,,,43,125
27900,note_on,,,,,0,0,1,,,,,0,,,70,0
27900,control_change,,,,,0,0,1,,,,,0,64,96,,
27905,set_tempo,,,,,5,1,0,,1764705,,,,,,,
27910,set_tempo,,,,,5,1,0,,1764705,,,,,,,
27915,set_tempo,,,,,5,1,0,,1764705,,,,,,,
27915,note_on,,,,,15,0,1,,,,,0,,,94,0
27915,note_on,,,,,0,0,1,,,,,0,,,88,114
27920,set_tempo,,,,,5,1,0,,1714285,,,,,,,
27922,note_on,,,,,22,0,2,,,,,0,,,55,0
27922,note_on,,,,,0,0,2,,,,,0,,,43,0
27925,set_tempo,,,,,5,1,0,,1714285,,,,,,,
27926,note_on,,,,,11,0,1,,,,,0,,,88,0
27930,note_on,,,,,0,0,2,,,,,0,,,64,113
27930,set_tempo,,,,,5,1,0,,1666666,,,,,,,
27930,note_on,,,,,4,0,1,,,,,0,,,91,106
27930,note_on,,,,,8,0,2,,,,,0,,,55,113
27930,note_on,,,,,0,0,2,,,,,0,,,58,113
27930,note_on,,,,,0,0,2,,,,,0,,,61,113
27935,set_tempo,,,,,5,1,0,,1621621,,,,,,,
27940,set_tempo,,,,,5,1,0,,1621621,,,,,,,
27945,set_tempo,,,,,5,1,0,,1621621,,,,,,,
27945,note_on,,,,,0,0,1,,,,,0,,,85,99
27945,note_on,,,,,15,0,1,,,,,0,,,91,0
27950,set_tempo,,,,,5,1,0,,1621621,,,,,,,
27955,set_tempo,,,,,5,1,0,,1621621,,,,,,,
27955,control_change,,,,,10,0,1,,,,,0,64,0,,
27956,note_on,,,,,1,0,1,,,,,0,,,85,0
27960,control_change,,,,,0,0,1,,,,,0,64,95,,
27960,note_on,,,,,4,0,1,,,,,0,,,88,94
27960,set_tempo,,,,,5,1,0,,1578947,,,,,,,
27965,set_tempo,,,,,5,1,0,,1578947,,,,,,,
27970,set_tempo,,,,,5,1,0,,1578947,,,,,,,
27975,note_on,,,,,15,0,1,,,,,0,,,88,0
27975,set_tempo,,,,,5,1,0,,1538461,,,,,,,
27975,note_on,,,,,0,0,1,,,,,0,,,82,91
27980,set_tempo,,,,,5,1,0,,1538461,,,,,,,
27982,note_on,,,,,52,0,2,,,,,0,,,64,0
27982,note_on,,,,,0,0,2,,,,,0,,,55,0
27982,note_on,,,,,0,0,2,,,,,0,,,58,0
27982,note_on,,,,,0,0,2,,,,,0,,,61,0
27985,set_tempo,,,,,5,1,0,,1538461,,,,,,,
27986,note_on,,,,,11,0,1,,,,,0,,,82,0
27990,note_on,,,,,0,0,2,,,,,0,,,64,85
27990,note_on,,,,,4,0,1,,,,,0,,,85,83
27990,set_tempo,,,,,5,1,0,,1538461,,,,,,,
27990,note_on,,,,,0,0,2,,,,,0,,,61,85
27990,note_on,,,,,0,0,2,,,,,0,,,58,85
27990,note_on,,,,,8,0,2,,,,,0,,,67,85
28000,set_tempo,,,,,10,1,0,,1538461,,,,,,,
28005,set_tempo,,,,,5,1,0,,1538461,,,,,,,
28005,note_on,,,,,15,0,1,,,,,0,,,85,0
28005,note_on,,,,,0,0,1,,,,,0,,,79,74
28010,set_tempo,,,,,5,1,0,,1578947,,,,,,,
28012,note_on,,,,,0,0,2,,,,,0,,,61,0
28012,note_on,,,,,0,0,2,,,,,0,,,64,0
28012,note_on,,,,,0,0,2,,,,,0,,,67,0
28012,note_on,,,,,22,0,2,,,,,0,,,58,0
28015,control_change,,,,,10,0,1,,,,,0,64,0,,
28016,note_on,,,,,1,0,1,,,,,0,,,79,0
28020,note_on,,,,,4,0,1,,,,,0,,,82,70
28020,set_tempo,,,,,10,1,0,,1578947,,,,,,,
28020,note_on,,,,,8,0,2,,,,,0,,,70,77
28020,note_on,,,,,0,0,2,,,,,0,,,67,77
28020,note_on,,,,,0,0,2,,,,,0,,,64,77
28020,note_on,,,,,0,0,2,,,,,0,,,61,77
28030,set_tempo,,,,,10,1,0,,1621621,,,,,,,
28035,note_on,,,,,0,0,1,,,,,0,,,76,70
28035,note_on,,,,,15,0,1,,,,,0,,,82,0
28046,note_on,,,,,11,0,1,,,,,0,,,76,0
28050,note_on,,,,,4,0,1,,,,,0,,,79,68
28065,note_on,,,,,0,0,2,,,,,0,,,64,0
28065,note_on,,,,,0,0,2,,,,,0,,,67,0
28065,note_on,,,,,45,0,2,,,,,0,,,61,0
28065,note_on,,,,,0,0,2,,,,,0,,,70,0
28065,note_on,,,,,15,0,1,,,,,0,,,79,0
28065,note_on,,,,,0,0,1,,,,,0,,,73,66
28076,note_on,,,,,11,0,1,,,,,0,,,73,0
28080,control_change,,,,,0,0,1,,,,,0,64,96,,
28080,note_on,,,,,4,0,1,,,,,0,,,93,119
28080,note_on,,,,,15,0,2,,,,,0,,,41,122
28080,note_on,,,,,0,0,2,,,,,0,,,53,122
28080,set_tempo,,,,,50,1,0,,1428571,,,,,,,
28090,set_tempo,,,,,10,1,0,,1428571,,,,,,,
28095,note_on,,,,,15,0,1,,,,,0,,,93,0
28095,note_on,,,,,0,0,1,,,,,0,,,86,114
28102,note_on,,,,,0,0,2,,,,,0,,,41,0
28102,note_on,,,,,22,0,2,,,,,0,,,53,0
28106,note_on,,,,,11,0,1,,,,,0,,,86,0
28110,note_on,,,,,0,0,2,,,,,0,,,62,110
28110,note_on,,,,,8,0,2,,,,,0,,,53,110
28110,note_on,,,,,0,0,2,,,,,0,,,57,110
28110,note_on,,,,,4,0,1,,,,,0,,,89,106
28125,note_on,,,,,0,0,1,,,,,0,,,81,99
28125,note_on,,,,,15,0,1,,,,,0,,,89,0
28135,control_change,,,,,10,0,1,,,,,0,64,0,,
28136,note_on,,,,,1,0,1,,,,,0,,,81,0
28140,note_on,,,,,4,0,1,,,,,0,,,86,94
28140,control_change,,,,,0,0,1,,,,,0,64,95,,
28140,set_tempo,,,,,50,1,0,,1463414,,,,,,,
28145,set_tempo,,,,,5,1,0,,1463414,,,,,,,
28150,set_tempo,,,,,5,1,0,,1500000,,,,,,,
28155,note_on,,,,,15,0,1,,,,,0,,,86,0
28155,note_on,,,,,0,0,1,,,,,0,,,77,91
28155,set_tempo,,,,,5,1,0,,1500000,,,,,,,
28160,set_tempo,,,,,5,1,0,,1500000,,,,,,,
28162,note_on,,,,,52,0,2,,,,,0,,,62,0
28162,note_on,,,,,0,0,2,,,,,0,,,57,0
28162,note_on,,,,,0,0,2,,,,,0,,,53,0
28165,set_tempo,,,,,5,1,0,,1500000,,,,,,,
28166,note_on,,,,,11,0,1,,,,,0,,,77,0
28170,note_on,,,,,0,0,2,,,,,0,,,62,87
28170,note_on,,,,,4,0,1,,,,,0,,,81,83
28170,note_on,,,,,0,0,2,,,,,0,,,57,87
28170,note_on,,,,,8,0,2,,,,,0,,,65,87
28170,set_tempo,,,,,5,1,0,,1538461,,,,,,,
28180,set_tempo,,,,,10,1,0,,1538461,,,,,,,
28185,set_tempo,,,,,5,1,0,,1500000,,,,,,,
28185,note_on,,,,,15,0,1,,,,,0,,,81,0
28185,note_on,,,,,0,0,1,,,,,0,,,74,74
28192,note_on,,,,,0,0,2,,,,,0,,,62,0
28192,note_on,,,,,0,0,2,,,,,0,,,65,0
28192,note_on,,,,,22,0,2,,,,,0,,,57,0
28195,control_change,,,,,10,0,1,,,,,0,64,0,,
28196,note_on,,,,,1,0,1,,,,,0,,,74,0
28200,note_on,,,,,4,0,1,,,,,0,,,77,70
28200,note_on,,,,,0,0,2,,,,,0,,,65,76
28200,note_on,,,,,8,0,2,,,,,0,,,69,76
28200,set_tempo,,,,,15,1,0,,1500000,,,,,,,
28200,note_on,,,,,0,0,2,,,,,0,,,62,76
28205,set_tempo,,,,,5,1,0,,1500000,,,,,,,
28215,note_on,,,,,0,0,1,,,,,0,,,69,70
28215,set_tempo,,,,,10,1,0,,1500000,,,,,,,
28215,note_on,,,,,15,0,1,,,,,0,,,77,0
28220,set_tempo,,,,,5,1,0,,1500000,,,,,,,
28225,set_tempo,,,,,5,1,0,,1463414,,,,,,,
28226,note_on,,,,,11,0,1,,,,,0,,,69,0
28230,note_on,,,,,4,0,1,,,,,0,,,74,68
28230,set_tempo,,,,,5,1,0,,1463414,,,,,,,
28235,set_tempo,,,,,5,1,0,,1463414,,,,,,,
28245,note_on,,,,,15,0,1,,,,,0,,,74,0
28245,note_on,,,,,0,0,1,,,,,0,,,65,66
28245,note_on,,,,,45,0,2,,,,,0,,,62,0
28245,note_on,,,,,0,0,2,,,,,0,,,65,0
28245,set_tempo,,,,,10,1,0,,1463414,,,,,,,
28245,note_on,,,,,0,0,2,,,,,0,,,69,0
28250,set_tempo,,,,,5,1,0,,1463414,,,,,,,
28256,note_on,,,,,11,0,1,,,,,0,,,65,0
28260,control_change,,,,,0,0,1,,,,,0,64,96,,
28260,note_on,,,,,4,0,1,,,,,0,,,74,119
28260,set_tempo,,,,,10,1,0,,1463414,,,,,,,
28260,note_on,,,,,15,0,2,,,,,0,,,62,119
28260,control_change,,,,,0,0,2,,,,,0,64,96,,
28265,set_tempo,,,,,5,1,0,,1463414,,,,,,,
28275,note_on,,,,,0,0,1,,,,,0,,,67,114
28275,note_on,,,,,15,0,2,,,,,0,,,62,0
28275,note_on,,,,,15,0,1,,,,,0,,,74,0
28275,note_on,,,,,0,0,2,,,,,0,,,55,114
28286,note_on,,,,,11,0,2,,,,,0,,,55,0
28286,note_on,,,,,11,0,1,,,,,0,,,67,0
28290,note_on,,,,,4,0,1,,,,,0,,,70,106
28290,note_on,,,,,4,0,2,,,,,0,,,58,106
28300,set_tempo,,,,,35,1,0,,1463414,,,,,,,
28305,note_on,,,,,15,0,1,,,,,0,,,70,0
28305,note_on,,,,,0,0,1,,,,,0,,,64,99
28305,set_tempo,,,,,5,1,0,,1463414,,,,,,,
28305,note_on,,,,,15,0,2,,,,,0,,,58,0
28305,note_on,,,,,0,0,2,,,,,0,,,52,99
28310,set_tempo,,,,,5,1,0,,1463414,,,,,,,
28315,control_change,,,,,10,0,2,,,,,0,64,0,,
28315,control_change,,,,,10,0,1,,,,,0,64,0,,
28316,note_on,,,,,1,0,2,,,,,0,,,52,0
28316,note_on,,,,,1,0,1,,,,,0,,,64,0
28320,note_on,,,,,4,0,2,,,,,0,,,55,94
28320,control_change,,,,,0,0,2,,,,,0,64,95,,
28320,control_change,,,,,0,0,1,,,,,0,64,95,,
28320,note_on,,,,,4,0,1,,,,,0,,,67,94
28325,set_tempo,,,,,15,1,0,,1463414,,,,,,,
28330,set_tempo,,,,,5,1,0,,1463414,,,,,,,
28335,note_on,,,,,15,0,1,,,,,0,,,67,0
28335,note_on,,,,,0,0,1,,,,,0,,,62,91
28335,note_on,,,,,0,0,2,,,,,0,,,50,91
28335,note_on,,,,,15,0,2,,,,,0,,,55,0
28345,set_tempo,,,,,15,1,0,,1500000,,,,,,,
28346,note_on,,,,,11,0,1,,,,,0,,,62,0
28346,note_on,,,,,11,0,2,,,,,0,,,50,0
28350,note_on,,,,,4,0,1,,,,,0,,,64,83
28350,note_on,,,,,4,0,2,,,,,0,,,52,83
28355,set_tempo,,,,,10,1,0,,1500000,,,,,,,
28360,set_tempo,,,,,5,1,0,,1500000,,,,,,,
28365,set_tempo,,,,,5,1,0,,1538461,,,,,,,
28365,note_on,,,,,0,0,1,,,,,0,,,58,79
28365,note_on,,,,,15,0,1,,,,,0,,,64,0
28365,note_on,,,,,15,0,2,,,,,0,,,52,0
28365,note_on,,,,,0,0,2,,,,,0,,,46,74
28370,set_tempo,,,,,5,1,0,,1538461,,,,,,,
28375,set_tempo,,,,,5,1,0,,1538461,,,,,,,
28375,control_change,,,,,10,0,2,,,,,0,64,0,,
28375,control_change,,,,,10,0,1,,,,,0,64,0,,
28376,note_on,,,,,1,0,2,,,,,0,,,46,0
28376,note_on,,,,,1,0,1,,,,,0,,,58,0
28380,note_on,,,,,4,0,2,,,,,0,,,50,71
28380,note_on,,,,,4,0,1,,,,,0,,,62,83
28380,set_tempo,,,,,5,1,0,,1538461,,,,,,,
28390,set_tempo,,,,,10,1,0,,1538461,,,,,,,
28395,note_on,,,,,0,0,2,,,,,0,,,43,76
28395,note_on,,,,,15,0,2,,,,,0,,,50,0
28395,note_on,,,,,15,0,1,,,,,0,,,62,0
28395,set_tempo,,,,,5,1,0,,1538461,,,,,,,
28395,note_on,,,,,0,0,1,,,,,0,,,55,89
28405,set_tempo,,,,,10,1,0,,1578947,,,,,,,
28406,note_on,,,,,11,0,1,,,,,0,,,55,0
28406,note_on,,,,,11,0,2,,,,,0,,,43,0
28410,note_on,,,,,4,0,1,,,,,0,,,58,90
28410,note_on,,,,,4,0,2,,,,,0,,,46,82
28415,set_tempo,,,,,10,1,0,,1578947,,,,,,,
28425,note_on,,,,,15,0,2,,,,,0,,,46,0
28425,note_on,,,,,15,0,1,,,,,0,,,58,0
28425,set_tempo,,,,,10,1,0,,1578947,,,,,,,
28425,note_on,,,,,0,0,2,,,,,0,,,40,84
28425,note_on,,,,,0,0,1,,,,,0,,,52,94
28430,set_tempo,,,,,5,1,0,,1764705,,,,,,,
28435,note_on,,,,,10,0,2,,,,,0,,,40,0
28435,note_on,,,,,0,0,2,,,,,0,,,43,93
28435,note_on,,,,,10,0,1,,,,,0,,,52,0
28435,set_tempo,,,,,5,1,0,,1764705,,,,,,,
28435,note_on,,,,,0,0,1,,,,,0,,,55,94
28440,control_change,,,,,0,0,1,,,,,0,64,95,,
28440,note_on,,,,,0,0,1,,,,,0,,,53,100
28440,note_on,,,,,5,0,1,,,,,0,,,55,0
28440,note_on,,,,,0,0,2,,,,,0,,,41,94
28440,note_on,,,,,5,0,2,,,,,0,,,43,0
28445,set_tempo,,,,,10,1,0,,1764705,,,,,,,
28446,note_on,,,,,6,0,1,,,,,0,,,53,0
28446,note_on,,,,,0,0,2,,,,,0,,,43,98
28446,note_on,,,,,6,0,2,,,,,0,,,41,0
28446,note_on,,,,,0,0,1,,,,,0,,,55,102
28450,set_tempo,,,,,5,1,0,,1764705,,,,,,,
28452,note_on,,,,,0,0,1,,,,,0,,,53,108
28452,note_on,,,,,6,0,1,,,,,0,,,55,0
28452,note_on,,,,,6,0,2,,,,,0,,,43,0
28452,note_on,,,,,0,0,2,,,,,0,,,41,102
28455,set_tempo,,,,,5,1,0,,1764705,,,,,,,
28458,note_on,,,,,6,0,2,,,,,0,,,41,0
28458,note_on,,,,,0,0,2,,,,,0,,,43,105
28458,note_on,,,,,6,0,1,,,,,0,,,53,0
28458,note_on,,,,,0,0,1,,,,,0,,,55,108
28464,note_on,,,,,6,0,2,,,,,0,,,43,0
28464,note_on,,,,,0,0,2,,,,,0,,,41,107
28464,note_on,,,,,6,0,1,,,,,0,,,55,0
28464,note_on,,,,,0,0,1,,,,,0,,,53,110
28465,set_tempo,,,,,10,1,0,,1714285,,,,,,,
28470,note_on,,,,,0,0,1,,,,,0,,,55,112
28470,note_on,,,,,6,0,1,,,,,0,,,53,0
28470,note_on,,,,,6,0,2,,,,,0,,,41,0
28470,set_tempo,,,,,5,1,0,,1714285,,,,,,,
28470,note_on,,,,,0,0,2,,,,,0,,,43,111
28476,note_on,,,,,0,0,2,,,,,0,,,41,116
28476,note_on,,,,,6,0,2,,,,,0,,,43,0
28476,note_on,,,,,0,0,1,,,,,0,,,53,114
28476,note_on,,,,,6,0,1,,,,,0,,,55,0
28480,set_tempo,,,,,10,1,0,,1714285,,,,,,,
28482,note_on,,,,,0,0,1,,,,,0,,,52,120
28482,note_on,,,,,6,0,2,,,,,0,,,41,0
28482,note_on,,,,,6,0,1,,,,,0,,,53,0
28482,note_on,,,,,0,0,2,,,,,0,,,40,118
28488,note_on,,,,,6,0,1,,,,,0,,,52,0
28488,note_on,,,,,0,0,1,,,,,0,,,53,120
28488,note_on,,,,,0,0,2,,,,,0,,,41,123
28488,note_on,,,,,6,0,2,,,,,0,,,40,0
28490,set_tempo,,,,,10,1,0,,1714285,,,,,,,
28494,note_on,,,,,0,0,2,,,,,0,,,43,126
28494,note_on,,,,,0,0,1,,,,,0,,,55,123
28494,note_on,,,,,6,0,1,,,,,0,,,53,0
28494,note_on,,,,,6,0,2,,,,,0,,,41,0
28495,set_tempo,,,,,5,1,0,,1578947,,,,,,,
28500,note_on,,,,,0,0,2,,,,,0,,,45,127
28500,control_change,,,,,0,0,1,,,,,0,64,0,,
28500,note_on,,,,,6,0,2,,,,,0,,,43,0
28500,note_on,,,,,6,0,1,,,,,0,,,55,0
28500,note_on,,,,,0,0,1,,,,,0,,,57,124
28505,set_tempo,,,,,10,1,0,,1621621,,,,,,,
28515,set_tempo,,,,,10,1,0,,1621621,,,,,,,
28520,set_tempo,,,,,5,1,0,,1621621,,,,,,,
28525,set_tempo,,,,,5,1,0,,1666666,,,,,,,
28530,set_tempo,,,,,5,1,0,,1666666,,,,,,,
28540,set_tempo,,,,,10,1,0,,1666666,,,,,,,
28545,note_on,,,,,45,0,1,,,,,0,,,57,0
28545,note_on,,,,,45,0,2,,,,,0,,,45,0
28550,set_tempo,,,,,10,1,0,,1666666,,,,,,,
28560,note_on,,,,,0,0,2,,,,,0,,,45,126
28560,note_on,,,,,15,0,2,,,,,0,,,57,126
28560,note_on,,,,,0,0,1,,,,,0,,,85,125
28560,note_on,,,,,0,0,1,,,,,0,,,81,125
28560,note_on,,,,,0,0,1,,,,,0,,,73,125
28560,note_on,,,,,15,0,1,,,,,0,,,76,125
28560,control_change,,,,,0,0,1,,,,,0,64,95,,
28565,set_tempo,,,,,15,1,0,,1666666,,,,,,,
28575,set_tempo,,,,,10,1,0,,1666666,,,,,,,
28612,note_on,,,,,0,0,1,,,,,0,,,73,0
28612,note_on,,,,,0,0,2,,,,,0,,,57,0
28612,note_on,,,,,52,0,2,,,,,0,,,45,0
28612,note_on,,,,,52,0,1,,,,,0,,,85,0
28612,note_on,,,,,0,0,1,,,,,0,,,81,0
28612,note_on,,,,,0,0,1,,,,,0,,,76,0
28615,control_change,,,,,3,0,1,,,,,0,64,0,,
28620,note_on,,,,,0,0,2,,,,,0,,,50,127
28620,note_on,,,,,5,0,1,,,,,0,,,74,127
28620,note_on,,,,,0,0,1,,,,,0,,,77,127
28620,note_on,,,,,0,0,1,,,,,0,,,81,127
28620,control_change,,,,,0,0,1,,,,,0,64,96,,
28620,note_on,,,,,0,0,1,,,,,0,,,86,127
28620,note_on,,,,,8,0,2,,,,,0,,,38,127
28642,note_on,,,,,22,0,1,,,,,0,,,86,0
28642,note_on,,,,,0,0,1,,,,,0,,,74,0
28642,note_on,,,,,0,0,1,,,,,0,,,77,0
28642,note_on,,,,,0,0,1,,,,,0,,,81,0
28650,note_on,,,,,8,0,1,,,,,0,,,74,121
28665,note_on,,,,,0,0,2,,,,,0,,,38,0
28665,note_on,,,,,45,0,2,,,,,0,,,50,0
28675,control_change,,,,,25,0,1,,,,,0,64,0,,
28680,note_on,,,,,15,0,2,,,,,0,,,62,121
28680,note_on,,,,,0,0,2,,,,,0,,,50,121
28680,control_change,,,,,5,0,1,,,,,0,64,95,,
28695,note_on,,,,,15,0,1,,,,,0,,,74,0
28725,note_on,,,,,0,0,2,,,,,0,,,62,0
28725,note_on,,,,,45,0,2,,,,,0,,,50,0
28735,control_change,,,,,40,0,1,,,,,0,64,0,,
28770,note_on,,,,,0,0,1,,,,,0,,,93,71
28770,note_on,,,,,35,0,1,,,,,0,,,81,71
28785,set_tempo,,,,,210,1,0,,1666666,,,,,,,
28790,set_tempo,,,,,5,1,0,,1666666,,,,,,,
28795,set_tempo,,,,,5,1,0,,1666666,,,,,,,
28800,note_on,,,,,75,0,2,,,,,0,,,55,32
28800,note_on,,,,,0,0,1,,,,,0,,,94,62
28800,control_change,,,,,0,0,1,,,,,0,64,95,,
28800,note_on,,,,,0,0,1,,,,,0,,,81,0
28800,note_on,,,,,30,0,1,,,,,0,,,93,0
28800,note_on,,,,,0,0,1,,,,,0,,,82,62
28805,set_tempo,,,,,10,1,0,,1666666,,,,,,,
28810,set_tempo,,,,,5,1,0,,1621621,,,,,,,
28815,note_on,,,,,0,0,2,,,,,0,,,58,36
28815,note_on,,,,,15,0,2,,,,,0,,,55,0
28820,set_tempo,,,,,10,1,0,,1621621,,,,,,,
28822,note_on,,,,,0,0,1,,,,,0,,,82,0
28822,note_on,,,,,22,0,1,,,,,0,,,94,0
28825,set_tempo,,,,,5,1,0,,1621621,,,,,,,
28830,note_on,,,,,8,0,1,,,,,0,,,75,62
28830,note_on,,,,,0,0,2,,,,,0,,,63,38
28830,note_on,,,,,15,0,2,,,,,0,,,58,0
28830,note_on,,,,,0,0,1,,,,,0,,,87,62
28835,set_tempo,,,,,10,1,0,,1621621,,,,,,,
28840,set_tempo,,,,,5,1,0,,1621621,,,,,,,
28845,note_on,,,,,0,0,2,,,,,0,,,58,41
28845,note_on,,,,,15,0,2,,,,,0,,,63,0
28845,set_tempo,,,,,5,1,0,,1621621,,,,,,,
28855,set_tempo,,,,,10,1,0,,1621621,,,,,,,
28860,note_on,,,,,0,0,2,,,,,0,,,55,43
28860,note_on,,,,,15,0,2,,,,,0,,,58,0
28865,set_tempo,,,,,10,1,0,,1578947,,,,,,,
28875,note_on,,,,,15,0,2,,,,,0,,,55,0
28875,note_on,,,,,0,0,2,,,,,0,,,58,44
28875,set_tempo,,,,,10,1,0,,1578947,,,,,,,
28885,set_tempo,,,,,10,1,0,,1578947,,,,,,,
28890,note_on,,,,,15,0,2,,,,,0,,,58,0
28890,note_on,,,,,0,0,2,,,,,0,,,63,45
28890,note_on,,,,,60,0,1,,,,,0,,,87,0
28890,note_on,,,,,0,0,1,,,,,0,,,75,0
28890,set_tempo,,,,,5,1,0,,1578947,,,,,,,
28890,note_on,,,,,0,0,1,,,,,0,,,82,49
28890,note_on,,,,,0,0,1,,,,,0,,,70,49
28905,set_tempo,,,,,15,1,0,,1578947,,,,,,,
28905,note_on,,,,,15,0,2,,,,,0,,,63,0
28905,note_on,,,,,0,0,2,,,,,0,,,58,46
28910,set_tempo,,,,,5,1,0,,1578947,,,,,,,
28914,note_on,,,,,24,0,1,,,,,0,,,82,0
28914,note_on,,,,,0,0,1,,,,,0,,,70,0
28915,set_tempo,,,,,5,1,0,,1538461,,,,,,,
28920,note_on,,,,,0,0,2,,,,,0,,,55,47
28920,note_on,,,,,6,0,1,,,,,0,,,63,49
28920,note_on,,,,,0,0,1,,,,,0,,,75,49
28920,control_change,,,,,0,0,1,,,,,0,64,0,,
28920,note_on,,,,,15,0,2,,,,,0,,,58,0
28925,set_tempo,,,,,10,1,0,,1538461,,,,,,,
28930,set_tempo,,,,,5,1,0,,1578947,,,,,,,
28935,note_on,,,,,15,0,2,,,,,0,,,55,0
28935,note_on,,,,,0,0,2,,,,,0,,,58,45
28944,note_on,,,,,24,0,1,,,,,0,,,75,0
28944,note_on,,,,,0,0,1,,,,,0,,,63,0
28945,set_tempo,,,,,15,1,0,,1578947,,,,,,,
28950,note_on,,,,,6,0,1,,,,,0,,,82,67
28950,note_on,,,,,0,0,1,,,,,0,,,94,67
28950,note_on,,,,,15,0,2,,,,,0,,,58,0
28950,note_on,,,,,0,0,2,,,,,0,,,63,43
28955,set_tempo,,,,,10,1,0,,1578947,,,,,,,
28960,set_tempo,,,,,5,1,0,,1578947,,,,,,,
28965,note_on,,,,,0,0,2,,,,,0,,,58,40
28965,set_tempo,,,,,5,1,0,,1621621,,,,,,,
28965,note_on,,,,,15,0,2,,,,,0,,,63,0
28970,set_tempo,,,,,5,1,0,,1621621,,,,,,,
28975,set_tempo,,,,,5,1,0,,1621621,,,,,,,
28980,note_on,,,,,0,0,1,,,,,0,,,93,62
28980,control_change,,,,,0,0,1,,,,,0,64,95,,
28980,note_on,,,,,0,0,2,,,,,0,,,53,39
28980,note_on,,,,,15,0,2,,,,,0,,,58,0
28980,note_on,,,,,0,0,1,,,,,0,,,81,62
28980,note_on,,,,,30,0,1,,,,,0,,,94,0
28980,note_on,,,,,0,0,1,,,,,0,,,82,0
28990,set_tempo,,,,,15,1,0,,1578947,,,,,,,
28995,note_on,,,,,0,0,2,,,,,0,,,57,40
28995,note_on,,,,,15,0,2,,,,,0,,,53,0
29000,set_tempo,,,,,10,1,0,,1578947,,,,,,,
29002,note_on,,,,,0,0,1,,,,,0,,,81,0
29002,note_on,,,,,22,0,1,,,,,0,,,93,0
29010,note_on,,,,,8,0,1,,,,,0,,,74,62
29010,note_on,,,,,0,0,1,,,,,0,,,86,62
29010,note_on,,,,,0,0,2,,,,,0,,,62,43
29010,note_on,,,,,15,0,2,,,,,0,,,57,0
29015,set_tempo,,,,,15,1,0,,1578947,,,,,,,
29020,set_tempo,,,,,5,1,0,,1578947,,,,,,,
29025,note_on,,,,,15,0,2,,,,,0,,,62,0
29025,note_on,,,,,0,0,2,,,,,0,,,57,43
29030,set_tempo,,,,,10,1,0,,1578947,,,,,,,
29040,note_on,,,,,15,0,2,,,,,0,,,57,0
29040,note_on,,,,,0,0,2,,,,,0,,,53,45
29045,set_tempo,,,,,15,1,0,,1578947,,,,,,,
29055,note_on,,,,,15,0,2,,,,,0,,,53,0
29055,note_on,,,,,0,0,2,,,,,0,,,57,45
29055,set_tempo,,,,,10,1,0,,1578947,,,,,,,
29070,note_on,,,,,15,0,2,,,,,0,,,57,0
29070,note_on,,,,,0,0,2,,,,,0,,,62,45
29070,note_on,,,,,60,0,1,,,,,0,,,86,0
29070,note_on,,,,,0,0,1,,,,,0,,,74,0
29070,note_on,,,,,0,0,1,,,,,0,,,81,49
29070,note_on,,,,,0,0,1,,,,,0,,,69,49
29085,note_on,,,,,15,0,2,,,,,0,,,62,0
29085,note_on,,,,,0,0,2,,,,,0,,,57,45
29085,set_tempo,,,,,30,1,0,,1578947,,,,,,,
29094,note_on,,,,,24,0,1,,,,,0,,,81,0
29094,note_on,,,,,0,0,1,,,,,0,,,69,0
29100,note_on,,,,,15,0,2,,,,,0,,,57,0
29100,note_on,,,,,0,0,2,,,,,0,,,53,41
29100,note_on,,,,,6,0,1,,,,,0,,,62,49
29100,control_change,,,,,0,0,1,,,,,0,64,0,,
29100,note_on,,,,,0,0,1,,,,,0,,,74,49
29115,note_on,,,,,15,0,2,,,,,0,,,53,0
29115,note_on,,,,,0,0,2,,,,,0,,,57,39
29120,set_tempo,,,,,35,1,0,,1578947,,,,,,,
29124,note_on,,,,,0,0,1,,,,,0,,,62,0
29124,note_on,,,,,24,0,1,,,,,0,,,74,0
29125,set_tempo,,,,,5,1,0,,1578947,,,,,,,
29130,note_on,,,,,15,0,2,,,,,0,,,57,0
29130,note_on,,,,,0,0,2,,,,,0,,,62,36
29130,note_on,,,,,6,0,1,,,,,0,,,74,60
29130,note_on,,,,,0,0,1,,,,,0,,,62,60
29130,set_tempo,,,,,5,1,0,,1578947,,,,,,,
29135,set_tempo,,,,,5,1,0,,1578947,,,,,,,
29140,set_tempo,,,,,5,1,0,,1578947,,,,,,,
29145,note_on,,,,,15,0,2,,,,,0,,,62,0
29145,set_tempo,,,,,5,1,0,,1621621,,,,,,,
29145,note_on,,,,,0,0,2,,,,,0,,,57,39
29150,set_tempo,,,,,5,1,0,,1621621,,,,,,,
29155,set_tempo,,,,,5,1,0,,1578947,,,,,,,
29157,note_on,,,,,12,0,2,,,,,0,,,57,0
29160,set_tempo,,,,,5,1,0,,1578947,,,,,,,
29160,control_change,,,,,0,0,1,,,,,0,64,96,,
29160,note_on,,,,,0,0,1,,,,,0,,,73,54
29160,note_on,,,,,0,0,1,,,,,0,,,61,54
29160,note_on,,,,,0,0,1,,,,,0,,,74,0
29160,note_on,,,,,30,0,1,,,,,0,,,62,0
29160,note_on,,,,,3,0,2,,,,,0,,,52,42
29165,set_tempo,,,,,5,1,0,,1578947,,,,,,,
29170,set_tempo,,,,,5,1,0,,1578947,,,,,,,
29175,note_on,,,,,15,0,2,,,,,0,,,52,0
29175,note_on,,,,,0,0,2,,,,,0,,,55,45
29180,set_tempo,,,,,10,1,0,,1578947,,,,,,,
29190,set_tempo,,,,,10,1,0,,1578947,,,,,,,
29190,note_on,,,,,0,0,1,,,,,0,,,81,65
29190,note_on,,,,,0,0,1,,,,,0,,,69,65
29190,note_on,,,,,0,0,1,,,,,0,,,61,0
29190,note_on,,,,,30,0,1,,,,,0,,,73,0
29190,note_on,,,,,15,0,2,,,,,0,,,55,0
29190,note_on,,,,,0,0,2,,,,,0,,,61,49
29200,set_tempo,,,,,10,1,0,,1578947,,,,,,,
29205,note_on,,,,,0,0,2,,,,,0,,,55,52
29205,note_on,,,,,15,0,2,,,,,0,,,61,0
29205,set_tempo,,,,,5,1,0,,1538461,,,,,,,
29220,note_on,,,,,0,0,2,,,,,0,,,52,56
29220,set_tempo,,,,,15,1,0,,1538461,,,,,,,
29220,note_on,,,,,15,0,2,,,,,0,,,55,0
29220,control_change,,,,,30,0,1,,,,,0,64,0,,
29225,set_tempo,,,,,5,1,0,,1538461,,,,,,,
29230,set_tempo,,,,,5,1,0,,1538461,,,,,,,
29235,note_on,,,,,15,0,2,,,,,0,,,52,0
29235,note_on,,,,,0,0,2,,,,,0,,,55,57
29242,note_on,,,,,22,0,1,,,,,0,,,81,0
29242,note_on,,,,,0,0,1,,,,,0,,,69,0
29245,set_tempo,,,,,15,1,0,,1538461,,,,,,,
29250,note_on,,,,,15,0,2,,,,,0,,,55,0
29250,note_on,,,,,8,0,1,,,,,0,,,73,56
29250,note_on,,,,,0,0,1,,,,,0,,,85,56
29250,control_change,,,,,0,0,1,,,,,0,64,96,,
29250,note_on,,,,,0,0,2,,,,,0,,,61,55
29250,set_tempo,,,,,5,1,0,,1538461,,,,,,,
29255,set_tempo,,,,,5,1,0,,1538461,,,,,,,
29265,set_tempo,,,,,10,1,0,,1538461,,,,,,,
29265,note_on,,,,,15,0,2,,,,,0,,,61,0
29265,note_on,,,,,0,0,2,,,,,0,,,55,55
29270,set_tempo,,,,,5,1,0,,1538461,,,,,,,
29280,note_on,,,,,15,0,2,,,,,0,,,55,0
29280,note_on,,,,,0,0,2,,,,,0,,,52,49
29280,note_on,,,,,0,0,1,,,,,0,,,81,73
29280,note_on,,,,,0,0,1,,,,,0,,,93,73
29280,note_on,,,,,30,0,1,,,,,0,,,85,0
29280,note_on,,,,,0,0,1,,,,,0,,,73,0
29285,set_tempo,,,,,15,1,0,,1578947,,,,,,,
29290,set_tempo,,,,,5,1,0,,1578947,,,,,,,
29295,note_on,,,,,15,0,2,,,,,0,,,52,0
29295,set_tempo,,,,,5,1,0,,1621621,,,,,,,
29295,note_on,,,,,0,0,2,,,,,0,,,55,43
29300,set_tempo,,,,,5,1,0,,1621621,,,,,,,
29302,note_on,,,,,22,0,1,,,,,0,,,93,0
29302,note_on,,,,,0,0,1,,,,,0,,,81,0
29305,set_tempo,,,,,5,1,0,,1621621,,,,,,,
29310,set_tempo,,,,,5,1,0,,1666666,,,,,,,
29310,note_on,,,,,15,0,2,,,,,0,,,55,0
29310,note_on,,,,,0,0,2,,,,,0,,,61,39
29310,note_on,,,,,0,0,1,,,,,0,,,93,86
29310,note_on,,,,,8,0,1,,,,,0,,,81,86
29315,set_tempo,,,,,5,1,0,,1714285,,,,,,,
29320,set_tempo,,,,,5,1,0,,1714285,,,,,,,
29325,note_on,,,,,15,0,2,,,,,0,,,61,0
29325,note_on,,,,,0,0,2,,,,,0,,,55,36
29325,set_tempo,,,,,5,1,0,,1935483,,,,,,,
29332,note_on,,,,,22,0,1,,,,,0,,,93,0
29332,note_on,,,,,0,0,1,,,,,0,,,81,0
29335,control_change,,,,,3,0,1,,,,,0,64,0,,
29340,note_on,,,,,5,0,1,,,,,0,,,81,64
29340,note_on,,,,,0,0,1,,,,,0,,,93,64
29340,control_change,,,,,0,0,1,,,,,0,64,95,,
29340,note_on,,,,,15,0,2,,,,,0,,,55,0
29340,set_tempo,,,,,15,1,0,,1666666,,,,,,,
29340,note_on,,,,,0,0,2,,,,,0,,,53,36
29355,note_on,,,,,15,0,2,,,,,0,,,53,0
29355,note_on,,,,,0,0,2,,,,,0,,,57,38
29370,note_on,,,,,15,0,2,,,,,0,,,57,0
29370,note_on,,,,,0,0,2,,,,,0,,,62,38
29385,note_on,,,,,15,0,2,,,,,0,,,62,0
29385,note_on,,,,,0,0,2,,,,,0,,,57,42
29395,set_tempo,,,,,55,1,0,,1714285,,,,,,,
29400,set_tempo,,,,,5,1,0,,1666666,,,,,,,
29400,note_on,,,,,15,0,2,,,,,0,,,57,0
29400,note_on,,,,,0,0,2,,,,,0,,,53,42
29405,set_tempo,,,,,5,1,0,,1666666,,,,,,,
29405,control_change,,,,,65,0,1,,,,,0,64,0,,
29415,note_on,,,,,0,0,2,,,,,0,,,57,44
29415,note_on,,,,,0,0,1,,,,,0,,,81,0
29415,note_on,,,,,10,0,1,,,,,0,,,93,0
29415,set_tempo,,,,,10,1,0,,1666666,,,,,,,
29415,note_on,,,,,15,0,2,,,,,0,,,53,0
29420,set_tempo,,,,,5,1,0,,1666666,,,,,,,
29425,set_tempo,,,,,5,1,0,,1666666,,,,,,,
29430,note_on,,,,,0,0,2,,,,,0,,,62,45
29430,note_on,,,,,15,0,1,,,,,0,,,79,59
29430,note_on,,,,,0,0,1,,,,,0,,,91,59
29430,note_on,,,,,15,0,2,,,,,0,,,57,0
29445,note_on,,,,,15,0,1,,,,,0,,,91,0
29445,note_on,,,,,0,0,1,,,,,0,,,81,62
29445,note_on,,,,,0,0,1,,,,,0,,,93,62
29445,note_on,,,,,0,0,1,,,,,0,,,79,0
29445,note_on,,,,,0,0,2,,,,,0,,,57,46
29445,note_on,,,,,15,0,2,,,,,0,,,62,0
29455,set_tempo,,,,,30,1,0,,1666666,,,,,,,
29460,note_on,,,,,15,0,2,,,,,0,,,57,0
29460,note_on,,,,,15,0,1,,,,,0,,,93,0
29460,note_on,,,,,0,0,2,,,,,0,,,55,47
29460,control_change,,,,,0,0,1,,,,,0,64,95,,
29460,note_on,,,,,0,0,1,,,,,0,,,94,63
29460,note_on,,,,,0,0,1,,,,,0,,,82,63
29460,note_on,,,,,0,0,1,,,,,0,,,81,0
29465,set_tempo,,,,,10,1,0,,1621621,,,,,,,
29470,set_tempo,,,,,5,1,0,,1621621,,,,,,,
29475,note_on,,,,,15,0,2,,,,,0,,,55,0
29475,note_on,,,,,0,0,2,,,,,0,,,58,50
29485,set_tempo,,,,,15,1,0,,1621621,,,,,,,
29490,note_on,,,,,0,0,1,,,,,0,,,93,69
29490,set_tempo,,,,,5,1,0,,1578947,,,,,,,
29490,note_on,,,,,0,0,1,,,,,0,,,82,0
29490,note_on,,,,,0,0,2,,,,,0,,,63,51
29490,note_on,,,,,15,0,2,,,,,0,,,58,0
29490,note_on,,,,,0,0,1,,,,,0,,,81,69
29490,note_on,,,,,30,0,1,,,,,0,,,94,0
29500,set_tempo,,,,,10,1,0,,1578947,,,,,,,
29505,note_on,,,,,15,0,2,,,,,0,,,63,0
29505,note_on,,,,,0,0,2,,,,,0,,,58,54
29505,note_on,,,,,0,0,1,,,,,0,,,79,73
29505,note_on,,,,,0,0,1,,,,,0,,,91,73
29505,note_on,,,,,0,0,1,,,,,0,,,93,0
29505,note_on,,,,,15,0,1,,,,,0,,,81,0
29515,control_change,,,,,10,0,1,,,,,0,64,0,,
29520,note_on,,,,,0,0,2,,,,,0,,,57,60
29520,note_on,,,,,15,0,2,,,,,0,,,58,0
29520,set_tempo,,,,,20,1,0,,1578947,,,,,,,
29520,note_on,,,,,0,0,1,,,,,0,,,89,76
29520,note_on,,,,,0,0,1,,,,,0,,,91,0
29520,note_on,,,,,5,0,1,,,,,0,,,79,0
29520,control_change,,,,,0,0,1,,,,,0,64,96,,
29520,note_on,,,,,0,0,1,,,,,0,,,77,76
29535,note_on,,,,,15,0,2,,,,,0,,,57,0
29535,note_on,,,,,0,0,2,,,,,0,,,62,58
29550,note_on,,,,,15,0,2,,,,,0,,,62,0
29550,note_on,,,,,0,0,2,,,,,0,,,65,54
29565,note_on,,,,,15,0,2,,,,,0,,,65,0
29565,note_on,,,,,0,0,2,,,,,0,,,62,51
29580,note_on,,,,,15,0,2,,,,,0,,,62,0
29580,note_on,,,,,0,0,2,,,,,0,,,57,48
29580,set_tempo,,,,,60,1,0,,1578947,,,,,,,
29585,set_tempo,,,,,5,1,0,,1578947,,,,,,,
29595,note_on,,,,,0,0,2,,,,,0,,,62,47
29595,set_tempo,,,,,10,1,0,,1578947,,,,,,,
29595,note_on,,,,,15,0,2,,,,,0,,,57,0
29600,set_tempo,,,,,5,1,0,,1621621,,,,,,,
29605,set_tempo,,,,,5,1,0,,1666666,,,,,,,
29610,note_on,,,,,15,0,2,,,,,0,,,62,0
29610,note_on,,,,,0,0,2,,,,,0,,,65,44
29615,set_tempo,,,,,10,1,0,,1666666,,,,,,,
29620,set_tempo,,,,,5,1,0,,1666666,,,,,,,
29625,set_tempo,,,,,5,1,0,,1714285,,,,,,,
29625,note_on,,,,,15,0,2,,,,,0,,,65,0
29625,note_on,,,,,0,0,2,,,,,0,,,62,42
29635,control_change,,,,,115,0,1,,,,,0,64,0,,
29635,set_tempo,,,,,10,1,0,,1714285,,,,,,,
29640,note_on,,,,,0,0,1,,,,,0,,,76,42
29640,control_change,,,,,0,0,1,,,,,0,64,95,,
29640,note_on,,,,,5,0,1,,,,,0,,,89,0
29640,note_on,,,,,0,0,1,,,,,0,,,77,0
29640,set_tempo,,,,,5,1,0,,1714285,,,,,,,
29640,note_on,,,,,0,0,1,,,,,0,,,88,42
29640,note_on,,,,,0,0,2,,,,,0,,,57,40
29640,note_on,,,,,15,0,2,,,,,0,,,62,0
29645,set_tempo,,,,,5,1,0,,1714285,,,,,,,
29650,set_tempo,,,,,5,1,0,,1714285,,,,,,,
29655,set_tempo,,,,,5,1,0,,1714285,,,,,,,
29655,note_on,,,,,15,0,2,,,,,0,,,57,0
29655,note_on,,,,,0,0,2,,,,,0,,,61,38
29660,set_tempo,,,,,5,1,0,,1764705,,,,,,,
29665,set_tempo,,,,,5,1,0,,1666666,,,,,,,
29670,note_on,,,,,0,0,2,,,,,0,,,64,36
29670,set_tempo,,,,,5,1,0,,1666666,,,,,,,
29670,note_on,,,,,15,0,2,,,,,0,,,61,0
29675,set_tempo,,,,,5,1,0,,2068965,,,,,,,
29685,note_on,,,,,15,0,2,,,,,0,,,64,0
29685,note_on,,,,,0,0,2,,,,,0,,,61,34
29685,note_on,,,,,45,0,1,,,,,0,,,88,0
29685,note_on,,,,,0,0,1,,,,,0,,,76,0
29695,control_change,,,,,10,0,1,,,,,0,64,0,,
29695,set_tempo,,,,,20,1,0,,3000000,,,,,,,
29695,note_on,,,,,10,0,2,,,,,0,,,61,0
29700,set_tempo,,,,,5,1,0,,1666666,,,,,,,
29700,note_on,,,,,5,0,2,,,,,0,,,54,47
29700,note_on,,,,,5,0,1,,,,,0,,,74,46
29700,note_on,,,,,0,0,1,,,,,0,,,81,46
29700,control_change,,,,,0,0,1,,,,,0,64,95,,
29715,note_on,,,,,15,0,2,,,,,0,,,54,0
29715,note_on,,,,,0,0,2,,,,,0,,,57,45
29725,set_tempo,,,,,25,1,0,,1666666,,,,,,,
29730,note_on,,,,,0,0,2,,,,,0,,,62,42
29730,note_on,,,,,15,0,2,,,,,0,,,57,0
29735,set_tempo,,,,,10,1,0,,1666666,,,,,,,
29740,set_tempo,,,,,5,1,0,,1666666,,,,,,,
29745,note_on,,,,,15,0,2,,,,,0,,,62,0
29745,note_on,,,,,0,0,2,,,,,0,,,57,39
29750,set_tempo,,,,,10,1,0,,1666666,,,,,,,
29755,set_tempo,,,,,5,1,0,,1666666,,,,,,,
29760,set_tempo,,,,,5,1,0,,1666666,,,,,,,
29760,note_on,,,,,15,0,2,,,,,0,,,57,0
29760,note_on,,,,,0,0,2,,,,,0,,,54,36
29765,control_change,,,,,65,0,1,,,,,0,64,0,,
29775,set_tempo,,,,,15,1,0,,1666666,,,,,,,
29775,note_on,,,,,15,0,2,,,,,0,,,54,0
29775,note_on,,,,,0,0,2,,,,,0,,,57,39
29775,note_on,,,,,0,0,1,,,,,0,,,74,0
29775,note_on,,,,,10,0,1,,,,,0,,,81,0
29785,set_tempo,,,,,10,1,0,,1666666,,,,,,,
29790,note_on,,,,,15,0,2,,,,,0,,,57,0
29790,note_on,,,,,0,0,2,,,,,0,,,62,40
29790,note_on,,,,,15,0,1,,,,,0,,,80,49
29800,set_tempo,,,,,15,1,0,,1621621,,,,,,,
29805,note_on,,,,,0,0,2,,,,,0,,,57,41
29805,note_on,,,,,15,0,2,,,,,0,,,62,0
29805,set_tempo,,,,,5,1,0,,1621621,,,,,,,
29805,note_on,,,,,15,0,1,,,,,0,,,80,0
29805,note_on,,,,,0,0,1,,,,,0,,,81,51
29815,set_tempo,,,,,10,1,0,,1621621,,,,,,,
29820,note_on,,,,,15,0,2,,,,,0,,,57,0
29820,set_tempo,,,,,5,1,0,,1621621,,,,,,,
29820,note_on,,,,,0,0,2,,,,,0,,,55,43
29820,note_on,,,,,0,0,1,,,,,0,,,74,53
29820,note_on,,,,,0,0,1,,,,,0,,,83,53
29820,control_change,,,,,0,0,1,,,,,0,64,95,,
29820,note_on,,,,,15,0,1,,,,,0,,,81,0
29825,set_tempo,,,,,5,1,0,,1621621,,,,,,,
29835,note_on,,,,,0,0,2,,,,,0,,,59,45
29835,set_tempo,,,,,10,1,0,,1621621,,,,,,,
29835,note_on,,,,,15,0,2,,,,,0,,,55,0
29845,set_tempo,,,,,10,1,0,,1621621,,,,,,,
29850,note_on,,,,,0,0,1,,,,,0,,,85,55
29850,set_tempo,,,,,5,1,0,,1621621,,,,,,,
29850,note_on,,,,,30,0,1,,,,,0,,,83,0
29850,note_on,,,,,0,0,2,,,,,0,,,62,46
29850,note_on,,,,,15,0,2,,,,,0,,,59,0
29865,note_on,,,,,15,0,1,,,,,0,,,85,0
29865,note_on,,,,,0,0,1,,,,,0,,,86,55
29865,note_on,,,,,0,0,2,,,,,0,,,59,47
29865,note_on,,,,,15,0,2,,,,,0,,,62,0
29865,set_tempo,,,,,15,1,0,,1621621,,,,,,,
29870,set_tempo,,,,,5,1,0,,1621621,,,,,,,
29875,control_change,,,,,10,0,1,,,,,0,64,0,,
29880,control_change,,,,,0,0,1,,,,,0,64,95,,
29880,note_on,,,,,0,0,1,,,,,0,,,78,55
29880,note_on,,,,,0,0,1,,,,,0,,,69,55
29880,note_on,,,,,0,0,1,,,,,0,,,74,55
29880,note_on,,,,,0,0,1,,,,,0,,,74,0
29880,note_on,,,,,5,0,1,,,,,0,,,86,0
29880,set_tempo,,,,,10,1,0,,1621621,,,,,,,
29880,note_on,,,,,0,0,2,,,,,0,,,57,47
29880,note_on,,,,,15,0,2,,,,,0,,,59,0
29885,set_tempo,,,,,5,1,0,,1621621,,,,,,,
29890,set_tempo,,,,,5,1,0,,1666666,,,,,,,
29895,note_on,,,,,0,0,2,,,,,0,,,62,47
29895,note_on,,,,,15,0,2,,,,,0,,,57,0
29910,set_tempo,,,,,20,1,0,,1621621,,,,,,,
29910,note_on,,,,,0,0,2,,,,,0,,,66,45
29910,note_on,,,,,15,0,2,,,,,0,,,62,0
29920,set_tempo,,,,,10,1,0,,1621621,,,,,,,
29925,note_on,,,,,15,0,2,,,,,0,,,66,0
29925,note_on,,,,,0,0,2,,,,,0,,,62,44
29925,set_tempo,,,,,5,1,0,,1621621,,,,,,,
29930,set_tempo,,,,,5,1,0,,1621621,,,,,,,
29940,note_on,,,,,15,0,2,,,,,0,,,62,0
29940,note_on,,,,,0,0,2,,,,,0,,,57,43
29940,set_tempo,,,,,10,1,0,,1621621,,,,,,,
29945,control_change,,,,,65,0,1,,,,,0,64,0,,
29945,set_tempo,,,,,5,1,0,,1621621,,,,,,,
29955,note_on,,,,,15,0,2,,,,,0,,,57,0
29955,note_on,,,,,0,0,2,,,,,0,,,62,43
29955,note_on,,,,,0,0,1,,,,,0,,,74,0
29955,note_on,,,,,0,0,1,,,,,0,,,69,0
29955,note_on,,,,,10,0,1,,,,,0,,,78,0
29955,set_tempo,,,,,10,1,0,,1578947,,,,,,,
29965,set_tempo,,,,,10,1,0,,1578947,,,,,,,
29970,note_on,,,,,15,0,2,,,,,0,,,62,0
29970,note_on,,,,,0,0,2,,,,,0,,,66,42
29970,note_on,,,,,15,0,1,,,,,0,,,79,47
29980,set_tempo,,,,,15,1,0,,1714285,,,,,,,
29985,note_on,,,,,15,0,1,,,,,0,,,79,0
29985,note_on,,,,,15,0,2,,,,,0,,,66,0
29985,note_on,,,,,0,0,2,,,,,0,,,62,41
29985,note_on,,,,,0,0,1,,,,,0,,,81,45
29985,set_tempo,,,,,5,1,0,,1714285,,,,,,,
29990,set_tempo,,,,,5,1,0,,1714285,,,,,,,
29995,set_tempo,,,,,5,1,0,,1764705,,,,,,,
30000,note_on,,,,,15,0,2,,,,,0,,,62,0
30000,set_tempo,,,,,5,1,0,,1764705,,,,,,,
30000,note_on,,,,,0,0,2,,,,,0,,,57,39
30000,note_on,,,,,0,0,1,,,,,0,,,69,41
30000,note_on,,,,,0,0,1,,,,,0,,,73,41
30000,note_on,,,,,0,0,1,,,,,0,,,79,41
30000,control_change,,,,,0,0,1,,,,,0,64,95,,
30000,note_on,,,,,15,0,1,,,,,0,,,81,0
30005,set_tempo,,,,,5,1,0,,1818181,,,,,,,
30010,set_tempo,,,,,5,1,0,,1818181,,,,,,,
30015,set_tempo,,,,,5,1,0,,1875000,,,,,,,
30015,note_on,,,,,15,0,2,,,,,0,,,57,0
30015,note_on,,,,,0,0,2,,,,,0,,,64,39
30020,set_tempo,,,,,5,1,0,,1875000,,,,,,,
30025,set_tempo,,,,,5,1,0,,1875000,,,,,,,
30030,note_on,,,,,15,0,2,,,,,0,,,64,0
30030,note_on,,,,,30,0,1,,,,,0,,,79,0
30030,note_on,,,,,0,0,2,,,,,0,,,66,37
30030,note_on,,,,,0,0,1,,,,,0,,,78,36
30030,set_tempo,,,,,5,1,0,,1935483,,,,,,,
30035,set_tempo,,,,,5,1,0,,2000000,,,,,,,
30040,set_tempo,,,,,5,1,0,,2000000,,,,,,,
30045,note_on,,,,,15,0,2,,,,,0,,,66,0
30045,note_on,,,,,0,0,2,,,,,0,,,67,34
30045,set_tempo,,,,,5,1,0,,2068965,,,,,,,
30045,note_on,,,,,0,0,1,,,,,0,,,76,35
30045,note_on,,,,,15,0,1,,,,,0,,,78,0
30050,set_tempo,,,,,5,1,0,,2068965,,,,,,,
30055,control_change,,,,,10,0,1,,,,,0,64,0,,
30060,note_on,,,,,0,0,2,,,,,0,,,62,33
30060,note_on,,,,,15,0,2,,,,,0,,,67,0
30060,note_on,,,,,0,0,1,,,,,0,,,73,0
30060,note_on,,,,,0,0,1,,,,,0,,,69,0
30060,note_on,,,,,0,0,1,,,,,0,,,69,32
30060,note_on,,,,,0,0,1,,,,,0,,,74,32
30060,note_on,,,,,5,0,1,,,,,0,,,76,0
30060,note_on,,,,,0,0,2,,,,,0,,,66,33
30060,control_change,,,,,0,0,1,,,,,0,64,95,,
30065,set_tempo,,,,,15,1,0,,2000000,,,,,,,
30070,set_tempo,,,,,5,1,0,,2068965,,,,,,,
30080,set_tempo,,,,,10,1,0,,2068965,,,,,,,
30082,note_on,,,,,22,0,1,,,,,0,,,74,0
30082,note_on,,,,,0,0,1,,,,,0,,,69,0
30082,note_on,,,,,22,0,2,,,,,0,,,66,0
30082,note_on,,,,,0,0,2,,,,,0,,,62,0
30085,set_tempo,,,,,5,1,0,,1818181,,,,,,,
30085,control_change,,,,,3,0,1,,,,,0,64,0,,
30090,note_on,,,,,0,0,1,,,,,0,,,81,36
30090,note_on,,,,,0,0,2,,,,,0,,,66,35
30090,note_on,,,,,8,0,2,,,,,0,,,57,35
30090,note_on,,,,,5,0,1,,,,,0,,,74,36
30090,control_change,,,,,0,0,1,,,,,0,64,95,,
30112,note_on,,,,,22,0,1,,,,,0,,,81,0
30112,note_on,,,,,0,0,2,,,,,0,,,57,0
30112,note_on,,,,,22,0,2,,,,,0,,,66,0
30112,note_on,,,,,0,0,1,,,,,0,,,74,0
30115,set_tempo,,,,,30,1,0,,1818181,,,,,,,
30120,note_on,,,,,0,0,1,,,,,0,,,83,42
30120,note_on,,,,,8,0,2,,,,,0,,,57,38
30120,note_on,,,,,0,0,2,,,,,0,,,67,38
30120,note_on,,,,,8,0,1,,,,,0,,,74,42
30120,set_tempo,,,,,5,1,0,,1818181,,,,,,,
30135,set_tempo,,,,,15,1,0,,1818181,,,,,,,
30145,set_tempo,,,,,10,1,0,,1818181,,,,,,,
30150,note_on,,,,,30,0,1,,,,,0,,,83,0
30150,note_on,,,,,0,0,1,,,,,0,,,74,0
30150,note_on,,,,,0,0,1,,,,,0,,,74,39
30150,note_on,,,,,0,0,1,,,,,0,,,81,39
30150,note_on,,,,,0,0,2,,,,,0,,,66,33
30150,note_on,,,,,0,0,2,,,,,0,,,57,33
30150,note_on,,,,,0,0,2,,,,,0,,,57,0
30150,note_on,,,,,30,0,2,,,,,0,,,67,0
30155,set_tempo,,,,,10,1,0,,1764705,,,,,,,
30160,set_tempo,,,,,5,1,0,,1764705,,,,,,,
30170,set_tempo,,,,,10,1,0,,1818181,,,,,,,
30172,note_on,,,,,0,0,2,,,,,0,,,57,0
30172,note_on,,,,,22,0,2,,,,,0,,,66,0
30172,note_on,,,,,0,0,1,,,,,0,,,74,0
30172,note_on,,,,,22,0,1,,,,,0,,,81,0
30175,set_tempo,,,,,5,1,0,,1875000,,,,,,,
30180,note_on,,,,,8,0,2,,,,,0,,,57,30
30180,note_on,,,,,0,0,1,,,,,0,,,81,31
30180,note_on,,,,,8,0,1,,,,,0,,,74,31
30180,set_tempo,,,,,5,1,0,,1875000,,,,,,,
30180,note_on,,,,,0,0,2,,,,,0,,,64,30
30185,set_tempo,,,,,5,1,0,,1875000,,,,,,,
30190,set_tempo,,,,,5,1,0,,1935483,,,,,,,
30195,set_tempo,,,,,5,1,0,,2000000,,,,,,,
30200,set_tempo,,,,,5,1,0,,2000000,,,,,,,
30202,note_on,,,,,22,0,1,,,,,0,,,81,0
30202,note_on,,,,,0,0,1,,,,,0,,,74,0
30202,note_on,,,,,22,0,2,,,,,0,,,64,0
30202,note_on,,,,,0,0,2,,,,,0,,,57,0
30210,note_on,,,,,8,0,2,,,,,0,,,57,30
30210,note_on,,,,,0,0,2,,,,,0,,,67,30
30210,note_on,,,,,0,0,1,,,,,0,,,81,27
30210,note_on,,,,,8,0,1,,,,,0,,,73,27
30210,set_tempo,,,,,10,1,0,,2000000,,,,,,,
30215,set_tempo,,,,,5,1,0,,2000000,,,,,,,
30220,set_tempo,,,,,5,1,0,,2000000,,,,,,,
30230,control_change,,,,,20,0,1,,,,,0,64,0,,
30240,note_on,,,,,30,0,2,,,,,0,,,67,0
30240,note_on,,,,,0,0,2,,,,,0,,,57,0
30240,note_on,,,,,0,0,2,,,,,0,,,62,27
30240,note_on,,,,,0,0,2,,,,,0,,,66,27
30240,note_on,,,,,0,0,1,,,,,0,,,74,27
30240,set_tempo,,,,,20,1,0,,2400000,,,,,,,
30240,note_on,,,,,10,0,1,,,,,0,,,81,0
30240,note_on,,,,,0,0,1,,,,,0,,,73,0
30240,note_on,,,,,0,0,1,,,,,0,,,81,27
30240,control_change,,,,,0,0,1,,,,,0,64,96,,
30255,set_tempo,,,,,15,1,0,,2000000,,,,,,,
30262,note_on,,,,,22,0,2,,,,,0,,,66,0
30262,note_on,,,,,0,0,1,,,,,0,,,81,0
30262,note_on,,,,,22,0,1,,,,,0,,,74,0
30262,note_on,,,,,0,0,2,,,,,0,,,62,0
30265,set_tempo,,,,,10,1,0,,2000000,,,,,,,
30265,control_change,,,,,3,0,1,,,,,0,64,0,,
30270,note_on,,,,,0,0,2,,,,,0,,,66,35
30270,note_on,,,,,8,0,2,,,,,0,,,57,35
30270,note_on,,,,,5,0,1,,,,,0,,,74,36
30270,note_on,,,,,0,0,1,,,,,0,,,81,36
30270,control_change,,,,,0,0,1,,,,,0,64,95,,
30275,set_tempo,,,,,10,1,0,,2000000,,,,,,,
30280,set_tempo,,,,,5,1,0,,2000000,,,,,,,
30285,set_tempo,,,,,5,1,0,,1935483,,,,,,,
30290,set_tempo,,,,,5,1,0,,1935483,,,,,,,
30292,note_on,,,,,22,0,2,,,,,0,,,66,0
30292,note_on,,,,,0,0,1,,,,,0,,,74,0
30292,note_on,,,,,22,0,1,,,,,0,,,81,0
30292,note_on,,,,,0,0,2,,,,,0,,,57,0
30295,set_tempo,,,,,5,1,0,,1935483,,,,,,,
30300,note_on,,,,,8,0,1,,,,,0,,,86,42
30300,note_on,,,,,0,0,1,,,,,0,,,74,42
30300,note_on,,,,,0,0,2,,,,,0,,,67,38
30300,note_on,,,,,8,0,2,,,,,0,,,57,38
30300,set_tempo,,,,,5,1,0,,1875000,,,,,,,
30300,note_on,,,,,0,0,1,,,,,0,,,83,42
30330,note_on,,,,,0,0,1,,,,,0,,,81,33
30330,note_on,,,,,0,0,1,,,,,0,,,74,33
30330,note_on,,,,,0,0,1,,,,,0,,,86,0
30330,note_on,,,,,0,0,1,,,,,0,,,74,0
30330,note_on,,,,,30,0,2,,,,,0,,,67,0
30330,note_on,,,,,0,0,2,,,,,0,,,57,0
30330,note_on,,,,,0,0,2,,,,,0,,,57,33
30330,note_on,,,,,30,0,1,,,,,0,,,83,0
30330,note_on,,,,,0,0,2,,,,,0,,,66,33
30350,set_tempo,,,,,50,1,0,,1875000,,,,,,,
30352,note_on,,,,,0,0,2,,,,,0,,,57,0
30352,note_on,,,,,22,0,2,,,,,0,,,66,0
30352,note_on,,,,,0,0,1,,,,,0,,,74,0
30352,note_on,,,,,22,0,1,,,,,0,,,81,0
30355,set_tempo,,,,,5,1,0,,1875000,,,,,,,
30360,note_on,,,,,0,0,2,,,,,0,,,64,30
30360,set_tempo,,,,,5,1,0,,1875000,,,,,,,
30360,note_on,,,,,8,0,1,,,,,0,,,74,38
30360,note_on,,,,,8,0,2,,,,,0,,,57,30
30360,note_on,,,,,0,0,1,,,,,0,,,81,38
30370,set_tempo,,,,,10,1,0,,1935483,,,,,,,
30375,set_tempo,,,,,5,1,0,,1935483,,,,,,,
30375,note_on,,,,,0,0,1,,,,,0,,,73,36
30375,note_on,,,,,15,0,1,,,,,0,,,74,0
30380,set_tempo,,,,,5,1,0,,2000000,,,,,,,
30382,note_on,,,,,22,0,2,,,,,0,,,64,0
30382,note_on,,,,,0,0,2,,,,,0,,,57,0
30382,note_on,,,,,7,0,1,,,,,0,,,81,0
30390,note_on,,,,,0,0,1,,,,,0,,,74,33
30390,note_on,,,,,8,0,2,,,,,0,,,57,30
30390,note_on,,,,,0,0,2,,,,,0,,,67,30
30390,note_on,,,,,8,0,1,,,,,0,,,73,0
30390,set_tempo,,,,,10,1,0,,2000000,,,,,,,
30390,note_on,,,,,0,0,1,,,,,0,,,81,33
30395,set_tempo,,,,,5,1,0,,2000000,,,,,,,
30400,set_tempo,,,,,5,1,0,,2000000,,,,,,,
30405,note_on,,,,,15,0,1,,,,,0,,,74,0
30405,set_tempo,,,,,5,1,0,,2000000,,,,,,,
30405,note_on,,,,,0,0,1,,,,,0,,,76,30
30410,control_change,,,,,5,0,1,,,,,0,64,0,,
30410,set_tempo,,,,,5,1,0,,2000000,,,,,,,
30412,note_on,,,,,2,0,1,,,,,0,,,81,0
30412,note_on,,,,,0,0,2,,,,,0,,,57,0
30412,note_on,,,,,22,0,2,,,,,0,,,67,0
30415,set_tempo,,,,,5,1,0,,1875000,,,,,,,
30420,note_on,,,,,0,0,2,,,,,0,,,66,32
30420,note_on,,,,,8,0,2,,,,,0,,,62,32
30420,set_tempo,,,,,5,1,0,,1935483,,,,,,,
30420,control_change,,,,,0,0,1,,,,,0,64,95,,
30420,note_on,,,,,8,0,1,,,,,0,,,76,0
30420,note_on,,,,,0,0,1,,,,,0,,,81,32
30420,note_on,,,,,0,0,1,,,,,0,,,74,32
30435,set_tempo,,,,,15,1,0,,1935483,,,,,,,
30440,set_tempo,,,,,5,1,0,,2000000,,,,,,,
30442,note_on,,,,,0,0,1,,,,,0,,,74,0
30442,note_on,,,,,22,0,1,,,,,0,,,81,0
30442,note_on,,,,,0,0,2,,,,,0,,,62,0
30442,note_on,,,,,22,0,2,,,,,0,,,66,0
30445,set_tempo,,,,,5,1,0,,2000000,,,,,,,
30450,note_on,,,,,8,0,1,,,,,0,,,73,35
30450,note_on,,,,,0,0,1,,,,,0,,,81,35
30450,note_on,,,,,8,0,2,,,,,0,,,57,35
30450,note_on,,,,,0,0,2,,,,,0,,,64,35
30455,set_tempo,,,,,10,1,0,,2000000,,,,,,,
30460,set_tempo,,,,,5,1,0,,2000000,,,,,,,
30465,set_tempo,,,,,5,1,0,,2068965,,,,,,,
30472,note_on,,,,,22,0,1,,,,,0,,,81,0
30472,note_on,,,,,0,0,1,,,,,0,,,73,0
30472,note_on,,,,,0,0,2,,,,,0,,,57,0
30472,note_on,,,,,22,0,2,,,,,0,,,64,0
30475,control_change,,,,,3,0,1,,,,,0,64,0,,
30475,set_tempo,,,,,10,1,0,,2068965,,,,,,,
30480,note_on,,,,,0,0,1,,,,,0,,,81,33
30480,control_change,,,,,0,0,1,,,,,0,64,95,,
30480,set_tempo,,,,,5,1,0,,2068965,,,,,,,
30480,note_on,,,,,0,0,2,,,,,0,,,66,31
30480,note_on,,,,,8,0,2,,,,,0,,,62,31
30480,note_on,,,,,5,0,1,,,,,0,,,74,33
30485,set_tempo,,,,,5,1,0,,2068965,,,,,,,
30490,set_tempo,,,,,5,1,0,,2068965,,,,,,,
30500,set_tempo,,,,,10,1,0,,2068965,,,,,,,
30502,note_on,,,,,0,0,1,,,,,0,,,74,0
30502,note_on,,,,,0,0,2,,,,,0,,,62,0
30502,note_on,,,,,22,0,2,,,,,0,,,66,0
30502,note_on,,,,,22,0,1,,,,,0,,,81,0
30505,note_on,,,,,3,0,1,,,,,0,,,78,32
30505,set_tempo,,,,,5,1,0,,2500000,,,,,,,
30510,note_on,,,,,8,0,2,,,,,0,,,57,27
30510,note_on,,,,,0,0,1,,,,,0,,,81,30
30510,note_on,,,,,0,0,1,,,,,0,,,73,30
30510,note_on,,,,,0,0,1,,,,,0,,,76,27
30510,note_on,,,,,5,0,1,,,,,0,,,78,0
30510,note_on,,,,,0,0,2,,,,,0,,,67,27
30515,set_tempo,,,,,10,1,0,,2222222,,,,,,,
30532,note_on,,,,,0,0,1,,,,,0,,,73,0
30532,note_on,,,,,0,0,2,,,,,0,,,57,0
30532,note_on,,,,,22,0,2,,,,,0,,,67,0
30532,note_on,,,,,22,0,1,,,,,0,,,81,0
30535,control_change,,,,,3,0,1,,,,,0,64,0,,
30540,set_tempo,,,,,25,1,0,,2500000,,,,,,,
30540,note_on,,,,,0,0,2,,,,,0,,,66,23
30540,note_on,,,,,8,0,2,,,,,0,,,62,23
30540,control_change,,,,,0,0,1,,,,,0,64,94,,
30540,note_on,,,,,0,0,1,,,,,0,,,81,23
30540,note_on,,,,,0,0,1,,,,,0,,,74,23
30540,note_on,,,,,5,0,1,,,,,0,,,76,0
30545,set_tempo,,,,,5,1,0,,2500000,,,,,,,
30550,set_tempo,,,,,5,1,0,,2857142,,,,,,,
30562,note_on,,,,,22,0,1,,,,,0,,,81,0
30562,note_on,,,,,0,0,1,,,,,0,,,74,0
30562,note_on,,,,,0,0,2,,,,,0,,,62,0
30562,note_on,,,,,22,0,2,,,,,0,,,66,0
30565,control_change,,,,,3,0,1,,,,,0,64,0,,
30565,set_tempo,,,,,15,1,0,,1714285,,,,,,,
30570,note_on,,,,,5,0,1,,,,,0,,,74,40
30575,set_tempo,,,,,10,1,0,,1714285,,,,,,,
30580,set_tempo,,,,,5,1,0,,1714285,,,,,,,
30590,set_tempo,,,,,10,1,0,,1714285,,,,,,,
30600,set_tempo,,,,,10,1,0,,1666666,,,,,,,
30600,note_on,,,,,30,0,1,,,,,0,,,74,0
30600,note_on,,,,,0,0,1,,,,,0,,,77,49
30600,note_on,,,,,38,0,2,,,,,0,,,50,27
30600,control_change,,,,,0,0,1,,,,,0,64,95,,
30605,set_tempo,,,,,5,1,0,,1666666,,,,,,,
30610,set_tempo,,,,,5,1,0,,1621621,,,,,,,
30615,note_on,,,,,15,0,2,,,,,0,,,50,0
30615,note_on,,,,,0,0,2,,,,,0,,,53,27
30620,set_tempo,,,,,10,1,0,,1621621,,,,,,,
30625,set_tempo,,,,,5,1,0,,1621621,,,,,,,
30630,note_on,,,,,15,0,2,,,,,0,,,53,0
30630,note_on,,,,,0,0,2,,,,,0,,,56,27
30635,set_tempo,,,,,10,1,0,,1621621,,,,,,,
30640,set_tempo,,,,,5,1,0,,1621621,,,,,,,
30645,set_tempo,,,,,5,1,0,,1621621,,,,,,,
30645,note_on,,,,,0,0,2,,,,,0,,,53,30
30645,note_on,,,,,15,0,2,,,,,0,,,56,0
30655,set_tempo,,,,,10,1,0,,1621621,,,,,,,
30660,note_on,,,,,15,0,2,,,,,0,,,53,0
30660,note_on,,,,,0,0,2,,,,,0,,,50,31
30660,note_on,,,,,60,0,1,,,,,0,,,77,0
30660,note_on,,,,,0,0,1,,,,,0,,,71,41
30665,set_tempo,,,,,10,1,0,,1578947,,,,,,,
30675,note_on,,,,,15,0,2,,,,,0,,,50,0
30675,set_tempo,,,,,10,1,0,,1578947,,,,,,,
30675,note_on,,,,,0,0,2,,,,,0,,,53,33
30685,set_tempo,,,,,10,1,0,,1578947,,,,,,,
30690,note_on,,,,,15,0,2,,,,,0,,,53,0
30690,note_on,,,,,30,0,1,,,,,0,,,71,0
30690,set_tempo,,,,,5,1,0,,1578947,,,,,,,
30690,note_on,,,,,0,0,2,,,,,0,,,56,34
30705,note_on,,,,,15,0,2,,,,,0,,,56,0
30705,set_tempo,,,,,15,1,0,,1578947,,,,,,,
30705,note_on,,,,,0,0,2,,,,,0,,,53,36
30710,set_tempo,,,,,5,1,0,,1578947,,,,,,,
30715,set_tempo,,,,,5,1,0,,1538461,,,,,,,
30720,note_on,,,,,15,0,2,,,,,0,,,53,0
30720,control_change,,,,,30,0,1,,,,,0,64,0,,
30720,note_on,,,,,0,0,2,,,,,0,,,50,38
30725,set_tempo,,,,,10,1,0,,1538461,,,,,,,
30730,set_tempo,,,,,5,1,0,,1578947,,,,,,,
30735,note_on,,,,,15,0,2,,,,,0,,,50,0
30735,note_on,,,,,0,0,2,,,,,0,,,53,39
30745,set_tempo,,,,,15,1,0,,1578947,,,,,,,
30750,note_on,,,,,15,0,2,,,,,0,,,53,0
30750,note_on,,,,,0,0,2,,,,,0,,,56,38
30750,note_on,,,,,30,0,1,,,,,0,,,77,41
30755,set_tempo,,,,,10,1,0,,1578947,,,,,,,
30760,set_tempo,,,,,5,1,0,,1578947,,,,,,,
30765,set_tempo,,,,,5,1,0,,1621621,,,,,,,
30765,note_on,,,,,0,0,2,,,,,0,,,53,34
30765,note_on,,,,,15,0,2,,,,,0,,,56,0
30770,set_tempo,,,,,5,1,0,,1621621,,,,,,,
30775,set_tempo,,,,,5,1,0,,1621621,,,,,,,
30780,note_on,,,,,15,0,2,,,,,0,,,53,0
30780,note_on,,,,,0,0,1,,,,,0,,,76,52
30780,note_on,,,,,0,0,2,,,,,0,,,48,34
30780,control_change,,,,,0,0,1,,,,,0,64,95,,
30780,note_on,,,,,30,0,1,,,,,0,,,77,0
30790,set_tempo,,,,,15,1,0,,1578947,,,,,,,
30795,note_on,,,,,15,0,2,,,,,0,,,48,0
30795,note_on,,,,,0,0,2,,,,,0,,,52,34
30800,set_tempo,,,,,10,1,0,,1578947,,,,,,,
30810,note_on,,,,,15,0,2,,,,,0,,,52,0
30810,note_on,,,,,0,0,2,,,,,0,,,57,34
30815,set_tempo,,,,,15,1,0,,1578947,,,,,,,
30820,set_tempo,,,,,5,1,0,,1578947,,,,,,,
30825,note_on,,,,,15,0,2,,,,,0,,,57,0
30825,note_on,,,,,0,0,2,,,,,0,,,52,36
30830,set_tempo,,,,,10,1,0,,1578947,,,,,,,
30840,note_on,,,,,15,0,2,,,,,0,,,52,0
30840,note_on,,,,,0,0,2,,,,,0,,,48,37
30840,note_on,,,,,0,0,1,,,,,0,,,69,43
30840,note_on,,,,,60,0,1,,,,,0,,,76,0
30845,set_tempo,,,,,15,1,0,,1578947,,,,,,,
30855,note_on,,,,,15,0,2,,,,,0,,,48,0
30855,set_tempo,,,,,10,1,0,,1578947,,,,,,,
30855,note_on,,,,,0,0,2,,,,,0,,,52,39
30870,note_on,,,,,15,0,2,,,,,0,,,52,0
30870,note_on,,,,,0,0,2,,,,,0,,,57,39
30870,note_on,,,,,30,0,1,,,,,0,,,69,0
30885,set_tempo,,,,,30,1,0,,1578947,,,,,,,
30885,note_on,,,,,15,0,2,,,,,0,,,57,0
30885,note_on,,,,,0,0,2,,,,,0,,,52,39
30900,control_change,,,,,30,0,1,,,,,0,64,0,,
30900,note_on,,,,,15,0,2,,,,,0,,,52,0
30900,note_on,,,,,0,0,2,,,,,0,,,48,37
30915,note_on,,,,,0,0,2,,,,,0,,,52,34
30915,note_on,,,,,15,0,2,,,,,0,,,48,0
30920,set_tempo,,,,,35,1,0,,1578947,,,,,,,
30925,set_tempo,,,,,5,1,0,,1578947,,,,,,,
30930,note_on,,,,,15,0,2,,,,,0,,,52,0
30930,set_tempo,,,,,5,1,0,,1578947,,,,,,,
30930,note_on,,,,,30,0,1,,,,,0,,,76,45
30930,note_on,,,,,0,0,2,,,,,0,,,57,34
30935,set_tempo,,,,,5,1,0,,1578947,,,,,,,
30940,set_tempo,,,,,5,1,0,,1578947,,,,,,,
30945,note_on,,,,,15,0,2,,,,,0,,,57,0
30945,note_on,,,,,0,0,2,,,,,0,,,52,34
30945,set_tempo,,,,,5,1,0,,1621621,,,,,,,
30950,set_tempo,,,,,5,1,0,,1621621,,,,,,,
30955,set_tempo,,,,,5,1,0,,1578947,,,,,,,
30957,note_on,,,,,12,0,2,,,,,0,,,52,0
30960,note_on,,,,,0,0,1,,,,,0,,,76,55
30960,note_on,,,,,3,0,2,,,,,0,,,47,35
30960,note_on,,,,,30,0,1,,,,,0,,,76,0
30960,set_tempo,,,,,5,1,0,,1578947,,,,,,,
30960,control_change,,,,,0,0,1,,,,,0,64,96,,
30965,set_tempo,,,,,5,1,0,,1578947,,,,,,,
30970,set_tempo,,,,,5,1,0,,1578947,,,,,,,
30975,note_on,,,,,15,0,2,,,,,0,,,47,0
30975,note_on,,,,,0,0,2,,,,,0,,,50,40
30980,set_tempo,,,,,10,1,0,,1578947,,,,,,,
30990,set_tempo,,,,,10,1,0,,1578947,,,,,,,
30990,note_on,,,,,15,0,2,,,,,0,,,50,0
30990,note_on,,,,,30,0,1,,,,,0,,,76,0
30990,note_on,,,,,0,0,1,,,,,0,,,76,50
30990,note_on,,,,,0,0,2,,,,,0,,,56,43
31000,set_tempo,,,,,10,1,0,,1578947,,,,,,,
31005,set_tempo,,,,,5,1,0,,1538461,,,,,,,
31005,note_on,,,,,15,0,2,,,,,0,,,56,0
31005,note_on,,,,,0,0,2,,,,,0,,,50,45
31012,note_on,,,,,22,0,1,,,,,0,,,76,0
31020,note_on,,,,,0,0,2,,,,,0,,,47,46
31020,set_tempo,,,,,15,1,0,,1538461,,,,,,,
31020,note_on,,,,,8,0,1,,,,,0,,,76,54
31020,control_change,,,,,0,0,1,,,,,0,64,0,,
31020,note_on,,,,,15,0,2,,,,,0,,,50,0
31025,set_tempo,,,,,5,1,0,,1538461,,,,,,,
31030,set_tempo,,,,,5,1,0,,1538461,,,,,,,
31035,note_on,,,,,15,0,2,,,,,0,,,47,0
31035,note_on,,,,,0,0,2,,,,,0,,,50,46
31042,note_on,,,,,22,0,1,,,,,0,,,76,0
31045,set_tempo,,,,,15,1,0,,1538461,,,,,,,
31050,note_on,,,,,0,0,2,,,,,0,,,56,46
31050,control_change,,,,,0,0,1,,,,,0,64,96,,
31050,note_on,,,,,8,0,1,,,,,0,,,76,53
31050,note_on,,,,,15,0,2,,,,,0,,,50,0
31050,set_tempo,,,,,5,1,0,,1538461,,,,,,,
31055,set_tempo,,,,,5,1,0,,1538461,,,,,,,
31065,set_tempo,,,,,10,1,0,,1538461,,,,,,,
31065,note_on,,,,,15,0,2,,,,,0,,,56,0
31065,note_on,,,,,0,0,2,,,,,0,,,50,43
31070,set_tempo,,,,,5,1,0,,1538461,,,,,,,
31072,note_on,,,,,22,0,1,,,,,0,,,76,0
31080,note_on,,,,,8,0,1,,,,,0,,,75,52
31080,note_on,,,,,0,0,2,,,,,0,,,47,39
31080,note_on,,,,,15,0,2,,,,,0,,,50,0
31085,set_tempo,,,,,15,1,0,,1578947,,,,,,,
31090,set_tempo,,,,,5,1,0,,1578947,,,,,,,
31095,note_on,,,,,0,0,2,,,,,0,,,50,38
31095,note_on,,,,,15,0,1,,,,,0,,,75,0
31095,note_on,,,,,0,0,1,,,,,0,,,76,50
31095,set_tempo,,,,,5,1,0,,1621621,,,,,,,
31095,note_on,,,,,15,0,2,,,,,0,,,47,0
31100,set_tempo,,,,,5,1,0,,1621621,,,,,,,
31105,set_tempo,,,,,5,1,0,,1621621,,,,,,,
31110,note_on,,,,,15,0,2,,,,,0,,,50,0
31110,note_on,,,,,0,0,2,,,,,0,,,56,34
31110,note_on,,,,,0,0,1,,,,,0,,,77,57
31110,note_on,,,,,15,0,1,,,,,0,,,76,0
31110,set_tempo,,,,,5,1,0,,1666666,,,,,,,
31115,set_tempo,,,,,5,1,0,,1714285,,,,,,,
31120,set_tempo,,,,,5,1,0,,1714285,,,,,,,
31125,note_on,,,,,0,0,2,,,,,0,,,50,33
31125,note_on,,,,,15,0,2,,,,,0,,,56,0
31125,note_on,,,,,0,0,1,,,,,0,,,76,62
31125,note_on,,,,,15,0,1,,,,,0,,,77,0
31135,control_change,,,,,10,0,1,,,,,0,64,0,,
31140,note_on,,,,,0,0,2,,,,,0,,,48,32
31140,note_on,,,,,15,0,2,,,,,0,,,50,0
31140,note_on,,,,,5,0,1,,,,,0,,,76,0
31140,note_on,,,,,0,0,1,,,,,0,,,76,66
31140,control_change,,,,,0,0,1,,,,,0,64,95,,
31155,note_on,,,,,0,0,2,,,,,0,,,52,33
31155,note_on,,,,,15,0,2,,,,,0,,,48,0
31170,note_on,,,,,15,0,2,,,,,0,,,52,0
31170,note_on,,,,,0,0,2,,,,,0,,,57,31
31185,note_on,,,,,0,0,2,,,,,0,,,52,29
31185,note_on,,,,,15,0,2,,,,,0,,,57,0
31195,set_tempo,,,,,75,1,0,,1714285,,,,,,,
31200,note_on,,,,,0,0,1,,,,,0,,,69,38
31200,set_tempo,,,,,5,1,0,,1666666,,,,,,,
31200,note_on,,,,,15,0,2,,,,,0,,,52,0
31200,note_on,,,,,0,0,2,,,,,0,,,48,29
31200,note_on,,,,,60,0,1,,,,,0,,,76,0
31205,control_change,,,,,5,0,1,,,,,0,64,0,,
31205,set_tempo,,,,,5,1,0,,1666666,,,,,,,
31215,set_tempo,,,,,10,1,0,,1666666,,,,,,,
31215,note_on,,,,,15,0,2,,,,,0,,,48,0
31215,note_on,,,,,0,0,2,,,,,0,,,52,29
31220,set_tempo,,,,,5,1,0,,1666666,,,,,,,
31225,set_tempo,,,,,5,1,0,,1666666,,,,,,,
31230,note_on,,,,,0,0,2,,,,,0,,,57,29
31230,note_on,,,,,15,0,2,,,,,0,,,52,0
31245,note_on,,,,,0,0,2,,,,,0,,,52,29
31245,note_on,,,,,15,0,2,,,,,0,,,57,0
31252,note_on,,,,,47,0,1,,,,,0,,,69,0
31255,set_tempo,,,,,30,1,0,,1666666,,,,,,,
31260,note_on,,,,,0,0,2,,,,,0,,,48,29
31260,note_on,,,,,15,0,2,,,,,0,,,52,0
31260,control_change,,,,,8,0,1,,,,,0,64,95,,
31265,set_tempo,,,,,10,1,0,,1621621,,,,,,,
31270,set_tempo,,,,,5,1,0,,1621621,,,,,,,
31275,note_on,,,,,0,0,2,,,,,0,,,52,29
31275,note_on,,,,,15,0,2,,,,,0,,,48,0
31285,set_tempo,,,,,15,1,0,,1621621,,,,,,,
31290,note_on,,,,,0,0,2,,,,,0,,,57,29
31290,note_on,,,,,15,0,2,,,,,0,,,52,0
31290,note_on,,,,,30,0,1,,,,,0,,,76,43
31290,set_tempo,,,,,5,1,0,,1578947,,,,,,,
31300,set_tempo,,,,,10,1,0,,1578947,,,,,,,
31305,note_on,,,,,15,0,2,,,,,0,,,57,0
31305,note_on,,,,,0,0,2,,,,,0,,,52,29
31315,control_change,,,,,25,0,1,,,,,0,64,0,,
31320,control_change,,,,,0,0,1,,,,,0,64,95,,
31320,note_on,,,,,0,0,1,,,,,0,,,77,47
31320,note_on,,,,,5,0,1,,,,,0,,,76,0
31320,set_tempo,,,,,20,1,0,,1666666,,,,,,,
31320,note_on,,,,,15,0,2,,,,,0,,,52,0
31320,note_on,,,,,0,0,2,,,,,0,,,50,29
31325,set_tempo,,,,,5,1,0,,1666666,,,,,,,
31330,set_tempo,,,,,5,1,0,,1621621,,,,,,,
31335,note_on,,,,,0,0,2,,,,,0,,,53,29
31335,note_on,,,,,15,0,2,,,,,0,,,50,0
31340,set_tempo,,,,,10,1,0,,1621621,,,,,,,
31345,set_tempo,,,,,5,1,0,,1621621,,,,,,,
31350,note_on,,,,,15,0,2,,,,,0,,,53,0
31350,note_on,,,,,0,0,2,,,,,0,,,59,29
31355,set_tempo,,,,,10,1,0,,1621621,,,,,,,
31360,set_tempo,,,,,5,1,0,,1621621,,,,,,,
31365,note_on,,,,,0,0,2,,,,,0,,,53,29
31365,note_on,,,,,15,0,2,,,,,0,,,59,0
31365,set_tempo,,,,,5,1,0,,1621621,,,,,,,
31375,set_tempo,,,,,10,1,0,,1621621,,,,,,,
31380,note_on,,,,,60,0,1,,,,,0,,,77,0
31380,note_on,,,,,15,0,2,,,,,0,,,53,0
31380,note_on,,,,,0,0,2,,,,,0,,,50,29
31380,note_on,,,,,0,0,1,,,,,0,,,68,41
31385,set_tempo,,,,,10,1,0,,1578947,,,,,,,
31395,note_on,,,,,15,0,2,,,,,0,,,50,0
31395,note_on,,,,,0,0,2,,,,,0,,,53,29
31395,set_tempo,,,,,10,1,0,,1578947,,,,,,,
31405,set_tempo,,,,,10,1,0,,1578947,,,,,,,
31410,set_tempo,,,,,5,1,0,,1578947,,,,,,,
31410,note_on,,,,,30,0,1,,,,,0,,,68,0
31410,note_on,,,,,15,0,2,,,,,0,,,53,0
31410,note_on,,,,,0,0,2,,,,,0,,,59,29
31425,set_tempo,,,,,15,1,0,,1578947,,,,,,,
31425,note_on,,,,,15,0,2,,,,,0,,,59,0
31425,note_on,,,,,0,0,2,,,,,0,,,53,29
31430,set_tempo,,,,,5,1,0,,1578947,,,,,,,
31435,set_tempo,,,,,5,1,0,,1538461,,,,,,,
31440,note_on,,,,,0,0,2,,,,,0,,,50,29
31440,note_on,,,,,15,0,2,,,,,0,,,53,0
31440,control_change,,,,,30,0,1,,,,,0,64,0,,
31445,set_tempo,,,,,10,1,0,,1538461,,,,,,,
31450,set_tempo,,,,,5,1,0,,1578947,,,,,,,
31455,note_on,,,,,0,0,2,,,,,0,,,53,29
31455,note_on,,,,,15,0,2,,,,,0,,,50,0
31465,set_tempo,,,,,15,1,0,,1578947,,,,,,,
31470,note_on,,,,,15,0,2,,,,,0,,,53,0
31470,note_on,,,,,0,0,2,,,,,0,,,59,30
31470,note_on,,,,,30,0,1,,,,,0,,,77,43
31475,set_tempo,,,,,10,1,0,,1578947,,,,,,,
31480,set_tempo,,,,,5,1,0,,1578947,,,,,,,
31485,note_on,,,,,0,0,2,,,,,0,,,53,30
31485,note_on,,,,,15,0,2,,,,,0,,,59,0
31485,set_tempo,,,,,5,1,0,,1621621,,,,,,,
31490,set_tempo,,,,,5,1,0,,1621621,,,,,,,
31495,set_tempo,,,,,5,1,0,,1621621,,,,,,,
31500,control_change,,,,,0,0,1,,,,,0,64,95,,
31500,note_on,,,,,0,0,1,,,,,0,,,76,46
31500,note_on,,,,,0,0,2,,,,,0,,,49,31
31500,note_on,,,,,30,0,1,,,,,0,,,77,0
31500,note_on,,,,,15,0,2,,,,,0,,,53,0
31510,set_tempo,,,,,15,1,0,,1578947,,,,,,,
31515,note_on,,,,,15,0,2,,,,,0,,,49,0
31515,note_on,,,,,0,0,2,,,,,0,,,52,32
31520,set_tempo,,,,,10,1,0,,1578947,,,,,,,
31530,note_on,,,,,15,0,2,,,,,0,,,52,0
31530,note_on,,,,,0,0,2,,,,,0,,,57,32
31535,set_tempo,,,,,15,1,0,,1578947,,,,,,,
31540,set_tempo,,,,,5,1,0,,1578947,,,,,,,
31545,note_on,,,,,15,0,2,,,,,0,,,57,0
31545,note_on,,,,,0,0,2,,,,,0,,,52,34
31550,set_tempo,,,,,10,1,0,,1578947,,,,,,,
31560,note_on,,,,,15,0,2,,,,,0,,,52,0
31560,note_on,,,,,0,0,2,,,,,0,,,49,35
31560,note_on,,,,,0,0,1,,,,,0,,,69,38
31560,note_on,,,,,60,0,1,,,,,0,,,76,0
31565,set_tempo,,,,,15,1,0,,1578947,,,,,,,
31575,note_on,,,,,15,0,2,,,,,0,,,49,0
31575,note_on,,,,,0,0,2,,,,,0,,,52,35
31575,set_tempo,,,,,10,1,0,,1578947,,,,,,,
31590,note_on,,,,,30,0,1,,,,,0,,,69,0
31590,note_on,,,,,0,0,2,,,,,0,,,57,36
31590,note_on,,,,,15,0,2,,,,,0,,,52,0
31605,set_tempo,,,,,30,1,0,,1578947,,,,,,,
31605,note_on,,,,,0,0,2,,,,,0,,,52,37
31605,note_on,,,,,15,0,2,,,,,0,,,57,0
31620,note_on,,,,,0,0,2,,,,,0,,,49,39
31620,note_on,,,,,15,0,2,,,,,0,,,52,0
31620,control_change,,,,,30,0,1,,,,,0,64,0,,
31635,note_on,,,,,0,0,2,,,,,0,,,52,35
31635,note_on,,,,,15,0,2,,,,,0,,,49,0
31640,set_tempo,,,,,35,1,0,,1578947,,,,,,,
31645,set_tempo,,,,,5,1,0,,1578947,,,,,,,
31650,note_on,,,,,15,0,2,,,,,0,,,52,0
31650,note_on,,,,,0,0,2,,,,,0,,,57,33
31650,note_on,,,,,30,0,1,,,,,0,,,76,35
31650,set_tempo,,,,,5,1,0,,1578947,,,,,,,
31655,set_tempo,,,,,5,1,0,,1578947,,,,,,,
31660,set_tempo,,,,,5,1,0,,1578947,,,,,,,
31665,note_on,,,,,15,0,2,,,,,0,,,57,0
31665,note_on,,,,,0,0,2,,,,,0,,,52,31
31665,set_tempo,,,,,5,1,0,,1621621,,,,,,,
31670,set_tempo,,,,,5,1,0,,1621621,,,,,,,
31675,set_tempo,,,,,5,1,0,,1578947,,,,,,,
31677,note_on,,,,,12,0,2,,,,,0,,,52,0
31680,note_on,,,,,3,0,2,,,,,0,,,47,33
31680,control_change,,,,,0,0,1,,,,,0,64,96,,
31680,note_on,,,,,0,0,1,,,,,0,,,76,35
31680,note_on,,,,,30,0,1,,,,,0,,,76,0
31680,set_tempo,,,,,5,1,0,,1578947,,,,,,,
31685,set_tempo,,,,,5,1,0,,1578947,,,,,,,
31690,set_tempo,,,,,5,1,0,,1578947,,,,,,,
31695,note_on,,,,,15,0,2,,,,,0,,,47,0
31695,note_on,,,,,0,0,2,,,,,0,,,50,35
31700,set_tempo,,,,,10,1,0,,1578947,,,,,,,
31710,set_tempo,,,,,10,1,0,,1578947,,,,,,,
31710,note_on,,,,,0,0,2,,,,,0,,,56,36
31710,note_on,,,,,15,0,2,,,,,0,,,50,0
31710,note_on,,,,,0,0,1,,,,,0,,,76,37
31710,note_on,,,,,30,0,1,,,,,0,,,76,0
31720,set_tempo,,,,,10,1,0,,1578947,,,,,,,
31725,set_tempo,,,,,5,1,0,,1538461,,,,,,,
31725,note_on,,,,,0,0,2,,,,,0,,,50,36
31725,note_on,,,,,15,0,2,,,,,0,,,56,0
31732,note_on,,,,,22,0,1,,,,,0,,,76,0
31735,set_tempo,,,,,10,1,0,,1538461,,,,,,,
31740,note_on,,,,,8,0,1,,,,,0,,,76,38
31740,note_on,,,,,15,0,2,,,,,0,,,50,0
31740,note_on,,,,,0,0,2,,,,,0,,,47,37
31740,set_tempo,,,,,5,1,0,,1538461,,,,,,,
31755,note_on,,,,,0,0,2,,,,,0,,,50,38
31755,set_tempo,,,,,15,1,0,,1578947,,,,,,,
31755,note_on,,,,,15,0,2,,,,,0,,,47,0
31762,note_on,,,,,22,0,1,,,,,0,,,76,0
31770,note_on,,,,,0,0,2,,,,,0,,,56,35
31770,note_on,,,,,15,0,2,,,,,0,,,50,0
31770,note_on,,,,,8,0,1,,,,,0,,,76,42
31775,set_tempo,,,,,20,1,0,,1578947,,,,,,,
31780,set_tempo,,,,,5,1,0,,1578947,,,,,,,
31785,note_on,,,,,15,0,2,,,,,0,,,56,0
31785,set_tempo,,,,,5,1,0,,1578947,,,,,,,
31785,note_on,,,,,0,0,2,,,,,0,,,50,34
31790,set_tempo,,,,,5,1,0,,1621621,,,,,,,
31792,note_on,,,,,22,0,1,,,,,0,,,76,0
31795,set_tempo,,,,,5,1,0,,1621621,,,,,,,
31800,control_change,,,,,0,0,1,,,,,0,64,0,,
31800,note_on,,,,,8,0,1,,,,,0,,,75,44
31800,note_on,,,,,15,0,2,,,,,0,,,50,0
31800,note_on,,,,,0,0,2,,,,,0,,,47,32
31805,set_tempo,,,,,10,1,0,,1621621,,,,,,,
31810,set_tempo,,,,,5,1,0,,1621621,,,,,,,
31815,set_tempo,,,,,5,1,0,,1666666,,,,,,,
31815,note_on,,,,,0,0,1,,,,,0,,,76,45
31815,note_on,,,,,15,0,1,,,,,0,,,75,0
31815,note_on,,,,,15,0,2,,,,,0,,,47,0
31815,note_on,,,,,0,0,2,,,,,0,,,50,31
31820,set_tempo,,,,,5,1,0,,1714285,,,,,,,
31825,set_tempo,,,,,5,1,0,,1714285,,,,,,,
31830,note_on,,,,,0,0,1,,,,,0,,,78,46
31830,note_on,,,,,15,0,1,,,,,0,,,76,0
31830,note_on,,,,,0,0,2,,,,,0,,,56,31
31830,set_tempo,,,,,5,1,0,,1764705,,,,,,,
31830,note_on,,,,,15,0,2,,,,,0,,,50,0
31835,set_tempo,,,,,5,1,0,,1764705,,,,,,,
31840,set_tempo,,,,,5,1,0,,1818181,,,,,,,
31845,note_on,,,,,15,0,2,,,,,0,,,56,0
31845,note_on,,,,,0,0,2,,,,,0,,,50,30
31845,note_on,,,,,15,0,1,,,,,0,,,78,0
31845,note_on,,,,,0,0,1,,,,,0,,,76,47
31850,set_tempo,,,,,10,1,0,,1818181,,,,,,,
31855,set_tempo,,,,,5,1,0,,2222222,,,,,,,
31860,note_on,,,,,0,0,1,,,,,0,,,76,43
31860,note_on,,,,,15,0,2,,,,,0,,,50,0
31860,note_on,,,,,0,0,2,,,,,0,,,46,29
31860,control_change,,,,,0,0,1,,,,,0,64,96,,
31860,note_on,,,,,15,0,1,,,,,0,,,76,0
31860,set_tempo,,,,,5,1,0,,1666666,,,,,,,
31865,set_tempo,,,,,5,1,0,,1666666,,,,,,,
31870,set_tempo,,,,,5,1,0,,1666666,,,,,,,
31875,note_on,,,,,0,0,2,,,,,0,,,50,28
31875,note_on,,,,,15,0,2,,,,,0,,,46,0
31875,set_tempo,,,,,5,1,0,,1714285,,,,,,,
31880,set_tempo,,,,,5,1,0,,1714285,,,,,,,
31890,note_on,,,,,15,0,2,,,,,0,,,50,0
31890,set_tempo,,,,,10,1,0,,1714285,,,,,,,
31890,note_on,,,,,30,0,1,,,,,0,,,76,0
31890,note_on,,,,,0,0,1,,,,,0,,,76,40
31890,note_on,,,,,0,0,2,,,,,0,,,55,28
31895,set_tempo,,,,,5,1,0,,1714285,,,,,,,
31900,set_tempo,,,,,5,1,0,,1714285,,,,,,,
31905,note_on,,,,,15,0,2,,,,,0,,,55,0
31905,note_on,,,,,0,0,2,,,,,0,,,50,27
31905,set_tempo,,,,,5,1,0,,1764705,,,,,,,
31910,set_tempo,,,,,5,1,0,,1764705,,,,,,,
31912,note_on,,,,,22,0,1,,,,,0,,,76,0
31915,set_tempo,,,,,5,1,0,,1764705,,,,,,,
31920,set_tempo,,,,,5,1,0,,1764705,,,,,,,
31920,note_on,,,,,15,0,2,,,,,0,,,50,0
31920,note_on,,,,,0,0,2,,,,,0,,,46,27
31920,note_on,,,,,8,0,1,,,,,0,,,76,38
31930,set_tempo,,,,,10,1,0,,1764705,,,,,,,
31935,set_tempo,,,,,5,1,0,,1818181,,,,,,,
31935,note_on,,,,,15,0,2,,,,,0,,,46,0
31935,note_on,,,,,0,0,2,,,,,0,,,50,28
31940,set_tempo,,,,,5,1,0,,1818181,,,,,,,
31942,note_on,,,,,22,0,1,,,,,0,,,76,0
31945,set_tempo,,,,,5,1,0,,1818181,,,,,,,
31950,note_on,,,,,8,0,1,,,,,0,,,76,36
31950,note_on,,,,,15,0,2,,,,,0,,,50,0
31950,note_on,,,,,0,0,2,,,,,0,,,55,28
31955,set_tempo,,,,,10,1,0,,1875000,,,,,,,
31960,set_tempo,,,,,5,1,0,,1875000,,,,,,,
31965,note_on,,,,,15,0,2,,,,,0,,,55,0
31965,note_on,,,,,0,0,2,,,,,0,,,50,28
31970,set_tempo,,,,,10,1,0,,1935483,,,,,,,
31972,note_on,,,,,22,0,1,,,,,0,,,76,0
31975,set_tempo,,,,,5,1,0,,1935483,,,,,,,
31980,note_on,,,,,8,0,1,,,,,0,,,76,36
31980,note_on,,,,,0,0,2,,,,,0,,,46,28
31980,note_on,,,,,15,0,2,,,,,0,,,50,0
31980,set_tempo,,,,,5,1,0,,1935483,,,,,,,
31990,set_tempo,,,,,10,1,0,,2000000,,,,,,,
31995,set_tempo,,,,,5,1,0,,2000000,,,,,,,
31995,note_on,,,,,0,0,2,,,,,0,,,50,28
31995,note_on,,,,,15,0,2,,,,,0,,,46,0
32000,set_tempo,,,,,5,1,0,,2000000,,,,,,,
32002,note_on,,,,,22,0,1,,,,,0,,,76,0
32005,set_tempo,,,,,5,1,0,,2000000,,,,,,,
32010,note_on,,,,,8,0,1,,,,,0,,,76,36
32010,set_tempo,,,,,5,1,0,,2000000,,,,,,,
32010,note_on,,,,,15,0,2,,,,,0,,,50,0
32010,note_on,,,,,0,0,2,,,,,0,,,55,28
32015,set_tempo,,,,,5,1,0,,2000000,,,,,,,
32025,note_on,,,,,0,0,2,,,,,0,,,50,28
32025,note_on,,,,,15,0,2,,,,,0,,,55,0
32025,set_tempo,,,,,10,1,0,,2000000,,,,,,,
32030,set_tempo,,,,,5,1,0,,2000000,,,,,,,
32032,note_on,,,,,22,0,1,,,,,0,,,76,0
32035,control_change,,,,,3,0,1,,,,,0,64,0,,
32035,set_tempo,,,,,5,1,0,,2068965,,,,,,,
32040,note_on,,,,,15,0,2,,,,,0,,,50,0
32040,note_on,,,,,0,0,2,,,,,0,,,49,28
32040,note_on,,,,,0,0,2,,,,,0,,,45,28
32040,note_on,,,,,5,0,1,,,,,0,,,76,37
32040,control_change,,,,,0,0,1,,,,,0,64,95,,
32040,note_on,,,,,0,0,2,,,,,0,,,55,28
32045,set_tempo,,,,,10,1,0,,2068965,,,,,,,
32050,set_tempo,,,,,5,1,0,,2068965,,,,,,,
32055,set_tempo,,,,,5,1,0,,2068965,,,,,,,
32060,set_tempo,,,,,5,1,0,,2068965,,,,,,,
32070,set_tempo,,,,,10,1,0,,2068965,,,,,,,
32070,note_on,,,,,0,0,1,,,,,0,,,78,36
32070,note_on,,,,,30,0,1,,,,,0,,,76,0
32075,set_tempo,,,,,5,1,0,,2068965,,,,,,,
32080,set_tempo,,,,,5,1,0,,2142857,,,,,,,
32100,set_tempo,,,,,20,1,0,,2142857,,,,,,,
32100,note_on,,,,,0,0,1,,,,,0,,,79,35
32100,note_on,,,,,30,0,1,,,,,0,,,78,0
32130,set_tempo,,,,,30,1,0,,2142857,,,,,,,
32130,note_on,,,,,0,0,1,,,,,0,,,78,34
32130,note_on,,,,,30,0,1,,,,,0,,,79,0
32135,set_tempo,,,,,5,1,0,,2142857,,,,,,,
32150,set_tempo,,,,,15,1,0,,2142857,,,,,,,
32160,note_on,,,,,0,0,1,,,,,0,,,76,33
32160,note_on,,,,,30,0,1,,,,,0,,,78,0
32180,set_tempo,,,,,30,1,0,,2142857,,,,,,,
32185,set_tempo,,,,,5,1,0,,2142857,,,,,,,
32190,note_on,,,,,0,0,1,,,,,0,,,74,31
32190,note_on,,,,,0,0,2,,,,,0,,,50,28
32190,note_on,,,,,150,0,2,,,,,0,,,49,0
32190,note_on,,,,,30,0,1,,,,,0,,,76,0
32195,set_tempo,,,,,10,1,0,,2142857,,,,,,,
32205,set_tempo,,,,,10,1,0,,3000000,,,,,,,
32220,note_on,,,,,0,0,2,,,,,0,,,55,28
32220,note_on,,,,,30,0,1,,,,,0,,,74,0
32220,note_on,,,,,0,0,1,,,,,0,,,74,29
32220,set_tempo,,,,,15,1,0,,2400000,,,,,,,
32220,note_on,,,,,0,0,2,,,,,0,,,52,28
32220,note_on,,,,,0,0,2,,,,,0,,,55,0
32220,note_on,,,,,0,0,2,,,,,0,,,45,0
32220,note_on,,,,,30,0,2,,,,,0,,,50,0
32220,note_on,,,,,0,0,2,,,,,0,,,45,28
32235,note_on,,,,,15,0,1,,,,,0,,,74,0
32235,note_on,,,,,0,0,1,,,,,0,,,73,29
32250,note_on,,,,,15,0,1,,,,,0,,,73,0
32250,note_on,,,,,0,0,1,,,,,0,,,76,29
32265,note_on,,,,,0,0,1,,,,,0,,,74,28
32265,note_on,,,,,15,0,1,,,,,0,,,76,0
32280,note_on,,,,,0,0,1,,,,,0,,,73,26
32280,note_on,,,,,15,0,1,,,,,0,,,74,0
32340,note_on,,,,,60,0,1,,,,,0,,,73,0
32340,note_on,,,,,120,0,2,,,,,0,,,45,0
32340,note_on,,,,,0,0,2,,,,,0,,,52,0
32340,note_on,,,,,0,0,2,,,,,0,,,55,0
32400,set_tempo,,,,,0,1,0,,1428571,,,,,,,
32400,key_signature,,,,,180,1,0,D,,,,,,,,
32440,set_tempo,,,,,40,1,0,,1428571,,,,,,,
32485,set_tempo,,,,,45,1,0,,1428571,,,,,,,
32490,control_change,,,,,150,0,1,,,,,0,91,96,,
32490,note_on,,,,,0,0,1,,,,,0,,,57,28
32490,note_on,,,,,0,0,1,,,,,0,,,69,28
32520,note_on,,,,,0,0,1,,,,,0,,,59,33
32520,note_on,,,,,0,0,1,,,,,0,,,71,33
32520,note_on,,,,,0,0,1,,,,,0,,,69,0
32520,note_on,,,,,30,0,1,,,,,0,,,57,0
32525,set_tempo,,,,,40,1,0,,1395348,,,,,,,
32530,set_tempo,,,,,5,1,0,,1395348,,,,,,,
32540,set_tempo,,,,,10,1,0,,1395348,,,,,,,
32550,set_tempo,,,,,10,1,0,,1395348,,,,,,,
32550,note_on,,,,,0,0,1,,,,,0,,,71,0
32550,note_on,,,,,30,0,1,,,,,0,,,59,0
32550,note_on,,,,,0,0,1,,,,,0,,,61,39
32550,note_on,,,,,0,0,1,,,,,0,,,73,39
32560,set_tempo,,,,,10,1,0,,1395348,,,,,,,
32565,set_tempo,,,,,5,1,0,,1395348,,,,,,,
32580,note_on,,,,,240,0,2,,,,,0,,,50,37
32580,note_on,,,,,0,0,2,,,,,0,,,54,37
32580,note_on,,,,,0,0,1,,,,,0,,,62,43
32580,note_on,,,,,0,0,1,,,,,0,,,73,0
32580,note_on,,,,,30,0,1,,,,,0,,,61,0
32580,control_change,,,,,0,0,1,,,,,0,64,96,,
32580,note_on,,,,,0,0,1,,,,,0,,,74,43
32595,set_tempo,,,,,30,1,0,,1363636,,,,,,,
32600,set_tempo,,,,,5,1,0,,1363636,,,,,,,
32610,set_tempo,,,,,10,1,0,,1363636,,,,,,,
32615,set_tempo,,,,,5,1,0,,1395348,,,,,,,
32620,set_tempo,,,,,5,1,0,,1395348,,,,,,,
32635,set_tempo,,,,,15,1,0,,1395348,,,,,,,
32645,set_tempo,,,,,10,1,0,,1395348,,,,,,,
32655,set_tempo,,,,,10,1,0,,1395348,,,,,,,
32670,set_tempo,,,,,15,1,0,,1395348,,,,,,,
32690,set_tempo,,,,,20,1,0,,1395348,,,,,,,
32700,control_change,,,,,120,0,1,,,,,0,64,0,,
32700,set_tempo,,,,,10,1,0,,1395348,,,,,,,
32705,set_tempo,,,,,5,1,0,,1395348,,,,,,,
32715,set_tempo,,,,,10,1,0,,1428571,,,,,,,
32730,note_on,,,,,0,0,1,,,,,0,,,73,36
32730,note_on,,,,,30,0,1,,,,,0,,,62,0
32730,set_tempo,,,,,15,1,0,,1428571,,,,,,,
32730,note_on,,,,,0,0,1,,,,,0,,,74,0
32745,note_on,,,,,0,0,1,,,,,0,,,71,34
32745,note_on,,,,,15,0,1,,,,,0,,,73,0
32745,set_tempo,,,,,15,1,0,,1428571,,,,,,,
32760,note_on,,,,,0,0,2,,,,,0,,,50,0
32760,note_on,,,,,180,0,2,,,,,0,,,54,0
32760,control_change,,,,,0,0,1,,,,,0,64,96,,
32760,note_on,,,,,0,0,1,,,,,0,,,57,32
32760,note_on,,,,,15,0,1,,,,,0,,,71,0
32760,set_tempo,,,,,15,1,0,,1428571,,,,,,,
32760,note_on,,,,,0,0,1,,,,,0,,,69,32
32760,note_on,,,,,0,0,2,,,,,0,,,52,35
32760,note_on,,,,,0,0,2,,,,,0,,,49,35
32820,note_on,,,,,60,0,1,,,,,0,,,69,0
32840,set_tempo,,,,,80,1,0,,1428571,,,,,,,
32850,note_on,,,,,30,0,1,,,,,0,,,69,35
32850,set_tempo,,,,,10,1,0,,1395348,,,,,,,
32870,set_tempo,,,,,20,1,0,,1395348,,,,,,,
32880,note_on,,,,,30,0,1,,,,,0,,,69,0
32880,control_change,,,,,0,0,1,,,,,0,64,0,,
32880,note_on,,,,,0,0,1,,,,,0,,,71,35
32880,set_tempo,,,,,10,1,0,,1363636,,,,,,,
32890,set_tempo,,,,,10,1,0,,1363636,,,,,,,
32910,note_on,,,,,30,0,1,,,,,0,,,71,0
32910,note_on,,,,,0,0,1,,,,,0,,,67,39
32910,note_on,,,,,0,0,1,,,,,0,,,57,0
32925,set_tempo,,,,,35,1,0,,1333333,,,,,,,
32940,note_on,,,,,0,0,2,,,,,0,,,49,0
32940,note_on,,,,,0,0,2,,,,,0,,,50,35
32940,note_on,,,,,180,0,2,,,,,0,,,52,0
32940,note_on,,,,,0,0,1,,,,,0,,,54,42
32940,note_on,,,,,0,0,1,,,,,0,,,66,42
32940,note_on,,,,,30,0,1,,,,,0,,,67,0
32970,note_on,,,,,30,0,1,,,,,0,,,66,0
32970,note_on,,,,,0,0,1,,,,,0,,,67,45
32970,set_tempo,,,,,45,1,0,,1621621,,,,,,,
32975,note_on,,,,,0,0,1,,,,,0,,,66,45
32975,note_on,,,,,5,0,1,,,,,0,,,67,0
32980,note_on,,,,,5,0,1,,,,,0,,,66,0
32980,note_on,,,,,0,0,1,,,,,0,,,64,47
32985,note_on,,,,,0,0,1,,,,,0,,,55,47
32985,note_on,,,,,0,0,1,,,,,0,,,66,47
32985,note_on,,,,,0,0,1,,,,,0,,,54,0
32985,note_on,,,,,5,0,1,,,,,0,,,64,0
32985,note_on,,,,,45,0,2,,,,,0,,,50,0
32985,note_on,,,,,0,0,2,,,,,0,,,52,38
32992,note_on,,,,,7,0,1,,,,,0,,,66,0
32992,note_on,,,,,0,0,1,,,,,0,,,67,47
33000,note_on,,,,,0,0,1,,,,,0,,,69,48
33000,note_on,,,,,0,0,1,,,,,0,,,57,48
33000,note_on,,,,,0,0,1,,,,,0,,,55,0
33000,note_on,,,,,15,0,2,,,,,0,,,52,0
33000,set_tempo,,,,,30,1,0,,1333333,,,,,,,
33000,note_on,,,,,8,0,1,,,,,0,,,67,0
33000,note_on,,,,,0,0,2,,,,,0,,,54,38
33040,set_tempo,,,,,40,1,0,,1304347,,,,,,,
33060,note_on,,,,,0,0,2,,,,,0,,,55,40
33060,note_on,,,,,60,0,1,,,,,0,,,57,0
33060,note_on,,,,,0,0,1,,,,,0,,,69,0
33060,note_on,,,,,0,0,1,,,,,0,,,71,46
33060,note_on,,,,,0,0,1,,,,,0,,,59,46
33060,note_on,,,,,0,0,2,,,,,0,,,52,40
33060,note_on,,,,,60,0,2,,,,,0,,,54,0
33060,set_tempo,,,,,20,1,0,,1304347,,,,,,,
33090,note_on,,,,,30,0,1,,,,,0,,,59,0
33090,note_on,,,,,0,0,1,,,,,0,,,71,0
33090,note_on,,,,,0,0,1,,,,,0,,,73,43
33090,note_on,,,,,0,0,1,,,,,0,,,61,43
33095,set_tempo,,,,,35,1,0,,1304347,,,,,,,
33100,set_tempo,,,,,5,1,0,,1304347,,,,,,,
33105,set_tempo,,,,,5,1,0,,1333333,,,,,,,
33120,note_on,,,,,0,0,2,,,,,0,,,52,42
33120,control_change,,,,,0,0,1,,,,,0,64,96,,
33120,note_on,,,,,0,0,1,,,,,0,,,61,38
33120,note_on,,,,,0,0,1,,,,,0,,,73,38
33120,note_on,,,,,0,0,1,,,,,0,,,73,0
33120,note_on,,,,,30,0,1,,,,,0,,,61,0
33120,note_on,,,,,0,0,2,,,,,0,,,52,0
33120,note_on,,,,,0,0,2,,,,,0,,,50,42
33120,note_on,,,,,0,0,2,,,,,0,,,55,42
33120,note_on,,,,,60,0,2,,,,,0,,,55,0
33125,set_tempo,,,,,20,1,0,,1333333,,,,,,,
33140,set_tempo,,,,,15,1,0,,1363636,,,,,,,
33145,set_tempo,,,,,5,1,0,,1363636,,,,,,,
33150,set_tempo,,,,,5,1,0,,1395348,,,,,,,
33165,set_tempo,,,,,15,1,0,,1395348,,,,,,,
33175,set_tempo,,,,,10,1,0,,1428571,,,,,,,
33180,note_on,,,,,60,0,2,,,,,0,,,52,0
33180,note_on,,,,,0,0,2,,,,,0,,,54,36
33180,note_on,,,,,0,0,2,,,,,0,,,55,0
33180,note_on,,,,,60,0,1,,,,,0,,,61,0
33180,note_on,,,,,0,0,1,,,,,0,,,62,37
33180,note_on,,,,,0,0,1,,,,,0,,,74,37
33180,note_on,,,,,0,0,1,,,,,0,,,73,0
33185,set_tempo,,,,,10,1,0,,1428571,,,,,,,
33190,set_tempo,,,,,5,1,0,,1463414,,,,,,,
33195,note_on,,,,,0,0,1,,,,,0,,,74,0
33195,note_on,,,,,15,0,1,,,,,0,,,62,0
33200,set_tempo,,,,,10,1,0,,1500000,,,,,,,
33205,set_tempo,,,,,5,1,0,,1500000,,,,,,,
33210,control_change,,,,,0,0,1,,,,,0,64,0,,
33210,note_on,,,,,15,0,1,,,,,0,,,74,39
33210,note_on,,,,,0,0,1,,,,,0,,,62,39
33215,set_tempo,,,,,10,1,0,,1500000,,,,,,,
33225,set_tempo,,,,,10,1,0,,1500000,,,,,,,
33230,set_tempo,,,,,5,1,0,,1500000,,,,,,,
33240,note_on,,,,,0,0,2,,,,,0,,,50,0
33240,note_on,,,,,0,0,1,,,,,0,,,74,0
33240,note_on,,,,,0,0,1,,,,,0,,,78,40
33240,note_on,,,,,0,0,1,,,,,0,,,66,40
33240,note_on,,,,,60,0,2,,,,,0,,,54,0
33240,note_on,,,,,30,0,1,,,,,0,,,62,0
33240,set_tempo,,,,,10,1,0,,1538461,,,,,,,
33245,set_tempo,,,,,5,1,0,,1538461,,,,,,,
33250,set_tempo,,,,,5,1,0,,1538461,,,,,,,
33255,set_tempo,,,,,5,1,0,,1538461,,,,,,,
33260,set_tempo,,,,,5,1,0,,1538461,,,,,,,
33265,set_tempo,,,,,5,1,0,,1578947,,,,,,,
33270,note_on,,,,,30,0,1,,,,,0,,,66,0
33270,note_on,,,,,0,0,1,,,,,0,,,69,43
33270,note_on,,,,,0,0,1,,,,,0,,,78,0
33270,note_on,,,,,0,0,1,,,,,0,,,81,43
33270,set_tempo,,,,,5,1,0,,1578947,,,,,,,
33280,set_tempo,,,,,10,1,0,,1578947,,,,,,,
33285,set_tempo,,,,,5,1,0,,1578947,,,,,,,
33300,note_on,,,,,0,0,2,,,,,0,,,62,49
33300,control_change,,,,,0,0,1,,,,,0,64,96,,
33300,note_on,,,,,0,0,1,,,,,0,,,83,49
33300,note_on,,,,,0,0,1,,,,,0,,,71,49
33300,note_on,,,,,0,0,1,,,,,0,,,81,0
33300,note_on,,,,,30,0,1,,,,,0,,,69,0
33300,note_on,,,,,60,0,2,,,,,0,,,60,49
33305,set_tempo,,,,,20,1,0,,1578947,,,,,,,
33340,set_tempo,,,,,35,1,0,,1621621,,,,,,,
33370,set_tempo,,,,,30,1,0,,1621621,,,,,,,
33390,control_change,,,,,0,0,1,,,,,0,64,0,,
33390,note_on,,,,,0,0,1,,,,,0,,,71,0
33390,note_on,,,,,0,0,1,,,,,0,,,69,35
33390,note_on,,,,,0,0,1,,,,,0,,,81,35
33390,set_tempo,,,,,20,1,0,,1621621,,,,,,,
33390,note_on,,,,,90,0,1,,,,,0,,,83,0
33420,set_tempo,,,,,30,1,0,,1621621,,,,,,,
33420,note_on,,,,,30,0,1,,,,,0,,,81,0
33420,note_on,,,,,0,0,1,,,,,0,,,69,0
33420,note_on,,,,,0,0,1,,,,,0,,,64,42
33420,note_on,,,,,0,0,1,,,,,0,,,76,42
33425,set_tempo,,,,,5,1,0,,1621621,,,,,,,
33435,set_tempo,,,,,10,1,0,,1621621,,,,,,,
33445,set_tempo,,,,,10,1,0,,1621621,,,,,,,
33450,note_on,,,,,0,0,1,,,,,0,,,78,47
33450,note_on,,,,,30,0,1,,,,,0,,,76,0
33450,note_on,,,,,0,0,1,,,,,0,,,66,47
33450,note_on,,,,,0,0,1,,,,,0,,,64,0
33475,set_tempo,,,,,30,1,0,,1666666,,,,,,,
33480,note_on,,,,,0,0,1,,,,,0,,,69,48
33480,note_on,,,,,0,0,2,,,,,0,,,62,36
33480,note_on,,,,,0,0,2,,,,,0,,,59,36
33480,note_on,,,,,0,0,1,,,,,0,,,66,0
33480,note_on,,,,,30,0,1,,,,,0,,,78,0
33480,note_on,,,,,0,0,2,,,,,0,,,60,0
33480,note_on,,,,,180,0,2,,,,,0,,,62,0
33480,note_on,,,,,0,0,1,,,,,0,,,81,48
33480,control_change,,,,,0,0,1,,,,,0,64,96,,
33485,set_tempo,,,,,10,1,0,,1666666,,,,,,,
33495,set_tempo,,,,,10,1,0,,1666666,,,,,,,
33500,set_tempo,,,,,5,1,0,,1666666,,,,,,,
33510,set_tempo,,,,,10,1,0,,1666666,,,,,,,
33520,set_tempo,,,,,10,1,0,,1666666,,,,,,,
33540,note_on,,,,,0,0,1,,,,,0,,,79,36
33540,note_on,,,,,0,0,1,,,,,0,,,69,0
33540,note_on,,,,,60,0,1,,,,,0,,,81,0
33540,note_on,,,,,0,0,1,,,,,0,,,67,36
33550,set_tempo,,,,,30,1,0,,1714285,,,,,,,
33555,set_tempo,,,,,5,1,0,,1714285,,,,,,,
33565,control_change,,,,,25,0,1,,,,,0,64,0,,
33565,set_tempo,,,,,10,1,0,,1714285,,,,,,,
33570,note_on,,,,,5,0,1,,,,,0,,,79,0
33570,note_on,,,,,0,0,1,,,,,0,,,67,0
33575,set_tempo,,,,,10,1,0,,1714285,,,,,,,
33580,set_tempo,,,,,5,1,0,,1764705,,,,,,,
33590,set_tempo,,,,,10,1,0,,1764705,,,,,,,
33595,set_tempo,,,,,5,1,0,,1764705,,,,,,,
33600,note_on,,,,,0,0,1,,,,,0,,,67,42
33600,set_tempo,,,,,5,1,0,,1621621,,,,,,,
33600,note_on,,,,,0,0,2,,,,,0,,,59,0
33600,note_on,,,,,120,0,2,,,,,0,,,62,0
33600,note_on,,,,,30,0,1,,,,,0,,,55,42
33605,set_tempo,,,,,5,1,0,,1621621,,,,,,,
33615,set_tempo,,,,,10,1,0,,1621621,,,,,,,
33630,note_on,,,,,30,0,1,,,,,0,,,67,0
33630,set_tempo,,,,,15,1,0,,1621621,,,,,,,
33630,note_on,,,,,0,0,1,,,,,0,,,69,51
33635,note_on,,,,,5,0,1,,,,,0,,,69,0
33635,note_on,,,,,0,0,1,,,,,0,,,67,52
33640,note_on,,,,,5,0,1,,,,,0,,,67,0
33640,note_on,,,,,0,0,1,,,,,0,,,66,53
33640,set_tempo,,,,,10,1,0,,1621621,,,,,,,
33645,note_on,,,,,0,0,1,,,,,0,,,55,0
33645,note_on,,,,,5,0,1,,,,,0,,,66,0
33645,note_on,,,,,0,0,1,,,,,0,,,57,55
33645,note_on,,,,,0,0,1,,,,,0,,,67,55
33645,note_on,,,,,45,0,2,,,,,0,,,54,41
33652,note_on,,,,,7,0,1,,,,,0,,,67,0
33652,note_on,,,,,0,0,1,,,,,0,,,69,57
33655,set_tempo,,,,,15,1,0,,1621621,,,,,,,
33660,note_on,,,,,8,0,1,,,,,0,,,69,0
33660,note_on,,,,,0,0,1,,,,,0,,,57,0
33660,note_on,,,,,0,0,1,,,,,0,,,71,59
33660,note_on,,,,,0,0,2,,,,,0,,,55,51
33660,note_on,,,,,0,0,2,,,,,0,,,47,51
33660,note_on,,,,,0,0,2,,,,,0,,,59,51
33660,note_on,,,,,15,0,2,,,,,0,,,54,0
33675,set_tempo,,,,,20,1,0,,1621621,,,,,,,
33695,set_tempo,,,,,20,1,0,,1621621,,,,,,,
33700,set_tempo,,,,,5,1,0,,1666666,,,,,,,
33705,note_on,,,,,0,0,2,,,,,0,,,59,0
33705,note_on,,,,,45,0,1,,,,,0,,,71,0
33705,note_on,,,,,45,0,2,,,,,0,,,55,0
33705,note_on,,,,,0,0,2,,,,,0,,,47,0
33715,set_tempo,,,,,15,1,0,,1666666,,,,,,,
33720,note_on,,,,,0,0,2,,,,,0,,,47,45
33720,note_on,,,,,0,0,2,,,,,0,,,57,45
33720,note_on,,,,,15,0,1,,,,,0,,,69,51
33720,note_on,,,,,15,0,2,,,,,0,,,54,45
33735,set_tempo,,,,,20,1,0,,1666666,,,,,,,
33745,set_tempo,,,,,10,1,0,,1666666,,,,,,,
33765,note_on,,,,,45,0,2,,,,,0,,,47,0
33765,note_on,,,,,0,0,2,,,,,0,,,57,0
33765,note_on,,,,,0,0,2,,,,,0,,,54,0
33765,note_on,,,,,45,0,1,,,,,0,,,69,0
33770,set_tempo,,,,,25,1,0,,1666666,,,,,,,
33775,set_tempo,,,,,5,1,0,,1666666,,,,,,,
33780,note_on,,,,,15,0,2,,,,,0,,,51,37
33780,note_on,,,,,0,0,2,,,,,0,,,54,37
33780,note_on,,,,,0,0,2,,,,,0,,,47,37
33780,note_on,,,,,15,0,1,,,,,0,,,66,41
33790,set_tempo,,,,,15,1,0,,1666666,,,,,,,
33795,set_tempo,,,,,5,1,0,,1666666,,,,,,,
33815,set_tempo,,,,,20,1,0,,1666666,,,,,,,
33825,note_on,,,,,45,0,2,,,,,0,,,47,0
33825,note_on,,,,,0,0,2,,,,,0,,,54,0
33825,note_on,,,,,0,0,2,,,,,0,,,51,0
33825,note_on,,,,,45,0,1,,,,,0,,,66,0
33840,note_on,,,,,15,0,1,,,,,0,,,67,34
33840,note_on,,,,,15,0,2,,,,,0,,,55,38
33840,note_on,,,,,0,0,2,,,,,0,,,52,38
33840,control_change,,,,,0,0,1,,,,,0,64,96,,
33870,set_tempo,,,,,55,1,0,,1666666,,,,,,,
33875,set_tempo,,,,,5,1,0,,1666666,,,,,,,
33890,set_tempo,,,,,15,1,0,,1621621,,,,,,,
33895,set_tempo,,,,,5,1,0,,1621621,,,,,,,
33900,note_on,,,,,60,0,1,,,,,0,,,67,0
33900,note_on,,,,,0,0,2,,,,,0,,,55,0
33900,note_on,,,,,60,0,2,,,,,0,,,52,0
33900,set_tempo,,,,,5,1,0,,1621621,,,,,,,
33905,set_tempo,,,,,5,1,0,,1621621,,,,,,,
33910,set_tempo,,,,,5,1,0,,1621621,,,,,,,
33915,set_tempo,,,,,5,1,0,,1621621,,,,,,,
33920,set_tempo,,,,,5,1,0,,1621621,,,,,,,
33925,set_tempo,,,,,5,1,0,,1578947,,,,,,,
33930,note_on,,,,,0,0,2,,,,,0,,,59,47
33930,note_on,,,,,30,0,2,,,,,0,,,55,47
33930,note_on,,,,,0,0,1,,,,,0,,,71,36
33930,control_change,,,,,0,0,1,,,,,0,64,0,,
33930,set_tempo,,,,,5,1,0,,1578947,,,,,,,
33930,note_on,,,,,30,0,1,,,,,0,,,83,36
33935,set_tempo,,,,,5,1,0,,1578947,,,,,,,
33940,set_tempo,,,,,5,1,0,,1578947,,,,,,,
33945,set_tempo,,,,,5,1,0,,1578947,,,,,,,
33950,set_tempo,,,,,5,1,0,,1538461,,,,,,,
33955,set_tempo,,,,,5,1,0,,1538461,,,,,,,
33960,note_on,,,,,0,0,2,,,,,0,,,50,50
33960,set_tempo,,,,,5,1,0,,1538461,,,,,,,
33960,note_on,,,,,0,0,2,,,,,0,,,55,0
33960,note_on,,,,,30,0,2,,,,,0,,,59,0
33960,note_on,,,,,0,0,2,,,,,0,,,54,50
33960,note_on,,,,,0,0,1,,,,,0,,,78,38
33960,note_on,,,,,0,0,1,,,,,0,,,66,38
33960,note_on,,,,,0,0,1,,,,,0,,,83,0
33960,note_on,,,,,30,0,1,,,,,0,,,71,0
33965,set_tempo,,,,,5,1,0,,1538461,,,,,,,
33970,set_tempo,,,,,5,1,0,,1538461,,,,,,,
33975,set_tempo,,,,,5,1,0,,1500000,,,,,,,
33980,set_tempo,,,,,5,1,0,,1500000,,,,,,,
33985,set_tempo,,,,,5,1,0,,1500000,,,,,,,
33990,note_on,,,,,0,0,1,,,,,0,,,67,41
33990,note_on,,,,,0,0,1,,,,,0,,,79,41
33990,note_on,,,,,0,0,1,,,,,0,,,66,0
33990,note_on,,,,,30,0,1,,,,,0,,,78,0
33990,set_tempo,,,,,5,1,0,,1500000,,,,,,,
33990,note_on,,,,,30,0,2,,,,,0,,,50,0
33990,note_on,,,,,0,0,2,,,,,0,,,54,0
33990,note_on,,,,,0,0,2,,,,,0,,,52,54
33990,note_on,,,,,0,0,2,,,,,0,,,55,54
33995,set_tempo,,,,,5,1,0,,1500000,,,,,,,
34000,set_tempo,,,,,5,1,0,,1500000,,,,,,,
34005,set_tempo,,,,,5,1,0,,1500000,,,,,,,
34010,set_tempo,,,,,5,1,0,,1463414,,,,,,,
34015,set_tempo,,,,,5,1,0,,1463414,,,,,,,
34020,note_on,,,,,0,0,1,,,,,0,,,57,44
34020,note_on,,,,,0,0,1,,,,,0,,,79,0
34020,note_on,,,,,30,0,1,,,,,0,,,67,0
34020,note_on,,,,,0,0,2,,,,,0,,,45,58
34020,note_on,,,,,0,0,2,,,,,0,,,52,0
34020,note_on,,,,,0,0,2,,,,,0,,,54,58
34020,set_tempo,,,,,5,1,0,,1463414,,,,,,,
34020,note_on,,,,,0,0,1,,,,,0,,,69,44
34020,note_on,,,,,30,0,2,,,,,0,,,55,0
34020,note_on,,,,,0,0,1,,,,,0,,,81,44
34030,set_tempo,,,,,10,1,0,,1463414,,,,,,,
34055,set_tempo,,,,,25,1,0,,1463414,,,,,,,
34065,set_tempo,,,,,10,1,0,,1463414,,,,,,,
34065,note_on,,,,,0,0,1,,,,,0,,,69,0
34065,note_on,,,,,0,0,1,,,,,0,,,81,0
34065,note_on,,,,,45,0,2,,,,,0,,,54,0
34065,note_on,,,,,0,0,2,,,,,0,,,45,0
34065,note_on,,,,,45,0,1,,,,,0,,,57,0
34080,note_on,,,,,15,0,1,,,,,0,,,79,52
34080,note_on,,,,,0,0,1,,,,,0,,,67,52
34080,note_on,,,,,0,0,1,,,,,0,,,55,52
34080,set_tempo,,,,,15,1,0,,1463414,,,,,,,
34080,note_on,,,,,15,0,2,,,,,0,,,45,69
34080,note_on,,,,,0,0,2,,,,,0,,,52,69
34085,set_tempo,,,,,5,1,0,,1463414,,,,,,,
34100,set_tempo,,,,,15,1,0,,1463414,,,,,,,
34110,set_tempo,,,,,10,1,0,,1463414,,,,,,,
34115,set_tempo,,,,,5,1,0,,1463414,,,,,,,
34120,set_tempo,,,,,5,1,0,,1500000,,,,,,,
34125,set_tempo,,,,,5,1,0,,1500000,,,,,,,
34125,note_on,,,,,0,0,2,,,,,0,,,45,0
34125,note_on,,,,,45,0,2,,,,,0,,,52,0
34125,note_on,,,,,0,0,1,,,,,0,,,79,0
34125,note_on,,,,,0,0,1,,,,,0,,,67,0
34125,note_on,,,,,45,0,1,,,,,0,,,55,0
34135,set_tempo,,,,,10,1,0,,1500000,,,,,,,
34140,set_tempo,,,,,5,1,0,,1500000,,,,,,,
34140,note_on,,,,,0,0,2,,,,,0,,,52,81
34140,note_on,,,,,15,0,2,,,,,0,,,45,81
34140,note_on,,,,,0,0,1,,,,,0,,,52,71
34140,note_on,,,,,0,0,1,,,,,0,,,64,71
34140,note_on,,,,,15,0,1,,,,,0,,,76,71
34145,set_tempo,,,,,5,1,0,,1500000,,,,,,,
34155,set_tempo,,,,,10,1,0,,1500000,,,,,,,
34165,set_tempo,,,,,10,1,0,,1500000,,,,,,,
34175,set_tempo,,,,,10,1,0,,1500000,,,,,,,
34180,set_tempo,,,,,5,1,0,,1463414,,,,,,,
34185,note_on,,,,,45,0,2,,,,,0,,,52,0
34185,note_on,,,,,0,0,2,,,,,0,,,45,0
34185,set_tempo,,,,,5,1,0,,1463414,,,,,,,
34185,note_on,,,,,45,0,1,,,,,0,,,52,0
34185,note_on,,,,,0,0,1,,,,,0,,,64,0
34185,note_on,,,,,0,0,1,,,,,0,,,76,0
34190,set_tempo,,,,,5,1,0,,1428571,,,,,,,
34195,set_tempo,,,,,5,1,0,,1428571,,,,,,,
34200,note_on,,,,,15,0,1,,,,,0,,,86,94
34200,note_on,,,,,0,0,1,,,,,0,,,54,94
34200,note_on,,,,,0,0,1,,,,,0,,,62,94
34200,note_on,,,,,0,0,1,,,,,0,,,74,94
34200,control_change,,,,,0,0,1,,,,,0,64,96,,
34200,note_on,,,,,15,0,2,,,,,0,,,50,87
34215,set_tempo,,,,,20,1,0,,1428571,,,,,,,
34220,set_tempo,,,,,5,1,0,,1395348,,,,,,,
34225,set_tempo,,,,,5,1,0,,1395348,,,,,,,
34240,set_tempo,,,,,15,1,0,,1363636,,,,,,,
34245,set_tempo,,,,,5,1,0,,1363636,,,,,,,
34255,set_tempo,,,,,10,1,0,,1333333,,,,,,,
34260,set_tempo,,,,,5,1,0,,1333333,,,,,,,
34265,set_tempo,,,,,5,1,0,,1304347,,,,,,,
34280,set_tempo,,,,,15,1,0,,1333333,,,,,,,
34285,set_tempo,,,,,5,1,0,,1333333,,,,,,,
34285,control_change,,,,,85,0,1,,,,,0,64,0,,
34290,note_on,,,,,5,0,1,,,,,0,,,74,0
34290,note_on,,,,,0,0,1,,,,,0,,,86,0
34290,note_on,,,,,0,0,1,,,,,0,,,54,0
34290,note_on,,,,,0,0,1,,,,,0,,,62,0
34290,note_on,,,,,0,0,1,,,,,0,,,61,54
34290,note_on,,,,,0,0,1,,,,,0,,,52,54
34290,note_on,,,,,0,0,1,,,,,0,,,73,54
34290,note_on,,,,,0,0,1,,,,,0,,,85,54
34300,set_tempo,,,,,15,1,0,,1363636,,,,,,,
34305,set_tempo,,,,,5,1,0,,1363636,,,,,,,
34320,note_on,,,,,30,0,1,,,,,0,,,73,0
34320,note_on,,,,,0,0,1,,,,,0,,,85,0
34320,note_on,,,,,0,0,1,,,,,0,,,52,0
34320,note_on,,,,,0,0,1,,,,,0,,,62,49
34320,note_on,,,,,0,0,1,,,,,0,,,86,49
34320,note_on,,,,,0,0,1,,,,,0,,,54,49
34320,note_on,,,,,0,0,1,,,,,0,,,61,0
34320,note_on,,,,,0,0,1,,,,,0,,,74,49
34320,set_tempo,,,,,15,1,0,,1395348,,,,,,,
34335,set_tempo,,,,,15,1,0,,1395348,,,,,,,
34340,set_tempo,,,,,5,1,0,,1428571,,,,,,,
34350,note_on,,,,,30,0,1,,,,,0,,,74,0
34350,note_on,,,,,0,0,1,,,,,0,,,71,46
34350,note_on,,,,,0,0,1,,,,,0,,,59,46
34350,note_on,,,,,0,0,1,,,,,0,,,86,0
34350,note_on,,,,,0,0,1,,,,,0,,,54,0
34350,note_on,,,,,0,0,1,,,,,0,,,62,0
34350,note_on,,,,,0,0,1,,,,,0,,,83,46
34350,note_on,,,,,0,0,1,,,,,0,,,55,46
34355,set_tempo,,,,,15,1,0,,1428571,,,,,,,
34360,set_tempo,,,,,5,1,0,,1463414,,,,,,,
34370,set_tempo,,,,,10,1,0,,1463414,,,,,,,
34375,set_tempo,,,,,5,1,0,,1500000,,,,,,,
34380,note_on,,,,,0,0,1,,,,,0,,,81,43
34380,note_on,,,,,0,0,2,,,,,0,,,45,39
34380,note_on,,,,,0,0,2,,,,,0,,,54,39
34380,note_on,,,,,30,0,1,,,,,0,,,71,0
34380,note_on,,,,,0,0,1,,,,,0,,,83,0
34380,note_on,,,,,0,0,1,,,,,0,,,55,0
34380,note_on,,,,,0,0,1,,,,,0,,,59,0
34380,note_on,,,,,0,0,1,,,,,0,,,57,43
34380,note_on,,,,,0,0,1,,,,,0,,,69,43
34380,note_on,,,,,180,0,2,,,,,0,,,50,0
34385,set_tempo,,,,,10,1,0,,1500000,,,,,,,
34405,set_tempo,,,,,20,1,0,,1538461,,,,,,,
34415,set_tempo,,,,,10,1,0,,1538461,,,,,,,
34425,note_on,,,,,45,0,1,,,,,0,,,57,0
34425,note_on,,,,,0,0,1,,,,,0,,,69,0
34425,note_on,,,,,0,0,2,,,,,0,,,45,0
34425,note_on,,,,,45,0,2,,,,,0,,,54,0
34425,note_on,,,,,0,0,1,,,,,0,,,81,0
34430,set_tempo,,,,,15,1,0,,1578947,,,,,,,
34440,set_tempo,,,,,10,1,0,,1578947,,,,,,,
34440,note_on,,,,,0,0,1,,,,,0,,,67,38
34440,note_on,,,,,0,0,1,,,,,0,,,55,38
34440,note_on,,,,,0,0,2,,,,,0,,,52,37
34440,note_on,,,,,15,0,2,,,,,0,,,45,37
34440,note_on,,,,,15,0,1,,,,,0,,,79,38
34460,set_tempo,,,,,20,1,0,,1621621,,,,,,,
34485,note_on,,,,,45,0,1,,,,,0,,,55,0
34485,note_on,,,,,0,0,1,,,,,0,,,79,0
34485,note_on,,,,,0,0,2,,,,,0,,,45,0
34485,note_on,,,,,45,0,2,,,,,0,,,52,0
34485,note_on,,,,,0,0,1,,,,,0,,,67,0
34500,note_on,,,,,0,0,1,,,,,0,,,64,35
34500,note_on,,,,,0,0,1,,,,,0,,,52,35
34500,note_on,,,,,15,0,1,,,,,0,,,76,35
34500,note_on,,,,,0,0,2,,,,,0,,,52,35
34500,set_tempo,,,,,40,1,0,,1621621,,,,,,,
34500,note_on,,,,,15,0,2,,,,,0,,,45,35
34530,set_tempo,,,,,30,1,0,,1935483,,,,,,,
34545,note_on,,,,,45,0,2,,,,,0,,,52,0
34545,note_on,,,,,0,0,2,,,,,0,,,45,0
34545,note_on,,,,,45,0,1,,,,,0,,,52,0
34545,note_on,,,,,0,0,1,,,,,0,,,64,0
34545,note_on,,,,,0,0,1,,,,,0,,,76,0
34545,control_change,,,,,0,0,1,,,,,0,64,96,,
34545,set_tempo,,,,,15,1,0,,2000000,,,,,,,
34550,note_on,,,,,5,0,2,,,,,0,,,50,104
34550,set_tempo,,,,,5,1,0,,3015075,,,,,,,
34555,note_on,,,,,5,0,2,,,,,0,,,57,104
34555,set_tempo,,,,,5,1,0,,1500000,,,,,,,
34560,note_on,,,,,15,0,1,,,,,0,,,90,106
34560,note_on,,,,,0,0,1,,,,,0,,,78,106
34560,note_on,,,,,0,0,1,,,,,0,,,66,106
34560,note_on,,,,,0,0,1,,,,,0,,,62,106
34570,set_tempo,,,,,15,1,0,,1500000,,,,,,,
34585,set_tempo,,,,,15,1,0,,1538461,,,,,,,
34595,set_tempo,,,,,10,1,0,,1578947,,,,,,,
34600,set_tempo,,,,,5,1,0,,1578947,,,,,,,
34610,set_tempo,,,,,10,1,0,,1621621,,,,,,,
34620,set_tempo,,,,,10,1,0,,1621621,,,,,,,
34630,set_tempo,,,,,10,1,0,,1666666,,,,,,,
34640,note_on,,,,,85,0,2,,,,,0,,,50,0
34645,note_on,,,,,5,0,2,,,,,0,,,57,0
34645,control_change,,,,,85,0,1,,,,,0,64,0,,
34650,note_on,,,,,0,0,1,,,,,0,,,62,0
34650,note_on,,,,,5,0,2,,,,,0,,,58,48
34650,note_on,,,,,0,0,2,,,,,0,,,54,48
34650,note_on,,,,,5,0,1,,,,,0,,,78,0
34650,note_on,,,,,0,0,1,,,,,0,,,76,56
34650,note_on,,,,,0,0,1,,,,,0,,,64,56
34650,note_on,,,,,0,0,1,,,,,0,,,88,56
34650,note_on,,,,,0,0,1,,,,,0,,,66,0
34650,note_on,,,,,0,0,1,,,,,0,,,90,0
34660,set_tempo,,,,,30,1,0,,1714285,,,,,,,
34665,set_tempo,,,,,5,1,0,,1714285,,,,,,,
34670,set_tempo,,,,,5,1,0,,1714285,,,,,,,
34675,set_tempo,,,,,5,1,0,,1714285,,,,,,,
34680,note_on,,,,,30,0,1,,,,,0,,,76,0
34680,note_on,,,,,0,0,1,,,,,0,,,64,0
34680,note_on,,,,,0,0,2,,,,,0,,,59,41
34680,note_on,,,,,0,0,2,,,,,0,,,55,41
34680,note_on,,,,,0,0,2,,,,,0,,,58,0
34680,note_on,,,,,30,0,2,,,,,0,,,54,0
34680,note_on,,,,,0,0,1,,,,,0,,,88,0
34680,note_on,,,,,0,0,1,,,,,0,,,86,50
34680,note_on,,,,,0,0,1,,,,,0,,,62,50
34680,note_on,,,,,0,0,1,,,,,0,,,74,50
34680,set_tempo,,,,,5,1,0,,1764705,,,,,,,
34710,note_on,,,,,0,0,1,,,,,0,,,83,47
34710,note_on,,,,,0,0,1,,,,,0,,,62,0
34710,set_tempo,,,,,30,1,0,,1764705,,,,,,,
34710,note_on,,,,,0,0,2,,,,,0,,,56,36
34710,note_on,,,,,0,0,2,,,,,0,,,62,36
34710,note_on,,,,,0,0,2,,,,,0,,,55,0
34710,note_on,,,,,30,0,1,,,,,0,,,74,0
34710,note_on,,,,,30,0,2,,,,,0,,,59,0
34710,note_on,,,,,0,0,1,,,,,0,,,65,47
34710,note_on,,,,,0,0,1,,,,,0,,,86,0
34710,note_on,,,,,0,0,1,,,,,0,,,71,47
34715,set_tempo,,,,,5,1,0,,1764705,,,,,,,
34725,set_tempo,,,,,10,1,0,,1818181,,,,,,,
34730,set_tempo,,,,,5,1,0,,1719197,,,,,,,
34740,set_tempo,,,,,10,1,0,,1719197,,,,,,,
34740,note_on,,,,,0,0,2,,,,,0,,,57,41
34740,note_on,,,,,0,0,2,,,,,0,,,62,41
34740,note_on,,,,,0,0,2,,,,,0,,,62,0
34740,note_on,,,,,30,0,2,,,,,0,,,56,0
34740,note_on,,,,,0,0,1,,,,,0,,,83,0
34740,note_on,,,,,30,0,1,,,,,0,,,71,0
34740,note_on,,,,,0,0,1,,,,,0,,,65,0
34740,note_on,,,,,0,0,1,,,,,0,,,81,46
34740,control_change,,,,,0,0,1,,,,,0,64,96,,
34740,note_on,,,,,0,0,1,,,,,0,,,66,46
34740,note_on,,,,,0,0,1,,,,,0,,,69,46
34750,set_tempo,,,,,10,1,0,,1719197,,,,,,,
34785,note_on,,,,,0,0,1,,,,,0,,,66,0
34785,note_on,,,,,45,0,1,,,,,0,,,69,0
34785,note_on,,,,,45,0,2,,,,,0,,,57,0
34785,note_on,,,,,0,0,2,,,,,0,,,62,0
34785,note_on,,,,,0,0,1,,,,,0,,,81,0
34800,note_on,,,,,15,0,1,,,,,0,,,69,37
34800,note_on,,,,,0,0,1,,,,,0,,,76,37
34800,note_on,,,,,15,0,2,,,,,0,,,57,37
34800,note_on,,,,,0,0,1,,,,,0,,,79,37
34800,note_on,,,,,0,0,1,,,,,0,,,64,41
34800,note_on,,,,,0,0,1,,,,,0,,,67,41
34810,set_tempo,,,,,60,1,0,,1769911,,,,,,,
34830,set_tempo,,,,,20,1,0,,1796407,,,,,,,
34835,set_tempo,,,,,5,1,0,,1823708,,,,,,,
34845,note_on,,,,,0,0,1,,,,,0,,,69,0
34845,note_on,,,,,45,0,2,,,,,0,,,57,0
34845,note_on,,,,,0,0,1,,,,,0,,,79,0
34845,note_on,,,,,0,0,1,,,,,0,,,64,0
34845,note_on,,,,,0,0,1,,,,,0,,,76,0
34845,note_on,,,,,45,0,1,,,,,0,,,67,0
34850,set_tempo,,,,,15,1,0,,1851851,,,,,,,
34855,set_tempo,,,,,5,1,0,,1880877,,,,,,,
34860,note_on,,,,,0,0,1,,,,,0,,,61,37
34860,note_on,,,,,15,0,2,,,,,0,,,57,36
34860,note_on,,,,,15,0,1,,,,,0,,,76,36
34860,note_on,,,,,0,0,1,,,,,0,,,73,36
34860,note_on,,,,,0,0,1,,,,,0,,,67,36
34860,note_on,,,,,0,0,1,,,,,0,,,64,37
34870,set_tempo,,,,,15,1,0,,1910828,,,,,,,
34880,set_tempo,,,,,10,1,0,,1941747,,,,,,,
34905,note_on,,,,,45,0,2,,,,,0,,,57,0
34905,note_on,,,,,45,0,1,,,,,0,,,64,0
34905,note_on,,,,,0,0,1,,,,,0,,,67,0
34905,note_on,,,,,0,0,1,,,,,0,,,61,0
34905,note_on,,,,,0,0,1,,,,,0,,,73,0
34905,note_on,,,,,0,0,1,,,,,0,,,76,0
34910,control_change,,,,,5,0,1,,,,,0,64,0,,
34920,note_on,,,,,10,0,1,,,,,0,,,74,34
34920,control_change,,,,,0,0,1,,,,,0,64,95,,
34920,note_on,,,,,0,0,1,,,,,0,,,66,34
34920,note_on,,,,,15,0,2,,,,,0,,,62,33
34920,note_on,,,,,0,0,2,,,,,0,,,54,33
34920,note_on,,,,,0,0,2,,,,,0,,,50,33
34970,set_tempo,,,,,90,1,0,,2222222,,,,,,,
34975,set_tempo,,,,,5,1,0,,2222222,,,,,,,
34980,set_tempo,,,,,5,1,0,,2222222,,,,,,,
34985,set_tempo,,,,,5,1,0,,2222222,,,,,,,
34990,set_tempo,,,,,5,1,0,,2142857,,,,,,,
34990,control_change,,,,,70,0,1,,,,,0,64,0,,
34995,note_on,,,,,0,0,2,,,,,0,,,54,0
34995,set_tempo,,,,,5,1,0,,2068965,,,,,,,
34995,note_on,,,,,75,0,2,,,,,0,,,50,0
34995,note_on,,,,,0,0,2,,,,,0,,,62,0
34995,note_on,,,,,5,0,1,,,,,0,,,66,0
34995,note_on,,,,,0,0,1,,,,,0,,,74,0
35000,set_tempo,,,,,5,1,0,,1935483,,,,,,,
35005,set_tempo,,,,,5,1,0,,1875000,,,,,,,
35010,set_tempo,,,,,5,1,0,,1621621,,,,,,,
35010,note_on,,,,,15,0,1,,,,,0,,,74,37
35040,note_on,,,,,0,0,1,,,,,0,,,76,41
35040,note_on,,,,,30,0,1,,,,,0,,,74,0
35070,note_on,,,,,30,0,1,,,,,0,,,76,0
35070,note_on,,,,,0,0,1,,,,,0,,,78,47
35075,set_tempo,,,,,65,1,0,,1621621,,,,,,,
35095,set_tempo,,,,,20,1,0,,1621621,,,,,,,
35100,note_on,,,,,105,0,2,,,,,0,,,67,40
35100,note_on,,,,,0,0,2,,,,,0,,,58,40
35100,control_change,,,,,0,0,1,,,,,0,64,95,,
35100,note_on,,,,,0,0,1,,,,,0,,,73,56
35100,note_on,,,,,30,0,1,,,,,0,,,78,0
35100,note_on,,,,,0,0,2,,,,,0,,,64,40
35110,set_tempo,,,,,15,1,0,,1621621,,,,,,,
35115,set_tempo,,,,,5,1,0,,1666666,,,,,,,
35120,set_tempo,,,,,5,1,0,,1666666,,,,,,,
35125,set_tempo,,,,,5,1,0,,1666666,,,,,,,
35130,set_tempo,,,,,5,1,0,,1666666,,,,,,,
35135,set_tempo,,,,,5,1,0,,1666666,,,,,,,
35145,set_tempo,,,,,10,1,0,,1714285,,,,,,,
35155,set_tempo,,,,,10,1,0,,1714285,,,,,,,
35160,note_on,,,,,60,0,1,,,,,0,,,73,0
35160,note_on,,,,,0,0,1,,,,,0,,,79,50
35165,set_tempo,,,,,10,1,0,,1714285,,,,,,,
35175,set_tempo,,,,,10,1,0,,1714285,,,,,,,
35180,set_tempo,,,,,5,1,0,,1714285,,,,,,,
35195,set_tempo,,,,,15,1,0,,1714285,,,,,,,
35210,set_tempo,,,,,15,1,0,,1714285,,,,,,,
35220,note_on,,,,,60,0,1,,,,,0,,,79,0
35220,note_on,,,,,0,0,1,,,,,0,,,73,44
35265,set_tempo,,,,,55,1,0,,1714285,,,,,,,
35275,control_change,,,,,55,0,1,,,,,0,64,0,,
35275,set_tempo,,,,,10,1,0,,1714285,,,,,,,
35280,control_change,,,,,0,0,1,,,,,0,64,95,,
35280,note_on,,,,,180,0,2,,,,,0,,,58,0
35280,note_on,,,,,5,0,1,,,,,0,,,73,0
35280,note_on,,,,,0,0,2,,,,,0,,,66,37
35280,note_on,,,,,0,0,2,,,,,0,,,64,37
35280,note_on,,,,,0,0,2,,,,,0,,,64,0
35280,note_on,,,,,0,0,2,,,,,0,,,58,37
35280,note_on,,,,,0,0,2,,,,,0,,,67,0
35280,note_on,,,,,0,0,1,,,,,0,,,78,57
35310,set_tempo,,,,,35,1,0,,1666666,,,,,,,
35320,set_tempo,,,,,10,1,0,,1666666,,,,,,,
35330,set_tempo,,,,,10,1,0,,1666666,,,,,,,
35335,set_tempo,,,,,5,1,0,,1666666,,,,,,,
35340,note_on,,,,,0,0,2,,,,,0,,,66,0
35340,note_on,,,,,0,0,2,,,,,0,,,59,29
35340,note_on,,,,,0,0,2,,,,,0,,,62,29
35340,note_on,,,,,0,0,2,,,,,0,,,66,29
35340,note_on,,,,,60,0,2,,,,,0,,,58,0
35340,note_on,,,,,0,0,2,,,,,0,,,64,0
35340,set_tempo,,,,,5,1,0,,1666666,,,,,,,
35340,note_on,,,,,60,0,1,,,,,0,,,78,0
35340,note_on,,,,,0,0,1,,,,,0,,,76,43
35350,set_tempo,,,,,10,1,0,,1621621,,,,,,,
35360,set_tempo,,,,,10,1,0,,1621621,,,,,,,
35370,set_tempo,,,,,10,1,0,,1621621,,,,,,,
35380,note_on,,,,,40,0,1,,,,,0,,,76,0
35380,note_on,,,,,0,0,1,,,,,0,,,74,37
35380,control_change,,,,,0,0,1,,,,,0,64,0,,
35380,note_on,,,,,0,0,2,,,,,0,,,59,0
35380,set_tempo,,,,,10,1,0,,1621621,,,,,,,
35380,note_on,,,,,40,0,2,,,,,0,,,66,0
35380,note_on,,,,,0,0,2,,,,,0,,,62,0
35390,set_tempo,,,,,10,1,0,,1621621,,,,,,,
35400,note_on,,,,,20,0,2,,,,,0,,,67,33
35400,note_on,,,,,0,0,2,,,,,0,,,62,33
35400,note_on,,,,,0,0,2,,,,,0,,,55,33
35400,set_tempo,,,,,10,1,0,,1621621,,,,,,,
35400,note_on,,,,,20,0,1,,,,,0,,,74,0
35400,note_on,,,,,0,0,1,,,,,0,,,73,44
35415,set_tempo,,,,,15,1,0,,1621621,,,,,,,
35420,note_on,,,,,20,0,1,,,,,0,,,73,0
35420,note_on,,,,,0,0,1,,,,,0,,,74,39
35440,note_on,,,,,0,0,2,,,,,0,,,67,0
35440,note_on,,,,,20,0,1,,,,,0,,,74,0
35440,note_on,,,,,40,0,2,,,,,0,,,55,0
35440,note_on,,,,,0,0,2,,,,,0,,,62,0
35441,note_on,,,,,1,0,1,,,,,0,,,71,34
35460,note_on,,,,,19,0,1,,,,,0,,,69,41
35460,note_on,,,,,20,0,2,,,,,0,,,66,37
35460,note_on,,,,,0,0,2,,,,,0,,,57,37
35461,note_on,,,,,1,0,1,,,,,0,,,71,0
35480,set_tempo,,,,,65,1,0,,1621621,,,,,,,
35490,set_tempo,,,,,10,1,0,,1621621,,,,,,,
35495,set_tempo,,,,,5,1,0,,1621621,,,,,,,
35505,note_on,,,,,0,0,2,,,,,0,,,66,0
35505,set_tempo,,,,,10,1,0,,1621621,,,,,,,
35505,note_on,,,,,45,0,2,,,,,0,,,57,0
35505,note_on,,,,,44,0,1,,,,,0,,,69,0
35510,set_tempo,,,,,5,1,0,,1621621,,,,,,,
35520,set_tempo,,,,,10,1,0,,1666666,,,,,,,
35520,note_on,,,,,0,0,2,,,,,0,,,57,30
35520,note_on,,,,,0,0,2,,,,,0,,,64,30
35520,note_on,,,,,15,0,2,,,,,0,,,67,30
35520,note_on,,,,,15,0,1,,,,,0,,,71,34
35530,set_tempo,,,,,10,1,0,,1666666,,,,,,,
35535,set_tempo,,,,,5,1,0,,1666666,,,,,,,
35550,set_tempo,,,,,15,1,0,,1714285,,,,,,,
35560,set_tempo,,,,,10,1,0,,1714285,,,,,,,
35565,note_on,,,,,45,0,1,,,,,0,,,71,0
35565,note_on,,,,,0,0,2,,,,,0,,,64,0
35565,note_on,,,,,45,0,2,,,,,0,,,57,0
35565,note_on,,,,,0,0,2,,,,,0,,,67,0
35570,set_tempo,,,,,10,1,0,,1714285,,,,,,,
35575,set_tempo,,,,,5,1,0,,1714285,,,,,,,
35580,set_tempo,,,,,5,1,0,,1714285,,,,,,,
35580,note_on,,,,,15,0,1,,,,,0,,,73,30
35580,note_on,,,,,15,0,2,,,,,0,,,64,26
35580,note_on,,,,,0,0,2,,,,,0,,,57,26
35590,set_tempo,,,,,10,1,0,,1714285,,,,,,,
35595,set_tempo,,,,,5,1,0,,1714285,,,,,,,
35605,set_tempo,,,,,10,1,0,,1764705,,,,,,,
35615,set_tempo,,,,,10,1,0,,1764705,,,,,,,
35625,note_on,,,,,45,0,2,,,,,0,,,57,0
35625,note_on,,,,,0,0,2,,,,,0,,,64,0
35625,note_on,,,,,45,0,1,,,,,0,,,73,0
35625,set_tempo,,,,,10,1,0,,1764705,,,,,,,
35635,set_tempo,,,,,10,1,0,,1764705,,,,,,,
35640,note_on,,,,,15,0,2,,,,,0,,,50,26
35640,control_change,,,,,0,0,1,,,,,0,64,94,,
35640,note_on,,,,,15,0,1,,,,,0,,,74,35
35640,set_tempo,,,,,5,1,0,,1764705,,,,,,,
35640,note_on,,,,,0,0,2,,,,,0,,,54,26
35640,note_on,,,,,0,0,2,,,,,0,,,62,26
35650,set_tempo,,,,,10,1,0,,1764705,,,,,,,
35655,set_tempo,,,,,5,1,0,,1818181,,,,,,,
35685,set_tempo,,,,,30,1,0,,1818181,,,,,,,
35690,set_tempo,,,,,5,1,0,,1818181,,,,,,,
35700,set_tempo,,,,,10,1,0,,1818181,,,,,,,
35705,set_tempo,,,,,5,1,0,,1818181,,,,,,,
35715,note_on,,,,,0,0,2,,,,,0,,,54,0
35715,note_on,,,,,0,0,2,,,,,0,,,50,0
35715,note_on,,,,,75,0,1,,,,,0,,,74,0
35715,note_on,,,,,75,0,2,,,,,0,,,62,0
35730,control_change,,,,,0,0,1,,,,,0,64,0,,
35730,note_on,,,,,15,0,1,,,,,0,,,62,31
35735,set_tempo,,,,,30,1,0,,1875000,,,,,,,
35745,set_tempo,,,,,10,1,0,,1875000,,,,,,,
35755,set_tempo,,,,,10,1,0,,1875000,,,,,,,
35760,note_on,,,,,30,0,1,,,,,0,,,62,0
35760,note_on,,,,,0,0,1,,,,,0,,,64,37
35765,set_tempo,,,,,10,1,0,,1818181,,,,,,,
35790,note_on,,,,,30,0,1,,,,,0,,,64,0
35790,note_on,,,,,0,0,1,,,,,0,,,66,41
35795,set_tempo,,,,,30,1,0,,1818181,,,,,,,
35805,set_tempo,,,,,10,1,0,,1818181,,,,,,,
35820,note_on,,,,,30,0,1,,,,,0,,,66,0
35820,note_on,,,,,105,0,2,,,,,0,,,55,41
35820,note_on,,,,,0,0,2,,,,,0,,,52,41
35820,note_on,,,,,0,0,2,,,,,0,,,46,41
35820,control_change,,,,,0,0,1,,,,,0,64,95,,
35820,note_on,,,,,0,0,1,,,,,0,,,61,43
35835,set_tempo,,,,,30,1,0,,1818181,,,,,,,
35865,set_tempo,,,,,30,1,0,,1818181,,,,,,,
35870,set_tempo,,,,,5,1,0,,1818181,,,,,,,
35880,set_tempo,,,,,10,1,0,,1818181,,,,,,,
35880,note_on,,,,,60,0,1,,,,,0,,,61,0
35880,note_on,,,,,0,0,1,,,,,0,,,67,34
35910,set_tempo,,,,,30,1,0,,1818181,,,,,,,
35940,note_on,,,,,0,0,1,,,,,0,,,61,37
35940,set_tempo,,,,,30,1,0,,1764705,,,,,,,
35940,note_on,,,,,60,0,1,,,,,0,,,67,0
35950,set_tempo,,,,,10,1,0,,1764705,,,,,,,
35960,set_tempo,,,,,10,1,0,,1764705,,,,,,,
35975,set_tempo,,,,,15,1,0,,1764705,,,,,,,
35985,set_tempo,,,,,10,1,0,,1764705,,,,,,,
35990,set_tempo,,,,,5,1,0,,1764705,,,,,,,
35995,control_change,,,,,55,0,1,,,,,0,64,0,,
36000,note_on,,,,,0,0,2,,,,,0,,,55,32
36000,note_on,,,,,0,0,2,,,,,0,,,52,0
36000,note_on,,,,,0,0,2,,,,,0,,,47,32
36000,note_on,,,,,180,0,2,,,,,0,,,46,0
36000,note_on,,,,,0,0,2,,,,,0,,,55,0
36000,note_on,,,,,0,0,2,,,,,0,,,50,32
36000,note_on,,,,,0,0,1,,,,,0,,,62,42
36000,note_on,,,,,5,0,1,,,,,0,,,61,0
36000,control_change,,,,,0,0,1,,,,,0,64,95,,
36005,set_tempo,,,,,15,1,0,,1764705,,,,,,,
36010,set_tempo,,,,,5,1,0,,1714285,,,,,,,
36025,set_tempo,,,,,15,1,0,,1714285,,,,,,,
36030,note_on,,,,,0,0,1,,,,,0,,,71,39
36030,note_on,,,,,30,0,1,,,,,0,,,62,0
36040,set_tempo,,,,,15,1,0,,1714285,,,,,,,
36050,set_tempo,,,,,10,1,0,,1714285,,,,,,,
36060,note_on,,,,,30,0,1,,,,,0,,,71,0
36060,note_on,,,,,0,0,1,,,,,0,,,69,34
36060,note_on,,,,,0,0,2,,,,,0,,,52,29
36060,note_on,,,,,0,0,2,,,,,0,,,49,29
36060,note_on,,,,,0,0,2,,,,,0,,,50,0
36060,note_on,,,,,60,0,2,,,,,0,,,47,0
36065,set_tempo,,,,,15,1,0,,1714285,,,,,,,
36075,set_tempo,,,,,10,1,0,,1714285,,,,,,,
36085,set_tempo,,,,,10,1,0,,1714285,,,,,,,
36090,set_tempo,,,,,5,1,0,,1714285,,,,,,,
36090,note_on,,,,,30,0,1,,,,,0,,,69,0
36090,note_on,,,,,0,0,1,,,,,0,,,67,33
36095,set_tempo,,,,,5,1,0,,1764705,,,,,,,
36110,set_tempo,,,,,15,1,0,,1764705,,,,,,,
36115,set_tempo,,,,,5,1,0,,1764705,,,,,,,
36115,control_change,,,,,25,0,1,,,,,0,64,0,,
36120,note_on,,,,,0,0,2,,,,,0,,,54,29
36120,note_on,,,,,0,0,2,,,,,0,,,55,0
36120,note_on,,,,,60,0,2,,,,,0,,,52,0
36120,note_on,,,,,0,0,2,,,,,0,,,57,29
36120,note_on,,,,,5,0,1,,,,,0,,,67,0
36120,note_on,,,,,0,0,1,,,,,0,,,66,33
36125,set_tempo,,,,,10,1,0,,1764705,,,,,,,
36130,set_tempo,,,,,5,1,0,,1764705,,,,,,,
36145,set_tempo,,,,,15,1,0,,1764705,,,,,,,
36150,note_on,,,,,30,0,2,,,,,0,,,57,0
36150,note_on,,,,,0,0,2,,,,,0,,,55,29
36150,note_on,,,,,0,0,2,,,,,0,,,58,29
36150,note_on,,,,,0,0,2,,,,,0,,,54,0
36150,note_on,,,,,0,0,1,,,,,0,,,64,35
36150,note_on,,,,,30,0,1,,,,,0,,,66,0
36150,set_tempo,,,,,5,1,0,,1818181,,,,,,,
36155,set_tempo,,,,,5,1,0,,1818181,,,,,,,
36165,set_tempo,,,,,10,1,0,,1818181,,,,,,,
36175,set_tempo,,,,,10,1,0,,1818181,,,,,,,
36180,note_on,,,,,30,0,1,,,,,0,,,64,0
36180,note_on,,,,,0,0,1,,,,,0,,,66,39
36180,note_on,,,,,0,0,2,,,,,0,,,57,34
36180,note_on,,,,,0,0,2,,,,,0,,,54,34
36180,note_on,,,,,0,0,2,,,,,0,,,50,34
36180,note_on,,,,,0,0,2,,,,,0,,,49,0
36180,note_on,,,,,0,0,2,,,,,0,,,55,0
36180,note_on,,,,,30,0,2,,,,,0,,,58,0
36185,set_tempo,,,,,10,1,0,,1875000,,,,,,,
36195,set_tempo,,,,,10,1,0,,1935483,,,,,,,
36200,set_tempo,,,,,5,1,0,,2000000,,,,,,,
36205,set_tempo,,,,,5,1,0,,2068965,,,,,,,
36210,set_tempo,,,,,5,1,0,,2142857,,,,,,,
36215,set_tempo,,,,,5,1,0,,2142857,,,,,,,
36225,note_on,,,,,45,0,1,,,,,0,,,66,0
36225,set_tempo,,,,,10,1,0,,2307692,,,,,,,
36225,note_on,,,,,0,0,2,,,,,0,,,50,0
36225,note_on,,,,,0,0,2,,,,,0,,,54,0
36225,note_on,,,,,45,0,2,,,,,0,,,57,0
36230,set_tempo,,,,,5,1,0,,2222222,,,,,,,
36240,note_on,,,,,0,0,1,,,,,0,,,59,34
36240,note_on,,,,,0,0,1,,,,,0,,,64,34
36240,note_on,,,,,15,0,2,,,,,0,,,43,35
36240,note_on,,,,,15,0,1,,,,,0,,,69,34
36240,control_change,,,,,0,0,1,,,,,0,64,95,,
36245,set_tempo,,,,,15,1,0,,2307692,,,,,,,
36255,set_tempo,,,,,10,1,0,,2400000,,,,,,,
36260,set_tempo,,,,,5,1,0,,2500000,,,,,,,
36265,set_tempo,,,,,5,1,0,,2500000,,,,,,,
36265,note_on,,,,,25,0,1,,,,,0,,,69,0
36270,note_on,,,,,5,0,1,,,,,0,,,67,30
36275,set_tempo,,,,,10,1,0,,2608695,,,,,,,
36285,note_on,,,,,0,0,1,,,,,0,,,64,0
36285,note_on,,,,,0,0,1,,,,,0,,,59,0
36285,note_on,,,,,15,0,1,,,,,0,,,67,0
36285,note_on,,,,,45,0,2,,,,,0,,,43,0
36285,set_tempo,,,,,10,1,0,,2727272,,,,,,,
36290,set_tempo,,,,,5,1,0,,2727272,,,,,,,
36300,set_tempo,,,,,10,1,0,,2857142,,,,,,,
36300,note_on,,,,,15,0,1,,,,,0,,,66,29
36300,note_on,,,,,0,0,1,,,,,0,,,61,29
36300,note_on,,,,,0,0,1,,,,,0,,,55,29
36300,note_on,,,,,15,0,2,,,,,0,,,45,31
36305,set_tempo,,,,,5,1,0,,3000000,,,,,,,
36315,set_tempo,,,,,10,1,0,,3157894,,,,,,,
36320,set_tempo,,,,,5,1,0,,3157894,,,,,,,
36325,note_on,,,,,25,0,1,,,,,0,,,66,0
36325,set_tempo,,,,,5,1,0,,3333333,,,,,,,
36330,note_on,,,,,5,0,1,,,,,0,,,64,29
36340,set_tempo,,,,,15,1,0,,4000000,,,,,,,
36345,note_on,,,,,0,0,1,,,,,0,,,55,0
36345,set_tempo,,,,,5,1,0,,4285714,,,,,,,
36345,note_on,,,,,15,0,1,,,,,0,,,64,0
36345,note_on,,,,,45,0,2,,,,,0,,,45,0
36345,note_on,,,,,0,0,1,,,,,0,,,61,0
36360,note_on,,,,,15,0,2,,,,,0,,,38,32
36360,note_on,,,,,0,0,2,,,,,0,,,50,32
36360,note_on,,,,,15,0,1,,,,,0,,,54,31
36360,note_on,,,,,0,0,1,,,,,0,,,62,31
36360,set_tempo,,,,,15,1,0,,4615384,,,,,,,
36370,end_of_track,,,,,0,1,0,,,,,,,,,
36370,set_tempo,,,,,10,1,0,,4615384,,,,,,,
36405,end_of_track,,,,,0,1,2,,,,,,,,,
36405,note_on,,,,,0,0,2,,,,,0,,,38,0
36405,note_on,,,,,45,0,2,,,,,0,,,50,0
36480,note_on,,,,,120,0,1,,,,,0,,,62,0
36480,note_on,,,,,0,0,1,,,,,0,,,54,0
36480,end_of_track,,,,,0,1,1,,,,,,,,,
36480,control_change,,,,,0,0,1,,,,,0,64,0,,
