tick,type,numerator,denominator,clocks_per_click,notated_32nd_notes_per_beat,time,meta,track,tempo,control,value,channel,note,velocity
0,time_signature,6,8,12,8,0,1,0,,,,,,
0,end_of_track,,,,,0,1,7,,,,,,
0,track_name,,,,,0,1,7,,,,,,
0,end_of_track,,,,,0,1,6,,,,,,
0,track_name,,,,,0,1,6,,,,,,
0,end_of_track,,,,,0,1,5,,,,,,
0,track_name,,,,,0,1,5,,,,,,
0,end_of_track,,,,,0,1,4,,,,,,
0,track_name,,,,,0,1,4,,,,,,
0,end_of_track,,,,,0,1,3,,,,,,
0,control_change,,,,,0,0,2,,7,80,0,,
0,track_name,,,,,0,1,2,,,,,,
0,track_name,,,,,0,1,8,,,,,,
0,control_change,,,,,0,0,1,,7,80,0,,
0,track_name,,,,,0,1,1,,,,,,
0,end_of_track,,,,,0,1,8,,,,,,
0,set_tempo,,,,,0,1,0,227273,,,,,
600,control_change,,,,,0,0,1,,91,96,0,,
600,note_on,,,,,600,0,1,,,,0,67,45
600,set_tempo,,,,,600,1,0,277778,,,,,
720,set_tempo,,,,,120,1,0,227273,,,,,
720,note_on,,,,,720,0,2,,,,0,48,44
720,note_on,,,,,0,0,1,,,,0,75,40
720,note_off,,,,,120,0,1,,,,0,67,64
840,note_off,,,,,120,0,1,,,,0,75,64
840,note_off,,,,,120,0,2,,,,0,48,64
840,note_on,,,,,0,0,2,,,,0,51,32
960,note_off,,,,,120,0,2,,,,0,51,64
960,note_on,,,,,120,0,1,,,,0,75,32
960,note_on,,,,,0,0,2,,,,0,55,34
1080,note_on,,,,,0,0,2,,,,0,47,39
1080,note_off,,,,,120,0,1,,,,0,75,64
1080,note_on,,,,,0,0,1,,,,0,74,43
1080,note_off,,,,,120,0,2,,,,0,55,64
1200,note_off,,,,,120,0,1,,,,0,74,64
1200,note_on,,,,,0,0,2,,,,0,50,32
1200,note_off,,,,,120,0,2,,,,0,47,64
1320,note_off,,,,,120,0,2,,,,0,50,64
1320,note_on,,,,,0,0,2,,,,0,55,38
1320,note_on,,,,,120,0,1,,,,0,74,36
1440,note_off,,,,,120,0,2,,,,0,55,64
1440,note_on,,,,,0,0,2,,,,0,48,42
1440,note_off,,,,,120,0,1,,,,0,74,64
1440,note_on,,,,,0,0,1,,,,0,72,45
1560,note_off,,,,,120,0,2,,,,0,48,64
1560,note_on,,,,,0,0,2,,,,0,51,33
1560,note_off,,,,,120,0,1,,,,0,72,64
1680,note_on,,,,,0,0,2,,,,0,55,38
1680,note_off,,,,,120,0,2,,,,0,51,64
1680,note_on,,,,,120,0,1,,,,0,72,43
1800,note_on,,,,,0,0,2,,,,0,51,41
1800,note_on,,,,,0,0,1,,,,0,79,39
1800,note_off,,,,,120,0,2,,,,0,55,64
1800,note_off,,,,,120,0,1,,,,0,72,64
1920,note_off,,,,,120,0,1,,,,0,79,64
1920,note_on,,,,,0,0,2,,,,0,55,31
1920,note_off,,,,,120,0,2,,,,0,51,64
2040,note_on,,,,,120,0,1,,,,0,79,41
2040,note_on,,,,,0,0,2,,,,0,60,34
2040,note_off,,,,,120,0,2,,,,0,55,64
2160,note_off,,,,,120,0,1,,,,0,79,64
2160,note_on,,,,,0,0,1,,,,0,74,45
2160,note_on,,,,,0,0,2,,,,0,53,40
2160,note_off,,,,,120,0,2,,,,0,60,64
2280,note_on,,,,,0,0,2,,,,0,56,32
2280,note_off,,,,,120,0,2,,,,0,53,64
2280,note_off,,,,,120,0,1,,,,0,74,64
2400,note_off,,,,,120,0,2,,,,0,56,64
2400,note_on,,,,,0,0,2,,,,0,62,36
2400,note_on,,,,,120,0,1,,,,0,74,41
2520,note_on,,,,,0,0,1,,,,0,67,43
2520,note_off,,,,,120,0,1,,,,0,74,64
2520,note_off,,,,,120,0,2,,,,0,62,64
2520,note_on,,,,,0,0,2,,,,0,55,41
2640,note_off,,,,,120,0,1,,,,0,67,64
2640,note_off,,,,,120,0,2,,,,0,55,64
2640,note_on,,,,,0,0,2,,,,0,59,34
2760,note_off,,,,,120,0,2,,,,0,59,64
2760,note_on,,,,,0,0,2,,,,0,65,38
2760,note_on,,,,,120,0,1,,,,0,67,45
2880,note_off,,,,,120,0,1,,,,0,67,64
2880,note_on,,,,,0,0,1,,,,0,75,51
2880,note_on,,,,,0,0,2,,,,0,48,42
2880,note_off,,,,,120,0,2,,,,0,65,64
3000,note_off,,,,,120,0,2,,,,0,48,64
3000,note_on,,,,,0,0,2,,,,0,55,38
3000,note_off,,,,,120,0,1,,,,0,75,64
3120,note_off,,,,,120,0,2,,,,0,55,64
3120,note_on,,,,,0,0,2,,,,0,60,35
3120,note_on,,,,,120,0,1,,,,0,75,42
3240,note_on,,,,,0,0,2,,,,0,51,39
3240,note_off,,,,,120,0,2,,,,0,60,64
3240,note_off,,,,,120,0,1,,,,0,75,64
3240,note_on,,,,,0,0,1,,,,0,72,47
3360,note_off,,,,,120,0,1,,,,0,72,64
3360,note_off,,,,,120,0,2,,,,0,51,64
3360,note_on,,,,,0,0,2,,,,0,55,35
3480,note_on,,,,,120,0,1,,,,0,72,50
3480,note_off,,,,,120,0,2,,,,0,55,64
3480,note_on,,,,,0,0,2,,,,0,60,35
3600,note_off,,,,,120,0,2,,,,0,60,64
3600,note_on,,,,,0,0,1,,,,0,80,54
3600,note_off,,,,,120,0,1,,,,0,72,64
3600,note_on,,,,,0,0,2,,,,0,53,45
3720,note_off,,,,,120,0,2,,,,0,53,64
3720,note_on,,,,,0,0,2,,,,0,56,39
3720,note_off,,,,,120,0,1,,,,0,80,64
3840,note_on,,,,,120,0,1,,,,0,80,64
3840,note_off,,,,,120,0,2,,,,0,56,64
3840,note_on,,,,,0,0,2,,,,0,60,41
3960,note_off,,,,,120,0,2,,,,0,60,64
3960,note_on,,,,,0,0,2,,,,0,50,44
3960,note_on,,,,,0,0,1,,,,0,83,66
3960,note_off,,,,,120,0,1,,,,0,80,64
4080,note_off,,,,,120,0,2,,,,0,50,64
4080,note_on,,,,,0,0,2,,,,0,53,49
4080,note_off,,,,,120,0,1,,,,0,83,64
4200,note_on,,,,,120,0,1,,,,0,83,71
4200,note_on,,,,,0,0,2,,,,0,60,52
4200,note_off,,,,,120,0,2,,,,0,53,64
4320,note_on,,,,,0,0,2,,,,0,51,68
4320,note_off,,,,,120,0,2,,,,0,60,64
4320,note_on,,,,,0,0,1,,,,0,84,74
4320,note_off,,,,,120,0,1,,,,0,83,64
4440,note_off,,,,,120,0,1,,,,0,84,64
4440,note_on,,,,,0,0,2,,,,0,55,59
4440,note_off,,,,,120,0,2,,,,0,51,64
4560,note_on,,,,,0,0,2,,,,0,60,59
4560,note_on,,,,,120,0,1,,,,0,84,71
4560,note_off,,,,,120,0,2,,,,0,55,64
4680,note_off,,,,,120,0,1,,,,0,84,64
4680,note_on,,,,,0,0,2,,,,0,48,63
4680,note_off,,,,,120,0,2,,,,0,60,64
4680,note_on,,,,,0,0,1,,,,0,87,74
4800,note_off,,,,,120,0,1,,,,0,87,64
4800,note_off,,,,,120,0,2,,,,0,48,64
4800,note_on,,,,,0,0,2,,,,0,51,65
4920,note_on,,,,,120,0,1,,,,0,87,80
4920,note_on,,,,,0,0,2,,,,0,55,72
4920,note_off,,,,,120,0,2,,,,0,51,64
5040,note_off,,,,,120,0,1,,,,0,87,64
5040,note_on,,,,,0,0,1,,,,0,91,94
5040,note_off,,,,,120,0,2,,,,0,55,64
5040,note_on,,,,,0,0,2,,,,0,45,79
5160,note_on,,,,,0,0,2,,,,0,48,71
5160,note_off,,,,,120,0,2,,,,0,45,64
5160,note_off,,,,,120,0,1,,,,0,91,64
5280,note_off,,,,,120,0,2,,,,0,48,64
5280,note_on,,,,,0,0,2,,,,0,55,68
5280,note_on,,,,,120,0,1,,,,0,91,93
5400,note_off,,,,,120,0,2,,,,0,55,64
5400,note_on,,,,,0,0,2,,,,0,44,67
5400,note_off,,,,,120,0,1,,,,0,91,64
5400,note_on,,,,,0,0,1,,,,0,90,89
5520,note_on,,,,,0,0,2,,,,0,48,59
5520,note_off,,,,,120,0,2,,,,0,44,64
5520,note_off,,,,,120,0,1,,,,0,90,64
5640,note_on,,,,,0,0,2,,,,0,55,55
5640,note_off,,,,,120,0,2,,,,0,48,64
5640,note_on,,,,,120,0,1,,,,0,90,79
5760,note_on,,,,,0,0,2,,,,0,43,60
5760,note_off,,,,,120,0,2,,,,0,55,64
5760,note_on,,,,,0,0,1,,,,0,91,69
5760,note_off,,,,,120,0,1,,,,0,90,64
5880,note_off,,,,,120,0,2,,,,0,43,64
5880,note_on,,,,,0,0,2,,,,0,47,48
5880,note_off,,,,,120,0,1,,,,0,91,64
6000,note_off,,,,,120,0,2,,,,0,47,64
6000,note_on,,,,,0,0,2,,,,0,55,72
6000,note_on,,,,,120,0,1,,,,0,67,86
6000,control_change,,,,,0,0,1,,64,95,0,,
6120,note_on,,,,,0,0,2,,,,0,50,99
6120,note_off,,,,,120,0,2,,,,0,55,64
6120,note_off,,,,,120,0,1,,,,0,67,64
6120,note_on,,,,,0,0,1,,,,0,79,101
6240,note_on,,,,,0,0,2,,,,0,53,64
6240,note_off,,,,,120,0,2,,,,0,50,64
6240,note_off,,,,,120,0,1,,,,0,79,64
6346,control_change,,,,,106,0,1,,64,0,0,,
6360,note_on,,,,,0,0,2,,,,0,55,41
6360,note_off,,,,,120,0,2,,,,0,53,64
6360,note_on,,,,,14,0,1,,,,0,67,86
6480,note_on,,,,,0,0,2,,,,0,48,44
6480,note_off,,,,,120,0,2,,,,0,55,64
6480,note_on,,,,,0,0,1,,,,0,75,40
6480,note_off,,,,,120,0,1,,,,0,67,64
6600,note_off,,,,,120,0,2,,,,0,48,64
6600,note_off,,,,,120,0,1,,,,0,75,64
6600,note_on,,,,,0,0,2,,,,0,51,32
6720,note_on,,,,,120,0,1,,,,0,75,32
6720,note_on,,,,,0,0,2,,,,0,55,34
6720,note_off,,,,,120,0,2,,,,0,51,64
6840,note_off,,,,,120,0,1,,,,0,75,64
6840,note_on,,,,,0,0,1,,,,0,74,43
6840,note_off,,,,,120,0,2,,,,0,55,64
6840,note_on,,,,,0,0,2,,,,0,47,39
6960,note_off,,,,,120,0,1,,,,0,74,64
6960,note_off,,,,,120,0,2,,,,0,47,64
6960,note_on,,,,,0,0,2,,,,0,50,32
7080,note_on,,,,,120,0,1,,,,0,74,36
7080,note_off,,,,,120,0,2,,,,0,50,64
7080,note_on,,,,,0,0,2,,,,0,55,38
7200,note_on,,,,,0,0,2,,,,0,48,42
7200,note_off,,,,,120,0,2,,,,0,55,64
7200,note_off,,,,,120,0,1,,,,0,74,64
7200,note_on,,,,,0,0,1,,,,0,72,45
7320,note_off,,,,,120,0,1,,,,0,72,64
7320,note_off,,,,,120,0,2,,,,0,48,64
7320,note_on,,,,,0,0,2,,,,0,51,33
7440,note_off,,,,,120,0,2,,,,0,51,64
7440,note_on,,,,,120,0,1,,,,0,72,43
7440,note_on,,,,,0,0,2,,,,0,55,38
7560,note_on,,,,,0,0,1,,,,0,79,44
7560,note_off,,,,,120,0,2,,,,0,55,64
7560,note_off,,,,,120,0,1,,,,0,72,64
7560,note_on,,,,,0,0,2,,,,0,51,41
7680,note_off,,,,,120,0,2,,,,0,51,64
7680,note_off,,,,,120,0,1,,,,0,79,64
7680,note_on,,,,,0,0,2,,,,0,55,31
7800,note_off,,,,,120,0,2,,,,0,55,64
7800,note_on,,,,,0,0,2,,,,0,60,34
7800,note_on,,,,,120,0,1,,,,0,79,42
7920,note_off,,,,,120,0,1,,,,0,79,64
7920,note_off,,,,,120,0,2,,,,0,60,64
7920,note_on,,,,,0,0,2,,,,0,53,40
7920,note_on,,,,,0,0,1,,,,0,74,48
8040,note_off,,,,,120,0,2,,,,0,53,64
8040,note_on,,,,,0,0,2,,,,0,56,32
8040,note_off,,,,,120,0,1,,,,0,74,64
8160,note_off,,,,,120,0,2,,,,0,56,64
8160,note_on,,,,,0,0,2,,,,0,62,36
8160,note_on,,,,,120,0,1,,,,0,74,42
8280,note_off,,,,,120,0,1,,,,0,74,64
8280,note_on,,,,,0,0,1,,,,0,67,50
8280,note_on,,,,,0,0,2,,,,0,55,41
8280,note_off,,,,,120,0,2,,,,0,62,64
8400,note_off,,,,,120,0,1,,,,0,67,64
8400,note_on,,,,,0,0,2,,,,0,59,34
8400,note_off,,,,,120,0,2,,,,0,55,64
8520,note_on,,,,,120,0,1,,,,0,67,44
8520,note_on,,,,,0,0,2,,,,0,65,38
8520,note_off,,,,,120,0,2,,,,0,59,64
8640,note_on,,,,,0,0,2,,,,0,48,42
8640,note_off,,,,,120,0,2,,,,0,65,64
8640,note_on,,,,,0,0,1,,,,0,75,50
8640,note_off,,,,,120,0,1,,,,0,67,64
8760,note_off,,,,,120,0,2,,,,0,48,64
8760,note_off,,,,,120,0,1,,,,0,75,64
8760,note_on,,,,,0,0,2,,,,0,55,41
8880,note_on,,,,,120,0,1,,,,0,75,51
8880,note_off,,,,,120,0,2,,,,0,55,64
8880,note_on,,,,,0,0,2,,,,0,60,43
9000,note_on,,,,,0,0,2,,,,0,51,45
9000,note_off,,,,,120,0,2,,,,0,60,64
9000,note_on,,,,,0,0,1,,,,0,72,57
9000,note_off,,,,,120,0,1,,,,0,75,64
9120,note_off,,,,,120,0,2,,,,0,51,64
9120,note_on,,,,,0,0,2,,,,0,55,46
9120,note_off,,,,,120,0,1,,,,0,72,64
9140,set_tempo,,,,,8420,1,0,226415,,,,,
9240,note_on,,,,,120,0,1,,,,0,72,58
9240,note_off,,,,,120,0,2,,,,0,55,64
9240,note_on,,,,,0,0,2,,,,0,60,49
9360,note_on,,,,,0,0,1,,,,0,80,64
9360,note_off,,,,,120,0,1,,,,0,72,64
9360,note_off,,,,,120,0,2,,,,0,60,64
9360,note_on,,,,,0,0,2,,,,0,53,61
9480,note_on,,,,,0,0,2,,,,0,56,54
9480,note_off,,,,,120,0,1,,,,0,80,64
9480,note_off,,,,,120,0,2,,,,0,53,64
9540,set_tempo,,,,,400,1,0,225564,,,,,
9600,note_on,,,,,120,0,1,,,,0,80,66
9600,note_off,,,,,120,0,2,,,,0,56,64
9600,note_on,,,,,0,0,2,,,,0,60,56
9720,note_off,,,,,120,0,2,,,,0,60,64
9720,note_on,,,,,0,0,1,,,,0,83,73
9720,note_off,,,,,120,0,1,,,,0,80,64
9720,note_on,,,,,0,0,2,,,,0,50,59
9840,note_off,,,,,120,0,1,,,,0,83,64
9840,note_on,,,,,0,0,2,,,,0,53,63
9840,note_off,,,,,120,0,2,,,,0,50,64
9960,note_off,,,,,120,0,2,,,,0,53,64
9960,note_on,,,,,0,0,2,,,,0,60,65
9960,note_on,,,,,120,0,1,,,,0,83,75
10080,note_off,,,,,120,0,1,,,,0,83,64
10080,note_on,,,,,0,0,1,,,,0,84,81
10080,note_off,,,,,120,0,2,,,,0,60,64
10080,note_on,,,,,0,0,2,,,,0,51,78
10200,note_off,,,,,120,0,2,,,,0,51,64
10200,note_off,,,,,120,0,1,,,,0,84,64
10200,note_on,,,,,0,0,2,,,,0,55,69
10320,note_on,,,,,0,0,2,,,,0,60,71
10320,note_off,,,,,120,0,2,,,,0,55,64
10320,note_on,,,,,120,0,1,,,,0,84,81
10340,set_tempo,,,,,800,1,0,223881,,,,,
10440,note_on,,,,,0,0,1,,,,0,87,89
10440,note_off,,,,,120,0,1,,,,0,84,64
10440,note_off,,,,,120,0,2,,,,0,60,64
10440,note_on,,,,,0,0,2,,,,0,48,79
10560,note_off,,,,,120,0,2,,,,0,48,64
10560,note_on,,,,,0,0,2,,,,0,51,94
10560,note_off,,,,,120,0,1,,,,0,87,64
10680,note_on,,,,,120,0,1,,,,0,87,88
10680,note_off,,,,,120,0,2,,,,0,51,64
10680,note_on,,,,,0,0,2,,,,0,55,105
10800,note_off,,,,,120,0,1,,,,0,87,64
10800,note_on,,,,,0,0,1,,,,0,91,105
10800,note_off,,,,,120,0,2,,,,0,55,64
10800,note_on,,,,,0,0,2,,,,0,43,118
10800,control_change,,,,,0,0,1,,64,96,0,,
10920,note_off,,,,,120,0,1,,,,0,91,64
10920,note_off,,,,,120,0,2,,,,0,43,64
10920,note_on,,,,,0,0,2,,,,0,48,97
11040,note_on,,,,,120,0,1,,,,0,91,99
11040,note_on,,,,,0,0,2,,,,0,51,101
11040,note_off,,,,,120,0,2,,,,0,48,64
11152,control_change,,,,,112,0,1,,64,0,0,,
11160,note_off,,,,,8,0,1,,,,0,91,64
11160,note_on,,,,,0,0,2,,,,0,43,103
11160,note_off,,,,,120,0,2,,,,0,51,64
11160,note_on,,,,,0,0,1,,,,0,91,103
11160,control_change,,,,,0,0,1,,64,95,0,,
11280,note_on,,,,,0,0,2,,,,0,47,107
11280,note_off,,,,,120,0,2,,,,0,43,64
11280,note_off,,,,,120,0,1,,,,0,91,64
11400,note_on,,,,,120,0,1,,,,0,91,103
11400,note_on,,,,,0,0,2,,,,0,50,110
11400,note_off,,,,,120,0,2,,,,0,47,64
11460,set_tempo,,,,,1120,1,0,221402,,,,,
11506,control_change,,,,,106,0,1,,64,0,0,,
11520,note_off,,,,,120,0,2,,,,0,50,64
11520,note_off,,,,,14,0,1,,,,0,91,64
11520,control_change,,,,,0,0,1,,64,95,0,,
11520,note_on,,,,,0,0,1,,,,0,96,122
11520,note_on,,,,,0,0,2,,,,0,36,116
11640,note_off,,,,,120,0,1,,,,0,96,64
11640,note_off,,,,,120,0,2,,,,0,36,64
11640,note_on,,,,,0,0,2,,,,0,39,100
11760,note_on,,,,,0,0,2,,,,0,43,89
11760,note_off,,,,,120,0,2,,,,0,39,64
11872,control_change,,,,,232,0,1,,64,0,0,,
11880,note_off,,,,,120,0,2,,,,0,43,64
11880,note_on,,,,,0,0,2,,,,0,48,81
12000,note_off,,,,,120,0,2,,,,0,48,64
12000,note_on,,,,,0,0,2,,,,0,51,73
12040,set_tempo,,,,,580,1,0,219780,,,,,
12120,note_off,,,,,120,0,2,,,,0,51,64
12120,note_on,,,,,0,0,2,,,,0,55,68
12120,note_on,,,,,248,0,1,,,,0,79,45
12140,set_tempo,,,,,100,1,0,218978,,,,,
12240,note_off,,,,,120,0,1,,,,0,79,64
12240,note_on,,,,,0,0,2,,,,0,53,59
12240,note_on,,,,,0,0,1,,,,0,80,57
12240,note_off,,,,,120,0,2,,,,0,55,64
12360,note_off,,,,,120,0,2,,,,0,53,64
12360,note_on,,,,,0,0,2,,,,0,56,53
12360,note_off,,,,,120,0,1,,,,0,80,64
12480,note_off,,,,,120,0,2,,,,0,56,64
12480,note_on,,,,,0,0,2,,,,0,59,46
12480,note_on,,,,,120,0,1,,,,0,80,45
12500,set_tempo,,,,,360,1,0,219780,,,,,
12600,note_on,,,,,0,0,2,,,,0,50,47
12600,note_on,,,,,0,0,1,,,,0,77,54
12600,note_off,,,,,120,0,2,,,,0,59,64
12600,note_off,,,,,120,0,1,,,,0,80,64
12720,note_off,,,,,120,0,1,,,,0,77,64
12720,note_on,,,,,0,0,2,,,,0,53,44
12720,note_off,,,,,120,0,2,,,,0,50,64
12820,set_tempo,,,,,320,1,0,221402,,,,,
12840,note_off,,,,,120,0,2,,,,0,53,64
12840,note_on,,,,,0,0,2,,,,0,56,41
12840,note_on,,,,,120,0,1,,,,0,77,45
12960,note_off,,,,,120,0,1,,,,0,77,64
12960,note_on,,,,,0,0,1,,,,0,74,50
12960,note_off,,,,,120,0,2,,,,0,56,64
12960,note_on,,,,,0,0,2,,,,0,47,40
13080,note_off,,,,,120,0,1,,,,0,74,64
13080,note_on,,,,,0,0,2,,,,0,50,36
13080,note_off,,,,,120,0,2,,,,0,47,64
13100,set_tempo,,,,,280,1,0,222222,,,,,
13200,note_off,,,,,120,0,2,,,,0,50,64
13200,note_on,,,,,120,0,1,,,,0,74,45
13200,note_on,,,,,0,0,2,,,,0,53,35
13320,note_off,,,,,120,0,1,,,,0,74,64
13320,note_on,,,,,0,0,1,,,,0,83,55
13320,note_off,,,,,120,0,2,,,,0,53,64
13320,note_on,,,,,0,0,2,,,,0,43,36
13440,note_off,,,,,120,0,1,,,,0,83,64
13440,note_off,,,,,120,0,2,,,,0,43,64
13440,note_on,,,,,0,0,2,,,,0,50,40
13460,set_tempo,,,,,360,1,0,224719,,,,,
13560,note_on,,,,,0,0,2,,,,0,53,43
13560,note_off,,,,,120,0,2,,,,0,50,64
13560,note_on,,,,,120,0,1,,,,0,83,51
13680,note_on,,,,,0,0,2,,,,0,44,48
13680,note_off,,,,,120,0,2,,,,0,53,64
13680,note_on,,,,,0,0,1,,,,0,84,61
13680,note_off,,,,,120,0,1,,,,0,83,64
13800,note_on,,,,,0,0,2,,,,0,48,43
13800,note_off,,,,,120,0,2,,,,0,44,64
13800,note_off,,,,,120,0,1,,,,0,84,64
13920,note_off,,,,,120,0,2,,,,0,48,64
13920,note_on,,,,,120,0,1,,,,0,84,52
13920,note_on,,,,,0,0,2,,,,0,51,41
14020,set_tempo,,,,,560,1,0,226415,,,,,
14040,note_off,,,,,120,0,1,,,,0,84,64
14040,note_on,,,,,0,0,2,,,,0,42,40
14040,note_off,,,,,120,0,2,,,,0,51,64
14040,note_on,,,,,0,0,1,,,,0,72,56
14160,note_off,,,,,120,0,2,,,,0,42,64
14160,note_on,,,,,0,0,2,,,,0,48,40
14160,note_off,,,,,120,0,1,,,,0,72,64
14240,set_tempo,,,,,220,1,0,229008,,,,,
14280,note_off,,,,,120,0,2,,,,0,48,64
14280,note_on,,,,,0,0,2,,,,0,51,45
14280,note_on,,,,,120,0,1,,,,0,72,40
14400,note_off,,,,,120,0,2,,,,0,51,64
14400,note_on,,,,,0,0,2,,,,0,43,48
14400,note_on,,,,,0,0,1,,,,0,79,52
14400,note_off,,,,,120,0,1,,,,0,72,64
14420,set_tempo,,,,,180,1,0,227273,,,,,
14460,set_tempo,,,,,40,1,0,222222,,,,,
14520,note_off,,,,,120,0,1,,,,0,79,64
14520,note_on,,,,,0,0,2,,,,0,47,52
14520,note_off,,,,,120,0,2,,,,0,43,64
14640,note_on,,,,,120,0,1,,,,0,90,60
14640,note_on,,,,,0,0,2,,,,0,50,56
14640,note_off,,,,,120,0,2,,,,0,47,64
14660,set_tempo,,,,,200,1,0,220588,,,,,
14760,note_off,,,,,120,0,1,,,,0,90,64
14760,note_on,,,,,0,0,2,,,,0,47,61
14760,note_off,,,,,120,0,2,,,,0,50,64
14760,note_on,,,,,0,0,1,,,,0,91,71
14780,set_tempo,,,,,120,1,0,218978,,,,,
14880,note_off,,,,,120,0,1,,,,0,91,64
14880,note_on,,,,,0,0,2,,,,0,50,64
14880,note_off,,,,,120,0,2,,,,0,47,64
14880,note_on,,,,,0,0,1,,,,0,90,82
14940,set_tempo,,,,,160,1,0,216606,,,,,
15000,note_off,,,,,120,0,1,,,,0,90,64
15000,note_on,,,,,0,0,1,,,,0,91,93
15000,note_off,,,,,120,0,2,,,,0,50,64
15000,note_on,,,,,0,0,2,,,,0,55,69
15100,set_tempo,,,,,160,1,0,214286,,,,,
15120,control_change,,,,,0,0,1,,64,95,0,,
15120,note_on,,,,,0,0,2,,,,0,53,72
15120,note_on,,,,,0,0,1,,,,0,92,99
15120,note_off,,,,,120,0,1,,,,0,91,64
15120,note_off,,,,,120,0,2,,,,0,55,64
15240,note_off,,,,,120,0,2,,,,0,53,64
15240,note_on,,,,,0,0,2,,,,0,56,73
15240,note_off,,,,,120,0,1,,,,0,92,64
15360,note_on,,,,,0,0,2,,,,0,59,67
15360,note_on,,,,,120,0,1,,,,0,92,87
15360,note_off,,,,,120,0,2,,,,0,56,64
15440,control_change,,,,,80,0,1,,64,0,0,,
15480,note_off,,,,,40,0,1,,,,0,92,64
15480,note_on,,,,,0,0,1,,,,0,89,84
15480,note_on,,,,,0,0,2,,,,0,50,60
15480,note_off,,,,,120,0,2,,,,0,59,64
15500,set_tempo,,,,,400,1,0,215054,,,,,
15600,note_off,,,,,120,0,1,,,,0,89,64
15600,note_off,,,,,120,0,2,,,,0,50,64
15600,note_on,,,,,0,0,2,,,,0,53,56
15720,note_off,,,,,120,0,2,,,,0,53,64
15720,note_on,,,,,120,0,1,,,,0,89,75
15720,note_on,,,,,0,0,2,,,,0,56,49
15840,note_on,,,,,0,0,2,,,,0,47,44
15840,note_off,,,,,120,0,2,,,,0,56,64
15840,note_off,,,,,120,0,1,,,,0,89,64
15840,note_on,,,,,0,0,1,,,,0,86,70
15960,note_off,,,,,120,0,2,,,,0,47,64
15960,note_on,,,,,0,0,2,,,,0,50,42
15960,note_off,,,,,120,0,1,,,,0,86,64
16080,note_on,,,,,120,0,1,,,,0,86,57
16080,note_off,,,,,120,0,2,,,,0,50,64
16080,note_on,,,,,0,0,2,,,,0,53,45
16200,note_off,,,,,120,0,1,,,,0,86,64
16200,note_on,,,,,0,0,1,,,,0,83,60
16200,note_off,,,,,120,0,2,,,,0,53,64
16200,note_on,,,,,0,0,2,,,,0,43,47
16280,set_tempo,,,,,780,1,0,216606,,,,,
16320,note_on,,,,,0,0,2,,,,0,50,42
16320,note_off,,,,,120,0,2,,,,0,43,64
16320,note_off,,,,,120,0,1,,,,0,83,64
16440,note_on,,,,,0,0,2,,,,0,53,47
16440,note_off,,,,,120,0,2,,,,0,50,64
16440,note_on,,,,,120,0,1,,,,0,83,67
16540,set_tempo,,,,,260,1,0,219780,,,,,
16560,note_on,,,,,0,0,2,,,,0,44,51
16560,note_off,,,,,120,0,2,,,,0,53,64
16560,note_off,,,,,120,0,1,,,,0,83,64
16560,note_on,,,,,0,0,1,,,,0,84,70
16680,note_off,,,,,120,0,2,,,,0,44,64
16680,note_on,,,,,0,0,2,,,,0,48,40
16680,note_off,,,,,120,0,1,,,,0,84,64
16760,set_tempo,,,,,220,1,0,221402,,,,,
16800,note_off,,,,,120,0,2,,,,0,48,64
16800,note_on,,,,,0,0,2,,,,0,51,36
16800,note_on,,,,,120,0,1,,,,0,84,64
16920,note_off,,,,,120,0,1,,,,0,84,64
16920,note_on,,,,,0,0,1,,,,0,78,62
16920,note_off,,,,,120,0,2,,,,0,51,64
16920,note_on,,,,,0,0,2,,,,0,44,41
16980,set_tempo,,,,,220,1,0,225564,,,,,
17040,note_off,,,,,120,0,2,,,,0,44,64
17040,note_off,,,,,120,0,1,,,,0,78,64
17040,note_on,,,,,0,0,2,,,,0,48,37
17160,note_on,,,,,0,0,2,,,,0,50,39
17160,note_off,,,,,120,0,2,,,,0,48,64
17160,note_on,,,,,120,0,1,,,,0,78,52
17280,note_off,,,,,120,0,2,,,,0,50,64
17280,note_on,,,,,0,0,1,,,,0,79,48
17280,note_off,,,,,120,0,1,,,,0,78,64
17280,note_on,,,,,0,0,2,,,,0,43,43
17380,set_tempo,,,,,400,1,0,227273,,,,,
17400,note_off,,,,,120,0,2,,,,0,43,64
17400,note_on,,,,,0,0,2,,,,0,47,47
17460,set_tempo,,,,,80,1,0,229885,,,,,
17480,set_tempo,,,,,20,1,0,230769,,,,,
17520,note_on,,,,,0,0,2,,,,0,50,52
17520,note_off,,,,,120,0,2,,,,0,47,64
17520,note_off,,,,,240,0,1,,,,0,79,64
17640,note_on,,,,,0,0,2,,,,0,55,56
17640,set_tempo,,,,,160,1,0,234375,,,,,
17640,note_off,,,,,120,0,2,,,,0,50,64
17760,note_off,,,,,120,0,2,,,,0,55,64
17760,note_on,,,,,0,0,2,,,,0,53,52
17760,set_tempo,,,,,120,1,0,240964,,,,,
17800,set_tempo,,,,,40,1,0,245902,,,,,
17880,note_off,,,,,120,0,2,,,,0,53,64
17880,note_on,,,,,0,0,2,,,,0,50,47
17880,set_tempo,,,,,80,1,0,250000,,,,,
17880,note_on,,,,,360,0,1,,,,0,67,61
17940,set_tempo,,,,,60,1,0,255319,,,,,
17980,set_tempo,,,,,40,1,0,254237,,,,,
18000,note_off,,,,,120,0,1,,,,0,67,64
18000,note_on,,,,,0,0,1,,,,0,75,50
18000,note_off,,,,,120,0,2,,,,0,50,64
18000,note_on,,,,,0,0,2,,,,0,48,40
18000,set_tempo,,,,,20,1,0,234375,,,,,
18040,set_tempo,,,,,40,1,0,230769,,,,,
18120,note_off,,,,,120,0,1,,,,0,75,64
18120,note_on,,,,,0,0,2,,,,0,51,32
18120,note_off,,,,,120,0,2,,,,0,48,64
18240,note_on,,,,,0,0,2,,,,0,55,34
18240,note_off,,,,,120,0,2,,,,0,51,64
18240,note_on,,,,,120,0,1,,,,0,75,51
18360,note_on,,,,,0,0,2,,,,0,47,39
18360,note_off,,,,,120,0,2,,,,0,55,64
18360,note_on,,,,,0,0,1,,,,0,74,50
18360,note_off,,,,,120,0,1,,,,0,75,64
18380,set_tempo,,,,,340,1,0,231660,,,,,
18480,note_off,,,,,120,0,1,,,,0,74,64
18480,note_off,,,,,120,0,2,,,,0,47,64
18480,note_on,,,,,0,0,2,,,,0,50,32
18500,set_tempo,,,,,120,1,0,230769,,,,,
18600,note_on,,,,,0,0,2,,,,0,55,38
18600,note_on,,,,,120,0,1,,,,0,74,49
18600,note_off,,,,,120,0,2,,,,0,50,64
18720,note_off,,,,,120,0,2,,,,0,55,64
18720,note_on,,,,,0,0,2,,,,0,48,42
18720,note_on,,,,,0,0,1,,,,0,72,49
18720,note_off,,,,,120,0,1,,,,0,74,64
18740,set_tempo,,,,,240,1,0,229885,,,,,
18840,note_on,,,,,0,0,2,,,,0,51,33
18840,note_off,,,,,120,0,1,,,,0,72,64
18840,note_off,,,,,120,0,2,,,,0,48,64
18960,note_off,,,,,120,0,2,,,,0,51,64
18960,note_on,,,,,0,0,2,,,,0,55,38
18960,note_on,,,,,120,0,1,,,,0,72,52
18980,set_tempo,,,,,240,1,0,229008,,,,,
19080,note_on,,,,,0,0,1,,,,0,79,54
19080,note_off,,,,,120,0,2,,,,0,55,64
19080,note_on,,,,,0,0,2,,,,0,51,41
19080,note_off,,,,,120,0,1,,,,0,72,64
19140,set_tempo,,,,,160,1,0,227273,,,,,
19200,note_off,,,,,120,0,2,,,,0,51,64
19200,note_on,,,,,0,0,2,,,,0,55,31
19200,note_off,,,,,120,0,1,,,,0,79,64
19320,note_on,,,,,0,0,2,,,,0,60,34
19320,note_off,,,,,120,0,2,,,,0,55,64
19320,note_on,,,,,120,0,1,,,,0,79,55
19340,set_tempo,,,,,200,1,0,226415,,,,,
19440,note_on,,,,,0,0,2,,,,0,53,40
19440,note_off,,,,,120,0,2,,,,0,60,64
19440,note_on,,,,,0,0,1,,,,0,74,56
19440,note_off,,,,,120,0,1,,,,0,79,64
19500,set_tempo,,,,,160,1,0,225564,,,,,
19560,note_on,,,,,0,0,2,,,,0,56,32
19560,note_off,,,,,120,0,2,,,,0,53,64
19560,note_off,,,,,120,0,1,,,,0,74,64
19680,note_off,,,,,120,0,2,,,,0,56,64
19680,note_on,,,,,120,0,1,,,,0,74,58
19680,note_on,,,,,0,0,2,,,,0,62,36
19800,note_off,,,,,120,0,2,,,,0,62,64
19800,note_off,,,,,120,0,1,,,,0,74,64
19800,note_on,,,,,0,0,1,,,,0,67,59
19800,note_on,,,,,0,0,2,,,,0,55,41
19840,set_tempo,,,,,340,1,0,224719,,,,,
19920,note_on,,,,,0,0,2,,,,0,59,41
19920,note_off,,,,,120,0,2,,,,0,55,64
19920,note_off,,,,,120,0,1,,,,0,67,64
20040,note_on,,,,,0,0,2,,,,0,65,44
20040,note_off,,,,,120,0,2,,,,0,59,64
20040,note_on,,,,,120,0,1,,,,0,67,62
20080,set_tempo,,,,,240,1,0,223881,,,,,
20160,note_off,,,,,120,0,1,,,,0,67,64
20160,note_on,,,,,0,0,1,,,,0,75,64
20160,note_on,,,,,0,0,2,,,,0,48,47
20160,note_off,,,,,120,0,2,,,,0,65,64
20280,note_off,,,,,120,0,1,,,,0,75,64
20280,note_on,,,,,0,0,2,,,,0,55,51
20280,note_off,,,,,120,0,2,,,,0,48,64
20360,set_tempo,,,,,280,1,0,222222,,,,,
20400,note_on,,,,,120,0,1,,,,0,68,92
20400,control_change,,,,,0,0,1,,64,95,0,,
20400,set_tempo,,,,,40,1,0,250000,,,,,
20400,note_off,,,,,120,0,2,,,,0,55,64
20400,note_on,,,,,0,0,2,,,,0,60,79
20520,note_on,,,,,0,0,2,,,,0,48,110
20520,note_on,,,,,0,0,1,,,,0,80,111
20520,note_off,,,,,120,0,2,,,,0,60,64
20520,note_off,,,,,120,0,1,,,,0,68,64
20640,note_off,,,,,120,0,2,,,,0,48,64
20640,note_off,,,,,120,0,1,,,,0,80,64
20640,note_on,,,,,0,0,2,,,,0,51,62
20700,set_tempo,,,,,300,1,0,248963,,,,,
20746,control_change,,,,,106,0,1,,64,0,0,,
20760,note_off,,,,,120,0,2,,,,0,51,64
20760,note_on,,,,,0,0,2,,,,0,56,49
20760,note_on,,,,,14,0,1,,,,0,68,68
20780,set_tempo,,,,,80,1,0,221402,,,,,
20880,note_on,,,,,0,0,1,,,,0,77,65
20880,note_off,,,,,120,0,1,,,,0,68,64
20880,note_off,,,,,120,0,2,,,,0,56,64
20880,note_on,,,,,0,0,2,,,,0,49,45
20980,set_tempo,,,,,200,1,0,220588,,,,,
21000,note_on,,,,,0,0,2,,,,0,53,44
21000,note_off,,,,,120,0,1,,,,0,77,64
21000,note_off,,,,,120,0,2,,,,0,49,64
21120,note_off,,,,,120,0,2,,,,0,53,64
21120,note_on,,,,,0,0,2,,,,0,56,40
21120,note_on,,,,,120,0,1,,,,0,77,60
21240,note_off,,,,,120,0,2,,,,0,56,64
21240,note_on,,,,,0,0,2,,,,0,48,38
21240,note_on,,,,,0,0,1,,,,0,75,58
21240,note_off,,,,,120,0,1,,,,0,77,64
21360,note_off,,,,,120,0,2,,,,0,48,64
21360,note_off,,,,,120,0,1,,,,0,75,64
21360,note_on,,,,,0,0,2,,,,0,54,36
21420,set_tempo,,,,,440,1,0,219780,,,,,
21480,note_on,,,,,0,0,2,,,,0,56,38
21480,note_off,,,,,120,0,2,,,,0,54,64
21480,note_on,,,,,120,0,1,,,,0,75,58
21600,note_off,,,,,120,0,2,,,,0,56,64
21600,note_on,,,,,0,0,2,,,,0,49,45
21600,note_on,,,,,0,0,1,,,,0,73,58
21600,note_off,,,,,120,0,1,,,,0,75,64
21720,note_off,,,,,120,0,2,,,,0,49,64
21720,note_on,,,,,0,0,2,,,,0,53,43
21720,note_off,,,,,120,0,1,,,,0,73,64
21720,set_tempo,,,,,300,1,0,218978,,,,,
21840,note_on,,,,,120,0,1,,,,0,73,58
21840,note_on,,,,,0,0,2,,,,0,56,42
21840,note_off,,,,,120,0,2,,,,0,53,64
21960,note_off,,,,,120,0,1,,,,0,73,64
21960,note_on,,,,,0,0,2,,,,0,53,42
21960,note_off,,,,,120,0,2,,,,0,56,64
21960,note_on,,,,,0,0,1,,,,0,80,58
22080,note_on,,,,,0,0,2,,,,0,56,42
22080,note_off,,,,,120,0,2,,,,0,53,64
22080,note_off,,,,,120,0,1,,,,0,80,64
22200,note_on,,,,,120,0,1,,,,0,80,60
22200,note_off,,,,,120,0,2,,,,0,56,64
22200,note_on,,,,,0,0,2,,,,0,61,44
22220,set_tempo,,,,,500,1,0,217391,,,,,
22320,note_on,,,,,0,0,1,,,,0,75,60
22320,note_off,,,,,120,0,2,,,,0,61,64
22320,note_off,,,,,120,0,1,,,,0,80,64
22320,note_on,,,,,0,0,2,,,,0,54,49
22440,note_off,,,,,120,0,1,,,,0,75,64
22440,note_off,,,,,120,0,2,,,,0,54,64
22440,note_on,,,,,0,0,2,,,,0,58,52
22520,set_tempo,,,,,300,1,0,216606,,,,,
22560,note_on,,,,,0,0,2,,,,0,63,55
22560,note_on,,,,,120,0,1,,,,0,75,63
22560,note_off,,,,,120,0,2,,,,0,58,64
22680,note_off,,,,,120,0,2,,,,0,63,64
22680,note_on,,,,,0,0,1,,,,0,68,66
22680,note_off,,,,,120,0,1,,,,0,75,64
22680,note_on,,,,,0,0,2,,,,0,56,57
22780,set_tempo,,,,,260,1,0,215827,,,,,
22800,note_off,,,,,120,0,2,,,,0,56,64
22800,note_on,,,,,0,0,2,,,,0,60,60
22800,note_off,,,,,120,0,1,,,,0,68,64
22920,note_off,,,,,120,0,2,,,,0,60,64
22920,note_on,,,,,0,0,2,,,,0,66,63
22920,note_on,,,,,120,0,1,,,,0,68,71
23040,note_off,,,,,120,0,2,,,,0,66,64
23040,note_on,,,,,0,0,2,,,,0,49,65
23040,note_on,,,,,0,0,1,,,,0,77,76
23040,note_off,,,,,120,0,1,,,,0,68,64
23160,set_tempo,,,,,380,1,0,215054,,,,,
23160,note_off,,,,,120,0,2,,,,0,49,64
23160,note_on,,,,,0,0,2,,,,0,56,69
23160,note_off,,,,,120,0,1,,,,0,77,64
23280,note_off,,,,,120,0,2,,,,0,56,64
23280,note_on,,,,,0,0,2,,,,0,61,90
23280,control_change,,,,,0,0,1,,64,95,0,,
23280,note_on,,,,,120,0,1,,,,0,70,100
23280,set_tempo,,,,,120,1,0,250000,,,,,
23400,note_off,,,,,120,0,1,,,,0,70,64
23400,note_on,,,,,0,0,1,,,,0,82,122
23400,note_off,,,,,120,0,2,,,,0,61,64
23400,note_on,,,,,0,0,2,,,,0,49,120
23520,note_off,,,,,120,0,1,,,,0,82,64
23520,note_off,,,,,120,0,2,,,,0,49,64
23520,note_on,,,,,0,0,2,,,,0,53,62
23626,control_change,,,,,106,0,1,,64,0,0,,
23640,note_off,,,,,120,0,2,,,,0,53,64
23640,note_on,,,,,0,0,2,,,,0,58,58
23640,note_on,,,,,14,0,1,,,,0,70,63
23640,set_tempo,,,,,360,1,0,229008,,,,,
23660,set_tempo,,,,,20,1,0,215827,,,,,
23760,note_on,,,,,0,0,2,,,,0,51,53
23760,note_on,,,,,0,0,1,,,,0,78,55
23760,set_tempo,,,,,100,1,0,215054,,,,,
23760,note_off,,,,,120,0,1,,,,0,70,64
23760,note_off,,,,,120,0,2,,,,0,58,64
23880,note_on,,,,,0,0,2,,,,0,54,47
23880,note_off,,,,,120,0,1,,,,0,78,64
23880,note_off,,,,,120,0,2,,,,0,51,64
23940,set_tempo,,,,,180,1,0,214286,,,,,
24000,note_on,,,,,0,0,2,,,,0,58,47
24000,note_off,,,,,120,0,2,,,,0,54,64
24000,note_on,,,,,120,0,1,,,,0,78,59
24040,set_tempo,,,,,100,1,0,212766,,,,,
24120,note_on,,,,,0,0,2,,,,0,50,48
24120,note_off,,,,,120,0,2,,,,0,58,64
24120,note_off,,,,,120,0,1,,,,0,78,64
24120,note_on,,,,,0,0,1,,,,0,77,62
24240,note_off,,,,,120,0,2,,,,0,50,64
24240,note_on,,,,,0,0,2,,,,0,56,50
24240,note_off,,,,,120,0,1,,,,0,77,64
24360,note_off,,,,,120,0,2,,,,0,56,64
24360,note_on,,,,,0,0,2,,,,0,58,55
24360,note_on,,,,,120,0,1,,,,0,77,73
24400,set_tempo,,,,,360,1,0,212014,,,,,
24480,note_on,,,,,0,0,1,,,,0,75,84
24480,note_on,,,,,0,0,2,,,,0,51,65
24480,note_off,,,,,120,0,2,,,,0,58,64
24480,note_off,,,,,120,0,1,,,,0,77,64
24580,set_tempo,,,,,180,1,0,211268,,,,,
24600,note_on,,,,,0,0,2,,,,0,54,75
24600,note_off,,,,,120,0,1,,,,0,75,64
24600,note_off,,,,,120,0,2,,,,0,51,64
24700,set_tempo,,,,,120,1,0,255319,,,,,
24720,control_change,,,,,0,0,1,,64,95,0,,
24720,note_on,,,,,120,0,1,,,,0,72,106
24720,note_off,,,,,120,0,2,,,,0,54,64
24720,note_on,,,,,0,0,2,,,,0,58,108
24800,set_tempo,,,,,100,1,0,270270,,,,,
24840,note_on,,,,,0,0,2,,,,0,52,127
24840,note_on,,,,,0,0,1,,,,0,84,127
24840,note_off,,,,,120,0,2,,,,0,58,64
24840,note_off,,,,,120,0,1,,,,0,72,64
24880,set_tempo,,,,,80,1,0,272727,,,,,
24920,set_tempo,,,,,40,1,0,294118,,,,,
24960,note_off,,,,,120,0,2,,,,0,52,64
24960,note_off,,,,,120,0,1,,,,0,84,64
24960,note_on,,,,,0,0,2,,,,0,55,113
25072,control_change,,,,,112,0,1,,64,0,0,,
25080,note_on,,,,,0,0,2,,,,0,60,101
25080,set_tempo,,,,,160,1,0,309278,,,,,
25080,note_off,,,,,120,0,2,,,,0,55,64
25080,control_change,,,,,0,0,1,,64,95,0,,
25080,note_on,,,,,8,0,1,,,,0,72,102
25100,set_tempo,,,,,20,1,0,310881,,,,,
25200,note_on,,,,,0,0,1,,,,0,84,111
25200,note_off,,,,,120,0,1,,,,0,72,64
25200,note_off,,,,,120,0,2,,,,0,60,64
25200,note_on,,,,,0,0,2,,,,0,44,100
25260,set_tempo,,,,,160,1,0,277778,,,,,
25280,set_tempo,,,,,20,1,0,256410,,,,,
25320,note_off,,,,,120,0,1,,,,0,84,64
25320,note_off,,,,,120,0,2,,,,0,44,64
25320,note_on,,,,,0,0,2,,,,0,48,86
25380,set_tempo,,,,,100,1,0,241935,,,,,
25440,note_on,,,,,120,0,1,,,,0,84,103
25440,note_on,,,,,0,0,2,,,,0,53,78
25440,note_off,,,,,120,0,2,,,,0,48,64
25460,set_tempo,,,,,80,1,0,231660,,,,,
25552,control_change,,,,,112,0,1,,64,0,0,,
25560,note_on,,,,,0,0,2,,,,0,48,71
25560,note_on,,,,,0,0,1,,,,0,80,101
25560,note_off,,,,,120,0,2,,,,0,53,64
25560,note_off,,,,,8,0,1,,,,0,84,64
25600,set_tempo,,,,,140,1,0,226415,,,,,
25680,note_off,,,,,120,0,2,,,,0,48,64
25680,note_on,,,,,0,0,2,,,,0,53,67
25680,note_off,,,,,120,0,1,,,,0,80,64
25720,set_tempo,,,,,120,1,0,222222,,,,,
25800,note_on,,,,,120,0,1,,,,0,80,93
25800,note_off,,,,,120,0,2,,,,0,53,64
25800,note_on,,,,,0,0,2,,,,0,56,66
25880,set_tempo,,,,,160,1,0,220588,,,,,
25920,note_off,,,,,120,0,1,,,,0,80,64
25920,note_on,,,,,0,0,1,,,,0,77,87
25920,note_on,,,,,0,0,2,,,,0,44,65
25920,note_off,,,,,120,0,2,,,,0,56,64
26000,set_tempo,,,,,120,1,0,217391,,,,,
26040,note_off,,,,,120,0,1,,,,0,77,64
26040,note_on,,,,,0,0,2,,,,0,48,65
26040,note_off,,,,,120,0,2,,,,0,44,64
26120,set_tempo,,,,,120,1,0,215827,,,,,
26160,note_on,,,,,120,0,1,,,,0,77,81
26160,note_on,,,,,0,0,2,,,,0,53,65
26160,note_off,,,,,120,0,2,,,,0,48,64
26260,set_tempo,,,,,140,1,0,217391,,,,,
26280,note_off,,,,,120,0,1,,,,0,77,64
26280,note_off,,,,,120,0,2,,,,0,53,64
26280,note_on,,,,,0,0,2,,,,0,48,65
26280,note_on,,,,,0,0,1,,,,0,72,79
26400,note_off,,,,,120,0,2,,,,0,48,64
26400,note_on,,,,,0,0,2,,,,0,53,65
26400,note_off,,,,,120,0,1,,,,0,72,64
26520,note_off,,,,,120,0,2,,,,0,53,64
26520,note_on,,,,,0,0,2,,,,0,56,65
26520,note_on,,,,,120,0,1,,,,0,72,76
26640,note_off,,,,,120,0,1,,,,0,72,64
26640,note_on,,,,,0,0,1,,,,0,68,83
26640,note_off,,,,,120,0,2,,,,0,56,64
26640,set_tempo,,,,,380,1,0,220588,,,,,
26640,note_on,,,,,0,0,2,,,,0,44,66
26760,note_off,,,,,120,0,1,,,,0,68,64
26760,note_on,,,,,0,0,2,,,,0,48,70
26760,note_off,,,,,120,0,2,,,,0,44,64
26880,note_off,,,,,120,0,2,,,,0,48,64
26880,note_on,,,,,120,0,1,,,,0,68,75
26880,note_on,,,,,0,0,2,,,,0,53,72
26900,set_tempo,,,,,260,1,0,223881,,,,,
27000,note_off,,,,,120,0,2,,,,0,53,64
27000,note_on,,,,,0,0,1,,,,0,65,79
27000,note_off,,,,,120,0,1,,,,0,68,64
27000,note_on,,,,,0,0,2,,,,0,48,76
27020,set_tempo,,,,,120,1,0,224719,,,,,
27040,set_tempo,,,,,20,1,0,226415,,,,,
27120,note_on,,,,,0,0,2,,,,0,53,80
27120,note_off,,,,,120,0,2,,,,0,48,64
27120,note_off,,,,,120,0,1,,,,0,65,64
27240,note_on,,,,,0,0,2,,,,0,56,84
27240,note_off,,,,,120,0,2,,,,0,53,64
27240,note_on,,,,,120,0,1,,,,0,65,77
27360,note_on,,,,,0,0,1,,,,0,60,87
27360,note_on,,,,,0,0,2,,,,0,44,88
27360,note_off,,,,,120,0,2,,,,0,56,64
27360,note_off,,,,,120,0,1,,,,0,65,64
27460,set_tempo,,,,,420,1,0,229885,,,,,
27480,note_off,,,,,120,0,2,,,,0,44,64
27480,note_off,,,,,120,0,1,,,,0,60,64
27480,note_on,,,,,0,0,2,,,,0,48,92
27600,note_on,,,,,120,0,1,,,,0,60,99
27600,note_off,,,,,120,0,2,,,,0,48,64
27600,note_on,,,,,0,0,2,,,,0,53,95
27720,note_on,,,,,0,0,1,,,,0,56,105
27720,note_off,,,,,120,0,2,,,,0,53,64
27720,note_on,,,,,0,0,2,,,,0,48,98
27720,note_off,,,,,120,0,1,,,,0,60,64
27800,set_tempo,,,,,340,1,0,232558,,,,,
27840,note_on,,,,,0,0,2,,,,0,44,103
27840,note_off,,,,,120,0,2,,,,0,48,64
27840,note_off,,,,,120,0,1,,,,0,56,64
27960,note_on,,,,,0,0,2,,,,0,41,110
27960,note_off,,,,,120,0,2,,,,0,44,64
27960,note_on,,,,,120,0,1,,,,0,53,120
28080,set_tempo,,,,,280,1,0,235294,,,,,
28080,note_on,,,,,0,0,2,,,,0,29,125
28080,note_off,,,,,120,0,2,,,,0,41,64
28080,note_off,,,,,120,0,1,,,,0,53,64
28080,note_on,,,,,0,0,1,,,,0,49,127
28080,control_change,,,,,0,0,1,,64,96,0,,
28100,set_tempo,,,,,20,1,0,236220,,,,,
28120,set_tempo,,,,,20,1,0,237154,,,,,
28160,set_tempo,,,,,40,1,0,236220,,,,,
28180,set_tempo,,,,,20,1,0,234375,,,,,
28200,note_off,,,,,120,0,2,,,,0,29,64
28200,note_off,,,,,120,0,1,,,,0,49,64
28200,note_on,,,,,0,0,2,,,,0,32,121
28200,set_tempo,,,,,20,1,0,229885,,,,,
28300,set_tempo,,,,,100,1,0,225564,,,,,
28320,note_on,,,,,0,0,2,,,,0,37,115
28320,note_on,,,,,120,0,1,,,,0,49,114
28320,note_off,,,,,120,0,2,,,,0,32,64
28380,set_tempo,,,,,80,1,0,226415,,,,,
28420,set_tempo,,,,,40,1,0,223881,,,,,
28432,control_change,,,,,112,0,1,,64,0,0,,
28440,note_off,,,,,120,0,2,,,,0,37,64
28440,note_on,,,,,0,0,2,,,,0,32,110
28440,note_on,,,,,0,0,1,,,,0,61,103
28440,note_off,,,,,8,0,1,,,,0,49,64
28560,note_off,,,,,120,0,1,,,,0,61,64
28560,note_off,,,,,120,0,2,,,,0,32,64
28560,note_on,,,,,0,0,2,,,,0,37,104
28680,note_off,,,,,120,0,2,,,,0,37,64
28680,note_on,,,,,0,0,2,,,,0,41,98
28680,note_on,,,,,120,0,1,,,,0,61,90
28800,note_off,,,,,120,0,1,,,,0,61,64
28800,note_on,,,,,0,0,2,,,,0,42,112
28800,note_on,,,,,0,0,1,,,,0,60,85
28800,note_off,,,,,120,0,2,,,,0,41,64
28920,note_on,,,,,0,0,2,,,,0,45,105
28920,note_off,,,,,120,0,1,,,,0,60,64
28920,note_off,,,,,120,0,2,,,,0,42,64
28940,set_tempo,,,,,520,1,0,225564,,,,,
29040,note_off,,,,,120,0,2,,,,0,45,64
29040,note_on,,,,,0,0,2,,,,0,44,100
29040,note_on,,,,,120,0,1,,,,0,60,81
29160,set_tempo,,,,,220,1,0,226415,,,,,
29160,note_on,,,,,0,0,2,,,,0,45,94
29160,note_off,,,,,120,0,2,,,,0,44,64
29160,note_on,,,,,0,0,1,,,,0,72,76
29160,note_off,,,,,120,0,1,,,,0,60,64
29280,note_off,,,,,120,0,2,,,,0,45,64
29280,note_on,,,,,0,0,2,,,,0,44,89
29280,note_off,,,,,120,0,1,,,,0,72,64
29300,set_tempo,,,,,140,1,0,225564,,,,,
29340,set_tempo,,,,,40,1,0,227273,,,,,
29400,note_on,,,,,120,0,1,,,,0,48,69
29400,note_off,,,,,120,0,2,,,,0,44,64
29400,note_on,,,,,0,0,2,,,,0,42,83
29440,set_tempo,,,,,100,1,0,231660,,,,,
29520,control_change,,,,,0,0,1,,64,96,0,,
29520,note_on,,,,,0,0,1,,,,0,49,127
29520,note_off,,,,,120,0,1,,,,0,48,64
29520,note_off,,,,,120,0,2,,,,0,42,64
29520,note_on,,,,,0,0,2,,,,0,29,125
29540,set_tempo,,,,,100,1,0,230769,,,,,
29580,set_tempo,,,,,40,1,0,235294,,,,,
29600,set_tempo,,,,,20,1,0,231660,,,,,
29640,note_off,,,,,120,0,2,,,,0,29,64
29640,note_on,,,,,0,0,2,,,,0,32,121
29640,note_off,,,,,120,0,1,,,,0,49,64
29660,set_tempo,,,,,60,1,0,229885,,,,,
29760,note_on,,,,,120,0,1,,,,0,49,116
29760,note_on,,,,,0,0,2,,,,0,37,115
29760,note_off,,,,,120,0,2,,,,0,32,64
29780,set_tempo,,,,,120,1,0,226415,,,,,
29872,control_change,,,,,112,0,1,,64,0,0,,
29880,note_on,,,,,0,0,1,,,,0,61,112
29880,note_off,,,,,8,0,1,,,,0,49,64
29880,note_on,,,,,0,0,2,,,,0,32,110
29880,note_off,,,,,120,0,2,,,,0,37,64
29900,set_tempo,,,,,120,1,0,224719,,,,,
29980,set_tempo,,,,,80,1,0,223881,,,,,
30000,note_on,,,,,0,0,2,,,,0,37,104
30000,note_off,,,,,120,0,2,,,,0,32,64
30000,note_off,,,,,120,0,1,,,,0,61,64
30120,note_off,,,,,120,0,2,,,,0,37,64
30120,note_on,,,,,120,0,1,,,,0,61,105
30120,note_on,,,,,0,0,2,,,,0,41,98
30160,set_tempo,,,,,180,1,0,221402,,,,,
30240,note_on,,,,,0,0,2,,,,0,42,112
30240,note_off,,,,,120,0,2,,,,0,41,64
30240,note_on,,,,,0,0,1,,,,0,60,97
30240,note_off,,,,,120,0,1,,,,0,61,64
30360,note_off,,,,,120,0,2,,,,0,42,64
30360,note_on,,,,,0,0,2,,,,0,45,105
30360,note_off,,,,,120,0,1,,,,0,60,64
30380,set_tempo,,,,,220,1,0,220588,,,,,
30480,note_off,,,,,120,0,2,,,,0,45,64
30480,note_on,,,,,0,0,2,,,,0,44,100
30480,note_on,,,,,120,0,1,,,,0,60,82
30600,note_off,,,,,120,0,1,,,,0,60,64
30600,note_on,,,,,0,0,1,,,,0,72,76
30600,note_on,,,,,0,0,2,,,,0,45,94
30600,note_off,,,,,120,0,2,,,,0,44,64
30720,note_on,,,,,0,0,2,,,,0,44,89
30720,note_off,,,,,120,0,2,,,,0,45,64
30720,note_off,,,,,120,0,1,,,,0,72,64
30840,note_on,,,,,0,0,2,,,,0,42,83
30840,note_on,,,,,120,0,1,,,,0,48,70
30840,note_off,,,,,120,0,2,,,,0,44,64
30860,set_tempo,,,,,480,1,0,222222,,,,,
30960,note_off,,,,,120,0,1,,,,0,48,64
30960,control_change,,,,,0,0,1,,64,96,0,,
30960,note_on,,,,,0,0,2,,,,0,29,125
30960,note_off,,,,,120,0,2,,,,0,42,64
30960,note_on,,,,,0,0,1,,,,0,49,127
31000,set_tempo,,,,,140,1,0,225564,,,,,
31080,note_off,,,,,120,0,1,,,,0,49,64
31080,note_on,,,,,0,0,2,,,,0,32,121
31080,note_off,,,,,120,0,2,,,,0,29,64
31200,note_off,,,,,120,0,2,,,,0,32,64
31200,note_on,,,,,120,0,1,,,,0,49,118
31200,note_on,,,,,0,0,2,,,,0,37,115
31312,control_change,,,,,112,0,1,,64,0,0,,
31320,note_on,,,,,0,0,2,,,,0,32,110
31320,note_on,,,,,0,0,1,,,,0,61,105
31320,note_off,,,,,120,0,2,,,,0,37,64
31320,note_off,,,,,8,0,1,,,,0,49,64
31440,note_off,,,,,120,0,1,,,,0,61,64
31440,note_on,,,,,0,0,2,,,,0,37,104
31440,note_off,,,,,120,0,2,,,,0,32,64
31500,set_tempo,,,,,500,1,0,223881,,,,,
31560,note_on,,,,,0,0,2,,,,0,41,98
31560,note_off,,,,,120,0,2,,,,0,37,64
31560,note_on,,,,,120,0,1,,,,0,61,97
31660,set_tempo,,,,,160,1,0,222222,,,,,
31680,note_off,,,,,120,0,1,,,,0,61,64
31680,note_on,,,,,0,0,1,,,,0,62,95
31680,note_on,,,,,0,0,2,,,,0,44,112
31680,note_off,,,,,120,0,2,,,,0,41,64
31800,note_off,,,,,120,0,2,,,,0,44,64
31800,note_off,,,,,120,0,1,,,,0,62,64
31800,note_on,,,,,0,0,2,,,,0,47,105
31920,note_on,,,,,120,0,1,,,,0,62,90
31920,note_off,,,,,120,0,2,,,,0,47,64
31920,note_on,,,,,0,0,2,,,,0,46,100
31940,set_tempo,,,,,280,1,0,221402,,,,,
32040,note_off,,,,,120,0,1,,,,0,62,64
32040,note_off,,,,,120,0,2,,,,0,46,64
32040,note_on,,,,,0,0,2,,,,0,47,94
32040,note_on,,,,,0,0,1,,,,0,74,86
32160,note_on,,,,,0,0,2,,,,0,46,89
32160,note_off,,,,,120,0,2,,,,0,47,64
32160,note_off,,,,,120,0,1,,,,0,74,64
32220,set_tempo,,,,,280,1,0,220588,,,,,
32280,note_on,,,,,120,0,1,,,,0,50,85
32280,note_on,,,,,0,0,2,,,,0,44,83
32280,note_off,,,,,120,0,2,,,,0,46,64
32400,note_off,,,,,120,0,1,,,,0,50,64
32400,note_on,,,,,0,0,1,,,,0,51,127
32400,control_change,,,,,0,0,1,,64,96,0,,
32400,note_on,,,,,0,0,2,,,,0,31,125
32400,note_off,,,,,120,0,2,,,,0,44,64
32520,note_on,,,,,0,0,2,,,,0,34,121
32520,note_off,,,,,120,0,1,,,,0,51,64
32520,note_off,,,,,120,0,2,,,,0,31,64
32640,note_off,,,,,120,0,2,,,,0,34,64
32640,note_on,,,,,0,0,2,,,,0,39,115
32640,note_on,,,,,120,0,1,,,,0,51,123
32660,set_tempo,,,,,440,1,0,219780,,,,,
32752,control_change,,,,,112,0,1,,64,0,0,,
32760,note_on,,,,,0,0,1,,,,0,63,119
32760,note_off,,,,,8,0,1,,,,0,51,64
32760,note_off,,,,,120,0,2,,,,0,39,64
32760,note_on,,,,,0,0,2,,,,0,34,110
32880,note_off,,,,,120,0,1,,,,0,63,64
32880,note_off,,,,,120,0,2,,,,0,34,64
32880,note_on,,,,,0,0,2,,,,0,39,104
33000,note_off,,,,,120,0,2,,,,0,39,64
33000,note_on,,,,,0,0,2,,,,0,43,98
33000,note_on,,,,,120,0,1,,,,0,63,113
33080,set_tempo,,,,,420,1,0,218978,,,,,
33120,note_off,,,,,120,0,1,,,,0,63,64
33120,note_on,,,,,0,0,1,,,,0,64,110
33120,note_off,,,,,120,0,2,,,,0,43,64
33120,note_on,,,,,0,0,2,,,,0,46,112
33240,note_off,,,,,120,0,2,,,,0,46,64
33240,note_on,,,,,0,0,2,,,,0,47,105
33240,note_off,,,,,120,0,1,,,,0,64,64
33360,note_on,,,,,0,0,2,,,,0,48,100
33360,note_off,,,,,120,0,2,,,,0,47,64
33360,note_on,,,,,120,0,1,,,,0,64,100
33480,note_off,,,,,120,0,1,,,,0,64,64
33480,note_on,,,,,0,0,2,,,,0,49,94
33480,note_off,,,,,120,0,2,,,,0,48,64
33480,note_on,,,,,0,0,1,,,,0,76,98
33500,set_tempo,,,,,420,1,0,217391,,,,,
33600,note_off,,,,,120,0,1,,,,0,76,64
33600,note_on,,,,,0,0,2,,,,0,48,89
33600,note_off,,,,,120,0,2,,,,0,49,64
33720,note_off,,,,,120,0,2,,,,0,48,64
33720,note_on,,,,,120,0,1,,,,0,52,107
33720,note_on,,,,,0,0,2,,,,0,46,83
33780,set_tempo,,,,,280,1,0,216606,,,,,
33840,note_on,,,,,0,0,2,,,,0,45,84
33840,note_off,,,,,120,0,1,,,,0,52,64
33840,note_off,,,,,120,0,2,,,,0,46,64
33840,note_on,,,,,0,0,1,,,,0,53,115
33960,note_off,,,,,120,0,2,,,,0,45,64
33960,note_off,,,,,120,0,1,,,,0,53,64
33960,note_on,,,,,0,0,2,,,,0,48,87
34080,note_on,,,,,120,0,1,,,,0,53,109
34080,note_on,,,,,0,0,2,,,,0,45,90
34080,note_off,,,,,120,0,2,,,,0,48,64
34200,note_on,,,,,0,0,1,,,,0,54,121
34200,note_off,,,,,120,0,1,,,,0,53,64
34200,note_on,,,,,0,0,2,,,,0,46,93
34200,note_off,,,,,120,0,2,,,,0,45,64
34240,set_tempo,,,,,460,1,0,215827,,,,,
34320,note_off,,,,,120,0,1,,,,0,54,64
34320,note_on,,,,,0,0,2,,,,0,49,97
34320,note_off,,,,,120,0,2,,,,0,46,64
34440,note_on,,,,,120,0,1,,,,0,66,102
34440,note_on,,,,,0,0,2,,,,0,46,99
34440,note_off,,,,,120,0,2,,,,0,49,64
34460,set_tempo,,,,,220,1,0,216606,,,,,
34560,note_off,,,,,120,0,2,,,,0,46,64
34560,note_on,,,,,0,0,1,,,,0,67,113
34560,note_off,,,,,120,0,1,,,,0,66,64
34560,note_on,,,,,0,0,2,,,,0,47,101
34680,note_on,,,,,0,0,2,,,,0,50,105
34680,note_off,,,,,120,0,1,,,,0,67,64
34680,note_off,,,,,120,0,2,,,,0,47,64
34720,set_tempo,,,,,260,1,0,220588,,,,,
34740,set_tempo,,,,,20,1,0,223881,,,,,
34800,note_on,,,,,120,0,1,,,,0,79,105
34800,note_off,,,,,120,0,2,,,,0,50,64
34800,note_on,,,,,0,0,2,,,,0,47,108
34840,set_tempo,,,,,100,1,0,230769,,,,,
34920,note_on,,,,,0,0,1,,,,0,80,118
34920,note_off,,,,,120,0,1,,,,0,79,64
34920,note_off,,,,,120,0,2,,,,0,47,64
34920,note_on,,,,,0,0,2,,,,0,48,114
34960,set_tempo,,,,,120,1,0,231660,,,,,
34980,set_tempo,,,,,20,1,0,240000,,,,,
35000,set_tempo,,,,,20,1,0,240964,,,,,
35040,note_off,,,,,120,0,2,,,,0,48,64
35040,note_on,,,,,0,0,2,,,,0,51,115
35040,note_off,,,,,120,0,1,,,,0,80,64
35060,set_tempo,,,,,60,1,0,247934,,,,,
35120,set_tempo,,,,,60,1,0,248963,,,,,
35140,set_tempo,,,,,20,1,0,297030,,,,,
35160,note_on,,,,,120,0,1,,,,0,80,107
35160,note_on,,,,,0,0,2,,,,0,48,121
35160,note_off,,,,,120,0,2,,,,0,51,64
35220,set_tempo,,,,,80,1,0,310881,,,,,
35280,note_off,,,,,120,0,2,,,,0,48,64
35280,set_tempo,,,,,60,1,0,342857,,,,,
35280,note_on,,,,,0,0,2,,,,0,49,127
35280,control_change,,,,,0,0,1,,64,95,0,,
35280,note_off,,,,,120,0,1,,,,0,80,64
35280,note_on,,,,,0,0,1,,,,0,92,127
35360,set_tempo,,,,,80,1,0,216606,,,,,
35400,note_off,,,,,120,0,1,,,,0,92,64
35400,note_off,,,,,120,0,2,,,,0,49,64
35400,note_on,,,,,0,0,2,,,,0,52,117
35440,set_tempo,,,,,80,1,0,209790,,,,,
35460,set_tempo,,,,,20,1,0,208333,,,,,
35520,note_on,,,,,0,0,2,,,,0,56,107
35520,note_on,,,,,120,0,1,,,,0,92,119
35520,note_off,,,,,120,0,2,,,,0,52,64
35640,note_off,,,,,120,0,1,,,,0,92,64
35640,note_on,,,,,0,0,2,,,,0,49,105
35640,note_off,,,,,120,0,2,,,,0,56,64
35640,note_on,,,,,0,0,1,,,,0,88,113
35646,control_change,,,,,6,0,1,,64,0,0,,
35680,set_tempo,,,,,220,1,0,209790,,,,,
35760,note_off,,,,,120,0,2,,,,0,49,64
35760,note_on,,,,,0,0,2,,,,0,52,103
35760,note_off,,,,,114,0,1,,,,0,88,64
35800,set_tempo,,,,,120,1,0,210526,,,,,
35880,note_off,,,,,120,0,2,,,,0,52,64
35880,note_on,,,,,0,0,2,,,,0,56,97
35880,note_on,,,,,120,0,1,,,,0,88,107
35920,set_tempo,,,,,120,1,0,211268,,,,,
36000,note_off,,,,,120,0,1,,,,0,88,64
36000,note_on,,,,,0,0,1,,,,0,85,103
36000,note_on,,,,,0,0,2,,,,0,49,86
36000,note_off,,,,,120,0,2,,,,0,56,64
36120,note_off,,,,,120,0,1,,,,0,85,64
36120,note_off,,,,,120,0,2,,,,0,49,64
36120,note_on,,,,,0,0,2,,,,0,52,80
36200,set_tempo,,,,,280,1,0,214286,,,,,
36240,note_on,,,,,0,0,2,,,,0,56,76
36240,note_off,,,,,120,0,2,,,,0,52,64
36240,note_on,,,,,120,0,1,,,,0,85,96
36360,note_on,,,,,0,0,1,,,,0,80,90
36360,note_off,,,,,120,0,1,,,,0,85,64
36360,note_off,,,,,120,0,2,,,,0,56,64
36360,note_on,,,,,0,0,2,,,,0,49,71
36480,note_off,,,,,120,0,2,,,,0,49,64
36480,note_on,,,,,0,0,2,,,,0,52,68
36480,note_off,,,,,120,0,1,,,,0,80,64
36560,set_tempo,,,,,360,1,0,216606,,,,,
36600,note_off,,,,,120,0,2,,,,0,52,64
36600,note_on,,,,,0,0,2,,,,0,56,64
36600,note_on,,,,,120,0,1,,,,0,80,83
36720,note_on,,,,,0,0,2,,,,0,49,59
36720,note_off,,,,,120,0,1,,,,0,80,64
36720,note_on,,,,,0,0,1,,,,0,76,82
36720,note_off,,,,,120,0,2,,,,0,56,64
36840,note_on,,,,,0,0,2,,,,0,52,56
36840,note_off,,,,,120,0,2,,,,0,49,64
36840,set_tempo,,,,,280,1,0,217391,,,,,
36840,note_off,,,,,120,0,1,,,,0,76,64
36960,note_on,,,,,0,0,2,,,,0,56,51
36960,note_off,,,,,120,0,2,,,,0,52,64
36960,note_on,,,,,120,0,1,,,,0,76,74
37080,note_off,,,,,120,0,1,,,,0,76,64
37080,note_off,,,,,120,0,2,,,,0,56,64
37080,note_on,,,,,0,0,2,,,,0,49,47
37080,note_on,,,,,0,0,1,,,,0,73,70
37200,note_off,,,,,120,0,2,,,,0,49,64
37200,note_on,,,,,0,0,2,,,,0,52,42
37200,note_off,,,,,120,0,1,,,,0,73,64
37320,note_on,,,,,120,0,1,,,,0,73,61
37320,note_off,,,,,120,0,2,,,,0,52,64
37320,note_on,,,,,0,0,2,,,,0,56,40
37340,set_tempo,,,,,500,1,0,220588,,,,,
37380,set_tempo,,,,,40,1,0,225564,,,,,
37400,set_tempo,,,,,20,1,0,224719,,,,,
37420,set_tempo,,,,,20,1,0,225564,,,,,
37440,note_off,,,,,120,0,2,,,,0,56,64
37440,note_on,,,,,0,0,1,,,,0,76,56
37440,note_off,,,,,120,0,1,,,,0,73,64
37440,note_on,,,,,0,0,2,,,,0,49,40
37480,set_tempo,,,,,60,1,0,229885,,,,,
37560,note_on,,,,,0,0,2,,,,0,52,47
37560,note_off,,,,,120,0,1,,,,0,76,64
37560,note_off,,,,,120,0,2,,,,0,49,64
37600,set_tempo,,,,,120,1,0,234375,,,,,
37640,set_tempo,,,,,40,1,0,240000,,,,,
37680,note_on,,,,,0,0,2,,,,0,56,58
37680,note_on,,,,,120,0,1,,,,0,76,46
37680,note_off,,,,,120,0,2,,,,0,52,64
37760,set_tempo,,,,,120,1,0,242915,,,,,
37800,note_on,,,,,0,0,1,,,,0,73,44
37800,note_off,,,,,120,0,1,,,,0,76,64
37800,note_on,,,,,0,0,2,,,,0,44,69
37800,set_tempo,,,,,40,1,0,247934,,,,,
37800,note_off,,,,,120,0,2,,,,0,56,64
37920,note_on,,,,,0,0,2,,,,0,52,71
37920,note_off,,,,,120,0,2,,,,0,44,64
37920,set_tempo,,,,,120,1,0,252101,,,,,
37920,note_off,,,,,120,0,1,,,,0,73,64
38040,note_on,,,,,120,0,1,,,,0,80,96
38040,set_tempo,,,,,120,1,0,253165,,,,,
38040,note_off,,,,,120,0,2,,,,0,52,64
38040,note_on,,,,,0,0,2,,,,0,56,89
38060,set_tempo,,,,,20,1,0,254237,,,,,
38100,set_tempo,,,,,40,1,0,255319,,,,,
38120,set_tempo,,,,,20,1,0,259740,,,,,
38140,set_tempo,,,,,20,1,0,260870,,,,,
38160,note_off,,,,,120,0,1,,,,0,80,64
38160,control_change,,,,,0,0,1,,64,95,0,,
38160,note_on,,,,,0,0,1,,,,0,92,127
38160,note_off,,,,,120,0,2,,,,0,56,64
38160,note_on,,,,,0,0,2,,,,0,49,126
38180,set_tempo,,,,,40,1,0,262009,,,,,
38280,note_off,,,,,120,0,2,,,,0,49,64
38280,note_on,,,,,0,0,2,,,,0,53,126
38280,note_off,,,,,120,0,1,,,,0,92,64
38320,set_tempo,,,,,140,1,0,208333,,,,,
38340,set_tempo,,,,,20,1,0,206897,,,,,
38360,set_tempo,,,,,20,1,0,207612,,,,,
38400,note_on,,,,,0,0,2,,,,0,56,123
38400,note_off,,,,,120,0,2,,,,0,53,64
38400,note_on,,,,,120,0,1,,,,0,92,118
38520,note_on,,,,,0,0,2,,,,0,49,117
38520,control_change,,,,,0,0,1,,64,0,0,,
38520,note_off,,,,,120,0,1,,,,0,92,64
38520,note_on,,,,,0,0,1,,,,0,89,114
38520,note_off,,,,,120,0,2,,,,0,56,64
38640,note_off,,,,,120,0,2,,,,0,49,64
38640,note_on,,,,,0,0,2,,,,0,53,111
38640,set_tempo,,,,,280,1,0,208333,,,,,
38640,note_off,,,,,120,0,1,,,,0,89,64
38760,note_on,,,,,0,0,2,,,,0,56,107
38760,set_tempo,,,,,120,1,0,209790,,,,,
38760,note_on,,,,,120,0,1,,,,0,89,104
38760,note_off,,,,,120,0,2,,,,0,53,64
38840,set_tempo,,,,,80,1,0,210526,,,,,
38880,note_off,,,,,120,0,2,,,,0,56,64
38880,note_on,,,,,0,0,2,,,,0,49,104
38880,note_off,,,,,120,0,1,,,,0,89,64
38880,note_on,,,,,0,0,1,,,,0,85,99
39000,note_off,,,,,120,0,1,,,,0,85,64
39000,note_off,,,,,120,0,2,,,,0,49,64
39000,note_on,,,,,0,0,2,,,,0,53,102
39080,set_tempo,,,,,240,1,0,211268,,,,,
39120,note_on,,,,,120,0,1,,,,0,85,88
39120,note_off,,,,,120,0,2,,,,0,53,64
39120,note_on,,,,,0,0,2,,,,0,56,97
39200,set_tempo,,,,,120,1,0,212014,,,,,
39240,set_tempo,,,,,40,1,0,212766,,,,,
39240,note_on,,,,,0,0,1,,,,0,80,87
39240,note_off,,,,,120,0,1,,,,0,85,64
39240,note_on,,,,,0,0,2,,,,0,49,91
39240,note_off,,,,,120,0,2,,,,0,56,64
39360,note_off,,,,,120,0,2,,,,0,49,64
39360,note_on,,,,,0,0,2,,,,0,53,88
39360,note_off,,,,,120,0,1,,,,0,80,64
39400,set_tempo,,,,,160,1,0,214286,,,,,
39480,note_off,,,,,120,0,2,,,,0,53,64
39480,note_on,,,,,0,0,2,,,,0,56,86
39480,note_on,,,,,120,0,1,,,,0,80,80
39600,note_on,,,,,0,0,2,,,,0,49,83
39600,note_on,,,,,0,0,1,,,,0,77,79
39600,set_tempo,,,,,200,1,0,215054,,,,,
39600,note_off,,,,,120,0,1,,,,0,80,64
39600,note_off,,,,,120,0,2,,,,0,56,64
39720,note_off,,,,,120,0,1,,,,0,77,64
39720,note_off,,,,,120,0,2,,,,0,49,64
39720,note_on,,,,,0,0,2,,,,0,53,81
39740,set_tempo,,,,,140,1,0,215827,,,,,
39840,note_on,,,,,120,0,1,,,,0,77,73
39840,note_off,,,,,120,0,2,,,,0,53,64
39840,note_on,,,,,0,0,2,,,,0,56,77
39960,note_off,,,,,120,0,1,,,,0,77,64
39960,note_off,,,,,120,0,2,,,,0,56,64
39960,note_on,,,,,0,0,2,,,,0,49,72
39960,note_on,,,,,0,0,1,,,,0,73,63
40020,set_tempo,,,,,280,1,0,218978,,,,,
40060,set_tempo,,,,,40,1,0,219780,,,,,
40080,note_off,,,,,120,0,2,,,,0,49,64
40080,note_on,,,,,0,0,2,,,,0,53,68
40080,note_off,,,,,120,0,1,,,,0,73,64
40200,note_off,,,,,120,0,2,,,,0,53,64
40200,note_on,,,,,120,0,1,,,,0,73,57
40200,note_on,,,,,0,0,2,,,,0,56,63
40300,set_tempo,,,,,240,1,0,220588,,,,,
40320,note_on,,,,,0,0,1,,,,0,77,55
40320,note_on,,,,,0,0,2,,,,0,49,63
40320,note_off,,,,,120,0,2,,,,0,56,64
40320,note_off,,,,,120,0,1,,,,0,73,64
40440,note_on,,,,,0,0,2,,,,0,53,62
40440,note_off,,,,,120,0,1,,,,0,77,64
40440,note_off,,,,,120,0,2,,,,0,49,64
40460,set_tempo,,,,,160,1,0,224719,,,,,
40560,note_on,,,,,120,0,1,,,,0,77,50
40560,note_on,,,,,0,0,2,,,,0,56,58
40560,note_off,,,,,120,0,2,,,,0,53,64
40680,note_off,,,,,120,0,1,,,,0,77,64
40680,note_on,,,,,0,0,1,,,,0,72,51
40680,note_on,,,,,0,0,2,,,,0,49,56
40680,note_off,,,,,120,0,2,,,,0,56,64
40800,note_off,,,,,120,0,1,,,,0,72,64
40800,note_off,,,,,120,0,2,,,,0,49,64
40800,note_on,,,,,0,0,2,,,,0,53,53
40840,set_tempo,,,,,380,1,0,229885,,,,,
40920,note_on,,,,,120,0,1,,,,0,72,44
40920,note_off,,,,,120,0,2,,,,0,53,64
40920,note_on,,,,,0,0,2,,,,0,56,50
40960,set_tempo,,,,,120,1,0,232558,,,,,
41040,note_off,,,,,120,0,2,,,,0,56,64
41040,note_on,,,,,0,0,2,,,,0,50,46
41040,note_off,,,,,120,0,1,,,,0,72,64
41040,note_on,,,,,0,0,1,,,,0,71,43
41080,set_tempo,,,,,120,1,0,237154,,,,,
41160,note_on,,,,,0,0,2,,,,0,53,44
41160,note_off,,,,,120,0,1,,,,0,71,64
41160,note_off,,,,,120,0,2,,,,0,50,64
41200,set_tempo,,,,,120,1,0,241935,,,,,
41280,note_off,,,,,120,0,2,,,,0,53,64
41280,note_on,,,,,120,0,1,,,,0,79,48
41280,note_on,,,,,0,0,2,,,,0,55,42
41360,set_tempo,,,,,160,1,0,245902,,,,,
41370,note_off,,,,,90,0,1,,,,0,79,64
41400,note_on,,,,,0,0,2,,,,0,48,40
41400,note_off,,,,,120,0,2,,,,0,55,64
41400,note_on,,,,,30,0,1,,,,0,79,53
41490,note_off,,,,,90,0,1,,,,0,79,64
41500,set_tempo,,,,,140,1,0,248963,,,,,
41520,note_on,,,,,0,0,2,,,,0,51,40
41520,note_off,,,,,120,0,2,,,,0,48,64
41520,set_tempo,,,,,20,1,0,254237,,,,,
41640,note_on,,,,,0,0,2,,,,0,55,40
41640,note_off,,,,,120,0,2,,,,0,51,64
41640,note_on,,,,,150,0,1,,,,0,79,58
41640,set_tempo,,,,,120,1,0,259740,,,,,
41680,set_tempo,,,,,40,1,0,263158,,,,,
41720,set_tempo,,,,,40,1,0,260870,,,,,
41740,set_tempo,,,,,20,1,0,243902,,,,,
41760,note_on,,,,,0,0,2,,,,0,47,48
41760,note_off,,,,,120,0,2,,,,0,55,64
41760,set_tempo,,,,,20,1,0,240964,,,,,
41760,note_off,,,,,120,0,1,,,,0,79,64
41760,note_on,,,,,0,0,1,,,,0,80,47
41760,control_change,,,,,0,0,1,,64,95,0,,
41780,set_tempo,,,,,20,1,0,237154,,,,,
41800,set_tempo,,,,,20,1,0,234375,,,,,
41820,set_tempo,,,,,20,1,0,232558,,,,,
41880,note_on,,,,,0,0,1,,,,0,79,53
41880,note_on,,,,,0,0,2,,,,0,50,54
41880,note_off,,,,,120,0,2,,,,0,47,64
41880,note_off,,,,,120,0,1,,,,0,80,64
41940,set_tempo,,,,,120,1,0,229008,,,,,
41960,set_tempo,,,,,20,1,0,227273,,,,,
42000,note_on,,,,,0,0,1,,,,0,78,58
42000,note_off,,,,,120,0,1,,,,0,79,64
42000,note_on,,,,,0,0,2,,,,0,55,58
42000,note_off,,,,,120,0,2,,,,0,50,64
42120,note_off,,,,,120,0,1,,,,0,78,64
42120,note_on,,,,,0,0,1,,,,0,79,70
42120,note_off,,,,,120,0,2,,,,0,55,64
42120,note_on,,,,,0,0,2,,,,0,44,68
42120,set_tempo,,,,,160,1,0,223881,,,,,
42240,note_off,,,,,120,0,2,,,,0,44,64
42240,note_on,,,,,0,0,1,,,,0,91,75
42240,note_off,,,,,120,0,1,,,,0,79,64
42240,note_on,,,,,0,0,2,,,,0,48,75
42360,note_on,,,,,0,0,1,,,,0,90,96
42360,note_off,,,,,120,0,1,,,,0,91,64
42360,note_off,,,,,120,0,2,,,,0,48,64
42360,note_on,,,,,0,0,2,,,,0,55,76
42466,control_change,,,,,106,0,1,,64,0,0,,
42480,note_off,,,,,120,0,2,,,,0,55,64
42480,note_on,,,,,0,0,2,,,,0,43,88
42480,control_change,,,,,0,0,1,,64,95,0,,
42480,note_off,,,,,14,0,1,,,,0,90,64
42480,note_on,,,,,0,0,1,,,,0,91,106
42600,note_off,,,,,120,0,1,,,,0,91,64
42600,note_on,,,,,0,0,2,,,,0,47,75
42600,note_off,,,,,120,0,2,,,,0,43,64
42680,set_tempo,,,,,560,1,0,225564,,,,,
42700,set_tempo,,,,,20,1,0,226415,,,,,
42712,control_change,,,,,112,0,1,,64,0,0,,
42720,note_off,,,,,120,0,2,,,,0,47,64
42720,note_on,,,,,0,0,2,,,,0,55,67
42720,note_on,,,,,8,0,1,,,,0,67,66
42810,note_off,,,,,90,0,1,,,,0,67,64
42840,note_on,,,,,30,0,1,,,,0,67,52
42840,note_off,,,,,120,0,2,,,,0,55,64
42840,note_on,,,,,0,0,2,,,,0,50,57
42860,set_tempo,,,,,160,1,0,227273,,,,,
42930,note_off,,,,,90,0,1,,,,0,67,64
42960,note_on,,,,,0,0,2,,,,0,53,51
42960,note_off,,,,,120,0,2,,,,0,50,64
43080,note_on,,,,,0,0,2,,,,0,55,46
43080,note_off,,,,,120,0,2,,,,0,53,64
43080,note_on,,,,,150,0,1,,,,0,67,51
43200,note_on,,,,,0,0,2,,,,0,48,45
43200,control_change,,,,,0,0,1,,64,95,0,,
43200,note_off,,,,,120,0,2,,,,0,55,64
43200,note_on,,,,,0,0,1,,,,0,68,70
43200,note_off,,,,,120,0,1,,,,0,67,64
43320,note_off,,,,,120,0,2,,,,0,48,64
43320,note_on,,,,,0,0,1,,,,0,67,56
43320,note_on,,,,,0,0,2,,,,0,51,51
43320,note_off,,,,,120,0,1,,,,0,68,64
43440,note_on,,,,,0,0,2,,,,0,55,54
43440,note_off,,,,,120,0,2,,,,0,51,64
43440,note_off,,,,,120,0,1,,,,0,67,64
43440,note_on,,,,,0,0,1,,,,0,66,60
43560,note_off,,,,,120,0,2,,,,0,55,64
43560,note_off,,,,,120,0,1,,,,0,66,64
43560,note_on,,,,,0,0,1,,,,0,67,63
43560,note_on,,,,,0,0,2,,,,0,44,56
43680,note_off,,,,,120,0,2,,,,0,44,64
43680,note_off,,,,,120,0,1,,,,0,67,64
43680,note_on,,,,,0,0,2,,,,0,48,59
43680,note_on,,,,,0,0,1,,,,0,79,69
43800,note_on,,,,,0,0,2,,,,0,55,61
43800,note_off,,,,,120,0,2,,,,0,48,64
43800,note_on,,,,,0,0,1,,,,0,78,70
43800,note_off,,,,,120,0,1,,,,0,79,64
43906,control_change,,,,,106,0,1,,64,0,0,,
43920,note_off,,,,,120,0,2,,,,0,55,64
43920,note_off,,,,,14,0,1,,,,0,78,64
43920,note_on,,,,,0,0,1,,,,0,80,83
43920,control_change,,,,,0,0,1,,64,95,0,,
43920,note_on,,,,,0,0,2,,,,0,43,70
43940,set_tempo,,,,,1080,1,0,224719,,,,,
44040,note_off,,,,,120,0,1,,,,0,80,64
44040,note_on,,,,,0,0,1,,,,0,79,81
44040,note_off,,,,,120,0,2,,,,0,43,64
44040,note_on,,,,,0,0,2,,,,0,47,77
44100,set_tempo,,,,,160,1,0,223881,,,,,
44160,note_on,,,,,0,0,2,,,,0,55,80
44160,note_on,,,,,0,0,1,,,,0,78,85
44160,note_off,,,,,120,0,2,,,,0,47,64
44160,note_off,,,,,120,0,1,,,,0,79,64
44260,set_tempo,,,,,160,1,0,220588,,,,,
44280,note_on,,,,,0,0,1,,,,0,79,93
44280,note_off,,,,,120,0,1,,,,0,78,64
44280,note_off,,,,,120,0,2,,,,0,55,64
44280,note_on,,,,,0,0,2,,,,0,44,86
44400,note_on,,,,,0,0,1,,,,0,91,99
44400,note_off,,,,,120,0,1,,,,0,79,64
44400,note_off,,,,,120,0,2,,,,0,44,64
44400,note_on,,,,,0,0,2,,,,0,48,91
44460,set_tempo,,,,,200,1,0,216606,,,,,
44500,set_tempo,,,,,40,1,0,217391,,,,,
44520,note_on,,,,,0,0,1,,,,0,90,104
44520,note_off,,,,,120,0,1,,,,0,91,64
44520,note_off,,,,,120,0,2,,,,0,48,64
44520,note_on,,,,,0,0,2,,,,0,55,92
44626,control_change,,,,,106,0,1,,64,0,0,,
44640,control_change,,,,,0,0,1,,64,95,0,,
44640,note_on,,,,,0,0,1,,,,0,91,110
44640,note_on,,,,,0,0,2,,,,0,43,101
44640,note_off,,,,,120,0,2,,,,0,55,64
44640,note_off,,,,,14,0,1,,,,0,90,64
44740,set_tempo,,,,,240,1,0,221402,,,,,
44760,note_off,,,,,120,0,2,,,,0,43,64
44760,note_on,,,,,0,0,2,,,,0,47,94
44760,note_off,,,,,120,0,1,,,,0,91,64
44760,note_on,,,,,0,0,1,,,,0,79,99
44880,note_off,,,,,120,0,2,,,,0,47,64
44880,note_on,,,,,0,0,2,,,,0,55,91
44880,note_off,,,,,120,0,1,,,,0,79,64
44880,note_on,,,,,0,0,1,,,,0,78,93
44900,set_tempo,,,,,160,1,0,222222,,,,,
45000,note_off,,,,,120,0,1,,,,0,78,64
45000,note_on,,,,,0,0,1,,,,0,80,90
45000,note_on,,,,,0,0,2,,,,0,43,87
45000,note_off,,,,,120,0,2,,,,0,55,64
45120,note_on,,,,,0,0,1,,,,0,79,82
45120,note_on,,,,,0,0,2,,,,0,48,83
45120,note_off,,,,,120,0,2,,,,0,43,64
45120,note_off,,,,,120,0,1,,,,0,80,64
45140,set_tempo,,,,,240,1,0,223881,,,,,
45240,note_off,,,,,120,0,1,,,,0,79,64
45240,note_on,,,,,0,0,1,,,,0,78,76
45240,note_off,,,,,120,0,2,,,,0,48,64
45240,note_on,,,,,0,0,2,,,,0,56,72
45340,set_tempo,,,,,200,1,0,224719,,,,,
45346,control_change,,,,,106,0,1,,64,0,0,,
45360,note_off,,,,,14,0,1,,,,0,78,64
45360,note_on,,,,,0,0,1,,,,0,79,87
45360,note_on,,,,,0,0,2,,,,0,43,78
45360,note_off,,,,,120,0,2,,,,0,56,64
45460,set_tempo,,,,,120,1,0,225564,,,,,
45480,note_off,,,,,120,0,1,,,,0,79,64
45480,note_off,,,,,120,0,2,,,,0,43,64
45480,note_on,,,,,0,0,2,,,,0,47,73
45480,note_on,,,,,0,0,1,,,,0,67,77
45600,note_off,,,,,120,0,2,,,,0,47,64
45600,note_on,,,,,0,0,2,,,,0,55,68
45600,note_on,,,,,0,0,1,,,,0,66,65
45600,note_off,,,,,120,0,1,,,,0,67,64
45660,set_tempo,,,,,200,1,0,229008,,,,,
45720,note_on,,,,,0,0,1,,,,0,68,61
45720,note_off,,,,,120,0,1,,,,0,66,64
45720,note_off,,,,,120,0,2,,,,0,55,64
45720,note_on,,,,,0,0,2,,,,0,43,63
45840,note_on,,,,,0,0,1,,,,0,67,57
45840,note_off,,,,,120,0,1,,,,0,68,64
45840,note_on,,,,,0,0,2,,,,0,48,57
45840,note_off,,,,,120,0,2,,,,0,43,64
45940,set_tempo,,,,,280,1,0,229885,,,,,
45960,note_on,,,,,0,0,2,,,,0,56,52
45960,note_off,,,,,120,0,1,,,,0,67,64
45960,note_on,,,,,0,0,1,,,,0,66,53
45960,note_off,,,,,120,0,2,,,,0,48,64
46080,note_on,,,,,0,0,2,,,,0,43,48
46080,note_off,,,,,120,0,1,,,,0,66,64
46080,note_on,,,,,0,0,1,,,,0,68,50
46080,note_off,,,,,120,0,2,,,,0,56,64
46200,note_on,,,,,0,0,2,,,,0,47,45
46200,note_off,,,,,120,0,2,,,,0,43,64
46200,note_off,,,,,120,0,1,,,,0,68,64
46200,note_on,,,,,0,0,1,,,,0,67,51
46320,note_on,,,,,0,0,1,,,,0,66,48
46320,note_off,,,,,120,0,1,,,,0,67,64
46320,note_off,,,,,120,0,2,,,,0,47,64
46320,note_on,,,,,0,0,2,,,,0,55,42
46400,set_tempo,,,,,460,1,0,231660,,,,,
46440,note_on,,,,,0,0,1,,,,0,68,45
46440,note_off,,,,,120,0,1,,,,0,66,64
46440,note_off,,,,,120,0,2,,,,0,55,64
46440,note_on,,,,,0,0,2,,,,0,43,37
46520,set_tempo,,,,,120,1,0,232558,,,,,
46560,note_off,,,,,120,0,1,,,,0,68,64
46560,note_on,,,,,0,0,2,,,,0,48,34
46560,note_off,,,,,120,0,2,,,,0,43,64
46560,note_on,,,,,0,0,1,,,,0,67,43
46640,set_tempo,,,,,120,1,0,234375,,,,,
46680,note_on,,,,,0,0,1,,,,0,66,40
46680,note_off,,,,,120,0,2,,,,0,48,64
46680,note_on,,,,,0,0,2,,,,0,56,33
46680,note_off,,,,,120,0,1,,,,0,67,64
46760,set_tempo,,,,,120,1,0,237154,,,,,
46800,note_off,,,,,120,0,2,,,,0,56,64
46800,note_on,,,,,0,0,2,,,,0,43,38
46800,note_on,,,,,0,0,1,,,,0,67,40
46800,note_off,,,,,120,0,1,,,,0,66,64
46880,set_tempo,,,,,120,1,0,238095,,,,,
46920,note_off,,,,,120,0,1,,,,0,67,64
46920,note_off,,,,,120,0,2,,,,0,43,64
46920,note_on,,,,,0,0,2,,,,0,47,34
47040,note_on,,,,,120,0,1,,,,0,67,48
47040,note_on,,,,,0,0,2,,,,0,55,30
47040,note_off,,,,,120,0,2,,,,0,47,64
47160,note_off,,,,,120,0,1,,,,0,67,64
47160,note_on,,,,,0,0,1,,,,0,79,37
47160,note_off,,,,,120,0,2,,,,0,55,64
47160,note_on,,,,,0,0,2,,,,0,53,38
47220,set_tempo,,,,,340,1,0,245902,,,,,
47240,set_tempo,,,,,20,1,0,250000,,,,,
47260,set_tempo,,,,,20,1,0,253165,,,,,
47280,note_off,,,,,120,0,2,,,,0,53,64
47280,note_on,,,,,0,0,2,,,,0,59,33
47280,note_off,,,,,120,0,1,,,,0,79,64
47380,set_tempo,,,,,120,1,0,263158,,,,,
47400,note_on,,,,,120,0,1,,,,0,67,34
47400,set_tempo,,,,,20,1,0,267857,,,,,
47400,note_off,,,,,120,0,2,,,,0,59,64
47400,note_on,,,,,0,0,2,,,,0,62,29
47440,set_tempo,,,,,40,1,0,273973,,,,,
47480,set_tempo,,,,,40,1,0,281690,,,,,
47520,note_on,,,,,0,0,2,,,,0,50,39
47520,note_on,,,,,0,0,1,,,,0,79,41
47520,note_off,,,,,120,0,1,,,,0,67,64
47520,note_off,,,,,120,0,2,,,,0,62,64
47520,set_tempo,,,,,40,1,0,288462,,,,,
47540,set_tempo,,,,,20,1,0,294118,,,,,
47560,set_tempo,,,,,20,1,0,297030,,,,,
47620,set_tempo,,,,,60,1,0,303030,,,,,
47640,note_on,,,,,0,0,2,,,,0,53,35
47640,note_off,,,,,120,0,2,,,,0,50,64
47640,note_off,,,,,120,0,1,,,,0,79,64
47740,set_tempo,,,,,120,1,0,315789,,,,,
47760,note_on,,,,,0,0,2,,,,0,59,29
47760,note_off,,,,,120,0,2,,,,0,53,64
47760,note_on,,,,,120,0,1,,,,0,67,30
47880,note_on,,,,,0,0,1,,,,0,79,40
47880,note_off,,,,,120,0,2,,,,0,59,64
47880,note_on,,,,,0,0,2,,,,0,47,38
47880,note_off,,,,,120,0,1,,,,0,67,64
47900,set_tempo,,,,,160,1,0,326087,,,,,
47940,set_tempo,,,,,40,1,0,337079,,,,,
47980,set_tempo,,,,,40,1,0,344828,,,,,
48000,note_off,,,,,120,0,1,,,,0,79,64
48000,note_on,,,,,0,0,2,,,,0,53,30
48000,note_off,,,,,120,0,2,,,,0,47,64
48120,note_on,,,,,120,0,1,,,,0,67,50
48120,note_off,,,,,120,0,2,,,,0,53,64
48120,note_on,,,,,0,0,2,,,,0,55,27
48180,set_tempo,,,,,200,1,0,342857,,,,,
48200,set_tempo,,,,,20,1,0,344828,,,,,
48220,set_tempo,,,,,20,1,0,294118,,,,,
48240,note_off,,,,,120,0,2,,,,0,55,64
48240,note_on,,,,,0,0,2,,,,0,48,44
48240,note_off,,,,,120,0,1,,,,0,67,64
48240,note_on,,,,,0,0,1,,,,0,76,33
48360,note_off,,,,,120,0,2,,,,0,48,64
48360,note_on,,,,,0,0,2,,,,0,52,32
48360,note_off,,,,,120,0,1,,,,0,76,64
48422,set_tempo,,,,,202,1,0,297030,,,,,
48442,set_tempo,,,,,20,1,0,291262,,,,,
48480,note_off,,,,,120,0,2,,,,0,52,64
48480,note_on,,,,,120,0,1,,,,0,76,32
48480,note_on,,,,,0,0,2,,,,0,55,34
48482,set_tempo,,,,,40,1,0,281690,,,,,
48502,set_tempo,,,,,20,1,0,276498,,,,,
48522,set_tempo,,,,,20,1,0,272727,,,,,
48542,set_tempo,,,,,20,1,0,267857,,,,,
48562,set_tempo,,,,,20,1,0,263158,,,,,
48582,set_tempo,,,,,20,1,0,253165,,,,,
48600,note_off,,,,,120,0,1,,,,0,76,64
48600,note_on,,,,,0,0,1,,,,0,74,38
48600,note_on,,,,,0,0,2,,,,0,47,39
48600,note_off,,,,,120,0,2,,,,0,55,64
48622,set_tempo,,,,,40,1,0,248963,,,,,
48642,set_tempo,,,,,20,1,0,245902,,,,,
48720,note_off,,,,,120,0,1,,,,0,74,64
48720,note_off,,,,,120,0,2,,,,0,47,64
48720,note_on,,,,,0,0,2,,,,0,53,32
48822,set_tempo,,,,,180,1,0,243902,,,,,
48840,note_on,,,,,0,0,2,,,,0,55,38
48840,note_on,,,,,120,0,1,,,,0,74,30
48840,note_off,,,,,120,0,2,,,,0,53,64
48942,set_tempo,,,,,120,1,0,242915,,,,,
48960,note_off,,,,,120,0,1,,,,0,74,64
48960,note_on,,,,,0,0,1,,,,0,72,36
48960,note_on,,,,,0,0,2,,,,0,48,42
48960,note_off,,,,,120,0,2,,,,0,55,64
48962,set_tempo,,,,,20,1,0,241935,,,,,
49080,note_off,,,,,120,0,2,,,,0,48,64
49080,note_on,,,,,0,0,2,,,,0,52,33
49080,note_off,,,,,120,0,1,,,,0,72,64
49162,set_tempo,,,,,200,1,0,240964,,,,,
49200,note_on,,,,,120,0,1,,,,0,72,35
49200,note_off,,,,,120,0,2,,,,0,52,64
49200,note_on,,,,,0,0,2,,,,0,55,38
49320,note_off,,,,,120,0,2,,,,0,55,64
49320,note_on,,,,,0,0,2,,,,0,52,41
49320,note_off,,,,,120,0,1,,,,0,72,64
49320,note_on,,,,,0,0,1,,,,0,79,31
49362,set_tempo,,,,,200,1,0,240000,,,,,
49440,note_off,,,,,120,0,1,,,,0,79,64
49440,note_on,,,,,0,0,2,,,,0,55,31
49440,note_off,,,,,120,0,2,,,,0,52,64
49560,note_on,,,,,0,0,2,,,,0,60,34
49560,note_off,,,,,120,0,2,,,,0,55,64
49560,note_on,,,,,120,0,1,,,,0,79,30
49562,set_tempo,,,,,200,1,0,236220,,,,,
49680,note_on,,,,,0,0,2,,,,0,53,40
49680,note_off,,,,,120,0,2,,,,0,60,64
49680,note_off,,,,,120,0,1,,,,0,79,64
49680,note_on,,,,,0,0,1,,,,0,74,38
49762,set_tempo,,,,,200,1,0,235294,,,,,
49800,note_off,,,,,120,0,2,,,,0,53,64
49800,note_on,,,,,0,0,2,,,,0,57,32
49800,note_off,,,,,120,0,1,,,,0,74,64
49920,note_off,,,,,120,0,2,,,,0,57,64
49920,note_on,,,,,0,0,2,,,,0,62,36
49920,note_on,,,,,120,0,1,,,,0,74,31
49962,set_tempo,,,,,200,1,0,234375,,,,,
50040,note_off,,,,,120,0,1,,,,0,74,64
50040,note_on,,,,,0,0,2,,,,0,55,41
50040,note_on,,,,,0,0,1,,,,0,67,36
50040,note_off,,,,,120,0,2,,,,0,62,64
50122,set_tempo,,,,,160,1,0,232558,,,,,
50160,note_off,,,,,120,0,2,,,,0,55,64
50160,note_on,,,,,0,0,2,,,,0,59,34
50160,note_off,,,,,120,0,1,,,,0,67,64
50280,note_off,,,,,120,0,2,,,,0,59,64
50280,note_on,,,,,0,0,2,,,,0,65,38
50280,note_on,,,,,120,0,1,,,,0,67,35
50322,set_tempo,,,,,200,1,0,231660,,,,,
50400,note_off,,,,,120,0,2,,,,0,65,64
50400,note_on,,,,,0,0,2,,,,0,48,42
50400,note_on,,,,,0,0,1,,,,0,76,40
50400,note_off,,,,,120,0,1,,,,0,67,64
50520,note_off,,,,,120,0,2,,,,0,48,64
50520,note_on,,,,,0,0,2,,,,0,55,38
50520,note_off,,,,,120,0,1,,,,0,76,64
50640,note_on,,,,,120,0,1,,,,0,76,39
50640,note_on,,,,,0,0,2,,,,0,60,35
50640,note_off,,,,,120,0,2,,,,0,55,64
50642,set_tempo,,,,,320,1,0,230769,,,,,
50760,note_on,,,,,0,0,2,,,,0,52,39
50760,note_off,,,,,120,0,2,,,,0,60,64
50760,note_on,,,,,0,0,1,,,,0,72,35
50760,note_off,,,,,120,0,1,,,,0,76,64
50880,note_off,,,,,120,0,1,,,,0,72,64
50880,note_off,,,,,120,0,2,,,,0,52,64
50880,note_on,,,,,0,0,2,,,,0,55,35
50922,set_tempo,,,,,280,1,0,229885,,,,,
51000,note_off,,,,,120,0,2,,,,0,55,64
51000,note_on,,,,,0,0,2,,,,0,60,35
51000,note_on,,,,,120,0,1,,,,0,72,34
51120,note_off,,,,,120,0,1,,,,0,72,64
51120,note_on,,,,,0,0,1,,,,0,81,37
51120,note_on,,,,,0,0,2,,,,0,53,38
51120,note_off,,,,,120,0,2,,,,0,60,64
51240,note_off,,,,,120,0,1,,,,0,81,64
51240,note_off,,,,,120,0,2,,,,0,53,64
51240,note_on,,,,,0,0,2,,,,0,57,34
51262,set_tempo,,,,,340,1,0,229008,,,,,
51360,note_off,,,,,120,0,2,,,,0,57,64
51360,note_on,,,,,0,0,2,,,,0,60,32
51360,note_on,,,,,120,0,1,,,,0,81,42
51480,note_off,,,,,120,0,2,,,,0,60,64
51480,note_on,,,,,0,0,2,,,,0,50,40
51480,note_off,,,,,120,0,1,,,,0,81,64
51480,note_on,,,,,0,0,1,,,,0,83,44
51600,note_on,,,,,0,0,2,,,,0,53,35
51600,note_off,,,,,120,0,1,,,,0,83,64
51600,note_off,,,,,120,0,2,,,,0,50,64
51720,note_off,,,,,120,0,2,,,,0,53,64
51720,note_on,,,,,0,0,2,,,,0,60,30
51720,note_on,,,,,120,0,1,,,,0,83,48
51840,note_off,,,,,120,0,1,,,,0,83,64
51840,note_on,,,,,0,0,1,,,,0,84,50
51840,note_on,,,,,0,0,2,,,,0,52,40
51840,note_off,,,,,120,0,2,,,,0,60,64
51960,note_off,,,,,120,0,2,,,,0,52,64
51960,note_off,,,,,120,0,1,,,,0,84,64
51960,note_on,,,,,0,0,2,,,,0,55,35
52080,note_on,,,,,120,0,1,,,,0,84,50
52080,note_on,,,,,0,0,2,,,,0,60,32
52080,note_off,,,,,120,0,2,,,,0,55,64
52200,note_on,,,,,0,0,1,,,,0,88,54
52200,note_off,,,,,120,0,1,,,,0,84,64
52200,note_on,,,,,0,0,2,,,,0,48,40
52200,note_off,,,,,120,0,2,,,,0,60,64
52320,note_off,,,,,120,0,2,,,,0,48,64
52320,note_off,,,,,120,0,1,,,,0,88,64
52320,note_on,,,,,0,0,2,,,,0,52,37
52440,note_off,,,,,120,0,2,,,,0,52,64
52440,note_on,,,,,0,0,2,,,,0,55,29
52440,note_on,,,,,120,0,1,,,,0,79,45
52560,set_tempo,,,,,1298,1,0,231660,,,,,
52560,note_on,,,,,0,0,1,,,,0,78,47
52560,note_on,,,,,0,0,1,,,,0,84,47
52560,note_off,,,,,120,0,1,,,,0,79,64
52560,note_on,,,,,0,0,2,,,,0,45,39
52560,note_off,,,,,120,0,2,,,,0,55,64
52580,set_tempo,,,,,20,1,0,232558,,,,,
52680,note_off,,,,,0,0,1,,,,0,84,64
52680,note_off,,,,,120,0,1,,,,0,78,64
52680,note_off,,,,,120,0,2,,,,0,45,64
52680,note_on,,,,,0,0,2,,,,0,48,34
52740,set_tempo,,,,,160,1,0,236220,,,,,
52800,note_off,,,,,120,0,2,,,,0,48,64
52800,note_on,,,,,0,0,2,,,,0,55,31
52800,note_on,,,,,120,0,1,,,,0,84,43
52800,note_on,,,,,0,0,1,,,,0,78,43
52860,set_tempo,,,,,120,1,0,240000,,,,,
52900,set_tempo,,,,,40,1,0,242915,,,,,
52920,note_off,,,,,120,0,2,,,,0,55,64
52920,note_on,,,,,0,0,1,,,,0,77,41
52920,note_on,,,,,0,0,2,,,,0,47,39
52920,note_on,,,,,0,0,1,,,,0,86,41
52920,note_off,,,,,0,0,1,,,,0,84,64
52920,note_off,,,,,120,0,1,,,,0,78,64
53000,set_tempo,,,,,100,1,0,245902,,,,,
53040,note_off,,,,,0,0,1,,,,0,86,64
53040,note_on,,,,,0,0,2,,,,0,50,33
53040,note_off,,,,,120,0,2,,,,0,47,64
53040,note_off,,,,,120,0,1,,,,0,77,64
53120,set_tempo,,,,,120,1,0,248963,,,,,
53160,note_off,,,,,120,0,2,,,,0,50,64
53160,note_on,,,,,0,0,1,,,,0,77,36
53160,note_on,,,,,120,0,1,,,,0,86,36
53160,note_on,,,,,0,0,2,,,,0,55,30
53160,set_tempo,,,,,40,1,0,253165,,,,,
53240,set_tempo,,,,,80,1,0,256410,,,,,
53260,set_tempo,,,,,20,1,0,258621,,,,,
53280,note_on,,,,,0,0,1,,,,0,76,41
53280,note_off,,,,,120,0,1,,,,0,77,64
53280,note_off,,,,,0,0,1,,,,0,86,64
53280,note_off,,,,,120,0,2,,,,0,55,64
53280,note_on,,,,,0,0,2,,,,0,48,40
53280,note_on,,,,,0,0,1,,,,0,79,41
53282,set_tempo,,,,,22,1,0,262009,,,,,
53340,set_tempo,,,,,58,1,0,246914,,,,,
53400,note_off,,,,,120,0,2,,,,0,48,64
53400,note_on,,,,,0,0,2,,,,0,52,36
53400,note_off,,,,,120,0,1,,,,0,76,64
53400,note_off,,,,,0,0,1,,,,0,79,64
53520,note_on,,,,,120,0,1,,,,0,76,35
53520,note_off,,,,,120,0,2,,,,0,52,64
53520,note_on,,,,,0,0,2,,,,0,55,32
53540,set_tempo,,,,,200,1,0,241935,,,,,
53580,set_tempo,,,,,40,1,0,238095,,,,,
53640,note_off,,,,,120,0,1,,,,0,76,64
53640,note_on,,,,,0,0,1,,,,0,79,39
53640,note_on,,,,,0,0,2,,,,0,52,39
53640,note_off,,,,,120,0,2,,,,0,55,64
53700,set_tempo,,,,,120,1,0,235294,,,,,
53740,set_tempo,,,,,40,1,0,234375,,,,,
53760,note_off,,,,,120,0,1,,,,0,79,64
53760,note_off,,,,,120,0,2,,,,0,52,64
53760,note_on,,,,,0,0,2,,,,0,55,37
53840,set_tempo,,,,,100,1,0,231660,,,,,
53880,note_on,,,,,120,0,1,,,,0,91,39
53880,note_off,,,,,120,0,2,,,,0,55,64
53880,note_on,,,,,0,0,2,,,,0,60,34
53960,set_tempo,,,,,120,1,0,229008,,,,,
54000,note_off,,,,,120,0,1,,,,0,91,64
54000,note_on,,,,,0,0,1,,,,0,93,35
54000,note_off,,,,,120,0,2,,,,0,60,64
54000,note_on,,,,,0,0,2,,,,0,53,31
54120,note_off,,,,,120,0,1,,,,0,93,64
54120,note_on,,,,,0,0,2,,,,0,57,29
54120,note_off,,,,,120,0,2,,,,0,53,64
54200,set_tempo,,,,,240,1,0,227273,,,,,
54222,set_tempo,,,,,22,1,0,230769,,,,,
54240,note_on,,,,,0,0,2,,,,0,60,26
54240,note_on,,,,,120,0,1,,,,0,93,37
54240,note_off,,,,,120,0,2,,,,0,57,64
54360,note_off,,,,,120,0,1,,,,0,93,64
54360,note_on,,,,,0,0,1,,,,0,95,39
54360,note_off,,,,,120,0,2,,,,0,60,64
54360,note_on,,,,,0,0,2,,,,0,50,35
54480,note_off,,,,,120,0,1,,,,0,95,64
54480,note_off,,,,,120,0,2,,,,0,50,64
54480,note_on,,,,,0,0,2,,,,0,53,32
54600,note_on,,,,,0,0,2,,,,0,60,22
54600,note_off,,,,,120,0,2,,,,0,53,64
54600,note_on,,,,,120,0,1,,,,0,95,42
54720,note_on,,,,,0,0,2,,,,0,52,34
54720,note_off,,,,,120,0,1,,,,0,95,64
54720,note_on,,,,,0,0,1,,,,0,96,44
54720,note_off,,,,,120,0,2,,,,0,60,64
54840,note_off,,,,,120,0,1,,,,0,96,64
54840,note_off,,,,,120,0,2,,,,0,52,64
54840,note_on,,,,,0,0,2,,,,0,55,31
54960,note_on,,,,,0,0,2,,,,0,60,27
54960,note_off,,,,,120,0,2,,,,0,55,64
54960,note_on,,,,,120,0,1,,,,0,96,48
55080,note_off,,,,,120,0,1,,,,0,96,64
55080,note_on,,,,,0,0,1,,,,0,100,51
55080,note_on,,,,,0,0,2,,,,0,48,24
55080,note_off,,,,,120,0,2,,,,0,60,64
55200,note_off,,,,,120,0,1,,,,0,100,64
55200,note_on,,,,,0,0,2,,,,0,52,32
55200,note_off,,,,,120,0,2,,,,0,48,64
55320,note_on,,,,,0,0,2,,,,0,55,28
55320,note_off,,,,,120,0,2,,,,0,52,64
55320,note_on,,,,,120,0,1,,,,0,79,43
55380,set_tempo,,,,,1158,1,0,231660,,,,,
55440,set_tempo,,,,,60,1,0,236220,,,,,
55440,note_on,,,,,0,0,2,,,,0,45,37
55440,note_off,,,,,120,0,2,,,,0,55,64
55440,note_on,,,,,0,0,1,,,,0,84,50
55440,note_off,,,,,120,0,1,,,,0,79,64
55440,note_on,,,,,0,0,1,,,,0,78,50
55560,note_off,,,,,0,0,1,,,,0,84,64
55560,note_on,,,,,0,0,2,,,,0,48,32
55560,note_off,,,,,120,0,2,,,,0,45,64
55560,note_off,,,,,120,0,1,,,,0,78,64
55580,set_tempo,,,,,140,1,0,238095,,,,,
55660,set_tempo,,,,,80,1,0,243902,,,,,
55680,note_on,,,,,120,0,1,,,,0,84,44
55680,note_on,,,,,0,0,1,,,,0,78,44
55680,note_on,,,,,0,0,2,,,,0,55,29
55680,note_off,,,,,120,0,2,,,,0,48,64
55780,set_tempo,,,,,120,1,0,245902,,,,,
55800,note_on,,,,,0,0,2,,,,0,47,35
55800,note_off,,,,,120,0,2,,,,0,55,64
55800,note_on,,,,,0,0,1,,,,0,77,41
55800,note_on,,,,,0,0,1,,,,0,86,41
55800,note_off,,,,,0,0,1,,,,0,84,64
55800,note_off,,,,,120,0,1,,,,0,78,64
55920,note_on,,,,,0,0,2,,,,0,50,33
55920,note_off,,,,,120,0,2,,,,0,47,64
55920,note_off,,,,,120,0,1,,,,0,77,64
55920,set_tempo,,,,,140,1,0,248963,,,,,
55920,note_off,,,,,0,0,1,,,,0,86,64
56040,note_on,,,,,0,0,1,,,,0,77,36
56040,set_tempo,,,,,120,1,0,253165,,,,,
56040,note_off,,,,,120,0,2,,,,0,50,64
56040,note_on,,,,,0,0,2,,,,0,55,30
56040,note_on,,,,,120,0,1,,,,0,86,36
56160,set_tempo,,,,,120,1,0,256410,,,,,
56160,note_off,,,,,120,0,2,,,,0,55,64
56160,note_on,,,,,0,0,2,,,,0,48,34
56160,note_off,,,,,120,0,1,,,,0,77,64
56160,note_off,,,,,0,0,1,,,,0,86,64
56160,note_on,,,,,0,0,1,,,,0,76,30
56160,note_on,,,,,0,0,1,,,,0,79,30
56180,set_tempo,,,,,20,1,0,260870,,,,,
56220,set_tempo,,,,,40,1,0,259740,,,,,
56280,note_on,,,,,0,0,2,,,,0,52,31
56280,note_off,,,,,120,0,2,,,,0,48,64
56280,note_off,,,,,0,0,1,,,,0,79,64
56280,note_off,,,,,120,0,1,,,,0,76,64
56280,set_tempo,,,,,60,1,0,260870,,,,,
56322,set_tempo,,,,,42,1,0,255319,,,,,
56340,set_tempo,,,,,18,1,0,250000,,,,,
56360,set_tempo,,,,,20,1,0,252101,,,,,
56380,set_tempo,,,,,20,1,0,250000,,,,,
56400,set_tempo,,,,,20,1,0,246914,,,,,
56400,note_on,,,,,120,0,1,,,,0,76,37
56400,note_off,,,,,120,0,2,,,,0,52,64
56400,note_on,,,,,0,0,2,,,,0,55,27
56520,set_tempo,,,,,120,1,0,242915,,,,,
56520,note_off,,,,,120,0,2,,,,0,55,64
56520,note_on,,,,,0,0,2,,,,0,52,39
56520,note_on,,,,,0,0,1,,,,0,72,41
56520,note_off,,,,,120,0,1,,,,0,76,64
56560,set_tempo,,,,,40,1,0,240000,,,,,
56640,note_on,,,,,0,0,2,,,,0,55,37
56640,note_off,,,,,120,0,2,,,,0,52,64
56640,note_off,,,,,120,0,1,,,,0,72,64
56680,set_tempo,,,,,120,1,0,236220,,,,,
56760,note_on,,,,,0,0,2,,,,0,60,33
56760,note_off,,,,,120,0,2,,,,0,55,64
56760,note_on,,,,,120,0,1,,,,0,72,34
56800,set_tempo,,,,,120,1,0,235294,,,,,
56820,set_tempo,,,,,20,1,0,234375,,,,,
56880,note_off,,,,,120,0,2,,,,0,60,64
56880,note_on,,,,,0,0,2,,,,0,53,39
56880,set_tempo,,,,,60,1,0,230769,,,,,
56880,note_off,,,,,120,0,1,,,,0,72,64
56880,note_on,,,,,0,0,1,,,,0,71,39
57000,note_off,,,,,120,0,1,,,,0,71,64
57000,note_off,,,,,120,0,2,,,,0,53,64
57000,note_on,,,,,0,0,2,,,,0,56,35
57060,set_tempo,,,,,180,1,0,229008,,,,,
57120,note_on,,,,,120,0,1,,,,0,71,33
57120,note_off,,,,,120,0,2,,,,0,56,64
57120,note_on,,,,,0,0,2,,,,0,60,32
57220,set_tempo,,,,,160,1,0,227273,,,,,
57240,note_off,,,,,120,0,1,,,,0,71,64
57240,note_on,,,,,0,0,1,,,,0,69,38
57240,note_on,,,,,0,0,2,,,,0,53,39
57240,note_off,,,,,120,0,2,,,,0,60,64
57360,note_off,,,,,120,0,1,,,,0,69,64
57360,note_on,,,,,0,0,2,,,,0,57,33
57360,note_off,,,,,120,0,2,,,,0,53,64
57460,set_tempo,,,,,240,1,0,226415,,,,,
57480,note_on,,,,,0,0,2,,,,0,60,30
57480,note_on,,,,,120,0,1,,,,0,69,33
57480,note_off,,,,,120,0,2,,,,0,57,64
57600,note_on,,,,,0,0,2,,,,0,50,37
57600,note_off,,,,,120,0,1,,,,0,69,64
57600,note_on,,,,,0,0,1,,,,0,77,40
57600,note_off,,,,,120,0,2,,,,0,60,64
57720,note_off,,,,,120,0,1,,,,0,77,64
57720,note_off,,,,,120,0,2,,,,0,50,64
57720,note_on,,,,,0,0,2,,,,0,57,35
57840,note_off,,,,,120,0,2,,,,0,57,64
57840,note_on,,,,,0,0,2,,,,0,62,31
57840,note_on,,,,,120,0,1,,,,0,77,36
57960,note_off,,,,,120,0,2,,,,0,62,64
57960,note_on,,,,,0,0,2,,,,0,55,40
57960,note_on,,,,,0,0,1,,,,0,71,42
57960,note_off,,,,,120,0,1,,,,0,77,64
58080,note_off,,,,,120,0,2,,,,0,55,64
58080,note_on,,,,,0,0,2,,,,0,59,34
58080,note_off,,,,,120,0,1,,,,0,71,64
58200,set_tempo,,,,,740,1,0,227273,,,,,
58200,note_off,,,,,120,0,2,,,,0,59,64
58200,note_on,,,,,0,0,2,,,,0,62,31
58200,note_on,,,,,120,0,1,,,,0,71,36
58320,note_off,,,,,120,0,2,,,,0,62,64
58320,note_off,,,,,120,0,1,,,,0,71,64
58320,note_on,,,,,0,0,2,,,,0,52,40
58320,note_on,,,,,0,0,1,,,,0,79,43
58320,set_tempo,,,,,120,1,0,229885,,,,,
58440,note_off,,,,,120,0,1,,,,0,79,64
58440,note_on,,,,,0,0,2,,,,0,55,38
58440,note_off,,,,,120,0,2,,,,0,52,64
58480,set_tempo,,,,,160,1,0,231660,,,,,
58560,note_off,,,,,120,0,2,,,,0,55,64
58560,note_on,,,,,120,0,1,,,,0,79,41
58560,note_on,,,,,0,0,2,,,,0,60,33
58622,set_tempo,,,,,142,1,0,232558,,,,,
58680,note_on,,,,,0,0,2,,,,0,51,49
58680,note_off,,,,,120,0,2,,,,0,60,64
58680,note_off,,,,,120,0,1,,,,0,79,64
58680,note_on,,,,,0,0,1,,,,0,80,51
58680,control_change,,,,,0,0,1,,64,95,0,,
58682,set_tempo,,,,,60,1,0,246914,,,,,
58800,note_on,,,,,0,0,2,,,,0,54,46
58800,note_off,,,,,120,0,2,,,,0,51,64
58800,note_off,,,,,120,0,1,,,,0,80,64
58920,note_off,,,,,120,0,2,,,,0,54,64
58920,note_on,,,,,120,0,1,,,,0,80,46
58920,note_on,,,,,0,0,2,,,,0,60,43
59032,control_change,,,,,112,0,1,,64,0,0,,
59040,note_off,,,,,120,0,2,,,,0,60,64
59040,note_on,,,,,0,0,2,,,,0,52,39
59040,note_on,,,,,0,0,1,,,,0,79,42
59040,note_off,,,,,8,0,1,,,,0,80,64
59042,set_tempo,,,,,360,1,0,227273,,,,,
59122,set_tempo,,,,,80,1,0,226415,,,,,
59160,note_off,,,,,120,0,2,,,,0,52,64
59160,note_on,,,,,0,0,2,,,,0,55,35
59160,note_off,,,,,120,0,1,,,,0,79,64
59182,set_tempo,,,,,60,1,0,225564,,,,,
59280,note_off,,,,,120,0,2,,,,0,55,64
59280,note_on,,,,,120,0,1,,,,0,79,38
59280,note_on,,,,,0,0,2,,,,0,60,31
59400,note_off,,,,,120,0,2,,,,0,60,64
59400,note_on,,,,,0,0,1,,,,0,84,36
59400,note_off,,,,,120,0,1,,,,0,79,64
59400,note_on,,,,,0,0,2,,,,0,52,39
59442,set_tempo,,,,,260,1,0,224719,,,,,
59520,note_off,,,,,120,0,2,,,,0,52,64
59520,note_on,,,,,0,0,2,,,,0,55,35
59520,note_off,,,,,120,0,1,,,,0,84,64
59640,note_off,,,,,120,0,2,,,,0,55,64
59640,note_on,,,,,120,0,1,,,,0,84,36
59640,note_on,,,,,0,0,2,,,,0,60,31
59742,set_tempo,,,,,300,1,0,223881,,,,,
59760,note_on,,,,,0,0,1,,,,0,83,39
59760,note_off,,,,,120,0,1,,,,0,84,64
59760,note_on,,,,,0,0,2,,,,0,53,39
59760,note_off,,,,,120,0,2,,,,0,60,64
59880,note_off,,,,,120,0,1,,,,0,83,64
59880,note_on,,,,,0,0,2,,,,0,56,35
59880,note_off,,,,,120,0,2,,,,0,53,64
60000,note_off,,,,,120,0,2,,,,0,56,64
60000,note_on,,,,,0,0,2,,,,0,60,32
60000,note_on,,,,,120,0,1,,,,0,83,40
60120,note_off,,,,,120,0,1,,,,0,83,64
60120,note_on,,,,,0,0,1,,,,0,81,42
60120,note_off,,,,,120,0,2,,,,0,60,64
60120,note_on,,,,,0,0,2,,,,0,53,35
60240,note_off,,,,,120,0,2,,,,0,53,64
60240,note_on,,,,,0,0,2,,,,0,57,40
60240,note_off,,,,,120,0,1,,,,0,81,64
60360,note_off,,,,,120,0,2,,,,0,57,64
60360,note_on,,,,,120,0,1,,,,0,81,48
60360,note_on,,,,,0,0,2,,,,0,60,46
60402,set_tempo,,,,,660,1,0,222222,,,,,
60480,note_on,,,,,0,0,2,,,,0,50,53
60480,note_off,,,,,120,0,2,,,,0,60,64
60480,note_on,,,,,0,0,1,,,,0,89,48
60480,note_off,,,,,120,0,1,,,,0,81,64
60600,note_on,,,,,0,0,2,,,,0,57,48
60600,note_off,,,,,120,0,2,,,,0,50,64
60600,note_off,,,,,120,0,1,,,,0,89,64
60720,note_on,,,,,0,0,2,,,,0,62,39
60720,note_off,,,,,120,0,2,,,,0,57,64
60720,note_on,,,,,120,0,1,,,,0,89,46
60840,note_on,,,,,0,0,2,,,,0,55,45
60840,note_off,,,,,120,0,2,,,,0,62,64
60840,note_on,,,,,0,0,1,,,,0,83,50
60840,note_off,,,,,120,0,1,,,,0,89,64
60960,note_off,,,,,120,0,1,,,,0,83,64
60960,note_off,,,,,120,0,2,,,,0,55,64
60960,note_on,,,,,0,0,2,,,,0,62,47
61080,note_on,,,,,0,0,2,,,,0,65,55
61080,note_off,,,,,120,0,2,,,,0,62,64
61080,note_on,,,,,120,0,1,,,,0,83,65
61200,note_on,,,,,0,0,2,,,,0,48,68
61200,note_off,,,,,120,0,2,,,,0,65,64
61200,note_off,,,,,120,0,1,,,,0,83,64
61200,note_on,,,,,0,0,1,,,,0,84,68
61206,control_change,,,,,6,0,1,,64,96,0,,
61320,note_off,,,,,120,0,2,,,,0,48,64
61320,note_off,,,,,114,0,1,,,,0,84,64
61320,note_on,,,,,0,0,2,,,,0,52,65
61440,note_on,,,,,120,0,1,,,,0,96,67
61440,note_on,,,,,0,0,2,,,,0,55,63
61440,note_off,,,,,120,0,2,,,,0,52,64
61560,note_on,,,,,0,0,2,,,,0,48,60
61560,note_off,,,,,120,0,1,,,,0,96,64
61560,note_off,,,,,120,0,2,,,,0,55,64
61560,note_on,,,,,0,0,1,,,,0,92,63
61566,control_change,,,,,6,0,1,,64,0,0,,
61680,note_on,,,,,0,0,2,,,,0,51,56
61680,note_off,,,,,114,0,1,,,,0,92,64
61680,note_off,,,,,120,0,2,,,,0,48,64
61800,note_on,,,,,120,0,1,,,,0,92,55
61800,note_off,,,,,120,0,2,,,,0,51,64
61800,note_on,,,,,0,0,2,,,,0,54,52
61920,note_on,,,,,0,0,1,,,,0,91,60
61920,note_off,,,,,120,0,1,,,,0,92,64
61920,note_off,,,,,120,0,2,,,,0,54,64
61920,note_on,,,,,0,0,2,,,,0,48,54
62040,note_off,,,,,120,0,1,,,,0,91,64
62040,note_on,,,,,0,0,2,,,,0,52,48
62040,note_off,,,,,120,0,2,,,,0,48,64
62160,note_off,,,,,120,0,2,,,,0,52,64
62160,note_on,,,,,120,0,1,,,,0,91,54
62160,note_on,,,,,0,0,2,,,,0,55,47
62280,note_on,,,,,0,0,2,,,,0,48,46
62280,note_on,,,,,0,0,1,,,,0,85,62
62280,note_off,,,,,120,0,2,,,,0,55,64
62280,note_off,,,,,120,0,1,,,,0,91,64
62400,note_off,,,,,120,0,1,,,,0,85,64
62400,note_on,,,,,0,0,2,,,,0,53,55
62400,note_off,,,,,120,0,2,,,,0,48,64
62520,note_off,,,,,120,0,2,,,,0,53,64
62520,note_on,,,,,0,0,2,,,,0,56,51
62520,note_on,,,,,120,0,1,,,,0,85,57
62640,note_on,,,,,0,0,2,,,,0,48,59
62640,note_off,,,,,120,0,2,,,,0,56,64
62640,note_off,,,,,120,0,1,,,,0,85,64
62640,note_on,,,,,0,0,1,,,,0,84,49
62646,control_change,,,,,6,0,1,,64,96,0,,
62760,note_on,,,,,0,0,2,,,,0,52,56
62760,note_off,,,,,120,0,2,,,,0,48,64
62760,note_off,,,,,114,0,1,,,,0,84,64
62880,note_on,,,,,0,0,2,,,,0,55,53
62880,note_on,,,,,120,0,1,,,,0,84,48
62880,note_off,,,,,120,0,2,,,,0,52,64
63000,note_on,,,,,0,0,1,,,,0,80,44
63000,note_off,,,,,120,0,2,,,,0,55,64
63000,note_off,,,,,120,0,1,,,,0,84,64
63000,note_on,,,,,0,0,2,,,,0,48,50
63006,control_change,,,,,6,0,1,,64,0,0,,
63120,note_off,,,,,120,0,2,,,,0,48,64
63120,note_on,,,,,0,0,2,,,,0,51,48
63120,note_off,,,,,114,0,1,,,,0,80,64
63240,note_off,,,,,120,0,2,,,,0,51,64
63240,note_on,,,,,120,0,1,,,,0,80,44
63240,note_on,,,,,0,0,2,,,,0,54,47
63262,set_tempo,,,,,2860,1,0,223881,,,,,
63360,note_on,,,,,0,0,1,,,,0,79,42
63360,note_off,,,,,120,0,1,,,,0,80,64
63360,note_off,,,,,120,0,2,,,,0,54,64
63360,note_on,,,,,0,0,2,,,,0,48,44
63480,note_off,,,,,120,0,1,,,,0,79,64
63480,note_off,,,,,120,0,2,,,,0,48,64
63480,note_on,,,,,0,0,2,,,,0,52,42
63600,note_on,,,,,0,0,2,,,,0,55,38
63600,note_on,,,,,120,0,1,,,,0,79,39
63600,note_off,,,,,120,0,2,,,,0,52,64
63702,set_tempo,,,,,440,1,0,224719,,,,,
63720,note_on,,,,,0,0,2,,,,0,48,47
63720,note_off,,,,,120,0,2,,,,0,55,64
63720,note_on,,,,,0,0,1,,,,0,73,49
63720,note_off,,,,,120,0,1,,,,0,79,64
63840,note_on,,,,,0,0,2,,,,0,53,46
63840,note_off,,,,,120,0,1,,,,0,73,64
63840,note_off,,,,,120,0,2,,,,0,48,64
63922,set_tempo,,,,,220,1,0,225564,,,,,
63960,note_on,,,,,120,0,1,,,,0,73,44
63960,note_off,,,,,120,0,2,,,,0,53,64
63960,note_on,,,,,0,0,2,,,,0,56,41
64080,note_on,,,,,0,0,1,,,,0,72,41
64080,note_on,,,,,0,0,2,,,,0,48,52
64080,note_off,,,,,120,0,2,,,,0,56,64
64080,note_off,,,,,120,0,1,,,,0,73,64
64086,control_change,,,,,6,0,1,,64,96,0,,
64200,note_off,,,,,120,0,2,,,,0,48,64
64200,note_on,,,,,0,0,2,,,,0,52,49
64200,note_off,,,,,114,0,1,,,,0,72,64
64320,note_off,,,,,120,0,2,,,,0,52,64
64320,note_on,,,,,0,0,2,,,,0,55,47
64320,note_on,,,,,120,0,1,,,,0,72,39
64440,note_on,,,,,0,0,1,,,,0,68,35
64440,note_off,,,,,120,0,1,,,,0,72,64
64440,note_on,,,,,0,0,2,,,,0,48,42
64440,note_off,,,,,120,0,2,,,,0,55,64
64446,control_change,,,,,6,0,1,,64,0,0,,
64560,note_off,,,,,120,0,2,,,,0,48,64
64560,note_off,,,,,114,0,1,,,,0,68,64
64560,note_on,,,,,0,0,2,,,,0,51,40
64680,note_on,,,,,120,0,1,,,,0,68,31
64680,note_off,,,,,120,0,2,,,,0,51,64
64680,note_on,,,,,0,0,2,,,,0,54,36
64722,set_tempo,,,,,800,1,0,227273,,,,,
64800,note_on,,,,,0,0,2,,,,0,48,33
64800,note_off,,,,,120,0,2,,,,0,54,64
64800,note_off,,,,,120,0,1,,,,0,68,64
64800,note_on,,,,,0,0,1,,,,0,67,33
64822,set_tempo,,,,,100,1,0,229008,,,,,
64920,note_on,,,,,0,0,2,,,,0,52,33
64920,note_off,,,,,120,0,1,,,,0,67,64
64920,note_off,,,,,120,0,2,,,,0,48,64
64980,set_tempo,,,,,158,1,0,229885,,,,,
65040,note_off,,,,,120,0,2,,,,0,52,64
65040,note_on,,,,,0,0,2,,,,0,55,31
65040,note_on,,,,,120,0,1,,,,0,67,36
65160,note_off,,,,,120,0,1,,,,0,67,64
65160,note_off,,,,,120,0,2,,,,0,55,64
65160,note_on,,,,,0,0,2,,,,0,48,39
65160,note_on,,,,,0,0,1,,,,0,61,45
65280,note_off,,,,,120,0,2,,,,0,48,64
65280,note_off,,,,,120,0,1,,,,0,61,64
65280,note_on,,,,,0,0,2,,,,0,53,37
65400,note_on,,,,,120,0,1,,,,0,61,40
65400,note_on,,,,,0,0,2,,,,0,56,33
65400,note_off,,,,,120,0,2,,,,0,53,64
65520,note_off,,,,,120,0,1,,,,0,61,64
65520,note_on,,,,,0,0,1,,,,0,60,51
65520,note_on,,,,,0,0,2,,,,0,48,39
65520,note_off,,,,,120,0,2,,,,0,56,64
65522,set_tempo,,,,,542,1,0,231660,,,,,
65640,note_off,,,,,120,0,2,,,,0,48,64
65640,note_on,,,,,0,0,2,,,,0,52,46
65640,note_off,,,,,120,0,1,,,,0,60,64
65662,set_tempo,,,,,140,1,0,232558,,,,,
65760,note_off,,,,,120,0,2,,,,0,52,64
65760,note_on,,,,,120,0,1,,,,0,60,41
65760,note_on,,,,,0,0,2,,,,0,55,49
65880,note_off,,,,,120,0,2,,,,0,55,64
65880,note_on,,,,,0,0,2,,,,0,48,53
65880,note_off,,,,,120,0,1,,,,0,60,64
65880,note_on,,,,,0,0,1,,,,0,61,55
66000,note_off,,,,,120,0,2,,,,0,48,64
66000,note_on,,,,,0,0,2,,,,0,53,59
66000,note_off,,,,,120,0,1,,,,0,61,64
66062,set_tempo,,,,,400,1,0,235294,,,,,
66080,set_tempo,,,,,18,1,0,236220,,,,,
66120,note_off,,,,,120,0,2,,,,0,53,64
66120,note_on,,,,,0,0,2,,,,0,56,63
66120,note_on,,,,,120,0,1,,,,0,61,47
66240,note_off,,,,,120,0,2,,,,0,56,64
66240,note_on,,,,,0,0,2,,,,0,48,70
66240,note_on,,,,,0,0,1,,,,0,60,65
66240,note_off,,,,,120,0,1,,,,0,61,64
66280,set_tempo,,,,,200,1,0,238095,,,,,
66320,set_tempo,,,,,40,1,0,240000,,,,,
66360,note_off,,,,,120,0,1,,,,0,60,64
66360,set_tempo,,,,,40,1,0,240964,,,,,
66360,note_off,,,,,120,0,2,,,,0,48,64
66360,note_on,,,,,0,0,2,,,,0,52,76
66480,note_off,,,,,120,0,2,,,,0,52,64
66480,note_on,,,,,0,0,2,,,,0,55,88
66480,set_tempo,,,,,120,1,0,242915,,,,,
66480,note_on,,,,,120,0,1,,,,0,60,84
66580,set_tempo,,,,,100,1,0,243902,,,,,
66600,note_off,,,,,120,0,1,,,,0,60,64
66600,note_on,,,,,0,0,1,,,,0,61,95
66600,control_change,,,,,0,0,1,,64,95,0,,
66600,note_on,,,,,0,0,2,,,,0,49,96
66600,note_off,,,,,120,0,2,,,,0,55,64
66660,set_tempo,,,,,80,1,0,250000,,,,,
66690,note_off,,,,,90,0,2,,,,0,49,64
66690,note_off,,,,,90,0,1,,,,0,61,64
66780,set_tempo,,,,,120,1,0,254237,,,,,
66820,set_tempo,,,,,40,1,0,258621,,,,,
66840,note_on,,,,,150,0,1,,,,0,61,114
66840,note_on,,,,,150,0,2,,,,0,49,116
66860,set_tempo,,,,,40,1,0,312500,,,,,
66862,set_tempo,,,,,2,1,0,315789,,,,,
66882,set_tempo,,,,,20,1,0,327869,,,,,
66902,set_tempo,,,,,20,1,0,337079,,,,,
66930,note_off,,,,,90,0,2,,,,0,49,64
66930,note_off,,,,,90,0,1,,,,0,61,64
66952,control_change,,,,,22,0,1,,64,0,0,,
66960,note_on,,,,,8,0,1,,,,0,61,127
66960,control_change,,,,,0,0,1,,64,95,0,,
66960,note_on,,,,,30,0,2,,,,0,37,125
66960,note_on,,,,,0,0,2,,,,0,49,125
67042,set_tempo,,,,,140,1,0,229008,,,,,
68280,note_off,,,,,1320,0,2,,,,0,49,64
68340,note_off,,,,,1380,0,1,,,,0,61,64
68342,set_tempo,,,,,1300,1,0,384615,,,,,
68386,control_change,,,,,46,0,1,,64,0,0,,
68400,note_on,,,,,14,0,1,,,,0,62,62
68400,note_off,,,,,120,0,2,,,,0,37,64
68400,note_on,,,,,0,0,2,,,,0,60,61
68400,note_on,,,,,0,0,2,,,,0,56,61
68400,note_on,,,,,0,0,2,,,,0,54,61
68400,note_on,,,,,0,0,2,,,,0,49,61
68402,set_tempo,,,,,60,1,0,243902,,,,,
68490,note_off,,,,,0,0,2,,,,0,56,64
68490,note_off,,,,,90,0,2,,,,0,49,64
68490,note_off,,,,,0,0,2,,,,0,54,64
68490,note_off,,,,,90,0,1,,,,0,62,64
68490,note_off,,,,,0,0,2,,,,0,60,64
68502,set_tempo,,,,,100,1,0,242915,,,,,
68520,note_on,,,,,0,0,2,,,,0,54,66
68520,note_on,,,,,0,0,2,,,,0,49,66
68520,note_on,,,,,30,0,1,,,,0,63,69
68520,note_on,,,,,30,0,2,,,,0,60,66
68520,note_on,,,,,0,0,2,,,,0,56,66
68562,set_tempo,,,,,60,1,0,241935,,,,,
68610,note_off,,,,,0,0,2,,,,0,54,64
68610,note_off,,,,,0,0,2,,,,0,56,64
68610,note_off,,,,,0,0,2,,,,0,60,64
68610,note_off,,,,,90,0,1,,,,0,63,64
68610,note_off,,,,,90,0,2,,,,0,49,64
68640,note_on,,,,,30,0,1,,,,0,65,74
68640,note_on,,,,,30,0,2,,,,0,60,71
68640,note_on,,,,,0,0,2,,,,0,54,71
68640,note_on,,,,,0,0,2,,,,0,49,71
68640,note_on,,,,,0,0,2,,,,0,56,71
68642,set_tempo,,,,,80,1,0,240964,,,,,
68722,set_tempo,,,,,80,1,0,240000,,,,,
68730,note_off,,,,,0,0,2,,,,0,54,64
68730,note_off,,,,,90,0,2,,,,0,49,64
68730,note_off,,,,,0,0,2,,,,0,56,64
68730,note_off,,,,,90,0,1,,,,0,65,64
68730,note_off,,,,,0,0,2,,,,0,60,64
68760,note_on,,,,,30,0,2,,,,0,60,75
68760,note_on,,,,,0,0,2,,,,0,56,75
68760,note_on,,,,,30,0,1,,,,0,66,80
68760,note_on,,,,,0,0,2,,,,0,49,75
68760,note_on,,,,,0,0,2,,,,0,54,75
68802,set_tempo,,,,,80,1,0,238095,,,,,
68850,note_off,,,,,90,0,2,,,,0,49,64
68850,note_off,,,,,0,0,2,,,,0,54,64
68850,note_off,,,,,0,0,2,,,,0,60,64
68850,note_off,,,,,90,0,1,,,,0,66,64
68850,note_off,,,,,0,0,2,,,,0,56,64
68862,set_tempo,,,,,60,1,0,237154,,,,,
68880,note_on,,,,,30,0,2,,,,0,60,79
68880,note_on,,,,,0,0,2,,,,0,56,79
68880,note_on,,,,,30,0,1,,,,0,68,85
68880,note_on,,,,,0,0,2,,,,0,49,79
68880,note_on,,,,,0,0,2,,,,0,54,79
68942,set_tempo,,,,,80,1,0,236220,,,,,
68970,note_off,,,,,0,0,2,,,,0,60,64
68970,note_off,,,,,0,0,2,,,,0,56,64
68970,note_off,,,,,90,0,1,,,,0,68,64
68970,note_off,,,,,0,0,2,,,,0,54,64
68970,note_off,,,,,90,0,2,,,,0,49,64
69000,note_on,,,,,30,0,2,,,,0,60,85
69000,note_on,,,,,0,0,2,,,,0,49,85
69000,note_on,,,,,0,0,2,,,,0,54,85
69000,note_on,,,,,0,0,2,,,,0,56,85
69000,note_on,,,,,30,0,1,,,,0,70,90
69042,set_tempo,,,,,100,1,0,235294,,,,,
69090,note_off,,,,,90,0,2,,,,0,49,64
69090,note_off,,,,,0,0,2,,,,0,54,64
69090,note_off,,,,,0,0,2,,,,0,60,64
69090,note_off,,,,,0,0,2,,,,0,56,64
69090,note_off,,,,,90,0,1,,,,0,70,64
69102,set_tempo,,,,,60,1,0,234375,,,,,
69120,note_on,,,,,0,0,2,,,,0,49,89
69120,note_on,,,,,30,0,1,,,,0,72,95
69120,note_on,,,,,0,0,2,,,,0,54,89
69120,note_on,,,,,30,0,2,,,,0,60,89
69120,note_on,,,,,0,0,2,,,,0,56,89
69182,set_tempo,,,,,80,1,0,232558,,,,,
69210,note_off,,,,,90,0,1,,,,0,72,64
69210,note_off,,,,,90,0,2,,,,0,49,64
69210,note_off,,,,,0,0,2,,,,0,54,64
69210,note_off,,,,,0,0,2,,,,0,56,64
69210,note_off,,,,,0,0,2,,,,0,60,64
69240,note_on,,,,,0,0,2,,,,0,54,95
69240,note_on,,,,,0,0,2,,,,0,56,95
69240,note_on,,,,,30,0,2,,,,0,60,95
69240,note_on,,,,,0,0,2,,,,0,49,95
69240,note_on,,,,,30,0,1,,,,0,73,101
69282,set_tempo,,,,,100,1,0,231660,,,,,
69322,set_tempo,,,,,40,1,0,230769,,,,,
69330,note_off,,,,,90,0,1,,,,0,73,64
69330,note_off,,,,,90,0,2,,,,0,49,64
69330,note_off,,,,,0,0,2,,,,0,54,64
69330,note_off,,,,,0,0,2,,,,0,56,64
69330,note_off,,,,,0,0,2,,,,0,60,64
69360,note_on,,,,,30,0,1,,,,0,75,108
69360,note_on,,,,,0,0,2,,,,0,49,99
69360,note_on,,,,,0,0,2,,,,0,56,99
69360,note_on,,,,,30,0,2,,,,0,60,99
69360,note_on,,,,,0,0,2,,,,0,54,99
69382,set_tempo,,,,,60,1,0,229885,,,,,
69450,note_off,,,,,90,0,2,,,,0,49,64
69450,note_off,,,,,0,0,2,,,,0,54,64
69450,note_off,,,,,0,0,2,,,,0,56,64
69450,note_off,,,,,0,0,2,,,,0,60,64
69450,note_off,,,,,90,0,1,,,,0,75,64
69480,note_on,,,,,0,0,2,,,,0,56,105
69480,note_on,,,,,30,0,2,,,,0,60,105
69480,note_on,,,,,0,0,2,,,,0,54,105
69480,note_on,,,,,0,0,2,,,,0,49,105
69480,note_on,,,,,30,0,1,,,,0,77,112
69482,set_tempo,,,,,100,1,0,229008,,,,,
69570,note_off,,,,,0,0,2,,,,0,60,64
69570,note_off,,,,,90,0,1,,,,0,77,64
69570,note_off,,,,,0,0,2,,,,0,54,64
69570,note_off,,,,,90,0,2,,,,0,49,64
69570,note_off,,,,,0,0,2,,,,0,56,64
69582,set_tempo,,,,,100,1,0,227273,,,,,
69600,note_on,,,,,0,0,2,,,,0,54,109
69600,note_on,,,,,0,0,2,,,,0,49,109
69600,note_on,,,,,30,0,1,,,,0,78,116
69600,note_on,,,,,0,0,2,,,,0,56,109
69600,note_on,,,,,30,0,2,,,,0,60,109
69662,set_tempo,,,,,80,1,0,229008,,,,,
69690,note_off,,,,,90,0,1,,,,0,78,64
69690,note_off,,,,,90,0,2,,,,0,49,64
69690,note_off,,,,,0,0,2,,,,0,54,64
69690,note_off,,,,,0,0,2,,,,0,56,64
69690,note_off,,,,,0,0,2,,,,0,60,64
69702,set_tempo,,,,,40,1,0,227273,,,,,
69720,note_on,,,,,0,0,2,,,,0,56,114
69720,note_on,,,,,0,0,2,,,,0,54,114
69720,note_on,,,,,0,0,2,,,,0,49,114
69720,note_on,,,,,30,0,2,,,,0,60,114
69720,note_on,,,,,30,0,1,,,,0,80,121
69810,note_off,,,,,0,0,2,,,,0,60,64
69810,note_off,,,,,90,0,1,,,,0,80,64
69810,note_off,,,,,90,0,2,,,,0,49,64
69810,note_off,,,,,0,0,2,,,,0,54,64
69810,note_off,,,,,0,0,2,,,,0,56,64
69840,note_on,,,,,30,0,1,,,,0,85,126
69840,note_on,,,,,30,0,2,,,,0,49,125
69840,note_on,,,,,0,0,2,,,,0,53,125
69840,control_change,,,,,0,0,1,,64,96,0,,
69840,note_on,,,,,0,0,2,,,,0,61,125
69840,note_on,,,,,0,0,2,,,,0,56,125
69842,set_tempo,,,,,140,1,0,250000,,,,,
70020,note_off,,,,,180,0,2,,,,0,61,64
70020,note_off,,,,,180,0,1,,,,0,85,64
70020,note_off,,,,,0,0,2,,,,0,56,64
70020,note_off,,,,,0,0,2,,,,0,53,64
70020,note_off,,,,,0,0,2,,,,0,49,64
70062,set_tempo,,,,,220,1,0,263158,,,,,
70140,control_change,,,,,120,0,1,,64,0,0,,
70182,set_tempo,,,,,120,1,0,240000,,,,,
70200,note_on,,,,,0,0,2,,,,0,37,126
70200,control_change,,,,,0,0,1,,64,95,0,,
70200,note_on,,,,,60,0,1,,,,0,61,127
70200,note_on,,,,,180,0,2,,,,0,49,126
70800,control_change,,,,,600,0,1,,64,0,0,,
70860,note_off,,,,,0,0,2,,,,0,49,64
70860,note_off,,,,,660,0,2,,,,0,37,64
70860,note_off,,,,,60,0,1,,,,0,61,64
70920,note_on,,,,,60,0,1,,,,0,61,124
70920,control_change,,,,,0,0,1,,64,96,0,,
70920,note_on,,,,,60,0,2,,,,0,42,127
70920,note_on,,,,,0,0,2,,,,0,49,127
70920,note_on,,,,,0,0,1,,,,0,54,124
70920,note_on,,,,,0,0,1,,,,0,57,124
71162,set_tempo,,,,,980,1,0,337079,,,,,
71190,note_off,,,,,270,0,2,,,,0,49,64
71190,note_off,,,,,270,0,1,,,,0,54,64
71190,note_off,,,,,0,0,1,,,,0,57,64
71190,note_off,,,,,0,0,1,,,,0,61,64
71190,note_off,,,,,0,0,2,,,,0,42,64
71220,note_on,,,,,30,0,2,,,,0,42,100
71220,note_on,,,,,0,0,2,,,,0,49,100
71220,note_on,,,,,30,0,1,,,,0,61,101
71220,note_on,,,,,0,0,1,,,,0,57,101
71220,note_on,,,,,0,0,1,,,,0,54,101
71270,note_off,,,,,50,0,1,,,,0,54,64
71270,note_off,,,,,0,0,1,,,,0,57,64
71270,note_off,,,,,0,0,2,,,,0,42,64
71270,note_off,,,,,50,0,2,,,,0,49,64
71270,note_off,,,,,0,0,1,,,,0,61,64
71272,control_change,,,,,2,0,1,,64,0,0,,
71280,note_on,,,,,8,0,1,,,,0,56,119
71280,note_on,,,,,0,0,1,,,,0,53,119
71280,control_change,,,,,0,0,1,,64,95,0,,
71296,note_on,,,,,16,0,1,,,,0,61,119
71296,note_on,,,,,0,0,2,,,,0,49,117
71296,note_on,,,,,26,0,2,,,,0,37,117
71362,set_tempo,,,,,200,1,0,229008,,,,,
72616,note_off,,,,,1320,0,2,,,,0,49,64
72660,note_off,,,,,0,0,1,,,,0,56,64
72660,note_off,,,,,1364,0,1,,,,0,53,64
72662,set_tempo,,,,,1300,1,0,384615,,,,,
72676,note_off,,,,,16,0,1,,,,0,61,64
72706,control_change,,,,,30,0,1,,64,0,0,,
72720,note_on,,,,,14,0,1,,,,0,62,61
72720,note_on,,,,,104,0,2,,,,0,60,62
72720,note_on,,,,,0,0,2,,,,0,56,62
72720,note_on,,,,,0,0,2,,,,0,54,62
72720,note_on,,,,,0,0,2,,,,0,49,62
72722,set_tempo,,,,,60,1,0,243902,,,,,
72736,note_off,,,,,16,0,2,,,,0,37,64
72810,note_off,,,,,90,0,1,,,,0,62,64
72810,note_off,,,,,74,0,2,,,,0,49,64
72810,note_off,,,,,0,0,2,,,,0,54,64
72810,note_off,,,,,0,0,2,,,,0,56,64
72810,note_off,,,,,0,0,2,,,,0,60,64
72822,set_tempo,,,,,100,1,0,242915,,,,,
72840,note_on,,,,,30,0,1,,,,0,63,86
72840,note_on,,,,,30,0,2,,,,0,60,68
72840,note_on,,,,,0,0,2,,,,0,54,68
72840,note_on,,,,,0,0,2,,,,0,49,68
72840,note_on,,,,,0,0,2,,,,0,56,68
72882,set_tempo,,,,,60,1,0,241935,,,,,
72930,note_off,,,,,0,0,2,,,,0,54,64
72930,note_off,,,,,0,0,2,,,,0,56,64
72930,note_off,,,,,0,0,2,,,,0,60,64
72930,note_off,,,,,90,0,1,,,,0,63,64
72930,note_off,,,,,90,0,2,,,,0,49,64
72960,note_on,,,,,30,0,2,,,,0,60,74
72960,note_on,,,,,0,0,2,,,,0,56,74
72960,note_on,,,,,0,0,2,,,,0,54,74
72960,note_on,,,,,0,0,2,,,,0,49,74
72960,note_on,,,,,30,0,1,,,,0,65,89
72962,set_tempo,,,,,80,1,0,240964,,,,,
73042,set_tempo,,,,,80,1,0,240000,,,,,
73050,note_off,,,,,90,0,1,,,,0,65,64
73050,note_off,,,,,0,0,2,,,,0,56,64
73050,note_off,,,,,0,0,2,,,,0,60,64
73050,note_off,,,,,0,0,2,,,,0,54,64
73050,note_off,,,,,90,0,2,,,,0,49,64
73080,note_on,,,,,30,0,2,,,,0,60,80
73080,note_on,,,,,0,0,2,,,,0,56,80
73080,note_on,,,,,0,0,2,,,,0,54,80
73080,note_on,,,,,0,0,2,,,,0,49,80
73080,note_on,,,,,30,0,1,,,,0,66,92
73122,set_tempo,,,,,80,1,0,238095,,,,,
73170,note_off,,,,,90,0,1,,,,0,66,64
73170,note_off,,,,,0,0,2,,,,0,56,64
73170,note_off,,,,,90,0,2,,,,0,49,64
73170,note_off,,,,,0,0,2,,,,0,54,64
73170,note_off,,,,,0,0,2,,,,0,60,64
73182,set_tempo,,,,,60,1,0,237154,,,,,
73200,note_on,,,,,30,0,2,,,,0,60,86
73200,note_on,,,,,0,0,2,,,,0,49,86
73200,note_on,,,,,0,0,2,,,,0,54,86
73200,note_on,,,,,30,0,1,,,,0,68,96
73200,note_on,,,,,0,0,2,,,,0,56,86
73262,set_tempo,,,,,80,1,0,236220,,,,,
73290,note_off,,,,,90,0,1,,,,0,68,64
73290,note_off,,,,,0,0,2,,,,0,60,64
73290,note_off,,,,,0,0,2,,,,0,56,64
73290,note_off,,,,,0,0,2,,,,0,54,64
73290,note_off,,,,,90,0,2,,,,0,49,64
73320,note_on,,,,,30,0,1,,,,0,70,99
73320,note_on,,,,,0,0,2,,,,0,49,93
73320,note_on,,,,,0,0,2,,,,0,54,93
73320,note_on,,,,,0,0,2,,,,0,56,93
73320,note_on,,,,,30,0,2,,,,0,60,93
73362,set_tempo,,,,,100,1,0,235294,,,,,
73410,note_off,,,,,0,0,2,,,,0,54,64
73410,note_off,,,,,90,0,1,,,,0,70,64
73410,note_off,,,,,90,0,2,,,,0,49,64
73410,note_off,,,,,0,0,2,,,,0,56,64
73410,note_off,,,,,0,0,2,,,,0,60,64
73422,set_tempo,,,,,60,1,0,234375,,,,,
73440,note_on,,,,,30,0,2,,,,0,60,97
73440,note_on,,,,,0,0,2,,,,0,56,97
73440,note_on,,,,,30,0,1,,,,0,72,102
73440,note_on,,,,,0,0,2,,,,0,54,97
73440,note_on,,,,,0,0,2,,,,0,49,97
73502,set_tempo,,,,,80,1,0,232558,,,,,
73530,note_off,,,,,90,0,2,,,,0,49,64
73530,note_off,,,,,0,0,2,,,,0,56,64
73530,note_off,,,,,0,0,2,,,,0,60,64
73530,note_off,,,,,90,0,1,,,,0,72,64
73530,note_off,,,,,0,0,2,,,,0,54,64
73560,note_on,,,,,0,0,2,,,,0,54,102
73560,note_on,,,,,30,0,2,,,,0,60,102
73560,note_on,,,,,30,0,1,,,,0,73,106
73560,note_on,,,,,0,0,2,,,,0,49,102
73560,note_on,,,,,0,0,2,,,,0,56,102
73602,set_tempo,,,,,100,1,0,231660,,,,,
73642,set_tempo,,,,,40,1,0,230769,,,,,
73650,note_off,,,,,0,0,2,,,,0,56,64
73650,note_off,,,,,90,0,1,,,,0,73,64
73650,note_off,,,,,90,0,2,,,,0,49,64
73650,note_off,,,,,0,0,2,,,,0,54,64
73650,note_off,,,,,0,0,2,,,,0,60,64
73680,note_on,,,,,0,0,2,,,,0,54,105
73680,note_on,,,,,30,0,2,,,,0,60,105
73680,note_on,,,,,0,0,2,,,,0,56,105
73680,note_on,,,,,0,0,2,,,,0,49,105
73680,note_on,,,,,30,0,1,,,,0,75,110
73702,set_tempo,,,,,60,1,0,229885,,,,,
73770,note_off,,,,,90,0,2,,,,0,49,64
73770,note_off,,,,,0,0,2,,,,0,54,64
73770,note_off,,,,,90,0,1,,,,0,75,64
73770,note_off,,,,,0,0,2,,,,0,60,64
73770,note_off,,,,,0,0,2,,,,0,56,64
73800,note_on,,,,,0,0,2,,,,0,56,110
73800,note_on,,,,,0,0,2,,,,0,54,110
73800,note_on,,,,,30,0,1,,,,0,77,114
73800,note_on,,,,,0,0,2,,,,0,49,110
73800,note_on,,,,,30,0,2,,,,0,60,110
73802,set_tempo,,,,,100,1,0,229008,,,,,
73890,note_off,,,,,90,0,1,,,,0,77,64
73890,note_off,,,,,0,0,2,,,,0,60,64
73890,note_off,,,,,90,0,2,,,,0,49,64
73890,note_off,,,,,0,0,2,,,,0,54,64
73890,note_off,,,,,0,0,2,,,,0,56,64
73902,set_tempo,,,,,100,1,0,227273,,,,,
73920,note_on,,,,,0,0,2,,,,0,49,115
73920,note_on,,,,,0,0,2,,,,0,54,115
73920,note_on,,,,,0,0,2,,,,0,56,115
73920,note_on,,,,,30,0,2,,,,0,60,115
73920,note_on,,,,,30,0,1,,,,0,78,120
73982,set_tempo,,,,,80,1,0,229008,,,,,
74010,note_off,,,,,90,0,1,,,,0,78,64
74010,note_off,,,,,0,0,2,,,,0,60,64
74010,note_off,,,,,0,0,2,,,,0,56,64
74010,note_off,,,,,0,0,2,,,,0,54,64
74010,note_off,,,,,90,0,2,,,,0,49,64
74022,set_tempo,,,,,40,1,0,227273,,,,,
74040,note_on,,,,,30,0,1,,,,0,80,126
74040,note_on,,,,,0,0,2,,,,0,49,123
74040,note_on,,,,,0,0,2,,,,0,54,123
74040,note_on,,,,,0,0,2,,,,0,56,123
74040,note_on,,,,,30,0,2,,,,0,60,123
74130,note_off,,,,,90,0,1,,,,0,80,64
74130,note_off,,,,,0,0,2,,,,0,54,64
74130,note_off,,,,,90,0,2,,,,0,49,64
74130,note_off,,,,,0,0,2,,,,0,60,64
74130,note_off,,,,,0,0,2,,,,0,56,64
74160,note_on,,,,,30,0,1,,,,0,89,126
74160,note_on,,,,,0,0,1,,,,0,85,126
74160,note_on,,,,,30,0,2,,,,0,49,126
74160,note_on,,,,,0,0,2,,,,0,53,126
74160,note_on,,,,,0,0,2,,,,0,56,126
74160,note_on,,,,,0,0,2,,,,0,61,126
74160,control_change,,,,,0,0,1,,64,96,0,,
74162,set_tempo,,,,,140,1,0,250000,,,,,
74340,note_off,,,,,0,0,2,,,,0,49,64
74340,note_off,,,,,0,0,1,,,,0,89,64
74340,note_off,,,,,0,0,2,,,,0,53,64
74340,note_off,,,,,0,0,2,,,,0,56,64
74340,note_off,,,,,180,0,1,,,,0,85,64
74340,note_off,,,,,180,0,2,,,,0,61,64
74382,set_tempo,,,,,220,1,0,263158,,,,,
74460,control_change,,,,,120,0,1,,64,0,0,,
74520,note_on,,,,,60,0,1,,,,0,61,127
74520,note_on,,,,,180,0,2,,,,0,49,126
74520,note_on,,,,,0,0,2,,,,0,37,126
74520,control_change,,,,,0,0,1,,64,95,0,,
74522,set_tempo,,,,,140,1,0,227273,,,,,
75120,control_change,,,,,600,0,1,,64,0,0,,
75540,note_off,,,,,0,0,2,,,,0,49,64
75540,note_off,,,,,1020,0,2,,,,0,37,64
75540,note_off,,,,,420,0,1,,,,0,61,64
75600,note_on,,,,,0,0,2,,,,0,49,63
75600,note_on,,,,,60,0,1,,,,0,68,62
75600,note_on,,,,,0,0,2,,,,0,54,63
75600,note_on,,,,,60,0,2,,,,0,60,63
75600,note_on,,,,,0,0,2,,,,0,56,63
75602,set_tempo,,,,,1080,1,0,243902,,,,,
75690,note_off,,,,,0,0,2,,,,0,54,64
75690,note_off,,,,,90,0,2,,,,0,49,64
75690,note_off,,,,,0,0,2,,,,0,56,64
75690,note_off,,,,,90,0,1,,,,0,68,64
75690,note_off,,,,,0,0,2,,,,0,60,64
75702,set_tempo,,,,,100,1,0,242915,,,,,
75720,note_on,,,,,0,0,2,,,,0,49,64
75720,note_on,,,,,0,0,2,,,,0,54,64
75720,note_on,,,,,30,0,1,,,,0,70,71
75720,note_on,,,,,30,0,2,,,,0,60,64
75720,note_on,,,,,0,0,2,,,,0,56,64
75762,set_tempo,,,,,60,1,0,241935,,,,,
75810,note_off,,,,,0,0,2,,,,0,60,64
75810,note_off,,,,,0,0,2,,,,0,56,64
75810,note_off,,,,,90,0,1,,,,0,70,64
75810,note_off,,,,,90,0,2,,,,0,49,64
75810,note_off,,,,,0,0,2,,,,0,54,64
75840,note_on,,,,,0,0,2,,,,0,54,69
75840,note_on,,,,,30,0,1,,,,0,72,77
75840,note_on,,,,,30,0,2,,,,0,60,69
75840,note_on,,,,,0,0,2,,,,0,56,69
75840,note_on,,,,,0,0,2,,,,0,49,69
75842,set_tempo,,,,,80,1,0,240964,,,,,
75922,set_tempo,,,,,80,1,0,240000,,,,,
75930,note_off,,,,,90,0,1,,,,0,72,64
75930,note_off,,,,,90,0,2,,,,0,49,64
75930,note_off,,,,,0,0,2,,,,0,54,64
75930,note_off,,,,,0,0,2,,,,0,56,64
75930,note_off,,,,,0,0,2,,,,0,60,64
75960,note_on,,,,,30,0,2,,,,0,60,73
75960,note_on,,,,,0,0,2,,,,0,54,73
75960,note_on,,,,,30,0,1,,,,0,73,82
75960,note_on,,,,,0,0,2,,,,0,49,73
75960,note_on,,,,,0,0,2,,,,0,56,73
76002,set_tempo,,,,,80,1,0,238095,,,,,
76050,note_off,,,,,90,0,1,,,,0,73,64
76050,note_off,,,,,90,0,2,,,,0,49,64
76050,note_off,,,,,0,0,2,,,,0,54,64
76050,note_off,,,,,0,0,2,,,,0,56,64
76050,note_off,,,,,0,0,2,,,,0,60,64
76062,set_tempo,,,,,60,1,0,237154,,,,,
76080,note_on,,,,,30,0,2,,,,0,60,81
76080,note_on,,,,,0,0,2,,,,0,54,81
76080,note_on,,,,,0,0,2,,,,0,49,81
76080,note_on,,,,,0,0,2,,,,0,56,81
76080,note_on,,,,,30,0,1,,,,0,75,87
76142,set_tempo,,,,,80,1,0,236220,,,,,
76170,note_off,,,,,0,0,2,,,,0,60,64
76170,note_off,,,,,90,0,1,,,,0,75,64
76170,note_off,,,,,90,0,2,,,,0,49,64
76170,note_off,,,,,0,0,2,,,,0,54,64
76170,note_off,,,,,0,0,2,,,,0,56,64
76200,note_on,,,,,30,0,2,,,,0,60,86
76200,note_on,,,,,0,0,2,,,,0,56,86
76200,note_on,,,,,0,0,2,,,,0,54,86
76200,note_on,,,,,0,0,2,,,,0,49,86
76200,note_on,,,,,30,0,1,,,,0,77,94
76242,set_tempo,,,,,100,1,0,235294,,,,,
76290,note_off,,,,,0,0,2,,,,0,56,64
76290,note_off,,,,,0,0,2,,,,0,54,64
76290,note_off,,,,,0,0,2,,,,0,60,64
76290,note_off,,,,,90,0,1,,,,0,77,64
76290,note_off,,,,,90,0,2,,,,0,49,64
76302,set_tempo,,,,,60,1,0,234375,,,,,
76320,note_on,,,,,30,0,2,,,,0,60,96
76320,note_on,,,,,30,0,1,,,,0,78,99
76320,note_on,,,,,0,0,2,,,,0,54,96
76320,note_on,,,,,0,0,2,,,,0,49,96
76320,note_on,,,,,0,0,2,,,,0,56,96
76382,set_tempo,,,,,80,1,0,232558,,,,,
76410,note_off,,,,,90,0,1,,,,0,78,64
76410,note_off,,,,,0,0,2,,,,0,56,64
76410,note_off,,,,,0,0,2,,,,0,60,64
76410,note_off,,,,,0,0,2,,,,0,54,64
76410,note_off,,,,,90,0,2,,,,0,49,64
76440,note_on,,,,,0,0,2,,,,0,56,103
76440,note_on,,,,,0,0,2,,,,0,54,103
76440,note_on,,,,,0,0,2,,,,0,49,103
76440,note_on,,,,,30,0,1,,,,0,80,105
76440,note_on,,,,,30,0,2,,,,0,60,103
76482,set_tempo,,,,,100,1,0,231660,,,,,
76522,set_tempo,,,,,40,1,0,230769,,,,,
76530,note_off,,,,,90,0,2,,,,0,49,64
76530,note_off,,,,,0,0,2,,,,0,56,64
76530,note_off,,,,,0,0,2,,,,0,60,64
76530,note_off,,,,,90,0,1,,,,0,80,64
76530,note_off,,,,,0,0,2,,,,0,54,64
76560,note_on,,,,,30,0,1,,,,0,82,109
76560,note_on,,,,,30,0,2,,,,0,60,105
76560,note_on,,,,,0,0,2,,,,0,56,105
76560,note_on,,,,,0,0,2,,,,0,54,105
76560,note_on,,,,,0,0,2,,,,0,49,105
76582,set_tempo,,,,,60,1,0,229885,,,,,
76650,note_off,,,,,90,0,1,,,,0,82,64
76650,note_off,,,,,90,0,2,,,,0,49,64
76650,note_off,,,,,0,0,2,,,,0,54,64
76650,note_off,,,,,0,0,2,,,,0,56,64
76650,note_off,,,,,0,0,2,,,,0,60,64
76680,note_on,,,,,30,0,1,,,,0,84,115
76680,note_on,,,,,30,0,2,,,,0,60,112
76680,note_on,,,,,0,0,2,,,,0,56,112
76680,note_on,,,,,0,0,2,,,,0,54,112
76680,note_on,,,,,0,0,2,,,,0,49,112
76682,set_tempo,,,,,100,1,0,229008,,,,,
76770,note_off,,,,,90,0,2,,,,0,49,64
76770,note_off,,,,,90,0,1,,,,0,84,64
76770,note_off,,,,,0,0,2,,,,0,56,64
76770,note_off,,,,,0,0,2,,,,0,60,64
76770,note_off,,,,,0,0,2,,,,0,54,64
76782,set_tempo,,,,,100,1,0,227273,,,,,
76800,note_on,,,,,0,0,2,,,,0,54,116
76800,note_on,,,,,0,0,2,,,,0,49,116
76800,note_on,,,,,30,0,2,,,,0,60,116
76800,note_on,,,,,0,0,2,,,,0,56,116
76800,note_on,,,,,30,0,1,,,,0,85,119
76862,set_tempo,,,,,80,1,0,229008,,,,,
76890,note_off,,,,,0,0,2,,,,0,60,64
76890,note_off,,,,,90,0,1,,,,0,85,64
76890,note_off,,,,,0,0,2,,,,0,56,64
76890,note_off,,,,,0,0,2,,,,0,54,64
76890,note_off,,,,,90,0,2,,,,0,49,64
76902,set_tempo,,,,,40,1,0,227273,,,,,
76920,note_on,,,,,30,0,2,,,,0,60,124
76920,note_on,,,,,30,0,1,,,,0,87,125
76920,note_on,,,,,0,0,2,,,,0,49,124
76920,note_on,,,,,0,0,2,,,,0,54,124
76920,note_on,,,,,0,0,2,,,,0,56,124
77010,note_off,,,,,90,0,1,,,,0,87,64
77010,note_off,,,,,0,0,2,,,,0,60,64
77010,note_off,,,,,0,0,2,,,,0,56,64
77010,note_off,,,,,0,0,2,,,,0,54,64
77010,note_off,,,,,90,0,2,,,,0,49,64
77040,note_on,,,,,30,0,2,,,,0,49,127
77040,note_on,,,,,0,0,2,,,,0,53,127
77040,note_on,,,,,30,0,1,,,,0,97,127
77040,control_change,,,,,0,0,1,,64,96,0,,
77040,note_on,,,,,0,0,1,,,,0,89,127
77040,note_on,,,,,0,0,2,,,,0,56,127
77040,note_on,,,,,0,0,2,,,,0,61,127
77042,set_tempo,,,,,140,1,0,250000,,,,,
77220,note_off,,,,,0,0,2,,,,0,56,64
77220,note_off,,,,,0,0,2,,,,0,53,64
77220,note_off,,,,,0,0,2,,,,0,49,64
77220,note_off,,,,,180,0,2,,,,0,61,64
77220,note_off,,,,,180,0,1,,,,0,89,64
77220,note_off,,,,,0,0,1,,,,0,97,64
77262,set_tempo,,,,,220,1,0,263158,,,,,
77340,control_change,,,,,120,0,1,,64,0,0,,
77400,note_on,,,,,180,0,2,,,,0,37,126
77400,note_on,,,,,0,0,2,,,,0,49,126
77400,control_change,,,,,0,0,1,,64,95,0,,
77400,note_on,,,,,60,0,1,,,,0,61,127
77402,set_tempo,,,,,140,1,0,238095,,,,,
77640,note_off,,,,,240,0,1,,,,0,61,64
77640,note_off,,,,,0,0,2,,,,0,37,64
77640,note_off,,,,,240,0,2,,,,0,49,64
77752,control_change,,,,,112,0,1,,64,0,0,,
77760,note_on,,,,,0,0,2,,,,0,56,126
77760,note_on,,,,,0,0,2,,,,0,61,126
77760,control_change,,,,,0,0,1,,64,96,0,,
77760,note_on,,,,,0,0,1,,,,0,80,126
77760,note_on,,,,,0,0,1,,,,0,85,126
77760,note_on,,,,,0,0,1,,,,0,89,126
77760,note_on,,,,,8,0,1,,,,0,92,126
77760,note_on,,,,,0,0,2,,,,0,53,126
77760,note_on,,,,,120,0,2,,,,0,49,126
77782,set_tempo,,,,,380,1,0,250000,,,,,
77940,note_off,,,,,0,0,1,,,,0,89,64
77940,note_off,,,,,0,0,1,,,,0,85,64
77940,note_off,,,,,0,0,2,,,,0,56,64
77940,note_off,,,,,0,0,1,,,,0,92,64
77940,note_off,,,,,0,0,2,,,,0,53,64
77940,note_off,,,,,0,0,2,,,,0,49,64
77940,note_off,,,,,180,0,1,,,,0,80,64
77940,note_off,,,,,180,0,2,,,,0,61,64
78060,control_change,,,,,120,0,1,,64,0,0,,
78120,control_change,,,,,0,0,1,,64,95,0,,
78120,note_on,,,,,180,0,2,,,,0,37,126
78120,note_on,,,,,0,0,2,,,,0,49,126
78120,note_on,,,,,60,0,1,,,,0,61,127
78360,note_off,,,,,240,0,1,,,,0,61,64
78360,note_off,,,,,240,0,2,,,,0,49,64
78360,note_off,,,,,0,0,2,,,,0,37,64
78362,set_tempo,,,,,580,1,0,260870,,,,,
78466,control_change,,,,,106,0,1,,64,0,0,,
78480,note_on,,,,,14,0,1,,,,0,89,126
78480,note_on,,,,,120,0,2,,,,0,49,126
78480,note_on,,,,,0,0,2,,,,0,53,126
78480,note_on,,,,,0,0,2,,,,0,56,126
78480,note_on,,,,,0,0,2,,,,0,61,126
78480,note_on,,,,,0,0,1,,,,0,80,126
78480,note_on,,,,,0,0,1,,,,0,85,126
78480,note_on,,,,,0,0,1,,,,0,77,126
78480,control_change,,,,,0,0,1,,64,96,0,,
78660,note_off,,,,,0,0,1,,,,0,80,64
78660,note_off,,,,,0,0,1,,,,0,89,64
78660,note_off,,,,,0,0,1,,,,0,85,64
78660,note_off,,,,,180,0,1,,,,0,77,64
78660,note_off,,,,,0,0,2,,,,0,56,64
78660,note_off,,,,,0,0,2,,,,0,53,64
78660,note_off,,,,,180,0,2,,,,0,61,64
78660,note_off,,,,,0,0,2,,,,0,49,64
78780,control_change,,,,,120,0,1,,64,0,0,,
78840,note_on,,,,,180,0,2,,,,0,37,126
78840,note_on,,,,,0,0,2,,,,0,49,126
78840,note_on,,,,,60,0,1,,,,0,61,127
78840,control_change,,,,,0,0,1,,64,95,0,,
78842,set_tempo,,,,,480,1,0,277778,,,,,
79080,note_off,,,,,240,0,1,,,,0,61,64
79080,note_off,,,,,240,0,2,,,,0,49,64
79080,note_off,,,,,0,0,2,,,,0,37,64
79200,control_change,,,,,120,0,1,,64,0,0,,
79222,set_tempo,,,,,380,1,0,227273,,,,,
79920,control_change,,,,,0,0,1,,64,96,0,,
79920,note_on,,,,,0,0,2,,,,0,61,126
79920,note_on,,,,,0,0,2,,,,0,56,126
79920,note_on,,,,,0,0,2,,,,0,53,126
79920,note_on,,,,,840,0,2,,,,0,49,126
79920,note_on,,,,,0,0,1,,,,0,77,126
79920,note_on,,,,,0,0,1,,,,0,73,126
79920,note_on,,,,,720,0,1,,,,0,85,126
79920,note_on,,,,,0,0,1,,,,0,80,126
79922,set_tempo,,,,,700,1,0,250000,,,,,
80100,note_off,,,,,0,0,2,,,,0,49,64
80100,note_off,,,,,0,0,2,,,,0,53,64
80100,note_off,,,,,0,0,2,,,,0,56,64
80100,note_off,,,,,180,0,2,,,,0,61,64
80100,note_off,,,,,180,0,1,,,,0,73,64
80100,note_off,,,,,0,0,1,,,,0,77,64
80100,note_off,,,,,0,0,1,,,,0,80,64
80100,note_off,,,,,0,0,1,,,,0,85,64
80220,control_change,,,,,120,0,1,,64,0,0,,
80280,note_on,,,,,180,0,2,,,,0,37,126
80280,note_on,,,,,60,0,1,,,,0,61,127
80280,control_change,,,,,0,0,1,,64,95,0,,
80280,note_on,,,,,0,0,2,,,,0,49,126
80282,set_tempo,,,,,360,1,0,265487,,,,,
80520,note_off,,,,,240,0,1,,,,0,61,64
80520,note_off,,,,,0,0,2,,,,0,37,64
80520,note_off,,,,,240,0,2,,,,0,49,64
80632,control_change,,,,,112,0,1,,64,0,0,,
80640,set_tempo,,,,,358,1,0,227273,,,,,
82080,note_on,,,,,1448,0,1,,,,0,68,52
82080,set_tempo,,,,,1440,1,0,242915,,,,,
82080,note_on,,,,,1560,0,2,,,,0,37,36
82080,control_change,,,,,0,0,1,,64,94,0,,
82082,control_change,,,,,2,0,1,,64,94,0,,
82320,note_off,,,,,240,0,2,,,,0,37,64
82320,note_off,,,,,238,0,1,,,,0,68,64
82322,note_on,,,,,2,0,2,,,,0,49,31
82322,note_on,,,,,0,0,2,,,,0,52,31
82322,note_on,,,,,0,0,2,,,,0,56,31
82328,control_change,,,,,8,0,1,,64,0,0,,
82412,note_off,,,,,90,0,2,,,,0,56,64
82412,note_off,,,,,0,0,2,,,,0,52,64
82412,note_off,,,,,0,0,2,,,,0,49,64
82442,note_on,,,,,0,0,2,,,,0,52,29
82442,note_on,,,,,0,0,2,,,,0,56,29
82442,note_on,,,,,30,0,2,,,,0,49,29
82442,note_on,,,,,114,0,1,,,,0,61,46
82442,control_change,,,,,0,0,1,,64,95,0,,
82622,note_off,,,,,180,0,2,,,,0,56,64
82622,note_off,,,,,0,0,2,,,,0,52,64
82622,note_off,,,,,0,0,2,,,,0,49,64
82682,note_off,,,,,240,0,1,,,,0,61,64
82682,control_change,,,,,0,0,1,,64,0,0,,
82682,note_on,,,,,60,0,2,,,,0,49,26
82682,note_on,,,,,0,0,2,,,,0,52,26
82682,note_on,,,,,0,0,2,,,,0,56,26
82772,note_off,,,,,90,0,2,,,,0,56,64
82772,note_off,,,,,0,0,2,,,,0,52,64
82772,note_off,,,,,0,0,2,,,,0,49,64
82800,note_on,,,,,118,0,1,,,,0,44,59
82802,note_on,,,,,0,0,2,,,,0,52,36
82802,note_on,,,,,30,0,2,,,,0,49,36
82802,control_change,,,,,2,0,1,,64,95,0,,
82982,note_off,,,,,0,0,2,,,,0,49,64
82982,note_off,,,,,180,0,2,,,,0,52,64
83040,note_off,,,,,238,0,1,,,,0,44,64
83042,note_on,,,,,60,0,2,,,,0,49,31
83042,note_on,,,,,0,0,2,,,,0,56,31
83042,note_on,,,,,0,0,2,,,,0,52,31
83132,note_off,,,,,0,0,2,,,,0,49,64
83132,note_off,,,,,0,0,2,,,,0,52,64
83132,note_off,,,,,90,0,2,,,,0,56,64
83152,control_change,,,,,112,0,1,,64,0,0,,
83160,note_on,,,,,8,0,1,,,,0,37,60
83162,note_on,,,,,30,0,2,,,,0,52,32
83162,control_change,,,,,2,0,1,,64,95,0,,
83162,note_on,,,,,0,0,2,,,,0,56,32
83342,note_off,,,,,0,0,2,,,,0,52,64
83342,note_off,,,,,180,0,2,,,,0,56,64
83400,note_off,,,,,238,0,1,,,,0,37,64
83402,note_on,,,,,60,0,2,,,,0,49,29
83402,note_on,,,,,0,0,2,,,,0,52,29
83402,note_on,,,,,0,0,2,,,,0,56,29
83492,note_off,,,,,90,0,2,,,,0,56,64
83492,note_off,,,,,0,0,2,,,,0,52,64
83492,note_off,,,,,0,0,2,,,,0,49,64
83512,control_change,,,,,112,0,1,,64,0,0,,
83522,control_change,,,,,0,0,1,,64,95,0,,
83522,note_on,,,,,10,0,1,,,,0,73,60
83522,note_on,,,,,30,0,2,,,,0,42,41
83762,note_off,,,,,240,0,2,,,,0,42,64
83762,note_on,,,,,0,0,2,,,,0,49,38
83762,note_on,,,,,0,0,2,,,,0,54,38
83762,note_on,,,,,0,0,2,,,,0,57,38
83852,note_off,,,,,0,0,2,,,,0,49,64
83852,note_off,,,,,90,0,2,,,,0,57,64
83852,note_off,,,,,0,0,2,,,,0,54,64
83874,control_change,,,,,352,0,1,,64,0,0,,
83882,note_on,,,,,30,0,2,,,,0,49,34
83882,note_on,,,,,0,0,2,,,,0,57,34
83882,control_change,,,,,8,0,1,,64,95,0,,
83882,note_on,,,,,0,0,2,,,,0,54,34
84062,note_off,,,,,180,0,2,,,,0,57,64
84062,note_off,,,,,0,0,2,,,,0,54,64
84062,note_off,,,,,0,0,2,,,,0,49,64
84122,note_on,,,,,60,0,2,,,,0,49,30
84122,note_on,,,,,0,0,2,,,,0,54,30
84122,note_on,,,,,0,0,2,,,,0,57,30
84122,note_off,,,,,240,0,1,,,,0,73,64
84212,note_off,,,,,0,0,2,,,,0,54,64
84212,note_off,,,,,90,0,2,,,,0,57,64
84212,note_off,,,,,0,0,2,,,,0,49,64
84234,control_change,,,,,112,0,1,,64,0,0,,
84242,note_on,,,,,0,0,2,,,,0,57,37
84242,note_on,,,,,8,0,1,,,,0,66,54
84242,control_change,,,,,0,0,1,,64,95,0,,
84242,note_on,,,,,0,0,2,,,,0,54,37
84242,note_on,,,,,30,0,2,,,,0,49,37
84422,note_off,,,,,180,0,2,,,,0,57,64
84422,note_off,,,,,0,0,2,,,,0,54,64
84422,note_off,,,,,0,0,2,,,,0,49,64
84482,note_on,,,,,60,0,2,,,,0,49,34
84482,note_on,,,,,0,0,2,,,,0,54,34
84482,note_on,,,,,0,0,2,,,,0,57,34
84572,note_off,,,,,0,0,2,,,,0,54,64
84572,note_off,,,,,90,0,2,,,,0,57,64
84572,note_off,,,,,0,0,2,,,,0,49,64
84594,control_change,,,,,352,0,1,,64,0,0,,
84602,control_change,,,,,8,0,1,,64,96,0,,
84602,note_on,,,,,30,0,2,,,,0,49,29
84602,note_on,,,,,0,0,2,,,,0,54,29
84602,note_on,,,,,0,0,2,,,,0,57,29
84782,note_off,,,,,180,0,2,,,,0,57,64
84782,note_off,,,,,0,0,2,,,,0,54,64
84782,note_off,,,,,0,0,2,,,,0,49,64
84842,note_off,,,,,240,0,1,,,,0,66,64
84842,note_on,,,,,60,0,2,,,,0,49,27
84842,note_on,,,,,0,0,2,,,,0,54,27
84842,note_on,,,,,0,0,2,,,,0,57,27
84932,note_off,,,,,0,0,2,,,,0,49,64
84932,note_off,,,,,0,0,2,,,,0,54,64
84932,note_off,,,,,90,0,2,,,,0,57,64
84954,control_change,,,,,112,0,1,,64,0,0,,
84962,note_on,,,,,30,0,2,,,,0,37,36
84962,control_change,,,,,0,0,1,,64,94,0,,
84962,note_on,,,,,8,0,1,,,,0,68,52
85202,note_on,,,,,0,0,2,,,,0,49,31
85202,note_on,,,,,0,0,2,,,,0,56,31
85202,note_off,,,,,240,0,1,,,,0,68,64
85202,note_off,,,,,240,0,2,,,,0,37,64
85202,note_on,,,,,0,0,2,,,,0,52,31
85208,control_change,,,,,6,0,1,,64,0,0,,
85292,note_off,,,,,0,0,2,,,,0,49,64
85292,note_off,,,,,0,0,2,,,,0,52,64
85292,note_off,,,,,90,0,2,,,,0,56,64
85322,note_on,,,,,0,0,2,,,,0,56,27
85322,note_on,,,,,0,0,2,,,,0,52,27
85322,note_on,,,,,30,0,2,,,,0,49,27
85322,note_on,,,,,114,0,1,,,,0,61,55
85322,control_change,,,,,0,0,1,,64,95,0,,
85502,note_off,,,,,180,0,2,,,,0,56,64
85502,note_off,,,,,0,0,2,,,,0,52,64
85502,note_off,,,,,0,0,2,,,,0,49,64
85562,note_off,,,,,240,0,1,,,,0,61,64
85562,control_change,,,,,0,0,1,,64,0,0,,
85562,note_on,,,,,0,0,2,,,,0,52,25
85562,note_on,,,,,0,0,2,,,,0,56,25
85562,note_on,,,,,60,0,2,,,,0,49,25
85652,note_off,,,,,90,0,2,,,,0,56,64
85652,note_off,,,,,0,0,2,,,,0,52,64
85652,note_off,,,,,0,0,2,,,,0,49,64
85680,note_on,,,,,118,0,1,,,,0,44,59
85682,control_change,,,,,2,0,1,,64,95,0,,
85682,note_on,,,,,0,0,2,,,,0,52,36
85682,note_on,,,,,30,0,2,,,,0,49,36
85862,note_off,,,,,0,0,2,,,,0,49,64
85862,note_off,,,,,180,0,2,,,,0,52,64
85920,note_on,,,,,0,0,2,,,,0,49,31
85920,note_on,,,,,0,0,2,,,,0,52,31
85920,note_on,,,,,58,0,2,,,,0,56,31
85920,note_off,,,,,238,0,1,,,,0,44,64
85922,control_change,,,,,2,0,1,,64,0,0,,
86010,note_off,,,,,0,0,2,,,,0,56,64
86010,note_off,,,,,0,0,2,,,,0,52,64
86010,note_off,,,,,90,0,2,,,,0,49,64
86040,note_on,,,,,30,0,2,,,,0,52,27
86040,note_on,,,,,0,0,2,,,,0,49,27
86040,note_on,,,,,118,0,1,,,,0,37,71
86042,control_change,,,,,2,0,1,,64,95,0,,
86220,note_off,,,,,180,0,2,,,,0,49,64
86220,note_off,,,,,0,0,2,,,,0,52,64
86280,note_on,,,,,60,0,2,,,,0,56,25
86280,note_on,,,,,0,0,2,,,,0,52,25
86280,note_on,,,,,0,0,2,,,,0,49,25
86280,note_off,,,,,238,0,1,,,,0,37,64
86282,control_change,,,,,2,0,1,,64,0,0,,
86370,note_off,,,,,0,0,2,,,,0,56,64
86370,note_off,,,,,0,0,2,,,,0,52,64
86370,note_off,,,,,90,0,2,,,,0,49,64
86400,note_on,,,,,30,0,2,,,,0,44,57
86402,note_on,,,,,2,0,2,,,,0,32,57
86402,note_on,,,,,0,0,1,,,,0,63,77
86402,note_on,,,,,120,0,1,,,,0,75,77
86402,control_change,,,,,0,0,1,,64,95,0,,
86640,note_off,,,,,238,0,2,,,,0,44,64
86642,note_on,,,,,0,0,2,,,,0,56,47
86642,note_on,,,,,0,0,2,,,,0,48,47
86642,note_on,,,,,0,0,2,,,,0,51,47
86642,note_off,,,,,2,0,2,,,,0,32,64
86732,note_off,,,,,0,0,2,,,,0,56,64
86732,note_off,,,,,0,0,2,,,,0,51,64
86732,note_off,,,,,90,0,2,,,,0,48,64
86754,control_change,,,,,352,0,1,,64,0,0,,
86762,note_on,,,,,0,0,2,,,,0,48,44
86762,note_on,,,,,0,0,2,,,,0,51,44
86762,note_on,,,,,30,0,2,,,,0,56,44
86762,control_change,,,,,8,0,1,,64,95,0,,
86942,note_off,,,,,0,0,2,,,,0,56,64
86942,note_off,,,,,0,0,2,,,,0,51,64
86942,note_off,,,,,180,0,2,,,,0,48,64
87002,note_off,,,,,0,0,1,,,,0,75,64
87002,note_off,,,,,240,0,1,,,,0,63,64
87002,note_on,,,,,0,0,2,,,,0,48,44
87002,note_on,,,,,0,0,2,,,,0,51,44
87002,note_on,,,,,60,0,2,,,,0,56,44
87092,note_off,,,,,0,0,2,,,,0,56,64
87092,note_off,,,,,90,0,2,,,,0,48,64
87092,note_off,,,,,0,0,2,,,,0,51,64
87114,control_change,,,,,112,0,1,,64,0,0,,
87122,note_on,,,,,30,0,2,,,,0,56,51
87122,note_on,,,,,0,0,2,,,,0,51,51
87122,note_on,,,,,0,0,2,,,,0,48,51
87122,note_on,,,,,8,0,1,,,,0,68,60
87122,note_on,,,,,0,0,1,,,,0,56,60
87122,control_change,,,,,0,0,1,,64,95,0,,
87302,note_off,,,,,180,0,2,,,,0,48,64
87302,note_off,,,,,0,0,2,,,,0,51,64
87302,note_off,,,,,0,0,2,,,,0,56,64
87362,note_on,,,,,0,0,2,,,,0,51,42
87362,note_on,,,,,0,0,2,,,,0,48,42
87362,note_on,,,,,60,0,2,,,,0,56,42
87452,note_off,,,,,0,0,2,,,,0,56,64
87452,note_off,,,,,0,0,2,,,,0,51,64
87452,note_off,,,,,90,0,2,,,,0,48,64
87474,control_change,,,,,352,0,1,,64,0,0,,
87482,note_on,,,,,0,0,2,,,,0,51,36
87482,note_on,,,,,30,0,2,,,,0,56,36
87482,note_on,,,,,0,0,2,,,,0,48,36
87482,control_change,,,,,8,0,1,,64,96,0,,
87662,note_off,,,,,0,0,2,,,,0,56,64
87662,note_off,,,,,0,0,2,,,,0,51,64
87662,note_off,,,,,180,0,2,,,,0,48,64
87722,note_on,,,,,0,0,2,,,,0,51,32
87722,note_on,,,,,60,0,2,,,,0,56,32
87722,note_on,,,,,0,0,2,,,,0,48,32
87722,note_off,,,,,240,0,1,,,,0,56,64
87722,note_off,,,,,0,0,1,,,,0,68,64
87812,note_off,,,,,90,0,2,,,,0,48,64
87812,note_off,,,,,0,0,2,,,,0,51,64
87812,note_off,,,,,0,0,2,,,,0,56,64
87834,control_change,,,,,112,0,1,,64,0,0,,
87842,note_on,,,,,8,0,1,,,,0,68,52
87842,note_on,,,,,30,0,2,,,,0,37,36
87842,control_change,,,,,0,0,1,,64,94,0,,
88082,note_on,,,,,0,0,2,,,,0,56,24
88082,note_on,,,,,0,0,2,,,,0,52,24
88082,note_off,,,,,240,0,2,,,,0,37,64
88082,note_on,,,,,0,0,2,,,,0,49,24
88082,note_off,,,,,240,0,1,,,,0,68,64
88088,control_change,,,,,6,0,1,,64,0,0,,
88172,note_off,,,,,0,0,2,,,,0,49,64
88172,note_off,,,,,90,0,2,,,,0,56,64
88172,note_off,,,,,0,0,2,,,,0,52,64
88202,note_on,,,,,114,0,1,,,,0,61,51
88202,control_change,,,,,0,0,1,,64,95,0,,
88202,note_on,,,,,0,0,2,,,,0,56,27
88202,note_on,,,,,0,0,2,,,,0,52,27
88202,note_on,,,,,30,0,2,,,,0,49,27
88382,note_off,,,,,180,0,2,,,,0,56,64
88382,note_off,,,,,0,0,2,,,,0,49,64
88382,note_off,,,,,0,0,2,,,,0,52,64
88442,note_on,,,,,60,0,2,,,,0,49,25
88442,note_on,,,,,0,0,2,,,,0,52,25
88442,note_on,,,,,0,0,2,,,,0,56,25
88442,note_off,,,,,240,0,1,,,,0,61,64
88442,control_change,,,,,0,0,1,,64,0,0,,
88532,note_off,,,,,0,0,2,,,,0,49,64
88532,note_off,,,,,0,0,2,,,,0,52,64
88532,note_off,,,,,90,0,2,,,,0,56,64
88560,note_on,,,,,118,0,1,,,,0,44,59
88562,control_change,,,,,2,0,1,,64,95,0,,
88562,note_on,,,,,0,0,2,,,,0,52,36
88562,note_on,,,,,30,0,2,,,,0,49,36
88742,note_off,,,,,180,0,2,,,,0,52,64
88742,note_off,,,,,0,0,2,,,,0,49,64
88800,note_off,,,,,238,0,1,,,,0,44,64
88802,note_on,,,,,60,0,2,,,,0,49,27
88802,note_on,,,,,0,0,2,,,,0,52,27
88802,note_on,,,,,0,0,2,,,,0,56,27
88892,note_off,,,,,0,0,2,,,,0,49,64
88892,note_off,,,,,0,0,2,,,,0,52,64
88892,note_off,,,,,90,0,2,,,,0,56,64
88906,control_change,,,,,106,0,1,,64,0,0,,
88920,note_on,,,,,14,0,1,,,,0,37,62
88922,note_on,,,,,30,0,2,,,,0,52,32
88922,note_on,,,,,0,0,2,,,,0,56,32
88922,control_change,,,,,2,0,1,,64,95,0,,
89102,note_off,,,,,0,0,2,,,,0,52,64
89102,note_off,,,,,180,0,2,,,,0,56,64
89160,note_off,,,,,238,0,1,,,,0,37,64
89162,note_on,,,,,60,0,2,,,,0,49,27
89162,note_on,,,,,0,0,2,,,,0,52,27
89162,note_on,,,,,0,0,2,,,,0,56,27
89252,note_off,,,,,90,0,2,,,,0,56,64
89252,note_off,,,,,0,0,2,,,,0,49,64
89252,note_off,,,,,0,0,2,,,,0,52,64
89260,control_change,,,,,100,0,1,,64,0,0,,
89282,control_change,,,,,0,0,1,,64,95,0,,
89282,note_on,,,,,22,0,1,,,,0,73,65
89282,note_on,,,,,30,0,2,,,,0,42,41
89522,note_on,,,,,0,0,2,,,,0,54,29
89522,note_on,,,,,0,0,2,,,,0,57,29
89522,note_off,,,,,240,0,2,,,,0,42,64
89522,note_on,,,,,0,0,2,,,,0,49,29
89612,note_off,,,,,0,0,2,,,,0,54,64
89612,note_off,,,,,0,0,2,,,,0,49,64
89612,note_off,,,,,90,0,2,,,,0,57,64
89634,control_change,,,,,352,0,1,,64,0,0,,
89642,note_on,,,,,0,0,2,,,,0,57,34
89642,note_on,,,,,0,0,2,,,,0,54,34
89642,note_on,,,,,30,0,2,,,,0,49,34
89642,control_change,,,,,8,0,1,,64,95,0,,
89822,note_off,,,,,0,0,2,,,,0,49,64
89822,note_off,,,,,0,0,2,,,,0,54,64
89822,note_off,,,,,180,0,2,,,,0,57,64
89882,note_off,,,,,240,0,1,,,,0,73,64
89882,note_on,,,,,60,0,2,,,,0,49,30
89882,note_on,,,,,0,0,2,,,,0,54,30
89882,note_on,,,,,0,0,2,,,,0,57,30
89972,note_off,,,,,90,0,2,,,,0,57,64
89972,note_off,,,,,0,0,2,,,,0,54,64
89972,note_off,,,,,0,0,2,,,,0,49,64
89994,control_change,,,,,112,0,1,,64,0,0,,
90002,note_on,,,,,30,0,2,,,,0,49,37
90002,note_on,,,,,0,0,2,,,,0,54,37
90002,note_on,,,,,0,0,2,,,,0,57,37
90002,note_on,,,,,8,0,1,,,,0,66,59
90002,control_change,,,,,0,0,1,,64,95,0,,
90182,note_off,,,,,0,0,2,,,,0,49,64
90182,note_off,,,,,180,0,2,,,,0,57,64
90182,note_off,,,,,0,0,2,,,,0,54,64
90242,note_on,,,,,60,0,2,,,,0,49,27
90242,note_on,,,,,0,0,2,,,,0,54,27
90242,note_on,,,,,0,0,2,,,,0,57,27
90332,note_off,,,,,90,0,2,,,,0,57,64
90332,note_off,,,,,0,0,2,,,,0,54,64
90332,note_off,,,,,0,0,2,,,,0,49,64
90354,control_change,,,,,352,0,1,,64,0,0,,
90362,control_change,,,,,8,0,1,,64,96,0,,
90362,note_on,,,,,30,0,2,,,,0,49,29
90362,note_on,,,,,0,0,2,,,,0,57,29
90362,note_on,,,,,0,0,2,,,,0,54,29
90542,note_off,,,,,180,0,2,,,,0,57,64
90542,note_off,,,,,0,0,2,,,,0,54,64
90542,note_off,,,,,0,0,2,,,,0,49,64
90602,note_on,,,,,0,0,2,,,,0,54,27
90602,note_on,,,,,0,0,2,,,,0,57,27
90602,note_off,,,,,240,0,1,,,,0,66,64
90602,note_on,,,,,60,0,2,,,,0,49,27
90692,note_off,,,,,0,0,2,,,,0,49,64
90692,note_off,,,,,0,0,2,,,,0,54,64
90692,note_off,,,,,90,0,2,,,,0,57,64
90714,control_change,,,,,112,0,1,,64,0,0,,
90722,note_on,,,,,30,0,2,,,,0,47,41
90722,note_on,,,,,8,0,1,,,,0,68,47
90722,control_change,,,,,0,0,1,,64,96,0,,
90860,set_tempo,,,,,8780,1,0,243902,,,,,
90902,note_off,,,,,180,0,1,,,,0,68,64
90962,note_off,,,,,240,0,2,,,,0,47,64
90962,note_on,,,,,0,0,2,,,,0,59,37
90962,note_on,,,,,0,0,2,,,,0,56,37
90962,note_on,,,,,0,0,2,,,,0,52,37
90968,control_change,,,,,66,0,1,,64,0,0,,
91052,note_off,,,,,0,0,2,,,,0,59,64
91052,note_off,,,,,0,0,2,,,,0,56,64
91052,note_off,,,,,90,0,2,,,,0,52,64
91082,note_on,,,,,30,0,2,,,,0,59,39
91082,note_on,,,,,0,0,2,,,,0,56,39
91082,note_on,,,,,0,0,2,,,,0,52,39
91082,control_change,,,,,0,0,1,,64,95,0,,
91082,note_on,,,,,114,0,1,,,,0,71,66
91200,set_tempo,,,,,340,1,0,245902,,,,,
91262,note_off,,,,,180,0,2,,,,0,52,64
91262,note_off,,,,,0,0,2,,,,0,56,64
91262,note_off,,,,,0,0,2,,,,0,59,64
91322,note_on,,,,,0,0,2,,,,0,52,47
91322,note_on,,,,,60,0,2,,,,0,59,47
91322,note_on,,,,,0,0,2,,,,0,56,47
91322,control_change,,,,,240,0,1,,64,0,0,,
91382,note_off,,,,,60,0,1,,,,0,71,64
91412,note_off,,,,,90,0,2,,,,0,52,64
91412,note_off,,,,,0,0,2,,,,0,56,64
91412,note_off,,,,,0,0,2,,,,0,59,64
91442,note_on,,,,,30,0,2,,,,0,47,49
91442,control_change,,,,,0,0,1,,64,95,0,,
91442,note_on,,,,,60,0,1,,,,0,66,81
91560,set_tempo,,,,,360,1,0,246914,,,,,
91622,note_off,,,,,180,0,1,,,,0,66,64
91682,note_on,,,,,0,0,2,,,,0,51,55
91682,note_on,,,,,0,0,2,,,,0,59,55
91682,note_off,,,,,240,0,2,,,,0,47,64
91682,note_on,,,,,0,0,2,,,,0,57,55
91772,note_off,,,,,0,0,2,,,,0,59,64
91772,note_off,,,,,90,0,2,,,,0,51,64
91772,note_off,,,,,0,0,2,,,,0,57,64
91792,control_change,,,,,170,0,1,,64,0,0,,
91800,control_change,,,,,8,0,1,,64,95,0,,
91802,note_on,,,,,0,0,2,,,,0,57,59
91802,note_on,,,,,2,0,1,,,,0,71,89
91802,note_on,,,,,30,0,2,,,,0,59,59
91802,note_on,,,,,0,0,2,,,,0,51,59
91980,set_tempo,,,,,420,1,0,247934,,,,,
91982,note_off,,,,,0,0,2,,,,0,59,64
91982,note_off,,,,,0,0,2,,,,0,57,64
91982,note_off,,,,,180,0,2,,,,0,51,64
92042,note_on,,,,,0,0,2,,,,0,51,62
92042,note_on,,,,,0,0,2,,,,0,57,62
92042,note_on,,,,,60,0,2,,,,0,59,62
92102,note_off,,,,,300,0,1,,,,0,71,64
92132,note_off,,,,,0,0,2,,,,0,59,64
92132,note_off,,,,,0,0,2,,,,0,57,64
92132,note_off,,,,,90,0,2,,,,0,51,64
92152,control_change,,,,,50,0,1,,64,0,0,,
92162,control_change,,,,,0,0,1,,64,95,0,,
92162,note_on,,,,,10,0,1,,,,0,40,104
92162,note_on,,,,,30,0,2,,,,0,44,64
92380,set_tempo,,,,,400,1,0,253165,,,,,
92402,note_off,,,,,240,0,1,,,,0,40,64
92402,control_change,,,,,0,0,1,,64,0,0,,
92402,note_off,,,,,240,0,2,,,,0,44,64
92402,note_on,,,,,0,0,2,,,,0,52,71
92402,note_on,,,,,0,0,2,,,,0,56,71
92402,note_on,,,,,0,0,2,,,,0,49,71
92492,note_off,,,,,90,0,2,,,,0,49,64
92492,note_off,,,,,0,0,2,,,,0,56,64
92492,note_off,,,,,0,0,2,,,,0,52,64
92522,note_on,,,,,0,0,2,,,,0,49,76
92522,note_on,,,,,0,0,2,,,,0,56,76
92522,control_change,,,,,0,0,1,,64,95,0,,
92522,note_on,,,,,120,0,1,,,,0,44,117
92522,note_on,,,,,30,0,2,,,,0,52,76
92702,note_off,,,,,0,0,2,,,,0,56,64
92702,note_off,,,,,180,0,2,,,,0,49,64
92702,note_off,,,,,0,0,2,,,,0,52,64
92762,note_on,,,,,60,0,2,,,,0,52,83
92762,note_on,,,,,0,0,2,,,,0,56,83
92762,note_on,,,,,0,0,2,,,,0,49,83
92762,control_change,,,,,240,0,1,,64,0,0,,
92820,set_tempo,,,,,440,1,0,256410,,,,,
92822,note_off,,,,,60,0,1,,,,0,44,64
92852,note_off,,,,,90,0,2,,,,0,49,64
92852,note_off,,,,,0,0,2,,,,0,56,64
92852,note_off,,,,,0,0,2,,,,0,52,64
92882,note_on,,,,,30,0,2,,,,0,44,85
92882,note_on,,,,,60,0,1,,,,0,39,104
92882,control_change,,,,,0,0,1,,64,96,0,,
93040,set_tempo,,,,,220,1,0,260870,,,,,
93062,note_off,,,,,180,0,1,,,,0,39,64
93122,note_on,,,,,0,0,2,,,,0,56,76
93122,note_on,,,,,0,0,2,,,,0,54,76
93122,note_on,,,,,0,0,2,,,,0,48,76
93122,control_change,,,,,60,0,1,,64,0,0,,
93122,note_off,,,,,240,0,2,,,,0,44,64
93212,note_off,,,,,90,0,2,,,,0,48,64
93212,note_off,,,,,0,0,2,,,,0,54,64
93212,note_off,,,,,0,0,2,,,,0,56,64
93242,note_on,,,,,30,0,2,,,,0,56,73
93242,note_on,,,,,0,0,2,,,,0,54,73
93242,note_on,,,,,0,0,2,,,,0,48,73
93242,note_on,,,,,120,0,1,,,,0,44,121
93242,control_change,,,,,0,0,1,,64,95,0,,
93280,set_tempo,,,,,240,1,0,266667,,,,,
93420,set_tempo,,,,,140,1,0,276498,,,,,
93422,note_off,,,,,0,0,2,,,,0,54,64
93422,note_off,,,,,0,0,2,,,,0,56,64
93422,note_off,,,,,180,0,2,,,,0,48,64
93482,note_on,,,,,60,0,2,,,,0,48,59
93482,note_on,,,,,0,0,2,,,,0,54,59
93482,note_on,,,,,0,0,2,,,,0,56,59
93542,control_change,,,,,0,0,1,,64,0,0,,
93542,note_off,,,,,300,0,1,,,,0,44,64
93544,set_tempo,,,,,124,1,0,291262,,,,,
93564,set_tempo,,,,,20,1,0,705882,,,,,
93572,note_off,,,,,0,0,2,,,,0,56,64
93572,note_off,,,,,0,0,2,,,,0,48,64
93572,note_off,,,,,90,0,2,,,,0,54,64
93584,set_tempo,,,,,20,1,0,294118,,,,,
93602,note_on,,,,,30,0,2,,,,0,49,36
93602,note_on,,,,,60,0,1,,,,0,80,52
93602,control_change,,,,,0,0,1,,64,94,0,,
93604,set_tempo,,,,,20,1,0,243902,,,,,
93842,note_on,,,,,0,0,2,,,,0,61,31
93842,note_on,,,,,0,0,2,,,,0,64,31
93842,note_on,,,,,0,0,2,,,,0,68,31
93842,note_off,,,,,240,0,2,,,,0,49,64
93842,note_off,,,,,240,0,1,,,,0,80,64
93848,control_change,,,,,6,0,1,,64,0,0,,
93932,note_off,,,,,90,0,2,,,,0,68,64
93932,note_off,,,,,0,0,2,,,,0,64,64
93932,note_off,,,,,0,0,2,,,,0,61,64
93962,note_on,,,,,0,0,2,,,,0,68,27
93962,control_change,,,,,0,0,1,,64,95,0,,
93962,note_on,,,,,30,0,2,,,,0,61,27
93962,note_on,,,,,114,0,1,,,,0,73,46
93962,note_on,,,,,0,0,2,,,,0,64,27
94142,note_off,,,,,0,0,2,,,,0,61,64
94142,note_off,,,,,0,0,2,,,,0,64,64
94142,note_off,,,,,180,0,2,,,,0,68,64
94202,note_on,,,,,0,0,2,,,,0,64,24
94202,note_on,,,,,60,0,2,,,,0,61,24
94202,control_change,,,,,0,0,1,,64,0,0,,
94202,note_on,,,,,0,0,2,,,,0,68,24
94202,note_off,,,,,240,0,1,,,,0,73,64
94292,note_off,,,,,0,0,2,,,,0,64,64
94292,note_off,,,,,0,0,2,,,,0,61,64
94292,note_off,,,,,90,0,2,,,,0,68,64
94322,control_change,,,,,0,0,1,,64,95,0,,
94322,note_on,,,,,0,0,2,,,,0,64,36
94322,note_on,,,,,30,0,2,,,,0,61,36
94322,note_on,,,,,120,0,1,,,,0,56,54
94502,note_off,,,,,0,0,2,,,,0,61,64
94502,note_off,,,,,180,0,2,,,,0,64,64
94562,control_change,,,,,0,0,1,,64,0,0,,
94562,note_off,,,,,240,0,1,,,,0,56,64
94562,note_on,,,,,60,0,2,,,,0,61,25
94562,note_on,,,,,0,0,2,,,,0,64,25
94562,note_on,,,,,0,0,2,,,,0,68,25
94652,note_off,,,,,90,0,2,,,,0,68,64
94652,note_off,,,,,0,0,2,,,,0,64,64
94652,note_off,,,,,0,0,2,,,,0,61,64
94682,note_on,,,,,120,0,1,,,,0,49,62
94682,note_on,,,,,30,0,2,,,,0,64,32
94682,note_on,,,,,0,0,2,,,,0,68,32
94682,control_change,,,,,0,0,1,,64,95,0,,
94862,note_off,,,,,0,0,2,,,,0,64,64
94862,note_off,,,,,180,0,2,,,,0,68,64
94922,note_on,,,,,60,0,2,,,,0,61,27
94922,note_on,,,,,0,0,2,,,,0,64,27
94922,note_on,,,,,0,0,2,,,,0,68,27
94922,control_change,,,,,0,0,1,,64,0,0,,
94922,note_off,,,,,240,0,1,,,,0,49,64
95012,note_off,,,,,0,0,2,,,,0,64,64
95012,note_off,,,,,90,0,2,,,,0,68,64
95012,note_off,,,,,0,0,2,,,,0,61,64
95042,note_on,,,,,120,0,1,,,,0,85,78
95042,control_change,,,,,0,0,1,,64,95,0,,
95042,note_on,,,,,30,0,2,,,,0,54,41
95162,note_off,,,,,120,0,1,,,,0,85,64
95162,note_on,,,,,0,0,1,,,,0,84,72
95282,note_off,,,,,240,0,2,,,,0,54,64
95282,note_on,,,,,0,0,2,,,,0,61,38
95282,note_on,,,,,0,0,2,,,,0,66,38
95282,note_on,,,,,0,0,2,,,,0,69,38
95282,note_off,,,,,120,0,1,,,,0,84,64
95282,note_on,,,,,0,0,1,,,,0,83,67
95372,note_off,,,,,90,0,2,,,,0,69,64
95372,note_off,,,,,0,0,2,,,,0,66,64
95372,note_off,,,,,0,0,2,,,,0,61,64
95394,control_change,,,,,112,0,1,,64,0,0,,
95402,note_on,,,,,0,0,1,,,,0,82,62
95402,note_on,,,,,0,0,2,,,,0,66,34
95402,note_on,,,,,0,0,2,,,,0,69,34
95402,note_on,,,,,30,0,2,,,,0,61,34
95402,control_change,,,,,0,0,1,,64,95,0,,
95402,note_off,,,,,8,0,1,,,,0,83,64
95522,note_off,,,,,120,0,1,,,,0,82,64
95522,note_on,,,,,0,0,1,,,,0,81,57
95582,note_off,,,,,0,0,2,,,,0,66,64
95582,note_off,,,,,0,0,2,,,,0,61,64
95582,note_off,,,,,180,0,2,,,,0,69,64
95642,note_off,,,,,120,0,1,,,,0,81,64
95642,note_on,,,,,60,0,2,,,,0,61,30
95642,note_on,,,,,0,0,2,,,,0,66,30
95642,note_on,,,,,0,0,2,,,,0,69,30
95642,note_on,,,,,0,0,1,,,,0,80,52
95732,note_off,,,,,0,0,2,,,,0,61,64
95732,note_off,,,,,0,0,2,,,,0,66,64
95732,note_off,,,,,90,0,2,,,,0,69,64
95754,control_change,,,,,112,0,1,,64,0,0,,
95762,note_on,,,,,0,0,2,,,,0,66,37
95762,control_change,,,,,0,0,1,,64,95,0,,
95762,note_on,,,,,0,0,1,,,,0,79,46
95762,note_off,,,,,8,0,1,,,,0,80,64
95762,note_on,,,,,0,0,2,,,,0,69,37
95762,note_on,,,,,30,0,2,,,,0,61,37
95882,note_off,,,,,120,0,1,,,,0,79,64
95882,note_on,,,,,0,0,1,,,,0,78,43
95942,note_off,,,,,0,0,2,,,,0,61,64
95942,note_off,,,,,0,0,2,,,,0,66,64
95942,note_off,,,,,180,0,2,,,,0,69,64
96002,note_off,,,,,120,0,1,,,,0,78,64
96002,note_on,,,,,0,0,1,,,,0,77,41
96002,note_on,,,,,0,0,2,,,,0,69,34
96002,note_on,,,,,0,0,2,,,,0,66,34
96002,note_on,,,,,60,0,2,,,,0,61,34
96092,note_off,,,,,0,0,2,,,,0,61,64
96092,note_off,,,,,0,0,2,,,,0,66,64
96092,note_off,,,,,90,0,2,,,,0,69,64
96114,control_change,,,,,112,0,1,,64,0,0,,
96122,note_off,,,,,8,0,1,,,,0,77,64
96122,note_on,,,,,0,0,1,,,,0,78,45
96122,control_change,,,,,0,0,1,,64,96,0,,
96122,note_on,,,,,30,0,2,,,,0,61,29
96122,note_on,,,,,0,0,2,,,,0,66,29
96122,note_on,,,,,0,0,2,,,,0,69,29
96242,note_on,,,,,0,0,1,,,,0,80,50
96242,note_off,,,,,120,0,1,,,,0,78,64
96302,note_off,,,,,0,0,2,,,,0,66,64
96302,note_off,,,,,180,0,2,,,,0,69,64
96302,note_off,,,,,0,0,2,,,,0,61,64
96362,note_on,,,,,0,0,1,,,,0,81,54
96362,note_off,,,,,120,0,1,,,,0,80,64
96362,note_on,,,,,0,0,2,,,,0,66,27
96362,note_on,,,,,60,0,2,,,,0,61,27
96362,note_on,,,,,0,0,2,,,,0,69,27
96452,note_off,,,,,90,0,2,,,,0,69,64
96452,note_off,,,,,0,0,2,,,,0,66,64
96452,note_off,,,,,0,0,2,,,,0,61,64
96474,control_change,,,,,112,0,1,,64,0,0,,
96482,note_on,,,,,0,0,1,,,,0,80,57
96482,note_on,,,,,30,0,2,,,,0,49,36
96482,note_off,,,,,8,0,1,,,,0,81,64
96482,control_change,,,,,0,0,1,,64,94,0,,
96722,note_off,,,,,240,0,1,,,,0,80,64
96722,note_off,,,,,240,0,2,,,,0,49,64
96722,note_on,,,,,0,0,2,,,,0,61,31
96722,note_on,,,,,0,0,2,,,,0,64,31
96722,note_on,,,,,0,0,2,,,,0,68,31
96728,control_change,,,,,6,0,1,,64,0,0,,
96812,note_off,,,,,0,0,2,,,,0,64,64
96812,note_off,,,,,90,0,2,,,,0,68,64
96812,note_off,,,,,0,0,2,,,,0,61,64
96842,control_change,,,,,0,0,1,,64,95,0,,
96842,note_on,,,,,114,0,1,,,,0,73,55
96842,note_on,,,,,30,0,2,,,,0,61,27
96842,note_on,,,,,0,0,2,,,,0,68,27
96842,note_on,,,,,0,0,2,,,,0,64,27
97022,note_off,,,,,180,0,2,,,,0,68,64
97022,note_off,,,,,0,0,2,,,,0,64,64
97022,note_off,,,,,0,0,2,,,,0,61,64
97082,note_off,,,,,240,0,1,,,,0,73,64
97082,control_change,,,,,0,0,1,,64,0,0,,
97082,note_on,,,,,0,0,2,,,,0,68,25
97082,note_on,,,,,0,0,2,,,,0,64,25
97082,note_on,,,,,60,0,2,,,,0,61,25
97172,note_off,,,,,0,0,2,,,,0,64,64
97172,note_off,,,,,90,0,2,,,,0,68,64
97172,note_off,,,,,0,0,2,,,,0,61,64
97202,note_on,,,,,30,0,2,,,,0,61,36
97202,note_on,,,,,0,0,2,,,,0,64,36
97202,note_on,,,,,120,0,1,,,,0,56,57
97202,control_change,,,,,0,0,1,,64,95,0,,
97382,note_off,,,,,180,0,2,,,,0,64,64
97382,note_off,,,,,0,0,2,,,,0,61,64
97442,note_on,,,,,60,0,2,,,,0,61,31
97442,note_off,,,,,240,0,1,,,,0,56,64
97442,note_on,,,,,0,0,2,,,,0,64,31
97442,note_on,,,,,0,0,2,,,,0,68,31
97442,control_change,,,,,0,0,1,,64,0,0,,
97532,note_off,,,,,0,0,2,,,,0,61,64
97532,note_off,,,,,0,0,2,,,,0,64,64
97532,note_off,,,,,90,0,2,,,,0,68,64
97562,note_on,,,,,30,0,2,,,,0,64,38
97562,note_on,,,,,120,0,1,,,,0,49,58
97562,control_change,,,,,0,0,1,,64,95,0,,
97562,note_on,,,,,0,0,2,,,,0,68,38
97742,note_off,,,,,180,0,2,,,,0,68,64
97742,note_off,,,,,0,0,2,,,,0,64,64
97802,note_off,,,,,240,0,1,,,,0,49,64
97802,note_on,,,,,0,0,2,,,,0,68,36
97802,control_change,,,,,0,0,1,,64,0,0,,
97802,note_on,,,,,0,0,2,,,,0,64,36
97802,note_on,,,,,60,0,2,,,,0,61,36
97892,note_off,,,,,0,0,2,,,,0,64,64
97892,note_off,,,,,90,0,2,,,,0,68,64
97892,note_off,,,,,0,0,2,,,,0,61,64
97922,note_on,,,,,120,0,1,,,,0,87,78
97922,control_change,,,,,0,0,1,,64,95,0,,
97922,note_on,,,,,0,0,2,,,,0,56,57
97922,note_on,,,,,30,0,2,,,,0,44,57
98042,note_on,,,,,0,0,1,,,,0,86,71
98042,note_off,,,,,120,0,1,,,,0,87,64
98162,note_off,,,,,120,0,1,,,,0,86,64
98162,note_on,,,,,0,0,1,,,,0,85,63
98162,note_off,,,,,240,0,2,,,,0,56,64
98162,note_on,,,,,0,0,2,,,,0,63,47
98162,note_off,,,,,0,0,2,,,,0,44,64
98162,note_on,,,,,0,0,2,,,,0,68,47
98162,note_on,,,,,0,0,2,,,,0,60,47
98252,note_off,,,,,0,0,2,,,,0,63,64
98252,note_off,,,,,0,0,2,,,,0,68,64
98252,note_off,,,,,90,0,2,,,,0,60,64
98274,control_change,,,,,112,0,1,,64,0,0,,
98282,note_on,,,,,0,0,2,,,,0,60,44
98282,note_on,,,,,0,0,1,,,,0,84,57
98282,note_on,,,,,30,0,2,,,,0,68,44
98282,control_change,,,,,0,0,1,,64,95,0,,
98282,note_on,,,,,0,0,2,,,,0,63,44
98282,note_off,,,,,8,0,1,,,,0,85,64
98402,note_off,,,,,120,0,1,,,,0,84,64
98402,note_on,,,,,0,0,1,,,,0,83,56
98462,note_off,,,,,180,0,2,,,,0,60,64
98462,note_off,,,,,0,0,2,,,,0,63,64
98462,note_off,,,,,0,0,2,,,,0,68,64
98522,note_on,,,,,0,0,2,,,,0,60,44
98522,note_on,,,,,0,0,1,,,,0,82,48
98522,note_off,,,,,120,0,1,,,,0,83,64
98522,note_on,,,,,60,0,2,,,,0,68,44
98522,note_on,,,,,0,0,2,,,,0,63,44
98612,note_off,,,,,90,0,2,,,,0,60,64
98612,note_off,,,,,0,0,2,,,,0,68,64
98612,note_off,,,,,0,0,2,,,,0,63,64
98634,control_change,,,,,112,0,1,,64,0,0,,
98642,control_change,,,,,0,0,1,,64,95,0,,
98642,note_off,,,,,8,0,1,,,,0,82,64
98642,note_on,,,,,0,0,1,,,,0,81,42
98642,note_on,,,,,0,0,2,,,,0,63,51
98642,note_on,,,,,0,0,2,,,,0,60,51
98642,note_on,,,,,30,0,2,,,,0,68,51
98762,note_on,,,,,0,0,1,,,,0,80,38
98762,note_off,,,,,120,0,1,,,,0,81,64
98822,note_off,,,,,180,0,2,,,,0,60,64
98822,note_off,,,,,0,0,2,,,,0,63,64
98822,note_off,,,,,0,0,2,,,,0,68,64
98882,note_on,,,,,0,0,1,,,,0,79,36
98882,note_off,,,,,120,0,1,,,,0,80,64
98882,note_on,,,,,60,0,2,,,,0,68,32
98882,note_on,,,,,0,0,2,,,,0,63,32
98882,note_on,,,,,0,0,2,,,,0,60,32
98972,note_off,,,,,90,0,2,,,,0,60,64
98972,note_off,,,,,0,0,2,,,,0,68,64
98972,note_off,,,,,0,0,2,,,,0,63,64
98994,control_change,,,,,112,0,1,,64,0,0,,
99002,note_on,,,,,0,0,2,,,,0,63,36
99002,control_change,,,,,0,0,1,,64,96,0,,
99002,note_off,,,,,8,0,1,,,,0,79,64
99002,note_on,,,,,0,0,1,,,,0,80,41
99002,note_on,,,,,0,0,2,,,,0,60,36
99002,note_on,,,,,30,0,2,,,,0,68,36
99122,note_off,,,,,120,0,1,,,,0,80,64
99122,note_on,,,,,0,0,1,,,,0,81,47
99182,note_off,,,,,0,0,2,,,,0,68,64
99182,note_off,,,,,180,0,2,,,,0,60,64
99182,note_off,,,,,0,0,2,,,,0,63,64
99242,note_off,,,,,120,0,1,,,,0,81,64
99242,note_on,,,,,0,0,1,,,,0,78,54
99242,note_on,,,,,0,0,2,,,,0,60,32
99242,note_on,,,,,0,0,2,,,,0,63,32
99242,note_on,,,,,60,0,2,,,,0,68,32
99332,note_off,,,,,0,0,2,,,,0,68,64
99332,note_off,,,,,0,0,2,,,,0,63,64
99332,note_off,,,,,90,0,2,,,,0,60,64
99354,control_change,,,,,112,0,1,,64,0,0,,
99362,control_change,,,,,0,0,1,,64,94,0,,
99362,note_on,,,,,0,0,1,,,,0,80,57
99362,note_off,,,,,8,0,1,,,,0,78,64
99362,note_on,,,,,30,0,2,,,,0,49,36
99602,note_off,,,,,240,0,2,,,,0,49,64
99602,note_off,,,,,240,0,1,,,,0,80,64
99602,note_on,,,,,0,0,2,,,,0,61,31
99602,note_on,,,,,0,0,2,,,,0,64,31
99602,note_on,,,,,0,0,2,,,,0,68,31
99608,control_change,,,,,6,0,1,,64,0,0,,
99692,note_off,,,,,0,0,2,,,,0,61,64
99692,note_off,,,,,0,0,2,,,,0,64,64
99692,note_off,,,,,90,0,2,,,,0,68,64
99722,note_on,,,,,114,0,1,,,,0,73,56
99722,note_on,,,,,30,0,2,,,,0,61,27
99722,note_on,,,,,0,0,2,,,,0,68,27
99722,control_change,,,,,0,0,1,,64,95,0,,
99722,note_on,,,,,0,0,2,,,,0,64,27
99902,note_off,,,,,180,0,2,,,,0,68,64
99902,note_off,,,,,0,0,2,,,,0,64,64
99902,note_off,,,,,0,0,2,,,,0,61,64
99962,note_on,,,,,0,0,2,,,,0,68,25
99962,note_off,,,,,240,0,1,,,,0,73,64
99962,note_on,,,,,0,0,2,,,,0,64,25
99962,control_change,,,,,0,0,1,,64,0,0,,
99962,note_on,,,,,60,0,2,,,,0,61,25
100052,note_off,,,,,90,0,2,,,,0,68,64
100052,note_off,,,,,0,0,2,,,,0,64,64
100052,note_off,,,,,0,0,2,,,,0,61,64
100082,control_change,,,,,0,0,1,,64,95,0,,
100082,note_on,,,,,120,0,1,,,,0,56,57
100082,note_on,,,,,30,0,2,,,,0,61,36
100082,note_on,,,,,0,0,2,,,,0,64,36
100262,note_off,,,,,180,0,2,,,,0,64,64
100262,note_off,,,,,0,0,2,,,,0,61,64
100322,control_change,,,,,0,0,1,,64,0,0,,
100322,note_on,,,,,0,0,2,,,,0,68,25
100322,note_off,,,,,240,0,1,,,,0,56,64
100322,note_on,,,,,60,0,2,,,,0,61,25
100322,note_on,,,,,0,0,2,,,,0,64,25
100412,note_off,,,,,90,0,2,,,,0,68,64
100412,note_off,,,,,0,0,2,,,,0,64,64
100412,note_off,,,,,0,0,2,,,,0,61,64
100442,note_on,,,,,0,0,2,,,,0,68,32
100442,note_on,,,,,30,0,2,,,,0,64,32
100442,control_change,,,,,0,0,1,,64,95,0,,
100442,note_on,,,,,120,0,1,,,,0,49,61
100622,note_off,,,,,0,0,2,,,,0,64,64
100622,note_off,,,,,180,0,2,,,,0,68,64
100682,control_change,,,,,0,0,1,,64,0,0,,
100682,note_on,,,,,0,0,2,,,,0,68,28
100682,note_on,,,,,0,0,2,,,,0,64,28
100682,note_off,,,,,240,0,1,,,,0,49,64
100682,note_on,,,,,60,0,2,,,,0,61,28
100772,note_off,,,,,0,0,2,,,,0,61,64
100772,note_off,,,,,90,0,2,,,,0,68,64
100772,note_off,,,,,0,0,2,,,,0,64,64
100802,control_change,,,,,0,0,1,,64,95,0,,
100802,note_on,,,,,120,0,1,,,,0,85,69
100802,note_on,,,,,30,0,2,,,,0,54,41
100922,note_on,,,,,0,0,1,,,,0,84,64
100922,note_off,,,,,120,0,1,,,,0,85,64
101042,note_on,,,,,0,0,1,,,,0,85,64
101042,note_off,,,,,120,0,1,,,,0,84,64
101042,note_on,,,,,0,0,2,,,,0,69,29
101042,note_on,,,,,0,0,2,,,,0,66,29
101042,note_on,,,,,0,0,2,,,,0,61,29
101042,note_off,,,,,240,0,2,,,,0,54,64
101132,note_off,,,,,0,0,2,,,,0,61,64
101132,note_off,,,,,0,0,2,,,,0,66,64
101132,note_off,,,,,90,0,2,,,,0,69,64
101154,control_change,,,,,112,0,1,,64,0,0,,
101162,note_off,,,,,8,0,1,,,,0,85,64
101162,note_on,,,,,0,0,2,,,,0,66,34
101162,note_on,,,,,0,0,2,,,,0,69,34
101162,note_on,,,,,0,0,1,,,,0,86,62
101162,control_change,,,,,0,0,1,,64,95,0,,
101162,note_on,,,,,30,0,2,,,,0,61,34
101282,note_on,,,,,0,0,1,,,,0,85,65
101282,note_off,,,,,120,0,1,,,,0,86,64
101342,note_off,,,,,0,0,2,,,,0,61,64
101342,note_off,,,,,180,0,2,,,,0,69,64
101342,note_off,,,,,0,0,2,,,,0,66,64
101402,note_on,,,,,0,0,2,,,,0,66,30
101402,note_on,,,,,60,0,2,,,,0,61,30
101402,note_on,,,,,0,0,2,,,,0,69,30
101402,note_off,,,,,120,0,1,,,,0,85,64
101402,note_on,,,,,0,0,1,,,,0,84,70
101492,note_off,,,,,0,0,2,,,,0,61,64
101492,note_off,,,,,0,0,2,,,,0,66,64
101492,note_off,,,,,90,0,2,,,,0,69,64
101514,control_change,,,,,112,0,1,,64,0,0,,
101522,note_off,,,,,8,0,1,,,,0,84,64
101522,note_on,,,,,0,0,1,,,,0,83,74
101522,control_change,,,,,0,0,1,,64,95,0,,
101522,note_on,,,,,0,0,2,,,,0,69,37
101522,note_on,,,,,0,0,2,,,,0,66,37
101522,note_on,,,,,30,0,2,,,,0,61,37
101642,note_off,,,,,120,0,1,,,,0,83,64
101642,note_on,,,,,0,0,1,,,,0,82,70
101702,note_off,,,,,0,0,2,,,,0,66,64
101702,note_off,,,,,0,0,2,,,,0,61,64
101702,note_off,,,,,180,0,2,,,,0,69,64
101762,note_off,,,,,120,0,1,,,,0,82,64
101762,note_on,,,,,0,0,1,,,,0,81,65
101762,note_on,,,,,0,0,2,,,,0,69,26
101762,note_on,,,,,60,0,2,,,,0,61,26
101762,note_on,,,,,0,0,2,,,,0,66,26
101852,note_off,,,,,0,0,2,,,,0,61,64
101852,note_off,,,,,0,0,2,,,,0,66,64
101852,note_off,,,,,90,0,2,,,,0,69,64
101874,control_change,,,,,112,0,1,,64,0,0,,
101882,control_change,,,,,0,0,1,,64,96,0,,
101882,note_on,,,,,0,0,1,,,,0,82,61
101882,note_off,,,,,8,0,1,,,,0,81,64
101882,note_on,,,,,0,0,2,,,,0,69,29
101882,note_on,,,,,0,0,2,,,,0,66,29
101882,note_on,,,,,30,0,2,,,,0,61,29
102002,note_off,,,,,120,0,1,,,,0,82,64
102002,note_on,,,,,0,0,1,,,,0,83,57
102062,note_off,,,,,0,0,2,,,,0,61,64
102062,note_off,,,,,0,0,2,,,,0,66,64
102062,note_off,,,,,180,0,2,,,,0,69,64
102122,note_on,,,,,0,0,2,,,,0,69,27
102122,note_off,,,,,120,0,1,,,,0,83,64
102122,note_on,,,,,0,0,1,,,,0,84,54
102122,note_on,,,,,0,0,2,,,,0,66,27
102122,note_on,,,,,60,0,2,,,,0,61,27
102184,set_tempo,,,,,8580,1,0,245902,,,,,
102212,note_off,,,,,0,0,2,,,,0,61,64
102212,note_off,,,,,0,0,2,,,,0,66,64
102212,note_off,,,,,90,0,2,,,,0,69,64
102234,control_change,,,,,112,0,1,,64,0,0,,
102242,note_on,,,,,30,0,2,,,,0,52,41
102242,note_off,,,,,8,0,1,,,,0,84,64
102242,control_change,,,,,0,0,1,,64,96,0,,
102242,note_on,,,,,0,0,1,,,,0,85,51
102422,note_off,,,,,180,0,1,,,,0,85,64
102482,note_off,,,,,240,0,2,,,,0,52,64
102482,note_on,,,,,0,0,2,,,,0,57,38
102482,note_on,,,,,0,0,2,,,,0,61,38
102482,note_on,,,,,0,0,2,,,,0,64,38
102488,control_change,,,,,66,0,1,,64,0,0,,
102572,note_off,,,,,0,0,2,,,,0,64,64
102572,note_off,,,,,0,0,2,,,,0,61,64
102572,note_off,,,,,90,0,2,,,,0,57,64
102602,control_change,,,,,0,0,1,,64,95,0,,
102602,note_on,,,,,114,0,1,,,,0,88,56
102602,note_on,,,,,0,0,2,,,,0,57,41
102602,note_on,,,,,0,0,2,,,,0,61,41
102602,note_on,,,,,30,0,2,,,,0,64,41
102782,note_off,,,,,180,0,2,,,,0,57,64
102782,note_off,,,,,0,0,2,,,,0,64,64
102782,note_off,,,,,0,0,2,,,,0,61,64
102842,note_on,,,,,0,0,2,,,,0,57,44
102842,note_on,,,,,0,0,2,,,,0,61,44
102842,note_on,,,,,60,0,2,,,,0,64,44
102842,control_change,,,,,240,0,1,,64,0,0,,
102902,note_off,,,,,60,0,1,,,,0,88,64
102932,note_off,,,,,0,0,2,,,,0,61,64
102932,note_off,,,,,90,0,2,,,,0,57,64
102932,note_off,,,,,0,0,2,,,,0,64,64
102962,note_on,,,,,60,0,1,,,,0,83,71
102962,note_on,,,,,30,0,2,,,,0,52,48
102962,control_change,,,,,0,0,1,,64,95,0,,
103142,note_off,,,,,180,0,1,,,,0,83,64
103202,note_on,,,,,0,0,2,,,,0,62,53
103202,note_on,,,,,0,0,2,,,,0,64,53
103202,note_off,,,,,240,0,2,,,,0,52,64
103202,note_on,,,,,0,0,2,,,,0,56,53
103202,control_change,,,,,60,0,1,,64,0,0,,
103292,note_off,,,,,0,0,2,,,,0,64,64
103292,note_off,,,,,90,0,2,,,,0,56,64
103292,note_off,,,,,0,0,2,,,,0,62,64
103322,note_on,,,,,120,0,1,,,,0,88,89
103322,note_on,,,,,0,0,2,,,,0,56,55
103322,note_on,,,,,0,0,2,,,,0,62,55
103322,note_on,,,,,30,0,2,,,,0,64,55
103328,control_change,,,,,6,0,1,,64,94,0,,
103360,set_tempo,,,,,1176,1,0,248963,,,,,
103502,note_off,,,,,180,0,2,,,,0,56,64
103502,note_off,,,,,0,0,2,,,,0,62,64
103502,note_off,,,,,0,0,2,,,,0,64,64
103562,control_change,,,,,234,0,1,,64,0,0,,
103562,note_on,,,,,60,0,2,,,,0,64,57
103562,note_on,,,,,0,0,2,,,,0,62,57
103562,note_on,,,,,0,0,2,,,,0,56,57
103622,note_off,,,,,60,0,1,,,,0,88,64
103652,note_off,,,,,90,0,2,,,,0,56,64
103652,note_off,,,,,0,0,2,,,,0,64,64
103652,note_off,,,,,0,0,2,,,,0,62,64
103682,control_change,,,,,0,0,1,,64,95,0,,
103682,note_on,,,,,60,0,1,,,,0,48,94
103682,note_on,,,,,30,0,2,,,,0,52,61
103922,note_off,,,,,240,0,2,,,,0,52,64
103922,note_on,,,,,0,0,2,,,,0,60,65
103922,note_on,,,,,0,0,2,,,,0,64,65
103922,note_on,,,,,0,0,2,,,,0,57,65
103922,note_off,,,,,240,0,1,,,,0,48,64
103922,control_change,,,,,0,0,1,,64,0,0,,
103980,set_tempo,,,,,620,1,0,252101,,,,,
104012,note_off,,,,,90,0,2,,,,0,57,64
104012,note_off,,,,,0,0,2,,,,0,64,64
104012,note_off,,,,,0,0,2,,,,0,60,64
104042,note_on,,,,,120,0,1,,,,0,52,89
104042,control_change,,,,,0,0,1,,64,95,0,,
104042,note_on,,,,,0,0,2,,,,0,57,69
104042,note_on,,,,,0,0,2,,,,0,64,69
104042,note_on,,,,,30,0,2,,,,0,60,69
104220,set_tempo,,,,,240,1,0,255319,,,,,
104222,note_off,,,,,0,0,2,,,,0,60,64
104222,note_off,,,,,0,0,2,,,,0,64,64
104222,note_off,,,,,180,0,2,,,,0,57,64
104282,control_change,,,,,240,0,1,,64,0,0,,
104282,note_on,,,,,60,0,2,,,,0,60,77
104282,note_on,,,,,0,0,2,,,,0,64,77
104282,note_on,,,,,0,0,2,,,,0,57,77
104342,note_off,,,,,60,0,1,,,,0,52,64
104360,set_tempo,,,,,140,1,0,260870,,,,,
104372,note_off,,,,,90,0,2,,,,0,57,64
104372,note_off,,,,,0,0,2,,,,0,64,64
104372,note_off,,,,,0,0,2,,,,0,60,64
104402,note_on,,,,,30,0,2,,,,0,52,89
104402,control_change,,,,,0,0,1,,64,96,0,,
104402,note_on,,,,,60,0,1,,,,0,47,104
104560,set_tempo,,,,,200,1,0,266667,,,,,
104582,note_off,,,,,180,0,1,,,,0,47,64
104642,note_on,,,,,0,0,2,,,,0,56,64
104642,note_off,,,,,240,0,2,,,,0,52,64
104642,control_change,,,,,60,0,1,,64,0,0,,
104642,note_on,,,,,0,0,2,,,,0,62,64
104642,note_on,,,,,0,0,2,,,,0,64,64
104680,set_tempo,,,,,120,1,0,273973,,,,,
104720,set_tempo,,,,,40,1,0,275229,,,,,
104732,note_off,,,,,0,0,2,,,,0,64,64
104732,note_off,,,,,0,0,2,,,,0,62,64
104732,note_off,,,,,90,0,2,,,,0,56,64
104760,set_tempo,,,,,40,1,0,289855,,,,,
104762,note_on,,,,,0,0,2,,,,0,56,73
104762,note_on,,,,,0,0,2,,,,0,62,73
104762,note_on,,,,,120,0,1,,,,0,52,92
104762,control_change,,,,,0,0,1,,64,95,0,,
104762,note_on,,,,,30,0,2,,,,0,64,73
104840,set_tempo,,,,,80,1,0,317460,,,,,
104940,set_tempo,,,,,100,1,0,340909,,,,,
104942,note_off,,,,,0,0,2,,,,0,64,64
104942,note_off,,,,,0,0,2,,,,0,62,64
104942,note_off,,,,,180,0,2,,,,0,56,64
104960,set_tempo,,,,,20,1,0,344828,,,,,
104984,set_tempo,,,,,24,1,0,375000,,,,,
105002,note_on,,,,,60,0,2,,,,0,64,65
105002,note_on,,,,,0,0,2,,,,0,56,65
105002,note_on,,,,,0,0,2,,,,0,62,65
105024,set_tempo,,,,,40,1,0,377358,,,,,
105028,control_change,,,,,266,0,1,,64,0,0,,
105044,set_tempo,,,,,20,1,0,379747,,,,,
105062,note_off,,,,,34,0,1,,,,0,52,64
105064,set_tempo,,,,,20,1,0,731707,,,,,
105084,set_tempo,,,,,20,1,0,714286,,,,,
105092,note_off,,,,,90,0,2,,,,0,56,64
105092,note_off,,,,,0,0,2,,,,0,62,64
105092,note_off,,,,,0,0,2,,,,0,64,64
105122,note_on,,,,,0,0,1,,,,0,57,40
105122,note_on,,,,,30,0,2,,,,0,40,70
105122,control_change,,,,,0,0,1,,64,95,0,,
105122,note_on,,,,,60,0,1,,,,0,60,40
105124,set_tempo,,,,,40,1,0,301508,,,,,
105164,set_tempo,,,,,40,1,0,294118,,,,,
105204,set_tempo,,,,,40,1,0,289855,,,,,
105244,set_tempo,,,,,40,1,0,284360,,,,,
105362,note_off,,,,,240,0,1,,,,0,57,64
105362,note_on,,,,,0,0,1,,,,0,64,27
105362,note_on,,,,,0,0,1,,,,0,60,27
105362,note_on,,,,,0,0,1,,,,0,57,27
105362,control_change,,,,,0,0,1,,64,0,0,,
105362,note_off,,,,,0,0,1,,,,0,60,64
105362,note_off,,,,,240,0,2,,,,0,40,64
105364,set_tempo,,,,,120,1,0,280374,,,,,
105384,set_tempo,,,,,20,1,0,277778,,,,,
105452,note_off,,,,,0,0,1,,,,0,64,64
105452,note_off,,,,,0,0,1,,,,0,60,64
105452,note_off,,,,,90,0,1,,,,0,57,64
105482,note_on,,,,,120,0,2,,,,0,33,52
105482,note_on,,,,,0,0,1,,,,0,57,35
105482,note_on,,,,,0,0,1,,,,0,60,35
105482,note_on,,,,,30,0,1,,,,0,64,35
105544,set_tempo,,,,,160,1,0,273973,,,,,
105662,note_off,,,,,180,0,2,,,,0,33,64
105662,note_off,,,,,0,0,1,,,,0,64,64
105662,note_off,,,,,0,0,1,,,,0,60,64
105662,note_off,,,,,180,0,1,,,,0,57,64
105704,set_tempo,,,,,160,1,0,269058,,,,,
105722,note_on,,,,,0,0,1,,,,0,57,32
105722,note_on,,,,,0,0,1,,,,0,60,32
105722,note_on,,,,,60,0,1,,,,0,64,32
105812,note_off,,,,,90,0,1,,,,0,57,64
105812,note_off,,,,,0,0,1,,,,0,60,64
105812,note_off,,,,,0,0,1,,,,0,64,64
105824,set_tempo,,,,,120,1,0,265487,,,,,
105842,note_on,,,,,0,0,1,,,,0,57,42
105842,note_on,,,,,30,0,1,,,,0,64,42
105842,note_on,,,,,0,0,1,,,,0,60,42
105880,set_tempo,,,,,56,1,0,263158,,,,,
105962,note_on,,,,,300,0,2,,,,0,48,54
106082,note_off,,,,,0,0,1,,,,0,60,64
106082,note_on,,,,,0,0,2,,,,0,47,56
106082,note_off,,,,,0,0,1,,,,0,64,64
106082,note_on,,,,,0,0,1,,,,0,65,34
106082,note_on,,,,,0,0,1,,,,0,60,34
106082,note_on,,,,,0,0,1,,,,0,57,34
106082,note_off,,,,,240,0,1,,,,0,57,64
106082,note_off,,,,,120,0,2,,,,0,48,64
106104,set_tempo,,,,,224,1,0,259740,,,,,
106124,set_tempo,,,,,20,1,0,258621,,,,,
106160,set_tempo,,,,,36,1,0,255319,,,,,
106172,note_off,,,,,0,0,1,,,,0,65,64
106172,note_off,,,,,0,0,1,,,,0,60,64
106172,note_off,,,,,90,0,1,,,,0,57,64
106202,note_on,,,,,0,0,2,,,,0,48,61
106202,note_on,,,,,0,0,1,,,,0,57,43
106202,note_on,,,,,0,0,1,,,,0,60,43
106202,note_off,,,,,120,0,2,,,,0,47,64
106202,note_on,,,,,30,0,1,,,,0,65,43
106322,note_on,,,,,0,0,2,,,,0,47,63
106322,note_off,,,,,120,0,2,,,,0,48,64
106382,note_off,,,,,0,0,1,,,,0,60,64
106382,note_off,,,,,180,0,1,,,,0,57,64
106382,note_off,,,,,0,0,1,,,,0,65,64
106442,note_on,,,,,0,0,2,,,,0,45,66
106442,note_off,,,,,120,0,2,,,,0,47,64
106442,note_on,,,,,60,0,1,,,,0,66,40
106442,note_on,,,,,0,0,1,,,,0,60,40
106442,note_on,,,,,0,0,1,,,,0,57,40
106532,note_off,,,,,0,0,1,,,,0,66,64
106532,note_off,,,,,0,0,1,,,,0,60,64
106532,note_off,,,,,90,0,1,,,,0,57,64
106562,note_on,,,,,0,0,1,,,,0,62,52
106562,note_on,,,,,30,0,1,,,,0,69,52
106562,note_on,,,,,0,0,1,,,,0,59,52
106562,note_off,,,,,120,0,2,,,,0,45,64
106562,note_on,,,,,0,0,2,,,,0,43,68
106720,set_tempo,,,,,560,1,0,252101,,,,,
106802,note_on,,,,,0,0,1,,,,0,62,44
106802,note_on,,,,,0,0,1,,,,0,59,44
106802,note_off,,,,,0,0,1,,,,0,69,64
106802,note_on,,,,,0,0,1,,,,0,67,44
106802,note_off,,,,,240,0,1,,,,0,59,64
106802,note_off,,,,,240,0,2,,,,0,43,64
106802,note_off,,,,,0,0,1,,,,0,62,64
106892,note_off,,,,,90,0,1,,,,0,59,64
106892,note_off,,,,,0,0,1,,,,0,67,64
106892,note_off,,,,,0,0,1,,,,0,62,64
106922,note_on,,,,,120,0,2,,,,0,31,56
106922,note_on,,,,,30,0,1,,,,0,67,42
106922,note_on,,,,,0,0,1,,,,0,63,42
106922,note_on,,,,,0,0,1,,,,0,60,42
107060,set_tempo,,,,,340,1,0,246914,,,,,
107102,note_off,,,,,180,0,2,,,,0,31,64
107102,note_off,,,,,0,0,1,,,,0,67,64
107102,note_off,,,,,180,0,1,,,,0,60,64
107102,note_off,,,,,0,0,1,,,,0,63,64
107162,note_on,,,,,0,0,1,,,,0,60,50
107162,note_on,,,,,0,0,1,,,,0,63,50
107162,note_on,,,,,60,0,1,,,,0,67,50
107252,note_off,,,,,0,0,1,,,,0,63,64
107252,note_off,,,,,90,0,1,,,,0,60,64
107252,note_off,,,,,0,0,1,,,,0,67,64
107282,note_on,,,,,180,0,2,,,,0,69,69
107282,note_on,,,,,30,0,1,,,,0,67,57
107282,note_on,,,,,0,0,1,,,,0,64,57
107282,note_on,,,,,0,0,1,,,,0,61,57
107522,note_on,,,,,0,0,1,,,,0,64,52
107522,note_on,,,,,0,0,1,,,,0,61,52
107522,note_on,,,,,0,0,1,,,,0,67,52
107522,note_off,,,,,0,0,1,,,,0,67,64
107522,note_off,,,,,240,0,1,,,,0,61,64
107522,note_off,,,,,0,0,1,,,,0,64,64
107522,note_off,,,,,240,0,2,,,,0,69,64
107612,note_off,,,,,90,0,1,,,,0,61,64
107612,note_off,,,,,0,0,1,,,,0,64,64
107612,note_off,,,,,0,0,1,,,,0,67,64
107642,note_on,,,,,0,0,1,,,,0,65,46
107642,note_on,,,,,120,0,2,,,,0,79,61
107642,note_on,,,,,0,0,2,,,,0,71,61
107642,note_on,,,,,30,0,1,,,,0,67,46
107642,note_on,,,,,0,0,1,,,,0,62,46
107822,note_off,,,,,0,0,1,,,,0,65,64
107822,note_off,,,,,0,0,1,,,,0,67,64
107822,note_off,,,,,180,0,2,,,,0,71,64
107822,note_off,,,,,0,0,2,,,,0,79,64
107822,note_off,,,,,180,0,1,,,,0,62,64
107840,set_tempo,,,,,780,1,0,243902,,,,,
107882,note_on,,,,,0,0,1,,,,0,65,42
107882,note_on,,,,,0,0,1,,,,0,62,42
107882,note_on,,,,,60,0,1,,,,0,67,42
107972,note_off,,,,,0,0,1,,,,0,67,64
107972,note_off,,,,,0,0,1,,,,0,65,64
107972,note_off,,,,,90,0,1,,,,0,62,64
108002,note_on,,,,,0,0,1,,,,0,64,40
108002,note_on,,,,,30,0,1,,,,0,67,40
108002,note_on,,,,,180,0,2,,,,0,43,85
108002,control_change,,,,,0,0,1,,64,95,0,,
108160,set_tempo,,,,,320,1,0,240964,,,,,
108242,note_on,,,,,0,0,1,,,,0,67,49
108242,note_off,,,,,240,0,2,,,,0,43,64
108242,note_on,,,,,0,0,1,,,,0,72,49
108242,note_off,,,,,240,0,1,,,,0,64,64
108242,note_off,,,,,0,0,1,,,,0,67,64
108242,control_change,,,,,0,0,1,,64,0,0,,
108242,note_on,,,,,0,0,1,,,,0,64,49
108332,note_off,,,,,0,0,1,,,,0,72,64
108332,note_off,,,,,90,0,1,,,,0,64,64
108332,note_off,,,,,0,0,1,,,,0,67,64
108362,note_on,,,,,30,0,1,,,,0,72,52
108362,note_on,,,,,0,0,1,,,,0,67,52
108362,note_on,,,,,120,0,2,,,,0,36,69
108362,note_on,,,,,0,0,1,,,,0,64,52
108542,note_off,,,,,180,0,1,,,,0,64,64
108542,note_off,,,,,0,0,1,,,,0,67,64
108542,note_off,,,,,0,0,1,,,,0,72,64
108542,note_off,,,,,180,0,2,,,,0,36,64
108602,note_on,,,,,0,0,1,,,,0,64,46
108602,note_on,,,,,0,0,1,,,,0,67,46
108602,note_on,,,,,60,0,1,,,,0,72,46
108692,note_off,,,,,0,0,1,,,,0,72,64
108692,note_off,,,,,0,0,1,,,,0,67,64
108692,note_off,,,,,90,0,1,,,,0,64,64
108722,note_on,,,,,0,0,1,,,,0,67,59
108722,note_on,,,,,0,0,1,,,,0,64,59
108722,note_on,,,,,30,0,1,,,,0,71,59
108842,note_on,,,,,300,0,2,,,,0,52,76
108962,note_off,,,,,120,0,2,,,,0,52,64
108962,note_on,,,,,0,0,2,,,,0,51,81
108962,note_on,,,,,0,0,1,,,,0,67,52
108962,note_off,,,,,0,0,1,,,,0,67,64
108962,note_off,,,,,0,0,1,,,,0,71,64
108962,note_on,,,,,0,0,1,,,,0,72,52
108962,note_on,,,,,0,0,1,,,,0,64,52
108962,note_off,,,,,240,0,1,,,,0,64,64
109052,note_off,,,,,90,0,1,,,,0,64,64
109052,note_off,,,,,0,0,1,,,,0,72,64
109052,note_off,,,,,0,0,1,,,,0,67,64
109082,note_off,,,,,120,0,2,,,,0,51,64
109082,note_on,,,,,0,0,2,,,,0,52,86
109082,note_on,,,,,30,0,1,,,,0,72,66
109082,note_on,,,,,0,0,1,,,,0,67,66
109082,note_on,,,,,0,0,1,,,,0,64,66
109202,note_on,,,,,0,0,2,,,,0,50,89
109202,note_off,,,,,120,0,2,,,,0,52,64
109262,note_off,,,,,180,0,1,,,,0,64,64
109262,note_off,,,,,0,0,1,,,,0,67,64
109262,note_off,,,,,0,0,1,,,,0,72,64
109322,note_off,,,,,120,0,2,,,,0,50,64
109322,note_on,,,,,0,0,2,,,,0,48,95
109322,note_on,,,,,0,0,1,,,,0,64,66
109322,note_on,,,,,0,0,1,,,,0,67,66
109322,note_on,,,,,60,0,1,,,,0,72,66
109412,note_off,,,,,0,0,1,,,,0,72,64
109412,note_off,,,,,90,0,1,,,,0,64,64
109412,note_off,,,,,0,0,1,,,,0,67,64
109442,note_on,,,,,0,0,2,,,,0,47,99
109442,note_off,,,,,120,0,2,,,,0,48,64
109442,note_on,,,,,30,0,1,,,,0,76,71
109442,note_on,,,,,0,0,1,,,,0,69,71
109442,note_on,,,,,0,0,1,,,,0,65,71
109560,set_tempo,,,,,1400,1,0,242915,,,,,
109682,note_off,,,,,240,0,1,,,,0,65,64
109682,note_off,,,,,0,0,1,,,,0,69,64
109682,note_off,,,,,0,0,1,,,,0,76,64
109682,note_on,,,,,0,0,1,,,,0,74,62
109682,note_on,,,,,0,0,1,,,,0,69,62
109682,note_on,,,,,0,0,1,,,,0,65,62
109682,note_off,,,,,240,0,2,,,,0,47,64
109772,note_off,,,,,90,0,1,,,,0,65,64
109772,note_off,,,,,0,0,1,,,,0,69,64
109772,note_off,,,,,0,0,1,,,,0,74,64
109802,note_on,,,,,0,0,1,,,,0,69,55
109802,note_on,,,,,0,0,1,,,,0,66,55
109802,note_on,,,,,120,0,2,,,,0,40,81
109802,note_on,,,,,30,0,1,,,,0,74,55
109880,set_tempo,,,,,320,1,0,246914,,,,,
109982,note_off,,,,,0,0,1,,,,0,74,64
109982,note_off,,,,,180,0,1,,,,0,66,64
109982,note_off,,,,,0,0,1,,,,0,69,64
109982,note_off,,,,,180,0,2,,,,0,40,64
110042,note_on,,,,,60,0,1,,,,0,74,58
110042,note_on,,,,,0,0,1,,,,0,69,58
110042,note_on,,,,,0,0,1,,,,0,66,58
110132,note_off,,,,,90,0,1,,,,0,66,64
110132,note_off,,,,,0,0,1,,,,0,69,64
110132,note_off,,,,,0,0,1,,,,0,74,64
110162,note_on,,,,,30,0,1,,,,0,74,63
110162,note_on,,,,,0,0,1,,,,0,70,63
110162,note_on,,,,,0,0,1,,,,0,67,63
110162,note_on,,,,,180,0,2,,,,0,64,86
110402,note_on,,,,,0,0,1,,,,0,74,56
110402,note_off,,,,,240,0,1,,,,0,67,64
110402,note_off,,,,,0,0,1,,,,0,70,64
110402,note_off,,,,,0,0,1,,,,0,74,64
110402,note_on,,,,,0,0,1,,,,0,70,56
110402,note_on,,,,,0,0,1,,,,0,67,56
110402,note_off,,,,,240,0,2,,,,0,64,64
110492,note_off,,,,,90,0,1,,,,0,67,64
110492,note_off,,,,,0,0,1,,,,0,70,64
110492,note_off,,,,,0,0,1,,,,0,74,64
110520,set_tempo,,,,,640,1,0,250000,,,,,
110522,note_on,,,,,30,0,1,,,,0,74,54
110522,note_on,,,,,0,0,1,,,,0,71,54
110522,note_on,,,,,0,0,1,,,,0,68,54
110522,note_on,,,,,120,0,2,,,,0,76,68
110702,note_off,,,,,180,0,1,,,,0,68,64
110702,note_off,,,,,180,0,2,,,,0,76,64
110702,note_off,,,,,0,0,1,,,,0,71,64
110702,note_off,,,,,0,0,1,,,,0,74,64
110762,note_on,,,,,0,0,1,,,,0,68,49
110762,note_on,,,,,60,0,1,,,,0,74,49
110762,note_on,,,,,0,0,1,,,,0,71,49
110852,note_off,,,,,90,0,1,,,,0,68,64
110852,note_off,,,,,0,0,1,,,,0,71,64
110852,note_off,,,,,0,0,1,,,,0,74,64
110882,note_on,,,,,180,0,2,,,,0,57,49
110882,control_change,,,,,0,0,1,,64,95,0,,
110882,note_on,,,,,30,0,1,,,,0,72,40
110882,note_on,,,,,0,0,1,,,,0,69,40
111060,set_tempo,,,,,540,1,0,248963,,,,,
111080,set_tempo,,,,,20,1,0,247934,,,,,
111114,control_change,,,,,232,0,1,,64,0,0,,
111122,note_off,,,,,8,0,1,,,,0,69,64
111122,note_off,,,,,0,0,1,,,,0,72,64
111122,note_on,,,,,0,0,1,,,,0,77,35
111122,note_on,,,,,0,0,1,,,,0,72,35
111122,note_on,,,,,0,0,1,,,,0,69,35
111122,note_off,,,,,240,0,2,,,,0,57,64
111212,note_off,,,,,90,0,1,,,,0,69,64
111212,note_off,,,,,0,0,1,,,,0,72,64
111212,note_off,,,,,0,0,1,,,,0,77,64
111242,note_on,,,,,120,0,2,,,,0,81,50
111242,note_on,,,,,0,0,1,,,,0,72,32
111242,note_on,,,,,0,0,1,,,,0,69,32
111242,note_on,,,,,30,0,1,,,,0,76,32
111300,set_tempo,,,,,220,1,0,245902,,,,,
111362,note_on,,,,,0,0,2,,,,0,83,54
111362,note_off,,,,,120,0,2,,,,0,81,64
111422,note_off,,,,,180,0,1,,,,0,69,64
111422,note_off,,,,,0,0,1,,,,0,76,64
111422,note_off,,,,,0,0,1,,,,0,72,64
111480,set_tempo,,,,,180,1,0,242915,,,,,
111482,note_off,,,,,120,0,2,,,,0,83,64
111482,note_on,,,,,60,0,1,,,,0,76,41
111482,note_on,,,,,0,0,1,,,,0,72,41
111482,note_on,,,,,0,0,2,,,,0,84,56
111482,note_on,,,,,0,0,1,,,,0,69,41
111572,note_off,,,,,0,0,1,,,,0,72,64
111572,note_off,,,,,0,0,1,,,,0,76,64
111572,note_off,,,,,90,0,1,,,,0,69,64
111602,note_off,,,,,120,0,2,,,,0,84,64
111602,note_on,,,,,30,0,1,,,,0,81,45
111602,note_on,,,,,0,0,1,,,,0,77,45
111602,note_on,,,,,0,0,1,,,,0,71,45
111602,control_change,,,,,0,0,1,,64,95,0,,
111602,note_on,,,,,0,0,2,,,,0,86,62
111834,control_change,,,,,232,0,1,,64,0,0,,
111842,note_off,,,,,0,0,1,,,,0,77,64
111842,note_off,,,,,240,0,2,,,,0,86,64
111842,note_off,,,,,0,0,1,,,,0,81,64
111842,note_off,,,,,8,0,1,,,,0,71,64
111842,note_on,,,,,0,0,1,,,,0,77,36
111842,note_on,,,,,0,0,1,,,,0,71,36
111842,note_on,,,,,0,0,1,,,,0,81,36
111932,note_off,,,,,90,0,1,,,,0,71,64
111932,note_off,,,,,0,0,1,,,,0,77,64
111932,note_off,,,,,0,0,1,,,,0,81,64
111962,note_on,,,,,30,0,1,,,,0,79,41
111962,note_on,,,,,120,0,2,,,,0,55,46
111962,control_change,,,,,0,0,1,,64,95,0,,
111962,note_on,,,,,0,0,1,,,,0,71,41
111962,note_on,,,,,0,0,1,,,,0,77,41
112060,set_tempo,,,,,580,1,0,246914,,,,,
112142,note_off,,,,,0,0,1,,,,0,77,64
112142,note_off,,,,,180,0,1,,,,0,71,64
112142,note_off,,,,,0,0,1,,,,0,79,64
112202,note_off,,,,,240,0,2,,,,0,55,64
112202,note_on,,,,,60,0,1,,,,0,79,30
112202,note_on,,,,,0,0,1,,,,0,77,30
112202,note_on,,,,,0,0,1,,,,0,71,30
112202,control_change,,,,,0,0,1,,64,0,0,,
112240,set_tempo,,,,,180,1,0,248963,,,,,
112292,note_off,,,,,90,0,1,,,,0,71,64
112292,note_off,,,,,0,0,1,,,,0,77,64
112292,note_off,,,,,0,0,1,,,,0,79,64
112322,control_change,,,,,0,0,1,,64,95,0,,
112322,note_on,,,,,120,0,2,,,,0,57,49
112322,note_on,,,,,0,0,1,,,,0,69,40
112322,note_on,,,,,30,0,1,,,,0,72,40
112554,control_change,,,,,232,0,1,,64,0,0,,
112560,note_on,,,,,6,0,1,,,,0,77,35
112562,note_off,,,,,240,0,2,,,,0,57,64
112562,note_on,,,,,0,0,1,,,,0,69,35
112562,note_on,,,,,0,0,1,,,,0,72,35
112562,note_off,,,,,2,0,1,,,,0,69,64
112562,note_off,,,,,0,0,1,,,,0,72,64
112620,set_tempo,,,,,380,1,0,246914,,,,,
112650,note_off,,,,,88,0,1,,,,0,77,64
112652,note_off,,,,,2,0,1,,,,0,69,64
112652,note_off,,,,,0,0,1,,,,0,72,64
112682,note_on,,,,,30,0,1,,,,0,76,32
112682,note_on,,,,,0,0,1,,,,0,69,32
112682,note_on,,,,,0,0,1,,,,0,72,32
112682,note_on,,,,,120,0,2,,,,0,81,50
112800,set_tempo,,,,,180,1,0,243902,,,,,
112802,note_off,,,,,120,0,2,,,,0,81,64
112802,note_on,,,,,0,0,2,,,,0,83,54
112862,note_off,,,,,180,0,1,,,,0,69,64
112862,note_off,,,,,0,0,1,,,,0,76,64
112862,note_off,,,,,0,0,1,,,,0,72,64
112922,note_on,,,,,60,0,1,,,,0,76,41
112922,note_on,,,,,0,0,1,,,,0,72,41
112922,note_on,,,,,0,0,1,,,,0,69,41
112922,note_off,,,,,120,0,2,,,,0,83,64
112922,note_on,,,,,0,0,2,,,,0,84,56
113012,note_off,,,,,0,0,1,,,,0,76,64
113012,note_off,,,,,0,0,1,,,,0,72,64
113012,note_off,,,,,90,0,1,,,,0,69,64
113042,note_on,,,,,30,0,1,,,,0,81,45
113042,note_on,,,,,0,0,2,,,,0,86,62
113042,note_off,,,,,120,0,2,,,,0,84,64
113042,control_change,,,,,0,0,1,,64,95,0,,
113042,note_on,,,,,0,0,1,,,,0,71,45
113042,note_on,,,,,0,0,1,,,,0,77,45
113220,set_tempo,,,,,420,1,0,245902,,,,,
113274,control_change,,,,,232,0,1,,64,0,0,,
113282,note_off,,,,,240,0,2,,,,0,86,64
113282,note_on,,,,,0,0,1,,,,0,71,36
113282,note_off,,,,,8,0,1,,,,0,71,64
113282,note_off,,,,,0,0,1,,,,0,77,64
113282,note_on,,,,,0,0,1,,,,0,81,36
113282,note_on,,,,,0,0,1,,,,0,77,36
113282,note_off,,,,,0,0,1,,,,0,81,64
113360,set_tempo,,,,,140,1,0,248963,,,,,
113372,note_off,,,,,0,0,1,,,,0,81,64
113372,note_off,,,,,0,0,1,,,,0,77,64
113372,note_off,,,,,90,0,1,,,,0,71,64
113402,note_on,,,,,120,0,2,,,,0,55,46
113402,note_on,,,,,0,0,1,,,,0,71,41
113402,control_change,,,,,0,0,1,,64,95,0,,
113402,note_on,,,,,0,0,1,,,,0,77,41
113402,note_on,,,,,30,0,1,,,,0,79,41
113540,set_tempo,,,,,180,1,0,252101,,,,,
113582,note_off,,,,,180,0,1,,,,0,71,64
113582,note_off,,,,,0,0,1,,,,0,79,64
113582,note_off,,,,,0,0,1,,,,0,77,64
113642,note_on,,,,,60,0,1,,,,0,79,30
113642,control_change,,,,,0,0,1,,64,0,0,,
113642,note_on,,,,,0,0,1,,,,0,71,30
113642,note_off,,,,,240,0,2,,,,0,55,64
113642,note_on,,,,,0,0,1,,,,0,77,30
113732,note_off,,,,,0,0,1,,,,0,77,64
113732,note_off,,,,,0,0,1,,,,0,79,64
113732,note_off,,,,,90,0,1,,,,0,71,64
113762,note_on,,,,,120,0,2,,,,0,43,85
113762,note_on,,,,,30,0,1,,,,0,63,40
113762,note_on,,,,,0,0,1,,,,0,60,40
113762,control_change,,,,,0,0,1,,64,95,0,,
114002,note_on,,,,,0,0,1,,,,0,63,49
114002,note_off,,,,,240,0,1,,,,0,60,64
114002,note_on,,,,,0,0,1,,,,0,60,49
114002,note_off,,,,,240,0,2,,,,0,43,64
114002,control_change,,,,,0,0,1,,64,0,0,,
114002,note_off,,,,,0,0,1,,,,0,63,64
114002,note_on,,,,,0,0,1,,,,0,67,49
114092,note_off,,,,,90,0,1,,,,0,60,64
114092,note_off,,,,,0,0,1,,,,0,63,64
114092,note_off,,,,,0,0,1,,,,0,67,64
114122,note_on,,,,,0,0,1,,,,0,60,52
114122,note_on,,,,,30,0,1,,,,0,67,52
114122,note_on,,,,,120,0,2,,,,0,36,69
114122,note_on,,,,,0,0,1,,,,0,63,52
114302,note_off,,,,,180,0,1,,,,0,60,64
114302,note_off,,,,,0,0,1,,,,0,63,64
114302,note_off,,,,,0,0,1,,,,0,67,64
114302,note_off,,,,,180,0,2,,,,0,36,64
114362,note_on,,,,,60,0,1,,,,0,67,46
114362,note_on,,,,,0,0,1,,,,0,63,46
114362,note_on,,,,,0,0,1,,,,0,60,46
114452,note_off,,,,,90,0,1,,,,0,60,64
114452,note_off,,,,,0,0,1,,,,0,67,64
114452,note_off,,,,,0,0,1,,,,0,63,64
114482,note_on,,,,,0,0,1,,,,0,63,59
114482,note_on,,,,,0,0,1,,,,0,60,59
114482,note_on,,,,,30,0,1,,,,0,67,59
114602,note_on,,,,,300,0,2,,,,0,51,76
114640,set_tempo,,,,,1100,1,0,247934,,,,,
114722,note_off,,,,,240,0,1,,,,0,60,64
114722,note_off,,,,,0,0,1,,,,0,63,64
114722,note_off,,,,,0,0,1,,,,0,67,64
114722,note_off,,,,,120,0,2,,,,0,51,64
114722,note_on,,,,,0,0,1,,,,0,68,52
114722,note_on,,,,,0,0,1,,,,0,63,52
114722,note_on,,,,,0,0,1,,,,0,60,52
114722,note_on,,,,,0,0,2,,,,0,50,81
114812,note_off,,,,,0,0,1,,,,0,68,64
114812,note_off,,,,,0,0,1,,,,0,63,64
114812,note_off,,,,,90,0,1,,,,0,60,64
114842,note_on,,,,,0,0,2,,,,0,51,86
114842,note_off,,,,,120,0,2,,,,0,50,64
114842,note_on,,,,,30,0,1,,,,0,68,66
114842,note_on,,,,,0,0,1,,,,0,63,66
114842,note_on,,,,,0,0,1,,,,0,60,66
114962,note_off,,,,,120,0,2,,,,0,51,64
114962,note_on,,,,,0,0,2,,,,0,50,89
115022,note_off,,,,,180,0,1,,,,0,60,64
115022,note_off,,,,,0,0,1,,,,0,63,64
115022,note_off,,,,,0,0,1,,,,0,68,64
115082,note_off,,,,,120,0,2,,,,0,50,64
115082,note_on,,,,,0,0,2,,,,0,48,95
115082,note_on,,,,,60,0,1,,,,0,69,66
115082,note_on,,,,,0,0,1,,,,0,63,66
115082,note_on,,,,,0,0,1,,,,0,60,66
115172,note_off,,,,,90,0,1,,,,0,60,64
115172,note_off,,,,,0,0,1,,,,0,63,64
115172,note_off,,,,,0,0,1,,,,0,69,64
115200,set_tempo,,,,,560,1,0,243902,,,,,
115202,note_on,,,,,0,0,2,,,,0,46,99
115202,note_off,,,,,120,0,2,,,,0,48,64
115202,note_on,,,,,0,0,1,,,,0,62,71
115202,note_on,,,,,0,0,1,,,,0,65,71
115202,note_on,,,,,30,0,1,,,,0,72,71
115442,note_off,,,,,240,0,1,,,,0,62,64
115442,note_off,,,,,0,0,1,,,,0,65,64
115442,note_off,,,,,0,0,1,,,,0,72,64
115442,note_on,,,,,0,0,1,,,,0,70,59
115442,note_on,,,,,0,0,1,,,,0,65,59
115442,note_on,,,,,0,0,1,,,,0,62,59
115442,note_off,,,,,240,0,2,,,,0,46,64
115532,note_off,,,,,90,0,1,,,,0,62,64
115532,note_off,,,,,0,0,1,,,,0,65,64
115532,note_off,,,,,0,0,1,,,,0,70,64
115562,note_on,,,,,0,0,1,,,,0,66,62
115562,note_on,,,,,0,0,1,,,,0,63,62
115562,note_on,,,,,120,0,2,,,,0,34,89
115562,note_on,,,,,30,0,1,,,,0,70,62
115742,note_off,,,,,180,0,2,,,,0,34,64
115742,note_off,,,,,180,0,1,,,,0,63,64
115742,note_off,,,,,0,0,1,,,,0,66,64
115742,note_off,,,,,0,0,1,,,,0,70,64
115802,note_on,,,,,60,0,1,,,,0,70,69
115802,note_on,,,,,0,0,1,,,,0,63,69
115802,note_on,,,,,0,0,1,,,,0,66,69
115892,note_off,,,,,0,0,1,,,,0,70,64
115892,note_off,,,,,0,0,1,,,,0,66,64
115892,note_off,,,,,90,0,1,,,,0,63,64
115922,note_on,,,,,0,0,1,,,,0,64,72
115922,note_on,,,,,0,0,1,,,,0,67,72
115922,note_on,,,,,30,0,1,,,,0,70,72
115922,note_on,,,,,180,0,2,,,,0,72,95
115960,set_tempo,,,,,760,1,0,240964,,,,,
115980,set_tempo,,,,,20,1,0,240000,,,,,
116162,note_off,,,,,0,0,1,,,,0,67,64
116162,note_off,,,,,240,0,2,,,,0,72,64
116162,note_on,,,,,0,0,1,,,,0,64,76
116162,note_off,,,,,240,0,1,,,,0,64,64
116162,note_on,,,,,0,0,1,,,,0,70,76
116162,note_on,,,,,0,0,1,,,,0,67,76
116162,note_off,,,,,0,0,1,,,,0,70,64
116252,note_off,,,,,90,0,1,,,,0,64,64
116252,note_off,,,,,0,0,1,,,,0,67,64
116252,note_off,,,,,0,0,1,,,,0,70,64
116282,note_on,,,,,120,0,2,,,,0,74,102
116282,note_on,,,,,0,0,2,,,,0,82,102
116282,note_on,,,,,0,0,1,,,,0,65,77
116282,note_on,,,,,0,0,1,,,,0,68,77
116282,note_on,,,,,30,0,1,,,,0,70,77
116424,set_tempo,,,,,444,1,0,237154,,,,,
116462,note_off,,,,,180,0,1,,,,0,65,64
116462,note_off,,,,,0,0,1,,,,0,68,64
116462,note_off,,,,,0,0,1,,,,0,70,64
116462,note_off,,,,,0,0,2,,,,0,74,64
116462,note_off,,,,,180,0,2,,,,0,82,64
116522,note_on,,,,,60,0,1,,,,0,70,84
116522,note_on,,,,,0,0,1,,,,0,68,84
116522,note_on,,,,,0,0,1,,,,0,65,84
116612,note_off,,,,,90,0,1,,,,0,65,64
116612,note_off,,,,,0,0,1,,,,0,68,64
116612,note_off,,,,,0,0,1,,,,0,70,64
116642,control_change,,,,,0,0,1,,64,95,0,,
116642,note_on,,,,,180,0,2,,,,0,46,105
116642,note_on,,,,,0,0,1,,,,0,67,92
116642,note_on,,,,,30,0,1,,,,0,70,92
116882,note_off,,,,,240,0,1,,,,0,67,64
116882,note_off,,,,,0,0,1,,,,0,70,64
116882,note_on,,,,,0,0,1,,,,0,75,70
116882,note_on,,,,,0,0,1,,,,0,70,70
116882,note_on,,,,,0,0,1,,,,0,67,70
116882,control_change,,,,,0,0,1,,64,0,0,,
116882,note_off,,,,,240,0,2,,,,0,46,64
116972,note_off,,,,,0,0,1,,,,0,75,64
116972,note_off,,,,,0,0,1,,,,0,70,64
116972,note_off,,,,,90,0,1,,,,0,67,64
117002,note_on,,,,,30,0,1,,,,0,75,80
117002,note_on,,,,,120,0,2,,,,0,39,95
117002,note_on,,,,,0,0,1,,,,0,67,80
117002,note_on,,,,,0,0,1,,,,0,70,80
117182,note_off,,,,,180,0,2,,,,0,39,64
117182,note_off,,,,,180,0,1,,,,0,67,64
117182,note_off,,,,,0,0,1,,,,0,70,64
117182,note_off,,,,,0,0,1,,,,0,75,64
117242,note_on,,,,,60,0,1,,,,0,75,86
117242,note_on,,,,,0,0,1,,,,0,70,86
117242,note_on,,,,,0,0,1,,,,0,67,86
117332,note_off,,,,,0,0,1,,,,0,70,64
117332,note_off,,,,,0,0,1,,,,0,75,64
117332,note_off,,,,,90,0,1,,,,0,67,64
117362,note_on,,,,,30,0,1,,,,0,74,90
117362,note_on,,,,,0,0,1,,,,0,70,90
117362,note_on,,,,,0,0,1,,,,0,67,90
117482,note_on,,,,,300,0,2,,,,0,55,93
117602,note_on,,,,,0,0,2,,,,0,54,96
117602,note_off,,,,,120,0,2,,,,0,55,64
117602,note_on,,,,,0,0,1,,,,0,67,86
117602,note_off,,,,,240,0,1,,,,0,67,64
117602,note_on,,,,,0,0,1,,,,0,70,86
117602,note_on,,,,,0,0,1,,,,0,75,86
117602,note_off,,,,,0,0,1,,,,0,74,64
117602,note_off,,,,,0,0,1,,,,0,70,64
117692,note_off,,,,,0,0,1,,,,0,75,64
117692,note_off,,,,,0,0,1,,,,0,70,64
117692,note_off,,,,,90,0,1,,,,0,67,64
117722,note_off,,,,,120,0,2,,,,0,54,64
117722,note_on,,,,,0,0,2,,,,0,55,98
117722,note_on,,,,,30,0,1,,,,0,75,94
117722,note_on,,,,,0,0,1,,,,0,67,94
117722,note_on,,,,,0,0,1,,,,0,70,94
117842,note_on,,,,,0,0,2,,,,0,53,100
117842,note_off,,,,,120,0,2,,,,0,55,64
117902,note_off,,,,,180,0,1,,,,0,67,64
117902,note_off,,,,,0,0,1,,,,0,75,64
117902,note_off,,,,,0,0,1,,,,0,70,64
117962,note_on,,,,,0,0,1,,,,0,67,86
117962,note_off,,,,,120,0,2,,,,0,53,64
117962,note_on,,,,,60,0,1,,,,0,75,86
117962,note_on,,,,,0,0,1,,,,0,70,86
117962,note_on,,,,,0,0,2,,,,0,51,102
118052,note_off,,,,,90,0,1,,,,0,67,64
118052,note_off,,,,,0,0,1,,,,0,70,64
118052,note_off,,,,,0,0,1,,,,0,75,64
118082,note_on,,,,,0,0,1,,,,0,72,95
118082,note_on,,,,,0,0,1,,,,0,68,95
118082,note_on,,,,,30,0,1,,,,0,79,95
118082,note_off,,,,,120,0,2,,,,0,51,64
118082,note_on,,,,,0,0,2,,,,0,50,105
118322,note_off,,,,,240,0,2,,,,0,50,64
118322,note_off,,,,,240,0,1,,,,0,68,64
118322,note_off,,,,,0,0,1,,,,0,72,64
118322,note_off,,,,,0,0,1,,,,0,79,64
118322,note_on,,,,,0,0,1,,,,0,77,77
118322,note_on,,,,,0,0,1,,,,0,72,77
118322,note_on,,,,,0,0,1,,,,0,68,77
118412,note_off,,,,,0,0,1,,,,0,72,64
118412,note_off,,,,,90,0,1,,,,0,68,64
118412,note_off,,,,,0,0,1,,,,0,77,64
118442,note_on,,,,,30,0,1,,,,0,77,83
118442,note_on,,,,,120,0,2,,,,0,43,88
118442,note_on,,,,,0,0,1,,,,0,72,83
118442,note_on,,,,,0,0,1,,,,0,69,83
118480,set_tempo,,,,,2056,1,0,240000,,,,,
118622,note_off,,,,,180,0,2,,,,0,43,64
118622,note_off,,,,,180,0,1,,,,0,69,64
118622,note_off,,,,,0,0,1,,,,0,72,64
118622,note_off,,,,,0,0,1,,,,0,77,64
118682,note_on,,,,,0,0,1,,,,0,69,81
118682,note_on,,,,,60,0,1,,,,0,77,81
118682,note_on,,,,,0,0,1,,,,0,72,81
118772,note_off,,,,,0,0,1,,,,0,77,64
118772,note_off,,,,,0,0,1,,,,0,72,64
118772,note_off,,,,,90,0,1,,,,0,69,64
118802,note_on,,,,,180,0,2,,,,0,67,86
118802,note_on,,,,,30,0,1,,,,0,77,78
118802,note_on,,,,,0,0,1,,,,0,73,78
118802,note_on,,,,,0,0,1,,,,0,70,78
118820,set_tempo,,,,,340,1,0,243902,,,,,
119042,note_on,,,,,0,0,1,,,,0,70,63
119042,note_on,,,,,0,0,1,,,,0,73,63
119042,note_on,,,,,0,0,1,,,,0,77,63
119042,note_off,,,,,0,0,1,,,,0,77,64
119042,note_off,,,,,0,0,1,,,,0,73,64
119042,note_off,,,,,240,0,1,,,,0,70,64
119042,note_off,,,,,240,0,2,,,,0,67,64
119060,set_tempo,,,,,240,1,0,246914,,,,,
119080,set_tempo,,,,,20,1,0,247934,,,,,
119132,note_off,,,,,90,0,1,,,,0,70,64
119132,note_off,,,,,0,0,1,,,,0,73,64
119132,note_off,,,,,0,0,1,,,,0,77,64
119162,note_on,,,,,120,0,2,,,,0,79,68
119162,note_on,,,,,0,0,1,,,,0,74,68
119162,note_on,,,,,30,0,1,,,,0,77,68
119162,note_on,,,,,0,0,1,,,,0,71,68
119260,set_tempo,,,,,180,1,0,252101,,,,,
119342,note_off,,,,,180,0,1,,,,0,71,64
119342,note_off,,,,,0,0,1,,,,0,74,64
119342,note_off,,,,,0,0,1,,,,0,77,64
119342,note_off,,,,,180,0,2,,,,0,79,64
119402,note_on,,,,,60,0,1,,,,0,77,56
119402,note_on,,,,,0,0,1,,,,0,71,56
119402,note_on,,,,,0,0,1,,,,0,74,56
119492,note_off,,,,,90,0,1,,,,0,71,64
119492,note_off,,,,,0,0,1,,,,0,77,64
119492,note_off,,,,,0,0,1,,,,0,74,64
119522,note_on,,,,,30,0,1,,,,0,75,56
119522,note_on,,,,,0,0,1,,,,0,72,56
119522,control_change,,,,,0,0,1,,64,95,0,,
119522,note_on,,,,,180,0,2,,,,0,39,60
119660,set_tempo,,,,,400,1,0,248963,,,,,
119754,control_change,,,,,232,0,1,,64,0,0,,
119762,note_off,,,,,240,0,2,,,,0,39,64
119762,note_on,,,,,0,0,1,,,,0,72,48
119762,note_on,,,,,0,0,1,,,,0,80,48
119762,note_off,,,,,0,0,1,,,,0,75,64
119762,note_off,,,,,8,0,1,,,,0,72,64
119762,note_on,,,,,0,0,1,,,,0,75,48
119820,set_tempo,,,,,160,1,0,246914,,,,,
119852,note_off,,,,,0,0,1,,,,0,80,64
119852,note_off,,,,,0,0,1,,,,0,75,64
119852,note_off,,,,,90,0,1,,,,0,72,64
119882,note_on,,,,,0,0,1,,,,0,72,46
119882,note_on,,,,,30,0,1,,,,0,79,46
119882,note_on,,,,,120,0,2,,,,0,63,50
119882,note_on,,,,,0,0,1,,,,0,75,46
120002,note_off,,,,,120,0,2,,,,0,63,64
120002,note_on,,,,,0,0,2,,,,0,65,54
120040,set_tempo,,,,,220,1,0,243902,,,,,
120062,note_off,,,,,0,0,1,,,,0,75,64
120062,note_off,,,,,0,0,1,,,,0,79,64
120062,note_off,,,,,180,0,1,,,,0,72,64
120122,note_on,,,,,60,0,1,,,,0,79,41
120122,note_on,,,,,0,0,1,,,,0,72,41
120122,note_on,,,,,0,0,1,,,,0,75,41
120122,note_off,,,,,120,0,2,,,,0,65,64
120122,note_on,,,,,0,0,2,,,,0,67,56
120180,set_tempo,,,,,140,1,0,242915,,,,,
120212,note_off,,,,,0,0,1,,,,0,79,64
120212,note_off,,,,,90,0,1,,,,0,72,64
120212,note_off,,,,,0,0,1,,,,0,75,64
120242,control_change,,,,,0,0,1,,64,95,0,,
120242,note_on,,,,,0,0,1,,,,0,74,45
120242,note_on,,,,,0,0,1,,,,0,80,45
120242,note_on,,,,,30,0,1,,,,0,84,45
120242,note_on,,,,,0,0,2,,,,0,68,62
120242,note_off,,,,,120,0,2,,,,0,67,64
120474,control_change,,,,,232,0,1,,64,0,0,,
120482,note_on,,,,,0,0,1,,,,0,80,36
120482,note_off,,,,,240,0,2,,,,0,68,64
120482,note_off,,,,,8,0,1,,,,0,74,64
120482,note_off,,,,,0,0,1,,,,0,80,64
120482,note_off,,,,,0,0,1,,,,0,84,64
120482,note_on,,,,,0,0,1,,,,0,84,36
120482,note_on,,,,,0,0,1,,,,0,74,36
120560,set_tempo,,,,,380,1,0,245902,,,,,
120572,note_off,,,,,0,0,1,,,,0,84,64
120572,note_off,,,,,0,0,1,,,,0,80,64
120572,note_off,,,,,90,0,1,,,,0,74,64
120602,note_on,,,,,30,0,1,,,,0,82,41
120602,note_on,,,,,0,0,1,,,,0,80,41
120602,note_on,,,,,0,0,1,,,,0,74,41
120602,control_change,,,,,0,0,1,,64,95,0,,
120602,note_on,,,,,120,0,2,,,,0,38,56
120720,set_tempo,,,,,160,1,0,248963,,,,,
120782,note_off,,,,,0,0,1,,,,0,82,64
120782,note_off,,,,,180,0,1,,,,0,74,64
120782,note_off,,,,,0,0,1,,,,0,80,64
120842,note_on,,,,,60,0,1,,,,0,82,30
120842,note_on,,,,,0,0,1,,,,0,80,30
120842,note_on,,,,,0,0,1,,,,0,74,30
120842,control_change,,,,,0,0,1,,64,0,0,,
120842,note_off,,,,,240,0,2,,,,0,38,64
120932,note_off,,,,,90,0,1,,,,0,74,64
120932,note_off,,,,,0,0,1,,,,0,80,64
120932,note_off,,,,,0,0,1,,,,0,82,64
120940,set_tempo,,,,,220,1,0,250000,,,,,
120962,control_change,,,,,0,0,1,,64,95,0,,
120962,note_on,,,,,120,0,2,,,,0,39,59
120962,note_on,,,,,30,0,1,,,,0,75,40
120962,note_on,,,,,0,0,1,,,,0,72,40
121060,set_tempo,,,,,120,1,0,252101,,,,,
121194,control_change,,,,,232,0,1,,64,0,0,,
121200,note_on,,,,,6,0,1,,,,0,80,35
121202,note_on,,,,,0,0,1,,,,0,72,35
121202,note_off,,,,,0,0,1,,,,0,75,64
121202,note_off,,,,,2,0,1,,,,0,72,64
121202,note_off,,,,,240,0,2,,,,0,39,64
121202,note_on,,,,,0,0,1,,,,0,75,35
121290,note_off,,,,,88,0,1,,,,0,80,64
121292,note_off,,,,,2,0,1,,,,0,72,64
121292,note_off,,,,,0,0,1,,,,0,75,64
121322,note_on,,,,,30,0,1,,,,0,79,32
121322,note_on,,,,,0,0,1,,,,0,75,32
121322,note_on,,,,,0,0,1,,,,0,72,32
121322,note_on,,,,,120,0,2,,,,0,63,44
121442,note_off,,,,,120,0,2,,,,0,63,64
121442,note_on,,,,,0,0,2,,,,0,65,47
121502,note_off,,,,,0,0,1,,,,0,79,64
121502,note_off,,,,,0,0,1,,,,0,75,64
121502,note_off,,,,,180,0,1,,,,0,72,64
121562,note_on,,,,,60,0,1,,,,0,79,33
121562,note_off,,,,,120,0,2,,,,0,65,64
121562,note_on,,,,,0,0,2,,,,0,67,51
121562,note_on,,,,,0,0,1,,,,0,72,33
121562,note_on,,,,,0,0,1,,,,0,75,33
121600,set_tempo,,,,,540,1,0,258621,,,,,
121652,note_off,,,,,0,0,1,,,,0,79,64
121652,note_off,,,,,0,0,1,,,,0,75,64
121652,note_off,,,,,90,0,1,,,,0,72,64
121682,note_off,,,,,120,0,2,,,,0,67,64
121682,note_on,,,,,0,0,2,,,,0,68,52
121682,note_on,,,,,0,0,1,,,,0,74,41
121682,note_on,,,,,30,0,1,,,,0,84,41
121682,control_change,,,,,0,0,1,,64,95,0,,
121682,note_on,,,,,0,0,1,,,,0,80,41
121740,set_tempo,,,,,140,1,0,259740,,,,,
121760,set_tempo,,,,,20,1,0,263158,,,,,
121914,control_change,,,,,232,0,1,,64,0,0,,
121922,note_on,,,,,0,0,1,,,,0,74,37
121922,note_on,,,,,0,0,1,,,,0,80,37
121922,note_on,,,,,0,0,1,,,,0,84,37
121922,note_off,,,,,0,0,1,,,,0,84,64
121922,note_off,,,,,8,0,1,,,,0,74,64
121922,note_off,,,,,0,0,1,,,,0,80,64
121922,note_off,,,,,240,0,2,,,,0,68,64
121940,set_tempo,,,,,180,1,0,265487,,,,,
121960,set_tempo,,,,,20,1,0,270270,,,,,
122012,note_off,,,,,0,0,1,,,,0,80,64
122012,note_off,,,,,90,0,1,,,,0,74,64
122012,note_off,,,,,0,0,1,,,,0,84,64
122042,note_on,,,,,0,0,1,,,,0,74,34
122042,note_on,,,,,0,0,1,,,,0,80,34
122042,note_on,,,,,120,0,2,,,,0,58,51
122042,control_change,,,,,0,0,1,,64,95,0,,
122042,note_on,,,,,30,0,1,,,,0,82,34
122100,set_tempo,,,,,140,1,0,275229,,,,,
122120,set_tempo,,,,,20,1,0,283019,,,,,
122220,set_tempo,,,,,100,1,0,289855,,,,,
122222,note_off,,,,,180,0,1,,,,0,74,64
122222,note_off,,,,,0,0,1,,,,0,80,64
122222,note_off,,,,,0,0,1,,,,0,82,64
122282,note_off,,,,,240,0,2,,,,0,58,64
122282,note_on,,,,,60,0,1,,,,0,82,32
122282,control_change,,,,,0,0,1,,64,0,0,,
122282,note_on,,,,,0,0,1,,,,0,74,32
122282,note_on,,,,,0,0,1,,,,0,80,32
122372,note_off,,,,,0,0,1,,,,0,80,64
122372,note_off,,,,,0,0,1,,,,0,82,64
122372,note_off,,,,,90,0,1,,,,0,74,64
122400,set_tempo,,,,,180,1,0,306122,,,,,
122402,note_on,,,,,30,0,1,,,,0,66,40
122402,note_on,,,,,0,0,1,,,,0,63,40
122402,control_change,,,,,0,0,1,,64,95,0,,
122402,note_on,,,,,120,0,2,,,,0,46,63
122420,set_tempo,,,,,20,1,0,303030,,,,,
122480,set_tempo,,,,,60,1,0,280374,,,,,
122560,set_tempo,,,,,80,1,0,267857,,,,,
122600,set_tempo,,,,,40,1,0,258621,,,,,
122642,control_change,,,,,0,0,1,,64,0,0,,
122642,note_on,,,,,0,0,1,,,,0,63,27
122642,note_off,,,,,240,0,2,,,,0,46,64
122642,note_on,,,,,0,0,1,,,,0,70,27
122642,note_off,,,,,0,0,1,,,,0,66,64
122642,note_off,,,,,240,0,1,,,,0,63,64
122642,note_on,,,,,0,0,1,,,,0,66,27
122700,set_tempo,,,,,100,1,0,253165,,,,,
122732,note_off,,,,,90,0,1,,,,0,63,64
122732,note_off,,,,,0,0,1,,,,0,70,64
122732,note_off,,,,,0,0,1,,,,0,66,64
122762,note_on,,,,,120,0,2,,,,0,39,52
122762,note_on,,,,,30,0,1,,,,0,70,35
122762,note_on,,,,,0,0,1,,,,0,63,35
122762,note_on,,,,,0,0,1,,,,0,66,35
122942,note_off,,,,,180,0,2,,,,0,39,64
122942,note_off,,,,,180,0,1,,,,0,63,64
122942,note_off,,,,,0,0,1,,,,0,66,64
122942,note_off,,,,,0,0,1,,,,0,70,64
122980,set_tempo,,,,,280,1,0,248963,,,,,
123002,note_on,,,,,0,0,1,,,,0,63,32
123002,note_on,,,,,0,0,1,,,,0,66,32
123002,note_on,,,,,60,0,1,,,,0,70,32
123092,note_off,,,,,0,0,1,,,,0,66,64
123092,note_off,,,,,90,0,1,,,,0,63,64
123092,note_off,,,,,0,0,1,,,,0,70,64
123122,note_on,,,,,30,0,1,,,,0,70,42
123122,note_on,,,,,0,0,1,,,,0,63,42
123122,note_on,,,,,0,0,1,,,,0,66,42
123242,note_on,,,,,300,0,2,,,,0,54,54
123320,set_tempo,,,,,340,1,0,246914,,,,,
123340,set_tempo,,,,,20,1,0,245902,,,,,
123362,note_on,,,,,0,0,1,,,,0,63,34
123362,note_off,,,,,0,0,1,,,,0,66,64
123362,note_off,,,,,240,0,1,,,,0,63,64
123362,note_on,,,,,0,0,1,,,,0,71,34
123362,note_on,,,,,0,0,1,,,,0,66,34
123362,note_off,,,,,0,0,1,,,,0,70,64
123362,note_off,,,,,120,0,2,,,,0,54,64
123362,note_on,,,,,0,0,2,,,,0,53,56
123452,note_off,,,,,0,0,1,,,,0,71,64
123452,note_off,,,,,0,0,1,,,,0,66,64
123452,note_off,,,,,90,0,1,,,,0,63,64
123482,note_on,,,,,0,0,1,,,,0,63,43
123482,note_on,,,,,0,0,1,,,,0,66,43
123482,note_on,,,,,30,0,1,,,,0,71,43
123482,note_on,,,,,0,0,2,,,,0,54,61
123482,note_off,,,,,120,0,2,,,,0,53,64
123602,note_on,,,,,0,0,2,,,,0,53,63
123602,note_off,,,,,120,0,2,,,,0,54,64
123662,note_off,,,,,0,0,1,,,,0,71,64
123662,note_off,,,,,180,0,1,,,,0,63,64
123662,note_off,,,,,0,0,1,,,,0,66,64
123722,note_on,,,,,0,0,2,,,,0,51,66
123722,note_off,,,,,120,0,2,,,,0,53,64
123722,note_on,,,,,0,0,1,,,,0,66,40
123722,note_on,,,,,0,0,1,,,,0,63,40
123722,note_on,,,,,60,0,1,,,,0,72,40
123740,set_tempo,,,,,400,1,0,242915,,,,,
123812,note_off,,,,,0,0,1,,,,0,66,64
123812,note_off,,,,,90,0,1,,,,0,63,64
123812,note_off,,,,,0,0,1,,,,0,72,64
123842,note_on,,,,,30,0,1,,,,0,75,52
123842,note_on,,,,,0,0,2,,,,0,49,68
123842,note_off,,,,,120,0,2,,,,0,51,64
123842,note_on,,,,,0,0,1,,,,0,68,52
123842,note_on,,,,,0,0,1,,,,0,65,52
124082,note_on,,,,,0,0,1,,,,0,65,44
124082,note_on,,,,,0,0,1,,,,0,68,44
124082,note_on,,,,,0,0,1,,,,0,73,44
124082,note_off,,,,,0,0,1,,,,0,68,64
124082,note_off,,,,,240,0,1,,,,0,65,64
124082,note_off,,,,,240,0,2,,,,0,49,64
124082,note_off,,,,,0,0,1,,,,0,75,64
124172,note_off,,,,,90,0,1,,,,0,65,64
124172,note_off,,,,,0,0,1,,,,0,68,64
124172,note_off,,,,,0,0,1,,,,0,73,64
124202,note_on,,,,,30,0,1,,,,0,73,42
124202,note_on,,,,,0,0,1,,,,0,69,42
124202,note_on,,,,,0,0,1,,,,0,66,42
124202,note_on,,,,,120,0,2,,,,0,37,56
124220,set_tempo,,,,,480,1,0,240000,,,,,
124382,note_off,,,,,180,0,1,,,,0,66,64
124382,note_off,,,,,0,0,1,,,,0,69,64
124382,note_off,,,,,0,0,1,,,,0,73,64
124382,note_off,,,,,180,0,2,,,,0,37,64
124442,note_on,,,,,0,0,1,,,,0,66,50
124442,note_on,,,,,0,0,1,,,,0,69,50
124442,note_on,,,,,60,0,1,,,,0,73,50
124532,note_off,,,,,0,0,1,,,,0,73,64
124532,note_off,,,,,0,0,1,,,,0,69,64
124532,note_off,,,,,90,0,1,,,,0,66,64
124562,note_on,,,,,0,0,1,,,,0,67,57
124562,note_on,,,,,30,0,1,,,,0,73,57
124562,note_on,,,,,0,0,1,,,,0,70,57
124562,note_on,,,,,180,0,2,,,,0,75,69
124660,set_tempo,,,,,440,1,0,237154,,,,,
124802,note_on,,,,,0,0,1,,,,0,70,52
124802,note_off,,,,,240,0,2,,,,0,75,64
124802,note_on,,,,,0,0,1,,,,0,67,52
124802,note_on,,,,,0,0,1,,,,0,73,52
124802,note_off,,,,,0,0,1,,,,0,73,64
124802,note_off,,,,,0,0,1,,,,0,70,64
124802,note_off,,,,,240,0,1,,,,0,67,64
124892,note_off,,,,,0,0,1,,,,0,73,64
124892,note_off,,,,,90,0,1,,,,0,67,64
124892,note_off,,,,,0,0,1,,,,0,70,64
124922,note_on,,,,,0,0,1,,,,0,71,46
124922,note_on,,,,,0,0,2,,,,0,77,61
124922,note_on,,,,,120,0,2,,,,0,85,61
124922,note_on,,,,,30,0,1,,,,0,73,46
124922,note_on,,,,,0,0,1,,,,0,68,46
125100,set_tempo,,,,,440,1,0,235294,,,,,
125102,note_off,,,,,180,0,1,,,,0,68,64
125102,note_off,,,,,0,0,1,,,,0,71,64
125102,note_off,,,,,0,0,1,,,,0,73,64
125102,note_off,,,,,180,0,2,,,,0,77,64
125102,note_off,,,,,0,0,2,,,,0,85,64
125162,note_on,,,,,0,0,1,,,,0,68,42
125162,note_on,,,,,0,0,1,,,,0,71,42
125162,note_on,,,,,60,0,1,,,,0,73,42
125252,note_off,,,,,0,0,1,,,,0,71,64
125252,note_off,,,,,0,0,1,,,,0,73,64
125252,note_off,,,,,90,0,1,,,,0,68,64
125280,set_tempo,,,,,180,1,0,246914,,,,,
125282,note_on,,,,,180,0,2,,,,0,49,85
125282,note_on,,,,,0,0,1,,,,0,70,48
125282,control_change,,,,,0,0,1,,64,95,0,,
125282,note_on,,,,,30,0,1,,,,0,73,48
125360,set_tempo,,,,,80,1,0,236220,,,,,
125440,set_tempo,,,,,80,1,0,232558,,,,,
125522,note_off,,,,,240,0,1,,,,0,70,64
125522,note_off,,,,,0,0,1,,,,0,73,64
125522,note_on,,,,,0,0,1,,,,0,78,49
125522,note_on,,,,,0,0,1,,,,0,73,49
125522,note_on,,,,,0,0,1,,,,0,70,49
125522,control_change,,,,,0,0,1,,64,0,0,,
125522,note_off,,,,,240,0,2,,,,0,49,64
125612,note_off,,,,,90,0,1,,,,0,70,64
125612,note_off,,,,,0,0,1,,,,0,73,64
125612,note_off,,,,,0,0,1,,,,0,78,64
125642,note_on,,,,,120,0,2,,,,0,42,69
125642,note_on,,,,,30,0,1,,,,0,78,52
125642,note_on,,,,,0,0,1,,,,0,73,52
125642,note_on,,,,,0,0,1,,,,0,70,52
125740,set_tempo,,,,,300,1,0,231660,,,,,
125822,note_off,,,,,180,0,2,,,,0,42,64
125822,note_off,,,,,0,0,1,,,,0,78,64
125822,note_off,,,,,0,0,1,,,,0,73,64
125822,note_off,,,,,180,0,1,,,,0,70,64
125882,note_on,,,,,0,0,1,,,,0,70,46
125882,note_on,,,,,60,0,1,,,,0,78,46
125882,note_on,,,,,0,0,1,,,,0,73,46
125972,note_off,,,,,90,0,1,,,,0,70,64
125972,note_off,,,,,0,0,1,,,,0,73,64
125972,note_off,,,,,0,0,1,,,,0,78,64
126002,note_on,,,,,0,0,1,,,,0,73,59
126002,note_on,,,,,30,0,1,,,,0,77,59
126002,note_on,,,,,0,0,1,,,,0,70,59
126122,note_on,,,,,300,0,2,,,,0,58,76
126204,set_tempo,,,,,464,1,0,236220,,,,,
126242,note_on,,,,,0,0,1,,,,0,70,52
126242,note_on,,,,,0,0,1,,,,0,73,52
126242,note_on,,,,,0,0,1,,,,0,78,52
126242,note_off,,,,,0,0,1,,,,0,77,64
126242,note_off,,,,,240,0,1,,,,0,70,64
126242,note_off,,,,,120,0,2,,,,0,58,64
126242,note_on,,,,,0,0,2,,,,0,57,81
126242,note_off,,,,,0,0,1,,,,0,73,64
126332,note_off,,,,,0,0,1,,,,0,73,64
126332,note_off,,,,,90,0,1,,,,0,70,64
126332,note_off,,,,,0,0,1,,,,0,78,64
126362,note_on,,,,,30,0,1,,,,0,78,66
126362,note_on,,,,,0,0,2,,,,0,58,86
126362,note_on,,,,,0,0,1,,,,0,73,66
126362,note_on,,,,,0,0,1,,,,0,70,66
126362,note_off,,,,,120,0,2,,,,0,57,64
126420,set_tempo,,,,,216,1,0,235294,,,,,
126482,note_off,,,,,120,0,2,,,,0,58,64
126482,note_on,,,,,0,0,2,,,,0,56,89
126542,note_off,,,,,0,0,1,,,,0,78,64
126542,note_off,,,,,0,0,1,,,,0,73,64
126542,note_off,,,,,180,0,1,,,,0,70,64
126602,note_on,,,,,0,0,1,,,,0,70,66
126602,note_on,,,,,0,0,1,,,,0,73,66
126602,note_on,,,,,60,0,1,,,,0,78,66
126602,note_off,,,,,120,0,2,,,,0,56,64
126602,note_on,,,,,0,0,2,,,,0,54,95
126640,set_tempo,,,,,220,1,0,237154,,,,,
126660,set_tempo,,,,,20,1,0,238095,,,,,
126692,note_off,,,,,0,0,1,,,,0,73,64
126692,note_off,,,,,90,0,1,,,,0,70,64
126692,note_off,,,,,0,0,1,,,,0,78,64
126722,note_on,,,,,0,0,2,,,,0,53,99
126722,note_on,,,,,30,0,1,,,,0,82,70
126722,note_on,,,,,0,0,1,,,,0,75,70
126722,note_on,,,,,0,0,1,,,,0,71,70
126722,note_off,,,,,120,0,2,,,,0,54,64
126900,set_tempo,,,,,240,1,0,240964,,,,,
126962,note_off,,,,,240,0,2,,,,0,53,64
126962,note_off,,,,,240,0,1,,,,0,71,64
126962,note_off,,,,,0,0,1,,,,0,75,64
126962,note_off,,,,,0,0,1,,,,0,82,64
126962,note_on,,,,,0,0,1,,,,0,80,76
126962,note_on,,,,,0,0,1,,,,0,71,76
126962,note_on,,,,,0,0,1,,,,0,75,76
127052,note_off,,,,,90,0,1,,,,0,71,64
127052,note_off,,,,,0,0,1,,,,0,80,64
127052,note_off,,,,,0,0,1,,,,0,75,64
127082,note_on,,,,,30,0,1,,,,0,80,79
127082,note_on,,,,,120,0,2,,,,0,46,81
127082,note_on,,,,,0,0,1,,,,0,75,79
127082,note_on,,,,,0,0,1,,,,0,72,79
127240,set_tempo,,,,,340,1,0,241935,,,,,
127262,note_off,,,,,180,0,1,,,,0,72,64
127262,note_off,,,,,0,0,1,,,,0,75,64
127262,note_off,,,,,0,0,1,,,,0,80,64
127262,note_off,,,,,180,0,2,,,,0,46,64
127322,note_on,,,,,0,0,1,,,,0,75,83
127322,note_on,,,,,60,0,1,,,,0,80,83
127322,note_on,,,,,0,0,1,,,,0,72,83
127400,set_tempo,,,,,160,1,0,245902,,,,,
127412,note_off,,,,,0,0,1,,,,0,75,64
127412,note_off,,,,,0,0,1,,,,0,80,64
127412,note_off,,,,,90,0,1,,,,0,72,64
127442,note_on,,,,,30,0,1,,,,0,80,87
127442,note_on,,,,,0,0,1,,,,0,76,87
127442,note_on,,,,,0,0,1,,,,0,73,87
127442,note_on,,,,,180,0,2,,,,0,70,86
127600,set_tempo,,,,,200,1,0,248963,,,,,
127682,note_off,,,,,0,0,1,,,,0,80,64
127682,note_on,,,,,0,0,1,,,,0,76,94
127682,note_off,,,,,240,0,2,,,,0,70,64
127682,note_on,,,,,0,0,1,,,,0,73,94
127682,note_off,,,,,240,0,1,,,,0,73,64
127682,note_off,,,,,0,0,1,,,,0,76,64
127682,note_on,,,,,0,0,1,,,,0,80,94
127740,set_tempo,,,,,140,1,0,254237,,,,,
127772,note_off,,,,,90,0,1,,,,0,73,64
127772,note_off,,,,,0,0,1,,,,0,76,64
127772,note_off,,,,,0,0,1,,,,0,80,64
127802,note_on,,,,,30,0,1,,,,0,80,97
127802,note_on,,,,,120,0,2,,,,0,82,105
127802,note_on,,,,,0,0,1,,,,0,74,97
127802,note_on,,,,,0,0,1,,,,0,77,97
127820,set_tempo,,,,,80,1,0,258621,,,,,
127880,set_tempo,,,,,60,1,0,269058,,,,,
127960,set_tempo,,,,,80,1,0,276498,,,,,
127982,note_off,,,,,180,0,2,,,,0,82,64
127982,note_off,,,,,180,0,1,,,,0,74,64
127982,note_off,,,,,0,0,1,,,,0,77,64
127982,note_off,,,,,0,0,1,,,,0,80,64
128000,set_tempo,,,,,40,1,0,284360,,,,,
128042,note_on,,,,,60,0,1,,,,0,80,100
128042,note_on,,,,,0,0,1,,,,0,77,100
128042,note_on,,,,,0,0,1,,,,0,74,100
128084,set_tempo,,,,,84,1,0,285714,,,,,
128104,set_tempo,,,,,20,1,0,291262,,,,,
128124,set_tempo,,,,,20,1,0,292683,,,,,
128132,note_off,,,,,90,0,1,,,,0,74,64
128132,note_off,,,,,0,0,1,,,,0,80,64
128132,note_off,,,,,0,0,1,,,,0,77,64
128160,set_tempo,,,,,36,1,0,243902,,,,,
128162,control_change,,,,,0,0,1,,64,95,0,,
128162,note_on,,,,,0,0,1,,,,0,75,113
128162,note_on,,,,,30,0,1,,,,0,78,113
128162,note_on,,,,,180,0,2,,,,0,46,113
128402,note_off,,,,,0,0,1,,,,0,78,64
128402,note_on,,,,,0,0,1,,,,0,82,93
128402,note_on,,,,,0,0,1,,,,0,78,93
128402,note_off,,,,,240,0,1,,,,0,75,64
128402,note_off,,,,,240,0,2,,,,0,46,64
128492,note_off,,,,,90,0,1,,,,0,78,64
128492,note_off,,,,,0,0,1,,,,0,82,64
128514,control_change,,,,,22,0,1,,64,0,0,,
128520,set_tempo,,,,,360,1,0,242915,,,,,
128522,control_change,,,,,0,0,1,,64,96,0,,
128522,note_on,,,,,8,0,1,,,,0,90,98
128522,note_on,,,,,0,0,1,,,,0,87,98
128522,note_on,,,,,0,0,1,,,,0,82,98
128522,note_on,,,,,0,0,1,,,,0,78,98
128522,note_on,,,,,120,0,2,,,,0,39,100
128762,note_off,,,,,240,0,1,,,,0,78,64
128762,note_off,,,,,0,0,1,,,,0,82,64
128762,note_off,,,,,0,0,1,,,,0,87,64
128762,note_off,,,,,0,0,1,,,,0,90,64
128762,note_on,,,,,0,0,1,,,,0,90,104
128762,note_on,,,,,0,0,1,,,,0,87,104
128762,note_on,,,,,0,0,1,,,,0,78,104
128762,note_on,,,,,0,0,1,,,,0,82,104
128762,note_off,,,,,240,0,2,,,,0,39,64
128840,set_tempo,,,,,320,1,0,241935,,,,,
128852,note_off,,,,,0,0,1,,,,0,90,64
128852,note_off,,,,,0,0,1,,,,0,87,64
128852,note_off,,,,,0,0,1,,,,0,82,64
128852,note_off,,,,,90,0,1,,,,0,78,64
128868,control_change,,,,,16,0,1,,64,0,0,,
128882,note_on,,,,,14,0,1,,,,0,89,113
128882,note_on,,,,,0,0,1,,,,0,85,113
128882,note_on,,,,,0,0,2,,,,0,49,114
128882,note_on,,,,,0,0,2,,,,0,53,114
128882,note_on,,,,,120,0,2,,,,0,58,114
128882,note_on,,,,,0,0,2,,,,0,46,114
128882,note_on,,,,,0,0,1,,,,0,82,113
128882,control_change,,,,,0,0,1,,64,96,0,,
128882,note_on,,,,,0,0,1,,,,0,77,113
129040,set_tempo,,,,,200,1,0,240964,,,,,
129114,control_change,,,,,232,0,1,,64,0,0,,
129122,note_off,,,,,0,0,1,,,,0,82,64
129122,note_off,,,,,0,0,2,,,,0,53,64
129122,note_on,,,,,0,0,2,,,,0,46,114
129122,note_off,,,,,0,0,1,,,,0,89,64
129122,note_off,,,,,0,0,2,,,,0,49,64
129122,note_on,,,,,0,0,2,,,,0,58,114
129122,note_off,,,,,240,0,2,,,,0,46,64
129122,note_off,,,,,0,0,2,,,,0,58,64
129122,note_on,,,,,0,0,2,,,,0,49,114
129122,note_on,,,,,0,0,2,,,,0,53,114
129122,note_off,,,,,0,0,1,,,,0,85,64
129122,note_off,,,,,8,0,1,,,,0,77,64
129212,note_off,,,,,90,0,2,,,,0,46,64
129212,note_off,,,,,0,0,2,,,,0,53,64
129212,note_off,,,,,0,0,2,,,,0,49,64
129212,note_off,,,,,0,0,2,,,,0,58,64
129240,set_tempo,,,,,200,1,0,240000,,,,,
129242,note_on,,,,,30,0,2,,,,0,61,107
129242,note_on,,,,,0,0,2,,,,0,53,107
129242,note_on,,,,,0,0,2,,,,0,49,107
129242,control_change,,,,,0,0,1,,64,95,0,,
129242,note_on,,,,,120,0,1,,,,0,70,121
129242,note_on,,,,,0,0,2,,,,0,58,107
129482,note_off,,,,,240,0,1,,,,0,70,64
129482,control_change,,,,,0,0,1,,64,0,0,,
129482,note_off,,,,,0,0,2,,,,0,58,64
129482,note_on,,,,,0,0,2,,,,0,58,114
129482,note_off,,,,,0,0,2,,,,0,61,64
129482,note_off,,,,,0,0,2,,,,0,53,64
129482,note_off,,,,,240,0,2,,,,0,49,64
129482,note_on,,,,,0,0,2,,,,0,61,114
129482,note_on,,,,,0,0,2,,,,0,53,114
129482,note_on,,,,,0,0,2,,,,0,49,114
129520,set_tempo,,,,,280,1,0,238095,,,,,
129572,note_off,,,,,0,0,2,,,,0,61,64
129572,note_off,,,,,0,0,2,,,,0,58,64
129572,note_off,,,,,0,0,2,,,,0,53,64
129572,note_off,,,,,90,0,2,,,,0,49,64
129602,note_on,,,,,30,0,2,,,,0,63,113
129602,control_change,,,,,0,0,1,,64,95,0,,
129602,note_on,,,,,0,0,1,,,,0,82,113
129602,note_on,,,,,0,0,1,,,,0,78,113
129602,note_on,,,,,0,0,1,,,,0,75,113
129602,note_on,,,,,0,0,2,,,,0,58,113
129602,note_on,,,,,0,0,2,,,,0,54,113
129602,note_on,,,,,120,0,1,,,,0,87,113
129602,note_on,,,,,0,0,2,,,,0,51,113
129842,note_off,,,,,240,0,2,,,,0,51,64
129842,note_on,,,,,0,0,1,,,,0,75,93
129842,note_on,,,,,0,0,1,,,,0,78,93
129842,note_on,,,,,0,0,1,,,,0,87,93
129842,note_off,,,,,0,0,1,,,,0,87,64
129842,note_off,,,,,0,0,1,,,,0,82,64
129842,note_off,,,,,0,0,1,,,,0,78,64
129842,note_off,,,,,240,0,1,,,,0,75,64
129842,note_on,,,,,0,0,1,,,,0,82,93
129842,note_off,,,,,0,0,2,,,,0,54,64
129842,note_off,,,,,0,0,2,,,,0,58,64
129842,note_off,,,,,0,0,2,,,,0,63,64
129880,set_tempo,,,,,360,1,0,237154,,,,,
129932,note_off,,,,,0,0,1,,,,0,82,64
129932,note_off,,,,,0,0,1,,,,0,87,64
129932,note_off,,,,,0,0,1,,,,0,78,64
129932,note_off,,,,,90,0,1,,,,0,75,64
129954,control_change,,,,,22,0,1,,64,0,0,,
129962,note_on,,,,,0,0,1,,,,0,78,98
129962,note_on,,,,,0,0,1,,,,0,82,98
129962,note_on,,,,,0,0,1,,,,0,87,98
129962,note_on,,,,,8,0,1,,,,0,90,98
129962,control_change,,,,,0,0,1,,64,96,0,,
129962,note_on,,,,,120,0,2,,,,0,39,100
130202,note_off,,,,,0,0,1,,,,0,82,64
130202,note_off,,,,,240,0,2,,,,0,39,64
130202,note_off,,,,,0,0,1,,,,0,90,64
130202,note_on,,,,,0,0,1,,,,0,90,104
130202,note_on,,,,,0,0,1,,,,0,87,104
130202,note_on,,,,,0,0,1,,,,0,82,104
130202,note_on,,,,,0,0,1,,,,0,78,104
130202,note_off,,,,,0,0,1,,,,0,87,64
130202,note_off,,,,,240,0,1,,,,0,78,64
130292,note_off,,,,,90,0,1,,,,0,78,64
130292,note_off,,,,,0,0,1,,,,0,82,64
130292,note_off,,,,,0,0,1,,,,0,87,64
130292,note_off,,,,,0,0,1,,,,0,90,64
130308,control_change,,,,,16,0,1,,64,0,0,,
130320,set_tempo,,,,,440,1,0,236220,,,,,
130322,note_on,,,,,0,0,1,,,,0,85,113
130322,note_on,,,,,120,0,2,,,,0,58,114
130322,note_on,,,,,0,0,2,,,,0,53,114
130322,note_on,,,,,0,0,2,,,,0,49,114
130322,control_change,,,,,0,0,1,,64,96,0,,
130322,note_on,,,,,0,0,1,,,,0,77,113
130322,note_on,,,,,0,0,1,,,,0,82,113
130322,note_on,,,,,0,0,2,,,,0,46,114
130322,note_on,,,,,14,0,1,,,,0,89,113
130554,control_change,,,,,232,0,1,,64,0,0,,
130560,set_tempo,,,,,240,1,0,235294,,,,,
130562,note_off,,,,,0,0,1,,,,0,82,64
130562,note_off,,,,,8,0,1,,,,0,77,64
130562,note_on,,,,,0,0,2,,,,0,49,114
130562,note_off,,,,,0,0,2,,,,0,49,64
130562,note_off,,,,,0,0,2,,,,0,53,64
130562,note_off,,,,,0,0,2,,,,0,58,64
130562,note_on,,,,,0,0,2,,,,0,58,114
130562,note_off,,,,,0,0,1,,,,0,85,64
130562,note_on,,,,,0,0,2,,,,0,53,114
130562,note_off,,,,,240,0,2,,,,0,46,64
130562,note_off,,,,,0,0,1,,,,0,89,64
130562,note_on,,,,,0,0,2,,,,0,46,114
130652,note_off,,,,,90,0,2,,,,0,46,64
130652,note_off,,,,,0,0,2,,,,0,49,64
130652,note_off,,,,,0,0,2,,,,0,53,64
130652,note_off,,,,,0,0,2,,,,0,58,64
130682,control_change,,,,,0,0,1,,64,95,0,,
130682,note_on,,,,,120,0,1,,,,0,70,121
130682,note_on,,,,,30,0,2,,,,0,61,107
130682,note_on,,,,,0,0,2,,,,0,58,107
130682,note_on,,,,,0,0,2,,,,0,53,107
130682,note_on,,,,,0,0,2,,,,0,49,107
130922,note_off,,,,,0,0,2,,,,0,61,64
130922,note_off,,,,,240,0,2,,,,0,49,64
130922,note_off,,,,,0,0,2,,,,0,53,64
130922,note_off,,,,,0,0,2,,,,0,58,64
130922,note_on,,,,,0,0,2,,,,0,49,114
130922,note_on,,,,,0,0,2,,,,0,53,114
130922,note_on,,,,,0,0,2,,,,0,58,114
130922,note_on,,,,,0,0,2,,,,0,61,114
130922,note_off,,,,,240,0,1,,,,0,70,64
130922,control_change,,,,,0,0,1,,64,0,0,,
131000,set_tempo,,,,,440,1,0,234375,,,,,
131012,note_off,,,,,0,0,2,,,,0,61,64
131012,note_off,,,,,0,0,2,,,,0,58,64
131012,note_off,,,,,0,0,2,,,,0,53,64
131012,note_off,,,,,90,0,2,,,,0,49,64
131042,note_on,,,,,0,0,2,,,,0,59,113
131042,note_on,,,,,0,0,2,,,,0,54,113
131042,note_on,,,,,0,0,1,,,,0,78,113
131042,note_on,,,,,30,0,2,,,,0,63,113
131042,note_on,,,,,0,0,2,,,,0,51,113
131042,note_on,,,,,120,0,1,,,,0,83,113
131042,note_on,,,,,0,0,1,,,,0,75,113
131042,control_change,,,,,0,0,1,,64,95,0,,
131042,note_on,,,,,0,0,1,,,,0,71,113
131282,note_on,,,,,0,0,1,,,,0,75,93
131282,note_off,,,,,0,0,2,,,,0,51,64
131282,note_off,,,,,0,0,2,,,,0,59,64
131282,note_off,,,,,240,0,2,,,,0,54,64
131282,note_on,,,,,0,0,1,,,,0,71,93
131282,note_on,,,,,0,0,1,,,,0,78,93
131282,note_on,,,,,0,0,1,,,,0,83,93
131282,note_off,,,,,0,0,1,,,,0,83,64
131282,note_off,,,,,0,0,1,,,,0,78,64
131282,note_off,,,,,0,0,1,,,,0,75,64
131282,note_off,,,,,240,0,1,,,,0,71,64
131282,note_off,,,,,0,0,2,,,,0,63,64
131372,note_off,,,,,0,0,1,,,,0,83,64
131372,note_off,,,,,0,0,1,,,,0,78,64
131372,note_off,,,,,0,0,1,,,,0,75,64
131372,note_off,,,,,90,0,1,,,,0,71,64
131394,control_change,,,,,22,0,1,,64,0,0,,
131402,note_on,,,,,0,0,1,,,,0,75,98
131402,note_on,,,,,0,0,1,,,,0,78,98
131402,note_on,,,,,0,0,1,,,,0,83,98
131402,note_on,,,,,8,0,1,,,,0,87,98
131402,note_on,,,,,120,0,2,,,,0,47,100
131402,control_change,,,,,0,0,1,,64,96,0,,
131642,note_on,,,,,0,0,1,,,,0,83,104
131642,note_off,,,,,0,0,1,,,,0,83,64
131642,note_off,,,,,0,0,1,,,,0,78,64
131642,note_off,,,,,240,0,1,,,,0,75,64
131642,note_on,,,,,0,0,1,,,,0,78,104
131642,note_on,,,,,0,0,1,,,,0,75,104
131642,note_off,,,,,0,0,1,,,,0,87,64
131642,note_off,,,,,240,0,2,,,,0,47,64
131642,note_on,,,,,0,0,1,,,,0,87,104
131732,note_off,,,,,0,0,1,,,,0,78,64
131732,note_off,,,,,0,0,1,,,,0,83,64
131732,note_off,,,,,0,0,1,,,,0,87,64
131732,note_off,,,,,90,0,1,,,,0,75,64
131748,control_change,,,,,16,0,1,,64,0,0,,
131762,note_on,,,,,0,0,1,,,,0,78,113
131762,control_change,,,,,0,0,1,,64,96,0,,
131762,note_on,,,,,120,0,2,,,,0,46,114
131762,note_on,,,,,0,0,2,,,,0,54,114
131762,note_on,,,,,0,0,2,,,,0,49,114
131762,note_on,,,,,0,0,2,,,,0,42,114
131762,note_on,,,,,0,0,1,,,,0,82,113
131762,note_on,,,,,14,0,1,,,,0,85,113
131762,note_on,,,,,0,0,1,,,,0,73,113
131994,control_change,,,,,232,0,1,,64,0,0,,
132002,note_off,,,,,0,0,1,,,,0,85,64
132002,note_off,,,,,8,0,1,,,,0,73,64
132002,note_off,,,,,0,0,1,,,,0,78,64
132002,note_on,,,,,0,0,2,,,,0,49,114
132002,note_on,,,,,0,0,2,,,,0,46,114
132002,note_off,,,,,0,0,2,,,,0,46,64
132002,note_off,,,,,0,0,2,,,,0,54,64
132002,note_off,,,,,0,0,2,,,,0,49,64
132002,note_off,,,,,240,0,2,,,,0,42,64
132002,note_off,,,,,0,0,1,,,,0,82,64
132002,note_on,,,,,0,0,2,,,,0,42,114
132002,note_on,,,,,0,0,2,,,,0,54,114
132092,note_off,,,,,90,0,2,,,,0,42,64
132092,note_off,,,,,0,0,2,,,,0,54,64
132092,note_off,,,,,0,0,2,,,,0,49,64
132092,note_off,,,,,0,0,2,,,,0,46,64
132122,control_change,,,,,0,0,1,,64,95,0,,
132122,note_on,,,,,0,0,2,,,,0,49,107
132122,note_on,,,,,30,0,2,,,,0,58,107
132122,note_on,,,,,0,0,2,,,,0,54,107
132122,note_on,,,,,0,0,2,,,,0,46,107
132122,note_on,,,,,120,0,1,,,,0,66,121
132362,note_on,,,,,0,0,2,,,,0,58,114
132362,control_change,,,,,0,0,1,,64,0,0,,
132362,note_off,,,,,240,0,1,,,,0,66,64
132362,note_on,,,,,0,0,2,,,,0,46,114
132362,note_on,,,,,0,0,2,,,,0,54,114
132362,note_off,,,,,0,0,2,,,,0,46,64
132362,note_off,,,,,0,0,2,,,,0,54,64
132362,note_off,,,,,240,0,2,,,,0,49,64
132362,note_on,,,,,0,0,2,,,,0,49,114
132362,note_off,,,,,0,0,2,,,,0,58,64
132452,note_off,,,,,90,0,2,,,,0,49,64
132452,note_off,,,,,0,0,2,,,,0,54,64
132452,note_off,,,,,0,0,2,,,,0,46,64
132452,note_off,,,,,0,0,2,,,,0,58,64
132482,note_on,,,,,30,0,2,,,,0,59,113
132482,note_on,,,,,0,0,2,,,,0,47,113
132482,note_on,,,,,0,0,2,,,,0,51,113
132482,note_on,,,,,0,0,1,,,,0,71,113
132482,note_on,,,,,0,0,1,,,,0,75,113
132482,note_on,,,,,0,0,1,,,,0,68,113
132482,note_on,,,,,120,0,1,,,,0,80,113
132482,control_change,,,,,0,0,1,,64,95,0,,
132482,note_on,,,,,0,0,2,,,,0,56,113
132640,set_tempo,,,,,1640,1,0,235294,,,,,
132722,note_off,,,,,240,0,2,,,,0,51,64
132722,note_off,,,,,0,0,2,,,,0,56,64
132722,note_off,,,,,0,0,2,,,,0,47,64
132722,note_off,,,,,0,0,2,,,,0,59,64
132722,note_off,,,,,240,0,1,,,,0,68,64
132722,note_off,,,,,0,0,1,,,,0,71,64
132722,note_off,,,,,0,0,1,,,,0,75,64
132722,note_off,,,,,0,0,1,,,,0,80,64
132722,note_on,,,,,0,0,1,,,,0,80,93
132722,note_on,,,,,0,0,1,,,,0,75,93
132722,note_on,,,,,0,0,1,,,,0,71,93
132722,note_on,,,,,0,0,1,,,,0,68,93
132812,note_off,,,,,0,0,1,,,,0,80,64
132812,note_off,,,,,0,0,1,,,,0,75,64
132812,note_off,,,,,90,0,1,,,,0,68,64
132812,note_off,,,,,0,0,1,,,,0,71,64
132834,control_change,,,,,22,0,1,,64,0,0,,
132842,note_on,,,,,120,0,2,,,,0,44,100
132842,note_on,,,,,8,0,1,,,,0,83,98
132842,note_on,,,,,0,0,1,,,,0,80,98
132842,note_on,,,,,0,0,1,,,,0,75,98
132842,control_change,,,,,0,0,1,,64,96,0,,
132842,note_on,,,,,0,0,1,,,,0,71,98
133082,note_off,,,,,0,0,1,,,,0,83,64
133082,note_on,,,,,0,0,1,,,,0,71,104
133082,note_on,,,,,0,0,1,,,,0,75,104
133082,note_on,,,,,0,0,1,,,,0,80,104
133082,note_on,,,,,0,0,1,,,,0,83,104
133082,note_off,,,,,240,0,2,,,,0,44,64
133082,note_off,,,,,0,0,1,,,,0,80,64
133082,note_off,,,,,0,0,1,,,,0,75,64
133082,note_off,,,,,240,0,1,,,,0,71,64
133172,note_off,,,,,0,0,1,,,,0,83,64
133172,note_off,,,,,0,0,1,,,,0,75,64
133172,note_off,,,,,0,0,1,,,,0,80,64
133172,note_off,,,,,90,0,1,,,,0,71,64
133188,control_change,,,,,16,0,1,,64,0,0,,
133202,note_on,,,,,0,0,2,,,,0,56,113
133202,note_on,,,,,14,0,1,,,,0,80,113
133202,note_on,,,,,0,0,1,,,,0,75,113
133202,note_on,,,,,0,0,1,,,,0,71,113
133202,control_change,,,,,0,0,1,,64,96,0,,
133202,note_on,,,,,120,0,2,,,,0,44,113
133300,set_tempo,,,,,660,1,0,238095,,,,,
133442,note_off,,,,,240,0,1,,,,0,71,64
133442,note_off,,,,,0,0,1,,,,0,75,64
133442,note_off,,,,,0,0,1,,,,0,80,64
133442,note_on,,,,,0,0,1,,,,0,80,99
133442,note_on,,,,,0,0,1,,,,0,75,99
133442,note_off,,,,,240,0,2,,,,0,56,64
133442,note_on,,,,,0,0,2,,,,0,56,101
133442,note_on,,,,,0,0,2,,,,0,44,101
133442,note_off,,,,,0,0,2,,,,0,44,64
133442,note_on,,,,,0,0,1,,,,0,71,99
133532,note_off,,,,,90,0,1,,,,0,71,64
133532,note_off,,,,,0,0,1,,,,0,75,64
133532,note_off,,,,,0,0,1,,,,0,80,64
133532,note_off,,,,,0,0,2,,,,0,44,64
133532,note_off,,,,,90,0,2,,,,0,56,64
133562,note_on,,,,,0,0,2,,,,0,59,102
133562,note_on,,,,,30,0,2,,,,0,47,102
133562,note_on,,,,,30,0,1,,,,0,75,104
133562,note_on,,,,,0,0,1,,,,0,71,104
133720,set_tempo,,,,,420,1,0,242915,,,,,
133802,note_off,,,,,240,0,2,,,,0,59,64
133802,note_off,,,,,0,0,2,,,,0,47,64
133802,note_on,,,,,0,0,2,,,,0,47,101
133802,note_on,,,,,0,0,2,,,,0,59,101
133802,note_on,,,,,0,0,1,,,,0,75,104
133802,note_on,,,,,0,0,1,,,,0,71,104
133802,note_off,,,,,0,0,1,,,,0,75,64
133802,note_off,,,,,240,0,1,,,,0,71,64
133892,note_off,,,,,90,0,1,,,,0,71,64
133892,note_off,,,,,90,0,2,,,,0,59,64
133892,note_off,,,,,0,0,2,,,,0,47,64
133892,note_off,,,,,0,0,1,,,,0,75,64
133914,control_change,,,,,22,0,1,,64,0,0,,
133922,control_change,,,,,0,0,1,,64,95,0,,
133922,note_on,,,,,8,0,1,,,,0,71,109
133922,note_on,,,,,0,0,2,,,,0,56,114
133922,note_on,,,,,30,0,2,,,,0,44,114
134100,set_tempo,,,,,380,1,0,246914,,,,,
134162,note_off,,,,,240,0,1,,,,0,71,64
134162,note_on,,,,,0,0,2,,,,0,56,108
134162,note_on,,,,,0,0,2,,,,0,44,108
134162,note_off,,,,,0,0,2,,,,0,44,64
134162,note_off,,,,,240,0,2,,,,0,56,64
134162,note_on,,,,,0,0,1,,,,0,71,106
134252,note_off,,,,,90,0,1,,,,0,71,64
134252,note_off,,,,,90,0,2,,,,0,56,64
134252,note_off,,,,,0,0,2,,,,0,44,64
134282,note_on,,,,,0,0,1,,,,0,71,116
134282,note_on,,,,,30,0,1,,,,0,75,116
134282,note_on,,,,,0,0,2,,,,0,51,120
134282,note_on,,,,,30,0,2,,,,0,39,120
134522,note_on,,,,,0,0,1,,,,0,75,108
134522,note_off,,,,,0,0,1,,,,0,75,64
134522,note_off,,,,,240,0,1,,,,0,71,64
134522,note_off,,,,,240,0,2,,,,0,51,64
134522,note_off,,,,,0,0,2,,,,0,39,64
134522,note_on,,,,,0,0,2,,,,0,39,114
134522,note_on,,,,,0,0,2,,,,0,51,114
134522,note_on,,,,,0,0,1,,,,0,71,108
134612,note_off,,,,,90,0,2,,,,0,39,64
134612,note_off,,,,,90,0,1,,,,0,71,64
134612,note_off,,,,,0,0,1,,,,0,75,64
134612,note_off,,,,,0,0,2,,,,0,51,64
134634,control_change,,,,,22,0,1,,64,0,0,,
134642,control_change,,,,,0,0,1,,64,95,0,,
134642,note_on,,,,,0,0,1,,,,0,71,121
134642,note_on,,,,,8,0,1,,,,0,80,121
134642,note_on,,,,,0,0,1,,,,0,75,121
134642,note_on,,,,,0,0,2,,,,0,47,124
134642,note_on,,,,,30,0,2,,,,0,35,124
134720,set_tempo,,,,,620,1,0,253165,,,,,
134882,note_on,,,,,0,0,2,,,,0,47,117
134882,note_on,,,,,0,0,2,,,,0,35,117
134882,note_off,,,,,0,0,2,,,,0,35,64
134882,note_off,,,,,240,0,2,,,,0,47,64
134882,note_on,,,,,0,0,1,,,,0,71,122
134882,note_off,,,,,240,0,1,,,,0,71,64
134882,note_off,,,,,0,0,1,,,,0,75,64
134882,note_off,,,,,0,0,1,,,,0,80,64
134882,note_on,,,,,0,0,1,,,,0,80,122
134882,note_on,,,,,0,0,1,,,,0,75,122
134920,set_tempo,,,,,200,1,0,256410,,,,,
134972,note_off,,,,,90,0,1,,,,0,71,64
134972,note_off,,,,,0,0,1,,,,0,75,64
134972,note_off,,,,,0,0,2,,,,0,35,64
134972,note_off,,,,,90,0,2,,,,0,47,64
134972,note_off,,,,,0,0,1,,,,0,80,64
135002,note_on,,,,,30,0,1,,,,0,83,127
135002,note_on,,,,,0,0,1,,,,0,80,127
135002,note_on,,,,,0,0,2,,,,0,44,127
135002,note_on,,,,,30,0,2,,,,0,32,127
135002,note_on,,,,,0,0,1,,,,0,75,127
135080,set_tempo,,,,,160,1,0,263158,,,,,
135242,note_off,,,,,0,0,2,,,,0,32,64
135242,note_off,,,,,240,0,2,,,,0,44,64
135242,note_on,,,,,0,0,2,,,,0,32,120
135242,note_on,,,,,0,0,2,,,,0,44,120
135242,note_on,,,,,0,0,1,,,,0,83,127
135242,note_off,,,,,0,0,1,,,,0,80,64
135242,note_off,,,,,0,0,1,,,,0,83,64
135242,note_on,,,,,0,0,1,,,,0,80,127
135242,note_on,,,,,0,0,1,,,,0,75,127
135242,note_off,,,,,240,0,1,,,,0,75,64
135264,set_tempo,,,,,184,1,0,266667,,,,,
135284,set_tempo,,,,,20,1,0,267857,,,,,
135324,set_tempo,,,,,40,1,0,363636,,,,,
135332,note_off,,,,,90,0,2,,,,0,44,64
135332,note_off,,,,,90,0,1,,,,0,75,64
135332,note_off,,,,,0,0,1,,,,0,80,64
135332,note_off,,,,,0,0,1,,,,0,83,64
135332,note_off,,,,,0,0,2,,,,0,32,64
135354,control_change,,,,,22,0,1,,64,0,0,,
135360,set_tempo,,,,,36,1,0,416667,,,,,
135362,note_on,,,,,0,0,2,,,,0,46,127
135362,note_on,,,,,30,0,2,,,,0,34,127
135362,control_change,,,,,0,0,1,,64,96,0,,
135362,note_on,,,,,0,0,1,,,,0,74,127
135362,note_on,,,,,0,0,1,,,,0,80,127
135362,note_on,,,,,8,0,1,,,,0,82,127
135452,note_off,,,,,90,0,1,,,,0,74,64
135452,note_off,,,,,0,0,2,,,,0,34,64
135452,note_off,,,,,90,0,2,,,,0,46,64
135452,note_off,,,,,0,0,1,,,,0,80,64
135452,note_off,,,,,0,0,1,,,,0,82,64
135474,control_change,,,,,22,0,1,,64,0,0,,
135480,set_tempo,,,,,120,1,0,294118,,,,,
135482,note_on,,,,,8,0,1,,,,0,68,97
135482,control_change,,,,,0,0,1,,64,96,0,,
135482,note_on,,,,,30,0,2,,,,0,56,100
135580,set_tempo,,,,,100,1,0,263158,,,,,
135602,note_off,,,,,120,0,2,,,,0,56,64
135602,note_off,,,,,120,0,1,,,,0,68,64
135602,note_on,,,,,0,0,1,,,,0,71,101
135602,note_on,,,,,0,0,2,,,,0,59,104
135722,note_off,,,,,120,0,1,,,,0,71,64
135722,note_off,,,,,120,0,2,,,,0,59,64
135722,note_on,,,,,0,0,2,,,,0,58,106
135722,note_on,,,,,0,0,1,,,,0,70,102
135744,set_tempo,,,,,164,1,0,250000,,,,,
135824,set_tempo,,,,,80,1,0,248963,,,,,
135842,note_on,,,,,0,0,2,,,,0,56,108
135842,note_on,,,,,0,0,1,,,,0,68,103
135842,note_off,,,,,120,0,1,,,,0,70,64
135842,note_off,,,,,120,0,2,,,,0,58,64
135904,set_tempo,,,,,80,1,0,247934,,,,,
135944,set_tempo,,,,,40,1,0,246914,,,,,
135962,note_off,,,,,120,0,2,,,,0,56,64
135962,note_on,,,,,0,0,2,,,,0,54,110
135962,note_on,,,,,0,0,1,,,,0,66,108
135962,note_off,,,,,120,0,1,,,,0,68,64
136004,set_tempo,,,,,60,1,0,245902,,,,,
136082,note_off,,,,,120,0,2,,,,0,54,64
136082,note_on,,,,,0,0,2,,,,0,53,112
136082,note_on,,,,,0,0,1,,,,0,65,109
136082,note_off,,,,,120,0,1,,,,0,66,64
136084,set_tempo,,,,,80,1,0,243902,,,,,
136164,set_tempo,,,,,80,1,0,242915,,,,,
136184,set_tempo,,,,,20,1,0,241935,,,,,
136202,note_off,,,,,120,0,1,,,,0,65,64
136202,note_off,,,,,120,0,2,,,,0,53,64
136202,note_on,,,,,0,0,2,,,,0,51,114
136202,note_on,,,,,0,0,1,,,,0,63,111
136244,set_tempo,,,,,60,1,0,240964,,,,,
136284,set_tempo,,,,,40,1,0,240000,,,,,
136322,note_off,,,,,120,0,2,,,,0,51,64
136322,note_on,,,,,0,0,2,,,,0,49,115
136322,note_off,,,,,120,0,1,,,,0,63,64
136322,note_on,,,,,0,0,1,,,,0,61,113
136324,set_tempo,,,,,40,1,0,238095,,,,,
136404,set_tempo,,,,,80,1,0,237154,,,,,
136442,note_on,,,,,0,0,2,,,,0,47,118
136442,note_off,,,,,120,0,2,,,,0,49,64
136442,note_on,,,,,0,0,1,,,,0,59,118
136442,note_off,,,,,120,0,1,,,,0,61,64
136484,set_tempo,,,,,80,1,0,236220,,,,,
136562,note_off,,,,,120,0,1,,,,0,59,64
136562,note_off,,,,,120,0,2,,,,0,47,64
136562,note_on,,,,,0,0,2,,,,0,46,121
136562,note_on,,,,,0,0,1,,,,0,58,120
136564,set_tempo,,,,,80,1,0,235294,,,,,
136644,set_tempo,,,,,80,1,0,234375,,,,,
136682,note_on,,,,,0,0,2,,,,0,45,121
136682,note_on,,,,,0,0,1,,,,0,57,125
136682,note_off,,,,,120,0,1,,,,0,58,64
136682,note_off,,,,,120,0,2,,,,0,46,64
136794,control_change,,,,,112,0,1,,64,0,0,,
136802,note_on,,,,,0,0,2,,,,0,34,127
136802,control_change,,,,,0,0,1,,64,96,0,,
136802,note_on,,,,,0,0,1,,,,0,58,127
136802,note_off,,,,,120,0,2,,,,0,45,64
136802,note_off,,,,,8,0,1,,,,0,57,64
136802,note_on,,,,,0,0,2,,,,0,46,127
136804,set_tempo,,,,,160,1,0,232558,,,,,
136824,set_tempo,,,,,20,1,0,277778,,,,,
136892,note_off,,,,,90,0,1,,,,0,58,64
136892,note_off,,,,,0,0,2,,,,0,34,64
136892,note_off,,,,,90,0,2,,,,0,46,64
136914,control_change,,,,,22,0,1,,64,0,0,,
136922,note_on,,,,,30,0,2,,,,0,56,100
136922,note_on,,,,,8,0,1,,,,0,68,97
136922,control_change,,,,,0,0,1,,64,96,0,,
136924,set_tempo,,,,,100,1,0,243902,,,,,
136944,set_tempo,,,,,20,1,0,242915,,,,,
137004,set_tempo,,,,,60,1,0,241935,,,,,
137042,note_off,,,,,120,0,1,,,,0,68,64
137042,note_on,,,,,0,0,1,,,,0,71,101
137042,note_on,,,,,0,0,2,,,,0,59,104
137042,note_off,,,,,120,0,2,,,,0,56,64
137044,set_tempo,,,,,40,1,0,240964,,,,,
137064,set_tempo,,,,,20,1,0,240000,,,,,
137144,set_tempo,,,,,80,1,0,238095,,,,,
137162,note_on,,,,,0,0,2,,,,0,58,106
137162,note_off,,,,,120,0,1,,,,0,71,64
137162,note_off,,,,,120,0,2,,,,0,59,64
137162,note_on,,,,,0,0,1,,,,0,70,102
137244,set_tempo,,,,,100,1,0,237154,,,,,
137282,note_on,,,,,0,0,2,,,,0,56,108
137282,note_off,,,,,120,0,2,,,,0,58,64
137282,note_off,,,,,120,0,1,,,,0,70,64
137282,note_on,,,,,0,0,1,,,,0,68,103
137384,set_tempo,,,,,140,1,0,236220,,,,,
137402,note_on,,,,,0,0,2,,,,0,54,110
137402,note_off,,,,,120,0,2,,,,0,56,64
137402,note_on,,,,,0,0,1,,,,0,66,108
137402,note_off,,,,,120,0,1,,,,0,68,64
137522,note_on,,,,,0,0,2,,,,0,53,112
137522,note_on,,,,,0,0,1,,,,0,65,109
137522,note_off,,,,,120,0,1,,,,0,66,64
137522,note_off,,,,,120,0,2,,,,0,54,64
137544,set_tempo,,,,,160,1,0,235294,,,,,
137642,note_on,,,,,0,0,1,,,,0,63,111
137642,note_off,,,,,120,0,2,,,,0,53,64
137642,note_on,,,,,0,0,2,,,,0,51,114
137642,note_off,,,,,120,0,1,,,,0,65,64
137744,set_tempo,,,,,200,1,0,234375,,,,,
137762,note_off,,,,,120,0,1,,,,0,63,64
137762,note_on,,,,,0,0,1,,,,0,61,113
137762,note_off,,,,,120,0,2,,,,0,51,64
137762,note_on,,,,,0,0,2,,,,0,49,115
137864,set_tempo,,,,,120,1,0,232558,,,,,
137882,note_off,,,,,120,0,1,,,,0,61,64
137882,note_off,,,,,120,0,2,,,,0,49,64
137882,note_on,,,,,0,0,1,,,,0,59,118
137882,note_on,,,,,0,0,2,,,,0,47,118
138002,note_off,,,,,120,0,2,,,,0,47,64
138002,note_on,,,,,0,0,1,,,,0,58,120
138002,note_off,,,,,120,0,1,,,,0,59,64
138002,note_on,,,,,0,0,2,,,,0,46,121
138004,set_tempo,,,,,140,1,0,231660,,,,,
138122,note_on,,,,,0,0,2,,,,0,45,121
138122,note_on,,,,,0,0,1,,,,0,57,125
138122,note_off,,,,,120,0,1,,,,0,58,64
138122,note_off,,,,,120,0,2,,,,0,46,64
138144,set_tempo,,,,,140,1,0,230769,,,,,
138234,control_change,,,,,112,0,1,,64,0,0,,
138242,note_off,,,,,120,0,2,,,,0,45,64
138242,note_on,,,,,0,0,2,,,,0,34,127
138242,control_change,,,,,0,0,1,,64,96,0,,
138242,note_on,,,,,0,0,1,,,,0,58,127
138242,note_off,,,,,8,0,1,,,,0,57,64
138242,note_on,,,,,0,0,2,,,,0,46,127
138244,set_tempo,,,,,100,1,0,229885,,,,,
138264,set_tempo,,,,,20,1,0,277778,,,,,
138332,note_off,,,,,90,0,2,,,,0,34,64
138332,note_off,,,,,0,0,2,,,,0,46,64
138332,note_off,,,,,90,0,1,,,,0,58,64
138354,control_change,,,,,22,0,1,,64,0,0,,
138362,note_on,,,,,30,0,2,,,,0,44,100
138362,note_on,,,,,8,0,1,,,,0,56,97
138362,control_change,,,,,0,0,1,,64,96,0,,
138364,set_tempo,,,,,100,1,0,241935,,,,,
138404,set_tempo,,,,,40,1,0,240964,,,,,
138424,set_tempo,,,,,20,1,0,240000,,,,,
138482,note_on,,,,,0,0,1,,,,0,59,101
138482,note_off,,,,,120,0,1,,,,0,56,64
138482,note_off,,,,,120,0,2,,,,0,44,64
138482,note_on,,,,,0,0,2,,,,0,47,104
138564,set_tempo,,,,,140,1,0,238095,,,,,
138602,note_off,,,,,120,0,1,,,,0,59,64
138602,note_on,,,,,0,0,2,,,,0,46,106
138602,note_off,,,,,120,0,2,,,,0,47,64
138602,note_on,,,,,0,0,1,,,,0,58,102
138644,set_tempo,,,,,80,1,0,237154,,,,,
138722,note_on,,,,,0,0,2,,,,0,44,108
138722,note_off,,,,,120,0,1,,,,0,58,64
138722,note_on,,,,,0,0,1,,,,0,56,103
138722,note_off,,,,,120,0,2,,,,0,46,64
138744,set_tempo,,,,,100,1,0,236220,,,,,
138842,note_off,,,,,120,0,2,,,,0,44,64
138842,note_off,,,,,120,0,1,,,,0,56,64
138842,note_on,,,,,0,0,1,,,,0,54,108
138842,note_on,,,,,0,0,2,,,,0,42,110
138924,set_tempo,,,,,180,1,0,235294,,,,,
138962,note_off,,,,,120,0,2,,,,0,42,64
138962,note_on,,,,,0,0,2,,,,0,41,112
138962,note_on,,,,,0,0,1,,,,0,53,109
138962,note_off,,,,,120,0,1,,,,0,54,64
139024,set_tempo,,,,,100,1,0,234375,,,,,
139082,note_off,,,,,120,0,2,,,,0,41,64
139082,note_on,,,,,0,0,2,,,,0,39,114
139082,note_on,,,,,0,0,1,,,,0,51,111
139082,note_off,,,,,120,0,1,,,,0,53,64
139124,set_tempo,,,,,100,1,0,232558,,,,,
139202,note_on,,,,,0,0,1,,,,0,49,113
139202,note_off,,,,,120,0,2,,,,0,39,64
139202,note_on,,,,,0,0,2,,,,0,37,115
139202,note_off,,,,,120,0,1,,,,0,51,64
139264,set_tempo,,,,,140,1,0,231660,,,,,
139322,note_off,,,,,120,0,2,,,,0,37,64
139322,note_on,,,,,0,0,2,,,,0,35,118
139322,note_on,,,,,0,0,1,,,,0,47,118
139322,note_off,,,,,120,0,1,,,,0,49,64
139344,set_tempo,,,,,80,1,0,230769,,,,,
139442,note_on,,,,,0,0,1,,,,0,46,120
139442,note_off,,,,,120,0,1,,,,0,47,64
139442,note_off,,,,,120,0,2,,,,0,35,64
139442,note_on,,,,,0,0,2,,,,0,34,121
139484,set_tempo,,,,,140,1,0,229885,,,,,
139562,note_on,,,,,0,0,1,,,,0,45,125
139562,note_off,,,,,120,0,2,,,,0,34,64
139562,note_on,,,,,0,0,2,,,,0,33,121
139562,note_off,,,,,120,0,1,,,,0,46,64
139644,set_tempo,,,,,160,1,0,229008,,,,,
139674,control_change,,,,,112,0,1,,64,0,0,,
139682,note_off,,,,,120,0,2,,,,0,33,64
139682,note_on,,,,,0,0,2,,,,0,34,127
139682,note_off,,,,,8,0,1,,,,0,45,64
139682,note_on,,,,,0,0,1,,,,0,46,127
139704,set_tempo,,,,,60,1,0,280374,,,,,
139744,set_tempo,,,,,40,1,0,227273,,,,,
139802,note_off,,,,,120,0,2,,,,0,34,64
139802,note_off,,,,,120,0,1,,,,0,46,64
139802,note_on,,,,,0,0,1,,,,0,48,126
139802,note_on,,,,,0,0,2,,,,0,36,126
139922,note_on,,,,,0,0,2,,,,0,38,126
139922,note_off,,,,,120,0,2,,,,0,36,64
139922,note_on,,,,,0,0,1,,,,0,50,126
139922,note_off,,,,,120,0,1,,,,0,48,64
140042,note_on,,,,,0,0,1,,,,0,51,124
140042,note_off,,,,,120,0,1,,,,0,50,64
140042,note_off,,,,,120,0,2,,,,0,38,64
140042,note_on,,,,,0,0,2,,,,0,39,124
140100,set_tempo,,,,,356,1,0,230769,,,,,
140162,note_on,,,,,0,0,1,,,,0,53,122
140162,note_off,,,,,120,0,1,,,,0,51,64
140162,note_off,,,,,120,0,2,,,,0,39,64
140162,note_on,,,,,0,0,2,,,,0,41,122
140280,set_tempo,,,,,180,1,0,236220,,,,,
140282,note_off,,,,,120,0,2,,,,0,41,64
140282,note_on,,,,,0,0,2,,,,0,42,121
140282,note_off,,,,,120,0,1,,,,0,53,64
140282,note_on,,,,,0,0,1,,,,0,54,121
140402,note_off,,,,,120,0,1,,,,0,54,64
140402,note_on,,,,,0,0,1,,,,0,56,120
140402,note_off,,,,,120,0,2,,,,0,42,64
140402,note_on,,,,,0,0,2,,,,0,44,120
140440,set_tempo,,,,,160,1,0,240964,,,,,
140522,note_off,,,,,120,0,1,,,,0,56,64
140522,note_on,,,,,0,0,1,,,,0,58,117
140522,note_on,,,,,0,0,2,,,,0,46,117
140522,note_off,,,,,120,0,2,,,,0,44,64
140560,set_tempo,,,,,120,1,0,243902,,,,,
140642,note_off,,,,,120,0,1,,,,0,58,64
140642,note_on,,,,,0,0,1,,,,0,60,115
140642,note_on,,,,,0,0,2,,,,0,48,115
140642,note_off,,,,,120,0,2,,,,0,46,64
140762,note_on,,,,,0,0,1,,,,0,62,115
140762,note_off,,,,,120,0,1,,,,0,60,64
140762,note_off,,,,,120,0,2,,,,0,48,64
140762,note_on,,,,,0,0,2,,,,0,50,115
140800,set_tempo,,,,,240,1,0,250000,,,,,
140882,note_off,,,,,120,0,2,,,,0,50,64
140882,note_on,,,,,0,0,2,,,,0,51,113
140882,note_off,,,,,120,0,1,,,,0,62,64
140882,note_on,,,,,0,0,1,,,,0,63,113
140940,set_tempo,,,,,140,1,0,254237,,,,,
141002,note_on,,,,,0,0,1,,,,0,65,107
141002,note_off,,,,,120,0,2,,,,0,51,64
141002,note_on,,,,,0,0,2,,,,0,53,107
141002,note_off,,,,,120,0,1,,,,0,63,64
141122,note_off,,,,,120,0,1,,,,0,65,64
141122,note_on,,,,,0,0,1,,,,0,66,107
141122,note_off,,,,,120,0,2,,,,0,53,64
141122,note_on,,,,,0,0,2,,,,0,54,107
141160,set_tempo,,,,,220,1,0,259740,,,,,
141242,note_on,,,,,0,0,2,,,,0,56,97
141242,note_off,,,,,120,0,2,,,,0,54,64
141242,note_off,,,,,120,0,1,,,,0,66,64
141242,note_on,,,,,0,0,1,,,,0,68,97
141320,set_tempo,,,,,160,1,0,266667,,,,,
141362,note_on,,,,,0,0,2,,,,0,58,96
141362,note_off,,,,,120,0,2,,,,0,56,64
141362,note_off,,,,,120,0,1,,,,0,68,64
141362,note_on,,,,,0,0,1,,,,0,70,96
141440,set_tempo,,,,,120,1,0,275229,,,,,
141482,note_on,,,,,0,0,2,,,,0,60,90
141482,note_off,,,,,120,0,2,,,,0,58,64
141482,note_on,,,,,0,0,1,,,,0,72,90
141482,note_off,,,,,120,0,1,,,,0,70,64
141602,note_off,,,,,120,0,1,,,,0,72,64
141602,note_on,,,,,0,0,2,,,,0,62,85
141602,note_off,,,,,120,0,2,,,,0,60,64
141602,note_on,,,,,0,0,1,,,,0,74,85
141720,set_tempo,,,,,280,1,0,288462,,,,,
141722,note_on,,,,,0,0,1,,,,0,75,78
141722,note_off,,,,,120,0,1,,,,0,74,64
141722,note_on,,,,,0,0,2,,,,0,63,78
141722,note_off,,,,,120,0,2,,,,0,62,64
141740,set_tempo,,,,,20,1,0,289855,,,,,
141842,note_on,,,,,0,0,1,,,,0,77,76
141842,note_on,,,,,0,0,2,,,,0,65,76
141842,note_off,,,,,120,0,2,,,,0,63,64
141842,note_off,,,,,120,0,1,,,,0,75,64
141900,set_tempo,,,,,160,1,0,297030,,,,,
141962,note_off,,,,,120,0,1,,,,0,77,64
141962,note_on,,,,,0,0,1,,,,0,78,66
142040,set_tempo,,,,,140,1,0,307692,,,,,
142082,note_off,,,,,240,0,2,,,,0,65,64
142082,note_off,,,,,120,0,1,,,,0,78,64
142082,note_on,,,,,0,0,1,,,,0,80,59
142180,set_tempo,,,,,140,1,0,309278,,,,,
142200,set_tempo,,,,,20,1,0,329670,,,,,
142202,note_on,,,,,0,0,1,,,,0,82,55
142202,note_off,,,,,120,0,1,,,,0,80,64
142202,note_on,,,,,120,0,2,,,,0,46,37
142320,set_tempo,,,,,120,1,0,338983,,,,,
142322,note_on,,,,,0,0,2,,,,0,45,40
142322,note_on,,,,,0,0,1,,,,0,84,55
142322,note_off,,,,,120,0,1,,,,0,82,64
142322,note_off,,,,,120,0,2,,,,0,46,64
142440,set_tempo,,,,,120,1,0,357143,,,,,
142442,note_on,,,,,0,0,1,,,,0,86,65
142442,note_off,,,,,120,0,1,,,,0,84,64
142442,note_on,,,,,0,0,2,,,,0,44,46
142442,note_off,,,,,120,0,2,,,,0,45,64
142560,note_on,,,,,118,0,2,,,,0,42,52
142560,note_on,,,,,118,0,1,,,,0,94,68
142560,note_on,,,,,0,0,1,,,,0,87,68
142562,note_off,,,,,2,0,1,,,,0,86,64
142562,note_off,,,,,2,0,2,,,,0,44,64
142620,set_tempo,,,,,180,1,0,348837,,,,,
142640,set_tempo,,,,,20,1,0,340909,,,,,
142660,set_tempo,,,,,20,1,0,326087,,,,,
142680,note_off,,,,,118,0,2,,,,0,42,64
142680,set_tempo,,,,,20,1,0,315789,,,,,
142680,note_on,,,,,0,0,2,,,,0,41,44
142720,set_tempo,,,,,40,1,0,303030,,,,,
142740,set_tempo,,,,,20,1,0,292683,,,,,
142780,set_tempo,,,,,40,1,0,284360,,,,,
142800,note_on,,,,,0,0,2,,,,0,42,39
142800,note_off,,,,,238,0,1,,,,0,87,64
142800,note_off,,,,,0,0,1,,,,0,94,64
142800,set_tempo,,,,,20,1,0,272727,,,,,
142800,note_off,,,,,120,0,2,,,,0,41,64
142880,set_tempo,,,,,80,1,0,262009,,,,,
142920,note_on,,,,,0,0,2,,,,0,46,36
142920,note_off,,,,,120,0,2,,,,0,42,64
142920,note_on,,,,,120,0,1,,,,0,87,58
143000,set_tempo,,,,,120,1,0,259740,,,,,
143040,note_on,,,,,0,0,2,,,,0,45,41
143040,note_off,,,,,120,0,2,,,,0,46,64
143160,note_on,,,,,0,0,2,,,,0,46,45
143160,note_off,,,,,120,0,2,,,,0,45,64
143160,note_off,,,,,240,0,1,,,,0,87,64
143220,set_tempo,,,,,220,1,0,255319,,,,,
143280,note_on,,,,,120,0,1,,,,0,70,63
143280,note_on,,,,,0,0,2,,,,0,42,50
143280,note_off,,,,,120,0,2,,,,0,46,64
143400,note_off,,,,,120,0,2,,,,0,42,64
143400,note_on,,,,,0,0,2,,,,0,41,47
143520,note_off,,,,,120,0,2,,,,0,41,64
143520,note_off,,,,,240,0,1,,,,0,70,64
143520,note_on,,,,,0,0,2,,,,0,42,45
143620,set_tempo,,,,,400,1,0,250000,,,,,
143640,note_on,,,,,120,0,1,,,,0,63,56
143640,note_on,,,,,0,0,2,,,,0,46,41
143640,note_off,,,,,120,0,2,,,,0,42,64
143760,note_on,,,,,0,0,2,,,,0,45,44
143760,note_off,,,,,120,0,2,,,,0,46,64
143880,note_on,,,,,0,0,2,,,,0,46,48
143880,note_off,,,,,120,0,2,,,,0,45,64
143880,note_off,,,,,240,0,1,,,,0,63,64
144000,note_on,,,,,0,0,2,,,,0,44,54
144000,note_on,,,,,120,0,1,,,,0,87,59
144000,note_on,,,,,0,0,1,,,,0,75,59
144000,note_off,,,,,120,0,2,,,,0,46,64
144000,set_tempo,,,,,380,1,0,248963,,,,,
144120,note_off,,,,,120,0,2,,,,0,44,64
144120,note_on,,,,,0,0,2,,,,0,43,46
144240,note_off,,,,,120,0,2,,,,0,43,64
144240,note_on,,,,,0,0,2,,,,0,44,43
144360,note_off,,,,,120,0,2,,,,0,44,64
144360,note_on,,,,,0,0,2,,,,0,47,39
144460,set_tempo,,,,,460,1,0,245902,,,,,
144480,note_on,,,,,0,0,2,,,,0,46,39
144480,note_off,,,,,120,0,2,,,,0,47,64
144600,note_on,,,,,0,0,2,,,,0,47,45
144600,note_off,,,,,0,0,1,,,,0,87,64
144600,note_off,,,,,600,0,1,,,,0,75,64
144600,note_off,,,,,120,0,2,,,,0,46,64
144720,note_on,,,,,0,0,2,,,,0,44,49
144720,note_off,,,,,120,0,2,,,,0,47,64
144720,note_on,,,,,120,0,1,,,,0,80,59
144720,note_on,,,,,0,0,1,,,,0,68,59
144840,note_off,,,,,120,0,2,,,,0,44,64
144840,note_on,,,,,0,0,2,,,,0,43,44
144880,set_tempo,,,,,420,1,0,241935,,,,,
144960,note_off,,,,,120,0,2,,,,0,43,64
144960,note_on,,,,,0,0,2,,,,0,44,43
145080,note_off,,,,,120,0,2,,,,0,44,64
145080,note_on,,,,,0,0,2,,,,0,47,40
145200,note_off,,,,,120,0,2,,,,0,47,64
145200,note_on,,,,,0,0,2,,,,0,46,39
145320,note_off,,,,,120,0,2,,,,0,46,64
145320,note_on,,,,,0,0,2,,,,0,47,36
145320,note_off,,,,,600,0,1,,,,0,68,64
145320,note_off,,,,,0,0,1,,,,0,80,64
145440,note_on,,,,,120,0,1,,,,0,78,46
145440,note_on,,,,,0,0,2,,,,0,46,41
145440,set_tempo,,,,,560,1,0,240964,,,,,
145440,note_off,,,,,120,0,2,,,,0,47,64
145560,note_on,,,,,0,0,2,,,,0,45,38
145560,note_off,,,,,120,0,2,,,,0,46,64
145680,note_on,,,,,0,0,2,,,,0,46,36
145680,note_off,,,,,120,0,2,,,,0,45,64
145680,note_off,,,,,240,0,1,,,,0,78,64
145800,note_on,,,,,120,0,1,,,,0,82,50
145800,note_off,,,,,120,0,2,,,,0,46,64
145800,note_on,,,,,0,0,1,,,,0,70,50
145800,note_on,,,,,0,0,2,,,,0,51,38
145920,note_on,,,,,0,0,2,,,,0,50,36
145920,note_off,,,,,120,0,2,,,,0,51,64
145940,set_tempo,,,,,500,1,0,237154,,,,,
146040,note_off,,,,,240,0,1,,,,0,70,64
146040,note_on,,,,,0,0,2,,,,0,51,33
146040,note_off,,,,,120,0,2,,,,0,50,64
146040,note_off,,,,,0,0,1,,,,0,82,64
146160,note_on,,,,,0,0,2,,,,0,46,40
146160,note_off,,,,,120,0,2,,,,0,51,64
146160,note_on,,,,,120,0,1,,,,0,65,47
146280,note_on,,,,,0,0,2,,,,0,45,39
146280,note_off,,,,,120,0,2,,,,0,46,64
146300,set_tempo,,,,,360,1,0,236220,,,,,
146400,note_off,,,,,240,0,1,,,,0,65,64
146400,note_on,,,,,0,0,2,,,,0,46,34
146400,note_off,,,,,120,0,2,,,,0,45,64
146520,note_off,,,,,120,0,2,,,,0,46,64
146520,note_on,,,,,0,0,2,,,,0,50,40
146520,note_on,,,,,120,0,1,,,,0,70,56
146640,note_on,,,,,0,0,2,,,,0,49,35
146640,note_off,,,,,120,0,2,,,,0,50,64
146760,note_off,,,,,120,0,2,,,,0,49,64
146760,note_off,,,,,240,0,1,,,,0,70,64
146760,note_on,,,,,0,0,2,,,,0,50,32
146880,note_on,,,,,120,0,1,,,,0,94,68
146880,note_off,,,,,120,0,2,,,,0,50,64
146880,note_on,,,,,0,0,2,,,,0,42,52
147000,note_off,,,,,120,0,2,,,,0,42,64
147000,note_off,,,,,120,0,1,,,,0,94,64
147000,note_on,,,,,0,0,1,,,,0,93,58
147000,note_on,,,,,0,0,2,,,,0,41,44
147120,note_off,,,,,120,0,1,,,,0,93,64
147120,note_on,,,,,0,0,1,,,,0,94,56
147120,note_on,,,,,0,0,2,,,,0,42,39
147120,note_off,,,,,120,0,2,,,,0,41,64
147240,note_on,,,,,0,0,2,,,,0,46,36
147240,note_off,,,,,120,0,2,,,,0,42,64
147240,note_on,,,,,0,0,1,,,,0,87,53
147240,note_off,,,,,120,0,1,,,,0,94,64
147360,note_off,,,,,120,0,2,,,,0,46,64
147360,note_on,,,,,0,0,2,,,,0,45,41
147480,note_on,,,,,0,0,2,,,,0,46,45
147480,note_off,,,,,240,0,1,,,,0,87,64
147480,note_off,,,,,120,0,2,,,,0,45,64
147600,note_off,,,,,120,0,2,,,,0,46,64
147600,note_on,,,,,0,0,2,,,,0,42,50
147600,note_on,,,,,120,0,1,,,,0,70,68
147720,note_off,,,,,120,0,2,,,,0,42,64
147720,note_on,,,,,0,0,2,,,,0,41,47
147720,note_off,,,,,120,0,1,,,,0,70,64
147720,note_on,,,,,0,0,1,,,,0,69,58
147840,note_off,,,,,120,0,2,,,,0,41,64
147840,note_on,,,,,0,0,2,,,,0,42,45
147840,note_on,,,,,0,0,1,,,,0,70,56
147840,note_off,,,,,120,0,1,,,,0,69,64
147960,note_off,,,,,120,0,2,,,,0,42,64
147960,note_on,,,,,0,0,2,,,,0,46,41
147960,note_on,,,,,0,0,1,,,,0,63,56
147960,note_off,,,,,120,0,1,,,,0,70,64
148080,note_off,,,,,120,0,2,,,,0,46,64
148080,note_on,,,,,0,0,2,,,,0,45,44
148200,note_off,,,,,120,0,2,,,,0,45,64
148200,note_on,,,,,0,0,2,,,,0,46,48
148200,note_off,,,,,240,0,1,,,,0,63,64
148220,set_tempo,,,,,1920,1,0,234375,,,,,
148320,note_on,,,,,0,0,2,,,,0,43,43
148320,note_off,,,,,120,0,2,,,,0,46,64
148320,note_on,,,,,120,0,1,,,,0,87,45
148440,note_on,,,,,0,0,2,,,,0,42,46
148440,note_on,,,,,0,0,1,,,,0,86,51
148440,note_off,,,,,120,0,1,,,,0,87,64
148440,note_off,,,,,120,0,2,,,,0,43,64
148560,note_off,,,,,120,0,2,,,,0,42,64
148560,note_off,,,,,120,0,1,,,,0,86,64
148560,note_on,,,,,0,0,1,,,,0,85,56
148560,note_on,,,,,0,0,2,,,,0,43,48
148680,note_on,,,,,0,0,1,,,,0,84,60
148680,note_off,,,,,120,0,1,,,,0,85,64
148680,note_on,,,,,0,0,2,,,,0,46,50
148680,note_off,,,,,120,0,2,,,,0,43,64
148800,note_on,,,,,0,0,2,,,,0,43,53
148800,note_off,,,,,120,0,1,,,,0,84,64
148800,note_on,,,,,0,0,1,,,,0,83,64
148800,note_off,,,,,120,0,2,,,,0,46,64
148920,note_off,,,,,120,0,2,,,,0,43,64
148920,note_on,,,,,0,0,2,,,,0,46,54
148920,note_on,,,,,0,0,1,,,,0,82,66
148920,note_off,,,,,120,0,1,,,,0,83,64
149040,note_off,,,,,120,0,2,,,,0,46,64
149040,note_on,,,,,0,0,2,,,,0,44,56
149040,note_on,,,,,0,0,1,,,,0,81,66
149040,note_off,,,,,120,0,1,,,,0,82,64
149160,note_off,,,,,120,0,2,,,,0,44,64
149160,note_off,,,,,120,0,1,,,,0,81,64
149160,note_on,,,,,0,0,1,,,,0,80,66
149160,note_on,,,,,0,0,2,,,,0,43,56
149280,note_off,,,,,120,0,1,,,,0,80,64
149280,note_on,,,,,0,0,2,,,,0,44,52
149280,note_off,,,,,120,0,2,,,,0,43,64
149280,note_on,,,,,0,0,1,,,,0,79,63
149400,note_off,,,,,120,0,1,,,,0,79,64
149400,note_on,,,,,0,0,1,,,,0,80,61
149400,note_off,,,,,120,0,2,,,,0,44,64
149400,note_on,,,,,0,0,2,,,,0,51,48
149520,note_off,,,,,120,0,1,,,,0,80,64
149520,note_on,,,,,0,0,1,,,,0,82,57
149520,note_on,,,,,0,0,2,,,,0,44,47
149520,note_off,,,,,120,0,2,,,,0,51,64
149640,note_on,,,,,0,0,2,,,,0,51,44
149640,note_off,,,,,120,0,1,,,,0,82,64
149640,note_on,,,,,0,0,1,,,,0,83,55
149640,note_off,,,,,120,0,2,,,,0,44,64
149760,note_off,,,,,120,0,2,,,,0,51,64
149760,note_on,,,,,0,0,2,,,,0,46,42
149760,note_on,,,,,0,0,1,,,,0,82,51
149760,note_off,,,,,120,0,1,,,,0,83,64
149880,note_off,,,,,120,0,2,,,,0,46,64
149880,note_on,,,,,0,0,2,,,,0,45,38
149980,set_tempo,,,,,1760,1,0,230769,,,,,
150000,note_on,,,,,0,0,2,,,,0,46,36
150000,note_off,,,,,240,0,1,,,,0,82,64
150000,note_off,,,,,120,0,2,,,,0,45,64
150120,note_off,,,,,120,0,2,,,,0,46,64
150120,note_on,,,,,0,0,2,,,,0,51,38
150120,note_on,,,,,120,0,1,,,,0,78,44
150120,note_on,,,,,0,0,1,,,,0,66,44
150240,note_off,,,,,120,0,2,,,,0,51,64
150240,note_on,,,,,0,0,2,,,,0,46,36
150360,note_off,,,,,120,0,2,,,,0,46,64
150360,note_off,,,,,240,0,1,,,,0,66,64
150360,note_off,,,,,0,0,1,,,,0,78,64
150360,note_on,,,,,0,0,2,,,,0,51,33
150480,note_on,,,,,120,0,1,,,,0,77,51
150480,note_on,,,,,0,0,1,,,,0,65,51
150480,note_on,,,,,0,0,2,,,,0,46,40
150480,note_off,,,,,120,0,2,,,,0,51,64
150600,note_off,,,,,120,0,2,,,,0,46,64
150600,note_on,,,,,0,0,2,,,,0,45,39
150620,set_tempo,,,,,640,1,0,229008,,,,,
150720,note_off,,,,,240,0,1,,,,0,65,64
150720,note_off,,,,,120,0,2,,,,0,45,64
150720,note_off,,,,,0,0,1,,,,0,77,64
150720,note_on,,,,,0,0,2,,,,0,46,34
150840,note_on,,,,,0,0,2,,,,0,50,40
150840,note_off,,,,,120,0,2,,,,0,46,64
150840,note_on,,,,,0,0,1,,,,0,70,51
150840,note_on,,,,,120,0,1,,,,0,82,51
150960,note_on,,,,,0,0,2,,,,0,49,35
150960,note_off,,,,,120,0,2,,,,0,50,64
151080,note_on,,,,,0,0,2,,,,0,50,32
151080,note_off,,,,,120,0,2,,,,0,49,64
151080,note_off,,,,,0,0,1,,,,0,82,64
151080,note_off,,,,,240,0,1,,,,0,70,64
151200,note_on,,,,,0,0,2,,,,0,46,41
151200,note_on,,,,,120,0,1,,,,0,66,33
151200,note_off,,,,,120,0,2,,,,0,50,64
151320,note_off,,,,,120,0,2,,,,0,46,64
151320,note_on,,,,,0,0,2,,,,0,45,38
151320,note_off,,,,,120,0,1,,,,0,66,64
151320,note_on,,,,,0,0,1,,,,0,65,37
151440,note_off,,,,,120,0,1,,,,0,65,64
151440,note_on,,,,,0,0,1,,,,0,66,41
151440,note_on,,,,,0,0,2,,,,0,46,36
151440,note_off,,,,,120,0,2,,,,0,45,64
151560,note_off,,,,,120,0,2,,,,0,46,64
151560,note_on,,,,,0,0,2,,,,0,51,38
151560,note_on,,,,,0,0,1,,,,0,70,43
151560,note_off,,,,,120,0,1,,,,0,66,64
151660,set_tempo,,,,,1040,1,0,232558,,,,,
151680,note_off,,,,,120,0,2,,,,0,51,64
151680,note_on,,,,,0,0,2,,,,0,46,36
151800,note_off,,,,,240,0,1,,,,0,70,64
151800,note_off,,,,,120,0,2,,,,0,46,64
151800,note_on,,,,,0,0,2,,,,0,51,33
151920,note_on,,,,,120,0,1,,,,0,65,30
151920,note_off,,,,,120,0,2,,,,0,51,64
151920,note_on,,,,,0,0,2,,,,0,46,36
151940,set_tempo,,,,,280,1,0,237154,,,,,
152040,note_off,,,,,120,0,2,,,,0,46,64
152040,note_on,,,,,0,0,2,,,,0,45,34
152040,note_on,,,,,0,0,1,,,,0,64,33
152040,note_off,,,,,120,0,1,,,,0,65,64
152080,set_tempo,,,,,140,1,0,240964,,,,,
152160,note_off,,,,,120,0,1,,,,0,64,64
152160,note_on,,,,,0,0,1,,,,0,65,36
152160,note_on,,,,,0,0,2,,,,0,46,33
152160,note_off,,,,,120,0,2,,,,0,45,64
152220,set_tempo,,,,,140,1,0,245902,,,,,
152280,note_off,,,,,120,0,1,,,,0,65,64
152280,note_on,,,,,0,0,2,,,,0,50,32
152280,note_off,,,,,120,0,2,,,,0,46,64
152280,note_on,,,,,0,0,1,,,,0,70,40
152400,note_on,,,,,0,0,2,,,,0,49,32
152400,note_off,,,,,120,0,2,,,,0,50,64
152500,set_tempo,,,,,280,1,0,250000,,,,,
152520,note_on,,,,,0,0,2,,,,0,50,30
152520,note_off,,,,,120,0,2,,,,0,49,64
152520,note_off,,,,,240,0,1,,,,0,70,64
152640,note_on,,,,,120,0,1,,,,0,54,28
152640,note_on,,,,,0,0,2,,,,0,46,34
152640,note_off,,,,,120,0,2,,,,0,50,64
152740,set_tempo,,,,,240,1,0,256410,,,,,
152760,note_off,,,,,120,0,2,,,,0,46,64
152760,note_off,,,,,120,0,1,,,,0,54,64
152760,note_on,,,,,0,0,1,,,,0,53,33
152760,note_on,,,,,0,0,2,,,,0,45,32
152880,note_on,,,,,0,0,2,,,,0,46,30
152880,note_off,,,,,120,0,1,,,,0,53,64
152880,note_on,,,,,0,0,1,,,,0,54,37
152880,note_off,,,,,120,0,2,,,,0,45,64
153000,note_off,,,,,120,0,2,,,,0,46,64
153000,note_off,,,,,120,0,1,,,,0,54,64
153000,note_on,,,,,0,0,1,,,,0,58,39
153000,note_on,,,,,0,0,2,,,,0,51,29
153020,set_tempo,,,,,280,1,0,262009,,,,,
153120,note_off,,,,,120,0,2,,,,0,51,64
153120,note_on,,,,,0,0,2,,,,0,46,28
153140,set_tempo,,,,,120,1,0,267857,,,,,
153240,note_on,,,,,0,0,2,,,,0,51,28
153240,note_off,,,,,240,0,1,,,,0,58,64
153240,set_tempo,,,,,100,1,0,273973,,,,,
153240,note_off,,,,,120,0,2,,,,0,46,64
153360,note_off,,,,,120,0,2,,,,0,51,64
153360,note_on,,,,,0,0,2,,,,0,46,28
153360,note_on,,,,,120,0,1,,,,0,53,26
153400,set_tempo,,,,,160,1,0,292683,,,,,
153480,note_off,,,,,120,0,2,,,,0,46,64
153480,note_off,,,,,120,0,1,,,,0,53,64
153480,note_on,,,,,0,0,2,,,,0,45,31
153480,note_on,,,,,0,0,1,,,,0,52,30
153500,set_tempo,,,,,100,1,0,307692,,,,,
153520,set_tempo,,,,,20,1,0,312500,,,,,
153540,set_tempo,,,,,20,1,0,317460,,,,,
153600,note_off,,,,,120,0,1,,,,0,52,64
153600,note_on,,,,,0,0,1,,,,0,53,32
153600,note_on,,,,,0,0,2,,,,0,46,28
153600,note_off,,,,,120,0,2,,,,0,45,64
153640,set_tempo,,,,,100,1,0,338983,,,,,
153660,set_tempo,,,,,20,1,0,361446,,,,,
153720,note_off,,,,,120,0,2,,,,0,46,64
153720,note_on,,,,,0,0,2,,,,0,50,27
153720,note_off,,,,,120,0,1,,,,0,53,64
153720,note_on,,,,,0,0,1,,,,0,58,37
153720,set_tempo,,,,,60,1,0,392157,,,,,
153740,set_tempo,,,,,20,1,0,410959,,,,,
153840,note_off,,,,,120,0,2,,,,0,50,64
153840,note_on,,,,,0,0,2,,,,0,49,25
153860,set_tempo,,,,,120,1,0,454545,,,,,
153940,set_tempo,,,,,80,1,0,491803,,,,,
153960,note_off,,,,,120,0,2,,,,0,49,64
153960,note_on,,,,,0,0,2,,,,0,50,24
153960,note_off,,,,,240,0,1,,,,0,58,64
154020,set_tempo,,,,,80,1,0,500000,,,,,
154040,set_tempo,,,,,20,1,0,508475,,,,,
154060,set_tempo,,,,,20,1,0,389610,,,,,
154080,note_on,,,,,0,0,2,,,,0,51,38
154080,note_off,,,,,120,0,2,,,,0,50,64
154180,set_tempo,,,,,120,1,0,350877,,,,,
154200,note_on,,,,,0,0,2,,,,0,50,32
154200,note_off,,,,,120,0,2,,,,0,51,64
154260,set_tempo,,,,,80,1,0,307692,,,,,
154320,set_tempo,,,,,60,1,0,297030,,,,,
154320,note_on,,,,,0,0,2,,,,0,51,35
154320,note_off,,,,,120,0,2,,,,0,50,64
154420,set_tempo,,,,,100,1,0,284360,,,,,
154440,note_on,,,,,0,0,2,,,,0,55,38
154440,note_off,,,,,120,0,2,,,,0,51,64
154440,note_on,,,,,0,0,2,,,,0,58,38
154440,control_change,,,,,480,0,1,,64,95,0,,
154560,set_tempo,,,,,140,1,0,273973,,,,,
154740,set_tempo,,,,,180,1,0,272727,,,,,
154792,control_change,,,,,352,0,1,,64,0,0,,
154800,note_off,,,,,360,0,2,,,,0,58,64
154800,note_off,,,,,0,0,2,,,,0,55,64
154800,note_on,,,,,0,0,2,,,,0,51,29
154800,note_on,,,,,8,0,1,,,,0,79,46
154800,note_on,,,,,0,0,1,,,,0,67,46
154900,set_tempo,,,,,160,1,0,270270,,,,,
154920,set_tempo,,,,,20,1,0,266667,,,,,
154920,note_on,,,,,0,0,2,,,,0,50,31
154920,note_off,,,,,120,0,2,,,,0,51,64
155000,set_tempo,,,,,80,1,0,262009,,,,,
155040,note_off,,,,,120,0,2,,,,0,50,64
155040,note_on,,,,,0,0,2,,,,0,51,34
155160,note_on,,,,,0,0,2,,,,0,58,38
155160,note_on,,,,,0,0,2,,,,0,55,38
155160,note_off,,,,,120,0,2,,,,0,51,64
155160,control_change,,,,,360,0,1,,64,95,0,,
155180,set_tempo,,,,,180,1,0,259740,,,,,
155320,set_tempo,,,,,140,1,0,254237,,,,,
155512,control_change,,,,,352,0,1,,64,0,0,,
155520,note_on,,,,,0,0,1,,,,0,63,40
155520,note_on,,,,,0,0,1,,,,0,75,40
155520,note_off,,,,,0,0,1,,,,0,79,64
155520,note_off,,,,,360,0,2,,,,0,58,64
155520,note_off,,,,,0,0,2,,,,0,55,64
155520,note_on,,,,,0,0,2,,,,0,51,31
155520,note_off,,,,,8,0,1,,,,0,67,64
155540,set_tempo,,,,,220,1,0,253165,,,,,
155640,note_on,,,,,0,0,2,,,,0,50,33
155640,note_off,,,,,120,0,2,,,,0,51,64
155760,note_on,,,,,0,0,2,,,,0,51,37
155760,note_off,,,,,120,0,2,,,,0,50,64
155780,set_tempo,,,,,240,1,0,248963,,,,,
155880,note_on,,,,,0,0,2,,,,0,58,40
155880,note_off,,,,,120,0,2,,,,0,51,64
155880,note_on,,,,,0,0,2,,,,0,55,40
155940,set_tempo,,,,,160,1,0,245902,,,,,
156180,set_tempo,,,,,240,1,0,241935,,,,,
156226,control_change,,,,,706,0,1,,64,0,0,,
156240,note_on,,,,,0,0,1,,,,0,59,42
156240,note_on,,,,,0,0,1,,,,0,71,42
156240,note_off,,,,,0,0,1,,,,0,75,64
156240,note_off,,,,,14,0,1,,,,0,63,64
156240,note_off,,,,,0,0,2,,,,0,55,64
156240,note_on,,,,,0,0,2,,,,0,49,31
156240,note_off,,,,,360,0,2,,,,0,58,64
156340,set_tempo,,,,,160,1,0,240964,,,,,
156360,note_off,,,,,120,0,2,,,,0,49,64
156360,note_on,,,,,0,0,2,,,,0,48,33
156480,note_on,,,,,0,0,2,,,,0,49,37
156480,note_off,,,,,120,0,2,,,,0,48,64
156540,set_tempo,,,,,200,1,0,237154,,,,,
156600,note_on,,,,,0,0,2,,,,0,55,40
156600,note_off,,,,,120,0,2,,,,0,49,64
156600,note_off,,,,,360,0,1,,,,0,59,64
156600,note_off,,,,,0,0,1,,,,0,71,64
156600,note_on,,,,,0,0,1,,,,0,67,37
156600,control_change,,,,,0,0,1,,64,95,0,,
156600,note_on,,,,,0,0,2,,,,0,53,40
156700,set_tempo,,,,,160,1,0,236220,,,,,
156900,set_tempo,,,,,200,1,0,235294,,,,,
156952,control_change,,,,,352,0,1,,64,0,0,,
156960,note_on,,,,,0,0,2,,,,0,48,31
156960,note_off,,,,,0,0,2,,,,0,55,64
156960,note_off,,,,,360,0,2,,,,0,53,64
156960,note_on,,,,,0,0,1,,,,0,72,42
156960,note_on,,,,,0,0,1,,,,0,60,42
156960,note_off,,,,,8,0,1,,,,0,67,64
157080,note_on,,,,,0,0,2,,,,0,47,31
157080,note_off,,,,,120,0,2,,,,0,48,64
157100,set_tempo,,,,,200,1,0,234375,,,,,
157200,note_on,,,,,0,0,2,,,,0,48,31
157200,note_off,,,,,120,0,2,,,,0,47,64
157220,set_tempo,,,,,120,1,0,232558,,,,,
157320,control_change,,,,,360,0,1,,64,95,0,,
157320,note_off,,,,,120,0,2,,,,0,48,64
157320,note_on,,,,,0,0,2,,,,0,52,40
157320,note_on,,,,,0,0,2,,,,0,55,40
157420,set_tempo,,,,,200,1,0,231660,,,,,
157620,set_tempo,,,,,200,1,0,230769,,,,,
157620,note_off,,,,,0,0,1,,,,0,72,64
157620,note_off,,,,,300,0,1,,,,0,60,64
157672,control_change,,,,,52,0,1,,64,0,0,,
157680,note_on,,,,,8,0,1,,,,0,72,51
157680,note_on,,,,,0,0,1,,,,0,60,51
157680,note_off,,,,,360,0,2,,,,0,55,64
157680,note_off,,,,,0,0,2,,,,0,52,64
157680,note_on,,,,,0,0,2,,,,0,48,40
157800,note_off,,,,,120,0,2,,,,0,48,64
157800,note_on,,,,,0,0,2,,,,0,47,43
157920,note_off,,,,,120,0,2,,,,0,47,64
157920,note_on,,,,,0,0,2,,,,0,48,44
158040,note_off,,,,,120,0,2,,,,0,48,64
158040,control_change,,,,,360,0,1,,64,95,0,,
158040,note_on,,,,,0,0,2,,,,0,56,45
158040,note_on,,,,,0,0,2,,,,0,53,45
158060,set_tempo,,,,,440,1,0,229885,,,,,
158260,set_tempo,,,,,200,1,0,229008,,,,,
158392,control_change,,,,,352,0,1,,64,0,0,,
158400,note_off,,,,,360,0,2,,,,0,56,64
158400,note_off,,,,,8,0,1,,,,0,60,64
158400,note_off,,,,,0,0,1,,,,0,72,64
158400,note_on,,,,,0,0,1,,,,0,60,43
158400,note_on,,,,,0,0,1,,,,0,72,43
158400,note_off,,,,,0,0,2,,,,0,53,64
158400,note_on,,,,,0,0,2,,,,0,48,43
158520,note_off,,,,,120,0,2,,,,0,48,64
158520,note_on,,,,,0,0,2,,,,0,47,42
158640,note_off,,,,,120,0,2,,,,0,47,64
158640,note_on,,,,,0,0,2,,,,0,48,38
158760,note_on,,,,,0,0,2,,,,0,55,34
158760,control_change,,,,,360,0,1,,64,95,0,,
158760,note_on,,,,,0,0,2,,,,0,52,34
158760,note_off,,,,,120,0,2,,,,0,48,64
159060,note_off,,,,,300,0,1,,,,0,60,64
159060,note_off,,,,,0,0,1,,,,0,72,64
159112,control_change,,,,,52,0,1,,64,0,0,,
159120,note_on,,,,,0,0,1,,,,0,59,41
159120,note_off,,,,,360,0,2,,,,0,55,64
159120,note_off,,,,,0,0,2,,,,0,52,64
159120,note_on,,,,,0,0,2,,,,0,49,45
159120,note_on,,,,,8,0,1,,,,0,71,41
159180,set_tempo,,,,,920,1,0,227273,,,,,
159240,note_off,,,,,120,0,2,,,,0,49,64
159240,note_on,,,,,0,0,2,,,,0,48,33
159360,note_off,,,,,120,0,2,,,,0,48,64
159360,note_on,,,,,0,0,2,,,,0,49,37
159480,control_change,,,,,0,0,1,,64,95,0,,
159480,note_on,,,,,0,0,2,,,,0,55,40
159480,note_on,,,,,0,0,2,,,,0,53,40
159480,note_off,,,,,120,0,2,,,,0,49,64
159480,note_off,,,,,0,0,1,,,,0,71,64
159480,note_on,,,,,0,0,1,,,,0,67,35
159480,note_off,,,,,360,0,1,,,,0,59,64
159832,control_change,,,,,352,0,1,,64,0,0,,
159840,note_on,,,,,0,0,1,,,,0,60,49
159840,note_on,,,,,0,0,1,,,,0,72,49
159840,note_off,,,,,8,0,1,,,,0,67,64
159840,note_on,,,,,0,0,2,,,,0,48,31
159840,note_off,,,,,0,0,2,,,,0,55,64
159840,note_off,,,,,360,0,2,,,,0,53,64
159960,note_on,,,,,0,0,2,,,,0,47,31
159960,note_off,,,,,120,0,2,,,,0,48,64
160080,note_on,,,,,0,0,2,,,,0,48,31
160080,note_off,,,,,120,0,2,,,,0,47,64
160200,note_on,,,,,0,0,2,,,,0,57,40
160200,note_on,,,,,0,0,2,,,,0,53,40
160200,note_off,,,,,120,0,2,,,,0,48,64
160200,control_change,,,,,360,0,1,,64,95,0,,
160500,note_off,,,,,0,0,1,,,,0,72,64
160500,note_off,,,,,300,0,1,,,,0,60,64
160552,control_change,,,,,52,0,1,,64,0,0,,
160560,note_off,,,,,360,0,2,,,,0,53,64
160560,note_on,,,,,0,0,1,,,,0,57,46
160560,note_on,,,,,8,0,1,,,,0,69,46
160560,note_off,,,,,0,0,2,,,,0,57,64
160560,note_on,,,,,0,0,2,,,,0,47,31
160680,note_off,,,,,120,0,2,,,,0,47,64
160680,note_on,,,,,0,0,2,,,,0,46,33
160800,note_on,,,,,0,0,2,,,,0,47,37
160800,note_off,,,,,120,0,2,,,,0,46,64
160920,note_off,,,,,120,0,2,,,,0,47,64
160920,note_on,,,,,0,0,2,,,,0,51,40
160920,note_off,,,,,360,0,1,,,,0,57,64
160920,note_off,,,,,0,0,1,,,,0,69,64
160920,note_on,,,,,0,0,1,,,,0,65,44
160920,note_on,,,,,0,0,2,,,,0,53,40
160920,control_change,,,,,0,0,1,,64,95,0,,
161272,control_change,,,,,352,0,1,,64,0,0,,
161280,note_off,,,,,360,0,2,,,,0,51,64
161280,note_off,,,,,0,0,2,,,,0,53,64
161280,note_on,,,,,0,0,2,,,,0,46,31
161280,note_on,,,,,0,0,1,,,,0,58,45
161280,note_on,,,,,0,0,1,,,,0,70,45
161280,note_off,,,,,8,0,1,,,,0,65,64
161360,set_tempo,,,,,2180,1,0,230769,,,,,
161400,note_on,,,,,0,0,2,,,,0,45,31
161400,note_off,,,,,120,0,2,,,,0,46,64
161520,note_on,,,,,0,0,2,,,,0,46,31
161520,note_off,,,,,120,0,2,,,,0,45,64
161640,note_on,,,,,0,0,2,,,,0,51,40
161640,note_off,,,,,120,0,2,,,,0,46,64
161640,control_change,,,,,360,0,1,,64,95,0,,
161640,note_on,,,,,0,0,2,,,,0,55,40
161900,set_tempo,,,,,540,1,0,234375,,,,,
161940,note_off,,,,,300,0,1,,,,0,58,64
161940,note_off,,,,,0,0,1,,,,0,70,64
161992,control_change,,,,,52,0,1,,64,0,0,,
162000,note_on,,,,,8,0,1,,,,0,70,46
162000,note_off,,,,,0,0,2,,,,0,55,64
162000,note_on,,,,,0,0,2,,,,0,46,39
162000,note_on,,,,,0,0,1,,,,0,58,46
162000,note_off,,,,,360,0,2,,,,0,51,64
162120,note_on,,,,,0,0,2,,,,0,45,40
162120,note_off,,,,,120,0,2,,,,0,46,64
162180,set_tempo,,,,,280,1,0,238095,,,,,
162240,note_on,,,,,0,0,2,,,,0,46,43
162240,note_off,,,,,120,0,2,,,,0,45,64
162360,note_on,,,,,0,0,2,,,,0,53,48
162360,note_on,,,,,0,0,2,,,,0,56,48
162360,note_off,,,,,120,0,2,,,,0,46,64
162360,control_change,,,,,360,0,1,,64,95,0,,
162420,set_tempo,,,,,240,1,0,241935,,,,,
162712,control_change,,,,,352,0,1,,64,0,0,,
162720,note_on,,,,,0,0,2,,,,0,46,47
162720,note_off,,,,,360,0,2,,,,0,53,64
162720,note_on,,,,,0,0,1,,,,0,58,45
162720,note_on,,,,,0,0,1,,,,0,70,45
162720,note_off,,,,,0,0,1,,,,0,70,64
162720,note_off,,,,,8,0,1,,,,0,58,64
162720,note_off,,,,,0,0,2,,,,0,56,64
162740,set_tempo,,,,,320,1,0,245902,,,,,
162840,note_on,,,,,0,0,2,,,,0,45,44
162840,note_off,,,,,120,0,2,,,,0,46,64
162960,note_on,,,,,0,0,2,,,,0,46,40
162960,note_off,,,,,120,0,2,,,,0,45,64
163080,note_on,,,,,0,0,2,,,,0,55,37
163080,control_change,,,,,360,0,1,,64,95,0,,
163080,note_off,,,,,120,0,2,,,,0,46,64
163080,note_on,,,,,0,0,2,,,,0,51,37
163360,set_tempo,,,,,620,1,0,256410,,,,,
163380,note_off,,,,,300,0,1,,,,0,58,64
163380,note_off,,,,,0,0,1,,,,0,70,64
163432,control_change,,,,,52,0,1,,64,0,0,,
163440,note_on,,,,,0,0,2,,,,0,46,43
163440,note_off,,,,,0,0,2,,,,0,51,64
163440,note_on,,,,,8,0,1,,,,0,68,44
163440,note_on,,,,,0,0,1,,,,0,56,44
163440,note_off,,,,,360,0,2,,,,0,55,64
163520,set_tempo,,,,,160,1,0,262009,,,,,
163560,note_off,,,,,120,0,2,,,,0,46,64
163560,note_on,,,,,0,0,2,,,,0,45,40
163680,note_on,,,,,0,0,2,,,,0,46,36
163680,set_tempo,,,,,160,1,0,266667,,,,,
163680,note_off,,,,,120,0,2,,,,0,45,64
163800,note_on,,,,,0,0,2,,,,0,50,32
163800,note_off,,,,,120,0,2,,,,0,46,64
163800,note_off,,,,,360,0,1,,,,0,56,64
163800,note_off,,,,,0,0,1,,,,0,68,64
163800,note_on,,,,,0,0,1,,,,0,65,38
163800,note_on,,,,,0,0,1,,,,0,53,38
163800,control_change,,,,,0,0,1,,64,95,0,,
163840,set_tempo,,,,,160,1,0,272727,,,,,
164040,set_tempo,,,,,200,1,0,273973,,,,,
164152,control_change,,,,,352,0,1,,64,0,0,,
164160,note_off,,,,,0,0,1,,,,0,65,64
164160,note_off,,,,,360,0,2,,,,0,50,64
164160,note_on,,,,,0,0,2,,,,0,39,27
164160,note_on,,,,,0,0,1,,,,0,51,40
164160,note_on,,,,,0,0,1,,,,0,63,40
164160,note_off,,,,,8,0,1,,,,0,53,64
164180,set_tempo,,,,,140,1,0,266667,,,,,
164280,note_off,,,,,120,0,2,,,,0,39,64
164280,note_on,,,,,0,0,2,,,,0,38,32
164380,set_tempo,,,,,200,1,0,259740,,,,,
164400,note_on,,,,,0,0,2,,,,0,39,35
164400,note_off,,,,,120,0,2,,,,0,38,64
164520,control_change,,,,,0,0,1,,64,95,0,,
164520,note_off,,,,,0,0,1,,,,0,63,64
164520,note_off,,,,,360,0,1,,,,0,51,64
164520,note_off,,,,,120,0,2,,,,0,39,64
164520,note_on,,,,,0,0,2,,,,0,51,38
164520,note_on,,,,,0,0,2,,,,0,43,38
164600,set_tempo,,,,,220,1,0,253165,,,,,
164780,set_tempo,,,,,180,1,0,246914,,,,,
164872,control_change,,,,,352,0,1,,64,0,0,,
164880,set_tempo,,,,,100,1,0,241935,,,,,
164880,note_off,,,,,360,0,2,,,,0,51,64
164880,note_off,,,,,0,0,2,,,,0,43,64
164880,note_on,,,,,0,0,2,,,,0,39,29
164880,note_on,,,,,8,0,1,,,,0,67,46
165000,note_off,,,,,120,0,2,,,,0,39,64
165000,note_on,,,,,0,0,2,,,,0,38,31
165020,set_tempo,,,,,140,1,0,240000,,,,,
165120,note_off,,,,,120,0,2,,,,0,38,64
165120,note_on,,,,,0,0,2,,,,0,39,34
165240,note_on,,,,,0,0,2,,,,0,43,38
165240,control_change,,,,,360,0,1,,64,95,0,,
165240,note_on,,,,,0,0,2,,,,0,51,38
165240,note_off,,,,,120,0,2,,,,0,39,64
165380,set_tempo,,,,,360,1,0,237154,,,,,
165592,control_change,,,,,352,0,1,,64,0,0,,
165600,note_off,,,,,360,0,2,,,,0,51,64
165600,note_on,,,,,0,0,1,,,,0,63,40
165600,note_off,,,,,0,0,2,,,,0,43,64
165600,note_off,,,,,8,0,1,,,,0,67,64
165600,note_on,,,,,0,0,2,,,,0,39,31
165720,note_off,,,,,120,0,2,,,,0,39,64
165720,note_on,,,,,0,0,2,,,,0,38,33
165840,note_off,,,,,120,0,2,,,,0,38,64
165840,note_on,,,,,0,0,2,,,,0,39,37
165960,note_on,,,,,0,0,2,,,,0,51,40
165960,note_off,,,,,120,0,2,,,,0,39,64
165960,note_on,,,,,0,0,2,,,,0,43,40
166180,set_tempo,,,,,800,1,0,235294,,,,,
166306,control_change,,,,,706,0,1,,64,0,0,,
166320,note_on,,,,,0,0,1,,,,0,59,42
166320,note_off,,,,,0,0,2,,,,0,43,64
166320,note_on,,,,,0,0,2,,,,0,37,31
166320,note_off,,,,,14,0,1,,,,0,63,64
166320,note_off,,,,,360,0,2,,,,0,51,64
166440,note_off,,,,,120,0,2,,,,0,37,64
166440,note_on,,,,,0,0,2,,,,0,36,33
166560,note_off,,,,,120,0,2,,,,0,36,64
166560,note_on,,,,,0,0,2,,,,0,37,37
166680,note_off,,,,,360,0,1,,,,0,59,64
166680,note_on,,,,,0,0,1,,,,0,55,37
166680,note_on,,,,,0,0,2,,,,0,43,40
166680,control_change,,,,,0,0,1,,64,95,0,,
166680,note_off,,,,,120,0,2,,,,0,37,64
166680,note_on,,,,,0,0,1,,,,0,53,37
167000,set_tempo,,,,,820,1,0,231660,,,,,
167032,control_change,,,,,352,0,1,,64,0,0,,
167040,note_off,,,,,360,0,2,,,,0,43,64
167040,note_off,,,,,0,0,1,,,,0,55,64
167040,note_on,,,,,0,0,2,,,,0,36,31
167040,note_off,,,,,8,0,1,,,,0,53,64
167040,note_on,,,,,0,0,1,,,,0,60,42
167160,note_off,,,,,120,0,2,,,,0,36,64
167160,note_on,,,,,0,0,2,,,,0,35,31
167280,note_off,,,,,120,0,2,,,,0,35,64
167280,note_on,,,,,0,0,2,,,,0,36,31
167400,note_off,,,,,120,0,2,,,,0,36,64
167400,control_change,,,,,0,0,1,,64,95,0,,
167400,note_on,,,,,0,0,2,,,,0,43,40
167400,note_on,,,,,360,0,1,,,,0,52,41
167700,note_off,,,,,300,0,1,,,,0,52,64
167700,note_off,,,,,0,0,1,,,,0,60,64
167752,control_change,,,,,52,0,1,,64,0,0,,
167760,note_on,,,,,8,0,1,,,,0,60,47
167760,note_off,,,,,360,0,2,,,,0,43,64
167760,note_on,,,,,0,0,2,,,,0,36,40
167880,note_off,,,,,120,0,2,,,,0,36,64
167880,note_on,,,,,0,0,2,,,,0,35,43
168000,note_off,,,,,120,0,2,,,,0,35,64
168000,note_on,,,,,0,0,2,,,,0,36,44
168120,note_on,,,,,360,0,1,,,,0,53,37
168120,control_change,,,,,0,0,1,,64,95,0,,
168120,note_on,,,,,0,0,2,,,,0,44,45
168120,note_off,,,,,120,0,2,,,,0,36,64
168380,set_tempo,,,,,1380,1,0,235294,,,,,
168472,control_change,,,,,352,0,1,,64,0,0,,
168480,note_on,,,,,0,0,1,,,,0,60,44
168480,note_off,,,,,0,0,1,,,,0,60,64
168480,note_off,,,,,8,0,1,,,,0,53,64
168480,note_off,,,,,360,0,2,,,,0,44,64
168480,note_on,,,,,0,0,2,,,,0,36,46
168600,note_off,,,,,120,0,2,,,,0,36,64
168600,note_on,,,,,0,0,2,,,,0,35,43
168720,note_off,,,,,120,0,2,,,,0,35,64
168720,note_on,,,,,0,0,2,,,,0,36,39
168840,note_off,,,,,120,0,2,,,,0,36,64
168840,note_on,,,,,0,0,2,,,,0,43,37
168840,control_change,,,,,0,0,1,,64,95,0,,
168840,note_on,,,,,360,0,1,,,,0,52,36
169040,set_tempo,,,,,660,1,0,238095,,,,,
169140,note_off,,,,,0,0,1,,,,0,60,64
169140,note_off,,,,,300,0,1,,,,0,52,64
169192,control_change,,,,,52,0,1,,64,0,0,,
169200,note_on,,,,,0,0,2,,,,0,37,45
169200,note_on,,,,,8,0,1,,,,0,59,45
169200,note_off,,,,,360,0,2,,,,0,43,64
169320,note_off,,,,,120,0,2,,,,0,37,64
169320,note_on,,,,,0,0,2,,,,0,36,33
169440,note_on,,,,,0,0,2,,,,0,37,37
169440,note_off,,,,,120,0,2,,,,0,36,64
169560,note_off,,,,,360,0,1,,,,0,59,64
169560,note_on,,,,,0,0,1,,,,0,55,39
169560,note_on,,,,,0,0,1,,,,0,53,39
169560,control_change,,,,,0,0,1,,64,95,0,,
169560,note_on,,,,,0,0,2,,,,0,43,40
169560,note_off,,,,,120,0,2,,,,0,37,64
169620,set_tempo,,,,,580,1,0,241935,,,,,
169912,control_change,,,,,352,0,1,,64,0,0,,
169920,note_on,,,,,0,0,2,,,,0,36,31
169920,note_off,,,,,8,0,1,,,,0,53,64
169920,note_off,,,,,0,0,1,,,,0,55,64
169920,note_on,,,,,0,0,1,,,,0,60,49
169920,note_off,,,,,360,0,2,,,,0,43,64
170040,note_off,,,,,120,0,2,,,,0,36,64
170040,note_on,,,,,0,0,2,,,,0,35,31
170160,note_on,,,,,0,0,2,,,,0,36,31
170160,note_off,,,,,120,0,2,,,,0,35,64
170280,control_change,,,,,0,0,1,,64,95,0,,
170280,note_on,,,,,0,0,2,,,,0,45,40
170280,note_off,,,,,120,0,2,,,,0,36,64
170280,note_on,,,,,360,0,1,,,,0,53,39
170440,set_tempo,,,,,820,1,0,245902,,,,,
170580,note_off,,,,,0,0,1,,,,0,60,64
170580,note_off,,,,,300,0,1,,,,0,53,64
170632,control_change,,,,,52,0,1,,64,0,0,,
170640,note_off,,,,,360,0,2,,,,0,45,64
170640,note_on,,,,,0,0,2,,,,0,35,31
170640,note_on,,,,,8,0,1,,,,0,57,43
170660,set_tempo,,,,,220,1,0,250000,,,,,
170760,note_off,,,,,120,0,2,,,,0,35,64
170760,note_on,,,,,0,0,2,,,,0,34,33
170880,note_off,,,,,120,0,2,,,,0,34,64
170880,note_on,,,,,0,0,2,,,,0,35,37
171000,note_on,,,,,0,0,2,,,,0,41,40
171000,note_off,,,,,120,0,2,,,,0,35,64
171000,control_change,,,,,0,0,1,,64,95,0,,
171000,note_off,,,,,360,0,1,,,,0,57,64
171000,note_on,,,,,0,0,1,,,,0,53,44
171000,note_on,,,,,0,0,1,,,,0,51,43
171200,set_tempo,,,,,540,1,0,254237,,,,,
171340,set_tempo,,,,,140,1,0,256410,,,,,
171352,control_change,,,,,352,0,1,,64,0,0,,
171360,note_on,,,,,0,0,1,,,,0,58,45
171360,note_on,,,,,0,0,2,,,,0,34,31
171360,note_off,,,,,360,0,2,,,,0,41,64
171360,note_off,,,,,8,0,1,,,,0,51,64
171360,note_off,,,,,0,0,1,,,,0,53,64
171480,note_on,,,,,0,0,2,,,,0,33,31
171480,note_off,,,,,120,0,2,,,,0,34,64
171600,set_tempo,,,,,260,1,0,260870,,,,,
171600,note_off,,,,,120,0,2,,,,0,33,64
171600,note_on,,,,,0,0,2,,,,0,34,31
171720,note_on,,,,,360,0,1,,,,0,51,40
171720,control_change,,,,,0,0,1,,64,95,0,,
171720,note_on,,,,,0,0,2,,,,0,43,40
171720,note_off,,,,,120,0,2,,,,0,34,64
171980,set_tempo,,,,,380,1,0,265487,,,,,
172020,note_off,,,,,300,0,1,,,,0,51,64
172020,note_off,,,,,0,0,1,,,,0,58,64
172072,control_change,,,,,52,0,1,,64,0,0,,
172080,note_on,,,,,8,0,1,,,,0,58,52
172080,note_off,,,,,360,0,2,,,,0,43,64
172080,note_on,,,,,0,0,2,,,,0,34,39
172080,set_tempo,,,,,100,1,0,269058,,,,,
172200,note_off,,,,,120,0,2,,,,0,34,64
172200,note_on,,,,,0,0,2,,,,0,33,40
172240,set_tempo,,,,,160,1,0,273973,,,,,
172320,note_off,,,,,120,0,2,,,,0,33,64
172320,note_on,,,,,0,0,2,,,,0,34,43
172400,set_tempo,,,,,160,1,0,277778,,,,,
172440,note_off,,,,,120,0,2,,,,0,34,64
172440,control_change,,,,,0,0,1,,64,95,0,,
172440,note_on,,,,,0,0,2,,,,0,44,48
172440,note_on,,,,,360,0,1,,,,0,53,42
172600,set_tempo,,,,,200,1,0,283019,,,,,
172792,control_change,,,,,352,0,1,,64,0,0,,
172800,note_on,,,,,0,0,2,,,,0,34,46
172800,note_off,,,,,8,0,1,,,,0,53,64
172800,note_off,,,,,0,0,1,,,,0,58,64
172800,set_tempo,,,,,200,1,0,289855,,,,,
172800,note_off,,,,,360,0,2,,,,0,44,64
172800,note_on,,,,,0,0,1,,,,0,58,43
172920,note_off,,,,,120,0,2,,,,0,34,64
172920,note_on,,,,,0,0,2,,,,0,33,43
172960,set_tempo,,,,,160,1,0,294118,,,,,
173040,note_on,,,,,0,0,2,,,,0,34,40
173040,note_off,,,,,120,0,2,,,,0,33,64
173160,control_change,,,,,0,0,1,,64,95,0,,
173160,note_on,,,,,0,0,2,,,,0,43,37
173160,note_on,,,,,360,0,1,,,,0,51,38
173160,note_off,,,,,120,0,2,,,,0,34,64
173160,set_tempo,,,,,200,1,0,300000,,,,,
173320,set_tempo,,,,,160,1,0,306122,,,,,
173460,note_off,,,,,0,0,1,,,,0,58,64
173460,note_off,,,,,300,0,1,,,,0,51,64
173480,set_tempo,,,,,160,1,0,310881,,,,,
173512,control_change,,,,,52,0,1,,64,0,0,,
173520,note_off,,,,,360,0,2,,,,0,43,64
173520,note_on,,,,,8,0,1,,,,0,56,43
173520,note_on,,,,,0,0,2,,,,0,34,40
173526,control_change,,,,,6,0,1,,64,96,0,,
173560,set_tempo,,,,,80,1,0,322581,,,,,
173640,note_on,,,,,0,0,2,,,,0,33,34
173640,note_off,,,,,120,0,2,,,,0,34,64
173720,set_tempo,,,,,160,1,0,331492,,,,,
173760,note_off,,,,,120,0,2,,,,0,33,64
173760,note_on,,,,,0,0,2,,,,0,34,31
173820,set_tempo,,,,,100,1,0,348837,,,,,
173872,control_change,,,,,346,0,1,,64,0,0,,
173880,note_on,,,,,0,0,2,,,,0,46,30
173880,note_on,,,,,0,0,1,,,,0,53,31
173880,control_change,,,,,0,0,1,,64,95,0,,
173880,note_on,,,,,0,0,1,,,,0,50,31
173880,note_off,,,,,120,0,2,,,,0,34,64
173880,note_off,,,,,8,0,1,,,,0,56,64
173960,set_tempo,,,,,140,1,0,357143,,,,,
174100,set_tempo,,,,,140,1,0,370370,,,,,
174120,set_tempo,,,,,20,1,0,368098,,,,,
174240,note_off,,,,,360,0,2,,,,0,46,64
174240,note_off,,,,,0,0,1,,,,0,53,64
174240,note_off,,,,,360,0,1,,,,0,50,64
174240,set_tempo,,,,,120,1,0,252101,,,,,
174260,set_tempo,,,,,20,1,0,238095,,,,,
174480,control_change,,,,,240,0,1,,64,0,0,,
175680,control_change,,,,,1200,0,1,,64,95,0,,
175680,note_on,,,,,1440,0,2,,,,0,47,23
175800,note_on,,,,,0,0,2,,,,0,51,25
175800,note_off,,,,,120,0,2,,,,0,47,64
175920,note_on,,,,,0,0,2,,,,0,54,27
175920,note_off,,,,,120,0,2,,,,0,51,64
176040,note_on,,,,,0,0,2,,,,0,59,29
176040,note_off,,,,,120,0,2,,,,0,54,64
176080,set_tempo,,,,,1820,1,0,237154,,,,,
176160,note_on,,,,,0,0,2,,,,0,51,29
176160,note_off,,,,,120,0,2,,,,0,59,64
176260,set_tempo,,,,,180,1,0,236220,,,,,
176280,note_off,,,,,120,0,2,,,,0,51,64
176280,note_on,,,,,0,0,2,,,,0,54,31
176372,control_change,,,,,692,0,1,,64,0,0,,
176376,note_off,,,,,96,0,2,,,,0,54,64
176400,control_change,,,,,28,0,1,,64,96,0,,
176400,note_on,,,,,24,0,2,,,,0,47,33
176420,set_tempo,,,,,160,1,0,234375,,,,,
176520,note_on,,,,,0,0,2,,,,0,51,35
176520,note_off,,,,,120,0,2,,,,0,47,64
176640,note_on,,,,,0,0,2,,,,0,54,37
176640,note_off,,,,,120,0,2,,,,0,51,64
176760,note_off,,,,,120,0,2,,,,0,54,64
176760,note_on,,,,,0,0,2,,,,0,59,36
176780,set_tempo,,,,,360,1,0,232558,,,,,
176880,note_off,,,,,120,0,2,,,,0,59,64
176880,note_on,,,,,0,0,2,,,,0,51,33
176960,set_tempo,,,,,180,1,0,230769,,,,,
177000,note_off,,,,,120,0,2,,,,0,51,64
177000,note_on,,,,,0,0,2,,,,0,54,30
177092,control_change,,,,,692,0,1,,64,0,0,,
177096,note_off,,,,,96,0,2,,,,0,54,64
177120,note_on,,,,,24,0,2,,,,0,47,37
177126,control_change,,,,,34,0,1,,64,96,0,,
177220,set_tempo,,,,,260,1,0,229008,,,,,
177240,note_off,,,,,120,0,2,,,,0,47,64
177240,note_on,,,,,0,0,2,,,,0,51,26
177360,note_on,,,,,0,0,2,,,,0,54,29
177360,note_off,,,,,120,0,2,,,,0,51,64
177460,set_tempo,,,,,240,1,0,227273,,,,,
177480,note_off,,,,,120,0,2,,,,0,54,64
177480,note_on,,,,,0,0,2,,,,0,59,33
177600,note_off,,,,,120,0,2,,,,0,59,64
177600,note_on,,,,,0,0,2,,,,0,51,29
177720,note_on,,,,,0,0,2,,,,0,54,33
177720,note_off,,,,,120,0,2,,,,0,51,64
177812,control_change,,,,,686,0,1,,64,0,0,,
177816,note_off,,,,,96,0,2,,,,0,54,64
177840,note_on,,,,,24,0,2,,,,0,47,37
177846,control_change,,,,,34,0,1,,64,96,0,,
177960,note_off,,,,,120,0,2,,,,0,47,64
177960,note_on,,,,,0,0,2,,,,0,51,31
178080,note_off,,,,,120,0,2,,,,0,51,64
178080,note_on,,,,,0,0,2,,,,0,54,35
178180,set_tempo,,,,,720,1,0,238095,,,,,
178200,note_on,,,,,354,0,1,,,,0,66,45
178200,note_off,,,,,120,0,2,,,,0,54,64
178200,note_on,,,,,0,0,2,,,,0,59,37
178320,note_on,,,,,0,0,2,,,,0,51,31
178320,note_off,,,,,120,0,2,,,,0,59,64
178440,note_off,,,,,120,0,2,,,,0,51,64
178440,note_on,,,,,0,0,2,,,,0,54,27
178532,control_change,,,,,332,0,1,,64,0,0,,
178536,note_off,,,,,96,0,2,,,,0,54,64
178560,set_tempo,,,,,380,1,0,227273,,,,,
178560,note_on,,,,,0,0,1,,,,0,75,50
178560,note_off,,,,,28,0,1,,,,0,66,64
178560,note_on,,,,,24,0,2,,,,0,47,37
178566,control_change,,,,,6,0,1,,64,96,0,,
178680,note_on,,,,,0,0,2,,,,0,51,31
178680,note_off,,,,,120,0,2,,,,0,47,64
178800,note_off,,,,,120,0,2,,,,0,51,64
178800,note_on,,,,,0,0,2,,,,0,54,35
178920,note_on,,,,,0,0,2,,,,0,59,37
178920,note_off,,,,,120,0,2,,,,0,54,64
179040,note_off,,,,,120,0,2,,,,0,59,64
179040,note_on,,,,,0,0,2,,,,0,51,31
179160,note_off,,,,,120,0,2,,,,0,51,64
179160,note_on,,,,,0,0,2,,,,0,54,27
179252,control_change,,,,,686,0,1,,64,0,0,,
179256,note_off,,,,,96,0,2,,,,0,54,64
179280,note_on,,,,,24,0,2,,,,0,47,36
179280,note_off,,,,,28,0,1,,,,0,75,64
179280,note_on,,,,,0,0,1,,,,0,73,48
179286,control_change,,,,,6,0,1,,64,96,0,,
179400,note_off,,,,,120,0,2,,,,0,47,64
179400,note_on,,,,,0,0,2,,,,0,52,39
179520,note_off,,,,,120,0,2,,,,0,52,64
179520,note_on,,,,,0,0,2,,,,0,55,42
179620,set_tempo,,,,,1060,1,0,250000,,,,,
179640,note_off,,,,,120,0,2,,,,0,55,64
179640,note_on,,,,,0,0,2,,,,0,61,43
179640,note_off,,,,,354,0,1,,,,0,73,64
179640,note_on,,,,,0,0,1,,,,0,70,41
179760,note_off,,,,,120,0,2,,,,0,61,64
179760,note_on,,,,,0,0,2,,,,0,52,42
179880,note_off,,,,,120,0,2,,,,0,52,64
179880,note_on,,,,,0,0,2,,,,0,55,37
179972,control_change,,,,,332,0,1,,64,0,0,,
179976,note_off,,,,,4,0,1,,,,0,70,64
179976,note_off,,,,,96,0,2,,,,0,55,64
179980,set_tempo,,,,,360,1,0,276498,,,,,
180000,note_on,,,,,24,0,1,,,,0,70,39
180000,note_on,,,,,24,0,2,,,,0,47,37
180006,control_change,,,,,6,0,1,,64,96,0,,
180120,note_off,,,,,114,0,1,,,,0,70,64
180120,note_on,,,,,0,0,1,,,,0,71,42
180120,set_tempo,,,,,140,1,0,227273,,,,,
180120,note_off,,,,,120,0,2,,,,0,47,64
180120,note_on,,,,,0,0,2,,,,0,51,31
180240,note_on,,,,,0,0,2,,,,0,54,35
180240,note_on,,,,,0,0,1,,,,0,73,45
180240,note_off,,,,,120,0,1,,,,0,71,64
180240,note_off,,,,,120,0,2,,,,0,51,64
180360,note_off,,,,,120,0,2,,,,0,54,64
180360,note_on,,,,,0,0,2,,,,0,59,37
180360,set_tempo,,,,,240,1,0,238095,,,,,
180360,note_on,,,,,0,0,1,,,,0,75,49
180360,note_off,,,,,120,0,1,,,,0,73,64
180380,set_tempo,,,,,20,1,0,237154,,,,,
180480,note_on,,,,,0,0,2,,,,0,51,31
180480,note_off,,,,,120,0,1,,,,0,75,64
180480,note_on,,,,,0,0,1,,,,0,71,46
180480,note_off,,,,,120,0,2,,,,0,59,64
180600,note_off,,,,,120,0,2,,,,0,51,64
180600,note_on,,,,,0,0,2,,,,0,54,27
180600,note_on,,,,,0,0,1,,,,0,73,43
180600,note_off,,,,,120,0,1,,,,0,71,64
180692,control_change,,,,,92,0,1,,64,0,0,,
180696,note_off,,,,,96,0,2,,,,0,54,64
180720,note_on,,,,,24,0,2,,,,0,47,34
180720,note_off,,,,,28,0,1,,,,0,73,64
180720,note_on,,,,,0,0,1,,,,0,66,40
180720,control_change,,,,,0,0,1,,64,95,0,,
180840,note_off,,,,,120,0,2,,,,0,47,64
180840,note_on,,,,,0,0,2,,,,0,51,31
180860,set_tempo,,,,,480,1,0,235294,,,,,
180960,note_off,,,,,120,0,2,,,,0,51,64
180960,note_on,,,,,0,0,2,,,,0,54,32
180960,note_off,,,,,240,0,1,,,,0,66,64
181080,note_off,,,,,120,0,2,,,,0,54,64
181080,note_on,,,,,0,0,2,,,,0,59,38
181200,note_off,,,,,120,0,2,,,,0,59,64
181200,note_on,,,,,0,0,2,,,,0,51,34
181300,set_tempo,,,,,440,1,0,263158,,,,,
181320,note_off,,,,,120,0,2,,,,0,51,64
181320,note_on,,,,,0,0,2,,,,0,54,32
181320,note_on,,,,,360,0,1,,,,0,66,39
181352,control_change,,,,,32,0,1,,64,0,0,,
181416,note_off,,,,,96,0,2,,,,0,54,64
181440,control_change,,,,,0,0,1,,64,95,0,,
181440,note_on,,,,,0,0,1,,,,0,76,51
181440,note_off,,,,,88,0,1,,,,0,66,64
181440,set_tempo,,,,,140,1,0,234375,,,,,
181440,note_on,,,,,24,0,2,,,,0,46,39
181520,set_tempo,,,,,80,1,0,232558,,,,,
181560,note_on,,,,,0,0,2,,,,0,49,31
181560,note_off,,,,,120,0,2,,,,0,46,64
181680,note_on,,,,,0,0,2,,,,0,54,34
181680,note_off,,,,,120,0,2,,,,0,49,64
181800,note_off,,,,,120,0,2,,,,0,54,64
181800,note_on,,,,,0,0,2,,,,0,61,39
181920,note_off,,,,,120,0,2,,,,0,61,64
181920,note_on,,,,,0,0,2,,,,0,49,38
182040,note_off,,,,,120,0,2,,,,0,49,64
182040,note_on,,,,,0,0,2,,,,0,54,34
182146,control_change,,,,,706,0,1,,64,0,0,,
182160,note_off,,,,,14,0,1,,,,0,76,64
182160,note_on,,,,,0,0,1,,,,0,75,44
182160,note_off,,,,,120,0,2,,,,0,54,64
182160,control_change,,,,,0,0,1,,64,96,0,,
182160,note_on,,,,,0,0,2,,,,0,47,39
182180,set_tempo,,,,,660,1,0,230769,,,,,
182280,note_on,,,,,0,0,2,,,,0,54,30
182280,note_off,,,,,120,0,2,,,,0,47,64
182400,note_on,,,,,0,0,2,,,,0,59,35
182400,note_off,,,,,120,0,2,,,,0,54,64
182506,control_change,,,,,346,0,1,,64,0,0,,
182520,note_off,,,,,120,0,2,,,,0,59,64
182520,note_on,,,,,0,0,2,,,,0,49,39
182520,note_off,,,,,14,0,1,,,,0,75,64
182520,note_on,,,,,0,0,1,,,,0,73,37
182520,control_change,,,,,0,0,1,,64,94,0,,
182640,note_off,,,,,120,0,2,,,,0,49,64
182640,note_on,,,,,0,0,2,,,,0,54,37
182760,note_off,,,,,120,0,2,,,,0,54,64
182760,note_on,,,,,0,0,2,,,,0,58,33
182866,control_change,,,,,346,0,1,,64,0,0,,
182880,control_change,,,,,0,0,1,,64,95,0,,
182880,note_on,,,,,0,0,1,,,,0,72,49
182880,set_tempo,,,,,700,1,0,229008,,,,,
182880,note_off,,,,,120,0,2,,,,0,58,64
182880,note_off,,,,,14,0,1,,,,0,73,64
182880,note_on,,,,,0,0,2,,,,0,50,39
183000,note_on,,,,,0,0,2,,,,0,53,32
183000,note_off,,,,,120,0,2,,,,0,50,64
183120,note_off,,,,,120,0,2,,,,0,53,64
183120,note_on,,,,,0,0,2,,,,0,54,33
183240,note_on,,,,,0,0,2,,,,0,57,40
183240,note_off,,,,,120,0,2,,,,0,54,64
183360,note_off,,,,,120,0,2,,,,0,57,64
183360,set_tempo,,,,,480,1,0,225564,,,,,
183360,note_on,,,,,0,0,2,,,,0,53,35
183480,note_off,,,,,120,0,2,,,,0,53,64
183480,note_on,,,,,0,0,2,,,,0,54,38
183586,control_change,,,,,706,0,1,,64,0,0,,
183600,note_on,,,,,0,0,1,,,,0,73,45
183600,note_off,,,,,14,0,1,,,,0,72,64
183600,control_change,,,,,0,0,1,,64,95,0,,
183600,note_on,,,,,0,0,2,,,,0,49,44
183600,note_off,,,,,120,0,2,,,,0,54,64
183700,set_tempo,,,,,340,1,0,227273,,,,,
183720,note_on,,,,,0,0,2,,,,0,58,35
183720,note_off,,,,,120,0,2,,,,0,49,64
183840,set_tempo,,,,,140,1,0,230769,,,,,
183840,note_on,,,,,0,0,2,,,,0,54,42
183840,note_off,,,,,120,0,2,,,,0,58,64
183946,control_change,,,,,346,0,1,,64,0,0,,
183960,note_off,,,,,120,0,2,,,,0,54,64
183960,note_on,,,,,0,0,2,,,,0,48,37
183960,note_off,,,,,14,0,1,,,,0,73,64
183960,control_change,,,,,0,0,1,,64,95,0,,
183960,note_on,,,,,0,0,1,,,,0,75,40
183980,set_tempo,,,,,140,1,0,234375,,,,,
184080,note_on,,,,,0,0,2,,,,0,56,33
184080,note_off,,,,,120,0,2,,,,0,48,64
184200,note_off,,,,,120,0,2,,,,0,56,64
184200,note_on,,,,,0,0,2,,,,0,54,33
184260,note_off,,,,,300,0,1,,,,0,75,64
184300,set_tempo,,,,,320,1,0,235294,,,,,
184306,control_change,,,,,46,0,1,,64,0,0,,
184320,set_tempo,,,,,20,1,0,262009,,,,,
184320,note_off,,,,,120,0,2,,,,0,54,64
184320,note_on,,,,,0,0,2,,,,0,49,44
184320,note_on,,,,,14,0,1,,,,0,72,39
184420,set_tempo,,,,,100,1,0,235294,,,,,
184440,note_on,,,,,0,0,1,,,,0,73,42
184440,note_off,,,,,120,0,1,,,,0,72,64
184440,note_on,,,,,0,0,2,,,,0,54,34
184440,note_off,,,,,120,0,2,,,,0,49,64
184560,set_tempo,,,,,140,1,0,238095,,,,,
184560,note_on,,,,,0,0,2,,,,0,58,41
184560,note_on,,,,,0,0,1,,,,0,75,45
184560,note_off,,,,,120,0,1,,,,0,73,64
184560,note_off,,,,,120,0,2,,,,0,54,64
184680,note_on,,,,,0,0,2,,,,0,61,45
184680,note_off,,,,,120,0,2,,,,0,58,64
184680,note_on,,,,,0,0,1,,,,0,73,47
184680,note_off,,,,,120,0,1,,,,0,75,64
184800,note_off,,,,,120,0,2,,,,0,61,64
184800,note_on,,,,,0,0,2,,,,0,54,47
184800,note_off,,,,,120,0,1,,,,0,73,64
184800,note_on,,,,,0,0,1,,,,0,82,49
184920,note_off,,,,,120,0,2,,,,0,54,64
184920,note_off,,,,,120,0,1,,,,0,82,64
184920,note_on,,,,,0,0,2,,,,0,58,44
184920,note_on,,,,,0,0,1,,,,0,78,51
184960,set_tempo,,,,,400,1,0,240964,,,,,
185040,note_off,,,,,120,0,1,,,,0,78,64
185040,note_on,,,,,0,0,1,,,,0,77,54
185040,note_on,,,,,0,0,2,,,,0,49,42
185040,note_off,,,,,120,0,2,,,,0,58,64
185160,note_off,,,,,120,0,2,,,,0,49,64
185160,note_on,,,,,0,0,2,,,,0,56,42
185160,note_off,,,,,120,0,1,,,,0,77,64
185160,note_on,,,,,0,0,1,,,,0,75,54
185160,set_tempo,,,,,200,1,0,242915,,,,,
185280,note_off,,,,,120,0,2,,,,0,56,64
185280,note_off,,,,,120,0,1,,,,0,75,64
185280,note_on,,,,,0,0,2,,,,0,59,37
185280,note_on,,,,,0,0,1,,,,0,73,49
185400,note_on,,,,,0,0,1,,,,0,71,46
185400,note_on,,,,,0,0,2,,,,0,61,36
185400,note_off,,,,,120,0,2,,,,0,59,64
185400,note_off,,,,,120,0,1,,,,0,73,64
185520,set_tempo,,,,,360,1,0,245902,,,,,
185520,note_on,,,,,0,0,1,,,,0,70,42
185520,note_off,,,,,120,0,2,,,,0,61,64
185520,note_on,,,,,0,0,2,,,,0,56,35
185520,note_off,,,,,120,0,1,,,,0,71,64
185640,note_off,,,,,120,0,1,,,,0,70,64
185640,note_on,,,,,0,0,1,,,,0,68,39
185640,note_off,,,,,120,0,2,,,,0,56,64
185640,note_on,,,,,0,0,2,,,,0,59,33
185760,control_change,,,,,0,0,1,,64,95,0,,
185760,note_on,,,,,0,0,1,,,,0,66,37
185760,note_off,,,,,120,0,1,,,,0,68,64
185760,note_off,,,,,120,0,2,,,,0,59,64
185760,note_on,,,,,0,0,2,,,,0,54,37
185780,set_tempo,,,,,260,1,0,247934,,,,,
185880,note_off,,,,,120,0,2,,,,0,54,64
185880,note_on,,,,,0,0,2,,,,0,58,42
186000,note_off,,,,,120,0,2,,,,0,58,64
186000,note_on,,,,,0,0,2,,,,0,59,45
186040,set_tempo,,,,,260,1,0,243902,,,,,
186120,note_off,,,,,120,0,2,,,,0,59,64
186120,note_on,,,,,0,0,2,,,,0,61,43
186240,note_off,,,,,120,0,2,,,,0,61,64
186240,note_on,,,,,0,0,2,,,,0,58,40
186240,set_tempo,,,,,200,1,0,242915,,,,,
186300,note_off,,,,,540,0,1,,,,0,66,64
186340,set_tempo,,,,,100,1,0,237154,,,,,
186360,note_on,,,,,60,0,1,,,,0,66,49
186360,note_off,,,,,120,0,2,,,,0,58,64
186360,note_on,,,,,0,0,2,,,,0,61,36
186480,note_on,,,,,0,0,2,,,,0,54,49
186480,note_on,,,,,0,0,1,,,,0,73,52
186480,note_off,,,,,120,0,2,,,,0,61,64
186480,note_off,,,,,120,0,1,,,,0,66,64
186480,set_tempo,,,,,140,1,0,236220,,,,,
186480,control_change,,,,,0,0,1,,64,0,0,,
186600,set_tempo,,,,,120,1,0,235294,,,,,
186600,note_on,,,,,0,0,2,,,,0,58,42
186600,note_off,,,,,120,0,2,,,,0,54,64
186600,note_off,,,,,120,0,1,,,,0,73,64
186620,set_tempo,,,,,20,1,0,232558,,,,,
186720,note_on,,,,,0,0,2,,,,0,61,45
186720,note_on,,,,,120,0,1,,,,0,73,46
186720,note_off,,,,,120,0,2,,,,0,58,64
186840,note_off,,,,,120,0,1,,,,0,73,64
186840,note_on,,,,,0,0,2,,,,0,64,48
186840,set_tempo,,,,,220,1,0,230769,,,,,
186840,note_off,,,,,120,0,2,,,,0,61,64
186840,note_on,,,,,0,0,1,,,,0,70,53
186960,note_on,,,,,0,0,2,,,,0,58,44
186960,note_off,,,,,120,0,1,,,,0,70,64
186960,note_off,,,,,120,0,2,,,,0,64,64
187040,set_tempo,,,,,200,1,0,229008,,,,,
187060,set_tempo,,,,,20,1,0,227273,,,,,
187080,note_on,,,,,0,0,2,,,,0,61,41
187080,note_off,,,,,120,0,2,,,,0,58,64
187080,note_on,,,,,120,0,1,,,,0,70,46
187200,note_on,,,,,0,0,2,,,,0,54,49
187200,note_off,,,,,120,0,2,,,,0,61,64
187200,note_off,,,,,120,0,1,,,,0,70,64
187200,note_on,,,,,0,0,1,,,,0,76,59
187320,note_on,,,,,0,0,2,,,,0,58,40
187320,note_off,,,,,120,0,2,,,,0,54,64
187320,note_off,,,,,120,0,1,,,,0,76,64
187440,note_on,,,,,120,0,1,,,,0,76,45
187440,note_off,,,,,120,0,2,,,,0,58,64
187440,note_on,,,,,0,0,2,,,,0,61,44
187560,note_on,,,,,0,0,1,,,,0,73,54
187560,note_off,,,,,120,0,1,,,,0,76,64
187560,note_off,,,,,120,0,2,,,,0,61,64
187560,note_on,,,,,0,0,2,,,,0,64,48
187680,note_off,,,,,120,0,1,,,,0,73,64
187680,note_off,,,,,120,0,2,,,,0,64,64
187680,note_on,,,,,0,0,2,,,,0,58,44
187800,note_off,,,,,120,0,2,,,,0,58,64
187800,note_on,,,,,0,0,2,,,,0,61,39
187800,note_on,,,,,120,0,1,,,,0,73,47
187920,note_off,,,,,120,0,1,,,,0,73,64
187920,note_on,,,,,0,0,1,,,,0,70,55
187920,note_on,,,,,0,0,2,,,,0,54,50
187920,note_off,,,,,120,0,2,,,,0,61,64
188040,note_on,,,,,0,0,2,,,,0,58,40
188040,note_off,,,,,120,0,2,,,,0,54,64
188040,note_off,,,,,120,0,1,,,,0,70,64
188100,set_tempo,,,,,1040,1,0,230769,,,,,
188160,note_on,,,,,0,0,2,,,,0,61,44
188160,note_off,,,,,120,0,2,,,,0,58,64
188160,note_on,,,,,120,0,1,,,,0,70,42
188280,note_on,,,,,0,0,1,,,,0,73,49
188280,note_off,,,,,120,0,1,,,,0,70,64
188280,note_off,,,,,120,0,2,,,,0,61,64
188280,note_on,,,,,0,0,2,,,,0,64,48
188400,note_off,,,,,120,0,2,,,,0,64,64
188400,note_on,,,,,0,0,2,,,,0,58,43
188400,note_off,,,,,120,0,1,,,,0,73,64
188420,set_tempo,,,,,320,1,0,232558,,,,,
188520,note_off,,,,,120,0,2,,,,0,58,64
188520,note_on,,,,,120,0,1,,,,0,73,39
188520,note_on,,,,,0,0,2,,,,0,61,41
188640,note_off,,,,,120,0,2,,,,0,61,64
188640,note_off,,,,,120,0,1,,,,0,73,64
188640,note_on,,,,,0,0,2,,,,0,54,52
188640,note_on,,,,,0,0,1,,,,0,66,50
188680,set_tempo,,,,,260,1,0,236220,,,,,
188760,note_on,,,,,0,0,2,,,,0,59,43
188760,note_off,,,,,120,0,2,,,,0,54,64
188880,note_off,,,,,240,0,1,,,,0,66,64
188880,note_on,,,,,0,0,1,,,,0,68,46
188880,note_on,,,,,0,0,2,,,,0,63,47
188880,note_off,,,,,120,0,2,,,,0,59,64
188940,note_on,,,,,0,0,1,,,,0,70,42
188940,note_off,,,,,60,0,1,,,,0,68,64
189000,note_off,,,,,60,0,1,,,,0,70,64
189000,note_on,,,,,0,0,2,,,,0,66,50
189000,note_off,,,,,120,0,2,,,,0,63,64
189000,note_on,,,,,0,0,1,,,,0,71,38
189120,note_off,,,,,120,0,1,,,,0,71,64
189120,note_on,,,,,0,0,2,,,,0,59,46
189120,note_off,,,,,120,0,2,,,,0,66,64
189240,note_on,,,,,120,0,1,,,,0,71,40
189240,note_off,,,,,120,0,2,,,,0,59,64
189240,note_on,,,,,0,0,2,,,,0,63,42
189360,note_off,,,,,120,0,1,,,,0,71,64
189360,note_on,,,,,0,0,1,,,,0,75,55
189360,note_off,,,,,120,0,2,,,,0,63,64
189360,note_on,,,,,0,0,2,,,,0,54,53
189380,set_tempo,,,,,700,1,0,231660,,,,,
189480,note_on,,,,,0,0,2,,,,0,59,42
189480,note_off,,,,,120,0,2,,,,0,54,64
189480,note_off,,,,,120,0,1,,,,0,75,64
189540,set_tempo,,,,,160,1,0,229885,,,,,
189600,note_on,,,,,0,0,2,,,,0,63,44
189600,note_off,,,,,120,0,2,,,,0,59,64
189600,note_on,,,,,120,0,1,,,,0,75,41
189720,note_on,,,,,0,0,2,,,,0,66,53
189720,note_off,,,,,120,0,2,,,,0,63,64
189720,note_off,,,,,120,0,1,,,,0,75,64
189720,note_on,,,,,0,0,1,,,,0,71,50
189840,note_on,,,,,0,0,2,,,,0,59,50
189840,note_off,,,,,120,0,2,,,,0,66,64
189840,note_off,,,,,120,0,1,,,,0,71,64
189940,set_tempo,,,,,400,1,0,226415,,,,,
189960,note_off,,,,,120,0,2,,,,0,59,64
189960,note_on,,,,,120,0,1,,,,0,71,41
189960,note_on,,,,,0,0,2,,,,0,63,44
190080,note_off,,,,,120,0,2,,,,0,63,64
190080,note_on,,,,,0,0,1,,,,0,78,57
190080,note_off,,,,,120,0,1,,,,0,71,64
190080,note_on,,,,,0,0,2,,,,0,54,52
190120,set_tempo,,,,,180,1,0,225564,,,,,
190200,note_off,,,,,120,0,1,,,,0,78,64
190200,note_on,,,,,0,0,2,,,,0,59,45
190200,note_off,,,,,120,0,2,,,,0,54,64
190320,note_on,,,,,0,0,2,,,,0,63,50
190320,note_on,,,,,120,0,1,,,,0,78,44
190320,note_off,,,,,120,0,2,,,,0,59,64
190440,note_off,,,,,120,0,2,,,,0,63,64
190440,note_on,,,,,0,0,2,,,,0,66,51
190440,note_off,,,,,120,0,1,,,,0,78,64
190440,note_on,,,,,0,0,1,,,,0,75,55
190560,note_off,,,,,120,0,2,,,,0,66,64
190560,note_on,,,,,0,0,2,,,,0,59,49
190560,note_off,,,,,120,0,1,,,,0,75,64
190680,note_off,,,,,120,0,2,,,,0,59,64
190680,note_on,,,,,120,0,1,,,,0,75,46
190680,note_on,,,,,0,0,2,,,,0,63,44
190800,note_on,,,,,0,0,2,,,,0,54,53
190800,note_on,,,,,0,0,1,,,,0,80,54
190800,note_off,,,,,120,0,1,,,,0,75,64
190800,note_off,,,,,120,0,2,,,,0,63,64
190920,note_off,,,,,120,0,2,,,,0,54,64
190920,note_on,,,,,0,0,2,,,,0,59,43
190920,note_off,,,,,120,0,1,,,,0,80,64
191040,note_off,,,,,120,0,2,,,,0,59,64
191040,note_on,,,,,0,0,2,,,,0,62,46
191040,note_on,,,,,120,0,1,,,,0,80,39
191160,note_off,,,,,120,0,1,,,,0,80,64
191160,note_off,,,,,120,0,2,,,,0,62,64
191160,note_on,,,,,0,0,2,,,,0,68,42
191160,note_on,,,,,0,0,1,,,,0,77,50
191280,note_off,,,,,120,0,2,,,,0,68,64
191280,note_on,,,,,0,0,2,,,,0,59,39
191280,note_off,,,,,120,0,1,,,,0,77,64
191400,note_off,,,,,120,0,2,,,,0,59,64
191400,note_on,,,,,0,0,2,,,,0,62,36
191400,note_on,,,,,120,0,1,,,,0,77,36
191520,note_off,,,,,120,0,1,,,,0,77,64
191520,note_off,,,,,120,0,2,,,,0,62,64
191520,note_on,,,,,0,0,2,,,,0,54,54
191520,note_on,,,,,0,0,1,,,,0,78,48
191640,note_off,,,,,120,0,2,,,,0,54,64
191640,note_on,,,,,0,0,2,,,,0,58,49
191760,note_off,,,,,120,0,2,,,,0,58,64
191760,note_on,,,,,0,0,2,,,,0,61,46
191880,note_off,,,,,120,0,2,,,,0,61,64
191880,note_on,,,,,0,0,2,,,,0,66,40
192000,note_off,,,,,120,0,2,,,,0,66,64
192000,note_on,,,,,0,0,2,,,,0,58,37
192060,note_off,,,,,540,0,1,,,,0,78,64
192120,note_on,,,,,0,0,2,,,,0,61,40
192120,note_off,,,,,120,0,2,,,,0,58,64
192120,note_on,,,,,60,0,1,,,,0,78,52
192240,note_off,,,,,120,0,1,,,,0,78,64
192240,note_on,,,,,0,0,2,,,,0,54,49
192240,control_change,,,,,0,0,1,,64,0,0,,
192240,note_off,,,,,120,0,2,,,,0,61,64
192240,note_on,,,,,0,0,1,,,,0,78,61
192340,set_tempo,,,,,2220,1,0,223881,,,,,
192360,note_off,,,,,120,0,2,,,,0,54,64
192360,note_on,,,,,0,0,2,,,,0,58,42
192360,note_on,,,,,0,0,1,,,,0,85,43
192360,note_off,,,,,120,0,1,,,,0,78,64
192460,note_off,,,,,100,0,1,,,,0,85,64
192480,note_on,,,,,20,0,1,,,,0,85,54
192480,note_off,,,,,120,0,2,,,,0,58,64
192480,note_on,,,,,0,0,2,,,,0,61,45
192580,note_off,,,,,100,0,1,,,,0,85,64
192600,note_on,,,,,20,0,1,,,,0,85,65
192600,note_off,,,,,120,0,2,,,,0,61,64
192600,note_on,,,,,0,0,2,,,,0,64,48
192660,set_tempo,,,,,320,1,0,221402,,,,,
192680,set_tempo,,,,,20,1,0,220588,,,,,
192720,note_on,,,,,0,0,1,,,,0,82,48
192720,note_on,,,,,0,0,2,,,,0,58,44
192720,note_off,,,,,120,0,1,,,,0,85,64
192720,note_off,,,,,120,0,2,,,,0,64,64
192820,note_off,,,,,100,0,1,,,,0,82,64
192840,note_on,,,,,20,0,1,,,,0,82,54
192840,note_on,,,,,0,0,2,,,,0,61,41
192840,note_off,,,,,120,0,2,,,,0,58,64
192940,set_tempo,,,,,260,1,0,219780,,,,,
192940,note_off,,,,,100,0,1,,,,0,82,64
192960,note_on,,,,,0,0,2,,,,0,54,49
192960,note_off,,,,,120,0,2,,,,0,61,64
192960,note_on,,,,,20,0,1,,,,0,82,70
193080,note_on,,,,,0,0,2,,,,0,58,40
193080,note_off,,,,,120,0,2,,,,0,54,64
193080,note_off,,,,,120,0,1,,,,0,82,64
193080,note_on,,,,,0,0,1,,,,0,88,49
193180,note_off,,,,,100,0,1,,,,0,88,64
193200,note_on,,,,,20,0,1,,,,0,88,55
193200,note_off,,,,,120,0,2,,,,0,58,64
193200,note_on,,,,,0,0,2,,,,0,61,44
193200,set_tempo,,,,,260,1,0,218978,,,,,
193300,note_off,,,,,100,0,1,,,,0,88,64
193320,note_off,,,,,120,0,2,,,,0,61,64
193320,note_on,,,,,0,0,2,,,,0,64,48
193320,note_on,,,,,20,0,1,,,,0,88,69
193440,note_on,,,,,0,0,2,,,,0,58,44
193440,note_on,,,,,0,0,1,,,,0,85,52
193440,note_off,,,,,120,0,1,,,,0,88,64
193440,note_off,,,,,120,0,2,,,,0,64,64
193540,note_off,,,,,100,0,1,,,,0,85,64
193560,note_on,,,,,0,0,2,,,,0,61,39
193560,note_off,,,,,120,0,2,,,,0,58,64
193560,note_on,,,,,20,0,1,,,,0,85,56
193660,note_off,,,,,100,0,1,,,,0,85,64
193680,note_on,,,,,20,0,1,,,,0,85,70
193680,note_on,,,,,0,0,2,,,,0,54,50
193680,note_off,,,,,120,0,2,,,,0,61,64
193800,note_off,,,,,120,0,1,,,,0,85,64
193800,note_on,,,,,0,0,2,,,,0,58,40
193800,note_off,,,,,120,0,2,,,,0,54,64
193800,note_on,,,,,0,0,1,,,,0,82,48
193900,note_off,,,,,100,0,1,,,,0,82,64
193900,set_tempo,,,,,700,1,0,220588,,,,,
193920,note_off,,,,,120,0,2,,,,0,58,64
193920,note_on,,,,,0,0,2,,,,0,61,44
193920,note_on,,,,,20,0,1,,,,0,82,56
194020,note_off,,,,,100,0,1,,,,0,82,64
194040,note_on,,,,,0,0,2,,,,0,64,48
194040,note_on,,,,,20,0,1,,,,0,82,67
194040,note_off,,,,,120,0,2,,,,0,61,64
194100,set_tempo,,,,,200,1,0,222222,,,,,
194160,note_on,,,,,0,0,1,,,,0,85,54
194160,note_off,,,,,120,0,1,,,,0,82,64
194160,note_on,,,,,0,0,2,,,,0,58,43
194160,note_off,,,,,120,0,2,,,,0,64,64
194220,set_tempo,,,,,120,1,0,225564,,,,,
194260,note_off,,,,,100,0,1,,,,0,85,64
194280,note_on,,,,,0,0,2,,,,0,61,41
194280,note_off,,,,,120,0,2,,,,0,58,64
194280,note_on,,,,,20,0,1,,,,0,85,49
194360,set_tempo,,,,,140,1,0,229008,,,,,
194380,note_off,,,,,100,0,1,,,,0,85,64
194400,note_on,,,,,0,0,2,,,,0,54,52
194400,note_on,,,,,20,0,1,,,,0,78,58
194400,note_off,,,,,120,0,2,,,,0,61,64
194500,set_tempo,,,,,140,1,0,232558,,,,,
194520,note_off,,,,,120,0,2,,,,0,54,64
194520,note_on,,,,,0,0,2,,,,0,59,43
194640,note_off,,,,,120,0,2,,,,0,59,64
194640,note_on,,,,,0,0,2,,,,0,63,47
194640,note_off,,,,,240,0,1,,,,0,78,64
194640,set_tempo,,,,,140,1,0,238095,,,,,
194640,note_on,,,,,0,0,1,,,,0,80,57
194700,note_off,,,,,60,0,1,,,,0,80,64
194700,note_on,,,,,0,0,1,,,,0,82,54
194760,note_off,,,,,60,0,1,,,,0,82,64
194760,note_on,,,,,0,0,1,,,,0,83,52
194760,note_off,,,,,120,0,2,,,,0,63,64
194760,note_on,,,,,0,0,2,,,,0,66,50
194880,note_off,,,,,120,0,1,,,,0,83,64
194880,note_on,,,,,0,0,2,,,,0,59,46
194880,note_off,,,,,120,0,2,,,,0,66,64
195000,note_off,,,,,120,0,2,,,,0,59,64
195000,note_on,,,,,0,0,2,,,,0,63,42
195000,note_on,,,,,120,0,1,,,,0,83,56
195100,set_tempo,,,,,460,1,0,234375,,,,,
195120,note_on,,,,,0,0,1,,,,0,83,64
195120,note_off,,,,,120,0,1,,,,0,83,64
195120,note_off,,,,,120,0,2,,,,0,63,64
195120,note_on,,,,,0,0,2,,,,0,54,53
195220,set_tempo,,,,,120,1,0,230769,,,,,
195240,note_on,,,,,0,0,1,,,,0,87,47
195240,note_off,,,,,120,0,2,,,,0,54,64
195240,note_on,,,,,0,0,2,,,,0,59,42
195240,note_off,,,,,120,0,1,,,,0,83,64
195260,set_tempo,,,,,40,1,0,224719,,,,,
195340,note_off,,,,,100,0,1,,,,0,87,64
195360,note_off,,,,,120,0,2,,,,0,59,64
195360,note_on,,,,,0,0,2,,,,0,63,44
195360,note_on,,,,,20,0,1,,,,0,87,51
195400,set_tempo,,,,,140,1,0,221402,,,,,
195460,note_off,,,,,100,0,1,,,,0,87,64
195480,note_on,,,,,20,0,1,,,,0,87,62
195480,note_off,,,,,120,0,2,,,,0,63,64
195480,note_on,,,,,0,0,2,,,,0,66,53
195600,note_off,,,,,120,0,1,,,,0,87,64
195600,note_on,,,,,0,0,1,,,,0,83,50
195600,note_off,,,,,120,0,2,,,,0,66,64
195600,note_on,,,,,0,0,2,,,,0,59,50
195700,note_off,,,,,100,0,1,,,,0,83,64
195720,note_on,,,,,20,0,1,,,,0,83,53
195720,note_on,,,,,0,0,2,,,,0,63,44
195720,note_off,,,,,120,0,2,,,,0,59,64
195820,note_off,,,,,100,0,1,,,,0,83,64
195840,note_on,,,,,20,0,1,,,,0,83,65
195840,note_on,,,,,0,0,2,,,,0,54,52
195840,note_off,,,,,120,0,2,,,,0,63,64
195960,note_off,,,,,120,0,2,,,,0,54,64
195960,note_off,,,,,120,0,1,,,,0,83,64
195960,note_on,,,,,0,0,1,,,,0,90,55
195960,note_on,,,,,0,0,2,,,,0,59,45
196060,note_off,,,,,100,0,1,,,,0,90,64
196060,set_tempo,,,,,660,1,0,225564,,,,,
196080,note_off,,,,,120,0,2,,,,0,59,64
196080,note_on,,,,,20,0,1,,,,0,90,58
196080,note_on,,,,,0,0,2,,,,0,63,50
196180,note_off,,,,,100,0,1,,,,0,90,64
196200,note_on,,,,,0,0,2,,,,0,66,51
196200,note_on,,,,,20,0,1,,,,0,90,72
196200,note_off,,,,,120,0,2,,,,0,63,64
196320,note_off,,,,,120,0,1,,,,0,90,64
196320,note_on,,,,,0,0,1,,,,0,87,52
196320,note_on,,,,,0,0,2,,,,0,59,49
196320,note_off,,,,,120,0,2,,,,0,66,64
196320,set_tempo,,,,,260,1,0,227273,,,,,
196420,note_off,,,,,100,0,1,,,,0,87,64
196440,note_on,,,,,20,0,1,,,,0,87,64
196440,note_on,,,,,0,0,2,,,,0,63,44
196440,note_off,,,,,120,0,2,,,,0,59,64
196540,set_tempo,,,,,220,1,0,241935,,,,,
196540,note_off,,,,,100,0,1,,,,0,87,64
196560,note_off,,,,,120,0,2,,,,0,63,64
196560,note_on,,,,,0,0,2,,,,0,54,53
196560,note_on,,,,,20,0,1,,,,0,89,69
196680,note_off,,,,,120,0,1,,,,0,89,64
196680,note_off,,,,,120,0,2,,,,0,54,64
196680,note_on,,,,,0,0,2,,,,0,59,43
196680,note_on,,,,,0,0,1,,,,0,95,51
196780,note_off,,,,,100,0,1,,,,0,95,64
196800,note_off,,,,,120,0,2,,,,0,59,64
196800,note_on,,,,,0,0,2,,,,0,62,46
196800,note_on,,,,,20,0,1,,,,0,95,56
196900,note_off,,,,,100,0,1,,,,0,95,64
196920,note_on,,,,,20,0,1,,,,0,98,66
196920,note_off,,,,,120,0,2,,,,0,62,64
196920,note_on,,,,,0,0,2,,,,0,68,42
197040,note_on,,,,,0,0,2,,,,0,59,39
197040,note_off,,,,,120,0,2,,,,0,68,64
197040,note_on,,,,,0,0,1,,,,0,89,50
197040,note_off,,,,,120,0,1,,,,0,98,64
197140,note_off,,,,,100,0,1,,,,0,89,64
197160,note_on,,,,,0,0,2,,,,0,62,36
197160,note_off,,,,,120,0,2,,,,0,59,64
197160,note_on,,,,,20,0,1,,,,0,89,54
197260,note_off,,,,,100,0,1,,,,0,89,64
197280,note_on,,,,,0,0,2,,,,0,54,54
197280,note_off,,,,,120,0,2,,,,0,62,64
197280,note_on,,,,,20,0,1,,,,0,90,62
197300,set_tempo,,,,,760,1,0,234375,,,,,
197400,note_on,,,,,0,0,2,,,,0,58,49
197400,note_off,,,,,120,0,2,,,,0,54,64
197520,note_on,,,,,0,0,2,,,,0,61,46
197520,note_off,,,,,120,0,2,,,,0,58,64
197560,set_tempo,,,,,260,1,0,238095,,,,,
197640,note_off,,,,,120,0,2,,,,0,61,64
197640,note_on,,,,,0,0,2,,,,0,66,40
197700,note_off,,,,,420,0,1,,,,0,90,64
197740,set_tempo,,,,,180,1,0,241935,,,,,
197760,note_off,,,,,120,0,2,,,,0,66,64
197760,note_on,,,,,60,0,1,,,,0,88,43
197760,note_on,,,,,0,0,2,,,,0,58,37
197860,note_off,,,,,100,0,1,,,,0,88,64
197860,set_tempo,,,,,120,1,0,246914,,,,,
197880,note_off,,,,,120,0,2,,,,0,58,64
197880,note_on,,,,,20,0,1,,,,0,87,47
197880,note_on,,,,,0,0,2,,,,0,61,40
197980,set_tempo,,,,,120,1,0,248963,,,,,
197980,note_off,,,,,100,0,1,,,,0,87,64
198000,note_on,,,,,20,0,1,,,,0,85,50
198000,note_off,,,,,120,0,2,,,,0,61,64
198100,note_off,,,,,100,0,1,,,,0,85,64
198120,note_on,,,,,20,0,1,,,,0,83,44
198220,note_off,,,,,100,0,1,,,,0,83,64
198240,note_on,,,,,240,0,2,,,,0,41,35
198240,note_on,,,,,20,0,1,,,,0,82,38
198340,note_off,,,,,100,0,2,,,,0,41,64
198340,note_off,,,,,100,0,1,,,,0,82,64
198360,note_on,,,,,20,0,1,,,,0,80,41
198360,note_on,,,,,20,0,2,,,,0,42,39
198460,note_off,,,,,100,0,2,,,,0,42,64
198460,note_off,,,,,100,0,1,,,,0,80,64
198480,note_on,,,,,20,0,1,,,,0,78,45
198480,note_on,,,,,20,0,2,,,,0,44,45
198580,note_off,,,,,100,0,1,,,,0,78,64
198580,note_off,,,,,100,0,2,,,,0,44,64
198600,note_on,,,,,20,0,2,,,,0,46,49
198600,note_on,,,,,20,0,1,,,,0,76,50
198700,note_off,,,,,100,0,2,,,,0,46,64
198700,note_off,,,,,100,0,1,,,,0,76,64
198720,note_on,,,,,20,0,2,,,,0,47,37
198720,set_tempo,,,,,740,1,0,227273,,,,,
198720,note_on,,,,,20,0,1,,,,0,75,52
198726,control_change,,,,,6,0,1,,64,96,0,,
198840,note_on,,,,,0,0,2,,,,0,51,31
198840,note_off,,,,,120,0,2,,,,0,47,64
198960,note_on,,,,,0,0,2,,,,0,54,35
198960,note_off,,,,,120,0,2,,,,0,51,64
199080,note_on,,,,,0,0,2,,,,0,59,37
199080,note_off,,,,,120,0,2,,,,0,54,64
199200,note_on,,,,,0,0,2,,,,0,51,31
199200,note_off,,,,,120,0,2,,,,0,59,64
199320,note_on,,,,,0,0,2,,,,0,54,27
199320,note_off,,,,,120,0,2,,,,0,51,64
199412,control_change,,,,,686,0,1,,64,0,0,,
199416,note_off,,,,,96,0,2,,,,0,54,64
199440,note_on,,,,,0,0,1,,,,0,73,38
199440,note_off,,,,,28,0,1,,,,0,75,64
199440,note_on,,,,,24,0,2,,,,0,47,36
199446,control_change,,,,,6,0,1,,64,96,0,,
199560,note_off,,,,,120,0,2,,,,0,47,64
199560,note_on,,,,,0,0,2,,,,0,52,39
199680,note_on,,,,,0,0,2,,,,0,55,42
199680,note_off,,,,,120,0,2,,,,0,52,64
199780,set_tempo,,,,,1060,1,0,250000,,,,,
199800,note_off,,,,,354,0,1,,,,0,73,64
199800,note_on,,,,,0,0,1,,,,0,70,37
199800,note_on,,,,,0,0,2,,,,0,61,43
199800,note_off,,,,,120,0,2,,,,0,55,64
199920,note_on,,,,,0,0,2,,,,0,52,42
199920,note_off,,,,,120,0,2,,,,0,61,64
200040,note_off,,,,,120,0,2,,,,0,52,64
200040,note_on,,,,,0,0,2,,,,0,55,37
200132,control_change,,,,,332,0,1,,64,0,0,,
200136,note_off,,,,,4,0,1,,,,0,70,64
200136,note_off,,,,,96,0,2,,,,0,55,64
200140,set_tempo,,,,,360,1,0,276498,,,,,
200160,note_on,,,,,24,0,1,,,,0,70,46
200160,note_on,,,,,24,0,2,,,,0,47,37
200166,control_change,,,,,6,0,1,,64,96,0,,
200280,note_on,,,,,0,0,1,,,,0,71,48
200280,note_off,,,,,114,0,1,,,,0,70,64
200280,set_tempo,,,,,140,1,0,227273,,,,,
200280,note_off,,,,,120,0,2,,,,0,47,64
200280,note_on,,,,,0,0,2,,,,0,51,31
200400,note_on,,,,,0,0,2,,,,0,54,35
200400,note_off,,,,,120,0,2,,,,0,51,64
200400,note_on,,,,,0,0,1,,,,0,73,50
200400,note_off,,,,,120,0,1,,,,0,71,64
200520,note_on,,,,,0,0,1,,,,0,75,51
200520,note_off,,,,,120,0,2,,,,0,54,64
200520,note_on,,,,,0,0,2,,,,0,59,37
200520,set_tempo,,,,,240,1,0,238095,,,,,
200520,note_off,,,,,120,0,1,,,,0,73,64
200640,note_on,,,,,0,0,2,,,,0,51,31
200640,note_off,,,,,120,0,1,,,,0,75,64
200640,note_on,,,,,0,0,1,,,,0,71,48
200640,note_off,,,,,120,0,2,,,,0,59,64
200760,note_off,,,,,120,0,1,,,,0,71,64
200760,note_on,,,,,0,0,1,,,,0,73,44
200760,note_on,,,,,0,0,2,,,,0,54,27
200760,note_off,,,,,120,0,2,,,,0,51,64
200852,control_change,,,,,92,0,1,,64,0,0,,
200856,note_off,,,,,96,0,2,,,,0,54,64
200880,control_change,,,,,0,0,1,,64,95,0,,
200880,note_off,,,,,28,0,1,,,,0,73,64
200880,note_on,,,,,24,0,2,,,,0,47,34
200880,note_on,,,,,0,0,1,,,,0,66,40
201000,note_on,,,,,0,0,2,,,,0,51,31
201000,note_off,,,,,120,0,2,,,,0,47,64
201120,note_on,,,,,0,0,2,,,,0,54,32
201120,note_off,,,,,120,0,2,,,,0,51,64
201120,note_off,,,,,240,0,1,,,,0,66,64
201240,note_on,,,,,0,0,2,,,,0,59,38
201240,note_off,,,,,120,0,2,,,,0,54,64
201360,note_off,,,,,120,0,2,,,,0,59,64
201360,note_on,,,,,0,0,2,,,,0,51,34
201480,note_off,,,,,120,0,2,,,,0,51,64
201480,note_on,,,,,360,0,1,,,,0,66,44
201480,note_on,,,,,0,0,2,,,,0,54,32
201512,control_change,,,,,32,0,1,,64,0,0,,
201576,note_off,,,,,96,0,2,,,,0,54,64
201600,note_on,,,,,0,0,1,,,,0,76,46
201600,note_off,,,,,88,0,1,,,,0,66,64
201600,note_on,,,,,24,0,2,,,,0,46,39
201600,control_change,,,,,0,0,1,,64,95,0,,
201720,note_on,,,,,0,0,2,,,,0,49,31
201720,note_off,,,,,120,0,2,,,,0,46,64
201840,note_on,,,,,0,0,2,,,,0,54,34
201840,note_off,,,,,120,0,2,,,,0,49,64
201860,set_tempo,,,,,1340,1,0,234375,,,,,
201960,note_on,,,,,0,0,2,,,,0,61,39
201960,note_off,,,,,120,0,2,,,,0,54,64
202080,note_on,,,,,0,0,2,,,,0,49,38
202080,note_off,,,,,120,0,2,,,,0,61,64
202100,set_tempo,,,,,240,1,0,230769,,,,,
202200,note_off,,,,,120,0,2,,,,0,49,64
202200,note_on,,,,,0,0,2,,,,0,54,34
202306,control_change,,,,,706,0,1,,64,0,0,,
202320,note_off,,,,,14,0,1,,,,0,76,64
202320,note_on,,,,,0,0,2,,,,0,47,39
202320,note_off,,,,,120,0,2,,,,0,54,64
202320,control_change,,,,,0,0,1,,64,96,0,,
202320,note_on,,,,,0,0,1,,,,0,75,41
202440,note_on,,,,,0,0,2,,,,0,51,30
202440,note_off,,,,,120,0,2,,,,0,47,64
202560,note_on,,,,,0,0,2,,,,0,54,35
202560,note_off,,,,,120,0,2,,,,0,51,64
202666,control_change,,,,,346,0,1,,64,0,0,,
202680,note_off,,,,,120,0,2,,,,0,54,64
202680,note_off,,,,,14,0,1,,,,0,75,64
202680,note_on,,,,,0,0,1,,,,0,71,34
202680,control_change,,,,,0,0,1,,64,94,0,,
202680,note_on,,,,,0,0,2,,,,0,51,39
202800,set_tempo,,,,,700,1,0,229008,,,,,
202800,note_off,,,,,120,0,2,,,,0,51,64
202800,note_on,,,,,0,0,2,,,,0,54,37
202920,note_off,,,,,120,0,2,,,,0,54,64
202920,note_on,,,,,0,0,2,,,,0,59,33
203026,control_change,,,,,346,0,1,,64,0,0,,
203040,note_off,,,,,120,0,2,,,,0,59,64
203040,note_on,,,,,0,0,1,,,,0,70,48
203040,note_off,,,,,14,0,1,,,,0,71,64
203040,control_change,,,,,0,0,1,,64,95,0,,
203040,note_on,,,,,0,0,2,,,,0,52,39
203160,note_off,,,,,120,0,2,,,,0,52,64
203160,note_on,,,,,0,0,2,,,,0,54,32
203280,note_off,,,,,120,0,2,,,,0,54,64
203280,note_on,,,,,0,0,2,,,,0,55,33
203400,note_off,,,,,120,0,2,,,,0,55,64
203400,note_on,,,,,0,0,2,,,,0,61,40
203500,set_tempo,,,,,700,1,0,226415,,,,,
203520,note_off,,,,,120,0,2,,,,0,61,64
203520,note_on,,,,,0,0,2,,,,0,54,35
203640,note_off,,,,,120,0,2,,,,0,54,64
203640,note_on,,,,,0,0,2,,,,0,55,38
203746,control_change,,,,,706,0,1,,64,0,0,,
203760,note_off,,,,,120,0,2,,,,0,55,64
203760,note_on,,,,,0,0,2,,,,0,51,44
203760,control_change,,,,,0,0,1,,64,95,0,,
203760,note_on,,,,,0,0,1,,,,0,71,46
203760,note_off,,,,,14,0,1,,,,0,70,64
203880,note_off,,,,,120,0,2,,,,0,51,64
203880,note_on,,,,,0,0,2,,,,0,54,35
203980,set_tempo,,,,,480,1,0,229885,,,,,
204000,note_off,,,,,120,0,2,,,,0,54,64
204000,note_on,,,,,0,0,2,,,,0,59,42
204100,set_tempo,,,,,120,1,0,234375,,,,,
204106,control_change,,,,,346,0,1,,64,0,0,,
204120,note_on,,,,,0,0,2,,,,0,53,37
204120,note_off,,,,,120,0,2,,,,0,59,64
204120,note_on,,,,,0,0,1,,,,0,80,39
204120,note_off,,,,,14,0,1,,,,0,71,64
204120,control_change,,,,,0,0,1,,64,95,0,,
204240,note_on,,,,,0,0,2,,,,0,59,33
204240,note_off,,,,,120,0,2,,,,0,53,64
204360,note_off,,,,,120,0,2,,,,0,59,64
204360,note_on,,,,,0,0,2,,,,0,62,33
204420,note_off,,,,,300,0,1,,,,0,80,64
204460,set_tempo,,,,,360,1,0,235294,,,,,
204466,control_change,,,,,46,0,1,,64,0,0,,
204480,set_tempo,,,,,20,1,0,262009,,,,,
204480,note_off,,,,,120,0,2,,,,0,62,64
204480,note_on,,,,,14,0,1,,,,0,77,34
204480,note_on,,,,,0,0,2,,,,0,54,44
204580,set_tempo,,,,,100,1,0,235294,,,,,
204600,note_on,,,,,0,0,2,,,,0,59,34
204600,note_off,,,,,120,0,2,,,,0,54,64
204600,note_on,,,,,0,0,1,,,,0,78,37
204600,note_off,,,,,120,0,1,,,,0,77,64
204720,note_off,,,,,120,0,1,,,,0,78,64
204720,set_tempo,,,,,140,1,0,238095,,,,,
204720,note_on,,,,,0,0,2,,,,0,63,41
204720,note_off,,,,,120,0,2,,,,0,59,64
204720,note_on,,,,,0,0,1,,,,0,80,40
204840,note_off,,,,,120,0,1,,,,0,80,64
204840,note_off,,,,,120,0,2,,,,0,63,64
204840,note_on,,,,,0,0,1,,,,0,78,42
204840,note_on,,,,,0,0,2,,,,0,66,45
204960,note_on,,,,,0,0,1,,,,0,87,44
204960,note_off,,,,,120,0,1,,,,0,78,64
204960,note_off,,,,,120,0,2,,,,0,66,64
204960,note_on,,,,,0,0,2,,,,0,59,47
205080,note_on,,,,,0,0,2,,,,0,63,44
205080,note_on,,,,,0,0,1,,,,0,83,46
205080,set_tempo,,,,,360,1,0,240964,,,,,
205080,note_off,,,,,120,0,2,,,,0,59,64
205080,note_off,,,,,120,0,1,,,,0,87,64
205200,note_off,,,,,120,0,2,,,,0,63,64
205200,note_on,,,,,0,0,2,,,,0,54,42
205200,note_on,,,,,0,0,1,,,,0,82,48
205200,note_off,,,,,120,0,1,,,,0,83,64
205320,note_on,,,,,0,0,1,,,,0,80,47
205320,note_on,,,,,0,0,2,,,,0,61,42
205320,note_off,,,,,120,0,1,,,,0,82,64
205320,note_off,,,,,120,0,2,,,,0,54,64
205440,note_off,,,,,120,0,2,,,,0,61,64
205440,note_on,,,,,0,0,2,,,,0,64,37
205440,note_on,,,,,0,0,1,,,,0,78,41
205440,note_off,,,,,120,0,1,,,,0,80,64
205500,set_tempo,,,,,420,1,0,243902,,,,,
205560,note_on,,,,,0,0,1,,,,0,76,39
205560,note_on,,,,,0,0,2,,,,0,66,36
205560,note_off,,,,,120,0,2,,,,0,64,64
205560,note_off,,,,,120,0,1,,,,0,78,64
205680,note_on,,,,,0,0,2,,,,0,61,35
205680,note_off,,,,,120,0,2,,,,0,66,64
205680,note_on,,,,,0,0,1,,,,0,75,37
205680,note_off,,,,,120,0,1,,,,0,76,64
205800,note_on,,,,,0,0,1,,,,0,73,33
205800,note_off,,,,,120,0,1,,,,0,75,64
205800,note_on,,,,,0,0,2,,,,0,64,33
205800,note_off,,,,,120,0,2,,,,0,61,64
205880,set_tempo,,,,,380,1,0,252101,,,,,
205920,note_off,,,,,120,0,2,,,,0,64,64
205920,note_on,,,,,0,0,2,,,,0,47,37
205920,note_on,,,,,0,0,1,,,,0,71,29
205920,note_off,,,,,120,0,1,,,,0,73,64
205920,control_change,,,,,0,0,1,,64,95,0,,
206040,note_off,,,,,120,0,2,,,,0,47,64
206040,note_on,,,,,0,0,2,,,,0,51,42
206160,note_off,,,,,120,0,2,,,,0,51,64
206160,note_on,,,,,0,0,2,,,,0,54,45
206260,set_tempo,,,,,380,1,0,245902,,,,,
206280,note_off,,,,,120,0,2,,,,0,54,64
206280,note_on,,,,,0,0,2,,,,0,59,43
206400,note_off,,,,,120,0,2,,,,0,59,64
206400,note_on,,,,,0,0,2,,,,0,51,40
206440,set_tempo,,,,,180,1,0,240000,,,,,
206460,note_off,,,,,540,0,1,,,,0,71,64
206520,note_on,,,,,60,0,1,,,,0,71,49
206520,note_off,,,,,120,0,2,,,,0,51,64
206520,note_on,,,,,0,0,2,,,,0,54,36
206640,note_off,,,,,120,0,2,,,,0,54,64
206640,note_off,,,,,120,0,1,,,,0,71,64
206640,note_on,,,,,0,0,1,,,,0,78,52
206640,control_change,,,,,0,0,1,,64,0,0,,
206640,note_on,,,,,0,0,2,,,,0,47,49
206680,set_tempo,,,,,240,1,0,236220,,,,,
206760,note_on,,,,,0,0,2,,,,0,51,42
206760,note_off,,,,,120,0,1,,,,0,78,64
206760,note_off,,,,,120,0,2,,,,0,47,64
206880,note_off,,,,,120,0,2,,,,0,51,64
206880,note_on,,,,,120,0,1,,,,0,78,46
206880,note_on,,,,,0,0,2,,,,0,54,45
206920,set_tempo,,,,,240,1,0,230769,,,,,
207000,note_on,,,,,0,0,2,,,,0,57,48
207000,note_off,,,,,120,0,2,,,,0,54,64
207000,note_off,,,,,120,0,1,,,,0,78,64
207000,note_on,,,,,0,0,1,,,,0,75,53
207120,note_off,,,,,120,0,2,,,,0,57,64
207120,note_on,,,,,0,0,2,,,,0,51,44
207120,note_off,,,,,120,0,1,,,,0,75,64
207240,note_on,,,,,120,0,1,,,,0,75,46
207240,note_off,,,,,120,0,2,,,,0,51,64
207240,note_on,,,,,0,0,2,,,,0,54,41
207300,set_tempo,,,,,380,1,0,226415,,,,,
207360,note_on,,,,,0,0,1,,,,0,81,59
207360,note_off,,,,,120,0,1,,,,0,75,64
207360,note_on,,,,,0,0,2,,,,0,47,49
207360,note_off,,,,,120,0,2,,,,0,54,64
207480,note_on,,,,,0,0,2,,,,0,51,40
207480,note_off,,,,,120,0,2,,,,0,47,64
207480,note_off,,,,,120,0,1,,,,0,81,64
207600,note_on,,,,,120,0,1,,,,0,81,45
207600,note_off,,,,,120,0,2,,,,0,51,64
207600,note_on,,,,,0,0,2,,,,0,54,44
207720,note_off,,,,,120,0,1,,,,0,81,64
207720,note_off,,,,,120,0,2,,,,0,54,64
207720,note_on,,,,,0,0,2,,,,0,57,48
207720,note_on,,,,,0,0,1,,,,0,78,54
207840,note_off,,,,,120,0,1,,,,0,78,64
207840,note_off,,,,,120,0,2,,,,0,57,64
207840,note_on,,,,,0,0,2,,,,0,51,44
207960,note_on,,,,,120,0,1,,,,0,78,47
207960,note_off,,,,,120,0,2,,,,0,51,64
207960,note_on,,,,,0,0,2,,,,0,54,39
208080,note_on,,,,,0,0,2,,,,0,47,50
208080,note_on,,,,,0,0,1,,,,0,75,55
208080,note_off,,,,,120,0,1,,,,0,78,64
208080,note_off,,,,,120,0,2,,,,0,54,64
208200,note_off,,,,,120,0,1,,,,0,75,64
208200,note_on,,,,,0,0,2,,,,0,51,40
208200,note_off,,,,,120,0,2,,,,0,47,64
208320,note_on,,,,,0,0,2,,,,0,54,44
208320,set_tempo,,,,,1020,1,0,229885,,,,,
208320,note_on,,,,,120,0,1,,,,0,75,42
208320,note_off,,,,,120,0,2,,,,0,51,64
208440,note_off,,,,,120,0,2,,,,0,54,64
208440,note_on,,,,,0,0,2,,,,0,57,48
208440,note_on,,,,,0,0,1,,,,0,78,49
208440,note_off,,,,,120,0,1,,,,0,75,64
208500,set_tempo,,,,,180,1,0,231660,,,,,
208560,note_off,,,,,120,0,2,,,,0,57,64
208560,note_off,,,,,120,0,1,,,,0,78,64
208560,note_on,,,,,0,0,2,,,,0,51,43
208680,note_on,,,,,120,0,1,,,,0,78,39
208680,note_off,,,,,120,0,2,,,,0,51,64
208680,note_on,,,,,0,0,2,,,,0,54,41
208720,set_tempo,,,,,220,1,0,232558,,,,,
208800,note_on,,,,,0,0,1,,,,0,71,50
208800,note_off,,,,,120,0,1,,,,0,78,64
208800,note_on,,,,,0,0,2,,,,0,47,52
208800,note_off,,,,,120,0,2,,,,0,54,64
208860,set_tempo,,,,,140,1,0,235294,,,,,
208920,note_off,,,,,120,0,2,,,,0,47,64
208920,note_on,,,,,0,0,2,,,,0,52,43
209020,set_tempo,,,,,160,1,0,236220,,,,,
209040,note_off,,,,,240,0,1,,,,0,71,64
209040,note_on,,,,,0,0,1,,,,0,73,46
209040,note_on,,,,,0,0,2,,,,0,56,47
209040,note_off,,,,,120,0,2,,,,0,52,64
209100,note_off,,,,,60,0,1,,,,0,73,64
209100,note_on,,,,,0,0,1,,,,0,75,42
209160,note_on,,,,,0,0,2,,,,0,59,50
209160,note_off,,,,,60,0,1,,,,0,75,64
209160,note_on,,,,,0,0,1,,,,0,76,38
209160,note_off,,,,,120,0,2,,,,0,56,64
209280,note_off,,,,,120,0,1,,,,0,76,64
209280,note_off,,,,,120,0,2,,,,0,59,64
209280,note_on,,,,,0,0,2,,,,0,52,46
209400,note_on,,,,,120,0,1,,,,0,76,40
209400,note_off,,,,,120,0,2,,,,0,52,64
209400,note_on,,,,,0,0,2,,,,0,56,42
209460,set_tempo,,,,,440,1,0,234375,,,,,
209520,note_on,,,,,0,0,2,,,,0,47,53
209520,note_off,,,,,120,0,2,,,,0,56,64
209520,note_off,,,,,120,0,1,,,,0,76,64
209520,note_on,,,,,0,0,1,,,,0,80,55
209620,set_tempo,,,,,160,1,0,231660,,,,,
209640,note_off,,,,,120,0,1,,,,0,80,64
209640,note_off,,,,,120,0,2,,,,0,47,64
209640,note_on,,,,,0,0,2,,,,0,52,42
209760,note_on,,,,,0,0,2,,,,0,56,44
209760,note_off,,,,,120,0,2,,,,0,52,64
209760,note_on,,,,,120,0,1,,,,0,80,41
209820,set_tempo,,,,,200,1,0,229885,,,,,
209880,note_off,,,,,120,0,1,,,,0,80,64
209880,note_on,,,,,0,0,1,,,,0,76,50
209880,note_on,,,,,0,0,2,,,,0,59,53
209880,note_off,,,,,120,0,2,,,,0,56,64
210000,note_on,,,,,0,0,2,,,,0,52,50
210000,note_off,,,,,120,0,1,,,,0,76,64
210000,note_off,,,,,120,0,2,,,,0,59,64
210060,set_tempo,,,,,240,1,0,227273,,,,,
210120,note_on,,,,,120,0,1,,,,0,76,41
210120,note_on,,,,,0,0,2,,,,0,56,44
210120,note_off,,,,,120,0,2,,,,0,52,64
210200,set_tempo,,,,,140,1,0,225564,,,,,
210240,note_on,,,,,0,0,1,,,,0,83,57
210240,note_on,,,,,0,0,2,,,,0,47,52
210240,note_off,,,,,120,0,1,,,,0,76,64
210240,note_off,,,,,120,0,2,,,,0,56,64
210360,note_off,,,,,120,0,2,,,,0,47,64
210360,note_on,,,,,0,0,2,,,,0,52,45
210360,note_off,,,,,120,0,1,,,,0,83,64
210480,note_off,,,,,120,0,2,,,,0,52,64
210480,note_on,,,,,0,0,2,,,,0,56,50
210480,note_on,,,,,120,0,1,,,,0,83,44
210600,note_off,,,,,120,0,2,,,,0,56,64
210600,note_on,,,,,0,0,1,,,,0,80,55
210600,note_on,,,,,0,0,2,,,,0,59,51
210600,note_off,,,,,120,0,1,,,,0,83,64
210720,note_on,,,,,0,0,2,,,,0,52,49
210720,note_off,,,,,120,0,2,,,,0,59,64
210720,note_off,,,,,120,0,1,,,,0,80,64
210840,note_on,,,,,120,0,1,,,,0,80,46
210840,note_off,,,,,120,0,2,,,,0,52,64
210840,note_on,,,,,0,0,2,,,,0,56,44
210960,note_off,,,,,120,0,2,,,,0,56,64
210960,note_on,,,,,0,0,2,,,,0,47,53
210960,note_on,,,,,0,0,1,,,,0,85,54
210960,note_off,,,,,120,0,1,,,,0,80,64
211080,note_off,,,,,120,0,2,,,,0,47,64
211080,note_on,,,,,0,0,2,,,,0,52,43
211080,note_off,,,,,120,0,1,,,,0,85,64
211200,note_on,,,,,120,0,1,,,,0,85,39
211200,note_off,,,,,120,0,2,,,,0,52,64
211200,note_on,,,,,0,0,2,,,,0,55,46
211320,note_off,,,,,120,0,1,,,,0,85,64
211320,note_on,,,,,0,0,1,,,,0,82,50
211320,note_off,,,,,120,0,2,,,,0,55,64
211320,note_on,,,,,0,0,2,,,,0,61,42
211440,note_on,,,,,0,0,2,,,,0,52,39
211440,note_off,,,,,120,0,2,,,,0,61,64
211440,note_off,,,,,120,0,1,,,,0,82,64
211560,note_off,,,,,120,0,2,,,,0,52,64
211560,note_on,,,,,0,0,2,,,,0,55,36
211560,note_on,,,,,120,0,1,,,,0,82,36
211680,note_on,,,,,0,0,1,,,,0,83,48
211680,note_off,,,,,120,0,1,,,,0,82,64
211680,note_off,,,,,120,0,2,,,,0,55,64
211680,note_on,,,,,0,0,2,,,,0,47,54
211800,note_off,,,,,120,0,2,,,,0,47,64
211800,note_on,,,,,0,0,2,,,,0,51,49
211920,note_on,,,,,0,0,2,,,,0,54,46
211920,note_off,,,,,120,0,2,,,,0,51,64
212040,note_off,,,,,360,0,1,,,,0,83,64
212040,note_on,,,,,0,0,1,,,,0,95,68
212040,note_on,,,,,0,0,2,,,,0,59,40
212040,note_off,,,,,120,0,2,,,,0,54,64
212160,note_on,,,,,0,0,2,,,,0,51,37
212160,note_off,,,,,120,0,1,,,,0,95,64
212160,note_off,,,,,120,0,2,,,,0,59,64
212280,note_off,,,,,120,0,2,,,,0,51,64
212280,note_on,,,,,0,0,2,,,,0,54,40
212280,note_on,,,,,120,0,1,,,,0,71,52
212400,note_off,,,,,120,0,2,,,,0,54,64
212400,note_on,,,,,0,0,2,,,,0,47,49
212400,note_off,,,,,120,0,1,,,,0,71,64
212400,note_on,,,,,0,0,1,,,,0,71,61
212400,control_change,,,,,0,0,1,,64,0,0,,
212520,note_off,,,,,120,0,2,,,,0,47,64
212520,note_on,,,,,0,0,2,,,,0,51,42
212520,note_off,,,,,120,0,1,,,,0,71,64
212520,note_on,,,,,0,0,1,,,,0,78,48
212600,set_tempo,,,,,2400,1,0,221402,,,,,
212620,note_off,,,,,100,0,1,,,,0,78,64
212640,note_off,,,,,120,0,2,,,,0,51,64
212640,note_on,,,,,0,0,2,,,,0,54,45
212640,note_on,,,,,20,0,1,,,,0,78,52
212740,note_off,,,,,100,0,1,,,,0,78,64
212760,note_on,,,,,20,0,1,,,,0,78,65
212760,note_on,,,,,0,0,2,,,,0,57,48
212760,note_off,,,,,120,0,2,,,,0,54,64
212880,note_off,,,,,120,0,1,,,,0,78,64
212880,note_on,,,,,0,0,1,,,,0,75,51
212880,note_on,,,,,0,0,2,,,,0,51,44
212880,note_off,,,,,120,0,2,,,,0,57,64
212980,note_off,,,,,100,0,1,,,,0,75,64
213000,note_on,,,,,0,0,2,,,,0,54,41
213000,note_off,,,,,120,0,2,,,,0,51,64
213000,note_on,,,,,20,0,1,,,,0,75,54
213100,set_tempo,,,,,500,1,0,219780,,,,,
213100,note_off,,,,,100,0,1,,,,0,75,64
213120,note_on,,,,,20,0,1,,,,0,75,70
213120,note_on,,,,,0,0,2,,,,0,47,49
213120,note_off,,,,,120,0,2,,,,0,54,64
213240,note_off,,,,,120,0,1,,,,0,75,64
213240,note_on,,,,,0,0,1,,,,0,81,51
213240,note_on,,,,,0,0,2,,,,0,51,40
213240,note_off,,,,,120,0,2,,,,0,47,64
213340,note_off,,,,,100,0,1,,,,0,81,64
213360,note_on,,,,,20,0,1,,,,0,81,52
213360,note_on,,,,,0,0,2,,,,0,54,44
213360,note_off,,,,,120,0,2,,,,0,51,64
213460,note_off,,,,,100,0,1,,,,0,81,64
213480,note_on,,,,,20,0,1,,,,0,81,69
213480,note_on,,,,,0,0,2,,,,0,57,48
213480,note_off,,,,,120,0,2,,,,0,54,64
213600,note_on,,,,,0,0,2,,,,0,51,44
213600,note_on,,,,,0,0,1,,,,0,78,53
213600,note_off,,,,,120,0,1,,,,0,81,64
213600,note_off,,,,,120,0,2,,,,0,57,64
213700,note_off,,,,,100,0,1,,,,0,78,64
213720,note_off,,,,,120,0,2,,,,0,51,64
213720,note_on,,,,,0,0,2,,,,0,54,39
213720,note_on,,,,,20,0,1,,,,0,78,58
213760,set_tempo,,,,,660,1,0,217391,,,,,
213820,note_off,,,,,100,0,1,,,,0,78,64
213840,note_on,,,,,20,0,1,,,,0,78,70
213840,note_on,,,,,0,0,2,,,,0,47,50
213840,note_off,,,,,120,0,2,,,,0,54,64
213960,note_on,,,,,0,0,2,,,,0,51,40
213960,note_off,,,,,120,0,1,,,,0,78,64
213960,note_on,,,,,0,0,1,,,,0,75,49
213960,note_off,,,,,120,0,2,,,,0,47,64
214060,note_off,,,,,100,0,1,,,,0,75,64
214080,note_on,,,,,20,0,1,,,,0,75,53
214080,note_off,,,,,120,0,2,,,,0,51,64
214080,note_on,,,,,0,0,2,,,,0,54,44
214180,note_off,,,,,100,0,1,,,,0,75,64
214200,note_on,,,,,0,0,2,,,,0,57,48
214200,note_off,,,,,120,0,2,,,,0,54,64
214200,note_on,,,,,20,0,1,,,,0,75,67
214240,set_tempo,,,,,480,1,0,221402,,,,,
214320,note_on,,,,,0,0,2,,,,0,51,43
214320,note_off,,,,,120,0,2,,,,0,57,64
214320,note_off,,,,,120,0,1,,,,0,75,64
214320,note_on,,,,,0,0,1,,,,0,78,53
214380,set_tempo,,,,,140,1,0,226415,,,,,
214420,note_off,,,,,100,0,1,,,,0,78,64
214440,note_off,,,,,120,0,2,,,,0,51,64
214440,note_on,,,,,0,0,2,,,,0,54,41
214440,note_on,,,,,20,0,1,,,,0,78,49
214500,set_tempo,,,,,120,1,0,229885,,,,,
214540,note_off,,,,,100,0,1,,,,0,78,64
214560,note_on,,,,,20,0,1,,,,0,71,53
214560,note_off,,,,,120,0,2,,,,0,54,64
214560,note_on,,,,,0,0,2,,,,0,47,52
214680,set_tempo,,,,,180,1,0,235294,,,,,
214680,note_on,,,,,0,0,2,,,,0,52,43
214680,note_off,,,,,120,0,2,,,,0,47,64
214760,set_tempo,,,,,80,1,0,237154,,,,,
214800,note_off,,,,,240,0,1,,,,0,71,64
214800,note_on,,,,,0,0,1,,,,0,73,57
214800,note_on,,,,,0,0,2,,,,0,56,47
214800,note_off,,,,,120,0,2,,,,0,52,64
214840,set_tempo,,,,,80,1,0,238095,,,,,
214860,note_on,,,,,0,0,1,,,,0,75,54
214860,note_off,,,,,60,0,1,,,,0,73,64
214920,note_on,,,,,0,0,2,,,,0,59,50
214920,note_off,,,,,120,0,2,,,,0,56,64
214920,note_off,,,,,60,0,1,,,,0,75,64
214920,note_on,,,,,0,0,1,,,,0,76,52
215040,note_on,,,,,0,0,2,,,,0,52,46
215040,note_off,,,,,120,0,1,,,,0,76,64
215040,note_off,,,,,120,0,2,,,,0,59,64
215160,note_on,,,,,120,0,1,,,,0,76,56
215160,note_on,,,,,0,0,2,,,,0,56,42
215160,note_off,,,,,120,0,2,,,,0,52,64
215280,note_off,,,,,120,0,1,,,,0,76,64
215280,note_on,,,,,0,0,1,,,,0,76,64
215280,note_on,,,,,0,0,2,,,,0,47,53
215280,set_tempo,,,,,440,1,0,234375,,,,,
215280,note_off,,,,,120,0,2,,,,0,56,64
215400,note_on,,,,,0,0,1,,,,0,80,49
215400,note_off,,,,,120,0,2,,,,0,47,64
215400,set_tempo,,,,,120,1,0,226415,,,,,
215400,note_off,,,,,120,0,1,,,,0,76,64
215400,note_on,,,,,0,0,2,,,,0,52,42
215500,note_off,,,,,100,0,1,,,,0,80,64
215500,set_tempo,,,,,100,1,0,221402,,,,,
215520,note_on,,,,,0,0,2,,,,0,56,44
215520,note_off,,,,,120,0,2,,,,0,52,64
215520,note_on,,,,,20,0,1,,,,0,80,52
215620,note_off,,,,,100,0,1,,,,0,80,64
215640,note_off,,,,,120,0,2,,,,0,56,64
215640,note_on,,,,,20,0,1,,,,0,80,62
215640,note_on,,,,,0,0,2,,,,0,59,53
215760,note_off,,,,,120,0,1,,,,0,80,64
215760,note_on,,,,,0,0,1,,,,0,76,48
215760,note_on,,,,,0,0,2,,,,0,52,50
215760,note_off,,,,,120,0,2,,,,0,59,64
215860,note_off,,,,,100,0,1,,,,0,76,64
215880,note_off,,,,,120,0,2,,,,0,52,64
215880,note_on,,,,,20,0,1,,,,0,76,53
215880,note_on,,,,,0,0,2,,,,0,56,44
215980,note_off,,,,,100,0,1,,,,0,76,64
216000,note_on,,,,,0,0,2,,,,0,47,52
216000,note_on,,,,,20,0,1,,,,0,76,65
216000,note_off,,,,,120,0,2,,,,0,56,64
216120,note_off,,,,,120,0,2,,,,0,47,64
216120,note_on,,,,,0,0,2,,,,0,52,45
216120,note_off,,,,,120,0,1,,,,0,76,64
216120,note_on,,,,,0,0,1,,,,0,83,54
216200,set_tempo,,,,,700,1,0,222222,,,,,
216220,note_off,,,,,100,0,1,,,,0,83,64
216240,note_on,,,,,0,0,2,,,,0,56,50
216240,note_off,,,,,120,0,2,,,,0,52,64
216240,note_on,,,,,20,0,1,,,,0,83,58
216260,set_tempo,,,,,60,1,0,225564,,,,,
216340,note_off,,,,,100,0,1,,,,0,83,64
216360,note_off,,,,,120,0,2,,,,0,56,64
216360,note_on,,,,,20,0,1,,,,0,83,72
216360,note_on,,,,,0,0,2,,,,0,59,51
216420,set_tempo,,,,,160,1,0,229008,,,,,
216480,note_off,,,,,120,0,2,,,,0,59,64
216480,note_on,,,,,0,0,2,,,,0,52,49
216480,note_on,,,,,0,0,1,,,,0,80,57
216480,note_off,,,,,120,0,1,,,,0,83,64
216580,note_off,,,,,100,0,1,,,,0,80,64
216600,note_on,,,,,20,0,1,,,,0,80,63
216600,note_off,,,,,120,0,2,,,,0,52,64
216600,note_on,,,,,0,0,2,,,,0,56,44
216680,set_tempo,,,,,260,1,0,263158,,,,,
216700,note_off,,,,,100,0,1,,,,0,80,64
216720,note_on,,,,,20,0,1,,,,0,82,69
216720,note_on,,,,,0,0,2,,,,0,47,53
216720,note_off,,,,,120,0,2,,,,0,56,64
216820,set_tempo,,,,,140,1,0,250000,,,,,
216840,note_on,,,,,0,0,2,,,,0,52,43
216840,note_off,,,,,120,0,2,,,,0,47,64
216840,note_on,,,,,0,0,1,,,,0,88,52
216840,note_off,,,,,120,0,1,,,,0,82,64
216940,note_off,,,,,100,0,1,,,,0,88,64
216960,note_on,,,,,0,0,2,,,,0,55,46
216960,note_on,,,,,20,0,1,,,,0,88,58
216960,note_off,,,,,120,0,2,,,,0,52,64
217000,set_tempo,,,,,180,1,0,245902,,,,,
217060,note_off,,,,,100,0,1,,,,0,88,64
217080,note_off,,,,,120,0,2,,,,0,55,64
217080,note_on,,,,,20,0,1,,,,0,91,66
217080,note_on,,,,,0,0,2,,,,0,61,42
217200,note_off,,,,,120,0,2,,,,0,61,64
217200,note_on,,,,,0,0,2,,,,0,52,39
217200,note_on,,,,,0,0,1,,,,0,82,49
217200,note_off,,,,,120,0,1,,,,0,91,64
217220,set_tempo,,,,,220,1,0,241935,,,,,
217300,note_off,,,,,100,0,1,,,,0,82,64
217320,note_on,,,,,0,0,2,,,,0,55,36
217320,note_on,,,,,20,0,1,,,,0,82,54
217320,note_off,,,,,120,0,2,,,,0,52,64
217420,note_off,,,,,100,0,1,,,,0,82,64
217440,note_on,,,,,20,0,1,,,,0,83,62
217440,set_tempo,,,,,220,1,0,237154,,,,,
217440,note_on,,,,,0,0,2,,,,0,47,54
217440,note_off,,,,,120,0,2,,,,0,55,64
217460,set_tempo,,,,,20,1,0,232558,,,,,
217560,note_on,,,,,0,0,2,,,,0,51,49
217560,note_off,,,,,120,0,2,,,,0,47,64
217680,note_on,,,,,0,0,2,,,,0,54,46
217680,note_off,,,,,120,0,2,,,,0,51,64
217800,note_on,,,,,0,0,2,,,,0,59,40
217800,note_off,,,,,120,0,2,,,,0,54,64
217860,note_off,,,,,420,0,1,,,,0,83,64
217920,note_off,,,,,120,0,2,,,,0,59,64
217920,note_on,,,,,60,0,1,,,,0,81,44
217920,note_on,,,,,0,0,2,,,,0,51,37
218020,note_off,,,,,100,0,1,,,,0,81,64
218040,note_off,,,,,120,0,2,,,,0,51,64
218040,note_on,,,,,0,0,2,,,,0,54,40
218040,note_on,,,,,20,0,1,,,,0,80,46
218140,note_off,,,,,100,0,1,,,,0,80,64
218160,note_on,,,,,20,0,1,,,,0,78,49
218160,note_off,,,,,120,0,2,,,,0,54,64
218260,note_off,,,,,100,0,1,,,,0,78,64
218280,note_on,,,,,20,0,1,,,,0,76,48
218380,note_off,,,,,100,0,1,,,,0,76,64
218400,note_on,,,,,20,0,1,,,,0,75,42
218500,note_off,,,,,100,0,1,,,,0,75,64
218520,note_on,,,,,20,0,1,,,,0,73,40
218620,note_off,,,,,100,0,1,,,,0,73,64
218640,note_on,,,,,20,0,1,,,,0,71,38
218740,note_off,,,,,100,0,1,,,,0,71,64
218760,note_on,,,,,20,0,1,,,,0,70,36
218860,note_off,,,,,100,0,1,,,,0,70,64
218880,note_on,,,,,20,0,1,,,,0,68,40
218980,note_off,,,,,100,0,1,,,,0,68,64
219000,note_on,,,,,20,0,1,,,,0,66,38
219100,note_off,,,,,100,0,1,,,,0,66,64
219120,note_on,,,,,20,0,1,,,,0,64,33
219220,note_off,,,,,100,0,1,,,,0,64,64
219240,note_on,,,,,20,0,1,,,,0,63,31
219340,note_off,,,,,100,0,1,,,,0,63,64
219360,note_on,,,,,20,0,1,,,,0,61,27
219460,note_off,,,,,100,0,1,,,,0,61,64
219480,note_on,,,,,1320,0,2,,,,0,59,36
219580,note_off,,,,,100,0,2,,,,0,59,64
219600,note_on,,,,,20,0,2,,,,0,58,38
219700,note_off,,,,,100,0,2,,,,0,58,64
219720,note_on,,,,,20,0,2,,,,0,56,38
219820,note_off,,,,,100,0,2,,,,0,56,64
219840,note_on,,,,,20,0,2,,,,0,54,38
219940,note_off,,,,,100,0,2,,,,0,54,64
219960,note_on,,,,,20,0,2,,,,0,52,35
220060,note_off,,,,,100,0,2,,,,0,52,64
220080,note_on,,,,,20,0,2,,,,0,51,32
220180,note_off,,,,,100,0,2,,,,0,51,64
220200,note_on,,,,,20,0,2,,,,0,49,32
220300,note_off,,,,,100,0,2,,,,0,49,64
220320,note_on,,,,,20,0,2,,,,0,47,32
220420,note_off,,,,,100,0,2,,,,0,47,64
220500,set_tempo,,,,,3040,1,0,227273,,,,,
220560,note_on,,,,,140,0,2,,,,0,47,32
220680,note_on,,,,,0,0,2,,,,0,35,35
220680,note_off,,,,,120,0,2,,,,0,47,64
220800,note_off,,,,,120,0,2,,,,0,35,64
220920,note_on,,,,,120,0,2,,,,0,35,32
221040,note_on,,,,,0,0,2,,,,0,47,39
221040,note_off,,,,,120,0,2,,,,0,35,64
221160,note_off,,,,,120,0,2,,,,0,47,64
221280,note_on,,,,,120,0,2,,,,0,47,38
221400,note_off,,,,,120,0,2,,,,0,47,64
221400,note_on,,,,,0,0,2,,,,0,35,40
221520,note_off,,,,,120,0,2,,,,0,35,64
221640,note_on,,,,,2180,0,1,,,,0,83,33
221640,note_on,,,,,120,0,2,,,,0,35,36
221760,note_off,,,,,120,0,1,,,,0,83,64
221760,note_on,,,,,0,0,1,,,,0,71,38
221760,note_on,,,,,0,0,2,,,,0,47,37
221760,note_off,,,,,120,0,2,,,,0,35,64
221880,note_off,,,,,120,0,1,,,,0,71,64
221880,note_off,,,,,120,0,2,,,,0,47,64
222000,note_on,,,,,120,0,2,,,,0,47,44
222000,note_on,,,,,120,0,1,,,,0,71,36
222120,note_on,,,,,0,0,2,,,,0,35,44
222120,note_off,,,,,120,0,2,,,,0,47,64
222120,note_off,,,,,120,0,1,,,,0,71,64
222120,note_on,,,,,0,0,1,,,,0,83,40
222240,note_off,,,,,120,0,1,,,,0,83,64
222240,note_off,,,,,120,0,2,,,,0,35,64
222360,note_on,,,,,120,0,2,,,,0,35,45
222360,note_on,,,,,120,0,1,,,,0,83,41
222480,note_off,,,,,120,0,2,,,,0,35,64
222480,note_on,,,,,0,0,1,,,,0,71,45
222480,note_off,,,,,120,0,1,,,,0,83,64
222480,note_on,,,,,0,0,2,,,,0,47,46
222600,note_off,,,,,120,0,2,,,,0,47,64
222600,note_off,,,,,120,0,1,,,,0,71,64
222720,note_on,,,,,120,0,1,,,,0,71,41
222720,note_on,,,,,120,0,2,,,,0,47,50
222840,note_on,,,,,0,0,1,,,,0,83,45
222840,note_off,,,,,120,0,1,,,,0,71,64
222840,note_on,,,,,0,0,2,,,,0,35,50
222840,note_off,,,,,120,0,2,,,,0,47,64
222960,note_off,,,,,120,0,1,,,,0,83,64
222960,note_off,,,,,120,0,2,,,,0,35,64
223080,note_on,,,,,120,0,1,,,,0,83,36
223200,note_on,,,,,240,0,2,,,,0,59,53
223200,note_off,,,,,120,0,1,,,,0,83,64
223200,note_on,,,,,0,0,1,,,,0,71,40
223200,set_tempo,,,,,2700,1,0,238095,,,,,
223206,control_change,,,,,6,0,1,,64,96,0,,
223320,note_off,,,,,114,0,1,,,,0,71,64
223440,note_on,,,,,120,0,1,,,,0,71,35
223560,note_off,,,,,120,0,1,,,,0,71,64
223560,note_on,,,,,0,0,1,,,,0,83,40
223680,note_off,,,,,120,0,1,,,,0,83,64
223800,note_on,,,,,120,0,1,,,,0,83,37
223906,control_change,,,,,106,0,1,,64,0,0,,
223920,note_off,,,,,14,0,1,,,,0,83,64
223920,note_on,,,,,0,0,1,,,,0,71,43
223920,note_off,,,,,720,0,2,,,,0,59,64
223920,note_on,,,,,0,0,2,,,,0,57,47
223940,set_tempo,,,,,740,1,0,227273,,,,,
224040,note_off,,,,,120,0,1,,,,0,71,64
224160,note_on,,,,,120,0,1,,,,0,71,40
224280,note_off,,,,,120,0,1,,,,0,71,64
224280,note_on,,,,,0,0,1,,,,0,83,44
224280,note_on,,,,,0,0,2,,,,0,54,43
224280,note_off,,,,,360,0,2,,,,0,57,64
224400,note_off,,,,,120,0,1,,,,0,83,64
224520,note_on,,,,,120,0,1,,,,0,83,44
224580,note_off,,,,,300,0,2,,,,0,54,64
224640,note_on,,,,,60,0,2,,,,0,59,49
224640,note_on,,,,,0,0,2,,,,0,55,49
224640,set_tempo,,,,,700,1,0,238095,,,,,
224640,note_off,,,,,120,0,1,,,,0,83,64
224640,note_on,,,,,0,0,1,,,,0,71,50
224640,control_change,,,,,0,0,1,,64,95,0,,
224760,note_off,,,,,120,0,1,,,,0,71,64
224880,note_on,,,,,120,0,1,,,,0,71,33
225000,note_off,,,,,120,0,1,,,,0,71,64
225000,note_on,,,,,0,0,1,,,,0,83,32
225120,note_off,,,,,120,0,1,,,,0,83,64
225240,note_on,,,,,120,0,1,,,,0,83,32
225360,note_off,,,,,720,0,2,,,,0,55,64
225360,note_off,,,,,0,0,2,,,,0,59,64
225360,note_on,,,,,0,0,2,,,,0,54,39
225360,note_on,,,,,0,0,2,,,,0,57,39
225360,control_change,,,,,0,0,1,,64,0,0,,
225360,note_on,,,,,0,0,1,,,,0,71,32
225360,note_off,,,,,120,0,1,,,,0,83,64
225380,set_tempo,,,,,740,1,0,225564,,,,,
225460,set_tempo,,,,,80,1,0,221402,,,,,
225480,note_off,,,,,120,0,1,,,,0,71,64
225600,note_on,,,,,120,0,1,,,,0,71,32
225640,set_tempo,,,,,180,1,0,218978,,,,,
225720,note_on,,,,,0,0,2,,,,0,54,35
225720,note_on,,,,,0,0,2,,,,0,51,35
225720,note_off,,,,,0,0,2,,,,0,54,64
225720,note_off,,,,,120,0,1,,,,0,71,64
225720,note_on,,,,,0,0,1,,,,0,83,32
225720,note_off,,,,,360,0,2,,,,0,57,64
225840,note_off,,,,,120,0,1,,,,0,83,64
225900,set_tempo,,,,,260,1,0,215827,,,,,
225960,note_on,,,,,120,0,1,,,,0,83,32
226020,note_off,,,,,300,0,2,,,,0,54,64
226020,note_off,,,,,0,0,2,,,,0,51,64
226080,note_off,,,,,120,0,1,,,,0,83,64
226080,note_on,,,,,0,0,1,,,,0,71,33
226080,note_on,,,,,60,0,2,,,,0,52,35
226080,note_on,,,,,0,0,2,,,,0,55,35
226200,note_off,,,,,120,0,1,,,,0,71,64
226220,set_tempo,,,,,320,1,0,219780,,,,,
226320,note_on,,,,,120,0,1,,,,0,71,36
226400,set_tempo,,,,,180,1,0,222222,,,,,
226440,note_off,,,,,0,0,2,,,,0,52,64
226440,note_off,,,,,360,0,2,,,,0,55,64
226440,note_on,,,,,0,0,2,,,,0,53,39
226440,note_on,,,,,0,0,2,,,,0,50,39
226440,note_on,,,,,0,0,1,,,,0,83,37
226440,note_off,,,,,120,0,1,,,,0,71,64
226520,set_tempo,,,,,120,1,0,224719,,,,,
226560,note_off,,,,,120,0,1,,,,0,83,64
226620,set_tempo,,,,,100,1,0,229008,,,,,
226680,note_on,,,,,120,0,1,,,,0,71,40
226740,set_tempo,,,,,120,1,0,232558,,,,,
226800,note_off,,,,,120,0,1,,,,0,71,64
226800,note_on,,,,,0,0,2,,,,0,48,43
226800,note_on,,,,,0,0,1,,,,0,72,44
226800,note_off,,,,,0,0,2,,,,0,53,64
226800,note_off,,,,,360,0,2,,,,0,50,64
226800,note_on,,,,,0,0,2,,,,0,52,43
226920,note_off,,,,,120,0,1,,,,0,72,64
226920,set_tempo,,,,,180,1,0,235294,,,,,
227040,note_on,,,,,120,0,1,,,,0,84,50
227060,set_tempo,,,,,140,1,0,231660,,,,,
227160,note_on,,,,,0,0,1,,,,0,86,55
227160,note_on,,,,,0,0,2,,,,0,46,45
227160,note_on,,,,,0,0,2,,,,0,50,45
227160,note_off,,,,,0,0,2,,,,0,48,64
227160,note_off,,,,,120,0,1,,,,0,84,64
227160,note_off,,,,,360,0,2,,,,0,52,64
227220,set_tempo,,,,,160,1,0,229885,,,,,
227280,note_off,,,,,120,0,1,,,,0,86,64
227380,set_tempo,,,,,160,1,0,227273,,,,,
227400,note_on,,,,,120,0,1,,,,0,74,59
227480,set_tempo,,,,,100,1,0,226415,,,,,
227520,note_on,,,,,0,0,2,,,,0,45,46
227520,note_off,,,,,0,0,2,,,,0,50,64
227520,note_off,,,,,360,0,2,,,,0,46,64
227520,note_off,,,,,120,0,1,,,,0,74,64
227520,note_on,,,,,0,0,1,,,,0,73,61
227520,control_change,,,,,0,0,1,,64,96,0,,
227520,note_on,,,,,0,0,2,,,,0,52,46
227640,note_off,,,,,120,0,1,,,,0,73,64
227760,note_on,,,,,120,0,1,,,,0,73,56
227880,note_off,,,,,120,0,1,,,,0,73,64
227880,note_on,,,,,0,0,1,,,,0,85,54
227992,control_change,,,,,112,0,1,,64,0,0,,
228000,note_off,,,,,8,0,1,,,,0,85,64
228120,note_on,,,,,120,0,1,,,,0,76,50
228240,note_off,,,,,120,0,1,,,,0,76,64
228240,note_on,,,,,0,0,1,,,,0,88,48
228360,note_off,,,,,120,0,1,,,,0,88,64
228480,note_off,,,,,960,0,2,,,,0,45,64
228480,note_off,,,,,0,0,2,,,,0,52,64
228480,note_on,,,,,120,0,1,,,,0,81,43
228600,note_on,,,,,0,0,1,,,,0,93,40
228600,note_off,,,,,120,0,1,,,,0,81,64
228720,note_off,,,,,120,0,1,,,,0,93,64
228840,note_on,,,,,120,0,1,,,,0,81,40
228960,control_change,,,,,0,0,1,,64,95,0,,
228960,note_on,,,,,0,0,1,,,,0,69,51
228960,note_off,,,,,120,0,1,,,,0,81,64
228960,set_tempo,,,,,1480,1,0,238095,,,,,
228960,note_on,,,,,480,0,2,,,,0,57,51
229080,note_off,,,,,120,0,1,,,,0,69,64
229200,note_on,,,,,120,0,1,,,,0,69,34
229320,note_on,,,,,0,0,1,,,,0,81,34
229320,note_off,,,,,120,0,1,,,,0,69,64
229440,note_off,,,,,120,0,1,,,,0,81,64
229560,note_on,,,,,120,0,1,,,,0,81,34
229680,note_on,,,,,0,0,2,,,,0,55,40
229680,note_off,,,,,120,0,1,,,,0,81,64
229680,note_on,,,,,0,0,1,,,,0,69,34
229680,note_off,,,,,720,0,2,,,,0,57,64
229680,control_change,,,,,0,0,1,,64,0,0,,
229700,set_tempo,,,,,740,1,0,225564,,,,,
229800,note_off,,,,,120,0,1,,,,0,69,64
229820,set_tempo,,,,,120,1,0,221402,,,,,
229920,note_on,,,,,120,0,1,,,,0,69,36
229980,set_tempo,,,,,160,1,0,218978,,,,,
230040,note_on,,,,,0,0,1,,,,0,81,39
230040,note_on,,,,,0,0,2,,,,0,52,36
230040,note_off,,,,,120,0,1,,,,0,69,64
230040,note_off,,,,,360,0,2,,,,0,55,64
230160,note_off,,,,,120,0,1,,,,0,81,64
230160,set_tempo,,,,,180,1,0,217391,,,,,
230280,note_on,,,,,120,0,1,,,,0,81,49
230340,note_off,,,,,300,0,2,,,,0,52,64
230400,note_on,,,,,0,0,1,,,,0,69,51
230400,note_off,,,,,120,0,1,,,,0,81,64
230400,note_on,,,,,60,0,2,,,,0,57,49
230400,note_on,,,,,0,0,2,,,,0,53,49
230400,set_tempo,,,,,240,1,0,238095,,,,,
230400,control_change,,,,,0,0,1,,64,95,0,,
230520,note_off,,,,,120,0,1,,,,0,69,64
230640,note_on,,,,,120,0,1,,,,0,69,33
230760,note_on,,,,,0,0,1,,,,0,81,33
230760,note_off,,,,,120,0,1,,,,0,69,64
230880,note_off,,,,,120,0,1,,,,0,81,64
231000,note_on,,,,,120,0,1,,,,0,81,36
231120,note_off,,,,,120,0,1,,,,0,81,64
231120,note_on,,,,,0,0,2,,,,0,55,41
231120,note_on,,,,,0,0,2,,,,0,52,41
231120,note_off,,,,,0,0,2,,,,0,57,64
231120,note_off,,,,,720,0,2,,,,0,53,64
231120,note_on,,,,,0,0,1,,,,0,69,36
231120,control_change,,,,,0,0,1,,64,0,0,,
231140,set_tempo,,,,,740,1,0,225564,,,,,
231180,set_tempo,,,,,40,1,0,224719,,,,,
231240,note_off,,,,,120,0,1,,,,0,69,64
231260,set_tempo,,,,,80,1,0,220588,,,,,
231360,note_on,,,,,120,0,1,,,,0,69,36
231480,note_on,,,,,0,0,2,,,,0,52,43
231480,note_on,,,,,0,0,2,,,,0,49,43
231480,note_off,,,,,120,0,1,,,,0,69,64
231480,note_on,,,,,0,0,1,,,,0,81,37
231480,note_off,,,,,360,0,2,,,,0,55,64
231480,note_off,,,,,0,0,2,,,,0,52,64
231500,set_tempo,,,,,240,1,0,218978,,,,,
231600,note_off,,,,,120,0,1,,,,0,81,64
231660,set_tempo,,,,,160,1,0,216606,,,,,
231720,note_on,,,,,120,0,1,,,,0,81,39
231740,set_tempo,,,,,80,1,0,215827,,,,,
231780,note_off,,,,,300,0,2,,,,0,52,64
231780,note_off,,,,,0,0,2,,,,0,49,64
231840,note_on,,,,,0,0,1,,,,0,69,41
231840,note_off,,,,,120,0,1,,,,0,81,64
231840,note_on,,,,,60,0,2,,,,0,50,50
231840,note_on,,,,,0,0,2,,,,0,53,50
231940,set_tempo,,,,,200,1,0,217391,,,,,
231960,note_off,,,,,120,0,1,,,,0,69,64
232080,set_tempo,,,,,140,1,0,221402,,,,,
232080,note_on,,,,,120,0,1,,,,0,69,46
232200,note_off,,,,,0,0,2,,,,0,50,64
232200,note_on,,,,,0,0,1,,,,0,81,48
232200,note_on,,,,,0,0,2,,,,0,51,55
232200,note_on,,,,,0,0,2,,,,0,48,55
232200,note_off,,,,,120,0,1,,,,0,69,64
232200,note_off,,,,,360,0,2,,,,0,53,64
232260,set_tempo,,,,,180,1,0,224719,,,,,
232320,note_off,,,,,120,0,1,,,,0,81,64
232440,note_on,,,,,120,0,1,,,,0,69,57
232440,set_tempo,,,,,180,1,0,230769,,,,,
232560,note_off,,,,,360,0,2,,,,0,48,64
232560,note_off,,,,,0,0,2,,,,0,51,64
232560,note_on,,,,,0,0,2,,,,0,46,61
232560,note_on,,,,,0,0,2,,,,0,50,61
232560,note_on,,,,,0,0,1,,,,0,70,58
232560,note_off,,,,,120,0,1,,,,0,69,64
232580,set_tempo,,,,,140,1,0,235294,,,,,
232680,note_off,,,,,120,0,1,,,,0,70,64
232800,note_on,,,,,120,0,1,,,,0,82,62
232820,set_tempo,,,,,240,1,0,231660,,,,,
232920,note_off,,,,,120,0,1,,,,0,82,64
232920,note_on,,,,,0,0,1,,,,0,84,66
232920,note_off,,,,,0,0,2,,,,0,46,64
232920,note_off,,,,,360,0,2,,,,0,50,64
232920,note_on,,,,,0,0,2,,,,0,48,68
232920,note_on,,,,,0,0,2,,,,0,44,68
233000,set_tempo,,,,,180,1,0,229008,,,,,
233040,note_off,,,,,120,0,1,,,,0,84,64
233160,note_on,,,,,120,0,1,,,,0,72,69
233180,set_tempo,,,,,180,1,0,226415,,,,,
233280,note_off,,,,,360,0,2,,,,0,44,64
233280,note_on,,,,,0,0,2,,,,0,43,77
233280,note_off,,,,,0,0,2,,,,0,48,64
233280,note_on,,,,,0,0,2,,,,0,50,77
233280,control_change,,,,,0,0,1,,64,96,0,,
233280,note_off,,,,,120,0,1,,,,0,72,64
233280,note_on,,,,,0,0,1,,,,0,71,81
233400,note_off,,,,,120,0,1,,,,0,71,64
233520,note_on,,,,,120,0,1,,,,0,71,64
233640,note_off,,,,,120,0,1,,,,0,71,64
233640,note_on,,,,,0,0,1,,,,0,83,70
233752,control_change,,,,,112,0,1,,64,0,0,,
233760,note_off,,,,,8,0,1,,,,0,83,64
233880,note_on,,,,,120,0,1,,,,0,74,57
234000,note_off,,,,,120,0,1,,,,0,74,64
234000,note_on,,,,,0,0,1,,,,0,86,64
234120,note_off,,,,,120,0,1,,,,0,86,64
234240,note_off,,,,,960,0,2,,,,0,43,64
234240,note_off,,,,,0,0,2,,,,0,50,64
234240,note_on,,,,,120,0,1,,,,0,79,51
234360,note_off,,,,,120,0,1,,,,0,79,64
234360,note_on,,,,,0,0,1,,,,0,91,57
234480,note_off,,,,,120,0,1,,,,0,91,64
234600,note_on,,,,,120,0,1,,,,0,67,82
234720,note_on,,,,,480,0,2,,,,0,55,78
234840,note_off,,,,,240,0,1,,,,0,67,64
234960,note_on,,,,,120,0,1,,,,0,67,54
235080,note_on,,,,,0,0,1,,,,0,79,66
235080,note_off,,,,,120,0,1,,,,0,67,64
235200,note_off,,,,,120,0,1,,,,0,79,64
235320,note_on,,,,,120,0,1,,,,0,79,65
235440,note_off,,,,,120,0,1,,,,0,79,64
235440,note_on,,,,,0,0,1,,,,0,67,74
235440,note_off,,,,,720,0,2,,,,0,55,64
235440,note_on,,,,,0,0,2,,,,0,53,64
235560,note_off,,,,,120,0,1,,,,0,67,64
235680,note_on,,,,,120,0,1,,,,0,67,75
235800,note_off,,,,,360,0,2,,,,0,53,64
235800,note_on,,,,,0,0,2,,,,0,50,59
235800,note_off,,,,,120,0,1,,,,0,67,64
235800,note_on,,,,,0,0,1,,,,0,79,82
235920,note_off,,,,,120,0,1,,,,0,79,64
236040,note_on,,,,,120,0,1,,,,0,79,71
236100,note_off,,,,,300,0,2,,,,0,50,64
236160,note_on,,,,,0,0,1,,,,0,67,84
236160,note_on,,,,,60,0,2,,,,0,51,47
236160,note_on,,,,,0,0,2,,,,0,48,47
236160,note_off,,,,,120,0,1,,,,0,79,64
236280,note_off,,,,,120,0,1,,,,0,67,64
236400,note_on,,,,,120,0,1,,,,0,67,75
236520,note_on,,,,,0,0,1,,,,0,79,83
236520,note_off,,,,,120,0,1,,,,0,67,64
236640,note_off,,,,,120,0,1,,,,0,79,64
236760,note_on,,,,,120,0,1,,,,0,79,70
236880,note_on,,,,,0,0,2,,,,0,52,65
236880,note_on,,,,,0,0,2,,,,0,46,65
236880,note_off,,,,,720,0,2,,,,0,48,64
236880,note_on,,,,,0,0,1,,,,0,72,79
236880,note_off,,,,,120,0,1,,,,0,79,64
236880,note_off,,,,,0,0,2,,,,0,51,64
237000,note_off,,,,,120,0,1,,,,0,72,64
237120,note_on,,,,,120,0,1,,,,0,72,66
237240,note_on,,,,,0,0,2,,,,0,43,54
237240,note_off,,,,,360,0,2,,,,0,46,64
237240,note_on,,,,,0,0,1,,,,0,84,75
237240,note_off,,,,,120,0,1,,,,0,72,64
237360,note_off,,,,,120,0,1,,,,0,84,64
237480,note_on,,,,,120,0,1,,,,0,84,57
237540,note_off,,,,,0,0,2,,,,0,52,64
237540,note_off,,,,,300,0,2,,,,0,43,64
237600,note_on,,,,,60,0,2,,,,0,44,59
237600,note_on,,,,,0,0,1,,,,0,72,66
237600,note_on,,,,,0,0,2,,,,0,53,59
237600,note_off,,,,,120,0,1,,,,0,84,64
237720,note_off,,,,,120,0,1,,,,0,72,64
237840,note_on,,,,,120,0,1,,,,0,72,55
237960,note_off,,,,,360,0,2,,,,0,53,64
237960,note_off,,,,,0,0,2,,,,0,44,64
237960,note_on,,,,,0,0,2,,,,0,51,63
237960,note_on,,,,,0,0,2,,,,0,43,63
237960,note_on,,,,,0,0,1,,,,0,84,65
237960,note_off,,,,,120,0,1,,,,0,72,64
238080,note_off,,,,,120,0,1,,,,0,84,64
238200,note_on,,,,,120,0,1,,,,0,84,66
238320,note_off,,,,,360,0,2,,,,0,43,64
238320,note_on,,,,,0,0,2,,,,0,50,66
238320,note_on,,,,,0,0,2,,,,0,41,66
238320,note_off,,,,,0,0,2,,,,0,51,64
238320,note_on,,,,,0,0,1,,,,0,72,78
238320,note_off,,,,,120,0,1,,,,0,84,64
238440,note_off,,,,,120,0,1,,,,0,72,64
238560,set_tempo,,,,,5380,1,0,238095,,,,,
238560,note_on,,,,,120,0,1,,,,0,84,81
238560,control_change,,,,,0,0,1,,64,95,0,,
238680,note_off,,,,,120,0,1,,,,0,84,64
238680,note_on,,,,,0,0,1,,,,0,96,114
238680,note_on,,,,,0,0,2,,,,0,52,101
238680,note_on,,,,,0,0,2,,,,0,43,101
238680,note_off,,,,,360,0,2,,,,0,50,64
238680,note_off,,,,,0,0,2,,,,0,41,64
238800,note_off,,,,,120,0,1,,,,0,96,64
238800,set_tempo,,,,,240,1,0,227273,,,,,
238806,control_change,,,,,6,0,1,,64,0,0,,
238920,note_on,,,,,114,0,1,,,,0,84,64
238980,note_off,,,,,0,0,2,,,,0,43,64
238980,note_off,,,,,300,0,2,,,,0,52,64
239040,note_on,,,,,60,0,2,,,,0,44,74
239040,note_on,,,,,0,0,1,,,,0,72,70
239040,note_on,,,,,0,0,2,,,,0,53,74
239040,note_off,,,,,120,0,1,,,,0,84,64
239160,note_off,,,,,120,0,1,,,,0,72,64
239280,note_on,,,,,120,0,1,,,,0,72,56
239400,note_on,,,,,0,0,1,,,,0,84,62
239400,note_off,,,,,120,0,1,,,,0,72,64
239400,note_on,,,,,0,0,2,,,,0,51,63
239400,note_off,,,,,0,0,2,,,,0,44,64
239400,note_off,,,,,360,0,2,,,,0,53,64
239400,note_on,,,,,0,0,2,,,,0,43,63
239520,note_off,,,,,120,0,1,,,,0,84,64
239640,note_on,,,,,120,0,1,,,,0,84,67
239760,note_off,,,,,360,0,2,,,,0,43,64
239760,note_off,,,,,0,0,2,,,,0,51,64
239760,note_on,,,,,0,0,2,,,,0,41,66
239760,note_on,,,,,0,0,1,,,,0,72,72
239760,note_off,,,,,120,0,1,,,,0,84,64
239760,note_on,,,,,0,0,2,,,,0,50,66
239880,note_off,,,,,120,0,1,,,,0,72,64
240000,set_tempo,,,,,1200,1,0,238095,,,,,
240000,note_on,,,,,120,0,1,,,,0,84,81
240000,control_change,,,,,0,0,1,,64,95,0,,
240120,note_off,,,,,360,0,2,,,,0,50,64
240120,note_on,,,,,0,0,2,,,,0,51,101
240120,note_on,,,,,0,0,2,,,,0,43,101
240120,note_off,,,,,0,0,2,,,,0,41,64
240120,note_off,,,,,120,0,1,,,,0,84,64
240120,note_on,,,,,0,0,1,,,,0,96,114
240240,note_off,,,,,120,0,1,,,,0,96,64
240246,control_change,,,,,6,0,1,,64,0,0,,
240360,note_on,,,,,114,0,1,,,,0,84,64
240380,set_tempo,,,,,380,1,0,237154,,,,,
240420,note_off,,,,,0,0,2,,,,0,43,64
240420,note_off,,,,,300,0,2,,,,0,51,64
240480,note_on,,,,,60,0,2,,,,0,50,64
240480,note_on,,,,,0,0,1,,,,0,72,67
240480,note_off,,,,,120,0,1,,,,0,84,64
240480,set_tempo,,,,,100,1,0,231660,,,,,
240480,note_on,,,,,0,0,2,,,,0,41,64
240600,note_off,,,,,120,0,1,,,,0,72,64
240720,note_on,,,,,120,0,1,,,,0,72,47
240810,note_off,,,,,330,0,2,,,,0,41,64
240810,note_off,,,,,0,0,2,,,,0,50,64
240840,note_off,,,,,120,0,1,,,,0,72,64
240840,note_on,,,,,0,0,1,,,,0,84,47
240840,note_on,,,,,30,0,2,,,,0,42,52
240840,note_on,,,,,0,0,2,,,,0,50,52
240960,note_off,,,,,120,0,1,,,,0,84,64
241080,note_on,,,,,120,0,1,,,,0,84,49
241170,note_off,,,,,0,0,2,,,,0,42,64
241170,note_off,,,,,330,0,2,,,,0,50,64
241200,note_on,,,,,0,0,2,,,,0,50,58
241200,note_on,,,,,0,0,1,,,,0,72,50
241200,note_off,,,,,120,0,1,,,,0,84,64
241200,note_on,,,,,30,0,2,,,,0,43,58
241320,note_off,,,,,120,0,1,,,,0,72,64
241340,set_tempo,,,,,860,1,0,227273,,,,,
241440,note_on,,,,,120,0,1,,,,0,72,54
241530,note_off,,,,,330,0,2,,,,0,50,64
241530,note_off,,,,,0,0,2,,,,0,43,64
241560,note_on,,,,,0,0,1,,,,0,84,55
241560,note_off,,,,,120,0,1,,,,0,72,64
241560,note_on,,,,,0,0,2,,,,0,50,68
241560,note_on,,,,,30,0,2,,,,0,44,68
241680,note_off,,,,,120,0,1,,,,0,84,64
241800,note_on,,,,,120,0,1,,,,0,84,59
241840,set_tempo,,,,,500,1,0,226415,,,,,
241890,note_off,,,,,330,0,2,,,,0,50,64
241890,note_off,,,,,0,0,2,,,,0,44,64
241920,note_off,,,,,120,0,1,,,,0,84,64
241920,control_change,,,,,0,0,1,,64,95,0,,
241920,note_on,,,,,0,0,1,,,,0,72,62
241920,note_on,,,,,30,0,2,,,,0,44,76
241920,note_on,,,,,0,0,2,,,,0,50,76
242040,note_off,,,,,120,0,1,,,,0,72,64
242040,set_tempo,,,,,200,1,0,225564,,,,,
242160,note_on,,,,,120,0,1,,,,0,72,67
242280,note_off,,,,,120,0,1,,,,0,72,64
242280,note_on,,,,,0,0,1,,,,0,84,71
242400,set_tempo,,,,,360,1,0,224719,,,,,
242400,note_off,,,,,120,0,1,,,,0,84,64
242520,note_on,,,,,120,0,1,,,,0,84,75
242640,note_off,,,,,120,0,1,,,,0,84,64
242640,note_on,,,,,0,0,1,,,,0,72,76
242720,set_tempo,,,,,320,1,0,223881,,,,,
242760,note_off,,,,,120,0,1,,,,0,72,64
242880,note_on,,,,,120,0,1,,,,0,72,78
242920,set_tempo,,,,,200,1,0,222222,,,,,
242940,note_off,,,,,1020,0,2,,,,0,50,64
242992,control_change,,,,,112,0,1,,64,0,0,,
243000,note_off,,,,,8,0,1,,,,0,72,64
243000,note_on,,,,,0,0,1,,,,0,85,80
243000,control_change,,,,,0,0,1,,64,96,0,,
243000,note_on,,,,,60,0,2,,,,0,49,99
243120,note_off,,,,,120,0,1,,,,0,85,64
243240,note_on,,,,,120,0,1,,,,0,85,82
243352,control_change,,,,,112,0,1,,64,0,0,,
243360,note_off,,,,,360,0,2,,,,0,49,64
243360,note_off,,,,,8,0,1,,,,0,85,64
243360,note_on,,,,,0,0,1,,,,0,74,85
243360,control_change,,,,,0,0,1,,64,95,0,,
243360,note_on,,,,,0,0,2,,,,0,48,95
243440,set_tempo,,,,,520,1,0,221402,,,,,
243480,note_off,,,,,120,0,1,,,,0,74,64
243600,note_on,,,,,120,0,1,,,,0,74,88
243600,set_tempo,,,,,160,1,0,220588,,,,,
243720,note_off,,,,,120,0,1,,,,0,74,64
243720,note_on,,,,,0,0,1,,,,0,86,89
243840,note_off,,,,,120,0,1,,,,0,86,64
243960,note_on,,,,,120,0,1,,,,0,86,90
244072,control_change,,,,,112,0,1,,64,0,0,,
244080,note_off,,,,,720,0,2,,,,0,48,64
244080,note_off,,,,,0,0,2,,,,0,44,64
244080,note_on,,,,,0,0,2,,,,0,47,99
244080,note_on,,,,,0,0,2,,,,0,43,99
244080,note_on,,,,,0,0,1,,,,0,74,93
244080,set_tempo,,,,,480,1,0,219780,,,,,
244080,note_off,,,,,8,0,1,,,,0,86,64
244080,control_change,,,,,0,0,1,,64,95,0,,
244200,note_off,,,,,120,0,1,,,,0,74,64
244320,note_on,,,,,120,0,1,,,,0,74,95
244440,set_tempo,,,,,360,1,0,218978,,,,,
244440,note_on,,,,,0,0,1,,,,0,86,96
244440,note_off,,,,,120,0,1,,,,0,74,64
244560,note_off,,,,,120,0,1,,,,0,86,64
244680,note_on,,,,,120,0,1,,,,0,74,94
244786,control_change,,,,,106,0,1,,64,0,0,,
244800,note_off,,,,,14,0,1,,,,0,74,64
244800,note_on,,,,,0,0,1,,,,0,76,90
244800,control_change,,,,,0,0,1,,64,95,0,,
244800,note_off,,,,,720,0,2,,,,0,43,64
244800,note_off,,,,,0,0,2,,,,0,47,64
244800,note_on,,,,,0,0,2,,,,0,60,99
244800,note_on,,,,,0,0,2,,,,0,48,99
244920,note_off,,,,,120,0,1,,,,0,76,64
245040,note_on,,,,,120,0,1,,,,0,76,82
245160,note_on,,,,,0,0,1,,,,0,88,77
245160,note_off,,,,,120,0,1,,,,0,76,64
245280,note_off,,,,,120,0,1,,,,0,88,64
245400,note_on,,,,,120,0,1,,,,0,88,73
245512,control_change,,,,,112,0,1,,64,0,0,,
245520,note_off,,,,,0,0,2,,,,0,60,64
245520,note_off,,,,,720,0,2,,,,0,48,64
245520,note_on,,,,,0,0,2,,,,0,58,87
245520,control_change,,,,,0,0,1,,64,96,0,,
245520,note_on,,,,,0,0,1,,,,0,76,73
245520,note_off,,,,,8,0,1,,,,0,88,64
245640,note_off,,,,,120,0,1,,,,0,76,64
245760,note_on,,,,,120,0,1,,,,0,76,76
245872,control_change,,,,,112,0,1,,64,0,0,,
245880,note_on,,,,,0,0,1,,,,0,88,80
245880,note_on,,,,,0,0,2,,,,0,55,73
245880,note_off,,,,,360,0,2,,,,0,58,64
245880,control_change,,,,,0,0,1,,64,96,0,,
245880,note_off,,,,,8,0,1,,,,0,76,64
246000,note_off,,,,,120,0,1,,,,0,88,64
246120,note_on,,,,,120,0,1,,,,0,88,87
246180,note_off,,,,,300,0,2,,,,0,55,64
246226,control_change,,,,,106,0,1,,64,0,0,,
246240,note_on,,,,,0,0,2,,,,0,53,83
246240,note_on,,,,,60,0,2,,,,0,56,83
246240,note_off,,,,,14,0,1,,,,0,88,64
246240,note_on,,,,,0,0,1,,,,0,77,88
246240,control_change,,,,,0,0,1,,64,96,0,,
246360,note_off,,,,,120,0,1,,,,0,77,64
246480,note_on,,,,,120,0,1,,,,0,77,92
246600,note_on,,,,,0,0,1,,,,0,89,94
246600,note_off,,,,,120,0,1,,,,0,77,64
246720,note_off,,,,,120,0,1,,,,0,89,64
246840,note_on,,,,,120,0,1,,,,0,89,94
246946,control_change,,,,,106,0,1,,64,0,0,,
246960,note_on,,,,,0,0,2,,,,0,51,96
246960,control_change,,,,,0,0,1,,64,95,0,,
246960,note_on,,,,,0,0,1,,,,0,77,87
246960,note_off,,,,,720,0,2,,,,0,53,64
246960,note_off,,,,,14,0,1,,,,0,89,64
246960,note_off,,,,,0,0,2,,,,0,56,64
246960,note_on,,,,,0,0,2,,,,0,57,96
247080,note_off,,,,,120,0,1,,,,0,77,64
247200,note_on,,,,,120,0,1,,,,0,77,87
247320,note_off,,,,,360,0,2,,,,0,51,64
247320,note_off,,,,,120,0,1,,,,0,77,64
247320,note_on,,,,,0,0,1,,,,0,89,88
247320,note_on,,,,,0,0,2,,,,0,48,84
247440,note_off,,,,,120,0,1,,,,0,89,64
247560,note_on,,,,,120,0,1,,,,0,89,90
247620,note_off,,,,,0,0,2,,,,0,57,64
247620,note_off,,,,,300,0,2,,,,0,48,64
247666,control_change,,,,,106,0,1,,64,0,0,,
247680,note_off,,,,,14,0,1,,,,0,89,64
247680,note_on,,,,,0,0,1,,,,0,77,90
247680,note_on,,,,,60,0,2,,,,0,49,93
247680,note_on,,,,,0,0,2,,,,0,58,93
247680,control_change,,,,,0,0,1,,64,96,0,,
247800,note_off,,,,,120,0,1,,,,0,77,64
247920,note_on,,,,,120,0,1,,,,0,77,94
248026,control_change,,,,,106,0,1,,64,0,0,,
248040,note_off,,,,,0,0,2,,,,0,49,64
248040,note_off,,,,,14,0,1,,,,0,77,64
248040,control_change,,,,,0,0,1,,64,95,0,,
248040,note_on,,,,,0,0,2,,,,0,48,75
248040,note_off,,,,,360,0,2,,,,0,58,64
248040,note_on,,,,,0,0,2,,,,0,56,75
248040,note_on,,,,,0,0,1,,,,0,89,96
248160,note_off,,,,,120,0,1,,,,0,89,64
248280,note_on,,,,,120,0,1,,,,0,89,99
248392,control_change,,,,,112,0,1,,64,0,0,,
248400,note_on,,,,,0,0,2,,,,0,55,83
248400,note_off,,,,,0,0,2,,,,0,56,64
248400,note_off,,,,,360,0,2,,,,0,48,64
248400,note_off,,,,,8,0,1,,,,0,89,64
248400,note_on,,,,,0,0,1,,,,0,77,103
248400,note_on,,,,,0,0,2,,,,0,46,83
248406,control_change,,,,,6,0,1,,64,96,0,,
248520,note_off,,,,,114,0,1,,,,0,77,64
248632,control_change,,,,,112,0,1,,64,0,0,,
248640,set_tempo,,,,,4200,1,0,238095,,,,,
248640,note_on,,,,,8,0,1,,,,0,89,113
248640,control_change,,,,,0,0,1,,64,95,0,,
248760,note_off,,,,,120,0,1,,,,0,89,64
248760,note_on,,,,,0,0,1,,,,0,101,127
248760,note_on,,,,,0,0,2,,,,0,48,98
248760,note_on,,,,,0,0,2,,,,0,57,98
248760,note_off,,,,,360,0,2,,,,0,55,64
248760,note_off,,,,,0,0,2,,,,0,46,64
248880,note_off,,,,,120,0,1,,,,0,101,64
248880,set_tempo,,,,,240,1,0,227273,,,,,
248886,control_change,,,,,6,0,1,,64,0,0,,
249000,note_on,,,,,114,0,1,,,,0,89,97
249060,note_off,,,,,300,0,2,,,,0,57,64
249060,note_off,,,,,0,0,2,,,,0,48,64
249120,note_on,,,,,60,0,2,,,,0,49,94
249120,note_off,,,,,120,0,1,,,,0,89,64
249120,note_on,,,,,0,0,1,,,,0,77,95
249120,control_change,,,,,0,0,1,,64,96,0,,
249120,note_on,,,,,0,0,2,,,,0,58,94
249240,note_off,,,,,120,0,1,,,,0,77,64
249360,note_on,,,,,120,0,1,,,,0,77,93
249472,control_change,,,,,112,0,1,,64,0,0,,
249480,note_on,,,,,0,0,1,,,,0,89,93
249480,note_off,,,,,0,0,2,,,,0,49,64
249480,note_on,,,,,0,0,2,,,,0,56,90
249480,note_on,,,,,0,0,2,,,,0,48,90
249480,note_off,,,,,8,0,1,,,,0,77,64
249480,control_change,,,,,0,0,1,,64,95,0,,
249480,note_off,,,,,360,0,2,,,,0,58,64
249600,note_off,,,,,120,0,1,,,,0,89,64
249720,note_on,,,,,120,0,1,,,,0,89,94
249826,control_change,,,,,106,0,1,,64,0,0,,
249840,note_off,,,,,360,0,2,,,,0,48,64
249840,note_off,,,,,0,0,2,,,,0,56,64
249840,note_off,,,,,14,0,1,,,,0,89,64
249840,note_on,,,,,0,0,1,,,,0,77,97
249840,control_change,,,,,0,0,1,,64,96,0,,
249840,note_on,,,,,0,0,2,,,,0,46,84
249840,note_on,,,,,0,0,2,,,,0,55,84
249960,note_off,,,,,120,0,1,,,,0,77,64
250066,control_change,,,,,106,0,1,,64,0,0,,
250080,set_tempo,,,,,1200,1,0,238095,,,,,
250080,note_on,,,,,14,0,1,,,,0,89,111
250080,control_change,,,,,0,0,1,,64,95,0,,
250200,note_off,,,,,360,0,2,,,,0,55,64
250200,note_off,,,,,120,0,1,,,,0,89,64
250200,note_on,,,,,0,0,1,,,,0,101,127
250200,note_off,,,,,0,0,2,,,,0,46,64
250200,note_on,,,,,0,0,2,,,,0,48,99
250200,note_on,,,,,0,0,2,,,,0,56,99
250320,note_off,,,,,120,0,1,,,,0,101,64
250326,control_change,,,,,6,0,1,,64,0,0,,
250440,note_on,,,,,114,0,1,,,,0,89,109
250500,note_off,,,,,300,0,2,,,,0,56,64
250500,note_off,,,,,0,0,2,,,,0,48,64
250560,note_on,,,,,0,0,2,,,,0,46,92
250560,note_on,,,,,60,0,2,,,,0,55,92
250560,note_on,,,,,0,0,1,,,,0,77,104
250560,note_off,,,,,120,0,1,,,,0,89,64
250560,set_tempo,,,,,480,1,0,231660,,,,,
250580,set_tempo,,,,,20,1,0,226415,,,,,
250680,note_off,,,,,120,0,1,,,,0,77,64
250800,note_on,,,,,120,0,1,,,,0,77,97
250890,note_off,,,,,330,0,2,,,,0,46,64
250890,note_off,,,,,0,0,2,,,,0,55,64
250920,note_on,,,,,30,0,2,,,,0,47,85
250920,note_on,,,,,0,0,2,,,,0,55,85
250920,note_on,,,,,0,0,1,,,,0,89,95
250920,note_off,,,,,120,0,1,,,,0,77,64
251040,note_off,,,,,120,0,1,,,,0,89,64
251160,note_on,,,,,120,0,1,,,,0,89,92
251250,note_off,,,,,0,0,2,,,,0,47,64
251250,note_off,,,,,330,0,2,,,,0,55,64
251280,note_on,,,,,0,0,1,,,,0,77,90
251280,note_on,,,,,30,0,2,,,,0,48,80
251280,note_on,,,,,0,0,2,,,,0,55,80
251280,note_off,,,,,120,0,1,,,,0,89,64
251400,note_off,,,,,120,0,1,,,,0,77,64
251520,note_on,,,,,120,0,1,,,,0,77,87
251610,note_off,,,,,0,0,2,,,,0,48,64
251610,note_off,,,,,330,0,2,,,,0,55,64
251640,note_off,,,,,120,0,1,,,,0,77,64
251640,note_on,,,,,0,0,2,,,,0,55,76
251640,note_on,,,,,30,0,2,,,,0,49,76
251640,note_on,,,,,0,0,1,,,,0,89,87
251760,note_off,,,,,120,0,1,,,,0,89,64
251880,note_on,,,,,120,0,1,,,,0,89,86
251970,note_off,,,,,330,0,2,,,,0,55,64
251970,note_off,,,,,0,0,2,,,,0,49,64
252000,note_off,,,,,120,0,1,,,,0,89,64
252000,note_on,,,,,0,0,1,,,,0,77,84
252000,control_change,,,,,0,0,1,,64,95,0,,
252000,note_on,,,,,0,0,2,,,,0,55,73
252000,note_on,,,,,30,0,2,,,,0,49,73
252120,note_off,,,,,120,0,1,,,,0,77,64
252240,note_on,,,,,120,0,1,,,,0,77,82
252360,note_off,,,,,120,0,1,,,,0,77,64
252360,note_on,,,,,0,0,1,,,,0,89,82
252480,note_off,,,,,120,0,1,,,,0,89,64
252600,note_on,,,,,120,0,1,,,,0,89,82
252720,note_on,,,,,0,0,1,,,,0,77,85
252720,note_off,,,,,120,0,1,,,,0,89,64
252840,note_off,,,,,120,0,1,,,,0,77,64
252960,note_on,,,,,120,0,1,,,,0,77,91
253020,note_off,,,,,1020,0,2,,,,0,55,64
253072,control_change,,,,,112,0,1,,64,0,0,,
253080,note_off,,,,,8,0,1,,,,0,77,64
253080,note_on,,,,,60,0,2,,,,0,54,88
253080,note_on,,,,,0,0,1,,,,0,90,96
253080,control_change,,,,,0,0,1,,64,96,0,,
253200,note_off,,,,,120,0,1,,,,0,90,64
253320,note_on,,,,,120,0,1,,,,0,90,99
253432,control_change,,,,,112,0,1,,64,0,0,,
253440,note_off,,,,,8,0,1,,,,0,90,64
253440,note_on,,,,,0,0,1,,,,0,79,103
253440,control_change,,,,,0,0,1,,64,95,0,,
253440,note_on,,,,,0,0,2,,,,0,53,95
253440,note_off,,,,,360,0,2,,,,0,54,64
253560,note_off,,,,,120,0,1,,,,0,79,64
253680,note_on,,,,,120,0,1,,,,0,79,103
253800,note_on,,,,,0,0,1,,,,0,91,108
253800,note_off,,,,,120,0,1,,,,0,79,64
253920,note_off,,,,,120,0,1,,,,0,91,64
254040,note_on,,,,,120,0,1,,,,0,91,105
254100,set_tempo,,,,,3520,1,0,229008,,,,,
254152,control_change,,,,,112,0,1,,64,0,0,,
254160,note_on,,,,,0,0,1,,,,0,79,112
254160,control_change,,,,,0,0,1,,64,95,0,,
254160,set_tempo,,,,,60,1,0,229885,,,,,
254160,note_off,,,,,8,0,1,,,,0,91,64
254160,note_off,,,,,720,0,2,,,,0,53,64
254160,note_off,,,,,0,0,2,,,,0,49,64
254160,note_on,,,,,0,0,2,,,,0,52,88
254160,note_on,,,,,0,0,2,,,,0,48,88
254280,note_off,,,,,120,0,1,,,,0,79,64
254320,set_tempo,,,,,160,1,0,231660,,,,,
254400,note_on,,,,,120,0,1,,,,0,79,108
254520,note_off,,,,,120,0,1,,,,0,79,64
254520,note_on,,,,,0,0,1,,,,0,91,115
254540,set_tempo,,,,,220,1,0,234375,,,,,
254640,note_off,,,,,120,0,1,,,,0,91,64
254760,note_on,,,,,120,0,1,,,,0,79,115
254780,set_tempo,,,,,240,1,0,236220,,,,,
254860,control_change,,,,,100,0,1,,64,0,0,,
254880,note_off,,,,,0,0,2,,,,0,52,64
254880,note_off,,,,,720,0,2,,,,0,48,64
254880,note_off,,,,,20,0,1,,,,0,79,64
254880,control_change,,,,,0,0,1,,64,95,0,,
254880,note_on,,,,,0,0,1,,,,0,81,122
254880,note_on,,,,,0,0,2,,,,0,53,109
254880,note_on,,,,,0,0,2,,,,0,65,109
255000,note_off,,,,,120,0,1,,,,0,81,64
255080,set_tempo,,,,,300,1,0,232558,,,,,
255120,note_on,,,,,120,0,1,,,,0,81,119
255240,note_on,,,,,0,0,1,,,,0,93,118
255240,note_off,,,,,120,0,1,,,,0,81,64
255360,note_off,,,,,120,0,1,,,,0,93,64
255360,set_tempo,,,,,280,1,0,231660,,,,,
255480,note_on,,,,,120,0,1,,,,0,69,84
255586,control_change,,,,,106,0,1,,64,0,0,,
255600,note_off,,,,,14,0,1,,,,0,69,64
255600,control_change,,,,,0,0,1,,64,96,0,,
255600,note_on,,,,,0,0,1,,,,0,72,85
255600,note_off,,,,,720,0,2,,,,0,53,64
255600,note_off,,,,,0,0,2,,,,0,65,64
255600,note_on,,,,,0,0,2,,,,0,63,120
255680,set_tempo,,,,,320,1,0,234375,,,,,
255720,note_off,,,,,120,0,1,,,,0,72,64
255840,note_on,,,,,120,0,1,,,,0,72,93
255952,control_change,,,,,112,0,1,,64,0,0,,
255960,note_off,,,,,360,0,2,,,,0,63,64
255960,control_change,,,,,0,0,1,,64,95,0,,
255960,note_on,,,,,0,0,1,,,,0,75,96
255960,note_on,,,,,0,0,2,,,,0,60,106
255960,note_off,,,,,8,0,1,,,,0,72,64
255960,set_tempo,,,,,280,1,0,237154,,,,,
256080,note_off,,,,,120,0,1,,,,0,75,64
256180,set_tempo,,,,,220,1,0,240000,,,,,
256200,note_on,,,,,120,0,1,,,,0,75,103
256300,set_tempo,,,,,120,1,0,241935,,,,,
256312,control_change,,,,,112,0,1,,64,0,0,,
256320,note_on,,,,,0,0,2,,,,0,57,106
256320,note_off,,,,,360,0,2,,,,0,60,64
256320,control_change,,,,,0,0,1,,64,95,0,,
256320,note_on,,,,,0,0,1,,,,0,77,107
256320,note_off,,,,,8,0,1,,,,0,75,64
256440,note_off,,,,,120,0,1,,,,0,77,64
256560,note_on,,,,,120,0,1,,,,0,77,113
256580,set_tempo,,,,,280,1,0,247934,,,,,
256672,control_change,,,,,112,0,1,,64,0,0,,
256680,note_off,,,,,8,0,1,,,,0,77,64
256680,note_on,,,,,0,0,1,,,,0,81,115
256680,control_change,,,,,0,0,1,,64,96,0,,
256680,note_off,,,,,360,0,2,,,,0,57,64
256680,note_on,,,,,0,0,2,,,,0,53,95
256800,note_off,,,,,120,0,1,,,,0,81,64
256920,note_on,,,,,120,0,1,,,,0,81,120
256940,set_tempo,,,,,360,1,0,246914,,,,,
256980,note_off,,,,,300,0,2,,,,0,53,64
257026,control_change,,,,,106,0,1,,64,0,0,,
257040,control_change,,,,,0,0,1,,64,96,0,,
257040,note_on,,,,,0,0,2,,,,0,54,114
257040,note_off,,,,,14,0,1,,,,0,81,64
257040,note_on,,,,,0,0,1,,,,0,82,121
257040,note_on,,,,,60,0,2,,,,0,58,114
257080,set_tempo,,,,,140,1,0,263158,,,,,
257100,set_tempo,,,,,20,1,0,256410,,,,,
257120,set_tempo,,,,,20,1,0,255319,,,,,
257160,note_off,,,,,120,0,1,,,,0,82,64
257160,note_on,,,,,0,0,1,,,,0,80,113
257180,set_tempo,,,,,60,1,0,243902,,,,,
257280,note_off,,,,,120,0,1,,,,0,80,64
257280,note_on,,,,,0,0,1,,,,0,78,104
257280,set_tempo,,,,,100,1,0,234375,,,,,
257360,set_tempo,,,,,80,1,0,229008,,,,,
257400,note_off,,,,,120,0,1,,,,0,78,64
257400,note_on,,,,,0,0,1,,,,0,77,94
257480,set_tempo,,,,,120,1,0,226415,,,,,
257520,note_on,,,,,0,0,1,,,,0,75,89
257520,note_off,,,,,120,0,1,,,,0,77,64
257640,note_off,,,,,120,0,1,,,,0,75,64
257640,note_on,,,,,0,0,1,,,,0,73,85
257746,control_change,,,,,106,0,1,,64,0,0,,
257760,note_off,,,,,14,0,1,,,,0,73,64
257760,note_on,,,,,0,0,1,,,,0,72,82
257760,control_change,,,,,0,0,1,,64,95,0,,
257760,note_off,,,,,720,0,2,,,,0,54,64
257760,note_off,,,,,0,0,2,,,,0,58,64
257760,note_on,,,,,0,0,2,,,,0,57,93
257760,note_on,,,,,0,0,2,,,,0,51,93
257880,note_off,,,,,120,0,1,,,,0,72,64
257880,note_on,,,,,0,0,1,,,,0,73,76
258000,note_on,,,,,0,0,1,,,,0,74,77
258000,note_off,,,,,120,0,1,,,,0,73,64
258120,note_off,,,,,120,0,1,,,,0,74,64
258120,note_off,,,,,360,0,2,,,,0,51,64
258120,note_on,,,,,0,0,2,,,,0,48,86
258120,note_on,,,,,0,0,1,,,,0,75,83
258240,note_on,,,,,0,0,1,,,,0,76,85
258240,note_off,,,,,120,0,1,,,,0,75,64
258360,note_off,,,,,120,0,1,,,,0,76,64
258360,note_on,,,,,0,0,1,,,,0,77,91
258440,set_tempo,,,,,960,1,0,222222,,,,,
258472,control_change,,,,,112,0,1,,64,0,0,,
258480,note_on,,,,,0,0,1,,,,0,78,98
258480,note_off,,,,,8,0,1,,,,0,77,64
258480,note_off,,,,,360,0,2,,,,0,48,64
258480,note_off,,,,,0,0,2,,,,0,57,64
258480,note_on,,,,,0,0,2,,,,0,44,87
258480,note_on,,,,,0,0,2,,,,0,56,87
258486,control_change,,,,,6,0,1,,64,95,0,,
258600,note_on,,,,,0,0,1,,,,0,80,100
258600,note_off,,,,,114,0,1,,,,0,78,64
258660,set_tempo,,,,,220,1,0,217391,,,,,
258712,control_change,,,,,112,0,1,,64,0,0,,
258720,note_on,,,,,0,0,1,,,,0,82,102
258720,note_off,,,,,8,0,1,,,,0,80,64
258720,note_off,,,,,240,0,2,,,,0,56,64
258720,note_off,,,,,0,0,2,,,,0,44,64
258840,note_on,,,,,120,0,2,,,,0,32,105
258840,note_on,,,,,0,0,1,,,,0,84,111
258840,note_off,,,,,120,0,1,,,,0,82,64
258840,control_change,,,,,0,0,1,,64,96,0,,
258960,note_on,,,,,0,0,1,,,,0,85,118
258960,note_off,,,,,120,0,1,,,,0,84,64
259072,control_change,,,,,112,0,1,,64,0,0,,
259080,note_off,,,,,8,0,1,,,,0,85,64
259080,note_off,,,,,240,0,2,,,,0,32,64
259080,note_on,,,,,0,0,1,,,,0,87,125
259200,note_on,,,,,120,0,2,,,,0,61,122
259200,note_on,,,,,0,0,1,,,,0,89,127
259200,note_off,,,,,120,0,1,,,,0,87,64
259320,note_on,,,,,0,0,1,,,,0,85,113
259320,note_off,,,,,120,0,1,,,,0,89,64
259440,note_off,,,,,240,0,2,,,,0,61,64
259440,note_on,,,,,0,0,1,,,,0,80,100
259440,note_off,,,,,120,0,1,,,,0,85,64
259460,set_tempo,,,,,800,1,0,219780,,,,,
259560,note_on,,,,,0,0,1,,,,0,77,88
259560,note_off,,,,,120,0,1,,,,0,80,64
259560,note_on,,,,,120,0,2,,,,0,49,91
259580,set_tempo,,,,,120,1,0,221402,,,,,
259680,note_on,,,,,0,0,1,,,,0,73,81
259680,note_off,,,,,120,0,1,,,,0,77,64
259740,set_tempo,,,,,160,1,0,222222,,,,,
259800,note_off,,,,,240,0,2,,,,0,49,64
259800,note_off,,,,,120,0,1,,,,0,73,64
259800,note_on,,,,,0,0,1,,,,0,77,70
259900,set_tempo,,,,,160,1,0,224719,,,,,
259920,note_on,,,,,120,0,2,,,,0,44,84
259920,note_off,,,,,120,0,1,,,,0,77,64
259920,note_on,,,,,0,0,1,,,,0,80,101
260040,note_off,,,,,120,0,1,,,,0,80,64
260040,note_on,,,,,0,0,1,,,,0,77,98
260160,note_on,,,,,0,0,1,,,,0,68,89
260160,note_off,,,,,120,0,1,,,,0,77,64
260160,note_off,,,,,240,0,2,,,,0,44,64
260180,set_tempo,,,,,280,1,0,225564,,,,,
260280,control_change,,,,,0,0,1,,64,95,0,,
260280,note_on,,,,,0,0,1,,,,0,77,81
260280,note_off,,,,,120,0,1,,,,0,68,64
260280,note_on,,,,,120,0,2,,,,0,61,60
260280,note_on,,,,,0,0,2,,,,0,65,60
260340,set_tempo,,,,,160,1,0,229008,,,,,
260400,note_on,,,,,0,0,1,,,,0,73,73
260400,note_off,,,,,120,0,1,,,,0,77,64
260520,note_off,,,,,120,0,1,,,,0,73,64
260520,note_on,,,,,0,0,1,,,,0,68,66
260640,note_off,,,,,0,0,2,,,,0,61,64
260640,note_off,,,,,360,0,2,,,,0,65,64
260640,note_on,,,,,0,0,2,,,,0,63,67
260640,note_on,,,,,0,0,1,,,,0,78,80
260640,note_on,,,,,0,0,2,,,,0,66,67
260640,note_off,,,,,120,0,1,,,,0,68,64
260660,set_tempo,,,,,320,1,0,231660,,,,,
260760,note_on,,,,,0,0,1,,,,0,75,74
260760,note_off,,,,,120,0,1,,,,0,78,64
260880,note_off,,,,,120,0,1,,,,0,75,64
260880,note_on,,,,,0,0,1,,,,0,68,63
260880,set_tempo,,,,,220,1,0,235294,,,,,
261000,note_off,,,,,0,0,2,,,,0,66,64
261000,note_on,,,,,0,0,2,,,,0,56,53
261000,note_on,,,,,0,0,2,,,,0,63,53
261000,note_off,,,,,120,0,1,,,,0,68,64
261000,note_on,,,,,0,0,1,,,,0,75,51
261000,note_off,,,,,360,0,2,,,,0,63,64
261060,set_tempo,,,,,180,1,0,240964,,,,,
261120,note_off,,,,,120,0,1,,,,0,75,64
261120,note_on,,,,,0,0,1,,,,0,72,45
261160,set_tempo,,,,,100,1,0,243902,,,,,
261240,note_off,,,,,120,0,1,,,,0,72,64
261240,note_on,,,,,0,0,1,,,,0,68,43
261260,set_tempo,,,,,100,1,0,247934,,,,,
261280,set_tempo,,,,,20,1,0,252101,,,,,
261300,note_off,,,,,0,0,2,,,,0,56,64
261300,note_off,,,,,300,0,2,,,,0,63,64
261340,set_tempo,,,,,60,1,0,255319,,,,,
261346,control_change,,,,,106,0,1,,64,0,0,,
261360,note_off,,,,,14,0,1,,,,0,68,64
261360,set_tempo,,,,,20,1,0,260870,,,,,
261360,note_on,,,,,60,0,2,,,,0,61,126
261360,control_change,,,,,0,0,1,,64,95,0,,
261360,note_on,,,,,0,0,1,,,,0,89,126
261380,set_tempo,,,,,20,1,0,237154,,,,,
261480,set_tempo,,,,,100,1,0,230769,,,,,
261480,note_on,,,,,0,0,1,,,,0,85,118
261480,note_off,,,,,120,0,1,,,,0,89,64
261600,note_off,,,,,240,0,2,,,,0,61,64
261600,control_change,,,,,0,0,1,,64,0,0,,
261600,note_on,,,,,0,0,1,,,,0,80,99
261600,note_off,,,,,120,0,1,,,,0,85,64
261620,set_tempo,,,,,140,1,0,227273,,,,,
261720,control_change,,,,,0,0,1,,64,95,0,,
261720,note_on,,,,,0,0,1,,,,0,77,80
261720,note_off,,,,,120,0,1,,,,0,80,64
261720,note_on,,,,,120,0,2,,,,0,49,91
261780,set_tempo,,,,,160,1,0,225564,,,,,
261840,note_on,,,,,0,0,1,,,,0,73,74
261840,note_off,,,,,120,0,1,,,,0,77,64
261940,set_tempo,,,,,160,1,0,223881,,,,,
261960,note_off,,,,,240,0,2,,,,0,49,64
261960,note_on,,,,,0,0,1,,,,0,77,65
261960,note_off,,,,,120,0,1,,,,0,73,64
261966,control_change,,,,,6,0,1,,64,0,0,,
262080,note_on,,,,,0,0,1,,,,0,80,83
262080,note_off,,,,,114,0,1,,,,0,77,64
262080,note_on,,,,,120,0,2,,,,0,44,84
262200,note_off,,,,,120,0,1,,,,0,80,64
262200,note_on,,,,,0,0,1,,,,0,77,79
262200,set_tempo,,,,,260,1,0,225564,,,,,
262320,note_off,,,,,240,0,2,,,,0,44,64
262320,note_on,,,,,0,0,1,,,,0,68,74
262320,note_off,,,,,120,0,1,,,,0,77,64
262400,set_tempo,,,,,200,1,0,229008,,,,,
262440,control_change,,,,,0,0,1,,64,95,0,,
262440,note_on,,,,,0,0,1,,,,0,77,67
262440,note_off,,,,,120,0,1,,,,0,68,64
262440,note_on,,,,,120,0,2,,,,0,61,60
262440,note_on,,,,,0,0,2,,,,0,65,60
262540,set_tempo,,,,,140,1,0,232558,,,,,
262560,note_on,,,,,0,0,1,,,,0,73,62
262560,note_off,,,,,120,0,1,,,,0,77,64
262680,note_on,,,,,0,0,1,,,,0,68,59
262680,note_off,,,,,120,0,1,,,,0,73,64
262780,set_tempo,,,,,240,1,0,236220,,,,,
262800,note_on,,,,,0,0,1,,,,0,78,68
262800,note_off,,,,,120,0,1,,,,0,68,64
262800,note_off,,,,,360,0,2,,,,0,65,64
262800,note_on,,,,,0,0,2,,,,0,66,67
262800,note_on,,,,,0,0,2,,,,0,63,67
262800,note_off,,,,,0,0,2,,,,0,61,64
262900,set_tempo,,,,,120,1,0,240000,,,,,
262920,note_off,,,,,120,0,1,,,,0,78,64
262920,note_on,,,,,0,0,1,,,,0,75,61
263040,note_off,,,,,120,0,1,,,,0,75,64
263040,note_on,,,,,0,0,1,,,,0,68,53
263160,note_on,,,,,0,0,1,,,,0,75,43
263160,note_off,,,,,360,0,2,,,,0,63,64
263160,note_off,,,,,0,0,2,,,,0,66,64
263160,note_off,,,,,120,0,1,,,,0,68,64
263160,note_on,,,,,0,0,2,,,,0,63,53
263160,note_on,,,,,0,0,2,,,,0,56,53
263240,set_tempo,,,,,340,1,0,243902,,,,,
263280,note_on,,,,,0,0,1,,,,0,72,40
263280,note_off,,,,,120,0,1,,,,0,75,64
263400,note_on,,,,,0,0,1,,,,0,68,43
263400,note_off,,,,,120,0,1,,,,0,72,64
263420,set_tempo,,,,,180,1,0,247934,,,,,
263460,note_off,,,,,300,0,2,,,,0,63,64
263460,note_off,,,,,0,0,2,,,,0,56,64
263506,control_change,,,,,106,0,1,,64,0,0,,
263520,note_on,,,,,60,0,2,,,,0,61,48
263520,note_on,,,,,0,0,2,,,,0,64,48
263520,note_on,,,,,0,0,1,,,,0,76,51
263520,note_off,,,,,14,0,1,,,,0,68,64
263640,note_off,,,,,120,0,1,,,,0,76,64
263640,note_on,,,,,0,0,1,,,,0,73,46
263700,set_tempo,,,,,280,1,0,243902,,,,,
263760,note_off,,,,,120,0,1,,,,0,73,64
263760,note_on,,,,,0,0,1,,,,0,68,52
263812,note_off,,,,,292,0,2,,,,0,64,64
263812,note_off,,,,,0,0,2,,,,0,61,64
263880,note_on,,,,,0,0,2,,,,0,64,59
263880,note_on,,,,,0,0,2,,,,0,62,59
263880,note_on,,,,,68,0,2,,,,0,59,59
263880,note_on,,,,,0,0,1,,,,0,76,66
263880,note_off,,,,,120,0,1,,,,0,68,64
263940,set_tempo,,,,,240,1,0,241935,,,,,
264000,note_off,,,,,120,0,1,,,,0,76,64
264000,note_on,,,,,0,0,1,,,,0,74,64
264120,note_off,,,,,120,0,1,,,,0,74,64
264120,note_on,,,,,0,0,1,,,,0,68,68
264172,note_off,,,,,292,0,2,,,,0,64,64
264172,note_off,,,,,0,0,2,,,,0,59,64
264172,note_off,,,,,0,0,2,,,,0,62,64
264240,note_off,,,,,120,0,1,,,,0,68,64
264240,note_on,,,,,0,0,1,,,,0,76,80
264240,note_on,,,,,0,0,2,,,,0,60,69
264240,note_on,,,,,68,0,2,,,,0,57,69
264240,note_on,,,,,0,0,2,,,,0,64,69
264260,set_tempo,,,,,320,1,0,240000,,,,,
264360,note_off,,,,,120,0,1,,,,0,76,64
264360,note_on,,,,,0,0,1,,,,0,72,74
264380,set_tempo,,,,,120,1,0,236220,,,,,
264480,note_off,,,,,120,0,1,,,,0,72,64
264480,note_on,,,,,0,0,1,,,,0,69,82
264500,set_tempo,,,,,120,1,0,234375,,,,,
264532,note_off,,,,,0,0,2,,,,0,57,64
264532,note_off,,,,,292,0,2,,,,0,64,64
264532,note_off,,,,,0,0,2,,,,0,60,64
264600,note_on,,,,,0,0,2,,,,0,58,83
264600,note_on,,,,,68,0,2,,,,0,55,83
264600,note_on,,,,,0,0,2,,,,0,64,83
264600,note_off,,,,,120,0,1,,,,0,69,64
264600,note_on,,,,,0,0,2,,,,0,60,83
264600,note_on,,,,,0,0,1,,,,0,76,94
264720,note_off,,,,,120,0,1,,,,0,76,64
264720,note_on,,,,,0,0,1,,,,0,72,90
264840,note_on,,,,,0,0,1,,,,0,70,94
264840,note_off,,,,,120,0,1,,,,0,72,64
264892,note_off,,,,,292,0,2,,,,0,64,64
264892,note_off,,,,,0,0,2,,,,0,55,64
264892,note_off,,,,,0,0,2,,,,0,60,64
264892,note_off,,,,,0,0,2,,,,0,58,64
264960,note_on,,,,,68,0,2,,,,0,56,91
264960,note_off,,,,,120,0,1,,,,0,70,64
264960,note_on,,,,,0,0,1,,,,0,77,107
264960,note_on,,,,,0,0,2,,,,0,60,91
264960,note_on,,,,,0,0,2,,,,0,65,91
264980,set_tempo,,,,,480,1,0,232558,,,,,
265080,note_off,,,,,120,0,1,,,,0,77,64
265080,note_on,,,,,0,0,1,,,,0,72,101
265200,note_on,,,,,0,0,1,,,,0,68,106
265200,note_off,,,,,120,0,1,,,,0,72,64
265252,note_off,,,,,0,0,2,,,,0,56,64
265252,note_off,,,,,0,0,2,,,,0,60,64
265252,note_off,,,,,292,0,2,,,,0,65,64
265260,set_tempo,,,,,280,1,0,229885,,,,,
265320,note_on,,,,,0,0,2,,,,0,60,112
265320,note_on,,,,,0,0,2,,,,0,65,112
265320,note_off,,,,,120,0,1,,,,0,68,64
265320,note_on,,,,,0,0,1,,,,0,80,119
265320,note_on,,,,,68,0,2,,,,0,53,112
265440,note_off,,,,,120,0,1,,,,0,80,64
265440,note_on,,,,,0,0,1,,,,0,77,114
265480,set_tempo,,,,,220,1,0,226415,,,,,
265560,note_off,,,,,120,0,1,,,,0,77,64
265560,note_on,,,,,0,0,1,,,,0,72,116
265612,note_off,,,,,0,0,2,,,,0,60,64
265612,note_off,,,,,0,0,2,,,,0,53,64
265612,note_off,,,,,292,0,2,,,,0,65,64
265660,set_tempo,,,,,180,1,0,227273,,,,,
265680,note_off,,,,,120,0,1,,,,0,72,64
265680,set_tempo,,,,,20,1,0,235294,,,,,
265680,note_on,,,,,0,0,1,,,,0,84,127
265680,control_change,,,,,0,0,1,,64,95,0,,
265680,note_on,,,,,68,0,2,,,,0,60,127
265800,note_off,,,,,120,0,1,,,,0,84,64
265920,set_tempo,,,,,240,1,0,250000,,,,,
265920,note_on,,,,,120,0,1,,,,0,84,125
266040,note_off,,,,,120,0,1,,,,0,84,64
266040,note_on,,,,,0,0,1,,,,0,96,127
266160,set_tempo,,,,,240,1,0,232558,,,,,
266160,note_off,,,,,120,0,1,,,,0,96,64
266280,note_on,,,,,120,0,1,,,,0,64,65
266386,control_change,,,,,106,0,1,,64,0,0,,
266400,note_off,,,,,720,0,2,,,,0,60,64
266400,note_off,,,,,14,0,1,,,,0,64,64
266400,note_on,,,,,0,0,1,,,,0,67,71
266400,control_change,,,,,0,0,1,,64,96,0,,
266400,note_on,,,,,0,0,2,,,,0,58,76
266520,note_off,,,,,120,0,1,,,,0,67,64
266640,note_on,,,,,120,0,1,,,,0,67,81
266640,set_tempo,,,,,480,1,0,237154,,,,,
266752,control_change,,,,,112,0,1,,64,0,0,,
266760,note_off,,,,,360,0,2,,,,0,58,64
266760,control_change,,,,,0,0,1,,64,95,0,,
266760,note_on,,,,,0,0,1,,,,0,70,86
266760,note_on,,,,,0,0,2,,,,0,55,80
266760,note_off,,,,,8,0,1,,,,0,67,64
266880,note_off,,,,,120,0,1,,,,0,70,64
267000,note_on,,,,,120,0,1,,,,0,71,99
267020,set_tempo,,,,,380,1,0,240964,,,,,
267112,control_change,,,,,112,0,1,,64,0,0,,
267120,note_on,,,,,0,0,1,,,,0,72,105
267120,control_change,,,,,0,0,1,,64,95,0,,
267120,note_off,,,,,360,0,2,,,,0,55,64
267120,note_on,,,,,0,0,2,,,,0,52,90
267120,note_off,,,,,8,0,1,,,,0,71,64
267240,note_off,,,,,120,0,1,,,,0,72,64
267260,set_tempo,,,,,240,1,0,243902,,,,,
267340,set_tempo,,,,,80,1,0,248963,,,,,
267360,note_on,,,,,120,0,1,,,,0,72,117
267472,control_change,,,,,112,0,1,,64,0,0,,
267480,control_change,,,,,0,0,1,,64,96,0,,
267480,note_on,,,,,0,0,2,,,,0,48,97
267480,note_on,,,,,0,0,1,,,,0,76,127
267480,note_off,,,,,360,0,2,,,,0,52,64
267480,note_off,,,,,8,0,1,,,,0,72,64
267600,note_off,,,,,120,0,1,,,,0,76,64
267720,note_on,,,,,120,0,1,,,,0,76,122
267780,note_off,,,,,300,0,2,,,,0,48,64
267826,control_change,,,,,106,0,1,,64,0,0,,
267840,control_change,,,,,0,0,1,,64,96,0,,
267840,note_on,,,,,0,0,1,,,,0,77,119
267840,note_off,,,,,14,0,1,,,,0,76,64
267840,set_tempo,,,,,500,1,0,270270,,,,,
267840,note_on,,,,,60,0,2,,,,0,53,115
267840,note_on,,,,,0,0,2,,,,0,49,115
267860,set_tempo,,,,,20,1,0,272727,,,,,
267880,set_tempo,,,,,20,1,0,256410,,,,,
267900,set_tempo,,,,,20,1,0,245902,,,,,
267960,note_off,,,,,120,0,1,,,,0,77,64
267960,note_on,,,,,0,0,1,,,,0,75,111
268000,set_tempo,,,,,100,1,0,235294,,,,,
268080,note_off,,,,,120,0,1,,,,0,75,64
268080,note_on,,,,,0,0,1,,,,0,73,104
268120,set_tempo,,,,,120,1,0,227273,,,,,
268200,note_off,,,,,120,0,1,,,,0,73,64
268200,note_on,,,,,0,0,1,,,,0,72,94
268320,note_off,,,,,120,0,1,,,,0,72,64
268320,note_on,,,,,0,0,1,,,,0,70,89
268340,set_tempo,,,,,220,1,0,225564,,,,,
268440,note_off,,,,,120,0,1,,,,0,70,64
268440,note_on,,,,,0,0,1,,,,0,68,85
268546,control_change,,,,,106,0,1,,64,0,0,,
268560,note_on,,,,,0,0,2,,,,0,46,82
268560,note_off,,,,,14,0,1,,,,0,68,64
268560,note_on,,,,,0,0,1,,,,0,67,75
268560,control_change,,,,,0,0,1,,64,95,0,,
268560,note_off,,,,,720,0,2,,,,0,49,64
268560,note_off,,,,,0,0,2,,,,0,53,64
268560,note_on,,,,,0,0,2,,,,0,52,82
268680,note_off,,,,,120,0,1,,,,0,67,64
268680,note_on,,,,,0,0,1,,,,0,68,71
268800,note_off,,,,,120,0,1,,,,0,68,64
268800,note_on,,,,,0,0,1,,,,0,69,78
268920,note_off,,,,,360,0,2,,,,0,46,64
268920,note_on,,,,,0,0,1,,,,0,70,82
268920,note_off,,,,,120,0,1,,,,0,69,64
268920,note_on,,,,,0,0,2,,,,0,43,75
269040,note_on,,,,,0,0,1,,,,0,71,90
269040,note_off,,,,,120,0,1,,,,0,70,64
269160,note_off,,,,,120,0,1,,,,0,71,64
269160,note_on,,,,,0,0,1,,,,0,72,95
269272,control_change,,,,,112,0,1,,64,0,0,,
269280,note_off,,,,,8,0,1,,,,0,72,64
269280,note_on,,,,,0,0,1,,,,0,73,99
269280,set_tempo,,,,,940,1,0,221402,,,,,
269280,note_on,,,,,0,0,2,,,,0,51,87
269280,note_on,,,,,0,0,2,,,,0,39,87
269280,note_off,,,,,0,0,2,,,,0,52,64
269280,note_off,,,,,360,0,2,,,,0,43,64
269286,control_change,,,,,6,0,1,,64,95,0,,
269400,note_on,,,,,0,0,1,,,,0,75,103
269400,note_off,,,,,114,0,1,,,,0,73,64
269512,control_change,,,,,112,0,1,,64,0,0,,
269520,set_tempo,,,,,240,1,0,216606,,,,,
269520,note_off,,,,,0,0,2,,,,0,39,64
269520,note_off,,,,,240,0,2,,,,0,51,64
269520,note_off,,,,,8,0,1,,,,0,75,64
269520,note_on,,,,,0,0,1,,,,0,77,110
269640,control_change,,,,,0,0,1,,64,96,0,,
269640,note_on,,,,,120,0,2,,,,0,51,107
269640,note_on,,,,,0,0,1,,,,0,79,114
269640,note_off,,,,,120,0,1,,,,0,77,64
269760,note_off,,,,,120,0,1,,,,0,79,64
269760,note_on,,,,,0,0,1,,,,0,80,118
269872,control_change,,,,,112,0,1,,64,0,0,,
269880,note_off,,,,,240,0,2,,,,0,51,64
269880,note_on,,,,,0,0,1,,,,0,82,120
269880,note_off,,,,,8,0,1,,,,0,80,64
270000,note_on,,,,,120,0,2,,,,0,56,122
270000,note_off,,,,,120,0,1,,,,0,82,64
270000,note_on,,,,,0,0,1,,,,0,84,126
270120,note_off,,,,,120,0,1,,,,0,84,64
270120,note_on,,,,,0,0,1,,,,0,80,117
270240,note_off,,,,,240,0,2,,,,0,56,64
270240,note_off,,,,,120,0,1,,,,0,80,64
270240,note_on,,,,,0,0,1,,,,0,75,100
270300,set_tempo,,,,,780,1,0,218978,,,,,
270360,note_on,,,,,120,0,2,,,,0,44,91
270360,note_off,,,,,120,0,1,,,,0,75,64
270360,note_on,,,,,0,0,1,,,,0,72,88
270420,set_tempo,,,,,120,1,0,221402,,,,,
270480,note_off,,,,,120,0,1,,,,0,72,64
270480,note_on,,,,,0,0,1,,,,0,68,78
270600,note_off,,,,,240,0,2,,,,0,44,64
270600,note_on,,,,,0,0,1,,,,0,72,66
270600,note_off,,,,,120,0,1,,,,0,68,64
270660,set_tempo,,,,,240,1,0,223881,,,,,
270720,note_on,,,,,0,0,1,,,,0,75,84
270720,note_off,,,,,120,0,1,,,,0,72,64
270720,note_on,,,,,120,0,2,,,,0,39,84
270820,set_tempo,,,,,160,1,0,226415,,,,,
270840,note_on,,,,,0,0,1,,,,0,72,74
270840,note_off,,,,,120,0,1,,,,0,75,64
270960,note_on,,,,,0,0,1,,,,0,63,70
270960,note_off,,,,,120,0,1,,,,0,72,64
270960,note_off,,,,,240,0,2,,,,0,39,64
271080,control_change,,,,,0,0,1,,64,95,0,,
271080,note_on,,,,,0,0,2,,,,0,60,60
271080,note_on,,,,,120,0,2,,,,0,56,60
271080,note_on,,,,,0,0,1,,,,0,72,57
271080,note_off,,,,,120,0,1,,,,0,63,64
271200,note_on,,,,,0,0,1,,,,0,68,54
271200,note_off,,,,,120,0,1,,,,0,72,64
271320,note_on,,,,,0,0,1,,,,0,63,51
271320,note_off,,,,,120,0,1,,,,0,68,64
271340,set_tempo,,,,,520,1,0,229885,,,,,
271440,note_on,,,,,0,0,1,,,,0,73,68
271440,note_off,,,,,120,0,1,,,,0,63,64
271440,note_on,,,,,0,0,2,,,,0,58,67
271440,note_on,,,,,0,0,2,,,,0,61,67
271440,note_off,,,,,360,0,2,,,,0,60,64
271440,note_off,,,,,0,0,2,,,,0,56,64
271460,set_tempo,,,,,120,1,0,232558,,,,,
271560,note_off,,,,,120,0,1,,,,0,73,64
271560,note_on,,,,,0,0,1,,,,0,70,56
271640,set_tempo,,,,,180,1,0,235294,,,,,
271680,note_off,,,,,120,0,1,,,,0,70,64
271680,note_on,,,,,0,0,1,,,,0,63,50
271800,note_on,,,,,0,0,2,,,,0,51,53
271800,note_off,,,,,360,0,2,,,,0,58,64
271800,note_on,,,,,0,0,2,,,,0,58,53
271800,note_on,,,,,0,0,1,,,,0,70,48
271800,note_off,,,,,120,0,1,,,,0,63,64
271800,note_off,,,,,0,0,2,,,,0,61,64
271820,set_tempo,,,,,180,1,0,240964,,,,,
271920,note_on,,,,,0,0,1,,,,0,67,39
271920,note_off,,,,,120,0,1,,,,0,70,64
271980,set_tempo,,,,,160,1,0,245902,,,,,
272040,note_off,,,,,120,0,1,,,,0,67,64
272040,note_on,,,,,0,0,1,,,,0,63,38
272080,set_tempo,,,,,100,1,0,252101,,,,,
272100,note_off,,,,,300,0,2,,,,0,58,64
272100,note_off,,,,,0,0,2,,,,0,51,64
272140,set_tempo,,,,,60,1,0,255319,,,,,
272146,control_change,,,,,106,0,1,,64,0,0,,
272160,note_on,,,,,60,0,2,,,,0,56,121
272160,set_tempo,,,,,20,1,0,260870,,,,,
272160,note_off,,,,,14,0,1,,,,0,63,64
272160,control_change,,,,,0,0,1,,64,95,0,,
272160,note_on,,,,,0,0,1,,,,0,84,126
272180,set_tempo,,,,,20,1,0,237154,,,,,
272220,set_tempo,,,,,40,1,0,231660,,,,,
272280,note_on,,,,,0,0,1,,,,0,80,115
272280,note_off,,,,,120,0,1,,,,0,84,64
272400,note_on,,,,,0,0,1,,,,0,75,108
272400,note_off,,,,,120,0,1,,,,0,80,64
272400,note_off,,,,,240,0,2,,,,0,56,64
272400,control_change,,,,,0,0,1,,64,0,0,,
272420,set_tempo,,,,,200,1,0,227273,,,,,
272520,note_on,,,,,120,0,2,,,,0,44,91
272520,control_change,,,,,0,0,1,,64,95,0,,
272520,note_on,,,,,0,0,1,,,,0,72,92
272520,note_off,,,,,120,0,1,,,,0,75,64
272620,set_tempo,,,,,200,1,0,224719,,,,,
272640,note_off,,,,,120,0,1,,,,0,72,64
272640,note_on,,,,,0,0,1,,,,0,68,85
272760,note_off,,,,,240,0,2,,,,0,44,64
272760,note_on,,,,,0,0,1,,,,0,72,69
272760,note_off,,,,,120,0,1,,,,0,68,64
272766,control_change,,,,,6,0,1,,64,0,0,,
272780,set_tempo,,,,,160,1,0,222222,,,,,
272880,note_on,,,,,0,0,1,,,,0,75,79
272880,note_off,,,,,114,0,1,,,,0,72,64
272880,note_on,,,,,120,0,2,,,,0,39,84
272940,set_tempo,,,,,160,1,0,225564,,,,,
273000,note_on,,,,,0,0,1,,,,0,72,75
273000,note_off,,,,,120,0,1,,,,0,75,64
273100,set_tempo,,,,,160,1,0,227273,,,,,
273120,note_off,,,,,120,0,1,,,,0,72,64
273120,note_on,,,,,0,0,1,,,,0,63,67
273120,note_off,,,,,240,0,2,,,,0,39,64
273240,note_off,,,,,120,0,1,,,,0,63,64
273240,note_on,,,,,0,0,1,,,,0,72,62
273240,control_change,,,,,0,0,1,,64,95,0,,
273240,note_on,,,,,0,0,2,,,,0,57,60
273240,note_on,,,,,120,0,2,,,,0,60,60
273280,set_tempo,,,,,180,1,0,230769,,,,,
273360,note_on,,,,,0,0,1,,,,0,66,62
273360,note_off,,,,,120,0,1,,,,0,72,64
273480,note_off,,,,,120,0,1,,,,0,66,64
273480,note_on,,,,,0,0,1,,,,0,63,54
273520,set_tempo,,,,,240,1,0,234375,,,,,
273580,set_tempo,,,,,60,1,0,237154,,,,,
273600,note_off,,,,,120,0,1,,,,0,63,64
273600,note_on,,,,,0,0,1,,,,0,73,68
273600,note_on,,,,,0,0,2,,,,0,58,67
273600,note_on,,,,,0,0,2,,,,0,61,67
273600,note_off,,,,,0,0,2,,,,0,60,64
273600,note_off,,,,,360,0,2,,,,0,57,64
273720,note_on,,,,,0,0,1,,,,0,70,61
273720,note_off,,,,,120,0,1,,,,0,73,64
273780,set_tempo,,,,,200,1,0,240000,,,,,
273840,note_on,,,,,0,0,1,,,,0,63,54
273840,note_off,,,,,120,0,1,,,,0,70,64
273960,set_tempo,,,,,180,1,0,242915,,,,,
273960,note_on,,,,,0,0,2,,,,0,58,53
273960,note_off,,,,,0,0,2,,,,0,61,64
273960,note_off,,,,,120,0,1,,,,0,63,64
273960,note_off,,,,,360,0,2,,,,0,58,64
273960,note_on,,,,,0,0,2,,,,0,51,53
273960,note_on,,,,,0,0,1,,,,0,70,48
274080,note_on,,,,,0,0,1,,,,0,67,45
274080,note_off,,,,,120,0,1,,,,0,70,64
274180,set_tempo,,,,,220,1,0,246914,,,,,
274200,note_on,,,,,0,0,1,,,,0,63,39
274200,note_off,,,,,120,0,1,,,,0,67,64
274260,note_off,,,,,300,0,2,,,,0,58,64
274260,note_off,,,,,0,0,2,,,,0,51,64
274306,control_change,,,,,106,0,1,,64,0,0,,
274320,note_off,,,,,14,0,1,,,,0,63,64
274320,note_on,,,,,0,0,2,,,,0,59,48
274320,note_on,,,,,60,0,2,,,,0,56,48
274320,note_on,,,,,0,0,1,,,,0,71,51
274440,note_on,,,,,0,0,1,,,,0,68,46
274440,note_off,,,,,120,0,1,,,,0,71,64
274500,set_tempo,,,,,320,1,0,243902,,,,,
274560,note_off,,,,,120,0,1,,,,0,68,64
274560,note_on,,,,,0,0,1,,,,0,63,52
274612,note_off,,,,,0,0,2,,,,0,56,64
274612,note_off,,,,,292,0,2,,,,0,59,64
274680,note_on,,,,,0,0,2,,,,0,59,59
274680,note_on,,,,,0,0,2,,,,0,57,59
274680,note_on,,,,,68,0,2,,,,0,54,59
274680,set_tempo,,,,,180,1,0,242915,,,,,
274680,note_on,,,,,0,0,1,,,,0,71,66
274680,note_off,,,,,120,0,1,,,,0,63,64
274800,note_on,,,,,0,0,1,,,,0,69,64
274800,note_off,,,,,120,0,1,,,,0,71,64
274920,note_off,,,,,120,0,1,,,,0,69,64
274920,note_on,,,,,0,0,1,,,,0,63,68
274972,note_off,,,,,292,0,2,,,,0,59,64
274972,note_off,,,,,0,0,2,,,,0,57,64
274972,note_off,,,,,0,0,2,,,,0,54,64
275020,set_tempo,,,,,340,1,0,240000,,,,,
275040,note_on,,,,,0,0,1,,,,0,71,80
275040,note_off,,,,,120,0,1,,,,0,63,64
275040,note_on,,,,,68,0,2,,,,0,52,69
275040,note_on,,,,,0,0,2,,,,0,55,69
275040,note_on,,,,,0,0,2,,,,0,59,69
275160,note_on,,,,,0,0,1,,,,0,67,74
275160,note_off,,,,,120,0,1,,,,0,71,64
275240,set_tempo,,,,,220,1,0,237154,,,,,
275280,note_on,,,,,0,0,1,,,,0,64,82
275280,note_off,,,,,120,0,1,,,,0,67,64
275332,note_off,,,,,0,0,2,,,,0,52,64
275332,note_off,,,,,0,0,2,,,,0,55,64
275332,note_off,,,,,292,0,2,,,,0,59,64
275400,note_on,,,,,0,0,2,,,,0,59,83
275400,note_on,,,,,0,0,2,,,,0,55,83
275400,note_on,,,,,0,0,2,,,,0,53,83
275400,note_on,,,,,68,0,2,,,,0,50,83
275400,note_off,,,,,120,0,1,,,,0,64,64
275400,note_on,,,,,0,0,1,,,,0,71,94
275520,note_off,,,,,120,0,1,,,,0,71,64
275520,note_on,,,,,0,0,1,,,,0,67,90
275540,set_tempo,,,,,300,1,0,235294,,,,,
275640,note_off,,,,,120,0,1,,,,0,67,64
275640,note_on,,,,,0,0,1,,,,0,65,94
275692,note_off,,,,,0,0,2,,,,0,50,64
275692,note_off,,,,,0,0,2,,,,0,53,64
275692,note_off,,,,,292,0,2,,,,0,59,64
275692,note_off,,,,,0,0,2,,,,0,55,64
275760,note_on,,,,,0,0,1,,,,0,72,107
275760,note_off,,,,,120,0,1,,,,0,65,64
275760,note_on,,,,,68,0,2,,,,0,51,91
275760,note_on,,,,,0,0,2,,,,0,60,91
275760,note_on,,,,,0,0,2,,,,0,55,91
275820,set_tempo,,,,,280,1,0,231660,,,,,
275880,note_off,,,,,120,0,1,,,,0,72,64
275880,note_on,,,,,0,0,1,,,,0,67,101
276000,note_on,,,,,0,0,1,,,,0,63,106
276000,note_off,,,,,120,0,1,,,,0,67,64
276052,note_off,,,,,0,0,2,,,,0,51,64
276052,note_off,,,,,0,0,2,,,,0,55,64
276052,note_off,,,,,292,0,2,,,,0,60,64
276120,note_on,,,,,68,0,2,,,,0,48,112
276120,note_on,,,,,0,0,2,,,,0,60,112
276120,note_off,,,,,120,0,1,,,,0,63,64
276120,note_on,,,,,0,0,1,,,,0,75,119
276120,note_on,,,,,0,0,2,,,,0,55,112
276200,set_tempo,,,,,380,1,0,229008,,,,,
276240,note_off,,,,,120,0,1,,,,0,75,64
276240,note_on,,,,,0,0,1,,,,0,72,114
276360,note_on,,,,,0,0,1,,,,0,67,116
276360,note_off,,,,,120,0,1,,,,0,72,64
276412,note_off,,,,,292,0,2,,,,0,60,64
276412,note_off,,,,,0,0,2,,,,0,48,64
276412,note_off,,,,,0,0,2,,,,0,55,64
276480,note_off,,,,,120,0,1,,,,0,67,64
276480,note_on,,,,,0,0,1,,,,0,79,122
276482,control_change,,,,,2,0,1,,64,95,0,,
276482,set_tempo,,,,,282,1,0,235294,,,,,
276482,note_on,,,,,70,0,2,,,,0,67,127
276600,note_off,,,,,118,0,1,,,,0,79,64
276702,set_tempo,,,,,220,1,0,234375,,,,,
276720,set_tempo,,,,,18,1,0,248963,,,,,
276720,note_on,,,,,120,0,1,,,,0,79,126
276840,note_off,,,,,120,0,1,,,,0,79,64
276840,note_on,,,,,0,0,1,,,,0,91,127
276960,set_tempo,,,,,240,1,0,234375,,,,,
276960,note_off,,,,,120,0,1,,,,0,91,64
277082,note_on,,,,,122,0,1,,,,0,71,91
277122,set_tempo,,,,,162,1,0,232558,,,,,
277188,control_change,,,,,106,0,1,,64,0,0,,
277202,note_on,,,,,0,0,1,,,,0,74,95
277202,note_off,,,,,14,0,1,,,,0,71,64
277202,note_on,,,,,0,0,2,,,,0,65,120
277202,note_off,,,,,720,0,2,,,,0,67,64
277202,control_change,,,,,0,0,1,,64,96,0,,
277322,note_off,,,,,120,0,1,,,,0,74,64
277442,note_on,,,,,120,0,1,,,,0,74,100
277462,set_tempo,,,,,340,1,0,235294,,,,,
277554,control_change,,,,,112,0,1,,64,0,0,,
277562,control_change,,,,,0,0,1,,64,95,0,,
277562,note_on,,,,,0,0,1,,,,0,77,103
277562,note_off,,,,,8,0,1,,,,0,74,64
277562,note_on,,,,,0,0,2,,,,0,62,106
277562,note_off,,,,,360,0,2,,,,0,65,64
277642,set_tempo,,,,,180,1,0,237154,,,,,
277682,note_off,,,,,120,0,1,,,,0,77,64
277762,set_tempo,,,,,120,1,0,240964,,,,,
277802,note_on,,,,,120,0,1,,,,0,77,110
277914,control_change,,,,,112,0,1,,64,0,0,,
277922,note_on,,,,,0,0,1,,,,0,79,113
277922,note_off,,,,,8,0,1,,,,0,77,64
277922,note_off,,,,,360,0,2,,,,0,62,64
277922,note_on,,,,,0,0,2,,,,0,59,106
277922,control_change,,,,,0,0,1,,64,95,0,,
278042,note_off,,,,,120,0,1,,,,0,79,64
278080,set_tempo,,,,,318,1,0,243902,,,,,
278162,note_on,,,,,120,0,1,,,,0,79,118
278274,control_change,,,,,112,0,1,,64,0,0,,
278282,note_on,,,,,0,0,2,,,,0,55,95
278282,note_off,,,,,8,0,1,,,,0,79,64
278282,note_on,,,,,0,0,1,,,,0,83,118
278282,note_off,,,,,360,0,2,,,,0,59,64
278282,control_change,,,,,0,0,1,,64,96,0,,
278402,note_off,,,,,120,0,1,,,,0,83,64
278522,note_on,,,,,120,0,1,,,,0,83,122
278582,note_off,,,,,300,0,2,,,,0,55,64
278628,control_change,,,,,106,0,1,,64,0,0,,
278642,note_off,,,,,14,0,1,,,,0,83,64
278642,note_on,,,,,0,0,2,,,,0,56,121
278642,note_on,,,,,60,0,2,,,,0,60,121
278642,note_on,,,,,0,0,1,,,,0,84,119
278642,control_change,,,,,0,0,1,,64,96,0,,
278762,note_off,,,,,120,0,1,,,,0,84,64
278762,note_on,,,,,0,0,1,,,,0,82,111
278800,set_tempo,,,,,720,1,0,231660,,,,,
278882,note_off,,,,,120,0,1,,,,0,82,64
278882,note_on,,,,,0,0,1,,,,0,80,104
278920,set_tempo,,,,,120,1,0,229885,,,,,
279002,note_off,,,,,120,0,1,,,,0,80,64
279002,note_on,,,,,0,0,1,,,,0,79,94
279082,set_tempo,,,,,162,1,0,227273,,,,,
279122,note_off,,,,,120,0,1,,,,0,79,64
279122,note_on,,,,,0,0,1,,,,0,77,89
279242,note_off,,,,,120,0,1,,,,0,77,64
279242,note_on,,,,,0,0,1,,,,0,75,85
279348,control_change,,,,,106,0,1,,64,0,0,,
279362,note_off,,,,,0,0,2,,,,0,60,64
279362,control_change,,,,,0,0,1,,64,95,0,,
279362,note_on,,,,,0,0,1,,,,0,74,85
279362,note_off,,,,,14,0,1,,,,0,75,64
279362,note_off,,,,,720,0,2,,,,0,56,64
279362,note_on,,,,,0,0,2,,,,0,59,109
279362,note_on,,,,,0,0,2,,,,0,53,109
279482,note_on,,,,,0,0,1,,,,0,75,90
279482,note_off,,,,,120,0,1,,,,0,74,64
279602,note_off,,,,,120,0,1,,,,0,75,64
279602,note_on,,,,,0,0,1,,,,0,76,97
279722,note_on,,,,,0,0,1,,,,0,77,100
279722,note_off,,,,,360,0,2,,,,0,53,64
279722,note_on,,,,,0,0,2,,,,0,50,98
279722,note_off,,,,,120,0,1,,,,0,76,64
279842,note_on,,,,,0,0,1,,,,0,78,106
279842,note_off,,,,,120,0,1,,,,0,77,64
279962,note_off,,,,,120,0,1,,,,0,78,64
279962,note_on,,,,,0,0,1,,,,0,79,108
280074,control_change,,,,,112,0,1,,64,0,0,,
280082,note_on,,,,,0,0,2,,,,0,58,109
280082,note_on,,,,,0,0,1,,,,0,80,111
280082,note_off,,,,,8,0,1,,,,0,79,64
280082,note_on,,,,,0,0,2,,,,0,46,109
280082,note_off,,,,,0,0,2,,,,0,59,64
280082,note_off,,,,,360,0,2,,,,0,50,64
280088,control_change,,,,,6,0,1,,64,95,0,,
280102,set_tempo,,,,,1020,1,0,222222,,,,,
280202,note_on,,,,,0,0,1,,,,0,82,115
280202,note_off,,,,,114,0,1,,,,0,80,64
280282,set_tempo,,,,,180,1,0,219780,,,,,
280314,control_change,,,,,112,0,1,,64,0,0,,
280322,note_off,,,,,240,0,2,,,,0,58,64
280322,note_off,,,,,0,0,2,,,,0,46,64
280322,note_off,,,,,8,0,1,,,,0,82,64
280322,note_on,,,,,0,0,1,,,,0,84,117
280442,note_on,,,,,120,0,2,,,,0,34,116
280442,control_change,,,,,0,0,1,,64,96,0,,
280442,note_on,,,,,0,0,1,,,,0,86,122
280442,note_off,,,,,120,0,1,,,,0,84,64
280540,set_tempo,,,,,258,1,0,216606,,,,,
280562,note_off,,,,,120,0,1,,,,0,86,64
280562,note_on,,,,,0,0,1,,,,0,87,122
280674,control_change,,,,,112,0,1,,64,0,0,,
280682,note_off,,,,,8,0,1,,,,0,87,64
280682,note_on,,,,,0,0,1,,,,0,89,123
280682,note_off,,,,,240,0,2,,,,0,34,64
280802,note_on,,,,,120,0,2,,,,0,63,122
280802,note_off,,,,,120,0,1,,,,0,89,64
280802,note_on,,,,,0,0,1,,,,0,91,117
280922,note_off,,,,,120,0,1,,,,0,91,64
280922,note_on,,,,,0,0,1,,,,0,87,109
281000,set_tempo,,,,,460,1,0,218978,,,,,
281042,note_on,,,,,0,0,1,,,,0,82,94
281042,note_off,,,,,120,0,1,,,,0,87,64
281042,note_off,,,,,240,0,2,,,,0,63,64
281162,note_on,,,,,0,0,1,,,,0,79,86
281162,note_off,,,,,120,0,1,,,,0,82,64
281162,note_on,,,,,120,0,2,,,,0,51,91
281282,note_off,,,,,120,0,1,,,,0,79,64
281282,note_on,,,,,0,0,1,,,,0,75,77
281340,set_tempo,,,,,340,1,0,222222,,,,,
281402,note_off,,,,,120,0,1,,,,0,75,64
281402,note_on,,,,,0,0,1,,,,0,79,68
281402,note_off,,,,,240,0,2,,,,0,51,64
281522,note_on,,,,,0,0,1,,,,0,82,82
281522,note_off,,,,,120,0,1,,,,0,79,64
281522,note_on,,,,,120,0,2,,,,0,46,84
281642,note_off,,,,,120,0,1,,,,0,82,64
281642,note_on,,,,,0,0,1,,,,0,79,82
281680,set_tempo,,,,,340,1,0,226415,,,,,
281762,note_on,,,,,0,0,1,,,,0,70,77
281762,note_off,,,,,120,0,1,,,,0,79,64
281762,note_off,,,,,240,0,2,,,,0,46,64
281882,note_on,,,,,0,0,2,,,,0,67,60
281882,note_on,,,,,0,0,1,,,,0,79,69
281882,note_on,,,,,120,0,2,,,,0,63,60
281882,control_change,,,,,0,0,1,,64,95,0,,
281882,note_off,,,,,120,0,1,,,,0,70,64
282002,note_off,,,,,120,0,1,,,,0,79,64
282002,note_on,,,,,0,0,1,,,,0,75,64
282122,note_off,,,,,120,0,1,,,,0,75,64
282122,note_on,,,,,0,0,1,,,,0,70,59
282160,set_tempo,,,,,480,1,0,230769,,,,,
282242,note_on,,,,,0,0,1,,,,0,80,72
282242,note_off,,,,,120,0,1,,,,0,70,64
282242,note_off,,,,,0,0,2,,,,0,63,64
282242,note_on,,,,,0,0,2,,,,0,65,67
282242,note_on,,,,,0,0,2,,,,0,68,67
282242,note_off,,,,,360,0,2,,,,0,67,64
282320,set_tempo,,,,,160,1,0,234375,,,,,
282362,note_off,,,,,120,0,1,,,,0,80,64
282362,note_on,,,,,0,0,1,,,,0,77,64
282482,note_off,,,,,120,0,1,,,,0,77,64
282482,note_on,,,,,0,0,1,,,,0,70,57
282500,set_tempo,,,,,180,1,0,236220,,,,,
282602,note_off,,,,,0,0,2,,,,0,68,64
282602,note_off,,,,,360,0,2,,,,0,65,64
282602,note_off,,,,,120,0,1,,,,0,70,64
282602,note_on,,,,,0,0,1,,,,0,77,46
282602,note_on,,,,,0,0,2,,,,0,65,53
282602,note_on,,,,,0,0,2,,,,0,58,53
282640,set_tempo,,,,,140,1,0,240000,,,,,
282722,note_on,,,,,0,0,1,,,,0,74,41
282722,note_off,,,,,120,0,1,,,,0,77,64
282740,set_tempo,,,,,100,1,0,242915,,,,,
282840,set_tempo,,,,,100,1,0,246914,,,,,
282842,note_on,,,,,0,0,1,,,,0,70,43
282842,note_off,,,,,120,0,1,,,,0,74,64
282902,note_off,,,,,300,0,2,,,,0,65,64
282902,note_off,,,,,0,0,2,,,,0,58,64
282920,set_tempo,,,,,80,1,0,255319,,,,,
282948,control_change,,,,,106,0,1,,64,0,0,,
282962,note_on,,,,,60,0,2,,,,0,63,126
282962,note_on,,,,,0,0,1,,,,0,91,126
282962,set_tempo,,,,,42,1,0,260870,,,,,
282962,note_off,,,,,14,0,1,,,,0,70,64
282962,control_change,,,,,0,0,1,,64,95,0,,
282982,set_tempo,,,,,20,1,0,237154,,,,,
283082,note_off,,,,,120,0,1,,,,0,91,64
283082,note_on,,,,,0,0,1,,,,0,87,116
283200,set_tempo,,,,,218,1,0,229008,,,,,
283202,control_change,,,,,0,0,1,,64,0,0,,
283202,note_on,,,,,0,0,1,,,,0,82,91
283202,note_off,,,,,120,0,1,,,,0,87,64
283202,note_off,,,,,240,0,2,,,,0,63,64
283322,note_on,,,,,120,0,2,,,,0,51,91
283322,note_off,,,,,120,0,1,,,,0,82,64
283322,note_on,,,,,0,0,1,,,,0,79,84
283322,control_change,,,,,0,0,1,,64,95,0,,
283442,note_off,,,,,120,0,1,,,,0,79,64
283442,note_on,,,,,0,0,1,,,,0,75,73
283520,set_tempo,,,,,320,1,0,224719,,,,,
283562,note_off,,,,,120,0,1,,,,0,75,64
283562,note_on,,,,,0,0,1,,,,0,79,66
283562,note_off,,,,,240,0,2,,,,0,51,64
283568,control_change,,,,,6,0,1,,64,0,0,,
283682,note_on,,,,,0,0,1,,,,0,82,77
283682,note_off,,,,,114,0,1,,,,0,79,64
283682,note_on,,,,,120,0,2,,,,0,46,84
283802,note_off,,,,,120,0,1,,,,0,82,64
283802,note_on,,,,,0,0,1,,,,0,79,73
283860,set_tempo,,,,,340,1,0,225564,,,,,
283922,note_off,,,,,240,0,2,,,,0,46,64
283922,note_on,,,,,0,0,1,,,,0,70,68
283922,note_off,,,,,120,0,1,,,,0,79,64
284000,set_tempo,,,,,140,1,0,229008,,,,,
284040,note_on,,,,,118,0,2,,,,0,64,60
284042,note_off,,,,,120,0,1,,,,0,70,64
284042,note_on,,,,,0,0,1,,,,0,79,63
284042,control_change,,,,,0,0,1,,64,95,0,,
284042,note_on,,,,,2,0,2,,,,0,67,60
284160,note_on,,,,,118,0,1,,,,0,73,56
284162,note_off,,,,,2,0,1,,,,0,79,64
284280,note_off,,,,,118,0,1,,,,0,73,64
284282,note_on,,,,,2,0,1,,,,0,70,51
284320,set_tempo,,,,,320,1,0,232558,,,,,
284400,note_off,,,,,358,0,2,,,,0,64,64
284402,note_on,,,,,0,0,1,,,,0,80,60
284402,note_off,,,,,2,0,2,,,,0,67,64
284402,note_on,,,,,0,0,2,,,,0,68,67
284402,note_on,,,,,0,0,2,,,,0,65,67
284402,note_off,,,,,120,0,1,,,,0,70,64
284440,set_tempo,,,,,120,1,0,236220,,,,,
284522,note_on,,,,,0,0,1,,,,0,77,51
284522,note_off,,,,,120,0,1,,,,0,80,64
284600,set_tempo,,,,,160,1,0,240000,,,,,
284642,note_on,,,,,0,0,1,,,,0,70,46
284642,note_off,,,,,120,0,1,,,,0,77,64
284720,set_tempo,,,,,120,1,0,243902,,,,,
284762,note_off,,,,,0,0,2,,,,0,68,64
284762,note_off,,,,,120,0,1,,,,0,70,64
284762,note_on,,,,,0,0,1,,,,0,77,42
284762,note_off,,,,,360,0,2,,,,0,65,64
284762,note_on,,,,,0,0,2,,,,0,58,53
284762,note_on,,,,,0,0,2,,,,0,65,53
284882,note_off,,,,,120,0,1,,,,0,77,64
284882,note_on,,,,,0,0,1,,,,0,74,39
284900,set_tempo,,,,,180,1,0,255319,,,,,
284960,set_tempo,,,,,60,1,0,263158,,,,,
285002,note_off,,,,,120,0,1,,,,0,74,64
285002,note_on,,,,,0,0,1,,,,0,70,39
285040,set_tempo,,,,,80,1,0,281690,,,,,
285062,note_off,,,,,300,0,2,,,,0,65,64
285062,note_off,,,,,0,0,2,,,,0,58,64
285080,set_tempo,,,,,40,1,0,300000,,,,,
285100,set_tempo,,,,,20,1,0,301508,,,,,
285108,control_change,,,,,106,0,1,,64,0,0,,
285120,note_on,,,,,12,0,1,,,,0,71,106
285120,note_on,,,,,0,0,1,,,,0,74,106
285120,note_on,,,,,0,0,1,,,,0,79,106
285120,note_on,,,,,58,0,2,,,,0,55,111
285120,set_tempo,,,,,20,1,0,227273,,,,,
285120,note_on,,,,,0,0,2,,,,0,43,111
285122,note_off,,,,,2,0,1,,,,0,70,64
285240,note_off,,,,,0,0,1,,,,0,71,64
285240,note_off,,,,,0,0,1,,,,0,74,64
285240,note_off,,,,,118,0,1,,,,0,79,64
285360,set_tempo,,,,,240,1,0,238095,,,,,
285360,control_change,,,,,0,0,1,,64,96,0,,
285360,note_on,,,,,120,0,1,,,,0,79,112
285480,note_on,,,,,0,0,1,,,,0,91,126
285480,note_off,,,,,120,0,1,,,,0,79,64
285600,set_tempo,,,,,240,1,0,227273,,,,,
285600,note_off,,,,,120,0,1,,,,0,91,64
285606,control_change,,,,,6,0,1,,64,0,0,,
285720,note_on,,,,,114,0,1,,,,0,66,82
285840,note_off,,,,,120,0,1,,,,0,66,64
285840,note_on,,,,,0,0,2,,,,0,53,105
285840,note_on,,,,,0,0,2,,,,0,41,105
285840,note_off,,,,,0,0,2,,,,0,55,64
285840,note_off,,,,,720,0,2,,,,0,43,64
285840,note_on,,,,,0,0,1,,,,0,67,80
285960,note_off,,,,,120,0,1,,,,0,67,64
285960,note_on,,,,,0,0,1,,,,0,69,77
286080,note_off,,,,,120,0,1,,,,0,69,64
286080,note_on,,,,,0,0,1,,,,0,70,76
286200,note_off,,,,,360,0,2,,,,0,53,64
286200,note_off,,,,,120,0,1,,,,0,70,64
286200,note_on,,,,,0,0,1,,,,0,71,75
286200,note_off,,,,,0,0,2,,,,0,41,64
286200,note_on,,,,,0,0,2,,,,0,38,99
286200,note_on,,,,,0,0,2,,,,0,50,99
286320,note_off,,,,,120,0,1,,,,0,71,64
286320,note_on,,,,,0,0,1,,,,0,72,79
286440,note_off,,,,,120,0,1,,,,0,72,64
286440,note_on,,,,,0,0,1,,,,0,73,83
286560,note_off,,,,,120,0,1,,,,0,73,64
286560,note_on,,,,,0,0,1,,,,0,74,84
286560,note_off,,,,,360,0,2,,,,0,38,64
286560,note_off,,,,,0,0,2,,,,0,50,64
286560,note_on,,,,,0,0,2,,,,0,35,90
286560,note_on,,,,,0,0,2,,,,0,47,90
286680,note_off,,,,,120,0,1,,,,0,74,64
286680,note_on,,,,,0,0,1,,,,0,75,92
286800,note_off,,,,,120,0,1,,,,0,75,64
286800,note_on,,,,,0,0,1,,,,0,77,100
286920,note_on,,,,,0,0,1,,,,0,79,102
286920,note_on,,,,,0,0,2,,,,0,31,96
286920,note_off,,,,,120,0,1,,,,0,77,64
286920,note_on,,,,,0,0,2,,,,0,43,96
286920,note_off,,,,,360,0,2,,,,0,47,64
286920,note_off,,,,,0,0,2,,,,0,35,64
287040,note_off,,,,,120,0,1,,,,0,79,64
287040,note_on,,,,,0,0,1,,,,0,81,108
287160,note_on,,,,,0,0,1,,,,0,83,115
287160,note_off,,,,,120,0,1,,,,0,81,64
287280,note_on,,,,,0,0,2,,,,0,44,99
287280,note_on,,,,,0,0,2,,,,0,32,99
287280,note_off,,,,,360,0,2,,,,0,31,64
287280,note_off,,,,,0,0,2,,,,0,43,64
287280,note_off,,,,,120,0,1,,,,0,83,64
287280,note_on,,,,,0,0,1,,,,0,84,120
287280,note_on,,,,,0,0,1,,,,0,72,120
287400,note_off,,,,,120,0,2,,,,0,44,64
287400,note_off,,,,,0,0,2,,,,0,32,64
287520,control_change,,,,,240,0,1,,64,96,0,,
287520,note_on,,,,,120,0,2,,,,0,44,93
287520,set_tempo,,,,,1920,1,0,238095,,,,,
287640,note_on,,,,,0,0,2,,,,0,56,114
287640,note_off,,,,,120,0,2,,,,0,44,64
287760,set_tempo,,,,,240,1,0,227273,,,,,
287760,note_off,,,,,120,0,2,,,,0,56,64
287760,control_change,,,,,240,0,1,,64,0,0,,
287880,note_on,,,,,120,0,2,,,,0,43,75
288000,note_off,,,,,120,0,2,,,,0,43,64
288000,note_on,,,,,0,0,1,,,,0,80,114
288000,note_on,,,,,0,0,1,,,,0,68,114
288000,note_off,,,,,0,0,1,,,,0,84,64
288000,note_off,,,,,240,0,1,,,,0,72,64
288000,note_on,,,,,0,0,2,,,,0,44,85
288120,note_on,,,,,0,0,2,,,,0,46,89
288120,note_off,,,,,120,0,2,,,,0,44,64
288240,note_off,,,,,120,0,2,,,,0,46,64
288240,note_on,,,,,0,0,2,,,,0,47,93
288360,note_on,,,,,0,0,1,,,,0,63,105
288360,note_off,,,,,360,0,1,,,,0,80,64
288360,note_off,,,,,0,0,1,,,,0,68,64
288360,note_off,,,,,120,0,2,,,,0,47,64
288360,note_on,,,,,0,0,1,,,,0,75,105
288360,note_on,,,,,0,0,2,,,,0,48,95
288480,note_on,,,,,0,0,2,,,,0,49,98
288480,note_off,,,,,120,0,2,,,,0,48,64
288600,note_on,,,,,0,0,2,,,,0,50,99
288600,note_off,,,,,120,0,2,,,,0,49,64
288720,note_off,,,,,120,0,2,,,,0,50,64
288720,note_off,,,,,360,0,1,,,,0,63,64
288720,note_off,,,,,0,0,1,,,,0,75,64
288720,note_on,,,,,0,0,1,,,,0,60,91
288720,note_on,,,,,0,0,2,,,,0,51,101
288720,note_on,,,,,0,0,1,,,,0,72,91
288840,note_off,,,,,120,0,2,,,,0,51,64
288840,note_on,,,,,0,0,2,,,,0,52,104
288960,note_on,,,,,0,0,2,,,,0,53,104
288960,note_off,,,,,120,0,2,,,,0,52,64
289080,note_off,,,,,0,0,1,,,,0,60,64
289080,note_off,,,,,360,0,1,,,,0,72,64
289080,note_on,,,,,0,0,1,,,,0,56,98
289080,note_on,,,,,0,0,2,,,,0,54,105
289080,note_off,,,,,120,0,2,,,,0,53,64
289080,note_on,,,,,0,0,1,,,,0,68,98
289200,note_on,,,,,0,0,2,,,,0,55,107
289200,note_off,,,,,120,0,2,,,,0,54,64
289320,note_on,,,,,0,0,2,,,,0,54,109
289320,note_off,,,,,120,0,2,,,,0,55,64
289440,note_off,,,,,0,0,1,,,,0,68,64
289440,note_on,,,,,0,0,1,,,,0,71,106
289440,note_on,,,,,0,0,1,,,,0,74,106
289440,note_on,,,,,0,0,1,,,,0,79,106
289440,note_off,,,,,120,0,2,,,,0,54,64
289440,note_on,,,,,0,0,2,,,,0,43,116
289440,note_off,,,,,360,0,1,,,,0,56,64
289440,note_on,,,,,0,0,2,,,,0,55,116
289560,note_off,,,,,120,0,1,,,,0,79,64
289560,note_off,,,,,0,0,1,,,,0,74,64
289560,note_off,,,,,0,0,1,,,,0,71,64
289680,note_on,,,,,120,0,1,,,,0,79,115
289680,control_change,,,,,0,0,1,,64,96,0,,
289680,set_tempo,,,,,1920,1,0,238095,,,,,
289800,note_on,,,,,0,0,1,,,,0,91,127
289800,note_off,,,,,120,0,1,,,,0,79,64
289920,set_tempo,,,,,240,1,0,227273,,,,,
289920,note_off,,,,,120,0,1,,,,0,91,64
289926,control_change,,,,,6,0,1,,64,0,0,,
290040,note_on,,,,,114,0,1,,,,0,66,93
290160,note_on,,,,,0,0,2,,,,0,41,105
290160,note_off,,,,,720,0,2,,,,0,43,64
290160,note_on,,,,,0,0,2,,,,0,53,105
290160,note_on,,,,,0,0,1,,,,0,67,91
290160,note_off,,,,,120,0,1,,,,0,66,64
290160,note_off,,,,,0,0,2,,,,0,55,64
290280,note_off,,,,,120,0,1,,,,0,67,64
290280,note_on,,,,,0,0,1,,,,0,69,91
290400,note_off,,,,,120,0,1,,,,0,69,64
290400,note_on,,,,,0,0,1,,,,0,71,91
290520,note_off,,,,,360,0,2,,,,0,53,64
290520,note_off,,,,,0,0,2,,,,0,41,64
290520,note_on,,,,,0,0,2,,,,0,38,99
290520,note_on,,,,,0,0,2,,,,0,50,99
290520,note_off,,,,,120,0,1,,,,0,71,64
290520,note_on,,,,,0,0,1,,,,0,72,91
290640,note_on,,,,,0,0,1,,,,0,74,92
290640,note_off,,,,,120,0,1,,,,0,72,64
290760,note_on,,,,,0,0,1,,,,0,75,94
290760,note_off,,,,,120,0,1,,,,0,74,64
290880,note_off,,,,,360,0,2,,,,0,38,64
290880,note_on,,,,,0,0,2,,,,0,35,90
290880,note_on,,,,,0,0,1,,,,0,77,98
290880,note_on,,,,,0,0,2,,,,0,47,90
290880,note_off,,,,,0,0,2,,,,0,50,64
290880,note_off,,,,,120,0,1,,,,0,75,64
291000,note_off,,,,,120,0,1,,,,0,77,64
291000,note_on,,,,,0,0,1,,,,0,79,104
291120,note_off,,,,,120,0,1,,,,0,79,64
291120,note_on,,,,,0,0,1,,,,0,81,109
291240,note_on,,,,,0,0,2,,,,0,31,96
291240,note_off,,,,,120,0,1,,,,0,81,64
291240,note_on,,,,,0,0,1,,,,0,83,114
291240,note_off,,,,,360,0,2,,,,0,47,64
291240,note_on,,,,,0,0,2,,,,0,43,96
291240,note_off,,,,,0,0,2,,,,0,35,64
291360,note_off,,,,,120,0,1,,,,0,83,64
291360,note_on,,,,,0,0,1,,,,0,84,118
291480,note_off,,,,,120,0,1,,,,0,84,64
291480,note_on,,,,,0,0,1,,,,0,86,120
291600,note_on,,,,,0,0,1,,,,0,75,122
291600,note_on,,,,,0,0,1,,,,0,87,122
291600,note_off,,,,,360,0,2,,,,0,31,64
291600,note_off,,,,,0,0,2,,,,0,43,64
291600,note_on,,,,,0,0,2,,,,0,30,99
291600,note_on,,,,,0,0,2,,,,0,42,99
291600,note_off,,,,,120,0,1,,,,0,86,64
291720,note_off,,,,,0,0,2,,,,0,30,64
291720,note_off,,,,,120,0,2,,,,0,42,64
291840,note_on,,,,,120,0,2,,,,0,42,93
291840,set_tempo,,,,,1920,1,0,238095,,,,,
291840,control_change,,,,,240,0,1,,64,96,0,,
291960,note_off,,,,,120,0,2,,,,0,42,64
291960,note_on,,,,,0,0,2,,,,0,54,114
292080,note_off,,,,,120,0,2,,,,0,54,64
292080,set_tempo,,,,,240,1,0,227273,,,,,
292080,control_change,,,,,240,0,1,,64,0,0,,
292200,note_on,,,,,120,0,2,,,,0,43,75
292320,note_off,,,,,0,0,1,,,,0,87,64
292320,note_off,,,,,240,0,1,,,,0,75,64
292320,note_on,,,,,0,0,1,,,,0,84,112
292320,note_on,,,,,0,0,1,,,,0,72,112
292320,note_off,,,,,120,0,2,,,,0,43,64
292320,note_on,,,,,0,0,2,,,,0,42,85
292440,note_on,,,,,0,0,2,,,,0,43,89
292440,note_off,,,,,120,0,2,,,,0,42,64
292560,note_off,,,,,120,0,2,,,,0,43,64
292560,note_on,,,,,0,0,2,,,,0,44,93
292680,note_on,,,,,0,0,1,,,,0,80,104
292680,note_off,,,,,360,0,1,,,,0,84,64
292680,note_off,,,,,0,0,1,,,,0,72,64
292680,note_off,,,,,120,0,2,,,,0,44,64
292680,note_on,,,,,0,0,2,,,,0,45,95
292680,note_on,,,,,0,0,1,,,,0,68,104
292800,note_on,,,,,0,0,2,,,,0,46,98
292800,note_off,,,,,120,0,2,,,,0,45,64
292920,note_off,,,,,120,0,2,,,,0,46,64
292920,note_on,,,,,0,0,2,,,,0,47,99
293040,note_off,,,,,120,0,2,,,,0,47,64
293040,note_on,,,,,0,0,2,,,,0,48,101
293040,note_on,,,,,0,0,1,,,,0,75,102
293040,note_on,,,,,0,0,1,,,,0,63,102
293040,note_off,,,,,0,0,1,,,,0,80,64
293040,note_off,,,,,360,0,1,,,,0,68,64
293160,note_off,,,,,120,0,2,,,,0,48,64
293160,note_on,,,,,0,0,2,,,,0,50,101
293280,note_off,,,,,120,0,2,,,,0,50,64
293280,note_on,,,,,0,0,2,,,,0,51,97
293400,note_off,,,,,120,0,2,,,,0,51,64
293400,note_off,,,,,0,0,1,,,,0,63,64
293400,note_off,,,,,360,0,1,,,,0,75,64
293400,note_on,,,,,0,0,1,,,,0,60,97
293400,note_on,,,,,0,0,2,,,,0,52,93
293400,note_on,,,,,0,0,1,,,,0,72,97
293520,note_off,,,,,120,0,2,,,,0,52,64
293520,note_on,,,,,0,0,2,,,,0,53,90
293640,note_on,,,,,0,0,2,,,,0,54,86
293640,note_off,,,,,120,0,2,,,,0,53,64
293760,note_off,,,,,0,0,1,,,,0,72,64
293760,note_on,,,,,0,0,1,,,,0,67,103
293760,note_off,,,,,120,0,2,,,,0,54,64
293760,note_on,,,,,0,0,2,,,,0,55,111
293760,note_on,,,,,0,0,2,,,,0,43,111
293760,note_off,,,,,360,0,1,,,,0,60,64
293880,note_off,,,,,120,0,1,,,,0,67,64
294000,set_tempo,,,,,1920,1,0,241935,,,,,
294000,note_on,,,,,120,0,1,,,,0,79,110
294020,control_change,,,,,20,0,1,,64,96,0,,
294120,note_on,,,,,0,0,1,,,,0,91,112
294120,note_off,,,,,100,0,1,,,,0,79,64
294240,note_off,,,,,120,0,1,,,,0,91,64
294240,set_tempo,,,,,240,1,0,227273,,,,,
294266,control_change,,,,,26,0,1,,64,0,0,,
294360,note_on,,,,,94,0,1,,,,0,66,95
294480,note_on,,,,,0,0,2,,,,0,53,110
294480,note_off,,,,,0,0,2,,,,0,55,64
294480,note_off,,,,,120,0,1,,,,0,66,64
294480,note_on,,,,,0,0,1,,,,0,67,98
294480,control_change,,,,,0,0,1,,64,97,0,,
294480,note_on,,,,,0,0,2,,,,0,41,110
294480,note_off,,,,,720,0,2,,,,0,43,64
294600,note_off,,,,,120,0,1,,,,0,67,64
294600,note_on,,,,,0,0,1,,,,0,71,102
294720,note_on,,,,,0,0,1,,,,0,72,103
294720,note_off,,,,,120,0,1,,,,0,71,64
294840,note_on,,,,,0,0,2,,,,0,38,107
294840,control_change,,,,,0,0,1,,64,0,0,,
294840,note_on,,,,,0,0,1,,,,0,74,104
294840,note_off,,,,,120,0,1,,,,0,72,64
294840,note_off,,,,,0,0,2,,,,0,41,64
294840,note_off,,,,,360,0,2,,,,0,53,64
294840,note_on,,,,,0,0,2,,,,0,50,107
294846,control_change,,,,,6,0,1,,64,96,0,,
294960,note_on,,,,,0,0,1,,,,0,76,107
294960,note_off,,,,,114,0,1,,,,0,74,64
295080,note_on,,,,,0,0,1,,,,0,78,109
295080,note_off,,,,,120,0,1,,,,0,76,64
295140,set_tempo,,,,,900,1,0,229885,,,,,
295186,control_change,,,,,106,0,1,,64,0,0,,
295200,note_on,,,,,0,0,1,,,,0,79,111
295200,note_off,,,,,14,0,1,,,,0,78,64
295200,control_change,,,,,0,0,1,,64,95,0,,
295200,note_off,,,,,0,0,2,,,,0,50,64
295200,note_off,,,,,360,0,2,,,,0,38,64
295200,set_tempo,,,,,60,1,0,231660,,,,,
295200,note_on,,,,,0,0,2,,,,0,35,112
295200,note_on,,,,,0,0,2,,,,0,47,112
295320,note_on,,,,,0,0,1,,,,0,83,114
295320,note_off,,,,,120,0,1,,,,0,79,64
295360,set_tempo,,,,,160,1,0,235294,,,,,
295440,set_tempo,,,,,80,1,0,237154,,,,,
295440,note_on,,,,,0,0,1,,,,0,84,116
295440,note_off,,,,,120,0,1,,,,0,83,64
295460,set_tempo,,,,,20,1,0,238095,,,,,
295546,control_change,,,,,106,0,1,,64,0,0,,
295560,note_off,,,,,0,0,2,,,,0,35,64
295560,note_off,,,,,360,0,2,,,,0,47,64
295560,note_on,,,,,0,0,2,,,,0,31,118
295560,control_change,,,,,0,0,1,,64,96,0,,
295560,note_on,,,,,0,0,1,,,,0,86,119
295560,note_off,,,,,14,0,1,,,,0,84,64
295560,note_on,,,,,0,0,2,,,,0,43,118
295600,set_tempo,,,,,140,1,0,240964,,,,,
295680,note_on,,,,,0,0,1,,,,0,90,123
295680,note_off,,,,,120,0,1,,,,0,86,64
295700,set_tempo,,,,,100,1,0,243902,,,,,
295760,set_tempo,,,,,60,1,0,248963,,,,,
295800,note_off,,,,,120,0,1,,,,0,90,64
295800,note_on,,,,,0,0,1,,,,0,91,127
295820,set_tempo,,,,,60,1,0,256410,,,,,
295900,control_change,,,,,100,0,1,,64,0,0,,
295900,set_tempo,,,,,80,1,0,263158,,,,,
295920,note_off,,,,,20,0,1,,,,0,91,64
295920,note_on,,,,,0,0,1,,,,0,92,127
295920,note_on,,,,,0,0,1,,,,0,80,127
295920,control_change,,,,,0,0,1,,64,95,0,,
295920,note_off,,,,,360,0,2,,,,0,31,64
295920,note_off,,,,,0,0,2,,,,0,43,64
295920,note_on,,,,,0,0,2,,,,0,32,127
295920,note_on,,,,,0,0,2,,,,0,44,127
295960,set_tempo,,,,,60,1,0,266667,,,,,
296040,note_off,,,,,0,0,2,,,,0,32,64
296040,note_off,,,,,120,0,2,,,,0,44,64
296152,control_change,,,,,232,0,1,,64,0,0,,
296160,note_on,,,,,120,0,2,,,,0,44,124
296160,control_change,,,,,8,0,1,,64,95,0,,
296280,note_off,,,,,120,0,2,,,,0,44,64
296280,note_on,,,,,0,0,2,,,,0,56,127
296400,note_off,,,,,120,0,2,,,,0,56,64
296420,set_tempo,,,,,460,1,0,226415,,,,,
296520,note_on,,,,,120,0,2,,,,0,43,120
296526,control_change,,,,,366,0,1,,64,0,0,,
296640,note_off,,,,,120,0,2,,,,0,43,64
296640,note_off,,,,,0,0,1,,,,0,92,64
296640,note_on,,,,,0,0,1,,,,0,75,126
296640,note_on,,,,,0,0,1,,,,0,87,126
296640,note_off,,,,,114,0,1,,,,0,80,64
296640,control_change,,,,,0,0,1,,64,95,0,,
296640,note_on,,,,,0,0,2,,,,0,44,120
296660,set_tempo,,,,,240,1,0,224719,,,,,
296760,note_off,,,,,120,0,2,,,,0,44,64
296760,note_on,,,,,0,0,2,,,,0,46,119
296880,note_on,,,,,0,0,2,,,,0,47,117
296880,note_off,,,,,120,0,2,,,,0,46,64
296992,control_change,,,,,352,0,1,,64,0,0,,
297000,note_on,,,,,0,0,2,,,,0,48,114
297000,control_change,,,,,0,0,1,,64,94,0,,
297000,note_on,,,,,0,0,1,,,,0,72,113
297000,note_on,,,,,0,0,1,,,,0,84,113
297000,note_off,,,,,0,0,1,,,,0,75,64
297000,note_off,,,,,8,0,1,,,,0,87,64
297000,set_tempo,,,,,340,1,0,222222,,,,,
297000,note_off,,,,,120,0,2,,,,0,47,64
297120,note_off,,,,,120,0,2,,,,0,48,64
297120,note_on,,,,,0,0,2,,,,0,49,112
297240,note_on,,,,,0,0,2,,,,0,50,111
297240,note_off,,,,,120,0,2,,,,0,49,64
297352,control_change,,,,,352,0,1,,64,0,0,,
297360,note_on,,,,,0,0,1,,,,0,68,114
297360,control_change,,,,,0,0,1,,64,95,0,,
297360,note_on,,,,,0,0,1,,,,0,80,114
297360,note_off,,,,,120,0,2,,,,0,50,64
297360,note_off,,,,,0,0,1,,,,0,84,64
297360,note_off,,,,,8,0,1,,,,0,72,64
297360,note_on,,,,,0,0,2,,,,0,51,109
297480,note_on,,,,,0,0,2,,,,0,52,104
297480,note_off,,,,,120,0,2,,,,0,51,64
297600,note_off,,,,,120,0,2,,,,0,52,64
297600,note_on,,,,,0,0,2,,,,0,53,103
297712,control_change,,,,,352,0,1,,64,0,0,,
297720,note_off,,,,,8,0,1,,,,0,80,64
297720,note_off,,,,,0,0,1,,,,0,68,64
297720,note_on,,,,,0,0,1,,,,0,78,122
297720,control_change,,,,,0,0,1,,64,96,0,,
297720,note_on,,,,,0,0,2,,,,0,54,103
297720,note_off,,,,,120,0,2,,,,0,53,64
297720,note_on,,,,,0,0,1,,,,0,66,122
297840,note_on,,,,,0,0,2,,,,0,55,109
297840,note_off,,,,,120,0,2,,,,0,54,64
297880,set_tempo,,,,,880,1,0,224719,,,,,
297960,note_off,,,,,120,0,2,,,,0,55,64
297960,note_on,,,,,0,0,2,,,,0,56,115
298040,set_tempo,,,,,160,1,0,227273,,,,,
298072,control_change,,,,,352,0,1,,64,0,0,,
298080,note_on,,,,,0,0,1,,,,0,67,122
298080,note_on,,,,,0,0,2,,,,0,55,114
298080,note_off,,,,,120,0,2,,,,0,56,64
298080,note_off,,,,,8,0,1,,,,0,66,64
298080,note_off,,,,,0,0,1,,,,0,78,64
298080,note_on,,,,,0,0,1,,,,0,79,122
298080,control_change,,,,,0,0,1,,64,95,0,,
298180,set_tempo,,,,,140,1,0,230769,,,,,
298200,note_off,,,,,120,0,2,,,,0,55,64
298200,note_on,,,,,0,0,2,,,,0,59,102
298320,note_off,,,,,120,0,2,,,,0,59,64
298320,note_on,,,,,0,0,2,,,,0,62,96
298432,control_change,,,,,352,0,1,,64,0,0,,
298440,note_off,,,,,120,0,2,,,,0,62,64
298440,note_on,,,,,0,0,2,,,,0,67,85
298440,note_off,,,,,8,0,1,,,,0,67,64
298560,note_off,,,,,120,0,1,,,,0,79,64
298560,note_off,,,,,120,0,2,,,,0,67,64
298560,note_on,,,,,0,0,1,,,,0,78,111
298680,note_on,,,,,0,0,1,,,,0,76,100
298680,note_off,,,,,120,0,1,,,,0,78,64
298800,note_on,,,,,0,0,1,,,,0,74,93
298800,note_off,,,,,120,0,1,,,,0,76,64
298880,set_tempo,,,,,700,1,0,232558,,,,,
298920,note_off,,,,,120,0,1,,,,0,74,64
298920,note_on,,,,,0,0,1,,,,0,72,85
299040,note_off,,,,,120,0,1,,,,0,72,64
299040,note_on,,,,,0,0,1,,,,0,71,81
299160,note_off,,,,,120,0,1,,,,0,71,64
299160,note_on,,,,,0,0,1,,,,0,69,75
299220,set_tempo,,,,,340,1,0,235294,,,,,
299280,note_off,,,,,120,0,1,,,,0,69,64
299280,note_on,,,,,0,0,1,,,,0,67,71
299400,note_on,,,,,0,0,1,,,,0,66,68
299400,note_off,,,,,120,0,1,,,,0,67,64
299520,note_off,,,,,120,0,1,,,,0,66,64
299520,note_on,,,,,0,0,1,,,,0,64,65
299640,note_off,,,,,120,0,1,,,,0,64,64
299640,note_on,,,,,0,0,1,,,,0,62,62
299760,note_on,,,,,0,0,1,,,,0,60,61
299760,note_off,,,,,120,0,1,,,,0,62,64
299840,set_tempo,,,,,620,1,0,240000,,,,,
299880,note_off,,,,,120,0,1,,,,0,60,64
299880,note_on,,,,,1320,0,2,,,,0,59,61
300000,note_off,,,,,120,0,2,,,,0,59,64
300000,note_on,,,,,0,0,2,,,,0,57,59
300120,note_off,,,,,120,0,2,,,,0,57,64
300120,note_on,,,,,0,0,2,,,,0,55,56
300240,note_on,,,,,0,0,2,,,,0,54,53
300240,note_off,,,,,120,0,2,,,,0,55,64
300360,note_off,,,,,120,0,2,,,,0,54,64
300360,note_on,,,,,0,0,2,,,,0,52,48
300480,note_off,,,,,120,0,2,,,,0,52,64
300480,note_on,,,,,0,0,2,,,,0,50,45
300580,set_tempo,,,,,740,1,0,242915,,,,,
300600,note_off,,,,,120,0,2,,,,0,50,64
300600,note_on,,,,,0,0,2,,,,0,48,41
300720,note_off,,,,,120,0,2,,,,0,48,64
300720,note_on,,,,,0,0,2,,,,0,47,39
300780,set_tempo,,,,,200,1,0,245902,,,,,
300840,note_on,,,,,0,0,2,,,,0,45,36
300840,note_off,,,,,120,0,2,,,,0,47,64
300960,set_tempo,,,,,180,1,0,243902,,,,,
300960,note_on,,,,,0,0,2,,,,0,43,33
300960,note_off,,,,,120,0,2,,,,0,45,64
301080,note_off,,,,,120,0,2,,,,0,43,64
301200,note_on,,,,,120,0,2,,,,0,43,45
301200,set_tempo,,,,,240,1,0,227273,,,,,
301320,note_off,,,,,120,0,2,,,,0,43,64
301320,note_on,,,,,0,0,2,,,,0,31,54
301440,note_off,,,,,120,0,2,,,,0,31,64
301560,note_on,,,,,1680,0,1,,,,0,55,49
301680,note_on,,,,,0,0,1,,,,0,67,52
301680,note_off,,,,,120,0,1,,,,0,55,64
301800,note_off,,,,,120,0,1,,,,0,67,64
301920,note_on,,,,,120,0,1,,,,0,67,48
302040,note_off,,,,,120,0,1,,,,0,67,64
302040,note_on,,,,,0,0,1,,,,0,55,52
302160,note_off,,,,,120,0,1,,,,0,55,64
302280,note_on,,,,,120,0,1,,,,0,55,52
302400,note_on,,,,,0,0,1,,,,0,67,55
302400,note_off,,,,,120,0,1,,,,0,55,64
302520,note_off,,,,,120,0,1,,,,0,67,64
302640,note_on,,,,,1200,0,2,,,,0,43,71
302760,note_off,,,,,120,0,2,,,,0,43,64
302760,note_on,,,,,0,0,2,,,,0,31,81
302880,note_off,,,,,120,0,2,,,,0,31,64
303000,note_on,,,,,480,0,1,,,,0,55,45
303120,note_on,,,,,0,0,1,,,,0,67,49
303120,note_off,,,,,120,0,1,,,,0,55,64
303240,note_off,,,,,120,0,1,,,,0,67,64
303340,set_tempo,,,,,2140,1,0,232558,,,,,
303360,note_on,,,,,120,0,1,,,,0,67,44
303480,note_on,,,,,0,0,1,,,,0,55,49
303480,note_off,,,,,120,0,1,,,,0,67,64
303580,set_tempo,,,,,240,1,0,240000,,,,,
303600,note_off,,,,,120,0,1,,,,0,55,64
303720,note_on,,,,,120,0,1,,,,0,55,41
303740,set_tempo,,,,,160,1,0,248963,,,,,
303840,note_on,,,,,0,0,2,,,,0,44,55
303840,note_off,,,,,120,0,1,,,,0,55,64
303840,note_on,,,,,0,0,1,,,,0,68,60
303840,note_on,,,,,0,0,2,,,,0,52,55
303840,note_on,,,,,960,0,2,,,,0,49,55
303860,set_tempo,,,,,120,1,0,234375,,,,,
303960,note_off,,,,,120,0,1,,,,0,68,64
304060,set_tempo,,,,,200,1,0,227273,,,,,
304080,note_on,,,,,120,0,1,,,,0,68,53
304200,note_off,,,,,120,0,1,,,,0,68,64
304200,note_on,,,,,0,0,1,,,,0,56,59
304320,note_off,,,,,120,0,1,,,,0,56,64
304440,note_on,,,,,120,0,1,,,,0,56,49
304500,set_tempo,,,,,440,1,0,229008,,,,,
304560,note_on,,,,,0,0,1,,,,0,68,58
304560,note_off,,,,,120,0,1,,,,0,56,64
304680,note_off,,,,,120,0,1,,,,0,68,64
304800,note_on,,,,,120,0,1,,,,0,68,46
304920,set_tempo,,,,,420,1,0,229885,,,,,
304920,note_off,,,,,120,0,1,,,,0,68,64
304920,note_on,,,,,0,0,1,,,,0,56,57
305040,note_off,,,,,120,0,1,,,,0,56,64
305160,note_on,,,,,120,0,1,,,,0,56,46
305200,set_tempo,,,,,280,1,0,230769,,,,,
305280,note_on,,,,,0,0,1,,,,0,68,54
305280,note_on,,,,,0,0,2,,,,0,44,46
305280,note_on,,,,,0,0,2,,,,0,49,46
305280,note_on,,,,,0,0,2,,,,0,51,46
305280,note_off,,,,,0,0,2,,,,0,49,64
305280,note_off,,,,,0,0,2,,,,0,52,64
305280,note_off,,,,,1440,0,2,,,,0,44,64
305280,note_off,,,,,120,0,1,,,,0,56,64
305380,set_tempo,,,,,180,1,0,231660,,,,,
305400,note_off,,,,,120,0,1,,,,0,68,64
305520,set_tempo,,,,,140,1,0,232558,,,,,
305520,note_on,,,,,120,0,1,,,,0,68,41
305640,set_tempo,,,,,120,1,0,234375,,,,,
305640,note_on,,,,,0,0,1,,,,0,56,51
305640,note_off,,,,,120,0,1,,,,0,68,64
305760,note_off,,,,,120,0,1,,,,0,56,64
305880,note_on,,,,,120,0,1,,,,0,56,39
305920,set_tempo,,,,,280,1,0,235294,,,,,
305960,set_tempo,,,,,40,1,0,236220,,,,,
306000,note_on,,,,,0,0,2,,,,0,51,43
306000,note_on,,,,,0,0,2,,,,0,48,43
306000,note_off,,,,,0,0,2,,,,0,49,64
306000,note_off,,,,,720,0,2,,,,0,44,64
306000,note_off,,,,,0,0,2,,,,0,51,64
306000,note_off,,,,,120,0,1,,,,0,56,64
306000,note_on,,,,,0,0,1,,,,0,68,48
306000,note_on,,,,,0,0,2,,,,0,44,43
306040,set_tempo,,,,,80,1,0,235294,,,,,
306100,set_tempo,,,,,60,1,0,236220,,,,,
306120,note_off,,,,,120,0,1,,,,0,68,64
306240,note_on,,,,,120,0,1,,,,0,68,38
306360,note_on,,,,,0,0,1,,,,0,56,46
306360,note_off,,,,,120,0,1,,,,0,68,64
306380,set_tempo,,,,,280,1,0,237154,,,,,
306480,note_off,,,,,120,0,1,,,,0,56,64
306500,set_tempo,,,,,120,1,0,238095,,,,,
306600,note_on,,,,,120,0,1,,,,0,66,38
306720,note_off,,,,,120,0,1,,,,0,66,64
306720,note_on,,,,,0,0,2,,,,0,43,41
306720,note_on,,,,,0,0,2,,,,0,48,41
306720,note_on,,,,,0,0,2,,,,0,51,41
306720,note_off,,,,,0,0,2,,,,0,51,64
306720,note_off,,,,,0,0,2,,,,0,48,64
306720,note_off,,,,,720,0,2,,,,0,44,64
306720,note_on,,,,,0,0,1,,,,0,67,44
306780,set_tempo,,,,,280,1,0,240000,,,,,
306840,note_off,,,,,120,0,1,,,,0,67,64
306940,set_tempo,,,,,160,1,0,240964,,,,,
306960,note_on,,,,,120,0,1,,,,0,67,33
307080,note_off,,,,,120,0,1,,,,0,67,64
307080,note_on,,,,,0,0,1,,,,0,55,42
307100,set_tempo,,,,,160,1,0,241935,,,,,
307200,note_off,,,,,120,0,1,,,,0,55,64
307220,set_tempo,,,,,120,1,0,245902,,,,,
307320,note_on,,,,,120,0,1,,,,0,55,33
307380,set_tempo,,,,,160,1,0,246914,,,,,
307440,note_on,,,,,0,0,1,,,,0,67,40
307440,note_off,,,,,120,0,1,,,,0,55,64
307540,set_tempo,,,,,160,1,0,250000,,,,,
307560,note_off,,,,,120,0,1,,,,0,67,64
307680,note_on,,,,,120,0,1,,,,0,67,37
307700,set_tempo,,,,,160,1,0,255319,,,,,
307800,note_on,,,,,0,0,1,,,,0,55,35
307800,note_off,,,,,120,0,1,,,,0,67,64
307860,set_tempo,,,,,160,1,0,260870,,,,,
307920,note_off,,,,,120,0,1,,,,0,55,64
308020,set_tempo,,,,,160,1,0,265487,,,,,
308040,note_on,,,,,120,0,1,,,,0,55,33
308160,note_off,,,,,1440,0,2,,,,0,43,64
308160,note_on,,,,,0,0,1,,,,0,67,32
308160,note_off,,,,,120,0,1,,,,0,55,64
308160,note_off,,,,,0,0,2,,,,0,48,64
308160,note_off,,,,,0,0,2,,,,0,51,64
308160,note_on,,,,,0,0,2,,,,0,50,36
308160,note_on,,,,,0,0,2,,,,0,48,36
308160,note_on,,,,,0,0,2,,,,0,43,36
308180,set_tempo,,,,,160,1,0,266667,,,,,
308280,note_off,,,,,120,0,1,,,,0,67,64
308300,set_tempo,,,,,120,1,0,270270,,,,,
308400,note_on,,,,,120,0,1,,,,0,67,31
308420,set_tempo,,,,,120,1,0,275229,,,,,
308520,note_on,,,,,0,0,1,,,,0,55,31
308520,note_off,,,,,120,0,1,,,,0,67,64
308580,set_tempo,,,,,160,1,0,281690,,,,,
308640,note_off,,,,,120,0,1,,,,0,55,64
308660,set_tempo,,,,,80,1,0,285714,,,,,
308760,note_on,,,,,120,0,1,,,,0,55,29
308760,set_tempo,,,,,100,1,0,291262,,,,,
308780,set_tempo,,,,,20,1,0,297030,,,,,
308880,note_on,,,,,0,0,2,,,,0,50,35
308880,set_tempo,,,,,100,1,0,303030,,,,,
308880,note_on,,,,,0,0,2,,,,0,47,35
308880,note_on,,,,,0,0,2,,,,0,43,35
308880,note_off,,,,,0,0,2,,,,0,48,64
308880,note_off,,,,,120,0,1,,,,0,55,64
308880,note_on,,,,,0,0,1,,,,0,67,29
308880,note_off,,,,,0,0,2,,,,0,50,64
308880,note_off,,,,,720,0,2,,,,0,43,64
308920,set_tempo,,,,,40,1,0,309278,,,,,
308940,set_tempo,,,,,20,1,0,315789,,,,,
309000,note_off,,,,,120,0,1,,,,0,67,64
309020,set_tempo,,,,,80,1,0,326087,,,,,
309120,set_tempo,,,,,100,1,0,329670,,,,,
309120,note_on,,,,,120,0,1,,,,0,67,28
309180,set_tempo,,,,,60,1,0,344828,,,,,
309200,set_tempo,,,,,20,1,0,352941,,,,,
309220,set_tempo,,,,,20,1,0,714286,,,,,
309240,control_change,,,,,0,0,1,,64,95,0,,
309240,note_on,,,,,0,0,1,,,,0,55,33
309240,note_off,,,,,120,0,1,,,,0,67,64
309340,set_tempo,,,,,120,1,0,1000000,,,,,
309360,note_off,,,,,480,0,2,,,,0,50,64
309360,control_change,,,,,0,0,1,,64,0,0,,
309360,note_off,,,,,0,0,2,,,,0,43,64
309360,note_off,,,,,120,0,1,,,,0,55,64
309360,note_off,,,,,0,0,2,,,,0,47,64
309460,set_tempo,,,,,120,1,0,1304348,,,,,
309480,set_tempo,,,,,20,1,0,277778,,,,,
309480,note_on,,,,,120,0,1,,,,0,67,53
309600,note_on,,,,,240,0,2,,,,0,48,44
309600,set_tempo,,,,,120,1,0,240964,,,,,
309600,note_on,,,,,0,0,1,,,,0,75,40
309600,note_off,,,,,120,0,1,,,,0,67,64
309720,note_off,,,,,120,0,2,,,,0,48,64
309720,note_off,,,,,120,0,1,,,,0,75,64
309720,note_on,,,,,0,0,2,,,,0,51,32
309840,note_on,,,,,0,0,2,,,,0,55,34
309840,note_off,,,,,120,0,2,,,,0,51,64
309840,note_on,,,,,120,0,1,,,,0,75,32
309840,set_tempo,,,,,240,1,0,238095,,,,,
309960,note_off,,,,,120,0,1,,,,0,75,64
309960,note_on,,,,,0,0,1,,,,0,74,43
309960,note_on,,,,,0,0,2,,,,0,47,39
309960,note_off,,,,,120,0,2,,,,0,55,64
310080,note_off,,,,,120,0,1,,,,0,74,64
310080,note_off,,,,,120,0,2,,,,0,47,64
310080,note_on,,,,,0,0,2,,,,0,50,32
310100,set_tempo,,,,,260,1,0,236220,,,,,
310200,note_off,,,,,120,0,2,,,,0,50,64
310200,note_on,,,,,120,0,1,,,,0,74,36
310200,note_on,,,,,0,0,2,,,,0,55,38
310320,note_off,,,,,120,0,2,,,,0,55,64
310320,note_on,,,,,0,0,2,,,,0,48,42
310320,note_off,,,,,120,0,1,,,,0,74,64
310320,note_on,,,,,0,0,1,,,,0,72,45
310380,set_tempo,,,,,280,1,0,231660,,,,,
310440,note_off,,,,,120,0,1,,,,0,72,64
310440,note_off,,,,,120,0,2,,,,0,48,64
310440,note_on,,,,,0,0,2,,,,0,51,33
310560,note_on,,,,,120,0,1,,,,0,72,43
310560,note_off,,,,,120,0,2,,,,0,51,64
310560,note_on,,,,,0,0,2,,,,0,55,38
310620,set_tempo,,,,,240,1,0,230769,,,,,
310680,note_off,,,,,120,0,2,,,,0,55,64
310680,note_on,,,,,0,0,2,,,,0,51,41
310680,note_off,,,,,120,0,1,,,,0,72,64
310680,note_on,,,,,0,0,1,,,,0,79,39
310780,set_tempo,,,,,160,1,0,229885,,,,,
310800,note_off,,,,,120,0,1,,,,0,79,64
310800,note_on,,,,,0,0,2,,,,0,55,31
310800,note_off,,,,,120,0,2,,,,0,51,64
310900,set_tempo,,,,,120,1,0,229008,,,,,
310920,note_on,,,,,120,0,1,,,,0,79,41
310920,note_on,,,,,0,0,2,,,,0,60,34
310920,note_off,,,,,120,0,2,,,,0,55,64
311040,note_on,,,,,0,0,1,,,,0,74,45
311040,note_off,,,,,120,0,1,,,,0,79,64
311040,note_on,,,,,0,0,2,,,,0,53,40
311040,note_off,,,,,120,0,2,,,,0,60,64
311060,set_tempo,,,,,160,1,0,227273,,,,,
311160,note_on,,,,,0,0,2,,,,0,56,32
311160,note_off,,,,,120,0,1,,,,0,74,64
311160,note_off,,,,,120,0,2,,,,0,53,64
311280,note_on,,,,,0,0,2,,,,0,62,36
311280,note_off,,,,,120,0,2,,,,0,56,64
311280,note_on,,,,,120,0,1,,,,0,74,41
311400,note_on,,,,,0,0,2,,,,0,55,41
311400,note_off,,,,,120,0,1,,,,0,74,64
311400,note_on,,,,,0,0,1,,,,0,67,43
311400,note_off,,,,,120,0,2,,,,0,62,64
311520,note_on,,,,,0,0,2,,,,0,59,34
311520,note_off,,,,,120,0,2,,,,0,55,64
311520,note_off,,,,,120,0,1,,,,0,67,64
311640,note_off,,,,,120,0,2,,,,0,59,64
311640,note_on,,,,,0,0,2,,,,0,65,38
311640,note_on,,,,,120,0,1,,,,0,67,45
311760,note_on,,,,,0,0,1,,,,0,75,51
311760,note_off,,,,,120,0,2,,,,0,65,64
311760,note_on,,,,,0,0,2,,,,0,48,42
311760,note_off,,,,,120,0,1,,,,0,67,64
311880,note_off,,,,,120,0,2,,,,0,48,64
311880,note_on,,,,,0,0,2,,,,0,55,38
311880,note_off,,,,,120,0,1,,,,0,75,64
312000,note_on,,,,,120,0,1,,,,0,75,42
312000,note_on,,,,,0,0,2,,,,0,60,35
312000,note_off,,,,,120,0,2,,,,0,55,64
312120,note_off,,,,,120,0,1,,,,0,75,64
312120,note_on,,,,,0,0,1,,,,0,72,47
312120,note_on,,,,,0,0,2,,,,0,51,39
312120,note_off,,,,,120,0,2,,,,0,60,64
312240,note_on,,,,,0,0,2,,,,0,55,35
312240,note_off,,,,,120,0,2,,,,0,51,64
312240,note_off,,,,,120,0,1,,,,0,72,64
312360,note_on,,,,,120,0,1,,,,0,72,50
312360,note_off,,,,,120,0,2,,,,0,55,64
312360,note_on,,,,,0,0,2,,,,0,60,35
312480,note_off,,,,,120,0,2,,,,0,60,64
312480,note_on,,,,,0,0,2,,,,0,53,45
312480,note_off,,,,,120,0,1,,,,0,72,64
312480,note_on,,,,,0,0,1,,,,0,80,54
312600,note_off,,,,,120,0,1,,,,0,80,64
312600,note_off,,,,,120,0,2,,,,0,53,64
312600,note_on,,,,,0,0,2,,,,0,56,39
312720,note_on,,,,,120,0,1,,,,0,80,64
312720,note_off,,,,,120,0,2,,,,0,56,64
312720,note_on,,,,,0,0,2,,,,0,60,41
312840,note_on,,,,,0,0,1,,,,0,83,66
312840,note_on,,,,,0,0,2,,,,0,50,44
312840,note_off,,,,,120,0,2,,,,0,60,64
312840,note_off,,,,,120,0,1,,,,0,80,64
312960,note_off,,,,,120,0,1,,,,0,83,64
312960,note_off,,,,,120,0,2,,,,0,50,64
312960,note_on,,,,,0,0,2,,,,0,53,49
313080,note_off,,,,,120,0,2,,,,0,53,64
313080,note_on,,,,,120,0,1,,,,0,83,71
313080,note_on,,,,,0,0,2,,,,0,60,48
313200,note_off,,,,,120,0,1,,,,0,83,64
313200,note_on,,,,,0,0,1,,,,0,84,74
313200,note_on,,,,,0,0,2,,,,0,51,56
313200,note_off,,,,,120,0,2,,,,0,60,64
313320,note_on,,,,,0,0,2,,,,0,55,63
313320,note_off,,,,,120,0,2,,,,0,51,64
313320,note_off,,,,,120,0,1,,,,0,84,64
313440,note_on,,,,,0,0,2,,,,0,60,69
313440,note_on,,,,,120,0,1,,,,0,84,71
313440,note_off,,,,,120,0,2,,,,0,55,64
313560,note_off,,,,,120,0,1,,,,0,84,64
313560,note_off,,,,,120,0,2,,,,0,60,64
313560,note_on,,,,,0,0,2,,,,0,48,74
313560,note_on,,,,,0,0,1,,,,0,87,74
313680,note_off,,,,,120,0,2,,,,0,48,64
313680,note_on,,,,,0,0,2,,,,0,51,79
313680,note_off,,,,,120,0,1,,,,0,87,64
313800,note_off,,,,,120,0,2,,,,0,51,64
313800,note_on,,,,,0,0,2,,,,0,55,87
313800,note_on,,,,,120,0,1,,,,0,87,80
313920,note_on,,,,,0,0,1,,,,0,91,94
313920,note_off,,,,,120,0,1,,,,0,87,64
313920,note_off,,,,,120,0,2,,,,0,55,64
313920,note_on,,,,,0,0,2,,,,0,45,92
314040,note_on,,,,,0,0,2,,,,0,48,99
314040,note_off,,,,,120,0,1,,,,0,91,64
314040,note_off,,,,,120,0,2,,,,0,45,64
314160,note_on,,,,,0,0,2,,,,0,55,102
314160,note_on,,,,,120,0,1,,,,0,91,101
314160,note_off,,,,,120,0,2,,,,0,48,64
314280,note_on,,,,,0,0,2,,,,0,44,105
314280,note_off,,,,,120,0,2,,,,0,55,64
314280,note_on,,,,,0,0,1,,,,0,90,107
314280,note_off,,,,,120,0,1,,,,0,91,64
314400,note_off,,,,,120,0,1,,,,0,90,64
314400,note_on,,,,,0,0,2,,,,0,48,109
314400,note_off,,,,,120,0,2,,,,0,44,64
314520,note_on,,,,,120,0,1,,,,0,90,117
314520,note_on,,,,,0,0,2,,,,0,55,115
314520,note_off,,,,,120,0,2,,,,0,48,64
314640,note_off,,,,,120,0,1,,,,0,90,64
314640,note_on,,,,,0,0,1,,,,0,91,121
314640,note_on,,,,,0,0,2,,,,0,43,118
314640,note_off,,,,,120,0,2,,,,0,55,64
314760,note_off,,,,,120,0,2,,,,0,43,64
314760,note_on,,,,,0,0,2,,,,0,47,94
314760,note_off,,,,,120,0,1,,,,0,91,64
314880,note_off,,,,,120,0,2,,,,0,47,64
314880,note_on,,,,,0,0,2,,,,0,55,110
314880,note_on,,,,,120,0,1,,,,0,67,99
314880,control_change,,,,,0,0,1,,64,95,0,,
315000,note_off,,,,,120,0,2,,,,0,55,64
315000,note_on,,,,,0,0,1,,,,0,79,115
315000,note_off,,,,,120,0,1,,,,0,67,64
315000,note_on,,,,,0,0,2,,,,0,50,123
315120,note_on,,,,,0,0,2,,,,0,53,91
315120,note_off,,,,,120,0,1,,,,0,79,64
315120,note_off,,,,,120,0,2,,,,0,50,64
315226,control_change,,,,,106,0,1,,64,0,0,,
315240,note_off,,,,,120,0,2,,,,0,53,64
315240,note_on,,,,,0,0,2,,,,0,55,64
315240,note_on,,,,,14,0,1,,,,0,67,86
315360,note_on,,,,,0,0,2,,,,0,48,59
315360,note_on,,,,,0,0,1,,,,0,75,40
315360,note_off,,,,,120,0,1,,,,0,67,64
315360,note_off,,,,,120,0,2,,,,0,55,64
315480,note_on,,,,,0,0,2,,,,0,51,58
315480,note_off,,,,,120,0,2,,,,0,48,64
315480,note_off,,,,,120,0,1,,,,0,75,64
315600,note_on,,,,,120,0,1,,,,0,75,32
315600,note_off,,,,,120,0,2,,,,0,51,64
315600,note_on,,,,,0,0,2,,,,0,55,34
315720,note_off,,,,,120,0,1,,,,0,75,64
315720,note_on,,,,,0,0,1,,,,0,74,43
315720,note_on,,,,,0,0,2,,,,0,47,39
315720,note_off,,,,,120,0,2,,,,0,55,64
315840,note_on,,,,,0,0,2,,,,0,50,32
315840,note_off,,,,,120,0,2,,,,0,47,64
315840,note_off,,,,,120,0,1,,,,0,74,64
315960,note_off,,,,,120,0,2,,,,0,50,64
315960,note_on,,,,,0,0,2,,,,0,55,38
315960,note_on,,,,,120,0,1,,,,0,74,36
316080,note_on,,,,,0,0,1,,,,0,72,45
316080,note_off,,,,,120,0,1,,,,0,74,64
316080,note_on,,,,,0,0,2,,,,0,48,42
316080,note_off,,,,,120,0,2,,,,0,55,64
316200,note_off,,,,,120,0,2,,,,0,48,64
316200,note_off,,,,,120,0,1,,,,0,72,64
316200,note_on,,,,,0,0,2,,,,0,51,33
316320,note_off,,,,,120,0,2,,,,0,51,64
316320,note_on,,,,,0,0,2,,,,0,55,38
316320,note_on,,,,,120,0,1,,,,0,72,43
316440,note_on,,,,,0,0,2,,,,0,51,41
316440,note_off,,,,,120,0,2,,,,0,55,64
316440,note_on,,,,,0,0,1,,,,0,79,44
316440,note_off,,,,,120,0,1,,,,0,72,64
316560,note_off,,,,,120,0,1,,,,0,79,64
316560,note_on,,,,,0,0,2,,,,0,55,31
316560,note_off,,,,,120,0,2,,,,0,51,64
316680,note_on,,,,,120,0,1,,,,0,79,42
316680,note_on,,,,,0,0,2,,,,0,60,34
316680,note_off,,,,,120,0,2,,,,0,55,64
316800,note_off,,,,,120,0,1,,,,0,79,64
316800,note_off,,,,,120,0,2,,,,0,60,64
316800,note_on,,,,,0,0,1,,,,0,74,48
316800,note_on,,,,,0,0,2,,,,0,53,40
316920,note_off,,,,,120,0,2,,,,0,53,64
316920,note_off,,,,,120,0,1,,,,0,74,64
316920,note_on,,,,,0,0,2,,,,0,56,32
317040,note_off,,,,,120,0,2,,,,0,56,64
317040,note_on,,,,,120,0,1,,,,0,74,42
317040,note_on,,,,,0,0,2,,,,0,62,36
317160,note_off,,,,,120,0,1,,,,0,74,64
317160,note_on,,,,,0,0,1,,,,0,67,50
317160,note_on,,,,,0,0,2,,,,0,55,41
317160,note_off,,,,,120,0,2,,,,0,62,64
317280,note_off,,,,,120,0,1,,,,0,67,64
317280,note_on,,,,,0,0,2,,,,0,59,34
317280,note_off,,,,,120,0,2,,,,0,55,64
317400,note_off,,,,,120,0,2,,,,0,59,64
317400,note_on,,,,,120,0,1,,,,0,67,44
317400,note_on,,,,,0,0,2,,,,0,65,38
317520,note_off,,,,,120,0,1,,,,0,67,64
317520,note_off,,,,,120,0,2,,,,0,65,64
317520,note_on,,,,,0,0,2,,,,0,48,42
317520,note_on,,,,,0,0,1,,,,0,75,50
317640,note_off,,,,,120,0,1,,,,0,75,64
317640,note_off,,,,,120,0,2,,,,0,48,64
317640,note_on,,,,,0,0,2,,,,0,55,41
317760,note_on,,,,,120,0,1,,,,0,75,51
317760,note_off,,,,,120,0,2,,,,0,55,64
317760,note_on,,,,,0,0,2,,,,0,60,43
317880,note_off,,,,,120,0,1,,,,0,75,64
317880,note_on,,,,,0,0,1,,,,0,72,57
317880,note_off,,,,,120,0,2,,,,0,60,64
317880,note_on,,,,,0,0,2,,,,0,51,45
318000,note_off,,,,,120,0,1,,,,0,72,64
318000,note_off,,,,,120,0,2,,,,0,51,64
318000,note_on,,,,,0,0,2,,,,0,55,46
318020,set_tempo,,,,,6960,1,0,226415,,,,,
318120,note_on,,,,,120,0,1,,,,0,72,58
318120,note_on,,,,,0,0,2,,,,0,60,49
318120,note_off,,,,,120,0,2,,,,0,55,64
318240,note_on,,,,,0,0,1,,,,0,80,64
318240,note_off,,,,,120,0,1,,,,0,72,64
318240,note_on,,,,,0,0,2,,,,0,53,61
318240,note_off,,,,,120,0,2,,,,0,60,64
318360,note_off,,,,,120,0,1,,,,0,80,64
318360,note_on,,,,,0,0,2,,,,0,56,54
318360,note_off,,,,,120,0,2,,,,0,53,64
318420,set_tempo,,,,,400,1,0,225564,,,,,
318480,note_off,,,,,120,0,2,,,,0,56,64
318480,note_on,,,,,120,0,1,,,,0,80,66
318480,note_on,,,,,0,0,2,,,,0,60,56
318600,note_on,,,,,0,0,1,,,,0,83,73
318600,note_off,,,,,120,0,1,,,,0,80,64
318600,note_off,,,,,120,0,2,,,,0,60,64
318600,note_on,,,,,0,0,2,,,,0,50,59
318720,note_off,,,,,120,0,2,,,,0,50,64
318720,note_on,,,,,0,0,2,,,,0,53,63
318720,note_off,,,,,120,0,1,,,,0,83,64
318840,note_on,,,,,120,0,1,,,,0,83,75
318840,note_off,,,,,120,0,2,,,,0,53,64
318840,note_on,,,,,0,0,2,,,,0,60,65
318900,set_tempo,,,,,480,1,0,224719,,,,,
318960,note_on,,,,,0,0,1,,,,0,84,81
318960,note_off,,,,,120,0,1,,,,0,83,64
318960,note_off,,,,,120,0,2,,,,0,60,64
318960,note_on,,,,,0,0,2,,,,0,51,78
319080,note_off,,,,,120,0,2,,,,0,51,64
319080,note_on,,,,,0,0,2,,,,0,55,69
319080,note_off,,,,,120,0,1,,,,0,84,64
319200,note_off,,,,,120,0,2,,,,0,55,64
319200,note_on,,,,,0,0,2,,,,0,60,71
319200,note_on,,,,,120,0,1,,,,0,84,81
319220,set_tempo,,,,,320,1,0,223881,,,,,
319320,note_off,,,,,120,0,2,,,,0,60,64
319320,note_on,,,,,0,0,2,,,,0,48,79
319320,note_off,,,,,120,0,1,,,,0,84,64
319320,note_on,,,,,0,0,1,,,,0,87,89
319440,note_on,,,,,0,0,2,,,,0,51,94
319440,note_off,,,,,120,0,1,,,,0,87,64
319440,note_off,,,,,120,0,2,,,,0,48,64
319560,note_on,,,,,120,0,1,,,,0,87,88
319560,note_off,,,,,120,0,2,,,,0,51,64
319560,note_on,,,,,0,0,2,,,,0,55,105
319620,set_tempo,,,,,400,1,0,222222,,,,,
319680,note_off,,,,,120,0,2,,,,0,55,64
319680,control_change,,,,,0,0,1,,64,96,0,,
319680,note_on,,,,,0,0,1,,,,0,91,105
319680,note_on,,,,,0,0,2,,,,0,43,118
319680,note_off,,,,,120,0,1,,,,0,87,64
319800,note_on,,,,,0,0,2,,,,0,48,97
319800,note_off,,,,,120,0,2,,,,0,43,64
319800,note_off,,,,,120,0,1,,,,0,91,64
319920,note_on,,,,,0,0,2,,,,0,51,101
319920,note_on,,,,,120,0,1,,,,0,91,99
319920,note_off,,,,,120,0,2,,,,0,48,64
319980,set_tempo,,,,,360,1,0,221402,,,,,
320032,control_change,,,,,112,0,1,,64,0,0,,
320040,note_off,,,,,8,0,1,,,,0,91,64
320040,note_off,,,,,120,0,2,,,,0,51,64
320040,note_on,,,,,0,0,2,,,,0,43,103
320040,control_change,,,,,0,0,1,,64,95,0,,
320040,note_on,,,,,0,0,1,,,,0,91,103
320160,note_on,,,,,0,0,2,,,,0,47,107
320160,note_off,,,,,120,0,2,,,,0,43,64
320160,note_off,,,,,120,0,1,,,,0,91,64
320280,note_off,,,,,120,0,2,,,,0,47,64
320280,note_on,,,,,0,0,2,,,,0,50,110
320280,note_on,,,,,120,0,1,,,,0,91,103
320386,control_change,,,,,106,0,1,,64,0,0,,
320400,note_on,,,,,0,0,2,,,,0,36,116
320400,note_off,,,,,120,0,2,,,,0,50,64
320400,note_on,,,,,0,0,1,,,,0,96,122
320400,control_change,,,,,0,0,1,,64,95,0,,
320400,note_off,,,,,14,0,1,,,,0,91,64
320500,set_tempo,,,,,520,1,0,220588,,,,,
320520,note_off,,,,,120,0,1,,,,0,96,64
320520,note_on,,,,,0,0,2,,,,0,39,100
320520,note_off,,,,,120,0,2,,,,0,36,64
320640,note_on,,,,,0,0,2,,,,0,43,89
320640,note_off,,,,,120,0,2,,,,0,39,64
320752,control_change,,,,,232,0,1,,64,0,0,,
320760,note_on,,,,,0,0,2,,,,0,48,81
320760,note_off,,,,,120,0,2,,,,0,43,64
320780,set_tempo,,,,,280,1,0,219780,,,,,
320880,note_on,,,,,0,0,2,,,,0,51,73
320880,note_off,,,,,120,0,2,,,,0,48,64
321000,note_on,,,,,0,0,2,,,,0,55,68
321000,note_off,,,,,120,0,2,,,,0,51,64
321000,note_on,,,,,248,0,1,,,,0,79,45
321020,set_tempo,,,,,240,1,0,218978,,,,,
321120,note_on,,,,,0,0,1,,,,0,80,57
321120,note_off,,,,,120,0,1,,,,0,79,64
321120,note_off,,,,,120,0,2,,,,0,55,64
321120,note_on,,,,,0,0,2,,,,0,53,59
321240,note_off,,,,,120,0,2,,,,0,53,64
321240,note_on,,,,,0,0,2,,,,0,56,53
321240,note_off,,,,,120,0,1,,,,0,80,64
321360,note_on,,,,,120,0,1,,,,0,80,45
321360,note_off,,,,,120,0,2,,,,0,56,64
321360,note_on,,,,,0,0,2,,,,0,59,46
321380,set_tempo,,,,,360,1,0,219780,,,,,
321480,note_off,,,,,120,0,2,,,,0,59,64
321480,note_off,,,,,120,0,1,,,,0,80,64
321480,note_on,,,,,0,0,1,,,,0,77,54
321480,note_on,,,,,0,0,2,,,,0,50,47
321540,set_tempo,,,,,160,1,0,220588,,,,,
321600,note_off,,,,,120,0,2,,,,0,50,64
321600,note_on,,,,,0,0,2,,,,0,53,44
321600,note_off,,,,,120,0,1,,,,0,77,64
321700,set_tempo,,,,,160,1,0,221402,,,,,
321720,note_off,,,,,120,0,2,,,,0,53,64
321720,note_on,,,,,0,0,2,,,,0,56,41
321720,note_on,,,,,120,0,1,,,,0,77,45
321840,note_off,,,,,120,0,1,,,,0,77,64
321840,note_on,,,,,0,0,1,,,,0,74,50
321840,note_on,,,,,0,0,2,,,,0,47,40
321840,note_off,,,,,120,0,2,,,,0,56,64
321960,note_off,,,,,120,0,2,,,,0,47,64
321960,note_off,,,,,120,0,1,,,,0,74,64
321960,note_on,,,,,0,0,2,,,,0,50,36
321980,set_tempo,,,,,280,1,0,222222,,,,,
322080,note_off,,,,,120,0,2,,,,0,50,64
322080,note_on,,,,,120,0,1,,,,0,74,45
322080,note_on,,,,,0,0,2,,,,0,53,35
322140,set_tempo,,,,,160,1,0,223881,,,,,
322200,note_on,,,,,0,0,1,,,,0,83,55
322200,note_off,,,,,120,0,1,,,,0,74,64
322200,note_off,,,,,120,0,2,,,,0,53,64
322200,note_on,,,,,0,0,2,,,,0,43,36
322320,note_off,,,,,120,0,1,,,,0,83,64
322320,note_on,,,,,0,0,2,,,,0,50,40
322320,note_off,,,,,120,0,2,,,,0,43,64
322340,set_tempo,,,,,200,1,0,224719,,,,,
322440,note_on,,,,,0,0,2,,,,0,53,43
322440,note_off,,,,,120,0,2,,,,0,50,64
322440,note_on,,,,,120,0,1,,,,0,83,51
322560,note_off,,,,,120,0,1,,,,0,83,64
322560,note_on,,,,,0,0,1,,,,0,84,61
322560,note_off,,,,,120,0,2,,,,0,53,64
322560,note_on,,,,,0,0,2,,,,0,44,48
322680,note_off,,,,,120,0,1,,,,0,84,64
322680,note_on,,,,,0,0,2,,,,0,48,43
322680,note_off,,,,,120,0,2,,,,0,44,64
322800,note_on,,,,,0,0,2,,,,0,51,41
322800,note_on,,,,,120,0,1,,,,0,84,52
322800,note_off,,,,,120,0,2,,,,0,48,64
322880,set_tempo,,,,,540,1,0,226415,,,,,
322920,note_off,,,,,120,0,2,,,,0,51,64
322920,note_on,,,,,0,0,2,,,,0,42,40
322920,note_on,,,,,0,0,1,,,,0,72,56
322920,note_off,,,,,120,0,1,,,,0,84,64
323040,note_off,,,,,120,0,2,,,,0,42,64
323040,note_off,,,,,120,0,1,,,,0,72,64
323040,note_on,,,,,0,0,2,,,,0,48,40
323140,set_tempo,,,,,260,1,0,229008,,,,,
323160,note_on,,,,,0,0,2,,,,0,51,45
323160,note_off,,,,,120,0,2,,,,0,48,64
323160,note_on,,,,,120,0,1,,,,0,72,40
323280,note_on,,,,,0,0,2,,,,0,43,48
323280,note_on,,,,,0,0,1,,,,0,79,52
323280,note_off,,,,,120,0,1,,,,0,72,64
323280,note_off,,,,,120,0,2,,,,0,51,64
323340,set_tempo,,,,,200,1,0,225564,,,,,
323400,note_on,,,,,0,0,2,,,,0,47,52
323400,note_off,,,,,120,0,1,,,,0,79,64
323400,note_off,,,,,120,0,2,,,,0,43,64
323440,set_tempo,,,,,100,1,0,221402,,,,,
323520,note_on,,,,,0,0,2,,,,0,50,56
323520,note_on,,,,,120,0,1,,,,0,90,60
323520,note_off,,,,,120,0,2,,,,0,47,64
323620,set_tempo,,,,,180,1,0,218978,,,,,
323640,note_off,,,,,120,0,2,,,,0,50,64
323640,note_on,,,,,0,0,2,,,,0,47,61
323640,note_on,,,,,0,0,1,,,,0,91,71
323640,note_off,,,,,120,0,1,,,,0,90,64
323760,note_off,,,,,120,0,2,,,,0,47,64
323760,note_on,,,,,0,0,2,,,,0,50,64
323760,note_on,,,,,0,0,1,,,,0,90,82
323760,note_off,,,,,120,0,1,,,,0,91,64
323820,set_tempo,,,,,200,1,0,215827,,,,,
323880,note_off,,,,,120,0,2,,,,0,50,64
323880,note_off,,,,,120,0,1,,,,0,90,64
323880,note_on,,,,,0,0,1,,,,0,91,93
323880,note_on,,,,,0,0,2,,,,0,55,69
324000,note_on,,,,,0,0,1,,,,0,92,99
324000,note_off,,,,,120,0,2,,,,0,55,64
324000,note_on,,,,,0,0,2,,,,0,53,72
324000,note_off,,,,,120,0,1,,,,0,91,64
324000,control_change,,,,,0,0,1,,64,95,0,,
324120,note_off,,,,,120,0,2,,,,0,53,64
324120,note_on,,,,,0,0,2,,,,0,56,73
324120,note_off,,,,,120,0,1,,,,0,92,64
324120,set_tempo,,,,,300,1,0,214286,,,,,
324240,note_on,,,,,120,0,1,,,,0,92,87
324240,note_on,,,,,0,0,2,,,,0,59,67
324240,note_off,,,,,120,0,2,,,,0,56,64
324320,control_change,,,,,80,0,1,,64,0,0,,
324360,note_off,,,,,120,0,2,,,,0,59,64
324360,note_on,,,,,0,0,2,,,,0,50,60
324360,note_off,,,,,40,0,1,,,,0,92,64
324360,note_on,,,,,0,0,1,,,,0,89,84
324480,note_off,,,,,120,0,2,,,,0,50,64
324480,note_on,,,,,0,0,2,,,,0,53,56
324480,note_off,,,,,120,0,1,,,,0,89,64
324600,note_on,,,,,120,0,1,,,,0,89,75
324600,note_off,,,,,120,0,2,,,,0,53,64
324600,note_on,,,,,0,0,2,,,,0,56,49
324720,note_off,,,,,120,0,1,,,,0,89,64
324720,note_on,,,,,0,0,1,,,,0,86,70
324720,note_off,,,,,120,0,2,,,,0,56,64
324720,note_on,,,,,0,0,2,,,,0,47,44
324840,note_off,,,,,120,0,1,,,,0,86,64
324840,note_off,,,,,120,0,2,,,,0,47,64
324840,note_on,,,,,0,0,2,,,,0,50,42
324960,note_on,,,,,120,0,1,,,,0,86,57
324960,note_off,,,,,120,0,2,,,,0,50,64
324960,note_on,,,,,0,0,2,,,,0,53,45
325080,note_on,,,,,0,0,2,,,,0,43,47
325080,note_off,,,,,120,0,2,,,,0,53,64
325080,note_off,,,,,120,0,1,,,,0,86,64
325080,note_on,,,,,0,0,1,,,,0,83,60
325160,set_tempo,,,,,1040,1,0,215827,,,,,
325200,note_off,,,,,120,0,2,,,,0,43,64
325200,note_on,,,,,0,0,2,,,,0,50,42
325200,note_off,,,,,120,0,1,,,,0,83,64
325320,set_tempo,,,,,160,1,0,218978,,,,,
325320,note_off,,,,,120,0,2,,,,0,50,64
325320,note_on,,,,,0,0,2,,,,0,53,47
325320,note_on,,,,,120,0,1,,,,0,83,67
325440,note_on,,,,,0,0,1,,,,0,84,70
325440,note_off,,,,,120,0,2,,,,0,53,64
325440,note_off,,,,,120,0,1,,,,0,83,64
325440,note_on,,,,,0,0,2,,,,0,44,51
325560,note_off,,,,,120,0,2,,,,0,44,64
325560,note_off,,,,,120,0,1,,,,0,84,64
325560,note_on,,,,,0,0,2,,,,0,48,40
325600,set_tempo,,,,,280,1,0,220588,,,,,
325680,note_off,,,,,120,0,2,,,,0,48,64
325680,note_on,,,,,0,0,2,,,,0,51,36
325680,set_tempo,,,,,80,1,0,222222,,,,,
325680,note_on,,,,,120,0,1,,,,0,84,64
325800,note_off,,,,,120,0,2,,,,0,51,64
325800,note_on,,,,,0,0,2,,,,0,44,41
325800,note_on,,,,,0,0,1,,,,0,78,62
325800,note_off,,,,,120,0,1,,,,0,84,64
325920,note_off,,,,,120,0,2,,,,0,44,64
325920,note_on,,,,,0,0,2,,,,0,48,37
325920,note_off,,,,,120,0,1,,,,0,78,64
326040,note_off,,,,,120,0,2,,,,0,48,64
326040,note_on,,,,,0,0,2,,,,0,50,39
326040,set_tempo,,,,,360,1,0,226415,,,,,
326040,note_on,,,,,120,0,1,,,,0,78,52
326160,note_on,,,,,0,0,1,,,,0,79,48
326160,note_off,,,,,120,0,1,,,,0,78,64
326160,note_off,,,,,120,0,2,,,,0,50,64
326160,note_on,,,,,0,0,2,,,,0,43,43
326220,set_tempo,,,,,180,1,0,229008,,,,,
326280,note_off,,,,,120,0,2,,,,0,43,64
326280,note_on,,,,,0,0,2,,,,0,47,47
326400,note_off,,,,,120,0,2,,,,0,47,64
326400,note_on,,,,,0,0,2,,,,0,50,52
326400,note_off,,,,,240,0,1,,,,0,79,64
326480,set_tempo,,,,,260,1,0,232558,,,,,
326520,note_off,,,,,120,0,2,,,,0,50,64
326520,note_on,,,,,0,0,2,,,,0,55,56
326560,set_tempo,,,,,80,1,0,240000,,,,,
326640,note_off,,,,,120,0,2,,,,0,55,64
326640,note_on,,,,,0,0,2,,,,0,53,52
326640,set_tempo,,,,,80,1,0,245902,,,,,
326760,note_on,,,,,0,0,2,,,,0,50,47
326760,note_off,,,,,120,0,2,,,,0,53,64
326760,note_on,,,,,360,0,1,,,,0,67,61
326800,set_tempo,,,,,160,1,0,254237,,,,,
326880,note_on,,,,,0,0,1,,,,0,76,33
326880,note_on,,,,,0,0,2,,,,0,48,54
326880,note_off,,,,,120,0,2,,,,0,50,64
326880,set_tempo,,,,,80,1,0,500000,,,,,
326880,note_off,,,,,120,0,1,,,,0,67,64
326920,set_tempo,,,,,40,1,0,344828,,,,,
326960,set_tempo,,,,,40,1,0,312500,,,,,
327000,note_off,,,,,120,0,1,,,,0,76,64
327000,note_off,,,,,120,0,2,,,,0,48,64
327000,note_on,,,,,0,0,2,,,,0,52,32
327000,set_tempo,,,,,40,1,0,253165,,,,,
327040,set_tempo,,,,,40,1,0,252101,,,,,
327120,note_off,,,,,120,0,2,,,,0,52,64
327120,note_on,,,,,120,0,1,,,,0,76,32
327120,note_on,,,,,0,0,2,,,,0,55,34
327240,note_off,,,,,120,0,1,,,,0,76,64
327240,note_off,,,,,120,0,2,,,,0,55,64
327240,note_on,,,,,0,0,1,,,,0,74,38
327240,note_on,,,,,0,0,2,,,,0,47,39
327360,note_off,,,,,120,0,1,,,,0,74,64
327360,note_off,,,,,120,0,2,,,,0,47,64
327360,note_on,,,,,0,0,2,,,,0,53,32
327460,set_tempo,,,,,420,1,0,248963,,,,,
327480,note_on,,,,,0,0,2,,,,0,55,38
327480,note_on,,,,,120,0,1,,,,0,74,30
327480,note_off,,,,,120,0,2,,,,0,53,64
327600,note_off,,,,,120,0,2,,,,0,55,64
327600,note_on,,,,,0,0,2,,,,0,48,42
327600,note_off,,,,,120,0,1,,,,0,74,64
327600,note_on,,,,,0,0,1,,,,0,72,36
327720,note_off,,,,,120,0,2,,,,0,48,64
327720,note_on,,,,,0,0,2,,,,0,52,33
327720,note_off,,,,,120,0,1,,,,0,72,64
327820,set_tempo,,,,,360,1,0,245902,,,,,
327840,note_on,,,,,120,0,1,,,,0,72,35
327840,note_on,,,,,0,0,2,,,,0,55,38
327840,note_off,,,,,120,0,2,,,,0,52,64
327960,note_on,,,,,0,0,1,,,,0,79,31
327960,note_off,,,,,120,0,2,,,,0,55,64
327960,note_off,,,,,120,0,1,,,,0,72,64
327960,note_on,,,,,0,0,2,,,,0,52,41
327980,set_tempo,,,,,160,1,0,241935,,,,,
328080,note_on,,,,,0,0,2,,,,0,55,31
328080,note_off,,,,,120,0,2,,,,0,52,64
328080,note_off,,,,,120,0,1,,,,0,79,64
328200,note_on,,,,,0,0,2,,,,0,60,34
328200,note_off,,,,,120,0,2,,,,0,55,64
328200,note_on,,,,,120,0,1,,,,0,79,30
328260,set_tempo,,,,,280,1,0,240964,,,,,
328320,note_on,,,,,0,0,2,,,,0,53,40
328320,note_off,,,,,120,0,2,,,,0,60,64
328320,note_off,,,,,120,0,1,,,,0,79,64
328320,note_on,,,,,0,0,1,,,,0,74,38
328440,note_on,,,,,0,0,2,,,,0,57,32
328440,note_off,,,,,120,0,2,,,,0,53,64
328440,note_off,,,,,120,0,1,,,,0,74,64
328500,set_tempo,,,,,240,1,0,238095,,,,,
328560,note_on,,,,,120,0,1,,,,0,74,31
328560,note_on,,,,,0,0,2,,,,0,62,36
328560,note_off,,,,,120,0,2,,,,0,57,64
328680,note_off,,,,,120,0,1,,,,0,74,64
328680,note_on,,,,,0,0,1,,,,0,67,36
328680,note_off,,,,,120,0,2,,,,0,62,64
328680,note_on,,,,,0,0,2,,,,0,55,41
328780,set_tempo,,,,,280,1,0,235294,,,,,
328800,note_off,,,,,120,0,1,,,,0,67,64
328800,note_on,,,,,0,0,2,,,,0,59,34
328800,note_off,,,,,120,0,2,,,,0,55,64
328920,note_on,,,,,120,0,1,,,,0,67,35
328920,note_on,,,,,0,0,2,,,,0,65,38
328920,note_off,,,,,120,0,2,,,,0,59,64
329040,note_off,,,,,120,0,1,,,,0,67,64
329040,note_off,,,,,120,0,2,,,,0,65,64
329040,note_on,,,,,0,0,2,,,,0,48,42
329040,note_on,,,,,0,0,1,,,,0,76,40
329160,note_on,,,,,0,0,2,,,,0,55,38
329160,note_off,,,,,120,0,2,,,,0,48,64
329160,note_off,,,,,120,0,1,,,,0,76,64
329180,set_tempo,,,,,400,1,0,230769,,,,,
329280,note_on,,,,,120,0,1,,,,0,76,39
329280,note_on,,,,,0,0,2,,,,0,60,35
329280,note_off,,,,,120,0,2,,,,0,55,64
329400,note_off,,,,,120,0,1,,,,0,76,64
329400,note_on,,,,,0,0,2,,,,0,52,39
329400,note_on,,,,,0,0,1,,,,0,72,35
329400,note_off,,,,,120,0,2,,,,0,60,64
329520,note_on,,,,,0,0,2,,,,0,55,35
329520,note_off,,,,,120,0,1,,,,0,72,64
329520,note_off,,,,,120,0,2,,,,0,52,64
329540,set_tempo,,,,,360,1,0,227273,,,,,
329640,note_on,,,,,0,0,2,,,,0,60,35
329640,note_off,,,,,120,0,2,,,,0,55,64
329640,note_on,,,,,120,0,1,,,,0,72,34
329760,note_off,,,,,120,0,1,,,,0,72,64
329760,note_on,,,,,0,0,1,,,,0,81,37
329760,note_on,,,,,0,0,2,,,,0,53,38
329760,note_off,,,,,120,0,2,,,,0,60,64
329880,note_off,,,,,120,0,1,,,,0,81,64
329880,note_on,,,,,0,0,2,,,,0,57,34
329880,note_off,,,,,120,0,2,,,,0,53,64
330000,note_off,,,,,120,0,2,,,,0,57,64
330000,note_on,,,,,0,0,2,,,,0,60,32
330000,note_on,,,,,120,0,1,,,,0,81,42
330120,note_off,,,,,120,0,2,,,,0,60,64
330120,note_on,,,,,0,0,1,,,,0,83,44
330120,note_off,,,,,120,0,1,,,,0,81,64
330120,note_on,,,,,0,0,2,,,,0,50,40
330240,note_on,,,,,0,0,2,,,,0,53,35
330240,note_off,,,,,120,0,2,,,,0,50,64
330240,note_off,,,,,120,0,1,,,,0,83,64
330360,note_on,,,,,120,0,1,,,,0,83,48
330360,note_on,,,,,0,0,2,,,,0,60,30
330360,note_off,,,,,120,0,2,,,,0,53,64
330480,note_off,,,,,120,0,1,,,,0,83,64
330480,note_on,,,,,0,0,2,,,,0,52,40
330480,note_off,,,,,120,0,2,,,,0,60,64
330480,note_on,,,,,0,0,1,,,,0,84,50
330600,note_off,,,,,120,0,1,,,,0,84,64
330600,note_off,,,,,120,0,2,,,,0,52,64
330600,note_on,,,,,0,0,2,,,,0,55,35
330720,note_on,,,,,0,0,2,,,,0,60,32
330720,note_off,,,,,120,0,2,,,,0,55,64
330720,note_on,,,,,120,0,1,,,,0,84,50
330840,note_on,,,,,0,0,1,,,,0,88,54
330840,note_off,,,,,120,0,1,,,,0,84,64
330840,note_on,,,,,0,0,2,,,,0,48,40
330840,note_off,,,,,120,0,2,,,,0,60,64
330960,note_on,,,,,0,0,2,,,,0,52,37
330960,note_off,,,,,120,0,2,,,,0,48,64
330960,note_off,,,,,120,0,1,,,,0,88,64
331080,note_on,,,,,120,0,1,,,,0,79,45
331080,note_off,,,,,120,0,2,,,,0,52,64
331080,note_on,,,,,0,0,2,,,,0,55,29
331120,set_tempo,,,,,1580,1,0,229008,,,,,
331140,set_tempo,,,,,20,1,0,229885,,,,,
331200,note_on,,,,,0,0,1,,,,0,84,47
331200,note_off,,,,,120,0,2,,,,0,55,64
331200,note_off,,,,,120,0,1,,,,0,79,64
331200,note_on,,,,,0,0,2,,,,0,45,39
331200,note_on,,,,,0,0,1,,,,0,78,47
331280,set_tempo,,,,,140,1,0,234375,,,,,
331320,note_off,,,,,120,0,1,,,,0,84,64
331320,note_off,,,,,0,0,1,,,,0,78,64
331320,note_off,,,,,120,0,2,,,,0,45,64
331320,note_on,,,,,0,0,2,,,,0,48,34
331440,set_tempo,,,,,160,1,0,237154,,,,,
331440,note_off,,,,,120,0,2,,,,0,48,64
331440,note_on,,,,,0,0,2,,,,0,55,31
331440,note_on,,,,,0,0,1,,,,0,84,43
331440,note_on,,,,,120,0,1,,,,0,78,43
331520,set_tempo,,,,,80,1,0,240000,,,,,
331560,note_off,,,,,120,0,2,,,,0,55,64
331560,note_on,,,,,0,0,1,,,,0,86,41
331560,note_on,,,,,0,0,1,,,,0,77,41
331560,note_off,,,,,0,0,1,,,,0,78,64
331560,note_off,,,,,120,0,1,,,,0,84,64
331560,note_on,,,,,0,0,2,,,,0,47,39
331680,note_off,,,,,120,0,2,,,,0,47,64
331680,note_on,,,,,0,0,2,,,,0,50,33
331680,set_tempo,,,,,160,1,0,248963,,,,,
331680,note_off,,,,,120,0,1,,,,0,86,64
331680,note_off,,,,,0,0,1,,,,0,77,64
331700,set_tempo,,,,,20,1,0,250000,,,,,
331800,note_on,,,,,0,0,2,,,,0,55,30
331800,note_on,,,,,120,0,1,,,,0,86,36
331800,note_on,,,,,0,0,1,,,,0,77,36
331800,note_off,,,,,120,0,2,,,,0,50,64
331820,set_tempo,,,,,120,1,0,256410,,,,,
331840,set_tempo,,,,,20,1,0,260870,,,,,
331920,note_on,,,,,0,0,1,,,,0,79,41
331920,note_off,,,,,0,0,1,,,,0,86,64
331920,note_on,,,,,0,0,1,,,,0,76,41
331920,note_off,,,,,120,0,1,,,,0,77,64
331920,note_on,,,,,0,0,2,,,,0,48,40
331920,note_off,,,,,120,0,2,,,,0,55,64
331922,set_tempo,,,,,82,1,0,262009,,,,,
331982,set_tempo,,,,,60,1,0,255319,,,,,
332000,set_tempo,,,,,18,1,0,254237,,,,,
332020,set_tempo,,,,,20,1,0,245902,,,,,
332040,note_off,,,,,120,0,1,,,,0,79,64
332040,note_off,,,,,0,0,1,,,,0,76,64
332040,note_off,,,,,120,0,2,,,,0,48,64
332040,note_on,,,,,0,0,2,,,,0,52,36
332060,set_tempo,,,,,40,1,0,243902,,,,,
332120,set_tempo,,,,,60,1,0,240000,,,,,
332160,note_on,,,,,0,0,2,,,,0,55,32
332160,note_on,,,,,120,0,1,,,,0,76,35
332160,note_off,,,,,120,0,2,,,,0,52,64
332220,set_tempo,,,,,100,1,0,235294,,,,,
332240,set_tempo,,,,,20,1,0,234375,,,,,
332280,note_off,,,,,120,0,2,,,,0,55,64
332280,note_on,,,,,0,0,2,,,,0,52,39
332280,note_off,,,,,120,0,1,,,,0,76,64
332280,note_on,,,,,0,0,1,,,,0,79,39
332380,set_tempo,,,,,140,1,0,232558,,,,,
332400,note_off,,,,,120,0,2,,,,0,52,64
332400,note_on,,,,,0,0,2,,,,0,55,37
332400,note_off,,,,,120,0,1,,,,0,79,64
332520,note_on,,,,,0,0,2,,,,0,60,34
332520,note_off,,,,,120,0,2,,,,0,55,64
332520,note_on,,,,,120,0,1,,,,0,91,39
332620,set_tempo,,,,,240,1,0,229885,,,,,
332640,note_on,,,,,0,0,2,,,,0,53,31
332640,note_off,,,,,120,0,2,,,,0,60,64
332640,note_off,,,,,120,0,1,,,,0,91,64
332640,note_on,,,,,0,0,1,,,,0,93,35
332760,note_off,,,,,120,0,2,,,,0,53,64
332760,note_off,,,,,120,0,1,,,,0,93,64
332760,note_on,,,,,0,0,2,,,,0,57,29
332880,note_on,,,,,0,0,2,,,,0,60,26
332880,note_off,,,,,120,0,2,,,,0,57,64
332880,note_on,,,,,120,0,1,,,,0,93,37
333000,note_off,,,,,120,0,1,,,,0,93,64
333000,note_on,,,,,0,0,1,,,,0,95,39
333000,note_off,,,,,120,0,2,,,,0,60,64
333000,note_on,,,,,0,0,2,,,,0,50,35
333120,note_off,,,,,120,0,2,,,,0,50,64
333120,note_on,,,,,0,0,2,,,,0,53,32
333120,set_tempo,,,,,500,1,0,231660,,,,,
333120,note_off,,,,,120,0,1,,,,0,95,64
333240,note_on,,,,,0,0,2,,,,0,60,22
333240,note_off,,,,,120,0,2,,,,0,53,64
333240,note_on,,,,,120,0,1,,,,0,95,42
333360,note_off,,,,,120,0,2,,,,0,60,64
333360,note_on,,,,,0,0,1,,,,0,96,44
333360,note_off,,,,,120,0,1,,,,0,95,64
333360,note_on,,,,,0,0,2,,,,0,52,34
333480,note_on,,,,,0,0,2,,,,0,55,31
333480,note_off,,,,,120,0,1,,,,0,96,64
333480,note_off,,,,,120,0,2,,,,0,52,64
333600,note_on,,,,,0,0,2,,,,0,60,27
333600,note_off,,,,,120,0,2,,,,0,55,64
333600,note_on,,,,,120,0,1,,,,0,96,48
333680,set_tempo,,,,,560,1,0,230769,,,,,
333720,note_off,,,,,120,0,1,,,,0,96,64
333720,note_off,,,,,120,0,2,,,,0,60,64
333720,note_on,,,,,0,0,2,,,,0,48,24
333720,note_on,,,,,0,0,1,,,,0,100,51
333840,note_off,,,,,120,0,2,,,,0,48,64
333840,note_on,,,,,0,0,2,,,,0,52,32
333840,note_off,,,,,120,0,1,,,,0,100,64
333960,note_off,,,,,120,0,2,,,,0,52,64
333960,note_on,,,,,0,0,2,,,,0,55,28
333960,note_on,,,,,120,0,1,,,,0,79,43
334080,note_on,,,,,0,0,2,,,,0,45,37
334080,note_on,,,,,0,0,1,,,,0,78,50
334080,note_off,,,,,120,0,2,,,,0,55,64
334080,note_off,,,,,120,0,1,,,,0,79,64
334080,note_on,,,,,0,0,1,,,,0,84,50
334100,set_tempo,,,,,420,1,0,232558,,,,,
334200,note_off,,,,,0,0,1,,,,0,78,64
334200,note_on,,,,,0,0,2,,,,0,48,32
334200,note_off,,,,,120,0,2,,,,0,45,64
334200,note_off,,,,,120,0,1,,,,0,84,64
334220,set_tempo,,,,,120,1,0,234375,,,,,
334240,set_tempo,,,,,20,1,0,236220,,,,,
334320,note_on,,,,,120,0,1,,,,0,78,44
334320,note_on,,,,,0,0,1,,,,0,84,44
334320,note_on,,,,,0,0,2,,,,0,55,29
334320,note_off,,,,,120,0,2,,,,0,48,64
334400,set_tempo,,,,,160,1,0,241935,,,,,
334440,note_off,,,,,120,0,2,,,,0,55,64
334440,note_on,,,,,0,0,2,,,,0,47,35
334440,note_on,,,,,0,0,1,,,,0,86,41
334440,note_on,,,,,0,0,1,,,,0,77,41
334440,note_off,,,,,120,0,1,,,,0,84,64
334440,note_off,,,,,0,0,1,,,,0,78,64
334460,set_tempo,,,,,60,1,0,242915,,,,,
334520,set_tempo,,,,,60,1,0,248963,,,,,
334560,note_off,,,,,120,0,2,,,,0,47,64
334560,note_off,,,,,0,0,1,,,,0,77,64
334560,note_off,,,,,120,0,1,,,,0,86,64
334560,note_on,,,,,0,0,2,,,,0,50,33
334660,set_tempo,,,,,140,1,0,256410,,,,,
334680,note_off,,,,,120,0,2,,,,0,50,64
334680,note_on,,,,,0,0,2,,,,0,55,30
334680,note_on,,,,,120,0,1,,,,0,86,36
334680,note_on,,,,,0,0,1,,,,0,77,36
334760,set_tempo,,,,,100,1,0,262009,,,,,
334800,note_off,,,,,0,0,1,,,,0,86,64
334800,note_off,,,,,120,0,1,,,,0,77,64
334800,note_on,,,,,0,0,1,,,,0,79,30
334800,note_on,,,,,0,0,2,,,,0,48,34
334800,note_off,,,,,120,0,2,,,,0,55,64
334800,note_on,,,,,0,0,1,,,,0,76,30
334920,note_off,,,,,120,0,1,,,,0,79,64
334920,note_off,,,,,0,0,1,,,,0,76,64
334920,set_tempo,,,,,160,1,0,256410,,,,,
334920,note_on,,,,,0,0,2,,,,0,52,31
334920,note_off,,,,,120,0,2,,,,0,48,64
335040,note_on,,,,,120,0,1,,,,0,76,37
335040,set_tempo,,,,,120,1,0,246914,,,,,
335040,note_off,,,,,120,0,2,,,,0,52,64
335040,note_on,,,,,0,0,2,,,,0,55,27
335120,set_tempo,,,,,80,1,0,242915,,,,,
335160,note_off,,,,,120,0,1,,,,0,76,64
335160,note_on,,,,,0,0,1,,,,0,79,41
335160,note_off,,,,,120,0,2,,,,0,55,64
335160,note_on,,,,,0,0,2,,,,0,52,39
335280,note_off,,,,,120,0,1,,,,0,79,64
335280,note_off,,,,,120,0,2,,,,0,52,64
335280,note_on,,,,,0,0,2,,,,0,55,37
335300,set_tempo,,,,,180,1,0,238095,,,,,
335400,set_tempo,,,,,100,1,0,234375,,,,,
335400,note_off,,,,,120,0,2,,,,0,55,64
335400,note_on,,,,,0,0,2,,,,0,60,33
335400,note_on,,,,,120,0,1,,,,0,72,34
335520,set_tempo,,,,,120,1,0,231660,,,,,
335520,note_off,,,,,120,0,1,,,,0,72,64
335520,note_off,,,,,120,0,2,,,,0,60,64
335520,note_on,,,,,0,0,2,,,,0,53,39
335520,note_on,,,,,0,0,1,,,,0,71,39
335640,note_off,,,,,120,0,1,,,,0,71,64
335640,note_off,,,,,120,0,2,,,,0,53,64
335640,note_on,,,,,0,0,2,,,,0,56,35
335660,set_tempo,,,,,140,1,0,229008,,,,,
335760,note_off,,,,,120,0,2,,,,0,56,64
335760,note_on,,,,,120,0,1,,,,0,71,33
335760,note_on,,,,,0,0,2,,,,0,60,32
335820,set_tempo,,,,,160,1,0,227273,,,,,
335880,note_off,,,,,120,0,1,,,,0,71,64
335880,note_on,,,,,0,0,1,,,,0,69,38
335880,note_on,,,,,0,0,2,,,,0,53,39
335880,note_off,,,,,120,0,2,,,,0,60,64
336000,note_off,,,,,120,0,2,,,,0,53,64
336000,note_off,,,,,120,0,1,,,,0,69,64
336000,note_on,,,,,0,0,2,,,,0,57,33
336120,note_off,,,,,120,0,2,,,,0,57,64
336120,note_on,,,,,120,0,1,,,,0,69,33
336120,note_on,,,,,0,0,2,,,,0,60,30
336240,note_on,,,,,0,0,1,,,,0,77,40
336240,note_off,,,,,120,0,1,,,,0,69,64
336240,note_on,,,,,0,0,2,,,,0,50,37
336240,note_off,,,,,120,0,2,,,,0,60,64
336360,note_off,,,,,120,0,1,,,,0,77,64
336360,note_on,,,,,0,0,2,,,,0,57,35
336360,note_off,,,,,120,0,2,,,,0,50,64
336480,note_on,,,,,120,0,1,,,,0,77,36
336480,note_on,,,,,0,0,2,,,,0,62,31
336480,note_off,,,,,120,0,2,,,,0,57,64
336600,note_on,,,,,0,0,2,,,,0,55,40
336600,note_on,,,,,0,0,1,,,,0,71,42
336600,note_off,,,,,120,0,1,,,,0,77,64
336600,note_off,,,,,120,0,2,,,,0,62,64
336720,note_on,,,,,0,0,2,,,,0,59,34
336720,note_off,,,,,120,0,2,,,,0,55,64
336720,note_off,,,,,120,0,1,,,,0,71,64
336840,note_on,,,,,0,0,2,,,,0,62,31
336840,note_off,,,,,120,0,2,,,,0,59,64
336840,note_on,,,,,120,0,1,,,,0,71,36
336862,set_tempo,,,,,1042,1,0,229008,,,,,
336900,set_tempo,,,,,38,1,0,229885,,,,,
336960,note_on,,,,,0,0,1,,,,0,79,43
336960,note_off,,,,,120,0,2,,,,0,62,64
336960,note_on,,,,,0,0,2,,,,0,52,40
336960,note_off,,,,,120,0,1,,,,0,71,64
337080,note_off,,,,,120,0,1,,,,0,79,64
337080,note_off,,,,,120,0,2,,,,0,52,64
337080,note_on,,,,,0,0,2,,,,0,55,38
337140,set_tempo,,,,,240,1,0,230769,,,,,
337160,set_tempo,,,,,20,1,0,231660,,,,,
337200,note_on,,,,,0,0,2,,,,0,60,33
337200,note_off,,,,,120,0,2,,,,0,55,64
337200,note_on,,,,,120,0,1,,,,0,79,41
337280,set_tempo,,,,,120,1,0,243902,,,,,
337320,note_on,,,,,0,0,1,,,,0,80,51
337320,note_off,,,,,120,0,1,,,,0,79,64
337320,control_change,,,,,0,0,1,,64,95,0,,
337320,note_on,,,,,0,0,2,,,,0,51,49
337320,note_off,,,,,120,0,2,,,,0,60,64
337440,note_off,,,,,120,0,1,,,,0,80,64
337440,note_off,,,,,120,0,2,,,,0,51,64
337440,note_on,,,,,0,0,2,,,,0,54,46
337560,note_off,,,,,120,0,2,,,,0,54,64
337560,note_on,,,,,120,0,1,,,,0,80,46
337560,note_on,,,,,0,0,2,,,,0,60,43
337672,control_change,,,,,112,0,1,,64,0,0,,
337680,note_off,,,,,8,0,1,,,,0,80,64
337680,note_on,,,,,0,0,1,,,,0,79,42
337680,note_off,,,,,120,0,2,,,,0,60,64
337680,note_on,,,,,0,0,2,,,,0,52,39
337682,set_tempo,,,,,402,1,0,227273,,,,,
337800,note_off,,,,,120,0,1,,,,0,79,64
337800,note_off,,,,,120,0,2,,,,0,52,64
337800,note_on,,,,,0,0,2,,,,0,55,35
337920,note_off,,,,,120,0,2,,,,0,55,64
337920,note_on,,,,,0,0,2,,,,0,60,31
337920,note_on,,,,,120,0,1,,,,0,79,38
337962,set_tempo,,,,,280,1,0,225564,,,,,
338040,note_off,,,,,120,0,2,,,,0,60,64
338040,note_on,,,,,0,0,2,,,,0,52,39
338040,note_off,,,,,120,0,1,,,,0,79,64
338040,note_on,,,,,0,0,1,,,,0,84,36
338082,set_tempo,,,,,120,1,0,224719,,,,,
338160,note_off,,,,,120,0,1,,,,0,84,64
338160,note_on,,,,,0,0,2,,,,0,55,35
338160,note_off,,,,,120,0,2,,,,0,52,64
338280,note_on,,,,,0,0,2,,,,0,60,31
338280,note_off,,,,,120,0,2,,,,0,55,64
338280,note_on,,,,,120,0,1,,,,0,84,36
338400,note_on,,,,,0,0,2,,,,0,53,39
338400,note_off,,,,,120,0,2,,,,0,60,64
338400,note_on,,,,,0,0,1,,,,0,83,39
338400,note_off,,,,,120,0,1,,,,0,84,64
338520,note_off,,,,,120,0,1,,,,0,83,64
338520,note_on,,,,,0,0,2,,,,0,56,35
338520,note_off,,,,,120,0,2,,,,0,53,64
338640,note_on,,,,,0,0,2,,,,0,60,32
338640,note_off,,,,,120,0,2,,,,0,56,64
338640,note_on,,,,,120,0,1,,,,0,83,40
338760,note_on,,,,,0,0,1,,,,0,81,42
338760,note_off,,,,,120,0,2,,,,0,60,64
338760,note_on,,,,,0,0,2,,,,0,53,35
338760,note_off,,,,,120,0,1,,,,0,83,64
338880,note_off,,,,,120,0,1,,,,0,81,64
338880,note_off,,,,,120,0,2,,,,0,53,64
338880,note_on,,,,,0,0,2,,,,0,57,40
339000,note_off,,,,,120,0,2,,,,0,57,64
339000,note_on,,,,,0,0,2,,,,0,60,46
339000,note_on,,,,,120,0,1,,,,0,81,48
339042,set_tempo,,,,,960,1,0,222222,,,,,
339120,note_on,,,,,0,0,2,,,,0,50,53
339120,note_off,,,,,120,0,1,,,,0,81,64
339120,note_on,,,,,0,0,1,,,,0,89,48
339120,note_off,,,,,120,0,2,,,,0,60,64
339240,note_off,,,,,120,0,1,,,,0,89,64
339240,note_off,,,,,120,0,2,,,,0,50,64
339240,note_on,,,,,0,0,2,,,,0,57,48
339360,note_on,,,,,120,0,1,,,,0,89,46
339360,note_on,,,,,0,0,2,,,,0,62,39
339360,note_off,,,,,120,0,2,,,,0,57,64
339480,note_off,,,,,120,0,2,,,,0,62,64
339480,note_on,,,,,0,0,2,,,,0,55,45
339480,note_off,,,,,120,0,1,,,,0,89,64
339480,note_on,,,,,0,0,1,,,,0,83,50
339600,note_off,,,,,120,0,2,,,,0,55,64
339600,note_on,,,,,0,0,2,,,,0,62,47
339600,note_off,,,,,120,0,1,,,,0,83,64
339720,note_on,,,,,0,0,2,,,,0,65,55
339720,note_off,,,,,120,0,2,,,,0,62,64
339720,note_on,,,,,120,0,1,,,,0,83,65
339840,note_off,,,,,120,0,1,,,,0,83,64
339840,note_on,,,,,0,0,1,,,,0,84,68
339840,note_off,,,,,120,0,2,,,,0,65,64
339840,note_on,,,,,0,0,2,,,,0,48,68
339846,control_change,,,,,6,0,1,,64,96,0,,
339960,note_off,,,,,114,0,1,,,,0,84,64
339960,note_on,,,,,0,0,2,,,,0,52,65
339960,note_off,,,,,120,0,2,,,,0,48,64
340080,note_off,,,,,120,0,2,,,,0,52,64
340080,note_on,,,,,120,0,1,,,,0,96,67
340080,note_on,,,,,0,0,2,,,,0,55,63
340200,note_off,,,,,120,0,1,,,,0,96,64
340200,note_on,,,,,0,0,1,,,,0,92,63
340200,note_off,,,,,120,0,2,,,,0,55,64
340200,note_on,,,,,0,0,2,,,,0,48,60
340206,control_change,,,,,6,0,1,,64,0,0,,
340320,note_on,,,,,0,0,2,,,,0,51,56
340320,note_off,,,,,120,0,2,,,,0,48,64
340320,note_off,,,,,114,0,1,,,,0,92,64
340440,note_on,,,,,120,0,1,,,,0,92,55
340440,note_off,,,,,120,0,2,,,,0,51,64
340440,note_on,,,,,0,0,2,,,,0,54,52
340560,note_off,,,,,120,0,2,,,,0,54,64
340560,note_on,,,,,0,0,1,,,,0,91,60
340560,note_on,,,,,0,0,2,,,,0,48,54
340560,note_off,,,,,120,0,1,,,,0,92,64
340680,note_off,,,,,120,0,2,,,,0,48,64
340680,note_on,,,,,0,0,2,,,,0,52,48
340680,note_off,,,,,120,0,1,,,,0,91,64
340800,note_off,,,,,120,0,2,,,,0,52,64
340800,note_on,,,,,0,0,2,,,,0,55,47
340800,note_on,,,,,120,0,1,,,,0,91,54
340920,note_off,,,,,120,0,2,,,,0,55,64
340920,note_on,,,,,0,0,2,,,,0,48,46
340920,note_on,,,,,0,0,1,,,,0,85,62
340920,note_off,,,,,120,0,1,,,,0,91,64
341040,note_off,,,,,120,0,1,,,,0,85,64
341040,note_off,,,,,120,0,2,,,,0,48,64
341040,note_on,,,,,0,0,2,,,,0,53,55
341160,note_off,,,,,120,0,2,,,,0,53,64
341160,note_on,,,,,0,0,2,,,,0,56,51
341160,note_on,,,,,120,0,1,,,,0,85,57
341280,note_off,,,,,120,0,2,,,,0,56,64
341280,note_on,,,,,0,0,2,,,,0,48,59
341280,note_on,,,,,0,0,1,,,,0,84,49
341280,note_off,,,,,120,0,1,,,,0,85,64
341286,control_change,,,,,6,0,1,,64,96,0,,
341400,note_on,,,,,0,0,2,,,,0,52,56
341400,note_off,,,,,120,0,2,,,,0,48,64
341400,note_off,,,,,114,0,1,,,,0,84,64
341520,note_off,,,,,120,0,2,,,,0,52,64
341520,note_on,,,,,120,0,1,,,,0,84,48
341520,note_on,,,,,0,0,2,,,,0,55,53
341640,note_off,,,,,120,0,2,,,,0,55,64
341640,note_on,,,,,0,0,2,,,,0,48,50
341640,note_off,,,,,120,0,1,,,,0,84,64
341640,note_on,,,,,0,0,1,,,,0,80,44
341646,control_change,,,,,6,0,1,,64,0,0,,
341760,note_off,,,,,120,0,2,,,,0,48,64
341760,note_off,,,,,114,0,1,,,,0,80,64
341760,note_on,,,,,0,0,2,,,,0,51,48
341880,note_off,,,,,120,0,2,,,,0,51,64
341880,note_on,,,,,0,0,2,,,,0,54,47
341880,note_on,,,,,120,0,1,,,,0,80,44
342000,note_on,,,,,0,0,1,,,,0,79,42
342000,note_off,,,,,120,0,1,,,,0,80,64
342000,note_off,,,,,120,0,2,,,,0,54,64
342000,note_on,,,,,0,0,2,,,,0,48,44
342120,note_off,,,,,120,0,1,,,,0,79,64
342120,note_off,,,,,120,0,2,,,,0,48,64
342120,note_on,,,,,0,0,2,,,,0,52,42
342240,note_on,,,,,120,0,1,,,,0,79,39
342240,note_on,,,,,0,0,2,,,,0,55,38
342240,note_off,,,,,120,0,2,,,,0,52,64
342342,set_tempo,,,,,3300,1,0,224719,,,,,
342360,note_off,,,,,120,0,1,,,,0,79,64
342360,note_off,,,,,120,0,2,,,,0,55,64
342360,note_on,,,,,0,0,2,,,,0,48,47
342360,note_on,,,,,0,0,1,,,,0,73,49
342480,note_off,,,,,120,0,2,,,,0,48,64
342480,note_off,,,,,120,0,1,,,,0,73,64
342480,note_on,,,,,0,0,2,,,,0,53,46
342562,set_tempo,,,,,220,1,0,225564,,,,,
342600,note_on,,,,,120,0,1,,,,0,73,44
342600,note_off,,,,,120,0,2,,,,0,53,64
342600,note_on,,,,,0,0,2,,,,0,56,41
342720,note_on,,,,,0,0,1,,,,0,72,41
342720,note_on,,,,,0,0,2,,,,0,48,52
342720,note_off,,,,,120,0,2,,,,0,56,64
342720,note_off,,,,,120,0,1,,,,0,73,64
342726,control_change,,,,,6,0,1,,64,96,0,,
342840,note_off,,,,,114,0,1,,,,0,72,64
342840,note_on,,,,,0,0,2,,,,0,52,49
342840,note_off,,,,,120,0,2,,,,0,48,64
342960,note_on,,,,,120,0,1,,,,0,72,39
342960,note_off,,,,,120,0,2,,,,0,52,64
342960,note_on,,,,,0,0,2,,,,0,55,47
343080,note_on,,,,,0,0,1,,,,0,68,35
343080,note_on,,,,,0,0,2,,,,0,48,42
343080,note_off,,,,,120,0,1,,,,0,72,64
343080,note_off,,,,,120,0,2,,,,0,55,64
343086,control_change,,,,,6,0,1,,64,0,0,,
343200,note_on,,,,,0,0,2,,,,0,51,40
343200,note_off,,,,,120,0,2,,,,0,48,64
343200,note_off,,,,,114,0,1,,,,0,68,64
343320,note_on,,,,,120,0,1,,,,0,68,31
343320,note_on,,,,,0,0,2,,,,0,54,36
343320,note_off,,,,,120,0,2,,,,0,51,64
343362,set_tempo,,,,,800,1,0,227273,,,,,
343440,note_off,,,,,120,0,2,,,,0,54,64
343440,note_on,,,,,0,0,2,,,,0,48,33
343440,note_off,,,,,120,0,1,,,,0,68,64
343440,note_on,,,,,0,0,1,,,,0,67,33
343560,note_off,,,,,120,0,2,,,,0,48,64
343560,note_off,,,,,120,0,1,,,,0,67,64
343560,note_on,,,,,0,0,2,,,,0,52,33
343680,note_on,,,,,120,0,1,,,,0,67,36
343680,note_off,,,,,120,0,2,,,,0,52,64
343680,note_on,,,,,0,0,2,,,,0,55,31
343682,set_tempo,,,,,320,1,0,229885,,,,,
343800,note_off,,,,,120,0,1,,,,0,67,64
343800,note_on,,,,,0,0,1,,,,0,61,45
343800,note_on,,,,,0,0,2,,,,0,48,39
343800,note_off,,,,,120,0,2,,,,0,55,64
343920,note_off,,,,,120,0,2,,,,0,48,64
343920,note_off,,,,,120,0,1,,,,0,61,64
343920,note_on,,,,,0,0,2,,,,0,53,37
344040,note_on,,,,,120,0,1,,,,0,61,40
344040,note_on,,,,,0,0,2,,,,0,56,33
344040,note_off,,,,,120,0,2,,,,0,53,64
344160,note_on,,,,,0,0,1,,,,0,60,51
344160,note_off,,,,,120,0,1,,,,0,61,64
344160,note_off,,,,,120,0,2,,,,0,56,64
344160,note_on,,,,,0,0,2,,,,0,48,39
344280,note_off,,,,,120,0,1,,,,0,60,64
344280,note_off,,,,,120,0,2,,,,0,48,64
344280,note_on,,,,,0,0,2,,,,0,52,46
344300,set_tempo,,,,,618,1,0,232558,,,,,
344400,note_on,,,,,120,0,1,,,,0,60,41
344400,note_off,,,,,120,0,2,,,,0,52,64
344400,note_on,,,,,0,0,2,,,,0,55,49
344520,note_off,,,,,120,0,2,,,,0,55,64
344520,note_on,,,,,0,0,2,,,,0,48,53
344520,note_on,,,,,0,0,1,,,,0,61,55
344520,note_off,,,,,120,0,1,,,,0,60,64
344640,note_off,,,,,120,0,2,,,,0,48,64
344640,note_on,,,,,0,0,2,,,,0,53,59
344640,note_off,,,,,120,0,1,,,,0,61,64
344760,note_on,,,,,0,0,2,,,,0,56,63
344760,note_off,,,,,120,0,2,,,,0,53,64
344760,note_on,,,,,120,0,1,,,,0,61,47
344780,set_tempo,,,,,480,1,0,236220,,,,,
344880,note_on,,,,,0,0,1,,,,0,60,65
344880,note_on,,,,,0,0,2,,,,0,48,66
344880,note_off,,,,,120,0,1,,,,0,61,64
344880,note_off,,,,,120,0,2,,,,0,56,64
345000,set_tempo,,,,,220,1,0,240964,,,,,
345000,note_off,,,,,120,0,2,,,,0,48,64
345000,note_on,,,,,0,0,2,,,,0,52,69
345000,note_off,,,,,120,0,1,,,,0,60,64
345120,note_on,,,,,0,0,2,,,,0,55,74
345120,note_on,,,,,120,0,1,,,,0,60,52
345120,note_off,,,,,120,0,2,,,,0,52,64
345200,set_tempo,,,,,200,1,0,243902,,,,,
345240,note_off,,,,,120,0,2,,,,0,55,64
345240,note_on,,,,,0,0,2,,,,0,49,95
345240,control_change,,,,,0,0,1,,64,95,0,,
345240,note_on,,,,,0,0,1,,,,0,61,96
345240,note_off,,,,,120,0,1,,,,0,60,64
345320,set_tempo,,,,,120,1,0,265487,,,,,
345330,note_off,,,,,90,0,2,,,,0,49,64
345330,note_off,,,,,90,0,1,,,,0,61,64
345400,set_tempo,,,,,80,1,0,281690,,,,,
345440,set_tempo,,,,,40,1,0,283019,,,,,
345480,note_on,,,,,150,0,1,,,,0,61,116
345480,set_tempo,,,,,40,1,0,298507,,,,,
345480,note_on,,,,,150,0,2,,,,0,49,113
345540,set_tempo,,,,,60,1,0,322581,,,,,
345542,set_tempo,,,,,2,1,0,337079,,,,,
345570,note_off,,,,,90,0,2,,,,0,49,64
345570,note_off,,,,,90,0,1,,,,0,61,64
345592,control_change,,,,,22,0,1,,64,0,0,,
345600,note_on,,,,,0,0,2,,,,0,49,127
345600,control_change,,,,,0,0,1,,64,95,0,,
345600,note_on,,,,,30,0,2,,,,0,37,127
345600,note_on,,,,,8,0,1,,,,0,61,127
345682,set_tempo,,,,,140,1,0,229008,,,,,
346920,note_off,,,,,1320,0,2,,,,0,49,64
346980,note_off,,,,,1380,0,1,,,,0,61,64
346982,set_tempo,,,,,1300,1,0,384615,,,,,
347026,control_change,,,,,46,0,1,,64,0,0,,
347040,note_on,,,,,0,0,2,,,,0,54,61
347040,note_off,,,,,120,0,2,,,,0,37,64
347040,note_on,,,,,0,0,2,,,,0,60,61
347040,note_on,,,,,14,0,1,,,,0,62,62
347040,note_on,,,,,0,0,2,,,,0,56,61
347040,note_on,,,,,0,0,2,,,,0,49,61
347042,set_tempo,,,,,60,1,0,243902,,,,,
347130,note_off,,,,,90,0,2,,,,0,49,64
347130,note_off,,,,,0,0,2,,,,0,54,64
347130,note_off,,,,,0,0,2,,,,0,56,64
347130,note_off,,,,,0,0,2,,,,0,60,64
347130,note_off,,,,,90,0,1,,,,0,62,64
347142,set_tempo,,,,,100,1,0,242915,,,,,
347160,note_on,,,,,30,0,1,,,,0,63,66
347160,note_on,,,,,30,0,2,,,,0,60,66
347160,note_on,,,,,0,0,2,,,,0,56,66
347160,note_on,,,,,0,0,2,,,,0,54,66
347160,note_on,,,,,0,0,2,,,,0,49,66
347202,set_tempo,,,,,60,1,0,241935,,,,,
347250,note_off,,,,,0,0,2,,,,0,60,64
347250,note_off,,,,,90,0,1,,,,0,63,64
347250,note_off,,,,,90,0,2,,,,0,49,64
347250,note_off,,,,,0,0,2,,,,0,54,64
347250,note_off,,,,,0,0,2,,,,0,56,64
347280,note_on,,,,,30,0,1,,,,0,65,72
347280,note_on,,,,,30,0,2,,,,0,60,72
347280,note_on,,,,,0,0,2,,,,0,56,72
347280,note_on,,,,,0,0,2,,,,0,54,72
347280,note_on,,,,,0,0,2,,,,0,49,72
347282,set_tempo,,,,,80,1,0,240964,,,,,
347362,set_tempo,,,,,80,1,0,240000,,,,,
347370,note_off,,,,,0,0,2,,,,0,60,64
347370,note_off,,,,,0,0,2,,,,0,56,64
347370,note_off,,,,,0,0,2,,,,0,54,64
347370,note_off,,,,,90,0,2,,,,0,49,64
347370,note_off,,,,,90,0,1,,,,0,65,64
347400,note_on,,,,,30,0,1,,,,0,66,75
347400,note_on,,,,,0,0,2,,,,0,49,76
347400,note_on,,,,,0,0,2,,,,0,54,76
347400,note_on,,,,,0,0,2,,,,0,56,76
347400,note_on,,,,,30,0,2,,,,0,60,76
347442,set_tempo,,,,,80,1,0,238095,,,,,
347490,note_off,,,,,0,0,2,,,,0,60,64
347490,note_off,,,,,0,0,2,,,,0,56,64
347490,note_off,,,,,0,0,2,,,,0,54,64
347490,note_off,,,,,90,0,1,,,,0,66,64
347490,note_off,,,,,90,0,2,,,,0,49,64
347502,set_tempo,,,,,60,1,0,237154,,,,,
347520,note_on,,,,,30,0,2,,,,0,60,81
347520,note_on,,,,,0,0,2,,,,0,54,81
347520,note_on,,,,,0,0,2,,,,0,56,81
347520,note_on,,,,,30,0,1,,,,0,68,83
347520,note_on,,,,,0,0,2,,,,0,49,81
347582,set_tempo,,,,,80,1,0,236220,,,,,
347610,note_off,,,,,0,0,2,,,,0,54,64
347610,note_off,,,,,0,0,2,,,,0,60,64
347610,note_off,,,,,0,0,2,,,,0,56,64
347610,note_off,,,,,90,0,2,,,,0,49,64
347610,note_off,,,,,90,0,1,,,,0,68,64
347640,note_on,,,,,0,0,2,,,,0,56,87
347640,note_on,,,,,0,0,2,,,,0,54,87
347640,note_on,,,,,0,0,2,,,,0,49,87
347640,note_on,,,,,30,0,2,,,,0,60,87
347640,note_on,,,,,30,0,1,,,,0,70,85
347682,set_tempo,,,,,100,1,0,235294,,,,,
347730,note_off,,,,,90,0,1,,,,0,70,64
347730,note_off,,,,,0,0,2,,,,0,56,64
347730,note_off,,,,,0,0,2,,,,0,60,64
347730,note_off,,,,,0,0,2,,,,0,54,64
347730,note_off,,,,,90,0,2,,,,0,49,64
347742,set_tempo,,,,,60,1,0,234375,,,,,
347760,note_on,,,,,30,0,1,,,,0,72,93
347760,note_on,,,,,30,0,2,,,,0,60,92
347760,note_on,,,,,0,0,2,,,,0,56,92
347760,note_on,,,,,0,0,2,,,,0,54,92
347760,note_on,,,,,0,0,2,,,,0,49,92
347822,set_tempo,,,,,80,1,0,232558,,,,,
347850,note_off,,,,,90,0,1,,,,0,72,64
347850,note_off,,,,,90,0,2,,,,0,49,64
347850,note_off,,,,,0,0,2,,,,0,54,64
347850,note_off,,,,,0,0,2,,,,0,56,64
347850,note_off,,,,,0,0,2,,,,0,60,64
347880,note_on,,,,,30,0,2,,,,0,60,95
347880,note_on,,,,,0,0,2,,,,0,54,95
347880,note_on,,,,,0,0,2,,,,0,49,95
347880,note_on,,,,,30,0,1,,,,0,73,99
347880,note_on,,,,,0,0,2,,,,0,56,95
347922,set_tempo,,,,,100,1,0,231660,,,,,
347962,set_tempo,,,,,40,1,0,230769,,,,,
347970,note_off,,,,,90,0,2,,,,0,49,64
347970,note_off,,,,,90,0,1,,,,0,73,64
347970,note_off,,,,,0,0,2,,,,0,60,64
347970,note_off,,,,,0,0,2,,,,0,56,64
347970,note_off,,,,,0,0,2,,,,0,54,64
348000,note_on,,,,,0,0,2,,,,0,56,99
348000,note_on,,,,,30,0,2,,,,0,60,99
348000,note_on,,,,,0,0,2,,,,0,54,99
348000,note_on,,,,,30,0,1,,,,0,75,107
348000,note_on,,,,,0,0,2,,,,0,49,99
348022,set_tempo,,,,,60,1,0,229885,,,,,
348090,note_off,,,,,90,0,1,,,,0,75,64
348090,note_off,,,,,90,0,2,,,,0,49,64
348090,note_off,,,,,0,0,2,,,,0,54,64
348090,note_off,,,,,0,0,2,,,,0,56,64
348090,note_off,,,,,0,0,2,,,,0,60,64
348120,note_on,,,,,30,0,1,,,,0,77,111
348120,note_on,,,,,30,0,2,,,,0,60,104
348120,note_on,,,,,0,0,2,,,,0,56,104
348120,note_on,,,,,0,0,2,,,,0,49,104
348120,note_on,,,,,0,0,2,,,,0,54,104
348122,set_tempo,,,,,100,1,0,229008,,,,,
348210,note_off,,,,,90,0,1,,,,0,77,64
348210,note_off,,,,,0,0,2,,,,0,60,64
348210,note_off,,,,,90,0,2,,,,0,49,64
348210,note_off,,,,,0,0,2,,,,0,56,64
348210,note_off,,,,,0,0,2,,,,0,54,64
348222,set_tempo,,,,,100,1,0,227273,,,,,
348240,note_on,,,,,30,0,1,,,,0,78,119
348240,note_on,,,,,30,0,2,,,,0,60,109
348240,note_on,,,,,0,0,2,,,,0,56,109
348240,note_on,,,,,0,0,2,,,,0,54,109
348240,note_on,,,,,0,0,2,,,,0,49,109
348302,set_tempo,,,,,80,1,0,229008,,,,,
348330,note_off,,,,,90,0,2,,,,0,49,64
348330,note_off,,,,,0,0,2,,,,0,60,64
348330,note_off,,,,,0,0,2,,,,0,56,64
348330,note_off,,,,,90,0,1,,,,0,78,64
348330,note_off,,,,,0,0,2,,,,0,54,64
348342,set_tempo,,,,,40,1,0,227273,,,,,
348360,note_on,,,,,30,0,1,,,,0,80,124
348360,note_on,,,,,30,0,2,,,,0,60,118
348360,note_on,,,,,0,0,2,,,,0,56,118
348360,note_on,,,,,0,0,2,,,,0,54,118
348360,note_on,,,,,0,0,2,,,,0,49,118
348450,note_off,,,,,0,0,2,,,,0,60,64
348450,note_off,,,,,90,0,2,,,,0,49,64
348450,note_off,,,,,0,0,2,,,,0,54,64
348450,note_off,,,,,90,0,1,,,,0,80,64
348450,note_off,,,,,0,0,2,,,,0,56,64
348480,note_on,,,,,0,0,2,,,,0,53,126
348480,note_on,,,,,30,0,2,,,,0,49,126
348480,control_change,,,,,0,0,1,,64,96,0,,
348480,note_on,,,,,30,0,1,,,,0,85,127
348480,note_on,,,,,0,0,2,,,,0,56,126
348480,note_on,,,,,0,0,2,,,,0,61,126
348482,set_tempo,,,,,140,1,0,250000,,,,,
348660,note_off,,,,,180,0,1,,,,0,85,64
348660,note_off,,,,,0,0,2,,,,0,49,64
348660,note_off,,,,,180,0,2,,,,0,61,64
348660,note_off,,,,,0,0,2,,,,0,56,64
348660,note_off,,,,,0,0,2,,,,0,53,64
348702,set_tempo,,,,,220,1,0,263158,,,,,
348780,control_change,,,,,120,0,1,,64,0,0,,
348822,set_tempo,,,,,120,1,0,240000,,,,,
348840,note_on,,,,,60,0,1,,,,0,61,127
348840,control_change,,,,,0,0,1,,64,95,0,,
348840,note_on,,,,,0,0,2,,,,0,37,126
348840,note_on,,,,,180,0,2,,,,0,49,126
349440,control_change,,,,,600,0,1,,64,0,0,,
349500,note_off,,,,,0,0,2,,,,0,49,64
349500,note_off,,,,,660,0,2,,,,0,37,64
349500,note_off,,,,,60,0,1,,,,0,61,64
349560,note_on,,,,,0,0,1,,,,0,54,124
349560,note_on,,,,,60,0,1,,,,0,61,124
349560,note_on,,,,,0,0,1,,,,0,57,124
349560,note_on,,,,,60,0,2,,,,0,42,127
349560,note_on,,,,,0,0,2,,,,0,49,127
349560,control_change,,,,,0,0,1,,64,96,0,,
349802,set_tempo,,,,,980,1,0,337079,,,,,
349830,note_off,,,,,270,0,1,,,,0,54,64
349830,note_off,,,,,0,0,1,,,,0,57,64
349830,note_off,,,,,270,0,2,,,,0,49,64
349830,note_off,,,,,0,0,2,,,,0,42,64
349830,note_off,,,,,0,0,1,,,,0,61,64
349860,note_on,,,,,30,0,2,,,,0,42,100
349860,note_on,,,,,0,0,2,,,,0,49,100
349860,note_on,,,,,0,0,1,,,,0,61,101
349860,note_on,,,,,30,0,1,,,,0,54,101
349860,note_on,,,,,0,0,1,,,,0,57,101
349910,note_off,,,,,0,0,1,,,,0,54,64
349910,note_off,,,,,0,0,1,,,,0,57,64
349910,note_off,,,,,0,0,2,,,,0,42,64
349910,note_off,,,,,50,0,2,,,,0,49,64
349910,note_off,,,,,50,0,1,,,,0,61,64
349912,control_change,,,,,2,0,1,,64,0,0,,
349920,note_on,,,,,0,0,1,,,,0,53,119
349920,note_on,,,,,8,0,1,,,,0,56,119
349920,control_change,,,,,0,0,1,,64,95,0,,
349936,note_on,,,,,16,0,1,,,,0,61,119
349936,note_on,,,,,26,0,2,,,,0,37,117
349936,note_on,,,,,0,0,2,,,,0,49,117
350002,set_tempo,,,,,200,1,0,229008,,,,,
351256,note_off,,,,,1320,0,2,,,,0,49,64
351300,note_off,,,,,1364,0,1,,,,0,53,64
351300,note_off,,,,,0,0,1,,,,0,56,64
351302,set_tempo,,,,,1300,1,0,384615,,,,,
351316,note_off,,,,,16,0,1,,,,0,61,64
351346,control_change,,,,,30,0,1,,64,0,0,,
351360,note_on,,,,,0,0,2,,,,0,49,64
351360,note_on,,,,,104,0,2,,,,0,60,64
351360,note_on,,,,,0,0,2,,,,0,56,64
351360,note_on,,,,,0,0,2,,,,0,54,64
351360,note_on,,,,,14,0,1,,,,0,62,62
351362,set_tempo,,,,,60,1,0,243902,,,,,
351376,note_off,,,,,16,0,2,,,,0,37,64
351450,note_off,,,,,0,0,2,,,,0,60,64
351450,note_off,,,,,0,0,2,,,,0,56,64
351450,note_off,,,,,90,0,1,,,,0,62,64
351450,note_off,,,,,74,0,2,,,,0,49,64
351450,note_off,,,,,0,0,2,,,,0,54,64
351462,set_tempo,,,,,100,1,0,242915,,,,,
351480,note_on,,,,,0,0,2,,,,0,54,67
351480,note_on,,,,,0,0,2,,,,0,56,67
351480,note_on,,,,,30,0,2,,,,0,60,67
351480,note_on,,,,,30,0,1,,,,0,63,66
351480,note_on,,,,,0,0,2,,,,0,49,67
351522,set_tempo,,,,,60,1,0,241935,,,,,
351570,note_off,,,,,90,0,2,,,,0,49,64
351570,note_off,,,,,0,0,2,,,,0,54,64
351570,note_off,,,,,90,0,1,,,,0,63,64
351570,note_off,,,,,0,0,2,,,,0,56,64
351570,note_off,,,,,0,0,2,,,,0,60,64
351600,note_on,,,,,0,0,2,,,,0,49,72
351600,note_on,,,,,30,0,1,,,,0,65,71
351600,note_on,,,,,30,0,2,,,,0,60,72
351600,note_on,,,,,0,0,2,,,,0,56,72
351600,note_on,,,,,0,0,2,,,,0,54,72
351602,set_tempo,,,,,80,1,0,240964,,,,,
351682,set_tempo,,,,,80,1,0,240000,,,,,
351690,note_off,,,,,90,0,2,,,,0,49,64
351690,note_off,,,,,0,0,2,,,,0,56,64
351690,note_off,,,,,0,0,2,,,,0,60,64
351690,note_off,,,,,90,0,1,,,,0,65,64
351690,note_off,,,,,0,0,2,,,,0,54,64
351720,note_on,,,,,30,0,1,,,,0,66,75
351720,note_on,,,,,30,0,2,,,,0,60,77
351720,note_on,,,,,0,0,2,,,,0,56,77
351720,note_on,,,,,0,0,2,,,,0,54,77
351720,note_on,,,,,0,0,2,,,,0,49,77
351762,set_tempo,,,,,80,1,0,238095,,,,,
351810,note_off,,,,,0,0,2,,,,0,60,64
351810,note_off,,,,,0,0,2,,,,0,54,64
351810,note_off,,,,,90,0,1,,,,0,66,64
351810,note_off,,,,,0,0,2,,,,0,56,64
351810,note_off,,,,,90,0,2,,,,0,49,64
351822,set_tempo,,,,,60,1,0,237154,,,,,
351840,note_on,,,,,30,0,2,,,,0,60,83
351840,note_on,,,,,0,0,2,,,,0,54,83
351840,note_on,,,,,0,0,2,,,,0,49,83
351840,note_on,,,,,0,0,2,,,,0,56,83
351840,note_on,,,,,30,0,1,,,,0,68,80
351902,set_tempo,,,,,80,1,0,236220,,,,,
351930,note_off,,,,,90,0,1,,,,0,68,64
351930,note_off,,,,,90,0,2,,,,0,49,64
351930,note_off,,,,,0,0,2,,,,0,54,64
351930,note_off,,,,,0,0,2,,,,0,56,64
351930,note_off,,,,,0,0,2,,,,0,60,64
351960,note_on,,,,,30,0,1,,,,0,70,83
351960,note_on,,,,,0,0,2,,,,0,49,85
351960,note_on,,,,,0,0,2,,,,0,54,85
351960,note_on,,,,,0,0,2,,,,0,56,85
351960,note_on,,,,,30,0,2,,,,0,60,85
352002,set_tempo,,,,,100,1,0,235294,,,,,
352050,note_off,,,,,0,0,2,,,,0,56,64
352050,note_off,,,,,0,0,2,,,,0,54,64
352050,note_off,,,,,90,0,2,,,,0,49,64
352050,note_off,,,,,0,0,2,,,,0,60,64
352050,note_off,,,,,90,0,1,,,,0,70,64
352062,set_tempo,,,,,60,1,0,234375,,,,,
352080,note_on,,,,,30,0,2,,,,0,60,91
352080,note_on,,,,,30,0,1,,,,0,72,89
352080,note_on,,,,,0,0,2,,,,0,56,91
352080,note_on,,,,,0,0,2,,,,0,54,91
352080,note_on,,,,,0,0,2,,,,0,49,91
352142,set_tempo,,,,,80,1,0,232558,,,,,
352170,note_off,,,,,90,0,1,,,,0,72,64
352170,note_off,,,,,90,0,2,,,,0,49,64
352170,note_off,,,,,0,0,2,,,,0,54,64
352170,note_off,,,,,0,0,2,,,,0,56,64
352170,note_off,,,,,0,0,2,,,,0,60,64
352200,note_on,,,,,0,0,2,,,,0,49,97
352200,note_on,,,,,0,0,2,,,,0,54,97
352200,note_on,,,,,0,0,2,,,,0,56,97
352200,note_on,,,,,30,0,2,,,,0,60,97
352200,note_on,,,,,30,0,1,,,,0,73,94
352242,set_tempo,,,,,100,1,0,231660,,,,,
352282,set_tempo,,,,,40,1,0,230769,,,,,
352290,note_off,,,,,90,0,2,,,,0,49,64
352290,note_off,,,,,0,0,2,,,,0,54,64
352290,note_off,,,,,0,0,2,,,,0,56,64
352290,note_off,,,,,0,0,2,,,,0,60,64
352290,note_off,,,,,90,0,1,,,,0,73,64
352320,note_on,,,,,30,0,2,,,,0,60,99
352320,note_on,,,,,0,0,2,,,,0,56,99
352320,note_on,,,,,0,0,2,,,,0,54,99
352320,note_on,,,,,0,0,2,,,,0,49,99
352320,note_on,,,,,30,0,1,,,,0,75,102
352342,set_tempo,,,,,60,1,0,229885,,,,,
352410,note_off,,,,,90,0,2,,,,0,49,64
352410,note_off,,,,,90,0,1,,,,0,75,64
352410,note_off,,,,,0,0,2,,,,0,54,64
352410,note_off,,,,,0,0,2,,,,0,56,64
352410,note_off,,,,,0,0,2,,,,0,60,64
352440,note_on,,,,,30,0,1,,,,0,77,106
352440,note_on,,,,,30,0,2,,,,0,60,105
352440,note_on,,,,,0,0,2,,,,0,56,105
352440,note_on,,,,,0,0,2,,,,0,54,105
352440,note_on,,,,,0,0,2,,,,0,49,105
352442,set_tempo,,,,,100,1,0,229008,,,,,
352530,note_off,,,,,0,0,2,,,,0,56,64
352530,note_off,,,,,90,0,2,,,,0,49,64
352530,note_off,,,,,0,0,2,,,,0,54,64
352530,note_off,,,,,90,0,1,,,,0,77,64
352530,note_off,,,,,0,0,2,,,,0,60,64
352542,set_tempo,,,,,100,1,0,227273,,,,,
352560,note_on,,,,,30,0,1,,,,0,78,113
352560,note_on,,,,,30,0,2,,,,0,60,110
352560,note_on,,,,,0,0,2,,,,0,49,110
352560,note_on,,,,,0,0,2,,,,0,54,110
352560,note_on,,,,,0,0,2,,,,0,56,110
352622,set_tempo,,,,,80,1,0,229008,,,,,
352650,note_off,,,,,0,0,2,,,,0,60,64
352650,note_off,,,,,90,0,1,,,,0,78,64
352650,note_off,,,,,0,0,2,,,,0,56,64
352650,note_off,,,,,0,0,2,,,,0,54,64
352650,note_off,,,,,90,0,2,,,,0,49,64
352662,set_tempo,,,,,40,1,0,227273,,,,,
352680,note_on,,,,,0,0,2,,,,0,49,120
352680,note_on,,,,,30,0,2,,,,0,60,120
352680,note_on,,,,,30,0,1,,,,0,80,118
352680,note_on,,,,,0,0,2,,,,0,54,120
352680,note_on,,,,,0,0,2,,,,0,56,120
352770,note_off,,,,,90,0,2,,,,0,49,64
352770,note_off,,,,,0,0,2,,,,0,60,64
352770,note_off,,,,,0,0,2,,,,0,56,64
352770,note_off,,,,,0,0,2,,,,0,54,64
352770,note_off,,,,,90,0,1,,,,0,80,64
352800,note_on,,,,,30,0,1,,,,0,89,126
352800,note_on,,,,,0,0,1,,,,0,85,126
352800,control_change,,,,,0,0,1,,64,96,0,,
352800,note_on,,,,,0,0,2,,,,0,53,126
352800,note_on,,,,,0,0,2,,,,0,56,126
352800,note_on,,,,,0,0,2,,,,0,61,126
352800,note_on,,,,,30,0,2,,,,0,49,126
352802,set_tempo,,,,,140,1,0,250000,,,,,
352980,note_off,,,,,180,0,2,,,,0,61,64
352980,note_off,,,,,180,0,1,,,,0,85,64
352980,note_off,,,,,0,0,1,,,,0,89,64
352980,note_off,,,,,0,0,2,,,,0,56,64
352980,note_off,,,,,0,0,2,,,,0,49,64
352980,note_off,,,,,0,0,2,,,,0,53,64
353022,set_tempo,,,,,220,1,0,263158,,,,,
353100,control_change,,,,,120,0,1,,64,0,0,,
353160,note_on,,,,,60,0,1,,,,0,61,127
353160,control_change,,,,,0,0,1,,64,95,0,,
353160,note_on,,,,,0,0,2,,,,0,37,126
353160,note_on,,,,,180,0,2,,,,0,49,126
353162,set_tempo,,,,,140,1,0,227273,,,,,
353760,control_change,,,,,600,0,1,,64,0,0,,
354180,note_off,,,,,420,0,1,,,,0,61,64
354180,note_off,,,,,1020,0,2,,,,0,37,64
354180,note_off,,,,,0,0,2,,,,0,49,64
354240,note_on,,,,,60,0,1,,,,0,65,65
354240,note_on,,,,,60,0,2,,,,0,48,61
354240,note_on,,,,,0,0,2,,,,0,53,61
354240,note_on,,,,,0,0,2,,,,0,51,61
354240,note_on,,,,,0,0,2,,,,0,57,61
354242,set_tempo,,,,,1080,1,0,243902,,,,,
354330,note_off,,,,,90,0,1,,,,0,65,64
354330,note_off,,,,,0,0,2,,,,0,57,64
354330,note_off,,,,,0,0,2,,,,0,53,64
354330,note_off,,,,,90,0,2,,,,0,51,64
354330,note_off,,,,,0,0,2,,,,0,48,64
354342,set_tempo,,,,,100,1,0,242915,,,,,
354360,note_on,,,,,30,0,2,,,,0,48,65
354360,note_on,,,,,0,0,2,,,,0,57,65
354360,note_on,,,,,0,0,2,,,,0,53,65
354360,note_on,,,,,0,0,2,,,,0,51,65
354360,note_on,,,,,30,0,1,,,,0,67,69
354402,set_tempo,,,,,60,1,0,241935,,,,,
354450,note_off,,,,,0,0,2,,,,0,48,64
354450,note_off,,,,,0,0,2,,,,0,57,64
354450,note_off,,,,,0,0,2,,,,0,53,64
354450,note_off,,,,,90,0,2,,,,0,51,64
354450,note_off,,,,,90,0,1,,,,0,67,64
354480,note_on,,,,,0,0,2,,,,0,51,70
354480,note_on,,,,,30,0,2,,,,0,48,70
354480,note_on,,,,,0,0,2,,,,0,57,70
354480,note_on,,,,,30,0,1,,,,0,69,72
354480,note_on,,,,,0,0,2,,,,0,53,70
354482,set_tempo,,,,,80,1,0,240964,,,,,
354562,set_tempo,,,,,80,1,0,240000,,,,,
354570,note_off,,,,,90,0,2,,,,0,51,64
354570,note_off,,,,,90,0,1,,,,0,69,64
354570,note_off,,,,,0,0,2,,,,0,57,64
354570,note_off,,,,,0,0,2,,,,0,48,64
354570,note_off,,,,,0,0,2,,,,0,53,64
354600,note_on,,,,,0,0,2,,,,0,53,75
354600,note_on,,,,,30,0,1,,,,0,70,77
354600,note_on,,,,,30,0,2,,,,0,48,75
354600,note_on,,,,,0,0,2,,,,0,57,75
354600,note_on,,,,,0,0,2,,,,0,51,75
354642,set_tempo,,,,,80,1,0,238095,,,,,
354690,note_off,,,,,0,0,2,,,,0,57,64
354690,note_off,,,,,0,0,2,,,,0,53,64
354690,note_off,,,,,0,0,2,,,,0,48,64
354690,note_off,,,,,90,0,1,,,,0,70,64
354690,note_off,,,,,90,0,2,,,,0,51,64
354702,set_tempo,,,,,60,1,0,237154,,,,,
354720,note_on,,,,,30,0,1,,,,0,72,83
354720,note_on,,,,,30,0,2,,,,0,48,80
354720,note_on,,,,,0,0,2,,,,0,57,80
354720,note_on,,,,,0,0,2,,,,0,53,80
354720,note_on,,,,,0,0,2,,,,0,51,80
354782,set_tempo,,,,,80,1,0,236220,,,,,
354810,note_off,,,,,90,0,1,,,,0,72,64
354810,note_off,,,,,0,0,2,,,,0,48,64
354810,note_off,,,,,90,0,2,,,,0,51,64
354810,note_off,,,,,0,0,2,,,,0,53,64
354810,note_off,,,,,0,0,2,,,,0,57,64
354840,note_on,,,,,30,0,1,,,,0,74,89
354840,note_on,,,,,30,0,2,,,,0,48,86
354840,note_on,,,,,0,0,2,,,,0,51,86
354840,note_on,,,,,0,0,2,,,,0,53,86
354840,note_on,,,,,0,0,2,,,,0,57,86
354882,set_tempo,,,,,100,1,0,235294,,,,,
354930,note_off,,,,,90,0,2,,,,0,51,64
354930,note_off,,,,,0,0,2,,,,0,57,64
354930,note_off,,,,,0,0,2,,,,0,48,64
354930,note_off,,,,,90,0,1,,,,0,74,64
354930,note_off,,,,,0,0,2,,,,0,53,64
354942,set_tempo,,,,,60,1,0,234375,,,,,
354960,note_on,,,,,30,0,1,,,,0,75,97
354960,note_on,,,,,30,0,2,,,,0,48,92
354960,note_on,,,,,0,0,2,,,,0,51,92
354960,note_on,,,,,0,0,2,,,,0,53,92
354960,note_on,,,,,0,0,2,,,,0,57,92
355022,set_tempo,,,,,80,1,0,232558,,,,,
355050,note_off,,,,,90,0,2,,,,0,51,64
355050,note_off,,,,,90,0,1,,,,0,75,64
355050,note_off,,,,,0,0,2,,,,0,57,64
355050,note_off,,,,,0,0,2,,,,0,53,64
355050,note_off,,,,,0,0,2,,,,0,48,64
355080,note_on,,,,,30,0,1,,,,0,77,103
355080,note_on,,,,,0,0,2,,,,0,53,99
355080,note_on,,,,,0,0,2,,,,0,57,99
355080,note_on,,,,,0,0,2,,,,0,51,99
355080,note_on,,,,,30,0,2,,,,0,48,99
355122,set_tempo,,,,,100,1,0,231660,,,,,
355162,set_tempo,,,,,40,1,0,230769,,,,,
355170,note_off,,,,,90,0,2,,,,0,51,64
355170,note_off,,,,,90,0,1,,,,0,77,64
355170,note_off,,,,,0,0,2,,,,0,53,64
355170,note_off,,,,,0,0,2,,,,0,57,64
355170,note_off,,,,,0,0,2,,,,0,48,64
355200,note_on,,,,,0,0,2,,,,0,53,105
355200,note_on,,,,,0,0,2,,,,0,51,105
355200,note_on,,,,,30,0,2,,,,0,48,105
355200,note_on,,,,,30,0,1,,,,0,79,110
355200,note_on,,,,,0,0,2,,,,0,57,105
355222,set_tempo,,,,,60,1,0,229885,,,,,
355290,note_off,,,,,90,0,2,,,,0,51,64
355290,note_off,,,,,0,0,2,,,,0,53,64
355290,note_off,,,,,0,0,2,,,,0,57,64
355290,note_off,,,,,0,0,2,,,,0,48,64
355290,note_off,,,,,90,0,1,,,,0,79,64
355320,note_on,,,,,30,0,2,,,,0,48,111
355320,note_on,,,,,0,0,2,,,,0,57,111
355320,note_on,,,,,0,0,2,,,,0,53,111
355320,note_on,,,,,30,0,1,,,,0,81,114
355320,note_on,,,,,0,0,2,,,,0,51,111
355322,set_tempo,,,,,100,1,0,229008,,,,,
355410,note_off,,,,,0,0,2,,,,0,53,64
355410,note_off,,,,,90,0,2,,,,0,51,64
355410,note_off,,,,,0,0,2,,,,0,48,64
355410,note_off,,,,,0,0,2,,,,0,57,64
355410,note_off,,,,,90,0,1,,,,0,81,64
355422,set_tempo,,,,,100,1,0,227273,,,,,
355440,note_on,,,,,0,0,2,,,,0,51,117
355440,note_on,,,,,0,0,2,,,,0,53,117
355440,note_on,,,,,0,0,2,,,,0,57,117
355440,note_on,,,,,30,0,2,,,,0,48,117
355440,note_on,,,,,30,0,1,,,,0,82,120
355502,set_tempo,,,,,80,1,0,229008,,,,,
355530,note_off,,,,,0,0,2,,,,0,53,64
355530,note_off,,,,,90,0,2,,,,0,51,64
355530,note_off,,,,,0,0,2,,,,0,57,64
355530,note_off,,,,,0,0,2,,,,0,48,64
355530,note_off,,,,,90,0,1,,,,0,82,64
355542,set_tempo,,,,,40,1,0,227273,,,,,
355560,note_on,,,,,30,0,1,,,,0,84,124
355560,note_on,,,,,30,0,2,,,,0,48,125
355560,note_on,,,,,0,0,2,,,,0,57,125
355560,note_on,,,,,0,0,2,,,,0,53,125
355560,note_on,,,,,0,0,2,,,,0,51,125
355650,note_off,,,,,0,0,2,,,,0,53,64
355650,note_off,,,,,90,0,1,,,,0,84,64
355650,note_off,,,,,0,0,2,,,,0,48,64
355650,note_off,,,,,0,0,2,,,,0,57,64
355650,note_off,,,,,90,0,2,,,,0,51,64
355680,note_on,,,,,0,0,2,,,,0,50,127
355680,note_on,,,,,30,0,1,,,,0,86,126
355680,note_on,,,,,30,0,2,,,,0,46,127
355680,note_on,,,,,0,0,1,,,,0,94,126
355680,control_change,,,,,0,0,1,,64,96,0,,
355680,note_on,,,,,0,0,2,,,,0,53,127
355680,note_on,,,,,0,0,2,,,,0,58,127
355682,set_tempo,,,,,140,1,0,250000,,,,,
355860,note_off,,,,,0,0,2,,,,0,53,64
355860,note_off,,,,,0,0,1,,,,0,86,64
355860,note_off,,,,,180,0,2,,,,0,58,64
355860,note_off,,,,,180,0,1,,,,0,94,64
355860,note_off,,,,,0,0,2,,,,0,50,64
355860,note_off,,,,,0,0,2,,,,0,46,64
355902,set_tempo,,,,,220,1,0,263158,,,,,
355980,control_change,,,,,120,0,1,,64,0,0,,
356040,note_on,,,,,180,0,2,,,,0,34,126
356040,note_on,,,,,0,0,2,,,,0,46,126
356040,note_on,,,,,60,0,1,,,,0,58,127
356040,control_change,,,,,0,0,1,,64,95,0,,
356042,set_tempo,,,,,140,1,0,238095,,,,,
356280,note_off,,,,,240,0,1,,,,0,58,64
356280,note_off,,,,,0,0,2,,,,0,34,64
356280,note_off,,,,,240,0,2,,,,0,46,64
356392,control_change,,,,,112,0,1,,64,0,0,,
356400,note_on,,,,,0,0,2,,,,0,58,126
356400,note_on,,,,,0,0,2,,,,0,53,126
356400,note_on,,,,,8,0,1,,,,0,77,126
356400,note_on,,,,,0,0,1,,,,0,89,126
356400,note_on,,,,,0,0,1,,,,0,82,126
356400,note_on,,,,,0,0,1,,,,0,86,126
356400,control_change,,,,,0,0,1,,64,96,0,,
356400,note_on,,,,,0,0,2,,,,0,50,126
356400,note_on,,,,,120,0,2,,,,0,46,126
356422,set_tempo,,,,,380,1,0,250000,,,,,
356580,note_off,,,,,0,0,2,,,,0,46,64
356580,note_off,,,,,0,0,2,,,,0,53,64
356580,note_off,,,,,0,0,1,,,,0,77,64
356580,note_off,,,,,0,0,1,,,,0,89,64
356580,note_off,,,,,0,0,1,,,,0,82,64
356580,note_off,,,,,180,0,1,,,,0,86,64
356580,note_off,,,,,180,0,2,,,,0,58,64
356580,note_off,,,,,0,0,2,,,,0,50,64
356700,control_change,,,,,120,0,1,,64,0,0,,
356760,control_change,,,,,0,0,1,,64,95,0,,
356760,note_on,,,,,180,0,2,,,,0,34,126
356760,note_on,,,,,0,0,2,,,,0,46,126
356760,note_on,,,,,60,0,1,,,,0,58,127
357000,note_off,,,,,240,0,1,,,,0,58,64
357000,note_off,,,,,240,0,2,,,,0,46,64
357000,note_off,,,,,0,0,2,,,,0,34,64
357002,set_tempo,,,,,580,1,0,260870,,,,,
357106,control_change,,,,,106,0,1,,64,0,0,,
357120,note_on,,,,,14,0,1,,,,0,74,126
357120,note_on,,,,,0,0,1,,,,0,77,126
357120,note_on,,,,,0,0,2,,,,0,58,126
357120,note_on,,,,,0,0,2,,,,0,53,126
357120,note_on,,,,,0,0,2,,,,0,50,126
357120,note_on,,,,,120,0,2,,,,0,46,126
357120,note_on,,,,,0,0,1,,,,0,86,126
357120,note_on,,,,,0,0,1,,,,0,82,126
357120,control_change,,,,,0,0,1,,64,96,0,,
357300,note_off,,,,,0,0,2,,,,0,53,64
357300,note_off,,,,,180,0,2,,,,0,58,64
357300,note_off,,,,,0,0,2,,,,0,50,64
357300,note_off,,,,,0,0,1,,,,0,86,64
357300,note_off,,,,,180,0,1,,,,0,82,64
357300,note_off,,,,,0,0,1,,,,0,74,64
357300,note_off,,,,,0,0,1,,,,0,77,64
357300,note_off,,,,,0,0,2,,,,0,46,64
357420,control_change,,,,,120,0,1,,64,0,0,,
357480,note_on,,,,,60,0,1,,,,0,58,127
357480,control_change,,,,,0,0,1,,64,95,0,,
357480,note_on,,,,,0,0,2,,,,0,46,126
357480,note_on,,,,,180,0,2,,,,0,34,126
357482,set_tempo,,,,,480,1,0,277778,,,,,
357720,note_off,,,,,240,0,1,,,,0,58,64
357720,note_off,,,,,240,0,2,,,,0,46,64
357720,note_off,,,,,0,0,2,,,,0,34,64
357840,control_change,,,,,120,0,1,,64,0,0,,
357862,set_tempo,,,,,380,1,0,227273,,,,,
358560,note_on,,,,,0,0,2,,,,0,58,126
358560,note_on,,,,,0,0,1,,,,0,74,126
358560,note_on,,,,,0,0,2,,,,0,50,126
358560,note_on,,,,,720,0,1,,,,0,70,126
358560,control_change,,,,,0,0,1,,64,96,0,,
358560,note_on,,,,,0,0,1,,,,0,82,126
358560,note_on,,,,,0,0,1,,,,0,77,126
358560,note_on,,,,,0,0,2,,,,0,53,126
358560,note_on,,,,,840,0,2,,,,0,46,126
358562,set_tempo,,,,,700,1,0,250000,,,,,
358740,note_off,,,,,0,0,2,,,,0,46,64
358740,note_off,,,,,0,0,2,,,,0,50,64
358740,note_off,,,,,0,0,2,,,,0,53,64
358740,note_off,,,,,180,0,2,,,,0,58,64
358740,note_off,,,,,0,0,1,,,,0,74,64
358740,note_off,,,,,180,0,1,,,,0,82,64
358740,note_off,,,,,0,0,1,,,,0,70,64
358740,note_off,,,,,0,0,1,,,,0,77,64
358860,control_change,,,,,120,0,1,,64,0,0,,
358920,note_on,,,,,60,0,1,,,,0,58,127
358920,control_change,,,,,0,0,1,,64,95,0,,
358920,note_on,,,,,0,0,2,,,,0,46,126
358920,note_on,,,,,180,0,2,,,,0,34,126
358922,set_tempo,,,,,360,1,0,265487,,,,,
359160,note_off,,,,,0,0,2,,,,0,34,64
359160,note_off,,,,,240,0,1,,,,0,58,64
359160,note_off,,,,,240,0,2,,,,0,46,64
359272,control_change,,,,,112,0,1,,64,0,0,,
359280,set_tempo,,,,,358,1,0,227273,,,,,
360720,note_on,,,,,1560,0,2,,,,0,46,36
360720,set_tempo,,,,,1440,1,0,242915,,,,,
360720,control_change,,,,,0,0,1,,64,94,0,,
360720,note_on,,,,,1448,0,1,,,,0,77,52
360722,control_change,,,,,2,0,1,,64,94,0,,
360960,note_off,,,,,238,0,1,,,,0,77,64
360960,note_off,,,,,240,0,2,,,,0,46,64
360962,note_on,,,,,0,0,2,,,,0,61,31
360962,note_on,,,,,0,0,2,,,,0,65,31
360962,note_on,,,,,2,0,2,,,,0,58,31
360968,control_change,,,,,8,0,1,,64,0,0,,
361052,note_off,,,,,90,0,2,,,,0,65,64
361052,note_off,,,,,0,0,2,,,,0,61,64
361052,note_off,,,,,0,0,2,,,,0,58,64
361082,note_on,,,,,114,0,1,,,,0,70,46
361082,control_change,,,,,0,0,1,,64,95,0,,
361082,note_on,,,,,0,0,2,,,,0,61,29
361082,note_on,,,,,30,0,2,,,,0,58,29
361082,note_on,,,,,0,0,2,,,,0,65,29
361262,note_off,,,,,0,0,2,,,,0,58,64
361262,note_off,,,,,0,0,2,,,,0,61,64
361262,note_off,,,,,180,0,2,,,,0,65,64
361320,note_on,,,,,0,0,2,,,,0,58,26
361320,note_on,,,,,0,0,2,,,,0,61,26
361320,note_on,,,,,58,0,2,,,,0,65,26
361322,control_change,,,,,0,0,1,,64,0,0,,
361322,note_off,,,,,240,0,1,,,,0,70,64
361410,note_off,,,,,90,0,2,,,,0,58,64
361410,note_off,,,,,0,0,2,,,,0,61,64
361410,note_off,,,,,0,0,2,,,,0,65,64
361440,note_on,,,,,30,0,2,,,,0,58,36
361440,note_on,,,,,0,0,2,,,,0,61,36
361440,note_on,,,,,0,0,2,,,,0,65,36
361440,note_on,,,,,118,0,1,,,,0,53,49
361442,control_change,,,,,2,0,1,,64,95,0,,
361620,note_off,,,,,180,0,2,,,,0,61,64
361620,note_off,,,,,0,0,2,,,,0,65,64
361620,note_off,,,,,0,0,2,,,,0,58,64
361680,note_off,,,,,238,0,1,,,,0,53,64
361682,note_on,,,,,0,0,2,,,,0,58,31
361682,note_on,,,,,62,0,2,,,,0,65,31
361682,note_on,,,,,0,0,2,,,,0,61,31
361772,note_off,,,,,0,0,2,,,,0,61,64
361772,note_off,,,,,90,0,2,,,,0,58,64
361772,note_off,,,,,0,0,2,,,,0,65,64
361792,control_change,,,,,112,0,1,,64,0,0,,
361800,note_on,,,,,8,0,1,,,,0,46,42
361802,note_on,,,,,30,0,2,,,,0,61,32
361802,note_on,,,,,0,0,2,,,,0,65,32
361802,control_change,,,,,2,0,1,,64,95,0,,
361982,note_off,,,,,180,0,2,,,,0,65,64
361982,note_off,,,,,0,0,2,,,,0,61,64
362040,note_off,,,,,238,0,1,,,,0,46,64
362042,note_on,,,,,0,0,2,,,,0,65,29
362042,note_on,,,,,60,0,2,,,,0,58,29
362042,note_on,,,,,0,0,2,,,,0,61,29
362132,note_off,,,,,90,0,2,,,,0,65,64
362132,note_off,,,,,0,0,2,,,,0,61,64
362132,note_off,,,,,0,0,2,,,,0,58,64
362152,control_change,,,,,112,0,1,,64,0,0,,
362160,note_on,,,,,8,0,1,,,,0,70,55
362162,note_on,,,,,2,0,1,,,,0,82,55
362162,control_change,,,,,0,0,1,,64,95,0,,
362162,note_on,,,,,30,0,2,,,,0,51,41
362402,note_on,,,,,0,0,2,,,,0,58,38
362402,note_on,,,,,0,0,2,,,,0,63,38
362402,note_on,,,,,0,0,2,,,,0,66,38
362402,note_off,,,,,240,0,2,,,,0,51,64
362492,note_off,,,,,0,0,2,,,,0,58,64
362492,note_off,,,,,90,0,2,,,,0,66,64
362492,note_off,,,,,0,0,2,,,,0,63,64
362514,control_change,,,,,352,0,1,,64,0,0,,
362522,control_change,,,,,8,0,1,,64,95,0,,
362522,note_on,,,,,0,0,2,,,,0,66,34
362522,note_on,,,,,0,0,2,,,,0,63,34
362522,note_on,,,,,30,0,2,,,,0,58,34
362702,note_off,,,,,0,0,2,,,,0,63,64
362702,note_off,,,,,180,0,2,,,,0,66,64
362702,note_off,,,,,0,0,2,,,,0,58,64
362760,note_off,,,,,238,0,1,,,,0,70,64
362762,note_off,,,,,2,0,1,,,,0,82,64
362762,note_on,,,,,60,0,2,,,,0,58,30
362762,note_on,,,,,0,0,2,,,,0,63,30
362762,note_on,,,,,0,0,2,,,,0,66,30
362852,note_off,,,,,0,0,2,,,,0,58,64
362852,note_off,,,,,90,0,2,,,,0,66,64
362852,note_off,,,,,0,0,2,,,,0,63,64
362874,control_change,,,,,112,0,1,,64,0,0,,
362882,note_on,,,,,0,0,2,,,,0,66,37
362882,note_on,,,,,0,0,2,,,,0,63,37
362882,note_on,,,,,30,0,2,,,,0,58,37
362882,note_on,,,,,8,0,1,,,,0,75,44
362882,control_change,,,,,0,0,1,,64,95,0,,
363062,note_off,,,,,180,0,2,,,,0,66,64
363062,note_off,,,,,0,0,2,,,,0,63,64
363062,note_off,,,,,0,0,2,,,,0,58,64
363122,note_on,,,,,60,0,2,,,,0,58,34
363122,note_on,,,,,0,0,2,,,,0,63,34
363122,note_on,,,,,0,0,2,,,,0,66,34
363212,note_off,,,,,90,0,2,,,,0,66,64
363212,note_off,,,,,0,0,2,,,,0,58,64
363212,note_off,,,,,0,0,2,,,,0,63,64
363234,control_change,,,,,352,0,1,,64,0,0,,
363242,note_on,,,,,30,0,2,,,,0,58,29
363242,note_on,,,,,0,0,2,,,,0,63,29
363242,note_on,,,,,0,0,2,,,,0,66,29
363242,control_change,,,,,8,0,1,,64,96,0,,
363422,note_off,,,,,180,0,2,,,,0,66,64
363422,note_off,,,,,0,0,2,,,,0,63,64
363422,note_off,,,,,0,0,2,,,,0,58,64
363482,note_on,,,,,0,0,2,,,,0,63,27
363482,note_on,,,,,0,0,2,,,,0,66,27
363482,note_on,,,,,60,0,2,,,,0,58,27
363482,note_off,,,,,240,0,1,,,,0,75,64
363572,note_off,,,,,90,0,2,,,,0,66,64
363572,note_off,,,,,0,0,2,,,,0,63,64
363572,note_off,,,,,0,0,2,,,,0,58,64
363594,control_change,,,,,112,0,1,,64,0,0,,
363602,note_on,,,,,8,0,1,,,,0,77,49
363602,control_change,,,,,0,0,1,,64,94,0,,
363602,note_on,,,,,30,0,2,,,,0,46,36
363842,note_on,,,,,0,0,2,,,,0,65,31
363842,note_on,,,,,0,0,2,,,,0,61,31
363842,note_on,,,,,0,0,2,,,,0,58,31
363842,note_off,,,,,240,0,2,,,,0,46,64
363842,note_off,,,,,240,0,1,,,,0,77,64
363848,control_change,,,,,6,0,1,,64,0,0,,
363932,note_off,,,,,0,0,2,,,,0,61,64
363932,note_off,,,,,0,0,2,,,,0,58,64
363932,note_off,,,,,90,0,2,,,,0,65,64
363962,note_on,,,,,0,0,2,,,,0,65,27
363962,note_on,,,,,114,0,1,,,,0,70,40
363962,control_change,,,,,0,0,1,,64,95,0,,
363962,note_on,,,,,0,0,2,,,,0,61,27
363962,note_on,,,,,30,0,2,,,,0,58,27
364142,note_off,,,,,0,0,2,,,,0,58,64
364142,note_off,,,,,180,0,2,,,,0,65,64
364142,note_off,,,,,0,0,2,,,,0,61,64
364202,control_change,,,,,0,0,1,,64,0,0,,
364202,note_off,,,,,240,0,1,,,,0,70,64
364202,note_on,,,,,0,0,2,,,,0,61,25
364202,note_on,,,,,60,0,2,,,,0,58,25
364202,note_on,,,,,0,0,2,,,,0,65,25
364292,note_off,,,,,0,0,2,,,,0,61,64
364292,note_off,,,,,90,0,2,,,,0,65,64
364292,note_off,,,,,0,0,2,,,,0,58,64
364320,note_on,,,,,118,0,1,,,,0,53,50
364322,note_on,,,,,0,0,2,,,,0,61,36
364322,note_on,,,,,30,0,2,,,,0,58,36
364322,control_change,,,,,2,0,1,,64,95,0,,
364502,note_off,,,,,0,0,2,,,,0,58,64
364502,note_off,,,,,180,0,2,,,,0,61,64
364560,note_off,,,,,238,0,1,,,,0,53,64
364560,note_on,,,,,0,0,2,,,,0,58,31
364560,note_on,,,,,0,0,2,,,,0,61,31
364560,note_on,,,,,58,0,2,,,,0,65,31
364562,control_change,,,,,2,0,1,,64,0,0,,
364650,note_off,,,,,0,0,2,,,,0,65,64
364650,note_off,,,,,0,0,2,,,,0,61,64
364650,note_off,,,,,90,0,2,,,,0,58,64
364680,note_on,,,,,118,0,1,,,,0,46,49
364680,note_on,,,,,0,0,2,,,,0,58,27
364680,note_on,,,,,30,0,2,,,,0,61,27
364682,control_change,,,,,2,0,1,,64,95,0,,
364860,note_off,,,,,0,0,2,,,,0,61,64
364860,note_off,,,,,180,0,2,,,,0,58,64
364920,note_on,,,,,0,0,2,,,,0,61,25
364920,note_on,,,,,60,0,2,,,,0,65,25
364920,note_off,,,,,238,0,1,,,,0,46,64
364920,note_on,,,,,0,0,2,,,,0,58,25
364922,control_change,,,,,2,0,1,,64,0,0,,
365010,note_off,,,,,0,0,2,,,,0,65,64
365010,note_off,,,,,90,0,2,,,,0,58,64
365010,note_off,,,,,0,0,2,,,,0,61,64
365040,note_on,,,,,30,0,2,,,,0,53,51
365042,note_on,,,,,0,0,1,,,,0,84,58
365042,control_change,,,,,0,0,1,,64,95,0,,
365042,note_on,,,,,120,0,1,,,,0,72,58
365042,note_on,,,,,2,0,2,,,,0,41,51
365280,note_off,,,,,238,0,2,,,,0,53,64
365282,note_off,,,,,2,0,2,,,,0,41,64
365282,note_on,,,,,0,0,2,,,,0,60,36
365282,note_on,,,,,0,0,2,,,,0,65,36
365282,note_on,,,,,0,0,2,,,,0,57,36
365372,note_off,,,,,90,0,2,,,,0,57,64
365372,note_off,,,,,0,0,2,,,,0,60,64
365372,note_off,,,,,0,0,2,,,,0,65,64
365394,control_change,,,,,352,0,1,,64,0,0,,
365402,note_on,,,,,30,0,2,,,,0,65,33
365402,note_on,,,,,0,0,2,,,,0,60,33
365402,note_on,,,,,0,0,2,,,,0,57,33
365402,control_change,,,,,8,0,1,,64,95,0,,
365582,note_off,,,,,0,0,2,,,,0,65,64
365582,note_off,,,,,180,0,2,,,,0,57,64
365582,note_off,,,,,0,0,2,,,,0,60,64
365642,note_on,,,,,0,0,2,,,,0,60,35
365642,note_on,,,,,0,0,2,,,,0,57,35
365642,note_off,,,,,0,0,1,,,,0,72,64
365642,note_on,,,,,60,0,2,,,,0,65,35
365642,note_off,,,,,240,0,1,,,,0,84,64
365732,note_off,,,,,0,0,2,,,,0,65,64
365732,note_off,,,,,0,0,2,,,,0,60,64
365732,note_off,,,,,90,0,2,,,,0,57,64
365754,control_change,,,,,112,0,1,,64,0,0,,
365762,note_on,,,,,30,0,2,,,,0,65,43
365762,note_on,,,,,0,0,2,,,,0,60,43
365762,note_on,,,,,0,0,2,,,,0,57,43
365762,control_change,,,,,0,0,1,,64,95,0,,
365762,note_on,,,,,8,0,1,,,,0,77,45
365942,note_off,,,,,0,0,2,,,,0,65,64
365942,note_off,,,,,0,0,2,,,,0,60,64
365942,note_off,,,,,180,0,2,,,,0,57,64
366002,note_on,,,,,0,0,2,,,,0,60,34
366002,note_on,,,,,60,0,2,,,,0,65,34
366002,note_on,,,,,0,0,2,,,,0,57,34
366092,note_off,,,,,0,0,2,,,,0,60,64
366092,note_off,,,,,90,0,2,,,,0,57,64
366092,note_off,,,,,0,0,2,,,,0,65,64
366114,control_change,,,,,352,0,1,,64,0,0,,
366122,note_on,,,,,30,0,2,,,,0,65,32
366122,note_on,,,,,0,0,2,,,,0,60,32
366122,note_on,,,,,0,0,2,,,,0,57,32
366122,control_change,,,,,8,0,1,,64,96,0,,
366302,note_off,,,,,0,0,2,,,,0,65,64
366302,note_off,,,,,0,0,2,,,,0,60,64
366302,note_off,,,,,180,0,2,,,,0,57,64
366362,note_on,,,,,0,0,2,,,,0,60,32
366362,note_on,,,,,60,0,2,,,,0,65,32
366362,note_on,,,,,0,0,2,,,,0,57,32
366362,note_off,,,,,240,0,1,,,,0,77,64
366452,note_off,,,,,90,0,2,,,,0,57,64
366452,note_off,,,,,0,0,2,,,,0,65,64
366452,note_off,,,,,0,0,2,,,,0,60,64
366474,control_change,,,,,112,0,1,,64,0,0,,
366482,note_on,,,,,8,0,1,,,,0,77,52
366482,note_on,,,,,30,0,2,,,,0,46,36
366482,control_change,,,,,0,0,1,,64,94,0,,
366722,note_off,,,,,240,0,2,,,,0,46,64
366722,note_on,,,,,0,0,2,,,,0,65,24
366722,note_on,,,,,0,0,2,,,,0,61,24
366722,note_on,,,,,0,0,2,,,,0,58,24
366722,note_off,,,,,240,0,1,,,,0,77,64
366728,control_change,,,,,6,0,1,,64,0,0,,
366812,note_off,,,,,90,0,2,,,,0,65,64
366812,note_off,,,,,0,0,2,,,,0,61,64
366812,note_off,,,,,0,0,2,,,,0,58,64
366842,note_on,,,,,114,0,1,,,,0,70,51
366842,control_change,,,,,0,0,1,,64,95,0,,
366842,note_on,,,,,30,0,2,,,,0,58,27
366842,note_on,,,,,0,0,2,,,,0,61,27
366842,note_on,,,,,0,0,2,,,,0,65,27
367022,note_off,,,,,0,0,2,,,,0,58,64
367022,note_off,,,,,0,0,2,,,,0,61,64
367022,note_off,,,,,180,0,2,,,,0,65,64
367082,note_off,,,,,240,0,1,,,,0,70,64
367082,note_on,,,,,60,0,2,,,,0,58,25
367082,note_on,,,,,0,0,2,,,,0,61,25
367082,note_on,,,,,0,0,2,,,,0,65,25
367082,control_change,,,,,0,0,1,,64,0,0,,
367172,note_off,,,,,90,0,2,,,,0,65,64
367172,note_off,,,,,0,0,2,,,,0,61,64
367172,note_off,,,,,0,0,2,,,,0,58,64
367200,note_on,,,,,118,0,1,,,,0,53,50
367202,control_change,,,,,2,0,1,,64,95,0,,
367202,note_on,,,,,30,0,2,,,,0,58,36
367202,note_on,,,,,0,0,2,,,,0,61,36
367382,note_off,,,,,180,0,2,,,,0,61,64
367382,note_off,,,,,0,0,2,,,,0,58,64
367440,note_off,,,,,238,0,1,,,,0,53,64
367442,note_on,,,,,60,0,2,,,,0,58,27
367442,note_on,,,,,0,0,2,,,,0,61,27
367442,note_on,,,,,0,0,2,,,,0,65,27
367532,note_off,,,,,90,0,2,,,,0,65,64
367532,note_off,,,,,0,0,2,,,,0,61,64
367532,note_off,,,,,0,0,2,,,,0,58,64
367546,control_change,,,,,106,0,1,,64,0,0,,
367560,note_on,,,,,14,0,1,,,,0,46,42
367562,note_on,,,,,30,0,2,,,,0,61,32
367562,note_on,,,,,0,0,2,,,,0,65,32
367562,control_change,,,,,2,0,1,,64,95,0,,
367742,note_off,,,,,180,0,2,,,,0,65,64
367742,note_off,,,,,0,0,2,,,,0,61,64
367800,note_off,,,,,238,0,1,,,,0,46,64
367802,note_on,,,,,0,0,2,,,,0,65,27
367802,note_on,,,,,0,0,2,,,,0,61,27
367802,note_on,,,,,60,0,2,,,,0,58,27
367892,note_off,,,,,90,0,2,,,,0,65,64
367892,note_off,,,,,0,0,2,,,,0,61,64
367892,note_off,,,,,0,0,2,,,,0,58,64
367900,control_change,,,,,100,0,1,,64,0,0,,
367920,note_on,,,,,20,0,1,,,,0,70,65
367922,note_on,,,,,30,0,2,,,,0,51,41
367922,note_on,,,,,2,0,1,,,,0,82,65
367922,control_change,,,,,0,0,1,,64,95,0,,
368162,note_on,,,,,0,0,2,,,,0,58,29
368162,note_on,,,,,0,0,2,,,,0,63,29
368162,note_off,,,,,240,0,2,,,,0,51,64
368162,note_on,,,,,0,0,2,,,,0,66,29
368252,note_off,,,,,90,0,2,,,,0,66,64
368252,note_off,,,,,0,0,2,,,,0,63,64
368252,note_off,,,,,0,0,2,,,,0,58,64
368274,control_change,,,,,352,0,1,,64,0,0,,
368282,control_change,,,,,8,0,1,,64,95,0,,
368282,note_on,,,,,0,0,2,,,,0,66,34
368282,note_on,,,,,30,0,2,,,,0,58,34
368282,note_on,,,,,0,0,2,,,,0,63,34
368462,note_off,,,,,0,0,2,,,,0,58,64
368462,note_off,,,,,0,0,2,,,,0,63,64
368462,note_off,,,,,180,0,2,,,,0,66,64
368520,note_off,,,,,238,0,1,,,,0,70,64
368522,note_off,,,,,2,0,1,,,,0,82,64
368522,note_on,,,,,60,0,2,,,,0,58,30
368522,note_on,,,,,0,0,2,,,,0,66,30
368522,note_on,,,,,0,0,2,,,,0,63,30
368612,note_off,,,,,0,0,2,,,,0,63,64
368612,note_off,,,,,90,0,2,,,,0,66,64
368612,note_off,,,,,0,0,2,,,,0,58,64
368634,control_change,,,,,112,0,1,,64,0,0,,
368642,note_on,,,,,8,0,1,,,,0,75,51
368642,control_change,,,,,0,0,1,,64,95,0,,
368642,note_on,,,,,0,0,2,,,,0,66,37
368642,note_on,,,,,30,0,2,,,,0,58,37
368642,note_on,,,,,0,0,2,,,,0,63,37
368822,note_off,,,,,0,0,2,,,,0,63,64
368822,note_off,,,,,180,0,2,,,,0,66,64
368822,note_off,,,,,0,0,2,,,,0,58,64
368882,note_on,,,,,60,0,2,,,,0,58,27
368882,note_on,,,,,0,0,2,,,,0,63,27
368882,note_on,,,,,0,0,2,,,,0,66,27
368972,note_off,,,,,90,0,2,,,,0,66,64
368972,note_off,,,,,0,0,2,,,,0,63,64
368972,note_off,,,,,0,0,2,,,,0,58,64
368994,control_change,,,,,352,0,1,,64,0,0,,
369002,note_on,,,,,30,0,2,,,,0,58,29
369002,control_change,,,,,8,0,1,,64,96,0,,
369002,note_on,,,,,0,0,2,,,,0,63,29
369002,note_on,,,,,0,0,2,,,,0,66,29
369100,set_tempo,,,,,8380,1,0,245902,,,,,
369182,note_off,,,,,180,0,2,,,,0,66,64
369182,note_off,,,,,0,0,2,,,,0,63,64
369182,note_off,,,,,0,0,2,,,,0,58,64
369242,note_on,,,,,0,0,2,,,,0,66,27
369242,note_on,,,,,0,0,2,,,,0,63,27
369242,note_on,,,,,60,0,2,,,,0,58,27
369242,note_off,,,,,240,0,1,,,,0,75,64
369332,note_off,,,,,90,0,2,,,,0,66,64
369332,note_off,,,,,0,0,2,,,,0,58,64
369332,note_off,,,,,0,0,2,,,,0,63,64
369354,control_change,,,,,112,0,1,,64,0,0,,
369362,note_on,,,,,30,0,2,,,,0,44,41
369362,note_on,,,,,8,0,1,,,,0,77,47
369362,control_change,,,,,0,0,1,,64,96,0,,
369542,note_off,,,,,180,0,1,,,,0,77,64
369602,note_off,,,,,240,0,2,,,,0,44,64
369602,note_on,,,,,0,0,2,,,,0,56,38
369602,note_on,,,,,0,0,2,,,,0,53,38
369602,note_on,,,,,0,0,2,,,,0,49,38
369608,control_change,,,,,66,0,1,,64,0,0,,
369692,note_off,,,,,0,0,2,,,,0,56,64
369692,note_off,,,,,0,0,2,,,,0,53,64
369692,note_off,,,,,90,0,2,,,,0,49,64
369722,note_on,,,,,0,0,2,,,,0,49,34
369722,note_on,,,,,0,0,2,,,,0,53,34
369722,note_on,,,,,30,0,2,,,,0,56,34
369722,control_change,,,,,0,0,1,,64,95,0,,
369722,note_on,,,,,114,0,1,,,,0,80,66
369902,note_off,,,,,0,0,2,,,,0,56,64
369902,note_off,,,,,180,0,2,,,,0,49,64
369902,note_off,,,,,0,0,2,,,,0,53,64
369962,control_change,,,,,240,0,1,,64,0,0,,
369962,note_on,,,,,0,0,2,,,,0,49,37
369962,note_on,,,,,0,0,2,,,,0,53,37
369962,note_on,,,,,60,0,2,,,,0,56,37
370022,note_off,,,,,60,0,1,,,,0,80,64
370052,note_off,,,,,0,0,2,,,,0,56,64
370052,note_off,,,,,90,0,2,,,,0,49,64
370052,note_off,,,,,0,0,2,,,,0,53,64
370082,control_change,,,,,0,0,1,,64,95,0,,
370082,note_on,,,,,60,0,1,,,,0,75,52
370082,note_on,,,,,30,0,2,,,,0,44,46
370262,note_off,,,,,180,0,1,,,,0,75,64
370322,note_on,,,,,0,0,2,,,,0,56,36
370322,note_off,,,,,240,0,2,,,,0,44,64
370322,note_on,,,,,0,0,2,,,,0,54,36
370322,note_on,,,,,0,0,2,,,,0,48,36
370380,set_tempo,,,,,1280,1,0,248963,,,,,
370412,note_off,,,,,90,0,2,,,,0,48,64
370412,note_off,,,,,0,0,2,,,,0,54,64
370412,note_off,,,,,0,0,2,,,,0,56,64
370432,control_change,,,,,170,0,1,,64,0,0,,
370440,control_change,,,,,8,0,1,,64,95,0,,
370442,note_on,,,,,0,0,2,,,,0,48,43
370442,note_on,,,,,0,0,2,,,,0,54,43
370442,note_on,,,,,2,0,1,,,,0,80,76
370442,note_on,,,,,30,0,2,,,,0,56,43
370622,note_off,,,,,180,0,2,,,,0,48,64
370622,note_off,,,,,0,0,2,,,,0,54,64
370622,note_off,,,,,0,0,2,,,,0,56,64
370682,note_on,,,,,60,0,2,,,,0,56,38
370682,note_on,,,,,0,0,2,,,,0,54,38
370682,note_on,,,,,0,0,2,,,,0,48,38
370742,note_off,,,,,300,0,1,,,,0,80,64
370772,note_off,,,,,0,0,2,,,,0,54,64
370772,note_off,,,,,0,0,2,,,,0,56,64
370772,note_off,,,,,90,0,2,,,,0,48,64
370792,control_change,,,,,50,0,1,,64,0,0,,
370802,note_on,,,,,10,0,1,,,,0,49,81
370802,control_change,,,,,0,0,1,,64,95,0,,
370802,note_on,,,,,30,0,2,,,,0,53,54
371040,note_on,,,,,238,0,2,,,,0,56,62
371042,note_off,,,,,2,0,2,,,,0,53,64
371042,note_on,,,,,0,0,2,,,,0,61,62
371042,note_on,,,,,0,0,2,,,,0,65,62
371042,note_off,,,,,240,0,1,,,,0,49,64
371042,control_change,,,,,0,0,1,,64,0,0,,
371130,note_off,,,,,88,0,2,,,,0,56,64
371132,note_off,,,,,0,0,2,,,,0,61,64
371132,note_off,,,,,2,0,2,,,,0,65,64
371140,set_tempo,,,,,760,1,0,254237,,,,,
371160,note_on,,,,,28,0,2,,,,0,56,67
371162,note_on,,,,,0,0,2,,,,0,65,67
371162,note_on,,,,,2,0,2,,,,0,61,67
371162,note_on,,,,,120,0,1,,,,0,53,86
371162,control_change,,,,,0,0,1,,64,95,0,,
371340,note_off,,,,,178,0,2,,,,0,56,64
371342,note_off,,,,,2,0,2,,,,0,65,64
371342,note_off,,,,,0,0,2,,,,0,61,64
371400,note_on,,,,,58,0,2,,,,0,56,78
371402,note_on,,,,,2,0,2,,,,0,61,78
371402,note_on,,,,,0,0,2,,,,0,65,78
371402,control_change,,,,,240,0,1,,64,0,0,,
371462,note_off,,,,,60,0,1,,,,0,53,64
371490,note_off,,,,,88,0,2,,,,0,56,64
371492,note_off,,,,,2,0,2,,,,0,65,64
371492,note_off,,,,,0,0,2,,,,0,61,64
371522,note_on,,,,,30,0,2,,,,0,53,85
371522,control_change,,,,,0,0,1,,64,96,0,,
371522,note_on,,,,,60,0,1,,,,0,48,85
371620,set_tempo,,,,,480,1,0,259740,,,,,
371702,note_off,,,,,180,0,1,,,,0,48,64
371760,note_on,,,,,238,0,2,,,,0,57,76
371762,note_on,,,,,0,0,2,,,,0,63,76
371762,note_on,,,,,0,0,2,,,,0,65,76
371762,control_change,,,,,60,0,1,,64,0,0,,
371762,note_off,,,,,2,0,2,,,,0,53,64
371780,set_tempo,,,,,160,1,0,267857,,,,,
371850,note_off,,,,,88,0,2,,,,0,57,64
371852,note_off,,,,,0,0,2,,,,0,65,64
371852,note_off,,,,,2,0,2,,,,0,63,64
371882,note_on,,,,,120,0,1,,,,0,53,88
371882,note_on,,,,,30,0,2,,,,0,65,73
371882,note_on,,,,,0,0,2,,,,0,63,73
371882,note_on,,,,,0,0,2,,,,0,57,73
371882,control_change,,,,,0,0,1,,64,95,0,,
371980,set_tempo,,,,,200,1,0,273973,,,,,
372062,note_off,,,,,180,0,2,,,,0,57,64
372062,note_off,,,,,0,0,2,,,,0,63,64
372062,note_off,,,,,0,0,2,,,,0,65,64
372080,set_tempo,,,,,100,1,0,277778,,,,,
372122,note_on,,,,,0,0,2,,,,0,65,59
372122,note_on,,,,,60,0,2,,,,0,57,59
372122,note_on,,,,,0,0,2,,,,0,63,59
372182,control_change,,,,,0,0,1,,64,0,0,,
372182,note_off,,,,,300,0,1,,,,0,53,64
372184,set_tempo,,,,,104,1,0,291262,,,,,
372204,set_tempo,,,,,20,1,0,705882,,,,,
372212,note_off,,,,,0,0,2,,,,0,57,64
372212,note_off,,,,,90,0,2,,,,0,63,64
372212,note_off,,,,,0,0,2,,,,0,65,64
372224,set_tempo,,,,,20,1,0,294118,,,,,
372242,note_on,,,,,60,0,1,,,,0,77,52
372242,control_change,,,,,0,0,1,,64,94,0,,
372242,note_on,,,,,30,0,2,,,,0,46,36
372244,set_tempo,,,,,20,1,0,243902,,,,,
372482,note_off,,,,,240,0,1,,,,0,77,64
372482,note_off,,,,,240,0,2,,,,0,46,64
372482,note_on,,,,,0,0,2,,,,0,58,31
372482,note_on,,,,,0,0,2,,,,0,61,31
372482,note_on,,,,,0,0,2,,,,0,65,31
372488,control_change,,,,,6,0,1,,64,0,0,,
372572,note_off,,,,,0,0,2,,,,0,58,64
372572,note_off,,,,,0,0,2,,,,0,61,64
372572,note_off,,,,,90,0,2,,,,0,65,64
372602,note_on,,,,,0,0,2,,,,0,65,27
372602,note_on,,,,,0,0,2,,,,0,61,27
372602,note_on,,,,,30,0,2,,,,0,58,27
372602,control_change,,,,,0,0,1,,64,95,0,,
372602,note_on,,,,,114,0,1,,,,0,70,46
372782,note_off,,,,,0,0,2,,,,0,58,64
372782,note_off,,,,,0,0,2,,,,0,61,64
372782,note_off,,,,,180,0,2,,,,0,65,64
372842,note_on,,,,,0,0,2,,,,0,61,24
372842,note_on,,,,,0,0,2,,,,0,65,24
372842,note_on,,,,,60,0,2,,,,0,58,24
372842,control_change,,,,,0,0,1,,64,0,0,,
372842,note_off,,,,,240,0,1,,,,0,70,64
372932,note_off,,,,,0,0,2,,,,0,58,64
372932,note_off,,,,,0,0,2,,,,0,61,64
372932,note_off,,,,,90,0,2,,,,0,65,64
372962,note_on,,,,,120,0,1,,,,0,53,54
372962,control_change,,,,,0,0,1,,64,95,0,,
372962,note_on,,,,,0,0,2,,,,0,61,36
372962,note_on,,,,,30,0,2,,,,0,58,36
373142,note_off,,,,,0,0,2,,,,0,58,64
373142,note_off,,,,,180,0,2,,,,0,61,64
373202,control_change,,,,,0,0,1,,64,0,0,,
373202,note_off,,,,,240,0,1,,,,0,53,64
373202,note_on,,,,,60,0,2,,,,0,58,25
373202,note_on,,,,,0,0,2,,,,0,61,25
373202,note_on,,,,,0,0,2,,,,0,65,25
373292,note_off,,,,,90,0,2,,,,0,65,64
373292,note_off,,,,,0,0,2,,,,0,61,64
373292,note_off,,,,,0,0,2,,,,0,58,64
373322,note_on,,,,,120,0,1,,,,0,46,51
373322,control_change,,,,,0,0,1,,64,95,0,,
373322,note_on,,,,,0,0,2,,,,0,65,32
373322,note_on,,,,,30,0,2,,,,0,61,32
373502,note_off,,,,,0,0,2,,,,0,61,64
373502,note_off,,,,,180,0,2,,,,0,65,64
373562,note_on,,,,,60,0,2,,,,0,58,27
373562,note_off,,,,,240,0,1,,,,0,46,64
373562,note_on,,,,,0,0,2,,,,0,61,27
373562,control_change,,,,,0,0,1,,64,0,0,,
373562,note_on,,,,,0,0,2,,,,0,65,27
373652,note_off,,,,,90,0,2,,,,0,65,64
373652,note_off,,,,,0,0,2,,,,0,58,64
373652,note_off,,,,,0,0,2,,,,0,61,64
373682,note_on,,,,,30,0,2,,,,0,51,41
373682,note_on,,,,,120,0,1,,,,0,82,78
373682,control_change,,,,,0,0,1,,64,95,0,,
373802,note_off,,,,,120,0,1,,,,0,82,64
373802,note_on,,,,,0,0,1,,,,0,81,72
373922,note_off,,,,,240,0,2,,,,0,51,64
373922,note_on,,,,,0,0,2,,,,0,63,38
373922,note_on,,,,,0,0,2,,,,0,58,38
373922,note_off,,,,,120,0,1,,,,0,81,64
373922,note_on,,,,,0,0,2,,,,0,66,38
373922,note_on,,,,,0,0,1,,,,0,80,67
374012,note_off,,,,,0,0,2,,,,0,58,64
374012,note_off,,,,,0,0,2,,,,0,63,64
374012,note_off,,,,,90,0,2,,,,0,66,64
374034,control_change,,,,,112,0,1,,64,0,0,,
374042,note_on,,,,,0,0,1,,,,0,79,62
374042,control_change,,,,,0,0,1,,64,95,0,,
374042,note_on,,,,,30,0,2,,,,0,58,34
374042,note_on,,,,,0,0,2,,,,0,63,34
374042,note_on,,,,,0,0,2,,,,0,66,34
374042,note_off,,,,,8,0,1,,,,0,80,64
374162,note_off,,,,,120,0,1,,,,0,79,64
374162,note_on,,,,,0,0,1,,,,0,78,57
374222,note_off,,,,,180,0,2,,,,0,66,64
374222,note_off,,,,,0,0,2,,,,0,58,64
374222,note_off,,,,,0,0,2,,,,0,63,64
374282,note_off,,,,,120,0,1,,,,0,78,64
374282,note_on,,,,,0,0,1,,,,0,77,52
374282,note_on,,,,,60,0,2,,,,0,58,30
374282,note_on,,,,,0,0,2,,,,0,63,30
374282,note_on,,,,,0,0,2,,,,0,66,30
374372,note_off,,,,,90,0,2,,,,0,66,64
374372,note_off,,,,,0,0,2,,,,0,63,64
374372,note_off,,,,,0,0,2,,,,0,58,64
374394,control_change,,,,,112,0,1,,64,0,0,,
374402,note_off,,,,,8,0,1,,,,0,77,64
374402,control_change,,,,,0,0,1,,64,95,0,,
374402,note_on,,,,,0,0,1,,,,0,76,46
374402,note_on,,,,,30,0,2,,,,0,58,37
374402,note_on,,,,,0,0,2,,,,0,63,37
374402,note_on,,,,,0,0,2,,,,0,66,37
374522,note_on,,,,,0,0,1,,,,0,75,43
374522,note_off,,,,,120,0,1,,,,0,76,64
374582,note_off,,,,,0,0,2,,,,0,63,64
374582,note_off,,,,,180,0,2,,,,0,66,64
374582,note_off,,,,,0,0,2,,,,0,58,64
374642,note_on,,,,,0,0,1,,,,0,74,41
374642,note_off,,,,,120,0,1,,,,0,75,64
374642,note_on,,,,,60,0,2,,,,0,58,34
374642,note_on,,,,,0,0,2,,,,0,66,34
374642,note_on,,,,,0,0,2,,,,0,63,34
374732,note_off,,,,,90,0,2,,,,0,66,64
374732,note_off,,,,,0,0,2,,,,0,58,64
374732,note_off,,,,,0,0,2,,,,0,63,64
374754,control_change,,,,,112,0,1,,64,0,0,,
374762,note_on,,,,,0,0,2,,,,0,63,29
374762,note_on,,,,,0,0,2,,,,0,66,29
374762,control_change,,,,,0,0,1,,64,96,0,,
374762,note_on,,,,,0,0,1,,,,0,75,45
374762,note_off,,,,,8,0,1,,,,0,74,64
374762,note_on,,,,,30,0,2,,,,0,58,29
374882,note_on,,,,,0,0,1,,,,0,77,50
374882,note_off,,,,,120,0,1,,,,0,75,64
374942,note_off,,,,,0,0,2,,,,0,63,64
374942,note_off,,,,,0,0,2,,,,0,58,64
374942,note_off,,,,,180,0,2,,,,0,66,64
375002,note_off,,,,,120,0,1,,,,0,77,64
375002,note_on,,,,,0,0,1,,,,0,78,54
375002,note_on,,,,,0,0,2,,,,0,66,27
375002,note_on,,,,,0,0,2,,,,0,63,27
375002,note_on,,,,,60,0,2,,,,0,58,27
375092,note_off,,,,,0,0,2,,,,0,58,64
375092,note_off,,,,,0,0,2,,,,0,63,64
375092,note_off,,,,,90,0,2,,,,0,66,64
375114,control_change,,,,,112,0,1,,64,0,0,,
375122,control_change,,,,,0,0,1,,64,94,0,,
375122,note_on,,,,,0,0,1,,,,0,77,57
375122,note_off,,,,,8,0,1,,,,0,78,64
375122,note_on,,,,,30,0,2,,,,0,46,36
375362,note_on,,,,,0,0,2,,,,0,61,31
375362,note_on,,,,,0,0,2,,,,0,58,31
375362,note_off,,,,,240,0,2,,,,0,46,64
375362,note_off,,,,,240,0,1,,,,0,77,64
375362,note_on,,,,,0,0,2,,,,0,65,31
375368,control_change,,,,,6,0,1,,64,0,0,,
375452,note_off,,,,,90,0,2,,,,0,65,64
375452,note_off,,,,,0,0,2,,,,0,61,64
375452,note_off,,,,,0,0,2,,,,0,58,64
375482,control_change,,,,,0,0,1,,64,95,0,,
375482,note_on,,,,,114,0,1,,,,0,70,55
375482,note_on,,,,,0,0,2,,,,0,65,27
375482,note_on,,,,,0,0,2,,,,0,61,27
375482,note_on,,,,,30,0,2,,,,0,58,27
375662,note_off,,,,,0,0,2,,,,0,58,64
375662,note_off,,,,,0,0,2,,,,0,61,64
375662,note_off,,,,,180,0,2,,,,0,65,64
375722,control_change,,,,,0,0,1,,64,0,0,,
375722,note_off,,,,,240,0,1,,,,0,70,64
375722,note_on,,,,,60,0,2,,,,0,58,25
375722,note_on,,,,,0,0,2,,,,0,61,25
375722,note_on,,,,,0,0,2,,,,0,65,25
375812,note_off,,,,,90,0,2,,,,0,65,64
375812,note_off,,,,,0,0,2,,,,0,61,64
375812,note_off,,,,,0,0,2,,,,0,58,64
375842,control_change,,,,,0,0,1,,64,95,0,,
375842,note_on,,,,,120,0,1,,,,0,53,53
375842,note_on,,,,,30,0,2,,,,0,58,36
375842,note_on,,,,,0,0,2,,,,0,61,36
376022,note_off,,,,,180,0,2,,,,0,61,64
376022,note_off,,,,,0,0,2,,,,0,58,64
376082,note_off,,,,,240,0,1,,,,0,53,64
376082,control_change,,,,,0,0,1,,64,0,0,,
376082,note_on,,,,,60,0,2,,,,0,58,31
376082,note_on,,,,,0,0,2,,,,0,61,31
376082,note_on,,,,,0,0,2,,,,0,65,31
376172,note_off,,,,,0,0,2,,,,0,58,64
376172,note_off,,,,,90,0,2,,,,0,65,64
376172,note_off,,,,,0,0,2,,,,0,61,64
376202,control_change,,,,,0,0,1,,64,95,0,,
376202,note_on,,,,,120,0,1,,,,0,46,47
376202,note_on,,,,,30,0,2,,,,0,61,38
376202,note_on,,,,,0,0,2,,,,0,65,38
376382,note_off,,,,,180,0,2,,,,0,65,64
376382,note_off,,,,,0,0,2,,,,0,61,64
376442,note_off,,,,,240,0,1,,,,0,46,64
376442,control_change,,,,,0,0,1,,64,0,0,,
376442,note_on,,,,,0,0,2,,,,0,65,36
376442,note_on,,,,,0,0,2,,,,0,61,36
376442,note_on,,,,,60,0,2,,,,0,58,36
376532,note_off,,,,,0,0,2,,,,0,58,64
376532,note_off,,,,,0,0,2,,,,0,61,64
376532,note_off,,,,,90,0,2,,,,0,65,64
376562,note_on,,,,,0,0,2,,,,0,53,57
376562,note_on,,,,,30,0,2,,,,0,41,57
376562,control_change,,,,,0,0,1,,64,95,0,,
376562,note_on,,,,,120,0,1,,,,0,84,78
376682,note_on,,,,,0,0,1,,,,0,83,71
376682,note_off,,,,,120,0,1,,,,0,84,64
376802,note_off,,,,,120,0,1,,,,0,83,64
376802,note_off,,,,,0,0,2,,,,0,41,64
376802,note_on,,,,,0,0,2,,,,0,57,47
376802,note_on,,,,,0,0,2,,,,0,60,47
376802,note_on,,,,,0,0,2,,,,0,65,47
376802,note_off,,,,,240,0,2,,,,0,53,64
376802,note_on,,,,,0,0,1,,,,0,82,63
376892,note_off,,,,,0,0,2,,,,0,65,64
376892,note_off,,,,,90,0,2,,,,0,57,64
376892,note_off,,,,,0,0,2,,,,0,60,64
376914,control_change,,,,,112,0,1,,64,0,0,,
376922,note_on,,,,,30,0,2,,,,0,65,44
376922,note_on,,,,,0,0,2,,,,0,57,44
376922,control_change,,,,,0,0,1,,64,95,0,,
376922,note_on,,,,,0,0,1,,,,0,81,57
376922,note_off,,,,,8,0,1,,,,0,82,64
376922,note_on,,,,,0,0,2,,,,0,60,44
377042,note_on,,,,,0,0,1,,,,0,80,56
377042,note_off,,,,,120,0,1,,,,0,81,64
377102,note_off,,,,,180,0,2,,,,0,57,64
377102,note_off,,,,,0,0,2,,,,0,60,64
377102,note_off,,,,,0,0,2,,,,0,65,64
377162,note_on,,,,,60,0,2,,,,0,65,44
377162,note_off,,,,,120,0,1,,,,0,80,64
377162,note_on,,,,,0,0,1,,,,0,79,48
377162,note_on,,,,,0,0,2,,,,0,57,44
377162,note_on,,,,,0,0,2,,,,0,60,44
377252,note_off,,,,,90,0,2,,,,0,57,64
377252,note_off,,,,,0,0,2,,,,0,60,64
377252,note_off,,,,,0,0,2,,,,0,65,64
377274,control_change,,,,,112,0,1,,64,0,0,,
377282,note_off,,,,,8,0,1,,,,0,79,64
377282,note_on,,,,,0,0,1,,,,0,78,42
377282,note_on,,,,,0,0,2,,,,0,57,51
377282,note_on,,,,,0,0,2,,,,0,60,51
377282,note_on,,,,,30,0,2,,,,0,65,51
377282,control_change,,,,,0,0,1,,64,95,0,,
377402,note_on,,,,,0,0,1,,,,0,77,38
377402,note_off,,,,,120,0,1,,,,0,78,64
377462,note_off,,,,,180,0,2,,,,0,57,64
377462,note_off,,,,,0,0,2,,,,0,60,64
377462,note_off,,,,,0,0,2,,,,0,65,64
377522,note_on,,,,,60,0,2,,,,0,65,32
377522,note_on,,,,,0,0,2,,,,0,57,32
377522,note_on,,,,,0,0,2,,,,0,60,32
377522,note_on,,,,,0,0,1,,,,0,76,36
377522,note_off,,,,,120,0,1,,,,0,77,64
377612,note_off,,,,,0,0,2,,,,0,65,64
377612,note_off,,,,,0,0,2,,,,0,60,64
377612,note_off,,,,,90,0,2,,,,0,57,64
377634,control_change,,,,,112,0,1,,64,0,0,,
377642,note_off,,,,,8,0,1,,,,0,76,64
377642,control_change,,,,,0,0,1,,64,96,0,,
377642,note_on,,,,,0,0,2,,,,0,57,36
377642,note_on,,,,,0,0,2,,,,0,60,36
377642,note_on,,,,,30,0,2,,,,0,65,36
377642,note_on,,,,,0,0,1,,,,0,77,41
377762,note_on,,,,,0,0,1,,,,0,78,47
377762,note_off,,,,,120,0,1,,,,0,77,64
377822,note_off,,,,,180,0,2,,,,0,57,64
377822,note_off,,,,,0,0,2,,,,0,60,64
377822,note_off,,,,,0,0,2,,,,0,65,64
377882,note_off,,,,,120,0,1,,,,0,78,64
377882,note_on,,,,,0,0,1,,,,0,75,54
377882,note_on,,,,,60,0,2,,,,0,65,32
377882,note_on,,,,,0,0,2,,,,0,60,32
377882,note_on,,,,,0,0,2,,,,0,57,32
377972,note_off,,,,,90,0,2,,,,0,57,64
377972,note_off,,,,,0,0,2,,,,0,60,64
377972,note_off,,,,,0,0,2,,,,0,65,64
377994,control_change,,,,,112,0,1,,64,0,0,,
378002,note_on,,,,,0,0,1,,,,0,77,57
378002,control_change,,,,,0,0,1,,64,94,0,,
378002,note_off,,,,,8,0,1,,,,0,75,64
378002,note_on,,,,,30,0,2,,,,0,46,36
378242,note_on,,,,,0,0,2,,,,0,61,31
378242,note_on,,,,,0,0,2,,,,0,58,31
378242,note_off,,,,,240,0,2,,,,0,46,64
378242,note_on,,,,,0,0,2,,,,0,65,31
378242,note_off,,,,,240,0,1,,,,0,77,64
378248,control_change,,,,,6,0,1,,64,0,0,,
378332,note_off,,,,,90,0,2,,,,0,65,64
378332,note_off,,,,,0,0,2,,,,0,61,64
378332,note_off,,,,,0,0,2,,,,0,58,64
378362,control_change,,,,,0,0,1,,64,95,0,,
378362,note_on,,,,,114,0,1,,,,0,70,56
378362,note_on,,,,,0,0,2,,,,0,61,27
378362,note_on,,,,,30,0,2,,,,0,58,27
378362,note_on,,,,,0,0,2,,,,0,65,27
378542,note_off,,,,,0,0,2,,,,0,58,64
378542,note_off,,,,,0,0,2,,,,0,61,64
378542,note_off,,,,,180,0,2,,,,0,65,64
378602,note_on,,,,,0,0,2,,,,0,65,25
378602,note_on,,,,,0,0,2,,,,0,61,25
378602,note_on,,,,,60,0,2,,,,0,58,25
378602,note_off,,,,,240,0,1,,,,0,70,64
378602,control_change,,,,,0,0,1,,64,0,0,,
378692,note_off,,,,,0,0,2,,,,0,58,64
378692,note_off,,,,,0,0,2,,,,0,61,64
378692,note_off,,,,,90,0,2,,,,0,65,64
378722,control_change,,,,,0,0,1,,64,95,0,,
378722,note_on,,,,,120,0,1,,,,0,53,49
378722,note_on,,,,,30,0,2,,,,0,58,36
378722,note_on,,,,,0,0,2,,,,0,61,36
378902,note_off,,,,,180,0,2,,,,0,61,64
378902,note_off,,,,,0,0,2,,,,0,58,64
378962,note_on,,,,,60,0,2,,,,0,58,25
378962,note_on,,,,,0,0,2,,,,0,61,25
378962,note_on,,,,,0,0,2,,,,0,65,25
378962,note_off,,,,,240,0,1,,,,0,53,64
378962,control_change,,,,,0,0,1,,64,0,0,,
379052,note_off,,,,,90,0,2,,,,0,65,64
379052,note_off,,,,,0,0,2,,,,0,61,64
379052,note_off,,,,,0,0,2,,,,0,58,64
379082,note_on,,,,,0,0,2,,,,0,65,32
379082,note_on,,,,,30,0,2,,,,0,61,32
379082,note_on,,,,,120,0,1,,,,0,46,53
379082,control_change,,,,,0,0,1,,64,95,0,,
379262,note_off,,,,,180,0,2,,,,0,65,64
379262,note_off,,,,,0,0,2,,,,0,61,64
379322,control_change,,,,,0,0,1,,64,0,0,,
379322,note_off,,,,,240,0,1,,,,0,46,64
379322,note_on,,,,,0,0,2,,,,0,65,28
379322,note_on,,,,,0,0,2,,,,0,61,28
379322,note_on,,,,,60,0,2,,,,0,58,28
379412,note_off,,,,,0,0,2,,,,0,61,64
379412,note_off,,,,,0,0,2,,,,0,58,64
379412,note_off,,,,,90,0,2,,,,0,65,64
379442,note_on,,,,,120,0,1,,,,0,82,69
379442,control_change,,,,,0,0,1,,64,95,0,,
379442,note_on,,,,,30,0,2,,,,0,51,41
379562,note_on,,,,,0,0,1,,,,0,81,64
379562,note_off,,,,,120,0,1,,,,0,82,64
379682,note_on,,,,,0,0,2,,,,0,66,29
379682,note_off,,,,,120,0,1,,,,0,81,64
379682,note_on,,,,,0,0,1,,,,0,82,64
379682,note_on,,,,,0,0,2,,,,0,63,29
379682,note_off,,,,,240,0,2,,,,0,51,64
379682,note_on,,,,,0,0,2,,,,0,58,29
379772,note_off,,,,,90,0,2,,,,0,66,64
379772,note_off,,,,,0,0,2,,,,0,63,64
379772,note_off,,,,,0,0,2,,,,0,58,64
379794,control_change,,,,,112,0,1,,64,0,0,,
379802,note_on,,,,,30,0,2,,,,0,58,34
379802,note_on,,,,,0,0,2,,,,0,63,34
379802,note_on,,,,,0,0,2,,,,0,66,34
379802,control_change,,,,,0,0,1,,64,95,0,,
379802,note_off,,,,,8,0,1,,,,0,82,64
379802,note_on,,,,,0,0,1,,,,0,83,62
379922,note_on,,,,,0,0,1,,,,0,82,65
379922,note_off,,,,,120,0,1,,,,0,83,64
379982,note_off,,,,,180,0,2,,,,0,66,64
379982,note_off,,,,,0,0,2,,,,0,63,64
379982,note_off,,,,,0,0,2,,,,0,58,64
380042,note_on,,,,,0,0,1,,,,0,81,70
380042,note_off,,,,,120,0,1,,,,0,82,64
380042,note_on,,,,,60,0,2,,,,0,58,30
380042,note_on,,,,,0,0,2,,,,0,63,30
380042,note_on,,,,,0,0,2,,,,0,66,30
380132,note_off,,,,,0,0,2,,,,0,58,64
380132,note_off,,,,,90,0,2,,,,0,66,64
380132,note_off,,,,,0,0,2,,,,0,63,64
380154,control_change,,,,,112,0,1,,64,0,0,,
380162,note_on,,,,,0,0,2,,,,0,63,37
380162,note_on,,,,,0,0,1,,,,0,80,74
380162,note_on,,,,,0,0,2,,,,0,66,37
380162,note_off,,,,,8,0,1,,,,0,81,64
380162,note_on,,,,,30,0,2,,,,0,58,37
380162,control_change,,,,,0,0,1,,64,95,0,,
380282,note_on,,,,,0,0,1,,,,0,79,70
380282,note_off,,,,,120,0,1,,,,0,80,64
380342,note_off,,,,,180,0,2,,,,0,66,64
380342,note_off,,,,,0,0,2,,,,0,63,64
380342,note_off,,,,,0,0,2,,,,0,58,64
380402,note_on,,,,,0,0,1,,,,0,78,65
380402,note_off,,,,,120,0,1,,,,0,79,64
380402,note_on,,,,,0,0,2,,,,0,63,26
380402,note_on,,,,,60,0,2,,,,0,58,26
380402,note_on,,,,,0,0,2,,,,0,66,26
380492,note_off,,,,,0,0,2,,,,0,63,64
380492,note_off,,,,,0,0,2,,,,0,58,64
380492,note_off,,,,,90,0,2,,,,0,66,64
380514,control_change,,,,,112,0,1,,64,0,0,,
380522,note_on,,,,,0,0,2,,,,0,63,29
380522,note_on,,,,,30,0,2,,,,0,58,29
380522,note_on,,,,,0,0,2,,,,0,66,29
380522,note_on,,,,,0,0,1,,,,0,79,61
380522,control_change,,,,,0,0,1,,64,96,0,,
380522,note_off,,,,,8,0,1,,,,0,78,64
380642,note_off,,,,,120,0,1,,,,0,79,64
380642,note_on,,,,,0,0,1,,,,0,80,57
380702,note_off,,,,,180,0,2,,,,0,66,64
380702,note_off,,,,,0,0,2,,,,0,63,64
380702,note_off,,,,,0,0,2,,,,0,58,64
380762,note_on,,,,,0,0,2,,,,0,63,27
380762,note_on,,,,,60,0,2,,,,0,58,27
380762,note_on,,,,,0,0,2,,,,0,66,27
380762,note_off,,,,,120,0,1,,,,0,80,64
380762,note_on,,,,,0,0,1,,,,0,81,54
380780,set_tempo,,,,,8536,1,0,245902,,,,,
380852,note_off,,,,,0,0,2,,,,0,58,64
380852,note_off,,,,,0,0,2,,,,0,63,64
380852,note_off,,,,,90,0,2,,,,0,66,64
380874,control_change,,,,,112,0,1,,64,0,0,,
380882,note_on,,,,,30,0,2,,,,0,49,41
380882,note_off,,,,,8,0,1,,,,0,81,64
380882,note_on,,,,,0,0,1,,,,0,82,51
380882,control_change,,,,,0,0,1,,64,96,0,,
381062,note_off,,,,,180,0,1,,,,0,82,64
381122,note_on,,,,,0,0,2,,,,0,54,29
381122,note_on,,,,,0,0,2,,,,0,58,29
381122,note_on,,,,,0,0,2,,,,0,61,29
381122,note_off,,,,,240,0,2,,,,0,49,64
381128,control_change,,,,,66,0,1,,64,0,0,,
381212,note_off,,,,,0,0,2,,,,0,61,64
381212,note_off,,,,,90,0,2,,,,0,54,64
381212,note_off,,,,,0,0,2,,,,0,58,64
381242,control_change,,,,,0,0,1,,64,95,0,,
381242,note_on,,,,,114,0,1,,,,0,85,60
381242,note_on,,,,,30,0,2,,,,0,61,34
381242,note_on,,,,,0,0,2,,,,0,54,34
381242,note_on,,,,,0,0,2,,,,0,58,34
381422,note_off,,,,,0,0,2,,,,0,58,64
381422,note_off,,,,,180,0,2,,,,0,54,64
381422,note_off,,,,,0,0,2,,,,0,61,64
381482,note_on,,,,,0,0,2,,,,0,58,33
381482,note_on,,,,,0,0,2,,,,0,54,33
381482,control_change,,,,,240,0,1,,64,0,0,,
381482,note_on,,,,,60,0,2,,,,0,61,33
381542,note_off,,,,,60,0,1,,,,0,85,64
381572,note_off,,,,,0,0,2,,,,0,58,64
381572,note_off,,,,,0,0,2,,,,0,61,64
381572,note_off,,,,,90,0,2,,,,0,54,64
381602,note_on,,,,,30,0,2,,,,0,49,50
381602,control_change,,,,,0,0,1,,64,95,0,,
381602,note_on,,,,,60,0,1,,,,0,80,58
381782,note_off,,,,,180,0,1,,,,0,80,64
381820,set_tempo,,,,,1040,1,0,247934,,,,,
381842,note_on,,,,,0,0,2,,,,0,53,35
381842,note_on,,,,,0,0,2,,,,0,59,35
381842,control_change,,,,,60,0,1,,64,0,0,,
381842,note_on,,,,,0,0,2,,,,0,61,35
381842,note_off,,,,,240,0,2,,,,0,49,64
381932,note_off,,,,,0,0,2,,,,0,59,64
381932,note_off,,,,,0,0,2,,,,0,61,64
381932,note_off,,,,,90,0,2,,,,0,53,64
381962,note_on,,,,,0,0,2,,,,0,59,43
381962,note_on,,,,,0,0,2,,,,0,53,43
381962,note_on,,,,,120,0,1,,,,0,85,74
381962,note_on,,,,,30,0,2,,,,0,61,43
381968,control_change,,,,,6,0,1,,64,94,0,,
382142,note_off,,,,,0,0,2,,,,0,61,64
382142,note_off,,,,,0,0,2,,,,0,59,64
382142,note_off,,,,,180,0,2,,,,0,53,64
382202,note_on,,,,,0,0,2,,,,0,53,38
382202,note_on,,,,,0,0,2,,,,0,59,38
382202,note_on,,,,,60,0,2,,,,0,61,38
382202,control_change,,,,,234,0,1,,64,0,0,,
382262,note_off,,,,,60,0,1,,,,0,85,64
382292,note_off,,,,,90,0,2,,,,0,53,64
382292,note_off,,,,,0,0,2,,,,0,61,64
382292,note_off,,,,,0,0,2,,,,0,59,64
382322,note_on,,,,,30,0,2,,,,0,49,54
382322,control_change,,,,,0,0,1,,64,95,0,,
382322,note_on,,,,,60,0,1,,,,0,45,83
382440,set_tempo,,,,,620,1,0,252101,,,,,
382562,control_change,,,,,0,0,1,,64,0,0,,
382562,note_off,,,,,240,0,1,,,,0,45,64
382562,note_off,,,,,240,0,2,,,,0,49,64
382562,note_on,,,,,0,0,2,,,,0,57,62
382562,note_on,,,,,0,0,2,,,,0,61,62
382562,note_on,,,,,0,0,2,,,,0,54,62
382652,note_off,,,,,0,0,2,,,,0,57,64
382652,note_off,,,,,90,0,2,,,,0,54,64
382652,note_off,,,,,0,0,2,,,,0,61,64
382682,note_on,,,,,0,0,2,,,,0,61,67
382682,control_change,,,,,0,0,1,,64,95,0,,
382682,note_on,,,,,30,0,2,,,,0,57,67
382682,note_on,,,,,120,0,1,,,,0,49,77
382682,note_on,,,,,0,0,2,,,,0,54,67
382760,set_tempo,,,,,320,1,0,254237,,,,,
382862,note_off,,,,,0,0,2,,,,0,57,64
382862,note_off,,,,,0,0,2,,,,0,61,64
382862,note_off,,,,,180,0,2,,,,0,54,64
382922,note_on,,,,,0,0,2,,,,0,61,62
382922,note_on,,,,,60,0,2,,,,0,57,62
382922,note_on,,,,,0,0,2,,,,0,54,62
382922,control_change,,,,,240,0,1,,64,0,0,,
382982,note_off,,,,,60,0,1,,,,0,49,64
383012,note_off,,,,,0,0,2,,,,0,57,64
383012,note_off,,,,,90,0,2,,,,0,54,64
383012,note_off,,,,,0,0,2,,,,0,61,64
383040,set_tempo,,,,,280,1,0,262009,,,,,
383042,note_on,,,,,60,0,1,,,,0,44,93
383042,note_on,,,,,30,0,2,,,,0,49,85
383042,control_change,,,,,0,0,1,,64,96,0,,
383222,note_off,,,,,180,0,1,,,,0,44,64
383240,set_tempo,,,,,200,1,0,277778,,,,,
383282,note_off,,,,,240,0,2,,,,0,49,64
383282,note_on,,,,,0,0,2,,,,0,61,64
383282,note_on,,,,,0,0,2,,,,0,59,64
383282,note_on,,,,,0,0,2,,,,0,53,64
383282,control_change,,,,,60,0,1,,64,0,0,,
383360,set_tempo,,,,,120,1,0,283019,,,,,
383372,note_off,,,,,0,0,2,,,,0,59,64
383372,note_off,,,,,0,0,2,,,,0,61,64
383372,note_off,,,,,90,0,2,,,,0,53,64
383400,set_tempo,,,,,40,1,0,306122,,,,,
383402,note_on,,,,,0,0,2,,,,0,53,73
383402,control_change,,,,,0,0,1,,64,95,0,,
383402,note_on,,,,,120,0,1,,,,0,49,84
383402,note_on,,,,,30,0,2,,,,0,61,73
383402,note_on,,,,,0,0,2,,,,0,59,73
383480,set_tempo,,,,,80,1,0,310881,,,,,
383560,set_tempo,,,,,80,1,0,320856,,,,,
383580,set_tempo,,,,,20,1,0,337079,,,,,
383582,note_off,,,,,180,0,2,,,,0,53,64
383582,note_off,,,,,0,0,2,,,,0,59,64
383582,note_off,,,,,0,0,2,,,,0,61,64
383642,note_on,,,,,60,0,2,,,,0,61,65
383642,note_on,,,,,0,0,2,,,,0,59,65
383642,note_on,,,,,0,0,2,,,,0,53,65
383664,set_tempo,,,,,84,1,0,377358,,,,,
383668,control_change,,,,,266,0,1,,64,0,0,,
383684,set_tempo,,,,,20,1,0,379747,,,,,
383702,note_off,,,,,34,0,1,,,,0,49,64
383704,set_tempo,,,,,20,1,0,731707,,,,,
383724,set_tempo,,,,,20,1,0,714286,,,,,
383732,note_off,,,,,0,0,2,,,,0,59,64
383732,note_off,,,,,0,0,2,,,,0,61,64
383732,note_off,,,,,90,0,2,,,,0,53,64
383762,note_on,,,,,30,0,2,,,,0,37,70
383762,control_change,,,,,0,0,1,,64,95,0,,
383762,note_on,,,,,0,0,1,,,,0,57,40
383762,note_on,,,,,60,0,1,,,,0,54,40
383764,set_tempo,,,,,40,1,0,301508,,,,,
383804,set_tempo,,,,,40,1,0,294118,,,,,
383844,set_tempo,,,,,40,1,0,289855,,,,,
383884,set_tempo,,,,,40,1,0,284360,,,,,
384002,note_off,,,,,240,0,1,,,,0,57,64
384002,note_off,,,,,0,0,1,,,,0,54,64
384002,note_on,,,,,0,0,1,,,,0,61,27
384002,note_on,,,,,0,0,1,,,,0,57,27
384002,note_on,,,,,0,0,1,,,,0,54,27
384002,control_change,,,,,0,0,1,,64,0,0,,
384002,note_off,,,,,240,0,2,,,,0,37,64
384004,set_tempo,,,,,120,1,0,280374,,,,,
384092,note_off,,,,,0,0,1,,,,0,57,64
384092,note_off,,,,,0,0,1,,,,0,61,64
384092,note_off,,,,,90,0,1,,,,0,54,64
384120,note_on,,,,,118,0,2,,,,0,30,52
384122,note_on,,,,,30,0,1,,,,0,61,35
384122,note_on,,,,,0,0,1,,,,0,57,35
384122,note_on,,,,,0,0,1,,,,0,54,35
384184,set_tempo,,,,,180,1,0,273973,,,,,
384300,note_off,,,,,180,0,2,,,,0,30,64
384302,note_off,,,,,180,0,1,,,,0,54,64
384302,note_off,,,,,0,0,1,,,,0,57,64
384302,note_off,,,,,0,0,1,,,,0,61,64
384344,set_tempo,,,,,160,1,0,269058,,,,,
384362,note_on,,,,,0,0,1,,,,0,54,32
384362,note_on,,,,,0,0,1,,,,0,57,32
384362,note_on,,,,,60,0,1,,,,0,61,32
384452,note_off,,,,,90,0,1,,,,0,54,64
384452,note_off,,,,,0,0,1,,,,0,57,64
384452,note_off,,,,,0,0,1,,,,0,61,64
384464,set_tempo,,,,,120,1,0,265487,,,,,
384482,note_on,,,,,30,0,1,,,,0,61,42
384482,note_on,,,,,0,0,1,,,,0,57,42
384482,note_on,,,,,0,0,1,,,,0,54,42
384584,set_tempo,,,,,120,1,0,263158,,,,,
384602,note_on,,,,,302,0,2,,,,0,45,54
384722,note_on,,,,,0,0,1,,,,0,54,34
384722,note_off,,,,,240,0,1,,,,0,54,64
384722,note_on,,,,,0,0,1,,,,0,57,34
384722,note_on,,,,,0,0,1,,,,0,62,34
384722,note_off,,,,,0,0,1,,,,0,57,64
384722,note_off,,,,,0,0,1,,,,0,61,64
384722,note_off,,,,,120,0,2,,,,0,45,64
384722,note_on,,,,,0,0,2,,,,0,44,56
384744,set_tempo,,,,,160,1,0,259740,,,,,
384812,note_off,,,,,0,0,1,,,,0,57,64
384812,note_off,,,,,0,0,1,,,,0,62,64
384812,note_off,,,,,90,0,1,,,,0,54,64
384842,note_off,,,,,120,0,2,,,,0,44,64
384842,note_on,,,,,0,0,2,,,,0,45,61
384842,note_on,,,,,30,0,1,,,,0,62,43
384842,note_on,,,,,0,0,1,,,,0,57,43
384842,note_on,,,,,0,0,1,,,,0,54,43
384962,note_off,,,,,120,0,2,,,,0,45,64
384962,note_on,,,,,0,0,2,,,,0,44,63
384984,set_tempo,,,,,240,1,0,256410,,,,,
385022,note_off,,,,,0,0,1,,,,0,57,64
385022,note_off,,,,,180,0,1,,,,0,54,64
385022,note_off,,,,,0,0,1,,,,0,62,64
385064,set_tempo,,,,,80,1,0,255319,,,,,
385082,note_on,,,,,0,0,1,,,,0,54,40
385082,note_on,,,,,60,0,1,,,,0,63,40
385082,note_on,,,,,0,0,1,,,,0,57,40
385082,note_on,,,,,0,0,2,,,,0,42,66
385082,note_off,,,,,120,0,2,,,,0,44,64
385172,note_off,,,,,0,0,1,,,,0,57,64
385172,note_off,,,,,90,0,1,,,,0,54,64
385172,note_off,,,,,0,0,1,,,,0,63,64
385202,note_on,,,,,30,0,1,,,,0,66,52
385202,note_on,,,,,0,0,1,,,,0,59,52
385202,note_on,,,,,0,0,1,,,,0,56,52
385202,note_on,,,,,0,0,2,,,,0,40,68
385202,note_off,,,,,120,0,2,,,,0,42,64
385364,set_tempo,,,,,300,1,0,254237,,,,,
385442,note_off,,,,,0,0,1,,,,0,59,64
385442,note_on,,,,,0,0,1,,,,0,56,44
385442,note_off,,,,,240,0,1,,,,0,56,64
385442,note_off,,,,,0,0,1,,,,0,66,64
385442,note_on,,,,,0,0,1,,,,0,64,44
385442,note_off,,,,,240,0,2,,,,0,40,64
385442,note_on,,,,,0,0,1,,,,0,59,44
385504,set_tempo,,,,,140,1,0,253165,,,,,
385532,note_off,,,,,90,0,1,,,,0,56,64
385532,note_off,,,,,0,0,1,,,,0,59,64
385532,note_off,,,,,0,0,1,,,,0,64,64
385560,note_on,,,,,118,0,2,,,,0,52,56
385562,note_on,,,,,30,0,1,,,,0,57,42
385562,note_on,,,,,0,0,1,,,,0,60,42
385562,note_on,,,,,0,0,1,,,,0,64,42
385664,set_tempo,,,,,160,1,0,252101,,,,,
385740,note_off,,,,,180,0,2,,,,0,52,64
385742,note_off,,,,,180,0,1,,,,0,64,64
385742,note_off,,,,,0,0,1,,,,0,57,64
385742,note_off,,,,,0,0,1,,,,0,60,64
385802,note_on,,,,,0,0,1,,,,0,57,50
385802,note_on,,,,,0,0,1,,,,0,60,50
385802,note_on,,,,,60,0,1,,,,0,64,50
385892,note_off,,,,,0,0,1,,,,0,64,64
385892,note_off,,,,,90,0,1,,,,0,57,64
385892,note_off,,,,,0,0,1,,,,0,60,64
385922,note_on,,,,,30,0,1,,,,0,64,57
385922,note_on,,,,,182,0,2,,,,0,66,69
385922,note_on,,,,,0,0,1,,,,0,61,57
385922,note_on,,,,,0,0,1,,,,0,58,57
386044,set_tempo,,,,,380,1,0,248963,,,,,
386162,note_on,,,,,0,0,1,,,,0,58,52
386162,note_on,,,,,0,0,1,,,,0,61,52
386162,note_on,,,,,0,0,1,,,,0,64,52
386162,note_off,,,,,0,0,1,,,,0,64,64
386162,note_off,,,,,0,0,1,,,,0,61,64
386162,note_off,,,,,240,0,1,,,,0,58,64
386162,note_off,,,,,240,0,2,,,,0,66,64
386184,set_tempo,,,,,140,1,0,247934,,,,,
386252,note_off,,,,,0,0,1,,,,0,61,64
386252,note_off,,,,,90,0,1,,,,0,58,64
386252,note_off,,,,,0,0,1,,,,0,64,64
386282,note_on,,,,,120,0,2,,,,0,76,61
386282,note_on,,,,,0,0,1,,,,0,62,46
386282,note_on,,,,,30,0,1,,,,0,64,46
386282,note_on,,,,,0,0,1,,,,0,59,46
386282,note_on,,,,,0,0,2,,,,0,68,61
386344,set_tempo,,,,,160,1,0,246914,,,,,
386460,set_tempo,,,,,116,1,0,240964,,,,,
386462,note_off,,,,,0,0,2,,,,0,76,64
386462,note_off,,,,,0,0,1,,,,0,62,64
386462,note_off,,,,,180,0,1,,,,0,59,64
386462,note_off,,,,,180,0,2,,,,0,68,64
386462,note_off,,,,,0,0,1,,,,0,64,64
386480,set_tempo,,,,,20,1,0,243902,,,,,
386522,note_on,,,,,0,0,1,,,,0,62,42
386522,note_on,,,,,60,0,1,,,,0,64,42
386522,note_on,,,,,0,0,1,,,,0,59,42
386612,note_off,,,,,90,0,1,,,,0,59,64
386612,note_off,,,,,0,0,1,,,,0,62,64
386612,note_off,,,,,0,0,1,,,,0,64,64
386642,note_on,,,,,30,0,1,,,,0,64,40
386642,note_on,,,,,0,0,1,,,,0,61,40
386642,control_change,,,,,0,0,1,,64,95,0,,
386642,note_on,,,,,180,0,2,,,,0,40,85
386740,set_tempo,,,,,260,1,0,240000,,,,,
386880,set_tempo,,,,,140,1,0,240964,,,,,
386882,note_off,,,,,240,0,2,,,,0,40,64
386882,note_off,,,,,240,0,1,,,,0,61,64
386882,note_on,,,,,0,0,1,,,,0,69,49
386882,control_change,,,,,0,0,1,,64,0,0,,
386882,note_on,,,,,0,0,1,,,,0,64,49
386882,note_on,,,,,0,0,1,,,,0,61,49
386882,note_off,,,,,0,0,1,,,,0,64,64
386972,note_off,,,,,0,0,1,,,,0,69,64
386972,note_off,,,,,0,0,1,,,,0,61,64
386972,note_off,,,,,90,0,1,,,,0,64,64
387002,note_on,,,,,120,0,2,,,,0,33,69
387002,note_on,,,,,0,0,1,,,,0,64,52
387002,note_on,,,,,30,0,1,,,,0,69,52
387002,note_on,,,,,0,0,1,,,,0,61,52
387182,note_off,,,,,180,0,1,,,,0,64,64
387182,note_off,,,,,180,0,2,,,,0,33,64
387182,note_off,,,,,0,0,1,,,,0,61,64
387182,note_off,,,,,0,0,1,,,,0,69,64
387242,note_on,,,,,60,0,1,,,,0,69,46
387242,note_on,,,,,0,0,1,,,,0,61,46
387242,note_on,,,,,0,0,1,,,,0,64,46
387332,note_off,,,,,0,0,1,,,,0,61,64
387332,note_off,,,,,0,0,1,,,,0,69,64
387332,note_off,,,,,90,0,1,,,,0,64,64
387362,note_on,,,,,30,0,1,,,,0,68,59
387362,note_on,,,,,0,0,1,,,,0,61,59
387362,note_on,,,,,0,0,1,,,,0,64,59
387482,note_on,,,,,300,0,2,,,,0,49,76
387602,note_on,,,,,0,0,1,,,,0,61,52
387602,note_on,,,,,0,0,1,,,,0,69,52
387602,note_on,,,,,0,0,1,,,,0,64,52
387602,note_off,,,,,240,0,1,,,,0,64,64
387602,note_off,,,,,0,0,1,,,,0,61,64
387602,note_off,,,,,120,0,2,,,,0,49,64
387602,note_on,,,,,0,0,2,,,,0,48,81
387602,note_off,,,,,0,0,1,,,,0,68,64
387692,note_off,,,,,90,0,1,,,,0,61,64
387692,note_off,,,,,0,0,1,,,,0,69,64
387692,note_off,,,,,0,0,1,,,,0,64,64
387722,note_on,,,,,0,0,1,,,,0,64,66
387722,note_off,,,,,120,0,2,,,,0,48,64
387722,note_on,,,,,0,0,2,,,,0,49,86
387722,note_on,,,,,0,0,1,,,,0,61,66
387722,note_on,,,,,30,0,1,,,,0,69,66
387842,note_off,,,,,120,0,2,,,,0,49,64
387842,note_on,,,,,0,0,2,,,,0,47,89
387902,note_off,,,,,180,0,1,,,,0,61,64
387902,note_off,,,,,0,0,1,,,,0,64,64
387902,note_off,,,,,0,0,1,,,,0,69,64
387962,note_on,,,,,60,0,1,,,,0,64,66
387962,note_on,,,,,0,0,1,,,,0,61,66
387962,note_on,,,,,0,0,2,,,,0,45,95
387962,note_off,,,,,120,0,2,,,,0,47,64
387962,note_on,,,,,0,0,1,,,,0,69,66
388000,set_tempo,,,,,1120,1,0,242915,,,,,
388052,note_off,,,,,90,0,1,,,,0,61,64
388052,note_off,,,,,0,0,1,,,,0,69,64
388052,note_off,,,,,0,0,1,,,,0,64,64
388082,note_on,,,,,0,0,2,,,,0,44,99
388082,note_on,,,,,30,0,1,,,,0,73,71
388082,note_off,,,,,120,0,2,,,,0,45,64
388082,note_on,,,,,0,0,1,,,,0,66,71
388082,note_on,,,,,0,0,1,,,,0,62,71
388260,set_tempo,,,,,260,1,0,246914,,,,,
388322,note_on,,,,,0,0,1,,,,0,71,62
388322,note_on,,,,,0,0,1,,,,0,66,62
388322,note_off,,,,,0,0,1,,,,0,73,64
388322,note_off,,,,,0,0,1,,,,0,66,64
388322,note_off,,,,,240,0,1,,,,0,62,64
388322,note_on,,,,,0,0,1,,,,0,62,62
388322,note_off,,,,,240,0,2,,,,0,44,64
388412,note_off,,,,,90,0,1,,,,0,62,64
388412,note_off,,,,,0,0,1,,,,0,71,64
388412,note_off,,,,,0,0,1,,,,0,66,64
388442,note_on,,,,,120,0,2,,,,0,37,81
388442,note_on,,,,,0,0,1,,,,0,71,55
388442,note_on,,,,,0,0,1,,,,0,63,55
388442,note_on,,,,,30,0,1,,,,0,66,55
388622,note_off,,,,,180,0,1,,,,0,63,64
388622,note_off,,,,,0,0,1,,,,0,71,64
388622,note_off,,,,,0,0,1,,,,0,66,64
388622,note_off,,,,,180,0,2,,,,0,37,64
388682,note_on,,,,,60,0,1,,,,0,63,58
388682,note_on,,,,,0,0,1,,,,0,66,58
388682,note_on,,,,,0,0,1,,,,0,71,58
388772,note_off,,,,,90,0,1,,,,0,71,64
388772,note_off,,,,,0,0,1,,,,0,66,64
388772,note_off,,,,,0,0,1,,,,0,63,64
388802,note_on,,,,,0,0,1,,,,0,64,63
388802,note_on,,,,,0,0,1,,,,0,67,63
388802,note_on,,,,,30,0,1,,,,0,71,63
388802,note_on,,,,,180,0,2,,,,0,61,86
389042,note_on,,,,,0,0,1,,,,0,64,56
389042,note_on,,,,,0,0,1,,,,0,71,56
389042,note_off,,,,,0,0,1,,,,0,71,64
389042,note_off,,,,,0,0,1,,,,0,67,64
389042,note_on,,,,,0,0,1,,,,0,67,56
389042,note_off,,,,,240,0,1,,,,0,64,64
389042,note_off,,,,,240,0,2,,,,0,61,64
389132,note_off,,,,,90,0,1,,,,0,64,64
389132,note_off,,,,,0,0,1,,,,0,67,64
389132,note_off,,,,,0,0,1,,,,0,71,64
389160,set_tempo,,,,,900,1,0,250000,,,,,
389162,note_on,,,,,120,0,2,,,,0,73,68
389162,note_on,,,,,30,0,1,,,,0,68,54
389162,note_on,,,,,0,0,1,,,,0,71,54
389162,note_on,,,,,0,0,1,,,,0,65,54
389342,note_off,,,,,0,0,1,,,,0,68,64
389342,note_off,,,,,0,0,1,,,,0,71,64
389342,note_off,,,,,180,0,1,,,,0,65,64
389342,note_off,,,,,180,0,2,,,,0,73,64
389402,note_on,,,,,60,0,1,,,,0,68,49
389402,note_on,,,,,0,0,1,,,,0,71,49
389402,note_on,,,,,0,0,1,,,,0,65,49
389492,note_off,,,,,90,0,1,,,,0,65,64
389492,note_off,,,,,0,0,1,,,,0,71,64
389492,note_off,,,,,0,0,1,,,,0,68,64
389522,note_on,,,,,180,0,2,,,,0,54,49
389522,note_on,,,,,30,0,1,,,,0,69,40
389522,control_change,,,,,0,0,1,,64,95,0,,
389522,note_on,,,,,0,0,1,,,,0,66,40
389700,set_tempo,,,,,540,1,0,246914,,,,,
389754,control_change,,,,,232,0,1,,64,0,0,,
389762,note_off,,,,,240,0,2,,,,0,54,64
389762,note_on,,,,,0,0,1,,,,0,66,35
389762,note_on,,,,,0,0,1,,,,0,69,35
389762,note_on,,,,,0,0,1,,,,0,74,35
389762,note_off,,,,,0,0,1,,,,0,69,64
389762,note_off,,,,,8,0,1,,,,0,66,64
389852,note_off,,,,,0,0,1,,,,0,74,64
389852,note_off,,,,,0,0,1,,,,0,69,64
389852,note_off,,,,,90,0,1,,,,0,66,64
389882,note_on,,,,,0,0,1,,,,0,69,32
389882,note_on,,,,,120,0,2,,,,0,78,50
389882,note_on,,,,,30,0,1,,,,0,73,32
389882,note_on,,,,,0,0,1,,,,0,66,32
390002,note_on,,,,,0,0,2,,,,0,80,54
390002,note_off,,,,,120,0,2,,,,0,78,64
390020,set_tempo,,,,,320,1,0,243902,,,,,
390062,note_off,,,,,0,0,1,,,,0,73,64
390062,note_off,,,,,180,0,1,,,,0,66,64
390062,note_off,,,,,0,0,1,,,,0,69,64
390122,note_on,,,,,60,0,1,,,,0,73,41
390122,note_on,,,,,0,0,2,,,,0,81,56
390122,note_on,,,,,0,0,1,,,,0,69,41
390122,note_on,,,,,0,0,1,,,,0,66,41
390122,note_off,,,,,120,0,2,,,,0,80,64
390180,set_tempo,,,,,160,1,0,242915,,,,,
390212,note_off,,,,,90,0,1,,,,0,66,64
390212,note_off,,,,,0,0,1,,,,0,73,64
390212,note_off,,,,,0,0,1,,,,0,69,64
390242,note_on,,,,,0,0,1,,,,0,68,45
390242,note_on,,,,,0,0,1,,,,0,74,45
390242,note_on,,,,,30,0,1,,,,0,78,45
390242,note_off,,,,,120,0,2,,,,0,81,64
390242,note_on,,,,,0,0,2,,,,0,83,62
390242,control_change,,,,,0,0,1,,64,95,0,,
390474,control_change,,,,,232,0,1,,64,0,0,,
390482,note_off,,,,,8,0,1,,,,0,68,64
390482,note_off,,,,,0,0,1,,,,0,74,64
390482,note_off,,,,,0,0,1,,,,0,78,64
390482,note_on,,,,,0,0,1,,,,0,78,36
390482,note_off,,,,,240,0,2,,,,0,83,64
390482,note_on,,,,,0,0,1,,,,0,74,36
390482,note_on,,,,,0,0,1,,,,0,68,36
390572,note_off,,,,,90,0,1,,,,0,68,64
390572,note_off,,,,,0,0,1,,,,0,74,64
390572,note_off,,,,,0,0,1,,,,0,78,64
390600,set_tempo,,,,,420,1,0,245902,,,,,
390602,control_change,,,,,0,0,1,,64,95,0,,
390602,note_on,,,,,120,0,2,,,,0,52,46
390602,note_on,,,,,30,0,1,,,,0,76,41
390602,note_on,,,,,0,0,1,,,,0,74,41
390602,note_on,,,,,0,0,1,,,,0,68,41
390760,set_tempo,,,,,160,1,0,247934,,,,,
390782,note_off,,,,,180,0,1,,,,0,68,64
390782,note_off,,,,,0,0,1,,,,0,74,64
390782,note_off,,,,,0,0,1,,,,0,76,64
390842,control_change,,,,,0,0,1,,64,0,0,,
390842,note_on,,,,,0,0,1,,,,0,68,30
390842,note_on,,,,,0,0,1,,,,0,74,30
390842,note_off,,,,,240,0,2,,,,0,52,64
390842,note_on,,,,,60,0,1,,,,0,76,30
390932,note_off,,,,,90,0,1,,,,0,68,64
390932,note_off,,,,,0,0,1,,,,0,74,64
390932,note_off,,,,,0,0,1,,,,0,76,64
390962,note_on,,,,,0,0,1,,,,0,66,40
390962,note_on,,,,,120,0,2,,,,0,54,49
390962,control_change,,,,,0,0,1,,64,95,0,,
390962,note_on,,,,,30,0,1,,,,0,69,40
391194,control_change,,,,,232,0,1,,64,0,0,,
391200,note_on,,,,,6,0,1,,,,0,74,35
391202,note_off,,,,,2,0,1,,,,0,66,64
391202,note_on,,,,,0,0,1,,,,0,66,35
391202,note_off,,,,,240,0,2,,,,0,54,64
391202,note_on,,,,,0,0,1,,,,0,69,35
391202,note_off,,,,,0,0,1,,,,0,69,64
391290,note_off,,,,,88,0,1,,,,0,74,64
391292,note_off,,,,,2,0,1,,,,0,66,64
391292,note_off,,,,,0,0,1,,,,0,69,64
391322,note_on,,,,,120,0,2,,,,0,78,50
391322,note_on,,,,,30,0,1,,,,0,73,32
391322,note_on,,,,,0,0,1,,,,0,69,32
391322,note_on,,,,,0,0,1,,,,0,66,32
391360,set_tempo,,,,,600,1,0,246914,,,,,
391442,note_off,,,,,120,0,2,,,,0,78,64
391442,note_on,,,,,0,0,2,,,,0,80,54
391502,note_off,,,,,180,0,1,,,,0,66,64
391502,note_off,,,,,0,0,1,,,,0,73,64
391502,note_off,,,,,0,0,1,,,,0,69,64
391562,note_on,,,,,0,0,1,,,,0,69,41
391562,note_on,,,,,60,0,1,,,,0,73,41
391562,note_off,,,,,120,0,2,,,,0,80,64
391562,note_on,,,,,0,0,1,,,,0,66,41
391562,note_on,,,,,0,0,2,,,,0,81,56
391600,set_tempo,,,,,240,1,0,242915,,,,,
391652,note_off,,,,,0,0,1,,,,0,69,64
391652,note_off,,,,,0,0,1,,,,0,73,64
391652,note_off,,,,,90,0,1,,,,0,66,64
391682,note_on,,,,,0,0,2,,,,0,83,62
391682,note_off,,,,,120,0,2,,,,0,81,64
391682,note_on,,,,,0,0,1,,,,0,68,45
391682,control_change,,,,,0,0,1,,64,95,0,,
391682,note_on,,,,,30,0,1,,,,0,78,45
391682,note_on,,,,,0,0,1,,,,0,74,45
391914,control_change,,,,,232,0,1,,64,0,0,,
391922,note_on,,,,,0,0,1,,,,0,74,36
391922,note_on,,,,,0,0,1,,,,0,78,36
391922,note_on,,,,,0,0,1,,,,0,68,36
391922,note_off,,,,,8,0,1,,,,0,68,64
391922,note_off,,,,,240,0,2,,,,0,83,64
391922,note_off,,,,,0,0,1,,,,0,74,64
391922,note_off,,,,,0,0,1,,,,0,78,64
391980,set_tempo,,,,,380,1,0,246914,,,,,
392012,note_off,,,,,90,0,1,,,,0,68,64
392012,note_off,,,,,0,0,1,,,,0,74,64
392012,note_off,,,,,0,0,1,,,,0,78,64
392042,note_on,,,,,120,0,2,,,,0,52,46
392042,note_on,,,,,30,0,1,,,,0,76,41
392042,note_on,,,,,0,0,1,,,,0,74,41
392042,note_on,,,,,0,0,1,,,,0,68,41
392042,control_change,,,,,0,0,1,,64,95,0,,
392140,set_tempo,,,,,160,1,0,250000,,,,,
392222,note_off,,,,,180,0,1,,,,0,68,64
392222,note_off,,,,,0,0,1,,,,0,76,64
392222,note_off,,,,,0,0,1,,,,0,74,64
392282,note_on,,,,,60,0,1,,,,0,76,30
392282,note_on,,,,,0,0,1,,,,0,74,30
392282,note_on,,,,,0,0,1,,,,0,68,30
392282,control_change,,,,,0,0,1,,64,0,0,,
392282,note_off,,,,,240,0,2,,,,0,52,64
392372,note_off,,,,,90,0,1,,,,0,68,64
392372,note_off,,,,,0,0,1,,,,0,74,64
392372,note_off,,,,,0,0,1,,,,0,76,64
392402,note_on,,,,,120,0,2,,,,0,40,72
392402,control_change,,,,,0,0,1,,64,95,0,,
392402,note_on,,,,,0,0,1,,,,0,60,40
392402,note_on,,,,,30,0,1,,,,0,57,40
392560,set_tempo,,,,,420,1,0,253165,,,,,
392642,note_on,,,,,0,0,1,,,,0,60,49
392642,note_off,,,,,240,0,2,,,,0,40,64
392642,note_off,,,,,240,0,1,,,,0,60,64
392642,note_off,,,,,0,0,1,,,,0,57,64
392642,note_on,,,,,0,0,1,,,,0,57,49
392642,note_on,,,,,0,0,1,,,,0,64,49
392642,control_change,,,,,0,0,1,,64,0,0,,
392732,note_off,,,,,0,0,1,,,,0,57,64
392732,note_off,,,,,0,0,1,,,,0,60,64
392732,note_off,,,,,90,0,1,,,,0,64,64
392762,note_on,,,,,120,0,2,,,,0,33,59
392762,note_on,,,,,30,0,1,,,,0,57,52
392762,note_on,,,,,0,0,1,,,,0,60,52
392762,note_on,,,,,0,0,1,,,,0,64,52
392942,note_off,,,,,0,0,1,,,,0,57,64
392942,note_off,,,,,0,0,1,,,,0,60,64
392942,note_off,,,,,180,0,2,,,,0,33,64
392942,note_off,,,,,180,0,1,,,,0,64,64
393002,note_on,,,,,60,0,1,,,,0,57,46
393002,note_on,,,,,0,0,1,,,,0,60,46
393002,note_on,,,,,0,0,1,,,,0,64,46
393092,note_off,,,,,90,0,1,,,,0,64,64
393092,note_off,,,,,0,0,1,,,,0,60,64
393092,note_off,,,,,0,0,1,,,,0,57,64
393122,note_on,,,,,0,0,1,,,,0,64,59
393122,note_on,,,,,0,0,1,,,,0,60,59
393122,note_on,,,,,30,0,1,,,,0,57,59
393242,note_on,,,,,300,0,2,,,,0,48,76
393320,set_tempo,,,,,760,1,0,248963,,,,,
393362,note_off,,,,,240,0,1,,,,0,64,64
393362,note_off,,,,,0,0,1,,,,0,60,64
393362,note_off,,,,,0,0,1,,,,0,57,64
393362,note_on,,,,,0,0,1,,,,0,65,52
393362,note_on,,,,,0,0,1,,,,0,60,52
393362,note_on,,,,,0,0,1,,,,0,57,52
393362,note_off,,,,,120,0,2,,,,0,48,64
393362,note_on,,,,,0,0,2,,,,0,47,81
393452,note_off,,,,,0,0,1,,,,0,65,64
393452,note_off,,,,,0,0,1,,,,0,60,64
393452,note_off,,,,,90,0,1,,,,0,57,64
393482,note_on,,,,,0,0,1,,,,0,60,66
393482,note_on,,,,,0,0,1,,,,0,65,66
393482,note_on,,,,,30,0,1,,,,0,57,66
393482,note_on,,,,,0,0,2,,,,0,48,86
393482,note_off,,,,,120,0,2,,,,0,47,64
393602,note_on,,,,,0,0,2,,,,0,47,89
393602,note_off,,,,,120,0,2,,,,0,48,64
393662,note_off,,,,,180,0,1,,,,0,60,64
393662,note_off,,,,,0,0,1,,,,0,65,64
393662,note_off,,,,,0,0,1,,,,0,57,64
393680,set_tempo,,,,,360,1,0,246914,,,,,
393722,note_off,,,,,120,0,2,,,,0,47,64
393722,note_on,,,,,60,0,1,,,,0,66,66
393722,note_on,,,,,0,0,1,,,,0,60,66
393722,note_on,,,,,0,0,1,,,,0,57,66
393722,note_on,,,,,0,0,2,,,,0,45,95
393812,note_off,,,,,0,0,1,,,,0,66,64
393812,note_off,,,,,90,0,1,,,,0,57,64
393812,note_off,,,,,0,0,1,,,,0,60,64
393842,note_on,,,,,0,0,1,,,,0,69,71
393842,note_on,,,,,0,0,1,,,,0,62,71
393842,note_on,,,,,30,0,1,,,,0,59,71
393842,note_on,,,,,0,0,2,,,,0,43,99
393842,note_off,,,,,120,0,2,,,,0,45,64
394082,note_off,,,,,240,0,1,,,,0,62,64
394082,note_off,,,,,0,0,1,,,,0,69,64
394082,note_off,,,,,0,0,1,,,,0,59,64
394082,note_on,,,,,0,0,1,,,,0,67,59
394082,note_on,,,,,0,0,1,,,,0,59,59
394082,note_on,,,,,0,0,1,,,,0,62,59
394082,note_off,,,,,240,0,2,,,,0,43,64
394140,set_tempo,,,,,460,1,0,243902,,,,,
394172,note_off,,,,,0,0,1,,,,0,59,64
394172,note_off,,,,,90,0,1,,,,0,62,64
394172,note_off,,,,,0,0,1,,,,0,67,64
394202,note_on,,,,,0,0,1,,,,0,63,62
394202,note_on,,,,,0,0,1,,,,0,67,62
394202,note_on,,,,,30,0,1,,,,0,60,62
394202,note_on,,,,,120,0,2,,,,0,31,89
394382,note_off,,,,,0,0,1,,,,0,67,64
394382,note_off,,,,,180,0,2,,,,0,31,64
394382,note_off,,,,,180,0,1,,,,0,63,64
394382,note_off,,,,,0,0,1,,,,0,60,64
394442,note_on,,,,,0,0,1,,,,0,63,69
394442,note_on,,,,,0,0,1,,,,0,67,69
394442,note_on,,,,,60,0,1,,,,0,60,69
394520,set_tempo,,,,,380,1,0,240964,,,,,
394532,note_off,,,,,0,0,1,,,,0,60,64
394532,note_off,,,,,0,0,1,,,,0,67,64
394532,note_off,,,,,90,0,1,,,,0,63,64
394562,note_on,,,,,30,0,1,,,,0,61,72
394562,note_on,,,,,180,0,2,,,,0,69,95
394562,note_on,,,,,0,0,1,,,,0,67,72
394562,note_on,,,,,0,0,1,,,,0,64,72
394802,note_off,,,,,0,0,1,,,,0,61,64
394802,note_on,,,,,0,0,1,,,,0,61,76
394802,note_on,,,,,0,0,1,,,,0,67,76
394802,note_on,,,,,0,0,1,,,,0,64,76
394802,note_off,,,,,240,0,1,,,,0,64,64
394802,note_off,,,,,0,0,1,,,,0,67,64
394802,note_off,,,,,240,0,2,,,,0,69,64
394892,note_off,,,,,0,0,1,,,,0,61,64
394892,note_off,,,,,0,0,1,,,,0,67,64
394892,note_off,,,,,90,0,1,,,,0,64,64
394920,set_tempo,,,,,400,1,0,238095,,,,,
394922,note_on,,,,,0,0,2,,,,0,79,102
394922,note_on,,,,,120,0,2,,,,0,71,102
394922,note_on,,,,,0,0,1,,,,0,65,77
394922,note_on,,,,,0,0,1,,,,0,67,77
394922,note_on,,,,,30,0,1,,,,0,62,77
395064,set_tempo,,,,,144,1,0,237154,,,,,
395102,note_off,,,,,0,0,2,,,,0,71,64
395102,note_off,,,,,180,0,2,,,,0,79,64
395102,note_off,,,,,0,0,1,,,,0,62,64
395102,note_off,,,,,0,0,1,,,,0,67,64
395102,note_off,,,,,180,0,1,,,,0,65,64
395162,note_on,,,,,0,0,1,,,,0,65,84
395162,note_on,,,,,60,0,1,,,,0,62,84
395162,note_on,,,,,0,0,1,,,,0,67,84
395252,note_off,,,,,90,0,1,,,,0,65,64
395252,note_off,,,,,0,0,1,,,,0,67,64
395252,note_off,,,,,0,0,1,,,,0,62,64
395282,note_on,,,,,180,0,2,,,,0,43,105
395282,note_on,,,,,30,0,1,,,,0,67,92
395282,note_on,,,,,0,0,1,,,,0,64,92
395282,control_change,,,,,0,0,1,,64,95,0,,
395522,note_on,,,,,0,0,1,,,,0,72,70
395522,control_change,,,,,0,0,1,,64,0,0,,
395522,note_on,,,,,0,0,1,,,,0,67,70
395522,note_on,,,,,0,0,1,,,,0,64,70
395522,note_off,,,,,240,0,1,,,,0,64,64
395522,note_off,,,,,0,0,1,,,,0,67,64
395522,note_off,,,,,240,0,2,,,,0,43,64
395612,note_off,,,,,0,0,1,,,,0,64,64
395612,note_off,,,,,0,0,1,,,,0,72,64
395612,note_off,,,,,90,0,1,,,,0,67,64
395642,note_on,,,,,0,0,1,,,,0,67,80
395642,note_on,,,,,0,0,1,,,,0,64,80
395642,note_on,,,,,30,0,1,,,,0,72,80
395642,note_on,,,,,120,0,2,,,,0,36,95
395822,note_off,,,,,0,0,1,,,,0,72,64
395822,note_off,,,,,0,0,1,,,,0,64,64
395822,note_off,,,,,180,0,1,,,,0,67,64
395822,note_off,,,,,180,0,2,,,,0,36,64
395882,note_on,,,,,0,0,1,,,,0,67,86
395882,note_on,,,,,60,0,1,,,,0,72,86
395882,note_on,,,,,0,0,1,,,,0,64,86
395972,note_off,,,,,0,0,1,,,,0,64,64
395972,note_off,,,,,0,0,1,,,,0,72,64
395972,note_off,,,,,90,0,1,,,,0,67,64
396002,note_on,,,,,30,0,1,,,,0,71,90
396002,note_on,,,,,0,0,1,,,,0,64,90
396002,note_on,,,,,0,0,1,,,,0,67,90
396122,note_on,,,,,300,0,2,,,,0,52,93
396242,note_off,,,,,240,0,1,,,,0,67,64
396242,note_off,,,,,0,0,1,,,,0,64,64
396242,note_off,,,,,0,0,1,,,,0,71,64
396242,note_on,,,,,0,0,1,,,,0,67,86
396242,note_on,,,,,0,0,1,,,,0,72,86
396242,note_off,,,,,120,0,2,,,,0,52,64
396242,note_on,,,,,0,0,2,,,,0,51,96
396242,note_on,,,,,0,0,1,,,,0,64,86
396332,note_off,,,,,0,0,1,,,,0,67,64
396332,note_off,,,,,90,0,1,,,,0,64,64
396332,note_off,,,,,0,0,1,,,,0,72,64
396344,set_tempo,,,,,1280,1,0,238095,,,,,
396362,note_on,,,,,0,0,1,,,,0,64,94
396362,note_on,,,,,0,0,2,,,,0,52,98
396362,note_off,,,,,120,0,2,,,,0,51,64
396362,note_on,,,,,30,0,1,,,,0,72,94
396362,note_on,,,,,0,0,1,,,,0,67,94
396482,note_off,,,,,120,0,2,,,,0,52,64
396482,note_on,,,,,0,0,2,,,,0,50,100
396542,note_off,,,,,0,0,1,,,,0,72,64
396542,note_off,,,,,0,0,1,,,,0,67,64
396542,note_off,,,,,180,0,1,,,,0,64,64
396602,note_on,,,,,0,0,1,,,,0,72,86
396602,note_on,,,,,60,0,1,,,,0,67,86
396602,note_on,,,,,0,0,1,,,,0,64,86
396602,note_on,,,,,0,0,2,,,,0,48,102
396602,note_off,,,,,120,0,2,,,,0,50,64
396692,note_off,,,,,90,0,1,,,,0,64,64
396692,note_off,,,,,0,0,1,,,,0,72,64
396692,note_off,,,,,0,0,1,,,,0,67,64
396722,note_on,,,,,0,0,1,,,,0,65,95
396722,note_on,,,,,0,0,2,,,,0,47,105
396722,note_on,,,,,0,0,1,,,,0,69,95
396722,note_on,,,,,30,0,1,,,,0,76,95
396722,note_off,,,,,120,0,2,,,,0,48,64
396962,note_on,,,,,0,0,1,,,,0,69,77
396962,note_on,,,,,0,0,1,,,,0,74,77
396962,note_on,,,,,0,0,1,,,,0,65,77
396962,note_off,,,,,0,0,1,,,,0,69,64
396962,note_off,,,,,240,0,1,,,,0,65,64
396962,note_off,,,,,0,0,1,,,,0,76,64
396962,note_off,,,,,240,0,2,,,,0,47,64
397052,note_off,,,,,90,0,1,,,,0,65,64
397052,note_off,,,,,0,0,1,,,,0,74,64
397052,note_off,,,,,0,0,1,,,,0,69,64
397082,note_on,,,,,120,0,2,,,,0,40,81
397082,note_on,,,,,30,0,1,,,,0,69,83
397082,note_on,,,,,0,0,1,,,,0,74,83
397082,note_on,,,,,0,0,1,,,,0,66,83
397120,set_tempo,,,,,776,1,0,241935,,,,,
397262,note_off,,,,,180,0,2,,,,0,40,64
397262,note_off,,,,,0,0,1,,,,0,74,64
397262,note_off,,,,,180,0,1,,,,0,66,64
397262,note_off,,,,,0,0,1,,,,0,69,64
397322,note_on,,,,,60,0,1,,,,0,66,81
397322,note_on,,,,,0,0,1,,,,0,69,81
397322,note_on,,,,,0,0,1,,,,0,74,81
397412,note_off,,,,,90,0,1,,,,0,74,64
397412,note_off,,,,,0,0,1,,,,0,69,64
397412,note_off,,,,,0,0,1,,,,0,66,64
397442,note_on,,,,,30,0,1,,,,0,74,78
397442,note_on,,,,,0,0,1,,,,0,70,78
397442,note_on,,,,,0,0,1,,,,0,67,78
397442,note_on,,,,,180,0,2,,,,0,64,86
397500,set_tempo,,,,,380,1,0,243902,,,,,
397660,set_tempo,,,,,160,1,0,246914,,,,,
397682,note_off,,,,,240,0,2,,,,0,64,64
397682,note_off,,,,,0,0,1,,,,0,74,64
397682,note_on,,,,,0,0,1,,,,0,74,63
397682,note_on,,,,,0,0,1,,,,0,70,63
397682,note_on,,,,,0,0,1,,,,0,67,63
397682,note_off,,,,,0,0,1,,,,0,70,64
397682,note_off,,,,,240,0,1,,,,0,67,64
397772,note_off,,,,,0,0,1,,,,0,74,64
397772,note_off,,,,,90,0,1,,,,0,67,64
397772,note_off,,,,,0,0,1,,,,0,70,64
397802,note_on,,,,,0,0,1,,,,0,68,68
397802,note_on,,,,,0,0,1,,,,0,74,68
397802,note_on,,,,,120,0,2,,,,0,76,68
397802,note_on,,,,,30,0,1,,,,0,71,68
397820,set_tempo,,,,,160,1,0,250000,,,,,
397982,note_off,,,,,180,0,2,,,,0,76,64
397982,note_off,,,,,180,0,1,,,,0,68,64
397982,note_off,,,,,0,0,1,,,,0,74,64
397982,note_off,,,,,0,0,1,,,,0,71,64
398040,set_tempo,,,,,220,1,0,252101,,,,,
398042,note_on,,,,,0,0,1,,,,0,68,56
398042,note_on,,,,,0,0,1,,,,0,74,56
398042,note_on,,,,,60,0,1,,,,0,71,56
398132,note_off,,,,,90,0,1,,,,0,68,64
398132,note_off,,,,,0,0,1,,,,0,74,64
398132,note_off,,,,,0,0,1,,,,0,71,64
398162,note_on,,,,,180,0,2,,,,0,36,60
398162,note_on,,,,,30,0,1,,,,0,72,56
398162,note_on,,,,,0,0,1,,,,0,69,56
398162,control_change,,,,,0,0,1,,64,95,0,,
398340,set_tempo,,,,,300,1,0,250000,,,,,
398380,set_tempo,,,,,40,1,0,247934,,,,,
398394,control_change,,,,,232,0,1,,64,0,0,,
398402,note_off,,,,,240,0,2,,,,0,36,64
398402,note_on,,,,,0,0,1,,,,0,77,48
398402,note_on,,,,,0,0,1,,,,0,72,48
398402,note_on,,,,,0,0,1,,,,0,69,48
398402,note_off,,,,,0,0,1,,,,0,72,64
398402,note_off,,,,,8,0,1,,,,0,69,64
398492,note_off,,,,,90,0,1,,,,0,69,64
398492,note_off,,,,,0,0,1,,,,0,72,64
398492,note_off,,,,,0,0,1,,,,0,77,64
398522,note_on,,,,,0,0,1,,,,0,72,46
398522,note_on,,,,,120,0,2,,,,0,60,50
398522,note_on,,,,,30,0,1,,,,0,76,46
398522,note_on,,,,,0,0,1,,,,0,69,46
398540,set_tempo,,,,,160,1,0,245902,,,,,
398642,note_off,,,,,120,0,2,,,,0,60,64
398642,note_on,,,,,0,0,2,,,,0,62,54
398702,note_off,,,,,180,0,1,,,,0,69,64
398702,note_off,,,,,0,0,1,,,,0,72,64
398702,note_off,,,,,0,0,1,,,,0,76,64
398762,note_on,,,,,0,0,1,,,,0,69,41
398762,note_on,,,,,0,0,1,,,,0,72,41
398762,note_on,,,,,0,0,2,,,,0,64,56
398762,note_off,,,,,120,0,2,,,,0,62,64
398762,note_on,,,,,60,0,1,,,,0,76,41
398852,note_off,,,,,0,0,1,,,,0,72,64
398852,note_off,,,,,0,0,1,,,,0,76,64
398852,note_off,,,,,90,0,1,,,,0,69,64
398882,note_on,,,,,30,0,1,,,,0,81,45
398882,note_on,,,,,0,0,1,,,,0,77,45
398882,note_on,,,,,0,0,1,,,,0,71,45
398882,control_change,,,,,0,0,1,,64,95,0,,
398882,note_on,,,,,0,0,2,,,,0,65,62
398882,note_off,,,,,120,0,2,,,,0,64,64
399114,control_change,,,,,232,0,1,,64,0,0,,
399122,note_off,,,,,8,0,1,,,,0,71,64
399122,note_off,,,,,0,0,1,,,,0,77,64
399122,note_off,,,,,0,0,1,,,,0,81,64
399122,note_on,,,,,0,0,1,,,,0,77,36
399122,note_on,,,,,0,0,1,,,,0,71,36
399122,note_on,,,,,0,0,1,,,,0,81,36
399122,note_off,,,,,240,0,2,,,,0,65,64
399212,note_off,,,,,90,0,1,,,,0,71,64
399212,note_off,,,,,0,0,1,,,,0,77,64
399212,note_off,,,,,0,0,1,,,,0,81,64
399240,set_tempo,,,,,700,1,0,246914,,,,,
399242,control_change,,,,,0,0,1,,64,95,0,,
399242,note_on,,,,,120,0,2,,,,0,35,56
399242,note_on,,,,,30,0,1,,,,0,79,41
399242,note_on,,,,,0,0,1,,,,0,77,41
399242,note_on,,,,,0,0,1,,,,0,71,41
399360,set_tempo,,,,,120,1,0,250000,,,,,
399422,note_off,,,,,0,0,1,,,,0,77,64
399422,note_off,,,,,0,0,1,,,,0,79,64
399422,note_off,,,,,180,0,1,,,,0,71,64
399482,note_off,,,,,240,0,2,,,,0,35,64
399482,note_on,,,,,60,0,1,,,,0,79,30
399482,note_on,,,,,0,0,1,,,,0,77,30
399482,note_on,,,,,0,0,1,,,,0,71,30
399482,control_change,,,,,0,0,1,,64,0,0,,
399572,note_off,,,,,90,0,1,,,,0,71,64
399572,note_off,,,,,0,0,1,,,,0,77,64
399572,note_off,,,,,0,0,1,,,,0,79,64
399602,note_on,,,,,0,0,1,,,,0,69,40
399602,control_change,,,,,0,0,1,,64,95,0,,
399602,note_on,,,,,120,0,2,,,,0,36,59
399602,note_on,,,,,30,0,1,,,,0,72,40
399834,control_change,,,,,232,0,1,,64,0,0,,
399840,note_on,,,,,6,0,1,,,,0,77,35
399842,note_off,,,,,0,0,1,,,,0,72,64
399842,note_on,,,,,0,0,1,,,,0,72,35
399842,note_off,,,,,240,0,2,,,,0,36,64
399842,note_on,,,,,0,0,1,,,,0,69,35
399842,note_off,,,,,2,0,1,,,,0,69,64
399930,note_off,,,,,88,0,1,,,,0,77,64
399932,note_off,,,,,2,0,1,,,,0,69,64
399932,note_off,,,,,0,0,1,,,,0,72,64
399940,set_tempo,,,,,580,1,0,253165,,,,,
399962,note_on,,,,,0,0,1,,,,0,72,32
399962,note_on,,,,,30,0,1,,,,0,76,32
399962,note_on,,,,,0,0,1,,,,0,69,32
399962,note_on,,,,,120,0,2,,,,0,60,44
400082,note_off,,,,,120,0,2,,,,0,60,64
400082,note_on,,,,,0,0,2,,,,0,62,47
400142,note_off,,,,,180,0,1,,,,0,69,64
400142,note_off,,,,,0,0,1,,,,0,72,64
400142,note_off,,,,,0,0,1,,,,0,76,64
400202,note_on,,,,,60,0,1,,,,0,76,33
400202,note_on,,,,,0,0,1,,,,0,72,33
400202,note_on,,,,,0,0,1,,,,0,69,33
400202,note_on,,,,,0,0,2,,,,0,64,51
400202,note_off,,,,,120,0,2,,,,0,62,64
400260,set_tempo,,,,,320,1,0,258621,,,,,
400292,note_off,,,,,90,0,1,,,,0,69,64
400292,note_off,,,,,0,0,1,,,,0,72,64
400292,note_off,,,,,0,0,1,,,,0,76,64
400322,note_on,,,,,30,0,1,,,,0,81,41
400322,note_off,,,,,120,0,2,,,,0,64,64
400322,note_on,,,,,0,0,1,,,,0,77,41
400322,note_on,,,,,0,0,2,,,,0,65,52
400322,note_on,,,,,0,0,1,,,,0,71,41
400322,control_change,,,,,0,0,1,,64,95,0,,
400400,set_tempo,,,,,140,1,0,259740,,,,,
400540,set_tempo,,,,,140,1,0,262009,,,,,
400554,control_change,,,,,232,0,1,,64,0,0,,
400562,note_off,,,,,240,0,2,,,,0,65,64
400562,note_on,,,,,0,0,1,,,,0,77,37
400562,note_off,,,,,8,0,1,,,,0,71,64
400562,note_off,,,,,0,0,1,,,,0,77,64
400562,note_off,,,,,0,0,1,,,,0,81,64
400562,note_on,,,,,0,0,1,,,,0,81,37
400562,note_on,,,,,0,0,1,,,,0,71,37
400620,set_tempo,,,,,80,1,0,270270,,,,,
400652,note_off,,,,,90,0,1,,,,0,71,64
400652,note_off,,,,,0,0,1,,,,0,81,64
400652,note_off,,,,,0,0,1,,,,0,77,64
400682,note_on,,,,,120,0,2,,,,0,55,51
400682,note_on,,,,,30,0,1,,,,0,79,34
400682,note_on,,,,,0,0,1,,,,0,77,34
400682,note_on,,,,,0,0,1,,,,0,71,34
400682,control_change,,,,,0,0,1,,64,95,0,,
400700,set_tempo,,,,,80,1,0,276498,,,,,
400820,set_tempo,,,,,120,1,0,284360,,,,,
400862,note_off,,,,,180,0,1,,,,0,71,64
400862,note_off,,,,,0,0,1,,,,0,77,64
400862,note_off,,,,,0,0,1,,,,0,79,64
400920,set_tempo,,,,,100,1,0,288462,,,,,
400922,note_off,,,,,240,0,2,,,,0,55,64
400922,control_change,,,,,0,0,1,,64,0,0,,
400922,note_on,,,,,0,0,1,,,,0,71,32
400922,note_on,,,,,0,0,1,,,,0,77,32
400922,note_on,,,,,60,0,1,,,,0,79,32
400980,set_tempo,,,,,60,1,0,292683,,,,,
401012,note_off,,,,,0,0,1,,,,0,79,64
401012,note_off,,,,,0,0,1,,,,0,77,64
401012,note_off,,,,,90,0,1,,,,0,71,64
401040,set_tempo,,,,,60,1,0,300000,,,,,
401042,note_on,,,,,120,0,2,,,,0,43,70
401042,note_on,,,,,0,0,1,,,,0,63,40
401042,note_on,,,,,30,0,1,,,,0,60,40
401042,control_change,,,,,0,0,1,,64,95,0,,
401060,set_tempo,,,,,20,1,0,301508,,,,,
401100,set_tempo,,,,,40,1,0,275229,,,,,
401160,set_tempo,,,,,60,1,0,262009,,,,,
401282,note_off,,,,,0,0,1,,,,0,60,64
401282,control_change,,,,,0,0,1,,64,0,0,,
401282,note_on,,,,,0,0,1,,,,0,60,27
401282,note_on,,,,,0,0,1,,,,0,63,27
401282,note_off,,,,,240,0,2,,,,0,43,64
401282,note_on,,,,,0,0,1,,,,0,67,27
401282,note_off,,,,,240,0,1,,,,0,63,64
401300,set_tempo,,,,,140,1,0,255319,,,,,
401340,set_tempo,,,,,40,1,0,254237,,,,,
401372,note_off,,,,,90,0,1,,,,0,60,64
401372,note_off,,,,,0,0,1,,,,0,63,64
401372,note_off,,,,,0,0,1,,,,0,67,64
401402,note_on,,,,,120,0,2,,,,0,36,52
401402,note_on,,,,,30,0,1,,,,0,67,35
401402,note_on,,,,,0,0,1,,,,0,63,35
401402,note_on,,,,,0,0,1,,,,0,60,35
401520,set_tempo,,,,,180,1,0,252101,,,,,
401582,note_off,,,,,180,0,2,,,,0,36,64
401582,note_off,,,,,180,0,1,,,,0,60,64
401582,note_off,,,,,0,0,1,,,,0,63,64
401582,note_off,,,,,0,0,1,,,,0,67,64
401642,note_on,,,,,0,0,1,,,,0,60,32
401642,note_on,,,,,0,0,1,,,,0,63,32
401642,note_on,,,,,60,0,1,,,,0,67,32
401700,set_tempo,,,,,180,1,0,248963,,,,,
401732,note_off,,,,,90,0,1,,,,0,60,64
401732,note_off,,,,,0,0,1,,,,0,63,64
401732,note_off,,,,,0,0,1,,,,0,67,64
401762,note_on,,,,,30,0,1,,,,0,67,42
401762,note_on,,,,,0,0,1,,,,0,63,42
401762,note_on,,,,,0,0,1,,,,0,60,42
401882,note_on,,,,,300,0,2,,,,0,51,54
402002,note_off,,,,,240,0,1,,,,0,60,64
402002,note_off,,,,,0,0,1,,,,0,67,64
402002,note_on,,,,,0,0,1,,,,0,68,34
402002,note_on,,,,,0,0,1,,,,0,63,34
402002,note_on,,,,,0,0,1,,,,0,60,34
402002,note_off,,,,,0,0,1,,,,0,63,64
402002,note_off,,,,,120,0,2,,,,0,51,64
402002,note_on,,,,,0,0,2,,,,0,50,56
402060,set_tempo,,,,,360,1,0,243902,,,,,
402092,note_off,,,,,0,0,1,,,,0,68,64
402092,note_off,,,,,0,0,1,,,,0,63,64
402092,note_off,,,,,90,0,1,,,,0,60,64
402122,note_on,,,,,0,0,2,,,,0,51,61
402122,note_on,,,,,0,0,1,,,,0,60,43
402122,note_on,,,,,0,0,1,,,,0,63,43
402122,note_on,,,,,30,0,1,,,,0,68,43
402122,note_off,,,,,120,0,2,,,,0,50,64
402242,note_off,,,,,120,0,2,,,,0,51,64
402242,note_on,,,,,0,0,2,,,,0,50,63
402302,note_off,,,,,180,0,1,,,,0,60,64
402302,note_off,,,,,0,0,1,,,,0,63,64
402302,note_off,,,,,0,0,1,,,,0,68,64
402362,note_on,,,,,60,0,1,,,,0,69,40
402362,note_off,,,,,120,0,2,,,,0,50,64
402362,note_on,,,,,0,0,2,,,,0,48,66
402362,note_on,,,,,0,0,1,,,,0,60,40
402362,note_on,,,,,0,0,1,,,,0,63,40
402452,note_off,,,,,0,0,1,,,,0,69,64
402452,note_off,,,,,0,0,1,,,,0,63,64
402452,note_off,,,,,90,0,1,,,,0,60,64
402482,note_on,,,,,0,0,1,,,,0,62,52
402482,note_on,,,,,0,0,1,,,,0,65,52
402482,note_on,,,,,30,0,1,,,,0,72,52
402482,note_on,,,,,0,0,2,,,,0,46,68
402482,note_off,,,,,120,0,2,,,,0,48,64
402700,set_tempo,,,,,640,1,0,240964,,,,,
402722,note_off,,,,,240,0,2,,,,0,46,64
402722,note_off,,,,,240,0,1,,,,0,62,64
402722,note_off,,,,,0,0,1,,,,0,65,64
402722,note_off,,,,,0,0,1,,,,0,72,64
402722,note_on,,,,,0,0,1,,,,0,70,44
402722,note_on,,,,,0,0,1,,,,0,65,44
402722,note_on,,,,,0,0,1,,,,0,62,44
402812,note_off,,,,,0,0,1,,,,0,65,64
402812,note_off,,,,,0,0,1,,,,0,70,64
402812,note_off,,,,,90,0,1,,,,0,62,64
402842,note_on,,,,,120,0,2,,,,0,34,56
402842,note_on,,,,,0,0,1,,,,0,66,42
402842,note_on,,,,,0,0,1,,,,0,70,42
402842,note_on,,,,,30,0,1,,,,0,63,42
403022,note_off,,,,,180,0,2,,,,0,34,64
403022,note_off,,,,,0,0,1,,,,0,63,64
403022,note_off,,,,,180,0,1,,,,0,70,64
403022,note_off,,,,,0,0,1,,,,0,66,64
403082,note_on,,,,,0,0,1,,,,0,63,50
403082,note_on,,,,,60,0,1,,,,0,70,50
403082,note_on,,,,,0,0,1,,,,0,66,50
403172,note_off,,,,,90,0,1,,,,0,63,64
403172,note_off,,,,,0,0,1,,,,0,66,64
403172,note_off,,,,,0,0,1,,,,0,70,64
403180,set_tempo,,,,,480,1,0,238095,,,,,
403202,note_on,,,,,180,0,2,,,,0,72,69
403202,note_on,,,,,30,0,1,,,,0,70,57
403202,note_on,,,,,0,0,1,,,,0,67,57
403202,note_on,,,,,0,0,1,,,,0,64,57
403442,note_on,,,,,0,0,1,,,,0,67,52
403442,note_on,,,,,0,0,1,,,,0,64,52
403442,note_on,,,,,0,0,1,,,,0,70,52
403442,note_off,,,,,0,0,1,,,,0,67,64
403442,note_off,,,,,240,0,1,,,,0,64,64
403442,note_off,,,,,240,0,2,,,,0,72,64
403442,note_off,,,,,0,0,1,,,,0,70,64
403532,note_off,,,,,90,0,1,,,,0,64,64
403532,note_off,,,,,0,0,1,,,,0,67,64
403532,note_off,,,,,0,0,1,,,,0,70,64
403562,note_on,,,,,30,0,1,,,,0,70,46
403562,note_on,,,,,0,0,1,,,,0,68,46
403562,note_on,,,,,0,0,1,,,,0,65,46
403562,note_on,,,,,120,0,2,,,,0,82,61
403562,note_on,,,,,0,0,2,,,,0,74,61
403742,note_off,,,,,0,0,2,,,,0,82,64
403742,note_off,,,,,180,0,1,,,,0,65,64
403742,note_off,,,,,0,0,1,,,,0,68,64
403742,note_off,,,,,0,0,1,,,,0,70,64
403742,note_off,,,,,180,0,2,,,,0,74,64
403800,set_tempo,,,,,620,1,0,235294,,,,,
403802,note_on,,,,,60,0,1,,,,0,70,42
403802,note_on,,,,,0,0,1,,,,0,68,42
403802,note_on,,,,,0,0,1,,,,0,65,42
403892,note_off,,,,,0,0,1,,,,0,68,64
403892,note_off,,,,,0,0,1,,,,0,70,64
403892,note_off,,,,,90,0,1,,,,0,65,64
403922,control_change,,,,,0,0,1,,64,95,0,,
403922,note_on,,,,,30,0,1,,,,0,70,48
403922,note_on,,,,,0,0,1,,,,0,67,48
403922,note_on,,,,,180,0,2,,,,0,46,85
404162,note_off,,,,,240,0,2,,,,0,46,64
404162,note_on,,,,,0,0,1,,,,0,67,49
404162,note_off,,,,,240,0,1,,,,0,67,64
404162,note_off,,,,,0,0,1,,,,0,70,64
404162,control_change,,,,,0,0,1,,64,0,0,,
404162,note_on,,,,,0,0,1,,,,0,70,49
404162,note_on,,,,,0,0,1,,,,0,75,49
404252,note_off,,,,,0,0,1,,,,0,75,64
404252,note_off,,,,,0,0,1,,,,0,67,64
404252,note_off,,,,,90,0,1,,,,0,70,64
404282,note_on,,,,,120,0,2,,,,0,39,69
404282,note_on,,,,,0,0,1,,,,0,70,52
404282,note_on,,,,,0,0,1,,,,0,67,52
404282,note_on,,,,,30,0,1,,,,0,75,52
404300,set_tempo,,,,,500,1,0,232558,,,,,
404320,set_tempo,,,,,20,1,0,231660,,,,,
404462,note_off,,,,,0,0,1,,,,0,67,64
404462,note_off,,,,,180,0,2,,,,0,39,64
404462,note_off,,,,,0,0,1,,,,0,75,64
404462,note_off,,,,,180,0,1,,,,0,70,64
404522,note_on,,,,,0,0,1,,,,0,67,46
404522,note_on,,,,,0,0,1,,,,0,70,46
404522,note_on,,,,,60,0,1,,,,0,75,46
404612,note_off,,,,,0,0,1,,,,0,67,64
404612,note_off,,,,,0,0,1,,,,0,75,64
404612,note_off,,,,,90,0,1,,,,0,70,64
404642,note_on,,,,,30,0,1,,,,0,74,59
404642,note_on,,,,,0,0,1,,,,0,67,59
404642,note_on,,,,,0,0,1,,,,0,70,59
404680,set_tempo,,,,,360,1,0,234375,,,,,
404762,note_on,,,,,300,0,2,,,,0,55,76
404880,set_tempo,,,,,200,1,0,236220,,,,,
404882,note_off,,,,,120,0,2,,,,0,55,64
404882,note_on,,,,,0,0,2,,,,0,54,81
404882,note_on,,,,,0,0,1,,,,0,67,52
404882,note_on,,,,,0,0,1,,,,0,70,52
404882,note_off,,,,,240,0,1,,,,0,70,64
404882,note_off,,,,,0,0,1,,,,0,67,64
404882,note_off,,,,,0,0,1,,,,0,74,64
404882,note_on,,,,,0,0,1,,,,0,75,52
404972,note_off,,,,,90,0,1,,,,0,67,64
404972,note_off,,,,,0,0,1,,,,0,75,64
404972,note_off,,,,,0,0,1,,,,0,70,64
405002,note_on,,,,,0,0,1,,,,0,67,66
405002,note_on,,,,,0,0,1,,,,0,70,66
405002,note_on,,,,,30,0,1,,,,0,75,66
405002,note_off,,,,,120,0,2,,,,0,54,64
405002,note_on,,,,,0,0,2,,,,0,55,86
405122,note_off,,,,,120,0,2,,,,0,55,64
405122,note_on,,,,,0,0,2,,,,0,53,89
405182,note_off,,,,,0,0,1,,,,0,75,64
405182,note_off,,,,,180,0,1,,,,0,67,64
405182,note_off,,,,,0,0,1,,,,0,70,64
405240,set_tempo,,,,,360,1,0,238095,,,,,
405242,note_off,,,,,120,0,2,,,,0,53,64
405242,note_on,,,,,0,0,2,,,,0,51,95
405242,note_on,,,,,0,0,1,,,,0,75,66
405242,note_on,,,,,60,0,1,,,,0,70,66
405242,note_on,,,,,0,0,1,,,,0,67,66
405332,note_off,,,,,90,0,1,,,,0,67,64
405332,note_off,,,,,0,0,1,,,,0,75,64
405332,note_off,,,,,0,0,1,,,,0,70,64
405362,note_on,,,,,0,0,1,,,,0,68,70
405362,note_on,,,,,0,0,2,,,,0,50,99
405362,note_off,,,,,120,0,2,,,,0,51,64
405362,note_on,,,,,30,0,1,,,,0,79,70
405362,note_on,,,,,0,0,1,,,,0,72,70
405440,set_tempo,,,,,200,1,0,240000,,,,,
405602,note_off,,,,,240,0,1,,,,0,68,64
405602,note_off,,,,,0,0,1,,,,0,72,64
405602,note_off,,,,,0,0,1,,,,0,79,64
405602,note_on,,,,,0,0,1,,,,0,72,76
405602,note_off,,,,,240,0,2,,,,0,50,64
405602,note_on,,,,,0,0,1,,,,0,77,76
405602,note_on,,,,,0,0,1,,,,0,68,76
405620,set_tempo,,,,,180,1,0,241935,,,,,
405692,note_off,,,,,0,0,1,,,,0,72,64
405692,note_off,,,,,0,0,1,,,,0,77,64
405692,note_off,,,,,90,0,1,,,,0,68,64
405722,note_on,,,,,120,0,2,,,,0,43,81
405722,note_on,,,,,30,0,1,,,,0,72,79
405722,note_on,,,,,0,0,1,,,,0,77,79
405722,note_on,,,,,0,0,1,,,,0,69,79
405902,note_off,,,,,0,0,1,,,,0,77,64
405902,note_off,,,,,180,0,2,,,,0,43,64
405902,note_off,,,,,180,0,1,,,,0,69,64
405902,note_off,,,,,0,0,1,,,,0,72,64
405962,note_on,,,,,60,0,1,,,,0,69,83
405962,note_on,,,,,0,0,1,,,,0,72,83
405962,note_on,,,,,0,0,1,,,,0,77,83
406052,note_off,,,,,0,0,1,,,,0,69,64
406052,note_off,,,,,0,0,1,,,,0,72,64
406052,note_off,,,,,90,0,1,,,,0,77,64
406080,set_tempo,,,,,460,1,0,245902,,,,,
406082,note_on,,,,,30,0,1,,,,0,77,87
406082,note_on,,,,,180,0,2,,,,0,67,86
406082,note_on,,,,,0,0,1,,,,0,73,87
406082,note_on,,,,,0,0,1,,,,0,70,87
406220,set_tempo,,,,,140,1,0,248963,,,,,
406240,set_tempo,,,,,20,1,0,250000,,,,,
406322,note_off,,,,,0,0,1,,,,0,73,64
406322,note_off,,,,,0,0,1,,,,0,77,64
406322,note_on,,,,,0,0,1,,,,0,77,94
406322,note_on,,,,,0,0,1,,,,0,73,94
406322,note_on,,,,,0,0,1,,,,0,70,94
406322,note_off,,,,,240,0,2,,,,0,67,64
406322,note_off,,,,,240,0,1,,,,0,70,64
406400,set_tempo,,,,,160,1,0,259740,,,,,
406412,note_off,,,,,90,0,1,,,,0,70,64
406412,note_off,,,,,0,0,1,,,,0,73,64
406412,note_off,,,,,0,0,1,,,,0,77,64
406442,note_on,,,,,0,0,1,,,,0,77,97
406442,note_on,,,,,0,0,1,,,,0,71,97
406442,note_on,,,,,120,0,2,,,,0,79,105
406442,note_on,,,,,30,0,1,,,,0,74,97
406500,set_tempo,,,,,100,1,0,266667,,,,,
406620,set_tempo,,,,,120,1,0,277778,,,,,
406622,note_off,,,,,180,0,2,,,,0,79,64
406622,note_off,,,,,0,0,1,,,,0,77,64
406622,note_off,,,,,180,0,1,,,,0,71,64
406622,note_off,,,,,0,0,1,,,,0,74,64
406680,set_tempo,,,,,60,1,0,289855,,,,,
406682,note_on,,,,,60,0,1,,,,0,74,100
406682,note_on,,,,,0,0,1,,,,0,77,100
406682,note_on,,,,,0,0,1,,,,0,71,100
406764,set_tempo,,,,,84,1,0,292683,,,,,
406772,note_off,,,,,90,0,1,,,,0,71,64
406772,note_off,,,,,0,0,1,,,,0,77,64
406772,note_off,,,,,0,0,1,,,,0,74,64
406800,set_tempo,,,,,36,1,0,243902,,,,,
406802,control_change,,,,,0,0,1,,64,95,0,,
406802,note_on,,,,,0,0,1,,,,0,72,113
406802,note_on,,,,,30,0,1,,,,0,75,113
406802,note_on,,,,,180,0,2,,,,0,43,113
407042,note_on,,,,,0,0,1,,,,0,79,93
407042,note_off,,,,,0,0,1,,,,0,75,64
407042,note_off,,,,,240,0,1,,,,0,72,64
407042,note_off,,,,,240,0,2,,,,0,43,64
407042,note_on,,,,,0,0,1,,,,0,75,93
407132,note_off,,,,,90,0,1,,,,0,75,64
407132,note_off,,,,,0,0,1,,,,0,79,64
407154,control_change,,,,,22,0,1,,64,0,0,,
407160,set_tempo,,,,,360,1,0,242915,,,,,
407162,note_on,,,,,120,0,2,,,,0,36,100
407162,note_on,,,,,0,0,1,,,,0,84,98
407162,note_on,,,,,0,0,1,,,,0,75,98
407162,note_on,,,,,0,0,1,,,,0,79,98
407162,note_on,,,,,8,0,1,,,,0,87,98
407162,control_change,,,,,0,0,1,,64,96,0,,
407402,note_on,,,,,0,0,1,,,,0,75,104
407402,note_on,,,,,0,0,1,,,,0,79,104
407402,note_on,,,,,0,0,1,,,,0,84,104
407402,note_off,,,,,240,0,1,,,,0,75,64
407402,note_off,,,,,0,0,1,,,,0,87,64
407402,note_off,,,,,0,0,1,,,,0,84,64
407402,note_off,,,,,0,0,1,,,,0,79,64
407402,note_off,,,,,240,0,2,,,,0,36,64
407402,note_on,,,,,0,0,1,,,,0,87,104
407480,set_tempo,,,,,320,1,0,241935,,,,,
407492,note_off,,,,,0,0,1,,,,0,79,64
407492,note_off,,,,,90,0,1,,,,0,75,64
407492,note_off,,,,,0,0,1,,,,0,84,64
407492,note_off,,,,,0,0,1,,,,0,87,64
407508,control_change,,,,,16,0,1,,64,0,0,,
407522,note_on,,,,,0,0,2,,,,0,43,114
407522,note_on,,,,,0,0,2,,,,0,46,114
407522,note_on,,,,,0,0,2,,,,0,50,114
407522,note_on,,,,,120,0,2,,,,0,55,114
407522,note_on,,,,,0,0,1,,,,0,74,113
407522,control_change,,,,,0,0,1,,64,96,0,,
407522,note_on,,,,,0,0,1,,,,0,79,113
407522,note_on,,,,,0,0,1,,,,0,82,113
407522,note_on,,,,,14,0,1,,,,0,86,113
407680,set_tempo,,,,,200,1,0,240964,,,,,
407754,control_change,,,,,232,0,1,,64,0,0,,
407762,note_off,,,,,8,0,1,,,,0,74,64
407762,note_off,,,,,0,0,1,,,,0,79,64
407762,note_on,,,,,0,0,2,,,,0,55,114
407762,note_off,,,,,0,0,1,,,,0,82,64
407762,note_off,,,,,0,0,1,,,,0,86,64
407762,note_off,,,,,240,0,2,,,,0,43,64
407762,note_off,,,,,0,0,2,,,,0,46,64
407762,note_off,,,,,0,0,2,,,,0,50,64
407762,note_on,,,,,0,0,2,,,,0,43,114
407762,note_on,,,,,0,0,2,,,,0,46,114
407762,note_on,,,,,0,0,2,,,,0,50,114
407762,note_off,,,,,0,0,2,,,,0,55,64
407852,note_off,,,,,0,0,2,,,,0,46,64
407852,note_off,,,,,0,0,2,,,,0,50,64
407852,note_off,,,,,0,0,2,,,,0,55,64
407852,note_off,,,,,90,0,2,,,,0,43,64
407880,set_tempo,,,,,200,1,0,240000,,,,,
407882,note_on,,,,,30,0,2,,,,0,58,107
407882,note_on,,,,,0,0,2,,,,0,55,107
407882,note_on,,,,,0,0,2,,,,0,50,107
407882,note_on,,,,,0,0,2,,,,0,46,107
407882,note_on,,,,,120,0,1,,,,0,67,121
407882,control_change,,,,,0,0,1,,64,95,0,,
408122,note_off,,,,,240,0,1,,,,0,67,64
408122,control_change,,,,,0,0,1,,64,0,0,,
408122,note_off,,,,,0,0,2,,,,0,58,64
408122,note_off,,,,,240,0,2,,,,0,46,64
408122,note_off,,,,,0,0,2,,,,0,50,64
408122,note_off,,,,,0,0,2,,,,0,55,64
408122,note_on,,,,,0,0,2,,,,0,58,114
408122,note_on,,,,,0,0,2,,,,0,55,114
408122,note_on,,,,,0,0,2,,,,0,50,114
408122,note_on,,,,,0,0,2,,,,0,46,114
408160,set_tempo,,,,,280,1,0,238095,,,,,
408212,note_off,,,,,90,0,2,,,,0,46,64
408212,note_off,,,,,0,0,2,,,,0,50,64
408212,note_off,,,,,0,0,2,,,,0,55,64
408212,note_off,,,,,0,0,2,,,,0,58,64
408242,note_on,,,,,0,0,2,,,,0,48,113
408242,control_change,,,,,0,0,1,,64,95,0,,
408242,note_on,,,,,0,0,1,,,,0,72,113
408242,note_on,,,,,0,0,1,,,,0,79,113
408242,note_on,,,,,0,0,2,,,,0,55,113
408242,note_on,,,,,120,0,1,,,,0,84,113
408242,note_on,,,,,0,0,2,,,,0,51,113
408242,note_on,,,,,0,0,1,,,,0,75,113
408242,note_on,,,,,30,0,2,,,,0,60,113
408482,note_off,,,,,240,0,1,,,,0,72,64
408482,note_off,,,,,0,0,1,,,,0,75,64
408482,note_off,,,,,0,0,1,,,,0,79,64
408482,note_off,,,,,0,0,1,,,,0,84,64
408482,note_on,,,,,0,0,1,,,,0,84,93
408482,note_on,,,,,0,0,1,,,,0,72,93
408482,note_on,,,,,0,0,1,,,,0,79,93
408482,note_on,,,,,0,0,1,,,,0,75,93
408482,note_off,,,,,0,0,2,,,,0,60,64
408482,note_off,,,,,240,0,2,,,,0,48,64
408482,note_off,,,,,0,0,2,,,,0,55,64
408482,note_off,,,,,0,0,2,,,,0,51,64
408520,set_tempo,,,,,360,1,0,237154,,,,,
408572,note_off,,,,,0,0,1,,,,0,84,64
408572,note_off,,,,,0,0,1,,,,0,72,64
408572,note_off,,,,,0,0,1,,,,0,79,64
408572,note_off,,,,,90,0,1,,,,0,75,64
408594,control_change,,,,,22,0,1,,64,0,0,,
408602,control_change,,,,,0,0,1,,64,96,0,,
408602,note_on,,,,,120,0,2,,,,0,36,100
408602,note_on,,,,,0,0,1,,,,0,79,98
408602,note_on,,,,,0,0,1,,,,0,84,98
408602,note_on,,,,,8,0,1,,,,0,87,98
408602,note_on,,,,,0,0,1,,,,0,75,98
408842,note_on,,,,,0,0,1,,,,0,79,104
408842,note_on,,,,,0,0,1,,,,0,75,104
408842,note_on,,,,,0,0,1,,,,0,84,104
408842,note_on,,,,,0,0,1,,,,0,87,104
408842,note_off,,,,,0,0,1,,,,0,87,64
408842,note_off,,,,,0,0,1,,,,0,84,64
408842,note_off,,,,,0,0,1,,,,0,79,64
408842,note_off,,,,,240,0,1,,,,0,75,64
408842,note_off,,,,,240,0,2,,,,0,36,64
408932,note_off,,,,,0,0,1,,,,0,87,64
408932,note_off,,,,,0,0,1,,,,0,84,64
408932,note_off,,,,,0,0,1,,,,0,79,64
408932,note_off,,,,,90,0,1,,,,0,75,64
408948,control_change,,,,,16,0,1,,64,0,0,,
408960,set_tempo,,,,,440,1,0,236220,,,,,
408962,control_change,,,,,0,0,1,,64,96,0,,
408962,note_on,,,,,14,0,1,,,,0,86,113
408962,note_on,,,,,0,0,1,,,,0,82,113
408962,note_on,,,,,0,0,1,,,,0,79,113
408962,note_on,,,,,0,0,1,,,,0,74,113
408962,note_on,,,,,120,0,2,,,,0,55,114
408962,note_on,,,,,0,0,2,,,,0,50,114
408962,note_on,,,,,0,0,2,,,,0,46,114
408962,note_on,,,,,0,0,2,,,,0,43,114
409194,control_change,,,,,232,0,1,,64,0,0,,
409200,set_tempo,,,,,240,1,0,235294,,,,,
409202,note_off,,,,,0,0,1,,,,0,79,64
409202,note_off,,,,,0,0,2,,,,0,50,64
409202,note_off,,,,,0,0,2,,,,0,46,64
409202,note_off,,,,,240,0,2,,,,0,43,64
409202,note_off,,,,,8,0,1,,,,0,74,64
409202,note_off,,,,,0,0,1,,,,0,82,64
409202,note_off,,,,,0,0,1,,,,0,86,64
409202,note_off,,,,,0,0,2,,,,0,55,64
409202,note_on,,,,,0,0,2,,,,0,50,114
409202,note_on,,,,,0,0,2,,,,0,55,114
409202,note_on,,,,,0,0,2,,,,0,43,114
409202,note_on,,,,,0,0,2,,,,0,46,114
409292,note_off,,,,,90,0,2,,,,0,43,64
409292,note_off,,,,,0,0,2,,,,0,46,64
409292,note_off,,,,,0,0,2,,,,0,50,64
409292,note_off,,,,,0,0,2,,,,0,55,64
409322,note_on,,,,,30,0,2,,,,0,58,107
409322,note_on,,,,,0,0,2,,,,0,55,107
409322,note_on,,,,,0,0,2,,,,0,50,107
409322,note_on,,,,,0,0,2,,,,0,46,107
409322,control_change,,,,,0,0,1,,64,95,0,,
409322,note_on,,,,,120,0,1,,,,0,67,121
409562,note_off,,,,,240,0,1,,,,0,67,64
409562,note_on,,,,,0,0,2,,,,0,46,114
409562,note_on,,,,,0,0,2,,,,0,50,114
409562,note_off,,,,,0,0,2,,,,0,50,64
409562,note_on,,,,,0,0,2,,,,0,58,114
409562,note_off,,,,,0,0,2,,,,0,58,64
409562,note_off,,,,,0,0,2,,,,0,55,64
409562,note_off,,,,,240,0,2,,,,0,46,64
409562,control_change,,,,,0,0,1,,64,0,0,,
409562,note_on,,,,,0,0,2,,,,0,55,114
409640,set_tempo,,,,,440,1,0,234375,,,,,
409652,note_off,,,,,0,0,2,,,,0,58,64
409652,note_off,,,,,0,0,2,,,,0,55,64
409652,note_off,,,,,0,0,2,,,,0,50,64
409652,note_off,,,,,90,0,2,,,,0,46,64
409682,note_on,,,,,0,0,2,,,,0,51,113
409682,note_on,,,,,0,0,1,,,,0,75,113
409682,note_on,,,,,0,0,1,,,,0,80,113
409682,note_on,,,,,0,0,2,,,,0,48,113
409682,note_on,,,,,120,0,1,,,,0,72,113
409682,note_on,,,,,0,0,1,,,,0,68,113
409682,control_change,,,,,0,0,1,,64,95,0,,
409682,note_on,,,,,0,0,2,,,,0,56,113
409682,note_on,,,,,30,0,2,,,,0,60,113
409922,note_on,,,,,0,0,1,,,,0,68,93
409922,note_off,,,,,0,0,1,,,,0,80,64
409922,note_on,,,,,0,0,1,,,,0,72,93
409922,note_off,,,,,0,0,1,,,,0,72,64
409922,note_off,,,,,0,0,1,,,,0,75,64
409922,note_off,,,,,240,0,1,,,,0,68,64
409922,note_on,,,,,0,0,1,,,,0,80,93
409922,note_on,,,,,0,0,1,,,,0,75,93
409922,note_off,,,,,0,0,2,,,,0,48,64
409922,note_off,,,,,0,0,2,,,,0,60,64
409922,note_off,,,,,0,0,2,,,,0,56,64
409922,note_off,,,,,240,0,2,,,,0,51,64
410012,note_off,,,,,90,0,1,,,,0,75,64
410012,note_off,,,,,0,0,1,,,,0,72,64
410012,note_off,,,,,0,0,1,,,,0,80,64
410012,note_off,,,,,0,0,1,,,,0,68,64
410034,control_change,,,,,22,0,1,,64,0,0,,
410042,note_on,,,,,8,0,1,,,,0,84,98
410042,note_on,,,,,0,0,1,,,,0,75,98
410042,note_on,,,,,0,0,1,,,,0,80,98
410042,note_on,,,,,120,0,2,,,,0,44,100
410042,note_on,,,,,0,0,1,,,,0,72,98
410042,control_change,,,,,0,0,1,,64,96,0,,
410160,set_tempo,,,,,520,1,0,232558,,,,,
410282,note_on,,,,,0,0,1,,,,0,72,104
410282,note_off,,,,,0,0,1,,,,0,80,64
410282,note_off,,,,,240,0,1,,,,0,75,64
410282,note_on,,,,,0,0,1,,,,0,84,104
410282,note_on,,,,,0,0,1,,,,0,75,104
410282,note_on,,,,,0,0,1,,,,0,80,104
410282,note_off,,,,,240,0,2,,,,0,44,64
410282,note_off,,,,,0,0,1,,,,0,84,64
410282,note_off,,,,,0,0,1,,,,0,72,64
410372,note_off,,,,,0,0,1,,,,0,72,64
410372,note_off,,,,,0,0,1,,,,0,80,64
410372,note_off,,,,,90,0,1,,,,0,75,64
410372,note_off,,,,,0,0,1,,,,0,84,64
410388,control_change,,,,,16,0,1,,64,0,0,,
410402,note_on,,,,,0,0,1,,,,0,70,113
410402,control_change,,,,,0,0,1,,64,96,0,,
410402,note_on,,,,,0,0,1,,,,0,75,113
410402,note_on,,,,,0,0,1,,,,0,82,113
410402,note_on,,,,,14,0,1,,,,0,79,113
410402,note_on,,,,,0,0,2,,,,0,39,114
410402,note_on,,,,,120,0,2,,,,0,43,114
410402,note_on,,,,,0,0,2,,,,0,51,114
410402,note_on,,,,,0,0,2,,,,0,46,114
410634,control_change,,,,,232,0,1,,64,0,0,,
410642,note_off,,,,,0,0,1,,,,0,82,64
410642,note_on,,,,,0,0,2,,,,0,39,114
410642,note_on,,,,,0,0,2,,,,0,46,114
410642,note_on,,,,,0,0,2,,,,0,51,114
410642,note_on,,,,,0,0,2,,,,0,43,114
410642,note_off,,,,,0,0,2,,,,0,43,64
410642,note_off,,,,,0,0,2,,,,0,51,64
410642,note_off,,,,,0,0,2,,,,0,46,64
410642,note_off,,,,,8,0,1,,,,0,70,64
410642,note_off,,,,,240,0,2,,,,0,39,64
410642,note_off,,,,,0,0,1,,,,0,79,64
410642,note_off,,,,,0,0,1,,,,0,75,64
410732,note_off,,,,,90,0,2,,,,0,39,64
410732,note_off,,,,,0,0,2,,,,0,46,64
410732,note_off,,,,,0,0,2,,,,0,51,64
410732,note_off,,,,,0,0,2,,,,0,43,64
410762,note_on,,,,,30,0,2,,,,0,55,107
410762,note_on,,,,,0,0,2,,,,0,43,107
410762,note_on,,,,,0,0,2,,,,0,51,107
410762,note_on,,,,,0,0,2,,,,0,46,107
410762,control_change,,,,,0,0,1,,64,95,0,,
410762,note_on,,,,,120,0,1,,,,0,63,121
411002,note_on,,,,,0,0,2,,,,0,46,114
411002,note_on,,,,,0,0,2,,,,0,51,114
411002,note_on,,,,,0,0,2,,,,0,43,114
411002,note_off,,,,,0,0,2,,,,0,51,64
411002,note_off,,,,,0,0,2,,,,0,55,64
411002,note_off,,,,,0,0,2,,,,0,43,64
411002,note_off,,,,,240,0,1,,,,0,63,64
411002,note_off,,,,,240,0,2,,,,0,46,64
411002,note_on,,,,,0,0,2,,,,0,55,114
411002,control_change,,,,,0,0,1,,64,0,0,,
411092,note_off,,,,,0,0,2,,,,0,55,64
411092,note_off,,,,,90,0,2,,,,0,46,64
411092,note_off,,,,,0,0,2,,,,0,51,64
411092,note_off,,,,,0,0,2,,,,0,43,64
411122,note_on,,,,,0,0,1,,,,0,77,113
411122,note_on,,,,,0,0,2,,,,0,48,113
411122,note_on,,,,,0,0,2,,,,0,53,113
411122,note_on,,,,,0,0,2,,,,0,44,113
411122,note_on,,,,,30,0,2,,,,0,56,113
411122,note_on,,,,,120,0,1,,,,0,68,113
411122,control_change,,,,,0,0,1,,64,95,0,,
411122,note_on,,,,,0,0,1,,,,0,65,113
411122,note_on,,,,,0,0,1,,,,0,72,113
411184,set_tempo,,,,,1024,1,0,235294,,,,,
411362,note_off,,,,,0,0,2,,,,0,56,64
411362,note_off,,,,,0,0,2,,,,0,44,64
411362,note_off,,,,,0,0,2,,,,0,53,64
411362,note_off,,,,,240,0,2,,,,0,48,64
411362,note_off,,,,,240,0,1,,,,0,65,64
411362,note_on,,,,,0,0,1,,,,0,72,93
411362,note_on,,,,,0,0,1,,,,0,65,93
411362,note_off,,,,,0,0,1,,,,0,72,64
411362,note_off,,,,,0,0,1,,,,0,77,64
411362,note_off,,,,,0,0,1,,,,0,68,64
411362,note_on,,,,,0,0,1,,,,0,68,93
411362,note_on,,,,,0,0,1,,,,0,77,93
411452,note_off,,,,,0,0,1,,,,0,77,64
411452,note_off,,,,,0,0,1,,,,0,65,64
411452,note_off,,,,,90,0,1,,,,0,72,64
411452,note_off,,,,,0,0,1,,,,0,68,64
411474,control_change,,,,,22,0,1,,64,0,0,,
411482,control_change,,,,,0,0,1,,64,96,0,,
411482,note_on,,,,,0,0,1,,,,0,72,98
411482,note_on,,,,,120,0,2,,,,0,41,100
411482,note_on,,,,,8,0,1,,,,0,80,98
411482,note_on,,,,,0,0,1,,,,0,68,98
411482,note_on,,,,,0,0,1,,,,0,77,98
411584,set_tempo,,,,,400,1,0,236220,,,,,
411722,note_on,,,,,0,0,1,,,,0,72,104
411722,note_on,,,,,0,0,1,,,,0,80,104
411722,note_on,,,,,0,0,1,,,,0,77,104
411722,note_off,,,,,0,0,1,,,,0,80,64
411722,note_off,,,,,0,0,1,,,,0,68,64
411722,note_off,,,,,0,0,1,,,,0,77,64
411722,note_off,,,,,240,0,2,,,,0,41,64
411722,note_on,,,,,0,0,1,,,,0,68,104
411722,note_off,,,,,240,0,1,,,,0,72,64
411812,note_off,,,,,90,0,1,,,,0,72,64
411812,note_off,,,,,0,0,1,,,,0,77,64
411812,note_off,,,,,0,0,1,,,,0,80,64
411812,note_off,,,,,0,0,1,,,,0,68,64
411828,control_change,,,,,16,0,1,,64,0,0,,
411842,control_change,,,,,0,0,1,,64,96,0,,
411842,note_on,,,,,0,0,2,,,,0,53,113
411842,note_on,,,,,120,0,2,,,,0,41,113
411842,note_on,,,,,0,0,1,,,,0,77,113
411842,note_on,,,,,0,0,1,,,,0,72,113
411842,note_on,,,,,14,0,1,,,,0,68,113
411920,set_tempo,,,,,336,1,0,238095,,,,,
412082,note_on,,,,,0,0,1,,,,0,77,99
412082,note_off,,,,,240,0,2,,,,0,53,64
412082,note_on,,,,,0,0,2,,,,0,53,101
412082,note_off,,,,,0,0,2,,,,0,41,64
412082,note_on,,,,,0,0,2,,,,0,41,101
412082,note_on,,,,,0,0,1,,,,0,68,99
412082,note_off,,,,,0,0,1,,,,0,68,64
412082,note_off,,,,,0,0,1,,,,0,72,64
412082,note_off,,,,,240,0,1,,,,0,77,64
412082,note_on,,,,,0,0,1,,,,0,72,99
412172,note_off,,,,,90,0,1,,,,0,77,64
412172,note_off,,,,,0,0,1,,,,0,72,64
412172,note_off,,,,,0,0,2,,,,0,41,64
412172,note_off,,,,,90,0,2,,,,0,53,64
412172,note_off,,,,,0,0,1,,,,0,68,64
412202,note_on,,,,,30,0,1,,,,0,68,104
412202,note_on,,,,,30,0,2,,,,0,44,102
412202,note_on,,,,,0,0,1,,,,0,72,104
412202,note_on,,,,,0,0,2,,,,0,56,102
412280,set_tempo,,,,,360,1,0,241935,,,,,
412442,note_off,,,,,240,0,2,,,,0,56,64
412442,note_on,,,,,0,0,1,,,,0,72,104
412442,note_on,,,,,0,0,2,,,,0,56,101
412442,note_off,,,,,0,0,1,,,,0,68,64
412442,note_on,,,,,0,0,1,,,,0,68,104
412442,note_off,,,,,240,0,1,,,,0,72,64
412442,note_on,,,,,0,0,2,,,,0,44,101
412442,note_off,,,,,0,0,2,,,,0,44,64
412532,note_off,,,,,90,0,1,,,,0,72,64
412532,note_off,,,,,0,0,1,,,,0,68,64
412532,note_off,,,,,90,0,2,,,,0,56,64
412532,note_off,,,,,0,0,2,,,,0,44,64
412554,control_change,,,,,22,0,1,,64,0,0,,
412562,control_change,,,,,0,0,1,,64,95,0,,
412562,note_on,,,,,8,0,1,,,,0,68,109
412562,note_on,,,,,0,0,2,,,,0,53,114
412562,note_on,,,,,30,0,2,,,,0,41,114
412580,set_tempo,,,,,300,1,0,245902,,,,,
412800,set_tempo,,,,,220,1,0,250000,,,,,
412802,note_off,,,,,0,0,2,,,,0,41,64
412802,note_off,,,,,240,0,2,,,,0,53,64
412802,note_on,,,,,0,0,1,,,,0,68,106
412802,note_off,,,,,240,0,1,,,,0,68,64
412802,note_on,,,,,0,0,2,,,,0,41,108
412802,note_on,,,,,0,0,2,,,,0,53,108
412892,note_off,,,,,90,0,1,,,,0,68,64
412892,note_off,,,,,90,0,2,,,,0,53,64
412892,note_off,,,,,0,0,2,,,,0,41,64
412922,note_on,,,,,0,0,1,,,,0,68,116
412922,note_on,,,,,0,0,2,,,,0,48,120
412922,note_on,,,,,30,0,1,,,,0,72,116
412922,note_on,,,,,30,0,2,,,,0,36,120
413162,note_on,,,,,0,0,2,,,,0,36,114
413162,note_on,,,,,0,0,2,,,,0,48,114
413162,note_off,,,,,0,0,2,,,,0,36,64
413162,note_off,,,,,240,0,2,,,,0,48,64
413162,note_off,,,,,240,0,1,,,,0,68,64
413162,note_off,,,,,0,0,1,,,,0,72,64
413162,note_on,,,,,0,0,1,,,,0,72,108
413162,note_on,,,,,0,0,1,,,,0,68,108
413252,note_off,,,,,90,0,1,,,,0,68,64
413252,note_off,,,,,0,0,1,,,,0,72,64
413252,note_off,,,,,90,0,2,,,,0,36,64
413252,note_off,,,,,0,0,2,,,,0,48,64
413274,control_change,,,,,22,0,1,,64,0,0,,
413282,note_on,,,,,0,0,2,,,,0,44,124
413282,note_on,,,,,30,0,2,,,,0,32,124
413282,note_on,,,,,8,0,1,,,,0,68,121
413282,note_on,,,,,0,0,1,,,,0,72,121
413282,note_on,,,,,0,0,1,,,,0,77,121
413282,control_change,,,,,0,0,1,,64,95,0,,
413522,note_off,,,,,240,0,2,,,,0,44,64
413522,note_off,,,,,0,0,2,,,,0,32,64
413522,note_on,,,,,0,0,1,,,,0,77,122
413522,note_on,,,,,0,0,1,,,,0,68,122
413522,note_off,,,,,0,0,1,,,,0,68,64
413522,note_off,,,,,0,0,1,,,,0,72,64
413522,note_off,,,,,240,0,1,,,,0,77,64
413522,note_on,,,,,0,0,1,,,,0,72,122
413522,note_on,,,,,0,0,2,,,,0,44,117
413522,note_on,,,,,0,0,2,,,,0,32,117
413600,set_tempo,,,,,800,1,0,254237,,,,,
413612,note_off,,,,,90,0,1,,,,0,77,64
413612,note_off,,,,,0,0,1,,,,0,72,64
413612,note_off,,,,,0,0,1,,,,0,68,64
413612,note_off,,,,,0,0,2,,,,0,32,64
413612,note_off,,,,,90,0,2,,,,0,44,64
413642,note_on,,,,,0,0,2,,,,0,41,127
413642,note_on,,,,,30,0,2,,,,0,29,127
413642,note_on,,,,,0,0,1,,,,0,77,127
413642,note_on,,,,,30,0,1,,,,0,72,127
413642,note_on,,,,,0,0,1,,,,0,80,127
413720,set_tempo,,,,,120,1,0,262009,,,,,
413880,set_tempo,,,,,160,1,0,267857,,,,,
413882,note_on,,,,,0,0,2,,,,0,29,120
413882,note_off,,,,,240,0,2,,,,0,41,64
413882,note_off,,,,,0,0,2,,,,0,29,64
413882,note_on,,,,,0,0,2,,,,0,41,120
413882,note_on,,,,,0,0,1,,,,0,72,127
413882,note_off,,,,,240,0,1,,,,0,80,64
413882,note_off,,,,,0,0,1,,,,0,77,64
413882,note_off,,,,,0,0,1,,,,0,72,64
413882,note_on,,,,,0,0,1,,,,0,77,127
413882,note_on,,,,,0,0,1,,,,0,80,127
413964,set_tempo,,,,,84,1,0,363636,,,,,
413972,note_off,,,,,90,0,1,,,,0,80,64
413972,note_off,,,,,0,0,2,,,,0,29,64
413972,note_off,,,,,90,0,2,,,,0,41,64
413972,note_off,,,,,0,0,1,,,,0,77,64
413972,note_off,,,,,0,0,1,,,,0,72,64
413994,control_change,,,,,22,0,1,,64,0,0,,
414000,set_tempo,,,,,36,1,0,606061,,,,,
414002,note_on,,,,,0,0,2,,,,0,43,127
414002,control_change,,,,,0,0,1,,64,96,0,,
414002,note_on,,,,,0,0,1,,,,0,79,127
414002,note_on,,,,,0,0,1,,,,0,77,127
414002,note_on,,,,,8,0,1,,,,0,71,127
414002,note_on,,,,,30,0,2,,,,0,31,127
414060,set_tempo,,,,,60,1,0,400000,,,,,
414092,note_off,,,,,0,0,2,,,,0,31,64
414092,note_off,,,,,90,0,2,,,,0,43,64
414092,note_off,,,,,90,0,1,,,,0,79,64
414092,note_off,,,,,0,0,1,,,,0,77,64
414092,note_off,,,,,0,0,1,,,,0,71,64
414114,control_change,,,,,22,0,1,,64,0,0,,
414120,set_tempo,,,,,60,1,0,312500,,,,,
414122,control_change,,,,,0,0,1,,64,96,0,,
414122,note_on,,,,,8,0,1,,,,0,65,107
414122,note_on,,,,,30,0,2,,,,0,53,110
414200,set_tempo,,,,,80,1,0,281690,,,,,
414242,note_on,,,,,0,0,1,,,,0,68,101
414242,note_off,,,,,120,0,1,,,,0,65,64
414242,note_on,,,,,0,0,2,,,,0,56,104
414242,note_off,,,,,120,0,2,,,,0,53,64
414260,set_tempo,,,,,60,1,0,266667,,,,,
414362,note_off,,,,,120,0,2,,,,0,56,64
414362,note_on,,,,,0,0,1,,,,0,67,102
414362,note_off,,,,,120,0,1,,,,0,68,64
414362,note_on,,,,,0,0,2,,,,0,55,106
414380,set_tempo,,,,,120,1,0,256410,,,,,
414480,set_tempo,,,,,100,1,0,255319,,,,,
414482,note_on,,,,,0,0,1,,,,0,65,103
414482,note_on,,,,,0,0,2,,,,0,53,108
414482,note_off,,,,,120,0,1,,,,0,67,64
414482,note_off,,,,,120,0,2,,,,0,55,64
414500,set_tempo,,,,,20,1,0,247934,,,,,
414600,set_tempo,,,,,100,1,0,245902,,,,,
414602,note_off,,,,,120,0,2,,,,0,53,64
414602,note_on,,,,,0,0,2,,,,0,51,110
414602,note_on,,,,,0,0,1,,,,0,63,108
414602,note_off,,,,,120,0,1,,,,0,65,64
414722,note_on,,,,,0,0,1,,,,0,62,109
414722,note_off,,,,,120,0,2,,,,0,51,64
414722,note_off,,,,,120,0,1,,,,0,63,64
414722,note_on,,,,,0,0,2,,,,0,50,112
414780,set_tempo,,,,,180,1,0,240000,,,,,
414842,note_on,,,,,0,0,1,,,,0,60,111
414842,note_on,,,,,0,0,2,,,,0,48,114
414842,note_off,,,,,120,0,2,,,,0,50,64
414842,note_off,,,,,120,0,1,,,,0,62,64
414962,note_on,,,,,0,0,1,,,,0,58,113
414962,note_off,,,,,120,0,1,,,,0,60,64
414962,note_off,,,,,120,0,2,,,,0,48,64
414962,note_on,,,,,0,0,2,,,,0,46,115
414980,set_tempo,,,,,200,1,0,234375,,,,,
415082,note_off,,,,,120,0,2,,,,0,46,64
415082,note_on,,,,,0,0,1,,,,0,56,118
415082,note_off,,,,,120,0,1,,,,0,58,64
415082,note_on,,,,,0,0,2,,,,0,44,118
415202,note_on,,,,,0,0,1,,,,0,55,120
415202,note_off,,,,,120,0,1,,,,0,56,64
415202,note_off,,,,,120,0,2,,,,0,44,64
415202,note_on,,,,,0,0,2,,,,0,43,121
415322,note_on,,,,,0,0,1,,,,0,54,125
415322,note_off,,,,,120,0,1,,,,0,55,64
415322,note_on,,,,,0,0,2,,,,0,42,121
415322,note_off,,,,,120,0,2,,,,0,43,64
415434,control_change,,,,,112,0,1,,64,0,0,,
415442,note_off,,,,,8,0,1,,,,0,54,64
415442,note_on,,,,,0,0,2,,,,0,31,127
415442,note_on,,,,,0,0,1,,,,0,55,127
415442,control_change,,,,,0,0,1,,64,96,0,,
415442,note_on,,,,,0,0,2,,,,0,43,127
415442,note_off,,,,,120,0,2,,,,0,42,64
415444,set_tempo,,,,,464,1,0,232558,,,,,
415464,set_tempo,,,,,20,1,0,277778,,,,,
415532,note_off,,,,,90,0,1,,,,0,55,64
415532,note_off,,,,,0,0,2,,,,0,31,64
415532,note_off,,,,,90,0,2,,,,0,43,64
415554,control_change,,,,,22,0,1,,64,0,0,,
415562,control_change,,,,,0,0,1,,64,96,0,,
415562,note_on,,,,,8,0,1,,,,0,65,97
415562,note_on,,,,,30,0,2,,,,0,53,100
415564,set_tempo,,,,,100,1,0,243902,,,,,
415584,set_tempo,,,,,20,1,0,242915,,,,,
415644,set_tempo,,,,,60,1,0,241935,,,,,
415682,note_off,,,,,120,0,2,,,,0,53,64
415682,note_on,,,,,0,0,2,,,,0,56,104
415682,note_off,,,,,120,0,1,,,,0,65,64
415682,note_on,,,,,0,0,1,,,,0,68,101
415684,set_tempo,,,,,40,1,0,240964,,,,,
415704,set_tempo,,,,,20,1,0,240000,,,,,
415784,set_tempo,,,,,80,1,0,238095,,,,,
415802,note_on,,,,,0,0,2,,,,0,55,106
415802,note_off,,,,,120,0,1,,,,0,68,64
415802,note_on,,,,,0,0,1,,,,0,67,102
415802,note_off,,,,,120,0,2,,,,0,56,64
415884,set_tempo,,,,,100,1,0,237154,,,,,
415922,note_off,,,,,120,0,1,,,,0,67,64
415922,note_on,,,,,0,0,2,,,,0,53,108
415922,note_on,,,,,0,0,1,,,,0,65,103
415922,note_off,,,,,120,0,2,,,,0,55,64
416024,set_tempo,,,,,140,1,0,236220,,,,,
416042,note_off,,,,,120,0,1,,,,0,65,64
416042,note_off,,,,,120,0,2,,,,0,53,64
416042,note_on,,,,,0,0,1,,,,0,63,108
416042,note_on,,,,,0,0,2,,,,0,51,110
416162,note_off,,,,,120,0,2,,,,0,51,64
416162,note_on,,,,,0,0,2,,,,0,50,112
416162,note_off,,,,,120,0,1,,,,0,63,64
416162,note_on,,,,,0,0,1,,,,0,62,109
416184,set_tempo,,,,,160,1,0,235294,,,,,
416282,note_off,,,,,120,0,1,,,,0,62,64
416282,note_off,,,,,120,0,2,,,,0,50,64
416282,note_on,,,,,0,0,2,,,,0,48,114
416282,note_on,,,,,0,0,1,,,,0,60,111
416384,set_tempo,,,,,200,1,0,234375,,,,,
416402,note_on,,,,,0,0,1,,,,0,58,113
416402,note_off,,,,,120,0,2,,,,0,48,64
416402,note_off,,,,,120,0,1,,,,0,60,64
416402,note_on,,,,,0,0,2,,,,0,46,115
416504,set_tempo,,,,,120,1,0,232558,,,,,
416522,note_off,,,,,120,0,2,,,,0,46,64
416522,note_off,,,,,120,0,1,,,,0,58,64
416522,note_on,,,,,0,0,1,,,,0,56,118
416522,note_on,,,,,0,0,2,,,,0,44,118
416642,note_off,,,,,120,0,1,,,,0,56,64
416642,note_on,,,,,0,0,1,,,,0,55,120
416642,note_off,,,,,120,0,2,,,,0,44,64
416642,note_on,,,,,0,0,2,,,,0,43,121
416644,set_tempo,,,,,140,1,0,231660,,,,,
416762,note_on,,,,,0,0,2,,,,0,42,121
416762,note_off,,,,,120,0,2,,,,0,43,64
416762,note_off,,,,,120,0,1,,,,0,55,64
416762,note_on,,,,,0,0,1,,,,0,54,125
416784,set_tempo,,,,,140,1,0,230769,,,,,
416874,control_change,,,,,112,0,1,,64,0,0,,
416882,control_change,,,,,0,0,1,,64,96,0,,
416882,note_off,,,,,120,0,2,,,,0,42,64
416882,note_off,,,,,8,0,1,,,,0,54,64
416882,note_on,,,,,0,0,1,,,,0,55,127
416882,note_on,,,,,0,0,2,,,,0,31,127
416882,note_on,,,,,0,0,2,,,,0,43,127
416884,set_tempo,,,,,100,1,0,229885,,,,,
416904,set_tempo,,,,,20,1,0,277778,,,,,
416972,note_off,,,,,90,0,1,,,,0,55,64
416972,note_off,,,,,90,0,2,,,,0,31,64
416972,note_off,,,,,0,0,2,,,,0,43,64
416994,control_change,,,,,22,0,1,,64,0,0,,
417002,note_on,,,,,30,0,2,,,,0,41,100
417002,control_change,,,,,0,0,1,,64,96,0,,
417002,note_on,,,,,8,0,1,,,,0,53,97
417004,set_tempo,,,,,100,1,0,241935,,,,,
417044,set_tempo,,,,,40,1,0,240964,,,,,
417064,set_tempo,,,,,20,1,0,240000,,,,,
417122,note_off,,,,,120,0,2,,,,0,41,64
417122,note_off,,,,,120,0,1,,,,0,53,64
417122,note_on,,,,,0,0,1,,,,0,56,101
417122,note_on,,,,,0,0,2,,,,0,44,104
417204,set_tempo,,,,,140,1,0,238095,,,,,
417242,note_on,,,,,0,0,2,,,,0,43,106
417242,note_off,,,,,120,0,2,,,,0,44,64
417242,note_off,,,,,120,0,1,,,,0,56,64
417242,note_on,,,,,0,0,1,,,,0,55,102
417284,set_tempo,,,,,80,1,0,237154,,,,,
417362,note_off,,,,,120,0,1,,,,0,55,64
417362,note_on,,,,,0,0,1,,,,0,53,103
417362,note_off,,,,,120,0,2,,,,0,43,64
417362,note_on,,,,,0,0,2,,,,0,41,108
417384,set_tempo,,,,,100,1,0,236220,,,,,
417482,note_off,,,,,120,0,1,,,,0,53,64
417482,note_off,,,,,120,0,2,,,,0,41,64
417482,note_on,,,,,0,0,2,,,,0,39,110
417482,note_on,,,,,0,0,1,,,,0,51,108
417564,set_tempo,,,,,180,1,0,235294,,,,,
417602,note_off,,,,,120,0,1,,,,0,51,64
417602,note_on,,,,,0,0,1,,,,0,50,109
417602,note_on,,,,,0,0,2,,,,0,38,112
417602,note_off,,,,,120,0,2,,,,0,39,64
417664,set_tempo,,,,,100,1,0,234375,,,,,
417722,note_off,,,,,120,0,1,,,,0,50,64
417722,note_on,,,,,0,0,2,,,,0,36,114
417722,note_off,,,,,120,0,2,,,,0,38,64
417722,note_on,,,,,0,0,1,,,,0,48,111
417764,set_tempo,,,,,100,1,0,232558,,,,,
417842,note_off,,,,,120,0,1,,,,0,48,64
417842,note_on,,,,,0,0,2,,,,0,34,115
417842,note_off,,,,,120,0,2,,,,0,36,64
417842,note_on,,,,,0,0,1,,,,0,46,113
417904,set_tempo,,,,,140,1,0,231660,,,,,
417962,note_off,,,,,120,0,1,,,,0,46,64
417962,note_on,,,,,0,0,2,,,,0,32,118
417962,note_off,,,,,120,0,2,,,,0,34,64
417962,note_on,,,,,0,0,1,,,,0,44,118
417984,set_tempo,,,,,80,1,0,230769,,,,,
418082,note_on,,,,,0,0,2,,,,0,31,121
418082,note_off,,,,,120,0,2,,,,0,32,64
418082,note_on,,,,,0,0,1,,,,0,43,120
418082,note_off,,,,,120,0,1,,,,0,44,64
418124,set_tempo,,,,,140,1,0,229885,,,,,
418202,note_off,,,,,120,0,2,,,,0,31,64
418202,note_off,,,,,120,0,1,,,,0,43,64
418202,note_on,,,,,0,0,1,,,,0,42,125
418202,note_on,,,,,0,0,2,,,,0,30,121
418284,set_tempo,,,,,160,1,0,229008,,,,,
418314,control_change,,,,,112,0,1,,64,0,0,,
418322,note_off,,,,,120,0,2,,,,0,30,64
418322,note_on,,,,,0,0,2,,,,0,31,127
418322,note_off,,,,,8,0,1,,,,0,42,64
418322,note_on,,,,,0,0,1,,,,0,43,127
418344,set_tempo,,,,,60,1,0,280374,,,,,
418384,set_tempo,,,,,40,1,0,227273,,,,,
418442,note_off,,,,,120,0,2,,,,0,31,64
418442,note_on,,,,,0,0,2,,,,0,33,126
418442,note_on,,,,,0,0,1,,,,0,45,126
418442,note_off,,,,,120,0,1,,,,0,43,64
418562,note_off,,,,,120,0,1,,,,0,45,64
418562,note_on,,,,,0,0,1,,,,0,47,126
418562,note_off,,,,,120,0,2,,,,0,33,64
418562,note_on,,,,,0,0,2,,,,0,35,126
418600,set_tempo,,,,,216,1,0,229008,,,,,
418682,note_off,,,,,120,0,2,,,,0,35,64
418682,note_on,,,,,0,0,2,,,,0,36,124
418682,note_on,,,,,0,0,1,,,,0,48,124
418682,note_off,,,,,120,0,1,,,,0,47,64
418800,set_tempo,,,,,200,1,0,231660,,,,,
418802,note_on,,,,,0,0,2,,,,0,38,122
418802,note_off,,,,,120,0,2,,,,0,36,64
418802,note_on,,,,,0,0,1,,,,0,50,122
418802,note_off,,,,,120,0,1,,,,0,48,64
418900,set_tempo,,,,,100,1,0,236220,,,,,
418922,note_off,,,,,120,0,1,,,,0,50,64
418922,note_off,,,,,120,0,2,,,,0,38,64
418922,note_on,,,,,0,0,2,,,,0,39,121
418922,note_on,,,,,0,0,1,,,,0,51,121
419042,note_off,,,,,120,0,2,,,,0,39,64
419042,note_on,,,,,0,0,1,,,,0,53,120
419042,note_on,,,,,0,0,2,,,,0,41,120
419042,note_off,,,,,120,0,1,,,,0,51,64
419060,set_tempo,,,,,160,1,0,240000,,,,,
419162,note_on,,,,,0,0,1,,,,0,55,117
419162,note_off,,,,,120,0,1,,,,0,53,64
419162,note_on,,,,,0,0,2,,,,0,43,117
419162,note_off,,,,,120,0,2,,,,0,41,64
419200,set_tempo,,,,,140,1,0,240964,,,,,
419220,set_tempo,,,,,20,1,0,246914,,,,,
419282,note_on,,,,,0,0,1,,,,0,57,115
419282,note_off,,,,,120,0,1,,,,0,55,64
419282,note_off,,,,,120,0,2,,,,0,43,64
419282,note_on,,,,,0,0,2,,,,0,45,115
419402,note_off,,,,,120,0,2,,,,0,45,64
419402,note_off,,,,,120,0,1,,,,0,57,64
419402,note_on,,,,,0,0,1,,,,0,59,115
419402,note_on,,,,,0,0,2,,,,0,47,115
419500,set_tempo,,,,,280,1,0,252101,,,,,
419522,note_off,,,,,120,0,2,,,,0,47,64
419522,note_on,,,,,0,0,2,,,,0,48,113
419522,note_on,,,,,0,0,1,,,,0,60,113
419522,note_off,,,,,120,0,1,,,,0,59,64
419600,set_tempo,,,,,100,1,0,255319,,,,,
419642,note_off,,,,,120,0,1,,,,0,60,64
419642,note_on,,,,,0,0,1,,,,0,62,107
419642,note_on,,,,,0,0,2,,,,0,50,107
419642,note_off,,,,,120,0,2,,,,0,48,64
419762,note_off,,,,,120,0,2,,,,0,50,64
419762,note_on,,,,,0,0,1,,,,0,63,107
419762,note_on,,,,,0,0,2,,,,0,51,107
419762,note_off,,,,,120,0,1,,,,0,62,64
419860,set_tempo,,,,,260,1,0,267857,,,,,
419882,note_off,,,,,120,0,2,,,,0,51,64
419882,note_on,,,,,0,0,2,,,,0,53,97
419882,note_on,,,,,0,0,1,,,,0,65,97
419882,note_off,,,,,120,0,1,,,,0,63,64
420002,note_on,,,,,0,0,2,,,,0,55,96
420002,note_off,,,,,120,0,1,,,,0,65,64
420002,note_on,,,,,0,0,1,,,,0,67,96
420002,note_off,,,,,120,0,2,,,,0,53,64
420122,note_off,,,,,120,0,1,,,,0,67,64
420122,note_on,,,,,0,0,1,,,,0,69,90
420122,note_off,,,,,120,0,2,,,,0,55,64
420122,note_on,,,,,0,0,2,,,,0,57,90
420180,set_tempo,,,,,320,1,0,275229,,,,,
420242,note_off,,,,,120,0,1,,,,0,69,64
420242,note_on,,,,,0,0,2,,,,0,59,85
420242,note_on,,,,,0,0,1,,,,0,71,85
420242,note_off,,,,,120,0,2,,,,0,57,64
420340,set_tempo,,,,,160,1,0,285714,,,,,
420362,note_off,,,,,120,0,2,,,,0,59,64
420362,note_on,,,,,0,0,1,,,,0,72,78
420362,note_on,,,,,0,0,2,,,,0,60,78
420362,note_off,,,,,120,0,1,,,,0,71,64
420482,note_on,,,,,0,0,2,,,,0,62,76
420482,note_off,,,,,120,0,2,,,,0,60,64
420482,note_on,,,,,0,0,1,,,,0,74,76
420482,note_off,,,,,120,0,1,,,,0,72,64
420560,set_tempo,,,,,220,1,0,297030,,,,,
420602,note_on,,,,,0,0,1,,,,0,75,66
420602,note_off,,,,,120,0,1,,,,0,74,64
420700,set_tempo,,,,,140,1,0,309278,,,,,
420722,note_on,,,,,0,0,1,,,,0,77,59
420722,note_off,,,,,120,0,1,,,,0,75,64
420722,note_off,,,,,240,0,2,,,,0,62,64
420840,set_tempo,,,,,140,1,0,319149,,,,,
420842,note_off,,,,,120,0,1,,,,0,77,64
420842,note_on,,,,,0,0,1,,,,0,79,55
420842,note_on,,,,,120,0,2,,,,0,43,37
420860,set_tempo,,,,,20,1,0,322581,,,,,
420962,note_on,,,,,0,0,2,,,,0,42,40
420962,note_off,,,,,120,0,2,,,,0,43,64
420962,note_off,,,,,120,0,1,,,,0,79,64
420962,note_on,,,,,0,0,1,,,,0,81,55
420980,set_tempo,,,,,120,1,0,337079,,,,,
421082,note_on,,,,,0,0,1,,,,0,83,65
421082,note_off,,,,,120,0,1,,,,0,81,64
421082,note_on,,,,,0,0,2,,,,0,41,46
421082,note_off,,,,,120,0,2,,,,0,42,64
421120,set_tempo,,,,,140,1,0,344828,,,,,
421200,note_on,,,,,0,0,1,,,,0,84,68
421200,note_on,,,,,118,0,1,,,,0,91,68
421200,note_on,,,,,118,0,2,,,,0,39,52
421202,note_off,,,,,2,0,2,,,,0,41,64
421202,note_off,,,,,2,0,1,,,,0,83,64
421320,note_off,,,,,118,0,2,,,,0,39,64
421320,note_on,,,,,0,0,2,,,,0,38,44
421380,set_tempo,,,,,260,1,0,263158,,,,,
421420,set_tempo,,,,,40,1,0,260870,,,,,
421440,note_off,,,,,238,0,1,,,,0,84,64
421440,note_off,,,,,0,0,1,,,,0,91,64
421440,note_off,,,,,120,0,2,,,,0,38,64
421440,note_on,,,,,0,0,2,,,,0,39,39
421560,note_on,,,,,0,0,2,,,,0,43,36
421560,note_on,,,,,120,0,1,,,,0,84,58
421560,note_off,,,,,120,0,2,,,,0,39,64
421660,set_tempo,,,,,240,1,0,258621,,,,,
421680,note_on,,,,,0,0,2,,,,0,42,41
421680,note_off,,,,,120,0,2,,,,0,43,64
421800,note_on,,,,,0,0,2,,,,0,43,45
421800,note_off,,,,,120,0,2,,,,0,42,64
421800,note_off,,,,,240,0,1,,,,0,84,64
421920,note_on,,,,,120,0,1,,,,0,67,63
421920,note_off,,,,,120,0,2,,,,0,43,64
421920,note_on,,,,,0,0,2,,,,0,39,50
422040,note_off,,,,,120,0,2,,,,0,39,64
422040,note_on,,,,,0,0,2,,,,0,38,47
422040,set_tempo,,,,,380,1,0,254237,,,,,
422160,note_on,,,,,0,0,2,,,,0,39,45
422160,note_off,,,,,240,0,1,,,,0,67,64
422160,note_off,,,,,120,0,2,,,,0,38,64
422280,note_on,,,,,120,0,1,,,,0,60,56
422280,note_on,,,,,0,0,2,,,,0,43,41
422280,note_off,,,,,120,0,2,,,,0,39,64
422360,set_tempo,,,,,320,1,0,252101,,,,,
422400,note_off,,,,,120,0,2,,,,0,43,64
422400,note_on,,,,,0,0,2,,,,0,42,44
422520,note_off,,,,,120,0,2,,,,0,42,64
422520,note_on,,,,,0,0,2,,,,0,43,48
422520,note_off,,,,,240,0,1,,,,0,60,64
422640,note_off,,,,,120,0,2,,,,0,43,64
422640,note_on,,,,,120,0,1,,,,0,72,59
422640,note_on,,,,,0,0,1,,,,0,84,59
422640,note_on,,,,,0,0,2,,,,0,41,54
422740,set_tempo,,,,,380,1,0,247934,,,,,
422760,note_off,,,,,120,0,2,,,,0,41,64
422760,note_on,,,,,0,0,2,,,,0,40,46
422760,set_tempo,,,,,20,1,0,246914,,,,,
422880,note_off,,,,,120,0,2,,,,0,40,64
422880,note_on,,,,,0,0,2,,,,0,41,43
423000,note_off,,,,,120,0,2,,,,0,41,64
423000,note_on,,,,,0,0,2,,,,0,44,39
423120,note_off,,,,,120,0,2,,,,0,44,64
423120,note_on,,,,,0,0,2,,,,0,43,39
423240,note_off,,,,,120,0,2,,,,0,43,64
423240,note_on,,,,,0,0,2,,,,0,44,45
423240,note_off,,,,,600,0,1,,,,0,84,64
423240,note_off,,,,,0,0,1,,,,0,72,64
423360,note_off,,,,,120,0,2,,,,0,44,64
423360,note_on,,,,,120,0,1,,,,0,65,59
423360,note_on,,,,,0,0,2,,,,0,41,49
423360,note_on,,,,,0,0,1,,,,0,77,59
423480,note_on,,,,,0,0,2,,,,0,40,44
423480,note_off,,,,,120,0,2,,,,0,41,64
423540,set_tempo,,,,,780,1,0,242915,,,,,
423600,note_on,,,,,0,0,2,,,,0,41,43
423600,note_off,,,,,120,0,2,,,,0,40,64
423720,note_on,,,,,0,0,2,,,,0,44,40
423720,note_off,,,,,120,0,2,,,,0,41,64
423840,note_off,,,,,120,0,2,,,,0,44,64
423840,note_on,,,,,0,0,2,,,,0,43,39
423860,set_tempo,,,,,320,1,0,241935,,,,,
423880,set_tempo,,,,,20,1,0,240000,,,,,
423960,note_off,,,,,120,0,2,,,,0,43,64
423960,note_off,,,,,0,0,1,,,,0,65,64
423960,note_on,,,,,0,0,2,,,,0,44,36
423960,note_off,,,,,600,0,1,,,,0,77,64
424080,note_on,,,,,120,0,1,,,,0,75,53
424080,note_off,,,,,120,0,2,,,,0,44,64
424080,note_on,,,,,0,0,2,,,,0,43,41
424200,note_off,,,,,120,0,2,,,,0,43,64
424200,note_on,,,,,0,0,2,,,,0,42,38
424320,note_on,,,,,0,0,2,,,,0,43,36
424320,note_off,,,,,120,0,2,,,,0,42,64
424320,note_off,,,,,240,0,1,,,,0,75,64
424440,note_on,,,,,120,0,1,,,,0,67,50
424440,note_on,,,,,0,0,1,,,,0,79,50
424440,note_off,,,,,120,0,2,,,,0,43,64
424440,note_on,,,,,0,0,2,,,,0,48,38
424500,set_tempo,,,,,620,1,0,237154,,,,,
424560,note_off,,,,,120,0,2,,,,0,48,64
424560,note_on,,,,,0,0,2,,,,0,47,36
424680,note_off,,,,,0,0,1,,,,0,67,64
424680,note_off,,,,,240,0,1,,,,0,79,64
424680,note_off,,,,,120,0,2,,,,0,47,64
424680,note_on,,,,,0,0,2,,,,0,48,33
424740,set_tempo,,,,,240,1,0,236220,,,,,
424800,note_on,,,,,120,0,1,,,,0,62,52
424800,note_off,,,,,120,0,2,,,,0,48,64
424800,note_on,,,,,0,0,2,,,,0,43,40
424920,note_off,,,,,120,0,2,,,,0,43,64
424920,note_on,,,,,0,0,2,,,,0,42,39
424980,set_tempo,,,,,240,1,0,234375,,,,,
425040,note_off,,,,,240,0,1,,,,0,62,64
425040,note_on,,,,,0,0,2,,,,0,43,34
425040,note_off,,,,,120,0,2,,,,0,42,64
425160,note_on,,,,,0,0,2,,,,0,47,40
425160,note_on,,,,,120,0,1,,,,0,67,56
425160,note_off,,,,,120,0,2,,,,0,43,64
425280,note_off,,,,,120,0,2,,,,0,47,64
425280,note_on,,,,,0,0,2,,,,0,46,35
425400,note_off,,,,,240,0,1,,,,0,67,64
425400,note_off,,,,,120,0,2,,,,0,46,64
425400,note_on,,,,,0,0,2,,,,0,47,32
425520,note_on,,,,,120,0,1,,,,0,91,68
425520,note_off,,,,,120,0,2,,,,0,47,64
425520,note_on,,,,,0,0,2,,,,0,39,52
425640,note_on,,,,,0,0,1,,,,0,90,58
425640,note_off,,,,,120,0,1,,,,0,91,64
425640,note_on,,,,,0,0,2,,,,0,38,44
425640,note_off,,,,,120,0,2,,,,0,39,64
425760,note_on,,,,,0,0,1,,,,0,91,56
425760,note_off,,,,,120,0,1,,,,0,90,64
425760,note_on,,,,,0,0,2,,,,0,39,39
425760,note_off,,,,,120,0,2,,,,0,38,64
425880,note_on,,,,,0,0,1,,,,0,84,53
425880,note_off,,,,,120,0,1,,,,0,91,64
425880,note_off,,,,,120,0,2,,,,0,39,64
425880,note_on,,,,,0,0,2,,,,0,43,36
426000,note_off,,,,,120,0,2,,,,0,43,64
426000,note_on,,,,,0,0,2,,,,0,42,41
426120,note_on,,,,,0,0,2,,,,0,43,45
426120,note_off,,,,,120,0,2,,,,0,42,64
426120,note_off,,,,,240,0,1,,,,0,84,64
426240,note_on,,,,,0,0,2,,,,0,39,50
426240,note_off,,,,,120,0,2,,,,0,43,64
426240,note_on,,,,,120,0,1,,,,0,67,68
426360,note_on,,,,,0,0,2,,,,0,38,47
426360,note_off,,,,,120,0,1,,,,0,67,64
426360,note_on,,,,,0,0,1,,,,0,66,58
426360,note_off,,,,,120,0,2,,,,0,39,64
426480,note_off,,,,,120,0,2,,,,0,38,64
426480,note_on,,,,,0,0,2,,,,0,39,45
426480,note_off,,,,,120,0,1,,,,0,66,64
426480,note_on,,,,,0,0,1,,,,0,67,56
426600,note_off,,,,,120,0,1,,,,0,67,64
426600,note_on,,,,,0,0,1,,,,0,60,56
426600,note_on,,,,,0,0,2,,,,0,43,41
426600,note_off,,,,,120,0,2,,,,0,39,64
426700,set_tempo,,,,,1720,1,0,235294,,,,,
426720,note_off,,,,,120,0,2,,,,0,43,64
426720,note_on,,,,,0,0,2,,,,0,42,44
426840,note_off,,,,,240,0,1,,,,0,60,64
426840,note_on,,,,,0,0,2,,,,0,43,48
426840,note_off,,,,,120,0,2,,,,0,42,64
426960,note_off,,,,,120,0,2,,,,0,43,64
426960,note_on,,,,,120,0,1,,,,0,84,45
426960,note_on,,,,,0,0,2,,,,0,40,43
427080,note_on,,,,,0,0,1,,,,0,83,51
427080,note_off,,,,,120,0,1,,,,0,84,64
427080,note_on,,,,,0,0,2,,,,0,39,46
427080,note_off,,,,,120,0,2,,,,0,40,64
427180,set_tempo,,,,,480,1,0,234375,,,,,
427200,note_on,,,,,0,0,1,,,,0,82,56
427200,note_on,,,,,0,0,2,,,,0,40,48
427200,note_off,,,,,120,0,1,,,,0,83,64
427200,note_off,,,,,120,0,2,,,,0,39,64
427320,note_on,,,,,0,0,2,,,,0,43,50
427320,note_off,,,,,120,0,2,,,,0,40,64
427320,note_off,,,,,120,0,1,,,,0,82,64
427320,note_on,,,,,0,0,1,,,,0,81,60
427440,note_off,,,,,120,0,2,,,,0,43,64
427440,note_on,,,,,0,0,2,,,,0,40,53
427440,note_off,,,,,120,0,1,,,,0,81,64
427440,note_on,,,,,0,0,1,,,,0,80,64
427560,note_off,,,,,120,0,1,,,,0,80,64
427560,note_on,,,,,0,0,2,,,,0,43,54
427560,note_off,,,,,120,0,2,,,,0,40,64
427560,note_on,,,,,0,0,1,,,,0,79,66
427680,note_off,,,,,120,0,1,,,,0,79,64
427680,note_on,,,,,0,0,2,,,,0,41,56
427680,note_on,,,,,0,0,1,,,,0,78,66
427680,note_off,,,,,120,0,2,,,,0,43,64
427800,note_off,,,,,120,0,2,,,,0,41,64
427800,note_on,,,,,0,0,1,,,,0,77,66
427800,note_off,,,,,120,0,1,,,,0,78,64
427800,note_on,,,,,0,0,2,,,,0,40,56
427920,note_on,,,,,0,0,1,,,,0,76,63
427920,set_tempo,,,,,740,1,0,232558,,,,,
427920,note_on,,,,,0,0,2,,,,0,41,52
427920,note_off,,,,,120,0,2,,,,0,40,64
427920,note_off,,,,,120,0,1,,,,0,77,64
428040,note_off,,,,,120,0,1,,,,0,76,64
428040,note_on,,,,,0,0,1,,,,0,77,61
428040,note_off,,,,,120,0,2,,,,0,41,64
428040,note_on,,,,,0,0,2,,,,0,48,48
428160,note_on,,,,,0,0,2,,,,0,41,47
428160,note_off,,,,,120,0,1,,,,0,77,64
428160,note_on,,,,,0,0,1,,,,0,79,57
428160,note_off,,,,,120,0,2,,,,0,48,64
428280,note_on,,,,,0,0,2,,,,0,48,44
428280,note_off,,,,,120,0,2,,,,0,41,64
428280,note_off,,,,,120,0,1,,,,0,79,64
428280,note_on,,,,,0,0,1,,,,0,80,55
428400,note_off,,,,,120,0,1,,,,0,80,64
428400,note_on,,,,,0,0,2,,,,0,43,42
428400,note_off,,,,,120,0,2,,,,0,48,64
428400,note_on,,,,,0,0,1,,,,0,79,51
428520,note_on,,,,,0,0,2,,,,0,42,38
428520,note_off,,,,,120,0,2,,,,0,43,64
428520,set_tempo,,,,,600,1,0,231660,,,,,
428640,note_on,,,,,0,0,2,,,,0,43,36
428640,note_off,,,,,240,0,1,,,,0,79,64
428640,note_off,,,,,120,0,2,,,,0,42,64
428760,note_on,,,,,120,0,1,,,,0,63,38
428760,note_off,,,,,120,0,2,,,,0,43,64
428760,note_on,,,,,0,0,1,,,,0,75,38
428760,note_on,,,,,0,0,2,,,,0,48,38
428880,note_off,,,,,120,0,2,,,,0,48,64
428880,note_on,,,,,0,0,2,,,,0,43,36
428980,set_tempo,,,,,460,1,0,230769,,,,,
429000,note_off,,,,,240,0,1,,,,0,75,64
429000,note_on,,,,,0,0,2,,,,0,48,33
429000,note_off,,,,,0,0,1,,,,0,63,64
429000,note_off,,,,,120,0,2,,,,0,43,64
429120,note_off,,,,,120,0,2,,,,0,48,64
429120,note_on,,,,,0,0,2,,,,0,43,40
429120,note_on,,,,,120,0,1,,,,0,74,41
429120,note_on,,,,,0,0,1,,,,0,62,41
429240,note_off,,,,,120,0,2,,,,0,43,64
429240,note_on,,,,,0,0,2,,,,0,42,39
429360,note_off,,,,,0,0,1,,,,0,74,64
429360,note_off,,,,,240,0,1,,,,0,62,64
429360,note_on,,,,,0,0,2,,,,0,43,34
429360,note_off,,,,,120,0,2,,,,0,42,64
429480,note_on,,,,,0,0,2,,,,0,47,40
429480,note_on,,,,,0,0,1,,,,0,67,49
429480,note_on,,,,,120,0,1,,,,0,79,49
429480,note_off,,,,,120,0,2,,,,0,43,64
429600,note_on,,,,,0,0,2,,,,0,46,35
429600,note_off,,,,,120,0,2,,,,0,47,64
429620,set_tempo,,,,,640,1,0,229885,,,,,
429720,note_off,,,,,240,0,1,,,,0,67,64
429720,note_on,,,,,0,0,2,,,,0,47,32
429720,note_off,,,,,120,0,2,,,,0,46,64
429720,note_off,,,,,0,0,1,,,,0,79,64
429840,note_on,,,,,120,0,1,,,,0,63,33
429840,note_on,,,,,0,0,2,,,,0,43,41
429840,note_off,,,,,120,0,2,,,,0,47,64
429960,note_off,,,,,120,0,2,,,,0,43,64
429960,note_on,,,,,0,0,1,,,,0,62,37
429960,note_on,,,,,0,0,2,,,,0,42,38
429960,note_off,,,,,120,0,1,,,,0,63,64
430000,set_tempo,,,,,380,1,0,230769,,,,,
430080,note_on,,,,,0,0,1,,,,0,63,41
430080,note_on,,,,,0,0,2,,,,0,43,36
430080,note_off,,,,,120,0,2,,,,0,42,64
430080,note_off,,,,,120,0,1,,,,0,62,64
430200,note_off,,,,,120,0,1,,,,0,63,64
430200,note_on,,,,,0,0,1,,,,0,67,43
430200,note_off,,,,,120,0,2,,,,0,43,64
430200,note_on,,,,,0,0,2,,,,0,48,38
430320,note_on,,,,,0,0,2,,,,0,43,36
430320,note_off,,,,,120,0,2,,,,0,48,64
430380,set_tempo,,,,,380,1,0,234375,,,,,
430420,set_tempo,,,,,40,1,0,235294,,,,,
430440,note_off,,,,,240,0,1,,,,0,67,64
430440,note_off,,,,,120,0,2,,,,0,43,64
430440,note_on,,,,,0,0,2,,,,0,48,33
430560,note_on,,,,,120,0,1,,,,0,62,30
430560,note_off,,,,,120,0,2,,,,0,48,64
430560,note_on,,,,,0,0,2,,,,0,43,36
430660,set_tempo,,,,,240,1,0,240000,,,,,
430680,note_on,,,,,0,0,2,,,,0,42,34
430680,note_off,,,,,120,0,2,,,,0,43,64
430680,note_on,,,,,0,0,1,,,,0,61,33
430680,note_off,,,,,120,0,1,,,,0,62,64
430800,note_on,,,,,0,0,2,,,,0,43,33
430800,note_on,,,,,0,0,1,,,,0,62,36
430800,note_off,,,,,120,0,1,,,,0,61,64
430800,note_off,,,,,120,0,2,,,,0,42,64
430920,note_on,,,,,0,0,1,,,,0,67,40
430920,note_off,,,,,120,0,2,,,,0,43,64
430920,note_on,,,,,0,0,2,,,,0,47,32
430920,note_off,,,,,120,0,1,,,,0,62,64
430960,set_tempo,,,,,300,1,0,245902,,,,,
431040,note_off,,,,,120,0,2,,,,0,47,64
431040,note_on,,,,,0,0,2,,,,0,46,32
431160,note_off,,,,,240,0,1,,,,0,67,64
431160,note_off,,,,,120,0,2,,,,0,46,64
431160,note_on,,,,,0,0,2,,,,0,47,30
431180,set_tempo,,,,,220,1,0,250000,,,,,
431280,note_on,,,,,0,0,2,,,,0,43,34
431280,note_on,,,,,120,0,1,,,,0,51,28
431280,note_off,,,,,120,0,2,,,,0,47,64
431380,set_tempo,,,,,200,1,0,259740,,,,,
431400,note_off,,,,,120,0,2,,,,0,43,64
431400,note_on,,,,,0,0,2,,,,0,42,32
431400,note_off,,,,,120,0,1,,,,0,51,64
431400,note_on,,,,,0,0,1,,,,0,50,33
431520,note_on,,,,,0,0,2,,,,0,43,30
431520,note_on,,,,,0,0,1,,,,0,51,37
431520,note_off,,,,,120,0,2,,,,0,42,64
431520,note_off,,,,,120,0,1,,,,0,50,64
431640,note_off,,,,,120,0,2,,,,0,43,64
431640,note_on,,,,,0,0,1,,,,0,55,39
431640,note_off,,,,,120,0,1,,,,0,51,64
431640,note_on,,,,,0,0,2,,,,0,48,29
431740,set_tempo,,,,,360,1,0,266667,,,,,
431760,note_on,,,,,0,0,2,,,,0,43,28
431760,note_off,,,,,120,0,2,,,,0,48,64
431880,note_off,,,,,240,0,1,,,,0,55,64
431880,note_off,,,,,120,0,2,,,,0,43,64
431880,note_on,,,,,0,0,2,,,,0,48,28
431900,set_tempo,,,,,160,1,0,270270,,,,,
431920,set_tempo,,,,,20,1,0,272727,,,,,
432000,note_on,,,,,0,0,2,,,,0,43,28
432000,note_off,,,,,120,0,2,,,,0,48,64
432000,note_on,,,,,120,0,1,,,,0,50,26
432060,set_tempo,,,,,140,1,0,292683,,,,,
432120,note_off,,,,,120,0,1,,,,0,50,64
432120,note_off,,,,,120,0,2,,,,0,43,64
432120,note_on,,,,,0,0,2,,,,0,42,31
432120,note_on,,,,,0,0,1,,,,0,49,30
432160,set_tempo,,,,,100,1,0,320856,,,,,
432240,note_on,,,,,0,0,2,,,,0,43,28
432240,note_off,,,,,120,0,2,,,,0,42,64
432240,note_on,,,,,0,0,1,,,,0,50,32
432240,note_off,,,,,120,0,1,,,,0,49,64
432360,note_off,,,,,120,0,1,,,,0,50,64
432360,note_on,,,,,0,0,1,,,,0,55,37
432360,note_on,,,,,0,0,2,,,,0,47,27
432360,note_off,,,,,120,0,2,,,,0,43,64
432380,set_tempo,,,,,220,1,0,400000,,,,,
432480,note_on,,,,,0,0,2,,,,0,46,25
432480,note_off,,,,,120,0,2,,,,0,47,64
432500,set_tempo,,,,,120,1,0,447761,,,,,
432600,note_on,,,,,0,0,2,,,,0,47,24
432600,note_off,,,,,240,0,1,,,,0,55,64
432600,note_off,,,,,120,0,2,,,,0,46,64
432620,set_tempo,,,,,120,1,0,500000,,,,,
432680,set_tempo,,,,,60,1,0,508475,,,,,
432700,set_tempo,,,,,20,1,0,382166,,,,,
432720,note_on,,,,,0,0,2,,,,0,48,27
432720,note_off,,,,,120,0,2,,,,0,47,64
432760,set_tempo,,,,,60,1,0,344828,,,,,
432840,note_off,,,,,120,0,2,,,,0,48,64
432840,note_on,,,,,0,0,2,,,,0,47,32
432880,set_tempo,,,,,120,1,0,315789,,,,,
432960,set_tempo,,,,,80,1,0,300000,,,,,
432960,note_off,,,,,120,0,2,,,,0,47,64
432960,note_on,,,,,0,0,2,,,,0,48,35
433060,set_tempo,,,,,100,1,0,281690,,,,,
433080,note_on,,,,,0,0,2,,,,0,55,38
433080,note_on,,,,,0,0,2,,,,0,52,38
433080,note_off,,,,,120,0,2,,,,0,48,64
433080,control_change,,,,,480,0,1,,64,95,0,,
433140,set_tempo,,,,,80,1,0,280374,,,,,
433200,set_tempo,,,,,60,1,0,276498,,,,,
433340,set_tempo,,,,,140,1,0,272727,,,,,
433360,set_tempo,,,,,20,1,0,270270,,,,,
433432,control_change,,,,,352,0,1,,64,0,0,,
433440,note_on,,,,,0,0,2,,,,0,48,29
433440,note_off,,,,,0,0,2,,,,0,52,64
433440,note_on,,,,,0,0,1,,,,0,64,46
433440,note_on,,,,,8,0,1,,,,0,76,46
433440,note_off,,,,,360,0,2,,,,0,55,64
433560,note_on,,,,,0,0,2,,,,0,47,31
433560,note_off,,,,,120,0,2,,,,0,48,64
433560,set_tempo,,,,,200,1,0,266667,,,,,
433680,set_tempo,,,,,120,1,0,265487,,,,,
433680,note_off,,,,,120,0,2,,,,0,47,64
433680,note_on,,,,,0,0,2,,,,0,48,34
433700,set_tempo,,,,,20,1,0,263158,,,,,
433800,note_off,,,,,120,0,2,,,,0,48,64
433800,control_change,,,,,360,0,1,,64,95,0,,
433800,note_on,,,,,0,0,2,,,,0,55,38
433800,note_on,,,,,0,0,2,,,,0,52,38
433820,set_tempo,,,,,120,1,0,259740,,,,,
433960,set_tempo,,,,,140,1,0,255319,,,,,
434020,set_tempo,,,,,60,1,0,254237,,,,,
434152,control_change,,,,,352,0,1,,64,0,0,,
434160,note_on,,,,,0,0,1,,,,0,72,40
434160,note_on,,,,,0,0,1,,,,0,60,40
434160,note_off,,,,,8,0,1,,,,0,64,64
434160,note_on,,,,,0,0,2,,,,0,48,31
434160,note_off,,,,,0,0,2,,,,0,52,64
434160,note_off,,,,,360,0,2,,,,0,55,64
434160,note_off,,,,,0,0,1,,,,0,76,64
434180,set_tempo,,,,,160,1,0,253165,,,,,
434280,note_off,,,,,120,0,2,,,,0,48,64
434280,note_on,,,,,0,0,2,,,,0,47,33
434400,note_off,,,,,120,0,2,,,,0,47,64
434400,note_on,,,,,0,0,2,,,,0,48,37
434420,set_tempo,,,,,240,1,0,248963,,,,,
434520,note_on,,,,,0,0,2,,,,0,55,40
434520,note_on,,,,,0,0,2,,,,0,52,40
434520,note_off,,,,,120,0,2,,,,0,48,64
434580,set_tempo,,,,,160,1,0,245902,,,,,
434820,set_tempo,,,,,240,1,0,241935,,,,,
434866,control_change,,,,,706,0,1,,64,0,0,,
434880,note_on,,,,,0,0,2,,,,0,46,31
434880,note_off,,,,,0,0,2,,,,0,52,64
434880,note_off,,,,,360,0,2,,,,0,55,64
434880,note_on,,,,,0,0,1,,,,0,68,42
434880,note_on,,,,,0,0,1,,,,0,56,42
434880,note_off,,,,,0,0,1,,,,0,72,64
434880,note_off,,,,,14,0,1,,,,0,60,64
434980,set_tempo,,,,,160,1,0,240964,,,,,
435000,note_off,,,,,120,0,2,,,,0,46,64
435000,note_on,,,,,0,0,2,,,,0,45,33
435120,note_off,,,,,120,0,2,,,,0,45,64
435120,note_on,,,,,0,0,2,,,,0,46,37
435180,set_tempo,,,,,200,1,0,237154,,,,,
435240,note_on,,,,,0,0,2,,,,0,50,40
435240,note_on,,,,,0,0,2,,,,0,52,40
435240,note_off,,,,,120,0,2,,,,0,46,64
435240,note_off,,,,,360,0,1,,,,0,68,64
435240,note_off,,,,,0,0,1,,,,0,56,64
435240,note_on,,,,,0,0,1,,,,0,64,37
435240,control_change,,,,,0,0,1,,64,95,0,,
435340,set_tempo,,,,,160,1,0,236220,,,,,
435540,set_tempo,,,,,200,1,0,235294,,,,,
435592,control_change,,,,,352,0,1,,64,0,0,,
435600,note_off,,,,,360,0,2,,,,0,50,64
435600,note_on,,,,,0,0,1,,,,0,57,42
435600,note_on,,,,,0,0,1,,,,0,69,42
435600,note_off,,,,,8,0,1,,,,0,64,64
435600,note_off,,,,,0,0,2,,,,0,52,64
435600,note_on,,,,,0,0,2,,,,0,45,31
435720,note_on,,,,,0,0,2,,,,0,44,31
435720,note_off,,,,,120,0,2,,,,0,45,64
435740,set_tempo,,,,,200,1,0,234375,,,,,
435840,note_on,,,,,0,0,2,,,,0,45,31
435840,note_off,,,,,120,0,2,,,,0,44,64
435860,set_tempo,,,,,120,1,0,232558,,,,,
435960,note_off,,,,,120,0,2,,,,0,45,64
435960,note_on,,,,,0,0,2,,,,0,52,40
435960,control_change,,,,,360,0,1,,64,95,0,,
435960,note_on,,,,,0,0,2,,,,0,49,40
436060,set_tempo,,,,,200,1,0,231660,,,,,
436260,note_off,,,,,300,0,1,,,,0,57,64
436260,note_off,,,,,0,0,1,,,,0,69,64
436260,set_tempo,,,,,200,1,0,230769,,,,,
436312,control_change,,,,,52,0,1,,64,0,0,,
436320,note_on,,,,,0,0,1,,,,0,57,48
436320,note_on,,,,,0,0,2,,,,0,45,40
436320,note_on,,,,,8,0,1,,,,0,69,48
436320,note_off,,,,,360,0,2,,,,0,52,64
436320,note_off,,,,,0,0,2,,,,0,49,64
436440,note_on,,,,,0,0,2,,,,0,44,43
436440,note_off,,,,,120,0,2,,,,0,45,64
436560,note_on,,,,,0,0,2,,,,0,45,44
436560,note_off,,,,,120,0,2,,,,0,44,64
436680,note_on,,,,,0,0,2,,,,0,50,45
436680,note_off,,,,,120,0,2,,,,0,45,64
436680,note_on,,,,,0,0,2,,,,0,53,45
436680,control_change,,,,,360,0,1,,64,95,0,,
436700,set_tempo,,,,,440,1,0,229885,,,,,
436900,set_tempo,,,,,200,1,0,229008,,,,,
437032,control_change,,,,,352,0,1,,64,0,0,,
437040,note_on,,,,,0,0,1,,,,0,57,42
437040,note_off,,,,,8,0,1,,,,0,57,64
437040,note_off,,,,,0,0,1,,,,0,69,64
437040,note_on,,,,,0,0,2,,,,0,45,42
437040,note_off,,,,,0,0,2,,,,0,50,64
437040,note_off,,,,,360,0,2,,,,0,53,64
437040,note_on,,,,,0,0,1,,,,0,69,42
437160,note_on,,,,,0,0,2,,,,0,44,38
437160,note_off,,,,,120,0,2,,,,0,45,64
437280,note_off,,,,,120,0,2,,,,0,44,64
437280,note_on,,,,,0,0,2,,,,0,45,35
437400,note_off,,,,,120,0,2,,,,0,45,64
437400,note_on,,,,,0,0,2,,,,0,49,33
437400,control_change,,,,,360,0,1,,64,95,0,,
437400,note_on,,,,,0,0,2,,,,0,52,33
437700,note_off,,,,,0,0,1,,,,0,69,64
437700,note_off,,,,,300,0,1,,,,0,57,64
437752,control_change,,,,,52,0,1,,64,0,0,,
437760,note_on,,,,,8,0,1,,,,0,56,37
437760,note_on,,,,,0,0,2,,,,0,46,45
437760,note_off,,,,,0,0,2,,,,0,49,64
437760,note_off,,,,,360,0,2,,,,0,52,64
437760,note_on,,,,,0,0,1,,,,0,68,37
437880,note_off,,,,,120,0,2,,,,0,46,64
437880,note_on,,,,,0,0,2,,,,0,45,33
438000,note_on,,,,,0,0,2,,,,0,46,37
438000,note_off,,,,,120,0,2,,,,0,45,64
438120,note_off,,,,,360,0,1,,,,0,68,64
438120,note_off,,,,,0,0,1,,,,0,56,64
438120,note_off,,,,,120,0,2,,,,0,46,64
438120,note_on,,,,,0,0,2,,,,0,52,40
438120,note_on,,,,,0,0,1,,,,0,64,43
438120,note_on,,,,,0,0,2,,,,0,50,40
438120,control_change,,,,,0,0,1,,64,95,0,,
438380,set_tempo,,,,,1480,1,0,231660,,,,,
438472,control_change,,,,,352,0,1,,64,0,0,,
438480,note_on,,,,,0,0,2,,,,0,45,31
438480,note_off,,,,,8,0,1,,,,0,64,64
438480,note_off,,,,,360,0,2,,,,0,50,64
438480,note_off,,,,,0,0,2,,,,0,52,64
438480,note_on,,,,,0,0,1,,,,0,57,49
438480,note_on,,,,,0,0,1,,,,0,69,49
438600,note_on,,,,,0,0,2,,,,0,44,31
438600,note_off,,,,,120,0,2,,,,0,45,64
438720,note_on,,,,,0,0,2,,,,0,45,31
438720,note_off,,,,,120,0,2,,,,0,44,64
438840,note_on,,,,,0,0,2,,,,0,54,40
438840,note_on,,,,,0,0,2,,,,0,50,40
438840,control_change,,,,,360,0,1,,64,95,0,,
438840,note_off,,,,,120,0,2,,,,0,45,64
438900,set_tempo,,,,,520,1,0,237154,,,,,
439060,set_tempo,,,,,160,1,0,238095,,,,,
439140,note_off,,,,,0,0,1,,,,0,69,64
439140,note_off,,,,,300,0,1,,,,0,57,64
439192,control_change,,,,,52,0,1,,64,0,0,,
439200,note_off,,,,,360,0,2,,,,0,50,64
439200,note_on,,,,,0,0,2,,,,0,44,31
439200,note_off,,,,,0,0,2,,,,0,54,64
439200,note_on,,,,,8,0,1,,,,0,54,53
439200,note_on,,,,,0,0,1,,,,0,66,53
439220,set_tempo,,,,,160,1,0,240000,,,,,
439320,note_off,,,,,120,0,2,,,,0,44,64
439320,note_on,,,,,0,0,2,,,,0,43,33
439440,note_off,,,,,120,0,2,,,,0,43,64
439440,note_on,,,,,0,0,2,,,,0,44,37
439540,set_tempo,,,,,320,1,0,240964,,,,,
439560,note_off,,,,,0,0,1,,,,0,54,64
439560,note_off,,,,,120,0,2,,,,0,44,64
439560,note_on,,,,,0,0,2,,,,0,50,40
439560,note_off,,,,,360,0,1,,,,0,66,64
439560,note_on,,,,,0,0,2,,,,0,48,40
439560,control_change,,,,,0,0,1,,64,95,0,,
439560,note_on,,,,,0,0,1,,,,0,62,44
439740,set_tempo,,,,,200,1,0,241935,,,,,
439912,control_change,,,,,352,0,1,,64,0,0,,
439920,note_off,,,,,0,0,2,,,,0,50,64
439920,note_on,,,,,0,0,2,,,,0,43,31
439920,note_on,,,,,0,0,1,,,,0,67,45
439920,note_off,,,,,360,0,2,,,,0,48,64
439920,note_off,,,,,8,0,1,,,,0,62,64
439920,note_on,,,,,0,0,1,,,,0,55,45
439980,set_tempo,,,,,240,1,0,245902,,,,,
440040,note_off,,,,,120,0,2,,,,0,43,64
440040,note_on,,,,,0,0,2,,,,0,42,31
440160,note_off,,,,,120,0,2,,,,0,42,64
440160,note_on,,,,,0,0,2,,,,0,43,31
440180,set_tempo,,,,,200,1,0,246914,,,,,
440280,control_change,,,,,360,0,1,,64,95,0,,
440280,note_off,,,,,120,0,2,,,,0,43,64
440280,note_on,,,,,0,0,2,,,,0,48,40
440280,note_on,,,,,0,0,2,,,,0,52,40
440380,set_tempo,,,,,200,1,0,250000,,,,,
440580,note_off,,,,,0,0,1,,,,0,67,64
440580,note_off,,,,,300,0,1,,,,0,55,64
440620,set_tempo,,,,,240,1,0,254237,,,,,
440632,control_change,,,,,52,0,1,,64,0,0,,
440640,note_off,,,,,0,0,2,,,,0,52,64
440640,note_on,,,,,0,0,2,,,,0,43,39
440640,note_on,,,,,0,0,1,,,,0,55,52
440640,note_on,,,,,8,0,1,,,,0,67,52
440640,note_off,,,,,360,0,2,,,,0,48,64
440760,note_off,,,,,120,0,2,,,,0,43,64
440760,note_on,,,,,0,0,2,,,,0,42,40
440860,set_tempo,,,,,240,1,0,255319,,,,,
440880,note_off,,,,,120,0,2,,,,0,42,64
440880,note_on,,,,,0,0,2,,,,0,43,43
441000,control_change,,,,,360,0,1,,64,95,0,,
441000,note_off,,,,,120,0,2,,,,0,43,64
441000,note_on,,,,,0,0,2,,,,0,50,48
441000,note_on,,,,,0,0,2,,,,0,53,48
441020,set_tempo,,,,,160,1,0,259740,,,,,
441220,set_tempo,,,,,200,1,0,263158,,,,,
441340,set_tempo,,,,,120,1,0,265487,,,,,
441352,control_change,,,,,352,0,1,,64,0,0,,
441360,note_on,,,,,0,0,1,,,,0,55,45
441360,note_off,,,,,8,0,1,,,,0,55,64
441360,note_off,,,,,0,0,1,,,,0,67,64
441360,note_on,,,,,0,0,1,,,,0,67,45
441360,note_off,,,,,360,0,2,,,,0,50,64
441360,note_off,,,,,0,0,2,,,,0,53,64
441360,note_on,,,,,0,0,2,,,,0,43,45
441460,set_tempo,,,,,120,1,0,269058,,,,,
441480,note_off,,,,,120,0,2,,,,0,43,64
441480,note_on,,,,,0,0,2,,,,0,42,42
441600,note_off,,,,,120,0,2,,,,0,42,64
441600,note_on,,,,,0,0,2,,,,0,43,38
441720,control_change,,,,,360,0,1,,64,95,0,,
441720,note_on,,,,,0,0,2,,,,0,48,36
441720,note_on,,,,,0,0,2,,,,0,52,36
441720,note_off,,,,,120,0,2,,,,0,43,64
441780,set_tempo,,,,,320,1,0,276498,,,,,
441980,set_tempo,,,,,200,1,0,284360,,,,,
442020,note_off,,,,,300,0,1,,,,0,55,64
442020,note_off,,,,,0,0,1,,,,0,67,64
442072,control_change,,,,,52,0,1,,64,0,0,,
442080,note_on,,,,,0,0,2,,,,0,43,39
442080,note_off,,,,,360,0,2,,,,0,52,64
442080,note_on,,,,,8,0,1,,,,0,53,43
442080,note_on,,,,,0,0,1,,,,0,65,43
442080,note_off,,,,,0,0,2,,,,0,48,64
442200,note_off,,,,,120,0,2,,,,0,43,64
442200,note_on,,,,,0,0,2,,,,0,42,36
442260,set_tempo,,,,,280,1,0,292683,,,,,
442320,note_off,,,,,120,0,2,,,,0,42,64
442320,note_on,,,,,0,0,2,,,,0,43,34
442440,note_off,,,,,120,0,2,,,,0,43,64
442440,note_on,,,,,0,0,2,,,,0,47,32
442440,note_off,,,,,360,0,1,,,,0,65,64
442440,note_off,,,,,0,0,1,,,,0,53,64
442440,note_on,,,,,0,0,1,,,,0,62,37
442440,note_on,,,,,0,0,1,,,,0,50,37
442440,control_change,,,,,0,0,1,,64,95,0,,
442500,set_tempo,,,,,240,1,0,300000,,,,,
442620,set_tempo,,,,,120,1,0,301508,,,,,
442720,set_tempo,,,,,100,1,0,306122,,,,,
442792,control_change,,,,,352,0,1,,64,0,0,,
442800,note_on,,,,,0,0,2,,,,0,36,27
442800,note_off,,,,,8,0,1,,,,0,50,64
442800,note_off,,,,,0,0,1,,,,0,62,64
442800,note_on,,,,,0,0,1,,,,0,60,40
442800,note_on,,,,,0,0,1,,,,0,48,40
442800,note_off,,,,,360,0,2,,,,0,47,64
442860,set_tempo,,,,,140,1,0,307692,,,,,
442920,note_off,,,,,120,0,2,,,,0,36,64
442920,note_on,,,,,0,0,2,,,,0,35,32
442940,set_tempo,,,,,80,1,0,242915,,,,,
443040,note_on,,,,,0,0,2,,,,0,36,35
443040,note_off,,,,,120,0,2,,,,0,35,64
443160,note_on,,,,,0,0,2,,,,0,48,38
443160,note_on,,,,,0,0,2,,,,0,40,38
443160,note_off,,,,,120,0,2,,,,0,36,64
443160,note_off,,,,,0,0,1,,,,0,60,64
443160,control_change,,,,,0,0,1,,64,95,0,,
443160,note_off,,,,,360,0,1,,,,0,48,64
443260,set_tempo,,,,,320,1,0,241935,,,,,
443512,control_change,,,,,352,0,1,,64,0,0,,
443520,note_on,,,,,0,0,2,,,,0,36,29
443520,note_on,,,,,8,0,1,,,,0,64,46
443520,note_off,,,,,360,0,2,,,,0,48,64
443520,note_off,,,,,0,0,2,,,,0,40,64
443540,set_tempo,,,,,280,1,0,240964,,,,,
443640,note_on,,,,,0,0,2,,,,0,35,31
443640,note_off,,,,,120,0,2,,,,0,36,64
443760,note_off,,,,,120,0,2,,,,0,35,64
443760,note_on,,,,,0,0,2,,,,0,36,34
443860,set_tempo,,,,,320,1,0,240000,,,,,
443880,control_change,,,,,360,0,1,,64,95,0,,
443880,note_off,,,,,120,0,2,,,,0,36,64
443880,note_on,,,,,0,0,2,,,,0,40,38
443880,note_on,,,,,0,0,2,,,,0,48,38
444180,set_tempo,,,,,320,1,0,238095,,,,,
444232,control_change,,,,,352,0,1,,64,0,0,,
444240,note_on,,,,,0,0,2,,,,0,36,31
444240,note_off,,,,,360,0,2,,,,0,48,64
444240,note_off,,,,,0,0,2,,,,0,40,64
444240,note_on,,,,,0,0,1,,,,0,60,40
444240,note_off,,,,,8,0,1,,,,0,64,64
444360,note_on,,,,,0,0,2,,,,0,35,33
444360,note_off,,,,,120,0,2,,,,0,36,64
444480,note_off,,,,,120,0,2,,,,0,35,64
444480,note_on,,,,,0,0,2,,,,0,36,37
444500,set_tempo,,,,,320,1,0,237154,,,,,
444600,note_off,,,,,120,0,2,,,,0,36,64
444600,note_on,,,,,0,0,2,,,,0,48,40
444600,note_on,,,,,0,0,2,,,,0,40,40
444820,set_tempo,,,,,320,1,0,236220,,,,,
444946,control_change,,,,,706,0,1,,64,0,0,,
444960,note_on,,,,,0,0,2,,,,0,34,31
444960,note_off,,,,,0,0,2,,,,0,40,64
444960,note_off,,,,,360,0,2,,,,0,48,64
444960,note_on,,,,,0,0,1,,,,0,56,42
444960,note_off,,,,,14,0,1,,,,0,60,64
445080,note_on,,,,,0,0,2,,,,0,33,33
445080,note_off,,,,,120,0,2,,,,0,34,64
445200,note_on,,,,,0,0,2,,,,0,34,37
445200,note_off,,,,,120,0,2,,,,0,33,64
445320,note_off,,,,,120,0,2,,,,0,34,64
445320,note_off,,,,,360,0,1,,,,0,56,64
445320,note_on,,,,,0,0,1,,,,0,52,37
445320,note_on,,,,,0,0,1,,,,0,50,37
445320,control_change,,,,,0,0,1,,64,95,0,,
445320,note_on,,,,,0,0,2,,,,0,40,40
445380,set_tempo,,,,,560,1,0,235294,,,,,
445540,set_tempo,,,,,160,1,0,234375,,,,,
445672,control_change,,,,,352,0,1,,64,0,0,,
445680,note_off,,,,,360,0,2,,,,0,40,64
445680,note_off,,,,,8,0,1,,,,0,50,64
445680,note_on,,,,,0,0,1,,,,0,57,42
445680,note_off,,,,,0,0,1,,,,0,52,64
445680,note_on,,,,,0,0,2,,,,0,33,31
445800,note_off,,,,,120,0,2,,,,0,33,64
445800,note_on,,,,,0,0,2,,,,0,32,31
445900,set_tempo,,,,,360,1,0,232558,,,,,
445920,note_off,,,,,120,0,2,,,,0,32,64
445920,note_on,,,,,0,0,2,,,,0,33,31
446040,note_off,,,,,120,0,2,,,,0,33,64
446040,note_on,,,,,360,0,1,,,,0,49,42
446040,control_change,,,,,0,0,1,,64,95,0,,
446040,note_on,,,,,0,0,2,,,,0,40,40
446340,note_off,,,,,0,0,1,,,,0,57,64
446340,note_off,,,,,300,0,1,,,,0,49,64
446392,control_change,,,,,52,0,1,,64,0,0,,
446400,note_off,,,,,360,0,2,,,,0,40,64
446400,note_on,,,,,0,0,2,,,,0,33,40
446400,note_on,,,,,8,0,1,,,,0,57,48
446520,note_on,,,,,0,0,2,,,,0,32,43
446520,note_off,,,,,120,0,2,,,,0,33,64
446640,note_off,,,,,120,0,2,,,,0,32,64
446640,note_on,,,,,0,0,2,,,,0,33,44
446760,note_on,,,,,360,0,1,,,,0,50,46
446760,note_on,,,,,0,0,2,,,,0,41,45
446760,note_off,,,,,120,0,2,,,,0,33,64
446760,control_change,,,,,0,0,1,,64,95,0,,
446800,set_tempo,,,,,900,1,0,234375,,,,,
447060,set_tempo,,,,,260,1,0,235294,,,,,
447112,control_change,,,,,352,0,1,,64,0,0,,
447120,note_on,,,,,0,0,2,,,,0,33,42
447120,note_off,,,,,360,0,2,,,,0,41,64
447120,note_off,,,,,8,0,1,,,,0,50,64
447120,note_off,,,,,0,0,1,,,,0,57,64
447120,note_on,,,,,0,0,1,,,,0,57,43
447240,note_on,,,,,0,0,2,,,,0,32,42
447240,note_off,,,,,120,0,2,,,,0,33,64
447260,set_tempo,,,,,200,1,0,236220,,,,,
447360,note_off,,,,,120,0,2,,,,0,32,64
447360,note_on,,,,,0,0,2,,,,0,33,37
447480,control_change,,,,,0,0,1,,64,95,0,,
447480,note_on,,,,,360,0,1,,,,0,49,39
447480,note_off,,,,,120,0,2,,,,0,33,64
447480,note_on,,,,,0,0,2,,,,0,40,35
447540,set_tempo,,,,,280,1,0,237154,,,,,
447780,note_off,,,,,0,0,1,,,,0,57,64
447780,note_off,,,,,300,0,1,,,,0,49,64
447780,set_tempo,,,,,240,1,0,238095,,,,,
447832,control_change,,,,,52,0,1,,64,0,0,,
447840,note_on,,,,,0,0,2,,,,0,34,45
447840,note_off,,,,,360,0,2,,,,0,40,64
447840,note_on,,,,,8,0,1,,,,0,56,55
447960,note_on,,,,,0,0,2,,,,0,33,33
447960,note_off,,,,,120,0,2,,,,0,34,64
448080,note_on,,,,,0,0,2,,,,0,34,37
448080,note_off,,,,,120,0,2,,,,0,33,64
448180,set_tempo,,,,,400,1,0,240000,,,,,
448200,note_on,,,,,0,0,1,,,,0,50,45
448200,note_on,,,,,0,0,2,,,,0,40,40
448200,note_off,,,,,120,0,2,,,,0,34,64
448200,note_off,,,,,360,0,1,,,,0,56,64
448200,note_on,,,,,0,0,1,,,,0,52,48
448200,control_change,,,,,0,0,1,,64,95,0,,
448320,set_tempo,,,,,140,1,0,240964,,,,,
448552,control_change,,,,,352,0,1,,64,0,0,,
448560,note_off,,,,,8,0,1,,,,0,50,64
448560,note_on,,,,,0,0,2,,,,0,33,31
448560,note_off,,,,,360,0,2,,,,0,40,64
448560,note_off,,,,,0,0,1,,,,0,52,64
448560,note_on,,,,,0,0,1,,,,0,57,49
448640,set_tempo,,,,,320,1,0,241935,,,,,
448680,note_on,,,,,0,0,2,,,,0,32,31
448680,note_off,,,,,120,0,2,,,,0,33,64
448800,note_off,,,,,120,0,2,,,,0,32,64
448800,note_on,,,,,0,0,2,,,,0,33,31
448800,set_tempo,,,,,160,1,0,242915,,,,,
448920,control_change,,,,,0,0,1,,64,95,0,,
448920,note_off,,,,,120,0,2,,,,0,33,64
448920,note_on,,,,,0,0,2,,,,0,42,40
448920,note_on,,,,,360,0,1,,,,0,50,39
449000,set_tempo,,,,,200,1,0,243902,,,,,
449200,set_tempo,,,,,200,1,0,247934,,,,,
449220,note_off,,,,,0,0,1,,,,0,57,64
449220,note_off,,,,,300,0,1,,,,0,50,64
449272,control_change,,,,,52,0,1,,64,0,0,,
449280,note_on,,,,,0,0,2,,,,0,32,31
449280,note_on,,,,,8,0,1,,,,0,54,43
449280,note_off,,,,,360,0,2,,,,0,42,64
449360,set_tempo,,,,,160,1,0,248963,,,,,
449400,note_on,,,,,0,0,2,,,,0,31,33
449400,note_off,,,,,120,0,2,,,,0,32,64
449520,note_off,,,,,120,0,2,,,,0,31,64
449520,note_on,,,,,0,0,2,,,,0,32,37
449520,set_tempo,,,,,160,1,0,250000,,,,,
449640,note_on,,,,,0,0,1,,,,0,48,43
449640,note_on,,,,,0,0,2,,,,0,38,40
449640,note_off,,,,,120,0,2,,,,0,32,64
449640,note_off,,,,,360,0,1,,,,0,54,64
449640,note_on,,,,,0,0,1,,,,0,50,44
449640,control_change,,,,,0,0,1,,64,95,0,,
449720,set_tempo,,,,,200,1,0,254237,,,,,
449880,set_tempo,,,,,160,1,0,255319,,,,,
449992,control_change,,,,,352,0,1,,64,0,0,,
450000,note_on,,,,,0,0,2,,,,0,31,31
450000,note_off,,,,,360,0,2,,,,0,38,64
450000,note_on,,,,,0,0,1,,,,0,55,45
450000,note_off,,,,,0,0,1,,,,0,50,64
450000,note_off,,,,,8,0,1,,,,0,48,64
450040,set_tempo,,,,,160,1,0,256410,,,,,
450120,note_on,,,,,0,0,2,,,,0,30,31
450120,note_off,,,,,120,0,2,,,,0,31,64
450160,set_tempo,,,,,120,1,0,258621,,,,,
450240,note_off,,,,,120,0,2,,,,0,30,64
450240,note_on,,,,,0,0,2,,,,0,31,31
450320,set_tempo,,,,,160,1,0,259740,,,,,
450360,note_on,,,,,0,0,2,,,,0,40,40
450360,note_off,,,,,120,0,2,,,,0,31,64
450360,note_on,,,,,360,0,1,,,,0,48,40
450360,control_change,,,,,0,0,1,,64,95,0,,
450520,set_tempo,,,,,200,1,0,265487,,,,,
450660,note_off,,,,,300,0,1,,,,0,48,64
450660,note_off,,,,,0,0,1,,,,0,55,64
450712,control_change,,,,,52,0,1,,64,0,0,,
450720,note_off,,,,,360,0,2,,,,0,40,64
450720,note_on,,,,,0,0,2,,,,0,31,39
450720,note_on,,,,,8,0,1,,,,0,55,52
450720,set_tempo,,,,,200,1,0,269058,,,,,
450840,note_off,,,,,120,0,2,,,,0,31,64
450840,note_on,,,,,0,0,2,,,,0,30,40
450880,set_tempo,,,,,160,1,0,273973,,,,,
450960,note_off,,,,,120,0,2,,,,0,30,64
450960,note_on,,,,,0,0,2,,,,0,31,43
451040,set_tempo,,,,,160,1,0,277778,,,,,
451080,note_on,,,,,0,0,2,,,,0,41,48
451080,note_off,,,,,120,0,2,,,,0,31,64
451080,note_on,,,,,360,0,1,,,,0,50,42
451080,control_change,,,,,0,0,1,,64,95,0,,
451240,set_tempo,,,,,200,1,0,283019,,,,,
451432,control_change,,,,,352,0,1,,64,0,0,,
451440,note_off,,,,,0,0,1,,,,0,55,64
451440,set_tempo,,,,,200,1,0,289855,,,,,
451440,note_on,,,,,0,0,1,,,,0,55,45
451440,note_off,,,,,360,0,2,,,,0,41,64
451440,note_on,,,,,0,0,2,,,,0,31,47
451440,note_off,,,,,8,0,1,,,,0,50,64
451560,note_off,,,,,120,0,2,,,,0,31,64
451560,note_on,,,,,0,0,2,,,,0,30,43
451600,set_tempo,,,,,160,1,0,294118,,,,,
451680,note_on,,,,,0,0,2,,,,0,31,41
451680,note_off,,,,,120,0,2,,,,0,30,64
451800,note_off,,,,,120,0,2,,,,0,31,64
451800,note_on,,,,,0,0,2,,,,0,40,38
451800,set_tempo,,,,,200,1,0,300000,,,,,
451800,note_on,,,,,360,0,1,,,,0,48,41
451800,control_change,,,,,0,0,1,,64,95,0,,
451960,set_tempo,,,,,160,1,0,306122,,,,,
452100,note_off,,,,,0,0,1,,,,0,55,64
452100,note_off,,,,,300,0,1,,,,0,48,64
452120,set_tempo,,,,,160,1,0,310881,,,,,
452152,control_change,,,,,52,0,1,,64,0,0,,
452160,note_on,,,,,0,0,2,,,,0,31,41
452160,note_off,,,,,360,0,2,,,,0,40,64
452160,note_on,,,,,8,0,1,,,,0,53,51
452166,control_change,,,,,6,0,1,,64,96,0,,
452280,note_on,,,,,0,0,2,,,,0,30,37
452280,note_off,,,,,120,0,2,,,,0,31,64
452280,set_tempo,,,,,160,1,0,315789,,,,,
452400,note_off,,,,,120,0,2,,,,0,30,64
452400,note_on,,,,,0,0,2,,,,0,31,34
452440,set_tempo,,,,,160,1,0,320856,,,,,
452512,control_change,,,,,346,0,1,,64,0,0,,
452520,note_off,,,,,120,0,2,,,,0,31,64
452520,note_on,,,,,0,0,2,,,,0,43,33
452520,control_change,,,,,0,0,1,,64,95,0,,
452520,note_on,,,,,0,0,1,,,,0,47,36
452520,note_off,,,,,8,0,1,,,,0,53,64
452520,note_on,,,,,0,0,1,,,,0,50,36
452560,set_tempo,,,,,120,1,0,326087,,,,,
452760,set_tempo,,,,,200,1,0,331492,,,,,
452800,set_tempo,,,,,40,1,0,333333,,,,,
452820,note_off,,,,,300,0,1,,,,0,47,64
452820,note_off,,,,,300,0,2,,,,0,43,64
452820,set_tempo,,,,,20,1,0,810811,,,,,
452820,note_off,,,,,0,0,1,,,,0,50,64
452880,note_on,,,,,60,0,1,,,,0,48,40
452880,control_change,,,,,0,0,1,,64,0,0,,
452880,set_tempo,,,,,60,1,0,262009,,,,,
453000,set_tempo,,,,,120,1,0,260870,,,,,
453000,note_off,,,,,120,0,1,,,,0,48,64
453020,set_tempo,,,,,20,1,0,256410,,,,,
453120,note_on,,,,,120,0,1,,,,0,48,34
453140,set_tempo,,,,,120,1,0,252101,,,,,
453240,note_on,,,,,0,0,2,,,,0,32,37
453240,control_change,,,,,0,0,1,,64,95,0,,
453240,note_on,,,,,0,0,1,,,,0,60,34
453240,note_on,,,,,420,0,2,,,,0,39,37
453240,note_off,,,,,120,0,1,,,,0,48,64
453300,set_tempo,,,,,160,1,0,246914,,,,,
453360,note_off,,,,,120,0,1,,,,0,60,64
453460,set_tempo,,,,,160,1,0,240964,,,,,
453480,note_on,,,,,120,0,1,,,,0,60,36
453592,control_change,,,,,112,0,1,,64,0,0,,
453600,note_off,,,,,0,0,2,,,,0,39,64
453600,note_on,,,,,0,0,1,,,,0,48,37
453600,note_off,,,,,8,0,1,,,,0,60,64
453600,note_off,,,,,360,0,2,,,,0,32,64
453620,set_tempo,,,,,160,1,0,236220,,,,,
453660,set_tempo,,,,,40,1,0,235294,,,,,
453720,note_off,,,,,120,0,1,,,,0,48,64
453720,set_tempo,,,,,60,1,0,231660,,,,,
453840,set_tempo,,,,,120,1,0,230769,,,,,
453840,note_on,,,,,120,0,1,,,,0,48,38
453840,control_change,,,,,0,0,1,,64,0,0,,
453960,note_off,,,,,120,0,1,,,,0,48,64
453960,note_on,,,,,360,0,2,,,,0,39,42
453960,set_tempo,,,,,120,1,0,229008,,,,,
453960,note_on,,,,,0,0,2,,,,0,32,42
453960,note_on,,,,,0,0,1,,,,0,60,38
453960,control_change,,,,,0,0,1,,64,95,0,,
454080,note_off,,,,,120,0,1,,,,0,60,64
454140,set_tempo,,,,,180,1,0,227273,,,,,
454200,note_on,,,,,120,0,1,,,,0,60,40
454312,control_change,,,,,112,0,1,,64,0,0,,
454320,note_on,,,,,0,0,1,,,,0,48,40
454320,note_off,,,,,360,0,2,,,,0,32,64
454320,note_off,,,,,0,0,2,,,,0,39,64
454320,note_off,,,,,8,0,1,,,,0,60,64
454440,note_off,,,,,120,0,1,,,,0,48,64
454560,note_on,,,,,120,0,1,,,,0,48,41
454560,control_change,,,,,0,0,1,,64,0,0,,
454680,note_off,,,,,120,0,1,,,,0,48,64
454680,note_on,,,,,0,0,1,,,,0,60,41
454680,control_change,,,,,0,0,1,,64,95,0,,
454680,note_on,,,,,360,0,2,,,,0,39,45
454680,note_on,,,,,0,0,2,,,,0,32,45
454800,note_off,,,,,120,0,1,,,,0,60,64
454920,note_on,,,,,120,0,1,,,,0,60,42
455032,control_change,,,,,112,0,1,,64,0,0,,
455040,note_off,,,,,360,0,2,,,,0,32,64
455040,note_off,,,,,0,0,2,,,,0,39,64
455040,note_on,,,,,0,0,1,,,,0,48,42
455040,note_off,,,,,8,0,1,,,,0,60,64
455160,note_off,,,,,120,0,1,,,,0,48,64
455280,note_on,,,,,120,0,1,,,,0,48,43
455280,control_change,,,,,0,0,1,,64,0,0,,
455400,note_on,,,,,0,0,2,,,,0,32,48
455400,note_on,,,,,360,0,2,,,,0,39,48
455400,note_off,,,,,120,0,1,,,,0,48,64
455400,note_on,,,,,0,0,1,,,,0,60,44
455400,control_change,,,,,0,0,1,,64,95,0,,
455520,note_off,,,,,120,0,1,,,,0,60,64
455640,note_on,,,,,120,0,1,,,,0,60,46
455752,control_change,,,,,112,0,1,,64,0,0,,
455760,note_off,,,,,360,0,2,,,,0,32,64
455760,note_off,,,,,8,0,1,,,,0,60,64
455760,note_on,,,,,0,0,1,,,,0,48,47
455760,note_off,,,,,0,0,2,,,,0,39,64
455880,note_off,,,,,120,0,1,,,,0,48,64
456000,note_on,,,,,120,0,1,,,,0,48,49
456120,control_change,,,,,0,0,1,,64,95,0,,
456120,note_on,,,,,360,0,2,,,,0,39,50
456120,note_off,,,,,120,0,1,,,,0,48,64
456120,note_on,,,,,0,0,2,,,,0,32,50
456120,note_on,,,,,0,0,1,,,,0,51,50
456240,note_off,,,,,120,0,1,,,,0,51,64
456360,note_on,,,,,120,0,1,,,,0,51,52
456472,control_change,,,,,112,0,1,,64,0,0,,
456480,note_off,,,,,8,0,1,,,,0,51,64
456480,note_on,,,,,0,0,1,,,,0,56,52
456480,note_off,,,,,0,0,2,,,,0,39,64
456480,note_off,,,,,360,0,2,,,,0,32,64
456600,note_off,,,,,120,0,1,,,,0,56,64
456720,note_on,,,,,120,0,1,,,,0,56,53
456840,note_on,,,,,0,0,2,,,,0,32,53
456840,note_on,,,,,360,0,2,,,,0,39,53
456840,note_off,,,,,120,0,1,,,,0,56,64
456840,control_change,,,,,0,0,1,,64,95,0,,
456840,note_on,,,,,0,0,1,,,,0,60,54
456960,note_off,,,,,120,0,1,,,,0,60,64
457080,note_on,,,,,120,0,1,,,,0,60,52
457192,control_change,,,,,112,0,1,,64,0,0,,
457200,note_on,,,,,0,0,1,,,,0,63,53
457200,note_off,,,,,8,0,1,,,,0,60,64
457200,note_off,,,,,360,0,2,,,,0,32,64
457200,note_off,,,,,0,0,2,,,,0,39,64
457320,note_off,,,,,120,0,1,,,,0,63,64
457440,note_on,,,,,120,0,1,,,,0,63,55
457560,note_on,,,,,0,0,2,,,,0,39,54
457560,control_change,,,,,0,0,1,,64,95,0,,
457560,note_on,,,,,0,0,1,,,,0,68,56
457560,note_on,,,,,360,0,2,,,,0,32,54
457560,note_off,,,,,120,0,1,,,,0,63,64
457680,note_off,,,,,120,0,1,,,,0,68,64
457800,note_off,,,,,0,0,2,,,,0,32,64
457800,note_off,,,,,240,0,2,,,,0,39,64
457800,note_on,,,,,120,0,1,,,,0,68,60
457912,control_change,,,,,112,0,1,,64,0,0,,
457920,control_change,,,,,0,0,1,,64,95,0,,
457920,note_on,,,,,120,0,2,,,,0,32,61
457920,note_off,,,,,8,0,1,,,,0,68,64
457920,note_on,,,,,0,0,1,,,,0,72,59
457920,note_on,,,,,0,0,2,,,,0,39,61
458040,note_off,,,,,120,0,1,,,,0,72,64
458160,note_off,,,,,240,0,2,,,,0,39,64
458160,note_off,,,,,0,0,2,,,,0,32,64
458160,note_on,,,,,120,0,1,,,,0,72,64
458272,control_change,,,,,112,0,1,,64,0,0,,
458280,control_change,,,,,0,0,1,,64,95,0,,
458280,note_on,,,,,0,0,1,,,,0,75,65
458280,note_off,,,,,8,0,1,,,,0,72,64
458280,note_on,,,,,0,0,2,,,,0,39,66
458280,note_on,,,,,120,0,2,,,,0,32,66
458400,note_off,,,,,120,0,1,,,,0,75,64
458520,note_off,,,,,0,0,2,,,,0,32,64
458520,note_off,,,,,240,0,2,,,,0,39,64
458520,note_on,,,,,120,0,1,,,,0,75,69
458632,control_change,,,,,112,0,1,,64,0,0,,
458640,note_on,,,,,0,0,1,,,,0,73,66
458640,note_off,,,,,8,0,1,,,,0,75,64
458760,note_off,,,,,120,0,1,,,,0,73,64
458880,note_on,,,,,120,0,1,,,,0,73,62
459000,control_change,,,,,0,0,1,,64,95,0,,
459000,note_on,,,,,480,0,2,,,,0,31,63
459000,note_off,,,,,120,0,1,,,,0,73,64
459000,note_on,,,,,0,0,1,,,,0,61,59
459000,note_on,,,,,0,0,2,,,,0,39,63
459120,note_off,,,,,120,0,1,,,,0,61,64
459240,note_on,,,,,120,0,1,,,,0,61,57
459352,control_change,,,,,112,0,1,,64,0,0,,
459360,note_off,,,,,0,0,2,,,,0,31,64
459360,note_off,,,,,360,0,2,,,,0,39,64
459360,note_off,,,,,8,0,1,,,,0,61,64
459360,note_on,,,,,0,0,1,,,,0,73,57
459480,note_off,,,,,120,0,1,,,,0,73,64
459600,note_on,,,,,120,0,1,,,,0,73,56
459720,control_change,,,,,0,0,1,,64,95,0,,
459720,note_on,,,,,0,0,1,,,,0,61,56
459720,note_off,,,,,120,0,1,,,,0,73,64
459720,note_on,,,,,360,0,2,,,,0,31,62
459720,note_on,,,,,0,0,2,,,,0,39,62
459840,note_off,,,,,120,0,1,,,,0,61,64
459960,note_on,,,,,120,0,1,,,,0,61,54
460072,control_change,,,,,112,0,1,,64,0,0,,
460080,note_off,,,,,8,0,1,,,,0,61,64
460080,note_off,,,,,360,0,2,,,,0,39,64
460080,note_off,,,,,0,0,2,,,,0,31,64
460080,note_on,,,,,0,0,1,,,,0,73,54
460200,note_off,,,,,120,0,1,,,,0,73,64
460320,note_on,,,,,120,0,1,,,,0,73,52
460440,note_on,,,,,360,0,2,,,,0,31,60
460440,note_off,,,,,120,0,1,,,,0,73,64
460440,note_on,,,,,0,0,1,,,,0,61,51
460440,control_change,,,,,0,0,1,,64,95,0,,
460440,note_on,,,,,0,0,2,,,,0,39,60
460560,note_off,,,,,120,0,1,,,,0,61,64
460680,note_on,,,,,120,0,1,,,,0,61,50
460792,control_change,,,,,112,0,1,,64,0,0,,
460800,note_off,,,,,8,0,1,,,,0,61,64
460800,note_off,,,,,360,0,2,,,,0,39,64
460800,note_off,,,,,0,0,2,,,,0,31,64
460800,note_on,,,,,0,0,1,,,,0,73,50
460920,note_off,,,,,120,0,1,,,,0,73,64
461040,note_on,,,,,120,0,1,,,,0,73,47
461160,note_off,,,,,120,0,1,,,,0,73,64
461160,note_on,,,,,0,0,1,,,,0,61,46
461160,control_change,,,,,0,0,1,,64,95,0,,
461160,note_on,,,,,0,0,2,,,,0,39,57
461160,note_on,,,,,360,0,2,,,,0,31,57
461280,note_off,,,,,120,0,1,,,,0,61,64
461400,note_on,,,,,120,0,1,,,,0,61,44
461512,control_change,,,,,112,0,1,,64,0,0,,
461520,note_off,,,,,360,0,2,,,,0,39,64
461520,note_off,,,,,0,0,2,,,,0,31,64
461520,note_off,,,,,8,0,1,,,,0,61,64
461520,note_on,,,,,0,0,1,,,,0,73,43
461640,note_off,,,,,120,0,1,,,,0,73,64
461760,note_on,,,,,120,0,1,,,,0,73,43
461880,control_change,,,,,0,0,1,,64,95,0,,
461880,note_on,,,,,0,0,1,,,,0,70,42
461880,note_off,,,,,120,0,1,,,,0,73,64
461880,note_on,,,,,360,0,2,,,,0,31,53
461880,note_on,,,,,0,0,2,,,,0,39,53
462000,note_off,,,,,120,0,1,,,,0,70,64
462120,note_on,,,,,120,0,1,,,,0,70,41
462232,control_change,,,,,112,0,1,,64,0,0,,
462240,note_off,,,,,360,0,2,,,,0,39,64
462240,note_off,,,,,8,0,1,,,,0,70,64
462240,note_on,,,,,0,0,1,,,,0,67,40
462240,note_off,,,,,0,0,2,,,,0,31,64
462360,note_off,,,,,120,0,1,,,,0,67,64
462480,note_on,,,,,120,0,1,,,,0,67,39
462600,note_on,,,,,360,0,2,,,,0,31,48
462600,note_on,,,,,0,0,1,,,,0,63,39
462600,control_change,,,,,0,0,1,,64,95,0,,
462600,note_on,,,,,0,0,2,,,,0,39,48
462600,note_off,,,,,120,0,1,,,,0,67,64
462720,note_off,,,,,120,0,1,,,,0,63,64
462840,note_on,,,,,120,0,1,,,,0,63,38
462952,control_change,,,,,112,0,1,,64,0,0,,
462960,note_off,,,,,8,0,1,,,,0,63,64
462960,note_on,,,,,0,0,1,,,,0,61,36
462960,note_off,,,,,360,0,2,,,,0,39,64
462960,note_off,,,,,0,0,2,,,,0,31,64
462960,control_change,,,,,0,0,1,,64,96,0,,
463080,note_off,,,,,120,0,1,,,,0,61,64
463200,note_on,,,,,120,0,1,,,,0,61,36
463312,control_change,,,,,112,0,1,,64,0,0,,
463320,control_change,,,,,0,0,1,,64,95,0,,
463320,note_on,,,,,0,0,1,,,,0,58,36
463320,note_on,,,,,360,0,2,,,,0,31,45
463320,note_on,,,,,0,0,2,,,,0,39,45
463320,note_off,,,,,8,0,1,,,,0,61,64
463440,note_off,,,,,120,0,1,,,,0,58,64
463560,note_off,,,,,240,0,2,,,,0,39,64
463560,note_off,,,,,0,0,2,,,,0,31,64
463560,note_on,,,,,120,0,1,,,,0,58,38
463672,control_change,,,,,112,0,1,,64,0,0,,
463680,note_on,,,,,0,0,2,,,,0,39,50
463680,note_on,,,,,120,0,2,,,,0,31,50
463680,control_change,,,,,0,0,1,,64,95,0,,
463680,note_on,,,,,0,0,1,,,,0,51,40
463680,note_off,,,,,8,0,1,,,,0,58,64
463800,note_off,,,,,120,0,1,,,,0,51,64
463920,note_off,,,,,0,0,2,,,,0,31,64
463920,note_off,,,,,240,0,2,,,,0,39,64
463920,note_on,,,,,120,0,1,,,,0,51,43
464032,control_change,,,,,112,0,1,,64,0,0,,
464040,note_off,,,,,8,0,1,,,,0,51,64
464040,note_on,,,,,0,0,1,,,,0,49,45
464040,note_on,,,,,0,0,2,,,,0,39,54
464040,note_on,,,,,120,0,2,,,,0,31,54
464040,control_change,,,,,0,0,1,,64,95,0,,
464160,note_off,,,,,120,0,1,,,,0,49,64
464280,note_on,,,,,120,0,1,,,,0,49,49
464280,note_off,,,,,0,0,2,,,,0,31,64
464280,note_off,,,,,240,0,2,,,,0,39,64
464392,control_change,,,,,112,0,1,,64,0,0,,
464400,note_off,,,,,8,0,1,,,,0,49,64
464400,note_on,,,,,0,0,1,,,,0,48,52
464520,note_off,,,,,120,0,1,,,,0,48,64
464640,note_on,,,,,120,0,1,,,,0,48,45
464640,control_change,,,,,0,0,1,,64,0,0,,
464760,note_on,,,,,0,0,2,,,,0,32,39
464760,note_on,,,,,480,0,2,,,,0,39,39
464760,note_off,,,,,120,0,1,,,,0,48,64
464760,note_on,,,,,0,0,1,,,,0,60,43
464760,control_change,,,,,0,0,1,,64,95,0,,
464880,note_off,,,,,120,0,1,,,,0,60,64
465000,note_on,,,,,120,0,1,,,,0,60,35
465112,control_change,,,,,112,0,1,,64,0,0,,
465120,note_off,,,,,0,0,2,,,,0,39,64
465120,note_on,,,,,0,0,1,,,,0,48,39
465120,note_off,,,,,8,0,1,,,,0,60,64
465120,note_off,,,,,360,0,2,,,,0,32,64
465240,note_off,,,,,120,0,1,,,,0,48,64
465360,control_change,,,,,0,0,1,,64,0,0,,
465360,note_on,,,,,120,0,1,,,,0,48,41
465480,control_change,,,,,0,0,1,,64,95,0,,
465480,note_on,,,,,0,0,1,,,,0,60,42
465480,note_on,,,,,360,0,2,,,,0,39,42
465480,note_on,,,,,0,0,2,,,,0,32,42
465480,note_off,,,,,120,0,1,,,,0,48,64
465600,note_off,,,,,120,0,1,,,,0,60,64
465720,note_on,,,,,120,0,1,,,,0,60,43
465832,control_change,,,,,112,0,1,,64,0,0,,
465840,note_off,,,,,360,0,2,,,,0,32,64
465840,note_off,,,,,0,0,2,,,,0,39,64
465840,note_off,,,,,8,0,1,,,,0,60,64
465840,note_on,,,,,0,0,1,,,,0,48,44
465960,note_off,,,,,120,0,1,,,,0,48,64
466080,note_on,,,,,120,0,1,,,,0,48,46
466080,control_change,,,,,0,0,1,,64,0,0,,
466200,note_off,,,,,120,0,1,,,,0,48,64
466200,note_on,,,,,0,0,1,,,,0,60,47
466200,control_change,,,,,0,0,1,,64,95,0,,
466200,note_on,,,,,0,0,2,,,,0,32,44
466200,note_on,,,,,360,0,2,,,,0,39,44
466320,note_off,,,,,120,0,1,,,,0,60,64
466440,note_on,,,,,120,0,1,,,,0,60,47
466552,control_change,,,,,112,0,1,,64,0,0,,
466560,note_on,,,,,0,0,1,,,,0,48,48
466560,note_off,,,,,8,0,1,,,,0,60,64
466560,note_off,,,,,360,0,2,,,,0,32,64
466560,note_off,,,,,0,0,2,,,,0,39,64
466680,note_off,,,,,120,0,1,,,,0,48,64
466800,note_on,,,,,120,0,1,,,,0,48,50
466800,control_change,,,,,0,0,1,,64,0,0,,
466920,note_on,,,,,360,0,2,,,,0,39,46
466920,note_off,,,,,120,0,1,,,,0,48,64
466920,note_on,,,,,0,0,2,,,,0,32,46
466920,note_on,,,,,0,0,1,,,,0,60,50
466920,control_change,,,,,0,0,1,,64,95,0,,
467040,note_off,,,,,120,0,1,,,,0,60,64
467160,note_on,,,,,120,0,1,,,,0,60,51
467272,control_change,,,,,112,0,1,,64,0,0,,
467280,note_off,,,,,8,0,1,,,,0,60,64
467280,note_on,,,,,0,0,1,,,,0,48,52
467280,note_off,,,,,360,0,2,,,,0,32,64
467280,note_off,,,,,0,0,2,,,,0,39,64
467400,note_off,,,,,120,0,1,,,,0,48,64
467520,note_on,,,,,120,0,1,,,,0,48,54
467640,note_off,,,,,120,0,1,,,,0,48,64
467640,control_change,,,,,0,0,1,,64,95,0,,
467640,note_on,,,,,0,0,1,,,,0,51,55
467640,note_on,,,,,0,0,2,,,,0,32,50
467640,note_on,,,,,360,0,2,,,,0,39,50
467760,note_off,,,,,120,0,1,,,,0,51,64
467880,note_on,,,,,120,0,1,,,,0,51,56
467992,control_change,,,,,112,0,1,,64,0,0,,
468000,note_off,,,,,0,0,2,,,,0,39,64
468000,note_off,,,,,360,0,2,,,,0,32,64
468000,note_off,,,,,8,0,1,,,,0,51,64
468000,note_on,,,,,0,0,1,,,,0,56,56
468120,note_off,,,,,120,0,1,,,,0,56,64
468240,note_on,,,,,120,0,1,,,,0,56,57
468360,note_on,,,,,360,0,2,,,,0,39,55
468360,note_off,,,,,120,0,1,,,,0,56,64
468360,note_on,,,,,0,0,1,,,,0,60,58
468360,control_change,,,,,0,0,1,,64,95,0,,
468360,note_on,,,,,0,0,2,,,,0,32,55
468480,note_off,,,,,120,0,1,,,,0,60,64
468600,note_on,,,,,120,0,1,,,,0,60,59
468712,control_change,,,,,112,0,1,,64,0,0,,
468720,note_on,,,,,0,0,1,,,,0,63,60
468720,control_change,,,,,0,0,1,,64,95,0,,
468720,note_off,,,,,8,0,1,,,,0,60,64
468720,note_off,,,,,0,0,2,,,,0,39,64
468720,note_off,,,,,360,0,2,,,,0,32,64
468840,note_off,,,,,120,0,1,,,,0,63,64
468960,note_on,,,,,120,0,1,,,,0,63,63
469072,control_change,,,,,112,0,1,,64,0,0,,
469080,control_change,,,,,0,0,1,,64,95,0,,
469080,note_on,,,,,0,0,1,,,,0,68,63
469080,note_off,,,,,8,0,1,,,,0,63,64
469080,note_on,,,,,360,0,2,,,,0,44,55
469080,note_on,,,,,0,0,2,,,,0,51,55
469200,note_off,,,,,120,0,1,,,,0,68,64
469320,note_off,,,,,240,0,2,,,,0,51,64
469320,note_off,,,,,0,0,2,,,,0,44,64
469320,note_on,,,,,120,0,1,,,,0,68,64
469432,control_change,,,,,112,0,1,,64,0,0,,
469440,control_change,,,,,0,0,1,,64,96,0,,
469440,note_on,,,,,120,0,2,,,,0,44,58
469440,note_on,,,,,0,0,2,,,,0,51,58
469440,note_on,,,,,0,0,1,,,,0,72,64
469440,note_off,,,,,8,0,1,,,,0,68,64
469560,note_off,,,,,120,0,1,,,,0,72,64
469680,note_on,,,,,120,0,1,,,,0,72,64
469680,note_off,,,,,240,0,2,,,,0,51,64
469680,note_off,,,,,0,0,2,,,,0,44,64
469786,control_change,,,,,106,0,1,,64,0,0,,
469800,note_on,,,,,0,0,2,,,,0,51,62
469800,note_on,,,,,120,0,2,,,,0,44,62
469800,note_off,,,,,14,0,1,,,,0,72,64
469800,note_on,,,,,0,0,1,,,,0,75,60
469800,control_change,,,,,0,0,1,,64,95,0,,
469820,set_tempo,,,,,15680,1,0,225564,,,,,
469920,note_off,,,,,120,0,1,,,,0,75,64
470040,note_off,,,,,240,0,2,,,,0,51,64
470040,note_off,,,,,0,0,2,,,,0,44,64
470040,note_on,,,,,120,0,1,,,,0,75,60
470152,control_change,,,,,112,0,1,,64,0,0,,
470160,note_on,,,,,0,0,1,,,,0,73,60
470160,note_off,,,,,8,0,1,,,,0,75,64
470280,note_off,,,,,120,0,1,,,,0,73,64
470400,note_on,,,,,120,0,1,,,,0,73,62
470520,note_off,,,,,120,0,1,,,,0,73,64
470520,note_on,,,,,0,0,1,,,,0,61,63
470520,control_change,,,,,0,0,1,,64,95,0,,
470520,note_on,,,,,480,0,2,,,,0,44,56
470520,note_on,,,,,0,0,2,,,,0,52,56
470560,set_tempo,,,,,740,1,0,222222,,,,,
470640,note_off,,,,,120,0,1,,,,0,61,64
470760,note_on,,,,,120,0,1,,,,0,61,65
470872,control_change,,,,,112,0,1,,64,0,0,,
470880,note_off,,,,,8,0,1,,,,0,61,64
470880,note_off,,,,,360,0,2,,,,0,52,64
470880,note_off,,,,,0,0,2,,,,0,44,64
470880,note_on,,,,,0,0,1,,,,0,73,65
471000,note_off,,,,,120,0,1,,,,0,73,64
471120,note_on,,,,,120,0,1,,,,0,73,68
471240,note_on,,,,,360,0,2,,,,0,44,64
471240,note_on,,,,,0,0,1,,,,0,61,69
471240,control_change,,,,,0,0,1,,64,95,0,,
471240,note_off,,,,,120,0,1,,,,0,73,64
471240,note_on,,,,,0,0,2,,,,0,52,64
471360,note_off,,,,,120,0,1,,,,0,61,64
471460,set_tempo,,,,,900,1,0,219780,,,,,
471480,note_on,,,,,120,0,1,,,,0,73,72
471592,control_change,,,,,112,0,1,,64,0,0,,
471600,note_on,,,,,0,0,1,,,,0,74,74
471600,note_off,,,,,360,0,2,,,,0,52,64
471600,note_off,,,,,8,0,1,,,,0,73,64
471600,note_off,,,,,0,0,2,,,,0,44,64
471720,note_off,,,,,120,0,1,,,,0,74,64
471840,note_on,,,,,120,0,1,,,,0,74,76
471960,note_off,,,,,120,0,1,,,,0,74,64
471960,note_on,,,,,0,0,1,,,,0,62,78
471960,control_change,,,,,0,0,1,,64,95,0,,
471960,note_on,,,,,360,0,2,,,,0,44,71
471960,note_on,,,,,0,0,2,,,,0,53,71
472080,note_off,,,,,120,0,1,,,,0,62,64
472200,set_tempo,,,,,740,1,0,217391,,,,,
472200,note_on,,,,,120,0,1,,,,0,62,80
472312,control_change,,,,,112,0,1,,64,0,0,,
472320,note_off,,,,,0,0,2,,,,0,44,64
472320,note_off,,,,,360,0,2,,,,0,53,64
472320,note_on,,,,,0,0,1,,,,0,74,81
472320,note_off,,,,,8,0,1,,,,0,62,64
472440,note_off,,,,,120,0,1,,,,0,74,64
472560,note_on,,,,,120,0,1,,,,0,74,84
472680,note_on,,,,,0,0,2,,,,0,53,76
472680,note_off,,,,,120,0,1,,,,0,74,64
472680,note_on,,,,,0,0,1,,,,0,62,85
472680,control_change,,,,,0,0,1,,64,95,0,,
472680,note_on,,,,,360,0,2,,,,0,44,76
472800,note_off,,,,,120,0,1,,,,0,62,64
472920,note_on,,,,,120,0,1,,,,0,74,83
473032,control_change,,,,,112,0,1,,64,0,0,,
473040,note_off,,,,,360,0,2,,,,0,53,64
473040,note_off,,,,,8,0,1,,,,0,74,64
473040,note_on,,,,,0,0,1,,,,0,75,85
473040,note_off,,,,,0,0,2,,,,0,44,64
473140,set_tempo,,,,,940,1,0,218978,,,,,
473160,note_off,,,,,120,0,1,,,,0,75,64
473280,note_on,,,,,120,0,1,,,,0,75,87
473400,note_on,,,,,360,0,2,,,,0,44,83
473400,note_on,,,,,0,0,2,,,,0,54,83
473400,control_change,,,,,0,0,1,,64,95,0,,
473400,note_on,,,,,0,0,1,,,,0,63,87
473400,note_off,,,,,120,0,1,,,,0,75,64
473500,set_tempo,,,,,360,1,0,221402,,,,,
473520,note_off,,,,,120,0,1,,,,0,63,64
473640,note_on,,,,,120,0,1,,,,0,63,89
473752,control_change,,,,,112,0,1,,64,0,0,,
473760,note_off,,,,,0,0,2,,,,0,44,64
473760,note_on,,,,,0,0,1,,,,0,75,89
473760,note_off,,,,,8,0,1,,,,0,63,64
473760,set_tempo,,,,,260,1,0,224719,,,,,
473760,note_off,,,,,360,0,2,,,,0,54,64
473880,note_off,,,,,120,0,1,,,,0,75,64
474000,set_tempo,,,,,240,1,0,229885,,,,,
474000,note_on,,,,,120,0,1,,,,0,75,92
474120,control_change,,,,,0,0,1,,64,95,0,,
474120,note_on,,,,,0,0,2,,,,0,54,93
474120,note_on,,,,,360,0,2,,,,0,44,93
474120,note_on,,,,,0,0,1,,,,0,63,93
474120,note_off,,,,,120,0,1,,,,0,75,64
474200,set_tempo,,,,,200,1,0,232558,,,,,
474240,note_off,,,,,120,0,1,,,,0,63,64
474320,set_tempo,,,,,120,1,0,237154,,,,,
474360,note_on,,,,,120,0,1,,,,0,63,96
474472,control_change,,,,,112,0,1,,64,0,0,,
474480,note_off,,,,,0,0,2,,,,0,44,64
474480,note_off,,,,,360,0,2,,,,0,54,64
474480,note_on,,,,,0,0,1,,,,0,67,99
474480,note_off,,,,,8,0,1,,,,0,63,64
474480,note_on,,,,,0,0,1,,,,0,72,99
474480,note_on,,,,,0,0,1,,,,0,75,99
474540,set_tempo,,,,,220,1,0,241935,,,,,
474600,note_off,,,,,0,0,1,,,,0,72,64
474600,note_off,,,,,120,0,1,,,,0,67,64
474600,note_off,,,,,0,0,1,,,,0,75,64
474700,set_tempo,,,,,160,1,0,247934,,,,,
474720,note_on,,,,,0,0,1,,,,0,72,93
474720,note_on,,,,,120,0,1,,,,0,75,93
474720,note_on,,,,,0,0,1,,,,0,67,93
474840,note_off,,,,,120,0,1,,,,0,67,64
474840,note_on,,,,,0,0,1,,,,0,63,87
474840,control_change,,,,,0,0,1,,64,95,0,,
474840,note_off,,,,,0,0,1,,,,0,72,64
474840,note_off,,,,,0,0,1,,,,0,75,64
474840,note_on,,,,,360,0,2,,,,0,43,90
474840,note_on,,,,,0,0,2,,,,0,55,90
474940,set_tempo,,,,,240,1,0,253165,,,,,
474960,note_off,,,,,120,0,1,,,,0,63,64
475000,set_tempo,,,,,60,1,0,260870,,,,,
475080,note_on,,,,,120,0,1,,,,0,63,82
475192,control_change,,,,,112,0,1,,64,0,0,,
475200,note_on,,,,,0,0,1,,,,0,75,80
475200,note_on,,,,,0,0,1,,,,0,67,80
475200,control_change,,,,,0,0,1,,64,95,0,,
475200,note_on,,,,,0,0,1,,,,0,72,80
475200,note_off,,,,,8,0,1,,,,0,63,64
475200,note_off,,,,,0,0,2,,,,0,43,64
475200,note_off,,,,,360,0,2,,,,0,55,64
475320,note_off,,,,,0,0,1,,,,0,72,64
475320,note_off,,,,,120,0,1,,,,0,67,64
475320,note_off,,,,,0,0,1,,,,0,75,64
475360,set_tempo,,,,,360,1,0,267857,,,,,
475440,note_on,,,,,120,0,1,,,,0,75,75
475440,note_on,,,,,0,0,1,,,,0,72,75
475440,note_on,,,,,0,0,1,,,,0,67,75
475560,note_on,,,,,0,0,2,,,,0,43,67
475560,note_on,,,,,360,0,2,,,,0,55,67
475560,note_off,,,,,120,0,1,,,,0,67,64
475560,note_on,,,,,0,0,1,,,,0,63,72
475560,note_off,,,,,0,0,1,,,,0,75,64
475560,note_off,,,,,0,0,1,,,,0,72,64
475680,set_tempo,,,,,320,1,0,275229,,,,,
475680,note_off,,,,,120,0,1,,,,0,63,64
475680,control_change,,,,,0,0,1,,64,0,0,,
475800,note_on,,,,,120,0,1,,,,0,62,87
475920,note_off,,,,,120,0,1,,,,0,62,64
475920,note_on,,,,,0,0,1,,,,0,74,64
475920,note_on,,,,,0,0,1,,,,0,72,64
475920,note_on,,,,,0,0,1,,,,0,67,64
475920,note_off,,,,,360,0,2,,,,0,43,64
475920,note_off,,,,,0,0,2,,,,0,55,64
475960,set_tempo,,,,,280,1,0,281690,,,,,
476040,note_off,,,,,120,0,1,,,,0,67,64
476040,note_off,,,,,0,0,1,,,,0,72,64
476040,note_off,,,,,0,0,1,,,,0,74,64
476160,note_on,,,,,120,0,1,,,,0,74,60
476160,note_on,,,,,0,0,1,,,,0,72,60
476160,note_on,,,,,0,0,1,,,,0,67,60
476200,set_tempo,,,,,240,1,0,288462,,,,,
476280,note_off,,,,,0,0,1,,,,0,74,64
476280,note_on,,,,,0,0,1,,,,0,62,58
476280,note_on,,,,,0,0,2,,,,0,43,52
476280,note_on,,,,,360,0,2,,,,0,55,52
476280,note_off,,,,,0,0,1,,,,0,72,64
476280,note_off,,,,,120,0,1,,,,0,67,64
476400,note_off,,,,,120,0,1,,,,0,62,64
476440,set_tempo,,,,,240,1,0,294118,,,,,
476500,set_tempo,,,,,60,1,0,292683,,,,,
476520,note_on,,,,,120,0,1,,,,0,62,56
476580,set_tempo,,,,,80,1,0,303030,,,,,
476640,note_on,,,,,0,0,1,,,,0,74,53
476640,note_off,,,,,360,0,2,,,,0,43,64
476640,note_off,,,,,0,0,2,,,,0,55,64
476640,note_off,,,,,120,0,1,,,,0,62,64
476640,note_on,,,,,0,0,1,,,,0,71,53
476640,note_on,,,,,0,0,1,,,,0,67,53
476700,set_tempo,,,,,120,1,0,352941,,,,,
476760,note_off,,,,,120,0,1,,,,0,67,64
476760,note_off,,,,,0,0,1,,,,0,74,64
476760,note_off,,,,,0,0,1,,,,0,71,64
476780,set_tempo,,,,,80,1,0,394737,,,,,
476880,note_on,,,,,120,0,1,,,,0,74,48
476880,note_on,,,,,0,0,1,,,,0,67,48
476880,set_tempo,,,,,100,1,0,638298,,,,,
476880,note_on,,,,,0,0,1,,,,0,71,48
477000,note_on,,,,,0,0,1,,,,0,62,46
477000,note_off,,,,,0,0,1,,,,0,74,64
477000,note_off,,,,,0,0,1,,,,0,71,64
477000,note_off,,,,,120,0,1,,,,0,67,64
477000,note_on,,,,,360,0,2,,,,0,55,40
477000,note_on,,,,,0,0,2,,,,0,43,40
477120,note_off,,,,,120,0,1,,,,0,62,64
477120,set_tempo,,,,,240,1,0,2500000,,,,,
477220,set_tempo,,,,,100,1,0,394737,,,,,
477240,note_on,,,,,120,0,1,,,,0,67,41
477360,set_tempo,,,,,140,1,0,227273,,,,,
477360,note_on,,,,,0,0,1,,,,0,75,40
477360,note_off,,,,,120,0,1,,,,0,67,64
477360,note_off,,,,,360,0,2,,,,0,43,64
477360,note_off,,,,,0,0,2,,,,0,55,64
477360,note_on,,,,,0,0,2,,,,0,48,44
477480,note_on,,,,,0,0,2,,,,0,51,32
477480,note_off,,,,,120,0,1,,,,0,75,64
477480,note_off,,,,,120,0,2,,,,0,48,64
477600,note_off,,,,,120,0,2,,,,0,51,64
477600,note_on,,,,,120,0,1,,,,0,75,32
477600,note_on,,,,,0,0,2,,,,0,55,34
477720,note_on,,,,,0,0,2,,,,0,47,39
477720,note_off,,,,,120,0,2,,,,0,55,64
477720,note_off,,,,,120,0,1,,,,0,75,64
477720,note_on,,,,,0,0,1,,,,0,74,43
477840,note_on,,,,,0,0,2,,,,0,50,32
477840,note_off,,,,,120,0,2,,,,0,47,64
477840,note_off,,,,,120,0,1,,,,0,74,64
477960,note_on,,,,,0,0,2,,,,0,55,38
477960,note_on,,,,,120,0,1,,,,0,74,36
477960,note_off,,,,,120,0,2,,,,0,50,64
478080,note_off,,,,,120,0,1,,,,0,74,64
478080,note_off,,,,,120,0,2,,,,0,55,64
478080,note_on,,,,,0,0,2,,,,0,48,42
478080,note_on,,,,,0,0,1,,,,0,72,45
478200,note_off,,,,,120,0,1,,,,0,72,64
478200,note_off,,,,,120,0,2,,,,0,48,64
478200,note_on,,,,,0,0,2,,,,0,51,33
478320,note_on,,,,,120,0,1,,,,0,72,43
478320,note_off,,,,,120,0,2,,,,0,51,64
478320,note_on,,,,,0,0,2,,,,0,55,38
478440,note_off,,,,,120,0,1,,,,0,72,64
478440,note_off,,,,,120,0,2,,,,0,55,64
478440,note_on,,,,,0,0,1,,,,0,79,39
478440,note_on,,,,,0,0,2,,,,0,51,41
478560,note_off,,,,,120,0,2,,,,0,51,64
478560,note_off,,,,,120,0,1,,,,0,79,64
478560,note_on,,,,,0,0,2,,,,0,55,31
478680,note_on,,,,,120,0,1,,,,0,79,41
478680,note_off,,,,,120,0,2,,,,0,55,64
478680,note_on,,,,,0,0,2,,,,0,60,34
478800,note_on,,,,,0,0,2,,,,0,53,40
478800,note_on,,,,,0,0,1,,,,0,74,45
478800,note_off,,,,,120,0,1,,,,0,79,64
478800,note_off,,,,,120,0,2,,,,0,60,64
478920,note_on,,,,,0,0,2,,,,0,56,32
478920,note_off,,,,,120,0,1,,,,0,74,64
478920,note_off,,,,,120,0,2,,,,0,53,64
479040,note_on,,,,,120,0,1,,,,0,74,41
479040,note_off,,,,,120,0,2,,,,0,56,64
479040,note_on,,,,,0,0,2,,,,0,62,36
479160,note_off,,,,,120,0,1,,,,0,74,64
479160,note_off,,,,,120,0,2,,,,0,62,64
479160,note_on,,,,,0,0,2,,,,0,55,41
479160,note_on,,,,,0,0,1,,,,0,67,43
479280,note_off,,,,,120,0,1,,,,0,67,64
479280,note_off,,,,,120,0,2,,,,0,55,64
479280,note_on,,,,,0,0,2,,,,0,59,34
479400,note_on,,,,,120,0,1,,,,0,67,45
479400,note_on,,,,,0,0,2,,,,0,65,38
479400,note_off,,,,,120,0,2,,,,0,59,64
479520,note_off,,,,,120,0,1,,,,0,67,64
479520,note_on,,,,,0,0,2,,,,0,48,42
479520,note_on,,,,,0,0,1,,,,0,75,51
479520,note_off,,,,,120,0,2,,,,0,65,64
479640,note_off,,,,,120,0,1,,,,0,75,64
479640,note_off,,,,,120,0,2,,,,0,48,64
479640,note_on,,,,,0,0,2,,,,0,55,38
479760,note_on,,,,,120,0,1,,,,0,75,42
479760,note_off,,,,,120,0,2,,,,0,55,64
479760,note_on,,,,,0,0,2,,,,0,60,35
479880,note_off,,,,,120,0,2,,,,0,60,64
479880,note_on,,,,,0,0,2,,,,0,51,39
479880,note_off,,,,,120,0,1,,,,0,75,64
479880,note_on,,,,,0,0,1,,,,0,72,47
480000,note_off,,,,,120,0,2,,,,0,51,64
480000,note_off,,,,,120,0,1,,,,0,72,64
480000,note_on,,,,,0,0,2,,,,0,55,35
480120,note_off,,,,,120,0,2,,,,0,55,64
480120,note_on,,,,,120,0,1,,,,0,72,50
480120,note_on,,,,,0,0,2,,,,0,60,35
480240,note_on,,,,,0,0,2,,,,0,53,45
480240,note_off,,,,,120,0,2,,,,0,60,64
480240,note_on,,,,,0,0,1,,,,0,80,54
480240,note_off,,,,,120,0,1,,,,0,72,64
480360,note_off,,,,,120,0,2,,,,0,53,64
480360,note_on,,,,,0,0,2,,,,0,56,39
480360,note_off,,,,,120,0,1,,,,0,80,64
480480,note_on,,,,,120,0,1,,,,0,80,64
480480,note_on,,,,,0,0,2,,,,0,60,41
480480,note_off,,,,,120,0,2,,,,0,56,64
480600,note_off,,,,,120,0,1,,,,0,80,64
480600,note_on,,,,,0,0,1,,,,0,83,66
480600,note_off,,,,,120,0,2,,,,0,60,64
480600,note_on,,,,,0,0,2,,,,0,50,44
480720,note_off,,,,,120,0,1,,,,0,83,64
480720,note_off,,,,,120,0,2,,,,0,50,64
480720,note_on,,,,,0,0,2,,,,0,53,49
480840,note_on,,,,,120,0,1,,,,0,83,71
480840,note_off,,,,,120,0,2,,,,0,53,64
480840,note_on,,,,,0,0,2,,,,0,60,52
480960,note_on,,,,,0,0,2,,,,0,51,68
480960,note_off,,,,,120,0,2,,,,0,60,64
480960,note_off,,,,,120,0,1,,,,0,83,64
480960,note_on,,,,,0,0,1,,,,0,84,74
481080,note_off,,,,,120,0,2,,,,0,51,64
481080,note_on,,,,,0,0,2,,,,0,55,59
481080,note_off,,,,,120,0,1,,,,0,84,64
481200,note_off,,,,,120,0,2,,,,0,55,64
481200,note_on,,,,,0,0,2,,,,0,60,59
481200,note_on,,,,,120,0,1,,,,0,84,71
481320,note_off,,,,,120,0,2,,,,0,60,64
481320,note_off,,,,,120,0,1,,,,0,84,64
481320,note_on,,,,,0,0,2,,,,0,48,63
481320,note_on,,,,,0,0,1,,,,0,87,74
481440,note_off,,,,,120,0,1,,,,0,87,64
481440,note_on,,,,,0,0,2,,,,0,51,65
481440,note_off,,,,,120,0,2,,,,0,48,64
481560,note_on,,,,,0,0,2,,,,0,55,72
481560,note_off,,,,,120,0,2,,,,0,51,64
481560,note_on,,,,,120,0,1,,,,0,87,80
481680,note_on,,,,,0,0,1,,,,0,91,94
481680,note_on,,,,,0,0,2,,,,0,45,79
481680,note_off,,,,,120,0,2,,,,0,55,64
481680,note_off,,,,,120,0,1,,,,0,87,64
481800,note_on,,,,,0,0,2,,,,0,48,71
481800,note_off,,,,,120,0,2,,,,0,45,64
481800,note_off,,,,,120,0,1,,,,0,91,64
481920,note_on,,,,,0,0,2,,,,0,55,68
481920,note_off,,,,,120,0,2,,,,0,48,64
481920,note_on,,,,,120,0,1,,,,0,91,93
482040,note_on,,,,,0,0,2,,,,0,44,67
482040,note_off,,,,,120,0,2,,,,0,55,64
482040,note_on,,,,,0,0,1,,,,0,90,89
482040,note_off,,,,,120,0,1,,,,0,91,64
482160,note_on,,,,,0,0,2,,,,0,48,59
482160,note_off,,,,,120,0,2,,,,0,44,64
482160,note_off,,,,,120,0,1,,,,0,90,64
482280,note_on,,,,,0,0,2,,,,0,55,55
482280,note_off,,,,,120,0,2,,,,0,48,64
482280,note_on,,,,,120,0,1,,,,0,90,79
482400,note_on,,,,,0,0,2,,,,0,43,60
482400,note_off,,,,,120,0,2,,,,0,55,64
482400,note_on,,,,,0,0,1,,,,0,91,69
482400,note_off,,,,,120,0,1,,,,0,90,64
482520,note_off,,,,,120,0,2,,,,0,43,64
482520,note_off,,,,,120,0,1,,,,0,91,64
482520,note_on,,,,,0,0,2,,,,0,47,48
482640,note_on,,,,,0,0,2,,,,0,55,72
482640,control_change,,,,,0,0,1,,64,95,0,,
482640,note_on,,,,,120,0,1,,,,0,67,86
482640,note_off,,,,,120,0,2,,,,0,47,64
482760,note_on,,,,,0,0,2,,,,0,50,99
482760,note_off,,,,,120,0,2,,,,0,55,64
482760,note_off,,,,,120,0,1,,,,0,67,64
482760,note_on,,,,,0,0,1,,,,0,79,101
482880,note_off,,,,,120,0,1,,,,0,79,64
482880,note_on,,,,,0,0,2,,,,0,53,64
482880,note_off,,,,,120,0,2,,,,0,50,64
482986,control_change,,,,,106,0,1,,64,0,0,,
483000,note_on,,,,,14,0,1,,,,0,67,86
483000,note_on,,,,,0,0,2,,,,0,55,41
483000,note_off,,,,,120,0,2,,,,0,53,64
483120,set_tempo,,,,,5760,1,0,234375,,,,,
483120,note_off,,,,,120,0,2,,,,0,55,64
483120,note_on,,,,,0,0,2,,,,0,48,40
483120,note_off,,,,,120,0,1,,,,0,67,64
483120,note_on,,,,,0,0,1,,,,0,75,50
483160,set_tempo,,,,,40,1,0,232558,,,,,
483180,set_tempo,,,,,20,1,0,231660,,,,,
483240,note_on,,,,,0,0,2,,,,0,51,32
483240,note_off,,,,,120,0,2,,,,0,48,64
483240,note_off,,,,,120,0,1,,,,0,75,64
483360,note_on,,,,,0,0,2,,,,0,55,34
483360,note_off,,,,,120,0,2,,,,0,51,64
483360,note_on,,,,,120,0,1,,,,0,75,51
483480,note_off,,,,,120,0,1,,,,0,75,64
483480,note_on,,,,,0,0,1,,,,0,74,50
483480,note_on,,,,,0,0,2,,,,0,47,39
483480,note_off,,,,,120,0,2,,,,0,55,64
483600,note_off,,,,,120,0,1,,,,0,74,64
483600,note_on,,,,,0,0,2,,,,0,50,32
483600,note_off,,,,,120,0,2,,,,0,47,64
483620,set_tempo,,,,,440,1,0,230769,,,,,
483720,note_on,,,,,0,0,2,,,,0,55,38
483720,note_off,,,,,120,0,2,,,,0,50,64
483720,note_on,,,,,120,0,1,,,,0,74,49
483840,note_on,,,,,0,0,1,,,,0,72,49
483840,note_off,,,,,120,0,1,,,,0,74,64
483840,note_on,,,,,0,0,2,,,,0,48,42
483840,note_off,,,,,120,0,2,,,,0,55,64
483860,set_tempo,,,,,240,1,0,229885,,,,,
483960,note_off,,,,,120,0,1,,,,0,72,64
483960,note_on,,,,,0,0,2,,,,0,51,33
483960,note_off,,,,,120,0,2,,,,0,48,64
484080,note_on,,,,,0,0,2,,,,0,55,38
484080,note_on,,,,,120,0,1,,,,0,72,52
484080,note_off,,,,,120,0,2,,,,0,51,64
484100,set_tempo,,,,,240,1,0,229008,,,,,
484200,note_on,,,,,0,0,2,,,,0,51,41
484200,note_off,,,,,120,0,2,,,,0,55,64
484200,note_on,,,,,0,0,1,,,,0,79,54
484200,note_off,,,,,120,0,1,,,,0,72,64
484260,set_tempo,,,,,160,1,0,227273,,,,,
484320,note_off,,,,,120,0,2,,,,0,51,64
484320,note_off,,,,,120,0,1,,,,0,79,64
484320,note_on,,,,,0,0,2,,,,0,55,31
484440,note_off,,,,,120,0,2,,,,0,55,64
484440,note_on,,,,,120,0,1,,,,0,79,55
484440,note_on,,,,,0,0,2,,,,0,60,34
484460,set_tempo,,,,,200,1,0,226415,,,,,
484560,note_off,,,,,120,0,1,,,,0,79,64
484560,note_off,,,,,120,0,2,,,,0,60,64
484560,note_on,,,,,0,0,2,,,,0,53,40
484560,note_on,,,,,0,0,1,,,,0,74,56
484620,set_tempo,,,,,160,1,0,225564,,,,,
484680,note_off,,,,,120,0,2,,,,0,53,64
484680,note_on,,,,,0,0,2,,,,0,56,32
484680,note_off,,,,,120,0,1,,,,0,74,64
484800,note_on,,,,,0,0,2,,,,0,62,36
484800,note_off,,,,,120,0,2,,,,0,56,64
484800,note_on,,,,,120,0,1,,,,0,74,58
484920,note_on,,,,,0,0,1,,,,0,67,59
484920,note_off,,,,,120,0,2,,,,0,62,64
484920,note_on,,,,,0,0,2,,,,0,55,41
484920,note_off,,,,,120,0,1,,,,0,74,64
484960,set_tempo,,,,,340,1,0,224719,,,,,
485040,note_on,,,,,0,0,2,,,,0,59,41
485040,note_off,,,,,120,0,2,,,,0,55,64
485040,note_off,,,,,120,0,1,,,,0,67,64
485160,note_on,,,,,0,0,2,,,,0,65,44
485160,note_off,,,,,120,0,2,,,,0,59,64
485160,note_on,,,,,120,0,1,,,,0,67,62
485200,set_tempo,,,,,240,1,0,223881,,,,,
485280,note_off,,,,,120,0,1,,,,0,67,64
485280,note_on,,,,,0,0,1,,,,0,75,64
485280,note_off,,,,,120,0,2,,,,0,65,64
485280,note_on,,,,,0,0,2,,,,0,48,47
485400,note_off,,,,,120,0,1,,,,0,75,64
485400,note_off,,,,,120,0,2,,,,0,48,64
485400,note_on,,,,,0,0,2,,,,0,55,51
485480,set_tempo,,,,,280,1,0,222222,,,,,
485520,note_off,,,,,120,0,2,,,,0,55,64
485520,set_tempo,,,,,40,1,0,250000,,,,,
485520,control_change,,,,,0,0,1,,64,95,0,,
485520,note_on,,,,,120,0,1,,,,0,68,92
485520,note_on,,,,,0,0,2,,,,0,60,79
485640,note_off,,,,,120,0,2,,,,0,60,64
485640,note_off,,,,,120,0,1,,,,0,68,64
485640,note_on,,,,,0,0,1,,,,0,80,111
485640,note_on,,,,,0,0,2,,,,0,48,110
485760,note_off,,,,,120,0,1,,,,0,80,64
485760,note_off,,,,,120,0,2,,,,0,48,64
485760,note_on,,,,,0,0,2,,,,0,51,62
485820,set_tempo,,,,,300,1,0,248963,,,,,
485866,control_change,,,,,106,0,1,,64,0,0,,
485880,note_on,,,,,14,0,1,,,,0,68,68
485880,note_on,,,,,0,0,2,,,,0,56,49
485880,note_off,,,,,120,0,2,,,,0,51,64
485900,set_tempo,,,,,80,1,0,221402,,,,,
486000,note_on,,,,,0,0,1,,,,0,77,65
486000,note_off,,,,,120,0,2,,,,0,56,64
486000,note_on,,,,,0,0,2,,,,0,49,45
486000,note_off,,,,,120,0,1,,,,0,68,64
486100,set_tempo,,,,,200,1,0,220588,,,,,
486120,note_off,,,,,120,0,1,,,,0,77,64
486120,note_off,,,,,120,0,2,,,,0,49,64
486120,note_on,,,,,0,0,2,,,,0,53,44
486240,note_on,,,,,120,0,1,,,,0,77,60
486240,note_on,,,,,0,0,2,,,,0,56,40
486240,note_off,,,,,120,0,2,,,,0,53,64
486360,note_on,,,,,0,0,1,,,,0,75,58
486360,note_off,,,,,120,0,1,,,,0,77,64
486360,note_off,,,,,120,0,2,,,,0,56,64
486360,note_on,,,,,0,0,2,,,,0,48,38
486480,note_off,,,,,120,0,1,,,,0,75,64
486480,note_on,,,,,0,0,2,,,,0,54,36
486480,note_off,,,,,120,0,2,,,,0,48,64
486540,set_tempo,,,,,440,1,0,219780,,,,,
486600,note_off,,,,,120,0,2,,,,0,54,64
486600,note_on,,,,,0,0,2,,,,0,56,38
486600,note_on,,,,,120,0,1,,,,0,75,58
486720,note_off,,,,,120,0,1,,,,0,75,64
486720,note_on,,,,,0,0,1,,,,0,73,58
486720,note_off,,,,,120,0,2,,,,0,56,64
486720,note_on,,,,,0,0,2,,,,0,49,45
486840,note_off,,,,,120,0,1,,,,0,73,64
486840,set_tempo,,,,,300,1,0,218978,,,,,
486840,note_off,,,,,120,0,2,,,,0,49,64
486840,note_on,,,,,0,0,2,,,,0,53,43
486960,note_on,,,,,120,0,1,,,,0,73,58
486960,note_off,,,,,120,0,2,,,,0,53,64
486960,note_on,,,,,0,0,2,,,,0,56,42
487080,note_off,,,,,120,0,1,,,,0,73,64
487080,note_on,,,,,0,0,1,,,,0,80,58
487080,note_off,,,,,120,0,2,,,,0,56,64
487080,note_on,,,,,0,0,2,,,,0,53,42
487200,note_off,,,,,120,0,1,,,,0,80,64
487200,note_off,,,,,120,0,2,,,,0,53,64
487200,note_on,,,,,0,0,2,,,,0,56,42
487320,note_off,,,,,120,0,2,,,,0,56,64
487320,note_on,,,,,0,0,2,,,,0,61,44
487320,note_on,,,,,120,0,1,,,,0,80,60
487340,set_tempo,,,,,500,1,0,217391,,,,,
487440,note_on,,,,,0,0,2,,,,0,54,49
487440,note_off,,,,,120,0,2,,,,0,61,64
487440,note_on,,,,,0,0,1,,,,0,75,60
487440,note_off,,,,,120,0,1,,,,0,80,64
487560,note_on,,,,,0,0,2,,,,0,58,52
487560,note_off,,,,,120,0,2,,,,0,54,64
487560,note_off,,,,,120,0,1,,,,0,75,64
487640,set_tempo,,,,,300,1,0,216606,,,,,
487680,note_on,,,,,120,0,1,,,,0,75,63
487680,note_on,,,,,0,0,2,,,,0,63,55
487680,note_off,,,,,120,0,2,,,,0,58,64
487800,note_off,,,,,120,0,1,,,,0,75,64
487800,note_off,,,,,120,0,2,,,,0,63,64
487800,note_on,,,,,0,0,1,,,,0,68,66
487800,note_on,,,,,0,0,2,,,,0,56,57
487900,set_tempo,,,,,260,1,0,215827,,,,,
487920,note_off,,,,,120,0,2,,,,0,56,64
487920,note_off,,,,,120,0,1,,,,0,68,64
487920,note_on,,,,,0,0,2,,,,0,60,60
488040,note_on,,,,,120,0,1,,,,0,68,71
488040,note_off,,,,,120,0,2,,,,0,60,64
488040,note_on,,,,,0,0,2,,,,0,66,63
488160,note_off,,,,,120,0,1,,,,0,68,64
488160,note_off,,,,,120,0,2,,,,0,66,64
488160,note_on,,,,,0,0,1,,,,0,77,76
488160,note_on,,,,,0,0,2,,,,0,49,65
488280,note_off,,,,,120,0,1,,,,0,77,64
488280,note_on,,,,,0,0,2,,,,0,56,69
488280,note_off,,,,,120,0,2,,,,0,49,64
488280,set_tempo,,,,,380,1,0,215054,,,,,
488400,note_on,,,,,120,0,1,,,,0,70,100
488400,control_change,,,,,0,0,1,,64,95,0,,
488400,note_on,,,,,0,0,2,,,,0,61,90
488400,note_off,,,,,120,0,2,,,,0,56,64
488400,set_tempo,,,,,120,1,0,250000,,,,,
488520,note_off,,,,,120,0,1,,,,0,70,64
488520,note_off,,,,,120,0,2,,,,0,61,64
488520,note_on,,,,,0,0,1,,,,0,82,122
488520,note_on,,,,,0,0,2,,,,0,49,120
488640,note_off,,,,,120,0,2,,,,0,49,64
488640,note_off,,,,,120,0,1,,,,0,82,64
488640,note_on,,,,,0,0,2,,,,0,53,62
488746,control_change,,,,,106,0,1,,64,0,0,,
488760,note_on,,,,,14,0,1,,,,0,70,63
488760,set_tempo,,,,,360,1,0,229008,,,,,
488760,note_off,,,,,120,0,2,,,,0,53,64
488760,note_on,,,,,0,0,2,,,,0,58,58
488780,set_tempo,,,,,20,1,0,215827,,,,,
488880,note_on,,,,,0,0,1,,,,0,78,55
488880,note_off,,,,,120,0,2,,,,0,58,64
488880,note_off,,,,,120,0,1,,,,0,70,64
488880,set_tempo,,,,,100,1,0,215054,,,,,
488880,note_on,,,,,0,0,2,,,,0,51,53
489000,note_on,,,,,0,0,2,,,,0,54,47
489000,note_off,,,,,120,0,1,,,,0,78,64
489000,note_off,,,,,120,0,2,,,,0,51,64
489060,set_tempo,,,,,180,1,0,214286,,,,,
489120,note_on,,,,,120,0,1,,,,0,78,59
489120,note_on,,,,,0,0,2,,,,0,58,47
489120,note_off,,,,,120,0,2,,,,0,54,64
489160,set_tempo,,,,,100,1,0,212766,,,,,
489240,note_on,,,,,0,0,1,,,,0,77,62
489240,note_off,,,,,120,0,1,,,,0,78,64
489240,note_off,,,,,120,0,2,,,,0,58,64
489240,note_on,,,,,0,0,2,,,,0,50,48
489360,note_on,,,,,0,0,2,,,,0,56,50
489360,note_off,,,,,120,0,2,,,,0,50,64
489360,note_off,,,,,120,0,1,,,,0,77,64
489480,note_off,,,,,120,0,2,,,,0,56,64
489480,note_on,,,,,120,0,1,,,,0,77,73
489480,note_on,,,,,0,0,2,,,,0,58,55
489520,set_tempo,,,,,360,1,0,212014,,,,,
489600,note_off,,,,,120,0,1,,,,0,77,64
489600,note_on,,,,,0,0,1,,,,0,75,84
489600,note_on,,,,,0,0,2,,,,0,51,65
489600,note_off,,,,,120,0,2,,,,0,58,64
489700,set_tempo,,,,,180,1,0,211268,,,,,
489720,note_on,,,,,0,0,2,,,,0,54,75
489720,note_off,,,,,120,0,2,,,,0,51,64
489720,note_off,,,,,120,0,1,,,,0,75,64
489820,set_tempo,,,,,120,1,0,256410,,,,,
489840,note_on,,,,,120,0,1,,,,0,72,106
489840,control_change,,,,,0,0,1,,64,95,0,,
489840,note_off,,,,,120,0,2,,,,0,54,64
489840,note_on,,,,,0,0,2,,,,0,58,108
489860,set_tempo,,,,,40,1,0,255319,,,,,
489960,note_on,,,,,0,0,2,,,,0,52,127
489960,note_off,,,,,120,0,1,,,,0,72,64
489960,note_on,,,,,0,0,1,,,,0,84,127
489960,note_off,,,,,120,0,2,,,,0,58,64
489980,set_tempo,,,,,120,1,0,273973,,,,,
490040,set_tempo,,,,,60,1,0,292683,,,,,
490080,note_on,,,,,0,0,2,,,,0,55,113
490080,note_off,,,,,120,0,1,,,,0,84,64
490080,note_off,,,,,120,0,2,,,,0,52,64
490140,set_tempo,,,,,100,1,0,303030,,,,,
490192,control_change,,,,,112,0,1,,64,0,0,,
490200,control_change,,,,,0,0,1,,64,95,0,,
490200,note_on,,,,,8,0,1,,,,0,72,102
490200,note_on,,,,,0,0,2,,,,0,60,101
490200,note_off,,,,,120,0,2,,,,0,55,64
490220,set_tempo,,,,,80,1,0,310881,,,,,
490320,note_off,,,,,120,0,1,,,,0,72,64
490320,note_on,,,,,0,0,2,,,,0,44,100
490320,note_off,,,,,120,0,2,,,,0,60,64
490320,note_on,,,,,0,0,1,,,,0,84,111
490320,set_tempo,,,,,100,1,0,315789,,,,,
490340,set_tempo,,,,,20,1,0,283019,,,,,
490360,set_tempo,,,,,20,1,0,270270,,,,,
490380,set_tempo,,,,,20,1,0,269058,,,,,
490440,note_off,,,,,120,0,1,,,,0,84,64
490440,note_off,,,,,120,0,2,,,,0,44,64
490440,note_on,,,,,0,0,2,,,,0,48,86
490460,set_tempo,,,,,80,1,0,256410,,,,,
490520,set_tempo,,,,,60,1,0,246914,,,,,
490560,note_on,,,,,120,0,1,,,,0,84,103
490560,set_tempo,,,,,40,1,0,236220,,,,,
490560,note_on,,,,,0,0,2,,,,0,53,78
490560,note_off,,,,,120,0,2,,,,0,48,64
490660,set_tempo,,,,,100,1,0,231660,,,,,
490672,control_change,,,,,112,0,1,,64,0,0,,
490680,note_off,,,,,120,0,2,,,,0,53,64
490680,note_off,,,,,8,0,1,,,,0,84,64
490680,note_on,,,,,0,0,2,,,,0,48,71
490680,note_on,,,,,0,0,1,,,,0,80,101
490760,set_tempo,,,,,100,1,0,226415,,,,,
490800,note_on,,,,,0,0,2,,,,0,53,67
490800,note_off,,,,,120,0,1,,,,0,80,64
490800,note_off,,,,,120,0,2,,,,0,48,64
490860,set_tempo,,,,,100,1,0,221402,,,,,
490920,note_on,,,,,120,0,1,,,,0,80,93
490920,note_off,,,,,120,0,2,,,,0,53,64
490920,note_on,,,,,0,0,2,,,,0,56,66
491040,note_on,,,,,0,0,1,,,,0,77,87
491040,note_off,,,,,120,0,1,,,,0,80,64
491040,note_on,,,,,0,0,2,,,,0,44,65
491040,note_off,,,,,120,0,2,,,,0,56,64
491100,set_tempo,,,,,240,1,0,217391,,,,,
491160,note_off,,,,,120,0,2,,,,0,44,64
491160,note_on,,,,,0,0,2,,,,0,48,65
491160,note_off,,,,,120,0,1,,,,0,77,64
491280,note_off,,,,,120,0,2,,,,0,48,64
491280,note_on,,,,,0,0,2,,,,0,53,65
491280,note_on,,,,,120,0,1,,,,0,77,81
491300,set_tempo,,,,,200,1,0,215054,,,,,
491400,note_off,,,,,120,0,1,,,,0,77,64
491400,note_on,,,,,0,0,1,,,,0,72,79
491400,note_on,,,,,0,0,2,,,,0,48,65
491400,note_off,,,,,120,0,2,,,,0,53,64
491520,note_off,,,,,120,0,2,,,,0,48,64
491520,note_on,,,,,0,0,2,,,,0,53,65
491520,note_off,,,,,120,0,1,,,,0,72,64
491540,set_tempo,,,,,240,1,0,215827,,,,,
491560,set_tempo,,,,,20,1,0,219780,,,,,
491640,note_on,,,,,120,0,1,,,,0,72,76
491640,note_on,,,,,0,0,2,,,,0,56,65
491640,note_off,,,,,120,0,2,,,,0,53,64
491760,note_off,,,,,120,0,1,,,,0,72,64
491760,note_on,,,,,0,0,1,,,,0,68,83
491760,note_off,,,,,120,0,2,,,,0,56,64
491760,note_on,,,,,0,0,2,,,,0,44,66
491880,note_off,,,,,120,0,1,,,,0,68,64
491880,note_off,,,,,120,0,2,,,,0,44,64
491880,note_on,,,,,0,0,2,,,,0,48,70
491900,set_tempo,,,,,340,1,0,222222,,,,,
492000,note_on,,,,,120,0,1,,,,0,68,75
492000,note_off,,,,,120,0,2,,,,0,48,64
492000,note_on,,,,,0,0,2,,,,0,53,72
492040,set_tempo,,,,,140,1,0,224719,,,,,
492120,note_off,,,,,120,0,2,,,,0,53,64
492120,note_on,,,,,0,0,1,,,,0,65,79
492120,note_on,,,,,0,0,2,,,,0,48,76
492120,note_off,,,,,120,0,1,,,,0,68,64
492240,note_on,,,,,0,0,2,,,,0,53,80
492240,note_off,,,,,120,0,1,,,,0,65,64
492240,note_off,,,,,120,0,2,,,,0,48,64
492360,note_off,,,,,120,0,2,,,,0,53,64
492360,note_on,,,,,0,0,2,,,,0,56,84
492360,note_on,,,,,120,0,1,,,,0,65,77
492420,set_tempo,,,,,380,1,0,227273,,,,,
492480,note_on,,,,,0,0,2,,,,0,44,88
492480,note_off,,,,,120,0,2,,,,0,56,64
492480,note_on,,,,,0,0,1,,,,0,60,87
492480,note_off,,,,,120,0,1,,,,0,65,64
492600,note_off,,,,,120,0,1,,,,0,60,64
492600,note_off,,,,,120,0,2,,,,0,44,64
492600,note_on,,,,,0,0,2,,,,0,48,92
492660,set_tempo,,,,,240,1,0,230769,,,,,
492720,note_on,,,,,120,0,1,,,,0,60,99
492720,note_off,,,,,120,0,2,,,,0,48,64
492720,note_on,,,,,0,0,2,,,,0,53,95
492840,note_on,,,,,0,0,1,,,,0,56,105
492840,note_off,,,,,120,0,1,,,,0,60,64
492840,note_on,,,,,0,0,2,,,,0,48,98
492840,note_off,,,,,120,0,2,,,,0,53,64
492960,note_off,,,,,120,0,1,,,,0,56,64
492960,note_on,,,,,0,0,2,,,,0,44,103
492960,note_off,,,,,120,0,2,,,,0,48,64
493000,set_tempo,,,,,340,1,0,232558,,,,,
493080,note_off,,,,,120,0,2,,,,0,44,64
493080,note_on,,,,,120,0,1,,,,0,53,120
493080,note_on,,,,,0,0,2,,,,0,41,110
493200,note_off,,,,,120,0,2,,,,0,41,64
493200,control_change,,,,,0,0,1,,64,96,0,,
493200,note_on,,,,,0,0,1,,,,0,49,127
493200,note_on,,,,,0,0,2,,,,0,29,125
493200,note_off,,,,,120,0,1,,,,0,53,64
493240,set_tempo,,,,,240,1,0,236220,,,,,
493300,set_tempo,,,,,60,1,0,230769,,,,,
493320,note_off,,,,,120,0,2,,,,0,29,64
493320,note_on,,,,,0,0,2,,,,0,32,121
493320,note_off,,,,,120,0,1,,,,0,49,64
493380,set_tempo,,,,,80,1,0,227273,,,,,
493440,note_off,,,,,120,0,2,,,,0,32,64
493440,note_on,,,,,0,0,2,,,,0,37,115
493440,note_on,,,,,120,0,1,,,,0,49,114
493500,set_tempo,,,,,120,1,0,224719,,,,,
493552,control_change,,,,,112,0,1,,64,0,0,,
493560,note_on,,,,,0,0,2,,,,0,32,110
493560,note_off,,,,,120,0,2,,,,0,37,64
493560,note_on,,,,,0,0,1,,,,0,61,103
493560,note_off,,,,,8,0,1,,,,0,49,64
493680,note_on,,,,,0,0,2,,,,0,37,104
493680,note_off,,,,,120,0,2,,,,0,32,64
493680,note_off,,,,,120,0,1,,,,0,61,64
493800,note_on,,,,,0,0,2,,,,0,41,98
493800,note_off,,,,,120,0,2,,,,0,37,64
493800,note_on,,,,,120,0,1,,,,0,61,90
493920,note_off,,,,,120,0,1,,,,0,61,64
493920,note_on,,,,,0,0,2,,,,0,42,112
493920,note_off,,,,,120,0,2,,,,0,41,64
493920,note_on,,,,,0,0,1,,,,0,60,85
494040,note_on,,,,,0,0,2,,,,0,45,105
494040,note_off,,,,,120,0,2,,,,0,42,64
494040,note_off,,,,,120,0,1,,,,0,60,64
494160,note_on,,,,,120,0,1,,,,0,60,81
494160,note_on,,,,,0,0,2,,,,0,44,100
494160,note_off,,,,,120,0,2,,,,0,45,64
494280,note_on,,,,,0,0,1,,,,0,72,76
494280,note_on,,,,,0,0,2,,,,0,45,94
494280,note_off,,,,,120,0,2,,,,0,44,64
494280,note_off,,,,,120,0,1,,,,0,60,64
494400,note_off,,,,,120,0,1,,,,0,72,64
494400,note_off,,,,,120,0,2,,,,0,45,64
494400,note_on,,,,,0,0,2,,,,0,44,89
494420,set_tempo,,,,,920,1,0,226415,,,,,
494520,note_on,,,,,120,0,1,,,,0,48,69
494520,note_on,,,,,0,0,2,,,,0,42,83
494520,note_off,,,,,120,0,2,,,,0,44,64
494620,set_tempo,,,,,200,1,0,229885,,,,,
494640,note_on,,,,,0,0,2,,,,0,29,125
494640,set_tempo,,,,,20,1,0,234375,,,,,
494640,control_change,,,,,0,0,1,,64,96,0,,
494640,note_off,,,,,120,0,2,,,,0,42,64
494640,note_off,,,,,120,0,1,,,,0,48,64
494640,note_on,,,,,0,0,1,,,,0,49,127
494740,set_tempo,,,,,100,1,0,229885,,,,,
494760,note_off,,,,,120,0,1,,,,0,49,64
494760,note_off,,,,,120,0,2,,,,0,29,64
494760,note_on,,,,,0,0,2,,,,0,32,121
494860,set_tempo,,,,,120,1,0,226415,,,,,
494880,note_on,,,,,120,0,1,,,,0,49,116
494880,note_on,,,,,0,0,2,,,,0,37,115
494880,note_off,,,,,120,0,2,,,,0,32,64
494992,control_change,,,,,112,0,1,,64,0,0,,
495000,note_on,,,,,0,0,1,,,,0,61,112
495000,note_off,,,,,8,0,1,,,,0,49,64
495000,note_on,,,,,0,0,2,,,,0,32,110
495000,note_off,,,,,120,0,2,,,,0,37,64
495080,set_tempo,,,,,220,1,0,223881,,,,,
495120,note_off,,,,,120,0,2,,,,0,32,64
495120,note_on,,,,,0,0,2,,,,0,37,104
495120,note_off,,,,,120,0,1,,,,0,61,64
495220,set_tempo,,,,,140,1,0,221402,,,,,
495240,note_on,,,,,0,0,2,,,,0,41,98
495240,note_off,,,,,120,0,2,,,,0,37,64
495240,note_on,,,,,120,0,1,,,,0,61,105
495360,note_off,,,,,120,0,2,,,,0,41,64
495360,note_on,,,,,0,0,1,,,,0,60,97
495360,note_off,,,,,120,0,1,,,,0,61,64
495360,note_on,,,,,0,0,2,,,,0,42,112
495480,note_off,,,,,120,0,2,,,,0,42,64
495480,note_off,,,,,120,0,1,,,,0,60,64
495480,note_on,,,,,0,0,2,,,,0,45,105
495560,set_tempo,,,,,340,1,0,220588,,,,,
495600,note_on,,,,,120,0,1,,,,0,60,82
495600,note_on,,,,,0,0,2,,,,0,44,100
495600,note_off,,,,,120,0,2,,,,0,45,64
495720,note_off,,,,,120,0,1,,,,0,60,64
495720,note_on,,,,,0,0,1,,,,0,72,76
495720,note_off,,,,,120,0,2,,,,0,44,64
495720,note_on,,,,,0,0,2,,,,0,45,94
495840,note_on,,,,,0,0,2,,,,0,44,89
495840,note_off,,,,,120,0,1,,,,0,72,64
495840,note_off,,,,,120,0,2,,,,0,45,64
495960,note_on,,,,,120,0,1,,,,0,48,70
495960,note_on,,,,,0,0,2,,,,0,42,83
495960,note_off,,,,,120,0,2,,,,0,44,64
496080,note_on,,,,,0,0,1,,,,0,49,127
496080,note_off,,,,,120,0,1,,,,0,48,64
496080,control_change,,,,,0,0,1,,64,96,0,,
496080,set_tempo,,,,,520,1,0,225564,,,,,
496080,note_off,,,,,120,0,2,,,,0,42,64
496080,note_on,,,,,0,0,2,,,,0,29,125
496100,set_tempo,,,,,20,1,0,232558,,,,,
496200,note_off,,,,,120,0,1,,,,0,49,64
496200,note_off,,,,,120,0,2,,,,0,29,64
496200,note_on,,,,,0,0,2,,,,0,32,121
496260,set_tempo,,,,,160,1,0,225564,,,,,
496300,set_tempo,,,,,40,1,0,224719,,,,,
496320,note_off,,,,,120,0,2,,,,0,32,64
496320,note_on,,,,,0,0,2,,,,0,37,115
496320,note_on,,,,,120,0,1,,,,0,49,118
496432,control_change,,,,,112,0,1,,64,0,0,,
496440,note_off,,,,,8,0,1,,,,0,49,64
496440,note_on,,,,,0,0,1,,,,0,61,105
496440,note_off,,,,,120,0,2,,,,0,37,64
496440,note_on,,,,,0,0,2,,,,0,32,110
496560,note_off,,,,,120,0,2,,,,0,32,64
496560,note_on,,,,,0,0,2,,,,0,37,104
496560,note_off,,,,,120,0,1,,,,0,61,64
496680,note_off,,,,,120,0,2,,,,0,37,64
496680,note_on,,,,,0,0,2,,,,0,41,98
496680,note_on,,,,,120,0,1,,,,0,61,97
496800,note_off,,,,,120,0,2,,,,0,41,64
496800,note_off,,,,,120,0,1,,,,0,61,64
496800,note_on,,,,,0,0,1,,,,0,62,95
496800,note_on,,,,,0,0,2,,,,0,44,112
496920,note_off,,,,,120,0,1,,,,0,62,64
496920,note_on,,,,,0,0,2,,,,0,47,105
496920,note_off,,,,,120,0,2,,,,0,44,64
496940,set_tempo,,,,,640,1,0,222222,,,,,
497040,note_on,,,,,0,0,2,,,,0,46,100
497040,note_off,,,,,120,0,2,,,,0,47,64
497040,note_on,,,,,120,0,1,,,,0,62,90
497160,note_on,,,,,0,0,2,,,,0,47,94
497160,note_off,,,,,120,0,2,,,,0,46,64
497160,note_on,,,,,0,0,1,,,,0,74,86
497160,note_off,,,,,120,0,1,,,,0,62,64
497280,note_on,,,,,0,0,2,,,,0,46,89
497280,note_off,,,,,120,0,1,,,,0,74,64
497280,note_off,,,,,120,0,2,,,,0,47,64
497400,note_on,,,,,120,0,1,,,,0,50,85
497400,note_off,,,,,120,0,2,,,,0,46,64
497400,note_on,,,,,0,0,2,,,,0,44,83
497520,note_on,,,,,0,0,2,,,,0,31,125
497520,note_off,,,,,120,0,2,,,,0,44,64
497520,note_off,,,,,120,0,1,,,,0,50,64
497520,control_change,,,,,0,0,1,,64,96,0,,
497520,note_on,,,,,0,0,1,,,,0,51,127
497520,set_tempo,,,,,580,1,0,227273,,,,,
497640,note_off,,,,,120,0,1,,,,0,51,64
497640,note_off,,,,,120,0,2,,,,0,31,64
497640,note_on,,,,,0,0,2,,,,0,34,121
497660,set_tempo,,,,,140,1,0,220588,,,,,
497760,note_on,,,,,0,0,2,,,,0,39,115
497760,note_on,,,,,120,0,1,,,,0,51,123
497760,note_off,,,,,120,0,2,,,,0,34,64
497872,control_change,,,,,112,0,1,,64,0,0,,
497880,note_on,,,,,0,0,2,,,,0,34,110
497880,note_off,,,,,8,0,1,,,,0,51,64
497880,note_off,,,,,120,0,2,,,,0,39,64
497880,note_on,,,,,0,0,1,,,,0,63,119
498000,note_on,,,,,0,0,2,,,,0,39,104
498000,note_off,,,,,120,0,2,,,,0,34,64
498000,note_off,,,,,120,0,1,,,,0,63,64
498120,note_off,,,,,120,0,2,,,,0,39,64
498120,note_on,,,,,0,0,2,,,,0,43,98
498120,note_on,,,,,120,0,1,,,,0,63,113
498240,note_on,,,,,0,0,1,,,,0,64,110
498240,note_off,,,,,120,0,1,,,,0,63,64
498240,note_off,,,,,120,0,2,,,,0,43,64
498240,note_on,,,,,0,0,2,,,,0,46,112
498360,note_off,,,,,120,0,1,,,,0,64,64
498360,note_off,,,,,120,0,2,,,,0,46,64
498360,note_on,,,,,0,0,2,,,,0,47,105
498480,note_off,,,,,120,0,2,,,,0,47,64
498480,note_on,,,,,0,0,2,,,,0,48,100
498480,note_on,,,,,120,0,1,,,,0,64,100
498500,set_tempo,,,,,840,1,0,218978,,,,,
498600,note_off,,,,,120,0,2,,,,0,48,64
498600,note_on,,,,,0,0,2,,,,0,49,94
498600,note_off,,,,,120,0,1,,,,0,64,64
498600,note_on,,,,,0,0,1,,,,0,76,98
498720,note_off,,,,,120,0,1,,,,0,76,64
498720,note_off,,,,,120,0,2,,,,0,49,64
498720,note_on,,,,,0,0,2,,,,0,48,89
498840,note_on,,,,,120,0,1,,,,0,52,107
498840,note_on,,,,,0,0,2,,,,0,46,83
498840,note_off,,,,,120,0,2,,,,0,48,64
498960,note_off,,,,,120,0,1,,,,0,52,64
498960,note_off,,,,,120,0,2,,,,0,46,64
498960,note_on,,,,,0,0,2,,,,0,45,84
498960,note_on,,,,,0,0,1,,,,0,53,115
499080,note_off,,,,,120,0,2,,,,0,45,64
499080,note_off,,,,,120,0,1,,,,0,53,64
499080,note_on,,,,,0,0,2,,,,0,48,87
499200,note_on,,,,,120,0,1,,,,0,53,109
499200,note_on,,,,,0,0,2,,,,0,45,90
499200,note_off,,,,,120,0,2,,,,0,48,64
499320,note_off,,,,,120,0,1,,,,0,53,64
499320,note_on,,,,,0,0,1,,,,0,54,121
499320,note_on,,,,,0,0,2,,,,0,46,93
499320,note_off,,,,,120,0,2,,,,0,45,64
499360,set_tempo,,,,,860,1,0,215827,,,,,
499440,note_on,,,,,0,0,2,,,,0,49,97
499440,note_off,,,,,120,0,2,,,,0,46,64
499440,note_off,,,,,120,0,1,,,,0,54,64
499560,note_on,,,,,120,0,1,,,,0,66,102
499560,note_off,,,,,120,0,2,,,,0,49,64
499560,note_on,,,,,0,0,2,,,,0,46,99
499580,set_tempo,,,,,220,1,0,216606,,,,,
499680,note_on,,,,,0,0,1,,,,0,67,113
499680,note_off,,,,,120,0,1,,,,0,66,64
499680,note_on,,,,,0,0,2,,,,0,47,101
499680,note_off,,,,,120,0,2,,,,0,46,64
499720,set_tempo,,,,,140,1,0,218978,,,,,
499800,note_off,,,,,120,0,1,,,,0,67,64
499800,note_on,,,,,0,0,2,,,,0,50,105
499800,note_off,,,,,120,0,2,,,,0,47,64
499880,set_tempo,,,,,160,1,0,223881,,,,,
499900,set_tempo,,,,,20,1,0,224719,,,,,
499920,note_on,,,,,0,0,2,,,,0,47,108
499920,note_off,,,,,120,0,2,,,,0,50,64
499920,note_on,,,,,120,0,1,,,,0,79,105
500040,note_on,,,,,0,0,2,,,,0,48,114
500040,note_off,,,,,120,0,2,,,,0,47,64
500040,note_on,,,,,0,0,1,,,,0,80,118
500040,note_off,,,,,120,0,1,,,,0,79,64
500060,set_tempo,,,,,160,1,0,232558,,,,,
500080,set_tempo,,,,,20,1,0,234375,,,,,
500160,note_on,,,,,0,0,2,,,,0,51,115
500160,note_off,,,,,120,0,2,,,,0,48,64
500160,note_off,,,,,120,0,1,,,,0,80,64
500200,set_tempo,,,,,120,1,0,246914,,,,,
500220,set_tempo,,,,,20,1,0,260870,,,,,
500240,set_tempo,,,,,20,1,0,266667,,,,,
500280,note_on,,,,,0,0,2,,,,0,48,121
500280,note_off,,,,,120,0,2,,,,0,51,64
500280,note_on,,,,,120,0,1,,,,0,80,107
500320,set_tempo,,,,,80,1,0,300000,,,,,
500340,set_tempo,,,,,20,1,0,301508,,,,,
500360,set_tempo,,,,,20,1,0,306122,,,,,
500380,set_tempo,,,,,20,1,0,312500,,,,,
500400,note_off,,,,,120,0,1,,,,0,80,64
500400,note_on,,,,,0,0,1,,,,0,92,127
500400,control_change,,,,,0,0,1,,64,95,0,,
500400,set_tempo,,,,,20,1,0,342857,,,,,
500400,note_off,,,,,120,0,2,,,,0,48,64
500400,note_on,,,,,0,0,2,,,,0,49,124
500480,set_tempo,,,,,80,1,0,216606,,,,,
500520,note_off,,,,,120,0,1,,,,0,92,64
500520,note_on,,,,,0,0,2,,,,0,52,115
500520,note_off,,,,,120,0,2,,,,0,49,64
500560,set_tempo,,,,,80,1,0,209790,,,,,
500640,note_off,,,,,120,0,2,,,,0,52,64
500640,note_on,,,,,0,0,2,,,,0,56,106
500640,note_on,,,,,120,0,1,,,,0,92,120
500760,note_on,,,,,0,0,1,,,,0,88,118
500760,note_off,,,,,120,0,1,,,,0,92,64
500760,note_off,,,,,120,0,2,,,,0,56,64
500760,note_on,,,,,0,0,2,,,,0,49,103
500766,control_change,,,,,6,0,1,,64,0,0,,
500780,set_tempo,,,,,220,1,0,210526,,,,,
500880,note_off,,,,,114,0,1,,,,0,88,64
500880,note_off,,,,,120,0,2,,,,0,49,64
500880,note_on,,,,,0,0,2,,,,0,52,96
500960,set_tempo,,,,,180,1,0,212766,,,,,
501000,note_on,,,,,120,0,1,,,,0,88,111
501000,note_off,,,,,120,0,2,,,,0,52,64
501000,note_on,,,,,0,0,2,,,,0,56,94
501120,note_on,,,,,0,0,1,,,,0,85,102
501120,note_off,,,,,120,0,1,,,,0,88,64
501120,note_on,,,,,0,0,2,,,,0,49,87
501120,note_off,,,,,120,0,2,,,,0,56,64
501240,note_on,,,,,0,0,2,,,,0,52,82
501240,note_off,,,,,120,0,2,,,,0,49,64
501240,note_off,,,,,120,0,1,,,,0,85,64
501360,note_off,,,,,120,0,2,,,,0,52,64
501360,note_on,,,,,120,0,1,,,,0,85,89
501360,note_on,,,,,0,0,2,,,,0,56,77
501400,set_tempo,,,,,440,1,0,215827,,,,,
501480,note_off,,,,,120,0,2,,,,0,56,64
501480,note_off,,,,,120,0,1,,,,0,85,64
501480,note_on,,,,,0,0,1,,,,0,80,82
501480,note_on,,,,,0,0,2,,,,0,49,75
501600,note_on,,,,,0,0,2,,,,0,52,71
501600,note_off,,,,,120,0,2,,,,0,49,64
501600,note_off,,,,,120,0,1,,,,0,80,64
501720,note_off,,,,,120,0,2,,,,0,52,64
501720,note_on,,,,,0,0,2,,,,0,56,69
501720,note_on,,,,,120,0,1,,,,0,80,70
501760,set_tempo,,,,,360,1,0,219780,,,,,
501840,note_off,,,,,120,0,2,,,,0,56,64
501840,note_on,,,,,0,0,2,,,,0,49,65
501840,note_on,,,,,0,0,1,,,,0,76,66
501840,note_off,,,,,120,0,1,,,,0,80,64
501960,note_off,,,,,120,0,1,,,,0,76,64
501960,note_off,,,,,120,0,2,,,,0,49,64
501960,note_on,,,,,0,0,2,,,,0,52,63
502080,note_off,,,,,120,0,2,,,,0,52,64
502080,note_on,,,,,0,0,2,,,,0,56,57
502080,note_on,,,,,120,0,1,,,,0,76,58
502200,set_tempo,,,,,440,1,0,222222,,,,,
502200,note_on,,,,,0,0,1,,,,0,73,55
502200,note_off,,,,,120,0,1,,,,0,76,64
502200,note_on,,,,,0,0,2,,,,0,49,57
502200,note_off,,,,,120,0,2,,,,0,56,64
502320,note_off,,,,,120,0,1,,,,0,73,64
502320,note_off,,,,,120,0,2,,,,0,49,64
502320,note_on,,,,,0,0,2,,,,0,52,51
502440,note_on,,,,,0,0,2,,,,0,56,44
502440,note_on,,,,,120,0,1,,,,0,73,51
502440,note_off,,,,,120,0,2,,,,0,52,64
502560,note_off,,,,,120,0,1,,,,0,73,64
502560,note_off,,,,,120,0,2,,,,0,56,64
502560,note_on,,,,,0,0,2,,,,0,49,42
502560,note_on,,,,,0,0,1,,,,0,76,49
502560,set_tempo,,,,,360,1,0,226415,,,,,
502680,note_off,,,,,120,0,1,,,,0,76,64
502680,note_on,,,,,0,0,2,,,,0,52,48
502680,note_off,,,,,120,0,2,,,,0,49,64
502700,set_tempo,,,,,140,1,0,231660,,,,,
502800,note_on,,,,,0,0,2,,,,0,56,62
502800,note_on,,,,,120,0,1,,,,0,76,43
502800,note_off,,,,,120,0,2,,,,0,52,64
502820,set_tempo,,,,,120,1,0,235294,,,,,
502920,note_on,,,,,0,0,2,,,,0,44,70
502920,note_off,,,,,120,0,2,,,,0,56,64
502920,note_off,,,,,120,0,1,,,,0,76,64
502920,note_on,,,,,0,0,1,,,,0,73,43
503020,set_tempo,,,,,200,1,0,245902,,,,,
503040,note_on,,,,,0,0,2,,,,0,52,85
503040,note_off,,,,,120,0,2,,,,0,44,64
503040,note_off,,,,,120,0,1,,,,0,73,64
503100,set_tempo,,,,,80,1,0,250000,,,,,
503160,note_on,,,,,0,0,2,,,,0,56,98
503160,note_off,,,,,120,0,2,,,,0,52,64
503160,note_on,,,,,120,0,1,,,,0,80,73
503260,set_tempo,,,,,160,1,0,259740,,,,,
503280,note_on,,,,,0,0,2,,,,0,49,123
503280,note_off,,,,,120,0,1,,,,0,80,64
503280,note_on,,,,,0,0,1,,,,0,92,127
503280,control_change,,,,,0,0,1,,64,95,0,,
503280,note_off,,,,,120,0,2,,,,0,56,64
503380,set_tempo,,,,,120,1,0,216606,,,,,
503400,note_off,,,,,120,0,2,,,,0,49,64
503400,note_off,,,,,120,0,1,,,,0,92,64
503400,note_on,,,,,0,0,2,,,,0,53,121
503420,set_tempo,,,,,40,1,0,209790,,,,,
503440,set_tempo,,,,,20,1,0,208333,,,,,
503520,note_on,,,,,120,0,1,,,,0,92,116
503520,note_off,,,,,120,0,2,,,,0,53,64
503520,note_on,,,,,0,0,2,,,,0,56,115
503600,set_tempo,,,,,160,1,0,212014,,,,,
503640,control_change,,,,,0,0,1,,64,0,0,,
503640,note_off,,,,,120,0,2,,,,0,56,64
503640,note_on,,,,,0,0,2,,,,0,49,105
503640,note_off,,,,,120,0,1,,,,0,92,64
503640,note_on,,,,,0,0,1,,,,0,89,111
503740,set_tempo,,,,,140,1,0,211268,,,,,
503760,note_on,,,,,0,0,2,,,,0,53,102
503760,note_off,,,,,120,0,2,,,,0,49,64
503760,note_off,,,,,120,0,1,,,,0,89,64
503880,note_on,,,,,0,0,2,,,,0,56,98
503880,note_off,,,,,120,0,2,,,,0,53,64
503880,note_on,,,,,120,0,1,,,,0,89,101
504000,note_on,,,,,0,0,2,,,,0,49,90
504000,note_off,,,,,120,0,2,,,,0,56,64
504000,note_off,,,,,120,0,1,,,,0,89,64
504000,note_on,,,,,0,0,1,,,,0,85,101
504120,note_off,,,,,120,0,1,,,,0,85,64
504120,note_off,,,,,120,0,2,,,,0,49,64
504120,note_on,,,,,0,0,2,,,,0,53,88
504240,note_on,,,,,120,0,1,,,,0,85,86
504240,note_off,,,,,120,0,2,,,,0,53,64
504240,note_on,,,,,0,0,2,,,,0,56,82
504260,set_tempo,,,,,520,1,0,214286,,,,,
504360,note_on,,,,,0,0,1,,,,0,80,82
504360,note_off,,,,,120,0,1,,,,0,85,64
504360,note_off,,,,,120,0,2,,,,0,56,64
504360,note_on,,,,,0,0,2,,,,0,49,75
504480,note_off,,,,,120,0,1,,,,0,80,64
504480,note_off,,,,,120,0,2,,,,0,49,64
504480,note_on,,,,,0,0,2,,,,0,53,70
504600,note_on,,,,,0,0,2,,,,0,56,64
504600,note_on,,,,,120,0,1,,,,0,80,75
504600,note_off,,,,,120,0,2,,,,0,53,64
504680,set_tempo,,,,,420,1,0,217391,,,,,
504720,note_off,,,,,120,0,1,,,,0,80,64
504720,note_on,,,,,0,0,1,,,,0,77,72
504720,note_off,,,,,120,0,2,,,,0,56,64
504720,note_on,,,,,0,0,2,,,,0,49,60
504840,note_off,,,,,120,0,1,,,,0,77,64
504840,note_on,,,,,0,0,2,,,,0,53,53
504840,note_off,,,,,120,0,2,,,,0,49,64
504960,note_on,,,,,0,0,2,,,,0,56,49
504960,note_on,,,,,120,0,1,,,,0,77,68
504960,note_off,,,,,120,0,2,,,,0,53,64
505060,set_tempo,,,,,380,1,0,219780,,,,,
505080,note_on,,,,,0,0,1,,,,0,73,67
505080,note_off,,,,,120,0,1,,,,0,77,64
505080,note_on,,,,,0,0,2,,,,0,49,46
505080,note_off,,,,,120,0,2,,,,0,56,64
505200,note_on,,,,,0,0,2,,,,0,53,43
505200,note_off,,,,,120,0,2,,,,0,49,64
505200,note_off,,,,,120,0,1,,,,0,73,64
505240,set_tempo,,,,,180,1,0,222222,,,,,
505260,set_tempo,,,,,20,1,0,221402,,,,,
505320,note_off,,,,,120,0,2,,,,0,53,64
505320,note_on,,,,,0,0,2,,,,0,56,41
505320,note_on,,,,,120,0,1,,,,0,73,63
505400,set_tempo,,,,,140,1,0,224719,,,,,
505440,note_off,,,,,120,0,2,,,,0,56,64
505440,note_on,,,,,0,0,2,,,,0,49,41
505440,note_on,,,,,0,0,1,,,,0,77,60
505440,note_off,,,,,120,0,1,,,,0,73,64
505560,note_on,,,,,0,0,2,,,,0,53,42
505560,note_off,,,,,120,0,2,,,,0,49,64
505560,note_off,,,,,120,0,1,,,,0,77,64
505560,set_tempo,,,,,160,1,0,227273,,,,,
505680,note_off,,,,,120,0,2,,,,0,53,64
505680,note_on,,,,,120,0,1,,,,0,77,52
505680,note_on,,,,,0,0,2,,,,0,56,52
505740,set_tempo,,,,,180,1,0,231660,,,,,
505800,note_off,,,,,120,0,2,,,,0,56,64
505800,note_off,,,,,120,0,1,,,,0,77,64
505800,note_on,,,,,0,0,2,,,,0,49,62
505800,note_on,,,,,0,0,1,,,,0,73,48
505900,set_tempo,,,,,160,1,0,236220,,,,,
505920,note_off,,,,,120,0,1,,,,0,73,64
505920,note_off,,,,,120,0,2,,,,0,49,64
505920,note_on,,,,,0,0,2,,,,0,53,77
506040,note_on,,,,,120,0,1,,,,0,80,72
506040,note_off,,,,,120,0,2,,,,0,53,64
506040,note_on,,,,,0,0,2,,,,0,56,99
506160,note_off,,,,,120,0,2,,,,0,56,64
506160,note_on,,,,,0,0,2,,,,0,50,126
506160,note_off,,,,,120,0,1,,,,0,80,64
506160,note_on,,,,,0,0,1,,,,0,92,120
506160,control_change,,,,,0,0,1,,64,96,0,,
506280,set_tempo,,,,,380,1,0,208333,,,,,
506280,note_on,,,,,0,0,2,,,,0,53,121
506280,note_off,,,,,120,0,2,,,,0,50,64
506280,note_off,,,,,120,0,1,,,,0,92,64
506400,note_off,,,,,120,0,2,,,,0,53,64
506400,note_on,,,,,0,0,2,,,,0,56,106
506400,note_on,,,,,120,0,1,,,,0,92,103
506480,set_tempo,,,,,200,1,0,212014,,,,,
506520,note_off,,,,,120,0,1,,,,0,92,64
506520,note_on,,,,,0,0,1,,,,0,89,98
506520,control_change,,,,,0,0,1,,64,0,0,,
506520,note_off,,,,,120,0,2,,,,0,56,64
506520,note_on,,,,,0,0,2,,,,0,50,102
506640,note_off,,,,,120,0,2,,,,0,50,64
506640,note_on,,,,,0,0,2,,,,0,53,97
506640,note_off,,,,,120,0,1,,,,0,89,64
506700,set_tempo,,,,,220,1,0,215054,,,,,
506760,note_on,,,,,120,0,1,,,,0,89,87
506760,note_off,,,,,120,0,2,,,,0,53,64
506760,note_on,,,,,0,0,2,,,,0,56,91
506880,note_on,,,,,0,0,1,,,,0,86,85
506880,note_off,,,,,120,0,1,,,,0,89,64
506880,note_off,,,,,120,0,2,,,,0,56,64
506880,note_on,,,,,0,0,2,,,,0,50,85
506920,set_tempo,,,,,220,1,0,217391,,,,,
507000,note_off,,,,,120,0,1,,,,0,86,64
507000,note_off,,,,,120,0,2,,,,0,50,64
507000,note_on,,,,,0,0,2,,,,0,53,80
507120,note_on,,,,,0,0,2,,,,0,56,73
507120,note_on,,,,,120,0,1,,,,0,86,67
507120,set_tempo,,,,,200,1,0,218978,,,,,
507120,note_off,,,,,120,0,2,,,,0,53,64
507240,note_off,,,,,120,0,1,,,,0,86,64
507240,note_on,,,,,0,0,1,,,,0,80,65
507240,note_off,,,,,120,0,2,,,,0,56,64
507240,note_on,,,,,0,0,2,,,,0,50,70
507360,set_tempo,,,,,240,1,0,221402,,,,,
507360,note_off,,,,,120,0,2,,,,0,50,64
507360,note_on,,,,,0,0,2,,,,0,53,66
507360,note_off,,,,,120,0,1,,,,0,80,64
507480,note_on,,,,,120,0,1,,,,0,80,61
507480,note_off,,,,,120,0,2,,,,0,53,64
507480,note_on,,,,,0,0,2,,,,0,56,66
507600,note_off,,,,,120,0,2,,,,0,56,64
507600,note_on,,,,,0,0,1,,,,0,79,61
507600,note_off,,,,,120,0,1,,,,0,80,64
507600,note_on,,,,,0,0,2,,,,0,47,64
507600,set_tempo,,,,,240,1,0,223881,,,,,
507720,note_on,,,,,0,0,2,,,,0,53,64
507720,note_off,,,,,120,0,2,,,,0,47,64
507720,set_tempo,,,,,120,1,0,217391,,,,,
507720,note_off,,,,,120,0,1,,,,0,79,64
507840,note_on,,,,,0,0,2,,,,0,55,64
507840,note_on,,,,,120,0,1,,,,0,79,63
507840,note_off,,,,,120,0,2,,,,0,53,64
507920,set_tempo,,,,,200,1,0,215827,,,,,
507960,note_off,,,,,120,0,2,,,,0,55,64
507960,note_on,,,,,0,0,2,,,,0,47,70
507960,note_off,,,,,120,0,1,,,,0,79,64
507960,note_on,,,,,0,0,1,,,,0,86,67
508080,note_off,,,,,120,0,2,,,,0,47,64
508080,note_on,,,,,0,0,2,,,,0,53,74
508080,note_off,,,,,120,0,1,,,,0,86,64
508200,note_on,,,,,120,0,1,,,,0,86,75
508200,note_on,,,,,0,0,2,,,,0,55,79
508200,note_off,,,,,120,0,2,,,,0,53,64
508300,set_tempo,,,,,380,1,0,217391,,,,,
508320,note_on,,,,,0,0,1,,,,0,91,82
508320,note_on,,,,,0,0,2,,,,0,43,82
508320,note_off,,,,,120,0,1,,,,0,86,64
508320,note_off,,,,,120,0,2,,,,0,55,64
508440,note_off,,,,,120,0,2,,,,0,43,64
508440,note_on,,,,,0,0,2,,,,0,50,86
508440,note_off,,,,,120,0,1,,,,0,91,64
508560,note_on,,,,,0,0,2,,,,0,53,92
508560,note_off,,,,,120,0,2,,,,0,50,64
508560,note_on,,,,,120,0,1,,,,0,91,93
508600,set_tempo,,,,,300,1,0,220588,,,,,
508620,set_tempo,,,,,20,1,0,232558,,,,,
508680,note_off,,,,,120,0,2,,,,0,53,64
508680,note_off,,,,,120,0,1,,,,0,91,64
508680,note_on,,,,,0,0,2,,,,0,43,97
508680,note_on,,,,,0,0,1,,,,0,95,99
508760,set_tempo,,,,,140,1,0,240000,,,,,
508800,note_off,,,,,120,0,1,,,,0,95,64
508800,note_off,,,,,120,0,2,,,,0,43,64
508800,note_on,,,,,0,0,2,,,,0,50,105
508860,set_tempo,,,,,100,1,0,250000,,,,,
508920,note_on,,,,,120,0,1,,,,0,95,110
508920,note_on,,,,,0,0,2,,,,0,53,118
508920,note_off,,,,,120,0,2,,,,0,50,64
508960,set_tempo,,,,,100,1,0,259740,,,,,
509040,note_off,,,,,120,0,2,,,,0,53,64
509040,note_on,,,,,0,0,2,,,,0,36,127
509040,note_on,,,,,0,0,1,,,,0,96,124
509040,control_change,,,,,0,0,1,,64,95,0,,
509040,note_off,,,,,120,0,1,,,,0,95,64
509040,set_tempo,,,,,80,1,0,277778,,,,,
509140,set_tempo,,,,,100,1,0,246914,,,,,
509160,note_off,,,,,120,0,1,,,,0,96,64
509160,note_on,,,,,0,0,2,,,,0,43,123
509160,note_off,,,,,120,0,2,,,,0,36,64
509240,set_tempo,,,,,100,1,0,238095,,,,,
509280,note_on,,,,,0,0,2,,,,0,48,122
509280,note_on,,,,,120,0,1,,,,0,96,119
509280,note_off,,,,,120,0,2,,,,0,43,64
509400,note_off,,,,,120,0,1,,,,0,96,64
509400,control_change,,,,,0,0,1,,64,0,0,,
509400,note_on,,,,,0,0,1,,,,0,91,116
509400,set_tempo,,,,,160,1,0,235294,,,,,
509400,note_off,,,,,120,0,2,,,,0,48,64
509400,note_on,,,,,0,0,2,,,,0,36,121
509520,note_on,,,,,0,0,2,,,,0,43,118
509520,note_off,,,,,120,0,2,,,,0,36,64
509520,note_off,,,,,120,0,1,,,,0,91,64
509600,set_tempo,,,,,200,1,0,231660,,,,,
509640,note_off,,,,,120,0,2,,,,0,43,64
509640,note_on,,,,,120,0,1,,,,0,91,113
509640,note_on,,,,,0,0,2,,,,0,48,116
509760,note_off,,,,,120,0,1,,,,0,91,64
509760,note_on,,,,,0,0,1,,,,0,87,113
509760,note_off,,,,,120,0,2,,,,0,48,64
509760,note_on,,,,,0,0,2,,,,0,36,114
509760,set_tempo,,,,,160,1,0,230769,,,,,
509880,set_tempo,,,,,120,1,0,229885,,,,,
509880,note_off,,,,,120,0,1,,,,0,87,64
509880,note_on,,,,,0,0,2,,,,0,43,111
509880,note_off,,,,,120,0,2,,,,0,36,64
510000,note_on,,,,,120,0,1,,,,0,87,109
510000,note_off,,,,,120,0,2,,,,0,43,64
510000,note_on,,,,,0,0,2,,,,0,48,110
510120,set_tempo,,,,,240,1,0,227273,,,,,
510120,note_on,,,,,0,0,2,,,,0,36,108
510120,note_off,,,,,120,0,2,,,,0,48,64
510120,note_off,,,,,120,0,1,,,,0,87,64
510120,note_on,,,,,0,0,1,,,,0,86,106
510240,note_off,,,,,120,0,1,,,,0,86,64
510240,note_off,,,,,120,0,2,,,,0,36,64
510240,note_on,,,,,0,0,2,,,,0,43,103
510360,note_on,,,,,0,0,2,,,,0,47,100
510360,note_off,,,,,120,0,2,,,,0,43,64
510360,note_on,,,,,120,0,1,,,,0,86,105
510480,note_on,,,,,0,0,2,,,,0,36,110
510480,note_off,,,,,120,0,2,,,,0,47,64
510480,note_off,,,,,120,0,1,,,,0,86,64
510480,note_on,,,,,0,0,1,,,,0,84,109
510480,control_change,,,,,0,0,1,,64,96,0,,
510600,note_off,,,,,120,0,2,,,,0,36,64
510600,note_on,,,,,0,0,2,,,,0,43,94
510600,note_off,,,,,120,0,1,,,,0,84,64
510720,note_on,,,,,120,0,1,,,,0,84,95
510720,note_off,,,,,120,0,2,,,,0,43,64
510720,note_on,,,,,0,0,2,,,,0,48,91
510840,note_off,,,,,120,0,1,,,,0,84,64
510840,control_change,,,,,0,0,1,,64,0,0,,
510840,note_on,,,,,0,0,1,,,,0,79,93
510840,note_off,,,,,120,0,2,,,,0,48,64
510840,note_on,,,,,0,0,2,,,,0,36,89
510960,note_off,,,,,120,0,1,,,,0,79,64
510960,note_off,,,,,120,0,2,,,,0,36,64
510960,note_on,,,,,0,0,2,,,,0,43,87
511080,note_on,,,,,120,0,1,,,,0,79,91
511080,note_off,,,,,120,0,2,,,,0,43,64
511080,note_on,,,,,0,0,2,,,,0,48,86
511200,note_on,,,,,0,0,2,,,,0,36,84
511200,note_on,,,,,0,0,1,,,,0,75,89
511200,note_off,,,,,120,0,1,,,,0,79,64
511200,note_off,,,,,120,0,2,,,,0,48,64
511320,note_off,,,,,120,0,2,,,,0,36,64
511320,note_on,,,,,0,0,2,,,,0,43,83
511320,note_off,,,,,120,0,1,,,,0,75,64
511440,note_on,,,,,120,0,1,,,,0,75,82
511440,note_off,,,,,120,0,2,,,,0,43,64
511440,note_on,,,,,0,0,2,,,,0,48,82
511560,note_off,,,,,120,0,2,,,,0,48,64
511560,note_off,,,,,120,0,1,,,,0,75,64
511560,note_on,,,,,0,0,2,,,,0,36,81
511560,note_on,,,,,0,0,1,,,,0,74,76
511680,note_off,,,,,120,0,1,,,,0,74,64
511680,note_off,,,,,120,0,2,,,,0,36,64
511680,note_on,,,,,0,0,2,,,,0,43,80
511800,note_off,,,,,120,0,2,,,,0,43,64
511800,note_on,,,,,120,0,1,,,,0,74,75
511800,note_on,,,,,0,0,2,,,,0,47,78
511920,note_off,,,,,120,0,2,,,,0,47,64
511920,note_on,,,,,0,0,2,,,,0,36,90
511920,control_change,,,,,0,0,1,,64,95,0,,
511920,note_on,,,,,0,0,1,,,,0,72,86
511920,note_off,,,,,120,0,1,,,,0,74,64
512040,note_off,,,,,120,0,2,,,,0,36,64
512040,note_on,,,,,0,0,2,,,,0,43,74
512040,note_off,,,,,120,0,1,,,,0,72,64
512160,note_on,,,,,0,0,2,,,,0,48,74
512160,note_off,,,,,120,0,2,,,,0,43,64
512160,note_on,,,,,120,0,1,,,,0,72,67
512280,note_on,,,,,0,0,1,,,,0,67,65
512280,control_change,,,,,0,0,1,,64,0,0,,
512280,note_off,,,,,120,0,1,,,,0,72,64
512280,note_off,,,,,120,0,2,,,,0,48,64
512280,note_on,,,,,0,0,2,,,,0,36,73
512400,note_off,,,,,120,0,2,,,,0,36,64
512400,note_off,,,,,120,0,1,,,,0,67,64
512400,note_on,,,,,0,0,2,,,,0,43,71
512520,note_on,,,,,120,0,1,,,,0,67,64
512520,note_off,,,,,120,0,2,,,,0,43,64
512520,note_on,,,,,0,0,2,,,,0,48,69
512640,note_off,,,,,120,0,2,,,,0,48,64
512640,note_off,,,,,120,0,1,,,,0,67,64
512640,note_on,,,,,0,0,1,,,,0,63,58
512640,note_on,,,,,0,0,2,,,,0,36,67
512760,note_off,,,,,120,0,1,,,,0,63,64
512760,note_off,,,,,120,0,2,,,,0,36,64
512760,note_on,,,,,0,0,2,,,,0,43,67
512880,note_on,,,,,120,0,1,,,,0,63,57
512880,note_on,,,,,0,0,2,,,,0,48,65
512880,note_off,,,,,120,0,2,,,,0,43,64
513000,note_on,,,,,0,0,2,,,,0,36,63
513000,note_off,,,,,120,0,2,,,,0,48,64
513000,note_on,,,,,0,0,1,,,,0,62,55
513000,note_off,,,,,120,0,1,,,,0,63,64
513120,note_off,,,,,120,0,2,,,,0,36,64
513120,note_on,,,,,0,0,2,,,,0,43,60
513120,note_off,,,,,120,0,1,,,,0,62,64
513240,note_on,,,,,0,0,2,,,,0,47,58
513240,note_off,,,,,120,0,2,,,,0,43,64
513240,note_on,,,,,120,0,1,,,,0,62,54
513360,note_off,,,,,120,0,2,,,,0,47,64
513360,note_on,,,,,0,0,2,,,,0,36,69
513360,note_off,,,,,120,0,1,,,,0,62,64
513360,control_change,,,,,0,0,1,,64,96,0,,
513360,note_on,,,,,0,0,1,,,,0,60,63
513480,note_off,,,,,120,0,2,,,,0,36,64
513480,note_on,,,,,0,0,2,,,,0,43,54
513480,note_off,,,,,120,0,1,,,,0,60,64
513600,note_off,,,,,120,0,2,,,,0,43,64
513600,note_on,,,,,0,0,2,,,,0,48,51
513600,note_on,,,,,120,0,1,,,,0,60,53
513720,note_off,,,,,120,0,1,,,,0,60,64
513720,note_on,,,,,0,0,1,,,,0,55,49
513720,note_on,,,,,0,0,2,,,,0,36,49
513720,note_off,,,,,120,0,2,,,,0,48,64
513726,control_change,,,,,6,0,1,,64,0,0,,
513840,note_off,,,,,120,0,2,,,,0,36,64
513840,note_on,,,,,0,0,2,,,,0,43,48
513840,note_off,,,,,114,0,1,,,,0,55,64
513960,note_on,,,,,120,0,1,,,,0,55,48
513960,note_off,,,,,120,0,2,,,,0,43,64
513960,note_on,,,,,0,0,2,,,,0,48,46
514080,note_on,,,,,0,0,1,,,,0,51,46
514080,note_off,,,,,120,0,1,,,,0,55,64
514080,note_off,,,,,120,0,2,,,,0,48,64
514080,note_on,,,,,0,0,2,,,,0,36,42
514200,note_on,,,,,0,0,2,,,,0,43,40
514200,note_off,,,,,120,0,2,,,,0,36,64
514200,note_off,,,,,120,0,1,,,,0,51,64
514320,note_on,,,,,0,0,2,,,,0,48,38
514320,note_on,,,,,120,0,1,,,,0,51,45
514320,note_off,,,,,120,0,2,,,,0,43,64
514440,note_off,,,,,120,0,1,,,,0,51,64
514440,note_off,,,,,120,0,2,,,,0,48,64
514440,note_on,,,,,0,0,2,,,,0,36,36
514440,note_on,,,,,0,0,1,,,,0,50,45
514560,note_off,,,,,120,0,2,,,,0,36,64
514560,note_on,,,,,0,0,2,,,,0,43,33
514560,note_off,,,,,120,0,1,,,,0,50,64
514680,note_on,,,,,120,0,1,,,,0,50,42
514680,note_off,,,,,120,0,2,,,,0,43,64
514680,note_on,,,,,0,0,2,,,,0,47,32
514800,note_off,,,,,120,0,1,,,,0,50,64
514800,note_off,,,,,120,0,2,,,,0,47,64
514800,note_on,,,,,0,0,2,,,,0,36,38
514800,note_on,,,,,0,0,1,,,,0,48,47
514920,note_off,,,,,120,0,2,,,,0,36,64
514920,note_off,,,,,120,0,1,,,,0,48,64
515040,note_on,,,,,120,0,2,,,,0,36,35
515040,note_on,,,,,120,0,1,,,,0,48,37
515160,note_on,,,,,0,0,1,,,,0,47,38
515160,control_change,,,,,0,0,1,,64,94,0,,
515160,note_off,,,,,120,0,1,,,,0,48,64
515160,note_on,,,,,0,0,1,,,,0,55,38
515160,note_on,,,,,0,0,2,,,,0,31,37
515160,note_off,,,,,120,0,2,,,,0,36,64
515160,note_on,,,,,0,0,1,,,,0,50,38
515280,note_off,,,,,120,0,2,,,,0,31,64
515280,note_off,,,,,0,0,1,,,,0,55,64
515280,note_off,,,,,0,0,1,,,,0,50,64
515280,note_off,,,,,120,0,1,,,,0,47,64
515400,note_on,,,,,120,0,2,,,,0,31,42
515400,note_on,,,,,0,0,1,,,,0,47,40
515400,note_on,,,,,0,0,1,,,,0,50,40
515400,note_on,,,,,120,0,1,,,,0,55,40
515512,control_change,,,,,112,0,1,,64,0,0,,
515520,note_on,,,,,0,0,2,,,,0,36,43
515520,note_off,,,,,120,0,2,,,,0,31,64
515520,note_off,,,,,0,0,1,,,,0,50,64
515520,note_off,,,,,0,0,1,,,,0,55,64
515520,note_on,,,,,0,0,1,,,,0,48,41
515520,note_off,,,,,8,0,1,,,,0,47,64
515640,note_off,,,,,120,0,1,,,,0,48,64
515640,note_off,,,,,120,0,2,,,,0,36,64
515760,note_on,,,,,120,0,1,,,,0,48,30
515760,note_on,,,,,120,0,2,,,,0,36,30
515880,note_off,,,,,120,0,2,,,,0,36,64
515880,note_off,,,,,120,0,1,,,,0,48,64
515880,note_on,,,,,0,0,1,,,,0,55,31
515880,note_on,,,,,0,0,1,,,,0,50,31
515880,control_change,,,,,0,0,1,,64,95,0,,
515880,note_on,,,,,0,0,1,,,,0,47,31
515880,note_on,,,,,0,0,2,,,,0,31,31
516000,note_off,,,,,120,0,2,,,,0,31,64
516000,note_off,,,,,120,0,1,,,,0,47,64
516000,note_off,,,,,0,0,1,,,,0,50,64
516000,note_off,,,,,0,0,1,,,,0,55,64
516120,note_on,,,,,120,0,1,,,,0,55,34
516120,note_on,,,,,0,0,1,,,,0,50,34
516120,note_on,,,,,0,0,1,,,,0,47,34
516120,note_on,,,,,120,0,2,,,,0,31,35
516226,control_change,,,,,106,0,1,,64,0,0,,
516240,note_on,,,,,0,0,2,,,,0,36,36
516240,note_on,,,,,0,0,1,,,,0,48,37
516240,note_off,,,,,0,0,1,,,,0,55,64
516240,note_off,,,,,0,0,1,,,,0,50,64
516240,note_off,,,,,14,0,1,,,,0,47,64
516240,note_off,,,,,120,0,2,,,,0,31,64
516480,note_off,,,,,240,0,2,,,,0,36,64
516480,note_off,,,,,240,0,1,,,,0,48,64
516960,note_on,,,,,480,0,2,,,,0,43,127
516960,note_on,,,,,0,0,2,,,,0,47,127
516960,note_on,,,,,0,0,2,,,,0,50,127
516960,note_on,,,,,0,0,2,,,,0,55,127
516960,note_on,,,,,0,0,1,,,,0,71,127
516960,note_on,,,,,480,0,1,,,,0,74,127
516960,set_tempo,,,,,6840,1,0,281690,,,,,
516960,note_on,,,,,0,0,1,,,,0,83,127
516960,control_change,,,,,0,0,1,,64,96,0,,
516960,note_on,,,,,0,0,1,,,,0,79,127
517200,note_off,,,,,0,0,1,,,,0,79,64
517200,note_off,,,,,240,0,1,,,,0,71,64
517200,note_off,,,,,0,0,1,,,,0,74,64
517200,note_off,,,,,0,0,2,,,,0,47,64
517200,note_off,,,,,240,0,2,,,,0,55,64
517200,note_off,,,,,0,0,2,,,,0,50,64
517200,note_off,,,,,0,0,1,,,,0,83,64
517200,note_off,,,,,0,0,2,,,,0,43,64
517206,control_change,,,,,6,0,1,,64,0,0,,
517680,note_on,,,,,0,0,2,,,,0,60,127
517680,note_on,,,,,0,0,2,,,,0,55,127
517680,note_on,,,,,0,0,2,,,,0,51,127
517680,note_on,,,,,0,0,1,,,,0,72,127
517680,note_on,,,,,0,0,1,,,,0,75,127
517680,control_change,,,,,0,0,1,,64,96,0,,
517680,note_on,,,,,474,0,1,,,,0,84,127
517680,note_on,,,,,480,0,2,,,,0,48,127
517680,note_on,,,,,0,0,1,,,,0,79,127
517700,set_tempo,,,,,740,1,0,357143,,,,,
517700,end_of_track,,,,,0,1,0,,,,,,
517920,note_off,,,,,0,0,2,,,,0,48,64
517920,end_of_track,,,,,0,1,2,,,,,,
517920,note_off,,,,,0,0,2,,,,0,55,64
517920,note_off,,,,,240,0,2,,,,0,60,64
517920,note_off,,,,,240,0,1,,,,0,72,64
517920,note_off,,,,,0,0,1,,,,0,75,64
517920,note_off,,,,,0,0,1,,,,0,79,64
517920,note_off,,,,,0,0,1,,,,0,84,64
517920,note_off,,,,,0,0,2,,,,0,51,64
518040,control_change,,,,,120,0,1,,64,0,0,,
519840,end_of_track,,,,,0,1,1,,,,,,
519840,control_change,,,,,1800,0,1,,64,0,0,,
