tick,type,time,meta,track,frame_rate,hours,minutes,seconds,frames,sub_frames,numerator,denominator,clocks_per_click,notated_32nd_notes_per_beat,key,tempo,port,program,channel,control,value,note,velocity
0,track_name,0,1,0,,,,,,,,,,,,,,,,,,,
0,midi_port,0,1,3,,,,,,,,,,,,,0,,,,,,
0,note_on,0,0,2,,,,,,,,,,,,,,,0,,,37,31
0,control_change,0,0,2,,,,,,,,,,,,,,,0,7,100,,
0,program_change,0,0,2,,,,,,,,,,,,,,1,0,,,,
0,track_name,0,1,2,,,,,,,,,,,,,,,,,,,
0,midi_port,0,1,2,,,,,,,,,,,,,0,,,,,,
0,track_name,0,1,3,,,,,,,,,,,,,,,,,,,
0,midi_port,0,1,10,,,,,,,,,,,,,0,,,,,,
0,note_on,0,0,1,,,,,,,,,,,,,,,0,,,68,47
0,note_on,0,0,1,,,,,,,,,,,,,,,0,,,64,39
0,control_change,0,0,1,,,,,,,,,,,,,,,0,91,127,,
0,control_change,0,0,1,,,,,,,,,,,,,,,0,91,127,,
0,control_change,0,0,1,,,,,,,,,,,,,,,0,7,100,,
0,program_change,0,0,1,,,,,,,,,,,,,,1,0,,,,
0,text,0,1,1,,,,,,,,,,,,,,,,,,,
0,track_name,0,1,1,,,,,,,,,,,,,,,,,,,
0,end_of_track,0,1,3,,,,,,,,,,,,,,,,,,,
0,track_name,0,1,4,,,,,,,,,,,,,,,,,,,
0,end_of_track,0,1,9,,,,,,,,,,,,,,,,,,,
0,midi_port,0,1,9,,,,,,,,,,,,,0,,,,,,
0,end_of_track,0,1,8,,,,,,,,,,,,,,,,,,,
0,midi_port,0,1,8,,,,,,,,,,,,,0,,,,,,
0,end_of_track,0,1,7,,,,,,,,,,,,,,,,,,,
0,track_name,0,1,7,,,,,,,,,,,,,,,,,,,
0,midi_port,0,1,4,,,,,,,,,,,,,0,,,,,,
0,midi_port,0,1,7,,,,,,,,,,,,,0,,,,,,
0,track_name,0,1,6,,,,,,,,,,,,,,,,,,,
0,midi_port,0,1,6,,,,,,,,,,,,,0,,,,,,
0,end_of_track,0,1,5,,,,,,,,,,,,,,,,,,,
0,track_name,0,1,5,,,,,,,,,,,,,,,,,,,
0,midi_port,0,1,5,,,,,,,,,,,,,0,,,,,,
0,end_of_track,0,1,4,,,,,,,,,,,,,,,,,,,
0,end_of_track,0,1,6,,,,,,,,,,,,,,,,,,,
0,midi_port,0,1,1,,,,,,,,,,,,,0,,,,,,
0,end_of_track,0,1,10,,,,,,,,,,,,,,,,,,,
0,text,0,1,0,,,,,,,,,,,,,,,,,,,
0,text,0,1,0,,,,,,,,,,,,,,,,,,,
0,text,0,1,0,,,,,,,,,,,,,,,,,,,
0,smpte_offset,0,1,0,25,32,0,3,0,0,,,,,,,,,,,,,
0,time_signature,0,1,0,,,,,,,3,4,24,8,,,,,,,,,
0,key_signature,0,1,0,,,,,,,,,,,E,,,,,,,,
0,set_tempo,0,1,0,,,,,,,,,,,,1232792,,,,,,,
0,text,0,1,0,,,,,,,,,,,,,,,,,,,
0,text,0,1,0,,,,,,,,,,,,,,,,,,,
0,copyright,0,1,0,,,,,,,,,,,,,,,,,,,
0,text,0,1,0,,,,,,,,,,,,,,,,,,,
14,control_change,14,0,2,,,,,,,,,,,,,,,0,64,127,,
240,note_on,226,0,2,,,,,,,,,,,,,,,0,,,37,0
420,note_on,180,0,2,,,,,,,,,,,,,,,0,,,49,27
480,note_on,0,0,2,,,,,,,,,,,,,,,0,,,61,32
480,note_on,60,0,2,,,,,,,,,,,,,,,0,,,49,0
720,note_on,240,0,2,,,,,,,,,,,,,,,0,,,61,0
720,set_tempo,720,1,0,,,,,,,,,,,,1290045,,,,,,,
720,note_on,720,0,1,,,,,,,,,,,,,,,0,,,73,31
960,note_on,0,0,1,,,,,,,,,,,,,,,0,,,64,35
960,note_on,0,0,1,,,,,,,,,,,,,,,0,,,68,41
960,note_on,240,0,1,,,,,,,,,,,,,,,0,,,73,0
960,note_on,0,0,1,,,,,,,,,,,,,,,0,,,68,0
960,note_on,0,0,1,,,,,,,,,,,,,,,0,,,64,0
988,control_change,268,0,2,,,,,,,,,,,,,,,0,64,0,,
1016,control_change,28,0,2,,,,,,,,,,,,,,,0,64,127,,
1320,note_on,0,0,1,,,,,,,,,,,,,,,0,,,64,0
1320,note_on,360,0,1,,,,,,,,,,,,,,,0,,,68,0
1320,note_on,0,0,1,,,,,,,,,,,,,,,0,,,66,40
1320,note_on,0,0,1,,,,,,,,,,,,,,,0,,,63,34
1440,note_on,0,0,1,,,,,,,,,,,,,,,0,,,66,0
1440,note_on,0,0,1,,,,,,,,,,,,,,,0,,,63,41
1440,note_on,0,0,1,,,,,,,,,,,,,,,0,,,66,49
1440,note_on,120,0,1,,,,,,,,,,,,,,,0,,,63,0
1440,set_tempo,720,1,0,,,,,,,,,,,,1232792,,,,,,,
1440,note_on,424,0,2,,,,,,,,,,,,,,,0,,,37,31
1468,control_change,28,0,2,,,,,,,,,,,,,,,0,64,0,,
1514,control_change,46,0,2,,,,,,,,,,,,,,,0,64,127,,
1680,note_on,166,0,2,,,,,,,,,,,,,,,0,,,37,0
1860,note_on,180,0,2,,,,,,,,,,,,,,,0,,,49,27
1920,note_on,0,0,2,,,,,,,,,,,,,,,0,,,61,32
1920,note_on,60,0,2,,,,,,,,,,,,,,,0,,,49,0
2160,note_on,240,0,2,,,,,,,,,,,,,,,0,,,61,0
2160,note_on,720,0,1,,,,,,,,,,,,,,,0,,,73,31
2160,set_tempo,720,1,0,,,,,,,,,,,,1278500,,,,,,,
2400,note_on,0,0,1,,,,,,,,,,,,,,,0,,,63,37
2400,note_on,0,0,1,,,,,,,,,,,,,,,0,,,66,44
2400,note_on,0,0,1,,,,,,,,,,,,,,,0,,,63,0
2400,note_on,0,0,1,,,,,,,,,,,,,,,0,,,66,0
2400,note_on,240,0,1,,,,,,,,,,,,,,,0,,,73,0
2414,control_change,254,0,2,,,,,,,,,,,,,,,0,64,0,,
2471,control_change,57,0,2,,,,,,,,,,,,,,,0,64,127,,
2880,set_tempo,720,1,0,,,,,,,,,,,,1232792,,,,,,,
2880,note_on,0,0,1,,,,,,,,,,,,,,,0,,,66,41
2880,note_on,480,0,1,,,,,,,,,,,,,,,0,,,63,0
2880,note_on,409,0,2,,,,,,,,,,,,,,,0,,,37,31
2880,note_on,0,0,1,,,,,,,,,,,,,,,0,,,69,49
2880,note_on,0,0,1,,,,,,,,,,,,,,,0,,,66,0
2908,control_change,28,0,2,,,,,,,,,,,,,,,0,64,0,,
2954,control_change,46,0,2,,,,,,,,,,,,,,,0,64,127,,
3120,note_on,166,0,2,,,,,,,,,,,,,,,0,,,37,0
3300,note_on,180,0,2,,,,,,,,,,,,,,,0,,,49,27
3360,note_on,0,0,2,,,,,,,,,,,,,,,0,,,61,32
3360,note_on,60,0,2,,,,,,,,,,,,,,,0,,,49,0
3600,note_on,720,0,1,,,,,,,,,,,,,,,0,,,73,33
3600,set_tempo,720,1,0,,,,,,,,,,,,1278500,,,,,,,
3600,note_on,240,0,2,,,,,,,,,,,,,,,0,,,61,0
3840,note_on,240,0,1,,,,,,,,,,,,,,,0,,,73,0
3840,note_on,0,0,1,,,,,,,,,,,,,,,0,,,66,0
3840,note_on,0,0,1,,,,,,,,,,,,,,,0,,,69,0
3840,note_on,0,0,1,,,,,,,,,,,,,,,0,,,69,39
3840,note_on,0,0,1,,,,,,,,,,,,,,,0,,,66,33
3854,control_change,254,0,2,,,,,,,,,,,,,,,0,64,0,,
3896,control_change,42,0,2,,,,,,,,,,,,,,,0,64,127,,
4080,note_on,0,0,1,,,,,,,,,,,,,,,0,,,68,36
4080,note_on,0,0,1,,,,,,,,,,,,,,,0,,,66,0
4080,note_on,0,0,1,,,,,,,,,,,,,,,0,,,64,30
4080,note_on,240,0,1,,,,,,,,,,,,,,,0,,,69,0
4200,note_on,120,0,1,,,,,,,,,,,,,,,0,,,64,0
4200,note_on,0,0,1,,,,,,,,,,,,,,,0,,,68,0
4200,note_on,0,0,1,,,,,,,,,,,,,,,0,,,63,28
4200,note_on,0,0,1,,,,,,,,,,,,,,,0,,,66,34
4320,set_tempo,720,1,0,,,,,,,,,,,,1232792,,,,,,,
4320,note_on,0,0,2,,,,,,,,,,,,,,,0,,,37,31
4320,note_on,0,0,1,,,,,,,,,,,,,,,0,,,64,39
4320,note_on,0,0,1,,,,,,,,,,,,,,,0,,,68,47
4320,control_change,424,0,2,,,,,,,,,,,,,,,0,64,0,,
4320,note_on,120,0,1,,,,,,,,,,,,,,,0,,,66,0
4320,note_on,0,0,1,,,,,,,,,,,,,,,0,,,63,0
4373,control_change,53,0,2,,,,,,,,,,,,,,,0,64,127,,
4560,note_on,187,0,2,,,,,,,,,,,,,,,0,,,37,0
4740,note_on,180,0,2,,,,,,,,,,,,,,,0,,,49,27
4800,note_on,0,0,2,,,,,,,,,,,,,,,0,,,61,32
4800,note_on,60,0,2,,,,,,,,,,,,,,,0,,,49,0
5040,note_on,240,0,2,,,,,,,,,,,,,,,0,,,61,0
5040,set_tempo,720,1,0,,,,,,,,,,,,1278500,,,,,,,
5040,note_on,720,0,1,,,,,,,,,,,,,,,0,,,73,33
5280,note_on,0,0,1,,,,,,,,,,,,,,,0,,,68,0
5280,note_on,240,0,1,,,,,,,,,,,,,,,0,,,73,0
5280,note_on,0,0,1,,,,,,,,,,,,,,,0,,,64,35
5280,note_on,0,0,1,,,,,,,,,,,,,,,0,,,68,41
5280,note_on,0,0,1,,,,,,,,,,,,,,,0,,,64,0
5308,control_change,268,0,2,,,,,,,,,,,,,,,0,64,0,,
5336,control_change,28,0,2,,,,,,,,,,,,,,,0,64,127,,
5760,note_on,0,0,1,,,,,,,,,,,,,,,0,,,71,49
5760,note_on,480,0,1,,,,,,,,,,,,,,,0,,,68,0
5760,note_on,0,0,1,,,,,,,,,,,,,,,0,,,65,41
5760,note_on,0,0,1,,,,,,,,,,,,,,,0,,,64,0
5760,set_tempo,720,1,0,,,,,,,,,,,,1232792,,,,,,,
5760,note_on,424,0,2,,,,,,,,,,,,,,,0,,,37,31
5788,control_change,28,0,2,,,,,,,,,,,,,,,0,64,0,,
5834,control_change,46,0,2,,,,,,,,,,,,,,,0,64,127,,
6000,note_on,166,0,2,,,,,,,,,,,,,,,0,,,37,0
6180,note_on,180,0,2,,,,,,,,,,,,,,,0,,,49,27
6240,note_on,0,0,2,,,,,,,,,,,,,,,0,,,61,32
6240,note_on,60,0,2,,,,,,,,,,,,,,,0,,,49,0
6480,set_tempo,720,1,0,,,,,,,,,,,,1278500,,,,,,,
6480,note_on,720,0,1,,,,,,,,,,,,,,,0,,,73,41
6480,note_on,240,0,2,,,,,,,,,,,,,,,0,,,61,0
6720,set_tempo,240,1,0,,,,,,,,,,,,1223990,,,,,,,
6720,note_on,240,0,1,,,,,,,,,,,,,,,0,,,73,0
6720,note_on,0,0,1,,,,,,,,,,,,,,,0,,,71,0
6720,note_on,0,0,1,,,,,,,,,,,,,,,0,,,65,0
6720,note_on,0,0,1,,,,,,,,,,,,,,,0,,,71,39
6720,note_on,0,0,1,,,,,,,,,,,,,,,0,,,65,33
6734,control_change,254,0,2,,,,,,,,,,,,,,,0,64,0,,
6776,control_change,42,0,2,,,,,,,,,,,,,,,0,64,127,,
6840,note_on,0,0,1,,,,,,,,,,,,,,,0,,,68,33
6840,note_on,120,0,1,,,,,,,,,,,,,,,0,,,65,0
6960,note_on,120,0,1,,,,,,,,,,,,,,,0,,,68,0
6960,note_on,0,0,1,,,,,,,,,,,,,,,0,,,71,0
6960,note_on,0,0,1,,,,,,,,,,,,,,,0,,,69,36
6960,note_on,0,0,1,,,,,,,,,,,,,,,0,,,66,30
7080,note_on,120,0,1,,,,,,,,,,,,,,,0,,,66,0
7080,note_on,0,0,1,,,,,,,,,,,,,,,0,,,69,0
7080,set_tempo,360,1,0,,,,,,,,,,,,1313198,,,,,,,
7080,note_on,0,0,1,,,,,,,,,,,,,,,0,,,68,34
7080,note_on,0,0,1,,,,,,,,,,,,,,,0,,,65,28
7200,note_on,424,0,2,,,,,,,,,,,,,,,0,,,37,31
7200,set_tempo,120,1,0,,,,,,,,,,,,1232792,,,,,,,
7200,note_on,0,0,1,,,,,,,,,,,,,,,0,,,69,49
7200,note_on,0,0,1,,,,,,,,,,,,,,,0,,,66,41
7200,note_on,0,0,1,,,,,,,,,,,,,,,0,,,68,0
7200,note_on,120,0,1,,,,,,,,,,,,,,,0,,,65,0
7228,control_change,28,0,2,,,,,,,,,,,,,,,0,64,0,,
7274,control_change,46,0,2,,,,,,,,,,,,,,,0,64,127,,
7440,note_on,166,0,2,,,,,,,,,,,,,,,0,,,37,0
7620,note_on,180,0,2,,,,,,,,,,,,,,,0,,,49,27
7680,note_on,0,0,2,,,,,,,,,,,,,,,0,,,61,32
7680,note_on,60,0,2,,,,,,,,,,,,,,,0,,,49,0
7920,note_on,0,0,1,,,,,,,,,,,,,,,0,,,66,0
7920,note_on,240,0,2,,,,,,,,,,,,,,,0,,,61,0
7920,note_on,0,0,1,,,,,,,,,,,,,,,0,,,73,41
7920,note_on,0,0,1,,,,,,,,,,,,,,,0,,,69,34
7920,set_tempo,720,1,0,,,,,,,,,,,,1278500,,,,,,,
7920,note_on,720,0,1,,,,,,,,,,,,,,,0,,,69,0
7920,note_on,0,0,1,,,,,,,,,,,,,,,0,,,66,28
8160,note_on,240,0,1,,,,,,,,,,,,,,,0,,,69,0
8160,note_on,0,0,1,,,,,,,,,,,,,,,0,,,66,0
8160,note_on,0,0,1,,,,,,,,,,,,,,,0,,,73,0
8160,note_on,0,0,1,,,,,,,,,,,,,,,0,,,66,40
8160,note_on,0,0,1,,,,,,,,,,,,,,,0,,,69,48
8174,control_change,254,0,2,,,,,,,,,,,,,,,0,64,0,,
8216,control_change,42,0,2,,,,,,,,,,,,,,,0,64,127,,
8400,note_on,0,0,1,,,,,,,,,,,,,,,0,,,66,40
8400,note_on,0,0,1,,,,,,,,,,,,,,,0,,,69,49
8400,note_on,0,0,1,,,,,,,,,,,,,,,0,,,66,0
8400,set_tempo,480,1,0,,,,,,,,,,,,1353485,,,,,,,
8400,note_on,240,0,1,,,,,,,,,,,,,,,0,,,69,0
8640,note_on,0,0,1,,,,,,,,,,,,,,,0,,,69,49
8640,note_on,0,0,1,,,,,,,,,,,,,,,0,,,73,58
8640,note_on,240,0,1,,,,,,,,,,,,,,,0,,,66,0
8640,note_on,0,0,1,,,,,,,,,,,,,,,0,,,69,0
8640,set_tempo,240,1,0,,,,,,,,,,,,1232792,,,,,,,
8640,note_on,424,0,2,,,,,,,,,,,,,,,0,,,37,37
8668,control_change,28,0,2,,,,,,,,,,,,,,,0,64,0,,
8714,control_change,46,0,2,,,,,,,,,,,,,,,0,64,127,,
8880,note_on,166,0,2,,,,,,,,,,,,,,,0,,,37,0
9060,note_on,180,0,2,,,,,,,,,,,,,,,0,,,49,30
9120,note_on,60,0,2,,,,,,,,,,,,,,,0,,,49,0
9120,note_on,0,0,2,,,,,,,,,,,,,,,0,,,61,36
9360,note_on,720,0,1,,,,,,,,,,,,,,,0,,,73,45
9360,note_on,240,0,2,,,,,,,,,,,,,,,0,,,61,0
9400,set_tempo,760,1,0,,,,,,,,,,,,1266892,,,,,,,
9600,note_on,0,0,1,,,,,,,,,,,,,,,0,,,73,47
9600,note_on,0,0,1,,,,,,,,,,,,,,,0,,,73,0
9600,note_on,0,0,1,,,,,,,,,,,,,,,0,,,69,39
9600,note_on,0,0,1,,,,,,,,,,,,,,,0,,,69,0
9600,note_on,240,0,1,,,,,,,,,,,,,,,0,,,73,0
9614,control_change,254,0,2,,,,,,,,,,,,,,,0,64,0,,
9656,control_change,42,0,2,,,,,,,,,,,,,,,0,64,127,,
9960,note_on,0,0,1,,,,,,,,,,,,,,,0,,,66,28
9960,note_on,0,0,1,,,,,,,,,,,,,,,0,,,69,34
9960,note_on,0,0,1,,,,,,,,,,,,,,,0,,,69,0
9960,note_on,360,0,1,,,,,,,,,,,,,,,0,,,73,0
9960,set_tempo,560,1,0,,,,,,,,,,,,1394700,,,,,,,
10080,note_on,424,0,2,,,,,,,,,,,,,,,0,,,37,31
10080,note_on,0,0,1,,,,,,,,,,,,,,,0,,,68,44
10080,note_on,0,0,1,,,,,,,,,,,,,,,0,,,64,36
10080,note_on,120,0,1,,,,,,,,,,,,,,,0,,,66,0
10080,set_tempo,120,1,0,,,,,,,,,,,,1232792,,,,,,,
10080,note_on,0,0,1,,,,,,,,,,,,,,,0,,,69,0
10108,control_change,28,0,2,,,,,,,,,,,,,,,0,64,0,,
10154,control_change,46,0,2,,,,,,,,,,,,,,,0,64,127,,
10320,note_on,166,0,2,,,,,,,,,,,,,,,0,,,37,0
10500,note_on,180,0,2,,,,,,,,,,,,,,,0,,,49,27
10560,note_on,60,0,2,,,,,,,,,,,,,,,0,,,49,0
10560,note_on,0,0,2,,,,,,,,,,,,,,,0,,,61,32
10800,note_on,720,0,1,,,,,,,,,,,,,,,0,,,73,33
10800,note_on,240,0,2,,,,,,,,,,,,,,,0,,,61,0
10800,set_tempo,720,1,0,,,,,,,,,,,,1278500,,,,,,,
11040,note_on,240,0,1,,,,,,,,,,,,,,,0,,,73,0
11054,control_change,254,0,2,,,,,,,,,,,,,,,0,64,0,,
11096,control_change,42,0,2,,,,,,,,,,,,,,,0,64,127,,
11280,note_on,240,0,1,,,,,,,,,,,,,,,0,,,68,0
11280,note_on,0,0,1,,,,,,,,,,,,,,,0,,,68,49
11280,note_on,0,0,1,,,,,,,,,,,,,,,0,,,64,40
11280,note_on,0,0,1,,,,,,,,,,,,,,,0,,,64,0
11520,note_on,424,0,2,,,,,,,,,,,,,,,0,,,32,34
11520,note_on,0,0,1,,,,,,,,,,,,,,,0,,,73,59
11520,note_on,0,0,1,,,,,,,,,,,,,,,0,,,69,50
11520,note_on,0,0,1,,,,,,,,,,,,,,,0,,,64,50
11520,set_tempo,720,1,0,,,,,,,,,,,,1232792,,,,,,,
11520,note_on,0,0,1,,,,,,,,,,,,,,,0,,,64,0
11520,note_on,0,0,2,,,,,,,,,,,,,,,0,,,44,40
11520,note_on,240,0,1,,,,,,,,,,,,,,,0,,,68,0
11548,control_change,28,0,2,,,,,,,,,,,,,,,0,64,0,,
11594,control_change,46,0,2,,,,,,,,,,,,,,,0,64,127,,
11760,note_on,166,0,2,,,,,,,,,,,,,,,0,,,44,0
11760,note_on,0,0,2,,,,,,,,,,,,,,,0,,,32,0
11880,note_on,0,0,1,,,,,,,,,,,,,,,0,,,68,44
11880,note_on,0,0,1,,,,,,,,,,,,,,,0,,,63,44
11880,note_on,0,0,1,,,,,,,,,,,,,,,0,,,72,52
11880,note_on,0,0,1,,,,,,,,,,,,,,,0,,,69,0
11880,note_on,0,0,1,,,,,,,,,,,,,,,0,,,64,0
11880,note_on,360,0,1,,,,,,,,,,,,,,,0,,,73,0
11940,note_on,180,0,2,,,,,,,,,,,,,,,0,,,44,42
12000,note_on,120,0,1,,,,,,,,,,,,,,,0,,,68,0
12000,note_on,0,0,1,,,,,,,,,,,,,,,0,,,63,0
12000,note_on,0,0,1,,,,,,,,,,,,,,,0,,,72,0
12000,note_on,0,0,1,,,,,,,,,,,,,,,0,,,63,49
12000,note_on,0,0,1,,,,,,,,,,,,,,,0,,,68,49
12000,note_on,0,0,1,,,,,,,,,,,,,,,0,,,72,58
12000,note_on,60,0,2,,,,,,,,,,,,,,,0,,,44,0
12000,note_on,0,0,2,,,,,,,,,,,,,,,0,,,56,48
12000,set_tempo,480,1,0,,,,,,,,,,,,1200720,,,,,,,
12240,note_on,240,0,1,,,,,,,,,,,,,,,0,,,80,50
12240,set_tempo,240,1,0,,,,,,,,,,,,1266892,,,,,,,
12240,note_on,240,0,2,,,,,,,,,,,,,,,0,,,56,0
12480,note_on,240,0,1,,,,,,,,,,,,,,,0,,,80,0
12494,control_change,254,0,2,,,,,,,,,,,,,,,0,64,0,,
12536,control_change,42,0,2,,,,,,,,,,,,,,,0,64,127,,
12720,note_on,0,0,1,,,,,,,,,,,,,,,0,,,68,51
12720,note_on,0,0,1,,,,,,,,,,,,,,,0,,,72,62
12720,note_on,0,0,1,,,,,,,,,,,,,,,0,,,72,0
12720,note_on,0,0,1,,,,,,,,,,,,,,,0,,,68,0
12720,note_on,240,0,1,,,,,,,,,,,,,,,0,,,63,0
12960,note_on,0,0,1,,,,,,,,,,,,,,,0,,,73,57
12960,note_on,0,0,1,,,,,,,,,,,,,,,0,,,67,57
12960,note_on,240,0,1,,,,,,,,,,,,,,,0,,,68,0
12960,note_on,0,0,1,,,,,,,,,,,,,,,0,,,76,67
12960,note_on,0,0,1,,,,,,,,,,,,,,,0,,,72,0
12960,set_tempo,720,1,0,,,,,,,,,,,,1232792,,,,,,,
12960,note_on,424,0,2,,,,,,,,,,,,,,,0,,,32,39
12960,note_on,0,0,2,,,,,,,,,,,,,,,0,,,44,46
12988,control_change,28,0,2,,,,,,,,,,,,,,,0,64,0,,
13034,control_change,46,0,2,,,,,,,,,,,,,,,0,64,127,,
13200,note_on,0,0,2,,,,,,,,,,,,,,,0,,,32,0
13200,note_on,166,0,2,,,,,,,,,,,,,,,0,,,44,0
13320,note_on,0,0,1,,,,,,,,,,,,,,,0,,,68,50
13320,note_on,0,0,1,,,,,,,,,,,,,,,0,,,72,50
13320,note_on,0,0,1,,,,,,,,,,,,,,,0,,,67,0
13320,note_on,360,0,1,,,,,,,,,,,,,,,0,,,76,0
13320,note_on,0,0,1,,,,,,,,,,,,,,,0,,,73,0
13320,note_on,0,0,1,,,,,,,,,,,,,,,0,,,75,59
13380,note_on,180,0,2,,,,,,,,,,,,,,,0,,,44,48
13440,note_on,0,0,1,,,,,,,,,,,,,,,0,,,72,0
13440,note_on,0,0,1,,,,,,,,,,,,,,,0,,,75,66
13440,note_on,0,0,1,,,,,,,,,,,,,,,0,,,68,56
13440,note_on,0,0,1,,,,,,,,,,,,,,,0,,,68,0
13440,note_on,0,0,2,,,,,,,,,,,,,,,0,,,56,55
13440,note_on,0,0,1,,,,,,,,,,,,,,,0,,,72,56
13440,set_tempo,480,1,0,,,,,,,,,,,,1189296,,,,,,,
13440,note_on,60,0,2,,,,,,,,,,,,,,,0,,,44,0
13440,note_on,120,0,1,,,,,,,,,,,,,,,0,,,75,0
13680,note_on,240,0,1,,,,,,,,,,,,,,,0,,,80,58
13680,set_tempo,240,1,0,,,,,,,,,,,,1278500,,,,,,,
13680,note_on,240,0,2,,,,,,,,,,,,,,,0,,,56,0
13920,note_on,240,0,1,,,,,,,,,,,,,,,0,,,80,0
13934,control_change,254,0,2,,,,,,,,,,,,,,,0,64,0,,
13976,control_change,42,0,2,,,,,,,,,,,,,,,0,64,127,,
14160,set_tempo,480,1,0,,,,,,,,,,,,1314924,,,,,,,
14160,note_on,0,0,1,,,,,,,,,,,,,,,0,,,75,68
14160,note_on,0,0,1,,,,,,,,,,,,,,,0,,,72,56
14160,note_on,0,0,1,,,,,,,,,,,,,,,0,,,68,56
14160,note_on,0,0,1,,,,,,,,,,,,,,,0,,,72,0
14160,note_on,240,0,1,,,,,,,,,,,,,,,0,,,68,0
14160,note_on,0,0,1,,,,,,,,,,,,,,,0,,,75,0
14400,set_tempo,240,1,0,,,,,,,,,,,,1232792,,,,,,,
14400,note_on,0,0,2,,,,,,,,,,,,,,,0,,,32,42
14400,note_on,424,0,2,,,,,,,,,,,,,,,0,,,44,50
14400,note_on,240,0,1,,,,,,,,,,,,,,,0,,,75,0
14400,note_on,0,0,1,,,,,,,,,,,,,,,0,,,72,0
14400,note_on,0,0,1,,,,,,,,,,,,,,,0,,,68,0
14400,note_on,0,0,1,,,,,,,,,,,,,,,0,,,80,73
14400,note_on,0,0,1,,,,,,,,,,,,,,,0,,,76,62
14400,note_on,0,0,1,,,,,,,,,,,,,,,0,,,68,62
14428,control_change,28,0,2,,,,,,,,,,,,,,,0,64,0,,
14474,control_change,46,0,2,,,,,,,,,,,,,,,0,64,127,,
14640,note_on,0,0,2,,,,,,,,,,,,,,,0,,,44,0
14640,note_on,166,0,2,,,,,,,,,,,,,,,0,,,32,0
14760,note_on,360,0,1,,,,,,,,,,,,,,,0,,,76,0
14760,note_on,0,0,1,,,,,,,,,,,,,,,0,,,68,0
14760,note_on,0,0,1,,,,,,,,,,,,,,,0,,,69,55
14760,note_on,0,0,1,,,,,,,,,,,,,,,0,,,75,55
14760,note_on,0,0,1,,,,,,,,,,,,,,,0,,,80,0
14760,note_on,0,0,1,,,,,,,,,,,,,,,0,,,78,64
14820,note_on,180,0,2,,,,,,,,,,,,,,,0,,,44,52
14880,note_on,0,0,2,,,,,,,,,,,,,,,0,,,56,60
14880,note_on,0,0,1,,,,,,,,,,,,,,,0,,,75,0
14880,note_on,0,0,1,,,,,,,,,,,,,,,0,,,69,0
14880,note_on,60,0,2,,,,,,,,,,,,,,,0,,,44,0
14880,note_on,0,0,1,,,,,,,,,,,,,,,0,,,78,72
14880,note_on,0,0,1,,,,,,,,,,,,,,,0,,,75,61
14880,note_on,0,0,1,,,,,,,,,,,,,,,0,,,69,61
14880,note_on,120,0,1,,,,,,,,,,,,,,,0,,,78,0
15120,set_tempo,720,1,0,,,,,,,,,,,,1278500,,,,,,,
15120,note_on,240,0,2,,,,,,,,,,,,,,,0,,,56,0
15120,note_on,240,0,1,,,,,,,,,,,,,,,0,,,80,63
15360,note_on,240,0,1,,,,,,,,,,,,,,,0,,,80,0
15374,control_change,254,0,2,,,,,,,,,,,,,,,0,64,0,,
15416,control_change,42,0,2,,,,,,,,,,,,,,,0,64,127,,
15600,set_tempo,480,1,0,,,,,,,,,,,,1394700,,,,,,,
15600,note_on,240,0,1,,,,,,,,,,,,,,,0,,,78,0
15600,note_on,0,0,1,,,,,,,,,,,,,,,0,,,75,61
15600,note_on,0,0,1,,,,,,,,,,,,,,,0,,,78,74
15600,note_on,0,0,1,,,,,,,,,,,,,,,0,,,69,0
15600,note_on,0,0,1,,,,,,,,,,,,,,,0,,,75,0
15600,note_on,0,0,1,,,,,,,,,,,,,,,0,,,69,61
15840,set_tempo,240,1,0,,,,,,,,,,,,1232792,,,,,,,
15840,note_on,0,0,1,,,,,,,,,,,,,,,0,,,73,68
15840,note_on,0,0,2,,,,,,,,,,,,,,,0,,,32,46
15840,note_on,0,0,1,,,,,,,,,,,,,,,0,,,81,80
15840,note_on,0,0,1,,,,,,,,,,,,,,,0,,,76,68
15840,note_on,0,0,1,,,,,,,,,,,,,,,0,,,69,0
15840,note_on,0,0,1,,,,,,,,,,,,,,,0,,,78,0
15840,note_on,240,0,1,,,,,,,,,,,,,,,0,,,75,0
15840,note_on,424,0,2,,,,,,,,,,,,,,,0,,,44,55
15868,control_change,28,0,2,,,,,,,,,,,,,,,0,64,0,,
15914,control_change,46,0,2,,,,,,,,,,,,,,,0,64,127,,
16080,note_on,0,0,2,,,,,,,,,,,,,,,0,,,44,0
16080,note_on,166,0,2,,,,,,,,,,,,,,,0,,,32,0
16200,note_on,0,0,1,,,,,,,,,,,,,,,0,,,76,0
16200,note_on,0,0,1,,,,,,,,,,,,,,,0,,,75,60
16200,note_on,0,0,1,,,,,,,,,,,,,,,0,,,80,70
16200,note_on,0,0,1,,,,,,,,,,,,,,,0,,,73,0
16200,note_on,360,0,1,,,,,,,,,,,,,,,0,,,81,0
16200,note_on,0,0,1,,,,,,,,,,,,,,,0,,,72,60
16260,note_on,180,0,2,,,,,,,,,,,,,,,0,,,44,52
16320,note_on,0,0,2,,,,,,,,,,,,,,,0,,,56,60
16320,note_on,0,0,1,,,,,,,,,,,,,,,0,,,80,0
16320,note_on,60,0,2,,,,,,,,,,,,,,,0,,,44,0
16320,note_on,0,0,1,,,,,,,,,,,,,,,0,,,75,67
16320,note_on,0,0,1,,,,,,,,,,,,,,,0,,,72,67
16320,note_on,0,0,1,,,,,,,,,,,,,,,0,,,80,79
16320,note_on,120,0,1,,,,,,,,,,,,,,,0,,,72,0
16320,note_on,0,0,1,,,,,,,,,,,,,,,0,,,75,0
16560,note_on,240,0,2,,,,,,,,,,,,,,,0,,,56,0
16560,note_on,0,0,2,,,,,,,,,,,,,,,0,,,68,59
16560,set_tempo,720,1,0,,,,,,,,,,,,1266892,,,,,,,
16800,note_on,240,0,2,,,,,,,,,,,,,,,0,,,68,0
17280,note_on,0,0,2,,,,,,,,,,,,,,,0,,,44,44
17280,note_on,480,0,2,,,,,,,,,,,,,,,0,,,32,36
17320,set_tempo,760,1,0,,,,,,,,,,,,1244039,,,,,,,
17520,note_on,240,0,2,,,,,,,,,,,,,,,0,,,44,0
17520,note_on,0,0,2,,,,,,,,,,,,,,,0,,,32,0
17700,note_on,180,0,2,,,,,,,,,,,,,,,0,,,44,39
17760,note_on,0,0,2,,,,,,,,,,,,,,,0,,,56,44
17760,note_on,60,0,2,,,,,,,,,,,,,,,0,,,44,0
18000,note_on,240,0,2,,,,,,,,,,,,,,,0,,,56,0
18000,set_tempo,680,1,0,,,,,,,,,,,,1290045,,,,,,,
18000,note_on,0,0,2,,,,,,,,,,,,,,,0,,,68,41
18240,note_on,240,0,2,,,,,,,,,,,,,,,0,,,68,0
18480,set_tempo,480,1,0,,,,,,,,,,,,1327140,,,,,,,
18720,note_on,480,0,2,,,,,,,,,,,,,,,0,,,32,26
18720,note_on,0,0,2,,,,,,,,,,,,,,,0,,,44,31
18720,control_change,0,0,2,,,,,,,,,,,,,,,0,64,0,,
18720,note_on,0,0,1,,,,,,,,,,,,,,,0,,,68,41
18720,note_on,0,0,1,,,,,,,,,,,,,,,0,,,71,41
18720,note_on,0,0,1,,,,,,,,,,,,,,,0,,,76,41
18720,note_on,0,0,1,,,,,,,,,,,,,,,0,,,72,0
18720,note_on,0,0,1,,,,,,,,,,,,,,,0,,,75,0
18720,note_on,2400,0,1,,,,,,,,,,,,,,,0,,,80,0
18720,set_tempo,240,1,0,,,,,,,,,,,,1232792,,,,,,,
18720,note_on,0,0,1,,,,,,,,,,,,,,,0,,,80,49
18794,control_change,74,0,2,,,,,,,,,,,,,,,0,64,127,,
18960,note_on,166,0,2,,,,,,,,,,,,,,,0,,,44,0
18960,note_on,0,0,2,,,,,,,,,,,,,,,0,,,32,0
19140,note_on,180,0,2,,,,,,,,,,,,,,,0,,,47,27
19200,note_on,60,0,2,,,,,,,,,,,,,,,0,,,47,0
19200,note_on,0,0,2,,,,,,,,,,,,,,,0,,,59,32
19440,set_tempo,720,1,0,,,,,,,,,,,,1278500,,,,,,,
19440,note_on,240,0,2,,,,,,,,,,,,,,,0,,,59,0
19440,note_on,720,0,1,,,,,,,,,,,,,,,0,,,88,42
19680,note_on,240,0,1,,,,,,,,,,,,,,,0,,,88,0
19694,control_change,254,0,2,,,,,,,,,,,,,,,0,64,0,,
19736,control_change,42,0,2,,,,,,,,,,,,,,,0,64,127,,
19920,note_on,240,0,1,,,,,,,,,,,,,,,0,,,71,0
19920,note_on,0,0,1,,,,,,,,,,,,,,,0,,,76,0
19920,note_on,0,0,1,,,,,,,,,,,,,,,0,,,64,36
19920,note_on,0,0,1,,,,,,,,,,,,,,,0,,,68,0
19920,note_on,0,0,1,,,,,,,,,,,,,,,0,,,76,44
19920,note_on,0,0,1,,,,,,,,,,,,,,,0,,,80,0
19920,note_on,0,0,1,,,,,,,,,,,,,,,0,,,71,36
20160,note_on,0,0,2,,,,,,,,,,,,,,,0,,,33,26
20160,note_on,424,0,2,,,,,,,,,,,,,,,0,,,45,31
20160,note_on,0,0,1,,,,,,,,,,,,,,,0,,,75,49
20160,note_on,0,0,1,,,,,,,,,,,,,,,0,,,69,41
20160,note_on,0,0,1,,,,,,,,,,,,,,,0,,,64,41
20160,note_on,0,0,1,,,,,,,,,,,,,,,0,,,76,0
20160,note_on,0,0,1,,,,,,,,,,,,,,,0,,,71,0
20160,note_on,240,0,1,,,,,,,,,,,,,,,0,,,64,0
20160,set_tempo,720,1,0,,,,,,,,,,,,1232792,,,,,,,
20234,control_change,74,0,2,,,,,,,,,,,,,,,0,64,127,,
20400,note_on,166,0,2,,,,,,,,,,,,,,,0,,,33,0
20400,note_on,0,0,2,,,,,,,,,,,,,,,0,,,45,0
20520,note_on,0,0,1,,,,,,,,,,,,,,,0,,,73,49
20520,note_on,360,0,1,,,,,,,,,,,,,,,0,,,75,0
20580,note_on,180,0,2,,,,,,,,,,,,,,,0,,,49,27
20640,note_on,60,0,2,,,,,,,,,,,,,,,0,,,49,0
20640,note_on,0,0,2,,,,,,,,,,,,,,,0,,,61,32
20640,note_on,0,0,1,,,,,,,,,,,,,,,0,,,64,0
20640,note_on,120,0,1,,,,,,,,,,,,,,,0,,,73,0
20640,note_on,0,0,1,,,,,,,,,,,,,,,0,,,73,49
20640,note_on,0,0,1,,,,,,,,,,,,,,,0,,,64,40
20640,note_on,0,0,1,,,,,,,,,,,,,,,0,,,69,40
20640,note_on,0,0,1,,,,,,,,,,,,,,,0,,,69,0
20880,set_tempo,720,1,0,,,,,,,,,,,,1278500,,,,,,,
20880,note_on,240,0,2,,,,,,,,,,,,,,,0,,,61,0
20880,note_on,240,0,1,,,,,,,,,,,,,,,0,,,85,41
21120,note_on,240,0,1,,,,,,,,,,,,,,,0,,,85,0
21134,control_change,254,0,2,,,,,,,,,,,,,,,0,64,0,,
21176,control_change,42,0,2,,,,,,,,,,,,,,,0,64,127,,
21360,note_on,0,0,1,,,,,,,,,,,,,,,0,,,69,36
21360,note_on,0,0,1,,,,,,,,,,,,,,,0,,,73,0
21360,note_on,0,0,1,,,,,,,,,,,,,,,0,,,64,0
21360,note_on,240,0,1,,,,,,,,,,,,,,,0,,,69,0
21360,note_on,0,0,1,,,,,,,,,,,,,,,0,,,73,44
21360,note_on,0,0,1,,,,,,,,,,,,,,,0,,,64,36
21600,note_on,0,0,1,,,,,,,,,,,,,,,0,,,69,0
21600,note_on,0,0,1,,,,,,,,,,,,,,,0,,,73,0
21600,note_on,0,0,1,,,,,,,,,,,,,,,0,,,64,41
21600,note_on,0,0,1,,,,,,,,,,,,,,,0,,,66,41
21600,note_on,0,0,1,,,,,,,,,,,,,,,0,,,73,49
21600,note_on,424,0,2,,,,,,,,,,,,,,,0,,,47,31
21600,note_on,240,0,1,,,,,,,,,,,,,,,0,,,64,0
21600,note_on,0,0,2,,,,,,,,,,,,,,,0,,,35,26
21600,set_tempo,720,1,0,,,,,,,,,,,,1232792,,,,,,,
21674,control_change,74,0,2,,,,,,,,,,,,,,,0,64,127,,
21840,note_on,0,0,2,,,,,,,,,,,,,,,0,,,47,0
21840,note_on,166,0,2,,,,,,,,,,,,,,,0,,,35,0
21960,note_on,0,0,1,,,,,,,,,,,,,,,0,,,63,45
21960,note_on,360,0,1,,,,,,,,,,,,,,,0,,,73,0
21960,note_on,0,0,1,,,,,,,,,,,,,,,0,,,64,0
21960,note_on,0,0,1,,,,,,,,,,,,,,,0,,,71,49
22020,note_on,180,0,2,,,,,,,,,,,,,,,0,,,47,27
22080,note_on,0,0,1,,,,,,,,,,,,,,,0,,,66,40
22080,note_on,0,0,1,,,,,,,,,,,,,,,0,,,63,40
22080,note_on,0,0,1,,,,,,,,,,,,,,,0,,,66,0
22080,note_on,0,0,1,,,,,,,,,,,,,,,0,,,71,0
22080,note_on,120,0,1,,,,,,,,,,,,,,,0,,,63,0
22080,note_on,0,0,1,,,,,,,,,,,,,,,0,,,71,49
22080,note_on,60,0,2,,,,,,,,,,,,,,,0,,,47,0
22080,note_on,0,0,2,,,,,,,,,,,,,,,0,,,59,32
22320,note_on,240,0,2,,,,,,,,,,,,,,,0,,,59,0
22320,set_tempo,720,1,0,,,,,,,,,,,,1278500,,,,,,,
22320,note_on,240,0,1,,,,,,,,,,,,,,,0,,,83,36
22560,note_on,240,0,1,,,,,,,,,,,,,,,0,,,83,0
22574,control_change,254,0,2,,,,,,,,,,,,,,,0,64,0,,
22616,control_change,42,0,2,,,,,,,,,,,,,,,0,64,127,,
22800,note_on,0,0,1,,,,,,,,,,,,,,,0,,,69,41
22800,note_on,0,0,1,,,,,,,,,,,,,,,0,,,66,0
22800,note_on,0,0,1,,,,,,,,,,,,,,,0,,,71,0
22800,note_on,0,0,1,,,,,,,,,,,,,,,0,,,64,34
22800,note_on,0,0,1,,,,,,,,,,,,,,,0,,,61,34
22800,note_on,240,0,1,,,,,,,,,,,,,,,0,,,63,0
23040,control_change,424,0,2,,,,,,,,,,,,,,,0,64,0,,
23040,note_on,0,0,2,,,,,,,,,,,,,,,0,,,40,31
23040,note_on,0,0,1,,,,,,,,,,,,,,,0,,,68,40
23040,set_tempo,720,1,0,,,,,,,,,,,,1232792,,,,,,,
23040,note_on,0,0,1,,,,,,,,,,,,,,,0,,,69,0
23040,note_on,240,0,1,,,,,,,,,,,,,,,0,,,61,0
23040,note_on,0,0,1,,,,,,,,,,,,,,,0,,,64,0
23040,note_on,0,0,1,,,,,,,,,,,,,,,0,,,59,34
23040,note_on,0,0,1,,,,,,,,,,,,,,,0,,,64,34
23075,control_change,35,0,2,,,,,,,,,,,,,,,0,64,127,,
23280,note_on,205,0,2,,,,,,,,,,,,,,,0,,,40,0
23280,set_tempo,240,1,0,,,,,,,,,,,,1278500,,,,,,,
23460,note_on,180,0,2,,,,,,,,,,,,,,,0,,,47,27
23520,note_on,60,0,2,,,,,,,,,,,,,,,0,,,47,0
23520,note_on,0,0,2,,,,,,,,,,,,,,,0,,,52,32
23520,note_on,480,0,1,,,,,,,,,,,,,,,0,,,68,0
23520,note_on,0,0,1,,,,,,,,,,,,,,,0,,,64,36
23520,note_on,0,0,1,,,,,,,,,,,,,,,0,,,56,30
23520,note_on,0,0,1,,,,,,,,,,,,,,,0,,,59,30
23520,note_on,0,0,1,,,,,,,,,,,,,,,0,,,59,0
23520,note_on,0,0,1,,,,,,,,,,,,,,,0,,,64,0
23760,note_on,240,0,2,,,,,,,,,,,,,,,0,,,52,0
23760,note_on,240,0,1,,,,,,,,,,,,,,,0,,,76,32
24000,note_on,240,0,1,,,,,,,,,,,,,,,0,,,76,0
24480,note_on,0,0,1,,,,,,,,,,,,,,,0,,,56,0
24480,note_on,0,0,1,,,,,,,,,,,,,,,0,,,64,39
24480,note_on,720,0,2,,,,,,,,,,,,,,,0,,,40,31
24480,note_on,0,0,1,,,,,,,,,,,,,,,0,,,64,0
24480,note_on,0,0,1,,,,,,,,,,,,,,,0,,,68,47
24480,note_on,480,0,1,,,,,,,,,,,,,,,0,,,59,0
24480,set_tempo,1200,1,0,,,,,,,,,,,,1232792,,,,,,,
24484,control_change,4,0,2,,,,,,,,,,,,,,,0,64,0,,
24551,control_change,67,0,2,,,,,,,,,,,,,,,0,64,127,,
24720,note_on,169,0,2,,,,,,,,,,,,,,,0,,,40,0
24900,note_on,180,0,2,,,,,,,,,,,,,,,0,,,47,27
24960,note_on,0,0,2,,,,,,,,,,,,,,,0,,,59,32
24960,note_on,60,0,2,,,,,,,,,,,,,,,0,,,47,0
25200,note_on,240,0,2,,,,,,,,,,,,,,,0,,,59,0
25200,set_tempo,720,1,0,,,,,,,,,,,,1290045,,,,,,,
25200,note_on,720,0,1,,,,,,,,,,,,,,,0,,,71,32
25440,note_on,0,0,1,,,,,,,,,,,,,,,0,,,68,41
25440,note_on,240,0,1,,,,,,,,,,,,,,,0,,,71,0
25440,note_on,0,0,1,,,,,,,,,,,,,,,0,,,64,0
25440,note_on,0,0,1,,,,,,,,,,,,,,,0,,,68,0
25440,note_on,0,0,1,,,,,,,,,,,,,,,0,,,64,35
25468,control_change,268,0,2,,,,,,,,,,,,,,,0,64,0,,
25496,control_change,28,0,2,,,,,,,,,,,,,,,0,64,127,,
25800,note_on,0,0,1,,,,,,,,,,,,,,,0,,,64,0
25800,note_on,360,0,1,,,,,,,,,,,,,,,0,,,68,0
25800,note_on,0,0,1,,,,,,,,,,,,,,,0,,,63,34
25800,note_on,0,0,1,,,,,,,,,,,,,,,0,,,66,40
25920,note_on,0,0,1,,,,,,,,,,,,,,,0,,,66,49
25920,set_tempo,720,1,0,,,,,,,,,,,,1232792,,,,,,,
25920,note_on,424,0,2,,,,,,,,,,,,,,,0,,,40,31
25920,note_on,120,0,1,,,,,,,,,,,,,,,0,,,66,0
25920,note_on,0,0,1,,,,,,,,,,,,,,,0,,,63,41
25920,note_on,0,0,1,,,,,,,,,,,,,,,0,,,63,0
25948,control_change,28,0,2,,,,,,,,,,,,,,,0,64,0,,
25994,control_change,46,0,2,,,,,,,,,,,,,,,0,64,127,,
26160,note_on,166,0,2,,,,,,,,,,,,,,,0,,,40,0
26340,note_on,180,0,2,,,,,,,,,,,,,,,0,,,47,27
26400,note_on,0,0,2,,,,,,,,,,,,,,,0,,,59,32
26400,note_on,60,0,2,,,,,,,,,,,,,,,0,,,47,0
26640,note_on,720,0,1,,,,,,,,,,,,,,,0,,,71,32
26640,note_on,240,0,2,,,,,,,,,,,,,,,0,,,59,0
26640,set_tempo,720,1,0,,,,,,,,,,,,1278500,,,,,,,
26880,note_on,0,0,1,,,,,,,,,,,,,,,0,,,63,37
26880,note_on,240,0,1,,,,,,,,,,,,,,,0,,,71,0
26880,note_on,0,0,1,,,,,,,,,,,,,,,0,,,63,0
26880,note_on,0,0,1,,,,,,,,,,,,,,,0,,,66,0
26880,note_on,0,0,1,,,,,,,,,,,,,,,0,,,66,44
26894,control_change,254,0,2,,,,,,,,,,,,,,,0,64,0,,
26951,control_change,57,0,2,,,,,,,,,,,,,,,0,64,127,,
27360,set_tempo,720,1,0,,,,,,,,,,,,1232792,,,,,,,
27360,note_on,0,0,1,,,,,,,,,,,,,,,0,,,69,49
27360,note_on,0,0,1,,,,,,,,,,,,,,,0,,,61,41
27360,note_on,480,0,1,,,,,,,,,,,,,,,0,,,66,0
27360,note_on,409,0,2,,,,,,,,,,,,,,,0,,,40,31
27360,note_on,0,0,1,,,,,,,,,,,,,,,0,,,63,0
27388,control_change,28,0,2,,,,,,,,,,,,,,,0,64,0,,
27434,control_change,46,0,2,,,,,,,,,,,,,,,0,64,127,,
27600,note_on,166,0,2,,,,,,,,,,,,,,,0,,,40,0
27780,note_on,180,0,2,,,,,,,,,,,,,,,0,,,47,27
27840,note_on,60,0,2,,,,,,,,,,,,,,,0,,,47,0
27840,note_on,0,0,2,,,,,,,,,,,,,,,0,,,59,32
28080,note_on,240,0,2,,,,,,,,,,,,,,,0,,,59,0
28080,set_tempo,720,1,0,,,,,,,,,,,,1278500,,,,,,,
28080,note_on,720,0,1,,,,,,,,,,,,,,,0,,,71,32
28320,note_on,240,0,1,,,,,,,,,,,,,,,0,,,71,0
28320,note_on,0,0,1,,,,,,,,,,,,,,,0,,,69,0
28320,note_on,0,0,1,,,,,,,,,,,,,,,0,,,63,33
28320,note_on,0,0,1,,,,,,,,,,,,,,,0,,,61,0
28320,note_on,0,0,1,,,,,,,,,,,,,,,0,,,69,39
28320,set_tempo,240,1,0,,,,,,,,,,,,1236094,,,,,,,
28334,control_change,254,0,2,,,,,,,,,,,,,,,0,64,0,,
28376,control_change,42,0,2,,,,,,,,,,,,,,,0,64,127,,
28440,note_on,0,0,1,,,,,,,,,,,,,,,0,,,66,29
28440,note_on,120,0,1,,,,,,,,,,,,,,,0,,,63,0
28560,note_on,0,0,1,,,,,,,,,,,,,,,0,,,64,30
28560,note_on,0,0,1,,,,,,,,,,,,,,,0,,,69,0
28560,note_on,120,0,1,,,,,,,,,,,,,,,0,,,66,0
28560,set_tempo,240,1,0,,,,,,,,,,,,1273615,,,,,,,
28560,note_on,0,0,1,,,,,,,,,,,,,,,0,,,68,36
28680,note_on,0,0,1,,,,,,,,,,,,,,,0,,,68,0
28680,note_on,0,0,1,,,,,,,,,,,,,,,0,,,63,28
28680,note_on,0,0,1,,,,,,,,,,,,,,,0,,,66,34
28680,note_on,120,0,1,,,,,,,,,,,,,,,0,,,64,0
28680,set_tempo,120,1,0,,,,,,,,,,,,1385361,,,,,,,
28800,note_on,120,0,1,,,,,,,,,,,,,,,0,,,66,0
28800,note_on,0,0,2,,,,,,,,,,,,,,,0,,,40,31
28800,note_on,0,0,1,,,,,,,,,,,,,,,0,,,64,39
28800,note_on,0,0,1,,,,,,,,,,,,,,,0,,,68,47
28800,note_on,0,0,1,,,,,,,,,,,,,,,0,,,63,0
28800,control_change,424,0,2,,,,,,,,,,,,,,,0,64,0,,
28800,set_tempo,120,1,0,,,,,,,,,,,,1232792,,,,,,,
28853,control_change,53,0,2,,,,,,,,,,,,,,,0,64,127,,
29040,note_on,187,0,2,,,,,,,,,,,,,,,0,,,40,0
29220,note_on,180,0,2,,,,,,,,,,,,,,,0,,,47,27
29280,note_on,60,0,2,,,,,,,,,,,,,,,0,,,47,0
29280,note_on,0,0,2,,,,,,,,,,,,,,,0,,,59,32
29520,note_on,720,0,1,,,,,,,,,,,,,,,0,,,71,31
29520,set_tempo,720,1,0,,,,,,,,,,,,1278500,,,,,,,
29520,note_on,240,0,2,,,,,,,,,,,,,,,0,,,59,0
29760,note_on,0,0,1,,,,,,,,,,,,,,,0,,,64,38
29760,note_on,0,0,1,,,,,,,,,,,,,,,0,,,68,45
29760,note_on,0,0,1,,,,,,,,,,,,,,,0,,,64,0
29760,note_on,0,0,1,,,,,,,,,,,,,,,0,,,68,0
29760,note_on,240,0,1,,,,,,,,,,,,,,,0,,,71,0
29788,control_change,268,0,2,,,,,,,,,,,,,,,0,64,0,,
29816,control_change,28,0,2,,,,,,,,,,,,,,,0,64,127,,
30240,note_on,424,0,2,,,,,,,,,,,,,,,0,,,40,35
30240,set_tempo,720,1,0,,,,,,,,,,,,1232792,,,,,,,
30240,note_on,480,0,1,,,,,,,,,,,,,,,0,,,68,0
30240,note_on,0,0,1,,,,,,,,,,,,,,,0,,,64,0
30240,note_on,0,0,1,,,,,,,,,,,,,,,0,,,62,47
30240,note_on,0,0,1,,,,,,,,,,,,,,,0,,,71,56
30240,note_on,0,0,1,,,,,,,,,,,,,,,0,,,68,47
30268,control_change,28,0,2,,,,,,,,,,,,,,,0,64,0,,
30314,control_change,46,0,2,,,,,,,,,,,,,,,0,64,127,,
30480,note_on,166,0,2,,,,,,,,,,,,,,,0,,,40,0
30660,note_on,180,0,2,,,,,,,,,,,,,,,0,,,52,34
30720,note_on,60,0,2,,,,,,,,,,,,,,,0,,,52,0
30720,note_on,0,0,2,,,,,,,,,,,,,,,0,,,64,41
30960,note_on,720,0,1,,,,,,,,,,,,,,,0,,,76,47
30960,set_tempo,720,1,0,,,,,,,,,,,,1278500,,,,,,,
30960,note_on,240,0,2,,,,,,,,,,,,,,,0,,,64,0
31200,set_tempo,240,1,0,,,,,,,,,,,,1302366,,,,,,,
31200,note_on,240,0,1,,,,,,,,,,,,,,,0,,,76,0
31200,note_on,0,0,1,,,,,,,,,,,,,,,0,,,62,0
31200,note_on,0,0,1,,,,,,,,,,,,,,,0,,,71,0
31200,note_on,0,0,1,,,,,,,,,,,,,,,0,,,68,0
31200,note_on,0,0,1,,,,,,,,,,,,,,,0,,,62,37
31200,note_on,0,0,1,,,,,,,,,,,,,,,0,,,68,37
31200,note_on,0,0,1,,,,,,,,,,,,,,,0,,,71,44
31214,control_change,254,0,2,,,,,,,,,,,,,,,0,64,0,,
31256,control_change,42,0,2,,,,,,,,,,,,,,,0,64,127,,
31560,note_on,360,0,1,,,,,,,,,,,,,,,0,,,71,0
31560,note_on,0,0,1,,,,,,,,,,,,,,,0,,,68,0
31560,note_on,0,0,1,,,,,,,,,,,,,,,0,,,62,0
31560,note_on,0,0,1,,,,,,,,,,,,,,,0,,,61,32
31560,note_on,0,0,1,,,,,,,,,,,,,,,0,,,69,39
31680,note_on,424,0,2,,,,,,,,,,,,,,,0,,,40,35
31680,set_tempo,480,1,0,,,,,,,,,,,,1232792,,,,,,,
31680,note_on,120,0,1,,,,,,,,,,,,,,,0,,,69,0
31680,note_on,0,0,1,,,,,,,,,,,,,,,0,,,61,0
31680,note_on,0,0,1,,,,,,,,,,,,,,,0,,,69,56
31680,note_on,0,0,1,,,,,,,,,,,,,,,0,,,61,47
31708,control_change,28,0,2,,,,,,,,,,,,,,,0,64,0,,
31754,control_change,46,0,2,,,,,,,,,,,,,,,0,64,127,,
31920,note_on,166,0,2,,,,,,,,,,,,,,,0,,,40,0
32100,note_on,180,0,2,,,,,,,,,,,,,,,0,,,52,34
32160,note_on,60,0,2,,,,,,,,,,,,,,,0,,,52,0
32160,note_on,0,0,2,,,,,,,,,,,,,,,0,,,64,41
32400,note_on,720,0,1,,,,,,,,,,,,,,,0,,,61,0
32400,note_on,240,0,2,,,,,,,,,,,,,,,0,,,64,0
32400,note_on,0,0,1,,,,,,,,,,,,,,,0,,,69,39
32400,note_on,0,0,1,,,,,,,,,,,,,,,0,,,76,47
32400,set_tempo,720,1,0,,,,,,,,,,,,1278500,,,,,,,
32400,note_on,0,0,1,,,,,,,,,,,,,,,0,,,61,32
32400,note_on,0,0,1,,,,,,,,,,,,,,,0,,,69,0
32640,note_on,0,0,1,,,,,,,,,,,,,,,0,,,61,46
32640,note_on,0,0,1,,,,,,,,,,,,,,,0,,,69,55
32640,note_on,0,0,1,,,,,,,,,,,,,,,0,,,61,0
32640,note_on,0,0,1,,,,,,,,,,,,,,,0,,,69,0
32640,note_on,240,0,1,,,,,,,,,,,,,,,0,,,76,0
32654,control_change,254,0,2,,,,,,,,,,,,,,,0,64,0,,
32696,control_change,42,0,2,,,,,,,,,,,,,,,0,64,127,,
32880,note_on,0,0,1,,,,,,,,,,,,,,,0,,,61,46
32880,note_on,0,0,1,,,,,,,,,,,,,,,0,,,69,56
32880,set_tempo,480,1,0,,,,,,,,,,,,1353485,,,,,,,
32880,note_on,0,0,1,,,,,,,,,,,,,,,0,,,69,0
32880,note_on,240,0,1,,,,,,,,,,,,,,,0,,,61,0
33120,set_tempo,240,1,0,,,,,,,,,,,,1232792,,,,,,,
33120,note_on,0,0,1,,,,,,,,,,,,,,,0,,,63,56
33120,note_on,0,0,1,,,,,,,,,,,,,,,0,,,69,56
33120,note_on,0,0,1,,,,,,,,,,,,,,,0,,,73,66
33120,note_on,0,0,1,,,,,,,,,,,,,,,0,,,61,0
33120,note_on,240,0,1,,,,,,,,,,,,,,,0,,,69,0
33120,note_on,424,0,2,,,,,,,,,,,,,,,0,,,40,42
33148,control_change,28,0,2,,,,,,,,,,,,,,,0,64,0,,
33194,control_change,46,0,2,,,,,,,,,,,,,,,0,64,127,,
33360,note_on,166,0,2,,,,,,,,,,,,,,,0,,,40,0
33540,note_on,180,0,2,,,,,,,,,,,,,,,0,,,52,37
33600,note_on,60,0,2,,,,,,,,,,,,,,,0,,,52,0
33600,note_on,0,0,2,,,,,,,,,,,,,,,0,,,64,45
33840,note_on,720,0,1,,,,,,,,,,,,,,,0,,,76,48
33840,note_on,240,0,2,,,,,,,,,,,,,,,0,,,64,0
33880,set_tempo,760,1,0,,,,,,,,,,,,1266892,,,,,,,
34080,note_on,240,0,1,,,,,,,,,,,,,,,0,,,76,0
34080,note_on,0,0,1,,,,,,,,,,,,,,,0,,,73,0
34080,note_on,0,0,1,,,,,,,,,,,,,,,0,,,69,0
34080,note_on,0,0,1,,,,,,,,,,,,,,,0,,,63,0
34080,note_on,0,0,1,,,,,,,,,,,,,,,0,,,63,40
34080,note_on,0,0,1,,,,,,,,,,,,,,,0,,,73,49
34080,note_on,0,0,1,,,,,,,,,,,,,,,0,,,69,40
34094,control_change,254,0,2,,,,,,,,,,,,,,,0,64,0,,
34136,control_change,42,0,2,,,,,,,,,,,,,,,0,64,127,,
34440,note_on,0,0,1,,,,,,,,,,,,,,,0,,,69,0
34440,set_tempo,560,1,0,,,,,,,,,,,,1394700,,,,,,,
34440,note_on,0,0,1,,,,,,,,,,,,,,,0,,,63,0
34440,note_on,0,0,1,,,,,,,,,,,,,,,0,,,68,32
34440,note_on,0,0,1,,,,,,,,,,,,,,,0,,,64,32
34440,note_on,0,0,1,,,,,,,,,,,,,,,0,,,71,38
34440,note_on,360,0,1,,,,,,,,,,,,,,,0,,,73,0
34560,note_on,0,0,1,,,,,,,,,,,,,,,0,,,64,0
34560,note_on,424,0,2,,,,,,,,,,,,,,,0,,,40,31
34560,set_tempo,120,1,0,,,,,,,,,,,,1232792,,,,,,,
34560,note_on,0,0,1,,,,,,,,,,,,,,,0,,,68,0
34560,note_on,0,0,1,,,,,,,,,,,,,,,0,,,64,41
34560,note_on,120,0,1,,,,,,,,,,,,,,,0,,,71,0
34560,note_on,0,0,1,,,,,,,,,,,,,,,0,,,71,49
34560,note_on,0,0,1,,,,,,,,,,,,,,,0,,,68,41
34588,control_change,28,0,2,,,,,,,,,,,,,,,0,64,0,,
34634,control_change,46,0,2,,,,,,,,,,,,,,,0,64,127,,
34800,note_on,166,0,2,,,,,,,,,,,,,,,0,,,40,0
34980,note_on,180,0,2,,,,,,,,,,,,,,,0,,,52,30
35040,note_on,60,0,2,,,,,,,,,,,,,,,0,,,52,0
35040,note_on,0,0,2,,,,,,,,,,,,,,,0,,,64,36
35280,note_on,720,0,1,,,,,,,,,,,,,,,0,,,76,34
35280,set_tempo,720,1,0,,,,,,,,,,,,1278500,,,,,,,
35280,note_on,240,0,2,,,,,,,,,,,,,,,0,,,64,0
35520,note_on,240,0,1,,,,,,,,,,,,,,,0,,,76,0
35534,control_change,254,0,2,,,,,,,,,,,,,,,0,64,0,,
35576,control_change,42,0,2,,,,,,,,,,,,,,,0,64,127,,
35760,note_on,0,0,1,,,,,,,,,,,,,,,0,,,68,42
35760,note_on,0,0,1,,,,,,,,,,,,,,,0,,,64,42
35760,note_on,0,0,1,,,,,,,,,,,,,,,0,,,71,51
35760,note_on,0,0,1,,,,,,,,,,,,,,,0,,,64,0
35760,note_on,0,0,1,,,,,,,,,,,,,,,0,,,71,0
35760,note_on,240,0,1,,,,,,,,,,,,,,,0,,,68,0
36000,note_on,240,0,1,,,,,,,,,,,,,,,0,,,71,0
36000,note_on,0,0,1,,,,,,,,,,,,,,,0,,,64,0
36000,note_on,0,0,1,,,,,,,,,,,,,,,0,,,71,52
36000,note_on,0,0,1,,,,,,,,,,,,,,,0,,,68,52
36000,note_on,0,0,1,,,,,,,,,,,,,,,0,,,68,0
36000,note_on,424,0,2,,,,,,,,,,,,,,,0,,,35,35
36000,note_on,0,0,2,,,,,,,,,,,,,,,0,,,47,42
36000,note_on,0,0,1,,,,,,,,,,,,,,,0,,,76,61
36000,set_tempo,720,1,0,,,,,,,,,,,,1232792,,,,,,,
36028,control_change,28,0,2,,,,,,,,,,,,,,,0,64,0,,
36074,control_change,46,0,2,,,,,,,,,,,,,,,0,64,127,,
36240,note_on,166,0,2,,,,,,,,,,,,,,,0,,,47,0
36240,note_on,0,0,2,,,,,,,,,,,,,,,0,,,35,0
36360,note_on,0,0,1,,,,,,,,,,,,,,,0,,,71,46
36360,note_on,0,0,1,,,,,,,,,,,,,,,0,,,66,46
36360,note_on,0,0,1,,,,,,,,,,,,,,,0,,,76,0
36360,note_on,0,0,1,,,,,,,,,,,,,,,0,,,68,0
36360,note_on,360,0,1,,,,,,,,,,,,,,,0,,,71,0
36360,note_on,0,0,1,,,,,,,,,,,,,,,0,,,75,54
36420,note_on,180,0,2,,,,,,,,,,,,,,,0,,,47,44
36480,note_on,0,0,1,,,,,,,,,,,,,,,0,,,71,0
36480,note_on,120,0,1,,,,,,,,,,,,,,,0,,,75,0
36480,note_on,0,0,1,,,,,,,,,,,,,,,0,,,66,51
36480,note_on,0,0,1,,,,,,,,,,,,,,,0,,,66,0
36480,note_on,0,0,1,,,,,,,,,,,,,,,0,,,75,61
36480,note_on,0,0,1,,,,,,,,,,,,,,,0,,,71,51
36480,note_on,60,0,2,,,,,,,,,,,,,,,0,,,47,0
36480,note_on,0,0,2,,,,,,,,,,,,,,,0,,,59,50
36720,set_tempo,720,1,0,,,,,,,,,,,,1266892,,,,,,,
36720,note_on,240,0,1,,,,,,,,,,,,,,,0,,,83,53
36720,note_on,240,0,2,,,,,,,,,,,,,,,0,,,59,0
36960,note_on,240,0,1,,,,,,,,,,,,,,,0,,,83,0
36974,control_change,254,0,2,,,,,,,,,,,,,,,0,64,0,,
37016,control_change,42,0,2,,,,,,,,,,,,,,,0,64,127,,
37200,note_on,240,0,1,,,,,,,,,,,,,,,0,,,75,0
37200,note_on,0,0,1,,,,,,,,,,,,,,,0,,,66,0
37200,note_on,0,0,1,,,,,,,,,,,,,,,0,,,66,54
37200,note_on,0,0,1,,,,,,,,,,,,,,,0,,,75,66
37200,note_on,0,0,1,,,,,,,,,,,,,,,0,,,71,54
37200,note_on,0,0,1,,,,,,,,,,,,,,,0,,,71,0
37440,note_on,0,0,1,,,,,,,,,,,,,,,0,,,75,0
37440,note_on,240,0,1,,,,,,,,,,,,,,,0,,,71,0
37440,note_on,0,0,1,,,,,,,,,,,,,,,0,,,76,60
37440,note_on,0,0,1,,,,,,,,,,,,,,,0,,,71,60
37440,note_on,0,0,2,,,,,,,,,,,,,,,0,,,47,49
37440,note_on,424,0,2,,,,,,,,,,,,,,,0,,,35,41
37440,set_tempo,720,1,0,,,,,,,,,,,,1232792,,,,,,,
37440,note_on,0,0,1,,,,,,,,,,,,,,,0,,,80,71
37440,note_on,0,0,1,,,,,,,,,,,,,,,0,,,66,0
37468,control_change,28,0,2,,,,,,,,,,,,,,,0,64,0,,
37514,control_change,46,0,2,,,,,,,,,,,,,,,0,64,127,,
37680,note_on,0,0,2,,,,,,,,,,,,,,,0,,,35,0
37680,note_on,166,0,2,,,,,,,,,,,,,,,0,,,47,0
37800,note_on,0,0,1,,,,,,,,,,,,,,,0,,,75,54
37800,note_on,0,0,1,,,,,,,,,,,,,,,0,,,78,63
37800,note_on,0,0,1,,,,,,,,,,,,,,,0,,,76,0
37800,note_on,360,0,1,,,,,,,,,,,,,,,0,,,80,0
37860,note_on,180,0,2,,,,,,,,,,,,,,,0,,,47,51
37920,note_on,0,0,1,,,,,,,,,,,,,,,0,,,75,60
37920,note_on,0,0,1,,,,,,,,,,,,,,,0,,,71,0
37920,note_on,120,0,1,,,,,,,,,,,,,,,0,,,75,0
37920,note_on,0,0,1,,,,,,,,,,,,,,,0,,,78,71
37920,note_on,0,0,1,,,,,,,,,,,,,,,0,,,78,0
37920,note_on,0,0,2,,,,,,,,,,,,,,,0,,,59,59
37920,note_on,60,0,2,,,,,,,,,,,,,,,0,,,47,0
37920,note_on,0,0,1,,,,,,,,,,,,,,,0,,,71,60
38160,note_on,240,0,1,,,,,,,,,,,,,,,0,,,83,62
38160,note_on,240,0,2,,,,,,,,,,,,,,,0,,,59,0
38160,set_tempo,720,1,0,,,,,,,,,,,,1278500,,,,,,,
38400,note_on,240,0,1,,,,,,,,,,,,,,,0,,,83,0
38414,control_change,254,0,2,,,,,,,,,,,,,,,0,64,0,,
38456,control_change,42,0,2,,,,,,,,,,,,,,,0,64,127,,
38640,note_on,240,0,1,,,,,,,,,,,,,,,0,,,75,0
38640,note_on,0,0,1,,,,,,,,,,,,,,,0,,,78,0
38640,note_on,0,0,1,,,,,,,,,,,,,,,0,,,80,74
38640,note_on,0,0,1,,,,,,,,,,,,,,,0,,,71,61
38640,note_on,0,0,1,,,,,,,,,,,,,,,0,,,71,0
38640,set_tempo,480,1,0,,,,,,,,,,,,1314924,,,,,,,
38640,note_on,0,0,1,,,,,,,,,,,,,,,0,,,76,61
38880,note_on,0,0,1,,,,,,,,,,,,,,,0,,,80,68
38880,note_on,0,0,1,,,,,,,,,,,,,,,0,,,76,68
38880,note_on,0,0,1,,,,,,,,,,,,,,,0,,,80,0
38880,note_on,0,0,1,,,,,,,,,,,,,,,0,,,71,0
38880,note_on,240,0,1,,,,,,,,,,,,,,,0,,,76,0
38880,note_on,0,0,1,,,,,,,,,,,,,,,0,,,85,80
38880,note_on,424,0,2,,,,,,,,,,,,,,,0,,,35,46
38880,note_on,0,0,2,,,,,,,,,,,,,,,0,,,47,55
38880,set_tempo,240,1,0,,,,,,,,,,,,1232792,,,,,,,
38908,control_change,28,0,2,,,,,,,,,,,,,,,0,64,0,,
38954,control_change,46,0,2,,,,,,,,,,,,,,,0,64,127,,
39120,note_on,166,0,2,,,,,,,,,,,,,,,0,,,47,0
39120,note_on,0,0,2,,,,,,,,,,,,,,,0,,,35,0
39240,note_on,0,0,1,,,,,,,,,,,,,,,0,,,83,70
39240,note_on,360,0,1,,,,,,,,,,,,,,,0,,,85,0
39240,note_on,0,0,1,,,,,,,,,,,,,,,0,,,80,0
39240,note_on,0,0,1,,,,,,,,,,,,,,,0,,,76,0
39240,note_on,0,0,1,,,,,,,,,,,,,,,0,,,78,60
39240,note_on,0,0,1,,,,,,,,,,,,,,,0,,,75,60
39300,note_on,180,0,2,,,,,,,,,,,,,,,0,,,47,52
39360,note_on,0,0,1,,,,,,,,,,,,,,,0,,,83,0
39360,note_on,120,0,1,,,,,,,,,,,,,,,0,,,75,0
39360,note_on,0,0,1,,,,,,,,,,,,,,,0,,,78,0
39360,note_on,0,0,1,,,,,,,,,,,,,,,0,,,75,67
39360,note_on,0,0,1,,,,,,,,,,,,,,,0,,,78,67
39360,note_on,0,0,1,,,,,,,,,,,,,,,0,,,83,79
39360,note_on,60,0,2,,,,,,,,,,,,,,,0,,,47,0
39360,note_on,0,0,2,,,,,,,,,,,,,,,0,,,59,60
39600,note_on,240,0,2,,,,,,,,,,,,,,,0,,,59,0
39600,set_tempo,720,1,0,,,,,,,,,,,,1266892,,,,,,,
39600,note_on,240,0,1,,,,,,,,,,,,,,,0,,,71,59
39840,note_on,240,0,1,,,,,,,,,,,,,,,0,,,71,0
40320,note_on,720,0,2,,,,,,,,,,,,,,,0,,,35,36
40360,set_tempo,760,1,0,,,,,,,,,,,,1244039,,,,,,,
40560,note_on,240,0,2,,,,,,,,,,,,,,,0,,,35,0
40740,note_on,180,0,2,,,,,,,,,,,,,,,0,,,47,39
40800,note_on,60,0,2,,,,,,,,,,,,,,,0,,,47,0
40800,note_on,0,0,2,,,,,,,,,,,,,,,0,,,59,44
41040,note_on,240,0,2,,,,,,,,,,,,,,,0,,,59,0
41040,note_on,1200,0,1,,,,,,,,,,,,,,,0,,,71,37
41040,set_tempo,680,1,0,,,,,,,,,,,,1290045,,,,,,,
41280,note_on,240,0,1,,,,,,,,,,,,,,,0,,,71,0
41520,note_on,240,0,1,,,,,,,,,,,,,,,0,,,83,0
41520,note_on,0,0,1,,,,,,,,,,,,,,,0,,,81,49
41760,note_on,240,0,1,,,,,,,,,,,,,,,0,,,81,0
41760,note_on,0,0,1,,,,,,,,,,,,,,,0,,,78,0
41760,note_on,0,0,1,,,,,,,,,,,,,,,0,,,75,0
41760,note_on,0,0,1,,,,,,,,,,,,,,,0,,,68,41
41760,note_on,0,0,1,,,,,,,,,,,,,,,0,,,80,49
41760,note_on,0,0,1,,,,,,,,,,,,,,,0,,,76,41
41760,control_change,0,0,2,,,,,,,,,,,,,,,0,64,0,,
41760,note_on,720,0,2,,,,,,,,,,,,,,,0,,,37,31
41760,set_tempo,720,1,0,,,,,,,,,,,,1232792,,,,,,,
41834,control_change,74,0,2,,,,,,,,,,,,,,,0,64,127,,
42000,note_on,166,0,2,,,,,,,,,,,,,,,0,,,37,0
42180,note_on,180,0,2,,,,,,,,,,,,,,,0,,,49,30
42240,note_on,60,0,2,,,,,,,,,,,,,,,0,,,49,0
42240,note_on,0,0,2,,,,,,,,,,,,,,,0,,,61,36
42480,note_on,720,0,1,,,,,,,,,,,,,,,0,,,73,38
42480,set_tempo,720,1,0,,,,,,,,,,,,1278500,,,,,,,
42480,note_on,240,0,2,,,,,,,,,,,,,,,0,,,61,0
42720,note_on,240,0,1,,,,,,,,,,,,,,,0,,,73,0
42734,control_change,254,0,2,,,,,,,,,,,,,,,0,64,0,,
42776,control_change,42,0,2,,,,,,,,,,,,,,,0,64,127,,
42960,note_on,0,0,1,,,,,,,,,,,,,,,0,,,64,36
42960,note_on,0,0,1,,,,,,,,,,,,,,,0,,,80,0
42960,note_on,0,0,1,,,,,,,,,,,,,,,0,,,76,0
42960,note_on,240,0,1,,,,,,,,,,,,,,,0,,,68,0
42960,note_on,0,0,1,,,,,,,,,,,,,,,0,,,76,44
42960,note_on,0,0,1,,,,,,,,,,,,,,,0,,,68,36
43200,note_on,0,0,1,,,,,,,,,,,,,,,0,,,64,0
43200,note_on,0,0,1,,,,,,,,,,,,,,,0,,,68,0
43200,set_tempo,720,1,0,,,,,,,,,,,,1189296,,,,,,,
43200,note_on,0,0,1,,,,,,,,,,,,,,,0,,,75,49
43200,note_on,0,0,1,,,,,,,,,,,,,,,0,,,66,41
43200,note_on,424,0,2,,,,,,,,,,,,,,,0,,,42,27
43200,note_on,0,0,1,,,,,,,,,,,,,,,0,,,69,41
43200,note_on,240,0,1,,,,,,,,,,,,,,,0,,,76,0
43200,note_on,0,0,2,,,,,,,,,,,,,,,0,,,30,23
43274,control_change,74,0,2,,,,,,,,,,,,,,,0,64,127,,
43440,note_on,0,0,2,,,,,,,,,,,,,,,0,,,42,0
43440,note_on,166,0,2,,,,,,,,,,,,,,,0,,,30,0
43560,note_on,0,0,1,,,,,,,,,,,,,,,0,,,73,49
43560,note_on,360,0,1,,,,,,,,,,,,,,,0,,,75,0
43560,set_tempo,360,1,0,,,,,,,,,,,,1223990,,,,,,,
43620,note_on,180,0,2,,,,,,,,,,,,,,,0,,,42,30
43680,note_on,0,0,1,,,,,,,,,,,,,,,0,,,66,40
43680,note_on,0,0,1,,,,,,,,,,,,,,,0,,,69,40
43680,note_on,0,0,1,,,,,,,,,,,,,,,0,,,69,0
43680,note_on,120,0,1,,,,,,,,,,,,,,,0,,,73,0
43680,note_on,60,0,2,,,,,,,,,,,,,,,0,,,42,0
43680,note_on,0,0,2,,,,,,,,,,,,,,,0,,,54,36
43680,note_on,0,0,1,,,,,,,,,,,,,,,0,,,73,49
43680,note_on,0,0,1,,,,,,,,,,,,,,,0,,,66,0
43920,set_tempo,360,1,0,,,,,,,,,,,,1278500,,,,,,,
43920,note_on,240,0,1,,,,,,,,,,,,,,,0,,,81,36
43920,note_on,240,0,2,,,,,,,,,,,,,,,0,,,54,0
44160,note_on,240,0,1,,,,,,,,,,,,,,,0,,,81,0
44174,control_change,254,0,2,,,,,,,,,,,,,,,0,64,0,,
44216,control_change,42,0,2,,,,,,,,,,,,,,,0,64,127,,
44400,note_on,240,0,1,,,,,,,,,,,,,,,0,,,66,0
44400,note_on,0,0,1,,,,,,,,,,,,,,,0,,,73,0
44400,note_on,0,0,1,,,,,,,,,,,,,,,0,,,69,0
44400,note_on,0,0,1,,,,,,,,,,,,,,,0,,,69,36
44400,note_on,0,0,1,,,,,,,,,,,,,,,0,,,73,44
44400,note_on,0,0,1,,,,,,,,,,,,,,,0,,,63,36
44640,set_tempo,720,1,0,,,,,,,,,,,,1232792,,,,,,,
44640,note_on,0,0,2,,,,,,,,,,,,,,,0,,,44,31
44640,note_on,0,0,1,,,,,,,,,,,,,,,0,,,68,41
44640,note_on,240,0,1,,,,,,,,,,,,,,,0,,,73,0
44640,note_on,424,0,2,,,,,,,,,,,,,,,0,,,32,26
44640,note_on,0,0,1,,,,,,,,,,,,,,,0,,,63,0
44640,note_on,0,0,1,,,,,,,,,,,,,,,0,,,73,49
44640,note_on,0,0,1,,,,,,,,,,,,,,,0,,,69,0
44640,note_on,0,0,1,,,,,,,,,,,,,,,0,,,64,41
44714,control_change,74,0,2,,,,,,,,,,,,,,,0,64,127,,
44880,note_on,166,0,2,,,,,,,,,,,,,,,0,,,44,0
44880,note_on,0,0,2,,,,,,,,,,,,,,,0,,,32,0
45060,note_on,180,0,2,,,,,,,,,,,,,,,0,,,44,27
45120,note_on,0,0,2,,,,,,,,,,,,,,,0,,,56,32
45120,note_on,60,0,2,,,,,,,,,,,,,,,0,,,44,0
45120,note_on,0,0,1,,,,,,,,,,,,,,,0,,,71,49
45120,note_on,480,0,1,,,,,,,,,,,,,,,0,,,73,0
45360,note_on,240,0,2,,,,,,,,,,,,,,,0,,,56,0
45360,set_tempo,720,1,0,,,,,,,,,,,,1146132,,,,,,,
45360,note_on,240,0,1,,,,,,,,,,,,,,,0,,,80,38
45600,note_on,240,0,1,,,,,,,,,,,,,,,0,,,80,0
45600,note_on,0,0,1,,,,,,,,,,,,,,,0,,,64,0
45600,note_on,0,0,1,,,,,,,,,,,,,,,0,,,60,32
45600,set_tempo,240,1,0,,,,,,,,,,,,1236094,,,,,,,
45614,control_change,254,0,2,,,,,,,,,,,,,,,0,64,0,,
45656,control_change,42,0,2,,,,,,,,,,,,,,,0,64,127,,
45840,set_tempo,240,1,0,,,,,,,,,,,,1273615,,,,,,,
45840,note_on,0,0,1,,,,,,,,,,,,,,,0,,,69,41
45840,note_on,0,0,1,,,,,,,,,,,,,,,0,,,68,0
45840,note_on,240,0,1,,,,,,,,,,,,,,,0,,,71,0
45840,note_on,0,0,1,,,,,,,,,,,,,,,0,,,66,34
46080,note_on,424,0,2,,,,,,,,,,,,,,,0,,,37,31
46080,set_tempo,240,1,0,,,,,,,,,,,,1232792,,,,,,,
46080,note_on,240,0,1,,,,,,,,,,,,,,,0,,,69,0
46080,note_on,0,0,1,,,,,,,,,,,,,,,0,,,66,0
46080,note_on,0,0,1,,,,,,,,,,,,,,,0,,,60,0
46080,note_on,0,0,1,,,,,,,,,,,,,,,0,,,61,34
46080,note_on,0,0,1,,,,,,,,,,,,,,,0,,,64,34
46080,note_on,0,0,1,,,,,,,,,,,,,,,0,,,68,40
46080,control_change,0,0,2,,,,,,,,,,,,,,,0,64,0,,
46115,control_change,35,0,2,,,,,,,,,,,,,,,0,64,127,,
46320,note_on,205,0,2,,,,,,,,,,,,,,,0,,,37,0
46320,set_tempo,240,1,0,,,,,,,,,,,,1278500,,,,,,,
46500,note_on,180,0,2,,,,,,,,,,,,,,,0,,,37,27
46560,note_on,0,0,1,,,,,,,,,,,,,,,0,,,61,0
46560,note_on,60,0,2,,,,,,,,,,,,,,,0,,,37,0
46560,note_on,0,0,2,,,,,,,,,,,,,,,0,,,49,32
46560,note_on,0,0,1,,,,,,,,,,,,,,,0,,,61,30
46560,note_on,0,0,1,,,,,,,,,,,,,,,0,,,56,30
46560,note_on,0,0,1,,,,,,,,,,,,,,,0,,,64,36
46560,note_on,0,0,1,,,,,,,,,,,,,,,0,,,64,0
46560,note_on,480,0,1,,,,,,,,,,,,,,,0,,,68,0
46800,note_on,240,0,1,,,,,,,,,,,,,,,0,,,73,32
46800,note_on,240,0,2,,,,,,,,,,,,,,,0,,,49,0
47040,set_tempo,720,1,0,,,,,,,,,,,,1200720,,,,,,,
47040,note_on,240,0,1,,,,,,,,,,,,,,,0,,,73,0
47280,note_on,240,0,1,,,,,,,,,,,,,,,0,,,64,0
47280,note_on,0,0,1,,,,,,,,,,,,,,,0,,,56,30
47280,note_on,0,0,1,,,,,,,,,,,,,,,0,,,64,36
47280,note_on,0,0,1,,,,,,,,,,,,,,,0,,,61,0
47280,note_on,0,0,1,,,,,,,,,,,,,,,0,,,56,0
47280,set_tempo,240,1,0,,,,,,,,,,,,1273615,,,,,,,
47280,note_on,0,0,1,,,,,,,,,,,,,,,0,,,61,30
47520,note_on,0,0,1,,,,,,,,,,,,,,,0,,,64,0
47520,note_on,0,0,1,,,,,,,,,,,,,,,0,,,56,0
47520,note_on,0,0,1,,,,,,,,,,,,,,,0,,,61,34
47520,note_on,0,0,1,,,,,,,,,,,,,,,0,,,55,34
47520,note_on,0,0,1,,,,,,,,,,,,,,,0,,,64,40
47520,note_on,240,0,1,,,,,,,,,,,,,,,0,,,61,0
47520,set_tempo,240,1,0,,,,,,,,,,,,1232792,,,,,,,
47520,control_change,0,0,2,,,,,,,,,,,,,,,0,64,0,,
47520,note_on,0,0,2,,,,,,,,,,,,,,,0,,,45,31
47520,note_on,720,0,2,,,,,,,,,,,,,,,0,,,33,31
47555,control_change,35,0,2,,,,,,,,,,,,,,,0,64,127,,
47760,note_on,0,0,2,,,,,,,,,,,,,,,0,,,33,0
47760,note_on,205,0,2,,,,,,,,,,,,,,,0,,,45,0
47760,set_tempo,240,1,0,,,,,,,,,,,,1278500,,,,,,,
47880,note_on,360,0,1,,,,,,,,,,,,,,,0,,,64,0
47880,note_on,0,0,1,,,,,,,,,,,,,,,0,,,63,40
48000,note_on,0,0,1,,,,,,,,,,,,,,,0,,,61,0
48000,note_on,0,0,1,,,,,,,,,,,,,,,0,,,55,30
48000,note_on,0,0,1,,,,,,,,,,,,,,,0,,,61,30
48000,note_on,0,0,1,,,,,,,,,,,,,,,0,,,63,36
48000,note_on,0,0,1,,,,,,,,,,,,,,,0,,,69,35
48000,note_on,0,0,1,,,,,,,,,,,,,,,0,,,55,0
48000,note_on,120,0,1,,,,,,,,,,,,,,,0,,,63,0
48240,note_on,240,0,1,,,,,,,,,,,,,,,0,,,69,0
48240,note_on,0,0,1,,,,,,,,,,,,,,,0,,,81,32
48480,set_tempo,720,1,0,,,,,,,,,,,,1200720,,,,,,,
48480,note_on,240,0,1,,,,,,,,,,,,,,,0,,,81,0
48720,note_on,240,0,1,,,,,,,,,,,,,,,0,,,55,0
48720,note_on,0,0,1,,,,,,,,,,,,,,,0,,,63,0
48720,note_on,0,0,1,,,,,,,,,,,,,,,0,,,61,0
48720,note_on,0,0,1,,,,,,,,,,,,,,,0,,,63,39
48720,note_on,0,0,1,,,,,,,,,,,,,,,0,,,61,33
48720,note_on,0,0,1,,,,,,,,,,,,,,,0,,,55,33
48720,set_tempo,240,1,0,,,,,,,,,,,,1260769,,,,,,,
48960,note_on,0,0,1,,,,,,,,,,,,,,,0,,,64,44
48960,note_on,0,0,1,,,,,,,,,,,,,,,0,,,61,37
48960,note_on,0,0,1,,,,,,,,,,,,,,,0,,,54,37
48960,note_on,0,0,1,,,,,,,,,,,,,,,0,,,63,0
48960,note_on,240,0,1,,,,,,,,,,,,,,,0,,,55,0
48960,set_tempo,240,1,0,,,,,,,,,,,,1232792,,,,,,,
48960,note_on,0,0,1,,,,,,,,,,,,,,,0,,,61,0
48960,note_on,0,0,2,,,,,,,,,,,,,,,0,,,45,31
48960,control_change,0,0,2,,,,,,,,,,,,,,,0,64,0,,
48960,note_on,1200,0,2,,,,,,,,,,,,,,,0,,,33,31
48995,control_change,35,0,2,,,,,,,,,,,,,,,0,64,127,,
49200,set_tempo,240,1,0,,,,,,,,,,,,1278500,,,,,,,
49200,note_on,205,0,2,,,,,,,,,,,,,,,0,,,45,0
49200,note_on,0,0,2,,,,,,,,,,,,,,,0,,,33,0
49320,note_on,360,0,1,,,,,,,,,,,,,,,0,,,64,0
49320,note_on,0,0,1,,,,,,,,,,,,,,,0,,,63,40
49440,note_on,0,0,1,,,,,,,,,,,,,,,0,,,61,30
49440,note_on,120,0,1,,,,,,,,,,,,,,,0,,,63,0
49440,note_on,0,0,1,,,,,,,,,,,,,,,0,,,61,0
49440,note_on,0,0,1,,,,,,,,,,,,,,,0,,,54,0
49440,note_on,0,0,1,,,,,,,,,,,,,,,0,,,63,36
49440,note_on,0,0,1,,,,,,,,,,,,,,,0,,,69,35
49440,note_on,0,0,1,,,,,,,,,,,,,,,0,,,54,30
49680,note_on,0,0,1,,,,,,,,,,,,,,,0,,,81,32
49680,note_on,240,0,1,,,,,,,,,,,,,,,0,,,69,0
49920,note_on,240,0,1,,,,,,,,,,,,,,,0,,,81,0
50160,note_on,0,0,1,,,,,,,,,,,,,,,0,,,61,30
50160,note_on,0,0,1,,,,,,,,,,,,,,,0,,,63,36
50160,note_on,0,0,1,,,,,,,,,,,,,,,0,,,54,0
50160,note_on,0,0,1,,,,,,,,,,,,,,,0,,,63,0
50160,note_on,240,0,1,,,,,,,,,,,,,,,0,,,61,0
50160,note_on,0,0,1,,,,,,,,,,,,,,,0,,,54,30
50400,note_on,0,0,2,,,,,,,,,,,,,,,0,,,32,31
50400,note_on,0,0,2,,,,,,,,,,,,,,,0,,,44,31
50400,control_change,1200,0,2,,,,,,,,,,,,,,,0,64,0,,
50400,note_on,0,0,1,,,,,,,,,,,,,,,0,,,63,40
50400,set_tempo,1200,1,0,,,,,,,,,,,,1232792,,,,,,,
50400,note_on,0,0,1,,,,,,,,,,,,,,,0,,,54,34
50400,note_on,0,0,1,,,,,,,,,,,,,,,0,,,60,34
50400,note_on,0,0,1,,,,,,,,,,,,,,,0,,,61,0
50400,note_on,240,0,1,,,,,,,,,,,,,,,0,,,54,0
50400,note_on,0,0,1,,,,,,,,,,,,,,,0,,,63,0
50435,control_change,35,0,2,,,,,,,,,,,,,,,0,64,127,,
50640,note_on,205,0,2,,,,,,,,,,,,,,,0,,,32,0
50640,note_on,0,0,2,,,,,,,,,,,,,,,0,,,44,0
50640,set_tempo,240,1,0,,,,,,,,,,,,1278500,,,,,,,
50880,note_on,480,0,1,,,,,,,,,,,,,,,0,,,68,35
50880,set_tempo,240,1,0,,,,,,,,,,,,1200720,,,,,,,
51120,note_on,0,0,1,,,,,,,,,,,,,,,0,,,60,0
51120,note_on,0,0,1,,,,,,,,,,,,,,,0,,,63,0
51120,note_on,0,0,1,,,,,,,,,,,,,,,0,,,64,35
51120,note_on,0,0,1,,,,,,,,,,,,,,,0,,,80,35
51120,note_on,240,0,1,,,,,,,,,,,,,,,0,,,68,0
51120,note_on,0,0,1,,,,,,,,,,,,,,,0,,,54,0
51120,set_tempo,240,1,0,,,,,,,,,,,,1236094,,,,,,,
51240,note_on,120,0,1,,,,,,,,,,,,,,,0,,,64,0
51240,note_on,0,0,1,,,,,,,,,,,,,,,0,,,66,35
51360,note_on,120,0,1,,,,,,,,,,,,,,,0,,,66,0
51360,note_on,0,0,1,,,,,,,,,,,,,,,0,,,68,35
51360,note_on,0,0,1,,,,,,,,,,,,,,,0,,,80,0
51360,set_tempo,240,1,0,,,,,,,,,,,,1273615,,,,,,,
51600,note_on,0,0,1,,,,,,,,,,,,,,,0,,,60,30
51600,note_on,240,0,1,,,,,,,,,,,,,,,0,,,68,0
51600,note_on,0,0,1,,,,,,,,,,,,,,,0,,,63,36
51600,note_on,0,0,1,,,,,,,,,,,,,,,0,,,57,30
51840,note_on,0,0,1,,,,,,,,,,,,,,,0,,,60,0
51840,control_change,0,0,2,,,,,,,,,,,,,,,0,64,0,,
51840,note_on,240,0,1,,,,,,,,,,,,,,,0,,,57,0
51840,note_on,0,0,1,,,,,,,,,,,,,,,0,,,63,0
51840,note_on,0,0,1,,,,,,,,,,,,,,,0,,,56,34
51840,note_on,1200,0,2,,,,,,,,,,,,,,,0,,,37,31
51840,note_on,0,0,1,,,,,,,,,,,,,,,0,,,64,40
51840,note_on,0,0,1,,,,,,,,,,,,,,,0,,,61,34
51840,set_tempo,480,1,0,,,,,,,,,,,,1232792,,,,,,,
51875,control_change,35,0,2,,,,,,,,,,,,,,,0,64,127,,
52080,set_tempo,240,1,0,,,,,,,,,,,,1278500,,,,,,,
52080,note_on,205,0,2,,,,,,,,,,,,,,,0,,,37,0
52320,note_on,240,0,2,,,,,,,,,,,,,,,0,,,49,32
52560,note_on,720,0,1,,,,,,,,,,,,,,,0,,,73,34
52560,note_on,240,0,2,,,,,,,,,,,,,,,0,,,49,0
52800,note_on,240,0,1,,,,,,,,,,,,,,,0,,,73,0
53040,note_on,0,0,1,,,,,,,,,,,,,,,0,,,61,30
53040,note_on,0,0,1,,,,,,,,,,,,,,,0,,,56,30
53040,note_on,0,0,1,,,,,,,,,,,,,,,0,,,64,0
53040,note_on,0,0,1,,,,,,,,,,,,,,,0,,,64,36
53040,note_on,240,0,1,,,,,,,,,,,,,,,0,,,56,0
53040,note_on,0,0,1,,,,,,,,,,,,,,,0,,,61,0
53280,note_on,0,0,1,,,,,,,,,,,,,,,0,,,61,28
53280,note_on,0,0,1,,,,,,,,,,,,,,,0,,,55,28
53280,note_on,0,0,1,,,,,,,,,,,,,,,0,,,56,0
53280,note_on,0,0,1,,,,,,,,,,,,,,,0,,,61,0
53280,note_on,240,0,1,,,,,,,,,,,,,,,0,,,64,0
53280,set_tempo,1200,1,0,,,,,,,,,,,,1232792,,,,,,,
53280,note_on,0,0,1,,,,,,,,,,,,,,,0,,,64,34
53280,control_change,720,0,2,,,,,,,,,,,,,,,0,64,0,,
53280,note_on,0,0,2,,,,,,,,,,,,,,,0,,,33,26
53315,control_change,35,0,2,,,,,,,,,,,,,,,0,64,127,,
53520,note_on,205,0,2,,,,,,,,,,,,,,,0,,,33,0
53520,set_tempo,240,1,0,,,,,,,,,,,,1278500,,,,,,,
53640,note_on,360,0,1,,,,,,,,,,,,,,,0,,,64,0
53640,note_on,0,0,1,,,,,,,,,,,,,,,0,,,63,34
53760,note_on,0,0,1,,,,,,,,,,,,,,,0,,,55,0
53760,note_on,0,0,1,,,,,,,,,,,,,,,0,,,61,0
53760,note_on,0,0,1,,,,,,,,,,,,,,,0,,,55,25
53760,note_on,0,0,1,,,,,,,,,,,,,,,0,,,61,25
53760,note_on,0,0,1,,,,,,,,,,,,,,,0,,,63,30
53760,note_on,120,0,1,,,,,,,,,,,,,,,0,,,63,0
53760,note_on,240,0,2,,,,,,,,,,,,,,,0,,,45,29
54000,note_on,240,0,2,,,,,,,,,,,,,,,0,,,45,0
54000,note_on,240,0,1,,,,,,,,,,,,,,,0,,,69,29
54240,note_on,240,0,1,,,,,,,,,,,,,,,0,,,69,0
54480,note_on,0,0,1,,,,,,,,,,,,,,,0,,,61,28
54480,note_on,0,0,1,,,,,,,,,,,,,,,0,,,61,0
54480,note_on,0,0,1,,,,,,,,,,,,,,,0,,,55,28
54480,note_on,240,0,1,,,,,,,,,,,,,,,0,,,55,0
54480,note_on,0,0,1,,,,,,,,,,,,,,,0,,,63,33
54480,note_on,0,0,1,,,,,,,,,,,,,,,0,,,63,0
54720,note_on,240,0,1,,,,,,,,,,,,,,,0,,,63,0
54720,note_on,0,0,1,,,,,,,,,,,,,,,0,,,55,0
54720,note_on,0,0,1,,,,,,,,,,,,,,,0,,,61,0
54720,control_change,720,0,2,,,,,,,,,,,,,,,0,64,0,,
54720,note_on,0,0,2,,,,,,,,,,,,,,,0,,,33,26
54720,note_on,0,0,1,,,,,,,,,,,,,,,0,,,54,31
54720,note_on,0,0,1,,,,,,,,,,,,,,,0,,,61,31
54720,set_tempo,1200,1,0,,,,,,,,,,,,1232792,,,,,,,
54720,note_on,0,0,1,,,,,,,,,,,,,,,0,,,64,37
54755,control_change,35,0,2,,,,,,,,,,,,,,,0,64,127,,
54960,note_on,205,0,2,,,,,,,,,,,,,,,0,,,33,0
54960,set_tempo,240,1,0,,,,,,,,,,,,1278500,,,,,,,
55080,note_on,0,0,1,,,,,,,,,,,,,,,0,,,63,34
55080,note_on,360,0,1,,,,,,,,,,,,,,,0,,,64,0
55200,note_on,0,0,1,,,,,,,,,,,,,,,0,,,61,25
55200,note_on,0,0,1,,,,,,,,,,,,,,,0,,,54,25
55200,note_on,0,0,1,,,,,,,,,,,,,,,0,,,54,0
55200,note_on,120,0,1,,,,,,,,,,,,,,,0,,,63,0
55200,note_on,240,0,2,,,,,,,,,,,,,,,0,,,45,29
55200,note_on,0,0,1,,,,,,,,,,,,,,,0,,,63,30
55200,note_on,0,0,1,,,,,,,,,,,,,,,0,,,61,0
55440,note_on,240,0,2,,,,,,,,,,,,,,,0,,,45,0
55440,note_on,240,0,1,,,,,,,,,,,,,,,0,,,69,29
55680,note_on,240,0,1,,,,,,,,,,,,,,,0,,,69,0
55920,note_on,0,0,1,,,,,,,,,,,,,,,0,,,54,25
55920,note_on,240,0,1,,,,,,,,,,,,,,,0,,,54,0
55920,note_on,0,0,1,,,,,,,,,,,,,,,0,,,61,0
55920,note_on,0,0,1,,,,,,,,,,,,,,,0,,,63,30
55920,note_on,0,0,1,,,,,,,,,,,,,,,0,,,61,25
55920,note_on,0,0,1,,,,,,,,,,,,,,,0,,,63,0
56160,note_on,0,0,1,,,,,,,,,,,,,,,0,,,63,28
56160,set_tempo,1200,1,0,,,,,,,,,,,,1232792,,,,,,,
56160,note_on,0,0,1,,,,,,,,,,,,,,,0,,,54,23
56160,note_on,0,0,1,,,,,,,,,,,,,,,0,,,60,23
56160,note_on,0,0,1,,,,,,,,,,,,,,,0,,,54,0
56160,note_on,240,0,1,,,,,,,,,,,,,,,0,,,63,0
56160,note_on,0,0,1,,,,,,,,,,,,,,,0,,,61,0
56160,note_on,0,0,2,,,,,,,,,,,,,,,0,,,32,22
56160,control_change,720,0,2,,,,,,,,,,,,,,,0,64,0,,
56195,control_change,35,0,2,,,,,,,,,,,,,,,0,64,127,,
56400,note_on,205,0,2,,,,,,,,,,,,,,,0,,,32,0
56400,set_tempo,240,1,0,,,,,,,,,,,,1278500,,,,,,,
56640,note_on,240,0,2,,,,,,,,,,,,,,,0,,,44,24
56640,set_tempo,240,1,0,,,,,,,,,,,,1236094,,,,,,,
56880,note_on,0,0,1,,,,,,,,,,,,,,,0,,,64,24
56880,note_on,0,0,1,,,,,,,,,,,,,,,0,,,63,0
56880,note_on,0,0,1,,,,,,,,,,,,,,,0,,,60,0
56880,note_on,0,0,2,,,,,,,,,,,,,,,0,,,56,24
56880,note_on,240,0,2,,,,,,,,,,,,,,,0,,,44,0
56880,note_on,720,0,1,,,,,,,,,,,,,,,0,,,54,0
57000,note_on,0,0,1,,,,,,,,,,,,,,,0,,,66,24
57000,note_on,120,0,1,,,,,,,,,,,,,,,0,,,64,0
57120,note_on,240,0,2,,,,,,,,,,,,,,,0,,,56,0
57120,set_tempo,480,1,0,,,,,,,,,,,,1273615,,,,,,,
57120,note_on,0,0,1,,,,,,,,,,,,,,,0,,,68,24
57120,note_on,120,0,1,,,,,,,,,,,,,,,0,,,66,0
57360,note_on,0,0,1,,,,,,,,,,,,,,,0,,,54,21
57360,note_on,0,0,1,,,,,,,,,,,,,,,0,,,57,21
57360,note_on,0,0,1,,,,,,,,,,,,,,,0,,,60,25
57360,note_on,240,0,1,,,,,,,,,,,,,,,0,,,68,0
57600,set_tempo,480,1,0,,,,,,,,,,,,1232792,,,,,,,
57600,note_on,0,0,2,,,,,,,,,,,,,,,0,,,56,25
57600,note_on,240,0,1,,,,,,,,,,,,,,,0,,,57,0
57600,note_on,0,0,2,,,,,,,,,,,,,,,0,,,52,25
57600,control_change,0,0,2,,,,,,,,,,,,,,,0,64,0,,
57600,note_on,0,0,2,,,,,,,,,,,,,,,0,,,37,26
57600,note_on,480,0,2,,,,,,,,,,,,,,,0,,,61,31
57600,note_on,0,0,1,,,,,,,,,,,,,,,0,,,54,0
57600,note_on,0,0,1,,,,,,,,,,,,,,,0,,,60,0
57635,control_change,35,0,2,,,,,,,,,,,,,,,0,64,127,,
57840,set_tempo,240,1,0,,,,,,,,,,,,1278500,,,,,,,
57840,note_on,205,0,2,,,,,,,,,,,,,,,0,,,37,0
58080,note_on,240,0,2,,,,,,,,,,,,,,,0,,,49,27
58320,note_on,720,0,1,,,,,,,,,,,,,,,0,,,73,29
58320,note_on,240,0,2,,,,,,,,,,,,,,,0,,,49,0
58560,note_on,240,0,1,,,,,,,,,,,,,,,0,,,73,0
59040,note_on,720,0,2,,,,,,,,,,,,,,,0,,,37,26
59280,note_on,240,0,2,,,,,,,,,,,,,,,0,,,37,0
59520,note_on,240,0,2,,,,,,,,,,,,,,,0,,,49,27
59760,note_on,240,0,2,,,,,,,,,,,,,,,0,,,49,0
59760,note_on,1200,0,1,,,,,,,,,,,,,,,0,,,73,29
60000,set_tempo,2160,1,0,,,,,,,,,,,,1449275,,,,,,,
60000,note_on,240,0,1,,,,,,,,,,,,,,,0,,,73,0
60240,set_tempo,240,1,0,,,,,,,,,,,,1385361,,,,,,,
60254,control_change,0,0,2,,,,,,,,,,,,,,,0,64,0,,
60254,note_on,494,0,2,,,,,,,,,,,,,,,0,,,32,42
60480,note_on,0,0,2,,,,,,,,,,,,,,,0,,,61,0
60480,note_on,0,0,2,,,,,,,,,,,,,,,0,,,52,0
60480,note_on,0,0,2,,,,,,,,,,,,,,,0,,,33,34
60480,note_on,226,0,2,,,,,,,,,,,,,,,0,,,56,0
60480,note_on,0,0,1,,,,,,,,,,,,,,,0,,,52,38
60480,set_tempo,0,1,0,,,,,,,,,,,,1171875,,,,,,,
60480,key_signature,240,1,0,,,,,,,,,,,A,,,,,,,,
60480,note_on,480,0,1,,,,,,,,,,,,,,,0,,,49,38
60480,note_on,0,0,1,,,,,,,,,,,,,,,0,,,57,45
60491,control_change,11,0,2,,,,,,,,,,,,,,,0,64,127,,
60494,note_on,3,0,2,,,,,,,,,,,,,,,0,,,32,0
60600,note_on,0,0,2,,,,,,,,,,,,,,,0,,,45,28
60600,note_on,106,0,2,,,,,,,,,,,,,,,0,,,33,0
60639,control_change,39,0,2,,,,,,,,,,,,,,,0,64,0,,
60660,note_on,21,0,2,,,,,,,,,,,,,,,0,,,45,0
60720,note_on,60,0,2,,,,,,,,,,,,,,,0,,,45,28
60780,note_on,60,0,2,,,,,,,,,,,,,,,0,,,45,0
60840,note_on,60,0,2,,,,,,,,,,,,,,,0,,,45,28
60900,note_on,60,0,2,,,,,,,,,,,,,,,0,,,45,0
60960,note_on,0,0,1,,,,,,,,,,,,,,,0,,,49,38
60960,note_on,0,0,1,,,,,,,,,,,,,,,0,,,49,0
60960,note_on,0,0,1,,,,,,,,,,,,,,,0,,,52,0
60960,note_on,480,0,1,,,,,,,,,,,,,,,0,,,57,0
60960,set_tempo,480,1,0,,,,,,,,,,,,1107420,,,,,,,
60960,note_on,60,0,2,,,,,,,,,,,,,,,0,,,33,33
60960,note_on,0,0,1,,,,,,,,,,,,,,,0,,,57,46
61006,control_change,46,0,2,,,,,,,,,,,,,,,0,64,127,,
61080,note_on,74,0,2,,,,,,,,,,,,,,,0,,,33,0
61080,note_on,0,0,2,,,,,,,,,,,,,,,0,,,45,28
61094,control_change,14,0,2,,,,,,,,,,,,,,,0,64,0,,
61140,note_on,46,0,2,,,,,,,,,,,,,,,0,,,45,0
61200,note_on,60,0,2,,,,,,,,,,,,,,,0,,,45,28
61260,note_on,60,0,2,,,,,,,,,,,,,,,0,,,45,0
61320,note_on,60,0,2,,,,,,,,,,,,,,,0,,,45,28
61380,note_on,60,0,2,,,,,,,,,,,,,,,0,,,45,0
61440,note_on,0,0,1,,,,,,,,,,,,,,,0,,,50,38
61440,note_on,60,0,2,,,,,,,,,,,,,,,0,,,33,32
61440,note_on,0,0,1,,,,,,,,,,,,,,,0,,,59,45
61440,set_tempo,480,1,0,,,,,,,,,,,,1138520,,,,,,,
61440,note_on,0,0,1,,,,,,,,,,,,,,,0,,,57,38
61440,note_on,0,0,1,,,,,,,,,,,,,,,0,,,49,0
61440,note_on,480,0,1,,,,,,,,,,,,,,,0,,,57,0
61479,control_change,39,0,2,,,,,,,,,,,,,,,0,64,127,,
61560,note_on,81,0,2,,,,,,,,,,,,,,,0,,,33,0
61560,note_on,0,0,2,,,,,,,,,,,,,,,0,,,45,28
61581,control_change,21,0,2,,,,,,,,,,,,,,,0,64,0,,
61620,note_on,39,0,2,,,,,,,,,,,,,,,0,,,45,0
61680,note_on,60,0,2,,,,,,,,,,,,,,,0,,,45,28
61740,note_on,60,0,2,,,,,,,,,,,,,,,0,,,45,0
61800,note_on,60,0,2,,,,,,,,,,,,,,,0,,,45,28
61860,note_on,60,0,2,,,,,,,,,,,,,,,0,,,45,0
61920,note_on,60,0,2,,,,,,,,,,,,,,,0,,,33,34
61920,note_on,480,0,1,,,,,,,,,,,,,,,0,,,59,0
61920,note_on,0,0,1,,,,,,,,,,,,,,,0,,,57,0
61920,note_on,0,0,1,,,,,,,,,,,,,,,0,,,50,0
61920,note_on,0,0,1,,,,,,,,,,,,,,,0,,,52,38
61920,note_on,0,0,1,,,,,,,,,,,,,,,0,,,61,46
61920,note_on,0,0,1,,,,,,,,,,,,,,,0,,,57,38
61977,control_change,57,0,2,,,,,,,,,,,,,,,0,64,127,,
62040,note_on,0,0,2,,,,,,,,,,,,,,,0,,,45,29
62040,note_on,63,0,2,,,,,,,,,,,,,,,0,,,33,0
62086,control_change,46,0,2,,,,,,,,,,,,,,,0,64,0,,
62100,note_on,14,0,2,,,,,,,,,,,,,,,0,,,45,0
62160,note_on,60,0,2,,,,,,,,,,,,,,,0,,,45,29
62220,note_on,60,0,2,,,,,,,,,,,,,,,0,,,45,0
62280,note_on,0,0,1,,,,,,,,,,,,,,,0,,,50,36
62280,note_on,0,0,1,,,,,,,,,,,,,,,0,,,57,36
62280,note_on,0,0,1,,,,,,,,,,,,,,,0,,,59,42
62280,note_on,60,0,2,,,,,,,,,,,,,,,0,,,45,29
62280,note_on,360,0,1,,,,,,,,,,,,,,,0,,,57,0
62290,note_on,10,0,1,,,,,,,,,,,,,,,0,,,61,0
62290,note_on,0,0,1,,,,,,,,,,,,,,,0,,,52,0
62340,note_on,60,0,2,,,,,,,,,,,,,,,0,,,45,0
62400,set_tempo,960,1,0,,,,,,,,,,,,1107420,,,,,,,
62400,note_on,110,0,1,,,,,,,,,,,,,,,0,,,57,0
62400,note_on,0,0,1,,,,,,,,,,,,,,,0,,,57,42
62400,note_on,60,0,2,,,,,,,,,,,,,,,0,,,45,29
62400,note_on,0,0,1,,,,,,,,,,,,,,,0,,,49,36
62410,note_on,10,0,1,,,,,,,,,,,,,,,0,,,50,0
62410,note_on,0,0,1,,,,,,,,,,,,,,,0,,,59,0
62460,note_on,60,0,2,,,,,,,,,,,,,,,0,,,45,0
62520,note_on,60,0,2,,,,,,,,,,,,,,,0,,,45,29
62580,note_on,60,0,2,,,,,,,,,,,,,,,0,,,45,0
62640,note_on,60,0,2,,,,,,,,,,,,,,,0,,,45,29
62700,note_on,60,0,2,,,,,,,,,,,,,,,0,,,45,0
62760,note_on,60,0,2,,,,,,,,,,,,,,,0,,,45,29
62820,note_on,60,0,2,,,,,,,,,,,,,,,0,,,45,0
62880,note_on,60,0,2,,,,,,,,,,,,,,,0,,,33,34
62908,control_change,28,0,2,,,,,,,,,,,,,,,0,64,127,,
63000,note_on,92,0,2,,,,,,,,,,,,,,,0,,,33,0
63000,note_on,0,0,2,,,,,,,,,,,,,,,0,,,45,26
63021,control_change,21,0,2,,,,,,,,,,,,,,,0,64,0,,
63060,note_on,39,0,2,,,,,,,,,,,,,,,0,,,45,0
63120,note_on,0,0,1,,,,,,,,,,,,,,,0,,,52,38
63120,note_on,0,0,1,,,,,,,,,,,,,,,0,,,57,38
63120,note_on,0,0,1,,,,,,,,,,,,,,,0,,,61,46
63120,note_on,710,0,1,,,,,,,,,,,,,,,0,,,49,0
63120,note_on,60,0,2,,,,,,,,,,,,,,,0,,,45,29
63120,note_on,0,0,1,,,,,,,,,,,,,,,0,,,57,0
63120,set_tempo,720,1,0,,,,,,,,,,,,1250000,,,,,,,
63180,note_on,60,0,2,,,,,,,,,,,,,,,0,,,45,0
63240,note_on,60,0,2,,,,,,,,,,,,,,,0,,,45,31
63300,note_on,60,0,2,,,,,,,,,,,,,,,0,,,45,0
63360,note_on,60,0,2,,,,,,,,,,,,,,,0,,,33,34
63360,note_on,240,0,1,,,,,,,,,,,,,,,0,,,61,0
63360,set_tempo,240,1,0,,,,,,,,,,,,1107420,,,,,,,
63360,note_on,0,0,1,,,,,,,,,,,,,,,0,,,57,0
63360,note_on,0,0,1,,,,,,,,,,,,,,,0,,,52,0
63360,note_on,0,0,1,,,,,,,,,,,,,,,0,,,54,40
63360,note_on,0,0,1,,,,,,,,,,,,,,,0,,,57,40
63360,note_on,0,0,1,,,,,,,,,,,,,,,0,,,62,48
63438,control_change,78,0,2,,,,,,,,,,,,,,,0,64,127,,
63480,note_on,0,0,2,,,,,,,,,,,,,,,0,,,45,31
63480,note_on,42,0,2,,,,,,,,,,,,,,,0,,,33,0
63540,note_on,60,0,2,,,,,,,,,,,,,,,0,,,45,0
63558,control_change,18,0,2,,,,,,,,,,,,,,,0,64,0,,
63600,note_on,42,0,2,,,,,,,,,,,,,,,0,,,45,31
63660,note_on,60,0,2,,,,,,,,,,,,,,,0,,,45,0
63720,note_on,60,0,2,,,,,,,,,,,,,,,0,,,45,31
63720,note_on,0,0,1,,,,,,,,,,,,,,,0,,,57,38
63720,note_on,0,0,1,,,,,,,,,,,,,,,0,,,61,45
63720,note_on,0,0,1,,,,,,,,,,,,,,,0,,,52,38
63720,note_on,360,0,1,,,,,,,,,,,,,,,0,,,57,0
63730,note_on,10,0,1,,,,,,,,,,,,,,,0,,,62,0
63730,note_on,0,0,1,,,,,,,,,,,,,,,0,,,54,0
63780,note_on,60,0,2,,,,,,,,,,,,,,,0,,,45,0
63840,note_on,110,0,1,,,,,,,,,,,,,,,0,,,57,0
63840,note_on,0,0,1,,,,,,,,,,,,,,,0,,,50,39
63840,note_on,0,0,1,,,,,,,,,,,,,,,0,,,57,39
63840,note_on,0,0,1,,,,,,,,,,,,,,,0,,,59,47
63840,set_tempo,480,1,0,,,,,,,,,,,,1077780,,,,,,,
63840,note_on,60,0,2,,,,,,,,,,,,,,,0,,,45,31
63850,note_on,10,0,1,,,,,,,,,,,,,,,0,,,52,0
63850,note_on,0,0,1,,,,,,,,,,,,,,,0,,,61,0
63900,note_on,60,0,2,,,,,,,,,,,,,,,0,,,45,0
63960,note_on,60,0,2,,,,,,,,,,,,,,,0,,,45,30
64020,note_on,60,0,2,,,,,,,,,,,,,,,0,,,45,0
64080,note_on,60,0,2,,,,,,,,,,,,,,,0,,,33,31
64080,note_on,230,0,1,,,,,,,,,,,,,,,0,,,57,0
64080,note_on,0,0,1,,,,,,,,,,,,,,,0,,,50,0
64080,note_on,0,0,1,,,,,,,,,,,,,,,0,,,59,0
64080,note_on,0,0,1,,,,,,,,,,,,,,,0,,,54,38
64080,note_on,0,0,1,,,,,,,,,,,,,,,0,,,57,38
64080,note_on,0,0,1,,,,,,,,,,,,,,,0,,,62,45
64172,control_change,92,0,2,,,,,,,,,,,,,,,0,64,127,,
64200,note_on,28,0,2,,,,,,,,,,,,,,,0,,,33,0
64200,note_on,0,0,2,,,,,,,,,,,,,,,0,,,45,31
64320,note_on,120,0,2,,,,,,,,,,,,,,,0,,,45,0
64320,note_on,0,0,2,,,,,,,,,,,,,,,0,,,33,31
64320,set_tempo,480,1,0,,,,,,,,,,,,1128032,,,,,,,
64320,note_on,240,0,1,,,,,,,,,,,,,,,0,,,62,0
64320,note_on,0,0,1,,,,,,,,,,,,,,,0,,,54,0
64320,note_on,0,0,1,,,,,,,,,,,,,,,0,,,52,38
64320,note_on,0,0,1,,,,,,,,,,,,,,,0,,,57,38
64320,note_on,0,0,1,,,,,,,,,,,,,,,0,,,57,0
64320,note_on,0,0,1,,,,,,,,,,,,,,,0,,,61,45
64355,control_change,35,0,2,,,,,,,,,,,,,,,0,64,0,,
64412,control_change,57,0,2,,,,,,,,,,,,,,,0,64,127,,
64440,note_on,28,0,2,,,,,,,,,,,,,,,0,,,33,0
64440,note_on,0,0,2,,,,,,,,,,,,,,,0,,,45,31
64560,note_on,240,0,1,,,,,,,,,,,,,,,0,,,61,0
64560,note_on,0,0,2,,,,,,,,,,,,,,,0,,,37,31
64560,note_on,0,0,1,,,,,,,,,,,,,,,0,,,57,45
64560,note_on,0,0,1,,,,,,,,,,,,,,,0,,,52,38
64560,note_on,0,0,1,,,,,,,,,,,,,,,0,,,49,38
64560,note_on,0,0,1,,,,,,,,,,,,,,,0,,,52,0
64560,note_on,0,0,1,,,,,,,,,,,,,,,0,,,57,0
64560,note_on,120,0,2,,,,,,,,,,,,,,,0,,,45,0
64680,note_on,0,0,2,,,,,,,,,,,,,,,0,,,49,31
64680,note_on,120,0,2,,,,,,,,,,,,,,,0,,,37,0
64800,note_on,120,0,2,,,,,,,,,,,,,,,0,,,49,0
64800,control_change,0,0,2,,,,,,,,,,,,,,,0,64,0,,
64800,note_on,0,0,2,,,,,,,,,,,,,,,0,,,40,34
64800,note_on,0,0,1,,,,,,,,,,,,,,,0,,,47,39
64800,note_on,0,0,1,,,,,,,,,,,,,,,0,,,56,47
64800,note_on,240,0,1,,,,,,,,,,,,,,,0,,,57,0
64800,note_on,0,0,1,,,,,,,,,,,,,,,0,,,52,0
64800,note_on,0,0,1,,,,,,,,,,,,,,,0,,,49,0
64800,note_on,0,0,1,,,,,,,,,,,,,,,0,,,52,39
64856,control_change,56,0,2,,,,,,,,,,,,,,,0,64,127,,
64920,note_on,64,0,2,,,,,,,,,,,,,,,0,,,40,0
64920,note_on,0,0,2,,,,,,,,,,,,,,,0,,,40,33
65040,note_on,120,0,2,,,,,,,,,,,,,,,0,,,40,0
65040,note_on,0,0,2,,,,,,,,,,,,,,,0,,,40,36
65160,note_on,120,0,2,,,,,,,,,,,,,,,0,,,40,0
65160,note_on,0,0,2,,,,,,,,,,,,,,,0,,,40,39
65273,control_change,113,0,2,,,,,,,,,,,,,,,0,64,0,,
65280,note_on,7,0,2,,,,,,,,,,,,,,,0,,,40,0
65280,note_on,0,0,2,,,,,,,,,,,,,,,0,,,40,37
65280,set_tempo,960,1,0,,,,,,,,,,,,1097293,,,,,,,
65340,note_on,60,0,2,,,,,,,,,,,,,,,0,,,40,0
65400,note_on,60,0,2,,,,,,,,,,,,,,,0,,,40,35
65460,note_on,60,0,2,,,,,,,,,,,,,,,0,,,40,0
65520,note_on,0,0,1,,,,,,,,,,,,,,,0,,,52,0
65520,note_on,0,0,1,,,,,,,,,,,,,,,0,,,47,0
65520,note_on,60,0,2,,,,,,,,,,,,,,,0,,,38,33
65520,note_on,0,0,1,,,,,,,,,,,,,,,0,,,47,38
65520,note_on,0,0,1,,,,,,,,,,,,,,,0,,,54,38
65520,note_on,0,0,1,,,,,,,,,,,,,,,0,,,56,46
65520,note_on,720,0,1,,,,,,,,,,,,,,,0,,,56,0
65580,note_on,60,0,2,,,,,,,,,,,,,,,0,,,38,0
65600,set_tempo,320,1,0,,,,,,,,,,,,1097293,,,,,,,
65640,note_on,60,0,2,,,,,,,,,,,,,,,0,,,38,31
65700,note_on,60,0,2,,,,,,,,,,,,,,,0,,,38,0
65760,note_on,60,0,2,,,,,,,,,,,,,,,0,,,37,30
65760,note_on,0,0,1,,,,,,,,,,,,,,,0,,,56,49
65760,set_tempo,160,1,0,,,,,,,,,,,,1107420,,,,,,,
65760,note_on,0,0,1,,,,,,,,,,,,,,,0,,,49,41
65760,note_on,240,0,1,,,,,,,,,,,,,,,0,,,56,0
65760,note_on,0,0,1,,,,,,,,,,,,,,,0,,,52,41
65760,note_on,0,0,1,,,,,,,,,,,,,,,0,,,54,0
65760,note_on,0,0,1,,,,,,,,,,,,,,,0,,,47,0
65820,note_on,60,0,2,,,,,,,,,,,,,,,0,,,37,0
65880,note_on,60,0,2,,,,,,,,,,,,,,,0,,,37,30
65880,set_tempo,120,1,0,,,,,,,,,,,,1117527,,,,,,,
65940,note_on,60,0,2,,,,,,,,,,,,,,,0,,,37,0
66000,set_tempo,120,1,0,,,,,,,,,,,,1128032,,,,,,,
66000,note_on,60,0,2,,,,,,,,,,,,,,,0,,,35,29
66000,note_on,240,0,1,,,,,,,,,,,,,,,0,,,56,0
66000,note_on,0,0,1,,,,,,,,,,,,,,,0,,,56,49
66000,note_on,0,0,1,,,,,,,,,,,,,,,0,,,52,41
66000,note_on,0,0,1,,,,,,,,,,,,,,,0,,,50,41
66000,note_on,0,0,1,,,,,,,,,,,,,,,0,,,49,0
66000,note_on,0,0,1,,,,,,,,,,,,,,,0,,,52,0
66060,note_on,60,0,2,,,,,,,,,,,,,,,0,,,35,0
66120,note_on,60,0,2,,,,,,,,,,,,,,,0,,,35,29
66120,set_tempo,120,1,0,,,,,,,,,,,,1138520,,,,,,,
66180,note_on,60,0,2,,,,,,,,,,,,,,,0,,,35,0
66240,set_tempo,120,1,0,,,,,,,,,,,,1171875,,,,,,,
66240,note_on,60,0,2,,,,,,,,,,,,,,,0,,,33,34
66240,note_on,0,0,1,,,,,,,,,,,,,,,0,,,52,38
66240,note_on,0,0,1,,,,,,,,,,,,,,,0,,,52,0
66240,note_on,0,0,1,,,,,,,,,,,,,,,0,,,50,0
66240,note_on,0,0,1,,,,,,,,,,,,,,,0,,,57,45
66240,note_on,0,0,1,,,,,,,,,,,,,,,0,,,49,38
66240,note_on,240,0,1,,,,,,,,,,,,,,,0,,,56,0
66318,control_change,78,0,2,,,,,,,,,,,,,,,0,64,127,,
66360,note_on,42,0,2,,,,,,,,,,,,,,,0,,,33,0
66360,note_on,0,0,2,,,,,,,,,,,,,,,0,,,45,28
66420,note_on,60,0,2,,,,,,,,,,,,,,,0,,,45,0
66480,note_on,0,0,2,,,,,,,,,,,,,,,0,,,45,28
66480,control_change,60,0,2,,,,,,,,,,,,,,,0,64,0,,
66540,note_on,60,0,2,,,,,,,,,,,,,,,0,,,45,0
66600,note_on,60,0,2,,,,,,,,,,,,,,,0,,,45,28
66660,note_on,60,0,2,,,,,,,,,,,,,,,0,,,45,0
66720,note_on,0,0,1,,,,,,,,,,,,,,,0,,,57,46
66720,note_on,0,0,1,,,,,,,,,,,,,,,0,,,49,0
66720,note_on,0,0,1,,,,,,,,,,,,,,,0,,,49,38
66720,set_tempo,480,1,0,,,,,,,,,,,,1107420,,,,,,,
66720,note_on,60,0,2,,,,,,,,,,,,,,,0,,,33,33
66720,note_on,0,0,1,,,,,,,,,,,,,,,0,,,52,0
66720,note_on,480,0,1,,,,,,,,,,,,,,,0,,,57,0
66773,control_change,53,0,2,,,,,,,,,,,,,,,0,64,127,,
66840,note_on,67,0,2,,,,,,,,,,,,,,,0,,,33,0
66840,note_on,0,0,2,,,,,,,,,,,,,,,0,,,45,28
66893,control_change,53,0,2,,,,,,,,,,,,,,,0,64,0,,
66900,note_on,7,0,2,,,,,,,,,,,,,,,0,,,45,0
66960,note_on,60,0,2,,,,,,,,,,,,,,,0,,,45,28
67020,note_on,60,0,2,,,,,,,,,,,,,,,0,,,45,0
67080,note_on,60,0,2,,,,,,,,,,,,,,,0,,,45,28
67140,note_on,60,0,2,,,,,,,,,,,,,,,0,,,45,0
67200,note_on,480,0,1,,,,,,,,,,,,,,,0,,,57,0
67200,note_on,0,0,1,,,,,,,,,,,,,,,0,,,50,38
67200,note_on,0,0,1,,,,,,,,,,,,,,,0,,,57,38
67200,note_on,0,0,1,,,,,,,,,,,,,,,0,,,59,45
67200,note_on,0,0,1,,,,,,,,,,,,,,,0,,,49,0
67200,set_tempo,480,1,0,,,,,,,,,,,,1138520,,,,,,,
67200,note_on,60,0,2,,,,,,,,,,,,,,,0,,,33,32
67232,control_change,32,0,2,,,,,,,,,,,,,,,0,64,127,,
67320,note_on,0,0,2,,,,,,,,,,,,,,,0,,,45,28
67320,note_on,88,0,2,,,,,,,,,,,,,,,0,,,33,0
67341,control_change,21,0,2,,,,,,,,,,,,,,,0,64,0,,
67380,note_on,39,0,2,,,,,,,,,,,,,,,0,,,45,0
67440,note_on,60,0,2,,,,,,,,,,,,,,,0,,,45,28
67500,note_on,60,0,2,,,,,,,,,,,,,,,0,,,45,0
67560,note_on,60,0,2,,,,,,,,,,,,,,,0,,,45,28
67620,note_on,60,0,2,,,,,,,,,,,,,,,0,,,45,0
67680,note_on,60,0,2,,,,,,,,,,,,,,,0,,,33,34
67680,note_on,0,0,1,,,,,,,,,,,,,,,0,,,61,46
67680,note_on,480,0,1,,,,,,,,,,,,,,,0,,,59,0
67680,note_on,0,0,1,,,,,,,,,,,,,,,0,,,50,0
67680,note_on,0,0,1,,,,,,,,,,,,,,,0,,,52,38
67680,note_on,0,0,1,,,,,,,,,,,,,,,0,,,57,38
67680,note_on,0,0,1,,,,,,,,,,,,,,,0,,,57,0
67737,control_change,57,0,2,,,,,,,,,,,,,,,0,64,127,,
67800,note_on,0,0,2,,,,,,,,,,,,,,,0,,,45,29
67800,note_on,63,0,2,,,,,,,,,,,,,,,0,,,33,0
67853,control_change,53,0,2,,,,,,,,,,,,,,,0,64,0,,
67860,note_on,7,0,2,,,,,,,,,,,,,,,0,,,45,0
67920,note_on,60,0,2,,,,,,,,,,,,,,,0,,,45,29
67980,note_on,60,0,2,,,,,,,,,,,,,,,0,,,45,0
68040,note_on,0,0,1,,,,,,,,,,,,,,,0,,,59,42
68040,note_on,0,0,1,,,,,,,,,,,,,,,0,,,57,36
68040,note_on,0,0,1,,,,,,,,,,,,,,,0,,,50,36
68040,note_on,360,0,1,,,,,,,,,,,,,,,0,,,57,0
68040,note_on,60,0,2,,,,,,,,,,,,,,,0,,,45,29
68050,note_on,0,0,1,,,,,,,,,,,,,,,0,,,52,0
68050,note_on,10,0,1,,,,,,,,,,,,,,,0,,,61,0
68100,note_on,60,0,2,,,,,,,,,,,,,,,0,,,45,0
68160,note_on,0,0,1,,,,,,,,,,,,,,,0,,,57,37
68160,note_on,60,0,2,,,,,,,,,,,,,,,0,,,45,29
68160,note_on,0,0,1,,,,,,,,,,,,,,,0,,,49,32
68160,note_on,110,0,1,,,,,,,,,,,,,,,0,,,57,0
68160,set_tempo,960,1,0,,,,,,,,,,,,1107420,,,,,,,
68170,note_on,10,0,1,,,,,,,,,,,,,,,0,,,50,0
68170,note_on,0,0,1,,,,,,,,,,,,,,,0,,,59,0
68220,note_on,60,0,2,,,,,,,,,,,,,,,0,,,45,0
68280,note_on,60,0,2,,,,,,,,,,,,,,,0,,,45,29
68340,note_on,60,0,2,,,,,,,,,,,,,,,0,,,45,0
68400,note_on,60,0,2,,,,,,,,,,,,,,,0,,,33,29
68460,note_on,60,0,2,,,,,,,,,,,,,,,0,,,33,0
68520,note_on,60,0,2,,,,,,,,,,,,,,,0,,,45,30
68580,note_on,60,0,2,,,,,,,,,,,,,,,0,,,45,0
68640,note_on,60,0,2,,,,,,,,,,,,,,,0,,,31,42
68663,control_change,23,0,2,,,,,,,,,,,,,,,0,64,127,,
68760,note_on,0,0,2,,,,,,,,,,,,,,,0,,,43,36
68760,note_on,97,0,2,,,,,,,,,,,,,,,0,,,31,0
68880,note_on,0,0,1,,,,,,,,,,,,,,,0,,,57,0
68880,set_tempo,720,1,0,,,,,,,,,,,,1237113,,,,,,,
68880,note_on,0,0,1,,,,,,,,,,,,,,,0,,,54,41
68880,note_on,0,0,1,,,,,,,,,,,,,,,0,,,52,41
68880,note_on,0,0,1,,,,,,,,,,,,,,,0,,,58,41
68880,note_on,120,0,2,,,,,,,,,,,,,,,0,,,43,0
68880,note_on,0,0,2,,,,,,,,,,,,,,,0,,,28,39
68880,note_on,0,0,1,,,,,,,,,,,,,,,0,,,61,50
68880,note_on,710,0,1,,,,,,,,,,,,,,,0,,,49,0
68909,control_change,29,0,2,,,,,,,,,,,,,,,0,64,0,,
68926,control_change,17,0,2,,,,,,,,,,,,,,,0,64,127,,
68970,note_on,44,0,2,,,,,,,,,,,,,,,0,,,28,0
69000,note_on,30,0,2,,,,,,,,,,,,,,,0,,,42,43
69090,note_on,90,0,2,,,,,,,,,,,,,,,0,,,42,0
69120,set_tempo,240,1,0,,,,,,,,,,,,1107420,,,,,,,
69120,note_on,0,0,1,,,,,,,,,,,,,,,0,,,58,0
69120,note_on,240,0,1,,,,,,,,,,,,,,,0,,,61,0
69120,control_change,30,0,2,,,,,,,,,,,,,,,0,64,0,,
69120,note_on,0,0,2,,,,,,,,,,,,,,,0,,,35,47
69120,note_on,0,0,1,,,,,,,,,,,,,,,0,,,54,0
69120,note_on,0,0,1,,,,,,,,,,,,,,,0,,,52,0
69120,note_on,0,0,1,,,,,,,,,,,,,,,0,,,62,53
69120,note_on,0,0,1,,,,,,,,,,,,,,,0,,,59,45
69120,note_on,0,0,1,,,,,,,,,,,,,,,0,,,54,45
69120,note_on,0,0,1,,,,,,,,,,,,,,,0,,,50,45
69198,control_change,78,0,2,,,,,,,,,,,,,,,0,64,127,,
69240,note_on,42,0,2,,,,,,,,,,,,,,,0,,,35,0
69240,note_on,0,0,2,,,,,,,,,,,,,,,0,,,47,36
69298,control_change,58,0,2,,,,,,,,,,,,,,,0,64,0,,
69360,note_on,62,0,2,,,,,,,,,,,,,,,0,,,47,0
69360,note_on,0,0,2,,,,,,,,,,,,,,,0,,,47,34
69480,note_on,0,0,1,,,,,,,,,,,,,,,0,,,52,38
69480,note_on,0,0,1,,,,,,,,,,,,,,,0,,,58,38
69480,note_on,0,0,1,,,,,,,,,,,,,,,0,,,54,38
69480,note_on,360,0,1,,,,,,,,,,,,,,,0,,,54,0
69480,note_on,0,0,1,,,,,,,,,,,,,,,0,,,61,44
69480,note_on,120,0,2,,,,,,,,,,,,,,,0,,,47,0
69480,note_on,0,0,2,,,,,,,,,,,,,,,0,,,49,32
69490,note_on,10,0,1,,,,,,,,,,,,,,,0,,,50,0
69490,note_on,0,0,1,,,,,,,,,,,,,,,0,,,59,0
69490,note_on,0,0,1,,,,,,,,,,,,,,,0,,,62,0
69600,set_tempo,480,1,0,,,,,,,,,,,,1077780,,,,,,,
69600,note_on,0,0,1,,,,,,,,,,,,,,,0,,,50,39
69600,note_on,0,0,1,,,,,,,,,,,,,,,0,,,57,39
69600,note_on,0,0,1,,,,,,,,,,,,,,,0,,,59,47
69600,note_on,120,0,2,,,,,,,,,,,,,,,0,,,49,0
69600,note_on,110,0,1,,,,,,,,,,,,,,,0,,,58,0
69600,note_on,0,0,2,,,,,,,,,,,,,,,0,,,50,31
69610,note_on,10,0,1,,,,,,,,,,,,,,,0,,,54,0
69610,note_on,0,0,1,,,,,,,,,,,,,,,0,,,61,0
69610,note_on,0,0,1,,,,,,,,,,,,,,,0,,,52,0
69664,control_change,64,0,2,,,,,,,,,,,,,,,0,64,127,,
69720,note_on,0,0,2,,,,,,,,,,,,,,,0,,,47,30
69720,note_on,56,0,2,,,,,,,,,,,,,,,0,,,50,0
69840,note_on,0,0,1,,,,,,,,,,,,,,,0,,,62,49
69840,note_on,120,0,2,,,,,,,,,,,,,,,0,,,47,0
69840,note_on,0,0,1,,,,,,,,,,,,,,,0,,,54,41
69840,note_on,0,0,1,,,,,,,,,,,,,,,0,,,59,0
69840,note_on,0,0,1,,,,,,,,,,,,,,,0,,,50,41
69840,note_on,0,0,1,,,,,,,,,,,,,,,0,,,57,0
69840,note_on,0,0,2,,,,,,,,,,,,,,,0,,,35,34
69840,note_on,230,0,1,,,,,,,,,,,,,,,0,,,50,0
69886,control_change,46,0,2,,,,,,,,,,,,,,,0,64,0,,
69932,control_change,46,0,2,,,,,,,,,,,,,,,0,64,127,,
69960,note_on,28,0,2,,,,,,,,,,,,,,,0,,,35,0
69960,note_on,0,0,2,,,,,,,,,,,,,,,0,,,47,33
69960,note_on,120,0,1,,,,,,,,,,,,,,,0,,,54,0
69960,note_on,0,0,1,,,,,,,,,,,,,,,0,,,56,40
70080,note_on,120,0,1,,,,,,,,,,,,,,,0,,,56,0
70080,note_on,0,0,1,,,,,,,,,,,,,,,0,,,62,0
70080,note_on,0,0,1,,,,,,,,,,,,,,,0,,,50,0
70080,note_on,0,0,1,,,,,,,,,,,,,,,0,,,52,39
70080,note_on,0,0,1,,,,,,,,,,,,,,,0,,,57,39
70080,note_on,0,0,1,,,,,,,,,,,,,,,0,,,61,46
70080,set_tempo,480,1,0,,,,,,,,,,,,1171875,,,,,,,
70080,note_on,0,0,2,,,,,,,,,,,,,,,0,,,37,32
70080,note_on,120,0,2,,,,,,,,,,,,,,,0,,,47,0
70115,control_change,35,0,2,,,,,,,,,,,,,,,0,64,0,,
70172,control_change,57,0,2,,,,,,,,,,,,,,,0,64,127,,
70200,note_on,0,0,2,,,,,,,,,,,,,,,0,,,49,31
70200,note_on,28,0,2,,,,,,,,,,,,,,,0,,,37,0
70320,note_on,0,0,1,,,,,,,,,,,,,,,0,,,52,0
70320,note_on,120,0,2,,,,,,,,,,,,,,,0,,,49,0
70320,note_on,240,0,1,,,,,,,,,,,,,,,0,,,61,0
70320,note_on,0,0,1,,,,,,,,,,,,,,,0,,,59,45
70320,note_on,0,0,1,,,,,,,,,,,,,,,0,,,56,38
70320,note_on,0,0,1,,,,,,,,,,,,,,,0,,,52,38
70320,note_on,0,0,1,,,,,,,,,,,,,,,0,,,50,38
70320,note_on,0,0,2,,,,,,,,,,,,,,,0,,,40,31
70320,note_on,0,0,1,,,,,,,,,,,,,,,0,,,57,0
70360,set_tempo,280,1,0,,,,,,,,,,,,1244555,,,,,,,
70440,note_on,0,0,2,,,,,,,,,,,,,,,0,,,52,31
70440,note_on,120,0,2,,,,,,,,,,,,,,,0,,,40,0
70560,note_on,0,0,1,,,,,,,,,,,,,,,0,,,50,0
70560,note_on,0,0,1,,,,,,,,,,,,,,,0,,,52,0
70560,note_on,0,0,1,,,,,,,,,,,,,,,0,,,56,0
70560,note_on,0,0,1,,,,,,,,,,,,,,,0,,,50,39
70560,note_on,0,0,1,,,,,,,,,,,,,,,0,,,52,39
70560,note_on,0,0,1,,,,,,,,,,,,,,,0,,,56,39
70560,note_on,0,0,1,,,,,,,,,,,,,,,0,,,59,47
70560,note_on,240,0,1,,,,,,,,,,,,,,,0,,,59,0
70560,note_on,120,0,2,,,,,,,,,,,,,,,0,,,52,0
70560,set_tempo,200,1,0,,,,,,,,,,,,1128032,,,,,,,
70560,control_change,0,0,2,,,,,,,,,,,,,,,0,64,0,,
70616,control_change,56,0,2,,,,,,,,,,,,,,,0,64,127,,
70680,note_on,64,0,2,,,,,,,,,,,,,,,0,,,40,29
70800,note_on,120,0,2,,,,,,,,,,,,,,,0,,,40,0
70800,note_on,0,0,2,,,,,,,,,,,,,,,0,,,44,31
70920,note_on,0,0,2,,,,,,,,,,,,,,,0,,,40,33
70920,note_on,120,0,2,,,,,,,,,,,,,,,0,,,44,0
71040,note_on,0,0,1,,,,,,,,,,,,,,,0,,,56,0
71040,note_on,0,0,2,,,,,,,,,,,,,,,0,,,45,35
71040,control_change,0,0,2,,,,,,,,,,,,,,,0,64,0,,
71040,note_on,0,0,1,,,,,,,,,,,,,,,0,,,50,0
71040,note_on,120,0,2,,,,,,,,,,,,,,,0,,,40,0
71040,note_on,0,0,1,,,,,,,,,,,,,,,0,,,57,47
71040,note_on,0,0,1,,,,,,,,,,,,,,,0,,,49,39
71040,note_on,480,0,1,,,,,,,,,,,,,,,0,,,59,0
71040,set_tempo,480,1,0,,,,,,,,,,,,1097293,,,,,,,
71130,note_on,90,0,2,,,,,,,,,,,,,,,0,,,45,0
71160,note_on,30,0,2,,,,,,,,,,,,,,,0,,,37,32
71220,note_on,60,0,2,,,,,,,,,,,,,,,0,,,37,0
71280,note_on,240,0,1,,,,,,,,,,,,,,,0,,,52,0
71280,note_on,60,0,2,,,,,,,,,,,,,,,0,,,38,32
71340,note_on,60,0,2,,,,,,,,,,,,,,,0,,,38,0
71360,set_tempo,320,1,0,,,,,,,,,,,,1097293,,,,,,,
71400,note_on,60,0,2,,,,,,,,,,,,,,,0,,,40,32
71460,note_on,60,0,2,,,,,,,,,,,,,,,0,,,40,0
71520,note_on,60,0,2,,,,,,,,,,,,,,,0,,,42,32
71520,note_on,0,0,1,,,,,,,,,,,,,,,0,,,49,0
71520,set_tempo,160,1,0,,,,,,,,,,,,1107420,,,,,,,
71520,note_on,240,0,1,,,,,,,,,,,,,,,0,,,57,0
71580,note_on,60,0,2,,,,,,,,,,,,,,,0,,,42,0
71640,set_tempo,120,1,0,,,,,,,,,,,,1117527,,,,,,,
71640,note_on,60,0,2,,,,,,,,,,,,,,,0,,,40,32
71700,note_on,60,0,2,,,,,,,,,,,,,,,0,,,40,0
71760,set_tempo,120,1,0,,,,,,,,,,,,1128032,,,,,,,
71760,note_on,60,0,2,,,,,,,,,,,,,,,0,,,42,31
71820,note_on,60,0,2,,,,,,,,,,,,,,,0,,,42,0
71880,set_tempo,120,1,0,,,,,,,,,,,,1138520,,,,,,,
71880,note_on,60,0,2,,,,,,,,,,,,,,,0,,,44,31
71940,note_on,60,0,2,,,,,,,,,,,,,,,0,,,44,0
72000,note_on,480,0,1,,,,,,,,,,,,,,,0,,,69,62
72000,note_on,60,0,2,,,,,,,,,,,,,,,0,,,45,36
72000,set_tempo,120,1,0,,,,,,,,,,,,1107420,,,,,,,
72004,control_change,4,0,2,,,,,,,,,,,,,,,0,64,127,,
72080,note_on,80,0,1,,,,,,,,,,,,,,,0,,,64,31
72120,note_on,116,0,2,,,,,,,,,,,,,,,0,,,45,0
72120,set_tempo,120,1,0,,,,,,,,,,,,1097293,,,,,,,
72160,note_on,0,0,1,,,,,,,,,,,,,,,0,,,61,31
72160,note_on,80,0,1,,,,,,,,,,,,,,,0,,,64,0
72240,note_on,0,0,1,,,,,,,,,,,,,,,0,,,64,31
72240,note_on,0,0,2,,,,,,,,,,,,,,,0,,,52,27
72240,note_on,80,0,1,,,,,,,,,,,,,,,0,,,61,0
72240,set_tempo,120,1,0,,,,,,,,,,,,1087350,,,,,,,
72240,note_on,120,0,2,,,,,,,,,,,,,,,0,,,49,23
72320,note_on,80,0,1,,,,,,,,,,,,,,,0,,,64,0
72320,note_on,0,0,1,,,,,,,,,,,,,,,0,,,61,31
72360,set_tempo,120,1,0,,,,,,,,,,,,1077780,,,,,,,
72360,note_on,0,0,2,,,,,,,,,,,,,,,0,,,49,0
72360,note_on,120,0,2,,,,,,,,,,,,,,,0,,,52,0
72400,note_on,80,0,1,,,,,,,,,,,,,,,0,,,61,0
72400,note_on,0,0,1,,,,,,,,,,,,,,,0,,,57,31
72440,set_tempo,80,1,0,,,,,,,,,,,,1068186,,,,,,,
72480,note_on,120,0,2,,,,,,,,,,,,,,,0,,,45,36
72480,note_on,0,0,1,,,,,,,,,,,,,,,0,,,69,0
72480,note_on,0,0,1,,,,,,,,,,,,,,,0,,,69,63
72480,note_on,80,0,1,,,,,,,,,,,,,,,0,,,57,0
72560,note_on,80,0,1,,,,,,,,,,,,,,,0,,,64,31
72560,set_tempo,120,1,0,,,,,,,,,,,,1077780,,,,,,,
72600,note_on,120,0,2,,,,,,,,,,,,,,,0,,,45,0
72640,note_on,0,0,1,,,,,,,,,,,,,,,0,,,61,31
72640,note_on,80,0,1,,,,,,,,,,,,,,,0,,,64,0
72680,set_tempo,120,1,0,,,,,,,,,,,,1087350,,,,,,,
72720,note_on,80,0,1,,,,,,,,,,,,,,,0,,,61,0
72720,note_on,0,0,1,,,,,,,,,,,,,,,0,,,64,31
72720,note_on,120,0,2,,,,,,,,,,,,,,,0,,,49,24
72720,note_on,0,0,2,,,,,,,,,,,,,,,0,,,52,28
72760,set_tempo,80,1,0,,,,,,,,,,,,1097293,,,,,,,
72800,note_on,0,0,1,,,,,,,,,,,,,,,0,,,61,31
72800,note_on,80,0,1,,,,,,,,,,,,,,,0,,,64,0
72840,note_on,0,0,2,,,,,,,,,,,,,,,0,,,49,0
72840,note_on,120,0,2,,,,,,,,,,,,,,,0,,,52,0
72880,note_on,0,0,1,,,,,,,,,,,,,,,0,,,57,31
72880,note_on,80,0,1,,,,,,,,,,,,,,,0,,,61,0
72880,set_tempo,120,1,0,,,,,,,,,,,,1107420,,,,,,,
72960,note_on,0,0,1,,,,,,,,,,,,,,,0,,,71,62
72960,note_on,0,0,1,,,,,,,,,,,,,,,0,,,69,0
72960,note_on,80,0,1,,,,,,,,,,,,,,,0,,,57,0
72960,note_on,120,0,2,,,,,,,,,,,,,,,0,,,45,36
72960,set_tempo,80,1,0,,,,,,,,,,,,1117527,,,,,,,
73002,control_change,42,0,2,,,,,,,,,,,,,,,0,64,0,,
73040,note_on,80,0,1,,,,,,,,,,,,,,,0,,,68,31
73059,control_change,57,0,2,,,,,,,,,,,,,,,0,64,127,,
73080,note_on,21,0,2,,,,,,,,,,,,,,,0,,,45,0
73120,note_on,80,0,1,,,,,,,,,,,,,,,0,,,68,0
73120,note_on,0,0,1,,,,,,,,,,,,,,,0,,,64,32
73200,note_on,120,0,2,,,,,,,,,,,,,,,0,,,50,25
73200,note_on,0,0,2,,,,,,,,,,,,,,,0,,,52,29
73200,note_on,0,0,1,,,,,,,,,,,,,,,0,,,68,32
73200,note_on,80,0,1,,,,,,,,,,,,,,,0,,,64,0
73280,note_on,80,0,1,,,,,,,,,,,,,,,0,,,68,0
73280,note_on,0,0,1,,,,,,,,,,,,,,,0,,,64,32
73320,note_on,0,0,2,,,,,,,,,,,,,,,0,,,50,0
73320,note_on,120,0,2,,,,,,,,,,,,,,,0,,,52,0
73360,note_on,80,0,1,,,,,,,,,,,,,,,0,,,64,0
73360,note_on,0,0,1,,,,,,,,,,,,,,,0,,,59,32
73400,set_tempo,440,1,0,,,,,,,,,,,,1117527,,,,,,,
73440,note_on,80,0,1,,,,,,,,,,,,,,,0,,,59,0
73440,note_on,0,0,1,,,,,,,,,,,,,,,0,,,71,0
73440,note_on,0,0,1,,,,,,,,,,,,,,,0,,,73,63
73440,note_on,120,0,2,,,,,,,,,,,,,,,0,,,45,36
73440,control_change,0,0,2,,,,,,,,,,,,,,,0,64,0,,
73497,control_change,57,0,2,,,,,,,,,,,,,,,0,64,127,,
73520,note_on,80,0,1,,,,,,,,,,,,,,,0,,,69,32
73560,note_on,63,0,2,,,,,,,,,,,,,,,0,,,45,0
73600,note_on,0,0,1,,,,,,,,,,,,,,,0,,,64,32
73600,note_on,80,0,1,,,,,,,,,,,,,,,0,,,69,0
73600,set_tempo,200,1,0,,,,,,,,,,,,1107420,,,,,,,
73680,note_on,80,0,1,,,,,,,,,,,,,,,0,,,64,0
73680,note_on,0,0,1,,,,,,,,,,,,,,,0,,,69,32
73680,note_on,120,0,2,,,,,,,,,,,,,,,0,,,52,30
73760,note_on,80,0,1,,,,,,,,,,,,,,,0,,,69,0
73760,note_on,0,0,1,,,,,,,,,,,,,,,0,,,64,32
73800,set_tempo,200,1,0,,,,,,,,,,,,1097293,,,,,,,
73800,note_on,120,0,2,,,,,,,,,,,,,,,0,,,52,0
73840,note_on,0,0,1,,,,,,,,,,,,,,,0,,,62,32
73840,note_on,80,0,1,,,,,,,,,,,,,,,0,,,64,0
73860,note_on,20,0,1,,,,,,,,,,,,,,,0,,,73,0
73860,note_on,0,0,1,,,,,,,,,,,,,,,0,,,71,59
73920,note_on,0,0,1,,,,,,,,,,,,,,,0,,,69,59
73920,note_on,0,0,1,,,,,,,,,,,,,,,0,,,62,0
73920,note_on,120,0,2,,,,,,,,,,,,,,,0,,,45,36
73920,note_on,60,0,1,,,,,,,,,,,,,,,0,,,71,0
73964,control_change,44,0,2,,,,,,,,,,,,,,,0,64,0,,
74000,note_on,80,0,1,,,,,,,,,,,,,,,0,,,64,31
74000,set_tempo,200,1,0,,,,,,,,,,,,1087350,,,,,,,
74034,control_change,70,0,2,,,,,,,,,,,,,,,0,64,127,,
74040,note_on,6,0,2,,,,,,,,,,,,,,,0,,,45,0
74080,note_on,80,0,1,,,,,,,,,,,,,,,0,,,64,0
74080,note_on,0,0,1,,,,,,,,,,,,,,,0,,,61,31
74160,note_on,80,0,1,,,,,,,,,,,,,,,0,,,61,0
74160,note_on,0,0,1,,,,,,,,,,,,,,,0,,,64,31
74160,note_on,120,0,2,,,,,,,,,,,,,,,0,,,52,29
74160,note_on,0,0,2,,,,,,,,,,,,,,,0,,,49,25
74200,set_tempo,200,1,0,,,,,,,,,,,,1077780,,,,,,,
74240,note_on,0,0,1,,,,,,,,,,,,,,,0,,,61,31
74240,note_on,80,0,1,,,,,,,,,,,,,,,0,,,64,0
74280,note_on,0,0,2,,,,,,,,,,,,,,,0,,,52,0
74280,note_on,120,0,2,,,,,,,,,,,,,,,0,,,49,0
74320,note_on,80,0,1,,,,,,,,,,,,,,,0,,,61,0
74320,note_on,0,0,1,,,,,,,,,,,,,,,0,,,57,31
74400,set_tempo,200,1,0,,,,,,,,,,,,1068186,,,,,,,
74400,note_on,120,0,2,,,,,,,,,,,,,,,0,,,45,36
74400,note_on,80,0,1,,,,,,,,,,,,,,,0,,,57,0
74480,note_on,80,0,1,,,,,,,,,,,,,,,0,,,61,32
74520,note_on,120,0,2,,,,,,,,,,,,,,,0,,,45,0
74560,note_on,80,0,1,,,,,,,,,,,,,,,0,,,61,0
74560,note_on,0,0,1,,,,,,,,,,,,,,,0,,,64,32
74560,set_tempo,160,1,0,,,,,,,,,,,,1077780,,,,,,,
74640,note_on,80,0,1,,,,,,,,,,,,,,,0,,,64,0
74640,note_on,0,0,1,,,,,,,,,,,,,,,0,,,69,0
74640,note_on,0,0,1,,,,,,,,,,,,,,,0,,,61,32
74640,note_on,0,0,1,,,,,,,,,,,,,,,0,,,73,63
74640,note_on,120,0,2,,,,,,,,,,,,,,,0,,,52,29
74640,note_on,0,0,2,,,,,,,,,,,,,,,0,,,57,29
74720,note_on,80,0,1,,,,,,,,,,,,,,,0,,,61,0
74720,set_tempo,160,1,0,,,,,,,,,,,,1087350,,,,,,,
74720,note_on,0,0,1,,,,,,,,,,,,,,,0,,,64,32
74760,note_on,0,0,2,,,,,,,,,,,,,,,0,,,52,0
74760,note_on,120,0,2,,,,,,,,,,,,,,,0,,,57,0
74800,note_on,0,0,1,,,,,,,,,,,,,,,0,,,69,32
74800,note_on,80,0,1,,,,,,,,,,,,,,,0,,,64,0
74880,control_change,0,0,2,,,,,,,,,,,,,,,0,64,0,,
74880,note_on,0,0,1,,,,,,,,,,,,,,,0,,,74,67
74880,note_on,0,0,1,,,,,,,,,,,,,,,0,,,73,0
74880,note_on,80,0,1,,,,,,,,,,,,,,,0,,,69,0
74880,set_tempo,160,1,0,,,,,,,,,,,,1097293,,,,,,,
74880,note_on,120,0,2,,,,,,,,,,,,,,,0,,,45,36
74958,control_change,78,0,2,,,,,,,,,,,,,,,0,64,127,,
74960,note_on,80,0,1,,,,,,,,,,,,,,,0,,,69,34
74960,set_tempo,80,1,0,,,,,,,,,,,,1107420,,,,,,,
75000,note_on,42,0,2,,,,,,,,,,,,,,,0,,,45,0
75040,note_on,0,0,1,,,,,,,,,,,,,,,0,,,66,34
75040,note_on,80,0,1,,,,,,,,,,,,,,,0,,,69,0
75080,set_tempo,120,1,0,,,,,,,,,,,,1097293,,,,,,,
75120,note_on,80,0,1,,,,,,,,,,,,,,,0,,,66,0
75120,note_on,0,0,1,,,,,,,,,,,,,,,0,,,69,34
75120,note_on,0,0,2,,,,,,,,,,,,,,,0,,,54,24
75120,note_on,120,0,2,,,,,,,,,,,,,,,0,,,57,28
75200,note_on,80,0,1,,,,,,,,,,,,,,,0,,,69,0
75200,note_on,0,0,1,,,,,,,,,,,,,,,0,,,66,34
75200,set_tempo,120,1,0,,,,,,,,,,,,1087350,,,,,,,
75240,note_on,0,0,2,,,,,,,,,,,,,,,0,,,57,0
75240,note_on,120,0,2,,,,,,,,,,,,,,,0,,,54,0
75280,note_on,80,0,1,,,,,,,,,,,,,,,0,,,66,0
75280,note_on,0,0,1,,,,,,,,,,,,,,,0,,,64,32
75300,note_on,20,0,1,,,,,,,,,,,,,,,0,,,74,0
75300,note_on,0,0,1,,,,,,,,,,,,,,,0,,,73,62
75320,set_tempo,120,1,0,,,,,,,,,,,,1077780,,,,,,,
75360,note_on,0,0,1,,,,,,,,,,,,,,,0,,,64,0
75360,note_on,0,0,1,,,,,,,,,,,,,,,0,,,71,66
75360,note_on,120,0,2,,,,,,,,,,,,,,,0,,,45,36
75360,note_on,60,0,1,,,,,,,,,,,,,,,0,,,73,0
75367,control_change,7,0,2,,,,,,,,,,,,,,,0,64,0,,
75400,set_tempo,80,1,0,,,,,,,,,,,,1068186,,,,,,,
75424,control_change,57,0,2,,,,,,,,,,,,,,,0,64,127,,
75440,note_on,80,0,1,,,,,,,,,,,,,,,0,,,62,32
75480,note_on,56,0,2,,,,,,,,,,,,,,,0,,,45,0
75520,set_tempo,120,1,0,,,,,,,,,,,,1077780,,,,,,,
75520,note_on,0,0,1,,,,,,,,,,,,,,,0,,,69,32
75520,note_on,80,0,1,,,,,,,,,,,,,,,0,,,62,0
75600,note_on,0,0,1,,,,,,,,,,,,,,,0,,,74,62
75600,note_on,0,0,1,,,,,,,,,,,,,,,0,,,71,0
75600,note_on,80,0,1,,,,,,,,,,,,,,,0,,,69,0
75600,note_on,120,0,2,,,,,,,,,,,,,,,0,,,54,27
75600,note_on,0,0,2,,,,,,,,,,,,,,,0,,,57,32
75635,control_change,35,0,2,,,,,,,,,,,,,,,0,64,0,,
75640,set_tempo,120,1,0,,,,,,,,,,,,1087350,,,,,,,
75680,note_on,80,0,1,,,,,,,,,,,,,,,0,,,66,30
75692,control_change,57,0,2,,,,,,,,,,,,,,,0,64,127,,
75760,note_on,0,0,1,,,,,,,,,,,,,,,0,,,69,30
75760,note_on,80,0,1,,,,,,,,,,,,,,,0,,,66,0
75760,set_tempo,120,1,0,,,,,,,,,,,,1097293,,,,,,,
75840,note_on,148,0,2,,,,,,,,,,,,,,,0,,,57,0
75840,note_on,0,0,2,,,,,,,,,,,,,,,0,,,57,32
75840,note_on,80,0,1,,,,,,,,,,,,,,,0,,,69,0
75840,note_on,0,0,1,,,,,,,,,,,,,,,0,,,74,0
75840,set_tempo,80,1,0,,,,,,,,,,,,1107420,,,,,,,
75840,note_on,0,0,1,,,,,,,,,,,,,,,0,,,73,62
75840,note_on,0,0,2,,,,,,,,,,,,,,,0,,,54,0
75840,note_on,0,0,2,,,,,,,,,,,,,,,0,,,52,27
75875,control_change,35,0,2,,,,,,,,,,,,,,,0,64,0,,
75920,note_on,80,0,1,,,,,,,,,,,,,,,0,,,69,32
75932,control_change,57,0,2,,,,,,,,,,,,,,,0,64,127,,
76000,note_on,80,0,1,,,,,,,,,,,,,,,0,,,69,0
76000,note_on,0,0,1,,,,,,,,,,,,,,,0,,,64,32
76080,note_on,148,0,2,,,,,,,,,,,,,,,0,,,57,0
76080,note_on,0,0,2,,,,,,,,,,,,,,,0,,,57,33
76080,note_on,0,0,2,,,,,,,,,,,,,,,0,,,52,0
76080,note_on,0,0,2,,,,,,,,,,,,,,,0,,,49,28
76080,note_on,80,0,1,,,,,,,,,,,,,,,0,,,64,0
76080,note_on,0,0,1,,,,,,,,,,,,,,,0,,,73,0
76080,note_on,0,0,1,,,,,,,,,,,,,,,0,,,69,62
76160,note_on,80,0,1,,,,,,,,,,,,,,,0,,,64,32
76240,note_on,80,0,1,,,,,,,,,,,,,,,0,,,64,0
76240,note_on,0,0,1,,,,,,,,,,,,,,,0,,,61,32
76320,note_on,240,0,2,,,,,,,,,,,,,,,0,,,57,0
76320,note_on,80,0,1,,,,,,,,,,,,,,,0,,,61,0
76320,note_on,0,0,1,,,,,,,,,,,,,,,0,,,69,0
76320,note_on,0,0,1,,,,,,,,,,,,,,,0,,,68,66
76320,note_on,0,0,2,,,,,,,,,,,,,,,0,,,49,0
76320,note_on,0,0,2,,,,,,,,,,,,,,,0,,,40,36
76320,control_change,0,0,2,,,,,,,,,,,,,,,0,64,0,,
76376,control_change,56,0,2,,,,,,,,,,,,,,,0,64,127,,
76400,note_on,80,0,1,,,,,,,,,,,,,,,0,,,64,31
76440,note_on,64,0,2,,,,,,,,,,,,,,,0,,,40,0
76480,note_on,0,0,1,,,,,,,,,,,,,,,0,,,59,31
76480,note_on,80,0,1,,,,,,,,,,,,,,,0,,,64,0
76560,note_on,80,0,1,,,,,,,,,,,,,,,0,,,59,0
76560,note_on,0,0,1,,,,,,,,,,,,,,,0,,,64,31
76560,note_on,120,0,2,,,,,,,,,,,,,,,0,,,52,33
76640,note_on,80,0,1,,,,,,,,,,,,,,,0,,,64,0
76640,note_on,0,0,1,,,,,,,,,,,,,,,0,,,59,31
76680,note_on,120,0,2,,,,,,,,,,,,,,,0,,,52,0
76720,note_on,0,0,1,,,,,,,,,,,,,,,0,,,56,31
76720,note_on,80,0,1,,,,,,,,,,,,,,,0,,,59,0
76800,set_tempo,960,1,0,,,,,,,,,,,,1097293,,,,,,,
76800,note_on,120,0,2,,,,,,,,,,,,,,,0,,,40,33
76800,note_on,80,0,1,,,,,,,,,,,,,,,0,,,56,0
76800,note_on,0,0,1,,,,,,,,,,,,,,,0,,,64,31
76880,note_on,0,0,1,,,,,,,,,,,,,,,0,,,59,31
76880,note_on,80,0,1,,,,,,,,,,,,,,,0,,,64,0
76920,note_on,120,0,2,,,,,,,,,,,,,,,0,,,40,0
76960,note_on,80,0,1,,,,,,,,,,,,,,,0,,,59,0
76960,note_on,0,0,1,,,,,,,,,,,,,,,0,,,56,31
77026,control_change,106,0,2,,,,,,,,,,,,,,,0,64,0,,
77040,note_on,14,0,2,,,,,,,,,,,,,,,0,,,50,27
77040,note_on,0,0,2,,,,,,,,,,,,,,,0,,,52,32
77040,note_on,0,0,1,,,,,,,,,,,,,,,0,,,68,0
77040,note_on,80,0,1,,,,,,,,,,,,,,,0,,,56,0
77040,note_on,0,0,1,,,,,,,,,,,,,,,0,,,68,63
77054,control_change,14,0,2,,,,,,,,,,,,,,,0,64,127,,
77120,set_tempo,320,1,0,,,,,,,,,,,,1097293,,,,,,,
77120,note_on,80,0,1,,,,,,,,,,,,,,,0,,,66,32
77200,note_on,80,0,1,,,,,,,,,,,,,,,0,,,66,0
77200,note_on,0,0,1,,,,,,,,,,,,,,,0,,,59,32
77220,note_on,166,0,2,,,,,,,,,,,,,,,0,,,52,0
77220,note_on,0,0,2,,,,,,,,,,,,,,,0,,,50,0
77280,set_tempo,160,1,0,,,,,,,,,,,,1107420,,,,,,,
77280,note_on,60,0,2,,,,,,,,,,,,,,,0,,,49,30
77280,note_on,0,0,2,,,,,,,,,,,,,,,0,,,52,36
77280,note_on,0,0,1,,,,,,,,,,,,,,,0,,,68,68
77280,note_on,0,0,1,,,,,,,,,,,,,,,0,,,68,0
77280,note_on,80,0,1,,,,,,,,,,,,,,,0,,,59,0
77287,control_change,7,0,2,,,,,,,,,,,,,,,0,64,0,,
77315,control_change,28,0,2,,,,,,,,,,,,,,,0,64,127,,
77360,note_on,80,0,1,,,,,,,,,,,,,,,0,,,64,34
77400,set_tempo,120,1,0,,,,,,,,,,,,1117527,,,,,,,
77440,note_on,80,0,1,,,,,,,,,,,,,,,0,,,64,0
77440,note_on,0,0,1,,,,,,,,,,,,,,,0,,,61,34
77460,note_on,145,0,2,,,,,,,,,,,,,,,0,,,52,0
77460,note_on,0,0,2,,,,,,,,,,,,,,,0,,,49,0
77520,note_on,0,0,1,,,,,,,,,,,,,,,0,,,68,68
77520,note_on,0,0,1,,,,,,,,,,,,,,,0,,,68,0
77520,note_on,80,0,1,,,,,,,,,,,,,,,0,,,61,0
77520,set_tempo,120,1,0,,,,,,,,,,,,1128032,,,,,,,
77520,note_on,60,0,2,,,,,,,,,,,,,,,0,,,47,28
77520,note_on,0,0,2,,,,,,,,,,,,,,,0,,,52,33
77552,control_change,32,0,2,,,,,,,,,,,,,,,0,64,0,,
77573,control_change,21,0,2,,,,,,,,,,,,,,,0,64,127,,
77600,note_on,80,0,1,,,,,,,,,,,,,,,0,,,64,32
77640,set_tempo,120,1,0,,,,,,,,,,,,1138520,,,,,,,
77680,note_on,0,0,1,,,,,,,,,,,,,,,0,,,62,32
77680,note_on,80,0,1,,,,,,,,,,,,,,,0,,,64,0
77700,note_on,0,0,2,,,,,,,,,,,,,,,0,,,47,0
77700,note_on,127,0,2,,,,,,,,,,,,,,,0,,,52,0
77760,note_on,0,0,1,,,,,,,,,,,,,,,0,,,68,0
77760,note_on,0,0,1,,,,,,,,,,,,,,,0,,,69,62
77760,note_on,60,0,2,,,,,,,,,,,,,,,0,,,45,36
77760,note_on,80,0,1,,,,,,,,,,,,,,,0,,,62,0
77760,set_tempo,120,1,0,,,,,,,,,,,,1107420,,,,,,,
77767,control_change,7,0,2,,,,,,,,,,,,,,,0,64,0,,
77820,control_change,53,0,2,,,,,,,,,,,,,,,0,64,127,,
77840,note_on,80,0,1,,,,,,,,,,,,,,,0,,,64,31
77880,set_tempo,120,1,0,,,,,,,,,,,,1097293,,,,,,,
77880,note_on,60,0,2,,,,,,,,,,,,,,,0,,,45,0
77920,note_on,0,0,1,,,,,,,,,,,,,,,0,,,61,31
77920,note_on,80,0,1,,,,,,,,,,,,,,,0,,,64,0
78000,note_on,0,0,1,,,,,,,,,,,,,,,0,,,64,31
78000,note_on,80,0,1,,,,,,,,,,,,,,,0,,,61,0
78000,set_tempo,120,1,0,,,,,,,,,,,,1087350,,,,,,,
78000,note_on,0,0,2,,,,,,,,,,,,,,,0,,,52,27
78000,note_on,120,0,2,,,,,,,,,,,,,,,0,,,49,23
78080,note_on,80,0,1,,,,,,,,,,,,,,,0,,,64,0
78080,note_on,0,0,1,,,,,,,,,,,,,,,0,,,61,31
78120,note_on,120,0,2,,,,,,,,,,,,,,,0,,,52,0
78120,set_tempo,120,1,0,,,,,,,,,,,,1077780,,,,,,,
78120,note_on,0,0,2,,,,,,,,,,,,,,,0,,,49,0
78160,note_on,80,0,1,,,,,,,,,,,,,,,0,,,61,0
78160,note_on,0,0,1,,,,,,,,,,,,,,,0,,,57,31
78200,set_tempo,80,1,0,,,,,,,,,,,,1068186,,,,,,,
78240,note_on,120,0,2,,,,,,,,,,,,,,,0,,,45,36
78240,note_on,80,0,1,,,,,,,,,,,,,,,0,,,57,0
78240,note_on,0,0,1,,,,,,,,,,,,,,,0,,,69,0
78240,note_on,0,0,1,,,,,,,,,,,,,,,0,,,69,63
78320,set_tempo,120,1,0,,,,,,,,,,,,1077780,,,,,,,
78320,note_on,80,0,1,,,,,,,,,,,,,,,0,,,64,31
78360,note_on,120,0,2,,,,,,,,,,,,,,,0,,,45,0
78400,note_on,80,0,1,,,,,,,,,,,,,,,0,,,64,0
78400,note_on,0,0,1,,,,,,,,,,,,,,,0,,,61,31
78440,set_tempo,120,1,0,,,,,,,,,,,,1087350,,,,,,,
78480,note_on,80,0,1,,,,,,,,,,,,,,,0,,,61,0
78480,note_on,0,0,1,,,,,,,,,,,,,,,0,,,64,31
78480,note_on,120,0,2,,,,,,,,,,,,,,,0,,,49,24
78480,note_on,0,0,2,,,,,,,,,,,,,,,0,,,52,28
78520,set_tempo,80,1,0,,,,,,,,,,,,1097293,,,,,,,
78560,note_on,0,0,1,,,,,,,,,,,,,,,0,,,61,31
78560,note_on,80,0,1,,,,,,,,,,,,,,,0,,,64,0
78600,note_on,0,0,2,,,,,,,,,,,,,,,0,,,49,0
78600,note_on,120,0,2,,,,,,,,,,,,,,,0,,,52,0
78640,note_on,80,0,1,,,,,,,,,,,,,,,0,,,61,0
78640,note_on,0,0,1,,,,,,,,,,,,,,,0,,,57,31
78640,set_tempo,120,1,0,,,,,,,,,,,,1107420,,,,,,,
78720,note_on,80,0,1,,,,,,,,,,,,,,,0,,,57,0
78720,note_on,0,0,1,,,,,,,,,,,,,,,0,,,71,62
78720,note_on,0,0,1,,,,,,,,,,,,,,,0,,,69,0
78720,set_tempo,80,1,0,,,,,,,,,,,,1117527,,,,,,,
78720,note_on,120,0,2,,,,,,,,,,,,,,,0,,,45,36
78762,control_change,42,0,2,,,,,,,,,,,,,,,0,64,0,,
78800,note_on,80,0,1,,,,,,,,,,,,,,,0,,,68,31
78819,control_change,57,0,2,,,,,,,,,,,,,,,0,64,127,,
78840,note_on,21,0,2,,,,,,,,,,,,,,,0,,,45,0
78880,note_on,0,0,1,,,,,,,,,,,,,,,0,,,64,32
78880,note_on,80,0,1,,,,,,,,,,,,,,,0,,,68,0
78960,note_on,0,0,1,,,,,,,,,,,,,,,0,,,68,32
78960,note_on,80,0,1,,,,,,,,,,,,,,,0,,,64,0
78960,note_on,0,0,2,,,,,,,,,,,,,,,0,,,52,29
78960,note_on,120,0,2,,,,,,,,,,,,,,,0,,,50,25
79040,note_on,80,0,1,,,,,,,,,,,,,,,0,,,68,0
79040,note_on,0,0,1,,,,,,,,,,,,,,,0,,,64,32
79080,note_on,0,0,2,,,,,,,,,,,,,,,0,,,50,0
79080,note_on,120,0,2,,,,,,,,,,,,,,,0,,,52,0
79120,note_on,0,0,1,,,,,,,,,,,,,,,0,,,59,32
79120,note_on,80,0,1,,,,,,,,,,,,,,,0,,,64,0
79160,set_tempo,440,1,0,,,,,,,,,,,,1117527,,,,,,,
79200,control_change,0,0,2,,,,,,,,,,,,,,,0,64,0,,
79200,note_on,0,0,1,,,,,,,,,,,,,,,0,,,73,63
79200,note_on,0,0,1,,,,,,,,,,,,,,,0,,,71,0
79200,note_on,120,0,2,,,,,,,,,,,,,,,0,,,45,36
79200,note_on,80,0,1,,,,,,,,,,,,,,,0,,,59,0
79257,control_change,57,0,2,,,,,,,,,,,,,,,0,64,127,,
79280,note_on,80,0,1,,,,,,,,,,,,,,,0,,,69,32
79320,note_on,63,0,2,,,,,,,,,,,,,,,0,,,45,0
79360,note_on,0,0,1,,,,,,,,,,,,,,,0,,,64,32
79360,note_on,80,0,1,,,,,,,,,,,,,,,0,,,69,0
79360,set_tempo,200,1,0,,,,,,,,,,,,1107420,,,,,,,
79440,note_on,80,0,1,,,,,,,,,,,,,,,0,,,64,0
79440,note_on,120,0,2,,,,,,,,,,,,,,,0,,,52,30
79440,note_on,0,0,1,,,,,,,,,,,,,,,0,,,69,32
79520,note_on,0,0,1,,,,,,,,,,,,,,,0,,,64,32
79520,note_on,80,0,1,,,,,,,,,,,,,,,0,,,69,0
79560,note_on,120,0,2,,,,,,,,,,,,,,,0,,,52,0
79560,set_tempo,200,1,0,,,,,,,,,,,,1097293,,,,,,,
79600,note_on,80,0,1,,,,,,,,,,,,,,,0,,,64,0
79600,note_on,0,0,1,,,,,,,,,,,,,,,0,,,62,32
79620,note_on,0,0,1,,,,,,,,,,,,,,,0,,,71,59
79620,note_on,20,0,1,,,,,,,,,,,,,,,0,,,73,0
79680,note_on,120,0,2,,,,,,,,,,,,,,,0,,,45,36
79680,note_on,0,0,1,,,,,,,,,,,,,,,0,,,69,59
79680,note_on,0,0,1,,,,,,,,,,,,,,,0,,,62,0
79680,note_on,60,0,1,,,,,,,,,,,,,,,0,,,71,0
79724,control_change,44,0,2,,,,,,,,,,,,,,,0,64,0,,
79760,set_tempo,200,1,0,,,,,,,,,,,,1087350,,,,,,,
79760,note_on,80,0,1,,,,,,,,,,,,,,,0,,,64,31
79794,control_change,70,0,2,,,,,,,,,,,,,,,0,64,127,,
79800,note_on,6,0,2,,,,,,,,,,,,,,,0,,,45,0
79840,note_on,80,0,1,,,,,,,,,,,,,,,0,,,64,0
79840,note_on,0,0,1,,,,,,,,,,,,,,,0,,,61,31
79920,note_on,0,0,1,,,,,,,,,,,,,,,0,,,64,31
79920,note_on,120,0,2,,,,,,,,,,,,,,,0,,,45,26
79920,note_on,0,0,2,,,,,,,,,,,,,,,0,,,52,30
79920,note_on,0,0,2,,,,,,,,,,,,,,,0,,,49,26
79920,note_on,80,0,1,,,,,,,,,,,,,,,0,,,61,0
79960,set_tempo,200,1,0,,,,,,,,,,,,1077780,,,,,,,
80000,note_on,80,0,1,,,,,,,,,,,,,,,0,,,64,0
80000,note_on,0,0,1,,,,,,,,,,,,,,,0,,,61,31
80040,note_on,0,0,2,,,,,,,,,,,,,,,0,,,45,0
80040,note_on,0,0,2,,,,,,,,,,,,,,,0,,,52,0
80040,note_on,120,0,2,,,,,,,,,,,,,,,0,,,49,0
80080,note_on,80,0,1,,,,,,,,,,,,,,,0,,,61,0
80080,note_on,0,0,1,,,,,,,,,,,,,,,0,,,57,31
80160,note_on,0,0,2,,,,,,,,,,,,,,,0,,,49,27
80160,set_tempo,200,1,0,,,,,,,,,,,,1068186,,,,,,,
80160,note_on,80,0,1,,,,,,,,,,,,,,,0,,,57,0
80160,note_on,120,0,2,,,,,,,,,,,,,,,0,,,43,27
80160,note_on,0,0,2,,,,,,,,,,,,,,,0,,,52,31
80240,note_on,80,0,1,,,,,,,,,,,,,,,0,,,61,32
80280,note_on,120,0,2,,,,,,,,,,,,,,,0,,,52,0
80280,note_on,0,0,2,,,,,,,,,,,,,,,0,,,49,0
80280,note_on,0,0,2,,,,,,,,,,,,,,,0,,,43,0
80320,note_on,0,0,1,,,,,,,,,,,,,,,0,,,64,32
80320,note_on,80,0,1,,,,,,,,,,,,,,,0,,,61,0
80320,set_tempo,160,1,0,,,,,,,,,,,,1077780,,,,,,,
80400,note_on,0,0,1,,,,,,,,,,,,,,,0,,,69,0
80400,note_on,80,0,1,,,,,,,,,,,,,,,0,,,64,0
80400,note_on,120,0,2,,,,,,,,,,,,,,,0,,,42,32
80400,note_on,0,0,2,,,,,,,,,,,,,,,0,,,49,32
80400,note_on,0,0,2,,,,,,,,,,,,,,,0,,,54,32
80400,note_on,0,0,1,,,,,,,,,,,,,,,0,,,70,32
80400,note_on,0,0,1,,,,,,,,,,,,,,,0,,,73,63
80480,set_tempo,160,1,0,,,,,,,,,,,,1087350,,,,,,,
80480,note_on,80,0,1,,,,,,,,,,,,,,,0,,,70,0
80480,note_on,0,0,1,,,,,,,,,,,,,,,0,,,66,32
80520,note_on,0,0,2,,,,,,,,,,,,,,,0,,,42,0
80520,note_on,0,0,2,,,,,,,,,,,,,,,0,,,49,0
80520,note_on,120,0,2,,,,,,,,,,,,,,,0,,,54,0
80560,note_on,0,0,1,,,,,,,,,,,,,,,0,,,64,32
80560,note_on,80,0,1,,,,,,,,,,,,,,,0,,,66,0
80640,set_tempo,160,1,0,,,,,,,,,,,,1097293,,,,,,,
80640,control_change,0,0,2,,,,,,,,,,,,,,,0,64,0,,
80640,note_on,80,0,1,,,,,,,,,,,,,,,0,,,64,0
80640,note_on,120,0,2,,,,,,,,,,,,,,,0,,,47,40
80640,note_on,0,0,1,,,,,,,,,,,,,,,0,,,73,0
80640,note_on,0,0,1,,,,,,,,,,,,,,,0,,,74,67
80718,control_change,78,0,2,,,,,,,,,,,,,,,0,64,127,,
80720,note_on,80,0,1,,,,,,,,,,,,,,,0,,,71,34
80720,set_tempo,80,1,0,,,,,,,,,,,,1107420,,,,,,,
80760,note_on,42,0,2,,,,,,,,,,,,,,,0,,,47,0
80800,note_on,0,0,1,,,,,,,,,,,,,,,0,,,66,34
80800,note_on,80,0,1,,,,,,,,,,,,,,,0,,,71,0
80840,set_tempo,120,1,0,,,,,,,,,,,,1097293,,,,,,,
80880,note_on,120,0,2,,,,,,,,,,,,,,,0,,,54,28
80880,note_on,80,0,1,,,,,,,,,,,,,,,0,,,66,0
80880,note_on,0,0,1,,,,,,,,,,,,,,,0,,,71,34
80960,note_on,80,0,1,,,,,,,,,,,,,,,0,,,71,0
80960,set_tempo,120,1,0,,,,,,,,,,,,1087350,,,,,,,
80960,note_on,0,0,1,,,,,,,,,,,,,,,0,,,66,34
81040,note_on,80,0,1,,,,,,,,,,,,,,,0,,,66,0
81040,note_on,0,0,1,,,,,,,,,,,,,,,0,,,64,32
81060,note_on,0,0,2,,,,,,,,,,,,,,,0,,,58,28
81060,note_on,0,0,1,,,,,,,,,,,,,,,0,,,73,62
81060,note_on,180,0,2,,,,,,,,,,,,,,,0,,,54,0
81060,note_on,20,0,1,,,,,,,,,,,,,,,0,,,74,0
81080,set_tempo,120,1,0,,,,,,,,,,,,1077780,,,,,,,
81120,note_on,60,0,1,,,,,,,,,,,,,,,0,,,73,0
81120,note_on,0,0,1,,,,,,,,,,,,,,,0,,,64,0
81120,note_on,0,0,1,,,,,,,,,,,,,,,0,,,71,66
81120,note_on,60,0,2,,,,,,,,,,,,,,,0,,,58,0
81120,note_on,0,0,2,,,,,,,,,,,,,,,0,,,59,36
81127,control_change,7,0,2,,,,,,,,,,,,,,,0,64,0,,
81160,set_tempo,80,1,0,,,,,,,,,,,,1068186,,,,,,,
81184,control_change,57,0,2,,,,,,,,,,,,,,,0,64,127,,
81200,note_on,80,0,1,,,,,,,,,,,,,,,0,,,62,32
81280,note_on,80,0,1,,,,,,,,,,,,,,,0,,,62,0
81280,note_on,0,0,1,,,,,,,,,,,,,,,0,,,66,32
81360,note_on,0,0,1,,,,,,,,,,,,,,,0,,,71,0
81360,note_on,0,0,1,,,,,,,,,,,,,,,0,,,74,62
81360,note_on,176,0,2,,,,,,,,,,,,,,,0,,,59,0
81360,note_on,0,0,2,,,,,,,,,,,,,,,0,,,47,27
81360,note_on,0,0,2,,,,,,,,,,,,,,,0,,,54,32
81360,note_on,80,0,1,,,,,,,,,,,,,,,0,,,66,0
81395,control_change,35,0,2,,,,,,,,,,,,,,,0,64,0,,
81440,note_on,80,0,1,,,,,,,,,,,,,,,0,,,66,30
81452,control_change,57,0,2,,,,,,,,,,,,,,,0,64,127,,
81520,note_on,80,0,1,,,,,,,,,,,,,,,0,,,66,0
81520,note_on,0,0,1,,,,,,,,,,,,,,,0,,,68,30
81540,note_on,0,0,2,,,,,,,,,,,,,,,0,,,56,32
81540,note_on,88,0,2,,,,,,,,,,,,,,,0,,,54,0
81600,note_on,0,0,1,,,,,,,,,,,,,,,0,,,74,0
81600,set_tempo,440,1,0,,,,,,,,,,,,1077780,,,,,,,
81600,note_on,0,0,2,,,,,,,,,,,,,,,0,,,57,32
81600,note_on,0,0,2,,,,,,,,,,,,,,,0,,,49,27
81600,note_on,0,0,1,,,,,,,,,,,,,,,0,,,73,62
81600,note_on,0,0,2,,,,,,,,,,,,,,,0,,,47,0
81600,note_on,80,0,1,,,,,,,,,,,,,,,0,,,68,0
81600,note_on,60,0,2,,,,,,,,,,,,,,,0,,,56,0
81635,control_change,35,0,2,,,,,,,,,,,,,,,0,64,0,,
81680,note_on,80,0,1,,,,,,,,,,,,,,,0,,,69,32
81692,control_change,57,0,2,,,,,,,,,,,,,,,0,64,127,,
81760,note_on,0,0,1,,,,,,,,,,,,,,,0,,,64,32
81760,note_on,80,0,1,,,,,,,,,,,,,,,0,,,69,0
81840,note_on,0,0,2,,,,,,,,,,,,,,,0,,,49,0
81840,note_on,148,0,2,,,,,,,,,,,,,,,0,,,57,0
81840,note_on,80,0,1,,,,,,,,,,,,,,,0,,,64,0
81840,note_on,0,0,1,,,,,,,,,,,,,,,0,,,73,0
81840,note_on,0,0,1,,,,,,,,,,,,,,,0,,,71,62
81840,set_tempo,240,1,0,,,,,,,,,,,,1107420,,,,,,,
81840,note_on,0,0,2,,,,,,,,,,,,,,,0,,,52,28
81840,note_on,0,0,2,,,,,,,,,,,,,,,0,,,56,33
81920,note_on,80,0,1,,,,,,,,,,,,,,,0,,,64,32
82000,note_on,80,0,1,,,,,,,,,,,,,,,0,,,64,0
82020,note_on,20,0,1,,,,,,,,,,,,,,,0,,,62,32
82080,note_on,0,0,1,,,,,,,,,,,,,,,0,,,71,66
82080,note_on,60,0,1,,,,,,,,,,,,,,,0,,,71,0
82080,note_on,240,0,2,,,,,,,,,,,,,,,0,,,56,0
82080,note_on,0,0,2,,,,,,,,,,,,,,,0,,,45,36
82080,control_change,0,0,2,,,,,,,,,,,,,,,0,64,0,,
82080,note_on,0,0,2,,,,,,,,,,,,,,,0,,,52,0
82100,note_on,20,0,1,,,,,,,,,,,,,,,0,,,62,0
82136,control_change,56,0,2,,,,,,,,,,,,,,,0,64,127,,
82160,note_on,60,0,1,,,,,,,,,,,,,,,0,,,68,31
82200,note_on,64,0,2,,,,,,,,,,,,,,,0,,,45,0
82240,note_on,0,0,1,,,,,,,,,,,,,,,0,,,64,31
82240,note_on,80,0,1,,,,,,,,,,,,,,,0,,,68,0
82320,note_on,120,0,2,,,,,,,,,,,,,,,0,,,52,33
82320,note_on,0,0,2,,,,,,,,,,,,,,,0,,,56,33
82320,note_on,0,0,1,,,,,,,,,,,,,,,0,,,68,31
82320,note_on,80,0,1,,,,,,,,,,,,,,,0,,,64,0
82400,note_on,80,0,1,,,,,,,,,,,,,,,0,,,68,0
82400,note_on,0,0,1,,,,,,,,,,,,,,,0,,,64,31
82440,note_on,0,0,2,,,,,,,,,,,,,,,0,,,52,0
82440,note_on,120,0,2,,,,,,,,,,,,,,,0,,,56,0
82480,note_on,80,0,1,,,,,,,,,,,,,,,0,,,64,0
82480,note_on,0,0,1,,,,,,,,,,,,,,,0,,,62,31
82560,set_tempo,720,1,0,,,,,,,,,,,,1097293,,,,,,,
82560,note_on,80,0,1,,,,,,,,,,,,,,,0,,,62,0
82560,note_on,120,0,2,,,,,,,,,,,,,,,0,,,52,28
82560,note_on,0,0,1,,,,,,,,,,,,,,,0,,,71,0
82560,note_on,0,0,1,,,,,,,,,,,,,,,0,,,61,31
82560,note_on,0,0,2,,,,,,,,,,,,,,,0,,,57,33
82560,note_on,0,0,1,,,,,,,,,,,,,,,0,,,69,66
82560,note_on,0,0,2,,,,,,,,,,,,,,,0,,,45,31
82650,note_on,90,0,2,,,,,,,,,,,,,,,0,,,45,0
82669,control_change,19,0,2,,,,,,,,,,,,,,,0,64,0,,
82680,note_on,0,0,2,,,,,,,,,,,,,,,0,,,45,38
82680,note_on,0,0,2,,,,,,,,,,,,,,,0,,,52,0
82680,note_on,11,0,2,,,,,,,,,,,,,,,0,,,57,0
82740,note_on,60,0,2,,,,,,,,,,,,,,,0,,,45,0
82800,note_on,60,0,2,,,,,,,,,,,,,,,0,,,47,37
82800,note_on,0,0,1,,,,,,,,,,,,,,,0,,,69,0
82800,note_on,240,0,1,,,,,,,,,,,,,,,0,,,61,0
82860,note_on,60,0,2,,,,,,,,,,,,,,,0,,,47,0
82880,set_tempo,320,1,0,,,,,,,,,,,,1097293,,,,,,,
82920,note_on,60,0,2,,,,,,,,,,,,,,,0,,,49,35
82980,note_on,60,0,2,,,,,,,,,,,,,,,0,,,49,0
83040,set_tempo,160,1,0,,,,,,,,,,,,1107420,,,,,,,
83040,note_on,60,0,2,,,,,,,,,,,,,,,0,,,47,34
83100,note_on,60,0,2,,,,,,,,,,,,,,,0,,,47,0
83160,note_on,60,0,2,,,,,,,,,,,,,,,0,,,45,32
83160,set_tempo,120,1,0,,,,,,,,,,,,1117527,,,,,,,
83220,note_on,60,0,2,,,,,,,,,,,,,,,0,,,45,0
83280,set_tempo,120,1,0,,,,,,,,,,,,1128032,,,,,,,
83280,note_on,60,0,2,,,,,,,,,,,,,,,0,,,44,31
83340,note_on,60,0,2,,,,,,,,,,,,,,,0,,,44,0
83400,set_tempo,120,1,0,,,,,,,,,,,,1138520,,,,,,,
83400,note_on,60,0,2,,,,,,,,,,,,,,,0,,,42,31
83460,note_on,60,0,2,,,,,,,,,,,,,,,0,,,42,0
83520,set_tempo,120,1,0,,,,,,,,,,,,1128032,,,,,,,
83520,note_on,0,0,1,,,,,,,,,,,,,,,0,,,59,45
83520,note_on,720,0,1,,,,,,,,,,,,,,,0,,,56,38
83520,note_on,60,0,2,,,,,,,,,,,,,,,0,,,40,34
83598,control_change,78,0,2,,,,,,,,,,,,,,,0,64,127,,
83640,note_on,0,0,2,,,,,,,,,,,,,,,0,,,52,28
83640,note_on,42,0,2,,,,,,,,,,,,,,,0,,,40,0
83693,control_change,53,0,2,,,,,,,,,,,,,,,0,64,0,,
83700,note_on,7,0,2,,,,,,,,,,,,,,,0,,,52,0
83760,note_on,60,0,2,,,,,,,,,,,,,,,0,,,52,28
83820,note_on,60,0,2,,,,,,,,,,,,,,,0,,,52,0
83880,note_on,60,0,2,,,,,,,,,,,,,,,0,,,52,28
83940,note_on,60,0,2,,,,,,,,,,,,,,,0,,,52,0
84000,note_on,60,0,2,,,,,,,,,,,,,,,0,,,40,33
84000,set_tempo,480,1,0,,,,,,,,,,,,1097293,,,,,,,
84000,note_on,480,0,1,,,,,,,,,,,,,,,0,,,59,0
84000,note_on,0,0,1,,,,,,,,,,,,,,,0,,,56,0
84000,note_on,0,0,1,,,,,,,,,,,,,,,0,,,56,38
84000,note_on,0,0,1,,,,,,,,,,,,,,,0,,,59,46
84025,control_change,25,0,2,,,,,,,,,,,,,,,0,64,127,,
84120,note_on,0,0,2,,,,,,,,,,,,,,,0,,,52,28
84120,note_on,95,0,2,,,,,,,,,,,,,,,0,,,40,0
84162,control_change,42,0,2,,,,,,,,,,,,,,,0,64,0,,
84180,note_on,18,0,2,,,,,,,,,,,,,,,0,,,52,0
84240,note_on,60,0,2,,,,,,,,,,,,,,,0,,,52,28
84300,note_on,60,0,2,,,,,,,,,,,,,,,0,,,52,0
84360,note_on,60,0,2,,,,,,,,,,,,,,,0,,,52,28
84420,note_on,60,0,2,,,,,,,,,,,,,,,0,,,52,0
84480,note_on,60,0,2,,,,,,,,,,,,,,,0,,,37,32
84480,note_on,0,0,1,,,,,,,,,,,,,,,0,,,61,45
84480,set_tempo,480,1,0,,,,,,,,,,,,1138520,,,,,,,
84480,note_on,480,0,1,,,,,,,,,,,,,,,0,,,59,0
84480,note_on,0,0,1,,,,,,,,,,,,,,,0,,,58,38
84480,note_on,0,0,1,,,,,,,,,,,,,,,0,,,52,38
84480,note_on,0,0,1,,,,,,,,,,,,,,,0,,,56,0
84522,control_change,42,0,2,,,,,,,,,,,,,,,0,64,127,,
84600,note_on,78,0,2,,,,,,,,,,,,,,,0,,,37,0
84600,note_on,0,0,2,,,,,,,,,,,,,,,0,,,49,28
84635,control_change,35,0,2,,,,,,,,,,,,,,,0,64,0,,
84660,note_on,25,0,2,,,,,,,,,,,,,,,0,,,49,0
84720,note_on,60,0,2,,,,,,,,,,,,,,,0,,,49,28
84780,note_on,60,0,2,,,,,,,,,,,,,,,0,,,49,0
84840,note_on,60,0,2,,,,,,,,,,,,,,,0,,,49,28
84900,note_on,60,0,2,,,,,,,,,,,,,,,0,,,49,0
84960,note_on,0,0,1,,,,,,,,,,,,,,,0,,,62,46
84960,note_on,0,0,1,,,,,,,,,,,,,,,0,,,54,38
84960,note_on,0,0,1,,,,,,,,,,,,,,,0,,,52,0
84960,note_on,0,0,1,,,,,,,,,,,,,,,0,,,58,0
84960,note_on,60,0,2,,,,,,,,,,,,,,,0,,,35,34
84960,note_on,0,0,1,,,,,,,,,,,,,,,0,,,59,38
84960,note_on,480,0,1,,,,,,,,,,,,,,,0,,,61,0
84978,control_change,18,0,2,,,,,,,,,,,,,,,0,64,127,,
85080,note_on,0,0,2,,,,,,,,,,,,,,,0,,,47,29
85080,note_on,102,0,2,,,,,,,,,,,,,,,0,,,35,0
85140,note_on,60,0,2,,,,,,,,,,,,,,,0,,,47,0
85147,control_change,7,0,2,,,,,,,,,,,,,,,0,64,0,,
85200,note_on,53,0,2,,,,,,,,,,,,,,,0,,,47,29
85260,note_on,60,0,2,,,,,,,,,,,,,,,0,,,47,0
85320,note_on,60,0,2,,,,,,,,,,,,,,,0,,,47,29
85320,note_on,0,0,1,,,,,,,,,,,,,,,0,,,64,42
85320,note_on,360,0,1,,,,,,,,,,,,,,,0,,,61,36
85330,note_on,0,0,1,,,,,,,,,,,,,,,0,,,62,0
85330,note_on,10,0,1,,,,,,,,,,,,,,,0,,,59,0
85380,note_on,60,0,2,,,,,,,,,,,,,,,0,,,47,0
85440,note_on,0,0,1,,,,,,,,,,,,,,,0,,,66,42
85440,note_on,110,0,1,,,,,,,,,,,,,,,0,,,62,36
85440,set_tempo,960,1,0,,,,,,,,,,,,1107420,,,,,,,
85440,note_on,60,0,2,,,,,,,,,,,,,,,0,,,35,29
85450,note_on,10,0,1,,,,,,,,,,,,,,,0,,,64,0
85450,note_on,0,0,1,,,,,,,,,,,,,,,0,,,61,0
85493,control_change,53,0,2,,,,,,,,,,,,,,,0,64,127,,
85530,note_on,37,0,2,,,,,,,,,,,,,,,0,,,35,0
85560,note_on,30,0,2,,,,,,,,,,,,,,,0,,,47,29
85620,note_on,60,0,2,,,,,,,,,,,,,,,0,,,47,0
85627,control_change,7,0,2,,,,,,,,,,,,,,,0,64,0,,
85680,note_on,53,0,2,,,,,,,,,,,,,,,0,,,47,29
85740,note_on,60,0,2,,,,,,,,,,,,,,,0,,,47,0
85800,note_on,60,0,2,,,,,,,,,,,,,,,0,,,47,29
85860,note_on,60,0,2,,,,,,,,,,,,,,,0,,,47,0
85920,note_on,470,0,1,,,,,,,,,,,,,,,0,,,54,0
85920,note_on,0,0,1,,,,,,,,,,,,,,,0,,,54,38
85920,note_on,60,0,2,,,,,,,,,,,,,,,0,,,35,34
85920,set_tempo,480,1,0,,,,,,,,,,,,1058761,,,,,,,
85943,control_change,23,0,2,,,,,,,,,,,,,,,0,64,127,,
86040,note_on,97,0,2,,,,,,,,,,,,,,,0,,,35,0
86040,note_on,0,0,2,,,,,,,,,,,,,,,0,,,47,32
86160,note_on,0,0,2,,,,,,,,,,,,,,,0,,,35,35
86160,set_tempo,240,1,0,,,,,,,,,,,,1153846,,,,,,,
86160,note_on,240,0,1,,,,,,,,,,,,,,,0,,,54,0
86160,note_on,0,0,1,,,,,,,,,,,,,,,0,,,66,0
86160,note_on,0,0,1,,,,,,,,,,,,,,,0,,,62,0
86160,note_on,0,0,1,,,,,,,,,,,,,,,0,,,56,45
86160,note_on,0,0,1,,,,,,,,,,,,,,,0,,,62,45
86160,note_on,0,0,1,,,,,,,,,,,,,,,0,,,66,54
86160,note_on,120,0,2,,,,,,,,,,,,,,,0,,,47,0
86189,control_change,29,0,2,,,,,,,,,,,,,,,0,64,0,,
86206,control_change,17,0,2,,,,,,,,,,,,,,,0,64,127,,
86250,note_on,44,0,2,,,,,,,,,,,,,,,0,,,35,0
86280,note_on,30,0,2,,,,,,,,,,,,,,,0,,,47,39
86370,note_on,90,0,2,,,,,,,,,,,,,,,0,,,47,0
86400,control_change,30,0,2,,,,,,,,,,,,,,,0,64,0,,
86400,note_on,0,0,2,,,,,,,,,,,,,,,0,,,33,42
86400,note_on,0,0,1,,,,,,,,,,,,,,,0,,,56,0
86400,set_tempo,240,1,0,,,,,,,,,,,,1107420,,,,,,,
86400,note_on,0,0,1,,,,,,,,,,,,,,,0,,,62,0
86400,note_on,240,0,1,,,,,,,,,,,,,,,0,,,66,0
86400,note_on,0,0,1,,,,,,,,,,,,,,,0,,,57,49
86400,note_on,0,0,1,,,,,,,,,,,,,,,0,,,62,49
86400,note_on,0,0,1,,,,,,,,,,,,,,,0,,,66,58
86478,control_change,78,0,2,,,,,,,,,,,,,,,0,64,127,,
86520,note_on,42,0,2,,,,,,,,,,,,,,,0,,,33,0
86520,note_on,0,0,2,,,,,,,,,,,,,,,0,,,45,38
86640,note_on,0,0,2,,,,,,,,,,,,,,,0,,,45,40
86640,note_on,120,0,2,,,,,,,,,,,,,,,0,,,45,0
86760,note_on,0,0,1,,,,,,,,,,,,,,,0,,,67,58
86760,note_on,0,0,1,,,,,,,,,,,,,,,0,,,62,48
86760,note_on,0,0,1,,,,,,,,,,,,,,,0,,,57,0
86760,note_on,0,0,1,,,,,,,,,,,,,,,0,,,62,0
86760,note_on,0,0,2,,,,,,,,,,,,,,,0,,,43,41
86760,note_on,0,0,1,,,,,,,,,,,,,,,0,,,59,48
86760,note_on,360,0,1,,,,,,,,,,,,,,,0,,,66,0
86760,note_on,120,0,2,,,,,,,,,,,,,,,0,,,45,0
86880,note_on,0,0,2,,,,,,,,,,,,,,,0,,,30,43
86880,note_on,0,0,1,,,,,,,,,,,,,,,0,,,62,50
86880,note_on,0,0,1,,,,,,,,,,,,,,,0,,,57,50
86880,note_on,0,0,1,,,,,,,,,,,,,,,0,,,59,0
86880,note_on,0,0,1,,,,,,,,,,,,,,,0,,,62,0
86880,note_on,120,0,1,,,,,,,,,,,,,,,0,,,67,0
86880,set_tempo,480,1,0,,,,,,,,,,,,1077780,,,,,,,
86880,note_on,120,0,2,,,,,,,,,,,,,,,0,,,43,0
86880,note_on,0,0,1,,,,,,,,,,,,,,,0,,,69,60
86903,control_change,23,0,2,,,,,,,,,,,,,,,0,64,0,,
86944,control_change,41,0,2,,,,,,,,,,,,,,,0,64,127,,
87000,note_on,56,0,2,,,,,,,,,,,,,,,0,,,30,0
87000,note_on,0,0,2,,,,,,,,,,,,,,,0,,,42,37
87120,note_on,0,0,1,,,,,,,,,,,,,,,0,,,67,57
87120,note_on,120,0,2,,,,,,,,,,,,,,,0,,,42,0
87120,note_on,240,0,1,,,,,,,,,,,,,,,0,,,69,0
87120,note_on,0,0,1,,,,,,,,,,,,,,,0,,,62,0
87120,note_on,0,0,1,,,,,,,,,,,,,,,0,,,57,0
87120,note_on,0,0,1,,,,,,,,,,,,,,,0,,,59,48
87120,note_on,0,0,1,,,,,,,,,,,,,,,0,,,62,48
87120,note_on,0,0,2,,,,,,,,,,,,,,,0,,,31,39
87166,control_change,46,0,2,,,,,,,,,,,,,,,0,64,0,,
87212,control_change,46,0,2,,,,,,,,,,,,,,,0,64,127,,
87240,note_on,28,0,2,,,,,,,,,,,,,,,0,,,31,0
87240,note_on,0,0,2,,,,,,,,,,,,,,,0,,,43,37
87360,set_tempo,480,1,0,,,,,,,,,,,,1171875,,,,,,,
87360,note_on,0,0,1,,,,,,,,,,,,,,,0,,,62,46
87360,note_on,120,0,2,,,,,,,,,,,,,,,0,,,43,0
87360,note_on,0,0,2,,,,,,,,,,,,,,,0,,,33,37
87360,note_on,0,0,1,,,,,,,,,,,,,,,0,,,57,46
87360,note_on,0,0,1,,,,,,,,,,,,,,,0,,,59,0
87360,note_on,0,0,1,,,,,,,,,,,,,,,0,,,66,55
87360,note_on,0,0,1,,,,,,,,,,,,,,,0,,,62,0
87360,note_on,240,0,1,,,,,,,,,,,,,,,0,,,67,0
87395,control_change,35,0,2,,,,,,,,,,,,,,,0,64,0,,
87452,control_change,57,0,2,,,,,,,,,,,,,,,0,64,127,,
87480,note_on,28,0,2,,,,,,,,,,,,,,,0,,,33,0
87480,note_on,0,0,2,,,,,,,,,,,,,,,0,,,45,36
87600,note_on,0,0,1,,,,,,,,,,,,,,,0,,,64,51
87600,note_on,0,0,1,,,,,,,,,,,,,,,0,,,62,0
87600,note_on,0,0,1,,,,,,,,,,,,,,,0,,,57,44
87600,note_on,0,0,1,,,,,,,,,,,,,,,0,,,57,0
87600,note_on,0,0,1,,,,,,,,,,,,,,,0,,,55,44
87600,note_on,0,0,2,,,,,,,,,,,,,,,0,,,33,35
87600,note_on,120,0,2,,,,,,,,,,,,,,,0,,,45,0
87600,note_on,0,0,1,,,,,,,,,,,,,,,0,,,61,44
87600,note_on,240,0,1,,,,,,,,,,,,,,,0,,,66,0
87640,set_tempo,280,1,0,,,,,,,,,,,,1244555,,,,,,,
87720,note_on,120,0,2,,,,,,,,,,,,,,,0,,,33,0
87720,note_on,0,0,2,,,,,,,,,,,,,,,0,,,45,34
87840,control_change,0,0,2,,,,,,,,,,,,,,,0,64,0,,
87840,note_on,0,0,2,,,,,,,,,,,,,,,0,,,33,31
87840,set_tempo,200,1,0,,,,,,,,,,,,1128032,,,,,,,
87840,note_on,120,0,2,,,,,,,,,,,,,,,0,,,45,0
87840,note_on,0,0,1,,,,,,,,,,,,,,,0,,,55,0
87840,note_on,0,0,1,,,,,,,,,,,,,,,0,,,64,47
87840,note_on,0,0,1,,,,,,,,,,,,,,,0,,,61,39
87840,note_on,0,0,1,,,,,,,,,,,,,,,0,,,57,39
87840,note_on,240,0,1,,,,,,,,,,,,,,,0,,,64,0
87840,note_on,0,0,1,,,,,,,,,,,,,,,0,,,61,0
87840,note_on,0,0,1,,,,,,,,,,,,,,,0,,,55,39
87840,note_on,0,0,1,,,,,,,,,,,,,,,0,,,57,0
87896,control_change,56,0,2,,,,,,,,,,,,,,,0,64,127,,
87960,note_on,0,0,2,,,,,,,,,,,,,,,0,,,45,29
87960,note_on,64,0,2,,,,,,,,,,,,,,,0,,,33,0
88080,note_on,120,0,2,,,,,,,,,,,,,,,0,,,45,0
88080,note_on,0,0,2,,,,,,,,,,,,,,,0,,,49,31
88200,note_on,120,0,2,,,,,,,,,,,,,,,0,,,49,0
88200,note_on,0,0,2,,,,,,,,,,,,,,,0,,,45,33
88320,note_on,0,0,2,,,,,,,,,,,,,,,0,,,38,35
88320,note_on,0,0,1,,,,,,,,,,,,,,,0,,,62,47
88320,note_on,0,0,1,,,,,,,,,,,,,,,0,,,57,39
88320,note_on,0,0,1,,,,,,,,,,,,,,,0,,,55,0
88320,note_on,120,0,2,,,,,,,,,,,,,,,0,,,45,0
88320,control_change,0,0,2,,,,,,,,,,,,,,,0,64,0,,
88320,note_on,0,0,1,,,,,,,,,,,,,,,0,,,54,39
88320,note_on,0,0,1,,,,,,,,,,,,,,,0,,,61,0
88320,set_tempo,480,1,0,,,,,,,,,,,,1087350,,,,,,,
88320,note_on,480,0,1,,,,,,,,,,,,,,,0,,,64,0
88320,note_on,0,0,1,,,,,,,,,,,,,,,0,,,57,0
88410,note_on,90,0,2,,,,,,,,,,,,,,,0,,,38,0
88440,set_tempo,120,1,0,,,,,,,,,,,,1097293,,,,,,,
88440,note_on,30,0,2,,,,,,,,,,,,,,,0,,,50,29
88500,note_on,60,0,2,,,,,,,,,,,,,,,0,,,50,0
88560,note_on,60,0,2,,,,,,,,,,,,,,,0,,,50,28
88560,set_tempo,120,1,0,,,,,,,,,,,,1107420,,,,,,,
88620,note_on,60,0,2,,,,,,,,,,,,,,,0,,,50,0
88680,set_tempo,120,1,0,,,,,,,,,,,,1117527,,,,,,,
88680,note_on,60,0,2,,,,,,,,,,,,,,,0,,,50,28
88740,note_on,60,0,2,,,,,,,,,,,,,,,0,,,50,0
88760,set_tempo,80,1,0,,,,,,,,,,,,1128032,,,,,,,
88800,note_on,60,0,2,,,,,,,,,,,,,,,0,,,50,27
88800,set_tempo,40,1,0,,,,,,,,,,,,1097293,,,,,,,
88840,set_tempo,40,1,0,,,,,,,,,,,,1117527,,,,,,,
88860,note_on,60,0,2,,,,,,,,,,,,,,,0,,,50,0
88880,set_tempo,40,1,0,,,,,,,,,,,,1138520,,,,,,,
88920,set_tempo,40,1,0,,,,,,,,,,,,1160766,,,,,,,
88920,note_on,60,0,2,,,,,,,,,,,,,,,0,,,50,26
88960,set_tempo,40,1,0,,,,,,,,,,,,1183432,,,,,,,
88980,note_on,60,0,2,,,,,,,,,,,,,,,0,,,50,0
89000,set_tempo,40,1,0,,,,,,,,,,,,1207001,,,,,,,
89040,set_tempo,40,1,0,,,,,,,,,,,,1231527,,,,,,,
89040,note_on,60,0,2,,,,,,,,,,,,,,,0,,,50,25
89080,set_tempo,40,1,0,,,,,,,,,,,,1257334,,,,,,,
89100,note_on,60,0,2,,,,,,,,,,,,,,,0,,,50,0
89120,set_tempo,40,1,0,,,,,,,,,,,,1283972,,,,,,,
89160,note_on,60,0,2,,,,,,,,,,,,,,,0,,,50,24
89160,set_tempo,40,1,0,,,,,,,,,,,,1326260,,,,,,,
89250,note_on,90,0,2,,,,,,,,,,,,,,,0,,,50,0
89280,note_on,30,0,2,,,,,,,,,,,,,,,0,,,38,30
89280,note_on,960,0,1,,,,,,,,,,,,,,,0,,,62,0
89280,note_on,0,0,1,,,,,,,,,,,,,,,0,,,54,0
89280,note_on,0,0,1,,,,,,,,,,,,,,,0,,,53,34
89280,note_on,0,0,1,,,,,,,,,,,,,,,0,,,58,40
89280,note_on,0,0,1,,,,,,,,,,,,,,,0,,,57,0
89280,set_tempo,120,1,0,,,,,,,,,,,,1128032,,,,,,,
89291,control_change,11,0,2,,,,,,,,,,,,,,,0,64,127,,
89400,note_on,109,0,2,,,,,,,,,,,,,,,0,,,38,0
89400,note_on,0,0,2,,,,,,,,,,,,,,,0,,,50,25
89425,control_change,25,0,2,,,,,,,,,,,,,,,0,64,0,,
89460,note_on,35,0,2,,,,,,,,,,,,,,,0,,,50,0
89520,note_on,60,0,2,,,,,,,,,,,,,,,0,,,50,25
89580,note_on,60,0,2,,,,,,,,,,,,,,,0,,,50,0
89640,note_on,60,0,2,,,,,,,,,,,,,,,0,,,50,25
89700,note_on,60,0,2,,,,,,,,,,,,,,,0,,,50,0
89760,note_on,0,0,1,,,,,,,,,,,,,,,0,,,58,41
89760,note_on,480,0,1,,,,,,,,,,,,,,,0,,,58,0
89760,set_tempo,480,1,0,,,,,,,,,,,,1097293,,,,,,,
89760,note_on,0,0,1,,,,,,,,,,,,,,,0,,,53,34
89760,note_on,60,0,2,,,,,,,,,,,,,,,0,,,38,29
89760,note_on,0,0,1,,,,,,,,,,,,,,,0,,,53,0
89788,control_change,28,0,2,,,,,,,,,,,,,,,0,64,127,,
89880,note_on,92,0,2,,,,,,,,,,,,,,,0,,,38,0
89880,note_on,0,0,2,,,,,,,,,,,,,,,0,,,50,25
89922,control_change,42,0,2,,,,,,,,,,,,,,,0,64,0,,
89940,note_on,18,0,2,,,,,,,,,,,,,,,0,,,50,0
90000,note_on,60,0,2,,,,,,,,,,,,,,,0,,,50,25
90060,note_on,60,0,2,,,,,,,,,,,,,,,0,,,50,0
90120,note_on,60,0,2,,,,,,,,,,,,,,,0,,,50,25
90180,note_on,60,0,2,,,,,,,,,,,,,,,0,,,50,0
90240,note_on,0,0,1,,,,,,,,,,,,,,,0,,,58,40
90240,note_on,0,0,1,,,,,,,,,,,,,,,0,,,53,34
90240,note_on,60,0,2,,,,,,,,,,,,,,,0,,,38,28
90240,note_on,0,0,1,,,,,,,,,,,,,,,0,,,53,0
90240,note_on,480,0,1,,,,,,,,,,,,,,,0,,,58,0
90240,set_tempo,480,1,0,,,,,,,,,,,,1138520,,,,,,,
90272,control_change,32,0,2,,,,,,,,,,,,,,,0,64,127,,
90360,note_on,0,0,2,,,,,,,,,,,,,,,0,,,50,25
90360,note_on,88,0,2,,,,,,,,,,,,,,,0,,,38,0
90409,control_change,49,0,2,,,,,,,,,,,,,,,0,64,0,,
90420,note_on,11,0,2,,,,,,,,,,,,,,,0,,,50,0
90480,note_on,60,0,2,,,,,,,,,,,,,,,0,,,50,25
90540,note_on,60,0,2,,,,,,,,,,,,,,,0,,,50,0
90600,note_on,60,0,2,,,,,,,,,,,,,,,0,,,50,25
90660,note_on,60,0,2,,,,,,,,,,,,,,,0,,,50,0
90720,note_on,0,0,1,,,,,,,,,,,,,,,0,,,55,34
90720,note_on,480,0,1,,,,,,,,,,,,,,,0,,,58,0
90720,note_on,0,0,1,,,,,,,,,,,,,,,0,,,53,0
90720,note_on,60,0,2,,,,,,,,,,,,,,,0,,,39,30
90720,note_on,0,0,1,,,,,,,,,,,,,,,0,,,58,41
90726,control_change,6,0,2,,,,,,,,,,,,,,,0,64,127,,
90840,note_on,114,0,2,,,,,,,,,,,,,,,0,,,39,0
90840,note_on,0,0,2,,,,,,,,,,,,,,,0,,,51,26
90857,control_change,17,0,2,,,,,,,,,,,,,,,0,64,0,,
90900,note_on,43,0,2,,,,,,,,,,,,,,,0,,,51,0
90960,note_on,60,0,2,,,,,,,,,,,,,,,0,,,51,26
91020,note_on,60,0,2,,,,,,,,,,,,,,,0,,,51,0
91080,note_on,60,0,2,,,,,,,,,,,,,,,0,,,51,26
91080,note_on,0,0,1,,,,,,,,,,,,,,,0,,,57,32
91080,note_on,0,0,1,,,,,,,,,,,,,,,0,,,58,0
91080,note_on,360,0,1,,,,,,,,,,,,,,,0,,,55,0
91080,set_tempo,840,1,0,,,,,,,,,,,,1165049,,,,,,,
91110,note_on,30,0,1,,,,,,,,,,,,,,,0,,,58,32
91120,note_on,10,0,1,,,,,,,,,,,,,,,0,,,57,0
91140,note_on,20,0,1,,,,,,,,,,,,,,,0,,,60,32
91140,note_on,60,0,2,,,,,,,,,,,,,,,0,,,51,0
91150,note_on,10,0,1,,,,,,,,,,,,,,,0,,,58,0
91170,note_on,20,0,1,,,,,,,,,,,,,,,0,,,58,32
91180,note_on,10,0,1,,,,,,,,,,,,,,,0,,,60,0
91200,note_on,60,0,2,,,,,,,,,,,,,,,0,,,39,26
91200,set_tempo,120,1,0,,,,,,,,,,,,1149646,,,,,,,
91200,note_on,20,0,1,,,,,,,,,,,,,,,0,,,55,37
91210,note_on,10,0,1,,,,,,,,,,,,,,,0,,,58,0
91290,note_on,90,0,2,,,,,,,,,,,,,,,0,,,39,0
91320,note_on,30,0,2,,,,,,,,,,,,,,,0,,,51,26
91410,note_on,90,0,2,,,,,,,,,,,,,,,0,,,51,0
91440,set_tempo,240,1,0,,,,,,,,,,,,1107420,,,,,,,
91440,note_on,30,0,2,,,,,,,,,,,,,,,0,,,36,26
91440,note_on,0,0,1,,,,,,,,,,,,,,,0,,,67,40
91440,note_on,0,0,1,,,,,,,,,,,,,,,0,,,55,34
91440,note_on,0,0,1,,,,,,,,,,,,,,,0,,,63,34
91440,note_on,230,0,1,,,,,,,,,,,,,,,0,,,55,0
91450,control_change,10,0,2,,,,,,,,,,,,,,,0,64,127,,
91530,note_on,80,0,2,,,,,,,,,,,,,,,0,,,36,0
91560,note_on,30,0,2,,,,,,,,,,,,,,,0,,,48,26
91650,note_on,90,0,2,,,,,,,,,,,,,,,0,,,48,0
91680,note_on,0,0,1,,,,,,,,,,,,,,,0,,,65,40
91680,note_on,0,0,1,,,,,,,,,,,,,,,0,,,55,34
91680,note_on,0,0,1,,,,,,,,,,,,,,,0,,,55,0
91680,note_on,30,0,2,,,,,,,,,,,,,,,0,,,38,30
91680,note_on,0,0,1,,,,,,,,,,,,,,,0,,,63,0
91680,note_on,240,0,1,,,,,,,,,,,,,,,0,,,67,0
91680,note_on,0,0,1,,,,,,,,,,,,,,,0,,,59,34
91680,set_tempo,240,1,0,,,,,,,,,,,,1087350,,,,,,,
91707,control_change,27,0,2,,,,,,,,,,,,,,,0,64,127,,
91723,control_change,16,0,2,,,,,,,,,,,,,,,0,64,0,,
91800,note_on,0,0,2,,,,,,,,,,,,,,,0,,,50,23
91800,note_on,77,0,2,,,,,,,,,,,,,,,0,,,38,0
91920,note_on,0,0,1,,,,,,,,,,,,,,,0,,,63,41
91920,note_on,0,0,1,,,,,,,,,,,,,,,0,,,59,0
91920,set_tempo,240,1,0,,,,,,,,,,,,1107420,,,,,,,
91920,note_on,0,0,2,,,,,,,,,,,,,,,0,,,39,26
91920,note_on,240,0,1,,,,,,,,,,,,,,,0,,,65,0
91920,note_on,0,0,1,,,,,,,,,,,,,,,0,,,55,0
91920,note_on,0,0,1,,,,,,,,,,,,,,,0,,,60,28
91920,note_on,120,0,2,,,,,,,,,,,,,,,0,,,50,0
91920,note_on,0,0,1,,,,,,,,,,,,,,,0,,,55,28
91949,control_change,29,0,2,,,,,,,,,,,,,,,0,64,0,,
91966,control_change,17,0,2,,,,,,,,,,,,,,,0,64,127,,
92010,note_on,44,0,2,,,,,,,,,,,,,,,0,,,39,0
92040,note_on,30,0,2,,,,,,,,,,,,,,,0,,,51,27
92130,note_on,90,0,2,,,,,,,,,,,,,,,0,,,51,0
92160,note_on,240,0,1,,,,,,,,,,,,,,,0,,,63,0
92160,note_on,0,0,2,,,,,,,,,,,,,,,0,,,29,31
92160,set_tempo,240,1,0,,,,,,,,,,,,1107420,,,,,,,
92160,note_on,0,0,1,,,,,,,,,,,,,,,0,,,60,0
92160,note_on,0,0,1,,,,,,,,,,,,,,,0,,,55,0
92160,note_on,0,0,1,,,,,,,,,,,,,,,0,,,53,36
92160,note_on,0,0,1,,,,,,,,,,,,,,,0,,,58,36
92160,note_on,0,0,1,,,,,,,,,,,,,,,0,,,62,44
92160,control_change,30,0,2,,,,,,,,,,,,,,,0,64,0,,
92200,control_change,40,0,2,,,,,,,,,,,,,,,0,64,127,,
92280,note_on,80,0,2,,,,,,,,,,,,,,,0,,,29,0
92280,note_on,0,0,2,,,,,,,,,,,,,,,0,,,41,26
92297,control_change,17,0,2,,,,,,,,,,,,,,,0,64,0,,
92340,note_on,43,0,2,,,,,,,,,,,,,,,0,,,41,0
92400,note_on,60,0,2,,,,,,,,,,,,,,,0,,,41,26
92460,note_on,60,0,2,,,,,,,,,,,,,,,0,,,41,0
92520,note_on,60,0,2,,,,,,,,,,,,,,,0,,,41,27
92580,note_on,60,0,2,,,,,,,,,,,,,,,0,,,41,0
92640,note_on,60,0,2,,,,,,,,,,,,,,,0,,,29,27
92640,set_tempo,480,1,0,,,,,,,,,,,,1077780,,,,,,,
92671,control_change,31,0,2,,,,,,,,,,,,,,,0,64,127,,
92760,note_on,89,0,2,,,,,,,,,,,,,,,0,,,29,0
92760,note_on,0,0,2,,,,,,,,,,,,,,,0,,,41,27
92783,control_change,23,0,2,,,,,,,,,,,,,,,0,64,0,,
92820,note_on,37,0,2,,,,,,,,,,,,,,,0,,,41,0
92880,note_on,60,0,2,,,,,,,,,,,,,,,0,,,41,27
92880,set_tempo,240,1,0,,,,,,,,,,,,1097293,,,,,,,
92940,note_on,60,0,2,,,,,,,,,,,,,,,0,,,41,0
93000,note_on,60,0,2,,,,,,,,,,,,,,,0,,,41,27
93060,note_on,60,0,2,,,,,,,,,,,,,,,0,,,41,0
93120,note_on,0,0,1,,,,,,,,,,,,,,,0,,,63,43
93120,set_tempo,240,1,0,,,,,,,,,,,,1128032,,,,,,,
93120,note_on,960,0,1,,,,,,,,,,,,,,,0,,,62,0
93120,note_on,0,0,1,,,,,,,,,,,,,,,0,,,58,0
93120,note_on,0,0,1,,,,,,,,,,,,,,,0,,,53,0
93120,note_on,0,0,1,,,,,,,,,,,,,,,0,,,51,36
93120,note_on,0,0,1,,,,,,,,,,,,,,,0,,,57,36
93120,note_on,60,0,2,,,,,,,,,,,,,,,0,,,29,26
93160,control_change,40,0,2,,,,,,,,,,,,,,,0,64,127,,
93240,note_on,80,0,2,,,,,,,,,,,,,,,0,,,29,0
93240,note_on,0,0,2,,,,,,,,,,,,,,,0,,,41,26
93280,control_change,40,0,2,,,,,,,,,,,,,,,0,64,0,,
93300,note_on,20,0,2,,,,,,,,,,,,,,,0,,,41,0
93360,note_on,60,0,2,,,,,,,,,,,,,,,0,,,41,26
93360,set_tempo,240,1,0,,,,,,,,,,,,1171875,,,,,,,
93420,note_on,60,0,2,,,,,,,,,,,,,,,0,,,41,0
93480,note_on,360,0,1,,,,,,,,,,,,,,,0,,,60,41
93480,note_on,60,0,2,,,,,,,,,,,,,,,0,,,41,27
93490,note_on,10,0,1,,,,,,,,,,,,,,,0,,,63,0
93540,note_on,60,0,2,,,,,,,,,,,,,,,0,,,41,0
93600,note_on,0,0,1,,,,,,,,,,,,,,,0,,,57,0
93600,set_tempo,240,1,0,,,,,,,,,,,,1128032,,,,,,,
93600,note_on,0,0,1,,,,,,,,,,,,,,,0,,,56,35
93600,note_on,0,0,1,,,,,,,,,,,,,,,0,,,50,35
93600,note_on,60,0,2,,,,,,,,,,,,,,,0,,,29,31
93600,note_on,110,0,1,,,,,,,,,,,,,,,0,,,51,0
93600,note_on,0,0,1,,,,,,,,,,,,,,,0,,,59,42
93610,note_on,10,0,1,,,,,,,,,,,,,,,0,,,60,0
93720,note_on,120,0,2,,,,,,,,,,,,,,,0,,,29,0
93720,note_on,0,0,2,,,,,,,,,,,,,,,0,,,41,28
93780,note_on,60,0,2,,,,,,,,,,,,,,,0,,,41,0
93840,note_on,60,0,2,,,,,,,,,,,,,,,0,,,41,28
93900,note_on,60,0,2,,,,,,,,,,,,,,,0,,,41,0
93960,note_on,60,0,2,,,,,,,,,,,,,,,0,,,41,29
94020,note_on,60,0,2,,,,,,,,,,,,,,,0,,,41,0
94080,set_tempo,480,1,0,,,,,,,,,,,,1097293,,,,,,,
94080,note_on,60,0,2,,,,,,,,,,,,,,,0,,,29,29
94200,note_on,0,0,2,,,,,,,,,,,,,,,0,,,41,28
94200,note_on,120,0,2,,,,,,,,,,,,,,,0,,,29,0
94260,note_on,60,0,2,,,,,,,,,,,,,,,0,,,41,0
94320,note_on,60,0,2,,,,,,,,,,,,,,,0,,,41,28
94380,note_on,60,0,2,,,,,,,,,,,,,,,0,,,41,0
94400,set_tempo,320,1,0,,,,,,,,,,,,1097293,,,,,,,
94440,note_on,60,0,2,,,,,,,,,,,,,,,0,,,41,28
94500,note_on,60,0,2,,,,,,,,,,,,,,,0,,,41,0
94560,set_tempo,160,1,0,,,,,,,,,,,,1107420,,,,,,,
94560,note_on,60,0,2,,,,,,,,,,,,,,,0,,,29,29
94680,note_on,120,0,2,,,,,,,,,,,,,,,0,,,29,0
94680,set_tempo,120,1,0,,,,,,,,,,,,1117527,,,,,,,
94680,note_on,0,0,2,,,,,,,,,,,,,,,0,,,41,28
94740,note_on,60,0,2,,,,,,,,,,,,,,,0,,,41,0
94800,note_on,60,0,2,,,,,,,,,,,,,,,0,,,41,28
94800,set_tempo,120,1,0,,,,,,,,,,,,1128032,,,,,,,
94860,note_on,60,0,2,,,,,,,,,,,,,,,0,,,41,0
94920,set_tempo,120,1,0,,,,,,,,,,,,1138520,,,,,,,
94920,note_on,60,0,2,,,,,,,,,,,,,,,0,,,41,27
94980,note_on,60,0,2,,,,,,,,,,,,,,,0,,,41,0
95040,set_tempo,120,1,0,,,,,,,,,,,,1107420,,,,,,,
95040,note_on,1430,0,1,,,,,,,,,,,,,,,0,,,50,0
95040,note_on,0,0,1,,,,,,,,,,,,,,,0,,,56,0
95040,note_on,0,0,1,,,,,,,,,,,,,,,0,,,59,0
95040,note_on,0,0,1,,,,,,,,,,,,,,,0,,,50,36
95040,note_on,0,0,1,,,,,,,,,,,,,,,0,,,59,44
95040,note_on,0,0,1,,,,,,,,,,,,,,,0,,,56,36
95040,control_change,60,0,2,,,,,,,,,,,,,,,0,64,0,,
95040,note_on,0,0,2,,,,,,,,,,,,,,,0,,,40,31
95089,control_change,49,0,2,,,,,,,,,,,,,,,0,64,127,,
95160,note_on,0,0,2,,,,,,,,,,,,,,,0,,,52,28
95160,note_on,71,0,2,,,,,,,,,,,,,,,0,,,40,0
95220,note_on,60,0,2,,,,,,,,,,,,,,,0,,,52,0
95234,control_change,14,0,2,,,,,,,,,,,,,,,0,64,0,,
95280,note_on,46,0,2,,,,,,,,,,,,,,,0,,,52,28
95340,note_on,60,0,2,,,,,,,,,,,,,,,0,,,52,0
95400,note_on,60,0,2,,,,,,,,,,,,,,,0,,,52,29
95460,note_on,60,0,2,,,,,,,,,,,,,,,0,,,52,0
95520,set_tempo,480,1,0,,,,,,,,,,,,1077780,,,,,,,
95520,note_on,60,0,2,,,,,,,,,,,,,,,0,,,40,29
95541,control_change,21,0,2,,,,,,,,,,,,,,,0,64,127,,
95640,note_on,0,0,2,,,,,,,,,,,,,,,0,,,52,29
95640,note_on,99,0,2,,,,,,,,,,,,,,,0,,,40,0
95654,control_change,14,0,2,,,,,,,,,,,,,,,0,64,0,,
95700,note_on,46,0,2,,,,,,,,,,,,,,,0,,,52,0
95760,note_on,60,0,2,,,,,,,,,,,,,,,0,,,52,31
95760,note_on,720,0,1,,,,,,,,,,,,,,,0,,,59,0
95760,set_tempo,240,1,0,,,,,,,,,,,,1117527,,,,,,,
95760,note_on,0,0,1,,,,,,,,,,,,,,,0,,,61,46
95820,note_on,60,0,2,,,,,,,,,,,,,,,0,,,52,0
95880,note_on,60,0,2,,,,,,,,,,,,,,,0,,,52,30
95880,note_on,120,0,1,,,,,,,,,,,,,,,0,,,62,46
95890,note_on,10,0,1,,,,,,,,,,,,,,,0,,,61,0
95940,note_on,60,0,2,,,,,,,,,,,,,,,0,,,52,0
96000,note_on,60,0,2,,,,,,,,,,,,,,,0,,,40,30
96000,set_tempo,240,1,0,,,,,,,,,,,,1207001,,,,,,,
96000,note_on,110,0,1,,,,,,,,,,,,,,,0,,,50,0
96000,note_on,0,0,1,,,,,,,,,,,,,,,0,,,56,0
96000,note_on,0,0,1,,,,,,,,,,,,,,,0,,,64,45
96010,note_on,10,0,1,,,,,,,,,,,,,,,0,,,62,0
96092,control_change,92,0,2,,,,,,,,,,,,,,,0,64,127,,
96120,note_on,0,0,2,,,,,,,,,,,,,,,0,,,52,29
96120,note_on,28,0,2,,,,,,,,,,,,,,,0,,,40,0
96240,note_on,0,0,1,,,,,,,,,,,,,,,0,,,52,44
96240,note_on,0,0,1,,,,,,,,,,,,,,,0,,,56,44
96240,set_tempo,240,1,0,,,,,,,,,,,,1283972,,,,,,,
96240,note_on,0,0,2,,,,,,,,,,,,,,,0,,,40,30
96240,note_on,120,0,2,,,,,,,,,,,,,,,0,,,52,0
96240,note_on,230,0,1,,,,,,,,,,,,,,,0,,,64,0
96240,note_on,0,0,1,,,,,,,,,,,,,,,0,,,50,44
96360,note_on,0,0,2,,,,,,,,,,,,,,,0,,,40,29
96360,note_on,120,0,2,,,,,,,,,,,,,,,0,,,40,0
96480,note_on,0,0,1,,,,,,,,,,,,,,,0,,,50,0
96480,note_on,0,0,1,,,,,,,,,,,,,,,0,,,49,38
96480,note_on,0,0,1,,,,,,,,,,,,,,,0,,,52,38
96480,note_on,240,0,1,,,,,,,,,,,,,,,0,,,56,0
96480,control_change,0,0,2,,,,,,,,,,,,,,,0,64,0,,
96480,set_tempo,240,1,0,,,,,,,,,,,,1171875,,,,,,,
96480,note_on,0,0,1,,,,,,,,,,,,,,,0,,,57,45
96480,note_on,120,0,2,,,,,,,,,,,,,,,0,,,40,0
96480,note_on,0,0,1,,,,,,,,,,,,,,,0,,,52,0
96480,note_on,0,0,2,,,,,,,,,,,,,,,0,,,33,34
96558,control_change,78,0,2,,,,,,,,,,,,,,,0,64,127,,
96600,note_on,42,0,2,,,,,,,,,,,,,,,0,,,33,0
96600,note_on,0,0,2,,,,,,,,,,,,,,,0,,,45,28
96660,note_on,60,0,2,,,,,,,,,,,,,,,0,,,45,0
96720,note_on,60,0,2,,,,,,,,,,,,,,,0,,,45,28
96727,control_change,7,0,2,,,,,,,,,,,,,,,0,64,0,,
96780,note_on,53,0,2,,,,,,,,,,,,,,,0,,,45,0
96840,note_on,60,0,2,,,,,,,,,,,,,,,0,,,45,28
96900,note_on,60,0,2,,,,,,,,,,,,,,,0,,,45,0
96960,note_on,60,0,2,,,,,,,,,,,,,,,0,,,33,33
96960,note_on,0,0,1,,,,,,,,,,,,,,,0,,,57,46
96960,set_tempo,480,1,0,,,,,,,,,,,,1107420,,,,,,,
96960,note_on,480,0,1,,,,,,,,,,,,,,,0,,,57,0
96960,note_on,0,0,1,,,,,,,,,,,,,,,0,,,52,0
96960,note_on,0,0,1,,,,,,,,,,,,,,,0,,,49,0
96960,note_on,0,0,1,,,,,,,,,,,,,,,0,,,49,38
97013,control_change,53,0,2,,,,,,,,,,,,,,,0,64,127,,
97080,note_on,0,0,2,,,,,,,,,,,,,,,0,,,45,28
97080,note_on,67,0,2,,,,,,,,,,,,,,,0,,,33,0
97122,control_change,42,0,2,,,,,,,,,,,,,,,0,64,0,,
97140,note_on,18,0,2,,,,,,,,,,,,,,,0,,,45,0
97200,note_on,60,0,2,,,,,,,,,,,,,,,0,,,45,28
97260,note_on,60,0,2,,,,,,,,,,,,,,,0,,,45,0
97320,note_on,60,0,2,,,,,,,,,,,,,,,0,,,45,28
97380,note_on,60,0,2,,,,,,,,,,,,,,,0,,,45,0
97440,note_on,60,0,2,,,,,,,,,,,,,,,0,,,33,32
97440,note_on,0,0,1,,,,,,,,,,,,,,,0,,,57,38
97440,set_tempo,480,1,0,,,,,,,,,,,,1138520,,,,,,,
97440,note_on,480,0,1,,,,,,,,,,,,,,,0,,,57,0
97440,note_on,0,0,1,,,,,,,,,,,,,,,0,,,49,0
97440,note_on,0,0,1,,,,,,,,,,,,,,,0,,,59,45
97440,note_on,0,0,1,,,,,,,,,,,,,,,0,,,50,38
97479,control_change,39,0,2,,,,,,,,,,,,,,,0,64,127,,
97560,note_on,0,0,2,,,,,,,,,,,,,,,0,,,45,28
97560,note_on,81,0,2,,,,,,,,,,,,,,,0,,,33,0
97606,control_change,46,0,2,,,,,,,,,,,,,,,0,64,0,,
97620,note_on,14,0,2,,,,,,,,,,,,,,,0,,,45,0
97680,note_on,60,0,2,,,,,,,,,,,,,,,0,,,45,28
97740,note_on,60,0,2,,,,,,,,,,,,,,,0,,,45,0
97800,note_on,60,0,2,,,,,,,,,,,,,,,0,,,45,28
97860,note_on,60,0,2,,,,,,,,,,,,,,,0,,,45,0
97920,note_on,480,0,1,,,,,,,,,,,,,,,0,,,59,0
97920,note_on,60,0,2,,,,,,,,,,,,,,,0,,,33,34
97920,note_on,0,0,1,,,,,,,,,,,,,,,0,,,57,38
97920,note_on,0,0,1,,,,,,,,,,,,,,,0,,,61,46
97920,note_on,0,0,1,,,,,,,,,,,,,,,0,,,52,38
97920,note_on,0,0,1,,,,,,,,,,,,,,,0,,,50,0
97920,note_on,0,0,1,,,,,,,,,,,,,,,0,,,57,0
97977,control_change,57,0,2,,,,,,,,,,,,,,,0,64,127,,
98040,note_on,63,0,2,,,,,,,,,,,,,,,0,,,33,0
98040,note_on,0,0,2,,,,,,,,,,,,,,,0,,,45,29
98100,note_on,60,0,2,,,,,,,,,,,,,,,0,,,45,0
98100,control_change,0,0,2,,,,,,,,,,,,,,,0,64,0,,
98160,note_on,60,0,2,,,,,,,,,,,,,,,0,,,45,29
98220,note_on,60,0,2,,,,,,,,,,,,,,,0,,,45,0
98280,note_on,60,0,2,,,,,,,,,,,,,,,0,,,45,29
98280,note_on,0,0,1,,,,,,,,,,,,,,,0,,,57,36
98280,note_on,0,0,1,,,,,,,,,,,,,,,0,,,59,42
98280,note_on,360,0,1,,,,,,,,,,,,,,,0,,,57,0
98280,note_on,0,0,1,,,,,,,,,,,,,,,0,,,50,36
98290,note_on,10,0,1,,,,,,,,,,,,,,,0,,,61,0
98290,note_on,0,0,1,,,,,,,,,,,,,,,0,,,52,0
98340,note_on,60,0,2,,,,,,,,,,,,,,,0,,,45,0
98400,set_tempo,960,1,0,,,,,,,,,,,,1107420,,,,,,,
98400,note_on,60,0,2,,,,,,,,,,,,,,,0,,,45,29
98400,note_on,110,0,1,,,,,,,,,,,,,,,0,,,57,0
98400,note_on,0,0,1,,,,,,,,,,,,,,,0,,,57,42
98400,note_on,0,0,1,,,,,,,,,,,,,,,0,,,49,36
98410,note_on,10,0,1,,,,,,,,,,,,,,,0,,,50,0
98410,note_on,0,0,1,,,,,,,,,,,,,,,0,,,59,0
98460,note_on,60,0,2,,,,,,,,,,,,,,,0,,,45,0
98520,note_on,60,0,2,,,,,,,,,,,,,,,0,,,45,29
98580,note_on,60,0,2,,,,,,,,,,,,,,,0,,,45,0
98640,note_on,60,0,2,,,,,,,,,,,,,,,0,,,45,29
98700,note_on,60,0,2,,,,,,,,,,,,,,,0,,,45,0
98760,note_on,60,0,2,,,,,,,,,,,,,,,0,,,45,29
98820,note_on,60,0,2,,,,,,,,,,,,,,,0,,,45,0
98880,note_on,60,0,2,,,,,,,,,,,,,,,0,,,45,37
98940,note_on,60,0,2,,,,,,,,,,,,,,,0,,,45,0
99000,note_on,60,0,2,,,,,,,,,,,,,,,0,,,45,28
99060,note_on,60,0,2,,,,,,,,,,,,,,,0,,,45,0
99120,note_on,60,0,2,,,,,,,,,,,,,,,0,,,45,31
99120,set_tempo,720,1,0,,,,,,,,,,,,1149646,,,,,,,
99120,note_on,0,0,1,,,,,,,,,,,,,,,0,,,57,41
99120,note_on,0,0,1,,,,,,,,,,,,,,,0,,,52,41
99120,note_on,0,0,1,,,,,,,,,,,,,,,0,,,61,50
99120,note_on,710,0,1,,,,,,,,,,,,,,,0,,,49,0
99120,note_on,0,0,1,,,,,,,,,,,,,,,0,,,57,0
99180,note_on,60,0,2,,,,,,,,,,,,,,,0,,,45,0
99240,note_on,60,0,2,,,,,,,,,,,,,,,0,,,45,34
99300,note_on,60,0,2,,,,,,,,,,,,,,,0,,,45,0
99360,note_on,0,0,1,,,,,,,,,,,,,,,0,,,62,52
99360,note_on,0,0,1,,,,,,,,,,,,,,,0,,,57,44
99360,note_on,0,0,1,,,,,,,,,,,,,,,0,,,52,0
99360,set_tempo,240,1,0,,,,,,,,,,,,1107420,,,,,,,
99360,note_on,0,0,1,,,,,,,,,,,,,,,0,,,53,44
99360,note_on,240,0,1,,,,,,,,,,,,,,,0,,,61,0
99360,note_on,60,0,2,,,,,,,,,,,,,,,0,,,33,37
99360,note_on,0,0,1,,,,,,,,,,,,,,,0,,,57,0
99385,control_change,25,0,2,,,,,,,,,,,,,,,0,64,127,,
99480,note_on,0,0,2,,,,,,,,,,,,,,,0,,,45,34
99480,note_on,95,0,2,,,,,,,,,,,,,,,0,,,33,0
99529,control_change,49,0,2,,,,,,,,,,,,,,,0,64,0,,
99540,note_on,11,0,2,,,,,,,,,,,,,,,0,,,45,0
99600,note_on,60,0,2,,,,,,,,,,,,,,,0,,,45,34
99660,note_on,60,0,2,,,,,,,,,,,,,,,0,,,45,0
99720,note_on,0,0,1,,,,,,,,,,,,,,,0,,,52,41
99720,note_on,60,0,2,,,,,,,,,,,,,,,0,,,45,34
99720,note_on,360,0,1,,,,,,,,,,,,,,,0,,,57,0
99720,note_on,0,0,1,,,,,,,,,,,,,,,0,,,57,41
99720,note_on,0,0,1,,,,,,,,,,,,,,,0,,,61,49
99730,note_on,10,0,1,,,,,,,,,,,,,,,0,,,62,0
99730,note_on,0,0,1,,,,,,,,,,,,,,,0,,,53,0
99780,note_on,60,0,2,,,,,,,,,,,,,,,0,,,45,0
99840,note_on,0,0,1,,,,,,,,,,,,,,,0,,,57,42
99840,note_on,0,0,1,,,,,,,,,,,,,,,0,,,50,42
99840,note_on,60,0,2,,,,,,,,,,,,,,,0,,,33,34
99840,set_tempo,480,1,0,,,,,,,,,,,,1077780,,,,,,,
99840,note_on,0,0,1,,,,,,,,,,,,,,,0,,,59,51
99840,note_on,110,0,1,,,,,,,,,,,,,,,0,,,57,0
99850,note_on,10,0,1,,,,,,,,,,,,,,,0,,,52,0
99850,note_on,0,0,1,,,,,,,,,,,,,,,0,,,61,0
99900,note_on,60,0,2,,,,,,,,,,,,,,,0,,,33,0
99960,note_on,60,0,2,,,,,,,,,,,,,,,0,,,45,33
100020,note_on,60,0,2,,,,,,,,,,,,,,,0,,,45,0
100080,note_on,0,0,1,,,,,,,,,,,,,,,0,,,59,0
100080,note_on,0,0,1,,,,,,,,,,,,,,,0,,,53,41
100080,note_on,60,0,2,,,,,,,,,,,,,,,0,,,45,34
100080,note_on,0,0,1,,,,,,,,,,,,,,,0,,,57,41
100080,note_on,0,0,1,,,,,,,,,,,,,,,0,,,50,0
100080,note_on,0,0,1,,,,,,,,,,,,,,,0,,,62,49
100080,note_on,230,0,1,,,,,,,,,,,,,,,0,,,57,0
100140,note_on,60,0,2,,,,,,,,,,,,,,,0,,,45,0
100200,note_on,60,0,2,,,,,,,,,,,,,,,0,,,45,34
100260,note_on,60,0,2,,,,,,,,,,,,,,,0,,,45,0
100320,note_on,0,0,1,,,,,,,,,,,,,,,0,,,57,41
100320,note_on,0,0,1,,,,,,,,,,,,,,,0,,,52,41
100320,set_tempo,480,1,0,,,,,,,,,,,,1128032,,,,,,,
100320,note_on,240,0,1,,,,,,,,,,,,,,,0,,,62,0
100320,note_on,60,0,2,,,,,,,,,,,,,,,0,,,33,34
100320,note_on,0,0,1,,,,,,,,,,,,,,,0,,,61,49
100320,note_on,0,0,1,,,,,,,,,,,,,,,0,,,53,0
100320,note_on,0,0,1,,,,,,,,,,,,,,,0,,,57,0
100412,control_change,92,0,2,,,,,,,,,,,,,,,0,64,127,,
100440,note_on,28,0,2,,,,,,,,,,,,,,,0,,,33,0
100440,note_on,0,0,2,,,,,,,,,,,,,,,0,,,45,34
100560,note_on,240,0,1,,,,,,,,,,,,,,,0,,,61,0
100560,note_on,120,0,2,,,,,,,,,,,,,,,0,,,45,0
100560,note_on,0,0,2,,,,,,,,,,,,,,,0,,,37,34
100560,note_on,0,0,1,,,,,,,,,,,,,,,0,,,57,0
100560,note_on,0,0,1,,,,,,,,,,,,,,,0,,,52,0
100560,note_on,0,0,1,,,,,,,,,,,,,,,0,,,49,41
100560,note_on,0,0,1,,,,,,,,,,,,,,,0,,,52,41
100560,note_on,0,0,1,,,,,,,,,,,,,,,0,,,57,49
100680,note_on,120,0,2,,,,,,,,,,,,,,,0,,,37,0
100680,note_on,0,0,2,,,,,,,,,,,,,,,0,,,49,34
100800,note_on,240,0,1,,,,,,,,,,,,,,,0,,,57,0
100800,note_on,0,0,1,,,,,,,,,,,,,,,0,,,52,0
100800,note_on,0,0,1,,,,,,,,,,,,,,,0,,,47,42
100800,set_tempo,480,1,0,,,,,,,,,,,,1087350,,,,,,,
100800,note_on,0,0,2,,,,,,,,,,,,,,,0,,,28,37
100800,control_change,0,0,2,,,,,,,,,,,,,,,0,64,0,,
100800,note_on,120,0,2,,,,,,,,,,,,,,,0,,,49,0
100800,note_on,0,0,1,,,,,,,,,,,,,,,0,,,56,51
100800,note_on,0,0,1,,,,,,,,,,,,,,,0,,,52,42
100800,note_on,0,0,1,,,,,,,,,,,,,,,0,,,49,0
100856,control_change,56,0,2,,,,,,,,,,,,,,,0,64,127,,
100920,note_on,0,0,2,,,,,,,,,,,,,,,0,,,40,31
100920,note_on,64,0,2,,,,,,,,,,,,,,,0,,,28,0
101040,note_on,120,0,2,,,,,,,,,,,,,,,0,,,40,0
101040,note_on,0,0,2,,,,,,,,,,,,,,,0,,,40,34
101160,note_on,120,0,2,,,,,,,,,,,,,,,0,,,40,0
101160,note_on,0,0,2,,,,,,,,,,,,,,,0,,,40,36
101249,control_change,89,0,2,,,,,,,,,,,,,,,0,64,0,,
101280,set_tempo,480,1,0,,,,,,,,,,,,1097293,,,,,,,
101280,note_on,0,0,2,,,,,,,,,,,,,,,0,,,40,40
101280,note_on,31,0,2,,,,,,,,,,,,,,,0,,,40,0
101340,note_on,60,0,2,,,,,,,,,,,,,,,0,,,40,0
101400,note_on,60,0,2,,,,,,,,,,,,,,,0,,,40,41
101460,note_on,60,0,2,,,,,,,,,,,,,,,0,,,40,0
101520,note_on,0,0,1,,,,,,,,,,,,,,,0,,,53,49
101520,note_on,0,0,1,,,,,,,,,,,,,,,0,,,56,60
101520,note_on,0,0,1,,,,,,,,,,,,,,,0,,,52,0
101520,note_on,720,0,1,,,,,,,,,,,,,,,0,,,56,0
101520,note_on,60,0,2,,,,,,,,,,,,,,,0,,,38,46
101520,note_on,0,0,1,,,,,,,,,,,,,,,0,,,47,49
101520,note_on,0,0,1,,,,,,,,,,,,,,,0,,,47,0
101580,note_on,60,0,2,,,,,,,,,,,,,,,0,,,38,0
101600,set_tempo,320,1,0,,,,,,,,,,,,1097293,,,,,,,
101640,note_on,60,0,2,,,,,,,,,,,,,,,0,,,38,47
101700,note_on,60,0,2,,,,,,,,,,,,,,,0,,,38,0
101760,note_on,0,0,1,,,,,,,,,,,,,,,0,,,56,66
101760,note_on,0,0,1,,,,,,,,,,,,,,,0,,,52,56
101760,note_on,0,0,1,,,,,,,,,,,,,,,0,,,48,56
101760,note_on,0,0,1,,,,,,,,,,,,,,,0,,,47,0
101760,note_on,0,0,1,,,,,,,,,,,,,,,0,,,53,0
101760,note_on,240,0,1,,,,,,,,,,,,,,,0,,,56,0
101760,set_tempo,160,1,0,,,,,,,,,,,,1107420,,,,,,,
101760,note_on,60,0,2,,,,,,,,,,,,,,,0,,,36,48
101820,note_on,60,0,2,,,,,,,,,,,,,,,0,,,36,0
101880,set_tempo,120,1,0,,,,,,,,,,,,1117527,,,,,,,
101880,note_on,60,0,2,,,,,,,,,,,,,,,0,,,36,49
101940,note_on,60,0,2,,,,,,,,,,,,,,,0,,,36,0
102000,note_on,0,0,1,,,,,,,,,,,,,,,0,,,48,0
102000,note_on,0,0,1,,,,,,,,,,,,,,,0,,,50,59
102000,set_tempo,120,1,0,,,,,,,,,,,,1128032,,,,,,,
102000,note_on,240,0,1,,,,,,,,,,,,,,,0,,,56,0
102000,note_on,0,0,1,,,,,,,,,,,,,,,0,,,52,59
102000,note_on,0,0,1,,,,,,,,,,,,,,,0,,,52,0
102000,note_on,0,0,1,,,,,,,,,,,,,,,0,,,56,69
102000,note_on,60,0,2,,,,,,,,,,,,,,,0,,,35,51
102060,note_on,60,0,2,,,,,,,,,,,,,,,0,,,35,0
102120,note_on,60,0,2,,,,,,,,,,,,,,,0,,,35,53
102120,set_tempo,120,1,0,,,,,,,,,,,,1138520,,,,,,,
102180,note_on,60,0,2,,,,,,,,,,,,,,,0,,,35,0
102240,note_on,0,0,1,,,,,,,,,,,,,,,0,,,57,76
102240,note_on,240,0,1,,,,,,,,,,,,,,,0,,,56,0
102240,note_on,0,0,1,,,,,,,,,,,,,,,0,,,52,0
102240,note_on,0,0,1,,,,,,,,,,,,,,,0,,,50,0
102240,note_on,0,0,1,,,,,,,,,,,,,,,0,,,48,63
102240,set_tempo,120,1,0,,,,,,,,,,,,1171875,,,,,,,
102240,note_on,0,0,1,,,,,,,,,,,,,,,0,,,52,63
102240,note_on,60,0,2,,,,,,,,,,,,,,,0,,,33,57
102254,control_change,14,0,2,,,,,,,,,,,,,,,0,64,127,,
102346,control_change,92,0,2,,,,,,,,,,,,,,,0,64,0,,
102360,note_on,14,0,2,,,,,,,,,,,,,,,0,,,33,0
102360,note_on,0,0,2,,,,,,,,,,,,,,,0,,,45,46
102420,note_on,60,0,2,,,,,,,,,,,,,,,0,,,45,0
102480,note_on,60,0,2,,,,,,,,,,,,,,,0,,,45,46
102540,note_on,60,0,2,,,,,,,,,,,,,,,0,,,45,0
102600,note_on,60,0,2,,,,,,,,,,,,,,,0,,,45,46
102660,note_on,60,0,2,,,,,,,,,,,,,,,0,,,45,0
102720,note_on,0,0,1,,,,,,,,,,,,,,,0,,,57,77
102720,set_tempo,480,1,0,,,,,,,,,,,,1107420,,,,,,,
102720,note_on,0,0,1,,,,,,,,,,,,,,,0,,,52,0
102720,note_on,60,0,2,,,,,,,,,,,,,,,0,,,33,57
102720,note_on,480,0,1,,,,,,,,,,,,,,,0,,,57,0
102720,note_on,0,0,1,,,,,,,,,,,,,,,0,,,48,0
102720,note_on,0,0,1,,,,,,,,,,,,,,,0,,,52,63
102720,note_on,0,0,1,,,,,,,,,,,,,,,0,,,48,63
102746,control_change,26,0,2,,,,,,,,,,,,,,,0,64,127,,
102840,note_on,94,0,2,,,,,,,,,,,,,,,0,,,33,0
102840,note_on,0,0,2,,,,,,,,,,,,,,,0,,,45,46
102866,control_change,26,0,2,,,,,,,,,,,,,,,0,64,0,,
102900,note_on,34,0,2,,,,,,,,,,,,,,,0,,,45,0
102960,note_on,60,0,2,,,,,,,,,,,,,,,0,,,45,47
103020,note_on,60,0,2,,,,,,,,,,,,,,,0,,,45,0
103080,note_on,60,0,2,,,,,,,,,,,,,,,0,,,45,47
103140,note_on,60,0,2,,,,,,,,,,,,,,,0,,,45,0
103200,note_on,60,0,2,,,,,,,,,,,,,,,0,,,31,55
103200,note_on,0,0,1,,,,,,,,,,,,,,,0,,,59,79
103200,note_on,0,0,1,,,,,,,,,,,,,,,0,,,50,66
103200,set_tempo,480,1,0,,,,,,,,,,,,1138520,,,,,,,
103200,note_on,480,0,1,,,,,,,,,,,,,,,0,,,57,0
103200,note_on,0,0,1,,,,,,,,,,,,,,,0,,,48,0
103200,note_on,0,0,1,,,,,,,,,,,,,,,0,,,52,0
103200,note_on,0,0,1,,,,,,,,,,,,,,,0,,,53,66
103223,control_change,23,0,2,,,,,,,,,,,,,,,0,64,127,,
103320,note_on,0,0,2,,,,,,,,,,,,,,,0,,,43,47
103320,note_on,97,0,2,,,,,,,,,,,,,,,0,,,31,0
103343,control_change,23,0,2,,,,,,,,,,,,,,,0,64,0,,
103380,note_on,37,0,2,,,,,,,,,,,,,,,0,,,43,0
103440,note_on,60,0,2,,,,,,,,,,,,,,,0,,,43,48
103500,note_on,60,0,2,,,,,,,,,,,,,,,0,,,43,0
103560,note_on,60,0,2,,,,,,,,,,,,,,,0,,,43,48
103620,note_on,60,0,2,,,,,,,,,,,,,,,0,,,43,0
103680,note_on,0,0,1,,,,,,,,,,,,,,,0,,,55,69
103680,note_on,60,0,2,,,,,,,,,,,,,,,0,,,36,60
103680,note_on,480,0,1,,,,,,,,,,,,,,,0,,,59,0
103680,note_on,0,0,1,,,,,,,,,,,,,,,0,,,53,0
103680,note_on,0,0,1,,,,,,,,,,,,,,,0,,,50,0
103680,note_on,0,0,1,,,,,,,,,,,,,,,0,,,52,69
103680,note_on,0,0,1,,,,,,,,,,,,,,,0,,,60,84
103686,control_change,6,0,2,,,,,,,,,,,,,,,0,64,127,,
103800,note_on,114,0,2,,,,,,,,,,,,,,,0,,,36,0
103800,note_on,0,0,2,,,,,,,,,,,,,,,0,,,48,49
103809,control_change,9,0,2,,,,,,,,,,,,,,,0,64,0,,
103860,note_on,51,0,2,,,,,,,,,,,,,,,0,,,48,0
103920,note_on,60,0,2,,,,,,,,,,,,,,,0,,,48,50
103980,note_on,60,0,2,,,,,,,,,,,,,,,0,,,48,0
104040,note_on,360,0,1,,,,,,,,,,,,,,,0,,,53,66
104040,note_on,0,0,1,,,,,,,,,,,,,,,0,,,57,66
104040,note_on,60,0,2,,,,,,,,,,,,,,,0,,,48,50
104050,note_on,10,0,1,,,,,,,,,,,,,,,0,,,55,0
104050,note_on,0,0,1,,,,,,,,,,,,,,,0,,,52,0
104100,note_on,60,0,2,,,,,,,,,,,,,,,0,,,48,0
104160,set_tempo,960,1,0,,,,,,,,,,,,1107420,,,,,,,
104160,note_on,60,0,2,,,,,,,,,,,,,,,0,,,36,50
104160,note_on,0,0,1,,,,,,,,,,,,,,,0,,,55,66
104160,note_on,0,0,1,,,,,,,,,,,,,,,0,,,52,66
104160,note_on,0,0,1,,,,,,,,,,,,,,,0,,,60,77
104160,note_on,110,0,1,,,,,,,,,,,,,,,0,,,60,0
104170,note_on,10,0,1,,,,,,,,,,,,,,,0,,,57,0
104170,note_on,0,0,1,,,,,,,,,,,,,,,0,,,53,0
104200,control_change,40,0,2,,,,,,,,,,,,,,,0,64,127,,
104250,note_on,50,0,2,,,,,,,,,,,,,,,0,,,36,0
104280,note_on,30,0,2,,,,,,,,,,,,,,,0,,,48,50
104340,control_change,0,0,2,,,,,,,,,,,,,,,0,64,0,,
104340,note_on,60,0,2,,,,,,,,,,,,,,,0,,,48,0
104400,note_on,60,0,2,,,,,,,,,,,,,,,0,,,48,51
104460,note_on,60,0,2,,,,,,,,,,,,,,,0,,,48,0
104520,note_on,60,0,2,,,,,,,,,,,,,,,0,,,48,51
104580,note_on,60,0,2,,,,,,,,,,,,,,,0,,,48,0
104640,note_on,60,0,2,,,,,,,,,,,,,,,0,,,36,57
104663,control_change,23,0,2,,,,,,,,,,,,,,,0,64,127,,
104760,note_on,0,0,2,,,,,,,,,,,,,,,0,,,48,51
104760,note_on,97,0,2,,,,,,,,,,,,,,,0,,,36,0
104880,note_on,120,0,2,,,,,,,,,,,,,,,0,,,48,0
104880,note_on,0,0,1,,,,,,,,,,,,,,,0,,,60,0
104880,note_on,0,0,1,,,,,,,,,,,,,,,0,,,62,80
104880,note_on,0,0,1,,,,,,,,,,,,,,,0,,,57,66
104880,note_on,710,0,1,,,,,,,,,,,,,,,0,,,52,0
104880,note_on,0,0,2,,,,,,,,,,,,,,,0,,,41,54
104880,note_on,0,0,1,,,,,,,,,,,,,,,0,,,55,0
104909,control_change,29,0,2,,,,,,,,,,,,,,,0,64,0,,
104920,set_tempo,760,1,0,,,,,,,,,,,,1276596,,,,,,,
104926,control_change,17,0,2,,,,,,,,,,,,,,,0,64,127,,
104970,note_on,44,0,2,,,,,,,,,,,,,,,0,,,41,0
105000,note_on,30,0,2,,,,,,,,,,,,,,,0,,,53,57
105090,note_on,90,0,2,,,,,,,,,,,,,,,0,,,53,0
105120,note_on,0,0,2,,,,,,,,,,,,,,,0,,,40,60
105120,note_on,0,0,1,,,,,,,,,,,,,,,0,,,59,71
105120,note_on,0,0,1,,,,,,,,,,,,,,,0,,,56,71
105120,note_on,0,0,1,,,,,,,,,,,,,,,0,,,64,85
105120,note_on,240,0,1,,,,,,,,,,,,,,,0,,,62,0
105120,control_change,30,0,2,,,,,,,,,,,,,,,0,64,0,,
105120,set_tempo,200,1,0,,,,,,,,,,,,1107420,,,,,,,
105120,note_on,0,0,1,,,,,,,,,,,,,,,0,,,57,0
105152,control_change,32,0,2,,,,,,,,,,,,,,,0,64,127,,
105240,note_on,0,0,2,,,,,,,,,,,,,,,0,,,52,50
105240,note_on,88,0,2,,,,,,,,,,,,,,,0,,,40,0
105296,control_change,56,0,2,,,,,,,,,,,,,,,0,64,0,,
105300,note_on,4,0,2,,,,,,,,,,,,,,,0,,,52,0
105360,note_on,60,0,2,,,,,,,,,,,,,,,0,,,52,50
105420,note_on,60,0,2,,,,,,,,,,,,,,,0,,,52,0
105480,note_on,360,0,1,,,,,,,,,,,,,,,0,,,62,59
105480,note_on,60,0,2,,,,,,,,,,,,,,,0,,,52,48
105490,note_on,10,0,1,,,,,,,,,,,,,,,0,,,64,0
105540,note_on,60,0,2,,,,,,,,,,,,,,,0,,,52,0
105600,note_on,60,0,2,,,,,,,,,,,,,,,0,,,42,41
105600,note_on,0,0,1,,,,,,,,,,,,,,,0,,,57,52
105600,note_on,0,0,1,,,,,,,,,,,,,,,0,,,61,63
105600,set_tempo,480,1,0,,,,,,,,,,,,1031637,,,,,,,
105600,note_on,0,0,1,,,,,,,,,,,,,,,0,,,59,0
105600,note_on,110,0,1,,,,,,,,,,,,,,,0,,,56,0
105610,note_on,10,0,1,,,,,,,,,,,,,,,0,,,62,0
105664,control_change,64,0,2,,,,,,,,,,,,,,,0,64,127,,
105720,note_on,56,0,2,,,,,,,,,,,,,,,0,,,42,0
105720,note_on,0,0,2,,,,,,,,,,,,,,,0,,,54,39
105840,note_on,120,0,2,,,,,,,,,,,,,,,0,,,54,0
105840,note_on,0,0,2,,,,,,,,,,,,,,,0,,,38,34
105840,note_on,0,0,1,,,,,,,,,,,,,,,0,,,64,41
105840,note_on,0,0,1,,,,,,,,,,,,,,,0,,,57,35
105840,note_on,0,0,1,,,,,,,,,,,,,,,0,,,54,35
105840,note_on,0,0,1,,,,,,,,,,,,,,,0,,,57,0
105840,note_on,230,0,1,,,,,,,,,,,,,,,0,,,61,0
105840,set_tempo,240,1,0,,,,,,,,,,,,1077780,,,,,,,
105886,control_change,46,0,2,,,,,,,,,,,,,,,0,64,0,,
105932,control_change,46,0,2,,,,,,,,,,,,,,,0,64,127,,
105960,note_on,0,0,1,,,,,,,,,,,,,,,0,,,62,41
105960,note_on,0,0,1,,,,,,,,,,,,,,,0,,,54,0
105960,note_on,0,0,1,,,,,,,,,,,,,,,0,,,57,0
105960,note_on,120,0,1,,,,,,,,,,,,,,,0,,,64,0
105960,set_tempo,120,1,0,,,,,,,,,,,,1128032,,,,,,,
105960,note_on,0,0,2,,,,,,,,,,,,,,,0,,,50,34
105960,note_on,28,0,2,,,,,,,,,,,,,,,0,,,38,0
106080,note_on,120,0,2,,,,,,,,,,,,,,,0,,,50,0
106080,note_on,0,0,2,,,,,,,,,,,,,,,0,,,40,34
106080,set_tempo,120,1,0,,,,,,,,,,,,1171875,,,,,,,
106080,note_on,120,0,1,,,,,,,,,,,,,,,0,,,62,0
106080,note_on,0,0,1,,,,,,,,,,,,,,,0,,,57,41
106080,note_on,0,0,1,,,,,,,,,,,,,,,0,,,52,41
106080,note_on,0,0,1,,,,,,,,,,,,,,,0,,,61,49
106115,control_change,35,0,2,,,,,,,,,,,,,,,0,64,0,,
106172,control_change,57,0,2,,,,,,,,,,,,,,,0,64,127,,
106200,note_on,28,0,2,,,,,,,,,,,,,,,0,,,40,0
106200,note_on,0,0,2,,,,,,,,,,,,,,,0,,,52,34
106320,note_on,0,0,1,,,,,,,,,,,,,,,0,,,59,45
106320,note_on,0,0,1,,,,,,,,,,,,,,,0,,,56,38
106320,note_on,0,0,1,,,,,,,,,,,,,,,0,,,52,38
106320,note_on,0,0,1,,,,,,,,,,,,,,,0,,,50,38
106320,note_on,0,0,1,,,,,,,,,,,,,,,0,,,52,0
106320,note_on,240,0,1,,,,,,,,,,,,,,,0,,,61,0
106320,note_on,0,0,2,,,,,,,,,,,,,,,0,,,40,31
106320,note_on,120,0,2,,,,,,,,,,,,,,,0,,,52,0
106320,note_on,0,0,1,,,,,,,,,,,,,,,0,,,57,0
106360,set_tempo,280,1,0,,,,,,,,,,,,1244555,,,,,,,
106440,note_on,0,0,2,,,,,,,,,,,,,,,0,,,52,31
106440,note_on,120,0,2,,,,,,,,,,,,,,,0,,,40,0
106560,note_on,0,0,1,,,,,,,,,,,,,,,0,,,52,0
106560,note_on,120,0,2,,,,,,,,,,,,,,,0,,,52,0
106560,control_change,0,0,2,,,,,,,,,,,,,,,0,64,0,,
106560,note_on,240,0,1,,,,,,,,,,,,,,,0,,,59,0
106560,note_on,0,0,1,,,,,,,,,,,,,,,0,,,50,0
106560,set_tempo,200,1,0,,,,,,,,,,,,1128032,,,,,,,
106560,note_on,0,0,1,,,,,,,,,,,,,,,0,,,50,39
106560,note_on,0,0,1,,,,,,,,,,,,,,,0,,,52,39
106560,note_on,0,0,1,,,,,,,,,,,,,,,0,,,56,39
106560,note_on,0,0,1,,,,,,,,,,,,,,,0,,,59,47
106560,note_on,0,0,1,,,,,,,,,,,,,,,0,,,56,0
106616,control_change,56,0,2,,,,,,,,,,,,,,,0,64,127,,
106680,note_on,64,0,2,,,,,,,,,,,,,,,0,,,40,29
106800,note_on,120,0,2,,,,,,,,,,,,,,,0,,,40,0
106800,note_on,0,0,2,,,,,,,,,,,,,,,0,,,44,31
106920,note_on,120,0,2,,,,,,,,,,,,,,,0,,,44,0
106920,note_on,0,0,2,,,,,,,,,,,,,,,0,,,40,33
107040,note_on,0,0,1,,,,,,,,,,,,,,,0,,,57,47
107040,note_on,0,0,1,,,,,,,,,,,,,,,0,,,56,0
107040,note_on,0,0,1,,,,,,,,,,,,,,,0,,,50,0
107040,note_on,0,0,1,,,,,,,,,,,,,,,0,,,49,39
107040,set_tempo,480,1,0,,,,,,,,,,,,1097293,,,,,,,
107040,note_on,120,0,2,,,,,,,,,,,,,,,0,,,40,0
107040,control_change,0,0,2,,,,,,,,,,,,,,,0,64,0,,
107040,note_on,0,0,2,,,,,,,,,,,,,,,0,,,45,35
107040,note_on,480,0,1,,,,,,,,,,,,,,,0,,,59,0
107130,note_on,90,0,2,,,,,,,,,,,,,,,0,,,45,0
107160,note_on,30,0,2,,,,,,,,,,,,,,,0,,,45,32
107220,note_on,60,0,2,,,,,,,,,,,,,,,0,,,45,0
107280,note_on,240,0,1,,,,,,,,,,,,,,,0,,,52,0
107280,note_on,60,0,2,,,,,,,,,,,,,,,0,,,47,32
107340,note_on,60,0,2,,,,,,,,,,,,,,,0,,,47,0
107360,set_tempo,320,1,0,,,,,,,,,,,,1097293,,,,,,,
107400,note_on,60,0,2,,,,,,,,,,,,,,,0,,,49,32
107460,note_on,60,0,2,,,,,,,,,,,,,,,0,,,49,0
107520,note_on,0,0,1,,,,,,,,,,,,,,,0,,,49,0
107520,note_on,240,0,1,,,,,,,,,,,,,,,0,,,57,0
107520,set_tempo,160,1,0,,,,,,,,,,,,1107420,,,,,,,
107520,note_on,60,0,2,,,,,,,,,,,,,,,0,,,47,32
107580,note_on,60,0,2,,,,,,,,,,,,,,,0,,,47,0
107640,set_tempo,120,1,0,,,,,,,,,,,,1117527,,,,,,,
107640,note_on,60,0,2,,,,,,,,,,,,,,,0,,,45,32
107700,note_on,60,0,2,,,,,,,,,,,,,,,0,,,45,0
107760,set_tempo,120,1,0,,,,,,,,,,,,1128032,,,,,,,
107760,note_on,60,0,2,,,,,,,,,,,,,,,0,,,44,31
107820,note_on,60,0,2,,,,,,,,,,,,,,,0,,,44,0
107880,set_tempo,120,1,0,,,,,,,,,,,,1138520,,,,,,,
107880,note_on,60,0,2,,,,,,,,,,,,,,,0,,,42,31
107940,note_on,60,0,2,,,,,,,,,,,,,,,0,,,42,0
108000,note_on,480,0,1,,,,,,,,,,,,,,,0,,,71,62
108000,set_tempo,120,1,0,,,,,,,,,,,,1107420,,,,,,,
108000,note_on,60,0,2,,,,,,,,,,,,,,,0,,,40,36
108004,control_change,4,0,2,,,,,,,,,,,,,,,0,64,127,,
108080,note_on,80,0,1,,,,,,,,,,,,,,,0,,,68,31
108120,set_tempo,120,1,0,,,,,,,,,,,,1097293,,,,,,,
108120,note_on,116,0,2,,,,,,,,,,,,,,,0,,,40,0
108160,note_on,0,0,1,,,,,,,,,,,,,,,0,,,64,31
108160,note_on,80,0,1,,,,,,,,,,,,,,,0,,,68,0
108240,note_on,80,0,1,,,,,,,,,,,,,,,0,,,64,0
108240,set_tempo,120,1,0,,,,,,,,,,,,1087350,,,,,,,
108240,note_on,0,0,2,,,,,,,,,,,,,,,0,,,56,27
108240,note_on,0,0,1,,,,,,,,,,,,,,,0,,,68,31
108240,note_on,120,0,2,,,,,,,,,,,,,,,0,,,52,23
108320,note_on,0,0,1,,,,,,,,,,,,,,,0,,,64,31
108320,note_on,80,0,1,,,,,,,,,,,,,,,0,,,68,0
108360,note_on,120,0,2,,,,,,,,,,,,,,,0,,,56,0
108360,note_on,0,0,2,,,,,,,,,,,,,,,0,,,52,0
108360,set_tempo,120,1,0,,,,,,,,,,,,1077780,,,,,,,
108400,note_on,0,0,1,,,,,,,,,,,,,,,0,,,59,31
108400,note_on,80,0,1,,,,,,,,,,,,,,,0,,,64,0
108440,set_tempo,80,1,0,,,,,,,,,,,,1068186,,,,,,,
108480,note_on,80,0,1,,,,,,,,,,,,,,,0,,,59,0
108480,note_on,120,0,2,,,,,,,,,,,,,,,0,,,40,36
108480,note_on,0,0,1,,,,,,,,,,,,,,,0,,,71,0
108480,note_on,0,0,1,,,,,,,,,,,,,,,0,,,71,63
108560,note_on,80,0,1,,,,,,,,,,,,,,,0,,,68,31
108560,set_tempo,120,1,0,,,,,,,,,,,,1077780,,,,,,,
108600,note_on,120,0,2,,,,,,,,,,,,,,,0,,,40,0
108640,note_on,80,0,1,,,,,,,,,,,,,,,0,,,68,0
108640,note_on,0,0,1,,,,,,,,,,,,,,,0,,,64,31
108680,set_tempo,120,1,0,,,,,,,,,,,,1087350,,,,,,,
108720,note_on,0,0,1,,,,,,,,,,,,,,,0,,,68,31
108720,note_on,80,0,1,,,,,,,,,,,,,,,0,,,64,0
108720,note_on,120,0,2,,,,,,,,,,,,,,,0,,,52,24
108720,note_on,0,0,2,,,,,,,,,,,,,,,0,,,56,28
108760,set_tempo,80,1,0,,,,,,,,,,,,1097293,,,,,,,
108800,note_on,0,0,1,,,,,,,,,,,,,,,0,,,64,31
108800,note_on,80,0,1,,,,,,,,,,,,,,,0,,,68,0
108840,note_on,0,0,2,,,,,,,,,,,,,,,0,,,52,0
108840,note_on,120,0,2,,,,,,,,,,,,,,,0,,,56,0
108880,note_on,80,0,1,,,,,,,,,,,,,,,0,,,64,0
108880,note_on,0,0,1,,,,,,,,,,,,,,,0,,,59,31
108880,set_tempo,120,1,0,,,,,,,,,,,,1107420,,,,,,,
108960,set_tempo,80,1,0,,,,,,,,,,,,1117527,,,,,,,
108960,note_on,80,0,1,,,,,,,,,,,,,,,0,,,59,0
108960,note_on,0,0,1,,,,,,,,,,,,,,,0,,,71,0
108960,note_on,0,0,1,,,,,,,,,,,,,,,0,,,73,62
108960,note_on,120,0,2,,,,,,,,,,,,,,,0,,,49,36
109002,control_change,42,0,2,,,,,,,,,,,,,,,0,64,0,,
109040,note_on,80,0,1,,,,,,,,,,,,,,,0,,,70,31
109059,control_change,57,0,2,,,,,,,,,,,,,,,0,64,127,,
109080,note_on,21,0,2,,,,,,,,,,,,,,,0,,,49,0
109120,note_on,80,0,1,,,,,,,,,,,,,,,0,,,70,0
109120,note_on,0,0,1,,,,,,,,,,,,,,,0,,,66,32
109200,note_on,0,0,1,,,,,,,,,,,,,,,0,,,70,32
109200,note_on,80,0,1,,,,,,,,,,,,,,,0,,,66,0
109200,note_on,120,0,2,,,,,,,,,,,,,,,0,,,54,25
109200,note_on,0,0,2,,,,,,,,,,,,,,,0,,,58,29
109280,note_on,80,0,1,,,,,,,,,,,,,,,0,,,70,0
109280,note_on,0,0,1,,,,,,,,,,,,,,,0,,,66,32
109320,note_on,0,0,2,,,,,,,,,,,,,,,0,,,54,0
109320,note_on,120,0,2,,,,,,,,,,,,,,,0,,,58,0
109360,note_on,0,0,1,,,,,,,,,,,,,,,0,,,64,32
109360,note_on,80,0,1,,,,,,,,,,,,,,,0,,,66,0
109400,set_tempo,440,1,0,,,,,,,,,,,,1117527,,,,,,,
109440,control_change,0,0,2,,,,,,,,,,,,,,,0,64,0,,
109440,note_on,120,0,2,,,,,,,,,,,,,,,0,,,47,36
109440,note_on,0,0,1,,,,,,,,,,,,,,,0,,,74,63
109440,note_on,0,0,1,,,,,,,,,,,,,,,0,,,73,0
109440,note_on,80,0,1,,,,,,,,,,,,,,,0,,,64,0
109497,control_change,57,0,2,,,,,,,,,,,,,,,0,64,127,,
109520,note_on,80,0,1,,,,,,,,,,,,,,,0,,,71,32
109560,note_on,63,0,2,,,,,,,,,,,,,,,0,,,47,0
109600,note_on,80,0,1,,,,,,,,,,,,,,,0,,,71,0
109600,set_tempo,200,1,0,,,,,,,,,,,,1107420,,,,,,,
109600,note_on,0,0,1,,,,,,,,,,,,,,,0,,,66,32
109680,note_on,0,0,1,,,,,,,,,,,,,,,0,,,71,32
109680,note_on,0,0,2,,,,,,,,,,,,,,,0,,,59,30
109680,note_on,120,0,2,,,,,,,,,,,,,,,0,,,54,25
109680,note_on,80,0,1,,,,,,,,,,,,,,,0,,,66,0
109760,note_on,0,0,1,,,,,,,,,,,,,,,0,,,66,32
109760,note_on,80,0,1,,,,,,,,,,,,,,,0,,,71,0
109800,set_tempo,200,1,0,,,,,,,,,,,,1097293,,,,,,,
109800,note_on,0,0,2,,,,,,,,,,,,,,,0,,,54,0
109800,note_on,120,0,2,,,,,,,,,,,,,,,0,,,59,0
109840,note_on,80,0,1,,,,,,,,,,,,,,,0,,,66,0
109840,note_on,0,0,1,,,,,,,,,,,,,,,0,,,73,25
109860,note_on,0,0,1,,,,,,,,,,,,,,,0,,,76,56
109860,note_on,20,0,1,,,,,,,,,,,,,,,0,,,74,0
109920,note_on,0,0,1,,,,,,,,,,,,,,,0,,,78,59
109920,note_on,120,0,2,,,,,,,,,,,,,,,0,,,47,36
109920,note_on,0,0,1,,,,,,,,,,,,,,,0,,,73,0
109920,note_on,60,0,1,,,,,,,,,,,,,,,0,,,76,0
109964,control_change,44,0,2,,,,,,,,,,,,,,,0,64,0,,
110000,note_on,80,0,1,,,,,,,,,,,,,,,0,,,74,31
110000,set_tempo,200,1,0,,,,,,,,,,,,1087350,,,,,,,
110034,control_change,70,0,2,,,,,,,,,,,,,,,0,64,127,,
110040,note_on,6,0,2,,,,,,,,,,,,,,,0,,,47,0
110080,note_on,80,0,1,,,,,,,,,,,,,,,0,,,74,0
110080,note_on,0,0,1,,,,,,,,,,,,,,,0,,,71,31
110160,note_on,80,0,1,,,,,,,,,,,,,,,0,,,71,0
110160,note_on,0,0,1,,,,,,,,,,,,,,,0,,,74,31
110160,note_on,0,0,2,,,,,,,,,,,,,,,0,,,54,25
110160,note_on,120,0,2,,,,,,,,,,,,,,,0,,,59,29
110200,set_tempo,200,1,0,,,,,,,,,,,,1077780,,,,,,,
110240,note_on,80,0,1,,,,,,,,,,,,,,,0,,,74,0
110240,note_on,0,0,1,,,,,,,,,,,,,,,0,,,71,31
110280,note_on,0,0,2,,,,,,,,,,,,,,,0,,,59,0
110280,note_on,120,0,2,,,,,,,,,,,,,,,0,,,54,0
110320,note_on,80,0,1,,,,,,,,,,,,,,,0,,,71,0
110320,note_on,0,0,1,,,,,,,,,,,,,,,0,,,66,31
110400,set_tempo,200,1,0,,,,,,,,,,,,1068186,,,,,,,
110400,note_on,120,0,2,,,,,,,,,,,,,,,0,,,47,36
110400,note_on,80,0,1,,,,,,,,,,,,,,,0,,,66,0
110480,note_on,80,0,1,,,,,,,,,,,,,,,0,,,74,32
110520,note_on,120,0,2,,,,,,,,,,,,,,,0,,,47,0
110560,note_on,80,0,1,,,,,,,,,,,,,,,0,,,74,0
110560,note_on,0,0,1,,,,,,,,,,,,,,,0,,,71,32
110560,set_tempo,160,1,0,,,,,,,,,,,,1077780,,,,,,,
110640,note_on,80,0,1,,,,,,,,,,,,,,,0,,,71,0
110640,note_on,0,0,1,,,,,,,,,,,,,,,0,,,78,0
110640,note_on,0,0,1,,,,,,,,,,,,,,,0,,,74,32
110640,note_on,0,0,1,,,,,,,,,,,,,,,0,,,78,63
110640,note_on,120,0,2,,,,,,,,,,,,,,,0,,,62,29
110640,note_on,0,0,2,,,,,,,,,,,,,,,0,,,59,25
110640,note_on,0,0,2,,,,,,,,,,,,,,,0,,,56,25
110720,set_tempo,160,1,0,,,,,,,,,,,,1087350,,,,,,,
110720,note_on,80,0,1,,,,,,,,,,,,,,,0,,,74,0
110720,note_on,0,0,1,,,,,,,,,,,,,,,0,,,71,32
110760,note_on,120,0,2,,,,,,,,,,,,,,,0,,,59,0
110760,note_on,0,0,2,,,,,,,,,,,,,,,0,,,56,0
110760,note_on,0,0,2,,,,,,,,,,,,,,,0,,,62,0
110800,note_on,80,0,1,,,,,,,,,,,,,,,0,,,71,0
110800,note_on,0,0,1,,,,,,,,,,,,,,,0,,,68,32
110880,note_on,120,0,2,,,,,,,,,,,,,,,0,,,45,36
110880,control_change,0,0,2,,,,,,,,,,,,,,,0,64,0,,
110880,note_on,0,0,1,,,,,,,,,,,,,,,0,,,78,67
110880,set_tempo,160,1,0,,,,,,,,,,,,1097293,,,,,,,
110880,note_on,0,0,1,,,,,,,,,,,,,,,0,,,78,0
110880,note_on,80,0,1,,,,,,,,,,,,,,,0,,,68,0
110958,control_change,78,0,2,,,,,,,,,,,,,,,0,64,127,,
110960,set_tempo,80,1,0,,,,,,,,,,,,1107420,,,,,,,
110960,note_on,80,0,1,,,,,,,,,,,,,,,0,,,74,34
111000,note_on,42,0,2,,,,,,,,,,,,,,,0,,,45,0
111040,note_on,80,0,1,,,,,,,,,,,,,,,0,,,74,0
111040,note_on,0,0,1,,,,,,,,,,,,,,,0,,,69,34
111080,set_tempo,120,1,0,,,,,,,,,,,,1097293,,,,,,,
111120,note_on,0,0,2,,,,,,,,,,,,,,,0,,,57,24
111120,note_on,80,0,1,,,,,,,,,,,,,,,0,,,69,0
111120,note_on,0,0,1,,,,,,,,,,,,,,,0,,,74,34
111120,note_on,120,0,2,,,,,,,,,,,,,,,0,,,62,28
111200,note_on,80,0,1,,,,,,,,,,,,,,,0,,,74,0
111200,note_on,0,0,1,,,,,,,,,,,,,,,0,,,69,34
111200,set_tempo,120,1,0,,,,,,,,,,,,1087350,,,,,,,
111280,note_on,0,0,1,,,,,,,,,,,,,,,0,,,71,32
111280,note_on,80,0,1,,,,,,,,,,,,,,,0,,,69,0
111300,note_on,0,0,1,,,,,,,,,,,,,,,0,,,79,62
111300,note_on,0,0,2,,,,,,,,,,,,,,,0,,,55,24
111300,note_on,180,0,2,,,,,,,,,,,,,,,0,,,57,0
111300,note_on,20,0,1,,,,,,,,,,,,,,,0,,,78,0
111320,set_tempo,120,1,0,,,,,,,,,,,,1077780,,,,,,,
111360,note_on,0,0,1,,,,,,,,,,,,,,,0,,,81,66
111360,note_on,60,0,1,,,,,,,,,,,,,,,0,,,79,0
111360,note_on,60,0,2,,,,,,,,,,,,,,,0,,,55,0
111360,note_on,0,0,2,,,,,,,,,,,,,,,0,,,62,0
111360,note_on,0,0,2,,,,,,,,,,,,,,,0,,,54,27
111360,note_on,0,0,2,,,,,,,,,,,,,,,0,,,62,36
111360,note_on,0,0,1,,,,,,,,,,,,,,,0,,,71,0
111367,control_change,7,0,2,,,,,,,,,,,,,,,0,64,0,,
111400,set_tempo,80,1,0,,,,,,,,,,,,1068186,,,,,,,
111424,control_change,57,0,2,,,,,,,,,,,,,,,0,64,127,,
111440,note_on,80,0,1,,,,,,,,,,,,,,,0,,,69,32
111520,note_on,0,0,1,,,,,,,,,,,,,,,0,,,74,32
111520,set_tempo,120,1,0,,,,,,,,,,,,1077780,,,,,,,
111520,note_on,80,0,1,,,,,,,,,,,,,,,0,,,69,0
111600,note_on,176,0,2,,,,,,,,,,,,,,,0,,,62,0
111600,note_on,0,0,1,,,,,,,,,,,,,,,0,,,79,62
111600,note_on,0,0,1,,,,,,,,,,,,,,,0,,,81,0
111600,note_on,0,0,2,,,,,,,,,,,,,,,0,,,62,32
111600,note_on,0,0,2,,,,,,,,,,,,,,,0,,,55,27
111600,note_on,0,0,2,,,,,,,,,,,,,,,0,,,54,0
111600,note_on,80,0,1,,,,,,,,,,,,,,,0,,,74,0
111635,control_change,35,0,2,,,,,,,,,,,,,,,0,64,0,,
111640,set_tempo,120,1,0,,,,,,,,,,,,1087350,,,,,,,
111680,note_on,80,0,1,,,,,,,,,,,,,,,0,,,71,30
111692,control_change,57,0,2,,,,,,,,,,,,,,,0,64,127,,
111760,set_tempo,120,1,0,,,,,,,,,,,,1097293,,,,,,,
111760,note_on,0,0,1,,,,,,,,,,,,,,,0,,,74,30
111760,note_on,80,0,1,,,,,,,,,,,,,,,0,,,71,0
111840,set_tempo,80,1,0,,,,,,,,,,,,1107420,,,,,,,
111840,note_on,0,0,2,,,,,,,,,,,,,,,0,,,62,32
111840,note_on,0,0,2,,,,,,,,,,,,,,,0,,,57,27
111840,note_on,0,0,2,,,,,,,,,,,,,,,0,,,55,0
111840,note_on,148,0,2,,,,,,,,,,,,,,,0,,,62,0
111840,note_on,80,0,1,,,,,,,,,,,,,,,0,,,74,0
111840,note_on,0,0,1,,,,,,,,,,,,,,,0,,,78,62
111840,note_on,0,0,1,,,,,,,,,,,,,,,0,,,79,0
111875,control_change,35,0,2,,,,,,,,,,,,,,,0,64,0,,
111920,note_on,80,0,1,,,,,,,,,,,,,,,0,,,69,32
111932,control_change,57,0,2,,,,,,,,,,,,,,,0,64,127,,
112000,note_on,80,0,1,,,,,,,,,,,,,,,0,,,69,0
112000,note_on,0,0,1,,,,,,,,,,,,,,,0,,,74,32
112080,note_on,80,0,1,,,,,,,,,,,,,,,0,,,74,0
112080,note_on,0,0,1,,,,,,,,,,,,,,,0,,,78,0
112080,note_on,0,0,1,,,,,,,,,,,,,,,0,,,76,62
112080,note_on,0,0,2,,,,,,,,,,,,,,,0,,,61,33
112080,note_on,148,0,2,,,,,,,,,,,,,,,0,,,62,0
112080,note_on,0,0,2,,,,,,,,,,,,,,,0,,,57,0
112080,note_on,0,0,2,,,,,,,,,,,,,,,0,,,57,28
112160,note_on,80,0,1,,,,,,,,,,,,,,,0,,,67,32
112240,note_on,0,0,1,,,,,,,,,,,,,,,0,,,69,32
112240,note_on,80,0,1,,,,,,,,,,,,,,,0,,,67,0
112320,control_change,0,0,2,,,,,,,,,,,,,,,0,64,0,,
112320,note_on,0,0,2,,,,,,,,,,,,,,,0,,,50,36
112320,note_on,0,0,1,,,,,,,,,,,,,,,0,,,76,66
112320,note_on,0,0,1,,,,,,,,,,,,,,,0,,,76,0
112320,note_on,80,0,1,,,,,,,,,,,,,,,0,,,69,0
112320,note_on,0,0,2,,,,,,,,,,,,,,,0,,,57,0
112320,note_on,240,0,2,,,,,,,,,,,,,,,0,,,61,0
112376,control_change,56,0,2,,,,,,,,,,,,,,,0,64,127,,
112400,note_on,80,0,1,,,,,,,,,,,,,,,0,,,73,31
112440,note_on,64,0,2,,,,,,,,,,,,,,,0,,,50,0
112480,note_on,80,0,1,,,,,,,,,,,,,,,0,,,73,0
112480,note_on,0,0,1,,,,,,,,,,,,,,,0,,,69,31
112560,note_on,0,0,1,,,,,,,,,,,,,,,0,,,73,31
112560,note_on,120,0,2,,,,,,,,,,,,,,,0,,,57,27
112560,note_on,0,0,2,,,,,,,,,,,,,,,0,,,61,33
112560,note_on,80,0,1,,,,,,,,,,,,,,,0,,,69,0
112640,note_on,80,0,1,,,,,,,,,,,,,,,0,,,73,0
112640,note_on,0,0,1,,,,,,,,,,,,,,,0,,,69,31
112680,note_on,120,0,2,,,,,,,,,,,,,,,0,,,61,0
112680,note_on,0,0,2,,,,,,,,,,,,,,,0,,,57,0
112720,note_on,80,0,1,,,,,,,,,,,,,,,0,,,69,0
112720,note_on,0,0,1,,,,,,,,,,,,,,,0,,,67,31
112800,note_on,80,0,1,,,,,,,,,,,,,,,0,,,67,0
112800,note_on,0,0,1,,,,,,,,,,,,,,,0,,,76,0
112800,note_on,0,0,1,,,,,,,,,,,,,,,0,,,74,66
112800,set_tempo,960,1,0,,,,,,,,,,,,1138520,,,,,,,
112800,note_on,120,0,2,,,,,,,,,,,,,,,0,,,50,33
112880,note_on,80,0,1,,,,,,,,,,,,,,,0,,,69,31
112920,note_on,120,0,2,,,,,,,,,,,,,,,0,,,50,0
112960,note_on,0,0,1,,,,,,,,,,,,,,,0,,,66,31
112960,note_on,80,0,1,,,,,,,,,,,,,,,0,,,69,0
113026,control_change,106,0,2,,,,,,,,,,,,,,,0,64,0,,
113040,note_on,0,0,2,,,,,,,,,,,,,,,0,,,62,32
113040,note_on,14,0,2,,,,,,,,,,,,,,,0,,,57,27
113040,note_on,80,0,1,,,,,,,,,,,,,,,0,,,66,0
113040,note_on,0,0,1,,,,,,,,,,,,,,,0,,,69,34
113054,control_change,14,0,2,,,,,,,,,,,,,,,0,64,127,,
113120,set_tempo,320,1,0,,,,,,,,,,,,1097293,,,,,,,
113120,note_on,0,0,1,,,,,,,,,,,,,,,0,,,66,32
113120,note_on,80,0,1,,,,,,,,,,,,,,,0,,,69,0
113200,note_on,0,0,1,,,,,,,,,,,,,,,0,,,62,32
113200,note_on,80,0,1,,,,,,,,,,,,,,,0,,,66,0
113220,note_on,166,0,2,,,,,,,,,,,,,,,0,,,62,0
113220,note_on,0,0,2,,,,,,,,,,,,,,,0,,,57,0
113240,set_tempo,120,1,0,,,,,,,,,,,,1097293,,,,,,,
113280,note_on,80,0,1,,,,,,,,,,,,,,,0,,,62,0
113280,set_tempo,40,1,0,,,,,,,,,,,,1107420,,,,,,,
113280,note_on,60,0,2,,,,,,,,,,,,,,,0,,,50,36
113320,set_tempo,40,1,0,,,,,,,,,,,,1117527,,,,,,,
113360,set_tempo,40,1,0,,,,,,,,,,,,1138520,,,,,,,
113360,note_on,80,0,1,,,,,,,,,,,,,,,0,,,66,33
113400,set_tempo,40,1,0,,,,,,,,,,,,1149646,,,,,,,
113440,note_on,80,0,1,,,,,,,,,,,,,,,0,,,66,0
113440,set_tempo,40,1,0,,,,,,,,,,,,1160766,,,,,,,
113440,note_on,0,0,1,,,,,,,,,,,,,,,0,,,62,32
113460,note_on,180,0,2,,,,,,,,,,,,,,,0,,,50,0
113480,set_tempo,40,1,0,,,,,,,,,,,,1183432,,,,,,,
113520,set_tempo,40,1,0,,,,,,,,,,,,1194981,,,,,,,
113520,note_on,0,0,2,,,,,,,,,,,,,,,0,,,57,30
113520,note_on,60,0,2,,,,,,,,,,,,,,,0,,,54,26
113520,note_on,0,0,1,,,,,,,,,,,,,,,0,,,69,32
113520,note_on,80,0,1,,,,,,,,,,,,,,,0,,,62,0
113560,set_tempo,40,1,0,,,,,,,,,,,,1207001,,,,,,,
113600,note_on,0,0,1,,,,,,,,,,,,,,,0,,,66,28
113600,set_tempo,40,1,0,,,,,,,,,,,,1231527,,,,,,,
113600,note_on,80,0,1,,,,,,,,,,,,,,,0,,,69,0
113640,set_tempo,40,1,0,,,,,,,,,,,,1244555,,,,,,,
113680,note_on,0,0,1,,,,,,,,,,,,,,,0,,,62,27
113680,note_on,80,0,1,,,,,,,,,,,,,,,0,,,66,0
113680,set_tempo,40,1,0,,,,,,,,,,,,1257334,,,,,,,
113700,note_on,180,0,2,,,,,,,,,,,,,,,0,,,57,0
113700,note_on,0,0,2,,,,,,,,,,,,,,,0,,,54,0
113720,set_tempo,40,1,0,,,,,,,,,,,,1283972,,,,,,,
113760,note_on,60,0,2,,,,,,,,,,,,,,,0,,,38,30
113760,set_tempo,40,1,0,,,,,,,,,,,,1107420,,,,,,,
113760,note_on,80,0,1,,,,,,,,,,,,,,,0,,,62,0
113760,note_on,0,0,1,,,,,,,,,,,,,,,0,,,74,0
113760,note_on,0,0,1,,,,,,,,,,,,,,,0,,,70,52
113771,control_change,11,0,2,,,,,,,,,,,,,,,0,64,0,,
113811,control_change,40,0,2,,,,,,,,,,,,,,,0,64,127,,
113840,note_on,80,0,1,,,,,,,,,,,,,,,0,,,65,29
113880,set_tempo,120,1,0,,,,,,,,,,,,1097293,,,,,,,
113880,note_on,69,0,2,,,,,,,,,,,,,,,0,,,38,0
113920,note_on,80,0,1,,,,,,,,,,,,,,,0,,,65,0
113920,note_on,0,0,1,,,,,,,,,,,,,,,0,,,62,29
114000,set_tempo,120,1,0,,,,,,,,,,,,1087350,,,,,,,
114000,note_on,0,0,2,,,,,,,,,,,,,,,0,,,53,22
114000,note_on,120,0,2,,,,,,,,,,,,,,,0,,,50,19
114000,note_on,80,0,1,,,,,,,,,,,,,,,0,,,62,0
114000,note_on,0,0,1,,,,,,,,,,,,,,,0,,,65,29
114080,note_on,0,0,1,,,,,,,,,,,,,,,0,,,62,29
114080,note_on,80,0,1,,,,,,,,,,,,,,,0,,,65,0
114120,set_tempo,120,1,0,,,,,,,,,,,,1077780,,,,,,,
114120,note_on,0,0,2,,,,,,,,,,,,,,,0,,,50,0
114120,note_on,120,0,2,,,,,,,,,,,,,,,0,,,53,0
114160,note_on,0,0,1,,,,,,,,,,,,,,,0,,,58,29
114160,note_on,80,0,1,,,,,,,,,,,,,,,0,,,62,0
114200,set_tempo,80,1,0,,,,,,,,,,,,1068186,,,,,,,
114240,note_on,120,0,2,,,,,,,,,,,,,,,0,,,38,30
114240,note_on,80,0,1,,,,,,,,,,,,,,,0,,,58,0
114240,note_on,0,0,1,,,,,,,,,,,,,,,0,,,70,0
114240,note_on,0,0,1,,,,,,,,,,,,,,,0,,,70,53
114320,note_on,80,0,1,,,,,,,,,,,,,,,0,,,65,29
114320,set_tempo,120,1,0,,,,,,,,,,,,1077780,,,,,,,
114360,note_on,120,0,2,,,,,,,,,,,,,,,0,,,38,0
114400,note_on,80,0,1,,,,,,,,,,,,,,,0,,,65,0
114400,note_on,0,0,1,,,,,,,,,,,,,,,0,,,62,29
114440,set_tempo,120,1,0,,,,,,,,,,,,1087350,,,,,,,
114480,note_on,0,0,1,,,,,,,,,,,,,,,0,,,65,29
114480,note_on,120,0,2,,,,,,,,,,,,,,,0,,,50,20
114480,note_on,0,0,2,,,,,,,,,,,,,,,0,,,53,23
114480,note_on,80,0,1,,,,,,,,,,,,,,,0,,,62,0
114520,set_tempo,80,1,0,,,,,,,,,,,,1097293,,,,,,,
114560,note_on,80,0,1,,,,,,,,,,,,,,,0,,,65,0
114560,note_on,0,0,1,,,,,,,,,,,,,,,0,,,62,29
114600,note_on,120,0,2,,,,,,,,,,,,,,,0,,,53,0
114600,note_on,0,0,2,,,,,,,,,,,,,,,0,,,50,0
114640,note_on,80,0,1,,,,,,,,,,,,,,,0,,,62,0
114640,note_on,0,0,1,,,,,,,,,,,,,,,0,,,58,29
114640,set_tempo,120,1,0,,,,,,,,,,,,1107420,,,,,,,
114720,note_on,120,0,2,,,,,,,,,,,,,,,0,,,38,30
114720,set_tempo,80,1,0,,,,,,,,,,,,1117527,,,,,,,
114720,note_on,80,0,1,,,,,,,,,,,,,,,0,,,58,0
114720,note_on,0,0,1,,,,,,,,,,,,,,,0,,,70,0
114720,note_on,0,0,1,,,,,,,,,,,,,,,0,,,70,52
114800,note_on,80,0,1,,,,,,,,,,,,,,,0,,,65,29
114840,note_on,120,0,2,,,,,,,,,,,,,,,0,,,38,0
114880,note_on,80,0,1,,,,,,,,,,,,,,,0,,,65,0
114880,note_on,0,0,1,,,,,,,,,,,,,,,0,,,62,30
114960,note_on,120,0,2,,,,,,,,,,,,,,,0,,,50,21
114960,note_on,0,0,1,,,,,,,,,,,,,,,0,,,65,30
114960,note_on,0,0,2,,,,,,,,,,,,,,,0,,,53,24
114960,note_on,80,0,1,,,,,,,,,,,,,,,0,,,62,0
115040,note_on,0,0,1,,,,,,,,,,,,,,,0,,,62,30
115040,note_on,80,0,1,,,,,,,,,,,,,,,0,,,65,0
115080,note_on,120,0,2,,,,,,,,,,,,,,,0,,,53,0
115080,note_on,0,0,2,,,,,,,,,,,,,,,0,,,50,0
115120,note_on,80,0,1,,,,,,,,,,,,,,,0,,,62,0
115120,note_on,0,0,1,,,,,,,,,,,,,,,0,,,58,30
115160,set_tempo,440,1,0,,,,,,,,,,,,1117527,,,,,,,
115200,note_on,80,0,1,,,,,,,,,,,,,,,0,,,58,0
115200,note_on,0,0,1,,,,,,,,,,,,,,,0,,,70,0
115200,note_on,120,0,2,,,,,,,,,,,,,,,0,,,39,30
115200,note_on,0,0,1,,,,,,,,,,,,,,,0,,,70,53
115200,control_change,0,0,2,,,,,,,,,,,,,,,0,64,0,,
115257,control_change,57,0,2,,,,,,,,,,,,,,,0,64,127,,
115280,note_on,80,0,1,,,,,,,,,,,,,,,0,,,67,30
115320,note_on,63,0,2,,,,,,,,,,,,,,,0,,,39,0
115360,note_on,0,0,1,,,,,,,,,,,,,,,0,,,63,30
115360,set_tempo,200,1,0,,,,,,,,,,,,1107420,,,,,,,
115360,note_on,80,0,1,,,,,,,,,,,,,,,0,,,67,0
115440,note_on,80,0,1,,,,,,,,,,,,,,,0,,,63,0
115440,note_on,120,0,2,,,,,,,,,,,,,,,0,,,51,21
115440,note_on,0,0,1,,,,,,,,,,,,,,,0,,,67,30
115440,note_on,0,0,2,,,,,,,,,,,,,,,0,,,55,25
115520,note_on,80,0,1,,,,,,,,,,,,,,,0,,,67,0
115520,note_on,0,0,1,,,,,,,,,,,,,,,0,,,63,30
115560,note_on,120,0,2,,,,,,,,,,,,,,,0,,,55,0
115560,note_on,0,0,2,,,,,,,,,,,,,,,0,,,51,0
115560,set_tempo,200,1,0,,,,,,,,,,,,1097293,,,,,,,
115600,note_on,0,0,1,,,,,,,,,,,,,,,0,,,58,30
115600,note_on,80,0,1,,,,,,,,,,,,,,,0,,,63,0
115680,note_on,120,0,2,,,,,,,,,,,,,,,0,,,39,30
115680,note_on,0,0,1,,,,,,,,,,,,,,,0,,,70,0
115680,note_on,0,0,1,,,,,,,,,,,,,,,0,,,67,46
115680,note_on,80,0,1,,,,,,,,,,,,,,,0,,,58,0
115724,control_change,44,0,2,,,,,,,,,,,,,,,0,64,0,,
115760,note_on,80,0,1,,,,,,,,,,,,,,,0,,,63,29
115760,set_tempo,200,1,0,,,,,,,,,,,,1087350,,,,,,,
115794,control_change,70,0,2,,,,,,,,,,,,,,,0,64,127,,
115840,note_on,0,0,1,,,,,,,,,,,,,,,0,,,58,29
115840,note_on,80,0,1,,,,,,,,,,,,,,,0,,,63,0
115920,note_on,0,0,1,,,,,,,,,,,,,,,0,,,67,0
115920,note_on,0,0,1,,,,,,,,,,,,,,,0,,,79,50
115920,note_on,80,0,1,,,,,,,,,,,,,,,0,,,58,0
115920,note_on,0,0,2,,,,,,,,,,,,,,,0,,,58,24
115920,note_on,0,0,2,,,,,,,,,,,,,,,0,,,55,20
115920,note_on,0,0,2,,,,,,,,,,,,,,,0,,,51,20
115920,note_on,126,0,2,,,,,,,,,,,,,,,0,,,39,0
115960,set_tempo,200,1,0,,,,,,,,,,,,1077780,,,,,,,
116000,note_on,80,0,1,,,,,,,,,,,,,,,0,,,75,29
116080,note_on,0,0,1,,,,,,,,,,,,,,,0,,,67,29
116080,note_on,80,0,1,,,,,,,,,,,,,,,0,,,75,0
116160,note_on,0,0,1,,,,,,,,,,,,,,,0,,,77,50
116160,note_on,80,0,1,,,,,,,,,,,,,,,0,,,67,0
116160,note_on,0,0,1,,,,,,,,,,,,,,,0,,,79,0
116160,set_tempo,200,1,0,,,,,,,,,,,,1068186,,,,,,,
116160,note_on,0,0,2,,,,,,,,,,,,,,,0,,,50,20
116160,note_on,240,0,2,,,,,,,,,,,,,,,0,,,58,0
116160,note_on,0,0,2,,,,,,,,,,,,,,,0,,,55,0
116160,note_on,0,0,2,,,,,,,,,,,,,,,0,,,59,24
116160,note_on,0,0,2,,,,,,,,,,,,,,,0,,,51,0
116160,note_on,0,0,2,,,,,,,,,,,,,,,0,,,55,20
116240,note_on,80,0,1,,,,,,,,,,,,,,,0,,,71,30
116320,note_on,0,0,1,,,,,,,,,,,,,,,0,,,67,30
116320,note_on,80,0,1,,,,,,,,,,,,,,,0,,,71,0
116320,set_tempo,160,1,0,,,,,,,,,,,,1077780,,,,,,,
116400,note_on,80,0,1,,,,,,,,,,,,,,,0,,,67,0
116400,note_on,240,0,2,,,,,,,,,,,,,,,0,,,59,0
116400,note_on,0,0,2,,,,,,,,,,,,,,,0,,,55,0
116400,note_on,0,0,2,,,,,,,,,,,,,,,0,,,55,20
116400,note_on,0,0,2,,,,,,,,,,,,,,,0,,,48,20
116400,note_on,0,0,2,,,,,,,,,,,,,,,0,,,50,0
116400,note_on,0,0,1,,,,,,,,,,,,,,,0,,,75,53
116400,note_on,0,0,2,,,,,,,,,,,,,,,0,,,60,24
116400,note_on,0,0,1,,,,,,,,,,,,,,,0,,,77,0
116480,note_on,80,0,1,,,,,,,,,,,,,,,0,,,72,30
116480,set_tempo,160,1,0,,,,,,,,,,,,1087350,,,,,,,
116560,note_on,0,0,1,,,,,,,,,,,,,,,0,,,67,30
116560,note_on,80,0,1,,,,,,,,,,,,,,,0,,,72,0
116640,note_on,0,0,1,,,,,,,,,,,,,,,0,,,74,54
116640,control_change,0,0,2,,,,,,,,,,,,,,,0,64,0,,
116640,note_on,0,0,2,,,,,,,,,,,,,,,0,,,41,30
116640,note_on,0,0,2,,,,,,,,,,,,,,,0,,,48,0
116640,note_on,0,0,2,,,,,,,,,,,,,,,0,,,55,0
116640,note_on,240,0,2,,,,,,,,,,,,,,,0,,,60,0
116640,note_on,0,0,1,,,,,,,,,,,,,,,0,,,75,0
116640,note_on,80,0,1,,,,,,,,,,,,,,,0,,,67,0
116640,set_tempo,160,1,0,,,,,,,,,,,,1097293,,,,,,,
116718,control_change,78,0,2,,,,,,,,,,,,,,,0,64,127,,
116720,set_tempo,80,1,0,,,,,,,,,,,,1107420,,,,,,,
116720,note_on,80,0,1,,,,,,,,,,,,,,,0,,,70,32
116760,note_on,42,0,2,,,,,,,,,,,,,,,0,,,41,0
116800,note_on,0,0,1,,,,,,,,,,,,,,,0,,,65,32
116800,note_on,80,0,1,,,,,,,,,,,,,,,0,,,70,0
116840,set_tempo,120,1,0,,,,,,,,,,,,1097293,,,,,,,
116880,note_on,0,0,2,,,,,,,,,,,,,,,0,,,53,20
116880,note_on,120,0,2,,,,,,,,,,,,,,,0,,,58,23
116880,note_on,0,0,1,,,,,,,,,,,,,,,0,,,70,32
116880,note_on,80,0,1,,,,,,,,,,,,,,,0,,,65,0
116960,note_on,0,0,1,,,,,,,,,,,,,,,0,,,65,32
116960,note_on,80,0,1,,,,,,,,,,,,,,,0,,,70,0
116960,set_tempo,120,1,0,,,,,,,,,,,,1087350,,,,,,,
117000,note_on,0,0,2,,,,,,,,,,,,,,,0,,,58,0
117000,note_on,120,0,2,,,,,,,,,,,,,,,0,,,53,0
117040,note_on,80,0,1,,,,,,,,,,,,,,,0,,,65,0
117040,note_on,0,0,1,,,,,,,,,,,,,,,0,,,62,30
117080,set_tempo,120,1,0,,,,,,,,,,,,1077780,,,,,,,
117120,note_on,120,0,2,,,,,,,,,,,,,,,0,,,41,30
117120,note_on,80,0,1,,,,,,,,,,,,,,,0,,,62,0
117160,set_tempo,80,1,0,,,,,,,,,,,,1068186,,,,,,,
117200,note_on,80,0,1,,,,,,,,,,,,,,,0,,,70,32
117240,note_on,120,0,2,,,,,,,,,,,,,,,0,,,41,0
117280,note_on,80,0,1,,,,,,,,,,,,,,,0,,,70,0
117280,note_on,0,0,1,,,,,,,,,,,,,,,0,,,65,32
117280,set_tempo,120,1,0,,,,,,,,,,,,1077780,,,,,,,
117360,note_on,0,0,2,,,,,,,,,,,,,,,0,,,58,23
117360,note_on,0,0,1,,,,,,,,,,,,,,,0,,,70,32
117360,note_on,80,0,1,,,,,,,,,,,,,,,0,,,65,0
117360,note_on,120,0,2,,,,,,,,,,,,,,,0,,,53,20
117400,set_tempo,120,1,0,,,,,,,,,,,,1087350,,,,,,,
117440,note_on,80,0,1,,,,,,,,,,,,,,,0,,,70,0
117440,note_on,0,0,1,,,,,,,,,,,,,,,0,,,65,30
117480,note_on,120,0,2,,,,,,,,,,,,,,,0,,,58,0
117480,note_on,0,0,2,,,,,,,,,,,,,,,0,,,53,0
117520,note_on,80,0,1,,,,,,,,,,,,,,,0,,,65,0
117520,note_on,0,0,1,,,,,,,,,,,,,,,0,,,62,30
117520,set_tempo,120,1,0,,,,,,,,,,,,1097293,,,,,,,
117600,note_on,0,0,1,,,,,,,,,,,,,,,0,,,74,0
117600,note_on,0,0,1,,,,,,,,,,,,,,,0,,,75,52
117600,note_on,80,0,1,,,,,,,,,,,,,,,0,,,62,0
117600,set_tempo,80,1,0,,,,,,,,,,,,1107420,,,,,,,
117600,note_on,120,0,2,,,,,,,,,,,,,,,0,,,41,30
117635,control_change,35,0,2,,,,,,,,,,,,,,,0,64,0,,
117680,note_on,80,0,1,,,,,,,,,,,,,,,0,,,72,30
117692,control_change,57,0,2,,,,,,,,,,,,,,,0,64,127,,
117720,note_on,28,0,2,,,,,,,,,,,,,,,0,,,41,0
117760,note_on,0,0,1,,,,,,,,,,,,,,,0,,,69,30
117760,note_on,80,0,1,,,,,,,,,,,,,,,0,,,72,0
117840,note_on,0,0,1,,,,,,,,,,,,,,,0,,,72,32
117840,note_on,120,0,2,,,,,,,,,,,,,,,0,,,53,20
117840,note_on,0,0,2,,,,,,,,,,,,,,,0,,,57,23
117840,note_on,80,0,1,,,,,,,,,,,,,,,0,,,69,0
117920,note_on,80,0,1,,,,,,,,,,,,,,,0,,,69,30
117960,note_on,0,0,2,,,,,,,,,,,,,,,0,,,53,0
117960,note_on,120,0,2,,,,,,,,,,,,,,,0,,,57,0
118000,note_on,80,0,1,,,,,,,,,,,,,,,0,,,69,0
118000,note_on,0,0,1,,,,,,,,,,,,,,,0,,,63,30
118020,note_on,0,0,1,,,,,,,,,,,,,,,0,,,72,46
118020,note_on,20,0,1,,,,,,,,,,,,,,,0,,,75,0
118080,note_on,0,0,1,,,,,,,,,,,,,,,0,,,72,0
118080,note_on,0,0,1,,,,,,,,,,,,,,,0,,,63,0
118080,note_on,60,0,1,,,,,,,,,,,,,,,0,,,72,0
118080,control_change,0,0,2,,,,,,,,,,,,,,,0,64,0,,
118080,note_on,120,0,2,,,,,,,,,,,,,,,0,,,41,30
118080,note_on,0,0,1,,,,,,,,,,,,,,,0,,,71,51
118136,control_change,56,0,2,,,,,,,,,,,,,,,0,64,127,,
118160,note_on,80,0,1,,,,,,,,,,,,,,,0,,,68,29
118200,note_on,64,0,2,,,,,,,,,,,,,,,0,,,41,0
118240,note_on,80,0,1,,,,,,,,,,,,,,,0,,,68,0
118240,note_on,0,0,1,,,,,,,,,,,,,,,0,,,62,29
118320,note_on,0,0,1,,,,,,,,,,,,,,,0,,,68,29
118320,note_on,80,0,1,,,,,,,,,,,,,,,0,,,62,0
118320,note_on,120,0,2,,,,,,,,,,,,,,,0,,,53,28
118400,note_on,0,0,1,,,,,,,,,,,,,,,0,,,62,29
118400,note_on,80,0,1,,,,,,,,,,,,,,,0,,,68,0
118440,note_on,120,0,2,,,,,,,,,,,,,,,0,,,53,0
118480,note_on,0,0,1,,,,,,,,,,,,,,,0,,,59,29
118480,note_on,80,0,1,,,,,,,,,,,,,,,0,,,62,0
118560,note_on,80,0,1,,,,,,,,,,,,,,,0,,,59,0
118560,set_tempo,960,1,0,,,,,,,,,,,,1097293,,,,,,,
118560,note_on,120,0,2,,,,,,,,,,,,,,,0,,,41,28
118640,note_on,80,0,1,,,,,,,,,,,,,,,0,,,68,29
118680,note_on,120,0,2,,,,,,,,,,,,,,,0,,,41,0
118720,note_on,80,0,1,,,,,,,,,,,,,,,0,,,68,0
118720,note_on,0,0,1,,,,,,,,,,,,,,,0,,,62,29
118800,note_on,0,0,1,,,,,,,,,,,,,,,0,,,68,32
118800,note_on,120,0,2,,,,,,,,,,,,,,,0,,,53,27
118800,note_on,80,0,1,,,,,,,,,,,,,,,0,,,62,0
118880,set_tempo,320,1,0,,,,,,,,,,,,1097293,,,,,,,
118880,note_on,80,0,1,,,,,,,,,,,,,,,0,,,68,0
118880,note_on,0,0,1,,,,,,,,,,,,,,,0,,,62,30
118960,note_on,80,0,1,,,,,,,,,,,,,,,0,,,62,0
118960,note_on,0,0,1,,,,,,,,,,,,,,,0,,,59,30
118980,note_on,180,0,2,,,,,,,,,,,,,,,0,,,53,0
119040,set_tempo,160,1,0,,,,,,,,,,,,1107420,,,,,,,
119040,note_on,60,0,2,,,,,,,,,,,,,,,0,,,41,30
119040,note_on,80,0,1,,,,,,,,,,,,,,,0,,,59,0
119120,note_on,80,0,1,,,,,,,,,,,,,,,0,,,68,32
119160,set_tempo,120,1,0,,,,,,,,,,,,1117527,,,,,,,
119200,note_on,80,0,1,,,,,,,,,,,,,,,0,,,68,0
119200,note_on,0,0,1,,,,,,,,,,,,,,,0,,,62,32
119220,note_on,180,0,2,,,,,,,,,,,,,,,0,,,41,0
119280,set_tempo,120,1,0,,,,,,,,,,,,1128032,,,,,,,
119280,note_on,60,0,2,,,,,,,,,,,,,,,0,,,53,28
119280,note_on,80,0,1,,,,,,,,,,,,,,,0,,,62,0
119280,note_on,0,0,1,,,,,,,,,,,,,,,0,,,68,33
119360,note_on,0,0,1,,,,,,,,,,,,,,,0,,,62,30
119360,note_on,80,0,1,,,,,,,,,,,,,,,0,,,68,0
119400,set_tempo,120,1,0,,,,,,,,,,,,1138520,,,,,,,
119440,note_on,80,0,1,,,,,,,,,,,,,,,0,,,62,0
119440,note_on,0,0,1,,,,,,,,,,,,,,,0,,,59,30
119460,note_on,180,0,2,,,,,,,,,,,,,,,0,,,53,0
119520,set_tempo,120,1,0,,,,,,,,,,,,1107420,,,,,,,
119520,note_on,0,0,1,,,,,,,,,,,,,,,0,,,71,0
119520,note_on,80,0,1,,,,,,,,,,,,,,,0,,,59,0
119520,note_on,0,0,1,,,,,,,,,,,,,,,0,,,71,50
119520,control_change,0,0,2,,,,,,,,,,,,,,,0,64,0,,
119520,note_on,60,0,2,,,,,,,,,,,,,,,0,,,41,30
119576,control_change,56,0,2,,,,,,,,,,,,,,,0,64,127,,
119600,note_on,80,0,1,,,,,,,,,,,,,,,0,,,68,29
119640,note_on,64,0,2,,,,,,,,,,,,,,,0,,,41,0
119680,note_on,80,0,1,,,,,,,,,,,,,,,0,,,68,0
119680,note_on,0,0,1,,,,,,,,,,,,,,,0,,,61,29
119760,note_on,120,0,2,,,,,,,,,,,,,,,0,,,53,28
119760,note_on,80,0,1,,,,,,,,,,,,,,,0,,,61,0
119760,note_on,0,0,1,,,,,,,,,,,,,,,0,,,68,29
119840,note_on,80,0,1,,,,,,,,,,,,,,,0,,,68,0
119840,note_on,0,0,1,,,,,,,,,,,,,,,0,,,61,29
119880,note_on,120,0,2,,,,,,,,,,,,,,,0,,,53,0
119920,note_on,80,0,1,,,,,,,,,,,,,,,0,,,61,0
119920,note_on,0,0,1,,,,,,,,,,,,,,,0,,,59,29
120000,note_on,120,0,2,,,,,,,,,,,,,,,0,,,41,28
120000,note_on,80,0,1,,,,,,,,,,,,,,,0,,,59,0
120000,set_tempo,480,1,0,,,,,,,,,,,,1097293,,,,,,,
120080,note_on,80,0,1,,,,,,,,,,,,,,,0,,,68,29
120120,note_on,120,0,2,,,,,,,,,,,,,,,0,,,41,0
120160,note_on,80,0,1,,,,,,,,,,,,,,,0,,,68,0
120160,note_on,0,0,1,,,,,,,,,,,,,,,0,,,61,29
120240,note_on,120,0,2,,,,,,,,,,,,,,,0,,,53,27
120240,note_on,80,0,1,,,,,,,,,,,,,,,0,,,61,0
120240,note_on,0,0,1,,,,,,,,,,,,,,,0,,,68,32
120320,set_tempo,320,1,0,,,,,,,,,,,,1097293,,,,,,,
120320,note_on,80,0,1,,,,,,,,,,,,,,,0,,,68,0
120320,note_on,0,0,1,,,,,,,,,,,,,,,0,,,61,30
120400,note_on,80,0,1,,,,,,,,,,,,,,,0,,,61,0
120400,note_on,0,0,1,,,,,,,,,,,,,,,0,,,59,30
120420,note_on,180,0,2,,,,,,,,,,,,,,,0,,,53,0
120480,set_tempo,160,1,0,,,,,,,,,,,,1107420,,,,,,,
120480,note_on,80,0,1,,,,,,,,,,,,,,,0,,,59,0
120480,note_on,60,0,2,,,,,,,,,,,,,,,0,,,41,30
120480,note_on,0,0,1,,,,,,,,,,,,,,,0,,,71,51
120480,note_on,0,0,1,,,,,,,,,,,,,,,0,,,71,0
120560,note_on,80,0,1,,,,,,,,,,,,,,,0,,,68,32
120600,set_tempo,120,1,0,,,,,,,,,,,,1117527,,,,,,,
120640,note_on,80,0,1,,,,,,,,,,,,,,,0,,,68,0
120640,note_on,0,0,1,,,,,,,,,,,,,,,0,,,62,32
120660,note_on,180,0,2,,,,,,,,,,,,,,,0,,,41,0
120720,note_on,60,0,2,,,,,,,,,,,,,,,0,,,53,29
120720,note_on,80,0,1,,,,,,,,,,,,,,,0,,,62,0
120720,note_on,0,0,1,,,,,,,,,,,,,,,0,,,68,34
120720,set_tempo,120,1,0,,,,,,,,,,,,1128032,,,,,,,
120800,note_on,80,0,1,,,,,,,,,,,,,,,0,,,68,0
120800,note_on,0,0,1,,,,,,,,,,,,,,,0,,,62,31
120840,set_tempo,120,1,0,,,,,,,,,,,,1138520,,,,,,,
120880,note_on,0,0,1,,,,,,,,,,,,,,,0,,,59,32
120880,note_on,80,0,1,,,,,,,,,,,,,,,0,,,62,0
120900,note_on,180,0,2,,,,,,,,,,,,,,,0,,,53,0
120960,note_on,0,0,1,,,,,,,,,,,,,,,0,,,71,52
120960,note_on,0,0,1,,,,,,,,,,,,,,,0,,,71,0
120960,note_on,80,0,1,,,,,,,,,,,,,,,0,,,59,0
120960,note_on,60,0,2,,,,,,,,,,,,,,,0,,,42,33
120960,control_change,0,0,2,,,,,,,,,,,,,,,0,64,0,,
120960,set_tempo,120,1,0,,,,,,,,,,,,1107420,,,,,,,
121016,control_change,56,0,2,,,,,,,,,,,,,,,0,64,127,,
121040,note_on,80,0,1,,,,,,,,,,,,,,,0,,,66,31
121080,note_on,64,0,2,,,,,,,,,,,,,,,0,,,42,0
121120,note_on,0,0,1,,,,,,,,,,,,,,,0,,,62,31
121120,note_on,80,0,1,,,,,,,,,,,,,,,0,,,66,0
121200,note_on,0,0,1,,,,,,,,,,,,,,,0,,,66,30
121200,note_on,80,0,1,,,,,,,,,,,,,,,0,,,62,0
121200,note_on,120,0,2,,,,,,,,,,,,,,,0,,,54,29
121280,note_on,80,0,1,,,,,,,,,,,,,,,0,,,66,0
121280,note_on,0,0,1,,,,,,,,,,,,,,,0,,,62,30
121320,note_on,120,0,2,,,,,,,,,,,,,,,0,,,54,0
121360,note_on,0,0,1,,,,,,,,,,,,,,,0,,,61,29
121360,note_on,80,0,1,,,,,,,,,,,,,,,0,,,62,0
121380,note_on,0,0,1,,,,,,,,,,,,,,,0,,,69,49
121380,note_on,20,0,1,,,,,,,,,,,,,,,0,,,71,0
121440,note_on,60,0,1,,,,,,,,,,,,,,,0,,,69,0
121440,note_on,0,0,1,,,,,,,,,,,,,,,0,,,61,0
121440,note_on,0,0,1,,,,,,,,,,,,,,,0,,,69,50
121440,note_on,120,0,2,,,,,,,,,,,,,,,0,,,42,28
121440,set_tempo,480,1,0,,,,,,,,,,,,1097293,,,,,,,
121520,note_on,80,0,1,,,,,,,,,,,,,,,0,,,66,29
121560,note_on,120,0,2,,,,,,,,,,,,,,,0,,,42,0
121600,note_on,0,0,1,,,,,,,,,,,,,,,0,,,61,29
121600,note_on,80,0,1,,,,,,,,,,,,,,,0,,,66,0
121680,note_on,80,0,1,,,,,,,,,,,,,,,0,,,61,0
121680,note_on,0,0,1,,,,,,,,,,,,,,,0,,,66,32
121680,note_on,120,0,2,,,,,,,,,,,,,,,0,,,54,27
121760,note_on,80,0,1,,,,,,,,,,,,,,,0,,,66,0
121760,note_on,0,0,1,,,,,,,,,,,,,,,0,,,61,30
121760,set_tempo,320,1,0,,,,,,,,,,,,1097293,,,,,,,
121840,note_on,80,0,1,,,,,,,,,,,,,,,0,,,61,0
121840,note_on,0,0,1,,,,,,,,,,,,,,,0,,,57,30
121860,note_on,180,0,2,,,,,,,,,,,,,,,0,,,54,0
121920,note_on,80,0,1,,,,,,,,,,,,,,,0,,,57,0
121920,note_on,60,0,2,,,,,,,,,,,,,,,0,,,42,30
121920,set_tempo,160,1,0,,,,,,,,,,,,1107420,,,,,,,
122000,note_on,80,0,1,,,,,,,,,,,,,,,0,,,66,32
122040,set_tempo,120,1,0,,,,,,,,,,,,1117527,,,,,,,
122080,note_on,0,0,1,,,,,,,,,,,,,,,0,,,61,32
122080,note_on,80,0,1,,,,,,,,,,,,,,,0,,,66,0
122100,note_on,180,0,2,,,,,,,,,,,,,,,0,,,42,0
122160,note_on,80,0,1,,,,,,,,,,,,,,,0,,,61,0
122160,note_on,0,0,1,,,,,,,,,,,,,,,0,,,66,33
122160,note_on,60,0,2,,,,,,,,,,,,,,,0,,,54,28
122160,set_tempo,120,1,0,,,,,,,,,,,,1128032,,,,,,,
122240,note_on,0,0,1,,,,,,,,,,,,,,,0,,,61,30
122240,note_on,80,0,1,,,,,,,,,,,,,,,0,,,66,0
122280,set_tempo,120,1,0,,,,,,,,,,,,1138520,,,,,,,
122320,note_on,80,0,1,,,,,,,,,,,,,,,0,,,61,0
122320,note_on,0,0,1,,,,,,,,,,,,,,,0,,,57,30
122340,note_on,180,0,2,,,,,,,,,,,,,,,0,,,54,0
122400,set_tempo,120,1,0,,,,,,,,,,,,1107420,,,,,,,
122400,note_on,60,0,2,,,,,,,,,,,,,,,0,,,30,30
122400,control_change,0,0,2,,,,,,,,,,,,,,,0,64,0,,
122400,note_on,0,0,1,,,,,,,,,,,,,,,0,,,69,51
122400,note_on,0,0,1,,,,,,,,,,,,,,,0,,,69,0
122400,note_on,80,0,1,,,,,,,,,,,,,,,0,,,57,0
122456,control_change,56,0,2,,,,,,,,,,,,,,,0,64,127,,
122480,note_on,80,0,1,,,,,,,,,,,,,,,0,,,66,29
122520,note_on,64,0,2,,,,,,,,,,,,,,,0,,,30,0
122560,note_on,80,0,1,,,,,,,,,,,,,,,0,,,66,0
122560,note_on,0,0,1,,,,,,,,,,,,,,,0,,,61,29
122640,note_on,80,0,1,,,,,,,,,,,,,,,0,,,61,0
122640,note_on,0,0,1,,,,,,,,,,,,,,,0,,,66,29
122640,note_on,120,0,2,,,,,,,,,,,,,,,0,,,42,28
122720,note_on,80,0,1,,,,,,,,,,,,,,,0,,,66,0
122720,note_on,0,0,1,,,,,,,,,,,,,,,0,,,61,29
122760,note_on,120,0,2,,,,,,,,,,,,,,,0,,,42,0
122800,note_on,80,0,1,,,,,,,,,,,,,,,0,,,61,0
122800,note_on,0,0,1,,,,,,,,,,,,,,,0,,,57,29
122880,set_tempo,480,1,0,,,,,,,,,,,,1097293,,,,,,,
122880,note_on,120,0,2,,,,,,,,,,,,,,,0,,,30,28
122880,note_on,80,0,1,,,,,,,,,,,,,,,0,,,57,0
122960,note_on,80,0,1,,,,,,,,,,,,,,,0,,,66,29
123000,note_on,120,0,2,,,,,,,,,,,,,,,0,,,30,0
123040,note_on,0,0,1,,,,,,,,,,,,,,,0,,,61,29
123040,note_on,80,0,1,,,,,,,,,,,,,,,0,,,66,0
123120,note_on,0,0,1,,,,,,,,,,,,,,,0,,,66,32
123120,note_on,80,0,1,,,,,,,,,,,,,,,0,,,61,0
123120,note_on,120,0,2,,,,,,,,,,,,,,,0,,,42,27
123200,note_on,0,0,1,,,,,,,,,,,,,,,0,,,61,30
123200,set_tempo,320,1,0,,,,,,,,,,,,1097293,,,,,,,
123200,note_on,80,0,1,,,,,,,,,,,,,,,0,,,66,0
123280,note_on,80,0,1,,,,,,,,,,,,,,,0,,,61,0
123280,note_on,0,0,1,,,,,,,,,,,,,,,0,,,57,30
123300,note_on,180,0,2,,,,,,,,,,,,,,,0,,,42,0
123360,note_on,0,0,1,,,,,,,,,,,,,,,0,,,69,49
123360,note_on,60,0,2,,,,,,,,,,,,,,,0,,,30,30
123360,note_on,0,0,1,,,,,,,,,,,,,,,0,,,69,0
123360,note_on,80,0,1,,,,,,,,,,,,,,,0,,,57,0
123360,set_tempo,160,1,0,,,,,,,,,,,,1107420,,,,,,,
123440,note_on,80,0,1,,,,,,,,,,,,,,,0,,,66,32
123480,set_tempo,120,1,0,,,,,,,,,,,,1117527,,,,,,,
123520,note_on,80,0,1,,,,,,,,,,,,,,,0,,,66,0
123520,note_on,0,0,1,,,,,,,,,,,,,,,0,,,62,32
123540,note_on,180,0,2,,,,,,,,,,,,,,,0,,,30,0
123600,note_on,60,0,2,,,,,,,,,,,,,,,0,,,42,29
123600,note_on,80,0,1,,,,,,,,,,,,,,,0,,,62,0
123600,note_on,0,0,1,,,,,,,,,,,,,,,0,,,66,34
123600,set_tempo,120,1,0,,,,,,,,,,,,1128032,,,,,,,
123680,note_on,0,0,1,,,,,,,,,,,,,,,0,,,62,31
123680,note_on,80,0,1,,,,,,,,,,,,,,,0,,,66,0
123720,set_tempo,120,1,0,,,,,,,,,,,,1138520,,,,,,,
123760,note_on,80,0,1,,,,,,,,,,,,,,,0,,,62,0
123760,note_on,0,0,1,,,,,,,,,,,,,,,0,,,57,32
123780,note_on,180,0,2,,,,,,,,,,,,,,,0,,,42,0
123840,note_on,0,0,1,,,,,,,,,,,,,,,0,,,69,0
123840,note_on,0,0,1,,,,,,,,,,,,,,,0,,,69,53
123840,note_on,80,0,1,,,,,,,,,,,,,,,0,,,57,0
123840,note_on,60,0,2,,,,,,,,,,,,,,,0,,,32,33
123840,control_change,0,0,2,,,,,,,,,,,,,,,0,64,0,,
123840,set_tempo,120,1,0,,,,,,,,,,,,1107420,,,,,,,
123896,control_change,56,0,2,,,,,,,,,,,,,,,0,64,127,,
123920,note_on,80,0,1,,,,,,,,,,,,,,,0,,,66,31
123960,note_on,64,0,2,,,,,,,,,,,,,,,0,,,32,0
124000,note_on,0,0,1,,,,,,,,,,,,,,,0,,,61,31
124000,note_on,80,0,1,,,,,,,,,,,,,,,0,,,66,0
124080,note_on,120,0,2,,,,,,,,,,,,,,,0,,,44,29
124080,note_on,0,0,1,,,,,,,,,,,,,,,0,,,66,30
124080,note_on,80,0,1,,,,,,,,,,,,,,,0,,,61,0
124160,note_on,0,0,1,,,,,,,,,,,,,,,0,,,61,30
124160,note_on,80,0,1,,,,,,,,,,,,,,,0,,,66,0
124200,note_on,120,0,2,,,,,,,,,,,,,,,0,,,44,0
124240,note_on,0,0,1,,,,,,,,,,,,,,,0,,,64,29
124240,note_on,80,0,1,,,,,,,,,,,,,,,0,,,61,0
124260,note_on,0,0,1,,,,,,,,,,,,,,,0,,,68,51
124260,note_on,20,0,1,,,,,,,,,,,,,,,0,,,69,0
124320,note_on,0,0,1,,,,,,,,,,,,,,,0,,,68,49
124320,note_on,0,0,1,,,,,,,,,,,,,,,0,,,64,0
124320,note_on,60,0,1,,,,,,,,,,,,,,,0,,,68,0
124320,note_on,120,0,2,,,,,,,,,,,,,,,0,,,32,28
124320,set_tempo,480,1,0,,,,,,,,,,,,1097293,,,,,,,
124400,note_on,80,0,1,,,,,,,,,,,,,,,0,,,64,29
124440,note_on,120,0,2,,,,,,,,,,,,,,,0,,,32,0
124480,note_on,0,0,1,,,,,,,,,,,,,,,0,,,61,29
124480,note_on,80,0,1,,,,,,,,,,,,,,,0,,,64,0
124560,note_on,120,0,2,,,,,,,,,,,,,,,0,,,44,27
124560,note_on,80,0,1,,,,,,,,,,,,,,,0,,,61,0
124560,note_on,0,0,1,,,,,,,,,,,,,,,0,,,64,32
124640,set_tempo,320,1,0,,,,,,,,,,,,1097293,,,,,,,
124640,note_on,80,0,1,,,,,,,,,,,,,,,0,,,64,0
124640,note_on,0,0,1,,,,,,,,,,,,,,,0,,,61,30
124720,note_on,80,0,1,,,,,,,,,,,,,,,0,,,61,0
124720,note_on,0,0,1,,,,,,,,,,,,,,,0,,,56,30
124740,note_on,180,0,2,,,,,,,,,,,,,,,0,,,44,0
124800,note_on,60,0,2,,,,,,,,,,,,,,,0,,,32,30
124800,set_tempo,160,1,0,,,,,,,,,,,,1107420,,,,,,,
124800,note_on,80,0,1,,,,,,,,,,,,,,,0,,,56,0
124880,note_on,80,0,1,,,,,,,,,,,,,,,0,,,64,32
124920,set_tempo,120,1,0,,,,,,,,,,,,1117527,,,,,,,
124960,note_on,80,0,1,,,,,,,,,,,,,,,0,,,64,0
124960,note_on,0,0,1,,,,,,,,,,,,,,,0,,,61,32
124980,note_on,180,0,2,,,,,,,,,,,,,,,0,,,32,0
125040,note_on,80,0,1,,,,,,,,,,,,,,,0,,,61,0
125040,note_on,60,0,2,,,,,,,,,,,,,,,0,,,44,28
125040,set_tempo,120,1,0,,,,,,,,,,,,1128032,,,,,,,
125040,note_on,0,0,1,,,,,,,,,,,,,,,0,,,64,33
125120,note_on,80,0,1,,,,,,,,,,,,,,,0,,,64,0
125120,note_on,0,0,1,,,,,,,,,,,,,,,0,,,61,30
125160,set_tempo,120,1,0,,,,,,,,,,,,1138520,,,,,,,
125200,note_on,80,0,1,,,,,,,,,,,,,,,0,,,61,0
125200,note_on,0,0,1,,,,,,,,,,,,,,,0,,,56,30
125220,note_on,180,0,2,,,,,,,,,,,,,,,0,,,44,0
125280,control_change,0,0,2,,,,,,,,,,,,,,,0,64,0,,
125280,note_on,60,0,2,,,,,,,,,,,,,,,0,,,32,30
125280,set_tempo,120,1,0,,,,,,,,,,,,1171875,,,,,,,
125280,note_on,80,0,1,,,,,,,,,,,,,,,0,,,56,0
125280,note_on,0,0,1,,,,,,,,,,,,,,,0,,,68,48
125280,note_on,0,0,1,,,,,,,,,,,,,,,0,,,68,0
125336,control_change,56,0,2,,,,,,,,,,,,,,,0,64,127,,
125360,note_on,80,0,1,,,,,,,,,,,,,,,0,,,63,28
125400,note_on,64,0,2,,,,,,,,,,,,,,,0,,,32,0
125440,note_on,80,0,1,,,,,,,,,,,,,,,0,,,63,0
125440,note_on,0,0,1,,,,,,,,,,,,,,,0,,,61,28
125520,note_on,80,0,1,,,,,,,,,,,,,,,0,,,61,0
125520,note_on,0,0,1,,,,,,,,,,,,,,,0,,,63,28
125520,note_on,120,0,2,,,,,,,,,,,,,,,0,,,44,27
125600,note_on,0,0,1,,,,,,,,,,,,,,,0,,,61,27
125600,note_on,80,0,1,,,,,,,,,,,,,,,0,,,63,0
125640,note_on,120,0,2,,,,,,,,,,,,,,,0,,,44,0
125680,note_on,80,0,1,,,,,,,,,,,,,,,0,,,61,0
125680,note_on,0,0,1,,,,,,,,,,,,,,,0,,,56,27
125760,note_on,80,0,1,,,,,,,,,,,,,,,0,,,56,0
125760,note_on,120,0,2,,,,,,,,,,,,,,,0,,,32,26
125760,set_tempo,480,1,0,,,,,,,,,,,,1149646,,,,,,,
125840,set_tempo,80,1,0,,,,,,,,,,,,1160766,,,,,,,
125840,note_on,80,0,1,,,,,,,,,,,,,,,0,,,63,26
125880,set_tempo,40,1,0,,,,,,,,,,,,1171875,,,,,,,
125880,note_on,120,0,2,,,,,,,,,,,,,,,0,,,32,0
125920,note_on,0,0,1,,,,,,,,,,,,,,,0,,,61,26
125920,set_tempo,40,1,0,,,,,,,,,,,,1183432,,,,,,,
125920,note_on,80,0,1,,,,,,,,,,,,,,,0,,,63,0
126000,note_on,0,0,1,,,,,,,,,,,,,,,0,,,63,28
126000,set_tempo,80,1,0,,,,,,,,,,,,1194981,,,,,,,
126000,note_on,120,0,2,,,,,,,,,,,,,,,0,,,44,24
126000,note_on,80,0,1,,,,,,,,,,,,,,,0,,,61,0
126040,set_tempo,40,1,0,,,,,,,,,,,,1207001,,,,,,,
126080,note_on,0,0,1,,,,,,,,,,,,,,,0,,,61,26
126080,note_on,80,0,1,,,,,,,,,,,,,,,0,,,63,0
126080,set_tempo,40,1,0,,,,,,,,,,,,1219264,,,,,,,
126160,note_on,0,0,1,,,,,,,,,,,,,,,0,,,56,26
126160,note_on,80,0,1,,,,,,,,,,,,,,,0,,,61,0
126160,set_tempo,80,1,0,,,,,,,,,,,,1231527,,,,,,,
126180,note_on,180,0,2,,,,,,,,,,,,,,,0,,,44,0
126200,set_tempo,40,1,0,,,,,,,,,,,,1244555,,,,,,,
126240,set_tempo,40,1,0,,,,,,,,,,,,1244555,,,,,,,
126240,note_on,80,0,1,,,,,,,,,,,,,,,0,,,56,0
126240,note_on,0,0,1,,,,,,,,,,,,,,,0,,,68,44
126240,note_on,0,0,1,,,,,,,,,,,,,,,0,,,68,0
126240,note_on,60,0,2,,,,,,,,,,,,,,,0,,,32,26
126280,set_tempo,40,1,0,,,,,,,,,,,,1257334,,,,,,,
126320,set_tempo,40,1,0,,,,,,,,,,,,1283972,,,,,,,
126320,note_on,80,0,1,,,,,,,,,,,,,,,0,,,63,27
126360,set_tempo,40,1,0,,,,,,,,,,,,1297859,,,,,,,
126400,set_tempo,40,1,0,,,,,,,,,,,,1326260,,,,,,,
126400,note_on,0,0,1,,,,,,,,,,,,,,,0,,,60,27
126400,note_on,80,0,1,,,,,,,,,,,,,,,0,,,63,0
126420,note_on,180,0,2,,,,,,,,,,,,,,,0,,,32,0
126440,set_tempo,40,1,0,,,,,,,,,,,,1355932,,,,,,,
126480,set_tempo,40,1,0,,,,,,,,,,,,1371742,,,,,,,
126480,note_on,0,0,1,,,,,,,,,,,,,,,0,,,63,28
126480,note_on,60,0,2,,,,,,,,,,,,,,,0,,,44,24
126480,note_on,80,0,1,,,,,,,,,,,,,,,0,,,60,0
126520,set_tempo,40,1,0,,,,,,,,,,,,1403509,,,,,,,
126560,note_on,80,0,1,,,,,,,,,,,,,,,0,,,63,0
126560,note_on,0,0,1,,,,,,,,,,,,,,,0,,,60,25
126560,set_tempo,40,1,0,,,,,,,,,,,,1436782,,,,,,,
126600,set_tempo,40,1,0,,,,,,,,,,,,1454193,,,,,,,
126640,note_on,0,0,1,,,,,,,,,,,,,,,0,,,56,26
126640,set_tempo,40,1,0,,,,,,,,,,,,1489943,,,,,,,
126640,note_on,80,0,1,,,,,,,,,,,,,,,0,,,60,0
126660,note_on,180,0,2,,,,,,,,,,,,,,,0,,,44,0
126680,set_tempo,40,1,0,,,,,,,,,,,,1527884,,,,,,,
126720,note_on,0,0,1,,,,,,,,,,,,,,,0,,,68,0
126720,note_on,80,0,1,,,,,,,,,,,,,,,0,,,56,0
126720,control_change,60,0,2,,,,,,,,,,,,,,,0,64,0,,
126720,set_tempo,40,1,0,,,,,,,,,,,,1297859,,,,,,,
128160,set_tempo,0,1,0,,,,,,,,,,,,1286449,,,,,,,
128160,note_on,1440,0,2,,,,,,,,,,,,,,,0,,,37,31
128160,note_on,1440,0,1,,,,,,,,,,,,,,,0,,,64,39
128160,note_on,0,0,1,,,,,,,,,,,,,,,0,,,68,47
128160,key_signature,1440,1,0,,,,,,,,,,,E,,,,,,,,
128174,control_change,14,0,2,,,,,,,,,,,,,,,0,64,127,,
128280,note_on,106,0,2,,,,,,,,,,,,,,,0,,,37,0
128400,set_tempo,240,1,0,,,,,,,,,,,,1212366,,,,,,,
128400,note_on,120,0,2,,,,,,,,,,,,,,,0,,,49,27
128640,note_on,0,0,2,,,,,,,,,,,,,,,0,,,61,32
128640,note_on,240,0,2,,,,,,,,,,,,,,,0,,,49,0
128880,note_on,240,0,2,,,,,,,,,,,,,,,0,,,61,0
128880,note_on,720,0,1,,,,,,,,,,,,,,,0,,,73,31
128880,set_tempo,480,1,0,,,,,,,,,,,,1290045,,,,,,,
129120,set_tempo,240,1,0,,,,,,,,,,,,1273615,,,,,,,
129120,note_on,0,0,1,,,,,,,,,,,,,,,0,,,64,0
129120,note_on,0,0,1,,,,,,,,,,,,,,,0,,,68,41
129120,note_on,0,0,1,,,,,,,,,,,,,,,0,,,64,35
129120,note_on,0,0,1,,,,,,,,,,,,,,,0,,,68,0
129120,note_on,240,0,1,,,,,,,,,,,,,,,0,,,73,0
129148,control_change,268,0,2,,,,,,,,,,,,,,,0,64,0,,
129200,set_tempo,80,1,0,,,,,,,,,,,,1286449,,,,,,,
129240,note_on,92,0,2,,,,,,,,,,,,,,,0,,,37,30
129240,set_tempo,40,1,0,,,,,,,,,,,,1299827,,,,,,,
129280,set_tempo,40,1,0,,,,,,,,,,,,1313198,,,,,,,
129300,note_on,60,0,2,,,,,,,,,,,,,,,0,,,37,0
129320,set_tempo,40,1,0,,,,,,,,,,,,1327140,,,,,,,
129360,note_on,60,0,2,,,,,,,,,,,,,,,0,,,37,30
129360,set_tempo,40,1,0,,,,,,,,,,,,1341082,,,,,,,
129400,set_tempo,40,1,0,,,,,,,,,,,,1355626,,,,,,,
129420,note_on,60,0,2,,,,,,,,,,,,,,,0,,,37,0
129440,set_tempo,40,1,0,,,,,,,,,,,,1370489,,,,,,,
129480,note_on,60,0,2,,,,,,,,,,,,,,,0,,,36,30
129480,set_tempo,40,1,0,,,,,,,,,,,,1385361,,,,,,,
129520,set_tempo,40,1,0,,,,,,,,,,,,1400887,,,,,,,
129540,note_on,0,0,1,,,,,,,,,,,,,,,0,,,63,30
129540,note_on,0,0,1,,,,,,,,,,,,,,,0,,,64,0
129540,note_on,60,0,2,,,,,,,,,,,,,,,0,,,36,0
129540,note_on,420,0,1,,,,,,,,,,,,,,,0,,,68,0
129540,note_on,0,0,1,,,,,,,,,,,,,,,0,,,66,36
129600,note_on,0,0,1,,,,,,,,,,,,,,,0,,,66,44
129600,note_on,0,0,1,,,,,,,,,,,,,,,0,,,63,0
129600,set_tempo,80,1,0,,,,,,,,,,,,1286449,,,,,,,
129600,note_on,60,0,1,,,,,,,,,,,,,,,0,,,66,0
129600,note_on,60,0,2,,,,,,,,,,,,,,,0,,,37,31
129600,note_on,0,0,1,,,,,,,,,,,,,,,0,,,63,36
129646,control_change,46,0,2,,,,,,,,,,,,,,,0,64,127,,
129720,note_on,74,0,2,,,,,,,,,,,,,,,0,,,37,0
129840,set_tempo,240,1,0,,,,,,,,,,,,1223990,,,,,,,
129840,note_on,120,0,2,,,,,,,,,,,,,,,0,,,49,27
130080,note_on,0,0,2,,,,,,,,,,,,,,,0,,,61,32
130080,note_on,240,0,2,,,,,,,,,,,,,,,0,,,49,0
130320,set_tempo,480,1,0,,,,,,,,,,,,1278500,,,,,,,
130320,note_on,240,0,2,,,,,,,,,,,,,,,0,,,61,0
130320,note_on,720,0,1,,,,,,,,,,,,,,,0,,,73,33
130560,note_on,0,0,1,,,,,,,,,,,,,,,0,,,66,44
130560,note_on,0,0,1,,,,,,,,,,,,,,,0,,,63,37
130560,note_on,240,0,1,,,,,,,,,,,,,,,0,,,73,0
130560,note_on,0,0,1,,,,,,,,,,,,,,,0,,,66,0
130560,set_tempo,240,1,0,,,,,,,,,,,,1273615,,,,,,,
130560,note_on,0,0,1,,,,,,,,,,,,,,,0,,,63,0
130574,control_change,254,0,2,,,,,,,,,,,,,,,0,64,0,,
130640,set_tempo,80,1,0,,,,,,,,,,,,1286449,,,,,,,
130680,note_on,106,0,2,,,,,,,,,,,,,,,0,,,37,31
130720,set_tempo,80,1,0,,,,,,,,,,,,1299827,,,,,,,
130740,note_on,60,0,2,,,,,,,,,,,,,,,0,,,37,0
130760,set_tempo,40,1,0,,,,,,,,,,,,1313198,,,,,,,
130800,note_on,60,0,2,,,,,,,,,,,,,,,0,,,37,31
130840,set_tempo,80,1,0,,,,,,,,,,,,1327140,,,,,,,
130860,note_on,60,0,2,,,,,,,,,,,,,,,0,,,37,0
130880,set_tempo,40,1,0,,,,,,,,,,,,1341082,,,,,,,
130920,note_on,60,0,2,,,,,,,,,,,,,,,0,,,36,32
130960,set_tempo,80,1,0,,,,,,,,,,,,1355626,,,,,,,
130980,note_on,60,0,2,,,,,,,,,,,,,,,0,,,36,0
131000,set_tempo,40,1,0,,,,,,,,,,,,1370489,,,,,,,
131040,set_tempo,40,1,0,,,,,,,,,,,,1313198,,,,,,,
131040,note_on,60,0,2,,,,,,,,,,,,,,,0,,,37,31
131040,note_on,0,0,1,,,,,,,,,,,,,,,0,,,69,49
131040,note_on,480,0,1,,,,,,,,,,,,,,,0,,,66,0
131040,note_on,0,0,1,,,,,,,,,,,,,,,0,,,63,0
131040,note_on,0,0,1,,,,,,,,,,,,,,,0,,,66,41
131071,control_change,31,0,2,,,,,,,,,,,,,,,0,64,127,,
131160,note_on,89,0,2,,,,,,,,,,,,,,,0,,,37,0
131280,note_on,120,0,2,,,,,,,,,,,,,,,0,,,49,27
131280,set_tempo,240,1,0,,,,,,,,,,,,1223990,,,,,,,
131520,note_on,240,0,2,,,,,,,,,,,,,,,0,,,49,0
131520,note_on,0,0,2,,,,,,,,,,,,,,,0,,,61,32
131760,note_on,720,0,1,,,,,,,,,,,,,,,0,,,73,34
131760,note_on,240,0,2,,,,,,,,,,,,,,,0,,,61,0
131760,set_tempo,480,1,0,,,,,,,,,,,,1278500,,,,,,,
132000,note_on,0,0,1,,,,,,,,,,,,,,,0,,,66,0
132000,note_on,240,0,1,,,,,,,,,,,,,,,0,,,73,0
132000,note_on,0,0,1,,,,,,,,,,,,,,,0,,,69,39
132000,note_on,0,0,1,,,,,,,,,,,,,,,0,,,66,33
132000,note_on,0,0,1,,,,,,,,,,,,,,,0,,,69,0
132000,set_tempo,240,1,0,,,,,,,,,,,,1260769,,,,,,,
132014,control_change,254,0,2,,,,,,,,,,,,,,,0,64,0,,
132080,set_tempo,80,1,0,,,,,,,,,,,,1273615,,,,,,,
132120,note_on,106,0,2,,,,,,,,,,,,,,,0,,,37,32
132120,set_tempo,40,1,0,,,,,,,,,,,,1286449,,,,,,,
132160,set_tempo,40,1,0,,,,,,,,,,,,1299827,,,,,,,
132180,note_on,60,0,2,,,,,,,,,,,,,,,0,,,37,0
132200,set_tempo,40,1,0,,,,,,,,,,,,1313198,,,,,,,
132240,note_on,60,0,2,,,,,,,,,,,,,,,0,,,37,31
132240,note_on,240,0,1,,,,,,,,,,,,,,,0,,,69,0
132240,note_on,0,0,1,,,,,,,,,,,,,,,0,,,68,36
132240,note_on,0,0,1,,,,,,,,,,,,,,,0,,,64,30
132240,note_on,0,0,1,,,,,,,,,,,,,,,0,,,66,0
132280,set_tempo,80,1,0,,,,,,,,,,,,1327140,,,,,,,
132300,note_on,60,0,2,,,,,,,,,,,,,,,0,,,37,0
132320,set_tempo,40,1,0,,,,,,,,,,,,1341082,,,,,,,
132360,note_on,120,0,1,,,,,,,,,,,,,,,0,,,68,0
132360,set_tempo,40,1,0,,,,,,,,,,,,1355626,,,,,,,
132360,note_on,0,0,1,,,,,,,,,,,,,,,0,,,64,0
132360,note_on,0,0,1,,,,,,,,,,,,,,,0,,,66,34
132360,note_on,60,0,2,,,,,,,,,,,,,,,0,,,36,31
132360,note_on,0,0,1,,,,,,,,,,,,,,,0,,,63,28
132400,set_tempo,40,1,0,,,,,,,,,,,,1370489,,,,,,,
132420,note_on,60,0,2,,,,,,,,,,,,,,,0,,,36,0
132440,set_tempo,40,1,0,,,,,,,,,,,,1313198,,,,,,,
132480,set_tempo,40,1,0,,,,,,,,,,,,1299827,,,,,,,
132480,note_on,120,0,1,,,,,,,,,,,,,,,0,,,66,0
132480,note_on,0,0,1,,,,,,,,,,,,,,,0,,,64,39
132480,note_on,0,0,1,,,,,,,,,,,,,,,0,,,68,47
132480,note_on,60,0,2,,,,,,,,,,,,,,,0,,,37,31
132480,note_on,0,0,1,,,,,,,,,,,,,,,0,,,63,0
132511,control_change,31,0,2,,,,,,,,,,,,,,,0,64,127,,
132600,note_on,89,0,2,,,,,,,,,,,,,,,0,,,37,0
132720,set_tempo,240,1,0,,,,,,,,,,,,1223990,,,,,,,
132720,note_on,120,0,2,,,,,,,,,,,,,,,0,,,49,27
132960,note_on,240,0,2,,,,,,,,,,,,,,,0,,,49,0
132960,note_on,0,0,2,,,,,,,,,,,,,,,0,,,61,32
133200,note_on,720,0,1,,,,,,,,,,,,,,,0,,,73,32
133200,note_on,240,0,2,,,,,,,,,,,,,,,0,,,61,0
133200,set_tempo,480,1,0,,,,,,,,,,,,1278500,,,,,,,
133440,note_on,240,0,1,,,,,,,,,,,,,,,0,,,73,0
133440,note_on,0,0,1,,,,,,,,,,,,,,,0,,,68,0
133440,set_tempo,240,1,0,,,,,,,,,,,,1286449,,,,,,,
133440,note_on,0,0,1,,,,,,,,,,,,,,,0,,,64,0
133440,note_on,0,0,1,,,,,,,,,,,,,,,0,,,64,35
133440,note_on,0,0,1,,,,,,,,,,,,,,,0,,,68,41
133468,control_change,268,0,2,,,,,,,,,,,,,,,0,64,0,,
133520,set_tempo,80,1,0,,,,,,,,,,,,1299827,,,,,,,
133560,note_on,92,0,2,,,,,,,,,,,,,,,0,,,37,33
133600,set_tempo,80,1,0,,,,,,,,,,,,1313198,,,,,,,
133620,note_on,60,0,2,,,,,,,,,,,,,,,0,,,37,0
133640,set_tempo,40,1,0,,,,,,,,,,,,1327140,,,,,,,
133680,note_on,60,0,2,,,,,,,,,,,,,,,0,,,37,32
133720,set_tempo,80,1,0,,,,,,,,,,,,1341082,,,,,,,
133740,note_on,60,0,2,,,,,,,,,,,,,,,0,,,37,0
133760,set_tempo,40,1,0,,,,,,,,,,,,1355626,,,,,,,
133800,note_on,60,0,2,,,,,,,,,,,,,,,0,,,36,31
133840,set_tempo,80,1,0,,,,,,,,,,,,1370489,,,,,,,
133860,note_on,60,0,2,,,,,,,,,,,,,,,0,,,36,0
133880,set_tempo,40,1,0,,,,,,,,,,,,1385361,,,,,,,
133920,note_on,0,0,1,,,,,,,,,,,,,,,0,,,64,0
133920,note_on,60,0,2,,,,,,,,,,,,,,,0,,,37,31
133920,note_on,0,0,1,,,,,,,,,,,,,,,0,,,65,41
133920,note_on,0,0,1,,,,,,,,,,,,,,,0,,,71,49
133920,set_tempo,40,1,0,,,,,,,,,,,,1313198,,,,,,,
133920,note_on,480,0,1,,,,,,,,,,,,,,,0,,,68,0
133960,control_change,40,0,2,,,,,,,,,,,,,,,0,64,127,,
134040,note_on,80,0,2,,,,,,,,,,,,,,,0,,,37,0
134160,note_on,120,0,2,,,,,,,,,,,,,,,0,,,49,27
134200,set_tempo,280,1,0,,,,,,,,,,,,1223990,,,,,,,
134400,note_on,0,0,2,,,,,,,,,,,,,,,0,,,61,32
134400,note_on,240,0,2,,,,,,,,,,,,,,,0,,,49,0
134640,set_tempo,440,1,0,,,,,,,,,,,,1278500,,,,,,,
134640,note_on,720,0,1,,,,,,,,,,,,,,,0,,,73,37
134640,note_on,240,0,2,,,,,,,,,,,,,,,0,,,61,0
134880,note_on,0,0,1,,,,,,,,,,,,,,,0,,,71,39
134880,note_on,0,0,1,,,,,,,,,,,,,,,0,,,65,0
134880,note_on,0,0,1,,,,,,,,,,,,,,,0,,,65,33
134880,note_on,240,0,1,,,,,,,,,,,,,,,0,,,73,0
134880,note_on,0,0,1,,,,,,,,,,,,,,,0,,,71,0
134880,set_tempo,240,1,0,,,,,,,,,,,,1299827,,,,,,,
134894,control_change,254,0,2,,,,,,,,,,,,,,,0,64,0,,
134960,set_tempo,80,1,0,,,,,,,,,,,,1313198,,,,,,,
135000,note_on,0,0,1,,,,,,,,,,,,,,,0,,,68,33
135000,note_on,120,0,1,,,,,,,,,,,,,,,0,,,65,0
135000,note_on,106,0,2,,,,,,,,,,,,,,,0,,,37,30
135040,set_tempo,80,1,0,,,,,,,,,,,,1327140,,,,,,,
135060,note_on,60,0,2,,,,,,,,,,,,,,,0,,,37,0
135080,set_tempo,40,1,0,,,,,,,,,,,,1341082,,,,,,,
135120,note_on,60,0,2,,,,,,,,,,,,,,,0,,,37,30
135120,note_on,0,0,1,,,,,,,,,,,,,,,0,,,69,36
135120,note_on,0,0,1,,,,,,,,,,,,,,,0,,,66,30
135120,note_on,120,0,1,,,,,,,,,,,,,,,0,,,68,0
135120,note_on,0,0,1,,,,,,,,,,,,,,,0,,,71,0
135160,set_tempo,80,1,0,,,,,,,,,,,,1355626,,,,,,,
135180,note_on,60,0,2,,,,,,,,,,,,,,,0,,,37,0
135200,set_tempo,40,1,0,,,,,,,,,,,,1370489,,,,,,,
135240,note_on,0,0,1,,,,,,,,,,,,,,,0,,,68,34
135240,note_on,0,0,1,,,,,,,,,,,,,,,0,,,65,28
135240,note_on,120,0,1,,,,,,,,,,,,,,,0,,,69,0
135240,note_on,0,0,1,,,,,,,,,,,,,,,0,,,66,0
135240,note_on,60,0,2,,,,,,,,,,,,,,,0,,,36,31
135280,set_tempo,80,1,0,,,,,,,,,,,,1385361,,,,,,,
135300,note_on,60,0,2,,,,,,,,,,,,,,,0,,,36,0
135320,set_tempo,40,1,0,,,,,,,,,,,,1400887,,,,,,,
135360,note_on,120,0,1,,,,,,,,,,,,,,,0,,,68,0
135360,note_on,60,0,2,,,,,,,,,,,,,,,0,,,37,31
135360,set_tempo,40,1,0,,,,,,,,,,,,1313198,,,,,,,
135360,note_on,0,0,1,,,,,,,,,,,,,,,0,,,66,41
135360,note_on,0,0,1,,,,,,,,,,,,,,,0,,,69,49
135360,note_on,0,0,1,,,,,,,,,,,,,,,0,,,65,0
135394,control_change,34,0,2,,,,,,,,,,,,,,,0,64,127,,
135480,note_on,86,0,2,,,,,,,,,,,,,,,0,,,37,0
135600,note_on,120,0,2,,,,,,,,,,,,,,,0,,,49,27
135640,set_tempo,280,1,0,,,,,,,,,,,,1223990,,,,,,,
135840,note_on,0,0,2,,,,,,,,,,,,,,,0,,,61,32
135840,note_on,240,0,2,,,,,,,,,,,,,,,0,,,49,0
136080,set_tempo,440,1,0,,,,,,,,,,,,1278500,,,,,,,
136080,note_on,240,0,2,,,,,,,,,,,,,,,0,,,61,0
136080,note_on,0,0,1,,,,,,,,,,,,,,,0,,,73,41
136080,note_on,720,0,1,,,,,,,,,,,,,,,0,,,69,0
136080,note_on,0,0,1,,,,,,,,,,,,,,,0,,,66,0
136080,note_on,0,0,1,,,,,,,,,,,,,,,0,,,66,28
136080,note_on,0,0,1,,,,,,,,,,,,,,,0,,,69,34
136320,note_on,0,0,1,,,,,,,,,,,,,,,0,,,69,48
136320,note_on,0,0,1,,,,,,,,,,,,,,,0,,,69,0
136320,note_on,240,0,1,,,,,,,,,,,,,,,0,,,73,0
136320,note_on,0,0,1,,,,,,,,,,,,,,,0,,,66,0
136320,set_tempo,240,1,0,,,,,,,,,,,,1313198,,,,,,,
136320,note_on,0,0,1,,,,,,,,,,,,,,,0,,,66,40
136334,control_change,254,0,2,,,,,,,,,,,,,,,0,64,0,,
136440,note_on,106,0,2,,,,,,,,,,,,,,,0,,,37,31
136500,note_on,60,0,2,,,,,,,,,,,,,,,0,,,37,0
136560,set_tempo,240,1,0,,,,,,,,,,,,1416431,,,,,,,
136560,note_on,0,0,1,,,,,,,,,,,,,,,0,,,66,0
136560,note_on,0,0,1,,,,,,,,,,,,,,,0,,,66,40
136560,note_on,0,0,1,,,,,,,,,,,,,,,0,,,69,49
136560,note_on,60,0,2,,,,,,,,,,,,,,,0,,,37,31
136560,note_on,240,0,1,,,,,,,,,,,,,,,0,,,69,0
136620,note_on,60,0,2,,,,,,,,,,,,,,,0,,,37,0
136680,note_on,60,0,2,,,,,,,,,,,,,,,0,,,36,32
136740,note_on,60,0,2,,,,,,,,,,,,,,,0,,,36,0
136800,set_tempo,240,1,0,,,,,,,,,,,,1327140,,,,,,,
136800,note_on,60,0,2,,,,,,,,,,,,,,,0,,,37,37
136800,note_on,0,0,1,,,,,,,,,,,,,,,0,,,73,58
136800,note_on,0,0,1,,,,,,,,,,,,,,,0,,,69,49
136800,note_on,0,0,1,,,,,,,,,,,,,,,0,,,66,0
136800,note_on,240,0,1,,,,,,,,,,,,,,,0,,,69,0
136826,control_change,26,0,2,,,,,,,,,,,,,,,0,64,127,,
136920,note_on,94,0,2,,,,,,,,,,,,,,,0,,,37,0
137040,note_on,120,0,2,,,,,,,,,,,,,,,0,,,49,30
137040,set_tempo,240,1,0,,,,,,,,,,,,1223990,,,,,,,
137280,note_on,0,0,2,,,,,,,,,,,,,,,0,,,61,36
137280,set_tempo,240,1,0,,,,,,,,,,,,1212366,,,,,,,
137280,note_on,240,0,2,,,,,,,,,,,,,,,0,,,49,0
137520,note_on,240,0,2,,,,,,,,,,,,,,,0,,,61,0
137520,note_on,720,0,1,,,,,,,,,,,,,,,0,,,73,45
137520,set_tempo,240,1,0,,,,,,,,,,,,1341082,,,,,,,
137560,set_tempo,40,1,0,,,,,,,,,,,,1370489,,,,,,,
137760,note_on,0,0,1,,,,,,,,,,,,,,,0,,,73,0
137760,note_on,240,0,1,,,,,,,,,,,,,,,0,,,73,0
137760,note_on,0,0,1,,,,,,,,,,,,,,,0,,,69,0
137760,note_on,0,0,1,,,,,,,,,,,,,,,0,,,69,39
137760,note_on,0,0,1,,,,,,,,,,,,,,,0,,,73,47
137760,set_tempo,200,1,0,,,,,,,,,,,,1260769,,,,,,,
137774,control_change,254,0,2,,,,,,,,,,,,,,,0,64,0,,
137800,set_tempo,40,1,0,,,,,,,,,,,,1273615,,,,,,,
137840,set_tempo,40,1,0,,,,,,,,,,,,1286449,,,,,,,
137880,note_on,106,0,2,,,,,,,,,,,,,,,0,,,37,31
137880,set_tempo,40,1,0,,,,,,,,,,,,1299827,,,,,,,
137920,set_tempo,40,1,0,,,,,,,,,,,,1313198,,,,,,,
137940,note_on,60,0,2,,,,,,,,,,,,,,,0,,,37,0
137960,set_tempo,40,1,0,,,,,,,,,,,,1327140,,,,,,,
138000,set_tempo,40,1,0,,,,,,,,,,,,1341082,,,,,,,
138000,note_on,60,0,2,,,,,,,,,,,,,,,0,,,37,31
138040,set_tempo,40,1,0,,,,,,,,,,,,1355626,,,,,,,
138060,note_on,60,0,2,,,,,,,,,,,,,,,0,,,37,0
138080,set_tempo,40,1,0,,,,,,,,,,,,1370489,,,,,,,
138120,note_on,360,0,1,,,,,,,,,,,,,,,0,,,73,0
138120,note_on,0,0,1,,,,,,,,,,,,,,,0,,,69,0
138120,note_on,0,0,1,,,,,,,,,,,,,,,0,,,66,28
138120,note_on,0,0,1,,,,,,,,,,,,,,,0,,,69,34
138120,note_on,60,0,2,,,,,,,,,,,,,,,0,,,36,31
138120,set_tempo,40,1,0,,,,,,,,,,,,1385361,,,,,,,
138160,set_tempo,40,1,0,,,,,,,,,,,,1400887,,,,,,,
138180,note_on,60,0,2,,,,,,,,,,,,,,,0,,,36,0
138200,set_tempo,40,1,0,,,,,,,,,,,,1432665,,,,,,,
138240,note_on,0,0,1,,,,,,,,,,,,,,,0,,,66,0
138240,note_on,0,0,1,,,,,,,,,,,,,,,0,,,68,44
138240,note_on,120,0,1,,,,,,,,,,,,,,,0,,,69,0
138240,note_on,0,0,1,,,,,,,,,,,,,,,0,,,64,36
138240,note_on,60,0,2,,,,,,,,,,,,,,,0,,,37,31
138240,set_tempo,40,1,0,,,,,,,,,,,,1327140,,,,,,,
138282,control_change,42,0,2,,,,,,,,,,,,,,,0,64,127,,
138360,note_on,78,0,2,,,,,,,,,,,,,,,0,,,37,0
138480,set_tempo,240,1,0,,,,,,,,,,,,1223990,,,,,,,
138480,note_on,120,0,2,,,,,,,,,,,,,,,0,,,49,27
138720,note_on,0,0,2,,,,,,,,,,,,,,,0,,,61,32
138720,note_on,240,0,2,,,,,,,,,,,,,,,0,,,49,0
138960,note_on,720,0,1,,,,,,,,,,,,,,,0,,,73,33
138960,note_on,240,0,2,,,,,,,,,,,,,,,0,,,61,0
138960,set_tempo,480,1,0,,,,,,,,,,,,1278500,,,,,,,
139200,note_on,240,0,1,,,,,,,,,,,,,,,0,,,73,0
139200,set_tempo,240,1,0,,,,,,,,,,,,1286449,,,,,,,
139214,control_change,254,0,2,,,,,,,,,,,,,,,0,64,0,,
139280,set_tempo,80,1,0,,,,,,,,,,,,1299827,,,,,,,
139320,set_tempo,40,1,0,,,,,,,,,,,,1313198,,,,,,,
139320,note_on,106,0,2,,,,,,,,,,,,,,,0,,,37,32
139380,note_on,60,0,2,,,,,,,,,,,,,,,0,,,37,0
139400,set_tempo,80,1,0,,,,,,,,,,,,1327140,,,,,,,
139440,set_tempo,40,1,0,,,,,,,,,,,,1341082,,,,,,,
139440,note_on,60,0,2,,,,,,,,,,,,,,,0,,,37,32
139440,note_on,240,0,1,,,,,,,,,,,,,,,0,,,68,0
139440,note_on,0,0,1,,,,,,,,,,,,,,,0,,,64,0
139440,note_on,0,0,1,,,,,,,,,,,,,,,0,,,64,40
139440,note_on,0,0,1,,,,,,,,,,,,,,,0,,,68,49
139480,set_tempo,40,1,0,,,,,,,,,,,,1355626,,,,,,,
139500,note_on,60,0,2,,,,,,,,,,,,,,,0,,,37,0
139560,set_tempo,80,1,0,,,,,,,,,,,,1370489,,,,,,,
139560,note_on,60,0,2,,,,,,,,,,,,,,,0,,,40,32
139600,set_tempo,40,1,0,,,,,,,,,,,,1385361,,,,,,,
139620,note_on,60,0,2,,,,,,,,,,,,,,,0,,,40,0
139640,set_tempo,40,1,0,,,,,,,,,,,,1400887,,,,,,,
139680,note_on,0,0,1,,,,,,,,,,,,,,,0,,,64,0
139680,note_on,0,0,1,,,,,,,,,,,,,,,0,,,64,50
139680,set_tempo,40,1,0,,,,,,,,,,,,1200720,,,,,,,
139680,note_on,0,0,1,,,,,,,,,,,,,,,0,,,73,59
139680,note_on,60,0,2,,,,,,,,,,,,,,,0,,,32,34
139680,note_on,240,0,1,,,,,,,,,,,,,,,0,,,68,0
139680,note_on,0,0,1,,,,,,,,,,,,,,,0,,,69,50
139703,control_change,23,0,2,,,,,,,,,,,,,,,0,64,127,,
139800,note_on,97,0,2,,,,,,,,,,,,,,,0,,,32,0
139920,note_on,120,0,2,,,,,,,,,,,,,,,0,,,44,42
139920,set_tempo,240,1,0,,,,,,,,,,,,1223990,,,,,,,
140040,note_on,0,0,1,,,,,,,,,,,,,,,0,,,69,0
140040,note_on,0,0,1,,,,,,,,,,,,,,,0,,,64,0
140040,note_on,0,0,1,,,,,,,,,,,,,,,0,,,68,44
140040,note_on,0,0,1,,,,,,,,,,,,,,,0,,,72,52
140040,note_on,360,0,1,,,,,,,,,,,,,,,0,,,73,0
140040,note_on,0,0,1,,,,,,,,,,,,,,,0,,,63,44
140160,note_on,240,0,2,,,,,,,,,,,,,,,0,,,44,0
140160,note_on,0,0,2,,,,,,,,,,,,,,,0,,,56,48
140160,note_on,0,0,1,,,,,,,,,,,,,,,0,,,72,58
140160,note_on,120,0,1,,,,,,,,,,,,,,,0,,,72,0
140160,note_on,0,0,1,,,,,,,,,,,,,,,0,,,68,49
140160,note_on,0,0,1,,,,,,,,,,,,,,,0,,,63,49
140160,note_on,0,0,1,,,,,,,,,,,,,,,0,,,63,0
140160,note_on,0,0,1,,,,,,,,,,,,,,,0,,,68,0
140400,set_tempo,480,1,0,,,,,,,,,,,,1266892,,,,,,,
140400,note_on,240,0,1,,,,,,,,,,,,,,,0,,,80,50
140400,note_on,240,0,2,,,,,,,,,,,,,,,0,,,56,0
140640,set_tempo,240,1,0,,,,,,,,,,,,1273615,,,,,,,
140640,note_on,240,0,1,,,,,,,,,,,,,,,0,,,80,0
140654,control_change,254,0,2,,,,,,,,,,,,,,,0,64,0,,
140696,control_change,42,0,2,,,,,,,,,,,,,,,0,64,127,,
140760,note_on,64,0,2,,,,,,,,,,,,,,,0,,,32,36
140760,set_tempo,120,1,0,,,,,,,,,,,,1286449,,,,,,,
140820,note_on,60,0,2,,,,,,,,,,,,,,,0,,,32,0
140880,note_on,60,0,2,,,,,,,,,,,,,,,0,,,32,36
140880,note_on,240,0,1,,,,,,,,,,,,,,,0,,,63,0
140880,note_on,0,0,1,,,,,,,,,,,,,,,0,,,68,0
140880,note_on,0,0,1,,,,,,,,,,,,,,,0,,,68,51
140880,note_on,0,0,1,,,,,,,,,,,,,,,0,,,72,0
140880,note_on,0,0,1,,,,,,,,,,,,,,,0,,,72,62
140880,set_tempo,120,1,0,,,,,,,,,,,,1299827,,,,,,,
140940,note_on,60,0,2,,,,,,,,,,,,,,,0,,,32,0
141000,set_tempo,120,1,0,,,,,,,,,,,,1313198,,,,,,,
141000,note_on,60,0,2,,,,,,,,,,,,,,,0,,,31,36
141060,note_on,60,0,2,,,,,,,,,,,,,,,0,,,31,0
141080,set_tempo,80,1,0,,,,,,,,,,,,1327140,,,,,,,
141120,set_tempo,40,1,0,,,,,,,,,,,,1189296,,,,,,,
141120,note_on,240,0,1,,,,,,,,,,,,,,,0,,,72,0
141120,note_on,0,0,1,,,,,,,,,,,,,,,0,,,76,67
141120,note_on,0,0,1,,,,,,,,,,,,,,,0,,,73,57
141120,note_on,0,0,1,,,,,,,,,,,,,,,0,,,67,57
141120,note_on,0,0,1,,,,,,,,,,,,,,,0,,,68,0
141120,note_on,60,0,2,,,,,,,,,,,,,,,0,,,32,39
141148,control_change,28,0,2,,,,,,,,,,,,,,,0,64,0,,
141154,control_change,6,0,2,,,,,,,,,,,,,,,0,64,127,,
141240,note_on,86,0,2,,,,,,,,,,,,,,,0,,,32,0
141360,set_tempo,240,1,0,,,,,,,,,,,,1223990,,,,,,,
141360,note_on,120,0,2,,,,,,,,,,,,,,,0,,,44,48
141480,note_on,0,0,1,,,,,,,,,,,,,,,0,,,68,50
141480,note_on,0,0,1,,,,,,,,,,,,,,,0,,,67,0
141480,note_on,0,0,1,,,,,,,,,,,,,,,0,,,73,0
141480,note_on,360,0,1,,,,,,,,,,,,,,,0,,,76,0
141480,note_on,0,0,1,,,,,,,,,,,,,,,0,,,72,50
141480,note_on,0,0,1,,,,,,,,,,,,,,,0,,,75,59
141600,note_on,0,0,1,,,,,,,,,,,,,,,0,,,75,66
141600,note_on,0,0,1,,,,,,,,,,,,,,,0,,,72,56
141600,note_on,0,0,1,,,,,,,,,,,,,,,0,,,68,56
141600,note_on,0,0,1,,,,,,,,,,,,,,,0,,,68,0
141600,note_on,0,0,1,,,,,,,,,,,,,,,0,,,72,0
141600,note_on,120,0,1,,,,,,,,,,,,,,,0,,,75,0
141600,note_on,0,0,2,,,,,,,,,,,,,,,0,,,56,55
141600,note_on,240,0,2,,,,,,,,,,,,,,,0,,,44,0
141840,set_tempo,480,1,0,,,,,,,,,,,,1278500,,,,,,,
141840,note_on,240,0,2,,,,,,,,,,,,,,,0,,,56,0
141840,note_on,240,0,1,,,,,,,,,,,,,,,0,,,80,58
142080,note_on,240,0,1,,,,,,,,,,,,,,,0,,,80,0
142094,control_change,254,0,2,,,,,,,,,,,,,,,0,64,0,,
142136,control_change,42,0,2,,,,,,,,,,,,,,,0,64,127,,
142200,note_on,64,0,2,,,,,,,,,,,,,,,0,,,32,38
142260,note_on,60,0,2,,,,,,,,,,,,,,,0,,,32,0
142320,note_on,0,0,1,,,,,,,,,,,,,,,0,,,75,68
142320,note_on,0,0,1,,,,,,,,,,,,,,,0,,,68,56
142320,note_on,0,0,1,,,,,,,,,,,,,,,0,,,72,0
142320,note_on,240,0,1,,,,,,,,,,,,,,,0,,,68,0
142320,note_on,0,0,1,,,,,,,,,,,,,,,0,,,72,56
142320,note_on,0,0,1,,,,,,,,,,,,,,,0,,,75,0
142320,set_tempo,480,1,0,,,,,,,,,,,,1314924,,,,,,,
142320,note_on,60,0,2,,,,,,,,,,,,,,,0,,,32,38
142380,note_on,60,0,2,,,,,,,,,,,,,,,0,,,32,0
142440,note_on,60,0,2,,,,,,,,,,,,,,,0,,,31,38
142500,note_on,60,0,2,,,,,,,,,,,,,,,0,,,31,0
142560,set_tempo,240,1,0,,,,,,,,,,,,1232792,,,,,,,
142560,note_on,60,0,2,,,,,,,,,,,,,,,0,,,32,42
142560,note_on,240,0,1,,,,,,,,,,,,,,,0,,,75,0
142560,note_on,0,0,1,,,,,,,,,,,,,,,0,,,72,0
142560,note_on,0,0,1,,,,,,,,,,,,,,,0,,,68,0
142560,note_on,0,0,1,,,,,,,,,,,,,,,0,,,68,62
142560,note_on,0,0,1,,,,,,,,,,,,,,,0,,,80,73
142560,note_on,0,0,1,,,,,,,,,,,,,,,0,,,76,62
142588,control_change,28,0,2,,,,,,,,,,,,,,,0,64,0,,
142594,control_change,6,0,2,,,,,,,,,,,,,,,0,64,127,,
142680,note_on,86,0,2,,,,,,,,,,,,,,,0,,,32,0
142800,note_on,120,0,2,,,,,,,,,,,,,,,0,,,44,52
142920,note_on,0,0,1,,,,,,,,,,,,,,,0,,,78,64
142920,note_on,0,0,1,,,,,,,,,,,,,,,0,,,75,55
142920,note_on,0,0,1,,,,,,,,,,,,,,,0,,,69,55
142920,note_on,0,0,1,,,,,,,,,,,,,,,0,,,68,0
142920,note_on,0,0,1,,,,,,,,,,,,,,,0,,,76,0
142920,note_on,360,0,1,,,,,,,,,,,,,,,0,,,80,0
143040,note_on,0,0,2,,,,,,,,,,,,,,,0,,,56,60
143040,note_on,240,0,2,,,,,,,,,,,,,,,0,,,44,0
143040,note_on,0,0,1,,,,,,,,,,,,,,,0,,,78,72
143040,note_on,0,0,1,,,,,,,,,,,,,,,0,,,69,61
143040,note_on,0,0,1,,,,,,,,,,,,,,,0,,,75,61
143040,note_on,120,0,1,,,,,,,,,,,,,,,0,,,78,0
143040,note_on,0,0,1,,,,,,,,,,,,,,,0,,,75,0
143040,note_on,0,0,1,,,,,,,,,,,,,,,0,,,69,0
143280,note_on,240,0,1,,,,,,,,,,,,,,,0,,,80,63
143280,set_tempo,720,1,0,,,,,,,,,,,,1278500,,,,,,,
143280,note_on,240,0,2,,,,,,,,,,,,,,,0,,,56,0
143520,note_on,240,0,1,,,,,,,,,,,,,,,0,,,80,0
143534,control_change,254,0,2,,,,,,,,,,,,,,,0,64,0,,
143576,control_change,42,0,2,,,,,,,,,,,,,,,0,64,127,,
143640,note_on,64,0,2,,,,,,,,,,,,,,,0,,,32,43
143700,note_on,60,0,2,,,,,,,,,,,,,,,0,,,32,0
143760,note_on,60,0,2,,,,,,,,,,,,,,,0,,,32,43
143760,note_on,0,0,1,,,,,,,,,,,,,,,0,,,78,0
143760,set_tempo,480,1,0,,,,,,,,,,,,1363636,,,,,,,
143760,note_on,240,0,1,,,,,,,,,,,,,,,0,,,69,0
143760,note_on,0,0,1,,,,,,,,,,,,,,,0,,,75,61
143760,note_on,0,0,1,,,,,,,,,,,,,,,0,,,69,61
143760,note_on,0,0,1,,,,,,,,,,,,,,,0,,,75,0
143760,note_on,0,0,1,,,,,,,,,,,,,,,0,,,78,74
143800,set_tempo,40,1,0,,,,,,,,,,,,1428571,,,,,,,
143820,note_on,60,0,2,,,,,,,,,,,,,,,0,,,32,0
143840,set_tempo,40,1,0,,,,,,,,,,,,1500000,,,,,,,
143880,set_tempo,40,1,0,,,,,,,,,,,,1600000,,,,,,,
143880,note_on,60,0,2,,,,,,,,,,,,,,,0,,,31,43
143940,note_on,60,0,2,,,,,,,,,,,,,,,0,,,31,0
144000,set_tempo,120,1,0,,,,,,,,,,,,1232792,,,,,,,
144000,note_on,0,0,2,,,,,,,,,,,,,,,0,,,32,46
144000,control_change,60,0,2,,,,,,,,,,,,,,,0,64,0,,
144000,note_on,240,0,1,,,,,,,,,,,,,,,0,,,78,0
144000,note_on,0,0,1,,,,,,,,,,,,,,,0,,,75,0
144000,note_on,0,0,1,,,,,,,,,,,,,,,0,,,69,0
144000,note_on,0,0,1,,,,,,,,,,,,,,,0,,,73,68
144000,note_on,0,0,1,,,,,,,,,,,,,,,0,,,76,68
144000,note_on,0,0,1,,,,,,,,,,,,,,,0,,,81,80
144031,control_change,31,0,2,,,,,,,,,,,,,,,0,64,127,,
144120,note_on,89,0,2,,,,,,,,,,,,,,,0,,,32,0
144240,note_on,120,0,2,,,,,,,,,,,,,,,0,,,44,52
144360,note_on,0,0,1,,,,,,,,,,,,,,,0,,,76,0
144360,note_on,0,0,1,,,,,,,,,,,,,,,0,,,73,0
144360,note_on,0,0,1,,,,,,,,,,,,,,,0,,,72,60
144360,note_on,0,0,1,,,,,,,,,,,,,,,0,,,75,60
144360,note_on,0,0,1,,,,,,,,,,,,,,,0,,,80,70
144360,note_on,360,0,1,,,,,,,,,,,,,,,0,,,81,0
144480,note_on,120,0,1,,,,,,,,,,,,,,,0,,,80,0
144480,note_on,0,0,1,,,,,,,,,,,,,,,0,,,75,0
144480,note_on,0,0,1,,,,,,,,,,,,,,,0,,,72,0
144480,note_on,0,0,1,,,,,,,,,,,,,,,0,,,72,67
144480,note_on,0,0,1,,,,,,,,,,,,,,,0,,,75,67
144480,note_on,240,0,2,,,,,,,,,,,,,,,0,,,44,0
144480,note_on,0,0,1,,,,,,,,,,,,,,,0,,,80,79
144480,note_on,0,0,2,,,,,,,,,,,,,,,0,,,56,60
144720,note_on,240,0,2,,,,,,,,,,,,,,,0,,,56,0
144720,note_on,0,0,2,,,,,,,,,,,,,,,0,,,68,59
144720,set_tempo,720,1,0,,,,,,,,,,,,1266892,,,,,,,
144840,note_on,120,0,2,,,,,,,,,,,,,,,0,,,68,0
144960,set_tempo,240,1,0,,,,,,,,,,,,1299827,,,,,,,
145080,note_on,240,0,2,,,,,,,,,,,,,,,0,,,32,36
145091,control_change,11,0,2,,,,,,,,,,,,,,,0,64,0,,
145109,control_change,18,0,2,,,,,,,,,,,,,,,0,64,127,,
145140,note_on,31,0,2,,,,,,,,,,,,,,,0,,,32,0
145200,note_on,60,0,2,,,,,,,,,,,,,,,0,,,32,36
145260,note_on,60,0,2,,,,,,,,,,,,,,,0,,,32,0
145320,note_on,60,0,2,,,,,,,,,,,,,,,0,,,31,36
145380,note_on,60,0,2,,,,,,,,,,,,,,,0,,,31,0
145440,control_change,60,0,2,,,,,,,,,,,,,,,0,64,0,,
145440,note_on,0,0,2,,,,,,,,,,,,,,,0,,,32,36
145480,set_tempo,520,1,0,,,,,,,,,,,,1244039,,,,,,,
145539,control_change,99,0,2,,,,,,,,,,,,,,,0,64,127,,
145560,note_on,21,0,2,,,,,,,,,,,,,,,0,,,32,0
145680,note_on,120,0,2,,,,,,,,,,,,,,,0,,,44,39
145920,note_on,240,0,2,,,,,,,,,,,,,,,0,,,44,0
145920,note_on,0,0,2,,,,,,,,,,,,,,,0,,,56,44
146160,note_on,0,0,2,,,,,,,,,,,,,,,0,,,68,41
146160,set_tempo,680,1,0,,,,,,,,,,,,1290045,,,,,,,
146160,note_on,240,0,2,,,,,,,,,,,,,,,0,,,56,0
146280,note_on,120,0,2,,,,,,,,,,,,,,,0,,,68,0
146400,set_tempo,240,1,0,,,,,,,,,,,,1341082,,,,,,,
146880,note_on,0,0,1,,,,,,,,,,,,,,,0,,,76,41
146880,note_on,0,0,1,,,,,,,,,,,,,,,0,,,79,49
146880,note_on,0,0,1,,,,,,,,,,,,,,,0,,,72,0
146880,set_tempo,480,1,0,,,,,,,,,,,,1232792,,,,,,,
146880,note_on,0,0,1,,,,,,,,,,,,,,,0,,,75,0
146880,note_on,2400,0,1,,,,,,,,,,,,,,,0,,,80,0
146880,note_on,0,0,2,,,,,,,,,,,,,,,0,,,36,31
146880,note_on,0,0,1,,,,,,,,,,,,,,,0,,,72,41
146880,control_change,600,0,2,,,,,,,,,,,,,,,0,64,0,,
146954,control_change,74,0,2,,,,,,,,,,,,,,,0,64,127,,
147120,note_on,0,0,2,,,,,,,,,,,,,,,0,,,48,27
147120,note_on,166,0,2,,,,,,,,,,,,,,,0,,,36,0
147360,note_on,0,0,2,,,,,,,,,,,,,,,0,,,60,29
147360,note_on,240,0,2,,,,,,,,,,,,,,,0,,,48,0
147600,set_tempo,720,1,0,,,,,,,,,,,,1278500,,,,,,,
147600,note_on,0,0,2,,,,,,,,,,,,,,,0,,,64,30
147600,note_on,240,0,2,,,,,,,,,,,,,,,0,,,60,0
147720,note_on,120,0,2,,,,,,,,,,,,,,,0,,,64,0
147840,set_tempo,240,1,0,,,,,,,,,,,,1327140,,,,,,,
147854,control_change,134,0,2,,,,,,,,,,,,,,,0,64,0,,
147960,note_on,106,0,2,,,,,,,,,,,,,,,0,,,36,30
147960,set_tempo,120,1,0,,,,,,,,,,,,1341082,,,,,,,
148020,note_on,60,0,2,,,,,,,,,,,,,,,0,,,36,0
148040,set_tempo,80,1,0,,,,,,,,,,,,1355626,,,,,,,
148080,note_on,0,0,1,,,,,,,,,,,,,,,0,,,72,0
148080,note_on,0,0,1,,,,,,,,,,,,,,,0,,,72,36
148080,note_on,0,0,1,,,,,,,,,,,,,,,0,,,79,36
148080,note_on,60,0,2,,,,,,,,,,,,,,,0,,,38,30
148080,note_on,0,0,1,,,,,,,,,,,,,,,0,,,84,44
148080,note_on,0,0,1,,,,,,,,,,,,,,,0,,,76,0
148080,note_on,1200,0,1,,,,,,,,,,,,,,,0,,,79,0
148120,set_tempo,80,1,0,,,,,,,,,,,,1370489,,,,,,,
148140,note_on,60,0,2,,,,,,,,,,,,,,,0,,,38,0
148200,note_on,60,0,2,,,,,,,,,,,,,,,0,,,40,30
148200,set_tempo,80,1,0,,,,,,,,,,,,1385361,,,,,,,
148260,note_on,60,0,2,,,,,,,,,,,,,,,0,,,40,0
148280,set_tempo,80,1,0,,,,,,,,,,,,1400887,,,,,,,
148320,note_on,0,0,1,,,,,,,,,,,,,,,0,,,79,0
148320,note_on,0,0,1,,,,,,,,,,,,,,,0,,,72,0
148320,note_on,0,0,1,,,,,,,,,,,,,,,0,,,72,41
148320,note_on,0,0,1,,,,,,,,,,,,,,,0,,,77,41
148320,note_on,0,0,1,,,,,,,,,,,,,,,0,,,83,49
148320,note_on,60,0,2,,,,,,,,,,,,,,,0,,,29,31
148320,set_tempo,40,1,0,,,,,,,,,,,,1232792,,,,,,,
148320,note_on,240,0,1,,,,,,,,,,,,,,,0,,,84,0
148394,control_change,74,0,2,,,,,,,,,,,,,,,0,64,127,,
148560,note_on,166,0,2,,,,,,,,,,,,,,,0,,,29,0
148560,note_on,0,0,2,,,,,,,,,,,,,,,0,,,41,27
148680,note_on,0,0,1,,,,,,,,,,,,,,,0,,,81,49
148680,note_on,360,0,1,,,,,,,,,,,,,,,0,,,83,0
148800,note_on,240,0,2,,,,,,,,,,,,,,,0,,,41,0
148800,note_on,0,0,2,,,,,,,,,,,,,,,0,,,53,31
148800,note_on,0,0,1,,,,,,,,,,,,,,,0,,,77,0
148800,note_on,120,0,1,,,,,,,,,,,,,,,0,,,81,0
148800,note_on,0,0,1,,,,,,,,,,,,,,,0,,,81,49
148800,note_on,0,0,1,,,,,,,,,,,,,,,0,,,77,40
148800,note_on,0,0,1,,,,,,,,,,,,,,,0,,,72,40
148800,note_on,0,0,1,,,,,,,,,,,,,,,0,,,72,0
149040,set_tempo,720,1,0,,,,,,,,,,,,1278500,,,,,,,
149040,note_on,240,0,2,,,,,,,,,,,,,,,0,,,53,0
149040,note_on,0,0,2,,,,,,,,,,,,,,,0,,,65,30
149160,note_on,120,0,2,,,,,,,,,,,,,,,0,,,65,0
149280,set_tempo,240,1,0,,,,,,,,,,,,1260769,,,,,,,
149294,control_change,134,0,2,,,,,,,,,,,,,,,0,64,0,,
149360,set_tempo,80,1,0,,,,,,,,,,,,1273615,,,,,,,
149400,note_on,106,0,2,,,,,,,,,,,,,,,0,,,38,30
149400,set_tempo,40,1,0,,,,,,,,,,,,1286449,,,,,,,
149460,note_on,60,0,2,,,,,,,,,,,,,,,0,,,38,0
149480,set_tempo,80,1,0,,,,,,,,,,,,1299827,,,,,,,
149520,set_tempo,40,1,0,,,,,,,,,,,,1313198,,,,,,,
149520,note_on,720,0,1,,,,,,,,,,,,,,,0,,,81,0
149520,note_on,0,0,1,,,,,,,,,,,,,,,0,,,77,0
149520,note_on,60,0,2,,,,,,,,,,,,,,,0,,,40,30
149520,note_on,0,0,1,,,,,,,,,,,,,,,0,,,72,0
149520,note_on,0,0,1,,,,,,,,,,,,,,,0,,,81,43
149520,note_on,0,0,1,,,,,,,,,,,,,,,0,,,72,36
149520,note_on,0,0,1,,,,,,,,,,,,,,,0,,,76,36
149580,note_on,60,0,2,,,,,,,,,,,,,,,0,,,40,0
149600,set_tempo,80,1,0,,,,,,,,,,,,1327140,,,,,,,
149640,note_on,60,0,2,,,,,,,,,,,,,,,0,,,41,30
149640,set_tempo,40,1,0,,,,,,,,,,,,1341082,,,,,,,
149680,set_tempo,40,1,0,,,,,,,,,,,,1355626,,,,,,,
149700,note_on,60,0,2,,,,,,,,,,,,,,,0,,,41,0
149720,set_tempo,40,1,0,,,,,,,,,,,,1400887,,,,,,,
149760,note_on,240,0,1,,,,,,,,,,,,,,,0,,,76,0
149760,note_on,0,0,1,,,,,,,,,,,,,,,0,,,72,0
149760,note_on,0,0,1,,,,,,,,,,,,,,,0,,,81,0
149760,note_on,0,0,1,,,,,,,,,,,,,,,0,,,72,41
149760,note_on,0,0,1,,,,,,,,,,,,,,,0,,,81,49
149760,note_on,0,0,1,,,,,,,,,,,,,,,0,,,74,41
149760,note_on,60,0,2,,,,,,,,,,,,,,,0,,,31,31
149760,set_tempo,40,1,0,,,,,,,,,,,,1232792,,,,,,,
149834,control_change,74,0,2,,,,,,,,,,,,,,,0,64,127,,
150000,note_on,166,0,2,,,,,,,,,,,,,,,0,,,31,0
150000,note_on,0,0,2,,,,,,,,,,,,,,,0,,,43,27
150120,note_on,0,0,1,,,,,,,,,,,,,,,0,,,79,49
150120,note_on,0,0,1,,,,,,,,,,,,,,,0,,,71,45
150120,note_on,0,0,1,,,,,,,,,,,,,,,0,,,72,0
150120,note_on,360,0,1,,,,,,,,,,,,,,,0,,,81,0
150240,note_on,0,0,2,,,,,,,,,,,,,,,0,,,55,32
150240,note_on,240,0,2,,,,,,,,,,,,,,,0,,,43,0
150240,note_on,120,0,1,,,,,,,,,,,,,,,0,,,79,0
150240,note_on,0,0,1,,,,,,,,,,,,,,,0,,,71,0
150240,note_on,0,0,1,,,,,,,,,,,,,,,0,,,71,40
150240,note_on,0,0,1,,,,,,,,,,,,,,,0,,,74,40
150240,note_on,0,0,1,,,,,,,,,,,,,,,0,,,79,49
150240,note_on,0,0,1,,,,,,,,,,,,,,,0,,,74,0
150480,set_tempo,720,1,0,,,,,,,,,,,,1278500,,,,,,,
150480,note_on,240,0,2,,,,,,,,,,,,,,,0,,,55,0
150480,note_on,0,0,2,,,,,,,,,,,,,,,0,,,67,33
150600,note_on,120,0,2,,,,,,,,,,,,,,,0,,,67,0
150720,set_tempo,240,1,0,,,,,,,,,,,,1273615,,,,,,,
150734,control_change,134,0,2,,,,,,,,,,,,,,,0,64,0,,
150800,set_tempo,80,1,0,,,,,,,,,,,,1286449,,,,,,,
150840,note_on,106,0,2,,,,,,,,,,,,,,,0,,,31,30
150880,set_tempo,80,1,0,,,,,,,,,,,,1299827,,,,,,,
150900,note_on,60,0,2,,,,,,,,,,,,,,,0,,,31,0
150920,set_tempo,40,1,0,,,,,,,,,,,,1313198,,,,,,,
150960,note_on,60,0,2,,,,,,,,,,,,,,,0,,,33,30
150960,note_on,0,0,1,,,,,,,,,,,,,,,0,,,77,41
150960,note_on,0,0,1,,,,,,,,,,,,,,,0,,,72,34
150960,note_on,0,0,1,,,,,,,,,,,,,,,0,,,69,34
150960,note_on,0,0,1,,,,,,,,,,,,,,,0,,,71,0
150960,note_on,0,0,1,,,,,,,,,,,,,,,0,,,74,0
150960,note_on,720,0,1,,,,,,,,,,,,,,,0,,,79,0
151000,set_tempo,80,1,0,,,,,,,,,,,,1327140,,,,,,,
151020,note_on,60,0,2,,,,,,,,,,,,,,,0,,,33,0
151040,set_tempo,40,1,0,,,,,,,,,,,,1341082,,,,,,,
151080,note_on,60,0,2,,,,,,,,,,,,,,,0,,,35,30
151120,set_tempo,80,1,0,,,,,,,,,,,,1355626,,,,,,,
151140,note_on,60,0,2,,,,,,,,,,,,,,,0,,,35,0
151160,set_tempo,40,1,0,,,,,,,,,,,,1370489,,,,,,,
151200,note_on,0,0,1,,,,,,,,,,,,,,,0,,,72,0
151200,note_on,0,0,1,,,,,,,,,,,,,,,0,,,69,0
151200,set_tempo,40,1,0,,,,,,,,,,,,1232792,,,,,,,
151200,note_on,240,0,1,,,,,,,,,,,,,,,0,,,77,0
151200,note_on,60,0,2,,,,,,,,,,,,,,,0,,,36,31
151200,note_on,0,0,1,,,,,,,,,,,,,,,0,,,67,34
151200,note_on,0,0,1,,,,,,,,,,,,,,,0,,,72,34
151200,note_on,0,0,1,,,,,,,,,,,,,,,0,,,76,40
151235,control_change,35,0,2,,,,,,,,,,,,,,,0,64,127,,
151440,note_on,205,0,2,,,,,,,,,,,,,,,0,,,36,0
151440,set_tempo,240,1,0,,,,,,,,,,,,1278500,,,,,,,
151440,note_on,0,0,2,,,,,,,,,,,,,,,0,,,48,27
151680,note_on,0,0,1,,,,,,,,,,,,,,,0,,,72,0
151680,note_on,0,0,1,,,,,,,,,,,,,,,0,,,67,0
151680,note_on,0,0,2,,,,,,,,,,,,,,,0,,,60,32
151680,note_on,0,0,1,,,,,,,,,,,,,,,0,,,72,36
151680,note_on,0,0,1,,,,,,,,,,,,,,,0,,,67,30
151680,note_on,0,0,1,,,,,,,,,,,,,,,0,,,64,30
151680,note_on,480,0,1,,,,,,,,,,,,,,,0,,,76,0
151680,note_on,240,0,2,,,,,,,,,,,,,,,0,,,48,0
151920,note_on,240,0,2,,,,,,,,,,,,,,,0,,,60,0
151920,note_on,240,0,1,,,,,,,,,,,,,,,0,,,84,35
152040,note_on,120,0,1,,,,,,,,,,,,,,,0,,,84,0
152160,set_tempo,720,1,0,,,,,,,,,,,,1286449,,,,,,,
152197,control_change,277,0,2,,,,,,,,,,,,,,,0,64,0,,
152280,note_on,83,0,2,,,,,,,,,,,,,,,0,,,36,30
152320,set_tempo,160,1,0,,,,,,,,,,,,1299827,,,,,,,
152340,note_on,60,0,2,,,,,,,,,,,,,,,0,,,36,0
152400,note_on,60,0,2,,,,,,,,,,,,,,,0,,,36,30
152460,note_on,60,0,2,,,,,,,,,,,,,,,0,,,36,0
152480,set_tempo,160,1,0,,,,,,,,,,,,1313198,,,,,,,
152520,note_on,60,0,2,,,,,,,,,,,,,,,0,,,38,30
152580,note_on,60,0,2,,,,,,,,,,,,,,,0,,,38,0
152600,set_tempo,120,1,0,,,,,,,,,,,,1327140,,,,,,,
152640,set_tempo,40,1,0,,,,,,,,,,,,1232792,,,,,,,
152640,note_on,600,0,1,,,,,,,,,,,,,,,0,,,64,0
152640,note_on,0,0,1,,,,,,,,,,,,,,,0,,,72,0
152640,note_on,0,0,1,,,,,,,,,,,,,,,0,,,60,39
152640,note_on,0,0,1,,,,,,,,,,,,,,,0,,,64,47
152640,note_on,0,0,1,,,,,,,,,,,,,,,0,,,67,0
152640,note_on,60,0,2,,,,,,,,,,,,,,,0,,,36,31
152711,control_change,71,0,2,,,,,,,,,,,,,,,0,64,127,,
152880,note_on,169,0,2,,,,,,,,,,,,,,,0,,,36,0
152880,note_on,0,0,2,,,,,,,,,,,,,,,0,,,55,27
153120,note_on,240,0,2,,,,,,,,,,,,,,,0,,,55,0
153120,note_on,0,0,2,,,,,,,,,,,,,,,0,,,67,32
153360,set_tempo,720,1,0,,,,,,,,,,,,1313198,,,,,,,
153360,note_on,720,0,1,,,,,,,,,,,,,,,0,,,79,34
153360,note_on,240,0,2,,,,,,,,,,,,,,,0,,,67,0
153480,note_on,120,0,1,,,,,,,,,,,,,,,0,,,79,0
153600,set_tempo,240,1,0,,,,,,,,,,,,1299827,,,,,,,
153600,note_on,0,0,1,,,,,,,,,,,,,,,0,,,60,0
153600,note_on,120,0,1,,,,,,,,,,,,,,,0,,,64,0
153600,note_on,0,0,1,,,,,,,,,,,,,,,0,,,60,35
153600,note_on,0,0,1,,,,,,,,,,,,,,,0,,,64,41
153628,control_change,268,0,2,,,,,,,,,,,,,,,0,64,0,,
153720,note_on,92,0,2,,,,,,,,,,,,,,,0,,,36,30
153720,set_tempo,120,1,0,,,,,,,,,,,,1313198,,,,,,,
153780,note_on,60,0,2,,,,,,,,,,,,,,,0,,,36,0
153840,note_on,60,0,2,,,,,,,,,,,,,,,0,,,36,30
153840,set_tempo,120,1,0,,,,,,,,,,,,1327140,,,,,,,
153900,note_on,60,0,2,,,,,,,,,,,,,,,0,,,36,0
153960,note_on,0,0,1,,,,,,,,,,,,,,,0,,,62,40
153960,note_on,0,0,1,,,,,,,,,,,,,,,0,,,59,34
153960,note_on,0,0,1,,,,,,,,,,,,,,,0,,,60,0
153960,set_tempo,120,1,0,,,,,,,,,,,,1341082,,,,,,,
153960,note_on,60,0,2,,,,,,,,,,,,,,,0,,,38,30
153960,note_on,360,0,1,,,,,,,,,,,,,,,0,,,64,0
154020,note_on,60,0,2,,,,,,,,,,,,,,,0,,,38,0
154040,set_tempo,80,1,0,,,,,,,,,,,,1355626,,,,,,,
154080,set_tempo,40,1,0,,,,,,,,,,,,1232792,,,,,,,
154080,note_on,0,0,1,,,,,,,,,,,,,,,0,,,59,41
154080,note_on,0,0,1,,,,,,,,,,,,,,,0,,,62,49
154080,note_on,120,0,1,,,,,,,,,,,,,,,0,,,62,0
154080,note_on,0,0,1,,,,,,,,,,,,,,,0,,,59,0
154080,note_on,60,0,2,,,,,,,,,,,,,,,0,,,36,31
154154,control_change,74,0,2,,,,,,,,,,,,,,,0,64,127,,
154320,note_on,0,0,2,,,,,,,,,,,,,,,0,,,55,27
154320,note_on,166,0,2,,,,,,,,,,,,,,,0,,,36,0
154560,note_on,240,0,2,,,,,,,,,,,,,,,0,,,55,0
154560,note_on,0,0,2,,,,,,,,,,,,,,,0,,,67,32
154800,note_on,240,0,2,,,,,,,,,,,,,,,0,,,67,0
154800,note_on,720,0,1,,,,,,,,,,,,,,,0,,,79,33
154800,set_tempo,720,1,0,,,,,,,,,,,,1299827,,,,,,,
154920,note_on,120,0,1,,,,,,,,,,,,,,,0,,,79,0
155040,note_on,0,0,1,,,,,,,,,,,,,,,0,,,59,0
155040,note_on,120,0,1,,,,,,,,,,,,,,,0,,,62,0
155040,note_on,0,0,1,,,,,,,,,,,,,,,0,,,59,37
155040,note_on,0,0,1,,,,,,,,,,,,,,,0,,,62,44
155040,set_tempo,240,1,0,,,,,,,,,,,,1286449,,,,,,,
155054,control_change,254,0,2,,,,,,,,,,,,,,,0,64,0,,
155120,set_tempo,80,1,0,,,,,,,,,,,,1299827,,,,,,,
155160,note_on,106,0,2,,,,,,,,,,,,,,,0,,,36,30
155200,set_tempo,80,1,0,,,,,,,,,,,,1313198,,,,,,,
155220,note_on,60,0,2,,,,,,,,,,,,,,,0,,,36,0
155280,set_tempo,80,1,0,,,,,,,,,,,,1327140,,,,,,,
155280,note_on,60,0,2,,,,,,,,,,,,,,,0,,,36,30
155340,note_on,60,0,2,,,,,,,,,,,,,,,0,,,36,0
155360,set_tempo,80,1,0,,,,,,,,,,,,1341082,,,,,,,
155400,note_on,60,0,2,,,,,,,,,,,,,,,0,,,38,30
155440,set_tempo,80,1,0,,,,,,,,,,,,1355626,,,,,,,
155460,note_on,60,0,2,,,,,,,,,,,,,,,0,,,38,0
155480,set_tempo,40,1,0,,,,,,,,,,,,1370489,,,,,,,
155520,note_on,0,0,1,,,,,,,,,,,,,,,0,,,59,0
155520,note_on,480,0,1,,,,,,,,,,,,,,,0,,,62,0
155520,set_tempo,40,1,0,,,,,,,,,,,,1232792,,,,,,,
155520,note_on,0,0,1,,,,,,,,,,,,,,,0,,,65,49
155520,note_on,0,0,1,,,,,,,,,,,,,,,0,,,57,41
155520,note_on,60,0,2,,,,,,,,,,,,,,,0,,,36,31
155594,control_change,74,0,2,,,,,,,,,,,,,,,0,64,127,,
155760,note_on,0,0,2,,,,,,,,,,,,,,,0,,,55,27
155760,note_on,166,0,2,,,,,,,,,,,,,,,0,,,36,0
156000,note_on,240,0,2,,,,,,,,,,,,,,,0,,,55,0
156000,note_on,0,0,2,,,,,,,,,,,,,,,0,,,67,32
156240,note_on,240,0,2,,,,,,,,,,,,,,,0,,,67,0
156240,set_tempo,720,1,0,,,,,,,,,,,,1278500,,,,,,,
156240,note_on,720,0,1,,,,,,,,,,,,,,,0,,,79,34
156360,note_on,120,0,1,,,,,,,,,,,,,,,0,,,79,0
156480,note_on,0,0,1,,,,,,,,,,,,,,,0,,,65,39
156480,note_on,0,0,1,,,,,,,,,,,,,,,0,,,59,33
156480,note_on,0,0,1,,,,,,,,,,,,,,,0,,,57,0
156480,set_tempo,240,1,0,,,,,,,,,,,,1286449,,,,,,,
156480,note_on,120,0,1,,,,,,,,,,,,,,,0,,,65,0
156494,control_change,254,0,2,,,,,,,,,,,,,,,0,64,0,,
156600,note_on,106,0,2,,,,,,,,,,,,,,,0,,,36,30
156600,set_tempo,120,1,0,,,,,,,,,,,,1299827,,,,,,,
156600,note_on,120,0,1,,,,,,,,,,,,,,,0,,,59,0
156600,note_on,0,0,1,,,,,,,,,,,,,,,0,,,62,29
156660,note_on,60,0,2,,,,,,,,,,,,,,,0,,,36,0
156680,set_tempo,80,1,0,,,,,,,,,,,,1313198,,,,,,,
156720,note_on,60,0,2,,,,,,,,,,,,,,,0,,,36,30
156720,note_on,120,0,1,,,,,,,,,,,,,,,0,,,62,0
156720,note_on,0,0,1,,,,,,,,,,,,,,,0,,,65,0
156720,note_on,0,0,1,,,,,,,,,,,,,,,0,,,60,30
156720,note_on,0,0,1,,,,,,,,,,,,,,,0,,,64,36
156760,set_tempo,80,1,0,,,,,,,,,,,,1327140,,,,,,,
156780,note_on,60,0,2,,,,,,,,,,,,,,,0,,,36,0
156840,set_tempo,80,1,0,,,,,,,,,,,,1341082,,,,,,,
156840,note_on,120,0,1,,,,,,,,,,,,,,,0,,,64,0
156840,note_on,60,0,2,,,,,,,,,,,,,,,0,,,38,30
156840,note_on,0,0,1,,,,,,,,,,,,,,,0,,,62,34
156840,note_on,0,0,1,,,,,,,,,,,,,,,0,,,59,28
156840,note_on,0,0,1,,,,,,,,,,,,,,,0,,,60,0
156900,note_on,60,0,2,,,,,,,,,,,,,,,0,,,38,0
156920,set_tempo,80,1,0,,,,,,,,,,,,1355626,,,,,,,
156960,note_on,60,0,2,,,,,,,,,,,,,,,0,,,36,31
156960,note_on,0,0,1,,,,,,,,,,,,,,,0,,,59,0
156960,note_on,120,0,1,,,,,,,,,,,,,,,0,,,62,0
156960,set_tempo,40,1,0,,,,,,,,,,,,1232792,,,,,,,
156960,note_on,0,0,1,,,,,,,,,,,,,,,0,,,60,39
156960,note_on,0,0,1,,,,,,,,,,,,,,,0,,,64,47
157013,control_change,53,0,2,,,,,,,,,,,,,,,0,64,127,,
157200,note_on,0,0,2,,,,,,,,,,,,,,,0,,,55,27
157200,note_on,187,0,2,,,,,,,,,,,,,,,0,,,36,0
157440,note_on,0,0,2,,,,,,,,,,,,,,,0,,,67,32
157440,note_on,240,0,2,,,,,,,,,,,,,,,0,,,55,0
157680,note_on,0,0,1,,,,,,,,,,,,,,,0,,,64,42
157680,note_on,0,0,1,,,,,,,,,,,,,,,0,,,60,35
157680,set_tempo,720,1,0,,,,,,,,,,,,1278500,,,,,,,
157680,note_on,0,0,1,,,,,,,,,,,,,,,0,,,60,0
157680,note_on,240,0,2,,,,,,,,,,,,,,,0,,,67,0
157680,note_on,0,0,1,,,,,,,,,,,,,,,0,,,79,35
157680,note_on,720,0,1,,,,,,,,,,,,,,,0,,,64,0
157800,note_on,120,0,1,,,,,,,,,,,,,,,0,,,79,0
157800,note_on,0,0,1,,,,,,,,,,,,,,,0,,,64,0
157800,note_on,0,0,1,,,,,,,,,,,,,,,0,,,60,0
157920,note_on,120,0,1,,,,,,,,,,,,,,,0,,,59,35
157920,note_on,0,0,1,,,,,,,,,,,,,,,0,,,64,42
157920,set_tempo,240,1,0,,,,,,,,,,,,1286449,,,,,,,
157948,control_change,268,0,2,,,,,,,,,,,,,,,0,64,0,,
158040,set_tempo,120,1,0,,,,,,,,,,,,1299827,,,,,,,
158040,note_on,0,0,1,,,,,,,,,,,,,,,0,,,59,0
158040,note_on,92,0,2,,,,,,,,,,,,,,,0,,,36,30
158040,note_on,120,0,1,,,,,,,,,,,,,,,0,,,64,0
158100,note_on,60,0,2,,,,,,,,,,,,,,,0,,,36,0
158160,note_on,0,0,1,,,,,,,,,,,,,,,0,,,66,42
158160,note_on,60,0,2,,,,,,,,,,,,,,,0,,,36,30
158160,note_on,120,0,1,,,,,,,,,,,,,,,0,,,58,35
158160,set_tempo,120,1,0,,,,,,,,,,,,1313198,,,,,,,
158220,note_on,60,0,2,,,,,,,,,,,,,,,0,,,36,0
158280,note_on,0,0,1,,,,,,,,,,,,,,,0,,,58,0
158280,note_on,120,0,1,,,,,,,,,,,,,,,0,,,66,0
158280,note_on,60,0,2,,,,,,,,,,,,,,,0,,,38,30
158280,set_tempo,120,1,0,,,,,,,,,,,,1327140,,,,,,,
158340,note_on,60,0,2,,,,,,,,,,,,,,,0,,,38,0
158360,set_tempo,80,1,0,,,,,,,,,,,,1341082,,,,,,,
158400,set_tempo,40,1,0,,,,,,,,,,,,1299827,,,,,,,
158400,note_on,60,0,2,,,,,,,,,,,,,,,0,,,35,31
158400,note_on,120,0,1,,,,,,,,,,,,,,,0,,,59,39
158400,note_on,0,0,1,,,,,,,,,,,,,,,0,,,68,47
158471,control_change,71,0,2,,,,,,,,,,,,,,,0,64,127,,
158640,note_on,169,0,2,,,,,,,,,,,,,,,0,,,35,0
158640,note_on,0,0,2,,,,,,,,,,,,,,,0,,,47,27
158640,note_on,240,0,1,,,,,,,,,,,,,,,0,,,59,0
158640,note_on,0,0,1,,,,,,,,,,,,,,,0,,,64,39
158680,set_tempo,280,1,0,,,,,,,,,,,,1212366,,,,,,,
158880,note_on,240,0,2,,,,,,,,,,,,,,,0,,,47,0
158880,note_on,0,0,2,,,,,,,,,,,,,,,0,,,59,32
159120,note_on,480,0,1,,,,,,,,,,,,,,,0,,,71,32
159120,set_tempo,440,1,0,,,,,,,,,,,,1290045,,,,,,,
159120,note_on,240,0,2,,,,,,,,,,,,,,,0,,,59,0
159240,note_on,120,0,1,,,,,,,,,,,,,,,0,,,71,0
159360,note_on,120,0,1,,,,,,,,,,,,,,,0,,,64,0
159360,note_on,0,0,1,,,,,,,,,,,,,,,0,,,68,41
159360,note_on,0,0,1,,,,,,,,,,,,,,,0,,,64,35
159360,note_on,0,0,1,,,,,,,,,,,,,,,0,,,68,0
159360,set_tempo,240,1,0,,,,,,,,,,,,1299827,,,,,,,
159388,control_change,268,0,2,,,,,,,,,,,,,,,0,64,0,,
159480,note_on,92,0,2,,,,,,,,,,,,,,,0,,,35,30
159480,set_tempo,120,1,0,,,,,,,,,,,,1313198,,,,,,,
159540,note_on,60,0,2,,,,,,,,,,,,,,,0,,,35,0
159600,note_on,60,0,2,,,,,,,,,,,,,,,0,,,35,30
159600,set_tempo,120,1,0,,,,,,,,,,,,1327140,,,,,,,
159660,note_on,60,0,2,,,,,,,,,,,,,,,0,,,35,0
159720,set_tempo,120,1,0,,,,,,,,,,,,1341082,,,,,,,
159720,note_on,0,0,1,,,,,,,,,,,,,,,0,,,63,34
159720,note_on,0,0,1,,,,,,,,,,,,,,,0,,,64,0
159720,note_on,360,0,1,,,,,,,,,,,,,,,0,,,68,0
159720,note_on,0,0,1,,,,,,,,,,,,,,,0,,,66,40
159720,note_on,60,0,2,,,,,,,,,,,,,,,0,,,37,30
159780,note_on,60,0,2,,,,,,,,,,,,,,,0,,,37,0
159800,set_tempo,80,1,0,,,,,,,,,,,,1355626,,,,,,,
159840,note_on,0,0,1,,,,,,,,,,,,,,,0,,,66,49
159840,note_on,0,0,1,,,,,,,,,,,,,,,0,,,63,41
159840,note_on,0,0,1,,,,,,,,,,,,,,,0,,,63,0
159840,note_on,120,0,1,,,,,,,,,,,,,,,0,,,66,0
159840,set_tempo,40,1,0,,,,,,,,,,,,1232792,,,,,,,
159840,note_on,60,0,2,,,,,,,,,,,,,,,0,,,35,31
159875,control_change,35,0,2,,,,,,,,,,,,,,,0,64,127,,
159960,note_on,85,0,2,,,,,,,,,,,,,,,0,,,35,0
160080,note_on,120,0,2,,,,,,,,,,,,,,,0,,,47,27
160320,note_on,240,0,2,,,,,,,,,,,,,,,0,,,47,0
160320,note_on,0,0,2,,,,,,,,,,,,,,,0,,,59,32
160560,note_on,720,0,1,,,,,,,,,,,,,,,0,,,71,32
160560,set_tempo,720,1,0,,,,,,,,,,,,1278500,,,,,,,
160560,note_on,240,0,2,,,,,,,,,,,,,,,0,,,59,0
160680,note_on,120,0,1,,,,,,,,,,,,,,,0,,,71,0
160800,set_tempo,240,1,0,,,,,,,,,,,,1286449,,,,,,,
160800,note_on,0,0,1,,,,,,,,,,,,,,,0,,,66,44
160800,note_on,0,0,1,,,,,,,,,,,,,,,0,,,63,37
160800,note_on,0,0,1,,,,,,,,,,,,,,,0,,,63,0
160800,note_on,120,0,1,,,,,,,,,,,,,,,0,,,66,0
160814,control_change,254,0,2,,,,,,,,,,,,,,,0,64,0,,
160880,set_tempo,80,1,0,,,,,,,,,,,,1299827,,,,,,,
160920,note_on,106,0,2,,,,,,,,,,,,,,,0,,,35,30
160960,set_tempo,80,1,0,,,,,,,,,,,,1313198,,,,,,,
160980,note_on,60,0,2,,,,,,,,,,,,,,,0,,,35,0
161040,note_on,60,0,2,,,,,,,,,,,,,,,0,,,35,30
161040,set_tempo,80,1,0,,,,,,,,,,,,1327140,,,,,,,
161100,note_on,60,0,2,,,,,,,,,,,,,,,0,,,35,0
161120,set_tempo,80,1,0,,,,,,,,,,,,1341082,,,,,,,
161160,note_on,60,0,2,,,,,,,,,,,,,,,0,,,37,30
161200,set_tempo,80,1,0,,,,,,,,,,,,1355626,,,,,,,
161220,note_on,60,0,2,,,,,,,,,,,,,,,0,,,37,0
161240,set_tempo,40,1,0,,,,,,,,,,,,1370489,,,,,,,
161280,set_tempo,40,1,0,,,,,,,,,,,,1232792,,,,,,,
161280,note_on,480,0,1,,,,,,,,,,,,,,,0,,,66,0
161280,note_on,0,0,1,,,,,,,,,,,,,,,0,,,63,0
161280,note_on,0,0,1,,,,,,,,,,,,,,,0,,,61,41
161280,note_on,0,0,1,,,,,,,,,,,,,,,0,,,69,49
161280,note_on,60,0,2,,,,,,,,,,,,,,,0,,,35,31
161354,control_change,74,0,2,,,,,,,,,,,,,,,0,64,127,,
161400,note_on,46,0,2,,,,,,,,,,,,,,,0,,,35,0
161520,note_on,120,0,2,,,,,,,,,,,,,,,0,,,47,27
161760,note_on,0,0,2,,,,,,,,,,,,,,,0,,,59,32
161760,note_on,240,0,2,,,,,,,,,,,,,,,0,,,47,0
162000,note_on,240,0,2,,,,,,,,,,,,,,,0,,,59,0
162000,set_tempo,720,1,0,,,,,,,,,,,,1278500,,,,,,,
162000,note_on,720,0,1,,,,,,,,,,,,,,,0,,,71,34
162120,note_on,120,0,1,,,,,,,,,,,,,,,0,,,71,0
162240,note_on,0,0,1,,,,,,,,,,,,,,,0,,,61,0
162240,note_on,0,0,1,,,,,,,,,,,,,,,0,,,63,33
162240,note_on,120,0,1,,,,,,,,,,,,,,,0,,,69,0
162240,note_on,0,0,1,,,,,,,,,,,,,,,0,,,69,39
162254,control_change,254,0,2,,,,,,,,,,,,,,,0,64,0,,
162280,set_tempo,280,1,0,,,,,,,,,,,,1273615,,,,,,,
162360,note_on,106,0,2,,,,,,,,,,,,,,,0,,,35,30
162360,note_on,120,0,1,,,,,,,,,,,,,,,0,,,63,0
162360,note_on,0,0,1,,,,,,,,,,,,,,,0,,,66,29
162400,set_tempo,120,1,0,,,,,,,,,,,,1286449,,,,,,,
162420,note_on,60,0,2,,,,,,,,,,,,,,,0,,,35,0
162480,set_tempo,80,1,0,,,,,,,,,,,,1299827,,,,,,,
162480,note_on,60,0,2,,,,,,,,,,,,,,,0,,,35,30
162480,note_on,120,0,1,,,,,,,,,,,,,,,0,,,66,0
162480,note_on,0,0,1,,,,,,,,,,,,,,,0,,,69,0
162480,note_on,0,0,1,,,,,,,,,,,,,,,0,,,64,30
162480,note_on,0,0,1,,,,,,,,,,,,,,,0,,,68,36
162540,note_on,60,0,2,,,,,,,,,,,,,,,0,,,35,0
162600,note_on,60,0,2,,,,,,,,,,,,,,,0,,,37,30
162600,note_on,0,0,1,,,,,,,,,,,,,,,0,,,64,0
162600,note_on,0,0,1,,,,,,,,,,,,,,,0,,,63,28
162600,note_on,0,0,1,,,,,,,,,,,,,,,0,,,66,34
162600,note_on,120,0,1,,,,,,,,,,,,,,,0,,,68,0
162600,set_tempo,120,1,0,,,,,,,,,,,,1313198,,,,,,,
162660,note_on,60,0,2,,,,,,,,,,,,,,,0,,,37,0
162680,set_tempo,80,1,0,,,,,,,,,,,,1327140,,,,,,,
162720,note_on,60,0,2,,,,,,,,,,,,,,,0,,,35,31
162720,note_on,120,0,1,,,,,,,,,,,,,,,0,,,66,0
162720,set_tempo,40,1,0,,,,,,,,,,,,1232792,,,,,,,
162720,note_on,0,0,1,,,,,,,,,,,,,,,0,,,63,0
162720,note_on,0,0,1,,,,,,,,,,,,,,,0,,,68,47
162720,note_on,0,0,1,,,,,,,,,,,,,,,0,,,64,39
162773,control_change,53,0,2,,,,,,,,,,,,,,,0,64,127,,
162840,note_on,67,0,2,,,,,,,,,,,,,,,0,,,35,0
162960,note_on,120,0,2,,,,,,,,,,,,,,,0,,,47,27
163200,note_on,0,0,2,,,,,,,,,,,,,,,0,,,59,32
163200,note_on,240,0,2,,,,,,,,,,,,,,,0,,,47,0
163440,note_on,720,0,1,,,,,,,,,,,,,,,0,,,71,33
163440,set_tempo,720,1,0,,,,,,,,,,,,1278500,,,,,,,
163440,note_on,240,0,2,,,,,,,,,,,,,,,0,,,59,0
163560,note_on,120,0,1,,,,,,,,,,,,,,,0,,,71,0
163708,control_change,268,0,2,,,,,,,,,,,,,,,0,64,0,,
163800,note_on,92,0,2,,,,,,,,,,,,,,,0,,,35,31
163860,note_on,60,0,2,,,,,,,,,,,,,,,0,,,35,0
163920,note_on,60,0,2,,,,,,,,,,,,,,,0,,,35,31
163920,note_on,0,0,1,,,,,,,,,,,,,,,0,,,68,36
163920,note_on,0,0,1,,,,,,,,,,,,,,,0,,,64,0
163920,note_on,0,0,1,,,,,,,,,,,,,,,0,,,71,44
163920,note_on,360,0,1,,,,,,,,,,,,,,,0,,,68,0
163980,note_on,60,0,2,,,,,,,,,,,,,,,0,,,35,0
164040,note_on,60,0,2,,,,,,,,,,,,,,,0,,,37,31
164100,note_on,60,0,2,,,,,,,,,,,,,,,0,,,37,0
164160,set_tempo,720,1,0,,,,,,,,,,,,1232792,,,,,,,
164160,note_on,0,0,1,,,,,,,,,,,,,,,0,,,76,61
164160,note_on,0,0,1,,,,,,,,,,,,,,,0,,,71,52
164160,note_on,0,0,1,,,,,,,,,,,,,,,0,,,68,52
164160,note_on,0,0,1,,,,,,,,,,,,,,,0,,,68,0
164160,note_on,240,0,1,,,,,,,,,,,,,,,0,,,71,0
164160,note_on,60,0,2,,,,,,,,,,,,,,,0,,,35,35
164188,control_change,28,0,2,,,,,,,,,,,,,,,0,64,0,,
164234,control_change,46,0,2,,,,,,,,,,,,,,,0,64,127,,
164280,note_on,46,0,2,,,,,,,,,,,,,,,0,,,35,0
164400,note_on,120,0,2,,,,,,,,,,,,,,,0,,,47,44
164520,note_on,0,0,1,,,,,,,,,,,,,,,0,,,68,0
164520,note_on,0,0,1,,,,,,,,,,,,,,,0,,,66,46
164520,note_on,0,0,1,,,,,,,,,,,,,,,0,,,71,46
164520,note_on,0,0,1,,,,,,,,,,,,,,,0,,,75,55
164520,note_on,360,0,1,,,,,,,,,,,,,,,0,,,76,0
164520,note_on,0,0,1,,,,,,,,,,,,,,,0,,,71,0
164640,note_on,0,0,1,,,,,,,,,,,,,,,0,,,75,61
164640,note_on,120,0,1,,,,,,,,,,,,,,,0,,,75,0
164640,note_on,0,0,1,,,,,,,,,,,,,,,0,,,71,51
164640,note_on,0,0,1,,,,,,,,,,,,,,,0,,,71,0
164640,note_on,0,0,1,,,,,,,,,,,,,,,0,,,66,51
164640,note_on,0,0,1,,,,,,,,,,,,,,,0,,,66,0
164640,note_on,240,0,2,,,,,,,,,,,,,,,0,,,47,0
164640,note_on,0,0,2,,,,,,,,,,,,,,,0,,,59,50
164880,note_on,240,0,2,,,,,,,,,,,,,,,0,,,59,0
164880,note_on,240,0,1,,,,,,,,,,,,,,,0,,,83,53
164880,set_tempo,720,1,0,,,,,,,,,,,,1266892,,,,,,,
165120,note_on,240,0,1,,,,,,,,,,,,,,,0,,,83,0
165120,set_tempo,240,1,0,,,,,,,,,,,,1260769,,,,,,,
165134,control_change,254,0,2,,,,,,,,,,,,,,,0,64,0,,
165200,set_tempo,80,1,0,,,,,,,,,,,,1273615,,,,,,,
165240,note_on,106,0,2,,,,,,,,,,,,,,,0,,,35,36
165280,set_tempo,80,1,0,,,,,,,,,,,,1286449,,,,,,,
165300,note_on,60,0,2,,,,,,,,,,,,,,,0,,,35,0
165360,note_on,0,0,1,,,,,,,,,,,,,,,0,,,71,54
165360,note_on,240,0,1,,,,,,,,,,,,,,,0,,,66,0
165360,note_on,0,0,1,,,,,,,,,,,,,,,0,,,71,0
165360,note_on,0,0,1,,,,,,,,,,,,,,,0,,,75,0
165360,set_tempo,80,1,0,,,,,,,,,,,,1299827,,,,,,,
165360,note_on,60,0,2,,,,,,,,,,,,,,,0,,,35,37
165360,note_on,0,0,1,,,,,,,,,,,,,,,0,,,66,54
165360,note_on,0,0,1,,,,,,,,,,,,,,,0,,,75,66
165420,note_on,60,0,2,,,,,,,,,,,,,,,0,,,35,0
165440,set_tempo,80,1,0,,,,,,,,,,,,1313198,,,,,,,
165480,note_on,60,0,2,,,,,,,,,,,,,,,0,,,37,37
165520,set_tempo,80,1,0,,,,,,,,,,,,1327140,,,,,,,
165540,note_on,60,0,2,,,,,,,,,,,,,,,0,,,37,0
165560,set_tempo,40,1,0,,,,,,,,,,,,1341082,,,,,,,
165600,note_on,0,0,1,,,,,,,,,,,,,,,0,,,80,71
165600,set_tempo,40,1,0,,,,,,,,,,,,1232792,,,,,,,
165600,note_on,0,0,1,,,,,,,,,,,,,,,0,,,71,60
165600,note_on,0,0,1,,,,,,,,,,,,,,,0,,,66,0
165600,note_on,0,0,1,,,,,,,,,,,,,,,0,,,71,0
165600,note_on,240,0,1,,,,,,,,,,,,,,,0,,,75,0
165600,note_on,0,0,1,,,,,,,,,,,,,,,0,,,76,60
165600,note_on,60,0,2,,,,,,,,,,,,,,,0,,,35,41
165674,control_change,74,0,2,,,,,,,,,,,,,,,0,64,127,,
165720,note_on,46,0,2,,,,,,,,,,,,,,,0,,,35,0
165840,note_on,120,0,2,,,,,,,,,,,,,,,0,,,47,51
165960,note_on,360,0,1,,,,,,,,,,,,,,,0,,,80,0
165960,note_on,0,0,1,,,,,,,,,,,,,,,0,,,75,54
165960,note_on,0,0,1,,,,,,,,,,,,,,,0,,,78,63
165960,note_on,0,0,1,,,,,,,,,,,,,,,0,,,76,0
166080,note_on,120,0,1,,,,,,,,,,,,,,,0,,,78,0
166080,note_on,0,0,1,,,,,,,,,,,,,,,0,,,75,0
166080,note_on,0,0,1,,,,,,,,,,,,,,,0,,,71,0
166080,note_on,0,0,1,,,,,,,,,,,,,,,0,,,71,60
166080,note_on,0,0,1,,,,,,,,,,,,,,,0,,,75,60
166080,note_on,0,0,2,,,,,,,,,,,,,,,0,,,59,59
166080,note_on,240,0,2,,,,,,,,,,,,,,,0,,,47,0
166080,note_on,0,0,1,,,,,,,,,,,,,,,0,,,78,71
166320,note_on,240,0,2,,,,,,,,,,,,,,,0,,,59,0
166320,note_on,240,0,1,,,,,,,,,,,,,,,0,,,83,63
166320,set_tempo,720,1,0,,,,,,,,,,,,1278500,,,,,,,
166560,note_on,240,0,1,,,,,,,,,,,,,,,0,,,83,0
166574,control_change,254,0,2,,,,,,,,,,,,,,,0,64,0,,
166680,note_on,106,0,2,,,,,,,,,,,,,,,0,,,35,41
166740,note_on,60,0,2,,,,,,,,,,,,,,,0,,,35,0
166800,note_on,0,0,1,,,,,,,,,,,,,,,0,,,71,61
166800,note_on,0,0,1,,,,,,,,,,,,,,,0,,,76,61
166800,note_on,0,0,1,,,,,,,,,,,,,,,0,,,80,74
166800,note_on,240,0,1,,,,,,,,,,,,,,,0,,,71,0
166800,note_on,0,0,1,,,,,,,,,,,,,,,0,,,75,0
166800,note_on,60,0,2,,,,,,,,,,,,,,,0,,,35,42
166800,set_tempo,480,1,0,,,,,,,,,,,,1348315,,,,,,,
166800,note_on,0,0,1,,,,,,,,,,,,,,,0,,,78,0
166860,note_on,60,0,2,,,,,,,,,,,,,,,0,,,35,0
166920,note_on,60,0,2,,,,,,,,,,,,,,,0,,,37,44
166980,note_on,60,0,2,,,,,,,,,,,,,,,0,,,37,0
167040,note_on,0,0,1,,,,,,,,,,,,,,,0,,,80,68
167040,note_on,240,0,1,,,,,,,,,,,,,,,0,,,80,0
167040,note_on,0,0,1,,,,,,,,,,,,,,,0,,,76,0
167040,note_on,0,0,1,,,,,,,,,,,,,,,0,,,71,0
167040,note_on,0,0,1,,,,,,,,,,,,,,,0,,,76,68
167040,note_on,0,0,1,,,,,,,,,,,,,,,0,,,85,80
167040,note_on,60,0,2,,,,,,,,,,,,,,,0,,,35,46
167040,set_tempo,240,1,0,,,,,,,,,,,,1232792,,,,,,,
167075,control_change,35,0,2,,,,,,,,,,,,,,,0,64,127,,
167160,note_on,85,0,2,,,,,,,,,,,,,,,0,,,35,0
167280,note_on,120,0,2,,,,,,,,,,,,,,,0,,,47,52
167400,note_on,360,0,1,,,,,,,,,,,,,,,0,,,85,0
167400,note_on,0,0,1,,,,,,,,,,,,,,,0,,,83,70
167400,note_on,0,0,1,,,,,,,,,,,,,,,0,,,76,0
167400,note_on,0,0,1,,,,,,,,,,,,,,,0,,,80,0
167400,note_on,0,0,1,,,,,,,,,,,,,,,0,,,78,60
167400,note_on,0,0,1,,,,,,,,,,,,,,,0,,,75,60
167520,note_on,0,0,2,,,,,,,,,,,,,,,0,,,59,60
167520,note_on,120,0,1,,,,,,,,,,,,,,,0,,,83,0
167520,note_on,0,0,1,,,,,,,,,,,,,,,0,,,78,0
167520,note_on,0,0,1,,,,,,,,,,,,,,,0,,,75,0
167520,note_on,0,0,1,,,,,,,,,,,,,,,0,,,75,67
167520,note_on,0,0,1,,,,,,,,,,,,,,,0,,,78,67
167520,note_on,0,0,1,,,,,,,,,,,,,,,0,,,83,79
167520,note_on,240,0,2,,,,,,,,,,,,,,,0,,,47,0
167760,note_on,240,0,2,,,,,,,,,,,,,,,0,,,59,0
167760,note_on,240,0,1,,,,,,,,,,,,,,,0,,,71,59
167760,set_tempo,720,1,0,,,,,,,,,,,,1266892,,,,,,,
168000,note_on,240,0,1,,,,,,,,,,,,,,,0,,,71,0
168000,set_tempo,240,1,0,,,,,,,,,,,,1286449,,,,,,,
168109,control_change,349,0,2,,,,,,,,,,,,,,,0,64,0,,
168120,note_on,11,0,2,,,,,,,,,,,,,,,0,,,35,33
168160,set_tempo,160,1,0,,,,,,,,,,,,1299827,,,,,,,
168180,note_on,60,0,2,,,,,,,,,,,,,,,0,,,35,0
168240,note_on,60,0,2,,,,,,,,,,,,,,,0,,,35,33
168300,note_on,60,0,2,,,,,,,,,,,,,,,0,,,35,0
168320,set_tempo,160,1,0,,,,,,,,,,,,1313198,,,,,,,
168360,note_on,60,0,2,,,,,,,,,,,,,,,0,,,37,34
168420,note_on,60,0,2,,,,,,,,,,,,,,,0,,,37,0
168440,set_tempo,120,1,0,,,,,,,,,,,,1327140,,,,,,,
168480,note_on,60,0,2,,,,,,,,,,,,,,,0,,,35,36
168520,set_tempo,80,1,0,,,,,,,,,,,,1244039,,,,,,,
168544,control_change,64,0,2,,,,,,,,,,,,,,,0,64,127,,
168600,note_on,56,0,2,,,,,,,,,,,,,,,0,,,35,0
168720,note_on,120,0,2,,,,,,,,,,,,,,,0,,,47,32
168960,note_on,0,0,2,,,,,,,,,,,,,,,0,,,59,34
168960,note_on,240,0,2,,,,,,,,,,,,,,,0,,,47,0
169200,set_tempo,680,1,0,,,,,,,,,,,,1290045,,,,,,,
169200,note_on,240,0,2,,,,,,,,,,,,,,,0,,,59,0
169200,note_on,1200,0,1,,,,,,,,,,,,,,,0,,,71,37
169440,note_on,240,0,1,,,,,,,,,,,,,,,0,,,71,0
169680,note_on,0,0,1,,,,,,,,,,,,,,,0,,,81,49
169680,note_on,240,0,1,,,,,,,,,,,,,,,0,,,83,0
169751,control_change,551,0,2,,,,,,,,,,,,,,,0,64,0,,
169920,note_on,0,0,1,,,,,,,,,,,,,,,0,,,78,0
169920,note_on,0,0,1,,,,,,,,,,,,,,,0,,,75,0
169920,set_tempo,720,1,0,,,,,,,,,,,,1232792,,,,,,,
169920,note_on,0,0,1,,,,,,,,,,,,,,,0,,,68,41
169920,note_on,0,0,1,,,,,,,,,,,,,,,0,,,76,41
169920,note_on,0,0,1,,,,,,,,,,,,,,,0,,,80,49
169920,note_on,240,0,1,,,,,,,,,,,,,,,0,,,81,0
169920,note_on,169,0,2,,,,,,,,,,,,,,,0,,,37,31
169959,control_change,39,0,2,,,,,,,,,,,,,,,0,64,127,,
170040,note_on,81,0,2,,,,,,,,,,,,,,,0,,,37,0
170160,note_on,120,0,2,,,,,,,,,,,,,,,0,,,49,26
170400,note_on,240,0,2,,,,,,,,,,,,,,,0,,,49,0
170400,note_on,0,0,2,,,,,,,,,,,,,,,0,,,61,31
170640,set_tempo,720,1,0,,,,,,,,,,,,1278500,,,,,,,
170640,note_on,720,0,1,,,,,,,,,,,,,,,0,,,73,37
170640,note_on,240,0,2,,,,,,,,,,,,,,,0,,,61,0
170880,set_tempo,240,1,0,,,,,,,,,,,,1299827,,,,,,,
170880,note_on,240,0,1,,,,,,,,,,,,,,,0,,,73,0
170894,control_change,254,0,2,,,,,,,,,,,,,,,0,64,0,,
171000,note_on,106,0,2,,,,,,,,,,,,,,,0,,,37,30
171040,set_tempo,160,1,0,,,,,,,,,,,,1313198,,,,,,,
171060,note_on,60,0,2,,,,,,,,,,,,,,,0,,,37,0
171120,note_on,60,0,2,,,,,,,,,,,,,,,0,,,39,30
171120,note_on,240,0,1,,,,,,,,,,,,,,,0,,,68,0
171120,note_on,0,0,1,,,,,,,,,,,,,,,0,,,68,36
171120,note_on,0,0,1,,,,,,,,,,,,,,,0,,,80,0
171120,note_on,0,0,1,,,,,,,,,,,,,,,0,,,73,36
171120,note_on,0,0,1,,,,,,,,,,,,,,,0,,,76,44
171120,note_on,0,0,1,,,,,,,,,,,,,,,0,,,76,0
171180,note_on,60,0,2,,,,,,,,,,,,,,,0,,,39,0
171200,set_tempo,160,1,0,,,,,,,,,,,,1327140,,,,,,,
171240,note_on,60,0,2,,,,,,,,,,,,,,,0,,,40,30
171300,note_on,60,0,2,,,,,,,,,,,,,,,0,,,40,0
171320,set_tempo,120,1,0,,,,,,,,,,,,1341082,,,,,,,
171360,set_tempo,40,1,0,,,,,,,,,,,,1232792,,,,,,,
171360,note_on,0,0,1,,,,,,,,,,,,,,,0,,,75,49
171360,note_on,0,0,1,,,,,,,,,,,,,,,0,,,69,41
171360,note_on,0,0,1,,,,,,,,,,,,,,,0,,,66,41
171360,note_on,0,0,1,,,,,,,,,,,,,,,0,,,68,0
171360,note_on,0,0,1,,,,,,,,,,,,,,,0,,,73,0
171360,note_on,240,0,1,,,,,,,,,,,,,,,0,,,76,0
171360,note_on,60,0,2,,,,,,,,,,,,,,,0,,,30,29
171400,control_change,40,0,2,,,,,,,,,,,,,,,0,64,127,,
171480,note_on,80,0,2,,,,,,,,,,,,,,,0,,,30,0
171600,note_on,120,0,2,,,,,,,,,,,,,,,0,,,42,29
171720,note_on,360,0,1,,,,,,,,,,,,,,,0,,,75,0
171720,note_on,0,0,1,,,,,,,,,,,,,,,0,,,73,49
171840,note_on,0,0,1,,,,,,,,,,,,,,,0,,,69,0
171840,note_on,0,0,1,,,,,,,,,,,,,,,0,,,66,0
171840,note_on,0,0,1,,,,,,,,,,,,,,,0,,,66,40
171840,note_on,0,0,1,,,,,,,,,,,,,,,0,,,69,40
171840,note_on,0,0,1,,,,,,,,,,,,,,,0,,,73,49
171840,note_on,240,0,2,,,,,,,,,,,,,,,0,,,42,0
171840,note_on,0,0,2,,,,,,,,,,,,,,,0,,,54,32
171840,note_on,120,0,1,,,,,,,,,,,,,,,0,,,73,0
172077,note_on,237,0,2,,,,,,,,,,,,,,,0,,,66,36
172080,note_on,240,0,1,,,,,,,,,,,,,,,0,,,66,0
172080,set_tempo,720,1,0,,,,,,,,,,,,1278500,,,,,,,
172080,note_on,3,0,2,,,,,,,,,,,,,,,0,,,54,0
172317,note_on,237,0,2,,,,,,,,,,,,,,,0,,,66,0
172320,set_tempo,240,1,0,,,,,,,,,,,,1299827,,,,,,,
172334,control_change,17,0,2,,,,,,,,,,,,,,,0,64,0,,
172440,note_on,106,0,2,,,,,,,,,,,,,,,0,,,30,30
172480,set_tempo,160,1,0,,,,,,,,,,,,1313198,,,,,,,
172500,note_on,60,0,2,,,,,,,,,,,,,,,0,,,30,0
172560,note_on,0,0,1,,,,,,,,,,,,,,,0,,,63,36
172560,note_on,0,0,1,,,,,,,,,,,,,,,0,,,69,0
172560,note_on,0,0,1,,,,,,,,,,,,,,,0,,,73,44
172560,note_on,0,0,1,,,,,,,,,,,,,,,0,,,69,36
172560,note_on,60,0,2,,,,,,,,,,,,,,,0,,,29,30
172560,note_on,480,0,1,,,,,,,,,,,,,,,0,,,73,0
172620,note_on,60,0,2,,,,,,,,,,,,,,,0,,,29,0
172640,set_tempo,160,1,0,,,,,,,,,,,,1327140,,,,,,,
172680,note_on,60,0,2,,,,,,,,,,,,,,,0,,,30,30
172740,note_on,60,0,2,,,,,,,,,,,,,,,0,,,30,0
172760,set_tempo,120,1,0,,,,,,,,,,,,1341082,,,,,,,
172800,set_tempo,40,1,0,,,,,,,,,,,,1232792,,,,,,,
172800,note_on,0,0,1,,,,,,,,,,,,,,,0,,,69,0
172800,note_on,0,0,1,,,,,,,,,,,,,,,0,,,63,0
172800,note_on,0,0,1,,,,,,,,,,,,,,,0,,,73,49
172800,note_on,0,0,1,,,,,,,,,,,,,,,0,,,68,41
172800,note_on,60,0,2,,,,,,,,,,,,,,,0,,,32,29
172800,note_on,240,0,1,,,,,,,,,,,,,,,0,,,73,0
172800,note_on,0,0,1,,,,,,,,,,,,,,,0,,,64,41
172829,control_change,29,0,2,,,,,,,,,,,,,,,0,64,127,,
172920,note_on,91,0,2,,,,,,,,,,,,,,,0,,,32,0
173040,note_on,120,0,2,,,,,,,,,,,,,,,0,,,44,27
173280,note_on,0,0,1,,,,,,,,,,,,,,,0,,,71,49
173280,note_on,0,0,2,,,,,,,,,,,,,,,0,,,56,32
173280,note_on,240,0,2,,,,,,,,,,,,,,,0,,,44,0
173280,note_on,480,0,1,,,,,,,,,,,,,,,0,,,73,0
173520,note_on,240,0,1,,,,,,,,,,,,,,,0,,,80,35
173520,note_on,240,0,2,,,,,,,,,,,,,,,0,,,56,0
173520,set_tempo,720,1,0,,,,,,,,,,,,1146132,,,,,,,
173760,note_on,240,0,1,,,,,,,,,,,,,,,0,,,80,0
173760,note_on,0,0,1,,,,,,,,,,,,,,,0,,,64,0
173760,note_on,0,0,1,,,,,,,,,,,,,,,0,,,60,30
173760,set_tempo,240,1,0,,,,,,,,,,,,1299827,,,,,,,
173774,control_change,254,0,2,,,,,,,,,,,,,,,0,64,0,,
173880,note_on,106,0,2,,,,,,,,,,,,,,,0,,,32,30
173940,note_on,60,0,2,,,,,,,,,,,,,,,0,,,32,0
174000,note_on,0,0,1,,,,,,,,,,,,,,,0,,,66,34
174000,note_on,0,0,1,,,,,,,,,,,,,,,0,,,69,41
174000,note_on,240,0,1,,,,,,,,,,,,,,,0,,,71,0
174000,note_on,60,0,2,,,,,,,,,,,,,,,0,,,31,30
174000,set_tempo,240,1,0,,,,,,,,,,,,1355626,,,,,,,
174000,note_on,0,0,1,,,,,,,,,,,,,,,0,,,68,0
174060,note_on,60,0,2,,,,,,,,,,,,,,,0,,,31,0
174120,note_on,60,0,2,,,,,,,,,,,,,,,0,,,32,30
174180,note_on,60,0,2,,,,,,,,,,,,,,,0,,,32,0
174240,note_on,60,0,2,,,,,,,,,,,,,,,0,,,37,31
174240,set_tempo,240,1,0,,,,,,,,,,,,1232792,,,,,,,
174240,note_on,0,0,1,,,,,,,,,,,,,,,0,,,61,34
174240,note_on,0,0,1,,,,,,,,,,,,,,,0,,,68,40
174240,note_on,240,0,1,,,,,,,,,,,,,,,0,,,69,0
174240,note_on,0,0,1,,,,,,,,,,,,,,,0,,,64,34
174240,note_on,0,0,1,,,,,,,,,,,,,,,0,,,60,0
174240,note_on,0,0,1,,,,,,,,,,,,,,,0,,,66,0
174275,control_change,35,0,2,,,,,,,,,,,,,,,0,64,127,,
174360,note_on,85,0,2,,,,,,,,,,,,,,,0,,,37,0
174480,set_tempo,240,1,0,,,,,,,,,,,,1278500,,,,,,,
174480,note_on,120,0,2,,,,,,,,,,,,,,,0,,,44,27
174720,note_on,0,0,1,,,,,,,,,,,,,,,0,,,64,0
174720,note_on,0,0,1,,,,,,,,,,,,,,,0,,,61,0
174720,note_on,0,0,1,,,,,,,,,,,,,,,0,,,64,36
174720,note_on,0,0,1,,,,,,,,,,,,,,,0,,,56,30
174720,note_on,0,0,2,,,,,,,,,,,,,,,0,,,49,32
174720,note_on,240,0,2,,,,,,,,,,,,,,,0,,,44,0
174720,note_on,480,0,1,,,,,,,,,,,,,,,0,,,68,0
174720,note_on,0,0,1,,,,,,,,,,,,,,,0,,,61,30
174960,note_on,240,0,2,,,,,,,,,,,,,,,0,,,49,0
174960,note_on,240,0,1,,,,,,,,,,,,,,,0,,,73,35
175200,set_tempo,720,1,0,,,,,,,,,,,,1299827,,,,,,,
175200,note_on,240,0,1,,,,,,,,,,,,,,,0,,,73,0
175280,set_tempo,80,1,0,,,,,,,,,,,,1313198,,,,,,,
175320,note_on,0,0,2,,,,,,,,,,,,,,,0,,,37,30
175320,set_tempo,40,1,0,,,,,,,,,,,,1327140,,,,,,,
175320,control_change,360,0,2,,,,,,,,,,,,,,,0,64,0,,
175360,set_tempo,40,1,0,,,,,,,,,,,,1341082,,,,,,,
175380,note_on,60,0,2,,,,,,,,,,,,,,,0,,,37,0
175400,set_tempo,40,1,0,,,,,,,,,,,,1355626,,,,,,,
175440,note_on,0,0,1,,,,,,,,,,,,,,,0,,,64,0
175440,note_on,60,0,2,,,,,,,,,,,,,,,0,,,37,30
175440,note_on,0,0,1,,,,,,,,,,,,,,,0,,,61,0
175440,note_on,240,0,1,,,,,,,,,,,,,,,0,,,56,0
175480,set_tempo,80,1,0,,,,,,,,,,,,1370489,,,,,,,
175500,note_on,60,0,2,,,,,,,,,,,,,,,0,,,37,0
175520,set_tempo,40,1,0,,,,,,,,,,,,1385361,,,,,,,
175560,note_on,60,0,2,,,,,,,,,,,,,,,0,,,36,30
175560,set_tempo,40,1,0,,,,,,,,,,,,1400887,,,,,,,
175600,set_tempo,40,1,0,,,,,,,,,,,,1416431,,,,,,,
175620,note_on,60,0,2,,,,,,,,,,,,,,,0,,,36,0
175640,set_tempo,40,1,0,,,,,,,,,,,,1432665,,,,,,,
175680,note_on,60,0,2,,,,,,,,,,,,,,,0,,,37,24
175680,note_on,240,0,1,,,,,,,,,,,,,,,0,,,61,32
175680,note_on,0,0,1,,,,,,,,,,,,,,,0,,,65,32
175680,note_on,0,0,1,,,,,,,,,,,,,,,0,,,68,39
175680,key_signature,40,1,0,,,,,,,,,,,C#,,,,,,,,
175680,set_tempo,0,1,0,,,,,,,,,,,,1273615,,,,,,,
175754,control_change,74,0,2,,,,,,,,,,,,,,,0,64,127,,
175920,note_on,0,0,2,,,,,,,,,,,,,,,0,,,49,24
175920,set_tempo,240,1,0,,,,,,,,,,,,1223990,,,,,,,
175920,note_on,166,0,2,,,,,,,,,,,,,,,0,,,37,0
176160,note_on,240,0,2,,,,,,,,,,,,,,,0,,,49,0
176160,note_on,0,0,2,,,,,,,,,,,,,,,0,,,61,28
176400,set_tempo,480,1,0,,,,,,,,,,,,1278500,,,,,,,
176400,note_on,720,0,1,,,,,,,,,,,,,,,0,,,73,33
176400,note_on,240,0,2,,,,,,,,,,,,,,,0,,,61,0
176640,set_tempo,240,1,0,,,,,,,,,,,,1327140,,,,,,,
176640,note_on,240,0,1,,,,,,,,,,,,,,,0,,,73,0
176654,control_change,254,0,2,,,,,,,,,,,,,,,0,64,0,,
176760,set_tempo,120,1,0,,,,,,,,,,,,1341082,,,,,,,
176760,note_on,106,0,2,,,,,,,,,,,,,,,0,,,37,24
176820,note_on,60,0,2,,,,,,,,,,,,,,,0,,,37,0
176840,set_tempo,80,1,0,,,,,,,,,,,,1355626,,,,,,,
176880,note_on,0,0,1,,,,,,,,,,,,,,,0,,,61,28
176880,note_on,0,0,1,,,,,,,,,,,,,,,0,,,68,0
176880,note_on,0,0,1,,,,,,,,,,,,,,,0,,,65,0
176880,note_on,240,0,1,,,,,,,,,,,,,,,0,,,61,0
176880,note_on,60,0,2,,,,,,,,,,,,,,,0,,,39,24
176880,note_on,0,0,1,,,,,,,,,,,,,,,0,,,73,35
176880,note_on,0,0,1,,,,,,,,,,,,,,,0,,,68,28
176920,set_tempo,80,1,0,,,,,,,,,,,,1370489,,,,,,,
176940,note_on,60,0,2,,,,,,,,,,,,,,,0,,,39,0
177000,note_on,60,0,2,,,,,,,,,,,,,,,0,,,41,24
177000,set_tempo,80,1,0,,,,,,,,,,,,1385361,,,,,,,
177060,note_on,60,0,2,,,,,,,,,,,,,,,0,,,41,0
177080,set_tempo,80,1,0,,,,,,,,,,,,1400887,,,,,,,
177120,note_on,240,0,1,,,,,,,,,,,,,,,0,,,73,0
177120,note_on,60,0,2,,,,,,,,,,,,,,,0,,,30,23
177120,note_on,0,0,1,,,,,,,,,,,,,,,0,,,72,39
177120,note_on,0,0,1,,,,,,,,,,,,,,,0,,,66,32
177120,set_tempo,40,1,0,,,,,,,,,,,,1232792,,,,,,,
177120,note_on,0,0,1,,,,,,,,,,,,,,,0,,,61,0
177120,note_on,0,0,1,,,,,,,,,,,,,,,0,,,68,0
177120,note_on,0,0,1,,,,,,,,,,,,,,,0,,,61,32
177194,control_change,74,0,2,,,,,,,,,,,,,,,0,64,127,,
177360,note_on,166,0,2,,,,,,,,,,,,,,,0,,,30,0
177360,note_on,0,0,2,,,,,,,,,,,,,,,0,,,42,24
177600,note_on,480,0,1,,,,,,,,,,,,,,,0,,,72,0
177600,note_on,0,0,1,,,,,,,,,,,,,,,0,,,70,39
177600,note_on,240,0,2,,,,,,,,,,,,,,,0,,,42,0
177600,note_on,0,0,2,,,,,,,,,,,,,,,0,,,54,28
177840,set_tempo,720,1,0,,,,,,,,,,,,1278500,,,,,,,
177840,note_on,240,0,2,,,,,,,,,,,,,,,0,,,54,0
177840,note_on,240,0,1,,,,,,,,,,,,,,,0,,,82,32
178080,set_tempo,240,1,0,,,,,,,,,,,,1327140,,,,,,,
178080,note_on,0,0,1,,,,,,,,,,,,,,,0,,,66,0
178080,note_on,0,0,1,,,,,,,,,,,,,,,0,,,61,0
178080,note_on,240,0,1,,,,,,,,,,,,,,,0,,,82,0
178094,control_change,254,0,2,,,,,,,,,,,,,,,0,64,0,,
178200,note_on,106,0,2,,,,,,,,,,,,,,,0,,,39,24
178200,set_tempo,120,1,0,,,,,,,,,,,,1341082,,,,,,,
178260,note_on,60,0,2,,,,,,,,,,,,,,,0,,,39,0
178280,set_tempo,80,1,0,,,,,,,,,,,,1355626,,,,,,,
178320,note_on,240,0,1,,,,,,,,,,,,,,,0,,,70,0
178320,note_on,60,0,2,,,,,,,,,,,,,,,0,,,41,24
178320,note_on,0,0,1,,,,,,,,,,,,,,,0,,,61,28
178320,note_on,0,0,1,,,,,,,,,,,,,,,0,,,65,28
178320,note_on,0,0,1,,,,,,,,,,,,,,,0,,,70,35
178360,set_tempo,80,1,0,,,,,,,,,,,,1370489,,,,,,,
178380,note_on,60,0,2,,,,,,,,,,,,,,,0,,,41,0
178440,note_on,60,0,2,,,,,,,,,,,,,,,0,,,42,24
178440,set_tempo,80,1,0,,,,,,,,,,,,1385361,,,,,,,
178500,note_on,60,0,2,,,,,,,,,,,,,,,0,,,42,0
178520,set_tempo,80,1,0,,,,,,,,,,,,1400887,,,,,,,
178560,note_on,0,0,1,,,,,,,,,,,,,,,0,,,70,39
178560,note_on,60,0,2,,,,,,,,,,,,,,,0,,,32,23
178560,note_on,240,0,1,,,,,,,,,,,,,,,0,,,70,0
178560,note_on,0,0,1,,,,,,,,,,,,,,,0,,,65,0
178560,note_on,0,0,1,,,,,,,,,,,,,,,0,,,61,0
178560,note_on,0,0,1,,,,,,,,,,,,,,,0,,,61,32
178560,note_on,0,0,1,,,,,,,,,,,,,,,0,,,63,32
178560,set_tempo,40,1,0,,,,,,,,,,,,1232792,,,,,,,
178634,control_change,74,0,2,,,,,,,,,,,,,,,0,64,127,,
178800,note_on,166,0,2,,,,,,,,,,,,,,,0,,,32,0
178800,note_on,0,0,2,,,,,,,,,,,,,,,0,,,44,21
179040,note_on,0,0,1,,,,,,,,,,,,,,,0,,,68,36
179040,note_on,0,0,1,,,,,,,,,,,,,,,0,,,63,29
179040,note_on,0,0,1,,,,,,,,,,,,,,,0,,,60,27
179040,note_on,0,0,2,,,,,,,,,,,,,,,0,,,56,25
179040,note_on,0,0,1,,,,,,,,,,,,,,,0,,,63,0
179040,note_on,480,0,1,,,,,,,,,,,,,,,0,,,70,0
179040,note_on,0,0,1,,,,,,,,,,,,,,,0,,,61,0
179040,note_on,240,0,2,,,,,,,,,,,,,,,0,,,44,0
179280,note_on,240,0,1,,,,,,,,,,,,,,,0,,,80,29
179280,set_tempo,720,1,0,,,,,,,,,,,,1146132,,,,,,,
179280,note_on,240,0,2,,,,,,,,,,,,,,,0,,,56,0
179520,note_on,240,0,1,,,,,,,,,,,,,,,0,,,80,0
179520,set_tempo,240,1,0,,,,,,,,,,,,1341082,,,,,,,
179534,control_change,254,0,2,,,,,,,,,,,,,,,0,64,0,,
179640,note_on,106,0,2,,,,,,,,,,,,,,,0,,,32,24
179700,note_on,60,0,2,,,,,,,,,,,,,,,0,,,32,0
179760,note_on,0,0,1,,,,,,,,,,,,,,,0,,,68,0
179760,set_tempo,240,1,0,,,,,,,,,,,,1385361,,,,,,,
179760,note_on,60,0,2,,,,,,,,,,,,,,,0,,,34,26
179760,note_on,0,0,1,,,,,,,,,,,,,,,0,,,63,0
179760,note_on,240,0,1,,,,,,,,,,,,,,,0,,,60,0
179760,note_on,0,0,1,,,,,,,,,,,,,,,0,,,66,35
179760,note_on,0,0,1,,,,,,,,,,,,,,,0,,,61,29
179760,note_on,0,0,1,,,,,,,,,,,,,,,0,,,58,29
179820,note_on,60,0,2,,,,,,,,,,,,,,,0,,,34,0
179880,note_on,60,0,2,,,,,,,,,,,,,,,0,,,36,26
179940,note_on,60,0,2,,,,,,,,,,,,,,,0,,,36,0
180000,note_on,0,0,1,,,,,,,,,,,,,,,0,,,65,35
180000,note_on,0,0,1,,,,,,,,,,,,,,,0,,,56,29
180000,note_on,0,0,1,,,,,,,,,,,,,,,0,,,58,0
180000,note_on,240,0,1,,,,,,,,,,,,,,,0,,,66,0
180000,note_on,60,0,2,,,,,,,,,,,,,,,0,,,37,26
180000,note_on,0,0,1,,,,,,,,,,,,,,,0,,,61,29
180000,note_on,0,0,1,,,,,,,,,,,,,,,0,,,61,0
180000,set_tempo,240,1,0,,,,,,,,,,,,1232792,,,,,,,
180035,control_change,35,0,2,,,,,,,,,,,,,,,0,64,127,,
180240,set_tempo,240,1,0,,,,,,,,,,,,1278500,,,,,,,
180240,note_on,0,0,2,,,,,,,,,,,,,,,0,,,44,23
180240,note_on,205,0,2,,,,,,,,,,,,,,,0,,,37,0
180480,note_on,0,0,1,,,,,,,,,,,,,,,0,,,56,0
180480,note_on,0,0,1,,,,,,,,,,,,,,,0,,,53,26
180480,note_on,0,0,1,,,,,,,,,,,,,,,0,,,56,26
180480,note_on,0,0,1,,,,,,,,,,,,,,,0,,,61,30
180480,note_on,0,0,1,,,,,,,,,,,,,,,0,,,61,0
180480,note_on,0,0,2,,,,,,,,,,,,,,,0,,,49,27
180480,note_on,240,0,2,,,,,,,,,,,,,,,0,,,44,0
180480,note_on,480,0,1,,,,,,,,,,,,,,,0,,,65,0
180720,note_on,240,0,2,,,,,,,,,,,,,,,0,,,49,0
180720,note_on,240,0,1,,,,,,,,,,,,,,,0,,,73,30
180960,set_tempo,720,1,0,,,,,,,,,,,,1313198,,,,,,,
180960,note_on,240,0,1,,,,,,,,,,,,,,,0,,,73,0
181040,set_tempo,80,1,0,,,,,,,,,,,,1327140,,,,,,,
181080,control_change,360,0,2,,,,,,,,,,,,,,,0,64,0,,
181080,note_on,0,0,2,,,,,,,,,,,,,,,0,,,49,30
181120,set_tempo,80,1,0,,,,,,,,,,,,1341082,,,,,,,
181140,note_on,60,0,2,,,,,,,,,,,,,,,0,,,49,0
181200,note_on,0,0,1,,,,,,,,,,,,,,,0,,,56,29
181200,note_on,240,0,1,,,,,,,,,,,,,,,0,,,53,0
181200,note_on,0,0,1,,,,,,,,,,,,,,,0,,,61,29
181200,note_on,0,0,1,,,,,,,,,,,,,,,0,,,65,35
181200,set_tempo,80,1,0,,,,,,,,,,,,1355626,,,,,,,
181200,note_on,0,0,1,,,,,,,,,,,,,,,0,,,56,0
181200,note_on,0,0,1,,,,,,,,,,,,,,,0,,,61,0
181200,note_on,60,0,2,,,,,,,,,,,,,,,0,,,48,30
181260,note_on,60,0,2,,,,,,,,,,,,,,,0,,,48,0
181280,set_tempo,80,1,0,,,,,,,,,,,,1370489,,,,,,,
181320,note_on,60,0,2,,,,,,,,,,,,,,,0,,,49,30
181360,set_tempo,80,1,0,,,,,,,,,,,,1385361,,,,,,,
181380,note_on,60,0,2,,,,,,,,,,,,,,,0,,,49,0
181400,set_tempo,40,1,0,,,,,,,,,,,,1400887,,,,,,,
181440,note_on,0,0,2,,,,,,,,,,,,,,,0,,,46,31
181440,control_change,60,0,2,,,,,,,,,,,,,,,0,64,0,,
181440,set_tempo,40,1,0,,,,,,,,,,,,1232792,,,,,,,
181440,note_on,240,0,1,,,,,,,,,,,,,,,0,,,65,0
181440,note_on,0,0,1,,,,,,,,,,,,,,,0,,,65,40
181440,note_on,0,0,1,,,,,,,,,,,,,,,0,,,55,34
181440,note_on,0,0,1,,,,,,,,,,,,,,,0,,,61,34
181440,note_on,0,0,1,,,,,,,,,,,,,,,0,,,56,0
181440,note_on,0,0,1,,,,,,,,,,,,,,,0,,,61,0
181475,control_change,35,0,2,,,,,,,,,,,,,,,0,64,127,,
181680,note_on,240,0,1,,,,,,,,,,,,,,,0,,,70,35
181680,set_tempo,240,1,0,,,,,,,,,,,,1278500,,,,,,,
181680,note_on,205,0,2,,,,,,,,,,,,,,,0,,,46,0
181800,note_on,120,0,1,,,,,,,,,,,,,,,0,,,70,0
181800,note_on,0,0,1,,,,,,,,,,,,,,,0,,,63,40
181800,note_on,0,0,1,,,,,,,,,,,,,,,0,,,65,0
181920,note_on,120,0,1,,,,,,,,,,,,,,,0,,,63,0
181920,note_on,0,0,1,,,,,,,,,,,,,,,0,,,61,0
181920,note_on,0,0,1,,,,,,,,,,,,,,,0,,,55,0
181920,note_on,0,0,1,,,,,,,,,,,,,,,0,,,55,30
181920,note_on,0,0,1,,,,,,,,,,,,,,,0,,,61,30
181920,note_on,0,0,1,,,,,,,,,,,,,,,0,,,63,36
181920,note_on,0,0,1,,,,,,,,,,,,,,,0,,,82,35
182160,note_on,240,0,1,,,,,,,,,,,,,,,0,,,82,0
182360,set_tempo,680,1,0,,,,,,,,,,,,1286449,,,,,,,
182440,set_tempo,80,1,0,,,,,,,,,,,,1299827,,,,,,,
182502,control_change,822,0,2,,,,,,,,,,,,,,,0,64,0,,
182520,note_on,18,0,2,,,,,,,,,,,,,,,0,,,46,30
182520,set_tempo,80,1,0,,,,,,,,,,,,1313198,,,,,,,
182580,note_on,60,0,2,,,,,,,,,,,,,,,0,,,46,0
182600,set_tempo,80,1,0,,,,,,,,,,,,1327140,,,,,,,
182640,note_on,0,0,1,,,,,,,,,,,,,,,0,,,61,33
182640,note_on,0,0,1,,,,,,,,,,,,,,,0,,,63,39
182640,note_on,0,0,1,,,,,,,,,,,,,,,0,,,61,0
182640,note_on,480,0,1,,,,,,,,,,,,,,,0,,,55,0
182640,note_on,0,0,1,,,,,,,,,,,,,,,0,,,63,0
182640,note_on,0,0,1,,,,,,,,,,,,,,,0,,,55,33
182640,note_on,60,0,2,,,,,,,,,,,,,,,0,,,46,30
182680,set_tempo,80,1,0,,,,,,,,,,,,1341082,,,,,,,
182700,note_on,60,0,2,,,,,,,,,,,,,,,0,,,46,0
182760,note_on,60,0,2,,,,,,,,,,,,,,,0,,,49,30
182760,set_tempo,80,1,0,,,,,,,,,,,,1355626,,,,,,,
182820,note_on,60,0,2,,,,,,,,,,,,,,,0,,,49,0
182840,set_tempo,80,1,0,,,,,,,,,,,,1370489,,,,,,,
182880,note_on,60,0,2,,,,,,,,,,,,,,,0,,,45,31
182880,note_on,240,0,1,,,,,,,,,,,,,,,0,,,63,0
182880,note_on,0,0,1,,,,,,,,,,,,,,,0,,,55,0
182880,note_on,0,0,1,,,,,,,,,,,,,,,0,,,54,37
182880,note_on,0,0,1,,,,,,,,,,,,,,,0,,,61,37
182880,note_on,0,0,1,,,,,,,,,,,,,,,0,,,64,44
182880,set_tempo,40,1,0,,,,,,,,,,,,1232792,,,,,,,
182880,note_on,0,0,1,,,,,,,,,,,,,,,0,,,61,0
182915,control_change,35,0,2,,,,,,,,,,,,,,,0,64,127,,
183120,note_on,205,0,2,,,,,,,,,,,,,,,0,,,45,0
183120,note_on,240,0,1,,,,,,,,,,,,,,,0,,,69,35
183120,set_tempo,240,1,0,,,,,,,,,,,,1278500,,,,,,,
183240,note_on,120,0,1,,,,,,,,,,,,,,,0,,,69,0
183240,note_on,0,0,1,,,,,,,,,,,,,,,0,,,63,40
183240,note_on,0,0,1,,,,,,,,,,,,,,,0,,,64,0
183360,note_on,120,0,1,,,,,,,,,,,,,,,0,,,63,0
183360,note_on,0,0,1,,,,,,,,,,,,,,,0,,,63,36
183360,note_on,0,0,1,,,,,,,,,,,,,,,0,,,61,30
183360,note_on,0,0,1,,,,,,,,,,,,,,,0,,,61,0
183360,note_on,0,0,1,,,,,,,,,,,,,,,0,,,81,35
183360,note_on,0,0,1,,,,,,,,,,,,,,,0,,,54,0
183360,note_on,0,0,1,,,,,,,,,,,,,,,0,,,54,30
183600,note_on,240,0,1,,,,,,,,,,,,,,,0,,,81,0
183840,set_tempo,720,1,0,,,,,,,,,,,,1273615,,,,,,,
183920,set_tempo,80,1,0,,,,,,,,,,,,1286449,,,,,,,
183956,control_change,836,0,2,,,,,,,,,,,,,,,0,64,0,,
183960,note_on,4,0,2,,,,,,,,,,,,,,,0,,,45,30
184000,set_tempo,80,1,0,,,,,,,,,,,,1299827,,,,,,,
184020,note_on,60,0,2,,,,,,,,,,,,,,,0,,,45,0
184040,set_tempo,40,1,0,,,,,,,,,,,,1313198,,,,,,,
184080,note_on,0,0,1,,,,,,,,,,,,,,,0,,,63,0
184080,note_on,480,0,1,,,,,,,,,,,,,,,0,,,54,0
184080,note_on,0,0,1,,,,,,,,,,,,,,,0,,,61,0
184080,note_on,0,0,1,,,,,,,,,,,,,,,0,,,63,36
184080,note_on,60,0,2,,,,,,,,,,,,,,,0,,,45,30
184080,note_on,0,0,1,,,,,,,,,,,,,,,0,,,54,30
184080,note_on,0,0,1,,,,,,,,,,,,,,,0,,,61,30
184120,set_tempo,80,1,0,,,,,,,,,,,,1327140,,,,,,,
184140,note_on,60,0,2,,,,,,,,,,,,,,,0,,,45,0
184160,set_tempo,40,1,0,,,,,,,,,,,,1341082,,,,,,,
184200,note_on,60,0,2,,,,,,,,,,,,,,,0,,,49,30
184240,set_tempo,80,1,0,,,,,,,,,,,,1355626,,,,,,,
184260,note_on,60,0,2,,,,,,,,,,,,,,,0,,,49,0
184280,set_tempo,40,1,0,,,,,,,,,,,,1370489,,,,,,,
184320,note_on,240,0,1,,,,,,,,,,,,,,,0,,,63,0
184320,note_on,0,0,1,,,,,,,,,,,,,,,0,,,61,0
184320,note_on,0,0,1,,,,,,,,,,,,,,,0,,,54,34
184320,note_on,0,0,1,,,,,,,,,,,,,,,0,,,60,34
184320,note_on,0,0,1,,,,,,,,,,,,,,,0,,,63,40
184320,note_on,0,0,1,,,,,,,,,,,,,,,0,,,54,0
184320,note_on,60,0,2,,,,,,,,,,,,,,,0,,,44,31
184320,set_tempo,40,1,0,,,,,,,,,,,,1232792,,,,,,,
184355,control_change,35,0,2,,,,,,,,,,,,,,,0,64,127,,
184560,note_on,205,0,2,,,,,,,,,,,,,,,0,,,44,0
184560,set_tempo,240,1,0,,,,,,,,,,,,1278500,,,,,,,
184560,note_on,240,0,1,,,,,,,,,,,,,,,0,,,68,32
184680,note_on,120,0,1,,,,,,,,,,,,,,,0,,,68,0
184800,note_on,120,0,1,,,,,,,,,,,,,,,0,,,80,33
185040,note_on,0,0,1,,,,,,,,,,,,,,,0,,,60,0
185040,note_on,240,0,1,,,,,,,,,,,,,,,0,,,80,0
185040,note_on,0,0,1,,,,,,,,,,,,,,,0,,,63,0
185040,note_on,0,0,1,,,,,,,,,,,,,,,0,,,54,0
185040,note_on,0,0,1,,,,,,,,,,,,,,,0,,,65,35
185160,note_on,120,0,1,,,,,,,,,,,,,,,0,,,65,0
185160,note_on,0,0,1,,,,,,,,,,,,,,,0,,,66,35
185280,note_on,0,0,1,,,,,,,,,,,,,,,0,,,68,35
185280,note_on,120,0,1,,,,,,,,,,,,,,,0,,,66,0
185280,set_tempo,720,1,0,,,,,,,,,,,,1299827,,,,,,,
185377,control_change,817,0,2,,,,,,,,,,,,,,,0,64,0,,
185400,note_on,23,0,2,,,,,,,,,,,,,,,0,,,44,30
185400,set_tempo,120,1,0,,,,,,,,,,,,1313198,,,,,,,
185460,note_on,60,0,2,,,,,,,,,,,,,,,0,,,44,0
185520,note_on,240,0,1,,,,,,,,,,,,,,,0,,,68,0
185520,note_on,0,0,1,,,,,,,,,,,,,,,0,,,56,30
185520,note_on,0,0,1,,,,,,,,,,,,,,,0,,,60,30
185520,note_on,60,0,2,,,,,,,,,,,,,,,0,,,43,30
185520,set_tempo,120,1,0,,,,,,,,,,,,1327140,,,,,,,
185520,note_on,0,0,1,,,,,,,,,,,,,,,0,,,64,36
185580,note_on,60,0,2,,,,,,,,,,,,,,,0,,,43,0
185640,set_tempo,120,1,0,,,,,,,,,,,,1341082,,,,,,,
185640,note_on,60,0,2,,,,,,,,,,,,,,,0,,,44,30
185700,note_on,60,0,2,,,,,,,,,,,,,,,0,,,44,0
185720,set_tempo,80,1,0,,,,,,,,,,,,1355626,,,,,,,
185760,note_on,0,0,1,,,,,,,,,,,,,,,0,,,60,0
185760,note_on,0,0,1,,,,,,,,,,,,,,,0,,,56,0
185760,note_on,0,0,1,,,,,,,,,,,,,,,0,,,56,34
185760,note_on,0,0,1,,,,,,,,,,,,,,,0,,,61,34
185760,note_on,0,0,1,,,,,,,,,,,,,,,0,,,65,40
185760,note_on,60,0,2,,,,,,,,,,,,,,,0,,,37,31
185760,note_on,240,0,1,,,,,,,,,,,,,,,0,,,64,0
185760,set_tempo,40,1,0,,,,,,,,,,,,1232792,,,,,,,
185795,control_change,35,0,2,,,,,,,,,,,,,,,0,64,127,,
186000,note_on,205,0,2,,,,,,,,,,,,,,,0,,,37,0
186000,note_on,0,0,2,,,,,,,,,,,,,,,0,,,49,32
186000,set_tempo,240,1,0,,,,,,,,,,,,1278500,,,,,,,
186120,note_on,120,0,2,,,,,,,,,,,,,,,0,,,49,0
186240,note_on,480,0,1,,,,,,,,,,,,,,,0,,,73,35
186720,note_on,480,0,1,,,,,,,,,,,,,,,0,,,73,0
186720,set_tempo,720,1,0,,,,,,,,,,,,1286449,,,,,,,
186808,control_change,688,0,2,,,,,,,,,,,,,,,0,64,0,,
186840,set_tempo,120,1,0,,,,,,,,,,,,1299827,,,,,,,
186840,note_on,32,0,2,,,,,,,,,,,,,,,0,,,37,26
186900,note_on,60,0,2,,,,,,,,,,,,,,,0,,,37,0
186920,set_tempo,80,1,0,,,,,,,,,,,,1313198,,,,,,,
186960,note_on,0,0,1,,,,,,,,,,,,,,,0,,,61,30
186960,note_on,0,0,1,,,,,,,,,,,,,,,0,,,56,30
186960,note_on,0,0,1,,,,,,,,,,,,,,,0,,,61,0
186960,note_on,240,0,1,,,,,,,,,,,,,,,0,,,56,0
186960,note_on,60,0,2,,,,,,,,,,,,,,,0,,,36,26
186960,note_on,0,0,1,,,,,,,,,,,,,,,0,,,65,36
186960,note_on,0,0,1,,,,,,,,,,,,,,,0,,,65,0
187000,set_tempo,80,1,0,,,,,,,,,,,,1327140,,,,,,,
187020,note_on,60,0,2,,,,,,,,,,,,,,,0,,,36,0
187080,note_on,60,0,2,,,,,,,,,,,,,,,0,,,37,26
187080,set_tempo,80,1,0,,,,,,,,,,,,1341082,,,,,,,
187140,note_on,60,0,2,,,,,,,,,,,,,,,0,,,37,0
187160,set_tempo,80,1,0,,,,,,,,,,,,1355626,,,,,,,
187200,set_tempo,40,1,0,,,,,,,,,,,,1232792,,,,,,,
187200,note_on,0,0,2,,,,,,,,,,,,,,,0,,,34,26
187200,note_on,0,0,1,,,,,,,,,,,,,,,0,,,55,28
187200,note_on,0,0,1,,,,,,,,,,,,,,,0,,,56,0
187200,note_on,0,0,1,,,,,,,,,,,,,,,0,,,61,0
187200,note_on,240,0,1,,,,,,,,,,,,,,,0,,,65,0
187200,control_change,60,0,2,,,,,,,,,,,,,,,0,64,0,,
187200,note_on,0,0,1,,,,,,,,,,,,,,,0,,,65,34
187200,note_on,0,0,1,,,,,,,,,,,,,,,0,,,61,28
187235,control_change,35,0,2,,,,,,,,,,,,,,,0,64,127,,
187320,note_on,85,0,2,,,,,,,,,,,,,,,0,,,34,0
187440,note_on,120,0,2,,,,,,,,,,,,,,,0,,,46,29
187440,set_tempo,240,1,0,,,,,,,,,,,,1278500,,,,,,,
187560,note_on,0,0,1,,,,,,,,,,,,,,,0,,,63,34
187560,note_on,360,0,1,,,,,,,,,,,,,,,0,,,65,0
187560,note_on,120,0,2,,,,,,,,,,,,,,,0,,,46,0
187680,note_on,0,0,1,,,,,,,,,,,,,,,0,,,63,30
187680,note_on,0,0,1,,,,,,,,,,,,,,,0,,,61,25
187680,note_on,0,0,1,,,,,,,,,,,,,,,0,,,55,25
187680,note_on,0,0,1,,,,,,,,,,,,,,,0,,,70,29
187680,note_on,0,0,1,,,,,,,,,,,,,,,0,,,55,0
187680,note_on,0,0,1,,,,,,,,,,,,,,,0,,,61,0
187680,note_on,120,0,1,,,,,,,,,,,,,,,0,,,63,0
188160,note_on,480,0,1,,,,,,,,,,,,,,,0,,,70,0
188160,set_tempo,720,1,0,,,,,,,,,,,,1313198,,,,,,,
188262,control_change,702,0,2,,,,,,,,,,,,,,,0,64,0,,
188280,set_tempo,120,1,0,,,,,,,,,,,,1327140,,,,,,,
188280,note_on,18,0,2,,,,,,,,,,,,,,,0,,,34,25
188340,note_on,60,0,2,,,,,,,,,,,,,,,0,,,34,0
188360,set_tempo,80,1,0,,,,,,,,,,,,1341082,,,,,,,
188400,note_on,60,0,2,,,,,,,,,,,,,,,0,,,34,25
188400,note_on,0,0,1,,,,,,,,,,,,,,,0,,,61,0
188400,note_on,0,0,1,,,,,,,,,,,,,,,0,,,55,28
188400,note_on,0,0,1,,,,,,,,,,,,,,,0,,,63,33
188400,note_on,0,0,1,,,,,,,,,,,,,,,0,,,61,28
188400,note_on,0,0,1,,,,,,,,,,,,,,,0,,,63,0
188400,note_on,240,0,1,,,,,,,,,,,,,,,0,,,55,0
188440,set_tempo,80,1,0,,,,,,,,,,,,1355626,,,,,,,
188460,note_on,60,0,2,,,,,,,,,,,,,,,0,,,34,0
188520,note_on,60,0,2,,,,,,,,,,,,,,,0,,,37,25
188520,set_tempo,80,1,0,,,,,,,,,,,,1370489,,,,,,,
188580,note_on,60,0,2,,,,,,,,,,,,,,,0,,,37,0
188600,set_tempo,80,1,0,,,,,,,,,,,,1385361,,,,,,,
188640,note_on,0,0,1,,,,,,,,,,,,,,,0,,,61,31
188640,note_on,240,0,1,,,,,,,,,,,,,,,0,,,63,0
188640,note_on,0,0,1,,,,,,,,,,,,,,,0,,,61,0
188640,note_on,0,0,1,,,,,,,,,,,,,,,0,,,55,0
188640,note_on,0,0,1,,,,,,,,,,,,,,,0,,,54,31
188640,note_on,60,0,2,,,,,,,,,,,,,,,0,,,33,26
188640,note_on,0,0,1,,,,,,,,,,,,,,,0,,,64,37
188640,set_tempo,40,1,0,,,,,,,,,,,,1232792,,,,,,,
188675,control_change,35,0,2,,,,,,,,,,,,,,,0,64,127,,
188760,note_on,85,0,2,,,,,,,,,,,,,,,0,,,33,0
188880,set_tempo,240,1,0,,,,,,,,,,,,1278500,,,,,,,
188880,note_on,120,0,2,,,,,,,,,,,,,,,0,,,45,29
189000,note_on,120,0,2,,,,,,,,,,,,,,,0,,,45,0
189000,note_on,360,0,1,,,,,,,,,,,,,,,0,,,64,0
189000,note_on,0,0,1,,,,,,,,,,,,,,,0,,,63,34
189120,note_on,0,0,1,,,,,,,,,,,,,,,0,,,54,0
189120,note_on,0,0,1,,,,,,,,,,,,,,,0,,,69,29
189120,note_on,0,0,1,,,,,,,,,,,,,,,0,,,54,25
189120,note_on,0,0,1,,,,,,,,,,,,,,,0,,,61,25
189120,note_on,0,0,1,,,,,,,,,,,,,,,0,,,63,30
189120,note_on,0,0,1,,,,,,,,,,,,,,,0,,,61,0
189120,note_on,120,0,1,,,,,,,,,,,,,,,0,,,63,0
189360,note_on,240,0,1,,,,,,,,,,,,,,,0,,,69,0
189600,set_tempo,720,1,0,,,,,,,,,,,,1299827,,,,,,,
189716,control_change,716,0,2,,,,,,,,,,,,,,,0,64,0,,
189720,note_on,4,0,2,,,,,,,,,,,,,,,0,,,33,25
189720,set_tempo,120,1,0,,,,,,,,,,,,1313198,,,,,,,
189780,note_on,60,0,2,,,,,,,,,,,,,,,0,,,33,0
189840,note_on,60,0,2,,,,,,,,,,,,,,,0,,,33,25
189840,note_on,0,0,1,,,,,,,,,,,,,,,0,,,63,0
189840,note_on,0,0,1,,,,,,,,,,,,,,,0,,,63,30
189840,note_on,0,0,1,,,,,,,,,,,,,,,0,,,61,25
189840,note_on,0,0,1,,,,,,,,,,,,,,,0,,,54,25
189840,note_on,480,0,1,,,,,,,,,,,,,,,0,,,54,0
189840,set_tempo,120,1,0,,,,,,,,,,,,1327140,,,,,,,
189840,note_on,0,0,1,,,,,,,,,,,,,,,0,,,61,0
189900,note_on,60,0,2,,,,,,,,,,,,,,,0,,,33,0
189960,note_on,60,0,2,,,,,,,,,,,,,,,0,,,35,25
189960,set_tempo,120,1,0,,,,,,,,,,,,1341082,,,,,,,
190020,note_on,60,0,2,,,,,,,,,,,,,,,0,,,35,0
190040,set_tempo,80,1,0,,,,,,,,,,,,1355626,,,,,,,
190080,note_on,0,0,1,,,,,,,,,,,,,,,0,,,61,0
190080,note_on,240,0,1,,,,,,,,,,,,,,,0,,,63,0
190080,note_on,0,0,1,,,,,,,,,,,,,,,0,,,63,34
190080,note_on,0,0,1,,,,,,,,,,,,,,,0,,,60,28
190080,note_on,0,0,1,,,,,,,,,,,,,,,0,,,54,28
190080,note_on,0,0,1,,,,,,,,,,,,,,,0,,,54,0
190080,note_on,60,0,2,,,,,,,,,,,,,,,0,,,32,26
190080,set_tempo,40,1,0,,,,,,,,,,,,1232792,,,,,,,
190115,control_change,35,0,2,,,,,,,,,,,,,,,0,64,127,,
190200,note_on,85,0,2,,,,,,,,,,,,,,,0,,,32,0
190320,set_tempo,240,1,0,,,,,,,,,,,,1278500,,,,,,,
190320,note_on,120,0,2,,,,,,,,,,,,,,,0,,,44,29
190440,note_on,120,0,2,,,,,,,,,,,,,,,0,,,44,0
190560,note_on,120,0,2,,,,,,,,,,,,,,,0,,,56,29
190800,note_on,0,0,1,,,,,,,,,,,,,,,0,,,65,29
190800,note_on,0,0,1,,,,,,,,,,,,,,,0,,,54,0
190800,note_on,720,0,1,,,,,,,,,,,,,,,0,,,63,0
190800,note_on,0,0,1,,,,,,,,,,,,,,,0,,,60,0
190920,note_on,0,0,1,,,,,,,,,,,,,,,0,,,66,29
190920,note_on,120,0,1,,,,,,,,,,,,,,,0,,,65,0
191040,note_on,0,0,1,,,,,,,,,,,,,,,0,,,68,29
191040,note_on,120,0,1,,,,,,,,,,,,,,,0,,,66,0
191040,note_on,480,0,2,,,,,,,,,,,,,,,0,,,56,0
191040,set_tempo,720,1,0,,,,,,,,,,,,1313198,,,,,,,
191137,control_change,97,0,2,,,,,,,,,,,,,,,0,64,0,,
191160,set_tempo,120,1,0,,,,,,,,,,,,1327140,,,,,,,
191160,note_on,23,0,2,,,,,,,,,,,,,,,0,,,32,25
191220,note_on,60,0,2,,,,,,,,,,,,,,,0,,,32,0
191280,note_on,60,0,2,,,,,,,,,,,,,,,0,,,31,25
191280,note_on,0,0,1,,,,,,,,,,,,,,,0,,,54,25
191280,note_on,0,0,1,,,,,,,,,,,,,,,0,,,57,25
191280,note_on,240,0,1,,,,,,,,,,,,,,,0,,,68,0
191280,note_on,0,0,1,,,,,,,,,,,,,,,0,,,60,30
191280,set_tempo,120,1,0,,,,,,,,,,,,1341082,,,,,,,
191340,note_on,60,0,2,,,,,,,,,,,,,,,0,,,31,0
191400,note_on,60,0,2,,,,,,,,,,,,,,,0,,,32,25
191400,set_tempo,120,1,0,,,,,,,,,,,,1355626,,,,,,,
191460,note_on,60,0,2,,,,,,,,,,,,,,,0,,,32,0
191480,set_tempo,80,1,0,,,,,,,,,,,,1370489,,,,,,,
191520,note_on,0,0,2,,,,,,,,,,,,,,,0,,,53,25
191520,note_on,0,0,1,,,,,,,,,,,,,,,0,,,54,0
191520,note_on,0,0,1,,,,,,,,,,,,,,,0,,,57,0
191520,note_on,240,0,1,,,,,,,,,,,,,,,0,,,60,0
191520,set_tempo,40,1,0,,,,,,,,,,,,1232792,,,,,,,
191520,note_on,0,0,2,,,,,,,,,,,,,,,0,,,56,25
191520,note_on,60,0,2,,,,,,,,,,,,,,,0,,,61,30
191520,note_on,0,0,2,,,,,,,,,,,,,,,0,,,37,26
191555,control_change,35,0,2,,,,,,,,,,,,,,,0,64,127,,
191640,note_on,85,0,2,,,,,,,,,,,,,,,0,,,37,0
191760,note_on,120,0,2,,,,,,,,,,,,,,,0,,,49,27
191760,set_tempo,240,1,0,,,,,,,,,,,,1278500,,,,,,,
191880,note_on,120,0,2,,,,,,,,,,,,,,,0,,,49,0
192000,note_on,480,0,1,,,,,,,,,,,,,,,0,,,73,29
192000,set_tempo,240,1,0,,,,,,,,,,,,1327140,,,,,,,
192480,note_on,480,0,1,,,,,,,,,,,,,,,0,,,73,0
192480,set_tempo,480,1,0,,,,,,,,,,,,1341082,,,,,,,
192560,set_tempo,80,1,0,,,,,,,,,,,,1355626,,,,,,,
192568,control_change,688,0,2,,,,,,,,,,,,,,,0,64,0,,
192600,note_on,32,0,2,,,,,,,,,,,,,,,0,,,37,25
192640,set_tempo,80,1,0,,,,,,,,,,,,1370489,,,,,,,
192660,note_on,60,0,2,,,,,,,,,,,,,,,0,,,37,0
192680,set_tempo,40,1,0,,,,,,,,,,,,1385361,,,,,,,
192720,note_on,0,0,2,,,,,,,,,,,,,,,0,,,37,25
192720,note_on,60,0,2,,,,,,,,,,,,,,,0,,,61,0
192720,note_on,0,0,2,,,,,,,,,,,,,,,0,,,56,0
192720,note_on,0,0,2,,,,,,,,,,,,,,,0,,,53,0
192760,set_tempo,80,1,0,,,,,,,,,,,,1400887,,,,,,,
192780,note_on,60,0,2,,,,,,,,,,,,,,,0,,,37,0
192840,note_on,60,0,2,,,,,,,,,,,,,,,0,,,36,25
192840,set_tempo,80,1,0,,,,,,,,,,,,1416431,,,,,,,
192880,set_tempo,40,1,0,,,,,,,,,,,,1432665,,,,,,,
192900,note_on,60,0,2,,,,,,,,,,,,,,,0,,,36,0
192920,set_tempo,40,1,0,,,,,,,,,,,,1341082,,,,,,,
192960,note_on,0,0,2,,,,,,,,,,,,,,,0,,,58,25
192960,note_on,60,0,2,,,,,,,,,,,,,,,0,,,61,30
192960,set_tempo,40,1,0,,,,,,,,,,,,1232792,,,,,,,
192960,note_on,0,0,2,,,,,,,,,,,,,,,0,,,37,26
192960,note_on,0,0,2,,,,,,,,,,,,,,,0,,,54,25
192995,control_change,35,0,2,,,,,,,,,,,,,,,0,64,127,,
193080,note_on,85,0,2,,,,,,,,,,,,,,,0,,,37,0
193200,set_tempo,240,1,0,,,,,,,,,,,,1327140,,,,,,,
193200,note_on,120,0,2,,,,,,,,,,,,,,,0,,,49,27
193320,note_on,120,0,2,,,,,,,,,,,,,,,0,,,49,0
193440,note_on,960,0,1,,,,,,,,,,,,,,,0,,,73,29
193920,note_on,480,0,1,,,,,,,,,,,,,,,0,,,73,0
193920,set_tempo,720,1,0,,,,,,,,,,,,1327140,,,,,,,
194000,set_tempo,80,1,0,,,,,,,,,,,,1341082,,,,,,,
194008,control_change,688,0,2,,,,,,,,,,,,,,,0,64,0,,
194040,set_tempo,40,1,0,,,,,,,,,,,,1355626,,,,,,,
194040,note_on,32,0,2,,,,,,,,,,,,,,,0,,,37,25
194100,note_on,60,0,2,,,,,,,,,,,,,,,0,,,37,0
194120,set_tempo,80,1,0,,,,,,,,,,,,1370489,,,,,,,
194160,note_on,0,0,2,,,,,,,,,,,,,,,0,,,37,25
194160,set_tempo,40,1,0,,,,,,,,,,,,1385361,,,,,,,
194160,note_on,0,0,2,,,,,,,,,,,,,,,0,,,54,0
194160,note_on,60,0,2,,,,,,,,,,,,,,,0,,,61,0
194160,note_on,0,0,2,,,,,,,,,,,,,,,0,,,58,0
194200,set_tempo,40,1,0,,,,,,,,,,,,1400887,,,,,,,
194220,note_on,60,0,2,,,,,,,,,,,,,,,0,,,37,0
194280,note_on,60,0,2,,,,,,,,,,,,,,,0,,,36,25
194280,set_tempo,80,1,0,,,,,,,,,,,,1416431,,,,,,,
194320,set_tempo,40,1,0,,,,,,,,,,,,1432665,,,,,,,
194340,note_on,60,0,2,,,,,,,,,,,,,,,0,,,36,0
194360,set_tempo,40,1,0,,,,,,,,,,,,1449275,,,,,,,
194400,note_on,0,0,2,,,,,,,,,,,,,,,0,,,51,25
194400,note_on,60,0,2,,,,,,,,,,,,,,,0,,,61,30
194400,note_on,0,0,2,,,,,,,,,,,,,,,0,,,54,25
194400,note_on,0,0,2,,,,,,,,,,,,,,,0,,,37,26
194400,set_tempo,40,1,0,,,,,,,,,,,,1286449,,,,,,,
194435,control_change,35,0,2,,,,,,,,,,,,,,,0,64,127,,
194520,note_on,85,0,2,,,,,,,,,,,,,,,0,,,37,0
194640,set_tempo,240,1,0,,,,,,,,,,,,1370489,,,,,,,
194640,note_on,120,0,2,,,,,,,,,,,,,,,0,,,49,27
194760,note_on,120,0,2,,,,,,,,,,,,,,,0,,,49,0
194880,note_on,960,0,1,,,,,,,,,,,,,,,0,,,73,29
195320,set_tempo,680,1,0,,,,,,,,,,,,1370489,,,,,,,
195360,set_tempo,40,1,0,,,,,,,,,,,,1385361,,,,,,,
195360,note_on,480,0,1,,,,,,,,,,,,,,,0,,,73,0
195400,set_tempo,40,1,0,,,,,,,,,,,,1400887,,,,,,,
195440,set_tempo,40,1,0,,,,,,,,,,,,1416431,,,,,,,
195448,control_change,688,0,2,,,,,,,,,,,,,,,0,64,0,,
195480,set_tempo,40,1,0,,,,,,,,,,,,1449275,,,,,,,
195480,note_on,32,0,2,,,,,,,,,,,,,,,0,,,37,25
195520,set_tempo,40,1,0,,,,,,,,,,,,1465917,,,,,,,
195540,note_on,60,0,2,,,,,,,,,,,,,,,0,,,37,0
195560,set_tempo,40,1,0,,,,,,,,,,,,1500750,,,,,,,
195600,note_on,0,0,2,,,,,,,,,,,,,,,0,,,37,25
195600,note_on,0,0,2,,,,,,,,,,,,,,,0,,,51,0
195600,note_on,60,0,2,,,,,,,,,,,,,,,0,,,61,0
195600,set_tempo,40,1,0,,,,,,,,,,,,1518987,,,,,,,
195600,note_on,0,0,2,,,,,,,,,,,,,,,0,,,54,0
195640,set_tempo,40,1,0,,,,,,,,,,,,1556420,,,,,,,
195660,note_on,60,0,2,,,,,,,,,,,,,,,0,,,37,0
195680,set_tempo,40,1,0,,,,,,,,,,,,1576044,,,,,,,
195720,set_tempo,40,1,0,,,,,,,,,,,,1616379,,,,,,,
195720,note_on,60,0,2,,,,,,,,,,,,,,,0,,,36,25
195760,set_tempo,40,1,0,,,,,,,,,,,,1637555,,,,,,,
195780,note_on,60,0,2,,,,,,,,,,,,,,,0,,,36,0
195800,set_tempo,40,1,0,,,,,,,,,,,,1681143,,,,,,,
195840,note_on,60,0,2,,,,,,,,,,,,,,,0,,,37,26
195840,note_on,0,0,2,,,,,,,,,,,,,,,0,,,53,25
195840,note_on,0,0,2,,,,,,,,,,,,,,,0,,,56,25
195840,note_on,0,0,2,,,,,,,,,,,,,,,0,,,61,30
195840,set_tempo,40,1,0,,,,,,,,,,,,1576044,,,,,,,
195882,control_change,42,0,2,,,,,,,,,,,,,,,0,64,127,,
196080,note_on,720,0,1,,,,,,,,,,,,,,,0,,,68,26
196080,note_on,198,0,2,,,,,,,,,,,,,,,0,,,37,0
196140,note_on,60,0,1,,,,,,,,,,,,,,,0,,,68,0
196320,note_on,0,0,2,,,,,,,,,,,,,,,0,,,61,0
196320,note_on,0,0,2,,,,,,,,,,,,,,,0,,,56,22
196320,note_on,180,0,1,,,,,,,,,,,,,,,0,,,73,28
196320,note_on,0,0,2,,,,,,,,,,,,,,,0,,,53,22
196320,note_on,0,0,2,,,,,,,,,,,,,,,0,,,61,27
196320,note_on,0,0,2,,,,,,,,,,,,,,,0,,,56,0
196320,note_on,240,0,2,,,,,,,,,,,,,,,0,,,53,0
196380,note_on,60,0,1,,,,,,,,,,,,,,,0,,,73,0
196560,note_on,180,0,1,,,,,,,,,,,,,,,0,,,80,28
196620,note_on,60,0,1,,,,,,,,,,,,,,,0,,,80,0
196800,note_on,180,0,1,,,,,,,,,,,,,,,0,,,85,28
196800,note_on,480,0,2,,,,,,,,,,,,,,,0,,,61,0
196800,note_on,0,0,2,,,,,,,,,,,,,,,0,,,61,27
196800,note_on,0,0,2,,,,,,,,,,,,,,,0,,,56,22
196800,note_on,0,0,2,,,,,,,,,,,,,,,0,,,53,22
196800,note_on,0,0,2,,,,,,,,,,,,,,,0,,,56,0
196800,set_tempo,960,1,0,,,,,,,,,,,,1658833,,,,,,,
196800,note_on,0,0,2,,,,,,,,,,,,,,,0,,,53,0
196860,end_of_track,0,1,1,,,,,,,,,,,,,,,,,,,
196860,note_on,60,0,1,,,,,,,,,,,,,,,0,,,85,0
197040,set_tempo,240,1,0,,,,,,,,,,,,1827040,,,,,,,
197040,note_on,240,0,2,,,,,,,,,,,,,,,0,,,32,22
197100,note_on,60,0,2,,,,,,,,,,,,,,,0,,,32,0
197280,note_on,180,0,2,,,,,,,,,,,,,,,0,,,53,0
197280,note_on,0,0,2,,,,,,,,,,,,,,,0,,,56,0
197280,note_on,0,0,2,,,,,,,,,,,,,,,0,,,37,23
197280,note_on,0,0,2,,,,,,,,,,,,,,,0,,,61,0
197280,note_on,0,0,2,,,,,,,,,,,,,,,0,,,56,22
197280,note_on,0,0,2,,,,,,,,,,,,,,,0,,,61,27
197280,note_on,0,0,2,,,,,,,,,,,,,,,0,,,53,22
198720,note_on,1440,0,2,,,,,,,,,,,,,,,0,,,61,0
198720,note_on,0,0,2,,,,,,,,,,,,,,,0,,,37,0
198720,note_on,0,0,2,,,,,,,,,,,,,,,0,,,53,0
198720,note_on,0,0,2,,,,,,,,,,,,,,,0,,,56,0
199893,end_of_track,0,1,2,,,,,,,,,,,,,,,,,,,
199893,control_change,1173,0,2,,,,,,,,,,,,,,,0,64,0,,
199895,set_tempo,2855,1,0,,,,,,,,,,,,1739130,,,,,,,
200160,set_tempo,265,1,0,,,,,,,,,,,,1173479,,,,,,,
200160,end_of_track,0,1,0,,,,,,,,,,,,,,,,,,,
