tick,type,time,meta,track,numerator,denominator,clocks_per_click,notated_32nd_notes_per_beat,key,tempo,port,program,channel,control,value,note,velocity
0,track_name,0,1,0,,,,,,,,,,,,,
0,midi_port,0,1,2,,,,,,,0,,,,,,
0,track_name,0,1,2,,,,,,,,,,,,,
0,program_change,0,0,2,,,,,,,,0,1,,,,
0,control_change,0,0,2,,,,,,,,,1,7,127,,
0,control_change,0,0,2,,,,,,,,,1,10,97,,
0,control_change,0,0,2,,,,,,,,,1,64,127,,
0,midi_port,0,1,1,,,,,,,0,,,,,,
0,track_name,0,1,1,,,,,,,,,,,,,
0,program_change,0,0,1,,,,,,,,0,0,,,,
0,midi_port,0,1,4,,,,,,,0,,,,,,
0,control_change,0,0,1,,,,,,,,,0,7,127,,
0,control_change,0,0,1,,,,,,,,,0,64,127,,
0,track_name,0,1,3,,,,,,,,,,,,,
0,program_change,0,0,3,,,,,,,,0,2,,,,
0,control_change,0,0,3,,,,,,,,,2,7,127,,
0,control_change,0,0,3,,,,,,,,,2,10,30,,
0,control_change,0,0,3,,,,,,,,,2,64,127,,
0,control_change,0,0,3,,,,,,,,,2,64,127,,
0,note_on,0,0,3,,,,,,,,,2,,,62,49
0,note_on,0,0,3,,,,,,,,,2,,,66,49
0,control_change,0,0,1,,,,,,,,,0,10,97,,
0,track_name,0,1,4,,,,,,,,,,,,,
0,midi_port,0,1,3,,,,,,,0,,,,,,
0,control_change,0,0,4,,,,,,,,,3,7,127,,
0,control_change,0,0,4,,,,,,,,,3,10,30,,
0,control_change,0,0,4,,,,,,,,,3,64,127,,
0,program_change,0,0,4,,,,,,,,0,3,,,,
0,copyright,0,1,0,,,,,,,,,,,,,
0,text,0,1,0,,,,,,,,,,,,,
0,time_signature,0,1,0,4,4,24,8,,,,,,,,,
0,key_signature,0,1,0,,,,,D,,,,,,,,
0,set_tempo,0,1,0,,,,,,434783,,,,,,,
12,note_on,0,0,3,,,,,,,,,2,,,62,0
12,note_on,12,0,3,,,,,,,,,2,,,66,0
120,note_on,108,0,3,,,,,,,,,2,,,57,49
120,note_on,0,0,3,,,,,,,,,2,,,66,49
132,note_on,0,0,3,,,,,,,,,2,,,57,0
132,note_on,12,0,3,,,,,,,,,2,,,66,0
240,note_on,0,0,3,,,,,,,,,2,,,66,49
240,note_on,108,0,3,,,,,,,,,2,,,62,49
252,note_on,0,0,3,,,,,,,,,2,,,62,0
252,note_on,12,0,3,,,,,,,,,2,,,66,0
360,note_on,108,0,3,,,,,,,,,2,,,57,49
360,note_on,0,0,3,,,,,,,,,2,,,66,49
372,note_on,12,0,3,,,,,,,,,2,,,66,0
372,note_on,0,0,3,,,,,,,,,2,,,57,0
480,note_on,0,0,3,,,,,,,,,2,,,66,49
480,note_on,108,0,3,,,,,,,,,2,,,62,49
492,note_on,0,0,3,,,,,,,,,2,,,62,0
492,note_on,12,0,3,,,,,,,,,2,,,66,0
600,note_on,0,0,3,,,,,,,,,2,,,66,49
600,note_on,108,0,3,,,,,,,,,2,,,57,49
612,note_on,0,0,3,,,,,,,,,2,,,57,0
612,note_on,12,0,3,,,,,,,,,2,,,66,0
720,note_on,0,0,3,,,,,,,,,2,,,66,36
720,note_on,108,0,3,,,,,,,,,2,,,62,36
720,note_on,720,0,1,,,,,,,,,0,,,81,49
732,note_on,12,0,3,,,,,,,,,2,,,66,0
732,note_on,0,0,3,,,,,,,,,2,,,62,0
810,note_on,90,0,1,,,,,,,,,0,,,81,0
810,note_on,0,0,1,,,,,,,,,0,,,83,49
840,control_change,108,0,3,,,,,,,,,2,64,0,,
840,note_on,30,0,1,,,,,,,,,0,,,83,0
840,note_on,0,0,3,,,,,,,,,2,,,66,36
840,note_on,0,0,3,,,,,,,,,2,,,57,36
840,note_on,0,0,1,,,,,,,,,0,,,81,49
852,note_on,0,0,3,,,,,,,,,2,,,57,0
852,note_on,12,0,3,,,,,,,,,2,,,66,0
930,note_on,0,0,1,,,,,,,,,0,,,78,49
930,control_change,0,0,1,,,,,,,,,0,64,0,,
930,note_on,90,0,1,,,,,,,,,0,,,81,0
960,control_change,960,0,2,,,,,,,,,1,64,127,,
960,control_change,0,0,4,,,,,,,,,3,64,127,,
960,control_change,960,0,4,,,,,,,,,3,64,127,,
960,control_change,108,0,3,,,,,,,,,2,64,127,,
960,control_change,0,0,3,,,,,,,,,2,64,127,,
960,control_change,0,0,1,,,,,,,,,0,64,127,,
960,note_on,0,0,1,,,,,,,,,0,,,74,49
960,control_change,0,0,2,,,,,,,,,1,64,127,,
960,note_on,30,0,1,,,,,,,,,0,,,78,0
960,control_change,0,0,1,,,,,,,,,0,64,127,,
960,control_change,0,0,1,,,,,,,,,0,64,127,,
960,note_on,0,0,3,,,,,,,,,2,,,66,36
960,note_on,0,0,3,,,,,,,,,2,,,62,36
960,control_change,0,0,3,,,,,,,,,2,64,127,,
972,note_on,0,0,3,,,,,,,,,2,,,62,0
972,note_on,12,0,3,,,,,,,,,2,,,66,0
972,note_on,12,0,1,,,,,,,,,0,,,74,0
1080,note_on,0,0,3,,,,,,,,,2,,,57,36
1080,note_on,0,0,3,,,,,,,,,2,,,66,36
1080,note_on,0,0,1,,,,,,,,,0,,,74,49
1080,control_change,108,0,1,,,,,,,,,0,64,0,,
1080,control_change,108,0,3,,,,,,,,,2,64,0,,
1092,note_on,0,0,3,,,,,,,,,2,,,57,0
1092,note_on,12,0,1,,,,,,,,,0,,,74,0
1092,note_on,12,0,3,,,,,,,,,2,,,66,0
1185,note_on,93,0,1,,,,,,,,,0,,,74,49
1200,control_change,108,0,3,,,,,,,,,2,64,127,,
1200,note_on,0,0,3,,,,,,,,,2,,,67,36
1200,note_on,0,0,3,,,,,,,,,2,,,64,36
1200,note_on,15,0,1,,,,,,,,,0,,,74,0
1200,note_on,0,0,1,,,,,,,,,0,,,73,49
1200,control_change,0,0,1,,,,,,,,,0,64,127,,
1212,note_on,0,0,3,,,,,,,,,2,,,64,0
1212,note_on,12,0,3,,,,,,,,,2,,,67,0
1290,note_on,0,0,1,,,,,,,,,0,,,71,49
1290,note_on,90,0,1,,,,,,,,,0,,,73,0
1320,control_change,108,0,3,,,,,,,,,2,64,0,,
1320,note_on,0,0,1,,,,,,,,,0,,,73,49
1320,note_on,30,0,1,,,,,,,,,0,,,71,0
1320,note_on,0,0,3,,,,,,,,,2,,,57,36
1320,note_on,0,0,3,,,,,,,,,2,,,67,36
1332,note_on,12,0,3,,,,,,,,,2,,,67,0
1332,note_on,0,0,3,,,,,,,,,2,,,57,0
1410,note_on,90,0,1,,,,,,,,,0,,,73,0
1410,note_on,0,0,1,,,,,,,,,0,,,76,49
1410,control_change,0,0,1,,,,,,,,,0,64,0,,
1440,control_change,0,0,3,,,,,,,,,2,64,127,,
1440,note_on,30,0,1,,,,,,,,,0,,,76,0
1440,control_change,480,0,2,,,,,,,,,1,64,127,,
1440,control_change,108,0,3,,,,,,,,,2,64,127,,
1440,control_change,0,0,2,,,,,,,,,1,64,127,,
1440,note_on,0,0,3,,,,,,,,,2,,,66,36
1440,control_change,0,0,3,,,,,,,,,2,64,127,,
1440,note_on,0,0,3,,,,,,,,,2,,,62,36
1440,control_change,0,0,1,,,,,,,,,0,64,127,,
1440,control_change,0,0,1,,,,,,,,,0,64,127,,
1440,control_change,0,0,1,,,,,,,,,0,64,127,,
1440,note_on,0,0,1,,,,,,,,,0,,,69,49
1440,control_change,0,0,4,,,,,,,,,3,64,127,,
1440,control_change,480,0,4,,,,,,,,,3,64,127,,
1452,note_on,0,0,3,,,,,,,,,2,,,62,0
1452,note_on,12,0,3,,,,,,,,,2,,,66,0
1560,note_on,0,0,3,,,,,,,,,2,,,66,36
1560,note_on,0,0,3,,,,,,,,,2,,,57,36
1560,note_on,0,0,1,,,,,,,,,0,,,74,49
1560,control_change,108,0,3,,,,,,,,,2,64,0,,
1560,note_on,120,0,1,,,,,,,,,0,,,69,0
1560,control_change,0,0,1,,,,,,,,,0,64,0,,
1572,note_on,0,0,3,,,,,,,,,2,,,57,0
1572,note_on,12,0,3,,,,,,,,,2,,,66,0
1620,note_on,60,0,1,,,,,,,,,0,,,74,0
1680,note_on,0,0,1,,,,,,,,,0,,,76,49
1680,note_on,0,0,3,,,,,,,,,2,,,67,36
1680,note_on,0,0,3,,,,,,,,,2,,,61,36
1680,control_change,108,0,3,,,,,,,,,2,64,127,,
1680,control_change,60,0,1,,,,,,,,,0,64,127,,
1692,note_on,12,0,3,,,,,,,,,2,,,67,0
1692,note_on,0,0,3,,,,,,,,,2,,,61,0
1770,note_on,0,0,1,,,,,,,,,0,,,79,49
1770,note_on,90,0,1,,,,,,,,,0,,,76,0
1785,note_on,15,0,1,,,,,,,,,0,,,79,0
1785,note_on,0,0,1,,,,,,,,,0,,,79,49
1800,control_change,108,0,3,,,,,,,,,2,64,0,,
1800,note_on,0,0,3,,,,,,,,,2,,,57,36
1800,note_on,0,0,3,,,,,,,,,2,,,67,36
1807,note_on,22,0,1,,,,,,,,,0,,,83,49
1808,note_on,1,0,1,,,,,,,,,0,,,79,0
1812,note_on,12,0,3,,,,,,,,,2,,,67,0
1812,note_on,0,0,3,,,,,,,,,2,,,57,0
1867,note_on,59,0,1,,,,,,,,,0,,,83,0
1867,control_change,0,0,1,,,,,,,,,0,64,0,,
1867,note_on,0,0,1,,,,,,,,,0,,,81,49
1897,note_on,30,0,1,,,,,,,,,0,,,81,0
1920,control_change,0,0,1,,,,,,,,,0,64,127,,
1920,note_on,0,0,1,,,,,,,,,0,,,81,49
1920,control_change,480,0,2,,,,,,,,,1,64,127,,
1920,control_change,0,0,1,,,,,,,,,0,64,127,,
1920,control_change,23,0,1,,,,,,,,,0,64,127,,
1920,control_change,480,0,4,,,,,,,,,3,64,127,,
1920,control_change,0,0,2,,,,,,,,,1,64,127,,
1920,control_change,0,0,4,,,,,,,,,3,64,127,,
1920,note_on,0,0,3,,,,,,,,,2,,,62,36
1920,control_change,108,0,3,,,,,,,,,2,64,127,,
1920,note_on,0,0,3,,,,,,,,,2,,,66,36
1920,control_change,0,0,3,,,,,,,,,2,64,127,,
1920,control_change,0,0,3,,,,,,,,,2,64,127,,
1932,note_on,12,0,3,,,,,,,,,2,,,66,0
1932,note_on,0,0,3,,,,,,,,,2,,,62,0
1932,note_on,12,0,1,,,,,,,,,0,,,81,0
2040,note_on,0,0,1,,,,,,,,,0,,,81,49
2040,note_on,108,0,3,,,,,,,,,2,,,57,36
2040,control_change,108,0,1,,,,,,,,,0,64,0,,
2040,note_on,0,0,3,,,,,,,,,2,,,66,36
2052,note_on,0,0,3,,,,,,,,,2,,,57,0
2052,note_on,12,0,1,,,,,,,,,0,,,81,0
2052,note_on,12,0,3,,,,,,,,,2,,,66,0
2145,note_on,93,0,1,,,,,,,,,0,,,85,49
2160,control_change,0,0,1,,,,,,,,,0,64,127,,
2160,note_on,0,0,1,,,,,,,,,0,,,83,62
2160,control_change,108,0,3,,,,,,,,,2,64,127,,
2160,note_on,0,0,3,,,,,,,,,2,,,55,49
2160,note_on,0,0,3,,,,,,,,,2,,,62,49
2160,note_on,0,0,3,,,,,,,,,2,,,67,49
2160,note_on,15,0,1,,,,,,,,,0,,,85,0
2172,note_on,12,0,3,,,,,,,,,2,,,67,0
2172,note_on,0,0,3,,,,,,,,,2,,,62,0
2172,note_on,0,0,3,,,,,,,,,2,,,55,0
2250,note_on,90,0,1,,,,,,,,,0,,,83,0
2250,note_on,0,0,1,,,,,,,,,0,,,82,62
2280,note_on,0,0,3,,,,,,,,,2,,,62,49
2280,note_on,0,0,3,,,,,,,,,2,,,67,49
2280,note_on,108,0,3,,,,,,,,,2,,,59,49
2280,note_on,30,0,1,,,,,,,,,0,,,82,0
2280,note_on,0,0,1,,,,,,,,,0,,,83,62
2292,note_on,0,0,3,,,,,,,,,2,,,59,0
2292,note_on,0,0,3,,,,,,,,,2,,,62,0
2292,note_on,12,0,3,,,,,,,,,2,,,67,0
2370,note_on,90,0,1,,,,,,,,,0,,,83,0
2370,control_change,0,0,1,,,,,,,,,0,64,0,,
2370,note_on,0,0,1,,,,,,,,,0,,,86,62
2400,note_on,0,0,3,,,,,,,,,2,,,66,36
2400,control_change,0,0,3,,,,,,,,,2,64,127,,
2400,control_change,0,0,3,,,,,,,,,2,64,127,,
2400,control_change,108,0,3,,,,,,,,,2,64,127,,
2400,note_on,0,0,3,,,,,,,,,2,,,62,36
2400,control_change,480,0,4,,,,,,,,,3,64,127,,
2400,control_change,0,0,1,,,,,,,,,0,64,127,,
2400,control_change,0,0,2,,,,,,,,,1,64,127,,
2400,control_change,480,0,2,,,,,,,,,1,64,127,,
2400,note_on,30,0,1,,,,,,,,,0,,,86,0
2400,control_change,0,0,4,,,,,,,,,3,64,127,,
2400,control_change,0,0,1,,,,,,,,,0,64,127,,
2400,control_change,0,0,1,,,,,,,,,0,64,127,,
2400,note_on,0,0,1,,,,,,,,,0,,,81,49
2412,note_on,12,0,3,,,,,,,,,2,,,66,0
2412,note_on,0,0,3,,,,,,,,,2,,,62,0
2520,note_on,108,0,3,,,,,,,,,2,,,57,36
2520,note_on,0,0,3,,,,,,,,,2,,,66,36
2532,note_on,12,0,3,,,,,,,,,2,,,66,0
2532,note_on,0,0,3,,,,,,,,,2,,,57,0
2640,note_on,108,0,3,,,,,,,,,2,,,62,36
2640,note_on,0,0,3,,,,,,,,,2,,,66,36
2640,note_on,240,0,1,,,,,,,,,0,,,81,0
2640,note_on,0,0,1,,,,,,,,,0,,,81,49
2652,note_on,0,0,3,,,,,,,,,2,,,62,0
2652,note_on,12,0,3,,,,,,,,,2,,,66,0
2730,note_on,90,0,1,,,,,,,,,0,,,81,0
2730,note_on,0,0,1,,,,,,,,,0,,,83,49
2760,note_on,30,0,1,,,,,,,,,0,,,83,0
2760,note_on,0,0,1,,,,,,,,,0,,,81,49
2760,control_change,108,0,3,,,,,,,,,2,64,0,,
2760,note_on,0,0,3,,,,,,,,,2,,,57,36
2760,note_on,0,0,3,,,,,,,,,2,,,66,36
2772,note_on,0,0,3,,,,,,,,,2,,,57,0
2772,note_on,12,0,3,,,,,,,,,2,,,66,0
2850,note_on,0,0,1,,,,,,,,,0,,,78,49
2850,control_change,0,0,1,,,,,,,,,0,64,0,,
2850,note_on,90,0,1,,,,,,,,,0,,,81,0
2880,note_on,0,0,3,,,,,,,,,2,,,62,36
2880,control_change,0,0,3,,,,,,,,,2,64,127,,
2880,control_change,108,0,3,,,,,,,,,2,64,127,,
2880,control_change,0,0,3,,,,,,,,,2,64,127,,
2880,note_on,0,0,3,,,,,,,,,2,,,66,36
2880,control_change,480,0,2,,,,,,,,,1,64,127,,
2880,control_change,0,0,4,,,,,,,,,3,64,127,,
2880,note_on,30,0,1,,,,,,,,,0,,,78,0
2880,control_change,0,0,1,,,,,,,,,0,64,127,,
2880,control_change,0,0,2,,,,,,,,,1,64,127,,
2880,control_change,0,0,1,,,,,,,,,0,64,127,,
2880,note_on,0,0,1,,,,,,,,,0,,,74,49
2880,control_change,0,0,1,,,,,,,,,0,64,127,,
2880,control_change,480,0,4,,,,,,,,,3,64,127,,
2892,note_on,12,0,3,,,,,,,,,2,,,66,0
2892,note_on,12,0,1,,,,,,,,,0,,,74,0
2892,note_on,0,0,3,,,,,,,,,2,,,62,0
3000,note_on,0,0,1,,,,,,,,,0,,,74,49
3000,note_on,0,0,3,,,,,,,,,2,,,66,36
3000,control_change,108,0,3,,,,,,,,,2,64,0,,
3000,note_on,0,0,3,,,,,,,,,2,,,57,36
3000,control_change,108,0,1,,,,,,,,,0,64,0,,
3012,note_on,12,0,3,,,,,,,,,2,,,66,0
3012,note_on,0,0,3,,,,,,,,,2,,,57,0
3012,note_on,12,0,1,,,,,,,,,0,,,74,0
3105,note_on,93,0,1,,,,,,,,,0,,,74,49
3120,note_on,0,0,3,,,,,,,,,2,,,67,49
3120,note_on,0,0,3,,,,,,,,,2,,,64,49
3120,control_change,108,0,3,,,,,,,,,2,64,127,,
3120,control_change,0,0,1,,,,,,,,,0,64,127,,
3120,note_on,15,0,1,,,,,,,,,0,,,74,0
3120,note_on,0,0,1,,,,,,,,,0,,,73,62
3132,note_on,12,0,3,,,,,,,,,2,,,67,0
3132,note_on,0,0,3,,,,,,,,,2,,,64,0
3210,note_on,90,0,1,,,,,,,,,0,,,73,0
3210,note_on,0,0,1,,,,,,,,,0,,,71,62
3240,note_on,0,0,3,,,,,,,,,2,,,57,49
3240,note_on,0,0,1,,,,,,,,,0,,,73,62
3240,note_on,30,0,1,,,,,,,,,0,,,71,0
3240,control_change,108,0,3,,,,,,,,,2,64,0,,
3240,note_on,0,0,3,,,,,,,,,2,,,67,49
3252,note_on,0,0,3,,,,,,,,,2,,,57,0
3252,note_on,12,0,3,,,,,,,,,2,,,67,0
3330,note_on,0,0,1,,,,,,,,,0,,,78,62
3330,control_change,0,0,1,,,,,,,,,0,64,0,,
3330,note_on,90,0,1,,,,,,,,,0,,,73,0
3360,control_change,108,0,3,,,,,,,,,2,64,127,,
3360,control_change,0,0,3,,,,,,,,,2,64,127,,
3360,note_on,0,0,1,,,,,,,,,0,,,78,62
3360,control_change,0,0,1,,,,,,,,,0,64,127,,
3360,control_change,0,0,1,,,,,,,,,0,64,127,,
3360,control_change,0,0,1,,,,,,,,,0,64,127,,
3360,note_on,30,0,1,,,,,,,,,0,,,78,0
3360,control_change,480,0,2,,,,,,,,,1,64,127,,
3360,control_change,0,0,2,,,,,,,,,1,64,127,,
3360,control_change,0,0,4,,,,,,,,,3,64,127,,
3360,control_change,480,0,4,,,,,,,,,3,64,127,,
3360,control_change,0,0,3,,,,,,,,,2,64,127,,
3360,note_on,0,0,3,,,,,,,,,2,,,58,49
3360,note_on,0,0,3,,,,,,,,,2,,,66,49
3372,note_on,0,0,3,,,,,,,,,2,,,58,0
3372,note_on,12,0,3,,,,,,,,,2,,,66,0
3480,control_change,108,0,3,,,,,,,,,2,64,0,,
3480,note_on,0,0,3,,,,,,,,,2,,,61,49
3480,note_on,0,0,3,,,,,,,,,2,,,58,49
3492,note_on,0,0,3,,,,,,,,,2,,,58,0
3492,note_on,12,0,3,,,,,,,,,2,,,61,0
3600,control_change,0,0,1,,,,,,,,,0,64,127,,
3600,note_on,240,0,1,,,,,,,,,0,,,78,0
3600,note_on,0,0,1,,,,,,,,,0,,,79,49
3600,control_change,108,0,3,,,,,,,,,2,64,127,,
3600,note_on,0,0,3,,,,,,,,,2,,,59,36
3600,note_on,0,0,3,,,,,,,,,2,,,62,36
3612,note_on,0,0,3,,,,,,,,,2,,,59,0
3612,note_on,12,0,3,,,,,,,,,2,,,62,0
3639,note_on,39,0,1,,,,,,,,,0,,,83,49
3640,note_on,1,0,1,,,,,,,,,0,,,79,0
3679,note_on,39,0,1,,,,,,,,,0,,,83,0
3680,note_on,1,0,1,,,,,,,,,0,,,88,49
3720,note_on,40,0,1,,,,,,,,,0,,,88,0
3720,control_change,108,0,3,,,,,,,,,2,64,0,,
3720,note_on,0,0,3,,,,,,,,,2,,,55,36
3720,note_on,0,0,3,,,,,,,,,2,,,62,36
3720,note_on,0,0,1,,,,,,,,,0,,,86,49
3720,note_on,0,0,3,,,,,,,,,2,,,67,36
3732,note_on,0,0,3,,,,,,,,,2,,,55,0
3732,note_on,0,0,3,,,,,,,,,2,,,62,0
3732,note_on,12,0,3,,,,,,,,,2,,,67,0
3759,note_on,39,0,1,,,,,,,,,0,,,83,49
3760,note_on,1,0,1,,,,,,,,,0,,,86,0
3799,note_on,39,0,1,,,,,,,,,0,,,83,0
3800,control_change,1,0,1,,,,,,,,,0,64,0,,
3800,note_on,0,0,1,,,,,,,,,0,,,79,49
3840,control_change,0,0,1,,,,,,,,,0,64,127,,
3840,control_change,108,0,3,,,,,,,,,2,64,127,,
3840,note_on,0,0,3,,,,,,,,,2,,,62,36
3840,note_on,0,0,3,,,,,,,,,2,,,66,36
3840,control_change,0,0,1,,,,,,,,,0,64,127,,
3840,note_on,0,0,1,,,,,,,,,0,,,78,49
3840,control_change,480,0,2,,,,,,,,,1,64,127,,
3840,control_change,480,0,4,,,,,,,,,3,64,127,,
3840,control_change,0,0,3,,,,,,,,,2,64,127,,
3840,note_on,40,0,1,,,,,,,,,0,,,79,0
3852,note_on,12,0,3,,,,,,,,,2,,,66,0
3852,note_on,0,0,3,,,,,,,,,2,,,62,0
3900,note_on,60,0,1,,,,,,,,,0,,,78,0
3960,control_change,108,0,3,,,,,,,,,2,64,0,,
3960,note_on,0,0,3,,,,,,,,,2,,,57,36
3960,note_on,0,0,3,,,,,,,,,2,,,66,36
3960,control_change,60,0,1,,,,,,,,,0,64,0,,
3960,note_on,0,0,1,,,,,,,,,0,,,78,49
3972,note_on,0,0,3,,,,,,,,,2,,,57,0
3972,note_on,12,0,3,,,,,,,,,2,,,66,0
4080,control_change,108,0,3,,,,,,,,,2,64,127,,
4080,note_on,0,0,3,,,,,,,,,2,,,67,36
4080,note_on,0,0,3,,,,,,,,,2,,,61,36
4080,note_on,120,0,1,,,,,,,,,0,,,78,0
4080,control_change,0,0,1,,,,,,,,,0,64,127,,
4080,note_on,0,0,1,,,,,,,,,0,,,76,49
4092,note_on,0,0,3,,,,,,,,,2,,,61,0
4092,note_on,12,0,3,,,,,,,,,2,,,67,0
4119,note_on,39,0,1,,,,,,,,,0,,,79,49
4120,note_on,1,0,1,,,,,,,,,0,,,76,0
4159,note_on,39,0,1,,,,,,,,,0,,,79,0
4160,note_on,1,0,1,,,,,,,,,0,,,83,49
4200,note_on,40,0,1,,,,,,,,,0,,,83,0
4200,control_change,108,0,3,,,,,,,,,2,64,0,,
4200,note_on,0,0,3,,,,,,,,,2,,,57,36
4200,note_on,0,0,3,,,,,,,,,2,,,67,36
4200,note_on,0,0,1,,,,,,,,,0,,,81,49
4212,note_on,0,0,3,,,,,,,,,2,,,57,0
4212,note_on,12,0,3,,,,,,,,,2,,,67,0
4239,note_on,39,0,1,,,,,,,,,0,,,79,49
4240,note_on,1,0,1,,,,,,,,,0,,,81,0
4279,note_on,39,0,1,,,,,,,,,0,,,79,0
4280,control_change,1,0,1,,,,,,,,,0,64,0,,
4280,note_on,0,0,1,,,,,,,,,0,,,73,49
4320,control_change,480,0,2,,,,,,,,,1,64,127,,
4320,control_change,480,0,4,,,,,,,,,3,64,127,,
4320,note_on,0,0,3,,,,,,,,,2,,,62,36
4320,note_on,40,0,1,,,,,,,,,0,,,73,0
4320,control_change,108,0,3,,,,,,,,,2,64,127,,
4320,note_on,0,0,1,,,,,,,,,0,,,74,49
4320,control_change,0,0,1,,,,,,,,,0,64,127,,
4320,time_signature,4320,1,0,2,4,24,8,,,,,,,,,
4320,note_on,0,0,3,,,,,,,,,2,,,66,36
4560,control_change,0,0,3,,,,,,,,,2,64,127,,
4560,control_change,240,0,2,,,,,,,,,1,64,127,,
4560,note_on,0,0,1,,,,,,,,,0,,,62,49
4560,control_change,0,0,1,,,,,,,,,0,64,127,,
4560,control_change,0,0,1,,,,,,,,,0,64,127,,
4560,control_change,0,0,3,,,,,,,,,2,64,127,,
4560,note_on,240,0,3,,,,,,,,,2,,,66,0
4560,note_on,0,0,3,,,,,,,,,2,,,62,0
4560,control_change,240,0,4,,,,,,,,,3,64,127,,
4560,note_on,240,0,1,,,,,,,,,0,,,74,0
4560,note_on,0,0,3,,,,,,,,,2,,,50,36
4599,note_on,39,0,1,,,,,,,,,0,,,66,49
4599,note_on,39,0,3,,,,,,,,,2,,,54,36
4600,note_on,1,0,1,,,,,,,,,0,,,62,0
4600,note_on,1,0,3,,,,,,,,,2,,,50,0
4639,note_on,39,0,3,,,,,,,,,2,,,54,0
4639,note_on,39,0,1,,,,,,,,,0,,,66,0
4640,note_on,1,0,3,,,,,,,,,2,,,59,36
4640,note_on,1,0,1,,,,,,,,,0,,,71,49
4680,note_on,0,0,1,,,,,,,,,0,,,69,49
4680,note_on,0,0,3,,,,,,,,,2,,,57,36
4680,note_on,40,0,3,,,,,,,,,2,,,59,0
4680,note_on,40,0,1,,,,,,,,,0,,,71,0
4719,note_on,39,0,1,,,,,,,,,0,,,66,49
4719,note_on,39,0,3,,,,,,,,,2,,,54,36
4720,note_on,1,0,1,,,,,,,,,0,,,69,0
4720,note_on,1,0,3,,,,,,,,,2,,,57,0
4759,note_on,39,0,1,,,,,,,,,0,,,66,0
4759,note_on,39,0,3,,,,,,,,,2,,,54,0
4760,control_change,1,0,1,,,,,,,,,0,64,0,,
4760,note_on,0,0,1,,,,,,,,,0,,,62,49
4760,note_on,0,0,3,,,,,,,,,2,,,50,36
4760,control_change,1,0,3,,,,,,,,,2,64,0,,
4800,time_signature,480,1,0,4,4,24,8,,,,,,,,,
4800,note_on,0,0,3,,,,,,,,,2,,,49,54
4800,note_on,0,0,3,,,,,,,,,2,,,55,62
4800,control_change,240,0,2,,,,,,,,,1,64,127,,
4800,control_change,0,0,2,,,,,,,,,1,64,127,,
4800,control_change,0,0,4,,,,,,,,,3,64,127,,
4800,control_change,0,0,3,,,,,,,,,2,64,127,,
4800,control_change,0,0,3,,,,,,,,,2,64,127,,
4800,note_on,40,0,3,,,,,,,,,2,,,50,0
4800,note_on,40,0,1,,,,,,,,,0,,,62,0
4800,control_change,0,0,1,,,,,,,,,0,64,127,,
4800,control_change,0,0,1,,,,,,,,,0,64,127,,
4800,control_change,0,0,1,,,,,,,,,0,64,127,,
4800,note_on,0,0,1,,,,,,,,,0,,,57,67
4800,note_on,0,0,1,,,,,,,,,0,,,64,75
4800,control_change,240,0,4,,,,,,,,,3,64,127,,
4800,control_change,0,0,3,,,,,,,,,2,64,127,,
4812,note_on,0,0,3,,,,,,,,,2,,,49,0
4812,note_on,12,0,3,,,,,,,,,2,,,55,0
4812,note_on,12,0,1,,,,,,,,,0,,,64,0
4812,note_on,0,0,1,,,,,,,,,0,,,57,0
4920,control_change,108,0,3,,,,,,,,,2,64,0,,
4920,note_on,0,0,3,,,,,,,,,2,,,55,36
4920,note_on,0,0,3,,,,,,,,,2,,,45,36
4920,note_on,0,0,1,,,,,,,,,0,,,57,49
4920,control_change,108,0,1,,,,,,,,,0,64,0,,
4920,note_on,0,0,1,,,,,,,,,0,,,64,49
4932,note_on,0,0,3,,,,,,,,,2,,,45,0
4932,note_on,0,0,1,,,,,,,,,0,,,57,0
4932,note_on,12,0,3,,,,,,,,,2,,,55,0
4932,note_on,12,0,1,,,,,,,,,0,,,64,0
5040,note_on,0,0,3,,,,,,,,,2,,,55,36
5040,note_on,0,0,3,,,,,,,,,2,,,49,36
5040,control_change,108,0,1,,,,,,,,,0,64,127,,
5040,note_on,0,0,1,,,,,,,,,0,,,64,49
5040,control_change,108,0,3,,,,,,,,,2,64,127,,
5052,note_on,12,0,3,,,,,,,,,2,,,55,0
5052,note_on,0,0,3,,,,,,,,,2,,,49,0
5079,note_on,39,0,1,,,,,,,,,0,,,67,49
5080,note_on,1,0,1,,,,,,,,,0,,,64,0
5119,note_on,39,0,1,,,,,,,,,0,,,67,0
5120,note_on,1,0,1,,,,,,,,,0,,,73,49
5160,note_on,0,0,1,,,,,,,,,0,,,71,49
5160,control_change,108,0,3,,,,,,,,,2,64,0,,
5160,note_on,0,0,3,,,,,,,,,2,,,45,36
5160,note_on,0,0,3,,,,,,,,,2,,,55,36
5160,note_on,40,0,1,,,,,,,,,0,,,73,0
5172,note_on,0,0,3,,,,,,,,,2,,,45,0
5172,note_on,12,0,3,,,,,,,,,2,,,55,0
5199,note_on,39,0,1,,,,,,,,,0,,,67,49
5200,note_on,1,0,1,,,,,,,,,0,,,71,0
5239,note_on,39,0,1,,,,,,,,,0,,,67,0
5240,control_change,1,0,1,,,,,,,,,0,64,0,,
5240,note_on,0,0,1,,,,,,,,,0,,,64,49
5280,control_change,480,0,4,,,,,,,,,3,64,127,,
5280,note_on,0,0,3,,,,,,,,,2,,,50,36
5280,control_change,0,0,3,,,,,,,,,2,64,127,,
5280,control_change,0,0,3,,,,,,,,,2,64,127,,
5280,control_change,108,0,3,,,,,,,,,2,64,127,,
5280,control_change,0,0,2,,,,,,,,,1,64,127,,
5280,note_on,0,0,3,,,,,,,,,2,,,54,36
5280,control_change,0,0,4,,,,,,,,,3,64,127,,
5280,control_change,480,0,2,,,,,,,,,1,64,127,,
5280,note_on,0,0,1,,,,,,,,,0,,,57,49
5280,note_on,0,0,1,,,,,,,,,0,,,66,49
5280,note_on,0,0,1,,,,,,,,,0,,,62,49
5280,control_change,0,0,1,,,,,,,,,0,64,127,,
5280,control_change,0,0,1,,,,,,,,,0,64,127,,
5280,control_change,0,0,1,,,,,,,,,0,64,127,,
5280,note_on,40,0,1,,,,,,,,,0,,,64,0
5292,note_on,0,0,3,,,,,,,,,2,,,50,0
5292,note_on,12,0,3,,,,,,,,,2,,,54,0
5400,control_change,108,0,3,,,,,,,,,2,64,0,,
5400,note_on,0,0,3,,,,,,,,,2,,,45,36
5400,note_on,0,0,3,,,,,,,,,2,,,54,36
5412,note_on,12,0,3,,,,,,,,,2,,,54,0
5412,note_on,0,0,3,,,,,,,,,2,,,45,0
5520,note_on,240,0,1,,,,,,,,,0,,,66,0
5520,note_on,0,0,1,,,,,,,,,0,,,62,0
5520,note_on,0,0,1,,,,,,,,,0,,,57,0
5520,note_on,0,0,1,,,,,,,,,0,,,74,75
5520,control_change,0,0,1,,,,,,,,,0,64,127,,
5520,note_on,0,0,3,,,,,,,,,2,,,54,62
5520,note_on,0,0,3,,,,,,,,,2,,,50,54
5520,control_change,108,0,3,,,,,,,,,2,64,127,,
5532,note_on,12,0,3,,,,,,,,,2,,,54,0
5532,note_on,0,0,3,,,,,,,,,2,,,50,0
5559,note_on,39,0,1,,,,,,,,,0,,,78,49
5560,note_on,1,0,1,,,,,,,,,0,,,74,0
5599,note_on,39,0,1,,,,,,,,,0,,,78,0
5600,note_on,1,0,1,,,,,,,,,0,,,83,49
5640,control_change,108,0,3,,,,,,,,,2,64,0,,
5640,note_on,40,0,1,,,,,,,,,0,,,83,0
5640,note_on,0,0,3,,,,,,,,,2,,,54,36
5640,note_on,0,0,3,,,,,,,,,2,,,57,36
5640,note_on,0,0,1,,,,,,,,,0,,,81,49
5652,note_on,12,0,3,,,,,,,,,2,,,57,0
5652,note_on,0,0,3,,,,,,,,,2,,,54,0
5679,note_on,39,0,1,,,,,,,,,0,,,78,49
5680,note_on,1,0,1,,,,,,,,,0,,,81,0
5719,note_on,39,0,1,,,,,,,,,0,,,78,0
5720,control_change,1,0,1,,,,,,,,,0,64,0,,
5720,note_on,0,0,1,,,,,,,,,0,,,74,49
5760,control_change,108,0,3,,,,,,,,,2,64,127,,
5760,control_change,0,0,3,,,,,,,,,2,64,127,,
5760,note_on,0,0,3,,,,,,,,,2,,,52,54
5760,note_on,0,0,3,,,,,,,,,2,,,61,62
5760,control_change,0,0,3,,,,,,,,,2,64,127,,
5760,note_on,40,0,1,,,,,,,,,0,,,74,0
5760,control_change,0,0,4,,,,,,,,,3,64,127,,
5760,control_change,480,0,4,,,,,,,,,3,64,127,,
5760,note_on,0,0,1,,,,,,,,,0,,,73,75
5760,control_change,480,0,2,,,,,,,,,1,64,127,,
5760,control_change,0,0,2,,,,,,,,,1,64,127,,
5760,control_change,0,0,1,,,,,,,,,0,64,127,,
5760,control_change,0,0,1,,,,,,,,,0,64,127,,
5760,control_change,0,0,1,,,,,,,,,0,64,127,,
5772,note_on,12,0,3,,,,,,,,,2,,,61,0
5772,note_on,0,0,3,,,,,,,,,2,,,52,0
5799,note_on,39,0,1,,,,,,,,,0,,,69,49
5800,note_on,1,0,1,,,,,,,,,0,,,73,0
5839,note_on,39,0,1,,,,,,,,,0,,,69,0
5840,note_on,1,0,1,,,,,,,,,0,,,78,49
5880,note_on,0,0,3,,,,,,,,,2,,,61,36
5880,note_on,0,0,3,,,,,,,,,2,,,57,36
5880,note_on,0,0,1,,,,,,,,,0,,,76,49
5880,note_on,40,0,1,,,,,,,,,0,,,78,0
5880,control_change,108,0,3,,,,,,,,,2,64,0,,
5892,note_on,12,0,3,,,,,,,,,2,,,61,0
5892,note_on,0,0,3,,,,,,,,,2,,,57,0
5919,note_on,39,0,1,,,,,,,,,0,,,73,49
5920,note_on,1,0,1,,,,,,,,,0,,,76,0
5959,note_on,39,0,1,,,,,,,,,0,,,73,0
5960,note_on,0,0,1,,,,,,,,,0,,,69,49
5960,control_change,1,0,1,,,,,,,,,0,64,0,,
6000,note_on,40,0,1,,,,,,,,,0,,,69,0
6000,control_change,108,0,3,,,,,,,,,2,64,127,,
6000,note_on,0,0,1,,,,,,,,,0,,,68,75
6000,control_change,0,0,1,,,,,,,,,0,64,127,,
6000,note_on,0,0,3,,,,,,,,,2,,,62,62
6000,note_on,0,0,3,,,,,,,,,2,,,59,54
6012,note_on,12,0,3,,,,,,,,,2,,,62,0
6012,note_on,0,0,3,,,,,,,,,2,,,59,0
6039,note_on,39,0,1,,,,,,,,,0,,,64,49
6040,note_on,1,0,1,,,,,,,,,0,,,68,0
6079,note_on,39,0,1,,,,,,,,,0,,,64,0
6080,note_on,1,0,1,,,,,,,,,0,,,68,49
6120,control_change,108,0,3,,,,,,,,,2,64,0,,
6120,note_on,0,0,1,,,,,,,,,0,,,76,49
6120,note_on,0,0,3,,,,,,,,,2,,,62,36
6120,note_on,40,0,1,,,,,,,,,0,,,68,0
6120,note_on,0,0,3,,,,,,,,,2,,,52,36
6132,note_on,12,0,3,,,,,,,,,2,,,62,0
6132,note_on,0,0,3,,,,,,,,,2,,,52,0
6159,note_on,39,0,1,,,,,,,,,0,,,74,49
6160,note_on,1,0,1,,,,,,,,,0,,,76,0
6199,note_on,39,0,1,,,,,,,,,0,,,74,0
6200,control_change,1,0,1,,,,,,,,,0,64,0,,
6200,note_on,0,0,1,,,,,,,,,0,,,71,49
6240,note_on,0,0,3,,,,,,,,,2,,,57,36
6240,control_change,0,0,3,,,,,,,,,2,64,127,,
6240,control_change,0,0,3,,,,,,,,,2,64,127,,
6240,control_change,108,0,3,,,,,,,,,2,64,127,,
6240,control_change,0,0,1,,,,,,,,,0,64,127,,
6240,control_change,0,0,1,,,,,,,,,0,64,127,,
6240,control_change,0,0,2,,,,,,,,,1,64,127,,
6240,control_change,0,0,1,,,,,,,,,0,64,127,,
6240,control_change,480,0,2,,,,,,,,,1,64,127,,
6240,control_change,480,0,4,,,,,,,,,3,64,127,,
6240,control_change,0,0,4,,,,,,,,,3,64,127,,
6240,note_on,0,0,1,,,,,,,,,0,,,69,49
6240,note_on,0,0,3,,,,,,,,,2,,,61,36
6240,note_on,40,0,1,,,,,,,,,0,,,71,0
6360,note_on,120,0,1,,,,,,,,,0,,,69,0
6360,note_on,0,0,1,,,,,,,,,0,,,76,36
6360,note_on,0,0,1,,,,,,,,,0,,,73,36
6360,control_change,0,0,1,,,,,,,,,0,64,0,,
6372,note_on,0,0,1,,,,,,,,,0,,,73,0
6372,note_on,12,0,1,,,,,,,,,0,,,76,0
6480,note_on,0,0,1,,,,,,,,,0,,,69,36
6480,note_on,0,0,1,,,,,,,,,0,,,73,36
6480,note_on,240,0,3,,,,,,,,,2,,,61,0
6480,note_on,0,0,3,,,,,,,,,2,,,57,0
6480,control_change,0,0,3,,,,,,,,,2,64,127,,
6480,control_change,108,0,1,,,,,,,,,0,64,127,,
6480,note_on,0,0,1,,,,,,,,,0,,,76,36
6480,note_on,0,0,3,,,,,,,,,2,,,57,49
6492,note_on,12,0,1,,,,,,,,,0,,,76,0
6492,note_on,0,0,1,,,,,,,,,0,,,73,0
6492,note_on,0,0,1,,,,,,,,,0,,,69,0
6519,note_on,39,0,3,,,,,,,,,2,,,61,49
6520,note_on,1,0,3,,,,,,,,,2,,,57,0
6559,note_on,39,0,3,,,,,,,,,2,,,61,0
6560,note_on,1,0,3,,,,,,,,,2,,,66,49
6600,control_change,108,0,1,,,,,,,,,0,64,0,,
6600,note_on,0,0,1,,,,,,,,,0,,,73,36
6600,note_on,0,0,1,,,,,,,,,0,,,76,36
6600,note_on,0,0,3,,,,,,,,,2,,,64,49
6600,note_on,40,0,3,,,,,,,,,2,,,66,0
6612,note_on,0,0,1,,,,,,,,,0,,,73,0
6612,note_on,12,0,1,,,,,,,,,0,,,76,0
6639,note_on,39,0,3,,,,,,,,,2,,,61,49
6640,note_on,1,0,3,,,,,,,,,2,,,64,0
6679,note_on,39,0,3,,,,,,,,,2,,,61,0
6680,note_on,0,0,3,,,,,,,,,2,,,57,49
6680,control_change,1,0,3,,,,,,,,,2,64,0,,
6720,note_on,40,0,3,,,,,,,,,2,,,57,0
6720,control_change,0,0,3,,,,,,,,,2,64,127,,
6720,control_change,0,0,3,,,,,,,,,2,64,127,,
6720,control_change,0,0,3,,,,,,,,,2,64,127,,
6720,note_on,0,0,3,,,,,,,,,2,,,57,49
6720,control_change,0,0,4,,,,,,,,,3,64,127,,
6720,control_change,480,0,4,,,,,,,,,3,64,127,,
6720,control_change,108,0,1,,,,,,,,,0,64,127,,
6720,control_change,0,0,1,,,,,,,,,0,64,127,,
6720,control_change,0,0,1,,,,,,,,,0,64,127,,
6720,note_on,0,0,1,,,,,,,,,0,,,74,36
6720,note_on,0,0,1,,,,,,,,,0,,,78,36
6720,control_change,0,0,2,,,,,,,,,1,64,127,,
6720,control_change,480,0,2,,,,,,,,,1,64,127,,
6732,note_on,12,0,1,,,,,,,,,0,,,78,0
6732,note_on,0,0,1,,,,,,,,,0,,,74,0
6840,control_change,0,0,3,,,,,,,,,2,64,0,,
6840,note_on,0,0,3,,,,,,,,,2,,,56,49
6840,control_change,108,0,1,,,,,,,,,0,64,0,,
6840,note_on,0,0,1,,,,,,,,,0,,,74,36
6840,note_on,0,0,1,,,,,,,,,0,,,71,36
6840,control_change,0,0,1,,,,,,,,,0,64,0,,
6840,note_on,0,0,1,,,,,,,,,0,,,76,36
6840,note_on,120,0,3,,,,,,,,,2,,,57,0
6852,note_on,0,0,1,,,,,,,,,0,,,74,0
6852,note_on,0,0,1,,,,,,,,,0,,,71,0
6852,note_on,12,0,1,,,,,,,,,0,,,76,0
6900,note_on,60,0,3,,,,,,,,,2,,,56,0
6960,note_on,0,0,1,,,,,,,,,0,,,68,36
6960,note_on,0,0,1,,,,,,,,,0,,,71,36
6960,note_on,0,0,1,,,,,,,,,0,,,76,36
6960,note_on,0,0,3,,,,,,,,,2,,,59,49
6960,control_change,60,0,3,,,,,,,,,2,64,127,,
6960,control_change,108,0,1,,,,,,,,,0,64,127,,
6972,note_on,12,0,1,,,,,,,,,0,,,76,0
6972,note_on,0,0,1,,,,,,,,,0,,,71,0
6972,note_on,0,0,1,,,,,,,,,0,,,68,0
6999,note_on,39,0,3,,,,,,,,,2,,,62,49
7000,note_on,1,0,3,,,,,,,,,2,,,59,0
7039,note_on,39,0,3,,,,,,,,,2,,,62,0
7040,note_on,1,0,3,,,,,,,,,2,,,66,49
7080,note_on,0,0,1,,,,,,,,,0,,,71,36
7080,control_change,108,0,1,,,,,,,,,0,64,0,,
7080,note_on,40,0,3,,,,,,,,,2,,,66,0
7080,note_on,0,0,3,,,,,,,,,2,,,64,49
7080,note_on,0,0,1,,,,,,,,,0,,,76,36
7080,note_on,0,0,1,,,,,,,,,0,,,74,36
7092,note_on,0,0,1,,,,,,,,,0,,,74,0
7092,note_on,12,0,1,,,,,,,,,0,,,76,0
7092,note_on,0,0,1,,,,,,,,,0,,,71,0
7119,note_on,39,0,3,,,,,,,,,2,,,62,49
7120,note_on,1,0,3,,,,,,,,,2,,,64,0
7159,note_on,39,0,3,,,,,,,,,2,,,62,0
7160,note_on,0,0,3,,,,,,,,,2,,,59,49
7160,control_change,1,0,3,,,,,,,,,2,64,0,,
7200,control_change,108,0,1,,,,,,,,,0,64,127,,
7200,control_change,0,0,1,,,,,,,,,0,64,127,,
7200,control_change,0,0,1,,,,,,,,,0,64,127,,
7200,note_on,0,0,1,,,,,,,,,0,,,69,36
7200,note_on,0,0,1,,,,,,,,,0,,,78,36
7200,control_change,480,0,4,,,,,,,,,3,64,127,,
7200,control_change,480,0,2,,,,,,,,,1,64,127,,
7200,control_change,0,0,2,,,,,,,,,1,64,127,,
7200,control_change,0,0,4,,,,,,,,,3,64,127,,
7200,note_on,0,0,1,,,,,,,,,0,,,73,36
7200,note_on,0,0,3,,,,,,,,,2,,,61,49
7200,note_on,40,0,3,,,,,,,,,2,,,59,0
7200,control_change,0,0,3,,,,,,,,,2,64,127,,
7200,control_change,0,0,3,,,,,,,,,2,64,127,,
7200,control_change,0,0,3,,,,,,,,,2,64,127,,
7212,note_on,12,0,1,,,,,,,,,0,,,78,0
7212,note_on,0,0,1,,,,,,,,,0,,,69,0
7212,note_on,0,0,1,,,,,,,,,0,,,73,0
7320,note_on,108,0,1,,,,,,,,,0,,,69,36
7320,note_on,0,0,3,,,,,,,,,2,,,57,49
7320,control_change,0,0,3,,,,,,,,,2,64,0,,
7320,note_on,120,0,3,,,,,,,,,2,,,61,0
7320,note_on,0,0,1,,,,,,,,,0,,,76,36
7320,note_on,0,0,1,,,,,,,,,0,,,73,36
7332,note_on,12,0,1,,,,,,,,,0,,,76,0
7332,note_on,0,0,1,,,,,,,,,0,,,73,0
7332,note_on,0,0,1,,,,,,,,,0,,,69,0
7380,note_on,60,0,3,,,,,,,,,2,,,57,0
7440,control_change,108,0,1,,,,,,,,,0,64,127,,
7440,note_on,0,0,1,,,,,,,,,0,,,69,36
7440,note_on,0,0,1,,,,,,,,,0,,,73,36
7440,note_on,0,0,1,,,,,,,,,0,,,76,36
7440,note_on,0,0,3,,,,,,,,,2,,,55,49
7440,note_on,0,0,1,,,,,,,,,0,,,81,36
7440,control_change,60,0,3,,,,,,,,,2,64,127,,
7452,note_on,12,0,1,,,,,,,,,0,,,81,0
7452,note_on,0,0,1,,,,,,,,,0,,,69,0
7452,note_on,0,0,1,,,,,,,,,0,,,73,0
7452,note_on,0,0,1,,,,,,,,,0,,,76,0
7479,note_on,39,0,3,,,,,,,,,2,,,61,49
7480,note_on,1,0,3,,,,,,,,,2,,,55,0
7519,note_on,39,0,3,,,,,,,,,2,,,61,0
7520,note_on,1,0,3,,,,,,,,,2,,,66,49
7560,note_on,40,0,3,,,,,,,,,2,,,66,0
7560,note_on,0,0,3,,,,,,,,,2,,,64,49
7560,note_on,108,0,1,,,,,,,,,0,,,69,36
7560,note_on,0,0,1,,,,,,,,,0,,,73,36
7560,note_on,0,0,1,,,,,,,,,0,,,76,36
7560,note_on,0,0,1,,,,,,,,,0,,,81,36
7572,note_on,12,0,1,,,,,,,,,0,,,81,0
7572,note_on,0,0,1,,,,,,,,,0,,,69,0
7572,note_on,0,0,1,,,,,,,,,0,,,73,0
7572,note_on,0,0,1,,,,,,,,,0,,,76,0
7599,note_on,39,0,3,,,,,,,,,2,,,61,49
7600,note_on,1,0,3,,,,,,,,,2,,,64,0
7639,note_on,39,0,3,,,,,,,,,2,,,61,0
7640,note_on,0,0,3,,,,,,,,,2,,,55,49
7640,control_change,1,0,3,,,,,,,,,2,64,0,,
7680,control_change,0,0,1,,,,,,,,,0,64,127,,
7680,control_change,0,0,1,,,,,,,,,0,64,127,,
7680,control_change,0,0,1,,,,,,,,,0,64,127,,
7680,control_change,0,0,1,,,,,,,,,0,64,0,,
7680,note_on,0,0,1,,,,,,,,,0,,,69,36
7680,note_on,0,0,1,,,,,,,,,0,,,74,36
7680,note_on,0,0,1,,,,,,,,,0,,,81,36
7680,control_change,0,0,4,,,,,,,,,3,64,127,,
7680,control_change,480,0,4,,,,,,,,,3,64,0,,
7680,control_change,480,0,2,,,,,,,,,1,64,0,,
7680,control_change,0,0,2,,,,,,,,,1,64,127,,
7680,control_change,0,0,2,,,,,,,,,1,64,127,,
7680,control_change,0,0,2,,,,,,,,,1,64,0,,
7680,control_change,0,0,4,,,,,,,,,3,64,0,,
7680,control_change,108,0,1,,,,,,,,,0,64,0,,
7680,control_change,0,0,4,,,,,,,,,3,64,127,,
7680,note_on,40,0,3,,,,,,,,,2,,,55,0
7680,control_change,0,0,3,,,,,,,,,2,64,0,,
7680,control_change,0,0,3,,,,,,,,,2,64,0,,
7680,control_change,0,0,3,,,,,,,,,2,64,127,,
7680,control_change,0,0,3,,,,,,,,,2,64,127,,
7680,control_change,0,0,3,,,,,,,,,2,64,127,,
7680,note_on,0,0,3,,,,,,,,,2,,,54,49
7692,note_on,12,0,1,,,,,,,,,0,,,81,0
7692,note_on,0,0,1,,,,,,,,,0,,,74,0
7692,note_on,0,0,1,,,,,,,,,0,,,69,0
7719,note_on,39,0,3,,,,,,,,,2,,,57,49
7720,note_on,1,0,3,,,,,,,,,2,,,54,0
7759,note_on,39,0,3,,,,,,,,,2,,,57,0
7760,note_on,0,0,3,,,,,,,,,2,,,62,49
7760,control_change,1,0,3,,,,,,,,,2,64,0,,
7800,note_on,40,0,3,,,,,,,,,2,,,62,0
7800,note_on,0,0,3,,,,,,,,,2,,,53,62
7800,control_change,108,0,1,,,,,,,,,0,64,0,,
7800,note_on,0,0,1,,,,,,,,,0,,,71,49
7800,note_on,0,0,1,,,,,,,,,0,,,74,49
7800,note_on,0,0,1,,,,,,,,,0,,,83,49
7812,note_on,0,0,1,,,,,,,,,0,,,71,0
7812,note_on,0,0,1,,,,,,,,,0,,,74,0
7812,note_on,12,0,1,,,,,,,,,0,,,83,0
7839,note_on,39,0,3,,,,,,,,,2,,,57,62
7840,note_on,1,0,3,,,,,,,,,2,,,53,0
7879,note_on,39,0,3,,,,,,,,,2,,,57,0
7880,note_on,1,0,3,,,,,,,,,2,,,62,62
7920,control_change,0,0,3,,,,,,,,,2,64,127,,
7920,note_on,0,0,3,,,,,,,,,2,,,52,62
7920,note_on,40,0,3,,,,,,,,,2,,,62,0
7920,note_on,0,0,1,,,,,,,,,0,,,76,49
7920,control_change,108,0,1,,,,,,,,,0,64,127,,
7920,note_on,0,0,1,,,,,,,,,0,,,73,49
7932,note_on,0,0,1,,,,,,,,,0,,,73,0
7932,note_on,12,0,1,,,,,,,,,0,,,76,0
7959,note_on,39,0,3,,,,,,,,,2,,,57,62
7960,note_on,1,0,3,,,,,,,,,2,,,52,0
7999,note_on,39,0,3,,,,,,,,,2,,,57,0
8000,note_on,1,0,3,,,,,,,,,2,,,61,62
8040,control_change,108,0,1,,,,,,,,,0,64,0,,
8040,note_on,0,0,1,,,,,,,,,0,,,68,36
8040,note_on,0,0,1,,,,,,,,,0,,,74,36
8040,note_on,0,0,1,,,,,,,,,0,,,76,36
8040,note_on,0,0,1,,,,,,,,,0,,,80,36
8040,note_on,40,0,3,,,,,,,,,2,,,61,0
8040,control_change,0,0,3,,,,,,,,,2,64,0,,
8040,note_on,0,0,3,,,,,,,,,2,,,64,49
8052,note_on,0,0,1,,,,,,,,,0,,,68,0
8052,note_on,0,0,1,,,,,,,,,0,,,74,0
8052,note_on,0,0,1,,,,,,,,,0,,,76,0
8052,note_on,12,0,1,,,,,,,,,0,,,80,0
8079,note_on,39,0,3,,,,,,,,,2,,,62,49
8080,note_on,1,0,3,,,,,,,,,2,,,64,0
8119,note_on,39,0,3,,,,,,,,,2,,,62,0
8120,note_on,1,0,3,,,,,,,,,2,,,59,49
8160,note_on,0,0,1,,,,,,,,,0,,,69,36
8160,control_change,0,0,1,,,,,,,,,0,64,127,,
8160,control_change,0,0,1,,,,,,,,,0,64,127,,
8160,control_change,108,0,1,,,,,,,,,0,64,0,,
8160,note_on,0,0,1,,,,,,,,,0,,,76,36
8160,note_on,0,0,1,,,,,,,,,0,,,81,36
8160,note_on,0,0,1,,,,,,,,,0,,,73,36
8160,control_change,0,0,2,,,,,,,,,1,64,127,,
8160,control_change,0,0,3,,,,,,,,,2,64,127,,
8160,note_on,40,0,3,,,,,,,,,2,,,59,0
8160,control_change,0,0,3,,,,,,,,,2,64,0,,
8160,note_on,0,0,3,,,,,,,,,2,,,57,49
8160,control_change,480,0,4,,,,,,,,,3,64,0,,
8160,control_change,0,0,4,,,,,,,,,3,64,127,,
8160,control_change,480,0,2,,,,,,,,,1,64,0,,
8280,note_on,0,0,3,,,,,,,,,2,,,69,49
8280,note_on,0,0,3,,,,,,,,,2,,,61,49
8280,note_on,0,0,3,,,,,,,,,2,,,57,49
8280,note_on,120,0,3,,,,,,,,,2,,,57,0
8400,note_on,0,0,3,,,,,,,,,2,,,62,49
8400,note_on,0,0,3,,,,,,,,,2,,,59,49
8400,control_change,0,0,3,,,,,,,,,2,64,0,,
8400,note_on,0,0,3,,,,,,,,,2,,,57,0
8400,note_on,120,0,3,,,,,,,,,2,,,69,0
8400,note_on,0,0,1,,,,,,,,,0,,,69,0
8400,note_on,240,0,1,,,,,,,,,0,,,81,0
8400,note_on,0,0,1,,,,,,,,,0,,,73,0
8400,note_on,0,0,1,,,,,,,,,0,,,76,0
8400,note_on,0,0,3,,,,,,,,,2,,,68,49
8400,note_on,0,0,3,,,,,,,,,2,,,61,0
8520,note_on,0,0,3,,,,,,,,,2,,,64,49
8520,note_on,0,0,3,,,,,,,,,2,,,62,0
8520,note_on,0,0,3,,,,,,,,,2,,,59,0
8520,note_on,0,0,3,,,,,,,,,2,,,61,49
8520,note_on,0,0,3,,,,,,,,,2,,,67,49
8520,note_on,120,0,3,,,,,,,,,2,,,68,0
8640,note_on,120,0,3,,,,,,,,,2,,,67,0
8640,note_on,0,0,3,,,,,,,,,2,,,64,0
8640,note_on,0,0,3,,,,,,,,,2,,,61,0
8640,control_change,0,0,3,,,,,,,,,2,64,127,,
8640,note_on,0,0,3,,,,,,,,,2,,,62,49
8640,note_on,0,0,3,,,,,,,,,2,,,66,49
8652,note_on,12,0,3,,,,,,,,,2,,,66,0
8652,note_on,0,0,3,,,,,,,,,2,,,62,0
8760,note_on,0,0,3,,,,,,,,,2,,,66,49
8760,note_on,108,0,3,,,,,,,,,2,,,57,49
8772,note_on,0,0,3,,,,,,,,,2,,,57,0
8772,note_on,12,0,3,,,,,,,,,2,,,66,0
8880,note_on,108,0,3,,,,,,,,,2,,,62,36
8880,note_on,0,0,3,,,,,,,,,2,,,66,36
8880,note_on,0,0,1,,,,,,,,,0,,,81,49
8880,control_change,480,0,1,,,,,,,,,0,64,127,,
8892,note_on,12,0,3,,,,,,,,,2,,,66,0
8892,note_on,0,0,3,,,,,,,,,2,,,62,0
8970,note_on,0,0,1,,,,,,,,,0,,,83,49
8970,note_on,90,0,1,,,,,,,,,0,,,81,0
9000,note_on,0,0,1,,,,,,,,,0,,,81,49
9000,note_on,30,0,1,,,,,,,,,0,,,83,0
9000,note_on,0,0,3,,,,,,,,,2,,,66,36
9000,control_change,108,0,3,,,,,,,,,2,64,0,,
9000,note_on,0,0,3,,,,,,,,,2,,,57,36
9012,note_on,0,0,3,,,,,,,,,2,,,57,0
9012,note_on,12,0,3,,,,,,,,,2,,,66,0
9090,control_change,0,0,1,,,,,,,,,0,64,0,,
9090,note_on,0,0,1,,,,,,,,,0,,,78,49
9090,note_on,90,0,1,,,,,,,,,0,,,81,0
9120,note_on,0,0,1,,,,,,,,,0,,,74,49
9120,note_on,0,0,3,,,,,,,,,2,,,62,36
9120,control_change,0,0,1,,,,,,,,,0,64,127,,
9120,note_on,30,0,1,,,,,,,,,0,,,78,0
9120,note_on,0,0,3,,,,,,,,,2,,,66,36
9120,control_change,108,0,3,,,,,,,,,2,64,127,,
9132,note_on,12,0,1,,,,,,,,,0,,,74,0
9132,note_on,0,0,3,,,,,,,,,2,,,62,0
9132,note_on,12,0,3,,,,,,,,,2,,,66,0
9240,control_change,108,0,1,,,,,,,,,0,64,0,,
9240,note_on,0,0,1,,,,,,,,,0,,,74,49
9240,note_on,0,0,3,,,,,,,,,2,,,57,36
9240,note_on,0,0,3,,,,,,,,,2,,,66,36
9240,control_change,108,0,3,,,,,,,,,2,64,0,,
9252,note_on,12,0,1,,,,,,,,,0,,,74,0
9252,note_on,0,0,3,,,,,,,,,2,,,57,0
9252,note_on,12,0,3,,,,,,,,,2,,,66,0
9345,note_on,93,0,1,,,,,,,,,0,,,74,49
9360,note_on,0,0,1,,,,,,,,,0,,,73,49
9360,control_change,0,0,1,,,,,,,,,0,64,127,,
9360,note_on,15,0,1,,,,,,,,,0,,,74,0
9360,note_on,0,0,3,,,,,,,,,2,,,64,36
9360,note_on,0,0,3,,,,,,,,,2,,,67,36
9360,control_change,108,0,3,,,,,,,,,2,64,127,,
9372,note_on,0,0,3,,,,,,,,,2,,,64,0
9372,note_on,12,0,3,,,,,,,,,2,,,67,0
9450,note_on,90,0,1,,,,,,,,,0,,,73,0
9450,note_on,0,0,1,,,,,,,,,0,,,71,49
9480,note_on,0,0,1,,,,,,,,,0,,,73,49
9480,control_change,108,0,3,,,,,,,,,2,64,0,,
9480,note_on,0,0,3,,,,,,,,,2,,,57,36
9480,note_on,0,0,3,,,,,,,,,2,,,67,36
9480,note_on,30,0,1,,,,,,,,,0,,,71,0
9492,note_on,12,0,3,,,,,,,,,2,,,67,0
9492,note_on,0,0,3,,,,,,,,,2,,,57,0
9570,control_change,0,0,1,,,,,,,,,0,64,0,,
9570,note_on,0,0,1,,,,,,,,,0,,,76,49
9570,note_on,90,0,1,,,,,,,,,0,,,73,0
9600,control_change,108,0,3,,,,,,,,,2,64,127,,
9600,note_on,0,0,3,,,,,,,,,2,,,62,36
9600,note_on,0,0,3,,,,,,,,,2,,,66,36
9600,note_on,30,0,1,,,,,,,,,0,,,76,0
9600,control_change,0,0,1,,,,,,,,,0,64,127,,
9600,note_on,0,0,1,,,,,,,,,0,,,69,49
9612,note_on,0,0,3,,,,,,,,,2,,,62,0
9612,note_on,12,0,3,,,,,,,,,2,,,66,0
9720,note_on,0,0,3,,,,,,,,,2,,,57,36
9720,note_on,0,0,1,,,,,,,,,0,,,74,49
9720,control_change,0,0,1,,,,,,,,,0,64,0,,
9720,note_on,120,0,1,,,,,,,,,0,,,69,0
9720,note_on,0,0,3,,,,,,,,,2,,,66,36
9720,control_change,108,0,3,,,,,,,,,2,64,0,,
9732,note_on,12,0,3,,,,,,,,,2,,,66,0
9732,note_on,0,0,3,,,,,,,,,2,,,57,0
9780,note_on,60,0,1,,,,,,,,,0,,,74,0
9840,note_on,0,0,3,,,,,,,,,2,,,67,36
9840,control_change,108,0,3,,,,,,,,,2,64,127,,
9840,control_change,60,0,1,,,,,,,,,0,64,127,,
9840,note_on,0,0,1,,,,,,,,,0,,,76,49
9840,note_on,0,0,3,,,,,,,,,2,,,61,36
9852,note_on,12,0,3,,,,,,,,,2,,,67,0
9852,note_on,0,0,3,,,,,,,,,2,,,61,0
9930,note_on,0,0,1,,,,,,,,,0,,,79,49
9930,note_on,90,0,1,,,,,,,,,0,,,76,0
9945,note_on,15,0,1,,,,,,,,,0,,,79,0
9945,note_on,0,0,1,,,,,,,,,0,,,79,49
9960,control_change,108,0,3,,,,,,,,,2,64,0,,
9960,note_on,0,0,3,,,,,,,,,2,,,57,36
9960,note_on,0,0,3,,,,,,,,,2,,,67,36
9967,note_on,22,0,1,,,,,,,,,0,,,83,49
9968,note_on,1,0,1,,,,,,,,,0,,,79,0
9972,note_on,12,0,3,,,,,,,,,2,,,67,0
9972,note_on,0,0,3,,,,,,,,,2,,,57,0
10027,note_on,0,0,1,,,,,,,,,0,,,81,49
10027,control_change,0,0,1,,,,,,,,,0,64,0,,
10027,note_on,59,0,1,,,,,,,,,0,,,83,0
10057,note_on,30,0,1,,,,,,,,,0,,,81,0
10080,control_change,108,0,3,,,,,,,,,2,64,127,,
10080,note_on,0,0,1,,,,,,,,,0,,,81,49
10080,control_change,23,0,1,,,,,,,,,0,64,127,,
10080,note_on,0,0,3,,,,,,,,,2,,,66,36
10080,note_on,0,0,3,,,,,,,,,2,,,62,36
10092,note_on,12,0,1,,,,,,,,,0,,,81,0
10092,note_on,12,0,3,,,,,,,,,2,,,66,0
10092,note_on,0,0,3,,,,,,,,,2,,,62,0
10200,note_on,0,0,3,,,,,,,,,2,,,57,36
10200,control_change,108,0,3,,,,,,,,,2,64,0,,
10200,note_on,0,0,3,,,,,,,,,2,,,66,36
10200,control_change,108,0,1,,,,,,,,,0,64,0,,
10200,note_on,0,0,1,,,,,,,,,0,,,81,49
10212,note_on,0,0,3,,,,,,,,,2,,,57,0
10212,note_on,12,0,3,,,,,,,,,2,,,66,0
10212,note_on,12,0,1,,,,,,,,,0,,,81,0
10305,note_on,93,0,1,,,,,,,,,0,,,85,49
10320,note_on,0,0,3,,,,,,,,,2,,,67,49
10320,note_on,0,0,3,,,,,,,,,2,,,62,49
10320,note_on,0,0,3,,,,,,,,,2,,,55,49
10320,control_change,108,0,3,,,,,,,,,2,64,127,,
10320,control_change,0,0,1,,,,,,,,,0,64,127,,
10320,note_on,0,0,1,,,,,,,,,0,,,83,62
10320,note_on,15,0,1,,,,,,,,,0,,,85,0
10332,note_on,0,0,3,,,,,,,,,2,,,62,0
10332,note_on,12,0,3,,,,,,,,,2,,,67,0
10332,note_on,0,0,3,,,,,,,,,2,,,55,0
10410,note_on,0,0,1,,,,,,,,,0,,,82,62
10410,note_on,90,0,1,,,,,,,,,0,,,83,0
10440,note_on,0,0,3,,,,,,,,,2,,,67,49
10440,note_on,0,0,3,,,,,,,,,2,,,62,49
10440,note_on,0,0,3,,,,,,,,,2,,,59,49
10440,note_on,0,0,1,,,,,,,,,0,,,83,62
10440,note_on,30,0,1,,,,,,,,,0,,,82,0
10440,control_change,108,0,3,,,,,,,,,2,64,0,,
10452,note_on,0,0,3,,,,,,,,,2,,,62,0
10452,note_on,0,0,3,,,,,,,,,2,,,59,0
10452,note_on,12,0,3,,,,,,,,,2,,,67,0
10530,note_on,90,0,1,,,,,,,,,0,,,83,0
10530,note_on,0,0,1,,,,,,,,,0,,,86,62
10530,control_change,0,0,1,,,,,,,,,0,64,0,,
10560,note_on,30,0,1,,,,,,,,,0,,,86,0
10560,control_change,0,0,1,,,,,,,,,0,64,127,,
10560,note_on,0,0,1,,,,,,,,,0,,,81,49
10560,control_change,108,0,3,,,,,,,,,2,64,127,,
10560,note_on,0,0,3,,,,,,,,,2,,,62,36
10560,note_on,0,0,3,,,,,,,,,2,,,66,36
10572,note_on,0,0,3,,,,,,,,,2,,,62,0
10572,note_on,12,0,3,,,,,,,,,2,,,66,0
10680,control_change,108,0,3,,,,,,,,,2,64,0,,
10680,note_on,0,0,3,,,,,,,,,2,,,57,36
10680,note_on,0,0,3,,,,,,,,,2,,,66,36
10692,note_on,12,0,3,,,,,,,,,2,,,66,0
10692,note_on,0,0,3,,,,,,,,,2,,,57,0
10800,control_change,0,0,1,,,,,,,,,0,64,127,,
10800,control_change,108,0,3,,,,,,,,,2,64,127,,
10800,note_on,0,0,3,,,,,,,,,2,,,62,36
10800,note_on,0,0,1,,,,,,,,,0,,,81,49
10800,note_on,240,0,1,,,,,,,,,0,,,81,0
10800,note_on,0,0,3,,,,,,,,,2,,,65,36
10812,note_on,0,0,3,,,,,,,,,2,,,62,0
10812,note_on,12,0,3,,,,,,,,,2,,,65,0
10890,note_on,0,0,1,,,,,,,,,0,,,82,49
10890,note_on,90,0,1,,,,,,,,,0,,,81,0
10920,control_change,108,0,3,,,,,,,,,2,64,0,,
10920,note_on,0,0,3,,,,,,,,,2,,,57,36
10920,note_on,0,0,3,,,,,,,,,2,,,65,36
10920,note_on,30,0,1,,,,,,,,,0,,,82,0
10920,note_on,0,0,1,,,,,,,,,0,,,81,49
10932,note_on,12,0,3,,,,,,,,,2,,,65,0
10932,note_on,0,0,3,,,,,,,,,2,,,57,0
11010,note_on,90,0,1,,,,,,,,,0,,,81,0
11010,control_change,0,0,1,,,,,,,,,0,64,0,,
11010,note_on,0,0,1,,,,,,,,,0,,,77,49
11040,control_change,108,0,3,,,,,,,,,2,64,127,,
11040,note_on,0,0,3,,,,,,,,,2,,,62,36
11040,note_on,30,0,1,,,,,,,,,0,,,77,0
11040,control_change,0,0,1,,,,,,,,,0,64,127,,
11040,note_on,0,0,3,,,,,,,,,2,,,65,36
11040,note_on,0,0,1,,,,,,,,,0,,,74,49
11052,note_on,12,0,3,,,,,,,,,2,,,65,0
11052,note_on,0,0,3,,,,,,,,,2,,,62,0
11052,note_on,12,0,1,,,,,,,,,0,,,74,0
11160,note_on,0,0,3,,,,,,,,,2,,,65,36
11160,note_on,0,0,1,,,,,,,,,0,,,74,49
11160,control_change,108,0,3,,,,,,,,,2,64,0,,
11160,note_on,0,0,3,,,,,,,,,2,,,57,36
11160,control_change,108,0,1,,,,,,,,,0,64,0,,
11172,note_on,12,0,1,,,,,,,,,0,,,74,0
11172,note_on,12,0,3,,,,,,,,,2,,,65,0
11172,note_on,0,0,3,,,,,,,,,2,,,57,0
11265,note_on,93,0,1,,,,,,,,,0,,,74,49
11280,note_on,0,0,3,,,,,,,,,2,,,65,36
11280,note_on,0,0,3,,,,,,,,,2,,,63,36
11280,note_on,0,0,3,,,,,,,,,2,,,60,36
11280,control_change,108,0,3,,,,,,,,,2,64,127,,
11280,control_change,0,0,1,,,,,,,,,0,64,127,,
11280,note_on,0,0,1,,,,,,,,,0,,,69,49
11280,note_on,15,0,1,,,,,,,,,0,,,74,0
11280,note_on,0,0,1,,,,,,,,,0,,,77,49
11292,note_on,0,0,3,,,,,,,,,2,,,60,0
11292,note_on,0,0,3,,,,,,,,,2,,,63,0
11292,note_on,12,0,1,,,,,,,,,0,,,77,0
11292,note_on,0,0,1,,,,,,,,,0,,,69,0
11292,note_on,12,0,3,,,,,,,,,2,,,65,0
11400,note_on,0,0,1,,,,,,,,,0,,,69,49
11400,note_on,0,0,1,,,,,,,,,0,,,77,49
11400,control_change,108,0,3,,,,,,,,,2,64,0,,
11400,note_on,0,0,3,,,,,,,,,2,,,53,36
11400,note_on,0,0,3,,,,,,,,,2,,,60,36
11400,note_on,0,0,3,,,,,,,,,2,,,63,36
11400,control_change,108,0,1,,,,,,,,,0,64,0,,
11400,note_on,0,0,3,,,,,,,,,2,,,65,36
11412,note_on,0,0,3,,,,,,,,,2,,,60,0
11412,note_on,12,0,1,,,,,,,,,0,,,77,0
11412,note_on,0,0,1,,,,,,,,,0,,,69,0
11412,note_on,12,0,3,,,,,,,,,2,,,65,0
11412,note_on,0,0,3,,,,,,,,,2,,,53,0
11412,note_on,0,0,3,,,,,,,,,2,,,63,0
11520,note_on,0,0,3,,,,,,,,,2,,,65,36
11520,note_on,0,0,3,,,,,,,,,2,,,62,36
11520,note_on,0,0,3,,,,,,,,,2,,,58,36
11520,control_change,108,0,3,,,,,,,,,2,64,127,,
11520,note_on,0,0,1,,,,,,,,,0,,,77,49
11520,note_on,0,0,1,,,,,,,,,0,,,70,49
11520,control_change,108,0,1,,,,,,,,,0,64,127,,
11532,note_on,0,0,3,,,,,,,,,2,,,62,0
11532,note_on,0,0,3,,,,,,,,,2,,,58,0
11532,note_on,12,0,3,,,,,,,,,2,,,65,0
11640,note_on,0,0,1,,,,,,,,,0,,,70,0
11640,note_on,120,0,1,,,,,,,,,0,,,77,0
11640,control_change,0,0,1,,,,,,,,,0,64,0,,
11640,note_on,0,0,1,,,,,,,,,0,,,82,49
11640,control_change,108,0,3,,,,,,,,,2,64,0,,
11640,note_on,0,0,3,,,,,,,,,2,,,62,36
11640,note_on,0,0,3,,,,,,,,,2,,,65,36
11652,note_on,12,0,3,,,,,,,,,2,,,65,0
11652,note_on,0,0,3,,,,,,,,,2,,,62,0
11700,note_on,60,0,1,,,,,,,,,0,,,82,0
11760,control_change,108,0,3,,,,,,,,,2,64,127,,
11760,note_on,0,0,1,,,,,,,,,0,,,86,62
11760,note_on,0,0,3,,,,,,,,,2,,,65,49
11760,note_on,0,0,3,,,,,,,,,2,,,58,49
11760,control_change,60,0,1,,,,,,,,,0,64,127,,
11760,note_on,0,0,3,,,,,,,,,2,,,62,49
11772,note_on,0,0,3,,,,,,,,,2,,,58,0
11772,note_on,0,0,3,,,,,,,,,2,,,62,0
11772,note_on,12,0,3,,,,,,,,,2,,,65,0
11799,note_on,39,0,1,,,,,,,,,0,,,88,62
11800,note_on,1,0,1,,,,,,,,,0,,,86,0
11839,note_on,39,0,1,,,,,,,,,0,,,88,0
11840,note_on,1,0,1,,,,,,,,,0,,,85,62
11880,control_change,108,0,3,,,,,,,,,2,64,0,,
11880,note_on,0,0,3,,,,,,,,,2,,,58,49
11880,note_on,0,0,3,,,,,,,,,2,,,62,49
11880,note_on,0,0,3,,,,,,,,,2,,,68,49
11880,note_on,40,0,1,,,,,,,,,0,,,85,0
11880,note_on,0,0,1,,,,,,,,,0,,,86,62
11892,note_on,0,0,3,,,,,,,,,2,,,58,0
11892,note_on,12,0,3,,,,,,,,,2,,,68,0
11892,note_on,0,0,3,,,,,,,,,2,,,62,0
11919,note_on,39,0,1,,,,,,,,,0,,,88,62
11920,note_on,1,0,1,,,,,,,,,0,,,86,0
11959,note_on,39,0,1,,,,,,,,,0,,,88,0
11960,note_on,0,0,1,,,,,,,,,0,,,89,62
11960,control_change,1,0,1,,,,,,,,,0,64,0,,
12000,note_on,40,0,1,,,,,,,,,0,,,89,0
12000,note_on,0,0,3,,,,,,,,,2,,,69,36
12000,note_on,0,0,3,,,,,,,,,2,,,66,36
12000,note_on,0,0,3,,,,,,,,,2,,,62,36
12000,control_change,108,0,3,,,,,,,,,2,64,127,,
12000,control_change,0,0,1,,,,,,,,,0,64,127,,
12000,note_on,0,0,1,,,,,,,,,0,,,81,49
12012,note_on,12,0,3,,,,,,,,,2,,,69,0
12012,note_on,0,0,3,,,,,,,,,2,,,62,0
12012,note_on,0,0,3,,,,,,,,,2,,,66,0
12060,note_on,60,0,1,,,,,,,,,0,,,81,0
12120,note_on,0,0,3,,,,,,,,,2,,,69,62
12120,note_on,0,0,1,,,,,,,,,0,,,81,75
12120,control_change,60,0,1,,,,,,,,,0,64,0,,
12120,note_on,0,0,3,,,,,,,,,2,,,66,57
12120,note_on,0,0,3,,,,,,,,,2,,,57,52
12120,control_change,108,0,3,,,,,,,,,2,64,0,,
12132,note_on,0,0,3,,,,,,,,,2,,,57,0
12132,note_on,0,0,3,,,,,,,,,2,,,66,0
12132,note_on,12,0,3,,,,,,,,,2,,,69,0
12240,note_on,0,0,3,,,,,,,,,2,,,69,36
12240,note_on,0,0,3,,,,,,,,,2,,,67,36
12240,note_on,0,0,3,,,,,,,,,2,,,61,36
12240,control_change,108,0,3,,,,,,,,,2,64,127,,
12240,note_on,0,0,1,,,,,,,,,0,,,76,49
12240,control_change,0,0,1,,,,,,,,,0,64,127,,
12240,note_on,120,0,1,,,,,,,,,0,,,81,0
12252,note_on,12,0,3,,,,,,,,,2,,,69,0
12252,note_on,0,0,3,,,,,,,,,2,,,67,0
12252,note_on,0,0,3,,,,,,,,,2,,,61,0
12279,note_on,39,0,1,,,,,,,,,0,,,79,49
12280,note_on,1,0,1,,,,,,,,,0,,,76,0
12319,note_on,39,0,1,,,,,,,,,0,,,79,0
12320,note_on,1,0,1,,,,,,,,,0,,,83,49
12360,note_on,0,0,1,,,,,,,,,0,,,81,49
12360,note_on,40,0,1,,,,,,,,,0,,,83,0
12360,note_on,0,0,3,,,,,,,,,2,,,69,36
12360,control_change,108,0,3,,,,,,,,,2,64,0,,
12360,note_on,0,0,3,,,,,,,,,2,,,57,36
12360,note_on,0,0,3,,,,,,,,,2,,,67,36
12372,note_on,12,0,3,,,,,,,,,2,,,69,0
12372,note_on,0,0,3,,,,,,,,,2,,,67,0
12372,note_on,0,0,3,,,,,,,,,2,,,57,0
12399,note_on,39,0,1,,,,,,,,,0,,,79,49
12400,note_on,1,0,1,,,,,,,,,0,,,81,0
12439,note_on,39,0,1,,,,,,,,,0,,,79,0
12440,note_on,0,0,1,,,,,,,,,0,,,73,49
12440,control_change,1,0,1,,,,,,,,,0,64,0,,
12480,note_on,0,0,3,,,,,,,,,2,,,66,36
12480,note_on,0,0,3,,,,,,,,,2,,,62,36
12480,control_change,108,0,3,,,,,,,,,2,64,127,,
12480,note_on,40,0,1,,,,,,,,,0,,,73,0
12480,control_change,0,0,1,,,,,,,,,0,64,127,,
12480,note_on,0,0,1,,,,,,,,,0,,,81,88
12492,note_on,12,0,3,,,,,,,,,2,,,66,0
12492,note_on,0,0,3,,,,,,,,,2,,,62,0
12600,note_on,0,0,3,,,,,,,,,2,,,66,36
12600,control_change,108,0,3,,,,,,,,,2,64,0,,
12600,note_on,0,0,3,,,,,,,,,2,,,59,36
12600,note_on,0,0,3,,,,,,,,,2,,,62,36
12612,note_on,0,0,3,,,,,,,,,2,,,59,0
12612,note_on,0,0,3,,,,,,,,,2,,,62,0
12612,note_on,12,0,3,,,,,,,,,2,,,66,0
12720,note_on,0,0,3,,,,,,,,,2,,,67,36
12720,control_change,108,0,3,,,,,,,,,2,64,127,,
12720,control_change,0,0,1,,,,,,,,,0,64,127,,
12720,note_on,0,0,3,,,,,,,,,2,,,62,36
12720,note_on,0,0,1,,,,,,,,,0,,,79,49
12720,note_on,240,0,1,,,,,,,,,0,,,81,0
12720,note_on,0,0,3,,,,,,,,,2,,,59,36
12732,note_on,0,0,3,,,,,,,,,2,,,59,0
12732,note_on,0,0,3,,,,,,,,,2,,,62,0
12732,note_on,12,0,3,,,,,,,,,2,,,67,0
12759,note_on,39,0,1,,,,,,,,,0,,,83,49
12760,note_on,1,0,1,,,,,,,,,0,,,79,0
12799,note_on,39,0,1,,,,,,,,,0,,,83,0
12800,note_on,1,0,1,,,,,,,,,0,,,88,49
12840,note_on,0,0,3,,,,,,,,,2,,,55,36
12840,note_on,0,0,3,,,,,,,,,2,,,62,36
12840,note_on,0,0,3,,,,,,,,,2,,,67,36
12840,control_change,108,0,3,,,,,,,,,2,64,0,,
12840,note_on,0,0,1,,,,,,,,,0,,,86,49
12840,note_on,40,0,1,,,,,,,,,0,,,88,0
12852,note_on,12,0,3,,,,,,,,,2,,,67,0
12852,note_on,0,0,3,,,,,,,,,2,,,62,0
12852,note_on,0,0,3,,,,,,,,,2,,,55,0
12879,note_on,39,0,1,,,,,,,,,0,,,83,49
12880,note_on,1,0,1,,,,,,,,,0,,,86,0
12919,note_on,39,0,1,,,,,,,,,0,,,83,0
12920,note_on,0,0,1,,,,,,,,,0,,,79,49
12920,control_change,1,0,1,,,,,,,,,0,64,0,,
12960,note_on,40,0,1,,,,,,,,,0,,,79,0
12960,note_on,0,0,1,,,,,,,,,0,,,78,49
12960,control_change,0,0,1,,,,,,,,,0,64,127,,
12960,note_on,0,0,3,,,,,,,,,2,,,66,36
12960,control_change,108,0,3,,,,,,,,,2,64,127,,
12960,note_on,0,0,3,,,,,,,,,2,,,62,36
12972,note_on,12,0,3,,,,,,,,,2,,,66,0
12972,note_on,0,0,3,,,,,,,,,2,,,62,0
12990,note_on,30,0,1,,,,,,,,,0,,,78,0
12990,note_on,0,0,1,,,,,,,,,0,,,81,49
13050,note_on,60,0,1,,,,,,,,,0,,,81,0
13080,note_on,0,0,3,,,,,,,,,2,,,66,62
13080,note_on,0,0,3,,,,,,,,,2,,,57,54
13080,control_change,108,0,3,,,,,,,,,2,64,0,,
13080,note_on,0,0,1,,,,,,,,,0,,,81,75
13080,control_change,30,0,1,,,,,,,,,0,64,0,,
13092,note_on,0,0,3,,,,,,,,,2,,,57,0
13092,note_on,12,0,3,,,,,,,,,2,,,66,0
13200,note_on,0,0,1,,,,,,,,,0,,,76,62
13200,control_change,0,0,1,,,,,,,,,0,64,127,,
13200,note_on,120,0,1,,,,,,,,,0,,,81,0
13200,note_on,0,0,3,,,,,,,,,2,,,67,49
13200,control_change,108,0,3,,,,,,,,,2,64,127,,
13200,note_on,0,0,3,,,,,,,,,2,,,61,49
13212,note_on,12,0,3,,,,,,,,,2,,,67,0
13212,note_on,0,0,3,,,,,,,,,2,,,61,0
13239,note_on,39,0,1,,,,,,,,,0,,,79,62
13240,note_on,1,0,1,,,,,,,,,0,,,76,0
13279,note_on,39,0,1,,,,,,,,,0,,,79,0
13280,note_on,1,0,1,,,,,,,,,0,,,83,62
13320,note_on,0,0,1,,,,,,,,,0,,,81,62
13320,note_on,40,0,1,,,,,,,,,0,,,83,0
13320,note_on,0,0,3,,,,,,,,,2,,,67,49
13320,note_on,0,0,3,,,,,,,,,2,,,57,49
13320,control_change,108,0,3,,,,,,,,,2,64,0,,
13332,note_on,12,0,3,,,,,,,,,2,,,67,0
13332,note_on,0,0,3,,,,,,,,,2,,,57,0
13359,note_on,39,0,1,,,,,,,,,0,,,79,62
13360,note_on,1,0,1,,,,,,,,,0,,,81,0
13399,note_on,39,0,1,,,,,,,,,0,,,79,0
13400,note_on,0,0,1,,,,,,,,,0,,,73,62
13400,control_change,1,0,1,,,,,,,,,0,64,0,,
13440,note_on,108,0,3,,,,,,,,,2,,,62,36
13440,time_signature,8640,1,0,2,4,24,8,,,,,,,,,
13440,note_on,0,0,3,,,,,,,,,2,,,66,36
13440,note_on,0,0,1,,,,,,,,,0,,,74,49
13440,note_on,40,0,1,,,,,,,,,0,,,73,0
13680,control_change,5520,0,2,,,,,,,,,1,64,127,,
13680,note_on,240,0,1,,,,,,,,,0,,,74,0
13680,note_on,0,0,3,,,,,,,,,2,,,50,36
13680,control_change,0,0,1,,,,,,,,,0,64,127,,
13680,control_change,0,0,3,,,,,,,,,2,64,127,,
13680,control_change,0,0,3,,,,,,,,,2,64,127,,
13680,note_on,0,0,3,,,,,,,,,2,,,62,0
13680,note_on,240,0,3,,,,,,,,,2,,,66,0
13680,control_change,5520,0,4,,,,,,,,,3,64,127,,
13680,note_on,0,0,1,,,,,,,,,0,,,62,49
13680,control_change,0,0,1,,,,,,,,,0,64,127,,
13719,note_on,39,0,1,,,,,,,,,0,,,66,49
13719,note_on,39,0,3,,,,,,,,,2,,,54,36
13720,note_on,1,0,3,,,,,,,,,2,,,50,0
13720,note_on,1,0,1,,,,,,,,,0,,,62,0
13759,note_on,39,0,3,,,,,,,,,2,,,54,0
13759,note_on,39,0,1,,,,,,,,,0,,,66,0
13760,note_on,1,0,1,,,,,,,,,0,,,71,49
13760,note_on,1,0,3,,,,,,,,,2,,,59,36
13800,note_on,0,0,3,,,,,,,,,2,,,57,36
13800,note_on,40,0,3,,,,,,,,,2,,,59,0
13800,note_on,40,0,1,,,,,,,,,0,,,71,0
13800,note_on,0,0,1,,,,,,,,,0,,,69,49
13839,note_on,39,0,3,,,,,,,,,2,,,54,36
13839,note_on,39,0,1,,,,,,,,,0,,,66,49
13840,note_on,1,0,3,,,,,,,,,2,,,57,0
13840,note_on,1,0,1,,,,,,,,,0,,,69,0
13879,note_on,39,0,3,,,,,,,,,2,,,54,0
13879,note_on,39,0,1,,,,,,,,,0,,,66,0
13880,note_on,0,0,3,,,,,,,,,2,,,50,36
13880,control_change,1,0,3,,,,,,,,,2,64,0,,
13880,note_on,0,0,1,,,,,,,,,0,,,62,49
13880,control_change,1,0,1,,,,,,,,,0,64,0,,
13920,control_change,0,0,4,,,,,,,,,3,64,127,,
13920,control_change,0,0,3,,,,,,,,,2,64,127,,
13920,control_change,0,0,3,,,,,,,,,2,64,127,,
13920,note_on,0,0,3,,,,,,,,,2,,,55,62
13920,note_on,40,0,3,,,,,,,,,2,,,50,0
13920,control_change,0,0,2,,,,,,,,,1,64,127,,
13920,control_change,0,0,3,,,,,,,,,2,64,127,,
13920,note_on,0,0,3,,,,,,,,,2,,,49,54
13920,control_change,240,0,4,,,,,,,,,3,64,127,,
13920,control_change,240,0,2,,,,,,,,,1,64,127,,
13920,note_on,40,0,1,,,,,,,,,0,,,62,0
13920,control_change,0,0,1,,,,,,,,,0,64,127,,
13920,control_change,0,0,1,,,,,,,,,0,64,127,,
13920,control_change,0,0,1,,,,,,,,,0,64,127,,
13920,note_on,0,0,1,,,,,,,,,0,,,57,67
13920,note_on,0,0,1,,,,,,,,,0,,,64,75
13920,time_signature,480,1,0,4,4,24,8,,,,,,,,,
13932,note_on,12,0,3,,,,,,,,,2,,,55,0
13932,note_on,0,0,3,,,,,,,,,2,,,49,0
13932,note_on,12,0,1,,,,,,,,,0,,,64,0
13932,note_on,0,0,1,,,,,,,,,0,,,57,0
14040,note_on,0,0,3,,,,,,,,,2,,,45,36
14040,control_change,108,0,3,,,,,,,,,2,64,0,,
14040,control_change,108,0,1,,,,,,,,,0,64,0,,
14040,note_on,0,0,1,,,,,,,,,0,,,57,49
14040,note_on,0,0,3,,,,,,,,,2,,,55,36
14040,note_on,0,0,1,,,,,,,,,0,,,64,49
14052,note_on,12,0,3,,,,,,,,,2,,,55,0
14052,note_on,0,0,3,,,,,,,,,2,,,45,0
14052,note_on,0,0,1,,,,,,,,,0,,,57,0
14052,note_on,12,0,1,,,,,,,,,0,,,64,0
14160,control_change,108,0,1,,,,,,,,,0,64,127,,
14160,control_change,108,0,3,,,,,,,,,2,64,127,,
14160,note_on,0,0,3,,,,,,,,,2,,,49,36
14160,note_on,0,0,1,,,,,,,,,0,,,64,49
14160,note_on,0,0,3,,,,,,,,,2,,,55,36
14172,note_on,12,0,3,,,,,,,,,2,,,55,0
14172,note_on,0,0,3,,,,,,,,,2,,,49,0
14199,note_on,39,0,1,,,,,,,,,0,,,67,49
14200,note_on,1,0,1,,,,,,,,,0,,,64,0
14239,note_on,39,0,1,,,,,,,,,0,,,67,0
14240,note_on,1,0,1,,,,,,,,,0,,,73,49
14280,note_on,0,0,3,,,,,,,,,2,,,45,36
14280,control_change,108,0,3,,,,,,,,,2,64,0,,
14280,note_on,40,0,1,,,,,,,,,0,,,73,0
14280,note_on,0,0,1,,,,,,,,,0,,,71,49
14280,note_on,0,0,3,,,,,,,,,2,,,55,36
14292,note_on,12,0,3,,,,,,,,,2,,,55,0
14292,note_on,0,0,3,,,,,,,,,2,,,45,0
14319,note_on,39,0,1,,,,,,,,,0,,,67,49
14320,note_on,1,0,1,,,,,,,,,0,,,71,0
14359,note_on,39,0,1,,,,,,,,,0,,,67,0
14360,note_on,0,0,1,,,,,,,,,0,,,64,49
14360,control_change,1,0,1,,,,,,,,,0,64,0,,
14400,control_change,0,0,3,,,,,,,,,2,64,127,,
14400,note_on,40,0,1,,,,,,,,,0,,,64,0
14400,control_change,108,0,3,,,,,,,,,2,64,127,,
14400,note_on,0,0,3,,,,,,,,,2,,,50,36
14400,note_on,0,0,3,,,,,,,,,2,,,54,36
14400,control_change,0,0,3,,,,,,,,,2,64,127,,
14400,control_change,480,0,2,,,,,,,,,1,64,127,,
14400,control_change,0,0,4,,,,,,,,,3,64,127,,
14400,control_change,480,0,4,,,,,,,,,3,64,127,,
14400,note_on,0,0,1,,,,,,,,,0,,,62,49
14400,note_on,0,0,1,,,,,,,,,0,,,57,49
14400,control_change,0,0,1,,,,,,,,,0,64,127,,
14400,control_change,0,0,1,,,,,,,,,0,64,127,,
14400,control_change,0,0,1,,,,,,,,,0,64,127,,
14400,note_on,0,0,1,,,,,,,,,0,,,66,49
14400,control_change,0,0,2,,,,,,,,,1,64,127,,
14412,note_on,0,0,3,,,,,,,,,2,,,50,0
14412,note_on,12,0,3,,,,,,,,,2,,,54,0
14520,note_on,0,0,3,,,,,,,,,2,,,54,36
14520,note_on,0,0,3,,,,,,,,,2,,,45,36
14520,control_change,108,0,3,,,,,,,,,2,64,0,,
14532,note_on,12,0,3,,,,,,,,,2,,,54,0
14532,note_on,0,0,3,,,,,,,,,2,,,45,0
14640,note_on,240,0,1,,,,,,,,,0,,,66,0
14640,note_on,0,0,1,,,,,,,,,0,,,62,0
14640,control_change,108,0,3,,,,,,,,,2,64,127,,
14640,note_on,0,0,3,,,,,,,,,2,,,50,54
14640,note_on,0,0,3,,,,,,,,,2,,,54,62
14640,note_on,0,0,1,,,,,,,,,0,,,57,0
14640,note_on,0,0,1,,,,,,,,,0,,,74,75
14640,control_change,0,0,1,,,,,,,,,0,64,127,,
14652,note_on,0,0,3,,,,,,,,,2,,,50,0
14652,note_on,12,0,3,,,,,,,,,2,,,54,0
14679,note_on,39,0,1,,,,,,,,,0,,,78,49
14680,note_on,1,0,1,,,,,,,,,0,,,74,0
14719,note_on,39,0,1,,,,,,,,,0,,,78,0
14720,note_on,1,0,1,,,,,,,,,0,,,83,49
14760,note_on,40,0,1,,,,,,,,,0,,,83,0
14760,note_on,0,0,1,,,,,,,,,0,,,81,49
14760,note_on,0,0,3,,,,,,,,,2,,,54,36
14760,note_on,0,0,3,,,,,,,,,2,,,57,36
14760,control_change,108,0,3,,,,,,,,,2,64,0,,
14772,note_on,12,0,3,,,,,,,,,2,,,57,0
14772,note_on,0,0,3,,,,,,,,,2,,,54,0
14799,note_on,39,0,1,,,,,,,,,0,,,78,49
14800,note_on,1,0,1,,,,,,,,,0,,,81,0
14839,note_on,39,0,1,,,,,,,,,0,,,78,0
14840,note_on,0,0,1,,,,,,,,,0,,,74,49
14840,control_change,1,0,1,,,,,,,,,0,64,0,,
14880,control_change,0,0,2,,,,,,,,,1,64,127,,
14880,control_change,480,0,2,,,,,,,,,1,64,127,,
14880,control_change,0,0,1,,,,,,,,,0,64,127,,
14880,control_change,0,0,4,,,,,,,,,3,64,127,,
14880,control_change,480,0,4,,,,,,,,,3,64,127,,
14880,note_on,40,0,1,,,,,,,,,0,,,74,0
14880,control_change,108,0,3,,,,,,,,,2,64,127,,
14880,note_on,0,0,1,,,,,,,,,0,,,73,75
14880,control_change,0,0,3,,,,,,,,,2,64,127,,
14880,note_on,0,0,3,,,,,,,,,2,,,52,54
14880,note_on,0,0,3,,,,,,,,,2,,,61,62
14880,control_change,0,0,1,,,,,,,,,0,64,127,,
14880,control_change,0,0,1,,,,,,,,,0,64,127,,
14880,control_change,0,0,3,,,,,,,,,2,64,127,,
14892,note_on,12,0,3,,,,,,,,,2,,,61,0
14892,note_on,0,0,3,,,,,,,,,2,,,52,0
14919,note_on,39,0,1,,,,,,,,,0,,,69,49
14920,note_on,1,0,1,,,,,,,,,0,,,73,0
14959,note_on,39,0,1,,,,,,,,,0,,,69,0
14960,note_on,1,0,1,,,,,,,,,0,,,78,49
15000,note_on,0,0,3,,,,,,,,,2,,,61,36
15000,note_on,0,0,3,,,,,,,,,2,,,57,36
15000,control_change,108,0,3,,,,,,,,,2,64,0,,
15000,note_on,0,0,1,,,,,,,,,0,,,76,49
15000,note_on,40,0,1,,,,,,,,,0,,,78,0
15012,note_on,0,0,3,,,,,,,,,2,,,57,0
15012,note_on,12,0,3,,,,,,,,,2,,,61,0
15039,note_on,39,0,1,,,,,,,,,0,,,73,49
15040,note_on,1,0,1,,,,,,,,,0,,,76,0
15079,note_on,39,0,1,,,,,,,,,0,,,73,0
15080,note_on,0,0,1,,,,,,,,,0,,,69,49
15080,control_change,1,0,1,,,,,,,,,0,64,0,,
15120,note_on,40,0,1,,,,,,,,,0,,,69,0
15120,note_on,0,0,1,,,,,,,,,0,,,68,75
15120,control_change,0,0,1,,,,,,,,,0,64,127,,
15120,control_change,108,0,3,,,,,,,,,2,64,127,,
15120,note_on,0,0,3,,,,,,,,,2,,,59,54
15120,note_on,0,0,3,,,,,,,,,2,,,62,62
15132,note_on,0,0,3,,,,,,,,,2,,,59,0
15132,note_on,12,0,3,,,,,,,,,2,,,62,0
15159,note_on,39,0,1,,,,,,,,,0,,,64,49
15160,note_on,1,0,1,,,,,,,,,0,,,68,0
15199,note_on,39,0,1,,,,,,,,,0,,,64,0
15200,note_on,1,0,1,,,,,,,,,0,,,68,49
15240,note_on,0,0,3,,,,,,,,,2,,,62,36
15240,note_on,40,0,1,,,,,,,,,0,,,68,0
15240,note_on,0,0,1,,,,,,,,,0,,,76,49
15240,note_on,0,0,3,,,,,,,,,2,,,52,36
15240,control_change,108,0,3,,,,,,,,,2,64,0,,
15252,note_on,0,0,3,,,,,,,,,2,,,52,0
15252,note_on,12,0,3,,,,,,,,,2,,,62,0
15279,note_on,39,0,1,,,,,,,,,0,,,74,49
15280,note_on,1,0,1,,,,,,,,,0,,,76,0
15319,note_on,39,0,1,,,,,,,,,0,,,74,0
15320,control_change,1,0,1,,,,,,,,,0,64,0,,
15320,note_on,0,0,1,,,,,,,,,0,,,71,49
15360,note_on,0,0,3,,,,,,,,,2,,,57,36
15360,note_on,0,0,3,,,,,,,,,2,,,61,36
15360,control_change,0,0,1,,,,,,,,,0,64,127,,
15360,control_change,0,0,1,,,,,,,,,0,64,127,,
15360,control_change,0,0,1,,,,,,,,,0,64,127,,
15360,note_on,40,0,1,,,,,,,,,0,,,71,0
15360,control_change,0,0,3,,,,,,,,,2,64,127,,
15360,note_on,0,0,1,,,,,,,,,0,,,69,49
15360,control_change,108,0,3,,,,,,,,,2,64,127,,
15360,control_change,0,0,3,,,,,,,,,2,64,127,,
15360,control_change,0,0,4,,,,,,,,,3,64,127,,
15360,control_change,480,0,4,,,,,,,,,3,64,127,,
15360,control_change,480,0,2,,,,,,,,,1,64,127,,
15360,control_change,0,0,2,,,,,,,,,1,64,127,,
15480,note_on,0,0,1,,,,,,,,,0,,,73,36
15480,note_on,0,0,1,,,,,,,,,0,,,76,36
15480,note_on,120,0,1,,,,,,,,,0,,,69,0
15480,control_change,0,0,1,,,,,,,,,0,64,0,,
15492,note_on,12,0,1,,,,,,,,,0,,,76,0
15492,note_on,0,0,1,,,,,,,,,0,,,73,0
15600,note_on,240,0,3,,,,,,,,,2,,,61,0
15600,control_change,108,0,1,,,,,,,,,0,64,127,,
15600,note_on,0,0,1,,,,,,,,,0,,,69,36
15600,note_on,0,0,1,,,,,,,,,0,,,73,36
15600,note_on,0,0,1,,,,,,,,,0,,,76,36
15600,note_on,0,0,3,,,,,,,,,2,,,57,0
15600,control_change,0,0,3,,,,,,,,,2,64,127,,
15600,note_on,0,0,3,,,,,,,,,2,,,57,49
15612,note_on,0,0,1,,,,,,,,,0,,,69,0
15612,note_on,12,0,1,,,,,,,,,0,,,76,0
15612,note_on,0,0,1,,,,,,,,,0,,,73,0
15639,note_on,39,0,3,,,,,,,,,2,,,61,49
15640,note_on,1,0,3,,,,,,,,,2,,,57,0
15679,note_on,39,0,3,,,,,,,,,2,,,61,0
15680,note_on,1,0,3,,,,,,,,,2,,,66,49
15720,note_on,0,0,1,,,,,,,,,0,,,76,36
15720,control_change,108,0,1,,,,,,,,,0,64,0,,
15720,note_on,40,0,3,,,,,,,,,2,,,66,0
15720,note_on,0,0,1,,,,,,,,,0,,,73,36
15720,note_on,0,0,3,,,,,,,,,2,,,64,49
15732,note_on,12,0,1,,,,,,,,,0,,,76,0
15732,note_on,0,0,1,,,,,,,,,0,,,73,0
15759,note_on,39,0,3,,,,,,,,,2,,,61,49
15760,note_on,1,0,3,,,,,,,,,2,,,64,0
15799,note_on,39,0,3,,,,,,,,,2,,,61,0
15800,control_change,1,0,3,,,,,,,,,2,64,0,,
15800,note_on,0,0,3,,,,,,,,,2,,,57,49
15840,note_on,40,0,3,,,,,,,,,2,,,57,0
15840,control_change,0,0,3,,,,,,,,,2,64,127,,
15840,control_change,0,0,3,,,,,,,,,2,64,127,,
15840,control_change,0,0,3,,,,,,,,,2,64,127,,
15840,note_on,0,0,3,,,,,,,,,2,,,57,49
15840,control_change,480,0,2,,,,,,,,,1,64,127,,
15840,control_change,0,0,4,,,,,,,,,3,64,127,,
15840,note_on,0,0,1,,,,,,,,,0,,,74,36
15840,control_change,108,0,1,,,,,,,,,0,64,127,,
15840,note_on,0,0,1,,,,,,,,,0,,,78,36
15840,control_change,0,0,1,,,,,,,,,0,64,127,,
15840,control_change,0,0,2,,,,,,,,,1,64,127,,
15840,control_change,480,0,4,,,,,,,,,3,64,127,,
15840,control_change,0,0,1,,,,,,,,,0,64,127,,
15852,note_on,12,0,1,,,,,,,,,0,,,78,0
15852,note_on,0,0,1,,,,,,,,,0,,,74,0
15960,control_change,0,0,3,,,,,,,,,2,64,0,,
15960,control_change,108,0,1,,,,,,,,,0,64,0,,
15960,control_change,0,0,1,,,,,,,,,0,64,0,,
15960,note_on,0,0,1,,,,,,,,,0,,,71,36
15960,note_on,0,0,1,,,,,,,,,0,,,74,36
15960,note_on,120,0,3,,,,,,,,,2,,,57,0
15960,note_on,0,0,1,,,,,,,,,0,,,76,36
15960,note_on,0,0,3,,,,,,,,,2,,,56,49
15972,note_on,0,0,1,,,,,,,,,0,,,74,0
15972,note_on,12,0,1,,,,,,,,,0,,,76,0
15972,note_on,0,0,1,,,,,,,,,0,,,71,0
16020,note_on,60,0,3,,,,,,,,,2,,,56,0
16080,control_change,108,0,1,,,,,,,,,0,64,127,,
16080,note_on,0,0,1,,,,,,,,,0,,,68,36
16080,note_on,0,0,1,,,,,,,,,0,,,71,36
16080,note_on,0,0,1,,,,,,,,,0,,,76,36
16080,control_change,60,0,3,,,,,,,,,2,64,127,,
16080,note_on,0,0,3,,,,,,,,,2,,,59,49
16092,note_on,12,0,1,,,,,,,,,0,,,76,0
16092,note_on,0,0,1,,,,,,,,,0,,,71,0
16092,note_on,0,0,1,,,,,,,,,0,,,68,0
16119,note_on,39,0,3,,,,,,,,,2,,,62,49
16120,note_on,1,0,3,,,,,,,,,2,,,59,0
16159,note_on,39,0,3,,,,,,,,,2,,,62,0
16160,note_on,1,0,3,,,,,,,,,2,,,66,49
16200,note_on,0,0,1,,,,,,,,,0,,,71,36
16200,note_on,0,0,1,,,,,,,,,0,,,76,36
16200,note_on,40,0,3,,,,,,,,,2,,,66,0
16200,note_on,0,0,3,,,,,,,,,2,,,64,49
16200,note_on,0,0,1,,,,,,,,,0,,,74,36
16200,control_change,108,0,1,,,,,,,,,0,64,0,,
16212,note_on,12,0,1,,,,,,,,,0,,,76,0
16212,note_on,0,0,1,,,,,,,,,0,,,74,0
16212,note_on,0,0,1,,,,,,,,,0,,,71,0
16239,note_on,39,0,3,,,,,,,,,2,,,62,49
16240,note_on,1,0,3,,,,,,,,,2,,,64,0
16279,note_on,39,0,3,,,,,,,,,2,,,62,0
16280,control_change,1,0,3,,,,,,,,,2,64,0,,
16280,note_on,0,0,3,,,,,,,,,2,,,59,49
16320,note_on,40,0,3,,,,,,,,,2,,,59,0
16320,control_change,0,0,3,,,,,,,,,2,64,127,,
16320,control_change,0,0,1,,,,,,,,,0,64,127,,
16320,note_on,0,0,1,,,,,,,,,0,,,78,36
16320,note_on,0,0,1,,,,,,,,,0,,,73,36
16320,note_on,0,0,1,,,,,,,,,0,,,69,36
16320,control_change,0,0,1,,,,,,,,,0,64,127,,
16320,control_change,108,0,1,,,,,,,,,0,64,127,,
16320,control_change,0,0,4,,,,,,,,,3,64,127,,
16320,control_change,480,0,4,,,,,,,,,3,64,127,,
16320,control_change,0,0,3,,,,,,,,,2,64,127,,
16320,control_change,480,0,2,,,,,,,,,1,64,127,,
16320,control_change,0,0,3,,,,,,,,,2,64,127,,
16320,note_on,0,0,3,,,,,,,,,2,,,61,49
16320,control_change,0,0,2,,,,,,,,,1,64,127,,
16332,note_on,12,0,1,,,,,,,,,0,,,78,0
16332,note_on,0,0,1,,,,,,,,,0,,,73,0
16332,note_on,0,0,1,,,,,,,,,0,,,69,0
16440,control_change,0,0,3,,,,,,,,,2,64,0,,
16440,note_on,108,0,1,,,,,,,,,0,,,69,36
16440,note_on,120,0,3,,,,,,,,,2,,,61,0
16440,note_on,0,0,1,,,,,,,,,0,,,73,36
16440,note_on,0,0,1,,,,,,,,,0,,,76,36
16440,note_on,0,0,3,,,,,,,,,2,,,57,49
16452,note_on,12,0,1,,,,,,,,,0,,,76,0
16452,note_on,0,0,1,,,,,,,,,0,,,69,0
16452,note_on,0,0,1,,,,,,,,,0,,,73,0
16500,note_on,60,0,3,,,,,,,,,2,,,57,0
16560,note_on,0,0,1,,,,,,,,,0,,,81,36
16560,control_change,60,0,3,,,,,,,,,2,64,127,,
16560,note_on,0,0,3,,,,,,,,,2,,,55,49
16560,note_on,0,0,1,,,,,,,,,0,,,69,36
16560,note_on,0,0,1,,,,,,,,,0,,,73,36
16560,note_on,0,0,1,,,,,,,,,0,,,76,36
16560,control_change,108,0,1,,,,,,,,,0,64,127,,
16572,note_on,0,0,1,,,,,,,,,0,,,73,0
16572,note_on,12,0,1,,,,,,,,,0,,,81,0
16572,note_on,0,0,1,,,,,,,,,0,,,69,0
16572,note_on,0,0,1,,,,,,,,,0,,,76,0
16599,note_on,39,0,3,,,,,,,,,2,,,61,49
16600,note_on,1,0,3,,,,,,,,,2,,,55,0
16639,note_on,39,0,3,,,,,,,,,2,,,61,0
16640,note_on,1,0,3,,,,,,,,,2,,,66,49
16680,note_on,108,0,1,,,,,,,,,0,,,69,36
16680,note_on,0,0,1,,,,,,,,,0,,,76,36
16680,note_on,0,0,1,,,,,,,,,0,,,81,36
16680,note_on,0,0,1,,,,,,,,,0,,,73,36
16680,note_on,40,0,3,,,,,,,,,2,,,66,0
16680,note_on,0,0,3,,,,,,,,,2,,,64,49
16692,note_on,12,0,1,,,,,,,,,0,,,81,0
16692,note_on,0,0,1,,,,,,,,,0,,,69,0
16692,note_on,0,0,1,,,,,,,,,0,,,73,0
16692,note_on,0,0,1,,,,,,,,,0,,,76,0
16719,note_on,39,0,3,,,,,,,,,2,,,61,49
16720,note_on,1,0,3,,,,,,,,,2,,,64,0
16759,note_on,39,0,3,,,,,,,,,2,,,61,0
16760,note_on,0,0,3,,,,,,,,,2,,,55,49
16760,control_change,1,0,3,,,,,,,,,2,64,0,,
16800,note_on,0,0,1,,,,,,,,,0,,,69,36
16800,note_on,0,0,1,,,,,,,,,0,,,74,36
16800,control_change,0,0,1,,,,,,,,,0,64,127,,
16800,control_change,0,0,1,,,,,,,,,0,64,127,,
16800,control_change,0,0,1,,,,,,,,,0,64,127,,
16800,control_change,108,0,1,,,,,,,,,0,64,0,,
16800,control_change,0,0,4,,,,,,,,,3,64,0,,
16800,control_change,0,0,1,,,,,,,,,0,64,0,,
16800,control_change,0,0,2,,,,,,,,,1,64,127,,
16800,control_change,0,0,3,,,,,,,,,2,64,127,,
16800,control_change,480,0,4,,,,,,,,,3,64,0,,
16800,control_change,0,0,3,,,,,,,,,2,64,127,,
16800,note_on,0,0,1,,,,,,,,,0,,,81,36
16800,control_change,0,0,3,,,,,,,,,2,64,127,,
16800,note_on,0,0,3,,,,,,,,,2,,,54,49
16800,control_change,0,0,3,,,,,,,,,2,64,0,,
16800,control_change,0,0,3,,,,,,,,,2,64,0,,
16800,note_on,40,0,3,,,,,,,,,2,,,55,0
16800,control_change,0,0,4,,,,,,,,,3,64,127,,
16800,control_change,480,0,2,,,,,,,,,1,64,0,,
16800,control_change,0,0,2,,,,,,,,,1,64,127,,
16800,control_change,0,0,2,,,,,,,,,1,64,0,,
16800,control_change,0,0,4,,,,,,,,,3,64,127,,
16812,note_on,0,0,1,,,,,,,,,0,,,74,0
16812,note_on,12,0,1,,,,,,,,,0,,,81,0
16812,note_on,0,0,1,,,,,,,,,0,,,69,0
16839,note_on,39,0,3,,,,,,,,,2,,,57,49
16840,note_on,1,0,3,,,,,,,,,2,,,54,0
16879,note_on,39,0,3,,,,,,,,,2,,,57,0
16880,control_change,1,0,3,,,,,,,,,2,64,0,,
16880,note_on,0,0,3,,,,,,,,,2,,,62,49
16920,control_change,108,0,1,,,,,,,,,0,64,0,,
16920,note_on,0,0,1,,,,,,,,,0,,,71,49
16920,note_on,0,0,1,,,,,,,,,0,,,74,49
16920,note_on,0,0,1,,,,,,,,,0,,,83,49
16920,note_on,40,0,3,,,,,,,,,2,,,62,0
16920,note_on,0,0,3,,,,,,,,,2,,,53,62
16932,note_on,12,0,1,,,,,,,,,0,,,83,0
16932,note_on,0,0,1,,,,,,,,,0,,,71,0
16932,note_on,0,0,1,,,,,,,,,0,,,74,0
16959,note_on,39,0,3,,,,,,,,,2,,,57,62
16960,note_on,1,0,3,,,,,,,,,2,,,53,0
16999,note_on,39,0,3,,,,,,,,,2,,,57,0
17000,note_on,1,0,3,,,,,,,,,2,,,62,62
17040,note_on,0,0,1,,,,,,,,,0,,,76,49
17040,note_on,40,0,3,,,,,,,,,2,,,62,0
17040,control_change,0,0,3,,,,,,,,,2,64,127,,
17040,note_on,0,0,3,,,,,,,,,2,,,52,62
17040,note_on,0,0,1,,,,,,,,,0,,,73,49
17040,control_change,108,0,1,,,,,,,,,0,64,127,,
17052,note_on,12,0,1,,,,,,,,,0,,,76,0
17052,note_on,0,0,1,,,,,,,,,0,,,73,0
17079,note_on,39,0,3,,,,,,,,,2,,,57,62
17080,note_on,1,0,3,,,,,,,,,2,,,52,0
17119,note_on,39,0,3,,,,,,,,,2,,,57,0
17120,note_on,1,0,3,,,,,,,,,2,,,61,62
17160,note_on,40,0,3,,,,,,,,,2,,,61,0
17160,control_change,0,0,3,,,,,,,,,2,64,0,,
17160,control_change,108,0,1,,,,,,,,,0,64,0,,
17160,note_on,0,0,3,,,,,,,,,2,,,64,49
17160,note_on,0,0,1,,,,,,,,,0,,,74,36
17160,note_on,0,0,1,,,,,,,,,0,,,76,36
17160,note_on,0,0,1,,,,,,,,,0,,,80,36
17160,note_on,0,0,1,,,,,,,,,0,,,68,36
17172,note_on,12,0,1,,,,,,,,,0,,,80,0
17172,note_on,0,0,1,,,,,,,,,0,,,68,0
17172,note_on,0,0,1,,,,,,,,,0,,,74,0
17172,note_on,0,0,1,,,,,,,,,0,,,76,0
17199,note_on,39,0,3,,,,,,,,,2,,,62,49
17200,note_on,1,0,3,,,,,,,,,2,,,64,0
17239,note_on,39,0,3,,,,,,,,,2,,,62,0
17240,note_on,1,0,3,,,,,,,,,2,,,59,49
17280,control_change,0,0,3,,,,,,,,,2,64,0,,
17280,control_change,0,0,3,,,,,,,,,2,64,127,,
17280,control_change,480,0,2,,,,,,,,,1,64,0,,
17280,control_change,0,0,2,,,,,,,,,1,64,127,,
17280,note_on,0,0,3,,,,,,,,,2,,,57,49
17280,note_on,40,0,3,,,,,,,,,2,,,59,0
17280,control_change,480,0,4,,,,,,,,,3,64,0,,
17280,control_change,0,0,4,,,,,,,,,3,64,127,,
17280,note_on,0,0,1,,,,,,,,,0,,,76,36
17280,note_on,0,0,1,,,,,,,,,0,,,81,36
17280,note_on,0,0,1,,,,,,,,,0,,,73,36
17280,control_change,108,0,1,,,,,,,,,0,64,0,,
17280,control_change,0,0,1,,,,,,,,,0,64,127,,
17280,control_change,0,0,1,,,,,,,,,0,64,127,,
17280,note_on,0,0,1,,,,,,,,,0,,,69,36
17400,note_on,0,0,3,,,,,,,,,2,,,57,49
17400,note_on,120,0,3,,,,,,,,,2,,,57,0
17400,note_on,0,0,3,,,,,,,,,2,,,69,49
17400,note_on,0,0,3,,,,,,,,,2,,,61,49
17520,note_on,0,0,3,,,,,,,,,2,,,62,49
17520,note_on,120,0,3,,,,,,,,,2,,,69,0
17520,note_on,0,0,3,,,,,,,,,2,,,61,0
17520,note_on,0,0,3,,,,,,,,,2,,,57,0
17520,control_change,0,0,3,,,,,,,,,2,64,0,,
17520,note_on,0,0,3,,,,,,,,,2,,,59,49
17520,note_on,0,0,3,,,,,,,,,2,,,68,49
17520,note_on,240,0,1,,,,,,,,,0,,,81,0
17520,note_on,0,0,1,,,,,,,,,0,,,69,0
17520,note_on,0,0,1,,,,,,,,,0,,,73,0
17520,note_on,0,0,1,,,,,,,,,0,,,76,0
17640,note_on,0,0,3,,,,,,,,,2,,,59,0
17640,note_on,120,0,3,,,,,,,,,2,,,68,0
17640,note_on,0,0,3,,,,,,,,,2,,,62,0
17640,note_on,0,0,3,,,,,,,,,2,,,61,49
17640,note_on,0,0,3,,,,,,,,,2,,,64,49
17640,note_on,0,0,3,,,,,,,,,2,,,67,49
17760,control_change,0,0,3,,,,,,,,,2,64,127,,
17760,note_on,0,0,3,,,,,,,,,2,,,61,0
17760,note_on,120,0,3,,,,,,,,,2,,,67,0
17760,note_on,0,0,3,,,,,,,,,2,,,64,0
17760,note_on,0,0,3,,,,,,,,,2,,,66,49
17760,note_on,0,0,3,,,,,,,,,2,,,62,49
17772,note_on,12,0,3,,,,,,,,,2,,,66,0
17772,note_on,0,0,3,,,,,,,,,2,,,62,0
17880,note_on,108,0,3,,,,,,,,,2,,,57,49
17880,note_on,0,0,3,,,,,,,,,2,,,66,49
17892,note_on,12,0,3,,,,,,,,,2,,,66,0
17892,note_on,0,0,3,,,,,,,,,2,,,57,0
18000,note_on,0,0,1,,,,,,,,,0,,,81,49
18000,control_change,480,0,1,,,,,,,,,0,64,127,,
18000,note_on,0,0,3,,,,,,,,,2,,,66,36
18000,note_on,108,0,3,,,,,,,,,2,,,62,36
18012,note_on,0,0,3,,,,,,,,,2,,,62,0
18012,note_on,12,0,3,,,,,,,,,2,,,66,0
18090,note_on,0,0,1,,,,,,,,,0,,,83,49
18090,note_on,90,0,1,,,,,,,,,0,,,81,0
18120,note_on,30,0,1,,,,,,,,,0,,,83,0
18120,note_on,0,0,3,,,,,,,,,2,,,57,36
18120,note_on,0,0,3,,,,,,,,,2,,,66,36
18120,note_on,0,0,1,,,,,,,,,0,,,81,49
18120,control_change,108,0,3,,,,,,,,,2,64,0,,
18132,note_on,12,0,3,,,,,,,,,2,,,66,0
18132,note_on,0,0,3,,,,,,,,,2,,,57,0
18210,note_on,90,0,1,,,,,,,,,0,,,81,0
18210,control_change,0,0,1,,,,,,,,,0,64,0,,
18210,note_on,0,0,1,,,,,,,,,0,,,78,49
18240,note_on,30,0,1,,,,,,,,,0,,,78,0
18240,control_change,0,0,1,,,,,,,,,0,64,127,,
18240,note_on,0,0,1,,,,,,,,,0,,,74,49
18240,control_change,108,0,3,,,,,,,,,2,64,127,,
18240,note_on,0,0,3,,,,,,,,,2,,,66,36
18240,note_on,0,0,3,,,,,,,,,2,,,62,36
18252,note_on,0,0,3,,,,,,,,,2,,,62,0
18252,note_on,12,0,3,,,,,,,,,2,,,66,0
18252,note_on,12,0,1,,,,,,,,,0,,,74,0
18360,note_on,0,0,1,,,,,,,,,0,,,74,49
18360,note_on,0,0,3,,,,,,,,,2,,,57,36
18360,control_change,108,0,3,,,,,,,,,2,64,0,,
18360,note_on,0,0,3,,,,,,,,,2,,,66,36
18360,control_change,108,0,1,,,,,,,,,0,64,0,,
18372,note_on,0,0,3,,,,,,,,,2,,,57,0
18372,note_on,12,0,3,,,,,,,,,2,,,66,0
18372,note_on,12,0,1,,,,,,,,,0,,,74,0
18465,note_on,93,0,1,,,,,,,,,0,,,74,49
18480,note_on,0,0,1,,,,,,,,,0,,,73,49
18480,control_change,0,0,1,,,,,,,,,0,64,127,,
18480,note_on,15,0,1,,,,,,,,,0,,,74,0
18480,note_on,0,0,3,,,,,,,,,2,,,67,36
18480,note_on,0,0,3,,,,,,,,,2,,,64,36
18480,control_change,108,0,3,,,,,,,,,2,64,127,,
18492,note_on,0,0,3,,,,,,,,,2,,,64,0
18492,note_on,12,0,3,,,,,,,,,2,,,67,0
18570,note_on,0,0,1,,,,,,,,,0,,,71,49
18570,note_on,90,0,1,,,,,,,,,0,,,73,0
18600,note_on,0,0,1,,,,,,,,,0,,,73,49
18600,control_change,108,0,3,,,,,,,,,2,64,0,,
18600,note_on,0,0,3,,,,,,,,,2,,,57,36
18600,note_on,0,0,3,,,,,,,,,2,,,67,36
18600,note_on,30,0,1,,,,,,,,,0,,,71,0
18612,note_on,12,0,3,,,,,,,,,2,,,67,0
18612,note_on,0,0,3,,,,,,,,,2,,,57,0
18690,control_change,0,0,1,,,,,,,,,0,64,0,,
18690,note_on,90,0,1,,,,,,,,,0,,,73,0
18690,note_on,0,0,1,,,,,,,,,0,,,76,49
18720,note_on,0,0,3,,,,,,,,,2,,,62,36
18720,note_on,30,0,1,,,,,,,,,0,,,76,0
18720,control_change,0,0,1,,,,,,,,,0,64,127,,
18720,note_on,0,0,1,,,,,,,,,0,,,69,49
18720,control_change,108,0,3,,,,,,,,,2,64,127,,
18720,note_on,0,0,3,,,,,,,,,2,,,66,36
18732,note_on,0,0,3,,,,,,,,,2,,,62,0
18732,note_on,12,0,3,,,,,,,,,2,,,66,0
18840,note_on,0,0,3,,,,,,,,,2,,,66,36
18840,note_on,0,0,3,,,,,,,,,2,,,57,36
18840,control_change,108,0,3,,,,,,,,,2,64,0,,
18840,note_on,120,0,1,,,,,,,,,0,,,69,0
18840,control_change,0,0,1,,,,,,,,,0,64,0,,
18840,note_on,0,0,1,,,,,,,,,0,,,74,49
18852,note_on,0,0,3,,,,,,,,,2,,,57,0
18852,note_on,12,0,3,,,,,,,,,2,,,66,0
18900,note_on,60,0,1,,,,,,,,,0,,,74,0
18960,control_change,60,0,1,,,,,,,,,0,64,127,,
18960,note_on,0,0,1,,,,,,,,,0,,,76,49
18960,control_change,108,0,3,,,,,,,,,2,64,127,,
18960,note_on,0,0,3,,,,,,,,,2,,,61,36
18960,note_on,0,0,3,,,,,,,,,2,,,67,36
18972,note_on,0,0,3,,,,,,,,,2,,,61,0
18972,note_on,12,0,3,,,,,,,,,2,,,67,0
19050,note_on,90,0,1,,,,,,,,,0,,,76,0
19050,note_on,0,0,1,,,,,,,,,0,,,79,49
19065,note_on,15,0,1,,,,,,,,,0,,,79,0
19065,note_on,0,0,1,,,,,,,,,0,,,79,49
19080,control_change,108,0,3,,,,,,,,,2,64,0,,
19080,note_on,0,0,3,,,,,,,,,2,,,67,36
19080,note_on,0,0,3,,,,,,,,,2,,,57,36
19087,note_on,22,0,1,,,,,,,,,0,,,83,49
19088,note_on,1,0,1,,,,,,,,,0,,,79,0
19092,note_on,0,0,3,,,,,,,,,2,,,57,0
19092,note_on,12,0,3,,,,,,,,,2,,,67,0
19147,control_change,0,0,1,,,,,,,,,0,64,0,,
19147,note_on,59,0,1,,,,,,,,,0,,,83,0
19147,note_on,0,0,1,,,,,,,,,0,,,81,49
19177,note_on,30,0,1,,,,,,,,,0,,,81,0
19200,note_on,0,0,3,,,,,,,,,2,,,66,36
19200,note_on,0,0,3,,,,,,,,,2,,,62,36
19200,control_change,108,0,3,,,,,,,,,2,64,127,,
19200,control_change,23,0,1,,,,,,,,,0,64,127,,
19200,note_on,0,0,1,,,,,,,,,0,,,81,49
19212,note_on,0,0,3,,,,,,,,,2,,,62,0
19212,note_on,12,0,3,,,,,,,,,2,,,66,0
19212,note_on,12,0,1,,,,,,,,,0,,,81,0
19320,note_on,0,0,3,,,,,,,,,2,,,66,36
19320,note_on,0,0,3,,,,,,,,,2,,,57,36
19320,control_change,108,0,3,,,,,,,,,2,64,0,,
19320,note_on,0,0,1,,,,,,,,,0,,,81,49
19320,control_change,108,0,1,,,,,,,,,0,64,0,,
19332,note_on,12,0,1,,,,,,,,,0,,,81,0
19332,note_on,12,0,3,,,,,,,,,2,,,66,0
19332,note_on,0,0,3,,,,,,,,,2,,,57,0
19425,note_on,93,0,1,,,,,,,,,0,,,85,49
19440,note_on,0,0,3,,,,,,,,,2,,,67,49
19440,note_on,0,0,3,,,,,,,,,2,,,62,49
19440,note_on,0,0,3,,,,,,,,,2,,,55,49
19440,note_on,0,0,1,,,,,,,,,0,,,83,62
19440,control_change,0,0,1,,,,,,,,,0,64,127,,
19440,note_on,15,0,1,,,,,,,,,0,,,85,0
19440,control_change,108,0,3,,,,,,,,,2,64,127,,
19452,note_on,12,0,3,,,,,,,,,2,,,67,0
19452,note_on,0,0,3,,,,,,,,,2,,,62,0
19452,note_on,0,0,3,,,,,,,,,2,,,55,0
19530,note_on,90,0,1,,,,,,,,,0,,,83,0
19530,note_on,0,0,1,,,,,,,,,0,,,82,62
19560,note_on,30,0,1,,,,,,,,,0,,,82,0
19560,note_on,0,0,1,,,,,,,,,0,,,83,62
19560,control_change,108,0,3,,,,,,,,,2,64,0,,
19560,note_on,0,0,3,,,,,,,,,2,,,59,49
19560,note_on,0,0,3,,,,,,,,,2,,,62,49
19560,note_on,0,0,3,,,,,,,,,2,,,67,49
19572,note_on,0,0,3,,,,,,,,,2,,,62,0
19572,note_on,12,0,3,,,,,,,,,2,,,67,0
19572,note_on,0,0,3,,,,,,,,,2,,,59,0
19650,note_on,90,0,1,,,,,,,,,0,,,83,0
19650,control_change,0,0,1,,,,,,,,,0,64,0,,
19650,note_on,0,0,1,,,,,,,,,0,,,86,62
19680,note_on,30,0,1,,,,,,,,,0,,,86,0
19680,control_change,0,0,1,,,,,,,,,0,64,127,,
19680,note_on,0,0,1,,,,,,,,,0,,,81,49
19680,control_change,108,0,3,,,,,,,,,2,64,127,,
19680,note_on,0,0,3,,,,,,,,,2,,,62,36
19680,note_on,0,0,3,,,,,,,,,2,,,66,36
19692,note_on,12,0,3,,,,,,,,,2,,,66,0
19692,note_on,0,0,3,,,,,,,,,2,,,62,0
19800,note_on,0,0,3,,,,,,,,,2,,,66,36
19800,note_on,0,0,3,,,,,,,,,2,,,57,36
19800,control_change,108,0,3,,,,,,,,,2,64,0,,
19812,note_on,12,0,3,,,,,,,,,2,,,66,0
19812,note_on,0,0,3,,,,,,,,,2,,,57,0
19920,note_on,0,0,3,,,,,,,,,2,,,62,36
19920,control_change,108,0,3,,,,,,,,,2,64,127,,
19920,note_on,240,0,1,,,,,,,,,0,,,81,0
19920,control_change,0,0,1,,,,,,,,,0,64,127,,
19920,note_on,0,0,1,,,,,,,,,0,,,81,49
19920,note_on,0,0,3,,,,,,,,,2,,,65,36
19932,note_on,0,0,3,,,,,,,,,2,,,62,0
19932,note_on,12,0,3,,,,,,,,,2,,,65,0
20010,note_on,0,0,1,,,,,,,,,0,,,82,49
20010,note_on,90,0,1,,,,,,,,,0,,,81,0
20040,note_on,0,0,1,,,,,,,,,0,,,81,49
20040,note_on,30,0,1,,,,,,,,,0,,,82,0
20040,note_on,0,0,3,,,,,,,,,2,,,65,36
20040,note_on,0,0,3,,,,,,,,,2,,,57,36
20040,control_change,108,0,3,,,,,,,,,2,64,0,,
20052,note_on,12,0,3,,,,,,,,,2,,,65,0
20052,note_on,0,0,3,,,,,,,,,2,,,57,0
20130,note_on,0,0,1,,,,,,,,,0,,,77,49
20130,control_change,0,0,1,,,,,,,,,0,64,0,,
20130,note_on,90,0,1,,,,,,,,,0,,,81,0
20160,note_on,0,0,1,,,,,,,,,0,,,74,49
20160,control_change,0,0,1,,,,,,,,,0,64,127,,
20160,note_on,30,0,1,,,,,,,,,0,,,77,0
20160,control_change,108,0,3,,,,,,,,,2,64,127,,
20160,note_on,0,0,3,,,,,,,,,2,,,65,36
20160,note_on,0,0,3,,,,,,,,,2,,,62,36
20172,note_on,12,0,1,,,,,,,,,0,,,74,0
20172,note_on,0,0,3,,,,,,,,,2,,,62,0
20172,note_on,12,0,3,,,,,,,,,2,,,65,0
20280,control_change,108,0,1,,,,,,,,,0,64,0,,
20280,control_change,108,0,3,,,,,,,,,2,64,0,,
20280,note_on,0,0,3,,,,,,,,,2,,,57,36
20280,note_on,0,0,3,,,,,,,,,2,,,65,36
20280,note_on,0,0,1,,,,,,,,,0,,,74,49
20292,note_on,12,0,3,,,,,,,,,2,,,65,0
20292,note_on,12,0,1,,,,,,,,,0,,,74,0
20292,note_on,0,0,3,,,,,,,,,2,,,57,0
20385,note_on,93,0,1,,,,,,,,,0,,,74,49
20400,note_on,0,0,1,,,,,,,,,0,,,69,49
20400,note_on,0,0,1,,,,,,,,,0,,,77,49
20400,note_on,0,0,3,,,,,,,,,2,,,60,36
20400,note_on,0,0,3,,,,,,,,,2,,,63,36
20400,note_on,15,0,1,,,,,,,,,0,,,74,0
20400,control_change,108,0,3,,,,,,,,,2,64,127,,
20400,note_on,0,0,3,,,,,,,,,2,,,65,36
20400,control_change,0,0,1,,,,,,,,,0,64,127,,
20412,note_on,12,0,3,,,,,,,,,2,,,65,0
20412,note_on,0,0,3,,,,,,,,,2,,,60,0
20412,note_on,0,0,3,,,,,,,,,2,,,63,0
20412,note_on,12,0,1,,,,,,,,,0,,,77,0
20412,note_on,0,0,1,,,,,,,,,0,,,69,0
20520,note_on,0,0,3,,,,,,,,,2,,,60,36
20520,control_change,108,0,1,,,,,,,,,0,64,0,,
20520,note_on,0,0,1,,,,,,,,,0,,,77,49
20520,note_on,0,0,3,,,,,,,,,2,,,65,36
20520,note_on,0,0,3,,,,,,,,,2,,,63,36
20520,note_on,0,0,3,,,,,,,,,2,,,53,36
20520,control_change,108,0,3,,,,,,,,,2,64,0,,
20520,note_on,0,0,1,,,,,,,,,0,,,69,49
20532,note_on,12,0,1,,,,,,,,,0,,,77,0
20532,note_on,0,0,1,,,,,,,,,0,,,69,0
20532,note_on,12,0,3,,,,,,,,,2,,,65,0
20532,note_on,0,0,3,,,,,,,,,2,,,63,0
20532,note_on,0,0,3,,,,,,,,,2,,,53,0
20532,note_on,0,0,3,,,,,,,,,2,,,60,0
20640,note_on,0,0,3,,,,,,,,,2,,,58,36
20640,note_on,0,0,1,,,,,,,,,0,,,77,49
20640,control_change,108,0,1,,,,,,,,,0,64,127,,
20640,note_on,0,0,1,,,,,,,,,0,,,70,49
20640,note_on,0,0,3,,,,,,,,,2,,,62,36
20640,control_change,108,0,3,,,,,,,,,2,64,127,,
20640,note_on,0,0,3,,,,,,,,,2,,,65,36
20652,note_on,0,0,3,,,,,,,,,2,,,62,0
20652,note_on,0,0,3,,,,,,,,,2,,,58,0
20652,note_on,12,0,3,,,,,,,,,2,,,65,0
20760,control_change,108,0,3,,,,,,,,,2,64,0,,
20760,note_on,0,0,3,,,,,,,,,2,,,62,36
20760,note_on,0,0,3,,,,,,,,,2,,,65,36
20760,note_on,120,0,1,,,,,,,,,0,,,77,0
20760,note_on,0,0,1,,,,,,,,,0,,,70,0
20760,note_on,0,0,1,,,,,,,,,0,,,82,49
20760,control_change,0,0,1,,,,,,,,,0,64,0,,
20772,note_on,0,0,3,,,,,,,,,2,,,62,0
20772,note_on,12,0,3,,,,,,,,,2,,,65,0
20820,note_on,60,0,1,,,,,,,,,0,,,82,0
20880,control_change,108,0,3,,,,,,,,,2,64,127,,
20880,note_on,0,0,3,,,,,,,,,2,,,58,49
20880,note_on,0,0,3,,,,,,,,,2,,,62,49
20880,note_on,0,0,3,,,,,,,,,2,,,65,49
20880,note_on,0,0,1,,,,,,,,,0,,,86,62
20880,control_change,60,0,1,,,,,,,,,0,64,127,,
20892,note_on,12,0,3,,,,,,,,,2,,,65,0
20892,note_on,0,0,3,,,,,,,,,2,,,62,0
20892,note_on,0,0,3,,,,,,,,,2,,,58,0
20919,note_on,39,0,1,,,,,,,,,0,,,88,62
20920,note_on,1,0,1,,,,,,,,,0,,,86,0
20959,note_on,39,0,1,,,,,,,,,0,,,88,0
20960,note_on,1,0,1,,,,,,,,,0,,,85,62
21000,note_on,0,0,3,,,,,,,,,2,,,68,49
21000,note_on,0,0,3,,,,,,,,,2,,,62,49
21000,note_on,0,0,3,,,,,,,,,2,,,58,49
21000,control_change,108,0,3,,,,,,,,,2,64,0,,
21000,note_on,0,0,1,,,,,,,,,0,,,86,62
21000,note_on,40,0,1,,,,,,,,,0,,,85,0
21012,note_on,0,0,3,,,,,,,,,2,,,62,0
21012,note_on,0,0,3,,,,,,,,,2,,,58,0
21012,note_on,12,0,3,,,,,,,,,2,,,68,0
21039,note_on,39,0,1,,,,,,,,,0,,,88,62
21040,note_on,1,0,1,,,,,,,,,0,,,86,0
21079,note_on,39,0,1,,,,,,,,,0,,,88,0
21080,control_change,1,0,1,,,,,,,,,0,64,0,,
21080,note_on,0,0,1,,,,,,,,,0,,,89,62
21120,note_on,0,0,1,,,,,,,,,0,,,81,49
21120,control_change,0,0,1,,,,,,,,,0,64,127,,
21120,note_on,40,0,1,,,,,,,,,0,,,89,0
21120,note_on,0,0,3,,,,,,,,,2,,,69,36
21120,note_on,0,0,3,,,,,,,,,2,,,66,36
21120,note_on,0,0,3,,,,,,,,,2,,,62,36
21120,control_change,108,0,3,,,,,,,,,2,64,127,,
21132,note_on,0,0,3,,,,,,,,,2,,,62,0
21132,note_on,0,0,3,,,,,,,,,2,,,66,0
21132,note_on,12,0,3,,,,,,,,,2,,,69,0
21180,note_on,60,0,1,,,,,,,,,0,,,81,0
21240,note_on,0,0,3,,,,,,,,,2,,,69,62
21240,note_on,0,0,3,,,,,,,,,2,,,66,57
21240,note_on,0,0,3,,,,,,,,,2,,,57,52
21240,control_change,108,0,3,,,,,,,,,2,64,0,,
21240,control_change,60,0,1,,,,,,,,,0,64,0,,
21240,note_on,0,0,1,,,,,,,,,0,,,81,75
21252,note_on,12,0,3,,,,,,,,,2,,,69,0
21252,note_on,0,0,3,,,,,,,,,2,,,57,0
21252,note_on,0,0,3,,,,,,,,,2,,,66,0
21360,note_on,0,0,3,,,,,,,,,2,,,61,36
21360,control_change,0,0,1,,,,,,,,,0,64,127,,
21360,note_on,120,0,1,,,,,,,,,0,,,81,0
21360,note_on,0,0,3,,,,,,,,,2,,,67,36
21360,note_on,0,0,3,,,,,,,,,2,,,69,36
21360,control_change,108,0,3,,,,,,,,,2,64,127,,
21360,note_on,0,0,1,,,,,,,,,0,,,76,49
21372,note_on,12,0,3,,,,,,,,,2,,,69,0
21372,note_on,0,0,3,,,,,,,,,2,,,67,0
21372,note_on,0,0,3,,,,,,,,,2,,,61,0
21399,note_on,39,0,1,,,,,,,,,0,,,79,49
21400,note_on,1,0,1,,,,,,,,,0,,,76,0
21439,note_on,39,0,1,,,,,,,,,0,,,79,0
21440,note_on,1,0,1,,,,,,,,,0,,,83,49
21480,note_on,0,0,3,,,,,,,,,2,,,57,36
21480,note_on,40,0,1,,,,,,,,,0,,,83,0
21480,note_on,0,0,1,,,,,,,,,0,,,81,49
21480,control_change,108,0,3,,,,,,,,,2,64,0,,
21480,note_on,0,0,3,,,,,,,,,2,,,67,36
21480,note_on,0,0,3,,,,,,,,,2,,,69,36
21492,note_on,0,0,3,,,,,,,,,2,,,57,0
21492,note_on,0,0,3,,,,,,,,,2,,,67,0
21492,note_on,12,0,3,,,,,,,,,2,,,69,0
21519,note_on,39,0,1,,,,,,,,,0,,,79,49
21520,note_on,1,0,1,,,,,,,,,0,,,81,0
21559,note_on,39,0,1,,,,,,,,,0,,,79,0
21560,control_change,1,0,1,,,,,,,,,0,64,0,,
21560,note_on,0,0,1,,,,,,,,,0,,,73,49
21600,control_change,108,0,3,,,,,,,,,2,64,127,,
21600,note_on,0,0,3,,,,,,,,,2,,,62,36
21600,note_on,40,0,1,,,,,,,,,0,,,73,0
21600,control_change,0,0,1,,,,,,,,,0,64,127,,
21600,note_on,0,0,1,,,,,,,,,0,,,81,88
21600,note_on,0,0,3,,,,,,,,,2,,,66,36
21612,note_on,0,0,3,,,,,,,,,2,,,62,0
21612,note_on,12,0,3,,,,,,,,,2,,,66,0
21720,control_change,108,0,3,,,,,,,,,2,64,0,,
21720,note_on,0,0,3,,,,,,,,,2,,,59,36
21720,note_on,0,0,3,,,,,,,,,2,,,62,36
21720,note_on,0,0,3,,,,,,,,,2,,,66,36
21732,note_on,12,0,3,,,,,,,,,2,,,66,0
21732,note_on,0,0,3,,,,,,,,,2,,,62,0
21732,note_on,0,0,3,,,,,,,,,2,,,59,0
21840,note_on,0,0,3,,,,,,,,,2,,,62,36
21840,note_on,0,0,3,,,,,,,,,2,,,59,36
21840,note_on,0,0,3,,,,,,,,,2,,,67,36
21840,note_on,0,0,1,,,,,,,,,0,,,79,49
21840,control_change,0,0,1,,,,,,,,,0,64,127,,
21840,note_on,240,0,1,,,,,,,,,0,,,81,0
21840,control_change,108,0,3,,,,,,,,,2,64,127,,
21852,note_on,12,0,3,,,,,,,,,2,,,67,0
21852,note_on,0,0,3,,,,,,,,,2,,,62,0
21852,note_on,0,0,3,,,,,,,,,2,,,59,0
21879,note_on,39,0,1,,,,,,,,,0,,,83,49
21880,note_on,1,0,1,,,,,,,,,0,,,79,0
21919,note_on,39,0,1,,,,,,,,,0,,,83,0
21920,note_on,1,0,1,,,,,,,,,0,,,88,49
21960,note_on,0,0,1,,,,,,,,,0,,,86,49
21960,control_change,108,0,3,,,,,,,,,2,64,0,,
21960,note_on,0,0,3,,,,,,,,,2,,,55,36
21960,note_on,0,0,3,,,,,,,,,2,,,62,36
21960,note_on,40,0,1,,,,,,,,,0,,,88,0
21960,note_on,0,0,3,,,,,,,,,2,,,67,36
21972,note_on,0,0,3,,,,,,,,,2,,,62,0
21972,note_on,12,0,3,,,,,,,,,2,,,67,0
21972,note_on,0,0,3,,,,,,,,,2,,,55,0
21999,note_on,39,0,1,,,,,,,,,0,,,83,49
22000,note_on,1,0,1,,,,,,,,,0,,,86,0
22039,note_on,39,0,1,,,,,,,,,0,,,83,0
22040,note_on,0,0,1,,,,,,,,,0,,,79,49
22040,control_change,1,0,1,,,,,,,,,0,64,0,,
22080,control_change,108,0,3,,,,,,,,,2,64,127,,
22080,note_on,0,0,3,,,,,,,,,2,,,62,36
22080,note_on,0,0,3,,,,,,,,,2,,,66,36
22080,note_on,40,0,1,,,,,,,,,0,,,79,0
22080,note_on,0,0,1,,,,,,,,,0,,,78,49
22080,control_change,0,0,1,,,,,,,,,0,64,127,,
22092,note_on,12,0,3,,,,,,,,,2,,,66,0
22092,note_on,0,0,3,,,,,,,,,2,,,62,0
22110,note_on,0,0,1,,,,,,,,,0,,,81,49
22110,note_on,30,0,1,,,,,,,,,0,,,78,0
22170,note_on,60,0,1,,,,,,,,,0,,,81,0
22200,note_on,0,0,3,,,,,,,,,2,,,57,54
22200,control_change,108,0,3,,,,,,,,,2,64,0,,
22200,note_on,0,0,3,,,,,,,,,2,,,66,62
22200,control_change,30,0,1,,,,,,,,,0,64,0,,
22200,note_on,0,0,1,,,,,,,,,0,,,81,75
22212,note_on,12,0,3,,,,,,,,,2,,,66,0
22212,note_on,0,0,3,,,,,,,,,2,,,57,0
22320,note_on,0,0,1,,,,,,,,,0,,,76,62
22320,control_change,0,0,1,,,,,,,,,0,64,127,,
22320,note_on,120,0,1,,,,,,,,,0,,,81,0
22320,control_change,108,0,3,,,,,,,,,2,64,127,,
22320,note_on,0,0,3,,,,,,,,,2,,,61,49
22320,note_on,0,0,3,,,,,,,,,2,,,67,49
22332,note_on,12,0,3,,,,,,,,,2,,,67,0
22332,note_on,0,0,3,,,,,,,,,2,,,61,0
22359,note_on,39,0,1,,,,,,,,,0,,,79,62
22360,note_on,1,0,1,,,,,,,,,0,,,76,0
22399,note_on,39,0,1,,,,,,,,,0,,,79,0
22400,note_on,1,0,1,,,,,,,,,0,,,83,62
22440,control_change,108,0,3,,,,,,,,,2,64,0,,
22440,note_on,0,0,1,,,,,,,,,0,,,81,62
22440,note_on,0,0,3,,,,,,,,,2,,,67,49
22440,note_on,40,0,1,,,,,,,,,0,,,83,0
22440,note_on,0,0,3,,,,,,,,,2,,,57,49
22452,note_on,12,0,3,,,,,,,,,2,,,67,0
22452,note_on,0,0,3,,,,,,,,,2,,,57,0
22479,note_on,39,0,1,,,,,,,,,0,,,79,62
22480,note_on,1,0,1,,,,,,,,,0,,,81,0
22519,note_on,39,0,1,,,,,,,,,0,,,79,0
22520,control_change,1,0,1,,,,,,,,,0,64,0,,
22520,note_on,0,0,1,,,,,,,,,0,,,73,62
22560,note_on,0,0,3,,,,,,,,,2,,,66,36
22560,note_on,0,0,1,,,,,,,,,0,,,74,49
22560,note_on,108,0,3,,,,,,,,,2,,,62,36
22560,time_signature,8640,1,0,2,4,24,8,,,,,,,,,
22560,note_on,40,0,1,,,,,,,,,0,,,73,0
22800,note_on,0,0,1,,,,,,,,,0,,,62,49
22800,note_on,240,0,1,,,,,,,,,0,,,74,0
22800,note_on,0,0,3,,,,,,,,,2,,,50,36
22800,note_on,0,0,3,,,,,,,,,2,,,62,0
22800,note_on,240,0,3,,,,,,,,,2,,,66,0
22830,note_on,0,0,1,,,,,,,,,0,,,64,49
22830,note_on,30,0,3,,,,,,,,,2,,,50,0
22830,note_on,30,0,1,,,,,,,,,0,,,62,0
22830,note_on,0,0,3,,,,,,,,,2,,,52,36
22860,note_on,0,0,1,,,,,,,,,0,,,66,49
22860,note_on,30,0,1,,,,,,,,,0,,,64,0
22860,note_on,30,0,3,,,,,,,,,2,,,52,0
22860,note_on,0,0,3,,,,,,,,,2,,,54,36
22890,note_on,0,0,3,,,,,,,,,2,,,55,36
22890,note_on,30,0,3,,,,,,,,,2,,,54,0
22890,note_on,30,0,1,,,,,,,,,0,,,66,0
22890,note_on,0,0,1,,,,,,,,,0,,,67,49
22920,note_on,0,0,3,,,,,,,,,2,,,56,36
22920,note_on,30,0,1,,,,,,,,,0,,,67,0
22920,note_on,0,0,1,,,,,,,,,0,,,68,49
22920,note_on,30,0,3,,,,,,,,,2,,,55,0
22950,note_on,30,0,3,,,,,,,,,2,,,56,0
22950,note_on,30,0,1,,,,,,,,,0,,,68,0
22950,note_on,0,0,1,,,,,,,,,0,,,69,49
22950,note_on,0,0,3,,,,,,,,,2,,,57,36
22980,note_on,30,0,3,,,,,,,,,2,,,57,0
22980,note_on,0,0,1,,,,,,,,,0,,,68,49
22980,note_on,0,0,3,,,,,,,,,2,,,56,36
22980,note_on,30,0,1,,,,,,,,,0,,,69,0
23010,note_on,30,0,3,,,,,,,,,2,,,56,0
23010,note_on,0,0,3,,,,,,,,,2,,,57,36
23010,note_on,30,0,1,,,,,,,,,0,,,68,0
23010,note_on,0,0,1,,,,,,,,,0,,,69,49
23040,note_on,30,0,1,,,,,,,,,0,,,69,0
23040,control_change,0,0,1,,,,,,,,,0,64,127,,
23040,note_on,0,0,1,,,,,,,,,0,,,62,65
23040,note_on,0,0,1,,,,,,,,,0,,,67,70
23040,time_signature,480,1,0,4,4,24,8,,,,,,,,,
23040,note_on,0,0,3,,,,,,,,,2,,,59,62
23040,note_on,0,0,3,,,,,,,,,2,,,55,54
23040,control_change,0,0,3,,,,,,,,,2,64,127,,
23040,note_on,30,0,3,,,,,,,,,2,,,57,0
23040,note_on,0,0,1,,,,,,,,,0,,,71,75
23160,note_on,0,0,1,,,,,,,,,0,,,67,0
23160,note_on,0,0,1,,,,,,,,,0,,,66,49
23160,control_change,0,0,1,,,,,,,,,0,64,0,,
23160,note_on,120,0,1,,,,,,,,,0,,,71,0
23160,note_on,0,0,1,,,,,,,,,0,,,69,49
23160,note_on,120,0,3,,,,,,,,,2,,,59,0
23160,note_on,0,0,3,,,,,,,,,2,,,57,36
23160,note_on,0,0,3,,,,,,,,,2,,,50,36
23160,control_change,0,0,3,,,,,,,,,2,64,0,,
23160,note_on,0,0,3,,,,,,,,,2,,,55,0
23220,note_on,60,0,1,,,,,,,,,0,,,69,0
23220,note_on,60,0,3,,,,,,,,,2,,,57,0
23220,note_on,0,0,1,,,,,,,,,0,,,66,0
23220,note_on,0,0,1,,,,,,,,,0,,,62,0
23220,note_on,0,0,3,,,,,,,,,2,,,50,0
23280,note_on,0,0,3,,,,,,,,,2,,,54,36
23280,note_on,0,0,1,,,,,,,,,0,,,74,49
23280,control_change,60,0,1,,,,,,,,,0,64,127,,
23280,control_change,60,0,3,,,,,,,,,2,64,127,,
23319,note_on,39,0,1,,,,,,,,,0,,,73,49
23319,note_on,39,0,3,,,,,,,,,2,,,57,36
23320,note_on,1,0,1,,,,,,,,,0,,,74,0
23320,note_on,1,0,3,,,,,,,,,2,,,54,0
23359,note_on,39,0,1,,,,,,,,,0,,,73,0
23359,note_on,39,0,3,,,,,,,,,2,,,57,0
23360,note_on,1,0,1,,,,,,,,,0,,,71,49
23360,note_on,1,0,3,,,,,,,,,2,,,55,36
23400,note_on,40,0,1,,,,,,,,,0,,,71,0
23400,note_on,0,0,1,,,,,,,,,0,,,69,49
23400,note_on,40,0,3,,,,,,,,,2,,,55,0
23400,note_on,0,0,3,,,,,,,,,2,,,54,36
23439,note_on,39,0,3,,,,,,,,,2,,,57,36
23439,note_on,39,0,1,,,,,,,,,0,,,67,49
23440,note_on,1,0,1,,,,,,,,,0,,,69,0
23440,note_on,1,0,3,,,,,,,,,2,,,54,0
23479,note_on,39,0,1,,,,,,,,,0,,,67,0
23479,note_on,39,0,3,,,,,,,,,2,,,57,0
23480,control_change,1,0,1,,,,,,,,,0,64,0,,
23480,note_on,0,0,3,,,,,,,,,2,,,62,36
23480,control_change,1,0,3,,,,,,,,,2,64,0,,
23480,note_on,0,0,1,,,,,,,,,0,,,66,49
23520,note_on,0,0,3,,,,,,,,,2,,,64,36
23520,control_change,0,0,3,,,,,,,,,2,64,127,,
23520,note_on,40,0,3,,,,,,,,,2,,,62,0
23520,note_on,0,0,1,,,,,,,,,0,,,69,49
23520,note_on,40,0,1,,,,,,,,,0,,,66,0
23520,control_change,0,0,1,,,,,,,,,0,64,127,,
23610,note_on,0,0,1,,,,,,,,,0,,,67,49
23610,note_on,90,0,1,,,,,,,,,0,,,69,0
23640,note_on,0,0,1,,,,,,,,,0,,,64,49
23640,control_change,0,0,1,,,,,,,,,0,64,0,,
23640,note_on,30,0,1,,,,,,,,,0,,,67,0
23640,note_on,120,0,3,,,,,,,,,2,,,64,0
23640,control_change,0,0,3,,,,,,,,,2,64,0,,
23640,note_on,0,0,3,,,,,,,,,2,,,57,36
23700,note_on,60,0,3,,,,,,,,,2,,,57,0
23700,note_on,60,0,1,,,,,,,,,0,,,64,0
23760,control_change,60,0,1,,,,,,,,,0,64,127,,
23760,note_on,0,0,1,,,,,,,,,0,,,69,49
23760,note_on,0,0,3,,,,,,,,,2,,,67,36
23760,control_change,60,0,3,,,,,,,,,2,64,127,,
23766,note_on,6,0,3,,,,,,,,,2,,,67,0
23790,note_on,30,0,1,,,,,,,,,0,,,69,0
23790,note_on,0,0,1,,,,,,,,,0,,,71,49
23820,note_on,30,0,1,,,,,,,,,0,,,71,0
23820,note_on,0,0,1,,,,,,,,,0,,,73,49
23820,note_on,54,0,3,,,,,,,,,2,,,66,36
23826,note_on,6,0,3,,,,,,,,,2,,,66,0
23850,note_on,30,0,1,,,,,,,,,0,,,73,0
23850,note_on,0,0,1,,,,,,,,,0,,,74,49
23880,note_on,30,0,1,,,,,,,,,0,,,74,0
23880,control_change,0,0,1,,,,,,,,,0,64,0,,
23880,note_on,0,0,1,,,,,,,,,0,,,75,49
23880,control_change,54,0,3,,,,,,,,,2,64,0,,
23880,note_on,0,0,3,,,,,,,,,2,,,67,36
23886,note_on,6,0,3,,,,,,,,,2,,,67,0
23910,note_on,0,0,1,,,,,,,,,0,,,76,49
23910,note_on,30,0,1,,,,,,,,,0,,,75,0
23940,note_on,54,0,3,,,,,,,,,2,,,69,36
23940,note_on,0,0,1,,,,,,,,,0,,,75,49
23940,note_on,30,0,1,,,,,,,,,0,,,76,0
23946,note_on,6,0,3,,,,,,,,,2,,,69,0
23970,note_on,0,0,1,,,,,,,,,0,,,76,49
23970,note_on,30,0,1,,,,,,,,,0,,,75,0
24000,control_change,54,0,3,,,,,,,,,2,64,127,,
24000,control_change,0,0,1,,,,,,,,,0,64,127,,
24000,note_on,30,0,1,,,,,,,,,0,,,76,0
24000,note_on,0,0,3,,,,,,,,,2,,,66,36
24000,note_on,0,0,1,,,,,,,,,0,,,74,49
24006,note_on,6,0,3,,,,,,,,,2,,,66,0
24030,note_on,0,0,1,,,,,,,,,0,,,76,49
24030,note_on,30,0,1,,,,,,,,,0,,,74,0
24060,note_on,0,0,1,,,,,,,,,0,,,78,49
24060,note_on,30,0,1,,,,,,,,,0,,,76,0
24060,note_on,54,0,3,,,,,,,,,2,,,62,36
24066,note_on,6,0,3,,,,,,,,,2,,,62,0
24090,note_on,30,0,1,,,,,,,,,0,,,78,0
24090,note_on,0,0,1,,,,,,,,,0,,,79,49
24120,note_on,0,0,3,,,,,,,,,2,,,64,36
24120,control_change,54,0,3,,,,,,,,,2,64,0,,
24120,note_on,30,0,1,,,,,,,,,0,,,79,0
24120,control_change,0,0,1,,,,,,,,,0,64,0,,
24120,note_on,0,0,1,,,,,,,,,0,,,80,49
24126,note_on,6,0,3,,,,,,,,,2,,,64,0
24150,note_on,30,0,1,,,,,,,,,0,,,80,0
24150,note_on,0,0,1,,,,,,,,,0,,,81,49
24180,note_on,30,0,1,,,,,,,,,0,,,81,0
24180,note_on,54,0,3,,,,,,,,,2,,,66,36
24180,note_on,0,0,1,,,,,,,,,0,,,80,49
24186,note_on,6,0,3,,,,,,,,,2,,,66,0
24210,note_on,0,0,1,,,,,,,,,0,,,81,49
24210,note_on,30,0,1,,,,,,,,,0,,,80,0
24240,note_on,30,0,1,,,,,,,,,0,,,81,0
24240,control_change,0,0,1,,,,,,,,,0,64,127,,
24240,note_on,0,0,1,,,,,,,,,0,,,83,75
24240,control_change,54,0,3,,,,,,,,,2,64,127,,
24240,note_on,0,0,3,,,,,,,,,2,,,67,62
24246,note_on,6,0,3,,,,,,,,,2,,,67,0
24270,note_on,0,0,1,,,,,,,,,0,,,81,49
24270,note_on,30,0,1,,,,,,,,,0,,,83,0
24300,note_on,30,0,1,,,,,,,,,0,,,81,0
24300,note_on,54,0,3,,,,,,,,,2,,,64,36
24300,note_on,0,0,1,,,,,,,,,0,,,79,49
24306,note_on,6,0,3,,,,,,,,,2,,,64,0
24330,note_on,0,0,1,,,,,,,,,0,,,78,49
24330,note_on,30,0,1,,,,,,,,,0,,,79,0
24360,note_on,0,0,3,,,,,,,,,2,,,66,62
24360,control_change,54,0,3,,,,,,,,,2,64,0,,
24360,note_on,0,0,1,,,,,,,,,0,,,81,75
24360,control_change,0,0,1,,,,,,,,,0,64,0,,
24360,note_on,30,0,1,,,,,,,,,0,,,78,0
24366,note_on,6,0,3,,,,,,,,,2,,,66,0
24390,note_on,30,0,1,,,,,,,,,0,,,81,0
24390,note_on,0,0,1,,,,,,,,,0,,,79,49
24420,note_on,54,0,3,,,,,,,,,2,,,69,36
24420,note_on,0,0,1,,,,,,,,,0,,,78,49
24420,note_on,30,0,1,,,,,,,,,0,,,79,0
24426,note_on,6,0,3,,,,,,,,,2,,,69,0
24450,note_on,0,0,1,,,,,,,,,0,,,76,49
24450,note_on,30,0,1,,,,,,,,,0,,,78,0
24480,control_change,54,0,3,,,,,,,,,2,64,127,,
24480,note_on,0,0,3,,,,,,,,,2,,,66,36
24480,note_on,0,0,1,,,,,,,,,0,,,74,49
24480,note_on,30,0,1,,,,,,,,,0,,,76,0
24480,note_on,0,0,3,,,,,,,,,2,,,62,36
24480,control_change,0,0,1,,,,,,,,,0,64,127,,
24486,note_on,6,0,3,,,,,,,,,2,,,66,0
24486,note_on,0,0,3,,,,,,,,,2,,,62,0
24540,note_on,54,0,3,,,,,,,,,2,,,57,36
24546,note_on,6,0,3,,,,,,,,,2,,,57,0
24600,note_on,54,0,3,,,,,,,,,2,,,54,36
24606,note_on,6,0,3,,,,,,,,,2,,,54,0
24660,control_change,54,0,3,,,,,,,,,2,64,0,,
24660,note_on,0,0,3,,,,,,,,,2,,,50,36
24666,note_on,6,0,3,,,,,,,,,2,,,50,0
24720,control_change,0,0,1,,,,,,,,,0,64,0,,
24720,note_on,54,0,3,,,,,,,,,2,,,55,75
24720,note_on,240,0,1,,,,,,,,,0,,,74,0
24720,note_on,0,0,1,,,,,,,,,0,,,67,88
24750,note_on,30,0,1,,,,,,,,,0,,,67,0
24750,note_on,0,0,1,,,,,,,,,0,,,69,88
24750,note_on,30,0,3,,,,,,,,,2,,,55,0
24750,note_on,0,0,3,,,,,,,,,2,,,57,75
24780,note_on,30,0,1,,,,,,,,,0,,,69,0
24780,note_on,0,0,1,,,,,,,,,0,,,71,88
24780,note_on,0,0,3,,,,,,,,,2,,,59,75
24780,note_on,30,0,3,,,,,,,,,2,,,57,0
24810,note_on,30,0,3,,,,,,,,,2,,,59,0
24810,note_on,30,0,1,,,,,,,,,0,,,71,0
24810,note_on,0,0,1,,,,,,,,,0,,,72,88
24810,note_on,0,0,3,,,,,,,,,2,,,60,75
24840,note_on,30,0,1,,,,,,,,,0,,,72,0
24840,note_on,0,0,3,,,,,,,,,2,,,61,75
24840,note_on,30,0,3,,,,,,,,,2,,,60,0
24840,note_on,0,0,1,,,,,,,,,0,,,73,88
24870,note_on,30,0,1,,,,,,,,,0,,,73,0
24870,note_on,0,0,1,,,,,,,,,0,,,74,88
24870,note_on,30,0,3,,,,,,,,,2,,,61,0
24870,note_on,0,0,3,,,,,,,,,2,,,62,75
24900,note_on,30,0,3,,,,,,,,,2,,,62,0
24900,note_on,0,0,3,,,,,,,,,2,,,61,75
24900,note_on,0,0,1,,,,,,,,,0,,,73,88
24900,note_on,30,0,1,,,,,,,,,0,,,74,0
24930,note_on,30,0,3,,,,,,,,,2,,,61,0
24930,note_on,0,0,3,,,,,,,,,2,,,62,75
24930,note_on,30,0,1,,,,,,,,,0,,,73,0
24930,note_on,0,0,1,,,,,,,,,0,,,74,88
24960,note_on,30,0,1,,,,,,,,,0,,,74,0
24960,note_on,0,0,1,,,,,,,,,0,,,78,114
24960,note_on,30,0,3,,,,,,,,,2,,,62,0
24960,control_change,0,0,1,,,,,,,,,0,64,127,,
24960,note_on,0,0,3,,,,,,,,,2,,,66,101
24960,control_change,0,0,3,,,,,,,,,2,64,127,,
24990,note_on,0,0,3,,,,,,,,,2,,,64,75
24990,note_on,30,0,3,,,,,,,,,2,,,66,0
24990,note_on,0,0,1,,,,,,,,,0,,,76,88
24990,note_on,30,0,1,,,,,,,,,0,,,78,0
25020,note_on,0,0,3,,,,,,,,,2,,,62,75
25020,note_on,0,0,1,,,,,,,,,0,,,74,88
25020,note_on,30,0,1,,,,,,,,,0,,,76,0
25020,note_on,30,0,3,,,,,,,,,2,,,64,0
25050,note_on,0,0,3,,,,,,,,,2,,,61,75
25050,note_on,30,0,1,,,,,,,,,0,,,74,0
25050,note_on,0,0,1,,,,,,,,,0,,,73,88
25050,note_on,30,0,3,,,,,,,,,2,,,62,0
25080,control_change,0,0,3,,,,,,,,,2,64,0,,
25080,note_on,0,0,3,,,,,,,,,2,,,64,101
25080,control_change,0,0,1,,,,,,,,,0,64,0,,
25080,note_on,30,0,1,,,,,,,,,0,,,73,0
25080,note_on,0,0,1,,,,,,,,,0,,,76,114
25080,note_on,30,0,3,,,,,,,,,2,,,61,0
25110,note_on,0,0,1,,,,,,,,,0,,,74,88
25110,note_on,30,0,1,,,,,,,,,0,,,76,0
25110,note_on,30,0,3,,,,,,,,,2,,,64,0
25110,note_on,0,0,3,,,,,,,,,2,,,62,75
25140,note_on,0,0,1,,,,,,,,,0,,,73,88
25140,note_on,30,0,1,,,,,,,,,0,,,74,0
25140,note_on,0,0,3,,,,,,,,,2,,,61,75
25140,note_on,30,0,3,,,,,,,,,2,,,62,0
25170,note_on,30,0,3,,,,,,,,,2,,,61,0
25170,note_on,0,0,3,,,,,,,,,2,,,59,75
25170,note_on,30,0,1,,,,,,,,,0,,,73,0
25170,note_on,0,0,1,,,,,,,,,0,,,71,88
25200,note_on,0,0,3,,,,,,,,,2,,,57,62
25200,note_on,30,0,1,,,,,,,,,0,,,71,0
25200,control_change,0,0,1,,,,,,,,,0,64,127,,
25200,note_on,0,0,1,,,,,,,,,0,,,69,75
25200,control_change,0,0,3,,,,,,,,,2,64,127,,
25200,note_on,30,0,3,,,,,,,,,2,,,59,0
25230,note_on,0,0,3,,,,,,,,,2,,,56,62
25230,note_on,30,0,3,,,,,,,,,2,,,57,0
25230,note_on,30,0,1,,,,,,,,,0,,,69,0
25230,note_on,0,0,1,,,,,,,,,0,,,68,75
25260,note_on,30,0,3,,,,,,,,,2,,,56,0
25260,note_on,30,0,1,,,,,,,,,0,,,68,0
25260,note_on,0,0,3,,,,,,,,,2,,,54,62
25260,note_on,0,0,1,,,,,,,,,0,,,66,75
25290,note_on,30,0,3,,,,,,,,,2,,,54,0
25290,note_on,0,0,3,,,,,,,,,2,,,52,62
25290,note_on,0,0,1,,,,,,,,,0,,,64,75
25290,note_on,30,0,1,,,,,,,,,0,,,66,0
25320,note_on,0,0,1,,,,,,,,,0,,,63,75
25320,control_change,0,0,1,,,,,,,,,0,64,0,,
25320,note_on,30,0,3,,,,,,,,,2,,,52,0
25320,control_change,0,0,3,,,,,,,,,2,64,0,,
25320,note_on,0,0,3,,,,,,,,,2,,,51,62
25320,note_on,30,0,1,,,,,,,,,0,,,64,0
25350,note_on,30,0,3,,,,,,,,,2,,,51,0
25350,note_on,0,0,3,,,,,,,,,2,,,52,62
25350,note_on,0,0,1,,,,,,,,,0,,,64,75
25350,note_on,30,0,1,,,,,,,,,0,,,63,0
25380,note_on,0,0,1,,,,,,,,,0,,,66,75
25380,note_on,30,0,1,,,,,,,,,0,,,64,0
25380,note_on,0,0,3,,,,,,,,,2,,,54,62
25380,note_on,30,0,3,,,,,,,,,2,,,52,0
25410,note_on,0,0,1,,,,,,,,,0,,,68,75
25410,note_on,0,0,3,,,,,,,,,2,,,56,62
25410,note_on,30,0,3,,,,,,,,,2,,,54,0
25410,note_on,30,0,1,,,,,,,,,0,,,66,0
25440,control_change,0,0,3,,,,,,,,,2,64,127,,
25440,note_on,0,0,3,,,,,,,,,2,,,57,49
25440,note_on,30,0,3,,,,,,,,,2,,,56,0
25440,note_on,30,0,1,,,,,,,,,0,,,68,0
25440,control_change,0,0,1,,,,,,,,,0,64,127,,
25440,note_on,0,0,1,,,,,,,,,0,,,69,62
25470,note_on,0,0,1,,,,,,,,,0,,,57,62
25470,note_on,30,0,3,,,,,,,,,2,,,57,0
25470,note_on,30,0,1,,,,,,,,,0,,,69,0
25500,note_on,30,0,1,,,,,,,,,0,,,57,0
25500,note_on,0,0,1,,,,,,,,,0,,,59,62
25530,note_on,0,0,1,,,,,,,,,0,,,57,62
25530,note_on,30,0,1,,,,,,,,,0,,,59,0
25560,note_on,30,0,1,,,,,,,,,0,,,57,0
25560,control_change,0,0,1,,,,,,,,,0,64,0,,
25560,note_on,0,0,1,,,,,,,,,0,,,59,62
25590,note_on,0,0,1,,,,,,,,,0,,,57,62
25590,note_on,30,0,1,,,,,,,,,0,,,59,0
25620,note_on,0,0,1,,,,,,,,,0,,,59,62
25620,note_on,30,0,1,,,,,,,,,0,,,57,0
25650,note_on,0,0,1,,,,,,,,,0,,,61,62
25650,note_on,30,0,1,,,,,,,,,0,,,59,0
25680,note_on,0,0,1,,,,,,,,,0,,,62,49
25680,control_change,0,0,1,,,,,,,,,0,64,127,,
25680,note_on,30,0,1,,,,,,,,,0,,,61,0
25680,note_on,0,0,3,,,,,,,,,2,,,50,36
25680,control_change,210,0,3,,,,,,,,,2,64,127,,
25710,note_on,30,0,1,,,,,,,,,0,,,62,0
25710,note_on,30,0,3,,,,,,,,,2,,,50,0
25710,note_on,0,0,3,,,,,,,,,2,,,52,36
25710,note_on,0,0,1,,,,,,,,,0,,,64,49
25740,note_on,0,0,1,,,,,,,,,0,,,66,49
25740,note_on,30,0,1,,,,,,,,,0,,,64,0
25740,note_on,0,0,3,,,,,,,,,2,,,54,36
25740,note_on,30,0,3,,,,,,,,,2,,,52,0
25770,note_on,30,0,3,,,,,,,,,2,,,54,0
25770,note_on,0,0,3,,,,,,,,,2,,,55,36
25770,note_on,0,0,1,,,,,,,,,0,,,67,49
25770,note_on,30,0,1,,,,,,,,,0,,,66,0
25800,note_on,30,0,3,,,,,,,,,2,,,55,0
25800,control_change,0,0,1,,,,,,,,,0,64,0,,
25800,control_change,0,0,3,,,,,,,,,2,64,0,,
25800,note_on,30,0,1,,,,,,,,,0,,,67,0
25800,note_on,0,0,1,,,,,,,,,0,,,68,49
25800,note_on,0,0,3,,,,,,,,,2,,,56,36
25830,note_on,0,0,1,,,,,,,,,0,,,69,49
25830,note_on,30,0,1,,,,,,,,,0,,,68,0
25830,note_on,30,0,3,,,,,,,,,2,,,56,0
25830,note_on,0,0,3,,,,,,,,,2,,,57,36
25860,note_on,30,0,3,,,,,,,,,2,,,57,0
25860,note_on,0,0,1,,,,,,,,,0,,,68,49
25860,note_on,30,0,1,,,,,,,,,0,,,69,0
25860,note_on,0,0,3,,,,,,,,,2,,,56,36
25890,note_on,0,0,3,,,,,,,,,2,,,57,36
25890,note_on,30,0,3,,,,,,,,,2,,,56,0
25890,note_on,0,0,1,,,,,,,,,0,,,69,49
25890,note_on,30,0,1,,,,,,,,,0,,,68,0
25920,control_change,0,0,1,,,,,,,,,0,64,127,,
25920,note_on,0,0,1,,,,,,,,,0,,,67,70
25920,note_on,0,0,1,,,,,,,,,0,,,62,65
25920,note_on,30,0,3,,,,,,,,,2,,,57,0
25920,control_change,0,0,3,,,,,,,,,2,64,127,,
25920,note_on,30,0,1,,,,,,,,,0,,,69,0
25920,note_on,0,0,3,,,,,,,,,2,,,55,54
25920,note_on,0,0,3,,,,,,,,,2,,,59,62
25920,note_on,0,0,1,,,,,,,,,0,,,71,75
26040,note_on,0,0,3,,,,,,,,,2,,,57,36
26040,note_on,0,0,3,,,,,,,,,2,,,55,0
26040,note_on,120,0,3,,,,,,,,,2,,,59,0
26040,note_on,0,0,1,,,,,,,,,0,,,67,0
26040,note_on,120,0,1,,,,,,,,,0,,,71,0
26040,control_change,0,0,3,,,,,,,,,2,64,0,,
26040,control_change,0,0,1,,,,,,,,,0,64,0,,
26040,note_on,0,0,3,,,,,,,,,2,,,50,36
26040,note_on,0,0,1,,,,,,,,,0,,,69,49
26040,note_on,0,0,1,,,,,,,,,0,,,66,49
26100,note_on,0,0,1,,,,,,,,,0,,,62,0
26100,note_on,60,0,3,,,,,,,,,2,,,57,0
26100,note_on,0,0,3,,,,,,,,,2,,,50,0
26100,note_on,0,0,1,,,,,,,,,0,,,66,0
26100,note_on,60,0,1,,,,,,,,,0,,,69,0
26160,control_change,60,0,3,,,,,,,,,2,64,127,,
26160,note_on,0,0,3,,,,,,,,,2,,,54,36
26160,note_on,0,0,1,,,,,,,,,0,,,74,49
26160,control_change,60,0,1,,,,,,,,,0,64,127,,
26199,note_on,39,0,1,,,,,,,,,0,,,73,49
26199,note_on,39,0,3,,,,,,,,,2,,,57,36
26200,note_on,1,0,1,,,,,,,,,0,,,74,0
26200,note_on,1,0,3,,,,,,,,,2,,,54,0
26239,note_on,39,0,1,,,,,,,,,0,,,73,0
26239,note_on,39,0,3,,,,,,,,,2,,,57,0
26240,note_on,1,0,1,,,,,,,,,0,,,71,49
26240,note_on,1,0,3,,,,,,,,,2,,,55,36
26280,note_on,0,0,1,,,,,,,,,0,,,69,49
26280,note_on,40,0,1,,,,,,,,,0,,,71,0
26280,note_on,0,0,3,,,,,,,,,2,,,54,36
26280,note_on,40,0,3,,,,,,,,,2,,,55,0
26319,note_on,39,0,1,,,,,,,,,0,,,67,49
26319,note_on,39,0,3,,,,,,,,,2,,,57,36
26320,note_on,1,0,3,,,,,,,,,2,,,54,0
26320,note_on,1,0,1,,,,,,,,,0,,,69,0
26359,note_on,39,0,1,,,,,,,,,0,,,67,0
26359,note_on,39,0,3,,,,,,,,,2,,,57,0
26360,control_change,1,0,3,,,,,,,,,2,64,0,,
26360,note_on,0,0,3,,,,,,,,,2,,,62,36
26360,control_change,1,0,1,,,,,,,,,0,64,0,,
26360,note_on,0,0,1,,,,,,,,,0,,,66,49
26400,note_on,40,0,1,,,,,,,,,0,,,66,0
26400,control_change,0,0,1,,,,,,,,,0,64,127,,
26400,note_on,0,0,1,,,,,,,,,0,,,69,49
26400,note_on,40,0,3,,,,,,,,,2,,,62,0
26400,control_change,0,0,3,,,,,,,,,2,64,127,,
26400,note_on,0,0,3,,,,,,,,,2,,,64,36
26490,note_on,90,0,1,,,,,,,,,0,,,69,0
26490,note_on,0,0,1,,,,,,,,,0,,,67,49
26520,note_on,120,0,3,,,,,,,,,2,,,64,0
26520,control_change,0,0,3,,,,,,,,,2,64,0,,
26520,note_on,0,0,3,,,,,,,,,2,,,57,36
26520,note_on,30,0,1,,,,,,,,,0,,,67,0
26520,control_change,0,0,1,,,,,,,,,0,64,0,,
26520,note_on,0,0,1,,,,,,,,,0,,,64,49
26580,note_on,60,0,1,,,,,,,,,0,,,64,0
26580,note_on,60,0,3,,,,,,,,,2,,,57,0
26640,note_on,0,0,3,,,,,,,,,2,,,67,36
26640,note_on,0,0,1,,,,,,,,,0,,,69,49
26640,control_change,60,0,1,,,,,,,,,0,64,127,,
26640,control_change,60,0,3,,,,,,,,,2,64,127,,
26646,note_on,6,0,3,,,,,,,,,2,,,67,0
26670,note_on,30,0,1,,,,,,,,,0,,,69,0
26670,note_on,0,0,1,,,,,,,,,0,,,71,49
26700,note_on,30,0,1,,,,,,,,,0,,,71,0
26700,note_on,0,0,1,,,,,,,,,0,,,73,49
26700,note_on,54,0,3,,,,,,,,,2,,,66,36
26706,note_on,6,0,3,,,,,,,,,2,,,66,0
26730,note_on,30,0,1,,,,,,,,,0,,,73,0
26730,note_on,0,0,1,,,,,,,,,0,,,74,49
26760,note_on,30,0,1,,,,,,,,,0,,,74,0
26760,note_on,0,0,1,,,,,,,,,0,,,75,49
26760,control_change,0,0,1,,,,,,,,,0,64,0,,
26760,control_change,54,0,3,,,,,,,,,2,64,0,,
26760,note_on,0,0,3,,,,,,,,,2,,,67,36
26766,note_on,6,0,3,,,,,,,,,2,,,67,0
26790,note_on,0,0,1,,,,,,,,,0,,,76,49
26790,note_on,30,0,1,,,,,,,,,0,,,75,0
26820,note_on,30,0,1,,,,,,,,,0,,,76,0
26820,note_on,54,0,3,,,,,,,,,2,,,69,36
26820,note_on,0,0,1,,,,,,,,,0,,,75,49
26826,note_on,6,0,3,,,,,,,,,2,,,69,0
26850,note_on,0,0,1,,,,,,,,,0,,,76,49
26850,note_on,30,0,1,,,,,,,,,0,,,75,0
26880,note_on,0,0,1,,,,,,,,,0,,,74,49
26880,control_change,0,0,1,,,,,,,,,0,64,127,,
26880,note_on,30,0,1,,,,,,,,,0,,,76,0
26880,control_change,54,0,3,,,,,,,,,2,64,127,,
26880,note_on,0,0,3,,,,,,,,,2,,,66,36
26886,note_on,6,0,3,,,,,,,,,2,,,66,0
26910,note_on,0,0,1,,,,,,,,,0,,,76,49
26910,note_on,30,0,1,,,,,,,,,0,,,74,0
26940,note_on,0,0,1,,,,,,,,,0,,,78,49
26940,note_on,30,0,1,,,,,,,,,0,,,76,0
26940,note_on,54,0,3,,,,,,,,,2,,,69,36
26946,note_on,6,0,3,,,,,,,,,2,,,69,0
26970,note_on,0,0,1,,,,,,,,,0,,,79,49
26970,note_on,30,0,1,,,,,,,,,0,,,78,0
27000,control_change,54,0,3,,,,,,,,,2,64,0,,
27000,note_on,0,0,3,,,,,,,,,2,,,66,36
27000,note_on,0,0,1,,,,,,,,,0,,,80,49
27000,control_change,0,0,1,,,,,,,,,0,64,0,,
27000,note_on,30,0,1,,,,,,,,,0,,,79,0
27006,note_on,6,0,3,,,,,,,,,2,,,66,0
27030,note_on,0,0,1,,,,,,,,,0,,,81,49
27030,note_on,30,0,1,,,,,,,,,0,,,80,0
27060,note_on,0,0,1,,,,,,,,,0,,,80,49
27060,note_on,30,0,1,,,,,,,,,0,,,81,0
27060,note_on,54,0,3,,,,,,,,,2,,,64,36
27066,note_on,6,0,3,,,,,,,,,2,,,64,0
27090,note_on,30,0,1,,,,,,,,,0,,,80,0
27090,note_on,0,0,1,,,,,,,,,0,,,81,49
27120,note_on,0,0,1,,,,,,,,,0,,,90,75
27120,control_change,0,0,1,,,,,,,,,0,64,127,,
27120,note_on,30,0,1,,,,,,,,,0,,,81,0
27120,note_on,0,0,3,,,,,,,,,2,,,62,62
27120,control_change,54,0,3,,,,,,,,,2,64,127,,
27126,note_on,6,0,3,,,,,,,,,2,,,62,0
27150,note_on,30,0,1,,,,,,,,,0,,,90,0
27150,note_on,0,0,1,,,,,,,,,0,,,88,49
27180,note_on,54,0,3,,,,,,,,,2,,,59,36
27180,note_on,30,0,1,,,,,,,,,0,,,88,0
27180,note_on,0,0,1,,,,,,,,,0,,,86,49
27186,note_on,6,0,3,,,,,,,,,2,,,59,0
27210,note_on,0,0,1,,,,,,,,,0,,,85,49
27210,note_on,30,0,1,,,,,,,,,0,,,86,0
27240,note_on,0,0,1,,,,,,,,,0,,,88,75
27240,control_change,0,0,1,,,,,,,,,0,64,0,,
27240,note_on,0,0,3,,,,,,,,,2,,,61,62
27240,note_on,30,0,1,,,,,,,,,0,,,85,0
27240,control_change,54,0,3,,,,,,,,,2,64,0,,
27246,note_on,6,0,3,,,,,,,,,2,,,61,0
27270,note_on,30,0,1,,,,,,,,,0,,,88,0
27270,note_on,0,0,1,,,,,,,,,0,,,86,49
27300,note_on,30,0,1,,,,,,,,,0,,,86,0
27300,note_on,0,0,1,,,,,,,,,0,,,85,49
27300,note_on,54,0,3,,,,,,,,,2,,,64,36
27306,note_on,6,0,3,,,,,,,,,2,,,64,0
27330,note_on,30,0,1,,,,,,,,,0,,,85,0
27330,note_on,0,0,1,,,,,,,,,0,,,83,49
27360,note_on,0,0,3,,,,,,,,,2,,,57,54
27360,control_change,54,0,3,,,,,,,,,2,64,127,,
27360,note_on,0,0,1,,,,,,,,,0,,,81,75
27360,note_on,30,0,1,,,,,,,,,0,,,83,0
27360,note_on,0,0,3,,,,,,,,,2,,,61,62
27366,note_on,0,0,3,,,,,,,,,2,,,57,0
27366,note_on,6,0,3,,,,,,,,,2,,,61,0
27420,note_on,54,0,3,,,,,,,,,2,,,52,36
27426,note_on,6,0,3,,,,,,,,,2,,,52,0
27480,note_on,54,0,3,,,,,,,,,2,,,49,36
27486,note_on,6,0,3,,,,,,,,,2,,,49,0
27540,control_change,54,0,3,,,,,,,,,2,64,0,,
27540,note_on,0,0,3,,,,,,,,,2,,,45,36
27546,note_on,6,0,3,,,,,,,,,2,,,45,0
27600,note_on,0,0,3,,,,,,,,,2,,,50,75
27600,note_on,240,0,1,,,,,,,,,0,,,81,0
27600,control_change,0,0,1,,,,,,,,,0,64,127,,
27600,note_on,0,0,1,,,,,,,,,0,,,62,88
27600,control_change,54,0,3,,,,,,,,,2,64,127,,
27630,note_on,30,0,1,,,,,,,,,0,,,62,0
27630,note_on,0,0,1,,,,,,,,,0,,,64,88
27630,note_on,30,0,3,,,,,,,,,2,,,50,0
27630,note_on,0,0,3,,,,,,,,,2,,,52,75
27660,note_on,0,0,3,,,,,,,,,2,,,54,75
27660,note_on,0,0,1,,,,,,,,,0,,,66,88
27660,note_on,30,0,3,,,,,,,,,2,,,52,0
27660,note_on,30,0,1,,,,,,,,,0,,,64,0
27690,note_on,30,0,3,,,,,,,,,2,,,54,0
27690,note_on,0,0,3,,,,,,,,,2,,,55,75
27690,note_on,30,0,1,,,,,,,,,0,,,66,0
27690,note_on,0,0,1,,,,,,,,,0,,,67,88
27720,note_on,0,0,1,,,,,,,,,0,,,68,88
27720,note_on,30,0,3,,,,,,,,,2,,,55,0
27720,control_change,0,0,3,,,,,,,,,2,64,0,,
27720,note_on,30,0,1,,,,,,,,,0,,,67,0
27720,control_change,0,0,1,,,,,,,,,0,64,0,,
27720,note_on,0,0,3,,,,,,,,,2,,,56,75
27750,note_on,0,0,1,,,,,,,,,0,,,69,88
27750,note_on,30,0,1,,,,,,,,,0,,,68,0
27750,note_on,30,0,3,,,,,,,,,2,,,56,0
27750,note_on,0,0,3,,,,,,,,,2,,,57,75
27780,note_on,0,0,1,,,,,,,,,0,,,68,88
27780,note_on,30,0,1,,,,,,,,,0,,,69,0
27780,note_on,30,0,3,,,,,,,,,2,,,57,0
27780,note_on,0,0,3,,,,,,,,,2,,,56,75
27810,note_on,0,0,1,,,,,,,,,0,,,69,88
27810,note_on,30,0,1,,,,,,,,,0,,,68,0
27810,note_on,30,0,3,,,,,,,,,2,,,56,0
27810,note_on,0,0,3,,,,,,,,,2,,,57,75
27840,note_on,0,0,1,,,,,,,,,0,,,73,114
27840,control_change,0,0,1,,,,,,,,,0,64,127,,
27840,note_on,0,0,3,,,,,,,,,2,,,61,101
27840,note_on,30,0,3,,,,,,,,,2,,,57,0
27840,note_on,30,0,1,,,,,,,,,0,,,69,0
27840,control_change,0,0,3,,,,,,,,,2,64,127,,
27870,note_on,30,0,3,,,,,,,,,2,,,61,0
27870,note_on,0,0,3,,,,,,,,,2,,,59,75
27870,note_on,30,0,1,,,,,,,,,0,,,73,0
27870,note_on,0,0,1,,,,,,,,,0,,,71,88
27900,note_on,30,0,3,,,,,,,,,2,,,59,0
27900,note_on,0,0,3,,,,,,,,,2,,,57,75
27900,note_on,30,0,1,,,,,,,,,0,,,71,0
27900,note_on,0,0,1,,,,,,,,,0,,,69,88
27930,note_on,0,0,1,,,,,,,,,0,,,68,88
27930,note_on,30,0,3,,,,,,,,,2,,,57,0
27930,note_on,0,0,3,,,,,,,,,2,,,56,75
27930,note_on,30,0,1,,,,,,,,,0,,,69,0
27960,note_on,30,0,1,,,,,,,,,0,,,68,0
27960,control_change,0,0,3,,,,,,,,,2,64,0,,
27960,note_on,30,0,3,,,,,,,,,2,,,56,0
27960,note_on,0,0,1,,,,,,,,,0,,,71,114
27960,control_change,0,0,1,,,,,,,,,0,64,0,,
27960,note_on,0,0,3,,,,,,,,,2,,,59,101
27990,note_on,30,0,3,,,,,,,,,2,,,59,0
27990,note_on,30,0,1,,,,,,,,,0,,,71,0
27990,note_on,0,0,3,,,,,,,,,2,,,57,75
27990,note_on,0,0,1,,,,,,,,,0,,,69,88
28020,note_on,30,0,3,,,,,,,,,2,,,57,0
28020,note_on,30,0,1,,,,,,,,,0,,,69,0
28020,note_on,0,0,3,,,,,,,,,2,,,56,75
28020,note_on,0,0,1,,,,,,,,,0,,,68,88
28050,note_on,0,0,1,,,,,,,,,0,,,66,88
28050,note_on,30,0,1,,,,,,,,,0,,,68,0
28050,note_on,0,0,3,,,,,,,,,2,,,54,75
28050,note_on,30,0,3,,,,,,,,,2,,,56,0
28080,note_on,30,0,1,,,,,,,,,0,,,66,0
28080,control_change,0,0,3,,,,,,,,,2,64,127,,
28080,note_on,0,0,1,,,,,,,,,0,,,64,75
28080,control_change,0,0,1,,,,,,,,,0,64,127,,
28080,note_on,0,0,3,,,,,,,,,2,,,52,62
28080,note_on,30,0,3,,,,,,,,,2,,,54,0
28110,note_on,30,0,3,,,,,,,,,2,,,52,0
28110,note_on,0,0,3,,,,,,,,,2,,,54,62
28110,note_on,0,0,1,,,,,,,,,0,,,66,75
28110,note_on,30,0,1,,,,,,,,,0,,,64,0
28140,note_on,30,0,1,,,,,,,,,0,,,66,0
28140,note_on,0,0,3,,,,,,,,,2,,,52,62
28140,note_on,0,0,1,,,,,,,,,0,,,64,75
28140,note_on,30,0,3,,,,,,,,,2,,,54,0
28170,note_on,0,0,3,,,,,,,,,2,,,54,62
28170,note_on,30,0,1,,,,,,,,,0,,,64,0
28170,note_on,0,0,1,,,,,,,,,0,,,66,75
28170,note_on,30,0,3,,,,,,,,,2,,,52,0
28200,note_on,30,0,3,,,,,,,,,2,,,54,0
28200,control_change,0,0,3,,,,,,,,,2,64,0,,
28200,note_on,0,0,3,,,,,,,,,2,,,52,62
28200,note_on,30,0,1,,,,,,,,,0,,,66,0
28200,control_change,0,0,1,,,,,,,,,0,64,0,,
28200,note_on,0,0,1,,,,,,,,,0,,,64,75
28230,note_on,30,0,1,,,,,,,,,0,,,64,0
28230,note_on,0,0,1,,,,,,,,,0,,,62,75
28230,note_on,30,0,3,,,,,,,,,2,,,52,0
28230,note_on,0,0,3,,,,,,,,,2,,,50,62
28260,note_on,0,0,1,,,,,,,,,0,,,61,75
28260,note_on,30,0,3,,,,,,,,,2,,,50,0
28260,note_on,0,0,3,,,,,,,,,2,,,49,62
28260,note_on,30,0,1,,,,,,,,,0,,,62,0
28290,note_on,0,0,3,,,,,,,,,2,,,47,62
28290,note_on,30,0,3,,,,,,,,,2,,,49,0
28290,note_on,30,0,1,,,,,,,,,0,,,61,0
28290,note_on,0,0,1,,,,,,,,,0,,,59,75
28320,note_on,30,0,1,,,,,,,,,0,,,59,0
28320,note_on,0,0,1,,,,,,,,,0,,,57,62
28320,note_on,30,0,3,,,,,,,,,2,,,47,0
28320,control_change,0,0,1,,,,,,,,,0,64,127,,
28320,note_on,0,0,3,,,,,,,,,2,,,45,62
28350,note_on,0,0,1,,,,,,,,,0,,,61,62
28350,note_on,30,0,1,,,,,,,,,0,,,57,0
28380,note_on,30,0,1,,,,,,,,,0,,,61,0
28380,note_on,0,0,1,,,,,,,,,0,,,64,62
28380,note_on,60,0,3,,,,,,,,,2,,,45,0
28410,control_change,0,0,1,,,,,,,,,0,64,0,,
28410,note_on,0,0,1,,,,,,,,,0,,,68,62
28410,note_on,30,0,1,,,,,,,,,0,,,64,0
28440,note_on,30,0,1,,,,,,,,,0,,,68,0
28440,note_on,0,0,1,,,,,,,,,0,,,69,62
28470,note_on,30,0,1,,,,,,,,,0,,,69,0
28470,note_on,0,0,1,,,,,,,,,0,,,71,62
28500,note_on,30,0,1,,,,,,,,,0,,,71,0
28500,note_on,0,0,1,,,,,,,,,0,,,73,62
28530,note_on,30,0,1,,,,,,,,,0,,,73,0
28530,note_on,0,0,1,,,,,,,,,0,,,74,62
28560,control_change,0,0,1,,,,,,,,,0,64,127,,
28560,note_on,0,0,3,,,,,,,,,2,,,74,62
28560,note_on,30,0,1,,,,,,,,,0,,,74,0
28560,note_on,0,0,1,,,,,,,,,0,,,76,75
28560,control_change,180,0,3,,,,,,,,,2,64,127,,
28566,note_on,6,0,3,,,,,,,,,2,,,74,0
28590,note_on,30,0,1,,,,,,,,,0,,,76,0
28590,note_on,0,0,1,,,,,,,,,0,,,78,49
28620,note_on,54,0,3,,,,,,,,,2,,,71,36
28620,note_on,30,0,1,,,,,,,,,0,,,78,0
28620,note_on,0,0,1,,,,,,,,,0,,,80,49
28626,note_on,6,0,3,,,,,,,,,2,,,71,0
28650,note_on,0,0,1,,,,,,,,,0,,,81,49
28650,note_on,30,0,1,,,,,,,,,0,,,80,0
28680,note_on,30,0,1,,,,,,,,,0,,,81,0
28680,note_on,0,0,1,,,,,,,,,0,,,82,49
28680,note_on,54,0,3,,,,,,,,,2,,,68,36
28686,note_on,6,0,3,,,,,,,,,2,,,68,0
28710,note_on,0,0,1,,,,,,,,,0,,,83,49
28710,note_on,30,0,1,,,,,,,,,0,,,82,0
28740,note_on,0,0,3,,,,,,,,,2,,,64,36
28740,control_change,54,0,3,,,,,,,,,2,64,0,,
28740,note_on,30,0,1,,,,,,,,,0,,,83,0
28740,note_on,0,0,1,,,,,,,,,0,,,82,49
28746,note_on,6,0,3,,,,,,,,,2,,,64,0
28770,control_change,0,0,1,,,,,,,,,0,64,0,,
28770,note_on,0,0,1,,,,,,,,,0,,,83,49
28770,note_on,30,0,1,,,,,,,,,0,,,82,0
28800,note_on,0,0,3,,,,,,,,,2,,,73,62
28800,control_change,54,0,3,,,,,,,,,2,64,127,,
28800,note_on,30,0,1,,,,,,,,,0,,,83,0
28800,control_change,0,0,1,,,,,,,,,0,64,127,,
28800,note_on,0,0,1,,,,,,,,,0,,,81,75
28806,note_on,6,0,3,,,,,,,,,2,,,73,0
28830,note_on,30,0,1,,,,,,,,,0,,,81,0
28830,note_on,0,0,1,,,,,,,,,0,,,83,49
28860,note_on,0,0,1,,,,,,,,,0,,,85,49
28860,note_on,30,0,1,,,,,,,,,0,,,83,0
28860,note_on,54,0,3,,,,,,,,,2,,,69,36
28866,note_on,6,0,3,,,,,,,,,2,,,69,0
28890,note_on,30,0,1,,,,,,,,,0,,,85,0
28890,note_on,0,0,1,,,,,,,,,0,,,86,49
28920,note_on,0,0,1,,,,,,,,,0,,,87,49
28920,note_on,30,0,1,,,,,,,,,0,,,86,0
28920,note_on,54,0,3,,,,,,,,,2,,,64,36
28926,note_on,6,0,3,,,,,,,,,2,,,64,0
28950,note_on,0,0,1,,,,,,,,,0,,,88,49
28950,note_on,30,0,1,,,,,,,,,0,,,87,0
28980,control_change,54,0,3,,,,,,,,,2,64,0,,
28980,note_on,0,0,3,,,,,,,,,2,,,61,36
28980,note_on,0,0,1,,,,,,,,,0,,,87,49
28980,note_on,30,0,1,,,,,,,,,0,,,88,0
28986,note_on,6,0,3,,,,,,,,,2,,,61,0
29010,note_on,30,0,1,,,,,,,,,0,,,87,0
29010,control_change,0,0,1,,,,,,,,,0,64,0,,
29010,note_on,0,0,1,,,,,,,,,0,,,88,49
29040,note_on,0,0,1,,,,,,,,,0,,,90,75
29040,note_on,0,0,3,,,,,,,,,2,,,62,62
29040,control_change,54,0,3,,,,,,,,,2,64,127,,
29040,control_change,0,0,1,,,,,,,,,0,64,127,,
29040,note_on,30,0,1,,,,,,,,,0,,,88,0
29070,note_on,0,0,3,,,,,,,,,2,,,64,36
29070,note_on,30,0,1,,,,,,,,,0,,,90,0
29070,note_on,0,0,1,,,,,,,,,0,,,88,49
29070,note_on,30,0,3,,,,,,,,,2,,,62,0
29100,note_on,0,0,3,,,,,,,,,2,,,62,36
29100,note_on,30,0,3,,,,,,,,,2,,,64,0
29100,note_on,30,0,1,,,,,,,,,0,,,88,0
29100,note_on,0,0,1,,,,,,,,,0,,,90,49
29130,note_on,0,0,3,,,,,,,,,2,,,64,36
29130,note_on,30,0,3,,,,,,,,,2,,,62,0
29130,note_on,0,0,1,,,,,,,,,0,,,88,49
29130,note_on,30,0,1,,,,,,,,,0,,,90,0
29160,note_on,0,0,3,,,,,,,,,2,,,68,36
29160,note_on,30,0,3,,,,,,,,,2,,,64,0
29160,note_on,0,0,1,,,,,,,,,0,,,83,49
29160,note_on,30,0,1,,,,,,,,,0,,,88,0
29190,note_on,0,0,1,,,,,,,,,0,,,80,49
29190,note_on,30,0,1,,,,,,,,,0,,,83,0
29190,note_on,30,0,3,,,,,,,,,2,,,68,0
29190,note_on,0,0,3,,,,,,,,,2,,,71,36
29220,note_on,30,0,1,,,,,,,,,0,,,80,0
29220,note_on,0,0,3,,,,,,,,,2,,,68,36
29220,note_on,30,0,3,,,,,,,,,2,,,71,0
29220,note_on,0,0,1,,,,,,,,,0,,,83,49
29250,note_on,0,0,1,,,,,,,,,0,,,80,49
29250,note_on,30,0,3,,,,,,,,,2,,,68,0
29250,control_change,0,0,1,,,,,,,,,0,64,0,,
29250,note_on,0,0,3,,,,,,,,,2,,,71,36
29250,note_on,30,0,1,,,,,,,,,0,,,83,0
29250,control_change,0,0,3,,,,,,,,,2,64,0,,
29280,note_on,30,0,3,,,,,,,,,2,,,71,0
29280,note_on,30,0,1,,,,,,,,,0,,,80,0
29280,control_change,0,0,1,,,,,,,,,0,64,127,,
29280,note_on,0,0,1,,,,,,,,,0,,,90,75
29280,control_change,0,0,3,,,,,,,,,2,64,127,,
29280,note_on,0,0,3,,,,,,,,,2,,,61,62
29310,note_on,30,0,3,,,,,,,,,2,,,61,0
29310,note_on,0,0,1,,,,,,,,,0,,,88,49
29310,note_on,0,0,3,,,,,,,,,2,,,64,36
29310,note_on,30,0,1,,,,,,,,,0,,,90,0
29340,note_on,30,0,1,,,,,,,,,0,,,88,0
29340,note_on,30,0,3,,,,,,,,,2,,,64,0
29340,note_on,0,0,3,,,,,,,,,2,,,61,36
29340,note_on,0,0,1,,,,,,,,,0,,,90,49
29370,note_on,0,0,3,,,,,,,,,2,,,64,36
29370,note_on,30,0,3,,,,,,,,,2,,,61,0
29370,note_on,30,0,1,,,,,,,,,0,,,90,0
29370,note_on,0,0,1,,,,,,,,,0,,,88,49
29400,note_on,0,0,1,,,,,,,,,0,,,85,49
29400,note_on,0,0,3,,,,,,,,,2,,,69,36
29400,note_on,30,0,1,,,,,,,,,0,,,88,0
29400,note_on,30,0,3,,,,,,,,,2,,,64,0
29430,note_on,0,0,3,,,,,,,,,2,,,73,36
29430,note_on,30,0,3,,,,,,,,,2,,,69,0
29430,note_on,0,0,1,,,,,,,,,0,,,81,49
29430,note_on,30,0,1,,,,,,,,,0,,,85,0
29460,note_on,0,0,3,,,,,,,,,2,,,69,36
29460,note_on,30,0,3,,,,,,,,,2,,,73,0
29460,note_on,0,0,1,,,,,,,,,0,,,85,49
29460,note_on,30,0,1,,,,,,,,,0,,,81,0
29490,note_on,30,0,3,,,,,,,,,2,,,69,0
29490,control_change,0,0,3,,,,,,,,,2,64,0,,
29490,note_on,30,0,1,,,,,,,,,0,,,85,0
29490,control_change,0,0,1,,,,,,,,,0,64,0,,
29490,note_on,0,0,3,,,,,,,,,2,,,73,36
29490,note_on,0,0,1,,,,,,,,,0,,,81,49
29520,note_on,0,0,1,,,,,,,,,0,,,86,75
29520,control_change,0,0,1,,,,,,,,,0,64,127,,
29520,note_on,30,0,1,,,,,,,,,0,,,81,0
29520,note_on,30,0,3,,,,,,,,,2,,,73,0
29520,control_change,0,0,3,,,,,,,,,2,64,127,,
29520,note_on,0,0,3,,,,,,,,,2,,,64,75
29526,note_on,6,0,1,,,,,,,,,0,,,86,0
29550,note_on,30,0,3,,,,,,,,,2,,,64,0
29550,note_on,0,0,3,,,,,,,,,2,,,66,49
29580,note_on,30,0,3,,,,,,,,,2,,,66,0
29580,note_on,0,0,3,,,,,,,,,2,,,68,49
29580,note_on,54,0,1,,,,,,,,,0,,,83,49
29586,note_on,6,0,1,,,,,,,,,0,,,83,0
29610,note_on,0,0,3,,,,,,,,,2,,,69,49
29610,note_on,30,0,3,,,,,,,,,2,,,68,0
29640,note_on,0,0,1,,,,,,,,,0,,,80,49
29640,control_change,54,0,1,,,,,,,,,0,64,0,,
29640,note_on,0,0,3,,,,,,,,,2,,,70,49
29640,control_change,0,0,3,,,,,,,,,2,64,0,,
29640,note_on,30,0,3,,,,,,,,,2,,,69,0
29646,note_on,6,0,1,,,,,,,,,0,,,80,0
29670,note_on,0,0,3,,,,,,,,,2,,,71,49
29670,note_on,30,0,3,,,,,,,,,2,,,70,0
29700,note_on,0,0,3,,,,,,,,,2,,,70,49
29700,note_on,54,0,1,,,,,,,,,0,,,76,49
29700,note_on,30,0,3,,,,,,,,,2,,,71,0
29706,note_on,6,0,1,,,,,,,,,0,,,76,0
29730,note_on,30,0,3,,,,,,,,,2,,,70,0
29730,note_on,0,0,3,,,,,,,,,2,,,71,49
29760,control_change,0,0,3,,,,,,,,,2,64,127,,
29760,note_on,0,0,3,,,,,,,,,2,,,69,75
29760,control_change,54,0,1,,,,,,,,,0,64,127,,
29760,note_on,0,0,1,,,,,,,,,0,,,85,75
29760,note_on,30,0,3,,,,,,,,,2,,,71,0
29766,note_on,6,0,1,,,,,,,,,0,,,85,0
29790,note_on,30,0,3,,,,,,,,,2,,,69,0
29790,note_on,0,0,3,,,,,,,,,2,,,71,49
29820,note_on,54,0,1,,,,,,,,,0,,,81,49
29820,note_on,0,0,3,,,,,,,,,2,,,73,49
29820,note_on,30,0,3,,,,,,,,,2,,,71,0
29826,note_on,6,0,1,,,,,,,,,0,,,81,0
29850,note_on,0,0,3,,,,,,,,,2,,,74,49
29850,note_on,30,0,3,,,,,,,,,2,,,73,0
29880,note_on,30,0,3,,,,,,,,,2,,,74,0
29880,note_on,0,0,3,,,,,,,,,2,,,75,75
29880,control_change,54,0,1,,,,,,,,,0,64,0,,
29880,note_on,0,0,1,,,,,,,,,0,,,97,75
29880,control_change,0,0,3,,,,,,,,,2,64,0,,
29886,note_on,6,0,1,,,,,,,,,0,,,97,0
29910,note_on,0,0,3,,,,,,,,,2,,,76,49
29910,note_on,30,0,3,,,,,,,,,2,,,75,0
29940,note_on,30,0,3,,,,,,,,,2,,,76,0
29940,note_on,0,0,3,,,,,,,,,2,,,75,49
29940,note_on,54,0,1,,,,,,,,,0,,,93,49
29946,note_on,6,0,1,,,,,,,,,0,,,93,0
29970,note_on,0,0,3,,,,,,,,,2,,,76,49
29970,note_on,30,0,3,,,,,,,,,2,,,75,0
30000,note_on,30,0,3,,,,,,,,,2,,,76,0
30000,control_change,0,0,3,,,,,,,,,2,64,127,,
30000,note_on,0,0,3,,,,,,,,,2,,,62,49
30000,control_change,54,0,1,,,,,,,,,0,64,127,,
30000,note_on,0,0,1,,,,,,,,,0,,,92,49
30030,note_on,30,0,3,,,,,,,,,2,,,62,0
30030,note_on,0,0,3,,,,,,,,,2,,,71,49
30030,note_on,30,0,1,,,,,,,,,0,,,92,0
30030,note_on,0,0,1,,,,,,,,,0,,,90,49
30060,note_on,30,0,1,,,,,,,,,0,,,90,0
30060,note_on,0,0,1,,,,,,,,,0,,,92,49
30060,note_on,0,0,3,,,,,,,,,2,,,62,49
30060,note_on,30,0,3,,,,,,,,,2,,,71,0
30090,note_on,30,0,1,,,,,,,,,0,,,92,0
30090,note_on,0,0,1,,,,,,,,,0,,,90,49
30090,note_on,0,0,3,,,,,,,,,2,,,71,49
30090,note_on,30,0,3,,,,,,,,,2,,,62,0
30120,note_on,30,0,1,,,,,,,,,0,,,90,0
30120,note_on,0,0,1,,,,,,,,,0,,,86,49
30120,note_on,30,0,3,,,,,,,,,2,,,71,0
30120,note_on,0,0,3,,,,,,,,,2,,,64,49
30150,note_on,30,0,3,,,,,,,,,2,,,64,0
30150,note_on,0,0,3,,,,,,,,,2,,,74,49
30150,note_on,0,0,1,,,,,,,,,0,,,83,49
30150,note_on,30,0,1,,,,,,,,,0,,,86,0
30180,note_on,0,0,1,,,,,,,,,0,,,86,49
30180,note_on,30,0,1,,,,,,,,,0,,,83,0
30180,note_on,30,0,3,,,,,,,,,2,,,74,0
30180,note_on,0,0,3,,,,,,,,,2,,,64,49
30210,note_on,0,0,1,,,,,,,,,0,,,83,49
30210,control_change,0,0,1,,,,,,,,,0,64,0,,
30210,note_on,30,0,1,,,,,,,,,0,,,86,0
30210,control_change,0,0,3,,,,,,,,,2,64,0,,
30210,note_on,30,0,3,,,,,,,,,2,,,64,0
30210,note_on,0,0,3,,,,,,,,,2,,,74,49
30240,control_change,0,0,3,,,,,,,,,2,64,127,,
30240,note_on,0,0,3,,,,,,,,,2,,,69,49
30240,note_on,30,0,3,,,,,,,,,2,,,74,0
30240,note_on,0,0,1,,,,,,,,,0,,,83,49
30240,control_change,0,0,1,,,,,,,,,0,64,127,,
30240,note_on,30,0,1,,,,,,,,,0,,,83,0
30270,note_on,0,0,3,,,,,,,,,2,,,73,49
30270,note_on,30,0,3,,,,,,,,,2,,,69,0
30270,note_on,0,0,1,,,,,,,,,0,,,81,49
30270,note_on,30,0,1,,,,,,,,,0,,,83,0
30300,note_on,0,0,3,,,,,,,,,2,,,69,49
30300,note_on,0,0,1,,,,,,,,,0,,,83,49
30300,note_on,30,0,1,,,,,,,,,0,,,81,0
30300,note_on,30,0,3,,,,,,,,,2,,,73,0
30330,note_on,30,0,3,,,,,,,,,2,,,69,0
30330,note_on,0,0,3,,,,,,,,,2,,,73,49
30330,note_on,30,0,1,,,,,,,,,0,,,83,0
30330,note_on,0,0,1,,,,,,,,,0,,,81,49
30360,note_on,0,0,3,,,,,,,,,2,,,57,75
30360,note_on,30,0,3,,,,,,,,,2,,,73,0
30360,note_on,0,0,1,,,,,,,,,0,,,93,75
30360,note_on,30,0,1,,,,,,,,,0,,,81,0
30366,note_on,6,0,3,,,,,,,,,2,,,57,0
30366,note_on,6,0,1,,,,,,,,,0,,,93,0
30420,control_change,54,0,3,,,,,,,,,2,64,0,,
30420,note_on,0,0,3,,,,,,,,,2,,,69,49
30420,note_on,0,0,1,,,,,,,,,0,,,81,49
30420,control_change,54,0,1,,,,,,,,,0,64,0,,
30426,note_on,6,0,3,,,,,,,,,2,,,69,0
30426,note_on,6,0,1,,,,,,,,,0,,,81,0
30480,note_on,0,0,1,,,,,,,,,0,,,76,88
30480,control_change,54,0,1,,,,,,,,,0,64,127,,
30480,note_on,0,0,3,,,,,,,,,2,,,52,88
30480,note_on,0,0,1,,,,,,,,,0,,,74,88
30480,control_change,54,0,3,,,,,,,,,2,64,127,,
30486,note_on,6,0,1,,,,,,,,,0,,,76,0
30486,note_on,0,0,1,,,,,,,,,0,,,74,0
30510,note_on,30,0,3,,,,,,,,,2,,,52,0
30510,note_on,0,0,3,,,,,,,,,2,,,54,88
30540,note_on,54,0,1,,,,,,,,,0,,,71,88
30540,note_on,0,0,1,,,,,,,,,0,,,76,88
30540,note_on,0,0,3,,,,,,,,,2,,,56,88
30540,note_on,30,0,3,,,,,,,,,2,,,54,0
30546,note_on,6,0,1,,,,,,,,,0,,,76,0
30546,note_on,0,0,1,,,,,,,,,0,,,71,0
30570,note_on,30,0,3,,,,,,,,,2,,,56,0
30570,note_on,0,0,3,,,,,,,,,2,,,57,88
30600,note_on,0,0,1,,,,,,,,,0,,,76,75
30600,note_on,30,0,3,,,,,,,,,2,,,57,0
30600,note_on,0,0,3,,,,,,,,,2,,,58,75
30600,note_on,54,0,1,,,,,,,,,0,,,68,75
30606,note_on,6,0,1,,,,,,,,,0,,,76,0
30606,note_on,0,0,1,,,,,,,,,0,,,68,0
30630,note_on,30,0,3,,,,,,,,,2,,,58,0
30630,note_on,0,0,3,,,,,,,,,2,,,59,75
30660,note_on,0,0,1,,,,,,,,,0,,,76,75
30660,note_on,0,0,1,,,,,,,,,0,,,64,75
30660,control_change,54,0,1,,,,,,,,,0,64,0,,
30660,note_on,0,0,3,,,,,,,,,2,,,58,75
30660,note_on,30,0,3,,,,,,,,,2,,,59,0
30666,note_on,6,0,1,,,,,,,,,0,,,76,0
30666,note_on,0,0,1,,,,,,,,,0,,,64,0
30690,control_change,0,0,3,,,,,,,,,2,64,0,,
30690,note_on,30,0,3,,,,,,,,,2,,,58,0
30690,note_on,0,0,3,,,,,,,,,2,,,59,75
30720,control_change,54,0,1,,,,,,,,,0,64,127,,
30720,note_on,0,0,3,,,,,,,,,2,,,52,88
30720,control_change,0,0,3,,,,,,,,,2,64,127,,
30720,note_on,30,0,3,,,,,,,,,2,,,59,0
30720,note_on,0,0,1,,,,,,,,,0,,,74,88
30720,note_on,0,0,1,,,,,,,,,0,,,76,88
30726,note_on,6,0,1,,,,,,,,,0,,,76,0
30726,note_on,0,0,1,,,,,,,,,0,,,74,0
30750,note_on,0,0,3,,,,,,,,,2,,,54,88
30750,note_on,30,0,3,,,,,,,,,2,,,52,0
30780,note_on,30,0,3,,,,,,,,,2,,,54,0
30780,note_on,54,0,1,,,,,,,,,0,,,71,88
30780,note_on,0,0,1,,,,,,,,,0,,,76,88
30780,note_on,0,0,3,,,,,,,,,2,,,56,88
30786,note_on,0,0,1,,,,,,,,,0,,,71,0
30786,note_on,6,0,1,,,,,,,,,0,,,76,0
30810,note_on,30,0,3,,,,,,,,,2,,,56,0
30810,note_on,0,0,3,,,,,,,,,2,,,57,88
30840,note_on,0,0,3,,,,,,,,,2,,,58,75
30840,note_on,30,0,3,,,,,,,,,2,,,57,0
30840,note_on,54,0,1,,,,,,,,,0,,,68,75
30840,note_on,0,0,1,,,,,,,,,0,,,76,75
30846,note_on,6,0,1,,,,,,,,,0,,,76,0
30846,note_on,0,0,1,,,,,,,,,0,,,68,0
30870,note_on,30,0,3,,,,,,,,,2,,,58,0
30870,note_on,0,0,3,,,,,,,,,2,,,59,75
30900,note_on,30,0,3,,,,,,,,,2,,,59,0
30900,note_on,0,0,1,,,,,,,,,0,,,76,75
30900,note_on,0,0,1,,,,,,,,,0,,,64,75
30900,control_change,54,0,1,,,,,,,,,0,64,0,,
30900,note_on,0,0,3,,,,,,,,,2,,,58,75
30906,note_on,6,0,1,,,,,,,,,0,,,76,0
30906,note_on,0,0,1,,,,,,,,,0,,,64,0
30930,note_on,30,0,3,,,,,,,,,2,,,58,0
30930,note_on,0,0,3,,,,,,,,,2,,,59,75
30930,control_change,0,0,3,,,,,,,,,2,64,0,,
30960,control_change,54,0,1,,,,,,,,,0,64,127,,
30960,note_on,0,0,1,,,,,,,,,0,,,62,88
30960,note_on,0,0,1,,,,,,,,,0,,,64,88
30960,note_on,0,0,3,,,,,,,,,2,,,40,88
30960,control_change,0,0,3,,,,,,,,,2,64,127,,
30960,note_on,30,0,3,,,,,,,,,2,,,59,0
30966,note_on,6,0,1,,,,,,,,,0,,,64,0
30966,note_on,0,0,1,,,,,,,,,0,,,62,0
30990,note_on,30,0,3,,,,,,,,,2,,,40,0
30990,note_on,0,0,3,,,,,,,,,2,,,42,88
31020,note_on,0,0,1,,,,,,,,,0,,,64,88
31020,note_on,54,0,1,,,,,,,,,0,,,59,88
31020,note_on,30,0,3,,,,,,,,,2,,,42,0
31020,note_on,0,0,3,,,,,,,,,2,,,44,88
31026,note_on,6,0,1,,,,,,,,,0,,,64,0
31026,note_on,0,0,1,,,,,,,,,0,,,59,0
31050,note_on,30,0,3,,,,,,,,,2,,,44,0
31050,note_on,0,0,3,,,,,,,,,2,,,45,88
31080,note_on,54,0,1,,,,,,,,,0,,,56,75
31080,note_on,0,0,1,,,,,,,,,0,,,64,75
31080,note_on,30,0,3,,,,,,,,,2,,,45,0
31080,note_on,0,0,3,,,,,,,,,2,,,46,75
31086,note_on,6,0,1,,,,,,,,,0,,,64,0
31086,note_on,0,0,1,,,,,,,,,0,,,56,0
31110,note_on,0,0,3,,,,,,,,,2,,,47,75
31110,note_on,30,0,3,,,,,,,,,2,,,46,0
31140,note_on,30,0,3,,,,,,,,,2,,,47,0
31140,note_on,0,0,3,,,,,,,,,2,,,46,75
31140,control_change,54,0,1,,,,,,,,,0,64,0,,
31140,note_on,0,0,1,,,,,,,,,0,,,52,75
31140,note_on,0,0,1,,,,,,,,,0,,,64,75
31146,note_on,0,0,1,,,,,,,,,0,,,52,0
31146,note_on,6,0,1,,,,,,,,,0,,,64,0
31170,note_on,30,0,3,,,,,,,,,2,,,46,0
31170,control_change,0,0,3,,,,,,,,,2,64,0,,
31170,note_on,0,0,3,,,,,,,,,2,,,47,75
31200,note_on,0,0,3,,,,,,,,,2,,,46,75
31200,control_change,0,0,3,,,,,,,,,2,64,127,,
31200,note_on,30,0,3,,,,,,,,,2,,,47,0
31230,note_on,0,0,3,,,,,,,,,2,,,47,75
31230,note_on,30,0,3,,,,,,,,,2,,,46,0
31260,note_on,30,0,3,,,,,,,,,2,,,47,0
31260,note_on,0,0,3,,,,,,,,,2,,,49,75
31290,note_on,30,0,3,,,,,,,,,2,,,49,0
31290,note_on,0,0,3,,,,,,,,,2,,,50,75
31320,note_on,30,0,3,,,,,,,,,2,,,50,0
31320,control_change,0,0,3,,,,,,,,,2,64,0,,
31320,note_on,0,0,3,,,,,,,,,2,,,51,75
31350,note_on,0,0,3,,,,,,,,,2,,,52,75
31350,note_on,30,0,3,,,,,,,,,2,,,51,0
31380,note_on,30,0,3,,,,,,,,,2,,,52,0
31380,note_on,0,0,3,,,,,,,,,2,,,54,75
31410,note_on,0,0,3,,,,,,,,,2,,,56,75
31410,note_on,30,0,3,,,,,,,,,2,,,54,0
31440,control_change,294,0,1,,,,,,,,,0,64,127,,
31440,note_on,0,0,3,,,,,,,,,2,,,57,75
31440,control_change,0,0,3,,,,,,,,,2,64,127,,
31440,note_on,30,0,3,,,,,,,,,2,,,56,0
31440,note_on,0,0,1,,,,,,,,,0,,,69,88
31470,note_on,30,0,3,,,,,,,,,2,,,57,0
31470,note_on,0,0,3,,,,,,,,,2,,,59,75
31470,note_on,0,0,1,,,,,,,,,0,,,71,88
31470,note_on,30,0,1,,,,,,,,,0,,,69,0
31500,note_on,30,0,1,,,,,,,,,0,,,71,0
31500,note_on,0,0,1,,,,,,,,,0,,,72,88
31500,note_on,30,0,3,,,,,,,,,2,,,59,0
31500,note_on,0,0,3,,,,,,,,,2,,,60,75
31530,note_on,30,0,3,,,,,,,,,2,,,60,0
31530,note_on,0,0,3,,,,,,,,,2,,,62,75
31530,note_on,30,0,1,,,,,,,,,0,,,72,0
31530,note_on,0,0,1,,,,,,,,,0,,,74,88
31560,note_on,30,0,3,,,,,,,,,2,,,62,0
31560,note_on,0,0,3,,,,,,,,,2,,,63,75
31560,control_change,0,0,3,,,,,,,,,2,64,0,,
31560,note_on,0,0,1,,,,,,,,,0,,,75,88
31560,control_change,0,0,1,,,,,,,,,0,64,0,,
31560,note_on,30,0,1,,,,,,,,,0,,,74,0
31590,note_on,30,0,3,,,,,,,,,2,,,63,0
31590,note_on,0,0,1,,,,,,,,,0,,,76,88
31590,note_on,30,0,1,,,,,,,,,0,,,75,0
31590,note_on,0,0,3,,,,,,,,,2,,,64,75
31620,note_on,0,0,1,,,,,,,,,0,,,75,88
31620,note_on,30,0,1,,,,,,,,,0,,,76,0
31620,note_on,30,0,3,,,,,,,,,2,,,64,0
31620,note_on,0,0,3,,,,,,,,,2,,,63,75
31650,note_on,30,0,3,,,,,,,,,2,,,63,0
31650,note_on,30,0,1,,,,,,,,,0,,,75,0
31650,note_on,0,0,1,,,,,,,,,0,,,76,88
31650,note_on,0,0,3,,,,,,,,,2,,,64,75
31680,note_on,0,0,3,,,,,,,,,2,,,62,75
31680,note_on,30,0,1,,,,,,,,,0,,,76,0
31680,control_change,0,0,3,,,,,,,,,2,64,127,,
31680,note_on,0,0,1,,,,,,,,,0,,,69,88
31680,note_on,0,0,1,,,,,,,,,0,,,74,88
31680,control_change,0,0,1,,,,,,,,,0,64,127,,
31680,note_on,30,0,3,,,,,,,,,2,,,64,0
31680,note_on,0,0,3,,,,,,,,,2,,,65,75
31680,note_on,0,0,1,,,,,,,,,0,,,77,88
31800,control_change,0,0,1,,,,,,,,,0,64,0,,
31800,note_on,0,0,1,,,,,,,,,0,,,76,88
31800,note_on,0,0,1,,,,,,,,,0,,,72,88
31800,note_on,0,0,1,,,,,,,,,0,,,74,0
31800,note_on,120,0,1,,,,,,,,,0,,,77,0
31800,note_on,120,0,3,,,,,,,,,2,,,65,0
31800,note_on,0,0,3,,,,,,,,,2,,,62,0
31800,control_change,0,0,3,,,,,,,,,2,64,0,,
31800,note_on,0,0,3,,,,,,,,,2,,,64,75
31800,note_on,0,0,3,,,,,,,,,2,,,57,75
31860,note_on,0,0,1,,,,,,,,,0,,,69,0
31860,note_on,0,0,1,,,,,,,,,0,,,72,0
31860,note_on,60,0,1,,,,,,,,,0,,,76,0
31860,note_on,0,0,3,,,,,,,,,2,,,57,0
31860,note_on,60,0,3,,,,,,,,,2,,,64,0
31920,control_change,60,0,3,,,,,,,,,2,64,127,,
31920,note_on,0,0,1,,,,,,,,,0,,,81,88
31920,note_on,0,0,3,,,,,,,,,2,,,60,75
31920,note_on,0,0,3,,,,,,,,,2,,,53,75
31920,control_change,60,0,1,,,,,,,,,0,64,127,,
31920,note_on,0,0,1,,,,,,,,,0,,,69,88
31920,note_on,0,0,1,,,,,,,,,0,,,72,88
31920,note_on,0,0,1,,,,,,,,,0,,,77,88
31920,note_on,0,0,3,,,,,,,,,2,,,65,75
32040,note_on,120,0,1,,,,,,,,,0,,,81,0
32040,note_on,120,0,3,,,,,,,,,2,,,65,0
32040,note_on,0,0,3,,,,,,,,,2,,,60,0
32040,note_on,0,0,3,,,,,,,,,2,,,53,0
32040,control_change,0,0,3,,,,,,,,,2,64,0,,
32040,note_on,0,0,3,,,,,,,,,2,,,48,75
32040,note_on,0,0,3,,,,,,,,,2,,,60,75
32040,note_on,0,0,1,,,,,,,,,0,,,69,0
32040,note_on,0,0,1,,,,,,,,,0,,,67,88
32040,note_on,0,0,1,,,,,,,,,0,,,76,88
32040,note_on,0,0,1,,,,,,,,,0,,,79,88
32040,control_change,0,0,1,,,,,,,,,0,64,0,,
32040,note_on,0,0,1,,,,,,,,,0,,,77,0
32100,note_on,0,0,1,,,,,,,,,0,,,67,0
32100,note_on,0,0,1,,,,,,,,,0,,,76,0
32100,note_on,60,0,1,,,,,,,,,0,,,79,0
32100,note_on,0,0,1,,,,,,,,,0,,,72,0
32100,note_on,0,0,3,,,,,,,,,2,,,48,0
32100,note_on,60,0,3,,,,,,,,,2,,,60,0
32160,note_on,0,0,1,,,,,,,,,0,,,76,114
32160,note_on,60,0,1,,,,,,,,,0,,,72,114
32160,note_on,0,0,1,,,,,,,,,0,,,84,114
32160,note_on,0,0,3,,,,,,,,,2,,,57,101
32160,note_on,60,0,3,,,,,,,,,2,,,45,101
32166,note_on,6,0,3,,,,,,,,,2,,,57,0
32166,note_on,0,0,1,,,,,,,,,0,,,72,0
32166,note_on,6,0,1,,,,,,,,,0,,,84,0
32166,note_on,0,0,1,,,,,,,,,0,,,76,0
32166,note_on,0,0,3,,,,,,,,,2,,,45,0
32220,note_on,0,0,3,,,,,,,,,2,,,55,101
32220,note_on,54,0,3,,,,,,,,,2,,,43,101
32220,note_on,54,0,1,,,,,,,,,0,,,71,114
32220,note_on,0,0,1,,,,,,,,,0,,,76,114
32220,note_on,0,0,1,,,,,,,,,0,,,83,114
32226,note_on,0,0,3,,,,,,,,,2,,,43,0
32226,note_on,6,0,1,,,,,,,,,0,,,83,0
32226,note_on,0,0,1,,,,,,,,,0,,,76,0
32226,note_on,0,0,1,,,,,,,,,0,,,71,0
32226,note_on,6,0,3,,,,,,,,,2,,,55,0
32280,note_on,0,0,1,,,,,,,,,0,,,72,114
32280,note_on,54,0,1,,,,,,,,,0,,,69,114
32280,note_on,0,0,1,,,,,,,,,0,,,81,114
32280,note_on,54,0,3,,,,,,,,,2,,,41,101
32280,note_on,0,0,3,,,,,,,,,2,,,53,101
32286,note_on,0,0,1,,,,,,,,,0,,,72,0
32286,note_on,0,0,1,,,,,,,,,0,,,69,0
32286,note_on,6,0,3,,,,,,,,,2,,,53,0
32286,note_on,0,0,3,,,,,,,,,2,,,41,0
32286,note_on,6,0,1,,,,,,,,,0,,,81,0
32340,note_on,0,0,1,,,,,,,,,0,,,79,114
32340,note_on,0,0,3,,,,,,,,,2,,,52,101
32340,note_on,54,0,3,,,,,,,,,2,,,40,101
32340,note_on,54,0,1,,,,,,,,,0,,,67,114
32340,note_on,0,0,1,,,,,,,,,0,,,72,114
32346,note_on,6,0,1,,,,,,,,,0,,,79,0
32346,note_on,0,0,3,,,,,,,,,2,,,40,0
32346,note_on,6,0,3,,,,,,,,,2,,,52,0
32346,note_on,0,0,1,,,,,,,,,0,,,72,0
32346,note_on,0,0,1,,,,,,,,,0,,,67,0
32400,note_on,0,0,3,,,,,,,,,2,,,50,101
32400,note_on,54,0,3,,,,,,,,,2,,,38,101
32400,note_on,54,0,1,,,,,,,,,0,,,65,114
32400,note_on,0,0,1,,,,,,,,,0,,,69,114
32400,note_on,0,0,1,,,,,,,,,0,,,77,114
32406,note_on,6,0,3,,,,,,,,,2,,,50,0
32406,note_on,0,0,3,,,,,,,,,2,,,38,0
32406,note_on,0,0,1,,,,,,,,,0,,,65,0
32406,note_on,6,0,1,,,,,,,,,0,,,77,0
32406,note_on,0,0,1,,,,,,,,,0,,,69,0
32460,note_on,0,0,3,,,,,,,,,2,,,48,101
32460,note_on,54,0,3,,,,,,,,,2,,,36,101
32460,note_on,54,0,1,,,,,,,,,0,,,64,114
32460,note_on,0,0,1,,,,,,,,,0,,,69,114
32460,note_on,0,0,1,,,,,,,,,0,,,76,114
32466,note_on,6,0,3,,,,,,,,,2,,,48,0
32466,note_on,0,0,1,,,,,,,,,0,,,69,0
32466,note_on,6,0,1,,,,,,,,,0,,,76,0
32466,note_on,0,0,3,,,,,,,,,2,,,36,0
32466,note_on,0,0,1,,,,,,,,,0,,,64,0
32520,note_on,0,0,3,,,,,,,,,2,,,50,101
32520,note_on,54,0,3,,,,,,,,,2,,,38,101
32520,note_on,0,0,1,,,,,,,,,0,,,69,114
32520,note_on,54,0,1,,,,,,,,,0,,,65,114
32520,note_on,0,0,1,,,,,,,,,0,,,74,114
32526,note_on,6,0,3,,,,,,,,,2,,,50,0
32526,note_on,6,0,1,,,,,,,,,0,,,74,0
32526,note_on,0,0,1,,,,,,,,,0,,,69,0
32526,note_on,0,0,3,,,,,,,,,2,,,38,0
32526,note_on,0,0,1,,,,,,,,,0,,,65,0
32580,note_on,0,0,1,,,,,,,,,0,,,72,114
32580,note_on,0,0,1,,,,,,,,,0,,,69,114
32580,note_on,0,0,3,,,,,,,,,2,,,51,101
32580,note_on,54,0,3,,,,,,,,,2,,,39,101
32580,note_on,54,0,1,,,,,,,,,0,,,66,114
32586,note_on,6,0,3,,,,,,,,,2,,,51,0
32586,note_on,0,0,3,,,,,,,,,2,,,39,0
32586,note_on,6,0,1,,,,,,,,,0,,,72,0
32586,note_on,0,0,1,,,,,,,,,0,,,69,0
32586,note_on,0,0,1,,,,,,,,,0,,,66,0
32640,note_on,0,0,3,,,,,,,,,2,,,52,114
32640,note_on,0,0,3,,,,,,,,,2,,,40,114
32640,control_change,54,0,3,,,,,,,,,2,64,127,,
32640,note_on,0,0,1,,,,,,,,,0,,,76,114
32640,note_on,0,0,1,,,,,,,,,0,,,71,114
32640,note_on,0,0,1,,,,,,,,,0,,,68,114
32640,note_on,0,0,1,,,,,,,,,0,,,64,114
32640,control_change,54,0,1,,,,,,,,,0,64,127,,
32670,note_on,0,0,3,,,,,,,,,2,,,44,114
32670,note_on,30,0,3,,,,,,,,,2,,,52,0
32670,note_on,0,0,3,,,,,,,,,2,,,40,0
32700,note_on,0,0,3,,,,,,,,,2,,,47,114
32700,note_on,30,0,3,,,,,,,,,2,,,44,0
32730,note_on,0,0,3,,,,,,,,,2,,,52,114
32730,note_on,30,0,3,,,,,,,,,2,,,47,0
32760,note_on,0,0,3,,,,,,,,,2,,,56,114
32760,note_on,30,0,3,,,,,,,,,2,,,52,0
32760,note_on,120,0,1,,,,,,,,,0,,,76,0
32760,note_on,0,0,1,,,,,,,,,0,,,64,0
32760,note_on,0,0,1,,,,,,,,,0,,,71,0
32760,note_on,0,0,1,,,,,,,,,0,,,68,0
32790,note_on,30,0,3,,,,,,,,,2,,,56,0
32790,note_on,0,0,3,,,,,,,,,2,,,57,114
32820,note_on,30,0,3,,,,,,,,,2,,,57,0
32820,note_on,0,0,3,,,,,,,,,2,,,59,114
32850,note_on,0,0,3,,,,,,,,,2,,,60,114
32850,note_on,30,0,3,,,,,,,,,2,,,59,0
32850,control_change,0,0,3,,,,,,,,,2,64,0,,
32880,note_on,0,0,3,,,,,,,,,2,,,62,114
32880,note_on,0,0,3,,,,,,,,,2,,,50,114
32880,control_change,0,0,3,,,,,,,,,2,64,127,,
32880,note_on,0,0,1,,,,,,,,,0,,,64,114
32880,control_change,120,0,1,,,,,,,,,0,64,127,,
32880,note_on,30,0,3,,,,,,,,,2,,,60,0
32886,note_on,6,0,3,,,,,,,,,2,,,62,0
32886,note_on,0,0,3,,,,,,,,,2,,,50,0
32910,note_on,30,0,1,,,,,,,,,0,,,64,0
32910,note_on,0,0,1,,,,,,,,,0,,,66,114
32940,note_on,30,0,1,,,,,,,,,0,,,66,0
32940,note_on,0,0,3,,,,,,,,,2,,,61,114
32940,note_on,54,0,3,,,,,,,,,2,,,49,114
32940,note_on,0,0,1,,,,,,,,,0,,,68,114
32946,note_on,0,0,3,,,,,,,,,2,,,49,0
32946,note_on,6,0,3,,,,,,,,,2,,,61,0
32970,note_on,0,0,1,,,,,,,,,0,,,69,114
32970,note_on,30,0,1,,,,,,,,,0,,,68,0
33000,note_on,30,0,1,,,,,,,,,0,,,69,0
33000,note_on,54,0,3,,,,,,,,,2,,,50,114
33000,note_on,0,0,3,,,,,,,,,2,,,62,114
33000,note_on,0,0,1,,,,,,,,,0,,,70,114
33006,note_on,6,0,3,,,,,,,,,2,,,62,0
33006,note_on,0,0,3,,,,,,,,,2,,,50,0
33030,note_on,0,0,1,,,,,,,,,0,,,71,114
33030,note_on,30,0,1,,,,,,,,,0,,,70,0
33060,note_on,0,0,3,,,,,,,,,2,,,52,114
33060,note_on,0,0,3,,,,,,,,,2,,,64,114
33060,control_change,54,0,3,,,,,,,,,2,64,0,,
33060,note_on,0,0,1,,,,,,,,,0,,,70,114
33060,note_on,30,0,1,,,,,,,,,0,,,71,0
33066,note_on,0,0,3,,,,,,,,,2,,,52,0
33066,note_on,6,0,3,,,,,,,,,2,,,64,0
33090,control_change,0,0,1,,,,,,,,,0,64,0,,
33090,note_on,30,0,1,,,,,,,,,0,,,70,0
33090,note_on,0,0,1,,,,,,,,,0,,,71,114
33120,note_on,30,0,1,,,,,,,,,0,,,71,0
33120,control_change,0,0,1,,,,,,,,,0,64,127,,
33120,note_on,0,0,1,,,,,,,,,0,,,69,114
33120,note_on,0,0,3,,,,,,,,,2,,,48,114
33120,control_change,54,0,3,,,,,,,,,2,64,127,,
33120,note_on,0,0,3,,,,,,,,,2,,,60,114
33126,note_on,0,0,3,,,,,,,,,2,,,48,0
33126,note_on,6,0,3,,,,,,,,,2,,,60,0
33150,note_on,0,0,1,,,,,,,,,0,,,71,114
33150,note_on,30,0,1,,,,,,,,,0,,,69,0
33180,note_on,30,0,1,,,,,,,,,0,,,71,0
33180,note_on,0,0,3,,,,,,,,,2,,,57,114
33180,note_on,54,0,3,,,,,,,,,2,,,45,114
33180,note_on,0,0,1,,,,,,,,,0,,,72,114
33186,note_on,0,0,3,,,,,,,,,2,,,45,0
33186,note_on,6,0,3,,,,,,,,,2,,,57,0
33210,note_on,30,0,1,,,,,,,,,0,,,72,0
33210,note_on,0,0,1,,,,,,,,,0,,,74,114
33240,note_on,0,0,1,,,,,,,,,0,,,75,114
33240,note_on,54,0,3,,,,,,,,,2,,,47,114
33240,note_on,30,0,1,,,,,,,,,0,,,74,0
33240,note_on,0,0,3,,,,,,,,,2,,,59,114
33246,note_on,0,0,3,,,,,,,,,2,,,47,0
33246,note_on,6,0,3,,,,,,,,,2,,,59,0
33270,note_on,30,0,1,,,,,,,,,0,,,75,0
33270,note_on,0,0,1,,,,,,,,,0,,,76,114
33300,note_on,30,0,1,,,,,,,,,0,,,76,0
33300,control_change,54,0,3,,,,,,,,,2,64,0,,
33300,note_on,0,0,1,,,,,,,,,0,,,75,114
33300,note_on,0,0,3,,,,,,,,,2,,,60,114
33300,note_on,0,0,3,,,,,,,,,2,,,48,114
33306,note_on,6,0,3,,,,,,,,,2,,,60,0
33306,note_on,0,0,3,,,,,,,,,2,,,48,0
33330,note_on,0,0,1,,,,,,,,,0,,,76,114
33330,control_change,0,0,1,,,,,,,,,0,64,0,,
33330,note_on,30,0,1,,,,,,,,,0,,,75,0
33360,note_on,0,0,3,,,,,,,,,2,,,50,114
33360,note_on,0,0,3,,,,,,,,,2,,,62,114
33360,note_on,0,0,1,,,,,,,,,0,,,77,114
33360,note_on,30,0,1,,,,,,,,,0,,,76,0
33360,control_change,0,0,1,,,,,,,,,0,64,127,,
33360,control_change,54,0,3,,,,,,,,,2,64,127,,
33366,note_on,6,0,3,,,,,,,,,2,,,62,0
33366,note_on,0,0,3,,,,,,,,,2,,,50,0
33390,note_on,0,0,1,,,,,,,,,0,,,76,114
33390,note_on,30,0,1,,,,,,,,,0,,,77,0
33420,note_on,0,0,1,,,,,,,,,0,,,74,114
33420,note_on,30,0,1,,,,,,,,,0,,,76,0
33420,note_on,54,0,3,,,,,,,,,2,,,47,114
33420,note_on,0,0,3,,,,,,,,,2,,,59,114
33426,note_on,6,0,3,,,,,,,,,2,,,59,0
33426,note_on,0,0,3,,,,,,,,,2,,,47,0
33450,note_on,30,0,1,,,,,,,,,0,,,74,0
33450,note_on,0,0,1,,,,,,,,,0,,,72,114
33480,note_on,0,0,3,,,,,,,,,2,,,60,114
33480,note_on,0,0,1,,,,,,,,,0,,,76,114
33480,control_change,54,0,3,,,,,,,,,2,64,0,,
33480,control_change,0,0,1,,,,,,,,,0,64,0,,
33480,note_on,30,0,1,,,,,,,,,0,,,72,0
33480,note_on,0,0,3,,,,,,,,,2,,,48,114
33486,note_on,0,0,3,,,,,,,,,2,,,48,0
33486,note_on,6,0,3,,,,,,,,,2,,,60,0
33510,note_on,0,0,1,,,,,,,,,0,,,74,114
33510,note_on,30,0,1,,,,,,,,,0,,,76,0
33540,note_on,0,0,3,,,,,,,,,2,,,64,114
33540,note_on,0,0,1,,,,,,,,,0,,,72,114
33540,note_on,30,0,1,,,,,,,,,0,,,74,0
33540,note_on,54,0,3,,,,,,,,,2,,,52,114
33546,note_on,6,0,3,,,,,,,,,2,,,64,0
33546,note_on,0,0,3,,,,,,,,,2,,,52,0
33570,note_on,30,0,1,,,,,,,,,0,,,72,0
33570,note_on,0,0,1,,,,,,,,,0,,,71,114
33600,note_on,0,0,3,,,,,,,,,2,,,45,114
33600,note_on,30,0,1,,,,,,,,,0,,,71,0
33600,control_change,0,0,1,,,,,,,,,0,64,127,,
33600,note_on,0,0,1,,,,,,,,,0,,,69,114
33600,control_change,54,0,3,,,,,,,,,2,64,127,,
33600,note_on,0,0,3,,,,,,,,,2,,,57,114
33606,note_on,0,0,3,,,,,,,,,2,,,45,0
33606,note_on,6,0,3,,,,,,,,,2,,,57,0
33630,note_on,0,0,1,,,,,,,,,0,,,71,114
33630,note_on,30,0,1,,,,,,,,,0,,,69,0
33660,note_on,0,0,1,,,,,,,,,0,,,72,114
33660,note_on,54,0,3,,,,,,,,,2,,,52,114
33660,note_on,30,0,1,,,,,,,,,0,,,71,0
33666,note_on,6,0,3,,,,,,,,,2,,,52,0
33690,note_on,0,0,1,,,,,,,,,0,,,74,114
33690,note_on,30,0,1,,,,,,,,,0,,,72,0
33720,note_on,0,0,1,,,,,,,,,0,,,76,114
33720,note_on,30,0,1,,,,,,,,,0,,,74,0
33720,note_on,54,0,3,,,,,,,,,2,,,48,114
33726,note_on,6,0,3,,,,,,,,,2,,,48,0
33750,note_on,0,0,1,,,,,,,,,0,,,78,114
33750,note_on,30,0,1,,,,,,,,,0,,,76,0
33780,note_on,30,0,1,,,,,,,,,0,,,78,0
33780,control_change,54,0,3,,,,,,,,,2,64,0,,
33780,note_on,0,0,1,,,,,,,,,0,,,80,114
33780,note_on,0,0,3,,,,,,,,,2,,,45,114
33786,note_on,6,0,3,,,,,,,,,2,,,45,0
33810,note_on,30,0,1,,,,,,,,,0,,,80,0
33810,control_change,0,0,1,,,,,,,,,0,64,0,,
33810,note_on,0,0,1,,,,,,,,,0,,,81,114
33840,note_on,30,0,1,,,,,,,,,0,,,81,0
33840,control_change,0,0,1,,,,,,,,,0,64,127,,
33840,note_on,0,0,1,,,,,,,,,0,,,70,114
33840,note_on,0,0,1,,,,,,,,,0,,,82,114
33840,note_on,0,0,3,,,,,,,,,2,,,48,114
33840,control_change,54,0,3,,,,,,,,,2,64,127,,
33846,note_on,0,0,1,,,,,,,,,0,,,70,0
33846,note_on,6,0,1,,,,,,,,,0,,,82,0
33870,note_on,0,0,3,,,,,,,,,2,,,50,114
33870,note_on,30,0,3,,,,,,,,,2,,,48,0
33900,note_on,0,0,1,,,,,,,,,0,,,81,114
33900,note_on,30,0,3,,,,,,,,,2,,,50,0
33900,note_on,0,0,3,,,,,,,,,2,,,52,114
33900,note_on,54,0,1,,,,,,,,,0,,,69,114
33906,note_on,0,0,1,,,,,,,,,0,,,69,0
33906,note_on,6,0,1,,,,,,,,,0,,,81,0
33930,note_on,30,0,3,,,,,,,,,2,,,52,0
33930,note_on,0,0,3,,,,,,,,,2,,,53,114
33960,note_on,0,0,1,,,,,,,,,0,,,82,114
33960,note_on,54,0,1,,,,,,,,,0,,,70,114
33960,note_on,30,0,3,,,,,,,,,2,,,53,0
33960,note_on,0,0,3,,,,,,,,,2,,,54,114
33966,note_on,0,0,1,,,,,,,,,0,,,70,0
33966,note_on,6,0,1,,,,,,,,,0,,,82,0
33990,note_on,30,0,3,,,,,,,,,2,,,54,0
33990,note_on,0,0,3,,,,,,,,,2,,,55,114
34020,note_on,0,0,1,,,,,,,,,0,,,72,114
34020,control_change,54,0,1,,,,,,,,,0,64,0,,
34020,note_on,30,0,3,,,,,,,,,2,,,55,0
34020,note_on,0,0,3,,,,,,,,,2,,,54,114
34020,note_on,0,0,1,,,,,,,,,0,,,84,114
34026,note_on,0,0,1,,,,,,,,,0,,,72,0
34026,note_on,6,0,1,,,,,,,,,0,,,84,0
34050,control_change,0,0,3,,,,,,,,,2,64,0,,
34050,note_on,0,0,3,,,,,,,,,2,,,55,114
34050,note_on,30,0,3,,,,,,,,,2,,,54,0
34080,note_on,0,0,3,,,,,,,,,2,,,53,114
34080,control_change,54,0,1,,,,,,,,,0,64,127,,
34080,note_on,0,0,1,,,,,,,,,0,,,69,114
34080,note_on,0,0,1,,,,,,,,,0,,,81,114
34080,control_change,0,0,3,,,,,,,,,2,64,127,,
34080,note_on,30,0,3,,,,,,,,,2,,,55,0
34086,note_on,6,0,1,,,,,,,,,0,,,81,0
34086,note_on,0,0,1,,,,,,,,,0,,,69,0
34110,note_on,0,0,3,,,,,,,,,2,,,55,114
34110,note_on,30,0,3,,,,,,,,,2,,,53,0
34140,note_on,30,0,3,,,,,,,,,2,,,55,0
34140,note_on,0,0,3,,,,,,,,,2,,,57,114
34140,note_on,0,0,1,,,,,,,,,0,,,77,114
34140,note_on,54,0,1,,,,,,,,,0,,,65,114
34146,note_on,0,0,1,,,,,,,,,0,,,65,0
34146,note_on,6,0,1,,,,,,,,,0,,,77,0
34170,note_on,0,0,3,,,,,,,,,2,,,58,114
34170,note_on,30,0,3,,,,,,,,,2,,,57,0
34200,note_on,30,0,3,,,,,,,,,2,,,58,0
34200,note_on,0,0,3,,,,,,,,,2,,,59,114
34200,note_on,54,0,1,,,,,,,,,0,,,67,114
34200,note_on,0,0,1,,,,,,,,,0,,,79,114
34206,note_on,6,0,1,,,,,,,,,0,,,79,0
34206,note_on,0,0,1,,,,,,,,,0,,,67,0
34230,note_on,30,0,3,,,,,,,,,2,,,59,0
34230,note_on,0,0,3,,,,,,,,,2,,,60,114
34260,note_on,30,0,3,,,,,,,,,2,,,60,0
34260,note_on,0,0,3,,,,,,,,,2,,,59,114
34260,control_change,54,0,1,,,,,,,,,0,64,0,,
34260,note_on,0,0,1,,,,,,,,,0,,,69,114
34260,note_on,0,0,1,,,,,,,,,0,,,81,114
34266,note_on,6,0,1,,,,,,,,,0,,,81,0
34266,note_on,0,0,1,,,,,,,,,0,,,69,0
34290,note_on,0,0,3,,,,,,,,,2,,,60,114
34290,note_on,30,0,3,,,,,,,,,2,,,59,0
34290,control_change,0,0,3,,,,,,,,,2,64,0,,
34320,note_on,0,0,3,,,,,,,,,2,,,62,114
34320,note_on,0,0,1,,,,,,,,,0,,,70,114
34320,control_change,54,0,1,,,,,,,,,0,64,127,,
34320,note_on,0,0,1,,,,,,,,,0,,,82,114
34320,note_on,30,0,3,,,,,,,,,2,,,60,0
34320,control_change,0,0,3,,,,,,,,,2,64,127,,
34326,note_on,6,0,1,,,,,,,,,0,,,82,0
34326,note_on,0,0,1,,,,,,,,,0,,,70,0
34350,note_on,30,0,3,,,,,,,,,2,,,62,0
34350,note_on,0,0,3,,,,,,,,,2,,,60,114
34380,note_on,54,0,1,,,,,,,,,0,,,67,114
34380,note_on,30,0,3,,,,,,,,,2,,,60,0
34380,note_on,0,0,3,,,,,,,,,2,,,58,114
34380,note_on,0,0,1,,,,,,,,,0,,,79,114
34386,note_on,6,0,1,,,,,,,,,0,,,79,0
34386,note_on,0,0,1,,,,,,,,,0,,,67,0
34410,note_on,0,0,3,,,,,,,,,2,,,57,114
34410,note_on,30,0,3,,,,,,,,,2,,,58,0
34440,note_on,30,0,3,,,,,,,,,2,,,57,0
34440,note_on,0,0,1,,,,,,,,,0,,,81,114
34440,note_on,54,0,1,,,,,,,,,0,,,69,114
34440,note_on,0,0,3,,,,,,,,,2,,,60,114
34446,note_on,0,0,1,,,,,,,,,0,,,69,0
34446,note_on,6,0,1,,,,,,,,,0,,,81,0
34470,note_on,30,0,3,,,,,,,,,2,,,60,0
34470,note_on,0,0,3,,,,,,,,,2,,,58,114
34500,note_on,0,0,1,,,,,,,,,0,,,84,114
34500,control_change,54,0,1,,,,,,,,,0,64,0,,
34500,note_on,0,0,1,,,,,,,,,0,,,72,114
34500,note_on,30,0,3,,,,,,,,,2,,,58,0
34500,note_on,0,0,3,,,,,,,,,2,,,57,114
34506,note_on,6,0,1,,,,,,,,,0,,,84,0
34506,note_on,0,0,1,,,,,,,,,0,,,72,0
34530,note_on,30,0,3,,,,,,,,,2,,,57,0
34530,note_on,0,0,3,,,,,,,,,2,,,55,114
34530,control_change,0,0,3,,,,,,,,,2,64,0,,
34560,note_on,0,0,1,,,,,,,,,0,,,77,114
34560,note_on,0,0,1,,,,,,,,,0,,,65,114
34560,control_change,0,0,3,,,,,,,,,2,64,127,,
34560,note_on,30,0,3,,,,,,,,,2,,,55,0
34560,control_change,54,0,1,,,,,,,,,0,64,127,,
34560,note_on,0,0,3,,,,,,,,,2,,,53,114
34566,note_on,0,0,1,,,,,,,,,0,,,65,0
34566,note_on,6,0,1,,,,,,,,,0,,,77,0
34590,note_on,30,0,3,,,,,,,,,2,,,53,0
34590,note_on,0,0,3,,,,,,,,,2,,,55,114
34620,note_on,54,0,1,,,,,,,,,0,,,72,114
34620,note_on,30,0,3,,,,,,,,,2,,,55,0
34620,note_on,0,0,3,,,,,,,,,2,,,57,114
34626,note_on,6,0,1,,,,,,,,,0,,,72,0
34650,note_on,30,0,3,,,,,,,,,2,,,57,0
34650,note_on,0,0,3,,,,,,,,,2,,,58,114
34680,note_on,30,0,3,,,,,,,,,2,,,58,0
34680,note_on,0,0,3,,,,,,,,,2,,,60,114
34680,note_on,54,0,1,,,,,,,,,0,,,69,114
34686,note_on,6,0,1,,,,,,,,,0,,,69,0
34710,note_on,30,0,3,,,,,,,,,2,,,60,0
34710,note_on,0,0,3,,,,,,,,,2,,,62,114
34740,note_on,0,0,1,,,,,,,,,0,,,65,114
34740,control_change,54,0,1,,,,,,,,,0,64,0,,
34740,note_on,0,0,3,,,,,,,,,2,,,64,114
34740,note_on,30,0,3,,,,,,,,,2,,,62,0
34746,note_on,6,0,1,,,,,,,,,0,,,65,0
34770,note_on,30,0,3,,,,,,,,,2,,,64,0
34770,control_change,0,0,3,,,,,,,,,2,64,0,,
34770,note_on,0,0,3,,,,,,,,,2,,,65,114
34800,note_on,30,0,3,,,,,,,,,2,,,65,0
34800,control_change,0,0,3,,,,,,,,,2,64,127,,
34800,note_on,0,0,3,,,,,,,,,2,,,55,114
34800,note_on,0,0,3,,,,,,,,,2,,,67,114
34800,control_change,54,0,1,,,,,,,,,0,64,127,,
34800,note_on,0,0,1,,,,,,,,,0,,,69,114
34806,note_on,6,0,3,,,,,,,,,2,,,67,0
34806,note_on,0,0,3,,,,,,,,,2,,,55,0
34830,note_on,30,0,1,,,,,,,,,0,,,69,0
34830,note_on,0,0,1,,,,,,,,,0,,,71,114
34860,note_on,54,0,3,,,,,,,,,2,,,54,114
34860,note_on,0,0,3,,,,,,,,,2,,,66,114
34860,note_on,0,0,1,,,,,,,,,0,,,73,114
34860,note_on,30,0,1,,,,,,,,,0,,,71,0
34866,note_on,6,0,3,,,,,,,,,2,,,66,0
34866,note_on,0,0,3,,,,,,,,,2,,,54,0
34890,note_on,30,0,1,,,,,,,,,0,,,73,0
34890,note_on,0,0,1,,,,,,,,,0,,,74,114
34920,note_on,30,0,1,,,,,,,,,0,,,74,0
34920,note_on,0,0,1,,,,,,,,,0,,,75,114
34920,note_on,54,0,3,,,,,,,,,2,,,55,114
34920,note_on,0,0,3,,,,,,,,,2,,,67,114
34926,note_on,0,0,3,,,,,,,,,2,,,55,0
34926,note_on,6,0,3,,,,,,,,,2,,,67,0
34950,note_on,30,0,1,,,,,,,,,0,,,75,0
34950,note_on,0,0,1,,,,,,,,,0,,,76,114
34980,control_change,54,0,3,,,,,,,,,2,64,0,,
34980,note_on,0,0,1,,,,,,,,,0,,,75,114
34980,note_on,30,0,1,,,,,,,,,0,,,76,0
34980,note_on,0,0,3,,,,,,,,,2,,,69,114
34980,note_on,0,0,3,,,,,,,,,2,,,57,114
34986,note_on,0,0,3,,,,,,,,,2,,,57,0
34986,note_on,6,0,3,,,,,,,,,2,,,69,0
35010,note_on,0,0,1,,,,,,,,,0,,,76,114
35010,control_change,0,0,1,,,,,,,,,0,64,0,,
35010,note_on,30,0,1,,,,,,,,,0,,,75,0
35040,control_change,0,0,1,,,,,,,,,0,64,127,,
35040,note_on,30,0,1,,,,,,,,,0,,,76,0
35040,note_on,0,0,1,,,,,,,,,0,,,74,114
35040,control_change,54,0,3,,,,,,,,,2,64,127,,
35040,note_on,0,0,3,,,,,,,,,2,,,53,114
35040,note_on,0,0,3,,,,,,,,,2,,,65,114
35046,note_on,6,0,3,,,,,,,,,2,,,65,0
35046,note_on,0,0,3,,,,,,,,,2,,,53,0
35070,note_on,0,0,1,,,,,,,,,0,,,76,114
35070,note_on,30,0,1,,,,,,,,,0,,,74,0
35100,note_on,0,0,1,,,,,,,,,0,,,77,114
35100,note_on,30,0,1,,,,,,,,,0,,,76,0
35100,note_on,0,0,3,,,,,,,,,2,,,62,114
35100,note_on,54,0,3,,,,,,,,,2,,,50,114
35106,note_on,6,0,3,,,,,,,,,2,,,62,0
35106,note_on,0,0,3,,,,,,,,,2,,,50,0
35130,note_on,0,0,1,,,,,,,,,0,,,79,114
35130,note_on,30,0,1,,,,,,,,,0,,,77,0
35160,note_on,54,0,3,,,,,,,,,2,,,52,114
35160,note_on,0,0,3,,,,,,,,,2,,,64,114
35160,note_on,0,0,1,,,,,,,,,0,,,80,114
35160,note_on,30,0,1,,,,,,,,,0,,,79,0
35166,note_on,0,0,3,,,,,,,,,2,,,52,0
35166,note_on,6,0,3,,,,,,,,,2,,,64,0
35190,note_on,30,0,1,,,,,,,,,0,,,80,0
35190,note_on,0,0,1,,,,,,,,,0,,,81,114
35220,note_on,0,0,3,,,,,,,,,2,,,53,114
35220,note_on,30,0,1,,,,,,,,,0,,,81,0
35220,note_on,0,0,1,,,,,,,,,0,,,80,114
35220,note_on,0,0,3,,,,,,,,,2,,,65,114
35220,control_change,54,0,3,,,,,,,,,2,64,0,,
35226,note_on,6,0,3,,,,,,,,,2,,,65,0
35226,note_on,0,0,3,,,,,,,,,2,,,53,0
35250,note_on,30,0,1,,,,,,,,,0,,,80,0
35250,control_change,0,0,1,,,,,,,,,0,64,0,,
35250,note_on,0,0,1,,,,,,,,,0,,,81,114
35280,note_on,0,0,3,,,,,,,,,2,,,55,114
35280,control_change,54,0,3,,,,,,,,,2,64,127,,
35280,note_on,30,0,1,,,,,,,,,0,,,81,0
35280,control_change,0,0,1,,,,,,,,,0,64,127,,
35280,note_on,0,0,1,,,,,,,,,0,,,82,114
35280,note_on,0,0,3,,,,,,,,,2,,,67,114
35286,note_on,0,0,3,,,,,,,,,2,,,55,0
35286,note_on,6,0,3,,,,,,,,,2,,,67,0
35310,note_on,30,0,1,,,,,,,,,0,,,82,0
35310,note_on,0,0,1,,,,,,,,,0,,,81,114
35340,note_on,30,0,1,,,,,,,,,0,,,81,0
35340,note_on,0,0,1,,,,,,,,,0,,,79,114
35340,note_on,0,0,3,,,,,,,,,2,,,64,114
35340,note_on,54,0,3,,,,,,,,,2,,,52,114
35346,note_on,0,0,3,,,,,,,,,2,,,52,0
35346,note_on,6,0,3,,,,,,,,,2,,,64,0
35370,note_on,30,0,1,,,,,,,,,0,,,79,0
35370,note_on,0,0,1,,,,,,,,,0,,,77,114
35400,note_on,0,0,3,,,,,,,,,2,,,65,114
35400,note_on,54,0,3,,,,,,,,,2,,,53,114
35400,note_on,0,0,1,,,,,,,,,0,,,81,114
35400,note_on,30,0,1,,,,,,,,,0,,,77,0
35406,note_on,6,0,3,,,,,,,,,2,,,65,0
35406,note_on,0,0,3,,,,,,,,,2,,,53,0
35430,note_on,30,0,1,,,,,,,,,0,,,81,0
35430,note_on,0,0,1,,,,,,,,,0,,,79,114
35460,control_change,54,0,3,,,,,,,,,2,64,0,,
35460,note_on,0,0,3,,,,,,,,,2,,,57,114
35460,note_on,0,0,3,,,,,,,,,2,,,69,114
35460,note_on,30,0,1,,,,,,,,,0,,,79,0
35460,note_on,0,0,1,,,,,,,,,0,,,77,114
35466,note_on,6,0,3,,,,,,,,,2,,,69,0
35466,note_on,0,0,3,,,,,,,,,2,,,57,0
35490,note_on,30,0,1,,,,,,,,,0,,,77,0
35490,control_change,0,0,1,,,,,,,,,0,64,0,,
35490,note_on,0,0,1,,,,,,,,,0,,,76,114
35520,control_change,54,0,3,,,,,,,,,2,64,127,,
35520,note_on,0,0,3,,,,,,,,,2,,,50,114
35520,note_on,0,0,3,,,,,,,,,2,,,62,114
35520,note_on,0,0,1,,,,,,,,,0,,,74,114
35520,note_on,30,0,1,,,,,,,,,0,,,76,0
35520,control_change,0,0,1,,,,,,,,,0,64,127,,
35526,note_on,0,0,3,,,,,,,,,2,,,50,0
35526,note_on,6,0,3,,,,,,,,,2,,,62,0
35550,note_on,0,0,1,,,,,,,,,0,,,76,114
35550,note_on,30,0,1,,,,,,,,,0,,,74,0
35580,note_on,54,0,3,,,,,,,,,2,,,57,114
35580,note_on,0,0,1,,,,,,,,,0,,,77,114
35580,note_on,30,0,1,,,,,,,,,0,,,76,0
35586,note_on,6,0,3,,,,,,,,,2,,,57,0
35610,note_on,30,0,1,,,,,,,,,0,,,77,0
35610,note_on,0,0,1,,,,,,,,,0,,,79,114
35640,note_on,30,0,1,,,,,,,,,0,,,79,0
35640,note_on,0,0,1,,,,,,,,,0,,,81,114
35640,note_on,54,0,3,,,,,,,,,2,,,53,114
35646,note_on,6,0,3,,,,,,,,,2,,,53,0
35670,note_on,0,0,1,,,,,,,,,0,,,83,114
35670,note_on,30,0,1,,,,,,,,,0,,,81,0
35700,control_change,54,0,3,,,,,,,,,2,64,0,,
35700,note_on,0,0,3,,,,,,,,,2,,,50,114
35700,note_on,0,0,1,,,,,,,,,0,,,85,114
35700,note_on,30,0,1,,,,,,,,,0,,,83,0
35706,note_on,6,0,3,,,,,,,,,2,,,50,0
35730,note_on,0,0,1,,,,,,,,,0,,,86,114
35730,control_change,0,0,1,,,,,,,,,0,64,0,,
35730,note_on,30,0,1,,,,,,,,,0,,,85,0
35760,note_on,30,0,1,,,,,,,,,0,,,86,0
35760,control_change,0,0,1,,,,,,,,,0,64,127,,
35760,note_on,0,0,1,,,,,,,,,0,,,75,114
35760,note_on,0,0,1,,,,,,,,,0,,,87,114
35760,note_on,0,0,3,,,,,,,,,2,,,53,114
35760,control_change,54,0,3,,,,,,,,,2,64,127,,
35766,note_on,0,0,1,,,,,,,,,0,,,75,0
35766,note_on,6,0,1,,,,,,,,,0,,,87,0
35790,note_on,0,0,3,,,,,,,,,2,,,55,114
35790,note_on,30,0,3,,,,,,,,,2,,,53,0
35820,note_on,0,0,1,,,,,,,,,0,,,86,114
35820,note_on,54,0,1,,,,,,,,,0,,,74,114
35820,note_on,30,0,3,,,,,,,,,2,,,55,0
35820,note_on,0,0,3,,,,,,,,,2,,,57,114
35826,note_on,0,0,1,,,,,,,,,0,,,74,0
35826,note_on,6,0,1,,,,,,,,,0,,,86,0
35850,note_on,30,0,3,,,,,,,,,2,,,57,0
35850,note_on,0,0,3,,,,,,,,,2,,,58,114
35880,note_on,0,0,1,,,,,,,,,0,,,87,114
35880,note_on,30,0,3,,,,,,,,,2,,,58,0
35880,note_on,0,0,3,,,,,,,,,2,,,59,114
35880,note_on,54,0,1,,,,,,,,,0,,,75,114
35886,note_on,0,0,1,,,,,,,,,0,,,75,0
35886,note_on,6,0,1,,,,,,,,,0,,,87,0
35910,note_on,30,0,3,,,,,,,,,2,,,59,0
35910,note_on,0,0,3,,,,,,,,,2,,,60,114
35940,note_on,0,0,3,,,,,,,,,2,,,59,114
35940,note_on,0,0,1,,,,,,,,,0,,,89,114
35940,note_on,0,0,1,,,,,,,,,0,,,77,114
35940,control_change,54,0,1,,,,,,,,,0,64,0,,
35940,note_on,30,0,3,,,,,,,,,2,,,60,0
35946,note_on,0,0,1,,,,,,,,,0,,,77,0
35946,note_on,6,0,1,,,,,,,,,0,,,89,0
35970,note_on,0,0,3,,,,,,,,,2,,,60,114
35970,note_on,30,0,3,,,,,,,,,2,,,59,0
35970,control_change,0,0,3,,,,,,,,,2,64,0,,
36000,note_on,30,0,3,,,,,,,,,2,,,60,0
36000,note_on,0,0,1,,,,,,,,,0,,,86,114
36000,control_change,54,0,1,,,,,,,,,0,64,127,,
36000,control_change,0,0,3,,,,,,,,,2,64,127,,
36000,note_on,0,0,3,,,,,,,,,2,,,58,114
36000,note_on,0,0,1,,,,,,,,,0,,,74,114
36006,note_on,0,0,1,,,,,,,,,0,,,74,0
36006,note_on,6,0,1,,,,,,,,,0,,,86,0
36030,note_on,0,0,3,,,,,,,,,2,,,60,114
36030,note_on,30,0,3,,,,,,,,,2,,,58,0
36060,note_on,0,0,1,,,,,,,,,0,,,82,114
36060,note_on,54,0,1,,,,,,,,,0,,,70,114
36060,note_on,30,0,3,,,,,,,,,2,,,60,0
36060,note_on,0,0,3,,,,,,,,,2,,,62,114
36066,note_on,0,0,1,,,,,,,,,0,,,70,0
36066,note_on,6,0,1,,,,,,,,,0,,,82,0
36090,note_on,30,0,3,,,,,,,,,2,,,62,0
36090,note_on,0,0,3,,,,,,,,,2,,,63,114
36120,note_on,54,0,1,,,,,,,,,0,,,72,114
36120,note_on,0,0,1,,,,,,,,,0,,,84,114
36120,note_on,0,0,3,,,,,,,,,2,,,64,114
36120,note_on,30,0,3,,,,,,,,,2,,,63,0
36126,note_on,0,0,1,,,,,,,,,0,,,72,0
36126,note_on,6,0,1,,,,,,,,,0,,,84,0
36150,note_on,0,0,3,,,,,,,,,2,,,65,114
36150,note_on,30,0,3,,,,,,,,,2,,,64,0
36180,control_change,54,0,1,,,,,,,,,0,64,0,,
36180,note_on,30,0,3,,,,,,,,,2,,,65,0
36180,note_on,0,0,1,,,,,,,,,0,,,86,114
36180,note_on,0,0,1,,,,,,,,,0,,,74,114
36180,note_on,0,0,3,,,,,,,,,2,,,64,114
36186,note_on,0,0,1,,,,,,,,,0,,,74,0
36186,note_on,6,0,1,,,,,,,,,0,,,86,0
36210,note_on,30,0,3,,,,,,,,,2,,,64,0
36210,control_change,0,0,3,,,,,,,,,2,64,0,,
36210,note_on,0,0,3,,,,,,,,,2,,,65,114
36240,note_on,0,0,1,,,,,,,,,0,,,75,114
36240,note_on,0,0,1,,,,,,,,,0,,,87,114
36240,note_on,30,0,3,,,,,,,,,2,,,65,0
36240,control_change,0,0,3,,,,,,,,,2,64,127,,
36240,note_on,0,0,3,,,,,,,,,2,,,67,114
36240,control_change,54,0,1,,,,,,,,,0,64,127,,
36246,note_on,6,0,1,,,,,,,,,0,,,87,0
36246,note_on,0,0,1,,,,,,,,,0,,,75,0
36270,note_on,0,0,3,,,,,,,,,2,,,65,114
36270,note_on,30,0,3,,,,,,,,,2,,,67,0
36300,note_on,0,0,3,,,,,,,,,2,,,63,114
36300,note_on,0,0,1,,,,,,,,,0,,,84,114
36300,note_on,54,0,1,,,,,,,,,0,,,72,114
36300,note_on,30,0,3,,,,,,,,,2,,,65,0
36306,note_on,0,0,1,,,,,,,,,0,,,72,0
36306,note_on,6,0,1,,,,,,,,,0,,,84,0
36330,note_on,30,0,3,,,,,,,,,2,,,63,0
36330,note_on,0,0,3,,,,,,,,,2,,,62,114
36360,note_on,30,0,3,,,,,,,,,2,,,62,0
36360,note_on,0,0,3,,,,,,,,,2,,,65,114
36360,note_on,54,0,1,,,,,,,,,0,,,74,114
36360,note_on,0,0,1,,,,,,,,,0,,,86,114
36366,note_on,6,0,1,,,,,,,,,0,,,86,0
36366,note_on,0,0,1,,,,,,,,,0,,,74,0
36390,note_on,30,0,3,,,,,,,,,2,,,65,0
36390,note_on,0,0,3,,,,,,,,,2,,,63,114
36420,note_on,30,0,3,,,,,,,,,2,,,63,0
36420,control_change,54,0,1,,,,,,,,,0,64,0,,
36420,note_on,0,0,3,,,,,,,,,2,,,62,114
36420,note_on,0,0,1,,,,,,,,,0,,,77,114
36420,note_on,0,0,1,,,,,,,,,0,,,89,114
36426,note_on,6,0,1,,,,,,,,,0,,,89,0
36426,note_on,0,0,1,,,,,,,,,0,,,77,0
36450,note_on,30,0,3,,,,,,,,,2,,,62,0
36450,control_change,0,0,3,,,,,,,,,2,64,0,,
36450,note_on,0,0,3,,,,,,,,,2,,,63,114
36480,control_change,54,0,1,,,,,,,,,0,64,127,,
36480,note_on,30,0,3,,,,,,,,,2,,,63,0
36480,control_change,0,0,3,,,,,,,,,2,64,127,,
36480,note_on,0,0,3,,,,,,,,,2,,,65,114
36480,note_on,0,0,1,,,,,,,,,0,,,74,114
36480,note_on,0,0,1,,,,,,,,,0,,,86,114
36510,note_on,30,0,3,,,,,,,,,2,,,65,0
36510,note_on,0,0,3,,,,,,,,,2,,,63,114
36540,note_on,0,0,3,,,,,,,,,2,,,62,114
36540,note_on,0,0,1,,,,,,,,,0,,,74,0
36540,note_on,0,0,1,,,,,,,,,0,,,70,114
36540,note_on,0,0,1,,,,,,,,,0,,,82,114
36540,note_on,30,0,3,,,,,,,,,2,,,63,0
36540,note_on,60,0,1,,,,,,,,,0,,,86,0
36570,note_on,0,0,3,,,,,,,,,2,,,60,114
36570,note_on,30,0,3,,,,,,,,,2,,,62,0
36600,control_change,0,0,1,,,,,,,,,0,64,0,,
36600,note_on,60,0,1,,,,,,,,,0,,,82,0
36600,note_on,0,0,1,,,,,,,,,0,,,70,0
36600,note_on,30,0,3,,,,,,,,,2,,,60,0
36600,control_change,0,0,3,,,,,,,,,2,64,0,,
36600,note_on,0,0,1,,,,,,,,,0,,,72,114
36600,note_on,0,0,3,,,,,,,,,2,,,63,114
36600,note_on,0,0,1,,,,,,,,,0,,,84,114
36630,note_on,30,0,3,,,,,,,,,2,,,63,0
36630,note_on,0,0,3,,,,,,,,,2,,,62,114
36660,note_on,30,0,3,,,,,,,,,2,,,62,0
36660,note_on,0,0,1,,,,,,,,,0,,,87,114
36660,note_on,0,0,1,,,,,,,,,0,,,75,114
36660,note_on,0,0,1,,,,,,,,,0,,,72,0
36660,note_on,60,0,1,,,,,,,,,0,,,84,0
36660,note_on,0,0,3,,,,,,,,,2,,,60,114
36690,note_on,30,0,3,,,,,,,,,2,,,60,0
36690,note_on,0,0,3,,,,,,,,,2,,,62,114
36720,control_change,0,0,1,,,,,,,,,0,64,127,,
36720,note_on,0,0,1,,,,,,,,,0,,,75,0
36720,note_on,0,0,1,,,,,,,,,0,,,72,114
36720,note_on,0,0,1,,,,,,,,,0,,,84,114
36720,note_on,0,0,3,,,,,,,,,2,,,63,114
36720,control_change,0,0,3,,,,,,,,,2,64,127,,
36720,note_on,30,0,3,,,,,,,,,2,,,62,0
36720,note_on,60,0,1,,,,,,,,,0,,,87,0
36750,note_on,30,0,3,,,,,,,,,2,,,63,0
36750,note_on,0,0,3,,,,,,,,,2,,,62,114
36780,note_on,0,0,1,,,,,,,,,0,,,81,114
36780,note_on,0,0,1,,,,,,,,,0,,,72,0
36780,note_on,0,0,1,,,,,,,,,0,,,69,114
36780,note_on,30,0,3,,,,,,,,,2,,,62,0
36780,note_on,0,0,3,,,,,,,,,2,,,60,114
36780,note_on,60,0,1,,,,,,,,,0,,,84,0
36810,note_on,0,0,3,,,,,,,,,2,,,58,114
36810,note_on,30,0,3,,,,,,,,,2,,,60,0
36840,note_on,30,0,3,,,,,,,,,2,,,58,0
36840,note_on,0,0,1,,,,,,,,,0,,,69,0
36840,note_on,60,0,1,,,,,,,,,0,,,81,0
36840,note_on,0,0,3,,,,,,,,,2,,,62,114
36840,control_change,0,0,3,,,,,,,,,2,64,0,,
36840,note_on,0,0,1,,,,,,,,,0,,,70,114
36840,control_change,0,0,1,,,,,,,,,0,64,0,,
36840,note_on,0,0,1,,,,,,,,,0,,,82,114
36870,note_on,30,0,3,,,,,,,,,2,,,62,0
36870,note_on,0,0,3,,,,,,,,,2,,,60,114
36900,note_on,30,0,3,,,,,,,,,2,,,60,0
36900,note_on,0,0,3,,,,,,,,,2,,,58,114
36900,note_on,60,0,1,,,,,,,,,0,,,82,0
36900,note_on,0,0,1,,,,,,,,,0,,,70,0
36900,note_on,0,0,1,,,,,,,,,0,,,74,114
36900,note_on,0,0,1,,,,,,,,,0,,,86,114
36930,note_on,0,0,3,,,,,,,,,2,,,60,114
36930,note_on,30,0,3,,,,,,,,,2,,,58,0
36960,control_change,0,0,1,,,,,,,,,0,64,127,,
36960,note_on,60,0,1,,,,,,,,,0,,,86,0
36960,note_on,0,0,1,,,,,,,,,0,,,74,0
36960,note_on,0,0,3,,,,,,,,,2,,,58,114
36960,note_on,30,0,3,,,,,,,,,2,,,60,0
36960,control_change,0,0,3,,,,,,,,,2,64,127,,
36960,note_on,0,0,1,,,,,,,,,0,,,86,114
36960,note_on,0,0,3,,,,,,,,,2,,,46,114
36966,note_on,0,0,3,,,,,,,,,2,,,46,0
36966,note_on,6,0,3,,,,,,,,,2,,,58,0
36990,note_on,30,0,1,,,,,,,,,0,,,86,0
36990,note_on,0,0,1,,,,,,,,,0,,,84,114
37020,note_on,0,0,1,,,,,,,,,0,,,82,114
37020,note_on,30,0,1,,,,,,,,,0,,,84,0
37020,note_on,0,0,3,,,,,,,,,2,,,55,114
37020,note_on,54,0,3,,,,,,,,,2,,,43,114
37026,note_on,0,0,3,,,,,,,,,2,,,43,0
37026,note_on,6,0,3,,,,,,,,,2,,,55,0
37050,note_on,0,0,1,,,,,,,,,0,,,81,114
37050,note_on,30,0,1,,,,,,,,,0,,,82,0
37080,control_change,54,0,3,,,,,,,,,2,64,0,,
37080,note_on,0,0,3,,,,,,,,,2,,,45,114
37080,note_on,0,0,3,,,,,,,,,2,,,57,114
37080,note_on,0,0,1,,,,,,,,,0,,,84,114
37080,control_change,0,0,1,,,,,,,,,0,64,0,,
37080,note_on,30,0,1,,,,,,,,,0,,,81,0
37086,note_on,6,0,3,,,,,,,,,2,,,57,0
37086,note_on,0,0,3,,,,,,,,,2,,,45,0
37110,note_on,0,0,1,,,,,,,,,0,,,82,114
37110,note_on,30,0,1,,,,,,,,,0,,,84,0
37140,note_on,0,0,3,,,,,,,,,2,,,60,114
37140,note_on,54,0,3,,,,,,,,,2,,,48,114
37140,note_on,0,0,1,,,,,,,,,0,,,81,114
37140,note_on,30,0,1,,,,,,,,,0,,,82,0
37146,note_on,6,0,3,,,,,,,,,2,,,60,0
37146,note_on,0,0,3,,,,,,,,,2,,,48,0
37170,note_on,30,0,1,,,,,,,,,0,,,81,0
37170,note_on,0,0,1,,,,,,,,,0,,,82,114
37200,control_change,54,0,3,,,,,,,,,2,64,127,,
37200,note_on,0,0,3,,,,,,,,,2,,,45,114
37200,note_on,0,0,3,,,,,,,,,2,,,57,114
37200,note_on,30,0,1,,,,,,,,,0,,,82,0
37200,control_change,0,0,1,,,,,,,,,0,64,127,,
37200,note_on,0,0,1,,,,,,,,,0,,,84,114
37206,note_on,0,0,3,,,,,,,,,2,,,45,0
37206,note_on,6,0,3,,,,,,,,,2,,,57,0
37230,note_on,0,0,1,,,,,,,,,0,,,82,114
37230,note_on,30,0,1,,,,,,,,,0,,,84,0
37260,note_on,54,0,3,,,,,,,,,2,,,42,114
37260,note_on,0,0,3,,,,,,,,,2,,,54,114
37260,note_on,30,0,1,,,,,,,,,0,,,82,0
37260,note_on,0,0,1,,,,,,,,,0,,,81,114
37266,note_on,0,0,3,,,,,,,,,2,,,42,0
37266,note_on,6,0,3,,,,,,,,,2,,,54,0
37290,note_on,0,0,1,,,,,,,,,0,,,79,114
37290,note_on,30,0,1,,,,,,,,,0,,,81,0
37320,control_change,0,0,1,,,,,,,,,0,64,0,,
37320,control_change,54,0,3,,,,,,,,,2,64,0,,
37320,note_on,0,0,3,,,,,,,,,2,,,43,114
37320,note_on,0,0,3,,,,,,,,,2,,,55,114
37320,note_on,30,0,1,,,,,,,,,0,,,79,0
37320,note_on,0,0,1,,,,,,,,,0,,,82,114
37326,note_on,6,0,3,,,,,,,,,2,,,55,0
37326,note_on,0,0,3,,,,,,,,,2,,,43,0
37350,note_on,30,0,1,,,,,,,,,0,,,82,0
37350,note_on,0,0,1,,,,,,,,,0,,,81,114
37380,note_on,0,0,3,,,,,,,,,2,,,57,114
37380,note_on,54,0,3,,,,,,,,,2,,,45,114
37380,note_on,0,0,1,,,,,,,,,0,,,79,114
37380,note_on,30,0,1,,,,,,,,,0,,,81,0
37386,note_on,0,0,3,,,,,,,,,2,,,45,0
37386,note_on,6,0,3,,,,,,,,,2,,,57,0
37410,note_on,0,0,1,,,,,,,,,0,,,81,114
37410,note_on,30,0,1,,,,,,,,,0,,,79,0
37440,note_on,0,0,1,,,,,,,,,0,,,82,114
37440,note_on,30,0,1,,,,,,,,,0,,,81,0
37440,note_on,0,0,3,,,,,,,,,2,,,43,114
37440,control_change,54,0,3,,,,,,,,,2,64,127,,
37440,control_change,0,0,1,,,,,,,,,0,64,127,,
37440,note_on,0,0,3,,,,,,,,,2,,,55,114
37470,note_on,0,0,1,,,,,,,,,0,,,81,114
37470,note_on,30,0,1,,,,,,,,,0,,,82,0
37500,note_on,0,0,3,,,,,,,,,2,,,43,0
37500,note_on,0,0,3,,,,,,,,,2,,,46,114
37500,note_on,0,0,3,,,,,,,,,2,,,58,114
37500,note_on,0,0,1,,,,,,,,,0,,,79,114
37500,note_on,30,0,1,,,,,,,,,0,,,81,0
37500,note_on,60,0,3,,,,,,,,,2,,,55,0
37530,note_on,0,0,1,,,,,,,,,0,,,77,114
37530,note_on,30,0,1,,,,,,,,,0,,,79,0
37560,note_on,0,0,3,,,,,,,,,2,,,41,114
37560,note_on,0,0,3,,,,,,,,,2,,,53,114
37560,note_on,0,0,3,,,,,,,,,2,,,46,0
37560,note_on,60,0,3,,,,,,,,,2,,,58,0
37560,note_on,30,0,1,,,,,,,,,0,,,77,0
37560,note_on,0,0,1,,,,,,,,,0,,,81,114
37560,control_change,0,0,1,,,,,,,,,0,64,0,,
37560,control_change,0,0,3,,,,,,,,,2,64,0,,
37590,note_on,30,0,1,,,,,,,,,0,,,81,0
37590,note_on,0,0,1,,,,,,,,,0,,,79,114
37620,note_on,0,0,3,,,,,,,,,2,,,45,114
37620,note_on,0,0,3,,,,,,,,,2,,,57,114
37620,note_on,0,0,3,,,,,,,,,2,,,41,0
37620,note_on,30,0,1,,,,,,,,,0,,,79,0
37620,note_on,0,0,1,,,,,,,,,0,,,77,114
37620,note_on,60,0,3,,,,,,,,,2,,,53,0
37650,note_on,0,0,1,,,,,,,,,0,,,76,114
37650,note_on,30,0,1,,,,,,,,,0,,,77,0
37680,note_on,0,0,1,,,,,,,,,0,,,79,114
37680,note_on,0,0,3,,,,,,,,,2,,,52,114
37680,control_change,0,0,3,,,,,,,,,2,64,127,,
37680,note_on,0,0,3,,,,,,,,,2,,,45,0
37680,note_on,60,0,3,,,,,,,,,2,,,57,0
37680,note_on,0,0,3,,,,,,,,,2,,,40,114
37680,note_on,30,0,1,,,,,,,,,0,,,76,0
37680,control_change,0,0,1,,,,,,,,,0,64,127,,
37710,note_on,0,0,1,,,,,,,,,0,,,77,114
37710,note_on,30,0,1,,,,,,,,,0,,,79,0
37740,note_on,0,0,3,,,,,,,,,2,,,43,114
37740,note_on,0,0,3,,,,,,,,,2,,,55,114
37740,note_on,0,0,1,,,,,,,,,0,,,76,114
37740,note_on,0,0,3,,,,,,,,,2,,,40,0
37740,note_on,60,0,3,,,,,,,,,2,,,52,0
37740,note_on,30,0,1,,,,,,,,,0,,,77,0
37770,note_on,30,0,1,,,,,,,,,0,,,76,0
37770,note_on,0,0,1,,,,,,,,,0,,,74,114
37800,note_on,60,0,3,,,,,,,,,2,,,55,0
37800,note_on,0,0,3,,,,,,,,,2,,,43,0
37800,control_change,0,0,3,,,,,,,,,2,64,0,,
37800,note_on,0,0,3,,,,,,,,,2,,,38,114
37800,note_on,0,0,3,,,,,,,,,2,,,50,114
37800,control_change,0,0,1,,,,,,,,,0,64,0,,
37800,note_on,30,0,1,,,,,,,,,0,,,74,0
37800,note_on,0,0,1,,,,,,,,,0,,,77,114
37830,note_on,30,0,1,,,,,,,,,0,,,77,0
37830,note_on,0,0,1,,,,,,,,,0,,,76,114
37860,note_on,0,0,3,,,,,,,,,2,,,41,114
37860,note_on,60,0,3,,,,,,,,,2,,,50,0
37860,note_on,0,0,3,,,,,,,,,2,,,38,0
37860,note_on,0,0,3,,,,,,,,,2,,,53,114
37860,note_on,30,0,1,,,,,,,,,0,,,76,0
37860,note_on,0,0,1,,,,,,,,,0,,,74,114
37890,note_on,30,0,1,,,,,,,,,0,,,74,0
37890,note_on,0,0,1,,,,,,,,,0,,,76,114
37920,note_on,0,0,1,,,,,,,,,0,,,77,114
37920,control_change,0,0,1,,,,,,,,,0,64,127,,
37920,note_on,0,0,3,,,,,,,,,2,,,41,0
37920,control_change,0,0,3,,,,,,,,,2,64,127,,
37920,note_on,60,0,3,,,,,,,,,2,,,53,0
37920,note_on,0,0,3,,,,,,,,,2,,,50,114
37920,note_on,0,0,3,,,,,,,,,2,,,38,114
37920,note_on,30,0,1,,,,,,,,,0,,,76,0
37950,note_on,0,0,1,,,,,,,,,0,,,76,114
37950,note_on,30,0,1,,,,,,,,,0,,,77,0
37980,note_on,60,0,3,,,,,,,,,2,,,50,0
37980,note_on,0,0,3,,,,,,,,,2,,,38,0
37980,note_on,0,0,3,,,,,,,,,2,,,41,114
37980,note_on,0,0,1,,,,,,,,,0,,,74,114
37980,note_on,30,0,1,,,,,,,,,0,,,76,0
37980,note_on,0,0,3,,,,,,,,,2,,,53,114
38010,note_on,0,0,1,,,,,,,,,0,,,76,114
38010,note_on,30,0,1,,,,,,,,,0,,,74,0
38040,control_change,0,0,1,,,,,,,,,0,64,0,,
38040,note_on,60,0,3,,,,,,,,,2,,,53,0
38040,note_on,0,0,1,,,,,,,,,0,,,74,114
38040,note_on,30,0,1,,,,,,,,,0,,,76,0
38040,note_on,0,0,3,,,,,,,,,2,,,41,0
38040,note_on,0,0,3,,,,,,,,,2,,,35,114
38040,note_on,0,0,3,,,,,,,,,2,,,47,114
38040,control_change,0,0,3,,,,,,,,,2,64,0,,
38070,note_on,30,0,1,,,,,,,,,0,,,74,0
38070,note_on,0,0,1,,,,,,,,,0,,,72,114
38100,note_on,60,0,3,,,,,,,,,2,,,47,0
38100,note_on,0,0,3,,,,,,,,,2,,,35,0
38100,note_on,0,0,3,,,,,,,,,2,,,38,114
38100,note_on,0,0,3,,,,,,,,,2,,,50,114
38100,note_on,0,0,1,,,,,,,,,0,,,71,114
38100,note_on,30,0,1,,,,,,,,,0,,,72,0
38130,note_on,0,0,1,,,,,,,,,0,,,72,114
38130,note_on,30,0,1,,,,,,,,,0,,,71,0
38160,note_on,0,0,1,,,,,,,,,0,,,71,114
38160,control_change,0,0,1,,,,,,,,,0,64,127,,
38160,note_on,30,0,1,,,,,,,,,0,,,72,0
38160,note_on,0,0,3,,,,,,,,,2,,,32,114
38160,control_change,0,0,3,,,,,,,,,2,64,127,,
38160,note_on,0,0,3,,,,,,,,,2,,,38,0
38160,note_on,60,0,3,,,,,,,,,2,,,50,0
38160,note_on,0,0,3,,,,,,,,,2,,,44,114
38190,note_on,30,0,1,,,,,,,,,0,,,71,0
38190,note_on,0,0,1,,,,,,,,,0,,,69,114
38220,note_on,30,0,1,,,,,,,,,0,,,69,0
38220,note_on,0,0,3,,,,,,,,,2,,,35,114
38220,note_on,0,0,3,,,,,,,,,2,,,47,114
38220,note_on,0,0,3,,,,,,,,,2,,,32,0
38220,note_on,0,0,1,,,,,,,,,0,,,68,114
38220,note_on,60,0,3,,,,,,,,,2,,,44,0
38250,note_on,30,0,1,,,,,,,,,0,,,68,0
38250,note_on,0,0,1,,,,,,,,,0,,,69,114
38280,note_on,30,0,1,,,,,,,,,0,,,69,0
38280,control_change,0,0,1,,,,,,,,,0,64,0,,
38280,note_on,0,0,1,,,,,,,,,0,,,68,114
38280,control_change,0,0,3,,,,,,,,,2,64,0,,
38280,note_on,0,0,3,,,,,,,,,2,,,35,0
38280,note_on,60,0,3,,,,,,,,,2,,,47,0
38280,note_on,0,0,3,,,,,,,,,2,,,40,114
38310,note_on,0,0,1,,,,,,,,,0,,,66,114
38310,note_on,30,0,1,,,,,,,,,0,,,68,0
38340,note_on,0,0,1,,,,,,,,,0,,,64,114
38340,note_on,30,0,1,,,,,,,,,0,,,66,0
38340,note_on,60,0,3,,,,,,,,,2,,,40,0
38340,note_on,0,0,3,,,,,,,,,2,,,44,114
38346,note_on,6,0,3,,,,,,,,,2,,,44,0
38370,note_on,30,0,1,,,,,,,,,0,,,64,0
38370,note_on,0,0,1,,,,,,,,,0,,,66,114
38400,note_on,0,0,3,,,,,,,,,2,,,40,114
38400,control_change,54,0,3,,,,,,,,,2,64,127,,
38400,note_on,0,0,1,,,,,,,,,0,,,68,114
38400,control_change,0,0,1,,,,,,,,,0,64,127,,
38400,note_on,30,0,1,,,,,,,,,0,,,66,0
38406,note_on,6,0,3,,,,,,,,,2,,,40,0
38430,note_on,0,0,1,,,,,,,,,0,,,66,114
38430,note_on,30,0,1,,,,,,,,,0,,,68,0
38460,note_on,0,0,1,,,,,,,,,0,,,64,114
38460,note_on,30,0,1,,,,,,,,,0,,,66,0
38460,note_on,54,0,3,,,,,,,,,2,,,44,114
38466,note_on,6,0,3,,,,,,,,,2,,,44,0
38490,note_on,0,0,1,,,,,,,,,0,,,66,114
38490,note_on,30,0,1,,,,,,,,,0,,,64,0
38520,note_on,30,0,1,,,,,,,,,0,,,66,0
38520,note_on,54,0,3,,,,,,,,,2,,,40,114
38520,note_on,0,0,1,,,,,,,,,0,,,68,114
38526,note_on,6,0,3,,,,,,,,,2,,,40,0
38550,note_on,0,0,1,,,,,,,,,0,,,66,114
38550,note_on,30,0,1,,,,,,,,,0,,,68,0
38580,note_on,54,0,3,,,,,,,,,2,,,44,114
38580,note_on,30,0,1,,,,,,,,,0,,,66,0
38580,note_on,0,0,1,,,,,,,,,0,,,64,114
38586,note_on,6,0,3,,,,,,,,,2,,,44,0
38610,note_on,30,0,1,,,,,,,,,0,,,64,0
38610,note_on,0,0,1,,,,,,,,,0,,,66,114
38640,note_on,30,0,1,,,,,,,,,0,,,66,0
38640,note_on,54,0,3,,,,,,,,,2,,,40,114
38640,note_on,0,0,1,,,,,,,,,0,,,68,114
38646,note_on,6,0,3,,,,,,,,,2,,,40,0
38670,note_on,0,0,1,,,,,,,,,0,,,66,114
38670,note_on,30,0,1,,,,,,,,,0,,,68,0
38700,note_on,0,0,1,,,,,,,,,0,,,64,114
38700,note_on,30,0,1,,,,,,,,,0,,,66,0
38700,note_on,54,0,3,,,,,,,,,2,,,44,114
38706,note_on,6,0,3,,,,,,,,,2,,,44,0
38730,note_on,0,0,1,,,,,,,,,0,,,66,114
38730,note_on,30,0,1,,,,,,,,,0,,,64,0
38760,note_on,54,0,3,,,,,,,,,2,,,40,114
38760,note_on,0,0,1,,,,,,,,,0,,,68,114
38760,note_on,30,0,1,,,,,,,,,0,,,66,0
38766,note_on,6,0,3,,,,,,,,,2,,,40,0
38790,note_on,0,0,1,,,,,,,,,0,,,66,114
38790,note_on,30,0,1,,,,,,,,,0,,,68,0
38820,note_on,30,0,1,,,,,,,,,0,,,66,0
38820,control_change,54,0,3,,,,,,,,,2,64,0,,
38820,note_on,0,0,3,,,,,,,,,2,,,44,114
38820,note_on,0,0,1,,,,,,,,,0,,,64,114
38826,note_on,6,0,3,,,,,,,,,2,,,44,0
38850,note_on,30,0,1,,,,,,,,,0,,,64,0
38850,note_on,0,0,1,,,,,,,,,0,,,66,114
38850,control_change,0,0,1,,,,,,,,,0,64,0,,
38880,note_on,0,0,1,,,,,,,,,0,,,64,114
38880,note_on,30,0,1,,,,,,,,,0,,,66,0
38880,note_on,0,0,3,,,,,,,,,2,,,40,114
38880,control_change,54,0,3,,,,,,,,,2,64,127,,
38910,note_on,0,0,3,,,,,,,,,2,,,42,114
38910,note_on,30,0,3,,,,,,,,,2,,,40,0
38940,note_on,0,0,3,,,,,,,,,2,,,44,114
38940,note_on,30,0,3,,,,,,,,,2,,,42,0
38970,note_on,0,0,3,,,,,,,,,2,,,45,114
38970,note_on,30,0,3,,,,,,,,,2,,,44,0
39000,note_on,120,0,1,,,,,,,,,0,,,64,0
39000,control_change,0,0,3,,,,,,,,,2,64,0,,
39000,note_on,30,0,3,,,,,,,,,2,,,45,0
39000,note_on,0,0,3,,,,,,,,,2,,,46,114
39030,note_on,30,0,3,,,,,,,,,2,,,46,0
39030,note_on,0,0,3,,,,,,,,,2,,,47,114
39060,note_on,30,0,3,,,,,,,,,2,,,47,0
39060,note_on,0,0,3,,,,,,,,,2,,,46,114
39090,note_on,30,0,3,,,,,,,,,2,,,46,0
39090,note_on,0,0,3,,,,,,,,,2,,,47,114
39120,note_on,120,0,1,,,,,,,,,0,,,62,49
39120,note_on,0,0,3,,,,,,,,,2,,,40,36
39120,note_on,30,0,3,,,,,,,,,2,,,47,0
39120,note_on,0,0,1,,,,,,,,,0,,,64,49
39126,note_on,0,0,1,,,,,,,,,0,,,62,0
39126,note_on,6,0,1,,,,,,,,,0,,,64,0
39150,note_on,30,0,3,,,,,,,,,2,,,40,0
39150,note_on,0,0,3,,,,,,,,,2,,,42,36
39180,note_on,0,0,1,,,,,,,,,0,,,64,49
39180,note_on,0,0,3,,,,,,,,,2,,,44,36
39180,note_on,30,0,3,,,,,,,,,2,,,42,0
39180,note_on,54,0,1,,,,,,,,,0,,,59,49
39186,note_on,0,0,1,,,,,,,,,0,,,59,0
39186,note_on,6,0,1,,,,,,,,,0,,,64,0
39210,note_on,0,0,3,,,,,,,,,2,,,45,36
39210,note_on,30,0,3,,,,,,,,,2,,,44,0
39240,note_on,0,0,3,,,,,,,,,2,,,46,36
39240,note_on,30,0,3,,,,,,,,,2,,,45,0
39240,note_on,54,0,1,,,,,,,,,0,,,56,49
39240,note_on,0,0,1,,,,,,,,,0,,,64,49
39246,note_on,6,0,1,,,,,,,,,0,,,64,0
39246,note_on,0,0,1,,,,,,,,,0,,,56,0
39270,note_on,30,0,3,,,,,,,,,2,,,46,0
39270,note_on,0,0,3,,,,,,,,,2,,,47,36
39300,note_on,54,0,1,,,,,,,,,0,,,52,49
39300,note_on,0,0,1,,,,,,,,,0,,,64,49
39300,note_on,30,0,3,,,,,,,,,2,,,47,0
39300,note_on,0,0,3,,,,,,,,,2,,,46,36
39306,note_on,0,0,1,,,,,,,,,0,,,52,0
39306,note_on,6,0,1,,,,,,,,,0,,,64,0
39330,note_on,30,0,3,,,,,,,,,2,,,46,0
39330,note_on,0,0,3,,,,,,,,,2,,,47,36
39360,note_on,30,0,3,,,,,,,,,2,,,47,0
39360,control_change,0,0,3,,,,,,,,,2,64,127,,
39360,note_on,0,0,3,,,,,,,,,2,,,40,36
39390,note_on,30,0,3,,,,,,,,,2,,,40,0
39390,note_on,0,0,3,,,,,,,,,2,,,42,36
39420,note_on,30,0,3,,,,,,,,,2,,,42,0
39420,note_on,0,0,3,,,,,,,,,2,,,44,36
39450,note_on,30,0,3,,,,,,,,,2,,,44,0
39450,note_on,0,0,3,,,,,,,,,2,,,45,36
39480,note_on,0,0,3,,,,,,,,,2,,,46,36
39480,control_change,0,0,3,,,,,,,,,2,64,0,,
39480,note_on,30,0,3,,,,,,,,,2,,,45,0
39510,note_on,0,0,3,,,,,,,,,2,,,47,36
39510,note_on,30,0,3,,,,,,,,,2,,,46,0
39540,note_on,30,0,3,,,,,,,,,2,,,47,0
39540,note_on,0,0,3,,,,,,,,,2,,,46,36
39570,note_on,30,0,3,,,,,,,,,2,,,46,0
39570,note_on,0,0,3,,,,,,,,,2,,,47,36
39600,note_on,0,0,1,,,,,,,,,0,,,76,36
39600,note_on,294,0,1,,,,,,,,,0,,,74,36
39600,note_on,0,0,3,,,,,,,,,2,,,40,36
39600,note_on,30,0,3,,,,,,,,,2,,,47,0
39606,note_on,0,0,1,,,,,,,,,0,,,74,0
39606,note_on,6,0,1,,,,,,,,,0,,,76,0
39630,note_on,0,0,3,,,,,,,,,2,,,42,36
39630,note_on,30,0,3,,,,,,,,,2,,,40,0
39660,note_on,30,0,3,,,,,,,,,2,,,42,0
39660,note_on,54,0,1,,,,,,,,,0,,,71,36
39660,note_on,0,0,3,,,,,,,,,2,,,44,36
39660,note_on,0,0,1,,,,,,,,,0,,,76,36
39666,note_on,0,0,1,,,,,,,,,0,,,71,0
39666,note_on,6,0,1,,,,,,,,,0,,,76,0
39690,note_on,30,0,3,,,,,,,,,2,,,44,0
39690,note_on,0,0,3,,,,,,,,,2,,,45,36
39720,note_on,54,0,1,,,,,,,,,0,,,68,36
39720,note_on,0,0,1,,,,,,,,,0,,,76,36
39720,note_on,30,0,3,,,,,,,,,2,,,45,0
39720,note_on,0,0,3,,,,,,,,,2,,,46,36
39726,note_on,0,0,1,,,,,,,,,0,,,68,0
39726,note_on,6,0,1,,,,,,,,,0,,,76,0
39750,note_on,30,0,3,,,,,,,,,2,,,46,0
39750,note_on,0,0,3,,,,,,,,,2,,,47,36
39780,note_on,0,0,3,,,,,,,,,2,,,46,36
39780,note_on,30,0,3,,,,,,,,,2,,,47,0
39780,note_on,54,0,1,,,,,,,,,0,,,64,36
39780,note_on,0,0,1,,,,,,,,,0,,,76,36
39786,note_on,6,0,1,,,,,,,,,0,,,76,0
39786,note_on,0,0,1,,,,,,,,,0,,,64,0
39810,note_on,30,0,3,,,,,,,,,2,,,46,0
39810,note_on,0,0,3,,,,,,,,,2,,,47,36
39840,note_on,30,0,3,,,,,,,,,2,,,47,0
39840,note_on,0,0,3,,,,,,,,,2,,,46,36
39870,note_on,30,0,3,,,,,,,,,2,,,46,0
39870,note_on,0,0,3,,,,,,,,,2,,,47,36
39900,note_on,30,0,3,,,,,,,,,2,,,47,0
39900,note_on,0,0,3,,,,,,,,,2,,,49,36
39930,note_on,0,0,3,,,,,,,,,2,,,50,36
39930,note_on,30,0,3,,,,,,,,,2,,,49,0
39960,note_on,0,0,3,,,,,,,,,2,,,51,36
39960,note_on,30,0,3,,,,,,,,,2,,,50,0
39990,note_on,0,0,3,,,,,,,,,2,,,52,36
39990,note_on,30,0,3,,,,,,,,,2,,,51,0
40020,note_on,0,0,3,,,,,,,,,2,,,54,36
40020,note_on,30,0,3,,,,,,,,,2,,,52,0
40050,note_on,30,0,3,,,,,,,,,2,,,54,0
40050,note_on,0,0,3,,,,,,,,,2,,,56,36
40080,control_change,294,0,1,,,,,,,,,0,64,127,,
40080,note_on,0,0,1,,,,,,,,,0,,,69,36
40080,note_on,0,0,3,,,,,,,,,2,,,57,36
40080,note_on,30,0,3,,,,,,,,,2,,,56,0
40080,control_change,0,0,3,,,,,,,,,2,64,127,,
40110,note_on,0,0,3,,,,,,,,,2,,,59,36
40110,note_on,30,0,3,,,,,,,,,2,,,57,0
40110,note_on,30,0,1,,,,,,,,,0,,,69,0
40110,note_on,0,0,1,,,,,,,,,0,,,71,36
40140,note_on,0,0,3,,,,,,,,,2,,,61,36
40140,note_on,30,0,3,,,,,,,,,2,,,59,0
40140,note_on,0,0,1,,,,,,,,,0,,,73,36
40140,note_on,30,0,1,,,,,,,,,0,,,71,0
40170,note_on,0,0,1,,,,,,,,,0,,,74,36
40170,note_on,0,0,3,,,,,,,,,2,,,62,36
40170,note_on,30,0,3,,,,,,,,,2,,,61,0
40170,note_on,30,0,1,,,,,,,,,0,,,73,0
40200,note_on,0,0,3,,,,,,,,,2,,,63,36
40200,control_change,0,0,3,,,,,,,,,2,64,0,,
40200,note_on,30,0,3,,,,,,,,,2,,,62,0
40200,note_on,30,0,1,,,,,,,,,0,,,74,0
40200,note_on,0,0,1,,,,,,,,,0,,,75,36
40200,control_change,0,0,1,,,,,,,,,0,64,0,,
40230,note_on,0,0,1,,,,,,,,,0,,,76,36
40230,note_on,30,0,1,,,,,,,,,0,,,75,0
40230,note_on,0,0,3,,,,,,,,,2,,,64,36
40230,note_on,30,0,3,,,,,,,,,2,,,63,0
40260,note_on,0,0,1,,,,,,,,,0,,,75,36
40260,note_on,30,0,1,,,,,,,,,0,,,76,0
40260,note_on,0,0,3,,,,,,,,,2,,,63,36
40260,note_on,30,0,3,,,,,,,,,2,,,64,0
40290,note_on,30,0,1,,,,,,,,,0,,,75,0
40290,note_on,0,0,3,,,,,,,,,2,,,64,36
40290,note_on,30,0,3,,,,,,,,,2,,,63,0
40290,note_on,0,0,1,,,,,,,,,0,,,76,36
40320,note_on,30,0,3,,,,,,,,,2,,,64,0
40320,note_on,0,0,3,,,,,,,,,2,,,66,36
40320,note_on,0,0,3,,,,,,,,,2,,,62,36
40320,note_on,0,0,3,,,,,,,,,2,,,57,36
40320,note_on,30,0,1,,,,,,,,,0,,,76,0
40320,control_change,0,0,3,,,,,,,,,2,64,127,,
40320,control_change,0,0,1,,,,,,,,,0,64,127,,
40320,note_on,0,0,1,,,,,,,,,0,,,69,36
40320,note_on,0,0,1,,,,,,,,,0,,,74,36
40320,note_on,0,0,1,,,,,,,,,0,,,78,36
40440,note_on,0,0,3,,,,,,,,,2,,,64,36
40440,note_on,0,0,1,,,,,,,,,0,,,74,0
40440,note_on,120,0,3,,,,,,,,,2,,,66,0
40440,note_on,0,0,3,,,,,,,,,2,,,62,0
40440,control_change,0,0,3,,,,,,,,,2,64,0,,
40440,note_on,0,0,3,,,,,,,,,2,,,61,36
40440,note_on,0,0,1,,,,,,,,,0,,,76,36
40440,note_on,0,0,1,,,,,,,,,0,,,73,36
40440,note_on,120,0,1,,,,,,,,,0,,,78,0
40440,control_change,0,0,1,,,,,,,,,0,64,0,,
40500,note_on,60,0,3,,,,,,,,,2,,,64,0
40500,note_on,0,0,3,,,,,,,,,2,,,57,0
40500,note_on,0,0,3,,,,,,,,,2,,,61,0
40500,note_on,60,0,1,,,,,,,,,0,,,76,0
40500,note_on,0,0,1,,,,,,,,,0,,,73,0
40500,note_on,0,0,1,,,,,,,,,0,,,69,0
40560,control_change,60,0,1,,,,,,,,,0,64,127,,
40560,note_on,0,0,1,,,,,,,,,0,,,81,36
40560,control_change,60,0,3,,,,,,,,,2,64,127,,
40560,note_on,0,0,3,,,,,,,,,2,,,61,36
40599,note_on,39,0,1,,,,,,,,,0,,,80,36
40599,note_on,39,0,3,,,,,,,,,2,,,64,36
40600,note_on,1,0,1,,,,,,,,,0,,,81,0
40600,note_on,1,0,3,,,,,,,,,2,,,61,0
40639,note_on,39,0,1,,,,,,,,,0,,,80,0
40639,note_on,39,0,3,,,,,,,,,2,,,64,0
40640,note_on,1,0,1,,,,,,,,,0,,,78,36
40640,note_on,1,0,3,,,,,,,,,2,,,62,36
40680,control_change,0,0,1,,,,,,,,,0,64,0,,
40680,note_on,0,0,1,,,,,,,,,0,,,76,36
40680,note_on,40,0,3,,,,,,,,,2,,,62,0
40680,note_on,0,0,3,,,,,,,,,2,,,61,36
40680,note_on,40,0,1,,,,,,,,,0,,,78,0
40680,control_change,0,0,3,,,,,,,,,2,64,0,,
40719,note_on,39,0,3,,,,,,,,,2,,,64,36
40719,note_on,39,0,1,,,,,,,,,0,,,74,36
40720,note_on,1,0,1,,,,,,,,,0,,,76,0
40720,note_on,1,0,3,,,,,,,,,2,,,61,0
40759,note_on,39,0,1,,,,,,,,,0,,,74,0
40759,note_on,39,0,3,,,,,,,,,2,,,64,0
40760,note_on,1,0,1,,,,,,,,,0,,,73,36
40760,note_on,1,0,3,,,,,,,,,2,,,69,36
40800,note_on,40,0,1,,,,,,,,,0,,,73,0
40800,control_change,0,0,1,,,,,,,,,0,64,127,,
40800,note_on,40,0,3,,,,,,,,,2,,,69,0
40800,control_change,0,0,3,,,,,,,,,2,64,127,,
40800,note_on,0,0,1,,,,,,,,,0,,,76,62
40800,note_on,0,0,3,,,,,,,,,2,,,71,36
40890,note_on,90,0,1,,,,,,,,,0,,,76,0
40890,note_on,0,0,1,,,,,,,,,0,,,74,36
40920,note_on,120,0,3,,,,,,,,,2,,,71,0
40920,control_change,0,0,3,,,,,,,,,2,64,0,,
40920,note_on,0,0,3,,,,,,,,,2,,,64,36
40920,note_on,30,0,1,,,,,,,,,0,,,74,0
40920,note_on,0,0,1,,,,,,,,,0,,,71,36
40920,control_change,0,0,1,,,,,,,,,0,64,0,,
40980,note_on,60,0,3,,,,,,,,,2,,,64,0
40980,note_on,60,0,1,,,,,,,,,0,,,71,0
41040,control_change,60,0,3,,,,,,,,,2,64,127,,
41040,note_on,0,0,3,,,,,,,,,2,,,74,62
41040,note_on,0,0,1,,,,,,,,,0,,,76,62
41040,control_change,60,0,1,,,,,,,,,0,64,127,,
41046,note_on,6,0,3,,,,,,,,,2,,,74,0
41070,note_on,0,0,1,,,,,,,,,0,,,78,36
41070,note_on,30,0,1,,,,,,,,,0,,,76,0
41100,note_on,30,0,1,,,,,,,,,0,,,78,0
41100,note_on,0,0,1,,,,,,,,,0,,,80,36
41100,note_on,54,0,3,,,,,,,,,2,,,71,36
41106,note_on,6,0,3,,,,,,,,,2,,,71,0
41130,note_on,30,0,1,,,,,,,,,0,,,80,0
41130,note_on,0,0,1,,,,,,,,,0,,,81,36
41160,note_on,30,0,1,,,,,,,,,0,,,81,0
41160,note_on,0,0,1,,,,,,,,,0,,,82,36
41160,note_on,54,0,3,,,,,,,,,2,,,68,36
41166,note_on,6,0,3,,,,,,,,,2,,,68,0
41190,note_on,0,0,1,,,,,,,,,0,,,83,36
41190,note_on,30,0,1,,,,,,,,,0,,,82,0
41220,note_on,0,0,1,,,,,,,,,0,,,82,36
41220,note_on,30,0,1,,,,,,,,,0,,,83,0
41220,note_on,0,0,3,,,,,,,,,2,,,64,36
41220,control_change,54,0,3,,,,,,,,,2,64,0,,
41226,note_on,6,0,3,,,,,,,,,2,,,64,0
41250,note_on,30,0,1,,,,,,,,,0,,,82,0
41250,control_change,0,0,1,,,,,,,,,0,64,0,,
41250,note_on,0,0,1,,,,,,,,,0,,,83,36
41280,control_change,0,0,1,,,,,,,,,0,64,127,,
41280,control_change,54,0,3,,,,,,,,,2,64,127,,
41280,note_on,0,0,3,,,,,,,,,2,,,73,62
41280,note_on,0,0,1,,,,,,,,,0,,,81,62
41280,note_on,30,0,1,,,,,,,,,0,,,83,0
41286,note_on,6,0,3,,,,,,,,,2,,,73,0
41310,note_on,0,0,1,,,,,,,,,0,,,83,36
41310,note_on,30,0,1,,,,,,,,,0,,,81,0
41340,note_on,54,0,3,,,,,,,,,2,,,69,36
41340,note_on,0,0,1,,,,,,,,,0,,,85,36
41340,note_on,30,0,1,,,,,,,,,0,,,83,0
41346,note_on,6,0,3,,,,,,,,,2,,,69,0
41370,note_on,30,0,1,,,,,,,,,0,,,85,0
41370,note_on,0,0,1,,,,,,,,,0,,,86,36
41400,note_on,30,0,1,,,,,,,,,0,,,86,0
41400,note_on,0,0,1,,,,,,,,,0,,,87,36
41400,note_on,54,0,3,,,,,,,,,2,,,64,36
41406,note_on,6,0,3,,,,,,,,,2,,,64,0
41430,note_on,30,0,1,,,,,,,,,0,,,87,0
41430,note_on,0,0,1,,,,,,,,,0,,,88,36
41460,note_on,30,0,1,,,,,,,,,0,,,88,0
41460,note_on,0,0,1,,,,,,,,,0,,,87,36
41460,control_change,54,0,3,,,,,,,,,2,64,0,,
41460,note_on,0,0,3,,,,,,,,,2,,,61,36
41466,note_on,6,0,3,,,,,,,,,2,,,61,0
41490,note_on,30,0,1,,,,,,,,,0,,,87,0
41490,note_on,0,0,1,,,,,,,,,0,,,88,36
41490,control_change,0,0,1,,,,,,,,,0,64,0,,
41520,note_on,0,0,3,,,,,,,,,2,,,62,62
41520,control_change,54,0,3,,,,,,,,,2,64,127,,
41520,note_on,0,0,1,,,,,,,,,0,,,90,62
41520,note_on,30,0,1,,,,,,,,,0,,,88,0
41520,control_change,0,0,1,,,,,,,,,0,64,127,,
41550,note_on,30,0,1,,,,,,,,,0,,,90,0
41550,note_on,30,0,3,,,,,,,,,2,,,62,0
41550,note_on,0,0,1,,,,,,,,,0,,,88,36
41550,note_on,0,0,3,,,,,,,,,2,,,64,36
41580,note_on,0,0,3,,,,,,,,,2,,,62,36
41580,note_on,30,0,1,,,,,,,,,0,,,88,0
41580,note_on,0,0,1,,,,,,,,,0,,,90,36
41580,note_on,30,0,3,,,,,,,,,2,,,64,0
41610,note_on,30,0,3,,,,,,,,,2,,,62,0
41610,note_on,0,0,3,,,,,,,,,2,,,64,36
41610,note_on,30,0,1,,,,,,,,,0,,,90,0
41610,note_on,0,0,1,,,,,,,,,0,,,88,36
41640,note_on,0,0,3,,,,,,,,,2,,,68,36
41640,note_on,30,0,1,,,,,,,,,0,,,88,0
41640,note_on,0,0,1,,,,,,,,,0,,,83,36
41640,note_on,30,0,3,,,,,,,,,2,,,64,0
41670,note_on,30,0,1,,,,,,,,,0,,,83,0
41670,note_on,0,0,1,,,,,,,,,0,,,80,36
41670,note_on,0,0,3,,,,,,,,,2,,,71,36
41670,note_on,30,0,3,,,,,,,,,2,,,68,0
41700,note_on,30,0,3,,,,,,,,,2,,,71,0
41700,note_on,0,0,3,,,,,,,,,2,,,68,36
41700,note_on,0,0,1,,,,,,,,,0,,,83,36
41700,note_on,30,0,1,,,,,,,,,0,,,80,0
41730,note_on,30,0,1,,,,,,,,,0,,,83,0
41730,note_on,0,0,1,,,,,,,,,0,,,80,36
41730,control_change,0,0,1,,,,,,,,,0,64,0,,
41730,note_on,0,0,3,,,,,,,,,2,,,71,36
41730,control_change,0,0,3,,,,,,,,,2,64,0,,
41730,note_on,30,0,3,,,,,,,,,2,,,68,0
41760,note_on,30,0,1,,,,,,,,,0,,,80,0
41760,control_change,0,0,3,,,,,,,,,2,64,127,,
41760,note_on,30,0,3,,,,,,,,,2,,,71,0
41760,note_on,0,0,3,,,,,,,,,2,,,61,62
41760,control_change,0,0,1,,,,,,,,,0,64,127,,
41760,note_on,0,0,1,,,,,,,,,0,,,90,62
41790,note_on,30,0,1,,,,,,,,,0,,,90,0
41790,note_on,0,0,1,,,,,,,,,0,,,88,36
41790,note_on,30,0,3,,,,,,,,,2,,,61,0
41790,note_on,0,0,3,,,,,,,,,2,,,64,36
41820,note_on,0,0,1,,,,,,,,,0,,,90,36
41820,note_on,30,0,1,,,,,,,,,0,,,88,0
41820,note_on,0,0,3,,,,,,,,,2,,,61,36
41820,note_on,30,0,3,,,,,,,,,2,,,64,0
41850,note_on,0,0,1,,,,,,,,,0,,,88,36
41850,note_on,30,0,1,,,,,,,,,0,,,90,0
41850,note_on,30,0,3,,,,,,,,,2,,,61,0
41850,note_on,0,0,3,,,,,,,,,2,,,64,36
41880,note_on,30,0,3,,,,,,,,,2,,,64,0
41880,note_on,0,0,3,,,,,,,,,2,,,69,36
41880,note_on,30,0,1,,,,,,,,,0,,,88,0
41880,note_on,0,0,1,,,,,,,,,0,,,85,36
41910,note_on,30,0,1,,,,,,,,,0,,,85,0
41910,note_on,30,0,3,,,,,,,,,2,,,69,0
41910,note_on,0,0,1,,,,,,,,,0,,,81,36
41910,note_on,0,0,3,,,,,,,,,2,,,73,36
41940,note_on,0,0,3,,,,,,,,,2,,,69,36
41940,note_on,0,0,1,,,,,,,,,0,,,85,36
41940,note_on,30,0,3,,,,,,,,,2,,,73,0
41940,note_on,30,0,1,,,,,,,,,0,,,81,0
41970,note_on,0,0,3,,,,,,,,,2,,,73,36
41970,control_change,0,0,3,,,,,,,,,2,64,0,,
41970,note_on,30,0,1,,,,,,,,,0,,,85,0
41970,control_change,0,0,1,,,,,,,,,0,64,0,,
41970,note_on,0,0,1,,,,,,,,,0,,,81,36
41970,note_on,30,0,3,,,,,,,,,2,,,69,0
42000,note_on,0,0,1,,,,,,,,,0,,,86,62
42000,control_change,0,0,1,,,,,,,,,0,64,127,,
42000,note_on,30,0,1,,,,,,,,,0,,,81,0
42000,note_on,30,0,3,,,,,,,,,2,,,73,0
42000,control_change,0,0,3,,,,,,,,,2,64,127,,
42000,note_on,0,0,3,,,,,,,,,2,,,64,62
42006,note_on,6,0,1,,,,,,,,,0,,,86,0
42030,note_on,0,0,3,,,,,,,,,2,,,66,36
42030,note_on,30,0,3,,,,,,,,,2,,,64,0
42060,note_on,0,0,3,,,,,,,,,2,,,68,36
42060,note_on,54,0,1,,,,,,,,,0,,,83,36
42060,note_on,30,0,3,,,,,,,,,2,,,66,0
42066,note_on,6,0,1,,,,,,,,,0,,,83,0
42090,note_on,30,0,3,,,,,,,,,2,,,68,0
42090,note_on,0,0,3,,,,,,,,,2,,,69,36
42120,note_on,54,0,1,,,,,,,,,0,,,80,36
42120,note_on,0,0,3,,,,,,,,,2,,,70,36
42120,note_on,30,0,3,,,,,,,,,2,,,69,0
42126,note_on,6,0,1,,,,,,,,,0,,,80,0
42150,note_on,0,0,3,,,,,,,,,2,,,71,36
42150,note_on,30,0,3,,,,,,,,,2,,,70,0
42180,note_on,0,0,3,,,,,,,,,2,,,70,36
42180,control_change,54,0,1,,,,,,,,,0,64,0,,
42180,note_on,0,0,1,,,,,,,,,0,,,76,36
42180,note_on,30,0,3,,,,,,,,,2,,,71,0
42186,note_on,6,0,1,,,,,,,,,0,,,76,0
42210,note_on,30,0,3,,,,,,,,,2,,,70,0
42210,control_change,0,0,3,,,,,,,,,2,64,0,,
42210,note_on,0,0,3,,,,,,,,,2,,,71,36
42240,note_on,30,0,3,,,,,,,,,2,,,71,0
42240,control_change,0,0,3,,,,,,,,,2,64,127,,
42240,note_on,0,0,3,,,,,,,,,2,,,69,62
42240,control_change,54,0,1,,,,,,,,,0,64,127,,
42240,note_on,0,0,1,,,,,,,,,0,,,85,62
42246,note_on,6,0,1,,,,,,,,,0,,,85,0
42270,note_on,0,0,3,,,,,,,,,2,,,71,36
42270,note_on,30,0,3,,,,,,,,,2,,,69,0
42300,note_on,30,0,3,,,,,,,,,2,,,71,0
42300,note_on,0,0,3,,,,,,,,,2,,,73,36
42300,note_on,54,0,1,,,,,,,,,0,,,81,36
42306,note_on,6,0,1,,,,,,,,,0,,,81,0
42330,note_on,30,0,3,,,,,,,,,2,,,73,0
42330,note_on,0,0,3,,,,,,,,,2,,,74,36
42360,note_on,54,0,1,,,,,,,,,0,,,97,36
42360,note_on,0,0,3,,,,,,,,,2,,,74,36
42360,note_on,30,0,3,,,,,,,,,2,,,74,0
42366,note_on,6,0,1,,,,,,,,,0,,,97,0
42390,note_on,0,0,3,,,,,,,,,2,,,76,36
42390,note_on,30,0,3,,,,,,,,,2,,,74,0
42420,note_on,30,0,3,,,,,,,,,2,,,76,0
42420,note_on,0,0,1,,,,,,,,,0,,,93,36
42420,control_change,54,0,1,,,,,,,,,0,64,0,,
42420,note_on,0,0,3,,,,,,,,,2,,,74,36
42426,note_on,6,0,1,,,,,,,,,0,,,93,0
42450,control_change,0,0,3,,,,,,,,,2,64,0,,
42450,note_on,0,0,3,,,,,,,,,2,,,76,36
42450,note_on,30,0,3,,,,,,,,,2,,,74,0
42480,note_on,0,0,3,,,,,,,,,2,,,62,62
42480,control_change,0,0,3,,,,,,,,,2,64,127,,
42480,note_on,0,0,1,,,,,,,,,0,,,92,62
42480,control_change,54,0,1,,,,,,,,,0,64,127,,
42480,note_on,30,0,3,,,,,,,,,2,,,76,0
42510,note_on,30,0,3,,,,,,,,,2,,,62,0
42510,note_on,0,0,3,,,,,,,,,2,,,71,36
42510,note_on,30,0,1,,,,,,,,,0,,,92,0
42510,note_on,0,0,1,,,,,,,,,0,,,90,36
42540,note_on,30,0,3,,,,,,,,,2,,,71,0
42540,note_on,0,0,3,,,,,,,,,2,,,62,36
42540,note_on,0,0,1,,,,,,,,,0,,,92,36
42540,note_on,30,0,1,,,,,,,,,0,,,90,0
42570,note_on,30,0,3,,,,,,,,,2,,,62,0
42570,note_on,0,0,3,,,,,,,,,2,,,71,36
42570,note_on,0,0,1,,,,,,,,,0,,,90,36
42570,note_on,30,0,1,,,,,,,,,0,,,92,0
42600,note_on,30,0,1,,,,,,,,,0,,,90,0
42600,note_on,0,0,3,,,,,,,,,2,,,64,36
42600,note_on,0,0,1,,,,,,,,,0,,,86,36
42600,note_on,30,0,3,,,,,,,,,2,,,71,0
42630,note_on,0,0,1,,,,,,,,,0,,,83,36
42630,note_on,30,0,1,,,,,,,,,0,,,86,0
42630,note_on,0,0,3,,,,,,,,,2,,,74,36
42630,note_on,30,0,3,,,,,,,,,2,,,64,0
42660,note_on,0,0,1,,,,,,,,,0,,,86,36
42660,note_on,30,0,1,,,,,,,,,0,,,83,0
42660,note_on,0,0,3,,,,,,,,,2,,,64,36
42660,note_on,30,0,3,,,,,,,,,2,,,74,0
42690,note_on,30,0,1,,,,,,,,,0,,,86,0
42690,note_on,0,0,1,,,,,,,,,0,,,83,36
42690,note_on,0,0,3,,,,,,,,,2,,,74,36
42690,note_on,30,0,3,,,,,,,,,2,,,64,0
42690,control_change,0,0,1,,,,,,,,,0,64,0,,
42690,control_change,0,0,3,,,,,,,,,2,64,0,,
42720,note_on,30,0,1,,,,,,,,,0,,,83,0
42720,note_on,0,0,3,,,,,,,,,2,,,69,36
42720,control_change,0,0,1,,,,,,,,,0,64,127,,
42720,control_change,0,0,3,,,,,,,,,2,64,127,,
42720,note_on,30,0,3,,,,,,,,,2,,,74,0
42720,note_on,0,0,1,,,,,,,,,0,,,83,36
42750,note_on,0,0,3,,,,,,,,,2,,,73,36
42750,note_on,30,0,1,,,,,,,,,0,,,83,0
42750,note_on,0,0,1,,,,,,,,,0,,,81,36
42750,note_on,30,0,3,,,,,,,,,2,,,69,0
42780,note_on,0,0,3,,,,,,,,,2,,,69,36
42780,note_on,30,0,3,,,,,,,,,2,,,73,0
42780,note_on,0,0,1,,,,,,,,,0,,,83,36
42780,note_on,30,0,1,,,,,,,,,0,,,81,0
42810,note_on,0,0,1,,,,,,,,,0,,,81,36
42810,note_on,30,0,1,,,,,,,,,0,,,83,0
42810,note_on,30,0,3,,,,,,,,,2,,,69,0
42810,note_on,0,0,3,,,,,,,,,2,,,73,36
42840,note_on,30,0,3,,,,,,,,,2,,,73,0
42840,note_on,0,0,1,,,,,,,,,0,,,97,62
42840,control_change,0,0,1,,,,,,,,,0,64,0,,
42840,note_on,30,0,1,,,,,,,,,0,,,81,0
42840,control_change,0,0,3,,,,,,,,,2,64,0,,
42840,note_on,0,0,3,,,,,,,,,2,,,57,62
42846,note_on,6,0,1,,,,,,,,,0,,,97,0
42846,note_on,6,0,3,,,,,,,,,2,,,57,0
42900,note_on,54,0,3,,,,,,,,,2,,,61,36
42900,note_on,54,0,1,,,,,,,,,0,,,93,36
42906,note_on,6,0,1,,,,,,,,,0,,,93,0
42906,note_on,6,0,3,,,,,,,,,2,,,61,0
42960,control_change,54,0,1,,,,,,,,,0,64,127,,
42960,note_on,0,0,1,,,,,,,,,0,,,92,36
42960,note_on,0,0,3,,,,,,,,,2,,,62,36
42960,control_change,54,0,3,,,,,,,,,2,64,127,,
42990,note_on,30,0,3,,,,,,,,,2,,,62,0
42990,note_on,30,0,1,,,,,,,,,0,,,92,0
42990,note_on,0,0,1,,,,,,,,,0,,,90,36
42990,note_on,0,0,3,,,,,,,,,2,,,71,36
43020,note_on,30,0,1,,,,,,,,,0,,,90,0
43020,note_on,0,0,3,,,,,,,,,2,,,62,36
43020,note_on,30,0,3,,,,,,,,,2,,,71,0
43020,note_on,0,0,1,,,,,,,,,0,,,92,36
43050,note_on,30,0,1,,,,,,,,,0,,,92,0
43050,note_on,0,0,3,,,,,,,,,2,,,71,36
43050,note_on,0,0,1,,,,,,,,,0,,,90,36
43050,note_on,30,0,3,,,,,,,,,2,,,62,0
43080,note_on,30,0,3,,,,,,,,,2,,,71,0
43080,note_on,0,0,1,,,,,,,,,0,,,86,36
43080,note_on,30,0,1,,,,,,,,,0,,,90,0
43080,note_on,0,0,3,,,,,,,,,2,,,64,36
43110,note_on,30,0,3,,,,,,,,,2,,,64,0
43110,note_on,0,0,3,,,,,,,,,2,,,74,36
43110,note_on,30,0,1,,,,,,,,,0,,,86,0
43110,note_on,0,0,1,,,,,,,,,0,,,83,36
43140,note_on,30,0,3,,,,,,,,,2,,,74,0
43140,note_on,30,0,1,,,,,,,,,0,,,83,0
43140,note_on,0,0,1,,,,,,,,,0,,,86,36
43140,note_on,0,0,3,,,,,,,,,2,,,64,36
43170,note_on,0,0,1,,,,,,,,,0,,,83,36
43170,control_change,0,0,1,,,,,,,,,0,64,0,,
43170,note_on,30,0,1,,,,,,,,,0,,,86,0
43170,note_on,0,0,3,,,,,,,,,2,,,74,36
43170,control_change,0,0,3,,,,,,,,,2,64,0,,
43170,note_on,30,0,3,,,,,,,,,2,,,64,0
43200,control_change,0,0,3,,,,,,,,,2,64,127,,
43200,note_on,30,0,3,,,,,,,,,2,,,74,0
43200,control_change,0,0,1,,,,,,,,,0,64,127,,
43200,note_on,30,0,1,,,,,,,,,0,,,83,0
43200,note_on,0,0,1,,,,,,,,,0,,,83,36
43200,note_on,0,0,3,,,,,,,,,2,,,69,36
43230,note_on,0,0,1,,,,,,,,,0,,,81,36
43230,note_on,30,0,1,,,,,,,,,0,,,83,0
43230,note_on,30,0,3,,,,,,,,,2,,,69,0
43230,note_on,0,0,3,,,,,,,,,2,,,73,36
43260,note_on,0,0,1,,,,,,,,,0,,,83,36
43260,note_on,0,0,3,,,,,,,,,2,,,69,36
43260,note_on,30,0,1,,,,,,,,,0,,,81,0
43260,note_on,30,0,3,,,,,,,,,2,,,73,0
43290,note_on,30,0,3,,,,,,,,,2,,,69,0
43290,note_on,0,0,3,,,,,,,,,2,,,73,36
43290,note_on,30,0,1,,,,,,,,,0,,,83,0
43290,note_on,0,0,1,,,,,,,,,0,,,81,36
43320,note_on,0,0,1,,,,,,,,,0,,,100,62
43320,note_on,0,0,3,,,,,,,,,2,,,57,54
43320,note_on,30,0,3,,,,,,,,,2,,,73,0
43320,note_on,0,0,1,,,,,,,,,0,,,97,54
43320,note_on,30,0,1,,,,,,,,,0,,,81,0
43320,note_on,0,0,3,,,,,,,,,2,,,61,62
43326,note_on,0,0,1,,,,,,,,,0,,,97,0
43326,note_on,0,0,3,,,,,,,,,2,,,57,0
43326,note_on,6,0,1,,,,,,,,,0,,,100,0
43326,note_on,6,0,3,,,,,,,,,2,,,61,0
43380,note_on,0,0,1,,,,,,,,,0,,,97,36
43380,note_on,0,0,1,,,,,,,,,0,,,93,36
43380,control_change,54,0,1,,,,,,,,,0,64,0,,
43380,control_change,54,0,3,,,,,,,,,2,64,0,,
43380,note_on,0,0,3,,,,,,,,,2,,,64,36
43380,note_on,0,0,3,,,,,,,,,2,,,61,36
43386,note_on,6,0,1,,,,,,,,,0,,,97,0
43386,note_on,6,0,3,,,,,,,,,2,,,64,0
43386,note_on,0,0,3,,,,,,,,,2,,,61,0
43386,note_on,0,0,1,,,,,,,,,0,,,93,0
43440,note_on,0,0,3,,,,,,,,,2,,,62,36
43440,control_change,54,0,1,,,,,,,,,0,64,127,,
43440,control_change,54,0,3,,,,,,,,,2,64,127,,
43440,note_on,0,0,1,,,,,,,,,0,,,92,36
43470,note_on,30,0,3,,,,,,,,,2,,,62,0
43470,note_on,30,0,1,,,,,,,,,0,,,92,0
43470,note_on,0,0,3,,,,,,,,,2,,,71,36
43470,note_on,0,0,1,,,,,,,,,0,,,90,36
43500,note_on,30,0,1,,,,,,,,,0,,,90,0
43500,note_on,0,0,1,,,,,,,,,0,,,92,36
43500,note_on,30,0,3,,,,,,,,,2,,,71,0
43500,note_on,0,0,3,,,,,,,,,2,,,62,36
43530,note_on,0,0,1,,,,,,,,,0,,,90,36
43530,note_on,30,0,1,,,,,,,,,0,,,92,0
43530,note_on,30,0,3,,,,,,,,,2,,,62,0
43530,note_on,0,0,3,,,,,,,,,2,,,71,36
43560,note_on,0,0,3,,,,,,,,,2,,,64,36
43560,note_on,30,0,3,,,,,,,,,2,,,71,0
43560,note_on,30,0,1,,,,,,,,,0,,,90,0
43560,note_on,0,0,1,,,,,,,,,0,,,86,36
43590,note_on,30,0,3,,,,,,,,,2,,,64,0
43590,note_on,0,0,1,,,,,,,,,0,,,83,36
43590,note_on,0,0,3,,,,,,,,,2,,,74,36
43590,note_on,30,0,1,,,,,,,,,0,,,86,0
43620,note_on,0,0,1,,,,,,,,,0,,,86,36
43620,note_on,0,0,3,,,,,,,,,2,,,64,36
43620,note_on,30,0,3,,,,,,,,,2,,,74,0
43620,note_on,30,0,1,,,,,,,,,0,,,83,0
43650,note_on,30,0,3,,,,,,,,,2,,,64,0
43650,control_change,0,0,3,,,,,,,,,2,64,0,,
43650,note_on,0,0,3,,,,,,,,,2,,,74,36
43650,note_on,30,0,1,,,,,,,,,0,,,86,0
43650,control_change,0,0,1,,,,,,,,,0,64,0,,
43650,note_on,0,0,1,,,,,,,,,0,,,83,36
43680,note_on,30,0,3,,,,,,,,,2,,,74,0
43680,control_change,0,0,3,,,,,,,,,2,64,127,,
43680,note_on,0,0,3,,,,,,,,,2,,,69,36
43680,note_on,30,0,1,,,,,,,,,0,,,83,0
43680,control_change,0,0,1,,,,,,,,,0,64,127,,
43680,note_on,0,0,1,,,,,,,,,0,,,83,36
43710,note_on,30,0,1,,,,,,,,,0,,,83,0
43710,note_on,30,0,3,,,,,,,,,2,,,69,0
43710,note_on,0,0,3,,,,,,,,,2,,,73,36
43710,note_on,0,0,1,,,,,,,,,0,,,81,36
43740,note_on,30,0,1,,,,,,,,,0,,,81,0
43740,note_on,0,0,1,,,,,,,,,0,,,83,36
43740,note_on,30,0,3,,,,,,,,,2,,,73,0
43740,note_on,0,0,3,,,,,,,,,2,,,69,36
43770,note_on,30,0,1,,,,,,,,,0,,,83,0
43770,note_on,0,0,1,,,,,,,,,0,,,81,36
43770,note_on,30,0,3,,,,,,,,,2,,,69,0
43770,note_on,0,0,3,,,,,,,,,2,,,73,36
43800,note_on,30,0,1,,,,,,,,,0,,,81,0
43800,note_on,0,0,1,,,,,,,,,0,,,93,62
43800,note_on,30,0,3,,,,,,,,,2,,,73,0
43800,note_on,0,0,3,,,,,,,,,2,,,57,36
43806,note_on,6,0,1,,,,,,,,,0,,,93,0
43806,note_on,6,0,3,,,,,,,,,2,,,57,0
43860,control_change,54,0,1,,,,,,,,,0,64,0,,
43860,note_on,0,0,1,,,,,,,,,0,,,81,36
43860,control_change,54,0,3,,,,,,,,,2,64,0,,
43860,note_on,0,0,3,,,,,,,,,2,,,69,36
43866,note_on,6,0,3,,,,,,,,,2,,,69,0
43866,note_on,6,0,1,,,,,,,,,0,,,81,0
43920,control_change,54,0,1,,,,,,,,,0,64,127,,
43920,note_on,0,0,3,,,,,,,,,2,,,57,75
43920,control_change,54,0,3,,,,,,,,,2,64,127,,
43920,note_on,0,0,1,,,,,,,,,0,,,81,88
43920,note_on,0,0,1,,,,,,,,,0,,,79,88
43926,note_on,6,0,1,,,,,,,,,0,,,81,0
43926,note_on,0,0,1,,,,,,,,,0,,,79,0
43950,note_on,30,0,3,,,,,,,,,2,,,57,0
43950,note_on,0,0,3,,,,,,,,,2,,,59,75
43980,note_on,54,0,1,,,,,,,,,0,,,76,49
43980,note_on,0,0,3,,,,,,,,,2,,,61,36
43980,note_on,0,0,1,,,,,,,,,0,,,81,49
43980,note_on,30,0,3,,,,,,,,,2,,,59,0
43986,note_on,6,0,1,,,,,,,,,0,,,81,0
43986,note_on,0,0,1,,,,,,,,,0,,,76,0
44010,note_on,0,0,3,,,,,,,,,2,,,62,36
44010,note_on,30,0,3,,,,,,,,,2,,,61,0
44040,note_on,0,0,1,,,,,,,,,0,,,73,49
44040,note_on,0,0,1,,,,,,,,,0,,,81,49
44040,note_on,30,0,3,,,,,,,,,2,,,62,0
44040,control_change,54,0,1,,,,,,,,,0,64,0,,
44040,note_on,0,0,3,,,,,,,,,2,,,63,36
44040,control_change,0,0,3,,,,,,,,,2,64,0,,
44046,note_on,6,0,1,,,,,,,,,0,,,81,0
44046,note_on,0,0,1,,,,,,,,,0,,,73,0
44070,note_on,30,0,3,,,,,,,,,2,,,63,0
44070,note_on,0,0,3,,,,,,,,,2,,,64,36
44100,note_on,54,0,1,,,,,,,,,0,,,69,49
44100,note_on,0,0,1,,,,,,,,,0,,,81,49
44100,note_on,30,0,3,,,,,,,,,2,,,64,0
44100,note_on,0,0,3,,,,,,,,,2,,,63,36
44106,note_on,6,0,1,,,,,,,,,0,,,81,0
44106,note_on,0,0,1,,,,,,,,,0,,,69,0
44130,note_on,0,0,3,,,,,,,,,2,,,64,36
44130,note_on,30,0,3,,,,,,,,,2,,,63,0
44160,note_on,30,0,3,,,,,,,,,2,,,64,0
44160,note_on,0,0,1,,,,,,,,,0,,,67,88
44160,control_change,54,0,1,,,,,,,,,0,64,127,,
44160,note_on,0,0,3,,,,,,,,,2,,,45,75
44160,control_change,0,0,3,,,,,,,,,2,64,127,,
44160,note_on,0,0,1,,,,,,,,,0,,,69,88
44166,note_on,6,0,1,,,,,,,,,0,,,69,0
44166,note_on,0,0,1,,,,,,,,,0,,,67,0
44190,note_on,30,0,3,,,,,,,,,2,,,45,0
44190,note_on,0,0,3,,,,,,,,,2,,,47,75
44220,note_on,0,0,1,,,,,,,,,0,,,69,49
44220,note_on,30,0,3,,,,,,,,,2,,,47,0
44220,note_on,0,0,3,,,,,,,,,2,,,49,36
44220,note_on,54,0,1,,,,,,,,,0,,,64,49
44226,note_on,6,0,1,,,,,,,,,0,,,69,0
44226,note_on,0,0,1,,,,,,,,,0,,,64,0
44250,note_on,30,0,3,,,,,,,,,2,,,49,0
44250,note_on,0,0,3,,,,,,,,,2,,,50,36
44280,control_change,54,0,1,,,,,,,,,0,64,0,,
44280,note_on,0,0,1,,,,,,,,,0,,,61,49
44280,note_on,0,0,1,,,,,,,,,0,,,69,49
44280,note_on,30,0,3,,,,,,,,,2,,,50,0
44280,control_change,0,0,3,,,,,,,,,2,64,0,,
44280,note_on,0,0,3,,,,,,,,,2,,,51,36
44286,note_on,6,0,1,,,,,,,,,0,,,69,0
44286,note_on,0,0,1,,,,,,,,,0,,,61,0
44310,note_on,0,0,3,,,,,,,,,2,,,52,36
44310,note_on,30,0,3,,,,,,,,,2,,,51,0
44340,note_on,0,0,3,,,,,,,,,2,,,51,36
44340,note_on,0,0,1,,,,,,,,,0,,,69,49
44340,note_on,54,0,1,,,,,,,,,0,,,57,49
44340,note_on,30,0,3,,,,,,,,,2,,,52,0
44346,note_on,0,0,1,,,,,,,,,0,,,57,0
44346,note_on,6,0,1,,,,,,,,,0,,,69,0
44370,note_on,30,0,3,,,,,,,,,2,,,51,0
44370,note_on,0,0,3,,,,,,,,,2,,,52,36
44400,note_on,30,0,3,,,,,,,,,2,,,52,0
44400,note_on,0,0,3,,,,,,,,,2,,,51,36
44430,note_on,30,0,3,,,,,,,,,2,,,51,0
44430,note_on,0,0,3,,,,,,,,,2,,,52,36
44460,note_on,0,0,3,,,,,,,,,2,,,54,36
44460,note_on,30,0,3,,,,,,,,,2,,,52,0
44490,note_on,30,0,3,,,,,,,,,2,,,54,0
44490,note_on,0,0,3,,,,,,,,,2,,,56,36
44520,note_on,30,0,3,,,,,,,,,2,,,56,0
44520,note_on,0,0,3,,,,,,,,,2,,,57,36
44550,note_on,30,0,3,,,,,,,,,2,,,57,0
44550,note_on,0,0,3,,,,,,,,,2,,,59,36
44580,note_on,30,0,3,,,,,,,,,2,,,59,0
44580,note_on,0,0,3,,,,,,,,,2,,,61,36
44610,note_on,30,0,3,,,,,,,,,2,,,61,0
44610,note_on,0,0,3,,,,,,,,,2,,,62,36
44640,note_on,30,0,3,,,,,,,,,2,,,62,0
44640,note_on,0,0,3,,,,,,,,,2,,,63,36
44670,note_on,0,0,3,,,,,,,,,2,,,64,36
44670,note_on,30,0,3,,,,,,,,,2,,,63,0
44700,note_on,30,0,3,,,,,,,,,2,,,64,0
44700,note_on,354,0,1,,,,,,,,,0,,,66,49
44730,note_on,30,0,1,,,,,,,,,0,,,66,0
44730,note_on,0,0,1,,,,,,,,,0,,,68,49
44760,note_on,30,0,1,,,,,,,,,0,,,68,0
44760,note_on,0,0,1,,,,,,,,,0,,,69,49
44790,note_on,0,0,1,,,,,,,,,0,,,71,49
44790,note_on,30,0,1,,,,,,,,,0,,,69,0
44820,note_on,30,0,1,,,,,,,,,0,,,71,0
44820,note_on,0,0,1,,,,,,,,,0,,,73,49
44850,note_on,30,0,1,,,,,,,,,0,,,73,0
44850,note_on,0,0,1,,,,,,,,,0,,,74,49
44880,note_on,30,0,1,,,,,,,,,0,,,74,0
44880,note_on,0,0,1,,,,,,,,,0,,,75,49
44910,note_on,0,0,1,,,,,,,,,0,,,76,49
44910,note_on,30,0,1,,,,,,,,,0,,,75,0
44940,note_on,0,0,1,,,,,,,,,0,,,75,49
44940,note_on,30,0,1,,,,,,,,,0,,,76,0
44970,note_on,30,0,1,,,,,,,,,0,,,75,0
44970,note_on,0,0,1,,,,,,,,,0,,,76,49
45000,note_on,30,0,1,,,,,,,,,0,,,76,0
45000,note_on,0,0,1,,,,,,,,,0,,,78,49
45030,note_on,30,0,1,,,,,,,,,0,,,78,0
45030,note_on,0,0,1,,,,,,,,,0,,,80,49
45060,note_on,30,0,1,,,,,,,,,0,,,80,0
45060,note_on,0,0,1,,,,,,,,,0,,,81,49
45090,note_on,0,0,1,,,,,,,,,0,,,83,49
45090,note_on,30,0,1,,,,,,,,,0,,,81,0
45120,note_on,30,0,1,,,,,,,,,0,,,83,0
45120,control_change,0,0,1,,,,,,,,,0,64,127,,
45120,note_on,0,0,1,,,,,,,,,0,,,81,62
45150,note_on,30,0,1,,,,,,,,,0,,,81,0
45150,note_on,0,0,1,,,,,,,,,0,,,83,62
45180,note_on,30,0,1,,,,,,,,,0,,,83,0
45180,note_on,0,0,1,,,,,,,,,0,,,81,62
45210,note_on,0,0,1,,,,,,,,,0,,,83,62
45210,note_on,30,0,1,,,,,,,,,0,,,81,0
45240,note_on,30,0,1,,,,,,,,,0,,,83,0
45240,note_on,0,0,1,,,,,,,,,0,,,81,75
45270,note_on,30,0,1,,,,,,,,,0,,,81,0
45270,note_on,0,0,1,,,,,,,,,0,,,83,75
45300,note_on,30,0,1,,,,,,,,,0,,,83,0
45300,note_on,0,0,1,,,,,,,,,0,,,81,75
45330,note_on,0,0,1,,,,,,,,,0,,,83,75
45330,note_on,30,0,1,,,,,,,,,0,,,81,0
45360,note_on,0,0,1,,,,,,,,,0,,,81,88
45360,note_on,30,0,1,,,,,,,,,0,,,83,0
45390,note_on,30,0,1,,,,,,,,,0,,,81,0
45390,note_on,0,0,1,,,,,,,,,0,,,83,88
45420,note_on,30,0,1,,,,,,,,,0,,,83,0
45420,note_on,0,0,1,,,,,,,,,0,,,81,88
45450,note_on,30,0,1,,,,,,,,,0,,,81,0
45450,note_on,0,0,1,,,,,,,,,0,,,83,88
45480,note_on,0,0,1,,,,,,,,,0,,,81,101
45480,note_on,30,0,1,,,,,,,,,0,,,83,0
45510,note_on,30,0,1,,,,,,,,,0,,,81,0
45510,note_on,0,0,1,,,,,,,,,0,,,83,101
45540,note_on,0,0,1,,,,,,,,,0,,,81,101
45540,note_on,30,0,1,,,,,,,,,0,,,83,0
45570,note_on,0,0,1,,,,,,,,,0,,,83,101
45570,note_on,30,0,1,,,,,,,,,0,,,81,0
45600,note_on,30,0,1,,,,,,,,,0,,,83,0
45600,note_on,0,0,1,,,,,,,,,0,,,81,101
45630,note_on,30,0,1,,,,,,,,,0,,,81,0
45630,note_on,0,0,1,,,,,,,,,0,,,83,101
45660,note_on,30,0,1,,,,,,,,,0,,,83,0
45660,note_on,0,0,1,,,,,,,,,0,,,81,101
45690,note_on,30,0,1,,,,,,,,,0,,,81,0
45690,note_on,0,0,1,,,,,,,,,0,,,83,101
45720,note_on,30,0,1,,,,,,,,,0,,,83,0
45720,note_on,0,0,1,,,,,,,,,0,,,81,114
45750,note_on,30,0,1,,,,,,,,,0,,,81,0
45750,note_on,0,0,1,,,,,,,,,0,,,83,114
45780,note_on,30,0,1,,,,,,,,,0,,,83,0
45780,note_on,0,0,1,,,,,,,,,0,,,81,114
45810,note_on,30,0,1,,,,,,,,,0,,,81,0
45810,note_on,0,0,1,,,,,,,,,0,,,83,114
45840,note_on,30,0,1,,,,,,,,,0,,,83,0
45840,note_on,0,0,1,,,,,,,,,0,,,81,88
45870,note_on,0,0,1,,,,,,,,,0,,,83,88
45870,note_on,30,0,1,,,,,,,,,0,,,81,0
45900,note_on,30,0,1,,,,,,,,,0,,,83,0
45900,note_on,0,0,1,,,,,,,,,0,,,81,88
45930,note_on,30,0,1,,,,,,,,,0,,,81,0
45930,note_on,0,0,1,,,,,,,,,0,,,83,88
45960,note_on,30,0,1,,,,,,,,,0,,,83,0
45960,note_on,0,0,1,,,,,,,,,0,,,81,62
45990,note_on,30,0,1,,,,,,,,,0,,,81,0
45990,note_on,0,0,1,,,,,,,,,0,,,83,62
46020,note_on,30,0,1,,,,,,,,,0,,,83,0
46020,note_on,0,0,1,,,,,,,,,0,,,81,62
46050,note_on,0,0,1,,,,,,,,,0,,,78,62
46050,note_on,30,0,1,,,,,,,,,0,,,81,0
46050,control_change,0,0,1,,,,,,,,,0,64,0,,
46080,note_on,30,0,1,,,,,,,,,0,,,78,0
46080,note_on,0,0,3,,,,,,,,,2,,,66,49
46080,note_on,0,0,3,,,,,,,,,2,,,62,49
46080,control_change,1380,0,3,,,,,,,,,2,64,127,,
46080,note_on,0,0,1,,,,,,,,,0,,,74,62
46080,control_change,0,0,1,,,,,,,,,0,64,127,,
46092,note_on,0,0,3,,,,,,,,,2,,,62,0
46092,note_on,12,0,3,,,,,,,,,2,,,66,0
46140,note_on,60,0,1,,,,,,,,,0,,,74,0
46200,note_on,0,0,1,,,,,,,,,0,,,74,88
46200,note_on,0,0,3,,,,,,,,,2,,,66,49
46200,note_on,0,0,3,,,,,,,,,2,,,57,49
46200,control_change,108,0,3,,,,,,,,,2,64,0,,
46200,control_change,60,0,1,,,,,,,,,0,64,0,,
46212,note_on,12,0,3,,,,,,,,,2,,,66,0
46212,note_on,0,0,3,,,,,,,,,2,,,57,0
46320,note_on,0,0,3,,,,,,,,,2,,,67,49
46320,note_on,0,0,3,,,,,,,,,2,,,64,49
46320,control_change,108,0,3,,,,,,,,,2,64,127,,
46320,note_on,0,0,1,,,,,,,,,0,,,73,62
46320,note_on,120,0,1,,,,,,,,,0,,,74,0
46320,control_change,0,0,1,,,,,,,,,0,64,127,,
46332,note_on,0,0,3,,,,,,,,,2,,,64,0
46332,note_on,12,0,3,,,,,,,,,2,,,67,0
46350,note_on,30,0,1,,,,,,,,,0,,,73,0
46350,note_on,0,0,1,,,,,,,,,0,,,71,62
46380,note_on,30,0,1,,,,,,,,,0,,,71,0
46380,note_on,0,0,1,,,,,,,,,0,,,73,62
46410,note_on,30,0,1,,,,,,,,,0,,,73,0
46410,note_on,0,0,1,,,,,,,,,0,,,74,62
46440,note_on,0,0,1,,,,,,,,,0,,,73,62
46440,note_on,30,0,1,,,,,,,,,0,,,74,0
46440,note_on,0,0,3,,,,,,,,,2,,,67,49
46440,note_on,0,0,3,,,,,,,,,2,,,57,49
46440,control_change,108,0,3,,,,,,,,,2,64,0,,
46452,note_on,0,0,3,,,,,,,,,2,,,57,0
46452,note_on,12,0,3,,,,,,,,,2,,,67,0
46470,note_on,0,0,1,,,,,,,,,0,,,74,62
46470,note_on,30,0,1,,,,,,,,,0,,,73,0
46500,note_on,0,0,1,,,,,,,,,0,,,76,62
46500,note_on,30,0,1,,,,,,,,,0,,,74,0
46530,control_change,0,0,1,,,,,,,,,0,64,0,,
46530,note_on,0,0,1,,,,,,,,,0,,,73,62
46530,note_on,30,0,1,,,,,,,,,0,,,76,0
46560,note_on,30,0,1,,,,,,,,,0,,,73,0
46560,control_change,0,0,1,,,,,,,,,0,64,127,,
46560,note_on,0,0,1,,,,,,,,,0,,,69,62
46560,control_change,108,0,3,,,,,,,,,2,64,127,,
46560,note_on,0,0,3,,,,,,,,,2,,,62,49
46560,note_on,0,0,3,,,,,,,,,2,,,66,49
46572,note_on,0,0,3,,,,,,,,,2,,,62,0
46572,note_on,12,0,3,,,,,,,,,2,,,66,0
46680,note_on,0,0,3,,,,,,,,,2,,,57,49
46680,control_change,108,0,3,,,,,,,,,2,64,0,,
46680,note_on,120,0,1,,,,,,,,,0,,,69,0
46680,note_on,0,0,1,,,,,,,,,0,,,74,62
46680,control_change,0,0,1,,,,,,,,,0,64,0,,
46680,note_on,0,0,3,,,,,,,,,2,,,66,49
46692,note_on,12,0,3,,,,,,,,,2,,,66,0
46692,note_on,0,0,3,,,,,,,,,2,,,57,0
46740,note_on,60,0,1,,,,,,,,,0,,,74,0
46800,note_on,0,0,3,,,,,,,,,2,,,61,49
46800,control_change,108,0,3,,,,,,,,,2,64,127,,
46800,note_on,0,0,1,,,,,,,,,0,,,76,62
46800,control_change,60,0,1,,,,,,,,,0,64,127,,
46800,note_on,0,0,3,,,,,,,,,2,,,67,49
46812,note_on,12,0,3,,,,,,,,,2,,,67,0
46812,note_on,0,0,3,,,,,,,,,2,,,61,0
46830,note_on,0,0,1,,,,,,,,,0,,,79,62
46830,note_on,30,0,1,,,,,,,,,0,,,76,0
46860,note_on,30,0,1,,,,,,,,,0,,,79,0
46860,note_on,0,0,1,,,,,,,,,0,,,76,62
46890,note_on,30,0,1,,,,,,,,,0,,,76,0
46890,note_on,0,0,1,,,,,,,,,0,,,79,62
46920,note_on,0,0,3,,,,,,,,,2,,,67,49
46920,note_on,0,0,1,,,,,,,,,0,,,83,62
46920,note_on,30,0,1,,,,,,,,,0,,,79,0
46920,control_change,108,0,3,,,,,,,,,2,64,0,,
46920,note_on,0,0,3,,,,,,,,,2,,,57,49
46932,note_on,0,0,3,,,,,,,,,2,,,57,0
46932,note_on,12,0,3,,,,,,,,,2,,,67,0
46950,note_on,0,0,1,,,,,,,,,0,,,81,62
46950,note_on,30,0,1,,,,,,,,,0,,,83,0
46980,note_on,0,0,1,,,,,,,,,0,,,83,62
46980,note_on,30,0,1,,,,,,,,,0,,,81,0
47010,note_on,0,0,1,,,,,,,,,0,,,81,62
47010,control_change,0,0,1,,,,,,,,,0,64,0,,
47010,note_on,30,0,1,,,,,,,,,0,,,83,0
47040,note_on,30,0,1,,,,,,,,,0,,,81,0
47040,control_change,108,0,3,,,,,,,,,2,64,127,,
47040,note_on,0,0,3,,,,,,,,,2,,,62,49
47040,note_on,0,0,3,,,,,,,,,2,,,66,49
47040,control_change,0,0,1,,,,,,,,,0,64,127,,
47040,note_on,0,0,1,,,,,,,,,0,,,81,62
47052,note_on,12,0,3,,,,,,,,,2,,,66,0
47052,note_on,0,0,3,,,,,,,,,2,,,62,0
47100,note_on,60,0,1,,,,,,,,,0,,,81,0
47160,control_change,108,0,3,,,,,,,,,2,64,0,,
47160,note_on,0,0,3,,,,,,,,,2,,,57,67
47160,control_change,60,0,1,,,,,,,,,0,64,0,,
47160,note_on,0,0,1,,,,,,,,,0,,,81,88
47160,note_on,0,0,3,,,,,,,,,2,,,66,75
47172,note_on,12,0,3,,,,,,,,,2,,,66,0
47172,note_on,0,0,3,,,,,,,,,2,,,57,0
47280,control_change,108,0,3,,,,,,,,,2,64,127,,
47280,note_on,0,0,3,,,,,,,,,2,,,59,49
47280,note_on,0,0,3,,,,,,,,,2,,,67,49
47280,note_on,0,0,3,,,,,,,,,2,,,62,49
47280,control_change,120,0,1,,,,,,,,,0,64,127,,
47292,note_on,0,0,3,,,,,,,,,2,,,59,0
47292,note_on,0,0,3,,,,,,,,,2,,,62,0
47292,note_on,12,0,3,,,,,,,,,2,,,67,0
47310,note_on,30,0,1,,,,,,,,,0,,,81,0
47310,note_on,0,0,1,,,,,,,,,0,,,79,62
47340,note_on,30,0,1,,,,,,,,,0,,,79,0
47340,note_on,0,0,1,,,,,,,,,0,,,81,62
47370,note_on,30,0,1,,,,,,,,,0,,,81,0
47370,note_on,0,0,1,,,,,,,,,0,,,83,62
47400,note_on,30,0,1,,,,,,,,,0,,,83,0
47400,note_on,0,0,3,,,,,,,,,2,,,67,49
47400,note_on,0,0,3,,,,,,,,,2,,,62,49
47400,note_on,0,0,3,,,,,,,,,2,,,55,49
47400,control_change,108,0,3,,,,,,,,,2,64,0,,
47400,note_on,0,0,1,,,,,,,,,0,,,85,62
47412,note_on,12,0,3,,,,,,,,,2,,,67,0
47412,note_on,0,0,3,,,,,,,,,2,,,55,0
47412,note_on,0,0,3,,,,,,,,,2,,,62,0
47430,note_on,0,0,1,,,,,,,,,0,,,86,62
47430,note_on,30,0,1,,,,,,,,,0,,,85,0
47460,note_on,0,0,1,,,,,,,,,0,,,85,62
47460,note_on,30,0,1,,,,,,,,,0,,,86,0
47490,control_change,0,0,1,,,,,,,,,0,64,0,,
47490,note_on,0,0,1,,,,,,,,,0,,,83,62
47490,note_on,30,0,1,,,,,,,,,0,,,85,0
47520,control_change,0,0,1,,,,,,,,,0,64,127,,
47520,note_on,30,0,1,,,,,,,,,0,,,83,0
47520,note_on,0,0,1,,,,,,,,,0,,,81,62
47520,note_on,0,0,3,,,,,,,,,2,,,66,49
47520,note_on,0,0,3,,,,,,,,,2,,,62,49
47520,control_change,108,0,3,,,,,,,,,2,64,127,,
47532,note_on,0,0,3,,,,,,,,,2,,,62,0
47532,note_on,12,0,3,,,,,,,,,2,,,66,0
47640,note_on,0,0,3,,,,,,,,,2,,,57,49
47640,note_on,0,0,3,,,,,,,,,2,,,66,49
47640,control_change,108,0,3,,,,,,,,,2,64,0,,
47652,note_on,0,0,3,,,,,,,,,2,,,57,0
47652,note_on,12,0,3,,,,,,,,,2,,,66,0
47760,note_on,0,0,1,,,,,,,,,0,,,81,62
47760,note_on,0,0,3,,,,,,,,,2,,,62,49
47760,note_on,0,0,3,,,,,,,,,2,,,66,49
47760,control_change,108,0,3,,,,,,,,,2,64,127,,
47760,control_change,0,0,1,,,,,,,,,0,64,127,,
47760,note_on,240,0,1,,,,,,,,,0,,,81,0
47772,note_on,12,0,3,,,,,,,,,2,,,66,0
47772,note_on,0,0,3,,,,,,,,,2,,,62,0
47790,note_on,30,0,1,,,,,,,,,0,,,81,0
47790,note_on,0,0,1,,,,,,,,,0,,,83,62
47820,note_on,0,0,1,,,,,,,,,0,,,81,62
47820,note_on,30,0,1,,,,,,,,,0,,,83,0
47850,note_on,0,0,1,,,,,,,,,0,,,83,62
47850,note_on,30,0,1,,,,,,,,,0,,,81,0
47880,note_on,0,0,3,,,,,,,,,2,,,57,49
47880,control_change,108,0,3,,,,,,,,,2,64,0,,
47880,note_on,0,0,1,,,,,,,,,0,,,81,62
47880,note_on,30,0,1,,,,,,,,,0,,,83,0
47880,note_on,0,0,3,,,,,,,,,2,,,66,49
47892,note_on,0,0,3,,,,,,,,,2,,,57,0
47892,note_on,12,0,3,,,,,,,,,2,,,66,0
47910,note_on,0,0,1,,,,,,,,,0,,,83,62
47910,note_on,30,0,1,,,,,,,,,0,,,81,0
47940,note_on,30,0,1,,,,,,,,,0,,,83,0
47940,note_on,0,0,1,,,,,,,,,0,,,81,62
47970,note_on,30,0,1,,,,,,,,,0,,,81,0
47970,control_change,0,0,1,,,,,,,,,0,64,0,,
47970,note_on,0,0,1,,,,,,,,,0,,,78,62
48000,control_change,108,0,3,,,,,,,,,2,64,127,,
48000,note_on,0,0,3,,,,,,,,,2,,,62,49
48000,note_on,0,0,3,,,,,,,,,2,,,66,49
48000,note_on,0,0,1,,,,,,,,,0,,,74,62
48000,note_on,30,0,1,,,,,,,,,0,,,78,0
48000,control_change,0,0,1,,,,,,,,,0,64,127,,
48012,note_on,12,0,3,,,,,,,,,2,,,66,0
48012,note_on,0,0,3,,,,,,,,,2,,,62,0
48060,note_on,60,0,1,,,,,,,,,0,,,74,0
48120,note_on,60,0,1,,,,,,,,,0,,,74,88
48120,control_change,108,0,3,,,,,,,,,2,64,0,,
48120,note_on,0,0,3,,,,,,,,,2,,,57,67
48120,note_on,0,0,3,,,,,,,,,2,,,66,75
48132,note_on,0,0,3,,,,,,,,,2,,,57,0
48132,note_on,12,0,3,,,,,,,,,2,,,66,0
48240,control_change,108,0,3,,,,,,,,,2,64,127,,
48240,note_on,0,0,3,,,,,,,,,2,,,64,49
48240,note_on,0,0,3,,,,,,,,,2,,,67,49
48240,note_on,0,0,1,,,,,,,,,0,,,73,62
48240,control_change,0,0,1,,,,,,,,,0,64,127,,
48240,note_on,120,0,1,,,,,,,,,0,,,74,0
48252,note_on,12,0,3,,,,,,,,,2,,,67,0
48252,note_on,0,0,3,,,,,,,,,2,,,64,0
48270,note_on,0,0,1,,,,,,,,,0,,,71,62
48270,note_on,30,0,1,,,,,,,,,0,,,73,0
48300,note_on,0,0,1,,,,,,,,,0,,,73,62
48300,note_on,30,0,1,,,,,,,,,0,,,71,0
48330,note_on,30,0,1,,,,,,,,,0,,,73,0
48330,note_on,0,0,1,,,,,,,,,0,,,74,62
48360,note_on,0,0,1,,,,,,,,,0,,,73,75
48360,note_on,0,0,3,,,,,,,,,2,,,67,62
48360,note_on,0,0,3,,,,,,,,,2,,,57,62
48360,control_change,108,0,3,,,,,,,,,2,64,0,,
48360,note_on,30,0,1,,,,,,,,,0,,,74,0
48372,note_on,0,0,3,,,,,,,,,2,,,57,0
48372,note_on,12,0,3,,,,,,,,,2,,,67,0
48390,note_on,30,0,1,,,,,,,,,0,,,73,0
48390,note_on,0,0,1,,,,,,,,,0,,,74,75
48420,note_on,0,0,1,,,,,,,,,0,,,76,75
48420,note_on,30,0,1,,,,,,,,,0,,,74,0
48450,control_change,0,0,1,,,,,,,,,0,64,0,,
48450,note_on,30,0,1,,,,,,,,,0,,,76,0
48450,note_on,0,0,1,,,,,,,,,0,,,77,75
48480,note_on,0,0,1,,,,,,,,,0,,,78,75
48480,control_change,108,0,3,,,,,,,,,2,64,127,,
48480,note_on,0,0,3,,,,,,,,,2,,,58,62
48480,control_change,0,0,1,,,,,,,,,0,64,127,,
48480,note_on,30,0,1,,,,,,,,,0,,,77,0
48480,note_on,0,0,3,,,,,,,,,2,,,66,62
48492,note_on,12,0,3,,,,,,,,,2,,,66,0
48492,note_on,0,0,3,,,,,,,,,2,,,58,0
48600,note_on,0,0,3,,,,,,,,,2,,,61,62
48600,note_on,0,0,3,,,,,,,,,2,,,58,62
48600,control_change,108,0,3,,,,,,,,,2,64,0,,
48612,note_on,0,0,3,,,,,,,,,2,,,58,0
48612,note_on,12,0,3,,,,,,,,,2,,,61,0
48720,control_change,108,0,3,,,,,,,,,2,64,127,,
48720,note_on,0,0,1,,,,,,,,,0,,,79,62
48720,control_change,0,0,1,,,,,,,,,0,64,127,,
48720,note_on,240,0,1,,,,,,,,,0,,,78,0
48720,note_on,0,0,3,,,,,,,,,2,,,62,49
48720,note_on,0,0,3,,,,,,,,,2,,,59,49
48732,note_on,12,0,3,,,,,,,,,2,,,62,0
48732,note_on,0,0,3,,,,,,,,,2,,,59,0
48750,note_on,0,0,1,,,,,,,,,0,,,83,62
48750,note_on,30,0,1,,,,,,,,,0,,,79,0
48780,note_on,0,0,1,,,,,,,,,0,,,79,62
48780,note_on,30,0,1,,,,,,,,,0,,,83,0
48810,note_on,30,0,1,,,,,,,,,0,,,79,0
48810,note_on,0,0,1,,,,,,,,,0,,,83,62
48840,note_on,0,0,3,,,,,,,,,2,,,55,49
48840,note_on,0,0,1,,,,,,,,,0,,,88,62
48840,note_on,0,0,3,,,,,,,,,2,,,62,49
48840,control_change,108,0,3,,,,,,,,,2,64,0,,
48840,note_on,0,0,3,,,,,,,,,2,,,67,49
48840,note_on,30,0,1,,,,,,,,,0,,,83,0
48852,note_on,12,0,3,,,,,,,,,2,,,67,0
48852,note_on,0,0,3,,,,,,,,,2,,,55,0
48852,note_on,0,0,3,,,,,,,,,2,,,62,0
48870,note_on,30,0,1,,,,,,,,,0,,,88,0
48870,note_on,0,0,1,,,,,,,,,0,,,86,62
48900,note_on,30,0,1,,,,,,,,,0,,,86,0
48900,note_on,0,0,1,,,,,,,,,0,,,83,62
48930,note_on,30,0,1,,,,,,,,,0,,,83,0
48930,control_change,0,0,1,,,,,,,,,0,64,0,,
48930,note_on,0,0,1,,,,,,,,,0,,,79,62
48960,control_change,0,0,1,,,,,,,,,0,64,127,,
48960,note_on,0,0,3,,,,,,,,,2,,,62,49
48960,note_on,0,0,3,,,,,,,,,2,,,66,49
48960,note_on,30,0,1,,,,,,,,,0,,,79,0
48960,control_change,108,0,3,,,,,,,,,2,64,127,,
48960,note_on,0,0,1,,,,,,,,,0,,,78,62
48972,note_on,0,0,3,,,,,,,,,2,,,62,0
48972,note_on,12,0,3,,,,,,,,,2,,,66,0
49020,note_on,60,0,1,,,,,,,,,0,,,78,0
49080,note_on,0,0,3,,,,,,,,,2,,,57,67
49080,control_change,60,0,1,,,,,,,,,0,64,0,,
49080,note_on,0,0,1,,,,,,,,,0,,,78,88
49080,note_on,0,0,3,,,,,,,,,2,,,66,75
49080,control_change,108,0,3,,,,,,,,,2,64,0,,
49092,note_on,12,0,3,,,,,,,,,2,,,66,0
49092,note_on,0,0,3,,,,,,,,,2,,,57,0
49200,control_change,0,0,1,,,,,,,,,0,64,127,,
49200,note_on,0,0,1,,,,,,,,,0,,,76,62
49200,note_on,0,0,3,,,,,,,,,2,,,67,49
49200,note_on,0,0,3,,,,,,,,,2,,,61,49
49200,control_change,108,0,3,,,,,,,,,2,64,127,,
49200,note_on,120,0,1,,,,,,,,,0,,,78,0
49212,note_on,0,0,3,,,,,,,,,2,,,61,0
49212,note_on,12,0,3,,,,,,,,,2,,,67,0
49230,note_on,0,0,1,,,,,,,,,0,,,79,62
49230,note_on,30,0,1,,,,,,,,,0,,,76,0
49260,note_on,30,0,1,,,,,,,,,0,,,79,0
49260,note_on,0,0,1,,,,,,,,,0,,,76,62
49290,note_on,30,0,1,,,,,,,,,0,,,76,0
49290,note_on,0,0,1,,,,,,,,,0,,,79,62
49320,note_on,30,0,1,,,,,,,,,0,,,79,0
49320,note_on,0,0,3,,,,,,,,,2,,,67,49
49320,note_on,0,0,3,,,,,,,,,2,,,57,49
49320,control_change,108,0,3,,,,,,,,,2,64,0,,
49320,note_on,0,0,1,,,,,,,,,0,,,83,62
49332,note_on,0,0,3,,,,,,,,,2,,,57,0
49332,note_on,12,0,3,,,,,,,,,2,,,67,0
49350,note_on,0,0,1,,,,,,,,,0,,,81,62
49350,note_on,30,0,1,,,,,,,,,0,,,83,0
49380,note_on,0,0,1,,,,,,,,,0,,,79,62
49380,note_on,30,0,1,,,,,,,,,0,,,81,0
49410,note_on,30,0,1,,,,,,,,,0,,,79,0
49410,control_change,0,0,1,,,,,,,,,0,64,0,,
49410,note_on,0,0,1,,,,,,,,,0,,,73,62
49440,note_on,30,0,1,,,,,,,,,0,,,73,0
49440,control_change,0,0,1,,,,,,,,,0,64,127,,
49440,note_on,0,0,1,,,,,,,,,0,,,74,62
49440,note_on,0,0,3,,,,,,,,,2,,,66,49
49440,control_change,108,0,3,,,,,,,,,2,64,127,,
49440,note_on,0,0,3,,,,,,,,,2,,,62,49
49680,note_on,0,0,3,,,,,,,,,2,,,50,49
49680,note_on,240,0,3,,,,,,,,,2,,,66,0
49680,note_on,0,0,1,,,,,,,,,0,,,62,62
49680,control_change,0,0,3,,,,,,,,,2,64,127,,
49680,note_on,240,0,1,,,,,,,,,0,,,74,0
49680,control_change,0,0,1,,,,,,,,,0,64,127,,
49680,note_on,0,0,3,,,,,,,,,2,,,62,0
49710,note_on,30,0,3,,,,,,,,,2,,,50,0
49710,note_on,0,0,3,,,,,,,,,2,,,54,49
49710,note_on,0,0,1,,,,,,,,,0,,,66,62
49710,note_on,30,0,1,,,,,,,,,0,,,62,0
49740,note_on,30,0,3,,,,,,,,,2,,,54,0
49740,note_on,0,0,3,,,,,,,,,2,,,50,49
49740,note_on,0,0,1,,,,,,,,,0,,,62,62
49740,note_on,30,0,1,,,,,,,,,0,,,66,0
49770,note_on,30,0,3,,,,,,,,,2,,,50,0
49770,note_on,0,0,3,,,,,,,,,2,,,54,49
49770,note_on,30,0,1,,,,,,,,,0,,,62,0
49770,note_on,0,0,1,,,,,,,,,0,,,66,62
49800,note_on,0,0,3,,,,,,,,,2,,,59,49
49800,note_on,30,0,3,,,,,,,,,2,,,54,0
49800,note_on,30,0,1,,,,,,,,,0,,,66,0
49800,note_on,0,0,1,,,,,,,,,0,,,71,62
49830,note_on,30,0,3,,,,,,,,,2,,,59,0
49830,note_on,0,0,1,,,,,,,,,0,,,69,62
49830,note_on,0,0,3,,,,,,,,,2,,,57,49
49830,note_on,30,0,1,,,,,,,,,0,,,71,0
49860,note_on,0,0,3,,,,,,,,,2,,,54,49
49860,note_on,30,0,1,,,,,,,,,0,,,69,0
49860,note_on,30,0,3,,,,,,,,,2,,,57,0
49860,note_on,0,0,1,,,,,,,,,0,,,66,62
49890,control_change,0,0,3,,,,,,,,,2,64,0,,
49890,note_on,30,0,3,,,,,,,,,2,,,54,0
49890,note_on,30,0,1,,,,,,,,,0,,,66,0
49890,control_change,0,0,1,,,,,,,,,0,64,0,,
49890,note_on,0,0,3,,,,,,,,,2,,,50,49
49890,note_on,0,0,1,,,,,,,,,0,,,62,62
49920,note_on,30,0,1,,,,,,,,,0,,,62,0
49920,note_on,0,0,1,,,,,,,,,0,,,64,62
49920,control_change,0,0,1,,,,,,,,,0,64,127,,
49920,note_on,30,0,3,,,,,,,,,2,,,50,0
49920,control_change,0,0,3,,,,,,,,,2,64,127,,
49920,note_on,0,0,3,,,,,,,,,2,,,49,49
49920,note_on,0,0,3,,,,,,,,,2,,,55,49
49920,note_on,0,0,1,,,,,,,,,0,,,57,62
49932,note_on,12,0,3,,,,,,,,,2,,,55,0
49932,note_on,0,0,3,,,,,,,,,2,,,49,0
49980,note_on,60,0,1,,,,,,,,,0,,,64,0
49980,note_on,0,0,1,,,,,,,,,0,,,57,0
50040,note_on,0,0,1,,,,,,,,,0,,,64,88
50040,note_on,0,0,1,,,,,,,,,0,,,57,80
50040,control_change,60,0,1,,,,,,,,,0,64,0,,
50040,control_change,108,0,3,,,,,,,,,2,64,0,,
50040,note_on,0,0,3,,,,,,,,,2,,,45,67
50040,note_on,0,0,3,,,,,,,,,2,,,55,75
50052,note_on,12,0,3,,,,,,,,,2,,,55,0
50052,note_on,0,0,3,,,,,,,,,2,,,45,0
50160,note_on,0,0,3,,,,,,,,,2,,,49,49
50160,control_change,0,0,1,,,,,,,,,0,64,127,,
50160,note_on,0,0,1,,,,,,,,,0,,,64,62
50160,note_on,0,0,1,,,,,,,,,0,,,57,0
50160,control_change,108,0,3,,,,,,,,,2,64,127,,
50160,note_on,120,0,1,,,,,,,,,0,,,64,0
50160,note_on,0,0,3,,,,,,,,,2,,,55,49
50172,note_on,12,0,3,,,,,,,,,2,,,55,0
50172,note_on,0,0,3,,,,,,,,,2,,,49,0
50190,note_on,0,0,1,,,,,,,,,0,,,67,62
50190,note_on,30,0,1,,,,,,,,,0,,,64,0
50220,note_on,0,0,1,,,,,,,,,0,,,64,62
50220,note_on,30,0,1,,,,,,,,,0,,,67,0
50250,note_on,0,0,1,,,,,,,,,0,,,67,62
50250,note_on,30,0,1,,,,,,,,,0,,,64,0
50280,note_on,0,0,1,,,,,,,,,0,,,73,62
50280,note_on,30,0,1,,,,,,,,,0,,,67,0
50280,control_change,108,0,3,,,,,,,,,2,64,0,,
50280,note_on,0,0,3,,,,,,,,,2,,,45,49
50280,note_on,0,0,3,,,,,,,,,2,,,55,49
50292,note_on,0,0,3,,,,,,,,,2,,,45,0
50292,note_on,12,0,3,,,,,,,,,2,,,55,0
50310,note_on,30,0,1,,,,,,,,,0,,,73,0
50310,note_on,0,0,1,,,,,,,,,0,,,71,62
50340,note_on,0,0,1,,,,,,,,,0,,,67,62
50340,note_on,30,0,1,,,,,,,,,0,,,71,0
50370,note_on,0,0,1,,,,,,,,,0,,,64,62
50370,control_change,0,0,1,,,,,,,,,0,64,0,,
50370,note_on,30,0,1,,,,,,,,,0,,,67,0
50400,note_on,0,0,1,,,,,,,,,0,,,66,88
50400,note_on,0,0,1,,,,,,,,,0,,,62,83
50400,note_on,0,0,1,,,,,,,,,0,,,57,78
50400,note_on,30,0,1,,,,,,,,,0,,,64,0
50400,note_on,0,0,3,,,,,,,,,2,,,50,67
50400,control_change,108,0,3,,,,,,,,,2,64,127,,
50400,note_on,0,0,3,,,,,,,,,2,,,54,75
50412,note_on,12,0,3,,,,,,,,,2,,,54,0
50412,note_on,0,0,3,,,,,,,,,2,,,50,0
50520,control_change,108,0,3,,,,,,,,,2,64,0,,
50520,note_on,0,0,3,,,,,,,,,2,,,45,49
50520,note_on,0,0,3,,,,,,,,,2,,,54,49
50532,note_on,12,0,3,,,,,,,,,2,,,54,0
50532,note_on,0,0,3,,,,,,,,,2,,,45,0
50640,control_change,108,0,3,,,,,,,,,2,64,127,,
50640,note_on,0,0,3,,,,,,,,,2,,,50,67
50640,note_on,0,0,3,,,,,,,,,2,,,54,75
50640,note_on,240,0,1,,,,,,,,,0,,,66,0
50640,note_on,0,0,1,,,,,,,,,0,,,62,0
50640,control_change,0,0,1,,,,,,,,,0,64,127,,
50640,note_on,0,0,1,,,,,,,,,0,,,74,88
50640,note_on,0,0,1,,,,,,,,,0,,,57,0
50652,note_on,12,0,3,,,,,,,,,2,,,54,0
50652,note_on,0,0,3,,,,,,,,,2,,,50,0
50670,note_on,30,0,1,,,,,,,,,0,,,74,0
50670,note_on,0,0,1,,,,,,,,,0,,,78,62
50700,note_on,0,0,1,,,,,,,,,0,,,74,62
50700,note_on,30,0,1,,,,,,,,,0,,,78,0
50730,note_on,0,0,1,,,,,,,,,0,,,78,62
50730,note_on,30,0,1,,,,,,,,,0,,,74,0
50760,note_on,0,0,3,,,,,,,,,2,,,54,49
50760,note_on,0,0,1,,,,,,,,,0,,,83,62
50760,note_on,30,0,1,,,,,,,,,0,,,78,0
50760,control_change,108,0,3,,,,,,,,,2,64,0,,
50760,note_on,0,0,3,,,,,,,,,2,,,57,49
50772,note_on,12,0,3,,,,,,,,,2,,,57,0
50772,note_on,0,0,3,,,,,,,,,2,,,54,0
50790,note_on,0,0,1,,,,,,,,,0,,,81,62
50790,note_on,30,0,1,,,,,,,,,0,,,83,0
50820,note_on,30,0,1,,,,,,,,,0,,,81,0
50820,note_on,0,0,1,,,,,,,,,0,,,78,62
50850,note_on,0,0,1,,,,,,,,,0,,,74,62
50850,note_on,30,0,1,,,,,,,,,0,,,78,0
50850,control_change,0,0,1,,,,,,,,,0,64,0,,
50880,control_change,0,0,1,,,,,,,,,0,64,127,,
50880,note_on,0,0,1,,,,,,,,,0,,,73,88
50880,control_change,108,0,3,,,,,,,,,2,64,127,,
50880,note_on,0,0,3,,,,,,,,,2,,,52,67
50880,note_on,0,0,3,,,,,,,,,2,,,61,75
50880,note_on,30,0,1,,,,,,,,,0,,,74,0
50892,note_on,12,0,3,,,,,,,,,2,,,61,0
50892,note_on,0,0,3,,,,,,,,,2,,,52,0
50910,note_on,30,0,1,,,,,,,,,0,,,73,0
50910,note_on,0,0,1,,,,,,,,,0,,,69,62
50940,note_on,0,0,1,,,,,,,,,0,,,73,62
50940,note_on,30,0,1,,,,,,,,,0,,,69,0
50970,note_on,0,0,1,,,,,,,,,0,,,69,62
50970,note_on,30,0,1,,,,,,,,,0,,,73,0
51000,note_on,30,0,1,,,,,,,,,0,,,69,0
51000,note_on,0,0,1,,,,,,,,,0,,,78,62
51000,note_on,0,0,3,,,,,,,,,2,,,57,49
51000,note_on,0,0,3,,,,,,,,,2,,,61,49
51000,control_change,108,0,3,,,,,,,,,2,64,0,,
51012,note_on,0,0,3,,,,,,,,,2,,,57,0
51012,note_on,12,0,3,,,,,,,,,2,,,61,0
51030,note_on,30,0,1,,,,,,,,,0,,,78,0
51030,note_on,0,0,1,,,,,,,,,0,,,76,62
51060,note_on,0,0,1,,,,,,,,,0,,,73,62
51060,note_on,30,0,1,,,,,,,,,0,,,76,0
51090,note_on,0,0,1,,,,,,,,,0,,,69,62
51090,control_change,0,0,1,,,,,,,,,0,64,0,,
51090,note_on,30,0,1,,,,,,,,,0,,,73,0
51120,note_on,0,0,3,,,,,,,,,2,,,59,49
51120,note_on,0,0,3,,,,,,,,,2,,,62,49
51120,control_change,108,0,3,,,,,,,,,2,64,127,,
51120,note_on,0,0,1,,,,,,,,,0,,,68,62
51120,control_change,0,0,1,,,,,,,,,0,64,127,,
51120,note_on,30,0,1,,,,,,,,,0,,,69,0
51132,note_on,12,0,3,,,,,,,,,2,,,62,0
51132,note_on,0,0,3,,,,,,,,,2,,,59,0
51150,note_on,0,0,1,,,,,,,,,0,,,64,62
51150,note_on,30,0,1,,,,,,,,,0,,,68,0
51180,note_on,0,0,1,,,,,,,,,0,,,68,62
51180,note_on,30,0,1,,,,,,,,,0,,,64,0
51210,note_on,0,0,1,,,,,,,,,0,,,64,62
51210,note_on,30,0,1,,,,,,,,,0,,,68,0
51240,note_on,0,0,1,,,,,,,,,0,,,68,62
51240,note_on,30,0,1,,,,,,,,,0,,,64,0
51240,note_on,0,0,3,,,,,,,,,2,,,62,49
51240,note_on,0,0,3,,,,,,,,,2,,,52,49
51240,control_change,108,0,3,,,,,,,,,2,64,0,,
51252,note_on,0,0,3,,,,,,,,,2,,,52,0
51252,note_on,12,0,3,,,,,,,,,2,,,62,0
51270,note_on,30,0,1,,,,,,,,,0,,,68,0
51270,note_on,0,0,1,,,,,,,,,0,,,76,62
51300,note_on,30,0,1,,,,,,,,,0,,,76,0
51300,note_on,0,0,1,,,,,,,,,0,,,74,62
51330,note_on,0,0,1,,,,,,,,,0,,,71,62
51330,control_change,0,0,1,,,,,,,,,0,64,0,,
51330,note_on,30,0,1,,,,,,,,,0,,,74,0
51360,note_on,0,0,1,,,,,,,,,0,,,69,62
51360,control_change,0,0,1,,,,,,,,,0,64,127,,
51360,note_on,30,0,1,,,,,,,,,0,,,71,0
51360,note_on,108,0,3,,,,,,,,,2,,,57,49
51360,note_on,0,0,3,,,,,,,,,2,,,61,49
51480,note_on,120,0,1,,,,,,,,,0,,,69,0
51480,control_change,0,0,1,,,,,,,,,0,64,0,,
51480,note_on,0,0,1,,,,,,,,,0,,,73,62
51480,note_on,0,0,1,,,,,,,,,0,,,76,62
51492,note_on,12,0,1,,,,,,,,,0,,,76,0
51492,note_on,0,0,1,,,,,,,,,0,,,73,0
51600,note_on,0,0,1,,,,,,,,,0,,,76,62
51600,note_on,0,0,1,,,,,,,,,0,,,69,62
51600,note_on,0,0,1,,,,,,,,,0,,,73,62
51600,control_change,108,0,1,,,,,,,,,0,64,127,,
51600,control_change,0,0,3,,,,,,,,,2,64,127,,
51600,note_on,240,0,3,,,,,,,,,2,,,61,0
51600,note_on,0,0,3,,,,,,,,,2,,,57,0
51600,note_on,0,0,3,,,,,,,,,2,,,57,49
51612,note_on,12,0,1,,,,,,,,,0,,,76,0
51612,note_on,0,0,1,,,,,,,,,0,,,69,0
51612,note_on,0,0,1,,,,,,,,,0,,,73,0
51630,note_on,30,0,3,,,,,,,,,2,,,57,0
51630,note_on,0,0,3,,,,,,,,,2,,,61,49
51660,note_on,30,0,3,,,,,,,,,2,,,61,0
51660,note_on,0,0,3,,,,,,,,,2,,,57,49
51690,note_on,0,0,3,,,,,,,,,2,,,61,49
51690,note_on,30,0,3,,,,,,,,,2,,,57,0
51720,control_change,108,0,1,,,,,,,,,0,64,0,,
51720,note_on,0,0,1,,,,,,,,,0,,,73,62
51720,note_on,0,0,1,,,,,,,,,0,,,76,62
51720,note_on,0,0,3,,,,,,,,,2,,,66,49
51720,note_on,30,0,3,,,,,,,,,2,,,61,0
51732,note_on,12,0,1,,,,,,,,,0,,,76,0
51732,note_on,0,0,1,,,,,,,,,0,,,73,0
51750,note_on,30,0,3,,,,,,,,,2,,,66,0
51750,note_on,0,0,3,,,,,,,,,2,,,64,49
51780,note_on,30,0,3,,,,,,,,,2,,,64,0
51780,note_on,0,0,3,,,,,,,,,2,,,61,49
51810,control_change,0,0,3,,,,,,,,,2,64,0,,
51810,note_on,0,0,3,,,,,,,,,2,,,57,49
51810,note_on,30,0,3,,,,,,,,,2,,,61,0
51840,note_on,0,0,1,,,,,,,,,0,,,78,62
51840,note_on,30,0,3,,,,,,,,,2,,,57,0
51840,control_change,108,0,1,,,,,,,,,0,64,127,,
51840,note_on,0,0,1,,,,,,,,,0,,,74,62
51840,control_change,0,0,3,,,,,,,,,2,64,127,,
51840,note_on,0,0,3,,,,,,,,,2,,,57,49
51852,note_on,12,0,1,,,,,,,,,0,,,78,0
51852,note_on,0,0,1,,,,,,,,,0,,,74,0
51960,note_on,120,0,3,,,,,,,,,2,,,57,0
51960,control_change,108,0,1,,,,,,,,,0,64,0,,
51960,control_change,0,0,3,,,,,,,,,2,64,0,,
51960,note_on,0,0,1,,,,,,,,,0,,,76,62
51960,note_on,0,0,1,,,,,,,,,0,,,74,62
51960,note_on,0,0,1,,,,,,,,,0,,,71,62
51960,note_on,0,0,3,,,,,,,,,2,,,56,49
51972,note_on,0,0,1,,,,,,,,,0,,,71,0
51972,note_on,0,0,1,,,,,,,,,0,,,74,0
51972,note_on,12,0,1,,,,,,,,,0,,,76,0
52020,note_on,60,0,3,,,,,,,,,2,,,56,0
52080,control_change,60,0,3,,,,,,,,,2,64,127,,
52080,note_on,0,0,3,,,,,,,,,2,,,59,49
52080,control_change,108,0,1,,,,,,,,,0,64,127,,
52080,note_on,0,0,1,,,,,,,,,0,,,71,62
52080,note_on,0,0,1,,,,,,,,,0,,,76,62
52080,note_on,0,0,1,,,,,,,,,0,,,68,62
52092,note_on,12,0,1,,,,,,,,,0,,,76,0
52092,note_on,0,0,1,,,,,,,,,0,,,68,0
52092,note_on,0,0,1,,,,,,,,,0,,,71,0
52110,note_on,30,0,3,,,,,,,,,2,,,59,0
52110,note_on,0,0,3,,,,,,,,,2,,,62,49
52140,note_on,0,0,3,,,,,,,,,2,,,59,49
52140,note_on,30,0,3,,,,,,,,,2,,,62,0
52170,note_on,30,0,3,,,,,,,,,2,,,59,0
52170,note_on,0,0,3,,,,,,,,,2,,,62,49
52200,note_on,0,0,3,,,,,,,,,2,,,66,49
52200,note_on,30,0,3,,,,,,,,,2,,,62,0
52200,control_change,108,0,1,,,,,,,,,0,64,0,,
52200,note_on,0,0,1,,,,,,,,,0,,,71,62
52200,note_on,0,0,1,,,,,,,,,0,,,74,62
52200,note_on,0,0,1,,,,,,,,,0,,,76,62
52212,note_on,12,0,1,,,,,,,,,0,,,76,0
52212,note_on,0,0,1,,,,,,,,,0,,,74,0
52212,note_on,0,0,1,,,,,,,,,0,,,71,0
52230,note_on,30,0,3,,,,,,,,,2,,,66,0
52230,note_on,0,0,3,,,,,,,,,2,,,64,49
52260,note_on,0,0,3,,,,,,,,,2,,,62,49
52260,note_on,30,0,3,,,,,,,,,2,,,64,0
52290,note_on,0,0,3,,,,,,,,,2,,,59,49
52290,control_change,0,0,3,,,,,,,,,2,64,0,,
52290,note_on,30,0,3,,,,,,,,,2,,,62,0
52320,control_change,108,0,1,,,,,,,,,0,64,127,,
52320,note_on,30,0,3,,,,,,,,,2,,,59,0
52320,control_change,0,0,3,,,,,,,,,2,64,127,,
52320,note_on,0,0,3,,,,,,,,,2,,,61,49
52320,note_on,0,0,1,,,,,,,,,0,,,78,62
52320,note_on,0,0,1,,,,,,,,,0,,,73,62
52320,note_on,0,0,1,,,,,,,,,0,,,69,62
52332,note_on,0,0,1,,,,,,,,,0,,,73,0
52332,note_on,12,0,1,,,,,,,,,0,,,78,0
52332,note_on,0,0,1,,,,,,,,,0,,,69,0
52440,control_change,108,0,1,,,,,,,,,0,64,0,,
52440,note_on,0,0,1,,,,,,,,,0,,,69,62
52440,note_on,0,0,1,,,,,,,,,0,,,76,62
52440,note_on,0,0,3,,,,,,,,,2,,,57,49
52440,control_change,0,0,3,,,,,,,,,2,64,0,,
52440,note_on,120,0,3,,,,,,,,,2,,,61,0
52440,note_on,0,0,1,,,,,,,,,0,,,73,62
52452,note_on,0,0,1,,,,,,,,,0,,,73,0
52452,note_on,12,0,1,,,,,,,,,0,,,76,0
52452,note_on,0,0,1,,,,,,,,,0,,,69,0
52500,note_on,60,0,3,,,,,,,,,2,,,57,0
52560,control_change,60,0,3,,,,,,,,,2,64,127,,
52560,note_on,0,0,3,,,,,,,,,2,,,55,49
52560,note_on,0,0,1,,,,,,,,,0,,,81,62
52560,note_on,0,0,1,,,,,,,,,0,,,76,62
52560,note_on,0,0,1,,,,,,,,,0,,,69,62
52560,note_on,0,0,1,,,,,,,,,0,,,73,62
52560,control_change,108,0,1,,,,,,,,,0,64,127,,
52572,note_on,12,0,1,,,,,,,,,0,,,81,0
52572,note_on,0,0,1,,,,,,,,,0,,,69,0
52572,note_on,0,0,1,,,,,,,,,0,,,73,0
52572,note_on,0,0,1,,,,,,,,,0,,,76,0
52590,note_on,30,0,3,,,,,,,,,2,,,55,0
52590,note_on,0,0,3,,,,,,,,,2,,,61,49
52620,note_on,30,0,3,,,,,,,,,2,,,61,0
52620,note_on,0,0,3,,,,,,,,,2,,,55,49
52650,note_on,30,0,3,,,,,,,,,2,,,55,0
52650,note_on,0,0,3,,,,,,,,,2,,,61,49
52680,note_on,0,0,1,,,,,,,,,0,,,81,62
52680,note_on,0,0,1,,,,,,,,,0,,,69,62
52680,note_on,0,0,1,,,,,,,,,0,,,73,62
52680,note_on,0,0,1,,,,,,,,,0,,,76,62
52680,note_on,0,0,3,,,,,,,,,2,,,66,49
52680,control_change,108,0,1,,,,,,,,,0,64,0,,
52680,note_on,30,0,3,,,,,,,,,2,,,61,0
52692,note_on,12,0,1,,,,,,,,,0,,,81,0
52692,note_on,0,0,1,,,,,,,,,0,,,69,0
52692,note_on,0,0,1,,,,,,,,,0,,,73,0
52692,note_on,0,0,1,,,,,,,,,0,,,76,0
52710,note_on,0,0,3,,,,,,,,,2,,,64,49
52710,note_on,30,0,3,,,,,,,,,2,,,66,0
52740,note_on,0,0,3,,,,,,,,,2,,,61,49
52740,note_on,30,0,3,,,,,,,,,2,,,64,0
52770,note_on,30,0,3,,,,,,,,,2,,,61,0
52770,control_change,0,0,3,,,,,,,,,2,64,0,,
52770,note_on,0,0,3,,,,,,,,,2,,,55,49
52800,note_on,0,0,1,,,,,,,,,0,,,74,62
52800,note_on,0,0,3,,,,,,,,,2,,,54,49
52800,note_on,0,0,1,,,,,,,,,0,,,81,62
52800,note_on,0,0,1,,,,,,,,,0,,,69,62
52800,control_change,108,0,1,,,,,,,,,0,64,127,,
52800,note_on,30,0,3,,,,,,,,,2,,,55,0
52800,control_change,0,0,3,,,,,,,,,2,64,127,,
52812,note_on,0,0,1,,,,,,,,,0,,,74,0
52812,note_on,12,0,1,,,,,,,,,0,,,81,0
52812,note_on,0,0,1,,,,,,,,,0,,,69,0
52830,note_on,0,0,3,,,,,,,,,2,,,57,49
52830,note_on,30,0,3,,,,,,,,,2,,,54,0
52860,note_on,0,0,3,,,,,,,,,2,,,54,49
52860,note_on,30,0,3,,,,,,,,,2,,,57,0
52890,note_on,30,0,3,,,,,,,,,2,,,54,0
52890,note_on,0,0,3,,,,,,,,,2,,,62,49
52920,note_on,0,0,1,,,,,,,,,0,,,71,75
52920,note_on,0,0,1,,,,,,,,,0,,,74,75
52920,control_change,108,0,1,,,,,,,,,0,64,0,,
52920,note_on,0,0,3,,,,,,,,,2,,,53,62
52920,control_change,0,0,3,,,,,,,,,2,64,0,,
52920,note_on,30,0,3,,,,,,,,,2,,,62,0
52920,note_on,0,0,1,,,,,,,,,0,,,83,75
52932,note_on,12,0,1,,,,,,,,,0,,,83,0
52932,note_on,0,0,1,,,,,,,,,0,,,71,0
52932,note_on,0,0,1,,,,,,,,,0,,,74,0
52950,note_on,0,0,3,,,,,,,,,2,,,57,62
52950,note_on,30,0,3,,,,,,,,,2,,,53,0
52980,note_on,0,0,3,,,,,,,,,2,,,53,62
52980,note_on,30,0,3,,,,,,,,,2,,,57,0
53010,note_on,0,0,3,,,,,,,,,2,,,62,62
53010,note_on,30,0,3,,,,,,,,,2,,,53,0
53040,control_change,108,0,1,,,,,,,,,0,64,127,,
53040,note_on,0,0,1,,,,,,,,,0,,,76,75
53040,note_on,0,0,3,,,,,,,,,2,,,52,62
53040,control_change,0,0,3,,,,,,,,,2,64,127,,
53040,note_on,30,0,3,,,,,,,,,2,,,62,0
53040,note_on,0,0,1,,,,,,,,,0,,,73,75
53070,note_on,0,0,3,,,,,,,,,2,,,61,62
53070,note_on,30,0,3,,,,,,,,,2,,,52,0
53100,note_on,0,0,3,,,,,,,,,2,,,57,62
53100,note_on,30,0,3,,,,,,,,,2,,,61,0
53130,note_on,30,0,3,,,,,,,,,2,,,57,0
53130,note_on,0,0,3,,,,,,,,,2,,,61,62
53160,note_on,30,0,3,,,,,,,,,2,,,61,0
53160,note_on,120,0,1,,,,,,,,,0,,,76,0
53160,note_on,0,0,1,,,,,,,,,0,,,74,62
53160,note_on,0,0,1,,,,,,,,,0,,,76,62
53160,control_change,0,0,3,,,,,,,,,2,64,0,,
53160,note_on,0,0,3,,,,,,,,,2,,,64,49
53160,note_on,0,0,1,,,,,,,,,0,,,73,0
53160,note_on,0,0,1,,,,,,,,,0,,,68,62
53160,control_change,0,0,1,,,,,,,,,0,64,0,,
53160,note_on,0,0,1,,,,,,,,,0,,,80,62
53190,note_on,0,0,3,,,,,,,,,2,,,62,49
53190,note_on,30,0,3,,,,,,,,,2,,,64,0
53220,note_on,30,0,3,,,,,,,,,2,,,62,0
53220,note_on,0,0,3,,,,,,,,,2,,,59,49
53250,note_on,0,0,3,,,,,,,,,2,,,61,49
53250,note_on,30,0,3,,,,,,,,,2,,,59,0
53280,note_on,120,0,1,,,,,,,,,0,,,80,0
53280,note_on,0,0,1,,,,,,,,,0,,,68,0
53280,note_on,0,0,1,,,,,,,,,0,,,74,0
53280,note_on,0,0,1,,,,,,,,,0,,,76,0
53280,note_on,0,0,1,,,,,,,,,0,,,69,62
53280,note_on,0,0,1,,,,,,,,,0,,,81,62
53280,note_on,0,0,1,,,,,,,,,0,,,76,62
53280,note_on,30,0,3,,,,,,,,,2,,,61,0
53280,control_change,0,0,3,,,,,,,,,2,64,127,,
53280,note_on,0,0,3,,,,,,,,,2,,,57,49
53280,note_on,0,0,1,,,,,,,,,0,,,73,62
53400,note_on,120,0,3,,,,,,,,,2,,,57,0
53400,note_on,0,0,3,,,,,,,,,2,,,57,49
53400,note_on,0,0,3,,,,,,,,,2,,,61,49
53400,note_on,0,0,3,,,,,,,,,2,,,69,49
53520,note_on,0,0,3,,,,,,,,,2,,,57,0
53520,note_on,120,0,3,,,,,,,,,2,,,69,0
53520,note_on,0,0,3,,,,,,,,,2,,,61,0
53520,note_on,0,0,3,,,,,,,,,2,,,59,49
53520,note_on,0,0,3,,,,,,,,,2,,,68,49
53520,note_on,0,0,1,,,,,,,,,0,,,69,0
53520,note_on,240,0,1,,,,,,,,,0,,,81,0
53520,control_change,0,0,3,,,,,,,,,2,64,0,,
53520,note_on,0,0,1,,,,,,,,,0,,,73,0
53520,note_on,0,0,1,,,,,,,,,0,,,76,0
53520,note_on,0,0,3,,,,,,,,,2,,,62,49
53640,note_on,0,0,3,,,,,,,,,2,,,64,49
53640,note_on,0,0,3,,,,,,,,,2,,,67,49
53640,note_on,120,0,3,,,,,,,,,2,,,68,0
53640,note_on,0,0,3,,,,,,,,,2,,,62,0
53640,note_on,0,0,3,,,,,,,,,2,,,59,0
53640,note_on,0,0,3,,,,,,,,,2,,,61,49
53760,control_change,0,0,3,,,,,,,,,2,64,127,,
53760,note_on,0,0,3,,,,,,,,,2,,,62,49
53760,note_on,0,0,3,,,,,,,,,2,,,61,0
53760,note_on,0,0,3,,,,,,,,,2,,,64,0
53760,note_on,120,0,3,,,,,,,,,2,,,67,0
53760,note_on,0,0,3,,,,,,,,,2,,,66,49
53772,note_on,0,0,3,,,,,,,,,2,,,62,0
53772,note_on,12,0,3,,,,,,,,,2,,,66,0
53880,note_on,108,0,3,,,,,,,,,2,,,57,49
53880,note_on,0,0,3,,,,,,,,,2,,,66,49
53892,note_on,12,0,3,,,,,,,,,2,,,66,0
53892,note_on,0,0,3,,,,,,,,,2,,,57,0
54000,note_on,0,0,1,,,,,,,,,0,,,81,88
54000,note_on,108,0,3,,,,,,,,,2,,,62,67
54000,note_on,0,0,3,,,,,,,,,2,,,66,75
54000,control_change,480,0,1,,,,,,,,,0,64,127,,
54012,note_on,12,0,3,,,,,,,,,2,,,66,0
54012,note_on,0,0,3,,,,,,,,,2,,,62,0
54030,note_on,30,0,1,,,,,,,,,0,,,81,0
54030,note_on,0,0,1,,,,,,,,,0,,,83,62
54060,note_on,30,0,1,,,,,,,,,0,,,83,0
54060,note_on,0,0,1,,,,,,,,,0,,,81,62
54090,note_on,30,0,1,,,,,,,,,0,,,81,0
54090,note_on,0,0,1,,,,,,,,,0,,,83,62
54120,note_on,30,0,1,,,,,,,,,0,,,83,0
54120,note_on,0,0,1,,,,,,,,,0,,,81,62
54120,note_on,0,0,3,,,,,,,,,2,,,66,49
54120,note_on,0,0,3,,,,,,,,,2,,,57,49
54120,control_change,108,0,3,,,,,,,,,2,64,0,,
54132,note_on,12,0,3,,,,,,,,,2,,,66,0
54132,note_on,0,0,3,,,,,,,,,2,,,57,0
54150,note_on,0,0,1,,,,,,,,,0,,,83,62
54150,note_on,30,0,1,,,,,,,,,0,,,81,0
54180,note_on,0,0,1,,,,,,,,,0,,,81,62
54180,note_on,30,0,1,,,,,,,,,0,,,83,0
54210,note_on,30,0,1,,,,,,,,,0,,,81,0
54210,control_change,0,0,1,,,,,,,,,0,64,0,,
54210,note_on,0,0,1,,,,,,,,,0,,,78,62
54240,note_on,0,0,3,,,,,,,,,2,,,66,49
54240,control_change,108,0,3,,,,,,,,,2,64,127,,
54240,note_on,30,0,1,,,,,,,,,0,,,78,0
54240,control_change,0,0,1,,,,,,,,,0,64,127,,
54240,note_on,0,0,3,,,,,,,,,2,,,62,49
54240,note_on,0,0,1,,,,,,,,,0,,,74,62
54252,note_on,12,0,3,,,,,,,,,2,,,66,0
54252,note_on,0,0,3,,,,,,,,,2,,,62,0
54300,note_on,60,0,1,,,,,,,,,0,,,74,0
54360,control_change,60,0,1,,,,,,,,,0,64,0,,
54360,note_on,0,0,3,,,,,,,,,2,,,57,67
54360,note_on,0,0,1,,,,,,,,,0,,,74,88
54360,control_change,108,0,3,,,,,,,,,2,64,0,,
54360,note_on,0,0,3,,,,,,,,,2,,,66,75
54372,note_on,0,0,3,,,,,,,,,2,,,57,0
54372,note_on,12,0,3,,,,,,,,,2,,,66,0
54480,note_on,0,0,3,,,,,,,,,2,,,67,49
54480,control_change,0,0,1,,,,,,,,,0,64,127,,
54480,note_on,0,0,3,,,,,,,,,2,,,64,49
54480,note_on,120,0,1,,,,,,,,,0,,,74,0
54480,note_on,0,0,1,,,,,,,,,0,,,73,62
54480,control_change,108,0,3,,,,,,,,,2,64,127,,
54492,note_on,0,0,3,,,,,,,,,2,,,64,0
54492,note_on,12,0,3,,,,,,,,,2,,,67,0
54510,note_on,0,0,1,,,,,,,,,0,,,71,62
54510,note_on,30,0,1,,,,,,,,,0,,,73,0
54540,note_on,30,0,1,,,,,,,,,0,,,71,0
54540,note_on,0,0,1,,,,,,,,,0,,,73,62
54570,note_on,30,0,1,,,,,,,,,0,,,73,0
54570,note_on,0,0,1,,,,,,,,,0,,,74,62
54600,note_on,30,0,1,,,,,,,,,0,,,74,0
54600,note_on,0,0,1,,,,,,,,,0,,,73,62
54600,control_change,108,0,3,,,,,,,,,2,64,0,,
54600,note_on,0,0,3,,,,,,,,,2,,,67,49
54600,note_on,0,0,3,,,,,,,,,2,,,57,49
54612,note_on,12,0,3,,,,,,,,,2,,,67,0
54612,note_on,0,0,3,,,,,,,,,2,,,57,0
54630,note_on,30,0,1,,,,,,,,,0,,,73,0
54630,note_on,0,0,1,,,,,,,,,0,,,74,62
54660,note_on,30,0,1,,,,,,,,,0,,,74,0
54660,note_on,0,0,1,,,,,,,,,0,,,76,62
54690,note_on,30,0,1,,,,,,,,,0,,,76,0
54690,control_change,0,0,1,,,,,,,,,0,64,0,,
54690,note_on,0,0,1,,,,,,,,,0,,,73,62
54720,note_on,30,0,1,,,,,,,,,0,,,73,0
54720,control_change,0,0,1,,,,,,,,,0,64,127,,
54720,note_on,0,0,1,,,,,,,,,0,,,69,62
54720,note_on,0,0,3,,,,,,,,,2,,,62,49
54720,note_on,0,0,3,,,,,,,,,2,,,66,49
54720,control_change,108,0,3,,,,,,,,,2,64,127,,
54840,control_change,0,0,1,,,,,,,,,0,64,0,,
54840,note_on,120,0,1,,,,,,,,,0,,,69,0
54840,note_on,0,0,3,,,,,,,,,2,,,66,49
54840,note_on,0,0,3,,,,,,,,,2,,,57,49
54840,control_change,0,0,3,,,,,,,,,2,64,0,,
54840,note_on,0,0,3,,,,,,,,,2,,,62,0
54840,note_on,120,0,3,,,,,,,,,2,,,66,0
54840,note_on,0,0,1,,,,,,,,,0,,,74,62
54900,note_on,60,0,1,,,,,,,,,0,,,74,0
54960,note_on,0,0,3,,,,,,,,,2,,,57,0
54960,control_change,0,0,3,,,,,,,,,2,64,127,,
54960,control_change,60,0,1,,,,,,,,,0,64,127,,
54960,note_on,0,0,3,,,,,,,,,2,,,61,49
54960,note_on,0,0,1,,,,,,,,,0,,,76,62
54960,note_on,120,0,3,,,,,,,,,2,,,66,0
54960,note_on,0,0,3,,,,,,,,,2,,,67,49
54990,note_on,30,0,1,,,,,,,,,0,,,76,0
54990,note_on,0,0,1,,,,,,,,,0,,,79,62
55020,note_on,0,0,1,,,,,,,,,0,,,76,62
55020,note_on,30,0,1,,,,,,,,,0,,,79,0
55050,note_on,30,0,1,,,,,,,,,0,,,76,0
55050,note_on,0,0,1,,,,,,,,,0,,,79,62
55080,note_on,0,0,3,,,,,,,,,2,,,67,49
55080,note_on,0,0,3,,,,,,,,,2,,,57,49
55080,control_change,0,0,3,,,,,,,,,2,64,0,,
55080,note_on,0,0,3,,,,,,,,,2,,,61,0
55080,note_on,120,0,3,,,,,,,,,2,,,67,0
55080,note_on,30,0,1,,,,,,,,,0,,,79,0
55080,note_on,0,0,1,,,,,,,,,0,,,83,62
55110,note_on,0,0,1,,,,,,,,,0,,,81,62
55110,note_on,30,0,1,,,,,,,,,0,,,83,0
55140,note_on,0,0,1,,,,,,,,,0,,,83,62
55140,note_on,30,0,1,,,,,,,,,0,,,81,0
55170,note_on,0,0,1,,,,,,,,,0,,,81,62
55170,control_change,0,0,1,,,,,,,,,0,64,0,,
55170,note_on,30,0,1,,,,,,,,,0,,,83,0
55200,note_on,120,0,3,,,,,,,,,2,,,67,0
55200,control_change,0,0,1,,,,,,,,,0,64,127,,
55200,note_on,30,0,1,,,,,,,,,0,,,81,0
55200,note_on,0,0,3,,,,,,,,,2,,,66,49
55200,note_on,0,0,3,,,,,,,,,2,,,62,49
55200,control_change,0,0,3,,,,,,,,,2,64,127,,
55200,note_on,0,0,3,,,,,,,,,2,,,57,0
55200,note_on,0,0,1,,,,,,,,,0,,,81,62
55260,note_on,60,0,1,,,,,,,,,0,,,81,0
55320,note_on,0,0,1,,,,,,,,,0,,,81,88
55320,control_change,60,0,1,,,,,,,,,0,64,0,,
55320,note_on,0,0,3,,,,,,,,,2,,,62,0
55320,control_change,0,0,3,,,,,,,,,2,64,0,,
55320,note_on,0,0,3,,,,,,,,,2,,,57,67
55320,note_on,0,0,3,,,,,,,,,2,,,66,75
55320,note_on,120,0,3,,,,,,,,,2,,,66,0
55440,control_change,120,0,1,,,,,,,,,0,64,127,,
55440,note_on,0,0,3,,,,,,,,,2,,,62,49
55440,note_on,0,0,3,,,,,,,,,2,,,67,49
55440,control_change,0,0,3,,,,,,,,,2,64,127,,
55440,note_on,0,0,3,,,,,,,,,2,,,57,0
55440,note_on,120,0,3,,,,,,,,,2,,,66,0
55440,note_on,0,0,3,,,,,,,,,2,,,59,49
55470,note_on,30,0,1,,,,,,,,,0,,,81,0
55470,note_on,0,0,1,,,,,,,,,0,,,79,62
55500,note_on,30,0,1,,,,,,,,,0,,,79,0
55500,note_on,0,0,1,,,,,,,,,0,,,81,62
55530,note_on,30,0,1,,,,,,,,,0,,,81,0
55530,note_on,0,0,1,,,,,,,,,0,,,83,62
55560,note_on,0,0,3,,,,,,,,,2,,,55,49
55560,note_on,0,0,3,,,,,,,,,2,,,67,49
55560,note_on,0,0,3,,,,,,,,,2,,,62,49
55560,control_change,0,0,3,,,,,,,,,2,64,0,,
55560,note_on,0,0,3,,,,,,,,,2,,,59,0
55560,note_on,0,0,3,,,,,,,,,2,,,62,0
55560,note_on,120,0,3,,,,,,,,,2,,,67,0
55560,note_on,30,0,1,,,,,,,,,0,,,83,0
55560,note_on,0,0,1,,,,,,,,,0,,,85,62
55590,note_on,0,0,1,,,,,,,,,0,,,86,62
55590,note_on,30,0,1,,,,,,,,,0,,,85,0
55620,note_on,0,0,1,,,,,,,,,0,,,85,62
55620,note_on,30,0,1,,,,,,,,,0,,,86,0
55650,note_on,0,0,1,,,,,,,,,0,,,83,62
55650,note_on,30,0,1,,,,,,,,,0,,,85,0
55650,control_change,0,0,1,,,,,,,,,0,64,0,,
55680,note_on,0,0,3,,,,,,,,,2,,,62,49
55680,note_on,0,0,3,,,,,,,,,2,,,66,49
55680,note_on,0,0,3,,,,,,,,,2,,,55,0
55680,note_on,0,0,1,,,,,,,,,0,,,81,62
55680,note_on,30,0,1,,,,,,,,,0,,,83,0
55680,note_on,0,0,3,,,,,,,,,2,,,62,0
55680,note_on,120,0,3,,,,,,,,,2,,,67,0
55680,control_change,0,0,3,,,,,,,,,2,64,127,,
55800,note_on,120,0,3,,,,,,,,,2,,,66,0
55800,control_change,0,0,3,,,,,,,,,2,64,0,,
55800,note_on,0,0,3,,,,,,,,,2,,,57,49
55800,note_on,0,0,3,,,,,,,,,2,,,62,0
55800,note_on,0,0,3,,,,,,,,,2,,,66,49
55920,note_on,240,0,1,,,,,,,,,0,,,81,0
55920,control_change,0,0,1,,,,,,,,,0,64,127,,
55920,note_on,0,0,1,,,,,,,,,0,,,81,62
55920,note_on,0,0,3,,,,,,,,,2,,,65,36
55920,note_on,0,0,3,,,,,,,,,2,,,62,36
55920,control_change,0,0,3,,,,,,,,,2,64,127,,
55920,note_on,120,0,3,,,,,,,,,2,,,66,0
55920,note_on,0,0,3,,,,,,,,,2,,,57,0
55950,note_on,30,0,1,,,,,,,,,0,,,81,0
55950,note_on,0,0,1,,,,,,,,,0,,,82,62
55980,note_on,0,0,1,,,,,,,,,0,,,81,62
55980,note_on,30,0,1,,,,,,,,,0,,,82,0
56010,note_on,30,0,1,,,,,,,,,0,,,81,0
56010,note_on,0,0,1,,,,,,,,,0,,,82,62
56040,note_on,30,0,1,,,,,,,,,0,,,82,0
56040,note_on,0,0,1,,,,,,,,,0,,,81,62
56040,note_on,0,0,3,,,,,,,,,2,,,57,36
56040,control_change,0,0,3,,,,,,,,,2,64,0,,
56040,note_on,0,0,3,,,,,,,,,2,,,62,0
56040,note_on,120,0,3,,,,,,,,,2,,,65,0
56040,note_on,0,0,3,,,,,,,,,2,,,65,36
56070,note_on,30,0,1,,,,,,,,,0,,,81,0
56070,note_on,0,0,1,,,,,,,,,0,,,82,62
56100,note_on,30,0,1,,,,,,,,,0,,,82,0
56100,note_on,0,0,1,,,,,,,,,0,,,81,62
56130,note_on,0,0,1,,,,,,,,,0,,,77,62
56130,note_on,30,0,1,,,,,,,,,0,,,81,0
56130,control_change,0,0,1,,,,,,,,,0,64,0,,
56160,note_on,30,0,1,,,,,,,,,0,,,77,0
56160,note_on,0,0,1,,,,,,,,,0,,,74,62
56160,note_on,0,0,3,,,,,,,,,2,,,65,36
56160,note_on,0,0,3,,,,,,,,,2,,,62,36
56160,control_change,0,0,3,,,,,,,,,2,64,127,,
56160,note_on,0,0,3,,,,,,,,,2,,,57,0
56160,note_on,120,0,3,,,,,,,,,2,,,65,0
56160,control_change,0,0,1,,,,,,,,,0,64,127,,
56220,note_on,60,0,1,,,,,,,,,0,,,74,0
56280,control_change,60,0,1,,,,,,,,,0,64,0,,
56280,note_on,0,0,1,,,,,,,,,0,,,74,62
56280,note_on,0,0,3,,,,,,,,,2,,,65,36
56280,note_on,0,0,3,,,,,,,,,2,,,57,36
56280,control_change,0,0,3,,,,,,,,,2,64,0,,
56280,note_on,0,0,3,,,,,,,,,2,,,62,0
56280,note_on,120,0,3,,,,,,,,,2,,,65,0
56400,note_on,120,0,1,,,,,,,,,0,,,74,0
56400,control_change,0,0,1,,,,,,,,,0,64,127,,
56400,note_on,0,0,1,,,,,,,,,0,,,77,62
56400,control_change,39120,0,2,,,,,,,,,1,64,127,,
56400,note_on,0,0,2,,,,,,,,,1,,,69,36
56400,note_on,0,0,3,,,,,,,,,2,,,65,36
56400,note_on,0,0,3,,,,,,,,,2,,,63,36
56400,note_on,0,0,3,,,,,,,,,2,,,60,36
56400,control_change,0,0,3,,,,,,,,,2,64,127,,
56400,note_on,0,0,3,,,,,,,,,2,,,57,0
56400,note_on,120,0,3,,,,,,,,,2,,,65,0
56430,note_on,0,0,1,,,,,,,,,0,,,76,62
56430,note_on,30,0,1,,,,,,,,,0,,,77,0
56460,note_on,0,0,1,,,,,,,,,0,,,77,62
56460,note_on,30,0,1,,,,,,,,,0,,,76,0
56490,note_on,30,0,1,,,,,,,,,0,,,77,0
56490,note_on,0,0,1,,,,,,,,,0,,,76,62
56520,note_on,30,0,1,,,,,,,,,0,,,76,0
56520,note_on,0,0,3,,,,,,,,,2,,,60,0
56520,control_change,0,0,3,,,,,,,,,2,64,0,,
56520,note_on,0,0,3,,,,,,,,,2,,,53,36
56520,note_on,0,0,3,,,,,,,,,2,,,63,36
56520,note_on,0,0,3,,,,,,,,,2,,,65,36
56520,note_on,0,0,1,,,,,,,,,0,,,79,62
56520,note_on,0,0,3,,,,,,,,,2,,,63,0
56520,note_on,120,0,3,,,,,,,,,2,,,65,0
56520,control_change,0,0,2,,,,,,,,,1,64,0,,
56520,note_on,120,0,2,,,,,,,,,1,,,69,0
56520,note_on,0,0,2,,,,,,,,,1,,,69,36
56550,note_on,0,0,1,,,,,,,,,0,,,77,62
56550,note_on,30,0,1,,,,,,,,,0,,,79,0
56580,note_on,0,0,1,,,,,,,,,0,,,79,62
56580,note_on,30,0,1,,,,,,,,,0,,,77,0
56610,note_on,30,0,1,,,,,,,,,0,,,79,0
56610,control_change,0,0,1,,,,,,,,,0,64,0,,
56610,note_on,0,0,1,,,,,,,,,0,,,77,62
56640,note_on,30,0,1,,,,,,,,,0,,,77,0
56640,control_change,0,0,1,,,,,,,,,0,64,127,,
56640,note_on,120,0,3,,,,,,,,,2,,,65,0
56640,note_on,120,0,2,,,,,,,,,1,,,69,0
56640,note_on,0,0,3,,,,,,,,,2,,,53,0
56640,control_change,0,0,3,,,,,,,,,2,64,127,,
56640,note_on,0,0,3,,,,,,,,,2,,,62,36
56640,note_on,0,0,3,,,,,,,,,2,,,65,36
56640,note_on,0,0,1,,,,,,,,,0,,,70,62
56640,note_on,0,0,1,,,,,,,,,0,,,77,62
56640,note_on,0,0,3,,,,,,,,,2,,,63,0
56640,note_on,0,0,3,,,,,,,,,2,,,58,36
56760,note_on,0,0,3,,,,,,,,,2,,,62,0
56760,note_on,0,0,3,,,,,,,,,2,,,58,0
56760,control_change,0,0,3,,,,,,,,,2,64,0,,
56760,note_on,0,0,3,,,,,,,,,2,,,53,36
56760,note_on,0,0,3,,,,,,,,,2,,,62,36
56760,note_on,0,0,3,,,,,,,,,2,,,65,36
56760,note_on,0,0,1,,,,,,,,,0,,,82,62
56760,control_change,0,0,1,,,,,,,,,0,64,0,,
56760,note_on,120,0,1,,,,,,,,,0,,,77,0
56760,note_on,120,0,3,,,,,,,,,2,,,65,0
56820,note_on,0,0,1,,,,,,,,,0,,,70,0
56820,note_on,60,0,1,,,,,,,,,0,,,82,0
56880,note_on,0,0,1,,,,,,,,,0,,,86,62
56880,control_change,60,0,1,,,,,,,,,0,64,127,,
56880,note_on,120,0,3,,,,,,,,,2,,,65,0
56880,note_on,0,0,3,,,,,,,,,2,,,65,36
56880,note_on,0,0,3,,,,,,,,,2,,,58,36
56880,control_change,0,0,3,,,,,,,,,2,64,127,,
56880,note_on,0,0,3,,,,,,,,,2,,,53,0
56880,note_on,0,0,3,,,,,,,,,2,,,62,36
56880,note_on,0,0,3,,,,,,,,,2,,,62,0
56910,note_on,30,0,1,,,,,,,,,0,,,86,0
56910,note_on,0,0,1,,,,,,,,,0,,,88,62
56940,note_on,0,0,1,,,,,,,,,0,,,86,62
56940,note_on,30,0,1,,,,,,,,,0,,,88,0
56970,note_on,30,0,1,,,,,,,,,0,,,86,0
56970,note_on,0,0,1,,,,,,,,,0,,,85,62
57000,note_on,0,0,3,,,,,,,,,2,,,58,0
57000,control_change,0,0,3,,,,,,,,,2,64,0,,
57000,note_on,0,0,3,,,,,,,,,2,,,58,36
57000,note_on,0,0,3,,,,,,,,,2,,,62,36
57000,note_on,0,0,3,,,,,,,,,2,,,68,36
57000,note_on,120,0,3,,,,,,,,,2,,,65,0
57000,note_on,0,0,3,,,,,,,,,2,,,62,0
57000,note_on,30,0,1,,,,,,,,,0,,,85,0
57000,note_on,0,0,1,,,,,,,,,0,,,86,62
57030,note_on,30,0,1,,,,,,,,,0,,,86,0
57030,note_on,0,0,1,,,,,,,,,0,,,88,62
57060,note_on,30,0,1,,,,,,,,,0,,,88,0
57060,note_on,0,0,1,,,,,,,,,0,,,89,62
57090,note_on,0,0,1,,,,,,,,,0,,,86,62
57090,control_change,0,0,1,,,,,,,,,0,64,0,,
57090,note_on,30,0,1,,,,,,,,,0,,,89,0
57120,note_on,0,0,1,,,,,,,,,0,,,81,62
57120,note_on,120,0,3,,,,,,,,,2,,,68,0
57120,note_on,0,0,3,,,,,,,,,2,,,62,0
57120,note_on,0,0,3,,,,,,,,,2,,,58,0
57120,control_change,0,0,3,,,,,,,,,2,64,127,,
57120,note_on,0,0,3,,,,,,,,,2,,,62,36
57120,note_on,0,0,3,,,,,,,,,2,,,69,36
57120,control_change,0,0,1,,,,,,,,,0,64,127,,
57120,note_on,30,0,1,,,,,,,,,0,,,86,0
57120,note_on,0,0,3,,,,,,,,,2,,,66,36
57180,note_on,60,0,1,,,,,,,,,0,,,81,0
57240,note_on,120,0,3,,,,,,,,,2,,,69,0
57240,note_on,0,0,3,,,,,,,,,2,,,66,0
57240,note_on,0,0,3,,,,,,,,,2,,,62,0
57240,control_change,0,0,3,,,,,,,,,2,64,0,,
57240,note_on,0,0,3,,,,,,,,,2,,,57,52
57240,note_on,0,0,3,,,,,,,,,2,,,66,57
57240,note_on,0,0,1,,,,,,,,,0,,,81,88
57240,control_change,60,0,1,,,,,,,,,0,64,0,,
57240,note_on,0,0,3,,,,,,,,,2,,,69,62
57360,note_on,0,0,3,,,,,,,,,2,,,66,0
57360,control_change,0,0,3,,,,,,,,,2,64,127,,
57360,note_on,0,0,3,,,,,,,,,2,,,61,36
57360,note_on,0,0,3,,,,,,,,,2,,,67,36
57360,note_on,0,0,3,,,,,,,,,2,,,69,36
57360,note_on,120,0,1,,,,,,,,,0,,,81,0
57360,control_change,0,0,1,,,,,,,,,0,64,127,,
57360,note_on,0,0,1,,,,,,,,,0,,,76,62
57360,note_on,120,0,3,,,,,,,,,2,,,69,0
57360,note_on,0,0,3,,,,,,,,,2,,,57,0
57390,note_on,30,0,1,,,,,,,,,0,,,76,0
57390,note_on,0,0,1,,,,,,,,,0,,,79,62
57420,note_on,0,0,1,,,,,,,,,0,,,76,62
57420,note_on,30,0,1,,,,,,,,,0,,,79,0
57450,note_on,0,0,1,,,,,,,,,0,,,79,62
57450,note_on,30,0,1,,,,,,,,,0,,,76,0
57480,note_on,0,0,3,,,,,,,,,2,,,61,0
57480,note_on,0,0,3,,,,,,,,,2,,,57,36
57480,note_on,0,0,3,,,,,,,,,2,,,67,36
57480,note_on,0,0,3,,,,,,,,,2,,,69,36
57480,control_change,0,0,3,,,,,,,,,2,64,0,,
57480,note_on,120,0,3,,,,,,,,,2,,,69,0
57480,note_on,0,0,3,,,,,,,,,2,,,67,0
57480,note_on,0,0,1,,,,,,,,,0,,,83,62
57480,note_on,30,0,1,,,,,,,,,0,,,79,0
57510,note_on,0,0,1,,,,,,,,,0,,,81,62
57510,note_on,30,0,1,,,,,,,,,0,,,83,0
57540,note_on,30,0,1,,,,,,,,,0,,,81,0
57540,note_on,0,0,1,,,,,,,,,0,,,79,62
57570,control_change,0,0,1,,,,,,,,,0,64,0,,
57570,note_on,30,0,1,,,,,,,,,0,,,79,0
57570,note_on,0,0,1,,,,,,,,,0,,,76,62
57600,note_on,0,0,1,,,,,,,,,0,,,81,88
57600,control_change,0,0,3,,,,,,,,,2,64,127,,
57600,note_on,0,0,3,,,,,,,,,2,,,67,0
57600,note_on,30,0,1,,,,,,,,,0,,,76,0
57600,note_on,0,0,3,,,,,,,,,2,,,69,62
57600,note_on,120,0,3,,,,,,,,,2,,,69,0
57600,note_on,0,0,3,,,,,,,,,2,,,57,0
57600,note_on,0,0,3,,,,,,,,,2,,,66,54
57720,note_on,120,0,3,,,,,,,,,2,,,69,0
57720,note_on,0,0,3,,,,,,,,,2,,,66,0
57720,control_change,0,0,3,,,,,,,,,2,64,0,,
57720,note_on,0,0,3,,,,,,,,,2,,,62,36
57720,note_on,0,0,3,,,,,,,,,2,,,66,36
57720,note_on,0,0,3,,,,,,,,,2,,,69,36
57840,note_on,0,0,3,,,,,,,,,2,,,62,36
57840,control_change,0,0,1,,,,,,,,,0,64,127,,
57840,note_on,0,0,1,,,,,,,,,0,,,79,62
57840,note_on,0,0,3,,,,,,,,,2,,,67,36
57840,control_change,0,0,3,,,,,,,,,2,64,127,,
57840,note_on,240,0,1,,,,,,,,,0,,,81,0
57840,note_on,0,0,3,,,,,,,,,2,,,62,0
57840,note_on,0,0,3,,,,,,,,,2,,,66,0
57840,note_on,120,0,3,,,,,,,,,2,,,69,0
57840,note_on,0,0,3,,,,,,,,,2,,,59,36
57870,note_on,0,0,1,,,,,,,,,0,,,83,62
57870,note_on,30,0,1,,,,,,,,,0,,,79,0
57900,note_on,0,0,1,,,,,,,,,0,,,79,62
57900,note_on,30,0,1,,,,,,,,,0,,,83,0
57930,note_on,0,0,1,,,,,,,,,0,,,83,62
57930,note_on,30,0,1,,,,,,,,,0,,,79,0
57960,note_on,30,0,1,,,,,,,,,0,,,83,0
57960,note_on,0,0,1,,,,,,,,,0,,,88,62
57960,note_on,0,0,3,,,,,,,,,2,,,62,36
57960,note_on,0,0,3,,,,,,,,,2,,,67,36
57960,note_on,0,0,3,,,,,,,,,2,,,55,36
57960,control_change,0,0,3,,,,,,,,,2,64,0,,
57960,note_on,0,0,3,,,,,,,,,2,,,59,0
57960,note_on,0,0,3,,,,,,,,,2,,,62,0
57960,note_on,120,0,3,,,,,,,,,2,,,67,0
57990,note_on,30,0,1,,,,,,,,,0,,,88,0
57990,note_on,0,0,1,,,,,,,,,0,,,86,62
58020,note_on,0,0,1,,,,,,,,,0,,,83,62
58020,note_on,30,0,1,,,,,,,,,0,,,86,0
58050,note_on,30,0,1,,,,,,,,,0,,,83,0
58050,note_on,0,0,1,,,,,,,,,0,,,79,62
58050,control_change,0,0,1,,,,,,,,,0,64,0,,
58080,note_on,30,0,1,,,,,,,,,0,,,79,0
58080,control_change,0,0,1,,,,,,,,,0,64,127,,
58080,note_on,0,0,1,,,,,,,,,0,,,78,62
58080,control_change,0,0,3,,,,,,,,,2,64,127,,
58080,note_on,0,0,3,,,,,,,,,2,,,66,36
58080,note_on,0,0,3,,,,,,,,,2,,,62,36
58080,note_on,0,0,3,,,,,,,,,2,,,55,0
58080,note_on,0,0,3,,,,,,,,,2,,,62,0
58080,note_on,120,0,3,,,,,,,,,2,,,67,0
58110,note_on,30,0,1,,,,,,,,,0,,,78,0
58110,note_on,0,0,1,,,,,,,,,0,,,81,62
58140,note_on,30,0,1,,,,,,,,,0,,,81,0
58140,set_tempo,35100,1,0,,,,,,444444,,,,,,,
58200,set_tempo,60,1,0,,,,,,454545,,,,,,,
58200,control_change,60,0,1,,,,,,,,,0,64,0,,
58200,note_on,0,0,1,,,,,,,,,0,,,81,88
58200,note_on,0,0,3,,,,,,,,,2,,,66,62
58200,note_on,0,0,3,,,,,,,,,2,,,57,54
58200,note_on,120,0,3,,,,,,,,,2,,,66,0
58200,note_on,0,0,3,,,,,,,,,2,,,62,0
58200,control_change,0,0,3,,,,,,,,,2,64,0,,
58260,set_tempo,60,1,0,,,,,,465116,,,,,,,
58320,note_on,0,0,1,,,,,,,,,0,,,76,62
58320,control_change,0,0,1,,,,,,,,,0,64,127,,
58320,note_on,120,0,1,,,,,,,,,0,,,81,0
58320,note_on,0,0,3,,,,,,,,,2,,,57,0
58320,note_on,0,0,3,,,,,,,,,2,,,67,36
58320,note_on,0,0,3,,,,,,,,,2,,,61,36
58320,control_change,0,0,3,,,,,,,,,2,64,127,,
58320,set_tempo,60,1,0,,,,,,480000,,,,,,,
58320,note_on,120,0,3,,,,,,,,,2,,,66,0
58350,note_on,0,0,1,,,,,,,,,0,,,79,62
58350,note_on,30,0,1,,,,,,,,,0,,,76,0
58380,note_on,30,0,1,,,,,,,,,0,,,79,0
58380,set_tempo,60,1,0,,,,,,491803,,,,,,,
58380,note_on,0,0,1,,,,,,,,,0,,,76,62
58410,note_on,0,0,1,,,,,,,,,0,,,79,62
58410,note_on,30,0,1,,,,,,,,,0,,,76,0
58440,control_change,0,0,3,,,,,,,,,2,64,0,,
58440,note_on,0,0,1,,,,,,,,,0,,,83,62
58440,note_on,30,0,1,,,,,,,,,0,,,79,0
58440,note_on,0,0,3,,,,,,,,,2,,,61,0
58440,note_on,120,0,3,,,,,,,,,2,,,67,0
58440,note_on,0,0,3,,,,,,,,,2,,,67,36
58440,set_tempo,60,1,0,,,,,,504202,,,,,,,
58440,note_on,0,0,3,,,,,,,,,2,,,57,36
58470,note_on,0,0,1,,,,,,,,,0,,,81,62
58470,note_on,30,0,1,,,,,,,,,0,,,83,0
58500,set_tempo,60,1,0,,,,,,517241,,,,,,,
58500,note_on,30,0,1,,,,,,,,,0,,,81,0
58500,note_on,0,0,1,,,,,,,,,0,,,79,62
58530,note_on,0,0,1,,,,,,,,,0,,,76,62
58530,control_change,0,0,1,,,,,,,,,0,64,0,,
58530,note_on,30,0,1,,,,,,,,,0,,,79,0
58560,note_on,0,0,1,,,,,,,,,0,,,74,62
58560,note_on,0,0,3,,,,,,,,,2,,,66,36
58560,note_on,30,0,1,,,,,,,,,0,,,76,0
58560,set_tempo,0,1,0,,,,,,535714,,,,,,,
58560,time_signature,60,1,0,2,4,24,8,,,,,,,,,
58560,note_on,0,0,3,,,,,,,,,2,,,57,0
58560,note_on,120,0,3,,,,,,,,,2,,,67,0
58560,note_on,0,0,3,,,,,,,,,2,,,62,36
58800,control_change,0,0,2,,,,,,,,,1,64,127,,
58800,note_on,240,0,3,,,,,,,,,2,,,66,0
58800,note_on,0,0,3,,,,,,,,,2,,,62,0
58800,control_change,0,0,3,,,,,,,,,2,64,127,,
58800,control_change,0,0,1,,,,,,,,,0,64,127,,
58800,note_on,0,0,1,,,,,,,,,0,,,74,62
58800,control_change,41520,0,4,,,,,,,,,3,64,127,,
58800,control_change,2160,0,2,,,,,,,,,1,64,127,,
58800,note_on,0,0,2,,,,,,,,,1,,,67,36
58800,control_change,0,0,1,,,,,,,,,0,64,127,,
58800,note_on,240,0,1,,,,,,,,,0,,,74,0
58800,key_signature,240,1,0,,,,,G,,,,,,,,
58800,note_on,0,0,2,,,,,,,,,1,,,71,36
58806,note_on,6,0,1,,,,,,,,,0,,,74,0
58860,note_on,60,0,2,,,,,,,,,1,,,71,0
58860,note_on,0,0,2,,,,,,,,,1,,,67,0
58860,note_on,0,0,2,,,,,,,,,1,,,67,36
58860,note_on,0,0,2,,,,,,,,,1,,,71,36
58860,note_on,54,0,1,,,,,,,,,0,,,76,62
58866,note_on,6,0,1,,,,,,,,,0,,,76,0
58920,note_on,0,0,2,,,,,,,,,1,,,67,0
58920,note_on,0,0,2,,,,,,,,,1,,,67,36
58920,note_on,0,0,2,,,,,,,,,1,,,71,36
58920,note_on,54,0,1,,,,,,,,,0,,,78,62
58920,note_on,60,0,2,,,,,,,,,1,,,71,0
58926,note_on,6,0,1,,,,,,,,,0,,,78,0
58980,note_on,0,0,2,,,,,,,,,1,,,67,0
58980,control_change,0,0,2,,,,,,,,,1,64,0,,
58980,control_change,54,0,1,,,,,,,,,0,64,0,,
58980,note_on,0,0,1,,,,,,,,,0,,,79,62
58980,note_on,60,0,2,,,,,,,,,1,,,71,0
58980,note_on,0,0,2,,,,,,,,,1,,,71,36
58980,note_on,0,0,2,,,,,,,,,1,,,67,36
58986,note_on,6,0,1,,,,,,,,,0,,,79,0
59040,control_change,0,0,2,,,,,,,,,1,64,127,,
59040,note_on,0,0,2,,,,,,,,,1,,,67,36
59040,note_on,0,0,2,,,,,,,,,1,,,71,36
59040,control_change,0,0,2,,,,,,,,,1,64,127,,
59040,control_change,0,0,1,,,,,,,,,0,64,127,,
59040,control_change,0,0,1,,,,,,,,,0,64,127,,
59040,control_change,54,0,1,,,,,,,,,0,64,127,,
59040,note_on,0,0,2,,,,,,,,,1,,,67,0
59040,control_change,0,0,2,,,,,,,,,1,64,127,,
59040,note_on,0,0,1,,,,,,,,,0,,,79,88
59040,note_on,60,0,2,,,,,,,,,1,,,71,0
59040,control_change,0,0,3,,,,,,,,,2,64,127,,
59040,control_change,0,0,4,,,,,,,,,3,64,127,,
59040,control_change,240,0,4,,,,,,,,,3,64,127,,
59040,control_change,240,0,3,,,,,,,,,2,64,127,,
59040,time_signature,240,1,0,4,4,24,8,,,,,,,,,
59040,control_change,0,0,3,,,,,,,,,2,64,127,,
59040,note_on,0,0,3,,,,,,,,,2,,,43,62
59044,note_on,4,0,3,,,,,,,,,2,,,43,0
59070,note_on,26,0,3,,,,,,,,,2,,,55,36
59100,note_on,60,0,1,,,,,,,,,0,,,79,0
59100,note_on,0,0,1,,,,,,,,,0,,,71,62
59100,note_on,0,0,2,,,,,,,,,1,,,67,36
59100,note_on,0,0,2,,,,,,,,,1,,,67,0
59100,note_on,60,0,2,,,,,,,,,1,,,71,0
59100,note_on,30,0,3,,,,,,,,,2,,,55,0
59100,note_on,0,0,3,,,,,,,,,2,,,59,36
59130,note_on,30,0,3,,,,,,,,,2,,,59,0
59130,note_on,0,0,3,,,,,,,,,2,,,55,36
59160,note_on,60,0,2,,,,,,,,,1,,,67,0
59160,note_on,60,0,1,,,,,,,,,0,,,71,0
59160,note_on,0,0,1,,,,,,,,,0,,,71,62
59160,note_on,30,0,3,,,,,,,,,2,,,55,0
59160,note_on,0,0,3,,,,,,,,,2,,,62,36
59160,note_on,0,0,2,,,,,,,,,1,,,67,36
59166,note_on,6,0,1,,,,,,,,,0,,,71,0
59190,note_on,0,0,3,,,,,,,,,2,,,55,36
59190,note_on,30,0,3,,,,,,,,,2,,,62,0
59220,note_on,60,0,2,,,,,,,,,1,,,67,0
59220,note_on,0,0,2,,,,,,,,,1,,,67,36
59220,note_on,0,0,1,,,,,,,,,0,,,71,62
59220,note_on,30,0,3,,,,,,,,,2,,,55,0
59220,control_change,54,0,1,,,,,,,,,0,64,0,,
59220,control_change,0,0,2,,,,,,,,,1,64,0,,
59220,note_on,0,0,3,,,,,,,,,2,,,59,36
59226,note_on,6,0,1,,,,,,,,,0,,,71,0
59250,note_on,30,0,3,,,,,,,,,2,,,59,0
59250,control_change,0,0,3,,,,,,,,,2,64,0,,
59250,note_on,0,0,3,,,,,,,,,2,,,55,36
59280,note_on,60,0,2,,,,,,,,,1,,,67,0
59280,note_on,30,0,3,,,,,,,,,2,,,55,0
59280,note_on,0,0,1,,,,,,,,,0,,,79,88
59280,control_change,54,0,1,,,,,,,,,0,64,127,,
59280,control_change,0,0,2,,,,,,,,,1,64,127,,
59280,note_on,0,0,2,,,,,,,,,1,,,67,36
59280,note_on,0,0,2,,,,,,,,,1,,,70,36
59280,note_on,0,0,3,,,,,,,,,2,,,43,62
59280,control_change,0,0,3,,,,,,,,,2,64,127,,
59284,note_on,4,0,3,,,,,,,,,2,,,43,0
59310,note_on,26,0,3,,,,,,,,,2,,,55,36
59340,note_on,30,0,3,,,,,,,,,2,,,55,0
59340,note_on,0,0,2,,,,,,,,,1,,,67,0
59340,note_on,0,0,2,,,,,,,,,1,,,67,36
59340,note_on,0,0,1,,,,,,,,,0,,,73,62
59340,note_on,60,0,2,,,,,,,,,1,,,70,0
59340,note_on,0,0,3,,,,,,,,,2,,,58,36
59340,note_on,0,0,2,,,,,,,,,1,,,70,36
59340,note_on,60,0,1,,,,,,,,,0,,,79,0
59370,note_on,30,0,3,,,,,,,,,2,,,58,0
59370,note_on,0,0,3,,,,,,,,,2,,,55,36
59400,note_on,0,0,2,,,,,,,,,1,,,70,36
59400,note_on,0,0,1,,,,,,,,,0,,,73,62
59400,note_on,0,0,2,,,,,,,,,1,,,67,36
59400,note_on,0,0,2,,,,,,,,,1,,,67,0
59400,note_on,60,0,2,,,,,,,,,1,,,70,0
59400,note_on,30,0,3,,,,,,,,,2,,,55,0
59400,note_on,0,0,3,,,,,,,,,2,,,64,36
59400,note_on,60,0,1,,,,,,,,,0,,,73,0
59406,note_on,6,0,1,,,,,,,,,0,,,73,0
59430,note_on,30,0,3,,,,,,,,,2,,,64,0
59430,note_on,0,0,3,,,,,,,,,2,,,55,36
59460,control_change,54,0,1,,,,,,,,,0,64,0,,
59460,note_on,0,0,1,,,,,,,,,0,,,73,62
59460,note_on,30,0,3,,,,,,,,,2,,,55,0
59460,control_change,0,0,2,,,,,,,,,1,64,0,,
59460,note_on,0,0,2,,,,,,,,,1,,,67,0
59460,note_on,60,0,2,,,,,,,,,1,,,70,0
59460,note_on,0,0,3,,,,,,,,,2,,,58,36
59460,note_on,0,0,2,,,,,,,,,1,,,70,36
59460,note_on,0,0,2,,,,,,,,,1,,,67,36
59466,note_on,6,0,1,,,,,,,,,0,,,73,0
59490,note_on,0,0,3,,,,,,,,,2,,,55,36
59490,note_on,30,0,3,,,,,,,,,2,,,58,0
59490,control_change,0,0,3,,,,,,,,,2,64,0,,
59520,control_change,0,0,3,,,,,,,,,2,64,127,,
59520,note_on,0,0,1,,,,,,,,,0,,,74,62
59520,control_change,0,0,1,,,,,,,,,0,64,127,,
59520,control_change,54,0,1,,,,,,,,,0,64,127,,
59520,note_on,30,0,3,,,,,,,,,2,,,55,0
59520,note_on,0,0,3,,,,,,,,,2,,,43,36
59520,control_change,480,0,4,,,,,,,,,3,64,127,,
59520,note_on,0,0,2,,,,,,,,,1,,,71,36
59520,note_on,0,0,2,,,,,,,,,1,,,67,36
59520,control_change,0,0,2,,,,,,,,,1,64,127,,
59520,control_change,0,0,2,,,,,,,,,1,64,127,,
59520,note_on,0,0,2,,,,,,,,,1,,,67,0
59520,note_on,60,0,2,,,,,,,,,1,,,70,0
59520,control_change,0,0,3,,,,,,,,,2,64,127,,
59520,control_change,0,0,3,,,,,,,,,2,64,127,,
59520,control_change,0,0,4,,,,,,,,,3,64,127,,
59524,note_on,4,0,3,,,,,,,,,2,,,43,0
59550,note_on,26,0,3,,,,,,,,,2,,,55,36
59580,note_on,0,0,3,,,,,,,,,2,,,59,36
59580,note_on,30,0,3,,,,,,,,,2,,,55,0
59610,note_on,0,0,3,,,,,,,,,2,,,55,36
59610,note_on,30,0,3,,,,,,,,,2,,,59,0
59640,note_on,30,0,3,,,,,,,,,2,,,55,0
59640,note_on,0,0,3,,,,,,,,,2,,,62,36
59670,note_on,0,0,3,,,,,,,,,2,,,55,36
59670,note_on,30,0,3,,,,,,,,,2,,,62,0
59700,note_on,30,0,3,,,,,,,,,2,,,55,0
59700,note_on,0,0,3,,,,,,,,,2,,,59,36
59730,control_change,0,0,3,,,,,,,,,2,64,0,,
59730,note_on,30,0,3,,,,,,,,,2,,,59,0
59730,note_on,0,0,3,,,,,,,,,2,,,55,36
59760,note_on,240,0,1,,,,,,,,,0,,,74,0
59760,control_change,0,0,1,,,,,,,,,0,64,127,,
59760,note_on,0,0,1,,,,,,,,,0,,,76,88
59760,note_on,30,0,3,,,,,,,,,2,,,55,0
59760,control_change,0,0,3,,,,,,,,,2,64,127,,
59760,note_on,0,0,2,,,,,,,,,1,,,71,36
59760,note_on,0,0,2,,,,,,,,,1,,,67,36
59760,control_change,0,0,2,,,,,,,,,1,64,127,,
59760,note_on,0,0,2,,,,,,,,,1,,,67,0
59760,note_on,240,0,2,,,,,,,,,1,,,71,0
59760,note_on,0,0,3,,,,,,,,,2,,,64,62
59766,note_on,6,0,1,,,,,,,,,0,,,76,0
59766,note_on,6,0,3,,,,,,,,,2,,,64,0
59820,note_on,54,0,1,,,,,,,,,0,,,74,62
59820,note_on,0,0,2,,,,,,,,,1,,,67,0
59820,note_on,54,0,3,,,,,,,,,2,,,62,36
59820,note_on,0,0,2,,,,,,,,,1,,,67,36
59820,note_on,60,0,2,,,,,,,,,1,,,71,0
59820,note_on,0,0,2,,,,,,,,,1,,,71,36
59826,note_on,6,0,3,,,,,,,,,2,,,62,0
59826,note_on,6,0,1,,,,,,,,,0,,,74,0
59880,note_on,0,0,2,,,,,,,,,1,,,67,0
59880,note_on,54,0,3,,,,,,,,,2,,,59,36
59880,control_change,0,0,2,,,,,,,,,1,64,0,,
59880,note_on,0,0,2,,,,,,,,,1,,,67,36
59880,note_on,60,0,2,,,,,,,,,1,,,71,0
59880,note_on,54,0,1,,,,,,,,,0,,,71,62
59886,note_on,6,0,3,,,,,,,,,2,,,59,0
59886,note_on,6,0,1,,,,,,,,,0,,,71,0
59940,note_on,60,0,2,,,,,,,,,1,,,67,0
59940,control_change,54,0,1,,,,,,,,,0,64,0,,
59940,note_on,0,0,1,,,,,,,,,0,,,67,62
59940,control_change,54,0,3,,,,,,,,,2,64,0,,
59940,note_on,0,0,3,,,,,,,,,2,,,55,36
59946,note_on,6,0,1,,,,,,,,,0,,,67,0
59946,note_on,6,0,3,,,,,,,,,2,,,55,0
60000,note_on,0,0,3,,,,,,,,,2,,,38,62
60000,control_change,54,0,3,,,,,,,,,2,64,127,,
60000,control_change,54,0,1,,,,,,,,,0,64,127,,
60000,note_on,0,0,1,,,,,,,,,0,,,67,80
60000,note_on,0,0,1,,,,,,,,,0,,,71,88
60000,control_change,60,0,2,,,,,,,,,1,64,127,,
60000,note_on,0,0,2,,,,,,,,,1,,,62,36
60004,note_on,4,0,3,,,,,,,,,2,,,38,0
60030,note_on,26,0,3,,,,,,,,,2,,,50,36
60060,note_on,0,0,2,,,,,,,,,1,,,66,36
60060,note_on,0,0,3,,,,,,,,,2,,,54,36
60060,note_on,60,0,2,,,,,,,,,1,,,62,0
60060,note_on,30,0,3,,,,,,,,,2,,,50,0
60060,note_on,0,0,1,,,,,,,,,0,,,69,62
60060,note_on,0,0,1,,,,,,,,,0,,,67,0
60060,note_on,60,0,1,,,,,,,,,0,,,71,0
60060,note_on,0,0,2,,,,,,,,,1,,,62,36
60090,note_on,0,0,3,,,,,,,,,2,,,50,36
60090,note_on,30,0,3,,,,,,,,,2,,,54,0
60120,note_on,0,0,2,,,,,,,,,1,,,62,36
60120,note_on,0,0,2,,,,,,,,,1,,,66,36
60120,note_on,60,0,1,,,,,,,,,0,,,69,0
60120,note_on,0,0,3,,,,,,,,,2,,,57,36
60120,note_on,30,0,3,,,,,,,,,2,,,50,0
60120,note_on,0,0,1,,,,,,,,,0,,,69,62
60120,note_on,60,0,2,,,,,,,,,1,,,66,0
60120,note_on,0,0,2,,,,,,,,,1,,,62,0
60126,note_on,6,0,1,,,,,,,,,0,,,69,0
60150,note_on,0,0,3,,,,,,,,,2,,,50,36
60150,note_on,30,0,3,,,,,,,,,2,,,57,0
60180,note_on,0,0,2,,,,,,,,,1,,,62,0
60180,note_on,0,0,3,,,,,,,,,2,,,54,36
60180,note_on,30,0,3,,,,,,,,,2,,,50,0
60180,note_on,0,0,2,,,,,,,,,1,,,66,36
60180,note_on,60,0,2,,,,,,,,,1,,,66,0
60180,control_change,0,0,2,,,,,,,,,1,64,0,,
60180,control_change,54,0,1,,,,,,,,,0,64,0,,
60180,note_on,0,0,1,,,,,,,,,0,,,69,62
60180,note_on,0,0,2,,,,,,,,,1,,,62,36
60186,note_on,6,0,1,,,,,,,,,0,,,69,0
60210,note_on,30,0,3,,,,,,,,,2,,,54,0
60210,note_on,0,0,3,,,,,,,,,2,,,50,36
60210,control_change,0,0,3,,,,,,,,,2,64,0,,
60240,note_on,30,0,3,,,,,,,,,2,,,50,0
60240,note_on,60,0,2,,,,,,,,,1,,,66,0
60240,note_on,0,0,2,,,,,,,,,1,,,62,0
60240,note_on,0,0,1,,,,,,,,,0,,,76,62
60240,control_change,54,0,1,,,,,,,,,0,64,127,,
60240,note_on,0,0,2,,,,,,,,,1,,,70,36
60240,note_on,0,0,2,,,,,,,,,1,,,67,36
60240,control_change,0,0,2,,,,,,,,,1,64,127,,
60240,note_on,0,0,3,,,,,,,,,2,,,45,36
60240,control_change,0,0,3,,,,,,,,,2,64,127,,
60244,note_on,4,0,3,,,,,,,,,2,,,45,0
60270,note_on,26,0,3,,,,,,,,,2,,,52,36
60300,note_on,0,0,1,,,,,,,,,0,,,73,62
60300,note_on,60,0,1,,,,,,,,,0,,,76,0
60300,note_on,0,0,2,,,,,,,,,1,,,69,36
60300,note_on,0,0,2,,,,,,,,,1,,,67,0
60300,note_on,60,0,2,,,,,,,,,1,,,70,0
60300,note_on,0,0,2,,,,,,,,,1,,,67,36
60300,note_on,0,0,3,,,,,,,,,2,,,55,36
60300,note_on,30,0,3,,,,,,,,,2,,,52,0
60330,note_on,30,0,3,,,,,,,,,2,,,55,0
60330,note_on,0,0,3,,,,,,,,,2,,,52,36
60360,note_on,0,0,2,,,,,,,,,1,,,67,0
60360,note_on,0,0,2,,,,,,,,,1,,,67,36
60360,note_on,0,0,2,,,,,,,,,1,,,69,36
60360,note_on,30,0,3,,,,,,,,,2,,,52,0
60360,note_on,60,0,1,,,,,,,,,0,,,73,0
60360,note_on,0,0,3,,,,,,,,,2,,,57,36
60360,note_on,0,0,1,,,,,,,,,0,,,73,62
60360,note_on,60,0,2,,,,,,,,,1,,,69,0
60366,note_on,6,0,1,,,,,,,,,0,,,73,0
60390,note_on,0,0,3,,,,,,,,,2,,,52,36
60390,note_on,30,0,3,,,,,,,,,2,,,57,0
60420,control_change,0,0,2,,,,,,,,,1,64,0,,
60420,note_on,0,0,2,,,,,,,,,1,,,67,36
60420,note_on,0,0,2,,,,,,,,,1,,,69,36
60420,control_change,54,0,1,,,,,,,,,0,64,0,,
60420,note_on,0,0,1,,,,,,,,,0,,,73,62
60420,note_on,60,0,2,,,,,,,,,1,,,69,0
60420,note_on,30,0,3,,,,,,,,,2,,,52,0
60420,note_on,0,0,3,,,,,,,,,2,,,55,36
60420,note_on,0,0,2,,,,,,,,,1,,,67,0
60426,note_on,6,0,1,,,,,,,,,0,,,73,0
60450,note_on,30,0,3,,,,,,,,,2,,,55,0
60450,control_change,0,0,3,,,,,,,,,2,64,0,,
60450,note_on,0,0,3,,,,,,,,,2,,,52,36
60480,note_on,54,0,1,,,,,,,,,0,,,74,62
60480,note_on,0,0,2,,,,,,,,,1,,,69,36
60480,control_change,0,0,3,,,,,,,,,2,64,127,,
60480,note_on,0,0,3,,,,,,,,,2,,,38,36
60480,note_on,0,0,2,,,,,,,,,1,,,66,36
60480,note_on,30,0,3,,,,,,,,,2,,,52,0
60480,note_on,0,0,2,,,,,,,,,1,,,67,0
60480,note_on,60,0,2,,,,,,,,,1,,,69,0
60484,note_on,4,0,3,,,,,,,,,2,,,38,0
60510,note_on,26,0,3,,,,,,,,,2,,,50,36
60540,note_on,30,0,3,,,,,,,,,2,,,50,0
60540,note_on,0,0,3,,,,,,,,,2,,,54,36
60570,note_on,30,0,3,,,,,,,,,2,,,54,0
60570,note_on,0,0,3,,,,,,,,,2,,,50,36
60600,note_on,30,0,3,,,,,,,,,2,,,50,0
60600,note_on,0,0,3,,,,,,,,,2,,,57,36
60630,note_on,0,0,3,,,,,,,,,2,,,50,36
60630,note_on,30,0,3,,,,,,,,,2,,,57,0
60660,note_on,0,0,3,,,,,,,,,2,,,61,36
60660,note_on,30,0,3,,,,,,,,,2,,,50,0
60690,control_change,0,0,3,,,,,,,,,2,64,0,,
60690,note_on,0,0,3,,,,,,,,,2,,,50,36
60690,note_on,30,0,3,,,,,,,,,2,,,61,0
60720,control_change,0,0,1,,,,,,,,,0,64,127,,
60720,note_on,240,0,1,,,,,,,,,0,,,74,0
60720,note_on,0,0,1,,,,,,,,,0,,,74,62
60720,note_on,30,0,3,,,,,,,,,2,,,50,0
60720,note_on,0,0,3,,,,,,,,,2,,,62,36
60720,note_on,0,0,2,,,,,,,,,1,,,69,36
60720,note_on,0,0,2,,,,,,,,,1,,,65,36
60720,control_change,0,0,2,,,,,,,,,1,64,127,,
60720,note_on,0,0,2,,,,,,,,,1,,,66,0
60720,note_on,240,0,2,,,,,,,,,1,,,69,0
60720,control_change,0,0,3,,,,,,,,,2,64,127,,
60726,note_on,6,0,1,,,,,,,,,0,,,74,0
60726,note_on,6,0,3,,,,,,,,,2,,,62,0
60780,note_on,60,0,2,,,,,,,,,1,,,69,0
60780,note_on,0,0,2,,,,,,,,,1,,,65,0
60780,note_on,0,0,2,,,,,,,,,1,,,65,36
60780,note_on,0,0,2,,,,,,,,,1,,,69,36
60780,note_on,54,0,3,,,,,,,,,2,,,62,36
60780,note_on,54,0,1,,,,,,,,,0,,,74,62
60786,note_on,6,0,1,,,,,,,,,0,,,74,0
60786,note_on,6,0,3,,,,,,,,,2,,,62,0
60840,note_on,0,0,2,,,,,,,,,1,,,69,36
60840,note_on,0,0,2,,,,,,,,,1,,,65,36
60840,note_on,0,0,2,,,,,,,,,1,,,65,0
60840,note_on,60,0,2,,,,,,,,,1,,,69,0
60840,note_on,54,0,3,,,,,,,,,2,,,64,36
60840,note_on,54,0,1,,,,,,,,,0,,,76,75
60846,note_on,6,0,1,,,,,,,,,0,,,76,0
60846,note_on,6,0,3,,,,,,,,,2,,,64,0
60900,control_change,54,0,3,,,,,,,,,2,64,0,,
60900,note_on,0,0,3,,,,,,,,,2,,,65,36
60900,note_on,0,0,2,,,,,,,,,1,,,65,36
60900,note_on,0,0,1,,,,,,,,,0,,,77,75
60900,control_change,54,0,1,,,,,,,,,0,64,0,,
60900,note_on,60,0,2,,,,,,,,,1,,,69,0
60900,note_on,0,0,2,,,,,,,,,1,,,65,0
60900,control_change,0,0,2,,,,,,,,,1,64,0,,
60900,note_on,0,0,2,,,,,,,,,1,,,69,36
60906,note_on,6,0,1,,,,,,,,,0,,,77,0
60906,note_on,6,0,3,,,,,,,,,2,,,65,0
60960,control_change,54,0,1,,,,,,,,,0,64,127,,
60960,note_on,0,0,1,,,,,,,,,0,,,77,75
60960,control_change,54,0,3,,,,,,,,,2,64,127,,
60960,note_on,0,0,3,,,,,,,,,2,,,40,36
60960,note_on,60,0,2,,,,,,,,,1,,,69,0
60960,note_on,0,0,2,,,,,,,,,1,,,65,0
60960,control_change,0,0,2,,,,,,,,,1,64,127,,
60960,note_on,0,0,2,,,,,,,,,1,,,64,36
60960,note_on,0,0,2,,,,,,,,,1,,,68,36
60964,note_on,4,0,3,,,,,,,,,2,,,40,0
60990,note_on,26,0,3,,,,,,,,,2,,,52,36
61020,note_on,0,0,2,,,,,,,,,1,,,64,0
61020,note_on,30,0,3,,,,,,,,,2,,,52,0
61020,note_on,0,0,2,,,,,,,,,1,,,64,36
61020,note_on,0,0,2,,,,,,,,,1,,,68,36
61020,note_on,0,0,1,,,,,,,,,0,,,71,75
61020,note_on,60,0,1,,,,,,,,,0,,,77,0
61020,note_on,60,0,2,,,,,,,,,1,,,68,0
61020,note_on,0,0,3,,,,,,,,,2,,,56,36
61050,note_on,0,0,3,,,,,,,,,2,,,52,36
61050,note_on,30,0,3,,,,,,,,,2,,,56,0
61080,note_on,0,0,3,,,,,,,,,2,,,62,36
61080,note_on,30,0,3,,,,,,,,,2,,,52,0
61080,note_on,60,0,2,,,,,,,,,1,,,68,0
61080,note_on,0,0,2,,,,,,,,,1,,,64,0
61080,note_on,0,0,2,,,,,,,,,1,,,64,36
61080,note_on,0,0,1,,,,,,,,,0,,,71,75
61080,note_on,60,0,1,,,,,,,,,0,,,71,0
61080,note_on,0,0,2,,,,,,,,,1,,,68,36
61086,note_on,6,0,1,,,,,,,,,0,,,71,0
61110,note_on,0,0,3,,,,,,,,,2,,,52,36
61110,note_on,30,0,3,,,,,,,,,2,,,62,0
61140,note_on,0,0,1,,,,,,,,,0,,,71,75
61140,control_change,54,0,1,,,,,,,,,0,64,0,,
61140,note_on,30,0,3,,,,,,,,,2,,,52,0
61140,note_on,0,0,3,,,,,,,,,2,,,56,36
61140,note_on,0,0,2,,,,,,,,,1,,,64,0
61140,control_change,0,0,2,,,,,,,,,1,64,0,,
61140,note_on,0,0,2,,,,,,,,,1,,,64,36
61140,note_on,0,0,2,,,,,,,,,1,,,68,36
61140,note_on,60,0,2,,,,,,,,,1,,,68,0
61146,note_on,6,0,1,,,,,,,,,0,,,71,0
61170,note_on,0,0,3,,,,,,,,,2,,,52,36
61170,control_change,0,0,3,,,,,,,,,2,64,0,,
61170,note_on,30,0,3,,,,,,,,,2,,,56,0
61200,control_change,0,0,3,,,,,,,,,2,64,127,,
61200,control_change,54,0,1,,,,,,,,,0,64,127,,
61200,note_on,0,0,1,,,,,,,,,0,,,72,75
61200,note_on,0,0,2,,,,,,,,,1,,,69,36
61200,control_change,0,0,2,,,,,,,,,1,64,127,,
61200,note_on,0,0,2,,,,,,,,,1,,,64,0
61200,note_on,60,0,2,,,,,,,,,1,,,68,0
61200,note_on,0,0,3,,,,,,,,,2,,,45,36
61200,note_on,0,0,2,,,,,,,,,1,,,64,36
61200,note_on,30,0,3,,,,,,,,,2,,,52,0
61204,note_on,4,0,3,,,,,,,,,2,,,45,0
61206,note_on,6,0,1,,,,,,,,,0,,,72,0
61230,note_on,26,0,3,,,,,,,,,2,,,52,36
61260,note_on,0,0,3,,,,,,,,,2,,,57,36
61260,note_on,30,0,3,,,,,,,,,2,,,52,0
61260,note_on,0,0,2,,,,,,,,,1,,,64,36
61260,note_on,0,0,2,,,,,,,,,1,,,69,36
61260,note_on,0,0,2,,,,,,,,,1,,,64,0
61260,note_on,60,0,2,,,,,,,,,1,,,69,0
61260,note_on,54,0,1,,,,,,,,,0,,,72,75
61266,note_on,6,0,1,,,,,,,,,0,,,72,0
61290,note_on,30,0,3,,,,,,,,,2,,,57,0
61290,note_on,0,0,3,,,,,,,,,2,,,52,36
61320,note_on,30,0,3,,,,,,,,,2,,,52,0
61320,note_on,0,0,3,,,,,,,,,2,,,60,36
61320,note_on,54,0,1,,,,,,,,,0,,,74,75
61320,note_on,0,0,2,,,,,,,,,1,,,69,36
61320,note_on,0,0,2,,,,,,,,,1,,,64,36
61320,note_on,0,0,2,,,,,,,,,1,,,64,0
61320,note_on,60,0,2,,,,,,,,,1,,,69,0
61326,note_on,6,0,1,,,,,,,,,0,,,74,0
61350,note_on,0,0,3,,,,,,,,,2,,,52,36
61350,note_on,30,0,3,,,,,,,,,2,,,60,0
61380,note_on,30,0,3,,,,,,,,,2,,,52,0
61380,note_on,0,0,3,,,,,,,,,2,,,59,36
61380,control_change,54,0,1,,,,,,,,,0,64,0,,
61380,note_on,0,0,2,,,,,,,,,1,,,67,36
61380,note_on,0,0,1,,,,,,,,,0,,,76,75
61380,control_change,0,0,2,,,,,,,,,1,64,0,,
61380,note_on,0,0,2,,,,,,,,,1,,,64,0
61380,note_on,60,0,2,,,,,,,,,1,,,69,0
61380,note_on,0,0,2,,,,,,,,,1,,,64,36
61386,note_on,6,0,1,,,,,,,,,0,,,76,0
61410,control_change,0,0,3,,,,,,,,,2,64,0,,
61410,note_on,30,0,3,,,,,,,,,2,,,59,0
61410,note_on,0,0,3,,,,,,,,,2,,,52,36
61440,control_change,0,0,3,,,,,,,,,2,64,127,,
61440,note_on,0,0,1,,,,,,,,,0,,,76,75
61440,note_on,0,0,2,,,,,,,,,1,,,62,36
61440,control_change,0,0,2,,,,,,,,,1,64,127,,
61440,control_change,54,0,1,,,,,,,,,0,64,127,,
61440,note_on,0,0,2,,,,,,,,,1,,,64,0
61440,note_on,30,0,3,,,,,,,,,2,,,52,0
61440,note_on,0,0,2,,,,,,,,,1,,,66,36
61440,note_on,0,0,3,,,,,,,,,2,,,38,36
61440,note_on,60,0,2,,,,,,,,,1,,,67,0
61444,note_on,4,0,3,,,,,,,,,2,,,38,0
61470,note_on,26,0,3,,,,,,,,,2,,,50,36
61500,note_on,30,0,3,,,,,,,,,2,,,50,0
61500,note_on,0,0,3,,,,,,,,,2,,,57,36
61500,note_on,60,0,2,,,,,,,,,1,,,66,0
61500,note_on,0,0,1,,,,,,,,,0,,,69,75
61500,note_on,60,0,1,,,,,,,,,0,,,76,0
61500,note_on,0,0,2,,,,,,,,,1,,,66,36
61500,note_on,0,0,2,,,,,,,,,1,,,62,36
61500,note_on,0,0,2,,,,,,,,,1,,,62,0
61530,note_on,0,0,3,,,,,,,,,2,,,50,36
61530,note_on,30,0,3,,,,,,,,,2,,,57,0
61560,note_on,0,0,3,,,,,,,,,2,,,60,36
61560,note_on,0,0,2,,,,,,,,,1,,,62,36
61560,note_on,0,0,2,,,,,,,,,1,,,62,0
61560,note_on,0,0,2,,,,,,,,,1,,,66,36
61560,note_on,0,0,1,,,,,,,,,0,,,69,75
61560,note_on,60,0,1,,,,,,,,,0,,,69,0
61560,note_on,60,0,2,,,,,,,,,1,,,66,0
61560,note_on,30,0,3,,,,,,,,,2,,,50,0
61566,note_on,6,0,1,,,,,,,,,0,,,69,0
61590,note_on,30,0,3,,,,,,,,,2,,,60,0
61590,note_on,0,0,3,,,,,,,,,2,,,50,36
61620,control_change,54,0,1,,,,,,,,,0,64,0,,
61620,note_on,0,0,1,,,,,,,,,0,,,69,75
61620,note_on,0,0,2,,,,,,,,,1,,,66,36
61620,note_on,0,0,2,,,,,,,,,1,,,62,36
61620,control_change,0,0,2,,,,,,,,,1,64,0,,
61620,note_on,0,0,2,,,,,,,,,1,,,62,0
61620,note_on,60,0,2,,,,,,,,,1,,,66,0
61620,note_on,30,0,3,,,,,,,,,2,,,50,0
61620,note_on,0,0,3,,,,,,,,,2,,,54,36
61626,note_on,6,0,1,,,,,,,,,0,,,69,0
61650,note_on,30,0,3,,,,,,,,,2,,,54,0
61650,control_change,0,0,3,,,,,,,,,2,64,0,,
61650,note_on,0,0,3,,,,,,,,,2,,,50,36
61680,note_on,0,0,1,,,,,,,,,0,,,71,75
61680,control_change,54,0,1,,,,,,,,,0,64,127,,
61680,note_on,60,0,2,,,,,,,,,1,,,66,0
61680,note_on,0,0,2,,,,,,,,,1,,,62,0
61680,control_change,0,0,2,,,,,,,,,1,64,127,,
61680,note_on,0,0,2,,,,,,,,,1,,,62,36
61680,note_on,0,0,2,,,,,,,,,1,,,67,36
61680,note_on,30,0,3,,,,,,,,,2,,,50,0
61680,control_change,0,0,3,,,,,,,,,2,64,127,,
61680,note_on,0,0,3,,,,,,,,,2,,,55,36
61686,note_on,6,0,1,,,,,,,,,0,,,71,0
61710,note_on,0,0,3,,,,,,,,,2,,,50,36
61710,note_on,30,0,3,,,,,,,,,2,,,55,0
61740,note_on,54,0,1,,,,,,,,,0,,,76,88
61740,note_on,0,0,3,,,,,,,,,2,,,60,36
61740,note_on,30,0,3,,,,,,,,,2,,,50,0
61740,note_on,0,0,2,,,,,,,,,1,,,62,0
61740,note_on,0,0,2,,,,,,,,,1,,,67,36
61740,note_on,60,0,2,,,,,,,,,1,,,67,0
61740,note_on,0,0,2,,,,,,,,,1,,,62,36
61746,note_on,6,0,1,,,,,,,,,0,,,76,0
61770,note_on,0,0,3,,,,,,,,,2,,,50,36
61770,note_on,30,0,3,,,,,,,,,2,,,60,0
61800,note_on,54,0,1,,,,,,,,,0,,,74,88
61800,note_on,30,0,3,,,,,,,,,2,,,50,0
61800,note_on,60,0,2,,,,,,,,,1,,,67,0
61800,note_on,0,0,2,,,,,,,,,1,,,62,0
61800,note_on,0,0,2,,,,,,,,,1,,,62,36
61800,note_on,0,0,2,,,,,,,,,1,,,67,36
61800,note_on,0,0,3,,,,,,,,,2,,,59,36
61806,note_on,6,0,1,,,,,,,,,0,,,74,0
61830,note_on,30,0,3,,,,,,,,,2,,,59,0
61830,note_on,0,0,3,,,,,,,,,2,,,50,36
61860,control_change,54,0,1,,,,,,,,,0,64,0,,
61860,note_on,0,0,2,,,,,,,,,1,,,67,36
61860,note_on,0,0,2,,,,,,,,,1,,,62,36
61860,control_change,0,0,2,,,,,,,,,1,64,0,,
61860,note_on,0,0,2,,,,,,,,,1,,,62,0
61860,note_on,0,0,3,,,,,,,,,2,,,55,36
61860,note_on,30,0,3,,,,,,,,,2,,,50,0
61860,note_on,60,0,2,,,,,,,,,1,,,67,0
61860,note_on,0,0,1,,,,,,,,,0,,,71,75
61866,note_on,6,0,1,,,,,,,,,0,,,71,0
61890,note_on,0,0,3,,,,,,,,,2,,,50,36
61890,control_change,0,0,3,,,,,,,,,2,64,0,,
61890,note_on,30,0,3,,,,,,,,,2,,,55,0
61920,note_on,60,0,2,,,,,,,,,1,,,67,0
61920,note_on,0,0,2,,,,,,,,,1,,,62,0
61920,control_change,0,0,2,,,,,,,,,1,64,127,,
61920,note_on,0,0,2,,,,,,,,,1,,,62,36
61920,note_on,0,0,2,,,,,,,,,1,,,66,36
61920,control_change,54,0,1,,,,,,,,,0,64,127,,
61920,note_on,0,0,3,,,,,,,,,2,,,38,36
61920,control_change,0,0,3,,,,,,,,,2,64,127,,
61920,note_on,30,0,3,,,,,,,,,2,,,50,0
61920,note_on,0,0,1,,,,,,,,,0,,,76,75
61924,note_on,4,0,3,,,,,,,,,2,,,38,0
61950,note_on,26,0,3,,,,,,,,,2,,,50,36
61980,note_on,60,0,2,,,,,,,,,1,,,66,0
61980,note_on,0,0,2,,,,,,,,,1,,,66,36
61980,note_on,0,0,3,,,,,,,,,2,,,54,36
61980,note_on,30,0,3,,,,,,,,,2,,,50,0
61980,note_on,0,0,1,,,,,,,,,0,,,69,75
61980,note_on,60,0,1,,,,,,,,,0,,,76,0
61980,note_on,0,0,2,,,,,,,,,1,,,62,0
61980,note_on,0,0,2,,,,,,,,,1,,,62,36
62010,note_on,30,0,3,,,,,,,,,2,,,54,0
62010,note_on,0,0,3,,,,,,,,,2,,,50,36
62040,note_on,0,0,1,,,,,,,,,0,,,69,75
62040,note_on,0,0,3,,,,,,,,,2,,,60,36
62040,note_on,30,0,3,,,,,,,,,2,,,50,0
62040,note_on,60,0,2,,,,,,,,,1,,,66,0
62040,note_on,60,0,1,,,,,,,,,0,,,69,0
62040,note_on,0,0,2,,,,,,,,,1,,,66,36
62040,note_on,0,0,2,,,,,,,,,1,,,62,36
62040,note_on,0,0,2,,,,,,,,,1,,,62,0
62046,note_on,6,0,1,,,,,,,,,0,,,69,0
62070,note_on,30,0,3,,,,,,,,,2,,,60,0
62070,note_on,0,0,3,,,,,,,,,2,,,50,36
62100,note_on,0,0,2,,,,,,,,,1,,,62,0
62100,control_change,0,0,2,,,,,,,,,1,64,0,,
62100,note_on,0,0,2,,,,,,,,,1,,,62,36
62100,note_on,0,0,1,,,,,,,,,0,,,69,75
62100,note_on,30,0,3,,,,,,,,,2,,,50,0
62100,note_on,0,0,3,,,,,,,,,2,,,54,36
62100,note_on,0,0,2,,,,,,,,,1,,,66,36
62100,control_change,54,0,1,,,,,,,,,0,64,0,,
62100,note_on,60,0,2,,,,,,,,,1,,,66,0
62106,note_on,6,0,1,,,,,,,,,0,,,69,0
62130,note_on,30,0,3,,,,,,,,,2,,,54,0
62130,note_on,0,0,3,,,,,,,,,2,,,50,36
62130,control_change,0,0,3,,,,,,,,,2,64,0,,
62160,control_change,54,0,1,,,,,,,,,0,64,127,,
62160,note_on,0,0,2,,,,,,,,,1,,,67,36
62160,note_on,0,0,2,,,,,,,,,1,,,62,0
62160,note_on,0,0,2,,,,,,,,,1,,,62,36
62160,note_on,30,0,3,,,,,,,,,2,,,50,0
62160,control_change,0,0,3,,,,,,,,,2,64,127,,
62160,note_on,0,0,3,,,,,,,,,2,,,55,36
62160,note_on,60,0,2,,,,,,,,,1,,,66,0
62160,control_change,0,0,2,,,,,,,,,1,64,127,,
62160,note_on,0,0,1,,,,,,,,,0,,,71,75
62166,note_on,6,0,1,,,,,,,,,0,,,71,0
62190,note_on,30,0,3,,,,,,,,,2,,,55,0
62190,note_on,0,0,3,,,,,,,,,2,,,50,36
62220,note_on,54,0,1,,,,,,,,,0,,,76,88
62220,note_on,60,0,2,,,,,,,,,1,,,67,0
62220,note_on,0,0,2,,,,,,,,,1,,,62,0
62220,note_on,0,0,2,,,,,,,,,1,,,62,36
62220,note_on,0,0,2,,,,,,,,,1,,,67,36
62220,note_on,30,0,3,,,,,,,,,2,,,50,0
62220,note_on,0,0,3,,,,,,,,,2,,,60,36
62226,note_on,6,0,1,,,,,,,,,0,,,76,0
62250,note_on,0,0,3,,,,,,,,,2,,,50,36
62250,note_on,30,0,3,,,,,,,,,2,,,60,0
62280,note_on,0,0,2,,,,,,,,,1,,,62,36
62280,note_on,60,0,2,,,,,,,,,1,,,67,0
62280,note_on,30,0,3,,,,,,,,,2,,,50,0
62280,note_on,0,0,2,,,,,,,,,1,,,67,36
62280,note_on,0,0,3,,,,,,,,,2,,,59,36
62280,note_on,54,0,1,,,,,,,,,0,,,74,88
62280,note_on,0,0,2,,,,,,,,,1,,,62,0
62286,note_on,6,0,1,,,,,,,,,0,,,74,0
62310,note_on,0,0,3,,,,,,,,,2,,,50,36
62310,note_on,30,0,3,,,,,,,,,2,,,59,0
62340,note_on,0,0,2,,,,,,,,,1,,,67,36
62340,note_on,0,0,2,,,,,,,,,1,,,62,36
62340,control_change,54,0,1,,,,,,,,,0,64,0,,
62340,note_on,0,0,1,,,,,,,,,0,,,71,75
62340,control_change,0,0,2,,,,,,,,,1,64,0,,
62340,note_on,60,0,2,,,,,,,,,1,,,67,0
62340,note_on,30,0,3,,,,,,,,,2,,,50,0
62340,note_on,0,0,3,,,,,,,,,2,,,55,36
62340,note_on,0,0,2,,,,,,,,,1,,,62,0
62346,note_on,6,0,1,,,,,,,,,0,,,71,0
62370,note_on,0,0,3,,,,,,,,,2,,,50,36
62370,note_on,30,0,3,,,,,,,,,2,,,55,0
62370,control_change,0,0,3,,,,,,,,,2,64,0,,
62400,note_on,0,0,2,,,,,,,,,1,,,62,0
62400,control_change,0,0,2,,,,,,,,,1,64,127,,
62400,note_on,0,0,2,,,,,,,,,1,,,66,36
62400,control_change,54,0,1,,,,,,,,,0,64,127,,
62400,note_on,0,0,1,,,,,,,,,0,,,74,75
62400,note_on,0,0,2,,,,,,,,,1,,,62,36
62400,note_on,30,0,3,,,,,,,,,2,,,50,0
62400,control_change,0,0,3,,,,,,,,,2,64,127,,
62400,note_on,0,0,3,,,,,,,,,2,,,38,36
62400,note_on,60,0,2,,,,,,,,,1,,,67,0
62404,note_on,4,0,3,,,,,,,,,2,,,38,0
62406,note_on,6,0,1,,,,,,,,,0,,,74,0
62430,note_on,26,0,3,,,,,,,,,2,,,50,36
62460,note_on,0,0,2,,,,,,,,,1,,,62,0
62460,note_on,0,0,2,,,,,,,,,1,,,62,36
62460,note_on,0,0,2,,,,,,,,,1,,,66,36
62460,note_on,0,0,3,,,,,,,,,2,,,57,36
62460,note_on,30,0,3,,,,,,,,,2,,,50,0
62460,note_on,54,0,1,,,,,,,,,0,,,69,75
62460,note_on,60,0,2,,,,,,,,,1,,,66,0
62466,note_on,6,0,1,,,,,,,,,0,,,69,0
62490,note_on,0,0,3,,,,,,,,,2,,,50,36
62490,note_on,30,0,3,,,,,,,,,2,,,57,0
62520,note_on,0,0,3,,,,,,,,,2,,,62,36
62520,note_on,0,0,2,,,,,,,,,1,,,70,36
62520,note_on,0,0,2,,,,,,,,,1,,,62,0
62520,note_on,0,0,2,,,,,,,,,1,,,66,36
62520,note_on,54,0,1,,,,,,,,,0,,,74,75
62520,note_on,30,0,3,,,,,,,,,2,,,50,0
62520,note_on,60,0,2,,,,,,,,,1,,,66,0
62526,note_on,6,0,1,,,,,,,,,0,,,74,0
62550,note_on,0,0,3,,,,,,,,,2,,,50,36
62550,note_on,30,0,3,,,,,,,,,2,,,62,0
62580,note_on,0,0,2,,,,,,,,,1,,,66,0
62580,control_change,0,0,2,,,,,,,,,1,64,0,,
62580,note_on,60,0,2,,,,,,,,,1,,,70,0
62580,note_on,30,0,3,,,,,,,,,2,,,50,0
62580,note_on,0,0,3,,,,,,,,,2,,,60,36
62580,note_on,0,0,1,,,,,,,,,0,,,74,75
62580,control_change,54,0,1,,,,,,,,,0,64,0,,
62580,note_on,0,0,2,,,,,,,,,1,,,66,36
62580,note_on,0,0,2,,,,,,,,,1,,,70,36
62586,note_on,6,0,1,,,,,,,,,0,,,74,0
62610,control_change,0,0,3,,,,,,,,,2,64,0,,
62610,note_on,30,0,3,,,,,,,,,2,,,60,0
62610,note_on,0,0,3,,,,,,,,,2,,,50,36
62640,control_change,54,0,1,,,,,,,,,0,64,127,,
62640,note_on,0,0,1,,,,,,,,,0,,,74,75
62640,note_on,60,0,2,,,,,,,,,1,,,70,0
62640,control_change,0,0,2,,,,,,,,,1,64,127,,
62640,note_on,0,0,2,,,,,,,,,1,,,67,36
62640,note_on,0,0,2,,,,,,,,,1,,,66,0
62640,note_on,0,0,3,,,,,,,,,2,,,59,36
62640,note_on,0,0,2,,,,,,,,,1,,,71,36
62640,note_on,30,0,3,,,,,,,,,2,,,50,0
62640,note_on,0,0,3,,,,,,,,,2,,,55,36
62646,note_on,6,0,1,,,,,,,,,0,,,74,0
62700,note_on,60,0,3,,,,,,,,,2,,,59,0
62700,note_on,0,0,3,,,,,,,,,2,,,55,0
62700,note_on,0,0,2,,,,,,,,,1,,,71,36
62700,note_on,0,0,2,,,,,,,,,1,,,67,36
62700,note_on,54,0,1,,,,,,,,,0,,,76,75
62700,note_on,0,0,2,,,,,,,,,1,,,67,0
62700,note_on,60,0,2,,,,,,,,,1,,,71,0
62706,note_on,6,0,1,,,,,,,,,0,,,76,0
62760,note_on,54,0,1,,,,,,,,,0,,,78,75
62760,note_on,60,0,2,,,,,,,,,1,,,71,0
62760,note_on,0,0,2,,,,,,,,,1,,,67,0
62760,note_on,0,0,2,,,,,,,,,1,,,67,36
62760,note_on,0,0,2,,,,,,,,,1,,,71,36
62766,note_on,6,0,1,,,,,,,,,0,,,78,0
62820,note_on,0,0,2,,,,,,,,,1,,,71,36
62820,note_on,60,0,2,,,,,,,,,1,,,71,0
62820,note_on,0,0,2,,,,,,,,,1,,,67,0
62820,control_change,0,0,2,,,,,,,,,1,64,0,,
62820,control_change,54,0,1,,,,,,,,,0,64,0,,
62820,note_on,0,0,1,,,,,,,,,0,,,79,75
62820,note_on,0,0,2,,,,,,,,,1,,,67,36
62826,note_on,6,0,1,,,,,,,,,0,,,79,0
62880,note_on,0,0,3,,,,,,,,,2,,,43,62
62880,control_change,180,0,3,,,,,,,,,2,64,127,,
62880,note_on,60,0,2,,,,,,,,,1,,,71,0
62880,control_change,0,0,2,,,,,,,,,1,64,127,,
62880,note_on,0,0,2,,,,,,,,,1,,,71,36
62880,note_on,0,0,2,,,,,,,,,1,,,67,36
62880,note_on,0,0,2,,,,,,,,,1,,,67,0
62880,control_change,54,0,1,,,,,,,,,0,64,127,,
62880,note_on,0,0,1,,,,,,,,,0,,,79,101
62884,note_on,4,0,3,,,,,,,,,2,,,43,0
62910,note_on,26,0,3,,,,,,,,,2,,,55,36
62940,note_on,0,0,3,,,,,,,,,2,,,59,36
62940,note_on,60,0,1,,,,,,,,,0,,,79,0
62940,note_on,60,0,2,,,,,,,,,1,,,71,0
62940,note_on,0,0,2,,,,,,,,,1,,,67,0
62940,note_on,0,0,2,,,,,,,,,1,,,67,36
62940,note_on,30,0,3,,,,,,,,,2,,,55,0
62940,note_on,0,0,1,,,,,,,,,0,,,71,75
62970,note_on,30,0,3,,,,,,,,,2,,,59,0
62970,note_on,0,0,3,,,,,,,,,2,,,55,36
63000,note_on,30,0,3,,,,,,,,,2,,,55,0
63000,note_on,0,0,3,,,,,,,,,2,,,62,36
63000,note_on,60,0,2,,,,,,,,,1,,,67,0
63000,note_on,0,0,2,,,,,,,,,1,,,67,36
63000,note_on,0,0,1,,,,,,,,,0,,,71,75
63000,note_on,60,0,1,,,,,,,,,0,,,71,0
63006,note_on,6,0,1,,,,,,,,,0,,,71,0
63030,note_on,30,0,3,,,,,,,,,2,,,62,0
63030,note_on,0,0,3,,,,,,,,,2,,,55,36
63060,control_change,0,0,2,,,,,,,,,1,64,0,,
63060,note_on,0,0,1,,,,,,,,,0,,,71,75
63060,control_change,54,0,1,,,,,,,,,0,64,0,,
63060,note_on,30,0,3,,,,,,,,,2,,,55,0
63060,note_on,0,0,3,,,,,,,,,2,,,59,36
63060,note_on,60,0,2,,,,,,,,,1,,,67,0
63060,note_on,0,0,2,,,,,,,,,1,,,67,36
63066,note_on,6,0,1,,,,,,,,,0,,,71,0
63090,note_on,30,0,3,,,,,,,,,2,,,59,0
63090,note_on,0,0,3,,,,,,,,,2,,,55,36
63090,control_change,0,0,3,,,,,,,,,2,64,0,,
63120,note_on,60,0,2,,,,,,,,,1,,,67,0
63120,control_change,0,0,2,,,,,,,,,1,64,127,,
63120,note_on,0,0,2,,,,,,,,,1,,,67,36
63120,note_on,0,0,2,,,,,,,,,1,,,70,36
63120,note_on,0,0,3,,,,,,,,,2,,,43,62
63120,control_change,0,0,3,,,,,,,,,2,64,127,,
63120,note_on,30,0,3,,,,,,,,,2,,,55,0
63120,control_change,54,0,1,,,,,,,,,0,64,127,,
63120,note_on,0,0,1,,,,,,,,,0,,,79,101
63124,note_on,4,0,3,,,,,,,,,2,,,43,0
63150,note_on,26,0,3,,,,,,,,,2,,,55,36
63180,note_on,60,0,2,,,,,,,,,1,,,70,0
63180,note_on,0,0,2,,,,,,,,,1,,,67,0
63180,note_on,30,0,3,,,,,,,,,2,,,55,0
63180,note_on,0,0,3,,,,,,,,,2,,,58,36
63180,note_on,0,0,2,,,,,,,,,1,,,67,36
63180,note_on,0,0,2,,,,,,,,,1,,,70,36
63180,note_on,60,0,1,,,,,,,,,0,,,79,0
63180,note_on,0,0,1,,,,,,,,,0,,,73,75
63210,note_on,30,0,3,,,,,,,,,2,,,58,0
63210,note_on,0,0,3,,,,,,,,,2,,,55,36
63240,note_on,0,0,2,,,,,,,,,1,,,70,36
63240,note_on,30,0,3,,,,,,,,,2,,,55,0
63240,note_on,0,0,3,,,,,,,,,2,,,64,36
63240,note_on,0,0,2,,,,,,,,,1,,,67,36
63240,note_on,60,0,2,,,,,,,,,1,,,70,0
63240,note_on,0,0,1,,,,,,,,,0,,,73,75
63240,note_on,0,0,2,,,,,,,,,1,,,67,0
63240,note_on,60,0,1,,,,,,,,,0,,,73,0
63246,note_on,6,0,1,,,,,,,,,0,,,73,0
63270,note_on,30,0,3,,,,,,,,,2,,,64,0
63270,note_on,0,0,3,,,,,,,,,2,,,55,36
63300,note_on,0,0,3,,,,,,,,,2,,,58,36
63300,note_on,30,0,3,,,,,,,,,2,,,55,0
63300,note_on,60,0,2,,,,,,,,,1,,,70,0
63300,control_change,54,0,1,,,,,,,,,0,64,0,,
63300,note_on,0,0,1,,,,,,,,,0,,,73,75
63300,note_on,0,0,2,,,,,,,,,1,,,67,0
63300,note_on,0,0,2,,,,,,,,,1,,,70,36
63300,note_on,0,0,2,,,,,,,,,1,,,67,36
63300,control_change,0,0,2,,,,,,,,,1,64,0,,
63306,note_on,6,0,1,,,,,,,,,0,,,73,0
63330,note_on,0,0,3,,,,,,,,,2,,,55,36
63330,control_change,0,0,3,,,,,,,,,2,64,0,,
63330,note_on,30,0,3,,,,,,,,,2,,,58,0
63360,control_change,54,0,1,,,,,,,,,0,64,127,,
63360,control_change,0,0,3,,,,,,,,,2,64,127,,
63360,note_on,0,0,1,,,,,,,,,0,,,74,101
63360,note_on,0,0,3,,,,,,,,,2,,,43,62
63360,note_on,30,0,3,,,,,,,,,2,,,55,0
63360,note_on,0,0,2,,,,,,,,,1,,,71,36
63360,note_on,0,0,2,,,,,,,,,1,,,67,36
63360,control_change,0,0,2,,,,,,,,,1,64,127,,
63360,note_on,0,0,2,,,,,,,,,1,,,67,0
63360,note_on,60,0,2,,,,,,,,,1,,,70,0
63364,note_on,4,0,3,,,,,,,,,2,,,43,0
63390,note_on,26,0,3,,,,,,,,,2,,,55,36
63420,note_on,0,0,3,,,,,,,,,2,,,59,36
63420,note_on,30,0,3,,,,,,,,,2,,,55,0
63450,note_on,30,0,3,,,,,,,,,2,,,59,0
63450,note_on,0,0,3,,,,,,,,,2,,,55,36
63480,note_on,0,0,3,,,,,,,,,2,,,62,36
63480,note_on,30,0,3,,,,,,,,,2,,,55,0
63510,note_on,30,0,3,,,,,,,,,2,,,62,0
63510,note_on,0,0,3,,,,,,,,,2,,,55,36
63540,note_on,0,0,3,,,,,,,,,2,,,59,36
63540,note_on,30,0,3,,,,,,,,,2,,,55,0
63570,note_on,30,0,3,,,,,,,,,2,,,59,0
63570,control_change,0,0,3,,,,,,,,,2,64,0,,
63570,note_on,0,0,3,,,,,,,,,2,,,62,36
63600,note_on,0,0,2,,,,,,,,,1,,,71,36
63600,note_on,0,0,2,,,,,,,,,1,,,67,36
63600,control_change,0,0,2,,,,,,,,,1,64,127,,
63600,note_on,0,0,2,,,,,,,,,1,,,67,0
63600,note_on,240,0,2,,,,,,,,,1,,,71,0
63600,note_on,240,0,1,,,,,,,,,0,,,74,0
63600,control_change,0,0,1,,,,,,,,,0,64,127,,
63600,note_on,0,0,1,,,,,,,,,0,,,77,75
63600,note_on,30,0,3,,,,,,,,,2,,,62,0
63600,control_change,0,0,3,,,,,,,,,2,64,127,,
63600,note_on,0,0,3,,,,,,,,,2,,,65,36
63606,note_on,6,0,3,,,,,,,,,2,,,65,0
63606,note_on,6,0,1,,,,,,,,,0,,,77,0
63660,note_on,54,0,1,,,,,,,,,0,,,76,75
63660,note_on,0,0,2,,,,,,,,,1,,,71,36
63660,note_on,0,0,2,,,,,,,,,1,,,67,36
63660,note_on,60,0,2,,,,,,,,,1,,,71,0
63660,note_on,54,0,3,,,,,,,,,2,,,64,36
63660,note_on,0,0,2,,,,,,,,,1,,,67,0
63666,note_on,6,0,3,,,,,,,,,2,,,64,0
63666,note_on,6,0,1,,,,,,,,,0,,,76,0
63720,note_on,54,0,3,,,,,,,,,2,,,65,36
63720,note_on,54,0,1,,,,,,,,,0,,,77,88
63720,note_on,0,0,2,,,,,,,,,1,,,71,36
63720,note_on,0,0,2,,,,,,,,,1,,,67,36
63720,note_on,0,0,2,,,,,,,,,1,,,67,0
63720,note_on,60,0,2,,,,,,,,,1,,,71,0
63726,note_on,6,0,1,,,,,,,,,0,,,77,0
63726,note_on,6,0,3,,,,,,,,,2,,,65,0
63780,note_on,0,0,2,,,,,,,,,1,,,67,36
63780,note_on,0,0,1,,,,,,,,,0,,,79,88
63780,note_on,0,0,3,,,,,,,,,2,,,67,36
63780,control_change,54,0,3,,,,,,,,,2,64,0,,
63780,control_change,54,0,1,,,,,,,,,0,64,0,,
63780,note_on,60,0,2,,,,,,,,,1,,,71,0
63780,note_on,0,0,2,,,,,,,,,1,,,67,0
63780,control_change,0,0,2,,,,,,,,,1,64,0,,
63780,note_on,0,0,2,,,,,,,,,1,,,71,36
63786,note_on,6,0,1,,,,,,,,,0,,,79,0
63786,note_on,6,0,3,,,,,,,,,2,,,67,0
63840,note_on,0,0,1,,,,,,,,,0,,,77,88
63840,control_change,54,0,1,,,,,,,,,0,64,127,,
63840,control_change,0,0,2,,,,,,,,,1,64,127,,
63840,note_on,0,0,2,,,,,,,,,1,,,67,0
63840,note_on,0,0,2,,,,,,,,,1,,,67,36
63840,note_on,0,0,2,,,,,,,,,1,,,72,36
63840,control_change,54,0,3,,,,,,,,,2,64,127,,
63840,note_on,0,0,3,,,,,,,,,2,,,48,36
63840,note_on,60,0,2,,,,,,,,,1,,,71,0
63844,note_on,4,0,3,,,,,,,,,2,,,48,0
63846,note_on,6,0,1,,,,,,,,,0,,,77,0
63870,note_on,26,0,3,,,,,,,,,2,,,55,36
63900,note_on,0,0,3,,,,,,,,,2,,,60,36
63900,note_on,0,0,2,,,,,,,,,1,,,67,36
63900,note_on,54,0,1,,,,,,,,,0,,,76,88
63900,note_on,30,0,3,,,,,,,,,2,,,55,0
63900,note_on,0,0,2,,,,,,,,,1,,,72,36
63900,note_on,60,0,2,,,,,,,,,1,,,72,0
63900,note_on,0,0,2,,,,,,,,,1,,,67,0
63906,note_on,6,0,1,,,,,,,,,0,,,76,0
63930,note_on,0,0,3,,,,,,,,,2,,,55,36
63930,note_on,30,0,3,,,,,,,,,2,,,60,0
63960,note_on,54,0,1,,,,,,,,,0,,,74,88
63960,note_on,60,0,2,,,,,,,,,1,,,72,0
63960,note_on,0,0,2,,,,,,,,,1,,,67,0
63960,note_on,0,0,2,,,,,,,,,1,,,67,36
63960,note_on,0,0,3,,,,,,,,,2,,,64,36
63960,note_on,30,0,3,,,,,,,,,2,,,55,0
63966,note_on,6,0,1,,,,,,,,,0,,,74,0
63990,note_on,0,0,3,,,,,,,,,2,,,55,36
63990,note_on,30,0,3,,,,,,,,,2,,,64,0
64020,note_on,0,0,2,,,,,,,,,1,,,67,36
64020,note_on,0,0,2,,,,,,,,,1,,,64,36
64020,control_change,0,0,2,,,,,,,,,1,64,0,,
64020,note_on,60,0,2,,,,,,,,,1,,,67,0
64020,note_on,0,0,1,,,,,,,,,0,,,72,88
64020,note_on,0,0,3,,,,,,,,,2,,,60,36
64020,control_change,54,0,1,,,,,,,,,0,64,0,,
64020,control_change,0,0,1,,,,,,,,,0,64,0,,
64020,note_on,30,0,3,,,,,,,,,2,,,55,0
64026,note_on,6,0,1,,,,,,,,,0,,,72,0
64050,note_on,30,0,3,,,,,,,,,2,,,60,0
64050,control_change,0,0,3,,,,,,,,,2,64,0,,
64050,note_on,0,0,3,,,,,,,,,2,,,55,36
64080,note_on,30,0,3,,,,,,,,,2,,,55,0
64080,control_change,0,0,3,,,,,,,,,2,64,127,,
64080,note_on,0,0,3,,,,,,,,,2,,,38,36
64080,note_on,0,0,2,,,,,,,,,1,,,62,36
64080,note_on,0,0,2,,,,,,,,,1,,,67,36
64080,note_on,0,0,1,,,,,,,,,0,,,72,88
64080,control_change,54,0,1,,,,,,,,,0,64,127,,
64080,note_on,60,0,2,,,,,,,,,1,,,67,0
64080,note_on,0,0,2,,,,,,,,,1,,,64,0
64080,control_change,0,0,2,,,,,,,,,1,64,127,,
64084,note_on,4,0,3,,,,,,,,,2,,,38,0
64086,note_on,6,0,1,,,,,,,,,0,,,72,0
64110,note_on,26,0,3,,,,,,,,,2,,,50,36
64140,note_on,30,0,3,,,,,,,,,2,,,50,0
64140,note_on,0,0,3,,,,,,,,,2,,,55,36
64140,note_on,0,0,2,,,,,,,,,1,,,67,36
64140,note_on,54,0,1,,,,,,,,,0,,,71,88
64140,note_on,0,0,2,,,,,,,,,1,,,62,0
64140,note_on,60,0,2,,,,,,,,,1,,,67,0
64140,note_on,0,0,2,,,,,,,,,1,,,62,36
64146,note_on,6,0,1,,,,,,,,,0,,,71,0
64170,note_on,30,0,3,,,,,,,,,2,,,55,0
64170,note_on,0,0,3,,,,,,,,,2,,,50,36
64200,note_on,60,0,2,,,,,,,,,1,,,67,0
64200,note_on,0,0,1,,,,,,,,,0,,,74,88
64200,control_change,54,0,1,,,,,,,,,0,64,0,,
64200,note_on,0,0,2,,,,,,,,,1,,,66,36
64200,note_on,0,0,2,,,,,,,,,1,,,62,36
64200,control_change,0,0,2,,,,,,,,,1,64,0,,
64200,note_on,30,0,3,,,,,,,,,2,,,50,0
64200,note_on,0,0,2,,,,,,,,,1,,,62,0
64200,note_on,0,0,3,,,,,,,,,2,,,59,36
64200,control_change,0,0,3,,,,,,,,,2,64,0,,
64206,note_on,6,0,1,,,,,,,,,0,,,74,0
64230,note_on,30,0,3,,,,,,,,,2,,,59,0
64230,note_on,0,0,3,,,,,,,,,2,,,50,36
64260,note_on,30,0,3,,,,,,,,,2,,,50,0
64260,note_on,60,0,2,,,,,,,,,1,,,66,0
64260,note_on,0,0,2,,,,,,,,,1,,,62,0
64260,note_on,0,0,2,,,,,,,,,1,,,62,36
64260,note_on,0,0,2,,,,,,,,,1,,,66,36
64260,note_on,54,0,1,,,,,,,,,0,,,72,88
64260,note_on,0,0,3,,,,,,,,,2,,,57,36
64266,note_on,6,0,1,,,,,,,,,0,,,72,0
64290,note_on,0,0,3,,,,,,,,,2,,,50,36
64290,note_on,30,0,3,,,,,,,,,2,,,57,0
64320,note_on,30,0,3,,,,,,,,,2,,,50,0
64320,note_on,0,0,3,,,,,,,,,2,,,43,36
64320,note_on,0,0,1,,,,,,,,,0,,,71,88
64320,control_change,54,0,1,,,,,,,,,0,64,127,,
64320,control_change,0,0,2,,,,,,,,,1,64,127,,
64320,note_on,0,0,2,,,,,,,,,1,,,62,36
64320,control_change,0,0,3,,,,,,,,,2,64,127,,
64320,note_on,0,0,2,,,,,,,,,1,,,67,36
64320,note_on,0,0,2,,,,,,,,,1,,,62,0
64320,note_on,60,0,2,,,,,,,,,1,,,66,0
64350,note_on,30,0,3,,,,,,,,,2,,,43,0
64350,note_on,0,0,3,,,,,,,,,2,,,50,36
64380,note_on,30,0,3,,,,,,,,,2,,,50,0
64380,note_on,0,0,3,,,,,,,,,2,,,55,36
64410,note_on,30,0,3,,,,,,,,,2,,,55,0
64410,note_on,0,0,3,,,,,,,,,2,,,50,36
64440,note_on,0,0,2,,,,,,,,,1,,,67,36
64440,note_on,0,0,1,,,,,,,,,0,,,74,88
64440,note_on,120,0,1,,,,,,,,,0,,,71,0
64440,note_on,0,0,2,,,,,,,,,1,,,62,0
64440,note_on,120,0,2,,,,,,,,,1,,,67,0
64440,note_on,0,0,3,,,,,,,,,2,,,55,36
64440,note_on,0,0,2,,,,,,,,,1,,,71,36
64440,note_on,30,0,3,,,,,,,,,2,,,50,0
64470,note_on,30,0,3,,,,,,,,,2,,,55,0
64470,note_on,0,0,3,,,,,,,,,2,,,59,36
64500,control_change,0,0,1,,,,,,,,,0,64,0,,
64500,note_on,60,0,1,,,,,,,,,0,,,74,0
64500,note_on,60,0,2,,,,,,,,,1,,,71,0
64500,note_on,0,0,2,,,,,,,,,1,,,67,0
64500,control_change,0,0,2,,,,,,,,,1,64,0,,
64500,note_on,0,0,2,,,,,,,,,1,,,67,36
64500,note_on,0,0,2,,,,,,,,,1,,,71,36
64500,note_on,0,0,3,,,,,,,,,2,,,62,36
64500,note_on,0,0,1,,,,,,,,,0,,,76,88
64500,note_on,30,0,3,,,,,,,,,2,,,59,0
64530,note_on,0,0,3,,,,,,,,,2,,,64,36
64530,control_change,0,0,3,,,,,,,,,2,64,0,,
64530,note_on,30,0,3,,,,,,,,,2,,,62,0
64560,control_change,0,0,1,,,,,,,,,0,64,127,,
64560,note_on,0,0,1,,,,,,,,,0,,,77,88
64560,note_on,0,0,2,,,,,,,,,1,,,67,0
64560,note_on,60,0,2,,,,,,,,,1,,,71,0
64560,note_on,60,0,1,,,,,,,,,0,,,76,0
64560,note_on,0,0,2,,,,,,,,,1,,,67,36
64560,note_on,0,0,2,,,,,,,,,1,,,71,36
64560,note_on,0,0,3,,,,,,,,,2,,,65,36
64560,control_change,0,0,2,,,,,,,,,1,64,127,,
64560,control_change,0,0,3,,,,,,,,,2,64,127,,
64560,note_on,30,0,3,,,,,,,,,2,,,64,0
64620,note_on,60,0,3,,,,,,,,,2,,,65,0
64620,note_on,60,0,1,,,,,,,,,0,,,77,0
64620,note_on,0,0,1,,,,,,,,,0,,,76,88
64620,note_on,0,0,3,,,,,,,,,2,,,64,36
64620,note_on,0,0,2,,,,,,,,,1,,,71,36
64620,note_on,0,0,2,,,,,,,,,1,,,67,36
64620,note_on,0,0,2,,,,,,,,,1,,,67,0
64620,note_on,60,0,2,,,,,,,,,1,,,71,0
64680,note_on,0,0,2,,,,,,,,,1,,,67,0
64680,note_on,60,0,1,,,,,,,,,0,,,76,0
64680,note_on,0,0,2,,,,,,,,,1,,,71,36
64680,note_on,60,0,2,,,,,,,,,1,,,71,0
64680,note_on,0,0,1,,,,,,,,,0,,,77,88
64680,note_on,0,0,2,,,,,,,,,1,,,67,36
64680,note_on,0,0,3,,,,,,,,,2,,,65,36
64680,note_on,60,0,3,,,,,,,,,2,,,64,0
64710,note_on,0,0,1,,,,,,,,,0,,,81,88
64710,note_on,30,0,1,,,,,,,,,0,,,77,0
64710,note_on,0,0,3,,,,,,,,,2,,,69,36
64710,note_on,30,0,3,,,,,,,,,2,,,65,0
64740,note_on,30,0,3,,,,,,,,,2,,,69,0
64740,control_change,0,0,3,,,,,,,,,2,64,0,,
64740,note_on,0,0,3,,,,,,,,,2,,,67,36
64740,control_change,0,0,2,,,,,,,,,1,64,0,,
64740,note_on,30,0,1,,,,,,,,,0,,,81,0
64740,control_change,0,0,1,,,,,,,,,0,64,0,,
64740,note_on,0,0,1,,,,,,,,,0,,,79,88
64740,note_on,0,0,2,,,,,,,,,1,,,71,36
64740,note_on,60,0,2,,,,,,,,,1,,,71,0
64740,note_on,0,0,2,,,,,,,,,1,,,67,0
64800,note_on,0,0,2,,,,,,,,,1,,,72,36
64800,note_on,0,0,2,,,,,,,,,1,,,67,36
64800,note_on,60,0,1,,,,,,,,,0,,,79,0
64800,control_change,0,0,1,,,,,,,,,0,64,127,,
64800,note_on,60,0,2,,,,,,,,,1,,,71,0
64800,note_on,60,0,3,,,,,,,,,2,,,67,0
64800,control_change,0,0,3,,,,,,,,,2,64,127,,
64800,note_on,0,0,3,,,,,,,,,2,,,48,36
64800,note_on,0,0,1,,,,,,,,,0,,,77,62
64800,control_change,0,0,2,,,,,,,,,1,64,127,,
64804,note_on,4,0,3,,,,,,,,,2,,,48,0
64806,note_on,6,0,1,,,,,,,,,0,,,77,0
64830,note_on,26,0,3,,,,,,,,,2,,,55,36
64860,note_on,0,0,2,,,,,,,,,1,,,67,0
64860,note_on,54,0,1,,,,,,,,,0,,,76,62
64860,note_on,0,0,2,,,,,,,,,1,,,72,36
64860,note_on,30,0,3,,,,,,,,,2,,,55,0
64860,note_on,0,0,3,,,,,,,,,2,,,60,36
64860,note_on,60,0,2,,,,,,,,,1,,,72,0
64860,note_on,0,0,2,,,,,,,,,1,,,67,36
64866,note_on,6,0,1,,,,,,,,,0,,,76,0
64890,note_on,0,0,3,,,,,,,,,2,,,55,36
64890,note_on,30,0,3,,,,,,,,,2,,,60,0
64920,note_on,60,0,2,,,,,,,,,1,,,72,0
64920,note_on,0,0,3,,,,,,,,,2,,,59,36
64920,note_on,30,0,3,,,,,,,,,2,,,55,0
64920,note_on,0,0,2,,,,,,,,,1,,,67,0
64920,note_on,0,0,2,,,,,,,,,1,,,67,36
64920,note_on,54,0,1,,,,,,,,,0,,,74,62
64926,note_on,6,0,1,,,,,,,,,0,,,74,0
64950,note_on,30,0,3,,,,,,,,,2,,,59,0
64950,note_on,0,0,3,,,,,,,,,2,,,55,36
64980,note_on,0,0,1,,,,,,,,,0,,,72,62
64980,control_change,54,0,1,,,,,,,,,0,64,0,,
64980,note_on,0,0,3,,,,,,,,,2,,,60,36
64980,note_on,30,0,3,,,,,,,,,2,,,55,0
64980,note_on,0,0,2,,,,,,,,,1,,,64,36
64980,note_on,0,0,2,,,,,,,,,1,,,67,36
64980,note_on,60,0,2,,,,,,,,,1,,,67,0
64980,control_change,0,0,2,,,,,,,,,1,64,0,,
64986,note_on,6,0,1,,,,,,,,,0,,,72,0
65010,note_on,0,0,3,,,,,,,,,2,,,55,36
65010,control_change,0,0,3,,,,,,,,,2,64,0,,
65010,note_on,30,0,3,,,,,,,,,2,,,60,0
65040,note_on,0,0,1,,,,,,,,,0,,,72,62
65040,control_change,54,0,1,,,,,,,,,0,64,127,,
65040,control_change,0,0,2,,,,,,,,,1,64,127,,
65040,note_on,0,0,2,,,,,,,,,1,,,62,36
65040,note_on,0,0,3,,,,,,,,,2,,,38,36
65040,control_change,0,0,3,,,,,,,,,2,64,127,,
65040,note_on,30,0,3,,,,,,,,,2,,,55,0
65040,note_on,60,0,2,,,,,,,,,1,,,67,0
65040,note_on,0,0,2,,,,,,,,,1,,,64,0
65040,note_on,0,0,2,,,,,,,,,1,,,67,36
65044,note_on,4,0,3,,,,,,,,,2,,,38,0
65046,note_on,6,0,1,,,,,,,,,0,,,72,0
65070,note_on,26,0,3,,,,,,,,,2,,,50,36
65100,note_on,60,0,2,,,,,,,,,1,,,67,0
65100,note_on,0,0,2,,,,,,,,,1,,,62,0
65100,note_on,0,0,2,,,,,,,,,1,,,62,36
65100,note_on,0,0,2,,,,,,,,,1,,,67,36
65100,note_on,0,0,3,,,,,,,,,2,,,55,36
65100,note_on,30,0,3,,,,,,,,,2,,,50,0
65100,note_on,54,0,1,,,,,,,,,0,,,71,62
65106,note_on,6,0,1,,,,,,,,,0,,,71,0
65130,note_on,0,0,3,,,,,,,,,2,,,50,36
65130,note_on,30,0,3,,,,,,,,,2,,,55,0
65160,note_on,30,0,3,,,,,,,,,2,,,50,0
65160,control_change,0,0,3,,,,,,,,,2,64,0,,
65160,control_change,54,0,1,,,,,,,,,0,64,0,,
65160,note_on,0,0,3,,,,,,,,,2,,,59,36
65160,note_on,0,0,2,,,,,,,,,1,,,62,36
65160,note_on,60,0,2,,,,,,,,,1,,,67,0
65160,note_on,0,0,2,,,,,,,,,1,,,62,0
65160,control_change,0,0,2,,,,,,,,,1,64,0,,
65160,note_on,0,0,1,,,,,,,,,0,,,74,62
65160,note_on,0,0,2,,,,,,,,,1,,,66,36
65166,note_on,6,0,1,,,,,,,,,0,,,74,0
65190,note_on,30,0,3,,,,,,,,,2,,,59,0
65190,note_on,0,0,3,,,,,,,,,2,,,50,36
65220,note_on,0,0,2,,,,,,,,,1,,,62,36
65220,note_on,0,0,2,,,,,,,,,1,,,62,0
65220,note_on,60,0,2,,,,,,,,,1,,,66,0
65220,note_on,30,0,3,,,,,,,,,2,,,50,0
65220,note_on,0,0,2,,,,,,,,,1,,,66,36
65220,note_on,54,0,1,,,,,,,,,0,,,72,62
65220,note_on,0,0,3,,,,,,,,,2,,,60,36
65226,note_on,6,0,1,,,,,,,,,0,,,72,0
65250,note_on,30,0,3,,,,,,,,,2,,,60,0
65250,note_on,0,0,3,,,,,,,,,2,,,50,36
65280,note_on,0,0,1,,,,,,,,,0,,,62,62
65280,control_change,0,0,3,,,,,,,,,2,64,127,,
65280,note_on,0,0,3,,,,,,,,,2,,,43,36
65280,note_on,54,0,1,,,,,,,,,0,,,59,62
65280,note_on,60,0,2,,,,,,,,,1,,,66,0
65280,note_on,0,0,1,,,,,,,,,0,,,67,62
65280,note_on,30,0,3,,,,,,,,,2,,,50,0
65280,note_on,0,0,2,,,,,,,,,1,,,62,0
65284,note_on,4,0,3,,,,,,,,,2,,,43,0
65310,note_on,26,0,3,,,,,,,,,2,,,50,36
65340,note_on,30,0,3,,,,,,,,,2,,,50,0
65340,note_on,0,0,3,,,,,,,,,2,,,55,36
65370,note_on,30,0,3,,,,,,,,,2,,,55,0
65370,note_on,0,0,3,,,,,,,,,2,,,50,36
65400,note_on,30,0,3,,,,,,,,,2,,,50,0
65400,note_on,0,0,3,,,,,,,,,2,,,55,36
65430,note_on,30,0,3,,,,,,,,,2,,,55,0
65430,note_on,0,0,3,,,,,,,,,2,,,50,36
65460,note_on,30,0,3,,,,,,,,,2,,,50,0
65460,note_on,0,0,3,,,,,,,,,2,,,43,36
65490,note_on,0,0,3,,,,,,,,,2,,,45,36
65490,control_change,0,0,3,,,,,,,,,2,64,0,,
65490,note_on,30,0,3,,,,,,,,,2,,,43,0
65520,note_on,240,0,1,,,,,,,,,0,,,67,0
65520,note_on,0,0,1,,,,,,,,,0,,,62,0
65520,note_on,0,0,1,,,,,,,,,0,,,59,0
65520,note_on,0,0,1,,,,,,,,,0,,,58,88
65520,control_change,0,0,1,,,,,,,,,0,64,127,,
65520,note_on,30,0,3,,,,,,,,,2,,,45,0
65520,control_change,0,0,3,,,,,,,,,2,64,127,,
65520,note_on,0,0,3,,,,,,,,,2,,,46,75
65550,note_on,30,0,1,,,,,,,,,0,,,58,0
65550,note_on,0,0,1,,,,,,,,,0,,,57,88
65550,note_on,30,0,3,,,,,,,,,2,,,46,0
65550,note_on,0,0,3,,,,,,,,,2,,,45,75
65580,note_on,30,0,3,,,,,,,,,2,,,45,0
65580,note_on,30,0,1,,,,,,,,,0,,,57,0
65580,note_on,0,0,1,,,,,,,,,0,,,55,88
65580,note_on,0,0,3,,,,,,,,,2,,,43,75
65610,note_on,30,0,3,,,,,,,,,2,,,43,0
65610,note_on,0,0,3,,,,,,,,,2,,,45,75
65610,note_on,30,0,1,,,,,,,,,0,,,55,0
65610,note_on,0,0,1,,,,,,,,,0,,,57,88
65640,note_on,0,0,3,,,,,,,,,2,,,46,88
65640,note_on,0,0,1,,,,,,,,,0,,,58,101
65640,note_on,30,0,3,,,,,,,,,2,,,45,0
65640,note_on,30,0,1,,,,,,,,,0,,,57,0
65670,note_on,30,0,1,,,,,,,,,0,,,58,0
65670,note_on,0,0,1,,,,,,,,,0,,,55,101
65670,note_on,0,0,3,,,,,,,,,2,,,43,88
65670,note_on,30,0,3,,,,,,,,,2,,,46,0
65700,note_on,0,0,1,,,,,,,,,0,,,58,101
65700,note_on,30,0,1,,,,,,,,,0,,,55,0
65700,note_on,30,0,3,,,,,,,,,2,,,43,0
65700,note_on,0,0,3,,,,,,,,,2,,,46,88
65730,note_on,30,0,3,,,,,,,,,2,,,46,0
65730,control_change,0,0,3,,,,,,,,,2,64,0,,
65730,note_on,30,0,1,,,,,,,,,0,,,58,0
65730,control_change,0,0,1,,,,,,,,,0,64,0,,
65730,note_on,0,0,3,,,,,,,,,2,,,43,88
65730,note_on,0,0,1,,,,,,,,,0,,,55,101
65760,note_on,30,0,1,,,,,,,,,0,,,55,0
65760,note_on,0,0,3,,,,,,,,,2,,,55,101
65760,note_on,30,0,3,,,,,,,,,2,,,43,0
65760,control_change,0,0,3,,,,,,,,,2,64,127,,
65760,note_on,0,0,1,,,,,,,,,0,,,67,114
65760,control_change,0,0,1,,,,,,,,,0,64,127,,
65820,note_on,0,0,3,,,,,,,,,2,,,43,101
65820,note_on,60,0,3,,,,,,,,,2,,,55,0
65820,note_on,60,0,1,,,,,,,,,0,,,67,0
65820,note_on,0,0,1,,,,,,,,,0,,,55,114
65880,note_on,0,0,3,,,,,,,,,2,,,43,127
65880,note_on,0,0,1,,,,,,,,,0,,,55,114
65880,note_on,60,0,1,,,,,,,,,0,,,55,0
65880,note_on,60,0,3,,,,,,,,,2,,,43,0
65886,note_on,6,0,1,,,,,,,,,0,,,55,0
65886,note_on,6,0,3,,,,,,,,,2,,,43,0
65940,control_change,54,0,1,,,,,,,,,0,64,0,,
65940,note_on,0,0,3,,,,,,,,,2,,,43,127
65940,control_change,54,0,3,,,,,,,,,2,64,0,,
65940,note_on,0,0,1,,,,,,,,,0,,,55,114
65946,note_on,6,0,1,,,,,,,,,0,,,55,0
65946,note_on,6,0,3,,,,,,,,,2,,,43,0
66000,note_on,0,0,1,,,,,,,,,0,,,63,114
66000,note_on,0,0,3,,,,,,,,,2,,,39,101
66000,note_on,0,0,1,,,,,,,,,0,,,67,114
66000,control_change,54,0,1,,,,,,,,,0,64,127,,
66000,control_change,54,0,3,,,,,,,,,2,64,127,,
66000,note_on,0,0,1,,,,,,,,,0,,,60,114
66030,note_on,30,0,3,,,,,,,,,2,,,39,0
66030,note_on,0,0,3,,,,,,,,,2,,,38,101
66060,note_on,30,0,3,,,,,,,,,2,,,38,0
66060,note_on,0,0,3,,,,,,,,,2,,,36,101
66060,note_on,0,0,1,,,,,,,,,0,,,55,114
66060,note_on,0,0,1,,,,,,,,,0,,,60,0
66060,note_on,0,0,1,,,,,,,,,0,,,63,0
66060,note_on,60,0,1,,,,,,,,,0,,,67,0
66090,note_on,0,0,3,,,,,,,,,2,,,38,101
66090,note_on,30,0,3,,,,,,,,,2,,,36,0
66120,note_on,30,0,3,,,,,,,,,2,,,38,0
66120,note_on,0,0,3,,,,,,,,,2,,,39,101
66120,note_on,0,0,1,,,,,,,,,0,,,55,114
66120,note_on,60,0,1,,,,,,,,,0,,,55,0
66126,note_on,6,0,1,,,,,,,,,0,,,55,0
66150,note_on,0,0,3,,,,,,,,,2,,,36,101
66150,note_on,30,0,3,,,,,,,,,2,,,39,0
66180,note_on,0,0,1,,,,,,,,,0,,,55,114
66180,note_on,0,0,3,,,,,,,,,2,,,39,101
66180,note_on,30,0,3,,,,,,,,,2,,,36,0
66180,control_change,54,0,1,,,,,,,,,0,64,0,,
66186,note_on,6,0,1,,,,,,,,,0,,,55,0
66210,note_on,0,0,3,,,,,,,,,2,,,36,101
66210,control_change,0,0,3,,,,,,,,,2,64,0,,
66210,note_on,30,0,3,,,,,,,,,2,,,39,0
66240,note_on,0,0,1,,,,,,,,,0,,,58,114
66240,note_on,0,0,3,,,,,,,,,2,,,43,101
66240,control_change,0,0,3,,,,,,,,,2,64,127,,
66240,note_on,30,0,3,,,,,,,,,2,,,36,0
66240,control_change,54,0,1,,,,,,,,,0,64,127,,
66240,note_on,0,0,1,,,,,,,,,0,,,67,114
66240,note_on,0,0,1,,,,,,,,,0,,,62,114
66300,note_on,0,0,3,,,,,,,,,2,,,31,101
66300,note_on,60,0,3,,,,,,,,,2,,,43,0
66300,note_on,60,0,1,,,,,,,,,0,,,67,0
66300,note_on,0,0,1,,,,,,,,,0,,,55,114
66300,note_on,0,0,1,,,,,,,,,0,,,58,0
66300,note_on,0,0,1,,,,,,,,,0,,,62,0
66360,note_on,60,0,3,,,,,,,,,2,,,31,0
66360,note_on,0,0,1,,,,,,,,,0,,,55,114
66360,note_on,60,0,1,,,,,,,,,0,,,55,0
66360,note_on,0,0,3,,,,,,,,,2,,,31,101
66366,note_on,6,0,3,,,,,,,,,2,,,31,0
66366,note_on,6,0,1,,,,,,,,,0,,,55,0
66420,control_change,54,0,3,,,,,,,,,2,64,0,,
66420,note_on,0,0,1,,,,,,,,,0,,,55,114
66420,control_change,54,0,1,,,,,,,,,0,64,0,,
66420,note_on,0,0,3,,,,,,,,,2,,,31,101
66426,note_on,6,0,3,,,,,,,,,2,,,31,0
66426,note_on,6,0,1,,,,,,,,,0,,,55,0
66480,control_change,54,0,3,,,,,,,,,2,64,127,,
66480,note_on,0,0,3,,,,,,,,,2,,,41,101
66480,note_on,0,0,3,,,,,,,,,2,,,53,101
66480,note_on,0,0,2,,,,,,,,,1,,,62,101
66480,control_change,54,0,1,,,,,,,,,0,64,127,,
66480,note_on,0,0,1,,,,,,,,,0,,,74,114
66480,control_change,1200,0,2,,,,,,,,,1,64,127,,
66480,note_on,0,0,2,,,,,,,,,1,,,68,101
66486,note_on,0,0,3,,,,,,,,,2,,,41,0
66486,note_on,6,0,3,,,,,,,,,2,,,53,0
66510,note_on,30,0,1,,,,,,,,,0,,,74,0
66510,note_on,0,0,1,,,,,,,,,0,,,73,114
66540,note_on,0,0,3,,,,,,,,,2,,,56,101
66540,note_on,54,0,3,,,,,,,,,2,,,44,101
66540,note_on,0,0,2,,,,,,,,,1,,,62,101
66540,note_on,0,0,2,,,,,,,,,1,,,68,101
66540,note_on,0,0,2,,,,,,,,,1,,,62,0
66540,note_on,60,0,2,,,,,,,,,1,,,68,0
66540,note_on,0,0,1,,,,,,,,,0,,,71,114
66540,note_on,30,0,1,,,,,,,,,0,,,73,0
66546,note_on,6,0,3,,,,,,,,,2,,,56,0
66546,note_on,0,0,3,,,,,,,,,2,,,44,0
66570,note_on,30,0,1,,,,,,,,,0,,,71,0
66570,note_on,0,0,1,,,,,,,,,0,,,73,114
66600,note_on,0,0,3,,,,,,,,,2,,,59,101
66600,note_on,54,0,3,,,,,,,,,2,,,47,101
66600,note_on,0,0,2,,,,,,,,,1,,,68,101
66600,note_on,0,0,2,,,,,,,,,1,,,65,101
66600,note_on,0,0,2,,,,,,,,,1,,,62,0
66600,note_on,60,0,2,,,,,,,,,1,,,68,0
66600,note_on,30,0,1,,,,,,,,,0,,,73,0
66600,note_on,0,0,1,,,,,,,,,0,,,74,114
66606,note_on,6,0,3,,,,,,,,,2,,,59,0
66606,note_on,0,0,3,,,,,,,,,2,,,47,0
66630,note_on,30,0,1,,,,,,,,,0,,,74,0
66630,note_on,0,0,1,,,,,,,,,0,,,71,114
66660,note_on,30,0,1,,,,,,,,,0,,,71,0
66660,note_on,0,0,2,,,,,,,,,1,,,68,101
66660,note_on,0,0,2,,,,,,,,,1,,,65,101
66660,control_change,0,0,2,,,,,,,,,1,64,0,,
66660,note_on,0,0,2,,,,,,,,,1,,,65,0
66660,note_on,60,0,2,,,,,,,,,1,,,68,0
66660,control_change,54,0,3,,,,,,,,,2,64,0,,
66660,note_on,0,0,3,,,,,,,,,2,,,50,101
66660,note_on,0,0,3,,,,,,,,,2,,,62,101
66660,note_on,0,0,1,,,,,,,,,0,,,74,114
66666,note_on,6,0,3,,,,,,,,,2,,,62,0
66666,note_on,0,0,3,,,,,,,,,2,,,50,0
66690,note_on,30,0,1,,,,,,,,,0,,,74,0
66690,note_on,0,0,1,,,,,,,,,0,,,71,114
66690,control_change,0,0,1,,,,,,,,,0,64,0,,
66720,note_on,0,0,1,,,,,,,,,0,,,74,101
66720,note_on,0,0,1,,,,,,,,,0,,,78,101
66720,note_on,0,0,1,,,,,,,,,0,,,71,101
66720,note_on,60,0,2,,,,,,,,,1,,,68,0
66720,note_on,0,0,3,,,,,,,,,2,,,54,88
66720,note_on,0,0,1,,,,,,,,,0,,,66,101
66720,note_on,0,0,3,,,,,,,,,2,,,42,88
66720,note_on,0,0,3,,,,,,,,,2,,,47,88
66720,control_change,0,0,1,,,,,,,,,0,64,127,,
66720,note_on,30,0,1,,,,,,,,,0,,,71,0
66720,note_on,0,0,3,,,,,,,,,2,,,50,88
66720,control_change,54,0,3,,,,,,,,,2,64,127,,
66720,note_on,0,0,2,,,,,,,,,1,,,65,0
66726,note_on,0,0,1,,,,,,,,,0,,,74,0
66726,note_on,0,0,1,,,,,,,,,0,,,71,0
66726,note_on,0,0,1,,,,,,,,,0,,,66,0
66726,note_on,6,0,1,,,,,,,,,0,,,78,0
66726,note_on,0,0,3,,,,,,,,,2,,,50,0
66726,note_on,0,0,3,,,,,,,,,2,,,47,0
66726,note_on,0,0,3,,,,,,,,,2,,,42,0
66726,note_on,6,0,3,,,,,,,,,2,,,54,0
66780,note_on,54,0,3,,,,,,,,,2,,,54,88
66780,note_on,0,0,3,,,,,,,,,2,,,59,88
66780,note_on,54,0,1,,,,,,,,,0,,,62,101
66780,note_on,0,0,1,,,,,,,,,0,,,66,101
66786,note_on,6,0,3,,,,,,,,,2,,,59,0
66786,note_on,0,0,3,,,,,,,,,2,,,54,0
66786,note_on,6,0,1,,,,,,,,,0,,,66,0
66786,note_on,0,0,1,,,,,,,,,0,,,62,0
66840,note_on,0,0,1,,,,,,,,,0,,,66,101
66840,note_on,54,0,3,,,,,,,,,2,,,54,88
66840,note_on,0,0,3,,,,,,,,,2,,,59,88
66840,note_on,54,0,1,,,,,,,,,0,,,62,101
66846,note_on,0,0,1,,,,,,,,,0,,,62,0
66846,note_on,0,0,3,,,,,,,,,2,,,54,0
66846,note_on,6,0,1,,,,,,,,,0,,,66,0
66846,note_on,6,0,3,,,,,,,,,2,,,59,0
66900,control_change,54,0,1,,,,,,,,,0,64,0,,
66900,note_on,0,0,1,,,,,,,,,0,,,62,101
66900,note_on,0,0,1,,,,,,,,,0,,,66,101
66900,control_change,54,0,3,,,,,,,,,2,64,0,,
66900,note_on,0,0,3,,,,,,,,,2,,,54,88
66900,note_on,0,0,3,,,,,,,,,2,,,59,88
66906,note_on,6,0,1,,,,,,,,,0,,,66,0
66906,note_on,6,0,3,,,,,,,,,2,,,59,0
66906,note_on,0,0,3,,,,,,,,,2,,,54,0
66906,note_on,0,0,1,,,,,,,,,0,,,62,0
66960,note_on,0,0,1,,,,,,,,,0,,,67,49
66960,note_on,0,0,2,,,,,,,,,1,,,61,36
66960,control_change,240,0,2,,,,,,,,,1,64,127,,
66960,control_change,54,0,1,,,,,,,,,0,64,127,,
66960,note_on,0,0,3,,,,,,,,,2,,,52,36
66960,note_on,0,0,3,,,,,,,,,2,,,59,36
66960,control_change,54,0,3,,,,,,,,,2,64,127,,
66966,note_on,6,0,3,,,,,,,,,2,,,59,0
66966,note_on,0,0,3,,,,,,,,,2,,,52,0
66990,note_on,30,0,1,,,,,,,,,0,,,67,0
66990,note_on,0,0,1,,,,,,,,,0,,,66,49
67020,note_on,0,0,2,,,,,,,,,1,,,61,36
67020,note_on,60,0,2,,,,,,,,,1,,,61,0
67020,note_on,0,0,1,,,,,,,,,0,,,69,49
67020,note_on,54,0,3,,,,,,,,,2,,,52,36
67020,note_on,0,0,3,,,,,,,,,2,,,59,36
67020,note_on,30,0,1,,,,,,,,,0,,,66,0
67026,note_on,0,0,3,,,,,,,,,2,,,52,0
67026,note_on,6,0,3,,,,,,,,,2,,,59,0
67050,note_on,30,0,1,,,,,,,,,0,,,69,0
67050,note_on,0,0,1,,,,,,,,,0,,,67,49
67080,note_on,0,0,3,,,,,,,,,2,,,58,36
67080,note_on,54,0,3,,,,,,,,,2,,,54,36
67080,note_on,60,0,2,,,,,,,,,1,,,61,0
67080,note_on,0,0,2,,,,,,,,,1,,,64,36
67080,note_on,0,0,1,,,,,,,,,0,,,66,49
67080,note_on,30,0,1,,,,,,,,,0,,,67,0
67086,note_on,6,0,3,,,,,,,,,2,,,58,0
67086,note_on,0,0,3,,,,,,,,,2,,,54,0
67086,note_on,6,0,1,,,,,,,,,0,,,66,0
67140,control_change,54,0,1,,,,,,,,,0,64,0,,
67140,note_on,0,0,1,,,,,,,,,0,,,66,49
67140,note_on,0,0,3,,,,,,,,,2,,,54,36
67140,control_change,0,0,2,,,,,,,,,1,64,0,,
67140,note_on,0,0,2,,,,,,,,,1,,,64,36
67140,note_on,60,0,2,,,,,,,,,1,,,64,0
67140,control_change,54,0,3,,,,,,,,,2,64,0,,
67140,note_on,0,0,3,,,,,,,,,2,,,58,36
67146,note_on,6,0,1,,,,,,,,,0,,,66,0
67146,note_on,0,0,3,,,,,,,,,2,,,54,0
67146,note_on,6,0,3,,,,,,,,,2,,,58,0
67200,note_on,0,0,1,,,,,,,,,0,,,71,114
67200,note_on,0,0,1,,,,,,,,,0,,,66,114
67200,note_on,0,0,1,,,,,,,,,0,,,62,114
67200,note_on,0,0,1,,,,,,,,,0,,,59,114
67200,note_on,60,0,2,,,,,,,,,1,,,64,0
67200,control_change,54,0,1,,,,,,,,,0,64,127,,
67200,control_change,54,0,3,,,,,,,,,2,64,127,,
67200,note_on,0,0,3,,,,,,,,,2,,,47,101
67200,note_on,0,0,3,,,,,,,,,2,,,54,101
67206,note_on,6,0,3,,,,,,,,,2,,,54,0
67206,note_on,0,0,3,,,,,,,,,2,,,47,0
67206,note_on,0,0,1,,,,,,,,,0,,,66,0
67206,note_on,0,0,1,,,,,,,,,0,,,62,0
67206,note_on,6,0,1,,,,,,,,,0,,,71,0
67206,note_on,0,0,1,,,,,,,,,0,,,59,0
67260,note_on,0,0,1,,,,,,,,,0,,,62,114
67260,control_change,54,0,1,,,,,,,,,0,64,0,,
67260,control_change,54,0,3,,,,,,,,,2,64,0,,
67260,note_on,0,0,3,,,,,,,,,2,,,50,101
67266,note_on,6,0,3,,,,,,,,,2,,,50,0
67266,note_on,6,0,1,,,,,,,,,0,,,62,0
67320,note_on,0,0,1,,,,,,,,,0,,,62,114
67320,note_on,0,0,1,,,,,,,,,0,,,60,114
67320,note_on,0,0,1,,,,,,,,,0,,,66,114
67320,note_on,0,0,1,,,,,,,,,0,,,57,114
67320,note_on,0,0,3,,,,,,,,,2,,,38,101
67320,note_on,0,0,3,,,,,,,,,2,,,50,101
67320,control_change,54,0,3,,,,,,,,,2,64,127,,
67320,control_change,54,0,1,,,,,,,,,0,64,127,,
67326,note_on,0,0,1,,,,,,,,,0,,,60,0
67326,note_on,6,0,1,,,,,,,,,0,,,66,0
67326,note_on,0,0,1,,,,,,,,,0,,,57,0
67326,note_on,0,0,1,,,,,,,,,0,,,62,0
67326,note_on,0,0,3,,,,,,,,,2,,,38,0
67326,note_on,6,0,3,,,,,,,,,2,,,50,0
67380,control_change,54,0,1,,,,,,,,,0,64,0,,
67380,note_on,0,0,3,,,,,,,,,2,,,50,101
67380,note_on,0,0,1,,,,,,,,,0,,,62,114
67380,control_change,54,0,3,,,,,,,,,2,64,0,,
67386,note_on,6,0,1,,,,,,,,,0,,,62,0
67386,note_on,6,0,3,,,,,,,,,2,,,50,0
67440,note_on,0,0,1,,,,,,,,,0,,,67,101
67440,control_change,54,0,3,,,,,,,,,2,64,127,,
67440,note_on,0,0,3,,,,,,,,,2,,,46,88
67440,note_on,0,0,1,,,,,,,,,0,,,62,101
67440,control_change,54,0,1,,,,,,,,,0,64,127,,
67440,note_on,0,0,1,,,,,,,,,0,,,58,101
67470,note_on,0,0,3,,,,,,,,,2,,,45,88
67470,note_on,30,0,3,,,,,,,,,2,,,46,0
67470,note_on,0,0,1,,,,,,,,,0,,,57,101
67470,note_on,0,0,1,,,,,,,,,0,,,58,0
67470,note_on,0,0,1,,,,,,,,,0,,,62,0
67470,note_on,30,0,1,,,,,,,,,0,,,67,0
67500,note_on,0,0,1,,,,,,,,,0,,,55,101
67500,note_on,30,0,1,,,,,,,,,0,,,57,0
67500,note_on,0,0,3,,,,,,,,,2,,,43,88
67500,note_on,30,0,3,,,,,,,,,2,,,45,0
67530,note_on,30,0,3,,,,,,,,,2,,,43,0
67530,note_on,30,0,1,,,,,,,,,0,,,55,0
67530,note_on,0,0,1,,,,,,,,,0,,,57,101
67530,note_on,0,0,3,,,,,,,,,2,,,45,88
67560,note_on,0,0,3,,,,,,,,,2,,,46,88
67560,note_on,30,0,3,,,,,,,,,2,,,45,0
67560,note_on,30,0,1,,,,,,,,,0,,,57,0
67560,note_on,0,0,1,,,,,,,,,0,,,58,101
67590,note_on,30,0,3,,,,,,,,,2,,,46,0
67590,note_on,0,0,3,,,,,,,,,2,,,43,88
67590,note_on,30,0,1,,,,,,,,,0,,,58,0
67590,note_on,0,0,1,,,,,,,,,0,,,55,101
67620,note_on,30,0,1,,,,,,,,,0,,,55,0
67620,note_on,0,0,1,,,,,,,,,0,,,58,101
67620,note_on,30,0,3,,,,,,,,,2,,,43,0
67620,note_on,0,0,3,,,,,,,,,2,,,46,88
67650,note_on,30,0,1,,,,,,,,,0,,,58,0
67650,control_change,0,0,1,,,,,,,,,0,64,0,,
67650,note_on,0,0,1,,,,,,,,,0,,,55,101
67650,note_on,0,0,3,,,,,,,,,2,,,43,88
67650,control_change,0,0,3,,,,,,,,,2,64,0,,
67650,note_on,30,0,3,,,,,,,,,2,,,46,0
67680,note_on,30,0,3,,,,,,,,,2,,,43,0
67680,note_on,0,0,1,,,,,,,,,0,,,67,114
67680,control_change,0,0,1,,,,,,,,,0,64,127,,
67680,note_on,30,0,1,,,,,,,,,0,,,55,0
67680,control_change,0,0,3,,,,,,,,,2,64,127,,
67680,note_on,0,0,3,,,,,,,,,2,,,55,101
67740,note_on,0,0,3,,,,,,,,,2,,,43,101
67740,note_on,60,0,3,,,,,,,,,2,,,55,0
67740,note_on,0,0,1,,,,,,,,,0,,,55,114
67740,note_on,60,0,1,,,,,,,,,0,,,67,0
67800,note_on,60,0,3,,,,,,,,,2,,,43,0
67800,note_on,0,0,1,,,,,,,,,0,,,55,114
67800,note_on,60,0,1,,,,,,,,,0,,,55,0
67800,note_on,0,0,3,,,,,,,,,2,,,43,101
67806,note_on,6,0,1,,,,,,,,,0,,,55,0
67806,note_on,6,0,3,,,,,,,,,2,,,43,0
67860,note_on,0,0,3,,,,,,,,,2,,,43,101
67860,control_change,54,0,3,,,,,,,,,2,64,0,,
67860,control_change,54,0,1,,,,,,,,,0,64,0,,
67860,note_on,0,0,1,,,,,,,,,0,,,55,114
67866,note_on,6,0,3,,,,,,,,,2,,,43,0
67866,note_on,6,0,1,,,,,,,,,0,,,55,0
67920,note_on,0,0,3,,,,,,,,,2,,,39,101
67920,control_change,54,0,1,,,,,,,,,0,64,127,,
67920,note_on,0,0,1,,,,,,,,,0,,,60,114
67920,note_on,0,0,1,,,,,,,,,0,,,63,114
67920,note_on,0,0,1,,,,,,,,,0,,,67,114
67920,control_change,54,0,3,,,,,,,,,2,64,127,,
67950,note_on,0,0,3,,,,,,,,,2,,,38,101
67950,note_on,30,0,3,,,,,,,,,2,,,39,0
67980,note_on,0,0,3,,,,,,,,,2,,,36,101
67980,note_on,60,0,1,,,,,,,,,0,,,67,0
67980,note_on,0,0,1,,,,,,,,,0,,,63,0
67980,note_on,0,0,1,,,,,,,,,0,,,60,0
67980,note_on,0,0,1,,,,,,,,,0,,,55,114
67980,note_on,30,0,3,,,,,,,,,2,,,38,0
68010,note_on,30,0,3,,,,,,,,,2,,,36,0
68010,note_on,0,0,3,,,,,,,,,2,,,38,101
68040,note_on,60,0,1,,,,,,,,,0,,,55,0
68040,note_on,0,0,1,,,,,,,,,0,,,55,114
68040,note_on,30,0,3,,,,,,,,,2,,,38,0
68040,note_on,0,0,3,,,,,,,,,2,,,39,101
68046,note_on,6,0,1,,,,,,,,,0,,,55,0
68070,note_on,0,0,3,,,,,,,,,2,,,36,101
68070,note_on,30,0,3,,,,,,,,,2,,,39,0
68100,control_change,54,0,1,,,,,,,,,0,64,0,,
68100,note_on,30,0,3,,,,,,,,,2,,,36,0
68100,note_on,0,0,3,,,,,,,,,2,,,39,101
68100,note_on,0,0,1,,,,,,,,,0,,,55,114
68106,note_on,6,0,1,,,,,,,,,0,,,55,0
68130,control_change,0,0,3,,,,,,,,,2,64,0,,
68130,note_on,0,0,3,,,,,,,,,2,,,36,101
68130,note_on,30,0,3,,,,,,,,,2,,,39,0
68160,control_change,54,0,1,,,,,,,,,0,64,127,,
68160,note_on,0,0,1,,,,,,,,,0,,,58,114
68160,note_on,0,0,1,,,,,,,,,0,,,62,114
68160,note_on,0,0,1,,,,,,,,,0,,,67,114
68160,note_on,30,0,3,,,,,,,,,2,,,36,0
68160,control_change,0,0,3,,,,,,,,,2,64,127,,
68160,note_on,0,0,3,,,,,,,,,2,,,43,101
68220,note_on,60,0,3,,,,,,,,,2,,,43,0
68220,note_on,60,0,1,,,,,,,,,0,,,67,0
68220,note_on,0,0,1,,,,,,,,,0,,,62,0
68220,note_on,0,0,1,,,,,,,,,0,,,58,0
68220,note_on,0,0,3,,,,,,,,,2,,,31,101
68220,note_on,0,0,1,,,,,,,,,0,,,55,114
68280,note_on,60,0,1,,,,,,,,,0,,,55,0
68280,note_on,0,0,1,,,,,,,,,0,,,55,114
68280,note_on,0,0,3,,,,,,,,,2,,,31,101
68280,note_on,60,0,3,,,,,,,,,2,,,31,0
68286,note_on,6,0,1,,,,,,,,,0,,,55,0
68286,note_on,6,0,3,,,,,,,,,2,,,31,0
68340,note_on,0,0,3,,,,,,,,,2,,,31,101
68340,control_change,54,0,3,,,,,,,,,2,64,0,,
68340,note_on,0,0,1,,,,,,,,,0,,,55,114
68340,control_change,54,0,1,,,,,,,,,0,64,0,,
68346,note_on,6,0,3,,,,,,,,,2,,,31,0
68346,note_on,6,0,1,,,,,,,,,0,,,55,0
68400,control_change,54,0,3,,,,,,,,,2,64,127,,
68400,note_on,0,0,3,,,,,,,,,2,,,32,101
68400,note_on,0,0,3,,,,,,,,,2,,,44,101
68400,note_on,0,0,1,,,,,,,,,0,,,77,114
68400,control_change,1200,0,2,,,,,,,,,1,64,127,,
68400,note_on,0,0,2,,,,,,,,,1,,,65,101
68400,note_on,0,0,2,,,,,,,,,1,,,71,101
68400,control_change,54,0,1,,,,,,,,,0,64,127,,
68406,note_on,0,0,3,,,,,,,,,2,,,32,0
68406,note_on,6,0,3,,,,,,,,,2,,,44,0
68430,note_on,30,0,1,,,,,,,,,0,,,77,0
68430,note_on,0,0,1,,,,,,,,,0,,,76,114
68460,note_on,30,0,1,,,,,,,,,0,,,76,0
68460,note_on,0,0,1,,,,,,,,,0,,,74,114
68460,note_on,0,0,3,,,,,,,,,2,,,47,101
68460,note_on,54,0,3,,,,,,,,,2,,,35,101
68460,note_on,60,0,2,,,,,,,,,1,,,71,0
68460,note_on,0,0,2,,,,,,,,,1,,,65,0
68460,note_on,0,0,2,,,,,,,,,1,,,71,101
68460,note_on,0,0,2,,,,,,,,,1,,,65,101
68466,note_on,0,0,3,,,,,,,,,2,,,35,0
68466,note_on,6,0,3,,,,,,,,,2,,,47,0
68490,note_on,0,0,1,,,,,,,,,0,,,76,114
68490,note_on,30,0,1,,,,,,,,,0,,,74,0
68520,note_on,0,0,2,,,,,,,,,1,,,65,0
68520,note_on,60,0,2,,,,,,,,,1,,,71,0
68520,note_on,0,0,3,,,,,,,,,2,,,50,101
68520,note_on,0,0,2,,,,,,,,,1,,,68,101
68520,note_on,0,0,1,,,,,,,,,0,,,77,114
68520,note_on,30,0,1,,,,,,,,,0,,,76,0
68520,note_on,54,0,3,,,,,,,,,2,,,38,101
68520,note_on,0,0,2,,,,,,,,,1,,,71,101
68526,note_on,6,0,3,,,,,,,,,2,,,50,0
68526,note_on,0,0,3,,,,,,,,,2,,,38,0
68550,note_on,0,0,1,,,,,,,,,0,,,74,114
68550,note_on,30,0,1,,,,,,,,,0,,,77,0
68580,note_on,0,0,1,,,,,,,,,0,,,77,114
68580,note_on,30,0,1,,,,,,,,,0,,,74,0
68580,control_change,0,0,2,,,,,,,,,1,64,0,,
68580,note_on,0,0,2,,,,,,,,,1,,,68,0
68580,note_on,0,0,2,,,,,,,,,1,,,68,101
68580,note_on,0,0,2,,,,,,,,,1,,,71,101
68580,note_on,0,0,3,,,,,,,,,2,,,53,101
68580,note_on,0,0,3,,,,,,,,,2,,,41,101
68580,control_change,54,0,3,,,,,,,,,2,64,0,,
68580,note_on,60,0,2,,,,,,,,,1,,,71,0
68586,note_on,0,0,3,,,,,,,,,2,,,41,0
68586,note_on,6,0,3,,,,,,,,,2,,,53,0
68610,note_on,30,0,1,,,,,,,,,0,,,77,0
68610,control_change,0,0,1,,,,,,,,,0,64,0,,
68610,note_on,0,0,1,,,,,,,,,0,,,74,114
68640,note_on,0,0,1,,,,,,,,,0,,,77,101
68640,note_on,0,0,3,,,,,,,,,2,,,57,88
68640,note_on,0,0,3,,,,,,,,,2,,,53,88
68640,note_on,0,0,3,,,,,,,,,2,,,50,88
68640,note_on,0,0,3,,,,,,,,,2,,,45,88
68640,control_change,54,0,3,,,,,,,,,2,64,127,,
68640,note_on,60,0,2,,,,,,,,,1,,,71,0
68640,note_on,0,0,1,,,,,,,,,0,,,81,101
68640,note_on,0,0,2,,,,,,,,,1,,,68,0
68640,note_on,30,0,1,,,,,,,,,0,,,74,0
68640,control_change,0,0,1,,,,,,,,,0,64,127,,
68640,note_on,0,0,1,,,,,,,,,0,,,69,101
68640,note_on,0,0,1,,,,,,,,,0,,,74,101
68646,note_on,0,0,1,,,,,,,,,0,,,74,0
68646,note_on,0,0,1,,,,,,,,,0,,,69,0
68646,note_on,6,0,1,,,,,,,,,0,,,81,0
68646,note_on,6,0,3,,,,,,,,,2,,,57,0
68646,note_on,0,0,3,,,,,,,,,2,,,45,0
68646,note_on,0,0,3,,,,,,,,,2,,,50,0
68646,note_on,0,0,3,,,,,,,,,2,,,53,0
68646,note_on,0,0,1,,,,,,,,,0,,,77,0
68700,note_on,54,0,1,,,,,,,,,0,,,65,101
68700,note_on,0,0,1,,,,,,,,,0,,,69,101
68700,note_on,0,0,3,,,,,,,,,2,,,62,88
68700,note_on,54,0,3,,,,,,,,,2,,,57,88
68706,note_on,0,0,3,,,,,,,,,2,,,57,0
68706,note_on,6,0,3,,,,,,,,,2,,,62,0
68706,note_on,0,0,1,,,,,,,,,0,,,65,0
68706,note_on,6,0,1,,,,,,,,,0,,,69,0
68760,note_on,54,0,1,,,,,,,,,0,,,65,101
68760,note_on,0,0,1,,,,,,,,,0,,,69,101
68760,note_on,54,0,3,,,,,,,,,2,,,57,88
68760,note_on,0,0,3,,,,,,,,,2,,,62,88
68766,note_on,0,0,1,,,,,,,,,0,,,65,0
68766,note_on,6,0,1,,,,,,,,,0,,,69,0
68766,note_on,0,0,3,,,,,,,,,2,,,57,0
68766,note_on,6,0,3,,,,,,,,,2,,,62,0
68820,note_on,0,0,3,,,,,,,,,2,,,62,88
68820,control_change,54,0,3,,,,,,,,,2,64,0,,
68820,note_on,0,0,1,,,,,,,,,0,,,65,101
68820,control_change,54,0,1,,,,,,,,,0,64,0,,
68820,note_on,0,0,3,,,,,,,,,2,,,57,88
68820,note_on,0,0,1,,,,,,,,,0,,,69,101
68826,note_on,0,0,1,,,,,,,,,0,,,65,0
68826,note_on,6,0,3,,,,,,,,,2,,,62,0
68826,note_on,0,0,3,,,,,,,,,2,,,57,0
68826,note_on,6,0,1,,,,,,,,,0,,,69,0
68880,note_on,0,0,1,,,,,,,,,0,,,70,49
68880,control_change,54,0,3,,,,,,,,,2,64,127,,
68880,note_on,0,0,3,,,,,,,,,2,,,55,36
68880,note_on,0,0,3,,,,,,,,,2,,,62,36
68880,control_change,240,0,2,,,,,,,,,1,64,127,,
68880,control_change,54,0,1,,,,,,,,,0,64,127,,
68880,note_on,0,0,2,,,,,,,,,1,,,64,36
68886,note_on,0,0,3,,,,,,,,,2,,,55,0
68886,note_on,6,0,3,,,,,,,,,2,,,62,0
68910,note_on,0,0,1,,,,,,,,,0,,,69,49
68910,note_on,30,0,1,,,,,,,,,0,,,70,0
68940,note_on,60,0,2,,,,,,,,,1,,,64,0
68940,note_on,30,0,1,,,,,,,,,0,,,69,0
68940,note_on,0,0,1,,,,,,,,,0,,,72,49
68940,note_on,54,0,3,,,,,,,,,2,,,55,36
68940,note_on,0,0,3,,,,,,,,,2,,,62,36
68940,note_on,0,0,2,,,,,,,,,1,,,64,36
68946,note_on,6,0,3,,,,,,,,,2,,,62,0
68946,note_on,0,0,3,,,,,,,,,2,,,55,0
68970,note_on,30,0,1,,,,,,,,,0,,,72,0
68970,note_on,0,0,1,,,,,,,,,0,,,70,49
69000,note_on,30,0,1,,,,,,,,,0,,,70,0
69000,note_on,0,0,1,,,,,,,,,0,,,69,49
69000,note_on,0,0,2,,,,,,,,,1,,,67,36
69000,note_on,60,0,2,,,,,,,,,1,,,64,0
69000,note_on,54,0,3,,,,,,,,,2,,,57,36
69000,note_on,0,0,3,,,,,,,,,2,,,61,36
69006,note_on,6,0,3,,,,,,,,,2,,,61,0
69006,note_on,0,0,3,,,,,,,,,2,,,57,0
69006,note_on,6,0,1,,,,,,,,,0,,,69,0
69060,control_change,54,0,3,,,,,,,,,2,64,0,,
69060,note_on,0,0,3,,,,,,,,,2,,,57,36
69060,control_change,54,0,1,,,,,,,,,0,64,0,,
69060,note_on,0,0,1,,,,,,,,,0,,,69,49
69060,note_on,0,0,3,,,,,,,,,2,,,61,36
69060,note_on,60,0,2,,,,,,,,,1,,,67,0
69060,control_change,0,0,2,,,,,,,,,1,64,0,,
69060,note_on,0,0,2,,,,,,,,,1,,,67,36
69066,note_on,6,0,1,,,,,,,,,0,,,69,0
69066,note_on,0,0,3,,,,,,,,,2,,,57,0
69066,note_on,6,0,3,,,,,,,,,2,,,61,0
69120,note_on,0,0,1,,,,,,,,,0,,,74,114
69120,note_on,0,0,3,,,,,,,,,2,,,50,101
69120,note_on,0,0,3,,,,,,,,,2,,,57,101
69120,note_on,0,0,1,,,,,,,,,0,,,62,114
69120,note_on,0,0,1,,,,,,,,,0,,,69,114
69120,note_on,60,0,2,,,,,,,,,1,,,67,0
69120,control_change,54,0,3,,,,,,,,,2,64,127,,
69120,note_on,0,0,1,,,,,,,,,0,,,65,114
69120,control_change,54,0,1,,,,,,,,,0,64,127,,
69126,note_on,6,0,1,,,,,,,,,0,,,74,0
69126,note_on,0,0,1,,,,,,,,,0,,,69,0
69126,note_on,0,0,1,,,,,,,,,0,,,65,0
69126,note_on,0,0,1,,,,,,,,,0,,,62,0
69126,note_on,6,0,3,,,,,,,,,2,,,57,0
69126,note_on,0,0,3,,,,,,,,,2,,,50,0
69180,note_on,54,0,1,,,,,,,,,0,,,62,114
69180,note_on,54,0,3,,,,,,,,,2,,,50,101
69186,note_on,6,0,1,,,,,,,,,0,,,62,0
69186,note_on,6,0,3,,,,,,,,,2,,,50,0
69240,note_on,54,0,1,,,,,,,,,0,,,62,114
69240,note_on,54,0,3,,,,,,,,,2,,,50,101
69246,note_on,6,0,3,,,,,,,,,2,,,50,0
69246,note_on,6,0,1,,,,,,,,,0,,,62,0
69300,control_change,54,0,3,,,,,,,,,2,64,0,,
69300,note_on,0,0,3,,,,,,,,,2,,,50,101
69300,note_on,0,0,1,,,,,,,,,0,,,62,114
69300,control_change,54,0,1,,,,,,,,,0,64,0,,
69306,note_on,6,0,3,,,,,,,,,2,,,50,0
69306,note_on,6,0,1,,,,,,,,,0,,,62,0
69360,note_on,54,0,3,,,,,,,,,2,,,53,36
69360,note_on,0,0,3,,,,,,,,,2,,,60,36
69360,note_on,0,0,2,,,,,,,,,1,,,65,36
69360,control_change,240,0,2,,,,,,,,,1,64,127,,
69360,control_change,54,0,1,,,,,,,,,0,64,127,,
69360,note_on,0,0,1,,,,,,,,,0,,,69,49
69390,note_on,0,0,1,,,,,,,,,0,,,68,49
69390,note_on,30,0,1,,,,,,,,,0,,,69,0
69420,note_on,0,0,1,,,,,,,,,0,,,70,49
69420,note_on,30,0,1,,,,,,,,,0,,,68,0
69450,note_on,0,0,1,,,,,,,,,0,,,69,49
69450,note_on,30,0,1,,,,,,,,,0,,,70,0
69480,note_on,120,0,3,,,,,,,,,2,,,60,0
69480,note_on,30,0,1,,,,,,,,,0,,,69,0
69480,note_on,0,0,3,,,,,,,,,2,,,53,0
69480,note_on,0,0,2,,,,,,,,,1,,,65,36
69480,note_on,120,0,2,,,,,,,,,1,,,65,0
69480,note_on,0,0,1,,,,,,,,,0,,,69,49
69486,note_on,6,0,1,,,,,,,,,0,,,69,0
69540,control_change,0,0,2,,,,,,,,,1,64,0,,
69540,note_on,0,0,2,,,,,,,,,1,,,65,36
69540,note_on,0,0,1,,,,,,,,,0,,,69,49
69540,control_change,54,0,1,,,,,,,,,0,64,0,,
69540,note_on,60,0,2,,,,,,,,,1,,,65,0
69546,note_on,6,0,1,,,,,,,,,0,,,69,0
69600,note_on,60,0,2,,,,,,,,,1,,,65,0
69600,control_change,0,0,2,,,,,,,,,1,64,127,,
69600,note_on,0,0,2,,,,,,,,,1,,,64,36
69600,note_on,0,0,3,,,,,,,,,2,,,48,36
69600,control_change,120,0,3,,,,,,,,,2,64,127,,
69600,note_on,0,0,1,,,,,,,,,0,,,72,75
69600,control_change,54,0,1,,,,,,,,,0,64,127,,
69630,note_on,0,0,3,,,,,,,,,2,,,47,36
69630,note_on,30,0,3,,,,,,,,,2,,,48,0
69660,note_on,0,0,1,,,,,,,,,0,,,67,49
69660,note_on,0,0,3,,,,,,,,,2,,,50,36
69660,note_on,60,0,1,,,,,,,,,0,,,72,0
69660,note_on,30,0,3,,,,,,,,,2,,,47,0
69690,note_on,0,0,3,,,,,,,,,2,,,48,36
69690,note_on,30,0,3,,,,,,,,,2,,,50,0
69720,note_on,30,0,3,,,,,,,,,2,,,48,0
69720,note_on,0,0,3,,,,,,,,,2,,,48,36
69720,note_on,120,0,2,,,,,,,,,1,,,64,0
69720,note_on,0,0,2,,,,,,,,,1,,,64,36
69720,note_on,60,0,1,,,,,,,,,0,,,67,0
69720,note_on,0,0,1,,,,,,,,,0,,,67,49
69726,note_on,6,0,1,,,,,,,,,0,,,67,0
69726,note_on,6,0,3,,,,,,,,,2,,,48,0
69780,note_on,0,0,3,,,,,,,,,2,,,48,36
69780,control_change,0,0,2,,,,,,,,,1,64,0,,
69780,control_change,54,0,1,,,,,,,,,0,64,0,,
69780,note_on,0,0,1,,,,,,,,,0,,,67,49
69780,note_on,60,0,2,,,,,,,,,1,,,64,0
69780,control_change,54,0,3,,,,,,,,,2,64,0,,
69780,note_on,0,0,2,,,,,,,,,1,,,64,36
69786,note_on,6,0,1,,,,,,,,,0,,,67,0
69786,note_on,6,0,3,,,,,,,,,2,,,48,0
69840,control_change,54,0,1,,,,,,,,,0,64,127,,
69840,note_on,0,0,2,,,,,,,,,1,,,67,36
69840,note_on,0,0,1,,,,,,,,,0,,,70,75
69840,control_change,0,0,2,,,,,,,,,1,64,127,,
69840,note_on,60,0,2,,,,,,,,,1,,,64,0
69840,control_change,54,0,3,,,,,,,,,2,64,127,,
69840,note_on,0,0,3,,,,,,,,,2,,,55,62
69870,note_on,30,0,1,,,,,,,,,0,,,70,0
69870,note_on,0,0,1,,,,,,,,,0,,,69,49
69900,note_on,0,0,1,,,,,,,,,0,,,72,49
69900,note_on,30,0,1,,,,,,,,,0,,,69,0
69900,note_on,0,0,3,,,,,,,,,2,,,50,36
69900,note_on,60,0,3,,,,,,,,,2,,,55,0
69930,note_on,30,0,1,,,,,,,,,0,,,72,0
69930,note_on,0,0,1,,,,,,,,,0,,,70,49
69960,note_on,120,0,2,,,,,,,,,1,,,67,0
69960,note_on,0,0,2,,,,,,,,,1,,,67,36
69960,note_on,30,0,1,,,,,,,,,0,,,70,0
69960,note_on,0,0,1,,,,,,,,,0,,,70,49
69960,note_on,60,0,3,,,,,,,,,2,,,50,0
69960,note_on,0,0,3,,,,,,,,,2,,,50,36
69966,note_on,6,0,3,,,,,,,,,2,,,50,0
69966,note_on,6,0,1,,,,,,,,,0,,,70,0
70020,note_on,0,0,1,,,,,,,,,0,,,70,49
70020,note_on,0,0,2,,,,,,,,,1,,,67,36
70020,control_change,0,0,2,,,,,,,,,1,64,0,,
70020,control_change,54,0,1,,,,,,,,,0,64,0,,
70020,control_change,54,0,3,,,,,,,,,2,64,0,,
70020,note_on,0,0,3,,,,,,,,,2,,,49,36
70020,note_on,60,0,2,,,,,,,,,1,,,67,0
70026,note_on,6,0,1,,,,,,,,,0,,,70,0
70026,note_on,6,0,3,,,,,,,,,2,,,49,0
70080,control_change,54,0,3,,,,,,,,,2,64,127,,
70080,note_on,60,0,2,,,,,,,,,1,,,67,0
70080,control_change,0,0,2,,,,,,,,,1,64,127,,
70080,note_on,0,0,2,,,,,,,,,1,,,66,36
70080,note_on,0,0,1,,,,,,,,,0,,,74,75
70080,control_change,54,0,1,,,,,,,,,0,64,127,,
70080,note_on,0,0,3,,,,,,,,,2,,,50,36
70110,note_on,0,0,3,,,,,,,,,2,,,49,36
70110,note_on,30,0,3,,,,,,,,,2,,,50,0
70140,note_on,60,0,1,,,,,,,,,0,,,74,0
70140,note_on,30,0,3,,,,,,,,,2,,,49,0
70140,note_on,0,0,3,,,,,,,,,2,,,52,36
70140,note_on,0,0,1,,,,,,,,,0,,,69,49
70170,note_on,30,0,3,,,,,,,,,2,,,52,0
70170,note_on,0,0,3,,,,,,,,,2,,,50,36
70200,note_on,0,0,1,,,,,,,,,0,,,69,49
70200,note_on,0,0,3,,,,,,,,,2,,,50,36
70200,note_on,0,0,2,,,,,,,,,1,,,66,36
70200,note_on,60,0,1,,,,,,,,,0,,,69,0
70200,note_on,120,0,2,,,,,,,,,1,,,66,0
70200,note_on,30,0,3,,,,,,,,,2,,,50,0
70206,note_on,6,0,1,,,,,,,,,0,,,69,0
70206,note_on,6,0,3,,,,,,,,,2,,,50,0
70260,control_change,54,0,3,,,,,,,,,2,64,0,,
70260,note_on,0,0,3,,,,,,,,,2,,,50,36
70260,control_change,0,0,2,,,,,,,,,1,64,0,,
70260,note_on,0,0,2,,,,,,,,,1,,,66,36
70260,control_change,54,0,1,,,,,,,,,0,64,0,,
70260,note_on,0,0,1,,,,,,,,,0,,,69,49
70260,note_on,60,0,2,,,,,,,,,1,,,66,0
70266,note_on,6,0,1,,,,,,,,,0,,,69,0
70266,note_on,6,0,3,,,,,,,,,2,,,50,0
70320,note_on,0,0,1,,,,,,,,,0,,,74,75
70320,control_change,54,0,3,,,,,,,,,2,64,127,,
70320,note_on,0,0,3,,,,,,,,,2,,,58,62
70320,control_change,54,0,1,,,,,,,,,0,64,127,,
70320,note_on,0,0,2,,,,,,,,,1,,,70,36
70320,note_on,60,0,2,,,,,,,,,1,,,66,0
70320,control_change,0,0,2,,,,,,,,,1,64,127,,
70350,note_on,0,0,1,,,,,,,,,0,,,73,49
70350,note_on,30,0,1,,,,,,,,,0,,,74,0
70380,note_on,30,0,1,,,,,,,,,0,,,73,0
70380,note_on,0,0,1,,,,,,,,,0,,,76,49
70380,note_on,60,0,3,,,,,,,,,2,,,58,0
70380,note_on,0,0,3,,,,,,,,,2,,,53,36
70410,note_on,30,0,1,,,,,,,,,0,,,76,0
70410,note_on,0,0,1,,,,,,,,,0,,,74,49
70440,note_on,0,0,2,,,,,,,,,1,,,70,36
70440,note_on,120,0,2,,,,,,,,,1,,,70,0
70440,note_on,30,0,1,,,,,,,,,0,,,74,0
70440,note_on,0,0,1,,,,,,,,,0,,,74,49
70440,note_on,0,0,3,,,,,,,,,2,,,53,36
70440,note_on,60,0,3,,,,,,,,,2,,,53,0
70446,note_on,6,0,3,,,,,,,,,2,,,53,0
70446,note_on,6,0,1,,,,,,,,,0,,,74,0
70500,control_change,54,0,3,,,,,,,,,2,64,0,,
70500,note_on,0,0,3,,,,,,,,,2,,,52,36
70500,note_on,60,0,2,,,,,,,,,1,,,70,0
70500,note_on,0,0,1,,,,,,,,,0,,,74,49
70500,control_change,54,0,1,,,,,,,,,0,64,0,,
70500,note_on,0,0,2,,,,,,,,,1,,,70,36
70500,control_change,0,0,2,,,,,,,,,1,64,0,,
70506,note_on,6,0,3,,,,,,,,,2,,,52,0
70506,note_on,6,0,1,,,,,,,,,0,,,74,0
70560,control_change,54,0,3,,,,,,,,,2,64,127,,
70560,note_on,0,0,3,,,,,,,,,2,,,53,36
70560,note_on,0,0,1,,,,,,,,,0,,,77,75
70560,control_change,54,0,1,,,,,,,,,0,64,127,,
70560,note_on,60,0,2,,,,,,,,,1,,,70,0
70560,control_change,0,0,2,,,,,,,,,1,64,127,,
70560,note_on,0,0,2,,,,,,,,,1,,,69,36
70590,note_on,0,0,3,,,,,,,,,2,,,52,36
70590,note_on,30,0,3,,,,,,,,,2,,,53,0
70620,note_on,60,0,1,,,,,,,,,0,,,77,0
70620,note_on,30,0,3,,,,,,,,,2,,,52,0
70620,note_on,0,0,3,,,,,,,,,2,,,55,36
70620,note_on,0,0,1,,,,,,,,,0,,,72,49
70650,note_on,30,0,3,,,,,,,,,2,,,55,0
70650,note_on,0,0,3,,,,,,,,,2,,,53,36
70680,note_on,30,0,3,,,,,,,,,2,,,53,0
70680,note_on,0,0,3,,,,,,,,,2,,,53,36
70680,note_on,0,0,2,,,,,,,,,1,,,69,36
70680,note_on,120,0,2,,,,,,,,,1,,,69,0
70680,note_on,60,0,1,,,,,,,,,0,,,72,0
70680,note_on,0,0,1,,,,,,,,,0,,,72,49
70686,note_on,6,0,1,,,,,,,,,0,,,72,0
70686,note_on,6,0,3,,,,,,,,,2,,,53,0
70740,control_change,54,0,1,,,,,,,,,0,64,0,,
70740,note_on,0,0,1,,,,,,,,,0,,,72,49
70740,note_on,0,0,2,,,,,,,,,1,,,69,36
70740,note_on,0,0,3,,,,,,,,,2,,,53,36
70740,control_change,54,0,3,,,,,,,,,2,64,0,,
70740,note_on,60,0,2,,,,,,,,,1,,,69,0
70740,control_change,0,0,2,,,,,,,,,1,64,0,,
70746,note_on,6,0,1,,,,,,,,,0,,,72,0
70746,note_on,6,0,3,,,,,,,,,2,,,53,0
70800,note_on,60,0,2,,,,,,,,,1,,,69,0
70800,note_on,11280,0,4,,,,,,,,,3,,,52,36
70800,control_change,0,0,2,,,,,,,,,1,64,127,,
70800,note_on,0,0,2,,,,,,,,,1,,,67,36
70800,control_change,54,0,1,,,,,,,,,0,64,127,,
70800,note_on,0,0,1,,,,,,,,,0,,,79,49
70860,note_on,60,0,1,,,,,,,,,0,,,79,0
70860,note_on,0,0,1,,,,,,,,,0,,,76,49
70860,control_change,114,0,3,,,,,,,,,2,64,127,,
70860,note_on,0,0,3,,,,,,,,,2,,,55,36
70920,note_on,60,0,3,,,,,,,,,2,,,55,0
70920,note_on,0,0,3,,,,,,,,,2,,,60,36
70920,note_on,120,0,2,,,,,,,,,1,,,67,0
70920,note_on,0,0,2,,,,,,,,,1,,,67,36
70920,note_on,0,0,4,,,,,,,,,3,,,52,36
70920,note_on,120,0,4,,,,,,,,,3,,,52,0
70920,note_on,0,0,1,,,,,,,,,0,,,72,49
70920,note_on,60,0,1,,,,,,,,,0,,,76,0
70926,note_on,6,0,1,,,,,,,,,0,,,72,0
70980,note_on,60,0,3,,,,,,,,,2,,,60,0
70980,control_change,0,0,3,,,,,,,,,2,64,0,,
70980,note_on,0,0,3,,,,,,,,,2,,,60,36
70980,note_on,0,0,4,,,,,,,,,3,,,52,36
70980,note_on,60,0,4,,,,,,,,,3,,,52,0
70980,note_on,60,0,2,,,,,,,,,1,,,67,0
70980,note_on,0,0,1,,,,,,,,,0,,,70,49
70980,control_change,0,0,2,,,,,,,,,1,64,0,,
70980,note_on,0,0,2,,,,,,,,,1,,,67,36
70980,control_change,54,0,1,,,,,,,,,0,64,0,,
70986,note_on,6,0,1,,,,,,,,,0,,,70,0
71040,note_on,60,0,2,,,,,,,,,1,,,67,0
71040,note_on,0,0,2,,,,,,,,,1,,,65,36
71040,note_on,60,0,4,,,,,,,,,3,,,52,0
71040,note_on,0,0,4,,,,,,,,,3,,,53,36
71040,control_change,0,0,3,,,,,,,,,2,64,127,,
71040,note_on,60,0,3,,,,,,,,,2,,,60,0
71040,note_on,0,0,1,,,,,,,,,0,,,70,49
71040,control_change,54,0,1,,,,,,,,,0,64,127,,
71040,note_on,0,0,3,,,,,,,,,2,,,60,36
71040,control_change,0,0,2,,,,,,,,,1,64,127,,
71070,note_on,0,0,1,,,,,,,,,0,,,69,49
71070,note_on,30,0,1,,,,,,,,,0,,,70,0
71100,note_on,60,0,3,,,,,,,,,2,,,60,0
71100,note_on,0,0,3,,,,,,,,,2,,,58,36
71100,note_on,30,0,1,,,,,,,,,0,,,69,0
71100,note_on,0,0,1,,,,,,,,,0,,,74,49
71130,note_on,30,0,3,,,,,,,,,2,,,58,0
71130,note_on,0,0,3,,,,,,,,,2,,,57,36
71130,note_on,30,0,1,,,,,,,,,0,,,74,0
71130,note_on,0,0,1,,,,,,,,,0,,,72,49
71160,note_on,120,0,4,,,,,,,,,3,,,53,0
71160,note_on,30,0,1,,,,,,,,,0,,,72,0
71160,note_on,0,0,1,,,,,,,,,0,,,72,49
71160,note_on,0,0,2,,,,,,,,,1,,,65,36
71160,note_on,120,0,2,,,,,,,,,1,,,65,0
71160,note_on,0,0,4,,,,,,,,,3,,,53,36
71160,note_on,30,0,3,,,,,,,,,2,,,57,0
71160,note_on,0,0,3,,,,,,,,,2,,,57,36
71166,note_on,6,0,4,,,,,,,,,3,,,53,0
71166,note_on,6,0,1,,,,,,,,,0,,,72,0
71220,note_on,54,0,4,,,,,,,,,3,,,53,36
71220,note_on,60,0,3,,,,,,,,,2,,,57,0
71220,control_change,0,0,3,,,,,,,,,2,64,0,,
71220,note_on,0,0,3,,,,,,,,,2,,,57,36
71220,note_on,0,0,2,,,,,,,,,1,,,64,36
71220,control_change,0,0,2,,,,,,,,,1,64,0,,
71220,note_on,0,0,1,,,,,,,,,0,,,72,49
71220,control_change,54,0,1,,,,,,,,,0,64,0,,
71220,note_on,60,0,2,,,,,,,,,1,,,65,0
71226,note_on,6,0,1,,,,,,,,,0,,,72,0
71226,note_on,6,0,4,,,,,,,,,3,,,53,0
71280,note_on,60,0,3,,,,,,,,,2,,,57,0
71280,control_change,0,0,3,,,,,,,,,2,64,127,,
71280,note_on,0,0,2,,,,,,,,,1,,,62,36
71280,note_on,60,0,2,,,,,,,,,1,,,64,0
71280,note_on,0,0,3,,,,,,,,,2,,,46,36
71280,control_change,54,0,1,,,,,,,,,0,64,127,,
71280,note_on,0,0,1,,,,,,,,,0,,,72,49
71280,control_change,0,0,2,,,,,,,,,1,64,127,,
71286,note_on,6,0,1,,,,,,,,,0,,,72,0
71310,note_on,0,0,3,,,,,,,,,2,,,45,36
71310,note_on,30,0,3,,,,,,,,,2,,,46,0
71340,note_on,60,0,2,,,,,,,,,1,,,62,0
71340,note_on,0,0,2,,,,,,,,,1,,,62,36
71340,note_on,54,0,1,,,,,,,,,0,,,70,49
71340,note_on,0,0,3,,,,,,,,,2,,,48,36
71340,note_on,30,0,3,,,,,,,,,2,,,45,0
71346,note_on,6,0,1,,,,,,,,,0,,,70,0
71370,note_on,0,0,3,,,,,,,,,2,,,46,36
71370,note_on,30,0,3,,,,,,,,,2,,,48,0
71400,note_on,54,0,1,,,,,,,,,0,,,67,49
71400,note_on,0,0,2,,,,,,,,,1,,,64,36
71400,note_on,0,0,2,,,,,,,,,1,,,58,36
71400,note_on,30,0,3,,,,,,,,,2,,,46,0
71400,note_on,0,0,3,,,,,,,,,2,,,48,36
71400,note_on,60,0,2,,,,,,,,,1,,,62,0
71406,note_on,6,0,1,,,,,,,,,0,,,67,0
71406,note_on,6,0,3,,,,,,,,,2,,,48,0
71460,control_change,54,0,1,,,,,,,,,0,64,0,,
71460,note_on,0,0,2,,,,,,,,,1,,,64,36
71460,note_on,0,0,2,,,,,,,,,1,,,60,36
71460,control_change,0,0,2,,,,,,,,,1,64,0,,
71460,note_on,0,0,2,,,,,,,,,1,,,58,0
71460,note_on,60,0,2,,,,,,,,,1,,,64,0
71460,note_on,0,0,1,,,,,,,,,0,,,69,49
71460,control_change,54,0,3,,,,,,,,,2,64,0,,
71460,note_on,0,0,3,,,,,,,,,2,,,48,36
71466,note_on,6,0,3,,,,,,,,,2,,,48,0
71466,note_on,6,0,1,,,,,,,,,0,,,69,0
71520,note_on,0,0,3,,,,,,,,,2,,,41,36
71520,note_on,60,0,2,,,,,,,,,1,,,64,0
71520,control_change,54,0,1,,,,,,,,,0,64,127,,
71520,note_on,0,0,1,,,,,,,,,0,,,65,49
71520,note_on,0,0,2,,,,,,,,,1,,,57,36
71520,control_change,0,0,2,,,,,,,,,1,64,127,,
71520,control_change,54,0,3,,,,,,,,,2,64,127,,
71520,note_on,0,0,2,,,,,,,,,1,,,60,0
71550,note_on,30,0,1,,,,,,,,,0,,,65,0
71550,note_on,0,0,1,,,,,,,,,0,,,64,49
71580,note_on,30,0,1,,,,,,,,,0,,,64,0
71580,note_on,0,0,1,,,,,,,,,0,,,67,49
71610,note_on,30,0,1,,,,,,,,,0,,,67,0
71610,note_on,0,0,1,,,,,,,,,0,,,65,49
71640,note_on,120,0,3,,,,,,,,,2,,,41,0
71640,note_on,30,0,1,,,,,,,,,0,,,65,0
71640,note_on,0,0,1,,,,,,,,,0,,,65,49
71640,note_on,0,0,3,,,,,,,,,2,,,41,36
71640,note_on,120,0,2,,,,,,,,,1,,,57,0
71640,note_on,0,0,2,,,,,,,,,1,,,57,36
71646,note_on,6,0,1,,,,,,,,,0,,,65,0
71646,note_on,6,0,3,,,,,,,,,2,,,41,0
71700,note_on,0,0,3,,,,,,,,,2,,,39,36
71700,control_change,54,0,3,,,,,,,,,2,64,0,,
71700,note_on,0,0,1,,,,,,,,,0,,,65,49
71700,control_change,54,0,1,,,,,,,,,0,64,0,,
71700,control_change,0,0,2,,,,,,,,,1,64,0,,
71700,note_on,0,0,2,,,,,,,,,1,,,57,36
71700,note_on,60,0,2,,,,,,,,,1,,,57,0
71706,note_on,6,0,1,,,,,,,,,0,,,65,0
71706,note_on,6,0,3,,,,,,,,,2,,,39,0
71760,control_change,54,0,3,,,,,,,,,2,64,127,,
71760,note_on,0,0,3,,,,,,,,,2,,,38,101
71760,note_on,60,0,2,,,,,,,,,1,,,57,0
71760,control_change,54,0,1,,,,,,,,,0,64,127,,
71760,note_on,0,0,1,,,,,,,,,0,,,57,114
71760,note_on,0,0,1,,,,,,,,,0,,,60,114
71760,note_on,0,0,1,,,,,,,,,0,,,62,114
71760,note_on,0,0,1,,,,,,,,,0,,,66,114
71766,note_on,0,0,1,,,,,,,,,0,,,57,0
71766,note_on,0,0,1,,,,,,,,,0,,,62,0
71766,note_on,6,0,3,,,,,,,,,2,,,38,0
71766,note_on,0,0,1,,,,,,,,,0,,,60,0
71766,note_on,6,0,1,,,,,,,,,0,,,66,0
71820,note_on,54,0,3,,,,,,,,,2,,,38,101
71820,note_on,0,0,1,,,,,,,,,0,,,62,114
71820,note_on,0,0,1,,,,,,,,,0,,,66,114
71820,note_on,0,0,1,,,,,,,,,0,,,60,114
71820,note_on,54,0,1,,,,,,,,,0,,,57,114
71826,note_on,0,0,1,,,,,,,,,0,,,62,0
71826,note_on,0,0,1,,,,,,,,,0,,,60,0
71826,note_on,0,0,1,,,,,,,,,0,,,57,0
71826,note_on,6,0,1,,,,,,,,,0,,,66,0
71826,note_on,6,0,3,,,,,,,,,2,,,38,0
71880,note_on,54,0,3,,,,,,,,,2,,,38,101
71880,note_on,0,0,1,,,,,,,,,0,,,62,114
71880,note_on,0,0,1,,,,,,,,,0,,,66,114
71880,note_on,54,0,1,,,,,,,,,0,,,57,114
71880,note_on,0,0,1,,,,,,,,,0,,,60,114
71886,note_on,6,0,3,,,,,,,,,2,,,38,0
71886,note_on,0,0,1,,,,,,,,,0,,,62,0
71886,note_on,0,0,1,,,,,,,,,0,,,60,0
71886,note_on,0,0,1,,,,,,,,,0,,,57,0
71886,note_on,6,0,1,,,,,,,,,0,,,66,0
71940,control_change,54,0,3,,,,,,,,,2,64,0,,
71940,note_on,0,0,3,,,,,,,,,2,,,38,101
71940,control_change,54,0,1,,,,,,,,,0,64,0,,
71940,note_on,0,0,1,,,,,,,,,0,,,66,114
71940,note_on,0,0,1,,,,,,,,,0,,,62,114
71940,note_on,0,0,1,,,,,,,,,0,,,60,114
71940,note_on,0,0,1,,,,,,,,,0,,,57,114
71946,note_on,6,0,3,,,,,,,,,2,,,38,0
71946,note_on,0,0,1,,,,,,,,,0,,,57,0
71946,note_on,6,0,1,,,,,,,,,0,,,66,0
71946,note_on,0,0,1,,,,,,,,,0,,,62,0
71946,note_on,0,0,1,,,,,,,,,0,,,60,0
72000,note_on,0,0,1,,,,,,,,,0,,,69,49
72000,note_on,0,0,3,,,,,,,,,2,,,50,36
72000,note_on,0,0,3,,,,,,,,,2,,,57,36
72000,control_change,54,0,1,,,,,,,,,0,64,127,,
72000,note_on,0,0,1,,,,,,,,,0,,,62,49
72000,note_on,0,0,1,,,,,,,,,0,,,66,49
72000,note_on,0,0,1,,,,,,,,,0,,,74,49
72000,note_on,0,0,3,,,,,,,,,2,,,60,36
72000,control_change,54,0,3,,,,,,,,,2,64,127,,
72006,note_on,0,0,3,,,,,,,,,2,,,50,0
72006,note_on,0,0,3,,,,,,,,,2,,,57,0
72006,note_on,6,0,3,,,,,,,,,2,,,60,0
72006,note_on,0,0,1,,,,,,,,,0,,,62,0
72006,note_on,6,0,1,,,,,,,,,0,,,74,0
72006,note_on,0,0,1,,,,,,,,,0,,,66,0
72006,note_on,0,0,1,,,,,,,,,0,,,69,0
72060,note_on,0,0,1,,,,,,,,,0,,,69,49
72060,note_on,54,0,3,,,,,,,,,2,,,50,36
72060,note_on,0,0,3,,,,,,,,,2,,,57,36
72060,note_on,0,0,3,,,,,,,,,2,,,60,36
72060,note_on,0,0,1,,,,,,,,,0,,,74,49
72060,note_on,0,0,1,,,,,,,,,0,,,66,49
72060,note_on,54,0,1,,,,,,,,,0,,,62,49
72066,note_on,0,0,1,,,,,,,,,0,,,69,0
72066,note_on,0,0,1,,,,,,,,,0,,,62,0
72066,note_on,6,0,1,,,,,,,,,0,,,74,0
72066,note_on,0,0,1,,,,,,,,,0,,,66,0
72066,note_on,0,0,3,,,,,,,,,2,,,57,0
72066,note_on,0,0,3,,,,,,,,,2,,,50,0
72066,note_on,6,0,3,,,,,,,,,2,,,60,0
72120,note_on,54,0,3,,,,,,,,,2,,,50,36
72120,note_on,0,0,3,,,,,,,,,2,,,57,36
72120,note_on,0,0,3,,,,,,,,,2,,,60,36
72120,note_on,54,0,1,,,,,,,,,0,,,62,49
72120,note_on,0,0,1,,,,,,,,,0,,,66,49
72120,note_on,0,0,1,,,,,,,,,0,,,69,49
72120,note_on,0,0,1,,,,,,,,,0,,,74,49
72126,note_on,0,0,1,,,,,,,,,0,,,69,0
72126,note_on,0,0,1,,,,,,,,,0,,,66,0
72126,note_on,0,0,3,,,,,,,,,2,,,50,0
72126,note_on,6,0,1,,,,,,,,,0,,,74,0
72126,note_on,6,0,3,,,,,,,,,2,,,60,0
72126,note_on,0,0,3,,,,,,,,,2,,,57,0
72126,note_on,0,0,1,,,,,,,,,0,,,62,0
72180,note_on,0,0,3,,,,,,,,,2,,,60,36
72180,note_on,0,0,3,,,,,,,,,2,,,57,36
72180,control_change,54,0,3,,,,,,,,,2,64,0,,
72180,note_on,0,0,3,,,,,,,,,2,,,50,36
72180,note_on,0,0,1,,,,,,,,,0,,,69,49
72180,note_on,0,0,1,,,,,,,,,0,,,74,49
72180,note_on,0,0,1,,,,,,,,,0,,,66,49
72180,note_on,0,0,1,,,,,,,,,0,,,62,49
72180,control_change,54,0,1,,,,,,,,,0,64,0,,
72186,note_on,0,0,3,,,,,,,,,2,,,50,0
72186,note_on,0,0,3,,,,,,,,,2,,,57,0
72186,note_on,6,0,3,,,,,,,,,2,,,60,0
72186,note_on,0,0,1,,,,,,,,,0,,,62,0
72186,note_on,6,0,1,,,,,,,,,0,,,74,0
72186,note_on,0,0,1,,,,,,,,,0,,,66,0
72186,note_on,0,0,1,,,,,,,,,0,,,69,0
72240,control_change,54,0,3,,,,,,,,,2,64,127,,
72240,note_on,0,0,1,,,,,,,,,0,,,58,101
72240,control_change,54,0,1,,,,,,,,,0,64,127,,
72240,note_on,0,0,3,,,,,,,,,2,,,46,88
72270,note_on,0,0,1,,,,,,,,,0,,,57,101
72270,note_on,30,0,1,,,,,,,,,0,,,58,0
72270,note_on,30,0,3,,,,,,,,,2,,,46,0
72270,note_on,0,0,3,,,,,,,,,2,,,45,88
72300,note_on,0,0,1,,,,,,,,,0,,,55,101
72300,note_on,30,0,1,,,,,,,,,0,,,57,0
72300,note_on,30,0,3,,,,,,,,,2,,,45,0
72300,note_on,0,0,3,,,,,,,,,2,,,43,88
72330,note_on,0,0,3,,,,,,,,,2,,,45,88
72330,note_on,30,0,1,,,,,,,,,0,,,55,0
72330,note_on,0,0,1,,,,,,,,,0,,,57,101
72330,note_on,30,0,3,,,,,,,,,2,,,43,0
72360,note_on,30,0,3,,,,,,,,,2,,,45,0
72360,note_on,0,0,1,,,,,,,,,0,,,58,101
72360,note_on,30,0,1,,,,,,,,,0,,,57,0
72360,note_on,0,0,3,,,,,,,,,2,,,46,88
72390,note_on,0,0,3,,,,,,,,,2,,,43,88
72390,note_on,30,0,1,,,,,,,,,0,,,58,0
72390,note_on,0,0,1,,,,,,,,,0,,,55,101
72390,note_on,30,0,3,,,,,,,,,2,,,46,0
72420,note_on,30,0,3,,,,,,,,,2,,,43,0
72420,note_on,0,0,3,,,,,,,,,2,,,46,88
72420,note_on,0,0,1,,,,,,,,,0,,,58,101
72420,note_on,30,0,1,,,,,,,,,0,,,55,0
72450,note_on,30,0,1,,,,,,,,,0,,,58,0
72450,note_on,0,0,1,,,,,,,,,0,,,55,101
72450,note_on,30,0,3,,,,,,,,,2,,,46,0
72450,control_change,0,0,3,,,,,,,,,2,64,0,,
72450,note_on,0,0,3,,,,,,,,,2,,,43,88
72450,control_change,0,0,1,,,,,,,,,0,64,0,,
72480,note_on,30,0,1,,,,,,,,,0,,,55,0
72480,note_on,0,0,1,,,,,,,,,0,,,67,114
72480,note_on,30,0,3,,,,,,,,,2,,,43,0
72480,control_change,0,0,3,,,,,,,,,2,64,127,,
72480,note_on,0,0,3,,,,,,,,,2,,,55,101
72480,control_change,0,0,1,,,,,,,,,0,64,127,,
72540,note_on,60,0,1,,,,,,,,,0,,,67,0
72540,note_on,0,0,1,,,,,,,,,0,,,55,114
72540,note_on,60,0,3,,,,,,,,,2,,,55,0
72540,note_on,0,0,3,,,,,,,,,2,,,43,101
72600,note_on,0,0,3,,,,,,,,,2,,,43,127
72600,note_on,60,0,1,,,,,,,,,0,,,55,0
72600,note_on,0,0,1,,,,,,,,,0,,,55,114
72600,note_on,60,0,3,,,,,,,,,2,,,43,0
72606,note_on,6,0,1,,,,,,,,,0,,,55,0
72606,note_on,6,0,3,,,,,,,,,2,,,43,0
72660,control_change,54,0,1,,,,,,,,,0,64,0,,
72660,control_change,54,0,3,,,,,,,,,2,64,0,,
72660,note_on,0,0,1,,,,,,,,,0,,,55,114
72660,note_on,0,0,3,,,,,,,,,2,,,43,127
72666,note_on,6,0,1,,,,,,,,,0,,,55,0
72666,note_on,6,0,3,,,,,,,,,2,,,43,0
72720,note_on,0,0,1,,,,,,,,,0,,,60,114
72720,control_change,54,0,1,,,,,,,,,0,64,127,,
72720,note_on,0,0,1,,,,,,,,,0,,,67,114
72720,note_on,0,0,3,,,,,,,,,2,,,39,101
72720,control_change,54,0,3,,,,,,,,,2,64,127,,
72720,note_on,0,0,1,,,,,,,,,0,,,63,114
72750,note_on,0,0,3,,,,,,,,,2,,,38,101
72750,note_on,30,0,3,,,,,,,,,2,,,39,0
72780,note_on,0,0,1,,,,,,,,,0,,,60,0
72780,note_on,0,0,1,,,,,,,,,0,,,55,114
72780,note_on,30,0,3,,,,,,,,,2,,,38,0
72780,note_on,0,0,3,,,,,,,,,2,,,36,101
72780,note_on,60,0,1,,,,,,,,,0,,,67,0
72780,note_on,0,0,1,,,,,,,,,0,,,63,0
72810,note_on,30,0,3,,,,,,,,,2,,,36,0
72810,note_on,0,0,3,,,,,,,,,2,,,38,101
72840,note_on,30,0,3,,,,,,,,,2,,,38,0
72840,note_on,0,0,3,,,,,,,,,2,,,39,101
72840,note_on,60,0,1,,,,,,,,,0,,,55,0
72840,note_on,0,0,1,,,,,,,,,0,,,55,114
72846,note_on,6,0,1,,,,,,,,,0,,,55,0
72870,note_on,0,0,3,,,,,,,,,2,,,36,101
72870,note_on,30,0,3,,,,,,,,,2,,,39,0
72900,control_change,54,0,1,,,,,,,,,0,64,0,,
72900,note_on,0,0,1,,,,,,,,,0,,,55,114
72900,note_on,0,0,3,,,,,,,,,2,,,39,101
72900,note_on,30,0,3,,,,,,,,,2,,,36,0
72906,note_on,6,0,1,,,,,,,,,0,,,55,0
72930,note_on,0,0,3,,,,,,,,,2,,,36,101
72930,control_change,0,0,3,,,,,,,,,2,64,0,,
72930,note_on,30,0,3,,,,,,,,,2,,,39,0
72960,note_on,30,0,3,,,,,,,,,2,,,36,0
72960,note_on,0,0,3,,,,,,,,,2,,,43,101
72960,note_on,0,0,1,,,,,,,,,0,,,67,114
72960,note_on,0,0,1,,,,,,,,,0,,,62,114
72960,note_on,0,0,1,,,,,,,,,0,,,58,114
72960,control_change,54,0,1,,,,,,,,,0,64,127,,
72960,control_change,0,0,3,,,,,,,,,2,64,127,,
73020,note_on,0,0,3,,,,,,,,,2,,,31,101
73020,note_on,60,0,1,,,,,,,,,0,,,67,0
73020,note_on,0,0,1,,,,,,,,,0,,,58,0
73020,note_on,0,0,1,,,,,,,,,0,,,62,0
73020,note_on,0,0,1,,,,,,,,,0,,,55,114
73020,note_on,60,0,3,,,,,,,,,2,,,43,0
73080,note_on,60,0,3,,,,,,,,,2,,,31,0
73080,note_on,0,0,3,,,,,,,,,2,,,31,101
73080,note_on,0,0,1,,,,,,,,,0,,,55,114
73080,note_on,60,0,1,,,,,,,,,0,,,55,0
73086,note_on,6,0,3,,,,,,,,,2,,,31,0
73086,note_on,6,0,1,,,,,,,,,0,,,55,0
73140,note_on,0,0,1,,,,,,,,,0,,,55,114
73140,control_change,54,0,3,,,,,,,,,2,64,0,,
73140,note_on,0,0,3,,,,,,,,,2,,,31,101
73140,control_change,54,0,1,,,,,,,,,0,64,0,,
73146,note_on,6,0,3,,,,,,,,,2,,,31,0
73146,note_on,6,0,1,,,,,,,,,0,,,55,0
73200,note_on,0,0,2,,,,,,,,,1,,,68,101
73200,note_on,0,0,1,,,,,,,,,0,,,74,114
73200,control_change,1440,0,2,,,,,,,,,1,64,127,,
73200,note_on,0,0,2,,,,,,,,,1,,,62,101
73200,control_change,54,0,3,,,,,,,,,2,64,127,,
73200,note_on,0,0,3,,,,,,,,,2,,,53,101
73200,control_change,54,0,1,,,,,,,,,0,64,127,,
73200,note_on,0,0,3,,,,,,,,,2,,,41,101
73206,note_on,0,0,3,,,,,,,,,2,,,41,0
73206,note_on,6,0,3,,,,,,,,,2,,,53,0
73230,note_on,0,0,1,,,,,,,,,0,,,73,114
73230,note_on,30,0,1,,,,,,,,,0,,,74,0
73260,note_on,0,0,1,,,,,,,,,0,,,71,114
73260,note_on,30,0,1,,,,,,,,,0,,,73,0
73260,note_on,0,0,3,,,,,,,,,2,,,56,101
73260,note_on,0,0,2,,,,,,,,,1,,,62,101
73260,note_on,0,0,2,,,,,,,,,1,,,68,101
73260,note_on,54,0,3,,,,,,,,,2,,,44,101
73260,note_on,0,0,2,,,,,,,,,1,,,62,0
73260,note_on,60,0,2,,,,,,,,,1,,,68,0
73266,note_on,0,0,3,,,,,,,,,2,,,44,0
73266,note_on,6,0,3,,,,,,,,,2,,,56,0
73290,note_on,30,0,1,,,,,,,,,0,,,71,0
73290,note_on,0,0,1,,,,,,,,,0,,,73,114
73320,note_on,0,0,2,,,,,,,,,1,,,68,101
73320,note_on,0,0,1,,,,,,,,,0,,,74,114
73320,note_on,54,0,3,,,,,,,,,2,,,47,101
73320,note_on,30,0,1,,,,,,,,,0,,,73,0
73320,note_on,0,0,2,,,,,,,,,1,,,65,101
73320,note_on,0,0,2,,,,,,,,,1,,,62,0
73320,note_on,60,0,2,,,,,,,,,1,,,68,0
73320,note_on,0,0,3,,,,,,,,,2,,,59,101
73326,note_on,0,0,3,,,,,,,,,2,,,47,0
73326,note_on,6,0,3,,,,,,,,,2,,,59,0
73350,note_on,30,0,1,,,,,,,,,0,,,74,0
73350,note_on,0,0,1,,,,,,,,,0,,,71,114
73380,control_change,0,0,2,,,,,,,,,1,64,0,,
73380,note_on,30,0,1,,,,,,,,,0,,,71,0
73380,note_on,0,0,2,,,,,,,,,1,,,68,101
73380,control_change,54,0,3,,,,,,,,,2,64,0,,
73380,note_on,0,0,2,,,,,,,,,1,,,65,0
73380,note_on,60,0,2,,,,,,,,,1,,,68,0
73380,note_on,0,0,1,,,,,,,,,0,,,74,114
73380,note_on,0,0,2,,,,,,,,,1,,,65,101
73380,note_on,0,0,3,,,,,,,,,2,,,50,101
73380,note_on,0,0,3,,,,,,,,,2,,,62,101
73386,note_on,0,0,3,,,,,,,,,2,,,50,0
73386,note_on,6,0,3,,,,,,,,,2,,,62,0
73410,note_on,30,0,1,,,,,,,,,0,,,74,0
73410,control_change,0,0,1,,,,,,,,,0,64,0,,
73410,note_on,0,0,1,,,,,,,,,0,,,71,114
73440,note_on,30,0,1,,,,,,,,,0,,,71,0
73440,note_on,0,0,1,,,,,,,,,0,,,74,101
73440,note_on,0,0,2,,,,,,,,,1,,,65,0
73440,control_change,0,0,1,,,,,,,,,0,64,127,,
73440,control_change,54,0,3,,,,,,,,,2,64,127,,
73440,note_on,0,0,3,,,,,,,,,2,,,42,88
73440,note_on,0,0,3,,,,,,,,,2,,,47,88
73440,note_on,0,0,3,,,,,,,,,2,,,50,88
73440,note_on,0,0,3,,,,,,,,,2,,,54,88
73440,note_on,0,0,1,,,,,,,,,0,,,71,101
73440,note_on,0,0,1,,,,,,,,,0,,,66,101
73440,note_on,60,0,2,,,,,,,,,1,,,68,0
73440,note_on,0,0,1,,,,,,,,,0,,,78,101
73446,note_on,6,0,3,,,,,,,,,2,,,54,0
73446,note_on,0,0,3,,,,,,,,,2,,,50,0
73446,note_on,0,0,3,,,,,,,,,2,,,47,0
73446,note_on,0,0,3,,,,,,,,,2,,,42,0
73446,note_on,0,0,1,,,,,,,,,0,,,66,0
73446,note_on,0,0,1,,,,,,,,,0,,,74,0
73446,note_on,0,0,1,,,,,,,,,0,,,71,0
73446,note_on,6,0,1,,,,,,,,,0,,,78,0
73500,note_on,0,0,1,,,,,,,,,0,,,66,101
73500,note_on,54,0,3,,,,,,,,,2,,,54,88
73500,note_on,0,0,3,,,,,,,,,2,,,59,88
73500,note_on,54,0,1,,,,,,,,,0,,,62,101
73506,note_on,6,0,1,,,,,,,,,0,,,66,0
73506,note_on,0,0,1,,,,,,,,,0,,,62,0
73506,note_on,6,0,3,,,,,,,,,2,,,59,0
73506,note_on,0,0,3,,,,,,,,,2,,,54,0
73560,note_on,54,0,3,,,,,,,,,2,,,54,88
73560,note_on,0,0,1,,,,,,,,,0,,,66,101
73560,note_on,0,0,3,,,,,,,,,2,,,59,88
73560,note_on,54,0,1,,,,,,,,,0,,,62,101
73566,note_on,6,0,3,,,,,,,,,2,,,59,0
73566,note_on,0,0,1,,,,,,,,,0,,,62,0
73566,note_on,6,0,1,,,,,,,,,0,,,66,0
73566,note_on,0,0,3,,,,,,,,,2,,,54,0
73620,control_change,54,0,3,,,,,,,,,2,64,0,,
73620,note_on,0,0,3,,,,,,,,,2,,,54,88
73620,note_on,0,0,3,,,,,,,,,2,,,59,88
73620,note_on,0,0,1,,,,,,,,,0,,,66,101
73620,note_on,0,0,1,,,,,,,,,0,,,62,101
73620,control_change,54,0,1,,,,,,,,,0,64,0,,
73626,note_on,6,0,1,,,,,,,,,0,,,66,0
73626,note_on,0,0,1,,,,,,,,,0,,,62,0
73626,note_on,6,0,3,,,,,,,,,2,,,59,0
73626,note_on,0,0,3,,,,,,,,,2,,,54,0
73680,note_on,0,0,2,,,,,,,,,1,,,61,36
73680,note_on,0,0,1,,,,,,,,,0,,,67,49
73680,control_change,54,0,1,,,,,,,,,0,64,127,,
73680,control_change,54,0,3,,,,,,,,,2,64,127,,
73680,note_on,0,0,3,,,,,,,,,2,,,52,36
73680,note_on,0,0,3,,,,,,,,,2,,,59,36
73680,control_change,240,0,2,,,,,,,,,1,64,127,,
73686,note_on,6,0,3,,,,,,,,,2,,,59,0
73686,note_on,0,0,3,,,,,,,,,2,,,52,0
73710,note_on,30,0,1,,,,,,,,,0,,,67,0
73710,note_on,0,0,1,,,,,,,,,0,,,66,49
73740,note_on,30,0,1,,,,,,,,,0,,,66,0
73740,note_on,0,0,1,,,,,,,,,0,,,69,49
73740,note_on,54,0,3,,,,,,,,,2,,,52,36
73740,note_on,0,0,2,,,,,,,,,1,,,61,36
73740,note_on,0,0,3,,,,,,,,,2,,,59,36
73740,note_on,60,0,2,,,,,,,,,1,,,61,0
73746,note_on,0,0,3,,,,,,,,,2,,,52,0
73746,note_on,6,0,3,,,,,,,,,2,,,59,0
73770,note_on,0,0,1,,,,,,,,,0,,,67,49
73770,note_on,30,0,1,,,,,,,,,0,,,69,0
73800,note_on,60,0,2,,,,,,,,,1,,,61,0
73800,control_change,0,0,2,,,,,,,,,1,64,0,,
73800,note_on,0,0,3,,,,,,,,,2,,,58,36
73800,note_on,30,0,1,,,,,,,,,0,,,67,0
73800,note_on,0,0,3,,,,,,,,,2,,,54,36
73800,control_change,54,0,3,,,,,,,,,2,64,0,,
73800,note_on,0,0,2,,,,,,,,,1,,,64,36
73800,control_change,0,0,1,,,,,,,,,0,64,0,,
73800,note_on,0,0,1,,,,,,,,,0,,,66,49
73806,note_on,0,0,3,,,,,,,,,2,,,54,0
73806,note_on,6,0,1,,,,,,,,,0,,,66,0
73806,note_on,6,0,3,,,,,,,,,2,,,58,0
73860,note_on,0,0,2,,,,,,,,,1,,,64,36
73860,note_on,60,0,2,,,,,,,,,1,,,64,0
73860,note_on,0,0,3,,,,,,,,,2,,,58,36
73860,note_on,54,0,3,,,,,,,,,2,,,54,36
73860,note_on,54,0,1,,,,,,,,,0,,,66,49
73866,note_on,6,0,1,,,,,,,,,0,,,66,0
73866,note_on,6,0,3,,,,,,,,,2,,,58,0
73866,note_on,0,0,3,,,,,,,,,2,,,54,0
73920,control_change,54,0,3,,,,,,,,,2,64,127,,
73920,note_on,0,0,1,,,,,,,,,0,,,71,114
73920,control_change,54,0,1,,,,,,,,,0,64,127,,
73920,note_on,0,0,1,,,,,,,,,0,,,59,114
73920,note_on,0,0,3,,,,,,,,,2,,,47,101
73920,note_on,0,0,1,,,,,,,,,0,,,62,114
73920,note_on,0,0,1,,,,,,,,,0,,,66,114
73920,note_on,60,0,2,,,,,,,,,1,,,64,0
73920,note_on,0,0,3,,,,,,,,,2,,,54,101
73926,note_on,6,0,1,,,,,,,,,0,,,71,0
73926,note_on,0,0,1,,,,,,,,,0,,,59,0
73926,note_on,0,0,1,,,,,,,,,0,,,62,0
73926,note_on,0,0,1,,,,,,,,,0,,,66,0
73926,note_on,6,0,3,,,,,,,,,2,,,54,0
73926,note_on,0,0,3,,,,,,,,,2,,,47,0
73980,control_change,54,0,3,,,,,,,,,2,64,0,,
73980,note_on,0,0,3,,,,,,,,,2,,,50,101
73980,control_change,54,0,1,,,,,,,,,0,64,0,,
73980,note_on,0,0,1,,,,,,,,,0,,,62,114
73986,note_on,6,0,3,,,,,,,,,2,,,50,0
73986,note_on,6,0,1,,,,,,,,,0,,,62,0
74040,note_on,0,0,3,,,,,,,,,2,,,50,101
74040,control_change,54,0,1,,,,,,,,,0,64,127,,
74040,note_on,0,0,1,,,,,,,,,0,,,57,114
74040,note_on,0,0,1,,,,,,,,,0,,,60,114
74040,note_on,0,0,1,,,,,,,,,0,,,62,114
74040,note_on,0,0,1,,,,,,,,,0,,,66,114
74040,control_change,54,0,3,,,,,,,,,2,64,127,,
74040,note_on,0,0,3,,,,,,,,,2,,,38,101
74046,note_on,6,0,1,,,,,,,,,0,,,66,0
74046,note_on,0,0,1,,,,,,,,,0,,,60,0
74046,note_on,0,0,1,,,,,,,,,0,,,62,0
74046,note_on,0,0,3,,,,,,,,,2,,,38,0
74046,note_on,6,0,3,,,,,,,,,2,,,50,0
74046,note_on,0,0,1,,,,,,,,,0,,,57,0
74100,control_change,54,0,3,,,,,,,,,2,64,0,,
74100,note_on,0,0,3,,,,,,,,,2,,,50,101
74100,control_change,54,0,1,,,,,,,,,0,64,0,,
74100,note_on,0,0,1,,,,,,,,,0,,,62,114
74106,note_on,6,0,1,,,,,,,,,0,,,62,0
74106,note_on,6,0,3,,,,,,,,,2,,,50,0
74160,control_change,54,0,1,,,,,,,,,0,64,127,,
74160,note_on,0,0,1,,,,,,,,,0,,,58,101
74160,note_on,0,0,1,,,,,,,,,0,,,62,101
74160,note_on,0,0,1,,,,,,,,,0,,,67,101
74160,note_on,0,0,3,,,,,,,,,2,,,46,88
74160,control_change,54,0,3,,,,,,,,,2,64,127,,
74190,note_on,30,0,1,,,,,,,,,0,,,67,0
74190,note_on,0,0,1,,,,,,,,,0,,,62,0
74190,note_on,0,0,1,,,,,,,,,0,,,58,0
74190,note_on,0,0,1,,,,,,,,,0,,,57,101
74190,note_on,0,0,3,,,,,,,,,2,,,45,88
74190,note_on,30,0,3,,,,,,,,,2,,,46,0
74220,note_on,0,0,3,,,,,,,,,2,,,43,88
74220,note_on,30,0,3,,,,,,,,,2,,,45,0
74220,note_on,0,0,1,,,,,,,,,0,,,55,101
74220,note_on,30,0,1,,,,,,,,,0,,,57,0
74250,note_on,0,0,3,,,,,,,,,2,,,45,88
74250,note_on,30,0,3,,,,,,,,,2,,,43,0
74250,note_on,0,0,1,,,,,,,,,0,,,57,101
74250,note_on,30,0,1,,,,,,,,,0,,,55,0
74280,note_on,0,0,3,,,,,,,,,2,,,46,88
74280,note_on,30,0,3,,,,,,,,,2,,,45,0
74280,note_on,30,0,1,,,,,,,,,0,,,57,0
74280,note_on,0,0,1,,,,,,,,,0,,,58,101
74310,note_on,30,0,1,,,,,,,,,0,,,58,0
74310,note_on,0,0,1,,,,,,,,,0,,,55,101
74310,note_on,0,0,3,,,,,,,,,2,,,43,88
74310,note_on,30,0,3,,,,,,,,,2,,,46,0
74340,note_on,30,0,1,,,,,,,,,0,,,55,0
74340,note_on,0,0,3,,,,,,,,,2,,,46,88
74340,note_on,30,0,3,,,,,,,,,2,,,43,0
74340,note_on,0,0,1,,,,,,,,,0,,,58,101
74370,note_on,0,0,1,,,,,,,,,0,,,55,101
74370,control_change,0,0,3,,,,,,,,,2,64,0,,
74370,note_on,0,0,3,,,,,,,,,2,,,43,88
74370,control_change,0,0,1,,,,,,,,,0,64,0,,
74370,note_on,30,0,1,,,,,,,,,0,,,58,0
74370,note_on,30,0,3,,,,,,,,,2,,,46,0
74400,note_on,30,0,3,,,,,,,,,2,,,43,0
74400,control_change,0,0,3,,,,,,,,,2,64,127,,
74400,note_on,0,0,3,,,,,,,,,2,,,55,101
74400,control_change,0,0,1,,,,,,,,,0,64,127,,
74400,note_on,30,0,1,,,,,,,,,0,,,55,0
74400,note_on,0,0,1,,,,,,,,,0,,,67,114
74460,note_on,0,0,3,,,,,,,,,2,,,43,101
74460,note_on,60,0,1,,,,,,,,,0,,,67,0
74460,note_on,0,0,1,,,,,,,,,0,,,55,114
74460,note_on,60,0,3,,,,,,,,,2,,,55,0
74520,note_on,60,0,3,,,,,,,,,2,,,43,0
74520,note_on,60,0,1,,,,,,,,,0,,,55,0
74520,note_on,0,0,1,,,,,,,,,0,,,55,114
74520,note_on,0,0,3,,,,,,,,,2,,,43,101
74526,note_on,6,0,3,,,,,,,,,2,,,43,0
74526,note_on,6,0,1,,,,,,,,,0,,,55,0
74580,note_on,0,0,1,,,,,,,,,0,,,55,114
74580,control_change,54,0,1,,,,,,,,,0,64,0,,
74580,note_on,0,0,3,,,,,,,,,2,,,43,101
74580,control_change,54,0,3,,,,,,,,,2,64,0,,
74586,note_on,6,0,3,,,,,,,,,2,,,43,0
74586,note_on,6,0,1,,,,,,,,,0,,,55,0
74640,control_change,54,0,3,,,,,,,,,2,64,127,,
74640,control_change,54,0,1,,,,,,,,,0,64,127,,
74640,note_on,0,0,1,,,,,,,,,0,,,60,114
74640,note_on,0,0,1,,,,,,,,,0,,,63,114
74640,note_on,0,0,1,,,,,,,,,0,,,67,114
74640,note_on,0,0,3,,,,,,,,,2,,,39,101
74670,note_on,30,0,3,,,,,,,,,2,,,39,0
74670,note_on,0,0,3,,,,,,,,,2,,,38,101
74700,note_on,0,0,1,,,,,,,,,0,,,60,0
74700,note_on,30,0,3,,,,,,,,,2,,,38,0
74700,note_on,0,0,3,,,,,,,,,2,,,36,101
74700,note_on,60,0,1,,,,,,,,,0,,,67,0
74700,note_on,0,0,1,,,,,,,,,0,,,63,0
74700,note_on,0,0,1,,,,,,,,,0,,,55,114
74730,note_on,0,0,3,,,,,,,,,2,,,38,101
74730,note_on,30,0,3,,,,,,,,,2,,,36,0
74760,note_on,60,0,1,,,,,,,,,0,,,55,0
74760,note_on,0,0,3,,,,,,,,,2,,,39,101
74760,note_on,30,0,3,,,,,,,,,2,,,38,0
74760,note_on,0,0,1,,,,,,,,,0,,,55,114
74766,note_on,6,0,1,,,,,,,,,0,,,55,0
74790,note_on,0,0,3,,,,,,,,,2,,,36,101
74790,note_on,30,0,3,,,,,,,,,2,,,39,0
74820,note_on,0,0,3,,,,,,,,,2,,,39,101
74820,note_on,30,0,3,,,,,,,,,2,,,36,0
74820,control_change,54,0,1,,,,,,,,,0,64,0,,
74820,note_on,0,0,1,,,,,,,,,0,,,55,114
74826,note_on,6,0,1,,,,,,,,,0,,,55,0
74850,note_on,0,0,3,,,,,,,,,2,,,36,101
74850,control_change,0,0,3,,,,,,,,,2,64,0,,
74850,note_on,30,0,3,,,,,,,,,2,,,39,0
74880,note_on,0,0,3,,,,,,,,,2,,,43,101
74880,control_change,0,0,3,,,,,,,,,2,64,127,,
74880,note_on,30,0,3,,,,,,,,,2,,,36,0
74880,note_on,0,0,1,,,,,,,,,0,,,58,114
74880,note_on,0,0,1,,,,,,,,,0,,,62,114
74880,note_on,0,0,1,,,,,,,,,0,,,67,114
74880,control_change,54,0,1,,,,,,,,,0,64,127,,
74940,note_on,0,0,1,,,,,,,,,0,,,62,0
74940,note_on,0,0,1,,,,,,,,,0,,,58,0
74940,note_on,60,0,3,,,,,,,,,2,,,43,0
74940,note_on,0,0,1,,,,,,,,,0,,,55,114
74940,note_on,0,0,3,,,,,,,,,2,,,31,101
74940,note_on,60,0,1,,,,,,,,,0,,,67,0
75000,note_on,60,0,1,,,,,,,,,0,,,55,0
75000,note_on,0,0,3,,,,,,,,,2,,,31,101
75000,note_on,60,0,3,,,,,,,,,2,,,31,0
75000,note_on,0,0,1,,,,,,,,,0,,,55,114
75006,note_on,6,0,1,,,,,,,,,0,,,55,0
75006,note_on,6,0,3,,,,,,,,,2,,,31,0
75060,control_change,54,0,1,,,,,,,,,0,64,0,,
75060,note_on,0,0,1,,,,,,,,,0,,,55,114
75060,note_on,0,0,3,,,,,,,,,2,,,31,101
75060,control_change,54,0,3,,,,,,,,,2,64,0,,
75066,note_on,6,0,1,,,,,,,,,0,,,55,0
75066,note_on,6,0,3,,,,,,,,,2,,,31,0
75120,control_change,54,0,1,,,,,,,,,0,64,127,,
75120,note_on,0,0,1,,,,,,,,,0,,,77,114
75120,control_change,1200,0,2,,,,,,,,,1,64,127,,
75120,note_on,0,0,2,,,,,,,,,1,,,71,101
75120,note_on,0,0,3,,,,,,,,,2,,,44,101
75120,note_on,0,0,3,,,,,,,,,2,,,32,101
75120,note_on,0,0,2,,,,,,,,,1,,,65,101
75120,control_change,54,0,3,,,,,,,,,2,64,127,,
75126,note_on,0,0,3,,,,,,,,,2,,,32,0
75126,note_on,6,0,3,,,,,,,,,2,,,44,0
75150,note_on,30,0,1,,,,,,,,,0,,,77,0
75150,note_on,0,0,1,,,,,,,,,0,,,76,114
75180,note_on,60,0,2,,,,,,,,,1,,,71,0
75180,note_on,0,0,2,,,,,,,,,1,,,65,0
75180,note_on,54,0,3,,,,,,,,,2,,,35,101
75180,note_on,0,0,2,,,,,,,,,1,,,65,101
75180,note_on,0,0,1,,,,,,,,,0,,,74,114
75180,note_on,30,0,1,,,,,,,,,0,,,76,0
75180,note_on,0,0,2,,,,,,,,,1,,,71,101
75180,note_on,0,0,3,,,,,,,,,2,,,47,101
75186,note_on,6,0,3,,,,,,,,,2,,,47,0
75186,note_on,0,0,3,,,,,,,,,2,,,35,0
75210,note_on,30,0,1,,,,,,,,,0,,,74,0
75210,note_on,0,0,1,,,,,,,,,0,,,76,114
75240,note_on,30,0,1,,,,,,,,,0,,,76,0
75240,note_on,0,0,3,,,,,,,,,2,,,50,101
75240,note_on,54,0,3,,,,,,,,,2,,,38,101
75240,note_on,0,0,1,,,,,,,,,0,,,77,114
75240,note_on,0,0,2,,,,,,,,,1,,,68,101
75240,note_on,0,0,2,,,,,,,,,1,,,65,0
75240,note_on,60,0,2,,,,,,,,,1,,,71,0
75240,note_on,0,0,2,,,,,,,,,1,,,71,101
75246,note_on,0,0,3,,,,,,,,,2,,,38,0
75246,note_on,6,0,3,,,,,,,,,2,,,50,0
75270,note_on,30,0,1,,,,,,,,,0,,,77,0
75270,note_on,0,0,1,,,,,,,,,0,,,74,114
75300,note_on,0,0,3,,,,,,,,,2,,,41,101
75300,note_on,60,0,2,,,,,,,,,1,,,71,0
75300,note_on,0,0,2,,,,,,,,,1,,,68,0
75300,control_change,0,0,2,,,,,,,,,1,64,0,,
75300,note_on,0,0,2,,,,,,,,,1,,,68,101
75300,control_change,54,0,3,,,,,,,,,2,64,0,,
75300,note_on,0,0,2,,,,,,,,,1,,,71,101
75300,note_on,0,0,1,,,,,,,,,0,,,77,114
75300,note_on,30,0,1,,,,,,,,,0,,,74,0
75300,note_on,0,0,3,,,,,,,,,2,,,53,101
75306,note_on,6,0,3,,,,,,,,,2,,,53,0
75306,note_on,0,0,3,,,,,,,,,2,,,41,0
75330,note_on,0,0,1,,,,,,,,,0,,,74,114
75330,note_on,30,0,1,,,,,,,,,0,,,77,0
75330,control_change,0,0,1,,,,,,,,,0,64,0,,
75360,note_on,30,0,1,,,,,,,,,0,,,74,0
75360,control_change,0,0,1,,,,,,,,,0,64,127,,
75360,note_on,0,0,1,,,,,,,,,0,,,69,114
75360,note_on,0,0,1,,,,,,,,,0,,,74,114
75360,note_on,0,0,1,,,,,,,,,0,,,77,114
75360,note_on,0,0,3,,,,,,,,,2,,,45,101
75360,note_on,0,0,3,,,,,,,,,2,,,50,101
75360,note_on,0,0,3,,,,,,,,,2,,,53,101
75360,note_on,0,0,3,,,,,,,,,2,,,57,101
75360,note_on,0,0,2,,,,,,,,,1,,,68,0
75360,note_on,60,0,2,,,,,,,,,1,,,71,0
75360,control_change,54,0,3,,,,,,,,,2,64,127,,
75360,note_on,0,0,1,,,,,,,,,0,,,81,114
75366,note_on,6,0,1,,,,,,,,,0,,,81,0
75366,note_on,0,0,1,,,,,,,,,0,,,69,0
75366,note_on,0,0,1,,,,,,,,,0,,,74,0
75366,note_on,0,0,1,,,,,,,,,0,,,77,0
75366,note_on,0,0,3,,,,,,,,,2,,,45,0
75366,note_on,0,0,3,,,,,,,,,2,,,53,0
75366,note_on,0,0,3,,,,,,,,,2,,,50,0
75366,note_on,6,0,3,,,,,,,,,2,,,57,0
75420,note_on,54,0,3,,,,,,,,,2,,,57,101
75420,note_on,54,0,1,,,,,,,,,0,,,65,114
75420,note_on,0,0,1,,,,,,,,,0,,,69,114
75420,note_on,0,0,3,,,,,,,,,2,,,62,101
75426,note_on,0,0,3,,,,,,,,,2,,,57,0
75426,note_on,6,0,3,,,,,,,,,2,,,62,0
75426,note_on,6,0,1,,,,,,,,,0,,,69,0
75426,note_on,0,0,1,,,,,,,,,0,,,65,0
75480,note_on,0,0,3,,,,,,,,,2,,,62,101
75480,note_on,54,0,3,,,,,,,,,2,,,57,101
75480,note_on,0,0,1,,,,,,,,,0,,,69,114
75480,note_on,54,0,1,,,,,,,,,0,,,65,114
75486,note_on,0,0,3,,,,,,,,,2,,,57,0
75486,note_on,0,0,1,,,,,,,,,0,,,65,0
75486,note_on,6,0,1,,,,,,,,,0,,,69,0
75486,note_on,6,0,3,,,,,,,,,2,,,62,0
75540,control_change,54,0,3,,,,,,,,,2,64,0,,
75540,note_on,0,0,3,,,,,,,,,2,,,57,101
75540,note_on,0,0,3,,,,,,,,,2,,,62,101
75540,note_on,0,0,1,,,,,,,,,0,,,65,114
75540,note_on,0,0,1,,,,,,,,,0,,,69,114
75540,control_change,54,0,1,,,,,,,,,0,64,0,,
75546,note_on,6,0,1,,,,,,,,,0,,,69,0
75546,note_on,0,0,1,,,,,,,,,0,,,65,0
75546,note_on,6,0,3,,,,,,,,,2,,,62,0
75546,note_on,0,0,3,,,,,,,,,2,,,57,0
75600,note_on,0,0,2,,,,,,,,,1,,,75,88
75600,note_on,0,0,2,,,,,,,,,1,,,69,88
75600,note_on,0,0,1,,,,,,,,,0,,,81,101
75600,control_change,54,0,1,,,,,,,,,0,64,127,,
75600,control_change,240,0,2,,,,,,,,,1,64,127,,
75600,note_on,0,0,3,,,,,,,,,2,,,48,88
75600,note_on,0,0,3,,,,,,,,,2,,,36,88
75600,control_change,54,0,3,,,,,,,,,2,64,127,,
75630,note_on,30,0,1,,,,,,,,,0,,,81,0
75630,note_on,0,0,1,,,,,,,,,0,,,80,101
75660,note_on,0,0,3,,,,,,,,,2,,,39,88
75660,note_on,0,0,3,,,,,,,,,2,,,51,88
75660,note_on,30,0,1,,,,,,,,,0,,,80,0
75660,note_on,0,0,1,,,,,,,,,0,,,78,101
75660,note_on,60,0,3,,,,,,,,,2,,,48,0
75660,note_on,0,0,3,,,,,,,,,2,,,36,0
75690,note_on,0,0,1,,,,,,,,,0,,,80,101
75690,note_on,30,0,1,,,,,,,,,0,,,78,0
75720,note_on,60,0,3,,,,,,,,,2,,,51,0
75720,note_on,120,0,2,,,,,,,,,1,,,75,0
75720,note_on,0,0,2,,,,,,,,,1,,,69,0
75720,note_on,0,0,2,,,,,,,,,1,,,72,88
75720,note_on,0,0,2,,,,,,,,,1,,,75,88
75720,note_on,0,0,3,,,,,,,,,2,,,42,88
75720,note_on,0,0,3,,,,,,,,,2,,,54,88
75720,note_on,0,0,1,,,,,,,,,0,,,81,101
75720,note_on,30,0,1,,,,,,,,,0,,,80,0
75720,note_on,0,0,3,,,,,,,,,2,,,39,0
75750,note_on,0,0,1,,,,,,,,,0,,,78,101
75750,note_on,30,0,1,,,,,,,,,0,,,81,0
75780,note_on,0,0,2,,,,,,,,,1,,,72,0
75780,control_change,0,0,2,,,,,,,,,1,64,0,,
75780,note_on,0,0,3,,,,,,,,,2,,,57,88
75780,note_on,0,0,2,,,,,,,,,1,,,75,88
75780,note_on,60,0,2,,,,,,,,,1,,,75,0
75780,note_on,0,0,3,,,,,,,,,2,,,45,88
75780,control_change,0,0,3,,,,,,,,,2,64,0,,
75780,note_on,0,0,3,,,,,,,,,2,,,42,0
75780,note_on,60,0,3,,,,,,,,,2,,,54,0
75780,note_on,0,0,2,,,,,,,,,1,,,72,88
75780,note_on,0,0,1,,,,,,,,,0,,,81,101
75780,note_on,30,0,1,,,,,,,,,0,,,78,0
75810,note_on,30,0,1,,,,,,,,,0,,,81,0
75810,note_on,0,0,1,,,,,,,,,0,,,78,101
75810,control_change,0,0,1,,,,,,,,,0,64,0,,
75840,note_on,30,0,1,,,,,,,,,0,,,78,0
75840,control_change,0,0,1,,,,,,,,,0,64,127,,
75840,note_on,0,0,1,,,,,,,,,0,,,73,115
75840,note_on,0,0,1,,,,,,,,,0,,,78,119
75840,note_on,0,0,1,,,,,,,,,0,,,81,123
75840,note_on,0,0,1,,,,,,,,,0,,,85,127
75840,note_on,60,0,3,,,,,,,,,2,,,57,0
75840,note_on,0,0,3,,,,,,,,,2,,,45,0
75840,note_on,0,0,3,,,,,,,,,2,,,57,110
75840,note_on,0,0,3,,,,,,,,,2,,,54,106
75840,note_on,0,0,3,,,,,,,,,2,,,49,102
75840,note_on,60,0,2,,,,,,,,,1,,,75,0
75840,note_on,0,0,2,,,,,,,,,1,,,72,0
75840,control_change,0,0,3,,,,,,,,,2,64,127,,
75840,note_on,0,0,3,,,,,,,,,2,,,61,114
75846,note_on,0,0,3,,,,,,,,,2,,,54,0
75846,note_on,6,0,3,,,,,,,,,2,,,61,0
75846,note_on,0,0,3,,,,,,,,,2,,,49,0
75846,note_on,0,0,1,,,,,,,,,0,,,78,0
75846,note_on,0,0,1,,,,,,,,,0,,,81,0
75846,note_on,6,0,1,,,,,,,,,0,,,85,0
75846,note_on,0,0,1,,,,,,,,,0,,,73,0
75846,note_on,0,0,3,,,,,,,,,2,,,57,0
75900,note_on,0,0,3,,,,,,,,,2,,,66,114
75900,note_on,54,0,1,,,,,,,,,0,,,69,119
75900,note_on,0,0,1,,,,,,,,,0,,,73,127
75900,note_on,54,0,3,,,,,,,,,2,,,61,106
75906,note_on,0,0,3,,,,,,,,,2,,,61,0
75906,note_on,6,0,3,,,,,,,,,2,,,66,0
75906,note_on,6,0,1,,,,,,,,,0,,,73,0
75906,note_on,0,0,1,,,,,,,,,0,,,69,0
75960,note_on,0,0,3,,,,,,,,,2,,,66,114
75960,note_on,54,0,1,,,,,,,,,0,,,69,119
75960,note_on,0,0,1,,,,,,,,,0,,,73,127
75960,note_on,54,0,3,,,,,,,,,2,,,61,106
75966,note_on,6,0,3,,,,,,,,,2,,,66,0
75966,note_on,0,0,3,,,,,,,,,2,,,61,0
75966,note_on,0,0,1,,,,,,,,,0,,,69,0
75966,note_on,6,0,1,,,,,,,,,0,,,73,0
76020,note_on,0,0,3,,,,,,,,,2,,,61,106
76020,control_change,54,0,1,,,,,,,,,0,64,0,,
76020,note_on,0,0,3,,,,,,,,,2,,,66,114
76020,note_on,0,0,1,,,,,,,,,0,,,69,119
76020,note_on,0,0,1,,,,,,,,,0,,,73,127
76020,control_change,54,0,3,,,,,,,,,2,64,0,,
76026,note_on,6,0,3,,,,,,,,,2,,,66,0
76026,note_on,6,0,1,,,,,,,,,0,,,73,0
76026,note_on,0,0,1,,,,,,,,,0,,,69,0
76026,note_on,0,0,3,,,,,,,,,2,,,61,0
76080,control_change,240,0,2,,,,,,,,,1,64,127,,
76080,control_change,54,0,3,,,,,,,,,2,64,127,,
76080,note_on,0,0,1,,,,,,,,,0,,,74,49
76080,note_on,0,0,3,,,,,,,,,2,,,66,36
76080,control_change,54,0,1,,,,,,,,,0,64,127,,
76080,note_on,0,0,2,,,,,,,,,1,,,68,36
76080,note_on,0,0,3,,,,,,,,,2,,,59,36
76110,note_on,0,0,1,,,,,,,,,0,,,73,49
76110,note_on,30,0,1,,,,,,,,,0,,,74,0
76140,note_on,30,0,1,,,,,,,,,0,,,73,0
76140,note_on,60,0,3,,,,,,,,,2,,,66,0
76140,note_on,0,0,3,,,,,,,,,2,,,59,0
76140,note_on,0,0,3,,,,,,,,,2,,,59,36
76140,note_on,0,0,3,,,,,,,,,2,,,66,36
76140,note_on,0,0,1,,,,,,,,,0,,,76,49
76170,note_on,0,0,1,,,,,,,,,0,,,74,49
76170,note_on,30,0,1,,,,,,,,,0,,,76,0
76200,note_on,30,0,1,,,,,,,,,0,,,74,0
76200,note_on,0,0,1,,,,,,,,,0,,,73,49
76200,note_on,0,0,2,,,,,,,,,1,,,71,36
76200,note_on,0,0,3,,,,,,,,,2,,,59,0
76200,note_on,0,0,3,,,,,,,,,2,,,61,36
76200,note_on,0,0,3,,,,,,,,,2,,,65,36
76200,note_on,120,0,2,,,,,,,,,1,,,68,0
76200,note_on,60,0,3,,,,,,,,,2,,,66,0
76260,note_on,0,0,3,,,,,,,,,2,,,61,0
76260,control_change,0,0,3,,,,,,,,,2,64,0,,
76260,note_on,0,0,3,,,,,,,,,2,,,61,36
76260,note_on,0,0,3,,,,,,,,,2,,,65,36
76260,note_on,60,0,2,,,,,,,,,1,,,71,0
76260,control_change,0,0,2,,,,,,,,,1,64,0,,
76260,note_on,0,0,2,,,,,,,,,1,,,71,36
76260,note_on,60,0,1,,,,,,,,,0,,,73,0
76260,control_change,0,0,1,,,,,,,,,0,64,0,,
76260,note_on,0,0,1,,,,,,,,,0,,,73,49
76260,note_on,60,0,3,,,,,,,,,2,,,65,0
76320,note_on,0,0,1,,,,,,,,,0,,,73,71
76320,note_on,0,0,3,,,,,,,,,2,,,61,0
76320,note_on,0,0,3,,,,,,,,,2,,,54,54
76320,note_on,0,0,3,,,,,,,,,2,,,61,62
76320,note_on,0,0,1,,,,,,,,,0,,,78,75
76320,note_on,60,0,2,,,,,,,,,1,,,71,0
76320,note_on,60,0,1,,,,,,,,,0,,,73,0
76320,control_change,0,0,1,,,,,,,,,0,64,127,,
76320,note_on,0,0,1,,,,,,,,,0,,,66,63
76320,note_on,0,0,1,,,,,,,,,0,,,69,67
76320,note_on,60,0,3,,,,,,,,,2,,,65,0
76326,note_on,0,0,1,,,,,,,,,0,,,66,0
76326,note_on,0,0,1,,,,,,,,,0,,,69,0
76326,note_on,0,0,1,,,,,,,,,0,,,73,0
76326,note_on,6,0,1,,,,,,,,,0,,,78,0
76380,note_on,54,0,1,,,,,,,,,0,,,66,49
76380,note_on,0,0,1,,,,,,,,,0,,,69,49
76380,note_on,0,0,1,,,,,,,,,0,,,73,49
76386,note_on,6,0,1,,,,,,,,,0,,,73,0
76386,note_on,0,0,1,,,,,,,,,0,,,69,0
76386,note_on,0,0,1,,,,,,,,,0,,,66,0
76440,note_on,0,0,3,,,,,,,,,2,,,54,0
76440,note_on,120,0,3,,,,,,,,,2,,,61,0
76440,note_on,54,0,1,,,,,,,,,0,,,66,49
76440,note_on,0,0,1,,,,,,,,,0,,,69,49
76440,note_on,0,0,1,,,,,,,,,0,,,73,49
76446,note_on,6,0,1,,,,,,,,,0,,,73,0
76446,note_on,0,0,1,,,,,,,,,0,,,69,0
76446,note_on,0,0,1,,,,,,,,,0,,,66,0
76500,note_on,0,0,1,,,,,,,,,0,,,73,49
76500,note_on,0,0,1,,,,,,,,,0,,,69,49
76500,note_on,54,0,1,,,,,,,,,0,,,66,49
76506,note_on,6,0,1,,,,,,,,,0,,,73,0
76506,note_on,0,0,1,,,,,,,,,0,,,69,0
76506,note_on,0,0,1,,,,,,,,,0,,,66,0
76560,note_on,54,0,1,,,,,,,,,0,,,66,49
76560,note_on,0,0,1,,,,,,,,,0,,,69,49
76560,note_on,0,0,1,,,,,,,,,0,,,73,49
76560,note_on,0,0,1,,,,,,,,,0,,,78,49
76566,note_on,6,0,1,,,,,,,,,0,,,78,0
76566,note_on,0,0,1,,,,,,,,,0,,,66,0
76566,note_on,0,0,1,,,,,,,,,0,,,69,0
76566,note_on,0,0,1,,,,,,,,,0,,,73,0
76620,note_on,54,0,1,,,,,,,,,0,,,66,49
76620,note_on,0,0,1,,,,,,,,,0,,,69,49
76620,note_on,0,0,1,,,,,,,,,0,,,73,49
76626,note_on,0,0,1,,,,,,,,,0,,,69,0
76626,note_on,6,0,1,,,,,,,,,0,,,73,0
76626,note_on,0,0,1,,,,,,,,,0,,,66,0
76680,note_on,0,0,1,,,,,,,,,0,,,73,49
76680,note_on,54,0,1,,,,,,,,,0,,,66,49
76680,note_on,0,0,1,,,,,,,,,0,,,69,49
76686,note_on,0,0,1,,,,,,,,,0,,,69,0
76686,note_on,6,0,1,,,,,,,,,0,,,73,0
76686,note_on,0,0,1,,,,,,,,,0,,,66,0
76740,note_on,0,0,1,,,,,,,,,0,,,69,49
76740,note_on,0,0,1,,,,,,,,,0,,,73,49
76740,note_on,0,0,1,,,,,,,,,0,,,66,49
76740,control_change,54,0,1,,,,,,,,,0,64,0,,
76746,note_on,6,0,1,,,,,,,,,0,,,73,0
76746,note_on,0,0,1,,,,,,,,,0,,,69,0
76746,note_on,0,0,1,,,,,,,,,0,,,66,0
76800,control_change,360,0,3,,,,,,,,,2,64,127,,
76800,note_on,0,0,3,,,,,,,,,2,,,62,36
76800,note_on,0,0,1,,,,,,,,,0,,,72,49
76800,note_on,0,0,1,,,,,,,,,0,,,74,49
76800,note_on,0,0,1,,,,,,,,,0,,,69,49
76800,note_on,0,0,1,,,,,,,,,0,,,66,49
76800,control_change,54,0,1,,,,,,,,,0,64,127,,
76800,note_on,0,0,1,,,,,,,,,0,,,78,49
76860,note_on,0,0,1,,,,,,,,,0,,,74,49
76860,note_on,0,0,1,,,,,,,,,0,,,72,49
76860,note_on,0,0,1,,,,,,,,,0,,,74,0
76860,note_on,0,0,1,,,,,,,,,0,,,66,49
76860,note_on,0,0,1,,,,,,,,,0,,,69,0
76860,note_on,0,0,1,,,,,,,,,0,,,66,0
76860,note_on,0,0,1,,,,,,,,,0,,,72,0
76860,note_on,60,0,1,,,,,,,,,0,,,78,0
76860,note_on,0,0,1,,,,,,,,,0,,,69,49
76920,note_on,0,0,1,,,,,,,,,0,,,72,49
76920,note_on,0,0,1,,,,,,,,,0,,,66,0
76920,note_on,0,0,1,,,,,,,,,0,,,69,0
76920,note_on,0,0,1,,,,,,,,,0,,,72,0
76920,note_on,0,0,1,,,,,,,,,0,,,66,49
76920,note_on,0,0,1,,,,,,,,,0,,,69,49
76920,note_on,0,0,1,,,,,,,,,0,,,74,49
76920,note_on,60,0,1,,,,,,,,,0,,,74,0
76926,note_on,0,0,1,,,,,,,,,0,,,69,0
76926,note_on,6,0,1,,,,,,,,,0,,,74,0
76926,note_on,0,0,1,,,,,,,,,0,,,66,0
76926,note_on,0,0,1,,,,,,,,,0,,,72,0
76980,note_on,54,0,1,,,,,,,,,0,,,66,49
76980,note_on,0,0,1,,,,,,,,,0,,,72,49
76980,note_on,0,0,1,,,,,,,,,0,,,69,49
76980,note_on,0,0,1,,,,,,,,,0,,,74,49
76986,note_on,6,0,1,,,,,,,,,0,,,74,0
76986,note_on,0,0,1,,,,,,,,,0,,,66,0
76986,note_on,0,0,1,,,,,,,,,0,,,69,0
76986,note_on,0,0,1,,,,,,,,,0,,,72,0
77040,note_on,0,0,1,,,,,,,,,0,,,72,69
77040,note_on,54,0,1,,,,,,,,,0,,,66,63
77040,note_on,0,0,1,,,,,,,,,0,,,78,75
77040,note_on,0,0,1,,,,,,,,,0,,,74,72
77040,note_on,0,0,1,,,,,,,,,0,,,69,66
77100,note_on,0,0,1,,,,,,,,,0,,,66,49
77100,note_on,0,0,1,,,,,,,,,0,,,66,0
77100,note_on,0,0,1,,,,,,,,,0,,,72,49
77100,note_on,0,0,1,,,,,,,,,0,,,74,49
77100,note_on,0,0,1,,,,,,,,,0,,,74,0
77100,note_on,0,0,1,,,,,,,,,0,,,69,49
77100,note_on,0,0,1,,,,,,,,,0,,,69,0
77100,note_on,60,0,1,,,,,,,,,0,,,78,0
77100,note_on,0,0,1,,,,,,,,,0,,,72,0
77100,note_on,300,0,3,,,,,,,,,2,,,62,0
77100,note_on,0,0,3,,,,,,,,,2,,,62,36
77106,note_on,6,0,3,,,,,,,,,2,,,62,0
77160,note_on,0,0,1,,,,,,,,,0,,,74,49
77160,note_on,0,0,1,,,,,,,,,0,,,72,49
77160,note_on,54,0,3,,,,,,,,,2,,,62,36
77160,note_on,0,0,1,,,,,,,,,0,,,66,49
77160,note_on,0,0,1,,,,,,,,,0,,,69,49
77160,note_on,0,0,1,,,,,,,,,0,,,69,0
77160,note_on,0,0,1,,,,,,,,,0,,,66,0
77160,note_on,60,0,1,,,,,,,,,0,,,74,0
77160,note_on,0,0,1,,,,,,,,,0,,,72,0
77166,note_on,6,0,1,,,,,,,,,0,,,74,0
77166,note_on,0,0,1,,,,,,,,,0,,,66,0
77166,note_on,0,0,1,,,,,,,,,0,,,69,0
77166,note_on,0,0,1,,,,,,,,,0,,,72,0
77166,note_on,6,0,3,,,,,,,,,2,,,62,0
77220,note_on,0,0,1,,,,,,,,,0,,,66,49
77220,note_on,0,0,1,,,,,,,,,0,,,74,49
77220,note_on,0,0,1,,,,,,,,,0,,,72,49
77220,note_on,0,0,1,,,,,,,,,0,,,69,49
77220,control_change,54,0,1,,,,,,,,,0,64,0,,
77220,control_change,54,0,3,,,,,,,,,2,64,0,,
77220,note_on,0,0,3,,,,,,,,,2,,,62,36
77226,note_on,6,0,3,,,,,,,,,2,,,62,0
77226,note_on,6,0,1,,,,,,,,,0,,,74,0
77226,note_on,0,0,1,,,,,,,,,0,,,66,0
77226,note_on,0,0,1,,,,,,,,,0,,,69,0
77226,note_on,0,0,1,,,,,,,,,0,,,72,0
77280,note_on,0,0,3,,,,,,,,,2,,,62,36
77280,note_on,0,0,1,,,,,,,,,0,,,78,49
77280,note_on,0,0,1,,,,,,,,,0,,,74,49
77280,note_on,0,0,1,,,,,,,,,0,,,72,49
77280,note_on,0,0,1,,,,,,,,,0,,,66,49
77280,control_change,54,0,1,,,,,,,,,0,64,127,,
77280,note_on,0,0,1,,,,,,,,,0,,,69,49
77280,control_change,54,0,3,,,,,,,,,2,64,127,,
77286,note_on,6,0,1,,,,,,,,,0,,,78,0
77286,note_on,0,0,1,,,,,,,,,0,,,72,0
77286,note_on,0,0,1,,,,,,,,,0,,,66,0
77286,note_on,0,0,1,,,,,,,,,0,,,69,0
77286,note_on,0,0,1,,,,,,,,,0,,,74,0
77340,note_on,0,0,1,,,,,,,,,0,,,74,49
77340,note_on,54,0,1,,,,,,,,,0,,,66,49
77340,note_on,0,0,1,,,,,,,,,0,,,69,49
77346,note_on,0,0,1,,,,,,,,,0,,,66,0
77346,note_on,6,0,1,,,,,,,,,0,,,74,0
77346,note_on,0,0,1,,,,,,,,,0,,,69,0
77400,note_on,54,0,1,,,,,,,,,0,,,67,49
77400,note_on,0,0,1,,,,,,,,,0,,,71,49
77400,note_on,0,0,1,,,,,,,,,0,,,74,49
77406,note_on,6,0,1,,,,,,,,,0,,,74,0
77406,note_on,0,0,1,,,,,,,,,0,,,71,0
77406,note_on,0,0,1,,,,,,,,,0,,,67,0
77460,note_on,0,0,1,,,,,,,,,0,,,74,49
77460,note_on,0,0,1,,,,,,,,,0,,,69,49
77460,control_change,54,0,1,,,,,,,,,0,64,0,,
77460,note_on,0,0,1,,,,,,,,,0,,,72,49
77466,note_on,6,0,1,,,,,,,,,0,,,74,0
77466,note_on,0,0,1,,,,,,,,,0,,,69,0
77466,note_on,0,0,1,,,,,,,,,0,,,72,0
77520,control_change,54,0,1,,,,,,,,,0,64,127,,
77520,note_on,0,0,1,,,,,,,,,0,,,74,49
77520,note_on,0,0,2,,,,,,,,,1,,,71,36
77520,note_on,0,0,2,,,,,,,,,1,,,67,36
77520,control_change,1200,0,2,,,,,,,,,1,64,127,,
77526,note_on,6,0,1,,,,,,,,,0,,,74,0
77580,note_on,0,0,2,,,,,,,,,1,,,71,36
77580,note_on,0,0,2,,,,,,,,,1,,,67,36
77580,note_on,0,0,2,,,,,,,,,1,,,67,0
77580,note_on,60,0,2,,,,,,,,,1,,,71,0
77580,note_on,0,0,3,,,,,,,,,2,,,64,36
77580,note_on,54,0,1,,,,,,,,,0,,,76,49
77580,note_on,300,0,3,,,,,,,,,2,,,62,0
77586,note_on,6,0,3,,,,,,,,,2,,,64,0
77586,note_on,6,0,1,,,,,,,,,0,,,76,0
77640,note_on,54,0,3,,,,,,,,,2,,,66,36
77640,note_on,54,0,1,,,,,,,,,0,,,78,49
77640,note_on,0,0,2,,,,,,,,,1,,,71,36
77640,note_on,60,0,2,,,,,,,,,1,,,71,0
77640,note_on,0,0,2,,,,,,,,,1,,,67,0
77640,note_on,0,0,2,,,,,,,,,1,,,67,36
77646,note_on,6,0,3,,,,,,,,,2,,,66,0
77646,note_on,6,0,1,,,,,,,,,0,,,78,0
77700,note_on,54,0,3,,,,,,,,,2,,,67,36
77700,note_on,0,0,2,,,,,,,,,1,,,71,36
77700,note_on,0,0,2,,,,,,,,,1,,,67,36
77700,control_change,0,0,2,,,,,,,,,1,64,0,,
77700,note_on,0,0,1,,,,,,,,,0,,,79,49
77700,note_on,60,0,2,,,,,,,,,1,,,71,0
77700,control_change,54,0,1,,,,,,,,,0,64,0,,
77700,note_on,0,0,2,,,,,,,,,1,,,67,0
77706,note_on,6,0,1,,,,,,,,,0,,,79,0
77706,note_on,6,0,3,,,,,,,,,2,,,67,0
77760,note_on,60,0,2,,,,,,,,,1,,,71,0
77760,note_on,0,0,2,,,,,,,,,1,,,67,0
77760,control_change,0,0,2,,,,,,,,,1,64,127,,
77760,note_on,0,0,2,,,,,,,,,1,,,67,36
77760,note_on,0,0,2,,,,,,,,,1,,,71,36
77760,control_change,54,0,1,,,,,,,,,0,64,127,,
77760,control_change,54,0,3,,,,,,,,,2,64,127,,
77760,note_on,0,0,3,,,,,,,,,2,,,43,62
77760,note_on,0,0,1,,,,,,,,,0,,,79,88
77764,note_on,4,0,3,,,,,,,,,2,,,43,0
77790,note_on,26,0,3,,,,,,,,,2,,,55,36
77820,note_on,0,0,2,,,,,,,,,1,,,67,36
77820,note_on,0,0,3,,,,,,,,,2,,,59,36
77820,note_on,60,0,1,,,,,,,,,0,,,79,0
77820,note_on,0,0,1,,,,,,,,,0,,,71,62
77820,note_on,60,0,2,,,,,,,,,1,,,71,0
77820,note_on,0,0,2,,,,,,,,,1,,,67,0
77820,note_on,30,0,3,,,,,,,,,2,,,55,0
77850,note_on,30,0,3,,,,,,,,,2,,,59,0
77850,note_on,0,0,3,,,,,,,,,2,,,55,36
77880,note_on,0,0,2,,,,,,,,,1,,,67,36
77880,note_on,60,0,2,,,,,,,,,1,,,67,0
77880,note_on,60,0,1,,,,,,,,,0,,,71,0
77880,note_on,0,0,3,,,,,,,,,2,,,62,36
77880,note_on,0,0,1,,,,,,,,,0,,,71,62
77880,note_on,30,0,3,,,,,,,,,2,,,55,0
77886,note_on,6,0,1,,,,,,,,,0,,,71,0
77910,note_on,30,0,3,,,,,,,,,2,,,62,0
77910,note_on,0,0,3,,,,,,,,,2,,,55,36
77940,note_on,0,0,1,,,,,,,,,0,,,71,62
77940,control_change,54,0,1,,,,,,,,,0,64,0,,
77940,note_on,60,0,2,,,,,,,,,1,,,67,0
77940,control_change,0,0,2,,,,,,,,,1,64,0,,
77940,note_on,0,0,2,,,,,,,,,1,,,67,36
77940,note_on,0,0,3,,,,,,,,,2,,,59,36
77940,note_on,30,0,3,,,,,,,,,2,,,55,0
77946,note_on,6,0,1,,,,,,,,,0,,,71,0
77970,note_on,0,0,3,,,,,,,,,2,,,55,36
77970,control_change,0,0,3,,,,,,,,,2,64,0,,
77970,note_on,30,0,3,,,,,,,,,2,,,59,0
78000,note_on,0,0,2,,,,,,,,,1,,,67,36
78000,note_on,0,0,3,,,,,,,,,2,,,43,62
78000,control_change,0,0,3,,,,,,,,,2,64,127,,
78000,note_on,30,0,3,,,,,,,,,2,,,55,0
78000,note_on,0,0,1,,,,,,,,,0,,,79,88
78000,control_change,54,0,1,,,,,,,,,0,64,127,,
78000,note_on,60,0,2,,,,,,,,,1,,,67,0
78000,control_change,0,0,2,,,,,,,,,1,64,127,,
78000,note_on,0,0,2,,,,,,,,,1,,,70,36
78004,note_on,4,0,3,,,,,,,,,2,,,43,0
78030,note_on,26,0,3,,,,,,,,,2,,,55,36
78060,note_on,0,0,1,,,,,,,,,0,,,73,62
78060,note_on,30,0,3,,,,,,,,,2,,,55,0
78060,note_on,0,0,3,,,,,,,,,2,,,58,36
78060,note_on,0,0,2,,,,,,,,,1,,,70,36
78060,note_on,0,0,2,,,,,,,,,1,,,67,36
78060,note_on,0,0,2,,,,,,,,,1,,,67,0
78060,note_on,60,0,2,,,,,,,,,1,,,70,0
78060,note_on,60,0,1,,,,,,,,,0,,,79,0
78090,note_on,30,0,3,,,,,,,,,2,,,58,0
78090,note_on,0,0,3,,,,,,,,,2,,,55,36
78120,note_on,30,0,3,,,,,,,,,2,,,55,0
78120,note_on,60,0,2,,,,,,,,,1,,,70,0
78120,note_on,0,0,2,,,,,,,,,1,,,67,0
78120,note_on,0,0,1,,,,,,,,,0,,,73,62
78120,note_on,60,0,1,,,,,,,,,0,,,73,0
78120,note_on,0,0,2,,,,,,,,,1,,,70,36
78120,note_on,0,0,3,,,,,,,,,2,,,64,36
78120,note_on,0,0,2,,,,,,,,,1,,,67,36
78126,note_on,6,0,1,,,,,,,,,0,,,73,0
78150,note_on,0,0,3,,,,,,,,,2,,,55,36
78150,note_on,30,0,3,,,,,,,,,2,,,64,0
78180,control_change,54,0,1,,,,,,,,,0,64,0,,
78180,note_on,0,0,1,,,,,,,,,0,,,73,62
78180,note_on,0,0,3,,,,,,,,,2,,,58,36
78180,note_on,0,0,2,,,,,,,,,1,,,70,36
78180,note_on,0,0,2,,,,,,,,,1,,,67,36
78180,control_change,0,0,2,,,,,,,,,1,64,0,,
78180,note_on,0,0,2,,,,,,,,,1,,,67,0
78180,note_on,60,0,2,,,,,,,,,1,,,70,0
78180,note_on,30,0,3,,,,,,,,,2,,,55,0
78186,note_on,6,0,1,,,,,,,,,0,,,73,0
78210,control_change,0,0,3,,,,,,,,,2,64,0,,
78210,note_on,30,0,3,,,,,,,,,2,,,58,0
78210,note_on,0,0,3,,,,,,,,,2,,,55,36
78240,note_on,54,0,1,,,,,,,,,0,,,74,62
78240,note_on,30,0,3,,,,,,,,,2,,,55,0
78240,control_change,0,0,3,,,,,,,,,2,64,127,,
78240,note_on,0,0,2,,,,,,,,,1,,,71,36
78240,note_on,0,0,2,,,,,,,,,1,,,67,36
78240,note_on,0,0,2,,,,,,,,,1,,,67,0
78240,note_on,60,0,2,,,,,,,,,1,,,70,0
78240,note_on,0,0,3,,,,,,,,,2,,,43,36
78244,note_on,4,0,3,,,,,,,,,2,,,43,0
78270,note_on,26,0,3,,,,,,,,,2,,,55,36
78300,note_on,30,0,3,,,,,,,,,2,,,55,0
78300,note_on,0,0,3,,,,,,,,,2,,,59,36
78330,note_on,30,0,3,,,,,,,,,2,,,59,0
78330,note_on,0,0,3,,,,,,,,,2,,,55,36
78360,note_on,0,0,3,,,,,,,,,2,,,62,36
78360,note_on,30,0,3,,,,,,,,,2,,,55,0
78390,note_on,0,0,3,,,,,,,,,2,,,55,36
78390,note_on,30,0,3,,,,,,,,,2,,,62,0
78420,note_on,0,0,3,,,,,,,,,2,,,59,36
78420,note_on,30,0,3,,,,,,,,,2,,,55,0
78450,control_change,0,0,3,,,,,,,,,2,64,0,,
78450,note_on,30,0,3,,,,,,,,,2,,,59,0
78450,note_on,0,0,3,,,,,,,,,2,,,55,36
78480,note_on,0,0,1,,,,,,,,,0,,,76,88
78480,control_change,0,0,1,,,,,,,,,0,64,127,,
78480,note_on,240,0,1,,,,,,,,,0,,,74,0
78480,note_on,0,0,2,,,,,,,,,1,,,71,36
78480,note_on,0,0,2,,,,,,,,,1,,,67,36
78480,control_change,0,0,2,,,,,,,,,1,64,127,,
78480,note_on,30,0,3,,,,,,,,,2,,,55,0
78480,note_on,240,0,2,,,,,,,,,1,,,71,0
78480,note_on,0,0,3,,,,,,,,,2,,,64,62
78480,control_change,0,0,3,,,,,,,,,2,64,127,,
78480,note_on,0,0,2,,,,,,,,,1,,,67,0
78486,note_on,6,0,1,,,,,,,,,0,,,76,0
78486,note_on,6,0,3,,,,,,,,,2,,,64,0
78540,note_on,54,0,3,,,,,,,,,2,,,62,36
78540,note_on,54,0,1,,,,,,,,,0,,,74,62
78540,note_on,0,0,2,,,,,,,,,1,,,67,0
78540,note_on,0,0,2,,,,,,,,,1,,,71,36
78540,note_on,60,0,2,,,,,,,,,1,,,71,0
78540,note_on,0,0,2,,,,,,,,,1,,,67,36
78546,note_on,6,0,3,,,,,,,,,2,,,62,0
78546,note_on,6,0,1,,,,,,,,,0,,,74,0
78600,note_on,0,0,2,,,,,,,,,1,,,67,36
78600,note_on,0,0,2,,,,,,,,,1,,,67,0
78600,note_on,60,0,2,,,,,,,,,1,,,71,0
78600,note_on,54,0,3,,,,,,,,,2,,,59,36
78600,note_on,54,0,1,,,,,,,,,0,,,71,62
78600,control_change,0,0,2,,,,,,,,,1,64,0,,
78606,note_on,6,0,3,,,,,,,,,2,,,59,0
78606,note_on,6,0,1,,,,,,,,,0,,,71,0
78660,control_change,54,0,1,,,,,,,,,0,64,0,,
78660,note_on,0,0,1,,,,,,,,,0,,,67,62
78660,note_on,60,0,2,,,,,,,,,1,,,67,0
78660,note_on,0,0,3,,,,,,,,,2,,,55,36
78660,control_change,54,0,3,,,,,,,,,2,64,0,,
78666,note_on,6,0,1,,,,,,,,,0,,,67,0
78666,note_on,6,0,3,,,,,,,,,2,,,55,0
78720,control_change,54,0,3,,,,,,,,,2,64,127,,
78720,note_on,0,0,3,,,,,,,,,2,,,38,62
78720,note_on,0,0,1,,,,,,,,,0,,,67,80
78720,note_on,0,0,2,,,,,,,,,1,,,62,36
78720,control_change,60,0,2,,,,,,,,,1,64,127,,
78720,control_change,54,0,1,,,,,,,,,0,64,127,,
78720,note_on,0,0,1,,,,,,,,,0,,,71,88
78724,note_on,4,0,3,,,,,,,,,2,,,38,0
78750,note_on,26,0,3,,,,,,,,,2,,,50,36
78780,note_on,0,0,2,,,,,,,,,1,,,62,36
78780,note_on,60,0,2,,,,,,,,,1,,,62,0
78780,note_on,0,0,3,,,,,,,,,2,,,54,36
78780,note_on,30,0,3,,,,,,,,,2,,,50,0
78780,note_on,0,0,2,,,,,,,,,1,,,66,36
78780,note_on,0,0,1,,,,,,,,,0,,,69,62
78780,note_on,60,0,1,,,,,,,,,0,,,71,0
78780,note_on,0,0,1,,,,,,,,,0,,,67,0
78810,note_on,0,0,3,,,,,,,,,2,,,50,36
78810,note_on,30,0,3,,,,,,,,,2,,,54,0
78840,note_on,0,0,1,,,,,,,,,0,,,69,62
78840,note_on,0,0,2,,,,,,,,,1,,,66,36
78840,note_on,0,0,2,,,,,,,,,1,,,62,36
78840,note_on,0,0,2,,,,,,,,,1,,,62,0
78840,note_on,60,0,2,,,,,,,,,1,,,66,0
78840,note_on,60,0,1,,,,,,,,,0,,,69,0
78840,note_on,0,0,3,,,,,,,,,2,,,57,36
78840,note_on,30,0,3,,,,,,,,,2,,,50,0
78846,note_on,6,0,1,,,,,,,,,0,,,69,0
78870,note_on,0,0,3,,,,,,,,,2,,,50,36
78870,note_on,30,0,3,,,,,,,,,2,,,57,0
78900,control_change,0,0,2,,,,,,,,,1,64,0,,
78900,note_on,30,0,3,,,,,,,,,2,,,50,0
78900,control_change,54,0,1,,,,,,,,,0,64,0,,
78900,note_on,0,0,1,,,,,,,,,0,,,69,62
78900,note_on,0,0,3,,,,,,,,,2,,,54,36
78900,note_on,60,0,2,,,,,,,,,1,,,66,0
78900,note_on,0,0,2,,,,,,,,,1,,,66,36
78900,note_on,0,0,2,,,,,,,,,1,,,62,36
78900,note_on,0,0,2,,,,,,,,,1,,,62,0
78906,note_on,6,0,1,,,,,,,,,0,,,69,0
78930,note_on,30,0,3,,,,,,,,,2,,,54,0
78930,control_change,0,0,3,,,,,,,,,2,64,0,,
78930,note_on,0,0,3,,,,,,,,,2,,,50,36
78960,control_change,54,0,1,,,,,,,,,0,64,127,,
78960,note_on,0,0,1,,,,,,,,,0,,,76,62
78960,note_on,30,0,3,,,,,,,,,2,,,50,0
78960,note_on,0,0,2,,,,,,,,,1,,,62,0
78960,note_on,0,0,3,,,,,,,,,2,,,45,36
78960,control_change,0,0,2,,,,,,,,,1,64,127,,
78960,note_on,60,0,2,,,,,,,,,1,,,66,0
78960,note_on,0,0,2,,,,,,,,,1,,,70,36
78960,note_on,0,0,2,,,,,,,,,1,,,67,36
78960,control_change,0,0,3,,,,,,,,,2,64,127,,
78964,note_on,4,0,3,,,,,,,,,2,,,45,0
78990,note_on,26,0,3,,,,,,,,,2,,,52,36
79020,note_on,60,0,2,,,,,,,,,1,,,70,0
79020,note_on,60,0,1,,,,,,,,,0,,,76,0
79020,note_on,0,0,2,,,,,,,,,1,,,67,36
79020,note_on,0,0,2,,,,,,,,,1,,,69,36
79020,note_on,0,0,3,,,,,,,,,2,,,55,36
79020,note_on,30,0,3,,,,,,,,,2,,,52,0
79020,note_on,0,0,2,,,,,,,,,1,,,67,0
79020,note_on,0,0,1,,,,,,,,,0,,,73,62
79050,note_on,0,0,3,,,,,,,,,2,,,52,36
79050,note_on,30,0,3,,,,,,,,,2,,,55,0
79080,note_on,0,0,1,,,,,,,,,0,,,73,62
79080,note_on,0,0,3,,,,,,,,,2,,,57,36
79080,note_on,30,0,3,,,,,,,,,2,,,52,0
79080,note_on,60,0,2,,,,,,,,,1,,,69,0
79080,note_on,60,0,1,,,,,,,,,0,,,73,0
79080,note_on,0,0,2,,,,,,,,,1,,,67,36
79080,note_on,0,0,2,,,,,,,,,1,,,69,36
79080,note_on,0,0,2,,,,,,,,,1,,,67,0
79086,note_on,6,0,1,,,,,,,,,0,,,73,0
79110,note_on,30,0,3,,,,,,,,,2,,,57,0
79110,note_on,0,0,3,,,,,,,,,2,,,52,36
79140,note_on,0,0,2,,,,,,,,,1,,,69,36
79140,note_on,0,0,2,,,,,,,,,1,,,67,36
79140,control_change,0,0,2,,,,,,,,,1,64,0,,
79140,note_on,0,0,2,,,,,,,,,1,,,67,0
79140,note_on,60,0,2,,,,,,,,,1,,,69,0
79140,note_on,0,0,3,,,,,,,,,2,,,55,36
79140,note_on,30,0,3,,,,,,,,,2,,,52,0
79140,note_on,0,0,1,,,,,,,,,0,,,73,62
79140,control_change,54,0,1,,,,,,,,,0,64,0,,
79146,note_on,6,0,1,,,,,,,,,0,,,73,0
79170,note_on,0,0,3,,,,,,,,,2,,,52,36
79170,note_on,30,0,3,,,,,,,,,2,,,55,0
79170,control_change,0,0,3,,,,,,,,,2,64,0,,
79200,note_on,30,0,3,,,,,,,,,2,,,52,0
79200,control_change,0,0,3,,,,,,,,,2,64,127,,
79200,note_on,0,0,3,,,,,,,,,2,,,38,36
79200,note_on,60,0,2,,,,,,,,,1,,,69,0
79200,note_on,54,0,1,,,,,,,,,0,,,74,62
79200,note_on,0,0,2,,,,,,,,,1,,,69,36
79200,note_on,0,0,2,,,,,,,,,1,,,66,36
79200,note_on,0,0,2,,,,,,,,,1,,,67,0
79204,note_on,4,0,3,,,,,,,,,2,,,38,0
79230,note_on,26,0,3,,,,,,,,,2,,,50,36
79260,note_on,0,0,3,,,,,,,,,2,,,54,36
79260,note_on,30,0,3,,,,,,,,,2,,,50,0
79290,note_on,0,0,3,,,,,,,,,2,,,50,36
79290,note_on,30,0,3,,,,,,,,,2,,,54,0
79320,note_on,30,0,3,,,,,,,,,2,,,50,0
79320,note_on,0,0,3,,,,,,,,,2,,,57,36
79350,note_on,30,0,3,,,,,,,,,2,,,57,0
79350,note_on,0,0,3,,,,,,,,,2,,,50,36
79380,note_on,30,0,3,,,,,,,,,2,,,50,0
79380,note_on,0,0,3,,,,,,,,,2,,,61,36
79410,note_on,0,0,3,,,,,,,,,2,,,50,36
79410,note_on,30,0,3,,,,,,,,,2,,,61,0
79440,note_on,240,0,2,,,,,,,,,1,,,69,0
79440,note_on,0,0,2,,,,,,,,,1,,,66,0
79440,control_change,0,0,2,,,,,,,,,1,64,127,,
79440,note_on,0,0,2,,,,,,,,,1,,,65,36
79440,note_on,0,0,2,,,,,,,,,1,,,69,36
79440,note_on,240,0,1,,,,,,,,,0,,,74,0
79440,control_change,0,0,1,,,,,,,,,0,64,127,,
79440,note_on,0,0,1,,,,,,,,,0,,,74,62
79440,note_on,30,0,3,,,,,,,,,2,,,50,0
79440,control_change,0,0,3,,,,,,,,,2,64,127,,
79440,note_on,0,0,3,,,,,,,,,2,,,62,36
79446,note_on,6,0,1,,,,,,,,,0,,,74,0
79446,note_on,6,0,3,,,,,,,,,2,,,62,0
79500,note_on,54,0,1,,,,,,,,,0,,,74,62
79500,note_on,0,0,2,,,,,,,,,1,,,65,0
79500,note_on,54,0,3,,,,,,,,,2,,,62,36
79500,note_on,0,0,2,,,,,,,,,1,,,69,36
79500,note_on,0,0,2,,,,,,,,,1,,,65,36
79500,note_on,60,0,2,,,,,,,,,1,,,69,0
79506,note_on,6,0,1,,,,,,,,,0,,,74,0
79506,note_on,6,0,3,,,,,,,,,2,,,62,0
79560,note_on,0,0,2,,,,,,,,,1,,,65,0
79560,note_on,0,0,2,,,,,,,,,1,,,65,36
79560,note_on,0,0,2,,,,,,,,,1,,,69,36
79560,note_on,54,0,3,,,,,,,,,2,,,64,36
79560,note_on,54,0,1,,,,,,,,,0,,,76,75
79560,note_on,60,0,2,,,,,,,,,1,,,69,0
79566,note_on,6,0,1,,,,,,,,,0,,,76,0
79566,note_on,6,0,3,,,,,,,,,2,,,64,0
79620,note_on,0,0,2,,,,,,,,,1,,,65,0
79620,control_change,0,0,2,,,,,,,,,1,64,0,,
79620,note_on,0,0,2,,,,,,,,,1,,,65,36
79620,note_on,0,0,2,,,,,,,,,1,,,69,36
79620,note_on,60,0,2,,,,,,,,,1,,,69,0
79620,note_on,0,0,1,,,,,,,,,0,,,77,75
79620,control_change,54,0,3,,,,,,,,,2,64,0,,
79620,note_on,0,0,3,,,,,,,,,2,,,65,36
79620,control_change,54,0,1,,,,,,,,,0,64,0,,
79626,note_on,6,0,1,,,,,,,,,0,,,77,0
79626,note_on,6,0,3,,,,,,,,,2,,,65,0
79680,control_change,54,0,1,,,,,,,,,0,64,127,,
79680,note_on,0,0,1,,,,,,,,,0,,,77,75
79680,note_on,0,0,2,,,,,,,,,1,,,68,36
79680,note_on,0,0,2,,,,,,,,,1,,,64,36
79680,control_change,0,0,2,,,,,,,,,1,64,127,,
79680,note_on,0,0,2,,,,,,,,,1,,,65,0
79680,note_on,60,0,2,,,,,,,,,1,,,69,0
79680,control_change,54,0,3,,,,,,,,,2,64,127,,
79680,note_on,0,0,3,,,,,,,,,2,,,40,36
79684,note_on,4,0,3,,,,,,,,,2,,,40,0
79710,note_on,26,0,3,,,,,,,,,2,,,52,36
79740,note_on,30,0,3,,,,,,,,,2,,,52,0
79740,note_on,0,0,3,,,,,,,,,2,,,56,36
79740,note_on,0,0,2,,,,,,,,,1,,,68,36
79740,note_on,0,0,1,,,,,,,,,0,,,71,75
79740,note_on,60,0,1,,,,,,,,,0,,,77,0
79740,note_on,60,0,2,,,,,,,,,1,,,68,0
79740,note_on,0,0,2,,,,,,,,,1,,,64,0
79740,note_on,0,0,2,,,,,,,,,1,,,64,36
79770,note_on,30,0,3,,,,,,,,,2,,,56,0
79770,note_on,0,0,3,,,,,,,,,2,,,52,36
79800,note_on,30,0,3,,,,,,,,,2,,,52,0
79800,note_on,0,0,3,,,,,,,,,2,,,62,36
79800,note_on,0,0,2,,,,,,,,,1,,,64,0
79800,note_on,60,0,2,,,,,,,,,1,,,68,0
79800,note_on,60,0,1,,,,,,,,,0,,,71,0
79800,note_on,0,0,1,,,,,,,,,0,,,71,75
79800,note_on,0,0,2,,,,,,,,,1,,,68,36
79800,note_on,0,0,2,,,,,,,,,1,,,64,36
79806,note_on,6,0,1,,,,,,,,,0,,,71,0
79830,note_on,0,0,3,,,,,,,,,2,,,52,36
79830,note_on,30,0,3,,,,,,,,,2,,,62,0
79860,note_on,60,0,2,,,,,,,,,1,,,68,0
79860,note_on,0,0,2,,,,,,,,,1,,,64,0
79860,control_change,0,0,2,,,,,,,,,1,64,0,,
79860,note_on,0,0,3,,,,,,,,,2,,,56,36
79860,note_on,30,0,3,,,,,,,,,2,,,52,0
79860,note_on,0,0,2,,,,,,,,,1,,,68,36
79860,note_on,0,0,2,,,,,,,,,1,,,64,36
79860,control_change,54,0,1,,,,,,,,,0,64,0,,
79860,note_on,0,0,1,,,,,,,,,0,,,71,75
79866,note_on,6,0,1,,,,,,,,,0,,,71,0
79890,note_on,0,0,3,,,,,,,,,2,,,52,36
79890,control_change,0,0,3,,,,,,,,,2,64,0,,
79890,note_on,30,0,3,,,,,,,,,2,,,56,0
79920,note_on,0,0,3,,,,,,,,,2,,,45,36
79920,control_change,54,0,1,,,,,,,,,0,64,127,,
79920,note_on,30,0,3,,,,,,,,,2,,,52,0
79920,note_on,0,0,2,,,,,,,,,1,,,64,36
79920,control_change,0,0,2,,,,,,,,,1,64,127,,
79920,note_on,0,0,2,,,,,,,,,1,,,69,36
79920,note_on,60,0,2,,,,,,,,,1,,,68,0
79920,note_on,0,0,2,,,,,,,,,1,,,64,0
79920,note_on,0,0,1,,,,,,,,,0,,,72,75
79920,control_change,0,0,3,,,,,,,,,2,64,127,,
79924,note_on,4,0,3,,,,,,,,,2,,,45,0
79926,note_on,6,0,1,,,,,,,,,0,,,72,0
79950,note_on,26,0,3,,,,,,,,,2,,,52,36
79980,note_on,0,0,2,,,,,,,,,1,,,64,36
79980,note_on,0,0,2,,,,,,,,,1,,,64,0
79980,note_on,60,0,2,,,,,,,,,1,,,69,0
79980,note_on,30,0,3,,,,,,,,,2,,,52,0
79980,note_on,0,0,3,,,,,,,,,2,,,57,36
79980,note_on,0,0,2,,,,,,,,,1,,,69,36
79980,note_on,54,0,1,,,,,,,,,0,,,72,75
79986,note_on,6,0,1,,,,,,,,,0,,,72,0
80010,note_on,30,0,3,,,,,,,,,2,,,57,0
80010,note_on,0,0,3,,,,,,,,,2,,,52,36
80040,note_on,0,0,2,,,,,,,,,1,,,64,0
80040,note_on,0,0,2,,,,,,,,,1,,,64,36
80040,note_on,0,0,2,,,,,,,,,1,,,69,36
80040,note_on,54,0,1,,,,,,,,,0,,,74,75
80040,note_on,30,0,3,,,,,,,,,2,,,52,0
80040,note_on,0,0,3,,,,,,,,,2,,,60,36
80040,note_on,60,0,2,,,,,,,,,1,,,69,0
80046,note_on,6,0,1,,,,,,,,,0,,,74,0
80070,note_on,0,0,3,,,,,,,,,2,,,52,36
80070,note_on,30,0,3,,,,,,,,,2,,,60,0
80100,note_on,60,0,2,,,,,,,,,1,,,69,0
80100,note_on,0,0,2,,,,,,,,,1,,,64,0
80100,control_change,54,0,1,,,,,,,,,0,64,0,,
80100,note_on,0,0,1,,,,,,,,,0,,,76,75
80100,note_on,0,0,3,,,,,,,,,2,,,59,36
80100,note_on,30,0,3,,,,,,,,,2,,,52,0
80100,control_change,0,0,2,,,,,,,,,1,64,0,,
80100,note_on,0,0,2,,,,,,,,,1,,,64,36
80100,note_on,0,0,2,,,,,,,,,1,,,67,36
80106,note_on,6,0,1,,,,,,,,,0,,,76,0
80130,note_on,0,0,3,,,,,,,,,2,,,52,36
80130,control_change,0,0,3,,,,,,,,,2,64,0,,
80130,note_on,30,0,3,,,,,,,,,2,,,59,0
80160,note_on,0,0,2,,,,,,,,,1,,,64,0
80160,control_change,54,0,1,,,,,,,,,0,64,127,,
80160,note_on,0,0,1,,,,,,,,,0,,,76,75
80160,note_on,30,0,3,,,,,,,,,2,,,52,0
80160,note_on,0,0,2,,,,,,,,,1,,,66,36
80160,control_change,0,0,2,,,,,,,,,1,64,127,,
80160,note_on,0,0,2,,,,,,,,,1,,,62,36
80160,control_change,0,0,3,,,,,,,,,2,64,127,,
80160,note_on,0,0,3,,,,,,,,,2,,,38,36
80160,note_on,60,0,2,,,,,,,,,1,,,67,0
80164,note_on,4,0,3,,,,,,,,,2,,,38,0
80190,note_on,26,0,3,,,,,,,,,2,,,50,36
80220,note_on,0,0,1,,,,,,,,,0,,,69,75
80220,note_on,30,0,3,,,,,,,,,2,,,50,0
80220,note_on,0,0,3,,,,,,,,,2,,,57,36
80220,note_on,60,0,1,,,,,,,,,0,,,76,0
80220,note_on,0,0,2,,,,,,,,,1,,,66,36
80220,note_on,0,0,2,,,,,,,,,1,,,62,36
80220,note_on,0,0,2,,,,,,,,,1,,,62,0
80220,note_on,60,0,2,,,,,,,,,1,,,66,0
80250,note_on,30,0,3,,,,,,,,,2,,,57,0
80250,note_on,0,0,3,,,,,,,,,2,,,50,36
80280,note_on,0,0,2,,,,,,,,,1,,,62,0
80280,note_on,60,0,2,,,,,,,,,1,,,66,0
80280,note_on,0,0,1,,,,,,,,,0,,,69,75
80280,note_on,60,0,1,,,,,,,,,0,,,69,0
80280,note_on,0,0,2,,,,,,,,,1,,,66,36
80280,note_on,30,0,3,,,,,,,,,2,,,50,0
80280,note_on,0,0,3,,,,,,,,,2,,,60,36
80280,note_on,0,0,2,,,,,,,,,1,,,62,36
80286,note_on,6,0,1,,,,,,,,,0,,,69,0
80310,note_on,30,0,3,,,,,,,,,2,,,60,0
80310,note_on,0,0,3,,,,,,,,,2,,,50,36
80340,note_on,30,0,3,,,,,,,,,2,,,50,0
80340,note_on,0,0,3,,,,,,,,,2,,,54,36
80340,note_on,60,0,2,,,,,,,,,1,,,66,0
80340,note_on,0,0,2,,,,,,,,,1,,,62,0
80340,control_change,0,0,2,,,,,,,,,1,64,0,,
80340,note_on,0,0,2,,,,,,,,,1,,,62,36
80340,note_on,0,0,2,,,,,,,,,1,,,66,36
80340,note_on,0,0,1,,,,,,,,,0,,,69,75
80340,control_change,54,0,1,,,,,,,,,0,64,0,,
80346,note_on,6,0,1,,,,,,,,,0,,,69,0
80370,note_on,0,0,3,,,,,,,,,2,,,50,36
80370,note_on,30,0,3,,,,,,,,,2,,,54,0
80370,control_change,0,0,3,,,,,,,,,2,64,0,,
80400,note_on,60,0,2,,,,,,,,,1,,,66,0
80400,note_on,30,0,3,,,,,,,,,2,,,50,0
80400,note_on,0,0,2,,,,,,,,,1,,,62,0
80400,control_change,0,0,2,,,,,,,,,1,64,127,,
80400,note_on,0,0,2,,,,,,,,,1,,,62,36
80400,control_change,54,0,1,,,,,,,,,0,64,127,,
80400,note_on,0,0,1,,,,,,,,,0,,,71,75
80400,note_on,0,0,3,,,,,,,,,2,,,55,36
80400,note_on,0,0,2,,,,,,,,,1,,,67,36
80400,control_change,0,0,3,,,,,,,,,2,64,127,,
80406,note_on,6,0,1,,,,,,,,,0,,,71,0
80430,note_on,0,0,3,,,,,,,,,2,,,50,36
80430,note_on,30,0,3,,,,,,,,,2,,,55,0
80460,note_on,0,0,2,,,,,,,,,1,,,62,0
80460,note_on,0,0,3,,,,,,,,,2,,,60,36
80460,note_on,60,0,2,,,,,,,,,1,,,67,0
80460,note_on,0,0,2,,,,,,,,,1,,,67,36
80460,note_on,0,0,2,,,,,,,,,1,,,62,36
80460,note_on,54,0,1,,,,,,,,,0,,,76,88
80460,note_on,30,0,3,,,,,,,,,2,,,50,0
80466,note_on,6,0,1,,,,,,,,,0,,,76,0
80490,note_on,30,0,3,,,,,,,,,2,,,60,0
80490,note_on,0,0,3,,,,,,,,,2,,,50,36
80520,note_on,0,0,2,,,,,,,,,1,,,62,36
80520,note_on,30,0,3,,,,,,,,,2,,,50,0
80520,note_on,0,0,2,,,,,,,,,1,,,67,36
80520,note_on,0,0,2,,,,,,,,,1,,,62,0
80520,note_on,60,0,2,,,,,,,,,1,,,67,0
80520,note_on,0,0,3,,,,,,,,,2,,,59,36
80520,note_on,54,0,1,,,,,,,,,0,,,74,88
80526,note_on,6,0,1,,,,,,,,,0,,,74,0
80550,note_on,30,0,3,,,,,,,,,2,,,59,0
80550,note_on,0,0,3,,,,,,,,,2,,,50,36
80580,control_change,54,0,1,,,,,,,,,0,64,0,,
80580,note_on,30,0,3,,,,,,,,,2,,,50,0
80580,note_on,0,0,3,,,,,,,,,2,,,55,36
80580,note_on,0,0,1,,,,,,,,,0,,,71,75
80580,note_on,60,0,2,,,,,,,,,1,,,67,0
80580,note_on,0,0,2,,,,,,,,,1,,,62,0
80580,control_change,0,0,2,,,,,,,,,1,64,0,,
80580,note_on,0,0,2,,,,,,,,,1,,,67,36
80580,note_on,0,0,2,,,,,,,,,1,,,62,36
80586,note_on,6,0,1,,,,,,,,,0,,,71,0
80610,control_change,0,0,3,,,,,,,,,2,64,0,,
80610,note_on,0,0,3,,,,,,,,,2,,,50,36
80610,note_on,30,0,3,,,,,,,,,2,,,55,0
80640,note_on,30,0,3,,,,,,,,,2,,,50,0
80640,note_on,0,0,3,,,,,,,,,2,,,38,36
80640,control_change,0,0,3,,,,,,,,,2,64,127,,
80640,note_on,0,0,1,,,,,,,,,0,,,76,62
80640,note_on,0,0,2,,,,,,,,,1,,,66,36
80640,note_on,0,0,2,,,,,,,,,1,,,62,36
80640,control_change,0,0,2,,,,,,,,,1,64,127,,
80640,note_on,0,0,2,,,,,,,,,1,,,62,0
80640,note_on,60,0,2,,,,,,,,,1,,,67,0
80640,control_change,54,0,1,,,,,,,,,0,64,127,,
80644,note_on,4,0,3,,,,,,,,,2,,,38,0
80670,note_on,26,0,3,,,,,,,,,2,,,50,36
80700,note_on,60,0,1,,,,,,,,,0,,,76,0
80700,note_on,30,0,3,,,,,,,,,2,,,50,0
80700,note_on,0,0,2,,,,,,,,,1,,,66,36
80700,note_on,0,0,2,,,,,,,,,1,,,62,36
80700,note_on,0,0,2,,,,,,,,,1,,,62,0
80700,note_on,60,0,2,,,,,,,,,1,,,66,0
80700,note_on,0,0,3,,,,,,,,,2,,,54,36
80700,note_on,0,0,1,,,,,,,,,0,,,69,62
80730,note_on,0,0,3,,,,,,,,,2,,,50,36
80730,note_on,30,0,3,,,,,,,,,2,,,54,0
80760,note_on,0,0,3,,,,,,,,,2,,,60,36
80760,note_on,30,0,3,,,,,,,,,2,,,50,0
80760,note_on,0,0,2,,,,,,,,,1,,,66,36
80760,note_on,0,0,2,,,,,,,,,1,,,62,36
80760,note_on,0,0,2,,,,,,,,,1,,,62,0
80760,note_on,60,0,2,,,,,,,,,1,,,66,0
80760,note_on,0,0,1,,,,,,,,,0,,,69,62
80760,note_on,60,0,1,,,,,,,,,0,,,69,0
80766,note_on,6,0,1,,,,,,,,,0,,,69,0
80790,note_on,30,0,3,,,,,,,,,2,,,60,0
80790,note_on,0,0,3,,,,,,,,,2,,,50,36
80820,note_on,0,0,1,,,,,,,,,0,,,69,62
80820,note_on,0,0,3,,,,,,,,,2,,,54,36
80820,note_on,30,0,3,,,,,,,,,2,,,50,0
80820,note_on,60,0,2,,,,,,,,,1,,,66,0
80820,note_on,0,0,2,,,,,,,,,1,,,62,0
80820,control_change,0,0,2,,,,,,,,,1,64,0,,
80820,control_change,54,0,1,,,,,,,,,0,64,0,,
80820,note_on,0,0,2,,,,,,,,,1,,,66,36
80820,note_on,0,0,2,,,,,,,,,1,,,62,36
80826,note_on,6,0,1,,,,,,,,,0,,,69,0
80850,note_on,30,0,3,,,,,,,,,2,,,54,0
80850,control_change,0,0,3,,,,,,,,,2,64,0,,
80850,note_on,0,0,3,,,,,,,,,2,,,50,36
80880,note_on,0,0,2,,,,,,,,,1,,,62,0
80880,note_on,60,0,2,,,,,,,,,1,,,66,0
80880,control_change,0,0,2,,,,,,,,,1,64,127,,
80880,note_on,30,0,3,,,,,,,,,2,,,50,0
80880,note_on,0,0,2,,,,,,,,,1,,,62,36
80880,control_change,54,0,1,,,,,,,,,0,64,127,,
80880,note_on,0,0,1,,,,,,,,,0,,,71,62
80880,control_change,0,0,3,,,,,,,,,2,64,127,,
80880,note_on,0,0,2,,,,,,,,,1,,,67,36
80880,note_on,0,0,3,,,,,,,,,2,,,55,36
80886,note_on,6,0,1,,,,,,,,,0,,,71,0
80910,note_on,30,0,3,,,,,,,,,2,,,55,0
80910,note_on,0,0,3,,,,,,,,,2,,,50,36
80940,note_on,30,0,3,,,,,,,,,2,,,50,0
80940,note_on,0,0,3,,,,,,,,,2,,,60,36
80940,note_on,54,0,1,,,,,,,,,0,,,76,88
80940,note_on,60,0,2,,,,,,,,,1,,,67,0
80940,note_on,0,0,2,,,,,,,,,1,,,62,0
80940,note_on,0,0,2,,,,,,,,,1,,,62,36
80940,note_on,0,0,2,,,,,,,,,1,,,67,36
80946,note_on,6,0,1,,,,,,,,,0,,,76,0
80970,note_on,30,0,3,,,,,,,,,2,,,60,0
80970,note_on,0,0,3,,,,,,,,,2,,,50,36
81000,note_on,60,0,2,,,,,,,,,1,,,67,0
81000,note_on,0,0,2,,,,,,,,,1,,,67,36
81000,note_on,0,0,3,,,,,,,,,2,,,59,36
81000,note_on,0,0,2,,,,,,,,,1,,,62,36
81000,note_on,0,0,2,,,,,,,,,1,,,62,0
81000,note_on,54,0,1,,,,,,,,,0,,,74,88
81000,note_on,30,0,3,,,,,,,,,2,,,50,0
81006,note_on,6,0,1,,,,,,,,,0,,,74,0
81030,note_on,30,0,3,,,,,,,,,2,,,59,0
81030,note_on,0,0,3,,,,,,,,,2,,,50,36
81060,note_on,0,0,2,,,,,,,,,1,,,67,36
81060,note_on,0,0,2,,,,,,,,,1,,,62,36
81060,control_change,0,0,2,,,,,,,,,1,64,0,,
81060,note_on,60,0,2,,,,,,,,,1,,,67,0
81060,note_on,0,0,2,,,,,,,,,1,,,62,0
81060,control_change,54,0,1,,,,,,,,,0,64,0,,
81060,note_on,0,0,3,,,,,,,,,2,,,55,36
81060,note_on,30,0,3,,,,,,,,,2,,,50,0
81060,note_on,0,0,1,,,,,,,,,0,,,71,75
81066,note_on,6,0,1,,,,,,,,,0,,,71,0
81090,control_change,0,0,3,,,,,,,,,2,64,0,,
81090,note_on,30,0,3,,,,,,,,,2,,,55,0
81090,note_on,0,0,3,,,,,,,,,2,,,50,36
81120,control_change,0,0,3,,,,,,,,,2,64,127,,
81120,note_on,0,0,3,,,,,,,,,2,,,38,36
81120,note_on,60,0,2,,,,,,,,,1,,,67,0
81120,note_on,0,0,2,,,,,,,,,1,,,62,0
81120,note_on,0,0,2,,,,,,,,,1,,,62,36
81120,note_on,30,0,3,,,,,,,,,2,,,50,0
81120,control_change,54,0,1,,,,,,,,,0,64,127,,
81120,note_on,0,0,1,,,,,,,,,0,,,74,75
81120,note_on,0,0,2,,,,,,,,,1,,,66,36
81120,control_change,0,0,2,,,,,,,,,1,64,127,,
81124,note_on,4,0,3,,,,,,,,,2,,,38,0
81126,note_on,6,0,1,,,,,,,,,0,,,74,0
81150,note_on,26,0,3,,,,,,,,,2,,,50,36
81180,note_on,60,0,2,,,,,,,,,1,,,66,0
81180,note_on,0,0,2,,,,,,,,,1,,,62,0
81180,note_on,0,0,2,,,,,,,,,1,,,62,36
81180,note_on,0,0,3,,,,,,,,,2,,,54,36
81180,note_on,30,0,3,,,,,,,,,2,,,50,0
81180,note_on,54,0,1,,,,,,,,,0,,,69,75
81180,note_on,0,0,2,,,,,,,,,1,,,66,36
81186,note_on,6,0,1,,,,,,,,,0,,,69,0
81210,note_on,30,0,3,,,,,,,,,2,,,54,0
81210,note_on,0,0,3,,,,,,,,,2,,,50,36
81240,note_on,30,0,3,,,,,,,,,2,,,50,0
81240,note_on,0,0,3,,,,,,,,,2,,,57,36
81240,note_on,0,0,2,,,,,,,,,1,,,69,36
81240,note_on,0,0,2,,,,,,,,,1,,,66,36
81240,note_on,0,0,2,,,,,,,,,1,,,62,0
81240,note_on,60,0,2,,,,,,,,,1,,,66,0
81240,note_on,54,0,1,,,,,,,,,0,,,74,75
81246,note_on,6,0,1,,,,,,,,,0,,,74,0
81270,note_on,0,0,3,,,,,,,,,2,,,50,36
81270,note_on,30,0,3,,,,,,,,,2,,,57,0
81300,note_on,0,0,2,,,,,,,,,1,,,70,36
81300,note_on,0,0,3,,,,,,,,,2,,,60,36
81300,note_on,30,0,3,,,,,,,,,2,,,50,0
81300,note_on,60,0,2,,,,,,,,,1,,,69,0
81300,note_on,0,0,2,,,,,,,,,1,,,66,0
81300,control_change,0,0,2,,,,,,,,,1,64,0,,
81300,note_on,0,0,2,,,,,,,,,1,,,66,36
81300,note_on,0,0,1,,,,,,,,,0,,,74,75
81300,control_change,54,0,1,,,,,,,,,0,64,0,,
81306,note_on,6,0,1,,,,,,,,,0,,,74,0
81330,note_on,30,0,3,,,,,,,,,2,,,60,0
81330,control_change,0,0,3,,,,,,,,,2,64,0,,
81330,note_on,0,0,3,,,,,,,,,2,,,50,36
81360,note_on,0,0,2,,,,,,,,,1,,,66,0
81360,note_on,0,0,2,,,,,,,,,1,,,71,36
81360,note_on,0,0,2,,,,,,,,,1,,,67,36
81360,note_on,0,0,1,,,,,,,,,0,,,74,75
81360,control_change,54,0,1,,,,,,,,,0,64,127,,
81360,control_change,0,0,2,,,,,,,,,1,64,127,,
81360,note_on,0,0,3,,,,,,,,,2,,,59,36
81360,note_on,0,0,3,,,,,,,,,2,,,55,36
81360,note_on,30,0,3,,,,,,,,,2,,,50,0
81360,note_on,60,0,2,,,,,,,,,1,,,70,0
81366,note_on,6,0,1,,,,,,,,,0,,,74,0
81420,note_on,60,0,2,,,,,,,,,1,,,71,0
81420,note_on,0,0,2,,,,,,,,,1,,,67,0
81420,note_on,0,0,2,,,,,,,,,1,,,67,36
81420,note_on,54,0,1,,,,,,,,,0,,,76,75
81420,note_on,0,0,3,,,,,,,,,2,,,55,0
81420,note_on,60,0,3,,,,,,,,,2,,,59,0
81420,note_on,0,0,2,,,,,,,,,1,,,71,36
81426,note_on,6,0,1,,,,,,,,,0,,,76,0
81480,note_on,60,0,2,,,,,,,,,1,,,71,0
81480,note_on,0,0,2,,,,,,,,,1,,,67,36
81480,note_on,0,0,2,,,,,,,,,1,,,71,36
81480,note_on,54,0,1,,,,,,,,,0,,,78,75
81480,note_on,0,0,2,,,,,,,,,1,,,67,0
81486,note_on,6,0,1,,,,,,,,,0,,,78,0
81540,note_on,60,0,2,,,,,,,,,1,,,71,0
81540,note_on,0,0,2,,,,,,,,,1,,,67,0
81540,control_change,0,0,2,,,,,,,,,1,64,0,,
81540,note_on,0,0,2,,,,,,,,,1,,,67,36
81540,note_on,0,0,2,,,,,,,,,1,,,71,36
81540,control_change,54,0,1,,,,,,,,,0,64,0,,
81540,note_on,0,0,1,,,,,,,,,0,,,79,75
81546,note_on,6,0,1,,,,,,,,,0,,,79,0
81600,control_change,54,0,1,,,,,,,,,0,64,127,,
81600,note_on,0,0,1,,,,,,,,,0,,,79,101
81600,note_on,0,0,2,,,,,,,,,1,,,67,0
81600,control_change,0,0,2,,,,,,,,,1,64,127,,
81600,note_on,0,0,2,,,,,,,,,1,,,67,36
81600,note_on,0,0,2,,,,,,,,,1,,,71,36
81600,control_change,180,0,3,,,,,,,,,2,64,127,,
81600,note_on,0,0,3,,,,,,,,,2,,,43,62
81600,note_on,60,0,2,,,,,,,,,1,,,71,0
81604,note_on,4,0,3,,,,,,,,,2,,,43,0
81630,note_on,26,0,3,,,,,,,,,2,,,55,36
81660,note_on,0,0,3,,,,,,,,,2,,,59,36
81660,note_on,0,0,2,,,,,,,,,1,,,67,0
81660,note_on,60,0,2,,,,,,,,,1,,,71,0
81660,note_on,0,0,1,,,,,,,,,0,,,71,75
81660,note_on,60,0,1,,,,,,,,,0,,,79,0
81660,note_on,30,0,3,,,,,,,,,2,,,55,0
81660,note_on,0,0,2,,,,,,,,,1,,,67,36
81690,note_on,30,0,3,,,,,,,,,2,,,59,0
81690,note_on,0,0,3,,,,,,,,,2,,,55,36
81720,note_on,60,0,1,,,,,,,,,0,,,71,0
81720,note_on,0,0,1,,,,,,,,,0,,,71,75
81720,note_on,60,0,2,,,,,,,,,1,,,67,0
81720,note_on,0,0,3,,,,,,,,,2,,,62,36
81720,note_on,30,0,3,,,,,,,,,2,,,55,0
81720,note_on,0,0,2,,,,,,,,,1,,,67,36
81726,note_on,6,0,1,,,,,,,,,0,,,71,0
81750,note_on,30,0,3,,,,,,,,,2,,,62,0
81750,note_on,0,0,3,,,,,,,,,2,,,55,36
81780,control_change,0,0,2,,,,,,,,,1,64,0,,
81780,note_on,0,0,2,,,,,,,,,1,,,67,36
81780,control_change,54,0,1,,,,,,,,,0,64,0,,
81780,note_on,0,0,1,,,,,,,,,0,,,71,75
81780,note_on,30,0,3,,,,,,,,,2,,,55,0
81780,note_on,0,0,3,,,,,,,,,2,,,59,36
81780,note_on,60,0,2,,,,,,,,,1,,,67,0
81786,note_on,6,0,1,,,,,,,,,0,,,71,0
81810,control_change,0,0,3,,,,,,,,,2,64,0,,
81810,note_on,30,0,3,,,,,,,,,2,,,59,0
81810,note_on,0,0,3,,,,,,,,,2,,,55,36
81840,note_on,30,0,3,,,,,,,,,2,,,55,0
81840,note_on,0,0,3,,,,,,,,,2,,,43,62
81840,note_on,60,0,2,,,,,,,,,1,,,67,0
81840,control_change,0,0,2,,,,,,,,,1,64,127,,
81840,note_on,0,0,2,,,,,,,,,1,,,67,36
81840,control_change,54,0,1,,,,,,,,,0,64,127,,
81840,note_on,0,0,1,,,,,,,,,0,,,79,101
81840,note_on,0,0,2,,,,,,,,,1,,,70,36
81840,control_change,0,0,3,,,,,,,,,2,64,127,,
81844,note_on,4,0,3,,,,,,,,,2,,,43,0
81870,note_on,26,0,3,,,,,,,,,2,,,55,36
81900,note_on,60,0,1,,,,,,,,,0,,,79,0
81900,note_on,0,0,3,,,,,,,,,2,,,58,36
81900,note_on,60,0,2,,,,,,,,,1,,,70,0
81900,note_on,0,0,2,,,,,,,,,1,,,67,0
81900,note_on,0,0,2,,,,,,,,,1,,,67,36
81900,note_on,0,0,2,,,,,,,,,1,,,70,36
81900,note_on,30,0,3,,,,,,,,,2,,,55,0
81900,note_on,0,0,1,,,,,,,,,0,,,73,75
81930,note_on,0,0,3,,,,,,,,,2,,,55,36
81930,note_on,30,0,3,,,,,,,,,2,,,58,0
81960,note_on,0,0,1,,,,,,,,,0,,,73,75
81960,note_on,30,0,3,,,,,,,,,2,,,55,0
81960,note_on,0,0,3,,,,,,,,,2,,,64,36
81960,note_on,60,0,1,,,,,,,,,0,,,73,0
81960,note_on,60,0,2,,,,,,,,,1,,,70,0
81960,note_on,0,0,2,,,,,,,,,1,,,67,0
81960,note_on,0,0,2,,,,,,,,,1,,,67,36
81960,note_on,0,0,2,,,,,,,,,1,,,70,36
81966,note_on,6,0,1,,,,,,,,,0,,,73,0
81990,note_on,30,0,3,,,,,,,,,2,,,64,0
81990,note_on,0,0,3,,,,,,,,,2,,,55,36
82020,note_on,30,0,3,,,,,,,,,2,,,55,0
82020,note_on,0,0,3,,,,,,,,,2,,,58,36
82020,note_on,0,0,2,,,,,,,,,1,,,70,36
82020,note_on,0,0,2,,,,,,,,,1,,,67,36
82020,control_change,0,0,2,,,,,,,,,1,64,0,,
82020,note_on,60,0,2,,,,,,,,,1,,,70,0
82020,note_on,0,0,2,,,,,,,,,1,,,67,0
82020,note_on,0,0,1,,,,,,,,,0,,,73,75
82020,control_change,54,0,1,,,,,,,,,0,64,0,,
82026,note_on,6,0,1,,,,,,,,,0,,,73,0
82050,note_on,0,0,3,,,,,,,,,2,,,55,36
82050,note_on,30,0,3,,,,,,,,,2,,,58,0
82050,control_change,0,0,3,,,,,,,,,2,64,0,,
82080,note_on,0,0,2,,,,,,,,,1,,,67,36
82080,note_on,30,0,3,,,,,,,,,2,,,55,0
82080,control_change,0,0,3,,,,,,,,,2,64,127,,
82080,note_on,0,0,3,,,,,,,,,2,,,43,62
82080,note_on,0,0,2,,,,,,,,,1,,,71,36
82080,note_on,54,0,1,,,,,,,,,0,,,74,101
82080,note_on,60,0,2,,,,,,,,,1,,,70,0
82080,note_on,0,0,2,,,,,,,,,1,,,67,0
82084,note_on,4,0,3,,,,,,,,,2,,,43,0
82110,note_on,26,0,3,,,,,,,,,2,,,55,36
82140,note_on,30,0,3,,,,,,,,,2,,,55,0
82140,note_on,0,0,3,,,,,,,,,2,,,59,36
82170,note_on,30,0,3,,,,,,,,,2,,,59,0
82170,note_on,0,0,3,,,,,,,,,2,,,55,36
82200,note_on,30,0,3,,,,,,,,,2,,,55,0
82200,note_on,0,0,3,,,,,,,,,2,,,62,36
82230,note_on,30,0,3,,,,,,,,,2,,,62,0
82230,note_on,0,0,3,,,,,,,,,2,,,55,36
82260,note_on,0,0,3,,,,,,,,,2,,,59,36
82260,note_on,30,0,3,,,,,,,,,2,,,55,0
82290,note_on,0,0,3,,,,,,,,,2,,,62,36
82290,control_change,0,0,3,,,,,,,,,2,64,0,,
82290,note_on,30,0,3,,,,,,,,,2,,,59,0
82320,note_on,0,0,2,,,,,,,,,1,,,71,36
82320,note_on,0,0,2,,,,,,,,,1,,,67,36
82320,control_change,0,0,2,,,,,,,,,1,64,127,,
82320,note_on,0,0,2,,,,,,,,,1,,,67,0
82320,note_on,240,0,2,,,,,,,,,1,,,71,0
82320,note_on,30,0,3,,,,,,,,,2,,,62,0
82320,control_change,0,0,3,,,,,,,,,2,64,127,,
82320,note_on,0,0,1,,,,,,,,,0,,,77,75
82320,note_on,240,0,1,,,,,,,,,0,,,74,0
82320,control_change,0,0,1,,,,,,,,,0,64,127,,
82320,note_on,0,0,3,,,,,,,,,2,,,65,36
82326,note_on,6,0,3,,,,,,,,,2,,,65,0
82326,note_on,6,0,1,,,,,,,,,0,,,77,0
82380,note_on,54,0,3,,,,,,,,,2,,,64,36
82380,note_on,60,0,2,,,,,,,,,1,,,71,0
82380,note_on,0,0,2,,,,,,,,,1,,,67,0
82380,note_on,0,0,2,,,,,,,,,1,,,67,36
82380,note_on,0,0,2,,,,,,,,,1,,,71,36
82380,note_on,54,0,1,,,,,,,,,0,,,76,75
82386,note_on,6,0,3,,,,,,,,,2,,,64,0
82386,note_on,6,0,1,,,,,,,,,0,,,76,0
82440,note_on,0,0,2,,,,,,,,,1,,,71,36
82440,note_on,0,0,2,,,,,,,,,1,,,67,0
82440,note_on,60,0,2,,,,,,,,,1,,,71,0
82440,note_on,54,0,3,,,,,,,,,2,,,65,36
82440,note_on,54,0,1,,,,,,,,,0,,,77,88
82440,note_on,0,0,2,,,,,,,,,1,,,67,36
82446,note_on,6,0,3,,,,,,,,,2,,,65,0
82446,note_on,6,0,1,,,,,,,,,0,,,77,0
82500,control_change,54,0,1,,,,,,,,,0,64,0,,
82500,note_on,0,0,1,,,,,,,,,0,,,79,88
82500,note_on,0,0,2,,,,,,,,,1,,,67,0
82500,control_change,0,0,2,,,,,,,,,1,64,0,,
82500,note_on,0,0,2,,,,,,,,,1,,,67,36
82500,note_on,0,0,2,,,,,,,,,1,,,71,36
82500,note_on,0,0,3,,,,,,,,,2,,,67,36
82500,note_on,60,0,2,,,,,,,,,1,,,71,0
82500,control_change,54,0,3,,,,,,,,,2,64,0,,
82506,note_on,6,0,1,,,,,,,,,0,,,79,0
82506,note_on,6,0,3,,,,,,,,,2,,,67,0
82560,note_on,0,0,3,,,,,,,,,2,,,48,36
82560,control_change,54,0,3,,,,,,,,,2,64,127,,
82560,control_change,54,0,1,,,,,,,,,0,64,127,,
82560,note_on,0,0,2,,,,,,,,,1,,,67,36
82560,control_change,0,0,2,,,,,,,,,1,64,127,,
82560,note_on,0,0,2,,,,,,,,,1,,,67,0
82560,note_on,60,0,2,,,,,,,,,1,,,71,0
82560,note_on,0,0,2,,,,,,,,,1,,,72,36
82560,note_on,0,0,1,,,,,,,,,0,,,77,88
82564,note_on,4,0,3,,,,,,,,,2,,,48,0
82566,note_on,6,0,1,,,,,,,,,0,,,77,0
82590,note_on,26,0,3,,,,,,,,,2,,,55,36
82620,note_on,0,0,3,,,,,,,,,2,,,60,36
82620,note_on,54,0,1,,,,,,,,,0,,,76,88
82620,note_on,60,0,2,,,,,,,,,1,,,72,0
82620,note_on,0,0,2,,,,,,,,,1,,,67,0
82620,note_on,0,0,2,,,,,,,,,1,,,67,36
82620,note_on,0,0,2,,,,,,,,,1,,,72,36
82620,note_on,30,0,3,,,,,,,,,2,,,55,0
82626,note_on,6,0,1,,,,,,,,,0,,,76,0
82650,note_on,30,0,3,,,,,,,,,2,,,60,0
82650,note_on,0,0,3,,,,,,,,,2,,,55,36
82680,note_on,54,0,1,,,,,,,,,0,,,74,88
82680,note_on,60,0,2,,,,,,,,,1,,,72,0
82680,note_on,0,0,2,,,,,,,,,1,,,67,0
82680,note_on,0,0,3,,,,,,,,,2,,,64,36
82680,note_on,30,0,3,,,,,,,,,2,,,55,0
82680,note_on,0,0,2,,,,,,,,,1,,,67,36
82686,note_on,6,0,1,,,,,,,,,0,,,74,0
82710,note_on,0,0,3,,,,,,,,,2,,,55,36
82710,note_on,30,0,3,,,,,,,,,2,,,64,0
82740,note_on,60,0,2,,,,,,,,,1,,,67,0
82740,control_change,0,0,2,,,,,,,,,1,64,0,,
82740,note_on,0,0,2,,,,,,,,,1,,,64,36
82740,note_on,0,0,2,,,,,,,,,1,,,67,36
82740,control_change,54,0,1,,,,,,,,,0,64,0,,
82740,note_on,0,0,1,,,,,,,,,0,,,72,88
82740,note_on,30,0,3,,,,,,,,,2,,,55,0
82740,note_on,0,0,3,,,,,,,,,2,,,60,36
82746,note_on,6,0,1,,,,,,,,,0,,,72,0
82770,note_on,0,0,3,,,,,,,,,2,,,55,36
82770,control_change,0,0,3,,,,,,,,,2,64,0,,
82770,note_on,30,0,3,,,,,,,,,2,,,60,0
82800,note_on,0,0,3,,,,,,,,,2,,,38,36
82800,control_change,0,0,3,,,,,,,,,2,64,127,,
82800,note_on,30,0,3,,,,,,,,,2,,,55,0
82800,note_on,60,0,2,,,,,,,,,1,,,67,0
82800,note_on,0,0,2,,,,,,,,,1,,,67,36
82800,note_on,0,0,2,,,,,,,,,1,,,62,36
82800,note_on,0,0,1,,,,,,,,,0,,,72,88
82800,control_change,54,0,1,,,,,,,,,0,64,127,,
82800,note_on,0,0,2,,,,,,,,,1,,,64,0
82800,control_change,0,0,2,,,,,,,,,1,64,127,,
82804,note_on,4,0,3,,,,,,,,,2,,,38,0
82806,note_on,6,0,1,,,,,,,,,0,,,72,0
82830,note_on,26,0,3,,,,,,,,,2,,,50,36
82860,note_on,60,0,2,,,,,,,,,1,,,67,0
82860,note_on,0,0,2,,,,,,,,,1,,,67,36
82860,note_on,0,0,2,,,,,,,,,1,,,62,36
82860,note_on,30,0,3,,,,,,,,,2,,,50,0
82860,note_on,0,0,2,,,,,,,,,1,,,62,0
82860,note_on,54,0,1,,,,,,,,,0,,,71,88
82860,note_on,0,0,3,,,,,,,,,2,,,55,36
82866,note_on,6,0,1,,,,,,,,,0,,,71,0
82890,note_on,30,0,3,,,,,,,,,2,,,55,0
82890,note_on,0,0,3,,,,,,,,,2,,,50,36
82920,note_on,60,0,2,,,,,,,,,1,,,67,0
82920,note_on,0,0,2,,,,,,,,,1,,,62,0
82920,note_on,0,0,2,,,,,,,,,1,,,62,36
82920,note_on,0,0,2,,,,,,,,,1,,,66,36
82920,note_on,54,0,1,,,,,,,,,0,,,74,88
82920,note_on,30,0,3,,,,,,,,,2,,,50,0
82920,note_on,0,0,3,,,,,,,,,2,,,59,36
82926,note_on,6,0,1,,,,,,,,,0,,,74,0
82950,note_on,30,0,3,,,,,,,,,2,,,59,0
82950,note_on,0,0,3,,,,,,,,,2,,,50,36
82980,note_on,0,0,1,,,,,,,,,0,,,72,88
82980,note_on,30,0,3,,,,,,,,,2,,,50,0
82980,note_on,60,0,2,,,,,,,,,1,,,66,0
82980,note_on,0,0,2,,,,,,,,,1,,,62,0
82980,control_change,0,0,2,,,,,,,,,1,64,0,,
82980,note_on,0,0,2,,,,,,,,,1,,,62,36
82980,note_on,0,0,2,,,,,,,,,1,,,66,36
82980,note_on,0,0,3,,,,,,,,,2,,,57,36
82980,control_change,54,0,1,,,,,,,,,0,64,0,,
82986,note_on,6,0,1,,,,,,,,,0,,,72,0
83010,note_on,0,0,3,,,,,,,,,2,,,50,36
83010,note_on,30,0,3,,,,,,,,,2,,,57,0
83010,control_change,0,0,3,,,,,,,,,2,64,0,,
83040,control_change,54,0,1,,,,,,,,,0,64,127,,
83040,note_on,0,0,1,,,,,,,,,0,,,71,88
83040,note_on,0,0,2,,,,,,,,,1,,,67,36
83040,note_on,0,0,2,,,,,,,,,1,,,62,0
83040,note_on,0,0,3,,,,,,,,,2,,,43,36
83040,note_on,60,0,2,,,,,,,,,1,,,66,0
83040,note_on,30,0,3,,,,,,,,,2,,,50,0
83040,control_change,0,0,3,,,,,,,,,2,64,127,,
83040,note_on,0,0,2,,,,,,,,,1,,,62,36
83040,control_change,0,0,2,,,,,,,,,1,64,127,,
83070,note_on,30,0,3,,,,,,,,,2,,,43,0
83070,note_on,0,0,3,,,,,,,,,2,,,50,36
83100,note_on,30,0,3,,,,,,,,,2,,,50,0
83100,note_on,0,0,3,,,,,,,,,2,,,55,36
83130,note_on,30,0,3,,,,,,,,,2,,,55,0
83130,note_on,0,0,3,,,,,,,,,2,,,50,36
83160,note_on,0,0,2,,,,,,,,,1,,,67,36
83160,note_on,0,0,2,,,,,,,,,1,,,71,36
83160,note_on,120,0,2,,,,,,,,,1,,,67,0
83160,note_on,0,0,2,,,,,,,,,1,,,62,0
83160,note_on,0,0,3,,,,,,,,,2,,,55,36
83160,note_on,30,0,3,,,,,,,,,2,,,50,0
83160,note_on,0,0,1,,,,,,,,,0,,,74,88
83160,note_on,120,0,1,,,,,,,,,0,,,71,0
83166,note_on,6,0,1,,,,,,,,,0,,,74,0
83190,note_on,30,0,3,,,,,,,,,2,,,55,0
83190,note_on,0,0,3,,,,,,,,,2,,,59,36
83220,note_on,0,0,2,,,,,,,,,1,,,71,36
83220,note_on,0,0,2,,,,,,,,,1,,,67,36
83220,control_change,0,0,2,,,,,,,,,1,64,0,,
83220,note_on,0,0,2,,,,,,,,,1,,,67,0
83220,note_on,60,0,2,,,,,,,,,1,,,71,0
83220,note_on,0,0,1,,,,,,,,,0,,,76,88
83220,control_change,54,0,1,,,,,,,,,0,64,0,,
83220,note_on,0,0,3,,,,,,,,,2,,,62,36
83220,note_on,30,0,3,,,,,,,,,2,,,59,0
83226,note_on,6,0,1,,,,,,,,,0,,,76,0
83250,control_change,0,0,3,,,,,,,,,2,64,0,,
83250,note_on,0,0,3,,,,,,,,,2,,,64,36
83250,note_on,30,0,3,,,,,,,,,2,,,62,0
83280,control_change,0,0,2,,,,,,,,,1,64,127,,
83280,note_on,0,0,2,,,,,,,,,1,,,71,36
83280,note_on,0,0,2,,,,,,,,,1,,,67,36
83280,note_on,0,0,2,,,,,,,,,1,,,67,0
83280,note_on,60,0,2,,,,,,,,,1,,,71,0
83280,note_on,30,0,3,,,,,,,,,2,,,64,0
83280,control_change,0,0,3,,,,,,,,,2,64,127,,
83280,note_on,0,0,3,,,,,,,,,2,,,65,36
83280,control_change,54,0,1,,,,,,,,,0,64,127,,
83280,note_on,0,0,1,,,,,,,,,0,,,77,88
83286,note_on,6,0,1,,,,,,,,,0,,,77,0
83286,note_on,6,0,3,,,,,,,,,2,,,65,0
83340,note_on,0,0,2,,,,,,,,,1,,,67,36
83340,note_on,0,0,2,,,,,,,,,1,,,71,36
83340,note_on,54,0,1,,,,,,,,,0,,,76,88
83340,note_on,0,0,2,,,,,,,,,1,,,67,0
83340,note_on,60,0,2,,,,,,,,,1,,,71,0
83340,note_on,54,0,3,,,,,,,,,2,,,64,36
83346,note_on,6,0,3,,,,,,,,,2,,,64,0
83346,note_on,6,0,1,,,,,,,,,0,,,76,0
83400,note_on,0,0,2,,,,,,,,,1,,,71,36
83400,note_on,0,0,2,,,,,,,,,1,,,67,36
83400,note_on,0,0,2,,,,,,,,,1,,,67,0
83400,note_on,54,0,3,,,,,,,,,2,,,65,36
83400,note_on,60,0,2,,,,,,,,,1,,,71,0
83400,note_on,54,0,1,,,,,,,,,0,,,77,88
83430,note_on,30,0,3,,,,,,,,,2,,,65,0
83430,note_on,0,0,3,,,,,,,,,2,,,69,36
83430,note_on,30,0,1,,,,,,,,,0,,,77,0
83430,note_on,0,0,1,,,,,,,,,0,,,81,88
83460,note_on,60,0,2,,,,,,,,,1,,,71,0
83460,note_on,0,0,2,,,,,,,,,1,,,71,36
83460,control_change,0,0,2,,,,,,,,,1,64,0,,
83460,note_on,0,0,2,,,,,,,,,1,,,67,0
83460,control_change,0,0,3,,,,,,,,,2,64,0,,
83460,note_on,30,0,3,,,,,,,,,2,,,69,0
83460,note_on,0,0,3,,,,,,,,,2,,,67,36
83460,control_change,0,0,1,,,,,,,,,0,64,0,,
83460,note_on,0,0,1,,,,,,,,,0,,,79,88
83460,note_on,30,0,1,,,,,,,,,0,,,81,0
83466,note_on,6,0,1,,,,,,,,,0,,,79,0
83466,note_on,6,0,3,,,,,,,,,2,,,67,0
83520,note_on,0,0,3,,,,,,,,,2,,,48,36
83520,control_change,54,0,3,,,,,,,,,2,64,127,,
83520,note_on,0,0,2,,,,,,,,,1,,,67,36
83520,note_on,0,0,2,,,,,,,,,1,,,72,36
83520,note_on,60,0,2,,,,,,,,,1,,,71,0
83520,note_on,0,0,1,,,,,,,,,0,,,77,62
83520,control_change,54,0,1,,,,,,,,,0,64,127,,
83520,control_change,0,0,2,,,,,,,,,1,64,127,,
83524,note_on,4,0,3,,,,,,,,,2,,,48,0
83526,note_on,6,0,1,,,,,,,,,0,,,77,0
83550,note_on,26,0,3,,,,,,,,,2,,,55,36
83580,note_on,60,0,2,,,,,,,,,1,,,72,0
83580,note_on,0,0,2,,,,,,,,,1,,,67,0
83580,note_on,0,0,2,,,,,,,,,1,,,67,36
83580,note_on,0,0,2,,,,,,,,,1,,,72,36
83580,note_on,54,0,1,,,,,,,,,0,,,76,62
83580,note_on,30,0,3,,,,,,,,,2,,,55,0
83580,note_on,0,0,3,,,,,,,,,2,,,60,36
83586,note_on,6,0,1,,,,,,,,,0,,,76,0
83610,note_on,0,0,3,,,,,,,,,2,,,55,36
83610,note_on,30,0,3,,,,,,,,,2,,,60,0
83640,note_on,0,0,2,,,,,,,,,1,,,65,36
83640,note_on,0,0,3,,,,,,,,,2,,,59,36
83640,note_on,54,0,1,,,,,,,,,0,,,74,62
83640,note_on,60,0,2,,,,,,,,,1,,,72,0
83640,note_on,0,0,2,,,,,,,,,1,,,67,0
83640,note_on,0,0,2,,,,,,,,,1,,,67,36
83640,note_on,30,0,3,,,,,,,,,2,,,55,0
83646,note_on,6,0,1,,,,,,,,,0,,,74,0
83670,note_on,0,0,3,,,,,,,,,2,,,55,36
83670,note_on,30,0,3,,,,,,,,,2,,,59,0
83700,note_on,0,0,3,,,,,,,,,2,,,60,36
83700,note_on,30,0,3,,,,,,,,,2,,,55,0
83700,note_on,0,0,2,,,,,,,,,1,,,67,36
83700,note_on,0,0,2,,,,,,,,,1,,,64,36
83700,control_change,0,0,2,,,,,,,,,1,64,0,,
83700,note_on,0,0,2,,,,,,,,,1,,,65,0
83700,note_on,60,0,2,,,,,,,,,1,,,67,0
83700,control_change,54,0,1,,,,,,,,,0,64,0,,
83700,note_on,0,0,1,,,,,,,,,0,,,72,62
83706,note_on,6,0,1,,,,,,,,,0,,,72,0
83730,note_on,30,0,3,,,,,,,,,2,,,60,0
83730,control_change,0,0,3,,,,,,,,,2,64,0,,
83730,note_on,0,0,3,,,,,,,,,2,,,55,36
83760,control_change,54,0,1,,,,,,,,,0,64,127,,
83760,note_on,0,0,1,,,,,,,,,0,,,72,62
83760,note_on,30,0,3,,,,,,,,,2,,,55,0
83760,control_change,0,0,3,,,,,,,,,2,64,127,,
83760,note_on,0,0,3,,,,,,,,,2,,,38,36
83760,note_on,60,0,2,,,,,,,,,1,,,67,0
83760,note_on,0,0,2,,,,,,,,,1,,,64,0
83760,note_on,0,0,2,,,,,,,,,1,,,62,36
83760,note_on,0,0,2,,,,,,,,,1,,,67,36
83760,control_change,0,0,2,,,,,,,,,1,64,127,,
83764,note_on,4,0,3,,,,,,,,,2,,,38,0
83766,note_on,6,0,1,,,,,,,,,0,,,72,0
83790,note_on,26,0,3,,,,,,,,,2,,,50,36
83820,note_on,54,0,1,,,,,,,,,0,,,71,62
83820,note_on,30,0,3,,,,,,,,,2,,,50,0
83820,note_on,60,0,2,,,,,,,,,1,,,67,0
83820,note_on,0,0,2,,,,,,,,,1,,,62,0
83820,note_on,0,0,2,,,,,,,,,1,,,62,36
83820,note_on,0,0,2,,,,,,,,,1,,,67,36
83820,note_on,0,0,3,,,,,,,,,2,,,55,36
83826,note_on,6,0,1,,,,,,,,,0,,,71,0
83850,note_on,0,0,3,,,,,,,,,2,,,50,36
83850,note_on,30,0,3,,,,,,,,,2,,,55,0
83880,control_change,0,0,3,,,,,,,,,2,64,0,,
83880,note_on,0,0,3,,,,,,,,,2,,,57,36
83880,note_on,30,0,3,,,,,,,,,2,,,50,0
83880,control_change,0,0,2,,,,,,,,,1,64,0,,
83880,note_on,0,0,2,,,,,,,,,1,,,62,36
83880,note_on,0,0,2,,,,,,,,,1,,,62,0
83880,note_on,60,0,2,,,,,,,,,1,,,67,0
83880,control_change,54,0,1,,,,,,,,,0,64,0,,
83880,note_on,0,0,1,,,,,,,,,0,,,74,62
83880,note_on,0,0,2,,,,,,,,,1,,,66,36
83886,note_on,6,0,1,,,,,,,,,0,,,74,0
83910,note_on,30,0,3,,,,,,,,,2,,,57,0
83910,note_on,0,0,3,,,,,,,,,2,,,50,36
83940,note_on,60,0,2,,,,,,,,,1,,,66,0
83940,note_on,0,0,2,,,,,,,,,1,,,62,36
83940,note_on,0,0,2,,,,,,,,,1,,,66,36
83940,note_on,30,0,3,,,,,,,,,2,,,50,0
83940,note_on,54,0,1,,,,,,,,,0,,,72,62
83940,note_on,0,0,3,,,,,,,,,2,,,60,36
83940,note_on,0,0,2,,,,,,,,,1,,,62,0
83946,note_on,6,0,1,,,,,,,,,0,,,72,0
83970,note_on,0,0,3,,,,,,,,,2,,,50,36
83970,note_on,30,0,3,,,,,,,,,2,,,60,0
84000,note_on,30,0,3,,,,,,,,,2,,,50,0
84000,control_change,54,0,1,,,,,,,,,0,64,127,,
84000,note_on,0,0,1,,,,,,,,,0,,,67,62
84000,note_on,60,0,2,,,,,,,,,1,,,66,0
84000,note_on,0,0,2,,,,,,,,,1,,,62,0
84000,control_change,0,0,2,,,,,,,,,1,64,127,,
84000,note_on,0,0,2,,,,,,,,,1,,,59,36
84000,note_on,0,0,2,,,,,,,,,1,,,62,36
84000,control_change,0,0,3,,,,,,,,,2,64,127,,
84000,note_on,0,0,3,,,,,,,,,2,,,43,36
84004,note_on,4,0,3,,,,,,,,,2,,,43,0
84030,note_on,26,0,3,,,,,,,,,2,,,50,36
84060,note_on,30,0,3,,,,,,,,,2,,,50,0
84060,note_on,0,0,3,,,,,,,,,2,,,55,36
84090,note_on,30,0,3,,,,,,,,,2,,,55,0
84090,note_on,0,0,3,,,,,,,,,2,,,50,36
84120,note_on,0,0,3,,,,,,,,,2,,,55,36
84120,note_on,30,0,3,,,,,,,,,2,,,50,0
84150,note_on,30,0,3,,,,,,,,,2,,,55,0
84150,note_on,0,0,3,,,,,,,,,2,,,50,36
84180,note_on,180,0,2,,,,,,,,,1,,,62,0
84180,note_on,30,0,3,,,,,,,,,2,,,50,0
84180,note_on,180,0,1,,,,,,,,,0,,,67,0
84180,control_change,0,0,1,,,,,,,,,0,64,0,,
84180,note_on,0,0,1,,,,,,,,,0,,,71,62
84180,note_on,0,0,2,,,,,,,,,1,,,59,0
84180,control_change,0,0,2,,,,,,,,,1,64,0,,
84180,note_on,0,0,3,,,,,,,,,2,,,55,36
84180,note_on,0,0,2,,,,,,,,,1,,,62,36
84180,note_on,0,0,2,,,,,,,,,1,,,59,36
84210,note_on,0,0,3,,,,,,,,,2,,,50,36
84210,note_on,30,0,3,,,,,,,,,2,,,55,0
84210,control_change,0,0,3,,,,,,,,,2,64,0,,
84240,note_on,0,0,1,,,,,,,,,0,,,71,88
84240,control_change,0,0,1,,,,,,,,,0,64,127,,
84240,note_on,60,0,1,,,,,,,,,0,,,71,0
84240,note_on,0,0,3,,,,,,,,,2,,,43,36
84240,control_change,0,0,3,,,,,,,,,2,64,127,,
84240,note_on,30,0,3,,,,,,,,,2,,,50,0
84240,note_on,0,0,2,,,,,,,,,1,,,62,36
84240,note_on,0,0,2,,,,,,,,,1,,,60,36
84240,note_on,60,0,2,,,,,,,,,1,,,62,0
84240,note_on,0,0,2,,,,,,,,,1,,,59,0
84240,control_change,0,0,2,,,,,,,,,1,64,127,,
84244,note_on,4,0,3,,,,,,,,,2,,,43,0
84246,note_on,6,0,1,,,,,,,,,0,,,71,0
84270,note_on,26,0,3,,,,,,,,,2,,,50,36
84300,note_on,0,0,2,,,,,,,,,1,,,60,36
84300,note_on,54,0,1,,,,,,,,,0,,,72,62
84300,note_on,30,0,3,,,,,,,,,2,,,50,0
84300,note_on,60,0,2,,,,,,,,,1,,,62,0
84300,note_on,0,0,2,,,,,,,,,1,,,60,0
84300,note_on,0,0,2,,,,,,,,,1,,,62,36
84300,note_on,0,0,3,,,,,,,,,2,,,54,36
84306,note_on,6,0,1,,,,,,,,,0,,,72,0
84330,note_on,30,0,3,,,,,,,,,2,,,54,0
84330,note_on,0,0,3,,,,,,,,,2,,,50,36
84360,note_on,54,0,1,,,,,,,,,0,,,69,62
84360,note_on,30,0,3,,,,,,,,,2,,,50,0
84360,note_on,0,0,3,,,,,,,,,2,,,54,36
84360,note_on,0,0,2,,,,,,,,,1,,,62,36
84360,note_on,0,0,2,,,,,,,,,1,,,60,0
84360,note_on,0,0,2,,,,,,,,,1,,,60,36
84360,note_on,60,0,2,,,,,,,,,1,,,62,0
84366,note_on,6,0,1,,,,,,,,,0,,,69,0
84390,note_on,30,0,3,,,,,,,,,2,,,54,0
84390,note_on,0,0,3,,,,,,,,,2,,,50,36
84420,control_change,54,0,1,,,,,,,,,0,64,0,,
84420,note_on,0,0,1,,,,,,,,,0,,,69,62
84420,note_on,0,0,2,,,,,,,,,1,,,60,0
84420,control_change,0,0,2,,,,,,,,,1,64,0,,
84420,note_on,30,0,3,,,,,,,,,2,,,50,0
84420,note_on,0,0,2,,,,,,,,,1,,,60,36
84420,note_on,60,0,2,,,,,,,,,1,,,62,0
84420,note_on,0,0,2,,,,,,,,,1,,,62,36
84420,note_on,0,0,3,,,,,,,,,2,,,54,36
84426,note_on,6,0,1,,,,,,,,,0,,,69,0
84450,control_change,0,0,3,,,,,,,,,2,64,0,,
84450,note_on,0,0,3,,,,,,,,,2,,,50,36
84450,note_on,30,0,3,,,,,,,,,2,,,54,0
84480,note_on,30,0,3,,,,,,,,,2,,,50,0
84480,control_change,0,0,3,,,,,,,,,2,64,127,,
84480,note_on,0,0,3,,,,,,,,,2,,,43,36
84480,control_change,54,0,1,,,,,,,,,0,64,127,,
84480,note_on,60,0,2,,,,,,,,,1,,,62,0
84480,note_on,0,0,2,,,,,,,,,1,,,60,0
84480,control_change,0,0,2,,,,,,,,,1,64,127,,
84480,note_on,0,0,2,,,,,,,,,1,,,59,36
84480,note_on,0,0,1,,,,,,,,,0,,,69,88
84480,note_on,0,0,2,,,,,,,,,1,,,62,36
84484,note_on,4,0,3,,,,,,,,,2,,,43,0
84486,note_on,6,0,1,,,,,,,,,0,,,69,0
84510,note_on,26,0,3,,,,,,,,,2,,,50,36
84540,note_on,30,0,3,,,,,,,,,2,,,50,0
84540,note_on,0,0,3,,,,,,,,,2,,,55,36
84540,note_on,0,0,2,,,,,,,,,1,,,59,36
84540,note_on,54,0,1,,,,,,,,,0,,,71,62
84540,note_on,0,0,2,,,,,,,,,1,,,62,36
84540,note_on,0,0,2,,,,,,,,,1,,,59,0
84540,note_on,60,0,2,,,,,,,,,1,,,62,0
84546,note_on,6,0,1,,,,,,,,,0,,,71,0
84570,note_on,0,0,3,,,,,,,,,2,,,50,36
84570,note_on,30,0,3,,,,,,,,,2,,,55,0
84600,note_on,30,0,3,,,,,,,,,2,,,50,0
84600,note_on,54,0,1,,,,,,,,,0,,,67,62
84600,note_on,0,0,3,,,,,,,,,2,,,55,36
84600,note_on,60,0,2,,,,,,,,,1,,,62,0
84600,note_on,0,0,2,,,,,,,,,1,,,59,0
84600,note_on,0,0,2,,,,,,,,,1,,,59,36
84600,note_on,0,0,2,,,,,,,,,1,,,62,36
84606,note_on,6,0,1,,,,,,,,,0,,,67,0
84630,note_on,0,0,3,,,,,,,,,2,,,50,36
84630,note_on,30,0,3,,,,,,,,,2,,,55,0
84660,control_change,0,0,2,,,,,,,,,1,64,0,,
84660,note_on,0,0,2,,,,,,,,,1,,,59,0
84660,note_on,60,0,2,,,,,,,,,1,,,62,0
84660,note_on,0,0,1,,,,,,,,,0,,,67,62
84660,note_on,30,0,3,,,,,,,,,2,,,50,0
84660,control_change,54,0,1,,,,,,,,,0,64,0,,
84660,note_on,0,0,3,,,,,,,,,2,,,55,36
84660,note_on,0,0,2,,,,,,,,,1,,,62,36
84660,note_on,0,0,2,,,,,,,,,1,,,59,36
84666,note_on,6,0,1,,,,,,,,,0,,,67,0
84690,control_change,0,0,3,,,,,,,,,2,64,0,,
84690,note_on,0,0,3,,,,,,,,,2,,,50,36
84690,note_on,30,0,3,,,,,,,,,2,,,55,0
84720,note_on,0,0,2,,,,,,,,,1,,,62,36
84720,note_on,0,0,2,,,,,,,,,1,,,60,36
84720,control_change,0,0,2,,,,,,,,,1,64,127,,
84720,note_on,0,0,2,,,,,,,,,1,,,59,0
84720,note_on,60,0,2,,,,,,,,,1,,,62,0
84720,note_on,0,0,1,,,,,,,,,0,,,67,88
84720,control_change,54,0,1,,,,,,,,,0,64,127,,
84720,note_on,0,0,3,,,,,,,,,2,,,43,36
84720,control_change,0,0,3,,,,,,,,,2,64,127,,
84720,note_on,30,0,3,,,,,,,,,2,,,50,0
84724,note_on,4,0,3,,,,,,,,,2,,,43,0
84726,note_on,6,0,1,,,,,,,,,0,,,67,0
84750,note_on,26,0,3,,,,,,,,,2,,,50,36
84780,note_on,0,0,2,,,,,,,,,1,,,60,0
84780,note_on,0,0,2,,,,,,,,,1,,,60,36
84780,note_on,0,0,2,,,,,,,,,1,,,62,36
84780,note_on,0,0,3,,,,,,,,,2,,,57,36
84780,note_on,54,0,1,,,,,,,,,0,,,66,62
84780,note_on,60,0,2,,,,,,,,,1,,,62,0
84780,note_on,30,0,3,,,,,,,,,2,,,50,0
84786,note_on,6,0,1,,,,,,,,,0,,,66,0
84810,note_on,30,0,3,,,,,,,,,2,,,57,0
84810,note_on,0,0,3,,,,,,,,,2,,,50,36
84840,note_on,0,0,3,,,,,,,,,2,,,60,36
84840,note_on,54,0,1,,,,,,,,,0,,,76,62
84840,note_on,0,0,2,,,,,,,,,1,,,69,36
84840,note_on,0,0,2,,,,,,,,,1,,,60,0
84840,note_on,60,0,2,,,,,,,,,1,,,62,0
84840,note_on,30,0,3,,,,,,,,,2,,,50,0
84840,note_on,0,0,2,,,,,,,,,1,,,66,36
84846,note_on,6,0,1,,,,,,,,,0,,,76,0
84870,note_on,30,0,3,,,,,,,,,2,,,60,0
84870,note_on,0,0,3,,,,,,,,,2,,,50,36
84900,note_on,30,0,3,,,,,,,,,2,,,50,0
84900,note_on,0,0,3,,,,,,,,,2,,,60,36
84900,note_on,0,0,1,,,,,,,,,0,,,74,62
84900,note_on,0,0,2,,,,,,,,,1,,,66,0
84900,note_on,0,0,2,,,,,,,,,1,,,69,36
84900,note_on,0,0,2,,,,,,,,,1,,,66,36
84900,control_change,0,0,2,,,,,,,,,1,64,0,,
84900,note_on,60,0,2,,,,,,,,,1,,,69,0
84900,control_change,54,0,1,,,,,,,,,0,64,0,,
84906,note_on,6,0,1,,,,,,,,,0,,,74,0
84930,note_on,0,0,3,,,,,,,,,2,,,50,36
84930,control_change,0,0,3,,,,,,,,,2,64,0,,
84930,note_on,30,0,3,,,,,,,,,2,,,60,0
84960,note_on,0,0,2,,,,,,,,,1,,,66,0
84960,note_on,30,0,3,,,,,,,,,2,,,50,0
84960,control_change,0,0,3,,,,,,,,,2,64,127,,
84960,note_on,0,0,3,,,,,,,,,2,,,43,36
84960,note_on,0,0,2,,,,,,,,,1,,,67,36
84960,control_change,0,0,2,,,,,,,,,1,64,127,,
84960,note_on,60,0,2,,,,,,,,,1,,,69,0
84960,note_on,0,0,2,,,,,,,,,1,,,71,36
84960,note_on,0,0,1,,,,,,,,,0,,,74,62
84960,control_change,54,0,1,,,,,,,,,0,64,127,,
84964,note_on,4,0,3,,,,,,,,,2,,,43,0
84990,note_on,26,0,3,,,,,,,,,2,,,50,36
85020,note_on,30,0,3,,,,,,,,,2,,,50,0
85020,note_on,0,0,3,,,,,,,,,2,,,59,36
85050,note_on,30,0,3,,,,,,,,,2,,,59,0
85050,note_on,0,0,3,,,,,,,,,2,,,50,36
85080,note_on,30,0,3,,,,,,,,,2,,,50,0
85080,note_on,0,0,3,,,,,,,,,2,,,59,36
85110,note_on,30,0,3,,,,,,,,,2,,,59,0
85110,note_on,0,0,3,,,,,,,,,2,,,50,36
85140,note_on,0,0,2,,,,,,,,,1,,,62,36
85140,note_on,0,0,2,,,,,,,,,1,,,59,36
85140,control_change,0,0,2,,,,,,,,,1,64,0,,
85140,note_on,0,0,2,,,,,,,,,1,,,67,0
85140,note_on,180,0,2,,,,,,,,,1,,,71,0
85140,note_on,0,0,1,,,,,,,,,0,,,71,62
85140,note_on,180,0,1,,,,,,,,,0,,,74,0
85140,control_change,0,0,1,,,,,,,,,0,64,0,,
85140,note_on,30,0,3,,,,,,,,,2,,,50,0
85140,note_on,0,0,3,,,,,,,,,2,,,55,36
85170,note_on,0,0,3,,,,,,,,,2,,,50,36
85170,control_change,0,0,3,,,,,,,,,2,64,0,,
85170,note_on,30,0,3,,,,,,,,,2,,,55,0
85200,note_on,30,0,3,,,,,,,,,2,,,50,0
85200,control_change,0,0,2,,,,,,,,,1,64,127,,
85200,control_change,0,0,1,,,,,,,,,0,64,127,,
85200,note_on,60,0,1,,,,,,,,,0,,,71,0
85200,note_on,0,0,2,,,,,,,,,1,,,60,36
85200,control_change,0,0,3,,,,,,,,,2,64,127,,
85200,note_on,60,0,2,,,,,,,,,1,,,62,0
85200,note_on,0,0,2,,,,,,,,,1,,,59,0
85200,note_on,0,0,1,,,,,,,,,0,,,71,88
85200,note_on,0,0,3,,,,,,,,,2,,,43,36
85200,note_on,0,0,2,,,,,,,,,1,,,62,36
85204,note_on,4,0,3,,,,,,,,,2,,,43,0
85206,note_on,6,0,1,,,,,,,,,0,,,71,0
85230,note_on,26,0,3,,,,,,,,,2,,,50,36
85260,note_on,30,0,3,,,,,,,,,2,,,50,0
85260,note_on,60,0,2,,,,,,,,,1,,,62,0
85260,note_on,0,0,2,,,,,,,,,1,,,60,0
85260,note_on,0,0,3,,,,,,,,,2,,,54,36
85260,note_on,54,0,1,,,,,,,,,0,,,72,62
85260,note_on,0,0,2,,,,,,,,,1,,,60,36
85260,note_on,0,0,2,,,,,,,,,1,,,62,36
85266,note_on,6,0,1,,,,,,,,,0,,,72,0
85290,note_on,0,0,3,,,,,,,,,2,,,50,36
85290,note_on,30,0,3,,,,,,,,,2,,,54,0
85320,note_on,60,0,2,,,,,,,,,1,,,62,0
85320,note_on,0,0,2,,,,,,,,,1,,,60,0
85320,note_on,0,0,2,,,,,,,,,1,,,60,36
85320,note_on,0,0,2,,,,,,,,,1,,,62,36
85320,note_on,54,0,1,,,,,,,,,0,,,69,62
85320,note_on,0,0,3,,,,,,,,,2,,,54,36
85320,note_on,30,0,3,,,,,,,,,2,,,50,0
85326,note_on,6,0,1,,,,,,,,,0,,,69,0
85350,note_on,0,0,3,,,,,,,,,2,,,50,36
85350,note_on,30,0,3,,,,,,,,,2,,,54,0
85380,control_change,54,0,1,,,,,,,,,0,64,0,,
85380,note_on,0,0,1,,,,,,,,,0,,,69,62
85380,note_on,0,0,3,,,,,,,,,2,,,54,36
85380,note_on,30,0,3,,,,,,,,,2,,,50,0
85380,note_on,60,0,2,,,,,,,,,1,,,62,0
85380,note_on,0,0,2,,,,,,,,,1,,,60,0
85380,control_change,0,0,2,,,,,,,,,1,64,0,,
85380,note_on,0,0,2,,,,,,,,,1,,,60,36
85380,note_on,0,0,2,,,,,,,,,1,,,62,36
85386,note_on,6,0,1,,,,,,,,,0,,,69,0
85410,control_change,0,0,3,,,,,,,,,2,64,0,,
85410,note_on,0,0,3,,,,,,,,,2,,,50,36
85410,note_on,30,0,3,,,,,,,,,2,,,54,0
85440,note_on,0,0,3,,,,,,,,,2,,,43,36
85440,control_change,0,0,3,,,,,,,,,2,64,127,,
85440,note_on,30,0,3,,,,,,,,,2,,,50,0
85440,control_change,54,0,1,,,,,,,,,0,64,127,,
85440,note_on,60,0,2,,,,,,,,,1,,,62,0
85440,note_on,0,0,2,,,,,,,,,1,,,60,0
85440,control_change,0,0,2,,,,,,,,,1,64,127,,
85440,note_on,0,0,2,,,,,,,,,1,,,59,36
85440,note_on,0,0,2,,,,,,,,,1,,,62,36
85440,note_on,0,0,1,,,,,,,,,0,,,69,88
85444,note_on,4,0,3,,,,,,,,,2,,,43,0
85446,note_on,6,0,1,,,,,,,,,0,,,69,0
85470,note_on,26,0,3,,,,,,,,,2,,,50,36
85500,note_on,54,0,1,,,,,,,,,0,,,71,62
85500,note_on,0,0,2,,,,,,,,,1,,,59,0
85500,note_on,30,0,3,,,,,,,,,2,,,50,0
85500,note_on,0,0,3,,,,,,,,,2,,,55,36
85500,note_on,60,0,2,,,,,,,,,1,,,62,0
85500,note_on,0,0,2,,,,,,,,,1,,,59,36
85500,note_on,0,0,2,,,,,,,,,1,,,62,36
85506,note_on,6,0,1,,,,,,,,,0,,,71,0
85530,note_on,0,0,3,,,,,,,,,2,,,50,36
85530,note_on,30,0,3,,,,,,,,,2,,,55,0
85560,note_on,60,0,2,,,,,,,,,1,,,62,0
85560,note_on,0,0,2,,,,,,,,,1,,,59,0
85560,note_on,0,0,2,,,,,,,,,1,,,59,36
85560,note_on,0,0,2,,,,,,,,,1,,,62,36
85560,note_on,54,0,1,,,,,,,,,0,,,67,62
85560,note_on,30,0,3,,,,,,,,,2,,,50,0
85560,note_on,0,0,3,,,,,,,,,2,,,55,36
85566,note_on,6,0,1,,,,,,,,,0,,,67,0
85590,note_on,0,0,3,,,,,,,,,2,,,50,36
85590,note_on,30,0,3,,,,,,,,,2,,,55,0
85620,note_on,0,0,3,,,,,,,,,2,,,55,36
85620,note_on,30,0,3,,,,,,,,,2,,,50,0
85620,note_on,0,0,1,,,,,,,,,0,,,67,62
85620,note_on,0,0,2,,,,,,,,,1,,,62,36
85620,note_on,0,0,2,,,,,,,,,1,,,59,36
85620,control_change,0,0,2,,,,,,,,,1,64,0,,
85620,note_on,0,0,2,,,,,,,,,1,,,59,0
85620,note_on,60,0,2,,,,,,,,,1,,,62,0
85620,control_change,54,0,1,,,,,,,,,0,64,0,,
85626,note_on,6,0,1,,,,,,,,,0,,,67,0
85650,note_on,0,0,3,,,,,,,,,2,,,50,36
85650,note_on,30,0,3,,,,,,,,,2,,,55,0
85650,control_change,0,0,3,,,,,,,,,2,64,0,,
85680,note_on,30,0,3,,,,,,,,,2,,,50,0
85680,note_on,0,0,2,,,,,,,,,1,,,60,36
85680,note_on,60,0,2,,,,,,,,,1,,,62,0
85680,control_change,0,0,3,,,,,,,,,2,64,127,,
85680,control_change,0,0,2,,,,,,,,,1,64,127,,
85680,note_on,0,0,3,,,,,,,,,2,,,43,36
85680,note_on,0,0,2,,,,,,,,,1,,,59,0
85680,note_on,0,0,1,,,,,,,,,0,,,67,88
85680,control_change,54,0,1,,,,,,,,,0,64,127,,
85680,note_on,0,0,2,,,,,,,,,1,,,62,36
85684,note_on,4,0,3,,,,,,,,,2,,,43,0
85686,note_on,6,0,1,,,,,,,,,0,,,67,0
85710,note_on,26,0,3,,,,,,,,,2,,,50,36
85740,note_on,0,0,2,,,,,,,,,1,,,60,0
85740,note_on,0,0,2,,,,,,,,,1,,,62,36
85740,note_on,0,0,2,,,,,,,,,1,,,60,36
85740,note_on,0,0,3,,,,,,,,,2,,,57,36
85740,note_on,54,0,1,,,,,,,,,0,,,66,62
85740,note_on,30,0,3,,,,,,,,,2,,,50,0
85740,note_on,60,0,2,,,,,,,,,1,,,62,0
85746,note_on,6,0,1,,,,,,,,,0,,,66,0
85770,note_on,0,0,3,,,,,,,,,2,,,50,36
85770,note_on,30,0,3,,,,,,,,,2,,,57,0
85800,note_on,0,0,2,,,,,,,,,1,,,62,36
85800,note_on,60,0,2,,,,,,,,,1,,,62,0
85800,note_on,54,0,1,,,,,,,,,0,,,71,62
85800,note_on,0,0,2,,,,,,,,,1,,,60,0
85800,note_on,0,0,3,,,,,,,,,2,,,55,36
85800,note_on,30,0,3,,,,,,,,,2,,,50,0
85800,note_on,0,0,2,,,,,,,,,1,,,60,36
85806,note_on,6,0,1,,,,,,,,,0,,,71,0
85830,note_on,0,0,3,,,,,,,,,2,,,50,36
85830,note_on,30,0,3,,,,,,,,,2,,,55,0
85860,note_on,60,0,2,,,,,,,,,1,,,62,0
85860,note_on,0,0,2,,,,,,,,,1,,,60,0
85860,control_change,0,0,2,,,,,,,,,1,64,0,,
85860,note_on,0,0,2,,,,,,,,,1,,,60,36
85860,note_on,0,0,2,,,,,,,,,1,,,62,36
85860,note_on,0,0,1,,,,,,,,,0,,,69,62
85860,control_change,54,0,1,,,,,,,,,0,64,0,,
85860,note_on,0,0,3,,,,,,,,,2,,,54,36
85860,note_on,30,0,3,,,,,,,,,2,,,50,0
85866,note_on,6,0,1,,,,,,,,,0,,,69,0
85890,note_on,30,0,3,,,,,,,,,2,,,54,0
85890,control_change,0,0,3,,,,,,,,,2,64,0,,
85890,note_on,0,0,3,,,,,,,,,2,,,50,36
85920,note_on,54,0,1,,,,,,,,,0,,,59,62
85920,note_on,60,0,2,,,,,,,,,1,,,62,0
85920,note_on,0,0,2,,,,,,,,,1,,,60,0
85920,note_on,0,0,1,,,,,,,,,0,,,67,62
85920,note_on,0,0,3,,,,,,,,,2,,,43,36
85920,control_change,0,0,3,,,,,,,,,2,64,127,,
85920,note_on,30,0,3,,,,,,,,,2,,,50,0
85920,note_on,0,0,1,,,,,,,,,0,,,62,62
85924,note_on,4,0,3,,,,,,,,,2,,,43,0
85950,note_on,26,0,3,,,,,,,,,2,,,50,36
85980,note_on,0,0,3,,,,,,,,,2,,,55,36
85980,note_on,30,0,3,,,,,,,,,2,,,50,0
86010,note_on,30,0,3,,,,,,,,,2,,,55,0
86010,note_on,0,0,3,,,,,,,,,2,,,50,36
86040,note_on,30,0,3,,,,,,,,,2,,,50,0
86040,note_on,0,0,3,,,,,,,,,2,,,55,36
86070,note_on,0,0,3,,,,,,,,,2,,,50,36
86070,note_on,30,0,3,,,,,,,,,2,,,55,0
86100,note_on,0,0,3,,,,,,,,,2,,,43,36
86100,note_on,30,0,3,,,,,,,,,2,,,50,0
86130,control_change,0,0,3,,,,,,,,,2,64,0,,
86130,note_on,30,0,3,,,,,,,,,2,,,43,0
86130,note_on,0,0,3,,,,,,,,,2,,,45,36
86160,control_change,0,0,3,,,,,,,,,2,64,127,,
86160,control_change,0,0,1,,,,,,,,,0,64,127,,
86160,note_on,0,0,1,,,,,,,,,0,,,58,62
86160,note_on,0,0,1,,,,,,,,,0,,,59,0
86160,note_on,0,0,1,,,,,,,,,0,,,62,0
86160,note_on,30,0,3,,,,,,,,,2,,,45,0
86160,note_on,0,0,3,,,,,,,,,2,,,46,36
86160,note_on,240,0,1,,,,,,,,,0,,,67,0
86190,note_on,0,0,3,,,,,,,,,2,,,45,36
86190,note_on,30,0,3,,,,,,,,,2,,,46,0
86190,note_on,0,0,1,,,,,,,,,0,,,57,36
86190,note_on,30,0,1,,,,,,,,,0,,,58,0
86220,note_on,30,0,3,,,,,,,,,2,,,45,0
86220,note_on,30,0,1,,,,,,,,,0,,,57,0
86220,note_on,0,0,1,,,,,,,,,0,,,55,36
86220,note_on,0,0,3,,,,,,,,,2,,,43,36
86250,note_on,0,0,1,,,,,,,,,0,,,57,36
86250,note_on,30,0,1,,,,,,,,,0,,,55,0
86250,note_on,0,0,3,,,,,,,,,2,,,45,36
86250,note_on,30,0,3,,,,,,,,,2,,,43,0
86280,note_on,30,0,1,,,,,,,,,0,,,57,0
86280,note_on,0,0,3,,,,,,,,,2,,,46,36
86280,note_on,0,0,1,,,,,,,,,0,,,58,36
86280,note_on,30,0,3,,,,,,,,,2,,,45,0
86310,note_on,0,0,3,,,,,,,,,2,,,43,36
86310,note_on,30,0,3,,,,,,,,,2,,,46,0
86310,note_on,30,0,1,,,,,,,,,0,,,58,0
86310,note_on,0,0,1,,,,,,,,,0,,,55,36
86340,note_on,30,0,1,,,,,,,,,0,,,55,0
86340,note_on,0,0,1,,,,,,,,,0,,,58,36
86340,note_on,0,0,3,,,,,,,,,2,,,46,36
86340,note_on,30,0,3,,,,,,,,,2,,,43,0
86370,control_change,0,0,3,,,,,,,,,2,64,0,,
86370,note_on,0,0,3,,,,,,,,,2,,,43,36
86370,note_on,30,0,3,,,,,,,,,2,,,46,0
86370,note_on,0,0,1,,,,,,,,,0,,,55,36
86370,control_change,0,0,1,,,,,,,,,0,64,0,,
86370,note_on,30,0,1,,,,,,,,,0,,,58,0
86400,control_change,0,0,1,,,,,,,,,0,64,127,,
86400,note_on,0,0,1,,,,,,,,,0,,,58,62
86400,note_on,30,0,3,,,,,,,,,2,,,43,0
86400,control_change,0,0,3,,,,,,,,,2,64,127,,
86400,note_on,0,0,3,,,,,,,,,2,,,46,36
86400,note_on,30,0,1,,,,,,,,,0,,,55,0
86430,note_on,0,0,3,,,,,,,,,2,,,45,36
86430,note_on,0,0,1,,,,,,,,,0,,,57,36
86430,note_on,30,0,3,,,,,,,,,2,,,46,0
86430,note_on,30,0,1,,,,,,,,,0,,,58,0
86460,note_on,0,0,1,,,,,,,,,0,,,55,36
86460,note_on,30,0,3,,,,,,,,,2,,,45,0
86460,note_on,0,0,3,,,,,,,,,2,,,43,36
86460,note_on,30,0,1,,,,,,,,,0,,,57,0
86490,note_on,30,0,3,,,,,,,,,2,,,43,0
86490,note_on,0,0,3,,,,,,,,,2,,,45,36
86490,note_on,0,0,1,,,,,,,,,0,,,57,36
86490,note_on,30,0,1,,,,,,,,,0,,,55,0
86520,note_on,0,0,3,,,,,,,,,2,,,46,36
86520,note_on,30,0,1,,,,,,,,,0,,,57,0
86520,note_on,0,0,1,,,,,,,,,0,,,58,36
86520,note_on,30,0,3,,,,,,,,,2,,,45,0
86550,note_on,30,0,3,,,,,,,,,2,,,46,0
86550,note_on,0,0,3,,,,,,,,,2,,,43,36
86550,note_on,30,0,1,,,,,,,,,0,,,58,0
86550,note_on,0,0,1,,,,,,,,,0,,,55,36
86580,note_on,30,0,3,,,,,,,,,2,,,43,0
86580,note_on,0,0,3,,,,,,,,,2,,,46,36
86580,note_on,30,0,1,,,,,,,,,0,,,55,0
86580,note_on,0,0,1,,,,,,,,,0,,,58,36
86610,note_on,30,0,3,,,,,,,,,2,,,46,0
86610,control_change,0,0,3,,,,,,,,,2,64,0,,
86610,note_on,0,0,3,,,,,,,,,2,,,43,36
86610,note_on,0,0,1,,,,,,,,,0,,,55,36
86610,control_change,0,0,1,,,,,,,,,0,64,0,,
86610,note_on,30,0,1,,,,,,,,,0,,,58,0
86640,note_on,30,0,3,,,,,,,,,2,,,43,0
86640,control_change,0,0,3,,,,,,,,,2,64,127,,
86640,note_on,0,0,3,,,,,,,,,2,,,45,36
86640,note_on,0,0,2,,,,,,,,,1,,,61,36
86640,control_change,720,0,2,,,,,,,,,1,64,127,,
86640,note_on,0,0,2,,,,,,,,,1,,,64,36
86640,note_on,30,0,1,,,,,,,,,0,,,55,0
86640,control_change,0,0,1,,,,,,,,,0,64,127,,
86640,note_on,0,0,1,,,,,,,,,0,,,70,62
86640,note_on,0,0,2,,,,,,,,,1,,,67,36
86670,note_on,0,0,3,,,,,,,,,2,,,40,36
86670,note_on,30,0,3,,,,,,,,,2,,,45,0
86700,note_on,60,0,2,,,,,,,,,1,,,67,0
86700,note_on,0,0,3,,,,,,,,,2,,,33,36
86700,note_on,30,0,3,,,,,,,,,2,,,40,0
86700,note_on,60,0,1,,,,,,,,,0,,,70,0
86700,note_on,0,0,1,,,,,,,,,0,,,69,62
86700,note_on,0,0,2,,,,,,,,,1,,,67,36
86700,note_on,0,0,2,,,,,,,,,1,,,64,0
86700,note_on,0,0,2,,,,,,,,,1,,,61,0
86700,note_on,0,0,2,,,,,,,,,1,,,61,36
86700,note_on,0,0,2,,,,,,,,,1,,,64,36
86706,note_on,6,0,1,,,,,,,,,0,,,69,0
86730,note_on,0,0,3,,,,,,,,,2,,,40,36
86730,note_on,30,0,3,,,,,,,,,2,,,33,0
86760,note_on,0,0,2,,,,,,,,,1,,,64,0
86760,note_on,0,0,3,,,,,,,,,2,,,45,36
86760,note_on,30,0,3,,,,,,,,,2,,,40,0
86760,note_on,0,0,2,,,,,,,,,1,,,67,36
86760,note_on,54,0,1,,,,,,,,,0,,,69,62
86760,note_on,0,0,2,,,,,,,,,1,,,64,36
86760,note_on,0,0,2,,,,,,,,,1,,,61,36
86760,note_on,0,0,2,,,,,,,,,1,,,61,0
86760,note_on,60,0,2,,,,,,,,,1,,,67,0
86766,note_on,6,0,1,,,,,,,,,0,,,69,0
86790,note_on,30,0,3,,,,,,,,,2,,,45,0
86790,note_on,0,0,3,,,,,,,,,2,,,33,36
86820,control_change,54,0,1,,,,,,,,,0,64,0,,
86820,note_on,0,0,1,,,,,,,,,0,,,69,62
86820,note_on,0,0,2,,,,,,,,,1,,,67,36
86820,note_on,0,0,2,,,,,,,,,1,,,64,36
86820,note_on,30,0,3,,,,,,,,,2,,,33,0
86820,note_on,0,0,3,,,,,,,,,2,,,45,36
86820,note_on,0,0,2,,,,,,,,,1,,,61,36
86820,control_change,0,0,2,,,,,,,,,1,64,0,,
86820,note_on,0,0,2,,,,,,,,,1,,,61,0
86820,note_on,60,0,2,,,,,,,,,1,,,67,0
86820,note_on,0,0,2,,,,,,,,,1,,,64,0
86826,note_on,6,0,1,,,,,,,,,0,,,69,0
86850,note_on,0,0,3,,,,,,,,,2,,,33,36
86850,control_change,0,0,3,,,,,,,,,2,64,0,,
86850,note_on,30,0,3,,,,,,,,,2,,,45,0
86880,note_on,0,0,1,,,,,,,,,0,,,64,62
86880,note_on,60,0,2,,,,,,,,,1,,,67,0
86880,note_on,0,0,1,,,,,,,,,0,,,69,62
86880,note_on,30,0,3,,,,,,,,,2,,,33,0
86880,note_on,0,0,1,,,,,,,,,0,,,67,62
86880,note_on,54,0,1,,,,,,,,,0,,,61,62
86880,note_on,0,0,2,,,,,,,,,1,,,61,0
86880,note_on,0,0,2,,,,,,,,,1,,,64,0
86880,note_on,0,0,3,,,,,,,,,2,,,45,36
86880,control_change,0,0,3,,,,,,,,,2,64,127,,
86910,note_on,0,0,3,,,,,,,,,2,,,40,36
86910,note_on,30,0,3,,,,,,,,,2,,,45,0
86940,note_on,0,0,3,,,,,,,,,2,,,33,36
86940,note_on,30,0,3,,,,,,,,,2,,,40,0
86970,note_on,30,0,3,,,,,,,,,2,,,33,0
86970,note_on,0,0,3,,,,,,,,,2,,,40,36
87000,note_on,30,0,3,,,,,,,,,2,,,40,0
87000,note_on,0,0,3,,,,,,,,,2,,,45,36
87030,note_on,30,0,3,,,,,,,,,2,,,45,0
87030,note_on,0,0,3,,,,,,,,,2,,,33,36
87060,note_on,30,0,3,,,,,,,,,2,,,33,0
87060,note_on,0,0,3,,,,,,,,,2,,,45,36
87090,control_change,0,0,3,,,,,,,,,2,64,0,,
87090,note_on,30,0,3,,,,,,,,,2,,,45,0
87090,note_on,0,0,3,,,,,,,,,2,,,33,36
87120,note_on,0,0,1,,,,,,,,,0,,,58,62
87120,note_on,0,0,1,,,,,,,,,0,,,64,0
87120,note_on,0,0,1,,,,,,,,,0,,,61,0
87120,note_on,240,0,1,,,,,,,,,0,,,69,0
87120,note_on,0,0,1,,,,,,,,,0,,,67,0
87120,note_on,0,0,3,,,,,,,,,2,,,46,62
87120,control_change,0,0,3,,,,,,,,,2,64,127,,
87120,note_on,30,0,3,,,,,,,,,2,,,33,0
87120,control_change,0,0,1,,,,,,,,,0,64,127,,
87150,note_on,0,0,3,,,,,,,,,2,,,45,36
87150,note_on,30,0,3,,,,,,,,,2,,,46,0
87150,note_on,30,0,1,,,,,,,,,0,,,58,0
87150,note_on,0,0,1,,,,,,,,,0,,,57,36
87180,note_on,0,0,1,,,,,,,,,0,,,55,36
87180,note_on,0,0,3,,,,,,,,,2,,,43,36
87180,note_on,30,0,3,,,,,,,,,2,,,45,0
87180,note_on,30,0,1,,,,,,,,,0,,,57,0
87210,note_on,0,0,1,,,,,,,,,0,,,57,36
87210,note_on,30,0,1,,,,,,,,,0,,,55,0
87210,note_on,0,0,3,,,,,,,,,2,,,45,36
87210,note_on,30,0,3,,,,,,,,,2,,,43,0
87240,note_on,0,0,1,,,,,,,,,0,,,58,36
87240,note_on,30,0,1,,,,,,,,,0,,,57,0
87240,note_on,30,0,3,,,,,,,,,2,,,45,0
87240,note_on,0,0,3,,,,,,,,,2,,,46,36
87270,note_on,30,0,1,,,,,,,,,0,,,58,0
87270,note_on,0,0,1,,,,,,,,,0,,,55,36
87270,note_on,0,0,3,,,,,,,,,2,,,43,36
87270,note_on,30,0,3,,,,,,,,,2,,,46,0
87300,note_on,30,0,3,,,,,,,,,2,,,43,0
87300,note_on,0,0,3,,,,,,,,,2,,,46,36
87300,note_on,30,0,1,,,,,,,,,0,,,55,0
87300,note_on,0,0,1,,,,,,,,,0,,,58,36
87330,note_on,30,0,3,,,,,,,,,2,,,46,0
87330,note_on,30,0,1,,,,,,,,,0,,,58,0
87330,control_change,0,0,1,,,,,,,,,0,64,0,,
87330,note_on,0,0,1,,,,,,,,,0,,,55,36
87330,control_change,0,0,3,,,,,,,,,2,64,0,,
87330,note_on,0,0,3,,,,,,,,,2,,,43,36
87360,note_on,30,0,1,,,,,,,,,0,,,55,0
87360,control_change,0,0,1,,,,,,,,,0,64,127,,
87360,note_on,0,0,1,,,,,,,,,0,,,58,62
87360,control_change,0,0,3,,,,,,,,,2,64,127,,
87360,note_on,0,0,3,,,,,,,,,2,,,46,62
87360,note_on,30,0,3,,,,,,,,,2,,,43,0
87390,note_on,30,0,3,,,,,,,,,2,,,46,0
87390,note_on,30,0,1,,,,,,,,,0,,,58,0
87390,note_on,0,0,1,,,,,,,,,0,,,57,36
87390,note_on,0,0,3,,,,,,,,,2,,,45,36
87420,note_on,30,0,3,,,,,,,,,2,,,45,0
87420,note_on,0,0,1,,,,,,,,,0,,,55,36
87420,note_on,30,0,1,,,,,,,,,0,,,57,0
87420,note_on,0,0,3,,,,,,,,,2,,,43,36
87450,note_on,0,0,3,,,,,,,,,2,,,45,36
87450,note_on,0,0,1,,,,,,,,,0,,,57,36
87450,note_on,30,0,1,,,,,,,,,0,,,55,0
87450,note_on,30,0,3,,,,,,,,,2,,,43,0
87480,note_on,0,0,1,,,,,,,,,0,,,58,36
87480,note_on,30,0,1,,,,,,,,,0,,,57,0
87480,note_on,30,0,3,,,,,,,,,2,,,45,0
87480,note_on,0,0,3,,,,,,,,,2,,,46,36
87510,note_on,0,0,1,,,,,,,,,0,,,55,36
87510,note_on,30,0,3,,,,,,,,,2,,,46,0
87510,note_on,0,0,3,,,,,,,,,2,,,43,36
87510,note_on,30,0,1,,,,,,,,,0,,,58,0
87540,note_on,30,0,3,,,,,,,,,2,,,43,0
87540,note_on,0,0,3,,,,,,,,,2,,,46,36
87540,note_on,0,0,1,,,,,,,,,0,,,58,36
87540,note_on,30,0,1,,,,,,,,,0,,,55,0
87570,note_on,30,0,1,,,,,,,,,0,,,58,0
87570,control_change,0,0,1,,,,,,,,,0,64,0,,
87570,note_on,0,0,3,,,,,,,,,2,,,43,36
87570,control_change,0,0,3,,,,,,,,,2,64,0,,
87570,note_on,30,0,3,,,,,,,,,2,,,46,0
87570,note_on,0,0,1,,,,,,,,,0,,,55,36
87600,note_on,0,0,3,,,,,,,,,2,,,45,36
87600,control_change,0,0,3,,,,,,,,,2,64,127,,
87600,note_on,30,0,3,,,,,,,,,2,,,43,0
87600,note_on,30,0,1,,,,,,,,,0,,,55,0
87600,control_change,0,0,1,,,,,,,,,0,64,127,,
87600,note_on,0,0,1,,,,,,,,,0,,,70,62
87600,note_on,0,0,2,,,,,,,,,1,,,67,36
87600,note_on,0,0,2,,,,,,,,,1,,,64,36
87600,note_on,0,0,2,,,,,,,,,1,,,61,36
87600,control_change,720,0,2,,,,,,,,,1,64,127,,
87630,note_on,30,0,3,,,,,,,,,2,,,45,0
87630,note_on,0,0,3,,,,,,,,,2,,,40,36
87660,note_on,60,0,1,,,,,,,,,0,,,70,0
87660,note_on,0,0,1,,,,,,,,,0,,,69,62
87660,note_on,0,0,3,,,,,,,,,2,,,33,36
87660,note_on,0,0,2,,,,,,,,,1,,,61,0
87660,note_on,60,0,2,,,,,,,,,1,,,67,0
87660,note_on,0,0,2,,,,,,,,,1,,,64,0
87660,note_on,0,0,2,,,,,,,,,1,,,61,36
87660,note_on,0,0,2,,,,,,,,,1,,,64,36
87660,note_on,0,0,2,,,,,,,,,1,,,67,36
87660,note_on,30,0,3,,,,,,,,,2,,,40,0
87666,note_on,6,0,1,,,,,,,,,0,,,69,0
87690,note_on,30,0,3,,,,,,,,,2,,,33,0
87690,note_on,0,0,3,,,,,,,,,2,,,40,36
87720,note_on,54,0,1,,,,,,,,,0,,,69,62
87720,note_on,0,0,2,,,,,,,,,1,,,67,36
87720,note_on,0,0,2,,,,,,,,,1,,,61,0
87720,note_on,0,0,2,,,,,,,,,1,,,61,36
87720,note_on,0,0,2,,,,,,,,,1,,,64,36
87720,note_on,0,0,3,,,,,,,,,2,,,45,36
87720,note_on,30,0,3,,,,,,,,,2,,,40,0
87720,note_on,0,0,2,,,,,,,,,1,,,64,0
87720,note_on,60,0,2,,,,,,,,,1,,,67,0
87726,note_on,6,0,1,,,,,,,,,0,,,69,0
87750,note_on,0,0,3,,,,,,,,,2,,,33,36
87750,note_on,30,0,3,,,,,,,,,2,,,45,0
87780,control_change,54,0,1,,,,,,,,,0,64,0,,
87780,note_on,0,0,1,,,,,,,,,0,,,69,62
87780,note_on,0,0,3,,,,,,,,,2,,,45,36
87780,note_on,30,0,3,,,,,,,,,2,,,33,0
87780,note_on,0,0,2,,,,,,,,,1,,,67,36
87780,note_on,0,0,2,,,,,,,,,1,,,64,36
87780,note_on,0,0,2,,,,,,,,,1,,,61,36
87780,control_change,0,0,2,,,,,,,,,1,64,0,,
87780,note_on,0,0,2,,,,,,,,,1,,,61,0
87780,note_on,0,0,2,,,,,,,,,1,,,64,0
87780,note_on,60,0,2,,,,,,,,,1,,,67,0
87786,note_on,6,0,1,,,,,,,,,0,,,69,0
87810,control_change,0,0,3,,,,,,,,,2,64,0,,
87810,note_on,30,0,3,,,,,,,,,2,,,45,0
87810,note_on,0,0,3,,,,,,,,,2,,,33,36
87840,note_on,30,0,3,,,,,,,,,2,,,33,0
87840,note_on,0,0,2,,,,,,,,,1,,,61,0
87840,note_on,54,0,1,,,,,,,,,0,,,61,62
87840,note_on,0,0,1,,,,,,,,,0,,,64,62
87840,note_on,0,0,1,,,,,,,,,0,,,67,62
87840,note_on,0,0,3,,,,,,,,,2,,,45,36
87840,control_change,0,0,3,,,,,,,,,2,64,127,,
87840,note_on,0,0,2,,,,,,,,,1,,,64,0
87840,note_on,0,0,1,,,,,,,,,0,,,69,62
87840,note_on,60,0,2,,,,,,,,,1,,,67,0
87870,note_on,30,0,3,,,,,,,,,2,,,45,0
87870,note_on,0,0,3,,,,,,,,,2,,,40,36
87900,note_on,30,0,3,,,,,,,,,2,,,40,0
87900,note_on,0,0,3,,,,,,,,,2,,,33,36
87930,note_on,30,0,3,,,,,,,,,2,,,33,0
87930,note_on,0,0,3,,,,,,,,,2,,,40,36
87960,note_on,30,0,3,,,,,,,,,2,,,40,0
87960,note_on,0,0,3,,,,,,,,,2,,,45,36
87990,note_on,0,0,3,,,,,,,,,2,,,33,36
87990,note_on,30,0,3,,,,,,,,,2,,,45,0
88020,note_on,30,0,3,,,,,,,,,2,,,33,0
88020,note_on,0,0,3,,,,,,,,,2,,,45,36
88050,note_on,0,0,3,,,,,,,,,2,,,33,36
88050,note_on,30,0,3,,,,,,,,,2,,,45,0
88080,note_on,0,0,3,,,,,,,,,2,,,45,36
88080,note_on,30,0,3,,,,,,,,,2,,,33,0
88110,note_on,0,0,3,,,,,,,,,2,,,40,36
88110,note_on,30,0,3,,,,,,,,,2,,,45,0
88140,note_on,0,0,3,,,,,,,,,2,,,33,36
88140,note_on,30,0,3,,,,,,,,,2,,,40,0
88170,note_on,30,0,3,,,,,,,,,2,,,33,0
88170,note_on,0,0,3,,,,,,,,,2,,,40,36
88200,note_on,0,0,3,,,,,,,,,2,,,45,36
88200,note_on,30,0,3,,,,,,,,,2,,,40,0
88230,note_on,30,0,3,,,,,,,,,2,,,45,0
88230,note_on,0,0,3,,,,,,,,,2,,,33,36
88260,note_on,0,0,3,,,,,,,,,2,,,45,36
88260,note_on,30,0,3,,,,,,,,,2,,,33,0
88290,note_on,0,0,3,,,,,,,,,2,,,33,36
88290,control_change,0,0,3,,,,,,,,,2,64,0,,
88290,note_on,30,0,3,,,,,,,,,2,,,45,0
88320,note_on,0,0,3,,,,,,,,,2,,,45,36
88320,control_change,0,0,3,,,,,,,,,2,64,127,,
88320,note_on,30,0,3,,,,,,,,,2,,,33,0
88320,note_on,0,0,1,,,,,,,,,0,,,64,0
88320,control_change,0,0,1,,,,,,,,,0,64,127,,
88320,note_on,0,0,1,,,,,,,,,0,,,69,62
88320,note_on,0,0,1,,,,,,,,,0,,,67,0
88320,note_on,480,0,1,,,,,,,,,0,,,69,0
88320,note_on,0,0,1,,,,,,,,,0,,,61,0
88350,note_on,0,0,1,,,,,,,,,0,,,57,62
88350,note_on,30,0,1,,,,,,,,,0,,,69,0
88380,note_on,0,0,1,,,,,,,,,0,,,61,62
88380,note_on,30,0,1,,,,,,,,,0,,,57,0
88380,note_on,60,0,3,,,,,,,,,2,,,45,0
88410,note_on,0,0,1,,,,,,,,,0,,,64,62
88410,note_on,30,0,1,,,,,,,,,0,,,61,0
88440,note_on,0,0,3,,,,,,,,,2,,,55,36
88440,note_on,60,0,3,,,,,,,,,2,,,45,36
88440,note_on,0,0,3,,,,,,,,,2,,,52,36
88440,note_on,30,0,1,,,,,,,,,0,,,64,0
88440,note_on,0,0,1,,,,,,,,,0,,,69,62
88470,note_on,30,0,1,,,,,,,,,0,,,69,0
88470,note_on,0,0,1,,,,,,,,,0,,,57,62
88500,note_on,30,0,1,,,,,,,,,0,,,57,0
88500,note_on,0,0,1,,,,,,,,,0,,,69,62
88530,note_on,30,0,1,,,,,,,,,0,,,69,0
88530,note_on,0,0,1,,,,,,,,,0,,,57,62
88560,note_on,120,0,3,,,,,,,,,2,,,55,0
88560,note_on,30,0,1,,,,,,,,,0,,,57,0
88560,note_on,0,0,1,,,,,,,,,0,,,73,62
88560,note_on,0,0,3,,,,,,,,,2,,,52,0
88560,note_on,0,0,3,,,,,,,,,2,,,45,0
88590,note_on,0,0,1,,,,,,,,,0,,,61,62
88590,note_on,30,0,1,,,,,,,,,0,,,73,0
88620,note_on,0,0,1,,,,,,,,,0,,,64,62
88620,note_on,30,0,1,,,,,,,,,0,,,61,0
88650,note_on,0,0,1,,,,,,,,,0,,,69,62
88650,note_on,30,0,1,,,,,,,,,0,,,64,0
88680,note_on,120,0,3,,,,,,,,,2,,,45,36
88680,note_on,0,0,3,,,,,,,,,2,,,55,36
88680,note_on,0,0,1,,,,,,,,,0,,,73,62
88680,note_on,30,0,1,,,,,,,,,0,,,69,0
88680,note_on,0,0,3,,,,,,,,,2,,,52,36
88710,note_on,0,0,1,,,,,,,,,0,,,61,62
88710,note_on,30,0,1,,,,,,,,,0,,,73,0
88740,note_on,0,0,1,,,,,,,,,0,,,73,62
88740,note_on,30,0,1,,,,,,,,,0,,,61,0
88770,note_on,0,0,1,,,,,,,,,0,,,61,62
88770,note_on,30,0,1,,,,,,,,,0,,,73,0
88800,note_on,120,0,3,,,,,,,,,2,,,55,0
88800,note_on,0,0,3,,,,,,,,,2,,,52,0
88800,note_on,0,0,3,,,,,,,,,2,,,45,0
88800,note_on,0,0,1,,,,,,,,,0,,,76,75
88800,note_on,30,0,1,,,,,,,,,0,,,61,0
88830,note_on,0,0,1,,,,,,,,,0,,,64,75
88830,note_on,30,0,1,,,,,,,,,0,,,76,0
88860,note_on,30,0,1,,,,,,,,,0,,,64,0
88860,note_on,0,0,1,,,,,,,,,0,,,69,75
88890,note_on,0,0,1,,,,,,,,,0,,,73,75
88890,note_on,30,0,1,,,,,,,,,0,,,69,0
88920,note_on,120,0,3,,,,,,,,,2,,,45,62
88920,note_on,0,0,1,,,,,,,,,0,,,76,75
88920,note_on,30,0,1,,,,,,,,,0,,,73,0
88920,note_on,0,0,3,,,,,,,,,2,,,52,62
88920,note_on,0,0,3,,,,,,,,,2,,,55,62
88950,note_on,30,0,1,,,,,,,,,0,,,76,0
88950,note_on,0,0,1,,,,,,,,,0,,,64,75
88980,note_on,30,0,1,,,,,,,,,0,,,64,0
88980,note_on,0,0,1,,,,,,,,,0,,,76,75
89010,note_on,0,0,1,,,,,,,,,0,,,64,75
89010,note_on,30,0,1,,,,,,,,,0,,,76,0
89040,note_on,0,0,3,,,,,,,,,2,,,52,0
89040,note_on,0,0,3,,,,,,,,,2,,,45,0
89040,note_on,0,0,1,,,,,,,,,0,,,81,75
89040,note_on,120,0,3,,,,,,,,,2,,,55,0
89040,note_on,30,0,1,,,,,,,,,0,,,64,0
89070,note_on,30,0,1,,,,,,,,,0,,,81,0
89070,note_on,0,0,1,,,,,,,,,0,,,69,75
89100,note_on,30,0,1,,,,,,,,,0,,,69,0
89100,note_on,0,0,1,,,,,,,,,0,,,73,75
89130,note_on,30,0,1,,,,,,,,,0,,,73,0
89130,note_on,0,0,1,,,,,,,,,0,,,76,75
89160,control_change,120,0,3,,,,,,,,,2,64,0,,
89160,note_on,0,0,3,,,,,,,,,2,,,57,62
89160,note_on,0,0,3,,,,,,,,,2,,,61,62
89160,note_on,0,0,3,,,,,,,,,2,,,64,62
89160,note_on,30,0,1,,,,,,,,,0,,,76,0
89160,note_on,0,0,1,,,,,,,,,0,,,81,75
89190,note_on,30,0,1,,,,,,,,,0,,,81,0
89190,note_on,0,0,1,,,,,,,,,0,,,69,75
89220,note_on,30,0,1,,,,,,,,,0,,,69,0
89220,note_on,0,0,1,,,,,,,,,0,,,81,75
89250,control_change,0,0,1,,,,,,,,,0,64,0,,
89250,note_on,30,0,1,,,,,,,,,0,,,81,0
89250,note_on,0,0,1,,,,,,,,,0,,,69,75
89280,note_on,30,0,1,,,,,,,,,0,,,69,0
89280,note_on,0,0,3,,,,,,,,,2,,,57,0
89280,note_on,0,0,3,,,,,,,,,2,,,61,0
89280,note_on,120,0,3,,,,,,,,,2,,,64,0
89280,control_change,0,0,1,,,,,,,,,0,64,127,,
89280,note_on,0,0,1,,,,,,,,,0,,,81,75
89310,note_on,0,0,1,,,,,,,,,0,,,69,75
89310,note_on,30,0,1,,,,,,,,,0,,,81,0
89340,note_on,30,0,1,,,,,,,,,0,,,69,0
89340,note_on,0,0,1,,,,,,,,,0,,,75,75
89370,note_on,30,0,1,,,,,,,,,0,,,75,0
89370,note_on,0,0,1,,,,,,,,,0,,,78,75
89400,note_on,0,0,3,,,,,,,,,2,,,63,62
89400,note_on,0,0,3,,,,,,,,,2,,,66,62
89400,note_on,30,0,1,,,,,,,,,0,,,78,0
89400,note_on,0,0,1,,,,,,,,,0,,,81,75
89400,note_on,120,0,3,,,,,,,,,2,,,57,62
89430,note_on,30,0,1,,,,,,,,,0,,,81,0
89430,note_on,0,0,1,,,,,,,,,0,,,69,75
89460,note_on,30,0,1,,,,,,,,,0,,,69,0
89460,note_on,0,0,1,,,,,,,,,0,,,81,75
89490,control_change,0,0,1,,,,,,,,,0,64,0,,
89490,note_on,0,0,1,,,,,,,,,0,,,69,75
89490,note_on,30,0,1,,,,,,,,,0,,,81,0
89520,note_on,0,0,3,,,,,,,,,2,,,63,0
89520,note_on,30,0,1,,,,,,,,,0,,,69,0
89520,note_on,120,0,3,,,,,,,,,2,,,66,0
89520,note_on,0,0,1,,,,,,,,,0,,,81,75
89520,note_on,0,0,3,,,,,,,,,2,,,57,0
89520,control_change,0,0,1,,,,,,,,,0,64,127,,
89550,note_on,30,0,1,,,,,,,,,0,,,81,0
89550,note_on,0,0,1,,,,,,,,,0,,,69,75
89580,note_on,30,0,1,,,,,,,,,0,,,69,0
89580,note_on,0,0,1,,,,,,,,,0,,,76,75
89610,note_on,30,0,1,,,,,,,,,0,,,76,0
89610,note_on,0,0,1,,,,,,,,,0,,,79,75
89640,note_on,30,0,1,,,,,,,,,0,,,79,0
89640,note_on,0,0,1,,,,,,,,,0,,,81,75
89640,note_on,0,0,3,,,,,,,,,2,,,67,62
89640,note_on,0,0,3,,,,,,,,,2,,,64,62
89640,note_on,120,0,3,,,,,,,,,2,,,57,62
89670,note_on,0,0,1,,,,,,,,,0,,,69,75
89670,note_on,30,0,1,,,,,,,,,0,,,81,0
89700,note_on,0,0,1,,,,,,,,,0,,,81,75
89700,note_on,30,0,1,,,,,,,,,0,,,69,0
89730,control_change,0,0,1,,,,,,,,,0,64,0,,
89730,note_on,0,0,1,,,,,,,,,0,,,69,75
89730,note_on,30,0,1,,,,,,,,,0,,,81,0
89760,note_on,0,0,3,,,,,,,,,2,,,57,0
89760,control_change,0,0,1,,,,,,,,,0,64,127,,
89760,note_on,120,0,3,,,,,,,,,2,,,67,0
89760,note_on,0,0,3,,,,,,,,,2,,,64,0
89760,note_on,0,0,1,,,,,,,,,0,,,81,75
89760,note_on,30,0,1,,,,,,,,,0,,,69,0
89790,note_on,0,0,1,,,,,,,,,0,,,69,75
89790,note_on,30,0,1,,,,,,,,,0,,,81,0
89820,note_on,0,0,1,,,,,,,,,0,,,76,75
89820,note_on,30,0,1,,,,,,,,,0,,,69,0
89850,note_on,30,0,1,,,,,,,,,0,,,76,0
89850,note_on,0,0,1,,,,,,,,,0,,,79,75
89880,note_on,30,0,1,,,,,,,,,0,,,79,0
89880,note_on,0,0,1,,,,,,,,,0,,,81,75
89880,note_on,0,0,3,,,,,,,,,2,,,64,62
89880,note_on,120,0,3,,,,,,,,,2,,,57,62
89880,note_on,0,0,3,,,,,,,,,2,,,67,62
89910,note_on,0,0,1,,,,,,,,,0,,,69,75
89910,note_on,30,0,1,,,,,,,,,0,,,81,0
89940,note_on,30,0,1,,,,,,,,,0,,,69,0
89940,note_on,0,0,1,,,,,,,,,0,,,81,75
89970,note_on,30,0,1,,,,,,,,,0,,,81,0
89970,note_on,0,0,1,,,,,,,,,0,,,69,75
90000,note_on,0,0,1,,,,,,,,,0,,,81,75
90000,note_on,30,0,1,,,,,,,,,0,,,69,0
90030,note_on,0,0,1,,,,,,,,,0,,,73,75
90030,note_on,30,0,1,,,,,,,,,0,,,81,0
90060,note_on,0,0,1,,,,,,,,,0,,,81,75
90060,note_on,30,0,1,,,,,,,,,0,,,73,0
90090,note_on,30,0,1,,,,,,,,,0,,,81,0
90090,note_on,0,0,1,,,,,,,,,0,,,73,75
90120,note_on,30,0,1,,,,,,,,,0,,,73,0
90120,note_on,0,0,1,,,,,,,,,0,,,81,75
90150,note_on,30,0,1,,,,,,,,,0,,,81,0
90150,note_on,0,0,1,,,,,,,,,0,,,76,75
90180,note_on,0,0,1,,,,,,,,,0,,,81,75
90180,note_on,30,0,1,,,,,,,,,0,,,76,0
90210,note_on,30,0,1,,,,,,,,,0,,,81,0
90210,note_on,0,0,1,,,,,,,,,0,,,76,75
90240,note_on,30,0,1,,,,,,,,,0,,,76,0
90240,note_on,0,0,1,,,,,,,,,0,,,81,49
90240,note_on,0,0,3,,,,,,,,,2,,,57,0
90240,note_on,360,0,3,,,,,,,,,2,,,67,0
90240,note_on,0,0,3,,,,,,,,,2,,,64,0
90270,note_on,0,0,1,,,,,,,,,0,,,79,49
90270,note_on,30,0,1,,,,,,,,,0,,,81,0
90300,note_on,30,0,1,,,,,,,,,0,,,79,0
90300,note_on,0,0,1,,,,,,,,,0,,,81,49
90330,note_on,30,0,1,,,,,,,,,0,,,81,0
90330,note_on,0,0,1,,,,,,,,,0,,,79,49
90360,note_on,30,0,1,,,,,,,,,0,,,79,0
90360,control_change,0,0,1,,,,,,,,,0,64,0,,
90360,note_on,0,0,1,,,,,,,,,0,,,81,49
90390,note_on,0,0,1,,,,,,,,,0,,,80,49
90390,note_on,30,0,1,,,,,,,,,0,,,81,0
90420,note_on,30,0,1,,,,,,,,,0,,,80,0
90420,note_on,0,0,1,,,,,,,,,0,,,81,49
90450,note_on,30,0,1,,,,,,,,,0,,,81,0
90450,note_on,0,0,1,,,,,,,,,0,,,80,49
90480,note_on,30,0,1,,,,,,,,,0,,,80,0
90480,control_change,0,0,1,,,,,,,,,0,64,127,,
90480,note_on,0,0,1,,,,,,,,,0,,,83,62
90510,note_on,30,0,1,,,,,,,,,0,,,83,0
90510,note_on,0,0,1,,,,,,,,,0,,,81,62
90540,note_on,0,0,1,,,,,,,,,0,,,83,62
90540,note_on,30,0,1,,,,,,,,,0,,,81,0
90570,note_on,30,0,1,,,,,,,,,0,,,83,0
90570,note_on,0,0,1,,,,,,,,,0,,,81,62
90600,note_on,30,0,1,,,,,,,,,0,,,81,0
90600,note_on,0,0,1,,,,,,,,,0,,,83,62
90630,note_on,30,0,1,,,,,,,,,0,,,83,0
90630,note_on,0,0,1,,,,,,,,,0,,,81,62
90660,note_on,30,0,1,,,,,,,,,0,,,81,0
90660,note_on,0,0,1,,,,,,,,,0,,,83,62
90690,note_on,30,0,1,,,,,,,,,0,,,83,0
90690,note_on,0,0,1,,,,,,,,,0,,,81,62
90720,note_on,0,0,1,,,,,,,,,0,,,83,75
90720,note_on,30,0,1,,,,,,,,,0,,,81,0
90750,note_on,30,0,1,,,,,,,,,0,,,83,0
90750,note_on,0,0,1,,,,,,,,,0,,,81,75
90780,note_on,30,0,1,,,,,,,,,0,,,81,0
90780,note_on,0,0,1,,,,,,,,,0,,,83,75
90810,note_on,30,0,1,,,,,,,,,0,,,83,0
90810,note_on,0,0,1,,,,,,,,,0,,,81,75
90840,note_on,30,0,1,,,,,,,,,0,,,81,0
90840,note_on,0,0,1,,,,,,,,,0,,,83,75
90870,note_on,30,0,1,,,,,,,,,0,,,83,0
90870,note_on,0,0,1,,,,,,,,,0,,,81,75
90900,note_on,0,0,1,,,,,,,,,0,,,83,75
90900,note_on,30,0,1,,,,,,,,,0,,,81,0
90930,note_on,30,0,1,,,,,,,,,0,,,83,0
90930,note_on,0,0,1,,,,,,,,,0,,,81,75
90960,note_on,30,0,1,,,,,,,,,0,,,81,0
90960,note_on,0,0,1,,,,,,,,,0,,,83,75
90990,note_on,0,0,1,,,,,,,,,0,,,81,75
90990,note_on,30,0,1,,,,,,,,,0,,,83,0
91020,note_on,30,0,1,,,,,,,,,0,,,81,0
91020,note_on,0,0,1,,,,,,,,,0,,,86,75
91050,note_on,30,0,1,,,,,,,,,0,,,86,0
91050,note_on,0,0,1,,,,,,,,,0,,,81,75
91080,note_on,0,0,1,,,,,,,,,0,,,80,62
91080,control_change,0,0,1,,,,,,,,,0,64,0,,
91080,note_on,30,0,1,,,,,,,,,0,,,81,0
91110,note_on,30,0,1,,,,,,,,,0,,,80,0
91110,note_on,0,0,1,,,,,,,,,0,,,83,62
91140,note_on,30,0,1,,,,,,,,,0,,,83,0
91140,note_on,0,0,1,,,,,,,,,0,,,81,62
91170,note_on,30,0,1,,,,,,,,,0,,,81,0
91170,note_on,0,0,1,,,,,,,,,0,,,78,62
91200,note_on,30,0,1,,,,,,,,,0,,,78,0
91200,control_change,0,0,1,,,,,,,,,0,64,127,,
91200,note_on,0,0,1,,,,,,,,,0,,,74,75
91200,control_change,960,0,3,,,,,,,,,2,64,127,,
91200,note_on,0,0,3,,,,,,,,,2,,,66,62
91200,note_on,0,0,3,,,,,,,,,2,,,62,54
91200,set_tempo,32160,1,0,,,,,,434783,,,,,,,
91206,note_on,6,0,3,,,,,,,,,2,,,66,0
91206,note_on,0,0,3,,,,,,,,,2,,,62,0
91260,note_on,0,0,1,,,,,,,,,0,,,76,49
91260,note_on,60,0,1,,,,,,,,,0,,,74,0
91260,note_on,54,0,3,,,,,,,,,2,,,57,36
91260,note_on,0,0,3,,,,,,,,,2,,,66,36
91266,note_on,0,0,3,,,,,,,,,2,,,57,0
91266,note_on,6,0,3,,,,,,,,,2,,,66,0
91290,note_on,0,0,1,,,,,,,,,0,,,74,49
91290,note_on,30,0,1,,,,,,,,,0,,,76,0
91320,note_on,54,0,3,,,,,,,,,2,,,62,36
91320,note_on,0,0,3,,,,,,,,,2,,,66,36
91320,note_on,30,0,1,,,,,,,,,0,,,74,0
91320,note_on,0,0,1,,,,,,,,,0,,,76,49
91326,note_on,6,0,3,,,,,,,,,2,,,66,0
91326,note_on,0,0,3,,,,,,,,,2,,,62,0
91350,note_on,30,0,1,,,,,,,,,0,,,76,0
91350,note_on,0,0,1,,,,,,,,,0,,,74,49
91380,note_on,0,0,3,,,,,,,,,2,,,57,36
91380,note_on,0,0,3,,,,,,,,,2,,,66,36
91380,note_on,30,0,1,,,,,,,,,0,,,74,0
91380,note_on,0,0,1,,,,,,,,,0,,,78,49
91380,control_change,54,0,3,,,,,,,,,2,64,0,,
91386,note_on,6,0,3,,,,,,,,,2,,,66,0
91386,note_on,0,0,3,,,,,,,,,2,,,57,0
91410,note_on,0,0,1,,,,,,,,,0,,,76,49
91410,control_change,0,0,1,,,,,,,,,0,64,0,,
91410,note_on,30,0,1,,,,,,,,,0,,,78,0
91440,control_change,0,0,1,,,,,,,,,0,64,127,,
91440,note_on,0,0,1,,,,,,,,,0,,,74,49
91440,note_on,30,0,1,,,,,,,,,0,,,76,0
91440,note_on,0,0,3,,,,,,,,,2,,,64,36
91440,note_on,0,0,3,,,,,,,,,2,,,67,36
91440,control_change,54,0,3,,,,,,,,,2,64,127,,
91446,note_on,0,0,3,,,,,,,,,2,,,64,0
91446,note_on,6,0,3,,,,,,,,,2,,,67,0
91470,note_on,30,0,1,,,,,,,,,0,,,74,0
91470,note_on,0,0,1,,,,,,,,,0,,,73,49
91500,note_on,54,0,3,,,,,,,,,2,,,57,36
91500,note_on,30,0,1,,,,,,,,,0,,,73,0
91500,note_on,0,0,3,,,,,,,,,2,,,67,36
91500,note_on,0,0,1,,,,,,,,,0,,,71,49
91506,note_on,0,0,3,,,,,,,,,2,,,57,0
91506,note_on,6,0,3,,,,,,,,,2,,,67,0
91530,note_on,0,0,1,,,,,,,,,0,,,69,49
91530,note_on,30,0,1,,,,,,,,,0,,,71,0
91560,note_on,30,0,1,,,,,,,,,0,,,69,0
91560,note_on,0,0,1,,,,,,,,,0,,,71,49
91560,note_on,54,0,3,,,,,,,,,2,,,61,36
91560,note_on,0,0,3,,,,,,,,,2,,,67,36
91566,note_on,6,0,3,,,,,,,,,2,,,67,0
91566,note_on,0,0,3,,,,,,,,,2,,,61,0
91590,note_on,30,0,1,,,,,,,,,0,,,71,0
91590,note_on,0,0,1,,,,,,,,,0,,,73,49
91620,note_on,0,0,3,,,,,,,,,2,,,57,36
91620,note_on,30,0,1,,,,,,,,,0,,,73,0
91620,note_on,0,0,1,,,,,,,,,0,,,74,49
91620,control_change,54,0,3,,,,,,,,,2,64,0,,
91620,note_on,0,0,3,,,,,,,,,2,,,67,36
91626,note_on,0,0,3,,,,,,,,,2,,,57,0
91626,note_on,6,0,3,,,,,,,,,2,,,67,0
91650,note_on,0,0,1,,,,,,,,,0,,,76,49
91650,note_on,30,0,1,,,,,,,,,0,,,74,0
91650,control_change,0,0,1,,,,,,,,,0,64,0,,
91680,note_on,30,0,1,,,,,,,,,0,,,76,0
91680,note_on,0,0,3,,,,,,,,,2,,,66,36
91680,note_on,0,0,3,,,,,,,,,2,,,62,36
91680,control_change,54,0,3,,,,,,,,,2,64,127,,
91680,note_on,0,0,1,,,,,,,,,0,,,69,49
91680,control_change,0,0,1,,,,,,,,,0,64,127,,
91686,note_on,0,0,3,,,,,,,,,2,,,62,0
91686,note_on,6,0,3,,,,,,,,,2,,,66,0
91740,note_on,54,0,3,,,,,,,,,2,,,57,36
91740,note_on,0,0,3,,,,,,,,,2,,,66,36
91740,note_on,0,0,1,,,,,,,,,0,,,71,49
91740,note_on,60,0,1,,,,,,,,,0,,,69,0
91746,note_on,6,0,3,,,,,,,,,2,,,66,0
91746,note_on,0,0,3,,,,,,,,,2,,,57,0
91770,note_on,30,0,1,,,,,,,,,0,,,71,0
91770,note_on,0,0,1,,,,,,,,,0,,,69,49
91800,note_on,54,0,3,,,,,,,,,2,,,62,36
91800,note_on,0,0,3,,,,,,,,,2,,,66,36
91800,note_on,30,0,1,,,,,,,,,0,,,69,0
91800,note_on,0,0,1,,,,,,,,,0,,,71,49
91806,note_on,6,0,3,,,,,,,,,2,,,66,0
91806,note_on,0,0,3,,,,,,,,,2,,,62,0
91830,note_on,0,0,1,,,,,,,,,0,,,69,49
91830,note_on,30,0,1,,,,,,,,,0,,,71,0
91860,note_on,0,0,1,,,,,,,,,0,,,78,49
91860,note_on,30,0,1,,,,,,,,,0,,,69,0
91860,control_change,54,0,3,,,,,,,,,2,64,0,,
91860,note_on,0,0,3,,,,,,,,,2,,,57,36
91860,note_on,0,0,3,,,,,,,,,2,,,66,36
91866,note_on,0,0,3,,,,,,,,,2,,,57,0
91866,note_on,6,0,3,,,,,,,,,2,,,66,0
91890,note_on,0,0,1,,,,,,,,,0,,,74,49
91890,control_change,0,0,1,,,,,,,,,0,64,0,,
91890,note_on,30,0,1,,,,,,,,,0,,,78,0
91920,control_change,0,0,1,,,,,,,,,0,64,127,,
91920,note_on,0,0,3,,,,,,,,,2,,,64,36
91920,note_on,0,0,1,,,,,,,,,0,,,73,49
91920,control_change,54,0,3,,,,,,,,,2,64,127,,
91920,note_on,0,0,3,,,,,,,,,2,,,67,36
91920,note_on,30,0,1,,,,,,,,,0,,,74,0
91926,note_on,0,0,3,,,,,,,,,2,,,64,0
91926,note_on,6,0,3,,,,,,,,,2,,,67,0
91950,note_on,30,0,1,,,,,,,,,0,,,73,0
91950,note_on,0,0,1,,,,,,,,,0,,,74,49
91980,note_on,54,0,3,,,,,,,,,2,,,57,36
91980,note_on,0,0,1,,,,,,,,,0,,,76,49
91980,note_on,0,0,3,,,,,,,,,2,,,67,36
91980,note_on,30,0,1,,,,,,,,,0,,,74,0
91986,note_on,0,0,3,,,,,,,,,2,,,57,0
91986,note_on,6,0,3,,,,,,,,,2,,,67,0
92010,note_on,30,0,1,,,,,,,,,0,,,76,0
92010,note_on,0,0,1,,,,,,,,,0,,,78,49
92040,note_on,0,0,1,,,,,,,,,0,,,79,49
92040,note_on,0,0,3,,,,,,,,,2,,,67,36
92040,note_on,30,0,1,,,,,,,,,0,,,78,0
92040,note_on,54,0,3,,,,,,,,,2,,,61,36
92046,note_on,0,0,3,,,,,,,,,2,,,61,0
92046,note_on,6,0,3,,,,,,,,,2,,,67,0
92070,note_on,0,0,1,,,,,,,,,0,,,81,49
92070,note_on,30,0,1,,,,,,,,,0,,,79,0
92100,note_on,0,0,3,,,,,,,,,2,,,67,36
92100,control_change,54,0,3,,,,,,,,,2,64,0,,
92100,note_on,30,0,1,,,,,,,,,0,,,81,0
92100,note_on,0,0,1,,,,,,,,,0,,,83,49
92100,note_on,0,0,3,,,,,,,,,2,,,57,36
92106,note_on,6,0,3,,,,,,,,,2,,,67,0
92106,note_on,0,0,3,,,,,,,,,2,,,57,0
92130,note_on,30,0,1,,,,,,,,,0,,,83,0
92130,control_change,0,0,1,,,,,,,,,0,64,0,,
92130,note_on,0,0,1,,,,,,,,,0,,,81,49
92160,note_on,0,0,3,,,,,,,,,2,,,66,62
92160,note_on,0,0,1,,,,,,,,,0,,,81,75
92160,control_change,0,0,1,,,,,,,,,0,64,127,,
92160,note_on,30,0,1,,,,,,,,,0,,,81,0
92160,note_on,0,0,3,,,,,,,,,2,,,62,54
92160,control_change,54,0,3,,,,,,,,,2,64,127,,
92166,note_on,0,0,3,,,,,,,,,2,,,62,0
92166,note_on,6,0,3,,,,,,,,,2,,,66,0
92220,note_on,54,0,3,,,,,,,,,2,,,57,36
92220,note_on,0,0,3,,,,,,,,,2,,,66,36
92220,note_on,60,0,1,,,,,,,,,0,,,81,0
92220,note_on,0,0,1,,,,,,,,,0,,,83,49
92226,note_on,0,0,3,,,,,,,,,2,,,57,0
92226,note_on,6,0,3,,,,,,,,,2,,,66,0
92250,note_on,0,0,1,,,,,,,,,0,,,81,49
92250,note_on,30,0,1,,,,,,,,,0,,,83,0
92280,note_on,30,0,1,,,,,,,,,0,,,81,0
92280,note_on,0,0,1,,,,,,,,,0,,,83,49
92280,note_on,0,0,3,,,,,,,,,2,,,66,36
92280,note_on,54,0,3,,,,,,,,,2,,,62,36
92286,note_on,6,0,3,,,,,,,,,2,,,66,0
92286,note_on,0,0,3,,,,,,,,,2,,,62,0
92310,note_on,0,0,1,,,,,,,,,0,,,81,49
92310,note_on,30,0,1,,,,,,,,,0,,,83,0
92340,note_on,0,0,3,,,,,,,,,2,,,57,36
92340,note_on,0,0,1,,,,,,,,,0,,,86,49
92340,note_on,0,0,3,,,,,,,,,2,,,66,36
92340,control_change,54,0,3,,,,,,,,,2,64,0,,
92340,note_on,30,0,1,,,,,,,,,0,,,81,0
92346,note_on,6,0,3,,,,,,,,,2,,,66,0
92346,note_on,0,0,3,,,,,,,,,2,,,57,0
92370,note_on,30,0,1,,,,,,,,,0,,,86,0
92370,control_change,0,0,1,,,,,,,,,0,64,0,,
92370,note_on,0,0,1,,,,,,,,,0,,,85,49
92385,note_on,0,0,1,,,,,,,,,0,,,83,49
92385,note_on,15,0,1,,,,,,,,,0,,,85,0
92392,note_on,7,0,1,,,,,,,,,0,,,85,49
92393,note_on,1,0,1,,,,,,,,,0,,,83,0
92400,note_on,7,0,1,,,,,,,,,0,,,85,0
92400,control_change,54,0,3,,,,,,,,,2,64,127,,
92400,note_on,0,0,3,,,,,,,,,2,,,62,36
92400,note_on,0,0,3,,,,,,,,,2,,,67,36
92400,note_on,0,0,1,,,,,,,,,0,,,83,49
92400,control_change,0,0,1,,,,,,,,,0,64,127,,
92406,note_on,6,0,3,,,,,,,,,2,,,67,0
92406,note_on,0,0,3,,,,,,,,,2,,,62,0
92430,note_on,0,0,1,,,,,,,,,0,,,82,49
92430,note_on,30,0,1,,,,,,,,,0,,,83,0
92460,note_on,30,0,1,,,,,,,,,0,,,82,0
92460,note_on,54,0,3,,,,,,,,,2,,,55,36
92460,note_on,0,0,3,,,,,,,,,2,,,62,36
92460,note_on,0,0,1,,,,,,,,,0,,,83,49
92460,note_on,0,0,3,,,,,,,,,2,,,67,36
92466,note_on,6,0,3,,,,,,,,,2,,,67,0
92466,note_on,0,0,3,,,,,,,,,2,,,62,0
92466,note_on,0,0,3,,,,,,,,,2,,,55,0
92490,note_on,30,0,1,,,,,,,,,0,,,83,0
92490,note_on,0,0,1,,,,,,,,,0,,,85,49
92520,note_on,30,0,1,,,,,,,,,0,,,85,0
92520,note_on,0,0,1,,,,,,,,,0,,,83,49
92520,note_on,0,0,3,,,,,,,,,2,,,67,36
92520,note_on,54,0,3,,,,,,,,,2,,,62,36
92526,note_on,0,0,3,,,,,,,,,2,,,62,0
92526,note_on,6,0,3,,,,,,,,,2,,,67,0
92550,note_on,0,0,1,,,,,,,,,0,,,91,49
92550,note_on,30,0,1,,,,,,,,,0,,,83,0
92580,note_on,0,0,1,,,,,,,,,0,,,86,49
92580,note_on,30,0,1,,,,,,,,,0,,,91,0
92580,note_on,0,0,3,,,,,,,,,2,,,62,36
92580,control_change,54,0,3,,,,,,,,,2,64,0,,
92580,note_on,0,0,3,,,,,,,,,2,,,67,36
92580,note_on,0,0,3,,,,,,,,,2,,,59,36
92586,note_on,0,0,3,,,,,,,,,2,,,59,0
92586,note_on,0,0,3,,,,,,,,,2,,,62,0
92586,note_on,6,0,3,,,,,,,,,2,,,67,0
92610,note_on,30,0,1,,,,,,,,,0,,,86,0
92610,control_change,0,0,1,,,,,,,,,0,64,0,,
92610,note_on,0,0,1,,,,,,,,,0,,,83,49
92640,control_change,0,0,2,,,,,,,,,1,64,127,,
92640,control_change,0,0,2,,,,,,,,,1,64,127,,
92640,control_change,0,0,2,,,,,,,,,1,64,0,,
92640,control_change,4800,0,2,,,,,,,,,1,64,0,,
92640,key_signature,1440,1,0,,,,,D,,,,,,,,
92640,control_change,21414,0,4,,,,,,,,,3,64,0,,
92640,control_change,0,0,3,,,,,,,,,2,64,127,,
92640,control_change,0,0,4,,,,,,,,,3,64,127,,
92640,control_change,0,0,1,,,,,,,,,0,64,127,,
92640,control_change,0,0,1,,,,,,,,,0,64,127,,
92640,control_change,0,0,1,,,,,,,,,0,64,0,,
92640,control_change,0,0,1,,,,,,,,,0,64,0,,
92640,note_on,30,0,1,,,,,,,,,0,,,83,0
92640,control_change,0,0,4,,,,,,,,,3,64,0,,
92640,control_change,0,0,1,,,,,,,,,0,64,127,,
92640,note_on,0,0,3,,,,,,,,,2,,,66,62
92640,control_change,0,0,3,,,,,,,,,2,64,127,,
92640,control_change,0,0,3,,,,,,,,,2,64,127,,
92640,control_change,0,0,3,,,,,,,,,2,64,0,,
92640,control_change,54,0,3,,,,,,,,,2,64,0,,
92640,control_change,0,0,4,,,,,,,,,3,64,127,,
92640,control_change,0,0,4,,,,,,,,,3,64,127,,
92640,note_on,0,0,3,,,,,,,,,2,,,62,54
92640,note_on,0,0,1,,,,,,,,,0,,,81,75
92646,note_on,6,0,3,,,,,,,,,2,,,66,0
92646,note_on,0,0,3,,,,,,,,,2,,,62,0
92700,note_on,0,0,1,,,,,,,,,0,,,83,49
92700,note_on,0,0,3,,,,,,,,,2,,,66,36
92700,note_on,60,0,1,,,,,,,,,0,,,81,0
92700,note_on,54,0,3,,,,,,,,,2,,,57,36
92706,note_on,0,0,3,,,,,,,,,2,,,57,0
92706,note_on,6,0,3,,,,,,,,,2,,,66,0
92730,note_on,0,0,1,,,,,,,,,0,,,81,49
92730,note_on,30,0,1,,,,,,,,,0,,,83,0
92760,note_on,30,0,1,,,,,,,,,0,,,81,0
92760,note_on,0,0,1,,,,,,,,,0,,,83,49
92760,note_on,0,0,3,,,,,,,,,2,,,66,36
92760,note_on,54,0,3,,,,,,,,,2,,,62,36
92766,note_on,0,0,3,,,,,,,,,2,,,62,0
92766,note_on,6,0,3,,,,,,,,,2,,,66,0
92790,note_on,30,0,1,,,,,,,,,0,,,83,0
92790,note_on,0,0,1,,,,,,,,,0,,,81,49
92820,note_on,30,0,1,,,,,,,,,0,,,81,0
92820,control_change,54,0,3,,,,,,,,,2,64,0,,
92820,note_on,0,0,3,,,,,,,,,2,,,66,36
92820,note_on,0,0,1,,,,,,,,,0,,,83,49
92820,note_on,0,0,3,,,,,,,,,2,,,57,36
92826,note_on,6,0,3,,,,,,,,,2,,,66,0
92826,note_on,0,0,3,,,,,,,,,2,,,57,0
92850,control_change,0,0,1,,,,,,,,,0,64,0,,
92850,note_on,0,0,1,,,,,,,,,0,,,81,49
92850,note_on,30,0,1,,,,,,,,,0,,,83,0
92869,control_change,229,0,4,,,,,,,,,3,64,0,,
92880,note_on,0,0,3,,,,,,,,,2,,,66,36
92880,control_change,54,0,3,,,,,,,,,2,64,127,,
92880,note_on,0,0,3,,,,,,,,,2,,,62,36
92880,note_on,0,0,1,,,,,,,,,0,,,83,75
92880,note_on,30,0,1,,,,,,,,,0,,,81,0
92880,control_change,0,0,1,,,,,,,,,0,64,127,,
92883,control_change,14,0,4,,,,,,,,,3,64,127,,
92886,note_on,6,0,3,,,,,,,,,2,,,66,0
92886,note_on,0,0,3,,,,,,,,,2,,,62,0
92910,note_on,30,0,1,,,,,,,,,0,,,83,0
92910,note_on,0,0,1,,,,,,,,,0,,,81,75
92940,note_on,30,0,1,,,,,,,,,0,,,81,0
92940,note_on,0,0,1,,,,,,,,,0,,,86,75
92940,note_on,0,0,3,,,,,,,,,2,,,66,36
92940,note_on,54,0,3,,,,,,,,,2,,,57,36
92946,note_on,0,0,3,,,,,,,,,2,,,57,0
92946,note_on,6,0,3,,,,,,,,,2,,,66,0
92970,note_on,30,0,1,,,,,,,,,0,,,86,0
92970,note_on,0,0,1,,,,,,,,,0,,,81,75
93000,note_on,0,0,1,,,,,,,,,0,,,80,62
93000,note_on,0,0,3,,,,,,,,,2,,,66,36
93000,note_on,54,0,3,,,,,,,,,2,,,62,36
93000,note_on,30,0,1,,,,,,,,,0,,,81,0
93006,note_on,6,0,3,,,,,,,,,2,,,66,0
93006,note_on,0,0,3,,,,,,,,,2,,,62,0
93030,note_on,0,0,1,,,,,,,,,0,,,83,62
93030,note_on,30,0,1,,,,,,,,,0,,,80,0
93060,note_on,0,0,3,,,,,,,,,2,,,57,36
93060,control_change,54,0,3,,,,,,,,,2,64,0,,
93060,note_on,0,0,3,,,,,,,,,2,,,66,36
93060,note_on,0,0,1,,,,,,,,,0,,,81,62
93060,note_on,30,0,1,,,,,,,,,0,,,83,0
93066,note_on,0,0,3,,,,,,,,,2,,,57,0
93066,note_on,6,0,3,,,,,,,,,2,,,66,0
93090,control_change,0,0,1,,,,,,,,,0,64,0,,
93090,note_on,30,0,1,,,,,,,,,0,,,81,0
93090,note_on,0,0,1,,,,,,,,,0,,,78,62
93105,control_change,222,0,4,,,,,,,,,3,64,0,,
93120,control_change,0,0,2,,,,,,,,,1,64,127,,
93120,control_change,480,0,2,,,,,,,,,1,64,127,,
93120,note_on,30,0,1,,,,,,,,,0,,,78,0
93120,control_change,0,0,3,,,,,,,,,2,64,127,,
93120,control_change,0,0,1,,,,,,,,,0,64,127,,
93120,note_on,0,0,1,,,,,,,,,0,,,74,88
93120,control_change,15,0,4,,,,,,,,,3,64,127,,
93120,control_change,0,0,4,,,,,,,,,3,64,127,,
93120,control_change,54,0,3,,,,,,,,,2,64,127,,
93120,control_change,0,0,3,,,,,,,,,2,64,127,,
93120,control_change,0,0,1,,,,,,,,,0,64,127,,
93120,note_on,0,0,3,,,,,,,,,2,,,62,54
93120,control_change,0,0,1,,,,,,,,,0,64,127,,
93120,note_on,0,0,3,,,,,,,,,2,,,66,62
93126,note_on,6,0,3,,,,,,,,,2,,,66,0
93126,note_on,0,0,3,,,,,,,,,2,,,62,0
93180,note_on,54,0,3,,,,,,,,,2,,,57,36
93180,note_on,0,0,3,,,,,,,,,2,,,66,36
93180,note_on,60,0,1,,,,,,,,,0,,,74,0
93180,note_on,0,0,1,,,,,,,,,0,,,76,62
93186,note_on,6,0,3,,,,,,,,,2,,,66,0
93186,note_on,0,0,3,,,,,,,,,2,,,57,0
93210,note_on,30,0,1,,,,,,,,,0,,,76,0
93210,note_on,0,0,1,,,,,,,,,0,,,74,62
93240,note_on,0,0,3,,,,,,,,,2,,,66,36
93240,note_on,54,0,3,,,,,,,,,2,,,62,36
93240,note_on,30,0,1,,,,,,,,,0,,,74,0
93240,note_on,0,0,1,,,,,,,,,0,,,76,62
93246,note_on,0,0,3,,,,,,,,,2,,,62,0
93246,note_on,6,0,3,,,,,,,,,2,,,66,0
93270,note_on,0,0,1,,,,,,,,,0,,,74,62
93270,note_on,30,0,1,,,,,,,,,0,,,76,0
93300,note_on,30,0,1,,,,,,,,,0,,,74,0
93300,note_on,0,0,1,,,,,,,,,0,,,78,62
93300,note_on,0,0,3,,,,,,,,,2,,,66,36
93300,note_on,0,0,3,,,,,,,,,2,,,57,36
93300,control_change,54,0,3,,,,,,,,,2,64,0,,
93306,note_on,0,0,3,,,,,,,,,2,,,57,0
93306,note_on,6,0,3,,,,,,,,,2,,,66,0
93330,note_on,0,0,1,,,,,,,,,0,,,76,62
93330,control_change,0,0,1,,,,,,,,,0,64,0,,
93330,note_on,30,0,1,,,,,,,,,0,,,78,0
93360,control_change,54,0,3,,,,,,,,,2,64,127,,
93360,note_on,0,0,1,,,,,,,,,0,,,74,62
93360,control_change,0,0,1,,,,,,,,,0,64,127,,
93360,note_on,30,0,1,,,,,,,,,0,,,76,0
93360,note_on,0,0,3,,,,,,,,,2,,,64,36
93360,note_on,0,0,3,,,,,,,,,2,,,67,36
93366,note_on,6,0,3,,,,,,,,,2,,,67,0
93366,note_on,0,0,3,,,,,,,,,2,,,64,0
93390,note_on,30,0,1,,,,,,,,,0,,,74,0
93390,note_on,0,0,1,,,,,,,,,0,,,73,62
93420,note_on,0,0,1,,,,,,,,,0,,,71,62
93420,note_on,30,0,1,,,,,,,,,0,,,73,0
93420,note_on,54,0,3,,,,,,,,,2,,,57,36
93420,note_on,0,0,3,,,,,,,,,2,,,67,36
93426,note_on,0,0,3,,,,,,,,,2,,,57,0
93426,note_on,6,0,3,,,,,,,,,2,,,67,0
93450,note_on,30,0,1,,,,,,,,,0,,,71,0
93450,note_on,0,0,1,,,,,,,,,0,,,69,62
93480,note_on,0,0,3,,,,,,,,,2,,,67,36
93480,note_on,54,0,3,,,,,,,,,2,,,61,36
93480,note_on,30,0,1,,,,,,,,,0,,,69,0
93480,note_on,0,0,1,,,,,,,,,0,,,71,75
93486,note_on,0,0,3,,,,,,,,,2,,,61,0
93486,note_on,6,0,3,,,,,,,,,2,,,67,0
93510,note_on,30,0,1,,,,,,,,,0,,,71,0
93510,note_on,0,0,1,,,,,,,,,0,,,73,75
93540,note_on,0,0,3,,,,,,,,,2,,,67,36
93540,note_on,30,0,1,,,,,,,,,0,,,73,0
93540,control_change,54,0,3,,,,,,,,,2,64,0,,
93540,note_on,0,0,3,,,,,,,,,2,,,57,36
93540,note_on,0,0,1,,,,,,,,,0,,,74,75
93546,note_on,6,0,3,,,,,,,,,2,,,67,0
93546,note_on,0,0,3,,,,,,,,,2,,,57,0
93570,control_change,0,0,1,,,,,,,,,0,64,0,,
93570,note_on,0,0,1,,,,,,,,,0,,,76,75
93570,note_on,30,0,1,,,,,,,,,0,,,74,0
93600,control_change,480,0,4,,,,,,,,,3,64,127,,
93600,control_change,0,0,4,,,,,,,,,3,64,127,,
93600,control_change,0,0,2,,,,,,,,,1,64,127,,
93600,control_change,480,0,2,,,,,,,,,1,64,127,,
93600,control_change,54,0,3,,,,,,,,,2,64,127,,
93600,control_change,0,0,3,,,,,,,,,2,64,127,,
93600,note_on,0,0,3,,,,,,,,,2,,,58,36
93600,note_on,0,0,3,,,,,,,,,2,,,66,36
93600,note_on,0,0,1,,,,,,,,,0,,,78,75
93600,control_change,0,0,1,,,,,,,,,0,64,127,,
93600,control_change,0,0,1,,,,,,,,,0,64,127,,
93600,control_change,0,0,1,,,,,,,,,0,64,127,,
93600,note_on,30,0,1,,,,,,,,,0,,,76,0
93600,control_change,0,0,3,,,,,,,,,2,64,127,,
93606,note_on,6,0,3,,,,,,,,,2,,,66,0
93606,note_on,0,0,3,,,,,,,,,2,,,58,0
93660,note_on,0,0,1,,,,,,,,,0,,,77,62
93660,note_on,60,0,1,,,,,,,,,0,,,78,0
93660,note_on,54,0,3,,,,,,,,,2,,,58,36
93660,note_on,0,0,3,,,,,,,,,2,,,61,36
93666,note_on,0,0,3,,,,,,,,,2,,,58,0
93666,note_on,6,0,3,,,,,,,,,2,,,61,0
93690,note_on,30,0,1,,,,,,,,,0,,,77,0
93690,note_on,0,0,1,,,,,,,,,0,,,78,62
93720,note_on,0,0,1,,,,,,,,,0,,,77,62
93720,note_on,0,0,3,,,,,,,,,2,,,66,36
93720,note_on,54,0,3,,,,,,,,,2,,,58,36
93720,note_on,30,0,1,,,,,,,,,0,,,78,0
93726,note_on,0,0,3,,,,,,,,,2,,,58,0
93726,note_on,6,0,3,,,,,,,,,2,,,66,0
93750,note_on,0,0,1,,,,,,,,,0,,,78,62
93750,note_on,30,0,1,,,,,,,,,0,,,77,0
93780,note_on,30,0,1,,,,,,,,,0,,,78,0
93780,control_change,54,0,3,,,,,,,,,2,64,0,,
93780,note_on,0,0,3,,,,,,,,,2,,,58,36
93780,note_on,0,0,3,,,,,,,,,2,,,61,36
93780,note_on,0,0,1,,,,,,,,,0,,,77,62
93786,note_on,0,0,3,,,,,,,,,2,,,58,0
93786,note_on,6,0,3,,,,,,,,,2,,,61,0
93810,control_change,0,0,1,,,,,,,,,0,64,0,,
93810,note_on,0,0,1,,,,,,,,,0,,,78,62
93810,note_on,30,0,1,,,,,,,,,0,,,77,0
93840,note_on,0,0,3,,,,,,,,,2,,,62,36
93840,note_on,0,0,3,,,,,,,,,2,,,59,36
93840,control_change,54,0,3,,,,,,,,,2,64,127,,
93840,note_on,30,0,1,,,,,,,,,0,,,78,0
93840,control_change,0,0,1,,,,,,,,,0,64,127,,
93840,note_on,0,0,1,,,,,,,,,0,,,79,62
93846,note_on,6,0,3,,,,,,,,,2,,,62,0
93846,note_on,0,0,3,,,,,,,,,2,,,59,0
93870,note_on,30,0,1,,,,,,,,,0,,,79,0
93870,note_on,0,0,1,,,,,,,,,0,,,83,62
93900,note_on,0,0,1,,,,,,,,,0,,,88,62
93900,note_on,30,0,1,,,,,,,,,0,,,83,0
93900,note_on,54,0,3,,,,,,,,,2,,,59,36
93900,note_on,0,0,3,,,,,,,,,2,,,62,36
93900,note_on,0,0,3,,,,,,,,,2,,,67,36
93906,note_on,0,0,3,,,,,,,,,2,,,59,0
93906,note_on,0,0,3,,,,,,,,,2,,,62,0
93906,note_on,6,0,3,,,,,,,,,2,,,67,0
93930,note_on,0,0,1,,,,,,,,,0,,,86,62
93930,note_on,30,0,1,,,,,,,,,0,,,88,0
93960,note_on,0,0,1,,,,,,,,,0,,,85,62
93960,note_on,0,0,3,,,,,,,,,2,,,62,36
93960,note_on,0,0,3,,,,,,,,,2,,,67,36
93960,note_on,30,0,1,,,,,,,,,0,,,86,0
93960,note_on,54,0,3,,,,,,,,,2,,,55,36
93966,note_on,0,0,3,,,,,,,,,2,,,62,0
93966,note_on,0,0,3,,,,,,,,,2,,,55,0
93966,note_on,6,0,3,,,,,,,,,2,,,67,0
93990,note_on,0,0,1,,,,,,,,,0,,,83,62
93990,note_on,30,0,1,,,,,,,,,0,,,85,0
94020,note_on,30,0,1,,,,,,,,,0,,,83,0
94020,note_on,0,0,1,,,,,,,,,0,,,81,62
94020,note_on,0,0,3,,,,,,,,,2,,,62,36
94020,note_on,0,0,3,,,,,,,,,2,,,67,36
94020,control_change,54,0,3,,,,,,,,,2,64,0,,
94020,note_on,0,0,3,,,,,,,,,2,,,59,36
94026,note_on,6,0,3,,,,,,,,,2,,,67,0
94026,note_on,0,0,3,,,,,,,,,2,,,62,0
94026,note_on,0,0,3,,,,,,,,,2,,,59,0
94050,note_on,0,0,1,,,,,,,,,0,,,79,62
94050,control_change,0,0,1,,,,,,,,,0,64,0,,
94050,note_on,30,0,1,,,,,,,,,0,,,81,0
94080,note_on,0,0,3,,,,,,,,,2,,,66,36
94080,control_change,480,0,2,,,,,,,,,1,64,127,,
94080,control_change,0,0,4,,,,,,,,,3,64,127,,
94080,note_on,0,0,3,,,,,,,,,2,,,62,36
94080,control_change,0,0,3,,,,,,,,,2,64,127,,
94080,control_change,54,0,3,,,,,,,,,2,64,127,,
94080,control_change,0,0,2,,,,,,,,,1,64,127,,
94080,control_change,0,0,3,,,,,,,,,2,64,127,,
94080,control_change,480,0,4,,,,,,,,,3,64,127,,
94080,control_change,0,0,1,,,,,,,,,0,64,127,,
94080,control_change,0,0,1,,,,,,,,,0,64,127,,
94080,control_change,0,0,1,,,,,,,,,0,64,127,,
94080,note_on,0,0,1,,,,,,,,,0,,,78,62
94080,note_on,30,0,1,,,,,,,,,0,,,79,0
94086,note_on,0,0,3,,,,,,,,,2,,,62,0
94086,note_on,6,0,3,,,,,,,,,2,,,66,0
94140,note_on,0,0,1,,,,,,,,,0,,,81,62
94140,note_on,60,0,1,,,,,,,,,0,,,78,0
94140,note_on,0,0,3,,,,,,,,,2,,,66,36
94140,note_on,54,0,3,,,,,,,,,2,,,57,36
94146,note_on,0,0,3,,,,,,,,,2,,,57,0
94146,note_on,6,0,3,,,,,,,,,2,,,66,0
94170,note_on,0,0,1,,,,,,,,,0,,,78,62
94170,note_on,30,0,1,,,,,,,,,0,,,81,0
94200,note_on,30,0,1,,,,,,,,,0,,,78,0
94200,note_on,0,0,1,,,,,,,,,0,,,81,62
94200,note_on,0,0,3,,,,,,,,,2,,,66,36
94200,note_on,54,0,3,,,,,,,,,2,,,62,36
94206,note_on,0,0,3,,,,,,,,,2,,,62,0
94206,note_on,6,0,3,,,,,,,,,2,,,66,0
94230,note_on,30,0,1,,,,,,,,,0,,,81,0
94230,note_on,0,0,1,,,,,,,,,0,,,78,62
94260,note_on,0,0,1,,,,,,,,,0,,,81,62
94260,note_on,30,0,1,,,,,,,,,0,,,78,0
94260,control_change,54,0,3,,,,,,,,,2,64,0,,
94260,note_on,0,0,3,,,,,,,,,2,,,57,36
94260,note_on,0,0,3,,,,,,,,,2,,,66,36
94266,note_on,0,0,3,,,,,,,,,2,,,57,0
94266,note_on,6,0,3,,,,,,,,,2,,,66,0
94290,note_on,30,0,1,,,,,,,,,0,,,81,0
94290,note_on,0,0,1,,,,,,,,,0,,,78,62
94290,control_change,0,0,1,,,,,,,,,0,64,0,,
94320,note_on,0,0,3,,,,,,,,,2,,,61,36
94320,note_on,0,0,3,,,,,,,,,2,,,67,36
94320,note_on,0,0,1,,,,,,,,,0,,,76,62
94320,control_change,0,0,1,,,,,,,,,0,64,127,,
94320,note_on,30,0,1,,,,,,,,,0,,,78,0
94320,control_change,54,0,3,,,,,,,,,2,64,127,,
94326,note_on,6,0,3,,,,,,,,,2,,,67,0
94326,note_on,0,0,3,,,,,,,,,2,,,61,0
94350,note_on,30,0,1,,,,,,,,,0,,,76,0
94350,note_on,0,0,1,,,,,,,,,0,,,78,62
94380,note_on,0,0,3,,,,,,,,,2,,,67,36
94380,note_on,30,0,1,,,,,,,,,0,,,78,0
94380,note_on,0,0,1,,,,,,,,,0,,,79,62
94380,note_on,54,0,3,,,,,,,,,2,,,57,36
94386,note_on,0,0,3,,,,,,,,,2,,,57,0
94386,note_on,6,0,3,,,,,,,,,2,,,67,0
94410,note_on,30,0,1,,,,,,,,,0,,,79,0
94410,note_on,0,0,1,,,,,,,,,0,,,83,62
94440,note_on,0,0,3,,,,,,,,,2,,,67,36
94440,note_on,54,0,3,,,,,,,,,2,,,61,36
94440,note_on,0,0,1,,,,,,,,,0,,,81,62
94440,note_on,30,0,1,,,,,,,,,0,,,83,0
94446,note_on,0,0,3,,,,,,,,,2,,,61,0
94446,note_on,6,0,3,,,,,,,,,2,,,67,0
94470,note_on,30,0,1,,,,,,,,,0,,,81,0
94470,note_on,0,0,1,,,,,,,,,0,,,79,62
94500,note_on,30,0,1,,,,,,,,,0,,,79,0
94500,note_on,0,0,1,,,,,,,,,0,,,78,62
94500,control_change,54,0,3,,,,,,,,,2,64,0,,
94500,note_on,0,0,3,,,,,,,,,2,,,57,36
94500,note_on,0,0,3,,,,,,,,,2,,,67,36
94506,note_on,6,0,3,,,,,,,,,2,,,67,0
94506,note_on,0,0,3,,,,,,,,,2,,,57,0
94530,note_on,0,0,1,,,,,,,,,0,,,76,62
94530,note_on,30,0,1,,,,,,,,,0,,,78,0
94530,control_change,0,0,1,,,,,,,,,0,64,0,,
94560,control_change,0,0,3,,,,,,,,,2,64,127,,
94560,control_change,0,0,3,,,,,,,,,2,64,127,,
94560,note_on,0,0,3,,,,,,,,,2,,,62,36
94560,note_on,0,0,3,,,,,,,,,2,,,66,36
94560,control_change,0,0,2,,,,,,,,,1,64,127,,
94560,control_change,480,0,4,,,,,,,,,3,64,127,,
94560,control_change,54,0,3,,,,,,,,,2,64,127,,
94560,control_change,0,0,4,,,,,,,,,3,64,127,,
94560,control_change,480,0,2,,,,,,,,,1,64,127,,
94560,note_on,30,0,1,,,,,,,,,0,,,76,0
94560,control_change,0,0,1,,,,,,,,,0,64,127,,
94560,control_change,0,0,1,,,,,,,,,0,64,127,,
94560,note_on,0,0,1,,,,,,,,,0,,,74,62
94560,control_change,0,0,1,,,,,,,,,0,64,127,,
94566,note_on,0,0,3,,,,,,,,,2,,,62,0
94566,note_on,6,0,3,,,,,,,,,2,,,66,0
94620,note_on,60,0,1,,,,,,,,,0,,,74,0
94620,note_on,0,0,1,,,,,,,,,0,,,76,62
94620,note_on,0,0,3,,,,,,,,,2,,,66,36
94620,note_on,54,0,3,,,,,,,,,2,,,57,36
94626,note_on,0,0,3,,,,,,,,,2,,,57,0
94626,note_on,6,0,3,,,,,,,,,2,,,66,0
94650,note_on,30,0,1,,,,,,,,,0,,,76,0
94650,note_on,0,0,1,,,,,,,,,0,,,74,62
94680,note_on,0,0,1,,,,,,,,,0,,,76,62
94680,note_on,0,0,3,,,,,,,,,2,,,66,36
94680,note_on,54,0,3,,,,,,,,,2,,,62,36
94680,note_on,30,0,1,,,,,,,,,0,,,74,0
94686,note_on,6,0,3,,,,,,,,,2,,,66,0
94686,note_on,0,0,3,,,,,,,,,2,,,62,0
94710,note_on,30,0,1,,,,,,,,,0,,,76,0
94710,note_on,0,0,1,,,,,,,,,0,,,74,62
94740,note_on,30,0,1,,,,,,,,,0,,,74,0
94740,note_on,0,0,1,,,,,,,,,0,,,76,62
94740,control_change,54,0,3,,,,,,,,,2,64,0,,
94740,note_on,0,0,3,,,,,,,,,2,,,57,36
94740,note_on,0,0,3,,,,,,,,,2,,,66,36
94746,note_on,6,0,3,,,,,,,,,2,,,66,0
94746,note_on,0,0,3,,,,,,,,,2,,,57,0
94770,note_on,30,0,1,,,,,,,,,0,,,76,0
94770,note_on,0,0,1,,,,,,,,,0,,,74,62
94770,control_change,0,0,1,,,,,,,,,0,64,0,,
94800,control_change,0,0,1,,,,,,,,,0,64,127,,
94800,note_on,0,0,1,,,,,,,,,0,,,62,62
94800,control_change,54,0,3,,,,,,,,,2,64,127,,
94800,note_on,0,0,3,,,,,,,,,2,,,50,36
94800,note_on,30,0,1,,,,,,,,,0,,,74,0
94830,note_on,0,0,3,,,,,,,,,2,,,52,36
94830,note_on,30,0,1,,,,,,,,,0,,,62,0
94830,note_on,0,0,1,,,,,,,,,0,,,64,62
94830,note_on,30,0,3,,,,,,,,,2,,,50,0
94860,note_on,30,0,1,,,,,,,,,0,,,64,0
94860,note_on,30,0,3,,,,,,,,,2,,,52,0
94860,note_on,0,0,3,,,,,,,,,2,,,54,36
94860,note_on,0,0,1,,,,,,,,,0,,,66,62
94890,note_on,0,0,3,,,,,,,,,2,,,59,36
94890,note_on,30,0,3,,,,,,,,,2,,,54,0
94890,note_on,30,0,1,,,,,,,,,0,,,66,0
94890,note_on,0,0,1,,,,,,,,,0,,,71,62
94920,note_on,0,0,1,,,,,,,,,0,,,69,62
94920,note_on,0,0,3,,,,,,,,,2,,,57,36
94920,note_on,30,0,3,,,,,,,,,2,,,59,0
94920,note_on,30,0,1,,,,,,,,,0,,,71,0
94950,note_on,30,0,1,,,,,,,,,0,,,69,0
94950,note_on,0,0,1,,,,,,,,,0,,,66,62
94950,note_on,0,0,3,,,,,,,,,2,,,54,36
94950,note_on,30,0,3,,,,,,,,,2,,,57,0
94980,note_on,0,0,1,,,,,,,,,0,,,64,62
94980,note_on,0,0,3,,,,,,,,,2,,,52,36
94980,note_on,30,0,3,,,,,,,,,2,,,54,0
94980,note_on,30,0,1,,,,,,,,,0,,,66,0
95010,note_on,30,0,1,,,,,,,,,0,,,64,0
95010,note_on,30,0,3,,,,,,,,,2,,,52,0
95010,control_change,0,0,3,,,,,,,,,2,64,0,,
95010,note_on,0,0,3,,,,,,,,,2,,,50,36
95010,control_change,0,0,1,,,,,,,,,0,64,0,,
95010,note_on,0,0,1,,,,,,,,,0,,,62,62
95040,note_on,30,0,3,,,,,,,,,2,,,50,0
95040,note_on,0,0,3,,,,,,,,,2,,,55,36
95040,note_on,0,0,3,,,,,,,,,2,,,49,36
95040,control_change,0,0,3,,,,,,,,,2,64,127,,
95040,note_on,30,0,1,,,,,,,,,0,,,62,0
95040,control_change,0,0,3,,,,,,,,,2,64,127,,
95040,control_change,0,0,1,,,,,,,,,0,64,127,,
95040,control_change,0,0,3,,,,,,,,,2,64,127,,
95040,control_change,480,0,4,,,,,,,,,3,64,127,,
95040,control_change,0,0,4,,,,,,,,,3,64,127,,
95040,control_change,0,0,2,,,,,,,,,1,64,127,,
95040,note_on,0,0,1,,,,,,,,,0,,,64,88
95040,control_change,0,0,1,,,,,,,,,0,64,127,,
95040,control_change,0,0,1,,,,,,,,,0,64,127,,
95040,control_change,480,0,2,,,,,,,,,1,64,127,,
95046,note_on,6,0,3,,,,,,,,,2,,,55,0
95046,note_on,0,0,3,,,,,,,,,2,,,49,0
95100,note_on,60,0,1,,,,,,,,,0,,,64,0
95100,note_on,54,0,3,,,,,,,,,2,,,45,36
95100,note_on,0,0,3,,,,,,,,,2,,,55,36
95100,note_on,0,0,1,,,,,,,,,0,,,66,62
95106,note_on,6,0,3,,,,,,,,,2,,,55,0
95106,note_on,0,0,3,,,,,,,,,2,,,45,0
95130,note_on,0,0,1,,,,,,,,,0,,,64,62
95130,note_on,30,0,1,,,,,,,,,0,,,66,0
95160,note_on,0,0,1,,,,,,,,,0,,,66,62
95160,note_on,30,0,1,,,,,,,,,0,,,64,0
95160,note_on,54,0,3,,,,,,,,,2,,,49,36
95160,note_on,0,0,3,,,,,,,,,2,,,55,36
95166,note_on,0,0,3,,,,,,,,,2,,,49,0
95166,note_on,6,0,3,,,,,,,,,2,,,55,0
95190,note_on,0,0,1,,,,,,,,,0,,,64,62
95190,note_on,30,0,1,,,,,,,,,0,,,66,0
95220,note_on,0,0,3,,,,,,,,,2,,,55,36
95220,note_on,0,0,3,,,,,,,,,2,,,45,36
95220,control_change,54,0,3,,,,,,,,,2,64,0,,
95220,note_on,0,0,1,,,,,,,,,0,,,66,62
95220,note_on,30,0,1,,,,,,,,,0,,,64,0
95226,note_on,0,0,3,,,,,,,,,2,,,45,0
95226,note_on,6,0,3,,,,,,,,,2,,,55,0
95250,note_on,30,0,1,,,,,,,,,0,,,66,0
95250,control_change,0,0,1,,,,,,,,,0,64,0,,
95250,note_on,0,0,1,,,,,,,,,0,,,64,62
95280,note_on,30,0,1,,,,,,,,,0,,,64,0
95280,control_change,54,0,3,,,,,,,,,2,64,127,,
95280,note_on,0,0,3,,,,,,,,,2,,,49,36
95280,note_on,0,0,3,,,,,,,,,2,,,55,36
95280,note_on,0,0,1,,,,,,,,,0,,,64,62
95280,control_change,0,0,1,,,,,,,,,0,64,127,,
95286,note_on,6,0,3,,,,,,,,,2,,,55,0
95286,note_on,0,0,3,,,,,,,,,2,,,49,0
95310,note_on,30,0,1,,,,,,,,,0,,,64,0
95310,note_on,0,0,1,,,,,,,,,0,,,66,62
95340,note_on,0,0,3,,,,,,,,,2,,,55,36
95340,note_on,30,0,1,,,,,,,,,0,,,66,0
95340,note_on,0,0,1,,,,,,,,,0,,,67,62
95340,note_on,54,0,3,,,,,,,,,2,,,45,36
95346,note_on,6,0,3,,,,,,,,,2,,,55,0
95346,note_on,0,0,3,,,,,,,,,2,,,45,0
95370,note_on,30,0,1,,,,,,,,,0,,,67,0
95370,note_on,0,0,1,,,,,,,,,0,,,73,62
95400,note_on,30,0,1,,,,,,,,,0,,,73,0
95400,note_on,0,0,3,,,,,,,,,2,,,55,36
95400,note_on,0,0,1,,,,,,,,,0,,,71,62
95400,note_on,54,0,3,,,,,,,,,2,,,49,36
95406,note_on,6,0,3,,,,,,,,,2,,,55,0
95406,note_on,0,0,3,,,,,,,,,2,,,49,0
95430,note_on,30,0,1,,,,,,,,,0,,,71,0
95430,note_on,0,0,1,,,,,,,,,0,,,69,62
95460,note_on,30,0,1,,,,,,,,,0,,,69,0
95460,control_change,54,0,3,,,,,,,,,2,64,0,,
95460,note_on,0,0,3,,,,,,,,,2,,,55,36
95460,note_on,0,0,3,,,,,,,,,2,,,45,36
95460,note_on,0,0,1,,,,,,,,,0,,,67,62
95466,note_on,0,0,3,,,,,,,,,2,,,45,0
95466,note_on,6,0,3,,,,,,,,,2,,,55,0
95490,control_change,0,0,1,,,,,,,,,0,64,0,,
95490,note_on,0,0,1,,,,,,,,,0,,,64,62
95490,note_on,30,0,1,,,,,,,,,0,,,67,0
95520,control_change,54,0,3,,,,,,,,,2,64,127,,
95520,note_on,30,0,1,,,,,,,,,0,,,64,0
95520,control_change,0,0,1,,,,,,,,,0,64,127,,
95520,note_on,0,0,1,,,,,,,,,0,,,66,88
95520,note_on,0,0,3,,,,,,,,,2,,,54,36
95520,note_on,0,0,3,,,,,,,,,2,,,50,36
95526,note_on,6,0,3,,,,,,,,,2,,,54,0
95526,note_on,0,0,3,,,,,,,,,2,,,50,0
95580,note_on,0,0,1,,,,,,,,,0,,,65,62
95580,note_on,54,0,3,,,,,,,,,2,,,45,36
95580,note_on,0,0,3,,,,,,,,,2,,,54,36
95580,note_on,60,0,1,,,,,,,,,0,,,66,0
95586,note_on,6,0,3,,,,,,,,,2,,,54,0
95586,note_on,0,0,3,,,,,,,,,2,,,45,0
95610,note_on,30,0,1,,,,,,,,,0,,,65,0
95610,note_on,0,0,1,,,,,,,,,0,,,66,62
95640,note_on,30,0,1,,,,,,,,,0,,,66,0
95640,note_on,54,0,3,,,,,,,,,2,,,50,36
95640,note_on,0,0,1,,,,,,,,,0,,,65,62
95640,note_on,0,0,3,,,,,,,,,2,,,54,36
95646,note_on,6,0,3,,,,,,,,,2,,,54,0
95646,note_on,0,0,3,,,,,,,,,2,,,50,0
95670,note_on,0,0,1,,,,,,,,,0,,,66,62
95670,note_on,30,0,1,,,,,,,,,0,,,65,0
95700,note_on,30,0,1,,,,,,,,,0,,,66,0
95700,note_on,0,0,3,,,,,,,,,2,,,45,36
95700,note_on,0,0,1,,,,,,,,,0,,,69,62
95700,note_on,0,0,3,,,,,,,,,2,,,54,36
95700,control_change,54,0,3,,,,,,,,,2,64,0,,
95706,note_on,0,0,3,,,,,,,,,2,,,45,0
95706,note_on,6,0,3,,,,,,,,,2,,,54,0
95730,note_on,30,0,1,,,,,,,,,0,,,69,0
95730,note_on,0,0,1,,,,,,,,,0,,,73,62
95730,control_change,0,0,1,,,,,,,,,0,64,0,,
95760,note_on,0,0,1,,,,,,,,,0,,,74,88
95760,control_change,0,0,1,,,,,,,,,0,64,127,,
95760,control_change,54,0,3,,,,,,,,,2,64,127,,
95760,note_on,0,0,3,,,,,,,,,2,,,50,36
95760,note_on,0,0,3,,,,,,,,,2,,,54,36
95760,note_on,30,0,1,,,,,,,,,0,,,73,0
95766,note_on,6,0,3,,,,,,,,,2,,,54,0
95766,note_on,0,0,3,,,,,,,,,2,,,50,0
95790,note_on,30,0,1,,,,,,,,,0,,,74,0
95790,note_on,0,0,1,,,,,,,,,0,,,76,62
95820,note_on,0,0,3,,,,,,,,,2,,,54,36
95820,note_on,0,0,1,,,,,,,,,0,,,78,62
95820,note_on,30,0,1,,,,,,,,,0,,,76,0
95820,note_on,54,0,3,,,,,,,,,2,,,45,36
95826,note_on,6,0,3,,,,,,,,,2,,,54,0
95826,note_on,0,0,3,,,,,,,,,2,,,45,0
95850,note_on,30,0,1,,,,,,,,,0,,,78,0
95850,note_on,0,0,1,,,,,,,,,0,,,83,62
95880,note_on,0,0,1,,,,,,,,,0,,,81,62
95880,note_on,54,0,3,,,,,,,,,2,,,50,36
95880,note_on,30,0,1,,,,,,,,,0,,,83,0
95880,note_on,0,0,3,,,,,,,,,2,,,54,36
95886,note_on,6,0,3,,,,,,,,,2,,,54,0
95886,note_on,0,0,3,,,,,,,,,2,,,50,0
95910,note_on,0,0,1,,,,,,,,,0,,,78,62
95910,note_on,30,0,1,,,,,,,,,0,,,81,0
95940,note_on,0,0,3,,,,,,,,,2,,,57,36
95940,note_on,0,0,3,,,,,,,,,2,,,54,36
95940,control_change,54,0,3,,,,,,,,,2,64,0,,
95940,note_on,30,0,1,,,,,,,,,0,,,78,0
95940,note_on,0,0,1,,,,,,,,,0,,,76,62
95946,note_on,0,0,3,,,,,,,,,2,,,54,0
95946,note_on,6,0,3,,,,,,,,,2,,,57,0
95970,note_on,30,0,1,,,,,,,,,0,,,76,0
95970,control_change,0,0,1,,,,,,,,,0,64,0,,
95970,note_on,0,0,1,,,,,,,,,0,,,74,62
96000,note_on,0,0,3,,,,,,,,,2,,,61,36
96000,note_on,0,0,3,,,,,,,,,2,,,57,36
96000,control_change,54,0,3,,,,,,,,,2,64,127,,
96000,note_on,30,0,1,,,,,,,,,0,,,74,0
96000,control_change,0,0,1,,,,,,,,,0,64,127,,
96000,note_on,0,0,1,,,,,,,,,0,,,73,88
96006,note_on,6,0,3,,,,,,,,,2,,,61,0
96006,note_on,0,0,3,,,,,,,,,2,,,57,0
96030,note_on,30,0,1,,,,,,,,,0,,,73,0
96030,note_on,0,0,1,,,,,,,,,0,,,71,62
96060,note_on,54,0,3,,,,,,,,,2,,,52,36
96060,note_on,0,0,3,,,,,,,,,2,,,61,36
96060,note_on,0,0,1,,,,,,,,,0,,,69,62
96060,note_on,30,0,1,,,,,,,,,0,,,71,0
96066,note_on,6,0,3,,,,,,,,,2,,,61,0
96066,note_on,0,0,3,,,,,,,,,2,,,52,0
96090,note_on,30,0,1,,,,,,,,,0,,,69,0
96090,note_on,0,0,1,,,,,,,,,0,,,78,62
96120,note_on,30,0,1,,,,,,,,,0,,,78,0
96120,note_on,0,0,1,,,,,,,,,0,,,76,62
96120,note_on,54,0,3,,,,,,,,,2,,,57,36
96120,note_on,0,0,3,,,,,,,,,2,,,61,36
96126,note_on,0,0,3,,,,,,,,,2,,,57,0
96126,note_on,6,0,3,,,,,,,,,2,,,61,0
96150,note_on,30,0,1,,,,,,,,,0,,,76,0
96150,note_on,0,0,1,,,,,,,,,0,,,73,62
96180,note_on,0,0,3,,,,,,,,,2,,,52,36
96180,note_on,0,0,3,,,,,,,,,2,,,61,36
96180,note_on,0,0,1,,,,,,,,,0,,,71,62
96180,note_on,30,0,1,,,,,,,,,0,,,73,0
96180,control_change,54,0,3,,,,,,,,,2,64,0,,
96186,note_on,6,0,3,,,,,,,,,2,,,61,0
96186,note_on,0,0,3,,,,,,,,,2,,,52,0
96210,note_on,0,0,1,,,,,,,,,0,,,69,62
96210,control_change,0,0,1,,,,,,,,,0,64,0,,
96210,note_on,30,0,1,,,,,,,,,0,,,71,0
96240,note_on,0,0,3,,,,,,,,,2,,,59,36
96240,control_change,54,0,3,,,,,,,,,2,64,127,,
96240,note_on,30,0,1,,,,,,,,,0,,,69,0
96240,control_change,0,0,1,,,,,,,,,0,64,127,,
96240,note_on,0,0,1,,,,,,,,,0,,,68,88
96240,note_on,0,0,3,,,,,,,,,2,,,62,36
96246,note_on,6,0,3,,,,,,,,,2,,,62,0
96246,note_on,0,0,3,,,,,,,,,2,,,59,0
96270,note_on,30,0,1,,,,,,,,,0,,,68,0
96270,note_on,0,0,1,,,,,,,,,0,,,66,62
96300,note_on,54,0,3,,,,,,,,,2,,,52,36
96300,note_on,0,0,3,,,,,,,,,2,,,62,36
96300,note_on,0,0,1,,,,,,,,,0,,,64,62
96300,note_on,30,0,1,,,,,,,,,0,,,66,0
96306,note_on,0,0,3,,,,,,,,,2,,,52,0
96306,note_on,6,0,3,,,,,,,,,2,,,62,0
96330,note_on,0,0,1,,,,,,,,,0,,,68,62
96330,note_on,30,0,1,,,,,,,,,0,,,64,0
96360,note_on,54,0,3,,,,,,,,,2,,,56,36
96360,note_on,0,0,3,,,,,,,,,2,,,62,36
96360,note_on,30,0,1,,,,,,,,,0,,,68,0
96360,note_on,0,0,1,,,,,,,,,0,,,76,62
96366,note_on,6,0,3,,,,,,,,,2,,,62,0
96366,note_on,0,0,3,,,,,,,,,2,,,56,0
96390,note_on,30,0,1,,,,,,,,,0,,,76,0
96390,note_on,0,0,1,,,,,,,,,0,,,74,62
96420,note_on,30,0,1,,,,,,,,,0,,,74,0
96420,note_on,0,0,3,,,,,,,,,2,,,62,36
96420,note_on,0,0,3,,,,,,,,,2,,,52,36
96420,control_change,54,0,3,,,,,,,,,2,64,0,,
96420,note_on,0,0,1,,,,,,,,,0,,,73,62
96426,note_on,0,0,3,,,,,,,,,2,,,52,0
96426,note_on,6,0,3,,,,,,,,,2,,,62,0
96450,note_on,30,0,1,,,,,,,,,0,,,73,0
96450,control_change,0,0,1,,,,,,,,,0,64,0,,
96450,note_on,0,0,1,,,,,,,,,0,,,71,62
96480,note_on,0,0,3,,,,,,,,,2,,,61,36
96480,note_on,0,0,3,,,,,,,,,2,,,57,36
96480,control_change,54,0,3,,,,,,,,,2,64,127,,
96480,note_on,0,0,1,,,,,,,,,0,,,69,88
96480,note_on,30,0,1,,,,,,,,,0,,,71,0
96480,control_change,0,0,1,,,,,,,,,0,64,127,,
96540,note_on,60,0,1,,,,,,,,,0,,,69,0
96540,note_on,0,0,1,,,,,,,,,0,,,71,62
96570,note_on,30,0,1,,,,,,,,,0,,,71,0
96570,note_on,0,0,1,,,,,,,,,0,,,69,62
96600,note_on,30,0,1,,,,,,,,,0,,,69,0
96600,note_on,0,0,1,,,,,,,,,0,,,73,62
96600,control_change,0,0,3,,,,,,,,,2,64,0,,
96600,note_on,0,0,3,,,,,,,,,2,,,57,0
96600,note_on,0,0,1,,,,,,,,,0,,,76,62
96600,note_on,120,0,3,,,,,,,,,2,,,61,0
96606,note_on,0,0,1,,,,,,,,,0,,,73,0
96606,note_on,6,0,1,,,,,,,,,0,,,76,0
96660,control_change,54,0,1,,,,,,,,,0,64,0,,
96660,note_on,0,0,1,,,,,,,,,0,,,73,62
96660,note_on,0,0,1,,,,,,,,,0,,,76,62
96666,note_on,6,0,1,,,,,,,,,0,,,76,0
96666,note_on,0,0,1,,,,,,,,,0,,,73,0
96720,note_on,0,0,3,,,,,,,,,2,,,57,49
96720,control_change,120,0,3,,,,,,,,,2,64,127,,
96720,note_on,0,0,1,,,,,,,,,0,,,73,62
96720,note_on,0,0,1,,,,,,,,,0,,,76,62
96720,note_on,0,0,1,,,,,,,,,0,,,69,62
96720,control_change,54,0,1,,,,,,,,,0,64,127,,
96726,note_on,0,0,1,,,,,,,,,0,,,73,0
96726,note_on,0,0,1,,,,,,,,,0,,,69,0
96726,note_on,6,0,1,,,,,,,,,0,,,76,0
96750,note_on,0,0,3,,,,,,,,,2,,,59,49
96750,note_on,30,0,3,,,,,,,,,2,,,57,0
96780,note_on,54,0,1,,,,,,,,,0,,,69,62
96780,note_on,0,0,1,,,,,,,,,0,,,73,62
96780,note_on,0,0,1,,,,,,,,,0,,,76,62
96780,note_on,30,0,3,,,,,,,,,2,,,59,0
96780,note_on,0,0,3,,,,,,,,,2,,,61,49
96786,note_on,0,0,1,,,,,,,,,0,,,73,0
96786,note_on,6,0,1,,,,,,,,,0,,,76,0
96786,note_on,0,0,1,,,,,,,,,0,,,69,0
96810,note_on,0,0,3,,,,,,,,,2,,,66,49
96810,note_on,30,0,3,,,,,,,,,2,,,61,0
96840,note_on,0,0,3,,,,,,,,,2,,,64,49
96840,note_on,30,0,3,,,,,,,,,2,,,66,0
96840,note_on,54,0,1,,,,,,,,,0,,,73,62
96840,note_on,0,0,1,,,,,,,,,0,,,76,62
96846,note_on,0,0,1,,,,,,,,,0,,,73,0
96846,note_on,6,0,1,,,,,,,,,0,,,76,0
96870,note_on,30,0,3,,,,,,,,,2,,,64,0
96870,note_on,0,0,3,,,,,,,,,2,,,61,49
96900,note_on,0,0,1,,,,,,,,,0,,,76,62
96900,note_on,54,0,1,,,,,,,,,0,,,73,62
96900,note_on,0,0,3,,,,,,,,,2,,,59,49
96900,note_on,30,0,3,,,,,,,,,2,,,61,0
96906,note_on,0,0,1,,,,,,,,,0,,,73,0
96906,note_on,6,0,1,,,,,,,,,0,,,76,0
96930,note_on,0,0,3,,,,,,,,,2,,,57,49
96930,note_on,30,0,3,,,,,,,,,2,,,59,0
96960,control_change,54,0,1,,,,,,,,,0,64,127,,
96960,control_change,0,0,1,,,,,,,,,0,64,0,,
96960,note_on,0,0,1,,,,,,,,,0,,,71,78
96960,note_on,0,0,1,,,,,,,,,0,,,78,88
96960,note_on,0,0,1,,,,,,,,,0,,,74,83
96960,control_change,0,0,3,,,,,,,,,2,64,127,,
96960,control_change,0,0,3,,,,,,,,,2,64,0,,
96960,note_on,0,0,3,,,,,,,,,2,,,57,49
96960,note_on,30,0,3,,,,,,,,,2,,,57,0
96966,note_on,0,0,1,,,,,,,,,0,,,71,0
96966,note_on,0,0,1,,,,,,,,,0,,,74,0
96966,note_on,6,0,1,,,,,,,,,0,,,78,0
97020,note_on,54,0,1,,,,,,,,,0,,,71,62
97020,note_on,0,0,1,,,,,,,,,0,,,78,62
97020,note_on,60,0,3,,,,,,,,,2,,,57,0
97020,note_on,0,0,3,,,,,,,,,2,,,59,49
97020,note_on,0,0,1,,,,,,,,,0,,,74,62
97026,note_on,6,0,1,,,,,,,,,0,,,78,0
97026,note_on,0,0,1,,,,,,,,,0,,,74,0
97026,note_on,0,0,1,,,,,,,,,0,,,71,0
97050,note_on,0,0,3,,,,,,,,,2,,,57,49
97050,note_on,30,0,3,,,,,,,,,2,,,59,0
97080,note_on,30,0,3,,,,,,,,,2,,,57,0
97080,note_on,0,0,3,,,,,,,,,2,,,56,49
97080,note_on,54,0,1,,,,,,,,,0,,,71,62
97080,note_on,0,0,1,,,,,,,,,0,,,76,62
97080,note_on,0,0,1,,,,,,,,,0,,,74,62
97086,note_on,6,0,1,,,,,,,,,0,,,76,0
97086,note_on,0,0,1,,,,,,,,,0,,,74,0
97086,note_on,0,0,1,,,,,,,,,0,,,71,0
97110,note_on,30,0,3,,,,,,,,,2,,,56,0
97110,note_on,0,0,3,,,,,,,,,2,,,57,49
97140,note_on,0,0,3,,,,,,,,,2,,,56,49
97140,note_on,54,0,1,,,,,,,,,0,,,71,62
97140,note_on,0,0,1,,,,,,,,,0,,,74,62
97140,note_on,30,0,3,,,,,,,,,2,,,57,0
97140,note_on,0,0,1,,,,,,,,,0,,,76,62
97146,note_on,0,0,1,,,,,,,,,0,,,74,0
97146,note_on,6,0,1,,,,,,,,,0,,,76,0
97146,note_on,0,0,1,,,,,,,,,0,,,71,0
97170,note_on,0,0,3,,,,,,,,,2,,,57,49
97170,note_on,30,0,3,,,,,,,,,2,,,56,0
97200,note_on,0,0,1,,,,,,,,,0,,,76,62
97200,control_change,0,0,1,,,,,,,,,0,64,0,,
97200,note_on,0,0,1,,,,,,,,,0,,,68,62
97200,note_on,0,0,1,,,,,,,,,0,,,71,62
97200,control_change,54,0,1,,,,,,,,,0,64,127,,
97200,control_change,0,0,3,,,,,,,,,2,64,0,,
97200,note_on,0,0,3,,,,,,,,,2,,,59,49
97200,control_change,0,0,3,,,,,,,,,2,64,127,,
97200,note_on,30,0,3,,,,,,,,,2,,,57,0
97206,note_on,0,0,1,,,,,,,,,0,,,68,0
97206,note_on,0,0,1,,,,,,,,,0,,,71,0
97206,note_on,6,0,1,,,,,,,,,0,,,76,0
97230,note_on,30,0,3,,,,,,,,,2,,,59,0
97230,note_on,0,0,3,,,,,,,,,2,,,61,49
97260,note_on,0,0,1,,,,,,,,,0,,,76,62
97260,note_on,0,0,1,,,,,,,,,0,,,71,62
97260,note_on,54,0,1,,,,,,,,,0,,,68,62
97260,note_on,30,0,3,,,,,,,,,2,,,61,0
97260,note_on,0,0,3,,,,,,,,,2,,,62,49
97266,note_on,0,0,1,,,,,,,,,0,,,68,0
97266,note_on,0,0,1,,,,,,,,,0,,,71,0
97266,note_on,6,0,1,,,,,,,,,0,,,76,0
97290,note_on,30,0,3,,,,,,,,,2,,,62,0
97290,note_on,0,0,3,,,,,,,,,2,,,66,49
97320,note_on,30,0,3,,,,,,,,,2,,,66,0
97320,note_on,0,0,3,,,,,,,,,2,,,64,49
97320,note_on,0,0,1,,,,,,,,,0,,,76,62
97320,note_on,0,0,1,,,,,,,,,0,,,74,62
97320,note_on,54,0,1,,,,,,,,,0,,,71,62
97326,note_on,0,0,1,,,,,,,,,0,,,71,0
97326,note_on,0,0,1,,,,,,,,,0,,,74,0
97326,note_on,6,0,1,,,,,,,,,0,,,76,0
97350,note_on,0,0,3,,,,,,,,,2,,,62,49
97350,note_on,30,0,3,,,,,,,,,2,,,64,0
97380,note_on,0,0,3,,,,,,,,,2,,,61,49
97380,note_on,30,0,3,,,,,,,,,2,,,62,0
97380,note_on,54,0,1,,,,,,,,,0,,,71,62
97380,note_on,0,0,1,,,,,,,,,0,,,74,62
97380,note_on,0,0,1,,,,,,,,,0,,,76,62
97386,note_on,6,0,1,,,,,,,,,0,,,76,0
97386,note_on,0,0,1,,,,,,,,,0,,,74,0
97386,note_on,0,0,1,,,,,,,,,0,,,71,0
97410,note_on,0,0,3,,,,,,,,,2,,,59,49
97410,note_on,30,0,3,,,,,,,,,2,,,61,0
97440,note_on,0,0,1,,,,,,,,,0,,,78,88
97440,note_on,0,0,1,,,,,,,,,0,,,73,83
97440,note_on,0,0,1,,,,,,,,,0,,,69,78
97440,control_change,0,0,3,,,,,,,,,2,64,127,,
97440,control_change,54,0,1,,,,,,,,,0,64,127,,
97440,control_change,0,0,3,,,,,,,,,2,64,0,,
97440,note_on,30,0,3,,,,,,,,,2,,,59,0
97440,control_change,0,0,1,,,,,,,,,0,64,0,,
97440,note_on,0,0,3,,,,,,,,,2,,,61,49
97446,note_on,6,0,1,,,,,,,,,0,,,78,0
97446,note_on,0,0,1,,,,,,,,,0,,,73,0
97446,note_on,0,0,1,,,,,,,,,0,,,69,0
97500,note_on,0,0,1,,,,,,,,,0,,,73,62
97500,note_on,60,0,3,,,,,,,,,2,,,61,0
97500,note_on,0,0,3,,,,,,,,,2,,,60,49
97500,note_on,54,0,1,,,,,,,,,0,,,69,62
97500,note_on,0,0,1,,,,,,,,,0,,,78,62
97506,note_on,0,0,1,,,,,,,,,0,,,73,0
97506,note_on,0,0,1,,,,,,,,,0,,,69,0
97506,note_on,6,0,1,,,,,,,,,0,,,78,0
97530,note_on,30,0,3,,,,,,,,,2,,,60,0
97530,note_on,0,0,3,,,,,,,,,2,,,61,49
97560,note_on,54,0,1,,,,,,,,,0,,,69,62
97560,note_on,0,0,1,,,,,,,,,0,,,73,62
97560,note_on,0,0,1,,,,,,,,,0,,,76,62
97560,note_on,30,0,3,,,,,,,,,2,,,61,0
97560,note_on,0,0,3,,,,,,,,,2,,,64,49
97566,note_on,6,0,1,,,,,,,,,0,,,76,0
97566,note_on,0,0,1,,,,,,,,,0,,,73,0
97566,note_on,0,0,1,,,,,,,,,0,,,69,0
97590,note_on,0,0,3,,,,,,,,,2,,,61,49
97590,note_on,30,0,3,,,,,,,,,2,,,64,0
97620,note_on,0,0,1,,,,,,,,,0,,,76,62
97620,note_on,0,0,3,,,,,,,,,2,,,59,49
97620,note_on,30,0,3,,,,,,,,,2,,,61,0
97620,note_on,54,0,1,,,,,,,,,0,,,69,62
97620,note_on,0,0,1,,,,,,,,,0,,,73,62
97626,note_on,0,0,1,,,,,,,,,0,,,73,0
97626,note_on,0,0,1,,,,,,,,,0,,,69,0
97626,note_on,6,0,1,,,,,,,,,0,,,76,0
97650,note_on,30,0,3,,,,,,,,,2,,,59,0
97650,note_on,0,0,3,,,,,,,,,2,,,57,49
97680,note_on,0,0,1,,,,,,,,,0,,,76,62
97680,note_on,0,0,1,,,,,,,,,0,,,69,62
97680,control_change,0,0,1,,,,,,,,,0,64,0,,
97680,control_change,54,0,1,,,,,,,,,0,64,127,,
97680,note_on,30,0,3,,,,,,,,,2,,,57,0
97680,control_change,0,0,3,,,,,,,,,2,64,127,,
97680,note_on,0,0,1,,,,,,,,,0,,,81,62
97680,control_change,0,0,3,,,,,,,,,2,64,0,,
97680,note_on,0,0,1,,,,,,,,,0,,,73,62
97680,note_on,0,0,3,,,,,,,,,2,,,55,49
97686,note_on,0,0,1,,,,,,,,,0,,,69,0
97686,note_on,6,0,1,,,,,,,,,0,,,81,0
97686,note_on,0,0,1,,,,,,,,,0,,,73,0
97686,note_on,0,0,1,,,,,,,,,0,,,76,0
97710,note_on,0,0,3,,,,,,,,,2,,,57,49
97710,note_on,30,0,3,,,,,,,,,2,,,55,0
97740,note_on,54,0,1,,,,,,,,,0,,,69,62
97740,note_on,0,0,1,,,,,,,,,0,,,73,62
97740,note_on,0,0,1,,,,,,,,,0,,,76,62
97740,note_on,0,0,1,,,,,,,,,0,,,81,62
97740,note_on,30,0,3,,,,,,,,,2,,,57,0
97740,note_on,0,0,3,,,,,,,,,2,,,61,49
97746,note_on,6,0,1,,,,,,,,,0,,,81,0
97746,note_on,0,0,1,,,,,,,,,0,,,76,0
97746,note_on,0,0,1,,,,,,,,,0,,,73,0
97746,note_on,0,0,1,,,,,,,,,0,,,69,0
97770,note_on,30,0,3,,,,,,,,,2,,,61,0
97770,note_on,0,0,3,,,,,,,,,2,,,66,49
97800,note_on,30,0,3,,,,,,,,,2,,,66,0
97800,note_on,0,0,3,,,,,,,,,2,,,64,49
97800,note_on,0,0,1,,,,,,,,,0,,,76,62
97800,note_on,54,0,1,,,,,,,,,0,,,69,62
97800,note_on,0,0,1,,,,,,,,,0,,,81,62
97800,note_on,0,0,1,,,,,,,,,0,,,73,62
97806,note_on,0,0,1,,,,,,,,,0,,,76,0
97806,note_on,0,0,1,,,,,,,,,0,,,73,0
97806,note_on,0,0,1,,,,,,,,,0,,,69,0
97806,note_on,6,0,1,,,,,,,,,0,,,81,0
97830,note_on,30,0,3,,,,,,,,,2,,,64,0
97830,note_on,0,0,3,,,,,,,,,2,,,61,49
97860,note_on,54,0,1,,,,,,,,,0,,,69,62
97860,note_on,0,0,1,,,,,,,,,0,,,76,62
97860,note_on,0,0,1,,,,,,,,,0,,,81,62
97860,note_on,30,0,3,,,,,,,,,2,,,61,0
97860,note_on,0,0,1,,,,,,,,,0,,,73,62
97860,note_on,0,0,3,,,,,,,,,2,,,57,49
97866,note_on,0,0,1,,,,,,,,,0,,,73,0
97866,note_on,0,0,1,,,,,,,,,0,,,69,0
97866,note_on,0,0,1,,,,,,,,,0,,,76,0
97866,note_on,6,0,1,,,,,,,,,0,,,81,0
97890,note_on,30,0,3,,,,,,,,,2,,,57,0
97890,note_on,0,0,3,,,,,,,,,2,,,55,49
97920,note_on,30,0,3,,,,,,,,,2,,,55,0
97920,control_change,0,0,3,,,,,,,,,2,64,127,,
97920,control_change,0,0,3,,,,,,,,,2,64,0,,
97920,note_on,0,0,3,,,,,,,,,2,,,54,49
97920,note_on,0,0,1,,,,,,,,,0,,,69,62
97920,control_change,54,0,1,,,,,,,,,0,64,127,,
97920,control_change,0,0,1,,,,,,,,,0,64,0,,
97920,note_on,0,0,1,,,,,,,,,0,,,74,62
97920,note_on,0,0,1,,,,,,,,,0,,,81,62
97926,note_on,0,0,1,,,,,,,,,0,,,69,0
97926,note_on,6,0,1,,,,,,,,,0,,,81,0
97926,note_on,0,0,1,,,,,,,,,0,,,74,0
97950,note_on,0,0,3,,,,,,,,,2,,,56,49
97950,note_on,30,0,3,,,,,,,,,2,,,54,0
97980,note_on,0,0,1,,,,,,,,,0,,,74,62
97980,note_on,30,0,3,,,,,,,,,2,,,56,0
97980,note_on,0,0,3,,,,,,,,,2,,,57,49
97980,note_on,0,0,1,,,,,,,,,0,,,81,62
97980,note_on,54,0,1,,,,,,,,,0,,,69,62
97986,note_on,0,0,1,,,,,,,,,0,,,69,0
97986,note_on,6,0,1,,,,,,,,,0,,,81,0
97986,note_on,0,0,1,,,,,,,,,0,,,74,0
98010,note_on,30,0,3,,,,,,,,,2,,,57,0
98010,note_on,0,0,3,,,,,,,,,2,,,62,49
98040,note_on,0,0,3,,,,,,,,,2,,,53,49
98040,note_on,54,0,1,,,,,,,,,0,,,71,62
98040,note_on,0,0,1,,,,,,,,,0,,,74,62
98040,note_on,0,0,1,,,,,,,,,0,,,83,62
98040,note_on,30,0,3,,,,,,,,,2,,,62,0
98046,note_on,6,0,1,,,,,,,,,0,,,83,0
98046,note_on,0,0,1,,,,,,,,,0,,,71,0
98046,note_on,0,0,1,,,,,,,,,0,,,74,0
98070,note_on,30,0,3,,,,,,,,,2,,,53,0
98070,note_on,0,0,3,,,,,,,,,2,,,56,49
98100,note_on,54,0,1,,,,,,,,,0,,,71,62
98100,note_on,0,0,3,,,,,,,,,2,,,57,49
98100,note_on,30,0,3,,,,,,,,,2,,,56,0
98100,note_on,0,0,1,,,,,,,,,0,,,74,62
98100,note_on,0,0,1,,,,,,,,,0,,,83,62
98106,note_on,0,0,1,,,,,,,,,0,,,71,0
98106,note_on,0,0,1,,,,,,,,,0,,,74,0
98106,note_on,6,0,1,,,,,,,,,0,,,83,0
98130,note_on,0,0,3,,,,,,,,,2,,,62,49
98130,note_on,30,0,3,,,,,,,,,2,,,57,0
98160,control_change,0,0,1,,,,,,,,,0,64,0,,
98160,control_change,0,0,3,,,,,,,,,2,64,0,,
98160,note_on,0,0,1,,,,,,,,,0,,,73,62
98160,note_on,30,0,3,,,,,,,,,2,,,62,0
98160,control_change,0,0,3,,,,,,,,,2,64,127,,
98160,note_on,0,0,3,,,,,,,,,2,,,52,49
98160,note_on,0,0,1,,,,,,,,,0,,,76,62
98160,control_change,54,0,1,,,,,,,,,0,64,127,,
98166,note_on,0,0,1,,,,,,,,,0,,,73,0
98166,note_on,6,0,1,,,,,,,,,0,,,76,0
98190,note_on,30,0,3,,,,,,,,,2,,,52,0
98190,note_on,0,0,3,,,,,,,,,2,,,57,49
98220,note_on,30,0,3,,,,,,,,,2,,,57,0
98220,note_on,0,0,1,,,,,,,,,0,,,76,62
98220,note_on,54,0,1,,,,,,,,,0,,,73,62
98220,note_on,0,0,3,,,,,,,,,2,,,59,49
98226,note_on,0,0,1,,,,,,,,,0,,,73,0
98226,note_on,6,0,1,,,,,,,,,0,,,76,0
98250,note_on,0,0,3,,,,,,,,,2,,,61,49
98250,note_on,30,0,3,,,,,,,,,2,,,59,0
98280,note_on,0,0,3,,,,,,,,,2,,,64,49
98280,note_on,0,0,1,,,,,,,,,0,,,76,62
98280,note_on,30,0,3,,,,,,,,,2,,,61,0
98280,note_on,0,0,1,,,,,,,,,0,,,74,62
98280,note_on,54,0,1,,,,,,,,,0,,,68,62
98280,note_on,0,0,1,,,,,,,,,0,,,80,62
98286,note_on,0,0,1,,,,,,,,,0,,,68,0
98286,note_on,0,0,1,,,,,,,,,0,,,74,0
98286,note_on,0,0,1,,,,,,,,,0,,,76,0
98286,note_on,6,0,1,,,,,,,,,0,,,80,0
98310,note_on,30,0,3,,,,,,,,,2,,,64,0
98310,note_on,0,0,3,,,,,,,,,2,,,62,49
98340,note_on,54,0,1,,,,,,,,,0,,,68,62
98340,note_on,0,0,1,,,,,,,,,0,,,74,62
98340,note_on,30,0,3,,,,,,,,,2,,,62,0
98340,note_on,0,0,1,,,,,,,,,0,,,76,62
98340,note_on,0,0,1,,,,,,,,,0,,,80,62
98340,note_on,0,0,3,,,,,,,,,2,,,61,49
98346,note_on,0,0,1,,,,,,,,,0,,,76,0
98346,note_on,0,0,1,,,,,,,,,0,,,74,0
98346,note_on,0,0,1,,,,,,,,,0,,,68,0
98346,note_on,6,0,1,,,,,,,,,0,,,80,0
98370,note_on,30,0,3,,,,,,,,,2,,,61,0
98370,note_on,0,0,3,,,,,,,,,2,,,59,49
98400,control_change,0,0,3,,,,,,,,,2,64,127,,
98400,note_on,0,0,3,,,,,,,,,2,,,57,49
98400,note_on,30,0,3,,,,,,,,,2,,,59,0
98400,control_change,0,0,3,,,,,,,,,2,64,0,,
98400,note_on,0,0,1,,,,,,,,,0,,,73,62
98400,note_on,0,0,1,,,,,,,,,0,,,76,62
98400,note_on,0,0,1,,,,,,,,,0,,,81,62
98400,control_change,54,0,1,,,,,,,,,0,64,0,,
98400,control_change,0,0,1,,,,,,,,,0,64,127,,
98400,note_on,0,0,1,,,,,,,,,0,,,69,62
98406,note_on,6,0,3,,,,,,,,,2,,,57,0
98460,note_on,54,0,3,,,,,,,,,2,,,57,49
98466,note_on,6,0,3,,,,,,,,,2,,,57,0
98520,note_on,0,0,3,,,,,,,,,2,,,69,49
98520,note_on,0,0,3,,,,,,,,,2,,,61,49
98520,note_on,54,0,3,,,,,,,,,2,,,57,49
98526,note_on,6,0,3,,,,,,,,,2,,,69,0
98526,note_on,0,0,3,,,,,,,,,2,,,61,0
98526,note_on,0,0,3,,,,,,,,,2,,,57,0
98580,note_on,0,0,3,,,,,,,,,2,,,57,62
98580,note_on,0,0,3,,,,,,,,,2,,,61,62
98580,note_on,0,0,3,,,,,,,,,2,,,69,62
98580,control_change,54,0,3,,,,,,,,,2,64,0,,
98586,note_on,0,0,3,,,,,,,,,2,,,57,0
98586,note_on,6,0,3,,,,,,,,,2,,,69,0
98586,note_on,0,0,3,,,,,,,,,2,,,61,0
98640,control_change,54,0,3,,,,,,,,,2,64,0,,
98640,note_on,0,0,1,,,,,,,,,0,,,73,0
98640,note_on,0,0,3,,,,,,,,,2,,,59,62
98640,note_on,240,0,1,,,,,,,,,0,,,81,0
98640,note_on,0,0,1,,,,,,,,,0,,,76,0
98640,note_on,0,0,3,,,,,,,,,2,,,62,62
98640,note_on,0,0,3,,,,,,,,,2,,,68,62
98640,note_on,0,0,1,,,,,,,,,0,,,69,0
98646,note_on,6,0,3,,,,,,,,,2,,,68,0
98646,note_on,0,0,3,,,,,,,,,2,,,59,0
98646,note_on,0,0,3,,,,,,,,,2,,,62,0
98700,note_on,54,0,3,,,,,,,,,2,,,59,62
98700,note_on,0,0,3,,,,,,,,,2,,,62,62
98700,note_on,0,0,3,,,,,,,,,2,,,68,62
98706,note_on,6,0,3,,,,,,,,,2,,,68,0
98706,note_on,0,0,3,,,,,,,,,2,,,62,0
98706,note_on,0,0,3,,,,,,,,,2,,,59,0
98760,note_on,54,0,3,,,,,,,,,2,,,61,49
98760,note_on,0,0,3,,,,,,,,,2,,,64,49
98760,note_on,0,0,3,,,,,,,,,2,,,67,49
98766,note_on,0,0,3,,,,,,,,,2,,,64,0
98766,note_on,0,0,3,,,,,,,,,2,,,61,0
98766,note_on,6,0,3,,,,,,,,,2,,,67,0
98820,note_on,54,0,3,,,,,,,,,2,,,61,49
98820,note_on,0,0,3,,,,,,,,,2,,,64,49
98820,note_on,0,0,3,,,,,,,,,2,,,67,49
98826,note_on,6,0,3,,,,,,,,,2,,,67,0
98826,note_on,0,0,3,,,,,,,,,2,,,61,0
98826,note_on,0,0,3,,,,,,,,,2,,,64,0
98880,control_change,54,0,3,,,,,,,,,2,64,127,,
98880,note_on,0,0,3,,,,,,,,,2,,,62,49
98880,note_on,0,0,3,,,,,,,,,2,,,66,49
98886,note_on,0,0,3,,,,,,,,,2,,,62,0
98886,note_on,6,0,3,,,,,,,,,2,,,66,0
98940,note_on,0,0,3,,,,,,,,,2,,,66,49
98940,note_on,54,0,3,,,,,,,,,2,,,57,49
98946,note_on,0,0,3,,,,,,,,,2,,,57,0
98946,note_on,6,0,3,,,,,,,,,2,,,66,0
99000,note_on,0,0,3,,,,,,,,,2,,,66,49
99000,note_on,54,0,3,,,,,,,,,2,,,62,49
99006,note_on,0,0,3,,,,,,,,,2,,,62,0
99006,note_on,6,0,3,,,,,,,,,2,,,66,0
99060,note_on,0,0,3,,,,,,,,,2,,,66,49
99060,note_on,54,0,3,,,,,,,,,2,,,57,49
99066,note_on,0,0,3,,,,,,,,,2,,,57,0
99066,note_on,6,0,3,,,,,,,,,2,,,66,0
99120,note_on,54,0,3,,,,,,,,,2,,,62,49
99120,control_change,480,0,1,,,,,,,,,0,64,127,,
99120,note_on,0,0,1,,,,,,,,,0,,,83,62
99120,note_on,0,0,3,,,,,,,,,2,,,66,49
99126,note_on,6,0,3,,,,,,,,,2,,,66,0
99126,note_on,0,0,3,,,,,,,,,2,,,62,0
99150,note_on,0,0,1,,,,,,,,,0,,,81,62
99150,note_on,30,0,1,,,,,,,,,0,,,83,0
99180,note_on,0,0,1,,,,,,,,,0,,,86,62
99180,note_on,54,0,3,,,,,,,,,2,,,57,49
99180,note_on,0,0,3,,,,,,,,,2,,,66,49
99180,note_on,30,0,1,,,,,,,,,0,,,81,0
99186,note_on,6,0,3,,,,,,,,,2,,,66,0
99186,note_on,0,0,3,,,,,,,,,2,,,57,0
99210,note_on,30,0,1,,,,,,,,,0,,,86,0
99210,note_on,0,0,1,,,,,,,,,0,,,81,62
99240,note_on,0,0,1,,,,,,,,,0,,,80,62
99240,note_on,0,0,3,,,,,,,,,2,,,66,49
99240,note_on,54,0,3,,,,,,,,,2,,,62,49
99240,note_on,30,0,1,,,,,,,,,0,,,81,0
99246,note_on,6,0,3,,,,,,,,,2,,,66,0
99246,note_on,0,0,3,,,,,,,,,2,,,62,0
99270,note_on,0,0,1,,,,,,,,,0,,,83,62
99270,note_on,30,0,1,,,,,,,,,0,,,80,0
99300,note_on,30,0,1,,,,,,,,,0,,,83,0
99300,note_on,0,0,3,,,,,,,,,2,,,57,49
99300,note_on,0,0,3,,,,,,,,,2,,,66,49
99300,control_change,54,0,3,,,,,,,,,2,64,0,,
99300,note_on,0,0,1,,,,,,,,,0,,,81,62
99306,note_on,6,0,3,,,,,,,,,2,,,66,0
99306,note_on,0,0,3,,,,,,,,,2,,,57,0
99330,note_on,0,0,1,,,,,,,,,0,,,78,62
99330,control_change,0,0,1,,,,,,,,,0,64,0,,
99330,note_on,30,0,1,,,,,,,,,0,,,81,0
99360,note_on,30,0,1,,,,,,,,,0,,,78,0
99360,control_change,0,0,1,,,,,,,,,0,64,127,,
99360,note_on,0,0,1,,,,,,,,,0,,,74,88
99360,note_on,0,0,3,,,,,,,,,2,,,66,49
99360,note_on,0,0,3,,,,,,,,,2,,,62,49
99360,control_change,54,0,3,,,,,,,,,2,64,127,,
99366,note_on,0,0,3,,,,,,,,,2,,,62,0
99366,note_on,6,0,3,,,,,,,,,2,,,66,0
99420,note_on,0,0,3,,,,,,,,,2,,,66,49
99420,note_on,54,0,3,,,,,,,,,2,,,57,49
99420,note_on,60,0,1,,,,,,,,,0,,,74,0
99420,note_on,0,0,1,,,,,,,,,0,,,76,62
99426,note_on,6,0,3,,,,,,,,,2,,,66,0
99426,note_on,0,0,3,,,,,,,,,2,,,57,0
99450,note_on,0,0,1,,,,,,,,,0,,,74,62
99450,note_on,30,0,1,,,,,,,,,0,,,76,0
99480,note_on,0,0,1,,,,,,,,,0,,,76,62
99480,note_on,54,0,3,,,,,,,,,2,,,62,49
99480,note_on,0,0,3,,,,,,,,,2,,,66,49
99480,note_on,30,0,1,,,,,,,,,0,,,74,0
99486,note_on,6,0,3,,,,,,,,,2,,,66,0
99486,note_on,0,0,3,,,,,,,,,2,,,62,0
99510,note_on,0,0,1,,,,,,,,,0,,,74,62
99510,note_on,30,0,1,,,,,,,,,0,,,76,0
99540,control_change,54,0,3,,,,,,,,,2,64,0,,
99540,note_on,0,0,3,,,,,,,,,2,,,57,49
99540,note_on,0,0,3,,,,,,,,,2,,,66,49
99540,note_on,0,0,1,,,,,,,,,0,,,78,62
99540,note_on,30,0,1,,,,,,,,,0,,,74,0
99546,note_on,6,0,3,,,,,,,,,2,,,66,0
99546,note_on,0,0,3,,,,,,,,,2,,,57,0
99570,note_on,0,0,1,,,,,,,,,0,,,76,62
99570,control_change,0,0,1,,,,,,,,,0,64,0,,
99570,note_on,30,0,1,,,,,,,,,0,,,78,0
99600,note_on,0,0,3,,,,,,,,,2,,,64,49
99600,note_on,0,0,1,,,,,,,,,0,,,74,62
99600,control_change,0,0,1,,,,,,,,,0,64,127,,
99600,note_on,30,0,1,,,,,,,,,0,,,76,0
99600,control_change,54,0,3,,,,,,,,,2,64,127,,
99600,note_on,0,0,3,,,,,,,,,2,,,67,49
99606,note_on,0,0,3,,,,,,,,,2,,,64,0
99606,note_on,6,0,3,,,,,,,,,2,,,67,0
99630,note_on,30,0,1,,,,,,,,,0,,,74,0
99630,note_on,0,0,1,,,,,,,,,0,,,73,62
99660,note_on,0,0,1,,,,,,,,,0,,,71,62
99660,note_on,0,0,3,,,,,,,,,2,,,67,49
99660,note_on,54,0,3,,,,,,,,,2,,,57,49
99660,note_on,30,0,1,,,,,,,,,0,,,73,0
99666,note_on,0,0,3,,,,,,,,,2,,,57,0
99666,note_on,6,0,3,,,,,,,,,2,,,67,0
99690,note_on,30,0,1,,,,,,,,,0,,,71,0
99690,note_on,0,0,1,,,,,,,,,0,,,69,62
99720,note_on,30,0,1,,,,,,,,,0,,,69,0
99720,note_on,0,0,1,,,,,,,,,0,,,71,62
99720,note_on,0,0,3,,,,,,,,,2,,,67,49
99720,note_on,54,0,3,,,,,,,,,2,,,61,49
99726,note_on,6,0,3,,,,,,,,,2,,,67,0
99726,note_on,0,0,3,,,,,,,,,2,,,61,0
99750,note_on,30,0,1,,,,,,,,,0,,,71,0
99750,note_on,0,0,1,,,,,,,,,0,,,73,62
99780,note_on,0,0,1,,,,,,,,,0,,,74,62
99780,control_change,54,0,3,,,,,,,,,2,64,0,,
99780,note_on,0,0,3,,,,,,,,,2,,,57,49
99780,note_on,0,0,3,,,,,,,,,2,,,67,49
99780,note_on,30,0,1,,,,,,,,,0,,,73,0
99786,note_on,6,0,3,,,,,,,,,2,,,67,0
99786,note_on,0,0,3,,,,,,,,,2,,,57,0
99810,note_on,0,0,1,,,,,,,,,0,,,76,62
99810,note_on,30,0,1,,,,,,,,,0,,,74,0
99810,control_change,0,0,1,,,,,,,,,0,64,0,,
99840,note_on,0,0,3,,,,,,,,,2,,,66,49
99840,note_on,0,0,3,,,,,,,,,2,,,62,49
99840,control_change,54,0,3,,,,,,,,,2,64,127,,
99840,note_on,30,0,1,,,,,,,,,0,,,76,0
99840,control_change,0,0,1,,,,,,,,,0,64,127,,
99840,note_on,0,0,1,,,,,,,,,0,,,69,88
99846,note_on,6,0,3,,,,,,,,,2,,,66,0
99846,note_on,0,0,3,,,,,,,,,2,,,62,0
99900,note_on,54,0,3,,,,,,,,,2,,,57,49
99900,note_on,60,0,1,,,,,,,,,0,,,69,0
99900,note_on,0,0,1,,,,,,,,,0,,,71,62
99900,note_on,0,0,3,,,,,,,,,2,,,66,49
99906,note_on,0,0,3,,,,,,,,,2,,,57,0
99906,note_on,6,0,3,,,,,,,,,2,,,66,0
99930,note_on,0,0,1,,,,,,,,,0,,,69,62
99930,note_on,30,0,1,,,,,,,,,0,,,71,0
99960,note_on,30,0,1,,,,,,,,,0,,,69,0
99960,note_on,0,0,3,,,,,,,,,2,,,66,49
99960,note_on,0,0,1,,,,,,,,,0,,,71,62
99960,note_on,54,0,3,,,,,,,,,2,,,62,49
99966,note_on,6,0,3,,,,,,,,,2,,,66,0
99966,note_on,0,0,3,,,,,,,,,2,,,62,0
99990,note_on,0,0,1,,,,,,,,,0,,,69,62
99990,note_on,30,0,1,,,,,,,,,0,,,71,0
100020,note_on,0,0,3,,,,,,,,,2,,,66,49
100020,note_on,0,0,3,,,,,,,,,2,,,57,49
100020,note_on,30,0,1,,,,,,,,,0,,,69,0
100020,note_on,0,0,1,,,,,,,,,0,,,78,62
100020,control_change,54,0,3,,,,,,,,,2,64,0,,
100026,note_on,0,0,3,,,,,,,,,2,,,57,0
100026,note_on,6,0,3,,,,,,,,,2,,,66,0
100050,note_on,30,0,1,,,,,,,,,0,,,78,0
100050,control_change,0,0,1,,,,,,,,,0,64,0,,
100050,note_on,0,0,1,,,,,,,,,0,,,74,62
100080,control_change,54,0,3,,,,,,,,,2,64,127,,
100080,note_on,0,0,3,,,,,,,,,2,,,64,49
100080,note_on,0,0,3,,,,,,,,,2,,,67,49
100080,note_on,0,0,1,,,,,,,,,0,,,73,62
100080,note_on,30,0,1,,,,,,,,,0,,,74,0
100080,control_change,0,0,1,,,,,,,,,0,64,127,,
100086,note_on,0,0,3,,,,,,,,,2,,,64,0
100086,note_on,6,0,3,,,,,,,,,2,,,67,0
100110,note_on,0,0,1,,,,,,,,,0,,,74,62
100110,note_on,30,0,1,,,,,,,,,0,,,73,0
100140,note_on,0,0,1,,,,,,,,,0,,,76,62
100140,note_on,30,0,1,,,,,,,,,0,,,74,0
100140,note_on,54,0,3,,,,,,,,,2,,,57,49
100140,note_on,0,0,3,,,,,,,,,2,,,67,49
100146,note_on,0,0,3,,,,,,,,,2,,,57,0
100146,note_on,6,0,3,,,,,,,,,2,,,67,0
100170,note_on,0,0,1,,,,,,,,,0,,,78,62
100170,note_on,30,0,1,,,,,,,,,0,,,76,0
100200,note_on,0,0,1,,,,,,,,,0,,,79,62
100200,note_on,30,0,1,,,,,,,,,0,,,78,0
100200,note_on,0,0,3,,,,,,,,,2,,,67,49
100200,note_on,54,0,3,,,,,,,,,2,,,61,49
100206,note_on,6,0,3,,,,,,,,,2,,,67,0
100206,note_on,0,0,3,,,,,,,,,2,,,61,0
100230,note_on,30,0,1,,,,,,,,,0,,,79,0
100230,note_on,0,0,1,,,,,,,,,0,,,81,62
100260,note_on,30,0,1,,,,,,,,,0,,,81,0
100260,note_on,0,0,1,,,,,,,,,0,,,83,62
100260,note_on,0,0,3,,,,,,,,,2,,,57,49
100260,control_change,54,0,3,,,,,,,,,2,64,0,,
100260,note_on,0,0,3,,,,,,,,,2,,,67,49
100266,note_on,6,0,3,,,,,,,,,2,,,67,0
100266,note_on,0,0,3,,,,,,,,,2,,,57,0
100290,note_on,0,0,1,,,,,,,,,0,,,81,62
100290,control_change,0,0,1,,,,,,,,,0,64,0,,
100290,note_on,30,0,1,,,,,,,,,0,,,83,0
100320,control_change,54,0,3,,,,,,,,,2,64,127,,
100320,note_on,0,0,3,,,,,,,,,2,,,62,49
100320,note_on,0,0,3,,,,,,,,,2,,,66,49
100320,note_on,0,0,1,,,,,,,,,0,,,81,88
100320,control_change,0,0,1,,,,,,,,,0,64,127,,
100320,note_on,30,0,1,,,,,,,,,0,,,81,0
100326,note_on,6,0,3,,,,,,,,,2,,,66,0
100326,note_on,0,0,3,,,,,,,,,2,,,62,0
100380,note_on,0,0,1,,,,,,,,,0,,,83,62
100380,note_on,60,0,1,,,,,,,,,0,,,81,0
100380,note_on,54,0,3,,,,,,,,,2,,,57,49
100380,note_on,0,0,3,,,,,,,,,2,,,66,49
100386,note_on,0,0,3,,,,,,,,,2,,,57,0
100386,note_on,6,0,3,,,,,,,,,2,,,66,0
100410,note_on,0,0,1,,,,,,,,,0,,,81,62
100410,note_on,30,0,1,,,,,,,,,0,,,83,0
100440,note_on,0,0,1,,,,,,,,,0,,,83,62
100440,note_on,54,0,3,,,,,,,,,2,,,62,49
100440,note_on,0,0,3,,,,,,,,,2,,,66,49
100440,note_on,30,0,1,,,,,,,,,0,,,81,0
100446,note_on,0,0,3,,,,,,,,,2,,,62,0
100446,note_on,6,0,3,,,,,,,,,2,,,66,0
100470,note_on,0,0,1,,,,,,,,,0,,,81,62
100470,note_on,30,0,1,,,,,,,,,0,,,83,0
100500,note_on,30,0,1,,,,,,,,,0,,,81,0
100500,note_on,0,0,1,,,,,,,,,0,,,86,62
100500,note_on,0,0,3,,,,,,,,,2,,,57,49
100500,note_on,0,0,3,,,,,,,,,2,,,66,49
100500,control_change,54,0,3,,,,,,,,,2,64,0,,
100506,note_on,0,0,3,,,,,,,,,2,,,57,0
100506,note_on,6,0,3,,,,,,,,,2,,,66,0
100530,note_on,0,0,1,,,,,,,,,0,,,85,62
100530,note_on,30,0,1,,,,,,,,,0,,,86,0
100545,note_on,0,0,1,,,,,,,,,0,,,83,62
100545,note_on,15,0,1,,,,,,,,,0,,,85,0
100552,control_change,7,0,1,,,,,,,,,0,64,127,,
100552,note_on,0,0,1,,,,,,,,,0,,,85,62
100553,note_on,1,0,1,,,,,,,,,0,,,83,0
100560,note_on,0,0,3,,,,,,,,,2,,,62,49
100560,note_on,7,0,1,,,,,,,,,0,,,85,0
100560,note_on,0,0,1,,,,,,,,,0,,,83,62
100560,control_change,54,0,3,,,,,,,,,2,64,127,,
100560,note_on,0,0,3,,,,,,,,,2,,,67,49
100566,note_on,6,0,3,,,,,,,,,2,,,67,0
100566,note_on,0,0,3,,,,,,,,,2,,,62,0
100590,note_on,0,0,1,,,,,,,,,0,,,82,62
100590,note_on,30,0,1,,,,,,,,,0,,,83,0
100620,note_on,0,0,3,,,,,,,,,2,,,62,49
100620,note_on,0,0,1,,,,,,,,,0,,,83,62
100620,note_on,30,0,1,,,,,,,,,0,,,82,0
100620,note_on,0,0,3,,,,,,,,,2,,,67,49
100620,note_on,54,0,3,,,,,,,,,2,,,55,49
100626,note_on,0,0,3,,,,,,,,,2,,,62,0
100626,note_on,0,0,3,,,,,,,,,2,,,55,0
100626,note_on,6,0,3,,,,,,,,,2,,,67,0
100650,note_on,30,0,1,,,,,,,,,0,,,83,0
100650,note_on,0,0,1,,,,,,,,,0,,,85,62
100680,note_on,30,0,1,,,,,,,,,0,,,85,0
100680,note_on,0,0,1,,,,,,,,,0,,,83,62
100680,note_on,54,0,3,,,,,,,,,2,,,62,49
100680,note_on,0,0,3,,,,,,,,,2,,,67,49
100686,note_on,6,0,3,,,,,,,,,2,,,67,0
100686,note_on,0,0,3,,,,,,,,,2,,,62,0
100710,note_on,30,0,1,,,,,,,,,0,,,83,0
100710,note_on,0,0,1,,,,,,,,,0,,,91,62
100740,note_on,30,0,1,,,,,,,,,0,,,91,0
100740,note_on,0,0,3,,,,,,,,,2,,,67,49
100740,note_on,0,0,3,,,,,,,,,2,,,62,49
100740,control_change,54,0,3,,,,,,,,,2,64,0,,
100740,note_on,0,0,1,,,,,,,,,0,,,86,62
100740,note_on,0,0,3,,,,,,,,,2,,,59,49
100746,note_on,0,0,3,,,,,,,,,2,,,62,0
100746,note_on,0,0,3,,,,,,,,,2,,,59,0
100746,note_on,6,0,3,,,,,,,,,2,,,67,0
100770,note_on,30,0,1,,,,,,,,,0,,,86,0
100770,control_change,0,0,1,,,,,,,,,0,64,0,,
100770,note_on,0,0,1,,,,,,,,,0,,,83,62
100800,control_change,0,0,1,,,,,,,,,0,64,127,,
100800,note_on,0,0,1,,,,,,,,,0,,,81,88
100800,note_on,30,0,1,,,,,,,,,0,,,83,0
100800,note_on,0,0,3,,,,,,,,,2,,,66,49
100800,note_on,0,0,3,,,,,,,,,2,,,62,49
100800,control_change,54,0,3,,,,,,,,,2,64,127,,
100806,note_on,6,0,3,,,,,,,,,2,,,66,0
100806,note_on,0,0,3,,,,,,,,,2,,,62,0
100860,note_on,0,0,3,,,,,,,,,2,,,66,49
100860,note_on,54,0,3,,,,,,,,,2,,,57,49
100860,note_on,0,0,1,,,,,,,,,0,,,83,62
100860,note_on,60,0,1,,,,,,,,,0,,,81,0
100866,note_on,0,0,3,,,,,,,,,2,,,57,0
100866,note_on,6,0,3,,,,,,,,,2,,,66,0
100890,note_on,0,0,1,,,,,,,,,0,,,81,62
100890,note_on,30,0,1,,,,,,,,,0,,,83,0
100920,note_on,54,0,3,,,,,,,,,2,,,62,49
100920,note_on,0,0,3,,,,,,,,,2,,,66,49
100920,note_on,30,0,1,,,,,,,,,0,,,81,0
100920,note_on,0,0,1,,,,,,,,,0,,,83,62
100926,note_on,0,0,3,,,,,,,,,2,,,62,0
100926,note_on,6,0,3,,,,,,,,,2,,,66,0
100950,note_on,30,0,1,,,,,,,,,0,,,83,0
100950,note_on,0,0,1,,,,,,,,,0,,,81,62
100980,note_on,30,0,1,,,,,,,,,0,,,81,0
100980,control_change,54,0,3,,,,,,,,,2,64,0,,
100980,note_on,0,0,3,,,,,,,,,2,,,57,49
100980,note_on,0,0,1,,,,,,,,,0,,,83,62
100980,note_on,0,0,3,,,,,,,,,2,,,66,49
100986,note_on,0,0,3,,,,,,,,,2,,,57,0
100986,note_on,6,0,3,,,,,,,,,2,,,66,0
101010,note_on,0,0,1,,,,,,,,,0,,,81,62
101010,note_on,30,0,1,,,,,,,,,0,,,83,0
101010,control_change,0,0,1,,,,,,,,,0,64,0,,
101040,note_on,0,0,3,,,,,,,,,2,,,62,36
101040,control_change,54,0,3,,,,,,,,,2,64,127,,
101040,note_on,0,0,3,,,,,,,,,2,,,65,36
101040,note_on,30,0,1,,,,,,,,,0,,,81,0
101040,note_on,0,0,1,,,,,,,,,0,,,82,75
101040,control_change,0,0,1,,,,,,,,,0,64,127,,
101046,note_on,0,0,3,,,,,,,,,2,,,62,0
101046,note_on,6,0,3,,,,,,,,,2,,,65,0
101070,note_on,0,0,1,,,,,,,,,0,,,81,75
101070,note_on,30,0,1,,,,,,,,,0,,,82,0
101100,note_on,54,0,3,,,,,,,,,2,,,57,36
101100,note_on,0,0,3,,,,,,,,,2,,,65,36
101100,note_on,0,0,1,,,,,,,,,0,,,86,75
101100,note_on,30,0,1,,,,,,,,,0,,,81,0
101106,note_on,0,0,3,,,,,,,,,2,,,57,0
101106,note_on,6,0,3,,,,,,,,,2,,,65,0
101130,note_on,0,0,1,,,,,,,,,0,,,81,75
101130,note_on,30,0,1,,,,,,,,,0,,,86,0
101160,note_on,0,0,3,,,,,,,,,2,,,65,36
101160,note_on,0,0,1,,,,,,,,,0,,,80,62
101160,note_on,30,0,1,,,,,,,,,0,,,81,0
101160,note_on,54,0,3,,,,,,,,,2,,,62,36
101166,note_on,6,0,3,,,,,,,,,2,,,65,0
101166,note_on,0,0,3,,,,,,,,,2,,,62,0
101190,note_on,0,0,1,,,,,,,,,0,,,82,62
101190,note_on,30,0,1,,,,,,,,,0,,,80,0
101220,note_on,30,0,1,,,,,,,,,0,,,82,0
101220,control_change,54,0,3,,,,,,,,,2,64,0,,
101220,note_on,0,0,1,,,,,,,,,0,,,81,62
101220,note_on,0,0,3,,,,,,,,,2,,,57,36
101220,note_on,0,0,3,,,,,,,,,2,,,65,36
101226,note_on,6,0,3,,,,,,,,,2,,,65,0
101226,note_on,0,0,3,,,,,,,,,2,,,57,0
101250,note_on,30,0,1,,,,,,,,,0,,,81,0
101250,control_change,0,0,1,,,,,,,,,0,64,0,,
101250,note_on,0,0,1,,,,,,,,,0,,,77,62
101280,note_on,0,0,1,,,,,,,,,0,,,74,88
101280,control_change,0,0,1,,,,,,,,,0,64,127,,
101280,note_on,30,0,1,,,,,,,,,0,,,77,0
101280,note_on,0,0,3,,,,,,,,,2,,,62,36
101280,note_on,0,0,3,,,,,,,,,2,,,65,36
101280,control_change,54,0,3,,,,,,,,,2,64,127,,
101286,note_on,0,0,3,,,,,,,,,2,,,62,0
101286,note_on,6,0,3,,,,,,,,,2,,,65,0
101340,note_on,0,0,3,,,,,,,,,2,,,65,36
101340,note_on,54,0,3,,,,,,,,,2,,,57,36
101340,note_on,0,0,1,,,,,,,,,0,,,76,62
101340,note_on,60,0,1,,,,,,,,,0,,,74,0
101346,note_on,0,0,3,,,,,,,,,2,,,57,0
101346,note_on,6,0,3,,,,,,,,,2,,,65,0
101370,note_on,30,0,1,,,,,,,,,0,,,76,0
101370,note_on,0,0,1,,,,,,,,,0,,,74,62
101400,note_on,0,0,3,,,,,,,,,2,,,65,36
101400,note_on,30,0,1,,,,,,,,,0,,,74,0
101400,note_on,54,0,3,,,,,,,,,2,,,62,36
101400,note_on,0,0,1,,,,,,,,,0,,,76,62
101406,note_on,0,0,3,,,,,,,,,2,,,62,0
101406,note_on,6,0,3,,,,,,,,,2,,,65,0
101430,note_on,30,0,1,,,,,,,,,0,,,76,0
101430,note_on,0,0,1,,,,,,,,,0,,,74,62
101460,control_change,54,0,3,,,,,,,,,2,64,0,,
101460,note_on,0,0,3,,,,,,,,,2,,,57,36
101460,note_on,0,0,3,,,,,,,,,2,,,65,36
101460,note_on,0,0,1,,,,,,,,,0,,,76,62
101460,note_on,30,0,1,,,,,,,,,0,,,74,0
101466,note_on,6,0,3,,,,,,,,,2,,,65,0
101466,note_on,0,0,3,,,,,,,,,2,,,57,0
101490,note_on,0,0,1,,,,,,,,,0,,,74,62
101490,note_on,30,0,1,,,,,,,,,0,,,76,0
101490,control_change,0,0,1,,,,,,,,,0,64,0,,
101520,control_change,54,0,3,,,,,,,,,2,64,127,,
101520,control_change,0,0,1,,,,,,,,,0,64,127,,
101520,note_on,0,0,1,,,,,,,,,0,,,79,75
101520,note_on,0,0,3,,,,,,,,,2,,,63,36
101520,note_on,0,0,3,,,,,,,,,2,,,65,36
101520,note_on,30,0,1,,,,,,,,,0,,,74,0
101526,note_on,0,0,3,,,,,,,,,2,,,63,0
101526,note_on,6,0,3,,,,,,,,,2,,,65,0
101550,note_on,30,0,1,,,,,,,,,0,,,79,0
101550,note_on,0,0,1,,,,,,,,,0,,,77,75
101580,note_on,54,0,3,,,,,,,,,2,,,57,36
101580,note_on,0,0,1,,,,,,,,,0,,,76,75
101580,note_on,30,0,1,,,,,,,,,0,,,77,0
101580,note_on,0,0,3,,,,,,,,,2,,,65,36
101580,note_on,0,0,3,,,,,,,,,2,,,63,36
101586,note_on,0,0,3,,,,,,,,,2,,,57,0
101586,note_on,0,0,3,,,,,,,,,2,,,63,0
101586,note_on,6,0,3,,,,,,,,,2,,,65,0
101610,note_on,30,0,1,,,,,,,,,0,,,76,0
101610,note_on,0,0,1,,,,,,,,,0,,,77,75
101640,note_on,0,0,1,,,,,,,,,0,,,79,75
101640,note_on,30,0,1,,,,,,,,,0,,,77,0
101640,note_on,0,0,3,,,,,,,,,2,,,65,36
101640,note_on,0,0,3,,,,,,,,,2,,,63,36
101640,note_on,54,0,3,,,,,,,,,2,,,60,36
101646,note_on,0,0,3,,,,,,,,,2,,,60,0
101646,note_on,6,0,3,,,,,,,,,2,,,65,0
101646,note_on,0,0,3,,,,,,,,,2,,,63,0
101670,note_on,30,0,1,,,,,,,,,0,,,79,0
101670,note_on,0,0,1,,,,,,,,,0,,,81,75
101700,control_change,54,0,3,,,,,,,,,2,64,0,,
101700,note_on,0,0,1,,,,,,,,,0,,,82,75
101700,note_on,30,0,1,,,,,,,,,0,,,81,0
101700,note_on,0,0,3,,,,,,,,,2,,,53,36
101700,note_on,0,0,3,,,,,,,,,2,,,65,36
101700,note_on,0,0,3,,,,,,,,,2,,,63,36
101706,note_on,0,0,3,,,,,,,,,2,,,63,0
101706,note_on,0,0,3,,,,,,,,,2,,,53,0
101706,note_on,6,0,3,,,,,,,,,2,,,65,0
101730,note_on,30,0,1,,,,,,,,,0,,,82,0
101730,control_change,0,0,1,,,,,,,,,0,64,0,,
101730,note_on,0,0,1,,,,,,,,,0,,,84,75
101760,note_on,30,0,1,,,,,,,,,0,,,84,0
101760,note_on,0,0,3,,,,,,,,,2,,,58,36
101760,note_on,0,0,3,,,,,,,,,2,,,62,36
101760,note_on,0,0,3,,,,,,,,,2,,,65,36
101760,control_change,0,0,1,,,,,,,,,0,64,127,,
101760,control_change,54,0,3,,,,,,,,,2,64,127,,
101760,note_on,0,0,1,,,,,,,,,0,,,86,75
101766,note_on,0,0,3,,,,,,,,,2,,,58,0
101766,note_on,0,0,3,,,,,,,,,2,,,62,0
101766,note_on,6,0,3,,,,,,,,,2,,,65,0
101820,note_on,60,0,1,,,,,,,,,0,,,86,0
101820,note_on,0,0,3,,,,,,,,,2,,,65,36
101820,note_on,54,0,3,,,,,,,,,2,,,62,36
101820,note_on,0,0,1,,,,,,,,,0,,,85,62
101826,note_on,6,0,3,,,,,,,,,2,,,65,0
101826,note_on,0,0,3,,,,,,,,,2,,,62,0
101850,note_on,30,0,1,,,,,,,,,0,,,85,0
101850,note_on,0,0,1,,,,,,,,,0,,,86,62
101880,note_on,0,0,3,,,,,,,,,2,,,65,36
101880,note_on,0,0,3,,,,,,,,,2,,,62,36
101880,note_on,54,0,3,,,,,,,,,2,,,58,36
101880,note_on,0,0,1,,,,,,,,,0,,,85,62
101880,note_on,30,0,1,,,,,,,,,0,,,86,0
101886,note_on,0,0,3,,,,,,,,,2,,,58,0
101886,note_on,6,0,3,,,,,,,,,2,,,65,0
101886,note_on,0,0,3,,,,,,,,,2,,,62,0
101910,note_on,30,0,1,,,,,,,,,0,,,85,0
101910,note_on,0,0,1,,,,,,,,,0,,,86,62
101940,note_on,0,0,3,,,,,,,,,2,,,65,36
101940,note_on,0,0,3,,,,,,,,,2,,,62,36
101940,control_change,54,0,3,,,,,,,,,2,64,0,,
101940,note_on,0,0,1,,,,,,,,,0,,,88,62
101940,note_on,30,0,1,,,,,,,,,0,,,86,0
101946,note_on,6,0,3,,,,,,,,,2,,,65,0
101946,note_on,0,0,3,,,,,,,,,2,,,62,0
101970,note_on,30,0,1,,,,,,,,,0,,,88,0
101970,control_change,0,0,1,,,,,,,,,0,64,0,,
101970,note_on,0,0,1,,,,,,,,,0,,,86,62
102000,note_on,30,0,1,,,,,,,,,0,,,86,0
102000,note_on,0,0,3,,,,,,,,,2,,,68,36
102000,note_on,0,0,1,,,,,,,,,0,,,88,62
102000,note_on,0,0,3,,,,,,,,,2,,,58,36
102000,control_change,54,0,3,,,,,,,,,2,64,127,,
102000,note_on,0,0,3,,,,,,,,,2,,,62,36
102000,control_change,0,0,1,,,,,,,,,0,64,127,,
102006,note_on,6,0,3,,,,,,,,,2,,,68,0
102006,note_on,0,0,3,,,,,,,,,2,,,62,0
102006,note_on,0,0,3,,,,,,,,,2,,,58,0
102030,note_on,0,0,1,,,,,,,,,0,,,86,62
102030,note_on,30,0,1,,,,,,,,,0,,,88,0
102060,note_on,30,0,1,,,,,,,,,0,,,86,0
102060,note_on,0,0,1,,,,,,,,,0,,,89,62
102060,note_on,54,0,3,,,,,,,,,2,,,58,36
102060,note_on,0,0,3,,,,,,,,,2,,,62,36
102060,note_on,0,0,3,,,,,,,,,2,,,65,36
102066,note_on,6,0,3,,,,,,,,,2,,,65,0
102066,note_on,0,0,3,,,,,,,,,2,,,62,0
102066,note_on,0,0,3,,,,,,,,,2,,,58,0
102090,note_on,0,0,1,,,,,,,,,0,,,88,62
102090,note_on,30,0,1,,,,,,,,,0,,,89,0
102120,note_on,0,0,3,,,,,,,,,2,,,68,36
102120,note_on,0,0,3,,,,,,,,,2,,,62,36
102120,note_on,54,0,3,,,,,,,,,2,,,58,36
102120,note_on,0,0,1,,,,,,,,,0,,,86,62
102120,note_on,30,0,1,,,,,,,,,0,,,88,0
102126,note_on,0,0,3,,,,,,,,,2,,,58,0
102126,note_on,0,0,3,,,,,,,,,2,,,62,0
102126,note_on,6,0,3,,,,,,,,,2,,,68,0
102150,note_on,0,0,1,,,,,,,,,0,,,88,62
102150,note_on,30,0,1,,,,,,,,,0,,,86,0
102180,note_on,0,0,3,,,,,,,,,2,,,58,36
102180,note_on,0,0,1,,,,,,,,,0,,,89,62
102180,note_on,30,0,1,,,,,,,,,0,,,88,0
102180,note_on,0,0,3,,,,,,,,,2,,,62,36
102180,note_on,0,0,3,,,,,,,,,2,,,65,36
102180,control_change,54,0,3,,,,,,,,,2,64,0,,
102186,note_on,0,0,3,,,,,,,,,2,,,58,0
102186,note_on,0,0,3,,,,,,,,,2,,,62,0
102186,note_on,6,0,3,,,,,,,,,2,,,65,0
102210,note_on,30,0,1,,,,,,,,,0,,,89,0
102210,control_change,0,0,1,,,,,,,,,0,64,0,,
102210,note_on,0,0,1,,,,,,,,,0,,,92,62
102240,note_on,0,0,3,,,,,,,,,2,,,69,36
102240,note_on,0,0,3,,,,,,,,,2,,,62,36
102240,note_on,0,0,3,,,,,,,,,2,,,57,36
102240,control_change,54,0,3,,,,,,,,,2,64,127,,
102240,note_on,30,0,1,,,,,,,,,0,,,92,0
102240,control_change,0,0,1,,,,,,,,,0,64,127,,
102240,note_on,0,0,1,,,,,,,,,0,,,93,88
102240,note_on,0,0,3,,,,,,,,,2,,,66,36
102246,note_on,0,0,3,,,,,,,,,2,,,62,0
102246,note_on,6,0,3,,,,,,,,,2,,,69,0
102246,note_on,0,0,3,,,,,,,,,2,,,57,0
102246,note_on,0,0,3,,,,,,,,,2,,,66,0
102300,note_on,54,0,3,,,,,,,,,2,,,62,36
102300,note_on,0,0,3,,,,,,,,,2,,,66,36
102300,note_on,0,0,3,,,,,,,,,2,,,69,36
102306,note_on,6,0,3,,,,,,,,,2,,,69,0
102306,note_on,0,0,3,,,,,,,,,2,,,66,0
102306,note_on,0,0,3,,,,,,,,,2,,,62,0
102330,note_on,0,0,1,,,,,,,,,0,,,90,62
102330,note_on,90,0,1,,,,,,,,,0,,,93,0
102360,note_on,0,0,3,,,,,,,,,2,,,69,36
102360,note_on,0,0,1,,,,,,,,,0,,,93,49
102360,note_on,30,0,1,,,,,,,,,0,,,90,0
102360,note_on,54,0,3,,,,,,,,,2,,,57,36
102360,note_on,0,0,3,,,,,,,,,2,,,66,36
102366,note_on,0,0,3,,,,,,,,,2,,,57,0
102366,note_on,6,0,3,,,,,,,,,2,,,69,0
102366,note_on,0,0,3,,,,,,,,,2,,,66,0
102390,note_on,30,0,1,,,,,,,,,0,,,93,0
102390,note_on,0,0,1,,,,,,,,,0,,,90,49
102420,note_on,30,0,1,,,,,,,,,0,,,90,0
102420,note_on,0,0,1,,,,,,,,,0,,,93,49
102420,note_on,0,0,3,,,,,,,,,2,,,69,36
102420,note_on,0,0,3,,,,,,,,,2,,,66,36
102420,control_change,54,0,3,,,,,,,,,2,64,0,,
102420,note_on,0,0,3,,,,,,,,,2,,,62,36
102426,note_on,0,0,3,,,,,,,,,2,,,66,0
102426,note_on,6,0,3,,,,,,,,,2,,,69,0
102426,note_on,0,0,3,,,,,,,,,2,,,62,0
102450,note_on,30,0,1,,,,,,,,,0,,,93,0
102450,control_change,0,0,1,,,,,,,,,0,64,0,,
102450,note_on,0,0,1,,,,,,,,,0,,,90,49
102480,control_change,0,0,1,,,,,,,,,0,64,127,,
102480,note_on,0,0,3,,,,,,,,,2,,,69,36
102480,note_on,0,0,3,,,,,,,,,2,,,67,36
102480,control_change,54,0,3,,,,,,,,,2,64,127,,
102480,note_on,0,0,1,,,,,,,,,0,,,88,49
102480,note_on,0,0,3,,,,,,,,,2,,,61,36
102480,note_on,30,0,1,,,,,,,,,0,,,90,0
102486,note_on,6,0,3,,,,,,,,,2,,,69,0
102486,note_on,0,0,3,,,,,,,,,2,,,61,0
102486,note_on,0,0,3,,,,,,,,,2,,,67,0
102510,note_on,0,0,1,,,,,,,,,0,,,90,49
102510,note_on,30,0,1,,,,,,,,,0,,,88,0
102540,note_on,0,0,3,,,,,,,,,2,,,69,36
102540,note_on,0,0,3,,,,,,,,,2,,,67,36
102540,note_on,54,0,3,,,,,,,,,2,,,57,36
102540,note_on,0,0,1,,,,,,,,,0,,,91,49
102540,note_on,30,0,1,,,,,,,,,0,,,90,0
102546,note_on,6,0,3,,,,,,,,,2,,,69,0
102546,note_on,0,0,3,,,,,,,,,2,,,67,0
102546,note_on,0,0,3,,,,,,,,,2,,,57,0
102570,note_on,0,0,1,,,,,,,,,0,,,95,49
102570,note_on,30,0,1,,,,,,,,,0,,,91,0
102600,note_on,0,0,1,,,,,,,,,0,,,93,49
102600,note_on,54,0,3,,,,,,,,,2,,,61,36
102600,note_on,30,0,1,,,,,,,,,0,,,95,0
102600,note_on,0,0,3,,,,,,,,,2,,,69,36
102600,note_on,0,0,3,,,,,,,,,2,,,67,36
102606,note_on,6,0,3,,,,,,,,,2,,,69,0
102606,note_on,0,0,3,,,,,,,,,2,,,67,0
102606,note_on,0,0,3,,,,,,,,,2,,,61,0
102630,note_on,30,0,1,,,,,,,,,0,,,93,0
102630,note_on,0,0,1,,,,,,,,,0,,,91,49
102660,note_on,0,0,3,,,,,,,,,2,,,67,36
102660,control_change,54,0,3,,,,,,,,,2,64,0,,
102660,note_on,0,0,3,,,,,,,,,2,,,57,36
102660,note_on,0,0,3,,,,,,,,,2,,,69,36
102660,note_on,0,0,1,,,,,,,,,0,,,90,49
102660,note_on,30,0,1,,,,,,,,,0,,,91,0
102666,note_on,0,0,3,,,,,,,,,2,,,67,0
102666,note_on,0,0,3,,,,,,,,,2,,,57,0
102666,note_on,6,0,3,,,,,,,,,2,,,69,0
102690,control_change,0,0,1,,,,,,,,,0,64,0,,
102690,note_on,0,0,1,,,,,,,,,0,,,88,49
102690,note_on,30,0,1,,,,,,,,,0,,,90,0
102720,note_on,0,0,1,,,,,,,,,0,,,93,75
102720,control_change,54,0,3,,,,,,,,,2,64,127,,
102720,note_on,0,0,3,,,,,,,,,2,,,57,36
102720,note_on,0,0,3,,,,,,,,,2,,,66,36
102720,note_on,0,0,3,,,,,,,,,2,,,69,36
102720,note_on,30,0,1,,,,,,,,,0,,,88,0
102720,control_change,0,0,1,,,,,,,,,0,64,127,,
102726,note_on,0,0,3,,,,,,,,,2,,,57,0
102726,note_on,0,0,3,,,,,,,,,2,,,66,0
102726,note_on,6,0,3,,,,,,,,,2,,,69,0
102780,note_on,0,0,3,,,,,,,,,2,,,66,36
102780,note_on,0,0,3,,,,,,,,,2,,,69,36
102780,note_on,54,0,3,,,,,,,,,2,,,62,36
102786,note_on,6,0,3,,,,,,,,,2,,,69,0
102786,note_on,0,0,3,,,,,,,,,2,,,66,0
102786,note_on,0,0,3,,,,,,,,,2,,,62,0
102810,note_on,0,0,1,,,,,,,,,0,,,90,49
102810,note_on,90,0,1,,,,,,,,,0,,,93,0
102840,note_on,0,0,3,,,,,,,,,2,,,69,36
102840,note_on,30,0,1,,,,,,,,,0,,,90,0
102840,note_on,0,0,1,,,,,,,,,0,,,93,49
102840,note_on,0,0,3,,,,,,,,,2,,,66,36
102840,note_on,54,0,3,,,,,,,,,2,,,57,36
102846,note_on,0,0,3,,,,,,,,,2,,,57,0
102846,note_on,0,0,3,,,,,,,,,2,,,66,0
102846,note_on,6,0,3,,,,,,,,,2,,,69,0
102870,note_on,30,0,1,,,,,,,,,0,,,93,0
102870,note_on,0,0,1,,,,,,,,,0,,,90,49
102900,note_on,30,0,1,,,,,,,,,0,,,90,0
102900,note_on,0,0,1,,,,,,,,,0,,,86,49
102900,note_on,0,0,3,,,,,,,,,2,,,69,36
102900,note_on,0,0,3,,,,,,,,,2,,,66,36
102900,note_on,0,0,3,,,,,,,,,2,,,62,36
102900,control_change,54,0,3,,,,,,,,,2,64,0,,
102906,note_on,0,0,3,,,,,,,,,2,,,62,0
102906,note_on,0,0,3,,,,,,,,,2,,,66,0
102906,note_on,6,0,3,,,,,,,,,2,,,69,0
102930,note_on,0,0,1,,,,,,,,,0,,,85,49
102930,control_change,0,0,1,,,,,,,,,0,64,0,,
102930,note_on,30,0,1,,,,,,,,,0,,,86,0
102960,note_on,30,0,1,,,,,,,,,0,,,85,0
102960,control_change,0,0,1,,,,,,,,,0,64,127,,
102960,note_on,0,0,1,,,,,,,,,0,,,83,49
102960,control_change,54,0,3,,,,,,,,,2,64,127,,
102960,note_on,0,0,3,,,,,,,,,2,,,55,36
102960,note_on,0,0,3,,,,,,,,,2,,,62,36
102960,note_on,0,0,3,,,,,,,,,2,,,67,36
102966,note_on,0,0,3,,,,,,,,,2,,,62,0
102966,note_on,6,0,3,,,,,,,,,2,,,67,0
102966,note_on,0,0,3,,,,,,,,,2,,,55,0
102990,note_on,0,0,1,,,,,,,,,0,,,86,49
102990,note_on,30,0,1,,,,,,,,,0,,,83,0
103020,note_on,54,0,3,,,,,,,,,2,,,59,36
103020,note_on,0,0,3,,,,,,,,,2,,,62,36
103020,note_on,0,0,3,,,,,,,,,2,,,67,36
103020,note_on,0,0,1,,,,,,,,,0,,,91,49
103020,note_on,30,0,1,,,,,,,,,0,,,86,0
103026,note_on,6,0,3,,,,,,,,,2,,,67,0
103026,note_on,0,0,3,,,,,,,,,2,,,62,0
103026,note_on,0,0,3,,,,,,,,,2,,,59,0
103050,note_on,0,0,1,,,,,,,,,0,,,90,49
103050,note_on,30,0,1,,,,,,,,,0,,,91,0
103080,note_on,0,0,3,,,,,,,,,2,,,67,36
103080,note_on,30,0,1,,,,,,,,,0,,,90,0
103080,note_on,0,0,3,,,,,,,,,2,,,62,36
103080,note_on,54,0,3,,,,,,,,,2,,,59,36
103080,note_on,0,0,1,,,,,,,,,0,,,88,49
103086,note_on,6,0,3,,,,,,,,,2,,,67,0
103086,note_on,0,0,3,,,,,,,,,2,,,62,0
103086,note_on,0,0,3,,,,,,,,,2,,,59,0
103110,note_on,0,0,1,,,,,,,,,0,,,86,49
103110,note_on,30,0,1,,,,,,,,,0,,,88,0
103140,note_on,0,0,3,,,,,,,,,2,,,67,36
103140,note_on,0,0,1,,,,,,,,,0,,,85,49
103140,note_on,30,0,1,,,,,,,,,0,,,86,0
103140,note_on,0,0,3,,,,,,,,,2,,,62,36
103140,control_change,54,0,3,,,,,,,,,2,64,0,,
103146,note_on,0,0,3,,,,,,,,,2,,,62,0
103146,note_on,6,0,3,,,,,,,,,2,,,67,0
103170,control_change,0,0,1,,,,,,,,,0,64,0,,
103170,note_on,30,0,1,,,,,,,,,0,,,85,0
103170,note_on,0,0,1,,,,,,,,,0,,,83,49
103200,control_change,0,0,1,,,,,,,,,0,64,127,,
103200,note_on,30,0,1,,,,,,,,,0,,,83,0
103200,control_change,54,0,3,,,,,,,,,2,64,127,,
103200,note_on,0,0,3,,,,,,,,,2,,,62,36
103200,note_on,0,0,3,,,,,,,,,2,,,66,36
103200,note_on,0,0,3,,,,,,,,,2,,,69,36
103200,note_on,0,0,1,,,,,,,,,0,,,81,75
103206,note_on,6,0,3,,,,,,,,,2,,,69,0
103206,note_on,0,0,3,,,,,,,,,2,,,66,0
103206,note_on,0,0,3,,,,,,,,,2,,,62,0
103260,note_on,54,0,3,,,,,,,,,2,,,57,36
103260,note_on,0,0,3,,,,,,,,,2,,,69,36
103260,note_on,0,0,3,,,,,,,,,2,,,66,36
103266,note_on,6,0,3,,,,,,,,,2,,,69,0
103266,note_on,0,0,3,,,,,,,,,2,,,57,0
103266,note_on,0,0,3,,,,,,,,,2,,,66,0
103290,note_on,0,0,1,,,,,,,,,0,,,78,49
103290,note_on,90,0,1,,,,,,,,,0,,,81,0
103320,note_on,54,0,3,,,,,,,,,2,,,62,36
103320,note_on,0,0,3,,,,,,,,,2,,,66,36
103320,note_on,0,0,3,,,,,,,,,2,,,69,36
103320,note_on,0,0,1,,,,,,,,,0,,,81,49
103320,note_on,30,0,1,,,,,,,,,0,,,78,0
103326,note_on,0,0,3,,,,,,,,,2,,,62,0
103326,note_on,0,0,3,,,,,,,,,2,,,66,0
103326,note_on,6,0,3,,,,,,,,,2,,,69,0
103350,note_on,0,0,1,,,,,,,,,0,,,78,49
103350,note_on,30,0,1,,,,,,,,,0,,,81,0
103380,note_on,0,0,3,,,,,,,,,2,,,69,36
103380,note_on,0,0,1,,,,,,,,,0,,,81,49
103380,note_on,0,0,3,,,,,,,,,2,,,66,36
103380,note_on,30,0,1,,,,,,,,,0,,,78,0
103380,note_on,0,0,3,,,,,,,,,2,,,57,36
103380,control_change,54,0,3,,,,,,,,,2,64,0,,
103386,note_on,0,0,3,,,,,,,,,2,,,66,0
103386,note_on,6,0,3,,,,,,,,,2,,,69,0
103386,note_on,0,0,3,,,,,,,,,2,,,57,0
103410,note_on,30,0,1,,,,,,,,,0,,,81,0
103410,control_change,0,0,1,,,,,,,,,0,64,0,,
103410,note_on,0,0,1,,,,,,,,,0,,,78,49
103440,note_on,30,0,1,,,,,,,,,0,,,78,0
103440,control_change,0,0,1,,,,,,,,,0,64,127,,
103440,note_on,0,0,1,,,,,,,,,0,,,76,49
103440,note_on,0,0,3,,,,,,,,,2,,,67,36
103440,control_change,54,0,3,,,,,,,,,2,64,127,,
103440,control_change,0,0,3,,,,,,,,,2,64,127,,
103440,note_on,0,0,3,,,,,,,,,2,,,61,36
103440,note_on,0,0,3,,,,,,,,,2,,,69,36
103446,note_on,6,0,3,,,,,,,,,2,,,69,0
103446,note_on,0,0,3,,,,,,,,,2,,,67,0
103446,note_on,0,0,3,,,,,,,,,2,,,61,0
103470,note_on,0,0,1,,,,,,,,,0,,,78,49
103470,note_on,30,0,1,,,,,,,,,0,,,76,0
103500,note_on,0,0,3,,,,,,,,,2,,,69,36
103500,note_on,0,0,1,,,,,,,,,0,,,79,49
103500,note_on,30,0,1,,,,,,,,,0,,,78,0
103500,note_on,54,0,3,,,,,,,,,2,,,57,36
103500,note_on,0,0,3,,,,,,,,,2,,,67,36
103506,note_on,6,0,3,,,,,,,,,2,,,69,0
103506,note_on,0,0,3,,,,,,,,,2,,,67,0
103506,note_on,0,0,3,,,,,,,,,2,,,57,0
103530,note_on,0,0,1,,,,,,,,,0,,,83,49
103530,note_on,30,0,1,,,,,,,,,0,,,79,0
103560,note_on,54,0,3,,,,,,,,,2,,,61,36
103560,note_on,0,0,3,,,,,,,,,2,,,67,36
103560,note_on,0,0,3,,,,,,,,,2,,,69,36
103560,note_on,30,0,1,,,,,,,,,0,,,83,0
103560,note_on,0,0,1,,,,,,,,,0,,,81,49
103566,note_on,0,0,3,,,,,,,,,2,,,61,0
103566,note_on,6,0,3,,,,,,,,,2,,,69,0
103566,note_on,0,0,3,,,,,,,,,2,,,67,0
103590,note_on,0,0,1,,,,,,,,,0,,,79,49
103590,note_on,30,0,1,,,,,,,,,0,,,81,0
103620,note_on,30,0,1,,,,,,,,,0,,,79,0
103620,note_on,0,0,1,,,,,,,,,0,,,78,49
103620,note_on,0,0,3,,,,,,,,,2,,,69,36
103620,note_on,0,0,3,,,,,,,,,2,,,67,36
103620,note_on,0,0,3,,,,,,,,,2,,,57,36
103620,control_change,54,0,3,,,,,,,,,2,64,0,,
103626,note_on,6,0,3,,,,,,,,,2,,,69,0
103626,note_on,0,0,3,,,,,,,,,2,,,57,0
103626,note_on,0,0,3,,,,,,,,,2,,,67,0
103650,note_on,30,0,1,,,,,,,,,0,,,78,0
103650,control_change,0,0,1,,,,,,,,,0,64,0,,
103650,note_on,0,0,1,,,,,,,,,0,,,76,49
103680,note_on,0,0,3,,,,,,,,,2,,,66,36
103680,control_change,54,0,3,,,,,,,,,2,64,127,,
103680,control_change,0,0,1,,,,,,,,,0,64,127,,
103680,note_on,30,0,1,,,,,,,,,0,,,76,0
103680,note_on,0,0,3,,,,,,,,,2,,,69,36
103680,note_on,0,0,1,,,,,,,,,0,,,81,75
103680,note_on,0,0,3,,,,,,,,,2,,,57,36
103686,note_on,6,0,3,,,,,,,,,2,,,69,0
103686,note_on,0,0,3,,,,,,,,,2,,,66,0
103686,note_on,0,0,3,,,,,,,,,2,,,57,0
103740,note_on,54,0,3,,,,,,,,,2,,,62,36
103740,note_on,0,0,3,,,,,,,,,2,,,66,36
103740,note_on,0,0,3,,,,,,,,,2,,,69,36
103746,note_on,6,0,3,,,,,,,,,2,,,69,0
103746,note_on,0,0,3,,,,,,,,,2,,,66,0
103746,note_on,0,0,3,,,,,,,,,2,,,62,0
103770,note_on,0,0,1,,,,,,,,,0,,,78,49
103770,note_on,90,0,1,,,,,,,,,0,,,81,0
103800,note_on,30,0,1,,,,,,,,,0,,,78,0
103800,note_on,0,0,1,,,,,,,,,0,,,81,49
103800,note_on,0,0,3,,,,,,,,,2,,,69,36
103800,note_on,54,0,3,,,,,,,,,2,,,57,36
103800,note_on,0,0,3,,,,,,,,,2,,,66,36
103806,note_on,0,0,3,,,,,,,,,2,,,66,0
103806,note_on,6,0,3,,,,,,,,,2,,,69,0
103806,note_on,0,0,3,,,,,,,,,2,,,57,0
103830,note_on,0,0,1,,,,,,,,,0,,,78,49
103830,note_on,30,0,1,,,,,,,,,0,,,81,0
103860,control_change,54,0,3,,,,,,,,,2,64,0,,
103860,note_on,0,0,3,,,,,,,,,2,,,62,36
103860,note_on,0,0,3,,,,,,,,,2,,,66,36
103860,note_on,0,0,3,,,,,,,,,2,,,69,36
103860,note_on,30,0,1,,,,,,,,,0,,,78,0
103860,note_on,0,0,1,,,,,,,,,0,,,74,49
103866,note_on,0,0,3,,,,,,,,,2,,,62,0
103866,note_on,6,0,3,,,,,,,,,2,,,69,0
103866,note_on,0,0,3,,,,,,,,,2,,,66,0
103890,note_on,30,0,1,,,,,,,,,0,,,74,0
103890,note_on,0,0,1,,,,,,,,,0,,,73,49
103890,control_change,0,0,1,,,,,,,,,0,64,0,,
103920,note_on,30,0,1,,,,,,,,,0,,,73,0
103920,control_change,0,0,1,,,,,,,,,0,64,127,,
103920,note_on,0,0,1,,,,,,,,,0,,,71,49
103920,note_on,0,0,3,,,,,,,,,2,,,67,36
103920,note_on,0,0,3,,,,,,,,,2,,,62,36
103920,note_on,0,0,3,,,,,,,,,2,,,55,36
103920,control_change,54,0,3,,,,,,,,,2,64,127,,
103926,note_on,6,0,3,,,,,,,,,2,,,67,0
103926,note_on,0,0,3,,,,,,,,,2,,,55,0
103926,note_on,0,0,3,,,,,,,,,2,,,62,0
103950,note_on,30,0,1,,,,,,,,,0,,,71,0
103950,note_on,0,0,1,,,,,,,,,0,,,74,49
103980,note_on,0,0,3,,,,,,,,,2,,,67,36
103980,note_on,0,0,3,,,,,,,,,2,,,62,36
103980,note_on,54,0,3,,,,,,,,,2,,,59,36
103980,note_on,30,0,1,,,,,,,,,0,,,74,0
103980,note_on,0,0,1,,,,,,,,,0,,,79,49
103986,note_on,6,0,3,,,,,,,,,2,,,67,0
103986,note_on,0,0,3,,,,,,,,,2,,,62,0
103986,note_on,0,0,3,,,,,,,,,2,,,59,0
104010,note_on,30,0,1,,,,,,,,,0,,,79,0
104010,note_on,0,0,1,,,,,,,,,0,,,78,49
104040,note_on,54,0,3,,,,,,,,,2,,,59,36
104040,note_on,0,0,3,,,,,,,,,2,,,67,36
104040,note_on,30,0,1,,,,,,,,,0,,,78,0
104040,note_on,0,0,1,,,,,,,,,0,,,76,49
104040,note_on,0,0,3,,,,,,,,,2,,,62,36
104046,note_on,6,0,3,,,,,,,,,2,,,67,0
104046,note_on,0,0,3,,,,,,,,,2,,,59,0
104046,note_on,0,0,3,,,,,,,,,2,,,62,0
104070,note_on,30,0,1,,,,,,,,,0,,,76,0
104070,note_on,0,0,1,,,,,,,,,0,,,74,49
104100,note_on,0,0,3,,,,,,,,,2,,,62,36
104100,note_on,0,0,3,,,,,,,,,2,,,67,36
104100,note_on,0,0,1,,,,,,,,,0,,,73,49
104100,control_change,54,0,3,,,,,,,,,2,64,0,,
104100,note_on,30,0,1,,,,,,,,,0,,,74,0
104106,note_on,0,0,3,,,,,,,,,2,,,62,0
104106,note_on,6,0,3,,,,,,,,,2,,,67,0
104130,note_on,0,0,1,,,,,,,,,0,,,71,49
104130,control_change,0,0,1,,,,,,,,,0,64,0,,
104130,note_on,30,0,1,,,,,,,,,0,,,73,0
104160,control_change,0,0,1,,,,,,,,,0,64,127,,
104160,control_change,54,0,3,,,,,,,,,2,64,127,,
104160,note_on,0,0,3,,,,,,,,,2,,,62,36
104160,note_on,0,0,3,,,,,,,,,2,,,66,36
104160,note_on,0,0,1,,,,,,,,,0,,,69,75
104160,note_on,30,0,1,,,,,,,,,0,,,71,0
104166,note_on,0,0,3,,,,,,,,,2,,,62,0
104166,note_on,6,0,3,,,,,,,,,2,,,66,0
104220,note_on,0,0,3,,,,,,,,,2,,,66,36
104220,note_on,54,0,3,,,,,,,,,2,,,57,36
104226,note_on,6,0,3,,,,,,,,,2,,,66,0
104226,note_on,0,0,3,,,,,,,,,2,,,57,0
104250,note_on,90,0,1,,,,,,,,,0,,,69,0
104250,note_on,0,0,1,,,,,,,,,0,,,90,49
104280,note_on,30,0,1,,,,,,,,,0,,,90,0
104280,note_on,54,0,3,,,,,,,,,2,,,62,36
104280,note_on,0,0,3,,,,,,,,,2,,,66,36
104280,note_on,0,0,1,,,,,,,,,0,,,93,49
104286,note_on,6,0,3,,,,,,,,,2,,,66,0
104286,note_on,0,0,3,,,,,,,,,2,,,62,0
104310,note_on,30,0,1,,,,,,,,,0,,,93,0
104310,note_on,0,0,1,,,,,,,,,0,,,90,49
104340,control_change,54,0,3,,,,,,,,,2,64,0,,
104340,note_on,0,0,3,,,,,,,,,2,,,66,36
104340,note_on,0,0,1,,,,,,,,,0,,,93,49
104340,note_on,30,0,1,,,,,,,,,0,,,90,0
104340,note_on,0,0,3,,,,,,,,,2,,,57,36
104346,note_on,6,0,3,,,,,,,,,2,,,66,0
104346,note_on,0,0,3,,,,,,,,,2,,,57,0
104370,note_on,30,0,1,,,,,,,,,0,,,93,0
104370,control_change,0,0,1,,,,,,,,,0,64,0,,
104370,note_on,0,0,1,,,,,,,,,0,,,90,49
104400,control_change,0,0,1,,,,,,,,,0,64,127,,
104400,note_on,0,0,1,,,,,,,,,0,,,88,49
104400,note_on,30,0,1,,,,,,,,,0,,,90,0
104400,note_on,0,0,3,,,,,,,,,2,,,61,36
104400,note_on,0,0,3,,,,,,,,,2,,,67,36
104400,control_change,54,0,3,,,,,,,,,2,64,127,,
104406,note_on,6,0,3,,,,,,,,,2,,,67,0
104406,note_on,0,0,3,,,,,,,,,2,,,61,0
104430,note_on,0,0,1,,,,,,,,,0,,,90,49
104430,note_on,30,0,1,,,,,,,,,0,,,88,0
104460,note_on,54,0,3,,,,,,,,,2,,,57,36
104460,note_on,0,0,3,,,,,,,,,2,,,67,36
104460,note_on,0,0,1,,,,,,,,,0,,,91,49
104460,note_on,30,0,1,,,,,,,,,0,,,90,0
104466,note_on,0,0,3,,,,,,,,,2,,,57,0
104466,note_on,6,0,3,,,,,,,,,2,,,67,0
104490,note_on,30,0,1,,,,,,,,,0,,,91,0
104490,note_on,0,0,1,,,,,,,,,0,,,95,49
104520,note_on,0,0,3,,,,,,,,,2,,,67,36
104520,note_on,30,0,1,,,,,,,,,0,,,95,0
104520,note_on,0,0,1,,,,,,,,,0,,,93,49
104520,note_on,54,0,3,,,,,,,,,2,,,61,36
104526,note_on,0,0,3,,,,,,,,,2,,,61,0
104526,note_on,6,0,3,,,,,,,,,2,,,67,0
104550,note_on,30,0,1,,,,,,,,,0,,,93,0
104550,note_on,0,0,1,,,,,,,,,0,,,91,49
104580,note_on,0,0,3,,,,,,,,,2,,,57,36
104580,note_on,0,0,3,,,,,,,,,2,,,67,36
104580,control_change,54,0,3,,,,,,,,,2,64,0,,
104580,note_on,0,0,1,,,,,,,,,0,,,90,49
104580,note_on,30,0,1,,,,,,,,,0,,,91,0
104586,note_on,0,0,3,,,,,,,,,2,,,57,0
104586,note_on,6,0,3,,,,,,,,,2,,,67,0
104610,note_on,30,0,1,,,,,,,,,0,,,90,0
104610,control_change,0,0,1,,,,,,,,,0,64,0,,
104610,note_on,0,0,1,,,,,,,,,0,,,88,49
104640,control_change,54,0,3,,,,,,,,,2,64,127,,
104640,note_on,0,0,3,,,,,,,,,2,,,66,36
104640,note_on,30,0,1,,,,,,,,,0,,,88,0
104640,control_change,0,0,1,,,,,,,,,0,64,127,,
104640,note_on,0,0,1,,,,,,,,,0,,,93,75
104640,note_on,0,0,3,,,,,,,,,2,,,57,36
104646,note_on,6,0,3,,,,,,,,,2,,,66,0
104646,note_on,0,0,3,,,,,,,,,2,,,57,0
104700,note_on,54,0,3,,,,,,,,,2,,,62,36
104700,note_on,0,0,3,,,,,,,,,2,,,66,36
104706,note_on,6,0,3,,,,,,,,,2,,,66,0
104706,note_on,0,0,3,,,,,,,,,2,,,62,0
104730,note_on,0,0,1,,,,,,,,,0,,,90,49
104730,note_on,90,0,1,,,,,,,,,0,,,93,0
104760,note_on,30,0,1,,,,,,,,,0,,,90,0
104760,note_on,0,0,1,,,,,,,,,0,,,93,49
104760,note_on,54,0,3,,,,,,,,,2,,,57,36
104760,note_on,0,0,3,,,,,,,,,2,,,66,36
104766,note_on,0,0,3,,,,,,,,,2,,,57,0
104766,note_on,6,0,3,,,,,,,,,2,,,66,0
104790,note_on,30,0,1,,,,,,,,,0,,,93,0
104790,note_on,0,0,1,,,,,,,,,0,,,90,49
104820,note_on,0,0,3,,,,,,,,,2,,,62,36
104820,note_on,0,0,3,,,,,,,,,2,,,66,36
104820,note_on,0,0,1,,,,,,,,,0,,,86,49
104820,note_on,30,0,1,,,,,,,,,0,,,90,0
104820,control_change,54,0,3,,,,,,,,,2,64,0,,
104826,note_on,6,0,3,,,,,,,,,2,,,66,0
104826,note_on,0,0,3,,,,,,,,,2,,,62,0
104850,control_change,0,0,1,,,,,,,,,0,64,0,,
104850,note_on,30,0,1,,,,,,,,,0,,,86,0
104850,note_on,0,0,1,,,,,,,,,0,,,85,49
104880,note_on,0,0,3,,,,,,,,,2,,,62,36
104880,note_on,0,0,3,,,,,,,,,2,,,55,36
104880,note_on,0,0,3,,,,,,,,,2,,,67,36
104880,note_on,30,0,1,,,,,,,,,0,,,85,0
104880,control_change,0,0,1,,,,,,,,,0,64,127,,
104880,control_change,54,0,3,,,,,,,,,2,64,127,,
104880,note_on,0,0,1,,,,,,,,,0,,,83,49
104886,note_on,6,0,3,,,,,,,,,2,,,67,0
104886,note_on,0,0,3,,,,,,,,,2,,,62,0
104886,note_on,0,0,3,,,,,,,,,2,,,55,0
104910,note_on,0,0,1,,,,,,,,,0,,,86,49
104910,note_on,30,0,1,,,,,,,,,0,,,83,0
104940,note_on,30,0,1,,,,,,,,,0,,,86,0
104940,note_on,0,0,1,,,,,,,,,0,,,91,49
104940,note_on,0,0,3,,,,,,,,,2,,,62,36
104940,note_on,54,0,3,,,,,,,,,2,,,59,36
104940,note_on,0,0,3,,,,,,,,,2,,,67,36
104946,note_on,0,0,3,,,,,,,,,2,,,59,0
104946,note_on,6,0,3,,,,,,,,,2,,,67,0
104946,note_on,0,0,3,,,,,,,,,2,,,62,0
104970,note_on,30,0,1,,,,,,,,,0,,,91,0
104970,note_on,0,0,1,,,,,,,,,0,,,90,49
105000,note_on,0,0,1,,,,,,,,,0,,,88,49
105000,note_on,0,0,3,,,,,,,,,2,,,62,36
105000,note_on,30,0,1,,,,,,,,,0,,,90,0
105000,note_on,54,0,3,,,,,,,,,2,,,59,36
105000,note_on,0,0,3,,,,,,,,,2,,,67,36
105006,note_on,6,0,3,,,,,,,,,2,,,67,0
105006,note_on,0,0,3,,,,,,,,,2,,,62,0
105006,note_on,0,0,3,,,,,,,,,2,,,59,0
105030,note_on,0,0,1,,,,,,,,,0,,,86,49
105030,note_on,30,0,1,,,,,,,,,0,,,88,0
105060,note_on,0,0,3,,,,,,,,,2,,,67,36
105060,note_on,0,0,3,,,,,,,,,2,,,62,36
105060,note_on,0,0,1,,,,,,,,,0,,,85,49
105060,note_on,30,0,1,,,,,,,,,0,,,86,0
105060,control_change,54,0,3,,,,,,,,,2,64,0,,
105066,note_on,0,0,3,,,,,,,,,2,,,62,0
105066,note_on,6,0,3,,,,,,,,,2,,,67,0
105090,note_on,0,0,1,,,,,,,,,0,,,83,49
105090,control_change,0,0,1,,,,,,,,,0,64,0,,
105090,note_on,30,0,1,,,,,,,,,0,,,85,0
105120,control_change,0,0,1,,,,,,,,,0,64,127,,
105120,note_on,0,0,1,,,,,,,,,0,,,81,75
105120,note_on,0,0,3,,,,,,,,,2,,,62,36
105120,control_change,54,0,3,,,,,,,,,2,64,127,,
105120,note_on,30,0,1,,,,,,,,,0,,,83,0
105120,note_on,0,0,3,,,,,,,,,2,,,66,36
105126,note_on,0,0,3,,,,,,,,,2,,,62,0
105126,note_on,6,0,3,,,,,,,,,2,,,66,0
105180,note_on,54,0,3,,,,,,,,,2,,,57,36
105180,note_on,0,0,3,,,,,,,,,2,,,66,36
105186,note_on,6,0,3,,,,,,,,,2,,,66,0
105186,note_on,0,0,3,,,,,,,,,2,,,57,0
105210,note_on,0,0,1,,,,,,,,,0,,,78,49
105210,note_on,90,0,1,,,,,,,,,0,,,81,0
105240,note_on,0,0,1,,,,,,,,,0,,,81,49
105240,note_on,30,0,1,,,,,,,,,0,,,78,0
105240,note_on,0,0,3,,,,,,,,,2,,,66,36
105240,note_on,54,0,3,,,,,,,,,2,,,62,36
105246,note_on,0,0,3,,,,,,,,,2,,,62,0
105246,note_on,6,0,3,,,,,,,,,2,,,66,0
105270,note_on,0,0,1,,,,,,,,,0,,,78,49
105270,note_on,30,0,1,,,,,,,,,0,,,81,0
105300,note_on,0,0,3,,,,,,,,,2,,,57,36
105300,note_on,0,0,1,,,,,,,,,0,,,81,49
105300,note_on,0,0,3,,,,,,,,,2,,,66,36
105300,note_on,30,0,1,,,,,,,,,0,,,78,0
105300,control_change,54,0,3,,,,,,,,,2,64,0,,
105306,note_on,6,0,3,,,,,,,,,2,,,66,0
105306,note_on,0,0,3,,,,,,,,,2,,,57,0
105330,control_change,0,0,1,,,,,,,,,0,64,0,,
105330,note_on,0,0,1,,,,,,,,,0,,,78,49
105330,note_on,30,0,1,,,,,,,,,0,,,81,0
105360,control_change,0,0,1,,,,,,,,,0,64,127,,
105360,note_on,0,0,1,,,,,,,,,0,,,76,49
105360,note_on,30,0,1,,,,,,,,,0,,,78,0
105360,control_change,54,0,3,,,,,,,,,2,64,127,,
105360,note_on,0,0,3,,,,,,,,,2,,,61,36
105360,note_on,0,0,3,,,,,,,,,2,,,67,36
105366,note_on,6,0,3,,,,,,,,,2,,,67,0
105366,note_on,0,0,3,,,,,,,,,2,,,61,0
105390,note_on,0,0,1,,,,,,,,,0,,,78,49
105390,note_on,30,0,1,,,,,,,,,0,,,76,0
105420,note_on,30,0,1,,,,,,,,,0,,,78,0
105420,note_on,0,0,1,,,,,,,,,0,,,79,49
105420,note_on,0,0,3,,,,,,,,,2,,,67,36
105420,note_on,54,0,3,,,,,,,,,2,,,57,36
105426,note_on,0,0,3,,,,,,,,,2,,,57,0
105426,note_on,6,0,3,,,,,,,,,2,,,67,0
105450,note_on,0,0,1,,,,,,,,,0,,,83,49
105450,note_on,30,0,1,,,,,,,,,0,,,79,0
105480,note_on,0,0,3,,,,,,,,,2,,,67,36
105480,note_on,54,0,3,,,,,,,,,2,,,61,36
105480,note_on,0,0,1,,,,,,,,,0,,,81,49
105480,note_on,30,0,1,,,,,,,,,0,,,83,0
105486,note_on,6,0,3,,,,,,,,,2,,,67,0
105486,note_on,0,0,3,,,,,,,,,2,,,61,0
105510,note_on,0,0,1,,,,,,,,,0,,,79,49
105510,note_on,30,0,1,,,,,,,,,0,,,81,0
105540,note_on,0,0,3,,,,,,,,,2,,,57,36
105540,note_on,0,0,3,,,,,,,,,2,,,67,36
105540,control_change,54,0,3,,,,,,,,,2,64,0,,
105540,note_on,30,0,1,,,,,,,,,0,,,79,0
105540,note_on,0,0,1,,,,,,,,,0,,,78,49
105546,note_on,6,0,3,,,,,,,,,2,,,67,0
105546,note_on,0,0,3,,,,,,,,,2,,,57,0
105570,note_on,30,0,1,,,,,,,,,0,,,78,0
105570,control_change,0,0,1,,,,,,,,,0,64,0,,
105570,note_on,0,0,1,,,,,,,,,0,,,76,49
105600,note_on,30,0,1,,,,,,,,,0,,,76,0
105600,control_change,0,0,1,,,,,,,,,0,64,127,,
105600,note_on,0,0,1,,,,,,,,,0,,,81,75
105600,control_change,54,0,3,,,,,,,,,2,64,127,,
105600,note_on,0,0,3,,,,,,,,,2,,,62,36
105600,note_on,0,0,3,,,,,,,,,2,,,66,36
105606,note_on,6,0,3,,,,,,,,,2,,,66,0
105606,note_on,0,0,3,,,,,,,,,2,,,62,0
105660,set_tempo,13020,1,0,,,,,,444444,,,,,,,
105660,note_on,54,0,3,,,,,,,,,2,,,57,36
105660,note_on,0,0,3,,,,,,,,,2,,,66,36
105666,note_on,6,0,3,,,,,,,,,2,,,66,0
105666,note_on,0,0,3,,,,,,,,,2,,,57,0
105690,note_on,0,0,1,,,,,,,,,0,,,78,49
105690,note_on,90,0,1,,,,,,,,,0,,,81,0
105720,note_on,30,0,1,,,,,,,,,0,,,78,0
105720,note_on,0,0,1,,,,,,,,,0,,,81,49
105720,set_tempo,60,1,0,,,,,,454545,,,,,,,
105720,note_on,54,0,3,,,,,,,,,2,,,62,36
105720,note_on,0,0,3,,,,,,,,,2,,,66,36
105726,note_on,6,0,3,,,,,,,,,2,,,66,0
105726,note_on,0,0,3,,,,,,,,,2,,,62,0
105750,note_on,0,0,1,,,,,,,,,0,,,78,49
105750,note_on,30,0,1,,,,,,,,,0,,,81,0
105780,control_change,54,0,3,,,,,,,,,2,64,0,,
105780,note_on,0,0,3,,,,,,,,,2,,,57,36
105780,note_on,0,0,3,,,,,,,,,2,,,66,36
105780,set_tempo,60,1,0,,,,,,465116,,,,,,,
105780,note_on,30,0,1,,,,,,,,,0,,,78,0
105780,note_on,0,0,1,,,,,,,,,0,,,81,49
105786,note_on,6,0,3,,,,,,,,,2,,,66,0
105786,note_on,0,0,3,,,,,,,,,2,,,57,0
105810,note_on,0,0,1,,,,,,,,,0,,,78,49
105810,control_change,0,0,1,,,,,,,,,0,64,0,,
105810,note_on,30,0,1,,,,,,,,,0,,,81,0
105840,note_on,0,0,1,,,,,,,,,0,,,76,49
105840,control_change,0,0,1,,,,,,,,,0,64,127,,
105840,control_change,54,0,3,,,,,,,,,2,64,127,,
105840,note_on,0,0,3,,,,,,,,,2,,,61,36
105840,note_on,0,0,3,,,,,,,,,2,,,67,36
105840,note_on,30,0,1,,,,,,,,,0,,,78,0
105840,set_tempo,60,1,0,,,,,,480000,,,,,,,
105846,note_on,6,0,3,,,,,,,,,2,,,67,0
105846,note_on,0,0,3,,,,,,,,,2,,,61,0
105870,note_on,0,0,1,,,,,,,,,0,,,78,49
105870,note_on,30,0,1,,,,,,,,,0,,,76,0
105900,note_on,0,0,1,,,,,,,,,0,,,79,49
105900,note_on,54,0,3,,,,,,,,,2,,,57,36
105900,note_on,0,0,3,,,,,,,,,2,,,67,36
105900,note_on,30,0,1,,,,,,,,,0,,,78,0
105900,set_tempo,60,1,0,,,,,,491803,,,,,,,
105906,note_on,0,0,3,,,,,,,,,2,,,57,0
105906,note_on,6,0,3,,,,,,,,,2,,,67,0
105930,note_on,0,0,1,,,,,,,,,0,,,83,49
105930,note_on,30,0,1,,,,,,,,,0,,,79,0
105960,note_on,0,0,1,,,,,,,,,0,,,81,49
105960,note_on,54,0,3,,,,,,,,,2,,,61,36
105960,note_on,30,0,1,,,,,,,,,0,,,83,0
105960,note_on,0,0,3,,,,,,,,,2,,,67,36
105960,set_tempo,60,1,0,,,,,,504202,,,,,,,
105966,note_on,6,0,3,,,,,,,,,2,,,67,0
105966,note_on,0,0,3,,,,,,,,,2,,,61,0
105990,note_on,30,0,1,,,,,,,,,0,,,81,0
105990,note_on,0,0,1,,,,,,,,,0,,,79,49
106020,control_change,54,0,3,,,,,,,,,2,64,0,,
106020,note_on,0,0,3,,,,,,,,,2,,,57,36
106020,note_on,0,0,3,,,,,,,,,2,,,67,36
106020,note_on,0,0,1,,,,,,,,,0,,,78,49
106020,set_tempo,60,1,0,,,,,,517241,,,,,,,
106020,note_on,30,0,1,,,,,,,,,0,,,79,0
106026,note_on,6,0,3,,,,,,,,,2,,,67,0
106026,note_on,0,0,3,,,,,,,,,2,,,57,0
106050,control_change,0,0,1,,,,,,,,,0,64,0,,
106050,note_on,30,0,1,,,,,,,,,0,,,78,0
106050,note_on,0,0,1,,,,,,,,,0,,,76,49
106080,control_change,54,0,3,,,,,,,,,2,64,127,,
106080,note_on,30,0,1,,,,,,,,,0,,,76,0
106080,set_tempo,60,1,0,,,,,,535714,,,,,,,
106080,note_on,0,0,3,,,,,,,,,2,,,62,36
106080,note_on,0,0,3,,,,,,,,,2,,,66,36
106080,note_on,0,0,1,,,,,,,,,0,,,74,75
106080,control_change,0,0,1,,,,,,,,,0,64,127,,
106080,end_of_track,0,1,0,,,,,,,,,,,,,
106086,note_on,6,0,3,,,,,,,,,2,,,66,0
106086,note_on,0,0,3,,,,,,,,,2,,,62,0
106140,note_on,0,0,1,,,,,,,,,0,,,76,49
106140,note_on,54,0,3,,,,,,,,,2,,,61,36
106140,note_on,60,0,1,,,,,,,,,0,,,74,0
106140,note_on,0,0,3,,,,,,,,,2,,,66,36
106146,note_on,0,0,3,,,,,,,,,2,,,61,0
106146,note_on,6,0,3,,,,,,,,,2,,,66,0
106170,note_on,0,0,1,,,,,,,,,0,,,74,49
106170,note_on,30,0,1,,,,,,,,,0,,,76,0
106200,note_on,0,0,1,,,,,,,,,0,,,76,49
106200,note_on,30,0,1,,,,,,,,,0,,,74,0
106200,note_on,54,0,3,,,,,,,,,2,,,59,36
106200,note_on,0,0,3,,,,,,,,,2,,,66,36
106206,note_on,6,0,3,,,,,,,,,2,,,66,0
106206,note_on,0,0,3,,,,,,,,,2,,,59,0
106230,note_on,30,0,1,,,,,,,,,0,,,76,0
106230,note_on,0,0,1,,,,,,,,,0,,,74,49
106260,control_change,54,0,3,,,,,,,,,2,64,0,,
106260,note_on,0,0,3,,,,,,,,,2,,,66,36
106260,note_on,0,0,3,,,,,,,,,2,,,57,36
106260,note_on,30,0,1,,,,,,,,,0,,,74,0
106260,note_on,0,0,1,,,,,,,,,0,,,73,49
106266,note_on,6,0,3,,,,,,,,,2,,,66,0
106266,note_on,0,0,3,,,,,,,,,2,,,57,0
106290,note_on,30,0,1,,,,,,,,,0,,,73,0
106290,control_change,0,0,1,,,,,,,,,0,64,0,,
106290,note_on,0,0,1,,,,,,,,,0,,,71,49
106320,note_on,30,0,1,,,,,,,,,0,,,71,0
106320,control_change,0,0,1,,,,,,,,,0,64,127,,
106320,note_on,0,0,1,,,,,,,,,0,,,69,75
106320,control_change,54,0,3,,,,,,,,,2,64,127,,
106320,note_on,0,0,3,,,,,,,,,2,,,61,36
106320,note_on,0,0,3,,,,,,,,,2,,,67,36
106326,note_on,0,0,3,,,,,,,,,2,,,61,0
106326,note_on,6,0,3,,,,,,,,,2,,,67,0
106380,note_on,0,0,1,,,,,,,,,0,,,71,49
106380,note_on,60,0,1,,,,,,,,,0,,,69,0
106380,note_on,54,0,3,,,,,,,,,2,,,64,36
106380,note_on,0,0,3,,,,,,,,,2,,,67,36
106386,note_on,6,0,3,,,,,,,,,2,,,67,0
106386,note_on,0,0,3,,,,,,,,,2,,,64,0
106410,note_on,30,0,1,,,,,,,,,0,,,71,0
106410,note_on,0,0,1,,,,,,,,,0,,,69,49
106440,note_on,30,0,1,,,,,,,,,0,,,69,0
106440,note_on,0,0,1,,,,,,,,,0,,,71,49
106440,note_on,54,0,3,,,,,,,,,2,,,61,36
106440,note_on,0,0,3,,,,,,,,,2,,,67,36
106446,note_on,6,0,3,,,,,,,,,2,,,67,0
106446,note_on,0,0,3,,,,,,,,,2,,,61,0
106470,note_on,30,0,1,,,,,,,,,0,,,71,0
106470,note_on,0,0,1,,,,,,,,,0,,,69,49
106500,note_on,30,0,1,,,,,,,,,0,,,69,0
106500,note_on,0,0,1,,,,,,,,,0,,,78,49
106500,control_change,54,0,3,,,,,,,,,2,64,0,,
106500,note_on,0,0,3,,,,,,,,,2,,,57,36
106500,note_on,0,0,3,,,,,,,,,2,,,67,36
106506,note_on,6,0,3,,,,,,,,,2,,,67,0
106506,note_on,0,0,3,,,,,,,,,2,,,57,0
106530,note_on,0,0,1,,,,,,,,,0,,,76,49
106530,control_change,0,0,1,,,,,,,,,0,64,0,,
106530,note_on,30,0,1,,,,,,,,,0,,,78,0
106560,control_change,54,0,3,,,,,,,,,2,64,127,,
106560,note_on,30,0,1,,,,,,,,,0,,,76,0
106560,note_on,0,0,1,,,,,,,,,0,,,74,75
106560,note_on,0,0,3,,,,,,,,,2,,,66,36
106560,note_on,0,0,3,,,,,,,,,2,,,62,36
106560,control_change,0,0,1,,,,,,,,,0,64,127,,
106566,note_on,6,0,3,,,,,,,,,2,,,66,0
106566,note_on,0,0,3,,,,,,,,,2,,,62,0
106620,note_on,54,0,3,,,,,,,,,2,,,61,36
106620,note_on,0,0,1,,,,,,,,,0,,,76,49
106620,note_on,0,0,3,,,,,,,,,2,,,66,36
106620,note_on,60,0,1,,,,,,,,,0,,,74,0
106626,note_on,6,0,3,,,,,,,,,2,,,66,0
106626,note_on,0,0,3,,,,,,,,,2,,,61,0
106650,note_on,0,0,1,,,,,,,,,0,,,74,49
106650,note_on,30,0,1,,,,,,,,,0,,,76,0
106680,note_on,54,0,3,,,,,,,,,2,,,59,36
106680,note_on,0,0,3,,,,,,,,,2,,,66,36
106680,note_on,0,0,1,,,,,,,,,0,,,76,49
106680,note_on,30,0,1,,,,,,,,,0,,,74,0
106686,note_on,6,0,3,,,,,,,,,2,,,66,0
106686,note_on,0,0,3,,,,,,,,,2,,,59,0
106710,note_on,30,0,1,,,,,,,,,0,,,76,0
106710,note_on,0,0,1,,,,,,,,,0,,,74,49
106740,note_on,0,0,3,,,,,,,,,2,,,57,36
106740,note_on,30,0,1,,,,,,,,,0,,,74,0
106740,note_on,0,0,3,,,,,,,,,2,,,66,36
106740,note_on,0,0,1,,,,,,,,,0,,,73,49
106740,control_change,54,0,3,,,,,,,,,2,64,0,,
106746,note_on,6,0,3,,,,,,,,,2,,,66,0
106746,note_on,0,0,3,,,,,,,,,2,,,57,0
106770,note_on,30,0,1,,,,,,,,,0,,,73,0
106770,note_on,0,0,1,,,,,,,,,0,,,71,49
106770,control_change,0,0,1,,,,,,,,,0,64,0,,
106800,note_on,0,0,1,,,,,,,,,0,,,69,75
106800,note_on,30,0,1,,,,,,,,,0,,,71,0
106800,control_change,0,0,1,,,,,,,,,0,64,127,,
106800,note_on,0,0,3,,,,,,,,,2,,,61,36
106800,control_change,54,0,3,,,,,,,,,2,64,127,,
106800,note_on,0,0,3,,,,,,,,,2,,,67,36
106806,note_on,6,0,3,,,,,,,,,2,,,67,0
106806,note_on,0,0,3,,,,,,,,,2,,,61,0
106860,note_on,0,0,1,,,,,,,,,0,,,71,49
106860,note_on,60,0,1,,,,,,,,,0,,,69,0
106860,note_on,0,0,3,,,,,,,,,2,,,67,36
106860,note_on,54,0,3,,,,,,,,,2,,,64,36
106866,note_on,6,0,3,,,,,,,,,2,,,67,0
106866,note_on,0,0,3,,,,,,,,,2,,,64,0
106890,note_on,30,0,1,,,,,,,,,0,,,71,0
106890,note_on,0,0,1,,,,,,,,,0,,,69,49
106920,note_on,54,0,3,,,,,,,,,2,,,61,36
106920,note_on,0,0,3,,,,,,,,,2,,,67,36
106920,note_on,30,0,1,,,,,,,,,0,,,69,0
106920,note_on,0,0,1,,,,,,,,,0,,,71,49
106926,note_on,6,0,3,,,,,,,,,2,,,67,0
106926,note_on,0,0,3,,,,,,,,,2,,,61,0
106950,note_on,0,0,1,,,,,,,,,0,,,69,49
106950,note_on,30,0,1,,,,,,,,,0,,,71,0
106980,note_on,0,0,3,,,,,,,,,2,,,67,36
106980,note_on,0,0,3,,,,,,,,,2,,,57,36
106980,control_change,54,0,3,,,,,,,,,2,64,0,,
106980,note_on,0,0,1,,,,,,,,,0,,,78,49
106980,note_on,30,0,1,,,,,,,,,0,,,69,0
106986,note_on,0,0,3,,,,,,,,,2,,,57,0
106986,note_on,6,0,3,,,,,,,,,2,,,67,0
107010,note_on,0,0,1,,,,,,,,,0,,,76,49
107010,control_change,0,0,1,,,,,,,,,0,64,0,,
107010,note_on,30,0,1,,,,,,,,,0,,,78,0
107040,note_on,0,0,3,,,,,,,,,2,,,54,36
107040,control_change,54,0,3,,,,,,,,,2,64,127,,
107040,note_on,30,0,1,,,,,,,,,0,,,76,0
107040,control_change,0,0,1,,,,,,,,,0,64,127,,
107040,note_on,0,0,1,,,,,,,,,0,,,74,49
107040,note_on,0,0,3,,,,,,,,,2,,,50,36
107046,note_on,0,0,3,,,,,,,,,2,,,50,0
107046,note_on,6,0,3,,,,,,,,,2,,,54,0
107070,note_on,30,0,1,,,,,,,,,0,,,74,0
107070,note_on,0,0,1,,,,,,,,,0,,,86,49
107100,note_on,30,0,1,,,,,,,,,0,,,86,0
107100,note_on,0,0,3,,,,,,,,,2,,,54,36
107100,note_on,54,0,3,,,,,,,,,2,,,49,36
107100,note_on,0,0,1,,,,,,,,,0,,,88,49
107106,note_on,6,0,3,,,,,,,,,2,,,54,0
107106,note_on,0,0,3,,,,,,,,,2,,,49,0
107130,note_on,0,0,1,,,,,,,,,0,,,86,49
107130,note_on,30,0,1,,,,,,,,,0,,,88,0
107160,note_on,54,0,3,,,,,,,,,2,,,47,36
107160,note_on,0,0,1,,,,,,,,,0,,,88,49
107160,note_on,0,0,3,,,,,,,,,2,,,54,36
107160,note_on,30,0,1,,,,,,,,,0,,,86,0
107166,note_on,6,0,3,,,,,,,,,2,,,54,0
107166,note_on,0,0,3,,,,,,,,,2,,,47,0
107190,note_on,0,0,1,,,,,,,,,0,,,86,49
107190,note_on,30,0,1,,,,,,,,,0,,,88,0
107220,note_on,0,0,3,,,,,,,,,2,,,54,36
107220,note_on,0,0,3,,,,,,,,,2,,,45,36
107220,control_change,54,0,3,,,,,,,,,2,64,0,,
107220,note_on,30,0,1,,,,,,,,,0,,,86,0
107220,note_on,0,0,1,,,,,,,,,0,,,85,49
107226,note_on,0,0,3,,,,,,,,,2,,,45,0
107226,note_on,6,0,3,,,,,,,,,2,,,54,0
107250,control_change,0,0,1,,,,,,,,,0,64,0,,
107250,note_on,0,0,1,,,,,,,,,0,,,83,49
107250,note_on,30,0,1,,,,,,,,,0,,,85,0
107280,note_on,0,0,3,,,,,,,,,2,,,55,36
107280,note_on,0,0,3,,,,,,,,,2,,,49,36
107280,control_change,54,0,3,,,,,,,,,2,64,127,,
107280,note_on,0,0,1,,,,,,,,,0,,,81,49
107280,control_change,0,0,1,,,,,,,,,0,64,127,,
107280,note_on,30,0,1,,,,,,,,,0,,,83,0
107286,note_on,0,0,3,,,,,,,,,2,,,49,0
107286,note_on,6,0,3,,,,,,,,,2,,,55,0
107340,note_on,0,0,3,,,,,,,,,2,,,55,36
107340,note_on,54,0,3,,,,,,,,,2,,,52,36
107340,note_on,60,0,1,,,,,,,,,0,,,81,0
107340,note_on,0,0,1,,,,,,,,,0,,,83,49
107346,note_on,6,0,3,,,,,,,,,2,,,55,0
107346,note_on,0,0,3,,,,,,,,,2,,,52,0
107370,note_on,0,0,1,,,,,,,,,0,,,81,49
107370,note_on,30,0,1,,,,,,,,,0,,,83,0
107400,note_on,54,0,3,,,,,,,,,2,,,49,36
107400,note_on,0,0,3,,,,,,,,,2,,,55,36
107400,note_on,30,0,1,,,,,,,,,0,,,81,0
107400,note_on,0,0,1,,,,,,,,,0,,,83,49
107406,note_on,6,0,3,,,,,,,,,2,,,55,0
107406,note_on,0,0,3,,,,,,,,,2,,,49,0
107430,note_on,30,0,1,,,,,,,,,0,,,83,0
107430,note_on,0,0,1,,,,,,,,,0,,,81,49
107460,note_on,0,0,3,,,,,,,,,2,,,55,36
107460,note_on,0,0,1,,,,,,,,,0,,,90,49
107460,note_on,30,0,1,,,,,,,,,0,,,81,0
107460,note_on,0,0,3,,,,,,,,,2,,,45,36
107460,control_change,54,0,3,,,,,,,,,2,64,0,,
107466,note_on,0,0,3,,,,,,,,,2,,,45,0
107466,note_on,6,0,3,,,,,,,,,2,,,55,0
107490,note_on,30,0,1,,,,,,,,,0,,,90,0
107490,note_on,0,0,1,,,,,,,,,0,,,88,49
107520,note_on,0,0,3,,,,,,,,,2,,,50,36
107520,note_on,30,0,1,,,,,,,,,0,,,88,0
107520,control_change,54,0,3,,,,,,,,,2,64,127,,
107520,note_on,0,0,1,,,,,,,,,0,,,86,49
107520,control_change,0,0,1,,,,,,,,,0,64,127,,
107520,note_on,0,0,3,,,,,,,,,2,,,54,36
107526,note_on,0,0,3,,,,,,,,,2,,,50,0
107526,note_on,6,0,3,,,,,,,,,2,,,54,0
107580,note_on,0,0,1,,,,,,,,,0,,,88,49
107580,note_on,60,0,1,,,,,,,,,0,,,86,0
107580,note_on,0,0,3,,,,,,,,,2,,,54,36
107580,note_on,54,0,3,,,,,,,,,2,,,49,36
107586,note_on,0,0,3,,,,,,,,,2,,,49,0
107586,note_on,6,0,3,,,,,,,,,2,,,54,0
107610,note_on,0,0,1,,,,,,,,,0,,,86,49
107610,note_on,30,0,1,,,,,,,,,0,,,88,0
107640,note_on,30,0,1,,,,,,,,,0,,,86,0
107640,note_on,54,0,3,,,,,,,,,2,,,47,36
107640,note_on,0,0,3,,,,,,,,,2,,,54,36
107640,note_on,0,0,1,,,,,,,,,0,,,88,49
107646,note_on,6,0,3,,,,,,,,,2,,,54,0
107646,note_on,0,0,3,,,,,,,,,2,,,47,0
107670,note_on,30,0,1,,,,,,,,,0,,,88,0
107670,note_on,0,0,1,,,,,,,,,0,,,86,49
107700,note_on,0,0,3,,,,,,,,,2,,,45,36
107700,note_on,30,0,1,,,,,,,,,0,,,86,0
107700,note_on,0,0,1,,,,,,,,,0,,,85,49
107700,note_on,0,0,3,,,,,,,,,2,,,54,36
107700,control_change,54,0,3,,,,,,,,,2,64,0,,
107706,note_on,6,0,3,,,,,,,,,2,,,54,0
107706,note_on,0,0,3,,,,,,,,,2,,,45,0
107730,note_on,30,0,1,,,,,,,,,0,,,85,0
107730,control_change,0,0,1,,,,,,,,,0,64,0,,
107730,note_on,0,0,1,,,,,,,,,0,,,83,49
107760,note_on,0,0,1,,,,,,,,,0,,,81,49
107760,note_on,0,0,3,,,,,,,,,2,,,49,36
107760,note_on,0,0,3,,,,,,,,,2,,,55,36
107760,control_change,54,0,3,,,,,,,,,2,64,127,,
107760,control_change,0,0,1,,,,,,,,,0,64,127,,
107760,note_on,30,0,1,,,,,,,,,0,,,83,0
107766,note_on,6,0,3,,,,,,,,,2,,,55,0
107766,note_on,0,0,3,,,,,,,,,2,,,49,0
107820,note_on,60,0,1,,,,,,,,,0,,,81,0
107820,note_on,0,0,1,,,,,,,,,0,,,83,49
107820,note_on,54,0,3,,,,,,,,,2,,,52,36
107820,note_on,0,0,3,,,,,,,,,2,,,55,36
107826,note_on,6,0,3,,,,,,,,,2,,,55,0
107826,note_on,0,0,3,,,,,,,,,2,,,52,0
107850,note_on,0,0,1,,,,,,,,,0,,,81,49
107850,note_on,30,0,1,,,,,,,,,0,,,83,0
107880,note_on,0,0,1,,,,,,,,,0,,,83,49
107880,note_on,54,0,3,,,,,,,,,2,,,49,36
107880,note_on,0,0,3,,,,,,,,,2,,,55,36
107880,note_on,30,0,1,,,,,,,,,0,,,81,0
107886,note_on,6,0,3,,,,,,,,,2,,,55,0
107886,note_on,0,0,3,,,,,,,,,2,,,49,0
107910,note_on,0,0,1,,,,,,,,,0,,,81,49
107910,note_on,30,0,1,,,,,,,,,0,,,83,0
107940,note_on,0,0,3,,,,,,,,,2,,,45,36
107940,note_on,0,0,3,,,,,,,,,2,,,55,36
107940,control_change,54,0,3,,,,,,,,,2,64,0,,
107940,note_on,0,0,1,,,,,,,,,0,,,90,49
107940,note_on,30,0,1,,,,,,,,,0,,,81,0
107946,note_on,0,0,3,,,,,,,,,2,,,45,0
107946,note_on,6,0,3,,,,,,,,,2,,,55,0
107970,note_on,0,0,1,,,,,,,,,0,,,88,49
107970,note_on,30,0,1,,,,,,,,,0,,,90,0
108000,note_on,30,0,1,,,,,,,,,0,,,88,0
108000,note_on,0,0,1,,,,,,,,,0,,,86,49
108000,control_change,54,0,3,,,,,,,,,2,64,127,,
108000,note_on,0,0,3,,,,,,,,,2,,,50,36
108000,note_on,0,0,3,,,,,,,,,2,,,54,36
108000,control_change,0,0,1,,,,,,,,,0,64,127,,
108006,note_on,0,0,3,,,,,,,,,2,,,50,0
108006,note_on,6,0,3,,,,,,,,,2,,,54,0
108060,note_on,54,0,3,,,,,,,,,2,,,45,36
108060,note_on,0,0,3,,,,,,,,,2,,,54,36
108060,note_on,60,0,1,,,,,,,,,0,,,86,0
108060,note_on,0,0,1,,,,,,,,,0,,,90,49
108066,note_on,0,0,3,,,,,,,,,2,,,45,0
108066,note_on,6,0,3,,,,,,,,,2,,,54,0
108090,note_on,0,0,1,,,,,,,,,0,,,86,49
108090,note_on,30,0,1,,,,,,,,,0,,,90,0
108120,note_on,0,0,3,,,,,,,,,2,,,54,36
108120,note_on,0,0,1,,,,,,,,,0,,,90,49
108120,note_on,30,0,1,,,,,,,,,0,,,86,0
108120,note_on,54,0,3,,,,,,,,,2,,,50,36
108126,note_on,0,0,3,,,,,,,,,2,,,50,0
108126,note_on,6,0,3,,,,,,,,,2,,,54,0
108150,note_on,0,0,1,,,,,,,,,0,,,86,49
108150,note_on,30,0,1,,,,,,,,,0,,,90,0
108180,note_on,54,0,3,,,,,,,,,2,,,45,36
108180,note_on,0,0,3,,,,,,,,,2,,,54,36
108180,note_on,0,0,1,,,,,,,,,0,,,90,49
108180,note_on,30,0,1,,,,,,,,,0,,,86,0
108186,note_on,0,0,3,,,,,,,,,2,,,45,0
108186,note_on,6,0,3,,,,,,,,,2,,,54,0
108210,note_on,30,0,1,,,,,,,,,0,,,90,0
108210,note_on,0,0,1,,,,,,,,,0,,,86,49
108240,note_on,54,0,3,,,,,,,,,2,,,50,36
108240,note_on,0,0,1,,,,,,,,,0,,,90,49
108240,note_on,0,0,3,,,,,,,,,2,,,54,36
108240,note_on,30,0,1,,,,,,,,,0,,,86,0
108246,note_on,6,0,3,,,,,,,,,2,,,54,0
108246,note_on,0,0,3,,,,,,,,,2,,,50,0
108300,note_on,54,0,3,,,,,,,,,2,,,45,36
108300,note_on,0,0,3,,,,,,,,,2,,,54,36
108300,note_on,0,0,1,,,,,,,,,0,,,93,49
108300,note_on,60,0,1,,,,,,,,,0,,,90,0
108306,note_on,6,0,3,,,,,,,,,2,,,54,0
108306,note_on,0,0,3,,,,,,,,,2,,,45,0
108330,note_on,0,0,1,,,,,,,,,0,,,90,49
108330,note_on,30,0,1,,,,,,,,,0,,,93,0
108360,note_on,0,0,3,,,,,,,,,2,,,54,36
108360,note_on,54,0,3,,,,,,,,,2,,,50,36
108360,note_on,0,0,1,,,,,,,,,0,,,93,49
108360,note_on,30,0,1,,,,,,,,,0,,,90,0
108366,note_on,0,0,3,,,,,,,,,2,,,50,0
108366,note_on,6,0,3,,,,,,,,,2,,,54,0
108390,note_on,0,0,1,,,,,,,,,0,,,90,49
108390,note_on,30,0,1,,,,,,,,,0,,,93,0
108420,note_on,30,0,1,,,,,,,,,0,,,90,0
108420,note_on,0,0,3,,,,,,,,,2,,,54,36
108420,note_on,0,0,3,,,,,,,,,2,,,45,36
108420,control_change,54,0,3,,,,,,,,,2,64,0,,
108420,note_on,0,0,1,,,,,,,,,0,,,93,49
108426,note_on,6,0,3,,,,,,,,,2,,,54,0
108426,note_on,0,0,3,,,,,,,,,2,,,45,0
108450,note_on,0,0,1,,,,,,,,,0,,,90,49
108450,control_change,0,0,1,,,,,,,,,0,64,0,,
108450,note_on,30,0,1,,,,,,,,,0,,,93,0
108480,control_change,0,0,1,,,,,,,,,0,64,127,,
108480,note_on,0,0,1,,,,,,,,,0,,,93,49
108480,control_change,54,0,3,,,,,,,,,2,64,127,,
108480,note_on,0,0,3,,,,,,,,,2,,,42,36
108480,note_on,0,0,3,,,,,,,,,2,,,50,36
108480,note_on,30,0,1,,,,,,,,,0,,,90,0
108486,note_on,0,0,3,,,,,,,,,2,,,42,0
108486,note_on,6,0,3,,,,,,,,,2,,,50,0
108540,note_on,0,0,1,,,,,,,,,0,,,98,49
108540,note_on,60,0,1,,,,,,,,,0,,,93,0
108540,note_on,54,0,3,,,,,,,,,2,,,45,36
108546,note_on,6,0,3,,,,,,,,,2,,,45,0
108570,note_on,30,0,1,,,,,,,,,0,,,98,0
108570,note_on,0,0,1,,,,,,,,,0,,,93,49
108600,note_on,54,0,3,,,,,,,,,2,,,42,36
108600,note_on,0,0,3,,,,,,,,,2,,,50,36
108600,note_on,30,0,1,,,,,,,,,0,,,93,0
108600,note_on,0,0,1,,,,,,,,,0,,,98,49
108606,note_on,6,0,3,,,,,,,,,2,,,50,0
108606,note_on,0,0,3,,,,,,,,,2,,,42,0
108630,note_on,30,0,1,,,,,,,,,0,,,98,0
108630,note_on,0,0,1,,,,,,,,,0,,,93,49
108660,note_on,54,0,3,,,,,,,,,2,,,45,36
108660,note_on,0,0,1,,,,,,,,,0,,,98,49
108660,note_on,30,0,1,,,,,,,,,0,,,93,0
108666,note_on,6,0,3,,,,,,,,,2,,,45,0
108690,note_on,30,0,1,,,,,,,,,0,,,98,0
108690,note_on,0,0,1,,,,,,,,,0,,,93,49
108720,note_on,0,0,1,,,,,,,,,0,,,98,49
108720,note_on,54,0,3,,,,,,,,,2,,,42,36
108720,note_on,0,0,3,,,,,,,,,2,,,50,36
108720,note_on,30,0,1,,,,,,,,,0,,,93,0
108726,note_on,6,0,3,,,,,,,,,2,,,50,0
108726,note_on,0,0,3,,,,,,,,,2,,,42,0
108750,note_on,30,0,1,,,,,,,,,0,,,98,0
108750,note_on,0,0,1,,,,,,,,,0,,,93,49
108780,note_on,54,0,3,,,,,,,,,2,,,45,36
108780,note_on,0,0,1,,,,,,,,,0,,,98,49
108780,note_on,30,0,1,,,,,,,,,0,,,93,0
108786,note_on,6,0,3,,,,,,,,,2,,,45,0
108810,note_on,30,0,1,,,,,,,,,0,,,98,0
108810,note_on,0,0,1,,,,,,,,,0,,,93,49
108840,note_on,54,0,3,,,,,,,,,2,,,42,36
108840,note_on,30,0,1,,,,,,,,,0,,,93,0
108840,note_on,0,0,3,,,,,,,,,2,,,50,36
108840,note_on,0,0,1,,,,,,,,,0,,,98,49
108846,note_on,0,0,3,,,,,,,,,2,,,42,0
108846,note_on,6,0,3,,,,,,,,,2,,,50,0
108870,note_on,0,0,1,,,,,,,,,0,,,93,49
108870,note_on,30,0,1,,,,,,,,,0,,,98,0
108900,note_on,0,0,3,,,,,,,,,2,,,45,36
108900,note_on,0,0,1,,,,,,,,,0,,,90,49
108900,control_change,54,0,3,,,,,,,,,2,64,0,,
108900,note_on,30,0,1,,,,,,,,,0,,,93,0
108906,note_on,6,0,3,,,,,,,,,2,,,45,0
108930,control_change,0,0,1,,,,,,,,,0,64,0,,
108930,note_on,30,0,1,,,,,,,,,0,,,90,0
108930,note_on,0,0,1,,,,,,,,,0,,,93,49
108960,note_on,30,0,1,,,,,,,,,0,,,93,0
108960,control_change,54,0,3,,,,,,,,,2,64,127,,
108960,note_on,0,0,3,,,,,,,,,2,,,38,36
108960,note_on,0,0,3,,,,,,,,,2,,,50,36
108960,control_change,0,0,1,,,,,,,,,0,64,127,,
108960,note_on,0,0,1,,,,,,,,,0,,,90,49
108960,note_on,0,0,1,,,,,,,,,0,,,98,49
109020,note_on,60,0,3,,,,,,,,,2,,,50,0
109020,note_on,0,0,3,,,,,,,,,2,,,38,0
109020,note_on,0,0,1,,,,,,,,,0,,,90,0
109020,note_on,60,0,1,,,,,,,,,0,,,98,0
109080,note_on,60,0,3,,,,,,,,,2,,,42,36
109080,note_on,60,0,1,,,,,,,,,0,,,98,49
109086,note_on,6,0,3,,,,,,,,,2,,,42,0
109110,note_on,0,0,1,,,,,,,,,0,,,93,49
109110,note_on,30,0,1,,,,,,,,,0,,,98,0
109140,note_on,30,0,1,,,,,,,,,0,,,93,0
109140,note_on,0,0,3,,,,,,,,,2,,,45,36
109140,control_change,54,0,3,,,,,,,,,2,64,0,,
109140,note_on,0,0,1,,,,,,,,,0,,,90,49
109146,note_on,6,0,3,,,,,,,,,2,,,45,0
109170,note_on,0,0,1,,,,,,,,,0,,,93,49
109170,control_change,0,0,1,,,,,,,,,0,64,0,,
109170,note_on,30,0,1,,,,,,,,,0,,,90,0
109200,note_on,0,0,3,,,,,,,,,2,,,38,36
109200,note_on,0,0,3,,,,,,,,,2,,,50,36
109200,control_change,0,0,1,,,,,,,,,0,64,127,,
109200,note_on,0,0,1,,,,,,,,,0,,,90,49
109200,note_on,0,0,1,,,,,,,,,0,,,98,49
109200,control_change,54,0,3,,,,,,,,,2,64,127,,
109200,note_on,30,0,1,,,,,,,,,0,,,93,0
109260,note_on,60,0,1,,,,,,,,,0,,,98,0
109260,note_on,0,0,1,,,,,,,,,0,,,90,0
109260,note_on,0,0,3,,,,,,,,,2,,,38,0
109260,note_on,60,0,3,,,,,,,,,2,,,50,0
109320,note_on,60,0,1,,,,,,,,,0,,,98,49
109320,note_on,60,0,3,,,,,,,,,2,,,42,36
109326,note_on,6,0,3,,,,,,,,,2,,,42,0
109350,note_on,30,0,1,,,,,,,,,0,,,98,0
109350,note_on,0,0,1,,,,,,,,,0,,,93,49
109380,note_on,30,0,1,,,,,,,,,0,,,93,0
109380,note_on,0,0,1,,,,,,,,,0,,,90,49
109380,control_change,54,0,3,,,,,,,,,2,64,0,,
109380,note_on,0,0,3,,,,,,,,,2,,,45,36
109386,note_on,6,0,3,,,,,,,,,2,,,45,0
109410,note_on,30,0,1,,,,,,,,,0,,,90,0
109410,note_on,0,0,1,,,,,,,,,0,,,93,49
109410,control_change,0,0,1,,,,,,,,,0,64,0,,
109440,note_on,0,0,1,,,,,,,,,0,,,98,49
109440,note_on,54,0,3,,,,,,,,,2,,,38,36
109440,note_on,30,0,1,,,,,,,,,0,,,93,0
109440,note_on,0,0,3,,,,,,,,,2,,,50,36
109440,note_on,0,0,1,,,,,,,,,0,,,90,49
109500,note_on,60,0,3,,,,,,,,,2,,,50,0
109500,note_on,60,0,1,,,,,,,,,0,,,98,0
109500,note_on,0,0,1,,,,,,,,,0,,,90,0
109500,note_on,0,0,3,,,,,,,,,2,,,38,0
109680,note_on,0,0,3,,,,,,,,,2,,,66,36
109680,note_on,0,0,3,,,,,,,,,2,,,57,36
109680,control_change,180,0,3,,,,,,,,,2,64,127,,
109680,control_change,180,0,1,,,,,,,,,0,64,127,,
109680,note_on,0,0,1,,,,,,,,,0,,,81,49
109689,note_on,9,0,1,,,,,,,,,0,,,81,0
109692,note_on,0,0,3,,,,,,,,,2,,,57,0
109692,note_on,12,0,3,,,,,,,,,2,,,66,0
109770,note_on,81,0,1,,,,,,,,,0,,,83,49
109774,note_on,4,0,1,,,,,,,,,0,,,83,0
109800,note_on,26,0,1,,,,,,,,,0,,,81,49
109800,note_on,108,0,3,,,,,,,,,2,,,57,36
109800,note_on,0,0,3,,,,,,,,,2,,,66,36
109809,note_on,9,0,1,,,,,,,,,0,,,81,0
109812,note_on,12,0,3,,,,,,,,,2,,,66,0
109812,note_on,0,0,3,,,,,,,,,2,,,57,0
109890,note_on,81,0,1,,,,,,,,,0,,,78,49
109894,note_on,4,0,1,,,,,,,,,0,,,78,0
109920,control_change,108,0,3,,,,,,,,,2,64,0,,
109920,control_change,26,0,1,,,,,,,,,0,64,0,,
109920,note_on,0,0,1,,,,,,,,,0,,,74,49
109920,note_on,0,0,3,,,,,,,,,2,,,62,36
109920,note_on,0,0,3,,,,,,,,,2,,,66,36
109932,note_on,12,0,3,,,,,,,,,2,,,66,0
109932,note_on,0,0,3,,,,,,,,,2,,,62,0
110040,note_on,120,0,1,,,,,,,,,0,,,74,0
110160,control_change,120,0,1,,,,,,,,,0,64,127,,
110160,note_on,0,0,1,,,,,,,,,0,,,62,49
110160,note_on,0,0,1,,,,,,,,,0,,,66,49
110160,note_on,0,0,1,,,,,,,,,0,,,74,49
110160,note_on,0,0,3,,,,,,,,,2,,,38,36
110160,note_on,0,0,3,,,,,,,,,2,,,45,36
110160,control_change,228,0,3,,,,,,,,,2,64,127,,
110172,note_on,0,0,1,,,,,,,,,0,,,62,0
110172,note_on,0,0,1,,,,,,,,,0,,,66,0
110172,note_on,12,0,3,,,,,,,,,2,,,45,0
110172,note_on,0,0,3,,,,,,,,,2,,,38,0
110172,note_on,12,0,1,,,,,,,,,0,,,74,0
110280,note_on,108,0,3,,,,,,,,,2,,,45,36
110292,note_on,12,0,3,,,,,,,,,2,,,45,0
110400,note_on,0,0,1,,,,,,,,,0,,,74,49
110400,note_on,0,0,3,,,,,,,,,2,,,50,36
110400,note_on,228,0,1,,,,,,,,,0,,,62,49
110400,note_on,108,0,3,,,,,,,,,2,,,38,36
110400,note_on,0,0,3,,,,,,,,,2,,,45,36
110400,note_on,0,0,1,,,,,,,,,0,,,66,49
110640,note_on,240,0,1,,,,,,,,,0,,,74,0
110640,note_on,0,0,3,,,,,,,,,2,,,38,0
110640,note_on,240,0,3,,,,,,,,,2,,,50,0
110640,note_on,0,0,3,,,,,,,,,2,,,45,0
110640,note_on,0,0,1,,,,,,,,,0,,,62,0
110640,note_on,0,0,1,,,,,,,,,0,,,66,0
110880,control_change,240,0,3,,,,,,,,,2,64,0,,
110880,control_change,15840,0,2,,,,,,,,,1,64,0,,
110880,control_change,240,0,1,,,,,,,,,0,64,0,,
110880,control_change,15840,0,4,,,,,,,,,3,64,0,,
111360,control_change,480,0,2,,,,,,,,,1,64,0,,
111360,control_change,480,0,3,,,,,,,,,2,64,0,,
111360,end_of_track,0,1,2,,,,,,,,,,,,,
111360,control_change,480,0,1,,,,,,,,,0,64,0,,
111360,end_of_track,0,1,1,,,,,,,,,,,,,
111360,control_change,480,0,4,,,,,,,,,3,64,0,,
111360,end_of_track,0,1,3,,,,,,,,,,,,,
111360,end_of_track,0,1,4,,,,,,,,,,,,,
