tick,type,numerator,denominator,clocks_per_click,notated_32nd_notes_per_beat,time,meta,track,tempo,program,channel,control,value,note,velocity
0,time_signature,3,8,12,8,0,1,0,,,,,,,
0,control_change,,,,,0,0,1,,,0,7,80,,
0,control_change,,,,,0,0,1,,,0,91,96,,
0,control_change,,,,,0,0,1,,,0,64,95,,
0,note_on,,,,,0,0,1,,,0,,,69,38
0,track_name,,,,,0,1,8,,,,,,,
0,track_name,,,,,0,1,2,,,,,,,
0,program_change,,,,,0,0,2,,0,0,,,,
0,control_change,,,,,0,0,2,,,0,7,80,,
0,program_change,,,,,0,0,1,,0,0,,,,
0,note_on,,,,,0,0,2,,,0,,,42,42
0,track_name,,,,,0,1,4,,,,,,,
0,end_of_track,,,,,0,1,4,,,,,,,
0,track_name,,,,,0,1,5,,,,,,,
0,end_of_track,,,,,0,1,5,,,,,,,
0,track_name,,,,,0,1,6,,,,,,,
0,end_of_track,,,,,0,1,6,,,,,,,
0,track_name,,,,,0,1,7,,,,,,,
0,end_of_track,,,,,0,1,7,,,,,,,
0,end_of_track,,,,,0,1,3,,,,,,,
0,track_name,,,,,0,1,1,,,,,,,
0,end_of_track,,,,,0,1,8,,,,,,,
0,set_tempo,,,,,0,1,0,1428571,,,,,,
0,marker,,,,,0,1,0,,,,,,,
90,note_off,,,,,90,0,2,,,0,,,42,64
120,note_on,,,,,30,0,2,,,0,,,61,29
140,control_change,,,,,140,0,1,,,0,64,0,,
240,note_off,,,,,120,0,2,,,0,,,61,64
240,note_on,,,,,0,0,2,,,0,,,49,23
330,note_off,,,,,90,0,2,,,0,,,49,64
360,note_on,,,,,30,0,2,,,0,,,41,45
360,note_off,,,,,220,0,1,,,0,,,69,64
360,note_on,,,,,0,0,1,,,0,,,68,38
360,control_change,,,,,0,0,1,,,0,64,95,,
450,note_off,,,,,90,0,2,,,0,,,41,64
480,note_on,,,,,30,0,2,,,0,,,61,32
500,control_change,,,,,140,0,1,,,0,64,0,,
600,note_on,,,,,0,0,2,,,0,,,49,23
600,note_off,,,,,120,0,2,,,0,,,61,64
660,note_off,,,,,160,0,1,,,0,,,68,64
690,note_on,,,,,30,0,1,,,0,,,71,39
690,note_off,,,,,90,0,2,,,0,,,49,64
720,note_off,,,,,30,0,1,,,0,,,71,64
720,note_on,,,,,0,0,1,,,0,,,69,48
720,control_change,,,,,0,0,1,,,0,64,95,,
720,note_on,,,,,30,0,2,,,0,,,42,43
780,note_off,,,,,60,0,1,,,0,,,69,64
780,note_on,,,,,0,0,1,,,0,,,68,33
810,note_off,,,,,90,0,2,,,0,,,42,64
840,note_on,,,,,30,0,2,,,0,,,61,29
840,note_on,,,,,0,0,1,,,0,,,69,35
840,note_off,,,,,60,0,1,,,0,,,68,64
860,control_change,,,,,20,0,1,,,0,64,0,,
930,note_on,,,,,0,0,1,,,0,,,73,36
930,note_off,,,,,70,0,1,,,0,,,69,64
960,note_on,,,,,0,0,2,,,0,,,49,21
960,note_off,,,,,120,0,2,,,0,,,61,64
960,note_off,,,,,30,0,1,,,0,,,73,64
960,note_on,,,,,0,0,1,,,0,,,69,40
1050,note_off,,,,,90,0,2,,,0,,,49,64
1080,note_on,,,,,0,0,1,,,0,,,68,41
1080,note_off,,,,,120,0,1,,,0,,,69,64
1080,note_on,,,,,30,0,2,,,0,,,41,43
1080,control_change,,,,,0,0,1,,,0,64,96,,
1170,note_off,,,,,90,0,2,,,0,,,41,64
1200,note_on,,,,,30,0,2,,,0,,,61,28
1220,control_change,,,,,140,0,1,,,0,64,0,,
1320,note_off,,,,,120,0,2,,,0,,,61,64
1320,note_on,,,,,0,0,2,,,0,,,49,20
1380,note_off,,,,,160,0,1,,,0,,,68,64
1410,note_off,,,,,90,0,2,,,0,,,49,64
1440,note_on,,,,,60,0,1,,,0,,,73,47
1440,control_change,,,,,0,0,1,,,0,64,96,,
1440,note_on,,,,,30,0,2,,,0,,,45,50
1530,note_off,,,,,90,0,2,,,0,,,45,64
1560,note_on,,,,,30,0,2,,,0,,,61,35
1580,control_change,,,,,140,0,1,,,0,64,0,,
1680,note_off,,,,,120,0,2,,,0,,,61,64
1680,note_on,,,,,0,0,2,,,0,,,49,28
1770,note_off,,,,,90,0,2,,,0,,,49,64
1800,note_on,,,,,30,0,2,,,0,,,47,51
1800,note_on,,,,,0,0,1,,,0,,,74,60
1800,control_change,,,,,0,0,1,,,0,64,96,,
1800,note_off,,,,,220,0,1,,,0,,,73,64
1890,note_off,,,,,90,0,2,,,0,,,47,64
1920,note_on,,,,,120,0,1,,,0,,,65,43
1920,note_on,,,,,30,0,2,,,0,,,61,36
1940,control_change,,,,,20,0,1,,,0,64,0,,
2040,note_off,,,,,120,0,2,,,0,,,61,64
2040,note_on,,,,,0,0,2,,,0,,,49,28
2130,note_off,,,,,90,0,2,,,0,,,49,64
2160,note_off,,,,,220,0,1,,,0,,,65,64
2160,note_on,,,,,0,0,1,,,0,,,66,50
2160,note_on,,,,,30,0,2,,,0,,,45,43
2160,note_on,,,,,0,0,1,,,0,,,74,60
2160,control_change,,,,,0,0,1,,,0,64,94,,
2160,note_off,,,,,0,0,1,,,0,,,74,64
2220,note_off,,,,,60,0,1,,,0,,,74,64
2220,note_on,,,,,0,0,1,,,0,,,73,45
2240,set_tempo,,,,,2240,1,0,1463415,,,,,,
2250,note_off,,,,,90,0,2,,,0,,,45,64
2250,note_off,,,,,30,0,1,,,0,,,66,64
2260,control_change,,,,,10,0,1,,,0,64,0,,
2264,note_off,,,,,4,0,1,,,0,,,73,64
2280,note_on,,,,,0,0,1,,,0,,,73,52
2280,control_change,,,,,0,0,1,,,0,64,95,,
2280,note_on,,,,,30,0,2,,,0,,,44,32
2280,note_on,,,,,16,0,1,,,0,,,65,42
2340,note_off,,,,,60,0,1,,,0,,,73,64
2340,note_on,,,,,0,0,1,,,0,,,71,38
2360,set_tempo,,,,,120,1,0,1500000,,,,,,
2370,note_off,,,,,30,0,1,,,0,,,65,64
2370,note_off,,,,,90,0,2,,,0,,,44,64
2384,note_off,,,,,14,0,1,,,0,,,71,64
2390,control_change,,,,,6,0,1,,,0,64,0,,
2400,note_on,,,,,0,0,1,,,0,,,71,41
2400,note_on,,,,,10,0,1,,,0,,,66,31
2400,control_change,,,,,0,0,1,,,0,64,96,,
2400,note_on,,,,,30,0,2,,,0,,,42,38
2460,note_on,,,,,0,0,1,,,0,,,69,28
2460,note_off,,,,,60,0,1,,,0,,,71,64
2490,note_off,,,,,30,0,1,,,0,,,66,64
2490,note_off,,,,,90,0,2,,,0,,,42,64
2504,note_off,,,,,14,0,1,,,0,,,69,64
2510,control_change,,,,,6,0,1,,,0,64,0,,
2520,note_on,,,,,0,0,1,,,0,,,68,37
2520,note_on,,,,,30,0,2,,,0,,,37,38
2520,control_change,,,,,0,0,1,,,0,64,96,,
2520,note_on,,,,,10,0,1,,,0,,,65,37
2540,set_tempo,,,,,180,1,0,1538462,,,,,,
2610,note_off,,,,,90,0,2,,,0,,,37,64
2640,note_on,,,,,30,0,2,,,0,,,61,30
2660,control_change,,,,,140,0,1,,,0,64,0,,
2760,note_on,,,,,0,0,2,,,0,,,49,20
2760,note_off,,,,,120,0,2,,,0,,,61,64
2820,note_off,,,,,0,0,1,,,0,,,65,64
2820,note_off,,,,,160,0,1,,,0,,,68,64
2850,note_off,,,,,90,0,2,,,0,,,49,64
2880,control_change,,,,,0,0,1,,,0,64,95,,
2880,control_change,,,,,0,0,1,,,0,91,96,,
2880,note_on,,,,,30,0,2,,,0,,,42,42
2880,set_tempo,,,,,340,1,0,1428571,,,,,,
2880,note_on,,,,,60,0,1,,,0,,,69,38
2970,note_off,,,,,90,0,2,,,0,,,42,64
3000,note_on,,,,,30,0,2,,,0,,,61,31
3020,control_change,,,,,140,0,1,,,0,64,0,,
3120,note_off,,,,,120,0,2,,,0,,,61,64
3120,note_on,,,,,0,0,2,,,0,,,49,23
3210,note_off,,,,,90,0,2,,,0,,,49,64
3240,note_on,,,,,0,0,1,,,0,,,68,38
3240,control_change,,,,,0,0,1,,,0,64,95,,
3240,note_on,,,,,30,0,2,,,0,,,41,45
3240,note_off,,,,,220,0,1,,,0,,,69,64
3330,note_off,,,,,90,0,2,,,0,,,41,64
3360,note_on,,,,,30,0,2,,,0,,,61,32
3380,control_change,,,,,140,0,1,,,0,64,0,,
3480,note_on,,,,,0,0,2,,,0,,,49,21
3480,note_off,,,,,120,0,2,,,0,,,61,64
3540,note_off,,,,,160,0,1,,,0,,,68,64
3570,note_off,,,,,90,0,2,,,0,,,49,64
3570,note_on,,,,,30,0,1,,,0,,,71,39
3600,note_off,,,,,30,0,1,,,0,,,71,64
3600,control_change,,,,,0,0,1,,,0,64,95,,
3600,note_on,,,,,0,0,1,,,0,,,69,48
3600,note_on,,,,,30,0,2,,,0,,,42,43
3660,note_off,,,,,60,0,1,,,0,,,69,64
3660,note_on,,,,,0,0,1,,,0,,,68,33
3690,note_off,,,,,90,0,2,,,0,,,42,64
3720,note_on,,,,,30,0,2,,,0,,,61,32
3720,note_on,,,,,0,0,1,,,0,,,69,35
3720,note_off,,,,,60,0,1,,,0,,,68,64
3740,control_change,,,,,20,0,1,,,0,64,0,,
3810,note_on,,,,,0,0,1,,,0,,,73,36
3810,note_off,,,,,70,0,1,,,0,,,69,64
3840,note_on,,,,,0,0,1,,,0,,,69,40
3840,note_off,,,,,30,0,1,,,0,,,73,64
3840,note_off,,,,,120,0,2,,,0,,,61,64
3840,note_on,,,,,0,0,2,,,0,,,49,23
3930,note_off,,,,,90,0,2,,,0,,,49,64
3960,note_on,,,,,30,0,2,,,0,,,41,45
3960,note_off,,,,,120,0,1,,,0,,,69,64
3960,note_on,,,,,0,0,1,,,0,,,68,41
3960,control_change,,,,,0,0,1,,,0,64,96,,
4050,note_off,,,,,90,0,2,,,0,,,41,64
4080,note_on,,,,,30,0,2,,,0,,,61,31
4100,control_change,,,,,140,0,1,,,0,64,0,,
4200,note_off,,,,,120,0,2,,,0,,,61,64
4200,note_on,,,,,0,0,2,,,0,,,49,25
4260,note_off,,,,,160,0,1,,,0,,,68,64
4260,set_tempo,,,,,1380,1,0,1666667,,,,,,
4290,note_off,,,,,90,0,2,,,0,,,49,64
4320,note_on,,,,,30,0,2,,,0,,,42,70
4320,control_change,,,,,0,0,1,,,0,64,96,,
4320,note_on,,,,,0,0,1,,,0,,,66,81
4320,set_tempo,,,,,60,1,0,1428571,,,,,,
4320,note_on,,,,,60,0,1,,,0,,,71,81
4410,note_off,,,,,90,0,2,,,0,,,42,64
4440,note_on,,,,,30,0,2,,,0,,,62,54
4560,note_on,,,,,0,0,2,,,0,,,50,32
4560,note_off,,,,,120,0,2,,,0,,,62,64
4620,control_change,,,,,300,0,1,,,0,64,0,,
4650,note_off,,,,,90,0,2,,,0,,,50,64
4680,note_on,,,,,30,0,2,,,0,,,42,50
4680,control_change,,,,,0,0,1,,,0,64,95,,
4680,note_on,,,,,0,0,1,,,0,,,66,44
4680,note_on,,,,,0,0,1,,,0,,,69,44
4680,note_off,,,,,0,0,1,,,0,,,71,64
4680,note_off,,,,,60,0,1,,,0,,,66,64
4770,note_off,,,,,90,0,2,,,0,,,42,64
4800,note_on,,,,,30,0,2,,,0,,,61,37
4850,control_change,,,,,170,0,1,,,0,64,0,,
4920,note_on,,,,,0,0,2,,,0,,,49,25
4920,note_off,,,,,120,0,2,,,0,,,61,64
4980,note_off,,,,,0,0,1,,,0,,,69,64
4980,note_off,,,,,130,0,1,,,0,,,66,64
5010,note_off,,,,,90,0,2,,,0,,,49,64
5010,note_on,,,,,30,0,1,,,0,,,69,39
5040,note_on,,,,,0,0,1,,,0,,,68,45
5040,note_on,,,,,0,0,1,,,0,,,65,45
5040,control_change,,,,,0,0,1,,,0,64,95,,
5040,note_on,,,,,30,0,2,,,0,,,37,43
5040,note_off,,,,,30,0,1,,,0,,,69,64
5130,note_off,,,,,90,0,2,,,0,,,37,64
5160,note_off,,,,,120,0,1,,,0,,,68,64
5160,note_on,,,,,0,0,1,,,0,,,68,41
5160,note_off,,,,,0,0,1,,,0,,,65,64
5160,note_on,,,,,0,0,1,,,0,,,65,41
5160,note_on,,,,,30,0,2,,,0,,,61,34
5180,control_change,,,,,20,0,1,,,0,64,0,,
5250,note_on,,,,,0,0,1,,,0,,,69,34
5250,note_off,,,,,70,0,1,,,0,,,68,64
5280,note_on,,,,,0,0,1,,,0,,,61,32
5280,note_on,,,,,0,0,1,,,0,,,65,32
5280,note_off,,,,,0,0,1,,,0,,,65,64
5280,note_on,,,,,0,0,1,,,0,,,68,32
5280,note_on,,,,,0,0,2,,,0,,,49,25
5280,note_off,,,,,120,0,2,,,0,,,61,64
5280,note_off,,,,,30,0,1,,,0,,,69,64
5370,note_off,,,,,90,0,2,,,0,,,49,64
5400,note_on,,,,,30,0,2,,,0,,,42,33
5400,note_on,,,,,0,0,1,,,0,,,69,34
5400,note_off,,,,,120,0,1,,,0,,,61,64
5400,note_off,,,,,0,0,1,,,0,,,65,64
5400,note_off,,,,,0,0,1,,,0,,,68,64
5400,note_on,,,,,0,0,1,,,0,,,66,34
5400,control_change,,,,,0,0,1,,,0,64,95,,
5400,note_on,,,,,0,0,1,,,0,,,61,34
5490,note_off,,,,,90,0,2,,,0,,,42,64
5520,note_on,,,,,30,0,2,,,0,,,57,28
5540,control_change,,,,,140,0,1,,,0,64,0,,
5640,note_off,,,,,120,0,2,,,0,,,57,64
5640,note_on,,,,,0,0,2,,,0,,,49,22
5700,note_off,,,,,0,0,1,,,0,,,61,64
5700,note_off,,,,,160,0,1,,,0,,,69,64
5700,note_off,,,,,0,0,1,,,0,,,66,64
5730,note_off,,,,,90,0,2,,,0,,,49,64
5730,note_on,,,,,30,0,1,,,0,,,69,39
5760,note_off,,,,,30,0,1,,,0,,,69,64
5760,note_on,,,,,0,0,1,,,0,,,65,45
5760,note_on,,,,,0,0,1,,,0,,,68,45
5760,note_on,,,,,30,0,2,,,0,,,37,43
5760,control_change,,,,,0,0,1,,,0,64,95,,
5850,note_off,,,,,90,0,2,,,0,,,37,64
5880,note_on,,,,,30,0,2,,,0,,,61,34
5880,note_off,,,,,120,0,1,,,0,,,68,64
5880,note_on,,,,,0,0,1,,,0,,,65,41
5880,note_on,,,,,0,0,1,,,0,,,68,41
5880,note_off,,,,,0,0,1,,,0,,,65,64
5900,control_change,,,,,20,0,1,,,0,64,0,,
5970,note_on,,,,,0,0,1,,,0,,,69,34
5970,note_off,,,,,70,0,1,,,0,,,68,64
5980,set_tempo,,,,,1660,1,0,1500000,,,,,,
6000,note_off,,,,,30,0,1,,,0,,,69,64
6000,note_off,,,,,0,0,1,,,0,,,65,64
6000,note_on,,,,,0,0,1,,,0,,,68,32
6000,note_on,,,,,0,0,1,,,0,,,65,32
6000,note_on,,,,,0,0,1,,,0,,,61,32
6000,note_off,,,,,120,0,2,,,0,,,61,64
6000,note_on,,,,,0,0,2,,,0,,,49,25
6090,note_off,,,,,90,0,2,,,0,,,49,64
6100,set_tempo,,,,,120,1,0,1578947,,,,,,
6120,note_on,,,,,30,0,2,,,0,,,42,33
6120,control_change,,,,,0,0,1,,,0,64,95,,
6120,note_on,,,,,0,0,1,,,0,,,66,29
6120,note_on,,,,,0,0,1,,,0,,,61,29
6120,note_on,,,,,0,0,1,,,0,,,57,29
6120,note_off,,,,,0,0,1,,,0,,,68,64
6120,note_off,,,,,0,0,1,,,0,,,65,64
6120,note_off,,,,,120,0,1,,,0,,,61,64
6210,note_off,,,,,90,0,2,,,0,,,42,64
6220,set_tempo,,,,,120,1,0,1666667,,,,,,
6240,note_on,,,,,30,0,2,,,0,,,49,27
6260,control_change,,,,,140,0,1,,,0,64,0,,
6300,set_tempo,,,,,80,1,0,1714286,,,,,,
6360,note_on,,,,,0,0,2,,,0,,,54,21
6360,note_off,,,,,120,0,2,,,0,,,49,64
6400,set_tempo,,,,,100,1,0,1818182,,,,,,
6420,note_off,,,,,0,0,1,,,0,,,57,64
6420,note_off,,,,,160,0,1,,,0,,,66,64
6420,note_off,,,,,0,0,1,,,0,,,61,64
6440,set_tempo,,,,,40,1,0,2307692,,,,,,
6450,note_off,,,,,90,0,2,,,0,,,54,64
6480,control_change,,,,,0,0,1,,,0,91,96,,
6480,set_tempo,,,,,40,1,0,1714286,,,,,,
6480,note_on,,,,,30,0,2,,,0,,,40,32
6480,note_on,,,,,60,0,1,,,0,,,69,30
6480,control_change,,,,,0,0,1,,,0,64,95,,
6500,set_tempo,,,,,20,1,0,1578947,,,,,,
6570,note_off,,,,,90,0,2,,,0,,,40,64
6600,note_on,,,,,30,0,2,,,0,,,57,27
6620,control_change,,,,,140,0,1,,,0,64,0,,
6640,set_tempo,,,,,140,1,0,1500000,,,,,,
6720,set_tempo,,,,,80,1,0,1463415,,,,,,
6720,note_off,,,,,120,0,2,,,0,,,57,64
6720,note_on,,,,,0,0,2,,,0,,,49,17
6810,note_off,,,,,90,0,2,,,0,,,49,64
6840,control_change,,,,,0,0,1,,,0,64,95,,
6840,note_on,,,,,30,0,2,,,0,,,40,30
6840,note_off,,,,,220,0,1,,,0,,,69,64
6840,note_on,,,,,0,0,1,,,0,,,68,30
6930,note_off,,,,,90,0,2,,,0,,,40,64
6960,note_on,,,,,30,0,2,,,0,,,59,27
6980,control_change,,,,,140,0,1,,,0,64,0,,
7080,note_off,,,,,120,0,2,,,0,,,59,64
7080,note_on,,,,,0,0,2,,,0,,,50,17
7140,note_off,,,,,160,0,1,,,0,,,68,64
7170,note_off,,,,,90,0,2,,,0,,,50,64
7170,note_on,,,,,30,0,1,,,0,,,71,32
7200,note_off,,,,,30,0,1,,,0,,,71,64
7200,note_on,,,,,0,0,1,,,0,,,69,31
7200,note_on,,,,,30,0,2,,,0,,,40,34
7200,control_change,,,,,0,0,1,,,0,64,95,,
7260,note_off,,,,,60,0,1,,,0,,,69,64
7260,note_on,,,,,0,0,1,,,0,,,68,27
7290,note_off,,,,,90,0,2,,,0,,,40,64
7320,note_on,,,,,30,0,2,,,0,,,57,28
7320,note_off,,,,,60,0,1,,,0,,,68,64
7320,note_on,,,,,0,0,1,,,0,,,69,26
7340,control_change,,,,,20,0,1,,,0,64,0,,
7410,note_off,,,,,70,0,1,,,0,,,69,64
7410,note_on,,,,,0,0,1,,,0,,,73,29
7440,note_off,,,,,120,0,2,,,0,,,57,64
7440,note_off,,,,,30,0,1,,,0,,,73,64
7440,note_on,,,,,0,0,1,,,0,,,69,31
7440,note_on,,,,,0,0,2,,,0,,,49,17
7530,note_off,,,,,90,0,2,,,0,,,49,64
7560,note_on,,,,,30,0,2,,,0,,,40,36
7560,control_change,,,,,0,0,1,,,0,64,96,,
7560,note_off,,,,,120,0,1,,,0,,,69,64
7560,note_on,,,,,0,0,1,,,0,,,68,37
7650,note_off,,,,,90,0,2,,,0,,,40,64
7680,note_on,,,,,30,0,2,,,0,,,59,31
7700,control_change,,,,,140,0,1,,,0,64,0,,
7800,note_off,,,,,120,0,2,,,0,,,59,64
7800,note_on,,,,,0,0,2,,,0,,,50,18
7860,note_off,,,,,160,0,1,,,0,,,68,64
7880,set_tempo,,,,,1160,1,0,1714286,,,,,,
7890,note_off,,,,,90,0,2,,,0,,,50,64
7900,set_tempo,,,,,20,1,0,1666667,,,,,,
7920,set_tempo,,,,,20,1,0,1463415,,,,,,
7920,note_on,,,,,60,0,1,,,0,,,73,47
7920,control_change,,,,,0,0,1,,,0,64,96,,
7920,note_on,,,,,30,0,2,,,0,,,40,42
8000,set_tempo,,,,,80,1,0,1428571,,,,,,
8010,note_off,,,,,90,0,2,,,0,,,40,64
8040,note_on,,,,,30,0,2,,,0,,,57,42
8060,control_change,,,,,140,0,1,,,0,64,0,,
8100,set_tempo,,,,,100,1,0,1395349,,,,,,
8160,note_off,,,,,120,0,2,,,0,,,57,64
8160,note_on,,,,,0,0,2,,,0,,,49,39
8160,note_off,,,,,100,0,1,,,0,,,73,64
8160,note_on,,,,,0,0,1,,,0,,,74,48
8180,set_tempo,,,,,80,1,0,1363636,,,,,,
8190,note_on,,,,,0,0,1,,,0,,,73,54
8190,note_off,,,,,30,0,1,,,0,,,74,64
8220,note_off,,,,,30,0,1,,,0,,,73,64
8220,note_on,,,,,0,0,1,,,0,,,71,59
8250,note_off,,,,,30,0,1,,,0,,,71,64
8250,note_off,,,,,90,0,2,,,0,,,49,64
8250,note_on,,,,,0,0,1,,,0,,,73,63
8280,note_off,,,,,30,0,1,,,0,,,73,64
8280,note_on,,,,,0,0,1,,,0,,,76,66
8280,control_change,,,,,0,0,1,,,0,64,96,,
8280,note_on,,,,,30,0,2,,,0,,,40,63
8370,note_off,,,,,90,0,2,,,0,,,40,64
8400,note_on,,,,,30,0,2,,,0,,,56,50
8400,note_off,,,,,120,0,1,,,0,,,76,64
8400,note_on,,,,,0,0,1,,,0,,,74,44
8420,control_change,,,,,20,0,1,,,0,64,0,,
8500,set_tempo,,,,,320,1,0,1428571,,,,,,
8520,note_on,,,,,0,0,2,,,0,,,47,31
8520,note_off,,,,,120,0,2,,,0,,,56,64
8610,note_off,,,,,90,0,2,,,0,,,47,64
8640,note_on,,,,,30,0,2,,,0,,,40,43
8640,note_on,,,,,0,0,1,,,0,,,74,60
8640,note_off,,,,,220,0,1,,,0,,,74,64
8640,control_change,,,,,0,0,1,,,0,64,94,,
8700,note_on,,,,,0,0,1,,,0,,,73,45
8700,note_off,,,,,60,0,1,,,0,,,74,64
8730,note_off,,,,,90,0,2,,,0,,,40,64
8740,control_change,,,,,40,0,1,,,0,64,0,,
8740,set_tempo,,,,,240,1,0,1463415,,,,,,
8744,note_off,,,,,4,0,1,,,0,,,73,64
8760,note_on,,,,,30,0,2,,,0,,,49,33
8760,note_on,,,,,16,0,1,,,0,,,68,42
8760,note_on,,,,,0,0,1,,,0,,,73,52
8760,control_change,,,,,0,0,1,,,0,64,95,,
8760,note_on,,,,,0,0,2,,,0,,,41,33
8820,note_off,,,,,60,0,1,,,0,,,73,64
8820,note_on,,,,,0,0,1,,,0,,,71,38
8840,set_tempo,,,,,100,1,0,1538462,,,,,,
8850,note_off,,,,,90,0,2,,,0,,,41,64
8850,note_off,,,,,0,0,2,,,0,,,49,64
8850,note_off,,,,,30,0,1,,,0,,,68,64
8864,note_off,,,,,14,0,1,,,0,,,71,64
8870,control_change,,,,,6,0,1,,,0,64,0,,
8880,note_on,,,,,30,0,2,,,0,,,49,38
8880,note_on,,,,,0,0,2,,,0,,,42,38
8880,note_on,,,,,0,0,1,,,0,,,71,41
8880,control_change,,,,,0,0,1,,,0,64,96,,
8880,note_on,,,,,10,0,1,,,0,,,66,31
8900,set_tempo,,,,,60,1,0,1578947,,,,,,
8940,set_tempo,,,,,40,1,0,1666667,,,,,,
8940,note_off,,,,,60,0,1,,,0,,,71,64
8940,note_on,,,,,0,0,1,,,0,,,69,28
8970,note_off,,,,,30,0,1,,,0,,,66,64
8970,note_off,,,,,0,0,2,,,0,,,49,64
8970,note_off,,,,,90,0,2,,,0,,,42,64
8984,note_off,,,,,14,0,1,,,0,,,69,64
8990,control_change,,,,,6,0,1,,,0,64,0,,
9000,note_on,,,,,30,0,2,,,0,,,37,38
9000,note_on,,,,,0,0,1,,,0,,,68,37
9000,control_change,,,,,0,0,1,,,0,64,96,,
9000,note_on,,,,,10,0,1,,,0,,,65,37
9040,set_tempo,,,,,100,1,0,1714286,,,,,,
9090,note_off,,,,,90,0,2,,,0,,,37,64
9120,note_on,,,,,30,0,2,,,0,,,61,30
9140,control_change,,,,,140,0,1,,,0,64,0,,
9240,note_off,,,,,120,0,2,,,0,,,61,64
9240,note_on,,,,,0,0,2,,,0,,,49,25
9300,note_off,,,,,0,0,1,,,0,,,65,64
9300,note_off,,,,,160,0,1,,,0,,,68,64
9330,note_off,,,,,90,0,2,,,0,,,49,64
9360,set_tempo,,,,,320,1,0,1428571,,,,,,
9360,note_on,,,,,60,0,1,,,0,,,71,81
9360,note_on,,,,,0,0,1,,,0,,,78,81
9360,note_on,,,,,0,0,1,,,0,,,66,81
9360,control_change,,,,,0,0,1,,,0,64,96,,
9360,note_on,,,,,30,0,2,,,0,,,42,70
9450,note_off,,,,,90,0,2,,,0,,,42,64
9480,note_on,,,,,30,0,2,,,0,,,62,54
9600,note_off,,,,,120,0,2,,,0,,,62,64
9600,note_on,,,,,0,0,2,,,0,,,50,32
9660,control_change,,,,,300,0,1,,,0,64,0,,
9690,note_off,,,,,90,0,2,,,0,,,50,64
9720,control_change,,,,,0,0,1,,,0,64,95,,
9720,note_off,,,,,60,0,1,,,0,,,78,64
9720,note_off,,,,,0,0,1,,,0,,,66,64
9720,note_off,,,,,0,0,1,,,0,,,71,64
9720,note_on,,,,,0,0,1,,,0,,,73,44
9720,note_on,,,,,30,0,2,,,0,,,42,50
9720,note_on,,,,,0,0,1,,,0,,,66,44
9720,note_on,,,,,0,0,1,,,0,,,69,44
9810,note_off,,,,,90,0,2,,,0,,,42,64
9840,note_on,,,,,30,0,2,,,0,,,61,37
9890,control_change,,,,,170,0,1,,,0,64,0,,
9960,note_off,,,,,120,0,2,,,0,,,61,64
9960,note_on,,,,,0,0,2,,,0,,,49,25
10020,note_off,,,,,130,0,1,,,0,,,66,64
10020,note_off,,,,,0,0,1,,,0,,,69,64
10020,note_off,,,,,0,0,1,,,0,,,73,64
10050,note_on,,,,,30,0,1,,,0,,,69,39
10050,note_off,,,,,90,0,2,,,0,,,49,64
10080,note_on,,,,,30,0,2,,,0,,,37,43
10080,control_change,,,,,0,0,1,,,0,64,95,,
10080,note_off,,,,,30,0,1,,,0,,,69,64
10080,note_on,,,,,0,0,1,,,0,,,73,45
10080,note_on,,,,,0,0,1,,,0,,,65,45
10080,note_on,,,,,0,0,1,,,0,,,68,45
10170,note_off,,,,,90,0,2,,,0,,,37,64
10200,note_on,,,,,0,0,1,,,0,,,65,41
10200,note_off,,,,,120,0,1,,,0,,,68,64
10200,note_off,,,,,0,0,1,,,0,,,65,64
10200,note_off,,,,,0,0,1,,,0,,,73,64
10200,note_on,,,,,0,0,1,,,0,,,73,41
10200,note_on,,,,,0,0,1,,,0,,,68,41
10200,note_on,,,,,30,0,2,,,0,,,61,34
10220,control_change,,,,,20,0,1,,,0,64,0,,
10290,note_off,,,,,70,0,1,,,0,,,68,64
10290,note_on,,,,,0,0,1,,,0,,,69,34
10320,note_off,,,,,0,0,1,,,0,,,73,64
10320,note_on,,,,,0,0,1,,,0,,,68,32
10320,note_off,,,,,30,0,1,,,0,,,69,64
10320,note_on,,,,,0,0,1,,,0,,,73,32
10320,note_off,,,,,0,0,1,,,0,,,65,64
10320,note_off,,,,,120,0,2,,,0,,,61,64
10320,note_on,,,,,0,0,1,,,0,,,65,32
10320,note_on,,,,,0,0,2,,,0,,,49,25
10410,note_off,,,,,90,0,2,,,0,,,49,64
10440,note_off,,,,,120,0,1,,,0,,,73,64
10440,note_off,,,,,0,0,1,,,0,,,65,64
10440,note_off,,,,,0,0,1,,,0,,,68,64
10440,note_on,,,,,0,0,1,,,0,,,73,33
10440,note_on,,,,,0,0,1,,,0,,,69,33
10440,control_change,,,,,0,0,1,,,0,64,95,,
10440,note_on,,,,,0,0,1,,,0,,,66,33
10440,note_on,,,,,30,0,2,,,0,,,42,33
10530,note_off,,,,,90,0,2,,,0,,,42,64
10560,note_on,,,,,30,0,2,,,0,,,61,28
10580,control_change,,,,,140,0,1,,,0,64,0,,
10680,note_on,,,,,0,0,2,,,0,,,49,18
10680,note_off,,,,,120,0,2,,,0,,,61,64
10740,note_off,,,,,0,0,1,,,0,,,66,64
10740,note_off,,,,,160,0,1,,,0,,,69,64
10740,note_off,,,,,0,0,1,,,0,,,73,64
10770,note_on,,,,,30,0,1,,,0,,,69,28
10770,note_off,,,,,90,0,2,,,0,,,49,64
10800,control_change,,,,,0,0,1,,,0,64,95,,
10800,note_on,,,,,0,0,1,,,0,,,61,35
10800,note_off,,,,,30,0,1,,,0,,,69,64
10800,note_on,,,,,30,0,2,,,0,,,37,33
10800,note_on,,,,,0,0,1,,,0,,,65,35
10800,note_on,,,,,0,0,1,,,0,,,68,35
10890,note_off,,,,,90,0,2,,,0,,,37,64
10920,note_on,,,,,30,0,2,,,0,,,61,27
10920,note_off,,,,,0,0,1,,,0,,,65,64
10920,note_off,,,,,120,0,1,,,0,,,68,64
10920,note_off,,,,,0,0,1,,,0,,,61,64
10920,note_on,,,,,0,0,1,,,0,,,61,32
10920,note_on,,,,,0,0,1,,,0,,,68,32
10920,note_on,,,,,0,0,1,,,0,,,65,32
10940,control_change,,,,,20,0,1,,,0,64,0,,
11010,note_off,,,,,70,0,1,,,0,,,68,64
11010,note_on,,,,,0,0,1,,,0,,,69,29
11020,set_tempo,,,,,1660,1,0,1500000,,,,,,
11040,note_on,,,,,0,0,1,,,0,,,61,27
11040,note_on,,,,,0,0,2,,,0,,,49,19
11040,note_off,,,,,120,0,2,,,0,,,61,64
11040,note_on,,,,,0,0,1,,,0,,,65,27
11040,note_on,,,,,0,0,1,,,0,,,68,27
11040,note_off,,,,,0,0,1,,,0,,,61,64
11040,note_off,,,,,0,0,1,,,0,,,65,64
11040,note_off,,,,,30,0,1,,,0,,,69,64
11130,note_off,,,,,90,0,2,,,0,,,49,64
11140,set_tempo,,,,,120,1,0,1578947,,,,,,
11160,note_off,,,,,0,0,1,,,0,,,65,64
11160,note_off,,,,,0,0,1,,,0,,,68,64
11160,note_on,,,,,0,0,1,,,0,,,57,22
11160,note_on,,,,,0,0,1,,,0,,,61,22
11160,note_on,,,,,0,0,1,,,0,,,66,22
11160,control_change,,,,,0,0,1,,,0,64,95,,
11160,note_on,,,,,30,0,2,,,0,,,42,27
11160,note_off,,,,,120,0,1,,,0,,,61,64
11250,note_off,,,,,90,0,2,,,0,,,42,64
11260,set_tempo,,,,,120,1,0,1666667,,,,,,
11280,note_on,,,,,30,0,2,,,0,,,49,20
11300,control_change,,,,,140,0,1,,,0,64,0,,
11340,set_tempo,,,,,80,1,0,1714286,,,,,,
11400,note_on,,,,,0,0,2,,,0,,,54,19
11400,note_off,,,,,120,0,2,,,0,,,49,64
11440,set_tempo,,,,,100,1,0,1818182,,,,,,
11460,note_off,,,,,160,0,1,,,0,,,66,64
11460,note_off,,,,,0,0,1,,,0,,,61,64
11460,note_off,,,,,0,0,1,,,0,,,57,64
11480,set_tempo,,,,,40,1,0,2307692,,,,,,
11490,note_off,,,,,90,0,2,,,0,,,54,64
11520,control_change,,,,,0,0,1,,,0,91,96,,
11520,set_tempo,,,,,40,1,0,1428571,,,,,,
11520,note_on,,,,,30,0,2,,,0,,,42,42
11520,note_on,,,,,60,0,1,,,0,,,81,38
11520,note_on,,,,,0,0,1,,,0,,,69,38
11520,control_change,,,,,0,0,1,,,0,91,96,,
11520,control_change,,,,,0,0,1,,,0,64,95,,
11520,control_change,,,,,0,0,1,,,0,64,95,,
11610,note_off,,,,,90,0,2,,,0,,,42,64
11640,note_on,,,,,30,0,2,,,0,,,61,32
11660,control_change,,,,,0,0,1,,,0,64,0,,
11660,control_change,,,,,140,0,1,,,0,64,0,,
11760,note_off,,,,,120,0,2,,,0,,,61,64
11760,note_on,,,,,0,0,2,,,0,,,49,26
11850,note_off,,,,,90,0,2,,,0,,,49,64
11880,note_off,,,,,220,0,1,,,0,,,69,64
11880,note_off,,,,,0,0,1,,,0,,,81,64
11880,note_on,,,,,0,0,1,,,0,,,68,38
11880,note_on,,,,,0,0,1,,,0,,,80,38
11880,control_change,,,,,0,0,1,,,0,64,95,,
11880,control_change,,,,,0,0,1,,,0,64,95,,
11880,note_on,,,,,30,0,2,,,0,,,41,45
11970,note_off,,,,,90,0,2,,,0,,,41,64
12000,note_on,,,,,30,0,2,,,0,,,61,31
12020,control_change,,,,,0,0,1,,,0,64,0,,
12020,control_change,,,,,140,0,1,,,0,64,0,,
12120,note_on,,,,,0,0,2,,,0,,,49,25
12120,note_off,,,,,120,0,2,,,0,,,61,64
12180,note_off,,,,,0,0,1,,,0,,,68,64
12180,note_off,,,,,160,0,1,,,0,,,80,64
12210,note_off,,,,,90,0,2,,,0,,,49,64
12240,control_change,,,,,0,0,1,,,0,64,95,,
12240,control_change,,,,,0,0,1,,,0,64,95,,
12240,note_on,,,,,0,0,1,,,0,,,81,48
12240,note_on,,,,,60,0,1,,,0,,,69,48
12240,note_on,,,,,30,0,2,,,0,,,42,43
12300,note_on,,,,,0,0,1,,,0,,,80,33
12300,note_on,,,,,0,0,1,,,0,,,68,33
12300,note_off,,,,,0,0,1,,,0,,,69,64
12300,note_off,,,,,60,0,1,,,0,,,81,64
12330,note_off,,,,,90,0,2,,,0,,,42,64
12360,note_on,,,,,0,0,1,,,0,,,81,35
12360,note_on,,,,,0,0,1,,,0,,,69,35
12360,note_off,,,,,60,0,1,,,0,,,80,64
12360,note_on,,,,,30,0,2,,,0,,,61,35
12360,note_off,,,,,0,0,1,,,0,,,68,64
12380,control_change,,,,,20,0,1,,,0,64,0,,
12380,control_change,,,,,0,0,1,,,0,64,0,,
12450,note_off,,,,,70,0,1,,,0,,,81,64
12450,note_off,,,,,0,0,1,,,0,,,69,64
12450,note_on,,,,,0,0,1,,,0,,,85,36
12450,note_on,,,,,0,0,1,,,0,,,73,36
12480,note_on,,,,,0,0,1,,,0,,,81,40
12480,note_off,,,,,120,0,2,,,0,,,61,64
12480,note_on,,,,,0,0,2,,,0,,,49,25
12480,note_off,,,,,0,0,1,,,0,,,73,64
12480,note_off,,,,,30,0,1,,,0,,,85,64
12480,note_on,,,,,0,0,1,,,0,,,69,40
12570,note_off,,,,,90,0,2,,,0,,,49,64
12600,note_on,,,,,30,0,2,,,0,,,41,43
12600,control_change,,,,,0,0,1,,,0,64,96,,
12600,note_off,,,,,120,0,1,,,0,,,69,64
12600,control_change,,,,,0,0,1,,,0,64,96,,
12600,note_on,,,,,0,0,1,,,0,,,68,41
12600,note_on,,,,,0,0,1,,,0,,,80,41
12600,note_off,,,,,0,0,1,,,0,,,81,64
12690,note_off,,,,,90,0,2,,,0,,,41,64
12720,note_on,,,,,30,0,2,,,0,,,61,34
12740,control_change,,,,,140,0,1,,,0,64,0,,
12740,control_change,,,,,0,0,1,,,0,64,0,,
12840,note_on,,,,,0,0,2,,,0,,,49,24
12840,note_off,,,,,120,0,2,,,0,,,61,64
12900,note_off,,,,,0,0,1,,,0,,,68,64
12900,note_off,,,,,160,0,1,,,0,,,80,64
12930,note_off,,,,,90,0,2,,,0,,,49,64
12960,control_change,,,,,0,0,1,,,0,64,96,,
12960,note_on,,,,,0,0,1,,,0,,,73,53
12960,note_on,,,,,60,0,1,,,0,,,85,53
12960,control_change,,,,,0,0,1,,,0,64,96,,
12960,note_on,,,,,30,0,2,,,0,,,45,50
13050,note_off,,,,,90,0,2,,,0,,,45,64
13080,note_on,,,,,30,0,2,,,0,,,61,43
13100,control_change,,,,,140,0,1,,,0,64,0,,
13100,control_change,,,,,0,0,1,,,0,64,0,,
13200,note_on,,,,,0,0,2,,,0,,,49,27
13200,note_off,,,,,120,0,2,,,0,,,61,64
13290,note_off,,,,,90,0,2,,,0,,,49,64
13320,note_off,,,,,220,0,1,,,0,,,73,64
13320,control_change,,,,,0,0,1,,,0,64,96,,
13320,note_on,,,,,0,0,1,,,0,,,74,60
13320,note_on,,,,,0,0,1,,,0,,,86,60
13320,note_off,,,,,0,0,1,,,0,,,85,64
13320,control_change,,,,,0,0,1,,,0,64,96,,
13320,note_on,,,,,30,0,2,,,0,,,47,51
13410,note_off,,,,,90,0,2,,,0,,,47,64
13440,note_on,,,,,30,0,2,,,0,,,61,42
13440,note_on,,,,,120,0,1,,,0,,,77,43
13460,control_change,,,,,0,0,1,,,0,64,0,,
13460,control_change,,,,,20,0,1,,,0,64,0,,
13560,note_on,,,,,0,0,2,,,0,,,49,31
13560,note_off,,,,,120,0,2,,,0,,,61,64
13650,note_off,,,,,90,0,2,,,0,,,49,64
13680,note_off,,,,,220,0,1,,,0,,,77,64
13680,note_on,,,,,0,0,1,,,0,,,74,60
13680,note_off,,,,,0,0,1,,,0,,,74,64
13680,control_change,,,,,0,0,1,,,0,64,94,,
13680,control_change,,,,,0,0,1,,,0,64,94,,
13680,note_on,,,,,0,0,1,,,0,,,86,60
13680,note_on,,,,,0,0,1,,,0,,,78,50
13680,note_on,,,,,30,0,2,,,0,,,45,43
13680,note_off,,,,,0,0,1,,,0,,,86,64
13740,note_off,,,,,0,0,1,,,0,,,74,64
13740,note_on,,,,,0,0,1,,,0,,,73,45
13740,note_on,,,,,0,0,1,,,0,,,85,45
13740,note_off,,,,,60,0,1,,,0,,,86,64
13760,set_tempo,,,,,2240,1,0,1463415,,,,,,
13770,note_off,,,,,90,0,2,,,0,,,45,64
13770,note_off,,,,,30,0,1,,,0,,,78,64
13780,control_change,,,,,10,0,1,,,0,64,0,,
13780,control_change,,,,,0,0,1,,,0,64,0,,
13784,note_off,,,,,4,0,1,,,0,,,85,64
13784,note_off,,,,,0,0,1,,,0,,,73,64
13800,note_on,,,,,30,0,2,,,0,,,44,33
13800,control_change,,,,,0,0,1,,,0,64,95,,
13800,control_change,,,,,0,0,1,,,0,64,95,,
13800,note_on,,,,,0,0,1,,,0,,,85,52
13800,note_on,,,,,16,0,1,,,0,,,73,52
13800,note_on,,,,,0,0,1,,,0,,,77,42
13860,note_off,,,,,60,0,1,,,0,,,85,64
13860,note_off,,,,,0,0,1,,,0,,,73,64
13860,note_on,,,,,0,0,1,,,0,,,71,38
13860,note_on,,,,,0,0,1,,,0,,,83,38
13880,set_tempo,,,,,120,1,0,1500000,,,,,,
13890,note_off,,,,,90,0,2,,,0,,,44,64
13890,note_off,,,,,30,0,1,,,0,,,77,64
13904,note_off,,,,,0,0,1,,,0,,,71,64
13904,note_off,,,,,14,0,1,,,0,,,83,64
13910,control_change,,,,,0,0,1,,,0,64,0,,
13910,control_change,,,,,6,0,1,,,0,64,0,,
13920,note_on,,,,,10,0,1,,,0,,,71,41
13920,control_change,,,,,0,0,1,,,0,64,96,,
13920,control_change,,,,,0,0,1,,,0,64,96,,
13920,note_on,,,,,0,0,1,,,0,,,78,31
13920,note_on,,,,,0,0,1,,,0,,,83,41
13920,note_on,,,,,30,0,2,,,0,,,42,38
13980,note_off,,,,,0,0,1,,,0,,,71,64
13980,note_on,,,,,0,0,1,,,0,,,69,28
13980,note_on,,,,,0,0,1,,,0,,,81,28
13980,note_off,,,,,60,0,1,,,0,,,83,64
14010,note_off,,,,,30,0,1,,,0,,,78,64
14010,note_off,,,,,90,0,2,,,0,,,42,64
14024,note_off,,,,,14,0,1,,,0,,,81,64
14024,note_off,,,,,0,0,1,,,0,,,69,64
14030,control_change,,,,,6,0,1,,,0,64,0,,
14030,control_change,,,,,0,0,1,,,0,64,0,,
14040,note_on,,,,,10,0,1,,,0,,,68,37
14040,control_change,,,,,0,0,1,,,0,64,96,,
14040,control_change,,,,,0,0,1,,,0,64,96,,
14040,note_on,,,,,0,0,1,,,0,,,77,37
14040,note_on,,,,,0,0,1,,,0,,,80,37
14040,note_on,,,,,30,0,2,,,0,,,37,38
14060,set_tempo,,,,,180,1,0,1538462,,,,,,
14130,note_off,,,,,90,0,2,,,0,,,37,64
14160,note_on,,,,,30,0,2,,,0,,,61,30
14180,control_change,,,,,0,0,1,,,0,64,0,,
14180,control_change,,,,,140,0,1,,,0,64,0,,
14280,note_on,,,,,0,0,2,,,0,,,49,19
14280,note_off,,,,,120,0,2,,,0,,,61,64
14340,note_off,,,,,160,0,1,,,0,,,80,64
14340,note_off,,,,,0,0,1,,,0,,,68,64
14340,note_off,,,,,0,0,1,,,0,,,77,64
14370,note_off,,,,,90,0,2,,,0,,,49,64
14400,note_on,,,,,30,0,2,,,0,,,42,42
14400,set_tempo,,,,,340,1,0,1428571,,,,,,
14400,note_on,,,,,0,0,1,,,0,,,69,38
14400,control_change,,,,,0,0,1,,,0,91,96,,
14400,control_change,,,,,0,0,1,,,0,91,96,,
14400,control_change,,,,,0,0,1,,,0,64,95,,
14400,control_change,,,,,0,0,1,,,0,64,95,,
14400,note_on,,,,,60,0,1,,,0,,,81,38
14490,note_off,,,,,90,0,2,,,0,,,42,64
14520,note_on,,,,,30,0,2,,,0,,,61,32
14540,control_change,,,,,0,0,1,,,0,64,0,,
14540,control_change,,,,,140,0,1,,,0,64,0,,
14640,note_off,,,,,120,0,2,,,0,,,61,64
14640,note_on,,,,,0,0,2,,,0,,,49,26
14730,note_off,,,,,90,0,2,,,0,,,49,64
14760,note_off,,,,,220,0,1,,,0,,,69,64
14760,note_on,,,,,30,0,2,,,0,,,41,45
14760,note_on,,,,,0,0,1,,,0,,,68,38
14760,control_change,,,,,0,0,1,,,0,64,95,,
14760,note_on,,,,,0,0,1,,,0,,,80,38
14760,note_off,,,,,0,0,1,,,0,,,81,64
14760,control_change,,,,,0,0,1,,,0,64,95,,
14850,note_off,,,,,90,0,2,,,0,,,41,64
14880,note_on,,,,,30,0,2,,,0,,,61,32
14900,control_change,,,,,0,0,1,,,0,64,0,,
14900,control_change,,,,,140,0,1,,,0,64,0,,
15000,note_on,,,,,0,0,2,,,0,,,49,20
15000,note_off,,,,,120,0,2,,,0,,,61,64
15060,note_off,,,,,160,0,1,,,0,,,80,64
15060,note_off,,,,,0,0,1,,,0,,,68,64
15090,note_off,,,,,90,0,2,,,0,,,49,64
15120,note_on,,,,,0,0,1,,,0,,,81,48
15120,note_on,,,,,60,0,1,,,0,,,69,48
15120,control_change,,,,,0,0,1,,,0,64,95,,
15120,note_on,,,,,30,0,2,,,0,,,42,43
15120,control_change,,,,,0,0,1,,,0,64,95,,
15180,note_on,,,,,0,0,1,,,0,,,80,33
15180,note_off,,,,,60,0,1,,,0,,,81,64
15180,note_off,,,,,0,0,1,,,0,,,69,64
15180,note_on,,,,,0,0,1,,,0,,,68,33
15210,note_off,,,,,90,0,2,,,0,,,42,64
15240,note_on,,,,,30,0,2,,,0,,,61,32
15240,note_off,,,,,0,0,1,,,0,,,68,64
15240,note_on,,,,,0,0,1,,,0,,,69,35
15240,note_on,,,,,0,0,1,,,0,,,81,35
15240,note_off,,,,,60,0,1,,,0,,,80,64
15260,control_change,,,,,0,0,1,,,0,64,0,,
15260,control_change,,,,,20,0,1,,,0,64,0,,
15330,note_off,,,,,70,0,1,,,0,,,81,64
15330,note_on,,,,,0,0,1,,,0,,,73,36
15330,note_on,,,,,0,0,1,,,0,,,85,36
15330,note_off,,,,,0,0,1,,,0,,,69,64
15360,note_on,,,,,0,0,1,,,0,,,69,40
15360,note_off,,,,,120,0,2,,,0,,,61,64
15360,note_off,,,,,30,0,1,,,0,,,85,64
15360,note_off,,,,,0,0,1,,,0,,,73,64
15360,note_on,,,,,0,0,2,,,0,,,49,22
15360,note_on,,,,,0,0,1,,,0,,,81,40
15450,note_off,,,,,90,0,2,,,0,,,49,64
15480,note_on,,,,,0,0,1,,,0,,,68,41
15480,note_off,,,,,120,0,1,,,0,,,69,64
15480,note_off,,,,,0,0,1,,,0,,,81,64
15480,note_on,,,,,0,0,1,,,0,,,80,41
15480,control_change,,,,,0,0,1,,,0,64,96,,
15480,control_change,,,,,0,0,1,,,0,64,96,,
15480,note_on,,,,,30,0,2,,,0,,,41,45
15570,note_off,,,,,90,0,2,,,0,,,41,64
15600,note_on,,,,,30,0,2,,,0,,,61,33
15620,control_change,,,,,0,0,1,,,0,64,0,,
15620,control_change,,,,,140,0,1,,,0,64,0,,
15720,note_on,,,,,0,0,2,,,0,,,49,23
15720,note_off,,,,,120,0,2,,,0,,,61,64
15780,note_off,,,,,0,0,1,,,0,,,68,64
15780,note_off,,,,,160,0,1,,,0,,,80,64
15780,set_tempo,,,,,1380,1,0,1666667,,,,,,
15810,note_off,,,,,90,0,2,,,0,,,49,64
15840,control_change,,,,,0,0,1,,,0,64,96,,
15840,note_on,,,,,0,0,1,,,0,,,71,81
15840,note_on,,,,,0,0,1,,,0,,,78,81
15840,note_on,,,,,60,0,1,,,0,,,83,81
15840,note_on,,,,,30,0,2,,,0,,,42,70
15840,control_change,,,,,0,0,1,,,0,64,96,,
15840,set_tempo,,,,,60,1,0,1428571,,,,,,
15930,note_off,,,,,90,0,2,,,0,,,42,64
15960,note_on,,,,,30,0,2,,,0,,,62,54
16080,note_off,,,,,120,0,2,,,0,,,62,64
16080,note_on,,,,,0,0,2,,,0,,,50,32
16140,control_change,,,,,300,0,1,,,0,64,0,,
16140,control_change,,,,,0,0,1,,,0,64,0,,
16170,note_off,,,,,90,0,2,,,0,,,50,64
16200,note_on,,,,,0,0,1,,,0,,,81,44
16200,control_change,,,,,0,0,1,,,0,64,95,,
16200,control_change,,,,,0,0,1,,,0,64,95,,
16200,note_on,,,,,0,0,1,,,0,,,78,44
16200,note_on,,,,,0,0,1,,,0,,,69,44
16200,note_off,,,,,0,0,1,,,0,,,83,64
16200,note_off,,,,,60,0,1,,,0,,,71,64
16200,note_off,,,,,0,0,1,,,0,,,78,64
16200,note_on,,,,,30,0,2,,,0,,,42,50
16290,note_off,,,,,90,0,2,,,0,,,42,64
16320,note_on,,,,,30,0,2,,,0,,,61,37
16370,control_change,,,,,170,0,1,,,0,64,0,,
16370,control_change,,,,,0,0,1,,,0,64,0,,
16440,note_off,,,,,120,0,2,,,0,,,61,64
16440,note_on,,,,,0,0,2,,,0,,,49,25
16500,note_off,,,,,130,0,1,,,0,,,78,64
16500,note_off,,,,,0,0,1,,,0,,,81,64
16500,note_off,,,,,0,0,1,,,0,,,69,64
16530,note_off,,,,,90,0,2,,,0,,,49,64
16530,note_on,,,,,30,0,1,,,0,,,81,39
16560,note_on,,,,,0,0,1,,,0,,,73,45
16560,note_on,,,,,30,0,2,,,0,,,37,43
16560,note_on,,,,,0,0,1,,,0,,,77,45
16560,note_off,,,,,30,0,1,,,0,,,81,64
16560,control_change,,,,,0,0,1,,,0,64,95,,
16560,control_change,,,,,0,0,1,,,0,64,95,,
16560,note_on,,,,,0,0,1,,,0,,,80,45
16650,note_off,,,,,90,0,2,,,0,,,37,64
16680,note_on,,,,,30,0,2,,,0,,,61,34
16680,note_on,,,,,0,0,1,,,0,,,80,41
16680,note_on,,,,,0,0,1,,,0,,,77,41
16680,note_off,,,,,0,0,1,,,0,,,73,64
16680,note_off,,,,,0,0,1,,,0,,,77,64
16680,note_off,,,,,120,0,1,,,0,,,80,64
16680,note_on,,,,,0,0,1,,,0,,,73,41
16700,control_change,,,,,20,0,1,,,0,64,0,,
16700,control_change,,,,,0,0,1,,,0,64,0,,
16770,note_off,,,,,70,0,1,,,0,,,80,64
16770,note_on,,,,,0,0,1,,,0,,,81,34
16800,note_off,,,,,120,0,2,,,0,,,61,64
16800,note_on,,,,,0,0,2,,,0,,,49,25
16800,note_on,,,,,0,0,1,,,0,,,73,32
16800,note_off,,,,,0,0,1,,,0,,,73,64
16800,note_on,,,,,0,0,1,,,0,,,80,32
16800,note_off,,,,,0,0,1,,,0,,,77,64
16800,note_off,,,,,30,0,1,,,0,,,81,64
16800,note_on,,,,,0,0,1,,,0,,,77,32
16890,note_off,,,,,90,0,2,,,0,,,49,64
16920,note_off,,,,,120,0,1,,,0,,,73,64
16920,note_off,,,,,0,0,1,,,0,,,77,64
16920,note_off,,,,,0,0,1,,,0,,,80,64
16920,control_change,,,,,0,0,1,,,0,64,95,,
16920,note_on,,,,,0,0,1,,,0,,,73,34
16920,note_on,,,,,0,0,1,,,0,,,78,34
16920,note_on,,,,,0,0,1,,,0,,,81,34
16920,note_on,,,,,30,0,2,,,0,,,42,33
16920,control_change,,,,,0,0,1,,,0,64,95,,
17010,note_off,,,,,90,0,2,,,0,,,42,64
17040,note_on,,,,,30,0,2,,,0,,,57,28
17060,control_change,,,,,140,0,1,,,0,64,0,,
17060,control_change,,,,,0,0,1,,,0,64,0,,
17160,note_off,,,,,120,0,2,,,0,,,57,64
17160,note_on,,,,,0,0,2,,,0,,,49,22
17220,note_off,,,,,160,0,1,,,0,,,81,64
17220,note_off,,,,,0,0,1,,,0,,,78,64
17220,note_off,,,,,0,0,1,,,0,,,73,64
17250,note_on,,,,,30,0,1,,,0,,,81,39
17250,note_off,,,,,90,0,2,,,0,,,49,64
17280,note_on,,,,,30,0,2,,,0,,,37,43
17280,control_change,,,,,0,0,1,,,0,64,95,,
17280,note_off,,,,,30,0,1,,,0,,,81,64
17280,note_on,,,,,0,0,1,,,0,,,80,45
17280,note_on,,,,,0,0,1,,,0,,,77,45
17280,note_on,,,,,0,0,1,,,0,,,73,45
17280,control_change,,,,,0,0,1,,,0,64,95,,
17370,note_off,,,,,90,0,2,,,0,,,37,64
17400,note_on,,,,,30,0,2,,,0,,,61,34
17400,note_off,,,,,0,0,1,,,0,,,77,64
17400,note_on,,,,,0,0,1,,,0,,,80,41
17400,note_on,,,,,0,0,1,,,0,,,73,41
17400,note_off,,,,,0,0,1,,,0,,,73,64
17400,note_off,,,,,120,0,1,,,0,,,80,64
17400,note_on,,,,,0,0,1,,,0,,,77,41
17420,control_change,,,,,20,0,1,,,0,64,0,,
17420,control_change,,,,,0,0,1,,,0,64,0,,
17490,note_off,,,,,70,0,1,,,0,,,80,64
17490,note_off,,,,,0,0,1,,,0,,,73,64
17490,note_on,,,,,0,0,1,,,0,,,81,34
17500,set_tempo,,,,,1660,1,0,1500000,,,,,,
17520,note_off,,,,,120,0,2,,,0,,,61,64
17520,note_on,,,,,0,0,2,,,0,,,49,25
17520,note_off,,,,,0,0,1,,,0,,,77,64
17520,note_on,,,,,0,0,1,,,0,,,77,32
17520,note_on,,,,,0,0,1,,,0,,,80,32
17520,note_off,,,,,30,0,1,,,0,,,81,64
17520,note_on,,,,,0,0,1,,,0,,,73,32
17610,note_off,,,,,90,0,2,,,0,,,49,64
17620,set_tempo,,,,,120,1,0,1578947,,,,,,
17640,note_on,,,,,0,0,1,,,0,,,78,29
17640,note_off,,,,,0,0,1,,,0,,,80,64
17640,control_change,,,,,0,0,1,,,0,64,95,,
17640,control_change,,,,,0,0,1,,,0,64,95,,
17640,note_off,,,,,0,0,1,,,0,,,77,64
17640,note_on,,,,,0,0,1,,,0,,,69,29
17640,note_on,,,,,30,0,2,,,0,,,42,33
17640,note_on,,,,,0,0,1,,,0,,,73,29
17640,note_off,,,,,120,0,1,,,0,,,73,64
17730,note_off,,,,,90,0,2,,,0,,,42,64
17740,set_tempo,,,,,120,1,0,1666667,,,,,,
17760,note_on,,,,,30,0,2,,,0,,,49,27
17780,control_change,,,,,0,0,1,,,0,64,0,,
17780,control_change,,,,,140,0,1,,,0,64,0,,
17820,set_tempo,,,,,80,1,0,1714286,,,,,,
17880,note_off,,,,,120,0,2,,,0,,,49,64
17880,note_on,,,,,0,0,2,,,0,,,54,19
17920,set_tempo,,,,,100,1,0,1818182,,,,,,
17940,note_off,,,,,0,0,1,,,0,,,73,64
17940,note_off,,,,,0,0,1,,,0,,,69,64
17940,note_off,,,,,160,0,1,,,0,,,78,64
17960,set_tempo,,,,,40,1,0,2307692,,,,,,
17970,note_off,,,,,90,0,2,,,0,,,54,64
18000,control_change,,,,,0,0,1,,,0,91,96,,
18000,note_on,,,,,30,0,2,,,0,,,40,32
18000,control_change,,,,,0,0,1,,,0,64,95,,
18000,control_change,,,,,0,0,1,,,0,91,96,,
18000,control_change,,,,,0,0,1,,,0,64,95,,
18000,note_on,,,,,60,0,1,,,0,,,81,30
18000,note_on,,,,,0,0,1,,,0,,,69,30
18000,set_tempo,,,,,40,1,0,1714286,,,,,,
18020,set_tempo,,,,,20,1,0,1578947,,,,,,
18090,note_off,,,,,90,0,2,,,0,,,40,64
18120,note_on,,,,,30,0,2,,,0,,,57,27
18140,control_change,,,,,0,0,1,,,0,64,0,,
18140,control_change,,,,,140,0,1,,,0,64,0,,
18160,set_tempo,,,,,140,1,0,1500000,,,,,,
18240,note_off,,,,,120,0,2,,,0,,,57,64
18240,set_tempo,,,,,80,1,0,1463415,,,,,,
18240,note_on,,,,,0,0,2,,,0,,,49,17
18330,note_off,,,,,90,0,2,,,0,,,49,64
18360,note_on,,,,,0,0,1,,,0,,,68,30
18360,control_change,,,,,0,0,1,,,0,64,95,,
18360,note_off,,,,,0,0,1,,,0,,,81,64
18360,note_on,,,,,0,0,1,,,0,,,80,30
18360,note_off,,,,,220,0,1,,,0,,,69,64
18360,control_change,,,,,0,0,1,,,0,64,95,,
18360,note_on,,,,,30,0,2,,,0,,,40,30
18450,note_off,,,,,90,0,2,,,0,,,40,64
18480,note_on,,,,,30,0,2,,,0,,,59,27
18500,control_change,,,,,140,0,1,,,0,64,0,,
18500,control_change,,,,,0,0,1,,,0,64,0,,
18600,note_on,,,,,0,0,2,,,0,,,50,19
18600,note_off,,,,,120,0,2,,,0,,,59,64
18660,note_off,,,,,160,0,1,,,0,,,80,64
18660,note_off,,,,,0,0,1,,,0,,,68,64
18690,note_off,,,,,90,0,2,,,0,,,50,64
18720,note_on,,,,,30,0,2,,,0,,,40,34
18720,note_on,,,,,60,0,1,,,0,,,69,31
18720,control_change,,,,,0,0,1,,,0,64,95,,
18720,control_change,,,,,0,0,1,,,0,64,95,,
18720,note_on,,,,,0,0,1,,,0,,,81,31
18780,note_on,,,,,0,0,1,,,0,,,80,27
18780,note_off,,,,,0,0,1,,,0,,,69,64
18780,note_off,,,,,60,0,1,,,0,,,81,64
18780,note_on,,,,,0,0,1,,,0,,,68,27
18810,note_off,,,,,90,0,2,,,0,,,40,64
18840,note_off,,,,,60,0,1,,,0,,,80,64
18840,note_on,,,,,30,0,2,,,0,,,57,28
18840,note_on,,,,,0,0,1,,,0,,,81,26
18840,note_off,,,,,0,0,1,,,0,,,68,64
18840,note_on,,,,,0,0,1,,,0,,,69,26
18860,control_change,,,,,20,0,1,,,0,64,0,,
18860,control_change,,,,,0,0,1,,,0,64,0,,
18930,note_off,,,,,70,0,1,,,0,,,81,64
18930,note_off,,,,,0,0,1,,,0,,,69,64
18930,note_on,,,,,0,0,1,,,0,,,73,29
18930,note_on,,,,,0,0,1,,,0,,,85,29
18960,note_on,,,,,0,0,2,,,0,,,49,19
18960,note_off,,,,,120,0,2,,,0,,,57,64
18960,note_on,,,,,0,0,1,,,0,,,69,31
18960,note_off,,,,,0,0,1,,,0,,,73,64
18960,note_off,,,,,30,0,1,,,0,,,85,64
18960,note_on,,,,,0,0,1,,,0,,,81,31
19050,note_off,,,,,90,0,2,,,0,,,49,64
19080,note_off,,,,,120,0,1,,,0,,,69,64
19080,note_on,,,,,0,0,1,,,0,,,68,37
19080,note_on,,,,,0,0,1,,,0,,,80,37
19080,control_change,,,,,0,0,1,,,0,64,96,,
19080,control_change,,,,,0,0,1,,,0,64,96,,
19080,note_on,,,,,30,0,2,,,0,,,40,36
19080,note_off,,,,,0,0,1,,,0,,,81,64
19170,note_off,,,,,90,0,2,,,0,,,40,64
19200,note_on,,,,,30,0,2,,,0,,,59,31
19220,control_change,,,,,140,0,1,,,0,64,0,,
19220,control_change,,,,,0,0,1,,,0,64,0,,
19320,note_off,,,,,120,0,2,,,0,,,59,64
19320,note_on,,,,,0,0,2,,,0,,,50,19
19380,note_off,,,,,160,0,1,,,0,,,80,64
19380,note_off,,,,,0,0,1,,,0,,,68,64
19400,set_tempo,,,,,1160,1,0,1714286,,,,,,
19410,note_off,,,,,90,0,2,,,0,,,50,64
19420,set_tempo,,,,,20,1,0,1666667,,,,,,
19440,set_tempo,,,,,20,1,0,1463415,,,,,,
19440,note_on,,,,,30,0,2,,,0,,,40,42
19440,note_on,,,,,60,0,1,,,0,,,73,47
19440,control_change,,,,,0,0,1,,,0,64,96,,
19440,control_change,,,,,0,0,1,,,0,64,96,,
19440,note_on,,,,,0,0,1,,,0,,,85,47
19520,set_tempo,,,,,80,1,0,1428571,,,,,,
19530,note_off,,,,,90,0,2,,,0,,,40,64
19560,note_on,,,,,30,0,2,,,0,,,57,42
19580,control_change,,,,,140,0,1,,,0,64,0,,
19580,control_change,,,,,0,0,1,,,0,64,0,,
19620,set_tempo,,,,,100,1,0,1395349,,,,,,
19680,note_off,,,,,120,0,2,,,0,,,57,64
19680,note_on,,,,,0,0,2,,,0,,,49,33
19680,note_off,,,,,100,0,1,,,0,,,85,64
19680,note_off,,,,,0,0,1,,,0,,,73,64
19680,note_on,,,,,0,0,1,,,0,,,86,48
19700,set_tempo,,,,,80,1,0,1363636,,,,,,
19710,note_off,,,,,30,0,1,,,0,,,86,64
19710,note_on,,,,,0,0,1,,,0,,,85,54
19740,note_on,,,,,0,0,1,,,0,,,83,59
19740,note_off,,,,,30,0,1,,,0,,,85,64
19770,note_off,,,,,90,0,2,,,0,,,49,64
19770,note_on,,,,,0,0,1,,,0,,,85,63
19770,note_off,,,,,30,0,1,,,0,,,83,64
19800,note_on,,,,,30,0,2,,,0,,,40,63
19800,note_on,,,,,0,0,1,,,0,,,76,66
19800,note_on,,,,,0,0,1,,,0,,,88,66
19800,control_change,,,,,0,0,1,,,0,64,96,,
19800,control_change,,,,,0,0,1,,,0,64,96,,
19800,note_off,,,,,30,0,1,,,0,,,85,64
19890,note_off,,,,,90,0,2,,,0,,,40,64
19920,note_off,,,,,0,0,1,,,0,,,76,64
19920,note_on,,,,,30,0,2,,,0,,,56,50
19920,note_off,,,,,120,0,1,,,0,,,88,64
19920,note_on,,,,,0,0,1,,,0,,,86,44
19920,note_on,,,,,0,0,1,,,0,,,74,44
19940,control_change,,,,,20,0,1,,,0,64,0,,
19940,control_change,,,,,0,0,1,,,0,64,0,,
20020,set_tempo,,,,,320,1,0,1428571,,,,,,
20040,note_off,,,,,120,0,2,,,0,,,56,64
20040,note_on,,,,,0,0,2,,,0,,,47,31
20130,note_off,,,,,90,0,2,,,0,,,47,64
20160,control_change,,,,,0,0,1,,,0,64,94,,
20160,note_on,,,,,30,0,2,,,0,,,40,43
20160,note_on,,,,,0,0,1,,,0,,,86,60
20160,control_change,,,,,0,0,1,,,0,64,94,,
20160,note_on,,,,,0,0,1,,,0,,,74,60
20160,note_off,,,,,0,0,1,,,0,,,86,64
20160,note_off,,,,,220,0,1,,,0,,,74,64
20220,note_on,,,,,0,0,1,,,0,,,85,45
20220,note_on,,,,,0,0,1,,,0,,,73,45
20220,note_off,,,,,0,0,1,,,0,,,74,64
20220,note_off,,,,,60,0,1,,,0,,,86,64
20250,note_off,,,,,90,0,2,,,0,,,40,64
20260,set_tempo,,,,,240,1,0,1463415,,,,,,
20260,control_change,,,,,40,0,1,,,0,64,0,,
20260,control_change,,,,,0,0,1,,,0,64,0,,
20264,note_off,,,,,0,0,1,,,0,,,73,64
20264,note_off,,,,,4,0,1,,,0,,,85,64
20280,note_on,,,,,0,0,1,,,0,,,80,42
20280,note_on,,,,,0,0,1,,,0,,,85,52
20280,note_on,,,,,30,0,2,,,0,,,49,33
20280,control_change,,,,,0,0,1,,,0,64,95,,
20280,note_on,,,,,16,0,1,,,0,,,73,52
20280,note_on,,,,,0,0,2,,,0,,,41,33
20280,control_change,,,,,0,0,1,,,0,64,95,,
20340,note_on,,,,,0,0,1,,,0,,,71,38
20340,note_on,,,,,0,0,1,,,0,,,83,38
20340,note_off,,,,,0,0,1,,,0,,,73,64
20340,note_off,,,,,60,0,1,,,0,,,85,64
20360,set_tempo,,,,,100,1,0,1538462,,,,,,
20370,note_off,,,,,30,0,1,,,0,,,80,64
20370,note_off,,,,,0,0,2,,,0,,,49,64
20370,note_off,,,,,90,0,2,,,0,,,41,64
20384,note_off,,,,,0,0,1,,,0,,,71,64
20384,note_off,,,,,14,0,1,,,0,,,83,64
20390,control_change,,,,,6,0,1,,,0,64,0,,
20390,control_change,,,,,0,0,1,,,0,64,0,,
20400,note_on,,,,,10,0,1,,,0,,,71,41
20400,control_change,,,,,0,0,1,,,0,64,96,,
20400,note_on,,,,,0,0,2,,,0,,,42,38
20400,note_on,,,,,30,0,2,,,0,,,49,38
20400,note_on,,,,,0,0,1,,,0,,,78,31
20400,note_on,,,,,0,0,1,,,0,,,83,41
20400,control_change,,,,,0,0,1,,,0,64,96,,
20420,set_tempo,,,,,60,1,0,1578947,,,,,,
20460,note_on,,,,,0,0,1,,,0,,,69,28
20460,note_on,,,,,0,0,1,,,0,,,81,28
20460,set_tempo,,,,,40,1,0,1666667,,,,,,
20460,note_off,,,,,0,0,1,,,0,,,71,64
20460,note_off,,,,,60,0,1,,,0,,,83,64
20490,note_off,,,,,90,0,2,,,0,,,42,64
20490,note_off,,,,,0,0,2,,,0,,,49,64
20490,note_off,,,,,30,0,1,,,0,,,78,64
20504,note_off,,,,,0,0,1,,,0,,,69,64
20504,note_off,,,,,14,0,1,,,0,,,81,64
20510,control_change,,,,,6,0,1,,,0,64,0,,
20510,control_change,,,,,0,0,1,,,0,64,0,,
20520,note_on,,,,,0,0,1,,,0,,,77,37
20520,control_change,,,,,0,0,1,,,0,64,96,,
20520,note_on,,,,,10,0,1,,,0,,,68,37
20520,note_on,,,,,0,0,1,,,0,,,80,37
20520,control_change,,,,,0,0,1,,,0,64,96,,
20520,note_on,,,,,30,0,2,,,0,,,37,38
20560,set_tempo,,,,,100,1,0,1714286,,,,,,
20610,note_off,,,,,90,0,2,,,0,,,37,64
20640,note_on,,,,,30,0,2,,,0,,,61,30
20660,control_change,,,,,140,0,1,,,0,64,0,,
20660,control_change,,,,,0,0,1,,,0,64,0,,
20760,note_off,,,,,120,0,2,,,0,,,61,64
20760,note_on,,,,,0,0,2,,,0,,,49,20
20820,note_off,,,,,0,0,1,,,0,,,68,64
20820,note_off,,,,,0,0,1,,,0,,,77,64
20820,note_off,,,,,160,0,1,,,0,,,80,64
20850,note_off,,,,,90,0,2,,,0,,,49,64
20880,note_on,,,,,30,0,2,,,0,,,42,70
20880,set_tempo,,,,,320,1,0,1428571,,,,,,
20880,note_on,,,,,60,0,1,,,0,,,83,81
20880,note_on,,,,,0,0,1,,,0,,,78,81
20880,note_on,,,,,0,0,1,,,0,,,90,81
20880,control_change,,,,,0,0,1,,,0,64,96,,
20880,control_change,,,,,0,0,1,,,0,64,96,,
20970,note_off,,,,,90,0,2,,,0,,,42,64
21000,note_on,,,,,30,0,2,,,0,,,62,54
21120,note_off,,,,,120,0,2,,,0,,,62,64
21120,note_on,,,,,0,0,2,,,0,,,50,32
21180,control_change,,,,,300,0,1,,,0,64,0,,
21180,control_change,,,,,0,0,1,,,0,64,0,,
21210,note_off,,,,,90,0,2,,,0,,,50,64
21240,note_off,,,,,60,0,1,,,0,,,90,64
21240,note_on,,,,,0,0,1,,,0,,,73,44
21240,note_off,,,,,0,0,1,,,0,,,83,64
21240,note_on,,,,,30,0,2,,,0,,,42,50
21240,note_off,,,,,0,0,1,,,0,,,78,64
21240,note_on,,,,,0,0,1,,,0,,,85,44
21240,note_on,,,,,0,0,1,,,0,,,81,44
21240,control_change,,,,,0,0,1,,,0,64,95,,
21240,control_change,,,,,0,0,1,,,0,64,95,,
21240,note_on,,,,,0,0,1,,,0,,,78,44
21330,note_off,,,,,90,0,2,,,0,,,42,64
21360,note_on,,,,,30,0,2,,,0,,,61,37
21410,control_change,,,,,170,0,1,,,0,64,0,,
21410,control_change,,,,,0,0,1,,,0,64,0,,
21480,note_on,,,,,0,0,2,,,0,,,49,25
21480,note_off,,,,,120,0,2,,,0,,,61,64
21540,note_off,,,,,130,0,1,,,0,,,78,64
21540,note_off,,,,,0,0,1,,,0,,,85,64
21540,note_off,,,,,0,0,1,,,0,,,73,64
21540,note_off,,,,,0,0,1,,,0,,,81,64
21570,note_off,,,,,90,0,2,,,0,,,49,64
21570,note_on,,,,,30,0,1,,,0,,,81,39
21600,control_change,,,,,0,0,1,,,0,64,95,,
21600,note_off,,,,,30,0,1,,,0,,,81,64
21600,note_on,,,,,0,0,1,,,0,,,73,45
21600,note_on,,,,,0,0,1,,,0,,,85,45
21600,note_on,,,,,0,0,1,,,0,,,80,45
21600,control_change,,,,,0,0,1,,,0,64,95,,
21600,note_on,,,,,0,0,1,,,0,,,77,45
21600,note_on,,,,,30,0,2,,,0,,,37,43
21690,note_off,,,,,90,0,2,,,0,,,37,64
21720,note_on,,,,,0,0,1,,,0,,,80,41
21720,note_on,,,,,30,0,2,,,0,,,61,34
21720,note_off,,,,,120,0,1,,,0,,,80,64
21720,note_on,,,,,0,0,1,,,0,,,77,41
21720,note_off,,,,,0,0,1,,,0,,,85,64
21720,note_on,,,,,0,0,1,,,0,,,85,41
21720,note_on,,,,,0,0,1,,,0,,,73,41
21720,note_off,,,,,0,0,1,,,0,,,73,64
21720,note_off,,,,,0,0,1,,,0,,,77,64
21740,control_change,,,,,0,0,1,,,0,64,0,,
21740,control_change,,,,,20,0,1,,,0,64,0,,
21810,note_off,,,,,70,0,1,,,0,,,80,64
21810,note_on,,,,,0,0,1,,,0,,,81,34
21840,note_on,,,,,0,0,2,,,0,,,49,25
21840,note_off,,,,,120,0,2,,,0,,,61,64
21840,note_on,,,,,0,0,1,,,0,,,85,32
21840,note_on,,,,,0,0,1,,,0,,,77,32
21840,note_on,,,,,0,0,1,,,0,,,80,32
21840,note_off,,,,,0,0,1,,,0,,,85,64
21840,note_off,,,,,0,0,1,,,0,,,77,64
21840,note_off,,,,,30,0,1,,,0,,,81,64
21840,note_on,,,,,0,0,1,,,0,,,73,32
21840,note_off,,,,,0,0,1,,,0,,,73,64
21930,note_off,,,,,90,0,2,,,0,,,49,64
21960,note_on,,,,,30,0,2,,,0,,,42,33
21960,note_on,,,,,0,0,1,,,0,,,81,33
21960,note_off,,,,,120,0,1,,,0,,,73,64
21960,note_off,,,,,0,0,1,,,0,,,85,64
21960,note_off,,,,,0,0,1,,,0,,,77,64
21960,note_off,,,,,0,0,1,,,0,,,80,64
21960,note_on,,,,,0,0,1,,,0,,,73,33
21960,note_on,,,,,0,0,1,,,0,,,85,33
21960,note_on,,,,,0,0,1,,,0,,,78,33
21960,control_change,,,,,0,0,1,,,0,64,95,,
21960,control_change,,,,,0,0,1,,,0,64,95,,
22050,note_off,,,,,90,0,2,,,0,,,42,64
22080,note_on,,,,,30,0,2,,,0,,,61,28
22100,control_change,,,,,140,0,1,,,0,64,0,,
22100,control_change,,,,,0,0,1,,,0,64,0,,
22200,note_on,,,,,0,0,2,,,0,,,49,17
22200,note_off,,,,,120,0,2,,,0,,,61,64
22260,note_off,,,,,0,0,1,,,0,,,85,64
22260,note_off,,,,,160,0,1,,,0,,,81,64
22260,note_off,,,,,0,0,1,,,0,,,73,64
22260,note_off,,,,,0,0,1,,,0,,,78,64
22290,note_off,,,,,90,0,2,,,0,,,49,64
22290,note_on,,,,,30,0,1,,,0,,,81,28
22320,note_off,,,,,30,0,1,,,0,,,81,64
22320,control_change,,,,,0,0,1,,,0,64,95,,
22320,note_on,,,,,0,0,1,,,0,,,73,35
22320,note_on,,,,,30,0,2,,,0,,,37,33
22320,control_change,,,,,0,0,1,,,0,64,95,,
22320,note_on,,,,,0,0,1,,,0,,,80,35
22320,note_on,,,,,0,0,1,,,0,,,77,35
22410,note_off,,,,,90,0,2,,,0,,,37,64
22440,note_on,,,,,0,0,1,,,0,,,73,32
22440,note_on,,,,,0,0,1,,,0,,,77,32
22440,note_on,,,,,0,0,1,,,0,,,80,32
22440,note_on,,,,,30,0,2,,,0,,,61,27
22440,note_off,,,,,0,0,1,,,0,,,73,64
22440,note_off,,,,,0,0,1,,,0,,,77,64
22440,note_off,,,,,120,0,1,,,0,,,80,64
22460,control_change,,,,,0,0,1,,,0,64,0,,
22460,control_change,,,,,20,0,1,,,0,64,0,,
22530,note_on,,,,,0,0,1,,,0,,,81,29
22530,note_off,,,,,70,0,1,,,0,,,80,64
22540,set_tempo,,,,,1660,1,0,1500000,,,,,,
22560,note_off,,,,,30,0,1,,,0,,,81,64
22560,note_off,,,,,0,0,1,,,0,,,77,64
22560,note_off,,,,,0,0,1,,,0,,,73,64
22560,note_on,,,,,0,0,1,,,0,,,80,27
22560,note_on,,,,,0,0,1,,,0,,,77,27
22560,note_on,,,,,0,0,1,,,0,,,73,27
22560,note_on,,,,,0,0,2,,,0,,,49,17
22560,note_off,,,,,120,0,2,,,0,,,61,64
22650,note_off,,,,,90,0,2,,,0,,,49,64
22660,set_tempo,,,,,120,1,0,1578947,,,,,,
22680,control_change,,,,,0,0,1,,,0,64,95,,
22680,note_off,,,,,0,0,1,,,0,,,77,64
22680,control_change,,,,,0,0,1,,,0,64,95,,
22680,note_off,,,,,0,0,1,,,0,,,80,64
22680,note_on,,,,,0,0,1,,,0,,,73,24
22680,note_on,,,,,0,0,1,,,0,,,69,24
22680,note_on,,,,,0,0,1,,,0,,,78,24
22680,note_on,,,,,30,0,2,,,0,,,30,27
22680,note_off,,,,,120,0,1,,,0,,,73,64
22770,note_off,,,,,90,0,2,,,0,,,30,64
22780,set_tempo,,,,,120,1,0,1666667,,,,,,
22800,note_on,,,,,30,0,2,,,0,,,54,20
22820,control_change,,,,,0,0,1,,,0,64,0,,
22820,control_change,,,,,140,0,1,,,0,64,0,,
22860,set_tempo,,,,,80,1,0,1714286,,,,,,
22920,note_off,,,,,120,0,2,,,0,,,54,64
22920,note_on,,,,,0,0,2,,,0,,,42,16
22980,note_off,,,,,160,0,1,,,0,,,78,64
22980,note_off,,,,,0,0,1,,,0,,,69,64
22980,note_off,,,,,0,0,1,,,0,,,73,64
23010,note_off,,,,,90,0,2,,,0,,,42,64
23020,set_tempo,,,,,160,1,0,1500000,,,,,,
23040,note_on,,,,,60,0,1,,,0,,,66,25
23040,note_on,,,,,30,0,2,,,0,,,30,24
23040,note_on,,,,,0,0,1,,,0,,,62,25
23040,note_on,,,,,0,0,1,,,0,,,59,25
23040,control_change,,,,,0,0,1,,,0,64,95,,
23130,note_off,,,,,90,0,2,,,0,,,30,64
23160,note_on,,,,,30,0,2,,,0,,,54,20
23220,control_change,,,,,180,0,1,,,0,64,0,,
23280,note_on,,,,,0,0,2,,,0,,,42,19
23280,note_off,,,,,120,0,2,,,0,,,54,64
23370,note_off,,,,,90,0,2,,,0,,,42,64
23400,note_off,,,,,0,0,1,,,0,,,62,64
23400,note_off,,,,,0,0,1,,,0,,,66,64
23400,note_on,,,,,0,0,1,,,0,,,61,20
23400,control_change,,,,,0,0,1,,,0,64,95,,
23400,note_on,,,,,30,0,2,,,0,,,30,24
23400,note_off,,,,,180,0,1,,,0,,,59,64
23400,note_on,,,,,0,0,1,,,0,,,66,20
23400,note_on,,,,,0,0,1,,,0,,,57,20
23490,note_off,,,,,90,0,2,,,0,,,30,64
23520,note_on,,,,,30,0,2,,,0,,,54,19
23590,control_change,,,,,190,0,1,,,0,64,0,,
23640,note_on,,,,,0,0,2,,,0,,,42,15
23640,note_off,,,,,120,0,2,,,0,,,54,64
23730,note_off,,,,,90,0,2,,,0,,,42,64
23760,note_on,,,,,30,0,2,,,0,,,30,20
23760,note_off,,,,,0,0,1,,,0,,,61,64
23760,note_off,,,,,0,0,1,,,0,,,66,64
23760,note_on,,,,,0,0,1,,,0,,,66,17
23760,note_off,,,,,170,0,1,,,0,,,57,64
23760,note_on,,,,,0,0,1,,,0,,,56,17
23760,control_change,,,,,0,0,1,,,0,64,96,,
23760,note_on,,,,,0,0,1,,,0,,,59,17
23850,note_off,,,,,90,0,2,,,0,,,30,64
23880,note_on,,,,,30,0,2,,,0,,,54,18
23880,set_tempo,,,,,860,1,0,1578947,,,,,,
23930,control_change,,,,,170,0,1,,,0,64,0,,
24000,note_on,,,,,0,0,2,,,0,,,42,15
24000,note_off,,,,,120,0,2,,,0,,,54,64
24090,note_off,,,,,90,0,2,,,0,,,42,64
24120,note_on,,,,,0,0,1,,,0,,,66,19
24120,note_off,,,,,0,0,1,,,0,,,59,64
24120,note_on,,,,,0,0,1,,,0,,,57,19
24120,note_off,,,,,0,0,1,,,0,,,66,64
24120,note_on,,,,,30,0,2,,,0,,,30,27
24120,note_off,,,,,190,0,1,,,0,,,56,64
24120,note_on,,,,,0,0,1,,,0,,,54,19
24120,control_change,,,,,0,0,1,,,0,64,97,,
24140,set_tempo,,,,,260,1,0,1666667,,,,,,
24210,note_off,,,,,90,0,2,,,0,,,30,64
24240,set_tempo,,,,,100,1,0,1714286,,,,,,
24240,note_on,,,,,30,0,2,,,0,,,54,16
24320,set_tempo,,,,,80,1,0,1875000,,,,,,
24360,note_off,,,,,120,0,2,,,0,,,54,64
24360,note_on,,,,,0,0,2,,,0,,,42,13
24430,set_tempo,,,,,110,1,0,6000000,,,,,,
24450,note_off,,,,,90,0,2,,,0,,,42,64
24450,control_change,,,,,330,0,1,,,0,64,0,,
24480,note_off,,,,,30,0,1,,,0,,,54,64
24480,set_tempo,,,,,50,1,0,1333333,,,,,,
24480,marker,,,,,0,1,0,,,,,,,
24480,note_on,,,,,0,0,1,,,0,,,65,34
24480,note_off,,,,,0,0,1,,,0,,,66,64
24480,note_off,,,,,0,0,1,,,0,,,57,64
24500,set_tempo,,,,,20,1,0,1304348,,,,,,
24520,set_tempo,,,,,20,1,0,1276596,,,,,,
24540,note_off,,,,,60,0,1,,,0,,,65,64
24540,set_tempo,,,,,20,1,0,1224490,,,,,,
24540,note_on,,,,,0,0,1,,,0,,,66,39
24600,note_off,,,,,60,0,1,,,0,,,66,64
24600,note_on,,,,,0,0,1,,,0,,,73,44
24660,note_off,,,,,60,0,1,,,0,,,73,64
24660,set_tempo,,,,,120,1,0,1200000,,,,,,
24660,note_on,,,,,0,0,1,,,0,,,72,38
24720,note_off,,,,,60,0,1,,,0,,,72,64
24720,note_on,,,,,0,0,1,,,0,,,74,47
24780,note_on,,,,,0,0,1,,,0,,,73,38
24780,note_off,,,,,60,0,1,,,0,,,74,64
24800,set_tempo,,,,,140,1,0,1176471,,,,,,
24820,set_tempo,,,,,20,1,0,1153846,,,,,,
24840,note_off,,,,,60,0,1,,,0,,,73,64
24840,note_on,,,,,0,0,1,,,0,,,78,53
24860,set_tempo,,,,,40,1,0,1132075,,,,,,
24900,note_on,,,,,0,0,1,,,0,,,77,47
24900,note_off,,,,,60,0,1,,,0,,,78,64
24920,set_tempo,,,,,60,1,0,1111111,,,,,,
24960,note_off,,,,,60,0,1,,,0,,,77,64
24960,note_on,,,,,0,0,1,,,0,,,80,55
24980,set_tempo,,,,,60,1,0,1090909,,,,,,
25020,note_off,,,,,60,0,1,,,0,,,80,64
25020,note_on,,,,,0,0,1,,,0,,,78,52
25080,note_off,,,,,60,0,1,,,0,,,78,64
25080,note_on,,,,,0,0,1,,,0,,,83,49
25120,set_tempo,,,,,140,1,0,1071429,,,,,,
25140,note_on,,,,,0,0,1,,,0,,,81,46
25140,note_off,,,,,60,0,1,,,0,,,83,64
25200,note_on,,,,,0,0,1,,,0,,,86,46
25200,note_off,,,,,60,0,1,,,0,,,81,64
25220,set_tempo,,,,,100,1,0,1052632,,,,,,
25260,note_on,,,,,0,0,1,,,0,,,85,49
25260,note_off,,,,,60,0,1,,,0,,,86,64
25312,note_off,,,,,52,0,1,,,0,,,85,64
25320,note_on,,,,,8,0,1,,,0,,,83,50
25340,set_tempo,,,,,120,1,0,1034483,,,,,,
25360,set_tempo,,,,,20,1,0,1016949,,,,,,
25364,note_off,,,,,44,0,1,,,0,,,83,64
25380,note_on,,,,,16,0,1,,,0,,,81,51
25424,note_off,,,,,44,0,1,,,0,,,81,64
25440,note_on,,,,,16,0,1,,,0,,,80,51
25484,note_off,,,,,44,0,1,,,0,,,80,64
25500,note_on,,,,,16,0,1,,,0,,,78,52
25540,set_tempo,,,,,180,1,0,1000000,,,,,,
25544,note_off,,,,,44,0,1,,,0,,,78,64
25560,note_on,,,,,16,0,1,,,0,,,76,53
25604,note_off,,,,,44,0,1,,,0,,,76,64
25620,note_on,,,,,16,0,1,,,0,,,74,54
25664,note_off,,,,,44,0,1,,,0,,,74,64
25680,note_on,,,,,16,0,1,,,0,,,73,56
25724,note_off,,,,,44,0,1,,,0,,,73,64
25740,note_on,,,,,16,0,1,,,0,,,71,58
25780,set_tempo,,,,,240,1,0,983607,,,,,,
25784,note_off,,,,,44,0,1,,,0,,,71,64
25800,note_on,,,,,16,0,1,,,0,,,69,60
25838,note_off,,,,,38,0,1,,,0,,,69,64
25840,note_on,,,,,2,0,1,,,0,,,68,61
25878,note_off,,,,,38,0,1,,,0,,,68,64
25880,note_on,,,,,2,0,1,,,0,,,66,63
25918,note_off,,,,,38,0,1,,,0,,,66,64
25920,note_on,,,,,2,0,1,,,0,,,65,67
25920,control_change,,,,,0,0,1,,,0,64,95,,
25920,note_on,,,,,0,0,2,,,0,,,59,59
25920,set_tempo,,,,,140,1,0,1250000,,,,,,
25920,note_on,,,,,0,0,2,,,0,,,56,59
25920,note_on,,,,,1470,0,2,,,0,,,62,59
25958,note_off,,,,,38,0,1,,,0,,,65,64
25960,note_on,,,,,2,0,1,,,0,,,64,59
25980,set_tempo,,,,,60,1,0,952381,,,,,,
25998,note_off,,,,,38,0,1,,,0,,,64,64
26000,note_on,,,,,2,0,1,,,0,,,65,61
26020,set_tempo,,,,,40,1,0,937500,,,,,,
26038,note_off,,,,,38,0,1,,,0,,,65,64
26040,note_on,,,,,2,0,1,,,0,,,71,70
26078,note_off,,,,,38,0,1,,,0,,,71,64
26080,note_on,,,,,2,0,1,,,0,,,70,66
26100,set_tempo,,,,,80,1,0,923077,,,,,,
26118,note_off,,,,,38,0,1,,,0,,,70,64
26120,note_on,,,,,2,0,1,,,0,,,71,67
26158,note_off,,,,,38,0,1,,,0,,,71,64
26160,note_on,,,,,2,0,1,,,0,,,74,77
26180,set_tempo,,,,,80,1,0,909091,,,,,,
26198,note_off,,,,,38,0,1,,,0,,,74,64
26200,note_on,,,,,2,0,1,,,0,,,73,69
26238,note_off,,,,,38,0,1,,,0,,,73,64
26240,note_on,,,,,2,0,1,,,0,,,74,69
26260,set_tempo,,,,,80,1,0,895522,,,,,,
26278,note_off,,,,,38,0,1,,,0,,,74,64
26280,note_on,,,,,2,0,1,,,0,,,77,82
26318,note_off,,,,,38,0,1,,,0,,,77,64
26320,note_on,,,,,2,0,1,,,0,,,76,72
26340,set_tempo,,,,,80,1,0,882353,,,,,,
26358,note_off,,,,,38,0,1,,,0,,,76,64
26360,note_on,,,,,2,0,1,,,0,,,77,75
26380,set_tempo,,,,,40,1,0,869565,,,,,,
26398,note_off,,,,,38,0,1,,,0,,,77,64
26400,note_on,,,,,2,0,1,,,0,,,83,83
26438,note_off,,,,,38,0,1,,,0,,,83,64
26440,note_on,,,,,2,0,1,,,0,,,82,77
26478,note_off,,,,,38,0,1,,,0,,,82,64
26480,note_on,,,,,2,0,1,,,0,,,83,79
26480,set_tempo,,,,,100,1,0,857143,,,,,,
26518,note_off,,,,,38,0,1,,,0,,,83,64
26520,note_on,,,,,2,0,1,,,0,,,86,89
26558,note_off,,,,,38,0,1,,,0,,,86,64
26560,note_on,,,,,2,0,1,,,0,,,85,81
26598,note_off,,,,,38,0,1,,,0,,,85,64
26600,note_on,,,,,2,0,1,,,0,,,86,82
26630,control_change,,,,,30,0,1,,,0,64,0,,
26638,note_off,,,,,8,0,1,,,0,,,86,64
26640,note_on,,,,,2,0,1,,,0,,,89,94
26640,note_off,,,,,720,0,2,,,0,,,56,64
26640,note_on,,,,,0,0,2,,,0,,,55,50
26640,set_tempo,,,,,160,1,0,1016949,,,,,,
26670,note_off,,,,,30,0,1,,,0,,,89,64
26670,note_on,,,,,0,0,1,,,0,,,91,84
26680,set_tempo,,,,,40,1,0,882353,,,,,,
26700,note_on,,,,,0,0,1,,,0,,,89,87
26700,note_off,,,,,30,0,1,,,0,,,91,64
26730,note_on,,,,,0,0,1,,,0,,,88,93
26730,note_off,,,,,30,0,1,,,0,,,89,64
26760,note_on,,,,,0,0,1,,,0,,,86,98
26760,note_off,,,,,30,0,1,,,0,,,88,64
26790,note_off,,,,,30,0,1,,,0,,,86,64
26790,note_on,,,,,0,0,1,,,0,,,84,94
26820,note_off,,,,,30,0,1,,,0,,,84,64
26820,note_on,,,,,0,0,1,,,0,,,83,90
26850,note_on,,,,,0,0,1,,,0,,,81,88
26850,note_off,,,,,30,0,1,,,0,,,83,64
26880,note_on,,,,,0,0,1,,,0,,,79,84
26880,note_off,,,,,30,0,1,,,0,,,81,64
26880,set_tempo,,,,,200,1,0,895522,,,,,,
26880,note_off,,,,,240,0,2,,,0,,,55,64
26880,note_off,,,,,0,0,2,,,0,,,59,64
26880,note_off,,,,,0,0,2,,,0,,,62,64
26910,note_on,,,,,0,0,1,,,0,,,78,82
26910,note_off,,,,,30,0,1,,,0,,,79,64
26940,note_off,,,,,30,0,1,,,0,,,78,64
26940,note_on,,,,,0,0,1,,,0,,,77,79
26970,note_on,,,,,0,0,1,,,0,,,76,74
26970,note_off,,,,,30,0,1,,,0,,,77,64
27000,note_off,,,,,30,0,1,,,0,,,76,64
27000,note_on,,,,,0,0,1,,,0,,,74,71
27030,note_off,,,,,30,0,1,,,0,,,74,64
27030,note_on,,,,,0,0,1,,,0,,,76,69
27060,note_off,,,,,30,0,1,,,0,,,76,64
27060,note_on,,,,,0,0,1,,,0,,,77,66
27090,note_off,,,,,30,0,1,,,0,,,77,64
27090,note_on,,,,,0,0,1,,,0,,,76,63
27100,set_tempo,,,,,220,1,0,909091,,,,,,
27120,note_on,,,,,0,0,1,,,0,,,74,59
27120,note_off,,,,,30,0,1,,,0,,,76,64
27150,note_on,,,,,0,0,1,,,0,,,72,56
27150,note_off,,,,,30,0,1,,,0,,,74,64
27180,note_off,,,,,30,0,1,,,0,,,72,64
27180,note_on,,,,,0,0,1,,,0,,,71,54
27180,set_tempo,,,,,80,1,0,923077,,,,,,
27210,note_off,,,,,30,0,1,,,0,,,71,64
27210,note_on,,,,,0,0,1,,,0,,,69,54
27240,note_on,,,,,0,0,1,,,0,,,67,51
27240,note_off,,,,,30,0,1,,,0,,,69,64
27260,set_tempo,,,,,80,1,0,937500,,,,,,
27270,note_on,,,,,0,0,1,,,0,,,65,48
27270,note_off,,,,,30,0,1,,,0,,,67,64
27300,note_off,,,,,30,0,1,,,0,,,65,64
27300,note_on,,,,,0,0,1,,,0,,,64,47
27330,note_on,,,,,0,0,1,,,0,,,62,44
27330,note_off,,,,,30,0,1,,,0,,,64,64
27340,set_tempo,,,,,80,1,0,952381,,,,,,
27360,set_tempo,,,,,20,1,0,1200000,,,,,,
27360,note_on,,,,,480,0,2,,,0,,,55,50
27360,note_on,,,,,0,0,2,,,0,,,43,50
27360,note_off,,,,,30,0,1,,,0,,,62,64
27360,note_on,,,,,0,0,1,,,0,,,61,64
27360,control_change,,,,,0,0,1,,,0,64,96,,
27390,note_off,,,,,30,0,1,,,0,,,61,64
27390,note_on,,,,,0,0,1,,,0,,,70,50
27420,note_on,,,,,0,0,1,,,0,,,64,49
27420,note_off,,,,,30,0,1,,,0,,,70,64
27420,set_tempo,,,,,60,1,0,967742,,,,,,
27450,note_off,,,,,30,0,1,,,0,,,64,64
27450,note_on,,,,,0,0,1,,,0,,,61,47
27474,note_off,,,,,24,0,1,,,0,,,61,64
27480,note_on,,,,,6,0,1,,,0,,,61,63
27500,set_tempo,,,,,80,1,0,983607,,,,,,
27510,note_off,,,,,30,0,1,,,0,,,61,64
27510,note_on,,,,,0,0,1,,,0,,,70,52
27540,note_on,,,,,0,0,1,,,0,,,64,51
27540,note_off,,,,,30,0,1,,,0,,,70,64
27570,note_off,,,,,30,0,1,,,0,,,64,64
27570,note_on,,,,,0,0,1,,,0,,,61,54
27600,note_off,,,,,30,0,1,,,0,,,61,64
27600,note_on,,,,,0,0,1,,,0,,,64,57
27600,set_tempo,,,,,100,1,0,967742,,,,,,
27620,set_tempo,,,,,20,1,0,952381,,,,,,
27630,note_on,,,,,0,0,1,,,0,,,67,59
27630,note_off,,,,,30,0,1,,,0,,,64,64
27660,note_on,,,,,0,0,1,,,0,,,70,62
27660,note_off,,,,,30,0,1,,,0,,,67,64
27690,note_off,,,,,30,0,1,,,0,,,70,64
27690,note_on,,,,,0,0,1,,,0,,,73,66
27700,set_tempo,,,,,80,1,0,937500,,,,,,
27720,note_on,,,,,0,0,1,,,0,,,76,68
27720,note_off,,,,,30,0,1,,,0,,,73,64
27750,note_on,,,,,0,0,1,,,0,,,79,71
27750,note_off,,,,,30,0,1,,,0,,,76,64
27780,note_off,,,,,30,0,1,,,0,,,79,64
27780,note_on,,,,,0,0,1,,,0,,,82,74
27810,note_off,,,,,30,0,1,,,0,,,82,64
27810,note_on,,,,,0,0,1,,,0,,,85,77
27840,note_off,,,,,30,0,1,,,0,,,85,64
27840,note_on,,,,,0,0,1,,,0,,,82,80
27870,note_off,,,,,30,0,1,,,0,,,82,64
27870,note_on,,,,,0,0,1,,,0,,,79,70
27900,note_off,,,,,30,0,1,,,0,,,79,64
27900,note_on,,,,,0,0,1,,,0,,,76,64
27930,note_off,,,,,30,0,1,,,0,,,76,64
27930,note_on,,,,,0,0,1,,,0,,,73,59
27960,note_off,,,,,30,0,1,,,0,,,73,64
27960,note_on,,,,,0,0,1,,,0,,,70,56
27990,note_on,,,,,0,0,1,,,0,,,67,52
27990,note_off,,,,,30,0,1,,,0,,,70,64
28020,note_off,,,,,30,0,1,,,0,,,67,64
28020,note_on,,,,,0,0,1,,,0,,,64,47
28050,note_on,,,,,0,0,1,,,0,,,61,41
28050,note_off,,,,,30,0,1,,,0,,,64,64
28070,control_change,,,,,20,0,1,,,0,64,0,,
28080,note_off,,,,,720,0,2,,,0,,,43,64
28080,note_off,,,,,0,0,2,,,0,,,55,64
28080,note_on,,,,,0,0,2,,,0,,,43,50
28080,note_off,,,,,10,0,1,,,0,,,61,64
28080,note_on,,,,,0,0,1,,,0,,,60,64
28080,control_change,,,,,0,0,1,,,0,64,96,,
28080,note_on,,,,,0,0,2,,,0,,,54,50
28080,set_tempo,,,,,380,1,0,1200000,,,,,,
28110,note_off,,,,,30,0,1,,,0,,,60,64
28110,note_on,,,,,0,0,1,,,0,,,69,50
28140,set_tempo,,,,,60,1,0,967742,,,,,,
28140,note_off,,,,,30,0,1,,,0,,,69,64
28140,note_on,,,,,0,0,1,,,0,,,63,49
28170,note_off,,,,,30,0,1,,,0,,,63,64
28170,note_on,,,,,0,0,1,,,0,,,60,47
28194,note_off,,,,,24,0,1,,,0,,,60,64
28200,note_on,,,,,6,0,1,,,0,,,60,63
28220,set_tempo,,,,,80,1,0,983607,,,,,,
28230,note_off,,,,,30,0,1,,,0,,,60,64
28230,note_on,,,,,0,0,1,,,0,,,69,52
28260,note_off,,,,,30,0,1,,,0,,,69,64
28260,note_on,,,,,0,0,1,,,0,,,63,51
28290,note_on,,,,,0,0,1,,,0,,,60,54
28290,note_off,,,,,30,0,1,,,0,,,63,64
28320,set_tempo,,,,,100,1,0,967742,,,,,,
28320,note_off,,,,,30,0,1,,,0,,,60,64
28320,note_on,,,,,0,0,1,,,0,,,63,57
28340,set_tempo,,,,,20,1,0,952381,,,,,,
28350,note_off,,,,,30,0,1,,,0,,,63,64
28350,note_on,,,,,0,0,1,,,0,,,66,59
28380,note_off,,,,,30,0,1,,,0,,,66,64
28380,note_on,,,,,0,0,1,,,0,,,69,62
28410,note_off,,,,,30,0,1,,,0,,,69,64
28410,note_on,,,,,0,0,1,,,0,,,72,66
28420,set_tempo,,,,,80,1,0,937500,,,,,,
28440,note_off,,,,,30,0,1,,,0,,,72,64
28440,note_on,,,,,0,0,1,,,0,,,75,68
28470,note_off,,,,,30,0,1,,,0,,,75,64
28470,note_on,,,,,0,0,1,,,0,,,78,71
28500,note_on,,,,,0,0,1,,,0,,,81,74
28500,note_off,,,,,30,0,1,,,0,,,78,64
28530,note_on,,,,,0,0,1,,,0,,,84,77
28530,note_off,,,,,30,0,1,,,0,,,81,64
28560,note_on,,,,,0,0,1,,,0,,,81,80
28560,note_off,,,,,30,0,1,,,0,,,84,64
28590,note_off,,,,,30,0,1,,,0,,,81,64
28590,note_on,,,,,0,0,1,,,0,,,78,70
28620,note_off,,,,,30,0,1,,,0,,,78,64
28620,note_on,,,,,0,0,1,,,0,,,75,64
28650,note_on,,,,,0,0,1,,,0,,,72,59
28650,note_off,,,,,30,0,1,,,0,,,75,64
28680,note_off,,,,,30,0,1,,,0,,,72,64
28680,note_on,,,,,0,0,1,,,0,,,69,56
28710,note_off,,,,,30,0,1,,,0,,,69,64
28710,note_on,,,,,0,0,1,,,0,,,66,52
28740,note_off,,,,,30,0,1,,,0,,,66,64
28740,note_on,,,,,0,0,1,,,0,,,63,47
28770,note_off,,,,,30,0,1,,,0,,,63,64
28770,note_on,,,,,0,0,1,,,0,,,60,41
28790,control_change,,,,,20,0,1,,,0,64,0,,
28800,note_off,,,,,10,0,1,,,0,,,60,64
28800,note_on,,,,,0,0,2,,,0,,,53,50
28800,note_off,,,,,0,0,2,,,0,,,54,64
28800,note_off,,,,,720,0,2,,,0,,,43,64
28800,set_tempo,,,,,380,1,0,1200000,,,,,,
28800,note_on,,,,,0,0,2,,,0,,,43,50
28800,note_on,,,,,0,0,1,,,0,,,59,64
28800,control_change,,,,,0,0,1,,,0,64,96,,
28830,note_off,,,,,30,0,1,,,0,,,59,64
28830,note_on,,,,,0,0,1,,,0,,,68,50
28860,note_off,,,,,30,0,1,,,0,,,68,64
28860,note_on,,,,,0,0,1,,,0,,,62,49
28860,set_tempo,,,,,60,1,0,967742,,,,,,
28890,note_off,,,,,30,0,1,,,0,,,62,64
28890,note_on,,,,,0,0,1,,,0,,,59,47
28914,note_off,,,,,24,0,1,,,0,,,59,64
28920,note_on,,,,,6,0,1,,,0,,,59,63
28940,set_tempo,,,,,80,1,0,983607,,,,,,
28950,note_off,,,,,30,0,1,,,0,,,59,64
28950,note_on,,,,,0,0,1,,,0,,,68,52
28980,note_off,,,,,30,0,1,,,0,,,68,64
28980,note_on,,,,,0,0,1,,,0,,,62,51
29010,note_off,,,,,30,0,1,,,0,,,62,64
29010,note_on,,,,,0,0,1,,,0,,,59,54
29040,note_on,,,,,0,0,1,,,0,,,62,57
29040,note_off,,,,,30,0,1,,,0,,,59,64
29040,set_tempo,,,,,100,1,0,967742,,,,,,
29060,set_tempo,,,,,20,1,0,952381,,,,,,
29070,note_on,,,,,0,0,1,,,0,,,65,59
29070,note_off,,,,,30,0,1,,,0,,,62,64
29100,note_on,,,,,0,0,1,,,0,,,68,62
29100,note_off,,,,,30,0,1,,,0,,,65,64
29130,note_on,,,,,0,0,1,,,0,,,71,66
29130,note_off,,,,,30,0,1,,,0,,,68,64
29140,set_tempo,,,,,80,1,0,937500,,,,,,
29160,note_on,,,,,0,0,1,,,0,,,74,68
29160,note_off,,,,,30,0,1,,,0,,,71,64
29190,note_off,,,,,30,0,1,,,0,,,74,64
29190,note_on,,,,,0,0,1,,,0,,,77,71
29220,note_off,,,,,30,0,1,,,0,,,77,64
29220,note_on,,,,,0,0,1,,,0,,,80,74
29250,note_off,,,,,30,0,1,,,0,,,80,64
29250,note_on,,,,,0,0,1,,,0,,,83,77
29280,note_off,,,,,30,0,1,,,0,,,83,64
29280,note_on,,,,,0,0,1,,,0,,,80,80
29310,note_off,,,,,30,0,1,,,0,,,80,64
29310,note_on,,,,,0,0,1,,,0,,,77,70
29340,note_off,,,,,30,0,1,,,0,,,77,64
29340,note_on,,,,,0,0,1,,,0,,,74,64
29370,note_off,,,,,30,0,1,,,0,,,74,64
29370,note_on,,,,,0,0,1,,,0,,,71,59
29400,note_off,,,,,30,0,1,,,0,,,71,64
29400,note_on,,,,,0,0,1,,,0,,,68,56
29430,note_off,,,,,30,0,1,,,0,,,68,64
29430,note_on,,,,,0,0,1,,,0,,,65,52
29460,note_off,,,,,30,0,1,,,0,,,65,64
29460,note_on,,,,,0,0,1,,,0,,,62,47
29490,note_off,,,,,30,0,1,,,0,,,62,64
29490,note_on,,,,,0,0,1,,,0,,,59,41
29510,control_change,,,,,20,0,1,,,0,64,0,,
29520,set_tempo,,,,,380,1,0,1200000,,,,,,
29520,note_off,,,,,720,0,2,,,0,,,43,64
29520,note_on,,,,,0,0,2,,,0,,,53,50
29520,note_on,,,,,0,0,2,,,0,,,43,50
29520,note_off,,,,,0,0,2,,,0,,,53,64
29520,control_change,,,,,0,0,1,,,0,64,96,,
29520,note_on,,,,,0,0,1,,,0,,,59,64
29520,note_off,,,,,10,0,1,,,0,,,59,64
29550,note_on,,,,,0,0,1,,,0,,,67,50
29550,note_off,,,,,30,0,1,,,0,,,59,64
29580,set_tempo,,,,,60,1,0,967742,,,,,,
29580,note_on,,,,,0,0,1,,,0,,,62,49
29580,note_off,,,,,30,0,1,,,0,,,67,64
29600,set_tempo,,,,,20,1,0,1000000,,,,,,
29610,note_off,,,,,30,0,1,,,0,,,62,64
29610,note_on,,,,,0,0,1,,,0,,,59,47
29634,note_off,,,,,24,0,1,,,0,,,59,64
29640,note_on,,,,,6,0,1,,,0,,,59,63
29660,set_tempo,,,,,60,1,0,1016949,,,,,,
29670,note_off,,,,,30,0,1,,,0,,,59,64
29670,note_on,,,,,0,0,1,,,0,,,67,52
29680,set_tempo,,,,,20,1,0,1071429,,,,,,
29700,note_off,,,,,30,0,1,,,0,,,67,64
29700,set_tempo,,,,,20,1,0,1090909,,,,,,
29700,note_on,,,,,0,0,1,,,0,,,62,51
29730,note_off,,,,,30,0,1,,,0,,,62,64
29730,note_on,,,,,0,0,1,,,0,,,59,54
29740,set_tempo,,,,,40,1,0,1111111,,,,,,
29760,set_tempo,,,,,20,1,0,1176471,,,,,,
29760,note_off,,,,,30,0,1,,,0,,,59,64
29760,note_on,,,,,0,0,1,,,0,,,62,57
29780,set_tempo,,,,,20,1,0,1200000,,,,,,
29790,note_off,,,,,30,0,1,,,0,,,62,64
29790,note_on,,,,,0,0,1,,,0,,,65,59
29820,note_off,,,,,30,0,1,,,0,,,65,64
29820,note_on,,,,,0,0,1,,,0,,,67,62
29820,set_tempo,,,,,40,1,0,1250000,,,,,,
29840,set_tempo,,,,,20,1,0,1304348,,,,,,
29850,note_off,,,,,30,0,1,,,0,,,67,64
29850,note_on,,,,,0,0,1,,,0,,,71,66
29860,set_tempo,,,,,20,1,0,1333333,,,,,,
29880,note_off,,,,,30,0,1,,,0,,,71,64
29880,note_on,,,,,0,0,1,,,0,,,74,68
29890,set_tempo,,,,,30,1,0,1304348,,,,,,
29910,note_off,,,,,30,0,1,,,0,,,74,64
29910,note_on,,,,,0,0,1,,,0,,,77,71
29940,note_off,,,,,30,0,1,,,0,,,77,64
29940,note_on,,,,,0,0,1,,,0,,,79,74
29970,note_off,,,,,30,0,1,,,0,,,79,64
29970,note_on,,,,,0,0,1,,,0,,,83,77
30000,note_off,,,,,30,0,1,,,0,,,83,64
30000,note_on,,,,,0,0,1,,,0,,,79,80
30020,set_tempo,,,,,130,1,0,1276596,,,,,,
30030,note_off,,,,,30,0,1,,,0,,,79,64
30030,note_on,,,,,0,0,1,,,0,,,77,70
30060,note_off,,,,,30,0,1,,,0,,,77,64
30060,note_on,,,,,0,0,1,,,0,,,74,64
30090,note_off,,,,,30,0,1,,,0,,,74,64
30090,note_on,,,,,0,0,1,,,0,,,71,59
30100,set_tempo,,,,,80,1,0,1250000,,,,,,
30120,note_off,,,,,30,0,1,,,0,,,71,64
30120,note_on,,,,,0,0,1,,,0,,,67,56
30120,set_tempo,,,,,20,1,0,1224490,,,,,,
30150,note_off,,,,,30,0,1,,,0,,,67,64
30150,note_on,,,,,0,0,1,,,0,,,65,52
30160,set_tempo,,,,,40,1,0,1200000,,,,,,
30180,note_off,,,,,30,0,1,,,0,,,65,64
30180,note_on,,,,,0,0,1,,,0,,,62,47
30210,note_off,,,,,30,0,1,,,0,,,62,64
30210,note_on,,,,,0,0,1,,,0,,,59,41
30210,set_tempo,,,,,50,1,0,1176471,,,,,,
30220,set_tempo,,,,,10,1,0,1153846,,,,,,
30230,control_change,,,,,20,0,1,,,0,64,0,,
30240,note_on,,,,,0,0,2,,,0,,,51,56
30240,note_off,,,,,720,0,2,,,0,,,43,64
30240,note_on,,,,,0,0,2,,,0,,,43,56
30240,note_off,,,,,0,0,2,,,0,,,53,64
30240,note_on,,,,,0,0,2,,,0,,,36,56
30240,set_tempo,,,,,20,1,0,1132075,,,,,,
30240,note_off,,,,,10,0,1,,,0,,,59,64
30240,note_on,,,,,0,0,1,,,0,,,60,69
30240,control_change,,,,,0,0,1,,,0,64,96,,
30250,set_tempo,,,,,10,1,0,1111111,,,,,,
30270,set_tempo,,,,,20,1,0,1090909,,,,,,
30290,set_tempo,,,,,20,1,0,1071429,,,,,,
30300,note_off,,,,,60,0,1,,,0,,,60,64
30300,note_on,,,,,0,0,1,,,0,,,72,49
30320,set_tempo,,,,,30,1,0,1052632,,,,,,
30352,note_off,,,,,52,0,1,,,0,,,72,64
30360,note_on,,,,,8,0,1,,,0,,,67,56
30404,note_off,,,,,44,0,1,,,0,,,67,64
30420,note_on,,,,,16,0,1,,,0,,,65,41
30464,note_off,,,,,44,0,1,,,0,,,65,64
30480,note_on,,,,,16,0,1,,,0,,,63,43
30524,note_off,,,,,44,0,1,,,0,,,63,64
30540,note_on,,,,,16,0,1,,,0,,,62,47
30580,control_change,,,,,40,0,1,,,0,64,0,,
30584,note_off,,,,,4,0,1,,,0,,,62,64
30600,note_on,,,,,16,0,1,,,0,,,60,54
30600,control_change,,,,,0,0,1,,,0,64,96,,
30640,set_tempo,,,,,320,1,0,1034483,,,,,,
30644,note_off,,,,,44,0,1,,,0,,,60,64
30660,note_on,,,,,16,0,1,,,0,,,63,38
30704,note_off,,,,,44,0,1,,,0,,,63,64
30720,note_on,,,,,16,0,1,,,0,,,67,41
30720,set_tempo,,,,,80,1,0,1071429,,,,,,
30764,note_off,,,,,44,0,1,,,0,,,67,64
30780,note_on,,,,,16,0,1,,,0,,,72,43
30780,set_tempo,,,,,60,1,0,1111111,,,,,,
30800,set_tempo,,,,,20,1,0,1132075,,,,,,
30824,note_off,,,,,44,0,1,,,0,,,72,64
30840,note_off,,,,,600,0,2,,,0,,,36,64
30840,set_tempo,,,,,40,1,0,1200000,,,,,,
30840,note_off,,,,,0,0,2,,,0,,,51,64
30840,note_off,,,,,0,0,2,,,0,,,43,64
30840,note_on,,,,,16,0,1,,,0,,,75,48
30884,note_off,,,,,44,0,1,,,0,,,75,64
30900,note_on,,,,,16,0,1,,,0,,,77,51
30944,note_off,,,,,44,0,1,,,0,,,77,64
30950,control_change,,,,,6,0,1,,,0,64,0,,
30960,control_change,,,,,0,0,1,,,0,64,96,,
30960,note_on,,,,,120,0,2,,,0,,,48,47
30960,note_on,,,,,10,0,1,,,0,,,80,48
30978,note_off,,,,,18,0,1,,,0,,,80,64
30980,note_on,,,,,2,0,1,,,0,,,79,37
30998,note_off,,,,,18,0,1,,,0,,,79,64
31000,note_on,,,,,2,0,1,,,0,,,80,36
31018,note_off,,,,,18,0,1,,,0,,,80,64
31020,note_on,,,,,0,0,2,,,0,,,60,38
31020,note_off,,,,,60,0,2,,,0,,,48,64
31020,note_on,,,,,2,0,1,,,0,,,79,38
31038,note_off,,,,,18,0,1,,,0,,,79,64
31040,note_on,,,,,2,0,1,,,0,,,80,39
31058,note_off,,,,,18,0,1,,,0,,,80,64
31060,note_on,,,,,2,0,1,,,0,,,79,40
31072,note_off,,,,,52,0,2,,,0,,,60,64
31078,note_off,,,,,18,0,1,,,0,,,79,64
31080,note_on,,,,,2,0,1,,,0,,,80,42
31080,set_tempo,,,,,240,1,0,1132075,,,,,,
31080,note_on,,,,,8,0,2,,,0,,,55,53
31098,note_off,,,,,18,0,1,,,0,,,80,64
31100,note_on,,,,,2,0,1,,,0,,,79,42
31118,note_off,,,,,18,0,1,,,0,,,79,64
31120,note_on,,,,,2,0,1,,,0,,,80,44
31124,note_off,,,,,44,0,2,,,0,,,55,64
31138,note_off,,,,,18,0,1,,,0,,,80,64
31140,note_on,,,,,2,0,1,,,0,,,79,45
31140,note_on,,,,,16,0,2,,,0,,,53,45
31158,note_off,,,,,18,0,1,,,0,,,79,64
31160,note_on,,,,,2,0,1,,,0,,,80,46
31178,note_off,,,,,18,0,1,,,0,,,80,64
31180,note_on,,,,,2,0,1,,,0,,,79,46
31180,set_tempo,,,,,100,1,0,1111111,,,,,,
31184,note_off,,,,,44,0,2,,,0,,,53,64
31198,note_off,,,,,18,0,1,,,0,,,79,64
31200,note_on,,,,,2,0,1,,,0,,,80,48
31200,note_on,,,,,16,0,2,,,0,,,51,62
31218,note_off,,,,,18,0,1,,,0,,,80,64
31220,note_on,,,,,2,0,1,,,0,,,79,48
31220,set_tempo,,,,,40,1,0,1090909,,,,,,
31238,note_off,,,,,18,0,1,,,0,,,79,64
31240,note_on,,,,,2,0,1,,,0,,,80,50
31244,note_off,,,,,44,0,2,,,0,,,51,64
31258,note_off,,,,,18,0,1,,,0,,,80,64
31260,note_on,,,,,2,0,1,,,0,,,79,51
31260,note_on,,,,,16,0,2,,,0,,,50,56
31278,note_off,,,,,18,0,1,,,0,,,79,64
31280,note_on,,,,,2,0,1,,,0,,,80,53
31298,note_off,,,,,18,0,1,,,0,,,80,64
31300,note_on,,,,,2,0,1,,,0,,,79,54
31304,note_off,,,,,44,0,2,,,0,,,50,64
31310,control_change,,,,,10,0,1,,,0,64,0,,
31318,note_off,,,,,8,0,1,,,0,,,79,64
31320,control_change,,,,,0,0,1,,,0,64,96,,
31320,note_on,,,,,16,0,2,,,0,,,48,64
31320,set_tempo,,,,,100,1,0,1071429,,,,,,
31320,note_on,,,,,2,0,1,,,0,,,80,56
31338,note_off,,,,,18,0,1,,,0,,,80,64
31340,note_on,,,,,2,0,1,,,0,,,79,57
31358,note_off,,,,,18,0,1,,,0,,,79,64
31360,note_on,,,,,2,0,1,,,0,,,80,58
31364,note_off,,,,,44,0,2,,,0,,,48,64
31378,note_off,,,,,18,0,1,,,0,,,80,64
31380,note_on,,,,,2,0,1,,,0,,,79,58
31380,note_on,,,,,16,0,2,,,0,,,51,68
31398,note_off,,,,,18,0,1,,,0,,,79,64
31400,note_on,,,,,2,0,1,,,0,,,80,58
31418,note_off,,,,,18,0,1,,,0,,,80,64
31420,note_on,,,,,2,0,1,,,0,,,79,60
31424,note_off,,,,,44,0,2,,,0,,,51,64
31438,note_off,,,,,18,0,1,,,0,,,79,64
31440,note_on,,,,,16,0,2,,,0,,,55,71
31440,note_on,,,,,2,0,1,,,0,,,80,61
31458,note_off,,,,,18,0,1,,,0,,,80,64
31460,note_on,,,,,2,0,1,,,0,,,79,62
31478,note_off,,,,,18,0,1,,,0,,,79,64
31480,note_on,,,,,2,0,1,,,0,,,80,62
31480,set_tempo,,,,,160,1,0,1052632,,,,,,
31484,note_off,,,,,44,0,2,,,0,,,55,64
31498,note_off,,,,,18,0,1,,,0,,,80,64
31500,note_on,,,,,16,0,2,,,0,,,60,74
31500,note_on,,,,,2,0,1,,,0,,,79,65
31518,note_off,,,,,18,0,1,,,0,,,79,64
31520,note_on,,,,,2,0,1,,,0,,,80,66
31538,note_off,,,,,18,0,1,,,0,,,80,64
31540,set_tempo,,,,,60,1,0,1034483,,,,,,
31540,note_on,,,,,2,0,1,,,0,,,79,69
31544,note_off,,,,,44,0,2,,,0,,,60,64
31558,note_off,,,,,18,0,1,,,0,,,79,64
31560,note_on,,,,,16,0,2,,,0,,,63,78
31560,note_on,,,,,2,0,1,,,0,,,80,71
31578,note_off,,,,,18,0,1,,,0,,,80,64
31580,note_on,,,,,2,0,1,,,0,,,79,72
31598,note_off,,,,,18,0,1,,,0,,,79,64
31600,set_tempo,,,,,60,1,0,1016949,,,,,,
31600,note_on,,,,,2,0,1,,,0,,,80,73
31604,note_off,,,,,44,0,2,,,0,,,63,64
31618,note_off,,,,,18,0,1,,,0,,,80,64
31620,note_on,,,,,16,0,2,,,0,,,65,81
31620,note_on,,,,,2,0,1,,,0,,,79,75
31638,note_off,,,,,18,0,1,,,0,,,79,64
31640,note_on,,,,,2,0,1,,,0,,,80,76
31658,note_off,,,,,18,0,1,,,0,,,80,64
31660,note_on,,,,,2,0,1,,,0,,,79,76
31664,note_off,,,,,44,0,2,,,0,,,65,64
31670,control_change,,,,,10,0,1,,,0,64,0,,
31678,note_off,,,,,8,0,1,,,0,,,79,64
31680,note_on,,,,,16,0,2,,,0,,,68,84
31680,note_on,,,,,2,0,1,,,0,,,80,78
31690,control_change,,,,,10,0,1,,,0,64,96,,
31698,note_off,,,,,8,0,1,,,0,,,80,64
31698,note_off,,,,,18,0,2,,,0,,,68,64
31700,note_on,,,,,2,0,1,,,0,,,79,79
31700,note_on,,,,,2,0,2,,,0,,,67,76
31718,note_off,,,,,18,0,1,,,0,,,79,64
31718,note_off,,,,,18,0,2,,,0,,,67,64
31720,note_on,,,,,2,0,1,,,0,,,80,80
31720,note_on,,,,,2,0,2,,,0,,,68,76
31738,note_off,,,,,18,0,2,,,0,,,68,64
31738,note_off,,,,,18,0,1,,,0,,,80,64
31740,note_on,,,,,2,0,2,,,0,,,67,81
31740,note_on,,,,,2,0,1,,,0,,,79,82
31740,set_tempo,,,,,140,1,0,1000000,,,,,,
31758,note_off,,,,,18,0,2,,,0,,,67,64
31758,note_off,,,,,18,0,1,,,0,,,79,64
31760,note_on,,,,,2,0,1,,,0,,,80,82
31760,note_on,,,,,2,0,2,,,0,,,68,82
31778,note_off,,,,,18,0,1,,,0,,,80,64
31778,note_off,,,,,18,0,2,,,0,,,68,64
31780,note_on,,,,,2,0,2,,,0,,,67,86
31780,note_on,,,,,2,0,1,,,0,,,79,82
31798,note_off,,,,,18,0,1,,,0,,,79,64
31798,note_off,,,,,18,0,2,,,0,,,67,64
31800,note_on,,,,,2,0,1,,,0,,,80,83
31800,note_on,,,,,2,0,2,,,0,,,68,87
31818,note_off,,,,,18,0,2,,,0,,,68,64
31818,note_off,,,,,18,0,1,,,0,,,80,64
31820,note_on,,,,,2,0,1,,,0,,,79,84
31820,note_on,,,,,2,0,2,,,0,,,67,89
31838,note_off,,,,,18,0,2,,,0,,,67,64
31838,note_off,,,,,18,0,1,,,0,,,79,64
31840,note_on,,,,,2,0,1,,,0,,,80,85
31840,note_on,,,,,2,0,2,,,0,,,68,90
31858,note_off,,,,,18,0,2,,,0,,,68,64
31858,note_off,,,,,18,0,1,,,0,,,80,64
31860,note_on,,,,,2,0,2,,,0,,,67,91
31860,note_on,,,,,2,0,1,,,0,,,79,87
31878,note_off,,,,,18,0,2,,,0,,,67,64
31878,note_off,,,,,18,0,1,,,0,,,79,64
31880,note_on,,,,,2,0,1,,,0,,,80,88
31880,note_on,,,,,2,0,2,,,0,,,68,92
31898,note_off,,,,,18,0,2,,,0,,,68,64
31898,note_off,,,,,18,0,1,,,0,,,80,64
31900,set_tempo,,,,,160,1,0,983607,,,,,,
31900,note_on,,,,,2,0,2,,,0,,,67,94
31900,note_on,,,,,2,0,1,,,0,,,79,89
31918,note_off,,,,,18,0,1,,,0,,,79,64
31918,note_off,,,,,18,0,2,,,0,,,67,64
31920,note_on,,,,,2,0,1,,,0,,,80,89
31920,note_on,,,,,2,0,2,,,0,,,68,94
31938,note_off,,,,,18,0,1,,,0,,,80,64
31938,note_off,,,,,18,0,2,,,0,,,68,64
31940,note_on,,,,,2,0,2,,,0,,,67,97
31940,note_on,,,,,2,0,1,,,0,,,79,91
31958,note_off,,,,,18,0,2,,,0,,,67,64
31958,note_off,,,,,18,0,1,,,0,,,79,64
31960,note_on,,,,,2,0,2,,,0,,,68,98
31960,note_on,,,,,2,0,1,,,0,,,80,91
31978,note_off,,,,,18,0,2,,,0,,,68,64
31978,note_off,,,,,18,0,1,,,0,,,80,64
31980,set_tempo,,,,,80,1,0,967742,,,,,,
31980,note_on,,,,,2,0,1,,,0,,,79,91
31980,note_on,,,,,2,0,2,,,0,,,67,99
31998,note_off,,,,,18,0,1,,,0,,,79,64
31998,note_off,,,,,18,0,2,,,0,,,67,64
32000,note_on,,,,,2,0,1,,,0,,,77,92
32000,note_on,,,,,2,0,2,,,0,,,65,100
32018,note_off,,,,,18,0,1,,,0,,,77,64
32018,note_off,,,,,18,0,2,,,0,,,65,64
32020,note_on,,,,,2,0,1,,,0,,,79,93
32020,control_change,,,,,0,0,1,,,0,64,0,,
32020,set_tempo,,,,,40,1,0,1052632,,,,,,
32020,note_on,,,,,2,0,2,,,0,,,67,102
32038,note_off,,,,,18,0,1,,,0,,,79,64
32038,note_off,,,,,18,0,2,,,0,,,67,64
32040,note_on,,,,,2,0,2,,,0,,,67,102
32040,control_change,,,,,0,0,1,,,0,64,96,,
32040,note_on,,,,,2,0,1,,,0,,,82,95
32100,note_on,,,,,0,0,2,,,0,,,68,87
32100,note_off,,,,,60,0,2,,,0,,,67,64
32100,note_off,,,,,60,0,1,,,0,,,82,64
32100,set_tempo,,,,,80,1,0,1034483,,,,,,
32100,note_on,,,,,0,0,1,,,0,,,80,78
32144,note_off,,,,,44,0,1,,,0,,,80,64
32160,note_on,,,,,16,0,1,,,0,,,80,83
32160,control_change,,,,,0,0,1,,,0,64,0,,
32160,note_off,,,,,60,0,2,,,0,,,68,64
32160,note_on,,,,,0,0,2,,,0,,,69,91
32180,set_tempo,,,,,80,1,0,1016949,,,,,,
32204,note_off,,,,,44,0,1,,,0,,,80,64
32220,note_off,,,,,60,0,2,,,0,,,69,64
32220,note_on,,,,,0,0,2,,,0,,,70,93
32220,note_on,,,,,16,0,1,,,0,,,80,88
32240,set_tempo,,,,,60,1,0,1000000,,,,,,
32264,note_off,,,,,44,0,1,,,0,,,80,64
32280,note_on,,,,,16,0,1,,,0,,,80,93
32280,note_on,,,,,0,0,2,,,0,,,71,95
32280,note_off,,,,,60,0,2,,,0,,,70,64
32324,note_off,,,,,44,0,1,,,0,,,80,64
32340,note_on,,,,,16,0,1,,,0,,,80,96
32340,note_off,,,,,60,0,2,,,0,,,71,64
32340,note_on,,,,,0,0,2,,,0,,,72,99
32384,note_off,,,,,44,0,1,,,0,,,80,64
32384,note_off,,,,,44,0,2,,,0,,,72,64
32400,note_on,,,,,16,0,1,,,0,,,80,104
32400,note_on,,,,,16,0,2,,,0,,,75,106
32400,control_change,,,,,0,0,1,,,0,64,95,,
32400,set_tempo,,,,,160,1,0,1090909,,,,,,
32440,set_tempo,,,,,40,1,0,1111111,,,,,,
32452,note_off,,,,,52,0,1,,,0,,,80,64
32460,note_on,,,,,0,0,1,,,0,,,80,82
32460,note_on,,,,,0,0,2,,,0,,,73,78
32460,note_on,,,,,8,0,1,,,0,,,76,82
32460,note_off,,,,,60,0,2,,,0,,,75,64
32504,note_off,,,,,44,0,1,,,0,,,80,64
32504,note_off,,,,,0,0,1,,,0,,,76,64
32504,note_off,,,,,44,0,2,,,0,,,73,64
32520,set_tempo,,,,,80,1,0,1071429,,,,,,
32520,note_on,,,,,0,0,1,,,0,,,80,85
32520,note_on,,,,,16,0,1,,,0,,,76,85
32520,note_on,,,,,16,0,2,,,0,,,73,77
32520,control_change,,,,,0,0,1,,,0,64,0,,
32560,set_tempo,,,,,40,1,0,1090909,,,,,,
32564,note_off,,,,,44,0,1,,,0,,,80,64
32564,note_off,,,,,0,0,1,,,0,,,76,64
32564,note_off,,,,,44,0,2,,,0,,,73,64
32580,note_on,,,,,16,0,1,,,0,,,76,76
32580,note_on,,,,,0,0,1,,,0,,,80,76
32580,note_on,,,,,16,0,2,,,0,,,73,72
32624,note_off,,,,,44,0,2,,,0,,,73,64
32624,note_off,,,,,44,0,1,,,0,,,80,64
32624,note_off,,,,,0,0,1,,,0,,,76,64
32640,note_on,,,,,16,0,2,,,0,,,73,62
32640,note_on,,,,,16,0,1,,,0,,,76,68
32640,note_on,,,,,0,0,1,,,0,,,80,68
32660,set_tempo,,,,,100,1,0,1111111,,,,,,
32684,note_off,,,,,0,0,1,,,0,,,76,64
32684,note_off,,,,,44,0,2,,,0,,,73,64
32684,note_off,,,,,44,0,1,,,0,,,80,64
32700,note_on,,,,,16,0,1,,,0,,,76,60
32700,note_on,,,,,0,0,1,,,0,,,80,60
32700,note_on,,,,,16,0,2,,,0,,,73,54
32720,set_tempo,,,,,60,1,0,1132075,,,,,,
32740,set_tempo,,,,,20,1,0,1153846,,,,,,
32744,note_off,,,,,44,0,1,,,0,,,80,64
32744,note_off,,,,,0,0,1,,,0,,,76,64
32744,note_off,,,,,44,0,2,,,0,,,73,64
32760,note_on,,,,,16,0,2,,,0,,,73,44
32760,control_change,,,,,0,0,1,,,0,64,96,,
32760,set_tempo,,,,,20,1,0,1176471,,,,,,
32760,note_on,,,,,16,0,1,,,0,,,80,58
32800,note_off,,,,,40,0,1,,,0,,,80,64
32800,note_on,,,,,0,0,1,,,0,,,92,61
32800,note_off,,,,,40,0,2,,,0,,,73,64
32800,note_on,,,,,0,0,2,,,0,,,74,49
32840,note_off,,,,,40,0,2,,,0,,,74,64
32840,note_off,,,,,40,0,1,,,0,,,92,64
32840,note_on,,,,,0,0,1,,,0,,,80,63
32840,note_on,,,,,0,0,2,,,0,,,75,51
32860,set_tempo,,,,,100,1,0,1153846,,,,,,
32880,note_off,,,,,40,0,1,,,0,,,80,64
32880,note_on,,,,,0,0,1,,,0,,,92,67
32880,note_off,,,,,40,0,2,,,0,,,75,64
32880,note_on,,,,,0,0,2,,,0,,,76,54
32900,set_tempo,,,,,40,1,0,1132075,,,,,,
32920,note_on,,,,,0,0,2,,,0,,,75,56
32920,note_off,,,,,40,0,1,,,0,,,92,64
32920,note_on,,,,,0,0,1,,,0,,,80,68
32920,set_tempo,,,,,20,1,0,1111111,,,,,,
32920,note_off,,,,,40,0,2,,,0,,,76,64
32940,set_tempo,,,,,20,1,0,1090909,,,,,,
32960,note_off,,,,,40,0,2,,,0,,,75,64
32960,note_off,,,,,40,0,1,,,0,,,80,64
32960,set_tempo,,,,,20,1,0,1071429,,,,,,
32962,note_on,,,,,2,0,1,,,0,,,92,74
32962,note_on,,,,,2,0,2,,,0,,,76,60
33000,set_tempo,,,,,40,1,0,1052632,,,,,,
33002,note_off,,,,,40,0,2,,,0,,,76,64
33002,note_on,,,,,0,0,2,,,0,,,78,60
33002,note_off,,,,,40,0,1,,,0,,,92,64
33002,note_on,,,,,0,0,1,,,0,,,80,78
33020,set_tempo,,,,,20,1,0,1034483,,,,,,
33042,note_off,,,,,40,0,1,,,0,,,80,64
33042,note_off,,,,,40,0,2,,,0,,,78,64
33042,note_on,,,,,0,0,2,,,0,,,75,64
33042,note_on,,,,,0,0,1,,,0,,,92,83
33060,set_tempo,,,,,40,1,0,1016949,,,,,,
33080,set_tempo,,,,,20,1,0,1000000,,,,,,
33082,note_off,,,,,40,0,1,,,0,,,92,64
33082,note_on,,,,,0,0,1,,,0,,,80,88
33082,note_off,,,,,40,0,2,,,0,,,75,64
33082,note_on,,,,,0,0,2,,,0,,,76,67
33122,note_off,,,,,40,0,1,,,0,,,80,64
33122,note_on,,,,,0,0,1,,,0,,,92,91
33122,note_off,,,,,40,0,2,,,0,,,76,64
33122,note_on,,,,,0,0,2,,,0,,,78,70
33162,note_off,,,,,40,0,2,,,0,,,78,64
33162,note_on,,,,,0,0,2,,,0,,,75,73
33162,note_on,,,,,0,0,1,,,0,,,80,95
33162,note_off,,,,,40,0,1,,,0,,,92,64
33200,set_tempo,,,,,120,1,0,1016949,,,,,,
33202,note_on,,,,,0,0,2,,,0,,,76,76
33202,note_off,,,,,40,0,2,,,0,,,75,64
33202,note_off,,,,,40,0,1,,,0,,,80,64
33202,note_on,,,,,0,0,1,,,0,,,92,99
33220,set_tempo,,,,,20,1,0,1034483,,,,,,
33240,set_tempo,,,,,20,1,0,1071429,,,,,,
33242,note_on,,,,,0,0,2,,,0,,,78,79
33242,note_off,,,,,40,0,2,,,0,,,76,64
33242,note_on,,,,,0,0,1,,,0,,,80,103
33242,note_off,,,,,40,0,1,,,0,,,92,64
33280,set_tempo,,,,,40,1,0,1090909,,,,,,
33282,note_off,,,,,40,0,1,,,0,,,80,64
33282,note_off,,,,,40,0,2,,,0,,,78,64
33282,note_on,,,,,0,0,2,,,0,,,75,79
33282,note_on,,,,,0,0,1,,,0,,,92,103
33320,set_tempo,,,,,40,1,0,1132075,,,,,,
33322,note_off,,,,,40,0,1,,,0,,,92,64
33322,note_on,,,,,0,0,1,,,0,,,80,107
33322,note_off,,,,,40,0,2,,,0,,,75,64
33322,note_on,,,,,0,0,2,,,0,,,76,84
33340,set_tempo,,,,,20,1,0,1200000,,,,,,
33362,note_off,,,,,40,0,1,,,0,,,80,64
33362,note_off,,,,,40,0,2,,,0,,,76,64
33364,note_on,,,,,2,0,1,,,0,,,92,111
33364,note_on,,,,,2,0,2,,,0,,,78,99
33380,set_tempo,,,,,40,1,0,1224490,,,,,,
33400,set_tempo,,,,,20,1,0,1276596,,,,,,
33404,note_on,,,,,0,0,2,,,0,,,75,89
33404,note_off,,,,,40,0,1,,,0,,,92,64
33404,note_on,,,,,0,0,1,,,0,,,80,106
33404,note_off,,,,,40,0,2,,,0,,,78,64
33420,set_tempo,,,,,20,1,0,1304348,,,,,,
33440,set_tempo,,,,,20,1,0,4615385,,,,,,
33444,note_off,,,,,40,0,2,,,0,,,75,64
33444,note_on,,,,,0,0,2,,,0,,,76,87
33444,note_off,,,,,40,0,1,,,0,,,80,64
33444,note_on,,,,,0,0,1,,,0,,,92,102
33460,control_change,,,,,16,0,1,,,0,64,0,,
33474,note_on,,,,,0,0,2,,,0,,,47,56
33474,note_on,,,,,0,0,2,,,0,,,40,56
33474,note_off,,,,,14,0,1,,,0,,,92,64
33474,note_off,,,,,30,0,2,,,0,,,76,64
33474,note_on,,,,,0,0,2,,,0,,,55,56
33474,control_change,,,,,0,0,1,,,0,64,96,,
33480,note_on,,,,,6,0,1,,,0,,,64,69
33480,set_tempo,,,,,40,1,0,1000000,,,,,,
33540,note_off,,,,,60,0,1,,,0,,,64,64
33540,note_on,,,,,0,0,1,,,0,,,76,39
33592,note_off,,,,,52,0,1,,,0,,,76,64
33600,note_on,,,,,8,0,1,,,0,,,71,56
33628,note_off,,,,,28,0,1,,,0,,,71,64
33630,note_on,,,,,2,0,1,,,0,,,72,42
33658,note_off,,,,,28,0,1,,,0,,,72,64
33660,note_on,,,,,2,0,1,,,0,,,71,44
33688,note_off,,,,,28,0,1,,,0,,,71,64
33690,note_on,,,,,2,0,1,,,0,,,69,47
33718,note_off,,,,,28,0,1,,,0,,,69,64
33720,note_on,,,,,2,0,1,,,0,,,67,49
33740,set_tempo,,,,,260,1,0,1034483,,,,,,
33748,note_off,,,,,28,0,1,,,0,,,67,64
33750,note_on,,,,,2,0,1,,,0,,,69,51
33778,note_off,,,,,28,0,1,,,0,,,69,64
33780,note_on,,,,,2,0,1,,,0,,,67,55
33808,note_off,,,,,28,0,1,,,0,,,67,64
33810,note_on,,,,,2,0,1,,,0,,,66,57
33820,control_change,,,,,10,0,1,,,0,64,0,,
33820,set_tempo,,,,,80,1,0,1052632,,,,,,
33838,note_off,,,,,18,0,1,,,0,,,66,64
33840,control_change,,,,,0,0,1,,,0,64,96,,
33840,note_on,,,,,2,0,1,,,0,,,64,59
33868,note_off,,,,,28,0,1,,,0,,,64,64
33870,note_on,,,,,2,0,1,,,0,,,66,53
33880,set_tempo,,,,,60,1,0,1071429,,,,,,
33898,note_off,,,,,28,0,1,,,0,,,66,64
33900,note_on,,,,,2,0,1,,,0,,,67,47
33928,note_off,,,,,28,0,1,,,0,,,67,64
33930,note_on,,,,,2,0,1,,,0,,,69,45
33940,set_tempo,,,,,60,1,0,1090909,,,,,,
33958,note_off,,,,,28,0,1,,,0,,,69,64
33960,note_on,,,,,2,0,1,,,0,,,71,45
33980,set_tempo,,,,,40,1,0,1111111,,,,,,
33988,note_off,,,,,28,0,1,,,0,,,71,64
33990,note_on,,,,,2,0,1,,,0,,,73,45
34000,set_tempo,,,,,20,1,0,1132075,,,,,,
34018,note_off,,,,,28,0,1,,,0,,,73,64
34020,note_on,,,,,2,0,1,,,0,,,75,45
34048,note_off,,,,,28,0,1,,,0,,,75,64
34050,note_on,,,,,2,0,1,,,0,,,76,47
34060,set_tempo,,,,,60,1,0,1153846,,,,,,
34074,note_off,,,,,600,0,2,,,0,,,40,64
34074,note_off,,,,,0,0,2,,,0,,,47,64
34074,note_off,,,,,0,0,2,,,0,,,55,64
34078,note_off,,,,,28,0,1,,,0,,,76,64
34080,note_on,,,,,2,0,1,,,0,,,78,50
34080,set_tempo,,,,,20,1,0,1176471,,,,,,
34108,note_off,,,,,28,0,1,,,0,,,78,64
34110,note_on,,,,,2,0,1,,,0,,,79,53
34138,note_off,,,,,28,0,1,,,0,,,79,64
34140,note_on,,,,,2,0,1,,,0,,,81,57
34168,note_off,,,,,28,0,1,,,0,,,81,64
34176,note_on,,,,,8,0,1,,,0,,,83,54
34180,set_tempo,,,,,100,1,0,1200000,,,,,,
34190,control_change,,,,,14,0,1,,,0,64,0,,
34200,note_on,,,,,126,0,2,,,0,,,52,47
34200,note_on,,,,,10,0,1,,,0,,,84,64
34200,control_change,,,,,0,0,1,,,0,64,96,,
34206,note_off,,,,,6,0,1,,,0,,,83,64
34218,note_off,,,,,12,0,1,,,0,,,84,64
34220,note_on,,,,,2,0,1,,,0,,,83,42
34238,note_off,,,,,18,0,1,,,0,,,83,64
34240,note_on,,,,,2,0,1,,,0,,,84,43
34258,note_off,,,,,18,0,1,,,0,,,84,64
34258,note_off,,,,,58,0,2,,,0,,,52,64
34260,note_on,,,,,2,0,1,,,0,,,83,43
34260,note_on,,,,,2,0,2,,,0,,,64,49
34278,note_off,,,,,18,0,1,,,0,,,83,64
34280,note_on,,,,,2,0,1,,,0,,,84,43
34298,note_off,,,,,18,0,1,,,0,,,84,64
34300,note_on,,,,,2,0,1,,,0,,,83,43
34314,set_tempo,,,,,134,1,0,1132075,,,,,,
34318,note_off,,,,,58,0,2,,,0,,,64,64
34318,note_off,,,,,18,0,1,,,0,,,83,64
34320,note_on,,,,,2,0,2,,,0,,,59,62
34320,note_on,,,,,2,0,1,,,0,,,84,45
34338,note_off,,,,,18,0,1,,,0,,,84,64
34340,note_on,,,,,2,0,1,,,0,,,83,45
34348,note_off,,,,,28,0,2,,,0,,,59,64
34350,note_on,,,,,2,0,2,,,0,,,60,53
34358,note_off,,,,,18,0,1,,,0,,,83,64
34360,note_on,,,,,2,0,1,,,0,,,84,45
34378,note_off,,,,,28,0,2,,,0,,,60,64
34378,note_off,,,,,18,0,1,,,0,,,84,64
34380,note_on,,,,,2,0,2,,,0,,,59,56
34380,note_on,,,,,2,0,1,,,0,,,83,45
34398,note_off,,,,,18,0,1,,,0,,,83,64
34400,note_on,,,,,2,0,1,,,0,,,84,49
34408,note_off,,,,,28,0,2,,,0,,,59,64
34410,note_on,,,,,2,0,2,,,0,,,57,59
34414,set_tempo,,,,,100,1,0,1111111,,,,,,
34418,note_off,,,,,18,0,1,,,0,,,84,64
34420,note_on,,,,,2,0,1,,,0,,,83,49
34438,note_off,,,,,28,0,2,,,0,,,57,64
34438,note_off,,,,,18,0,1,,,0,,,83,64
34440,note_on,,,,,2,0,1,,,0,,,84,49
34440,note_on,,,,,2,0,2,,,0,,,55,62
34454,set_tempo,,,,,40,1,0,1090909,,,,,,
34458,note_off,,,,,18,0,1,,,0,,,84,64
34460,note_on,,,,,2,0,1,,,0,,,83,49
34468,note_off,,,,,28,0,2,,,0,,,55,64
34470,note_on,,,,,2,0,2,,,0,,,57,65
34478,note_off,,,,,18,0,1,,,0,,,83,64
34480,note_on,,,,,2,0,1,,,0,,,84,52
34498,note_off,,,,,18,0,1,,,0,,,84,64
34498,note_off,,,,,28,0,2,,,0,,,57,64
34500,note_on,,,,,2,0,1,,,0,,,83,53
34500,note_on,,,,,2,0,2,,,0,,,55,65
34518,note_off,,,,,18,0,1,,,0,,,83,64
34520,note_on,,,,,2,0,1,,,0,,,84,53
34528,note_off,,,,,28,0,2,,,0,,,55,64
34530,note_on,,,,,2,0,2,,,0,,,54,68
34538,note_off,,,,,18,0,1,,,0,,,84,64
34540,control_change,,,,,10,0,2,,,0,64,0,,
34540,note_on,,,,,2,0,1,,,0,,,83,53
34550,control_change,,,,,10,0,1,,,0,64,0,,
34554,set_tempo,,,,,100,1,0,1071429,,,,,,
34558,note_off,,,,,18,0,2,,,0,,,54,64
34558,note_off,,,,,8,0,1,,,0,,,83,64
34560,control_change,,,,,0,0,1,,,0,64,96,,
34560,note_on,,,,,2,0,2,,,0,,,52,67
34560,control_change,,,,,0,0,2,,,0,64,96,,
34560,note_on,,,,,2,0,1,,,0,,,84,56
34578,note_off,,,,,18,0,1,,,0,,,84,64
34580,note_on,,,,,2,0,1,,,0,,,83,57
34588,note_off,,,,,28,0,2,,,0,,,52,64
34590,note_on,,,,,2,0,2,,,0,,,54,63
34598,note_off,,,,,18,0,1,,,0,,,83,64
34600,note_on,,,,,2,0,1,,,0,,,84,58
34618,note_off,,,,,28,0,2,,,0,,,54,64
34618,note_off,,,,,18,0,1,,,0,,,84,64
34620,note_on,,,,,2,0,1,,,0,,,83,58
34620,note_on,,,,,2,0,2,,,0,,,55,62
34638,note_off,,,,,18,0,1,,,0,,,83,64
34640,note_on,,,,,2,0,1,,,0,,,84,58
34648,note_off,,,,,28,0,2,,,0,,,55,64
34650,note_on,,,,,2,0,2,,,0,,,57,61
34658,note_off,,,,,18,0,1,,,0,,,84,64
34660,note_on,,,,,2,0,1,,,0,,,83,62
34678,note_off,,,,,28,0,2,,,0,,,57,64
34678,note_off,,,,,18,0,1,,,0,,,83,64
34680,note_on,,,,,2,0,2,,,0,,,59,60
34680,note_on,,,,,2,0,1,,,0,,,84,62
34698,note_off,,,,,18,0,1,,,0,,,84,64
34700,note_on,,,,,2,0,1,,,0,,,83,62
34708,note_off,,,,,28,0,2,,,0,,,59,64
34710,note_on,,,,,2,0,2,,,0,,,61,60
34714,set_tempo,,,,,160,1,0,1052632,,,,,,
34718,note_off,,,,,18,0,1,,,0,,,83,64
34720,note_on,,,,,2,0,1,,,0,,,84,64
34738,note_off,,,,,18,0,1,,,0,,,84,64
34738,note_off,,,,,28,0,2,,,0,,,61,64
34740,note_on,,,,,2,0,1,,,0,,,83,65
34740,note_on,,,,,2,0,2,,,0,,,63,61
34758,note_off,,,,,18,0,1,,,0,,,83,64
34760,note_on,,,,,2,0,1,,,0,,,84,65
34768,note_off,,,,,28,0,2,,,0,,,63,64
34770,note_on,,,,,2,0,2,,,0,,,64,64
34774,set_tempo,,,,,60,1,0,1034483,,,,,,
34778,note_off,,,,,18,0,1,,,0,,,84,64
34780,note_on,,,,,2,0,1,,,0,,,83,65
34798,note_off,,,,,18,0,1,,,0,,,83,64
34798,note_off,,,,,28,0,2,,,0,,,64,64
34800,note_on,,,,,2,0,2,,,0,,,66,68
34800,note_on,,,,,2,0,1,,,0,,,84,65
34818,note_off,,,,,18,0,1,,,0,,,84,64
34820,note_on,,,,,2,0,1,,,0,,,83,68
34828,note_off,,,,,28,0,2,,,0,,,66,64
34830,note_on,,,,,2,0,2,,,0,,,67,72
34834,set_tempo,,,,,60,1,0,1016949,,,,,,
34838,note_off,,,,,18,0,1,,,0,,,83,64
34840,note_on,,,,,2,0,1,,,0,,,84,68
34858,note_off,,,,,18,0,1,,,0,,,84,64
34858,note_off,,,,,28,0,2,,,0,,,67,64
34860,note_on,,,,,2,0,1,,,0,,,83,75
34860,note_on,,,,,2,0,2,,,0,,,69,73
34878,note_off,,,,,18,0,1,,,0,,,83,64
34880,note_on,,,,,2,0,1,,,0,,,84,76
34888,note_off,,,,,28,0,2,,,0,,,69,64
34890,note_on,,,,,2,0,2,,,0,,,71,75
34898,note_off,,,,,18,0,1,,,0,,,84,64
34900,note_on,,,,,2,0,1,,,0,,,83,76
34910,control_change,,,,,20,0,2,,,0,64,0,,
34918,note_off,,,,,18,0,1,,,0,,,83,64
34918,note_off,,,,,8,0,2,,,0,,,71,64
34920,note_on,,,,,2,0,2,,,0,,,72,67
34920,control_change,,,,,2,0,1,,,0,64,0,,
34920,note_on,,,,,0,0,1,,,0,,,84,78
34920,control_change,,,,,0,0,1,,,0,64,96,,
34920,control_change,,,,,0,0,2,,,0,64,96,,
34938,note_off,,,,,18,0,2,,,0,,,72,64
34938,note_off,,,,,18,0,1,,,0,,,84,64
34940,note_on,,,,,2,0,2,,,0,,,71,65
34940,note_on,,,,,2,0,1,,,0,,,83,79
34958,note_off,,,,,18,0,2,,,0,,,71,64
34958,note_off,,,,,18,0,1,,,0,,,83,64
34960,note_on,,,,,2,0,2,,,0,,,72,63
34960,note_on,,,,,2,0,1,,,0,,,84,80
34974,set_tempo,,,,,140,1,0,1000000,,,,,,
34978,note_off,,,,,18,0,1,,,0,,,84,64
34978,note_off,,,,,18,0,2,,,0,,,72,64
34980,note_on,,,,,2,0,1,,,0,,,83,82
34980,note_on,,,,,2,0,2,,,0,,,71,62
34998,note_off,,,,,18,0,1,,,0,,,83,64
34998,note_off,,,,,18,0,2,,,0,,,71,64
35000,note_on,,,,,2,0,2,,,0,,,72,62
35000,note_on,,,,,2,0,1,,,0,,,84,82
35018,note_off,,,,,18,0,1,,,0,,,84,64
35018,note_off,,,,,18,0,2,,,0,,,72,64
35020,note_on,,,,,2,0,1,,,0,,,83,82
35020,note_on,,,,,2,0,2,,,0,,,71,62
35038,note_off,,,,,18,0,1,,,0,,,83,64
35038,note_off,,,,,18,0,2,,,0,,,71,64
35040,note_on,,,,,2,0,1,,,0,,,84,83
35040,note_on,,,,,2,0,2,,,0,,,72,62
35058,note_off,,,,,18,0,1,,,0,,,84,64
35058,note_off,,,,,18,0,2,,,0,,,72,64
35060,note_on,,,,,2,0,2,,,0,,,71,63
35060,note_on,,,,,2,0,1,,,0,,,83,84
35078,note_off,,,,,18,0,1,,,0,,,83,64
35078,note_off,,,,,18,0,2,,,0,,,71,64
35080,note_on,,,,,2,0,1,,,0,,,84,85
35080,note_on,,,,,2,0,2,,,0,,,72,65
35098,note_off,,,,,18,0,2,,,0,,,72,64
35098,note_off,,,,,18,0,1,,,0,,,84,64
35100,note_on,,,,,2,0,1,,,0,,,83,87
35100,note_on,,,,,2,0,2,,,0,,,71,65
35118,note_off,,,,,18,0,1,,,0,,,83,64
35118,note_off,,,,,18,0,2,,,0,,,71,64
35120,note_on,,,,,2,0,1,,,0,,,84,88
35120,note_on,,,,,2,0,2,,,0,,,72,68
35134,set_tempo,,,,,160,1,0,983607,,,,,,
35138,note_off,,,,,18,0,2,,,0,,,72,64
35138,note_off,,,,,18,0,1,,,0,,,84,64
35140,note_on,,,,,2,0,2,,,0,,,71,69
35140,note_on,,,,,2,0,1,,,0,,,83,89
35158,note_off,,,,,18,0,2,,,0,,,71,64
35158,note_off,,,,,18,0,1,,,0,,,83,64
35160,note_on,,,,,2,0,1,,,0,,,84,89
35160,note_on,,,,,2,0,2,,,0,,,72,70
35178,note_off,,,,,18,0,2,,,0,,,72,64
35178,note_off,,,,,18,0,1,,,0,,,84,64
35180,note_on,,,,,2,0,1,,,0,,,83,91
35180,note_on,,,,,2,0,2,,,0,,,71,71
35198,note_off,,,,,18,0,1,,,0,,,83,64
35198,note_off,,,,,18,0,2,,,0,,,71,64
35200,note_on,,,,,2,0,1,,,0,,,84,91
35200,note_on,,,,,2,0,2,,,0,,,72,73
35214,set_tempo,,,,,80,1,0,967742,,,,,,
35218,note_off,,,,,18,0,2,,,0,,,72,64
35218,note_off,,,,,18,0,1,,,0,,,84,64
35220,note_on,,,,,2,0,2,,,0,,,71,75
35220,note_on,,,,,2,0,1,,,0,,,83,91
35238,note_off,,,,,18,0,2,,,0,,,71,64
35238,note_off,,,,,18,0,1,,,0,,,83,64
35240,note_on,,,,,2,0,1,,,0,,,81,92
35240,note_on,,,,,2,0,2,,,0,,,72,77
35250,control_change,,,,,10,0,1,,,0,64,0,,
35254,set_tempo,,,,,40,1,0,1052632,,,,,,
35258,note_off,,,,,18,0,2,,,0,,,72,64
35258,note_off,,,,,8,0,1,,,0,,,81,64
35260,note_on,,,,,2,0,1,,,0,,,83,93
35260,note_on,,,,,2,0,2,,,0,,,71,77
35270,control_change,,,,,10,0,2,,,0,64,0,,
35278,note_off,,,,,8,0,2,,,0,,,71,64
35278,note_off,,,,,18,0,1,,,0,,,83,64
35280,note_on,,,,,2,0,2,,,0,,,72,80
35280,control_change,,,,,0,0,2,,,0,64,96,,
35280,note_on,,,,,2,0,1,,,0,,,86,95
35280,control_change,,,,,0,0,1,,,0,64,96,,
35298,note_off,,,,,18,0,2,,,0,,,72,64
35334,set_tempo,,,,,80,1,0,1034483,,,,,,
35340,note_on,,,,,42,0,2,,,0,,,72,87
35340,note_off,,,,,60,0,1,,,0,,,86,64
35340,note_on,,,,,0,0,1,,,0,,,84,78
35384,note_off,,,,,44,0,1,,,0,,,84,64
35400,note_on,,,,,16,0,1,,,0,,,84,83
35400,control_change,,,,,0,0,1,,,0,64,0,,
35400,note_off,,,,,60,0,2,,,0,,,72,64
35400,note_on,,,,,0,0,2,,,0,,,73,91
35414,set_tempo,,,,,80,1,0,1016949,,,,,,
35444,note_off,,,,,44,0,1,,,0,,,84,64
35460,note_on,,,,,0,0,2,,,0,,,74,93
35460,note_on,,,,,16,0,1,,,0,,,84,88
35460,note_off,,,,,60,0,2,,,0,,,73,64
35474,set_tempo,,,,,60,1,0,1000000,,,,,,
35504,note_off,,,,,44,0,1,,,0,,,84,64
35520,note_on,,,,,0,0,2,,,0,,,75,95
35520,note_on,,,,,16,0,1,,,0,,,84,93
35520,note_off,,,,,60,0,2,,,0,,,74,64
35564,note_off,,,,,44,0,1,,,0,,,84,64
35580,note_off,,,,,60,0,2,,,0,,,75,64
35580,note_on,,,,,0,0,2,,,0,,,76,99
35580,note_on,,,,,16,0,1,,,0,,,84,96
35624,note_off,,,,,44,0,2,,,0,,,76,64
35624,note_off,,,,,44,0,1,,,0,,,84,64
35634,set_tempo,,,,,160,1,0,1090909,,,,,,
35640,note_on,,,,,16,0,1,,,0,,,84,104
35640,control_change,,,,,0,0,1,,,0,64,95,,
35640,set_tempo,,,,,6,1,0,1111111,,,,,,
35640,note_on,,,,,16,0,2,,,0,,,79,106
35660,set_tempo,,,,,20,1,0,1132075,,,,,,
35674,note_off,,,,,34,0,1,,,0,,,84,64
35680,note_on,,,,,6,0,1,,,0,,,80,82
35680,note_off,,,,,40,0,2,,,0,,,79,64
35680,note_on,,,,,0,0,2,,,0,,,77,87
35680,note_on,,,,,0,0,1,,,0,,,84,82
35710,note_off,,,,,30,0,2,,,0,,,77,64
35710,note_off,,,,,0,0,1,,,0,,,80,64
35710,note_off,,,,,30,0,1,,,0,,,84,64
35720,control_change,,,,,0,0,1,,,0,64,0,,
35720,note_on,,,,,10,0,2,,,0,,,77,89
35720,note_on,,,,,10,0,1,,,0,,,80,85
35720,note_on,,,,,0,0,1,,,0,,,84,85
35740,set_tempo,,,,,80,1,0,1176471,,,,,,
35750,note_off,,,,,0,0,1,,,0,,,80,64
35750,note_off,,,,,30,0,2,,,0,,,77,64
35750,note_off,,,,,30,0,1,,,0,,,84,64
35760,note_on,,,,,10,0,2,,,0,,,77,90
35760,note_on,,,,,0,0,1,,,0,,,84,87
35760,note_on,,,,,10,0,1,,,0,,,80,87
35790,note_off,,,,,30,0,2,,,0,,,77,64
35790,note_off,,,,,0,0,1,,,0,,,80,64
35790,note_off,,,,,30,0,1,,,0,,,84,64
35800,note_on,,,,,0,0,1,,,0,,,84,85
35800,note_on,,,,,10,0,1,,,0,,,80,85
35800,note_on,,,,,10,0,2,,,0,,,77,91
35830,note_off,,,,,30,0,2,,,0,,,77,64
35830,note_off,,,,,0,0,1,,,0,,,80,64
35830,note_off,,,,,30,0,1,,,0,,,84,64
35840,set_tempo,,,,,100,1,0,1200000,,,,,,
35842,note_on,,,,,0,0,1,,,0,,,84,80
35842,note_on,,,,,12,0,2,,,0,,,77,84
35842,note_on,,,,,12,0,1,,,0,,,80,80
35872,note_off,,,,,30,0,1,,,0,,,84,64
35872,note_off,,,,,30,0,2,,,0,,,77,64
35872,note_off,,,,,0,0,1,,,0,,,80,64
35880,note_on,,,,,8,0,2,,,0,,,77,76
35880,note_on,,,,,0,0,1,,,0,,,84,72
35880,note_on,,,,,8,0,1,,,0,,,80,72
35880,set_tempo,,,,,40,1,0,1224490,,,,,,
35910,note_off,,,,,0,0,1,,,0,,,80,64
35910,note_off,,,,,30,0,2,,,0,,,77,64
35910,note_off,,,,,30,0,1,,,0,,,84,64
35920,note_on,,,,,10,0,1,,,0,,,80,64
35920,note_on,,,,,0,0,1,,,0,,,84,64
35920,set_tempo,,,,,40,1,0,1276596,,,,,,
35920,note_on,,,,,10,0,2,,,0,,,77,65
35950,note_off,,,,,30,0,1,,,0,,,84,64
35950,note_off,,,,,0,0,1,,,0,,,80,64
35950,note_off,,,,,30,0,2,,,0,,,77,64
35960,set_tempo,,,,,40,1,0,1304348,,,,,,
35962,note_on,,,,,12,0,1,,,0,,,80,58
35962,note_on,,,,,0,0,1,,,0,,,84,58
35962,note_on,,,,,12,0,2,,,0,,,77,57
35992,note_off,,,,,0,0,1,,,0,,,80,64
35992,note_off,,,,,30,0,1,,,0,,,84,64
35992,note_off,,,,,30,0,2,,,0,,,77,64
36000,note_on,,,,,8,0,2,,,0,,,77,52
36000,control_change,,,,,0,0,1,,,0,64,96,,
36000,note_on,,,,,8,0,1,,,0,,,84,63
36000,set_tempo,,,,,40,1,0,1276596,,,,,,
36020,set_tempo,,,,,20,1,0,1250000,,,,,,
36040,note_on,,,,,0,0,2,,,0,,,78,49
36040,note_off,,,,,40,0,2,,,0,,,77,64
36040,set_tempo,,,,,20,1,0,1224490,,,,,,
36040,note_on,,,,,0,0,1,,,0,,,96,61
36040,note_off,,,,,40,0,1,,,0,,,84,64
36060,set_tempo,,,,,20,1,0,1200000,,,,,,
36080,note_on,,,,,0,0,1,,,0,,,84,63
36080,note_off,,,,,40,0,2,,,0,,,78,64
36080,note_on,,,,,0,0,2,,,0,,,79,51
36080,note_off,,,,,40,0,1,,,0,,,96,64
36080,set_tempo,,,,,20,1,0,1176471,,,,,,
36120,set_tempo,,,,,40,1,0,1132075,,,,,,
36120,note_off,,,,,40,0,2,,,0,,,79,64
36120,note_on,,,,,0,0,2,,,0,,,80,54
36120,note_off,,,,,40,0,1,,,0,,,84,64
36120,note_on,,,,,0,0,1,,,0,,,96,67
36140,set_tempo,,,,,20,1,0,1090909,,,,,,
36160,note_on,,,,,0,0,1,,,0,,,84,68
36160,note_off,,,,,40,0,2,,,0,,,80,64
36160,note_on,,,,,0,0,2,,,0,,,79,56
36160,note_off,,,,,40,0,1,,,0,,,96,64
36160,set_tempo,,,,,20,1,0,1071429,,,,,,
36200,note_off,,,,,40,0,2,,,0,,,79,64
36200,note_off,,,,,40,0,1,,,0,,,84,64
36202,note_on,,,,,2,0,2,,,0,,,80,60
36202,note_on,,,,,2,0,1,,,0,,,96,74
36220,set_tempo,,,,,60,1,0,1034483,,,,,,
36242,note_off,,,,,40,0,2,,,0,,,80,64
36242,note_off,,,,,40,0,1,,,0,,,96,64
36242,note_on,,,,,0,0,1,,,0,,,84,78
36242,note_on,,,,,0,0,2,,,0,,,82,60
36260,set_tempo,,,,,40,1,0,1016949,,,,,,
36280,set_tempo,,,,,20,1,0,1000000,,,,,,
36282,note_on,,,,,0,0,1,,,0,,,96,83
36282,note_on,,,,,0,0,2,,,0,,,79,64
36282,note_off,,,,,40,0,1,,,0,,,84,64
36282,note_off,,,,,40,0,2,,,0,,,82,64
36322,note_off,,,,,40,0,2,,,0,,,79,64
36322,note_on,,,,,0,0,1,,,0,,,84,88
36322,note_off,,,,,40,0,1,,,0,,,96,64
36322,note_on,,,,,0,0,2,,,0,,,80,67
36362,note_off,,,,,40,0,2,,,0,,,80,64
36362,note_on,,,,,0,0,1,,,0,,,96,91
36362,note_off,,,,,40,0,1,,,0,,,84,64
36362,note_on,,,,,0,0,2,,,0,,,82,70
36402,note_on,,,,,0,0,1,,,0,,,84,95
36402,note_off,,,,,40,0,1,,,0,,,96,64
36402,note_on,,,,,0,0,2,,,0,,,79,73
36402,note_off,,,,,40,0,2,,,0,,,82,64
36442,note_on,,,,,0,0,1,,,0,,,96,99
36442,note_on,,,,,0,0,2,,,0,,,80,76
36442,note_off,,,,,40,0,1,,,0,,,84,64
36442,note_off,,,,,40,0,2,,,0,,,79,64
36460,set_tempo,,,,,180,1,0,1016949,,,,,,
36482,note_off,,,,,40,0,2,,,0,,,80,64
36482,note_on,,,,,0,0,2,,,0,,,82,79
36482,note_off,,,,,40,0,1,,,0,,,96,64
36482,note_on,,,,,0,0,1,,,0,,,84,103
36522,note_on,,,,,0,0,1,,,0,,,96,103
36522,note_on,,,,,0,0,2,,,0,,,79,79
36522,note_off,,,,,40,0,1,,,0,,,84,64
36522,note_off,,,,,40,0,2,,,0,,,82,64
36562,note_off,,,,,40,0,2,,,0,,,79,64
36562,note_on,,,,,0,0,1,,,0,,,84,107
36562,note_off,,,,,40,0,1,,,0,,,96,64
36562,note_on,,,,,0,0,2,,,0,,,80,84
36600,set_tempo,,,,,140,1,0,1052632,,,,,,
36602,note_off,,,,,40,0,2,,,0,,,80,64
36602,note_off,,,,,40,0,1,,,0,,,84,64
36604,note_on,,,,,2,0,2,,,0,,,82,99
36604,note_on,,,,,2,0,1,,,0,,,96,111
36620,set_tempo,,,,,20,1,0,1071429,,,,,,
36644,note_off,,,,,40,0,2,,,0,,,82,64
36644,note_off,,,,,40,0,1,,,0,,,96,64
36644,note_on,,,,,0,0,1,,,0,,,84,106
36644,note_on,,,,,0,0,2,,,0,,,79,89
36684,note_off,,,,,40,0,2,,,0,,,79,64
36684,note_on,,,,,0,0,2,,,0,,,80,87
36684,note_off,,,,,40,0,1,,,0,,,84,64
36684,note_on,,,,,0,0,1,,,0,,,96,102
36710,control_change,,,,,26,0,1,,,0,64,0,,
36714,note_off,,,,,30,0,2,,,0,,,80,64
36714,note_off,,,,,4,0,1,,,0,,,96,64
36720,note_on,,,,,6,0,2,,,0,,,42,97
36720,note_on,,,,,6,0,1,,,0,,,85,113
36740,set_tempo,,,,,120,1,0,1090909,,,,,,
36760,note_on,,,,,0,0,1,,,0,,,97,99
36760,note_off,,,,,40,0,2,,,0,,,42,64
36760,note_on,,,,,0,0,2,,,0,,,43,86
36760,note_off,,,,,40,0,1,,,0,,,85,64
36800,set_tempo,,,,,60,1,0,1071429,,,,,,
36800,note_off,,,,,40,0,1,,,0,,,97,64
36800,note_off,,,,,40,0,2,,,0,,,43,64
36800,note_on,,,,,0,0,2,,,0,,,44,88
36800,note_on,,,,,0,0,1,,,0,,,85,101
36840,note_off,,,,,40,0,2,,,0,,,44,64
36840,note_on,,,,,0,0,2,,,0,,,45,90
36840,note_on,,,,,0,0,1,,,0,,,97,103
36840,note_off,,,,,40,0,1,,,0,,,85,64
36880,note_on,,,,,0,0,1,,,0,,,85,104
36880,note_off,,,,,40,0,1,,,0,,,97,64
36880,note_on,,,,,0,0,2,,,0,,,44,94
36880,note_off,,,,,40,0,2,,,0,,,45,64
36920,note_off,,,,,40,0,1,,,0,,,85,64
36920,note_off,,,,,40,0,2,,,0,,,44,64
36922,note_on,,,,,2,0,1,,,0,,,97,107
36922,note_on,,,,,2,0,2,,,0,,,45,95
36962,note_on,,,,,0,0,1,,,0,,,85,109
36962,note_on,,,,,0,0,2,,,0,,,47,97
36962,note_off,,,,,40,0,2,,,0,,,45,64
36962,note_off,,,,,40,0,1,,,0,,,97,64
37002,note_on,,,,,0,0,1,,,0,,,97,109
37002,note_off,,,,,40,0,1,,,0,,,85,64
37002,note_off,,,,,40,0,2,,,0,,,47,64
37002,note_on,,,,,0,0,2,,,0,,,44,99
37042,note_on,,,,,0,0,1,,,0,,,85,111
37042,note_off,,,,,40,0,1,,,0,,,97,64
37042,note_off,,,,,40,0,2,,,0,,,44,64
37042,note_on,,,,,0,0,2,,,0,,,45,103
37082,note_on,,,,,0,0,1,,,0,,,97,111
37082,note_off,,,,,40,0,1,,,0,,,85,64
37082,note_off,,,,,40,0,2,,,0,,,45,64
37082,note_on,,,,,0,0,2,,,0,,,47,105
37122,note_on,,,,,0,0,1,,,0,,,85,114
37122,note_off,,,,,40,0,1,,,0,,,97,64
37122,note_on,,,,,0,0,2,,,0,,,44,108
37122,note_off,,,,,40,0,2,,,0,,,47,64
37162,note_on,,,,,0,0,2,,,0,,,45,112
37162,note_on,,,,,0,0,1,,,0,,,97,116
37162,note_off,,,,,40,0,2,,,0,,,44,64
37162,note_off,,,,,40,0,1,,,0,,,85,64
37202,note_off,,,,,40,0,1,,,0,,,97,64
37202,note_on,,,,,0,0,1,,,0,,,85,118
37202,note_off,,,,,40,0,2,,,0,,,45,64
37202,note_on,,,,,0,0,2,,,0,,,47,114
37242,note_on,,,,,0,0,1,,,0,,,97,119
37242,note_off,,,,,40,0,1,,,0,,,85,64
37242,note_off,,,,,40,0,2,,,0,,,47,64
37242,note_on,,,,,0,0,2,,,0,,,44,117
37282,note_on,,,,,0,0,2,,,0,,,45,120
37282,note_off,,,,,40,0,2,,,0,,,44,64
37282,note_off,,,,,40,0,1,,,0,,,97,64
37282,note_on,,,,,0,0,1,,,0,,,85,121
37322,note_off,,,,,40,0,2,,,0,,,45,64
37322,note_off,,,,,40,0,1,,,0,,,85,64
37324,note_on,,,,,2,0,2,,,0,,,47,122
37324,note_on,,,,,2,0,1,,,0,,,97,122
37364,note_on,,,,,0,0,2,,,0,,,44,117
37364,note_off,,,,,40,0,2,,,0,,,47,64
37364,note_off,,,,,40,0,1,,,0,,,97,64
37364,note_on,,,,,0,0,1,,,0,,,85,116
37404,note_on,,,,,0,0,2,,,0,,,45,109
37404,note_off,,,,,40,0,1,,,0,,,85,64
37404,note_off,,,,,40,0,2,,,0,,,44,64
37404,note_on,,,,,0,0,1,,,0,,,97,111
37420,set_tempo,,,,,620,1,0,1052632,,,,,,
37434,note_off,,,,,30,0,1,,,0,,,97,64
37434,note_off,,,,,30,0,2,,,0,,,45,64
37440,note_on,,,,,6,0,1,,,0,,,85,127
37440,set_tempo,,,,,20,1,0,1034483,,,,,,
37440,note_on,,,,,6,0,2,,,0,,,47,117
37480,note_on,,,,,0,0,2,,,0,,,44,117
37480,set_tempo,,,,,40,1,0,1016949,,,,,,
37480,note_off,,,,,40,0,2,,,0,,,47,64
37480,note_on,,,,,0,0,1,,,0,,,97,119
37480,note_off,,,,,40,0,1,,,0,,,85,64
37520,set_tempo,,,,,40,1,0,1034483,,,,,,
37520,note_on,,,,,0,0,1,,,0,,,85,116
37520,note_off,,,,,40,0,1,,,0,,,97,64
37520,note_off,,,,,40,0,2,,,0,,,44,64
37520,note_on,,,,,0,0,2,,,0,,,45,114
37560,note_off,,,,,40,0,1,,,0,,,85,64
37560,note_off,,,,,40,0,2,,,0,,,45,64
37560,note_on,,,,,0,0,2,,,0,,,50,124
37560,note_on,,,,,0,0,1,,,0,,,81,126
37600,note_off,,,,,40,0,1,,,0,,,81,64
37600,note_on,,,,,0,0,2,,,0,,,48,111
37600,note_on,,,,,0,0,1,,,0,,,93,115
37600,note_off,,,,,40,0,2,,,0,,,50,64
37600,set_tempo,,,,,80,1,0,1052632,,,,,,
37620,set_tempo,,,,,20,1,0,1071429,,,,,,
37640,note_off,,,,,40,0,1,,,0,,,93,64
37640,note_off,,,,,40,0,2,,,0,,,48,64
37642,note_on,,,,,2,0,2,,,0,,,49,109
37642,note_on,,,,,2,0,1,,,0,,,81,114
37682,note_on,,,,,0,0,1,,,0,,,78,125
37682,note_off,,,,,40,0,1,,,0,,,81,64
37682,note_off,,,,,40,0,2,,,0,,,49,64
37682,note_on,,,,,0,0,2,,,0,,,56,121
37722,note_on,,,,,0,0,1,,,0,,,90,112
37722,note_off,,,,,40,0,1,,,0,,,78,64
37722,note_on,,,,,0,0,2,,,0,,,53,106
37722,note_off,,,,,40,0,2,,,0,,,56,64
37762,note_on,,,,,0,0,1,,,0,,,78,111
37762,note_off,,,,,40,0,2,,,0,,,53,64
37762,note_on,,,,,0,0,2,,,0,,,54,106
37762,note_off,,,,,40,0,1,,,0,,,90,64
37780,set_tempo,,,,,160,1,0,1090909,,,,,,
37802,note_off,,,,,40,0,2,,,0,,,54,64
37802,note_off,,,,,40,0,1,,,0,,,78,64
37802,note_on,,,,,0,0,1,,,0,,,73,125
37802,note_on,,,,,0,0,2,,,0,,,59,121
37842,note_off,,,,,40,0,1,,,0,,,73,64
37842,note_on,,,,,0,0,1,,,0,,,85,109
37842,note_off,,,,,40,0,2,,,0,,,59,64
37842,note_on,,,,,0,0,2,,,0,,,56,104
37860,set_tempo,,,,,80,1,0,1111111,,,,,,
37882,note_on,,,,,0,0,1,,,0,,,73,108
37882,note_on,,,,,0,0,2,,,0,,,57,101
37882,note_off,,,,,40,0,1,,,0,,,85,64
37882,note_off,,,,,40,0,2,,,0,,,56,64
37922,note_off,,,,,40,0,2,,,0,,,57,64
37922,note_on,,,,,0,0,2,,,0,,,62,116
37922,note_on,,,,,0,0,1,,,0,,,69,122
37922,note_off,,,,,40,0,1,,,0,,,73,64
37940,set_tempo,,,,,80,1,0,1132075,,,,,,
37962,note_on,,,,,0,0,1,,,0,,,81,107
37962,note_off,,,,,40,0,1,,,0,,,69,64
37962,note_off,,,,,40,0,2,,,0,,,62,64
37962,note_on,,,,,0,0,2,,,0,,,60,99
38002,note_on,,,,,0,0,1,,,0,,,69,104
38002,note_off,,,,,40,0,1,,,0,,,81,64
38002,note_off,,,,,40,0,2,,,0,,,60,64
38002,note_on,,,,,0,0,2,,,0,,,61,99
38020,set_tempo,,,,,80,1,0,1153846,,,,,,
38040,set_tempo,,,,,20,1,0,1176471,,,,,,
38042,note_off,,,,,40,0,1,,,0,,,69,64
38042,note_off,,,,,40,0,2,,,0,,,61,64
38044,note_on,,,,,2,0,2,,,0,,,68,114
38044,note_on,,,,,2,0,1,,,0,,,80,122
38084,note_off,,,,,40,0,1,,,0,,,80,64
38084,note_on,,,,,0,0,2,,,0,,,65,98
38084,note_off,,,,,40,0,2,,,0,,,68,64
38084,note_on,,,,,0,0,1,,,0,,,77,102
38100,set_tempo,,,,,60,1,0,1224490,,,,,,
38120,set_tempo,,,,,20,1,0,1428571,,,,,,
38124,note_on,,,,,0,0,1,,,0,,,78,102
38124,note_off,,,,,40,0,2,,,0,,,65,64
38124,note_on,,,,,0,0,2,,,0,,,66,98
38124,note_off,,,,,40,0,1,,,0,,,77,64
38140,set_tempo,,,,,20,1,0,1578947,,,,,,
38160,note_on,,,,,36,0,2,,,0,,,56,47
38160,note_on,,,,,0,0,2,,,0,,,52,47
38160,control_change,,,,,0,0,1,,,0,64,96,,
38160,note_on,,,,,36,0,1,,,0,,,100,122
38160,note_on,,,,,0,0,2,,,0,,,49,47
38160,set_tempo,,,,,20,1,0,1132075,,,,,,
38160,note_on,,,,,0,0,2,,,0,,,44,47
38164,note_off,,,,,4,0,2,,,0,,,66,64
38164,note_off,,,,,4,0,1,,,0,,,78,64
38178,note_off,,,,,14,0,1,,,0,,,100,64
38178,note_on,,,,,0,0,1,,,0,,,99,122
38180,set_tempo,,,,,20,1,0,1111111,,,,,,
38196,note_off,,,,,18,0,1,,,0,,,99,64
38198,note_on,,,,,2,0,1,,,0,,,97,122
38216,note_off,,,,,18,0,1,,,0,,,97,64
38216,note_on,,,,,0,0,1,,,0,,,95,122
38234,note_off,,,,,18,0,1,,,0,,,95,64
38236,note_on,,,,,2,0,1,,,0,,,93,119
38254,note_off,,,,,18,0,1,,,0,,,93,64
38254,note_on,,,,,0,0,1,,,0,,,92,118
38272,note_off,,,,,18,0,1,,,0,,,92,64
38274,note_on,,,,,2,0,1,,,0,,,90,116
38292,note_off,,,,,18,0,1,,,0,,,90,64
38292,note_on,,,,,0,0,1,,,0,,,88,115
38310,note_off,,,,,18,0,1,,,0,,,88,64
38312,note_on,,,,,2,0,1,,,0,,,87,114
38330,note_off,,,,,18,0,1,,,0,,,87,64
38330,note_on,,,,,0,0,1,,,0,,,85,112
38348,note_off,,,,,18,0,1,,,0,,,85,64
38350,note_on,,,,,2,0,1,,,0,,,83,112
38368,note_off,,,,,18,0,1,,,0,,,83,64
38368,note_on,,,,,0,0,1,,,0,,,81,110
38386,note_on,,,,,0,0,1,,,0,,,80,109
38386,note_off,,,,,18,0,1,,,0,,,81,64
38404,note_off,,,,,18,0,1,,,0,,,80,64
38406,note_on,,,,,2,0,1,,,0,,,78,107
38424,note_off,,,,,18,0,1,,,0,,,78,64
38424,note_on,,,,,0,0,1,,,0,,,76,107
38442,note_off,,,,,18,0,1,,,0,,,76,64
38444,note_on,,,,,2,0,1,,,0,,,75,106
38462,note_on,,,,,0,0,1,,,0,,,73,104
38462,note_off,,,,,18,0,1,,,0,,,75,64
38480,note_off,,,,,18,0,1,,,0,,,73,64
38482,note_on,,,,,2,0,1,,,0,,,71,103
38500,note_on,,,,,0,0,1,,,0,,,69,100
38500,note_off,,,,,18,0,1,,,0,,,71,64
38520,set_tempo,,,,,340,1,0,952381,,,,,,
38520,note_on,,,,,0,0,1,,,0,,,68,100
38520,note_on,,,,,0,0,2,,,0,,,56,99
38520,note_off,,,,,0,0,2,,,0,,,56,64
38520,note_off,,,,,0,0,2,,,0,,,52,64
38520,note_off,,,,,0,0,2,,,0,,,49,64
38520,note_off,,,,,20,0,1,,,0,,,69,64
38520,note_off,,,,,356,0,2,,,0,,,44,64
38546,note_off,,,,,26,0,1,,,0,,,68,64
38546,note_on,,,,,0,0,1,,,0,,,66,101
38546,note_off,,,,,26,0,2,,,0,,,56,64
38546,note_on,,,,,0,0,2,,,0,,,54,100
38560,set_tempo,,,,,40,1,0,937500,,,,,,
38572,note_off,,,,,26,0,1,,,0,,,66,64
38572,note_on,,,,,0,0,1,,,0,,,64,101
38572,note_off,,,,,26,0,2,,,0,,,54,64
38572,note_on,,,,,0,0,2,,,0,,,52,101
38598,note_on,,,,,0,0,1,,,0,,,63,101
38598,note_off,,,,,26,0,1,,,0,,,64,64
38598,note_on,,,,,0,0,2,,,0,,,51,102
38598,note_off,,,,,26,0,2,,,0,,,52,64
38624,note_off,,,,,26,0,2,,,0,,,51,64
38624,note_on,,,,,0,0,1,,,0,,,61,104
38624,note_off,,,,,26,0,1,,,0,,,63,64
38624,note_on,,,,,0,0,2,,,0,,,49,104
38640,set_tempo,,,,,80,1,0,923077,,,,,,
38650,note_off,,,,,26,0,2,,,0,,,49,64
38650,note_on,,,,,0,0,1,,,0,,,59,105
38650,note_off,,,,,26,0,1,,,0,,,61,64
38650,note_on,,,,,0,0,2,,,0,,,47,105
38674,note_on,,,,,24,0,2,,,0,,,45,107
38674,note_on,,,,,24,0,1,,,0,,,57,107
38676,note_off,,,,,2,0,2,,,0,,,47,64
38676,note_off,,,,,2,0,1,,,0,,,59,64
38700,note_on,,,,,0,0,1,,,0,,,56,109
38700,note_off,,,,,24,0,2,,,0,,,45,64
38700,note_on,,,,,0,0,2,,,0,,,44,108
38700,set_tempo,,,,,60,1,0,909091,,,,,,
38700,note_off,,,,,24,0,1,,,0,,,57,64
38726,note_off,,,,,26,0,1,,,0,,,56,64
38726,note_off,,,,,26,0,2,,,0,,,44,64
38726,note_on,,,,,0,0,2,,,0,,,42,110
38726,note_on,,,,,0,0,1,,,0,,,54,110
38740,set_tempo,,,,,40,1,0,895522,,,,,,
38752,note_off,,,,,26,0,2,,,0,,,42,64
38752,note_on,,,,,0,0,2,,,0,,,40,111
38752,note_off,,,,,26,0,1,,,0,,,54,64
38752,note_on,,,,,0,0,1,,,0,,,52,111
38778,note_off,,,,,26,0,1,,,0,,,52,64
38778,note_on,,,,,0,0,1,,,0,,,51,111
38778,note_on,,,,,0,0,2,,,0,,,39,112
38778,note_off,,,,,26,0,2,,,0,,,40,64
38780,set_tempo,,,,,40,1,0,882353,,,,,,
38800,set_tempo,,,,,20,1,0,869565,,,,,,
38804,note_on,,,,,0,0,1,,,0,,,49,114
38804,note_off,,,,,26,0,1,,,0,,,51,64
38804,note_off,,,,,26,0,2,,,0,,,39,64
38804,note_on,,,,,0,0,2,,,0,,,37,113
38830,note_on,,,,,0,0,1,,,0,,,47,115
38830,note_off,,,,,26,0,2,,,0,,,37,64
38830,note_on,,,,,0,0,2,,,0,,,35,115
38830,note_off,,,,,26,0,1,,,0,,,49,64
38840,set_tempo,,,,,40,1,0,857143,,,,,,
38856,note_on,,,,,0,0,1,,,0,,,45,116
38856,note_off,,,,,26,0,2,,,0,,,35,64
38856,note_on,,,,,0,0,2,,,0,,,33,116
38856,note_off,,,,,26,0,1,,,0,,,47,64
38870,control_change,,,,,14,0,1,,,0,64,0,,
38880,control_change,,,,,0,0,1,,,0,64,96,,
38880,note_off,,,,,10,0,1,,,0,,,45,64
38880,note_off,,,,,24,0,2,,,0,,,33,64
38880,note_on,,,,,0,0,2,,,0,,,32,116
38880,note_on,,,,,0,0,1,,,0,,,44,119
38910,note_off,,,,,30,0,2,,,0,,,32,64
38910,note_on,,,,,0,0,2,,,0,,,31,106
38920,set_tempo,,,,,80,1,0,1071429,,,,,,
38924,note_off,,,,,44,0,1,,,0,,,44,64
38940,note_on,,,,,16,0,1,,,0,,,56,109
38940,note_on,,,,,0,0,1,,,0,,,52,109
38940,note_on,,,,,0,0,1,,,0,,,49,109
38940,note_off,,,,,30,0,2,,,0,,,31,64
38940,note_on,,,,,0,0,2,,,0,,,32,108
38970,note_on,,,,,0,0,2,,,0,,,31,111
38970,note_off,,,,,30,0,2,,,0,,,32,64
38980,set_tempo,,,,,60,1,0,1052632,,,,,,
38984,note_off,,,,,44,0,1,,,0,,,49,64
38984,note_off,,,,,0,0,1,,,0,,,56,64
38984,note_off,,,,,0,0,1,,,0,,,52,64
39000,note_on,,,,,0,0,1,,,0,,,56,111
39000,note_on,,,,,0,0,1,,,0,,,52,111
39000,note_on,,,,,0,0,2,,,0,,,32,113
39000,note_off,,,,,30,0,2,,,0,,,31,64
39000,note_on,,,,,16,0,1,,,0,,,61,111
39030,note_on,,,,,0,0,2,,,0,,,31,115
39030,note_off,,,,,30,0,2,,,0,,,32,64
39040,set_tempo,,,,,60,1,0,1034483,,,,,,
39044,note_off,,,,,44,0,1,,,0,,,52,64
39044,note_off,,,,,0,0,1,,,0,,,61,64
39044,note_off,,,,,0,0,1,,,0,,,56,64
39060,note_off,,,,,30,0,2,,,0,,,31,64
39060,note_on,,,,,0,0,2,,,0,,,32,116
39060,note_on,,,,,16,0,1,,,0,,,64,114
39060,note_on,,,,,0,0,1,,,0,,,61,114
39060,note_on,,,,,0,0,1,,,0,,,56,114
39090,note_off,,,,,30,0,2,,,0,,,32,64
39090,note_on,,,,,0,0,2,,,0,,,31,117
39100,set_tempo,,,,,60,1,0,1016949,,,,,,
39104,note_off,,,,,44,0,1,,,0,,,56,64
39104,note_off,,,,,0,0,1,,,0,,,61,64
39104,note_off,,,,,0,0,1,,,0,,,64,64
39120,note_off,,,,,30,0,2,,,0,,,31,64
39120,note_on,,,,,0,0,2,,,0,,,32,118
39120,note_on,,,,,0,0,1,,,0,,,61,118
39120,note_on,,,,,16,0,1,,,0,,,68,118
39120,note_on,,,,,0,0,1,,,0,,,64,118
39150,note_on,,,,,0,0,2,,,0,,,31,120
39150,note_off,,,,,30,0,2,,,0,,,32,64
39164,note_off,,,,,0,0,1,,,0,,,68,64
39164,note_off,,,,,0,0,1,,,0,,,64,64
39164,note_off,,,,,44,0,1,,,0,,,61,64
39180,note_on,,,,,0,0,1,,,0,,,64,120
39180,note_on,,,,,0,0,1,,,0,,,68,120
39180,note_on,,,,,16,0,1,,,0,,,73,120
39180,set_tempo,,,,,80,1,0,1000000,,,,,,
39180,note_off,,,,,30,0,2,,,0,,,31,64
39180,note_on,,,,,0,0,2,,,0,,,32,120
39210,note_off,,,,,30,0,2,,,0,,,32,64
39210,note_on,,,,,0,0,2,,,0,,,31,122
39224,note_off,,,,,0,0,1,,,0,,,68,64
39224,note_off,,,,,44,0,1,,,0,,,64,64
39224,note_off,,,,,0,0,1,,,0,,,73,64
39230,control_change,,,,,6,0,1,,,0,64,0,,
39240,note_off,,,,,30,0,2,,,0,,,31,64
39240,note_on,,,,,10,0,1,,,0,,,76,122
39240,note_on,,,,,0,0,1,,,0,,,73,122
39240,note_on,,,,,0,0,1,,,0,,,68,122
39240,control_change,,,,,0,0,1,,,0,64,96,,
39240,note_on,,,,,0,0,2,,,0,,,32,122
39270,note_off,,,,,30,0,2,,,0,,,32,64
39270,note_on,,,,,0,0,2,,,0,,,31,124
39284,note_off,,,,,44,0,1,,,0,,,68,64
39284,note_off,,,,,0,0,1,,,0,,,73,64
39284,note_off,,,,,0,0,1,,,0,,,76,64
39300,note_on,,,,,16,0,1,,,0,,,80,122
39300,note_on,,,,,0,0,1,,,0,,,73,122
39300,note_on,,,,,0,0,1,,,0,,,76,122
39300,note_off,,,,,30,0,2,,,0,,,31,64
39300,note_on,,,,,0,0,2,,,0,,,32,124
39330,note_off,,,,,30,0,2,,,0,,,32,64
39330,note_on,,,,,0,0,2,,,0,,,31,124
39344,note_off,,,,,0,0,1,,,0,,,80,64
39344,note_off,,,,,44,0,1,,,0,,,73,64
39344,note_off,,,,,0,0,1,,,0,,,76,64
39360,note_on,,,,,16,0,1,,,0,,,85,122
39360,note_off,,,,,30,0,2,,,0,,,31,64
39360,note_on,,,,,0,0,2,,,0,,,32,125
39360,note_on,,,,,0,0,1,,,0,,,80,122
39360,note_on,,,,,0,0,1,,,0,,,76,122
39390,note_off,,,,,30,0,2,,,0,,,32,64
39390,note_on,,,,,0,0,2,,,0,,,31,126
39400,set_tempo,,,,,220,1,0,983607,,,,,,
39404,note_off,,,,,0,0,1,,,0,,,85,64
39404,note_off,,,,,0,0,1,,,0,,,80,64
39404,note_off,,,,,44,0,1,,,0,,,76,64
39420,note_on,,,,,0,0,1,,,0,,,85,120
39420,note_off,,,,,30,0,2,,,0,,,31,64
39420,note_on,,,,,0,0,1,,,0,,,80,120
39420,note_on,,,,,16,0,1,,,0,,,88,120
39420,note_on,,,,,0,0,2,,,0,,,32,127
39450,note_off,,,,,30,0,2,,,0,,,32,64
39450,note_on,,,,,0,0,2,,,0,,,31,127
39464,note_off,,,,,44,0,1,,,0,,,80,64
39464,note_off,,,,,0,0,1,,,0,,,85,64
39464,note_off,,,,,0,0,1,,,0,,,88,64
39480,note_on,,,,,0,0,2,,,0,,,32,127
39480,set_tempo,,,,,80,1,0,967742,,,,,,
39480,note_on,,,,,0,0,1,,,0,,,85,118
39480,note_on,,,,,0,0,1,,,0,,,88,118
39480,note_on,,,,,16,0,1,,,0,,,92,118
39480,note_off,,,,,30,0,2,,,0,,,31,64
39500,set_tempo,,,,,20,1,0,952381,,,,,,
39510,note_off,,,,,30,0,2,,,0,,,32,64
39510,note_on,,,,,0,0,2,,,0,,,31,126
39524,note_off,,,,,44,0,1,,,0,,,85,64
39524,note_off,,,,,0,0,1,,,0,,,88,64
39524,note_off,,,,,0,0,1,,,0,,,92,64
39540,note_on,,,,,0,0,1,,,0,,,61,115
39540,note_off,,,,,30,0,2,,,0,,,31,64
39540,note_on,,,,,0,0,2,,,0,,,32,118
39540,note_on,,,,,0,0,1,,,0,,,64,115
39540,note_on,,,,,16,0,1,,,0,,,68,115
39570,note_on,,,,,0,0,2,,,0,,,31,111
39570,note_off,,,,,30,0,2,,,0,,,32,64
39570,control_change,,,,,30,0,1,,,0,64,0,,
39584,note_off,,,,,0,0,1,,,0,,,68,64
39584,note_off,,,,,0,0,1,,,0,,,64,64
39584,note_off,,,,,14,0,1,,,0,,,61,64
39600,note_on,,,,,0,0,2,,,0,,,32,112
39600,control_change,,,,,0,0,2,,,0,7,80,,
39600,note_off,,,,,30,0,2,,,0,,,31,64
39600,note_on,,,,,0,0,1,,,0,,,64,114
39600,control_change,,,,,0,0,1,,,0,64,96,,
39600,note_on,,,,,16,0,1,,,0,,,67,114
39600,note_on,,,,,0,0,1,,,0,,,61,114
39620,control_change,,,,,20,0,2,,,0,7,81,,
39630,note_off,,,,,10,0,2,,,0,,,32,64
39630,note_on,,,,,0,0,2,,,0,,,33,113
39640,set_tempo,,,,,140,1,0,937500,,,,,,
39642,control_change,,,,,12,0,2,,,0,7,82,,
39644,note_off,,,,,0,0,1,,,0,,,67,64
39644,note_off,,,,,0,0,1,,,0,,,64,64
39644,note_off,,,,,44,0,1,,,0,,,61,64
39660,note_on,,,,,0,0,2,,,0,,,32,113
39660,note_off,,,,,18,0,2,,,0,,,33,64
39660,note_on,,,,,16,0,1,,,0,,,79,114
39660,note_on,,,,,0,0,1,,,0,,,76,114
39660,note_on,,,,,0,0,1,,,0,,,73,114
39664,control_change,,,,,4,0,2,,,0,7,83,,
39680,set_tempo,,,,,40,1,0,952381,,,,,,
39686,control_change,,,,,22,0,2,,,0,7,84,,
39690,note_on,,,,,0,0,2,,,0,,,33,113
39690,note_off,,,,,4,0,2,,,0,,,32,64
39704,note_off,,,,,0,0,1,,,0,,,76,64
39704,note_off,,,,,0,0,1,,,0,,,79,64
39704,note_off,,,,,44,0,1,,,0,,,73,64
39706,control_change,,,,,16,0,2,,,0,7,85,,
39720,note_off,,,,,14,0,2,,,0,,,33,64
39720,note_on,,,,,0,0,1,,,0,,,67,115
39720,note_on,,,,,0,0,1,,,0,,,73,115
39720,note_on,,,,,16,0,1,,,0,,,76,115
39720,set_tempo,,,,,40,1,0,967742,,,,,,
39720,note_on,,,,,0,0,2,,,0,,,32,113
39728,control_change,,,,,8,0,2,,,0,7,86,,
39750,note_on,,,,,0,0,2,,,0,,,33,113
39750,control_change,,,,,0,0,2,,,0,7,87,,
39750,note_off,,,,,22,0,2,,,0,,,32,64
39764,note_off,,,,,0,0,1,,,0,,,76,64
39764,note_off,,,,,44,0,1,,,0,,,67,64
39764,note_off,,,,,0,0,1,,,0,,,73,64
39772,control_change,,,,,22,0,2,,,0,7,88,,
39780,note_on,,,,,0,0,1,,,0,,,64,117
39780,note_off,,,,,8,0,2,,,0,,,33,64
39780,note_on,,,,,0,0,2,,,0,,,32,114
39780,note_on,,,,,16,0,1,,,0,,,73,117
39780,note_on,,,,,0,0,1,,,0,,,67,117
39794,control_change,,,,,14,0,2,,,0,7,89,,
39810,note_off,,,,,16,0,2,,,0,,,32,64
39810,note_on,,,,,0,0,2,,,0,,,33,115
39814,control_change,,,,,4,0,2,,,0,7,90,,
39824,note_off,,,,,0,0,1,,,0,,,67,64
39824,note_off,,,,,44,0,1,,,0,,,64,64
39824,note_off,,,,,0,0,1,,,0,,,73,64
39836,control_change,,,,,22,0,2,,,0,7,91,,
39840,note_on,,,,,0,0,2,,,0,,,32,116
39840,note_off,,,,,4,0,2,,,0,,,33,64
39840,note_on,,,,,0,0,1,,,0,,,64,118
39840,note_on,,,,,0,0,1,,,0,,,61,118
39840,note_on,,,,,16,0,1,,,0,,,67,118
39840,set_tempo,,,,,120,1,0,1034483,,,,,,
39858,control_change,,,,,18,0,2,,,0,7,92,,
39860,set_tempo,,,,,20,1,0,1071429,,,,,,
39870,note_off,,,,,12,0,2,,,0,,,32,64
39870,note_on,,,,,0,0,2,,,0,,,33,116
39880,control_change,,,,,10,0,2,,,0,7,93,,
39884,note_off,,,,,0,0,1,,,0,,,64,64
39884,note_off,,,,,0,0,1,,,0,,,67,64
39884,note_off,,,,,44,0,1,,,0,,,61,64
39900,note_on,,,,,0,0,2,,,0,,,32,117
39900,note_on,,,,,16,0,1,,,0,,,76,120
39900,note_on,,,,,0,0,1,,,0,,,73,120
39900,note_on,,,,,0,0,1,,,0,,,67,120
39900,note_off,,,,,20,0,2,,,0,,,33,64
39900,control_change,,,,,0,0,2,,,0,7,94,,
39920,set_tempo,,,,,60,1,0,1090909,,,,,,
39922,control_change,,,,,22,0,2,,,0,7,95,,
39930,note_off,,,,,8,0,2,,,0,,,32,64
39930,note_on,,,,,0,0,2,,,0,,,33,117
39940,control_change,,,,,40,0,1,,,0,64,0,,
39944,note_off,,,,,0,0,1,,,0,,,76,64
39944,note_off,,,,,0,0,1,,,0,,,73,64
39944,note_off,,,,,4,0,1,,,0,,,67,64
39944,control_change,,,,,14,0,2,,,0,7,96,,
39960,note_on,,,,,0,0,2,,,0,,,33,118
39960,control_change,,,,,0,0,1,,,0,64,96,,
39960,note_off,,,,,16,0,2,,,0,,,33,64
39960,note_on,,,,,16,0,1,,,0,,,76,122
39960,note_on,,,,,0,0,1,,,0,,,67,122
39960,note_on,,,,,0,0,1,,,0,,,73,122
39966,control_change,,,,,6,0,2,,,0,7,97,,
39980,set_tempo,,,,,60,1,0,1111111,,,,,,
39988,control_change,,,,,22,0,2,,,0,7,98,,
39990,note_off,,,,,2,0,2,,,0,,,33,64
39990,note_on,,,,,0,0,2,,,0,,,34,119
40004,note_off,,,,,0,0,1,,,0,,,76,64
40004,note_off,,,,,0,0,1,,,0,,,73,64
40004,note_off,,,,,44,0,1,,,0,,,67,64
40008,control_change,,,,,18,0,2,,,0,7,99,,
40020,note_on,,,,,0,0,1,,,0,,,73,124
40020,note_on,,,,,0,0,1,,,0,,,67,124
40020,note_on,,,,,16,0,1,,,0,,,64,124
40020,set_tempo,,,,,40,1,0,1132075,,,,,,
40020,note_off,,,,,12,0,2,,,0,,,34,64
40020,note_on,,,,,0,0,2,,,0,,,33,119
40030,control_change,,,,,10,0,2,,,0,7,100,,
40040,set_tempo,,,,,20,1,0,1153846,,,,,,
40050,note_off,,,,,20,0,2,,,0,,,33,64
40050,note_on,,,,,0,0,2,,,0,,,34,120
40052,control_change,,,,,2,0,2,,,0,7,101,,
40060,set_tempo,,,,,20,1,0,1176471,,,,,,
40064,note_off,,,,,44,0,1,,,0,,,73,64
40064,note_off,,,,,0,0,1,,,0,,,67,64
40064,note_off,,,,,0,0,1,,,0,,,64,64
40074,control_change,,,,,22,0,2,,,0,7,102,,
40080,note_on,,,,,0,0,1,,,0,,,79,125
40080,note_on,,,,,0,0,2,,,0,,,33,121
40080,note_on,,,,,16,0,1,,,0,,,73,125
40080,note_on,,,,,0,0,1,,,0,,,76,125
40080,note_off,,,,,6,0,2,,,0,,,34,64
40094,control_change,,,,,14,0,2,,,0,7,103,,
40100,set_tempo,,,,,40,1,0,1200000,,,,,,
40110,note_on,,,,,0,0,2,,,0,,,34,121
40110,note_off,,,,,16,0,2,,,0,,,33,64
40116,control_change,,,,,6,0,2,,,0,7,104,,
40124,note_off,,,,,44,0,1,,,0,,,79,64
40124,note_off,,,,,0,0,1,,,0,,,76,64
40124,note_off,,,,,0,0,1,,,0,,,73,64
40138,control_change,,,,,22,0,2,,,0,7,105,,
40140,note_off,,,,,2,0,2,,,0,,,34,64
40140,note_on,,,,,0,0,2,,,0,,,33,121
40140,note_on,,,,,0,0,1,,,0,,,73,127
40140,note_on,,,,,16,0,1,,,0,,,67,127
40140,note_on,,,,,0,0,1,,,0,,,76,127
40160,control_change,,,,,20,0,2,,,0,7,106,,
40170,note_on,,,,,0,0,2,,,0,,,34,123
40170,note_off,,,,,10,0,2,,,0,,,33,64
40180,set_tempo,,,,,80,1,0,1224490,,,,,,
40182,control_change,,,,,12,0,2,,,0,7,107,,
40184,note_off,,,,,0,0,1,,,0,,,73,64
40184,note_off,,,,,44,0,1,,,0,,,76,64
40184,note_off,,,,,0,0,1,,,0,,,67,64
40200,note_on,,,,,0,0,2,,,0,,,33,124
40200,note_off,,,,,18,0,2,,,0,,,34,64
40200,note_on,,,,,16,0,1,,,0,,,76,127
40200,note_on,,,,,0,0,1,,,0,,,79,127
40200,note_on,,,,,0,0,1,,,0,,,85,127
40202,control_change,,,,,2,0,2,,,0,7,108,,
40224,control_change,,,,,22,0,2,,,0,7,109,,
40230,note_on,,,,,0,0,2,,,0,,,34,125
40230,note_off,,,,,6,0,2,,,0,,,33,64
40244,note_off,,,,,0,0,1,,,0,,,76,64
40244,note_off,,,,,0,0,1,,,0,,,79,64
40244,note_off,,,,,44,0,1,,,0,,,85,64
40246,control_change,,,,,16,0,2,,,0,7,110,,
40260,note_on,,,,,0,0,1,,,0,,,88,127
40260,note_on,,,,,0,0,1,,,0,,,97,127
40260,set_tempo,,,,,80,1,0,1250000,,,,,,
40260,note_off,,,,,14,0,2,,,0,,,34,64
40260,note_on,,,,,0,0,2,,,0,,,33,125
40260,note_on,,,,,16,0,1,,,0,,,91,127
40268,control_change,,,,,8,0,2,,,0,7,111,,
40290,control_change,,,,,0,0,2,,,0,7,112,,
40290,note_off,,,,,22,0,2,,,0,,,33,64
40290,note_on,,,,,0,0,2,,,0,,,34,127
40300,control_change,,,,,40,0,1,,,0,64,0,,
40304,note_off,,,,,0,0,1,,,0,,,91,64
40304,note_off,,,,,0,0,1,,,0,,,88,64
40304,note_off,,,,,4,0,1,,,0,,,97,64
40310,control_change,,,,,20,0,2,,,0,7,113,,
40320,note_off,,,,,10,0,2,,,0,,,34,64
40320,note_on,,,,,0,0,2,,,0,,,34,125
40320,note_on,,,,,16,0,1,,,0,,,88,127
40320,set_tempo,,,,,60,1,0,1176471,,,,,,
40330,control_change,,,,,10,0,2,,,0,7,113,,
40336,note_off,,,,,16,0,1,,,0,,,88,64
40336,note_on,,,,,0,0,1,,,0,,,90,127
40350,note_on,,,,,0,0,2,,,0,,,35,124
40350,note_off,,,,,20,0,2,,,0,,,34,64
40352,note_off,,,,,16,0,1,,,0,,,90,64
40352,note_on,,,,,0,0,1,,,0,,,91,126
40368,note_off,,,,,16,0,1,,,0,,,91,64
40368,note_on,,,,,0,0,1,,,0,,,93,126
40380,note_on,,,,,0,0,2,,,0,,,34,122
40380,note_off,,,,,30,0,2,,,0,,,35,64
40384,note_on,,,,,0,0,1,,,0,,,95,125
40384,note_off,,,,,16,0,1,,,0,,,93,64
40400,note_off,,,,,16,0,1,,,0,,,95,64
40402,note_on,,,,,2,0,1,,,0,,,93,124
40410,note_on,,,,,0,0,2,,,0,,,35,121
40410,note_off,,,,,30,0,2,,,0,,,34,64
40418,note_off,,,,,16,0,1,,,0,,,93,64
40418,note_on,,,,,0,0,1,,,0,,,91,124
40434,note_off,,,,,16,0,1,,,0,,,91,64
40434,note_on,,,,,0,0,1,,,0,,,90,124
40440,note_off,,,,,30,0,2,,,0,,,35,64
40440,note_on,,,,,0,0,2,,,0,,,34,119
40450,note_off,,,,,16,0,1,,,0,,,90,64
40450,note_on,,,,,0,0,1,,,0,,,88,124
40466,note_on,,,,,0,0,1,,,0,,,86,122
40466,note_off,,,,,16,0,1,,,0,,,88,64
40470,note_off,,,,,30,0,2,,,0,,,34,64
40470,note_on,,,,,0,0,2,,,0,,,35,117
40482,note_on,,,,,0,0,1,,,0,,,84,119
40482,note_off,,,,,16,0,1,,,0,,,86,64
40498,note_off,,,,,16,0,1,,,0,,,84,64
40498,note_on,,,,,0,0,1,,,0,,,83,119
40500,note_off,,,,,30,0,2,,,0,,,35,64
40500,note_on,,,,,0,0,2,,,0,,,34,114
40514,note_off,,,,,16,0,1,,,0,,,83,64
40514,note_on,,,,,0,0,1,,,0,,,81,119
40530,note_off,,,,,16,0,1,,,0,,,81,64
40530,note_on,,,,,0,0,1,,,0,,,79,117
40530,note_on,,,,,0,0,2,,,0,,,35,113
40530,note_off,,,,,30,0,2,,,0,,,34,64
40546,note_on,,,,,0,0,1,,,0,,,78,117
40546,note_off,,,,,16,0,1,,,0,,,79,64
40560,note_on,,,,,0,0,2,,,0,,,34,110
40560,note_off,,,,,30,0,2,,,0,,,35,64
40562,note_off,,,,,16,0,1,,,0,,,78,64
40564,note_on,,,,,2,0,1,,,0,,,76,111
40580,note_off,,,,,16,0,1,,,0,,,76,64
40580,note_on,,,,,0,0,1,,,0,,,74,109
40590,note_on,,,,,0,0,2,,,0,,,35,106
40590,note_off,,,,,30,0,2,,,0,,,34,64
40596,note_off,,,,,16,0,1,,,0,,,74,64
40596,note_on,,,,,0,0,1,,,0,,,72,109
40612,note_off,,,,,16,0,1,,,0,,,72,64
40612,note_on,,,,,0,0,1,,,0,,,71,108
40620,note_on,,,,,0,0,2,,,0,,,34,103
40620,note_off,,,,,30,0,2,,,0,,,35,64
40628,note_off,,,,,16,0,1,,,0,,,71,64
40628,note_on,,,,,0,0,1,,,0,,,69,108
40644,note_off,,,,,16,0,1,,,0,,,69,64
40644,note_on,,,,,0,0,1,,,0,,,67,104
40650,note_on,,,,,0,0,2,,,0,,,35,102
40650,note_off,,,,,30,0,2,,,0,,,34,64
40662,note_on,,,,,0,0,1,,,0,,,66,103
40662,note_off,,,,,18,0,1,,,0,,,67,64
40680,note_off,,,,,18,0,1,,,0,,,66,64
40680,note_off,,,,,30,0,2,,,0,,,35,64
40680,note_on,,,,,0,0,2,,,0,,,36,100
40680,note_on,,,,,0,0,1,,,0,,,64,114
40710,note_on,,,,,0,0,2,,,0,,,37,102
40710,note_off,,,,,30,0,2,,,0,,,36,64
40720,set_tempo,,,,,400,1,0,1153846,,,,,,
40740,note_on,,,,,0,0,2,,,0,,,38,104
40740,note_on,,,,,0,0,1,,,0,,,64,127
40740,note_on,,,,,0,0,1,,,0,,,76,127
40740,note_off,,,,,30,0,2,,,0,,,37,64
40740,note_off,,,,,60,0,1,,,0,,,64,64
40740,set_tempo,,,,,20,1,0,1111111,,,,,,
40770,note_on,,,,,0,0,2,,,0,,,39,107
40770,note_off,,,,,30,0,2,,,0,,,38,64
40780,set_tempo,,,,,40,1,0,1090909,,,,,,
40800,note_off,,,,,30,0,2,,,0,,,39,64
40800,note_on,,,,,0,0,2,,,0,,,40,109
40820,set_tempo,,,,,40,1,0,1071429,,,,,,
40830,note_off,,,,,30,0,2,,,0,,,40,64
40830,note_on,,,,,0,0,2,,,0,,,41,112
40860,note_off,,,,,120,0,1,,,0,,,76,64
40860,note_off,,,,,0,0,1,,,0,,,64,64
40860,note_on,,,,,0,0,1,,,0,,,88,117
40860,note_on,,,,,0,0,1,,,0,,,76,117
40860,note_off,,,,,30,0,2,,,0,,,41,64
40860,note_on,,,,,0,0,2,,,0,,,42,113
40880,set_tempo,,,,,60,1,0,1034483,,,,,,
40890,note_off,,,,,30,0,2,,,0,,,42,64
40890,note_on,,,,,0,0,2,,,0,,,43,115
40920,set_tempo,,,,,40,1,0,1016949,,,,,,
40920,note_on,,,,,0,0,2,,,0,,,44,117
40920,note_off,,,,,30,0,2,,,0,,,43,64
40950,note_on,,,,,0,0,2,,,0,,,45,119
40950,note_off,,,,,30,0,2,,,0,,,44,64
40980,note_off,,,,,120,0,1,,,0,,,76,64
40980,set_tempo,,,,,60,1,0,1000000,,,,,,
40980,note_on,,,,,0,0,1,,,0,,,88,121
40980,note_off,,,,,0,0,1,,,0,,,88,64
40980,note_on,,,,,0,0,1,,,0,,,100,121
40980,note_off,,,,,30,0,2,,,0,,,45,64
40980,note_on,,,,,0,0,2,,,0,,,46,120
41010,note_off,,,,,30,0,2,,,0,,,46,64
41010,note_on,,,,,0,0,2,,,0,,,47,122
41040,note_off,,,,,30,0,2,,,0,,,47,64
41040,note_on,,,,,0,0,2,,,0,,,48,121
41070,note_on,,,,,0,0,2,,,0,,,47,119
41070,note_off,,,,,30,0,2,,,0,,,48,64
41100,note_off,,,,,30,0,2,,,0,,,47,64
41100,note_on,,,,,0,0,2,,,0,,,46,116
41100,note_on,,,,,0,0,1,,,0,,,88,115
41100,note_off,,,,,0,0,1,,,0,,,88,64
41100,note_on,,,,,0,0,1,,,0,,,76,115
41100,note_off,,,,,120,0,1,,,0,,,100,64
41100,set_tempo,,,,,120,1,0,1016949,,,,,,
41120,set_tempo,,,,,20,1,0,1034483,,,,,,
41130,note_off,,,,,30,0,2,,,0,,,46,64
41130,note_on,,,,,0,0,2,,,0,,,45,111
41140,set_tempo,,,,,20,1,0,1052632,,,,,,
41160,set_tempo,,,,,20,1,0,1071429,,,,,,
41160,note_on,,,,,0,0,2,,,0,,,44,108
41160,note_off,,,,,30,0,2,,,0,,,45,64
41190,set_tempo,,,,,30,1,0,1090909,,,,,,
41190,note_on,,,,,0,0,2,,,0,,,43,105
41190,note_off,,,,,30,0,2,,,0,,,44,64
41220,note_on,,,,,0,0,2,,,0,,,42,99
41220,note_off,,,,,30,0,2,,,0,,,43,64
41220,note_off,,,,,120,0,1,,,0,,,76,64
41220,note_off,,,,,0,0,1,,,0,,,88,64
41220,note_on,,,,,0,0,1,,,0,,,76,102
41220,note_on,,,,,0,0,1,,,0,,,64,102
41230,set_tempo,,,,,40,1,0,1111111,,,,,,
41250,note_on,,,,,0,0,2,,,0,,,41,95
41250,note_off,,,,,30,0,2,,,0,,,42,64
41280,note_off,,,,,30,0,2,,,0,,,41,64
41280,note_on,,,,,0,0,2,,,0,,,40,93
41290,set_tempo,,,,,60,1,0,1132075,,,,,,
41310,note_on,,,,,0,0,2,,,0,,,39,90
41310,note_off,,,,,30,0,2,,,0,,,40,64
41320,set_tempo,,,,,30,1,0,1176471,,,,,,
41330,set_tempo,,,,,10,1,0,1200000,,,,,,
41340,set_tempo,,,,,10,1,0,1363636,,,,,,
41340,note_off,,,,,120,0,1,,,0,,,64,64
41340,note_off,,,,,0,0,1,,,0,,,76,64
41340,note_on,,,,,0,0,1,,,0,,,64,87
41340,note_off,,,,,30,0,2,,,0,,,39,64
41340,note_on,,,,,0,0,2,,,0,,,38,86
41350,set_tempo,,,,,10,1,0,2068966,,,,,,
41370,note_on,,,,,0,0,2,,,0,,,36,83
41370,note_off,,,,,30,0,2,,,0,,,38,64
41390,note_off,,,,,20,0,2,,,0,,,36,64
41390,set_tempo,,,,,40,1,0,6000000,,,,,,
41400,note_on,,,,,0,0,2,,,0,,,37,44
41400,control_change,,,,,10,0,2,,,0,64,127,,
41400,note_on,,,,,0,0,1,,,0,,,64,44
41400,note_off,,,,,60,0,1,,,0,,,64,64
41400,set_tempo,,,,,10,1,0,1224490,,,,,,
41420,note_on,,,,,0,0,2,,,0,,,49,47
41420,note_off,,,,,20,0,2,,,0,,,37,64
41430,note_off,,,,,30,0,1,,,0,,,64,64
41440,note_on,,,,,10,0,1,,,0,,,65,41
41440,note_on,,,,,0,0,2,,,0,,,37,49
41440,note_off,,,,,20,0,2,,,0,,,49,64
41460,note_on,,,,,0,0,2,,,0,,,49,49
41460,note_off,,,,,20,0,2,,,0,,,37,64
41470,note_off,,,,,30,0,1,,,0,,,65,64
41480,note_on,,,,,10,0,1,,,0,,,66,41
41480,note_off,,,,,20,0,2,,,0,,,49,64
41480,note_on,,,,,0,0,2,,,0,,,37,50
41500,note_on,,,,,0,0,2,,,0,,,49,51
41500,note_off,,,,,20,0,2,,,0,,,37,64
41510,note_off,,,,,30,0,1,,,0,,,66,64
41520,note_off,,,,,20,0,2,,,0,,,49,64
41520,note_on,,,,,10,0,1,,,0,,,67,42
41520,note_on,,,,,0,0,2,,,0,,,37,51
41540,note_off,,,,,20,0,2,,,0,,,37,64
41540,note_on,,,,,0,0,2,,,0,,,49,53
41550,note_off,,,,,30,0,1,,,0,,,67,64
41560,note_off,,,,,20,0,2,,,0,,,49,64
41560,note_on,,,,,0,0,2,,,0,,,37,54
41560,note_on,,,,,10,0,1,,,0,,,68,43
41580,note_on,,,,,0,0,2,,,0,,,49,54
41580,set_tempo,,,,,180,1,0,1200000,,,,,,
41580,note_off,,,,,20,0,2,,,0,,,37,64
41590,note_off,,,,,30,0,1,,,0,,,68,64
41600,set_tempo,,,,,20,1,0,1176471,,,,,,
41600,note_off,,,,,20,0,2,,,0,,,49,64
41602,note_on,,,,,12,0,1,,,0,,,69,45
41602,note_on,,,,,2,0,2,,,0,,,37,56
41622,note_off,,,,,20,0,2,,,0,,,37,64
41622,note_on,,,,,0,0,2,,,0,,,49,56
41632,note_off,,,,,30,0,1,,,0,,,69,64
41642,note_off,,,,,20,0,2,,,0,,,49,64
41642,note_on,,,,,0,0,2,,,0,,,37,56
41642,note_on,,,,,10,0,1,,,0,,,70,46
41660,set_tempo,,,,,60,1,0,1153846,,,,,,
41662,note_off,,,,,20,0,2,,,0,,,37,64
41662,note_on,,,,,0,0,2,,,0,,,49,58
41672,note_off,,,,,30,0,1,,,0,,,70,64
41680,set_tempo,,,,,20,1,0,1132075,,,,,,
41682,note_on,,,,,10,0,1,,,0,,,71,48
41682,note_on,,,,,0,0,2,,,0,,,37,59
41682,note_off,,,,,20,0,2,,,0,,,49,64
41702,note_on,,,,,0,0,2,,,0,,,49,60
41702,note_off,,,,,20,0,2,,,0,,,37,64
41712,note_off,,,,,30,0,1,,,0,,,71,64
41722,note_off,,,,,20,0,2,,,0,,,49,64
41722,note_on,,,,,0,0,2,,,0,,,37,61
41722,note_on,,,,,10,0,1,,,0,,,72,50
41742,note_off,,,,,20,0,2,,,0,,,37,64
41742,note_on,,,,,0,0,2,,,0,,,49,63
41750,control_change,,,,,8,0,2,,,0,64,0,,
41752,note_off,,,,,30,0,1,,,0,,,72,64
41760,control_change,,,,,10,0,2,,,0,64,127,,
41760,set_tempo,,,,,80,1,0,1111111,,,,,,
41762,note_off,,,,,2,0,2,,,0,,,49,64
41762,note_on,,,,,0,0,2,,,0,,,37,64
41762,note_on,,,,,0,0,1,,,0,,,73,53
41762,note_on,,,,,10,0,1,,,0,,,61,53
41782,note_off,,,,,20,0,2,,,0,,,37,64
41782,note_on,,,,,0,0,2,,,0,,,49,64
41792,note_off,,,,,30,0,1,,,0,,,73,64
41792,note_off,,,,,0,0,1,,,0,,,61,64
41800,set_tempo,,,,,40,1,0,1090909,,,,,,
41802,note_on,,,,,0,0,1,,,0,,,74,54
41802,note_on,,,,,0,0,2,,,0,,,37,65
41802,note_on,,,,,10,0,1,,,0,,,62,54
41802,note_off,,,,,20,0,2,,,0,,,49,64
41822,note_on,,,,,0,0,2,,,0,,,49,67
41822,note_off,,,,,20,0,2,,,0,,,37,64
41832,note_off,,,,,0,0,1,,,0,,,62,64
41832,note_off,,,,,30,0,1,,,0,,,74,64
41840,set_tempo,,,,,40,1,0,1071429,,,,,,
41842,note_on,,,,,0,0,1,,,0,,,75,56
41842,note_on,,,,,0,0,2,,,0,,,37,68
41842,note_off,,,,,20,0,2,,,0,,,49,64
41842,note_on,,,,,10,0,1,,,0,,,63,56
41862,note_on,,,,,0,0,2,,,0,,,49,68
41862,note_off,,,,,20,0,2,,,0,,,37,64
41872,note_off,,,,,30,0,1,,,0,,,75,64
41872,note_off,,,,,0,0,1,,,0,,,63,64
41882,note_off,,,,,20,0,2,,,0,,,49,64
41882,note_on,,,,,0,0,2,,,0,,,37,69
41882,note_on,,,,,0,0,1,,,0,,,76,58
41882,note_on,,,,,10,0,1,,,0,,,64,58
41902,note_off,,,,,20,0,2,,,0,,,37,64
41902,note_on,,,,,0,0,2,,,0,,,49,71
41912,note_off,,,,,0,0,1,,,0,,,64,64
41912,note_off,,,,,30,0,1,,,0,,,76,64
41920,set_tempo,,,,,80,1,0,1090909,,,,,,
41922,note_on,,,,,10,0,1,,,0,,,65,61
41922,note_on,,,,,0,0,1,,,0,,,77,61
41922,note_on,,,,,0,0,2,,,0,,,37,72
41922,note_off,,,,,20,0,2,,,0,,,49,64
41942,note_on,,,,,0,0,2,,,0,,,49,72
41942,note_off,,,,,20,0,2,,,0,,,37,64
41952,note_off,,,,,0,0,1,,,0,,,65,64
41952,note_off,,,,,30,0,1,,,0,,,77,64
41960,set_tempo,,,,,40,1,0,1111111,,,,,,
41962,note_on,,,,,0,0,1,,,0,,,78,64
41962,note_on,,,,,10,0,1,,,0,,,66,64
41962,note_off,,,,,20,0,2,,,0,,,49,64
41962,note_on,,,,,0,0,2,,,0,,,37,73
41982,note_on,,,,,0,0,2,,,0,,,49,75
41982,note_off,,,,,20,0,2,,,0,,,37,64
41992,note_off,,,,,0,0,1,,,0,,,66,64
41992,note_off,,,,,30,0,1,,,0,,,78,64
42002,note_off,,,,,20,0,2,,,0,,,49,64
42004,note_on,,,,,12,0,1,,,0,,,67,67
42004,note_on,,,,,0,0,1,,,0,,,79,67
42004,note_on,,,,,2,0,2,,,0,,,37,75
42020,set_tempo,,,,,60,1,0,1132075,,,,,,
42024,note_on,,,,,0,0,2,,,0,,,49,75
42024,note_off,,,,,20,0,2,,,0,,,37,64
42030,set_tempo,,,,,10,1,0,1176471,,,,,,
42034,note_off,,,,,30,0,1,,,0,,,79,64
42034,note_off,,,,,0,0,1,,,0,,,67,64
42044,note_on,,,,,0,0,2,,,0,,,37,76
42044,note_off,,,,,20,0,2,,,0,,,49,64
42044,note_on,,,,,0,0,1,,,0,,,80,69
42044,note_on,,,,,10,0,1,,,0,,,68,69
42050,set_tempo,,,,,20,1,0,1200000,,,,,,
42060,set_tempo,,,,,10,1,0,1224490,,,,,,
42064,note_off,,,,,20,0,2,,,0,,,37,64
42064,note_on,,,,,0,0,2,,,0,,,49,77
42070,set_tempo,,,,,10,1,0,1250000,,,,,,
42074,note_off,,,,,30,0,1,,,0,,,80,64
42074,note_off,,,,,0,0,1,,,0,,,68,64
42080,set_tempo,,,,,10,1,0,1304348,,,,,,
42084,note_on,,,,,10,0,1,,,0,,,69,73
42084,note_off,,,,,20,0,2,,,0,,,49,64
42084,note_on,,,,,0,0,2,,,0,,,37,78
42084,note_on,,,,,0,0,1,,,0,,,81,73
42090,set_tempo,,,,,10,1,0,1363636,,,,,,
42100,set_tempo,,,,,10,1,0,1395349,,,,,,
42104,note_off,,,,,20,0,2,,,0,,,37,64
42104,note_on,,,,,0,0,2,,,0,,,49,78
42110,set_tempo,,,,,10,1,0,1428571,,,,,,
42110,control_change,,,,,6,0,2,,,0,64,0,,
42110,control_change,,,,,0,0,2,,,0,64,0,,
42114,note_off,,,,,30,0,1,,,0,,,81,64
42114,note_off,,,,,0,0,1,,,0,,,69,64
42120,set_tempo,,,,,10,1,0,1463415,,,,,,
42120,note_on,,,,,0,0,2,,,0,,,37,79
42120,control_change,,,,,10,0,2,,,0,64,127,,
42120,note_on,,,,,6,0,1,,,0,,,70,76
42124,note_off,,,,,4,0,2,,,0,,,49,64
42130,set_tempo,,,,,10,1,0,759494,,,,,,
42150,note_on,,,,,0,0,2,,,0,,,49,81
42150,note_off,,,,,26,0,2,,,0,,,37,64
42150,note_on,,,,,0,0,1,,,0,,,82,77
42150,note_off,,,,,30,0,1,,,0,,,70,64
42180,note_off,,,,,30,0,2,,,0,,,49,64
42180,note_on,,,,,0,0,2,,,0,,,37,83
42180,set_tempo,,,,,50,1,0,789474,,,,,,
42180,note_off,,,,,30,0,1,,,0,,,82,64
42180,note_on,,,,,0,0,1,,,0,,,71,80
42210,note_off,,,,,30,0,2,,,0,,,37,64
42210,note_off,,,,,30,0,1,,,0,,,71,64
42210,note_on,,,,,0,0,1,,,0,,,83,82
42210,note_on,,,,,0,0,2,,,0,,,49,83
42220,set_tempo,,,,,40,1,0,800000,,,,,,
42240,note_off,,,,,30,0,2,,,0,,,49,64
42240,note_on,,,,,0,0,2,,,0,,,37,86
42240,note_off,,,,,30,0,1,,,0,,,83,64
42240,note_on,,,,,0,0,1,,,0,,,72,86
42270,note_off,,,,,30,0,2,,,0,,,37,64
42270,note_on,,,,,0,0,1,,,0,,,84,87
42270,note_on,,,,,0,0,2,,,0,,,49,87
42270,note_off,,,,,30,0,1,,,0,,,72,64
42300,note_on,,,,,0,0,2,,,0,,,37,89
42300,note_off,,,,,30,0,2,,,0,,,49,64
42300,note_off,,,,,30,0,1,,,0,,,84,64
42300,note_on,,,,,0,0,1,,,0,,,73,89
42330,note_on,,,,,0,0,2,,,0,,,49,90
42330,note_off,,,,,30,0,2,,,0,,,37,64
42330,note_on,,,,,0,0,1,,,0,,,85,92
42330,note_off,,,,,30,0,1,,,0,,,73,64
42340,set_tempo,,,,,120,1,0,821918,,,,,,
42360,note_on,,,,,0,0,2,,,0,,,37,91
42360,note_off,,,,,30,0,2,,,0,,,49,64
42360,note_on,,,,,0,0,1,,,0,,,74,93
42360,note_off,,,,,30,0,1,,,0,,,85,64
42390,note_off,,,,,30,0,1,,,0,,,74,64
42390,note_on,,,,,0,0,2,,,0,,,49,93
42390,note_off,,,,,30,0,2,,,0,,,37,64
42390,note_on,,,,,0,0,1,,,0,,,86,96
42420,note_on,,,,,0,0,1,,,0,,,75,99
42420,note_on,,,,,0,0,2,,,0,,,37,94
42420,note_off,,,,,30,0,2,,,0,,,49,64
42420,note_off,,,,,30,0,1,,,0,,,86,64
42440,set_tempo,,,,,100,1,0,845070,,,,,,
42450,note_on,,,,,0,0,2,,,0,,,49,95
42450,note_on,,,,,0,0,1,,,0,,,87,100
42450,note_off,,,,,30,0,1,,,0,,,75,64
42450,note_off,,,,,30,0,2,,,0,,,37,64
42470,control_change,,,,,20,0,2,,,0,64,0,,
42470,control_change,,,,,0,0,2,,,0,64,0,,
42470,control_change,,,,,0,0,2,,,0,64,0,,
42480,note_on,,,,,0,0,2,,,0,,,37,97
42480,note_on,,,,,0,0,1,,,0,,,76,102
42480,note_off,,,,,30,0,1,,,0,,,87,64
42480,set_tempo,,,,,40,1,0,857143,,,,,,
42480,note_off,,,,,10,0,2,,,0,,,49,64
42480,control_change,,,,,0,0,2,,,0,64,127,,
42510,note_off,,,,,30,0,2,,,0,,,37,64
42510,note_on,,,,,0,0,2,,,0,,,49,98
42510,note_on,,,,,0,0,1,,,0,,,88,102
42510,note_off,,,,,30,0,1,,,0,,,76,64
42540,note_on,,,,,0,0,2,,,0,,,37,101
42540,note_off,,,,,30,0,2,,,0,,,49,64
42540,note_off,,,,,30,0,1,,,0,,,88,64
42540,note_on,,,,,0,0,1,,,0,,,77,104
42560,set_tempo,,,,,80,1,0,895522,,,,,,
42570,note_off,,,,,30,0,1,,,0,,,77,64
42570,note_off,,,,,30,0,2,,,0,,,37,64
42570,note_on,,,,,0,0,2,,,0,,,49,101
42570,note_on,,,,,0,0,1,,,0,,,89,105
42580,set_tempo,,,,,20,1,0,909091,,,,,,
42600,note_on,,,,,0,0,1,,,0,,,78,108
42600,note_off,,,,,30,0,2,,,0,,,49,64
42600,note_off,,,,,30,0,1,,,0,,,89,64
42600,note_on,,,,,0,0,2,,,0,,,37,103
42630,note_on,,,,,0,0,1,,,0,,,90,109
42630,note_off,,,,,30,0,2,,,0,,,37,64
42630,note_on,,,,,0,0,2,,,0,,,49,104
42630,note_off,,,,,30,0,1,,,0,,,78,64
42660,note_off,,,,,30,0,2,,,0,,,49,64
42660,note_on,,,,,0,0,2,,,0,,,37,105
42660,note_on,,,,,0,0,1,,,0,,,79,111
42660,note_off,,,,,30,0,1,,,0,,,90,64
42680,set_tempo,,,,,100,1,0,923077,,,,,,
42690,note_off,,,,,30,0,1,,,0,,,79,64
42690,note_on,,,,,0,0,1,,,0,,,91,112
42690,note_on,,,,,0,0,2,,,0,,,49,107
42690,note_off,,,,,30,0,2,,,0,,,37,64
42710,control_change,,,,,20,0,2,,,0,64,0,,
42720,note_on,,,,,0,0,1,,,0,,,88,117
42720,note_off,,,,,10,0,2,,,0,,,49,64
42720,control_change,,,,,0,0,2,,,0,64,127,,
42720,note_on,,,,,0,0,2,,,0,,,37,110
42720,note_on,,,,,0,0,1,,,0,,,80,117
42720,note_off,,,,,30,0,1,,,0,,,91,64
42750,note_off,,,,,0,0,1,,,0,,,88,64
42750,note_off,,,,,30,0,1,,,0,,,80,64
42750,note_on,,,,,0,0,1,,,0,,,91,119
42750,note_off,,,,,30,0,2,,,0,,,37,64
42750,note_on,,,,,0,0,2,,,0,,,49,111
42780,set_tempo,,,,,100,1,0,937500,,,,,,
42780,note_on,,,,,0,0,2,,,0,,,37,114
42780,note_off,,,,,30,0,2,,,0,,,49,64
42780,note_on,,,,,0,0,1,,,0,,,88,122
42780,note_on,,,,,0,0,1,,,0,,,80,122
42780,note_off,,,,,30,0,1,,,0,,,91,64
42810,note_off,,,,,30,0,2,,,0,,,37,64
42810,note_on,,,,,0,0,2,,,0,,,49,115
42810,note_off,,,,,0,0,1,,,0,,,88,64
42810,note_on,,,,,0,0,1,,,0,,,92,124
42810,note_off,,,,,30,0,1,,,0,,,80,64
42830,control_change,,,,,20,0,2,,,0,64,0,,
42830,control_change,,,,,0,0,2,,,0,64,0,,
42830,control_change,,,,,0,0,2,,,0,64,0,,
42830,control_change,,,,,0,0,2,,,0,64,0,,
42840,note_off,,,,,10,0,2,,,0,,,49,64
42840,note_off,,,,,30,0,1,,,0,,,92,64
42840,note_on,,,,,0,0,1,,,0,,,92,126
42840,note_on,,,,,0,0,1,,,0,,,88,126
42840,note_on,,,,,0,0,1,,,0,,,85,126
42840,note_on,,,,,0,0,1,,,0,,,80,126
42840,control_change,,,,,0,0,2,,,0,64,127,,
42840,control_change,,,,,0,0,2,,,0,7,111,,
42840,note_on,,,,,0,0,2,,,0,,,37,117
42850,control_change,,,,,10,0,2,,,0,7,111,,
42860,control_change,,,,,10,0,2,,,0,7,111,,
42860,set_tempo,,,,,80,1,0,952381,,,,,,
42870,note_on,,,,,0,0,2,,,0,,,49,118
42870,note_off,,,,,10,0,2,,,0,,,37,64
42884,note_off,,,,,0,0,1,,,0,,,85,64
42884,note_off,,,,,44,0,1,,,0,,,80,64
42884,note_off,,,,,0,0,1,,,0,,,88,64
42884,note_off,,,,,0,0,1,,,0,,,92,64
42900,note_on,,,,,16,0,1,,,0,,,92,114
42900,note_off,,,,,30,0,2,,,0,,,49,64
42900,note_on,,,,,0,0,2,,,0,,,39,118
42900,note_on,,,,,0,0,1,,,0,,,88,114
42900,note_on,,,,,0,0,1,,,0,,,85,114
42900,note_on,,,,,0,0,1,,,0,,,80,114
42930,note_on,,,,,0,0,2,,,0,,,51,118
42930,note_off,,,,,30,0,2,,,0,,,39,64
42944,note_off,,,,,0,0,1,,,0,,,88,64
42944,note_off,,,,,0,0,1,,,0,,,85,64
42944,note_off,,,,,0,0,1,,,0,,,92,64
42944,note_off,,,,,44,0,1,,,0,,,80,64
42960,note_on,,,,,0,0,1,,,0,,,80,112
42960,note_on,,,,,0,0,2,,,0,,,40,116
42960,note_on,,,,,0,0,1,,,0,,,85,112
42960,note_off,,,,,30,0,2,,,0,,,51,64
42960,note_on,,,,,16,0,1,,,0,,,92,112
42960,set_tempo,,,,,100,1,0,967742,,,,,,
42960,note_on,,,,,0,0,1,,,0,,,88,112
42980,control_change,,,,,20,0,2,,,0,7,112,,
42990,note_on,,,,,0,0,2,,,0,,,52,116
42990,control_change,,,,,0,0,2,,,0,7,113,,
42990,note_off,,,,,10,0,2,,,0,,,40,64
43000,set_tempo,,,,,40,1,0,983607,,,,,,
43004,note_off,,,,,0,0,1,,,0,,,88,64
43004,note_off,,,,,44,0,1,,,0,,,80,64
43004,note_off,,,,,0,0,1,,,0,,,85,64
43004,note_off,,,,,0,0,1,,,0,,,92,64
43020,note_off,,,,,30,0,2,,,0,,,52,64
43020,note_on,,,,,0,0,2,,,0,,,42,115
43020,note_on,,,,,0,0,1,,,0,,,88,112
43020,note_on,,,,,0,0,1,,,0,,,85,112
43020,note_on,,,,,0,0,1,,,0,,,80,112
43020,note_on,,,,,16,0,1,,,0,,,92,112
43030,control_change,,,,,10,0,2,,,0,7,115,,
43050,note_on,,,,,0,0,2,,,0,,,54,115
43050,note_off,,,,,20,0,2,,,0,,,42,64
43064,note_off,,,,,0,0,1,,,0,,,88,64
43064,note_off,,,,,44,0,1,,,0,,,80,64
43064,note_off,,,,,0,0,1,,,0,,,92,64
43064,note_off,,,,,0,0,1,,,0,,,85,64
43070,control_change,,,,,20,0,2,,,0,7,116,,
43080,note_on,,,,,0,0,2,,,0,,,44,115
43080,note_on,,,,,16,0,1,,,0,,,92,114
43080,note_on,,,,,0,0,1,,,0,,,88,114
43080,note_on,,,,,0,0,1,,,0,,,85,114
43080,set_tempo,,,,,80,1,0,1000000,,,,,,
43080,note_on,,,,,0,0,1,,,0,,,80,114
43080,note_off,,,,,10,0,2,,,0,,,54,64
43100,set_tempo,,,,,20,1,0,1016949,,,,,,
43110,note_off,,,,,30,0,2,,,0,,,44,64
43110,note_on,,,,,0,0,2,,,0,,,56,115
43110,control_change,,,,,0,0,2,,,0,7,117,,
43124,note_off,,,,,0,0,1,,,0,,,92,64
43124,note_off,,,,,0,0,1,,,0,,,88,64
43124,note_off,,,,,0,0,1,,,0,,,85,64
43124,note_off,,,,,44,0,1,,,0,,,80,64
43140,note_off,,,,,30,0,2,,,0,,,56,64
43140,note_on,,,,,0,0,2,,,0,,,39,115
43140,note_on,,,,,0,0,1,,,0,,,80,116
43140,note_on,,,,,0,0,1,,,0,,,85,116
43140,note_on,,,,,0,0,1,,,0,,,88,116
43140,note_on,,,,,16,0,1,,,0,,,92,116
43150,control_change,,,,,10,0,2,,,0,7,118,,
43160,set_tempo,,,,,60,1,0,1034483,,,,,,
43170,note_on,,,,,0,0,2,,,0,,,51,115
43170,note_off,,,,,20,0,2,,,0,,,39,64
43180,control_change,,,,,10,0,2,,,0,7,119,,
43180,set_tempo,,,,,20,1,0,1052632,,,,,,
43184,note_off,,,,,44,0,1,,,0,,,80,64
43184,note_off,,,,,0,0,1,,,0,,,85,64
43184,note_off,,,,,0,0,1,,,0,,,88,64
43184,note_off,,,,,0,0,1,,,0,,,92,64
43190,control_change,,,,,0,0,2,,,0,64,0,,
43190,control_change,,,,,0,0,2,,,0,64,0,,
43190,control_change,,,,,0,0,2,,,0,64,0,,
43190,control_change,,,,,10,0,2,,,0,64,0,,
43200,note_on,,,,,0,0,1,,,0,,,80,118
43200,note_on,,,,,0,0,1,,,0,,,85,118
43200,note_on,,,,,0,0,1,,,0,,,88,118
43200,note_on,,,,,16,0,1,,,0,,,92,118
43200,note_off,,,,,10,0,2,,,0,,,51,64
43200,note_on,,,,,0,0,2,,,0,,,40,115
43200,control_change,,,,,0,0,2,,,0,64,0,,
43200,set_tempo,,,,,20,1,0,1071429,,,,,,
43200,control_change,,,,,0,0,2,,,0,64,127,,
43210,control_change,,,,,10,0,2,,,0,7,120,,
43230,note_on,,,,,0,0,2,,,0,,,52,115
43230,control_change,,,,,0,0,2,,,0,7,121,,
43230,note_off,,,,,20,0,2,,,0,,,40,64
43240,set_tempo,,,,,40,1,0,1111111,,,,,,
43244,note_off,,,,,44,0,1,,,0,,,80,64
43244,note_off,,,,,0,0,1,,,0,,,92,64
43244,note_off,,,,,0,0,1,,,0,,,88,64
43244,note_off,,,,,0,0,1,,,0,,,85,64
43260,note_on,,,,,0,0,1,,,0,,,85,120
43260,note_on,,,,,0,0,1,,,0,,,88,120
43260,note_on,,,,,16,0,1,,,0,,,92,120
43260,note_off,,,,,30,0,2,,,0,,,52,64
43260,set_tempo,,,,,20,1,0,1132075,,,,,,
43260,note_on,,,,,0,0,2,,,0,,,42,118
43260,note_on,,,,,0,0,1,,,0,,,80,120
43270,control_change,,,,,10,0,2,,,0,7,122,,
43290,note_on,,,,,0,0,2,,,0,,,54,119
43290,note_off,,,,,20,0,2,,,0,,,42,64
43300,control_change,,,,,10,0,2,,,0,7,123,,
43304,note_off,,,,,44,0,1,,,0,,,80,64
43304,note_off,,,,,0,0,1,,,0,,,92,64
43304,note_off,,,,,0,0,1,,,0,,,88,64
43304,note_off,,,,,0,0,1,,,0,,,85,64
43320,note_on,,,,,0,0,1,,,0,,,80,121
43320,note_on,,,,,0,0,1,,,0,,,88,121
43320,note_on,,,,,0,0,1,,,0,,,85,121
43320,note_on,,,,,0,0,2,,,0,,,44,121
43320,note_off,,,,,20,0,2,,,0,,,54,64
43320,note_on,,,,,16,0,1,,,0,,,92,121
43340,set_tempo,,,,,80,1,0,1200000,,,,,,
43350,note_on,,,,,0,0,2,,,0,,,56,122
43350,control_change,,,,,0,0,2,,,0,7,124,,
43350,note_off,,,,,30,0,2,,,0,,,44,64
43360,control_change,,,,,10,0,2,,,0,7,125,,
43364,note_off,,,,,0,0,1,,,0,,,88,64
43364,note_off,,,,,0,0,1,,,0,,,85,64
43364,note_off,,,,,44,0,1,,,0,,,80,64
43364,note_off,,,,,0,0,1,,,0,,,92,64
43380,note_on,,,,,0,0,1,,,0,,,88,122
43380,note_on,,,,,16,0,1,,,0,,,92,122
43380,note_on,,,,,0,0,1,,,0,,,85,122
43380,note_on,,,,,0,0,1,,,0,,,80,122
43380,note_off,,,,,20,0,2,,,0,,,56,64
43380,note_on,,,,,0,0,2,,,0,,,48,123
43410,note_off,,,,,30,0,2,,,0,,,48,64
43410,note_on,,,,,0,0,2,,,0,,,60,123
43420,set_tempo,,,,,80,1,0,1333333,,,,,,
43424,note_off,,,,,0,0,1,,,0,,,88,64
43424,note_off,,,,,0,0,1,,,0,,,85,64
43424,note_off,,,,,44,0,1,,,0,,,80,64
43424,note_off,,,,,0,0,1,,,0,,,92,64
43440,note_on,,,,,16,0,1,,,0,,,92,125
43440,note_on,,,,,0,0,1,,,0,,,85,125
43440,note_on,,,,,0,0,1,,,0,,,88,125
43440,note_on,,,,,0,0,1,,,0,,,80,125
43440,set_tempo,,,,,20,1,0,1363636,,,,,,
43440,note_on,,,,,0,0,2,,,0,,,49,125
43440,note_off,,,,,30,0,2,,,0,,,60,64
43470,control_change,,,,,0,0,2,,,0,7,126,,
43470,note_on,,,,,0,0,2,,,0,,,61,125
43470,note_off,,,,,30,0,2,,,0,,,49,64
43480,set_tempo,,,,,40,1,0,1395349,,,,,,
43484,note_off,,,,,0,0,1,,,0,,,92,64
43484,note_off,,,,,44,0,1,,,0,,,80,64
43484,note_off,,,,,0,0,1,,,0,,,85,64
43484,note_off,,,,,0,0,1,,,0,,,88,64
43500,control_change,,,,,0,0,2,,,0,7,127,,
43500,note_on,,,,,0,0,2,,,0,,,51,126
43500,note_off,,,,,30,0,2,,,0,,,61,64
43500,note_on,,,,,0,0,1,,,0,,,85,126
43500,note_on,,,,,16,0,1,,,0,,,92,126
43500,set_tempo,,,,,20,1,0,1428571,,,,,,
43500,note_on,,,,,0,0,1,,,0,,,80,126
43500,note_on,,,,,0,0,1,,,0,,,88,126
43530,note_off,,,,,30,0,2,,,0,,,51,64
43530,note_on,,,,,0,0,2,,,0,,,63,127
43544,note_off,,,,,44,0,1,,,0,,,80,64
43544,note_off,,,,,0,0,1,,,0,,,85,64
43544,note_off,,,,,0,0,1,,,0,,,92,64
43544,note_off,,,,,0,0,1,,,0,,,88,64
43550,control_change,,,,,20,0,2,,,0,64,0,,
43560,note_on,,,,,0,0,1,,,0,,,85,127
43560,note_on,,,,,0,0,1,,,0,,,97,127
43560,note_on,,,,,0,0,1,,,0,,,88,127
43560,note_on,,,,,16,0,1,,,0,,,92,127
43560,note_off,,,,,10,0,2,,,0,,,63,64
43560,note_on,,,,,0,0,2,,,0,,,56,127
43560,note_on,,,,,0,0,2,,,0,,,52,127
43560,note_on,,,,,0,0,2,,,0,,,61,127
43560,note_on,,,,,0,0,2,,,0,,,64,127
43580,set_tempo,,,,,80,1,0,1463415,,,,,,
43660,set_tempo,,,,,80,1,0,1016949,,,,,,
43680,note_off,,,,,0,0,2,,,0,,,56,64
43680,note_off,,,,,0,0,2,,,0,,,61,64
43680,note_off,,,,,0,0,1,,,0,,,92,64
43680,note_off,,,,,120,0,2,,,0,,,52,64
43680,note_off,,,,,120,0,1,,,0,,,85,64
43680,note_off,,,,,0,0,1,,,0,,,88,64
43680,note_off,,,,,0,0,2,,,0,,,64,64
43680,note_off,,,,,0,0,1,,,0,,,97,64
43920,note_on,,,,,240,0,1,,,0,,,60,48
43920,set_tempo,,,,,260,1,0,1200000,,,,,,
43980,note_off,,,,,60,0,1,,,0,,,60,64
43980,note_on,,,,,0,0,1,,,0,,,61,37
44000,set_tempo,,,,,80,1,0,1224490,,,,,,
44040,note_on,,,,,0,0,1,,,0,,,63,42
44040,note_off,,,,,60,0,1,,,0,,,61,64
44080,set_tempo,,,,,80,1,0,1250000,,,,,,
44090,set_tempo,,,,,10,1,0,1304348,,,,,,
44100,note_off,,,,,60,0,1,,,0,,,63,64
44100,note_on,,,,,0,0,1,,,0,,,61,55
44110,set_tempo,,,,,20,1,0,1333333,,,,,,
44130,set_tempo,,,,,20,1,0,1428571,,,,,,
44150,set_tempo,,,,,20,1,0,1500000,,,,,,
44160,note_off,,,,,60,0,1,,,0,,,61,64
44160,note_on,,,,,0,0,1,,,0,,,64,67
44160,set_tempo,,,,,10,1,0,1538462,,,,,,
44170,set_tempo,,,,,10,1,0,1666667,,,,,,
44190,set_tempo,,,,,20,1,0,1818182,,,,,,
44200,set_tempo,,,,,10,1,0,1935484,,,,,,
44220,set_tempo,,,,,20,1,0,2142857,,,,,,
44230,set_tempo,,,,,10,1,0,2307692,,,,,,
44240,set_tempo,,,,,10,1,0,3750000,,,,,,
44250,note_on,,,,,0,0,1,,,0,,,63,40
44250,note_off,,,,,90,0,1,,,0,,,64,64
44250,set_tempo,,,,,10,1,0,4615385,,,,,,
44274,note_off,,,,,24,0,1,,,0,,,63,64
44280,set_tempo,,,,,30,1,0,1538462,,,,,,
44280,control_change,,,,,600,0,2,,,0,7,126,,
44300,note_on,,,,,0,0,1,,,0,,,85,127
44300,note_on,,,,,0,0,2,,,0,,,44,127
44300,note_on,,,,,0,0,2,,,0,,,40,127
44300,note_on,,,,,26,0,1,,,0,,,97,127
44300,note_on,,,,,0,0,1,,,0,,,92,127
44300,note_on,,,,,0,0,1,,,0,,,88,127
44300,note_on,,,,,20,0,2,,,0,,,52,127
44300,note_on,,,,,0,0,2,,,0,,,49,127
44420,note_off,,,,,0,0,2,,,0,,,44,64
44420,note_off,,,,,0,0,2,,,0,,,49,64
44420,note_off,,,,,0,0,2,,,0,,,52,64
44420,note_off,,,,,120,0,1,,,0,,,85,64
44420,note_off,,,,,0,0,1,,,0,,,88,64
44420,note_off,,,,,0,0,1,,,0,,,92,64
44420,note_off,,,,,0,0,1,,,0,,,97,64
44420,note_off,,,,,120,0,2,,,0,,,40,64
44640,set_tempo,,,,,360,1,0,1153846,,,,,,
44640,note_on,,,,,220,0,1,,,0,,,60,40
44700,note_on,,,,,0,0,1,,,0,,,61,35
44700,note_off,,,,,60,0,1,,,0,,,60,64
44720,set_tempo,,,,,80,1,0,1224490,,,,,,
44760,note_off,,,,,60,0,1,,,0,,,61,64
44760,note_on,,,,,0,0,1,,,0,,,63,42
44790,set_tempo,,,,,70,1,0,1250000,,,,,,
44800,set_tempo,,,,,10,1,0,1304348,,,,,,
44820,note_off,,,,,60,0,1,,,0,,,63,64
44820,note_on,,,,,0,0,1,,,0,,,61,49
44840,set_tempo,,,,,40,1,0,1333333,,,,,,
44880,note_off,,,,,60,0,1,,,0,,,61,64
44880,set_tempo,,,,,40,1,0,1363636,,,,,,
44880,note_on,,,,,0,0,1,,,0,,,64,56
44890,set_tempo,,,,,10,1,0,1428571,,,,,,
44910,set_tempo,,,,,20,1,0,1500000,,,,,,
44920,set_tempo,,,,,10,1,0,1621622,,,,,,
44930,set_tempo,,,,,10,1,0,1666667,,,,,,
44940,set_tempo,,,,,10,1,0,1714286,,,,,,
44950,set_tempo,,,,,10,1,0,1875000,,,,,,
44960,set_tempo,,,,,10,1,0,2142857,,,,,,
44970,note_off,,,,,90,0,1,,,0,,,64,64
44970,note_on,,,,,0,0,1,,,0,,,68,39
45000,note_off,,,,,30,0,1,,,0,,,68,64
45010,set_tempo,,,,,50,1,0,1538462,,,,,,
45010,note_on,,,,,10,0,1,,,0,,,62,52
45040,set_tempo,,,,,30,1,0,1500000,,,,,,
45090,set_tempo,,,,,50,1,0,1463415,,,,,,
45120,set_tempo,,,,,30,1,0,1428571,,,,,,
45150,set_tempo,,,,,30,1,0,1363636,,,,,,
45150,note_on,,,,,730,0,2,,,0,,,57,34
45170,set_tempo,,,,,20,1,0,1333333,,,,,,
45180,note_on,,,,,0,0,2,,,0,,,56,35
45180,note_off,,,,,30,0,2,,,0,,,57,64
45210,set_tempo,,,,,40,1,0,1304348,,,,,,
45210,note_on,,,,,0,0,2,,,0,,,55,39
45210,note_off,,,,,30,0,2,,,0,,,56,64
45220,set_tempo,,,,,10,1,0,1250000,,,,,,
45240,note_off,,,,,30,0,2,,,0,,,55,64
45240,note_on,,,,,0,0,2,,,0,,,54,44
45240,set_tempo,,,,,20,1,0,1224490,,,,,,
45260,set_tempo,,,,,20,1,0,1200000,,,,,,
45270,note_on,,,,,0,0,2,,,0,,,53,48
45270,set_tempo,,,,,10,1,0,1153846,,,,,,
45270,note_off,,,,,30,0,2,,,0,,,54,64
45280,set_tempo,,,,,10,1,0,1111111,,,,,,
45300,note_off,,,,,30,0,2,,,0,,,53,64
45300,note_on,,,,,0,0,2,,,0,,,52,55
45310,set_tempo,,,,,30,1,0,1090909,,,,,,
45320,set_tempo,,,,,10,1,0,1052632,,,,,,
45330,note_off,,,,,30,0,2,,,0,,,52,64
45330,note_on,,,,,0,0,2,,,0,,,51,59
45350,set_tempo,,,,,30,1,0,1034483,,,,,,
45360,note_off,,,,,30,0,2,,,0,,,51,64
45360,set_tempo,,,,,10,1,0,1016949,,,,,,
45360,note_on,,,,,0,0,2,,,0,,,50,63
45380,set_tempo,,,,,20,1,0,983607,,,,,,
45390,note_off,,,,,30,0,2,,,0,,,50,64
45390,note_on,,,,,0,0,2,,,0,,,49,69
45400,set_tempo,,,,,20,1,0,952381,,,,,,
45420,note_off,,,,,30,0,2,,,0,,,49,64
45420,note_on,,,,,0,0,2,,,0,,,48,73
45430,set_tempo,,,,,30,1,0,923077,,,,,,
45440,set_tempo,,,,,10,1,0,909091,,,,,,
45450,set_tempo,,,,,10,1,0,895522,,,,,,
45450,note_off,,,,,30,0,2,,,0,,,48,64
45450,note_on,,,,,0,0,2,,,0,,,47,78
45460,set_tempo,,,,,10,1,0,882353,,,,,,
45470,set_tempo,,,,,10,1,0,857143,,,,,,
45480,set_tempo,,,,,10,1,0,845070,,,,,,
45480,note_off,,,,,30,0,2,,,0,,,47,64
45480,note_on,,,,,0,0,2,,,0,,,46,83
45510,set_tempo,,,,,30,1,0,833333,,,,,,
45510,note_off,,,,,30,0,2,,,0,,,46,64
45510,note_on,,,,,0,0,2,,,0,,,45,90
45530,set_tempo,,,,,20,1,0,800000,,,,,,
45540,note_on,,,,,0,0,2,,,0,,,44,95
45540,note_off,,,,,30,0,2,,,0,,,45,64
45550,set_tempo,,,,,20,1,0,789474,,,,,,
45560,set_tempo,,,,,10,1,0,769231,,,,,,
45570,note_on,,,,,0,0,2,,,0,,,43,98
45570,note_off,,,,,30,0,2,,,0,,,44,64
45590,set_tempo,,,,,30,1,0,740741,,,,,,
45600,note_off,,,,,30,0,2,,,0,,,43,64
45600,note_on,,,,,0,0,2,,,0,,,42,103
45610,set_tempo,,,,,20,1,0,722892,,,,,,
45630,note_off,,,,,30,0,2,,,0,,,42,64
45630,note_on,,,,,0,0,2,,,0,,,41,109
45640,set_tempo,,,,,30,1,0,714286,,,,,,
45650,set_tempo,,,,,10,1,0,705882,,,,,,
45660,set_tempo,,,,,10,1,0,689655,,,,,,
45660,note_off,,,,,30,0,2,,,0,,,41,64
45660,note_on,,,,,0,0,2,,,0,,,40,115
45680,set_tempo,,,,,20,1,0,681818,,,,,,
45690,set_tempo,,,,,10,1,0,659341,,,,,,
45690,note_on,,,,,0,0,2,,,0,,,39,119
45690,note_off,,,,,30,0,2,,,0,,,40,64
45710,set_tempo,,,,,20,1,0,652174,,,,,,
45720,note_off,,,,,30,0,2,,,0,,,39,64
45720,note_on,,,,,0,0,2,,,0,,,38,125
45720,note_on,,,,,0,0,1,,,0,,,86,127
45720,note_on,,,,,0,0,1,,,0,,,93,127
45720,note_on,,,,,710,0,1,,,0,,,98,127
45720,note_on,,,,,0,0,1,,,0,,,90,127
45730,note_off,,,,,10,0,1,,,0,,,62,64
45730,set_tempo,,,,,20,1,0,923077,,,,,,
45830,set_tempo,,,,,100,1,0,909091,,,,,,
45840,note_off,,,,,0,0,1,,,0,,,90,64
45840,note_off,,,,,110,0,1,,,0,,,86,64
45840,note_off,,,,,120,0,2,,,0,,,38,64
45840,note_off,,,,,0,0,1,,,0,,,98,64
45840,note_off,,,,,0,0,1,,,0,,,93,64
46080,note_on,,,,,240,0,1,,,0,,,61,48
46080,set_tempo,,,,,250,1,0,1200000,,,,,,
46140,note_off,,,,,60,0,1,,,0,,,61,64
46140,note_on,,,,,0,0,1,,,0,,,62,35
46160,set_tempo,,,,,80,1,0,1224490,,,,,,
46200,note_off,,,,,60,0,1,,,0,,,62,64
46200,note_on,,,,,0,0,1,,,0,,,64,42
46240,set_tempo,,,,,80,1,0,1250000,,,,,,
46250,set_tempo,,,,,10,1,0,1304348,,,,,,
46260,note_off,,,,,60,0,1,,,0,,,64,64
46260,note_on,,,,,0,0,1,,,0,,,62,38
46270,set_tempo,,,,,20,1,0,1333333,,,,,,
46290,set_tempo,,,,,20,1,0,1428571,,,,,,
46310,set_tempo,,,,,20,1,0,1500000,,,,,,
46320,note_on,,,,,0,0,1,,,0,,,66,52
46320,set_tempo,,,,,10,1,0,1538462,,,,,,
46320,note_off,,,,,60,0,1,,,0,,,62,64
46330,set_tempo,,,,,10,1,0,1666667,,,,,,
46350,set_tempo,,,,,20,1,0,1818182,,,,,,
46360,set_tempo,,,,,10,1,0,1935484,,,,,,
46380,set_tempo,,,,,20,1,0,2142857,,,,,,
46390,set_tempo,,,,,10,1,0,2307692,,,,,,
46400,set_tempo,,,,,10,1,0,3750000,,,,,,
46410,note_on,,,,,0,0,1,,,0,,,64,39
46410,note_off,,,,,90,0,1,,,0,,,66,64
46410,set_tempo,,,,,10,1,0,4615385,,,,,,
46434,note_off,,,,,24,0,1,,,0,,,64,64
46440,set_tempo,,,,,30,1,0,1538462,,,,,,
46440,control_change,,,,,600,0,2,,,0,7,126,,
46460,note_on,,,,,0,0,2,,,0,,,38,127
46460,note_on,,,,,0,0,1,,,0,,,86,127
46460,note_on,,,,,0,0,1,,,0,,,90,127
46460,note_on,,,,,0,0,1,,,0,,,93,127
46460,note_on,,,,,26,0,1,,,0,,,98,127
46460,note_on,,,,,20,0,2,,,0,,,42,127
46460,note_on,,,,,0,0,2,,,0,,,50,127
46460,note_on,,,,,0,0,2,,,0,,,45,127
46520,set_tempo,,,,,80,1,0,1500000,,,,,,
46570,set_tempo,,,,,50,1,0,1463415,,,,,,
46580,note_off,,,,,120,0,2,,,0,,,38,64
46580,note_off,,,,,0,0,2,,,0,,,45,64
46580,note_off,,,,,0,0,2,,,0,,,50,64
46580,note_off,,,,,0,0,2,,,0,,,42,64
46580,note_off,,,,,0,0,1,,,0,,,93,64
46580,note_off,,,,,0,0,1,,,0,,,98,64
46580,note_off,,,,,120,0,1,,,0,,,86,64
46580,note_off,,,,,0,0,1,,,0,,,90,64
46590,set_tempo,,,,,20,1,0,1428571,,,,,,
46620,set_tempo,,,,,30,1,0,1363636,,,,,,
46640,set_tempo,,,,,20,1,0,1333333,,,,,,
46800,note_on,,,,,220,0,1,,,0,,,61,39
46800,set_tempo,,,,,160,1,0,1818182,,,,,,
46860,note_off,,,,,60,0,1,,,0,,,61,64
46860,note_on,,,,,0,0,1,,,0,,,62,30
46920,note_on,,,,,0,0,1,,,0,,,64,36
46920,note_off,,,,,60,0,1,,,0,,,62,64
46980,note_on,,,,,0,0,1,,,0,,,62,30
46980,note_off,,,,,60,0,1,,,0,,,64,64
47040,note_on,,,,,0,0,1,,,0,,,66,37
47040,note_off,,,,,60,0,1,,,0,,,62,64
47130,note_on,,,,,0,0,1,,,0,,,69,38
47130,note_off,,,,,90,0,1,,,0,,,66,64
47160,note_off,,,,,30,0,1,,,0,,,69,64
47160,note_on,,,,,0,0,1,,,0,,,61,44
47280,note_off,,,,,120,0,1,,,0,,,61,64
47280,note_on,,,,,0,0,1,,,0,,,68,41
47520,set_tempo,,,,,720,1,0,1500000,,,,,,
47520,note_on,,,,,940,0,2,,,0,,,44,48
47530,note_on,,,,,10,0,2,,,0,,,49,48
47540,note_on,,,,,10,0,2,,,0,,,52,48
47550,set_tempo,,,,,30,1,0,2500000,,,,,,
47550,note_on,,,,,10,0,2,,,0,,,56,48
47610,note_off,,,,,0,0,2,,,0,,,44,64
47610,note_off,,,,,0,0,2,,,0,,,49,64
47610,note_off,,,,,0,0,2,,,0,,,52,64
47610,note_off,,,,,60,0,2,,,0,,,56,64
47640,note_off,,,,,360,0,1,,,0,,,68,64
47640,note_on,,,,,0,0,1,,,0,,,66,37
47640,set_tempo,,,,,90,1,0,1818182,,,,,,
47700,note_on,,,,,0,0,1,,,0,,,64,33
47700,note_off,,,,,60,0,1,,,0,,,66,64
47740,note_off,,,,,40,0,1,,,0,,,64,64
47760,note_on,,,,,20,0,1,,,0,,,63,40
47820,note_off,,,,,60,0,1,,,0,,,63,64
47820,note_on,,,,,0,0,1,,,0,,,61,33
47860,note_off,,,,,40,0,1,,,0,,,61,64
47880,note_on,,,,,20,0,1,,,0,,,60,41
48000,note_on,,,,,0,0,1,,,0,,,68,41
48000,note_off,,,,,120,0,1,,,0,,,60,64
48240,note_on,,,,,630,0,2,,,0,,,72,46
48240,set_tempo,,,,,600,1,0,1500000,,,,,,
48250,note_on,,,,,10,0,2,,,0,,,75,47
48260,note_on,,,,,10,0,2,,,0,,,78,47
48270,note_on,,,,,10,0,2,,,0,,,81,48
48270,set_tempo,,,,,30,1,0,2608696,,,,,,
48330,note_off,,,,,60,0,2,,,0,,,81,64
48330,note_off,,,,,0,0,2,,,0,,,78,64
48330,note_off,,,,,0,0,2,,,0,,,72,64
48330,note_off,,,,,0,0,2,,,0,,,75,64
48360,note_off,,,,,360,0,1,,,0,,,68,64
48360,note_on,,,,,0,0,1,,,0,,,67,47
48360,set_tempo,,,,,90,1,0,1764706,,,,,,
48420,note_on,,,,,0,0,1,,,0,,,68,42
48420,note_off,,,,,60,0,1,,,0,,,67,64
48460,note_off,,,,,40,0,1,,,0,,,68,64
48480,note_on,,,,,20,0,1,,,0,,,66,49
48540,note_on,,,,,0,0,1,,,0,,,63,45
48540,note_off,,,,,60,0,1,,,0,,,66,64
48580,note_off,,,,,40,0,1,,,0,,,63,64
48600,note_on,,,,,20,0,1,,,0,,,64,58
48720,note_on,,,,,0,0,1,,,0,,,68,47
48720,note_off,,,,,120,0,1,,,0,,,64,64
48960,note_on,,,,,630,0,2,,,0,,,44,45
48960,set_tempo,,,,,600,1,0,1500000,,,,,,
48970,note_on,,,,,10,0,2,,,0,,,49,45
48980,note_on,,,,,10,0,2,,,0,,,52,45
48990,set_tempo,,,,,30,1,0,2608696,,,,,,
48990,note_on,,,,,10,0,2,,,0,,,56,45
49050,note_off,,,,,0,0,2,,,0,,,44,64
49050,note_off,,,,,0,0,2,,,0,,,49,64
49050,note_off,,,,,0,0,2,,,0,,,52,64
49050,note_off,,,,,60,0,2,,,0,,,56,64
49070,set_tempo,,,,,80,1,0,1764706,,,,,,
49080,note_on,,,,,0,0,1,,,0,,,66,51
49080,note_off,,,,,360,0,1,,,0,,,68,64
49110,note_off,,,,,30,0,1,,,0,,,66,64
49110,note_on,,,,,0,0,1,,,0,,,68,47
49140,note_on,,,,,30,0,1,,,0,,,66,42
49150,note_off,,,,,10,0,1,,,0,,,68,64
49170,note_on,,,,,20,0,1,,,0,,,64,45
49180,note_off,,,,,10,0,1,,,0,,,66,64
49200,note_on,,,,,0,0,1,,,0,,,63,53
49200,note_off,,,,,20,0,1,,,0,,,64,64
49230,note_on,,,,,0,0,1,,,0,,,64,49
49230,note_off,,,,,30,0,1,,,0,,,63,64
49260,note_on,,,,,30,0,1,,,0,,,63,46
49270,note_off,,,,,10,0,1,,,0,,,64,64
49290,note_on,,,,,20,0,1,,,0,,,61,49
49300,note_off,,,,,10,0,1,,,0,,,63,64
49320,note_on,,,,,20,0,1,,,0,,,60,56
49330,note_off,,,,,10,0,1,,,0,,,61,64
49440,note_on,,,,,0,0,1,,,0,,,68,47
49440,note_off,,,,,110,0,1,,,0,,,60,64
49680,note_on,,,,,630,0,2,,,0,,,72,46
49690,set_tempo,,,,,620,1,0,1500000,,,,,,
49690,note_on,,,,,10,0,2,,,0,,,75,47
49700,note_on,,,,,10,0,2,,,0,,,78,47
49710,note_on,,,,,10,0,2,,,0,,,81,48
49710,set_tempo,,,,,20,1,0,2727273,,,,,,
49770,note_off,,,,,0,0,2,,,0,,,72,64
49770,note_off,,,,,0,0,2,,,0,,,75,64
49770,note_off,,,,,0,0,2,,,0,,,78,64
49770,note_off,,,,,60,0,2,,,0,,,81,64
49800,note_on,,,,,0,0,1,,,0,,,67,63
49800,note_off,,,,,360,0,1,,,0,,,68,64
49800,set_tempo,,,,,90,1,0,1714286,,,,,,
49830,note_off,,,,,30,0,1,,,0,,,67,64
49830,note_on,,,,,0,0,1,,,0,,,68,55
49860,note_on,,,,,30,0,1,,,0,,,69,53
49870,note_off,,,,,10,0,1,,,0,,,68,64
49890,note_on,,,,,20,0,1,,,0,,,68,49
49900,note_off,,,,,10,0,1,,,0,,,69,64
49920,note_off,,,,,20,0,1,,,0,,,68,64
49920,note_on,,,,,0,0,1,,,0,,,67,59
49950,note_off,,,,,30,0,1,,,0,,,67,64
49950,note_on,,,,,0,0,1,,,0,,,68,54
49980,note_on,,,,,30,0,1,,,0,,,66,50
49990,note_off,,,,,10,0,1,,,0,,,68,64
50010,note_on,,,,,20,0,1,,,0,,,63,45
50020,note_off,,,,,10,0,1,,,0,,,66,64
50040,note_on,,,,,20,0,1,,,0,,,61,41
50050,note_off,,,,,10,0,1,,,0,,,63,64
50160,note_on,,,,,0,0,1,,,0,,,68,40
50160,note_off,,,,,110,0,1,,,0,,,61,64
50400,note_on,,,,,630,0,2,,,0,,,44,39
50410,note_on,,,,,10,0,2,,,0,,,49,41
50420,note_on,,,,,10,0,2,,,0,,,52,41
50430,note_on,,,,,10,0,2,,,0,,,56,43
50490,note_off,,,,,0,0,2,,,0,,,44,64
50490,note_off,,,,,0,0,2,,,0,,,49,64
50490,note_off,,,,,0,0,2,,,0,,,52,64
50490,note_off,,,,,60,0,2,,,0,,,56,64
50520,note_off,,,,,360,0,1,,,0,,,68,64
50520,note_on,,,,,0,0,1,,,0,,,66,41
50580,note_on,,,,,0,0,1,,,0,,,64,32
50580,note_off,,,,,60,0,1,,,0,,,66,64
50624,note_off,,,,,44,0,1,,,0,,,64,64
50640,note_on,,,,,16,0,1,,,0,,,63,41
50700,note_on,,,,,0,0,1,,,0,,,61,30
50700,note_off,,,,,60,0,1,,,0,,,63,64
50744,note_off,,,,,44,0,1,,,0,,,61,64
50760,note_on,,,,,16,0,1,,,0,,,60,45
50880,note_on,,,,,0,0,1,,,0,,,69,50
50880,note_off,,,,,120,0,1,,,0,,,60,64
51000,set_tempo,,,,,1200,1,0,2400000,,,,,,
51000,note_on,,,,,0,0,1,,,0,,,70,56
51000,note_off,,,,,120,0,1,,,0,,,69,64
51120,note_on,,,,,630,0,2,,,0,,,75,48
51130,note_on,,,,,10,0,2,,,0,,,78,50
51140,note_on,,,,,10,0,2,,,0,,,84,52
51240,note_off,,,,,0,0,2,,,0,,,75,64
51240,note_off,,,,,0,0,2,,,0,,,78,64
51240,note_off,,,,,100,0,2,,,0,,,84,64
51360,set_tempo,,,,,360,1,0,1935484,,,,,,
51480,set_tempo,,,,,120,1,0,1666667,,,,,,
51480,note_on,,,,,240,0,2,,,0,,,44,40
51490,note_on,,,,,10,0,2,,,0,,,51,39
51500,note_on,,,,,10,0,2,,,0,,,56,39
51510,note_on,,,,,10,0,2,,,0,,,60,39
51600,note_off,,,,,0,0,2,,,0,,,51,64
51600,note_off,,,,,0,0,2,,,0,,,44,64
51600,note_off,,,,,0,0,2,,,0,,,56,64
51600,note_off,,,,,90,0,2,,,0,,,60,64
51840,note_on,,,,,0,0,1,,,0,,,68,45
51840,note_off,,,,,840,0,1,,,0,,,70,64
51960,note_off,,,,,120,0,1,,,0,,,68,64
51960,note_on,,,,,0,0,1,,,0,,,66,34
52050,note_off,,,,,90,0,1,,,0,,,66,64
52080,control_change,,,,,480,0,2,,,0,7,79,,
52200,note_on,,,,,150,0,1,,,0,,,65,40
52320,note_on,,,,,0,0,1,,,0,,,63,29
52320,note_off,,,,,120,0,1,,,0,,,65,64
52410,note_off,,,,,90,0,1,,,0,,,63,64
52520,set_tempo,,,,,1040,1,0,2727273,,,,,,
52560,note_on,,,,,150,0,1,,,0,,,61,45
52560,control_change,,,,,0,0,1,,,0,64,96,,
52560,note_on,,,,,480,0,2,,,0,,,37,35
52570,set_tempo,,,,,50,1,0,1200000,,,,,,
52620,note_on,,,,,60,0,1,,,0,,,53,29
52650,note_off,,,,,90,0,2,,,0,,,37,64
52680,note_off,,,,,60,0,1,,,0,,,53,64
52680,note_on,,,,,0,0,1,,,0,,,56,31
52740,note_off,,,,,60,0,1,,,0,,,56,64
52740,note_on,,,,,0,0,1,,,0,,,53,34
52800,note_off,,,,,60,0,1,,,0,,,53,64
52800,note_on,,,,,0,0,1,,,0,,,56,38
52860,note_on,,,,,0,0,1,,,0,,,49,33
52860,note_off,,,,,60,0,1,,,0,,,56,64
52890,note_off,,,,,30,0,1,,,0,,,49,64
52890,control_change,,,,,0,0,1,,,0,64,0,,
52920,note_on,,,,,270,0,2,,,0,,,34,49
52920,note_off,,,,,30,0,1,,,0,,,61,64
52920,note_on,,,,,0,0,1,,,0,,,61,48
52920,control_change,,,,,0,0,1,,,0,64,94,,
52980,note_on,,,,,60,0,1,,,0,,,54,30
53010,note_off,,,,,90,0,2,,,0,,,34,64
53040,note_on,,,,,0,0,1,,,0,,,58,35
53040,note_off,,,,,60,0,1,,,0,,,54,64
53100,note_off,,,,,60,0,1,,,0,,,58,64
53100,note_on,,,,,0,0,1,,,0,,,54,38
53160,note_off,,,,,60,0,1,,,0,,,54,64
53160,note_on,,,,,0,0,1,,,0,,,58,38
53220,note_off,,,,,60,0,1,,,0,,,58,64
53220,note_on,,,,,0,0,1,,,0,,,49,36
53250,note_off,,,,,30,0,1,,,0,,,49,64
53250,control_change,,,,,0,0,1,,,0,64,0,,
53280,note_on,,,,,270,0,2,,,0,,,37,52
53280,note_off,,,,,30,0,1,,,0,,,61,64
53280,note_on,,,,,0,0,1,,,0,,,61,51
53280,control_change,,,,,0,0,1,,,0,64,96,,
53340,note_on,,,,,60,0,1,,,0,,,53,36
53370,note_off,,,,,90,0,2,,,0,,,37,64
53400,note_off,,,,,60,0,1,,,0,,,53,64
53400,note_on,,,,,0,0,1,,,0,,,56,38
53460,note_off,,,,,60,0,1,,,0,,,56,64
53460,note_on,,,,,0,0,1,,,0,,,53,40
53520,note_off,,,,,60,0,1,,,0,,,53,64
53520,note_on,,,,,0,0,1,,,0,,,56,43
53580,note_off,,,,,60,0,1,,,0,,,56,64
53580,note_on,,,,,0,0,1,,,0,,,49,39
53610,note_off,,,,,30,0,1,,,0,,,49,64
53610,control_change,,,,,0,0,1,,,0,64,0,,
53640,note_off,,,,,30,0,1,,,0,,,61,64
53640,note_on,,,,,0,0,1,,,0,,,60,54
53640,control_change,,,,,0,0,1,,,0,64,95,,
53640,note_on,,,,,270,0,2,,,0,,,44,45
53700,note_on,,,,,60,0,1,,,0,,,54,38
53730,note_off,,,,,90,0,2,,,0,,,44,64
53760,note_off,,,,,60,0,1,,,0,,,54,64
53760,note_off,,,,,0,0,1,,,0,,,60,64
53760,note_on,,,,,0,0,1,,,0,,,66,57
53760,note_on,,,,,0,0,1,,,0,,,56,57
53820,note_off,,,,,60,0,1,,,0,,,56,64
53820,note_on,,,,,0,0,1,,,0,,,54,40
53880,note_off,,,,,60,0,1,,,0,,,54,64
53880,note_off,,,,,0,0,1,,,0,,,66,64
53880,note_on,,,,,0,0,1,,,0,,,60,49
53880,note_on,,,,,0,0,1,,,0,,,56,49
53940,note_off,,,,,60,0,1,,,0,,,56,64
53940,note_on,,,,,0,0,1,,,0,,,51,33
53970,control_change,,,,,0,0,1,,,0,64,0,,
53970,note_off,,,,,30,0,1,,,0,,,51,64
54000,note_on,,,,,270,0,2,,,0,,,37,45
54000,control_change,,,,,0,0,1,,,0,64,96,,
54000,note_on,,,,,0,0,1,,,0,,,61,45
54000,note_off,,,,,30,0,1,,,0,,,60,64
54060,note_on,,,,,60,0,1,,,0,,,53,34
54090,note_off,,,,,90,0,2,,,0,,,37,64
54120,note_off,,,,,60,0,1,,,0,,,53,64
54120,note_on,,,,,0,0,1,,,0,,,56,35
54180,note_on,,,,,0,0,1,,,0,,,53,36
54180,note_off,,,,,60,0,1,,,0,,,56,64
54240,note_off,,,,,60,0,1,,,0,,,53,64
54240,note_on,,,,,0,0,1,,,0,,,56,39
54300,note_on,,,,,0,0,1,,,0,,,49,36
54300,note_off,,,,,60,0,1,,,0,,,56,64
54330,note_off,,,,,30,0,1,,,0,,,49,64
54330,control_change,,,,,0,0,1,,,0,64,0,,
54330,note_on,,,,,240,0,2,,,0,,,35,46
54360,note_off,,,,,30,0,1,,,0,,,61,64
54360,note_on,,,,,0,0,1,,,0,,,61,52
54360,control_change,,,,,0,0,1,,,0,64,96,,
54360,note_off,,,,,30,0,2,,,0,,,35,64
54360,note_on,,,,,0,0,2,,,0,,,33,47
54390,note_off,,,,,30,0,2,,,0,,,33,64
54390,note_on,,,,,0,0,2,,,0,,,35,50
54420,note_off,,,,,30,0,2,,,0,,,35,64
54420,note_on,,,,,0,0,2,,,0,,,33,52
54420,note_on,,,,,60,0,1,,,0,,,54,42
54450,note_off,,,,,30,0,2,,,0,,,33,64
54450,note_on,,,,,0,0,2,,,0,,,35,53
54480,note_off,,,,,30,0,2,,,0,,,35,64
54480,note_off,,,,,60,0,1,,,0,,,54,64
54480,note_on,,,,,0,0,1,,,0,,,57,42
54480,note_on,,,,,0,0,2,,,0,,,33,54
54510,note_on,,,,,0,0,2,,,0,,,35,54
54510,note_off,,,,,30,0,2,,,0,,,33,64
54540,note_off,,,,,60,0,1,,,0,,,57,64
54540,note_on,,,,,0,0,1,,,0,,,54,43
54540,note_on,,,,,0,0,2,,,0,,,33,57
54540,note_off,,,,,30,0,2,,,0,,,35,64
54570,note_off,,,,,30,0,2,,,0,,,33,64
54570,note_on,,,,,0,0,2,,,0,,,35,58
54600,note_on,,,,,0,0,1,,,0,,,57,47
54600,note_off,,,,,60,0,1,,,0,,,54,64
54600,note_off,,,,,30,0,2,,,0,,,35,64
54600,note_on,,,,,0,0,2,,,0,,,33,62
54630,note_off,,,,,30,0,2,,,0,,,33,64
54630,note_on,,,,,0,0,2,,,0,,,32,63
54660,note_off,,,,,60,0,1,,,0,,,57,64
54660,note_on,,,,,0,0,1,,,0,,,49,43
54660,note_off,,,,,30,0,2,,,0,,,32,64
54660,note_on,,,,,0,0,2,,,0,,,33,66
54690,control_change,,,,,0,0,1,,,0,64,0,,
54690,note_off,,,,,30,0,1,,,0,,,49,64
54690,note_off,,,,,30,0,2,,,0,,,33,64
54690,note_on,,,,,0,0,2,,,0,,,35,68
54720,note_off,,,,,30,0,1,,,0,,,61,64
54720,control_change,,,,,0,0,1,,,0,64,96,,
54720,note_on,,,,,0,0,1,,,0,,,61,60
54720,note_off,,,,,30,0,2,,,0,,,35,64
54720,note_on,,,,,0,0,2,,,0,,,37,70
54780,note_on,,,,,60,0,1,,,0,,,53,45
54810,note_off,,,,,90,0,2,,,0,,,37,64
54840,note_on,,,,,0,0,1,,,0,,,56,51
54840,note_off,,,,,60,0,1,,,0,,,53,64
54900,note_on,,,,,0,0,1,,,0,,,53,51
54900,note_off,,,,,60,0,1,,,0,,,56,64
54960,note_off,,,,,60,0,1,,,0,,,53,64
54960,note_on,,,,,0,0,1,,,0,,,56,61
54990,note_on,,,,,180,0,2,,,0,,,39,60
55014,note_off,,,,,24,0,2,,,0,,,39,64
55020,note_on,,,,,6,0,2,,,0,,,41,64
55020,note_off,,,,,60,0,1,,,0,,,56,64
55020,note_on,,,,,0,0,1,,,0,,,49,57
55044,note_off,,,,,24,0,2,,,0,,,41,64
55050,note_off,,,,,30,0,1,,,0,,,49,64
55050,control_change,,,,,0,0,1,,,0,64,0,,
55050,note_on,,,,,6,0,2,,,0,,,42,68
55074,note_off,,,,,24,0,2,,,0,,,42,64
55080,note_on,,,,,6,0,2,,,0,,,44,73
55080,note_off,,,,,30,0,1,,,0,,,61,64
55080,note_on,,,,,0,0,1,,,0,,,60,73
55080,control_change,,,,,0,0,1,,,0,64,95,,
55140,note_on,,,,,60,0,1,,,0,,,54,63
55170,note_off,,,,,90,0,2,,,0,,,44,64
55200,note_on,,,,,0,0,1,,,0,,,56,66
55200,note_on,,,,,0,0,1,,,0,,,66,66
55200,note_off,,,,,60,0,1,,,0,,,54,64
55200,note_off,,,,,0,0,1,,,0,,,60,64
55260,note_on,,,,,0,0,1,,,0,,,54,57
55260,note_off,,,,,60,0,1,,,0,,,56,64
55320,note_off,,,,,60,0,1,,,0,,,54,64
55320,note_off,,,,,0,0,1,,,0,,,66,64
55320,note_on,,,,,0,0,1,,,0,,,60,53
55320,note_on,,,,,0,0,1,,,0,,,56,53
55380,note_off,,,,,60,0,1,,,0,,,56,64
55380,note_on,,,,,0,0,1,,,0,,,51,32
55410,note_off,,,,,30,0,1,,,0,,,51,64
55410,control_change,,,,,0,0,1,,,0,64,0,,
55440,note_off,,,,,30,0,1,,,0,,,60,64
55440,note_on,,,,,0,0,1,,,0,,,61,39
55440,note_on,,,,,270,0,2,,,0,,,37,46
55440,control_change,,,,,0,0,1,,,0,64,96,,
55500,note_on,,,,,60,0,1,,,0,,,53,31
55530,note_off,,,,,90,0,2,,,0,,,37,64
55560,note_off,,,,,60,0,1,,,0,,,53,64
55560,note_on,,,,,0,0,1,,,0,,,56,39
55620,note_off,,,,,60,0,1,,,0,,,56,64
55620,note_on,,,,,0,0,1,,,0,,,53,30
55680,note_off,,,,,60,0,1,,,0,,,53,64
55680,note_on,,,,,0,0,1,,,0,,,56,40
55680,set_tempo,,,,,3110,1,0,1224490,,,,,,
55740,note_off,,,,,60,0,1,,,0,,,56,64
55740,note_on,,,,,0,0,1,,,0,,,49,33
55770,note_off,,,,,30,0,1,,,0,,,49,64
55770,control_change,,,,,0,0,1,,,0,64,0,,
55800,note_on,,,,,270,0,2,,,0,,,35,53
55800,note_off,,,,,30,0,1,,,0,,,61,64
55800,note_on,,,,,0,0,1,,,0,,,61,52
55800,control_change,,,,,0,0,1,,,0,64,96,,
55860,note_on,,,,,60,0,1,,,0,,,53,32
55890,note_off,,,,,90,0,2,,,0,,,35,64
55920,note_off,,,,,60,0,1,,,0,,,53,64
55920,note_on,,,,,0,0,1,,,0,,,56,48
55960,set_tempo,,,,,280,1,0,1250000,,,,,,
55980,note_off,,,,,60,0,1,,,0,,,56,64
55980,note_on,,,,,0,0,1,,,0,,,53,39
56040,note_off,,,,,60,0,1,,,0,,,53,64
56040,note_on,,,,,0,0,1,,,0,,,56,54
56090,set_tempo,,,,,130,1,0,1276596,,,,,,
56100,note_off,,,,,60,0,1,,,0,,,56,64
56100,note_on,,,,,0,0,1,,,0,,,49,45
56130,note_off,,,,,30,0,1,,,0,,,49,64
56130,control_change,,,,,0,0,1,,,0,64,0,,
56160,note_on,,,,,270,0,2,,,0,,,33,57
56160,control_change,,,,,0,0,1,,,0,64,95,,
56160,note_on,,,,,0,0,1,,,0,,,61,60
56160,note_off,,,,,30,0,1,,,0,,,61,64
56220,note_on,,,,,60,0,1,,,0,,,54,49
56220,set_tempo,,,,,130,1,0,1304348,,,,,,
56250,note_off,,,,,90,0,2,,,0,,,33,64
56280,note_on,,,,,0,0,1,,,0,,,57,48
56280,note_off,,,,,60,0,1,,,0,,,54,64
56340,note_on,,,,,0,0,1,,,0,,,54,40
56340,note_off,,,,,60,0,1,,,0,,,57,64
56380,set_tempo,,,,,160,1,0,1333333,,,,,,
56400,note_on,,,,,0,0,1,,,0,,,57,42
56400,note_off,,,,,60,0,1,,,0,,,54,64
56440,set_tempo,,,,,60,1,0,1363636,,,,,,
56460,note_off,,,,,60,0,1,,,0,,,57,64
56460,note_on,,,,,0,0,1,,,0,,,49,32
56490,control_change,,,,,0,0,1,,,0,64,0,,
56490,note_off,,,,,30,0,1,,,0,,,49,64
56520,control_change,,,,,0,0,1,,,0,64,95,,
56520,note_on,,,,,0,0,1,,,0,,,61,52
56520,note_off,,,,,30,0,1,,,0,,,61,64
56520,note_on,,,,,270,0,2,,,0,,,32,46
56580,set_tempo,,,,,140,1,0,1395349,,,,,,
56580,note_on,,,,,60,0,1,,,0,,,53,31
56600,set_tempo,,,,,20,1,0,1428571,,,,,,
56610,note_off,,,,,90,0,2,,,0,,,32,64
56640,note_off,,,,,60,0,1,,,0,,,53,64
56640,note_on,,,,,0,0,1,,,0,,,59,33
56670,set_tempo,,,,,70,1,0,1463415,,,,,,
56700,note_on,,,,,0,0,1,,,0,,,53,24
56700,set_tempo,,,,,30,1,0,1500000,,,,,,
56700,note_off,,,,,60,0,1,,,0,,,59,64
56730,set_tempo,,,,,30,1,0,1538462,,,,,,
56740,set_tempo,,,,,10,1,0,1578947,,,,,,
56760,note_on,,,,,0,0,1,,,0,,,59,27
56760,note_off,,,,,60,0,1,,,0,,,53,64
56770,set_tempo,,,,,30,1,0,1621622,,,,,,
56780,set_tempo,,,,,10,1,0,1666667,,,,,,
56790,set_tempo,,,,,10,1,0,1714286,,,,,,
56800,set_tempo,,,,,10,1,0,1935484,,,,,,
56820,note_off,,,,,60,0,1,,,0,,,59,64
56820,note_on,,,,,0,0,1,,,0,,,49,17
56820,set_tempo,,,,,20,1,0,6000000,,,,,,
56850,note_off,,,,,30,0,1,,,0,,,49,64
56850,control_change,,,,,0,0,1,,,0,64,0,,
56880,marker,,,,,0,1,0,,,,,,,
56880,set_tempo,,,,,60,1,0,1428571,,,,,,
56880,note_on,,,,,270,0,2,,,0,,,42,38
56880,note_off,,,,,30,0,1,,,0,,,61,64
56880,control_change,,,,,0,0,1,,,0,64,95,,
56880,control_change,,,,,0,0,1,,,0,91,96,,
56880,note_on,,,,,0,0,1,,,0,,,69,38
56928,note_off,,,,,48,0,2,,,0,,,42,64
56940,note_on,,,,,12,0,2,,,0,,,57,28
57000,note_on,,,,,120,0,1,,,0,,,73,31
57000,note_on,,,,,0,0,2,,,0,,,61,34
57000,note_off,,,,,60,0,2,,,0,,,57,64
57040,note_off,,,,,40,0,1,,,0,,,73,64
57040,note_on,,,,,0,0,1,,,0,,,73,29
57048,note_off,,,,,48,0,2,,,0,,,61,64
57060,note_on,,,,,12,0,2,,,0,,,57,31
57080,note_off,,,,,40,0,1,,,0,,,73,64
57080,note_on,,,,,0,0,1,,,0,,,73,26
57120,note_off,,,,,60,0,2,,,0,,,57,64
57120,note_off,,,,,40,0,1,,,0,,,73,64
57120,note_on,,,,,0,0,2,,,0,,,61,35
57120,note_on,,,,,0,0,1,,,0,,,73,25
57180,note_off,,,,,60,0,2,,,0,,,61,64
57180,note_on,,,,,0,0,2,,,0,,,49,23
57210,note_off,,,,,30,0,2,,,0,,,49,64
57230,control_change,,,,,110,0,1,,,0,64,0,,
57240,note_off,,,,,10,0,1,,,0,,,73,64
57240,note_off,,,,,0,0,1,,,0,,,69,64
57240,note_on,,,,,0,0,1,,,0,,,68,38
57240,note_on,,,,,30,0,2,,,0,,,41,39
57240,control_change,,,,,0,0,1,,,0,64,95,,
57288,note_off,,,,,48,0,2,,,0,,,41,64
57300,note_on,,,,,12,0,2,,,0,,,56,28
57360,note_on,,,,,0,0,2,,,0,,,61,34
57360,note_off,,,,,60,0,2,,,0,,,56,64
57360,note_on,,,,,120,0,1,,,0,,,73,32
57400,note_off,,,,,40,0,1,,,0,,,73,64
57400,note_on,,,,,0,0,1,,,0,,,73,29
57408,note_off,,,,,48,0,2,,,0,,,61,64
57420,note_on,,,,,12,0,2,,,0,,,56,31
57440,note_on,,,,,0,0,1,,,0,,,73,27
57440,note_off,,,,,40,0,1,,,0,,,73,64
57480,note_off,,,,,60,0,2,,,0,,,56,64
57480,note_off,,,,,40,0,1,,,0,,,73,64
57480,note_on,,,,,0,0,1,,,0,,,73,25
57480,note_on,,,,,0,0,2,,,0,,,61,35
57540,note_off,,,,,60,0,2,,,0,,,61,64
57540,note_on,,,,,0,0,2,,,0,,,49,19
57540,note_off,,,,,60,0,1,,,0,,,68,64
57570,note_off,,,,,30,0,2,,,0,,,49,64
57570,note_on,,,,,30,0,1,,,0,,,71,39
57580,control_change,,,,,10,0,1,,,0,64,0,,
57600,control_change,,,,,0,0,1,,,0,64,95,,
57600,note_on,,,,,30,0,2,,,0,,,42,38
57600,note_on,,,,,0,0,1,,,0,,,69,48
57600,note_off,,,,,0,0,1,,,0,,,73,64
57600,note_off,,,,,20,0,1,,,0,,,71,64
57648,note_off,,,,,48,0,2,,,0,,,42,64
57660,note_on,,,,,12,0,2,,,0,,,57,28
57660,note_on,,,,,0,0,1,,,0,,,68,33
57660,note_off,,,,,60,0,1,,,0,,,69,64
57720,note_on,,,,,0,0,2,,,0,,,61,34
57720,note_on,,,,,0,0,1,,,0,,,69,35
57720,note_off,,,,,60,0,1,,,0,,,68,64
57720,note_off,,,,,60,0,2,,,0,,,57,64
57768,note_off,,,,,48,0,2,,,0,,,61,64
57780,note_on,,,,,12,0,2,,,0,,,57,31
57810,note_on,,,,,0,0,1,,,0,,,73,36
57810,note_off,,,,,90,0,1,,,0,,,69,64
57840,note_on,,,,,0,0,2,,,0,,,61,35
57840,note_off,,,,,60,0,2,,,0,,,57,64
57840,note_off,,,,,30,0,1,,,0,,,73,64
57840,note_on,,,,,0,0,1,,,0,,,78,50
57840,note_on,,,,,0,0,1,,,0,,,69,40
57900,note_on,,,,,0,0,2,,,0,,,49,19
57900,note_off,,,,,60,0,2,,,0,,,61,64
57930,note_off,,,,,30,0,2,,,0,,,49,64
57950,control_change,,,,,110,0,1,,,0,64,0,,
57960,note_on,,,,,30,0,2,,,0,,,41,39
57960,note_off,,,,,10,0,1,,,0,,,69,64
57960,note_off,,,,,0,0,1,,,0,,,78,64
57960,note_on,,,,,0,0,1,,,0,,,68,41
57960,control_change,,,,,0,0,1,,,0,64,96,,
58008,note_off,,,,,48,0,2,,,0,,,41,64
58020,note_on,,,,,12,0,2,,,0,,,56,28
58080,note_on,,,,,120,0,1,,,0,,,73,32
58080,note_off,,,,,60,0,2,,,0,,,56,64
58080,note_on,,,,,0,0,2,,,0,,,61,34
58120,note_on,,,,,0,0,1,,,0,,,73,30
58120,note_off,,,,,40,0,1,,,0,,,73,64
58128,note_off,,,,,48,0,2,,,0,,,61,64
58140,note_on,,,,,12,0,2,,,0,,,56,31
58160,note_on,,,,,0,0,1,,,0,,,73,28
58160,note_off,,,,,40,0,1,,,0,,,73,64
58200,note_off,,,,,40,0,1,,,0,,,73,64
58200,note_on,,,,,0,0,2,,,0,,,61,35
58200,note_off,,,,,60,0,2,,,0,,,56,64
58200,note_on,,,,,0,0,1,,,0,,,73,26
58260,note_off,,,,,60,0,1,,,0,,,68,64
58260,note_on,,,,,0,0,2,,,0,,,49,19
58260,note_off,,,,,60,0,2,,,0,,,61,64
58290,note_off,,,,,30,0,2,,,0,,,49,64
58310,control_change,,,,,50,0,1,,,0,64,0,,
58320,note_on,,,,,0,0,1,,,0,,,73,42
58320,note_off,,,,,10,0,1,,,0,,,73,64
58320,note_on,,,,,30,0,2,,,0,,,45,50
58320,control_change,,,,,0,0,1,,,0,64,96,,
58368,note_off,,,,,48,0,2,,,0,,,45,64
58380,note_on,,,,,12,0,2,,,0,,,60,37
58440,note_on,,,,,120,0,1,,,0,,,78,37
58440,note_off,,,,,60,0,2,,,0,,,60,64
58440,note_on,,,,,0,0,2,,,0,,,61,36
58480,note_off,,,,,40,0,1,,,0,,,78,64
58480,note_on,,,,,0,0,1,,,0,,,81,44
58488,note_off,,,,,48,0,2,,,0,,,61,64
58500,note_on,,,,,12,0,2,,,0,,,49,33
58520,note_off,,,,,40,0,1,,,0,,,81,64
58520,note_on,,,,,0,0,1,,,0,,,80,38
58560,note_off,,,,,40,0,1,,,0,,,80,64
58560,note_on,,,,,0,0,1,,,0,,,78,32
58560,note_off,,,,,60,0,2,,,0,,,49,64
58560,note_on,,,,,0,0,2,,,0,,,61,42
58620,note_off,,,,,60,0,2,,,0,,,61,64
58620,note_on,,,,,0,0,2,,,0,,,49,35
58650,note_off,,,,,30,0,2,,,0,,,49,64
58670,control_change,,,,,110,0,1,,,0,64,0,,
58680,note_off,,,,,10,0,1,,,0,,,78,64
58680,note_off,,,,,0,0,1,,,0,,,73,64
58680,control_change,,,,,0,0,1,,,0,64,96,,
58680,note_on,,,,,30,0,2,,,0,,,47,51
58680,note_on,,,,,0,0,1,,,0,,,74,53
58728,note_off,,,,,48,0,2,,,0,,,47,64
58740,note_on,,,,,12,0,2,,,0,,,60,37
58800,note_on,,,,,0,0,2,,,0,,,61,43
58800,note_off,,,,,60,0,2,,,0,,,60,64
58800,note_on,,,,,120,0,1,,,0,,,77,37
58840,note_off,,,,,40,0,1,,,0,,,77,64
58840,note_on,,,,,0,0,1,,,0,,,80,46
58848,note_off,,,,,48,0,2,,,0,,,61,64
58860,note_on,,,,,12,0,2,,,0,,,49,31
58880,note_off,,,,,40,0,1,,,0,,,80,64
58880,note_on,,,,,0,0,1,,,0,,,78,41
58920,note_off,,,,,60,0,2,,,0,,,49,64
58920,note_on,,,,,0,0,2,,,0,,,61,35
58920,note_off,,,,,40,0,1,,,0,,,78,64
58920,note_on,,,,,0,0,1,,,0,,,77,35
58980,note_off,,,,,60,0,2,,,0,,,61,64
58980,note_on,,,,,0,0,2,,,0,,,49,23
59010,note_off,,,,,30,0,2,,,0,,,49,64
59030,control_change,,,,,110,0,1,,,0,64,0,,
59040,note_off,,,,,10,0,1,,,0,,,77,64
59040,note_off,,,,,0,0,1,,,0,,,74,64
59040,note_on,,,,,0,0,1,,,0,,,78,50
59040,note_on,,,,,0,0,1,,,0,,,74,60
59040,control_change,,,,,0,0,1,,,0,64,94,,
59040,note_on,,,,,30,0,2,,,0,,,45,43
59088,note_off,,,,,48,0,2,,,0,,,45,64
59100,note_on,,,,,0,0,1,,,0,,,73,45
59100,note_off,,,,,60,0,1,,,0,,,74,64
59100,note_on,,,,,12,0,2,,,0,,,49,38
59120,set_tempo,,,,,2240,1,0,1463415,,,,,,
59130,note_off,,,,,30,0,1,,,0,,,78,64
59140,control_change,,,,,10,0,1,,,0,64,0,,
59144,note_off,,,,,4,0,1,,,0,,,73,64
59148,note_off,,,,,48,0,2,,,0,,,49,64
59160,control_change,,,,,0,0,1,,,0,64,95,,
59160,note_on,,,,,0,0,1,,,0,,,73,52
59160,note_on,,,,,16,0,1,,,0,,,77,42
59160,note_on,,,,,12,0,2,,,0,,,44,33
59208,note_off,,,,,48,0,2,,,0,,,44,64
59220,note_on,,,,,12,0,2,,,0,,,49,38
59220,note_off,,,,,60,0,1,,,0,,,73,64
59220,note_on,,,,,0,0,1,,,0,,,71,38
59240,set_tempo,,,,,120,1,0,1500000,,,,,,
59250,note_off,,,,,30,0,1,,,0,,,77,64
59264,note_off,,,,,14,0,1,,,0,,,71,64
59268,note_off,,,,,48,0,2,,,0,,,49,64
59270,control_change,,,,,6,0,1,,,0,64,0,,
59280,note_on,,,,,12,0,2,,,0,,,42,38
59280,control_change,,,,,0,0,1,,,0,64,96,,
59280,note_on,,,,,0,0,1,,,0,,,71,41
59280,note_on,,,,,10,0,1,,,0,,,78,31
59328,note_off,,,,,48,0,2,,,0,,,42,64
59340,note_on,,,,,0,0,1,,,0,,,69,36
59340,note_off,,,,,60,0,1,,,0,,,71,64
59340,note_on,,,,,12,0,2,,,0,,,49,38
59370,note_off,,,,,30,0,1,,,0,,,78,64
59384,note_off,,,,,14,0,1,,,0,,,69,64
59388,note_off,,,,,48,0,2,,,0,,,49,64
59390,control_change,,,,,6,0,1,,,0,64,0,,
59400,control_change,,,,,0,0,1,,,0,64,96,,
59400,note_on,,,,,12,0,2,,,0,,,37,40
59400,note_on,,,,,0,0,1,,,0,,,77,37
59400,note_on,,,,,10,0,1,,,0,,,80,37
59400,note_on,,,,,0,0,1,,,0,,,73,37
59400,note_on,,,,,0,0,1,,,0,,,68,37
59420,set_tempo,,,,,180,1,0,1538462,,,,,,
59448,note_off,,,,,48,0,2,,,0,,,37,64
59460,note_on,,,,,12,0,2,,,0,,,56,29
59520,note_on,,,,,0,0,2,,,0,,,61,34
59520,note_off,,,,,60,0,2,,,0,,,56,64
59568,note_off,,,,,48,0,2,,,0,,,61,64
59580,note_on,,,,,12,0,2,,,0,,,53,27
59640,note_on,,,,,0,0,2,,,0,,,61,31
59640,note_off,,,,,60,0,2,,,0,,,53,64
59700,note_on,,,,,0,0,2,,,0,,,49,20
59700,note_off,,,,,60,0,2,,,0,,,61,64
59700,note_off,,,,,0,0,1,,,0,,,80,64
59700,note_off,,,,,0,0,1,,,0,,,77,64
59700,note_off,,,,,0,0,1,,,0,,,73,64
59700,note_off,,,,,300,0,1,,,0,,,68,64
59730,note_off,,,,,30,0,2,,,0,,,49,64
59750,control_change,,,,,50,0,1,,,0,64,0,,
59760,note_on,,,,,10,0,1,,,0,,,69,38
59760,control_change,,,,,0,0,1,,,0,91,96,,
59760,control_change,,,,,0,0,1,,,0,64,95,,
59760,note_on,,,,,30,0,2,,,0,,,42,38
59760,set_tempo,,,,,340,1,0,1428571,,,,,,
59808,note_off,,,,,48,0,2,,,0,,,42,64
59820,note_on,,,,,12,0,2,,,0,,,57,28
59880,note_off,,,,,60,0,2,,,0,,,57,64
59880,note_on,,,,,120,0,1,,,0,,,73,32
59880,note_on,,,,,0,0,2,,,0,,,61,34
59920,note_on,,,,,0,0,1,,,0,,,73,30
59920,note_off,,,,,40,0,1,,,0,,,73,64
59928,note_off,,,,,48,0,2,,,0,,,61,64
59940,note_on,,,,,12,0,2,,,0,,,57,31
59960,note_off,,,,,40,0,1,,,0,,,73,64
59960,note_on,,,,,0,0,1,,,0,,,73,28
60000,note_off,,,,,60,0,2,,,0,,,57,64
60000,note_on,,,,,0,0,2,,,0,,,61,35
60000,note_off,,,,,40,0,1,,,0,,,73,64
60000,note_on,,,,,0,0,1,,,0,,,73,27
60060,note_off,,,,,60,0,2,,,0,,,61,64
60060,note_on,,,,,0,0,2,,,0,,,49,19
60090,note_off,,,,,30,0,2,,,0,,,49,64
60110,control_change,,,,,110,0,1,,,0,64,0,,
60120,note_on,,,,,0,0,1,,,0,,,68,38
60120,note_off,,,,,10,0,1,,,0,,,73,64
60120,note_on,,,,,30,0,2,,,0,,,41,39
60120,note_off,,,,,0,0,1,,,0,,,69,64
60120,control_change,,,,,0,0,1,,,0,64,95,,
60168,note_off,,,,,48,0,2,,,0,,,41,64
60180,note_on,,,,,12,0,2,,,0,,,56,28
60240,note_off,,,,,60,0,2,,,0,,,56,64
60240,note_on,,,,,120,0,1,,,0,,,73,33
60240,note_on,,,,,0,0,2,,,0,,,61,34
60280,note_on,,,,,0,0,1,,,0,,,73,32
60280,note_off,,,,,40,0,1,,,0,,,73,64
60288,note_off,,,,,48,0,2,,,0,,,61,64
60300,note_on,,,,,12,0,2,,,0,,,56,31
60320,note_on,,,,,0,0,1,,,0,,,73,30
60320,note_off,,,,,40,0,1,,,0,,,73,64
60360,note_on,,,,,0,0,2,,,0,,,61,35
60360,note_on,,,,,0,0,1,,,0,,,73,29
60360,note_off,,,,,40,0,1,,,0,,,73,64
60360,note_off,,,,,60,0,2,,,0,,,56,64
60420,note_off,,,,,60,0,2,,,0,,,61,64
60420,note_on,,,,,0,0,2,,,0,,,49,20
60420,note_off,,,,,60,0,1,,,0,,,68,64
60450,note_off,,,,,30,0,2,,,0,,,49,64
60450,note_on,,,,,30,0,1,,,0,,,71,39
60460,control_change,,,,,10,0,1,,,0,64,0,,
60480,note_on,,,,,0,0,1,,,0,,,69,48
60480,note_off,,,,,0,0,1,,,0,,,73,64
60480,note_off,,,,,20,0,1,,,0,,,71,64
60480,note_on,,,,,30,0,2,,,0,,,42,38
60480,control_change,,,,,0,0,1,,,0,64,95,,
60528,note_off,,,,,48,0,2,,,0,,,42,64
60540,note_on,,,,,0,0,1,,,0,,,68,33
60540,note_off,,,,,60,0,1,,,0,,,69,64
60540,note_on,,,,,12,0,2,,,0,,,57,28
60600,note_on,,,,,0,0,1,,,0,,,69,35
60600,note_off,,,,,60,0,1,,,0,,,68,64
60600,note_on,,,,,0,0,2,,,0,,,61,34
60600,note_off,,,,,60,0,2,,,0,,,57,64
60648,note_off,,,,,48,0,2,,,0,,,61,64
60660,note_on,,,,,12,0,2,,,0,,,57,31
60690,note_off,,,,,90,0,1,,,0,,,69,64
60690,note_on,,,,,0,0,1,,,0,,,73,36
60720,note_off,,,,,30,0,1,,,0,,,73,64
60720,note_on,,,,,0,0,2,,,0,,,61,35
60720,note_off,,,,,60,0,2,,,0,,,57,64
60720,note_on,,,,,0,0,1,,,0,,,69,40
60720,note_on,,,,,0,0,1,,,0,,,78,50
60780,note_on,,,,,0,0,2,,,0,,,49,23
60780,note_off,,,,,60,0,2,,,0,,,61,64
60810,note_off,,,,,30,0,2,,,0,,,49,64
60830,control_change,,,,,110,0,1,,,0,64,0,,
60840,control_change,,,,,0,0,1,,,0,64,96,,
60840,note_on,,,,,0,0,1,,,0,,,68,41
60840,note_off,,,,,0,0,1,,,0,,,78,64
60840,note_off,,,,,10,0,1,,,0,,,69,64
60840,note_on,,,,,30,0,2,,,0,,,41,39
60888,note_off,,,,,48,0,2,,,0,,,41,64
60900,note_on,,,,,12,0,2,,,0,,,56,28
60960,note_on,,,,,0,0,2,,,0,,,61,34
60960,note_on,,,,,120,0,1,,,0,,,73,33
60960,note_off,,,,,60,0,2,,,0,,,56,64
61000,note_on,,,,,0,0,1,,,0,,,73,33
61000,note_off,,,,,40,0,1,,,0,,,73,64
61008,note_off,,,,,48,0,2,,,0,,,61,64
61020,note_on,,,,,12,0,2,,,0,,,56,31
61040,note_on,,,,,0,0,1,,,0,,,73,31
61040,note_off,,,,,40,0,1,,,0,,,73,64
61080,note_off,,,,,40,0,1,,,0,,,73,64
61080,note_on,,,,,0,0,1,,,0,,,73,29
61080,note_off,,,,,60,0,2,,,0,,,56,64
61080,note_on,,,,,0,0,2,,,0,,,61,35
61140,note_off,,,,,60,0,1,,,0,,,68,64
61140,set_tempo,,,,,1380,1,0,1666667,,,,,,
61140,note_off,,,,,60,0,2,,,0,,,61,64
61140,note_on,,,,,0,0,2,,,0,,,49,23
61170,note_off,,,,,30,0,2,,,0,,,49,64
61190,control_change,,,,,50,0,1,,,0,64,0,,
61200,note_on,,,,,30,0,2,,,0,,,42,50
61200,note_on,,,,,0,0,1,,,0,,,71,42
61200,control_change,,,,,0,0,1,,,0,64,96,,
61200,note_off,,,,,10,0,1,,,0,,,73,64
61200,set_tempo,,,,,60,1,0,1428571,,,,,,
61248,note_off,,,,,48,0,2,,,0,,,42,64
61260,note_on,,,,,12,0,2,,,0,,,59,37
61320,note_off,,,,,60,0,2,,,0,,,59,64
61320,note_on,,,,,0,0,2,,,0,,,62,36
61320,note_on,,,,,120,0,1,,,0,,,78,37
61360,note_on,,,,,0,0,1,,,0,,,80,44
61360,note_off,,,,,40,0,1,,,0,,,78,64
61368,note_off,,,,,48,0,2,,,0,,,62,64
61380,note_on,,,,,12,0,2,,,0,,,59,33
61400,note_off,,,,,40,0,1,,,0,,,80,64
61400,note_on,,,,,0,0,1,,,0,,,78,38
61430,note_off,,,,,30,0,1,,,0,,,78,64
61440,note_on,,,,,0,0,2,,,0,,,62,42
61440,note_off,,,,,60,0,2,,,0,,,59,64
61440,note_on,,,,,10,0,1,,,0,,,78,32
61500,note_on,,,,,0,0,2,,,0,,,50,24
61500,note_off,,,,,60,0,2,,,0,,,62,64
61530,note_off,,,,,30,0,2,,,0,,,50,64
61550,control_change,,,,,110,0,1,,,0,64,0,,
61560,note_on,,,,,30,0,2,,,0,,,42,51
61560,note_off,,,,,10,0,1,,,0,,,78,64
61560,control_change,,,,,0,0,1,,,0,64,96,,
61560,note_on,,,,,0,0,1,,,0,,,69,40
61560,note_off,,,,,0,0,1,,,0,,,71,64
61608,note_off,,,,,48,0,2,,,0,,,42,64
61620,note_on,,,,,12,0,2,,,0,,,57,37
61680,note_on,,,,,120,0,1,,,0,,,78,37
61680,note_off,,,,,60,0,2,,,0,,,57,64
61680,note_on,,,,,0,0,2,,,0,,,61,43
61720,note_off,,,,,40,0,1,,,0,,,78,64
61720,note_on,,,,,0,0,1,,,0,,,80,46
61728,note_off,,,,,48,0,2,,,0,,,61,64
61740,note_on,,,,,12,0,2,,,0,,,57,31
61760,note_on,,,,,0,0,1,,,0,,,78,41
61760,note_off,,,,,40,0,1,,,0,,,80,64
61790,note_off,,,,,30,0,1,,,0,,,78,64
61800,note_on,,,,,10,0,1,,,0,,,78,35
61800,note_off,,,,,60,0,2,,,0,,,57,64
61800,note_on,,,,,0,0,2,,,0,,,61,35
61860,note_off,,,,,60,0,2,,,0,,,61,64
61860,note_on,,,,,0,0,2,,,0,,,49,23
61890,note_off,,,,,30,0,2,,,0,,,49,64
61910,control_change,,,,,110,0,1,,,0,64,0,,
61920,control_change,,,,,0,0,1,,,0,64,94,,
61920,note_off,,,,,10,0,1,,,0,,,78,64
61920,note_on,,,,,0,0,1,,,0,,,77,41
61920,note_on,,,,,0,0,1,,,0,,,73,41
61920,note_on,,,,,0,0,1,,,0,,,68,41
61920,note_off,,,,,0,0,1,,,0,,,69,64
61920,note_on,,,,,30,0,2,,,0,,,37,40
61968,note_off,,,,,48,0,2,,,0,,,37,64
61980,note_on,,,,,12,0,2,,,0,,,56,29
62040,note_off,,,,,60,0,2,,,0,,,56,64
62040,note_off,,,,,120,0,1,,,0,,,68,64
62040,note_off,,,,,0,0,1,,,0,,,73,64
62040,note_on,,,,,0,0,2,,,0,,,61,34
62040,note_on,,,,,0,0,1,,,0,,,77,40
62040,note_on,,,,,0,0,1,,,0,,,73,40
62040,note_on,,,,,0,0,1,,,0,,,68,40
62040,note_off,,,,,0,0,1,,,0,,,77,64
62070,note_off,,,,,30,0,1,,,0,,,68,64
62070,note_off,,,,,0,0,1,,,0,,,77,64
62070,note_off,,,,,0,0,1,,,0,,,73,64
62080,note_on,,,,,0,0,1,,,0,,,69,39
62080,note_on,,,,,0,0,1,,,0,,,73,39
62080,note_on,,,,,10,0,1,,,0,,,78,39
62088,note_off,,,,,48,0,2,,,0,,,61,64
62100,note_on,,,,,12,0,2,,,0,,,56,27
62110,note_off,,,,,0,0,1,,,0,,,78,64
62110,note_off,,,,,30,0,1,,,0,,,69,64
62110,note_off,,,,,0,0,1,,,0,,,73,64
62120,note_on,,,,,10,0,1,,,0,,,80,37
62120,note_on,,,,,0,0,1,,,0,,,73,37
62120,note_on,,,,,0,0,1,,,0,,,71,37
62150,note_off,,,,,30,0,1,,,0,,,71,64
62150,note_off,,,,,0,0,1,,,0,,,73,64
62150,note_off,,,,,0,0,1,,,0,,,80,64
62160,note_off,,,,,60,0,2,,,0,,,56,64
62160,note_on,,,,,0,0,2,,,0,,,61,31
62160,note_on,,,,,0,0,1,,,0,,,68,35
62160,note_on,,,,,10,0,1,,,0,,,77,35
62160,note_on,,,,,0,0,1,,,0,,,73,35
62220,note_off,,,,,60,0,2,,,0,,,61,64
62220,note_on,,,,,0,0,2,,,0,,,49,23
62250,note_off,,,,,30,0,2,,,0,,,49,64
62270,control_change,,,,,110,0,1,,,0,64,0,,
62280,note_on,,,,,30,0,2,,,0,,,42,40
62280,control_change,,,,,0,0,1,,,0,64,96,,
62280,note_on,,,,,0,0,1,,,0,,,73,33
62280,note_off,,,,,0,0,1,,,0,,,73,64
62280,note_on,,,,,0,0,1,,,0,,,81,33
62280,note_on,,,,,0,0,1,,,0,,,78,33
62280,note_off,,,,,0,0,1,,,0,,,77,64
62280,note_off,,,,,10,0,1,,,0,,,68,64
62328,note_off,,,,,48,0,2,,,0,,,42,64
62340,note_on,,,,,12,0,2,,,0,,,57,29
62400,note_on,,,,,120,0,1,,,0,,,85,47
62400,note_on,,,,,0,0,2,,,0,,,61,34
62400,note_off,,,,,60,0,2,,,0,,,57,64
62448,note_off,,,,,48,0,2,,,0,,,61,64
62460,note_on,,,,,12,0,2,,,0,,,57,27
62520,note_off,,,,,60,0,2,,,0,,,57,64
62520,note_on,,,,,0,0,2,,,0,,,61,31
62580,note_off,,,,,60,0,2,,,0,,,61,64
62580,note_on,,,,,0,0,2,,,0,,,49,19
62580,note_off,,,,,180,0,1,,,0,,,85,64
62580,note_off,,,,,0,0,1,,,0,,,73,64
62580,note_off,,,,,0,0,1,,,0,,,78,64
62580,note_off,,,,,0,0,1,,,0,,,81,64
62610,note_off,,,,,30,0,2,,,0,,,49,64
62630,control_change,,,,,50,0,1,,,0,64,0,,
62640,note_on,,,,,30,0,2,,,0,,,37,29
62640,note_on,,,,,10,0,1,,,0,,,73,34
62640,control_change,,,,,0,0,1,,,0,64,95,,
62640,note_on,,,,,0,0,1,,,0,,,65,34
62640,note_on,,,,,0,0,1,,,0,,,68,34
62688,note_off,,,,,48,0,2,,,0,,,37,64
62700,note_on,,,,,12,0,2,,,0,,,56,24
62760,note_on,,,,,0,0,1,,,0,,,68,32
62760,note_on,,,,,0,0,1,,,0,,,73,32
62760,note_off,,,,,0,0,1,,,0,,,73,64
62760,note_off,,,,,0,0,1,,,0,,,68,64
62760,note_off,,,,,120,0,1,,,0,,,65,64
62760,note_on,,,,,0,0,2,,,0,,,61,29
62760,note_on,,,,,0,0,1,,,0,,,65,32
62760,note_off,,,,,60,0,2,,,0,,,56,64
62790,note_off,,,,,0,0,1,,,0,,,73,64
62790,note_off,,,,,30,0,1,,,0,,,65,64
62790,note_off,,,,,0,0,1,,,0,,,68,64
62800,note_on,,,,,10,0,1,,,0,,,73,28
62800,note_on,,,,,0,0,1,,,0,,,66,28
62800,note_on,,,,,0,0,1,,,0,,,69,28
62808,note_off,,,,,48,0,2,,,0,,,61,64
62820,note_on,,,,,12,0,2,,,0,,,56,27
62830,note_off,,,,,30,0,1,,,0,,,66,64
62830,note_off,,,,,0,0,1,,,0,,,69,64
62830,note_off,,,,,0,0,1,,,0,,,73,64
62840,note_on,,,,,0,0,1,,,0,,,71,26
62840,note_on,,,,,10,0,1,,,0,,,73,26
62840,note_on,,,,,0,0,1,,,0,,,68,26
62860,set_tempo,,,,,1660,1,0,1500000,,,,,,
62870,note_off,,,,,30,0,1,,,0,,,68,64
62870,note_off,,,,,0,0,1,,,0,,,71,64
62870,note_off,,,,,0,0,1,,,0,,,73,64
62880,note_on,,,,,10,0,1,,,0,,,73,30
62880,note_on,,,,,0,0,1,,,0,,,68,30
62880,note_on,,,,,0,0,1,,,0,,,65,30
62880,note_off,,,,,60,0,2,,,0,,,56,64
62880,note_on,,,,,0,0,2,,,0,,,61,27
62940,note_off,,,,,60,0,2,,,0,,,61,64
62940,note_on,,,,,0,0,2,,,0,,,49,22
62970,note_off,,,,,30,0,2,,,0,,,49,64
62980,set_tempo,,,,,120,1,0,1578947,,,,,,
62990,control_change,,,,,110,0,1,,,0,64,0,,
63000,note_off,,,,,0,0,1,,,0,,,68,64
63000,note_off,,,,,10,0,1,,,0,,,65,64
63000,note_off,,,,,0,0,1,,,0,,,73,64
63000,note_on,,,,,0,0,1,,,0,,,73,28
63000,note_on,,,,,0,0,1,,,0,,,69,28
63000,note_on,,,,,0,0,1,,,0,,,66,28
63000,control_change,,,,,0,0,1,,,0,64,95,,
63000,note_on,,,,,30,0,2,,,0,,,42,33
63048,note_off,,,,,48,0,2,,,0,,,42,64
63060,note_on,,,,,12,0,2,,,0,,,54,24
63100,set_tempo,,,,,120,1,0,1666667,,,,,,
63120,note_off,,,,,60,0,2,,,0,,,54,64
63120,note_on,,,,,0,0,2,,,0,,,57,26
63160,set_tempo,,,,,60,1,0,1875000,,,,,,
63168,note_off,,,,,48,0,2,,,0,,,57,64
63180,note_on,,,,,12,0,2,,,0,,,49,18
63240,note_off,,,,,60,0,2,,,0,,,49,64
63240,set_tempo,,,,,80,1,0,2000000,,,,,,
63240,note_on,,,,,0,0,2,,,0,,,54,20
63290,set_tempo,,,,,50,1,0,2500000,,,,,,
63300,set_tempo,,,,,10,1,0,6000000,,,,,,
63300,note_on,,,,,0,0,2,,,0,,,45,15
63300,note_off,,,,,60,0,2,,,0,,,54,64
63300,note_off,,,,,0,0,1,,,0,,,69,64
63300,note_off,,,,,0,0,1,,,0,,,73,64
63300,note_off,,,,,300,0,1,,,0,,,66,64
63330,note_off,,,,,30,0,2,,,0,,,45,64
63350,control_change,,,,,50,0,1,,,0,64,0,,
63360,note_on,,,,,30,0,2,,,0,,,40,32
63360,set_tempo,,,,,60,1,0,1714286,,,,,,
63360,control_change,,,,,0,0,1,,,0,91,96,,
63360,control_change,,,,,0,0,1,,,0,64,95,,
63360,note_on,,,,,10,0,1,,,0,,,69,30
63380,set_tempo,,,,,20,1,0,1578947,,,,,,
63450,note_off,,,,,90,0,2,,,0,,,40,64
63480,note_on,,,,,120,0,1,,,0,,,76,30
63480,note_on,,,,,30,0,2,,,0,,,57,27
63520,set_tempo,,,,,140,1,0,1500000,,,,,,
63600,note_off,,,,,120,0,2,,,0,,,57,64
63600,set_tempo,,,,,80,1,0,1463415,,,,,,
63600,note_on,,,,,0,0,2,,,0,,,49,22
63690,note_off,,,,,90,0,2,,,0,,,49,64
63710,control_change,,,,,230,0,1,,,0,64,0,,
63720,note_on,,,,,30,0,2,,,0,,,40,30
63720,note_off,,,,,10,0,1,,,0,,,76,64
63720,note_off,,,,,0,0,1,,,0,,,69,64
63720,note_on,,,,,0,0,1,,,0,,,68,30
63720,control_change,,,,,0,0,1,,,0,64,95,,
63810,note_off,,,,,90,0,2,,,0,,,40,64
63840,note_on,,,,,30,0,2,,,0,,,59,27
63840,note_on,,,,,120,0,1,,,0,,,76,30
63960,note_on,,,,,0,0,2,,,0,,,50,22
63960,note_off,,,,,120,0,2,,,0,,,59,64
64020,note_off,,,,,180,0,1,,,0,,,68,64
64050,note_off,,,,,90,0,2,,,0,,,50,64
64050,note_on,,,,,30,0,1,,,0,,,71,32
64070,control_change,,,,,20,0,1,,,0,64,0,,
64080,control_change,,,,,0,0,1,,,0,64,95,,
64080,note_off,,,,,0,0,1,,,0,,,76,64
64080,note_off,,,,,10,0,1,,,0,,,71,64
64080,note_on,,,,,30,0,2,,,0,,,40,34
64080,note_on,,,,,0,0,1,,,0,,,69,31
64140,note_off,,,,,60,0,1,,,0,,,69,64
64140,note_on,,,,,0,0,1,,,0,,,68,27
64170,note_off,,,,,90,0,2,,,0,,,40,64
64200,note_on,,,,,0,0,1,,,0,,,76,40
64200,note_on,,,,,0,0,1,,,0,,,69,26
64200,note_off,,,,,60,0,1,,,0,,,68,64
64200,note_on,,,,,30,0,2,,,0,,,57,28
64290,note_on,,,,,0,0,1,,,0,,,73,29
64290,note_off,,,,,90,0,1,,,0,,,69,64
64320,note_on,,,,,0,0,1,,,0,,,69,31
64320,note_off,,,,,30,0,1,,,0,,,73,64
64320,note_on,,,,,0,0,2,,,0,,,49,24
64320,note_off,,,,,120,0,2,,,0,,,57,64
64410,note_off,,,,,90,0,2,,,0,,,49,64
64430,control_change,,,,,110,0,1,,,0,64,0,,
64440,note_off,,,,,0,0,1,,,0,,,76,64
64440,control_change,,,,,0,0,1,,,0,64,96,,
64440,note_on,,,,,0,0,1,,,0,,,68,37
64440,note_off,,,,,10,0,1,,,0,,,69,64
64440,note_on,,,,,30,0,2,,,0,,,40,36
64530,note_off,,,,,90,0,2,,,0,,,40,64
64560,note_on,,,,,120,0,1,,,0,,,76,40
64560,note_on,,,,,30,0,2,,,0,,,59,31
64680,note_on,,,,,0,0,2,,,0,,,50,25
64680,note_off,,,,,120,0,2,,,0,,,59,64
64740,note_off,,,,,180,0,1,,,0,,,68,64
64760,set_tempo,,,,,1160,1,0,1714286,,,,,,
64770,note_off,,,,,90,0,2,,,0,,,50,64
64780,set_tempo,,,,,20,1,0,1666667,,,,,,
64790,control_change,,,,,50,0,1,,,0,64,0,,
64800,note_on,,,,,30,0,2,,,0,,,40,42
64800,note_off,,,,,10,0,1,,,0,,,76,64
64800,control_change,,,,,0,0,1,,,0,64,96,,
64800,note_on,,,,,0,0,1,,,0,,,73,47
64800,set_tempo,,,,,20,1,0,1463415,,,,,,
64880,set_tempo,,,,,80,1,0,1428571,,,,,,
64890,note_off,,,,,90,0,2,,,0,,,40,64
64920,note_on,,,,,120,0,1,,,0,,,76,47
64920,note_on,,,,,30,0,2,,,0,,,57,42
64980,set_tempo,,,,,100,1,0,1395349,,,,,,
65040,note_off,,,,,120,0,2,,,0,,,57,64
65040,note_on,,,,,0,0,2,,,0,,,49,39
65060,set_tempo,,,,,80,1,0,1363636,,,,,,
65130,note_off,,,,,90,0,2,,,0,,,49,64
65150,control_change,,,,,230,0,1,,,0,64,0,,
65160,note_on,,,,,30,0,2,,,0,,,40,63
65160,control_change,,,,,0,0,1,,,0,64,96,,
65160,note_on,,,,,0,0,1,,,0,,,74,64
65160,note_off,,,,,0,0,1,,,0,,,73,64
65160,note_off,,,,,10,0,1,,,0,,,76,64
65250,note_off,,,,,90,0,2,,,0,,,40,64
65280,note_on,,,,,120,0,1,,,0,,,76,53
65280,note_on,,,,,30,0,2,,,0,,,56,50
65380,set_tempo,,,,,320,1,0,1428571,,,,,,
65400,note_on,,,,,0,0,2,,,0,,,47,31
65400,note_off,,,,,120,0,2,,,0,,,56,64
65490,note_off,,,,,90,0,2,,,0,,,47,64
65520,note_on,,,,,0,0,1,,,0,,,74,60
65520,note_on,,,,,0,0,1,,,0,,,81,61
65520,note_off,,,,,0,0,1,,,0,,,74,64
65520,note_off,,,,,240,0,1,,,0,,,76,64
65520,note_on,,,,,30,0,2,,,0,,,40,43
65520,control_change,,,,,0,0,1,,,0,64,94,,
65580,note_off,,,,,60,0,1,,,0,,,74,64
65580,note_on,,,,,0,0,1,,,0,,,73,45
65610,note_off,,,,,90,0,2,,,0,,,40,64
65610,note_off,,,,,30,0,1,,,0,,,81,64
65620,set_tempo,,,,,240,1,0,1463415,,,,,,
65620,control_change,,,,,10,0,1,,,0,64,0,,
65624,note_off,,,,,4,0,1,,,0,,,73,64
65640,note_on,,,,,0,0,2,,,0,,,41,33
65640,note_on,,,,,30,0,2,,,0,,,49,33
65640,control_change,,,,,0,0,1,,,0,64,95,,
65640,note_on,,,,,0,0,1,,,0,,,73,52
65640,note_on,,,,,16,0,1,,,0,,,80,42
65700,note_on,,,,,0,0,1,,,0,,,71,38
65700,note_off,,,,,60,0,1,,,0,,,73,64
65720,set_tempo,,,,,100,1,0,1538462,,,,,,
65730,note_off,,,,,30,0,1,,,0,,,80,64
65730,note_off,,,,,90,0,2,,,0,,,41,64
65730,note_off,,,,,0,0,2,,,0,,,49,64
65744,note_off,,,,,14,0,1,,,0,,,71,64
65750,control_change,,,,,6,0,1,,,0,64,0,,
65760,note_on,,,,,0,0,2,,,0,,,42,38
65760,note_on,,,,,30,0,2,,,0,,,49,38
65760,note_on,,,,,10,0,1,,,0,,,78,31
65760,note_on,,,,,0,0,1,,,0,,,71,41
65760,control_change,,,,,0,0,1,,,0,64,96,,
65780,set_tempo,,,,,60,1,0,1578947,,,,,,
65820,note_off,,,,,60,0,1,,,0,,,71,64
65820,note_on,,,,,0,0,1,,,0,,,69,28
65820,set_tempo,,,,,40,1,0,1666667,,,,,,
65850,note_off,,,,,0,0,2,,,0,,,49,64
65850,note_off,,,,,90,0,2,,,0,,,42,64
65850,note_off,,,,,30,0,1,,,0,,,78,64
65864,note_off,,,,,14,0,1,,,0,,,69,64
65870,control_change,,,,,6,0,1,,,0,64,0,,
65880,control_change,,,,,0,0,1,,,0,64,96,,
65880,note_on,,,,,0,0,1,,,0,,,68,37
65880,note_on,,,,,10,0,1,,,0,,,77,37
65880,note_on,,,,,30,0,2,,,0,,,37,38
65920,set_tempo,,,,,100,1,0,1714286,,,,,,
65970,note_off,,,,,90,0,2,,,0,,,37,64
66000,note_on,,,,,30,0,2,,,0,,,61,30
66020,control_change,,,,,140,0,1,,,0,64,0,,
66120,note_off,,,,,120,0,2,,,0,,,61,64
66120,note_on,,,,,0,0,2,,,0,,,49,25
66180,note_off,,,,,160,0,1,,,0,,,68,64
66180,note_off,,,,,0,0,1,,,0,,,77,64
66210,note_off,,,,,90,0,2,,,0,,,49,64
66240,note_on,,,,,0,0,1,,,0,,,66,81
66240,set_tempo,,,,,320,1,0,1428571,,,,,,
66240,note_on,,,,,0,0,1,,,0,,,78,81
66240,control_change,,,,,0,0,1,,,0,64,96,,
66240,note_on,,,,,60,0,1,,,0,,,71,81
66240,note_on,,,,,30,0,2,,,0,,,42,70
66330,note_off,,,,,90,0,2,,,0,,,42,64
66360,note_on,,,,,30,0,2,,,0,,,62,54
66480,note_off,,,,,120,0,2,,,0,,,62,64
66480,note_on,,,,,0,0,2,,,0,,,50,32
66540,control_change,,,,,300,0,1,,,0,64,0,,
66570,note_off,,,,,90,0,2,,,0,,,50,64
66600,note_off,,,,,60,0,1,,,0,,,66,64
66600,note_on,,,,,0,0,1,,,0,,,81,105
66600,control_change,,,,,0,0,1,,,0,64,95,,
66600,note_off,,,,,0,0,1,,,0,,,71,64
66600,note_on,,,,,0,0,1,,,0,,,78,105
66600,note_off,,,,,0,0,1,,,0,,,78,64
66600,note_on,,,,,0,0,1,,,0,,,90,105
66600,note_on,,,,,30,0,2,,,0,,,42,81
66690,note_off,,,,,90,0,2,,,0,,,42,64
66720,note_on,,,,,30,0,2,,,0,,,61,53
66840,note_on,,,,,0,0,2,,,0,,,49,39
66840,note_off,,,,,120,0,2,,,0,,,61,64
66900,note_off,,,,,300,0,1,,,0,,,78,64
66900,note_off,,,,,0,0,1,,,0,,,81,64
66900,note_off,,,,,0,0,1,,,0,,,90,64
66910,set_tempo,,,,,670,1,0,1395349,,,,,,
66930,set_tempo,,,,,20,1,0,1818182,,,,,,
66930,note_off,,,,,90,0,2,,,0,,,49,64
66950,control_change,,,,,50,0,1,,,0,64,0,,
66960,set_tempo,,,,,30,1,0,1935484,,,,,,
66960,note_on,,,,,0,0,1,,,0,,,80,100
66960,note_on,,,,,30,0,2,,,0,,,37,81
66960,note_on,,,,,0,0,1,,,0,,,77,100
66960,note_on,,,,,10,0,1,,,0,,,86,100
66980,set_tempo,,,,,20,1,0,1764706,,,,,,
66986,note_off,,,,,26,0,1,,,0,,,77,64
66986,note_off,,,,,0,0,1,,,0,,,80,64
67000,note_on,,,,,0,0,1,,,0,,,85,97
67000,note_off,,,,,14,0,1,,,0,,,86,64
67000,note_on,,,,,0,0,1,,,0,,,80,97
67000,note_on,,,,,0,0,1,,,0,,,77,97
67010,set_tempo,,,,,30,1,0,1666667,,,,,,
67026,note_off,,,,,26,0,1,,,0,,,77,64
67026,note_off,,,,,0,0,1,,,0,,,80,64
67040,note_off,,,,,14,0,1,,,0,,,85,64
67040,note_on,,,,,0,0,1,,,0,,,83,92
67040,note_on,,,,,0,0,1,,,0,,,80,92
67040,note_on,,,,,0,0,1,,,0,,,77,92
67050,note_off,,,,,90,0,2,,,0,,,37,64
67060,set_tempo,,,,,50,1,0,1538462,,,,,,
67066,note_off,,,,,0,0,1,,,0,,,83,64
67066,note_off,,,,,0,0,1,,,0,,,80,64
67066,note_off,,,,,26,0,1,,,0,,,77,64
67080,note_on,,,,,14,0,1,,,0,,,83,96
67080,note_on,,,,,0,0,1,,,0,,,77,96
67080,note_on,,,,,0,0,1,,,0,,,74,96
67080,note_on,,,,,30,0,2,,,0,,,61,53
67100,set_tempo,,,,,40,1,0,1500000,,,,,,
67120,note_off,,,,,40,0,1,,,0,,,74,64
67120,note_off,,,,,0,0,1,,,0,,,77,64
67120,note_off,,,,,0,0,1,,,0,,,83,64
67120,note_on,,,,,0,0,1,,,0,,,81,84
67120,note_on,,,,,0,0,1,,,0,,,77,84
67120,note_on,,,,,0,0,1,,,0,,,74,84
67160,note_on,,,,,0,0,1,,,0,,,74,79
67160,note_on,,,,,0,0,1,,,0,,,77,79
67160,note_off,,,,,0,0,1,,,0,,,77,64
67160,note_off,,,,,0,0,1,,,0,,,81,64
67160,note_off,,,,,40,0,1,,,0,,,74,64
67160,note_on,,,,,0,0,1,,,0,,,80,79
67186,note_off,,,,,26,0,1,,,0,,,74,64
67186,note_off,,,,,0,0,1,,,0,,,77,64
67186,note_off,,,,,0,0,1,,,0,,,80,64
67200,note_on,,,,,0,0,2,,,0,,,49,39
67200,note_off,,,,,120,0,2,,,0,,,61,64
67200,note_on,,,,,14,0,1,,,0,,,80,85
67200,note_on,,,,,0,0,1,,,0,,,74,85
67200,note_on,,,,,0,0,1,,,0,,,71,85
67240,note_on,,,,,0,0,1,,,0,,,71,70
67240,note_on,,,,,0,0,1,,,0,,,74,70
67240,note_on,,,,,0,0,1,,,0,,,78,70
67240,note_off,,,,,40,0,1,,,0,,,71,64
67240,note_off,,,,,0,0,1,,,0,,,74,64
67240,note_off,,,,,0,0,1,,,0,,,80,64
67280,note_off,,,,,0,0,1,,,0,,,78,64
67280,note_off,,,,,40,0,1,,,0,,,71,64
67280,note_on,,,,,0,0,1,,,0,,,71,65
67280,note_on,,,,,0,0,1,,,0,,,74,65
67280,note_on,,,,,0,0,1,,,0,,,77,65
67280,note_off,,,,,0,0,1,,,0,,,74,64
67290,note_off,,,,,90,0,2,,,0,,,49,64
67306,note_off,,,,,0,0,1,,,0,,,74,64
67306,note_off,,,,,0,0,1,,,0,,,77,64
67306,note_off,,,,,26,0,1,,,0,,,71,64
67320,note_on,,,,,14,0,1,,,0,,,78,55
67320,note_on,,,,,0,0,1,,,0,,,73,55
67320,note_on,,,,,0,0,1,,,0,,,69,55
67320,note_on,,,,,30,0,2,,,0,,,54,55
67346,note_off,,,,,26,0,2,,,0,,,54,64
67360,note_on,,,,,14,0,2,,,0,,,50,53
67386,note_off,,,,,26,0,2,,,0,,,50,64
67400,note_on,,,,,14,0,2,,,0,,,49,51
67426,note_off,,,,,26,0,2,,,0,,,49,64
67440,note_on,,,,,14,0,2,,,0,,,47,49
67466,note_off,,,,,26,0,2,,,0,,,47,64
67470,set_tempo,,,,,370,1,0,1578947,,,,,,
67480,note_on,,,,,14,0,2,,,0,,,45,45
67506,note_off,,,,,26,0,2,,,0,,,45,64
67520,note_on,,,,,14,0,2,,,0,,,44,42
67540,set_tempo,,,,,70,1,0,1666667,,,,,,
67546,note_off,,,,,26,0,2,,,0,,,44,64
67560,note_on,,,,,14,0,2,,,0,,,42,38
67586,note_off,,,,,26,0,2,,,0,,,42,64
67600,note_on,,,,,14,0,2,,,0,,,37,34
67600,set_tempo,,,,,60,1,0,1764706,,,,,,
67620,note_off,,,,,300,0,1,,,0,,,69,64
67620,note_off,,,,,0,0,1,,,0,,,73,64
67620,note_off,,,,,0,0,1,,,0,,,78,64
67626,note_off,,,,,26,0,2,,,0,,,37,64
67640,note_on,,,,,14,0,2,,,0,,,33,30
67666,note_off,,,,,26,0,2,,,0,,,33,64
67680,set_tempo,,,,,80,1,0,1500000,,,,,,
67680,control_change,,,,,0,0,1,,,0,64,95,,
67680,note_on,,,,,14,0,2,,,0,,,30,44
67680,note_on,,,,,60,0,1,,,0,,,69,35
67760,note_off,,,,,80,0,2,,,0,,,30,64
67800,note_on,,,,,40,0,2,,,0,,,49,35
67800,note_on,,,,,0,0,2,,,0,,,61,35
68020,control_change,,,,,340,0,1,,,0,64,0,,
68040,note_off,,,,,20,0,1,,,0,,,69,64
68040,note_off,,,,,240,0,2,,,0,,,61,64
68040,note_off,,,,,0,0,2,,,0,,,49,64
68040,control_change,,,,,0,0,1,,,0,64,96,,
68040,note_on,,,,,0,0,1,,,0,,,67,29
68040,note_on,,,,,0,0,2,,,0,,,40,42
68120,note_off,,,,,80,0,2,,,0,,,40,64
68160,note_on,,,,,0,0,2,,,0,,,49,35
68160,note_on,,,,,40,0,2,,,0,,,61,35
68340,note_off,,,,,300,0,1,,,0,,,67,64
68340,control_change,,,,,0,0,1,,,0,64,0,,
68370,note_on,,,,,30,0,1,,,0,,,67,31
68400,note_off,,,,,240,0,2,,,0,,,49,64
68400,note_off,,,,,0,0,2,,,0,,,61,64
68400,note_on,,,,,0,0,2,,,0,,,38,33
68400,note_on,,,,,0,0,1,,,0,,,66,34
68400,note_off,,,,,30,0,1,,,0,,,67,64
68410,set_tempo,,,,,730,1,0,1538462,,,,,,
68480,note_off,,,,,80,0,2,,,0,,,38,64
68490,note_on,,,,,0,0,1,,,0,,,64,37
68490,note_off,,,,,90,0,1,,,0,,,66,64
68520,note_on,,,,,40,0,2,,,0,,,62,29
68520,note_off,,,,,30,0,1,,,0,,,64,64
68520,control_change,,,,,0,0,1,,,0,64,96,,
68520,note_on,,,,,0,0,1,,,0,,,66,39
68520,note_on,,,,,0,0,2,,,0,,,50,29
68580,note_on,,,,,0,0,1,,,0,,,69,37
68580,note_off,,,,,60,0,1,,,0,,,66,64
68640,note_off,,,,,120,0,2,,,0,,,50,64
68640,note_on,,,,,0,0,1,,,0,,,66,34
68640,note_off,,,,,60,0,1,,,0,,,69,64
68640,note_on,,,,,0,0,2,,,0,,,57,25
68640,note_on,,,,,0,0,2,,,0,,,45,25
68640,note_off,,,,,0,0,2,,,0,,,62,64
68680,set_tempo,,,,,270,1,0,1578947,,,,,,
68750,control_change,,,,,110,0,1,,,0,64,0,,
68760,note_on,,,,,0,0,1,,,0,,,64,36
68760,control_change,,,,,0,0,1,,,0,64,97,,
68760,note_off,,,,,10,0,1,,,0,,,66,64
68760,note_off,,,,,120,0,2,,,0,,,57,64
68760,note_off,,,,,0,0,2,,,0,,,45,64
68760,note_on,,,,,0,0,2,,,0,,,37,25
68840,note_off,,,,,80,0,2,,,0,,,37,64
68880,note_on,,,,,0,0,2,,,0,,,45,30
68880,note_on,,,,,40,0,2,,,0,,,57,30
68930,set_tempo,,,,,250,1,0,1621622,,,,,,
68970,note_off,,,,,0,0,2,,,0,,,57,64
68970,note_off,,,,,90,0,2,,,0,,,45,64
68990,control_change,,,,,230,0,1,,,0,64,0,,
69000,note_on,,,,,30,0,2,,,0,,,36,38
69000,control_change,,,,,10,0,1,,,0,64,95,,
69060,note_off,,,,,60,0,1,,,0,,,64,64
69110,control_change,,,,,50,0,1,,,0,64,0,,
69120,note_on,,,,,10,0,1,,,0,,,67,36
69120,note_on,,,,,0,0,2,,,0,,,35,30
69120,note_on,,,,,0,0,1,,,0,,,55,36
69120,note_off,,,,,120,0,2,,,0,,,36,64
69140,set_tempo,,,,,210,1,0,1666667,,,,,,
69210,note_off,,,,,90,0,2,,,0,,,35,64
69240,control_change,,,,,120,0,1,,,0,64,96,,
69240,note_on,,,,,30,0,2,,,0,,,50,26
69240,note_on,,,,,0,0,2,,,0,,,38,26
69470,control_change,,,,,230,0,1,,,0,64,0,,
69480,note_off,,,,,0,0,1,,,0,,,67,64
69480,note_off,,,,,240,0,2,,,0,,,38,64
69480,note_off,,,,,0,0,2,,,0,,,50,64
69480,note_on,,,,,0,0,2,,,0,,,33,30
69480,note_on,,,,,0,0,1,,,0,,,54,34
69480,note_on,,,,,0,0,1,,,0,,,66,34
69480,note_off,,,,,10,0,1,,,0,,,55,64
69570,note_off,,,,,90,0,2,,,0,,,33,64
69600,note_on,,,,,0,0,2,,,0,,,37,24
69600,note_on,,,,,30,0,2,,,0,,,49,24
69780,note_off,,,,,300,0,1,,,0,,,54,64
69780,note_off,,,,,0,0,1,,,0,,,66,64
69840,note_on,,,,,60,0,1,,,0,,,61,28
69840,note_on,,,,,0,0,2,,,0,,,32,27
69840,note_on,,,,,0,0,1,,,0,,,53,28
69840,note_off,,,,,0,0,2,,,0,,,49,64
69840,note_on,,,,,0,0,1,,,0,,,59,28
69840,note_off,,,,,240,0,2,,,0,,,37,64
69930,note_off,,,,,90,0,2,,,0,,,32,64
69960,note_on,,,,,0,0,1,,,0,,,61,33
69960,note_on,,,,,30,0,2,,,0,,,37,23
69960,note_on,,,,,0,0,1,,,0,,,53,33
69960,note_on,,,,,0,0,1,,,0,,,59,33
69960,note_off,,,,,0,0,1,,,0,,,61,64
69960,note_off,,,,,0,0,1,,,0,,,59,64
69960,note_on,,,,,0,0,2,,,0,,,49,23
69960,note_off,,,,,120,0,1,,,0,,,53,64
70050,note_off,,,,,90,0,2,,,0,,,49,64
70050,note_on,,,,,0,0,1,,,0,,,62,26
70050,note_off,,,,,90,0,1,,,0,,,61,64
70050,note_off,,,,,0,0,2,,,0,,,37,64
70080,note_on,,,,,30,0,2,,,0,,,31,21
70080,note_on,,,,,0,0,1,,,0,,,61,24
70080,note_off,,,,,30,0,1,,,0,,,62,64
70170,note_off,,,,,90,0,2,,,0,,,31,64
70200,note_off,,,,,0,0,1,,,0,,,53,64
70200,note_off,,,,,120,0,1,,,0,,,61,64
70200,note_on,,,,,30,0,2,,,0,,,30,26
70200,note_off,,,,,0,0,1,,,0,,,59,64
70200,note_on,,,,,0,0,1,,,0,,,45,26
70210,note_on,,,,,10,0,1,,,0,,,49,26
70220,note_on,,,,,10,0,1,,,0,,,54,26
70272,note_off,,,,,72,0,2,,,0,,,30,64
70296,note_off,,,,,76,0,1,,,0,,,45,64
70306,note_off,,,,,10,0,1,,,0,,,49,64
70316,note_off,,,,,10,0,1,,,0,,,54,64
70320,note_on,,,,,48,0,2,,,0,,,30,28
70330,note_on,,,,,10,0,2,,,0,,,33,28
70340,note_on,,,,,10,0,2,,,0,,,37,28
70350,note_on,,,,,10,0,2,,,0,,,42,28
70416,note_off,,,,,66,0,2,,,0,,,30,64
70426,note_off,,,,,10,0,2,,,0,,,33,64
70436,note_off,,,,,10,0,2,,,0,,,37,64
70440,note_on,,,,,124,0,1,,,0,,,45,24
70446,note_off,,,,,10,0,2,,,0,,,42,64
70450,note_on,,,,,10,0,1,,,0,,,49,24
70460,note_on,,,,,10,0,1,,,0,,,54,24
70536,note_off,,,,,76,0,1,,,0,,,45,64
70546,note_off,,,,,10,0,1,,,0,,,49,64
70556,note_off,,,,,10,0,1,,,0,,,54,64
70560,note_on,,,,,114,0,2,,,0,,,30,27
70570,note_on,,,,,10,0,2,,,0,,,35,27
70580,note_on,,,,,10,0,2,,,0,,,38,26
70590,note_on,,,,,10,0,2,,,0,,,42,26
70656,note_off,,,,,66,0,2,,,0,,,30,64
70666,note_off,,,,,10,0,2,,,0,,,35,64
70676,note_off,,,,,10,0,2,,,0,,,38,64
70680,note_on,,,,,124,0,1,,,0,,,47,22
70686,note_off,,,,,10,0,2,,,0,,,42,64
70690,note_on,,,,,10,0,1,,,0,,,50,22
70700,note_on,,,,,10,0,1,,,0,,,54,22
70776,note_off,,,,,76,0,1,,,0,,,47,64
70786,note_off,,,,,10,0,1,,,0,,,50,64
70796,note_off,,,,,10,0,1,,,0,,,54,64
70800,note_on,,,,,114,0,2,,,0,,,30,22
70810,note_on,,,,,10,0,2,,,0,,,35,22
70820,note_on,,,,,10,0,2,,,0,,,38,22
70830,note_on,,,,,10,0,2,,,0,,,42,21
70896,note_off,,,,,66,0,2,,,0,,,30,64
70906,note_off,,,,,10,0,2,,,0,,,35,64
70916,note_off,,,,,10,0,2,,,0,,,38,64
70920,note_on,,,,,124,0,1,,,0,,,45,21
70926,note_off,,,,,10,0,2,,,0,,,42,64
70930,note_on,,,,,10,0,1,,,0,,,49,21
70940,note_on,,,,,10,0,1,,,0,,,54,21
71016,note_off,,,,,76,0,1,,,0,,,45,64
71026,note_off,,,,,10,0,1,,,0,,,49,64
71036,note_off,,,,,10,0,1,,,0,,,54,64
71040,note_on,,,,,114,0,2,,,0,,,30,20
71050,note_on,,,,,10,0,2,,,0,,,33,20
71060,note_on,,,,,10,0,2,,,0,,,37,20
71070,note_on,,,,,10,0,2,,,0,,,42,20
71136,note_off,,,,,66,0,2,,,0,,,30,64
71146,note_off,,,,,10,0,2,,,0,,,33,64
71156,note_off,,,,,10,0,2,,,0,,,37,64
71160,note_on,,,,,124,0,1,,,0,,,45,20
71166,note_off,,,,,10,0,2,,,0,,,42,64
71170,note_on,,,,,10,0,1,,,0,,,49,20
71180,note_on,,,,,10,0,1,,,0,,,54,20
71256,note_off,,,,,76,0,1,,,0,,,45,64
71266,note_off,,,,,10,0,1,,,0,,,49,64
71276,note_off,,,,,10,0,1,,,0,,,54,64
71280,note_on,,,,,114,0,2,,,0,,,30,19
71290,note_on,,,,,10,0,2,,,0,,,32,19
71300,note_on,,,,,10,0,2,,,0,,,35,19
71310,note_on,,,,,10,0,2,,,0,,,42,19
71376,note_off,,,,,66,0,2,,,0,,,30,64
71386,note_off,,,,,10,0,2,,,0,,,32,64
71396,note_off,,,,,10,0,2,,,0,,,35,64
71400,note_on,,,,,124,0,1,,,0,,,44,17
71406,note_off,,,,,10,0,2,,,0,,,42,64
71410,note_on,,,,,10,0,1,,,0,,,47,17
71420,note_on,,,,,10,0,1,,,0,,,54,17
71496,note_off,,,,,76,0,1,,,0,,,44,64
71506,note_off,,,,,10,0,1,,,0,,,47,64
71516,note_off,,,,,10,0,1,,,0,,,54,64
71520,note_on,,,,,114,0,2,,,0,,,30,18
71530,note_on,,,,,10,0,2,,,0,,,32,18
71540,note_on,,,,,10,0,2,,,0,,,35,18
71550,note_on,,,,,10,0,2,,,0,,,42,18
71616,note_off,,,,,66,0,2,,,0,,,30,64
71626,note_off,,,,,10,0,2,,,0,,,32,64
71636,note_off,,,,,0,0,2,,,0,,,35,64
71636,note_off,,,,,10,0,2,,,0,,,42,64
71650,note_on,,,,,134,0,1,,,0,,,42,16
71650,note_on,,,,,14,0,2,,,0,,,30,17
71660,note_on,,,,,10,0,2,,,0,,,33,17
71660,note_on,,,,,10,0,1,,,0,,,45,16
71670,note_on,,,,,10,0,2,,,0,,,42,17
71670,note_on,,,,,10,0,1,,,0,,,54,16
71890,note_off,,,,,220,0,1,,,0,,,42,64
71890,note_off,,,,,220,0,2,,,0,,,30,64
71900,note_off,,,,,10,0,2,,,0,,,33,64
71900,note_off,,,,,10,0,1,,,0,,,45,64
71910,note_off,,,,,10,0,2,,,0,,,42,64
71910,note_off,,,,,10,0,1,,,0,,,54,64
72000,note_on,,,,,0,0,1,,,0,,,42,16
72000,note_on,,,,,90,0,2,,,0,,,30,16
72000,note_on,,,,,90,0,1,,,0,,,54,16
72360,note_off,,,,,360,0,1,,,0,,,42,64
72360,note_on,,,,,0,0,2,,,0,,,30,16
72360,note_off,,,,,0,0,1,,,0,,,54,64
72360,note_off,,,,,360,0,2,,,0,,,30,64
72360,set_tempo,,,,,3220,1,0,2727273,,,,,,
72360,end_of_track,,,,,0,1,0,,,,,,,
72360,note_on,,,,,0,0,1,,,0,,,42,16
72360,note_on,,,,,0,0,1,,,0,,,54,16
72720,note_off,,,,,360,0,1,,,0,,,42,64
72720,end_of_track,,,,,0,1,2,,,,,,,
72720,note_off,,,,,360,0,2,,,0,,,30,64
72720,end_of_track,,,,,0,1,1,,,,,,,
72720,note_off,,,,,0,0,1,,,0,,,54,64
