tick,type,numerator,denominator,clocks_per_click,notated_32nd_notes_per_beat,time,meta,track,tempo,program,channel,control,value,note,velocity
0,time_signature,3,4,24,8,0,1,0,,,,,,,
0,control_change,,,,,0,0,1,,,0,7,80,,
0,note_on,,,,,0,0,1,,,0,,,68,43
0,note_on,,,,,0,0,1,,,0,,,64,43
0,track_name,,,,,0,1,2,,,,,,,
0,program_change,,,,,0,0,2,,0,0,,,,
0,control_change,,,,,0,0,2,,,0,7,80,,
0,control_change,,,,,0,0,2,,,0,64,127,,
0,note_on,,,,,0,0,2,,,0,,,37,47
0,program_change,,,,,0,0,1,,0,0,,,,
0,track_name,,,,,0,1,8,,,,,,,
0,track_name,,,,,0,1,4,,,,,,,
0,end_of_track,,,,,0,1,4,,,,,,,
0,track_name,,,,,0,1,5,,,,,,,
0,end_of_track,,,,,0,1,5,,,,,,,
0,track_name,,,,,0,1,6,,,,,,,
0,end_of_track,,,,,0,1,6,,,,,,,
0,track_name,,,,,0,1,7,,,,,,,
0,end_of_track,,,,,0,1,7,,,,,,,
0,track_name,,,,,0,1,3,,,,,,,
0,track_name,,,,,0,1,1,,,,,,,
0,end_of_track,,,,,0,1,8,,,,,,,
0,marker,,,,,0,1,0,,,,,,,
0,marker,,,,,0,1,0,,,,,,,
0,set_tempo,,,,,0,1,0,1250000,,,,,,
40,set_tempo,,,,,40,1,0,1176471,,,,,,
120,note_off,,,,,120,0,2,,,0,,,37,64
170,control_change,,,,,50,0,2,,,0,64,0,,
210,note_on,,,,,40,0,2,,,0,,,49,36
240,control_change,,,,,0,0,2,,,0,64,127,,
240,note_on,,,,,0,0,2,,,0,,,61,36
240,note_off,,,,,30,0,2,,,0,,,49,64
350,control_change,,,,,110,0,2,,,0,64,0,,
360,control_change,,,,,0,0,2,,,0,64,127,,
360,note_off,,,,,10,0,2,,,0,,,61,64
360,note_on,,,,,0,0,2,,,0,,,73,30
450,note_off,,,,,450,0,1,,,0,,,64,64
450,note_off,,,,,0,0,1,,,0,,,68,64
470,control_change,,,,,110,0,2,,,0,64,0,,
480,note_on,,,,,0,0,1,,,0,,,64,38
480,note_off,,,,,10,0,2,,,0,,,73,64
480,note_on,,,,,30,0,1,,,0,,,68,38
660,note_on,,,,,0,0,1,,,0,,,63,35
660,note_on,,,,,0,0,1,,,0,,,66,35
660,note_off,,,,,180,0,1,,,0,,,64,64
660,note_off,,,,,0,0,1,,,0,,,68,64
700,set_tempo,,,,,660,1,0,1250000,,,,,,
720,note_off,,,,,60,0,1,,,0,,,63,64
720,note_off,,,,,0,0,1,,,0,,,66,64
720,note_on,,,,,0,0,2,,,0,,,37,47
720,control_change,,,,,240,0,2,,,0,64,127,,
720,note_on,,,,,0,0,1,,,0,,,66,30
720,note_on,,,,,0,0,1,,,0,,,63,30
760,set_tempo,,,,,60,1,0,1176471,,,,,,
840,note_off,,,,,120,0,2,,,0,,,37,64
890,control_change,,,,,50,0,2,,,0,64,0,,
930,note_on,,,,,40,0,2,,,0,,,49,36
960,control_change,,,,,0,0,2,,,0,64,127,,
960,note_off,,,,,30,0,2,,,0,,,49,64
960,note_on,,,,,0,0,2,,,0,,,61,34
1070,control_change,,,,,110,0,2,,,0,64,0,,
1080,note_off,,,,,10,0,2,,,0,,,61,64
1080,control_change,,,,,0,0,2,,,0,64,127,,
1080,note_on,,,,,0,0,2,,,0,,,73,29
1140,note_off,,,,,420,0,1,,,0,,,63,64
1140,note_off,,,,,0,0,1,,,0,,,66,64
1190,control_change,,,,,110,0,2,,,0,64,0,,
1200,note_off,,,,,10,0,2,,,0,,,73,64
1200,note_on,,,,,60,0,1,,,0,,,66,35
1200,note_on,,,,,0,0,1,,,0,,,63,35
1420,set_tempo,,,,,660,1,0,1224490,,,,,,
1440,note_on,,,,,240,0,2,,,0,,,37,47
1440,note_off,,,,,240,0,1,,,0,,,63,64
1440,note_off,,,,,0,0,1,,,0,,,66,64
1440,control_change,,,,,0,0,2,,,0,64,127,,
1440,note_on,,,,,0,0,1,,,0,,,69,42
1440,note_on,,,,,0,0,1,,,0,,,66,42
1466,set_tempo,,,,,46,1,0,1176471,,,,,,
1560,note_off,,,,,120,0,2,,,0,,,37,64
1610,control_change,,,,,50,0,2,,,0,64,0,,
1650,note_on,,,,,40,0,2,,,0,,,49,35
1680,note_off,,,,,30,0,2,,,0,,,49,64
1680,control_change,,,,,0,0,2,,,0,64,127,,
1680,note_on,,,,,0,0,2,,,0,,,61,35
1790,control_change,,,,,110,0,2,,,0,64,0,,
1800,note_off,,,,,10,0,2,,,0,,,61,64
1800,note_on,,,,,0,0,2,,,0,,,73,31
1800,control_change,,,,,0,0,2,,,0,64,127,,
1890,note_off,,,,,0,0,1,,,0,,,69,64
1890,note_off,,,,,450,0,1,,,0,,,66,64
1910,control_change,,,,,110,0,2,,,0,64,0,,
1920,note_on,,,,,0,0,1,,,0,,,66,39
1920,note_off,,,,,10,0,2,,,0,,,73,64
1920,note_on,,,,,30,0,1,,,0,,,69,39
2040,note_off,,,,,0,0,1,,,0,,,69,64
2040,note_on,,,,,0,0,1,,,0,,,68,33
2040,note_on,,,,,0,0,1,,,0,,,64,33
2040,note_off,,,,,120,0,1,,,0,,,66,64
2100,note_on,,,,,0,0,1,,,0,,,63,39
2100,note_off,,,,,60,0,1,,,0,,,64,64
2100,note_off,,,,,0,0,1,,,0,,,68,64
2100,note_on,,,,,0,0,1,,,0,,,66,39
2132,set_tempo,,,,,666,1,0,1224490,,,,,,
2160,note_off,,,,,60,0,1,,,0,,,63,64
2160,note_on,,,,,0,0,2,,,0,,,37,47
2160,note_off,,,,,0,0,1,,,0,,,66,64
2160,control_change,,,,,240,0,2,,,0,64,127,,
2160,note_on,,,,,0,0,1,,,0,,,68,36
2160,note_on,,,,,0,0,1,,,0,,,64,36
2200,set_tempo,,,,,68,1,0,1176471,,,,,,
2280,note_off,,,,,120,0,2,,,0,,,37,64
2330,control_change,,,,,50,0,2,,,0,64,0,,
2370,note_on,,,,,40,0,2,,,0,,,49,30
2400,note_off,,,,,30,0,2,,,0,,,49,64
2400,note_on,,,,,0,0,2,,,0,,,61,30
2400,control_change,,,,,0,0,2,,,0,64,127,,
2510,control_change,,,,,110,0,2,,,0,64,0,,
2520,control_change,,,,,0,0,2,,,0,64,127,,
2520,note_on,,,,,0,0,2,,,0,,,73,27
2520,note_off,,,,,10,0,2,,,0,,,61,64
2580,note_off,,,,,420,0,1,,,0,,,64,64
2580,note_off,,,,,0,0,1,,,0,,,68,64
2630,control_change,,,,,110,0,2,,,0,64,0,,
2640,note_on,,,,,60,0,1,,,0,,,68,39
2640,note_off,,,,,10,0,2,,,0,,,73,64
2640,note_on,,,,,0,0,1,,,0,,,64,39
2860,set_tempo,,,,,660,1,0,1224490,,,,,,
2880,note_on,,,,,0,0,1,,,0,,,71,51
2880,note_off,,,,,240,0,1,,,0,,,64,64
2880,note_on,,,,,240,0,2,,,0,,,37,47
2880,control_change,,,,,0,0,2,,,0,64,127,,
2880,note_on,,,,,0,0,1,,,0,,,65,51
2880,note_off,,,,,0,0,1,,,0,,,68,64
2920,set_tempo,,,,,60,1,0,1176471,,,,,,
3000,note_off,,,,,120,0,2,,,0,,,37,64
3040,control_change,,,,,40,0,2,,,0,91,96,,
3050,control_change,,,,,10,0,2,,,0,64,0,,
3090,note_on,,,,,40,0,2,,,0,,,49,41
3120,control_change,,,,,0,0,2,,,0,64,127,,
3120,note_on,,,,,0,0,2,,,0,,,61,51
3120,note_off,,,,,30,0,2,,,0,,,49,64
3230,control_change,,,,,110,0,2,,,0,64,0,,
3240,note_on,,,,,0,0,2,,,0,,,73,38
3240,control_change,,,,,0,0,2,,,0,64,127,,
3240,note_off,,,,,10,0,2,,,0,,,61,64
3330,note_off,,,,,450,0,1,,,0,,,65,64
3330,note_off,,,,,0,0,1,,,0,,,71,64
3350,control_change,,,,,110,0,2,,,0,64,0,,
3360,note_on,,,,,0,0,1,,,0,,,65,39
3360,note_off,,,,,10,0,2,,,0,,,73,64
3360,note_on,,,,,30,0,1,,,0,,,71,39
3420,note_on,,,,,0,0,1,,,0,,,68,33
3420,note_off,,,,,60,0,1,,,0,,,65,64
3480,note_off,,,,,0,0,1,,,0,,,71,64
3480,note_on,,,,,0,0,1,,,0,,,66,38
3480,note_on,,,,,0,0,1,,,0,,,69,38
3480,note_off,,,,,60,0,1,,,0,,,68,64
3540,note_off,,,,,0,0,1,,,0,,,69,64
3540,note_off,,,,,60,0,1,,,0,,,66,64
3540,note_on,,,,,0,0,1,,,0,,,68,45
3540,note_on,,,,,0,0,1,,,0,,,65,45
3580,set_tempo,,,,,660,1,0,1224490,,,,,,
3600,note_off,,,,,60,0,1,,,0,,,65,64
3600,note_on,,,,,0,0,2,,,0,,,37,50
3600,control_change,,,,,240,0,2,,,0,64,127,,
3600,note_off,,,,,0,0,1,,,0,,,68,64
3600,note_on,,,,,0,0,1,,,0,,,69,52
3600,note_on,,,,,0,0,1,,,0,,,66,52
3640,set_tempo,,,,,60,1,0,1176471,,,,,,
3720,note_off,,,,,120,0,2,,,0,,,37,64
3770,control_change,,,,,50,0,2,,,0,64,0,,
3810,note_on,,,,,40,0,2,,,0,,,49,41
3840,note_on,,,,,0,0,2,,,0,,,61,43
3840,note_off,,,,,30,0,2,,,0,,,49,64
3840,control_change,,,,,0,0,2,,,0,64,127,,
3930,note_off,,,,,0,0,1,,,0,,,69,64
3930,note_off,,,,,330,0,1,,,0,,,66,64
3950,control_change,,,,,110,0,2,,,0,64,0,,
3960,note_on,,,,,30,0,1,,,0,,,69,42
3960,note_on,,,,,0,0,1,,,0,,,66,42
3960,note_off,,,,,10,0,2,,,0,,,61,64
3960,note_on,,,,,0,0,2,,,0,,,73,48
3960,control_change,,,,,0,0,2,,,0,64,127,,
4050,note_off,,,,,90,0,1,,,0,,,66,64
4050,note_off,,,,,0,0,1,,,0,,,69,64
4070,control_change,,,,,110,0,2,,,0,64,0,,
4080,note_on,,,,,0,0,1,,,0,,,66,55
4080,note_on,,,,,30,0,1,,,0,,,69,55
4080,note_off,,,,,10,0,2,,,0,,,73,64
4170,note_off,,,,,0,0,1,,,0,,,69,64
4170,note_off,,,,,90,0,1,,,0,,,66,64
4200,note_on,,,,,30,0,1,,,0,,,69,67
4200,note_on,,,,,0,0,1,,,0,,,66,67
4290,note_off,,,,,0,0,1,,,0,,,69,64
4290,note_off,,,,,90,0,1,,,0,,,66,64
4292,set_tempo,,,,,652,1,0,1224490,,,,,,
4320,note_on,,,,,0,0,1,,,0,,,69,81
4320,note_on,,,,,0,0,2,,,0,,,37,76
4320,control_change,,,,,240,0,2,,,0,64,127,,
4320,note_on,,,,,30,0,1,,,0,,,73,81
4360,set_tempo,,,,,68,1,0,1176471,,,,,,
4440,note_off,,,,,120,0,2,,,0,,,37,64
4490,control_change,,,,,50,0,2,,,0,64,0,,
4530,note_on,,,,,40,0,2,,,0,,,49,61
4560,note_on,,,,,0,0,2,,,0,,,61,60
4560,control_change,,,,,0,0,2,,,0,64,127,,
4560,note_off,,,,,30,0,2,,,0,,,49,64
4670,control_change,,,,,110,0,2,,,0,64,0,,
4680,control_change,,,,,0,0,2,,,0,64,127,,
4680,note_on,,,,,0,0,2,,,0,,,73,43
4680,note_off,,,,,10,0,2,,,0,,,61,64
4770,note_off,,,,,450,0,1,,,0,,,69,64
4770,note_off,,,,,0,0,1,,,0,,,73,64
4790,control_change,,,,,110,0,2,,,0,64,0,,
4800,note_on,,,,,0,0,1,,,0,,,69,57
4800,note_on,,,,,30,0,1,,,0,,,73,57
4800,note_off,,,,,10,0,2,,,0,,,73,64
4980,note_on,,,,,0,0,1,,,0,,,69,45
4980,note_on,,,,,0,0,1,,,0,,,66,45
4980,note_off,,,,,180,0,1,,,0,,,69,64
4980,note_off,,,,,0,0,1,,,0,,,73,64
5012,set_tempo,,,,,652,1,0,1224490,,,,,,
5040,control_change,,,,,0,0,2,,,0,64,127,,
5040,note_off,,,,,60,0,1,,,0,,,66,64
5040,note_off,,,,,0,0,1,,,0,,,69,64
5040,note_on,,,,,0,0,1,,,0,,,68,35
5040,note_on,,,,,0,0,1,,,0,,,64,35
5040,note_on,,,,,240,0,2,,,0,,,37,47
5080,set_tempo,,,,,68,1,0,1176471,,,,,,
5160,note_off,,,,,120,0,2,,,0,,,37,64
5210,control_change,,,,,50,0,2,,,0,64,0,,
5250,note_on,,,,,40,0,2,,,0,,,49,36
5280,note_on,,,,,0,0,2,,,0,,,61,34
5280,note_off,,,,,30,0,2,,,0,,,49,64
5280,control_change,,,,,0,0,2,,,0,64,127,,
5390,control_change,,,,,110,0,2,,,0,64,0,,
5400,note_off,,,,,10,0,2,,,0,,,61,64
5400,note_on,,,,,0,0,2,,,0,,,73,28
5400,control_change,,,,,0,0,2,,,0,64,127,,
5510,control_change,,,,,110,0,2,,,0,64,0,,
5520,note_off,,,,,10,0,2,,,0,,,73,64
5610,note_off,,,,,0,0,1,,,0,,,68,64
5610,note_off,,,,,570,0,1,,,0,,,64,64
5640,note_on,,,,,30,0,1,,,0,,,68,46
5640,note_on,,,,,0,0,1,,,0,,,64,46
5740,set_tempo,,,,,660,1,0,1224490,,,,,,
5746,set_tempo,,,,,6,1,0,1250000,,,,,,
5760,note_on,,,,,0,0,1,,,0,,,69,60
5760,control_change,,,,,0,0,2,,,0,64,127,,
5760,note_on,,,,,0,0,2,,,0,,,44,75
5760,note_on,,,,,0,0,1,,,0,,,64,60
5760,note_on,,,,,0,0,2,,,0,,,32,75
5760,note_on,,,,,0,0,1,,,0,,,73,60
5760,note_off,,,,,0,0,1,,,0,,,68,64
5760,note_off,,,,,120,0,1,,,0,,,64,64
5760,control_change,,,,,240,0,2,,,0,64,127,,
5812,set_tempo,,,,,66,1,0,1176471,,,,,,
5880,note_off,,,,,120,0,2,,,0,,,44,64
5880,note_off,,,,,0,0,2,,,0,,,32,64
5930,control_change,,,,,50,0,2,,,0,64,0,,
5940,note_on,,,,,0,0,1,,,0,,,68,38
5940,note_off,,,,,180,0,1,,,0,,,64,64
5940,note_off,,,,,0,0,1,,,0,,,69,64
5940,note_on,,,,,0,0,1,,,0,,,63,38
5940,note_off,,,,,0,0,1,,,0,,,73,64
5940,note_on,,,,,0,0,1,,,0,,,72,38
5970,note_on,,,,,40,0,2,,,0,,,44,56
6000,note_off,,,,,0,0,1,,,0,,,72,64
6000,note_on,,,,,0,0,1,,,0,,,63,42
6000,note_on,,,,,0,0,1,,,0,,,68,42
6000,note_on,,,,,0,0,1,,,0,,,72,42
6000,note_on,,,,,0,0,2,,,0,,,56,55
6000,note_off,,,,,0,0,1,,,0,,,68,64
6000,note_off,,,,,60,0,1,,,0,,,63,64
6000,control_change,,,,,0,0,2,,,0,64,127,,
6000,note_off,,,,,30,0,2,,,0,,,44,64
6110,control_change,,,,,110,0,2,,,0,64,0,,
6120,note_on,,,,,0,0,2,,,0,,,80,48
6120,control_change,,,,,0,0,2,,,0,64,127,,
6120,note_off,,,,,10,0,2,,,0,,,56,64
6230,control_change,,,,,110,0,2,,,0,64,0,,
6240,note_off,,,,,10,0,2,,,0,,,80,64
6300,note_off,,,,,300,0,1,,,0,,,63,64
6300,note_off,,,,,0,0,1,,,0,,,68,64
6300,note_off,,,,,0,0,1,,,0,,,72,64
6360,note_on,,,,,60,0,1,,,0,,,72,63
6360,note_on,,,,,0,0,1,,,0,,,68,63
6432,set_tempo,,,,,620,1,0,1276596,,,,,,
6480,note_on,,,,,0,0,1,,,0,,,76,72
6480,control_change,,,,,240,0,2,,,0,64,127,,
6480,note_on,,,,,0,0,2,,,0,,,32,82
6480,note_on,,,,,0,0,2,,,0,,,44,82
6480,control_change,,,,,0,0,2,,,0,64,127,,
6480,note_on,,,,,0,0,1,,,0,,,67,72
6480,note_on,,,,,0,0,1,,,0,,,73,72
6480,note_off,,,,,0,0,1,,,0,,,72,64
6480,note_off,,,,,120,0,1,,,0,,,68,64
6540,set_tempo,,,,,108,1,0,1176471,,,,,,
6600,note_off,,,,,0,0,2,,,0,,,32,64
6600,note_off,,,,,120,0,2,,,0,,,44,64
6650,control_change,,,,,50,0,2,,,0,64,0,,
6660,note_off,,,,,0,0,1,,,0,,,76,64
6660,note_off,,,,,180,0,1,,,0,,,67,64
6660,note_off,,,,,0,0,1,,,0,,,73,64
6660,note_on,,,,,0,0,1,,,0,,,75,52
6660,note_on,,,,,0,0,1,,,0,,,72,52
6660,note_on,,,,,0,0,1,,,0,,,68,52
6690,note_on,,,,,40,0,2,,,0,,,44,75
6720,note_on,,,,,0,0,1,,,0,,,75,58
6720,note_off,,,,,0,0,1,,,0,,,75,64
6720,note_off,,,,,0,0,1,,,0,,,72,64
6720,control_change,,,,,0,0,2,,,0,64,127,,
6720,note_off,,,,,30,0,2,,,0,,,44,64
6720,note_on,,,,,0,0,1,,,0,,,72,58
6720,note_on,,,,,0,0,2,,,0,,,56,73
6720,note_off,,,,,60,0,1,,,0,,,68,64
6720,note_on,,,,,0,0,1,,,0,,,68,58
6830,control_change,,,,,110,0,2,,,0,64,0,,
6840,note_off,,,,,10,0,2,,,0,,,56,64
6840,control_change,,,,,0,0,2,,,0,64,127,,
6840,note_on,,,,,0,0,2,,,0,,,80,60
6950,control_change,,,,,110,0,2,,,0,64,0,,
6960,note_off,,,,,10,0,2,,,0,,,80,64
7020,note_off,,,,,300,0,1,,,0,,,68,64
7020,note_off,,,,,0,0,1,,,0,,,72,64
7020,note_off,,,,,0,0,1,,,0,,,75,64
7080,note_on,,,,,0,0,1,,,0,,,72,81
7080,note_on,,,,,0,0,1,,,0,,,68,81
7080,note_on,,,,,60,0,1,,,0,,,75,81
7140,set_tempo,,,,,600,1,0,1333333,,,,,,
7200,note_on,,,,,0,0,1,,,0,,,68,95
7200,note_off,,,,,0,0,1,,,0,,,75,64
7200,note_off,,,,,0,0,1,,,0,,,72,64
7200,note_on,,,,,0,0,2,,,0,,,32,96
7200,note_on,,,,,0,0,2,,,0,,,44,96
7200,control_change,,,,,0,0,2,,,0,64,127,,
7200,control_change,,,,,240,0,2,,,0,64,127,,
7200,note_off,,,,,120,0,1,,,0,,,68,64
7200,note_on,,,,,0,0,1,,,0,,,80,95
7200,note_on,,,,,0,0,1,,,0,,,76,95
7260,set_tempo,,,,,120,1,0,1176471,,,,,,
7320,note_off,,,,,120,0,2,,,0,,,32,64
7320,note_off,,,,,0,0,2,,,0,,,44,64
7370,control_change,,,,,50,0,2,,,0,64,0,,
7380,note_on,,,,,0,0,1,,,0,,,69,76
7380,note_off,,,,,180,0,1,,,0,,,68,64
7380,note_off,,,,,0,0,1,,,0,,,76,64
7380,note_off,,,,,0,0,1,,,0,,,80,64
7380,note_on,,,,,0,0,1,,,0,,,75,76
7380,note_on,,,,,0,0,1,,,0,,,78,76
7410,note_on,,,,,40,0,2,,,0,,,44,92
7440,note_off,,,,,30,0,2,,,0,,,44,64
7440,note_on,,,,,0,0,1,,,0,,,69,86
7440,note_on,,,,,0,0,1,,,0,,,75,86
7440,note_on,,,,,0,0,1,,,0,,,78,86
7440,note_off,,,,,0,0,1,,,0,,,78,64
7440,note_off,,,,,60,0,1,,,0,,,69,64
7440,note_off,,,,,0,0,1,,,0,,,75,64
7440,note_on,,,,,0,0,2,,,0,,,56,92
7440,control_change,,,,,0,0,2,,,0,64,127,,
7550,control_change,,,,,110,0,2,,,0,64,0,,
7560,note_on,,,,,0,0,2,,,0,,,80,78
7560,control_change,,,,,0,0,2,,,0,64,127,,
7560,note_off,,,,,10,0,2,,,0,,,56,64
7670,control_change,,,,,110,0,2,,,0,64,0,,
7680,note_off,,,,,10,0,2,,,0,,,80,64
7740,note_off,,,,,300,0,1,,,0,,,69,64
7740,note_off,,,,,0,0,1,,,0,,,75,64
7740,note_off,,,,,0,0,1,,,0,,,78,64
7800,note_on,,,,,60,0,1,,,0,,,78,94
7800,note_on,,,,,0,0,1,,,0,,,75,94
7800,note_on,,,,,0,0,1,,,0,,,69,94
7846,set_tempo,,,,,586,1,0,1428571,,,,,,
7860,set_tempo,,,,,14,1,0,1463415,,,,,,
7920,note_on,,,,,0,0,1,,,0,,,81,107
7920,note_off,,,,,120,0,1,,,0,,,69,64
7920,note_on,,,,,0,0,1,,,0,,,76,107
7920,note_off,,,,,0,0,1,,,0,,,78,64
7920,control_change,,,,,240,0,2,,,0,64,127,,
7920,note_on,,,,,0,0,1,,,0,,,73,107
7920,note_on,,,,,0,0,2,,,0,,,32,101
7920,note_on,,,,,0,0,2,,,0,,,44,101
7920,control_change,,,,,0,0,2,,,0,64,127,,
7920,note_off,,,,,0,0,1,,,0,,,75,64
7986,set_tempo,,,,,126,1,0,1395349,,,,,,
8000,set_tempo,,,,,14,1,0,1200000,,,,,,
8040,note_off,,,,,120,0,2,,,0,,,44,64
8040,note_off,,,,,0,0,2,,,0,,,32,64
8090,control_change,,,,,50,0,2,,,0,64,0,,
8100,note_on,,,,,0,0,1,,,0,,,72,85
8100,note_on,,,,,0,0,1,,,0,,,75,85
8100,note_on,,,,,0,0,1,,,0,,,80,85
8100,note_off,,,,,0,0,1,,,0,,,76,64
8100,note_off,,,,,180,0,1,,,0,,,73,64
8100,note_off,,,,,0,0,1,,,0,,,81,64
8130,note_on,,,,,40,0,2,,,0,,,44,78
8160,note_off,,,,,60,0,1,,,0,,,72,64
8160,note_on,,,,,0,0,1,,,0,,,72,68
8160,note_on,,,,,0,0,1,,,0,,,75,68
8160,note_on,,,,,0,0,2,,,0,,,56,68
8160,control_change,,,,,0,0,2,,,0,64,127,,
8160,note_off,,,,,30,0,2,,,0,,,44,64
8160,note_on,,,,,0,0,1,,,0,,,80,68
8160,note_off,,,,,0,0,1,,,0,,,75,64
8160,note_off,,,,,0,0,1,,,0,,,80,64
8270,control_change,,,,,110,0,2,,,0,64,0,,
8280,note_off,,,,,10,0,2,,,0,,,56,64
8280,control_change,,,,,0,0,2,,,0,64,127,,
8280,note_on,,,,,0,0,2,,,0,,,68,47
8390,control_change,,,,,110,0,2,,,0,64,0,,
8400,note_off,,,,,10,0,2,,,0,,,68,64
8640,control_change,,,,,0,0,2,,,0,64,127,,
8640,control_change,,,,,240,0,2,,,0,64,127,,
8640,note_on,,,,,0,0,2,,,0,,,44,52
8640,note_on,,,,,0,0,2,,,0,,,32,52
8760,note_off,,,,,0,0,2,,,0,,,44,64
8760,note_off,,,,,120,0,2,,,0,,,32,64
8810,control_change,,,,,50,0,2,,,0,64,0,,
8850,note_on,,,,,40,0,2,,,0,,,44,45
8880,note_off,,,,,30,0,2,,,0,,,44,64
8880,control_change,,,,,0,0,2,,,0,64,127,,
8880,note_on,,,,,0,0,2,,,0,,,56,44
8990,control_change,,,,,110,0,2,,,0,64,0,,
9000,note_off,,,,,10,0,2,,,0,,,56,64
9000,note_on,,,,,0,0,2,,,0,,,68,37
9000,control_change,,,,,0,0,2,,,0,64,127,,
9110,control_change,,,,,110,0,2,,,0,64,0,,
9120,note_off,,,,,10,0,2,,,0,,,68,64
9226,set_tempo,,,,,1226,1,0,1578947,,,,,,
9300,note_off,,,,,1140,0,1,,,0,,,72,64
9300,note_off,,,,,0,0,1,,,0,,,75,64
9300,note_off,,,,,0,0,1,,,0,,,80,64
9360,note_on,,,,,60,0,1,,,0,,,80,37
9360,note_on,,,,,0,0,1,,,0,,,76,37
9360,note_on,,,,,0,0,1,,,0,,,68,37
9360,note_on,,,,,0,0,1,,,0,,,71,37
9360,control_change,,,,,240,0,2,,,0,64,127,,
9360,control_change,,,,,0,0,2,,,0,64,127,,
9360,note_on,,,,,0,0,2,,,0,,,44,40
9360,note_on,,,,,0,0,2,,,0,,,32,40
9452,set_tempo,,,,,226,1,0,1200000,,,,,,
9480,note_off,,,,,120,0,2,,,0,,,32,64
9480,note_off,,,,,0,0,2,,,0,,,44,64
9530,control_change,,,,,50,0,2,,,0,64,0,,
9570,note_on,,,,,40,0,2,,,0,,,47,32
9600,note_on,,,,,0,0,2,,,0,,,59,34
9600,control_change,,,,,0,0,2,,,0,64,127,,
9600,note_off,,,,,30,0,2,,,0,,,47,64
9710,control_change,,,,,110,0,2,,,0,64,0,,
9720,control_change,,,,,0,0,2,,,0,64,127,,
9720,note_off,,,,,10,0,2,,,0,,,59,64
9720,note_on,,,,,0,0,2,,,0,,,88,25
9830,control_change,,,,,110,0,2,,,0,64,0,,
9840,note_off,,,,,10,0,2,,,0,,,88,64
9960,note_off,,,,,0,0,1,,,0,,,76,64
9960,note_off,,,,,0,0,1,,,0,,,80,64
9960,note_on,,,,,0,0,1,,,0,,,76,32
9960,note_off,,,,,0,0,1,,,0,,,71,64
9960,note_on,,,,,0,0,1,,,0,,,71,32
9960,note_on,,,,,0,0,1,,,0,,,64,32
9960,note_off,,,,,600,0,1,,,0,,,68,64
10012,set_tempo,,,,,560,1,0,1363636,,,,,,
10080,note_off,,,,,0,0,1,,,0,,,71,64
10080,note_off,,,,,120,0,1,,,0,,,64,64
10080,note_on,,,,,0,0,1,,,0,,,64,40
10080,note_on,,,,,0,0,1,,,0,,,69,40
10080,note_on,,,,,240,0,2,,,0,,,33,38
10080,control_change,,,,,0,0,2,,,0,64,127,,
10080,note_off,,,,,0,0,1,,,0,,,76,64
10080,note_on,,,,,0,0,1,,,0,,,75,40
10080,note_on,,,,,0,0,2,,,0,,,45,38
10186,set_tempo,,,,,174,1,0,1200000,,,,,,
10200,note_off,,,,,0,0,2,,,0,,,33,64
10200,note_off,,,,,120,0,2,,,0,,,45,64
10250,control_change,,,,,50,0,2,,,0,64,0,,
10260,note_on,,,,,0,0,1,,,0,,,73,30
10260,note_off,,,,,0,0,1,,,0,,,75,64
10260,note_off,,,,,0,0,1,,,0,,,69,64
10260,note_off,,,,,180,0,1,,,0,,,64,64
10290,note_on,,,,,40,0,2,,,0,,,49,31
10320,note_on,,,,,0,0,1,,,0,,,69,25
10320,note_on,,,,,0,0,1,,,0,,,73,25
10320,note_off,,,,,60,0,1,,,0,,,73,64
10320,note_on,,,,,0,0,1,,,0,,,64,25
10320,control_change,,,,,0,0,2,,,0,64,127,,
10320,note_on,,,,,0,0,2,,,0,,,61,33
10320,note_off,,,,,30,0,2,,,0,,,49,64
10430,control_change,,,,,110,0,2,,,0,64,0,,
10440,control_change,,,,,0,0,2,,,0,64,127,,
10440,note_on,,,,,0,0,2,,,0,,,85,26
10440,note_off,,,,,10,0,2,,,0,,,61,64
10550,control_change,,,,,110,0,2,,,0,64,0,,
10560,note_off,,,,,10,0,2,,,0,,,85,64
10620,note_off,,,,,0,0,1,,,0,,,69,64
10620,note_off,,,,,300,0,1,,,0,,,64,64
10620,note_off,,,,,0,0,1,,,0,,,73,64
10680,note_on,,,,,60,0,1,,,0,,,73,30
10680,note_on,,,,,0,0,1,,,0,,,68,30
10680,note_on,,,,,0,0,1,,,0,,,64,30
10746,set_tempo,,,,,560,1,0,1363636,,,,,,
10800,note_on,,,,,0,0,1,,,0,,,73,39
10800,note_on,,,,,0,0,2,,,0,,,35,38
10800,note_off,,,,,0,0,1,,,0,,,68,64
10800,note_off,,,,,0,0,1,,,0,,,73,64
10800,control_change,,,,,0,0,2,,,0,64,127,,
10800,note_on,,,,,0,0,1,,,0,,,66,39
10800,note_on,,,,,0,0,1,,,0,,,64,39
10800,note_on,,,,,240,0,2,,,0,,,47,38
10800,note_off,,,,,120,0,1,,,0,,,64,64
10872,set_tempo,,,,,126,1,0,1200000,,,,,,
10920,note_off,,,,,0,0,2,,,0,,,47,64
10920,note_off,,,,,120,0,2,,,0,,,35,64
10970,control_change,,,,,50,0,2,,,0,64,0,,
10980,note_off,,,,,0,0,1,,,0,,,73,64
10980,note_off,,,,,180,0,1,,,0,,,64,64
10980,note_on,,,,,0,0,1,,,0,,,71,31
10980,note_on,,,,,0,0,1,,,0,,,63,31
11010,note_on,,,,,40,0,2,,,0,,,47,34
11040,note_off,,,,,30,0,2,,,0,,,47,64
11040,control_change,,,,,0,0,2,,,0,64,127,,
11040,note_on,,,,,0,0,2,,,0,,,59,37
11040,note_on,,,,,0,0,1,,,0,,,63,21
11040,note_on,,,,,0,0,1,,,0,,,66,21
11040,note_on,,,,,0,0,1,,,0,,,71,21
11040,note_off,,,,,0,0,1,,,0,,,66,64
11040,note_off,,,,,0,0,1,,,0,,,71,64
11040,note_off,,,,,60,0,1,,,0,,,63,64
11150,control_change,,,,,110,0,2,,,0,64,0,,
11160,control_change,,,,,0,0,2,,,0,64,127,,
11160,note_on,,,,,0,0,2,,,0,,,83,26
11160,note_off,,,,,10,0,2,,,0,,,59,64
11270,control_change,,,,,110,0,2,,,0,64,0,,
11280,note_off,,,,,10,0,2,,,0,,,83,64
11400,note_on,,,,,0,0,1,,,0,,,69,32
11400,note_on,,,,,0,0,1,,,0,,,64,32
11400,note_off,,,,,360,0,1,,,0,,,63,64
11400,note_off,,,,,0,0,1,,,0,,,66,64
11400,note_off,,,,,0,0,1,,,0,,,71,64
11400,note_on,,,,,0,0,1,,,0,,,61,32
11486,set_tempo,,,,,614,1,0,1333333,,,,,,
11520,control_change,,,,,0,0,2,,,0,64,127,,
11520,note_on,,,,,240,0,2,,,0,,,40,31
11520,note_on,,,,,0,0,1,,,0,,,68,35
11520,note_on,,,,,0,0,1,,,0,,,59,35
11520,note_on,,,,,0,0,1,,,0,,,64,35
11520,note_off,,,,,0,0,1,,,0,,,69,64
11520,note_off,,,,,0,0,1,,,0,,,64,64
11520,note_off,,,,,120,0,1,,,0,,,61,64
11632,set_tempo,,,,,146,1,0,1200000,,,,,,
11640,note_off,,,,,120,0,2,,,0,,,40,64
11690,control_change,,,,,50,0,2,,,0,64,0,,
11730,note_on,,,,,40,0,2,,,0,,,47,23
11760,note_off,,,,,240,0,1,,,0,,,59,64
11760,note_off,,,,,0,0,1,,,0,,,64,64
11760,note_on,,,,,0,0,2,,,0,,,52,25
11760,note_off,,,,,30,0,2,,,0,,,47,64
11760,note_on,,,,,0,0,1,,,0,,,56,20
11760,note_off,,,,,0,0,1,,,0,,,68,64
11760,control_change,,,,,0,0,2,,,0,64,127,,
11760,note_on,,,,,0,0,1,,,0,,,59,20
11760,note_on,,,,,0,0,1,,,0,,,64,20
11870,control_change,,,,,110,0,2,,,0,64,0,,
11880,note_off,,,,,10,0,2,,,0,,,52,64
11880,note_on,,,,,0,0,2,,,0,,,76,20
11880,control_change,,,,,0,0,2,,,0,64,127,,
11990,control_change,,,,,110,0,2,,,0,64,0,,
12000,note_off,,,,,10,0,2,,,0,,,76,64
12120,note_off,,,,,0,0,1,,,0,,,64,64
12120,note_off,,,,,0,0,1,,,0,,,59,64
12120,note_off,,,,,360,0,1,,,0,,,56,64
12240,note_on,,,,,0,0,2,,,0,,,40,38
12240,set_tempo,,,,,608,1,0,1250000,,,,,,
12240,note_on,,,,,120,0,1,,,0,,,68,34
12240,note_on,,,,,0,0,1,,,0,,,64,34
12240,control_change,,,,,240,0,2,,,0,64,127,,
12280,set_tempo,,,,,40,1,0,1176471,,,,,,
12360,note_off,,,,,120,0,2,,,0,,,40,64
12410,control_change,,,,,50,0,2,,,0,64,0,,
12450,note_on,,,,,40,0,2,,,0,,,47,32
12480,control_change,,,,,0,0,2,,,0,64,127,,
12480,note_on,,,,,0,0,2,,,0,,,59,31
12480,note_off,,,,,30,0,2,,,0,,,47,64
12590,control_change,,,,,110,0,2,,,0,64,0,,
12600,note_on,,,,,0,0,2,,,0,,,71,30
12600,control_change,,,,,0,0,2,,,0,64,127,,
12600,note_off,,,,,10,0,2,,,0,,,59,64
12690,note_off,,,,,450,0,1,,,0,,,64,64
12690,note_off,,,,,0,0,1,,,0,,,68,64
12710,control_change,,,,,110,0,2,,,0,64,0,,
12720,note_on,,,,,30,0,1,,,0,,,68,38
12720,note_on,,,,,0,0,1,,,0,,,64,38
12720,note_off,,,,,10,0,2,,,0,,,71,64
12900,note_off,,,,,180,0,1,,,0,,,64,64
12900,note_off,,,,,0,0,1,,,0,,,68,64
12900,note_on,,,,,0,0,1,,,0,,,63,35
12900,note_on,,,,,0,0,1,,,0,,,66,35
12940,set_tempo,,,,,660,1,0,1250000,,,,,,
12960,note_off,,,,,60,0,1,,,0,,,63,64
12960,note_on,,,,,0,0,2,,,0,,,40,39
12960,control_change,,,,,240,0,2,,,0,64,127,,
12960,note_on,,,,,0,0,1,,,0,,,63,39
12960,note_on,,,,,0,0,1,,,0,,,66,39
12960,note_off,,,,,0,0,1,,,0,,,66,64
13000,set_tempo,,,,,60,1,0,1176471,,,,,,
13080,note_off,,,,,120,0,2,,,0,,,40,64
13130,control_change,,,,,50,0,2,,,0,64,0,,
13170,note_on,,,,,40,0,2,,,0,,,47,34
13200,note_on,,,,,0,0,2,,,0,,,59,33
13200,note_off,,,,,30,0,2,,,0,,,47,64
13200,control_change,,,,,0,0,2,,,0,64,127,,
13310,control_change,,,,,110,0,2,,,0,64,0,,
13320,control_change,,,,,0,0,2,,,0,64,127,,
13320,note_off,,,,,10,0,2,,,0,,,59,64
13320,note_on,,,,,0,0,2,,,0,,,71,31
13380,note_off,,,,,420,0,1,,,0,,,63,64
13380,note_off,,,,,0,0,1,,,0,,,66,64
13430,control_change,,,,,110,0,2,,,0,64,0,,
13440,note_off,,,,,10,0,2,,,0,,,71,64
13440,note_on,,,,,0,0,1,,,0,,,63,35
13440,note_on,,,,,60,0,1,,,0,,,66,35
13660,set_tempo,,,,,660,1,0,1224490,,,,,,
13680,note_on,,,,,0,0,2,,,0,,,40,47
13680,note_on,,,,,0,0,1,,,0,,,66,42
13680,note_on,,,,,0,0,1,,,0,,,69,42
13680,note_off,,,,,0,0,1,,,0,,,66,64
13680,note_off,,,,,240,0,1,,,0,,,63,64
13680,control_change,,,,,240,0,2,,,0,64,127,,
13706,set_tempo,,,,,46,1,0,1176471,,,,,,
13800,note_off,,,,,120,0,2,,,0,,,40,64
13850,control_change,,,,,50,0,2,,,0,64,0,,
13890,note_on,,,,,40,0,2,,,0,,,47,36
13920,note_off,,,,,30,0,2,,,0,,,47,64
13920,note_on,,,,,0,0,2,,,0,,,59,36
13920,control_change,,,,,0,0,2,,,0,64,127,,
14030,control_change,,,,,110,0,2,,,0,64,0,,
14040,note_off,,,,,10,0,2,,,0,,,59,64
14040,control_change,,,,,0,0,2,,,0,64,127,,
14040,note_on,,,,,0,0,2,,,0,,,71,33
14130,note_off,,,,,0,0,1,,,0,,,69,64
14130,note_off,,,,,450,0,1,,,0,,,66,64
14150,control_change,,,,,110,0,2,,,0,64,0,,
14160,note_on,,,,,30,0,1,,,0,,,69,29
14160,note_on,,,,,0,0,1,,,0,,,63,29
14160,note_off,,,,,10,0,2,,,0,,,71,64
14220,note_off,,,,,60,0,1,,,0,,,63,64
14220,note_on,,,,,0,0,1,,,0,,,66,31
14280,note_on,,,,,0,0,1,,,0,,,64,36
14280,note_off,,,,,0,0,1,,,0,,,69,64
14280,note_on,,,,,0,0,1,,,0,,,68,36
14280,note_off,,,,,60,0,1,,,0,,,66,64
14340,note_on,,,,,0,0,1,,,0,,,63,38
14340,note_on,,,,,0,0,1,,,0,,,66,38
14340,note_off,,,,,0,0,1,,,0,,,68,64
14340,note_off,,,,,60,0,1,,,0,,,64,64
14372,set_tempo,,,,,666,1,0,1224490,,,,,,
14400,note_on,,,,,0,0,1,,,0,,,64,44
14400,note_on,,,,,0,0,1,,,0,,,68,44
14400,note_off,,,,,0,0,1,,,0,,,66,64
14400,note_off,,,,,60,0,1,,,0,,,63,64
14400,control_change,,,,,240,0,2,,,0,64,127,,
14400,note_on,,,,,0,0,2,,,0,,,40,47
14440,set_tempo,,,,,68,1,0,1176471,,,,,,
14520,note_off,,,,,120,0,2,,,0,,,40,64
14570,control_change,,,,,50,0,2,,,0,64,0,,
14610,note_on,,,,,40,0,2,,,0,,,47,32
14640,note_on,,,,,0,0,2,,,0,,,59,30
14640,control_change,,,,,0,0,2,,,0,64,127,,
14640,note_off,,,,,30,0,2,,,0,,,47,64
14750,control_change,,,,,110,0,2,,,0,64,0,,
14760,note_on,,,,,0,0,2,,,0,,,71,31
14760,note_off,,,,,10,0,2,,,0,,,59,64
14760,control_change,,,,,0,0,2,,,0,64,127,,
14820,note_off,,,,,0,0,1,,,0,,,68,64
14820,note_off,,,,,420,0,1,,,0,,,64,64
14870,control_change,,,,,110,0,2,,,0,64,0,,
14880,note_on,,,,,0,0,1,,,0,,,64,39
14880,note_off,,,,,10,0,2,,,0,,,71,64
14880,note_on,,,,,60,0,1,,,0,,,68,39
15100,set_tempo,,,,,660,1,0,1224490,,,,,,
15120,note_off,,,,,240,0,1,,,0,,,64,64
15120,note_off,,,,,0,0,1,,,0,,,68,64
15120,note_on,,,,,0,0,1,,,0,,,71,49
15120,note_on,,,,,0,0,1,,,0,,,68,49
15120,note_on,,,,,0,0,1,,,0,,,62,49
15120,control_change,,,,,240,0,2,,,0,64,127,,
15120,note_on,,,,,0,0,2,,,0,,,40,47
15160,set_tempo,,,,,60,1,0,1176471,,,,,,
15240,note_off,,,,,120,0,2,,,0,,,40,64
15280,control_change,,,,,40,0,2,,,0,91,96,,
15290,control_change,,,,,10,0,2,,,0,64,0,,
15330,note_on,,,,,40,0,2,,,0,,,52,41
15360,note_off,,,,,30,0,2,,,0,,,52,64
15360,control_change,,,,,0,0,2,,,0,64,127,,
15360,note_on,,,,,0,0,2,,,0,,,64,51
15470,control_change,,,,,110,0,2,,,0,64,0,,
15480,note_off,,,,,10,0,2,,,0,,,64,64
15480,control_change,,,,,0,0,2,,,0,64,127,,
15480,note_on,,,,,0,0,2,,,0,,,76,38
15570,note_off,,,,,0,0,1,,,0,,,71,64
15570,note_off,,,,,0,0,1,,,0,,,68,64
15570,note_off,,,,,450,0,1,,,0,,,62,64
15590,control_change,,,,,110,0,2,,,0,64,0,,
15600,note_off,,,,,10,0,2,,,0,,,76,64
15600,note_on,,,,,0,0,1,,,0,,,62,53
15600,note_on,,,,,0,0,1,,,0,,,68,53
15600,note_on,,,,,30,0,1,,,0,,,71,53
15780,note_on,,,,,0,0,1,,,0,,,61,44
15780,note_on,,,,,0,0,1,,,0,,,69,44
15780,note_off,,,,,0,0,1,,,0,,,71,64
15780,note_off,,,,,0,0,1,,,0,,,68,64
15780,note_off,,,,,180,0,1,,,0,,,62,64
15820,set_tempo,,,,,660,1,0,1224490,,,,,,
15840,note_on,,,,,0,0,1,,,0,,,61,50
15840,note_on,,,,,0,0,1,,,0,,,69,50
15840,note_off,,,,,60,0,1,,,0,,,61,64
15840,note_off,,,,,0,0,1,,,0,,,69,64
15840,note_on,,,,,0,0,2,,,0,,,40,50
15840,control_change,,,,,240,0,2,,,0,64,127,,
15880,set_tempo,,,,,60,1,0,1176471,,,,,,
15960,note_off,,,,,120,0,2,,,0,,,40,64
16010,control_change,,,,,50,0,2,,,0,64,0,,
16050,note_on,,,,,40,0,2,,,0,,,52,42
16080,note_off,,,,,30,0,2,,,0,,,52,64
16080,control_change,,,,,0,0,2,,,0,64,127,,
16080,note_on,,,,,0,0,2,,,0,,,64,44
16170,note_off,,,,,330,0,1,,,0,,,61,64
16170,note_off,,,,,0,0,1,,,0,,,69,64
16190,control_change,,,,,110,0,2,,,0,64,0,,
16200,note_on,,,,,30,0,1,,,0,,,69,41
16200,control_change,,,,,0,0,2,,,0,64,127,,
16200,note_on,,,,,0,0,2,,,0,,,76,33
16200,note_on,,,,,0,0,1,,,0,,,61,41
16200,note_off,,,,,10,0,2,,,0,,,64,64
16290,note_off,,,,,0,0,1,,,0,,,69,64
16290,note_off,,,,,90,0,1,,,0,,,61,64
16310,control_change,,,,,110,0,2,,,0,64,0,,
16320,note_on,,,,,30,0,1,,,0,,,69,50
16320,note_off,,,,,10,0,2,,,0,,,76,64
16320,note_on,,,,,0,0,1,,,0,,,61,50
16410,note_off,,,,,0,0,1,,,0,,,69,64
16410,note_off,,,,,90,0,1,,,0,,,61,64
16440,note_on,,,,,30,0,1,,,0,,,69,59
16440,note_on,,,,,0,0,1,,,0,,,61,59
16530,note_off,,,,,0,0,1,,,0,,,69,64
16530,note_off,,,,,90,0,1,,,0,,,61,64
16532,set_tempo,,,,,652,1,0,1224490,,,,,,
16560,note_on,,,,,0,0,1,,,0,,,63,67
16560,note_on,,,,,0,0,1,,,0,,,69,67
16560,note_on,,,,,30,0,1,,,0,,,73,67
16560,control_change,,,,,240,0,2,,,0,64,127,,
16560,note_on,,,,,0,0,2,,,0,,,40,76
16600,set_tempo,,,,,68,1,0,1176471,,,,,,
16680,note_off,,,,,120,0,2,,,0,,,40,64
16730,control_change,,,,,50,0,2,,,0,64,0,,
16770,note_on,,,,,40,0,2,,,0,,,52,61
16800,note_off,,,,,30,0,2,,,0,,,52,64
16800,control_change,,,,,0,0,2,,,0,64,127,,
16800,note_on,,,,,0,0,2,,,0,,,64,60
16910,control_change,,,,,110,0,2,,,0,64,0,,
16920,control_change,,,,,0,0,2,,,0,64,127,,
16920,note_on,,,,,0,0,2,,,0,,,76,53
16920,note_off,,,,,10,0,2,,,0,,,64,64
17010,note_off,,,,,0,0,1,,,0,,,73,64
17010,note_off,,,,,0,0,1,,,0,,,69,64
17010,note_off,,,,,450,0,1,,,0,,,63,64
17030,control_change,,,,,110,0,2,,,0,64,0,,
17040,note_on,,,,,0,0,1,,,0,,,63,57
17040,note_on,,,,,30,0,1,,,0,,,73,57
17040,note_on,,,,,0,0,1,,,0,,,69,57
17040,note_off,,,,,10,0,2,,,0,,,76,64
17220,note_on,,,,,0,0,1,,,0,,,71,45
17220,note_on,,,,,0,0,1,,,0,,,64,45
17220,note_off,,,,,180,0,1,,,0,,,63,64
17220,note_off,,,,,0,0,1,,,0,,,69,64
17220,note_off,,,,,0,0,1,,,0,,,73,64
17220,note_on,,,,,0,0,1,,,0,,,68,45
17252,set_tempo,,,,,652,1,0,1224490,,,,,,
17280,note_off,,,,,60,0,1,,,0,,,64,64
17280,note_off,,,,,0,0,1,,,0,,,71,64
17280,note_on,,,,,0,0,2,,,0,,,40,47
17280,control_change,,,,,240,0,2,,,0,64,127,,
17280,note_on,,,,,0,0,1,,,0,,,71,35
17280,note_off,,,,,0,0,1,,,0,,,68,64
17280,note_on,,,,,0,0,1,,,0,,,64,35
17280,note_on,,,,,0,0,1,,,0,,,68,35
17320,set_tempo,,,,,68,1,0,1176471,,,,,,
17400,note_off,,,,,120,0,2,,,0,,,40,64
17450,control_change,,,,,50,0,2,,,0,64,0,,
17490,note_on,,,,,40,0,2,,,0,,,52,42
17520,note_on,,,,,0,0,2,,,0,,,64,42
17520,control_change,,,,,0,0,2,,,0,64,127,,
17520,note_off,,,,,30,0,2,,,0,,,52,64
17630,control_change,,,,,110,0,2,,,0,64,0,,
17640,note_on,,,,,0,0,2,,,0,,,76,38
17640,control_change,,,,,0,0,2,,,0,64,127,,
17640,note_off,,,,,10,0,2,,,0,,,64,64
17750,control_change,,,,,110,0,2,,,0,64,0,,
17760,note_off,,,,,10,0,2,,,0,,,76,64
17850,note_off,,,,,0,0,1,,,0,,,68,64
17850,note_off,,,,,570,0,1,,,0,,,64,64
17850,note_off,,,,,0,0,1,,,0,,,71,64
17880,note_on,,,,,0,0,1,,,0,,,64,56
17880,note_on,,,,,30,0,1,,,0,,,71,56
17880,note_on,,,,,0,0,1,,,0,,,68,56
17980,set_tempo,,,,,660,1,0,1224490,,,,,,
17986,set_tempo,,,,,6,1,0,1250000,,,,,,
18000,note_on,,,,,0,0,2,,,0,,,47,75
18000,note_on,,,,,0,0,2,,,0,,,35,75
18000,control_change,,,,,240,0,2,,,0,64,127,,
18000,note_off,,,,,120,0,1,,,0,,,64,64
18000,note_off,,,,,0,0,1,,,0,,,68,64
18000,note_off,,,,,0,0,1,,,0,,,71,64
18000,note_on,,,,,0,0,1,,,0,,,68,69
18000,note_on,,,,,0,0,1,,,0,,,71,69
18000,note_on,,,,,0,0,1,,,0,,,76,69
18052,set_tempo,,,,,66,1,0,1176471,,,,,,
18120,note_off,,,,,0,0,2,,,0,,,35,64
18120,note_off,,,,,120,0,2,,,0,,,47,64
18170,control_change,,,,,50,0,2,,,0,64,0,,
18180,note_on,,,,,0,0,1,,,0,,,66,53
18180,note_off,,,,,180,0,1,,,0,,,68,64
18180,note_off,,,,,0,0,1,,,0,,,71,64
18180,note_on,,,,,0,0,1,,,0,,,75,53
18180,note_off,,,,,0,0,1,,,0,,,76,64
18180,note_on,,,,,0,0,1,,,0,,,71,53
18210,note_on,,,,,40,0,2,,,0,,,47,56
18240,note_off,,,,,0,0,1,,,0,,,75,64
18240,note_off,,,,,0,0,1,,,0,,,71,64
18240,note_on,,,,,0,0,1,,,0,,,71,55
18240,note_on,,,,,0,0,1,,,0,,,66,55
18240,note_off,,,,,30,0,2,,,0,,,47,64
18240,control_change,,,,,0,0,2,,,0,64,127,,
18240,note_on,,,,,0,0,2,,,0,,,59,55
18240,note_off,,,,,60,0,1,,,0,,,66,64
18240,note_on,,,,,0,0,1,,,0,,,75,55
18350,control_change,,,,,110,0,2,,,0,64,0,,
18360,control_change,,,,,0,0,2,,,0,64,127,,
18360,note_off,,,,,10,0,2,,,0,,,59,64
18360,note_on,,,,,0,0,2,,,0,,,83,48
18470,control_change,,,,,110,0,2,,,0,64,0,,
18480,note_off,,,,,10,0,2,,,0,,,83,64
18540,note_off,,,,,300,0,1,,,0,,,66,64
18540,note_off,,,,,0,0,1,,,0,,,71,64
18540,note_off,,,,,0,0,1,,,0,,,75,64
18600,note_on,,,,,60,0,1,,,0,,,75,74
18600,note_on,,,,,0,0,1,,,0,,,71,74
18672,set_tempo,,,,,620,1,0,1276596,,,,,,
18720,note_on,,,,,0,0,2,,,0,,,47,89
18720,control_change,,,,,240,0,2,,,0,64,127,,
18720,note_off,,,,,120,0,1,,,0,,,71,64
18720,note_off,,,,,0,0,1,,,0,,,75,64
18720,note_on,,,,,0,0,1,,,0,,,80,79
18720,note_on,,,,,0,0,1,,,0,,,76,79
18720,note_on,,,,,0,0,1,,,0,,,71,79
18720,note_on,,,,,0,0,2,,,0,,,35,89
18780,set_tempo,,,,,108,1,0,1176471,,,,,,
18840,note_off,,,,,0,0,2,,,0,,,47,64
18840,note_off,,,,,120,0,2,,,0,,,35,64
18890,control_change,,,,,50,0,2,,,0,64,0,,
18900,note_off,,,,,0,0,1,,,0,,,80,64
18900,note_on,,,,,0,0,1,,,0,,,75,66
18900,note_off,,,,,180,0,1,,,0,,,76,64
18900,note_on,,,,,0,0,1,,,0,,,78,66
18930,note_on,,,,,40,0,2,,,0,,,47,79
18960,note_off,,,,,60,0,1,,,0,,,75,64
18960,note_off,,,,,0,0,1,,,0,,,78,64
18960,note_on,,,,,0,0,1,,,0,,,78,73
18960,note_on,,,,,0,0,1,,,0,,,71,73
18960,note_off,,,,,0,0,1,,,0,,,71,64
18960,note_on,,,,,0,0,2,,,0,,,59,77
18960,control_change,,,,,0,0,2,,,0,64,127,,
18960,note_off,,,,,30,0,2,,,0,,,47,64
18960,note_on,,,,,0,0,1,,,0,,,75,73
19070,control_change,,,,,110,0,2,,,0,64,0,,
19080,note_on,,,,,0,0,2,,,0,,,83,73
19080,control_change,,,,,0,0,2,,,0,64,127,,
19080,note_off,,,,,10,0,2,,,0,,,59,64
19190,control_change,,,,,110,0,2,,,0,64,0,,
19200,note_off,,,,,10,0,2,,,0,,,83,64
19260,note_off,,,,,300,0,1,,,0,,,71,64
19260,note_off,,,,,0,0,1,,,0,,,75,64
19260,note_off,,,,,0,0,1,,,0,,,78,64
19320,note_on,,,,,60,0,1,,,0,,,80,91
19320,note_on,,,,,0,0,1,,,0,,,71,91
19320,note_on,,,,,0,0,1,,,0,,,76,91
19380,set_tempo,,,,,600,1,0,1333333,,,,,,
19440,control_change,,,,,240,0,2,,,0,64,127,,
19440,note_on,,,,,0,0,2,,,0,,,47,107
19440,note_off,,,,,120,0,1,,,0,,,71,64
19440,note_off,,,,,0,0,1,,,0,,,76,64
19440,note_off,,,,,0,0,1,,,0,,,80,64
19440,note_on,,,,,0,0,1,,,0,,,85,106
19440,note_on,,,,,0,0,1,,,0,,,80,106
19440,note_on,,,,,0,0,1,,,0,,,76,106
19440,note_on,,,,,0,0,2,,,0,,,35,107
19500,set_tempo,,,,,120,1,0,1176471,,,,,,
19560,note_off,,,,,0,0,2,,,0,,,35,64
19560,note_off,,,,,120,0,2,,,0,,,47,64
19610,control_change,,,,,50,0,2,,,0,64,0,,
19620,note_off,,,,,0,0,1,,,0,,,80,64
19620,note_on,,,,,0,0,1,,,0,,,83,91
19620,note_on,,,,,0,0,1,,,0,,,78,91
19620,note_on,,,,,0,0,1,,,0,,,75,91
19620,note_off,,,,,0,0,1,,,0,,,85,64
19620,note_off,,,,,180,0,1,,,0,,,76,64
19650,note_on,,,,,40,0,2,,,0,,,47,94
19680,note_on,,,,,0,0,2,,,0,,,59,93
19680,control_change,,,,,0,0,2,,,0,64,127,,
19680,note_off,,,,,30,0,2,,,0,,,47,64
19680,note_off,,,,,0,0,1,,,0,,,83,64
19680,note_on,,,,,0,0,1,,,0,,,78,95
19680,note_on,,,,,0,0,1,,,0,,,83,95
19680,note_off,,,,,0,0,1,,,0,,,78,64
19680,note_on,,,,,0,0,1,,,0,,,75,95
19680,note_off,,,,,60,0,1,,,0,,,75,64
19790,control_change,,,,,110,0,2,,,0,64,0,,
19800,note_off,,,,,10,0,2,,,0,,,59,64
19800,control_change,,,,,0,0,2,,,0,64,127,,
19800,note_on,,,,,0,0,2,,,0,,,71,84
19910,control_change,,,,,110,0,2,,,0,64,0,,
19920,note_off,,,,,10,0,2,,,0,,,71,64
20046,set_tempo,,,,,546,1,0,1200000,,,,,,
20160,control_change,,,,,240,0,2,,,0,64,127,,
20160,note_on,,,,,0,0,2,,,0,,,35,58
20280,note_off,,,,,120,0,2,,,0,,,35,64
20330,control_change,,,,,50,0,2,,,0,64,0,,
20370,note_on,,,,,40,0,2,,,0,,,47,42
20400,note_off,,,,,30,0,2,,,0,,,47,64
20400,control_change,,,,,0,0,2,,,0,64,127,,
20400,note_on,,,,,0,0,2,,,0,,,59,40
20510,control_change,,,,,110,0,2,,,0,64,0,,
20520,note_off,,,,,10,0,2,,,0,,,59,64
20520,note_on,,,,,0,0,2,,,0,,,71,26
20520,control_change,,,,,0,0,2,,,0,64,127,,
20630,control_change,,,,,110,0,2,,,0,64,0,,
20640,note_off,,,,,10,0,2,,,0,,,71,64
20700,note_off,,,,,1020,0,1,,,0,,,75,64
20700,note_off,,,,,0,0,1,,,0,,,78,64
20700,note_off,,,,,0,0,1,,,0,,,83,64
20760,note_on,,,,,60,0,1,,,0,,,81,53
20880,note_on,,,,,0,0,1,,,0,,,68,42
20880,note_on,,,,,0,0,1,,,0,,,76,42
20880,note_on,,,,,0,0,1,,,0,,,80,42
20880,control_change,,,,,240,0,2,,,0,64,127,,
20880,note_on,,,,,0,0,2,,,0,,,37,40
20880,note_on,,,,,0,0,2,,,0,,,49,40
20880,note_off,,,,,120,0,1,,,0,,,81,64
21000,note_off,,,,,0,0,2,,,0,,,37,64
21000,note_off,,,,,120,0,2,,,0,,,49,64
21050,control_change,,,,,50,0,2,,,0,64,0,,
21090,note_on,,,,,40,0,2,,,0,,,49,32
21120,note_on,,,,,0,0,2,,,0,,,61,34
21120,control_change,,,,,0,0,2,,,0,64,127,,
21120,note_off,,,,,30,0,2,,,0,,,49,64
21230,control_change,,,,,110,0,2,,,0,64,0,,
21240,note_on,,,,,0,0,2,,,0,,,73,25
21240,control_change,,,,,0,0,2,,,0,64,127,,
21240,note_off,,,,,10,0,2,,,0,,,61,64
21350,control_change,,,,,110,0,2,,,0,64,0,,
21360,note_off,,,,,10,0,2,,,0,,,73,64
21480,note_off,,,,,0,0,1,,,0,,,80,64
21480,note_off,,,,,0,0,1,,,0,,,76,64
21480,note_off,,,,,600,0,1,,,0,,,68,64
21480,note_on,,,,,0,0,1,,,0,,,64,32
21480,note_on,,,,,0,0,1,,,0,,,68,32
21480,note_on,,,,,0,0,1,,,0,,,76,32
21534,set_tempo,,,,,1488,1,0,1363636,,,,,,
21600,note_on,,,,,0,0,1,,,0,,,66,40
21600,note_on,,,,,0,0,1,,,0,,,69,40
21600,note_off,,,,,120,0,1,,,0,,,64,64
21600,note_on,,,,,0,0,1,,,0,,,75,40
21600,note_off,,,,,0,0,1,,,0,,,68,64
21600,note_on,,,,,0,0,2,,,0,,,42,38
21600,note_on,,,,,0,0,2,,,0,,,30,38
21600,control_change,,,,,240,0,2,,,0,64,127,,
21600,note_off,,,,,0,0,1,,,0,,,76,64
21708,set_tempo,,,,,174,1,0,1200000,,,,,,
21720,note_off,,,,,120,0,2,,,0,,,42,64
21720,note_off,,,,,0,0,2,,,0,,,30,64
21770,control_change,,,,,50,0,2,,,0,64,0,,
21780,note_on,,,,,0,0,1,,,0,,,73,30
21780,note_off,,,,,0,0,1,,,0,,,75,64
21780,note_off,,,,,0,0,1,,,0,,,69,64
21780,note_off,,,,,180,0,1,,,0,,,66,64
21810,note_on,,,,,40,0,2,,,0,,,42,31
21840,control_change,,,,,0,0,2,,,0,64,127,,
21840,note_on,,,,,0,0,2,,,0,,,54,33
21840,note_off,,,,,60,0,1,,,0,,,73,64
21840,note_on,,,,,0,0,1,,,0,,,73,25
21840,note_on,,,,,0,0,1,,,0,,,69,25
21840,note_off,,,,,30,0,2,,,0,,,42,64
21840,note_on,,,,,0,0,1,,,0,,,66,25
21950,control_change,,,,,110,0,2,,,0,64,0,,
21960,note_on,,,,,0,0,2,,,0,,,81,26
21960,control_change,,,,,0,0,2,,,0,64,127,,
21960,note_off,,,,,10,0,2,,,0,,,54,64
22070,control_change,,,,,110,0,2,,,0,64,0,,
22080,note_off,,,,,10,0,2,,,0,,,81,64
22140,note_off,,,,,0,0,1,,,0,,,69,64
22140,note_off,,,,,0,0,1,,,0,,,73,64
22140,note_off,,,,,300,0,1,,,0,,,66,64
22200,note_on,,,,,60,0,1,,,0,,,73,30
22200,note_on,,,,,0,0,1,,,0,,,69,30
22200,note_on,,,,,0,0,1,,,0,,,63,30
22268,set_tempo,,,,,560,1,0,1363636,,,,,,
22320,note_on,,,,,0,0,2,,,0,,,44,38
22320,note_off,,,,,120,0,1,,,0,,,63,64
22320,note_on,,,,,0,0,2,,,0,,,32,38
22320,note_off,,,,,0,0,1,,,0,,,73,64
22320,note_on,,,,,0,0,1,,,0,,,73,39
22320,note_on,,,,,0,0,1,,,0,,,68,39
22320,note_on,,,,,0,0,1,,,0,,,64,39
22320,note_off,,,,,0,0,1,,,0,,,69,64
22320,control_change,,,,,240,0,2,,,0,64,127,,
22394,set_tempo,,,,,126,1,0,1200000,,,,,,
22440,note_off,,,,,0,0,2,,,0,,,32,64
22440,note_off,,,,,120,0,2,,,0,,,44,64
22490,control_change,,,,,50,0,2,,,0,64,0,,
22530,note_on,,,,,40,0,2,,,0,,,44,34
22560,control_change,,,,,0,0,2,,,0,64,127,,
22560,note_off,,,,,30,0,2,,,0,,,44,64
22560,note_on,,,,,0,0,2,,,0,,,56,37
22560,note_on,,,,,0,0,1,,,0,,,71,36
22560,note_off,,,,,240,0,1,,,0,,,73,64
22670,control_change,,,,,110,0,2,,,0,64,0,,
22680,note_on,,,,,0,0,2,,,0,,,80,26
22680,control_change,,,,,0,0,2,,,0,64,127,,
22680,note_off,,,,,10,0,2,,,0,,,56,64
22790,control_change,,,,,110,0,2,,,0,64,0,,
22800,note_off,,,,,10,0,2,,,0,,,80,64
22800,note_off,,,,,240,0,1,,,0,,,64,64
22800,note_on,,,,,0,0,1,,,0,,,60,37
22920,note_on,,,,,0,0,1,,,0,,,66,32
22920,note_on,,,,,0,0,1,,,0,,,69,32
22920,note_off,,,,,0,0,1,,,0,,,68,64
22920,note_off,,,,,120,0,1,,,0,,,71,64
23008,set_tempo,,,,,614,1,0,1333333,,,,,,
23040,note_off,,,,,0,0,1,,,0,,,69,64
23040,note_on,,,,,0,0,1,,,0,,,61,35
23040,note_on,,,,,0,0,1,,,0,,,68,35
23040,note_off,,,,,0,0,1,,,0,,,60,64
23040,note_off,,,,,120,0,1,,,0,,,66,64
23040,control_change,,,,,240,0,2,,,0,64,127,,
23040,note_on,,,,,0,0,1,,,0,,,64,35
23040,note_on,,,,,0,0,2,,,0,,,37,31
23154,set_tempo,,,,,146,1,0,1200000,,,,,,
23160,note_off,,,,,120,0,2,,,0,,,37,64
23210,control_change,,,,,50,0,2,,,0,64,0,,
23250,note_on,,,,,40,0,2,,,0,,,37,23
23280,note_on,,,,,0,0,1,,,0,,,56,20
23280,note_on,,,,,0,0,2,,,0,,,49,25
23280,control_change,,,,,0,0,2,,,0,64,127,,
23280,note_off,,,,,30,0,2,,,0,,,37,64
23280,note_off,,,,,240,0,1,,,0,,,61,64
23280,note_off,,,,,0,0,1,,,0,,,68,64
23280,note_on,,,,,0,0,1,,,0,,,64,20
23280,note_on,,,,,0,0,1,,,0,,,61,20
23280,note_off,,,,,0,0,1,,,0,,,64,64
23390,control_change,,,,,110,0,2,,,0,64,0,,
23400,control_change,,,,,0,0,2,,,0,64,127,,
23400,note_on,,,,,0,0,2,,,0,,,73,20
23400,note_off,,,,,10,0,2,,,0,,,49,64
23510,control_change,,,,,110,0,2,,,0,64,0,,
23520,note_off,,,,,10,0,2,,,0,,,73,64
23640,note_off,,,,,360,0,1,,,0,,,56,64
23640,note_on,,,,,0,0,1,,,0,,,61,26
23640,note_on,,,,,0,0,1,,,0,,,64,26
23640,note_off,,,,,0,0,1,,,0,,,64,64
23640,note_off,,,,,0,0,1,,,0,,,61,64
23640,note_on,,,,,0,0,1,,,0,,,56,26
23712,set_tempo,,,,,558,1,0,1333333,,,,,,
23760,note_off,,,,,120,0,1,,,0,,,56,64
23760,note_on,,,,,0,0,1,,,0,,,61,38
23760,note_off,,,,,0,0,1,,,0,,,64,64
23760,note_off,,,,,0,0,1,,,0,,,61,64
23760,control_change,,,,,240,0,2,,,0,64,127,,
23760,note_on,,,,,0,0,2,,,0,,,45,40
23760,note_on,,,,,0,0,2,,,0,,,33,40
23760,note_on,,,,,0,0,1,,,0,,,55,38
23760,note_on,,,,,0,0,1,,,0,,,64,38
23820,set_tempo,,,,,108,1,0,1200000,,,,,,
23880,note_off,,,,,120,0,2,,,0,,,33,64
23880,note_off,,,,,0,0,2,,,0,,,45,64
23930,control_change,,,,,50,0,2,,,0,64,0,,
23940,note_on,,,,,0,0,1,,,0,,,63,33
23940,note_off,,,,,180,0,1,,,0,,,64,64
24000,note_on,,,,,0,0,1,,,0,,,55,31
24000,note_on,,,,,0,0,2,,,0,,,69,37
24000,control_change,,,,,70,0,2,,,0,64,127,,
24000,note_off,,,,,60,0,1,,,0,,,63,64
24000,note_on,,,,,0,0,1,,,0,,,63,31
24000,note_off,,,,,0,0,1,,,0,,,61,64
24000,note_off,,,,,0,0,1,,,0,,,55,64
24000,note_on,,,,,0,0,1,,,0,,,61,31
24084,note_off,,,,,84,0,2,,,0,,,69,64
24110,control_change,,,,,26,0,2,,,0,64,0,,
24120,control_change,,,,,10,0,2,,,0,64,127,,
24120,note_on,,,,,0,0,2,,,0,,,81,33
24204,note_off,,,,,84,0,2,,,0,,,81,64
24230,control_change,,,,,26,0,2,,,0,64,0,,
24300,note_off,,,,,300,0,1,,,0,,,55,64
24300,note_off,,,,,0,0,1,,,0,,,61,64
24300,note_off,,,,,0,0,1,,,0,,,63,64
24360,note_on,,,,,60,0,1,,,0,,,63,38
24360,note_on,,,,,0,0,1,,,0,,,61,38
24360,note_on,,,,,0,0,1,,,0,,,55,38
24406,set_tempo,,,,,586,1,0,1333333,,,,,,
24480,note_on,,,,,0,0,2,,,0,,,45,54
24480,note_off,,,,,120,0,1,,,0,,,55,64
24480,note_off,,,,,0,0,1,,,0,,,61,64
24480,note_off,,,,,0,0,1,,,0,,,63,64
24480,note_on,,,,,0,0,1,,,0,,,64,50
24480,note_on,,,,,0,0,1,,,0,,,61,50
24480,note_on,,,,,0,0,1,,,0,,,54,50
24480,note_on,,,,,0,0,2,,,0,,,33,54
24480,control_change,,,,,250,0,2,,,0,64,127,,
24586,set_tempo,,,,,180,1,0,1200000,,,,,,
24600,note_off,,,,,120,0,2,,,0,,,45,64
24600,note_off,,,,,0,0,2,,,0,,,33,64
24650,control_change,,,,,50,0,2,,,0,64,0,,
24660,note_off,,,,,180,0,1,,,0,,,64,64
24660,note_on,,,,,0,0,1,,,0,,,63,40
24720,control_change,,,,,70,0,2,,,0,64,127,,
24720,note_on,,,,,0,0,2,,,0,,,69,44
24720,note_on,,,,,0,0,1,,,0,,,63,37
24720,note_on,,,,,0,0,1,,,0,,,61,37
24720,note_on,,,,,0,0,1,,,0,,,54,37
24720,note_off,,,,,60,0,1,,,0,,,63,64
24720,note_off,,,,,0,0,1,,,0,,,54,64
24720,note_off,,,,,0,0,1,,,0,,,61,64
24804,note_off,,,,,84,0,2,,,0,,,69,64
24830,control_change,,,,,26,0,2,,,0,64,0,,
24840,note_on,,,,,0,0,2,,,0,,,81,37
24840,control_change,,,,,10,0,2,,,0,64,127,,
24924,note_off,,,,,84,0,2,,,0,,,81,64
24950,control_change,,,,,26,0,2,,,0,64,0,,
25020,note_off,,,,,300,0,1,,,0,,,54,64
25020,note_off,,,,,0,0,1,,,0,,,61,64
25020,note_off,,,,,0,0,1,,,0,,,63,64
25080,note_on,,,,,60,0,1,,,0,,,63,32
25080,note_on,,,,,0,0,1,,,0,,,61,32
25080,note_on,,,,,0,0,1,,,0,,,54,32
25146,set_tempo,,,,,560,1,0,1333333,,,,,,
25200,note_off,,,,,0,0,1,,,0,,,63,64
25200,note_off,,,,,0,0,1,,,0,,,61,64
25200,note_off,,,,,120,0,1,,,0,,,54,64
25200,note_on,,,,,0,0,1,,,0,,,54,32
25200,note_on,,,,,0,0,1,,,0,,,60,32
25200,note_on,,,,,0,0,2,,,0,,,32,37
25200,note_on,,,,,0,0,2,,,0,,,44,37
25200,control_change,,,,,250,0,2,,,0,64,127,,
25200,note_on,,,,,0,0,1,,,0,,,63,32
25320,note_off,,,,,120,0,2,,,0,,,32,64
25320,note_off,,,,,0,0,2,,,0,,,44,64
25332,set_tempo,,,,,186,1,0,1304348,,,,,,
25360,set_tempo,,,,,28,1,0,1276596,,,,,,
25370,control_change,,,,,50,0,2,,,0,64,0,,
25392,set_tempo,,,,,32,1,0,1250000,,,,,,
25412,set_tempo,,,,,20,1,0,1224490,,,,,,
25440,note_off,,,,,240,0,1,,,0,,,63,64
25440,control_change,,,,,70,0,2,,,0,64,127,,
25440,note_on,,,,,0,0,2,,,0,,,68,29
25440,set_tempo,,,,,28,1,0,1200000,,,,,,
25524,note_off,,,,,84,0,2,,,0,,,68,64
25550,control_change,,,,,26,0,2,,,0,64,0,,
25560,note_on,,,,,0,0,2,,,0,,,80,27
25560,control_change,,,,,10,0,2,,,0,64,127,,
25560,note_off,,,,,120,0,1,,,0,,,54,64
25560,note_off,,,,,0,0,1,,,0,,,60,64
25560,note_on,,,,,0,0,1,,,0,,,64,31
25620,note_off,,,,,60,0,1,,,0,,,64,64
25620,note_on,,,,,0,0,1,,,0,,,66,33
25626,set_tempo,,,,,186,1,0,1224490,,,,,,
25644,note_off,,,,,84,0,2,,,0,,,80,64
25670,control_change,,,,,26,0,2,,,0,64,0,,
25680,note_off,,,,,60,0,1,,,0,,,66,64
25680,note_on,,,,,0,0,1,,,0,,,68,35
25692,set_tempo,,,,,66,1,0,1250000,,,,,,
25720,set_tempo,,,,,28,1,0,1276596,,,,,,
25766,set_tempo,,,,,46,1,0,1304348,,,,,,
25800,note_off,,,,,120,0,1,,,0,,,68,64
25800,note_on,,,,,0,0,1,,,0,,,63,30
25800,note_on,,,,,0,0,1,,,0,,,57,30
25800,note_on,,,,,0,0,1,,,0,,,60,30
25832,set_tempo,,,,,66,1,0,1333333,,,,,,
25920,note_off,,,,,0,0,1,,,0,,,60,64
25920,note_off,,,,,0,0,1,,,0,,,63,64
25920,note_on,,,,,0,0,1,,,0,,,64,26
25920,note_on,,,,,0,0,1,,,0,,,61,26
25920,note_on,,,,,0,0,1,,,0,,,56,26
25920,note_on,,,,,0,0,2,,,0,,,37,35
25920,note_off,,,,,120,0,1,,,0,,,57,64
25920,control_change,,,,,250,0,2,,,0,64,127,,
25992,set_tempo,,,,,160,1,0,1200000,,,,,,
26040,note_off,,,,,120,0,2,,,0,,,37,64
26090,control_change,,,,,50,0,2,,,0,64,0,,
26160,note_on,,,,,0,0,2,,,0,,,49,28
26160,control_change,,,,,70,0,2,,,0,64,127,,
26244,note_off,,,,,84,0,2,,,0,,,49,64
26270,control_change,,,,,26,0,2,,,0,64,0,,
26280,note_on,,,,,0,0,2,,,0,,,73,27
26280,control_change,,,,,10,0,2,,,0,64,127,,
26364,note_off,,,,,84,0,2,,,0,,,73,64
26390,control_change,,,,,26,0,2,,,0,64,0,,
26460,note_off,,,,,540,0,1,,,0,,,56,64
26460,note_off,,,,,0,0,1,,,0,,,61,64
26460,note_off,,,,,0,0,1,,,0,,,64,64
26520,note_on,,,,,0,0,1,,,0,,,56,26
26520,note_on,,,,,60,0,1,,,0,,,64,26
26520,note_on,,,,,0,0,1,,,0,,,61,26
26572,set_tempo,,,,,580,1,0,1333333,,,,,,
26640,note_off,,,,,120,0,1,,,0,,,56,64
26640,note_off,,,,,0,0,1,,,0,,,61,64
26640,note_off,,,,,0,0,1,,,0,,,64,64
26640,note_on,,,,,0,0,1,,,0,,,64,38
26640,note_on,,,,,0,0,1,,,0,,,61,38
26640,note_on,,,,,0,0,1,,,0,,,55,38
26640,note_on,,,,,0,0,2,,,0,,,33,29
26640,control_change,,,,,250,0,2,,,0,64,127,,
26746,set_tempo,,,,,174,1,0,1200000,,,,,,
26760,note_off,,,,,120,0,2,,,0,,,33,64
26810,control_change,,,,,50,0,2,,,0,64,0,,
26820,note_off,,,,,180,0,1,,,0,,,64,64
26820,note_on,,,,,0,0,1,,,0,,,63,33
26880,note_off,,,,,0,0,1,,,0,,,61,64
26880,note_on,,,,,0,0,1,,,0,,,63,31
26880,note_on,,,,,0,0,1,,,0,,,61,31
26880,note_on,,,,,0,0,1,,,0,,,55,31
26880,note_off,,,,,60,0,1,,,0,,,63,64
26880,note_on,,,,,0,0,2,,,0,,,45,29
26880,control_change,,,,,70,0,2,,,0,64,127,,
26880,note_off,,,,,0,0,1,,,0,,,55,64
26964,note_off,,,,,84,0,2,,,0,,,45,64
26990,control_change,,,,,26,0,2,,,0,64,0,,
27000,control_change,,,,,10,0,2,,,0,64,127,,
27000,note_on,,,,,0,0,2,,,0,,,69,21
27084,note_off,,,,,84,0,2,,,0,,,69,64
27110,control_change,,,,,26,0,2,,,0,64,0,,
27180,note_off,,,,,300,0,1,,,0,,,55,64
27180,note_off,,,,,0,0,1,,,0,,,63,64
27180,note_off,,,,,0,0,1,,,0,,,61,64
27240,note_on,,,,,0,0,1,,,0,,,55,28
27240,note_on,,,,,0,0,1,,,0,,,61,28
27240,note_on,,,,,60,0,1,,,0,,,63,28
27286,set_tempo,,,,,540,1,0,1333333,,,,,,
27360,note_off,,,,,0,0,1,,,0,,,63,64
27360,note_on,,,,,0,0,1,,,0,,,54,32
27360,note_on,,,,,0,0,1,,,0,,,61,32
27360,note_on,,,,,0,0,1,,,0,,,64,32
27360,note_off,,,,,120,0,1,,,0,,,55,64
27360,note_on,,,,,0,0,2,,,0,,,33,37
27360,control_change,,,,,250,0,2,,,0,64,127,,
27360,note_off,,,,,0,0,1,,,0,,,61,64
27440,set_tempo,,,,,154,1,0,1200000,,,,,,
27480,note_off,,,,,120,0,2,,,0,,,33,64
27530,control_change,,,,,50,0,2,,,0,64,0,,
27540,note_on,,,,,0,0,1,,,0,,,63,30
27540,note_off,,,,,180,0,1,,,0,,,64,64
27600,note_on,,,,,0,0,1,,,0,,,54,28
27600,note_on,,,,,0,0,1,,,0,,,61,28
27600,note_on,,,,,0,0,1,,,0,,,63,28
27600,note_off,,,,,0,0,1,,,0,,,61,64
27600,note_off,,,,,0,0,1,,,0,,,54,64
27600,control_change,,,,,70,0,2,,,0,64,127,,
27600,note_on,,,,,0,0,2,,,0,,,45,29
27600,note_off,,,,,60,0,1,,,0,,,63,64
27684,note_off,,,,,84,0,2,,,0,,,45,64
27710,control_change,,,,,26,0,2,,,0,64,0,,
27720,control_change,,,,,10,0,2,,,0,64,127,,
27720,note_on,,,,,0,0,2,,,0,,,69,25
27804,note_off,,,,,84,0,2,,,0,,,69,64
27830,control_change,,,,,26,0,2,,,0,64,0,,
27900,note_off,,,,,0,0,1,,,0,,,63,64
27900,note_off,,,,,0,0,1,,,0,,,61,64
27900,note_off,,,,,300,0,1,,,0,,,54,64
27960,note_on,,,,,0,0,1,,,0,,,61,35
27960,note_on,,,,,60,0,1,,,0,,,63,35
27960,note_on,,,,,0,0,1,,,0,,,54,35
27986,set_tempo,,,,,546,1,0,1333333,,,,,,
28080,note_off,,,,,120,0,1,,,0,,,54,64
28080,note_off,,,,,0,0,1,,,0,,,61,64
28080,note_off,,,,,0,0,1,,,0,,,63,64
28080,note_on,,,,,0,0,1,,,0,,,54,38
28080,note_on,,,,,0,0,1,,,0,,,63,38
28080,note_on,,,,,0,0,1,,,0,,,60,38
28080,control_change,,,,,250,0,2,,,0,64,127,,
28080,note_on,,,,,0,0,2,,,0,,,32,32
28186,set_tempo,,,,,200,1,0,1304348,,,,,,
28200,note_off,,,,,120,0,2,,,0,,,32,64
28240,set_tempo,,,,,54,1,0,1276596,,,,,,
28250,control_change,,,,,50,0,2,,,0,64,0,,
28272,set_tempo,,,,,32,1,0,1250000,,,,,,
28320,note_on,,,,,0,0,2,,,0,,,44,29
28320,control_change,,,,,70,0,2,,,0,64,127,,
28320,note_off,,,,,240,0,1,,,0,,,63,64
28326,set_tempo,,,,,54,1,0,1224490,,,,,,
28430,control_change,,,,,110,0,2,,,0,64,0,,
28440,note_off,,,,,0,0,1,,,0,,,60,64
28440,control_change,,,,,0,0,2,,,0,64,127,,
28440,note_on,,,,,0,0,2,,,0,,,56,25
28440,note_off,,,,,120,0,1,,,0,,,54,64
28440,note_off,,,,,10,0,2,,,0,,,44,64
28440,note_on,,,,,0,0,1,,,0,,,64,29
28500,set_tempo,,,,,174,1,0,1250000,,,,,,
28500,note_on,,,,,0,0,1,,,0,,,66,34
28500,note_off,,,,,60,0,1,,,0,,,64,64
28550,control_change,,,,,110,0,2,,,0,64,0,,
28560,note_off,,,,,60,0,1,,,0,,,66,64
28560,note_on,,,,,0,0,1,,,0,,,68,37
28560,note_off,,,,,10,0,2,,,0,,,56,64
28586,set_tempo,,,,,86,1,0,1276596,,,,,,
28680,note_on,,,,,0,0,1,,,0,,,60,26
28680,note_on,,,,,0,0,1,,,0,,,57,26
28680,note_on,,,,,0,0,1,,,0,,,54,26
28680,note_off,,,,,120,0,1,,,0,,,68,64
28680,set_tempo,,,,,94,1,0,1304348,,,,,,
28800,control_change,,,,,240,0,2,,,0,64,127,,
28800,note_on,,,,,0,0,1,,,0,,,52,22
28800,note_on,,,,,0,0,2,,,0,,,37,36
28800,note_on,,,,,0,0,1,,,0,,,61,22
28800,note_on,,,,,0,0,1,,,0,,,56,22
28800,note_off,,,,,120,0,1,,,0,,,54,64
28800,note_off,,,,,0,0,1,,,0,,,60,64
28800,note_off,,,,,0,0,1,,,0,,,57,64
28826,set_tempo,,,,,146,1,0,1333333,,,,,,
28920,note_off,,,,,120,0,2,,,0,,,37,64
28932,set_tempo,,,,,106,1,0,1363636,,,,,,
28970,control_change,,,,,50,0,2,,,0,64,0,,
29040,note_on,,,,,0,0,2,,,0,,,49,29
29040,control_change,,,,,70,0,2,,,0,64,127,,
29150,control_change,,,,,110,0,2,,,0,64,0,,
29160,note_on,,,,,0,0,2,,,0,,,73,24
29160,control_change,,,,,0,0,2,,,0,64,127,,
29160,note_off,,,,,10,0,2,,,0,,,49,64
29270,control_change,,,,,110,0,2,,,0,64,0,,
29280,note_off,,,,,10,0,2,,,0,,,73,64
29340,note_off,,,,,0,0,1,,,0,,,56,64
29340,note_off,,,,,540,0,1,,,0,,,52,64
29340,note_off,,,,,0,0,1,,,0,,,61,64
29520,note_on,,,,,0,0,2,,,0,,,37,29
29520,control_change,,,,,240,0,2,,,0,64,127,,
29640,note_off,,,,,120,0,2,,,0,,,37,64
29690,control_change,,,,,50,0,2,,,0,64,0,,
29760,note_on,,,,,0,0,2,,,0,,,49,26
29760,control_change,,,,,70,0,2,,,0,64,127,,
29870,control_change,,,,,110,0,2,,,0,64,0,,
29880,note_off,,,,,10,0,2,,,0,,,49,64
29880,control_change,,,,,0,0,2,,,0,64,127,,
29880,note_on,,,,,0,0,2,,,0,,,73,22
29886,set_tempo,,,,,954,1,0,1333333,,,,,,
29990,control_change,,,,,110,0,2,,,0,64,0,,
30000,note_off,,,,,10,0,2,,,0,,,73,64
30000,set_tempo,,,,,114,1,0,2727273,,,,,,
30120,note_on,,,,,120,0,2,,,0,,,32,38
30120,set_tempo,,,,,120,1,0,1428571,,,,,,
30240,note_on,,,,,900,0,1,,,0,,,57,27
30240,note_off,,,,,120,0,2,,,0,,,32,64
30240,control_change,,,,,0,0,2,,,0,64,127,,
30240,note_on,,,,,0,0,2,,,0,,,33,37
30240,note_on,,,,,0,0,1,,,0,,,49,27
30240,note_on,,,,,0,0,1,,,0,,,52,27
30240,marker,,,,,120,1,0,,,,,,,
30246,set_tempo,,,,,6,1,0,1333333,,,,,,
30300,note_on,,,,,0,0,2,,,0,,,45,35
30300,note_off,,,,,60,0,2,,,0,,,33,64
30326,set_tempo,,,,,80,1,0,1304348,,,,,,
30342,note_off,,,,,42,0,2,,,0,,,45,64
30360,note_on,,,,,18,0,2,,,0,,,45,33
30390,control_change,,,,,30,0,2,,,0,64,0,,
30402,note_off,,,,,12,0,2,,,0,,,45,64
30412,set_tempo,,,,,86,1,0,1276596,,,,,,
30420,note_on,,,,,18,0,2,,,0,,,45,29
30452,set_tempo,,,,,40,1,0,1250000,,,,,,
30462,note_off,,,,,42,0,2,,,0,,,45,64
30480,note_off,,,,,240,0,1,,,0,,,49,64
30480,note_off,,,,,0,0,1,,,0,,,52,64
30480,note_off,,,,,0,0,1,,,0,,,57,64
30480,note_on,,,,,0,0,1,,,0,,,57,36
30480,note_on,,,,,0,0,1,,,0,,,49,36
30480,note_on,,,,,18,0,2,,,0,,,33,39
30480,control_change,,,,,0,0,2,,,0,64,127,,
30540,note_off,,,,,60,0,2,,,0,,,33,64
30540,note_on,,,,,0,0,2,,,0,,,45,36
30582,note_off,,,,,42,0,2,,,0,,,45,64
30600,note_on,,,,,18,0,2,,,0,,,45,33
30630,control_change,,,,,30,0,2,,,0,64,0,,
30642,note_off,,,,,12,0,2,,,0,,,45,64
30660,note_on,,,,,18,0,2,,,0,,,45,29
30702,note_off,,,,,42,0,2,,,0,,,45,64
30720,note_on,,,,,0,0,1,,,0,,,59,43
30720,note_off,,,,,0,0,1,,,0,,,57,64
30720,note_off,,,,,240,0,1,,,0,,,49,64
30720,note_on,,,,,0,0,1,,,0,,,57,43
30720,note_on,,,,,0,0,1,,,0,,,50,43
30720,control_change,,,,,0,0,2,,,0,64,127,,
30720,note_on,,,,,18,0,2,,,0,,,33,46
30780,note_off,,,,,60,0,2,,,0,,,33,64
30780,note_on,,,,,0,0,2,,,0,,,45,43
30822,note_off,,,,,42,0,2,,,0,,,45,64
30840,note_on,,,,,18,0,2,,,0,,,45,40
30870,control_change,,,,,30,0,2,,,0,64,0,,
30880,set_tempo,,,,,428,1,0,1363636,,,,,,
30882,note_off,,,,,12,0,2,,,0,,,45,64
30900,note_on,,,,,18,0,2,,,0,,,45,37
30942,note_off,,,,,42,0,2,,,0,,,45,64
30960,note_on,,,,,0,0,1,,,0,,,61,47
30960,note_off,,,,,0,0,1,,,0,,,59,64
30960,note_off,,,,,0,0,1,,,0,,,57,64
30960,note_off,,,,,240,0,1,,,0,,,50,64
30960,note_on,,,,,0,0,1,,,0,,,57,47
30960,note_on,,,,,18,0,2,,,0,,,33,50
30960,note_on,,,,,0,0,1,,,0,,,52,47
30960,control_change,,,,,0,0,2,,,0,64,127,,
31020,note_on,,,,,0,0,2,,,0,,,45,49
31020,note_off,,,,,60,0,2,,,0,,,33,64
31040,set_tempo,,,,,160,1,0,1250000,,,,,,
31062,note_off,,,,,42,0,2,,,0,,,45,64
31080,note_on,,,,,18,0,2,,,0,,,45,47
31110,control_change,,,,,30,0,2,,,0,64,0,,
31122,note_off,,,,,12,0,2,,,0,,,45,64
31140,note_on,,,,,0,0,1,,,0,,,57,42
31140,note_on,,,,,0,0,1,,,0,,,50,42
31140,note_off,,,,,0,0,1,,,0,,,61,64
31140,note_off,,,,,0,0,1,,,0,,,57,64
31140,note_off,,,,,180,0,1,,,0,,,52,64
31140,note_on,,,,,18,0,2,,,0,,,45,42
31140,note_on,,,,,0,0,1,,,0,,,59,42
31182,note_off,,,,,42,0,2,,,0,,,45,64
31200,note_off,,,,,60,0,1,,,0,,,50,64
31200,note_off,,,,,0,0,1,,,0,,,57,64
31200,note_off,,,,,0,0,1,,,0,,,59,64
31200,note_on,,,,,0,0,1,,,0,,,57,40
31200,note_on,,,,,0,0,1,,,0,,,49,40
31200,note_on,,,,,0,0,2,,,0,,,45,41
31200,control_change,,,,,18,0,2,,,0,64,127,,
31232,set_tempo,,,,,192,1,0,1276596,,,,,,
31260,note_off,,,,,60,0,2,,,0,,,45,64
31260,note_on,,,,,0,0,2,,,0,,,45,38
31302,note_off,,,,,42,0,2,,,0,,,45,64
31320,note_on,,,,,18,0,2,,,0,,,45,35
31350,control_change,,,,,30,0,2,,,0,64,0,,
31362,note_off,,,,,12,0,2,,,0,,,45,64
31380,note_on,,,,,18,0,2,,,0,,,45,35
31380,set_tempo,,,,,148,1,0,1304348,,,,,,
31422,note_off,,,,,42,0,2,,,0,,,45,64
31440,note_on,,,,,0,0,2,,,0,,,33,35
31440,control_change,,,,,18,0,2,,,0,64,127,,
31500,note_on,,,,,0,0,2,,,0,,,45,45
31500,note_off,,,,,300,0,1,,,0,,,49,64
31500,note_off,,,,,60,0,2,,,0,,,33,64
31500,note_off,,,,,0,0,1,,,0,,,57,64
31542,note_off,,,,,42,0,2,,,0,,,45,64
31560,note_on,,,,,60,0,1,,,0,,,61,46
31560,note_on,,,,,0,0,1,,,0,,,57,46
31560,note_on,,,,,0,0,1,,,0,,,52,46
31560,note_on,,,,,18,0,2,,,0,,,45,43
31580,set_tempo,,,,,200,1,0,1333333,,,,,,
31590,control_change,,,,,30,0,2,,,0,64,0,,
31602,note_off,,,,,12,0,2,,,0,,,45,64
31620,note_off,,,,,60,0,1,,,0,,,52,64
31620,note_off,,,,,0,0,1,,,0,,,57,64
31620,note_on,,,,,18,0,2,,,0,,,45,49
31662,note_off,,,,,42,0,2,,,0,,,45,64
31680,note_on,,,,,0,0,1,,,0,,,57,52
31680,note_on,,,,,0,0,1,,,0,,,62,52
31680,note_off,,,,,60,0,1,,,0,,,61,64
31680,control_change,,,,,0,0,2,,,0,64,127,,
31680,note_on,,,,,18,0,2,,,0,,,33,51
31680,note_on,,,,,0,0,1,,,0,,,54,52
31740,note_on,,,,,0,0,2,,,0,,,45,48
31740,note_off,,,,,60,0,2,,,0,,,33,64
31780,set_tempo,,,,,200,1,0,1304348,,,,,,
31782,note_off,,,,,42,0,2,,,0,,,45,64
31800,note_on,,,,,18,0,2,,,0,,,45,45
31826,set_tempo,,,,,46,1,0,1276596,,,,,,
31830,control_change,,,,,30,0,2,,,0,64,0,,
31832,set_tempo,,,,,6,1,0,1250000,,,,,,
31842,note_off,,,,,12,0,2,,,0,,,45,64
31846,set_tempo,,,,,14,1,0,1224490,,,,,,
31860,note_on,,,,,0,0,1,,,0,,,52,44
31860,note_on,,,,,0,0,1,,,0,,,61,44
31860,note_off,,,,,0,0,1,,,0,,,62,64
31860,note_off,,,,,180,0,1,,,0,,,54,64
31860,note_on,,,,,18,0,2,,,0,,,45,40
31902,note_off,,,,,42,0,2,,,0,,,45,64
31906,set_tempo,,,,,60,1,0,1200000,,,,,,
31920,note_on,,,,,0,0,1,,,0,,,59,35
31920,note_off,,,,,0,0,1,,,0,,,57,64
31920,note_off,,,,,0,0,1,,,0,,,61,64
31920,note_off,,,,,60,0,1,,,0,,,52,64
31920,note_on,,,,,18,0,2,,,0,,,45,47
31920,control_change,,,,,0,0,2,,,0,64,127,,
31920,note_on,,,,,0,0,1,,,0,,,57,35
31920,note_on,,,,,0,0,1,,,0,,,50,35
31980,note_off,,,,,60,0,2,,,0,,,45,64
31980,note_on,,,,,0,0,2,,,0,,,45,45
31992,set_tempo,,,,,86,1,0,1224490,,,,,,
32022,note_off,,,,,42,0,2,,,0,,,45,64
32040,note_off,,,,,120,0,1,,,0,,,50,64
32040,note_off,,,,,0,0,1,,,0,,,59,64
32040,note_on,,,,,0,0,1,,,0,,,62,38
32040,note_on,,,,,0,0,1,,,0,,,57,38
32040,note_on,,,,,0,0,1,,,0,,,54,38
32040,note_off,,,,,0,0,1,,,0,,,57,64
32040,note_on,,,,,18,0,2,,,0,,,33,42
32070,control_change,,,,,30,0,2,,,0,64,0,,
32072,set_tempo,,,,,80,1,0,1250000,,,,,,
32082,note_off,,,,,12,0,2,,,0,,,33,64
32100,note_on,,,,,18,0,2,,,0,,,45,43
32142,note_off,,,,,42,0,2,,,0,,,45,64
32160,note_off,,,,,120,0,1,,,0,,,54,64
32160,note_off,,,,,0,0,1,,,0,,,57,64
32160,note_off,,,,,0,0,1,,,0,,,62,64
32160,control_change,,,,,18,0,2,,,0,64,127,,
32160,note_on,,,,,0,0,2,,,0,,,33,49
32160,note_on,,,,,0,0,1,,,0,,,57,33
32160,note_on,,,,,0,0,1,,,0,,,61,33
32160,note_on,,,,,0,0,1,,,0,,,52,33
32172,set_tempo,,,,,100,1,0,1276596,,,,,,
32220,note_on,,,,,0,0,2,,,0,,,45,38
32220,note_off,,,,,60,0,2,,,0,,,33,64
32262,note_off,,,,,42,0,2,,,0,,,45,64
32280,note_on,,,,,18,0,2,,,0,,,37,35
32280,note_off,,,,,120,0,1,,,0,,,52,64
32280,note_off,,,,,0,0,1,,,0,,,57,64
32280,note_off,,,,,0,0,1,,,0,,,61,64
32280,note_on,,,,,0,0,1,,,0,,,57,39
32280,note_on,,,,,0,0,1,,,0,,,52,39
32280,note_on,,,,,0,0,1,,,0,,,49,39
32292,set_tempo,,,,,120,1,0,1304348,,,,,,
32310,control_change,,,,,30,0,2,,,0,64,0,,
32322,note_off,,,,,12,0,2,,,0,,,37,64
32340,note_on,,,,,18,0,2,,,0,,,49,34
32382,note_off,,,,,42,0,2,,,0,,,49,64
32400,note_off,,,,,0,0,1,,,0,,,57,64
32400,note_off,,,,,0,0,1,,,0,,,52,64
32400,note_off,,,,,120,0,1,,,0,,,49,64
32400,note_on,,,,,0,0,1,,,0,,,47,45
32400,note_on,,,,,18,0,2,,,0,,,40,38
32400,control_change,,,,,0,0,2,,,0,64,127,,
32400,note_on,,,,,0,0,1,,,0,,,56,45
32400,note_on,,,,,0,0,1,,,0,,,52,45
32432,set_tempo,,,,,140,1,0,1276596,,,,,,
32460,note_on,,,,,0,0,2,,,0,,,40,27
32460,note_off,,,,,60,0,2,,,0,,,40,64
32502,note_off,,,,,42,0,2,,,0,,,40,64
32512,set_tempo,,,,,80,1,0,1250000,,,,,,
32520,note_on,,,,,18,0,2,,,0,,,40,32
32550,control_change,,,,,30,0,2,,,0,64,0,,
32562,note_off,,,,,12,0,2,,,0,,,40,64
32580,note_on,,,,,18,0,2,,,0,,,40,34
32622,note_off,,,,,42,0,2,,,0,,,40,64
32640,note_on,,,,,18,0,2,,,0,,,40,37
32684,note_off,,,,,44,0,2,,,0,,,40,64
32700,note_off,,,,,0,0,1,,,0,,,56,64
32700,note_off,,,,,0,0,1,,,0,,,52,64
32700,note_off,,,,,300,0,1,,,0,,,47,64
32700,note_on,,,,,16,0,2,,,0,,,40,38
32742,note_off,,,,,42,0,2,,,0,,,40,64
32760,note_on,,,,,0,0,1,,,0,,,54,46
32760,note_on,,,,,60,0,1,,,0,,,56,46
32760,note_on,,,,,0,0,1,,,0,,,47,46
32760,note_on,,,,,18,0,2,,,0,,,38,35
32802,note_off,,,,,42,0,2,,,0,,,38,64
32820,note_on,,,,,18,0,2,,,0,,,38,38
32852,set_tempo,,,,,340,1,0,1276596,,,,,,
32862,note_off,,,,,0,0,1,,,0,,,56,64
32862,note_off,,,,,102,0,1,,,0,,,47,64
32862,note_off,,,,,0,0,1,,,0,,,54,64
32862,note_off,,,,,42,0,2,,,0,,,38,64
32880,note_on,,,,,18,0,2,,,0,,,37,48
32880,note_on,,,,,0,0,1,,,0,,,49,42
32880,note_on,,,,,0,0,1,,,0,,,52,42
32880,note_on,,,,,18,0,1,,,0,,,56,42
32924,note_off,,,,,44,0,2,,,0,,,37,64
32940,note_on,,,,,16,0,2,,,0,,,37,41
32972,set_tempo,,,,,120,1,0,1304348,,,,,,
32982,note_off,,,,,42,0,2,,,0,,,37,64
32982,note_off,,,,,0,0,1,,,0,,,56,64
32982,note_off,,,,,0,0,1,,,0,,,52,64
32982,note_off,,,,,102,0,1,,,0,,,49,64
33000,note_on,,,,,18,0,1,,,0,,,56,35
33000,note_on,,,,,0,0,1,,,0,,,52,35
33000,note_on,,,,,0,0,1,,,0,,,50,35
33000,note_on,,,,,18,0,2,,,0,,,35,38
33026,set_tempo,,,,,54,1,0,1333333,,,,,,
33042,note_off,,,,,42,0,2,,,0,,,35,64
33060,note_on,,,,,18,0,2,,,0,,,35,31
33066,set_tempo,,,,,40,1,0,1363636,,,,,,
33086,set_tempo,,,,,20,1,0,1395349,,,,,,
33102,note_off,,,,,0,0,1,,,0,,,52,64
33102,note_off,,,,,0,0,1,,,0,,,56,64
33102,note_off,,,,,42,0,2,,,0,,,35,64
33102,note_off,,,,,102,0,1,,,0,,,50,64
33106,set_tempo,,,,,20,1,0,1428571,,,,,,
33120,note_on,,,,,18,0,1,,,0,,,57,37
33120,note_on,,,,,0,0,1,,,0,,,52,37
33120,note_on,,,,,18,0,2,,,0,,,33,43
33120,note_on,,,,,0,0,1,,,0,,,49,37
33120,control_change,,,,,0,0,2,,,0,64,127,,
33126,set_tempo,,,,,20,1,0,1363636,,,,,,
33132,set_tempo,,,,,6,1,0,1304348,,,,,,
33146,set_tempo,,,,,14,1,0,1276596,,,,,,
33180,set_tempo,,,,,34,1,0,1250000,,,,,,
33180,note_off,,,,,60,0,2,,,0,,,33,64
33180,note_on,,,,,0,0,2,,,0,,,45,36
33222,note_off,,,,,42,0,2,,,0,,,45,64
33240,note_on,,,,,18,0,2,,,0,,,45,33
33270,control_change,,,,,30,0,2,,,0,64,0,,
33282,note_off,,,,,12,0,2,,,0,,,45,64
33300,note_on,,,,,18,0,2,,,0,,,45,33
33326,set_tempo,,,,,146,1,0,1224490,,,,,,
33342,note_off,,,,,42,0,2,,,0,,,45,64
33360,note_on,,,,,0,0,2,,,0,,,33,51
33360,control_change,,,,,18,0,2,,,0,64,127,,
33360,note_off,,,,,240,0,1,,,0,,,49,64
33360,note_off,,,,,0,0,1,,,0,,,57,64
33360,note_on,,,,,0,0,1,,,0,,,57,46
33360,note_on,,,,,0,0,1,,,0,,,49,46
33360,note_off,,,,,0,0,1,,,0,,,52,64
33420,note_off,,,,,60,0,2,,,0,,,33,64
33420,note_on,,,,,0,0,2,,,0,,,45,42
33462,note_off,,,,,42,0,2,,,0,,,45,64
33480,note_on,,,,,18,0,2,,,0,,,45,39
33510,control_change,,,,,30,0,2,,,0,64,0,,
33522,note_off,,,,,12,0,2,,,0,,,45,64
33540,note_on,,,,,18,0,2,,,0,,,45,36
33582,note_off,,,,,42,0,2,,,0,,,45,64
33600,note_on,,,,,0,0,1,,,0,,,57,51
33600,note_off,,,,,0,0,1,,,0,,,57,64
33600,note_on,,,,,18,0,2,,,0,,,33,57
33600,control_change,,,,,0,0,2,,,0,64,127,,
33600,note_on,,,,,0,0,1,,,0,,,59,51
33600,note_on,,,,,0,0,1,,,0,,,50,51
33600,note_off,,,,,240,0,1,,,0,,,49,64
33660,note_off,,,,,60,0,2,,,0,,,33,64
33660,note_on,,,,,0,0,2,,,0,,,45,47
33702,note_off,,,,,42,0,2,,,0,,,45,64
33720,note_on,,,,,18,0,2,,,0,,,45,44
33750,control_change,,,,,30,0,2,,,0,64,0,,
33762,note_off,,,,,12,0,2,,,0,,,45,64
33772,set_tempo,,,,,446,1,0,1250000,,,,,,
33780,note_on,,,,,18,0,2,,,0,,,45,41
33792,set_tempo,,,,,20,1,0,1276596,,,,,,
33800,set_tempo,,,,,8,1,0,1363636,,,,,,
33822,note_off,,,,,42,0,2,,,0,,,45,64
33840,note_off,,,,,0,0,1,,,0,,,59,64
33840,note_on,,,,,18,0,2,,,0,,,33,61
33840,control_change,,,,,0,0,2,,,0,64,127,,
33840,note_on,,,,,0,0,1,,,0,,,57,53
33840,note_on,,,,,0,0,1,,,0,,,52,53
33840,note_off,,,,,0,0,1,,,0,,,57,64
33840,note_off,,,,,240,0,1,,,0,,,50,64
33840,note_on,,,,,0,0,1,,,0,,,61,53
33892,set_tempo,,,,,92,1,0,1304348,,,,,,
33900,note_on,,,,,0,0,2,,,0,,,45,47
33900,note_off,,,,,60,0,2,,,0,,,33,64
33900,set_tempo,,,,,8,1,0,1276596,,,,,,
33920,set_tempo,,,,,20,1,0,1250000,,,,,,
33942,note_off,,,,,42,0,2,,,0,,,45,64
33960,note_on,,,,,18,0,2,,,0,,,45,48
33990,control_change,,,,,30,0,2,,,0,64,0,,
34002,note_off,,,,,12,0,2,,,0,,,45,64
34020,note_on,,,,,0,0,1,,,0,,,50,40
34020,note_on,,,,,0,0,1,,,0,,,57,40
34020,note_on,,,,,0,0,1,,,0,,,59,40
34020,note_off,,,,,0,0,1,,,0,,,61,64
34020,note_off,,,,,180,0,1,,,0,,,52,64
34020,note_off,,,,,0,0,1,,,0,,,57,64
34020,note_on,,,,,18,0,2,,,0,,,45,42
34062,note_off,,,,,42,0,2,,,0,,,45,64
34080,note_on,,,,,18,0,2,,,0,,,45,57
34080,note_off,,,,,60,0,1,,,0,,,50,64
34080,note_off,,,,,0,0,1,,,0,,,57,64
34080,note_off,,,,,0,0,1,,,0,,,59,64
34080,note_on,,,,,0,0,1,,,0,,,57,35
34080,note_on,,,,,0,0,1,,,0,,,49,35
34140,note_off,,,,,60,0,2,,,0,,,45,64
34140,note_on,,,,,0,0,2,,,0,,,45,46
34160,set_tempo,,,,,240,1,0,1276596,,,,,,
34182,note_off,,,,,42,0,2,,,0,,,45,64
34200,control_change,,,,,0,0,2,,,0,64,127,,
34200,note_on,,,,,18,0,2,,,0,,,33,61
34260,note_off,,,,,60,0,2,,,0,,,33,64
34260,note_on,,,,,0,0,2,,,0,,,45,54
34290,control_change,,,,,30,0,2,,,0,64,0,,
34302,note_off,,,,,12,0,2,,,0,,,45,64
34320,control_change,,,,,18,0,2,,,0,64,127,,
34320,note_on,,,,,0,0,2,,,0,,,31,75
34380,note_on,,,,,0,0,2,,,0,,,43,64
34380,note_off,,,,,60,0,2,,,0,,,31,64
34410,control_change,,,,,30,0,2,,,0,64,0,,
34422,note_off,,,,,12,0,2,,,0,,,43,64
34440,note_off,,,,,360,0,1,,,0,,,49,64
34440,note_on,,,,,0,0,1,,,0,,,54,64
34440,note_on,,,,,0,0,1,,,0,,,58,64
34440,note_on,,,,,0,0,1,,,0,,,61,64
34440,note_off,,,,,0,0,1,,,0,,,57,64
34440,note_on,,,,,18,0,2,,,0,,,30,79
34440,control_change,,,,,0,0,2,,,0,64,127,,
34440,note_on,,,,,0,0,1,,,0,,,52,64
34500,note_on,,,,,0,0,2,,,0,,,42,67
34500,note_off,,,,,60,0,2,,,0,,,30,64
34530,control_change,,,,,30,0,2,,,0,64,0,,
34542,note_off,,,,,12,0,2,,,0,,,42,64
34560,note_off,,,,,120,0,1,,,0,,,52,64
34560,note_on,,,,,18,0,2,,,0,,,35,86
34560,note_off,,,,,0,0,1,,,0,,,58,64
34560,note_off,,,,,0,0,1,,,0,,,61,64
34560,note_on,,,,,0,0,1,,,0,,,62,61
34560,note_on,,,,,0,0,1,,,0,,,59,61
34560,note_on,,,,,0,0,1,,,0,,,54,61
34560,note_on,,,,,0,0,1,,,0,,,50,61
34560,control_change,,,,,0,0,2,,,0,64,127,,
34560,note_off,,,,,0,0,1,,,0,,,54,64
34620,note_off,,,,,60,0,2,,,0,,,35,64
34620,note_on,,,,,0,0,2,,,0,,,47,52
34640,set_tempo,,,,,480,1,0,1250000,,,,,,
34662,note_off,,,,,42,0,2,,,0,,,47,64
34680,note_on,,,,,18,0,2,,,0,,,47,56
34710,control_change,,,,,30,0,2,,,0,64,0,,
34722,note_off,,,,,12,0,2,,,0,,,47,64
34740,note_off,,,,,0,0,1,,,0,,,62,64
34740,note_on,,,,,0,0,1,,,0,,,54,53
34740,note_on,,,,,0,0,1,,,0,,,58,53
34740,note_on,,,,,0,0,1,,,0,,,61,53
34740,note_off,,,,,0,0,1,,,0,,,59,64
34740,note_off,,,,,0,0,1,,,0,,,54,64
34740,note_off,,,,,180,0,1,,,0,,,50,64
34740,note_on,,,,,18,0,2,,,0,,,49,59
34740,note_on,,,,,0,0,1,,,0,,,52,53
34782,note_off,,,,,42,0,2,,,0,,,49,64
34786,set_tempo,,,,,146,1,0,1224490,,,,,,
34800,note_on,,,,,0,0,1,,,0,,,59,51
34800,note_off,,,,,0,0,1,,,0,,,61,64
34800,note_off,,,,,0,0,1,,,0,,,58,64
34800,note_on,,,,,0,0,1,,,0,,,54,51
34800,note_off,,,,,0,0,1,,,0,,,54,64
34800,note_on,,,,,18,0,2,,,0,,,50,60
34800,note_off,,,,,60,0,1,,,0,,,52,64
34860,note_off,,,,,60,0,2,,,0,,,50,64
34860,note_on,,,,,0,0,2,,,0,,,47,48
34902,note_off,,,,,42,0,2,,,0,,,47,64
34920,note_on,,,,,0,0,2,,,0,,,35,51
34920,note_off,,,,,120,0,1,,,0,,,54,64
34920,note_off,,,,,0,0,1,,,0,,,59,64
34920,note_on,,,,,0,0,1,,,0,,,62,56
34920,note_on,,,,,0,0,1,,,0,,,54,56
34920,note_on,,,,,0,0,1,,,0,,,50,56
34920,control_change,,,,,18,0,2,,,0,64,127,,
34960,set_tempo,,,,,174,1,0,1250000,,,,,,
34962,note_off,,,,,42,0,2,,,0,,,35,64
34980,note_off,,,,,60,0,1,,,0,,,54,64
34980,note_on,,,,,0,0,1,,,0,,,56,48
34980,note_on,,,,,18,0,2,,,0,,,47,40
35010,control_change,,,,,30,0,2,,,0,64,0,,
35022,note_off,,,,,12,0,2,,,0,,,47,64
35040,control_change,,,,,18,0,2,,,0,64,127,,
35040,note_on,,,,,0,0,2,,,0,,,37,56
35040,note_off,,,,,60,0,1,,,0,,,56,64
35040,note_off,,,,,0,0,1,,,0,,,50,64
35040,note_off,,,,,0,0,1,,,0,,,62,64
35040,note_on,,,,,0,0,1,,,0,,,61,51
35040,note_on,,,,,0,0,1,,,0,,,57,51
35040,note_on,,,,,0,0,1,,,0,,,52,51
35052,set_tempo,,,,,92,1,0,1276596,,,,,,
35084,note_off,,,,,44,0,2,,,0,,,37,64
35100,note_on,,,,,16,0,2,,,0,,,49,50
35120,set_tempo,,,,,68,1,0,1304348,,,,,,
35130,control_change,,,,,30,0,2,,,0,64,0,,
35142,note_off,,,,,12,0,2,,,0,,,49,64
35160,note_on,,,,,0,0,1,,,0,,,50,43
35160,control_change,,,,,18,0,2,,,0,64,127,,
35160,note_off,,,,,120,0,1,,,0,,,52,64
35160,note_on,,,,,0,0,1,,,0,,,59,43
35160,note_on,,,,,0,0,2,,,0,,,40,64
35160,note_off,,,,,0,0,1,,,0,,,61,64
35160,note_on,,,,,0,0,1,,,0,,,52,43
35160,note_on,,,,,0,0,1,,,0,,,56,43
35160,note_off,,,,,0,0,1,,,0,,,57,64
35202,note_off,,,,,42,0,2,,,0,,,40,64
35206,set_tempo,,,,,86,1,0,1333333,,,,,,
35220,note_on,,,,,18,0,2,,,0,,,52,54
35250,control_change,,,,,30,0,2,,,0,64,0,,
35262,note_off,,,,,12,0,2,,,0,,,52,64
35280,note_on,,,,,0,0,1,,,0,,,50,52
35280,note_on,,,,,0,0,1,,,0,,,52,52
35280,note_on,,,,,0,0,1,,,0,,,56,52
35280,note_on,,,,,0,0,1,,,0,,,59,52
35280,note_off,,,,,0,0,1,,,0,,,59,64
35280,note_off,,,,,0,0,1,,,0,,,56,64
35280,note_off,,,,,0,0,1,,,0,,,52,64
35280,note_off,,,,,120,0,1,,,0,,,50,64
35340,note_on,,,,,78,0,2,,,0,,,40,48
35366,set_tempo,,,,,160,1,0,1304348,,,,,,
35382,note_off,,,,,42,0,2,,,0,,,40,64
35400,note_on,,,,,18,0,2,,,0,,,44,47
35442,note_off,,,,,42,0,2,,,0,,,44,64
35460,note_on,,,,,18,0,2,,,0,,,40,42
35502,note_off,,,,,42,0,2,,,0,,,40,64
35520,note_on,,,,,18,0,2,,,0,,,45,37
35520,note_off,,,,,0,0,1,,,0,,,59,64
35520,note_off,,,,,0,0,1,,,0,,,56,64
35520,note_on,,,,,0,0,1,,,0,,,57,34
35520,note_on,,,,,0,0,1,,,0,,,52,34
35520,note_on,,,,,0,0,1,,,0,,,49,34
35520,note_off,,,,,240,0,1,,,0,,,50,64
35520,note_off,,,,,0,0,1,,,0,,,52,64
35572,note_off,,,,,52,0,2,,,0,,,45,64
35580,note_on,,,,,8,0,2,,,0,,,37,41
35622,note_off,,,,,42,0,2,,,0,,,37,64
35640,note_on,,,,,18,0,2,,,0,,,38,36
35682,note_off,,,,,42,0,2,,,0,,,38,64
35686,set_tempo,,,,,320,1,0,1333333,,,,,,
35700,note_on,,,,,18,0,2,,,0,,,40,39
35700,note_off,,,,,0,0,1,,,0,,,52,64
35700,note_off,,,,,180,0,1,,,0,,,49,64
35700,note_off,,,,,0,0,1,,,0,,,57,64
35742,note_off,,,,,42,0,2,,,0,,,40,64
35760,note_on,,,,,18,0,2,,,0,,,42,44
35766,set_tempo,,,,,80,1,0,1363636,,,,,,
35804,note_off,,,,,44,0,2,,,0,,,42,64
35812,set_tempo,,,,,46,1,0,1395349,,,,,,
35820,note_on,,,,,16,0,2,,,0,,,40,40
35826,set_tempo,,,,,14,1,0,1428571,,,,,,
35840,set_tempo,,,,,14,1,0,1463415,,,,,,
35852,set_tempo,,,,,12,1,0,1500000,,,,,,
35862,note_off,,,,,42,0,2,,,0,,,40,64
35872,set_tempo,,,,,20,1,0,1538462,,,,,,
35880,note_on,,,,,18,0,2,,,0,,,42,46
35886,set_tempo,,,,,14,1,0,1578947,,,,,,
35900,set_tempo,,,,,14,1,0,1621622,,,,,,
35912,set_tempo,,,,,12,1,0,1666667,,,,,,
35922,note_off,,,,,42,0,2,,,0,,,42,64
35926,set_tempo,,,,,14,1,0,1714286,,,,,,
35940,note_on,,,,,18,0,2,,,0,,,44,52
35946,set_tempo,,,,,20,1,0,1818182,,,,,,
35972,set_tempo,,,,,26,1,0,3000000,,,,,,
35982,note_off,,,,,42,0,2,,,0,,,44,64
36000,note_on,,,,,0,0,2,,,0,,,45,46
36000,note_on,,,,,300,0,1,,,0,,,69,36
36000,control_change,,,,,18,0,2,,,0,64,127,,
36012,set_tempo,,,,,40,1,0,1304348,,,,,,
36040,note_on,,,,,36040,0,3,,,0,,,64,32
36080,note_on,,,,,0,0,3,,,0,,,61,31
36080,note_off,,,,,40,0,3,,,0,,,64,64
36110,note_off,,,,,110,0,2,,,0,,,45,64
36120,note_on,,,,,0,0,3,,,0,,,64,30
36120,note_off,,,,,40,0,3,,,0,,,61,64
36120,note_on,,,,,10,0,2,,,0,,,52,27
36120,note_on,,,,,0,0,2,,,0,,,49,27
36160,note_on,,,,,0,0,3,,,0,,,61,29
36160,note_off,,,,,40,0,3,,,0,,,64,64
36172,set_tempo,,,,,160,1,0,1276596,,,,,,
36200,note_on,,,,,0,0,3,,,0,,,57,27
36200,control_change,,,,,80,0,2,,,0,64,0,,
36200,note_off,,,,,40,0,3,,,0,,,61,64
36212,set_tempo,,,,,40,1,0,1250000,,,,,,
36216,note_off,,,,,16,0,2,,,0,,,49,64
36216,note_off,,,,,0,0,2,,,0,,,52,64
36240,note_on,,,,,0,0,1,,,0,,,69,40
36240,note_on,,,,,24,0,2,,,0,,,45,33
36240,note_off,,,,,240,0,1,,,0,,,69,64
36240,note_off,,,,,40,0,3,,,0,,,57,64
36240,control_change,,,,,0,0,2,,,0,64,127,,
36280,note_on,,,,,40,0,3,,,0,,,64,29
36320,note_off,,,,,40,0,3,,,0,,,64,64
36320,note_on,,,,,0,0,3,,,0,,,61,29
36350,note_off,,,,,110,0,2,,,0,,,45,64
36360,note_on,,,,,10,0,2,,,0,,,52,24
36360,note_on,,,,,0,0,2,,,0,,,49,24
36360,note_on,,,,,0,0,3,,,0,,,64,30
36360,note_off,,,,,40,0,3,,,0,,,61,64
36400,note_on,,,,,0,0,3,,,0,,,61,32
36400,note_off,,,,,40,0,3,,,0,,,64,64
36440,note_on,,,,,0,0,3,,,0,,,57,33
36440,note_off,,,,,40,0,3,,,0,,,61,64
36440,control_change,,,,,80,0,2,,,0,64,0,,
36456,note_off,,,,,16,0,2,,,0,,,49,64
36456,note_off,,,,,0,0,2,,,0,,,52,64
36480,note_on,,,,,24,0,2,,,0,,,45,38
36480,control_change,,,,,0,0,2,,,0,64,127,,
36480,note_on,,,,,0,0,1,,,0,,,71,45
36480,note_off,,,,,240,0,1,,,0,,,69,64
36480,note_off,,,,,40,0,3,,,0,,,57,64
36520,note_on,,,,,40,0,3,,,0,,,68,34
36560,note_on,,,,,0,0,3,,,0,,,64,36
36560,note_off,,,,,40,0,3,,,0,,,68,64
36590,note_off,,,,,110,0,2,,,0,,,45,64
36600,note_on,,,,,10,0,2,,,0,,,52,31
36600,note_on,,,,,0,0,2,,,0,,,50,31
36600,note_on,,,,,0,0,3,,,0,,,68,37
36600,note_off,,,,,40,0,3,,,0,,,64,64
36612,set_tempo,,,,,400,1,0,1276596,,,,,,
36640,note_on,,,,,0,0,3,,,0,,,64,39
36640,note_off,,,,,40,0,3,,,0,,,68,64
36680,control_change,,,,,80,0,2,,,0,64,0,,
36680,note_on,,,,,0,0,3,,,0,,,59,41
36680,note_off,,,,,40,0,3,,,0,,,64,64
36696,note_off,,,,,0,0,2,,,0,,,52,64
36696,note_off,,,,,16,0,2,,,0,,,50,64
36720,set_tempo,,,,,108,1,0,1304348,,,,,,
36720,note_on,,,,,24,0,2,,,0,,,45,44
36720,control_change,,,,,0,0,2,,,0,64,127,,
36720,note_off,,,,,240,0,1,,,0,,,71,64
36720,note_on,,,,,0,0,1,,,0,,,73,52
36720,note_off,,,,,40,0,3,,,0,,,59,64
36746,set_tempo,,,,,26,1,0,1276596,,,,,,
36760,note_on,,,,,40,0,3,,,0,,,69,38
36786,set_tempo,,,,,40,1,0,1250000,,,,,,
36800,note_off,,,,,40,0,3,,,0,,,69,64
36800,note_on,,,,,0,0,3,,,0,,,64,36
36830,note_off,,,,,110,0,2,,,0,,,45,64
36840,note_on,,,,,10,0,2,,,0,,,52,32
36840,note_off,,,,,40,0,3,,,0,,,64,64
36840,note_on,,,,,0,0,3,,,0,,,69,35
36880,note_off,,,,,40,0,3,,,0,,,69,64
36880,note_on,,,,,0,0,3,,,0,,,64,34
36900,note_off,,,,,180,0,1,,,0,,,73,64
36920,note_on,,,,,0,0,3,,,0,,,62,34
36920,note_on,,,,,20,0,1,,,0,,,71,43
36920,note_off,,,,,40,0,3,,,0,,,64,64
36920,control_change,,,,,80,0,2,,,0,64,0,,
36936,note_off,,,,,16,0,2,,,0,,,52,64
36960,note_on,,,,,0,0,1,,,0,,,69,38
36960,note_off,,,,,40,0,1,,,0,,,71,64
36960,control_change,,,,,0,0,2,,,0,64,127,,
36960,note_on,,,,,24,0,2,,,0,,,45,33
36960,note_off,,,,,40,0,3,,,0,,,62,64
36992,set_tempo,,,,,206,1,0,1276596,,,,,,
37000,note_on,,,,,40,0,3,,,0,,,64,34
37040,note_on,,,,,0,0,3,,,0,,,61,33
37040,note_off,,,,,40,0,3,,,0,,,64,64
37070,note_off,,,,,110,0,2,,,0,,,45,64
37080,note_on,,,,,0,0,3,,,0,,,64,32
37080,note_off,,,,,40,0,3,,,0,,,61,64
37080,note_on,,,,,0,0,2,,,0,,,52,28
37080,note_on,,,,,10,0,2,,,0,,,49,28
37120,note_off,,,,,40,0,3,,,0,,,64,64
37120,note_on,,,,,0,0,3,,,0,,,61,31
37160,note_on,,,,,0,0,3,,,0,,,57,30
37160,note_off,,,,,40,0,3,,,0,,,61,64
37160,control_change,,,,,80,0,2,,,0,64,0,,
37176,note_off,,,,,16,0,2,,,0,,,52,64
37176,note_off,,,,,0,0,2,,,0,,,49,64
37200,note_off,,,,,40,0,3,,,0,,,57,64
37200,control_change,,,,,0,0,2,,,0,64,127,,
37200,note_on,,,,,24,0,2,,,0,,,45,41
37226,set_tempo,,,,,234,1,0,1250000,,,,,,
37240,note_on,,,,,40,0,3,,,0,,,61,36
37260,note_off,,,,,300,0,1,,,0,,,69,64
37280,note_on,,,,,0,0,3,,,0,,,64,35
37280,note_off,,,,,40,0,3,,,0,,,61,64
37310,note_off,,,,,110,0,2,,,0,,,45,64
37320,note_on,,,,,0,0,3,,,0,,,61,35
37320,note_off,,,,,40,0,3,,,0,,,64,64
37320,note_on,,,,,10,0,2,,,0,,,52,36
37320,note_on,,,,,0,0,2,,,0,,,57,36
37320,note_on,,,,,60,0,1,,,0,,,73,44
37360,note_on,,,,,0,0,3,,,0,,,64,33
37360,note_off,,,,,40,0,3,,,0,,,61,64
37400,note_on,,,,,0,0,3,,,0,,,69,31
37400,note_off,,,,,40,0,3,,,0,,,64,64
37400,control_change,,,,,80,0,2,,,0,64,0,,
37416,note_off,,,,,0,0,2,,,0,,,52,64
37416,note_off,,,,,16,0,2,,,0,,,57,64
37440,note_on,,,,,24,0,2,,,0,,,45,48
37440,control_change,,,,,0,0,2,,,0,64,127,,
37440,note_off,,,,,40,0,3,,,0,,,69,64
37440,note_off,,,,,120,0,1,,,0,,,73,64
37440,note_on,,,,,0,0,1,,,0,,,74,52
37452,set_tempo,,,,,226,1,0,1224490,,,,,,
37480,note_on,,,,,40,0,3,,,0,,,69,43
37520,note_off,,,,,40,0,3,,,0,,,69,64
37520,note_on,,,,,0,0,3,,,0,,,66,41
37550,note_off,,,,,110,0,2,,,0,,,45,64
37560,note_off,,,,,40,0,3,,,0,,,66,64
37560,note_on,,,,,10,0,2,,,0,,,54,31
37560,note_on,,,,,0,0,2,,,0,,,57,31
37560,note_on,,,,,0,0,3,,,0,,,69,39
37600,note_on,,,,,0,0,3,,,0,,,66,37
37600,note_off,,,,,40,0,3,,,0,,,69,64
37620,note_off,,,,,180,0,1,,,0,,,74,64
37640,note_on,,,,,0,0,3,,,0,,,64,35
37640,note_off,,,,,40,0,3,,,0,,,66,64
37640,note_on,,,,,20,0,1,,,0,,,73,40
37640,control_change,,,,,80,0,2,,,0,64,0,,
37656,note_off,,,,,16,0,2,,,0,,,57,64
37656,note_off,,,,,0,0,2,,,0,,,54,64
37680,note_on,,,,,24,0,2,,,0,,,45,44
37680,note_on,,,,,0,0,1,,,0,,,71,35
37680,note_off,,,,,40,0,1,,,0,,,73,64
37680,control_change,,,,,0,0,2,,,0,64,127,,
37680,note_off,,,,,40,0,3,,,0,,,64,64
37720,note_on,,,,,40,0,3,,,0,,,62,36
37760,note_on,,,,,0,0,3,,,0,,,69,33
37760,note_off,,,,,40,0,3,,,0,,,62,64
37790,note_off,,,,,110,0,2,,,0,,,45,64
37800,note_on,,,,,10,0,2,,,0,,,57,33
37800,note_on,,,,,0,0,1,,,0,,,74,45
37800,note_off,,,,,120,0,1,,,0,,,71,64
37800,note_on,,,,,0,0,2,,,0,,,54,33
37800,note_on,,,,,0,0,3,,,0,,,74,30
37800,note_off,,,,,40,0,3,,,0,,,69,64
37840,note_off,,,,,40,0,3,,,0,,,74,64
37840,note_on,,,,,0,0,3,,,0,,,66,31
37846,set_tempo,,,,,394,1,0,1250000,,,,,,
37880,control_change,,,,,80,0,2,,,0,64,0,,
37880,note_on,,,,,0,0,3,,,0,,,69,34
37880,note_off,,,,,40,0,3,,,0,,,66,64
37896,note_off,,,,,16,0,2,,,0,,,54,64
37896,note_off,,,,,0,0,2,,,0,,,57,64
37920,note_on,,,,,24,0,2,,,0,,,57,39
37920,note_off,,,,,120,0,1,,,0,,,74,64
37920,note_on,,,,,0,0,1,,,0,,,73,42
37920,note_on,,,,,0,0,2,,,0,,,52,39
37920,note_off,,,,,40,0,3,,,0,,,69,64
37920,control_change,,,,,0,0,2,,,0,64,127,,
37932,set_tempo,,,,,86,1,0,1276596,,,,,,
37960,note_on,,,,,40,0,3,,,0,,,69,36
38000,note_off,,,,,40,0,3,,,0,,,69,64
38000,note_on,,,,,0,0,3,,,0,,,64,35
38030,note_off,,,,,0,0,2,,,0,,,57,64
38030,note_off,,,,,110,0,2,,,0,,,52,64
38040,note_on,,,,,0,0,3,,,0,,,69,32
38040,note_on,,,,,0,0,2,,,0,,,57,34
38040,note_on,,,,,10,0,2,,,0,,,49,34
38040,note_off,,,,,40,0,3,,,0,,,64,64
38040,note_on,,,,,0,0,1,,,0,,,69,34
38040,note_off,,,,,120,0,1,,,0,,,73,64
38052,set_tempo,,,,,120,1,0,1304348,,,,,,
38080,note_off,,,,,40,0,3,,,0,,,69,64
38080,note_on,,,,,0,0,3,,,0,,,64,29
38120,note_on,,,,,0,0,3,,,0,,,61,27
38120,note_off,,,,,40,0,3,,,0,,,64,64
38120,control_change,,,,,80,0,2,,,0,64,0,,
38136,note_off,,,,,16,0,2,,,0,,,57,64
38136,note_off,,,,,0,0,2,,,0,,,49,64
38160,note_off,,,,,120,0,1,,,0,,,69,64
38160,note_off,,,,,40,0,3,,,0,,,61,64
38160,note_on,,,,,24,0,2,,,0,,,40,48
38160,control_change,,,,,0,0,2,,,0,64,127,,
38160,note_on,,,,,0,0,1,,,0,,,68,29
38192,set_tempo,,,,,140,1,0,1276596,,,,,,
38200,note_on,,,,,40,0,3,,,0,,,64,31
38240,note_on,,,,,0,0,3,,,0,,,59,31
38240,note_off,,,,,40,0,3,,,0,,,64,64
38270,note_off,,,,,110,0,2,,,0,,,40,64
38272,set_tempo,,,,,80,1,0,1250000,,,,,,
38280,note_on,,,,,10,0,2,,,0,,,52,31
38280,note_on,,,,,0,0,3,,,0,,,64,29
38280,note_off,,,,,40,0,3,,,0,,,59,64
38320,note_on,,,,,0,0,3,,,0,,,59,27
38320,note_off,,,,,40,0,3,,,0,,,64,64
38360,note_on,,,,,0,0,3,,,0,,,56,27
38360,note_off,,,,,40,0,3,,,0,,,59,64
38360,control_change,,,,,80,0,2,,,0,64,0,,
38376,note_off,,,,,16,0,2,,,0,,,52,64
38400,note_off,,,,,40,0,3,,,0,,,56,64
38400,note_on,,,,,24,0,2,,,0,,,40,36
38400,note_on,,,,,0,0,3,,,0,,,64,28
38440,note_on,,,,,0,0,3,,,0,,,59,27
38440,note_off,,,,,40,0,3,,,0,,,64,64
38460,note_off,,,,,300,0,1,,,0,,,68,64
38480,note_on,,,,,0,0,3,,,0,,,56,33
38480,note_off,,,,,40,0,3,,,0,,,59,64
38496,note_off,,,,,96,0,2,,,0,,,40,64
38520,note_on,,,,,60,0,1,,,0,,,68,33
38520,note_on,,,,,24,0,2,,,0,,,52,27
38520,note_on,,,,,0,0,2,,,0,,,50,27
38520,note_off,,,,,40,0,3,,,0,,,56,64
38560,note_on,,,,,40,0,3,,,0,,,66,29
38600,note_on,,,,,0,0,3,,,0,,,59,28
38600,note_off,,,,,40,0,3,,,0,,,66,64
38612,set_tempo,,,,,340,1,0,1276596,,,,,,
38616,note_off,,,,,96,0,2,,,0,,,50,64
38616,note_off,,,,,0,0,2,,,0,,,52,64
38622,note_off,,,,,102,0,1,,,0,,,68,64
38640,note_off,,,,,40,0,3,,,0,,,59,64
38640,note_on,,,,,24,0,2,,,0,,,49,29
38640,note_on,,,,,0,0,2,,,0,,,52,29
38640,note_on,,,,,18,0,1,,,0,,,68,39
38680,note_on,,,,,40,0,3,,,0,,,64,32
38720,note_off,,,,,40,0,3,,,0,,,64,64
38720,note_on,,,,,0,0,3,,,0,,,61,31
38732,set_tempo,,,,,120,1,0,1304348,,,,,,
38742,note_off,,,,,102,0,1,,,0,,,68,64
38750,note_off,,,,,0,0,2,,,0,,,49,64
38750,note_off,,,,,110,0,2,,,0,,,52,64
38760,note_off,,,,,40,0,3,,,0,,,61,64
38760,note_on,,,,,10,0,2,,,0,,,47,36
38760,note_on,,,,,0,0,2,,,0,,,52,36
38760,note_on,,,,,18,0,1,,,0,,,68,44
38786,set_tempo,,,,,54,1,0,1333333,,,,,,
38800,note_on,,,,,40,0,3,,,0,,,64,35
38826,set_tempo,,,,,40,1,0,1363636,,,,,,
38840,note_on,,,,,0,0,3,,,0,,,62,33
38840,note_off,,,,,40,0,3,,,0,,,64,64
38846,set_tempo,,,,,20,1,0,1395349,,,,,,
38856,note_off,,,,,0,0,2,,,0,,,47,64
38856,note_off,,,,,96,0,2,,,0,,,52,64
38862,note_off,,,,,102,0,1,,,0,,,68,64
38866,set_tempo,,,,,20,1,0,1428571,,,,,,
38880,note_on,,,,,24,0,2,,,0,,,45,44
38880,control_change,,,,,0,0,2,,,0,64,127,,
38880,note_on,,,,,18,0,1,,,0,,,69,41
38880,note_off,,,,,40,0,3,,,0,,,62,64
38886,set_tempo,,,,,20,1,0,1363636,,,,,,
38892,set_tempo,,,,,6,1,0,1304348,,,,,,
38906,set_tempo,,,,,14,1,0,1276596,,,,,,
38920,note_on,,,,,40,0,3,,,0,,,64,31
38940,set_tempo,,,,,34,1,0,1250000,,,,,,
38960,note_off,,,,,40,0,3,,,0,,,64,64
38960,note_on,,,,,0,0,3,,,0,,,61,29
38990,note_off,,,,,110,0,2,,,0,,,45,64
39000,note_on,,,,,10,0,2,,,0,,,52,30
39000,note_on,,,,,0,0,3,,,0,,,64,29
39000,note_on,,,,,0,0,2,,,0,,,49,30
39000,note_off,,,,,40,0,3,,,0,,,61,64
39040,note_off,,,,,40,0,3,,,0,,,64,64
39040,note_on,,,,,0,0,3,,,0,,,61,28
39080,note_on,,,,,0,0,3,,,0,,,57,27
39080,control_change,,,,,80,0,2,,,0,64,0,,
39080,note_off,,,,,40,0,3,,,0,,,61,64
39086,set_tempo,,,,,146,1,0,1224490,,,,,,
39096,note_off,,,,,0,0,2,,,0,,,52,64
39096,note_off,,,,,16,0,2,,,0,,,49,64
39120,note_on,,,,,24,0,2,,,0,,,45,37
39120,control_change,,,,,0,0,2,,,0,64,127,,
39120,note_off,,,,,240,0,1,,,0,,,69,64
39120,note_on,,,,,0,0,1,,,0,,,69,36
39120,note_off,,,,,40,0,3,,,0,,,57,64
39160,note_on,,,,,40,0,3,,,0,,,64,31
39200,note_off,,,,,40,0,3,,,0,,,64,64
39200,note_on,,,,,0,0,3,,,0,,,61,29
39230,note_off,,,,,110,0,2,,,0,,,45,64
39240,note_off,,,,,40,0,3,,,0,,,61,64
39240,note_on,,,,,0,0,3,,,0,,,64,29
39240,note_on,,,,,10,0,2,,,0,,,52,29
39240,note_on,,,,,0,0,2,,,0,,,49,29
39280,note_off,,,,,40,0,3,,,0,,,64,64
39280,note_on,,,,,0,0,3,,,0,,,61,27
39320,note_off,,,,,40,0,3,,,0,,,61,64
39320,note_on,,,,,0,0,3,,,0,,,57,27
39320,control_change,,,,,80,0,2,,,0,64,0,,
39336,note_off,,,,,16,0,2,,,0,,,49,64
39336,note_off,,,,,0,0,2,,,0,,,52,64
39360,control_change,,,,,0,0,2,,,0,64,127,,
39360,note_off,,,,,40,0,3,,,0,,,57,64
39360,note_on,,,,,24,0,2,,,0,,,45,37
39360,note_off,,,,,240,0,1,,,0,,,69,64
39360,note_on,,,,,0,0,1,,,0,,,71,45
39400,note_on,,,,,40,0,3,,,0,,,68,31
39440,note_off,,,,,40,0,3,,,0,,,68,64
39440,note_on,,,,,0,0,3,,,0,,,64,30
39470,note_off,,,,,110,0,2,,,0,,,45,64
39480,note_on,,,,,10,0,2,,,0,,,50,24
39480,note_on,,,,,0,0,2,,,0,,,52,24
39480,note_on,,,,,0,0,3,,,0,,,68,29
39480,note_off,,,,,40,0,3,,,0,,,64,64
39520,note_on,,,,,0,0,3,,,0,,,64,28
39520,note_off,,,,,40,0,3,,,0,,,68,64
39532,set_tempo,,,,,446,1,0,1250000,,,,,,
39560,control_change,,,,,80,0,2,,,0,64,0,,
39560,note_on,,,,,0,0,3,,,0,,,59,27
39560,note_off,,,,,40,0,3,,,0,,,64,64
39560,set_tempo,,,,,28,1,0,1276596,,,,,,
39576,note_off,,,,,0,0,2,,,0,,,50,64
39576,note_off,,,,,16,0,2,,,0,,,52,64
39600,control_change,,,,,0,0,2,,,0,64,127,,
39600,note_off,,,,,40,0,3,,,0,,,59,64
39600,note_on,,,,,0,0,1,,,0,,,73,48
39600,note_on,,,,,24,0,2,,,0,,,45,47
39600,note_off,,,,,240,0,1,,,0,,,71,64
39606,set_tempo,,,,,46,1,0,1304348,,,,,,
39640,note_on,,,,,40,0,3,,,0,,,69,31
39640,set_tempo,,,,,34,1,0,1276596,,,,,,
39680,note_on,,,,,0,0,3,,,0,,,64,31
39680,note_off,,,,,40,0,3,,,0,,,69,64
39692,set_tempo,,,,,52,1,0,1250000,,,,,,
39710,note_off,,,,,110,0,2,,,0,,,45,64
39720,note_on,,,,,0,0,3,,,0,,,69,29
39720,note_off,,,,,40,0,3,,,0,,,64,64
39720,note_on,,,,,10,0,2,,,0,,,52,30
39760,note_on,,,,,0,0,3,,,0,,,64,27
39760,note_off,,,,,40,0,3,,,0,,,69,64
39780,note_off,,,,,180,0,1,,,0,,,73,64
39800,note_on,,,,,0,0,3,,,0,,,62,28
39800,note_off,,,,,40,0,3,,,0,,,64,64
39800,control_change,,,,,80,0,2,,,0,64,0,,
39800,note_on,,,,,20,0,1,,,0,,,71,39
39816,note_off,,,,,16,0,2,,,0,,,52,64
39840,note_off,,,,,40,0,3,,,0,,,62,64
39840,note_on,,,,,24,0,2,,,0,,,45,45
39840,note_off,,,,,40,0,1,,,0,,,71,64
39840,note_on,,,,,0,0,1,,,0,,,69,36
39840,control_change,,,,,0,0,2,,,0,64,127,,
39880,note_on,,,,,40,0,3,,,0,,,64,36
39920,set_tempo,,,,,228,1,0,1276596,,,,,,
39920,note_off,,,,,40,0,3,,,0,,,64,64
39920,note_on,,,,,0,0,3,,,0,,,61,35
39950,note_off,,,,,110,0,2,,,0,,,45,64
39960,note_on,,,,,0,0,2,,,0,,,49,39
39960,note_on,,,,,0,0,2,,,0,,,52,39
39960,note_on,,,,,0,0,3,,,0,,,64,34
39960,note_off,,,,,40,0,3,,,0,,,61,64
39960,note_on,,,,,10,0,2,,,0,,,45,39
40000,note_on,,,,,0,0,3,,,0,,,61,32
40000,note_off,,,,,40,0,3,,,0,,,64,64
40040,note_on,,,,,0,0,3,,,0,,,57,31
40040,note_off,,,,,40,0,3,,,0,,,61,64
40056,note_off,,,,,96,0,2,,,0,,,52,64
40056,note_off,,,,,0,0,2,,,0,,,49,64
40056,note_off,,,,,0,0,2,,,0,,,45,64
40060,control_change,,,,,4,0,2,,,0,64,0,,
40080,note_on,,,,,20,0,2,,,0,,,49,47
40080,note_on,,,,,0,0,2,,,0,,,43,47
40080,note_on,,,,,0,0,2,,,0,,,52,47
40080,control_change,,,,,0,0,2,,,0,64,127,,
40080,note_off,,,,,40,0,3,,,0,,,57,64
40120,note_on,,,,,40,0,3,,,0,,,64,41
40160,note_off,,,,,40,0,3,,,0,,,64,64
40160,note_on,,,,,0,0,3,,,0,,,61,38
40176,note_off,,,,,96,0,2,,,0,,,52,64
40176,note_off,,,,,0,0,2,,,0,,,43,64
40176,note_off,,,,,0,0,2,,,0,,,49,64
40180,control_change,,,,,4,0,2,,,0,64,0,,
40200,note_on,,,,,0,0,3,,,0,,,70,37
40200,note_off,,,,,40,0,3,,,0,,,61,64
40200,note_off,,,,,360,0,1,,,0,,,69,64
40200,note_on,,,,,0,0,1,,,0,,,73,54
40200,control_change,,,,,0,0,2,,,0,64,127,,
40200,note_on,,,,,0,0,2,,,0,,,54,53
40200,note_on,,,,,0,0,2,,,0,,,42,53
40200,note_on,,,,,20,0,2,,,0,,,49,53
40240,note_off,,,,,40,0,3,,,0,,,70,64
40240,note_on,,,,,0,0,3,,,0,,,66,35
40280,note_off,,,,,40,0,3,,,0,,,66,64
40280,note_on,,,,,0,0,3,,,0,,,64,34
40296,note_off,,,,,0,0,2,,,0,,,42,64
40296,note_off,,,,,0,0,2,,,0,,,49,64
40296,note_off,,,,,96,0,2,,,0,,,54,64
40300,control_change,,,,,4,0,2,,,0,64,0,,
40320,note_on,,,,,20,0,2,,,0,,,47,57
40320,control_change,,,,,0,0,2,,,0,64,127,,
40320,note_off,,,,,120,0,1,,,0,,,73,64
40320,note_off,,,,,40,0,3,,,0,,,64,64
40320,note_on,,,,,0,0,1,,,0,,,74,66
40360,note_on,,,,,40,0,3,,,0,,,71,40
40400,note_off,,,,,40,0,3,,,0,,,71,64
40400,set_tempo,,,,,480,1,0,1250000,,,,,,
40400,note_on,,,,,0,0,3,,,0,,,66,38
40430,note_off,,,,,110,0,2,,,0,,,47,64
40440,note_on,,,,,10,0,2,,,0,,,54,51
40440,note_off,,,,,40,0,3,,,0,,,66,64
40440,note_on,,,,,0,0,3,,,0,,,71,36
40480,note_on,,,,,0,0,3,,,0,,,66,34
40480,note_off,,,,,40,0,3,,,0,,,71,64
40500,note_off,,,,,180,0,1,,,0,,,74,64
40520,note_on,,,,,20,0,1,,,0,,,73,51
40520,note_on,,,,,0,0,3,,,0,,,64,33
40520,note_off,,,,,40,0,3,,,0,,,66,64
40520,note_off,,,,,80,0,2,,,0,,,54,64
40520,control_change,,,,,0,0,2,,,0,64,0,,
40520,note_on,,,,,0,0,2,,,0,,,58,46
40546,set_tempo,,,,,146,1,0,1224490,,,,,,
40560,note_off,,,,,40,0,2,,,0,,,58,64
40560,note_on,,,,,0,0,2,,,0,,,59,44
40560,control_change,,,,,0,0,2,,,0,64,127,,
40560,note_off,,,,,40,0,3,,,0,,,64,64
40560,note_off,,,,,40,0,1,,,0,,,73,64
40560,note_on,,,,,0,0,1,,,0,,,71,48
40600,note_on,,,,,40,0,3,,,0,,,62,33
40640,note_off,,,,,40,0,3,,,0,,,62,64
40640,note_on,,,,,0,0,3,,,0,,,66,31
40670,note_off,,,,,110,0,2,,,0,,,59,64
40680,note_on,,,,,0,0,1,,,0,,,74,55
40680,note_off,,,,,120,0,1,,,0,,,71,64
40680,note_on,,,,,0,0,2,,,0,,,47,43
40680,note_on,,,,,10,0,2,,,0,,,54,43
40680,note_off,,,,,40,0,3,,,0,,,66,64
40720,set_tempo,,,,,174,1,0,1250000,,,,,,
40720,note_on,,,,,40,0,3,,,0,,,66,29
40760,note_off,,,,,80,0,2,,,0,,,54,64
40760,control_change,,,,,0,0,2,,,0,64,0,,
40760,note_on,,,,,0,0,2,,,0,,,56,39
40760,note_off,,,,,40,0,3,,,0,,,66,64
40760,note_on,,,,,0,0,3,,,0,,,68,27
40776,note_off,,,,,16,0,2,,,0,,,47,64
40800,note_off,,,,,40,0,3,,,0,,,68,64
40800,note_off,,,,,120,0,1,,,0,,,74,64
40800,note_on,,,,,0,0,1,,,0,,,73,47
40800,control_change,,,,,0,0,2,,,0,64,127,,
40800,note_on,,,,,0,0,2,,,0,,,57,36
40800,note_on,,,,,0,0,2,,,0,,,49,36
40800,note_off,,,,,24,0,2,,,0,,,56,64
40812,set_tempo,,,,,92,1,0,1276596,,,,,,
40840,note_on,,,,,40,0,3,,,0,,,69,27
40880,note_off,,,,,40,0,3,,,0,,,69,64
40880,note_on,,,,,0,0,3,,,0,,,64,27
40880,set_tempo,,,,,68,1,0,1304348,,,,,,
40910,note_off,,,,,110,0,2,,,0,,,57,64
40910,note_off,,,,,0,0,2,,,0,,,49,64
40920,note_on,,,,,0,0,2,,,0,,,56,32
40920,note_off,,,,,40,0,3,,,0,,,64,64
40920,note_on,,,,,0,0,1,,,0,,,71,39
40920,note_off,,,,,120,0,1,,,0,,,73,64
40920,note_on,,,,,10,0,2,,,0,,,52,32
40960,note_on,,,,,40,0,3,,,0,,,64,33
40966,set_tempo,,,,,86,1,0,1333333,,,,,,
41000,note_off,,,,,40,0,3,,,0,,,64,64
41000,control_change,,,,,80,0,2,,,0,64,0,,
41000,note_on,,,,,0,0,3,,,0,,,62,31
41016,note_off,,,,,16,0,2,,,0,,,56,64
41016,note_off,,,,,0,0,2,,,0,,,52,64
41040,note_on,,,,,0,0,1,,,0,,,71,40
41040,note_off,,,,,120,0,1,,,0,,,71,64
41040,note_off,,,,,40,0,3,,,0,,,62,64
41040,note_on,,,,,0,0,2,,,0,,,45,32
41040,control_change,,,,,24,0,2,,,0,64,127,,
41040,set_tempo,,,,,74,1,0,1363636,,,,,,
41080,note_on,,,,,40,0,3,,,0,,,68,27
41120,note_off,,,,,40,0,3,,,0,,,68,64
41120,note_on,,,,,0,0,3,,,0,,,64,27
41150,note_off,,,,,110,0,2,,,0,,,45,64
41160,note_on,,,,,0,0,2,,,0,,,52,25
41160,note_off,,,,,40,0,3,,,0,,,64,64
41160,note_on,,,,,0,0,3,,,0,,,68,33
41160,note_on,,,,,10,0,2,,,0,,,56,25
41200,note_on,,,,,0,0,3,,,0,,,64,31
41200,note_off,,,,,40,0,3,,,0,,,68,64
41240,note_on,,,,,0,0,3,,,0,,,62,29
41240,control_change,,,,,80,0,2,,,0,64,0,,
41240,note_off,,,,,40,0,3,,,0,,,64,64
41256,note_off,,,,,16,0,2,,,0,,,52,64
41256,note_off,,,,,0,0,2,,,0,,,56,64
41280,note_on,,,,,24,0,2,,,0,,,57,25
41280,note_on,,,,,0,0,2,,,0,,,52,25
41280,note_on,,,,,0,0,1,,,0,,,69,30
41280,note_off,,,,,240,0,1,,,0,,,71,64
41280,note_on,,,,,0,0,3,,,0,,,61,27
41280,note_off,,,,,40,0,3,,,0,,,62,64
41280,control_change,,,,,0,0,2,,,0,64,127,,
41280,note_on,,,,,0,0,2,,,0,,,45,25
41320,set_tempo,,,,,280,1,0,1333333,,,,,,
41330,note_off,,,,,0,0,2,,,0,,,57,64
41330,note_off,,,,,0,0,2,,,0,,,52,64
41330,note_off,,,,,50,0,2,,,0,,,45,64
41340,note_on,,,,,10,0,2,,,0,,,45,41
41400,note_off,,,,,60,0,2,,,0,,,45,64
41400,control_change,,,,,0,0,2,,,0,64,0,,
41400,note_on,,,,,0,0,2,,,0,,,47,36
41400,note_off,,,,,120,0,3,,,0,,,61,64
41442,note_off,,,,,42,0,2,,,0,,,47,64
41460,note_on,,,,,18,0,2,,,0,,,49,39
41460,note_off,,,,,180,0,1,,,0,,,69,64
41502,note_off,,,,,42,0,2,,,0,,,49,64
41506,set_tempo,,,,,186,1,0,1304348,,,,,,
41520,note_on,,,,,18,0,2,,,0,,,47,44
41564,note_off,,,,,44,0,2,,,0,,,47,64
41580,note_on,,,,,16,0,2,,,0,,,45,40
41622,note_off,,,,,42,0,2,,,0,,,45,64
41640,note_on,,,,,18,0,2,,,0,,,44,46
41682,note_off,,,,,42,0,2,,,0,,,44,64
41700,note_on,,,,,18,0,2,,,0,,,42,52
41742,note_off,,,,,42,0,2,,,0,,,42,64
41760,control_change,,,,,0,0,2,,,0,64,127,,
41760,note_on,,,,,18,0,2,,,0,,,40,44
41760,note_on,,,,,300,0,1,,,0,,,59,29
41760,note_on,,,,,0,0,1,,,0,,,56,29
41820,note_on,,,,,0,0,2,,,0,,,52,32
41820,note_off,,,,,60,0,2,,,0,,,40,64
41840,set_tempo,,,,,334,1,0,1276596,,,,,,
41862,note_off,,,,,42,0,2,,,0,,,52,64
41880,note_on,,,,,18,0,2,,,0,,,52,26
41922,note_off,,,,,42,0,2,,,0,,,52,64
41940,note_on,,,,,18,0,2,,,0,,,52,26
41960,control_change,,,,,20,0,2,,,0,64,0,,
41982,note_off,,,,,22,0,2,,,0,,,52,64
42000,note_on,,,,,0,0,1,,,0,,,56,31
42000,note_on,,,,,0,0,1,,,0,,,59,31
42000,note_off,,,,,0,0,1,,,0,,,59,64
42000,note_off,,,,,240,0,1,,,0,,,56,64
42000,note_on,,,,,0,0,2,,,0,,,40,37
42000,control_change,,,,,18,0,2,,,0,64,127,,
42060,note_on,,,,,0,0,2,,,0,,,52,33
42060,note_off,,,,,60,0,2,,,0,,,40,64
42102,note_off,,,,,42,0,2,,,0,,,52,64
42106,set_tempo,,,,,266,1,0,1250000,,,,,,
42120,note_on,,,,,18,0,2,,,0,,,52,30
42162,note_off,,,,,42,0,2,,,0,,,52,64
42180,note_on,,,,,18,0,2,,,0,,,52,28
42200,control_change,,,,,20,0,2,,,0,64,0,,
42222,note_off,,,,,22,0,2,,,0,,,52,64
42240,note_on,,,,,18,0,2,,,0,,,37,37
42240,control_change,,,,,0,0,2,,,0,64,127,,
42240,note_off,,,,,0,0,1,,,0,,,59,64
42240,note_off,,,,,240,0,1,,,0,,,56,64
42240,note_on,,,,,0,0,1,,,0,,,52,37
42240,note_on,,,,,0,0,1,,,0,,,61,37
42240,note_on,,,,,0,0,1,,,0,,,58,37
42300,note_off,,,,,60,0,2,,,0,,,37,64
42300,note_on,,,,,0,0,2,,,0,,,49,28
42342,note_off,,,,,42,0,2,,,0,,,49,64
42360,note_on,,,,,18,0,2,,,0,,,49,30
42402,note_off,,,,,42,0,2,,,0,,,49,64
42412,set_tempo,,,,,306,1,0,1276596,,,,,,
42420,note_on,,,,,18,0,2,,,0,,,49,35
42432,set_tempo,,,,,20,1,0,1395349,,,,,,
42440,control_change,,,,,20,0,2,,,0,64,0,,
42462,note_off,,,,,22,0,2,,,0,,,49,64
42480,control_change,,,,,0,0,2,,,0,64,127,,
42480,note_on,,,,,18,0,2,,,0,,,35,41
42480,note_off,,,,,240,0,1,,,0,,,52,64
42480,note_off,,,,,0,0,1,,,0,,,61,64
42480,note_on,,,,,0,0,1,,,0,,,59,39
42480,note_on,,,,,0,0,1,,,0,,,62,39
42480,note_on,,,,,0,0,1,,,0,,,54,39
42480,note_off,,,,,0,0,1,,,0,,,58,64
42540,note_off,,,,,60,0,2,,,0,,,35,64
42540,note_on,,,,,0,0,2,,,0,,,47,35
42546,set_tempo,,,,,114,1,0,1250000,,,,,,
42582,note_off,,,,,42,0,2,,,0,,,47,64
42600,note_on,,,,,18,0,2,,,0,,,47,33
42642,note_off,,,,,42,0,2,,,0,,,47,64
42660,note_on,,,,,18,0,2,,,0,,,47,31
42660,note_on,,,,,0,0,1,,,0,,,61,34
42660,note_on,,,,,0,0,1,,,0,,,64,34
42660,note_off,,,,,180,0,1,,,0,,,59,64
42660,note_off,,,,,0,0,1,,,0,,,62,64
42680,control_change,,,,,20,0,2,,,0,64,0,,
42702,note_off,,,,,22,0,2,,,0,,,47,64
42720,note_on,,,,,0,0,1,,,0,,,62,30
42720,note_on,,,,,18,0,2,,,0,,,35,40
42720,control_change,,,,,0,0,2,,,0,64,127,,
42720,note_off,,,,,0,0,1,,,0,,,64,64
42720,note_off,,,,,60,0,1,,,0,,,61,64
42720,note_on,,,,,0,0,1,,,0,,,66,30
42780,note_off,,,,,60,0,2,,,0,,,35,64
42780,note_on,,,,,0,0,2,,,0,,,47,33
42822,note_off,,,,,42,0,2,,,0,,,47,64
42840,note_on,,,,,18,0,2,,,0,,,47,31
42882,note_off,,,,,42,0,2,,,0,,,47,64
42900,note_on,,,,,18,0,2,,,0,,,47,36
42900,note_off,,,,,180,0,1,,,0,,,54,64
42920,control_change,,,,,20,0,2,,,0,64,0,,
42942,note_off,,,,,22,0,2,,,0,,,47,64
42960,note_on,,,,,60,0,1,,,0,,,54,35
42960,control_change,,,,,0,0,2,,,0,64,127,,
42960,note_on,,,,,18,0,2,,,0,,,35,42
43020,note_off,,,,,60,0,1,,,0,,,62,64
43020,note_off,,,,,0,0,1,,,0,,,66,64
43020,note_on,,,,,0,0,2,,,0,,,47,33
43020,note_off,,,,,60,0,2,,,0,,,35,64
43062,note_off,,,,,42,0,2,,,0,,,47,64
43080,note_off,,,,,60,0,1,,,0,,,54,64
43080,note_on,,,,,18,0,2,,,0,,,35,45
43080,note_on,,,,,0,0,1,,,0,,,66,43
43080,note_on,,,,,0,0,1,,,0,,,62,43
43080,note_on,,,,,0,0,1,,,0,,,56,43
43122,note_off,,,,,42,0,2,,,0,,,35,64
43140,note_on,,,,,18,0,2,,,0,,,47,33
43160,control_change,,,,,20,0,2,,,0,64,0,,
43172,set_tempo,,,,,626,1,0,1395349,,,,,,
43182,note_off,,,,,22,0,2,,,0,,,47,64
43200,note_on,,,,,0,0,1,,,0,,,57,48
43200,note_on,,,,,0,0,2,,,0,,,33,46
43200,note_off,,,,,120,0,1,,,0,,,56,64
43200,note_on,,,,,0,0,1,,,0,,,62,48
43200,note_on,,,,,0,0,1,,,0,,,66,48
43200,note_off,,,,,0,0,1,,,0,,,66,64
43200,note_off,,,,,0,0,1,,,0,,,62,64
43200,control_change,,,,,18,0,2,,,0,64,127,,
43240,set_tempo,,,,,68,1,0,1250000,,,,,,
43260,note_off,,,,,60,0,2,,,0,,,33,64
43260,note_on,,,,,0,0,2,,,0,,,45,36
43302,note_off,,,,,42,0,2,,,0,,,45,64
43312,set_tempo,,,,,72,1,0,1224490,,,,,,
43320,note_on,,,,,18,0,2,,,0,,,45,40
43362,note_off,,,,,42,0,2,,,0,,,45,64
43380,note_on,,,,,0,0,1,,,0,,,67,49
43380,note_on,,,,,18,0,2,,,0,,,43,46
43380,note_on,,,,,0,0,1,,,0,,,62,49
43380,note_off,,,,,180,0,1,,,0,,,57,64
43380,note_off,,,,,0,0,1,,,0,,,62,64
43380,note_off,,,,,0,0,1,,,0,,,66,64
43380,note_on,,,,,0,0,1,,,0,,,59,49
43400,control_change,,,,,20,0,2,,,0,64,0,,
43422,note_off,,,,,22,0,2,,,0,,,43,64
43440,note_on,,,,,0,0,1,,,0,,,57,54
43440,note_on,,,,,0,0,1,,,0,,,62,54
43440,note_on,,,,,0,0,1,,,0,,,69,54
43440,note_off,,,,,0,0,1,,,0,,,67,64
43440,note_off,,,,,0,0,1,,,0,,,62,64
43440,note_off,,,,,60,0,1,,,0,,,59,64
43440,note_on,,,,,0,0,2,,,0,,,30,52
43440,control_change,,,,,18,0,2,,,0,64,127,,
43472,set_tempo,,,,,160,1,0,1200000,,,,,,
43482,note_off,,,,,42,0,2,,,0,,,30,64
43500,note_on,,,,,18,0,2,,,0,,,42,50
43542,note_off,,,,,42,0,2,,,0,,,42,64
43560,note_on,,,,,18,0,2,,,0,,,31,48
43560,note_on,,,,,0,0,1,,,0,,,67,56
43560,note_on,,,,,0,0,1,,,0,,,59,56
43560,note_off,,,,,120,0,1,,,0,,,57,64
43560,note_off,,,,,0,0,1,,,0,,,62,64
43560,note_off,,,,,0,0,1,,,0,,,69,64
43560,note_on,,,,,0,0,1,,,0,,,62,56
43572,set_tempo,,,,,100,1,0,1224490,,,,,,
43602,note_off,,,,,42,0,2,,,0,,,31,64
43620,note_on,,,,,18,0,2,,,0,,,43,42
43640,control_change,,,,,20,0,2,,,0,64,0,,
43662,note_off,,,,,22,0,2,,,0,,,43,64
43680,note_off,,,,,0,0,1,,,0,,,62,64
43680,note_off,,,,,0,0,1,,,0,,,67,64
43680,note_on,,,,,0,0,1,,,0,,,66,48
43680,note_off,,,,,120,0,1,,,0,,,59,64
43680,note_on,,,,,0,0,1,,,0,,,57,48
43680,note_on,,,,,0,0,1,,,0,,,62,48
43680,note_on,,,,,0,0,2,,,0,,,33,46
43680,control_change,,,,,18,0,2,,,0,64,127,,
43722,note_off,,,,,42,0,2,,,0,,,33,64
43740,note_on,,,,,18,0,2,,,0,,,45,42
43782,note_off,,,,,42,0,2,,,0,,,45,64
43800,note_on,,,,,18,0,2,,,0,,,33,36
43800,set_tempo,,,,,228,1,0,1250000,,,,,,
43800,note_on,,,,,0,0,1,,,0,,,64,37
43800,note_on,,,,,0,0,1,,,0,,,57,37
43800,note_on,,,,,0,0,1,,,0,,,61,37
43800,note_off,,,,,120,0,1,,,0,,,57,64
43800,note_off,,,,,0,0,1,,,0,,,62,64
43800,note_off,,,,,0,0,1,,,0,,,66,64
43800,note_on,,,,,0,0,1,,,0,,,55,37
43842,note_off,,,,,42,0,2,,,0,,,33,64
43860,note_on,,,,,18,0,2,,,0,,,45,32
43872,set_tempo,,,,,72,1,0,1304348,,,,,,
43880,set_tempo,,,,,8,1,0,1428571,,,,,,
43880,control_change,,,,,20,0,2,,,0,64,0,,
43900,note_off,,,,,100,0,1,,,0,,,55,64
43900,note_off,,,,,0,0,1,,,0,,,57,64
43900,note_off,,,,,0,0,1,,,0,,,61,64
43900,note_off,,,,,0,0,1,,,0,,,64,64
43902,note_off,,,,,22,0,2,,,0,,,45,64
43920,note_on,,,,,20,0,1,,,0,,,64,39
43920,note_on,,,,,0,0,1,,,0,,,61,39
43920,note_on,,,,,0,0,1,,,0,,,57,39
43920,note_on,,,,,0,0,1,,,0,,,55,39
43920,control_change,,,,,18,0,2,,,0,64,127,,
43920,note_on,,,,,0,0,2,,,0,,,33,38
43962,note_off,,,,,42,0,2,,,0,,,33,64
43980,note_on,,,,,18,0,2,,,0,,,45,31
43986,set_tempo,,,,,106,1,0,1333333,,,,,,
44000,set_tempo,,,,,14,1,0,1304348,,,,,,
44012,set_tempo,,,,,12,1,0,1276596,,,,,,
44022,note_off,,,,,42,0,2,,,0,,,45,64
44040,note_on,,,,,18,0,2,,,0,,,49,30
44082,note_off,,,,,42,0,2,,,0,,,49,64
44086,set_tempo,,,,,74,1,0,1250000,,,,,,
44100,note_on,,,,,18,0,2,,,0,,,45,31
44120,control_change,,,,,20,0,2,,,0,64,0,,
44142,note_off,,,,,22,0,2,,,0,,,45,64
44160,note_on,,,,,0,0,1,,,0,,,54,27
44160,note_on,,,,,0,0,1,,,0,,,62,27
44160,note_off,,,,,0,0,1,,,0,,,64,64
44160,note_off,,,,,0,0,1,,,0,,,61,64
44160,note_off,,,,,240,0,1,,,0,,,55,64
44160,note_off,,,,,0,0,1,,,0,,,57,64
44160,note_on,,,,,0,0,2,,,0,,,38,33
44160,control_change,,,,,18,0,2,,,0,64,127,,
44160,note_on,,,,,0,0,1,,,0,,,57,27
44186,set_tempo,,,,,100,1,0,1276596,,,,,,
44220,note_on,,,,,0,0,2,,,0,,,50,32
44220,note_off,,,,,60,0,2,,,0,,,38,64
44262,note_off,,,,,42,0,2,,,0,,,50,64
44280,note_on,,,,,18,0,2,,,0,,,50,30
44292,set_tempo,,,,,106,1,0,1304348,,,,,,
44322,note_off,,,,,42,0,2,,,0,,,50,64
44340,note_on,,,,,18,0,2,,,0,,,50,26
44380,set_tempo,,,,,88,1,0,1333333,,,,,,
44382,note_off,,,,,42,0,2,,,0,,,50,64
44400,note_on,,,,,18,0,2,,,0,,,50,23
44426,set_tempo,,,,,46,1,0,1363636,,,,,,
44442,note_off,,,,,42,0,2,,,0,,,50,64
44460,note_on,,,,,18,0,2,,,0,,,50,23
44480,set_tempo,,,,,54,1,0,1395349,,,,,,
44502,note_off,,,,,42,0,2,,,0,,,50,64
44520,note_on,,,,,18,0,2,,,0,,,50,24
44526,set_tempo,,,,,46,1,0,1428571,,,,,,
44552,set_tempo,,,,,26,1,0,1463415,,,,,,
44562,note_off,,,,,42,0,2,,,0,,,50,64
44580,note_off,,,,,0,0,1,,,0,,,57,64
44580,note_off,,,,,420,0,1,,,0,,,54,64
44580,note_on,,,,,18,0,2,,,0,,,50,25
44580,note_off,,,,,0,0,1,,,0,,,62,64
44586,set_tempo,,,,,34,1,0,2142857,,,,,,
44612,control_change,,,,,32,0,2,,,0,64,0,,
44622,note_off,,,,,10,0,2,,,0,,,50,64
44640,control_change,,,,,0,0,2,,,0,64,127,,
44640,note_on,,,,,18,0,2,,,0,,,38,30
44640,note_on,,,,,60,0,1,,,0,,,58,25
44640,note_on,,,,,0,0,1,,,0,,,53,25
44686,set_tempo,,,,,100,1,0,1500000,,,,,,
44700,note_on,,,,,0,0,2,,,0,,,50,25
44700,note_off,,,,,60,0,2,,,0,,,38,64
44726,set_tempo,,,,,40,1,0,1463415,,,,,,
44742,note_off,,,,,42,0,2,,,0,,,50,64
44752,set_tempo,,,,,26,1,0,1428571,,,,,,
44760,note_on,,,,,18,0,2,,,0,,,50,23
44780,set_tempo,,,,,28,1,0,1395349,,,,,,
44802,note_off,,,,,42,0,2,,,0,,,50,64
44820,note_on,,,,,18,0,2,,,0,,,50,22
44832,set_tempo,,,,,52,1,0,1363636,,,,,,
44840,control_change,,,,,20,0,2,,,0,64,0,,
44846,set_tempo,,,,,14,1,0,1333333,,,,,,
44862,note_off,,,,,22,0,2,,,0,,,50,64
44880,note_on,,,,,0,0,2,,,0,,,38,25
44880,control_change,,,,,18,0,2,,,0,64,127,,
44880,note_off,,,,,240,0,1,,,0,,,53,64
44880,note_off,,,,,0,0,1,,,0,,,58,64
44880,note_on,,,,,0,0,1,,,0,,,58,29
44880,note_on,,,,,0,0,1,,,0,,,53,29
44900,set_tempo,,,,,54,1,0,1304348,,,,,,
44940,note_on,,,,,0,0,2,,,0,,,50,25
44940,note_off,,,,,60,0,2,,,0,,,38,64
44952,set_tempo,,,,,52,1,0,1276596,,,,,,
44980,set_tempo,,,,,28,1,0,1250000,,,,,,
44982,note_off,,,,,42,0,2,,,0,,,50,64
45000,note_on,,,,,18,0,2,,,0,,,50,22
45042,note_off,,,,,42,0,2,,,0,,,50,64
45060,note_on,,,,,18,0,2,,,0,,,50,20
45080,control_change,,,,,20,0,2,,,0,64,0,,
45102,note_off,,,,,22,0,2,,,0,,,50,64
45120,control_change,,,,,18,0,2,,,0,64,127,,
45120,note_on,,,,,0,0,2,,,0,,,38,29
45120,note_on,,,,,0,0,1,,,0,,,53,35
45120,note_on,,,,,0,0,1,,,0,,,58,35
45120,note_off,,,,,0,0,1,,,0,,,58,64
45120,note_off,,,,,240,0,1,,,0,,,53,64
45180,note_off,,,,,60,0,2,,,0,,,38,64
45180,note_on,,,,,0,0,2,,,0,,,50,28
45222,note_off,,,,,42,0,2,,,0,,,50,64
45240,note_on,,,,,18,0,2,,,0,,,50,24
45282,note_off,,,,,42,0,2,,,0,,,50,64
45300,note_on,,,,,18,0,2,,,0,,,50,22
45300,set_tempo,,,,,320,1,0,1276596,,,,,,
45320,control_change,,,,,20,0,2,,,0,64,0,,
45320,set_tempo,,,,,20,1,0,1304348,,,,,,
45332,set_tempo,,,,,12,1,0,1428571,,,,,,
45342,note_off,,,,,22,0,2,,,0,,,50,64
45360,note_on,,,,,0,0,1,,,0,,,55,37
45360,note_on,,,,,18,0,2,,,0,,,39,31
45360,note_on,,,,,0,0,1,,,0,,,58,37
45360,control_change,,,,,0,0,2,,,0,64,127,,
45360,note_off,,,,,0,0,1,,,0,,,58,64
45360,note_off,,,,,240,0,1,,,0,,,53,64
45400,set_tempo,,,,,68,1,0,1304348,,,,,,
45420,note_on,,,,,0,0,2,,,0,,,51,28
45420,note_off,,,,,60,0,2,,,0,,,39,64
45462,note_off,,,,,42,0,2,,,0,,,51,64
45480,note_on,,,,,18,0,2,,,0,,,51,26
45522,note_off,,,,,42,0,2,,,0,,,51,64
45532,set_tempo,,,,,132,1,0,1363636,,,,,,
45540,note_on,,,,,0,0,1,,,0,,,57,33
45540,note_off,,,,,180,0,1,,,0,,,58,64
45540,note_on,,,,,18,0,2,,,0,,,51,23
45540,set_tempo,,,,,8,1,0,1538462,,,,,,
45546,set_tempo,,,,,6,1,0,1621622,,,,,,
45554,note_off,,,,,14,0,1,,,0,,,57,64
45556,note_on,,,,,2,0,1,,,0,,,58,32
45560,control_change,,,,,20,0,2,,,0,64,0,,
45570,note_on,,,,,14,0,1,,,0,,,60,31
45572,set_tempo,,,,,26,1,0,2222222,,,,,,
45572,note_off,,,,,2,0,1,,,0,,,58,64
45582,note_off,,,,,22,0,2,,,0,,,51,64
45584,note_off,,,,,12,0,1,,,0,,,60,64
45586,note_on,,,,,2,0,1,,,0,,,58,31
45600,set_tempo,,,,,28,1,0,1333333,,,,,,
45600,note_on,,,,,18,0,2,,,0,,,39,30
45600,note_on,,,,,0,0,1,,,0,,,55,31
45600,note_off,,,,,14,0,1,,,0,,,58,64
45600,control_change,,,,,0,0,2,,,0,64,127,,
45620,set_tempo,,,,,20,1,0,1304348,,,,,,
45660,note_on,,,,,0,0,2,,,0,,,51,27
45660,note_off,,,,,60,0,2,,,0,,,39,64
45702,note_off,,,,,42,0,2,,,0,,,51,64
45706,set_tempo,,,,,86,1,0,1276596,,,,,,
45720,note_on,,,,,18,0,2,,,0,,,36,36
45720,note_off,,,,,120,0,1,,,0,,,55,64
45720,note_on,,,,,0,0,1,,,0,,,63,28
45720,note_on,,,,,0,0,1,,,0,,,67,28
45720,note_on,,,,,0,0,1,,,0,,,55,28
45762,note_off,,,,,42,0,2,,,0,,,36,64
45780,note_on,,,,,18,0,2,,,0,,,48,28
45780,note_off,,,,,60,0,1,,,0,,,55,64
45806,set_tempo,,,,,100,1,0,1250000,,,,,,
45820,control_change,,,,,40,0,2,,,0,64,0,,
45822,note_off,,,,,2,0,2,,,0,,,48,64
45840,note_off,,,,,60,0,1,,,0,,,55,64
45840,note_on,,,,,0,0,1,,,0,,,65,33
45840,note_off,,,,,0,0,1,,,0,,,63,64
45840,note_off,,,,,0,0,1,,,0,,,67,64
45840,note_on,,,,,0,0,1,,,0,,,59,33
45840,note_on,,,,,0,0,1,,,0,,,55,33
45840,note_on,,,,,18,0,2,,,0,,,38,38
45840,control_change,,,,,0,0,2,,,0,64,127,,
45882,note_off,,,,,42,0,2,,,0,,,38,64
45892,set_tempo,,,,,86,1,0,1224490,,,,,,
45900,note_on,,,,,18,0,2,,,0,,,50,32
45920,set_tempo,,,,,28,1,0,1250000,,,,,,
45926,set_tempo,,,,,6,1,0,1224490,,,,,,
45940,control_change,,,,,40,0,2,,,0,64,0,,
45942,note_off,,,,,2,0,2,,,0,,,50,64
45960,note_off,,,,,0,0,1,,,0,,,59,64
45960,note_on,,,,,0,0,1,,,0,,,55,41
45960,note_on,,,,,0,0,1,,,0,,,63,41
45960,note_off,,,,,120,0,1,,,0,,,55,64
45960,note_on,,,,,0,0,1,,,0,,,60,41
45960,note_off,,,,,0,0,1,,,0,,,65,64
45960,note_on,,,,,0,0,2,,,0,,,39,43
45960,control_change,,,,,18,0,2,,,0,64,127,,
46002,note_off,,,,,42,0,2,,,0,,,39,64
46020,note_on,,,,,18,0,2,,,0,,,51,36
46060,control_change,,,,,40,0,2,,,0,64,0,,
46062,note_off,,,,,2,0,2,,,0,,,51,64
46080,note_off,,,,,0,0,1,,,0,,,63,64
46080,note_off,,,,,0,0,1,,,0,,,60,64
46080,note_off,,,,,120,0,1,,,0,,,55,64
46080,note_on,,,,,18,0,2,,,0,,,29,45
46080,note_on,,,,,0,0,1,,,0,,,53,48
46080,note_on,,,,,0,0,1,,,0,,,58,48
46080,note_on,,,,,0,0,1,,,0,,,62,48
46080,control_change,,,,,0,0,2,,,0,64,127,,
46140,note_on,,,,,0,0,2,,,0,,,41,31
46140,note_off,,,,,60,0,2,,,0,,,29,64
46182,note_off,,,,,42,0,2,,,0,,,41,64
46192,set_tempo,,,,,266,1,0,1250000,,,,,,
46200,note_on,,,,,18,0,2,,,0,,,41,34
46242,note_off,,,,,42,0,2,,,0,,,41,64
46260,note_on,,,,,18,0,2,,,0,,,41,31
46280,control_change,,,,,20,0,2,,,0,64,0,,
46302,note_off,,,,,22,0,2,,,0,,,41,64
46320,note_on,,,,,0,0,2,,,0,,,29,37
46320,control_change,,,,,18,0,2,,,0,64,127,,
46352,set_tempo,,,,,160,1,0,1276596,,,,,,
46380,note_on,,,,,0,0,2,,,0,,,41,33
46380,note_off,,,,,60,0,2,,,0,,,29,64
46422,note_off,,,,,42,0,2,,,0,,,41,64
46440,note_on,,,,,18,0,2,,,0,,,41,30
46482,note_off,,,,,42,0,2,,,0,,,41,64
46500,note_on,,,,,18,0,2,,,0,,,41,34
46520,control_change,,,,,20,0,2,,,0,64,0,,
46542,note_off,,,,,22,0,2,,,0,,,41,64
46560,control_change,,,,,0,0,2,,,0,64,127,,
46560,note_off,,,,,0,0,1,,,0,,,62,64
46560,note_off,,,,,0,0,1,,,0,,,58,64
46560,note_off,,,,,480,0,1,,,0,,,53,64
46560,note_on,,,,,0,0,1,,,0,,,63,42
46560,note_on,,,,,0,0,1,,,0,,,57,42
46560,note_on,,,,,0,0,1,,,0,,,51,42
46560,note_on,,,,,18,0,2,,,0,,,29,42
46620,set_tempo,,,,,268,1,0,1304348,,,,,,
46620,note_off,,,,,60,0,2,,,0,,,29,64
46620,note_on,,,,,0,0,2,,,0,,,41,36
46662,note_off,,,,,42,0,2,,,0,,,41,64
46680,note_on,,,,,18,0,2,,,0,,,41,39
46720,set_tempo,,,,,100,1,0,1333333,,,,,,
46722,note_off,,,,,42,0,2,,,0,,,41,64
46726,set_tempo,,,,,6,1,0,1363636,,,,,,
46740,note_on,,,,,0,0,1,,,0,,,60,49
46740,note_on,,,,,18,0,2,,,0,,,41,44
46740,note_off,,,,,180,0,1,,,0,,,57,64
46740,note_off,,,,,0,0,1,,,0,,,63,64
46752,set_tempo,,,,,26,1,0,1395349,,,,,,
46760,control_change,,,,,20,0,2,,,0,64,0,,
46772,set_tempo,,,,,20,1,0,1578947,,,,,,
46782,note_off,,,,,22,0,2,,,0,,,41,64
46800,note_on,,,,,0,0,1,,,0,,,50,47
46800,note_on,,,,,0,0,1,,,0,,,56,47
46800,note_off,,,,,0,0,1,,,0,,,51,64
46800,control_change,,,,,0,0,2,,,0,64,127,,
46800,note_on,,,,,0,0,1,,,0,,,59,47
46800,note_on,,,,,18,0,2,,,0,,,29,48
46800,note_off,,,,,60,0,1,,,0,,,60,64
46860,set_tempo,,,,,88,1,0,1538462,,,,,,
46860,note_off,,,,,60,0,2,,,0,,,29,64
46860,note_on,,,,,0,0,2,,,0,,,41,44
46872,set_tempo,,,,,12,1,0,1500000,,,,,,
46902,note_off,,,,,42,0,2,,,0,,,41,64
46906,set_tempo,,,,,34,1,0,1463415,,,,,,
46920,note_on,,,,,18,0,2,,,0,,,41,40
46932,set_tempo,,,,,26,1,0,1428571,,,,,,
46960,set_tempo,,,,,28,1,0,1395349,,,,,,
46962,note_off,,,,,42,0,2,,,0,,,41,64
46980,note_on,,,,,18,0,2,,,0,,,41,38
46980,set_tempo,,,,,20,1,0,1363636,,,,,,
47000,control_change,,,,,20,0,2,,,0,64,0,,
47022,note_off,,,,,22,0,2,,,0,,,41,64
47032,set_tempo,,,,,52,1,0,1333333,,,,,,
47040,note_on,,,,,18,0,2,,,0,,,29,40
47040,control_change,,,,,0,0,2,,,0,64,127,,
47100,note_off,,,,,60,0,2,,,0,,,29,64
47100,note_on,,,,,0,0,2,,,0,,,41,38
47112,set_tempo,,,,,80,1,0,1304348,,,,,,
47142,note_off,,,,,42,0,2,,,0,,,41,64
47160,note_on,,,,,18,0,2,,,0,,,41,35
47202,note_off,,,,,42,0,2,,,0,,,41,64
47220,note_on,,,,,18,0,2,,,0,,,41,32
47246,set_tempo,,,,,134,1,0,1276596,,,,,,
47250,control_change,,,,,30,0,2,,,0,64,0,,
47262,note_off,,,,,12,0,2,,,0,,,41,64
47280,note_on,,,,,18,0,2,,,0,,,29,29
47280,control_change,,,,,0,0,2,,,0,64,127,,
47340,note_on,,,,,0,0,2,,,0,,,41,31
47340,note_off,,,,,60,0,2,,,0,,,29,64
47382,note_off,,,,,42,0,2,,,0,,,41,64
47400,note_on,,,,,18,0,2,,,0,,,41,31
47442,note_off,,,,,42,0,2,,,0,,,41,64
47460,note_on,,,,,18,0,2,,,0,,,41,28
47460,note_off,,,,,0,0,1,,,0,,,59,64
47460,note_off,,,,,660,0,1,,,0,,,50,64
47460,note_off,,,,,0,0,1,,,0,,,56,64
47490,control_change,,,,,30,0,2,,,0,64,0,,
47502,note_off,,,,,12,0,2,,,0,,,41,64
47520,note_on,,,,,18,0,2,,,0,,,40,27
47520,control_change,,,,,0,0,2,,,0,64,127,,
47520,note_on,,,,,0,0,1,,,0,,,56,34
47520,note_on,,,,,0,0,1,,,0,,,50,34
47520,note_on,,,,,60,0,1,,,0,,,59,34
47580,note_on,,,,,0,0,2,,,0,,,52,26
47580,note_off,,,,,60,0,2,,,0,,,40,64
47622,note_off,,,,,42,0,2,,,0,,,52,64
47640,note_on,,,,,18,0,2,,,0,,,52,26
47660,set_tempo,,,,,414,1,0,1304348,,,,,,
47682,note_off,,,,,42,0,2,,,0,,,52,64
47700,note_on,,,,,18,0,2,,,0,,,52,25
47730,control_change,,,,,30,0,2,,,0,64,0,,
47742,note_off,,,,,12,0,2,,,0,,,52,64
47760,note_on,,,,,18,0,2,,,0,,,40,37
47760,control_change,,,,,0,0,2,,,0,64,127,,
47820,note_off,,,,,60,0,2,,,0,,,40,64
47820,note_on,,,,,0,0,2,,,0,,,52,35
47862,note_off,,,,,42,0,2,,,0,,,52,64
47872,set_tempo,,,,,212,1,0,1333333,,,,,,
47880,note_on,,,,,18,0,2,,,0,,,52,33
47880,note_on,,,,,0,0,1,,,0,,,61,44
47880,note_off,,,,,360,0,1,,,0,,,59,64
47922,note_off,,,,,42,0,2,,,0,,,52,64
47940,note_on,,,,,0,0,1,,,0,,,62,49
47940,note_off,,,,,60,0,1,,,0,,,61,64
47940,note_on,,,,,18,0,2,,,0,,,52,39
47952,set_tempo,,,,,80,1,0,1363636,,,,,,
47970,control_change,,,,,30,0,2,,,0,64,0,,
47982,note_off,,,,,12,0,2,,,0,,,52,64
48000,note_on,,,,,18,0,2,,,0,,,40,53
48000,control_change,,,,,0,0,2,,,0,64,127,,
48000,note_on,,,,,0,0,1,,,0,,,64,58
48000,note_off,,,,,0,0,1,,,0,,,50,64
48000,note_off,,,,,60,0,1,,,0,,,62,64
48000,note_off,,,,,0,0,1,,,0,,,56,64
48006,set_tempo,,,,,54,1,0,1395349,,,,,,
48026,set_tempo,,,,,20,1,0,1428571,,,,,,
48060,note_off,,,,,60,0,2,,,0,,,40,64
48060,note_on,,,,,0,0,2,,,0,,,52,42
48072,set_tempo,,,,,46,1,0,1463415,,,,,,
48100,set_tempo,,,,,28,1,0,1500000,,,,,,
48102,note_off,,,,,42,0,2,,,0,,,52,64
48120,note_on,,,,,0,0,1,,,0,,,52,48
48120,note_on,,,,,18,0,2,,,0,,,40,57
48120,note_off,,,,,120,0,1,,,0,,,64,64
48120,note_on,,,,,0,0,1,,,0,,,50,48
48120,note_on,,,,,0,0,1,,,0,,,56,48
48126,set_tempo,,,,,26,1,0,1538462,,,,,,
48132,set_tempo,,,,,6,1,0,1578947,,,,,,
48146,set_tempo,,,,,14,1,0,1621622,,,,,,
48152,set_tempo,,,,,6,1,0,1666667,,,,,,
48162,note_off,,,,,42,0,2,,,0,,,40,64
48166,set_tempo,,,,,14,1,0,1714286,,,,,,
48180,note_on,,,,,18,0,2,,,0,,,40,47
48180,note_off,,,,,60,0,1,,,0,,,50,64
48186,set_tempo,,,,,20,1,0,1818182,,,,,,
48206,set_tempo,,,,,20,1,0,1875000,,,,,,
48210,control_change,,,,,30,0,2,,,0,64,0,,
48212,set_tempo,,,,,6,1,0,1935484,,,,,,
48222,note_off,,,,,12,0,2,,,0,,,40,64
48226,set_tempo,,,,,14,1,0,3000000,,,,,,
48240,note_on,,,,,0,0,2,,,0,,,33,37
48240,control_change,,,,,18,0,2,,,0,64,127,,
48240,note_off,,,,,60,0,1,,,0,,,52,64
48240,note_off,,,,,0,0,1,,,0,,,56,64
48240,note_on,,,,,0,0,1,,,0,,,57,27
48240,note_on,,,,,0,0,1,,,0,,,52,27
48240,note_on,,,,,0,0,1,,,0,,,49,27
48240,set_tempo,,,,,14,1,0,2857143,,,,,,
48252,set_tempo,,,,,12,1,0,1578947,,,,,,
48260,set_tempo,,,,,8,1,0,1463415,,,,,,
48266,set_tempo,,,,,6,1,0,1428571,,,,,,
48286,set_tempo,,,,,20,1,0,1395349,,,,,,
48300,note_off,,,,,60,0,2,,,0,,,33,64
48300,note_on,,,,,0,0,2,,,0,,,45,35
48312,set_tempo,,,,,26,1,0,1363636,,,,,,
48340,set_tempo,,,,,28,1,0,1333333,,,,,,
48342,note_off,,,,,42,0,2,,,0,,,45,64
48360,note_on,,,,,18,0,2,,,0,,,45,33
48366,set_tempo,,,,,26,1,0,1304348,,,,,,
48390,control_change,,,,,30,0,2,,,0,64,0,,
48402,note_off,,,,,12,0,2,,,0,,,45,64
48412,set_tempo,,,,,46,1,0,1276596,,,,,,
48420,note_on,,,,,18,0,2,,,0,,,45,29
48452,set_tempo,,,,,40,1,0,1250000,,,,,,
48462,note_off,,,,,42,0,2,,,0,,,45,64
48480,note_off,,,,,240,0,1,,,0,,,49,64
48480,note_off,,,,,0,0,1,,,0,,,57,64
48480,note_on,,,,,0,0,1,,,0,,,49,30
48480,note_on,,,,,0,0,1,,,0,,,57,30
48480,note_off,,,,,0,0,1,,,0,,,52,64
48480,control_change,,,,,0,0,2,,,0,64,127,,
48480,note_on,,,,,18,0,2,,,0,,,33,39
48540,note_off,,,,,60,0,2,,,0,,,33,64
48540,note_on,,,,,0,0,2,,,0,,,45,36
48582,note_off,,,,,42,0,2,,,0,,,45,64
48600,note_on,,,,,18,0,2,,,0,,,45,33
48630,control_change,,,,,30,0,2,,,0,64,0,,
48642,note_off,,,,,12,0,2,,,0,,,45,64
48660,note_on,,,,,18,0,2,,,0,,,45,29
48702,note_off,,,,,42,0,2,,,0,,,45,64
48720,note_on,,,,,0,0,1,,,0,,,59,35
48720,note_off,,,,,0,0,1,,,0,,,57,64
48720,note_off,,,,,240,0,1,,,0,,,49,64
48720,note_on,,,,,0,0,1,,,0,,,57,35
48720,note_on,,,,,18,0,2,,,0,,,33,46
48720,control_change,,,,,0,0,2,,,0,64,127,,
48720,note_on,,,,,0,0,1,,,0,,,50,35
48780,note_off,,,,,60,0,2,,,0,,,33,64
48780,note_on,,,,,0,0,2,,,0,,,45,43
48822,note_off,,,,,42,0,2,,,0,,,45,64
48840,note_on,,,,,18,0,2,,,0,,,45,40
48870,control_change,,,,,30,0,2,,,0,64,0,,
48880,set_tempo,,,,,428,1,0,1363636,,,,,,
48882,note_off,,,,,12,0,2,,,0,,,45,64
48900,note_on,,,,,18,0,2,,,0,,,45,37
48942,note_off,,,,,42,0,2,,,0,,,45,64
48960,control_change,,,,,0,0,2,,,0,64,127,,
48960,note_on,,,,,0,0,1,,,0,,,52,40
48960,note_on,,,,,0,0,1,,,0,,,57,40
48960,note_off,,,,,240,0,1,,,0,,,50,64
48960,note_off,,,,,0,0,1,,,0,,,57,64
48960,note_off,,,,,0,0,1,,,0,,,59,64
48960,note_on,,,,,0,0,1,,,0,,,61,40
48960,note_on,,,,,18,0,2,,,0,,,33,43
49020,note_on,,,,,0,0,2,,,0,,,45,42
49020,note_off,,,,,60,0,2,,,0,,,33,64
49040,set_tempo,,,,,160,1,0,1250000,,,,,,
49062,note_off,,,,,42,0,2,,,0,,,45,64
49080,note_on,,,,,18,0,2,,,0,,,45,38
49110,control_change,,,,,30,0,2,,,0,64,0,,
49122,note_off,,,,,12,0,2,,,0,,,45,64
49140,note_off,,,,,0,0,1,,,0,,,61,64
49140,note_on,,,,,0,0,1,,,0,,,59,38
49140,note_on,,,,,0,0,1,,,0,,,57,38
49140,note_on,,,,,0,0,1,,,0,,,50,38
49140,note_off,,,,,0,0,1,,,0,,,57,64
49140,note_off,,,,,180,0,1,,,0,,,52,64
49140,note_on,,,,,18,0,2,,,0,,,45,33
49182,note_off,,,,,42,0,2,,,0,,,45,64
49200,note_off,,,,,60,0,1,,,0,,,50,64
49200,note_off,,,,,0,0,1,,,0,,,57,64
49200,note_on,,,,,0,0,1,,,0,,,57,34
49200,note_on,,,,,0,0,1,,,0,,,49,34
49200,note_on,,,,,0,0,2,,,0,,,45,34
49200,control_change,,,,,18,0,2,,,0,64,127,,
49200,note_off,,,,,0,0,1,,,0,,,59,64
49232,set_tempo,,,,,192,1,0,1276596,,,,,,
49260,note_on,,,,,0,0,2,,,0,,,45,32
49260,note_off,,,,,60,0,2,,,0,,,45,64
49302,note_off,,,,,42,0,2,,,0,,,45,64
49320,note_on,,,,,18,0,2,,,0,,,45,29
49350,control_change,,,,,30,0,2,,,0,64,0,,
49362,note_off,,,,,12,0,2,,,0,,,45,64
49380,set_tempo,,,,,148,1,0,1304348,,,,,,
49380,note_on,,,,,18,0,2,,,0,,,45,29
49422,note_off,,,,,42,0,2,,,0,,,45,64
49440,note_on,,,,,0,0,2,,,0,,,33,35
49440,control_change,,,,,18,0,2,,,0,64,127,,
49500,note_off,,,,,60,0,2,,,0,,,33,64
49500,note_on,,,,,0,0,2,,,0,,,45,40
49500,note_off,,,,,300,0,1,,,0,,,49,64
49500,note_off,,,,,0,0,1,,,0,,,57,64
49542,note_off,,,,,42,0,2,,,0,,,45,64
49560,note_on,,,,,0,0,1,,,0,,,52,35
49560,note_on,,,,,0,0,1,,,0,,,57,35
49560,note_on,,,,,18,0,2,,,0,,,45,43
49560,note_on,,,,,60,0,1,,,0,,,61,35
49580,set_tempo,,,,,200,1,0,1333333,,,,,,
49590,control_change,,,,,30,0,2,,,0,64,0,,
49602,note_off,,,,,12,0,2,,,0,,,45,64
49620,note_off,,,,,0,0,1,,,0,,,57,64
49620,note_on,,,,,18,0,2,,,0,,,45,46
49620,note_off,,,,,60,0,1,,,0,,,52,64
49662,note_off,,,,,42,0,2,,,0,,,45,64
49680,note_on,,,,,18,0,2,,,0,,,33,46
49680,control_change,,,,,0,0,2,,,0,64,127,,
49680,note_on,,,,,0,0,1,,,0,,,57,40
49680,note_on,,,,,0,0,1,,,0,,,54,40
49680,note_on,,,,,0,0,1,,,0,,,62,40
49680,note_off,,,,,60,0,1,,,0,,,61,64
49740,note_off,,,,,60,0,2,,,0,,,33,64
49740,note_on,,,,,0,0,2,,,0,,,45,41
49780,set_tempo,,,,,200,1,0,1304348,,,,,,
49782,note_off,,,,,42,0,2,,,0,,,45,64
49800,note_on,,,,,18,0,2,,,0,,,45,38
49826,set_tempo,,,,,46,1,0,1276596,,,,,,
49830,control_change,,,,,30,0,2,,,0,64,0,,
49832,set_tempo,,,,,6,1,0,1250000,,,,,,
49842,note_off,,,,,12,0,2,,,0,,,45,64
49846,set_tempo,,,,,14,1,0,1224490,,,,,,
49860,note_on,,,,,18,0,2,,,0,,,45,37
49860,note_on,,,,,0,0,1,,,0,,,61,35
49860,note_off,,,,,0,0,1,,,0,,,62,64
49860,note_off,,,,,180,0,1,,,0,,,54,64
49860,note_on,,,,,0,0,1,,,0,,,52,35
49902,note_off,,,,,42,0,2,,,0,,,45,64
49906,set_tempo,,,,,60,1,0,1200000,,,,,,
49920,note_on,,,,,18,0,2,,,0,,,45,42
49920,control_change,,,,,0,0,2,,,0,64,127,,
49920,note_on,,,,,0,0,1,,,0,,,57,33
49920,note_off,,,,,60,0,1,,,0,,,52,64
49920,note_off,,,,,0,0,1,,,0,,,61,64
49920,note_off,,,,,0,0,1,,,0,,,57,64
49920,note_on,,,,,0,0,1,,,0,,,59,33
49920,note_on,,,,,0,0,1,,,0,,,50,33
49980,note_off,,,,,60,0,2,,,0,,,45,64
49980,note_on,,,,,0,0,2,,,0,,,45,39
49992,set_tempo,,,,,86,1,0,1224490,,,,,,
50022,note_off,,,,,42,0,2,,,0,,,45,64
50040,note_on,,,,,0,0,1,,,0,,,62,36
50040,note_on,,,,,0,0,1,,,0,,,54,36
50040,note_on,,,,,0,0,1,,,0,,,57,36
50040,note_off,,,,,120,0,1,,,0,,,50,64
50040,note_off,,,,,0,0,1,,,0,,,59,64
50040,note_off,,,,,0,0,1,,,0,,,57,64
50040,note_on,,,,,18,0,2,,,0,,,33,37
50070,control_change,,,,,30,0,2,,,0,64,0,,
50072,set_tempo,,,,,80,1,0,1250000,,,,,,
50082,note_off,,,,,12,0,2,,,0,,,33,64
50100,note_on,,,,,18,0,2,,,0,,,45,34
50142,note_off,,,,,42,0,2,,,0,,,45,64
50160,note_off,,,,,120,0,1,,,0,,,54,64
50160,note_on,,,,,0,0,1,,,0,,,61,31
50160,note_off,,,,,0,0,1,,,0,,,62,64
50160,note_off,,,,,0,0,1,,,0,,,57,64
50160,note_on,,,,,0,0,1,,,0,,,52,31
50160,control_change,,,,,18,0,2,,,0,64,127,,
50160,note_on,,,,,0,0,2,,,0,,,33,37
50160,note_on,,,,,0,0,1,,,0,,,57,31
50172,set_tempo,,,,,100,1,0,1276596,,,,,,
50220,note_off,,,,,60,0,2,,,0,,,33,64
50220,note_on,,,,,0,0,2,,,0,,,45,35
50262,note_off,,,,,42,0,2,,,0,,,45,64
50280,note_on,,,,,0,0,1,,,0,,,57,32
50280,note_off,,,,,0,0,1,,,0,,,61,64
50280,note_off,,,,,0,0,1,,,0,,,57,64
50280,note_off,,,,,120,0,1,,,0,,,52,64
50280,note_on,,,,,0,0,1,,,0,,,52,32
50280,note_on,,,,,18,0,2,,,0,,,37,31
50280,note_on,,,,,0,0,1,,,0,,,49,32
50292,set_tempo,,,,,120,1,0,1304348,,,,,,
50310,control_change,,,,,30,0,2,,,0,64,0,,
50322,note_off,,,,,12,0,2,,,0,,,37,64
50340,note_on,,,,,18,0,2,,,0,,,49,28
50382,note_off,,,,,42,0,2,,,0,,,49,64
50400,note_on,,,,,18,0,2,,,0,,,40,38
50400,note_off,,,,,0,0,1,,,0,,,52,64
50400,note_off,,,,,0,0,1,,,0,,,57,64
50400,control_change,,,,,0,0,2,,,0,64,127,,
50400,note_on,,,,,0,0,1,,,0,,,52,39
50400,note_on,,,,,0,0,1,,,0,,,56,39
50400,note_on,,,,,0,0,1,,,0,,,47,39
50400,note_off,,,,,120,0,1,,,0,,,49,64
50432,set_tempo,,,,,140,1,0,1276596,,,,,,
50460,note_on,,,,,0,0,2,,,0,,,40,36
50460,note_off,,,,,60,0,2,,,0,,,40,64
50502,note_off,,,,,42,0,2,,,0,,,40,64
50512,set_tempo,,,,,80,1,0,1250000,,,,,,
50520,note_on,,,,,18,0,2,,,0,,,40,32
50550,control_change,,,,,30,0,2,,,0,64,0,,
50562,note_off,,,,,12,0,2,,,0,,,40,64
50580,note_on,,,,,18,0,2,,,0,,,40,31
50622,note_off,,,,,42,0,2,,,0,,,40,64
50640,note_on,,,,,18,0,2,,,0,,,40,48
50684,note_off,,,,,44,0,2,,,0,,,40,64
50700,note_off,,,,,300,0,1,,,0,,,47,64
50700,note_off,,,,,0,0,1,,,0,,,56,64
50700,note_off,,,,,0,0,1,,,0,,,52,64
50700,note_on,,,,,16,0,2,,,0,,,40,44
50720,set_tempo,,,,,208,1,0,1276596,,,,,,
50742,note_off,,,,,42,0,2,,,0,,,40,64
50760,note_on,,,,,0,0,1,,,0,,,47,50
50760,note_on,,,,,60,0,1,,,0,,,56,50
50760,note_on,,,,,0,0,1,,,0,,,54,50
50760,note_on,,,,,18,0,2,,,0,,,38,47
50766,set_tempo,,,,,46,1,0,1304348,,,,,,
50802,note_off,,,,,42,0,2,,,0,,,38,64
50806,set_tempo,,,,,40,1,0,1333333,,,,,,
50820,note_on,,,,,18,0,2,,,0,,,38,53
50846,set_tempo,,,,,40,1,0,1363636,,,,,,
50862,note_off,,,,,0,0,1,,,0,,,56,64
50862,note_off,,,,,0,0,1,,,0,,,54,64
50862,note_off,,,,,102,0,1,,,0,,,47,64
50862,note_off,,,,,42,0,2,,,0,,,38,64
50872,set_tempo,,,,,26,1,0,1395349,,,,,,
50880,note_on,,,,,0,0,1,,,0,,,52,56
50880,note_on,,,,,0,0,1,,,0,,,49,56
50880,note_on,,,,,18,0,2,,,0,,,37,56
50880,note_on,,,,,18,0,1,,,0,,,56,56
50912,set_tempo,,,,,40,1,0,1428571,,,,,,
50924,note_off,,,,,44,0,2,,,0,,,37,64
50926,set_tempo,,,,,14,1,0,1463415,,,,,,
50940,note_on,,,,,16,0,2,,,0,,,37,60
50980,set_tempo,,,,,54,1,0,1500000,,,,,,
50982,note_off,,,,,42,0,2,,,0,,,37,64
50982,note_off,,,,,0,0,1,,,0,,,56,64
50982,note_off,,,,,0,0,1,,,0,,,49,64
50982,note_off,,,,,102,0,1,,,0,,,52,64
51000,note_on,,,,,18,0,2,,,0,,,35,63
51000,note_on,,,,,0,0,1,,,0,,,50,67
51000,note_on,,,,,0,0,1,,,0,,,52,67
51000,note_on,,,,,18,0,1,,,0,,,56,67
51042,note_off,,,,,42,0,2,,,0,,,35,64
51060,note_on,,,,,18,0,2,,,0,,,35,67
51080,set_tempo,,,,,100,1,0,1538462,,,,,,
51102,note_off,,,,,0,0,1,,,0,,,56,64
51102,note_off,,,,,0,0,1,,,0,,,52,64
51102,note_off,,,,,102,0,1,,,0,,,50,64
51102,note_off,,,,,42,0,2,,,0,,,35,64
51120,note_on,,,,,18,0,2,,,0,,,33,76
51120,control_change,,,,,0,0,2,,,0,64,127,,
51120,note_on,,,,,0,0,1,,,0,,,52,75
51120,note_on,,,,,0,0,1,,,0,,,48,75
51120,note_on,,,,,18,0,1,,,0,,,57,75
51132,set_tempo,,,,,52,1,0,1304348,,,,,,
51146,set_tempo,,,,,14,1,0,1276596,,,,,,
51180,note_on,,,,,0,0,2,,,0,,,45,73
51180,note_off,,,,,60,0,2,,,0,,,33,64
51180,set_tempo,,,,,34,1,0,1250000,,,,,,
51222,note_off,,,,,42,0,2,,,0,,,45,64
51240,note_on,,,,,18,0,2,,,0,,,45,71
51270,control_change,,,,,30,0,2,,,0,64,0,,
51282,note_off,,,,,12,0,2,,,0,,,45,64
51300,note_on,,,,,18,0,2,,,0,,,45,68
51342,note_off,,,,,42,0,2,,,0,,,45,64
51360,note_on,,,,,0,0,2,,,0,,,33,79
51360,control_change,,,,,18,0,2,,,0,64,127,,
51360,note_off,,,,,0,0,1,,,0,,,52,64
51360,note_off,,,,,0,0,1,,,0,,,57,64
51360,note_on,,,,,0,0,1,,,0,,,57,66
51360,note_on,,,,,0,0,1,,,0,,,48,66
51360,note_on,,,,,0,0,1,,,0,,,52,66
51360,note_off,,,,,240,0,1,,,0,,,48,64
51420,note_on,,,,,0,0,2,,,0,,,45,76
51420,note_off,,,,,60,0,2,,,0,,,33,64
51462,note_off,,,,,42,0,2,,,0,,,45,64
51480,note_on,,,,,18,0,2,,,0,,,45,72
51510,control_change,,,,,30,0,2,,,0,64,0,,
51522,note_off,,,,,12,0,2,,,0,,,45,64
51540,note_on,,,,,18,0,2,,,0,,,45,69
51582,note_off,,,,,42,0,2,,,0,,,45,64
51600,note_off,,,,,240,0,1,,,0,,,52,64
51600,note_on,,,,,0,0,1,,,0,,,50,79
51600,note_off,,,,,0,0,1,,,0,,,57,64
51600,note_off,,,,,0,0,1,,,0,,,48,64
51600,note_on,,,,,0,0,1,,,0,,,53,79
51600,control_change,,,,,18,0,2,,,0,64,127,,
51600,note_on,,,,,0,0,2,,,0,,,31,84
51600,note_on,,,,,0,0,1,,,0,,,59,79
51660,note_off,,,,,60,0,2,,,0,,,31,64
51660,note_on,,,,,0,0,2,,,0,,,43,82
51702,note_off,,,,,42,0,2,,,0,,,43,64
51720,note_on,,,,,18,0,2,,,0,,,43,80
51750,control_change,,,,,30,0,2,,,0,64,0,,
51760,set_tempo,,,,,580,1,0,1276596,,,,,,
51762,note_off,,,,,12,0,2,,,0,,,43,64
51780,note_on,,,,,18,0,2,,,0,,,43,78
51786,set_tempo,,,,,26,1,0,1304348,,,,,,
51806,set_tempo,,,,,20,1,0,1333333,,,,,,
51820,set_tempo,,,,,14,1,0,1363636,,,,,,
51822,note_off,,,,,42,0,2,,,0,,,43,64
51840,note_on,,,,,0,0,1,,,0,,,55,87
51840,note_on,,,,,0,0,1,,,0,,,52,87
51840,note_off,,,,,0,0,1,,,0,,,53,64
51840,note_on,,,,,0,0,1,,,0,,,60,87
51840,note_on,,,,,0,0,2,,,0,,,36,94
51840,control_change,,,,,18,0,2,,,0,64,127,,
51840,note_off,,,,,0,0,1,,,0,,,50,64
51840,note_off,,,,,240,0,1,,,0,,,59,64
51880,set_tempo,,,,,60,1,0,1333333,,,,,,
51900,set_tempo,,,,,20,1,0,1304348,,,,,,
51900,note_off,,,,,60,0,2,,,0,,,36,64
51900,note_on,,,,,0,0,2,,,0,,,48,83
51920,set_tempo,,,,,20,1,0,1276596,,,,,,
51940,set_tempo,,,,,20,1,0,1250000,,,,,,
51942,note_off,,,,,42,0,2,,,0,,,48,64
51960,note_on,,,,,18,0,2,,,0,,,48,78
51990,control_change,,,,,30,0,2,,,0,64,0,,
52002,note_off,,,,,12,0,2,,,0,,,48,64
52020,note_off,,,,,0,0,1,,,0,,,52,64
52020,note_on,,,,,0,0,1,,,0,,,53,77
52020,note_on,,,,,18,0,2,,,0,,,48,70
52020,note_off,,,,,180,0,1,,,0,,,55,64
52020,note_on,,,,,0,0,1,,,0,,,57,77
52062,note_off,,,,,42,0,2,,,0,,,48,64
52080,note_on,,,,,0,0,1,,,0,,,60,75
52080,note_on,,,,,0,0,1,,,0,,,52,75
52080,note_on,,,,,0,0,1,,,0,,,55,75
52080,note_on,,,,,18,0,2,,,0,,,36,94
52080,note_off,,,,,0,0,1,,,0,,,53,64
52080,note_off,,,,,60,0,1,,,0,,,57,64
52080,note_off,,,,,0,0,1,,,0,,,60,64
52140,note_on,,,,,0,0,2,,,0,,,48,86
52140,note_off,,,,,60,0,2,,,0,,,36,64
52160,set_tempo,,,,,220,1,0,1276596,,,,,,
52182,note_off,,,,,42,0,2,,,0,,,48,64
52200,control_change,,,,,18,0,2,,,0,64,127,,
52200,note_on,,,,,0,0,2,,,0,,,48,78
52242,note_off,,,,,42,0,2,,,0,,,48,64
52260,note_on,,,,,18,0,2,,,0,,,48,69
52290,control_change,,,,,30,0,2,,,0,64,0,,
52302,note_off,,,,,12,0,2,,,0,,,48,64
52320,note_on,,,,,0,0,2,,,0,,,36,88
52320,control_change,,,,,18,0,2,,,0,64,127,,
52380,note_on,,,,,0,0,2,,,0,,,48,73
52380,note_off,,,,,60,0,2,,,0,,,36,64
52410,control_change,,,,,30,0,2,,,0,64,0,,
52422,note_off,,,,,12,0,2,,,0,,,48,64
52440,note_off,,,,,0,0,1,,,0,,,52,64
52440,note_on,,,,,0,0,1,,,0,,,57,86
52440,note_on,,,,,0,0,1,,,0,,,62,86
52440,note_off,,,,,0,0,1,,,0,,,55,64
52440,control_change,,,,,18,0,2,,,0,64,127,,
52440,note_on,,,,,0,0,2,,,0,,,41,95
52440,note_off,,,,,360,0,1,,,0,,,60,64
52500,note_off,,,,,60,0,2,,,0,,,41,64
52500,note_on,,,,,0,0,2,,,0,,,53,81
52530,control_change,,,,,30,0,2,,,0,64,0,,
52542,note_off,,,,,12,0,2,,,0,,,53,64
52560,control_change,,,,,0,0,2,,,0,64,127,,
52560,note_on,,,,,18,0,2,,,0,,,40,105
52560,note_on,,,,,0,0,1,,,0,,,64,98
52560,note_off,,,,,120,0,1,,,0,,,57,64
52560,note_off,,,,,0,0,1,,,0,,,62,64
52560,note_on,,,,,0,0,1,,,0,,,59,98
52560,note_on,,,,,0,0,1,,,0,,,56,98
52620,note_off,,,,,60,0,2,,,0,,,40,64
52620,note_on,,,,,0,0,2,,,0,,,52,84
52640,set_tempo,,,,,480,1,0,1250000,,,,,,
52662,note_off,,,,,42,0,2,,,0,,,52,64
52680,note_on,,,,,18,0,2,,,0,,,52,67
52710,control_change,,,,,30,0,2,,,0,64,0,,
52722,note_off,,,,,12,0,2,,,0,,,52,64
52740,note_on,,,,,0,0,1,,,0,,,62,75
52740,note_on,,,,,18,0,2,,,0,,,52,58
52740,note_off,,,,,180,0,1,,,0,,,64,64
52782,note_off,,,,,42,0,2,,,0,,,52,64
52786,set_tempo,,,,,146,1,0,1224490,,,,,,
52800,note_off,,,,,60,0,1,,,0,,,62,64
52800,note_off,,,,,0,0,1,,,0,,,59,64
52800,note_on,,,,,0,0,1,,,0,,,61,69
52800,note_on,,,,,0,0,1,,,0,,,57,69
52800,note_on,,,,,18,0,2,,,0,,,42,73
52800,note_off,,,,,0,0,1,,,0,,,56,64
52860,note_off,,,,,60,0,2,,,0,,,42,64
52860,note_on,,,,,0,0,2,,,0,,,54,64
52902,note_off,,,,,42,0,2,,,0,,,54,64
52920,control_change,,,,,18,0,2,,,0,64,127,,
52920,note_off,,,,,120,0,1,,,0,,,61,64
52920,note_on,,,,,0,0,2,,,0,,,38,53
52920,note_on,,,,,0,0,1,,,0,,,54,67
52920,note_on,,,,,0,0,1,,,0,,,64,67
52920,note_on,,,,,0,0,1,,,0,,,57,67
52920,note_off,,,,,0,0,1,,,0,,,57,64
52960,set_tempo,,,,,174,1,0,1250000,,,,,,
52980,note_off,,,,,60,0,1,,,0,,,64,64
52980,note_on,,,,,0,0,1,,,0,,,62,54
52980,note_off,,,,,60,0,2,,,0,,,38,64
52980,note_on,,,,,0,0,2,,,0,,,50,41
53010,control_change,,,,,30,0,2,,,0,64,0,,
53022,note_off,,,,,12,0,2,,,0,,,50,64
53040,note_on,,,,,0,0,2,,,0,,,40,45
53040,note_on,,,,,0,0,1,,,0,,,52,44
53040,note_on,,,,,0,0,1,,,0,,,61,44
53040,note_on,,,,,0,0,1,,,0,,,57,44
53040,control_change,,,,,18,0,2,,,0,64,127,,
53040,note_off,,,,,0,0,1,,,0,,,54,64
53040,note_off,,,,,0,0,1,,,0,,,57,64
53040,note_off,,,,,60,0,1,,,0,,,62,64
53052,set_tempo,,,,,92,1,0,1276596,,,,,,
53100,note_on,,,,,0,0,2,,,0,,,52,31
53100,note_off,,,,,60,0,2,,,0,,,40,64
53120,set_tempo,,,,,68,1,0,1304348,,,,,,
53130,control_change,,,,,30,0,2,,,0,64,0,,
53142,note_off,,,,,12,0,2,,,0,,,52,64
53160,note_on,,,,,0,0,1,,,0,,,56,43
53160,note_on,,,,,0,0,1,,,0,,,50,43
53160,note_on,,,,,0,0,1,,,0,,,59,43
53160,note_on,,,,,0,0,1,,,0,,,52,43
53160,note_off,,,,,0,0,1,,,0,,,57,64
53160,control_change,,,,,18,0,2,,,0,64,127,,
53160,note_off,,,,,120,0,1,,,0,,,52,64
53160,note_on,,,,,0,0,2,,,0,,,40,40
53160,note_off,,,,,0,0,1,,,0,,,61,64
53206,set_tempo,,,,,86,1,0,1333333,,,,,,
53220,note_off,,,,,60,0,2,,,0,,,40,64
53220,note_on,,,,,0,0,2,,,0,,,52,30
53250,control_change,,,,,30,0,2,,,0,64,0,,
53262,note_off,,,,,12,0,2,,,0,,,52,64
53280,note_off,,,,,0,0,1,,,0,,,59,64
53280,note_off,,,,,0,0,1,,,0,,,52,64
53280,note_on,,,,,0,0,1,,,0,,,56,52
53280,note_on,,,,,0,0,1,,,0,,,50,52
53280,note_on,,,,,0,0,1,,,0,,,59,52
53280,note_on,,,,,0,0,1,,,0,,,52,52
53280,note_off,,,,,0,0,1,,,0,,,50,64
53280,note_off,,,,,120,0,1,,,0,,,56,64
53340,note_on,,,,,78,0,2,,,0,,,40,48
53366,set_tempo,,,,,160,1,0,1304348,,,,,,
53382,note_off,,,,,42,0,2,,,0,,,40,64
53400,note_on,,,,,18,0,2,,,0,,,44,46
53442,note_off,,,,,42,0,2,,,0,,,44,64
53460,note_on,,,,,18,0,2,,,0,,,40,42
53502,note_off,,,,,42,0,2,,,0,,,40,64
53520,note_on,,,,,18,0,2,,,0,,,45,43
53520,note_off,,,,,240,0,1,,,0,,,52,64
53520,note_on,,,,,0,0,1,,,0,,,52,34
53520,note_on,,,,,0,0,1,,,0,,,57,34
53520,note_on,,,,,0,0,1,,,0,,,49,34
53520,note_off,,,,,0,0,1,,,0,,,56,64
53520,note_off,,,,,0,0,1,,,0,,,50,64
53520,note_off,,,,,0,0,1,,,0,,,59,64
53562,note_off,,,,,42,0,2,,,0,,,45,64
53580,note_on,,,,,18,0,2,,,0,,,45,40
53622,note_off,,,,,42,0,2,,,0,,,45,64
53640,note_on,,,,,18,0,2,,,0,,,47,37
53682,note_off,,,,,42,0,2,,,0,,,47,64
53686,set_tempo,,,,,320,1,0,1333333,,,,,,
53700,note_on,,,,,18,0,2,,,0,,,49,36
53700,note_off,,,,,0,0,1,,,0,,,49,64
53700,note_off,,,,,0,0,1,,,0,,,57,64
53700,note_off,,,,,180,0,1,,,0,,,52,64
53742,note_off,,,,,42,0,2,,,0,,,49,64
53760,note_on,,,,,18,0,2,,,0,,,47,34
53766,set_tempo,,,,,80,1,0,1363636,,,,,,
53804,note_off,,,,,44,0,2,,,0,,,47,64
53812,set_tempo,,,,,46,1,0,1395349,,,,,,
53820,note_on,,,,,16,0,2,,,0,,,45,33
53826,set_tempo,,,,,14,1,0,1428571,,,,,,
53840,set_tempo,,,,,14,1,0,1463415,,,,,,
53852,set_tempo,,,,,12,1,0,1500000,,,,,,
53862,note_off,,,,,42,0,2,,,0,,,45,64
53872,set_tempo,,,,,20,1,0,1538462,,,,,,
53880,note_on,,,,,18,0,2,,,0,,,44,32
53886,set_tempo,,,,,14,1,0,1578947,,,,,,
53900,set_tempo,,,,,14,1,0,1621622,,,,,,
53912,set_tempo,,,,,12,1,0,1666667,,,,,,
53922,note_off,,,,,42,0,2,,,0,,,44,64
53926,set_tempo,,,,,14,1,0,1714286,,,,,,
53940,note_on,,,,,18,0,2,,,0,,,42,32
53946,set_tempo,,,,,20,1,0,1818182,,,,,,
53972,set_tempo,,,,,26,1,0,3000000,,,,,,
53982,note_off,,,,,42,0,2,,,0,,,42,64
53992,set_tempo,,,,,20,1,0,1304348,,,,,,
54000,note_on,,,,,0,0,2,,,0,,,40,43
54000,note_on,,,,,300,0,1,,,0,,,71,36
54000,control_change,,,,,18,0,2,,,0,64,127,,
54040,note_on,,,,,12640,0,3,,,0,,,68,36
54080,note_off,,,,,40,0,3,,,0,,,68,64
54080,note_on,,,,,0,0,3,,,0,,,64,34
54120,note_off,,,,,120,0,2,,,0,,,40,64
54120,note_on,,,,,0,0,2,,,0,,,56,30
54120,note_off,,,,,40,0,3,,,0,,,64,64
54120,note_on,,,,,0,0,3,,,0,,,68,32
54120,note_on,,,,,0,0,2,,,0,,,52,30
54160,note_off,,,,,40,0,3,,,0,,,68,64
54160,note_on,,,,,0,0,3,,,0,,,64,30
54172,set_tempo,,,,,180,1,0,1276596,,,,,,
54200,control_change,,,,,80,0,2,,,0,64,0,,
54200,note_on,,,,,0,0,3,,,0,,,59,28
54200,note_off,,,,,40,0,3,,,0,,,64,64
54212,set_tempo,,,,,40,1,0,1250000,,,,,,
54240,note_on,,,,,0,0,2,,,0,,,40,48
54240,note_off,,,,,40,0,2,,,0,,,52,64
54240,note_on,,,,,0,0,1,,,0,,,71,47
54240,note_off,,,,,240,0,1,,,0,,,71,64
54240,control_change,,,,,0,0,2,,,0,64,127,,
54240,note_off,,,,,0,0,2,,,0,,,56,64
54240,note_off,,,,,40,0,3,,,0,,,59,64
54280,note_on,,,,,40,0,3,,,0,,,68,37
54320,note_off,,,,,40,0,3,,,0,,,68,64
54320,note_on,,,,,0,0,3,,,0,,,64,35
54360,note_off,,,,,120,0,2,,,0,,,40,64
54360,note_on,,,,,0,0,2,,,0,,,56,39
54360,note_on,,,,,0,0,2,,,0,,,52,39
54360,note_on,,,,,0,0,3,,,0,,,68,34
54360,note_off,,,,,40,0,3,,,0,,,64,64
54400,note_on,,,,,0,0,3,,,0,,,64,33
54400,note_off,,,,,40,0,3,,,0,,,68,64
54440,control_change,,,,,80,0,2,,,0,64,0,,
54440,note_on,,,,,0,0,3,,,0,,,59,31
54440,note_off,,,,,40,0,3,,,0,,,64,64
54480,note_on,,,,,0,0,2,,,0,,,49,49
54480,note_off,,,,,240,0,1,,,0,,,71,64
54480,note_off,,,,,40,0,3,,,0,,,59,64
54480,note_on,,,,,0,0,1,,,0,,,73,53
54480,control_change,,,,,0,0,2,,,0,64,127,,
54480,note_off,,,,,0,0,2,,,0,,,56,64
54480,note_off,,,,,40,0,2,,,0,,,52,64
54520,note_on,,,,,40,0,3,,,0,,,70,33
54560,note_on,,,,,0,0,3,,,0,,,66,35
54560,note_off,,,,,40,0,3,,,0,,,70,64
54600,note_on,,,,,0,0,2,,,0,,,58,43
54600,note_off,,,,,120,0,2,,,0,,,49,64
54600,note_on,,,,,0,0,2,,,0,,,54,43
54600,note_on,,,,,0,0,3,,,0,,,70,38
54600,note_off,,,,,40,0,3,,,0,,,66,64
54612,set_tempo,,,,,400,1,0,1276596,,,,,,
54640,note_on,,,,,0,0,3,,,0,,,66,39
54640,note_off,,,,,40,0,3,,,0,,,70,64
54680,note_off,,,,,40,0,3,,,0,,,66,64
54680,note_on,,,,,0,0,3,,,0,,,64,40
54680,control_change,,,,,80,0,2,,,0,64,0,,
54720,control_change,,,,,0,0,2,,,0,64,127,,
54720,note_on,,,,,0,0,2,,,0,,,47,52
54720,note_off,,,,,0,0,2,,,0,,,54,64
54720,note_off,,,,,40,0,2,,,0,,,58,64
54720,set_tempo,,,,,108,1,0,1304348,,,,,,
54720,note_on,,,,,0,0,1,,,0,,,74,59
54720,note_off,,,,,240,0,1,,,0,,,73,64
54720,note_off,,,,,40,0,3,,,0,,,64,64
54746,set_tempo,,,,,26,1,0,1276596,,,,,,
54760,note_on,,,,,40,0,3,,,0,,,71,43
54786,set_tempo,,,,,40,1,0,1250000,,,,,,
54800,note_off,,,,,40,0,3,,,0,,,71,64
54800,note_on,,,,,0,0,3,,,0,,,66,42
54840,note_off,,,,,40,0,3,,,0,,,66,64
54840,note_on,,,,,0,0,3,,,0,,,71,38
54840,note_off,,,,,120,0,2,,,0,,,47,64
54840,note_on,,,,,0,0,2,,,0,,,54,44
54840,note_on,,,,,0,0,2,,,0,,,59,44
54880,note_off,,,,,40,0,3,,,0,,,71,64
54880,note_on,,,,,0,0,3,,,0,,,66,37
54900,note_off,,,,,180,0,1,,,0,,,74,64
54920,control_change,,,,,80,0,2,,,0,64,0,,
54920,note_off,,,,,40,0,3,,,0,,,66,64
54920,note_on,,,,,20,0,1,,,0,,,76,49
54920,note_on,,,,,0,0,3,,,0,,,73,36
54960,note_on,,,,,0,0,2,,,0,,,47,51
54960,note_off,,,,,0,0,2,,,0,,,54,64
54960,note_off,,,,,40,0,2,,,0,,,59,64
54960,note_off,,,,,40,0,3,,,0,,,73,64
54960,note_on,,,,,0,0,1,,,0,,,78,44
54960,note_off,,,,,40,0,1,,,0,,,76,64
54960,control_change,,,,,0,0,2,,,0,64,127,,
54992,set_tempo,,,,,206,1,0,1276596,,,,,,
55000,note_on,,,,,40,0,3,,,0,,,74,44
55040,note_on,,,,,0,0,3,,,0,,,71,42
55040,note_off,,,,,40,0,3,,,0,,,74,64
55080,note_off,,,,,120,0,2,,,0,,,47,64
55080,note_off,,,,,40,0,3,,,0,,,71,64
55080,note_on,,,,,0,0,3,,,0,,,74,40
55080,note_on,,,,,0,0,2,,,0,,,59,37
55080,note_on,,,,,0,0,2,,,0,,,54,37
55120,note_on,,,,,0,0,3,,,0,,,71,40
55120,note_off,,,,,40,0,3,,,0,,,74,64
55160,note_on,,,,,0,0,3,,,0,,,66,40
55160,note_off,,,,,40,0,3,,,0,,,71,64
55160,control_change,,,,,80,0,2,,,0,64,0,,
55200,note_off,,,,,40,0,2,,,0,,,54,64
55200,note_off,,,,,40,0,3,,,0,,,66,64
55200,note_on,,,,,0,0,2,,,0,,,47,41
55200,note_off,,,,,0,0,2,,,0,,,59,64
55200,control_change,,,,,0,0,2,,,0,64,127,,
55226,set_tempo,,,,,234,1,0,1250000,,,,,,
55240,note_on,,,,,40,0,3,,,0,,,74,40
55260,note_off,,,,,300,0,1,,,0,,,78,64
55280,note_on,,,,,0,0,3,,,0,,,71,40
55280,note_off,,,,,40,0,3,,,0,,,74,64
55320,note_on,,,,,0,0,2,,,0,,,56,30
55320,note_on,,,,,0,0,2,,,0,,,59,30
55320,note_on,,,,,0,0,2,,,0,,,62,30
55320,note_on,,,,,60,0,1,,,0,,,78,59
55320,note_off,,,,,120,0,2,,,0,,,47,64
55320,note_on,,,,,0,0,3,,,0,,,74,40
55320,note_off,,,,,40,0,3,,,0,,,71,64
55360,note_off,,,,,40,0,3,,,0,,,74,64
55360,note_on,,,,,0,0,3,,,0,,,71,41
55400,note_off,,,,,40,0,3,,,0,,,71,64
55400,note_on,,,,,0,0,3,,,0,,,68,43
55400,control_change,,,,,80,0,2,,,0,64,0,,
55440,control_change,,,,,0,0,2,,,0,64,127,,
55440,note_on,,,,,0,0,2,,,0,,,45,47
55440,note_off,,,,,0,0,2,,,0,,,56,64
55440,note_off,,,,,0,0,2,,,0,,,59,64
55440,note_off,,,,,40,0,2,,,0,,,62,64
55440,note_on,,,,,0,0,1,,,0,,,78,70
55440,note_off,,,,,40,0,3,,,0,,,68,64
55440,note_off,,,,,120,0,1,,,0,,,78,64
55452,set_tempo,,,,,226,1,0,1224490,,,,,,
55480,note_on,,,,,40,0,3,,,0,,,74,48
55520,note_on,,,,,0,0,3,,,0,,,69,52
55520,note_off,,,,,40,0,3,,,0,,,74,64
55560,note_off,,,,,120,0,2,,,0,,,45,64
55560,note_on,,,,,0,0,2,,,0,,,62,57
55560,note_on,,,,,0,0,3,,,0,,,74,54
55560,note_off,,,,,40,0,3,,,0,,,69,64
55560,note_on,,,,,0,0,2,,,0,,,57,57
55600,note_off,,,,,40,0,3,,,0,,,74,64
55600,note_on,,,,,0,0,3,,,0,,,69,56
55620,note_off,,,,,180,0,1,,,0,,,78,64
55640,control_change,,,,,80,0,2,,,0,64,0,,
55640,note_off,,,,,40,0,3,,,0,,,69,64
55640,note_on,,,,,20,0,1,,,0,,,79,76
55640,note_on,,,,,0,0,3,,,0,,,71,56
55680,note_off,,,,,40,0,2,,,0,,,57,64
55680,note_off,,,,,0,0,2,,,0,,,62,64
55680,note_on,,,,,0,0,2,,,0,,,62,67
55680,note_on,,,,,0,0,2,,,0,,,54,67
55680,control_change,,,,,0,0,2,,,0,64,127,,
55680,note_off,,,,,40,0,1,,,0,,,79,64
55680,note_on,,,,,0,0,1,,,0,,,81,80
55680,note_off,,,,,40,0,3,,,0,,,71,64
55720,note_on,,,,,40,0,3,,,0,,,74,56
55760,note_on,,,,,0,0,3,,,0,,,69,54
55760,note_off,,,,,40,0,3,,,0,,,74,64
55800,note_off,,,,,120,0,2,,,0,,,54,64
55800,note_off,,,,,0,0,2,,,0,,,62,64
55800,note_on,,,,,0,0,2,,,0,,,62,57
55800,note_off,,,,,40,0,3,,,0,,,69,64
55800,note_on,,,,,0,0,2,,,0,,,55,57
55800,note_on,,,,,0,0,1,,,0,,,79,81
55800,note_off,,,,,120,0,1,,,0,,,81,64
55800,note_on,,,,,0,0,3,,,0,,,79,50
55840,note_on,,,,,0,0,3,,,0,,,71,46
55840,note_off,,,,,40,0,3,,,0,,,79,64
55846,set_tempo,,,,,394,1,0,1250000,,,,,,
55880,note_off,,,,,40,0,3,,,0,,,71,64
55880,note_on,,,,,0,0,3,,,0,,,74,44
55880,control_change,,,,,80,0,2,,,0,64,0,,
55920,note_on,,,,,0,0,1,,,0,,,78,67
55920,note_off,,,,,40,0,2,,,0,,,55,64
55920,note_off,,,,,0,0,2,,,0,,,62,64
55920,note_on,,,,,0,0,2,,,0,,,62,63
55920,note_off,,,,,40,0,3,,,0,,,74,64
55920,note_on,,,,,0,0,2,,,0,,,57,63
55920,control_change,,,,,0,0,2,,,0,64,127,,
55920,note_off,,,,,120,0,1,,,0,,,79,64
55932,set_tempo,,,,,86,1,0,1276596,,,,,,
55960,note_on,,,,,40,0,3,,,0,,,69,40
56000,note_on,,,,,0,0,3,,,0,,,74,38
56000,note_off,,,,,40,0,3,,,0,,,69,64
56040,note_off,,,,,40,0,3,,,0,,,74,64
56040,note_off,,,,,120,0,2,,,0,,,57,64
56040,note_off,,,,,0,0,2,,,0,,,62,64
56040,note_on,,,,,0,0,2,,,0,,,57,41
56040,note_on,,,,,0,0,2,,,0,,,61,41
56040,note_off,,,,,120,0,1,,,0,,,78,64
56040,note_on,,,,,0,0,1,,,0,,,76,53
56040,note_on,,,,,0,0,3,,,0,,,76,37
56052,set_tempo,,,,,120,1,0,1304348,,,,,,
56080,note_on,,,,,0,0,3,,,0,,,67,35
56080,note_off,,,,,40,0,3,,,0,,,76,64
56120,note_off,,,,,40,0,3,,,0,,,67,64
56120,control_change,,,,,80,0,2,,,0,64,0,,
56120,note_on,,,,,0,0,3,,,0,,,69,35
56140,note_off,,,,,100,0,1,,,0,,,76,64
56160,control_change,,,,,0,0,2,,,0,64,127,,
56160,note_on,,,,,20,0,1,,,0,,,76,49
56160,note_off,,,,,0,0,2,,,0,,,57,64
56160,note_off,,,,,40,0,2,,,0,,,61,64
56160,note_off,,,,,40,0,3,,,0,,,69,64
56160,note_on,,,,,0,0,2,,,0,,,50,46
56192,set_tempo,,,,,140,1,0,1276596,,,,,,
56200,note_on,,,,,40,0,3,,,0,,,73,41
56240,note_on,,,,,0,0,3,,,0,,,69,41
56240,note_off,,,,,40,0,3,,,0,,,73,64
56272,set_tempo,,,,,80,1,0,1250000,,,,,,
56280,note_on,,,,,0,0,2,,,0,,,61,31
56280,note_off,,,,,120,0,2,,,0,,,50,64
56280,note_on,,,,,0,0,3,,,0,,,73,41
56280,note_off,,,,,40,0,3,,,0,,,69,64
56280,note_on,,,,,0,0,2,,,0,,,57,31
56320,note_off,,,,,40,0,3,,,0,,,73,64
56320,note_on,,,,,0,0,3,,,0,,,69,40
56360,note_off,,,,,40,0,3,,,0,,,69,64
56360,note_on,,,,,0,0,3,,,0,,,67,38
56360,control_change,,,,,80,0,2,,,0,64,0,,
56400,note_off,,,,,0,0,2,,,0,,,61,64
56400,note_off,,,,,40,0,2,,,0,,,57,64
56400,note_on,,,,,0,0,2,,,0,,,50,36
56400,note_off,,,,,240,0,1,,,0,,,76,64
56400,note_on,,,,,0,0,1,,,0,,,74,32
56400,control_change,,,,,0,0,2,,,0,64,127,,
56400,note_off,,,,,40,0,3,,,0,,,67,64
56440,note_on,,,,,40,0,3,,,0,,,69,33
56480,note_off,,,,,40,0,3,,,0,,,69,64
56480,note_on,,,,,0,0,3,,,0,,,66,29
56520,note_off,,,,,120,0,2,,,0,,,50,64
56520,note_on,,,,,0,0,2,,,0,,,62,27
56520,note_on,,,,,0,0,2,,,0,,,57,27
56520,note_off,,,,,40,0,3,,,0,,,66,64
56520,note_on,,,,,0,0,3,,,0,,,69,27
56532,set_tempo,,,,,260,1,0,1224490,,,,,,
56546,set_tempo,,,,,14,1,0,1250000,,,,,,
56560,note_on,,,,,0,0,3,,,0,,,66,25
56560,note_off,,,,,40,0,3,,,0,,,69,64
56566,set_tempo,,,,,20,1,0,1276596,,,,,,
56592,set_tempo,,,,,26,1,0,1304348,,,,,,
56600,note_on,,,,,0,0,3,,,0,,,62,24
56600,control_change,,,,,80,0,2,,,0,64,0,,
56600,note_off,,,,,40,0,3,,,0,,,66,64
56632,set_tempo,,,,,40,1,0,1333333,,,,,,
56640,note_off,,,,,40,0,2,,,0,,,57,64
56640,note_on,,,,,0,0,2,,,0,,,50,29
56640,note_off,,,,,0,0,2,,,0,,,62,64
56640,control_change,,,,,0,0,2,,,0,64,127,,
56640,note_off,,,,,40,0,3,,,0,,,62,64
56652,set_tempo,,,,,20,1,0,1363636,,,,,,
56680,note_on,,,,,40,0,3,,,0,,,69,27
56686,set_tempo,,,,,34,1,0,1395349,,,,,,
56692,set_tempo,,,,,6,1,0,1428571,,,,,,
56720,note_on,,,,,0,0,3,,,0,,,66,23
56720,note_off,,,,,40,0,3,,,0,,,69,64
56726,set_tempo,,,,,34,1,0,1463415,,,,,,
56732,set_tempo,,,,,6,1,0,1500000,,,,,,
56752,set_tempo,,,,,20,1,0,1538462,,,,,,
56760,note_on,,,,,0,0,3,,,0,,,69,21
56760,note_on,,,,,0,0,2,,,0,,,54,25
56760,set_tempo,,,,,8,1,0,1578947,,,,,,
56760,note_on,,,,,0,0,2,,,0,,,57,25
56760,note_off,,,,,120,0,2,,,0,,,50,64
56760,note_off,,,,,40,0,3,,,0,,,66,64
56780,set_tempo,,,,,20,1,0,1621622,,,,,,
56786,set_tempo,,,,,6,1,0,1666667,,,,,,
56792,set_tempo,,,,,6,1,0,1714286,,,,,,
56800,note_on,,,,,0,0,3,,,0,,,66,19
56800,note_off,,,,,40,0,3,,,0,,,69,64
56820,note_off,,,,,420,0,1,,,0,,,74,64
56826,set_tempo,,,,,34,1,0,1764706,,,,,,
56840,control_change,,,,,80,0,2,,,0,64,0,,
56840,note_on,,,,,0,0,3,,,0,,,62,19
56840,note_off,,,,,40,0,3,,,0,,,66,64
56840,set_tempo,,,,,14,1,0,1818182,,,,,,
56872,set_tempo,,,,,32,1,0,1875000,,,,,,
56880,control_change,,,,,0,0,2,,,0,64,127,,
56880,note_off,,,,,0,0,2,,,0,,,54,64
56880,note_off,,,,,40,0,2,,,0,,,57,64
56880,note_on,,,,,60,0,1,,,0,,,70,34
56880,note_on,,,,,0,0,2,,,0,,,38,31
56880,note_off,,,,,40,0,3,,,0,,,62,64
56892,set_tempo,,,,,20,1,0,1714286,,,,,,
56906,set_tempo,,,,,14,1,0,1666667,,,,,,
56912,set_tempo,,,,,6,1,0,1621622,,,,,,
56920,note_on,,,,,40,0,3,,,0,,,65,26
56920,set_tempo,,,,,8,1,0,1578947,,,,,,
56926,set_tempo,,,,,6,1,0,1500000,,,,,,
56940,set_tempo,,,,,14,1,0,1463415,,,,,,
56946,set_tempo,,,,,6,1,0,1428571,,,,,,
56952,set_tempo,,,,,6,1,0,1363636,,,,,,
56960,note_on,,,,,0,0,3,,,0,,,62,24
56960,note_off,,,,,40,0,3,,,0,,,65,64
56966,set_tempo,,,,,14,1,0,1333333,,,,,,
56972,set_tempo,,,,,6,1,0,1224490,,,,,,
56980,set_tempo,,,,,8,1,0,1200000,,,,,,
57000,set_tempo,,,,,20,1,0,1250000,,,,,,
57000,note_on,,,,,0,0,2,,,0,,,50,21
57000,note_on,,,,,0,0,2,,,0,,,53,21
57000,note_off,,,,,40,0,3,,,0,,,62,64
57000,note_on,,,,,0,0,3,,,0,,,65,23
57000,note_off,,,,,120,0,2,,,0,,,38,64
57040,note_on,,,,,0,0,3,,,0,,,62,21
57040,note_off,,,,,40,0,3,,,0,,,65,64
57080,note_on,,,,,0,0,3,,,0,,,58,19
57080,note_off,,,,,40,0,3,,,0,,,62,64
57080,control_change,,,,,80,0,2,,,0,64,0,,
57086,set_tempo,,,,,86,1,0,1224490,,,,,,
57120,note_on,,,,,0,0,1,,,0,,,70,39
57120,note_off,,,,,240,0,1,,,0,,,70,64
57120,note_off,,,,,40,0,3,,,0,,,58,64
57120,control_change,,,,,0,0,2,,,0,64,127,,
57120,note_off,,,,,40,0,2,,,0,,,50,64
57120,note_off,,,,,0,0,2,,,0,,,53,64
57120,note_on,,,,,0,0,2,,,0,,,38,28
57160,note_on,,,,,40,0,3,,,0,,,65,29
57200,note_off,,,,,40,0,3,,,0,,,65,64
57200,note_on,,,,,0,0,3,,,0,,,62,27
57240,note_on,,,,,0,0,3,,,0,,,65,26
57240,note_off,,,,,40,0,3,,,0,,,62,64
57240,note_on,,,,,0,0,2,,,0,,,53,19
57240,note_off,,,,,120,0,2,,,0,,,38,64
57240,note_on,,,,,0,0,2,,,0,,,50,19
57280,note_off,,,,,40,0,3,,,0,,,65,64
57280,note_on,,,,,0,0,3,,,0,,,62,23
57320,control_change,,,,,80,0,2,,,0,64,0,,
57320,note_off,,,,,40,0,3,,,0,,,62,64
57320,note_on,,,,,0,0,3,,,0,,,58,23
57360,note_on,,,,,0,0,1,,,0,,,70,41
57360,note_off,,,,,0,0,2,,,0,,,50,64
57360,note_off,,,,,40,0,3,,,0,,,58,64
57360,note_off,,,,,40,0,2,,,0,,,53,64
57360,control_change,,,,,0,0,2,,,0,64,127,,
57360,note_on,,,,,0,0,2,,,0,,,38,30
57360,note_off,,,,,240,0,1,,,0,,,70,64
57400,note_on,,,,,40,0,3,,,0,,,65,34
57440,note_on,,,,,0,0,3,,,0,,,62,32
57440,note_off,,,,,40,0,3,,,0,,,65,64
57480,note_off,,,,,40,0,3,,,0,,,62,64
57480,note_on,,,,,0,0,3,,,0,,,65,30
57480,note_on,,,,,0,0,2,,,0,,,50,20
57480,note_on,,,,,0,0,2,,,0,,,53,20
57480,note_off,,,,,120,0,2,,,0,,,38,64
57520,note_off,,,,,40,0,3,,,0,,,65,64
57520,note_on,,,,,0,0,3,,,0,,,62,28
57532,set_tempo,,,,,446,1,0,1250000,,,,,,
57560,note_off,,,,,40,0,3,,,0,,,62,64
57560,set_tempo,,,,,28,1,0,1276596,,,,,,
57560,control_change,,,,,80,0,2,,,0,64,0,,
57560,note_on,,,,,0,0,3,,,0,,,58,27
57600,note_on,,,,,0,0,1,,,0,,,70,44
57600,control_change,,,,,0,0,2,,,0,64,127,,
57600,note_on,,,,,0,0,2,,,0,,,39,37
57600,note_off,,,,,0,0,2,,,0,,,53,64
57600,note_off,,,,,40,0,2,,,0,,,50,64
57600,note_off,,,,,40,0,3,,,0,,,58,64
57600,note_off,,,,,240,0,1,,,0,,,70,64
57606,set_tempo,,,,,46,1,0,1304348,,,,,,
57640,set_tempo,,,,,34,1,0,1276596,,,,,,
57640,note_on,,,,,40,0,3,,,0,,,67,33
57680,note_on,,,,,0,0,3,,,0,,,63,34
57680,note_off,,,,,40,0,3,,,0,,,67,64
57692,set_tempo,,,,,52,1,0,1250000,,,,,,
57720,note_off,,,,,40,0,3,,,0,,,63,64
57720,note_on,,,,,0,0,3,,,0,,,67,36
57720,note_off,,,,,120,0,2,,,0,,,39,64
57720,note_on,,,,,0,0,2,,,0,,,51,27
57720,note_on,,,,,0,0,2,,,0,,,55,27
57760,note_on,,,,,0,0,3,,,0,,,63,37
57760,note_off,,,,,40,0,3,,,0,,,67,64
57772,set_tempo,,,,,80,1,0,1224490,,,,,,
57800,control_change,,,,,80,0,2,,,0,64,0,,
57800,note_off,,,,,40,0,3,,,0,,,63,64
57800,note_on,,,,,0,0,3,,,0,,,58,34
57840,note_on,,,,,0,0,2,,,0,,,39,34
57840,note_off,,,,,240,0,1,,,0,,,70,64
57840,control_change,,,,,0,0,2,,,0,64,127,,
57840,note_on,,,,,0,0,1,,,0,,,67,34
57840,note_off,,,,,40,0,2,,,0,,,55,64
57840,note_off,,,,,0,0,2,,,0,,,51,64
57840,note_off,,,,,40,0,3,,,0,,,58,64
57880,note_on,,,,,40,0,3,,,0,,,63,30
57920,note_on,,,,,0,0,3,,,0,,,58,29
57920,note_off,,,,,40,0,3,,,0,,,63,64
57930,note_off,,,,,90,0,1,,,0,,,67,64
57960,note_off,,,,,120,0,2,,,0,,,39,64
57960,note_on,,,,,0,0,2,,,0,,,58,26
57960,note_on,,,,,0,0,2,,,0,,,55,26
57960,note_on,,,,,0,0,2,,,0,,,51,26
57960,note_on,,,,,0,0,3,,,0,,,79,29
57960,note_off,,,,,40,0,3,,,0,,,58,64
57960,note_on,,,,,30,0,1,,,0,,,79,39
58000,note_on,,,,,0,0,3,,,0,,,75,29
58000,note_off,,,,,40,0,3,,,0,,,79,64
58040,note_off,,,,,40,0,3,,,0,,,75,64
58040,control_change,,,,,80,0,2,,,0,64,0,,
58040,note_on,,,,,0,0,3,,,0,,,67,28
58080,note_off,,,,,40,0,2,,,0,,,51,64
58080,note_off,,,,,0,0,2,,,0,,,55,64
58080,note_off,,,,,0,0,2,,,0,,,58,64
58080,note_on,,,,,0,0,2,,,0,,,59,34
58080,note_on,,,,,0,0,2,,,0,,,55,34
58080,note_on,,,,,0,0,2,,,0,,,50,34
58080,control_change,,,,,0,0,2,,,0,64,127,,
58080,note_off,,,,,120,0,1,,,0,,,79,64
58080,note_on,,,,,0,0,1,,,0,,,77,43
58080,note_off,,,,,40,0,3,,,0,,,67,64
58120,note_on,,,,,40,0,3,,,0,,,71,30
58160,note_on,,,,,0,0,3,,,0,,,67,30
58160,note_off,,,,,40,0,3,,,0,,,71,64
58200,note_on,,,,,0,0,3,,,0,,,75,32
58200,note_off,,,,,40,0,3,,,0,,,67,64
58200,note_off,,,,,0,0,2,,,0,,,55,64
58200,note_off,,,,,0,0,2,,,0,,,59,64
58200,note_on,,,,,0,0,2,,,0,,,60,26
58200,note_on,,,,,0,0,2,,,0,,,48,26
58200,note_on,,,,,0,0,2,,,0,,,55,26
58200,note_off,,,,,120,0,2,,,0,,,50,64
58200,note_off,,,,,120,0,1,,,0,,,77,64
58200,note_on,,,,,0,0,1,,,0,,,75,45
58232,set_tempo,,,,,460,1,0,1250000,,,,,,
58240,note_on,,,,,0,0,3,,,0,,,72,31
58240,note_off,,,,,40,0,3,,,0,,,75,64
58280,note_on,,,,,0,0,3,,,0,,,67,36
58280,note_off,,,,,40,0,3,,,0,,,72,64
58280,control_change,,,,,80,0,2,,,0,64,0,,
58320,note_off,,,,,120,0,1,,,0,,,75,64
58320,note_on,,,,,0,0,1,,,0,,,74,39
58320,note_off,,,,,40,0,2,,,0,,,55,64
58320,note_off,,,,,0,0,2,,,0,,,48,64
58320,note_off,,,,,0,0,2,,,0,,,60,64
58320,note_on,,,,,0,0,2,,,0,,,41,34
58320,control_change,,,,,0,0,2,,,0,64,127,,
58320,note_off,,,,,40,0,3,,,0,,,67,64
58360,note_on,,,,,40,0,3,,,0,,,70,39
58400,note_on,,,,,0,0,3,,,0,,,65,39
58400,note_off,,,,,40,0,3,,,0,,,70,64
58412,set_tempo,,,,,180,1,0,1276596,,,,,,
58432,set_tempo,,,,,20,1,0,1250000,,,,,,
58440,note_off,,,,,40,0,3,,,0,,,65,64
58440,note_on,,,,,0,0,3,,,0,,,70,37
58440,note_on,,,,,0,0,2,,,0,,,53,34
58440,note_on,,,,,0,0,2,,,0,,,58,34
58440,note_off,,,,,120,0,2,,,0,,,41,64
58480,note_on,,,,,0,0,3,,,0,,,65,34
58480,note_off,,,,,40,0,3,,,0,,,70,64
58520,note_off,,,,,40,0,3,,,0,,,65,64
58520,control_change,,,,,80,0,2,,,0,64,0,,
58520,note_on,,,,,0,0,3,,,0,,,62,32
58546,set_tempo,,,,,114,1,0,1224490,,,,,,
58552,set_tempo,,,,,6,1,0,1250000,,,,,,
58560,note_off,,,,,0,0,2,,,0,,,53,64
58560,control_change,,,,,0,0,2,,,0,64,127,,
58560,note_off,,,,,40,0,2,,,0,,,58,64
58560,note_off,,,,,40,0,3,,,0,,,62,64
58560,note_on,,,,,0,0,2,,,0,,,41,34
58600,note_on,,,,,40,0,3,,,0,,,70,34
58640,note_on,,,,,0,0,3,,,0,,,65,34
58640,note_off,,,,,40,0,3,,,0,,,70,64
58672,set_tempo,,,,,120,1,0,1276596,,,,,,
58680,note_off,,,,,120,0,2,,,0,,,41,64
58680,note_on,,,,,0,0,2,,,0,,,53,26
58680,note_on,,,,,0,0,2,,,0,,,58,26
58680,note_off,,,,,40,0,3,,,0,,,65,64
58680,note_on,,,,,0,0,3,,,0,,,70,33
58720,set_tempo,,,,,48,1,0,1304348,,,,,,
58720,note_off,,,,,40,0,3,,,0,,,70,64
58720,note_on,,,,,0,0,3,,,0,,,65,32
58760,control_change,,,,,80,0,2,,,0,64,0,,
58760,note_off,,,,,40,0,3,,,0,,,65,64
58760,note_on,,,,,0,0,3,,,0,,,62,30
58766,set_tempo,,,,,46,1,0,1333333,,,,,,
58786,set_tempo,,,,,20,1,0,1363636,,,,,,
58800,control_change,,,,,0,0,2,,,0,64,127,,
58800,note_on,,,,,0,0,2,,,0,,,41,34
58800,note_off,,,,,40,0,3,,,0,,,62,64
58800,note_on,,,,,0,0,1,,,0,,,75,39
58800,note_off,,,,,480,0,1,,,0,,,74,64
58800,note_off,,,,,0,0,2,,,0,,,58,64
58800,note_off,,,,,40,0,2,,,0,,,53,64
58812,set_tempo,,,,,26,1,0,1395349,,,,,,
58820,set_tempo,,,,,8,1,0,1428571,,,,,,
58840,note_on,,,,,40,0,3,,,0,,,72,27
58866,set_tempo,,,,,46,1,0,1463415,,,,,,
58880,note_off,,,,,40,0,3,,,0,,,72,64
58880,note_on,,,,,0,0,3,,,0,,,69,28
58892,set_tempo,,,,,26,1,0,1500000,,,,,,
58912,set_tempo,,,,,20,1,0,1538462,,,,,,
58920,note_off,,,,,40,0,3,,,0,,,69,64
58920,note_on,,,,,0,0,3,,,0,,,72,28
58920,note_off,,,,,120,0,2,,,0,,,41,64
58920,set_tempo,,,,,8,1,0,1578947,,,,,,
58920,note_on,,,,,0,0,2,,,0,,,57,26
58920,note_on,,,,,0,0,2,,,0,,,53,26
58940,set_tempo,,,,,20,1,0,1621622,,,,,,
58946,set_tempo,,,,,6,1,0,1666667,,,,,,
58952,set_tempo,,,,,6,1,0,1714286,,,,,,
58960,note_off,,,,,40,0,3,,,0,,,72,64
58960,note_on,,,,,0,0,3,,,0,,,69,29
58972,set_tempo,,,,,20,1,0,1818182,,,,,,
58980,set_tempo,,,,,8,1,0,1935484,,,,,,
59000,note_on,,,,,0,0,3,,,0,,,63,31
59000,note_off,,,,,200,0,1,,,0,,,75,64
59000,note_on,,,,,0,0,1,,,0,,,72,35
59000,note_off,,,,,40,0,3,,,0,,,69,64
59000,control_change,,,,,80,0,2,,,0,64,0,,
59000,set_tempo,,,,,20,1,0,2068966,,,,,,
59012,set_tempo,,,,,12,1,0,2142857,,,,,,
59020,set_tempo,,,,,8,1,0,2307692,,,,,,
59032,set_tempo,,,,,12,1,0,2400000,,,,,,
59040,note_off,,,,,40,0,2,,,0,,,53,64
59040,note_off,,,,,0,0,2,,,0,,,57,64
59040,control_change,,,,,0,0,2,,,0,64,127,,
59040,note_on,,,,,0,0,2,,,0,,,41,26
59040,note_off,,,,,40,0,3,,,0,,,63,64
59040,note_off,,,,,40,0,1,,,0,,,72,64
59040,note_on,,,,,0,0,1,,,0,,,71,30
59046,set_tempo,,,,,14,1,0,1935484,,,,,,
59052,set_tempo,,,,,6,1,0,1621622,,,,,,
59060,set_tempo,,,,,8,1,0,1428571,,,,,,
59066,set_tempo,,,,,6,1,0,1363636,,,,,,
59080,note_on,,,,,40,0,3,,,0,,,68,26
59120,note_off,,,,,40,0,3,,,0,,,68,64
59120,note_on,,,,,0,0,3,,,0,,,62,26
59160,note_on,,,,,0,0,3,,,0,,,68,23
59160,note_off,,,,,40,0,3,,,0,,,62,64
59160,note_off,,,,,120,0,2,,,0,,,41,64
59160,note_on,,,,,0,0,2,,,0,,,53,17
59200,note_on,,,,,0,0,3,,,0,,,62,22
59200,note_off,,,,,40,0,3,,,0,,,68,64
59240,note_on,,,,,0,0,3,,,0,,,59,20
59240,note_off,,,,,40,0,3,,,0,,,62,64
59240,control_change,,,,,80,0,2,,,0,64,0,,
59280,note_off,,,,,40,0,3,,,0,,,59,64
59280,note_on,,,,,0,0,2,,,0,,,41,26
59280,control_change,,,,,0,0,2,,,0,64,127,,
59280,note_off,,,,,40,0,2,,,0,,,53,64
59320,set_tempo,,,,,254,1,0,1333333,,,,,,
59320,note_on,,,,,40,0,3,,,0,,,68,26
59360,note_off,,,,,40,0,3,,,0,,,68,64
59360,note_on,,,,,0,0,3,,,0,,,62,25
59400,note_off,,,,,120,0,2,,,0,,,41,64
59400,note_on,,,,,0,0,2,,,0,,,53,19
59400,note_off,,,,,40,0,3,,,0,,,62,64
59400,note_on,,,,,0,0,3,,,0,,,68,23
59440,note_on,,,,,0,0,3,,,0,,,62,21
59440,note_off,,,,,40,0,3,,,0,,,68,64
59480,note_off,,,,,40,0,3,,,0,,,62,64
59480,control_change,,,,,80,0,2,,,0,64,0,,
59480,note_on,,,,,0,0,3,,,0,,,59,19
59512,set_tempo,,,,,192,1,0,1304348,,,,,,
59520,set_tempo,,,,,8,1,0,1333333,,,,,,
59520,control_change,,,,,0,0,2,,,0,64,127,,
59520,note_on,,,,,0,0,2,,,0,,,41,26
59520,note_off,,,,,40,0,2,,,0,,,53,64
59520,note_off,,,,,40,0,3,,,0,,,59,64
59560,note_on,,,,,40,0,3,,,0,,,68,23
59600,note_on,,,,,0,0,3,,,0,,,62,22
59600,note_off,,,,,40,0,3,,,0,,,68,64
59606,set_tempo,,,,,86,1,0,1363636,,,,,,
59640,note_on,,,,,0,0,2,,,0,,,53,17
59640,note_off,,,,,40,0,3,,,0,,,62,64
59640,note_on,,,,,0,0,3,,,0,,,68,21
59640,note_off,,,,,120,0,2,,,0,,,41,64
59666,set_tempo,,,,,60,1,0,1395349,,,,,,
59680,note_off,,,,,40,0,3,,,0,,,68,64
59680,note_on,,,,,0,0,3,,,0,,,62,19
59686,set_tempo,,,,,20,1,0,1428571,,,,,,
59700,note_off,,,,,660,0,1,,,0,,,71,64
59720,note_on,,,,,0,0,3,,,0,,,59,17
59720,note_off,,,,,40,0,3,,,0,,,62,64
59720,control_change,,,,,80,0,2,,,0,64,0,,
59720,set_tempo,,,,,34,1,0,1463415,,,,,,
59752,set_tempo,,,,,32,1,0,1500000,,,,,,
59760,note_off,,,,,40,0,2,,,0,,,53,64
59760,note_on,,,,,0,0,2,,,0,,,41,28
59760,control_change,,,,,0,0,2,,,0,64,127,,
59760,note_on,,,,,60,0,1,,,0,,,71,35
59760,note_off,,,,,40,0,3,,,0,,,59,64
59792,set_tempo,,,,,40,1,0,1463415,,,,,,
59800,note_on,,,,,40,0,3,,,0,,,68,25
59806,set_tempo,,,,,14,1,0,1428571,,,,,,
59840,set_tempo,,,,,34,1,0,1395349,,,,,,
59840,note_on,,,,,0,0,3,,,0,,,61,23
59840,note_off,,,,,40,0,3,,,0,,,68,64
59852,set_tempo,,,,,12,1,0,1363636,,,,,,
59880,note_off,,,,,40,0,3,,,0,,,61,64
59880,note_on,,,,,0,0,3,,,0,,,68,22
59880,note_off,,,,,120,0,2,,,0,,,41,64
59880,note_on,,,,,0,0,2,,,0,,,53,25
59892,set_tempo,,,,,40,1,0,1333333,,,,,,
59900,set_tempo,,,,,8,1,0,1304348,,,,,,
59920,note_on,,,,,0,0,3,,,0,,,61,21
59920,note_off,,,,,40,0,3,,,0,,,68,64
59960,note_on,,,,,0,0,3,,,0,,,59,19
59960,control_change,,,,,80,0,2,,,0,64,0,,
59960,note_off,,,,,40,0,3,,,0,,,61,64
60000,control_change,,,,,0,0,2,,,0,64,127,,
60000,note_on,,,,,0,0,2,,,0,,,41,31
60000,note_off,,,,,40,0,2,,,0,,,53,64
60000,note_off,,,,,40,0,3,,,0,,,59,64
60040,note_on,,,,,40,0,3,,,0,,,68,27
60080,note_on,,,,,0,0,3,,,0,,,61,25
60080,note_off,,,,,40,0,3,,,0,,,68,64
60120,note_off,,,,,40,0,3,,,0,,,61,64
60120,note_on,,,,,0,0,2,,,0,,,53,24
60120,note_off,,,,,120,0,2,,,0,,,41,64
60120,note_on,,,,,0,0,3,,,0,,,68,25
60160,note_on,,,,,0,0,3,,,0,,,61,25
60160,note_off,,,,,40,0,3,,,0,,,68,64
60200,note_off,,,,,40,0,3,,,0,,,61,64
60200,control_change,,,,,80,0,2,,,0,64,0,,
60200,note_on,,,,,0,0,3,,,0,,,59,25
60240,note_on,,,,,0,0,2,,,0,,,41,39
60240,note_off,,,,,480,0,1,,,0,,,71,64
60240,note_on,,,,,0,0,1,,,0,,,71,35
60240,control_change,,,,,0,0,2,,,0,64,127,,
60240,note_off,,,,,40,0,2,,,0,,,53,64
60240,note_off,,,,,40,0,3,,,0,,,59,64
60280,note_on,,,,,40,0,3,,,0,,,68,33
60320,note_off,,,,,40,0,3,,,0,,,68,64
60320,note_on,,,,,0,0,3,,,0,,,62,31
60360,note_off,,,,,40,0,3,,,0,,,62,64
60360,note_on,,,,,0,0,3,,,0,,,68,31
60360,note_on,,,,,0,0,2,,,0,,,53,31
60360,note_off,,,,,120,0,2,,,0,,,41,64
60400,note_on,,,,,0,0,3,,,0,,,62,31
60400,note_off,,,,,40,0,3,,,0,,,68,64
60440,control_change,,,,,80,0,2,,,0,64,0,,
60440,note_on,,,,,0,0,3,,,0,,,59,29
60440,note_off,,,,,40,0,3,,,0,,,62,64
60446,set_tempo,,,,,546,1,0,1276596,,,,,,
60480,note_off,,,,,240,0,1,,,0,,,71,64
60480,note_on,,,,,0,0,1,,,0,,,71,40
60480,control_change,,,,,0,0,2,,,0,64,127,,
60480,note_on,,,,,0,0,2,,,0,,,42,48
60480,note_off,,,,,40,0,2,,,0,,,53,64
60480,note_off,,,,,40,0,3,,,0,,,59,64
60520,note_on,,,,,40,0,3,,,0,,,66,37
60560,note_on,,,,,0,0,3,,,0,,,62,35
60560,note_off,,,,,40,0,3,,,0,,,66,64
60600,note_off,,,,,120,0,2,,,0,,,42,64
60600,note_on,,,,,0,0,2,,,0,,,54,34
60600,note_off,,,,,40,0,3,,,0,,,62,64
60600,note_on,,,,,0,0,3,,,0,,,66,34
60640,note_off,,,,,40,0,3,,,0,,,66,64
60640,note_on,,,,,0,0,3,,,0,,,62,33
60680,note_on,,,,,0,0,3,,,0,,,61,31
60680,note_off,,,,,40,0,3,,,0,,,62,64
60680,control_change,,,,,80,0,2,,,0,64,0,,
60680,note_on,,,,,200,0,1,,,0,,,69,33
60682,note_off,,,,,2,0,1,,,0,,,71,64
60720,note_on,,,,,0,0,1,,,0,,,69,31
60720,note_off,,,,,40,0,3,,,0,,,61,64
60720,note_on,,,,,0,0,2,,,0,,,42,37
60720,note_off,,,,,40,0,2,,,0,,,54,64
60720,note_off,,,,,38,0,1,,,0,,,69,64
60720,control_change,,,,,0,0,2,,,0,64,127,,
60760,note_on,,,,,40,0,3,,,0,,,66,29
60786,set_tempo,,,,,340,1,0,1304348,,,,,,
60800,note_off,,,,,40,0,3,,,0,,,66,64
60800,note_on,,,,,0,0,3,,,0,,,61,28
60840,note_off,,,,,120,0,2,,,0,,,42,64
60840,note_on,,,,,0,0,2,,,0,,,54,27
60840,note_off,,,,,40,0,3,,,0,,,61,64
60840,note_on,,,,,0,0,3,,,0,,,66,27
60880,note_off,,,,,40,0,3,,,0,,,66,64
60880,note_on,,,,,0,0,3,,,0,,,61,25
60906,set_tempo,,,,,120,1,0,1333333,,,,,,
60920,control_change,,,,,80,0,2,,,0,64,0,,
60920,note_off,,,,,40,0,3,,,0,,,61,64
60920,set_tempo,,,,,14,1,0,1363636,,,,,,
60920,note_on,,,,,0,0,3,,,0,,,57,25
60960,note_off,,,,,40,0,3,,,0,,,57,64
60960,note_off,,,,,40,0,2,,,0,,,54,64
60960,note_on,,,,,0,0,2,,,0,,,42,30
60960,control_change,,,,,0,0,2,,,0,64,127,,
61000,note_on,,,,,40,0,3,,,0,,,66,26
61026,set_tempo,,,,,106,1,0,1395349,,,,,,
61040,note_off,,,,,40,0,3,,,0,,,66,64
61040,note_on,,,,,0,0,3,,,0,,,61,26
61052,set_tempo,,,,,26,1,0,1428571,,,,,,
61080,note_off,,,,,120,0,2,,,0,,,42,64
61080,note_off,,,,,40,0,3,,,0,,,61,64
61080,note_on,,,,,0,0,3,,,0,,,66,24
61080,note_on,,,,,0,0,2,,,0,,,54,21
61120,note_off,,,,,40,0,3,,,0,,,66,64
61120,note_on,,,,,0,0,3,,,0,,,61,23
61140,note_off,,,,,420,0,1,,,0,,,69,64
61160,note_off,,,,,40,0,3,,,0,,,61,64
61160,note_on,,,,,0,0,3,,,0,,,57,21
61160,control_change,,,,,80,0,2,,,0,64,0,,
61200,note_off,,,,,40,0,2,,,0,,,54,64
61200,note_on,,,,,60,0,1,,,0,,,69,28
61200,control_change,,,,,0,0,2,,,0,64,127,,
61200,note_off,,,,,40,0,3,,,0,,,57,64
61200,note_on,,,,,0,0,2,,,0,,,30,27
61240,note_on,,,,,40,0,3,,,0,,,66,27
61280,note_off,,,,,40,0,3,,,0,,,66,64
61280,note_on,,,,,0,0,3,,,0,,,61,26
61320,note_off,,,,,40,0,3,,,0,,,61,64
61320,note_on,,,,,0,0,3,,,0,,,66,25
61320,note_on,,,,,0,0,2,,,0,,,42,25
61320,note_off,,,,,120,0,2,,,0,,,30,64
61340,set_tempo,,,,,288,1,0,1395349,,,,,,
61360,set_tempo,,,,,20,1,0,1363636,,,,,,
61360,note_off,,,,,40,0,3,,,0,,,66,64
61360,note_on,,,,,0,0,3,,,0,,,61,24
61400,note_on,,,,,0,0,3,,,0,,,57,23
61400,note_off,,,,,40,0,3,,,0,,,61,64
61400,control_change,,,,,80,0,2,,,0,64,0,,
61440,note_off,,,,,40,0,2,,,0,,,42,64
61440,note_off,,,,,40,0,3,,,0,,,57,64
61440,note_on,,,,,0,0,2,,,0,,,30,36
61440,control_change,,,,,0,0,2,,,0,64,127,,
61480,note_on,,,,,40,0,3,,,0,,,66,29
61480,set_tempo,,,,,120,1,0,1333333,,,,,,
61506,set_tempo,,,,,26,1,0,1304348,,,,,,
61520,note_on,,,,,0,0,3,,,0,,,61,29
61520,note_off,,,,,40,0,3,,,0,,,66,64
61560,note_on,,,,,0,0,3,,,0,,,66,28
61560,note_off,,,,,40,0,3,,,0,,,61,64
61560,note_on,,,,,0,0,2,,,0,,,42,26
61560,note_off,,,,,120,0,2,,,0,,,30,64
61600,note_off,,,,,40,0,3,,,0,,,66,64
61600,note_on,,,,,0,0,3,,,0,,,61,28
61640,note_on,,,,,0,0,3,,,0,,,57,28
61640,control_change,,,,,80,0,2,,,0,64,0,,
61640,note_off,,,,,40,0,3,,,0,,,61,64
61680,note_off,,,,,40,0,2,,,0,,,42,64
61680,note_on,,,,,0,0,2,,,0,,,30,46
61680,control_change,,,,,0,0,2,,,0,64,127,,
61680,note_off,,,,,40,0,3,,,0,,,57,64
61680,note_off,,,,,480,0,1,,,0,,,69,64
61680,note_on,,,,,0,0,1,,,0,,,69,37
61720,note_on,,,,,40,0,3,,,0,,,66,25
61760,set_tempo,,,,,254,1,0,1276596,,,,,,
61760,note_on,,,,,0,0,3,,,0,,,62,26
61760,note_off,,,,,40,0,3,,,0,,,66,64
61800,note_on,,,,,0,0,3,,,0,,,66,28
61800,note_off,,,,,120,0,2,,,0,,,30,64
61800,note_off,,,,,40,0,3,,,0,,,62,64
61800,note_on,,,,,0,0,2,,,0,,,42,37
61806,set_tempo,,,,,46,1,0,1250000,,,,,,
61840,note_on,,,,,0,0,3,,,0,,,62,29
61840,note_off,,,,,40,0,3,,,0,,,66,64
61840,set_tempo,,,,,34,1,0,1224490,,,,,,
61872,set_tempo,,,,,32,1,0,1250000,,,,,,
61880,note_on,,,,,0,0,3,,,0,,,57,31
61880,note_off,,,,,40,0,3,,,0,,,62,64
61880,control_change,,,,,80,0,2,,,0,64,0,,
61912,set_tempo,,,,,40,1,0,1200000,,,,,,
61920,note_off,,,,,40,0,3,,,0,,,57,64
61920,note_on,,,,,0,0,1,,,0,,,69,41
61920,note_off,,,,,240,0,1,,,0,,,69,64
61920,note_off,,,,,40,0,2,,,0,,,42,64
61920,note_on,,,,,0,0,2,,,0,,,32,51
61920,control_change,,,,,0,0,2,,,0,64,127,,
61960,note_on,,,,,40,0,3,,,0,,,66,34
61986,set_tempo,,,,,74,1,0,1224490,,,,,,
62000,note_off,,,,,40,0,3,,,0,,,66,64
62000,note_on,,,,,0,0,3,,,0,,,61,34
62040,note_on,,,,,0,0,3,,,0,,,66,33
62040,note_on,,,,,0,0,2,,,0,,,44,37
62040,note_off,,,,,120,0,2,,,0,,,32,64
62040,note_off,,,,,40,0,3,,,0,,,61,64
62060,set_tempo,,,,,74,1,0,1250000,,,,,,
62080,note_off,,,,,40,0,3,,,0,,,66,64
62080,note_on,,,,,0,0,3,,,0,,,61,30
62120,note_on,,,,,0,0,1,,,0,,,68,30
62120,note_off,,,,,200,0,1,,,0,,,69,64
62120,control_change,,,,,80,0,2,,,0,64,0,,
62120,note_on,,,,,0,0,3,,,0,,,64,29
62120,note_off,,,,,40,0,3,,,0,,,61,64
62152,set_tempo,,,,,92,1,0,1276596,,,,,,
62160,note_on,,,,,0,0,2,,,0,,,32,39
62160,note_off,,,,,40,0,1,,,0,,,68,64
62160,note_on,,,,,0,0,1,,,0,,,68,29
62160,note_off,,,,,40,0,2,,,0,,,44,64
62160,note_off,,,,,40,0,3,,,0,,,64,64
62160,control_change,,,,,0,0,2,,,0,64,127,,
62200,note_on,,,,,40,0,3,,,0,,,64,25
62240,note_on,,,,,0,0,3,,,0,,,61,23
62240,note_off,,,,,40,0,3,,,0,,,64,64
62246,set_tempo,,,,,94,1,0,1304348,,,,,,
62280,note_off,,,,,40,0,3,,,0,,,61,64
62280,note_on,,,,,0,0,3,,,0,,,64,23
62280,note_on,,,,,0,0,2,,,0,,,44,23
62280,note_off,,,,,120,0,2,,,0,,,32,64
62312,set_tempo,,,,,66,1,0,1333333,,,,,,
62320,note_off,,,,,40,0,3,,,0,,,64,64
62320,note_on,,,,,0,0,3,,,0,,,61,21
62360,note_on,,,,,0,0,3,,,0,,,56,20
62360,note_off,,,,,40,0,3,,,0,,,61,64
62360,control_change,,,,,80,0,2,,,0,64,0,,
62366,set_tempo,,,,,54,1,0,1363636,,,,,,
62400,note_off,,,,,40,0,2,,,0,,,44,64
62400,note_on,,,,,0,0,2,,,0,,,32,28
62400,control_change,,,,,0,0,2,,,0,64,127,,
62400,note_off,,,,,40,0,3,,,0,,,56,64
62440,note_on,,,,,40,0,3,,,0,,,64,26
62460,set_tempo,,,,,94,1,0,1395349,,,,,,
62472,set_tempo,,,,,12,1,0,1428571,,,,,,
62480,note_on,,,,,0,0,3,,,0,,,61,23
62480,note_off,,,,,40,0,3,,,0,,,64,64
62520,note_on,,,,,0,0,2,,,0,,,44,23
62520,note_off,,,,,120,0,2,,,0,,,32,64
62520,note_on,,,,,0,0,3,,,0,,,64,21
62520,note_off,,,,,40,0,3,,,0,,,61,64
62560,note_on,,,,,0,0,3,,,0,,,61,18
62560,note_off,,,,,40,0,3,,,0,,,64,64
62572,set_tempo,,,,,100,1,0,1463415,,,,,,
62580,note_off,,,,,420,0,1,,,0,,,68,64
62600,note_on,,,,,0,0,3,,,0,,,56,16
62600,note_off,,,,,40,0,3,,,0,,,61,64
62600,control_change,,,,,80,0,2,,,0,64,0,,
62640,note_on,,,,,60,0,1,,,0,,,68,33
62640,note_off,,,,,40,0,3,,,0,,,56,64
62640,note_on,,,,,0,0,2,,,0,,,32,33
62640,note_off,,,,,40,0,2,,,0,,,44,64
62640,control_change,,,,,0,0,2,,,0,64,127,,
62680,note_on,,,,,40,0,3,,,0,,,63,28
62712,set_tempo,,,,,140,1,0,1500000,,,,,,
62720,note_off,,,,,40,0,3,,,0,,,63,64
62720,note_on,,,,,0,0,3,,,0,,,61,27
62760,note_on,,,,,0,0,2,,,0,,,44,21
62760,note_on,,,,,0,0,3,,,0,,,63,25
62760,note_off,,,,,40,0,3,,,0,,,61,64
62760,note_off,,,,,120,0,2,,,0,,,32,64
62766,set_tempo,,,,,54,1,0,1538462,,,,,,
62800,note_off,,,,,40,0,3,,,0,,,63,64
62800,note_on,,,,,0,0,3,,,0,,,61,23
62820,set_tempo,,,,,54,1,0,1578947,,,,,,
62840,control_change,,,,,80,0,2,,,0,64,0,,
62840,note_on,,,,,0,0,3,,,0,,,56,21
62840,note_off,,,,,40,0,3,,,0,,,61,64
62880,note_on,,,,,0,0,2,,,0,,,32,29
62880,control_change,,,,,0,0,2,,,0,64,127,,
62880,note_off,,,,,40,0,2,,,0,,,44,64
62880,note_off,,,,,40,0,3,,,0,,,56,64
62920,note_on,,,,,40,0,3,,,0,,,63,30
62940,set_tempo,,,,,120,1,0,1621622,,,,,,
62960,note_off,,,,,40,0,3,,,0,,,63,64
62960,note_on,,,,,0,0,3,,,0,,,61,28
63000,note_on,,,,,0,0,3,,,0,,,63,26
63000,set_tempo,,,,,60,1,0,1666667,,,,,,
63000,note_off,,,,,120,0,2,,,0,,,32,64
63000,note_on,,,,,0,0,2,,,0,,,44,18
63000,note_off,,,,,40,0,3,,,0,,,61,64
63026,set_tempo,,,,,26,1,0,1714286,,,,,,
63040,note_off,,,,,40,0,3,,,0,,,63,64
63040,note_on,,,,,0,0,3,,,0,,,61,24
63072,set_tempo,,,,,46,1,0,1764706,,,,,,
63080,note_off,,,,,40,0,3,,,0,,,61,64
63080,note_on,,,,,0,0,3,,,0,,,56,22
63080,control_change,,,,,80,0,2,,,0,64,0,,
63086,set_tempo,,,,,14,1,0,1818182,,,,,,
63112,set_tempo,,,,,26,1,0,1875000,,,,,,
63120,note_off,,,,,40,0,3,,,0,,,56,64
63120,note_off,,,,,480,0,1,,,0,,,68,64
63120,note_on,,,,,0,0,1,,,0,,,68,26
63120,note_off,,,,,40,0,2,,,0,,,44,64
63120,note_on,,,,,0,0,2,,,0,,,32,21
63120,control_change,,,,,0,0,2,,,0,64,127,,
63152,set_tempo,,,,,40,1,0,1935484,,,,,,
63160,note_on,,,,,40,0,3,,,0,,,63,20
63166,set_tempo,,,,,14,1,0,2000000,,,,,,
63186,set_tempo,,,,,20,1,0,2068966,,,,,,
63200,note_off,,,,,40,0,3,,,0,,,63,64
63200,note_on,,,,,0,0,3,,,0,,,60,19
63200,set_tempo,,,,,14,1,0,2142857,,,,,,
63206,set_tempo,,,,,6,1,0,2222222,,,,,,
63226,set_tempo,,,,,20,1,0,2307692,,,,,,
63240,note_on,,,,,0,0,2,,,0,,,44,16
63240,note_off,,,,,120,0,2,,,0,,,32,64
63240,note_off,,,,,40,0,3,,,0,,,60,64
63240,note_on,,,,,0,0,3,,,0,,,63,17
63280,note_on,,,,,0,0,3,,,0,,,60,16
63280,note_off,,,,,40,0,3,,,0,,,63,64
63320,control_change,,,,,80,0,2,,,0,64,0,,
63320,note_off,,,,,40,0,3,,,0,,,60,64
63320,note_on,,,,,0,0,3,,,0,,,56,14
63350,note_off,,,,,230,0,1,,,0,,,68,64
63350,end_of_track,,,,,0,1,3,,,,,,,
63350,note_off,,,,,30,0,3,,,0,,,56,64
63350,note_off,,,,,30,0,2,,,0,,,44,64
63366,set_tempo,,,,,140,1,0,1428571,,,,,,
64080,note_on,,,,,730,0,1,,,0,,,68,33
64080,marker,,,,,0,1,0,,,,,,,
64080,note_on,,,,,0,0,2,,,0,,,64,33
64080,control_change,,,,,0,0,2,,,0,64,127,,
64080,set_tempo,,,,,714,1,0,1250000,,,,,,
64080,note_on,,,,,730,0,2,,,0,,,37,36
64120,set_tempo,,,,,40,1,0,1176471,,,,,,
64160,control_change,,,,,80,0,2,,,0,64,0,,
64176,note_off,,,,,16,0,2,,,0,,,37,64
64200,control_change,,,,,24,0,2,,,0,64,127,,
64200,note_on,,,,,0,0,2,,,0,,,49,31
64310,control_change,,,,,110,0,2,,,0,64,0,,
64320,note_off,,,,,10,0,2,,,0,,,49,64
64320,control_change,,,,,0,0,2,,,0,64,127,,
64320,note_on,,,,,0,0,2,,,0,,,61,28
64400,control_change,,,,,80,0,2,,,0,64,0,,
64416,note_off,,,,,16,0,2,,,0,,,61,64
64440,note_on,,,,,24,0,2,,,0,,,73,24
64440,control_change,,,,,0,0,2,,,0,64,127,,
64520,control_change,,,,,80,0,2,,,0,64,0,,
64530,note_off,,,,,450,0,1,,,0,,,68,64
64530,note_off,,,,,10,0,2,,,0,,,64,64
64560,note_on,,,,,0,0,1,,,0,,,64,38
64560,note_on,,,,,30,0,1,,,0,,,68,38
64560,note_off,,,,,30,0,2,,,0,,,73,64
64620,note_on,,,,,60,0,2,,,0,,,37,32
64666,note_off,,,,,46,0,2,,,0,,,37,64
64680,note_on,,,,,14,0,2,,,0,,,37,39
64726,note_off,,,,,46,0,2,,,0,,,37,64
64740,note_on,,,,,0,0,1,,,0,,,66,35
64740,note_off,,,,,0,0,1,,,0,,,68,64
64740,note_off,,,,,180,0,1,,,0,,,64,64
64740,note_on,,,,,14,0,2,,,0,,,36,44
64740,note_on,,,,,0,0,1,,,0,,,63,35
64780,set_tempo,,,,,660,1,0,1250000,,,,,,
64786,note_off,,,,,46,0,2,,,0,,,36,64
64800,note_on,,,,,0,0,1,,,0,,,66,39
64800,control_change,,,,,14,0,2,,,0,64,127,,
64800,note_on,,,,,0,0,2,,,0,,,37,47
64800,note_off,,,,,0,0,1,,,0,,,66,64
64800,note_on,,,,,0,0,1,,,0,,,63,39
64800,note_off,,,,,60,0,1,,,0,,,63,64
64840,set_tempo,,,,,60,1,0,1176471,,,,,,
64880,control_change,,,,,80,0,2,,,0,64,0,,
64896,note_off,,,,,16,0,2,,,0,,,37,64
64920,note_on,,,,,24,0,2,,,0,,,49,36
64920,control_change,,,,,0,0,2,,,0,64,127,,
65030,control_change,,,,,110,0,2,,,0,64,0,,
65040,note_on,,,,,0,0,2,,,0,,,61,34
65040,control_change,,,,,0,0,2,,,0,64,127,,
65040,note_off,,,,,10,0,2,,,0,,,49,64
65120,control_change,,,,,80,0,2,,,0,64,0,,
65136,note_off,,,,,16,0,2,,,0,,,61,64
65160,control_change,,,,,24,0,2,,,0,64,127,,
65160,note_on,,,,,0,0,2,,,0,,,73,29
65220,note_off,,,,,420,0,1,,,0,,,63,64
65220,note_off,,,,,0,0,1,,,0,,,66,64
65240,control_change,,,,,80,0,2,,,0,64,0,,
65280,note_on,,,,,60,0,1,,,0,,,63,35
65280,note_on,,,,,0,0,1,,,0,,,66,35
65280,note_off,,,,,40,0,2,,,0,,,73,64
65340,note_on,,,,,60,0,2,,,0,,,37,33
65386,note_off,,,,,46,0,2,,,0,,,37,64
65400,note_on,,,,,14,0,2,,,0,,,37,39
65446,note_off,,,,,46,0,2,,,0,,,37,64
65460,note_on,,,,,14,0,2,,,0,,,36,45
65500,set_tempo,,,,,660,1,0,1224490,,,,,,
65506,note_off,,,,,46,0,2,,,0,,,36,64
65520,note_off,,,,,0,0,1,,,0,,,63,64
65520,note_off,,,,,240,0,1,,,0,,,66,64
65520,note_on,,,,,14,0,2,,,0,,,37,44
65520,control_change,,,,,0,0,2,,,0,64,127,,
65520,note_on,,,,,0,0,1,,,0,,,69,42
65520,note_on,,,,,0,0,1,,,0,,,66,42
65546,set_tempo,,,,,46,1,0,1176471,,,,,,
65600,control_change,,,,,80,0,2,,,0,64,0,,
65616,note_off,,,,,16,0,2,,,0,,,37,64
65640,note_on,,,,,0,0,2,,,0,,,49,35
65640,control_change,,,,,24,0,2,,,0,64,127,,
65750,control_change,,,,,110,0,2,,,0,64,0,,
65760,note_on,,,,,0,0,2,,,0,,,61,35
65760,control_change,,,,,0,0,2,,,0,64,127,,
65760,note_off,,,,,10,0,2,,,0,,,49,64
65840,control_change,,,,,80,0,2,,,0,64,0,,
65856,note_off,,,,,16,0,2,,,0,,,61,64
65880,note_on,,,,,0,0,2,,,0,,,73,27
65880,control_change,,,,,24,0,2,,,0,64,127,,
65960,control_change,,,,,80,0,2,,,0,64,0,,
65970,note_off,,,,,0,0,1,,,0,,,69,64
65970,note_off,,,,,450,0,1,,,0,,,66,64
66000,note_on,,,,,0,0,1,,,0,,,66,39
66000,note_on,,,,,30,0,1,,,0,,,69,39
66000,note_off,,,,,40,0,2,,,0,,,73,64
66060,note_on,,,,,60,0,2,,,0,,,37,36
66106,note_off,,,,,46,0,2,,,0,,,37,64
66120,note_on,,,,,14,0,2,,,0,,,37,40
66120,note_on,,,,,0,0,1,,,0,,,64,33
66120,note_on,,,,,0,0,1,,,0,,,68,33
66120,note_off,,,,,120,0,1,,,0,,,66,64
66120,note_off,,,,,0,0,1,,,0,,,69,64
66166,note_off,,,,,46,0,2,,,0,,,37,64
66180,note_off,,,,,0,0,1,,,0,,,68,64
66180,note_on,,,,,0,0,1,,,0,,,63,39
66180,note_on,,,,,0,0,1,,,0,,,66,39
66180,note_on,,,,,14,0,2,,,0,,,36,38
66180,note_off,,,,,60,0,1,,,0,,,64,64
66212,set_tempo,,,,,666,1,0,1224490,,,,,,
66226,note_off,,,,,46,0,2,,,0,,,36,64
66240,control_change,,,,,14,0,2,,,0,64,127,,
66240,note_on,,,,,0,0,2,,,0,,,37,47
66240,note_off,,,,,60,0,1,,,0,,,66,64
66240,note_off,,,,,0,0,1,,,0,,,63,64
66240,note_on,,,,,0,0,1,,,0,,,68,44
66240,note_on,,,,,0,0,1,,,0,,,64,44
66280,set_tempo,,,,,68,1,0,1176471,,,,,,
66320,control_change,,,,,80,0,2,,,0,64,0,,
66336,note_off,,,,,16,0,2,,,0,,,37,64
66360,note_on,,,,,24,0,2,,,0,,,49,30
66360,control_change,,,,,0,0,2,,,0,64,127,,
66470,control_change,,,,,110,0,2,,,0,64,0,,
66480,note_off,,,,,10,0,2,,,0,,,49,64
66480,note_on,,,,,0,0,2,,,0,,,61,30
66480,control_change,,,,,0,0,2,,,0,64,127,,
66560,control_change,,,,,80,0,2,,,0,64,0,,
66576,note_off,,,,,16,0,2,,,0,,,61,64
66600,control_change,,,,,24,0,2,,,0,64,127,,
66600,note_on,,,,,0,0,2,,,0,,,73,27
66660,note_off,,,,,420,0,1,,,0,,,64,64
66660,note_off,,,,,0,0,1,,,0,,,68,64
66680,control_change,,,,,80,0,2,,,0,64,0,,
66720,note_off,,,,,40,0,2,,,0,,,73,64
66720,note_on,,,,,60,0,1,,,0,,,64,39
66720,note_on,,,,,0,0,1,,,0,,,68,39
66780,note_on,,,,,60,0,2,,,0,,,37,40
66826,note_off,,,,,46,0,2,,,0,,,37,64
66840,note_on,,,,,14,0,2,,,0,,,37,45
66886,note_off,,,,,46,0,2,,,0,,,37,64
66900,note_on,,,,,14,0,2,,,0,,,36,51
66940,set_tempo,,,,,660,1,0,1224490,,,,,,
66946,note_off,,,,,46,0,2,,,0,,,36,64
66960,control_change,,,,,14,0,2,,,0,64,127,,
66960,note_on,,,,,0,0,2,,,0,,,37,55
66960,note_off,,,,,0,0,1,,,0,,,64,64
66960,note_off,,,,,240,0,1,,,0,,,68,64
66960,note_on,,,,,0,0,1,,,0,,,65,56
66960,note_on,,,,,0,0,1,,,0,,,71,56
67000,set_tempo,,,,,60,1,0,1176471,,,,,,
67040,control_change,,,,,80,0,2,,,0,64,0,,
67056,note_off,,,,,16,0,2,,,0,,,37,64
67080,note_on,,,,,0,0,2,,,0,,,49,44
67080,control_change,,,,,24,0,2,,,0,64,127,,
67120,control_change,,,,,40,0,2,,,0,91,96,,
67190,control_change,,,,,70,0,2,,,0,64,0,,
67200,note_off,,,,,10,0,2,,,0,,,49,64
67200,control_change,,,,,0,0,2,,,0,64,127,,
67200,note_on,,,,,0,0,2,,,0,,,61,44
67280,control_change,,,,,80,0,2,,,0,64,0,,
67296,note_off,,,,,16,0,2,,,0,,,61,64
67320,control_change,,,,,24,0,2,,,0,64,127,,
67320,note_on,,,,,0,0,2,,,0,,,73,29
67400,control_change,,,,,80,0,2,,,0,64,0,,
67410,note_off,,,,,0,0,1,,,0,,,65,64
67410,note_off,,,,,450,0,1,,,0,,,71,64
67440,note_off,,,,,40,0,2,,,0,,,73,64
67440,note_on,,,,,0,0,1,,,0,,,71,43
67440,note_on,,,,,30,0,1,,,0,,,65,43
67500,note_on,,,,,60,0,2,,,0,,,37,31
67500,note_on,,,,,0,0,1,,,0,,,68,38
67500,note_off,,,,,60,0,1,,,0,,,65,64
67546,note_off,,,,,46,0,2,,,0,,,37,64
67560,note_on,,,,,14,0,2,,,0,,,37,37
67560,note_on,,,,,0,0,1,,,0,,,66,43
67560,note_on,,,,,0,0,1,,,0,,,69,43
67560,note_off,,,,,0,0,1,,,0,,,71,64
67560,note_off,,,,,60,0,1,,,0,,,68,64
67606,note_off,,,,,46,0,2,,,0,,,37,64
67620,note_off,,,,,0,0,1,,,0,,,69,64
67620,note_off,,,,,60,0,1,,,0,,,66,64
67620,note_on,,,,,0,0,1,,,0,,,65,46
67620,note_on,,,,,0,0,1,,,0,,,68,46
67620,note_on,,,,,14,0,2,,,0,,,36,42
67660,set_tempo,,,,,660,1,0,1224490,,,,,,
67666,note_off,,,,,46,0,2,,,0,,,36,64
67680,note_off,,,,,0,0,1,,,0,,,65,64
67680,note_on,,,,,0,0,1,,,0,,,66,48
67680,note_off,,,,,60,0,1,,,0,,,68,64
67680,note_on,,,,,0,0,2,,,0,,,37,47
67680,control_change,,,,,14,0,2,,,0,64,127,,
67680,note_on,,,,,0,0,1,,,0,,,69,48
67720,set_tempo,,,,,60,1,0,1176471,,,,,,
67760,control_change,,,,,80,0,2,,,0,64,0,,
67776,note_off,,,,,16,0,2,,,0,,,37,64
67800,control_change,,,,,0,0,2,,,0,64,127,,
67800,note_on,,,,,24,0,2,,,0,,,49,44
67910,control_change,,,,,110,0,2,,,0,64,0,,
67920,control_change,,,,,0,0,2,,,0,64,127,,
67920,note_on,,,,,0,0,2,,,0,,,61,44
67920,note_off,,,,,10,0,2,,,0,,,49,64
68000,control_change,,,,,80,0,2,,,0,64,0,,
68010,note_off,,,,,330,0,1,,,0,,,66,64
68010,note_off,,,,,0,0,1,,,0,,,69,64
68016,note_off,,,,,16,0,2,,,0,,,61,64
68040,note_on,,,,,0,0,2,,,0,,,73,32
68040,control_change,,,,,24,0,2,,,0,64,127,,
68040,note_on,,,,,0,0,1,,,0,,,69,41
68040,note_on,,,,,30,0,1,,,0,,,66,41
68120,control_change,,,,,80,0,2,,,0,64,0,,
68130,note_off,,,,,90,0,1,,,0,,,69,64
68130,note_off,,,,,0,0,1,,,0,,,66,64
68160,note_on,,,,,0,0,1,,,0,,,69,46
68160,note_on,,,,,30,0,1,,,0,,,66,46
68160,note_off,,,,,40,0,2,,,0,,,73,64
68220,note_on,,,,,60,0,2,,,0,,,37,58
68250,note_off,,,,,0,0,1,,,0,,,66,64
68250,note_off,,,,,90,0,1,,,0,,,69,64
68266,note_off,,,,,46,0,2,,,0,,,37,64
68280,note_on,,,,,0,0,1,,,0,,,66,52
68280,note_on,,,,,30,0,1,,,0,,,69,52
68280,note_on,,,,,14,0,2,,,0,,,37,64
68326,note_off,,,,,46,0,2,,,0,,,37,64
68340,note_on,,,,,14,0,2,,,0,,,36,71
68370,note_off,,,,,0,0,1,,,0,,,69,64
68370,note_off,,,,,90,0,1,,,0,,,66,64
68372,set_tempo,,,,,652,1,0,1224490,,,,,,
68386,note_off,,,,,46,0,2,,,0,,,36,64
68400,control_change,,,,,0,0,2,,,0,64,127,,
68400,note_on,,,,,14,0,2,,,0,,,37,81
68400,note_on,,,,,0,0,1,,,0,,,73,60
68400,note_on,,,,,30,0,1,,,0,,,69,60
68440,set_tempo,,,,,68,1,0,1176471,,,,,,
68480,control_change,,,,,80,0,2,,,0,64,0,,
68496,note_off,,,,,16,0,2,,,0,,,37,64
68520,note_on,,,,,0,0,2,,,0,,,49,61
68520,control_change,,,,,24,0,2,,,0,64,127,,
68630,control_change,,,,,110,0,2,,,0,64,0,,
68640,control_change,,,,,0,0,2,,,0,64,127,,
68640,note_on,,,,,0,0,2,,,0,,,61,60
68640,note_off,,,,,10,0,2,,,0,,,49,64
68720,control_change,,,,,80,0,2,,,0,64,0,,
68736,note_off,,,,,16,0,2,,,0,,,61,64
68760,control_change,,,,,0,0,2,,,0,64,127,,
68760,note_on,,,,,24,0,2,,,0,,,73,43
68840,control_change,,,,,80,0,2,,,0,64,0,,
68850,note_off,,,,,0,0,1,,,0,,,69,64
68850,note_off,,,,,450,0,1,,,0,,,73,64
68880,note_on,,,,,30,0,1,,,0,,,69,53
68880,note_on,,,,,0,0,1,,,0,,,73,53
68880,note_off,,,,,40,0,2,,,0,,,73,64
68940,note_on,,,,,60,0,2,,,0,,,37,42
68986,note_off,,,,,46,0,2,,,0,,,37,64
69000,note_on,,,,,14,0,2,,,0,,,37,47
69046,note_off,,,,,46,0,2,,,0,,,37,64
69060,note_off,,,,,180,0,1,,,0,,,73,64
69060,note_on,,,,,0,0,1,,,0,,,66,45
69060,note_on,,,,,0,0,1,,,0,,,69,45
69060,note_on,,,,,14,0,2,,,0,,,36,51
69060,note_off,,,,,0,0,1,,,0,,,69,64
69092,set_tempo,,,,,652,1,0,1224490,,,,,,
69106,note_off,,,,,46,0,2,,,0,,,36,64
69120,note_on,,,,,14,0,2,,,0,,,37,56
69120,control_change,,,,,0,0,2,,,0,64,127,,
69120,note_on,,,,,0,0,1,,,0,,,68,35
69120,note_on,,,,,0,0,1,,,0,,,64,35
69120,note_off,,,,,0,0,1,,,0,,,66,64
69120,note_off,,,,,60,0,1,,,0,,,69,64
69160,set_tempo,,,,,68,1,0,1176471,,,,,,
69200,control_change,,,,,80,0,2,,,0,64,0,,
69216,note_off,,,,,16,0,2,,,0,,,37,64
69240,note_on,,,,,24,0,2,,,0,,,49,36
69240,control_change,,,,,0,0,2,,,0,64,127,,
69350,control_change,,,,,110,0,2,,,0,64,0,,
69360,note_on,,,,,0,0,2,,,0,,,61,34
69360,note_off,,,,,10,0,2,,,0,,,49,64
69360,control_change,,,,,0,0,2,,,0,64,127,,
69440,control_change,,,,,80,0,2,,,0,64,0,,
69456,note_off,,,,,16,0,2,,,0,,,61,64
69480,note_on,,,,,24,0,2,,,0,,,73,28
69480,control_change,,,,,0,0,2,,,0,64,127,,
69560,control_change,,,,,80,0,2,,,0,64,0,,
69600,note_off,,,,,40,0,2,,,0,,,73,64
69660,note_on,,,,,60,0,2,,,0,,,37,51
69690,note_off,,,,,570,0,1,,,0,,,68,64
69690,note_off,,,,,0,0,1,,,0,,,64,64
69706,note_off,,,,,46,0,2,,,0,,,37,64
69720,note_on,,,,,30,0,1,,,0,,,68,46
69720,note_on,,,,,0,0,1,,,0,,,64,46
69720,note_on,,,,,14,0,2,,,0,,,37,51
69766,note_off,,,,,46,0,2,,,0,,,37,64
69780,note_on,,,,,14,0,2,,,0,,,40,61
69820,set_tempo,,,,,660,1,0,1224490,,,,,,
69826,set_tempo,,,,,6,1,0,1250000,,,,,,
69826,note_off,,,,,46,0,2,,,0,,,40,64
69840,note_on,,,,,14,0,2,,,0,,,32,75
69840,control_change,,,,,0,0,2,,,0,64,127,,
69840,note_on,,,,,0,0,1,,,0,,,69,60
69840,note_on,,,,,0,0,1,,,0,,,64,60
69840,note_off,,,,,120,0,1,,,0,,,64,64
69840,note_on,,,,,0,0,1,,,0,,,73,60
69840,note_off,,,,,0,0,1,,,0,,,68,64
69892,set_tempo,,,,,66,1,0,1176471,,,,,,
69920,control_change,,,,,80,0,2,,,0,64,0,,
69936,note_off,,,,,16,0,2,,,0,,,32,64
69960,control_change,,,,,24,0,2,,,0,64,127,,
69960,note_on,,,,,0,0,2,,,0,,,44,56
70020,note_off,,,,,0,0,1,,,0,,,73,64
70020,note_on,,,,,0,0,1,,,0,,,68,38
70020,note_on,,,,,0,0,1,,,0,,,72,38
70020,note_off,,,,,0,0,1,,,0,,,69,64
70020,note_off,,,,,180,0,1,,,0,,,64,64
70020,note_on,,,,,0,0,1,,,0,,,63,38
70070,control_change,,,,,110,0,2,,,0,64,0,,
70080,note_off,,,,,10,0,2,,,0,,,44,64
70080,note_off,,,,,0,0,1,,,0,,,68,64
70080,note_off,,,,,0,0,1,,,0,,,72,64
70080,note_off,,,,,60,0,1,,,0,,,63,64
70080,note_on,,,,,0,0,1,,,0,,,63,42
70080,note_on,,,,,0,0,1,,,0,,,72,42
70080,control_change,,,,,0,0,2,,,0,64,127,,
70080,note_on,,,,,0,0,2,,,0,,,56,55
70080,note_on,,,,,0,0,1,,,0,,,68,42
70160,control_change,,,,,80,0,2,,,0,64,0,,
70176,note_off,,,,,16,0,2,,,0,,,56,64
70200,control_change,,,,,0,0,2,,,0,64,127,,
70200,note_on,,,,,24,0,2,,,0,,,80,48
70280,control_change,,,,,80,0,2,,,0,64,0,,
70320,note_off,,,,,40,0,2,,,0,,,80,64
70380,note_off,,,,,0,0,1,,,0,,,72,64
70380,note_off,,,,,300,0,1,,,0,,,68,64
70380,note_off,,,,,0,0,1,,,0,,,63,64
70380,note_on,,,,,60,0,2,,,0,,,32,58
70426,note_off,,,,,46,0,2,,,0,,,32,64
70440,note_on,,,,,14,0,2,,,0,,,32,65
70440,note_on,,,,,0,0,1,,,0,,,68,63
70440,note_on,,,,,60,0,1,,,0,,,72,63
70486,note_off,,,,,46,0,2,,,0,,,32,64
70500,note_on,,,,,14,0,2,,,0,,,31,71
70512,set_tempo,,,,,620,1,0,1276596,,,,,,
70546,note_off,,,,,46,0,2,,,0,,,31,64
70560,control_change,,,,,14,0,2,,,0,64,127,,
70560,note_off,,,,,120,0,1,,,0,,,68,64
70560,note_off,,,,,0,0,1,,,0,,,72,64
70560,note_on,,,,,0,0,1,,,0,,,73,72
70560,note_on,,,,,0,0,1,,,0,,,76,72
70560,note_on,,,,,0,0,1,,,0,,,67,72
70560,note_on,,,,,0,0,2,,,0,,,32,82
70620,set_tempo,,,,,108,1,0,1176471,,,,,,
70640,control_change,,,,,80,0,2,,,0,64,0,,
70656,note_off,,,,,16,0,2,,,0,,,32,64
70680,control_change,,,,,0,0,2,,,0,64,127,,
70680,note_on,,,,,24,0,2,,,0,,,44,75
70740,note_off,,,,,0,0,1,,,0,,,73,64
70740,note_on,,,,,0,0,1,,,0,,,68,52
70740,note_off,,,,,0,0,1,,,0,,,76,64
70740,note_off,,,,,180,0,1,,,0,,,67,64
70740,note_on,,,,,0,0,1,,,0,,,75,52
70740,note_on,,,,,0,0,1,,,0,,,72,52
70790,control_change,,,,,110,0,2,,,0,64,0,,
70800,note_on,,,,,0,0,1,,,0,,,68,58
70800,note_on,,,,,0,0,1,,,0,,,75,58
70800,note_off,,,,,0,0,1,,,0,,,75,64
70800,note_off,,,,,0,0,1,,,0,,,72,64
70800,note_off,,,,,60,0,1,,,0,,,68,64
70800,note_off,,,,,10,0,2,,,0,,,44,64
70800,control_change,,,,,0,0,2,,,0,64,127,,
70800,note_on,,,,,0,0,2,,,0,,,56,73
70800,note_on,,,,,0,0,1,,,0,,,72,58
70880,control_change,,,,,80,0,2,,,0,64,0,,
70896,note_off,,,,,16,0,2,,,0,,,56,64
70920,note_on,,,,,0,0,2,,,0,,,80,60
70920,control_change,,,,,24,0,2,,,0,64,127,,
71000,control_change,,,,,80,0,2,,,0,64,0,,
71040,note_off,,,,,40,0,2,,,0,,,80,64
71100,note_on,,,,,60,0,2,,,0,,,32,76
71100,note_off,,,,,300,0,1,,,0,,,72,64
71100,note_off,,,,,0,0,1,,,0,,,68,64
71100,note_off,,,,,0,0,1,,,0,,,75,64
71146,note_off,,,,,46,0,2,,,0,,,32,64
71160,note_on,,,,,60,0,1,,,0,,,68,81
71160,note_on,,,,,0,0,1,,,0,,,75,81
71160,note_on,,,,,0,0,1,,,0,,,72,81
71160,note_on,,,,,14,0,2,,,0,,,32,86
71206,note_off,,,,,46,0,2,,,0,,,32,64
71220,note_on,,,,,14,0,2,,,0,,,31,93
71220,set_tempo,,,,,600,1,0,1333333,,,,,,
71266,note_off,,,,,46,0,2,,,0,,,31,64
71280,note_on,,,,,0,0,1,,,0,,,80,95
71280,control_change,,,,,14,0,2,,,0,64,127,,
71280,note_on,,,,,0,0,1,,,0,,,76,95
71280,note_on,,,,,0,0,2,,,0,,,32,96
71280,note_on,,,,,0,0,1,,,0,,,68,95
71280,note_off,,,,,0,0,1,,,0,,,75,64
71280,note_off,,,,,120,0,1,,,0,,,72,64
71280,note_off,,,,,0,0,1,,,0,,,68,64
71340,set_tempo,,,,,120,1,0,1176471,,,,,,
71360,control_change,,,,,80,0,2,,,0,64,0,,
71376,note_off,,,,,16,0,2,,,0,,,32,64
71400,control_change,,,,,0,0,2,,,0,64,127,,
71400,note_on,,,,,24,0,2,,,0,,,44,92
71460,note_on,,,,,0,0,1,,,0,,,75,76
71460,note_on,,,,,0,0,1,,,0,,,69,76
71460,note_on,,,,,0,0,1,,,0,,,78,76
71460,note_off,,,,,0,0,1,,,0,,,68,64
71460,note_off,,,,,180,0,1,,,0,,,76,64
71460,note_off,,,,,0,0,1,,,0,,,80,64
71510,control_change,,,,,110,0,2,,,0,64,0,,
71520,note_off,,,,,0,0,1,,,0,,,69,64
71520,note_on,,,,,0,0,2,,,0,,,56,92
71520,note_on,,,,,0,0,1,,,0,,,75,86
71520,note_on,,,,,0,0,1,,,0,,,69,86
71520,note_off,,,,,10,0,2,,,0,,,44,64
71520,control_change,,,,,0,0,2,,,0,64,127,,
71520,note_on,,,,,0,0,1,,,0,,,78,86
71520,note_off,,,,,60,0,1,,,0,,,75,64
71520,note_off,,,,,0,0,1,,,0,,,78,64
71600,control_change,,,,,80,0,2,,,0,64,0,,
71616,note_off,,,,,16,0,2,,,0,,,56,64
71640,control_change,,,,,0,0,2,,,0,64,127,,
71640,note_on,,,,,24,0,2,,,0,,,80,78
71720,control_change,,,,,80,0,2,,,0,64,0,,
71760,note_off,,,,,40,0,2,,,0,,,80,64
71820,note_on,,,,,60,0,2,,,0,,,32,84
71820,note_off,,,,,0,0,1,,,0,,,75,64
71820,note_off,,,,,300,0,1,,,0,,,69,64
71820,note_off,,,,,0,0,1,,,0,,,78,64
71866,note_off,,,,,46,0,2,,,0,,,32,64
71880,note_on,,,,,60,0,1,,,0,,,69,94
71880,note_on,,,,,0,0,1,,,0,,,75,94
71880,note_on,,,,,0,0,1,,,0,,,78,94
71880,note_on,,,,,14,0,2,,,0,,,32,91
71926,note_off,,,,,46,0,2,,,0,,,32,64
71926,set_tempo,,,,,586,1,0,1428571,,,,,,
71940,note_on,,,,,14,0,2,,,0,,,31,98
71940,set_tempo,,,,,14,1,0,1463415,,,,,,
71986,note_off,,,,,46,0,2,,,0,,,31,64
72000,note_off,,,,,120,0,1,,,0,,,78,64
72000,note_off,,,,,0,0,1,,,0,,,69,64
72000,note_off,,,,,0,0,1,,,0,,,75,64
72000,note_on,,,,,0,0,1,,,0,,,73,107
72000,note_on,,,,,0,0,1,,,0,,,76,107
72000,note_on,,,,,14,0,2,,,0,,,32,101
72000,note_on,,,,,0,0,1,,,0,,,81,107
72000,control_change,,,,,0,0,2,,,0,64,127,,
72066,set_tempo,,,,,126,1,0,1395349,,,,,,
72080,set_tempo,,,,,14,1,0,1200000,,,,,,
72080,control_change,,,,,80,0,2,,,0,64,0,,
72096,note_off,,,,,16,0,2,,,0,,,32,64
72120,control_change,,,,,24,0,2,,,0,64,127,,
72120,note_on,,,,,0,0,2,,,0,,,44,78
72180,note_off,,,,,0,0,1,,,0,,,73,64
72180,note_off,,,,,0,0,1,,,0,,,81,64
72180,note_on,,,,,0,0,1,,,0,,,75,85
72180,note_on,,,,,0,0,1,,,0,,,80,85
72180,note_on,,,,,0,0,1,,,0,,,72,85
72180,note_off,,,,,180,0,1,,,0,,,76,64
72230,control_change,,,,,110,0,2,,,0,64,0,,
72240,note_off,,,,,60,0,1,,,0,,,72,64
72240,note_on,,,,,0,0,1,,,0,,,80,68
72240,note_off,,,,,0,0,1,,,0,,,80,64
72240,control_change,,,,,0,0,2,,,0,64,127,,
72240,note_on,,,,,0,0,1,,,0,,,75,68
72240,note_on,,,,,0,0,1,,,0,,,72,68
72240,note_off,,,,,10,0,2,,,0,,,44,64
72240,note_on,,,,,0,0,2,,,0,,,56,68
72240,note_off,,,,,0,0,1,,,0,,,75,64
72320,control_change,,,,,80,0,2,,,0,64,0,,
72336,note_off,,,,,16,0,2,,,0,,,56,64
72360,control_change,,,,,0,0,2,,,0,64,127,,
72360,note_on,,,,,24,0,2,,,0,,,68,47
72440,control_change,,,,,80,0,2,,,0,64,0,,
72480,note_off,,,,,40,0,2,,,0,,,68,64
72540,note_on,,,,,60,0,2,,,0,,,32,50
72586,note_off,,,,,46,0,2,,,0,,,32,64
72600,note_on,,,,,14,0,2,,,0,,,32,57
72646,note_off,,,,,46,0,2,,,0,,,32,64
72660,note_on,,,,,14,0,2,,,0,,,31,62
72706,note_off,,,,,46,0,2,,,0,,,31,64
72720,control_change,,,,,0,0,2,,,0,64,127,,
72720,note_on,,,,,14,0,2,,,0,,,32,65
72800,control_change,,,,,80,0,2,,,0,64,0,,
72816,note_off,,,,,16,0,2,,,0,,,32,64
72840,note_on,,,,,24,0,2,,,0,,,44,45
72840,control_change,,,,,0,0,2,,,0,64,127,,
72950,control_change,,,,,110,0,2,,,0,64,0,,
72960,note_on,,,,,0,0,2,,,0,,,56,44
72960,note_off,,,,,10,0,2,,,0,,,44,64
72960,control_change,,,,,0,0,2,,,0,64,127,,
73040,control_change,,,,,80,0,2,,,0,64,0,,
73056,note_off,,,,,16,0,2,,,0,,,56,64
73080,control_change,,,,,24,0,2,,,0,64,127,,
73080,note_on,,,,,0,0,2,,,0,,,68,37
73160,control_change,,,,,80,0,2,,,0,64,0,,
73200,note_off,,,,,40,0,2,,,0,,,68,64
73306,set_tempo,,,,,1226,1,0,1578947,,,,,,
73440,note_off,,,,,1200,0,1,,,0,,,80,64
73440,note_off,,,,,0,0,1,,,0,,,72,64
73440,note_off,,,,,0,0,1,,,0,,,75,64
73440,note_on,,,,,0,0,1,,,0,,,76,37
73440,note_on,,,,,0,0,1,,,0,,,72,37
73440,note_on,,,,,0,0,1,,,0,,,79,37
73440,note_on,,,,,0,0,2,,,0,,,36,40
73440,control_change,,,,,240,0,2,,,0,64,127,,
73520,control_change,,,,,80,0,2,,,0,64,0,,
73532,set_tempo,,,,,226,1,0,1200000,,,,,,
73536,note_off,,,,,16,0,2,,,0,,,36,64
73560,note_on,,,,,24,0,2,,,0,,,48,32
73560,control_change,,,,,0,0,2,,,0,64,127,,
73670,control_change,,,,,110,0,2,,,0,64,0,,
73680,note_off,,,,,10,0,2,,,0,,,48,64
73680,control_change,,,,,0,0,2,,,0,64,127,,
73680,note_on,,,,,0,0,2,,,0,,,60,34
73760,control_change,,,,,80,0,2,,,0,64,0,,
73776,note_off,,,,,16,0,2,,,0,,,60,64
73800,note_on,,,,,0,0,2,,,0,,,64,25
73800,control_change,,,,,24,0,2,,,0,64,127,,
73880,control_change,,,,,80,0,2,,,0,64,0,,
73920,note_off,,,,,40,0,2,,,0,,,64,64
73980,note_on,,,,,60,0,2,,,0,,,36,26
74026,note_off,,,,,46,0,2,,,0,,,36,64
74040,note_off,,,,,600,0,1,,,0,,,79,64
74040,note_on,,,,,0,0,1,,,0,,,84,32
74040,note_on,,,,,0,0,1,,,0,,,72,32
74040,note_on,,,,,0,0,1,,,0,,,79,32
74040,note_off,,,,,0,0,1,,,0,,,76,64
74040,note_off,,,,,0,0,1,,,0,,,72,64
74040,note_on,,,,,14,0,2,,,0,,,38,31
74086,note_off,,,,,46,0,2,,,0,,,38,64
74092,set_tempo,,,,,560,1,0,1363636,,,,,,
74100,note_on,,,,,14,0,2,,,0,,,40,35
74146,note_off,,,,,46,0,2,,,0,,,40,64
74160,control_change,,,,,0,0,2,,,0,64,127,,
74160,note_on,,,,,14,0,2,,,0,,,29,38
74160,note_on,,,,,0,0,1,,,0,,,77,40
74160,note_off,,,,,0,0,1,,,0,,,72,64
74160,note_off,,,,,0,0,1,,,0,,,79,64
74160,note_on,,,,,0,0,1,,,0,,,83,40
74160,note_on,,,,,0,0,1,,,0,,,72,40
74160,note_off,,,,,120,0,1,,,0,,,84,64
74240,control_change,,,,,80,0,2,,,0,64,0,,
74256,note_off,,,,,16,0,2,,,0,,,29,64
74266,set_tempo,,,,,174,1,0,1200000,,,,,,
74280,control_change,,,,,24,0,2,,,0,64,127,,
74280,note_on,,,,,0,0,2,,,0,,,41,31
74340,note_on,,,,,0,0,1,,,0,,,81,30
74340,note_off,,,,,0,0,1,,,0,,,83,64
74340,note_off,,,,,0,0,1,,,0,,,72,64
74340,note_off,,,,,180,0,1,,,0,,,77,64
74390,control_change,,,,,110,0,2,,,0,64,0,,
74400,note_on,,,,,0,0,2,,,0,,,53,33
74400,note_on,,,,,0,0,1,,,0,,,72,25
74400,note_on,,,,,0,0,1,,,0,,,77,25
74400,note_on,,,,,0,0,1,,,0,,,81,25
74400,note_off,,,,,60,0,1,,,0,,,81,64
74400,control_change,,,,,0,0,2,,,0,64,127,,
74400,note_off,,,,,10,0,2,,,0,,,41,64
74480,control_change,,,,,80,0,2,,,0,64,0,,
74496,note_off,,,,,16,0,2,,,0,,,53,64
74520,control_change,,,,,24,0,2,,,0,64,127,,
74520,note_on,,,,,0,0,2,,,0,,,65,26
74600,control_change,,,,,80,0,2,,,0,64,0,,
74640,note_off,,,,,40,0,2,,,0,,,65,64
74700,note_on,,,,,60,0,2,,,0,,,38,26
74700,note_off,,,,,0,0,1,,,0,,,81,64
74700,note_off,,,,,300,0,1,,,0,,,72,64
74700,note_off,,,,,0,0,1,,,0,,,77,64
74746,note_off,,,,,46,0,2,,,0,,,38,64
74760,note_on,,,,,0,0,1,,,0,,,81,30
74760,note_on,,,,,0,0,1,,,0,,,76,30
74760,note_on,,,,,60,0,1,,,0,,,72,30
74760,note_on,,,,,14,0,2,,,0,,,40,31
74806,note_off,,,,,46,0,2,,,0,,,40,64
74820,note_on,,,,,14,0,2,,,0,,,41,35
74826,set_tempo,,,,,560,1,0,1363636,,,,,,
74866,note_off,,,,,46,0,2,,,0,,,41,64
74880,note_off,,,,,0,0,1,,,0,,,76,64
74880,note_on,,,,,0,0,1,,,0,,,81,39
74880,note_off,,,,,0,0,1,,,0,,,72,64
74880,note_off,,,,,120,0,1,,,0,,,81,64
74880,note_on,,,,,14,0,2,,,0,,,31,38
74880,control_change,,,,,0,0,2,,,0,64,127,,
74880,note_on,,,,,0,0,1,,,0,,,74,39
74880,note_on,,,,,0,0,1,,,0,,,72,39
74952,set_tempo,,,,,126,1,0,1200000,,,,,,
74960,control_change,,,,,80,0,2,,,0,64,0,,
74976,note_off,,,,,16,0,2,,,0,,,31,64
75000,control_change,,,,,24,0,2,,,0,64,127,,
75000,note_on,,,,,0,0,2,,,0,,,43,34
75060,note_off,,,,,180,0,1,,,0,,,72,64
75060,note_off,,,,,0,0,1,,,0,,,81,64
75060,note_on,,,,,0,0,1,,,0,,,71,31
75060,note_on,,,,,0,0,1,,,0,,,79,31
75110,control_change,,,,,110,0,2,,,0,64,0,,
75120,note_on,,,,,0,0,1,,,0,,,71,21
75120,note_off,,,,,10,0,2,,,0,,,43,64
75120,note_off,,,,,60,0,1,,,0,,,79,64
75120,note_off,,,,,0,0,1,,,0,,,71,64
75120,note_off,,,,,0,0,1,,,0,,,74,64
75120,note_on,,,,,0,0,1,,,0,,,79,21
75120,note_on,,,,,0,0,1,,,0,,,74,21
75120,control_change,,,,,0,0,2,,,0,64,127,,
75120,note_on,,,,,0,0,2,,,0,,,55,37
75200,control_change,,,,,80,0,2,,,0,64,0,,
75216,note_off,,,,,16,0,2,,,0,,,55,64
75240,control_change,,,,,0,0,2,,,0,64,127,,
75240,note_on,,,,,24,0,2,,,0,,,67,26
75320,control_change,,,,,80,0,2,,,0,64,0,,
75360,note_off,,,,,40,0,2,,,0,,,67,64
75420,note_on,,,,,60,0,2,,,0,,,31,28
75466,note_off,,,,,46,0,2,,,0,,,31,64
75480,note_off,,,,,0,0,1,,,0,,,79,64
75480,note_on,,,,,14,0,2,,,0,,,33,28
75480,note_off,,,,,360,0,1,,,0,,,71,64
75480,note_off,,,,,0,0,1,,,0,,,74,64
75480,note_on,,,,,0,0,1,,,0,,,72,32
75480,note_on,,,,,0,0,1,,,0,,,69,32
75480,note_on,,,,,0,0,1,,,0,,,77,32
75526,note_off,,,,,46,0,2,,,0,,,33,64
75540,note_on,,,,,14,0,2,,,0,,,35,29
75566,set_tempo,,,,,614,1,0,1333333,,,,,,
75586,note_off,,,,,46,0,2,,,0,,,35,64
75600,note_on,,,,,14,0,2,,,0,,,36,31
75600,control_change,,,,,0,0,2,,,0,64,127,,
75600,note_off,,,,,0,0,1,,,0,,,72,64
75600,note_off,,,,,120,0,1,,,0,,,77,64
75600,note_on,,,,,0,0,1,,,0,,,76,35
75600,note_on,,,,,0,0,1,,,0,,,72,35
75600,note_off,,,,,0,0,1,,,0,,,69,64
75600,note_on,,,,,0,0,1,,,0,,,67,35
75680,control_change,,,,,80,0,2,,,0,64,0,,
75696,note_off,,,,,16,0,2,,,0,,,36,64
75712,set_tempo,,,,,146,1,0,1200000,,,,,,
75720,control_change,,,,,24,0,2,,,0,64,127,,
75720,note_on,,,,,0,0,2,,,0,,,48,23
75830,control_change,,,,,110,0,2,,,0,64,0,,
75840,note_off,,,,,0,0,1,,,0,,,76,64
75840,control_change,,,,,0,0,2,,,0,64,127,,
75840,note_on,,,,,0,0,2,,,0,,,60,25
75840,note_off,,,,,10,0,2,,,0,,,48,64
75840,note_off,,,,,0,0,1,,,0,,,72,64
75840,note_on,,,,,0,0,1,,,0,,,72,20
75840,note_off,,,,,240,0,1,,,0,,,67,64
75840,note_on,,,,,0,0,1,,,0,,,67,20
75840,note_on,,,,,0,0,1,,,0,,,64,20
75920,control_change,,,,,80,0,2,,,0,64,0,,
75936,note_off,,,,,16,0,2,,,0,,,60,64
75960,note_on,,,,,0,0,2,,,0,,,84,20
75960,control_change,,,,,24,0,2,,,0,64,127,,
76040,control_change,,,,,80,0,2,,,0,64,0,,
76080,note_off,,,,,40,0,2,,,0,,,84,64
76140,note_on,,,,,60,0,2,,,0,,,36,30
76186,note_off,,,,,46,0,2,,,0,,,36,64
76200,note_on,,,,,14,0,2,,,0,,,36,34
76200,note_off,,,,,360,0,1,,,0,,,67,64
76200,note_off,,,,,0,0,1,,,0,,,72,64
76200,note_off,,,,,0,0,1,,,0,,,64,64
76246,note_off,,,,,46,0,2,,,0,,,36,64
76260,note_on,,,,,14,0,2,,,0,,,38,37
76306,note_off,,,,,46,0,2,,,0,,,38,64
76320,note_on,,,,,0,0,1,,,0,,,60,34
76320,set_tempo,,,,,608,1,0,1250000,,,,,,
76320,note_on,,,,,120,0,1,,,0,,,64,34
76320,control_change,,,,,0,0,2,,,0,64,127,,
76320,note_on,,,,,14,0,2,,,0,,,36,38
76360,set_tempo,,,,,40,1,0,1176471,,,,,,
76400,control_change,,,,,80,0,2,,,0,64,0,,
76416,note_off,,,,,16,0,2,,,0,,,36,64
76440,control_change,,,,,24,0,2,,,0,64,127,,
76440,note_on,,,,,0,0,2,,,0,,,55,32
76550,control_change,,,,,110,0,2,,,0,64,0,,
76560,note_off,,,,,10,0,2,,,0,,,55,64
76560,note_on,,,,,0,0,2,,,0,,,67,31
76560,control_change,,,,,0,0,2,,,0,64,127,,
76640,control_change,,,,,80,0,2,,,0,64,0,,
76656,note_off,,,,,16,0,2,,,0,,,67,64
76680,control_change,,,,,0,0,2,,,0,64,127,,
76680,note_on,,,,,24,0,2,,,0,,,79,30
76760,control_change,,,,,80,0,2,,,0,64,0,,
76770,note_off,,,,,450,0,1,,,0,,,60,64
76770,note_off,,,,,0,0,1,,,0,,,64,64
76800,note_on,,,,,30,0,1,,,0,,,64,38
76800,note_off,,,,,40,0,2,,,0,,,79,64
76800,note_on,,,,,0,0,1,,,0,,,60,38
76860,note_on,,,,,60,0,2,,,0,,,36,31
76906,note_off,,,,,46,0,2,,,0,,,36,64
76920,note_on,,,,,14,0,2,,,0,,,36,35
76966,note_off,,,,,46,0,2,,,0,,,36,64
76980,note_on,,,,,14,0,2,,,0,,,38,38
76980,note_off,,,,,180,0,1,,,0,,,60,64
76980,note_off,,,,,0,0,1,,,0,,,64,64
76980,note_on,,,,,0,0,1,,,0,,,62,31
76980,note_on,,,,,0,0,1,,,0,,,59,31
77020,set_tempo,,,,,660,1,0,1250000,,,,,,
77026,note_off,,,,,46,0,2,,,0,,,38,64
77040,note_on,,,,,0,0,1,,,0,,,59,39
77040,note_off,,,,,0,0,1,,,0,,,59,64
77040,note_off,,,,,60,0,1,,,0,,,62,64
77040,note_on,,,,,0,0,2,,,0,,,36,39
77040,control_change,,,,,14,0,2,,,0,64,127,,
77040,note_on,,,,,0,0,1,,,0,,,62,39
77080,set_tempo,,,,,60,1,0,1176471,,,,,,
77120,control_change,,,,,80,0,2,,,0,64,0,,
77136,note_off,,,,,16,0,2,,,0,,,36,64
77160,note_on,,,,,24,0,2,,,0,,,55,34
77160,control_change,,,,,0,0,2,,,0,64,127,,
77270,control_change,,,,,110,0,2,,,0,64,0,,
77280,note_off,,,,,10,0,2,,,0,,,55,64
77280,control_change,,,,,0,0,2,,,0,64,127,,
77280,note_on,,,,,0,0,2,,,0,,,67,33
77360,control_change,,,,,80,0,2,,,0,64,0,,
77376,note_off,,,,,16,0,2,,,0,,,67,64
77400,control_change,,,,,24,0,2,,,0,64,127,,
77400,note_on,,,,,0,0,2,,,0,,,79,31
77460,note_off,,,,,420,0,1,,,0,,,62,64
77460,note_off,,,,,0,0,1,,,0,,,59,64
77480,control_change,,,,,80,0,2,,,0,64,0,,
77520,note_off,,,,,40,0,2,,,0,,,79,64
77520,note_on,,,,,0,0,1,,,0,,,59,35
77520,note_on,,,,,60,0,1,,,0,,,62,35
77580,note_on,,,,,60,0,2,,,0,,,36,35
77626,note_off,,,,,46,0,2,,,0,,,36,64
77640,note_on,,,,,14,0,2,,,0,,,36,38
77686,note_off,,,,,46,0,2,,,0,,,36,64
77700,note_on,,,,,14,0,2,,,0,,,38,42
77740,set_tempo,,,,,660,1,0,1224490,,,,,,
77746,note_off,,,,,46,0,2,,,0,,,38,64
77760,note_on,,,,,14,0,2,,,0,,,36,47
77760,note_off,,,,,0,0,1,,,0,,,62,64
77760,note_on,,,,,0,0,1,,,0,,,65,42
77760,note_on,,,,,0,0,1,,,0,,,60,42
77760,note_on,,,,,0,0,1,,,0,,,57,42
77760,control_change,,,,,0,0,2,,,0,64,127,,
77760,note_off,,,,,240,0,1,,,0,,,59,64
77786,set_tempo,,,,,46,1,0,1176471,,,,,,
77840,control_change,,,,,80,0,2,,,0,64,0,,
77856,note_off,,,,,16,0,2,,,0,,,36,64
77880,control_change,,,,,24,0,2,,,0,64,127,,
77880,note_on,,,,,0,0,2,,,0,,,55,36
77990,control_change,,,,,110,0,2,,,0,64,0,,
78000,note_off,,,,,10,0,2,,,0,,,55,64
78000,note_on,,,,,0,0,2,,,0,,,67,36
78000,control_change,,,,,0,0,2,,,0,64,127,,
78080,control_change,,,,,80,0,2,,,0,64,0,,
78096,note_off,,,,,16,0,2,,,0,,,67,64
78120,control_change,,,,,24,0,2,,,0,64,127,,
78120,note_on,,,,,0,0,2,,,0,,,79,33
78200,control_change,,,,,80,0,2,,,0,64,0,,
78210,note_off,,,,,0,0,1,,,0,,,65,64
78210,note_off,,,,,450,0,1,,,0,,,57,64
78210,note_off,,,,,0,0,1,,,0,,,60,64
78240,note_on,,,,,0,0,1,,,0,,,65,39
78240,note_on,,,,,30,0,1,,,0,,,59,39
78240,note_off,,,,,40,0,2,,,0,,,79,64
78300,note_on,,,,,0,0,1,,,0,,,62,35
78300,note_off,,,,,60,0,1,,,0,,,59,64
78300,note_on,,,,,60,0,2,,,0,,,36,35
78346,note_off,,,,,46,0,2,,,0,,,36,64
78360,note_off,,,,,0,0,1,,,0,,,65,64
78360,note_on,,,,,0,0,1,,,0,,,64,37
78360,note_off,,,,,60,0,1,,,0,,,62,64
78360,note_on,,,,,0,0,1,,,0,,,60,37
78360,note_on,,,,,14,0,2,,,0,,,36,36
78406,note_off,,,,,46,0,2,,,0,,,36,64
78420,note_on,,,,,14,0,2,,,0,,,38,39
78420,note_on,,,,,0,0,1,,,0,,,62,46
78420,note_on,,,,,0,0,1,,,0,,,59,46
78420,note_off,,,,,0,0,1,,,0,,,64,64
78420,note_off,,,,,60,0,1,,,0,,,60,64
78452,set_tempo,,,,,666,1,0,1224490,,,,,,
78466,note_off,,,,,46,0,2,,,0,,,38,64
78480,control_change,,,,,0,0,2,,,0,64,127,,
78480,note_on,,,,,14,0,2,,,0,,,36,43
78480,note_off,,,,,0,0,1,,,0,,,59,64
78480,note_on,,,,,0,0,1,,,0,,,64,51
78480,note_on,,,,,0,0,1,,,0,,,60,51
78480,note_off,,,,,60,0,1,,,0,,,62,64
78520,set_tempo,,,,,68,1,0,1176471,,,,,,
78560,control_change,,,,,80,0,2,,,0,64,0,,
78576,note_off,,,,,16,0,2,,,0,,,36,64
78600,note_on,,,,,0,0,2,,,0,,,55,32
78600,control_change,,,,,24,0,2,,,0,64,127,,
78710,control_change,,,,,110,0,2,,,0,64,0,,
78720,note_on,,,,,0,0,2,,,0,,,67,30
78720,control_change,,,,,0,0,2,,,0,64,127,,
78720,note_off,,,,,10,0,2,,,0,,,55,64
78780,note_off,,,,,300,0,1,,,0,,,60,64
78780,note_off,,,,,0,0,1,,,0,,,64,64
78800,control_change,,,,,80,0,2,,,0,64,0,,
78816,note_off,,,,,16,0,2,,,0,,,67,64
78840,note_on,,,,,0,0,2,,,0,,,79,31
78840,note_on,,,,,60,0,1,,,0,,,64,41
78840,control_change,,,,,24,0,2,,,0,64,127,,
78840,note_on,,,,,0,0,1,,,0,,,60,41
78920,control_change,,,,,80,0,2,,,0,64,0,,
78920,set_tempo,,,,,400,1,0,1200000,,,,,,
78960,note_off,,,,,0,0,1,,,0,,,64,64
78960,note_on,,,,,0,0,1,,,0,,,59,48
78960,note_off,,,,,40,0,2,,,0,,,79,64
78960,note_on,,,,,0,0,1,,,0,,,64,48
78960,note_off,,,,,120,0,1,,,0,,,60,64
78966,set_tempo,,,,,46,1,0,1176471,,,,,,
78980,set_tempo,,,,,14,1,0,1200000,,,,,,
79020,note_on,,,,,60,0,2,,,0,,,36,38
79046,set_tempo,,,,,66,1,0,1224490,,,,,,
79066,note_off,,,,,46,0,2,,,0,,,36,64
79080,note_off,,,,,120,0,1,,,0,,,64,64
79080,note_on,,,,,14,0,2,,,0,,,36,42
79080,note_on,,,,,0,0,1,,,0,,,58,57
79080,note_on,,,,,0,0,1,,,0,,,66,57
79080,set_tempo,,,,,34,1,0,1250000,,,,,,
79080,note_off,,,,,0,0,1,,,0,,,59,64
79092,set_tempo,,,,,12,1,0,1276596,,,,,,
79120,set_tempo,,,,,28,1,0,1304348,,,,,,
79126,note_off,,,,,46,0,2,,,0,,,36,64
79140,note_on,,,,,14,0,2,,,0,,,38,47
79160,set_tempo,,,,,40,1,0,1333333,,,,,,
79166,set_tempo,,,,,6,1,0,1363636,,,,,,
79186,note_off,,,,,46,0,2,,,0,,,38,64
79200,note_off,,,,,120,0,1,,,0,,,58,64
79200,note_off,,,,,0,0,1,,,0,,,66,64
79200,note_on,,,,,0,0,1,,,0,,,68,62
79200,note_on,,,,,0,0,1,,,0,,,59,62
79200,note_on,,,,,0,0,2,,,0,,,35,54
79200,control_change,,,,,14,0,2,,,0,64,127,,
79206,set_tempo,,,,,40,1,0,1395349,,,,,,
79220,set_tempo,,,,,14,1,0,1363636,,,,,,
79240,set_tempo,,,,,20,1,0,1333333,,,,,,
79246,set_tempo,,,,,6,1,0,1304348,,,,,,
79272,set_tempo,,,,,26,1,0,1276596,,,,,,
79280,control_change,,,,,80,0,2,,,0,64,0,,
79296,note_off,,,,,16,0,2,,,0,,,35,64
79300,set_tempo,,,,,28,1,0,1250000,,,,,,
79320,control_change,,,,,24,0,2,,,0,64,127,,
79320,note_on,,,,,0,0,1,,,0,,,64,49
79320,note_off,,,,,120,0,1,,,0,,,59,64
79320,set_tempo,,,,,20,1,0,1224490,,,,,,
79320,note_on,,,,,0,0,2,,,0,,,47,50
79352,set_tempo,,,,,32,1,0,1200000,,,,,,
79360,control_change,,,,,40,0,2,,,0,91,96,,
79400,set_tempo,,,,,48,1,0,1176471,,,,,,
79430,control_change,,,,,70,0,2,,,0,64,0,,
79440,set_tempo,,,,,40,1,0,1153846,,,,,,
79440,note_off,,,,,10,0,2,,,0,,,47,64
79440,note_on,,,,,0,0,2,,,0,,,59,43
79440,control_change,,,,,0,0,2,,,0,64,127,,
79520,control_change,,,,,80,0,2,,,0,64,0,,
79536,note_off,,,,,16,0,2,,,0,,,59,64
79560,control_change,,,,,0,0,2,,,0,64,127,,
79560,note_on,,,,,24,0,2,,,0,,,71,34
79640,control_change,,,,,80,0,2,,,0,64,0,,
79650,note_off,,,,,330,0,1,,,0,,,64,64
79650,note_off,,,,,0,0,1,,,0,,,68,64
79680,note_off,,,,,40,0,2,,,0,,,71,64
79680,note_on,,,,,30,0,1,,,0,,,64,53
79680,note_on,,,,,0,0,1,,,0,,,68,53
79740,note_on,,,,,60,0,2,,,0,,,35,36
79786,note_off,,,,,46,0,2,,,0,,,35,64
79800,note_on,,,,,14,0,2,,,0,,,35,43
79846,note_off,,,,,46,0,2,,,0,,,35,64
79860,note_off,,,,,0,0,1,,,0,,,64,64
79860,note_on,,,,,0,0,1,,,0,,,66,44
79860,note_on,,,,,14,0,2,,,0,,,37,47
79860,note_off,,,,,180,0,1,,,0,,,68,64
79860,note_on,,,,,0,0,1,,,0,,,63,44
79900,set_tempo,,,,,460,1,0,1224490,,,,,,
79906,note_off,,,,,46,0,2,,,0,,,37,64
79920,note_on,,,,,0,0,1,,,0,,,63,50
79920,note_off,,,,,60,0,1,,,0,,,66,64
79920,note_off,,,,,0,0,1,,,0,,,63,64
79920,control_change,,,,,0,0,2,,,0,64,127,,
79920,note_on,,,,,0,0,1,,,0,,,66,50
79920,note_on,,,,,14,0,2,,,0,,,35,50
79960,set_tempo,,,,,60,1,0,1176471,,,,,,
80000,control_change,,,,,80,0,2,,,0,64,0,,
80016,note_off,,,,,16,0,2,,,0,,,35,64
80040,note_on,,,,,0,0,2,,,0,,,47,42
80040,control_change,,,,,24,0,2,,,0,64,127,,
80150,control_change,,,,,110,0,2,,,0,64,0,,
80160,control_change,,,,,0,0,2,,,0,64,127,,
80160,note_off,,,,,10,0,2,,,0,,,47,64
80160,note_on,,,,,0,0,2,,,0,,,59,44
80240,control_change,,,,,80,0,2,,,0,64,0,,
80250,note_off,,,,,330,0,1,,,0,,,66,64
80250,note_off,,,,,0,0,1,,,0,,,63,64
80256,note_off,,,,,16,0,2,,,0,,,59,64
80280,control_change,,,,,0,0,2,,,0,64,127,,
80280,note_on,,,,,24,0,2,,,0,,,71,33
80360,control_change,,,,,80,0,2,,,0,64,0,,
80366,set_tempo,,,,,406,1,0,1200000,,,,,,
80400,note_on,,,,,150,0,1,,,0,,,66,50
80400,note_on,,,,,0,0,1,,,0,,,63,50
80400,note_off,,,,,40,0,2,,,0,,,71,64
80460,note_on,,,,,60,0,2,,,0,,,35,52
80486,set_tempo,,,,,120,1,0,1224490,,,,,,
80506,note_off,,,,,46,0,2,,,0,,,35,64
80512,set_tempo,,,,,26,1,0,1276596,,,,,,
80520,note_on,,,,,14,0,2,,,0,,,35,59
80560,set_tempo,,,,,48,1,0,1304348,,,,,,
80566,note_off,,,,,46,0,2,,,0,,,35,64
80580,note_on,,,,,14,0,2,,,0,,,37,64
80592,set_tempo,,,,,32,1,0,1333333,,,,,,
80606,set_tempo,,,,,14,1,0,1363636,,,,,,
80620,set_tempo,,,,,14,1,0,1395349,,,,,,
80626,note_off,,,,,46,0,2,,,0,,,37,64
80632,set_tempo,,,,,12,1,0,1428571,,,,,,
80640,note_off,,,,,240,0,1,,,0,,,63,64
80640,control_change,,,,,0,0,2,,,0,64,127,,
80640,note_on,,,,,0,0,1,,,0,,,61,67
80640,note_off,,,,,0,0,1,,,0,,,66,64
80640,note_on,,,,,0,0,1,,,0,,,69,67
80640,note_on,,,,,14,0,2,,,0,,,35,76
80646,set_tempo,,,,,14,1,0,1463415,,,,,,
80652,set_tempo,,,,,6,1,0,1428571,,,,,,
80666,set_tempo,,,,,14,1,0,1363636,,,,,,
80672,set_tempo,,,,,6,1,0,1333333,,,,,,
80686,set_tempo,,,,,14,1,0,1304348,,,,,,
80692,set_tempo,,,,,6,1,0,1276596,,,,,,
80700,set_tempo,,,,,8,1,0,1224490,,,,,,
80720,control_change,,,,,80,0,2,,,0,64,0,,
80720,set_tempo,,,,,20,1,0,1200000,,,,,,
80726,set_tempo,,,,,6,1,0,1176471,,,,,,
80736,note_off,,,,,16,0,2,,,0,,,35,64
80760,note_on,,,,,24,0,2,,,0,,,47,51
80760,control_change,,,,,0,0,2,,,0,64,127,,
80766,set_tempo,,,,,40,1,0,1153846,,,,,,
80840,set_tempo,,,,,74,1,0,1176471,,,,,,
80846,set_tempo,,,,,6,1,0,1153846,,,,,,
80870,control_change,,,,,110,0,2,,,0,64,0,,
80880,control_change,,,,,0,0,2,,,0,64,127,,
80880,note_on,,,,,0,0,2,,,0,,,59,52
80880,note_off,,,,,10,0,2,,,0,,,47,64
80960,control_change,,,,,80,0,2,,,0,64,0,,
80976,note_off,,,,,16,0,2,,,0,,,59,64
81000,control_change,,,,,24,0,2,,,0,64,127,,
81000,note_on,,,,,0,0,2,,,0,,,71,47
81080,control_change,,,,,80,0,2,,,0,64,0,,
81090,note_off,,,,,0,0,1,,,0,,,61,64
81090,note_off,,,,,450,0,1,,,0,,,69,64
81120,note_off,,,,,40,0,2,,,0,,,71,64
81120,note_on,,,,,0,0,1,,,0,,,69,56
81120,note_on,,,,,30,0,1,,,0,,,63,56
81180,note_on,,,,,0,0,1,,,0,,,66,51
81180,note_off,,,,,60,0,1,,,0,,,63,64
81180,note_on,,,,,60,0,2,,,0,,,35,35
81226,note_off,,,,,46,0,2,,,0,,,35,64
81240,note_on,,,,,14,0,2,,,0,,,35,39
81240,note_on,,,,,0,0,1,,,0,,,68,47
81240,note_on,,,,,0,0,1,,,0,,,64,47
81240,note_off,,,,,60,0,1,,,0,,,66,64
81286,note_off,,,,,46,0,2,,,0,,,35,64
81300,note_off,,,,,0,0,1,,,0,,,64,64
81300,note_on,,,,,14,0,2,,,0,,,37,43
81300,note_on,,,,,0,0,1,,,0,,,66,43
81300,note_on,,,,,0,0,1,,,0,,,63,43
81300,note_off,,,,,60,0,1,,,0,,,68,64
81300,note_off,,,,,0,0,1,,,0,,,69,64
81332,set_tempo,,,,,486,1,0,1224490,,,,,,
81346,note_off,,,,,46,0,2,,,0,,,37,64
81360,note_on,,,,,0,0,1,,,0,,,68,39
81360,note_on,,,,,14,0,2,,,0,,,35,47
81360,control_change,,,,,0,0,2,,,0,64,127,,
81360,note_on,,,,,0,0,1,,,0,,,64,39
81360,note_off,,,,,0,0,1,,,0,,,66,64
81360,note_off,,,,,60,0,1,,,0,,,63,64
81400,set_tempo,,,,,68,1,0,1176471,,,,,,
81440,control_change,,,,,80,0,2,,,0,64,0,,
81456,note_off,,,,,16,0,2,,,0,,,35,64
81480,control_change,,,,,24,0,2,,,0,64,127,,
81480,note_on,,,,,0,0,2,,,0,,,47,42
81590,control_change,,,,,110,0,2,,,0,64,0,,
81600,control_change,,,,,0,0,2,,,0,64,127,,
81600,note_on,,,,,0,0,2,,,0,,,59,42
81600,note_off,,,,,10,0,2,,,0,,,47,64
81680,control_change,,,,,80,0,2,,,0,64,0,,
81696,note_off,,,,,16,0,2,,,0,,,59,64
81720,note_on,,,,,0,0,2,,,0,,,71,38
81720,control_change,,,,,24,0,2,,,0,64,127,,
81800,control_change,,,,,80,0,2,,,0,64,0,,
81840,note_off,,,,,40,0,2,,,0,,,71,64
81900,note_on,,,,,60,0,2,,,0,,,35,50
81930,note_off,,,,,570,0,1,,,0,,,68,64
81930,note_off,,,,,0,0,1,,,0,,,64,64
81946,note_off,,,,,46,0,2,,,0,,,35,64
81960,note_on,,,,,0,0,1,,,0,,,68,56
81960,note_on,,,,,30,0,1,,,0,,,71,56
81960,note_on,,,,,14,0,2,,,0,,,35,58
82006,note_off,,,,,46,0,2,,,0,,,35,64
82020,note_on,,,,,14,0,2,,,0,,,37,65
82060,set_tempo,,,,,660,1,0,1428571,,,,,,
82066,note_off,,,,,46,0,2,,,0,,,37,64
82080,control_change,,,,,14,0,2,,,0,64,127,,
82080,note_on,,,,,0,0,2,,,0,,,35,75
82080,note_off,,,,,120,0,1,,,0,,,68,64
82080,note_off,,,,,0,0,1,,,0,,,71,64
82080,note_on,,,,,0,0,1,,,0,,,71,69
82080,note_on,,,,,0,0,1,,,0,,,68,69
82080,note_on,,,,,0,0,1,,,0,,,76,69
82132,set_tempo,,,,,72,1,0,1176471,,,,,,
82160,control_change,,,,,80,0,2,,,0,64,0,,
82176,note_off,,,,,16,0,2,,,0,,,35,64
82200,control_change,,,,,0,0,2,,,0,64,127,,
82200,note_on,,,,,24,0,2,,,0,,,47,56
82260,note_off,,,,,0,0,1,,,0,,,68,64
82260,note_off,,,,,0,0,1,,,0,,,76,64
82260,note_on,,,,,0,0,1,,,0,,,71,53
82260,note_on,,,,,0,0,1,,,0,,,75,53
82260,note_on,,,,,0,0,1,,,0,,,66,53
82260,note_off,,,,,180,0,1,,,0,,,71,64
82310,control_change,,,,,110,0,2,,,0,64,0,,
82320,note_on,,,,,0,0,2,,,0,,,59,44
82320,control_change,,,,,0,0,2,,,0,64,127,,
82320,note_off,,,,,60,0,1,,,0,,,66,64
82320,note_off,,,,,0,0,1,,,0,,,75,64
82320,note_off,,,,,0,0,1,,,0,,,71,64
82320,note_on,,,,,0,0,1,,,0,,,75,55
82320,note_on,,,,,0,0,1,,,0,,,71,55
82320,note_on,,,,,0,0,1,,,0,,,66,55
82320,note_off,,,,,10,0,2,,,0,,,47,64
82400,control_change,,,,,80,0,2,,,0,64,0,,
82416,note_off,,,,,16,0,2,,,0,,,59,64
82440,control_change,,,,,24,0,2,,,0,64,127,,
82440,note_on,,,,,0,0,2,,,0,,,83,36
82520,control_change,,,,,80,0,2,,,0,64,0,,
82560,note_off,,,,,40,0,2,,,0,,,83,64
82620,note_on,,,,,60,0,2,,,0,,,35,62
82620,note_off,,,,,300,0,1,,,0,,,66,64
82620,note_off,,,,,0,0,1,,,0,,,71,64
82620,note_off,,,,,0,0,1,,,0,,,75,64
82666,note_off,,,,,46,0,2,,,0,,,35,64
82680,note_on,,,,,14,0,2,,,0,,,35,70
82680,note_on,,,,,0,0,1,,,0,,,71,74
82680,note_on,,,,,60,0,1,,,0,,,75,74
82726,note_off,,,,,46,0,2,,,0,,,35,64
82740,note_on,,,,,14,0,2,,,0,,,37,82
82752,set_tempo,,,,,620,1,0,1463415,,,,,,
82786,note_off,,,,,46,0,2,,,0,,,37,64
82800,note_on,,,,,14,0,2,,,0,,,35,89
82800,note_on,,,,,0,0,1,,,0,,,80,79
82800,note_on,,,,,0,0,1,,,0,,,71,79
82800,note_on,,,,,0,0,1,,,0,,,76,79
82800,note_off,,,,,0,0,1,,,0,,,75,64
82800,note_off,,,,,120,0,1,,,0,,,71,64
82800,control_change,,,,,0,0,2,,,0,64,127,,
82860,set_tempo,,,,,108,1,0,1176471,,,,,,
82880,control_change,,,,,80,0,2,,,0,64,0,,
82896,note_off,,,,,16,0,2,,,0,,,35,64
82920,control_change,,,,,0,0,2,,,0,64,127,,
82920,note_on,,,,,24,0,2,,,0,,,47,68
82980,note_on,,,,,0,0,1,,,0,,,75,66
82980,note_on,,,,,0,0,1,,,0,,,78,66
82980,note_off,,,,,180,0,1,,,0,,,80,64
82980,note_off,,,,,0,0,1,,,0,,,76,64
83030,control_change,,,,,110,0,2,,,0,64,0,,
83040,note_on,,,,,0,0,1,,,0,,,75,73
83040,note_off,,,,,60,0,1,,,0,,,78,64
83040,note_on,,,,,0,0,1,,,0,,,78,73
83040,note_on,,,,,0,0,1,,,0,,,71,73
83040,note_off,,,,,0,0,1,,,0,,,75,64
83040,note_off,,,,,0,0,1,,,0,,,71,64
83040,note_off,,,,,10,0,2,,,0,,,47,64
83040,note_on,,,,,0,0,2,,,0,,,59,63
83040,control_change,,,,,0,0,2,,,0,64,127,,
83120,control_change,,,,,80,0,2,,,0,64,0,,
83136,note_off,,,,,16,0,2,,,0,,,59,64
83160,note_on,,,,,24,0,2,,,0,,,83,65
83160,control_change,,,,,0,0,2,,,0,64,127,,
83240,control_change,,,,,80,0,2,,,0,64,0,,
83280,note_off,,,,,40,0,2,,,0,,,83,64
83340,note_on,,,,,60,0,2,,,0,,,35,74
83340,note_off,,,,,0,0,1,,,0,,,75,64
83340,note_off,,,,,0,0,1,,,0,,,78,64
83340,note_off,,,,,300,0,1,,,0,,,71,64
83386,note_off,,,,,46,0,2,,,0,,,35,64
83400,note_on,,,,,14,0,2,,,0,,,35,82
83400,note_on,,,,,0,0,1,,,0,,,80,91
83400,note_on,,,,,0,0,1,,,0,,,71,91
83400,note_on,,,,,60,0,1,,,0,,,76,91
83446,note_off,,,,,46,0,2,,,0,,,35,64
83460,note_on,,,,,14,0,2,,,0,,,37,91
83460,set_tempo,,,,,600,1,0,1538462,,,,,,
83506,note_off,,,,,46,0,2,,,0,,,37,64
83520,note_off,,,,,0,0,1,,,0,,,76,64
83520,note_on,,,,,0,0,1,,,0,,,85,106
83520,note_off,,,,,120,0,1,,,0,,,80,64
83520,note_off,,,,,0,0,1,,,0,,,71,64
83520,note_on,,,,,0,0,1,,,0,,,76,106
83520,note_on,,,,,0,0,1,,,0,,,80,106
83520,note_on,,,,,0,0,2,,,0,,,35,107
83520,control_change,,,,,14,0,2,,,0,64,127,,
83532,set_tempo,,,,,72,1,0,1333333,,,,,,
83580,set_tempo,,,,,48,1,0,1176471,,,,,,
83600,control_change,,,,,80,0,2,,,0,64,0,,
83616,note_off,,,,,16,0,2,,,0,,,35,64
83640,control_change,,,,,0,0,2,,,0,64,127,,
83640,note_on,,,,,24,0,2,,,0,,,47,94
83700,note_off,,,,,180,0,1,,,0,,,76,64
83700,note_off,,,,,0,0,1,,,0,,,85,64
83700,note_on,,,,,0,0,1,,,0,,,83,91
83700,note_on,,,,,0,0,1,,,0,,,78,91
83700,note_off,,,,,0,0,1,,,0,,,80,64
83700,note_on,,,,,0,0,1,,,0,,,75,91
83750,control_change,,,,,110,0,2,,,0,64,0,,
83760,note_on,,,,,0,0,1,,,0,,,83,95
83760,note_on,,,,,0,0,2,,,0,,,59,83
83760,note_on,,,,,0,0,1,,,0,,,75,95
83760,note_off,,,,,60,0,1,,,0,,,75,64
83760,note_off,,,,,0,0,1,,,0,,,78,64
83760,note_off,,,,,0,0,1,,,0,,,83,64
83760,note_off,,,,,10,0,2,,,0,,,47,64
83760,control_change,,,,,0,0,2,,,0,64,127,,
83760,note_on,,,,,0,0,1,,,0,,,78,95
83840,control_change,,,,,80,0,2,,,0,64,0,,
83856,note_off,,,,,16,0,2,,,0,,,59,64
83880,control_change,,,,,0,0,2,,,0,64,127,,
83880,note_on,,,,,24,0,2,,,0,,,71,75
83960,control_change,,,,,80,0,2,,,0,64,0,,
84000,note_off,,,,,40,0,2,,,0,,,71,64
84060,note_on,,,,,60,0,2,,,0,,,35,42
84106,note_off,,,,,46,0,2,,,0,,,35,64
84120,note_on,,,,,14,0,2,,,0,,,35,46
84126,set_tempo,,,,,546,1,0,1200000,,,,,,
84166,note_off,,,,,46,0,2,,,0,,,35,64
84180,note_on,,,,,14,0,2,,,0,,,37,50
84226,note_off,,,,,46,0,2,,,0,,,37,64
84240,control_change,,,,,14,0,2,,,0,64,127,,
84240,note_on,,,,,0,0,2,,,0,,,35,58
84320,control_change,,,,,80,0,2,,,0,64,0,,
84336,note_off,,,,,16,0,2,,,0,,,35,64
84360,control_change,,,,,0,0,2,,,0,64,127,,
84360,note_on,,,,,24,0,2,,,0,,,47,42
84470,control_change,,,,,110,0,2,,,0,64,0,,
84480,note_on,,,,,0,0,2,,,0,,,59,40
84480,note_off,,,,,10,0,2,,,0,,,47,64
84480,control_change,,,,,0,0,2,,,0,64,127,,
84560,control_change,,,,,80,0,2,,,0,64,0,,
84576,note_off,,,,,16,0,2,,,0,,,59,64
84600,note_on,,,,,24,0,2,,,0,,,71,26
84600,control_change,,,,,0,0,2,,,0,64,127,,
84680,control_change,,,,,80,0,2,,,0,64,0,,
84720,note_off,,,,,40,0,2,,,0,,,71,64
84780,note_off,,,,,0,0,1,,,0,,,78,64
84780,note_off,,,,,0,0,1,,,0,,,83,64
84780,note_off,,,,,1020,0,1,,,0,,,75,64
84840,note_on,,,,,60,0,1,,,0,,,81,37
84960,note_off,,,,,120,0,1,,,0,,,81,64
84960,note_on,,,,,0,0,2,,,0,,,37,40
84960,control_change,,,,,240,0,2,,,0,64,127,,
84960,note_on,,,,,0,0,1,,,0,,,68,42
84960,note_on,,,,,0,0,1,,,0,,,76,42
84960,note_on,,,,,0,0,1,,,0,,,80,42
85040,control_change,,,,,80,0,2,,,0,64,0,,
85056,note_off,,,,,16,0,2,,,0,,,37,64
85080,note_on,,,,,24,0,2,,,0,,,49,32
85080,control_change,,,,,0,0,2,,,0,64,127,,
85190,control_change,,,,,110,0,2,,,0,64,0,,
85200,note_off,,,,,10,0,2,,,0,,,49,64
85200,control_change,,,,,0,0,2,,,0,64,127,,
85200,note_on,,,,,0,0,2,,,0,,,61,34
85280,control_change,,,,,80,0,2,,,0,64,0,,
85296,note_off,,,,,16,0,2,,,0,,,61,64
85320,control_change,,,,,24,0,2,,,0,64,127,,
85320,note_on,,,,,0,0,2,,,0,,,73,25
85400,control_change,,,,,80,0,2,,,0,64,0,,
85440,note_off,,,,,40,0,2,,,0,,,73,64
85500,note_on,,,,,60,0,2,,,0,,,37,32
85546,note_off,,,,,46,0,2,,,0,,,37,64
85560,note_off,,,,,0,0,1,,,0,,,76,64
85560,note_off,,,,,0,0,1,,,0,,,80,64
85560,note_on,,,,,0,0,1,,,0,,,76,32
85560,note_on,,,,,0,0,1,,,0,,,64,32
85560,note_on,,,,,14,0,2,,,0,,,39,37
85560,note_off,,,,,600,0,1,,,0,,,68,64
85560,note_on,,,,,0,0,1,,,0,,,68,32
85606,note_off,,,,,46,0,2,,,0,,,39,64
85614,set_tempo,,,,,1488,1,0,1363636,,,,,,
85620,note_on,,,,,14,0,2,,,0,,,40,43
85666,note_off,,,,,46,0,2,,,0,,,40,64
85680,note_on,,,,,14,0,2,,,0,,,30,38
85680,note_on,,,,,0,0,1,,,0,,,75,40
85680,note_off,,,,,0,0,1,,,0,,,68,64
85680,note_off,,,,,0,0,1,,,0,,,76,64
85680,control_change,,,,,0,0,2,,,0,64,127,,
85680,note_on,,,,,0,0,1,,,0,,,66,40
85680,note_off,,,,,120,0,1,,,0,,,64,64
85680,note_on,,,,,0,0,1,,,0,,,69,40
85760,control_change,,,,,80,0,2,,,0,64,0,,
85776,note_off,,,,,16,0,2,,,0,,,30,64
85788,set_tempo,,,,,174,1,0,1200000,,,,,,
85800,note_on,,,,,0,0,2,,,0,,,42,31
85800,control_change,,,,,24,0,2,,,0,64,127,,
85860,note_off,,,,,0,0,1,,,0,,,69,64
85860,note_off,,,,,180,0,1,,,0,,,66,64
85860,note_off,,,,,0,0,1,,,0,,,75,64
85860,note_on,,,,,0,0,1,,,0,,,73,30
85910,control_change,,,,,110,0,2,,,0,64,0,,
85920,note_on,,,,,0,0,2,,,0,,,54,33
85920,control_change,,,,,0,0,2,,,0,64,127,,
85920,note_on,,,,,0,0,1,,,0,,,73,25
85920,note_off,,,,,60,0,1,,,0,,,73,64
85920,note_on,,,,,0,0,1,,,0,,,69,25
85920,note_off,,,,,10,0,2,,,0,,,42,64
85920,note_on,,,,,0,0,1,,,0,,,66,25
86000,control_change,,,,,80,0,2,,,0,64,0,,
86016,note_off,,,,,16,0,2,,,0,,,54,64
86040,control_change,,,,,0,0,2,,,0,64,127,,
86040,note_on,,,,,24,0,2,,,0,,,81,26
86120,control_change,,,,,80,0,2,,,0,64,0,,
86160,note_off,,,,,40,0,2,,,0,,,81,64
86220,note_on,,,,,60,0,2,,,0,,,30,32
86220,note_off,,,,,0,0,1,,,0,,,69,64
86220,note_off,,,,,300,0,1,,,0,,,66,64
86220,note_off,,,,,0,0,1,,,0,,,73,64
86266,note_off,,,,,46,0,2,,,0,,,30,64
86280,note_on,,,,,60,0,1,,,0,,,73,30
86280,note_on,,,,,14,0,2,,,0,,,29,37
86280,note_on,,,,,0,0,1,,,0,,,69,30
86280,note_on,,,,,0,0,1,,,0,,,63,30
86326,note_off,,,,,46,0,2,,,0,,,29,64
86340,note_on,,,,,14,0,2,,,0,,,30,43
86348,set_tempo,,,,,560,1,0,1363636,,,,,,
86386,note_off,,,,,46,0,2,,,0,,,30,64
86400,control_change,,,,,14,0,2,,,0,64,127,,
86400,note_on,,,,,0,0,2,,,0,,,32,38
86400,note_on,,,,,0,0,1,,,0,,,64,39
86400,note_off,,,,,120,0,1,,,0,,,63,64
86400,note_off,,,,,0,0,1,,,0,,,73,64
86400,note_on,,,,,0,0,1,,,0,,,73,39
86400,note_on,,,,,0,0,1,,,0,,,68,39
86400,note_off,,,,,0,0,1,,,0,,,69,64
86474,set_tempo,,,,,126,1,0,1200000,,,,,,
86480,control_change,,,,,80,0,2,,,0,64,0,,
86496,note_off,,,,,16,0,2,,,0,,,32,64
86520,note_on,,,,,0,0,2,,,0,,,44,34
86520,control_change,,,,,24,0,2,,,0,64,127,,
86630,control_change,,,,,110,0,2,,,0,64,0,,
86640,note_on,,,,,0,0,2,,,0,,,56,37
86640,note_off,,,,,240,0,1,,,0,,,73,64
86640,note_on,,,,,0,0,1,,,0,,,71,36
86640,note_off,,,,,10,0,2,,,0,,,44,64
86640,control_change,,,,,0,0,2,,,0,64,127,,
86720,control_change,,,,,80,0,2,,,0,64,0,,
86736,note_off,,,,,16,0,2,,,0,,,56,64
86760,control_change,,,,,24,0,2,,,0,64,127,,
86760,note_on,,,,,0,0,2,,,0,,,80,26
86840,control_change,,,,,80,0,2,,,0,64,0,,
86880,note_off,,,,,40,0,2,,,0,,,80,64
86880,note_on,,,,,0,0,1,,,0,,,60,37
86880,note_off,,,,,240,0,1,,,0,,,64,64
86940,note_on,,,,,60,0,2,,,0,,,32,26
86986,note_off,,,,,46,0,2,,,0,,,32,64
87000,note_off,,,,,120,0,1,,,0,,,71,64
87000,note_on,,,,,0,0,1,,,0,,,66,32
87000,note_off,,,,,0,0,1,,,0,,,68,64
87000,note_on,,,,,14,0,2,,,0,,,31,30
87000,note_on,,,,,0,0,1,,,0,,,69,32
87046,note_off,,,,,46,0,2,,,0,,,31,64
87060,note_on,,,,,14,0,2,,,0,,,32,32
87088,set_tempo,,,,,614,1,0,1333333,,,,,,
87106,note_off,,,,,46,0,2,,,0,,,32,64
87120,note_off,,,,,120,0,1,,,0,,,66,64
87120,note_off,,,,,0,0,1,,,0,,,69,64
87120,note_off,,,,,0,0,1,,,0,,,60,64
87120,note_on,,,,,0,0,1,,,0,,,68,35
87120,note_on,,,,,0,0,1,,,0,,,61,35
87120,note_on,,,,,14,0,2,,,0,,,37,31
87120,control_change,,,,,0,0,2,,,0,64,127,,
87120,note_on,,,,,0,0,1,,,0,,,64,35
87200,control_change,,,,,80,0,2,,,0,64,0,,
87216,note_off,,,,,16,0,2,,,0,,,37,64
87234,set_tempo,,,,,146,1,0,1200000,,,,,,
87240,note_on,,,,,0,0,2,,,0,,,44,23
87240,control_change,,,,,24,0,2,,,0,64,127,,
87350,control_change,,,,,110,0,2,,,0,64,0,,
87360,note_off,,,,,0,0,1,,,0,,,64,64
87360,note_off,,,,,0,0,1,,,0,,,68,64
87360,note_on,,,,,0,0,1,,,0,,,64,20
87360,note_on,,,,,0,0,1,,,0,,,61,20
87360,control_change,,,,,0,0,2,,,0,64,127,,
87360,note_on,,,,,0,0,2,,,0,,,49,25
87360,note_off,,,,,10,0,2,,,0,,,44,64
87360,note_off,,,,,240,0,1,,,0,,,61,64
87360,note_on,,,,,0,0,1,,,0,,,56,20
87440,control_change,,,,,80,0,2,,,0,64,0,,
87456,note_off,,,,,16,0,2,,,0,,,49,64
87460,set_tempo,,,,,226,1,0,1224490,,,,,,
87480,control_change,,,,,24,0,2,,,0,64,127,,
87480,note_on,,,,,0,0,2,,,0,,,73,20
87492,set_tempo,,,,,32,1,0,1250000,,,,,,
87512,set_tempo,,,,,20,1,0,1276596,,,,,,
87552,set_tempo,,,,,40,1,0,1304348,,,,,,
87560,control_change,,,,,80,0,2,,,0,64,0,,
87586,set_tempo,,,,,34,1,0,1333333,,,,,,
87600,note_off,,,,,40,0,2,,,0,,,73,64
87600,set_tempo,,,,,14,1,0,1363636,,,,,,
87626,set_tempo,,,,,26,1,0,1395349,,,,,,
87640,set_tempo,,,,,14,1,0,1428571,,,,,,
87660,note_on,,,,,60,0,2,,,0,,,37,23
87680,set_tempo,,,,,40,1,0,1463415,,,,,,
87692,set_tempo,,,,,12,1,0,1500000,,,,,,
87706,note_off,,,,,46,0,2,,,0,,,37,64
87712,set_tempo,,,,,20,1,0,1578947,,,,,,
87720,note_on,,,,,14,0,2,,,0,,,37,28
87720,note_off,,,,,0,0,1,,,0,,,64,64
87720,note_off,,,,,0,0,1,,,0,,,61,64
87720,note_off,,,,,360,0,1,,,0,,,56,64
87740,set_tempo,,,,,28,1,0,1666667,,,,,,
87746,set_tempo,,,,,6,1,0,1714286,,,,,,
87752,set_tempo,,,,,6,1,0,1875000,,,,,,
87766,note_off,,,,,46,0,2,,,0,,,37,64
87772,set_tempo,,,,,20,1,0,2000000,,,,,,
87780,note_on,,,,,14,0,2,,,0,,,36,31
87780,set_tempo,,,,,8,1,0,2068966,,,,,,
87786,set_tempo,,,,,6,1,0,2727273,,,,,,
87826,note_off,,,,,46,0,2,,,0,,,36,64
87840,note_on,,,,,120,0,1,,,0,,,68,30
87840,note_on,,,,,0,0,1,,,0,,,65,30
87840,note_on,,,,,0,0,1,,,0,,,61,30
87840,note_on,,,,,14,0,2,,,0,,,37,33
87840,control_change,,,,,0,0,2,,,0,64,127,,
87840,marker,,,,,54,1,0,,,,,,,
87860,set_tempo,,,,,20,1,0,1463415,,,,,,
87866,set_tempo,,,,,6,1,0,1428571,,,,,,
87880,set_tempo,,,,,14,1,0,1363636,,,,,,
87900,note_off,,,,,60,0,2,,,0,,,37,64
87906,set_tempo,,,,,26,1,0,1304348,,,,,,
87920,control_change,,,,,20,0,2,,,0,64,0,,
87940,set_tempo,,,,,34,1,0,1276596,,,,,,
87960,note_on,,,,,0,0,2,,,0,,,49,28
87960,control_change,,,,,40,0,2,,,0,64,127,,
87980,set_tempo,,,,,40,1,0,1250000,,,,,,
87992,set_tempo,,,,,12,1,0,1224490,,,,,,
88052,set_tempo,,,,,60,1,0,1200000,,,,,,
88070,control_change,,,,,110,0,2,,,0,64,0,,
88080,note_on,,,,,0,0,2,,,0,,,61,23
88080,control_change,,,,,0,0,2,,,0,64,127,,
88080,note_off,,,,,10,0,2,,,0,,,49,64
88140,note_off,,,,,60,0,2,,,0,,,61,64
88160,control_change,,,,,20,0,2,,,0,64,0,,
88200,control_change,,,,,0,0,2,,,0,64,127,,
88200,note_on,,,,,40,0,2,,,0,,,73,18
88280,control_change,,,,,80,0,2,,,0,64,0,,
88290,note_off,,,,,10,0,2,,,0,,,73,64
88380,note_on,,,,,90,0,2,,,0,,,37,21
88386,set_tempo,,,,,334,1,0,1224490,,,,,,
88426,note_off,,,,,46,0,2,,,0,,,37,64
88432,set_tempo,,,,,46,1,0,1250000,,,,,,
88438,note_off,,,,,0,0,1,,,0,,,68,64
88438,note_off,,,,,0,0,1,,,0,,,65,64
88438,note_off,,,,,598,0,1,,,0,,,61,64
88440,note_on,,,,,0,0,1,,,0,,,68,23
88440,note_on,,,,,2,0,1,,,0,,,73,23
88440,note_on,,,,,14,0,2,,,0,,,39,24
88440,note_on,,,,,0,0,1,,,0,,,61,23
88452,set_tempo,,,,,20,1,0,1276596,,,,,,
88486,set_tempo,,,,,34,1,0,1304348,,,,,,
88486,note_off,,,,,46,0,2,,,0,,,39,64
88500,note_on,,,,,14,0,2,,,0,,,41,27
88546,note_off,,,,,46,0,2,,,0,,,41,64
88558,note_off,,,,,118,0,1,,,0,,,61,64
88558,note_off,,,,,0,0,1,,,0,,,73,64
88558,note_off,,,,,0,0,1,,,0,,,68,64
88560,note_on,,,,,2,0,1,,,0,,,72,30
88560,note_on,,,,,0,0,1,,,0,,,66,30
88560,note_on,,,,,14,0,2,,,0,,,30,30
88560,control_change,,,,,0,0,2,,,0,64,127,,
88560,note_on,,,,,0,0,1,,,0,,,61,30
88620,set_tempo,,,,,134,1,0,1276596,,,,,,
88620,note_off,,,,,60,0,2,,,0,,,30,64
88640,control_change,,,,,20,0,2,,,0,64,0,,
88646,set_tempo,,,,,26,1,0,1250000,,,,,,
88652,set_tempo,,,,,6,1,0,1224490,,,,,,
88672,set_tempo,,,,,20,1,0,1200000,,,,,,
88680,note_on,,,,,0,0,2,,,0,,,42,28
88680,control_change,,,,,40,0,2,,,0,64,127,,
88720,set_tempo,,,,,48,1,0,1176471,,,,,,
88752,set_tempo,,,,,32,1,0,1153846,,,,,,
88772,set_tempo,,,,,20,1,0,1132075,,,,,,
88790,control_change,,,,,110,0,2,,,0,64,0,,
88798,note_off,,,,,0,0,1,,,0,,,72,64
88798,note_off,,,,,0,0,1,,,0,,,66,64
88798,note_off,,,,,238,0,1,,,0,,,61,64
88800,note_on,,,,,2,0,1,,,0,,,70,25
88800,note_off,,,,,10,0,2,,,0,,,42,64
88800,control_change,,,,,0,0,2,,,0,64,127,,
88800,note_on,,,,,0,0,2,,,0,,,54,21
88860,note_off,,,,,60,0,2,,,0,,,54,64
88880,control_change,,,,,20,0,2,,,0,64,0,,
88920,note_on,,,,,40,0,2,,,0,,,82,18
88920,control_change,,,,,0,0,2,,,0,64,127,,
88940,set_tempo,,,,,168,1,0,1153846,,,,,,
88946,set_tempo,,,,,6,1,0,1176471,,,,,,
89000,control_change,,,,,80,0,2,,,0,64,0,,
89006,set_tempo,,,,,60,1,0,1200000,,,,,,
89010,note_off,,,,,10,0,2,,,0,,,82,64
89032,set_tempo,,,,,26,1,0,1224490,,,,,,
89052,set_tempo,,,,,20,1,0,1250000,,,,,,
89066,set_tempo,,,,,14,1,0,1276596,,,,,,
89086,set_tempo,,,,,20,1,0,1304348,,,,,,
89100,note_on,,,,,90,0,2,,,0,,,30,19
89146,note_off,,,,,46,0,2,,,0,,,30,64
89158,note_off,,,,,358,0,1,,,0,,,70,64
89160,note_on,,,,,14,0,2,,,0,,,32,24
89160,note_on,,,,,0,0,1,,,0,,,61,24
89160,note_on,,,,,2,0,1,,,0,,,70,24
89160,note_on,,,,,0,0,1,,,0,,,65,24
89206,note_off,,,,,46,0,2,,,0,,,32,64
89220,note_on,,,,,14,0,2,,,0,,,34,29
89266,note_off,,,,,46,0,2,,,0,,,34,64
89278,note_off,,,,,0,0,1,,,0,,,70,64
89278,note_off,,,,,0,0,1,,,0,,,65,64
89278,note_off,,,,,118,0,1,,,0,,,61,64
89280,note_on,,,,,0,0,2,,,0,,,32,34
89280,control_change,,,,,14,0,2,,,0,64,127,,
89280,note_on,,,,,2,0,1,,,0,,,70,31
89280,note_on,,,,,0,0,1,,,0,,,63,31
89280,note_on,,,,,0,0,1,,,0,,,61,31
89340,note_off,,,,,60,0,2,,,0,,,32,64
89360,control_change,,,,,20,0,2,,,0,64,0,,
89386,set_tempo,,,,,300,1,0,1276596,,,,,,
89400,control_change,,,,,40,0,2,,,0,64,127,,
89400,note_on,,,,,0,0,2,,,0,,,44,33
89412,set_tempo,,,,,26,1,0,1250000,,,,,,
89426,set_tempo,,,,,14,1,0,1224490,,,,,,
89446,set_tempo,,,,,20,1,0,1200000,,,,,,
89500,set_tempo,,,,,54,1,0,1176471,,,,,,
89510,control_change,,,,,110,0,2,,,0,64,0,,
89518,note_off,,,,,238,0,1,,,0,,,61,64
89518,note_off,,,,,0,0,1,,,0,,,63,64
89518,note_off,,,,,0,0,1,,,0,,,70,64
89520,note_on,,,,,0,0,1,,,0,,,60,25
89520,note_off,,,,,10,0,2,,,0,,,44,64
89520,note_on,,,,,0,0,2,,,0,,,56,27
89520,control_change,,,,,0,0,2,,,0,64,127,,
89520,note_on,,,,,2,0,1,,,0,,,68,25
89540,set_tempo,,,,,40,1,0,1200000,,,,,,
89580,note_off,,,,,60,0,2,,,0,,,56,64
89600,control_change,,,,,20,0,2,,,0,64,0,,
89640,control_change,,,,,40,0,2,,,0,64,127,,
89640,note_on,,,,,0,0,2,,,0,,,80,18
89720,control_change,,,,,80,0,2,,,0,64,0,,
89726,set_tempo,,,,,186,1,0,1224490,,,,,,
89730,note_off,,,,,10,0,2,,,0,,,80,64
89752,set_tempo,,,,,26,1,0,1250000,,,,,,
89812,set_tempo,,,,,60,1,0,1276596,,,,,,
89820,note_on,,,,,90,0,2,,,0,,,32,22
89860,set_tempo,,,,,48,1,0,1304348,,,,,,
89866,note_off,,,,,46,0,2,,,0,,,32,64
89878,note_off,,,,,0,0,1,,,0,,,68,64
89878,note_off,,,,,358,0,1,,,0,,,60,64
89880,note_on,,,,,0,0,1,,,0,,,61,25
89880,note_on,,,,,2,0,1,,,0,,,66,25
89880,note_on,,,,,0,0,1,,,0,,,58,25
89880,note_on,,,,,14,0,2,,,0,,,34,28
89926,note_off,,,,,46,0,2,,,0,,,34,64
89940,note_on,,,,,14,0,2,,,0,,,36,30
89986,note_off,,,,,46,0,2,,,0,,,36,64
89998,note_off,,,,,0,0,1,,,0,,,61,64
89998,note_off,,,,,0,0,1,,,0,,,66,64
89998,note_off,,,,,118,0,1,,,0,,,58,64
90000,control_change,,,,,14,0,2,,,0,64,127,,
90000,note_on,,,,,0,0,1,,,0,,,56,28
90000,note_on,,,,,0,0,1,,,0,,,61,28
90000,note_on,,,,,2,0,1,,,0,,,65,28
90000,note_on,,,,,0,0,2,,,0,,,37,31
90060,note_off,,,,,60,0,2,,,0,,,37,64
90060,set_tempo,,,,,200,1,0,1276596,,,,,,
90080,control_change,,,,,20,0,2,,,0,64,0,,
90112,set_tempo,,,,,52,1,0,1250000,,,,,,
90120,note_on,,,,,40,0,2,,,0,,,44,26
90120,control_change,,,,,0,0,2,,,0,64,127,,
90140,set_tempo,,,,,28,1,0,1224490,,,,,,
90186,set_tempo,,,,,46,1,0,1200000,,,,,,
90230,control_change,,,,,110,0,2,,,0,64,0,,
90238,note_off,,,,,0,0,1,,,0,,,65,64
90238,note_off,,,,,238,0,1,,,0,,,56,64
90238,note_off,,,,,0,0,1,,,0,,,61,64
90240,note_off,,,,,10,0,2,,,0,,,44,64
90240,note_on,,,,,0,0,2,,,0,,,49,22
90240,control_change,,,,,0,0,2,,,0,64,127,,
90240,note_on,,,,,0,0,1,,,0,,,53,22
90240,note_on,,,,,0,0,1,,,0,,,56,22
90240,note_on,,,,,2,0,1,,,0,,,61,22
90246,set_tempo,,,,,60,1,0,1176471,,,,,,
90300,note_off,,,,,60,0,2,,,0,,,49,64
90320,control_change,,,,,20,0,2,,,0,64,0,,
90360,control_change,,,,,0,0,2,,,0,64,127,,
90360,note_on,,,,,40,0,2,,,0,,,73,21
90440,control_change,,,,,80,0,2,,,0,64,0,,
90450,note_off,,,,,10,0,2,,,0,,,73,64
90512,set_tempo,,,,,266,1,0,1200000,,,,,,
90540,note_on,,,,,90,0,2,,,0,,,49,26
90560,set_tempo,,,,,48,1,0,1224490,,,,,,
90586,set_tempo,,,,,26,1,0,1250000,,,,,,
90586,note_off,,,,,46,0,2,,,0,,,49,64
90598,note_off,,,,,0,0,1,,,0,,,56,64
90598,note_off,,,,,0,0,1,,,0,,,61,64
90598,note_off,,,,,358,0,1,,,0,,,53,64
90600,note_on,,,,,14,0,2,,,0,,,48,28
90600,note_on,,,,,2,0,1,,,0,,,65,25
90600,note_on,,,,,0,0,1,,,0,,,61,25
90600,note_on,,,,,0,0,1,,,0,,,56,25
90612,set_tempo,,,,,26,1,0,1276596,,,,,,
90632,set_tempo,,,,,20,1,0,1304348,,,,,,
90646,note_off,,,,,46,0,2,,,0,,,48,64
90660,note_on,,,,,14,0,2,,,0,,,49,32
90706,note_off,,,,,46,0,2,,,0,,,49,64
90706,set_tempo,,,,,74,1,0,1333333,,,,,,
90718,note_off,,,,,0,0,1,,,0,,,61,64
90718,note_off,,,,,0,0,1,,,0,,,65,64
90718,note_off,,,,,118,0,1,,,0,,,56,64
90720,note_on,,,,,0,0,1,,,0,,,61,31
90720,note_on,,,,,0,0,1,,,0,,,55,31
90720,note_on,,,,,0,0,2,,,0,,,46,36
90720,control_change,,,,,14,0,2,,,0,64,127,,
90720,note_on,,,,,2,0,1,,,0,,,65,31
90746,set_tempo,,,,,40,1,0,1304348,,,,,,
90772,set_tempo,,,,,26,1,0,1276596,,,,,,
90780,note_off,,,,,60,0,2,,,0,,,46,64
90792,set_tempo,,,,,20,1,0,1224490,,,,,,
90800,control_change,,,,,20,0,2,,,0,64,0,,
90806,set_tempo,,,,,14,1,0,1200000,,,,,,
90840,control_change,,,,,0,0,2,,,0,64,127,,
90840,note_on,,,,,40,0,2,,,0,,,70,32
90846,set_tempo,,,,,40,1,0,1176471,,,,,,
90898,note_off,,,,,0,0,1,,,0,,,65,64
90898,note_off,,,,,0,0,1,,,0,,,61,64
90898,note_off,,,,,178,0,1,,,0,,,55,64
90900,note_on,,,,,2,0,1,,,0,,,63,27
90950,control_change,,,,,110,0,2,,,0,64,0,,
90958,note_off,,,,,58,0,1,,,0,,,63,64
90960,note_on,,,,,0,0,1,,,0,,,61,25
90960,note_on,,,,,2,0,1,,,0,,,63,25
90960,note_off,,,,,10,0,2,,,0,,,70,64
90960,note_on,,,,,0,0,2,,,0,,,82,32
90960,control_change,,,,,0,0,2,,,0,64,127,,
90960,note_on,,,,,0,0,1,,,0,,,55,25
90966,set_tempo,,,,,120,1,0,1153846,,,,,,
91040,control_change,,,,,80,0,2,,,0,64,0,,
91080,control_change,,,,,40,0,2,,,0,64,127,,
91160,control_change,,,,,80,0,2,,,0,64,0,,
91200,note_off,,,,,40,0,2,,,0,,,82,64
91240,set_tempo,,,,,274,1,0,1132075,,,,,,
91246,set_tempo,,,,,6,1,0,1153846,,,,,,
91258,note_off,,,,,0,0,1,,,0,,,61,64
91258,note_off,,,,,298,0,1,,,0,,,55,64
91258,note_off,,,,,0,0,1,,,0,,,63,64
91260,note_on,,,,,60,0,2,,,0,,,46,35
91272,set_tempo,,,,,26,1,0,1176471,,,,,,
91286,set_tempo,,,,,14,1,0,1200000,,,,,,
91306,note_off,,,,,46,0,2,,,0,,,46,64
91320,set_tempo,,,,,34,1,0,1250000,,,,,,
91320,note_on,,,,,0,0,1,,,0,,,55,32
91320,note_on,,,,,0,0,1,,,0,,,61,32
91320,note_on,,,,,62,0,1,,,0,,,63,32
91320,note_on,,,,,14,0,2,,,0,,,46,44
91326,set_tempo,,,,,6,1,0,1276596,,,,,,
91332,set_tempo,,,,,6,1,0,1304348,,,,,,
91360,set_tempo,,,,,28,1,0,1363636,,,,,,
91366,note_off,,,,,46,0,2,,,0,,,46,64
91372,set_tempo,,,,,12,1,0,1428571,,,,,,
91380,set_tempo,,,,,8,1,0,1463415,,,,,,
91380,note_on,,,,,14,0,2,,,0,,,49,46
91400,set_tempo,,,,,20,1,0,1578947,,,,,,
91412,set_tempo,,,,,12,1,0,1621622,,,,,,
91426,set_tempo,,,,,14,1,0,1666667,,,,,,
91426,note_off,,,,,46,0,2,,,0,,,49,64
91432,set_tempo,,,,,6,1,0,1714286,,,,,,
91438,note_off,,,,,0,0,1,,,0,,,63,64
91438,note_off,,,,,118,0,1,,,0,,,55,64
91438,note_off,,,,,0,0,1,,,0,,,61,64
91440,note_on,,,,,0,0,2,,,0,,,45,46
91440,control_change,,,,,14,0,2,,,0,64,127,,
91440,note_on,,,,,0,0,1,,,0,,,54,40
91440,note_on,,,,,0,0,1,,,0,,,61,40
91440,note_on,,,,,2,0,1,,,0,,,64,40
91452,set_tempo,,,,,20,1,0,1875000,,,,,,
91486,set_tempo,,,,,34,1,0,1363636,,,,,,
91492,set_tempo,,,,,6,1,0,1304348,,,,,,
91500,note_off,,,,,60,0,2,,,0,,,45,64
91506,set_tempo,,,,,14,1,0,1250000,,,,,,
91512,set_tempo,,,,,6,1,0,1200000,,,,,,
91520,control_change,,,,,20,0,2,,,0,64,0,,
91560,note_on,,,,,40,0,2,,,0,,,69,38
91560,control_change,,,,,0,0,2,,,0,64,127,,
91618,note_off,,,,,0,0,1,,,0,,,64,64
91618,note_off,,,,,0,0,1,,,0,,,61,64
91618,note_off,,,,,178,0,1,,,0,,,54,64
91620,note_on,,,,,2,0,1,,,0,,,63,29
91670,control_change,,,,,110,0,2,,,0,64,0,,
91678,note_off,,,,,58,0,1,,,0,,,63,64
91680,note_on,,,,,2,0,1,,,0,,,63,26
91680,note_off,,,,,10,0,2,,,0,,,69,64
91680,control_change,,,,,0,0,2,,,0,64,127,,
91680,note_on,,,,,0,0,2,,,0,,,81,27
91680,note_on,,,,,0,0,1,,,0,,,61,26
91680,note_on,,,,,0,0,1,,,0,,,54,26
91760,control_change,,,,,80,0,2,,,0,64,0,,
91800,control_change,,,,,40,0,2,,,0,64,127,,
91880,control_change,,,,,80,0,2,,,0,64,0,,
91920,note_off,,,,,40,0,2,,,0,,,81,64
91980,note_on,,,,,60,0,2,,,0,,,45,22
91992,set_tempo,,,,,480,1,0,1224490,,,,,,
92012,set_tempo,,,,,20,1,0,1250000,,,,,,
92026,note_off,,,,,46,0,2,,,0,,,45,64
92032,set_tempo,,,,,20,1,0,1276596,,,,,,
92038,note_off,,,,,358,0,1,,,0,,,54,64
92038,note_off,,,,,0,0,1,,,0,,,61,64
92038,note_off,,,,,0,0,1,,,0,,,63,64
92040,note_on,,,,,0,0,1,,,0,,,54,23
92040,note_on,,,,,14,0,2,,,0,,,45,25
92040,note_on,,,,,0,0,1,,,0,,,61,23
92040,note_on,,,,,2,0,1,,,0,,,63,23
92066,set_tempo,,,,,34,1,0,1304348,,,,,,
92086,note_off,,,,,46,0,2,,,0,,,45,64
92100,set_tempo,,,,,34,1,0,1333333,,,,,,
92100,note_on,,,,,14,0,2,,,0,,,49,29
92120,set_tempo,,,,,20,1,0,1363636,,,,,,
92146,note_off,,,,,46,0,2,,,0,,,49,64
92158,note_off,,,,,0,0,1,,,0,,,63,64
92158,note_off,,,,,0,0,1,,,0,,,61,64
92158,note_off,,,,,118,0,1,,,0,,,54,64
92160,note_on,,,,,2,0,1,,,0,,,63,26
92160,note_on,,,,,0,0,2,,,0,,,44,32
92160,control_change,,,,,14,0,2,,,0,64,127,,
92160,note_on,,,,,0,0,1,,,0,,,60,26
92160,note_on,,,,,0,0,1,,,0,,,54,26
92220,note_off,,,,,60,0,2,,,0,,,44,64
92232,set_tempo,,,,,112,1,0,1333333,,,,,,
92240,set_tempo,,,,,8,1,0,1304348,,,,,,
92240,control_change,,,,,20,0,2,,,0,64,0,,
92280,control_change,,,,,40,0,2,,,0,64,127,,
92280,note_on,,,,,0,0,2,,,0,,,68,26
92300,set_tempo,,,,,60,1,0,1276596,,,,,,
92326,set_tempo,,,,,26,1,0,1224490,,,,,,
92360,set_tempo,,,,,34,1,0,1200000,,,,,,
92390,control_change,,,,,110,0,2,,,0,64,0,,
92400,note_off,,,,,10,0,2,,,0,,,68,64
92400,control_change,,,,,0,0,2,,,0,64,127,,
92400,note_on,,,,,0,0,2,,,0,,,80,20
92412,set_tempo,,,,,52,1,0,1176471,,,,,,
92480,control_change,,,,,80,0,2,,,0,64,0,,
92480,set_tempo,,,,,68,1,0,1200000,,,,,,
92518,note_off,,,,,0,0,1,,,0,,,60,64
92518,note_off,,,,,0,0,1,,,0,,,63,64
92518,note_off,,,,,358,0,1,,,0,,,54,64
92520,control_change,,,,,40,0,2,,,0,64,127,,
92520,note_on,,,,,2,0,1,,,0,,,65,25
92526,set_tempo,,,,,46,1,0,1224490,,,,,,
92552,set_tempo,,,,,26,1,0,1250000,,,,,,
92566,set_tempo,,,,,14,1,0,1276596,,,,,,
92578,note_off,,,,,58,0,1,,,0,,,65,64
92580,note_on,,,,,2,0,1,,,0,,,66,28
92592,set_tempo,,,,,26,1,0,1304348,,,,,,
92600,control_change,,,,,80,0,2,,,0,64,0,,
92626,set_tempo,,,,,34,1,0,1333333,,,,,,
92638,note_off,,,,,58,0,1,,,0,,,66,64
92640,note_on,,,,,2,0,1,,,0,,,68,31
92640,note_off,,,,,40,0,2,,,0,,,80,64
92646,set_tempo,,,,,20,1,0,1363636,,,,,,
92680,set_tempo,,,,,34,1,0,1395349,,,,,,
92706,set_tempo,,,,,26,1,0,1428571,,,,,,
92746,set_tempo,,,,,40,1,0,1463415,,,,,,
92758,note_off,,,,,118,0,1,,,0,,,68,64
92760,note_on,,,,,2,0,1,,,0,,,64,25
92760,note_on,,,,,0,0,1,,,0,,,60,25
92760,note_on,,,,,0,0,1,,,0,,,56,25
92852,set_tempo,,,,,106,1,0,1428571,,,,,,
92880,note_off,,,,,120,0,1,,,0,,,56,64
92880,note_off,,,,,0,0,1,,,0,,,60,64
92880,note_off,,,,,0,0,1,,,0,,,64,64
92880,note_on,,,,,0,0,1,,,0,,,65,28
92880,note_on,,,,,0,0,1,,,0,,,56,28
92880,note_on,,,,,0,0,2,,,0,,,37,31
92880,control_change,,,,,240,0,2,,,0,64,127,,
92880,note_on,,,,,0,0,1,,,0,,,61,28
92892,set_tempo,,,,,40,1,0,1395349,,,,,,
92906,set_tempo,,,,,14,1,0,1363636,,,,,,
92940,note_off,,,,,60,0,2,,,0,,,37,64
92952,set_tempo,,,,,46,1,0,1333333,,,,,,
92960,set_tempo,,,,,8,1,0,1304348,,,,,,
92960,control_change,,,,,20,0,2,,,0,64,0,,
93000,control_change,,,,,0,0,2,,,0,64,127,,
93000,note_on,,,,,40,0,2,,,0,,,49,26
93006,set_tempo,,,,,46,1,0,1276596,,,,,,
93032,set_tempo,,,,,26,1,0,1250000,,,,,,
93046,set_tempo,,,,,14,1,0,1224490,,,,,,
93072,set_tempo,,,,,26,1,0,1200000,,,,,,
93110,control_change,,,,,110,0,2,,,0,64,0,,
93120,note_on,,,,,0,0,2,,,0,,,73,21
93120,control_change,,,,,0,0,2,,,0,64,127,,
93120,note_off,,,,,10,0,2,,,0,,,49,64
93126,set_tempo,,,,,54,1,0,1176471,,,,,,
93200,control_change,,,,,80,0,2,,,0,64,0,,
93240,control_change,,,,,40,0,2,,,0,64,127,,
93320,control_change,,,,,80,0,2,,,0,64,0,,
93360,note_off,,,,,40,0,2,,,0,,,73,64
93392,set_tempo,,,,,266,1,0,1200000,,,,,,
93418,note_off,,,,,0,0,1,,,0,,,61,64
93418,note_off,,,,,0,0,1,,,0,,,65,64
93418,note_off,,,,,538,0,1,,,0,,,56,64
93420,note_on,,,,,60,0,2,,,0,,,37,26
93440,set_tempo,,,,,48,1,0,1224490,,,,,,
93466,set_tempo,,,,,26,1,0,1250000,,,,,,
93466,note_off,,,,,46,0,2,,,0,,,37,64
93480,note_on,,,,,62,0,1,,,0,,,65,25
93480,note_on,,,,,0,0,1,,,0,,,56,25
93480,note_on,,,,,0,0,1,,,0,,,61,25
93480,note_on,,,,,14,0,2,,,0,,,36,28
93492,set_tempo,,,,,26,1,0,1276596,,,,,,
93512,set_tempo,,,,,20,1,0,1304348,,,,,,
93526,note_off,,,,,46,0,2,,,0,,,36,64
93540,note_on,,,,,14,0,2,,,0,,,37,32
93586,set_tempo,,,,,74,1,0,1333333,,,,,,
93586,note_off,,,,,46,0,2,,,0,,,37,64
93598,note_off,,,,,0,0,1,,,0,,,61,64
93598,note_off,,,,,0,0,1,,,0,,,65,64
93598,note_off,,,,,118,0,1,,,0,,,56,64
93600,note_on,,,,,14,0,2,,,0,,,34,36
93600,control_change,,,,,0,0,2,,,0,64,127,,
93600,note_on,,,,,2,0,1,,,0,,,65,31
93600,note_on,,,,,0,0,1,,,0,,,61,31
93600,note_on,,,,,0,0,1,,,0,,,55,31
93626,set_tempo,,,,,40,1,0,1304348,,,,,,
93652,set_tempo,,,,,26,1,0,1276596,,,,,,
93660,note_off,,,,,60,0,2,,,0,,,34,64
93672,set_tempo,,,,,20,1,0,1224490,,,,,,
93680,control_change,,,,,20,0,2,,,0,64,0,,
93686,set_tempo,,,,,14,1,0,1200000,,,,,,
93720,note_on,,,,,0,0,2,,,0,,,46,32
93720,control_change,,,,,40,0,2,,,0,64,127,,
93726,set_tempo,,,,,40,1,0,1176471,,,,,,
93778,note_off,,,,,178,0,1,,,0,,,55,64
93778,note_off,,,,,0,0,1,,,0,,,61,64
93778,note_off,,,,,0,0,1,,,0,,,65,64
93780,note_on,,,,,2,0,1,,,0,,,63,27
93830,control_change,,,,,110,0,2,,,0,64,0,,
93838,note_off,,,,,58,0,1,,,0,,,63,64
93840,note_off,,,,,10,0,2,,,0,,,46,64
93840,control_change,,,,,0,0,2,,,0,64,127,,
93840,note_on,,,,,0,0,2,,,0,,,70,25
93840,note_on,,,,,0,0,1,,,0,,,55,25
93840,note_on,,,,,0,0,1,,,0,,,61,25
93840,note_on,,,,,2,0,1,,,0,,,63,25
93846,set_tempo,,,,,120,1,0,1153846,,,,,,
93920,control_change,,,,,80,0,2,,,0,64,0,,
93960,control_change,,,,,40,0,2,,,0,64,127,,
94040,control_change,,,,,80,0,2,,,0,64,0,,
94080,note_off,,,,,40,0,2,,,0,,,70,64
94120,set_tempo,,,,,274,1,0,1132075,,,,,,
94126,set_tempo,,,,,6,1,0,1153846,,,,,,
94138,note_off,,,,,0,0,1,,,0,,,63,64
94138,note_off,,,,,0,0,1,,,0,,,61,64
94138,note_off,,,,,298,0,1,,,0,,,55,64
94140,note_on,,,,,60,0,2,,,0,,,34,26
94152,set_tempo,,,,,26,1,0,1176471,,,,,,
94166,set_tempo,,,,,14,1,0,1200000,,,,,,
94186,note_off,,,,,46,0,2,,,0,,,34,64
94200,note_on,,,,,14,0,2,,,0,,,34,27
94200,note_on,,,,,0,0,1,,,0,,,55,25
94200,note_on,,,,,0,0,1,,,0,,,61,25
94200,set_tempo,,,,,34,1,0,1250000,,,,,,
94200,note_on,,,,,62,0,1,,,0,,,63,25
94206,set_tempo,,,,,6,1,0,1276596,,,,,,
94212,set_tempo,,,,,6,1,0,1304348,,,,,,
94240,set_tempo,,,,,28,1,0,1363636,,,,,,
94246,note_off,,,,,46,0,2,,,0,,,34,64
94252,set_tempo,,,,,12,1,0,1428571,,,,,,
94260,note_on,,,,,14,0,2,,,0,,,37,31
94260,set_tempo,,,,,8,1,0,1463415,,,,,,
94280,set_tempo,,,,,20,1,0,1538462,,,,,,
94300,set_tempo,,,,,20,1,0,1463415,,,,,,
94306,note_off,,,,,46,0,2,,,0,,,37,64
94318,note_off,,,,,0,0,1,,,0,,,61,64
94318,note_off,,,,,118,0,1,,,0,,,55,64
94318,note_off,,,,,0,0,1,,,0,,,63,64
94320,note_on,,,,,2,0,1,,,0,,,64,28
94320,note_on,,,,,0,0,1,,,0,,,61,28
94320,note_on,,,,,0,0,1,,,0,,,54,28
94320,note_on,,,,,14,0,2,,,0,,,33,33
94320,control_change,,,,,0,0,2,,,0,64,127,,
94380,set_tempo,,,,,80,1,0,1395349,,,,,,
94380,note_off,,,,,60,0,2,,,0,,,33,64
94400,control_change,,,,,20,0,2,,,0,64,0,,
94400,set_tempo,,,,,20,1,0,1363636,,,,,,
94420,set_tempo,,,,,20,1,0,1333333,,,,,,
94440,set_tempo,,,,,20,1,0,1304348,,,,,,
94440,note_on,,,,,40,0,2,,,0,,,45,26
94440,control_change,,,,,0,0,2,,,0,64,127,,
94460,set_tempo,,,,,20,1,0,1276596,,,,,,
94498,note_off,,,,,178,0,1,,,0,,,54,64
94498,note_off,,,,,0,0,1,,,0,,,61,64
94498,note_off,,,,,0,0,1,,,0,,,64,64
94500,set_tempo,,,,,40,1,0,1250000,,,,,,
94500,note_on,,,,,2,0,1,,,0,,,63,24
94550,control_change,,,,,110,0,2,,,0,64,0,,
94558,note_off,,,,,58,0,1,,,0,,,63,64
94560,note_on,,,,,2,0,1,,,0,,,63,21
94560,note_on,,,,,0,0,1,,,0,,,61,21
94560,note_on,,,,,0,0,1,,,0,,,54,21
94560,note_off,,,,,10,0,2,,,0,,,45,64
94560,note_on,,,,,0,0,2,,,0,,,69,25
94560,control_change,,,,,0,0,2,,,0,64,127,,
94640,control_change,,,,,80,0,2,,,0,64,0,,
94680,control_change,,,,,40,0,2,,,0,64,127,,
94760,control_change,,,,,80,0,2,,,0,64,0,,
94780,set_tempo,,,,,280,1,0,1224490,,,,,,
94800,note_off,,,,,40,0,2,,,0,,,69,64
94846,set_tempo,,,,,66,1,0,1200000,,,,,,
94860,note_on,,,,,60,0,2,,,0,,,33,22
94872,set_tempo,,,,,26,1,0,1224490,,,,,,
94892,set_tempo,,,,,20,1,0,1250000,,,,,,
94906,note_off,,,,,46,0,2,,,0,,,33,64
94912,set_tempo,,,,,20,1,0,1276596,,,,,,
94918,note_off,,,,,0,0,1,,,0,,,63,64
94918,note_off,,,,,0,0,1,,,0,,,61,64
94918,note_off,,,,,358,0,1,,,0,,,54,64
94920,note_on,,,,,14,0,2,,,0,,,33,25
94920,note_on,,,,,2,0,1,,,0,,,63,21
94920,note_on,,,,,0,0,1,,,0,,,54,21
94920,note_on,,,,,0,0,1,,,0,,,61,21
94946,set_tempo,,,,,34,1,0,1304348,,,,,,
94966,note_off,,,,,46,0,2,,,0,,,33,64
94980,set_tempo,,,,,34,1,0,1333333,,,,,,
94980,note_on,,,,,14,0,2,,,0,,,35,29
95000,set_tempo,,,,,20,1,0,1363636,,,,,,
95026,note_off,,,,,46,0,2,,,0,,,35,64
95038,note_off,,,,,118,0,1,,,0,,,54,64
95038,note_off,,,,,0,0,1,,,0,,,61,64
95038,note_off,,,,,0,0,1,,,0,,,63,64
95040,note_on,,,,,0,0,1,,,0,,,54,27
95040,note_on,,,,,14,0,2,,,0,,,32,32
95040,control_change,,,,,0,0,2,,,0,64,127,,
95040,note_on,,,,,0,0,1,,,0,,,60,27
95040,note_on,,,,,2,0,1,,,0,,,63,27
95100,note_off,,,,,60,0,2,,,0,,,32,64
95112,set_tempo,,,,,112,1,0,1333333,,,,,,
95120,control_change,,,,,20,0,2,,,0,64,0,,
95120,set_tempo,,,,,8,1,0,1304348,,,,,,
95160,control_change,,,,,0,0,2,,,0,64,127,,
95160,note_on,,,,,40,0,2,,,0,,,44,26
95180,set_tempo,,,,,60,1,0,1276596,,,,,,
95206,set_tempo,,,,,26,1,0,1224490,,,,,,
95240,set_tempo,,,,,34,1,0,1200000,,,,,,
95270,control_change,,,,,110,0,2,,,0,64,0,,
95280,control_change,,,,,0,0,2,,,0,64,127,,
95280,note_on,,,,,0,0,2,,,0,,,68,20
95280,note_off,,,,,10,0,2,,,0,,,44,64
95292,set_tempo,,,,,52,1,0,1176471,,,,,,
95346,set_tempo,,,,,54,1,0,1200000,,,,,,
95352,set_tempo,,,,,6,1,0,1176471,,,,,,
95380,set_tempo,,,,,28,1,0,1200000,,,,,,
95398,note_off,,,,,0,0,1,,,0,,,60,64
95398,note_off,,,,,358,0,1,,,0,,,54,64
95398,note_off,,,,,0,0,1,,,0,,,63,64
95400,note_on,,,,,2,0,1,,,0,,,65,20
95446,set_tempo,,,,,66,1,0,1224490,,,,,,
95458,note_off,,,,,58,0,1,,,0,,,65,64
95460,note_on,,,,,2,0,1,,,0,,,66,24
95480,control_change,,,,,200,0,2,,,0,64,0,,
95518,note_off,,,,,58,0,1,,,0,,,66,64
95520,note_on,,,,,2,0,1,,,0,,,68,28
95520,note_off,,,,,40,0,2,,,0,,,68,64
95532,set_tempo,,,,,86,1,0,1250000,,,,,,
95540,set_tempo,,,,,8,1,0,1276596,,,,,,
95572,set_tempo,,,,,32,1,0,1304348,,,,,,
95580,note_on,,,,,60,0,2,,,0,,,32,22
95592,set_tempo,,,,,20,1,0,1333333,,,,,,
95612,set_tempo,,,,,20,1,0,1363636,,,,,,
95626,set_tempo,,,,,14,1,0,1395349,,,,,,
95626,note_off,,,,,46,0,2,,,0,,,32,64
95638,note_off,,,,,118,0,1,,,0,,,68,64
95640,note_on,,,,,0,0,1,,,0,,,57,23
95640,note_on,,,,,0,0,1,,,0,,,54,23
95640,note_on,,,,,14,0,2,,,0,,,31,25
95640,note_on,,,,,2,0,1,,,0,,,60,23
95646,set_tempo,,,,,20,1,0,1428571,,,,,,
95666,set_tempo,,,,,20,1,0,1463415,,,,,,
95672,set_tempo,,,,,6,1,0,1500000,,,,,,
95686,note_off,,,,,46,0,2,,,0,,,31,64
95700,set_tempo,,,,,28,1,0,1538462,,,,,,
95700,note_on,,,,,14,0,2,,,0,,,32,29
95712,set_tempo,,,,,12,1,0,1578947,,,,,,
95740,set_tempo,,,,,28,1,0,1621622,,,,,,
95746,note_off,,,,,46,0,2,,,0,,,32,64
95752,set_tempo,,,,,12,1,0,1666667,,,,,,
95760,note_off,,,,,0,0,1,,,0,,,57,64
95760,note_off,,,,,120,0,1,,,0,,,54,64
95760,note_off,,,,,0,0,1,,,0,,,60,64
95760,note_on,,,,,0,0,1,,,0,,,56,21
95760,note_on,,,,,0,0,1,,,0,,,61,21
95760,note_on,,,,,14,0,2,,,0,,,37,32
95760,control_change,,,,,0,0,2,,,0,64,127,,
95760,note_on,,,,,0,0,1,,,0,,,53,21
95800,set_tempo,,,,,48,1,0,1578947,,,,,,
95820,note_off,,,,,60,0,2,,,0,,,37,64
95826,set_tempo,,,,,26,1,0,1538462,,,,,,
95832,set_tempo,,,,,6,1,0,1500000,,,,,,
95840,control_change,,,,,20,0,2,,,0,64,0,,
95846,set_tempo,,,,,14,1,0,1463415,,,,,,
95860,set_tempo,,,,,14,1,0,1428571,,,,,,
95880,note_on,,,,,0,0,2,,,0,,,49,26
95880,control_change,,,,,40,0,2,,,0,64,127,,
95880,set_tempo,,,,,20,1,0,1395349,,,,,,
95892,set_tempo,,,,,12,1,0,1363636,,,,,,
95990,control_change,,,,,110,0,2,,,0,64,0,,
96000,note_off,,,,,10,0,2,,,0,,,49,64
96000,control_change,,,,,0,0,2,,,0,64,127,,
96000,note_on,,,,,0,0,2,,,0,,,73,20
96200,control_change,,,,,200,0,2,,,0,64,0,,
96240,note_off,,,,,40,0,2,,,0,,,73,64
96300,note_on,,,,,60,0,2,,,0,,,37,20
96346,note_off,,,,,46,0,2,,,0,,,37,64
96360,note_on,,,,,14,0,2,,,0,,,37,22
96406,note_off,,,,,46,0,2,,,0,,,37,64
96420,note_off,,,,,0,0,1,,,0,,,61,64
96420,note_off,,,,,0,0,1,,,0,,,56,64
96420,note_off,,,,,660,0,1,,,0,,,53,64
96420,note_on,,,,,14,0,2,,,0,,,36,26
96466,note_off,,,,,46,0,2,,,0,,,36,64
96480,note_on,,,,,60,0,1,,,0,,,61,23
96480,note_on,,,,,0,0,1,,,0,,,58,23
96480,note_on,,,,,14,0,2,,,0,,,37,28
96480,control_change,,,,,0,0,2,,,0,64,127,,
96480,note_on,,,,,0,0,1,,,0,,,54,23
96540,note_off,,,,,60,0,2,,,0,,,37,64
96560,control_change,,,,,20,0,2,,,0,64,0,,
96600,note_on,,,,,40,0,2,,,0,,,49,26
96600,control_change,,,,,0,0,2,,,0,64,127,,
96710,control_change,,,,,110,0,2,,,0,64,0,,
96720,control_change,,,,,0,0,2,,,0,64,127,,
96720,note_on,,,,,0,0,2,,,0,,,73,20
96720,note_off,,,,,10,0,2,,,0,,,49,64
96920,control_change,,,,,200,0,2,,,0,64,0,,
96960,note_off,,,,,40,0,2,,,0,,,73,64
97020,note_on,,,,,60,0,2,,,0,,,37,22
97066,note_off,,,,,46,0,2,,,0,,,37,64
97080,note_on,,,,,14,0,2,,,0,,,37,25
97126,note_off,,,,,46,0,2,,,0,,,37,64
97140,note_off,,,,,0,0,1,,,0,,,61,64
97140,note_off,,,,,660,0,1,,,0,,,54,64
97140,note_off,,,,,0,0,1,,,0,,,58,64
97140,note_on,,,,,14,0,2,,,0,,,36,29
97186,note_off,,,,,46,0,2,,,0,,,36,64
97200,control_change,,,,,14,0,2,,,0,64,127,,
97200,note_on,,,,,60,0,1,,,0,,,61,25
97200,note_on,,,,,0,0,1,,,0,,,54,25
97200,note_on,,,,,0,0,1,,,0,,,51,25
97200,note_on,,,,,0,0,2,,,0,,,37,32
97260,note_off,,,,,60,0,2,,,0,,,37,64
97280,control_change,,,,,20,0,2,,,0,64,0,,
97320,control_change,,,,,40,0,2,,,0,64,127,,
97320,note_on,,,,,0,0,2,,,0,,,49,26
97430,control_change,,,,,110,0,2,,,0,64,0,,
97440,note_off,,,,,10,0,2,,,0,,,49,64
97440,control_change,,,,,0,0,2,,,0,64,127,,
97440,note_on,,,,,0,0,2,,,0,,,73,20
97640,control_change,,,,,200,0,2,,,0,64,0,,
97680,note_off,,,,,40,0,2,,,0,,,73,64
97740,note_on,,,,,60,0,2,,,0,,,37,19
97786,note_off,,,,,46,0,2,,,0,,,37,64
97800,note_on,,,,,14,0,2,,,0,,,37,22
97846,note_off,,,,,46,0,2,,,0,,,37,64
97860,note_off,,,,,0,0,1,,,0,,,61,64
97860,note_off,,,,,0,0,1,,,0,,,54,64
97860,note_off,,,,,660,0,1,,,0,,,51,64
97860,note_on,,,,,14,0,2,,,0,,,36,23
97906,note_off,,,,,46,0,2,,,0,,,36,64
97920,note_on,,,,,0,0,1,,,0,,,56,22
97920,note_on,,,,,60,0,1,,,0,,,61,22
97920,note_on,,,,,0,0,1,,,0,,,53,22
97920,note_on,,,,,14,0,2,,,0,,,37,25
97920,control_change,,,,,0,0,2,,,0,64,127,,
98000,control_change,,,,,80,0,2,,,0,64,0,,
98010,note_off,,,,,10,0,2,,,0,,,37,64
98020,set_tempo,,,,,2128,1,0,1395349,,,,,,
98040,note_on,,,,,0,0,2,,,0,,,68,22
98040,control_change,,,,,30,0,2,,,0,64,127,,
98130,note_off,,,,,90,0,2,,,0,,,68,64
98132,set_tempo,,,,,112,1,0,1428571,,,,,,
98160,note_on,,,,,0,0,1,,,0,,,61,22
98160,note_off,,,,,0,0,1,,,0,,,61,64
98160,note_off,,,,,0,0,1,,,0,,,56,64
98160,note_on,,,,,0,0,1,,,0,,,53,22
98160,note_on,,,,,0,0,1,,,0,,,56,22
98160,note_on,,,,,30,0,2,,,0,,,73,22
98160,note_off,,,,,240,0,1,,,0,,,53,64
98240,control_change,,,,,80,0,2,,,0,64,0,,
98250,note_off,,,,,10,0,2,,,0,,,73,64
98280,note_on,,,,,30,0,2,,,0,,,80,21
98280,control_change,,,,,0,0,2,,,0,64,127,,
98306,set_tempo,,,,,174,1,0,1463415,,,,,,
98346,set_tempo,,,,,40,1,0,1500000,,,,,,
98352,set_tempo,,,,,6,1,0,1538462,,,,,,
98370,note_off,,,,,90,0,2,,,0,,,80,64
98372,set_tempo,,,,,20,1,0,1578947,,,,,,
98400,note_on,,,,,30,0,2,,,0,,,85,19
98400,note_off,,,,,0,0,1,,,0,,,56,64
98400,note_off,,,,,0,0,1,,,0,,,61,64
98400,note_on,,,,,0,0,1,,,0,,,61,20
98400,note_on,,,,,0,0,1,,,0,,,56,20
98400,note_on,,,,,0,0,1,,,0,,,53,20
98400,note_off,,,,,240,0,1,,,0,,,53,64
98412,set_tempo,,,,,40,1,0,1875000,,,,,,
98460,set_tempo,,,,,48,1,0,1935484,,,,,,
98480,control_change,,,,,80,0,2,,,0,64,0,,
98490,note_off,,,,,10,0,2,,,0,,,85,64
98520,note_on,,,,,30,0,2,,,0,,,32,32
98552,set_tempo,,,,,92,1,0,2142857,,,,,,
98620,set_tempo,,,,,68,1,0,2222222,,,,,,
98632,set_tempo,,,,,12,1,0,2307692,,,,,,
98640,note_off,,,,,0,0,1,,,0,,,56,64
98640,note_off,,,,,240,0,1,,,0,,,53,64
98640,note_on,,,,,0,0,1,,,0,,,53,20
98640,note_on,,,,,0,0,1,,,0,,,56,20
98640,note_on,,,,,0,0,1,,,0,,,61,20
98640,note_off,,,,,0,0,1,,,0,,,61,64
98640,note_off,,,,,120,0,2,,,0,,,32,64
98640,note_on,,,,,0,0,2,,,0,,,37,28
98680,set_tempo,,,,,48,1,0,2400000,,,,,,
98692,set_tempo,,,,,12,1,0,2500000,,,,,,
98720,set_tempo,,,,,28,1,0,2608696,,,,,,
98732,end_of_track,,,,,0,1,0,,,,,,,
98732,set_tempo,,,,,12,1,0,2142857,,,,,,
99360,end_of_track,,,,,0,1,2,,,,,,,
99360,end_of_track,,,,,0,1,1,,,,,,,
99360,note_off,,,,,0,0,1,,,0,,,56,64
99360,note_off,,,,,720,0,1,,,0,,,53,64
99360,note_off,,,,,720,0,2,,,0,,,37,64
99360,note_off,,,,,0,0,1,,,0,,,61,64
