tick,type,numerator,denominator,clocks_per_click,notated_32nd_notes_per_beat,time,meta,track,tempo,control,value,channel,note,velocity
0,time_signature,3,4,24,8,0,1,0,,,,,,
0,control_change,,,,,0,0,1,,64,96,0,,
0,note_on,,,,,0,0,1,,,,0,75,53
0,note_on,,,,,0,0,1,,,,0,63,53
0,track_name,,,,,0,1,7,,,,,,
0,track_name,,,,,0,1,2,,,,,,
0,control_change,,,,,0,0,2,,7,80,0,,
0,note_on,,,,,0,0,2,,,,0,48,48
0,track_name,,,,,0,1,3,,,,,,
0,end_of_track,,,,,0,1,3,,,,,,
0,track_name,,,,,0,1,4,,,,,,
0,end_of_track,,,,,0,1,4,,,,,,
0,track_name,,,,,0,1,5,,,,,,
0,end_of_track,,,,,0,1,5,,,,,,
0,track_name,,,,,0,1,6,,,,,,
0,end_of_track,,,,,0,1,6,,,,,,
0,control_change,,,,,0,0,1,,7,80,0,,
0,track_name,,,,,0,1,1,,,,,,
0,end_of_track,,,,,0,1,7,,,,,,
0,set_tempo,,,,,0,1,0,272727,,,,,
0,marker,,,,,0,1,0,,,,,,
40,set_tempo,,,,,40,1,0,271493,,,,,
90,note_off,,,,,90,0,2,,,,0,48,64
100,set_tempo,,,,,60,1,0,270270,,,,,
120,note_on,,,,,30,0,2,,,,0,55,32
140,set_tempo,,,,,40,1,0,269058,,,,,
170,set_tempo,,,,,30,1,0,266667,,,,,
210,note_off,,,,,90,0,2,,,,0,55,64
230,set_tempo,,,,,60,1,0,265487,,,,,
232,control_change,,,,,232,0,1,,64,0,0,,
240,note_off,,,,,0,0,1,,,,0,75,64
240,note_on,,,,,0,0,1,,,,0,77,37
240,note_off,,,,,8,0,1,,,,0,63,64
240,note_on,,,,,30,0,2,,,,0,50,45
240,control_change,,,,,0,0,1,,64,94,0,,
240,note_on,,,,,0,0,1,,,,0,65,37
330,note_off,,,,,90,0,2,,,,0,50,64
330,set_tempo,,,,,100,1,0,264317,,,,,
360,note_on,,,,,30,0,2,,,,0,55,33
450,note_off,,,,,90,0,2,,,,0,55,64
460,set_tempo,,,,,130,1,0,263158,,,,,
472,control_change,,,,,232,0,1,,64,0,0,,
480,note_off,,,,,8,0,1,,,,0,65,64
480,note_on,,,,,0,0,1,,,,0,79,47
480,note_on,,,,,0,0,1,,,,0,67,47
480,control_change,,,,,0,0,1,,64,95,0,,
480,note_on,,,,,30,0,2,,,,0,51,47
480,note_off,,,,,0,0,1,,,,0,77,64
570,note_off,,,,,90,0,2,,,,0,51,64
600,note_on,,,,,30,0,2,,,,0,55,35
660,note_off,,,,,180,0,1,,,,0,67,64
660,note_off,,,,,0,0,1,,,,0,79,64
690,note_off,,,,,90,0,2,,,,0,55,64
712,control_change,,,,,52,0,1,,64,0,0,,
720,note_on,,,,,0,0,1,,,,0,67,57
720,note_on,,,,,8,0,1,,,,0,79,57
720,note_on,,,,,30,0,2,,,,0,51,52
720,control_change,,,,,0,0,1,,64,95,0,,
840,note_off,,,,,120,0,2,,,,0,51,64
840,note_on,,,,,0,0,2,,,,0,55,38
930,note_off,,,,,90,0,2,,,,0,55,64
960,note_on,,,,,30,0,2,,,,0,60,49
1050,note_off,,,,,90,0,2,,,,0,60,64
1080,note_on,,,,,30,0,2,,,,0,55,39
1160,set_tempo,,,,,700,1,0,264317,,,,,
1170,note_off,,,,,90,0,2,,,,0,55,64
1192,control_change,,,,,472,0,1,,64,0,0,,
1200,note_off,,,,,8,0,1,,,,0,67,64
1200,note_off,,,,,0,0,1,,,,0,79,64
1200,note_on,,,,,0,0,1,,,,0,80,41
1200,note_on,,,,,0,0,1,,,,0,68,41
1200,note_on,,,,,30,0,2,,,,0,50,47
1270,set_tempo,,,,,110,1,0,265487,,,,,
1320,note_on,,,,,0,0,2,,,,0,55,42
1320,note_off,,,,,120,0,2,,,,0,50,64
1380,note_off,,,,,0,0,1,,,,0,80,64
1380,note_off,,,,,180,0,1,,,,0,68,64
1410,note_off,,,,,90,0,2,,,,0,55,64
1440,note_on,,,,,30,0,2,,,,0,51,53
1440,note_on,,,,,60,0,1,,,,0,79,54
1440,note_on,,,,,0,0,1,,,,0,67,54
1440,control_change,,,,,0,0,1,,64,96,0,,
1450,set_tempo,,,,,180,1,0,266667,,,,,
1520,set_tempo,,,,,70,1,0,269058,,,,,
1560,note_off,,,,,120,0,2,,,,0,51,64
1560,note_on,,,,,0,0,2,,,,0,55,39
1650,note_off,,,,,90,0,2,,,,0,55,64
1680,note_on,,,,,30,0,2,,,,0,60,50
1750,set_tempo,,,,,230,1,0,270270,,,,,
1770,note_off,,,,,90,0,2,,,,0,60,64
1800,note_on,,,,,30,0,2,,,,0,55,41
1890,set_tempo,,,,,140,1,0,271493,,,,,
1890,note_off,,,,,90,0,2,,,,0,55,64
1912,control_change,,,,,472,0,1,,64,0,0,,
1920,note_on,,,,,0,0,1,,,,0,63,34
1920,note_on,,,,,30,0,2,,,,0,48,41
1920,note_off,,,,,8,0,1,,,,0,67,64
1920,note_off,,,,,0,0,1,,,,0,79,64
1920,note_on,,,,,0,0,1,,,,0,75,34
2040,note_on,,,,,0,0,2,,,,0,55,32
2040,note_off,,,,,120,0,2,,,,0,48,64
2100,note_off,,,,,180,0,1,,,,0,63,64
2100,note_off,,,,,0,0,1,,,,0,75,64
2110,set_tempo,,,,,220,1,0,272727,,,,,
2120,set_tempo,,,,,10,1,0,273973,,,,,
2130,note_off,,,,,90,0,2,,,,0,55,64
2140,set_tempo,,,,,20,1,0,270270,,,,,
2150,set_tempo,,,,,10,1,0,269058,,,,,
2160,control_change,,,,,0,0,1,,64,96,0,,
2160,note_on,,,,,0,0,1,,,,0,67,53
2160,note_on,,,,,60,0,1,,,,0,79,53
2160,note_on,,,,,30,0,2,,,,0,53,48
2170,set_tempo,,,,,20,1,0,266667,,,,,
2180,set_tempo,,,,,10,1,0,265487,,,,,
2240,set_tempo,,,,,60,1,0,264317,,,,,
2250,note_off,,,,,90,0,2,,,,0,53,64
2280,note_on,,,,,30,0,2,,,,0,55,40
2310,set_tempo,,,,,70,1,0,263158,,,,,
2330,set_tempo,,,,,20,1,0,262009,,,,,
2370,note_off,,,,,90,0,2,,,,0,55,64
2392,control_change,,,,,232,0,1,,64,0,0,,
2400,note_on,,,,,0,0,1,,,,0,81,58
2400,note_on,,,,,0,0,1,,,,0,69,58
2400,control_change,,,,,0,0,1,,64,94,0,,
2400,note_off,,,,,0,0,1,,,,0,79,64
2400,note_off,,,,,8,0,1,,,,0,67,64
2400,note_on,,,,,30,0,2,,,,0,51,47
2450,set_tempo,,,,,120,1,0,259740,,,,,
2490,note_off,,,,,90,0,2,,,,0,51,64
2510,set_tempo,,,,,60,1,0,258621,,,,,
2520,note_on,,,,,30,0,2,,,,0,55,38
2600,set_tempo,,,,,90,1,0,256410,,,,,
2610,note_off,,,,,90,0,2,,,,0,55,64
2632,control_change,,,,,232,0,1,,64,0,0,,
2640,note_off,,,,,8,0,1,,,,0,69,64
2640,note_on,,,,,0,0,1,,,,0,83,65
2640,note_on,,,,,0,0,1,,,,0,71,65
2640,control_change,,,,,0,0,1,,64,95,0,,
2640,note_off,,,,,0,0,1,,,,0,81,64
2640,note_on,,,,,30,0,2,,,,0,50,50
2660,set_tempo,,,,,60,1,0,255319,,,,,
2730,note_off,,,,,90,0,2,,,,0,50,64
2760,set_tempo,,,,,100,1,0,254237,,,,,
2760,note_on,,,,,30,0,2,,,,0,55,35
2820,note_off,,,,,180,0,1,,,,0,71,64
2820,note_off,,,,,0,0,1,,,,0,83,64
2820,set_tempo,,,,,60,1,0,253165,,,,,
2850,note_off,,,,,90,0,2,,,,0,55,64
2872,control_change,,,,,52,0,1,,64,0,0,,
2880,note_on,,,,,0,0,1,,,,0,72,79
2880,note_on,,,,,8,0,1,,,,0,84,79
2880,control_change,,,,,0,0,1,,64,96,0,,
2880,note_on,,,,,30,0,2,,,,0,51,48
2900,set_tempo,,,,,80,1,0,252101,,,,,
2970,set_tempo,,,,,70,1,0,251046,,,,,
2970,note_off,,,,,90,0,2,,,,0,51,64
3000,note_on,,,,,30,0,2,,,,0,55,43
3090,note_off,,,,,90,0,2,,,,0,55,64
3112,control_change,,,,,232,0,1,,64,0,0,,
3120,note_on,,,,,0,0,1,,,,0,73,74
3120,note_on,,,,,0,0,1,,,,0,85,74
3120,note_off,,,,,0,0,1,,,,0,84,64
3120,note_off,,,,,8,0,1,,,,0,72,64
3120,note_on,,,,,30,0,2,,,,0,49,60
3120,control_change,,,,,0,0,1,,64,94,0,,
3210,note_off,,,,,90,0,2,,,,0,49,64
3240,note_on,,,,,30,0,2,,,,0,55,53
3330,note_off,,,,,90,0,2,,,,0,55,64
3352,control_change,,,,,232,0,1,,64,0,0,,
3360,note_on,,,,,30,0,2,,,,0,48,76
3360,note_off,,,,,0,0,1,,,,0,85,64
3360,note_off,,,,,8,0,1,,,,0,73,64
3360,note_on,,,,,0,0,1,,,,0,87,82
3360,note_on,,,,,0,0,1,,,,0,75,82
3360,control_change,,,,,0,0,1,,64,95,0,,
3400,set_tempo,,,,,430,1,0,252101,,,,,
3450,note_off,,,,,90,0,2,,,,0,48,64
3480,note_on,,,,,30,0,2,,,,0,55,62
3540,note_off,,,,,180,0,1,,,,0,75,64
3540,note_off,,,,,0,0,1,,,,0,87,64
3570,note_off,,,,,90,0,2,,,,0,55,64
3592,control_change,,,,,52,0,1,,64,0,0,,
3600,note_on,,,,,0,0,1,,,,0,75,86
3600,control_change,,,,,0,0,1,,64,95,0,,
3600,note_on,,,,,30,0,2,,,,0,48,84
3600,note_on,,,,,8,0,1,,,,0,87,86
3610,set_tempo,,,,,210,1,0,253165,,,,,
3720,note_on,,,,,0,0,2,,,,0,51,66
3720,note_off,,,,,120,0,2,,,,0,48,64
3740,set_tempo,,,,,130,1,0,254237,,,,,
3810,note_off,,,,,90,0,2,,,,0,51,64
3840,note_on,,,,,30,0,2,,,,0,56,74
3860,set_tempo,,,,,120,1,0,255319,,,,,
3930,note_off,,,,,90,0,2,,,,0,56,64
3960,note_on,,,,,30,0,2,,,,0,51,57
3970,set_tempo,,,,,110,1,0,256410,,,,,
4000,set_tempo,,,,,30,1,0,258621,,,,,
4050,note_off,,,,,90,0,2,,,,0,51,64
4072,control_change,,,,,472,0,1,,64,0,0,,
4080,note_on,,,,,30,0,2,,,,0,48,73
4080,note_off,,,,,8,0,1,,,,0,75,64
4080,note_off,,,,,0,0,1,,,,0,87,64
4080,note_on,,,,,0,0,1,,,,0,89,71
4080,note_on,,,,,0,0,1,,,,0,77,71
4200,note_on,,,,,0,0,2,,,,0,51,67
4200,note_off,,,,,120,0,2,,,,0,48,64
4240,set_tempo,,,,,240,1,0,259740,,,,,
4260,note_off,,,,,180,0,1,,,,0,77,64
4260,note_off,,,,,0,0,1,,,,0,89,64
4290,note_off,,,,,90,0,2,,,,0,51,64
4320,note_on,,,,,60,0,1,,,,0,87,91
4320,note_on,,,,,30,0,2,,,,0,46,84
4320,control_change,,,,,0,0,1,,64,96,0,,
4320,note_on,,,,,0,0,1,,,,0,75,91
4360,set_tempo,,,,,120,1,0,262009,,,,,
4430,set_tempo,,,,,70,1,0,263158,,,,,
4440,note_off,,,,,120,0,2,,,,0,46,64
4440,note_on,,,,,0,0,2,,,,0,51,68
4530,set_tempo,,,,,100,1,0,264317,,,,,
4530,note_off,,,,,90,0,2,,,,0,51,64
4560,note_on,,,,,30,0,2,,,,0,55,74
4650,note_off,,,,,90,0,2,,,,0,55,64
4680,note_on,,,,,30,0,2,,,,0,51,63
4700,set_tempo,,,,,170,1,0,265487,,,,,
4760,set_tempo,,,,,60,1,0,266667,,,,,
4770,note_off,,,,,90,0,2,,,,0,51,64
4792,control_change,,,,,472,0,1,,64,0,0,,
4800,note_on,,,,,30,0,2,,,,0,46,72
4800,note_on,,,,,0,0,1,,,,0,82,77
4800,note_off,,,,,0,0,1,,,,0,87,64
4800,note_off,,,,,8,0,1,,,,0,75,64
4800,note_on,,,,,0,0,1,,,,0,70,77
4880,set_tempo,,,,,120,1,0,269058,,,,,
4920,note_off,,,,,120,0,2,,,,0,46,64
4920,note_on,,,,,0,0,2,,,,0,51,60
4940,set_tempo,,,,,60,1,0,270270,,,,,
4980,note_off,,,,,180,0,1,,,,0,70,64
4980,note_off,,,,,0,0,1,,,,0,82,64
5000,set_tempo,,,,,60,1,0,271493,,,,,
5010,note_off,,,,,90,0,2,,,,0,51,64
5040,set_tempo,,,,,40,1,0,272727,,,,,
5040,control_change,,,,,0,0,1,,64,96,0,,
5040,note_on,,,,,0,0,1,,,,0,72,97
5040,note_on,,,,,60,0,1,,,,0,84,97
5040,note_on,,,,,30,0,2,,,,0,44,82
5070,set_tempo,,,,,30,1,0,271493,,,,,
5100,set_tempo,,,,,30,1,0,270270,,,,,
5130,note_off,,,,,90,0,2,,,,0,44,64
5160,note_on,,,,,30,0,2,,,,0,48,67
5180,set_tempo,,,,,80,1,0,269058,,,,,
5250,note_off,,,,,90,0,2,,,,0,48,64
5260,set_tempo,,,,,80,1,0,266667,,,,,
5272,control_change,,,,,232,0,1,,64,0,0,,
5280,control_change,,,,,0,0,1,,64,94,0,,
5280,note_on,,,,,0,0,1,,,,0,76,80
5280,note_on,,,,,0,0,1,,,,0,88,80
5280,note_off,,,,,0,0,1,,,,0,84,64
5280,note_on,,,,,30,0,2,,,,0,43,71
5280,note_off,,,,,8,0,1,,,,0,72,64
5340,set_tempo,,,,,80,1,0,265487,,,,,
5370,note_off,,,,,90,0,2,,,,0,43,64
5400,note_on,,,,,30,0,2,,,,0,48,56
5410,set_tempo,,,,,70,1,0,264317,,,,,
5430,set_tempo,,,,,20,1,0,263158,,,,,
5490,note_off,,,,,90,0,2,,,,0,48,64
5490,set_tempo,,,,,60,1,0,262009,,,,,
5512,control_change,,,,,232,0,1,,64,0,0,,
5520,note_on,,,,,30,0,2,,,,0,41,69
5520,note_off,,,,,8,0,1,,,,0,76,64
5520,note_off,,,,,0,0,1,,,,0,88,64
5520,note_on,,,,,0,0,1,,,,0,89,71
5520,note_on,,,,,0,0,1,,,,0,77,71
5520,control_change,,,,,0,0,1,,64,95,0,,
5610,note_off,,,,,90,0,2,,,,0,41,64
5640,note_on,,,,,30,0,2,,,,0,48,57
5650,set_tempo,,,,,160,1,0,259740,,,,,
5700,note_off,,,,,0,0,1,,,,0,89,64
5700,note_off,,,,,180,0,1,,,,0,77,64
5710,set_tempo,,,,,60,1,0,258621,,,,,
5730,note_off,,,,,90,0,2,,,,0,48,64
5752,control_change,,,,,52,0,1,,64,0,0,,
5760,note_on,,,,,30,0,2,,,,0,43,48
5760,control_change,,,,,0,0,1,,64,96,0,,
5760,note_on,,,,,0,0,1,,,,0,58,63
5760,note_on,,,,,8,0,1,,,,0,70,63
5850,note_off,,,,,90,0,2,,,,0,43,64
5880,note_on,,,,,30,0,2,,,,0,46,43
5910,set_tempo,,,,,200,1,0,254237,,,,,
5970,note_off,,,,,90,0,2,,,,0,46,64
5990,set_tempo,,,,,80,1,0,253165,,,,,
5992,control_change,,,,,232,0,1,,64,0,0,,
6000,note_off,,,,,0,0,1,,,,0,70,64
6000,note_on,,,,,0,0,1,,,,0,74,49
6000,control_change,,,,,0,0,1,,64,94,0,,
6000,note_on,,,,,0,0,1,,,,0,62,49
6000,note_on,,,,,30,0,2,,,,0,41,49
6000,note_off,,,,,8,0,1,,,,0,58,64
6090,note_off,,,,,90,0,2,,,,0,41,64
6110,set_tempo,,,,,120,1,0,252101,,,,,
6120,note_on,,,,,30,0,2,,,,0,46,36
6210,note_off,,,,,90,0,2,,,,0,46,64
6232,control_change,,,,,232,0,1,,64,0,0,,
6240,note_on,,,,,0,0,1,,,,0,63,40
6240,note_off,,,,,8,0,1,,,,0,62,64
6240,note_off,,,,,0,0,1,,,,0,74,64
6240,note_on,,,,,0,0,1,,,,0,75,40
6240,note_on,,,,,30,0,2,,,,0,39,42
6240,control_change,,,,,0,0,1,,64,95,0,,
6290,set_tempo,,,,,180,1,0,251046,,,,,
6330,note_off,,,,,90,0,2,,,,0,39,64
6360,note_on,,,,,30,0,2,,,,0,46,32
6420,note_off,,,,,0,0,1,,,,0,75,64
6420,note_off,,,,,180,0,1,,,,0,63,64
6450,set_tempo,,,,,160,1,0,248963,,,,,
6450,note_off,,,,,90,0,2,,,,0,46,64
6472,control_change,,,,,52,0,1,,64,0,0,,
6480,note_on,,,,,8,0,1,,,,0,67,46
6480,note_on,,,,,0,0,1,,,,0,63,46
6480,note_on,,,,,0,0,1,,,,0,58,46
6480,control_change,,,,,0,0,1,,64,95,0,,
6480,note_on,,,,,30,0,2,,,,0,34,44
6520,set_tempo,,,,,70,1,0,251046,,,,,
6600,note_on,,,,,0,0,2,,,,0,46,35
6600,note_off,,,,,120,0,2,,,,0,34,64
6690,note_off,,,,,90,0,2,,,,0,46,64
6720,note_on,,,,,30,0,2,,,,0,48,39
6730,set_tempo,,,,,210,1,0,252101,,,,,
6810,note_off,,,,,90,0,2,,,,0,48,64
6840,note_on,,,,,30,0,2,,,,0,46,33
6870,set_tempo,,,,,140,1,0,253165,,,,,
6930,note_off,,,,,90,0,2,,,,0,46,64
6952,control_change,,,,,472,0,1,,64,0,0,,
6960,note_on,,,,,30,0,2,,,,0,34,40
6960,note_off,,,,,0,0,1,,,,0,63,64
6960,note_off,,,,,0,0,1,,,,0,67,64
6960,note_on,,,,,0,0,1,,,,0,68,52
6960,note_on,,,,,0,0,1,,,,0,63,52
6960,note_on,,,,,0,0,1,,,,0,60,52
6960,note_off,,,,,8,0,1,,,,0,58,64
7000,set_tempo,,,,,130,1,0,254237,,,,,
7080,note_off,,,,,120,0,2,,,,0,34,64
7080,note_on,,,,,0,0,2,,,,0,46,33
7120,set_tempo,,,,,120,1,0,255319,,,,,
7140,note_off,,,,,180,0,1,,,,0,60,64
7140,note_off,,,,,0,0,1,,,,0,63,64
7140,note_off,,,,,0,0,1,,,,0,68,64
7170,note_off,,,,,90,0,2,,,,0,46,64
7200,note_on,,,,,0,0,1,,,,0,56,44
7200,control_change,,,,,0,0,1,,64,96,0,,
7200,note_on,,,,,30,0,2,,,,0,34,45
7200,note_on,,,,,0,0,1,,,,0,62,44
7200,note_on,,,,,60,0,1,,,,0,65,44
7280,set_tempo,,,,,160,1,0,256410,,,,,
7320,note_off,,,,,120,0,2,,,,0,34,64
7320,note_on,,,,,0,0,2,,,,0,46,35
7380,set_tempo,,,,,100,1,0,258621,,,,,
7410,note_off,,,,,90,0,2,,,,0,46,64
7440,note_on,,,,,30,0,2,,,,0,48,39
7520,set_tempo,,,,,140,1,0,259740,,,,,
7530,note_off,,,,,90,0,2,,,,0,48,64
7560,note_on,,,,,30,0,2,,,,0,46,35
7650,note_off,,,,,90,0,2,,,,0,46,64
7672,control_change,,,,,472,0,1,,64,0,0,,
7680,set_tempo,,,,,160,1,0,262009,,,,,
7680,note_on,,,,,30,0,2,,,,0,39,39
7680,note_on,,,,,0,0,1,,,,0,55,53
7680,note_on,,,,,0,0,1,,,,0,58,53
7680,note_on,,,,,0,0,1,,,,0,63,53
7680,note_off,,,,,0,0,1,,,,0,65,64
7680,note_off,,,,,0,0,1,,,,0,62,64
7680,note_off,,,,,8,0,1,,,,0,56,64
7760,set_tempo,,,,,80,1,0,263158,,,,,
7800,note_on,,,,,0,0,2,,,,0,46,35
7800,note_off,,,,,120,0,2,,,,0,39,64
7860,note_off,,,,,180,0,1,,,,0,55,64
7860,note_off,,,,,0,0,1,,,,0,58,64
7860,note_off,,,,,0,0,1,,,,0,63,64
7880,set_tempo,,,,,120,1,0,264317,,,,,
7890,note_off,,,,,90,0,2,,,,0,46,64
7920,control_change,,,,,0,0,1,,64,96,0,,
7920,note_on,,,,,30,0,2,,,,0,39,44
7920,note_on,,,,,60,0,1,,,,0,63,40
7920,note_on,,,,,0,0,1,,,,0,58,40
7920,note_on,,,,,0,0,1,,,,0,55,40
8020,set_tempo,,,,,140,1,0,265487,,,,,
8040,note_on,,,,,0,0,2,,,,0,43,26
8040,note_off,,,,,120,0,2,,,,0,39,64
8120,set_tempo,,,,,100,1,0,266667,,,,,
8160,note_off,,,,,120,0,2,,,,0,43,64
8160,note_off,,,,,0,0,1,,,,0,58,64
8160,note_off,,,,,0,0,1,,,,0,63,64
8160,note_on,,,,,0,0,2,,,,0,46,31
8160,note_off,,,,,240,0,1,,,,0,55,64
8200,set_tempo,,,,,80,1,0,269058,,,,,
8280,note_on,,,,,0,0,2,,,,0,50,35
8280,note_off,,,,,120,0,2,,,,0,46,64
8320,set_tempo,,,,,120,1,0,270270,,,,,
8392,control_change,,,,,232,0,1,,64,0,0,,
8400,note_on,,,,,0,0,2,,,,0,51,38
8400,control_change,,,,,8,0,1,,64,94,0,,
8400,note_off,,,,,120,0,2,,,,0,50,64
8450,set_tempo,,,,,130,1,0,271493,,,,,
8510,set_tempo,,,,,60,1,0,272727,,,,,
8520,note_off,,,,,120,0,2,,,,0,51,64
8520,note_on,,,,,0,0,2,,,,0,55,42
8570,set_tempo,,,,,60,1,0,273973,,,,,
8632,control_change,,,,,232,0,1,,64,0,0,,
8640,note_off,,,,,120,0,2,,,,0,55,64
8640,note_on,,,,,0,0,2,,,,0,48,48
8640,note_on,,,,,0,0,1,,,,0,63,53
8640,note_on,,,,,8,0,1,,,,0,75,53
8640,set_tempo,,,,,70,1,0,272727,,,,,
8640,control_change,,,,,0,0,1,,64,96,0,,
8680,set_tempo,,,,,40,1,0,271493,,,,,
8730,note_off,,,,,90,0,2,,,,0,48,64
8740,set_tempo,,,,,60,1,0,270270,,,,,
8760,note_on,,,,,30,0,2,,,,0,55,32
8780,set_tempo,,,,,40,1,0,269058,,,,,
8810,set_tempo,,,,,30,1,0,266667,,,,,
8850,note_off,,,,,90,0,2,,,,0,55,64
8870,set_tempo,,,,,60,1,0,265487,,,,,
8872,control_change,,,,,232,0,1,,64,0,0,,
8880,note_off,,,,,0,0,1,,,,0,75,64
8880,note_on,,,,,0,0,1,,,,0,77,37
8880,note_on,,,,,0,0,1,,,,0,65,37
8880,control_change,,,,,0,0,1,,64,94,0,,
8880,note_on,,,,,30,0,2,,,,0,50,45
8880,note_off,,,,,8,0,1,,,,0,63,64
8970,set_tempo,,,,,100,1,0,264317,,,,,
8970,note_off,,,,,90,0,2,,,,0,50,64
9000,note_on,,,,,30,0,2,,,,0,55,33
9090,note_off,,,,,90,0,2,,,,0,55,64
9100,set_tempo,,,,,130,1,0,263158,,,,,
9112,control_change,,,,,232,0,1,,64,0,0,,
9120,note_on,,,,,0,0,1,,,,0,79,47
9120,note_off,,,,,0,0,1,,,,0,77,64
9120,control_change,,,,,0,0,1,,64,95,0,,
9120,note_on,,,,,0,0,1,,,,0,67,47
9120,note_off,,,,,8,0,1,,,,0,65,64
9120,note_on,,,,,30,0,2,,,,0,51,47
9210,note_off,,,,,90,0,2,,,,0,51,64
9240,note_on,,,,,30,0,2,,,,0,55,35
9300,note_off,,,,,0,0,1,,,,0,79,64
9300,note_off,,,,,180,0,1,,,,0,67,64
9330,note_off,,,,,90,0,2,,,,0,55,64
9352,control_change,,,,,52,0,1,,64,0,0,,
9360,control_change,,,,,0,0,1,,64,95,0,,
9360,note_on,,,,,8,0,1,,,,0,79,57
9360,note_on,,,,,30,0,2,,,,0,51,52
9360,note_on,,,,,0,0,1,,,,0,67,57
9480,note_on,,,,,0,0,2,,,,0,55,38
9480,note_off,,,,,120,0,2,,,,0,51,64
9570,note_off,,,,,90,0,2,,,,0,55,64
9600,note_on,,,,,30,0,2,,,,0,60,49
9690,note_off,,,,,90,0,2,,,,0,60,64
9720,note_on,,,,,30,0,2,,,,0,55,39
9800,set_tempo,,,,,700,1,0,264317,,,,,
9810,note_off,,,,,90,0,2,,,,0,55,64
9832,control_change,,,,,472,0,1,,64,0,0,,
9840,note_off,,,,,0,0,1,,,,0,79,64
9840,note_on,,,,,30,0,2,,,,0,50,47
9840,note_off,,,,,8,0,1,,,,0,67,64
9840,note_on,,,,,0,0,1,,,,0,80,41
9840,note_on,,,,,0,0,1,,,,0,68,41
9910,set_tempo,,,,,110,1,0,265487,,,,,
9960,note_on,,,,,0,0,2,,,,0,55,42
9960,note_off,,,,,120,0,2,,,,0,50,64
10020,note_off,,,,,0,0,1,,,,0,80,64
10020,note_off,,,,,180,0,1,,,,0,68,64
10050,note_off,,,,,90,0,2,,,,0,55,64
10080,note_on,,,,,60,0,1,,,,0,79,54
10080,control_change,,,,,0,0,1,,64,96,0,,
10080,note_on,,,,,0,0,1,,,,0,67,54
10080,note_on,,,,,30,0,2,,,,0,51,53
10090,set_tempo,,,,,180,1,0,266667,,,,,
10160,set_tempo,,,,,70,1,0,269058,,,,,
10200,note_on,,,,,0,0,2,,,,0,55,39
10200,note_off,,,,,120,0,2,,,,0,51,64
10290,note_off,,,,,90,0,2,,,,0,55,64
10320,note_on,,,,,30,0,2,,,,0,60,50
10390,set_tempo,,,,,230,1,0,270270,,,,,
10410,note_off,,,,,90,0,2,,,,0,60,64
10440,note_on,,,,,30,0,2,,,,0,55,41
10530,note_off,,,,,90,0,2,,,,0,55,64
10530,set_tempo,,,,,140,1,0,271493,,,,,
10552,control_change,,,,,472,0,1,,64,0,0,,
10560,note_off,,,,,8,0,1,,,,0,67,64
10560,note_off,,,,,0,0,1,,,,0,79,64
10560,note_on,,,,,0,0,1,,,,0,75,34
10560,note_on,,,,,0,0,1,,,,0,63,34
10560,note_on,,,,,30,0,2,,,,0,48,41
10680,note_on,,,,,0,0,2,,,,0,55,32
10680,note_off,,,,,120,0,2,,,,0,48,64
10740,note_off,,,,,180,0,1,,,,0,63,64
10740,note_off,,,,,0,0,1,,,,0,75,64
10750,set_tempo,,,,,220,1,0,272727,,,,,
10760,set_tempo,,,,,10,1,0,273973,,,,,
10770,note_off,,,,,90,0,2,,,,0,55,64
10780,set_tempo,,,,,20,1,0,270270,,,,,
10790,set_tempo,,,,,10,1,0,269058,,,,,
10800,note_on,,,,,30,0,2,,,,0,53,48
10800,control_change,,,,,0,0,1,,64,96,0,,
10800,note_on,,,,,60,0,1,,,,0,79,53
10800,note_on,,,,,0,0,1,,,,0,67,53
10810,set_tempo,,,,,20,1,0,266667,,,,,
10820,set_tempo,,,,,10,1,0,265487,,,,,
10880,set_tempo,,,,,60,1,0,264317,,,,,
10890,note_off,,,,,90,0,2,,,,0,53,64
10920,note_on,,,,,30,0,2,,,,0,55,40
10950,set_tempo,,,,,70,1,0,263158,,,,,
10970,set_tempo,,,,,20,1,0,262009,,,,,
11010,note_off,,,,,90,0,2,,,,0,55,64
11032,control_change,,,,,232,0,1,,64,0,0,,
11040,note_on,,,,,0,0,1,,,,0,81,58
11040,note_on,,,,,0,0,1,,,,0,69,58
11040,control_change,,,,,0,0,1,,64,94,0,,
11040,note_off,,,,,8,0,1,,,,0,67,64
11040,note_on,,,,,30,0,2,,,,0,51,47
11040,note_off,,,,,0,0,1,,,,0,79,64
11090,set_tempo,,,,,120,1,0,259740,,,,,
11130,note_off,,,,,90,0,2,,,,0,51,64
11150,set_tempo,,,,,60,1,0,258621,,,,,
11160,note_on,,,,,30,0,2,,,,0,55,38
11240,set_tempo,,,,,90,1,0,256410,,,,,
11250,note_off,,,,,90,0,2,,,,0,55,64
11272,control_change,,,,,232,0,1,,64,0,0,,
11280,note_on,,,,,30,0,2,,,,0,50,50
11280,control_change,,,,,0,0,1,,64,95,0,,
11280,note_on,,,,,0,0,1,,,,0,71,65
11280,note_on,,,,,0,0,1,,,,0,83,65
11280,note_off,,,,,0,0,1,,,,0,81,64
11280,note_off,,,,,8,0,1,,,,0,69,64
11300,set_tempo,,,,,60,1,0,255319,,,,,
11370,note_off,,,,,90,0,2,,,,0,50,64
11400,note_on,,,,,30,0,2,,,,0,55,35
11400,set_tempo,,,,,100,1,0,254237,,,,,
11460,note_off,,,,,0,0,1,,,,0,83,64
11460,note_off,,,,,180,0,1,,,,0,71,64
11460,set_tempo,,,,,60,1,0,253165,,,,,
11490,note_off,,,,,90,0,2,,,,0,55,64
11512,control_change,,,,,52,0,1,,64,0,0,,
11520,control_change,,,,,0,0,1,,64,96,0,,
11520,note_on,,,,,0,0,1,,,,0,72,71
11520,note_on,,,,,30,0,2,,,,0,51,48
11520,note_on,,,,,8,0,1,,,,0,84,71
11540,set_tempo,,,,,80,1,0,252101,,,,,
11610,note_off,,,,,90,0,2,,,,0,51,64
11610,set_tempo,,,,,70,1,0,251046,,,,,
11640,note_on,,,,,30,0,2,,,,0,55,43
11730,note_off,,,,,90,0,2,,,,0,55,64
11752,control_change,,,,,232,0,1,,64,0,0,,
11760,note_on,,,,,30,0,2,,,,0,49,60
11760,control_change,,,,,0,0,1,,64,94,0,,
11760,note_on,,,,,0,0,1,,,,0,73,76
11760,note_on,,,,,0,0,1,,,,0,85,76
11760,note_off,,,,,0,0,1,,,,0,84,64
11760,note_off,,,,,8,0,1,,,,0,72,64
11850,note_off,,,,,90,0,2,,,,0,49,64
11880,note_on,,,,,30,0,2,,,,0,55,53
11970,note_off,,,,,90,0,2,,,,0,55,64
11992,control_change,,,,,232,0,1,,64,0,0,,
12000,note_on,,,,,0,0,1,,,,0,87,82
12000,note_on,,,,,30,0,2,,,,0,48,76
12000,note_off,,,,,0,0,1,,,,0,85,64
12000,note_off,,,,,8,0,1,,,,0,73,64
12000,note_on,,,,,0,0,1,,,,0,75,82
12000,control_change,,,,,0,0,1,,64,95,0,,
12040,set_tempo,,,,,430,1,0,252101,,,,,
12090,note_off,,,,,90,0,2,,,,0,48,64
12120,note_on,,,,,30,0,2,,,,0,55,62
12180,note_off,,,,,180,0,1,,,,0,75,64
12180,note_off,,,,,0,0,1,,,,0,87,64
12210,note_off,,,,,90,0,2,,,,0,55,64
12232,control_change,,,,,52,0,1,,64,0,0,,
12240,note_on,,,,,30,0,2,,,,0,48,84
12240,note_on,,,,,8,0,1,,,,0,87,86
12240,note_on,,,,,0,0,1,,,,0,75,86
12240,control_change,,,,,0,0,1,,64,95,0,,
12250,set_tempo,,,,,210,1,0,253165,,,,,
12360,note_off,,,,,120,0,2,,,,0,48,64
12360,note_on,,,,,0,0,2,,,,0,51,66
12380,set_tempo,,,,,130,1,0,254237,,,,,
12450,note_off,,,,,90,0,2,,,,0,51,64
12480,note_on,,,,,30,0,2,,,,0,56,74
12500,set_tempo,,,,,120,1,0,255319,,,,,
12570,note_off,,,,,90,0,2,,,,0,56,64
12600,note_on,,,,,30,0,2,,,,0,51,57
12610,set_tempo,,,,,110,1,0,256410,,,,,
12640,set_tempo,,,,,30,1,0,258621,,,,,
12690,note_off,,,,,90,0,2,,,,0,51,64
12712,control_change,,,,,472,0,1,,64,0,0,,
12720,note_on,,,,,30,0,2,,,,0,48,73
12720,note_on,,,,,0,0,1,,,,0,89,73
12720,note_off,,,,,8,0,1,,,,0,75,64
12720,note_off,,,,,0,0,1,,,,0,87,64
12720,note_on,,,,,0,0,1,,,,0,77,73
12840,note_off,,,,,120,0,2,,,,0,48,64
12840,note_on,,,,,0,0,2,,,,0,51,67
12880,set_tempo,,,,,240,1,0,259740,,,,,
12900,note_off,,,,,0,0,1,,,,0,89,64
12900,note_off,,,,,180,0,1,,,,0,77,64
12930,note_off,,,,,90,0,2,,,,0,51,64
12960,note_on,,,,,60,0,1,,,,0,87,91
12960,control_change,,,,,0,0,1,,64,96,0,,
12960,note_on,,,,,30,0,2,,,,0,46,84
12960,note_on,,,,,0,0,1,,,,0,75,91
13000,set_tempo,,,,,120,1,0,262009,,,,,
13070,set_tempo,,,,,70,1,0,263158,,,,,
13080,note_on,,,,,0,0,2,,,,0,51,68
13080,note_off,,,,,120,0,2,,,,0,46,64
13170,note_off,,,,,90,0,2,,,,0,51,64
13170,set_tempo,,,,,100,1,0,264317,,,,,
13200,note_on,,,,,30,0,2,,,,0,55,74
13290,note_off,,,,,90,0,2,,,,0,55,64
13320,note_on,,,,,30,0,2,,,,0,51,63
13340,set_tempo,,,,,170,1,0,265487,,,,,
13400,set_tempo,,,,,60,1,0,266667,,,,,
13410,note_off,,,,,90,0,2,,,,0,51,64
13432,control_change,,,,,472,0,1,,64,0,0,,
13440,note_off,,,,,8,0,1,,,,0,75,64
13440,note_off,,,,,0,0,1,,,,0,87,64
13440,note_on,,,,,0,0,1,,,,0,82,77
13440,note_on,,,,,0,0,1,,,,0,70,77
13440,note_on,,,,,30,0,2,,,,0,46,72
13520,set_tempo,,,,,120,1,0,269058,,,,,
13560,note_off,,,,,120,0,2,,,,0,46,64
13560,note_on,,,,,0,0,2,,,,0,51,60
13580,set_tempo,,,,,60,1,0,270270,,,,,
13620,note_off,,,,,0,0,1,,,,0,82,64
13620,note_off,,,,,180,0,1,,,,0,70,64
13640,set_tempo,,,,,60,1,0,271493,,,,,
13650,note_off,,,,,90,0,2,,,,0,51,64
13680,note_on,,,,,30,0,2,,,,0,44,82
13680,note_on,,,,,0,0,1,,,,0,72,97
13680,control_change,,,,,0,0,1,,64,96,0,,
13680,set_tempo,,,,,40,1,0,272727,,,,,
13680,note_on,,,,,60,0,1,,,,0,84,97
13710,set_tempo,,,,,30,1,0,271493,,,,,
13740,set_tempo,,,,,30,1,0,270270,,,,,
13770,note_off,,,,,90,0,2,,,,0,44,64
13800,note_on,,,,,30,0,2,,,,0,48,67
13820,set_tempo,,,,,80,1,0,269058,,,,,
13890,note_off,,,,,90,0,2,,,,0,48,64
13900,set_tempo,,,,,80,1,0,266667,,,,,
13912,control_change,,,,,232,0,1,,64,0,0,,
13920,note_on,,,,,0,0,1,,,,0,88,80
13920,note_off,,,,,8,0,1,,,,0,72,64
13920,note_off,,,,,0,0,1,,,,0,84,64
13920,note_on,,,,,30,0,2,,,,0,43,71
13920,control_change,,,,,0,0,1,,64,94,0,,
13920,note_on,,,,,0,0,1,,,,0,76,80
13980,set_tempo,,,,,80,1,0,265487,,,,,
14010,note_off,,,,,90,0,2,,,,0,43,64
14040,note_on,,,,,30,0,2,,,,0,48,56
14050,set_tempo,,,,,70,1,0,264317,,,,,
14070,set_tempo,,,,,20,1,0,263158,,,,,
14130,note_off,,,,,90,0,2,,,,0,48,64
14130,set_tempo,,,,,60,1,0,262009,,,,,
14152,control_change,,,,,232,0,1,,64,0,0,,
14160,note_off,,,,,0,0,1,,,,0,88,64
14160,note_on,,,,,0,0,1,,,,0,89,71
14160,note_on,,,,,0,0,1,,,,0,77,71
14160,control_change,,,,,0,0,1,,64,95,0,,
14160,note_on,,,,,30,0,2,,,,0,41,69
14160,note_off,,,,,8,0,1,,,,0,76,64
14250,note_off,,,,,90,0,2,,,,0,41,64
14280,note_on,,,,,30,0,2,,,,0,48,57
14290,set_tempo,,,,,160,1,0,259740,,,,,
14340,note_off,,,,,180,0,1,,,,0,77,64
14340,note_off,,,,,0,0,1,,,,0,89,64
14350,set_tempo,,,,,60,1,0,258621,,,,,
14370,note_off,,,,,90,0,2,,,,0,48,64
14392,control_change,,,,,52,0,1,,64,0,0,,
14400,control_change,,,,,0,0,1,,64,96,0,,
14400,note_on,,,,,0,0,1,,,,0,58,63
14400,note_on,,,,,8,0,1,,,,0,70,63
14400,note_on,,,,,30,0,2,,,,0,43,48
14490,note_off,,,,,90,0,2,,,,0,43,64
14520,note_on,,,,,30,0,2,,,,0,46,43
14550,set_tempo,,,,,200,1,0,254237,,,,,
14610,note_off,,,,,90,0,2,,,,0,46,64
14630,set_tempo,,,,,80,1,0,253165,,,,,
14632,control_change,,,,,232,0,1,,64,0,0,,
14640,control_change,,,,,0,0,1,,64,94,0,,
14640,note_on,,,,,0,0,1,,,,0,62,49
14640,note_off,,,,,0,0,1,,,,0,70,64
14640,note_off,,,,,8,0,1,,,,0,58,64
14640,note_on,,,,,30,0,2,,,,0,41,49
14640,note_on,,,,,0,0,1,,,,0,74,49
14730,note_off,,,,,90,0,2,,,,0,41,64
14750,set_tempo,,,,,120,1,0,252101,,,,,
14760,note_on,,,,,30,0,2,,,,0,46,36
14850,note_off,,,,,90,0,2,,,,0,46,64
14872,control_change,,,,,232,0,1,,64,0,0,,
14880,note_on,,,,,0,0,1,,,,0,63,40
14880,note_on,,,,,30,0,2,,,,0,39,42
14880,note_off,,,,,8,0,1,,,,0,62,64
14880,note_off,,,,,0,0,1,,,,0,74,64
14880,note_on,,,,,0,0,1,,,,0,75,40
14880,control_change,,,,,0,0,1,,64,95,0,,
14930,set_tempo,,,,,180,1,0,251046,,,,,
14970,note_off,,,,,90,0,2,,,,0,39,64
15000,note_on,,,,,30,0,2,,,,0,46,32
15060,note_off,,,,,0,0,1,,,,0,75,64
15060,note_off,,,,,180,0,1,,,,0,63,64
15090,set_tempo,,,,,160,1,0,248963,,,,,
15090,note_off,,,,,90,0,2,,,,0,46,64
15112,control_change,,,,,52,0,1,,64,0,0,,
15120,note_on,,,,,8,0,1,,,,0,67,46
15120,note_on,,,,,0,0,1,,,,0,63,46
15120,note_on,,,,,0,0,1,,,,0,58,46
15120,control_change,,,,,0,0,1,,64,95,0,,
15120,note_on,,,,,30,0,2,,,,0,34,44
15160,set_tempo,,,,,70,1,0,251046,,,,,
15240,note_off,,,,,120,0,2,,,,0,34,64
15240,note_on,,,,,0,0,2,,,,0,46,35
15330,note_off,,,,,90,0,2,,,,0,46,64
15360,note_on,,,,,30,0,2,,,,0,48,39
15370,set_tempo,,,,,210,1,0,252101,,,,,
15450,set_tempo,,,,,80,1,0,253165,,,,,
15450,note_off,,,,,90,0,2,,,,0,48,64
15480,note_on,,,,,30,0,2,,,,0,46,33
15530,set_tempo,,,,,80,1,0,254237,,,,,
15570,note_off,,,,,90,0,2,,,,0,46,64
15592,control_change,,,,,472,0,1,,64,0,0,,
15600,note_on,,,,,0,0,1,,,,0,63,52
15600,note_on,,,,,30,0,2,,,,0,34,40
15600,note_off,,,,,0,0,1,,,,0,67,64
15600,note_off,,,,,8,0,1,,,,0,58,64
15600,note_off,,,,,0,0,1,,,,0,63,64
15600,note_on,,,,,0,0,1,,,,0,68,52
15600,note_on,,,,,0,0,1,,,,0,60,52
15610,set_tempo,,,,,80,1,0,255319,,,,,
15710,set_tempo,,,,,100,1,0,259740,,,,,
15720,note_on,,,,,0,0,2,,,,0,46,33
15720,note_off,,,,,120,0,2,,,,0,34,64
15780,note_off,,,,,0,0,1,,,,0,63,64
15780,note_off,,,,,180,0,1,,,,0,60,64
15780,note_off,,,,,0,0,1,,,,0,68,64
15810,note_off,,,,,90,0,2,,,,0,46,64
15830,set_tempo,,,,,120,1,0,265487,,,,,
15840,note_on,,,,,60,0,1,,,,0,65,44
15840,note_on,,,,,0,0,1,,,,0,62,44
15840,note_on,,,,,0,0,1,,,,0,56,44
15840,control_change,,,,,0,0,1,,64,96,0,,
15840,note_on,,,,,30,0,2,,,,0,34,45
15930,set_tempo,,,,,100,1,0,270270,,,,,
15960,note_off,,,,,120,0,2,,,,0,34,64
15960,note_on,,,,,0,0,2,,,,0,46,35
16010,set_tempo,,,,,80,1,0,273973,,,,,
16050,note_off,,,,,90,0,2,,,,0,46,64
16080,note_on,,,,,30,0,2,,,,0,48,39
16090,set_tempo,,,,,80,1,0,275229,,,,,
16170,note_off,,,,,90,0,2,,,,0,48,64
16170,set_tempo,,,,,80,1,0,280374,,,,,
16200,note_on,,,,,30,0,2,,,,0,46,35
16250,set_tempo,,,,,80,1,0,284360,,,,,
16290,note_off,,,,,90,0,2,,,,0,46,64
16312,control_change,,,,,472,0,1,,64,0,0,,
16320,note_on,,,,,30,0,2,,,,0,39,39
16320,note_on,,,,,0,0,1,,,,0,63,53
16320,note_off,,,,,0,0,1,,,,0,65,64
16320,note_on,,,,,0,0,1,,,,0,55,53
16320,note_on,,,,,0,0,1,,,,0,58,53
16320,note_off,,,,,0,0,1,,,,0,62,64
16320,note_off,,,,,8,0,1,,,,0,56,64
16330,set_tempo,,,,,80,1,0,285714,,,,,
16410,set_tempo,,,,,80,1,0,292683,,,,,
16440,note_on,,,,,0,0,2,,,,0,46,35
16440,note_off,,,,,120,0,2,,,,0,39,64
16470,set_tempo,,,,,60,1,0,294118,,,,,
16500,note_off,,,,,180,0,1,,,,0,55,64
16500,note_off,,,,,0,0,1,,,,0,58,64
16500,note_off,,,,,0,0,1,,,,0,63,64
16530,note_off,,,,,90,0,2,,,,0,46,64
16540,set_tempo,,,,,70,1,0,295567,,,,,
16560,note_on,,,,,0,0,1,,,,0,55,40
16560,note_on,,,,,30,0,2,,,,0,39,44
16560,note_on,,,,,60,0,1,,,,0,63,40
16560,control_change,,,,,0,0,1,,64,96,0,,
16560,note_on,,,,,0,0,1,,,,0,58,40
16610,set_tempo,,,,,70,1,0,297030,,,,,
16690,set_tempo,,,,,80,1,0,298507,,,,,
16720,set_tempo,,,,,30,1,0,301508,,,,,
16740,note_off,,,,,180,0,2,,,,0,39,64
16740,note_off,,,,,180,0,1,,,,0,55,64
16740,note_off,,,,,0,0,1,,,,0,58,64
16740,note_off,,,,,0,0,1,,,,0,63,64
16790,set_tempo,,,,,70,1,0,269058,,,,,
16800,note_on,,,,,60,0,1,,,,0,55,68
16920,note_on,,,,,0,0,1,,,,0,58,62
16920,note_off,,,,,120,0,1,,,,0,55,64
17032,control_change,,,,,112,0,1,,64,0,0,,
17040,control_change,,,,,0,0,1,,64,94,0,,
17040,note_on,,,,,0,0,1,,,,0,63,77
17040,note_off,,,,,8,0,1,,,,0,58,64
17160,note_off,,,,,120,0,1,,,,0,63,64
17160,note_on,,,,,0,0,1,,,,0,67,83
17250,note_off,,,,,90,0,1,,,,0,67,64
17272,control_change,,,,,22,0,1,,64,0,0,,
17280,note_on,,,,,8,0,1,,,,0,70,97
17280,note_on,,,,,0,0,2,,,,0,51,98
17280,set_tempo,,,,,490,1,0,310881,,,,,
17280,note_on,,,,,0,0,2,,,,0,55,98
17280,note_on,,,,,0,0,1,,,,0,63,97
17280,note_on,,,,,0,0,1,,,,0,58,97
17280,control_change,,,,,0,0,1,,64,95,0,,
17280,note_on,,,,,540,0,2,,,,0,43,98
17746,control_change,,,,,466,0,1,,64,0,0,,
17760,note_off,,,,,0,0,2,,,,0,43,64
17760,note_off,,,,,0,0,1,,,,0,70,64
17760,note_on,,,,,0,0,1,,,,0,67,63
17760,note_off,,,,,480,0,2,,,,0,55,64
17760,note_on,,,,,0,0,1,,,,0,63,63
17760,note_on,,,,,0,0,2,,,,0,39,67
17760,note_off,,,,,0,0,2,,,,0,51,64
17760,note_off,,,,,0,0,1,,,,0,63,64
17760,note_on,,,,,0,0,2,,,,0,51,67
17760,note_off,,,,,14,0,1,,,,0,58,64
17760,set_tempo,,,,,480,1,0,263158,,,,,
17760,note_on,,,,,0,0,1,,,,0,58,63
17940,set_tempo,,,,,180,1,0,384615,,,,,
17940,note_off,,,,,0,0,1,,,,0,67,64
17940,note_off,,,,,0,0,1,,,,0,63,64
17940,note_off,,,,,0,0,2,,,,0,39,64
17940,note_off,,,,,180,0,2,,,,0,51,64
17940,note_off,,,,,180,0,1,,,,0,58,64
18000,note_on,,,,,60,0,1,,,,0,91,57
18000,set_tempo,,,,,60,1,0,271493,,,,,
18000,note_on,,,,,60,0,2,,,,0,79,52
18120,note_off,,,,,120,0,1,,,,0,91,64
18120,note_on,,,,,0,0,1,,,,0,87,44
18120,note_on,,,,,0,0,2,,,,0,75,44
18120,note_off,,,,,120,0,2,,,,0,79,64
18210,note_off,,,,,90,0,1,,,,0,87,64
18210,note_off,,,,,90,0,2,,,,0,75,64
18240,note_on,,,,,30,0,2,,,,0,79,53
18240,control_change,,,,,0,0,1,,64,96,0,,
18240,note_on,,,,,30,0,1,,,,0,91,53
18360,note_on,,,,,0,0,1,,,,0,87,58
18360,note_on,,,,,0,0,2,,,,0,75,58
18360,note_off,,,,,120,0,2,,,,0,79,64
18360,note_off,,,,,120,0,1,,,,0,91,64
18480,note_off,,,,,120,0,2,,,,0,75,64
18480,note_on,,,,,0,0,2,,,,0,70,66
18480,note_on,,,,,0,0,1,,,,0,82,66
18480,note_off,,,,,120,0,1,,,,0,87,64
18600,note_off,,,,,120,0,1,,,,0,82,64
18600,note_on,,,,,0,0,2,,,,0,67,75
18600,note_on,,,,,0,0,1,,,,0,79,75
18600,note_off,,,,,120,0,2,,,,0,70,64
18690,note_off,,,,,90,0,1,,,,0,79,64
18690,note_off,,,,,90,0,2,,,,0,67,64
18700,control_change,,,,,10,0,1,,64,0,0,,
18720,note_on,,,,,30,0,2,,,,0,65,104
18720,control_change,,,,,0,0,1,,64,96,0,,
18720,note_on,,,,,0,0,1,,,,0,77,104
18720,note_on,,,,,0,0,1,,,,0,80,104
18720,note_on,,,,,20,0,1,,,,0,82,104
18720,note_on,,,,,0,0,2,,,,0,68,104
18720,note_on,,,,,0,0,2,,,,0,70,104
18720,set_tempo,,,,,720,1,0,310881,,,,,
19192,control_change,,,,,472,0,1,,64,0,0,,
19200,note_off,,,,,0,0,2,,,,0,68,64
19200,set_tempo,,,,,480,1,0,263158,,,,,
19200,note_off,,,,,8,0,1,,,,0,77,64
19200,note_off,,,,,0,0,1,,,,0,80,64
19200,note_off,,,,,0,0,1,,,,0,82,64
19200,note_on,,,,,0,0,1,,,,0,70,63
19200,note_on,,,,,0,0,1,,,,0,77,63
19200,note_on,,,,,0,0,1,,,,0,82,63
19200,note_off,,,,,480,0,2,,,,0,70,64
19200,note_off,,,,,0,0,2,,,,0,65,64
19200,note_on,,,,,0,0,2,,,,0,58,63
19200,note_on,,,,,0,0,2,,,,0,65,63
19380,note_off,,,,,0,0,1,,,,0,77,64
19380,set_tempo,,,,,180,1,0,387097,,,,,
19380,note_off,,,,,180,0,2,,,,0,65,64
19380,note_off,,,,,0,0,2,,,,0,58,64
19380,note_off,,,,,0,0,1,,,,0,82,64
19380,note_off,,,,,180,0,1,,,,0,70,64
19440,note_on,,,,,0,0,1,,,,0,58,97
19440,note_on,,,,,60,0,2,,,,0,43,98
19440,note_on,,,,,0,0,2,,,,0,51,98
19440,note_on,,,,,0,0,2,,,,0,55,98
19440,note_on,,,,,60,0,1,,,,0,70,97
19440,set_tempo,,,,,60,1,0,310881,,,,,
19440,control_change,,,,,0,0,1,,64,95,0,,
19440,note_on,,,,,0,0,1,,,,0,63,97
19906,control_change,,,,,466,0,1,,64,0,0,,
19920,note_off,,,,,14,0,1,,,,0,58,64
19920,note_on,,,,,0,0,1,,,,0,58,63
19920,note_on,,,,,0,0,1,,,,0,63,63
19920,note_on,,,,,0,0,1,,,,0,67,63
19920,set_tempo,,,,,480,1,0,263158,,,,,
19920,note_off,,,,,0,0,1,,,,0,63,64
19920,note_off,,,,,0,0,2,,,,0,51,64
19920,note_off,,,,,0,0,1,,,,0,70,64
19920,note_off,,,,,480,0,2,,,,0,55,64
19920,note_off,,,,,0,0,2,,,,0,43,64
19920,note_on,,,,,0,0,2,,,,0,39,67
19920,note_on,,,,,0,0,2,,,,0,51,67
20100,note_off,,,,,0,0,1,,,,0,67,64
20100,note_off,,,,,0,0,1,,,,0,63,64
20100,note_off,,,,,180,0,2,,,,0,51,64
20100,set_tempo,,,,,180,1,0,384615,,,,,
20100,note_off,,,,,180,0,1,,,,0,58,64
20100,note_off,,,,,0,0,2,,,,0,39,64
20160,note_on,,,,,60,0,1,,,,0,91,57
20160,note_on,,,,,60,0,2,,,,0,79,52
20160,set_tempo,,,,,60,1,0,271493,,,,,
20280,note_off,,,,,120,0,2,,,,0,79,64
20280,note_on,,,,,0,0,2,,,,0,75,44
20280,note_on,,,,,0,0,1,,,,0,87,44
20280,note_off,,,,,120,0,1,,,,0,91,64
20370,note_off,,,,,90,0,2,,,,0,75,64
20370,note_off,,,,,90,0,1,,,,0,87,64
20400,note_on,,,,,30,0,2,,,,0,79,53
20400,control_change,,,,,0,0,1,,64,96,0,,
20400,note_on,,,,,30,0,1,,,,0,91,53
20520,note_off,,,,,120,0,2,,,,0,79,64
20520,note_off,,,,,120,0,1,,,,0,91,64
20520,note_on,,,,,0,0,1,,,,0,87,58
20520,note_on,,,,,0,0,2,,,,0,75,58
20640,note_on,,,,,0,0,2,,,,0,70,66
20640,note_off,,,,,120,0,2,,,,0,75,64
20640,note_off,,,,,120,0,1,,,,0,87,64
20640,note_on,,,,,0,0,1,,,,0,82,66
20760,note_on,,,,,0,0,2,,,,0,67,75
20760,note_off,,,,,120,0,2,,,,0,70,64
20760,note_on,,,,,0,0,1,,,,0,79,75
20760,note_off,,,,,120,0,1,,,,0,82,64
20850,note_off,,,,,90,0,2,,,,0,67,64
20850,note_off,,,,,90,0,1,,,,0,79,64
20860,control_change,,,,,10,0,1,,64,0,0,,
20880,note_on,,,,,0,0,1,,,,0,77,104
20880,note_on,,,,,0,0,2,,,,0,62,104
20880,note_on,,,,,0,0,2,,,,0,65,104
20880,note_on,,,,,20,0,1,,,,0,79,104
20880,note_on,,,,,0,0,1,,,,0,74,104
20880,control_change,,,,,0,0,1,,64,96,0,,
20880,set_tempo,,,,,720,1,0,310881,,,,,
20880,note_on,,,,,30,0,2,,,,0,67,104
21352,control_change,,,,,472,0,1,,64,0,0,,
21360,note_off,,,,,8,0,1,,,,0,74,64
21360,note_on,,,,,0,0,1,,,,0,79,63
21360,note_off,,,,,0,0,1,,,,0,79,64
21360,note_off,,,,,0,0,1,,,,0,77,64
21360,note_on,,,,,0,0,1,,,,0,74,63
21360,note_on,,,,,0,0,2,,,,0,62,63
21360,note_on,,,,,0,0,2,,,,0,55,63
21360,note_on,,,,,0,0,1,,,,0,67,63
21360,note_off,,,,,0,0,2,,,,0,62,64
21360,note_off,,,,,480,0,2,,,,0,65,64
21360,set_tempo,,,,,480,1,0,263158,,,,,
21360,note_off,,,,,0,0,2,,,,0,67,64
21540,note_off,,,,,0,0,2,,,,0,55,64
21540,note_off,,,,,0,0,1,,,,0,79,64
21540,note_off,,,,,0,0,1,,,,0,74,64
21540,note_off,,,,,180,0,1,,,,0,67,64
21540,set_tempo,,,,,180,1,0,387097,,,,,
21540,note_off,,,,,180,0,2,,,,0,62,64
21600,note_on,,,,,60,0,1,,,,0,67,119
21600,note_on,,,,,0,0,1,,,,0,60,119
21600,note_on,,,,,0,0,1,,,,0,55,119
21600,control_change,,,,,0,0,1,,64,96,0,,
21600,note_on,,,,,0,0,2,,,,0,67,118
21600,note_on,,,,,0,0,2,,,,0,51,118
21600,note_on,,,,,60,0,2,,,,0,39,118
21600,set_tempo,,,,,60,1,0,310881,,,,,
22072,control_change,,,,,472,0,1,,64,0,0,,
22080,set_tempo,,,,,480,1,0,263158,,,,,
22080,note_off,,,,,8,0,1,,,,0,55,64
22080,note_off,,,,,0,0,1,,,,0,60,64
22080,note_off,,,,,0,0,1,,,,0,67,64
22080,note_on,,,,,0,0,1,,,,0,60,100
22080,note_on,,,,,0,0,1,,,,0,55,100
22080,note_on,,,,,0,0,1,,,,0,63,100
22080,note_off,,,,,480,0,2,,,,0,67,64
22080,note_on,,,,,0,0,2,,,,0,48,101
22080,note_on,,,,,0,0,2,,,,0,36,101
22080,note_off,,,,,0,0,2,,,,0,39,64
22080,note_off,,,,,0,0,2,,,,0,51,64
22260,note_off,,,,,0,0,2,,,,0,36,64
22260,set_tempo,,,,,180,1,0,387097,,,,,
22260,note_off,,,,,0,0,1,,,,0,63,64
22260,note_off,,,,,0,0,1,,,,0,60,64
22260,note_off,,,,,180,0,1,,,,0,55,64
22260,note_off,,,,,180,0,2,,,,0,48,64
22320,note_on,,,,,60,0,1,,,,0,79,99
22320,note_on,,,,,60,0,2,,,,0,67,87
22330,set_tempo,,,,,70,1,0,276498,,,,,
22420,set_tempo,,,,,90,1,0,275229,,,,,
22440,note_on,,,,,0,0,2,,,,0,63,63
22440,note_off,,,,,120,0,1,,,,0,79,64
22440,note_on,,,,,0,0,1,,,,0,75,58
22440,note_off,,,,,120,0,2,,,,0,67,64
22500,set_tempo,,,,,80,1,0,273973,,,,,
22530,note_off,,,,,90,0,1,,,,0,75,64
22530,note_off,,,,,90,0,2,,,,0,63,64
22550,set_tempo,,,,,50,1,0,272727,,,,,
22560,control_change,,,,,0,0,1,,64,96,0,,
22560,note_on,,,,,30,0,2,,,,0,67,68
22560,note_on,,,,,30,0,1,,,,0,79,66
22560,control_change,,,,,0,0,2,,64,96,0,,
22590,set_tempo,,,,,40,1,0,271493,,,,,
22680,note_off,,,,,120,0,2,,,,0,67,64
22680,note_on,,,,,0,0,2,,,,0,63,78
22680,note_on,,,,,0,0,1,,,,0,75,75
22680,note_off,,,,,120,0,1,,,,0,79,64
22700,set_tempo,,,,,110,1,0,270270,,,,,
22800,note_on,,,,,0,0,1,,,,0,72,82
22800,note_off,,,,,120,0,2,,,,0,63,64
22800,note_off,,,,,120,0,1,,,,0,75,64
22800,note_on,,,,,0,0,2,,,,0,60,85
22840,set_tempo,,,,,140,1,0,269058,,,,,
22920,note_off,,,,,120,0,2,,,,0,60,64
22920,note_on,,,,,0,0,2,,,,0,55,91
22920,note_off,,,,,120,0,1,,,,0,72,64
22920,note_on,,,,,0,0,1,,,,0,67,92
22930,set_tempo,,,,,90,1,0,266667,,,,,
23000,set_tempo,,,,,70,1,0,327869,,,,,
23010,note_off,,,,,90,0,2,,,,0,55,64
23010,note_off,,,,,90,0,1,,,,0,67,64
23020,control_change,,,,,10,0,2,,64,0,0,,
23020,control_change,,,,,10,0,1,,64,0,0,,
23030,set_tempo,,,,,30,1,0,265487,,,,,
23040,note_on,,,,,20,0,2,,,,0,56,99
23040,note_on,,,,,20,0,1,,,,0,68,100
23150,set_tempo,,,,,120,1,0,264317,,,,,
23160,note_off,,,,,120,0,2,,,,0,56,64
23160,note_off,,,,,120,0,1,,,,0,68,64
23160,note_on,,,,,0,0,2,,,,0,51,84
23160,note_on,,,,,0,0,1,,,,0,63,81
23250,note_off,,,,,90,0,1,,,,0,63,64
23250,note_off,,,,,90,0,2,,,,0,51,64
23280,control_change,,,,,0,0,1,,64,96,0,,
23280,control_change,,,,,0,0,2,,64,96,0,,
23280,note_on,,,,,30,0,2,,,,0,56,91
23280,note_on,,,,,30,0,1,,,,0,68,89
23300,set_tempo,,,,,150,1,0,263158,,,,,
23370,set_tempo,,,,,70,1,0,262009,,,,,
23400,note_on,,,,,0,0,2,,,,0,51,98
23400,note_on,,,,,0,0,1,,,,0,63,98
23400,note_off,,,,,120,0,1,,,,0,68,64
23400,note_off,,,,,120,0,2,,,,0,56,64
23480,set_tempo,,,,,110,1,0,259740,,,,,
23520,note_on,,,,,0,0,1,,,,0,60,106
23520,note_off,,,,,120,0,1,,,,0,63,64
23520,note_on,,,,,0,0,2,,,,0,48,102
23520,note_off,,,,,120,0,2,,,,0,51,64
23570,set_tempo,,,,,90,1,0,258621,,,,,
23640,note_on,,,,,0,0,2,,,,0,44,109
23640,note_off,,,,,120,0,1,,,,0,60,64
23640,note_on,,,,,0,0,1,,,,0,56,112
23640,note_off,,,,,120,0,2,,,,0,48,64
23720,set_tempo,,,,,150,1,0,310881,,,,,
23730,note_off,,,,,90,0,1,,,,0,56,64
23730,note_off,,,,,90,0,2,,,,0,44,64
23740,control_change,,,,,10,0,1,,64,0,0,,
23740,control_change,,,,,10,0,2,,64,0,0,,
23750,set_tempo,,,,,30,1,0,258621,,,,,
23760,control_change,,,,,0,0,1,,7,79,0,,
23760,note_on,,,,,20,0,2,,,,0,44,118
23760,note_on,,,,,20,0,1,,,,0,56,120
23766,control_change,,,,,6,0,1,,7,77,0,,
23770,set_tempo,,,,,20,1,0,266667,,,,,
23780,set_tempo,,,,,10,1,0,262009,,,,,
23810,set_tempo,,,,,30,1,0,263158,,,,,
23900,set_tempo,,,,,90,1,0,264317,,,,,
23970,note_off,,,,,204,0,1,,,,0,56,64
23970,note_off,,,,,210,0,2,,,,0,44,64
24000,note_on,,,,,30,0,1,,,,0,56,79
24000,note_on,,,,,30,0,2,,,,0,44,78
24026,control_change,,,,,26,0,1,,7,78,0,,
24080,set_tempo,,,,,180,1,0,265487,,,,,
24106,control_change,,,,,80,0,1,,7,79,0,,
24112,control_change,,,,,6,0,1,,7,80,0,,
24132,control_change,,,,,20,0,1,,7,81,0,,
24180,note_off,,,,,48,0,1,,,,0,56,64
24180,control_change,,,,,0,0,1,,7,82,0,,
24180,note_off,,,,,180,0,2,,,,0,44,64
24220,set_tempo,,,,,140,1,0,266667,,,,,
24232,control_change,,,,,52,0,1,,7,83,0,,
24240,note_on,,,,,60,0,2,,,,0,44,88
24240,note_on,,,,,8,0,1,,,,0,56,87
24272,control_change,,,,,32,0,1,,7,84,0,,
24312,control_change,,,,,40,0,1,,7,85,0,,
24326,control_change,,,,,14,0,1,,7,86,0,,
24352,control_change,,,,,26,0,1,,7,87,0,,
24366,control_change,,,,,14,0,1,,7,88,0,,
24380,control_change,,,,,14,0,1,,7,89,0,,
24420,control_change,,,,,0,0,1,,7,90,0,,
24420,note_off,,,,,180,0,2,,,,0,44,64
24420,note_off,,,,,40,0,1,,,,0,56,64
24440,set_tempo,,,,,220,1,0,269058,,,,,
24452,control_change,,,,,32,0,1,,7,91,0,,
24466,control_change,,,,,14,0,1,,7,92,0,,
24480,note_on,,,,,14,0,1,,,,0,56,101
24480,control_change,,,,,0,0,1,,7,93,0,,
24480,note_on,,,,,60,0,2,,,,0,44,99
24526,control_change,,,,,46,0,1,,7,94,0,,
24560,set_tempo,,,,,120,1,0,270270,,,,,
24560,control_change,,,,,34,0,1,,7,95,0,,
24586,control_change,,,,,26,0,1,,7,96,0,,
24612,control_change,,,,,26,0,1,,7,97,0,,
24646,control_change,,,,,34,0,1,,7,98,0,,
24660,note_off,,,,,14,0,1,,,,0,56,64
24660,note_off,,,,,180,0,2,,,,0,44,64
24680,set_tempo,,,,,120,1,0,271493,,,,,
24686,control_change,,,,,26,0,1,,7,99,0,,
24720,note_on,,,,,34,0,1,,,,0,56,111
24720,control_change,,,,,0,0,1,,7,100,0,,
24720,note_on,,,,,60,0,2,,,,0,44,109
24766,control_change,,,,,46,0,1,,7,101,0,,
24800,control_change,,,,,34,0,1,,7,102,0,,
24860,set_tempo,,,,,180,1,0,272727,,,,,
24880,control_change,,,,,80,0,1,,7,103,0,,
24900,note_off,,,,,180,0,2,,,,0,44,64
24900,note_off,,,,,20,0,1,,,,0,56,64
24932,control_change,,,,,32,0,1,,7,104,0,,
24960,note_on,,,,,60,0,2,,,,0,44,122
24960,note_on,,,,,28,0,1,,,,0,56,120
25000,control_change,,,,,40,0,1,,7,105,0,,
25012,control_change,,,,,12,0,1,,7,106,0,,
25140,note_off,,,,,128,0,1,,,,0,56,64
25140,note_off,,,,,180,0,2,,,,0,44,64
25166,control_change,,,,,26,0,1,,7,107,0,,
25200,set_tempo,,,,,340,1,0,275229,,,,,
25200,control_change,,,,,0,0,1,,64,95,0,,
25200,note_on,,,,,0,0,1,,,,0,58,127
25200,note_on,,,,,34,0,1,,,,0,61,127
25200,note_on,,,,,0,0,1,,,,0,55,127
25200,note_on,,,,,60,0,2,,,,0,52,127
25200,note_on,,,,,0,0,2,,,,0,44,127
25212,control_change,,,,,12,0,1,,7,108,0,,
25910,set_tempo,,,,,710,1,0,327869,,,,,
25912,control_change,,,,,700,0,1,,64,0,0,,
25920,control_change,,,,,0,0,1,,7,79,0,,
25920,note_on,,,,,0,0,1,,,,0,60,75
25920,note_off,,,,,0,0,1,,,,0,61,64
25920,note_off,,,,,0,0,1,,,,0,58,64
25920,note_off,,,,,8,0,1,,,,0,55,64
25920,note_on,,,,,0,0,1,,,,0,56,75
25920,note_on,,,,,0,0,2,,,,0,51,77
25920,note_on,,,,,0,0,2,,,,0,44,77
25920,note_off,,,,,0,0,2,,,,0,52,64
25920,note_off,,,,,720,0,2,,,,0,44,64
26340,note_off,,,,,0,0,2,,,,0,44,64
26340,note_off,,,,,420,0,1,,,,0,56,64
26340,note_off,,,,,0,0,1,,,,0,60,64
26340,note_off,,,,,420,0,2,,,,0,51,64
26400,note_on,,,,,0,0,1,,,,0,56,63
26400,note_on,,,,,0,0,1,,,,0,63,63
26400,note_on,,,,,60,0,1,,,,0,72,63
26580,note_off,,,,,180,0,1,,,,0,56,64
26580,note_off,,,,,0,0,1,,,,0,63,64
26580,note_off,,,,,0,0,1,,,,0,72,64
26640,note_on,,,,,60,0,1,,,,0,72,53
26640,note_on,,,,,0,0,1,,,,0,55,53
26640,note_on,,,,,0,0,1,,,,0,63,53
26640,control_change,,,,,0,0,1,,64,95,0,,
26640,note_on,,,,,0,0,1,,,,0,67,53
26650,set_tempo,,,,,740,1,0,384615,,,,,
27300,note_off,,,,,660,0,1,,,,0,55,64
27300,note_off,,,,,0,0,1,,,,0,63,64
27300,note_off,,,,,0,0,1,,,,0,72,64
27300,note_off,,,,,0,0,1,,,,0,67,64
27352,control_change,,,,,52,0,1,,64,0,0,,
27360,note_on,,,,,0,0,1,,,,0,55,34
27360,note_on,,,,,0,0,1,,,,0,62,34
27360,note_on,,,,,0,0,1,,,,0,67,34
27360,note_on,,,,,8,0,1,,,,0,71,34
27360,control_change,,,,,0,0,1,,64,95,0,,
27840,set_tempo,,,,,1190,1,0,454545,,,,,
28020,note_off,,,,,0,0,1,,,,0,62,64
28020,note_off,,,,,0,0,1,,,,0,67,64
28020,note_off,,,,,660,0,1,,,,0,55,64
28020,note_off,,,,,0,0,1,,,,0,71,64
28066,control_change,,,,,46,0,1,,64,0,0,,
28080,control_change,,,,,0,0,1,,64,95,0,,
28080,set_tempo,,,,,240,1,0,338983,,,,,
28080,note_on,,,,,1740,0,2,,,,0,48,28
28080,note_on,,,,,14,0,1,,,,0,75,28
28080,note_on,,,,,0,0,2,,,,0,51,28
28090,set_tempo,,,,,10,1,0,310881,,,,,
28160,set_tempo,,,,,70,1,0,309278,,,,,
28200,note_off,,,,,120,0,1,,,,0,75,64
28200,note_on,,,,,0,0,1,,,,0,74,27
28260,set_tempo,,,,,100,1,0,307692,,,,,
28260,note_off,,,,,0,0,2,,,,0,48,64
28260,note_off,,,,,180,0,2,,,,0,51,64
28306,control_change,,,,,106,0,1,,64,0,0,,
28320,note_on,,,,,0,0,2,,,,0,53,30
28320,control_change,,,,,0,0,1,,64,95,0,,
28320,note_on,,,,,0,0,1,,,,0,75,28
28320,note_off,,,,,14,0,1,,,,0,74,64
28320,note_on,,,,,0,0,2,,,,0,50,30
28320,note_on,,,,,60,0,2,,,,0,48,30
28440,note_on,,,,,0,0,1,,,,0,77,31
28440,note_off,,,,,120,0,1,,,,0,75,64
28440,set_tempo,,,,,180,1,0,306122,,,,,
28500,note_off,,,,,0,0,2,,,,0,50,64
28500,note_off,,,,,180,0,2,,,,0,53,64
28500,set_tempo,,,,,60,1,0,304569,,,,,
28500,note_off,,,,,0,0,2,,,,0,48,64
28552,control_change,,,,,112,0,1,,64,0,0,,
28560,note_off,,,,,8,0,1,,,,0,77,64
28560,note_on,,,,,0,0,2,,,,0,51,34
28560,note_on,,,,,60,0,2,,,,0,48,34
28560,control_change,,,,,0,0,1,,64,96,0,,
28560,note_on,,,,,0,0,2,,,,0,55,34
28560,note_on,,,,,0,0,1,,,,0,79,34
28670,set_tempo,,,,,170,1,0,301508,,,,,
28680,note_off,,,,,120,0,1,,,,0,79,64
28680,note_on,,,,,0,0,1,,,,0,77,44
28740,note_off,,,,,0,0,2,,,,0,48,64
28740,note_off,,,,,180,0,2,,,,0,55,64
28740,note_off,,,,,0,0,2,,,,0,51,64
28792,control_change,,,,,112,0,1,,64,0,0,,
28800,control_change,,,,,0,0,1,,64,96,0,,
28800,note_on,,,,,0,0,1,,,,0,75,50
28800,note_off,,,,,8,0,1,,,,0,77,64
28800,note_on,,,,,60,0,2,,,,0,48,39
28800,note_on,,,,,0,0,2,,,,0,51,39
28800,note_on,,,,,0,0,2,,,,0,55,39
28820,set_tempo,,,,,150,1,0,298507,,,,,
28840,set_tempo,,,,,20,1,0,297030,,,,,
28920,note_on,,,,,0,0,1,,,,0,74,46
28920,note_off,,,,,120,0,1,,,,0,75,64
28970,set_tempo,,,,,130,1,0,295567,,,,,
29020,set_tempo,,,,,50,1,0,294118,,,,,
29040,note_on,,,,,0,0,1,,,,0,75,39
29040,note_off,,,,,120,0,1,,,,0,74,64
29090,set_tempo,,,,,70,1,0,292683,,,,,
29160,note_off,,,,,120,0,1,,,,0,75,64
29160,note_on,,,,,0,0,1,,,,0,77,35
29220,set_tempo,,,,,130,1,0,291262,,,,,
29272,control_change,,,,,112,0,1,,64,0,0,,
29280,note_off,,,,,8,0,1,,,,0,77,64
29280,note_off,,,,,480,0,2,,,,0,55,64
29280,note_off,,,,,0,0,2,,,,0,51,64
29280,note_off,,,,,0,0,2,,,,0,48,64
29280,note_on,,,,,0,0,2,,,,0,47,33
29280,note_on,,,,,0,0,2,,,,0,50,33
29280,note_on,,,,,0,0,1,,,,0,75,39
29280,control_change,,,,,0,0,1,,64,96,0,,
29280,note_on,,,,,0,0,2,,,,0,55,33
29310,set_tempo,,,,,90,1,0,289855,,,,,
29380,set_tempo,,,,,70,1,0,285714,,,,,
29400,note_off,,,,,120,0,1,,,,0,75,64
29400,note_on,,,,,0,0,1,,,,0,74,46
29460,note_off,,,,,180,0,2,,,,0,55,64
29460,note_off,,,,,0,0,2,,,,0,50,64
29460,note_off,,,,,0,0,2,,,,0,47,64
29470,set_tempo,,,,,90,1,0,284360,,,,,
29512,control_change,,,,,112,0,1,,64,0,0,,
29520,note_off,,,,,8,0,1,,,,0,74,64
29520,control_change,,,,,0,0,1,,64,96,0,,
29520,note_on,,,,,0,0,2,,,,0,55,44
29520,note_on,,,,,0,0,1,,,,0,72,49
29520,set_tempo,,,,,50,1,0,283019,,,,,
29520,note_on,,,,,0,0,2,,,,0,51,44
29520,note_on,,,,,60,0,2,,,,0,48,44
29620,set_tempo,,,,,100,1,0,281690,,,,,
29640,note_on,,,,,0,0,1,,,,0,71,50
29640,note_off,,,,,120,0,1,,,,0,72,64
29720,set_tempo,,,,,100,1,0,280374,,,,,
29760,note_off,,,,,120,0,1,,,,0,71,64
29760,note_on,,,,,0,0,1,,,,0,72,41
29780,set_tempo,,,,,60,1,0,281690,,,,,
29820,set_tempo,,,,,40,1,0,283019,,,,,
29880,note_on,,,,,0,0,1,,,,0,74,38
29880,note_off,,,,,120,0,1,,,,0,72,64
29890,set_tempo,,,,,70,1,0,284360,,,,,
29992,control_change,,,,,112,0,1,,64,0,0,,
30000,note_off,,,,,8,0,1,,,,0,74,64
30000,note_on,,,,,0,0,1,,,,0,75,37
30000,control_change,,,,,0,0,1,,64,96,0,,
30000,note_on,,,,,0,0,2,,,,0,50,34
30000,note_on,,,,,0,0,2,,,,0,55,34
30000,note_off,,,,,480,0,2,,,,0,55,64
30000,note_off,,,,,0,0,2,,,,0,51,64
30000,note_off,,,,,0,0,2,,,,0,48,64
30000,note_on,,,,,0,0,2,,,,0,43,34
30080,set_tempo,,,,,190,1,0,285714,,,,,
30120,note_off,,,,,120,0,1,,,,0,75,64
30120,note_on,,,,,0,0,1,,,,0,77,40
30150,set_tempo,,,,,70,1,0,289855,,,,,
30180,note_off,,,,,0,0,2,,,,0,43,64
30180,note_off,,,,,0,0,2,,,,0,50,64
30180,note_off,,,,,180,0,2,,,,0,55,64
30190,set_tempo,,,,,40,1,0,291262,,,,,
30230,set_tempo,,,,,40,1,0,292683,,,,,
30232,control_change,,,,,112,0,1,,64,0,0,,
30240,note_on,,,,,0,0,2,,,,0,53,39
30240,note_on,,,,,0,0,2,,,,0,50,39
30240,control_change,,,,,0,0,1,,64,96,0,,
30240,note_on,,,,,0,0,1,,,,0,79,42
30240,note_off,,,,,8,0,1,,,,0,77,64
30240,note_on,,,,,60,0,2,,,,0,55,39
30270,set_tempo,,,,,40,1,0,294118,,,,,
30330,set_tempo,,,,,60,1,0,295567,,,,,
30350,set_tempo,,,,,20,1,0,297030,,,,,
30360,note_on,,,,,0,0,1,,,,0,81,45
30360,note_off,,,,,120,0,1,,,,0,79,64
30370,set_tempo,,,,,20,1,0,298507,,,,,
30380,set_tempo,,,,,10,1,0,301508,,,,,
30410,set_tempo,,,,,30,1,0,303030,,,,,
30420,set_tempo,,,,,10,1,0,307692,,,,,
30420,note_off,,,,,0,0,2,,,,0,53,64
30420,note_off,,,,,0,0,2,,,,0,55,64
30420,note_off,,,,,180,0,2,,,,0,50,64
30460,set_tempo,,,,,40,1,0,314136,,,,,
30470,set_tempo,,,,,10,1,0,315789,,,,,
30472,control_change,,,,,112,0,1,,64,0,0,,
30480,note_on,,,,,0,0,2,,,,0,53,36
30480,note_on,,,,,0,0,2,,,,0,50,36
30480,note_on,,,,,60,0,2,,,,0,57,36
30480,note_off,,,,,8,0,1,,,,0,81,64
30480,note_on,,,,,0,0,1,,,,0,84,47
30480,control_change,,,,,0,0,1,,64,95,0,,
30490,set_tempo,,,,,20,1,0,322581,,,,,
30520,set_tempo,,,,,30,1,0,324324,,,,,
30540,set_tempo,,,,,20,1,0,327869,,,,,
30550,set_tempo,,,,,10,1,0,333333,,,,,
30570,set_tempo,,,,,20,1,0,335196,,,,,
30580,set_tempo,,,,,10,1,0,342857,,,,,
30590,set_tempo,,,,,10,1,0,344828,,,,,
30600,set_tempo,,,,,10,1,0,346821,,,,,
30600,note_off,,,,,120,0,1,,,,0,84,64
30600,note_on,,,,,0,0,1,,,,0,83,41
30620,set_tempo,,,,,20,1,0,348837,,,,,
30630,set_tempo,,,,,10,1,0,350877,,,,,
30650,set_tempo,,,,,20,1,0,352941,,,,,
30660,set_tempo,,,,,10,1,0,355030,,,,,
30660,note_off,,,,,0,0,2,,,,0,57,64
30660,note_off,,,,,180,0,2,,,,0,53,64
30660,note_off,,,,,0,0,2,,,,0,50,64
30680,set_tempo,,,,,20,1,0,365854,,,,,
30690,set_tempo,,,,,10,1,0,368098,,,,,
30710,set_tempo,,,,,20,1,0,370370,,,,,
30712,control_change,,,,,112,0,1,,64,0,0,,
30720,note_off,,,,,8,0,1,,,,0,83,64
30720,note_on,,,,,0,0,1,,,,0,81,34
30720,control_change,,,,,0,0,1,,64,95,0,,
30720,note_on,,,,,60,0,2,,,,0,59,32
30720,note_on,,,,,0,0,2,,,,0,53,32
30720,note_on,,,,,0,0,2,,,,0,50,32
30730,set_tempo,,,,,20,1,0,372671,,,,,
30740,set_tempo,,,,,10,1,0,377358,,,,,
30760,set_tempo,,,,,20,1,0,379747,,,,,
30780,set_tempo,,,,,20,1,0,384615,,,,,
30790,set_tempo,,,,,10,1,0,387097,,,,,
30810,set_tempo,,,,,20,1,0,389610,,,,,
30820,set_tempo,,,,,10,1,0,392157,,,,,
30830,set_tempo,,,,,10,1,0,397351,,,,,
30840,note_on,,,,,0,0,1,,,,0,79,27
30840,note_off,,,,,120,0,1,,,,0,81,64
30850,set_tempo,,,,,20,1,0,400000,,,,,
30870,set_tempo,,,,,20,1,0,402685,,,,,
30880,set_tempo,,,,,10,1,0,405405,,,,,
30900,note_off,,,,,0,0,2,,,,0,59,64
30900,note_off,,,,,0,0,2,,,,0,53,64
30900,note_off,,,,,180,0,2,,,,0,50,64
30900,set_tempo,,,,,20,1,0,408163,,,,,
30910,set_tempo,,,,,10,1,0,413793,,,,,
30950,set_tempo,,,,,40,1,0,416667,,,,,
30952,control_change,,,,,112,0,1,,64,0,0,,
30960,note_off,,,,,8,0,1,,,,0,79,64
30980,set_tempo,,,,,30,1,0,294118,,,,,
31680,note_on,,,,,720,0,1,,,,0,80,45
31680,control_change,,,,,0,0,1,,64,95,0,,
31680,note_on,,,,,780,0,2,,,,0,72,35
31680,note_on,,,,,0,0,2,,,,0,60,35
31680,note_on,,,,,0,0,2,,,,0,63,35
31770,set_tempo,,,,,790,1,0,292683,,,,,
31800,note_off,,,,,120,0,1,,,,0,80,64
31800,note_on,,,,,0,0,1,,,,0,79,41
31860,note_off,,,,,0,0,2,,,,0,72,64
31860,note_off,,,,,0,0,2,,,,0,60,64
31860,note_off,,,,,180,0,2,,,,0,63,64
31870,set_tempo,,,,,100,1,0,291262,,,,,
31906,control_change,,,,,106,0,1,,64,0,0,,
31920,control_change,,,,,0,0,1,,64,95,0,,
31920,note_on,,,,,0,0,2,,,,0,70,42
31920,note_on,,,,,60,0,2,,,,0,63,42
31920,note_on,,,,,0,0,1,,,,0,80,41
31920,note_on,,,,,0,0,2,,,,0,60,42
31920,note_off,,,,,14,0,1,,,,0,79,64
31950,set_tempo,,,,,80,1,0,289855,,,,,
32030,set_tempo,,,,,80,1,0,285714,,,,,
32040,note_on,,,,,0,0,1,,,,0,82,44
32040,note_off,,,,,120,0,1,,,,0,80,64
32090,set_tempo,,,,,60,1,0,284360,,,,,
32100,note_off,,,,,0,0,2,,,,0,63,64
32100,note_off,,,,,0,0,2,,,,0,70,64
32100,note_off,,,,,180,0,2,,,,0,60,64
32152,control_change,,,,,112,0,1,,64,0,0,,
32160,note_on,,,,,0,0,2,,,,0,63,56
32160,note_on,,,,,0,0,2,,,,0,60,56
32160,note_on,,,,,60,0,2,,,,0,68,56
32160,note_off,,,,,8,0,1,,,,0,82,64
32160,note_on,,,,,0,0,1,,,,0,84,51
32160,control_change,,,,,0,0,1,,64,96,0,,
32280,note_on,,,,,0,0,1,,,,0,85,56
32280,note_off,,,,,120,0,1,,,,0,84,64
32300,set_tempo,,,,,210,1,0,283019,,,,,
32340,note_off,,,,,0,0,2,,,,0,68,64
32340,note_off,,,,,180,0,2,,,,0,63,64
32340,note_off,,,,,0,0,2,,,,0,60,64
32360,set_tempo,,,,,60,1,0,281690,,,,,
32392,control_change,,,,,112,0,1,,64,0,0,,
32400,note_on,,,,,0,0,2,,,,0,60,62
32400,note_on,,,,,0,0,2,,,,0,63,62
32400,note_on,,,,,60,0,2,,,,0,68,62
32400,note_on,,,,,0,0,1,,,,0,84,61
32400,note_off,,,,,8,0,1,,,,0,85,64
32400,control_change,,,,,0,0,1,,64,96,0,,
32420,set_tempo,,,,,60,1,0,280374,,,,,
32520,note_on,,,,,0,0,1,,,,0,85,65
32520,note_off,,,,,120,0,1,,,,0,84,64
32560,set_tempo,,,,,140,1,0,279070,,,,,
32640,note_on,,,,,0,0,1,,,,0,87,69
32640,note_off,,,,,120,0,1,,,,0,85,64
32650,set_tempo,,,,,90,1,0,276498,,,,,
32760,note_off,,,,,120,0,1,,,,0,87,64
32760,note_on,,,,,0,0,1,,,,0,89,72
32790,set_tempo,,,,,140,1,0,275229,,,,,
32872,control_change,,,,,112,0,1,,64,0,0,,
32880,note_on,,,,,0,0,2,,,,0,63,47
32880,note_off,,,,,480,0,2,,,,0,63,64
32880,note_off,,,,,0,0,2,,,,0,60,64
32880,note_on,,,,,0,0,1,,,,0,91,75
32880,note_off,,,,,8,0,1,,,,0,89,64
32880,control_change,,,,,0,0,1,,64,96,0,,
32880,note_off,,,,,0,0,2,,,,0,68,64
32880,note_on,,,,,0,0,2,,,,0,60,47
32950,set_tempo,,,,,160,1,0,273973,,,,,
33000,note_off,,,,,120,0,1,,,,0,91,64
33000,note_on,,,,,0,0,1,,,,0,92,78
33040,set_tempo,,,,,90,1,0,272727,,,,,
33060,note_off,,,,,180,0,2,,,,0,63,64
33060,note_off,,,,,0,0,2,,,,0,60,64
33112,control_change,,,,,112,0,1,,64,0,0,,
33120,note_on,,,,,60,0,2,,,,0,58,64
33120,note_on,,,,,0,0,2,,,,0,63,64
33120,note_on,,,,,0,0,2,,,,0,67,64
33120,note_on,,,,,0,0,1,,,,0,94,80
33120,control_change,,,,,0,0,1,,64,96,0,,
33120,note_off,,,,,8,0,1,,,,0,92,64
33240,note_off,,,,,120,0,1,,,,0,94,64
33240,note_on,,,,,0,0,1,,,,0,91,75
33360,note_on,,,,,0,0,1,,,,0,87,64
33360,note_off,,,,,120,0,1,,,,0,91,64
33420,set_tempo,,,,,380,1,0,273973,,,,,
33480,note_on,,,,,0,0,1,,,,0,84,59
33480,note_off,,,,,120,0,1,,,,0,87,64
33490,set_tempo,,,,,70,1,0,275229,,,,,
33550,set_tempo,,,,,60,1,0,276498,,,,,
33570,set_tempo,,,,,20,1,0,279070,,,,,
33592,control_change,,,,,112,0,1,,64,0,0,,
33600,note_off,,,,,480,0,2,,,,0,67,64
33600,note_off,,,,,0,0,2,,,,0,63,64
33600,note_off,,,,,0,0,2,,,,0,58,64
33600,note_off,,,,,8,0,1,,,,0,84,64
33600,note_on,,,,,0,0,2,,,,0,63,51
33600,note_on,,,,,0,0,2,,,,0,58,51
33600,note_on,,,,,0,0,1,,,,0,82,51
33600,control_change,,,,,0,0,1,,64,96,0,,
33620,set_tempo,,,,,50,1,0,280374,,,,,
33640,set_tempo,,,,,20,1,0,281690,,,,,
33680,set_tempo,,,,,40,1,0,283019,,,,,
33720,note_on,,,,,0,0,1,,,,0,79,46
33720,note_off,,,,,120,0,1,,,,0,82,64
33720,set_tempo,,,,,40,1,0,285714,,,,,
33780,note_off,,,,,0,0,2,,,,0,63,64
33780,note_off,,,,,180,0,2,,,,0,58,64
33820,set_tempo,,,,,100,1,0,289855,,,,,
33832,control_change,,,,,112,0,1,,64,0,0,,
33840,note_on,,,,,60,0,2,,,,0,60,39
33840,note_off,,,,,8,0,1,,,,0,79,64
33840,note_on,,,,,0,0,1,,,,0,80,39
33840,control_change,,,,,0,0,1,,64,96,0,,
33840,note_on,,,,,0,0,2,,,,0,53,39
33940,set_tempo,,,,,120,1,0,291262,,,,,
33960,note_off,,,,,120,0,1,,,,0,80,64
33960,note_on,,,,,0,0,1,,,,0,72,45
33960,set_tempo,,,,,20,1,0,292683,,,,,
34020,note_off,,,,,180,0,2,,,,0,53,64
34020,note_off,,,,,0,0,2,,,,0,60,64
34020,set_tempo,,,,,60,1,0,294118,,,,,
34040,set_tempo,,,,,20,1,0,298507,,,,,
34072,control_change,,,,,112,0,1,,64,0,0,,
34080,note_on,,,,,60,0,2,,,,0,64,36
34080,note_on,,,,,0,0,2,,,,0,60,36
34080,note_off,,,,,8,0,1,,,,0,72,64
34080,note_on,,,,,0,0,2,,,,0,55,36
34080,note_on,,,,,0,0,1,,,,0,70,47
34080,control_change,,,,,0,0,1,,64,95,0,,
34120,set_tempo,,,,,80,1,0,304569,,,,,
34200,set_tempo,,,,,80,1,0,306122,,,,,
34200,note_on,,,,,0,0,1,,,,0,79,41
34200,note_off,,,,,120,0,1,,,,0,70,64
34260,set_tempo,,,,,60,1,0,310881,,,,,
34260,note_off,,,,,180,0,2,,,,0,55,64
34260,note_off,,,,,0,0,2,,,,0,60,64
34260,note_off,,,,,0,0,2,,,,0,64,64
34280,set_tempo,,,,,20,1,0,314136,,,,,
34290,set_tempo,,,,,10,1,0,315789,,,,,
34310,set_tempo,,,,,20,1,0,317460,,,,,
34312,control_change,,,,,112,0,1,,64,0,0,,
34320,control_change,,,,,0,0,1,,64,95,0,,
34320,note_on,,,,,60,0,2,,,,0,60,32
34320,note_on,,,,,0,0,2,,,,0,56,32
34320,note_on,,,,,0,0,1,,,,0,77,34
34320,note_off,,,,,8,0,1,,,,0,79,64
34320,note_on,,,,,0,0,2,,,,0,65,32
34330,set_tempo,,,,,20,1,0,320856,,,,,
34340,set_tempo,,,,,10,1,0,322581,,,,,
34360,set_tempo,,,,,20,1,0,324324,,,,,
34380,set_tempo,,,,,20,1,0,331492,,,,,
34390,set_tempo,,,,,10,1,0,333333,,,,,
34410,set_tempo,,,,,20,1,0,338983,,,,,
34420,set_tempo,,,,,10,1,0,342857,,,,,
34430,set_tempo,,,,,10,1,0,344828,,,,,
34440,note_off,,,,,120,0,1,,,,0,77,64
34440,note_on,,,,,0,0,1,,,,0,68,27
34450,set_tempo,,,,,20,1,0,346821,,,,,
34460,set_tempo,,,,,10,1,0,348837,,,,,
34470,set_tempo,,,,,10,1,0,352941,,,,,
34480,set_tempo,,,,,10,1,0,355030,,,,,
34490,set_tempo,,,,,10,1,0,365854,,,,,
34500,note_off,,,,,180,0,2,,,,0,65,64
34500,note_off,,,,,0,0,2,,,,0,56,64
34500,note_off,,,,,0,0,2,,,,0,60,64
34500,set_tempo,,,,,10,1,0,370370,,,,,
34510,set_tempo,,,,,10,1,0,372671,,,,,
34530,set_tempo,,,,,20,1,0,377358,,,,,
34540,set_tempo,,,,,10,1,0,392157,,,,,
34550,set_tempo,,,,,10,1,0,400000,,,,,
34552,control_change,,,,,112,0,1,,64,0,0,,
34560,set_tempo,,,,,10,1,0,405405,,,,,
34560,note_off,,,,,8,0,1,,,,0,68,64
34590,set_tempo,,,,,30,1,0,331492,,,,,
34610,set_tempo,,,,,20,1,0,333333,,,,,
34630,set_tempo,,,,,20,1,0,335196,,,,,
35280,note_on,,,,,780,0,2,,,,0,36,28
35280,note_on,,,,,0,0,2,,,,0,48,28
35280,set_tempo,,,,,650,1,0,331492,,,,,
35280,note_on,,,,,720,0,1,,,,0,67,28
35280,control_change,,,,,0,0,1,,64,95,0,,
35360,set_tempo,,,,,80,1,0,329670,,,,,
35400,note_on,,,,,0,0,1,,,,0,55,27
35400,note_off,,,,,120,0,1,,,,0,67,64
35430,set_tempo,,,,,70,1,0,327869,,,,,
35460,note_off,,,,,180,0,2,,,,0,48,64
35460,note_off,,,,,0,0,2,,,,0,36,64
35470,set_tempo,,,,,40,1,0,324324,,,,,
35506,control_change,,,,,106,0,1,,64,0,0,,
35520,note_on,,,,,0,0,1,,,,0,59,28
35520,control_change,,,,,0,0,1,,64,95,0,,
35520,note_on,,,,,60,0,2,,,,0,43,30
35520,note_on,,,,,0,0,2,,,,0,50,30
35520,note_off,,,,,14,0,1,,,,0,55,64
35550,set_tempo,,,,,80,1,0,322581,,,,,
35590,set_tempo,,,,,40,1,0,320856,,,,,
35640,note_on,,,,,0,0,1,,,,0,65,25
35640,note_off,,,,,120,0,1,,,,0,59,64
35700,note_off,,,,,180,0,2,,,,0,50,64
35700,note_off,,,,,0,0,2,,,,0,43,64
35700,set_tempo,,,,,110,1,0,317460,,,,,
35752,control_change,,,,,112,0,1,,64,0,0,,
35760,note_off,,,,,8,0,1,,,,0,65,64
35760,note_on,,,,,0,0,1,,,,0,63,27
35760,note_on,,,,,60,0,2,,,,0,48,34
35760,note_on,,,,,0,0,2,,,,0,51,34
35760,control_change,,,,,0,0,1,,64,96,0,,
35840,set_tempo,,,,,140,1,0,315789,,,,,
35880,note_off,,,,,120,0,1,,,,0,63,64
35880,note_on,,,,,0,0,1,,,,0,60,28
35900,set_tempo,,,,,60,1,0,314136,,,,,
35940,note_off,,,,,0,0,2,,,,0,48,64
35940,note_off,,,,,180,0,2,,,,0,51,64
35992,control_change,,,,,112,0,1,,64,0,0,,
36000,note_off,,,,,8,0,1,,,,0,60,64
36000,note_on,,,,,0,0,1,,,,0,55,39
36000,control_change,,,,,0,0,1,,64,96,0,,
36000,note_on,,,,,60,0,2,,,,0,43,39
36120,note_off,,,,,120,0,1,,,,0,55,64
36120,note_on,,,,,0,0,1,,,,0,63,34
36240,note_on,,,,,0,0,1,,,,0,60,39
36240,note_off,,,,,120,0,1,,,,0,63,64
36300,set_tempo,,,,,400,1,0,315789,,,,,
36340,set_tempo,,,,,40,1,0,317460,,,,,
36360,note_on,,,,,0,0,1,,,,0,55,35
36360,note_off,,,,,120,0,1,,,,0,60,64
36370,set_tempo,,,,,30,1,0,320856,,,,,
36450,set_tempo,,,,,80,1,0,322581,,,,,
36472,control_change,,,,,112,0,1,,64,0,0,,
36480,note_on,,,,,0,0,2,,,,0,43,33
36480,note_off,,,,,480,0,2,,,,0,43,64
36480,control_change,,,,,0,0,1,,64,96,0,,
36480,note_on,,,,,0,0,1,,,,0,56,44
36480,note_off,,,,,8,0,1,,,,0,55,64
36490,set_tempo,,,,,40,1,0,324324,,,,,
36530,set_tempo,,,,,40,1,0,327869,,,,,
36550,set_tempo,,,,,20,1,0,329670,,,,,
36590,set_tempo,,,,,40,1,0,331492,,,,,
36600,note_off,,,,,120,0,1,,,,0,56,64
36600,note_on,,,,,0,0,1,,,,0,65,34
36620,set_tempo,,,,,30,1,0,333333,,,,,
36650,set_tempo,,,,,30,1,0,331492,,,,,
36660,note_off,,,,,180,0,2,,,,0,43,64
36712,control_change,,,,,112,0,1,,64,0,0,,
36720,note_on,,,,,0,0,1,,,,0,50,42
36720,note_off,,,,,8,0,1,,,,0,65,64
36720,note_on,,,,,60,0,2,,,,0,43,44
36720,control_change,,,,,0,0,1,,64,96,0,,
36730,set_tempo,,,,,80,1,0,333333,,,,,
36760,set_tempo,,,,,30,1,0,335196,,,,,
36810,set_tempo,,,,,50,1,0,337079,,,,,
36840,note_on,,,,,0,0,1,,,,0,59,36
36840,note_off,,,,,120,0,1,,,,0,50,64
36870,set_tempo,,,,,60,1,0,346821,,,,,
36930,set_tempo,,,,,60,1,0,352941,,,,,
36960,note_on,,,,,0,0,1,,,,0,55,32
36960,note_off,,,,,120,0,1,,,,0,59,64
36990,set_tempo,,,,,60,1,0,355030,,,,,
37010,set_tempo,,,,,20,1,0,365854,,,,,
37070,set_tempo,,,,,60,1,0,377358,,,,,
37080,note_on,,,,,0,0,1,,,,0,50,30
37080,note_off,,,,,120,0,1,,,,0,55,64
37080,set_tempo,,,,,10,1,0,384615,,,,,
37140,set_tempo,,,,,60,1,0,397351,,,,,
37192,control_change,,,,,112,0,1,,64,0,0,,
37200,control_change,,,,,0,0,1,,64,96,0,,
37200,note_on,,,,,0,0,1,,,,0,51,43
37200,note_off,,,,,8,0,1,,,,0,50,64
37200,set_tempo,,,,,60,1,0,408163,,,,,
37200,note_on,,,,,0,0,2,,,,0,36,34
37200,note_on,,,,,0,0,2,,,,0,48,34
37200,note_on,,,,,0,0,2,,,,0,43,34
37200,note_off,,,,,480,0,2,,,,0,43,64
37210,set_tempo,,,,,10,1,0,425532,,,,,
37230,set_tempo,,,,,20,1,0,428571,,,,,
37250,set_tempo,,,,,20,1,0,444444,,,,,
37310,set_tempo,,,,,60,1,0,454545,,,,,
37320,note_on,,,,,0,0,1,,,,0,60,33
37320,note_off,,,,,120,0,1,,,,0,51,64
37320,set_tempo,,,,,10,1,0,472441,,,,,
37330,set_tempo,,,,,10,1,0,487805,,,,,
37350,set_tempo,,,,,20,1,0,508475,,,,,
37360,set_tempo,,,,,10,1,0,540541,,,,,
37370,set_tempo,,,,,10,1,0,560748,,,,,
37380,note_off,,,,,180,0,2,,,,0,43,64
37380,set_tempo,,,,,10,1,0,588235,,,,,
37380,note_off,,,,,0,0,2,,,,0,36,64
37380,note_off,,,,,0,0,2,,,,0,48,64
37390,set_tempo,,,,,10,1,0,594059,,,,,
37400,set_tempo,,,,,10,1,0,600000,,,,,
37410,set_tempo,,,,,10,1,0,625000,,,,,
37440,set_tempo,,,,,30,1,0,833333,,,,,
37440,note_on,,,,,0,0,1,,,,0,51,33
37440,note_on,,,,,0,0,1,,,,0,60,33
37440,note_off,,,,,120,0,1,,,,0,60,64
37440,note_on,,,,,0,0,2,,,,0,36,39
37440,note_on,,,,,0,0,2,,,,0,43,39
37440,note_on,,,,,60,0,2,,,,0,48,39
37620,note_off,,,,,180,0,2,,,,0,36,64
37620,note_off,,,,,180,0,1,,,,0,51,64
37620,note_off,,,,,0,0,2,,,,0,43,64
37620,note_off,,,,,0,0,2,,,,0,48,64
37620,note_off,,,,,0,0,1,,,,0,60,64
37680,note_on,,,,,60,0,1,,,,0,55,68
37680,set_tempo,,,,,240,1,0,269058,,,,,
37800,note_off,,,,,120,0,1,,,,0,55,64
37800,note_on,,,,,0,0,1,,,,0,58,62
37912,control_change,,,,,112,0,1,,64,0,0,,
37920,control_change,,,,,0,0,1,,64,94,0,,
37920,note_on,,,,,0,0,1,,,,0,63,77
37920,note_off,,,,,8,0,1,,,,0,58,64
38040,note_on,,,,,0,0,1,,,,0,67,83
38040,note_off,,,,,120,0,1,,,,0,63,64
38130,note_off,,,,,90,0,1,,,,0,67,64
38152,control_change,,,,,22,0,1,,64,0,0,,
38160,note_on,,,,,8,0,1,,,,0,70,97
38160,note_on,,,,,0,0,1,,,,0,63,97
38160,note_on,,,,,0,0,1,,,,0,58,97
38160,control_change,,,,,0,0,1,,64,95,0,,
38160,set_tempo,,,,,480,1,0,310881,,,,,
38160,note_on,,,,,0,0,2,,,,0,55,98
38160,note_on,,,,,0,0,2,,,,0,51,98
38160,note_on,,,,,540,0,2,,,,0,43,98
38626,control_change,,,,,466,0,1,,64,0,0,,
38640,note_off,,,,,0,0,2,,,,0,43,64
38640,note_on,,,,,0,0,2,,,,0,39,67
38640,note_on,,,,,0,0,2,,,,0,51,67
38640,note_on,,,,,0,0,1,,,,0,67,63
38640,note_on,,,,,0,0,1,,,,0,58,63
38640,note_on,,,,,0,0,1,,,,0,63,63
38640,note_off,,,,,0,0,2,,,,0,51,64
38640,note_off,,,,,0,0,1,,,,0,70,64
38640,note_off,,,,,0,0,1,,,,0,63,64
38640,note_off,,,,,14,0,1,,,,0,58,64
38640,set_tempo,,,,,480,1,0,263158,,,,,
38640,note_off,,,,,480,0,2,,,,0,55,64
38820,note_off,,,,,180,0,1,,,,0,58,64
38820,note_off,,,,,0,0,2,,,,0,39,64
38820,note_off,,,,,0,0,1,,,,0,63,64
38820,note_off,,,,,0,0,1,,,,0,67,64
38820,note_off,,,,,180,0,2,,,,0,51,64
38820,set_tempo,,,,,180,1,0,384615,,,,,
38880,note_on,,,,,60,0,1,,,,0,91,57
38880,set_tempo,,,,,60,1,0,271493,,,,,
38880,note_on,,,,,60,0,2,,,,0,79,52
39000,note_off,,,,,120,0,1,,,,0,91,64
39000,note_on,,,,,0,0,2,,,,0,75,44
39000,note_on,,,,,0,0,1,,,,0,87,44
39000,note_off,,,,,120,0,2,,,,0,79,64
39090,note_off,,,,,90,0,1,,,,0,87,64
39090,note_off,,,,,90,0,2,,,,0,75,64
39120,note_on,,,,,30,0,2,,,,0,79,53
39120,control_change,,,,,0,0,1,,64,96,0,,
39120,note_on,,,,,30,0,1,,,,0,91,53
39240,note_on,,,,,0,0,1,,,,0,87,58
39240,note_off,,,,,120,0,1,,,,0,91,64
39240,note_on,,,,,0,0,2,,,,0,75,58
39240,note_off,,,,,120,0,2,,,,0,79,64
39360,note_on,,,,,0,0,2,,,,0,70,66
39360,note_off,,,,,120,0,2,,,,0,75,64
39360,note_on,,,,,0,0,1,,,,0,82,66
39360,note_off,,,,,120,0,1,,,,0,87,64
39480,note_on,,,,,0,0,2,,,,0,67,75
39480,note_on,,,,,0,0,1,,,,0,79,75
39480,note_off,,,,,120,0,1,,,,0,82,64
39480,note_off,,,,,120,0,2,,,,0,70,64
39570,note_off,,,,,90,0,1,,,,0,79,64
39570,note_off,,,,,90,0,2,,,,0,67,64
39580,control_change,,,,,10,0,1,,64,0,0,,
39600,note_on,,,,,0,0,1,,,,0,80,104
39600,control_change,,,,,0,0,1,,64,96,0,,
39600,note_on,,,,,20,0,1,,,,0,82,104
39600,note_on,,,,,0,0,1,,,,0,77,104
39600,set_tempo,,,,,720,1,0,310881,,,,,
39600,note_on,,,,,30,0,2,,,,0,65,104
39600,note_on,,,,,0,0,2,,,,0,68,104
39600,note_on,,,,,0,0,2,,,,0,70,104
40072,control_change,,,,,472,0,1,,64,0,0,,
40080,note_on,,,,,0,0,1,,,,0,70,63
40080,note_on,,,,,0,0,1,,,,0,77,63
40080,note_on,,,,,0,0,1,,,,0,82,63
40080,note_off,,,,,0,0,1,,,,0,82,64
40080,note_off,,,,,0,0,1,,,,0,80,64
40080,note_off,,,,,8,0,1,,,,0,77,64
40080,set_tempo,,,,,480,1,0,263158,,,,,
40080,note_off,,,,,0,0,2,,,,0,68,64
40080,note_off,,,,,0,0,2,,,,0,65,64
40080,note_on,,,,,0,0,2,,,,0,58,63
40080,note_on,,,,,0,0,2,,,,0,65,63
40080,note_off,,,,,480,0,2,,,,0,70,64
40260,note_off,,,,,180,0,1,,,,0,70,64
40260,set_tempo,,,,,180,1,0,387097,,,,,
40260,note_off,,,,,0,0,1,,,,0,82,64
40260,note_off,,,,,180,0,2,,,,0,65,64
40260,note_off,,,,,0,0,2,,,,0,58,64
40260,note_off,,,,,0,0,1,,,,0,77,64
40320,note_on,,,,,60,0,1,,,,0,70,97
40320,note_on,,,,,0,0,2,,,,0,51,98
40320,note_on,,,,,60,0,2,,,,0,43,98
40320,note_on,,,,,0,0,2,,,,0,55,98
40320,note_on,,,,,0,0,1,,,,0,58,97
40320,note_on,,,,,0,0,1,,,,0,63,97
40320,set_tempo,,,,,60,1,0,310881,,,,,
40320,control_change,,,,,0,0,1,,64,95,0,,
40786,control_change,,,,,466,0,1,,64,0,0,,
40800,set_tempo,,,,,480,1,0,263158,,,,,
40800,note_off,,,,,480,0,2,,,,0,55,64
40800,note_off,,,,,0,0,2,,,,0,51,64
40800,note_off,,,,,0,0,2,,,,0,43,64
40800,note_on,,,,,0,0,2,,,,0,39,67
40800,note_on,,,,,0,0,1,,,,0,58,63
40800,note_on,,,,,0,0,1,,,,0,63,63
40800,note_on,,,,,0,0,2,,,,0,51,67
40800,note_off,,,,,14,0,1,,,,0,58,64
40800,note_off,,,,,0,0,1,,,,0,63,64
40800,note_off,,,,,0,0,1,,,,0,70,64
40800,note_on,,,,,0,0,1,,,,0,67,63
40980,note_off,,,,,180,0,1,,,,0,58,64
40980,note_off,,,,,180,0,2,,,,0,51,64
40980,note_off,,,,,0,0,2,,,,0,39,64
40980,note_off,,,,,0,0,1,,,,0,67,64
40980,note_off,,,,,0,0,1,,,,0,63,64
40980,set_tempo,,,,,180,1,0,384615,,,,,
41040,note_on,,,,,60,0,1,,,,0,91,57
41040,set_tempo,,,,,60,1,0,271493,,,,,
41040,note_on,,,,,60,0,2,,,,0,79,52
41160,note_off,,,,,120,0,2,,,,0,79,64
41160,note_on,,,,,0,0,2,,,,0,75,44
41160,note_off,,,,,120,0,1,,,,0,91,64
41160,note_on,,,,,0,0,1,,,,0,87,44
41250,note_off,,,,,90,0,2,,,,0,75,64
41250,note_off,,,,,90,0,1,,,,0,87,64
41280,note_on,,,,,30,0,1,,,,0,91,53
41280,control_change,,,,,0,0,1,,64,96,0,,
41280,note_on,,,,,30,0,2,,,,0,79,53
41400,note_off,,,,,120,0,1,,,,0,91,64
41400,note_off,,,,,120,0,2,,,,0,79,64
41400,note_on,,,,,0,0,2,,,,0,75,58
41400,note_on,,,,,0,0,1,,,,0,87,58
41520,note_on,,,,,0,0,1,,,,0,82,66
41520,note_on,,,,,0,0,2,,,,0,70,66
41520,note_off,,,,,120,0,2,,,,0,75,64
41520,note_off,,,,,120,0,1,,,,0,87,64
41640,note_off,,,,,120,0,2,,,,0,70,64
41640,note_on,,,,,0,0,2,,,,0,67,75
41640,note_off,,,,,120,0,1,,,,0,82,64
41640,note_on,,,,,0,0,1,,,,0,79,75
41730,note_off,,,,,90,0,2,,,,0,67,64
41730,note_off,,,,,90,0,1,,,,0,79,64
41740,control_change,,,,,10,0,1,,64,0,0,,
41760,note_on,,,,,20,0,1,,,,0,79,104
41760,note_on,,,,,0,0,2,,,,0,65,104
41760,note_on,,,,,30,0,2,,,,0,67,104
41760,set_tempo,,,,,720,1,0,310881,,,,,
41760,note_on,,,,,0,0,2,,,,0,62,104
41760,control_change,,,,,0,0,1,,64,96,0,,
41760,note_on,,,,,0,0,1,,,,0,74,104
41760,note_on,,,,,0,0,1,,,,0,77,104
42232,control_change,,,,,472,0,1,,64,0,0,,
42240,note_off,,,,,0,0,1,,,,0,79,64
42240,note_on,,,,,0,0,1,,,,0,67,63
42240,set_tempo,,,,,480,1,0,263158,,,,,
42240,note_off,,,,,8,0,1,,,,0,74,64
42240,note_on,,,,,0,0,1,,,,0,79,63
42240,note_on,,,,,0,0,1,,,,0,74,63
42240,note_off,,,,,0,0,1,,,,0,77,64
42240,note_on,,,,,0,0,2,,,,0,62,63
42240,note_on,,,,,0,0,2,,,,0,55,63
42240,note_off,,,,,0,0,2,,,,0,67,64
42240,note_off,,,,,0,0,2,,,,0,62,64
42240,note_off,,,,,480,0,2,,,,0,65,64
42420,set_tempo,,,,,180,1,0,387097,,,,,
42420,note_off,,,,,180,0,2,,,,0,62,64
42420,note_off,,,,,180,0,1,,,,0,67,64
42420,note_off,,,,,0,0,2,,,,0,55,64
42420,note_off,,,,,0,0,1,,,,0,79,64
42420,note_off,,,,,0,0,1,,,,0,74,64
42480,set_tempo,,,,,60,1,0,310881,,,,,
42480,note_on,,,,,0,0,2,,,,0,67,118
42480,note_on,,,,,60,0,2,,,,0,39,118
42480,note_on,,,,,60,0,1,,,,0,67,119
42480,note_on,,,,,0,0,1,,,,0,60,119
42480,note_on,,,,,0,0,1,,,,0,55,119
42480,control_change,,,,,0,0,1,,64,96,0,,
42480,note_on,,,,,0,0,2,,,,0,51,118
42952,control_change,,,,,472,0,1,,64,0,0,,
42960,note_off,,,,,0,0,1,,,,0,60,64
42960,set_tempo,,,,,480,1,0,263158,,,,,
42960,note_off,,,,,8,0,1,,,,0,55,64
42960,note_off,,,,,480,0,2,,,,0,67,64
42960,note_on,,,,,0,0,2,,,,0,48,101
42960,note_off,,,,,0,0,2,,,,0,39,64
42960,note_on,,,,,0,0,2,,,,0,36,101
42960,note_on,,,,,0,0,1,,,,0,55,100
42960,note_on,,,,,0,0,1,,,,0,60,100
42960,note_on,,,,,0,0,1,,,,0,63,100
42960,note_off,,,,,0,0,1,,,,0,67,64
42960,note_off,,,,,0,0,2,,,,0,51,64
43140,set_tempo,,,,,180,1,0,387097,,,,,
43140,note_off,,,,,180,0,2,,,,0,48,64
43140,note_off,,,,,0,0,2,,,,0,36,64
43140,note_off,,,,,0,0,1,,,,0,63,64
43140,note_off,,,,,0,0,1,,,,0,60,64
43140,note_off,,,,,180,0,1,,,,0,55,64
43200,note_on,,,,,60,0,2,,,,0,67,87
43200,note_on,,,,,60,0,1,,,,0,79,99
43210,set_tempo,,,,,70,1,0,276498,,,,,
43300,set_tempo,,,,,90,1,0,275229,,,,,
43320,note_on,,,,,0,0,2,,,,0,63,63
43320,note_off,,,,,120,0,2,,,,0,67,64
43320,note_on,,,,,0,0,1,,,,0,75,58
43320,note_off,,,,,120,0,1,,,,0,79,64
43380,set_tempo,,,,,80,1,0,273973,,,,,
43410,note_off,,,,,90,0,2,,,,0,63,64
43410,note_off,,,,,90,0,1,,,,0,75,64
43430,set_tempo,,,,,50,1,0,272727,,,,,
43440,control_change,,,,,0,0,1,,64,96,0,,
43440,control_change,,,,,0,0,2,,64,96,0,,
43440,note_on,,,,,30,0,2,,,,0,67,68
43440,note_on,,,,,30,0,1,,,,0,79,66
43470,set_tempo,,,,,40,1,0,271493,,,,,
43560,note_off,,,,,120,0,2,,,,0,67,64
43560,note_on,,,,,0,0,2,,,,0,63,78
43560,note_on,,,,,0,0,1,,,,0,75,75
43560,note_off,,,,,120,0,1,,,,0,79,64
43580,set_tempo,,,,,110,1,0,270270,,,,,
43680,note_off,,,,,120,0,2,,,,0,63,64
43680,note_on,,,,,0,0,2,,,,0,60,85
43680,note_off,,,,,120,0,1,,,,0,75,64
43680,note_on,,,,,0,0,1,,,,0,72,82
43720,set_tempo,,,,,140,1,0,269058,,,,,
43800,note_on,,,,,0,0,2,,,,0,55,91
43800,note_off,,,,,120,0,2,,,,0,60,64
43800,note_off,,,,,120,0,1,,,,0,72,64
43800,note_on,,,,,0,0,1,,,,0,67,92
43810,set_tempo,,,,,90,1,0,266667,,,,,
43880,set_tempo,,,,,70,1,0,327869,,,,,
43890,note_off,,,,,90,0,2,,,,0,55,64
43890,note_off,,,,,90,0,1,,,,0,67,64
43900,control_change,,,,,10,0,1,,64,0,0,,
43900,control_change,,,,,10,0,2,,64,0,0,,
43910,set_tempo,,,,,30,1,0,265487,,,,,
43920,note_on,,,,,20,0,1,,,,0,68,100
43920,note_on,,,,,20,0,2,,,,0,56,99
44030,set_tempo,,,,,120,1,0,264317,,,,,
44040,note_off,,,,,120,0,1,,,,0,68,64
44040,note_on,,,,,0,0,1,,,,0,63,81
44040,note_off,,,,,120,0,2,,,,0,56,64
44040,note_on,,,,,0,0,2,,,,0,51,84
44130,note_off,,,,,90,0,2,,,,0,51,64
44130,note_off,,,,,90,0,1,,,,0,63,64
44160,note_on,,,,,30,0,1,,,,0,68,89
44160,control_change,,,,,0,0,1,,64,96,0,,
44160,note_on,,,,,30,0,2,,,,0,56,91
44160,control_change,,,,,0,0,2,,64,96,0,,
44180,set_tempo,,,,,150,1,0,263158,,,,,
44250,set_tempo,,,,,70,1,0,262009,,,,,
44280,note_off,,,,,120,0,1,,,,0,68,64
44280,note_on,,,,,0,0,1,,,,0,63,98
44280,note_off,,,,,120,0,2,,,,0,56,64
44280,note_on,,,,,0,0,2,,,,0,51,98
44360,set_tempo,,,,,110,1,0,259740,,,,,
44400,note_off,,,,,120,0,1,,,,0,63,64
44400,note_on,,,,,0,0,1,,,,0,60,106
44400,note_off,,,,,120,0,2,,,,0,51,64
44400,note_on,,,,,0,0,2,,,,0,48,102
44450,set_tempo,,,,,90,1,0,258621,,,,,
44520,note_on,,,,,0,0,2,,,,0,44,109
44520,note_off,,,,,120,0,2,,,,0,48,64
44520,note_on,,,,,0,0,1,,,,0,56,112
44520,note_off,,,,,120,0,1,,,,0,60,64
44600,set_tempo,,,,,150,1,0,310881,,,,,
44610,note_off,,,,,90,0,2,,,,0,44,64
44610,note_off,,,,,90,0,1,,,,0,56,64
44620,control_change,,,,,10,0,2,,64,0,0,,
44620,control_change,,,,,10,0,1,,64,0,0,,
44630,set_tempo,,,,,30,1,0,258621,,,,,
44640,note_on,,,,,20,0,2,,,,0,44,118
44640,control_change,,,,,0,0,1,,7,79,0,,
44640,note_on,,,,,20,0,1,,,,0,56,120
44646,control_change,,,,,6,0,1,,7,77,0,,
44650,set_tempo,,,,,20,1,0,266667,,,,,
44660,set_tempo,,,,,10,1,0,262009,,,,,
44690,set_tempo,,,,,30,1,0,263158,,,,,
44780,set_tempo,,,,,90,1,0,264317,,,,,
44850,note_off,,,,,210,0,2,,,,0,44,64
44850,note_off,,,,,204,0,1,,,,0,56,64
44880,note_on,,,,,30,0,1,,,,0,56,79
44880,note_on,,,,,30,0,2,,,,0,44,78
44906,control_change,,,,,26,0,1,,7,78,0,,
44960,set_tempo,,,,,180,1,0,265487,,,,,
44986,control_change,,,,,80,0,1,,7,79,0,,
44992,control_change,,,,,6,0,1,,7,80,0,,
45012,control_change,,,,,20,0,1,,7,81,0,,
45060,note_off,,,,,48,0,1,,,,0,56,64
45060,control_change,,,,,0,0,1,,7,82,0,,
45060,note_off,,,,,180,0,2,,,,0,44,64
45100,set_tempo,,,,,140,1,0,266667,,,,,
45112,control_change,,,,,52,0,1,,7,83,0,,
45120,note_on,,,,,8,0,1,,,,0,56,87
45120,note_on,,,,,60,0,2,,,,0,44,88
45152,control_change,,,,,32,0,1,,7,84,0,,
45192,control_change,,,,,40,0,1,,7,85,0,,
45206,control_change,,,,,14,0,1,,7,86,0,,
45232,control_change,,,,,26,0,1,,7,87,0,,
45246,control_change,,,,,14,0,1,,7,88,0,,
45260,control_change,,,,,14,0,1,,7,89,0,,
45300,note_off,,,,,40,0,1,,,,0,56,64
45300,control_change,,,,,0,0,1,,7,90,0,,
45300,note_off,,,,,180,0,2,,,,0,44,64
45320,set_tempo,,,,,220,1,0,269058,,,,,
45332,control_change,,,,,32,0,1,,7,91,0,,
45346,control_change,,,,,14,0,1,,7,92,0,,
45360,control_change,,,,,0,0,1,,7,93,0,,
45360,note_on,,,,,60,0,2,,,,0,44,99
45360,note_on,,,,,14,0,1,,,,0,56,101
45406,control_change,,,,,46,0,1,,7,94,0,,
45440,set_tempo,,,,,120,1,0,270270,,,,,
45440,control_change,,,,,34,0,1,,7,95,0,,
45466,control_change,,,,,26,0,1,,7,96,0,,
45492,control_change,,,,,26,0,1,,7,97,0,,
45526,control_change,,,,,34,0,1,,7,98,0,,
45540,note_off,,,,,180,0,2,,,,0,44,64
45540,note_off,,,,,14,0,1,,,,0,56,64
45560,set_tempo,,,,,120,1,0,271493,,,,,
45566,control_change,,,,,26,0,1,,7,99,0,,
45600,control_change,,,,,0,0,1,,7,100,0,,
45600,note_on,,,,,34,0,1,,,,0,56,111
45600,note_on,,,,,60,0,2,,,,0,44,109
45646,control_change,,,,,46,0,1,,7,101,0,,
45680,control_change,,,,,34,0,1,,7,102,0,,
45740,set_tempo,,,,,180,1,0,272727,,,,,
45760,control_change,,,,,80,0,1,,7,103,0,,
45780,note_off,,,,,20,0,1,,,,0,56,64
45780,note_off,,,,,180,0,2,,,,0,44,64
45812,control_change,,,,,32,0,1,,7,104,0,,
45840,note_on,,,,,28,0,1,,,,0,56,120
45840,note_on,,,,,60,0,2,,,,0,44,122
45880,control_change,,,,,40,0,1,,7,105,0,,
45892,control_change,,,,,12,0,1,,7,106,0,,
46020,note_off,,,,,128,0,1,,,,0,56,64
46020,note_off,,,,,180,0,2,,,,0,44,64
46046,control_change,,,,,26,0,1,,7,107,0,,
46080,note_on,,,,,0,0,2,,,,0,44,127
46080,note_on,,,,,60,0,2,,,,0,52,127
46080,control_change,,,,,0,0,1,,64,95,0,,
46080,note_on,,,,,0,0,1,,,,0,55,127
46080,note_on,,,,,0,0,1,,,,0,58,127
46080,note_on,,,,,34,0,1,,,,0,61,127
46080,set_tempo,,,,,340,1,0,275229,,,,,
46092,control_change,,,,,12,0,1,,7,108,0,,
46790,set_tempo,,,,,710,1,0,327869,,,,,
46792,control_change,,,,,700,0,1,,64,0,0,,
46800,note_on,,,,,0,0,1,,,,0,60,75
46800,note_on,,,,,0,0,1,,,,0,56,75
46800,note_off,,,,,0,0,1,,,,0,61,64
46800,note_off,,,,,0,0,1,,,,0,58,64
46800,note_off,,,,,8,0,1,,,,0,55,64
46800,note_off,,,,,720,0,2,,,,0,44,64
46800,note_on,,,,,0,0,2,,,,0,44,77
46800,note_on,,,,,0,0,2,,,,0,51,77
46800,control_change,,,,,0,0,1,,7,79,0,,
46800,note_off,,,,,0,0,2,,,,0,52,64
47220,note_off,,,,,0,0,2,,,,0,44,64
47220,note_off,,,,,420,0,2,,,,0,51,64
47220,note_off,,,,,0,0,1,,,,0,56,64
47220,note_off,,,,,420,0,1,,,,0,60,64
47280,note_on,,,,,60,0,1,,,,0,56,63
47280,note_on,,,,,0,0,1,,,,0,63,63
47280,note_on,,,,,0,0,1,,,,0,72,63
47460,note_off,,,,,0,0,1,,,,0,63,64
47460,note_off,,,,,180,0,1,,,,0,72,64
47460,note_off,,,,,0,0,1,,,,0,56,64
47520,note_on,,,,,0,0,1,,,,0,72,53
47520,note_on,,,,,0,0,1,,,,0,63,53
47520,note_on,,,,,60,0,1,,,,0,55,53
47520,note_on,,,,,0,0,1,,,,0,67,53
47520,control_change,,,,,0,0,1,,64,95,0,,
47530,set_tempo,,,,,740,1,0,384615,,,,,
48180,note_off,,,,,0,0,1,,,,0,55,64
48180,note_off,,,,,0,0,1,,,,0,63,64
48180,note_off,,,,,0,0,1,,,,0,67,64
48180,note_off,,,,,660,0,1,,,,0,72,64
48232,control_change,,,,,52,0,1,,64,0,0,,
48240,note_on,,,,,8,0,1,,,,0,55,34
48240,note_on,,,,,0,0,1,,,,0,71,34
48240,control_change,,,,,0,0,1,,64,95,0,,
48240,note_on,,,,,0,0,1,,,,0,67,34
48240,note_on,,,,,0,0,1,,,,0,62,34
48720,set_tempo,,,,,1190,1,0,454545,,,,,
48900,note_off,,,,,0,0,1,,,,0,62,64
48900,note_off,,,,,0,0,1,,,,0,55,64
48900,note_off,,,,,0,0,1,,,,0,67,64
48900,note_off,,,,,660,0,1,,,,0,71,64
48946,control_change,,,,,46,0,1,,64,0,0,,
48960,control_change,,,,,0,0,1,,64,95,0,,
48960,note_on,,,,,14,0,1,,,,0,75,28
48960,note_on,,,,,0,0,2,,,,0,51,28
48960,note_on,,,,,1740,0,2,,,,0,48,28
48960,set_tempo,,,,,240,1,0,338983,,,,,
48970,set_tempo,,,,,10,1,0,310881,,,,,
49040,set_tempo,,,,,70,1,0,309278,,,,,
49080,note_off,,,,,120,0,1,,,,0,75,64
49080,note_on,,,,,0,0,1,,,,0,74,27
49140,note_off,,,,,180,0,2,,,,0,51,64
49140,note_off,,,,,0,0,2,,,,0,48,64
49140,set_tempo,,,,,100,1,0,307692,,,,,
49186,control_change,,,,,106,0,1,,64,0,0,,
49200,note_on,,,,,0,0,2,,,,0,53,30
49200,note_off,,,,,14,0,1,,,,0,74,64
49200,note_on,,,,,0,0,1,,,,0,75,28
49200,control_change,,,,,0,0,1,,64,95,0,,
49200,note_on,,,,,60,0,2,,,,0,48,30
49200,note_on,,,,,0,0,2,,,,0,50,30
49320,note_off,,,,,120,0,1,,,,0,75,64
49320,note_on,,,,,0,0,1,,,,0,77,31
49320,set_tempo,,,,,180,1,0,306122,,,,,
49380,note_off,,,,,180,0,2,,,,0,53,64
49380,set_tempo,,,,,60,1,0,304569,,,,,
49380,note_off,,,,,0,0,2,,,,0,48,64
49380,note_off,,,,,0,0,2,,,,0,50,64
49432,control_change,,,,,112,0,1,,64,0,0,,
49440,note_on,,,,,0,0,1,,,,0,79,34
49440,control_change,,,,,0,0,1,,64,96,0,,
49440,note_off,,,,,8,0,1,,,,0,77,64
49440,note_on,,,,,0,0,2,,,,0,55,34
49440,note_on,,,,,0,0,2,,,,0,51,34
49440,note_on,,,,,60,0,2,,,,0,48,34
49550,set_tempo,,,,,170,1,0,301508,,,,,
49560,note_on,,,,,0,0,1,,,,0,77,44
49560,note_off,,,,,120,0,1,,,,0,79,64
49620,note_off,,,,,180,0,2,,,,0,55,64
49620,note_off,,,,,0,0,2,,,,0,48,64
49620,note_off,,,,,0,0,2,,,,0,51,64
49672,control_change,,,,,112,0,1,,64,0,0,,
49680,note_on,,,,,60,0,2,,,,0,48,39
49680,note_on,,,,,0,0,2,,,,0,51,39
49680,note_on,,,,,0,0,2,,,,0,55,39
49680,note_off,,,,,8,0,1,,,,0,77,64
49680,note_on,,,,,0,0,1,,,,0,75,50
49680,control_change,,,,,0,0,1,,64,96,0,,
49700,set_tempo,,,,,150,1,0,298507,,,,,
49720,set_tempo,,,,,20,1,0,297030,,,,,
49800,note_on,,,,,0,0,1,,,,0,74,46
49800,note_off,,,,,120,0,1,,,,0,75,64
49850,set_tempo,,,,,130,1,0,295567,,,,,
49900,set_tempo,,,,,50,1,0,294118,,,,,
49920,note_on,,,,,0,0,1,,,,0,75,39
49920,note_off,,,,,120,0,1,,,,0,74,64
49970,set_tempo,,,,,70,1,0,292683,,,,,
50040,note_on,,,,,0,0,1,,,,0,77,35
50040,note_off,,,,,120,0,1,,,,0,75,64
50100,set_tempo,,,,,130,1,0,291262,,,,,
50152,control_change,,,,,112,0,1,,64,0,0,,
50160,note_on,,,,,0,0,2,,,,0,47,33
50160,note_off,,,,,480,0,2,,,,0,55,64
50160,note_off,,,,,0,0,2,,,,0,51,64
50160,note_off,,,,,0,0,2,,,,0,48,64
50160,note_on,,,,,0,0,2,,,,0,50,33
50160,note_off,,,,,8,0,1,,,,0,77,64
50160,note_on,,,,,0,0,1,,,,0,75,39
50160,control_change,,,,,0,0,1,,64,96,0,,
50160,note_on,,,,,0,0,2,,,,0,55,33
50190,set_tempo,,,,,90,1,0,289855,,,,,
50260,set_tempo,,,,,70,1,0,285714,,,,,
50280,note_off,,,,,120,0,1,,,,0,75,64
50280,note_on,,,,,0,0,1,,,,0,74,46
50340,note_off,,,,,0,0,2,,,,0,50,64
50340,note_off,,,,,0,0,2,,,,0,47,64
50340,note_off,,,,,180,0,2,,,,0,55,64
50350,set_tempo,,,,,90,1,0,284360,,,,,
50392,control_change,,,,,112,0,1,,64,0,0,,
50400,control_change,,,,,0,0,1,,64,96,0,,
50400,note_on,,,,,0,0,1,,,,0,72,49
50400,note_on,,,,,0,0,2,,,,0,55,44
50400,note_on,,,,,0,0,2,,,,0,51,44
50400,note_on,,,,,60,0,2,,,,0,48,44
50400,set_tempo,,,,,50,1,0,283019,,,,,
50400,note_off,,,,,8,0,1,,,,0,74,64
50500,set_tempo,,,,,100,1,0,281690,,,,,
50520,note_on,,,,,0,0,1,,,,0,71,50
50520,note_off,,,,,120,0,1,,,,0,72,64
50600,set_tempo,,,,,100,1,0,280374,,,,,
50640,note_off,,,,,120,0,1,,,,0,71,64
50640,note_on,,,,,0,0,1,,,,0,72,41
50660,set_tempo,,,,,60,1,0,281690,,,,,
50700,set_tempo,,,,,40,1,0,283019,,,,,
50760,note_off,,,,,120,0,1,,,,0,72,64
50760,note_on,,,,,0,0,1,,,,0,74,38
50770,set_tempo,,,,,70,1,0,284360,,,,,
50872,control_change,,,,,112,0,1,,64,0,0,,
50880,note_off,,,,,480,0,2,,,,0,55,64
50880,note_on,,,,,0,0,2,,,,0,50,34
50880,note_off,,,,,8,0,1,,,,0,74,64
50880,note_on,,,,,0,0,1,,,,0,75,37
50880,control_change,,,,,0,0,1,,64,96,0,,
50880,note_on,,,,,0,0,2,,,,0,55,34
50880,note_off,,,,,0,0,2,,,,0,48,64
50880,note_off,,,,,0,0,2,,,,0,51,64
50880,note_on,,,,,0,0,2,,,,0,43,34
50960,set_tempo,,,,,190,1,0,285714,,,,,
51000,note_off,,,,,120,0,1,,,,0,75,64
51000,note_on,,,,,0,0,1,,,,0,77,40
51030,set_tempo,,,,,70,1,0,289855,,,,,
51060,note_off,,,,,180,0,2,,,,0,55,64
51060,note_off,,,,,0,0,2,,,,0,50,64
51060,note_off,,,,,0,0,2,,,,0,43,64
51070,set_tempo,,,,,40,1,0,291262,,,,,
51110,set_tempo,,,,,40,1,0,292683,,,,,
51112,control_change,,,,,112,0,1,,64,0,0,,
51120,note_on,,,,,0,0,1,,,,0,79,42
51120,control_change,,,,,0,0,1,,64,96,0,,
51120,note_on,,,,,60,0,2,,,,0,55,39
51120,note_on,,,,,0,0,2,,,,0,53,39
51120,note_on,,,,,0,0,2,,,,0,50,39
51120,note_off,,,,,8,0,1,,,,0,77,64
51150,set_tempo,,,,,40,1,0,294118,,,,,
51210,set_tempo,,,,,60,1,0,295567,,,,,
51230,set_tempo,,,,,20,1,0,297030,,,,,
51240,note_on,,,,,0,0,1,,,,0,81,45
51240,note_off,,,,,120,0,1,,,,0,79,64
51250,set_tempo,,,,,20,1,0,298507,,,,,
51260,set_tempo,,,,,10,1,0,301508,,,,,
51290,set_tempo,,,,,30,1,0,303030,,,,,
51300,set_tempo,,,,,10,1,0,307692,,,,,
51300,note_off,,,,,180,0,2,,,,0,50,64
51300,note_off,,,,,0,0,2,,,,0,55,64
51300,note_off,,,,,0,0,2,,,,0,53,64
51340,set_tempo,,,,,40,1,0,314136,,,,,
51350,set_tempo,,,,,10,1,0,315789,,,,,
51352,control_change,,,,,112,0,1,,64,0,0,,
51360,note_on,,,,,0,0,2,,,,0,50,36
51360,note_on,,,,,60,0,2,,,,0,57,36
51360,note_on,,,,,0,0,2,,,,0,53,36
51360,note_off,,,,,8,0,1,,,,0,81,64
51360,control_change,,,,,0,0,1,,64,95,0,,
51360,note_on,,,,,0,0,1,,,,0,84,47
51370,set_tempo,,,,,20,1,0,322581,,,,,
51400,set_tempo,,,,,30,1,0,324324,,,,,
51420,set_tempo,,,,,20,1,0,327869,,,,,
51430,set_tempo,,,,,10,1,0,333333,,,,,
51450,set_tempo,,,,,20,1,0,335196,,,,,
51460,set_tempo,,,,,10,1,0,342857,,,,,
51470,set_tempo,,,,,10,1,0,344828,,,,,
51480,note_off,,,,,120,0,1,,,,0,84,64
51480,note_on,,,,,0,0,1,,,,0,83,41
51480,set_tempo,,,,,10,1,0,346821,,,,,
51500,set_tempo,,,,,20,1,0,348837,,,,,
51510,set_tempo,,,,,10,1,0,350877,,,,,
51530,set_tempo,,,,,20,1,0,352941,,,,,
51540,note_off,,,,,0,0,2,,,,0,57,64
51540,note_off,,,,,0,0,2,,,,0,50,64
51540,note_off,,,,,180,0,2,,,,0,53,64
51540,set_tempo,,,,,10,1,0,355030,,,,,
51560,set_tempo,,,,,20,1,0,365854,,,,,
51570,set_tempo,,,,,10,1,0,368098,,,,,
51590,set_tempo,,,,,20,1,0,370370,,,,,
51592,control_change,,,,,112,0,1,,64,0,0,,
51600,note_on,,,,,60,0,2,,,,0,59,32
51600,note_on,,,,,0,0,2,,,,0,53,32
51600,note_on,,,,,0,0,2,,,,0,50,32
51600,control_change,,,,,0,0,1,,64,95,0,,
51600,note_off,,,,,8,0,1,,,,0,83,64
51600,note_on,,,,,0,0,1,,,,0,81,34
51610,set_tempo,,,,,20,1,0,372671,,,,,
51620,set_tempo,,,,,10,1,0,377358,,,,,
51640,set_tempo,,,,,20,1,0,379747,,,,,
51660,set_tempo,,,,,20,1,0,384615,,,,,
51670,set_tempo,,,,,10,1,0,387097,,,,,
51690,set_tempo,,,,,20,1,0,389610,,,,,
51700,set_tempo,,,,,10,1,0,392157,,,,,
51710,set_tempo,,,,,10,1,0,397351,,,,,
51720,note_off,,,,,120,0,1,,,,0,81,64
51720,note_on,,,,,0,0,1,,,,0,79,27
51730,set_tempo,,,,,20,1,0,400000,,,,,
51750,set_tempo,,,,,20,1,0,402685,,,,,
51760,set_tempo,,,,,10,1,0,405405,,,,,
51780,set_tempo,,,,,20,1,0,408163,,,,,
51780,note_off,,,,,0,0,2,,,,0,59,64
51780,note_off,,,,,0,0,2,,,,0,53,64
51780,note_off,,,,,180,0,2,,,,0,50,64
51790,set_tempo,,,,,10,1,0,413793,,,,,
51830,set_tempo,,,,,40,1,0,416667,,,,,
51832,control_change,,,,,112,0,1,,64,0,0,,
51840,note_off,,,,,8,0,1,,,,0,79,64
51860,set_tempo,,,,,30,1,0,294118,,,,,
52560,control_change,,,,,0,0,1,,64,95,0,,
52560,note_on,,,,,780,0,2,,,,0,72,35
52560,note_on,,,,,0,0,2,,,,0,60,35
52560,note_on,,,,,0,0,2,,,,0,63,35
52560,note_on,,,,,720,0,1,,,,0,80,45
52650,set_tempo,,,,,790,1,0,292683,,,,,
52680,note_on,,,,,0,0,1,,,,0,79,41
52680,note_off,,,,,120,0,1,,,,0,80,64
52740,note_off,,,,,0,0,2,,,,0,72,64
52740,note_off,,,,,180,0,2,,,,0,63,64
52740,note_off,,,,,0,0,2,,,,0,60,64
52750,set_tempo,,,,,100,1,0,291262,,,,,
52786,control_change,,,,,106,0,1,,64,0,0,,
52800,note_off,,,,,14,0,1,,,,0,79,64
52800,note_on,,,,,0,0,1,,,,0,80,41
52800,note_on,,,,,0,0,2,,,,0,70,42
52800,note_on,,,,,0,0,2,,,,0,60,42
52800,control_change,,,,,0,0,1,,64,95,0,,
52800,note_on,,,,,60,0,2,,,,0,63,42
52830,set_tempo,,,,,80,1,0,289855,,,,,
52910,set_tempo,,,,,80,1,0,285714,,,,,
52920,note_off,,,,,120,0,1,,,,0,80,64
52920,note_on,,,,,0,0,1,,,,0,82,44
52970,set_tempo,,,,,60,1,0,284360,,,,,
52980,note_off,,,,,0,0,2,,,,0,63,64
52980,note_off,,,,,180,0,2,,,,0,60,64
52980,note_off,,,,,0,0,2,,,,0,70,64
53032,control_change,,,,,112,0,1,,64,0,0,,
53040,note_on,,,,,0,0,1,,,,0,84,51
53040,control_change,,,,,0,0,1,,64,96,0,,
53040,note_on,,,,,0,0,2,,,,0,63,56
53040,note_on,,,,,60,0,2,,,,0,68,56
53040,note_on,,,,,0,0,2,,,,0,60,56
53040,note_off,,,,,8,0,1,,,,0,82,64
53160,note_off,,,,,120,0,1,,,,0,84,64
53160,note_on,,,,,0,0,1,,,,0,85,56
53180,set_tempo,,,,,210,1,0,283019,,,,,
53220,note_off,,,,,0,0,2,,,,0,68,64
53220,note_off,,,,,0,0,2,,,,0,60,64
53220,note_off,,,,,180,0,2,,,,0,63,64
53240,set_tempo,,,,,60,1,0,281690,,,,,
53272,control_change,,,,,112,0,1,,64,0,0,,
53280,note_off,,,,,8,0,1,,,,0,85,64
53280,note_on,,,,,0,0,1,,,,0,84,61
53280,note_on,,,,,60,0,2,,,,0,68,62
53280,control_change,,,,,0,0,1,,64,96,0,,
53280,note_on,,,,,0,0,2,,,,0,63,62
53280,note_on,,,,,0,0,2,,,,0,60,62
53300,set_tempo,,,,,60,1,0,280374,,,,,
53400,note_on,,,,,0,0,1,,,,0,85,65
53400,note_off,,,,,120,0,1,,,,0,84,64
53440,set_tempo,,,,,140,1,0,279070,,,,,
53520,note_on,,,,,0,0,1,,,,0,87,69
53520,note_off,,,,,120,0,1,,,,0,85,64
53530,set_tempo,,,,,90,1,0,276498,,,,,
53640,note_on,,,,,0,0,1,,,,0,89,72
53640,note_off,,,,,120,0,1,,,,0,87,64
53670,set_tempo,,,,,140,1,0,275229,,,,,
53752,control_change,,,,,112,0,1,,64,0,0,,
53760,note_off,,,,,0,0,2,,,,0,60,64
53760,note_off,,,,,0,0,2,,,,0,68,64
53760,note_off,,,,,480,0,2,,,,0,63,64
53760,note_on,,,,,0,0,2,,,,0,60,47
53760,control_change,,,,,0,0,1,,64,96,0,,
53760,note_on,,,,,0,0,2,,,,0,63,47
53760,note_on,,,,,0,0,1,,,,0,91,75
53760,note_off,,,,,8,0,1,,,,0,89,64
53830,set_tempo,,,,,160,1,0,273973,,,,,
53880,note_on,,,,,0,0,1,,,,0,92,78
53880,note_off,,,,,120,0,1,,,,0,91,64
53920,set_tempo,,,,,90,1,0,272727,,,,,
53940,note_off,,,,,0,0,2,,,,0,60,64
53940,note_off,,,,,180,0,2,,,,0,63,64
53992,control_change,,,,,112,0,1,,64,0,0,,
54000,note_on,,,,,0,0,2,,,,0,63,64
54000,note_on,,,,,60,0,2,,,,0,58,64
54000,control_change,,,,,0,0,1,,64,96,0,,
54000,note_on,,,,,0,0,1,,,,0,94,80
54000,note_on,,,,,0,0,2,,,,0,67,64
54000,note_off,,,,,8,0,1,,,,0,92,64
54120,note_off,,,,,120,0,1,,,,0,94,64
54120,note_on,,,,,0,0,1,,,,0,91,75
54240,note_on,,,,,0,0,1,,,,0,87,64
54240,note_off,,,,,120,0,1,,,,0,91,64
54300,set_tempo,,,,,380,1,0,273973,,,,,
54360,note_on,,,,,0,0,1,,,,0,84,59
54360,note_off,,,,,120,0,1,,,,0,87,64
54370,set_tempo,,,,,70,1,0,275229,,,,,
54430,set_tempo,,,,,60,1,0,276498,,,,,
54450,set_tempo,,,,,20,1,0,279070,,,,,
54472,control_change,,,,,112,0,1,,64,0,0,,
54480,control_change,,,,,0,0,1,,64,96,0,,
54480,note_off,,,,,0,0,2,,,,0,63,64
54480,note_off,,,,,0,0,2,,,,0,58,64
54480,note_on,,,,,0,0,2,,,,0,63,51
54480,note_on,,,,,0,0,2,,,,0,58,51
54480,note_off,,,,,8,0,1,,,,0,84,64
54480,note_on,,,,,0,0,1,,,,0,82,51
54480,note_off,,,,,480,0,2,,,,0,67,64
54500,set_tempo,,,,,50,1,0,280374,,,,,
54520,set_tempo,,,,,20,1,0,281690,,,,,
54560,set_tempo,,,,,40,1,0,283019,,,,,
54600,note_off,,,,,120,0,1,,,,0,82,64
54600,note_on,,,,,0,0,1,,,,0,79,46
54600,set_tempo,,,,,40,1,0,285714,,,,,
54660,note_off,,,,,180,0,2,,,,0,58,64
54660,note_off,,,,,0,0,2,,,,0,63,64
54700,set_tempo,,,,,100,1,0,289855,,,,,
54712,control_change,,,,,112,0,1,,64,0,0,,
54720,note_on,,,,,0,0,1,,,,0,80,39
54720,note_off,,,,,8,0,1,,,,0,79,64
54720,note_on,,,,,60,0,2,,,,0,60,39
54720,note_on,,,,,0,0,2,,,,0,53,39
54720,control_change,,,,,0,0,1,,64,96,0,,
54820,set_tempo,,,,,120,1,0,291262,,,,,
54840,set_tempo,,,,,20,1,0,292683,,,,,
54840,note_on,,,,,0,0,1,,,,0,72,45
54840,note_off,,,,,120,0,1,,,,0,80,64
54900,note_off,,,,,0,0,2,,,,0,60,64
54900,set_tempo,,,,,60,1,0,294118,,,,,
54900,note_off,,,,,180,0,2,,,,0,53,64
54920,set_tempo,,,,,20,1,0,298507,,,,,
54952,control_change,,,,,112,0,1,,64,0,0,,
54960,note_on,,,,,60,0,2,,,,0,64,36
54960,note_on,,,,,0,0,2,,,,0,55,36
54960,control_change,,,,,0,0,1,,64,95,0,,
54960,note_on,,,,,0,0,1,,,,0,70,47
54960,note_off,,,,,8,0,1,,,,0,72,64
54960,note_on,,,,,0,0,2,,,,0,60,36
55000,set_tempo,,,,,80,1,0,304569,,,,,
55080,note_on,,,,,0,0,1,,,,0,79,41
55080,set_tempo,,,,,80,1,0,306122,,,,,
55080,note_off,,,,,120,0,1,,,,0,70,64
55140,set_tempo,,,,,60,1,0,310881,,,,,
55140,note_off,,,,,0,0,2,,,,0,64,64
55140,note_off,,,,,0,0,2,,,,0,60,64
55140,note_off,,,,,180,0,2,,,,0,55,64
55160,set_tempo,,,,,20,1,0,314136,,,,,
55170,set_tempo,,,,,10,1,0,315789,,,,,
55190,set_tempo,,,,,20,1,0,317460,,,,,
55192,control_change,,,,,112,0,1,,64,0,0,,
55200,note_on,,,,,0,0,2,,,,0,65,32
55200,note_on,,,,,0,0,2,,,,0,56,32
55200,note_on,,,,,60,0,2,,,,0,60,32
55200,control_change,,,,,0,0,1,,64,95,0,,
55200,note_off,,,,,8,0,1,,,,0,79,64
55200,note_on,,,,,0,0,1,,,,0,77,34
55210,set_tempo,,,,,20,1,0,320856,,,,,
55220,set_tempo,,,,,10,1,0,322581,,,,,
55240,set_tempo,,,,,20,1,0,324324,,,,,
55260,set_tempo,,,,,20,1,0,331492,,,,,
55270,set_tempo,,,,,10,1,0,333333,,,,,
55290,set_tempo,,,,,20,1,0,338983,,,,,
55300,set_tempo,,,,,10,1,0,342857,,,,,
55310,set_tempo,,,,,10,1,0,344828,,,,,
55320,note_off,,,,,120,0,1,,,,0,77,64
55320,note_on,,,,,0,0,1,,,,0,68,27
55330,set_tempo,,,,,20,1,0,346821,,,,,
55340,set_tempo,,,,,10,1,0,348837,,,,,
55350,set_tempo,,,,,10,1,0,352941,,,,,
55360,set_tempo,,,,,10,1,0,355030,,,,,
55370,set_tempo,,,,,10,1,0,365854,,,,,
55380,set_tempo,,,,,10,1,0,370370,,,,,
55380,note_off,,,,,0,0,2,,,,0,60,64
55380,note_off,,,,,0,0,2,,,,0,56,64
55380,note_off,,,,,180,0,2,,,,0,65,64
55390,set_tempo,,,,,10,1,0,372671,,,,,
55410,set_tempo,,,,,20,1,0,377358,,,,,
55420,set_tempo,,,,,10,1,0,392157,,,,,
55430,set_tempo,,,,,10,1,0,400000,,,,,
55432,control_change,,,,,112,0,1,,64,0,0,,
55440,set_tempo,,,,,10,1,0,405405,,,,,
55440,note_off,,,,,8,0,1,,,,0,68,64
55470,set_tempo,,,,,30,1,0,331492,,,,,
55490,set_tempo,,,,,20,1,0,333333,,,,,
55510,set_tempo,,,,,20,1,0,335196,,,,,
56160,note_on,,,,,780,0,2,,,,0,36,28
56160,note_on,,,,,0,0,2,,,,0,48,28
56160,note_on,,,,,720,0,1,,,,0,67,28
56160,set_tempo,,,,,650,1,0,331492,,,,,
56160,control_change,,,,,0,0,1,,64,95,0,,
56240,set_tempo,,,,,80,1,0,329670,,,,,
56280,note_on,,,,,0,0,1,,,,0,55,27
56280,note_off,,,,,120,0,1,,,,0,67,64
56310,set_tempo,,,,,70,1,0,327869,,,,,
56340,note_off,,,,,180,0,2,,,,0,48,64
56340,note_off,,,,,0,0,2,,,,0,36,64
56350,set_tempo,,,,,40,1,0,324324,,,,,
56386,control_change,,,,,106,0,1,,64,0,0,,
56400,note_on,,,,,0,0,1,,,,0,59,28
56400,control_change,,,,,0,0,1,,64,95,0,,
56400,note_on,,,,,60,0,2,,,,0,43,30
56400,note_on,,,,,0,0,2,,,,0,50,30
56400,note_off,,,,,14,0,1,,,,0,55,64
56430,set_tempo,,,,,80,1,0,322581,,,,,
56470,set_tempo,,,,,40,1,0,320856,,,,,
56520,note_off,,,,,120,0,1,,,,0,59,64
56520,note_on,,,,,0,0,1,,,,0,65,25
56580,note_off,,,,,0,0,2,,,,0,43,64
56580,note_off,,,,,180,0,2,,,,0,50,64
56580,set_tempo,,,,,110,1,0,317460,,,,,
56632,control_change,,,,,112,0,1,,64,0,0,,
56640,note_off,,,,,8,0,1,,,,0,65,64
56640,note_on,,,,,0,0,1,,,,0,63,27
56640,control_change,,,,,0,0,1,,64,96,0,,
56640,note_on,,,,,0,0,2,,,,0,51,34
56640,note_on,,,,,60,0,2,,,,0,48,34
56720,set_tempo,,,,,140,1,0,315789,,,,,
56760,note_on,,,,,0,0,1,,,,0,60,28
56760,note_off,,,,,120,0,1,,,,0,63,64
56780,set_tempo,,,,,60,1,0,314136,,,,,
56820,note_off,,,,,180,0,2,,,,0,51,64
56820,note_off,,,,,0,0,2,,,,0,48,64
56872,control_change,,,,,112,0,1,,64,0,0,,
56880,note_off,,,,,8,0,1,,,,0,60,64
56880,note_on,,,,,60,0,2,,,,0,43,39
56880,control_change,,,,,0,0,1,,64,96,0,,
56880,note_on,,,,,0,0,1,,,,0,55,39
57000,note_off,,,,,120,0,1,,,,0,55,64
57000,note_on,,,,,0,0,1,,,,0,63,34
57120,note_off,,,,,120,0,1,,,,0,63,64
57120,note_on,,,,,0,0,1,,,,0,60,39
57180,set_tempo,,,,,400,1,0,315789,,,,,
57220,set_tempo,,,,,40,1,0,317460,,,,,
57240,note_off,,,,,120,0,1,,,,0,60,64
57240,note_on,,,,,0,0,1,,,,0,55,35
57250,set_tempo,,,,,30,1,0,320856,,,,,
57330,set_tempo,,,,,80,1,0,322581,,,,,
57352,control_change,,,,,112,0,1,,64,0,0,,
57360,note_off,,,,,480,0,2,,,,0,43,64
57360,note_on,,,,,0,0,2,,,,0,43,33
57360,control_change,,,,,0,0,1,,64,96,0,,
57360,note_on,,,,,0,0,1,,,,0,56,44
57360,note_off,,,,,8,0,1,,,,0,55,64
57370,set_tempo,,,,,40,1,0,324324,,,,,
57410,set_tempo,,,,,40,1,0,327869,,,,,
57430,set_tempo,,,,,20,1,0,329670,,,,,
57470,set_tempo,,,,,40,1,0,331492,,,,,
57480,note_off,,,,,120,0,1,,,,0,56,64
57480,note_on,,,,,0,0,1,,,,0,65,34
57500,set_tempo,,,,,30,1,0,333333,,,,,
57530,set_tempo,,,,,30,1,0,331492,,,,,
57540,note_off,,,,,180,0,2,,,,0,43,64
57592,control_change,,,,,112,0,1,,64,0,0,,
57600,note_on,,,,,60,0,2,,,,0,43,44
57600,control_change,,,,,0,0,1,,64,96,0,,
57600,note_on,,,,,0,0,1,,,,0,50,42
57600,note_off,,,,,8,0,1,,,,0,65,64
57610,set_tempo,,,,,80,1,0,333333,,,,,
57640,set_tempo,,,,,30,1,0,335196,,,,,
57690,set_tempo,,,,,50,1,0,337079,,,,,
57720,note_off,,,,,120,0,1,,,,0,50,64
57720,note_on,,,,,0,0,1,,,,0,59,36
57750,set_tempo,,,,,60,1,0,346821,,,,,
57810,set_tempo,,,,,60,1,0,352941,,,,,
57840,note_off,,,,,120,0,1,,,,0,59,64
57840,note_on,,,,,0,0,1,,,,0,55,32
57870,set_tempo,,,,,60,1,0,355030,,,,,
57890,set_tempo,,,,,20,1,0,365854,,,,,
57950,set_tempo,,,,,60,1,0,377358,,,,,
57960,note_off,,,,,120,0,1,,,,0,55,64
57960,set_tempo,,,,,10,1,0,384615,,,,,
57960,note_on,,,,,0,0,1,,,,0,50,30
58020,set_tempo,,,,,60,1,0,397351,,,,,
58072,control_change,,,,,112,0,1,,64,0,0,,
58080,set_tempo,,,,,60,1,0,408163,,,,,
58080,note_off,,,,,8,0,1,,,,0,50,64
58080,control_change,,,,,0,0,1,,64,96,0,,
58080,note_on,,,,,0,0,1,,,,0,51,43
58080,note_off,,,,,480,0,2,,,,0,43,64
58080,note_on,,,,,0,0,2,,,,0,36,34
58080,note_on,,,,,0,0,2,,,,0,48,34
58080,note_on,,,,,0,0,2,,,,0,43,34
58090,set_tempo,,,,,10,1,0,425532,,,,,
58110,set_tempo,,,,,20,1,0,428571,,,,,
58130,set_tempo,,,,,20,1,0,444444,,,,,
58190,set_tempo,,,,,60,1,0,454545,,,,,
58200,note_off,,,,,120,0,1,,,,0,51,64
58200,set_tempo,,,,,10,1,0,472441,,,,,
58200,note_on,,,,,0,0,1,,,,0,60,33
58210,set_tempo,,,,,10,1,0,487805,,,,,
58230,set_tempo,,,,,20,1,0,508475,,,,,
58240,set_tempo,,,,,10,1,0,540541,,,,,
58250,set_tempo,,,,,10,1,0,560748,,,,,
58260,note_off,,,,,0,0,2,,,,0,36,64
58260,set_tempo,,,,,10,1,0,588235,,,,,
58260,note_off,,,,,0,0,2,,,,0,48,64
58260,note_off,,,,,180,0,2,,,,0,43,64
58270,set_tempo,,,,,10,1,0,594059,,,,,
58280,set_tempo,,,,,10,1,0,600000,,,,,
58310,set_tempo,,,,,30,1,0,1016949,,,,,
58312,control_change,,,,,112,0,1,,64,0,0,,
58320,note_on,,,,,0,0,2,,,,0,36,39
58320,note_on,,,,,0,0,2,,,,0,43,39
58320,note_on,,,,,60,0,2,,,,0,48,39
58320,note_on,,,,,0,0,1,,,,0,51,33
58320,note_on,,,,,0,0,1,,,,0,60,33
58320,control_change,,,,,0,0,1,,64,96,0,,
58320,note_off,,,,,8,0,1,,,,0,60,64
58500,note_off,,,,,180,0,1,,,,0,60,64
58500,note_off,,,,,0,0,1,,,,0,51,64
58500,note_off,,,,,0,0,2,,,,0,48,64
58500,note_off,,,,,180,0,2,,,,0,36,64
58500,note_off,,,,,0,0,2,,,,0,43,64
58552,control_change,,,,,52,0,1,,64,0,0,,
58560,set_tempo,,,,,250,1,0,333333,,,,,
58560,control_change,,,,,8,0,1,,64,95,0,,
59040,control_change,,,,,480,0,1,,64,0,0,,
59760,marker,,,,,1200,1,0,,,,,,
60240,note_on,,,,,1200,0,1,,,,0,60,46
60250,set_tempo,,,,,490,1,0,329670,,,,,
60420,note_off,,,,,180,0,1,,,,0,60,64
60460,set_tempo,,,,,210,1,0,327869,,,,,
60480,control_change,,,,,0,0,1,,64,95,0,,
60480,note_on,,,,,60,0,1,,,,0,60,54
60580,set_tempo,,,,,120,1,0,324324,,,,,
60670,set_tempo,,,,,90,1,0,322581,,,,,
60712,control_change,,,,,232,0,1,,64,0,0,,
60720,note_off,,,,,8,0,1,,,,0,60,64
60720,note_on,,,,,0,0,2,,,,0,44,35
60720,note_on,,,,,2220,0,2,,,,0,51,35
60720,control_change,,,,,0,0,1,,64,96,0,,
60720,note_on,,,,,0,0,1,,,,0,63,40
60770,set_tempo,,,,,100,1,0,320856,,,,,
60840,note_on,,,,,0,0,1,,,,0,61,47
60840,note_off,,,,,120,0,1,,,,0,63,64
60930,note_off,,,,,210,0,2,,,,0,44,64
60930,note_off,,,,,0,0,2,,,,0,51,64
60952,control_change,,,,,112,0,1,,64,0,0,,
60960,note_on,,,,,0,0,2,,,,0,51,41
60960,note_on,,,,,30,0,2,,,,0,44,41
60960,note_off,,,,,8,0,1,,,,0,61,64
60960,note_on,,,,,0,0,1,,,,0,60,54
60960,control_change,,,,,0,0,1,,64,95,0,,
61080,note_off,,,,,120,0,1,,,,0,60,64
61170,note_off,,,,,210,0,2,,,,0,51,64
61170,note_off,,,,,0,0,2,,,,0,44,64
61186,control_change,,,,,106,0,1,,64,0,0,,
61200,note_on,,,,,14,0,1,,,,0,60,59
61200,control_change,,,,,0,0,1,,64,96,0,,
61260,set_tempo,,,,,490,1,0,322581,,,,,
61320,set_tempo,,,,,60,1,0,324324,,,,,
61370,set_tempo,,,,,50,1,0,327869,,,,,
61430,set_tempo,,,,,60,1,0,329670,,,,,
61440,note_on,,,,,270,0,2,,,,0,44,43
61440,note_on,,,,,0,0,2,,,,0,51,43
61490,set_tempo,,,,,60,1,0,327869,,,,,
61560,set_tempo,,,,,70,1,0,324324,,,,,
61620,set_tempo,,,,,60,1,0,322581,,,,,
61650,note_off,,,,,210,0,2,,,,0,51,64
61650,note_off,,,,,0,0,2,,,,0,44,64
61672,control_change,,,,,472,0,1,,64,0,0,,
61680,note_on,,,,,0,0,1,,,,0,60,45
61680,note_off,,,,,8,0,1,,,,0,60,64
61680,note_on,,,,,0,0,2,,,,0,51,33
61680,note_on,,,,,30,0,2,,,,0,45,33
61720,set_tempo,,,,,100,1,0,320856,,,,,
61830,set_tempo,,,,,110,1,0,317460,,,,,
61890,note_off,,,,,0,0,2,,,,0,45,64
61890,note_off,,,,,210,0,2,,,,0,51,64
61890,note_off,,,,,210,0,1,,,,0,60,64
61890,set_tempo,,,,,60,1,0,315789,,,,,
61920,control_change,,,,,0,0,1,,64,96,0,,
61920,note_on,,,,,30,0,1,,,,0,60,54
61990,set_tempo,,,,,100,1,0,314136,,,,,
62040,note_off,,,,,120,0,1,,,,0,60,64
62040,note_on,,,,,0,0,1,,,,0,61,42
62152,control_change,,,,,112,0,1,,64,0,0,,
62160,note_off,,,,,8,0,1,,,,0,61,64
62160,control_change,,,,,0,0,1,,64,95,0,,
62160,note_on,,,,,0,0,1,,,,0,63,46
62160,note_on,,,,,0,0,2,,,,0,51,36
62160,note_on,,,,,270,0,2,,,,0,46,36
62190,set_tempo,,,,,200,1,0,315789,,,,,
62230,set_tempo,,,,,40,1,0,317460,,,,,
62270,set_tempo,,,,,40,1,0,320856,,,,,
62280,note_on,,,,,0,0,1,,,,0,61,50
62280,note_off,,,,,120,0,1,,,,0,63,64
62310,set_tempo,,,,,40,1,0,322581,,,,,
62340,set_tempo,,,,,30,1,0,324324,,,,,
62350,set_tempo,,,,,10,1,0,327869,,,,,
62386,control_change,,,,,106,0,1,,64,0,0,,
62390,set_tempo,,,,,40,1,0,329670,,,,,
62400,note_on,,,,,0,0,2,,,,0,48,42
62400,note_on,,,,,0,0,2,,,,0,51,42
62400,note_off,,,,,240,0,2,,,,0,51,64
62400,note_off,,,,,0,0,2,,,,0,46,64
62400,note_off,,,,,14,0,1,,,,0,61,64
62400,note_on,,,,,0,0,1,,,,0,60,53
62400,control_change,,,,,0,0,1,,64,95,0,,
62410,set_tempo,,,,,20,1,0,331492,,,,,
62440,set_tempo,,,,,30,1,0,333333,,,,,
62470,set_tempo,,,,,30,1,0,335196,,,,,
62500,set_tempo,,,,,30,1,0,337079,,,,,
62520,note_off,,,,,120,0,1,,,,0,60,64
62520,note_on,,,,,0,0,1,,,,0,58,57
62520,set_tempo,,,,,20,1,0,338983,,,,,
62560,set_tempo,,,,,40,1,0,342857,,,,,
62580,set_tempo,,,,,20,1,0,344828,,,,,
62590,set_tempo,,,,,10,1,0,342857,,,,,
62632,control_change,,,,,112,0,1,,64,0,0,,
62640,note_off,,,,,8,0,1,,,,0,58,64
62640,note_on,,,,,0,0,1,,,,0,58,62
62640,control_change,,,,,0,0,1,,64,96,0,,
62640,note_on,,,,,0,0,2,,,,0,49,53
62640,note_off,,,,,0,0,2,,,,0,51,64
62640,note_on,,,,,0,0,2,,,,0,51,53
62640,set_tempo,,,,,50,1,0,344828,,,,,
62640,note_off,,,,,240,0,2,,,,0,48,64
62690,set_tempo,,,,,50,1,0,346821,,,,,
62820,set_tempo,,,,,130,1,0,348837,,,,,
62900,set_tempo,,,,,80,1,0,350877,,,,,
62940,set_tempo,,,,,40,1,0,352941,,,,,
62980,set_tempo,,,,,40,1,0,355030,,,,,
63020,set_tempo,,,,,40,1,0,361446,,,,,
63030,set_tempo,,,,,10,1,0,363636,,,,,
63060,set_tempo,,,,,30,1,0,365854,,,,,
63080,set_tempo,,,,,20,1,0,368098,,,,,
63112,control_change,,,,,472,0,1,,64,0,0,,
63120,set_tempo,,,,,40,1,0,370370,,,,,
63120,note_off,,,,,8,0,1,,,,0,58,64
63120,note_on,,,,,0,0,1,,,,0,59,41
63120,control_change,,,,,0,0,1,,64,94,0,,
63140,set_tempo,,,,,20,1,0,372671,,,,,
63170,set_tempo,,,,,30,1,0,377358,,,,,
63190,set_tempo,,,,,20,1,0,379747,,,,,
63220,set_tempo,,,,,30,1,0,382166,,,,,
63230,set_tempo,,,,,10,1,0,384615,,,,,
63250,set_tempo,,,,,20,1,0,387097,,,,,
63270,set_tempo,,,,,20,1,0,389610,,,,,
63280,set_tempo,,,,,10,1,0,392157,,,,,
63292,control_change,,,,,172,0,1,,64,0,0,,
63300,note_off,,,,,0,0,2,,,,0,51,64
63300,note_off,,,,,660,0,2,,,,0,49,64
63300,note_off,,,,,8,0,1,,,,0,59,64
63300,set_tempo,,,,,20,1,0,389610,,,,,
63360,note_on,,,,,0,0,1,,,,0,72,56
63360,note_on,,,,,60,0,1,,,,0,60,56
63360,control_change,,,,,0,0,1,,64,96,0,,
63370,set_tempo,,,,,70,1,0,342857,,,,,
63430,set_tempo,,,,,60,1,0,338983,,,,,
63600,note_on,,,,,300,0,2,,,,0,48,38
63600,note_on,,,,,0,0,2,,,,0,52,38
63710,set_tempo,,,,,280,1,0,337079,,,,,
63810,note_off,,,,,0,0,2,,,,0,48,64
63810,note_off,,,,,210,0,2,,,,0,52,64
63840,note_off,,,,,0,0,1,,,,0,60,64
63840,note_on,,,,,0,0,1,,,,0,55,51
63840,note_on,,,,,0,0,1,,,,0,67,51
63840,note_on,,,,,0,0,2,,,,0,52,31
63840,note_off,,,,,480,0,1,,,,0,72,64
63840,note_on,,,,,30,0,2,,,,0,48,31
63870,set_tempo,,,,,160,1,0,335196,,,,,
63950,set_tempo,,,,,80,1,0,333333,,,,,
63960,note_off,,,,,0,0,1,,,,0,55,64
63960,note_off,,,,,120,0,1,,,,0,67,64
64050,note_off,,,,,210,0,2,,,,0,52,64
64050,note_off,,,,,0,0,2,,,,0,48,64
64072,control_change,,,,,112,0,1,,64,0,0,,
64080,note_on,,,,,0,0,1,,,,0,68,61
64080,note_on,,,,,8,0,1,,,,0,56,61
64080,control_change,,,,,0,0,1,,64,95,0,,
64170,set_tempo,,,,,220,1,0,331492,,,,,
64230,set_tempo,,,,,60,1,0,329670,,,,,
64320,note_on,,,,,270,0,2,,,,0,41,48
64320,note_on,,,,,0,0,2,,,,0,53,48
64320,note_on,,,,,0,0,2,,,,0,48,48
64390,set_tempo,,,,,160,1,0,327869,,,,,
64510,set_tempo,,,,,120,1,0,324324,,,,,
64530,note_off,,,,,0,0,2,,,,0,48,64
64530,note_off,,,,,210,0,2,,,,0,53,64
64530,note_off,,,,,0,0,2,,,,0,41,64
64560,note_on,,,,,30,0,2,,,,0,41,40
64560,note_off,,,,,480,0,1,,,,0,68,64
64560,note_off,,,,,0,0,1,,,,0,56,64
64560,note_on,,,,,0,0,1,,,,0,65,57
64560,note_on,,,,,0,0,2,,,,0,48,40
64560,note_on,,,,,0,0,2,,,,0,53,40
64630,set_tempo,,,,,120,1,0,322581,,,,,
64680,note_off,,,,,120,0,1,,,,0,65,64
64740,set_tempo,,,,,110,1,0,320856,,,,,
64770,note_off,,,,,0,0,2,,,,0,48,64
64770,note_off,,,,,0,0,2,,,,0,41,64
64770,note_off,,,,,210,0,2,,,,0,53,64
64770,set_tempo,,,,,30,1,0,317460,,,,,
64792,control_change,,,,,112,0,1,,64,0,0,,
64800,note_on,,,,,0,0,1,,,,0,73,61
64800,note_on,,,,,8,0,1,,,,0,61,61
64800,control_change,,,,,0,0,1,,64,96,0,,
64810,set_tempo,,,,,40,1,0,315789,,,,,
64850,set_tempo,,,,,40,1,0,314136,,,,,
64890,set_tempo,,,,,40,1,0,310881,,,,,
64990,set_tempo,,,,,100,1,0,314136,,,,,
65040,set_tempo,,,,,50,1,0,315789,,,,,
65040,note_on,,,,,270,0,2,,,,0,46,45
65080,set_tempo,,,,,40,1,0,317460,,,,,
65170,set_tempo,,,,,90,1,0,320856,,,,,
65250,set_tempo,,,,,80,1,0,322581,,,,,
65280,note_off,,,,,0,0,1,,,,0,61,64
65280,note_off,,,,,480,0,1,,,,0,73,64
65280,note_on,,,,,0,0,2,,,,0,39,38
65280,note_off,,,,,240,0,2,,,,0,46,64
65280,note_on,,,,,0,0,2,,,,0,51,38
65280,note_on,,,,,0,0,1,,,,0,55,50
65280,note_on,,,,,0,0,1,,,,0,67,50
65340,set_tempo,,,,,90,1,0,324324,,,,,
65400,note_off,,,,,0,0,1,,,,0,55,64
65400,set_tempo,,,,,60,1,0,327869,,,,,
65400,note_off,,,,,120,0,1,,,,0,67,64
65490,note_off,,,,,0,0,2,,,,0,39,64
65490,note_off,,,,,210,0,2,,,,0,51,64
65490,set_tempo,,,,,90,1,0,329670,,,,,
65512,control_change,,,,,112,0,1,,64,0,0,,
65520,note_on,,,,,0,0,1,,,,0,56,40
65520,note_on,,,,,8,0,1,,,,0,68,40
65520,note_on,,,,,30,0,2,,,,0,44,49
65520,note_on,,,,,0,0,2,,,,0,48,49
65530,set_tempo,,,,,40,1,0,331492,,,,,
65610,set_tempo,,,,,80,1,0,333333,,,,,
65640,note_off,,,,,120,0,2,,,,0,44,64
65640,note_on,,,,,0,0,2,,,,0,39,59
65650,set_tempo,,,,,40,1,0,335196,,,,,
65690,set_tempo,,,,,40,1,0,337079,,,,,
65740,set_tempo,,,,,50,1,0,338983,,,,,
65760,note_off,,,,,120,0,2,,,,0,39,64
65760,note_on,,,,,0,0,2,,,,0,41,52
65780,set_tempo,,,,,40,1,0,342857,,,,,
65810,set_tempo,,,,,30,1,0,344828,,,,,
65860,set_tempo,,,,,50,1,0,346821,,,,,
65880,note_on,,,,,0,0,2,,,,0,43,46
65880,note_off,,,,,120,0,2,,,,0,41,64
65910,set_tempo,,,,,50,1,0,348837,,,,,
65940,note_off,,,,,420,0,1,,,,0,68,64
65980,set_tempo,,,,,70,1,0,350877,,,,,
66000,note_off,,,,,120,0,2,,,,0,43,64
66000,note_off,,,,,60,0,1,,,,0,56,64
66000,note_on,,,,,0,0,2,,,,0,44,41
66000,note_on,,,,,0,0,1,,,,0,60,46
66040,set_tempo,,,,,60,1,0,352941,,,,,
66140,set_tempo,,,,,100,1,0,392157,,,,,
66180,note_off,,,,,0,0,2,,,,0,48,64
66180,note_off,,,,,180,0,1,,,,0,60,64
66180,note_off,,,,,180,0,2,,,,0,44,64
66190,set_tempo,,,,,50,1,0,348837,,,,,
66240,control_change,,,,,0,0,1,,64,95,0,,
66240,note_on,,,,,60,0,1,,,,0,60,54
66270,set_tempo,,,,,80,1,0,346821,,,,,
66300,set_tempo,,,,,30,1,0,344828,,,,,
66320,set_tempo,,,,,20,1,0,342857,,,,,
66350,set_tempo,,,,,30,1,0,338983,,,,,
66370,set_tempo,,,,,20,1,0,337079,,,,,
66420,set_tempo,,,,,50,1,0,335196,,,,,
66450,set_tempo,,,,,30,1,0,333333,,,,,
66472,control_change,,,,,232,0,1,,64,0,0,,
66480,note_off,,,,,8,0,1,,,,0,60,64
66480,note_on,,,,,0,0,1,,,,0,63,40
66480,control_change,,,,,0,0,1,,64,96,0,,
66480,note_on,,,,,300,0,2,,,,0,51,35
66480,note_on,,,,,0,0,2,,,,0,44,35
66520,set_tempo,,,,,70,1,0,331492,,,,,
66600,note_on,,,,,0,0,1,,,,0,61,47
66600,set_tempo,,,,,80,1,0,329670,,,,,
66600,note_off,,,,,120,0,1,,,,0,63,64
66690,note_off,,,,,0,0,2,,,,0,51,64
66690,note_off,,,,,210,0,2,,,,0,44,64
66700,set_tempo,,,,,100,1,0,327869,,,,,
66712,control_change,,,,,112,0,1,,64,0,0,,
66720,note_on,,,,,30,0,2,,,,0,44,41
66720,control_change,,,,,0,0,1,,64,95,0,,
66720,note_on,,,,,0,0,1,,,,0,60,54
66720,note_on,,,,,0,0,2,,,,0,51,41
66720,note_off,,,,,8,0,1,,,,0,61,64
66770,set_tempo,,,,,70,1,0,324324,,,,,
66840,note_off,,,,,120,0,1,,,,0,60,64
66910,set_tempo,,,,,140,1,0,322581,,,,,
66930,note_off,,,,,210,0,2,,,,0,51,64
66930,note_off,,,,,0,0,2,,,,0,44,64
66946,control_change,,,,,106,0,1,,64,0,0,,
66960,control_change,,,,,0,0,1,,64,96,0,,
66960,note_on,,,,,14,0,1,,,,0,60,59
67080,set_tempo,,,,,170,1,0,324324,,,,,
67130,set_tempo,,,,,50,1,0,327869,,,,,
67190,set_tempo,,,,,60,1,0,329670,,,,,
67200,note_on,,,,,270,0,2,,,,0,44,43
67200,note_on,,,,,0,0,2,,,,0,51,43
67250,set_tempo,,,,,60,1,0,327869,,,,,
67320,set_tempo,,,,,70,1,0,324324,,,,,
67380,set_tempo,,,,,60,1,0,322581,,,,,
67410,note_off,,,,,210,0,2,,,,0,51,64
67410,note_off,,,,,0,0,2,,,,0,44,64
67432,control_change,,,,,472,0,1,,64,0,0,,
67440,note_on,,,,,30,0,2,,,,0,45,33
67440,note_on,,,,,0,0,2,,,,0,51,33
67440,note_off,,,,,8,0,1,,,,0,60,64
67440,note_on,,,,,0,0,1,,,,0,60,45
67480,set_tempo,,,,,100,1,0,320856,,,,,
67590,set_tempo,,,,,110,1,0,317460,,,,,
67650,note_off,,,,,0,0,2,,,,0,45,64
67650,set_tempo,,,,,60,1,0,315789,,,,,
67650,note_off,,,,,210,0,2,,,,0,51,64
67650,note_off,,,,,210,0,1,,,,0,60,64
67680,note_on,,,,,30,0,1,,,,0,60,54
67680,control_change,,,,,0,0,1,,64,96,0,,
67750,set_tempo,,,,,100,1,0,314136,,,,,
67800,note_on,,,,,0,0,1,,,,0,61,42
67800,note_off,,,,,120,0,1,,,,0,60,64
67912,control_change,,,,,112,0,1,,64,0,0,,
67920,note_off,,,,,8,0,1,,,,0,61,64
67920,note_on,,,,,270,0,2,,,,0,46,36
67920,note_on,,,,,0,0,2,,,,0,51,36
67920,control_change,,,,,0,0,1,,64,95,0,,
67920,note_on,,,,,0,0,1,,,,0,63,46
67950,set_tempo,,,,,200,1,0,315789,,,,,
67990,set_tempo,,,,,40,1,0,317460,,,,,
68030,set_tempo,,,,,40,1,0,320856,,,,,
68040,note_on,,,,,0,0,1,,,,0,61,50
68040,note_off,,,,,120,0,1,,,,0,63,64
68070,set_tempo,,,,,40,1,0,322581,,,,,
68100,set_tempo,,,,,30,1,0,324324,,,,,
68110,set_tempo,,,,,10,1,0,327869,,,,,
68146,control_change,,,,,106,0,1,,64,0,0,,
68150,set_tempo,,,,,40,1,0,329670,,,,,
68160,note_off,,,,,14,0,1,,,,0,61,64
68160,note_on,,,,,0,0,2,,,,0,51,42
68160,note_off,,,,,0,0,2,,,,0,46,64
68160,note_off,,,,,240,0,2,,,,0,51,64
68160,control_change,,,,,0,0,1,,64,95,0,,
68160,note_on,,,,,0,0,1,,,,0,60,53
68160,note_on,,,,,0,0,2,,,,0,48,42
68170,set_tempo,,,,,20,1,0,331492,,,,,
68200,set_tempo,,,,,30,1,0,333333,,,,,
68230,set_tempo,,,,,30,1,0,335196,,,,,
68260,set_tempo,,,,,30,1,0,337079,,,,,
68280,set_tempo,,,,,20,1,0,338983,,,,,
68280,note_on,,,,,0,0,1,,,,0,58,57
68280,note_off,,,,,120,0,1,,,,0,60,64
68320,set_tempo,,,,,40,1,0,342857,,,,,
68340,set_tempo,,,,,20,1,0,344828,,,,,
68350,set_tempo,,,,,10,1,0,342857,,,,,
68392,control_change,,,,,112,0,1,,64,0,0,,
68400,note_off,,,,,0,0,2,,,,0,51,64
68400,note_off,,,,,8,0,1,,,,0,58,64
68400,note_on,,,,,0,0,1,,,,0,58,62
68400,control_change,,,,,0,0,1,,64,96,0,,
68400,note_on,,,,,0,0,2,,,,0,49,53
68400,note_on,,,,,0,0,2,,,,0,51,53
68400,note_off,,,,,240,0,2,,,,0,48,64
68400,set_tempo,,,,,50,1,0,344828,,,,,
68450,set_tempo,,,,,50,1,0,346821,,,,,
68580,set_tempo,,,,,130,1,0,348837,,,,,
68660,set_tempo,,,,,80,1,0,350877,,,,,
68700,set_tempo,,,,,40,1,0,352941,,,,,
68740,set_tempo,,,,,40,1,0,355030,,,,,
68780,set_tempo,,,,,40,1,0,361446,,,,,
68790,set_tempo,,,,,10,1,0,363636,,,,,
68820,set_tempo,,,,,30,1,0,365854,,,,,
68840,set_tempo,,,,,20,1,0,368098,,,,,
68872,control_change,,,,,472,0,1,,64,0,0,,
68880,note_off,,,,,8,0,1,,,,0,58,64
68880,set_tempo,,,,,40,1,0,370370,,,,,
68880,control_change,,,,,0,0,1,,64,94,0,,
68880,note_on,,,,,0,0,1,,,,0,59,41
68900,set_tempo,,,,,20,1,0,372671,,,,,
68930,set_tempo,,,,,30,1,0,377358,,,,,
68950,set_tempo,,,,,20,1,0,379747,,,,,
68980,set_tempo,,,,,30,1,0,382166,,,,,
68990,set_tempo,,,,,10,1,0,384615,,,,,
69010,set_tempo,,,,,20,1,0,387097,,,,,
69030,set_tempo,,,,,20,1,0,389610,,,,,
69040,set_tempo,,,,,10,1,0,392157,,,,,
69052,control_change,,,,,172,0,1,,64,0,0,,
69060,note_off,,,,,8,0,1,,,,0,59,64
69060,note_off,,,,,660,0,2,,,,0,49,64
69060,set_tempo,,,,,20,1,0,389610,,,,,
69060,note_off,,,,,0,0,2,,,,0,51,64
69120,note_on,,,,,60,0,1,,,,0,60,56
69120,control_change,,,,,0,0,1,,64,96,0,,
69120,note_on,,,,,0,0,1,,,,0,72,56
69130,set_tempo,,,,,70,1,0,342857,,,,,
69190,set_tempo,,,,,60,1,0,338983,,,,,
69360,note_on,,,,,0,0,2,,,,0,52,38
69360,note_on,,,,,300,0,2,,,,0,48,38
69470,set_tempo,,,,,280,1,0,337079,,,,,
69570,note_off,,,,,0,0,2,,,,0,48,64
69570,note_off,,,,,210,0,2,,,,0,52,64
69600,note_on,,,,,0,0,1,,,,0,55,54
69600,note_on,,,,,30,0,2,,,,0,48,31
69600,note_on,,,,,0,0,2,,,,0,52,31
69600,note_off,,,,,480,0,1,,,,0,72,64
69600,note_on,,,,,0,0,1,,,,0,67,54
69600,note_off,,,,,0,0,1,,,,0,60,64
69630,set_tempo,,,,,160,1,0,335196,,,,,
69710,set_tempo,,,,,80,1,0,333333,,,,,
69720,note_off,,,,,0,0,1,,,,0,55,64
69720,note_off,,,,,120,0,1,,,,0,67,64
69810,note_off,,,,,0,0,2,,,,0,48,64
69810,note_off,,,,,210,0,2,,,,0,52,64
69832,control_change,,,,,112,0,1,,64,0,0,,
69840,note_on,,,,,8,0,1,,,,0,56,61
69840,note_on,,,,,0,0,1,,,,0,68,61
69840,control_change,,,,,0,0,1,,64,95,0,,
69990,set_tempo,,,,,280,1,0,331492,,,,,
70080,note_on,,,,,0,0,2,,,,0,48,48
70080,note_on,,,,,0,0,2,,,,0,53,48
70080,note_on,,,,,270,0,2,,,,0,41,48
70290,note_off,,,,,0,0,2,,,,0,48,64
70290,note_off,,,,,0,0,2,,,,0,41,64
70290,note_off,,,,,210,0,2,,,,0,53,64
70320,note_off,,,,,0,0,1,,,,0,56,64
70320,note_on,,,,,0,0,2,,,,0,48,40
70320,note_on,,,,,30,0,2,,,,0,41,40
70320,note_on,,,,,0,0,1,,,,0,65,54
70320,note_on,,,,,0,0,2,,,,0,53,40
70320,note_off,,,,,480,0,1,,,,0,68,64
70440,note_off,,,,,120,0,1,,,,0,65,64
70530,note_off,,,,,210,0,2,,,,0,53,64
70530,note_off,,,,,0,0,2,,,,0,41,64
70530,note_off,,,,,0,0,2,,,,0,48,64
70552,control_change,,,,,112,0,1,,64,0,0,,
70560,control_change,,,,,0,0,1,,64,96,0,,
70560,note_on,,,,,0,0,1,,,,0,73,60
70560,note_on,,,,,8,0,1,,,,0,61,60
70800,note_on,,,,,270,0,2,,,,0,46,45
70880,set_tempo,,,,,890,1,0,333333,,,,,
70890,set_tempo,,,,,10,1,0,331492,,,,,
70920,set_tempo,,,,,30,1,0,333333,,,,,
71000,set_tempo,,,,,80,1,0,335196,,,,,
71040,note_on,,,,,0,0,1,,,,0,55,48
71040,note_off,,,,,240,0,2,,,,0,46,64
71040,note_on,,,,,0,0,2,,,,0,39,38
71040,note_on,,,,,0,0,2,,,,0,51,38
71040,note_off,,,,,480,0,1,,,,0,73,64
71040,note_off,,,,,0,0,1,,,,0,61,64
71040,note_on,,,,,0,0,1,,,,0,67,48
71080,set_tempo,,,,,80,1,0,337079,,,,,
71100,set_tempo,,,,,20,1,0,338983,,,,,
71130,set_tempo,,,,,30,1,0,342857,,,,,
71160,note_off,,,,,0,0,1,,,,0,55,64
71160,note_off,,,,,120,0,1,,,,0,67,64
71190,set_tempo,,,,,60,1,0,344828,,,,,
71210,set_tempo,,,,,20,1,0,346821,,,,,
71230,set_tempo,,,,,20,1,0,348837,,,,,
71250,set_tempo,,,,,20,1,0,350877,,,,,
71250,note_off,,,,,0,0,2,,,,0,39,64
71250,note_off,,,,,210,0,2,,,,0,51,64
71272,control_change,,,,,112,0,1,,64,0,0,,
71280,note_on,,,,,0,0,2,,,,0,48,49
71280,note_on,,,,,0,0,1,,,,0,56,39
71280,note_on,,,,,8,0,1,,,,0,68,39
71280,note_on,,,,,30,0,2,,,,0,44,49
71310,set_tempo,,,,,60,1,0,361446,,,,,
71370,set_tempo,,,,,60,1,0,363636,,,,,
71380,set_tempo,,,,,10,1,0,365854,,,,,
71400,note_off,,,,,120,0,2,,,,0,44,64
71400,note_on,,,,,0,0,2,,,,0,39,48
71440,set_tempo,,,,,60,1,0,368098,,,,,
71460,set_tempo,,,,,20,1,0,377358,,,,,
71480,set_tempo,,,,,20,1,0,384615,,,,,
71490,set_tempo,,,,,10,1,0,392157,,,,,
71520,note_off,,,,,120,0,2,,,,0,39,64
71520,note_on,,,,,0,0,2,,,,0,41,45
71550,set_tempo,,,,,60,1,0,405405,,,,,
71570,set_tempo,,,,,20,1,0,422535,,,,,
71630,set_tempo,,,,,60,1,0,434783,,,,,
71640,note_on,,,,,0,0,2,,,,0,43,42
71640,note_off,,,,,120,0,2,,,,0,41,64
71650,set_tempo,,,,,20,1,0,451128,,,,,
71670,set_tempo,,,,,20,1,0,461538,,,,,
71700,note_off,,,,,420,0,1,,,,0,68,64
71730,set_tempo,,,,,60,1,0,483871,,,,,
71740,set_tempo,,,,,10,1,0,500000,,,,,
71760,note_off,,,,,120,0,2,,,,0,43,64
71760,note_on,,,,,0,0,2,,,,0,44,38
71760,note_off,,,,,60,0,1,,,,0,56,64
71760,control_change,,,,,0,0,1,,64,95,0,,
71760,set_tempo,,,,,20,1,0,521739,,,,,
71780,set_tempo,,,,,20,1,0,545455,,,,,
71800,set_tempo,,,,,20,1,0,560748,,,,,
71810,set_tempo,,,,,10,1,0,571429,,,,,
71830,set_tempo,,,,,20,1,0,600000,,,,,
71860,set_tempo,,,,,30,1,0,594059,,,,,
71940,note_off,,,,,0,0,2,,,,0,48,64
71940,note_off,,,,,180,0,2,,,,0,44,64
72000,control_change,,,,,0,0,1,,64,0,0,,
72000,note_on,,,,,0,0,2,,,,0,55,61
72000,note_on,,,,,60,0,2,,,,0,51,61
72000,note_on,,,,,240,0,1,,,,0,70,52
72000,set_tempo,,,,,140,1,0,333333,,,,,
72020,set_tempo,,,,,20,1,0,331492,,,,,
72060,set_tempo,,,,,40,1,0,329670,,,,,
72100,set_tempo,,,,,40,1,0,327869,,,,,
72120,note_on,,,,,0,0,2,,,,0,46,50
72120,note_off,,,,,120,0,2,,,,0,51,64
72180,set_tempo,,,,,80,1,0,324324,,,,,
72240,note_on,,,,,0,0,2,,,,0,48,41
72240,note_off,,,,,120,0,2,,,,0,46,64
72260,set_tempo,,,,,80,1,0,322581,,,,,
72360,note_on,,,,,0,0,2,,,,0,50,36
72360,note_off,,,,,120,0,2,,,,0,48,64
72400,set_tempo,,,,,140,1,0,320856,,,,,
72430,set_tempo,,,,,30,1,0,317460,,,,,
72450,note_off,,,,,450,0,1,,,,0,70,64
72480,note_on,,,,,0,0,2,,,,0,51,30
72480,note_on,,,,,30,0,1,,,,0,70,55
72480,note_off,,,,,120,0,2,,,,0,50,64
72540,set_tempo,,,,,110,1,0,315789,,,,,
72600,note_off,,,,,0,0,2,,,,0,55,64
72600,note_off,,,,,120,0,2,,,,0,51,64
72640,set_tempo,,,,,100,1,0,314136,,,,,
72690,note_off,,,,,210,0,1,,,,0,70,64
72720,note_on,,,,,120,0,2,,,,0,51,61
72720,note_on,,,,,0,0,2,,,,0,55,61
72720,note_on,,,,,30,0,1,,,,0,70,63
72740,set_tempo,,,,,100,1,0,310881,,,,,
72840,note_off,,,,,120,0,2,,,,0,51,64
72840,note_on,,,,,0,0,2,,,,0,46,47
72840,set_tempo,,,,,100,1,0,309278,,,,,
72960,note_on,,,,,0,0,2,,,,0,48,42
72960,note_on,,,,,0,0,1,,,,0,75,54
72960,note_off,,,,,240,0,1,,,,0,70,64
72960,note_off,,,,,120,0,2,,,,0,46,64
73070,set_tempo,,,,,230,1,0,307692,,,,,
73080,note_off,,,,,120,0,2,,,,0,48,64
73080,note_on,,,,,0,0,2,,,,0,50,34
73200,note_off,,,,,120,0,2,,,,0,50,64
73200,note_on,,,,,0,0,2,,,,0,51,31
73200,note_off,,,,,240,0,1,,,,0,75,64
73200,note_on,,,,,0,0,1,,,,0,70,46
73240,set_tempo,,,,,170,1,0,306122,,,,,
73320,note_off,,,,,120,0,1,,,,0,70,64
73320,note_off,,,,,120,0,2,,,,0,51,64
73320,note_off,,,,,0,0,2,,,,0,55,64
73440,note_on,,,,,120,0,1,,,,0,70,61
73440,note_on,,,,,0,0,2,,,,0,56,53
73440,note_on,,,,,120,0,2,,,,0,50,53
73560,note_on,,,,,0,0,1,,,,0,71,44
73560,note_off,,,,,120,0,1,,,,0,70,64
73680,note_on,,,,,0,0,1,,,,0,70,48
73680,note_off,,,,,120,0,1,,,,0,71,64
73800,note_on,,,,,0,0,1,,,,0,68,51
73800,note_off,,,,,120,0,1,,,,0,70,64
73920,note_off,,,,,480,0,2,,,,0,50,64
73920,note_on,,,,,0,0,2,,,,0,46,40
73920,note_on,,,,,0,0,1,,,,0,67,54
73920,note_off,,,,,120,0,1,,,,0,68,64
73950,set_tempo,,,,,710,1,0,307692,,,,,
74040,note_off,,,,,120,0,2,,,,0,46,64
74040,note_off,,,,,0,0,2,,,,0,56,64
74040,note_off,,,,,120,0,1,,,,0,67,64
74040,note_on,,,,,0,0,1,,,,0,68,57
74070,set_tempo,,,,,120,1,0,309278,,,,,
74160,note_on,,,,,0,0,2,,,,0,55,57
74160,note_on,,,,,0,0,1,,,,0,70,61
74160,note_on,,,,,120,0,2,,,,0,51,57
74160,note_off,,,,,120,0,1,,,,0,68,64
74210,set_tempo,,,,,140,1,0,310881,,,,,
74280,note_off,,,,,120,0,2,,,,0,51,64
74280,note_on,,,,,0,0,2,,,,0,46,49
74290,set_tempo,,,,,80,1,0,314136,,,,,
74370,set_tempo,,,,,80,1,0,315789,,,,,
74400,note_off,,,,,120,0,2,,,,0,46,64
74400,note_on,,,,,0,0,2,,,,0,48,44
74410,set_tempo,,,,,40,1,0,317460,,,,,
74490,set_tempo,,,,,80,1,0,320856,,,,,
74520,note_off,,,,,120,0,2,,,,0,48,64
74520,note_on,,,,,0,0,2,,,,0,50,41
74600,set_tempo,,,,,110,1,0,322581,,,,,
74640,set_tempo,,,,,40,1,0,324324,,,,,
74640,note_off,,,,,120,0,2,,,,0,50,64
74640,note_on,,,,,0,0,2,,,,0,51,36
74680,set_tempo,,,,,40,1,0,327869,,,,,
74700,set_tempo,,,,,20,1,0,329670,,,,,
74720,set_tempo,,,,,20,1,0,331492,,,,,
74730,set_tempo,,,,,10,1,0,337079,,,,,
74740,set_tempo,,,,,10,1,0,338983,,,,,
74760,note_off,,,,,0,0,2,,,,0,55,64
74760,note_off,,,,,120,0,2,,,,0,51,64
74760,set_tempo,,,,,20,1,0,342857,,,,,
74770,set_tempo,,,,,10,1,0,346821,,,,,
74780,set_tempo,,,,,10,1,0,348837,,,,,
74800,set_tempo,,,,,20,1,0,361446,,,,,
74810,set_tempo,,,,,10,1,0,370370,,,,,
74820,set_tempo,,,,,10,1,0,389610,,,,,
74830,set_tempo,,,,,10,1,0,402685,,,,,
74840,set_tempo,,,,,10,1,0,550459,,,,,
74850,note_off,,,,,690,0,1,,,,0,70,64
74880,set_tempo,,,,,40,1,0,555556,,,,,
74880,note_on,,,,,0,0,2,,,,0,51,45
74880,note_on,,,,,120,0,2,,,,0,54,45
74880,note_on,,,,,30,0,1,,,,0,58,34
74880,control_change,,,,,0,0,1,,64,0,0,,
74890,set_tempo,,,,,10,1,0,368098,,,,,
74930,set_tempo,,,,,40,1,0,365854,,,,,
74950,set_tempo,,,,,20,1,0,363636,,,,,
74970,set_tempo,,,,,20,1,0,361446,,,,,
74980,set_tempo,,,,,10,1,0,355030,,,,,
75000,note_on,,,,,0,0,2,,,,0,46,37
75000,note_off,,,,,120,0,2,,,,0,51,64
75050,set_tempo,,,,,70,1,0,352941,,,,,
75110,set_tempo,,,,,60,1,0,350877,,,,,
75120,note_on,,,,,0,0,2,,,,0,48,29
75120,note_off,,,,,120,0,2,,,,0,46,64
75190,set_tempo,,,,,80,1,0,348837,,,,,
75210,set_tempo,,,,,20,1,0,346821,,,,,
75240,note_on,,,,,0,0,2,,,,0,50,28
75240,note_off,,,,,120,0,2,,,,0,48,64
75270,set_tempo,,,,,60,1,0,344828,,,,,
75330,set_tempo,,,,,60,1,0,342857,,,,,
75330,note_off,,,,,450,0,1,,,,0,58,64
75360,note_on,,,,,0,0,2,,,,0,51,25
75360,note_off,,,,,120,0,2,,,,0,50,64
75360,note_on,,,,,30,0,1,,,,0,58,43
75390,set_tempo,,,,,60,1,0,338983,,,,,
75450,set_tempo,,,,,60,1,0,337079,,,,,
75480,note_off,,,,,0,0,2,,,,0,54,64
75480,note_off,,,,,120,0,2,,,,0,51,64
75550,set_tempo,,,,,100,1,0,331492,,,,,
75570,note_off,,,,,210,0,1,,,,0,58,64
75600,note_on,,,,,120,0,2,,,,0,54,42
75600,note_on,,,,,30,0,1,,,,0,58,47
75600,note_on,,,,,0,0,2,,,,0,51,42
75630,set_tempo,,,,,80,1,0,329670,,,,,
75650,set_tempo,,,,,20,1,0,327869,,,,,
75710,set_tempo,,,,,60,1,0,324324,,,,,
75720,note_off,,,,,120,0,2,,,,0,51,64
75720,note_on,,,,,0,0,2,,,,0,46,36
75770,set_tempo,,,,,60,1,0,322581,,,,,
75840,note_on,,,,,0,0,1,,,,0,63,40
75840,note_off,,,,,240,0,1,,,,0,58,64
75840,note_off,,,,,120,0,2,,,,0,46,64
75840,note_on,,,,,0,0,2,,,,0,48,31
75910,set_tempo,,,,,140,1,0,320856,,,,,
75960,note_off,,,,,120,0,2,,,,0,48,64
75960,note_on,,,,,0,0,2,,,,0,50,27
75970,set_tempo,,,,,60,1,0,317460,,,,,
76030,set_tempo,,,,,60,1,0,315789,,,,,
76080,note_on,,,,,0,0,2,,,,0,51,22
76080,note_off,,,,,120,0,2,,,,0,50,64
76080,note_on,,,,,0,0,1,,,,0,58,33
76080,note_off,,,,,240,0,1,,,,0,63,64
76110,set_tempo,,,,,80,1,0,314136,,,,,
76200,note_off,,,,,120,0,2,,,,0,51,64
76200,note_off,,,,,0,0,2,,,,0,54,64
76200,note_off,,,,,120,0,1,,,,0,58,64
76230,set_tempo,,,,,120,1,0,310881,,,,,
76320,note_on,,,,,120,0,1,,,,0,58,46
76320,note_on,,,,,0,0,2,,,,0,50,37
76320,set_tempo,,,,,90,1,0,314136,,,,,
76320,note_on,,,,,120,0,2,,,,0,56,37
76350,set_tempo,,,,,30,1,0,315789,,,,,
76390,set_tempo,,,,,40,1,0,317460,,,,,
76400,set_tempo,,,,,10,1,0,320856,,,,,
76420,set_tempo,,,,,20,1,0,322581,,,,,
76430,set_tempo,,,,,10,1,0,324324,,,,,
76440,note_on,,,,,0,0,1,,,,0,59,29
76440,note_off,,,,,120,0,1,,,,0,58,64
76460,set_tempo,,,,,30,1,0,327869,,,,,
76480,set_tempo,,,,,20,1,0,329670,,,,,
76500,set_tempo,,,,,20,1,0,331492,,,,,
76510,set_tempo,,,,,10,1,0,333333,,,,,
76550,set_tempo,,,,,40,1,0,335196,,,,,
76560,note_on,,,,,0,0,1,,,,0,58,35
76560,note_off,,,,,120,0,1,,,,0,59,64
76610,set_tempo,,,,,60,1,0,337079,,,,,
76620,set_tempo,,,,,10,1,0,338983,,,,,
76640,set_tempo,,,,,20,1,0,342857,,,,,
76650,note_off,,,,,330,0,2,,,,0,56,64
76670,set_tempo,,,,,30,1,0,344828,,,,,
76680,note_off,,,,,120,0,1,,,,0,58,64
76680,note_on,,,,,0,0,1,,,,0,56,40
76690,set_tempo,,,,,20,1,0,346821,,,,,
76720,set_tempo,,,,,30,1,0,348837,,,,,
76740,set_tempo,,,,,20,1,0,350877,,,,,
76800,note_off,,,,,150,0,2,,,,0,50,64
76800,note_off,,,,,120,0,1,,,,0,56,64
76800,note_on,,,,,0,0,1,,,,0,54,44
76800,set_tempo,,,,,60,1,0,352941,,,,,
76800,note_on,,,,,0,0,2,,,,0,46,26
76810,set_tempo,,,,,10,1,0,355030,,,,,
76880,set_tempo,,,,,70,1,0,365854,,,,,
76920,note_on,,,,,0,0,1,,,,0,56,47
76920,note_off,,,,,120,0,1,,,,0,54,64
76920,note_off,,,,,120,0,2,,,,0,46,64
76940,set_tempo,,,,,60,1,0,368098,,,,,
76960,set_tempo,,,,,20,1,0,370370,,,,,
76980,set_tempo,,,,,20,1,0,372671,,,,,
77040,note_on,,,,,0,0,1,,,,0,58,43
77040,note_off,,,,,120,0,1,,,,0,56,64
77040,note_on,,,,,120,0,2,,,,0,54,45
77040,note_on,,,,,0,0,2,,,,0,51,45
77060,set_tempo,,,,,80,1,0,377358,,,,,
77120,set_tempo,,,,,60,1,0,379747,,,,,
77160,note_on,,,,,0,0,2,,,,0,46,36
77160,note_off,,,,,120,0,2,,,,0,51,64
77180,set_tempo,,,,,60,1,0,382166,,,,,
77200,set_tempo,,,,,20,1,0,384615,,,,,
77240,set_tempo,,,,,40,1,0,387097,,,,,
77260,set_tempo,,,,,20,1,0,389610,,,,,
77280,note_on,,,,,0,0,2,,,,0,48,29
77280,note_off,,,,,120,0,2,,,,0,46,64
77300,set_tempo,,,,,40,1,0,392157,,,,,
77380,set_tempo,,,,,80,1,0,397351,,,,,
77390,set_tempo,,,,,10,1,0,400000,,,,,
77400,note_off,,,,,120,0,2,,,,0,48,64
77400,note_on,,,,,0,0,2,,,,0,50,26
77470,set_tempo,,,,,80,1,0,402685,,,,,
77490,set_tempo,,,,,20,1,0,405405,,,,,
77520,note_on,,,,,0,0,2,,,,0,51,23
77520,note_off,,,,,120,0,2,,,,0,50,64
77620,set_tempo,,,,,130,1,0,408163,,,,,
77640,note_off,,,,,0,0,2,,,,0,54,64
77640,note_off,,,,,120,0,2,,,,0,51,64
77720,set_tempo,,,,,100,1,0,413793,,,,,
77730,note_off,,,,,690,0,1,,,,0,58,64
77760,note_on,,,,,30,0,1,,,,0,70,53
77760,note_on,,,,,0,0,1,,,,0,66,53
77760,set_tempo,,,,,40,1,0,342857,,,,,
77830,set_tempo,,,,,70,1,0,338983,,,,,
77880,note_off,,,,,120,0,1,,,,0,66,64
77880,note_on,,,,,0,0,1,,,,0,68,43
77900,set_tempo,,,,,70,1,0,337079,,,,,
77910,set_tempo,,,,,10,1,0,335196,,,,,
77930,set_tempo,,,,,20,1,0,333333,,,,,
78000,note_off,,,,,120,0,1,,,,0,68,64
78000,note_on,,,,,360,0,2,,,,0,39,41
78000,note_on,,,,,0,0,1,,,,0,66,40
78010,set_tempo,,,,,80,1,0,331492,,,,,
78070,set_tempo,,,,,60,1,0,329670,,,,,
78120,note_on,,,,,0,0,1,,,,0,65,36
78120,note_off,,,,,120,0,1,,,,0,66,64
78130,set_tempo,,,,,60,1,0,327869,,,,,
78180,note_off,,,,,180,0,2,,,,0,39,64
78240,note_off,,,,,120,0,1,,,,0,65,64
78240,note_on,,,,,0,0,1,,,,0,63,32
78240,note_on,,,,,60,0,2,,,,0,42,31
78250,set_tempo,,,,,120,1,0,324324,,,,,
78310,set_tempo,,,,,60,1,0,322581,,,,,
78360,note_off,,,,,120,0,1,,,,0,63,64
78360,note_off,,,,,120,0,2,,,,0,42,64
78410,set_tempo,,,,,100,1,0,320856,,,,,
78480,note_on,,,,,0,0,1,,,,0,63,53
78480,note_on,,,,,0,0,1,,,,0,71,53
78480,note_off,,,,,120,0,1,,,,0,70,64
78490,set_tempo,,,,,80,1,0,317460,,,,,
78600,note_off,,,,,120,0,1,,,,0,63,64
78600,note_on,,,,,0,0,1,,,,0,65,47
78650,set_tempo,,,,,160,1,0,315789,,,,,
78710,set_tempo,,,,,60,1,0,314136,,,,,
78720,note_on,,,,,0,0,1,,,,0,66,39
78720,note_off,,,,,120,0,1,,,,0,65,64
78720,note_on,,,,,360,0,2,,,,0,32,47
78800,set_tempo,,,,,90,1,0,310881,,,,,
78840,note_off,,,,,120,0,1,,,,0,66,64
78840,note_on,,,,,0,0,1,,,,0,67,36
78900,note_off,,,,,180,0,2,,,,0,32,64
78960,note_on,,,,,60,0,2,,,,0,44,34
78960,note_on,,,,,0,0,1,,,,0,68,36
78960,note_off,,,,,120,0,1,,,,0,67,64
79080,note_on,,,,,0,0,1,,,,0,70,39
79080,note_off,,,,,120,0,1,,,,0,68,64
79080,note_off,,,,,120,0,2,,,,0,44,64
79200,note_off,,,,,120,0,1,,,,0,70,64
79200,note_off,,,,,0,0,1,,,,0,71,64
79200,note_on,,,,,0,0,1,,,,0,73,62
79200,note_on,,,,,0,0,1,,,,0,68,62
79320,note_off,,,,,120,0,1,,,,0,68,64
79320,note_on,,,,,0,0,1,,,,0,70,51
79420,set_tempo,,,,,620,1,0,314136,,,,,
79440,note_on,,,,,360,0,2,,,,0,37,53
79440,note_off,,,,,120,0,1,,,,0,70,64
79440,note_on,,,,,0,0,1,,,,0,68,46
79560,note_off,,,,,120,0,1,,,,0,68,64
79560,note_on,,,,,0,0,1,,,,0,66,46
79620,note_off,,,,,180,0,2,,,,0,37,64
79640,set_tempo,,,,,220,1,0,315789,,,,,
79680,note_on,,,,,0,0,1,,,,0,65,42
79680,note_on,,,,,60,0,2,,,,0,49,36
79680,note_off,,,,,120,0,1,,,,0,66,64
79710,set_tempo,,,,,70,1,0,317460,,,,,
79790,set_tempo,,,,,80,1,0,320856,,,,,
79800,note_off,,,,,120,0,2,,,,0,49,64
79800,note_off,,,,,120,0,1,,,,0,65,64
79920,note_off,,,,,120,0,1,,,,0,73,64
79920,note_on,,,,,0,0,1,,,,0,70,53
79920,note_on,,,,,0,0,1,,,,0,66,53
79950,set_tempo,,,,,160,1,0,322581,,,,,
80010,set_tempo,,,,,60,1,0,324324,,,,,
80040,note_off,,,,,120,0,1,,,,0,66,64
80040,note_on,,,,,0,0,1,,,,0,68,45
80120,set_tempo,,,,,110,1,0,327869,,,,,
80160,note_on,,,,,360,0,2,,,,0,42,41
80160,note_on,,,,,0,0,1,,,,0,66,37
80160,note_off,,,,,120,0,1,,,,0,68,64
80260,set_tempo,,,,,140,1,0,329670,,,,,
80280,note_off,,,,,120,0,1,,,,0,66,64
80280,note_on,,,,,0,0,1,,,,0,63,33
80340,note_off,,,,,180,0,2,,,,0,42,64
80340,set_tempo,,,,,80,1,0,331492,,,,,
80400,note_on,,,,,60,0,2,,,,0,49,31
80400,note_on,,,,,0,0,1,,,,0,61,28
80400,note_off,,,,,120,0,1,,,,0,63,64
80480,set_tempo,,,,,140,1,0,333333,,,,,
80520,note_off,,,,,120,0,1,,,,0,61,64
80520,note_off,,,,,120,0,2,,,,0,49,64
80530,set_tempo,,,,,50,1,0,335196,,,,,
80600,set_tempo,,,,,70,1,0,337079,,,,,
80640,note_on,,,,,0,0,1,,,,0,63,49
80640,note_off,,,,,120,0,1,,,,0,70,64
80640,note_on,,,,,0,0,1,,,,0,68,49
80680,set_tempo,,,,,80,1,0,338983,,,,,
80700,set_tempo,,,,,20,1,0,342857,,,,,
80760,note_off,,,,,120,0,1,,,,0,63,64
80760,note_on,,,,,0,0,1,,,,0,65,44
80780,set_tempo,,,,,80,1,0,344828,,,,,
80840,set_tempo,,,,,60,1,0,346821,,,,,
80880,note_on,,,,,360,0,2,,,,0,37,41
80880,note_on,,,,,0,0,1,,,,0,63,41
80880,note_off,,,,,120,0,1,,,,0,65,64
80910,set_tempo,,,,,70,1,0,348837,,,,,
80950,set_tempo,,,,,40,1,0,350877,,,,,
80990,set_tempo,,,,,40,1,0,352941,,,,,
81000,note_off,,,,,120,0,1,,,,0,63,64
81000,note_on,,,,,0,0,1,,,,0,61,40
81060,note_off,,,,,180,0,2,,,,0,37,64
81060,set_tempo,,,,,70,1,0,355030,,,,,
81070,set_tempo,,,,,10,1,0,361446,,,,,
81110,set_tempo,,,,,40,1,0,363636,,,,,
81120,note_off,,,,,0,0,1,,,,0,68,64
81120,note_off,,,,,120,0,1,,,,0,61,64
81120,note_on,,,,,60,0,2,,,,0,49,31
81120,note_on,,,,,0,0,1,,,,0,59,38
81120,note_on,,,,,0,0,1,,,,0,65,38
81140,set_tempo,,,,,30,1,0,365854,,,,,
81170,set_tempo,,,,,30,1,0,368098,,,,,
81190,set_tempo,,,,,20,1,0,370370,,,,,
81220,set_tempo,,,,,30,1,0,372671,,,,,
81240,note_off,,,,,0,0,1,,,,0,59,64
81240,note_off,,,,,120,0,2,,,,0,49,64
81240,note_off,,,,,120,0,1,,,,0,65,64
81250,set_tempo,,,,,30,1,0,377358,,,,,
81270,set_tempo,,,,,20,1,0,379747,,,,,
81300,set_tempo,,,,,30,1,0,382166,,,,,
81320,set_tempo,,,,,20,1,0,384615,,,,,
81350,set_tempo,,,,,30,1,0,387097,,,,,
81360,note_on,,,,,120,0,1,,,,0,58,43
81360,note_on,,,,,0,0,2,,,,0,49,39
81360,note_on,,,,,0,0,1,,,,0,66,43
81360,control_change,,,,,0,0,1,,64,95,0,,
81360,note_on,,,,,120,0,2,,,,0,42,39
81390,set_tempo,,,,,40,1,0,389610,,,,,
81450,set_tempo,,,,,60,1,0,392157,,,,,
81470,set_tempo,,,,,20,1,0,397351,,,,,
81520,set_tempo,,,,,50,1,0,400000,,,,,
81560,set_tempo,,,,,40,1,0,402685,,,,,
81580,set_tempo,,,,,20,1,0,400000,,,,,
81600,set_tempo,,,,,20,1,0,382166,,,,,
81610,set_tempo,,,,,10,1,0,379747,,,,,
81630,set_tempo,,,,,20,1,0,370370,,,,,
81650,set_tempo,,,,,20,1,0,363636,,,,,
81710,set_tempo,,,,,60,1,0,350877,,,,,
81730,set_tempo,,,,,20,1,0,344828,,,,,
81750,set_tempo,,,,,20,1,0,337079,,,,,
81770,set_tempo,,,,,20,1,0,333333,,,,,
81832,control_change,,,,,472,0,1,,64,0,0,,
81840,note_off,,,,,8,0,1,,,,0,66,64
81840,note_off,,,,,0,0,1,,,,0,58,64
81840,note_on,,,,,0,0,1,,,,0,67,60
81840,note_on,,,,,0,0,1,,,,0,61,60
81840,note_on,,,,,0,0,1,,,,0,58,60
81840,note_off,,,,,480,0,2,,,,0,49,64
81840,note_on,,,,,0,0,2,,,,0,39,60
81840,note_on,,,,,0,0,2,,,,0,51,60
81840,control_change,,,,,0,0,1,,64,97,0,,
81840,set_tempo,,,,,70,1,0,335196,,,,,
81840,note_off,,,,,0,0,2,,,,0,42,64
82080,note_off,,,,,240,0,1,,,,0,58,64
82080,note_off,,,,,0,0,1,,,,0,61,64
82080,note_on,,,,,0,0,1,,,,0,58,46
82080,note_on,,,,,0,0,1,,,,0,67,46
82080,note_off,,,,,0,0,1,,,,0,67,64
82080,note_on,,,,,0,0,1,,,,0,61,46
82080,note_off,,,,,0,0,2,,,,0,51,64
82080,note_on,,,,,0,0,2,,,,0,39,49
82080,note_off,,,,,240,0,2,,,,0,39,64
82080,note_on,,,,,0,0,2,,,,0,51,49
82220,set_tempo,,,,,380,1,0,333333,,,,,
82420,set_tempo,,,,,200,1,0,331492,,,,,
82552,control_change,,,,,472,0,1,,64,0,0,,
82560,note_on,,,,,0,0,1,,,,0,75,38
82560,note_off,,,,,0,0,1,,,,0,58,64
82560,note_off,,,,,0,0,1,,,,0,61,64
82560,note_off,,,,,8,0,1,,,,0,67,64
82560,note_off,,,,,480,0,2,,,,0,39,64
82680,note_off,,,,,120,0,1,,,,0,75,64
82680,set_tempo,,,,,260,1,0,329670,,,,,
82800,note_on,,,,,120,0,1,,,,0,75,45
82960,set_tempo,,,,,280,1,0,327869,,,,,
83150,set_tempo,,,,,190,1,0,324324,,,,,
83280,note_on,,,,,720,0,2,,,,0,41,31
83280,note_on,,,,,0,0,1,,,,0,74,34
83280,note_off,,,,,480,0,1,,,,0,75,64
83290,set_tempo,,,,,140,1,0,327869,,,,,
83370,set_tempo,,,,,80,1,0,329670,,,,,
83400,note_off,,,,,120,0,1,,,,0,74,64
83400,note_off,,,,,120,0,2,,,,0,41,64
83450,set_tempo,,,,,80,1,0,331492,,,,,
83490,set_tempo,,,,,40,1,0,333333,,,,,
83520,note_on,,,,,120,0,2,,,,0,41,45
83520,note_on,,,,,120,0,1,,,,0,74,42
83560,set_tempo,,,,,70,1,0,335196,,,,,
83640,set_tempo,,,,,80,1,0,337079,,,,,
83720,set_tempo,,,,,80,1,0,338983,,,,,
83780,set_tempo,,,,,60,1,0,342857,,,,,
83860,set_tempo,,,,,80,1,0,348837,,,,,
83960,set_tempo,,,,,100,1,0,355030,,,,,
84000,note_off,,,,,480,0,1,,,,0,74,64
84000,note_on,,,,,0,0,1,,,,0,63,33
84000,note_on,,,,,0,0,1,,,,0,73,33
84000,note_off,,,,,480,0,2,,,,0,41,64
84000,note_on,,,,,0,0,2,,,,0,43,30
84040,set_tempo,,,,,80,1,0,365854,,,,,
84060,set_tempo,,,,,20,1,0,372671,,,,,
84080,set_tempo,,,,,20,1,0,377358,,,,,
84120,note_off,,,,,120,0,1,,,,0,73,64
84120,note_off,,,,,0,0,1,,,,0,63,64
84120,note_off,,,,,120,0,2,,,,0,43,64
84120,note_off,,,,,0,0,2,,,,0,51,64
84140,set_tempo,,,,,60,1,0,384615,,,,,
84160,set_tempo,,,,,20,1,0,392157,,,,,
84220,set_tempo,,,,,60,1,0,402685,,,,,
84240,note_on,,,,,120,0,1,,,,0,73,36
84240,note_on,,,,,120,0,2,,,,0,43,40
84240,note_on,,,,,0,0,2,,,,0,51,40
84240,note_on,,,,,0,0,1,,,,0,63,36
84280,set_tempo,,,,,60,1,0,413793,,,,,
84300,set_tempo,,,,,20,1,0,425532,,,,,
84360,set_tempo,,,,,60,1,0,434783,,,,,
84370,set_tempo,,,,,10,1,0,447761,,,,,
84390,set_tempo,,,,,20,1,0,451128,,,,,
84400,set_tempo,,,,,10,1,0,461538,,,,,
84460,set_tempo,,,,,60,1,0,476190,,,,,
84470,set_tempo,,,,,10,1,0,487805,,,,,
84490,set_tempo,,,,,20,1,0,491803,,,,,
84510,set_tempo,,,,,20,1,0,521739,,,,,
84520,set_tempo,,,,,10,1,0,526316,,,,,
84530,set_tempo,,,,,10,1,0,530973,,,,,
84540,set_tempo,,,,,10,1,0,540541,,,,,
84550,set_tempo,,,,,10,1,0,545455,,,,,
84560,set_tempo,,,,,10,1,0,550459,,,,,
84580,set_tempo,,,,,20,1,0,555556,,,,,
84590,set_tempo,,,,,10,1,0,560748,,,,,
84650,set_tempo,,,,,60,1,0,566038,,,,,
84660,set_tempo,,,,,10,1,0,571429,,,,,
84670,set_tempo,,,,,10,1,0,588235,,,,,
84690,set_tempo,,,,,20,1,0,594059,,,,,
84700,set_tempo,,,,,10,1,0,600000,,,,,
84720,note_on,,,,,0,0,1,,,,0,72,40
84720,note_off,,,,,0,0,1,,,,0,73,64
84720,note_off,,,,,480,0,1,,,,0,63,64
84720,note_on,,,,,0,0,2,,,,0,44,38
84720,note_off,,,,,480,0,2,,,,0,43,64
84720,set_tempo,,,,,20,1,0,355030,,,,,
84810,set_tempo,,,,,90,1,0,352941,,,,,
84840,note_off,,,,,120,0,1,,,,0,72,64
84840,note_off,,,,,0,0,2,,,,0,51,64
84840,note_off,,,,,120,0,2,,,,0,44,64
84960,control_change,,,,,0,0,1,,64,95,0,,
84960,note_on,,,,,120,0,1,,,,0,72,45
85170,set_tempo,,,,,360,1,0,361446,,,,,
85190,set_tempo,,,,,20,1,0,350877,,,,,
85192,control_change,,,,,232,0,1,,64,0,0,,
85200,note_on,,,,,0,0,1,,,,0,75,36
85200,control_change,,,,,0,0,1,,64,96,0,,
85200,note_off,,,,,8,0,1,,,,0,72,64
85200,note_on,,,,,360,0,2,,,,0,51,28
85200,note_on,,,,,0,0,2,,,,0,44,28
85210,set_tempo,,,,,20,1,0,348837,,,,,
85220,set_tempo,,,,,10,1,0,346821,,,,,
85240,set_tempo,,,,,20,1,0,344828,,,,,
85260,set_tempo,,,,,20,1,0,342857,,,,,
85320,set_tempo,,,,,60,1,0,338983,,,,,
85320,note_on,,,,,0,0,1,,,,0,73,40
85320,note_off,,,,,120,0,1,,,,0,75,64
85360,set_tempo,,,,,40,1,0,337079,,,,,
85410,note_off,,,,,210,0,2,,,,0,44,64
85410,note_off,,,,,0,0,2,,,,0,51,64
85420,set_tempo,,,,,60,1,0,335196,,,,,
85432,control_change,,,,,112,0,1,,64,0,0,,
85440,note_on,,,,,30,0,2,,,,0,44,35
85440,note_off,,,,,8,0,1,,,,0,73,64
85440,note_on,,,,,0,0,1,,,,0,72,45
85440,control_change,,,,,0,0,1,,64,95,0,,
85440,note_on,,,,,0,0,2,,,,0,51,35
85510,set_tempo,,,,,90,1,0,333333,,,,,
85560,note_off,,,,,120,0,1,,,,0,72,64
85600,set_tempo,,,,,90,1,0,331492,,,,,
85630,set_tempo,,,,,30,1,0,400000,,,,,
85650,note_off,,,,,0,0,2,,,,0,44,64
85650,note_off,,,,,210,0,2,,,,0,51,64
85666,control_change,,,,,106,0,1,,64,0,0,,
85670,set_tempo,,,,,40,1,0,329670,,,,,
85680,control_change,,,,,0,0,1,,64,96,0,,
85680,note_on,,,,,14,0,1,,,,0,72,55
85690,set_tempo,,,,,20,1,0,327869,,,,,
85760,set_tempo,,,,,70,1,0,324324,,,,,
85850,set_tempo,,,,,90,1,0,327869,,,,,
85910,set_tempo,,,,,60,1,0,329670,,,,,
85920,note_on,,,,,0,0,2,,,,0,51,43
85920,note_on,,,,,270,0,2,,,,0,44,43
85970,set_tempo,,,,,60,1,0,327869,,,,,
86040,set_tempo,,,,,70,1,0,324324,,,,,
86100,set_tempo,,,,,60,1,0,322581,,,,,
86130,note_off,,,,,210,0,2,,,,0,51,64
86130,note_off,,,,,0,0,2,,,,0,44,64
86152,control_change,,,,,472,0,1,,64,0,0,,
86160,note_on,,,,,0,0,1,,,,0,72,45
86160,note_off,,,,,8,0,1,,,,0,72,64
86160,note_on,,,,,30,0,2,,,,0,45,33
86160,note_on,,,,,0,0,2,,,,0,51,33
86200,set_tempo,,,,,100,1,0,320856,,,,,
86310,set_tempo,,,,,110,1,0,317460,,,,,
86370,note_off,,,,,210,0,2,,,,0,51,64
86370,note_off,,,,,210,0,1,,,,0,72,64
86370,note_off,,,,,0,0,2,,,,0,45,64
86370,set_tempo,,,,,60,1,0,315789,,,,,
86400,note_on,,,,,30,0,1,,,,0,72,54
86400,control_change,,,,,0,0,1,,64,96,0,,
86470,set_tempo,,,,,100,1,0,314136,,,,,
86520,note_on,,,,,0,0,1,,,,0,73,42
86520,note_off,,,,,120,0,1,,,,0,72,64
86632,control_change,,,,,112,0,1,,64,0,0,,
86640,note_on,,,,,0,0,2,,,,0,51,36
86640,note_off,,,,,8,0,1,,,,0,73,64
86640,note_on,,,,,270,0,2,,,,0,46,36
86640,control_change,,,,,0,0,1,,64,95,0,,
86640,note_on,,,,,0,0,1,,,,0,75,46
86670,set_tempo,,,,,200,1,0,315789,,,,,
86710,set_tempo,,,,,40,1,0,317460,,,,,
86750,set_tempo,,,,,40,1,0,320856,,,,,
86760,note_off,,,,,120,0,1,,,,0,75,64
86760,note_on,,,,,0,0,1,,,,0,73,50
86790,set_tempo,,,,,40,1,0,322581,,,,,
86820,set_tempo,,,,,30,1,0,324324,,,,,
86830,set_tempo,,,,,10,1,0,327869,,,,,
86866,control_change,,,,,106,0,1,,64,0,0,,
86870,set_tempo,,,,,40,1,0,329670,,,,,
86880,note_off,,,,,0,0,2,,,,0,46,64
86880,note_off,,,,,14,0,1,,,,0,73,64
86880,note_on,,,,,0,0,1,,,,0,72,53
86880,control_change,,,,,0,0,1,,64,95,0,,
86880,note_on,,,,,0,0,2,,,,0,48,42
86880,note_on,,,,,0,0,2,,,,0,51,42
86880,note_off,,,,,240,0,2,,,,0,51,64
86890,set_tempo,,,,,20,1,0,331492,,,,,
86920,set_tempo,,,,,30,1,0,333333,,,,,
86950,set_tempo,,,,,30,1,0,335196,,,,,
86980,set_tempo,,,,,30,1,0,337079,,,,,
87000,note_on,,,,,0,0,1,,,,0,70,57
87000,set_tempo,,,,,20,1,0,338983,,,,,
87000,note_off,,,,,120,0,1,,,,0,72,64
87040,set_tempo,,,,,40,1,0,342857,,,,,
87060,set_tempo,,,,,20,1,0,344828,,,,,
87070,set_tempo,,,,,10,1,0,342857,,,,,
87112,control_change,,,,,112,0,1,,64,0,0,,
87120,note_off,,,,,240,0,2,,,,0,48,64
87120,note_on,,,,,0,0,2,,,,0,51,53
87120,set_tempo,,,,,50,1,0,344828,,,,,
87120,note_off,,,,,0,0,2,,,,0,51,64
87120,note_on,,,,,0,0,2,,,,0,49,53
87120,note_off,,,,,8,0,1,,,,0,70,64
87120,note_on,,,,,0,0,1,,,,0,70,62
87120,control_change,,,,,0,0,1,,64,96,0,,
87170,set_tempo,,,,,50,1,0,346821,,,,,
87300,set_tempo,,,,,130,1,0,348837,,,,,
87380,set_tempo,,,,,80,1,0,350877,,,,,
87420,set_tempo,,,,,40,1,0,352941,,,,,
87460,set_tempo,,,,,40,1,0,355030,,,,,
87500,set_tempo,,,,,40,1,0,361446,,,,,
87510,set_tempo,,,,,10,1,0,363636,,,,,
87540,set_tempo,,,,,30,1,0,365854,,,,,
87560,set_tempo,,,,,20,1,0,368098,,,,,
87592,control_change,,,,,472,0,1,,64,0,0,,
87600,note_on,,,,,0,0,1,,,,0,71,41
87600,note_off,,,,,8,0,1,,,,0,70,64
87600,control_change,,,,,0,0,1,,64,94,0,,
87600,set_tempo,,,,,40,1,0,370370,,,,,
87620,set_tempo,,,,,20,1,0,372671,,,,,
87650,set_tempo,,,,,30,1,0,377358,,,,,
87670,set_tempo,,,,,20,1,0,379747,,,,,
87700,set_tempo,,,,,30,1,0,382166,,,,,
87710,set_tempo,,,,,10,1,0,384615,,,,,
87730,set_tempo,,,,,20,1,0,387097,,,,,
87750,set_tempo,,,,,20,1,0,389610,,,,,
87760,set_tempo,,,,,10,1,0,392157,,,,,
87772,control_change,,,,,172,0,1,,64,0,0,,
87780,set_tempo,,,,,20,1,0,389610,,,,,
87780,note_off,,,,,660,0,2,,,,0,49,64
87780,note_off,,,,,0,0,2,,,,0,51,64
87780,note_off,,,,,8,0,1,,,,0,71,64
87840,note_on,,,,,0,0,1,,,,0,72,56
87840,control_change,,,,,0,0,1,,64,96,0,,
87840,note_on,,,,,60,0,1,,,,0,60,56
87850,set_tempo,,,,,70,1,0,342857,,,,,
87910,set_tempo,,,,,60,1,0,338983,,,,,
88080,note_on,,,,,0,0,2,,,,0,52,38
88080,note_on,,,,,300,0,2,,,,0,48,38
88190,set_tempo,,,,,280,1,0,337079,,,,,
88290,note_off,,,,,0,0,2,,,,0,48,64
88290,note_off,,,,,210,0,2,,,,0,52,64
88320,note_on,,,,,0,0,1,,,,0,67,51
88320,note_off,,,,,480,0,1,,,,0,72,64
88320,note_on,,,,,0,0,1,,,,0,55,51
88320,note_on,,,,,30,0,2,,,,0,48,31
88320,note_on,,,,,0,0,2,,,,0,52,31
88320,note_off,,,,,0,0,1,,,,0,60,64
88350,set_tempo,,,,,160,1,0,335196,,,,,
88430,set_tempo,,,,,80,1,0,333333,,,,,
88440,note_off,,,,,120,0,1,,,,0,67,64
88440,note_off,,,,,0,0,1,,,,0,55,64
88530,note_off,,,,,0,0,2,,,,0,48,64
88530,note_off,,,,,210,0,2,,,,0,52,64
88552,control_change,,,,,112,0,1,,64,0,0,,
88560,note_on,,,,,8,0,1,,,,0,56,61
88560,note_on,,,,,0,0,1,,,,0,68,61
88560,control_change,,,,,0,0,1,,64,95,0,,
88650,set_tempo,,,,,220,1,0,331492,,,,,
88710,set_tempo,,,,,60,1,0,329670,,,,,
88800,note_on,,,,,270,0,2,,,,0,41,48
88800,note_on,,,,,0,0,2,,,,0,53,48
88800,note_on,,,,,0,0,2,,,,0,48,48
88870,set_tempo,,,,,160,1,0,327869,,,,,
88990,set_tempo,,,,,120,1,0,324324,,,,,
89010,note_off,,,,,0,0,2,,,,0,41,64
89010,note_off,,,,,0,0,2,,,,0,48,64
89010,note_off,,,,,210,0,2,,,,0,53,64
89040,note_on,,,,,0,0,2,,,,0,53,40
89040,note_off,,,,,0,0,1,,,,0,56,64
89040,note_on,,,,,30,0,2,,,,0,41,40
89040,note_on,,,,,0,0,2,,,,0,48,40
89040,note_off,,,,,480,0,1,,,,0,68,64
89040,note_on,,,,,0,0,1,,,,0,65,57
89110,set_tempo,,,,,120,1,0,322581,,,,,
89160,note_off,,,,,120,0,1,,,,0,65,64
89220,set_tempo,,,,,110,1,0,320856,,,,,
89250,set_tempo,,,,,30,1,0,317460,,,,,
89250,note_off,,,,,210,0,2,,,,0,53,64
89250,note_off,,,,,0,0,2,,,,0,48,64
89250,note_off,,,,,0,0,2,,,,0,41,64
89272,control_change,,,,,112,0,1,,64,0,0,,
89280,note_on,,,,,0,0,1,,,,0,73,54
89280,note_on,,,,,8,0,1,,,,0,61,54
89280,control_change,,,,,0,0,1,,64,96,0,,
89290,set_tempo,,,,,40,1,0,315789,,,,,
89330,set_tempo,,,,,40,1,0,314136,,,,,
89370,set_tempo,,,,,40,1,0,310881,,,,,
89470,set_tempo,,,,,100,1,0,314136,,,,,
89520,note_on,,,,,270,0,2,,,,0,46,45
89520,set_tempo,,,,,50,1,0,315789,,,,,
89560,set_tempo,,,,,40,1,0,317460,,,,,
89650,set_tempo,,,,,90,1,0,320856,,,,,
89730,set_tempo,,,,,80,1,0,322581,,,,,
89760,note_on,,,,,0,0,2,,,,0,51,38
89760,note_on,,,,,0,0,1,,,,0,67,40
89760,note_on,,,,,0,0,1,,,,0,55,40
89760,note_off,,,,,0,0,1,,,,0,61,64
89760,note_off,,,,,480,0,1,,,,0,73,64
89760,note_off,,,,,240,0,2,,,,0,46,64
89760,note_on,,,,,0,0,2,,,,0,39,38
89820,set_tempo,,,,,90,1,0,324324,,,,,
89880,note_off,,,,,120,0,1,,,,0,67,64
89880,note_off,,,,,0,0,1,,,,0,55,64
89880,set_tempo,,,,,60,1,0,327869,,,,,
89970,set_tempo,,,,,90,1,0,329670,,,,,
89970,note_off,,,,,210,0,2,,,,0,51,64
89970,note_off,,,,,0,0,2,,,,0,39,64
89992,control_change,,,,,112,0,1,,64,0,0,,
90000,note_on,,,,,8,0,1,,,,0,68,36
90000,note_on,,,,,0,0,1,,,,0,56,36
90000,note_on,,,,,30,0,2,,,,0,44,41
90000,note_on,,,,,0,0,2,,,,0,48,41
90010,set_tempo,,,,,40,1,0,331492,,,,,
90090,set_tempo,,,,,80,1,0,333333,,,,,
90120,note_on,,,,,0,0,2,,,,0,39,40
90120,note_off,,,,,120,0,2,,,,0,44,64
90130,set_tempo,,,,,40,1,0,335196,,,,,
90170,set_tempo,,,,,40,1,0,337079,,,,,
90220,set_tempo,,,,,50,1,0,338983,,,,,
90240,note_on,,,,,0,0,2,,,,0,41,35
90240,note_off,,,,,120,0,2,,,,0,39,64
90260,set_tempo,,,,,40,1,0,342857,,,,,
90290,set_tempo,,,,,30,1,0,344828,,,,,
90340,set_tempo,,,,,50,1,0,346821,,,,,
90360,note_on,,,,,0,0,2,,,,0,43,32
90360,note_off,,,,,120,0,2,,,,0,41,64
90390,set_tempo,,,,,50,1,0,348837,,,,,
90420,note_off,,,,,420,0,1,,,,0,68,64
90460,set_tempo,,,,,70,1,0,350877,,,,,
90480,note_off,,,,,60,0,1,,,,0,56,64
90480,note_off,,,,,120,0,2,,,,0,43,64
90480,note_on,,,,,0,0,2,,,,0,44,28
90520,set_tempo,,,,,60,1,0,352941,,,,,
90620,set_tempo,,,,,100,1,0,392157,,,,,
90660,note_off,,,,,180,0,2,,,,0,44,64
90660,note_off,,,,,0,0,2,,,,0,48,64
90670,set_tempo,,,,,50,1,0,348837,,,,,
90720,note_on,,,,,0,0,2,,,,0,55,48
90720,set_tempo,,,,,50,1,0,333333,,,,,
90720,control_change,,,,,0,0,1,,64,0,0,,
90720,note_on,,,,,240,0,1,,,,0,70,37
90720,note_on,,,,,60,0,2,,,,0,51,48
90740,set_tempo,,,,,20,1,0,331492,,,,,
90780,set_tempo,,,,,40,1,0,329670,,,,,
90820,set_tempo,,,,,40,1,0,327869,,,,,
90840,note_on,,,,,0,0,2,,,,0,46,40
90840,note_off,,,,,120,0,2,,,,0,51,64
90900,set_tempo,,,,,80,1,0,324324,,,,,
90960,note_off,,,,,120,0,2,,,,0,46,64
90960,note_on,,,,,0,0,2,,,,0,48,37
90980,set_tempo,,,,,80,1,0,322581,,,,,
91080,note_on,,,,,0,0,2,,,,0,50,33
91080,note_off,,,,,120,0,2,,,,0,48,64
91120,set_tempo,,,,,140,1,0,320856,,,,,
91150,set_tempo,,,,,30,1,0,317460,,,,,
91170,note_off,,,,,450,0,1,,,,0,70,64
91200,note_on,,,,,30,0,1,,,,0,70,49
91200,note_off,,,,,120,0,2,,,,0,50,64
91200,note_on,,,,,0,0,2,,,,0,51,26
91260,set_tempo,,,,,110,1,0,315789,,,,,
91320,note_off,,,,,120,0,2,,,,0,51,64
91320,note_off,,,,,0,0,2,,,,0,55,64
91360,set_tempo,,,,,100,1,0,314136,,,,,
91410,note_off,,,,,210,0,1,,,,0,70,64
91440,note_on,,,,,0,0,2,,,,0,55,53
91440,note_on,,,,,30,0,1,,,,0,70,58
91440,note_on,,,,,120,0,2,,,,0,51,53
91460,set_tempo,,,,,100,1,0,310881,,,,,
91560,set_tempo,,,,,100,1,0,309278,,,,,
91560,note_on,,,,,0,0,2,,,,0,46,47
91560,note_off,,,,,120,0,2,,,,0,51,64
91680,note_on,,,,,0,0,2,,,,0,48,42
91680,note_off,,,,,120,0,2,,,,0,46,64
91680,note_off,,,,,240,0,1,,,,0,70,64
91680,note_on,,,,,0,0,1,,,,0,75,54
91790,set_tempo,,,,,230,1,0,307692,,,,,
91800,note_on,,,,,0,0,2,,,,0,50,34
91800,note_off,,,,,120,0,2,,,,0,48,64
91920,note_on,,,,,0,0,2,,,,0,51,31
91920,note_off,,,,,120,0,2,,,,0,50,64
91920,note_off,,,,,240,0,1,,,,0,75,64
91920,note_on,,,,,0,0,1,,,,0,70,46
91960,set_tempo,,,,,170,1,0,306122,,,,,
92040,note_off,,,,,0,0,2,,,,0,55,64
92040,note_off,,,,,120,0,1,,,,0,70,64
92040,note_off,,,,,120,0,2,,,,0,51,64
92160,note_on,,,,,0,0,2,,,,0,56,53
92160,note_on,,,,,120,0,2,,,,0,50,53
92160,note_on,,,,,120,0,1,,,,0,70,61
92280,note_on,,,,,0,0,1,,,,0,71,44
92280,note_off,,,,,120,0,1,,,,0,70,64
92400,note_off,,,,,120,0,1,,,,0,71,64
92400,note_on,,,,,0,0,1,,,,0,70,48
92520,note_off,,,,,120,0,1,,,,0,70,64
92520,note_on,,,,,0,0,1,,,,0,68,51
92640,note_off,,,,,120,0,1,,,,0,68,64
92640,note_on,,,,,0,0,1,,,,0,67,54
92640,note_off,,,,,480,0,2,,,,0,50,64
92640,note_on,,,,,0,0,2,,,,0,46,40
92670,set_tempo,,,,,710,1,0,307692,,,,,
92760,note_off,,,,,120,0,1,,,,0,67,64
92760,note_off,,,,,0,0,2,,,,0,56,64
92760,note_off,,,,,120,0,2,,,,0,46,64
92760,note_on,,,,,0,0,1,,,,0,68,57
92790,set_tempo,,,,,120,1,0,309278,,,,,
92880,note_on,,,,,0,0,1,,,,0,70,61
92880,note_on,,,,,120,0,2,,,,0,51,57
92880,note_off,,,,,120,0,1,,,,0,68,64
92880,note_on,,,,,0,0,2,,,,0,55,57
92930,set_tempo,,,,,140,1,0,310881,,,,,
93000,note_on,,,,,0,0,2,,,,0,46,49
93000,note_off,,,,,120,0,2,,,,0,51,64
93010,set_tempo,,,,,80,1,0,314136,,,,,
93090,set_tempo,,,,,80,1,0,315789,,,,,
93120,note_off,,,,,120,0,2,,,,0,46,64
93120,note_on,,,,,0,0,2,,,,0,48,44
93130,set_tempo,,,,,40,1,0,317460,,,,,
93210,set_tempo,,,,,80,1,0,320856,,,,,
93240,note_off,,,,,120,0,2,,,,0,48,64
93240,note_on,,,,,0,0,2,,,,0,50,41
93320,set_tempo,,,,,110,1,0,322581,,,,,
93360,set_tempo,,,,,40,1,0,324324,,,,,
93360,note_on,,,,,0,0,2,,,,0,51,36
93360,note_off,,,,,120,0,2,,,,0,50,64
93400,set_tempo,,,,,40,1,0,327869,,,,,
93420,set_tempo,,,,,20,1,0,329670,,,,,
93440,set_tempo,,,,,20,1,0,331492,,,,,
93450,set_tempo,,,,,10,1,0,337079,,,,,
93460,set_tempo,,,,,10,1,0,338983,,,,,
93480,note_off,,,,,120,0,2,,,,0,51,64
93480,set_tempo,,,,,20,1,0,342857,,,,,
93480,note_off,,,,,0,0,2,,,,0,55,64
93490,set_tempo,,,,,10,1,0,346821,,,,,
93500,set_tempo,,,,,10,1,0,348837,,,,,
93520,set_tempo,,,,,20,1,0,361446,,,,,
93530,set_tempo,,,,,10,1,0,370370,,,,,
93540,set_tempo,,,,,10,1,0,389610,,,,,
93550,set_tempo,,,,,10,1,0,402685,,,,,
93560,set_tempo,,,,,10,1,0,550459,,,,,
93570,note_off,,,,,690,0,1,,,,0,70,64
93600,note_on,,,,,120,0,2,,,,0,54,45
93600,note_on,,,,,30,0,1,,,,0,58,34
93600,set_tempo,,,,,40,1,0,555556,,,,,
93600,note_on,,,,,0,0,2,,,,0,51,45
93600,control_change,,,,,0,0,1,,64,0,0,,
93610,set_tempo,,,,,10,1,0,368098,,,,,
93650,set_tempo,,,,,40,1,0,365854,,,,,
93670,set_tempo,,,,,20,1,0,363636,,,,,
93690,set_tempo,,,,,20,1,0,361446,,,,,
93700,set_tempo,,,,,10,1,0,355030,,,,,
93720,note_on,,,,,0,0,2,,,,0,46,37
93720,note_off,,,,,120,0,2,,,,0,51,64
93770,set_tempo,,,,,70,1,0,352941,,,,,
93830,set_tempo,,,,,60,1,0,350877,,,,,
93840,note_off,,,,,120,0,2,,,,0,46,64
93840,note_on,,,,,0,0,2,,,,0,48,29
93910,set_tempo,,,,,80,1,0,348837,,,,,
93930,set_tempo,,,,,20,1,0,346821,,,,,
93960,note_off,,,,,120,0,2,,,,0,48,64
93960,note_on,,,,,0,0,2,,,,0,50,28
93990,set_tempo,,,,,60,1,0,344828,,,,,
94050,set_tempo,,,,,60,1,0,342857,,,,,
94050,note_off,,,,,450,0,1,,,,0,58,64
94080,note_on,,,,,30,0,1,,,,0,58,43
94080,note_off,,,,,120,0,2,,,,0,50,64
94080,note_on,,,,,0,0,2,,,,0,51,25
94110,set_tempo,,,,,60,1,0,338983,,,,,
94170,set_tempo,,,,,60,1,0,337079,,,,,
94200,note_off,,,,,0,0,2,,,,0,54,64
94200,note_off,,,,,120,0,2,,,,0,51,64
94270,set_tempo,,,,,100,1,0,331492,,,,,
94290,note_off,,,,,210,0,1,,,,0,58,64
94320,note_on,,,,,120,0,2,,,,0,54,42
94320,note_on,,,,,0,0,2,,,,0,51,42
94320,note_on,,,,,30,0,1,,,,0,58,47
94350,set_tempo,,,,,80,1,0,329670,,,,,
94370,set_tempo,,,,,20,1,0,327869,,,,,
94430,set_tempo,,,,,60,1,0,324324,,,,,
94440,note_off,,,,,120,0,2,,,,0,51,64
94440,note_on,,,,,0,0,2,,,,0,46,36
94490,set_tempo,,,,,60,1,0,322581,,,,,
94560,note_on,,,,,0,0,1,,,,0,63,40
94560,note_off,,,,,120,0,2,,,,0,46,64
94560,note_off,,,,,240,0,1,,,,0,58,64
94560,note_on,,,,,0,0,2,,,,0,48,31
94630,set_tempo,,,,,140,1,0,320856,,,,,
94680,note_on,,,,,0,0,2,,,,0,50,27
94680,note_off,,,,,120,0,2,,,,0,48,64
94690,set_tempo,,,,,60,1,0,317460,,,,,
94750,set_tempo,,,,,60,1,0,315789,,,,,
94800,note_on,,,,,0,0,2,,,,0,51,22
94800,note_off,,,,,120,0,2,,,,0,50,64
94800,note_off,,,,,240,0,1,,,,0,63,64
94800,note_on,,,,,0,0,1,,,,0,58,33
94830,set_tempo,,,,,80,1,0,314136,,,,,
94920,note_off,,,,,120,0,1,,,,0,58,64
94920,note_off,,,,,120,0,2,,,,0,51,64
94920,note_off,,,,,0,0,2,,,,0,54,64
94950,set_tempo,,,,,120,1,0,310881,,,,,
95040,note_on,,,,,120,0,1,,,,0,58,46
95040,note_on,,,,,120,0,2,,,,0,56,37
95040,set_tempo,,,,,90,1,0,314136,,,,,
95040,note_on,,,,,0,0,2,,,,0,50,37
95070,set_tempo,,,,,30,1,0,315789,,,,,
95110,set_tempo,,,,,40,1,0,317460,,,,,
95120,set_tempo,,,,,10,1,0,320856,,,,,
95140,set_tempo,,,,,20,1,0,322581,,,,,
95150,set_tempo,,,,,10,1,0,324324,,,,,
95160,note_on,,,,,0,0,1,,,,0,59,29
95160,note_off,,,,,120,0,1,,,,0,58,64
95180,set_tempo,,,,,30,1,0,327869,,,,,
95200,set_tempo,,,,,20,1,0,329670,,,,,
95220,set_tempo,,,,,20,1,0,331492,,,,,
95230,set_tempo,,,,,10,1,0,333333,,,,,
95270,set_tempo,,,,,40,1,0,335196,,,,,
95280,note_on,,,,,0,0,1,,,,0,58,35
95280,note_off,,,,,120,0,1,,,,0,59,64
95330,set_tempo,,,,,60,1,0,337079,,,,,
95340,set_tempo,,,,,10,1,0,338983,,,,,
95360,set_tempo,,,,,20,1,0,342857,,,,,
95370,note_off,,,,,330,0,2,,,,0,56,64
95390,set_tempo,,,,,30,1,0,344828,,,,,
95400,note_on,,,,,0,0,1,,,,0,56,40
95400,note_off,,,,,120,0,1,,,,0,58,64
95410,set_tempo,,,,,20,1,0,346821,,,,,
95440,set_tempo,,,,,30,1,0,348837,,,,,
95460,set_tempo,,,,,20,1,0,350877,,,,,
95520,note_on,,,,,0,0,2,,,,0,46,26
95520,note_on,,,,,0,0,1,,,,0,54,44
95520,note_off,,,,,120,0,1,,,,0,56,64
95520,note_off,,,,,150,0,2,,,,0,50,64
95520,set_tempo,,,,,60,1,0,352941,,,,,
95530,set_tempo,,,,,10,1,0,355030,,,,,
95600,set_tempo,,,,,70,1,0,365854,,,,,
95640,note_off,,,,,120,0,2,,,,0,46,64
95640,note_off,,,,,120,0,1,,,,0,54,64
95640,note_on,,,,,0,0,1,,,,0,56,47
95660,set_tempo,,,,,60,1,0,368098,,,,,
95680,set_tempo,,,,,20,1,0,370370,,,,,
95700,set_tempo,,,,,20,1,0,372671,,,,,
95760,note_on,,,,,0,0,1,,,,0,58,43
95760,note_off,,,,,120,0,1,,,,0,56,64
95760,note_on,,,,,120,0,2,,,,0,54,45
95760,note_on,,,,,0,0,2,,,,0,51,45
95780,set_tempo,,,,,80,1,0,377358,,,,,
95840,set_tempo,,,,,60,1,0,379747,,,,,
95880,note_off,,,,,120,0,2,,,,0,51,64
95880,note_on,,,,,0,0,2,,,,0,46,36
95900,set_tempo,,,,,60,1,0,382166,,,,,
95920,set_tempo,,,,,20,1,0,384615,,,,,
95960,set_tempo,,,,,40,1,0,387097,,,,,
95980,set_tempo,,,,,20,1,0,389610,,,,,
96000,note_on,,,,,0,0,2,,,,0,48,29
96000,note_off,,,,,120,0,2,,,,0,46,64
96020,set_tempo,,,,,40,1,0,392157,,,,,
96100,set_tempo,,,,,80,1,0,397351,,,,,
96110,set_tempo,,,,,10,1,0,400000,,,,,
96120,note_off,,,,,120,0,2,,,,0,48,64
96120,note_on,,,,,0,0,2,,,,0,50,26
96190,set_tempo,,,,,80,1,0,402685,,,,,
96210,set_tempo,,,,,20,1,0,405405,,,,,
96240,note_off,,,,,120,0,2,,,,0,50,64
96240,note_on,,,,,0,0,2,,,,0,51,23
96340,set_tempo,,,,,130,1,0,408163,,,,,
96360,note_off,,,,,0,0,2,,,,0,54,64
96360,note_off,,,,,120,0,2,,,,0,51,64
96440,set_tempo,,,,,100,1,0,413793,,,,,
96450,note_off,,,,,690,0,1,,,,0,58,64
96480,set_tempo,,,,,40,1,0,342857,,,,,
96480,note_on,,,,,30,0,1,,,,0,70,53
96480,note_on,,,,,0,0,1,,,,0,66,53
96550,set_tempo,,,,,70,1,0,338983,,,,,
96600,note_on,,,,,0,0,1,,,,0,68,43
96600,note_off,,,,,120,0,1,,,,0,66,64
96620,set_tempo,,,,,70,1,0,337079,,,,,
96630,set_tempo,,,,,10,1,0,335196,,,,,
96650,set_tempo,,,,,20,1,0,333333,,,,,
96720,note_on,,,,,360,0,2,,,,0,39,41
96720,note_on,,,,,0,0,1,,,,0,66,40
96720,note_off,,,,,120,0,1,,,,0,68,64
96730,set_tempo,,,,,80,1,0,331492,,,,,
96790,set_tempo,,,,,60,1,0,329670,,,,,
96840,note_on,,,,,0,0,1,,,,0,65,36
96840,note_off,,,,,120,0,1,,,,0,66,64
96850,set_tempo,,,,,60,1,0,327869,,,,,
96900,note_off,,,,,180,0,2,,,,0,39,64
96960,note_off,,,,,120,0,1,,,,0,65,64
96960,note_on,,,,,60,0,2,,,,0,42,31
96960,note_on,,,,,0,0,1,,,,0,63,32
96970,set_tempo,,,,,120,1,0,324324,,,,,
97030,set_tempo,,,,,60,1,0,322581,,,,,
97080,note_off,,,,,120,0,2,,,,0,42,64
97080,note_off,,,,,120,0,1,,,,0,63,64
97130,set_tempo,,,,,100,1,0,320856,,,,,
97200,note_on,,,,,0,0,1,,,,0,63,53
97200,note_off,,,,,120,0,1,,,,0,70,64
97200,note_on,,,,,0,0,1,,,,0,71,53
97210,set_tempo,,,,,80,1,0,317460,,,,,
97320,note_on,,,,,0,0,1,,,,0,65,47
97320,note_off,,,,,120,0,1,,,,0,63,64
97370,set_tempo,,,,,160,1,0,315789,,,,,
97430,set_tempo,,,,,60,1,0,314136,,,,,
97440,note_on,,,,,0,0,1,,,,0,66,39
97440,note_off,,,,,120,0,1,,,,0,65,64
97440,note_on,,,,,360,0,2,,,,0,32,47
97520,set_tempo,,,,,90,1,0,310881,,,,,
97560,note_off,,,,,120,0,1,,,,0,66,64
97560,note_on,,,,,0,0,1,,,,0,67,36
97620,note_off,,,,,180,0,2,,,,0,32,64
97680,note_on,,,,,0,0,1,,,,0,68,36
97680,note_on,,,,,60,0,2,,,,0,44,34
97680,note_off,,,,,120,0,1,,,,0,67,64
97800,note_off,,,,,120,0,2,,,,0,44,64
97800,note_on,,,,,0,0,1,,,,0,70,39
97800,note_off,,,,,120,0,1,,,,0,68,64
97920,note_on,,,,,0,0,1,,,,0,73,62
97920,note_off,,,,,0,0,1,,,,0,71,64
97920,note_off,,,,,120,0,1,,,,0,70,64
97920,note_on,,,,,0,0,1,,,,0,68,62
98040,note_off,,,,,120,0,1,,,,0,68,64
98040,note_on,,,,,0,0,1,,,,0,70,51
98140,set_tempo,,,,,620,1,0,314136,,,,,
98160,note_on,,,,,360,0,2,,,,0,37,53
98160,note_on,,,,,0,0,1,,,,0,68,46
98160,note_off,,,,,120,0,1,,,,0,70,64
98280,note_on,,,,,0,0,1,,,,0,66,46
98280,note_off,,,,,120,0,1,,,,0,68,64
98340,note_off,,,,,180,0,2,,,,0,37,64
98360,set_tempo,,,,,220,1,0,315789,,,,,
98400,note_on,,,,,60,0,2,,,,0,49,36
98400,note_on,,,,,0,0,1,,,,0,65,42
98400,note_off,,,,,120,0,1,,,,0,66,64
98430,set_tempo,,,,,70,1,0,317460,,,,,
98510,set_tempo,,,,,80,1,0,320856,,,,,
98520,note_off,,,,,120,0,1,,,,0,65,64
98520,note_off,,,,,120,0,2,,,,0,49,64
98640,note_off,,,,,120,0,1,,,,0,73,64
98640,note_on,,,,,0,0,1,,,,0,70,53
98640,note_on,,,,,0,0,1,,,,0,66,53
98670,set_tempo,,,,,160,1,0,322581,,,,,
98730,set_tempo,,,,,60,1,0,324324,,,,,
98760,note_off,,,,,120,0,1,,,,0,66,64
98760,note_on,,,,,0,0,1,,,,0,68,45
98840,set_tempo,,,,,110,1,0,327869,,,,,
98880,note_on,,,,,0,0,1,,,,0,66,37
98880,note_off,,,,,120,0,1,,,,0,68,64
98880,note_on,,,,,360,0,2,,,,0,42,41
98980,set_tempo,,,,,140,1,0,329670,,,,,
99000,note_off,,,,,120,0,1,,,,0,66,64
99000,note_on,,,,,0,0,1,,,,0,63,33
99060,note_off,,,,,180,0,2,,,,0,42,64
99060,set_tempo,,,,,80,1,0,331492,,,,,
99120,note_on,,,,,60,0,2,,,,0,49,31
99120,note_off,,,,,120,0,1,,,,0,63,64
99120,note_on,,,,,0,0,1,,,,0,61,28
99200,set_tempo,,,,,140,1,0,333333,,,,,
99240,note_off,,,,,120,0,2,,,,0,49,64
99240,note_off,,,,,120,0,1,,,,0,61,64
99250,set_tempo,,,,,50,1,0,335196,,,,,
99320,set_tempo,,,,,70,1,0,337079,,,,,
99360,note_on,,,,,0,0,1,,,,0,68,49
99360,note_on,,,,,0,0,1,,,,0,63,49
99360,note_off,,,,,120,0,1,,,,0,70,64
99400,set_tempo,,,,,80,1,0,338983,,,,,
99420,set_tempo,,,,,20,1,0,342857,,,,,
99480,note_on,,,,,0,0,1,,,,0,65,44
99480,note_off,,,,,120,0,1,,,,0,63,64
99500,set_tempo,,,,,80,1,0,344828,,,,,
99560,set_tempo,,,,,60,1,0,346821,,,,,
99600,note_on,,,,,360,0,2,,,,0,37,41
99600,note_off,,,,,120,0,1,,,,0,65,64
99600,note_on,,,,,0,0,1,,,,0,63,41
99630,set_tempo,,,,,70,1,0,348837,,,,,
99670,set_tempo,,,,,40,1,0,350877,,,,,
99710,set_tempo,,,,,40,1,0,352941,,,,,
99720,note_on,,,,,0,0,1,,,,0,61,40
99720,note_off,,,,,120,0,1,,,,0,63,64
99780,note_off,,,,,180,0,2,,,,0,37,64
99780,set_tempo,,,,,70,1,0,355030,,,,,
99790,set_tempo,,,,,10,1,0,361446,,,,,
99830,set_tempo,,,,,40,1,0,363636,,,,,
99840,note_off,,,,,120,0,1,,,,0,61,64
99840,note_off,,,,,0,0,1,,,,0,68,64
99840,note_on,,,,,0,0,1,,,,0,59,38
99840,note_on,,,,,0,0,1,,,,0,65,38
99840,note_on,,,,,60,0,2,,,,0,49,31
99860,set_tempo,,,,,30,1,0,365854,,,,,
99890,set_tempo,,,,,30,1,0,368098,,,,,
99910,set_tempo,,,,,20,1,0,370370,,,,,
99940,set_tempo,,,,,30,1,0,372671,,,,,
99960,note_off,,,,,120,0,1,,,,0,65,64
99960,note_off,,,,,0,0,1,,,,0,59,64
99960,note_off,,,,,120,0,2,,,,0,49,64
99970,set_tempo,,,,,30,1,0,377358,,,,,
99990,set_tempo,,,,,20,1,0,379747,,,,,
100020,set_tempo,,,,,30,1,0,382166,,,,,
100040,set_tempo,,,,,20,1,0,384615,,,,,
100070,set_tempo,,,,,30,1,0,387097,,,,,
100080,note_on,,,,,120,0,2,,,,0,42,39
100080,note_on,,,,,0,0,2,,,,0,49,39
100080,control_change,,,,,0,0,1,,64,95,0,,
100080,note_on,,,,,0,0,1,,,,0,66,43
100080,note_on,,,,,120,0,1,,,,0,58,43
100110,set_tempo,,,,,40,1,0,389610,,,,,
100170,set_tempo,,,,,60,1,0,392157,,,,,
100190,set_tempo,,,,,20,1,0,397351,,,,,
100240,set_tempo,,,,,50,1,0,400000,,,,,
100280,set_tempo,,,,,40,1,0,402685,,,,,
100300,set_tempo,,,,,20,1,0,400000,,,,,
100320,set_tempo,,,,,20,1,0,382166,,,,,
100330,set_tempo,,,,,10,1,0,379747,,,,,
100350,set_tempo,,,,,20,1,0,370370,,,,,
100370,set_tempo,,,,,20,1,0,363636,,,,,
100430,set_tempo,,,,,60,1,0,350877,,,,,
100450,set_tempo,,,,,20,1,0,344828,,,,,
100470,set_tempo,,,,,20,1,0,337079,,,,,
100490,set_tempo,,,,,20,1,0,333333,,,,,
100552,control_change,,,,,472,0,1,,64,0,0,,
100560,note_off,,,,,0,0,2,,,,0,42,64
100560,note_on,,,,,0,0,2,,,,0,51,60
100560,note_on,,,,,0,0,2,,,,0,39,60
100560,note_off,,,,,480,0,2,,,,0,49,64
100560,note_off,,,,,8,0,1,,,,0,66,64
100560,note_off,,,,,0,0,1,,,,0,58,64
100560,note_on,,,,,0,0,1,,,,0,67,60
100560,note_on,,,,,0,0,1,,,,0,61,60
100560,note_on,,,,,0,0,1,,,,0,58,60
100560,set_tempo,,,,,70,1,0,335196,,,,,
100560,control_change,,,,,0,0,1,,64,97,0,,
100800,note_off,,,,,0,0,1,,,,0,67,64
100800,note_on,,,,,0,0,1,,,,0,58,46
100800,note_on,,,,,0,0,1,,,,0,61,46
100800,note_on,,,,,0,0,1,,,,0,67,46
100800,note_off,,,,,240,0,1,,,,0,58,64
100800,note_on,,,,,0,0,2,,,,0,39,49
100800,note_off,,,,,0,0,1,,,,0,61,64
100800,note_off,,,,,0,0,2,,,,0,51,64
100800,note_off,,,,,240,0,2,,,,0,39,64
100800,note_on,,,,,0,0,2,,,,0,51,49
100940,set_tempo,,,,,380,1,0,333333,,,,,
101140,set_tempo,,,,,200,1,0,331492,,,,,
101272,control_change,,,,,472,0,1,,64,0,0,,
101280,note_off,,,,,480,0,2,,,,0,39,64
101280,note_off,,,,,8,0,1,,,,0,67,64
101280,note_off,,,,,0,0,1,,,,0,61,64
101280,note_off,,,,,0,0,1,,,,0,58,64
101280,note_on,,,,,0,0,1,,,,0,75,38
101400,set_tempo,,,,,260,1,0,329670,,,,,
101400,note_off,,,,,120,0,1,,,,0,75,64
101520,note_on,,,,,120,0,1,,,,0,75,45
101680,set_tempo,,,,,280,1,0,327869,,,,,
101870,set_tempo,,,,,190,1,0,324324,,,,,
102000,note_on,,,,,720,0,2,,,,0,41,31
102000,note_off,,,,,480,0,1,,,,0,75,64
102000,note_on,,,,,0,0,1,,,,0,74,34
102010,set_tempo,,,,,140,1,0,327869,,,,,
102090,set_tempo,,,,,80,1,0,329670,,,,,
102120,note_off,,,,,120,0,2,,,,0,41,64
102120,note_off,,,,,120,0,1,,,,0,74,64
102170,set_tempo,,,,,80,1,0,331492,,,,,
102210,set_tempo,,,,,40,1,0,333333,,,,,
102240,note_on,,,,,120,0,2,,,,0,41,45
102240,note_on,,,,,120,0,1,,,,0,74,42
102240,set_tempo,,,,,30,1,0,335196,,,,,
102360,set_tempo,,,,,120,1,0,337079,,,,,
102370,set_tempo,,,,,10,1,0,338983,,,,,
102450,set_tempo,,,,,80,1,0,342857,,,,,
102530,set_tempo,,,,,80,1,0,348837,,,,,
102590,set_tempo,,,,,60,1,0,350877,,,,,
102670,set_tempo,,,,,80,1,0,352941,,,,,
102690,set_tempo,,,,,20,1,0,363636,,,,,
102720,note_off,,,,,480,0,2,,,,0,41,64
102720,note_on,,,,,0,0,2,,,,0,43,30
102720,note_off,,,,,480,0,1,,,,0,74,64
102720,note_on,,,,,0,0,1,,,,0,63,33
102720,note_on,,,,,0,0,1,,,,0,73,33
102800,set_tempo,,,,,110,1,0,365854,,,,,
102820,set_tempo,,,,,20,1,0,372671,,,,,
102840,note_off,,,,,120,0,1,,,,0,73,64
102840,note_off,,,,,0,0,1,,,,0,63,64
102840,note_off,,,,,0,0,2,,,,0,51,64
102840,note_off,,,,,120,0,2,,,,0,43,64
102880,set_tempo,,,,,60,1,0,384615,,,,,
102900,set_tempo,,,,,20,1,0,387097,,,,,
102920,set_tempo,,,,,20,1,0,389610,,,,,
102930,set_tempo,,,,,10,1,0,392157,,,,,
102960,note_on,,,,,120,0,1,,,,0,73,36
102960,note_on,,,,,0,0,1,,,,0,63,36
102960,note_on,,,,,0,0,2,,,,0,51,40
102960,note_on,,,,,120,0,2,,,,0,43,40
102990,set_tempo,,,,,60,1,0,397351,,,,,
103000,set_tempo,,,,,10,1,0,405405,,,,,
103020,set_tempo,,,,,20,1,0,408163,,,,,
103040,set_tempo,,,,,20,1,0,422535,,,,,
103050,set_tempo,,,,,10,1,0,425532,,,,,
103060,set_tempo,,,,,10,1,0,428571,,,,,
103080,set_tempo,,,,,20,1,0,437956,,,,,
103090,set_tempo,,,,,10,1,0,444444,,,,,
103110,set_tempo,,,,,20,1,0,458015,,,,,
103120,set_tempo,,,,,10,1,0,472441,,,,,
103130,set_tempo,,,,,10,1,0,487805,,,,,
103190,set_tempo,,,,,60,1,0,521739,,,,,
103210,set_tempo,,,,,20,1,0,526316,,,,,
103230,set_tempo,,,,,20,1,0,545455,,,,,
103240,set_tempo,,,,,10,1,0,560748,,,,,
103260,set_tempo,,,,,20,1,0,588235,,,,,
103270,set_tempo,,,,,10,1,0,594059,,,,,
103330,set_tempo,,,,,60,1,0,612245,,,,,
103340,set_tempo,,,,,10,1,0,638298,,,,,
103350,set_tempo,,,,,10,1,0,645161,,,,,
103360,set_tempo,,,,,10,1,0,652174,,,,,
103370,set_tempo,,,,,10,1,0,659341,,,,,
103380,set_tempo,,,,,10,1,0,674157,,,,,
103420,set_tempo,,,,,40,1,0,689655,,,,,
103440,note_off,,,,,0,0,1,,,,0,73,64
103440,note_off,,,,,480,0,1,,,,0,63,64
103440,note_on,,,,,0,0,2,,,,0,44,37
103440,note_off,,,,,480,0,2,,,,0,43,64
103440,note_on,,,,,0,0,1,,,,0,72,36
103440,set_tempo,,,,,20,1,0,352941,,,,,
103560,note_off,,,,,0,0,2,,,,0,51,64
103560,note_off,,,,,120,0,2,,,,0,44,64
103560,note_off,,,,,120,0,1,,,,0,72,64
103680,note_on,,,,,120,0,1,,,,0,72,45
103680,control_change,,,,,0,0,1,,64,95,0,,
103780,set_tempo,,,,,340,1,0,363636,,,,,
103800,set_tempo,,,,,20,1,0,361446,,,,,
103860,set_tempo,,,,,60,1,0,355030,,,,,
103880,set_tempo,,,,,20,1,0,352941,,,,,
103912,control_change,,,,,232,0,1,,64,0,0,,
103920,note_on,,,,,0,0,2,,,,0,44,28
103920,note_on,,,,,360,0,2,,,,0,51,28
103920,note_off,,,,,8,0,1,,,,0,72,64
103920,note_on,,,,,0,0,1,,,,0,75,36
103920,control_change,,,,,0,0,1,,64,96,0,,
103960,set_tempo,,,,,80,1,0,350877,,,,,
103980,set_tempo,,,,,20,1,0,348837,,,,,
104040,note_on,,,,,0,0,1,,,,0,73,40
104040,note_off,,,,,120,0,1,,,,0,75,64
104060,set_tempo,,,,,80,1,0,346821,,,,,
104070,set_tempo,,,,,10,1,0,344828,,,,,
104110,set_tempo,,,,,40,1,0,342857,,,,,
104130,note_off,,,,,0,0,2,,,,0,51,64
104130,note_off,,,,,210,0,2,,,,0,44,64
104152,control_change,,,,,112,0,1,,64,0,0,,
104160,control_change,,,,,0,0,1,,64,95,0,,
104160,note_on,,,,,0,0,1,,,,0,72,45
104160,note_off,,,,,8,0,1,,,,0,73,64
104160,note_on,,,,,0,0,2,,,,0,51,35
104160,note_on,,,,,30,0,2,,,,0,44,35
104180,set_tempo,,,,,70,1,0,338983,,,,,
104210,set_tempo,,,,,30,1,0,337079,,,,,
104230,set_tempo,,,,,20,1,0,335196,,,,,
104270,set_tempo,,,,,40,1,0,333333,,,,,
104280,note_off,,,,,120,0,1,,,,0,72,64
104290,set_tempo,,,,,20,1,0,331492,,,,,
104350,set_tempo,,,,,60,1,0,400000,,,,,
104370,note_off,,,,,210,0,2,,,,0,51,64
104370,note_off,,,,,0,0,2,,,,0,44,64
104386,control_change,,,,,106,0,1,,64,0,0,,
104390,set_tempo,,,,,40,1,0,329670,,,,,
104400,control_change,,,,,0,0,1,,64,96,0,,
104400,note_on,,,,,14,0,1,,,,0,72,55
104410,set_tempo,,,,,20,1,0,327869,,,,,
104480,set_tempo,,,,,70,1,0,324324,,,,,
104570,set_tempo,,,,,90,1,0,327869,,,,,
104630,set_tempo,,,,,60,1,0,329670,,,,,
104640,note_on,,,,,270,0,2,,,,0,44,43
104640,note_on,,,,,0,0,2,,,,0,51,43
104690,set_tempo,,,,,60,1,0,327869,,,,,
104760,set_tempo,,,,,70,1,0,324324,,,,,
104820,set_tempo,,,,,60,1,0,322581,,,,,
104850,note_off,,,,,210,0,2,,,,0,51,64
104850,note_off,,,,,0,0,2,,,,0,44,64
104872,control_change,,,,,472,0,1,,64,0,0,,
104880,note_on,,,,,30,0,2,,,,0,45,33
104880,note_on,,,,,0,0,2,,,,0,51,33
104880,note_off,,,,,8,0,1,,,,0,72,64
104880,note_on,,,,,0,0,1,,,,0,72,45
104920,set_tempo,,,,,100,1,0,320856,,,,,
105030,set_tempo,,,,,110,1,0,317460,,,,,
105090,note_off,,,,,210,0,1,,,,0,72,64
105090,set_tempo,,,,,60,1,0,315789,,,,,
105090,note_off,,,,,0,0,2,,,,0,45,64
105090,note_off,,,,,210,0,2,,,,0,51,64
105120,note_on,,,,,30,0,1,,,,0,72,54
105120,control_change,,,,,0,0,1,,64,96,0,,
105190,set_tempo,,,,,100,1,0,314136,,,,,
105240,note_on,,,,,0,0,1,,,,0,73,42
105240,note_off,,,,,120,0,1,,,,0,72,64
105352,control_change,,,,,112,0,1,,64,0,0,,
105360,control_change,,,,,0,0,1,,64,95,0,,
105360,note_off,,,,,8,0,1,,,,0,73,64
105360,note_on,,,,,0,0,2,,,,0,51,36
105360,note_on,,,,,270,0,2,,,,0,46,36
105360,note_on,,,,,0,0,1,,,,0,75,46
105390,set_tempo,,,,,200,1,0,315789,,,,,
105430,set_tempo,,,,,40,1,0,317460,,,,,
105470,set_tempo,,,,,40,1,0,320856,,,,,
105480,note_off,,,,,120,0,1,,,,0,75,64
105480,note_on,,,,,0,0,1,,,,0,73,50
105510,set_tempo,,,,,40,1,0,322581,,,,,
105540,set_tempo,,,,,30,1,0,324324,,,,,
105550,set_tempo,,,,,10,1,0,327869,,,,,
105586,control_change,,,,,106,0,1,,64,0,0,,
105590,set_tempo,,,,,40,1,0,329670,,,,,
105600,note_on,,,,,0,0,2,,,,0,48,42
105600,note_on,,,,,0,0,2,,,,0,51,42
105600,note_off,,,,,0,0,2,,,,0,46,64
105600,note_off,,,,,240,0,2,,,,0,51,64
105600,note_off,,,,,14,0,1,,,,0,73,64
105600,note_on,,,,,0,0,1,,,,0,72,53
105600,control_change,,,,,0,0,1,,64,95,0,,
105610,set_tempo,,,,,20,1,0,331492,,,,,
105640,set_tempo,,,,,30,1,0,333333,,,,,
105670,set_tempo,,,,,30,1,0,335196,,,,,
105700,set_tempo,,,,,30,1,0,337079,,,,,
105720,set_tempo,,,,,20,1,0,338983,,,,,
105720,note_off,,,,,120,0,1,,,,0,72,64
105720,note_on,,,,,0,0,1,,,,0,70,57
105760,set_tempo,,,,,40,1,0,342857,,,,,
105780,set_tempo,,,,,20,1,0,344828,,,,,
105790,set_tempo,,,,,10,1,0,342857,,,,,
105832,control_change,,,,,112,0,1,,64,0,0,,
105840,control_change,,,,,0,0,1,,64,96,0,,
105840,note_on,,,,,0,0,2,,,,0,51,53
105840,note_on,,,,,0,0,2,,,,0,49,53
105840,note_off,,,,,240,0,2,,,,0,48,64
105840,note_off,,,,,0,0,2,,,,0,51,64
105840,note_off,,,,,8,0,1,,,,0,70,64
105840,set_tempo,,,,,50,1,0,344828,,,,,
105840,note_on,,,,,0,0,1,,,,0,70,62
105890,set_tempo,,,,,50,1,0,346821,,,,,
106020,set_tempo,,,,,130,1,0,348837,,,,,
106100,set_tempo,,,,,80,1,0,350877,,,,,
106140,set_tempo,,,,,40,1,0,352941,,,,,
106180,set_tempo,,,,,40,1,0,355030,,,,,
106220,set_tempo,,,,,40,1,0,361446,,,,,
106230,set_tempo,,,,,10,1,0,363636,,,,,
106260,set_tempo,,,,,30,1,0,365854,,,,,
106280,set_tempo,,,,,20,1,0,368098,,,,,
106312,control_change,,,,,472,0,1,,64,0,0,,
106320,control_change,,,,,0,0,1,,64,94,0,,
106320,note_off,,,,,8,0,1,,,,0,70,64
106320,set_tempo,,,,,40,1,0,370370,,,,,
106320,note_on,,,,,0,0,1,,,,0,71,41
106340,set_tempo,,,,,20,1,0,372671,,,,,
106370,set_tempo,,,,,30,1,0,377358,,,,,
106390,set_tempo,,,,,20,1,0,379747,,,,,
106420,set_tempo,,,,,30,1,0,382166,,,,,
106430,set_tempo,,,,,10,1,0,384615,,,,,
106450,set_tempo,,,,,20,1,0,387097,,,,,
106470,set_tempo,,,,,20,1,0,389610,,,,,
106480,set_tempo,,,,,10,1,0,392157,,,,,
106492,control_change,,,,,172,0,1,,64,0,0,,
106500,note_off,,,,,0,0,2,,,,0,51,64
106500,set_tempo,,,,,20,1,0,389610,,,,,
106500,note_off,,,,,660,0,2,,,,0,49,64
106500,note_off,,,,,8,0,1,,,,0,71,64
106560,control_change,,,,,0,0,1,,64,96,0,,
106560,note_on,,,,,0,0,1,,,,0,72,56
106560,note_on,,,,,60,0,1,,,,0,60,56
106570,set_tempo,,,,,70,1,0,342857,,,,,
106630,set_tempo,,,,,60,1,0,338983,,,,,
106800,note_on,,,,,300,0,2,,,,0,48,38
106800,note_on,,,,,0,0,2,,,,0,52,38
106910,set_tempo,,,,,280,1,0,337079,,,,,
107010,note_off,,,,,0,0,2,,,,0,48,64
107010,note_off,,,,,210,0,2,,,,0,52,64
107040,note_on,,,,,0,0,2,,,,0,52,31
107040,note_off,,,,,480,0,1,,,,0,72,64
107040,note_off,,,,,0,0,1,,,,0,60,64
107040,note_on,,,,,0,0,1,,,,0,55,51
107040,note_on,,,,,0,0,1,,,,0,67,51
107040,note_on,,,,,30,0,2,,,,0,48,31
107070,set_tempo,,,,,160,1,0,335196,,,,,
107150,set_tempo,,,,,80,1,0,333333,,,,,
107160,note_off,,,,,120,0,1,,,,0,67,64
107160,note_off,,,,,0,0,1,,,,0,55,64
107250,note_off,,,,,210,0,2,,,,0,52,64
107250,note_off,,,,,0,0,2,,,,0,48,64
107272,control_change,,,,,112,0,1,,64,0,0,,
107280,note_on,,,,,0,0,1,,,,0,68,61
107280,control_change,,,,,0,0,1,,64,95,0,,
107280,note_on,,,,,8,0,1,,,,0,56,61
107370,set_tempo,,,,,220,1,0,331492,,,,,
107430,set_tempo,,,,,60,1,0,329670,,,,,
107520,note_on,,,,,270,0,2,,,,0,41,48
107520,note_on,,,,,0,0,2,,,,0,48,48
107520,note_on,,,,,0,0,2,,,,0,53,48
107590,set_tempo,,,,,160,1,0,327869,,,,,
107710,set_tempo,,,,,120,1,0,324324,,,,,
107730,note_off,,,,,210,0,2,,,,0,53,64
107730,note_off,,,,,0,0,2,,,,0,48,64
107730,note_off,,,,,0,0,2,,,,0,41,64
107760,note_on,,,,,30,0,2,,,,0,41,40
107760,note_on,,,,,0,0,2,,,,0,48,40
107760,note_on,,,,,0,0,2,,,,0,53,40
107760,note_off,,,,,480,0,1,,,,0,68,64
107760,note_off,,,,,0,0,1,,,,0,56,64
107760,note_on,,,,,0,0,1,,,,0,65,57
107830,set_tempo,,,,,120,1,0,322581,,,,,
107880,note_off,,,,,120,0,1,,,,0,65,64
107940,set_tempo,,,,,110,1,0,320856,,,,,
107970,note_off,,,,,0,0,2,,,,0,48,64
107970,note_off,,,,,0,0,2,,,,0,41,64
107970,note_off,,,,,210,0,2,,,,0,53,64
107970,set_tempo,,,,,30,1,0,317460,,,,,
107990,set_tempo,,,,,20,1,0,310881,,,,,
107992,control_change,,,,,112,0,1,,64,0,0,,
108000,set_tempo,,,,,10,1,0,314136,,,,,
108000,note_on,,,,,8,0,1,,,,0,61,54
108000,note_on,,,,,0,0,1,,,,0,73,54
108000,control_change,,,,,0,0,1,,64,96,0,,
108010,set_tempo,,,,,10,1,0,315789,,,,,
108020,set_tempo,,,,,10,1,0,317460,,,,,
108040,set_tempo,,,,,20,1,0,320856,,,,,
108070,set_tempo,,,,,30,1,0,322581,,,,,
108080,set_tempo,,,,,10,1,0,324324,,,,,
108100,set_tempo,,,,,20,1,0,327869,,,,,
108130,set_tempo,,,,,30,1,0,329670,,,,,
108150,set_tempo,,,,,20,1,0,331492,,,,,
108170,set_tempo,,,,,20,1,0,337079,,,,,
108230,set_tempo,,,,,60,1,0,338983,,,,,
108240,note_on,,,,,270,0,2,,,,0,46,45
108290,set_tempo,,,,,60,1,0,346821,,,,,
108310,set_tempo,,,,,20,1,0,352941,,,,,
108370,set_tempo,,,,,60,1,0,355030,,,,,
108450,set_tempo,,,,,80,1,0,365854,,,,,
108480,note_on,,,,,0,0,1,,,,0,67,40
108480,note_on,,,,,0,0,1,,,,0,55,40
108480,note_off,,,,,0,0,1,,,,0,61,64
108480,note_off,,,,,480,0,1,,,,0,73,64
108480,note_on,,,,,0,0,2,,,,0,51,38
108480,note_on,,,,,0,0,2,,,,0,39,38
108480,note_off,,,,,240,0,2,,,,0,46,64
108510,set_tempo,,,,,60,1,0,377358,,,,,
108590,set_tempo,,,,,80,1,0,387097,,,,,
108600,note_off,,,,,0,0,1,,,,0,55,64
108600,note_off,,,,,120,0,1,,,,0,67,64
108650,set_tempo,,,,,60,1,0,400000,,,,,
108690,note_off,,,,,210,0,2,,,,0,51,64
108690,note_off,,,,,0,0,2,,,,0,39,64
108710,set_tempo,,,,,60,1,0,413793,,,,,
108712,control_change,,,,,112,0,1,,64,0,0,,
108720,note_on,,,,,8,0,1,,,,0,68,36
108720,note_on,,,,,0,0,1,,,,0,56,36
108720,note_on,,,,,0,0,2,,,,0,48,41
108720,note_on,,,,,30,0,2,,,,0,44,41
108770,set_tempo,,,,,60,1,0,425532,,,,,
108840,note_off,,,,,120,0,2,,,,0,44,64
108840,note_on,,,,,0,0,2,,,,0,39,40
108850,set_tempo,,,,,80,1,0,434783,,,,,
108930,set_tempo,,,,,80,1,0,451128,,,,,
108960,note_off,,,,,120,0,2,,,,0,39,64
108960,note_on,,,,,0,0,2,,,,0,41,35
108990,set_tempo,,,,,60,1,0,465116,,,,,
109010,set_tempo,,,,,20,1,0,472441,,,,,
109070,set_tempo,,,,,60,1,0,491803,,,,,
109080,note_off,,,,,120,0,2,,,,0,41,64
109080,note_on,,,,,0,0,2,,,,0,43,32
109140,note_off,,,,,420,0,1,,,,0,68,64
109150,set_tempo,,,,,80,1,0,512821,,,,,
109200,note_off,,,,,60,0,1,,,,0,56,64
109200,note_on,,,,,0,0,2,,,,0,44,28
109200,note_off,,,,,120,0,2,,,,0,43,64
109210,set_tempo,,,,,60,1,0,530973,,,,,
109230,set_tempo,,,,,20,1,0,540541,,,,,
109250,set_tempo,,,,,20,1,0,545455,,,,,
109260,set_tempo,,,,,10,1,0,550459,,,,,
109280,set_tempo,,,,,20,1,0,1428571,,,,,
109380,note_off,,,,,0,0,2,,,,0,48,64
109380,note_off,,,,,180,0,2,,,,0,44,64
109440,note_on,,,,,240,0,1,,,,0,63,53
109440,note_on,,,,,0,0,1,,,,0,75,53
109440,control_change,,,,,0,0,1,,64,96,0,,
109440,marker,,,,,0,1,0,,,,,,
109440,set_tempo,,,,,160,1,0,272727,,,,,
109440,note_on,,,,,60,0,2,,,,0,48,48
109480,set_tempo,,,,,40,1,0,271493,,,,,
109530,note_off,,,,,90,0,2,,,,0,48,64
109540,set_tempo,,,,,60,1,0,270270,,,,,
109560,note_on,,,,,30,0,2,,,,0,55,32
109580,set_tempo,,,,,40,1,0,269058,,,,,
109610,set_tempo,,,,,30,1,0,266667,,,,,
109650,note_off,,,,,90,0,2,,,,0,55,64
109670,set_tempo,,,,,60,1,0,265487,,,,,
109672,control_change,,,,,232,0,1,,64,0,0,,
109680,note_on,,,,,0,0,1,,,,0,65,37
109680,note_off,,,,,0,0,1,,,,0,63,64
109680,note_on,,,,,30,0,2,,,,0,50,45
109680,note_on,,,,,0,0,1,,,,0,77,37
109680,control_change,,,,,0,0,1,,64,94,0,,
109680,note_off,,,,,8,0,1,,,,0,75,64
109770,note_off,,,,,90,0,2,,,,0,50,64
109770,set_tempo,,,,,100,1,0,264317,,,,,
109800,note_on,,,,,30,0,2,,,,0,55,33
109890,note_off,,,,,90,0,2,,,,0,55,64
109900,set_tempo,,,,,130,1,0,263158,,,,,
109912,control_change,,,,,232,0,1,,64,0,0,,
109920,note_on,,,,,30,0,2,,,,0,51,47
109920,control_change,,,,,0,0,1,,64,95,0,,
109920,note_on,,,,,0,0,1,,,,0,67,47
109920,note_on,,,,,0,0,1,,,,0,79,47
109920,note_off,,,,,0,0,1,,,,0,65,64
109920,note_off,,,,,8,0,1,,,,0,77,64
110010,note_off,,,,,90,0,2,,,,0,51,64
110040,note_on,,,,,30,0,2,,,,0,55,35
110100,note_off,,,,,180,0,1,,,,0,67,64
110100,note_off,,,,,0,0,1,,,,0,79,64
110130,note_off,,,,,90,0,2,,,,0,55,64
110152,control_change,,,,,52,0,1,,64,0,0,,
110160,note_on,,,,,0,0,1,,,,0,79,57
110160,control_change,,,,,0,0,1,,64,95,0,,
110160,note_on,,,,,30,0,2,,,,0,51,52
110160,note_on,,,,,8,0,1,,,,0,67,57
110280,note_on,,,,,0,0,2,,,,0,55,38
110280,note_off,,,,,120,0,2,,,,0,51,64
110370,note_off,,,,,90,0,2,,,,0,55,64
110400,note_on,,,,,30,0,2,,,,0,60,49
110490,note_off,,,,,90,0,2,,,,0,60,64
110520,note_on,,,,,30,0,2,,,,0,55,39
110600,set_tempo,,,,,700,1,0,264317,,,,,
110610,note_off,,,,,90,0,2,,,,0,55,64
110632,control_change,,,,,472,0,1,,64,0,0,,
110640,note_on,,,,,30,0,2,,,,0,50,47
110640,note_off,,,,,8,0,1,,,,0,79,64
110640,note_off,,,,,0,0,1,,,,0,67,64
110640,note_on,,,,,0,0,1,,,,0,68,41
110640,note_on,,,,,0,0,1,,,,0,80,41
110710,set_tempo,,,,,110,1,0,265487,,,,,
110760,note_on,,,,,0,0,2,,,,0,55,42
110760,note_off,,,,,120,0,2,,,,0,50,64
110820,note_off,,,,,0,0,1,,,,0,68,64
110820,note_off,,,,,180,0,1,,,,0,80,64
110850,note_off,,,,,90,0,2,,,,0,55,64
110880,note_on,,,,,60,0,1,,,,0,67,54
110880,control_change,,,,,0,0,1,,64,96,0,,
110880,note_on,,,,,30,0,2,,,,0,51,53
110880,note_on,,,,,0,0,1,,,,0,79,54
110890,set_tempo,,,,,180,1,0,266667,,,,,
110960,set_tempo,,,,,70,1,0,269058,,,,,
111000,note_off,,,,,120,0,2,,,,0,51,64
111000,note_on,,,,,0,0,2,,,,0,55,39
111090,note_off,,,,,90,0,2,,,,0,55,64
111120,note_on,,,,,30,0,2,,,,0,60,50
111190,set_tempo,,,,,230,1,0,270270,,,,,
111210,note_off,,,,,90,0,2,,,,0,60,64
111240,note_on,,,,,30,0,2,,,,0,55,41
111330,set_tempo,,,,,140,1,0,271493,,,,,
111330,note_off,,,,,90,0,2,,,,0,55,64
111352,control_change,,,,,472,0,1,,64,0,0,,
111360,note_on,,,,,30,0,2,,,,0,48,41
111360,note_on,,,,,0,0,1,,,,0,75,34
111360,note_off,,,,,8,0,1,,,,0,79,64
111360,note_off,,,,,0,0,1,,,,0,67,64
111360,note_on,,,,,0,0,1,,,,0,63,34
111480,note_off,,,,,120,0,2,,,,0,48,64
111480,note_on,,,,,0,0,2,,,,0,55,32
111540,note_off,,,,,180,0,1,,,,0,75,64
111540,note_off,,,,,0,0,1,,,,0,63,64
111550,set_tempo,,,,,220,1,0,272727,,,,,
111560,set_tempo,,,,,10,1,0,273973,,,,,
111570,note_off,,,,,90,0,2,,,,0,55,64
111580,set_tempo,,,,,20,1,0,270270,,,,,
111590,set_tempo,,,,,10,1,0,269058,,,,,
111600,note_on,,,,,0,0,1,,,,0,79,53
111600,note_on,,,,,30,0,2,,,,0,53,48
111600,control_change,,,,,0,0,1,,64,96,0,,
111600,note_on,,,,,60,0,1,,,,0,67,53
111610,set_tempo,,,,,20,1,0,266667,,,,,
111620,set_tempo,,,,,10,1,0,265487,,,,,
111680,set_tempo,,,,,60,1,0,264317,,,,,
111690,note_off,,,,,90,0,2,,,,0,53,64
111720,note_on,,,,,30,0,2,,,,0,55,40
111750,set_tempo,,,,,70,1,0,263158,,,,,
111770,set_tempo,,,,,20,1,0,262009,,,,,
111810,note_off,,,,,90,0,2,,,,0,55,64
111832,control_change,,,,,232,0,1,,64,0,0,,
111840,control_change,,,,,0,0,1,,64,94,0,,
111840,note_on,,,,,0,0,1,,,,0,81,58
111840,note_off,,,,,0,0,1,,,,0,67,64
111840,note_on,,,,,0,0,1,,,,0,69,58
111840,note_on,,,,,30,0,2,,,,0,51,47
111840,note_off,,,,,8,0,1,,,,0,79,64
111890,set_tempo,,,,,120,1,0,259740,,,,,
111930,note_off,,,,,90,0,2,,,,0,51,64
111950,set_tempo,,,,,60,1,0,258621,,,,,
111960,note_on,,,,,30,0,2,,,,0,55,38
112040,set_tempo,,,,,90,1,0,256410,,,,,
112050,note_off,,,,,90,0,2,,,,0,55,64
112072,control_change,,,,,232,0,1,,64,0,0,,
112080,note_on,,,,,30,0,2,,,,0,50,50
112080,note_off,,,,,0,0,1,,,,0,69,64
112080,note_on,,,,,0,0,1,,,,0,71,65
112080,note_on,,,,,0,0,1,,,,0,83,65
112080,control_change,,,,,0,0,1,,64,95,0,,
112080,note_off,,,,,8,0,1,,,,0,81,64
112100,set_tempo,,,,,60,1,0,255319,,,,,
112170,note_off,,,,,90,0,2,,,,0,50,64
112200,set_tempo,,,,,100,1,0,254237,,,,,
112200,note_on,,,,,30,0,2,,,,0,55,35
112260,note_off,,,,,0,0,1,,,,0,71,64
112260,note_off,,,,,180,0,1,,,,0,83,64
112260,set_tempo,,,,,60,1,0,253165,,,,,
112290,note_off,,,,,90,0,2,,,,0,55,64
112312,control_change,,,,,52,0,1,,64,0,0,,
112320,note_on,,,,,8,0,1,,,,0,84,71
112320,note_on,,,,,0,0,1,,,,0,72,71
112320,note_on,,,,,30,0,2,,,,0,51,48
112320,control_change,,,,,0,0,1,,64,96,0,,
112340,set_tempo,,,,,80,1,0,252101,,,,,
112410,note_off,,,,,90,0,2,,,,0,51,64
112410,set_tempo,,,,,70,1,0,251046,,,,,
112440,note_on,,,,,30,0,2,,,,0,55,43
112530,note_off,,,,,90,0,2,,,,0,55,64
112552,control_change,,,,,232,0,1,,64,0,0,,
112560,note_off,,,,,0,0,1,,,,0,84,64
112560,note_on,,,,,30,0,2,,,,0,49,60
112560,note_off,,,,,8,0,1,,,,0,72,64
112560,note_on,,,,,0,0,1,,,,0,73,76
112560,control_change,,,,,0,0,1,,64,94,0,,
112560,note_on,,,,,0,0,1,,,,0,85,76
112650,note_off,,,,,90,0,2,,,,0,49,64
112680,note_on,,,,,30,0,2,,,,0,55,53
112770,note_off,,,,,90,0,2,,,,0,55,64
112792,control_change,,,,,232,0,1,,64,0,0,,
112800,note_on,,,,,30,0,2,,,,0,48,76
112800,note_off,,,,,8,0,1,,,,0,85,64
112800,note_off,,,,,0,0,1,,,,0,73,64
112800,note_on,,,,,0,0,1,,,,0,75,82
112800,note_on,,,,,0,0,1,,,,0,87,82
112800,control_change,,,,,0,0,1,,64,95,0,,
112840,set_tempo,,,,,430,1,0,252101,,,,,
112890,note_off,,,,,90,0,2,,,,0,48,64
112920,note_on,,,,,30,0,2,,,,0,55,62
112980,note_off,,,,,180,0,1,,,,0,87,64
112980,note_off,,,,,0,0,1,,,,0,75,64
113010,note_off,,,,,90,0,2,,,,0,55,64
113032,control_change,,,,,52,0,1,,64,0,0,,
113040,note_on,,,,,0,0,1,,,,0,87,86
113040,note_on,,,,,30,0,2,,,,0,48,84
113040,note_on,,,,,8,0,1,,,,0,75,86
113040,control_change,,,,,0,0,1,,64,95,0,,
113050,set_tempo,,,,,210,1,0,253165,,,,,
113160,note_off,,,,,120,0,2,,,,0,48,64
113160,note_on,,,,,0,0,2,,,,0,51,66
113180,set_tempo,,,,,130,1,0,254237,,,,,
113250,note_off,,,,,90,0,2,,,,0,51,64
113280,note_on,,,,,30,0,2,,,,0,56,74
113300,set_tempo,,,,,120,1,0,255319,,,,,
113370,note_off,,,,,90,0,2,,,,0,56,64
113400,note_on,,,,,30,0,2,,,,0,51,57
113410,set_tempo,,,,,110,1,0,256410,,,,,
113440,set_tempo,,,,,30,1,0,258621,,,,,
113490,note_off,,,,,90,0,2,,,,0,51,64
113512,control_change,,,,,472,0,1,,64,0,0,,
113520,note_off,,,,,8,0,1,,,,0,87,64
113520,note_off,,,,,0,0,1,,,,0,75,64
113520,note_on,,,,,0,0,1,,,,0,77,73
113520,note_on,,,,,0,0,1,,,,0,89,73
113520,note_on,,,,,30,0,2,,,,0,48,73
113640,note_off,,,,,120,0,2,,,,0,48,64
113640,note_on,,,,,0,0,2,,,,0,51,67
113680,set_tempo,,,,,240,1,0,259740,,,,,
113700,note_off,,,,,180,0,1,,,,0,89,64
113700,note_off,,,,,0,0,1,,,,0,77,64
113730,note_off,,,,,90,0,2,,,,0,51,64
113760,note_on,,,,,30,0,2,,,,0,46,84
113760,note_on,,,,,60,0,1,,,,0,75,91
113760,note_on,,,,,0,0,1,,,,0,87,91
113760,control_change,,,,,0,0,1,,64,96,0,,
113800,set_tempo,,,,,120,1,0,262009,,,,,
113870,set_tempo,,,,,70,1,0,263158,,,,,
113880,note_off,,,,,120,0,2,,,,0,46,64
113880,note_on,,,,,0,0,2,,,,0,51,68
113970,note_off,,,,,90,0,2,,,,0,51,64
113970,set_tempo,,,,,100,1,0,264317,,,,,
114000,note_on,,,,,30,0,2,,,,0,55,74
114090,note_off,,,,,90,0,2,,,,0,55,64
114120,note_on,,,,,30,0,2,,,,0,51,63
114140,set_tempo,,,,,170,1,0,265487,,,,,
114200,set_tempo,,,,,60,1,0,266667,,,,,
114210,note_off,,,,,90,0,2,,,,0,51,64
114232,control_change,,,,,472,0,1,,64,0,0,,
114240,note_off,,,,,8,0,1,,,,0,87,64
114240,note_off,,,,,0,0,1,,,,0,75,64
114240,note_on,,,,,0,0,1,,,,0,82,77
114240,note_on,,,,,0,0,1,,,,0,70,77
114240,note_on,,,,,30,0,2,,,,0,46,72
114320,set_tempo,,,,,120,1,0,269058,,,,,
114360,note_off,,,,,120,0,2,,,,0,46,64
114360,note_on,,,,,0,0,2,,,,0,51,60
114380,set_tempo,,,,,60,1,0,270270,,,,,
114420,note_off,,,,,0,0,1,,,,0,70,64
114420,note_off,,,,,180,0,1,,,,0,82,64
114440,set_tempo,,,,,60,1,0,271493,,,,,
114450,note_off,,,,,90,0,2,,,,0,51,64
114480,set_tempo,,,,,40,1,0,272727,,,,,
114480,note_on,,,,,0,0,1,,,,0,84,97
114480,note_on,,,,,30,0,2,,,,0,44,82
114480,control_change,,,,,0,0,1,,64,96,0,,
114480,note_on,,,,,60,0,1,,,,0,72,97
114510,set_tempo,,,,,30,1,0,271493,,,,,
114540,set_tempo,,,,,30,1,0,270270,,,,,
114570,note_off,,,,,90,0,2,,,,0,44,64
114600,note_on,,,,,30,0,2,,,,0,48,67
114620,set_tempo,,,,,80,1,0,269058,,,,,
114690,note_off,,,,,90,0,2,,,,0,48,64
114700,set_tempo,,,,,80,1,0,266667,,,,,
114712,control_change,,,,,232,0,1,,64,0,0,,
114720,note_off,,,,,8,0,1,,,,0,84,64
114720,control_change,,,,,0,0,1,,64,94,0,,
114720,note_on,,,,,0,0,1,,,,0,88,80
114720,note_on,,,,,0,0,1,,,,0,76,80
114720,note_off,,,,,0,0,1,,,,0,72,64
114720,note_on,,,,,30,0,2,,,,0,43,71
114780,set_tempo,,,,,80,1,0,265487,,,,,
114810,note_off,,,,,90,0,2,,,,0,43,64
114840,note_on,,,,,30,0,2,,,,0,48,56
114850,set_tempo,,,,,70,1,0,264317,,,,,
114870,set_tempo,,,,,20,1,0,263158,,,,,
114930,set_tempo,,,,,60,1,0,262009,,,,,
114930,note_off,,,,,90,0,2,,,,0,48,64
114952,control_change,,,,,232,0,1,,64,0,0,,
114960,note_off,,,,,8,0,1,,,,0,88,64
114960,note_off,,,,,0,0,1,,,,0,76,64
114960,note_on,,,,,0,0,1,,,,0,89,71
114960,note_on,,,,,0,0,1,,,,0,77,71
114960,control_change,,,,,0,0,1,,64,95,0,,
114960,note_on,,,,,30,0,2,,,,0,41,69
115050,note_off,,,,,90,0,2,,,,0,41,64
115080,note_on,,,,,30,0,2,,,,0,48,57
115090,set_tempo,,,,,160,1,0,259740,,,,,
115140,note_off,,,,,0,0,1,,,,0,77,64
115140,note_off,,,,,180,0,1,,,,0,89,64
115150,set_tempo,,,,,60,1,0,258621,,,,,
115170,note_off,,,,,90,0,2,,,,0,48,64
115192,control_change,,,,,52,0,1,,64,0,0,,
115200,control_change,,,,,0,0,1,,64,96,0,,
115200,note_on,,,,,0,0,1,,,,0,58,63
115200,note_on,,,,,8,0,1,,,,0,70,63
115200,note_on,,,,,30,0,2,,,,0,43,48
115290,note_off,,,,,90,0,2,,,,0,43,64
115320,note_on,,,,,30,0,2,,,,0,46,43
115350,set_tempo,,,,,200,1,0,254237,,,,,
115410,note_off,,,,,90,0,2,,,,0,46,64
115430,set_tempo,,,,,80,1,0,253165,,,,,
115432,control_change,,,,,232,0,1,,64,0,0,,
115440,note_off,,,,,0,0,1,,,,0,70,64
115440,note_on,,,,,0,0,1,,,,0,74,49
115440,note_on,,,,,0,0,1,,,,0,62,49
115440,control_change,,,,,0,0,1,,64,94,0,,
115440,note_off,,,,,8,0,1,,,,0,58,64
115440,note_on,,,,,30,0,2,,,,0,41,49
115530,note_off,,,,,90,0,2,,,,0,41,64
115550,set_tempo,,,,,120,1,0,252101,,,,,
115560,note_on,,,,,30,0,2,,,,0,46,36
115650,note_off,,,,,90,0,2,,,,0,46,64
115672,control_change,,,,,232,0,1,,64,0,0,,
115680,note_off,,,,,0,0,1,,,,0,74,64
115680,note_on,,,,,0,0,1,,,,0,63,40
115680,note_off,,,,,8,0,1,,,,0,62,64
115680,control_change,,,,,0,0,1,,64,95,0,,
115680,note_on,,,,,0,0,1,,,,0,75,40
115680,note_on,,,,,30,0,2,,,,0,39,42
115730,set_tempo,,,,,180,1,0,251046,,,,,
115770,note_off,,,,,90,0,2,,,,0,39,64
115800,note_on,,,,,30,0,2,,,,0,46,32
115860,note_off,,,,,180,0,1,,,,0,75,64
115860,note_off,,,,,0,0,1,,,,0,63,64
115890,set_tempo,,,,,160,1,0,248963,,,,,
115890,note_off,,,,,90,0,2,,,,0,46,64
115912,control_change,,,,,52,0,1,,64,0,0,,
115920,note_on,,,,,0,0,1,,,,0,67,46
115920,note_on,,,,,0,0,1,,,,0,63,46
115920,control_change,,,,,0,0,1,,64,95,0,,
115920,note_on,,,,,30,0,2,,,,0,34,44
115920,note_on,,,,,8,0,1,,,,0,58,46
115960,set_tempo,,,,,70,1,0,251046,,,,,
116040,note_off,,,,,120,0,2,,,,0,34,64
116040,note_on,,,,,0,0,2,,,,0,46,35
116130,note_off,,,,,90,0,2,,,,0,46,64
116160,note_on,,,,,30,0,2,,,,0,48,39
116170,set_tempo,,,,,210,1,0,252101,,,,,
116250,set_tempo,,,,,80,1,0,253165,,,,,
116250,note_off,,,,,90,0,2,,,,0,48,64
116280,note_on,,,,,30,0,2,,,,0,46,33
116330,set_tempo,,,,,80,1,0,254237,,,,,
116370,note_off,,,,,90,0,2,,,,0,46,64
116392,control_change,,,,,472,0,1,,64,0,0,,
116400,note_on,,,,,0,0,1,,,,0,63,52
116400,note_on,,,,,30,0,2,,,,0,34,40
116400,note_off,,,,,0,0,1,,,,0,63,64
116400,note_off,,,,,0,0,1,,,,0,58,64
116400,note_on,,,,,0,0,1,,,,0,60,52
116400,note_on,,,,,0,0,1,,,,0,68,52
116400,note_off,,,,,8,0,1,,,,0,67,64
116410,set_tempo,,,,,80,1,0,255319,,,,,
116510,set_tempo,,,,,100,1,0,259740,,,,,
116520,note_off,,,,,120,0,2,,,,0,34,64
116520,note_on,,,,,0,0,2,,,,0,46,33
116580,note_off,,,,,0,0,1,,,,0,63,64
116580,note_off,,,,,180,0,1,,,,0,68,64
116580,note_off,,,,,0,0,1,,,,0,60,64
116610,note_off,,,,,90,0,2,,,,0,46,64
116630,set_tempo,,,,,120,1,0,265487,,,,,
116640,note_on,,,,,30,0,2,,,,0,34,45
116640,note_on,,,,,60,0,1,,,,0,56,44
116640,note_on,,,,,0,0,1,,,,0,62,44
116640,note_on,,,,,0,0,1,,,,0,65,44
116640,control_change,,,,,0,0,1,,64,96,0,,
116730,set_tempo,,,,,100,1,0,270270,,,,,
116760,note_off,,,,,120,0,2,,,,0,34,64
116760,note_on,,,,,0,0,2,,,,0,46,35
116810,set_tempo,,,,,80,1,0,273973,,,,,
116850,note_off,,,,,90,0,2,,,,0,46,64
116880,note_on,,,,,30,0,2,,,,0,48,39
116890,set_tempo,,,,,80,1,0,275229,,,,,
116970,note_off,,,,,90,0,2,,,,0,48,64
116970,set_tempo,,,,,80,1,0,280374,,,,,
117000,note_on,,,,,30,0,2,,,,0,46,35
117050,set_tempo,,,,,80,1,0,284360,,,,,
117090,note_off,,,,,90,0,2,,,,0,46,64
117112,control_change,,,,,472,0,1,,64,0,0,,
117120,note_on,,,,,0,0,1,,,,0,58,53
117120,note_on,,,,,0,0,1,,,,0,63,53
117120,note_on,,,,,30,0,2,,,,0,39,39
117120,note_off,,,,,8,0,1,,,,0,65,64
117120,note_off,,,,,0,0,1,,,,0,56,64
117120,note_on,,,,,0,0,1,,,,0,55,53
117120,note_off,,,,,0,0,1,,,,0,62,64
117130,set_tempo,,,,,80,1,0,285714,,,,,
117210,set_tempo,,,,,80,1,0,292683,,,,,
117240,note_on,,,,,0,0,2,,,,0,46,35
117240,note_off,,,,,120,0,2,,,,0,39,64
117270,set_tempo,,,,,60,1,0,294118,,,,,
117300,note_off,,,,,180,0,1,,,,0,63,64
117300,note_off,,,,,0,0,1,,,,0,58,64
117300,note_off,,,,,0,0,1,,,,0,55,64
117330,note_off,,,,,90,0,2,,,,0,46,64
117340,set_tempo,,,,,70,1,0,295567,,,,,
117360,note_on,,,,,60,0,1,,,,0,55,40
117360,note_on,,,,,0,0,1,,,,0,58,40
117360,note_on,,,,,0,0,1,,,,0,63,40
117360,note_on,,,,,30,0,2,,,,0,39,44
117360,control_change,,,,,0,0,1,,64,96,0,,
117410,set_tempo,,,,,70,1,0,297030,,,,,
117490,set_tempo,,,,,80,1,0,298507,,,,,
117520,set_tempo,,,,,30,1,0,301508,,,,,
117540,note_off,,,,,180,0,2,,,,0,39,64
117540,note_off,,,,,180,0,1,,,,0,63,64
117540,note_off,,,,,0,0,1,,,,0,58,64
117540,note_off,,,,,0,0,1,,,,0,55,64
117590,set_tempo,,,,,70,1,0,269058,,,,,
117600,note_on,,,,,60,0,1,,,,0,55,68
117720,note_on,,,,,0,0,1,,,,0,58,62
117720,note_off,,,,,120,0,1,,,,0,55,64
117832,control_change,,,,,112,0,1,,64,0,0,,
117840,note_on,,,,,0,0,1,,,,0,63,77
117840,note_off,,,,,8,0,1,,,,0,58,64
117840,control_change,,,,,0,0,1,,64,94,0,,
117960,note_off,,,,,120,0,1,,,,0,63,64
117960,note_on,,,,,0,0,1,,,,0,67,83
118050,note_off,,,,,90,0,1,,,,0,67,64
118072,control_change,,,,,22,0,1,,64,0,0,,
118080,note_on,,,,,540,0,2,,,,0,43,98
118080,note_on,,,,,0,0,2,,,,0,51,98
118080,note_on,,,,,0,0,2,,,,0,55,98
118080,set_tempo,,,,,490,1,0,310881,,,,,
118080,control_change,,,,,0,0,1,,64,95,0,,
118080,note_on,,,,,0,0,1,,,,0,63,97
118080,note_on,,,,,0,0,1,,,,0,70,97
118080,note_on,,,,,8,0,1,,,,0,58,97
118546,control_change,,,,,466,0,1,,64,0,0,,
118560,note_on,,,,,0,0,2,,,,0,51,67
118560,note_on,,,,,0,0,2,,,,0,39,67
118560,note_off,,,,,0,0,2,,,,0,43,64
118560,note_off,,,,,0,0,2,,,,0,51,64
118560,note_on,,,,,0,0,1,,,,0,67,63
118560,note_on,,,,,0,0,1,,,,0,63,63
118560,note_on,,,,,0,0,1,,,,0,58,63
118560,note_off,,,,,0,0,1,,,,0,58,64
118560,note_off,,,,,0,0,1,,,,0,63,64
118560,note_off,,,,,14,0,1,,,,0,70,64
118560,note_off,,,,,480,0,2,,,,0,55,64
118560,set_tempo,,,,,480,1,0,263158,,,,,
118740,note_off,,,,,0,0,2,,,,0,39,64
118740,set_tempo,,,,,180,1,0,384615,,,,,
118740,note_off,,,,,180,0,2,,,,0,51,64
118740,note_off,,,,,180,0,1,,,,0,67,64
118740,note_off,,,,,0,0,1,,,,0,63,64
118740,note_off,,,,,0,0,1,,,,0,58,64
118800,note_on,,,,,60,0,2,,,,0,79,52
118800,note_on,,,,,60,0,1,,,,0,91,57
118800,set_tempo,,,,,60,1,0,271493,,,,,
118920,note_on,,,,,0,0,2,,,,0,75,44
118920,note_off,,,,,120,0,2,,,,0,79,64
118920,note_off,,,,,120,0,1,,,,0,91,64
118920,note_on,,,,,0,0,1,,,,0,87,44
119010,note_off,,,,,90,0,2,,,,0,75,64
119010,note_off,,,,,90,0,1,,,,0,87,64
119040,note_on,,,,,30,0,1,,,,0,91,53
119040,note_on,,,,,30,0,2,,,,0,79,53
119040,control_change,,,,,0,0,1,,64,96,0,,
119160,note_off,,,,,120,0,2,,,,0,79,64
119160,note_on,,,,,0,0,2,,,,0,75,58
119160,note_on,,,,,0,0,1,,,,0,87,58
119160,note_off,,,,,120,0,1,,,,0,91,64
119280,note_off,,,,,120,0,2,,,,0,75,64
119280,note_off,,,,,120,0,1,,,,0,87,64
119280,note_on,,,,,0,0,2,,,,0,70,66
119280,note_on,,,,,0,0,1,,,,0,82,66
119400,note_on,,,,,0,0,2,,,,0,67,75
119400,note_on,,,,,0,0,1,,,,0,79,75
119400,note_off,,,,,120,0,1,,,,0,82,64
119400,note_off,,,,,120,0,2,,,,0,70,64
119490,note_off,,,,,90,0,2,,,,0,67,64
119490,note_off,,,,,90,0,1,,,,0,79,64
119500,control_change,,,,,10,0,1,,64,0,0,,
119520,note_on,,,,,30,0,2,,,,0,65,104
119520,note_on,,,,,0,0,2,,,,0,68,104
119520,note_on,,,,,0,0,2,,,,0,70,104
119520,note_on,,,,,0,0,1,,,,0,80,104
119520,note_on,,,,,0,0,1,,,,0,82,104
119520,set_tempo,,,,,720,1,0,310881,,,,,
119520,control_change,,,,,0,0,1,,64,96,0,,
119520,note_on,,,,,20,0,1,,,,0,77,104
119992,control_change,,,,,472,0,1,,64,0,0,,
120000,note_off,,,,,8,0,1,,,,0,82,64
120000,note_off,,,,,0,0,1,,,,0,80,64
120000,note_off,,,,,0,0,1,,,,0,77,64
120000,note_on,,,,,0,0,1,,,,0,70,63
120000,note_on,,,,,0,0,1,,,,0,77,63
120000,note_on,,,,,0,0,1,,,,0,82,63
120000,note_on,,,,,0,0,2,,,,0,58,63
120000,note_on,,,,,0,0,2,,,,0,65,63
120000,note_off,,,,,0,0,2,,,,0,68,64
120000,note_off,,,,,0,0,2,,,,0,65,64
120000,set_tempo,,,,,480,1,0,263158,,,,,
120000,note_off,,,,,480,0,2,,,,0,70,64
120180,note_off,,,,,180,0,2,,,,0,65,64
120180,note_off,,,,,0,0,2,,,,0,58,64
120180,note_off,,,,,0,0,1,,,,0,70,64
120180,note_off,,,,,0,0,1,,,,0,77,64
120180,note_off,,,,,180,0,1,,,,0,82,64
120180,set_tempo,,,,,180,1,0,387097,,,,,
120240,note_on,,,,,0,0,2,,,,0,55,98
120240,set_tempo,,,,,60,1,0,310881,,,,,
120240,control_change,,,,,0,0,1,,64,95,0,,
120240,note_on,,,,,0,0,1,,,,0,70,97
120240,note_on,,,,,60,0,2,,,,0,43,98
120240,note_on,,,,,60,0,1,,,,0,58,97
120240,note_on,,,,,0,0,2,,,,0,51,98
120240,note_on,,,,,0,0,1,,,,0,63,97
120706,control_change,,,,,466,0,1,,64,0,0,,
120720,note_on,,,,,0,0,2,,,,0,39,67
120720,note_on,,,,,0,0,2,,,,0,51,67
120720,note_off,,,,,480,0,2,,,,0,55,64
120720,set_tempo,,,,,480,1,0,263158,,,,,
120720,note_on,,,,,0,0,1,,,,0,67,63
120720,note_on,,,,,0,0,1,,,,0,63,63
120720,note_on,,,,,0,0,1,,,,0,58,63
120720,note_off,,,,,0,0,1,,,,0,58,64
120720,note_off,,,,,0,0,1,,,,0,63,64
120720,note_off,,,,,14,0,1,,,,0,70,64
120720,note_off,,,,,0,0,2,,,,0,43,64
120720,note_off,,,,,0,0,2,,,,0,51,64
120900,set_tempo,,,,,180,1,0,384615,,,,,
120900,note_off,,,,,180,0,1,,,,0,67,64
120900,note_off,,,,,0,0,1,,,,0,63,64
120900,note_off,,,,,0,0,2,,,,0,39,64
120900,note_off,,,,,0,0,1,,,,0,58,64
120900,note_off,,,,,180,0,2,,,,0,51,64
120960,note_on,,,,,60,0,2,,,,0,79,52
120960,note_on,,,,,60,0,1,,,,0,91,57
120960,set_tempo,,,,,60,1,0,271493,,,,,
121080,note_on,,,,,0,0,1,,,,0,87,44
121080,note_off,,,,,120,0,1,,,,0,91,64
121080,note_off,,,,,120,0,2,,,,0,79,64
121080,note_on,,,,,0,0,2,,,,0,75,44
121170,note_off,,,,,90,0,1,,,,0,87,64
121170,note_off,,,,,90,0,2,,,,0,75,64
121200,control_change,,,,,0,0,1,,64,96,0,,
121200,note_on,,,,,30,0,1,,,,0,91,53
121200,note_on,,,,,30,0,2,,,,0,79,53
121320,note_off,,,,,120,0,1,,,,0,91,64
121320,note_on,,,,,0,0,2,,,,0,75,58
121320,note_off,,,,,120,0,2,,,,0,79,64
121320,note_on,,,,,0,0,1,,,,0,87,58
121440,note_on,,,,,0,0,2,,,,0,70,66
121440,note_off,,,,,120,0,2,,,,0,75,64
121440,note_off,,,,,120,0,1,,,,0,87,64
121440,note_on,,,,,0,0,1,,,,0,82,66
121560,note_off,,,,,120,0,1,,,,0,82,64
121560,note_on,,,,,0,0,1,,,,0,79,75
121560,note_off,,,,,120,0,2,,,,0,70,64
121560,note_on,,,,,0,0,2,,,,0,67,75
121650,note_off,,,,,90,0,1,,,,0,79,64
121650,note_off,,,,,90,0,2,,,,0,67,64
121660,control_change,,,,,10,0,1,,64,0,0,,
121680,note_on,,,,,30,0,2,,,,0,67,104
121680,note_on,,,,,0,0,2,,,,0,62,104
121680,note_on,,,,,0,0,2,,,,0,65,104
121680,control_change,,,,,0,0,1,,64,96,0,,
121680,note_on,,,,,0,0,1,,,,0,74,104
121680,note_on,,,,,0,0,1,,,,0,77,104
121680,note_on,,,,,20,0,1,,,,0,79,104
121680,set_tempo,,,,,720,1,0,310881,,,,,
122152,control_change,,,,,472,0,1,,64,0,0,,
122160,note_off,,,,,480,0,2,,,,0,65,64
122160,note_on,,,,,0,0,2,,,,0,55,63
122160,note_on,,,,,0,0,2,,,,0,62,63
122160,note_off,,,,,0,0,2,,,,0,62,64
122160,set_tempo,,,,,480,1,0,263158,,,,,
122160,note_off,,,,,0,0,2,,,,0,67,64
122160,note_on,,,,,0,0,1,,,,0,74,63
122160,note_off,,,,,8,0,1,,,,0,74,64
122160,note_off,,,,,0,0,1,,,,0,77,64
122160,note_on,,,,,0,0,1,,,,0,79,63
122160,note_off,,,,,0,0,1,,,,0,79,64
122160,note_on,,,,,0,0,1,,,,0,67,63
122340,note_off,,,,,0,0,2,,,,0,55,64
122340,note_off,,,,,0,0,1,,,,0,74,64
122340,note_off,,,,,180,0,1,,,,0,79,64
122340,note_off,,,,,180,0,2,,,,0,62,64
122340,note_off,,,,,0,0,1,,,,0,67,64
122340,set_tempo,,,,,180,1,0,387097,,,,,
122400,note_on,,,,,0,0,1,,,,0,60,119
122400,set_tempo,,,,,60,1,0,310881,,,,,
122400,note_on,,,,,0,0,1,,,,0,67,119
122400,note_on,,,,,0,0,2,,,,0,67,118
122400,note_on,,,,,0,0,2,,,,0,51,118
122400,control_change,,,,,0,0,1,,64,96,0,,
122400,note_on,,,,,60,0,1,,,,0,55,119
122400,note_on,,,,,60,0,2,,,,0,39,118
122872,control_change,,,,,472,0,1,,64,0,0,,
122880,note_on,,,,,0,0,1,,,,0,55,100
122880,note_on,,,,,0,0,1,,,,0,60,100
122880,note_on,,,,,0,0,1,,,,0,63,100
122880,note_off,,,,,8,0,1,,,,0,67,64
122880,note_off,,,,,0,0,2,,,,0,51,64
122880,note_off,,,,,0,0,2,,,,0,39,64
122880,note_on,,,,,0,0,2,,,,0,36,101
122880,note_on,,,,,0,0,2,,,,0,48,101
122880,set_tempo,,,,,480,1,0,263158,,,,,
122880,note_off,,,,,0,0,1,,,,0,55,64
122880,note_off,,,,,0,0,1,,,,0,60,64
122880,note_off,,,,,480,0,2,,,,0,67,64
123060,note_off,,,,,0,0,1,,,,0,55,64
123060,note_off,,,,,0,0,1,,,,0,60,64
123060,note_off,,,,,180,0,1,,,,0,63,64
123060,note_off,,,,,180,0,2,,,,0,48,64
123060,note_off,,,,,0,0,2,,,,0,36,64
123060,set_tempo,,,,,180,1,0,387097,,,,,
123120,note_on,,,,,60,0,1,,,,0,79,99
123120,note_on,,,,,60,0,2,,,,0,67,87
123130,set_tempo,,,,,70,1,0,276498,,,,,
123220,set_tempo,,,,,90,1,0,275229,,,,,
123240,note_on,,,,,0,0,1,,,,0,75,58
123240,note_off,,,,,120,0,2,,,,0,67,64
123240,note_off,,,,,120,0,1,,,,0,79,64
123240,note_on,,,,,0,0,2,,,,0,63,63
123300,set_tempo,,,,,80,1,0,273973,,,,,
123330,note_off,,,,,90,0,1,,,,0,75,64
123330,note_off,,,,,90,0,2,,,,0,63,64
123350,set_tempo,,,,,50,1,0,272727,,,,,
123360,control_change,,,,,0,0,2,,64,96,0,,
123360,control_change,,,,,0,0,1,,64,96,0,,
123360,note_on,,,,,30,0,1,,,,0,79,66
123360,note_on,,,,,30,0,2,,,,0,67,68
123390,set_tempo,,,,,40,1,0,271493,,,,,
123480,note_on,,,,,0,0,2,,,,0,63,78
123480,note_off,,,,,120,0,2,,,,0,67,64
123480,note_off,,,,,120,0,1,,,,0,79,64
123480,note_on,,,,,0,0,1,,,,0,75,75
123500,set_tempo,,,,,110,1,0,270270,,,,,
123600,note_off,,,,,120,0,2,,,,0,63,64
123600,note_on,,,,,0,0,1,,,,0,72,82
123600,note_off,,,,,120,0,1,,,,0,75,64
123600,note_on,,,,,0,0,2,,,,0,60,85
123640,set_tempo,,,,,140,1,0,269058,,,,,
123720,note_on,,,,,0,0,1,,,,0,67,92
123720,note_off,,,,,120,0,1,,,,0,72,64
123720,note_on,,,,,0,0,2,,,,0,55,91
123720,note_off,,,,,120,0,2,,,,0,60,64
123730,set_tempo,,,,,90,1,0,266667,,,,,
123800,set_tempo,,,,,70,1,0,327869,,,,,
123810,note_off,,,,,90,0,2,,,,0,55,64
123810,note_off,,,,,90,0,1,,,,0,67,64
123820,control_change,,,,,10,0,2,,64,0,0,,
123820,control_change,,,,,10,0,1,,64,0,0,,
123830,set_tempo,,,,,30,1,0,265487,,,,,
123840,note_on,,,,,20,0,2,,,,0,56,99
123840,note_on,,,,,20,0,1,,,,0,68,100
123950,set_tempo,,,,,120,1,0,264317,,,,,
123960,note_on,,,,,0,0,1,,,,0,63,81
123960,note_off,,,,,120,0,1,,,,0,68,64
123960,note_on,,,,,0,0,2,,,,0,51,84
123960,note_off,,,,,120,0,2,,,,0,56,64
124050,note_off,,,,,90,0,1,,,,0,63,64
124050,note_off,,,,,90,0,2,,,,0,51,64
124080,control_change,,,,,0,0,1,,64,96,0,,
124080,control_change,,,,,0,0,2,,64,96,0,,
124080,note_on,,,,,30,0,2,,,,0,56,91
124080,note_on,,,,,30,0,1,,,,0,68,89
124100,set_tempo,,,,,150,1,0,263158,,,,,
124170,set_tempo,,,,,70,1,0,262009,,,,,
124200,note_on,,,,,0,0,2,,,,0,51,98
124200,note_off,,,,,120,0,2,,,,0,56,64
124200,note_on,,,,,0,0,1,,,,0,63,98
124200,note_off,,,,,120,0,1,,,,0,68,64
124280,set_tempo,,,,,110,1,0,259740,,,,,
124320,note_off,,,,,120,0,2,,,,0,51,64
124320,note_off,,,,,120,0,1,,,,0,63,64
124320,note_on,,,,,0,0,2,,,,0,48,102
124320,note_on,,,,,0,0,1,,,,0,60,106
124370,set_tempo,,,,,90,1,0,258621,,,,,
124440,note_on,,,,,0,0,2,,,,0,44,109
124440,note_on,,,,,0,0,1,,,,0,56,112
124440,note_off,,,,,120,0,1,,,,0,60,64
124440,note_off,,,,,120,0,2,,,,0,48,64
124520,set_tempo,,,,,150,1,0,310881,,,,,
124530,note_off,,,,,90,0,1,,,,0,56,64
124530,note_off,,,,,90,0,2,,,,0,44,64
124540,control_change,,,,,10,0,1,,64,0,0,,
124540,control_change,,,,,10,0,2,,64,0,0,,
124550,set_tempo,,,,,30,1,0,258621,,,,,
124560,control_change,,,,,0,0,1,,7,79,0,,
124560,note_on,,,,,20,0,2,,,,0,44,118
124560,note_on,,,,,20,0,1,,,,0,56,120
124566,control_change,,,,,6,0,1,,7,77,0,,
124570,set_tempo,,,,,20,1,0,266667,,,,,
124580,set_tempo,,,,,10,1,0,262009,,,,,
124610,set_tempo,,,,,30,1,0,263158,,,,,
124700,set_tempo,,,,,90,1,0,264317,,,,,
124770,note_off,,,,,210,0,2,,,,0,44,64
124770,note_off,,,,,204,0,1,,,,0,56,64
124800,note_on,,,,,30,0,1,,,,0,56,79
124800,note_on,,,,,30,0,2,,,,0,44,78
124826,control_change,,,,,26,0,1,,7,78,0,,
124880,set_tempo,,,,,180,1,0,265487,,,,,
124906,control_change,,,,,80,0,1,,7,79,0,,
124912,control_change,,,,,6,0,1,,7,80,0,,
124932,control_change,,,,,20,0,1,,7,81,0,,
124980,control_change,,,,,0,0,1,,7,82,0,,
124980,note_off,,,,,48,0,1,,,,0,56,64
124980,note_off,,,,,180,0,2,,,,0,44,64
125020,set_tempo,,,,,140,1,0,266667,,,,,
125032,control_change,,,,,52,0,1,,7,83,0,,
125040,note_on,,,,,8,0,1,,,,0,56,87
125040,note_on,,,,,60,0,2,,,,0,44,88
125072,control_change,,,,,32,0,1,,7,84,0,,
125112,control_change,,,,,40,0,1,,7,85,0,,
125126,control_change,,,,,14,0,1,,7,86,0,,
125152,control_change,,,,,26,0,1,,7,87,0,,
125166,control_change,,,,,14,0,1,,7,88,0,,
125180,control_change,,,,,14,0,1,,7,89,0,,
125220,note_off,,,,,40,0,1,,,,0,56,64
125220,control_change,,,,,0,0,1,,7,90,0,,
125220,note_off,,,,,180,0,2,,,,0,44,64
125240,set_tempo,,,,,220,1,0,269058,,,,,
125252,control_change,,,,,32,0,1,,7,91,0,,
125266,control_change,,,,,14,0,1,,7,92,0,,
125280,control_change,,,,,0,0,1,,7,93,0,,
125280,note_on,,,,,14,0,1,,,,0,56,101
125280,note_on,,,,,60,0,2,,,,0,44,99
125326,control_change,,,,,46,0,1,,7,94,0,,
125360,set_tempo,,,,,120,1,0,270270,,,,,
125360,control_change,,,,,34,0,1,,7,95,0,,
125386,control_change,,,,,26,0,1,,7,96,0,,
125412,control_change,,,,,26,0,1,,7,97,0,,
125446,control_change,,,,,34,0,1,,7,98,0,,
125460,note_off,,,,,180,0,2,,,,0,44,64
125460,note_off,,,,,14,0,1,,,,0,56,64
125480,set_tempo,,,,,120,1,0,271493,,,,,
125486,control_change,,,,,26,0,1,,7,99,0,,
125520,control_change,,,,,0,0,1,,7,100,0,,
125520,note_on,,,,,34,0,1,,,,0,56,111
125520,note_on,,,,,60,0,2,,,,0,44,109
125566,control_change,,,,,46,0,1,,7,101,0,,
125600,control_change,,,,,34,0,1,,7,102,0,,
125660,set_tempo,,,,,180,1,0,272727,,,,,
125680,control_change,,,,,80,0,1,,7,103,0,,
125700,note_off,,,,,20,0,1,,,,0,56,64
125700,note_off,,,,,180,0,2,,,,0,44,64
125732,control_change,,,,,32,0,1,,7,104,0,,
125760,note_on,,,,,28,0,1,,,,0,56,120
125760,note_on,,,,,60,0,2,,,,0,44,122
125800,control_change,,,,,40,0,1,,7,105,0,,
125812,control_change,,,,,12,0,1,,7,106,0,,
125940,note_off,,,,,180,0,2,,,,0,44,64
125940,note_off,,,,,128,0,1,,,,0,56,64
125966,control_change,,,,,26,0,1,,7,107,0,,
126000,note_on,,,,,60,0,2,,,,0,52,127
126000,note_on,,,,,0,0,2,,,,0,44,127
126000,set_tempo,,,,,340,1,0,275229,,,,,
126000,control_change,,,,,0,0,1,,64,95,0,,
126000,note_on,,,,,0,0,1,,,,0,55,127
126000,note_on,,,,,0,0,1,,,,0,58,127
126000,note_on,,,,,34,0,1,,,,0,61,127
126012,control_change,,,,,12,0,1,,7,108,0,,
126710,set_tempo,,,,,710,1,0,327869,,,,,
126712,control_change,,,,,700,0,1,,64,0,0,,
126720,control_change,,,,,0,0,1,,7,79,0,,
126720,note_off,,,,,720,0,2,,,,0,44,64
126720,note_on,,,,,0,0,1,,,,0,60,75
126720,note_on,,,,,0,0,2,,,,0,44,77
126720,note_off,,,,,0,0,2,,,,0,52,64
126720,note_on,,,,,0,0,2,,,,0,51,77
126720,note_on,,,,,0,0,1,,,,0,56,75
126720,note_off,,,,,0,0,1,,,,0,61,64
126720,note_off,,,,,0,0,1,,,,0,58,64
126720,note_off,,,,,8,0,1,,,,0,55,64
127140,note_off,,,,,420,0,2,,,,0,51,64
127140,note_off,,,,,0,0,2,,,,0,44,64
127140,note_off,,,,,0,0,1,,,,0,56,64
127140,note_off,,,,,420,0,1,,,,0,60,64
127200,note_on,,,,,0,0,1,,,,0,63,63
127200,note_on,,,,,0,0,1,,,,0,72,63
127200,note_on,,,,,60,0,1,,,,0,56,63
127380,note_off,,,,,180,0,1,,,,0,72,64
127380,note_off,,,,,0,0,1,,,,0,63,64
127380,note_off,,,,,0,0,1,,,,0,56,64
127440,note_on,,,,,0,0,1,,,,0,63,53
127440,note_on,,,,,60,0,1,,,,0,55,53
127440,note_on,,,,,0,0,1,,,,0,67,53
127440,control_change,,,,,0,0,1,,64,95,0,,
127440,note_on,,,,,0,0,1,,,,0,72,53
127450,set_tempo,,,,,740,1,0,384615,,,,,
128100,note_off,,,,,660,0,1,,,,0,72,64
128100,note_off,,,,,0,0,1,,,,0,67,64
128100,note_off,,,,,0,0,1,,,,0,63,64
128100,note_off,,,,,0,0,1,,,,0,55,64
128152,control_change,,,,,52,0,1,,64,0,0,,
128160,note_on,,,,,8,0,1,,,,0,55,34
128160,note_on,,,,,0,0,1,,,,0,62,34
128160,note_on,,,,,0,0,1,,,,0,67,34
128160,note_on,,,,,0,0,1,,,,0,71,34
128160,control_change,,,,,0,0,1,,64,95,0,,
128640,set_tempo,,,,,1190,1,0,454545,,,,,
128820,note_off,,,,,660,0,1,,,,0,71,64
128820,note_off,,,,,0,0,1,,,,0,55,64
128820,note_off,,,,,0,0,1,,,,0,62,64
128820,note_off,,,,,0,0,1,,,,0,67,64
128866,control_change,,,,,46,0,1,,64,0,0,,
128880,note_on,,,,,14,0,1,,,,0,75,28
128880,control_change,,,,,0,0,1,,64,95,0,,
128880,set_tempo,,,,,240,1,0,338983,,,,,
128880,note_on,,,,,1740,0,2,,,,0,48,28
128880,note_on,,,,,0,0,2,,,,0,51,28
128890,set_tempo,,,,,10,1,0,310881,,,,,
128960,set_tempo,,,,,70,1,0,309278,,,,,
129000,note_off,,,,,120,0,1,,,,0,75,64
129000,note_on,,,,,0,0,1,,,,0,74,27
129060,set_tempo,,,,,100,1,0,307692,,,,,
129060,note_off,,,,,0,0,2,,,,0,48,64
129060,note_off,,,,,180,0,2,,,,0,51,64
129106,control_change,,,,,106,0,1,,64,0,0,,
129120,note_on,,,,,0,0,1,,,,0,75,28
129120,control_change,,,,,0,0,1,,64,95,0,,
129120,note_on,,,,,0,0,2,,,,0,53,30
129120,note_on,,,,,0,0,2,,,,0,50,30
129120,note_on,,,,,60,0,2,,,,0,48,30
129120,note_off,,,,,14,0,1,,,,0,74,64
129240,set_tempo,,,,,180,1,0,306122,,,,,
129240,note_on,,,,,0,0,1,,,,0,77,31
129240,note_off,,,,,120,0,1,,,,0,75,64
129300,note_off,,,,,0,0,2,,,,0,50,64
129300,set_tempo,,,,,60,1,0,304569,,,,,
129300,note_off,,,,,0,0,2,,,,0,48,64
129300,note_off,,,,,180,0,2,,,,0,53,64
129352,control_change,,,,,112,0,1,,64,0,0,,
129360,note_off,,,,,8,0,1,,,,0,77,64
129360,note_on,,,,,0,0,1,,,,0,79,34
129360,control_change,,,,,0,0,1,,64,96,0,,
129360,note_on,,,,,0,0,2,,,,0,51,34
129360,note_on,,,,,0,0,2,,,,0,55,34
129360,note_on,,,,,60,0,2,,,,0,48,34
129470,set_tempo,,,,,170,1,0,301508,,,,,
129480,note_on,,,,,0,0,1,,,,0,77,44
129480,note_off,,,,,120,0,1,,,,0,79,64
129540,note_off,,,,,0,0,2,,,,0,48,64
129540,note_off,,,,,0,0,2,,,,0,51,64
129540,note_off,,,,,180,0,2,,,,0,55,64
129592,control_change,,,,,112,0,1,,64,0,0,,
129600,note_on,,,,,60,0,2,,,,0,48,39
129600,control_change,,,,,0,0,1,,64,96,0,,
129600,note_on,,,,,0,0,1,,,,0,75,50
129600,note_off,,,,,8,0,1,,,,0,77,64
129600,note_on,,,,,0,0,2,,,,0,51,39
129600,note_on,,,,,0,0,2,,,,0,55,39
129620,set_tempo,,,,,150,1,0,298507,,,,,
129640,set_tempo,,,,,20,1,0,297030,,,,,
129720,note_on,,,,,0,0,1,,,,0,74,46
129720,note_off,,,,,120,0,1,,,,0,75,64
129770,set_tempo,,,,,130,1,0,295567,,,,,
129820,set_tempo,,,,,50,1,0,294118,,,,,
129840,note_off,,,,,120,0,1,,,,0,74,64
129840,note_on,,,,,0,0,1,,,,0,75,39
129890,set_tempo,,,,,70,1,0,292683,,,,,
129960,note_on,,,,,0,0,1,,,,0,77,35
129960,note_off,,,,,120,0,1,,,,0,75,64
130020,set_tempo,,,,,130,1,0,291262,,,,,
130072,control_change,,,,,112,0,1,,64,0,0,,
130080,note_off,,,,,480,0,2,,,,0,55,64
130080,note_off,,,,,0,0,2,,,,0,51,64
130080,note_off,,,,,0,0,2,,,,0,48,64
130080,note_on,,,,,0,0,2,,,,0,47,33
130080,note_on,,,,,0,0,2,,,,0,50,33
130080,note_on,,,,,0,0,2,,,,0,55,33
130080,note_off,,,,,8,0,1,,,,0,77,64
130080,note_on,,,,,0,0,1,,,,0,75,39
130080,control_change,,,,,0,0,1,,64,96,0,,
130110,set_tempo,,,,,90,1,0,289855,,,,,
130180,set_tempo,,,,,70,1,0,285714,,,,,
130200,note_off,,,,,120,0,1,,,,0,75,64
130200,note_on,,,,,0,0,1,,,,0,74,46
130260,note_off,,,,,180,0,2,,,,0,55,64
130260,note_off,,,,,0,0,2,,,,0,50,64
130260,note_off,,,,,0,0,2,,,,0,47,64
130270,set_tempo,,,,,90,1,0,284360,,,,,
130312,control_change,,,,,112,0,1,,64,0,0,,
130320,note_on,,,,,0,0,2,,,,0,51,44
130320,control_change,,,,,0,0,1,,64,96,0,,
130320,note_on,,,,,0,0,1,,,,0,72,49
130320,note_off,,,,,8,0,1,,,,0,74,64
130320,note_on,,,,,0,0,2,,,,0,55,44
130320,note_on,,,,,60,0,2,,,,0,48,44
130320,set_tempo,,,,,50,1,0,283019,,,,,
130420,set_tempo,,,,,100,1,0,281690,,,,,
130440,note_off,,,,,120,0,1,,,,0,72,64
130440,note_on,,,,,0,0,1,,,,0,71,50
130520,set_tempo,,,,,100,1,0,280374,,,,,
130560,note_on,,,,,0,0,1,,,,0,72,41
130560,note_off,,,,,120,0,1,,,,0,71,64
130580,set_tempo,,,,,60,1,0,281690,,,,,
130620,set_tempo,,,,,40,1,0,283019,,,,,
130680,note_on,,,,,0,0,1,,,,0,74,38
130680,note_off,,,,,120,0,1,,,,0,72,64
130690,set_tempo,,,,,70,1,0,284360,,,,,
130792,control_change,,,,,112,0,1,,64,0,0,,
130800,note_off,,,,,8,0,1,,,,0,74,64
130800,note_on,,,,,0,0,1,,,,0,75,37
130800,control_change,,,,,0,0,1,,64,96,0,,
130800,note_on,,,,,0,0,2,,,,0,55,34
130800,note_on,,,,,0,0,2,,,,0,50,34
130800,note_on,,,,,0,0,2,,,,0,43,34
130800,note_off,,,,,0,0,2,,,,0,48,64
130800,note_off,,,,,0,0,2,,,,0,51,64
130800,note_off,,,,,480,0,2,,,,0,55,64
130880,set_tempo,,,,,190,1,0,285714,,,,,
130920,note_on,,,,,0,0,1,,,,0,77,40
130920,note_off,,,,,120,0,1,,,,0,75,64
130950,set_tempo,,,,,70,1,0,289855,,,,,
130980,note_off,,,,,0,0,2,,,,0,50,64
130980,note_off,,,,,180,0,2,,,,0,55,64
130980,note_off,,,,,0,0,2,,,,0,43,64
130990,set_tempo,,,,,40,1,0,291262,,,,,
131030,set_tempo,,,,,40,1,0,292683,,,,,
131032,control_change,,,,,112,0,1,,64,0,0,,
131040,note_off,,,,,8,0,1,,,,0,77,64
131040,note_on,,,,,0,0,1,,,,0,79,42
131040,control_change,,,,,0,0,1,,64,96,0,,
131040,note_on,,,,,60,0,2,,,,0,55,39
131040,note_on,,,,,0,0,2,,,,0,50,39
131040,note_on,,,,,0,0,2,,,,0,53,39
131070,set_tempo,,,,,40,1,0,294118,,,,,
131130,set_tempo,,,,,60,1,0,295567,,,,,
131150,set_tempo,,,,,20,1,0,297030,,,,,
131160,note_off,,,,,120,0,1,,,,0,79,64
131160,note_on,,,,,0,0,1,,,,0,81,45
131170,set_tempo,,,,,20,1,0,298507,,,,,
131180,set_tempo,,,,,10,1,0,301508,,,,,
131210,set_tempo,,,,,30,1,0,303030,,,,,
131220,note_off,,,,,0,0,2,,,,0,53,64
131220,note_off,,,,,0,0,2,,,,0,55,64
131220,set_tempo,,,,,10,1,0,307692,,,,,
131220,note_off,,,,,180,0,2,,,,0,50,64
131260,set_tempo,,,,,40,1,0,314136,,,,,
131270,set_tempo,,,,,10,1,0,315789,,,,,
131272,control_change,,,,,112,0,1,,64,0,0,,
131280,note_off,,,,,8,0,1,,,,0,81,64
131280,control_change,,,,,0,0,1,,64,95,0,,
131280,note_on,,,,,60,0,2,,,,0,57,36
131280,note_on,,,,,0,0,1,,,,0,84,47
131280,note_on,,,,,0,0,2,,,,0,53,36
131280,note_on,,,,,0,0,2,,,,0,50,36
131290,set_tempo,,,,,20,1,0,322581,,,,,
131320,set_tempo,,,,,30,1,0,324324,,,,,
131340,set_tempo,,,,,20,1,0,327869,,,,,
131350,set_tempo,,,,,10,1,0,333333,,,,,
131370,set_tempo,,,,,20,1,0,335196,,,,,
131380,set_tempo,,,,,10,1,0,342857,,,,,
131390,set_tempo,,,,,10,1,0,344828,,,,,
131400,note_off,,,,,120,0,1,,,,0,84,64
131400,set_tempo,,,,,10,1,0,346821,,,,,
131400,note_on,,,,,0,0,1,,,,0,83,41
131420,set_tempo,,,,,20,1,0,348837,,,,,
131430,set_tempo,,,,,10,1,0,350877,,,,,
131450,set_tempo,,,,,20,1,0,352941,,,,,
131460,note_off,,,,,180,0,2,,,,0,53,64
131460,note_off,,,,,0,0,2,,,,0,50,64
131460,note_off,,,,,0,0,2,,,,0,57,64
131460,set_tempo,,,,,10,1,0,355030,,,,,
131480,set_tempo,,,,,20,1,0,365854,,,,,
131490,set_tempo,,,,,10,1,0,368098,,,,,
131510,set_tempo,,,,,20,1,0,370370,,,,,
131512,control_change,,,,,112,0,1,,64,0,0,,
131520,note_on,,,,,60,0,2,,,,0,59,32
131520,note_on,,,,,0,0,2,,,,0,53,32
131520,note_on,,,,,0,0,1,,,,0,81,34
131520,control_change,,,,,0,0,1,,64,95,0,,
131520,note_on,,,,,0,0,2,,,,0,50,32
131520,note_off,,,,,8,0,1,,,,0,83,64
131530,set_tempo,,,,,20,1,0,372671,,,,,
131540,set_tempo,,,,,10,1,0,377358,,,,,
131560,set_tempo,,,,,20,1,0,379747,,,,,
131580,set_tempo,,,,,20,1,0,384615,,,,,
131590,set_tempo,,,,,10,1,0,387097,,,,,
131610,set_tempo,,,,,20,1,0,389610,,,,,
131620,set_tempo,,,,,10,1,0,392157,,,,,
131630,set_tempo,,,,,10,1,0,397351,,,,,
131640,note_on,,,,,0,0,1,,,,0,79,27
131640,note_off,,,,,120,0,1,,,,0,81,64
131650,set_tempo,,,,,20,1,0,400000,,,,,
131670,set_tempo,,,,,20,1,0,402685,,,,,
131680,set_tempo,,,,,10,1,0,405405,,,,,
131700,note_off,,,,,0,0,2,,,,0,59,64
131700,note_off,,,,,0,0,2,,,,0,53,64
131700,note_off,,,,,180,0,2,,,,0,50,64
131700,set_tempo,,,,,20,1,0,408163,,,,,
131710,set_tempo,,,,,10,1,0,413793,,,,,
131750,set_tempo,,,,,40,1,0,416667,,,,,
131752,control_change,,,,,112,0,1,,64,0,0,,
131760,note_off,,,,,8,0,1,,,,0,79,64
131780,set_tempo,,,,,30,1,0,294118,,,,,
132480,control_change,,,,,0,0,1,,64,95,0,,
132480,note_on,,,,,0,0,2,,,,0,63,35
132480,note_on,,,,,0,0,2,,,,0,60,35
132480,note_on,,,,,780,0,2,,,,0,72,35
132480,note_on,,,,,720,0,1,,,,0,80,45
132570,set_tempo,,,,,790,1,0,292683,,,,,
132600,note_off,,,,,120,0,1,,,,0,80,64
132600,note_on,,,,,0,0,1,,,,0,79,41
132660,note_off,,,,,180,0,2,,,,0,63,64
132660,note_off,,,,,0,0,2,,,,0,60,64
132660,note_off,,,,,0,0,2,,,,0,72,64
132670,set_tempo,,,,,100,1,0,291262,,,,,
132706,control_change,,,,,106,0,1,,64,0,0,,
132720,note_off,,,,,14,0,1,,,,0,79,64
132720,note_on,,,,,0,0,1,,,,0,80,41
132720,control_change,,,,,0,0,1,,64,95,0,,
132720,note_on,,,,,0,0,2,,,,0,60,42
132720,note_on,,,,,0,0,2,,,,0,70,42
132720,note_on,,,,,60,0,2,,,,0,63,42
132750,set_tempo,,,,,80,1,0,289855,,,,,
132830,set_tempo,,,,,80,1,0,285714,,,,,
132840,note_on,,,,,0,0,1,,,,0,82,44
132840,note_off,,,,,120,0,1,,,,0,80,64
132890,set_tempo,,,,,60,1,0,284360,,,,,
132900,note_off,,,,,0,0,2,,,,0,63,64
132900,note_off,,,,,180,0,2,,,,0,60,64
132900,note_off,,,,,0,0,2,,,,0,70,64
132952,control_change,,,,,112,0,1,,64,0,0,,
132960,note_on,,,,,0,0,1,,,,0,84,51
132960,control_change,,,,,0,0,1,,64,96,0,,
132960,note_on,,,,,0,0,2,,,,0,63,56
132960,note_on,,,,,0,0,2,,,,0,60,56
132960,note_on,,,,,60,0,2,,,,0,68,56
132960,note_off,,,,,8,0,1,,,,0,82,64
133080,note_off,,,,,120,0,1,,,,0,84,64
133080,note_on,,,,,0,0,1,,,,0,85,56
133100,set_tempo,,,,,210,1,0,283019,,,,,
133140,note_off,,,,,0,0,2,,,,0,60,64
133140,note_off,,,,,0,0,2,,,,0,68,64
133140,note_off,,,,,180,0,2,,,,0,63,64
133160,set_tempo,,,,,60,1,0,281690,,,,,
133192,control_change,,,,,112,0,1,,64,0,0,,
133200,note_off,,,,,8,0,1,,,,0,85,64
133200,control_change,,,,,0,0,1,,64,96,0,,
133200,note_on,,,,,0,0,2,,,,0,63,62
133200,note_on,,,,,0,0,2,,,,0,60,62
133200,note_on,,,,,60,0,2,,,,0,68,62
133200,note_on,,,,,0,0,1,,,,0,84,61
133220,set_tempo,,,,,60,1,0,280374,,,,,
133320,note_off,,,,,120,0,1,,,,0,84,64
133320,note_on,,,,,0,0,1,,,,0,85,65
133360,set_tempo,,,,,140,1,0,279070,,,,,
133440,note_on,,,,,0,0,1,,,,0,87,69
133440,note_off,,,,,120,0,1,,,,0,85,64
133450,set_tempo,,,,,90,1,0,276498,,,,,
133560,note_on,,,,,0,0,1,,,,0,89,72
133560,note_off,,,,,120,0,1,,,,0,87,64
133590,set_tempo,,,,,140,1,0,275229,,,,,
133672,control_change,,,,,112,0,1,,64,0,0,,
133680,control_change,,,,,0,0,1,,64,96,0,,
133680,note_off,,,,,0,0,2,,,,0,68,64
133680,note_on,,,,,0,0,2,,,,0,63,47
133680,note_on,,,,,0,0,2,,,,0,60,47
133680,note_off,,,,,0,0,2,,,,0,60,64
133680,note_off,,,,,480,0,2,,,,0,63,64
133680,note_on,,,,,0,0,1,,,,0,91,75
133680,note_off,,,,,8,0,1,,,,0,89,64
133750,set_tempo,,,,,160,1,0,273973,,,,,
133800,note_off,,,,,120,0,1,,,,0,91,64
133800,note_on,,,,,0,0,1,,,,0,92,78
133840,set_tempo,,,,,90,1,0,272727,,,,,
133860,note_off,,,,,180,0,2,,,,0,63,64
133860,note_off,,,,,0,0,2,,,,0,60,64
133912,control_change,,,,,112,0,1,,64,0,0,,
133920,note_off,,,,,8,0,1,,,,0,92,64
133920,note_on,,,,,0,0,1,,,,0,94,80
133920,control_change,,,,,0,0,1,,64,96,0,,
133920,note_on,,,,,0,0,2,,,,0,67,64
133920,note_on,,,,,0,0,2,,,,0,63,64
133920,note_on,,,,,60,0,2,,,,0,58,64
134040,note_off,,,,,120,0,1,,,,0,94,64
134040,note_on,,,,,0,0,1,,,,0,91,75
134160,note_off,,,,,120,0,1,,,,0,91,64
134160,note_on,,,,,0,0,1,,,,0,87,64
134220,set_tempo,,,,,380,1,0,273973,,,,,
134280,note_on,,,,,0,0,1,,,,0,84,59
134280,note_off,,,,,120,0,1,,,,0,87,64
134290,set_tempo,,,,,70,1,0,275229,,,,,
134350,set_tempo,,,,,60,1,0,276498,,,,,
134370,set_tempo,,,,,20,1,0,279070,,,,,
134392,control_change,,,,,112,0,1,,64,0,0,,
134400,control_change,,,,,0,0,1,,64,96,0,,
134400,note_on,,,,,0,0,2,,,,0,63,51
134400,note_on,,,,,0,0,1,,,,0,82,51
134400,note_off,,,,,8,0,1,,,,0,84,64
134400,note_off,,,,,480,0,2,,,,0,67,64
134400,note_off,,,,,0,0,2,,,,0,63,64
134400,note_on,,,,,0,0,2,,,,0,58,51
134400,note_off,,,,,0,0,2,,,,0,58,64
134420,set_tempo,,,,,50,1,0,280374,,,,,
134440,set_tempo,,,,,20,1,0,281690,,,,,
134480,set_tempo,,,,,40,1,0,283019,,,,,
134520,note_on,,,,,0,0,1,,,,0,79,46
134520,note_off,,,,,120,0,1,,,,0,82,64
134520,set_tempo,,,,,40,1,0,285714,,,,,
134580,note_off,,,,,0,0,2,,,,0,63,64
134580,note_off,,,,,180,0,2,,,,0,58,64
134620,set_tempo,,,,,100,1,0,289855,,,,,
134632,control_change,,,,,112,0,1,,64,0,0,,
134640,note_on,,,,,60,0,2,,,,0,60,39
134640,note_on,,,,,0,0,1,,,,0,80,39
134640,note_on,,,,,0,0,2,,,,0,53,39
134640,control_change,,,,,0,0,1,,64,96,0,,
134640,note_off,,,,,8,0,1,,,,0,79,64
134740,set_tempo,,,,,120,1,0,291262,,,,,
134760,note_off,,,,,120,0,1,,,,0,80,64
134760,set_tempo,,,,,20,1,0,292683,,,,,
134760,note_on,,,,,0,0,1,,,,0,72,45
134820,note_off,,,,,180,0,2,,,,0,53,64
134820,set_tempo,,,,,60,1,0,294118,,,,,
134820,note_off,,,,,0,0,2,,,,0,60,64
134840,set_tempo,,,,,20,1,0,298507,,,,,
134872,control_change,,,,,112,0,1,,64,0,0,,
134880,note_on,,,,,60,0,2,,,,0,64,36
134880,note_on,,,,,0,0,2,,,,0,60,36
134880,note_on,,,,,0,0,2,,,,0,55,36
134880,control_change,,,,,0,0,1,,64,95,0,,
134880,note_on,,,,,0,0,1,,,,0,70,47
134880,note_off,,,,,8,0,1,,,,0,72,64
134920,set_tempo,,,,,80,1,0,304569,,,,,
135000,set_tempo,,,,,80,1,0,306122,,,,,
135000,note_on,,,,,0,0,1,,,,0,79,41
135000,note_off,,,,,120,0,1,,,,0,70,64
135060,note_off,,,,,0,0,2,,,,0,64,64
135060,note_off,,,,,0,0,2,,,,0,60,64
135060,note_off,,,,,180,0,2,,,,0,55,64
135060,set_tempo,,,,,60,1,0,310881,,,,,
135080,set_tempo,,,,,20,1,0,314136,,,,,
135090,set_tempo,,,,,10,1,0,315789,,,,,
135110,set_tempo,,,,,20,1,0,317460,,,,,
135112,control_change,,,,,112,0,1,,64,0,0,,
135120,note_off,,,,,8,0,1,,,,0,79,64
135120,note_on,,,,,0,0,2,,,,0,65,32
135120,note_on,,,,,0,0,2,,,,0,56,32
135120,note_on,,,,,60,0,2,,,,0,60,32
135120,note_on,,,,,0,0,1,,,,0,77,34
135120,control_change,,,,,0,0,1,,64,95,0,,
135130,set_tempo,,,,,20,1,0,320856,,,,,
135140,set_tempo,,,,,10,1,0,322581,,,,,
135160,set_tempo,,,,,20,1,0,324324,,,,,
135180,set_tempo,,,,,20,1,0,331492,,,,,
135190,set_tempo,,,,,10,1,0,333333,,,,,
135210,set_tempo,,,,,20,1,0,338983,,,,,
135220,set_tempo,,,,,10,1,0,342857,,,,,
135230,set_tempo,,,,,10,1,0,344828,,,,,
135240,note_on,,,,,0,0,1,,,,0,68,27
135240,note_off,,,,,120,0,1,,,,0,77,64
135250,set_tempo,,,,,20,1,0,346821,,,,,
135260,set_tempo,,,,,10,1,0,348837,,,,,
135270,set_tempo,,,,,10,1,0,352941,,,,,
135280,set_tempo,,,,,10,1,0,355030,,,,,
135290,set_tempo,,,,,10,1,0,365854,,,,,
135300,note_off,,,,,180,0,2,,,,0,65,64
135300,note_off,,,,,0,0,2,,,,0,56,64
135300,set_tempo,,,,,10,1,0,370370,,,,,
135300,note_off,,,,,0,0,2,,,,0,60,64
135310,set_tempo,,,,,10,1,0,372671,,,,,
135330,set_tempo,,,,,20,1,0,377358,,,,,
135340,set_tempo,,,,,10,1,0,329670,,,,,
135352,control_change,,,,,112,0,1,,64,0,0,,
135360,note_off,,,,,8,0,1,,,,0,68,64
135400,set_tempo,,,,,60,1,0,331492,,,,,
135440,set_tempo,,,,,40,1,0,333333,,,,,
135960,set_tempo,,,,,520,1,0,331492,,,,,
136040,set_tempo,,,,,80,1,0,329670,,,,,
136080,control_change,,,,,0,0,1,,64,95,0,,
136080,note_on,,,,,720,0,1,,,,0,67,28
136080,note_on,,,,,0,0,2,,,,0,48,28
136080,note_on,,,,,780,0,2,,,,0,36,28
136160,set_tempo,,,,,120,1,0,331492,,,,,
136170,set_tempo,,,,,10,1,0,337079,,,,,
136200,note_off,,,,,120,0,1,,,,0,67,64
136200,note_on,,,,,0,0,1,,,,0,55,27
136230,set_tempo,,,,,60,1,0,338983,,,,,
136240,set_tempo,,,,,10,1,0,342857,,,,,
136260,note_off,,,,,180,0,2,,,,0,48,64
136260,set_tempo,,,,,20,1,0,344828,,,,,
136260,note_off,,,,,0,0,2,,,,0,36,64
136270,set_tempo,,,,,10,1,0,346821,,,,,
136300,set_tempo,,,,,30,1,0,348837,,,,,
136306,control_change,,,,,106,0,1,,64,0,0,,
136320,note_off,,,,,14,0,1,,,,0,55,64
136320,note_on,,,,,0,0,1,,,,0,59,28
136320,control_change,,,,,0,0,1,,64,95,0,,
136320,note_on,,,,,0,0,2,,,,0,50,30
136320,note_on,,,,,60,0,2,,,,0,43,30
136320,set_tempo,,,,,20,1,0,352941,,,,,
136340,set_tempo,,,,,20,1,0,355030,,,,,
136420,set_tempo,,,,,80,1,0,365854,,,,,
136440,note_off,,,,,120,0,1,,,,0,59,64
136440,note_on,,,,,0,0,1,,,,0,65,25
136500,note_off,,,,,0,0,2,,,,0,43,64
136500,note_off,,,,,180,0,2,,,,0,50,64
136500,set_tempo,,,,,80,1,0,368098,,,,,
136552,control_change,,,,,112,0,1,,64,0,0,,
136560,note_on,,,,,0,0,2,,,,0,51,34
136560,control_change,,,,,0,0,1,,64,96,0,,
136560,note_on,,,,,0,0,1,,,,0,63,27
136560,note_off,,,,,8,0,1,,,,0,65,64
136560,note_on,,,,,60,0,2,,,,0,48,34
136560,set_tempo,,,,,60,1,0,370370,,,,,
136620,set_tempo,,,,,60,1,0,379747,,,,,
136680,note_on,,,,,0,0,1,,,,0,60,28
136680,note_off,,,,,120,0,1,,,,0,63,64
136680,set_tempo,,,,,60,1,0,382166,,,,,
136740,note_off,,,,,180,0,2,,,,0,51,64
136740,note_off,,,,,0,0,2,,,,0,48,64
136760,set_tempo,,,,,80,1,0,389610,,,,,
136792,control_change,,,,,112,0,1,,64,0,0,,
136800,note_on,,,,,0,0,1,,,,0,55,39
136800,control_change,,,,,0,0,1,,64,96,0,,
136800,note_on,,,,,60,0,2,,,,0,43,39
136800,note_off,,,,,8,0,1,,,,0,60,64
136820,set_tempo,,,,,60,1,0,400000,,,,,
136840,set_tempo,,,,,20,1,0,402685,,,,,
136900,set_tempo,,,,,60,1,0,413793,,,,,
136920,note_off,,,,,120,0,1,,,,0,55,64
136920,note_on,,,,,0,0,1,,,,0,63,34
136980,set_tempo,,,,,80,1,0,425532,,,,,
137040,set_tempo,,,,,60,1,0,434783,,,,,
137040,note_on,,,,,0,0,1,,,,0,60,39
137040,note_off,,,,,120,0,1,,,,0,63,64
137120,set_tempo,,,,,80,1,0,437956,,,,,
137130,set_tempo,,,,,10,1,0,444444,,,,,
137160,note_on,,,,,0,0,1,,,,0,55,35
137160,note_off,,,,,120,0,1,,,,0,60,64
137210,set_tempo,,,,,80,1,0,447761,,,,,
137230,set_tempo,,,,,20,1,0,458015,,,,,
137272,control_change,,,,,112,0,1,,64,0,0,,
137280,note_on,,,,,0,0,2,,,,0,43,33
137280,note_off,,,,,8,0,1,,,,0,55,64
137280,note_on,,,,,0,0,1,,,,0,56,44
137280,note_off,,,,,480,0,2,,,,0,43,64
137280,control_change,,,,,0,0,1,,64,96,0,,
137290,set_tempo,,,,,60,1,0,472441,,,,,
137350,set_tempo,,,,,60,1,0,487805,,,,,
137400,note_off,,,,,120,0,1,,,,0,56,64
137400,note_on,,,,,0,0,1,,,,0,65,34
137410,set_tempo,,,,,60,1,0,500000,,,,,
137430,set_tempo,,,,,20,1,0,517241,,,,,
137460,note_off,,,,,180,0,2,,,,0,43,64
137490,set_tempo,,,,,60,1,0,521739,,,,,
137510,set_tempo,,,,,20,1,0,540541,,,,,
137512,control_change,,,,,112,0,1,,64,0,0,,
137520,note_on,,,,,0,0,1,,,,0,50,42
137520,control_change,,,,,0,0,1,,64,96,0,,
137520,note_off,,,,,8,0,1,,,,0,65,64
137520,note_on,,,,,60,0,2,,,,0,43,44
137530,set_tempo,,,,,20,1,0,555556,,,,,
137590,set_tempo,,,,,60,1,0,571429,,,,,
137610,set_tempo,,,,,20,1,0,588235,,,,,
137630,set_tempo,,,,,20,1,0,594059,,,,,
137640,note_off,,,,,120,0,1,,,,0,50,64
137640,note_on,,,,,0,0,1,,,,0,59,36
137640,set_tempo,,,,,10,1,0,600000,,,,,
137670,set_tempo,,,,,30,1,0,606061,,,,,
137680,set_tempo,,,,,10,1,0,612245,,,,,
137720,set_tempo,,,,,40,1,0,618557,,,,,
137740,set_tempo,,,,,20,1,0,625000,,,,,
137760,set_tempo,,,,,20,1,0,638298,,,,,
137760,note_off,,,,,120,0,1,,,,0,59,64
137760,note_on,,,,,0,0,1,,,,0,55,32
137820,set_tempo,,,,,60,1,0,645161,,,,,
137850,set_tempo,,,,,30,1,0,652174,,,,,
137870,set_tempo,,,,,20,1,0,659341,,,,,
137880,note_off,,,,,120,0,1,,,,0,55,64
137880,note_on,,,,,0,0,1,,,,0,50,30
137950,set_tempo,,,,,80,1,0,666667,,,,,
137992,control_change,,,,,112,0,1,,64,0,0,,
138000,note_on,,,,,0,0,2,,,,0,48,34
138000,note_on,,,,,0,0,2,,,,0,36,34
138000,note_off,,,,,480,0,2,,,,0,43,64
138000,note_on,,,,,0,0,2,,,,0,43,34
138000,note_on,,,,,0,0,1,,,,0,51,43
138000,note_off,,,,,8,0,1,,,,0,50,64
138000,control_change,,,,,0,0,1,,64,96,0,,
138010,set_tempo,,,,,60,1,0,674157,,,,,
138070,set_tempo,,,,,60,1,0,689655,,,,,
138090,set_tempo,,,,,20,1,0,714286,,,,,
138120,note_off,,,,,120,0,1,,,,0,51,64
138120,note_on,,,,,0,0,1,,,,0,60,33
138180,note_off,,,,,0,0,2,,,,0,36,64
138180,note_off,,,,,180,0,2,,,,0,43,64
138180,note_off,,,,,0,0,2,,,,0,48,64
138230,set_tempo,,,,,140,1,0,750000,,,,,
138240,note_on,,,,,60,0,2,,,,0,48,39
138240,note_on,,,,,0,0,2,,,,0,43,39
138240,note_on,,,,,0,0,2,,,,0,36,39
138240,note_on,,,,,0,0,1,,,,0,60,33
138240,note_off,,,,,120,0,1,,,,0,60,64
138240,note_on,,,,,0,0,1,,,,0,51,33
138290,end_of_track,,,,,0,1,0,,,,,,
138290,set_tempo,,,,,60,1,0,769231,,,,,
138420,note_off,,,,,180,0,1,,,,0,60,64
138420,note_off,,,,,0,0,2,,,,0,48,64
138420,note_off,,,,,0,0,2,,,,0,43,64
138420,end_of_track,,,,,0,1,1,,,,,,
138420,note_off,,,,,0,0,1,,,,0,51,64
138420,end_of_track,,,,,0,1,2,,,,,,
138420,note_off,,,,,180,0,2,,,,0,36,64
