tick,type,time,meta,track,numerator,denominator,clocks_per_click,notated_32nd_notes_per_beat,key,tempo,port,program,channel,control,value,note,velocity
0,track_name,0,1,0,,,,,,,,,,,,,
0,program_change,0,0,1,,,,,,,,0,0,,,,
0,control_change,0,0,1,,,,,,,,,0,7,127,,
0,control_change,0,0,1,,,,,,,,,0,10,97,,
0,note_on,0,0,1,,,,,,,,,0,,,64,88
0,note_on,0,0,1,,,,,,,,,0,,,72,88
0,note_on,0,0,1,,,,,,,,,0,,,76,88
0,track_name,0,1,2,,,,,,,,,,,,,
0,control_change,0,0,4,,,,,,,,,3,10,30,,
0,control_change,0,0,4,,,,,,,,,3,7,127,,
0,program_change,0,0,4,,,,,,,,0,3,,,,
0,track_name,0,1,1,,,,,,,,,,,,,
0,track_name,0,1,4,,,,,,,,,,,,,
0,note_on,0,0,3,,,,,,,,,2,,,45,75
0,note_on,0,0,3,,,,,,,,,2,,,33,75
0,control_change,0,0,3,,,,,,,,,2,10,30,,
0,control_change,0,0,3,,,,,,,,,2,7,127,,
0,program_change,0,0,3,,,,,,,,0,2,,,,
0,track_name,0,1,3,,,,,,,,,,,,,
0,midi_port,0,1,3,,,,,,,0,,,,,,
0,control_change,0,0,2,,,,,,,,,1,10,97,,
0,control_change,0,0,2,,,,,,,,,1,7,127,,
0,program_change,0,0,2,,,,,,,,0,1,,,,
0,midi_port,0,1,4,,,,,,,0,,,,,,
0,midi_port,0,1,1,,,,,,,0,,,,,,
0,midi_port,0,1,2,,,,,,,0,,,,,,
0,copyright,0,1,0,,,,,,,,,,,,,
0,text,0,1,0,,,,,,,,,,,,,
0,time_signature,0,1,0,1,8,12,8,,,,,,,,,
0,set_tempo,0,1,0,,,,,,500000,,,,,,,
0,key_signature,0,1,0,,,,,C,,,,,,,,
6,note_on,6,0,1,,,,,,,,,0,,,76,0
6,note_on,0,0,3,,,,,,,,,2,,,33,0
6,note_on,6,0,3,,,,,,,,,2,,,45,0
6,note_on,0,0,1,,,,,,,,,0,,,72,0
6,note_on,0,0,1,,,,,,,,,0,,,64,0
60,note_on,54,0,3,,,,,,,,,2,,,33,75
60,time_signature,60,1,0,6,8,12,8,,,,,,,,,
60,note_on,0,0,3,,,,,,,,,2,,,45,75
60,control_change,54,0,1,,,,,,,,,0,64,127,,
60,note_on,0,0,1,,,,,,,,,0,,,72,88
60,note_on,0,0,1,,,,,,,,,0,,,76,88
60,note_on,0,0,1,,,,,,,,,0,,,64,88
150,note_on,90,0,1,,,,,,,,,0,,,76,0
150,note_on,0,0,1,,,,,,,,,0,,,72,0
150,note_on,0,0,1,,,,,,,,,0,,,64,0
150,note_on,0,0,1,,,,,,,,,0,,,62,88
150,note_on,0,0,1,,,,,,,,,0,,,71,88
150,note_on,0,0,1,,,,,,,,,0,,,74,88
180,control_change,0,0,1,,,,,,,,,0,64,0,,
180,note_on,0,0,1,,,,,,,,,0,,,72,88
180,note_on,0,0,1,,,,,,,,,0,,,69,88
180,note_on,30,0,1,,,,,,,,,0,,,74,0
180,note_on,0,0,1,,,,,,,,,0,,,71,0
180,note_on,120,0,3,,,,,,,,,2,,,45,0
180,note_on,0,0,1,,,,,,,,,0,,,60,88
180,note_on,0,0,1,,,,,,,,,0,,,62,0
180,note_on,0,0,3,,,,,,,,,2,,,33,0
240,note_on,60,0,1,,,,,,,,,0,,,72,0
240,note_on,0,0,1,,,,,,,,,0,,,69,0
240,note_on,60,0,3,,,,,,,,,2,,,45,75
240,note_on,0,0,1,,,,,,,,,0,,,60,88
240,note_on,0,0,1,,,,,,,,,0,,,64,88
240,note_on,0,0,3,,,,,,,,,2,,,57,75
240,note_on,0,0,1,,,,,,,,,0,,,72,88
240,control_change,0,0,1,,,,,,,,,0,64,127,,
240,note_on,0,0,1,,,,,,,,,0,,,60,0
330,note_on,0,0,1,,,,,,,,,0,,,71,88
330,note_on,0,0,1,,,,,,,,,0,,,62,88
330,note_on,0,0,1,,,,,,,,,0,,,60,0
330,note_on,0,0,1,,,,,,,,,0,,,59,88
330,note_on,90,0,1,,,,,,,,,0,,,72,0
330,note_on,0,0,1,,,,,,,,,0,,,64,0
360,note_on,120,0,3,,,,,,,,,2,,,57,0
360,note_on,0,0,3,,,,,,,,,2,,,45,0
360,note_on,30,0,1,,,,,,,,,0,,,71,0
360,note_on,0,0,1,,,,,,,,,0,,,62,0
360,note_on,0,0,1,,,,,,,,,0,,,59,0
360,note_on,0,0,1,,,,,,,,,0,,,57,88
360,note_on,0,0,1,,,,,,,,,0,,,69,88
360,control_change,0,0,1,,,,,,,,,0,64,0,,
360,note_on,0,0,1,,,,,,,,,0,,,60,88
420,note_on,0,0,1,,,,,,,,,0,,,57,0
420,note_on,0,0,1,,,,,,,,,0,,,60,0
420,control_change,60,0,3,,,,,,,,,2,64,127,,
420,note_on,60,0,1,,,,,,,,,0,,,69,0
420,control_change,0,0,1,,,,,,,,,0,64,127,,
420,note_on,0,0,1,,,,,,,,,0,,,68,114
420,note_on,0,0,3,,,,,,,,,2,,,56,101
420,note_on,0,0,3,,,,,,,,,2,,,52,93
420,note_on,0,0,1,,,,,,,,,0,,,64,106
540,note_on,0,0,1,,,,,,,,,0,,,66,49
540,note_on,0,0,1,,,,,,,,,0,,,64,0
540,note_on,120,0,1,,,,,,,,,0,,,68,0
540,note_on,120,0,3,,,,,,,,,2,,,56,0
540,note_on,0,0,3,,,,,,,,,2,,,52,0
540,note_on,0,0,3,,,,,,,,,2,,,52,36
540,note_on,0,0,3,,,,,,,,,2,,,54,36
540,note_on,0,0,3,,,,,,,,,2,,,57,36
540,note_on,0,0,1,,,,,,,,,0,,,69,49
546,note_on,0,0,3,,,,,,,,,2,,,52,0
546,note_on,6,0,3,,,,,,,,,2,,,57,0
546,note_on,6,0,1,,,,,,,,,0,,,69,0
546,note_on,0,0,1,,,,,,,,,0,,,66,0
546,note_on,0,0,3,,,,,,,,,2,,,54,0
600,control_change,54,0,1,,,,,,,,,0,64,0,,
600,note_on,0,0,1,,,,,,,,,0,,,68,49
600,note_on,0,0,1,,,,,,,,,0,,,71,49
600,note_on,0,0,3,,,,,,,,,2,,,59,36
600,note_on,0,0,3,,,,,,,,,2,,,56,36
600,control_change,54,0,3,,,,,,,,,2,64,0,,
600,note_on,0,0,3,,,,,,,,,2,,,52,36
720,note_on,0,0,1,,,,,,,,,0,,,69,62
720,note_on,120,0,3,,,,,,,,,2,,,59,0
720,note_on,0,0,3,,,,,,,,,2,,,56,0
720,note_on,0,0,3,,,,,,,,,2,,,52,0
720,note_on,0,0,3,,,,,,,,,2,,,52,49
720,note_on,0,0,3,,,,,,,,,2,,,57,49
720,note_on,0,0,3,,,,,,,,,2,,,60,49
720,note_on,0,0,1,,,,,,,,,0,,,72,62
720,note_on,0,0,1,,,,,,,,,0,,,68,0
720,note_on,120,0,1,,,,,,,,,0,,,71,0
726,note_on,0,0,3,,,,,,,,,2,,,57,0
726,note_on,0,0,3,,,,,,,,,2,,,52,0
726,note_on,6,0,1,,,,,,,,,0,,,72,0
726,note_on,6,0,3,,,,,,,,,2,,,60,0
726,note_on,0,0,1,,,,,,,,,0,,,69,0
780,note_on,0,0,1,,,,,,,,,0,,,71,75
780,note_on,0,0,3,,,,,,,,,2,,,59,62
780,note_on,0,0,1,,,,,,,,,0,,,74,75
780,note_on,0,0,3,,,,,,,,,2,,,52,62
780,control_change,54,0,3,,,,,,,,,2,64,127,,
780,control_change,54,0,1,,,,,,,,,0,64,127,,
780,note_on,0,0,3,,,,,,,,,2,,,62,62
900,note_on,120,0,3,,,,,,,,,2,,,62,0
900,note_on,0,0,3,,,,,,,,,2,,,64,62
900,note_on,0,0,3,,,,,,,,,2,,,60,62
900,note_on,0,0,3,,,,,,,,,2,,,52,62
900,note_on,0,0,3,,,,,,,,,2,,,52,0
900,note_on,0,0,3,,,,,,,,,2,,,59,0
900,note_on,120,0,1,,,,,,,,,0,,,74,0
900,note_on,0,0,1,,,,,,,,,0,,,76,75
900,note_on,0,0,1,,,,,,,,,0,,,72,75
900,note_on,0,0,1,,,,,,,,,0,,,71,0
906,note_on,0,0,1,,,,,,,,,0,,,72,0
906,note_on,6,0,1,,,,,,,,,0,,,76,0
906,note_on,6,0,3,,,,,,,,,2,,,64,0
906,note_on,0,0,3,,,,,,,,,2,,,60,0
906,note_on,0,0,3,,,,,,,,,2,,,52,0
960,note_on,54,0,1,,,,,,,,,0,,,74,88
960,note_on,0,0,3,,,,,,,,,2,,,62,75
960,note_on,54,0,3,,,,,,,,,2,,,52,75
960,note_on,0,0,1,,,,,,,,,0,,,77,88
960,note_on,0,0,3,,,,,,,,,2,,,65,75
1140,note_on,0,0,3,,,,,,,,,2,,,62,0
1140,note_on,180,0,3,,,,,,,,,2,,,65,0
1140,note_on,0,0,3,,,,,,,,,2,,,52,0
1140,note_on,0,0,3,,,,,,,,,2,,,52,62
1140,note_on,180,0,1,,,,,,,,,0,,,74,0
1146,note_on,6,0,3,,,,,,,,,2,,,52,0
1170,note_on,0,0,1,,,,,,,,,0,,,83,75
1170,note_on,30,0,1,,,,,,,,,0,,,77,0
1200,note_on,54,0,3,,,,,,,,,2,,,62,62
1200,note_on,0,0,3,,,,,,,,,2,,,65,62
1200,note_on,0,0,1,,,,,,,,,0,,,80,75
1200,note_on,30,0,1,,,,,,,,,0,,,83,0
1206,note_on,6,0,3,,,,,,,,,2,,,65,0
1206,note_on,0,0,3,,,,,,,,,2,,,62,0
1230,note_on,30,0,1,,,,,,,,,0,,,80,0
1230,note_on,0,0,1,,,,,,,,,0,,,86,75
1260,note_on,54,0,3,,,,,,,,,2,,,62,62
1260,note_on,0,0,3,,,,,,,,,2,,,65,62
1260,note_on,30,0,1,,,,,,,,,0,,,86,0
1260,note_on,0,0,1,,,,,,,,,0,,,83,75
1266,note_on,0,0,3,,,,,,,,,2,,,62,0
1266,note_on,6,0,3,,,,,,,,,2,,,65,0
1290,note_on,30,0,1,,,,,,,,,0,,,83,0
1290,note_on,0,0,1,,,,,,,,,0,,,89,75
1320,note_on,54,0,3,,,,,,,,,2,,,52,62
1320,note_on,30,0,1,,,,,,,,,0,,,89,0
1320,note_on,0,0,1,,,,,,,,,0,,,86,75
1326,note_on,6,0,3,,,,,,,,,2,,,52,0
1350,note_on,0,0,1,,,,,,,,,0,,,83,75
1350,note_on,30,0,1,,,,,,,,,0,,,86,0
1380,note_on,54,0,3,,,,,,,,,2,,,62,62
1380,note_on,0,0,3,,,,,,,,,2,,,65,62
1380,note_on,0,0,1,,,,,,,,,0,,,80,75
1380,note_on,30,0,1,,,,,,,,,0,,,83,0
1386,note_on,0,0,3,,,,,,,,,2,,,62,0
1386,note_on,6,0,3,,,,,,,,,2,,,65,0
1410,note_on,30,0,1,,,,,,,,,0,,,80,0
1410,note_on,0,0,1,,,,,,,,,0,,,77,75
1440,note_on,54,0,3,,,,,,,,,2,,,62,62
1440,note_on,0,0,3,,,,,,,,,2,,,65,62
1440,note_on,30,0,1,,,,,,,,,0,,,77,0
1440,note_on,0,0,1,,,,,,,,,0,,,83,75
1446,note_on,6,0,3,,,,,,,,,2,,,65,0
1446,note_on,0,0,3,,,,,,,,,2,,,62,0
1470,note_on,0,0,1,,,,,,,,,0,,,80,75
1470,note_on,30,0,1,,,,,,,,,0,,,83,0
1500,note_on,0,0,1,,,,,,,,,0,,,77,75
1500,note_on,30,0,1,,,,,,,,,0,,,80,0
1500,note_on,54,0,3,,,,,,,,,2,,,52,62
1506,note_on,6,0,3,,,,,,,,,2,,,52,0
1530,note_on,0,0,1,,,,,,,,,0,,,74,75
1530,note_on,30,0,1,,,,,,,,,0,,,77,0
1560,note_on,0,0,1,,,,,,,,,0,,,80,75
1560,note_on,30,0,1,,,,,,,,,0,,,74,0
1560,note_on,0,0,3,,,,,,,,,2,,,65,62
1560,note_on,54,0,3,,,,,,,,,2,,,62,62
1566,note_on,0,0,3,,,,,,,,,2,,,62,0
1566,note_on,6,0,3,,,,,,,,,2,,,65,0
1590,note_on,0,0,1,,,,,,,,,0,,,77,75
1590,note_on,30,0,1,,,,,,,,,0,,,80,0
1620,note_on,0,0,3,,,,,,,,,2,,,65,62
1620,note_on,54,0,3,,,,,,,,,2,,,62,62
1620,note_on,0,0,1,,,,,,,,,0,,,74,75
1620,note_on,30,0,1,,,,,,,,,0,,,77,0
1626,note_on,6,0,3,,,,,,,,,2,,,65,0
1626,note_on,0,0,3,,,,,,,,,2,,,62,0
1650,note_on,0,0,1,,,,,,,,,0,,,71,75
1650,note_on,30,0,1,,,,,,,,,0,,,74,0
1680,note_on,30,0,1,,,,,,,,,0,,,71,0
1680,note_on,54,0,3,,,,,,,,,2,,,52,62
1680,note_on,0,0,1,,,,,,,,,0,,,77,75
1686,note_on,6,0,3,,,,,,,,,2,,,52,0
1710,note_on,0,0,1,,,,,,,,,0,,,74,75
1710,note_on,30,0,1,,,,,,,,,0,,,77,0
1740,note_on,0,0,1,,,,,,,,,0,,,71,75
1740,control_change,0,0,1,,,,,,,,,0,64,0,,
1740,note_on,30,0,1,,,,,,,,,0,,,74,0
1740,note_on,0,0,3,,,,,,,,,2,,,64,62
1740,note_on,0,0,3,,,,,,,,,2,,,62,62
1740,control_change,54,0,3,,,,,,,,,2,64,0,,
1746,note_on,6,0,3,,,,,,,,,2,,,64,0
1746,note_on,0,0,3,,,,,,,,,2,,,62,0
1770,note_on,0,0,1,,,,,,,,,0,,,68,75
1770,note_on,30,0,1,,,,,,,,,0,,,71,0
1800,note_on,0,0,3,,,,,,,,,2,,,45,75
1800,note_on,54,0,3,,,,,,,,,2,,,33,75
1800,note_on,30,0,1,,,,,,,,,0,,,68,0
1800,note_on,0,0,1,,,,,,,,,0,,,64,88
1800,note_on,0,0,1,,,,,,,,,0,,,72,88
1800,note_on,0,0,1,,,,,,,,,0,,,76,88
1806,note_on,0,0,3,,,,,,,,,2,,,33,0
1806,note_on,6,0,3,,,,,,,,,2,,,45,0
1860,control_change,0,0,1,,,,,,,,,0,64,127,,
1860,note_on,0,0,1,,,,,,,,,0,,,76,88
1860,note_on,0,0,1,,,,,,,,,0,,,72,88
1860,note_on,54,0,3,,,,,,,,,2,,,33,75
1860,note_on,0,0,1,,,,,,,,,0,,,64,0
1860,note_on,0,0,1,,,,,,,,,0,,,72,0
1860,note_on,60,0,1,,,,,,,,,0,,,76,0
1860,note_on,0,0,3,,,,,,,,,2,,,45,75
1860,note_on,0,0,1,,,,,,,,,0,,,64,88
1950,note_on,90,0,1,,,,,,,,,0,,,76,0
1950,note_on,0,0,1,,,,,,,,,0,,,72,0
1950,note_on,0,0,1,,,,,,,,,0,,,64,0
1950,note_on,0,0,1,,,,,,,,,0,,,62,88
1950,note_on,0,0,1,,,,,,,,,0,,,74,88
1950,note_on,0,0,1,,,,,,,,,0,,,71,88
1980,note_on,0,0,1,,,,,,,,,0,,,69,88
1980,note_on,0,0,3,,,,,,,,,2,,,33,0
1980,note_on,120,0,3,,,,,,,,,2,,,45,0
1980,note_on,0,0,1,,,,,,,,,0,,,72,88
1980,note_on,0,0,1,,,,,,,,,0,,,60,88
1980,note_on,0,0,1,,,,,,,,,0,,,71,0
1980,note_on,30,0,1,,,,,,,,,0,,,74,0
1980,control_change,0,0,1,,,,,,,,,0,64,0,,
1980,note_on,0,0,1,,,,,,,,,0,,,62,0
2040,note_on,60,0,1,,,,,,,,,0,,,72,0
2040,note_on,0,0,1,,,,,,,,,0,,,69,0
2040,note_on,0,0,1,,,,,,,,,0,,,60,0
2040,note_on,0,0,1,,,,,,,,,0,,,60,88
2040,note_on,0,0,1,,,,,,,,,0,,,64,88
2040,note_on,0,0,1,,,,,,,,,0,,,72,88
2040,control_change,0,0,1,,,,,,,,,0,64,127,,
2040,note_on,0,0,3,,,,,,,,,2,,,57,75
2040,note_on,60,0,3,,,,,,,,,2,,,45,75
2130,note_on,0,0,1,,,,,,,,,0,,,59,88
2130,note_on,0,0,1,,,,,,,,,0,,,62,88
2130,note_on,0,0,1,,,,,,,,,0,,,60,0
2130,note_on,0,0,1,,,,,,,,,0,,,64,0
2130,note_on,0,0,1,,,,,,,,,0,,,71,88
2130,note_on,90,0,1,,,,,,,,,0,,,72,0
2160,note_on,120,0,3,,,,,,,,,2,,,57,0
2160,note_on,0,0,3,,,,,,,,,2,,,45,0
2160,control_change,0,0,1,,,,,,,,,0,64,0,,
2160,note_on,30,0,1,,,,,,,,,0,,,71,0
2160,note_on,0,0,1,,,,,,,,,0,,,62,0
2160,note_on,0,0,1,,,,,,,,,0,,,59,0
2160,note_on,0,0,1,,,,,,,,,0,,,57,88
2160,note_on,0,0,1,,,,,,,,,0,,,60,88
2160,note_on,0,0,1,,,,,,,,,0,,,69,88
2220,control_change,60,0,3,,,,,,,,,2,64,127,,
2220,note_on,0,0,3,,,,,,,,,2,,,52,93
2220,note_on,0,0,3,,,,,,,,,2,,,56,101
2220,note_on,0,0,1,,,,,,,,,0,,,60,0
2220,note_on,0,0,1,,,,,,,,,0,,,64,106
2220,control_change,0,0,1,,,,,,,,,0,64,127,,
2220,note_on,0,0,1,,,,,,,,,0,,,57,0
2220,note_on,60,0,1,,,,,,,,,0,,,69,0
2220,note_on,0,0,1,,,,,,,,,0,,,68,114
2340,note_on,0,0,3,,,,,,,,,2,,,57,36
2340,note_on,0,0,3,,,,,,,,,2,,,54,36
2340,note_on,0,0,3,,,,,,,,,2,,,52,36
2340,note_on,0,0,3,,,,,,,,,2,,,52,0
2340,note_on,120,0,3,,,,,,,,,2,,,56,0
2340,note_on,0,0,1,,,,,,,,,0,,,69,49
2340,note_on,0,0,1,,,,,,,,,0,,,66,49
2340,note_on,120,0,1,,,,,,,,,0,,,68,0
2340,note_on,0,0,1,,,,,,,,,0,,,64,0
2346,note_on,6,0,3,,,,,,,,,2,,,57,0
2346,note_on,6,0,1,,,,,,,,,0,,,69,0
2346,note_on,0,0,1,,,,,,,,,0,,,66,0
2346,note_on,0,0,3,,,,,,,,,2,,,52,0
2346,note_on,0,0,3,,,,,,,,,2,,,54,0
2400,note_on,0,0,3,,,,,,,,,2,,,59,36
2400,note_on,0,0,3,,,,,,,,,2,,,56,36
2400,control_change,54,0,3,,,,,,,,,2,64,0,,
2400,note_on,0,0,1,,,,,,,,,0,,,71,49
2400,note_on,0,0,3,,,,,,,,,2,,,52,36
2400,control_change,54,0,1,,,,,,,,,0,64,0,,
2400,note_on,0,0,1,,,,,,,,,0,,,68,49
2520,note_on,120,0,1,,,,,,,,,0,,,71,0
2520,note_on,0,0,1,,,,,,,,,0,,,72,62
2520,note_on,0,0,3,,,,,,,,,2,,,60,49
2520,note_on,0,0,3,,,,,,,,,2,,,57,49
2520,note_on,0,0,3,,,,,,,,,2,,,52,49
2520,note_on,0,0,3,,,,,,,,,2,,,52,0
2520,note_on,0,0,3,,,,,,,,,2,,,56,0
2520,note_on,120,0,3,,,,,,,,,2,,,59,0
2520,note_on,0,0,1,,,,,,,,,0,,,68,0
2520,note_on,0,0,1,,,,,,,,,0,,,69,62
2526,note_on,6,0,1,,,,,,,,,0,,,72,0
2526,note_on,0,0,1,,,,,,,,,0,,,69,0
2526,note_on,6,0,3,,,,,,,,,2,,,60,0
2526,note_on,0,0,3,,,,,,,,,2,,,57,0
2526,note_on,0,0,3,,,,,,,,,2,,,52,0
2580,note_on,0,0,1,,,,,,,,,0,,,74,75
2580,note_on,54,0,3,,,,,,,,,2,,,52,62
2580,note_on,0,0,3,,,,,,,,,2,,,59,62
2580,note_on,0,0,3,,,,,,,,,2,,,62,62
2580,note_on,54,0,1,,,,,,,,,0,,,71,75
2700,note_on,120,0,1,,,,,,,,,0,,,74,0
2700,note_on,0,0,1,,,,,,,,,0,,,71,0
2700,note_on,0,0,1,,,,,,,,,0,,,72,75
2700,note_on,0,0,1,,,,,,,,,0,,,76,75
2700,note_on,0,0,3,,,,,,,,,2,,,52,62
2700,note_on,0,0,3,,,,,,,,,2,,,52,0
2700,note_on,0,0,3,,,,,,,,,2,,,64,62
2700,note_on,0,0,3,,,,,,,,,2,,,59,0
2700,note_on,120,0,3,,,,,,,,,2,,,62,0
2700,note_on,0,0,3,,,,,,,,,2,,,60,62
2706,note_on,6,0,1,,,,,,,,,0,,,76,0
2706,note_on,0,0,3,,,,,,,,,2,,,52,0
2706,note_on,0,0,3,,,,,,,,,2,,,60,0
2706,note_on,6,0,3,,,,,,,,,2,,,64,0
2706,note_on,0,0,1,,,,,,,,,0,,,72,0
2760,note_on,2760,0,4,,,,,,,,,3,,,52,75
2760,note_on,54,0,1,,,,,,,,,0,,,74,88
2760,note_on,54,0,3,,,,,,,,,2,,,62,75
2760,note_on,0,0,3,,,,,,,,,2,,,65,75
2760,note_on,0,0,1,,,,,,,,,0,,,77,88
2880,note_on,120,0,4,,,,,,,,,3,,,52,0
2880,note_on,0,0,4,,,,,,,,,3,,,54,75
2880,note_on,2880,0,2,,,,,,,,,1,,,66,64
2940,control_change,180,0,1,,,,,,,,,0,64,127,,
2940,control_change,0,0,3,,,,,,,,,2,64,127,,
2940,note_on,0,0,2,,,,,,,,,1,,,67,64
2940,note_on,60,0,2,,,,,,,,,1,,,66,0
2940,note_on,0,0,3,,,,,,,,,2,,,55,62
2940,note_on,0,0,3,,,,,,,,,2,,,62,0
2940,note_on,180,0,3,,,,,,,,,2,,,65,0
2940,note_on,60,0,4,,,,,,,,,3,,,54,0
2970,note_on,30,0,2,,,,,,,,,1,,,67,0
2970,note_on,0,0,1,,,,,,,,,0,,,74,0
2970,note_on,0,0,1,,,,,,,,,0,,,83,75
2970,note_on,30,0,1,,,,,,,,,0,,,77,0
3000,note_on,0,0,3,,,,,,,,,2,,,65,62
3000,note_on,0,0,3,,,,,,,,,2,,,62,62
3000,note_on,60,0,3,,,,,,,,,2,,,55,0
3000,note_on,0,0,1,,,,,,,,,0,,,80,75
3000,note_on,30,0,1,,,,,,,,,0,,,83,0
3000,note_on,0,0,3,,,,,,,,,2,,,68,62
3006,note_on,0,0,3,,,,,,,,,2,,,62,0
3006,note_on,0,0,3,,,,,,,,,2,,,65,0
3006,note_on,6,0,3,,,,,,,,,2,,,68,0
3030,note_on,30,0,1,,,,,,,,,0,,,80,0
3030,note_on,0,0,1,,,,,,,,,0,,,86,75
3060,note_on,0,0,1,,,,,,,,,0,,,83,75
3060,note_on,0,0,3,,,,,,,,,2,,,65,62
3060,note_on,54,0,3,,,,,,,,,2,,,62,62
3060,note_on,30,0,1,,,,,,,,,0,,,86,0
3060,note_on,0,0,3,,,,,,,,,2,,,68,62
3066,note_on,6,0,3,,,,,,,,,2,,,68,0
3066,note_on,0,0,3,,,,,,,,,2,,,65,0
3066,note_on,0,0,3,,,,,,,,,2,,,62,0
3090,note_on,0,0,1,,,,,,,,,0,,,89,75
3090,note_on,30,0,1,,,,,,,,,0,,,83,0
3120,note_on,30,0,1,,,,,,,,,0,,,89,0
3120,note_on,0,0,1,,,,,,,,,0,,,86,75
3120,note_on,54,0,3,,,,,,,,,2,,,55,62
3126,note_on,6,0,3,,,,,,,,,2,,,55,0
3150,note_on,30,0,1,,,,,,,,,0,,,86,0
3150,note_on,0,0,1,,,,,,,,,0,,,83,75
3180,note_on,54,0,3,,,,,,,,,2,,,62,62
3180,note_on,0,0,3,,,,,,,,,2,,,68,62
3180,note_on,0,0,1,,,,,,,,,0,,,80,75
3180,note_on,30,0,1,,,,,,,,,0,,,83,0
3180,note_on,0,0,3,,,,,,,,,2,,,65,62
3186,note_on,0,0,3,,,,,,,,,2,,,62,0
3186,note_on,6,0,3,,,,,,,,,2,,,68,0
3186,note_on,0,0,3,,,,,,,,,2,,,65,0
3210,note_on,0,0,1,,,,,,,,,0,,,77,75
3210,note_on,30,0,1,,,,,,,,,0,,,80,0
3240,note_on,0,0,1,,,,,,,,,0,,,86,75
3240,note_on,0,0,3,,,,,,,,,2,,,68,62
3240,note_on,0,0,3,,,,,,,,,2,,,65,62
3240,note_on,30,0,1,,,,,,,,,0,,,77,0
3240,note_on,54,0,3,,,,,,,,,2,,,62,62
3246,note_on,6,0,3,,,,,,,,,2,,,68,0
3246,note_on,0,0,3,,,,,,,,,2,,,65,0
3246,note_on,0,0,3,,,,,,,,,2,,,62,0
3270,note_on,0,0,1,,,,,,,,,0,,,83,75
3270,note_on,30,0,1,,,,,,,,,0,,,86,0
3300,note_on,54,0,3,,,,,,,,,2,,,55,62
3300,note_on,30,0,1,,,,,,,,,0,,,83,0
3300,note_on,0,0,1,,,,,,,,,0,,,80,75
3306,note_on,6,0,3,,,,,,,,,2,,,55,0
3330,note_on,30,0,1,,,,,,,,,0,,,80,0
3330,note_on,0,0,1,,,,,,,,,0,,,77,75
3360,note_on,54,0,3,,,,,,,,,2,,,62,62
3360,note_on,0,0,3,,,,,,,,,2,,,68,62
3360,note_on,0,0,3,,,,,,,,,2,,,65,62
3360,note_on,30,0,1,,,,,,,,,0,,,77,0
3360,note_on,0,0,1,,,,,,,,,0,,,83,75
3366,note_on,6,0,3,,,,,,,,,2,,,68,0
3366,note_on,0,0,3,,,,,,,,,2,,,62,0
3366,note_on,0,0,3,,,,,,,,,2,,,65,0
3390,note_on,30,0,1,,,,,,,,,0,,,83,0
3390,note_on,0,0,1,,,,,,,,,0,,,80,75
3420,note_on,0,0,3,,,,,,,,,2,,,68,62
3420,note_on,54,0,3,,,,,,,,,2,,,62,62
3420,note_on,0,0,3,,,,,,,,,2,,,65,62
3420,note_on,0,0,1,,,,,,,,,0,,,77,75
3420,note_on,30,0,1,,,,,,,,,0,,,80,0
3426,note_on,0,0,3,,,,,,,,,2,,,65,0
3426,note_on,0,0,3,,,,,,,,,2,,,62,0
3426,note_on,6,0,3,,,,,,,,,2,,,68,0
3450,note_on,0,0,1,,,,,,,,,0,,,74,75
3450,note_on,30,0,1,,,,,,,,,0,,,77,0
3480,note_on,54,0,3,,,,,,,,,2,,,55,62
3480,note_on,0,0,1,,,,,,,,,0,,,80,75
3480,note_on,30,0,1,,,,,,,,,0,,,74,0
3486,note_on,6,0,3,,,,,,,,,2,,,55,0
3510,note_on,0,0,1,,,,,,,,,0,,,77,75
3510,note_on,30,0,1,,,,,,,,,0,,,80,0
3540,note_on,30,0,1,,,,,,,,,0,,,77,0
3540,note_on,0,0,1,,,,,,,,,0,,,74,75
3540,control_change,54,0,3,,,,,,,,,2,64,0,,
3540,control_change,0,0,1,,,,,,,,,0,64,0,,
3540,note_on,0,0,3,,,,,,,,,2,,,62,62
3540,note_on,0,0,3,,,,,,,,,2,,,65,62
3540,note_on,0,0,3,,,,,,,,,2,,,67,62
3546,note_on,6,0,3,,,,,,,,,2,,,67,0
3546,note_on,0,0,3,,,,,,,,,2,,,65,0
3546,note_on,0,0,3,,,,,,,,,2,,,62,0
3570,note_on,30,0,1,,,,,,,,,0,,,74,0
3570,note_on,0,0,1,,,,,,,,,0,,,71,75
3600,note_on,0,0,1,,,,,,,,,0,,,76,88
3600,note_on,0,0,1,,,,,,,,,0,,,67,88
3600,note_on,30,0,1,,,,,,,,,0,,,71,0
3600,note_on,0,0,1,,,,,,,,,0,,,79,88
3600,note_on,0,0,3,,,,,,,,,2,,,48,75
3600,note_on,54,0,3,,,,,,,,,2,,,36,75
3606,note_on,6,0,1,,,,,,,,,0,,,79,0
3606,note_on,0,0,1,,,,,,,,,0,,,67,0
3606,note_on,0,0,1,,,,,,,,,0,,,76,0
3606,note_on,0,0,3,,,,,,,,,2,,,36,0
3606,note_on,6,0,3,,,,,,,,,2,,,48,0
3660,control_change,54,0,1,,,,,,,,,0,64,127,,
3660,note_on,0,0,1,,,,,,,,,0,,,67,88
3660,note_on,0,0,1,,,,,,,,,0,,,76,88
3660,note_on,0,0,1,,,,,,,,,0,,,79,88
3660,note_on,0,0,3,,,,,,,,,2,,,36,75
3660,control_change,54,0,3,,,,,,,,,2,64,127,,
3660,note_on,0,0,3,,,,,,,,,2,,,48,75
3750,note_on,0,0,1,,,,,,,,,0,,,67,0
3750,note_on,0,0,1,,,,,,,,,0,,,76,0
3750,note_on,90,0,1,,,,,,,,,0,,,79,0
3750,note_on,0,0,1,,,,,,,,,0,,,77,88
3750,note_on,0,0,1,,,,,,,,,0,,,65,88
3750,note_on,0,0,1,,,,,,,,,0,,,74,88
3780,note_on,0,0,3,,,,,,,,,2,,,36,0
3780,note_on,120,0,3,,,,,,,,,2,,,48,0
3780,note_on,30,0,1,,,,,,,,,0,,,77,0
3780,note_on,0,0,3,,,,,,,,,2,,,48,75
3780,note_on,0,0,1,,,,,,,,,0,,,74,0
3780,note_on,0,0,1,,,,,,,,,0,,,65,0
3780,note_on,0,0,1,,,,,,,,,0,,,64,88
3780,note_on,0,0,1,,,,,,,,,0,,,72,88
3780,note_on,0,0,1,,,,,,,,,0,,,76,88
3780,note_on,0,0,3,,,,,,,,,2,,,60,75
3780,note_on,0,0,3,,,,,,,,,2,,,58,75
3786,note_on,0,0,3,,,,,,,,,2,,,48,0
3786,note_on,6,0,3,,,,,,,,,2,,,60,0
3786,note_on,0,0,3,,,,,,,,,2,,,58,0
3840,note_on,0,0,3,,,,,,,,,2,,,60,75
3840,note_on,0,0,3,,,,,,,,,2,,,58,75
3840,note_on,0,0,3,,,,,,,,,2,,,48,75
3840,control_change,54,0,3,,,,,,,,,2,64,0,,
3840,note_on,0,0,1,,,,,,,,,0,,,64,0
3840,note_on,0,0,1,,,,,,,,,0,,,64,88
3840,note_on,0,0,1,,,,,,,,,0,,,72,88
3840,note_on,60,0,1,,,,,,,,,0,,,76,0
3840,note_on,0,0,1,,,,,,,,,0,,,72,0
3840,control_change,0,0,1,,,,,,,,,0,64,0,,
3840,note_on,0,0,1,,,,,,,,,0,,,76,88
3846,note_on,0,0,3,,,,,,,,,2,,,48,0
3846,note_on,0,0,3,,,,,,,,,2,,,58,0
3846,note_on,6,0,3,,,,,,,,,2,,,60,0
3846,note_on,0,0,1,,,,,,,,,0,,,72,0
3846,note_on,0,0,1,,,,,,,,,0,,,64,0
3846,note_on,6,0,1,,,,,,,,,0,,,76,0
3900,note_on,54,0,1,,,,,,,,,0,,,64,88
3900,note_on,0,0,1,,,,,,,,,0,,,72,88
3900,note_on,54,0,3,,,,,,,,,2,,,48,75
3900,note_on,0,0,3,,,,,,,,,2,,,58,75
3900,note_on,0,0,3,,,,,,,,,2,,,60,75
3900,note_on,0,0,1,,,,,,,,,0,,,76,88
3906,note_on,0,0,3,,,,,,,,,2,,,48,0
3906,note_on,6,0,1,,,,,,,,,0,,,76,0
3906,note_on,6,0,3,,,,,,,,,2,,,60,0
3906,note_on,0,0,3,,,,,,,,,2,,,58,0
3906,note_on,0,0,1,,,,,,,,,0,,,72,0
3906,note_on,0,0,1,,,,,,,,,0,,,64,0
3960,note_on,0,0,1,,,,,,,,,0,,,76,88
3960,note_on,0,0,1,,,,,,,,,0,,,72,88
3960,note_on,0,0,3,,,,,,,,,2,,,60,75
3960,note_on,0,0,3,,,,,,,,,2,,,58,75
3960,note_on,54,0,3,,,,,,,,,2,,,48,75
3960,note_on,54,0,1,,,,,,,,,0,,,64,88
3966,note_on,0,0,1,,,,,,,,,0,,,72,0
3966,note_on,6,0,1,,,,,,,,,0,,,76,0
3966,note_on,0,0,1,,,,,,,,,0,,,64,0
3966,note_on,0,0,3,,,,,,,,,2,,,58,0
3966,note_on,0,0,3,,,,,,,,,2,,,48,0
3966,note_on,6,0,3,,,,,,,,,2,,,60,0
4020,note_on,54,0,3,,,,,,,,,2,,,48,75
4020,control_change,54,0,1,,,,,,,,,0,64,127,,
4020,note_on,0,0,1,,,,,,,,,0,,,65,88
4020,note_on,0,0,1,,,,,,,,,0,,,77,88
4020,note_on,1050,0,2,,,,,,,,,1,,,72,64
4020,note_on,0,0,3,,,,,,,,,2,,,60,75
4020,control_change,1080,0,4,,,,,,,,,3,64,127,,
4020,note_on,0,0,4,,,,,,,,,3,,,57,75
4140,note_on,120,0,1,,,,,,,,,0,,,77,0
4140,note_on,0,0,1,,,,,,,,,0,,,65,0
4140,note_on,0,0,1,,,,,,,,,0,,,69,88
4140,note_on,0,0,1,,,,,,,,,0,,,81,88
4140,note_on,120,0,4,,,,,,,,,3,,,57,0
4140,note_on,0,0,4,,,,,,,,,3,,,53,75
4200,note_on,0,0,4,,,,,,,,,3,,,52,75
4200,control_change,0,0,4,,,,,,,,,3,64,0,,
4200,note_on,60,0,4,,,,,,,,,3,,,53,0
4200,control_change,0,0,1,,,,,,,,,0,64,0,,
4200,note_on,0,0,1,,,,,,,,,0,,,67,88
4200,note_on,0,0,1,,,,,,,,,0,,,69,0
4200,note_on,60,0,1,,,,,,,,,0,,,81,0
4200,note_on,0,0,1,,,,,,,,,0,,,79,88
4320,note_on,0,0,3,,,,,,,,,2,,,70,36
4320,note_on,0,0,4,,,,,,,,,3,,,60,36
4320,note_on,120,0,4,,,,,,,,,3,,,52,0
4320,note_on,0,0,3,,,,,,,,,2,,,72,36
4320,note_on,0,0,3,,,,,,,,,2,,,48,0
4320,note_on,300,0,3,,,,,,,,,2,,,60,0
4320,note_on,300,0,2,,,,,,,,,1,,,72,0
4320,note_on,0,0,1,,,,,,,,,0,,,88,49
4320,note_on,0,0,1,,,,,,,,,0,,,84,49
4320,note_on,0,0,1,,,,,,,,,0,,,76,49
4320,note_on,0,0,1,,,,,,,,,0,,,67,0
4320,note_on,120,0,1,,,,,,,,,0,,,79,0
4326,note_on,6,0,3,,,,,,,,,2,,,72,0
4326,note_on,0,0,3,,,,,,,,,2,,,70,0
4326,note_on,0,0,1,,,,,,,,,0,,,76,0
4326,note_on,0,0,1,,,,,,,,,0,,,84,0
4326,note_on,6,0,1,,,,,,,,,0,,,88,0
4380,note_on,0,0,1,,,,,,,,,0,,,77,49
4380,note_on,60,0,4,,,,,,,,,3,,,60,0
4380,control_change,0,0,4,,,,,,,,,3,64,127,,
4380,note_on,0,0,4,,,,,,,,,3,,,69,36
4380,control_change,54,0,1,,,,,,,,,0,64,127,,
4380,note_on,0,0,1,,,,,,,,,0,,,89,49
4380,note_on,60,0,2,,,,,,,,,1,,,84,64
4380,note_on,54,0,3,,,,,,,,,2,,,60,36
4380,note_on,0,0,3,,,,,,,,,2,,,72,36
4500,note_on,120,0,4,,,,,,,,,3,,,69,0
4500,note_on,0,0,4,,,,,,,,,3,,,65,36
4500,note_on,0,0,1,,,,,,,,,0,,,93,49
4500,note_on,0,0,1,,,,,,,,,0,,,81,49
4500,note_on,0,0,1,,,,,,,,,0,,,77,0
4500,note_on,120,0,1,,,,,,,,,0,,,89,0
4560,note_on,0,0,1,,,,,,,,,0,,,91,49
4560,note_on,60,0,1,,,,,,,,,0,,,93,0
4560,control_change,0,0,1,,,,,,,,,0,64,0,,
4560,note_on,0,0,1,,,,,,,,,0,,,79,49
4560,note_on,0,0,1,,,,,,,,,0,,,81,0
4560,note_on,0,0,4,,,,,,,,,3,,,64,36
4560,note_on,60,0,4,,,,,,,,,3,,,65,0
4560,control_change,0,0,4,,,,,,,,,3,64,0,,
4620,note_on,60,0,4,,,,,,,,,3,,,64,0
4620,note_on,0,0,3,,,,,,,,,2,,,60,0
4620,note_on,240,0,3,,,,,,,,,2,,,72,0
4680,note_on,0,0,2,,,,,,,,,1,,,67,64
4680,note_on,0,0,3,,,,,,,,,2,,,60,36
4680,note_on,0,0,1,,,,,,,,,0,,,72,49
4680,note_on,0,0,1,,,,,,,,,0,,,79,0
4680,note_on,120,0,1,,,,,,,,,0,,,91,0
4680,note_on,300,0,2,,,,,,,,,1,,,84,0
4680,note_on,60,0,3,,,,,,,,,2,,,52,36
4686,note_on,0,0,3,,,,,,,,,2,,,52,0
4686,note_on,6,0,3,,,,,,,,,2,,,60,0
4710,note_on,0,0,1,,,,,,,,,0,,,74,49
4710,note_on,30,0,1,,,,,,,,,0,,,72,0
4740,note_on,54,0,3,,,,,,,,,2,,,53,36
4740,note_on,30,0,1,,,,,,,,,0,,,74,0
4740,note_on,0,0,3,,,,,,,,,2,,,60,36
4740,note_on,0,0,1,,,,,,,,,0,,,74,49
4740,note_on,60,0,2,,,,,,,,,1,,,67,0
4740,note_on,0,0,2,,,,,,,,,1,,,69,64
4740,note_on,0,0,2,,,,,,,,,1,,,72,64
4740,note_on,0,0,3,,,,,,,,,2,,,62,36
4860,note_on,120,0,1,,,,,,,,,0,,,74,0
4860,note_on,0,0,1,,,,,,,,,0,,,74,49
4860,note_on,120,0,2,,,,,,,,,1,,,72,0
4860,note_on,0,0,2,,,,,,,,,1,,,69,0
4860,note_on,0,0,2,,,,,,,,,1,,,69,64
4860,note_on,0,0,2,,,,,,,,,1,,,72,64
4860,note_on,120,0,3,,,,,,,,,2,,,62,0
4860,note_on,0,0,3,,,,,,,,,2,,,60,0
4860,note_on,0,0,3,,,,,,,,,2,,,53,0
4860,note_on,0,0,3,,,,,,,,,2,,,62,36
4860,note_on,0,0,3,,,,,,,,,2,,,60,36
4860,note_on,0,0,3,,,,,,,,,2,,,53,36
4866,note_on,0,0,3,,,,,,,,,2,,,60,0
4866,note_on,6,0,3,,,,,,,,,2,,,62,0
4866,note_on,0,0,3,,,,,,,,,2,,,53,0
4890,note_on,30,0,1,,,,,,,,,0,,,74,0
4890,note_on,0,0,1,,,,,,,,,0,,,75,49
4920,note_on,30,0,1,,,,,,,,,0,,,75,0
4920,note_on,0,0,1,,,,,,,,,0,,,75,62
4920,note_on,0,0,3,,,,,,,,,2,,,60,49
4920,note_on,0,0,3,,,,,,,,,2,,,63,49
4920,note_on,54,0,3,,,,,,,,,2,,,54,49
4920,note_on,0,0,2,,,,,,,,,1,,,69,0
4920,note_on,60,0,2,,,,,,,,,1,,,72,0
4920,note_on,0,0,2,,,,,,,,,1,,,72,49
4920,note_on,0,0,2,,,,,,,,,1,,,69,49
5040,note_on,0,0,2,,,,,,,,,1,,,72,49
5040,note_on,0,0,2,,,,,,,,,1,,,69,49
5040,note_on,0,0,2,,,,,,,,,1,,,69,0
5040,note_on,120,0,2,,,,,,,,,1,,,72,0
5040,note_on,120,0,1,,,,,,,,,0,,,75,0
5040,note_on,0,0,1,,,,,,,,,0,,,75,62
5040,note_on,120,0,3,,,,,,,,,2,,,63,0
5040,note_on,0,0,3,,,,,,,,,2,,,60,0
5040,note_on,0,0,3,,,,,,,,,2,,,63,49
5040,note_on,0,0,3,,,,,,,,,2,,,60,49
5040,note_on,0,0,3,,,,,,,,,2,,,54,49
5040,note_on,0,0,3,,,,,,,,,2,,,54,0
5046,note_on,0,0,3,,,,,,,,,2,,,54,0
5046,note_on,0,0,3,,,,,,,,,2,,,60,0
5046,note_on,6,0,3,,,,,,,,,2,,,63,0
5070,note_on,0,0,1,,,,,,,,,0,,,76,62
5070,note_on,30,0,1,,,,,,,,,0,,,75,0
5100,note_on,60,0,2,,,,,,,,,1,,,72,0
5100,note_on,0,0,2,,,,,,,,,1,,,69,0
5100,note_on,0,0,2,,,,,,,,,1,,,67,62
5100,note_on,0,0,2,,,,,,,,,1,,,72,62
5100,note_on,0,0,3,,,,,,,,,2,,,64,62
5100,note_on,54,0,3,,,,,,,,,2,,,55,62
5100,note_on,0,0,3,,,,,,,,,2,,,60,62
5100,note_on,0,0,1,,,,,,,,,0,,,76,75
5100,note_on,30,0,1,,,,,,,,,0,,,76,0
5220,note_on,120,0,2,,,,,,,,,1,,,72,0
5220,note_on,0,0,2,,,,,,,,,1,,,72,62
5220,note_on,0,0,1,,,,,,,,,0,,,76,75
5220,note_on,120,0,1,,,,,,,,,0,,,76,0
5220,note_on,120,0,3,,,,,,,,,2,,,64,0
5220,note_on,0,0,3,,,,,,,,,2,,,60,0
5220,note_on,0,0,2,,,,,,,,,1,,,70,62
5220,note_on,0,0,3,,,,,,,,,2,,,55,0
5220,note_on,0,0,2,,,,,,,,,1,,,67,0
5220,note_on,0,0,3,,,,,,,,,2,,,55,62
5220,note_on,0,0,3,,,,,,,,,2,,,60,62
5220,note_on,0,0,3,,,,,,,,,2,,,64,62
5226,note_on,0,0,3,,,,,,,,,2,,,55,0
5226,note_on,0,0,3,,,,,,,,,2,,,60,0
5226,note_on,6,0,3,,,,,,,,,2,,,64,0
5250,note_on,30,0,1,,,,,,,,,0,,,76,0
5250,note_on,0,0,1,,,,,,,,,0,,,77,75
5280,note_on,0,0,3,,,,,,,,,2,,,60,75
5280,note_on,0,0,3,,,,,,,,,2,,,65,75
5280,note_on,60,0,2,,,,,,,,,1,,,72,0
5280,note_on,30,0,1,,,,,,,,,0,,,77,0
5280,note_on,0,0,2,,,,,,,,,1,,,70,0
5280,note_on,0,0,2,,,,,,,,,1,,,68,75
5280,note_on,0,0,2,,,,,,,,,1,,,72,75
5280,note_on,54,0,3,,,,,,,,,2,,,56,75
5280,note_on,0,0,1,,,,,,,,,0,,,77,88
5400,note_on,0,0,3,,,,,,,,,2,,,56,0
5400,note_on,0,0,2,,,,,,,,,1,,,66,101
5400,note_on,0,0,2,,,,,,,,,1,,,72,101
5400,note_on,120,0,2,,,,,,,,,1,,,72,0
5400,note_on,0,0,1,,,,,,,,,0,,,75,114
5400,note_on,0,0,3,,,,,,,,,2,,,33,101
5400,note_on,0,0,2,,,,,,,,,1,,,68,0
5400,note_on,0,0,1,,,,,,,,,0,,,78,114
5400,note_on,0,0,3,,,,,,,,,2,,,60,0
5400,note_on,120,0,3,,,,,,,,,2,,,65,0
5400,note_on,120,0,1,,,,,,,,,0,,,77,0
5400,note_on,0,0,3,,,,,,,,,2,,,45,101
5460,note_on,0,0,1,,,,,,,,,0,,,79,75
5460,note_on,60,0,2,,,,,,,,,1,,,72,0
5460,control_change,0,0,3,,,,,,,,,2,64,127,,
5460,note_on,0,0,2,,,,,,,,,1,,,66,0
5460,note_on,0,0,2,,,,,,,,,1,,,67,36
5460,note_on,0,0,2,,,,,,,,,1,,,70,36
5460,control_change,0,0,1,,,,,,,,,0,64,127,,
5460,note_on,0,0,1,,,,,,,,,0,,,75,0
5460,note_on,0,0,3,,,,,,,,,2,,,33,0
5460,note_on,0,0,3,,,,,,,,,2,,,46,36
5460,note_on,60,0,1,,,,,,,,,0,,,78,0
5460,note_on,60,0,3,,,,,,,,,2,,,45,0
5460,note_on,0,0,3,,,,,,,,,2,,,34,36
5520,note_on,900,0,4,,,,,,,,,3,,,55,62
5520,note_on,60,0,3,,,,,,,,,2,,,46,0
5520,note_on,0,0,3,,,,,,,,,2,,,34,0
5520,note_on,0,0,3,,,,,,,,,2,,,58,36
5550,note_on,90,0,1,,,,,,,,,0,,,79,0
5550,note_on,0,0,1,,,,,,,,,0,,,77,49
5580,note_on,30,0,1,,,,,,,,,0,,,77,0
5580,control_change,0,0,1,,,,,,,,,0,64,0,,
5580,note_on,0,0,1,,,,,,,,,0,,,75,49
5580,note_on,0,0,3,,,,,,,,,2,,,63,36
5580,control_change,0,0,3,,,,,,,,,2,64,0,,
5580,note_on,60,0,3,,,,,,,,,2,,,58,0
5584,note_on,4,0,1,,,,,,,,,0,,,75,0
5640,note_on,180,0,2,,,,,,,,,1,,,70,0
5640,note_on,0,0,3,,,,,,,,,2,,,46,36
5640,note_on,0,0,2,,,,,,,,,1,,,70,36
5640,note_on,0,0,2,,,,,,,,,1,,,67,0
5640,note_on,0,0,2,,,,,,,,,1,,,68,36
5640,note_on,0,0,1,,,,,,,,,0,,,75,49
5640,note_on,0,0,3,,,,,,,,,2,,,34,36
5640,control_change,56,0,1,,,,,,,,,0,64,127,,
5640,note_on,120,0,4,,,,,,,,,3,,,55,0
5640,control_change,0,0,3,,,,,,,,,2,64,127,,
5640,note_on,60,0,3,,,,,,,,,2,,,63,0
5700,note_on,60,0,1,,,,,,,,,0,,,75,0
5700,note_on,0,0,1,,,,,,,,,0,,,74,49
5700,note_on,60,0,4,,,,,,,,,3,,,56,62
5700,note_on,0,0,3,,,,,,,,,2,,,34,0
5700,note_on,0,0,3,,,,,,,,,2,,,58,36
5700,note_on,60,0,3,,,,,,,,,2,,,46,0
5730,note_on,0,0,1,,,,,,,,,0,,,72,49
5730,note_on,30,0,1,,,,,,,,,0,,,74,0
5760,note_on,0,0,1,,,,,,,,,0,,,70,49
5760,note_on,60,0,3,,,,,,,,,2,,,58,0
5760,control_change,0,0,3,,,,,,,,,2,64,0,,
5760,control_change,0,0,1,,,,,,,,,0,64,0,,
5760,note_on,30,0,1,,,,,,,,,0,,,72,0
5760,note_on,0,0,3,,,,,,,,,2,,,62,36
5766,note_on,6,0,1,,,,,,,,,0,,,70,0
5820,note_on,120,0,4,,,,,,,,,3,,,56,0
5820,note_on,0,0,1,,,,,,,,,0,,,79,75
5820,control_change,54,0,1,,,,,,,,,0,64,127,,
5820,control_change,0,0,3,,,,,,,,,2,64,127,,
5820,note_on,0,0,2,,,,,,,,,1,,,67,36
5820,note_on,0,0,2,,,,,,,,,1,,,68,0
5820,note_on,180,0,2,,,,,,,,,1,,,70,0
5820,note_on,0,0,3,,,,,,,,,2,,,34,36
5820,note_on,0,0,3,,,,,,,,,2,,,46,36
5820,note_on,60,0,3,,,,,,,,,2,,,62,0
5820,note_on,0,0,2,,,,,,,,,1,,,70,36
5880,note_on,0,0,3,,,,,,,,,2,,,58,36
5880,note_on,0,0,3,,,,,,,,,2,,,34,0
5880,note_on,60,0,3,,,,,,,,,2,,,46,0
5880,note_on,60,0,4,,,,,,,,,3,,,55,62
5910,note_on,0,0,1,,,,,,,,,0,,,77,49
5910,note_on,90,0,1,,,,,,,,,0,,,79,0
5940,note_on,0,0,1,,,,,,,,,0,,,75,49
5940,note_on,30,0,1,,,,,,,,,0,,,77,0
5940,note_on,60,0,3,,,,,,,,,2,,,58,0
5940,control_change,0,0,3,,,,,,,,,2,64,0,,
5940,note_on,0,0,3,,,,,,,,,2,,,63,36
5940,control_change,0,0,1,,,,,,,,,0,64,0,,
5944,note_on,4,0,1,,,,,,,,,0,,,75,0
6000,note_on,0,0,2,,,,,,,,,1,,,67,0
6000,note_on,0,0,2,,,,,,,,,1,,,70,36
6000,note_on,0,0,3,,,,,,,,,2,,,46,36
6000,note_on,0,0,3,,,,,,,,,2,,,34,36
6000,control_change,0,0,3,,,,,,,,,2,64,127,,
6000,note_on,60,0,3,,,,,,,,,2,,,63,0
6000,note_on,180,0,2,,,,,,,,,1,,,70,0
6000,note_on,0,0,2,,,,,,,,,1,,,68,36
6000,note_on,0,0,1,,,,,,,,,0,,,75,49
6000,control_change,56,0,1,,,,,,,,,0,64,127,,
6000,note_on,120,0,4,,,,,,,,,3,,,55,0
6060,note_on,0,0,3,,,,,,,,,2,,,34,0
6060,note_on,60,0,4,,,,,,,,,3,,,56,62
6060,note_on,60,0,1,,,,,,,,,0,,,75,0
6060,note_on,0,0,1,,,,,,,,,0,,,74,49
6060,note_on,0,0,3,,,,,,,,,2,,,58,36
6060,note_on,60,0,3,,,,,,,,,2,,,46,0
6090,note_on,30,0,1,,,,,,,,,0,,,74,0
6090,note_on,0,0,1,,,,,,,,,0,,,72,49
6120,note_on,0,0,1,,,,,,,,,0,,,70,49
6120,note_on,60,0,3,,,,,,,,,2,,,58,0
6120,note_on,0,0,3,,,,,,,,,2,,,62,36
6120,control_change,0,0,1,,,,,,,,,0,64,0,,
6120,note_on,30,0,1,,,,,,,,,0,,,72,0
6120,control_change,0,0,3,,,,,,,,,2,64,0,,
6180,note_on,60,0,1,,,,,,,,,0,,,70,0
6180,note_on,0,0,2,,,,,,,,,1,,,68,0
6180,control_change,0,0,1,,,,,,,,,0,64,127,,
6180,note_on,120,0,4,,,,,,,,,3,,,56,0
6180,note_on,0,0,2,,,,,,,,,1,,,68,62
6180,note_on,60,0,3,,,,,,,,,2,,,62,0
6180,control_change,0,0,3,,,,,,,,,2,64,127,,
6180,note_on,0,0,3,,,,,,,,,2,,,36,62
6180,note_on,0,0,3,,,,,,,,,2,,,48,62
6180,note_on,180,0,2,,,,,,,,,1,,,70,0
6180,note_on,0,0,1,,,,,,,,,0,,,80,101
6180,note_on,0,0,2,,,,,,,,,1,,,72,62
6240,note_on,60,0,4,,,,,,,,,3,,,56,88
6240,note_on,60,0,3,,,,,,,,,2,,,48,0
6240,note_on,0,0,3,,,,,,,,,2,,,36,0
6240,note_on,0,0,3,,,,,,,,,2,,,60,62
6270,note_on,0,0,1,,,,,,,,,0,,,79,75
6270,note_on,90,0,1,,,,,,,,,0,,,80,0
6300,note_on,30,0,1,,,,,,,,,0,,,79,0
6300,control_change,0,0,1,,,,,,,,,0,64,0,,
6300,note_on,60,0,3,,,,,,,,,2,,,60,0
6300,control_change,0,0,3,,,,,,,,,2,64,0,,
6300,note_on,0,0,3,,,,,,,,,2,,,65,62
6300,note_on,0,0,1,,,,,,,,,0,,,77,75
6360,note_on,60,0,3,,,,,,,,,2,,,65,0
6360,control_change,0,0,3,,,,,,,,,2,64,127,,
6360,note_on,0,0,3,,,,,,,,,2,,,36,62
6360,note_on,0,0,3,,,,,,,,,2,,,48,62
6360,note_on,0,0,1,,,,,,,,,0,,,77,75
6360,control_change,0,0,1,,,,,,,,,0,64,127,,
6360,note_on,120,0,4,,,,,,,,,3,,,56,0
6360,note_on,180,0,2,,,,,,,,,1,,,72,0
6360,note_on,0,0,2,,,,,,,,,1,,,68,0
6360,note_on,0,0,2,,,,,,,,,1,,,70,62
6360,note_on,0,0,2,,,,,,,,,1,,,72,62
6360,note_on,60,0,1,,,,,,,,,0,,,77,0
6420,note_on,0,0,1,,,,,,,,,0,,,76,75
6420,note_on,60,0,4,,,,,,,,,3,,,58,88
6420,note_on,60,0,1,,,,,,,,,0,,,77,0
6420,note_on,60,0,3,,,,,,,,,2,,,48,0
6420,note_on,0,0,3,,,,,,,,,2,,,36,0
6420,note_on,0,0,3,,,,,,,,,2,,,60,62
6450,note_on,30,0,1,,,,,,,,,0,,,76,0
6450,note_on,0,0,1,,,,,,,,,0,,,74,75
6480,note_on,60,0,3,,,,,,,,,2,,,60,0
6480,note_on,0,0,3,,,,,,,,,2,,,64,62
6480,note_on,0,0,1,,,,,,,,,0,,,72,75
6480,control_change,0,0,1,,,,,,,,,0,64,0,,
6480,note_on,30,0,1,,,,,,,,,0,,,74,0
6480,control_change,0,0,3,,,,,,,,,2,64,0,,
6540,note_on,180,0,2,,,,,,,,,1,,,72,0
6540,note_on,0,0,2,,,,,,,,,1,,,70,0
6540,note_on,0,0,2,,,,,,,,,1,,,68,62
6540,note_on,0,0,2,,,,,,,,,1,,,72,62
6540,control_change,0,0,1,,,,,,,,,0,64,127,,
6540,control_change,0,0,3,,,,,,,,,2,64,127,,
6540,note_on,0,0,3,,,,,,,,,2,,,36,62
6540,note_on,0,0,3,,,,,,,,,2,,,48,62
6540,note_on,60,0,1,,,,,,,,,0,,,72,0
6540,note_on,0,0,1,,,,,,,,,0,,,80,101
6540,note_on,120,0,4,,,,,,,,,3,,,58,0
6540,note_on,60,0,3,,,,,,,,,2,,,64,0
6600,note_on,60,0,3,,,,,,,,,2,,,48,0
6600,note_on,0,0,3,,,,,,,,,2,,,36,0
6600,note_on,0,0,3,,,,,,,,,2,,,60,62
6600,note_on,60,0,4,,,,,,,,,3,,,56,88
6630,note_on,90,0,1,,,,,,,,,0,,,80,0
6630,note_on,0,0,1,,,,,,,,,0,,,79,75
6660,note_on,30,0,1,,,,,,,,,0,,,79,0
6660,control_change,0,0,1,,,,,,,,,0,64,0,,
6660,note_on,0,0,1,,,,,,,,,0,,,77,75
6660,note_on,0,0,3,,,,,,,,,2,,,65,62
6660,note_on,60,0,3,,,,,,,,,2,,,60,0
6660,control_change,0,0,3,,,,,,,,,2,64,0,,
6720,note_on,0,0,3,,,,,,,,,2,,,48,62
6720,control_change,0,0,3,,,,,,,,,2,64,127,,
6720,note_on,60,0,3,,,,,,,,,2,,,65,0
6720,note_on,0,0,3,,,,,,,,,2,,,36,62
6720,note_on,0,0,2,,,,,,,,,1,,,72,62
6720,note_on,0,0,2,,,,,,,,,1,,,68,0
6720,note_on,0,0,2,,,,,,,,,1,,,70,62
6720,note_on,120,0,4,,,,,,,,,3,,,56,0
6720,note_on,60,0,1,,,,,,,,,0,,,77,0
6720,control_change,0,0,1,,,,,,,,,0,64,127,,
6720,note_on,0,0,1,,,,,,,,,0,,,77,75
6720,note_on,180,0,2,,,,,,,,,1,,,72,0
6780,note_on,0,0,3,,,,,,,,,2,,,60,62
6780,note_on,0,0,3,,,,,,,,,2,,,36,0
6780,note_on,60,0,3,,,,,,,,,2,,,48,0
6780,note_on,60,0,4,,,,,,,,,3,,,58,88
6780,note_on,60,0,1,,,,,,,,,0,,,77,0
6780,note_on,0,0,1,,,,,,,,,0,,,76,75
6810,note_on,0,0,1,,,,,,,,,0,,,74,75
6810,note_on,30,0,1,,,,,,,,,0,,,76,0
6840,control_change,0,0,3,,,,,,,,,2,64,0,,
6840,note_on,0,0,3,,,,,,,,,2,,,64,62
6840,note_on,0,0,1,,,,,,,,,0,,,72,75
6840,control_change,0,0,1,,,,,,,,,0,64,0,,
6840,note_on,30,0,1,,,,,,,,,0,,,74,0
6840,note_on,60,0,3,,,,,,,,,2,,,60,0
6900,note_on,180,0,2,,,,,,,,,1,,,72,0
6900,note_on,0,0,2,,,,,,,,,1,,,70,0
6900,note_on,0,0,2,,,,,,,,,1,,,69,75
6900,note_on,60,0,3,,,,,,,,,2,,,64,0
6900,note_on,120,0,4,,,,,,,,,3,,,58,0
6900,note_on,0,0,3,,,,,,,,,2,,,41,75
6900,note_on,0,0,3,,,,,,,,,2,,,53,75
6900,note_on,0,0,2,,,,,,,,,1,,,72,75
6900,note_on,60,0,1,,,,,,,,,0,,,72,0
6900,control_change,0,0,1,,,,,,,,,0,64,127,,
6900,note_on,0,0,1,,,,,,,,,0,,,81,114
6990,note_on,90,0,1,,,,,,,,,0,,,81,0
6990,note_on,0,0,1,,,,,,,,,0,,,79,88
7020,note_on,30,0,1,,,,,,,,,0,,,79,0
7020,note_on,0,0,1,,,,,,,,,0,,,77,88
7080,note_on,0,0,3,,,,,,,,,2,,,53,75
7080,note_on,0,0,3,,,,,,,,,2,,,41,0
7080,note_on,180,0,3,,,,,,,,,2,,,53,0
7080,note_on,0,0,3,,,,,,,,,2,,,65,75
7080,note_on,0,0,2,,,,,,,,,1,,,72,75
7080,note_on,0,0,3,,,,,,,,,2,,,57,75
7080,note_on,0,0,1,,,,,,,,,0,,,77,114
7080,note_on,180,0,2,,,,,,,,,1,,,72,0
7080,note_on,0,0,2,,,,,,,,,1,,,69,0
7080,note_on,0,0,2,,,,,,,,,1,,,69,75
7080,note_on,60,0,1,,,,,,,,,0,,,77,0
7170,note_on,90,0,1,,,,,,,,,0,,,77,0
7170,note_on,0,0,1,,,,,,,,,0,,,76,88
7200,note_on,0,0,1,,,,,,,,,0,,,75,88
7200,control_change,0,0,1,,,,,,,,,0,64,0,,
7200,note_on,30,0,1,,,,,,,,,0,,,76,0
7260,note_on,180,0,3,,,,,,,,,2,,,65,0
7260,note_on,0,0,3,,,,,,,,,2,,,57,0
7260,note_on,0,0,3,,,,,,,,,2,,,53,0
7260,note_on,0,0,3,,,,,,,,,2,,,41,75
7260,note_on,0,0,3,,,,,,,,,2,,,53,75
7260,note_on,180,0,2,,,,,,,,,1,,,72,0
7260,note_on,0,0,2,,,,,,,,,1,,,72,75
7260,note_on,0,0,2,,,,,,,,,1,,,69,0
7260,note_on,0,0,1,,,,,,,,,0,,,81,114
7260,control_change,0,0,1,,,,,,,,,0,64,127,,
7260,note_on,60,0,1,,,,,,,,,0,,,75,0
7260,note_on,0,0,2,,,,,,,,,1,,,69,75
7350,note_on,90,0,1,,,,,,,,,0,,,81,0
7350,note_on,0,0,1,,,,,,,,,0,,,79,88
7380,note_on,0,0,1,,,,,,,,,0,,,77,88
7380,note_on,30,0,1,,,,,,,,,0,,,79,0
7440,note_on,0,0,2,,,,,,,,,1,,,72,75
7440,note_on,0,0,1,,,,,,,,,0,,,77,114
7440,note_on,60,0,1,,,,,,,,,0,,,77,0
7440,note_on,180,0,2,,,,,,,,,1,,,72,0
7440,note_on,180,0,3,,,,,,,,,2,,,53,0
7440,note_on,0,0,2,,,,,,,,,1,,,69,0
7440,note_on,0,0,2,,,,,,,,,1,,,69,75
7440,note_on,0,0,3,,,,,,,,,2,,,53,75
7440,note_on,0,0,3,,,,,,,,,2,,,57,75
7440,note_on,0,0,3,,,,,,,,,2,,,65,75
7440,note_on,0,0,3,,,,,,,,,2,,,41,0
7530,note_on,0,0,1,,,,,,,,,0,,,76,88
7530,note_on,90,0,1,,,,,,,,,0,,,77,0
7560,note_on,30,0,1,,,,,,,,,0,,,76,0
7560,control_change,0,0,1,,,,,,,,,0,64,0,,
7560,note_on,0,0,1,,,,,,,,,0,,,75,88
7620,note_on,0,0,2,,,,,,,,,1,,,77,93
7620,note_on,0,0,2,,,,,,,,,1,,,80,101
7620,note_on,0,0,2,,,,,,,,,1,,,69,0
7620,note_on,180,0,2,,,,,,,,,1,,,72,0
7620,note_on,0,0,1,,,,,,,,,0,,,89,114
7620,note_on,60,0,1,,,,,,,,,0,,,75,0
7620,control_change,0,0,1,,,,,,,,,0,64,127,,
7620,note_on,0,0,3,,,,,,,,,2,,,49,75
7620,note_on,0,0,3,,,,,,,,,2,,,53,0
7620,note_on,0,0,3,,,,,,,,,2,,,37,75
7620,note_on,0,0,3,,,,,,,,,2,,,57,0
7620,note_on,180,0,3,,,,,,,,,2,,,65,0
7710,note_on,0,0,1,,,,,,,,,0,,,87,88
7710,note_on,90,0,1,,,,,,,,,0,,,89,0
7740,note_on,0,0,1,,,,,,,,,0,,,85,88
7740,note_on,30,0,1,,,,,,,,,0,,,87,0
7800,note_on,0,0,3,,,,,,,,,2,,,49,75
7800,note_on,0,0,1,,,,,,,,,0,,,85,114
7800,note_on,60,0,1,,,,,,,,,0,,,85,0
7800,note_on,0,0,3,,,,,,,,,2,,,53,75
7800,note_on,180,0,3,,,,,,,,,2,,,49,0
7800,note_on,0,0,3,,,,,,,,,2,,,37,0
7800,note_on,0,0,2,,,,,,,,,1,,,80,101
7800,note_on,0,0,2,,,,,,,,,1,,,77,93
7800,note_on,0,0,2,,,,,,,,,1,,,77,0
7800,note_on,180,0,2,,,,,,,,,1,,,80,0
7800,note_on,0,0,3,,,,,,,,,2,,,61,75
7890,note_on,90,0,1,,,,,,,,,0,,,85,0
7890,note_on,0,0,1,,,,,,,,,0,,,84,88
7920,note_on,30,0,1,,,,,,,,,0,,,84,0
7920,note_on,0,0,1,,,,,,,,,0,,,83,88
7920,control_change,0,0,1,,,,,,,,,0,64,0,,
7980,note_on,60,0,1,,,,,,,,,0,,,83,0
7980,note_on,180,0,3,,,,,,,,,2,,,61,0
7980,note_on,0,0,3,,,,,,,,,2,,,53,0
7980,note_on,0,0,1,,,,,,,,,0,,,89,127
7980,control_change,0,0,1,,,,,,,,,0,64,127,,
7980,note_on,0,0,3,,,,,,,,,2,,,49,0
7980,note_on,0,0,3,,,,,,,,,2,,,37,88
7980,note_on,0,0,3,,,,,,,,,2,,,49,88
7980,note_on,0,0,2,,,,,,,,,1,,,80,114
7980,note_on,180,0,2,,,,,,,,,1,,,80,0
7980,note_on,0,0,2,,,,,,,,,1,,,77,0
7980,note_on,0,0,2,,,,,,,,,1,,,77,106
8070,note_on,0,0,1,,,,,,,,,0,,,87,101
8070,note_on,90,0,1,,,,,,,,,0,,,89,0
8100,note_on,0,0,1,,,,,,,,,0,,,85,101
8100,note_on,30,0,1,,,,,,,,,0,,,87,0
8160,note_on,0,0,2,,,,,,,,,1,,,77,106
8160,note_on,0,0,2,,,,,,,,,1,,,77,0
8160,note_on,180,0,2,,,,,,,,,1,,,80,0
8160,note_on,0,0,3,,,,,,,,,2,,,49,88
8160,note_on,0,0,2,,,,,,,,,1,,,80,114
8160,note_on,0,0,3,,,,,,,,,2,,,37,0
8160,note_on,180,0,3,,,,,,,,,2,,,49,0
8160,note_on,0,0,3,,,,,,,,,2,,,61,88
8160,note_on,60,0,1,,,,,,,,,0,,,85,0
8160,note_on,0,0,3,,,,,,,,,2,,,53,88
8160,note_on,0,0,1,,,,,,,,,0,,,85,127
8250,note_on,0,0,1,,,,,,,,,0,,,84,101
8250,note_on,90,0,1,,,,,,,,,0,,,85,0
8280,note_on,0,0,1,,,,,,,,,0,,,83,101
8280,control_change,0,0,1,,,,,,,,,0,64,0,,
8280,note_on,30,0,1,,,,,,,,,0,,,84,0
8340,note_on,0,0,1,,,,,,,,,0,,,81,127
8340,note_on,0,0,1,,,,,,,,,0,,,84,127
8340,note_on,180,0,2,,,,,,,,,1,,,80,0
8340,note_on,0,0,2,,,,,,,,,1,,,77,0
8340,note_on,0,0,3,,,,,,,,,2,,,48,101
8340,note_on,0,0,3,,,,,,,,,2,,,36,101
8340,note_on,0,0,3,,,,,,,,,2,,,49,0
8340,note_on,0,0,3,,,,,,,,,2,,,53,0
8340,note_on,180,0,3,,,,,,,,,2,,,61,0
8340,control_change,0,0,1,,,,,,,,,0,64,127,,
8340,note_on,60,0,1,,,,,,,,,0,,,83,0
8430,note_on,90,0,1,,,,,,,,,0,,,84,0
8430,note_on,0,0,1,,,,,,,,,0,,,81,0
8430,note_on,0,0,1,,,,,,,,,0,,,79,114
8430,note_on,0,0,1,,,,,,,,,0,,,82,114
8460,note_on,0,0,1,,,,,,,,,0,,,79,0
8460,note_on,0,0,1,,,,,,,,,0,,,77,114
8460,note_on,0,0,1,,,,,,,,,0,,,81,114
8460,note_on,30,0,1,,,,,,,,,0,,,82,0
8520,note_on,60,0,1,,,,,,,,,0,,,81,0
8520,note_on,0,0,1,,,,,,,,,0,,,77,0
8520,note_on,180,0,2,,,,,,,,,1,,,72,101
8520,note_on,0,0,1,,,,,,,,,0,,,79,127
8520,note_on,0,0,1,,,,,,,,,0,,,70,127
8610,note_on,90,0,1,,,,,,,,,0,,,79,0
8610,note_on,0,0,1,,,,,,,,,0,,,70,0
8610,note_on,0,0,1,,,,,,,,,0,,,69,114
8610,note_on,0,0,1,,,,,,,,,0,,,77,114
8640,note_on,30,0,1,,,,,,,,,0,,,77,0
8640,note_on,0,0,1,,,,,,,,,0,,,69,0
8640,note_on,0,0,1,,,,,,,,,0,,,67,114
8640,note_on,0,0,1,,,,,,,,,0,,,76,114
8640,control_change,0,0,1,,,,,,,,,0,64,0,,
8700,note_on,60,0,1,,,,,,,,,0,,,76,0
8700,control_change,0,0,1,,,,,,,,,0,64,127,,
8700,note_on,0,0,1,,,,,,,,,0,,,72,127
8700,note_on,0,0,1,,,,,,,,,0,,,69,127
8700,note_on,0,0,1,,,,,,,,,0,,,67,0
8700,note_on,180,0,2,,,,,,,,,1,,,72,0
8790,note_on,0,0,1,,,,,,,,,0,,,70,114
8790,note_on,0,0,1,,,,,,,,,0,,,67,114
8790,note_on,0,0,1,,,,,,,,,0,,,69,0
8790,note_on,90,0,1,,,,,,,,,0,,,72,0
8820,note_on,0,0,1,,,,,,,,,0,,,69,114
8820,note_on,0,0,1,,,,,,,,,0,,,65,114
8820,note_on,30,0,1,,,,,,,,,0,,,70,0
8820,note_on,0,0,1,,,,,,,,,0,,,67,0
8880,note_on,180,0,2,,,,,,,,,1,,,60,101
8880,note_on,0,0,1,,,,,,,,,0,,,65,0
8880,note_on,60,0,1,,,,,,,,,0,,,69,0
8880,note_on,0,0,1,,,,,,,,,0,,,58,127
8880,note_on,0,0,1,,,,,,,,,0,,,67,127
8970,note_on,90,0,1,,,,,,,,,0,,,67,0
8970,note_on,0,0,1,,,,,,,,,0,,,65,114
8970,note_on,0,0,1,,,,,,,,,0,,,57,114
8970,note_on,0,0,1,,,,,,,,,0,,,58,0
9000,control_change,0,0,1,,,,,,,,,0,64,0,,
9000,note_on,0,0,1,,,,,,,,,0,,,64,114
9000,note_on,0,0,1,,,,,,,,,0,,,55,114
9000,note_on,0,0,1,,,,,,,,,0,,,57,0
9000,note_on,30,0,1,,,,,,,,,0,,,65,0
9060,note_on,0,0,1,,,,,,,,,0,,,60,114
9060,note_on,0,0,1,,,,,,,,,0,,,57,106
9060,note_on,0,0,1,,,,,,,,,0,,,55,0
9060,note_on,60,0,1,,,,,,,,,0,,,64,0
9060,note_on,180,0,2,,,,,,,,,1,,,60,0
9060,note_on,720,0,3,,,,,,,,,2,,,48,0
9060,control_change,0,0,1,,,,,,,,,0,64,127,,
9150,note_on,0,0,1,,,,,,,,,0,,,57,0
9150,note_on,0,0,1,,,,,,,,,0,,,55,88
9150,note_on,0,0,1,,,,,,,,,0,,,58,88
9150,note_on,90,0,1,,,,,,,,,0,,,60,0
9180,note_on,30,0,1,,,,,,,,,0,,,58,0
9180,note_on,0,0,1,,,,,,,,,0,,,55,0
9180,note_on,0,0,1,,,,,,,,,0,,,53,88
9180,note_on,0,0,1,,,,,,,,,0,,,57,88
9240,note_on,0,0,1,,,,,,,,,0,,,55,114
9240,note_on,0,0,1,,,,,,,,,0,,,46,106
9240,note_on,0,0,1,,,,,,,,,0,,,53,0
9240,note_on,180,0,2,,,,,,,,,1,,,48,75
9240,note_on,60,0,1,,,,,,,,,0,,,57,0
9330,note_on,90,0,1,,,,,,,,,0,,,55,0
9330,note_on,0,0,1,,,,,,,,,0,,,46,0
9330,note_on,0,0,1,,,,,,,,,0,,,45,88
9330,note_on,0,0,1,,,,,,,,,0,,,53,88
9360,note_on,0,0,1,,,,,,,,,0,,,45,0
9360,note_on,0,0,1,,,,,,,,,0,,,43,88
9360,note_on,30,0,1,,,,,,,,,0,,,53,0
9360,note_on,0,0,1,,,,,,,,,0,,,52,88
9360,control_change,0,0,1,,,,,,,,,0,64,0,,
9420,note_on,0,0,1,,,,,,,,,0,,,43,0
9420,note_on,60,0,1,,,,,,,,,0,,,52,0
9420,note_on,360,0,3,,,,,,,,,2,,,36,0
9420,note_on,180,0,2,,,,,,,,,1,,,48,0
9780,note_on,0,0,4,,,,,,,,,3,,,53,36
9780,control_change,360,0,1,,,,,,,,,0,64,127,,
9780,note_on,0,0,1,,,,,,,,,0,,,65,49
9780,note_on,0,0,1,,,,,,,,,0,,,77,49
9780,note_on,0,0,3,,,,,,,,,2,,,65,62
9780,note_on,0,0,3,,,,,,,,,2,,,57,62
9780,control_change,360,0,3,,,,,,,,,2,64,127,,
9780,control_change,2880,0,4,,,,,,,,,3,64,127,,
9786,note_on,6,0,4,,,,,,,,,3,,,53,0
9840,note_on,54,0,4,,,,,,,,,3,,,53,36
9846,note_on,6,0,4,,,,,,,,,3,,,53,0
9900,note_on,54,0,4,,,,,,,,,3,,,53,36
9900,note_on,120,0,3,,,,,,,,,2,,,65,0
9900,note_on,0,0,3,,,,,,,,,2,,,60,62
9900,note_on,0,0,3,,,,,,,,,2,,,57,0
9906,note_on,6,0,4,,,,,,,,,3,,,53,0
9960,note_on,0,0,3,,,,,,,,,2,,,61,62
9960,control_change,0,0,1,,,,,,,,,0,64,0,,
9960,note_on,54,0,4,,,,,,,,,3,,,53,36
9960,note_on,0,0,1,,,,,,,,,0,,,81,49
9960,note_on,0,0,1,,,,,,,,,0,,,69,49
9960,note_on,0,0,1,,,,,,,,,0,,,65,0
9960,note_on,180,0,1,,,,,,,,,0,,,77,0
9960,note_on,60,0,3,,,,,,,,,2,,,60,0
9966,note_on,6,0,4,,,,,,,,,3,,,53,0
10020,note_on,54,0,4,,,,,,,,,3,,,53,36
10026,note_on,6,0,4,,,,,,,,,3,,,53,0
10080,note_on,0,0,4,,,,,,,,,3,,,53,36
10080,note_on,120,0,3,,,,,,,,,2,,,61,0
10080,control_change,0,0,3,,,,,,,,,2,64,0,,
10080,note_on,0,0,3,,,,,,,,,2,,,60,62
10080,control_change,54,0,4,,,,,,,,,3,64,0,,
10086,note_on,6,0,4,,,,,,,,,3,,,53,0
10140,note_on,0,0,1,,,,,,,,,0,,,69,0
10140,note_on,180,0,1,,,,,,,,,0,,,81,0
10140,note_on,0,0,1,,,,,,,,,0,,,67,49
10140,control_change,0,0,1,,,,,,,,,0,64,127,,
10140,note_on,60,0,3,,,,,,,,,2,,,60,0
10140,control_change,0,0,3,,,,,,,,,2,64,127,,
10140,note_on,0,0,3,,,,,,,,,2,,,58,62
10140,note_on,0,0,3,,,,,,,,,2,,,64,62
10140,control_change,54,0,4,,,,,,,,,3,64,127,,
10140,note_on,0,0,4,,,,,,,,,3,,,53,36
10140,note_on,0,0,1,,,,,,,,,0,,,79,49
10146,note_on,6,0,4,,,,,,,,,3,,,53,0
10200,note_on,54,0,4,,,,,,,,,3,,,53,36
10206,note_on,6,0,4,,,,,,,,,3,,,53,0
10260,note_on,120,0,3,,,,,,,,,2,,,64,0
10260,note_on,0,0,3,,,,,,,,,2,,,58,0
10260,note_on,0,0,3,,,,,,,,,2,,,61,62
10260,note_on,54,0,4,,,,,,,,,3,,,53,36
10266,note_on,6,0,4,,,,,,,,,3,,,53,0
10320,note_on,60,0,3,,,,,,,,,2,,,61,0
10320,note_on,0,0,3,,,,,,,,,2,,,60,62
10320,note_on,54,0,4,,,,,,,,,3,,,53,36
10320,note_on,180,0,1,,,,,,,,,0,,,79,0
10320,control_change,0,0,1,,,,,,,,,0,64,0,,
10320,note_on,0,0,1,,,,,,,,,0,,,84,49
10320,note_on,0,0,1,,,,,,,,,0,,,72,49
10320,note_on,0,0,1,,,,,,,,,0,,,67,0
10326,note_on,6,0,4,,,,,,,,,3,,,53,0
10380,note_on,54,0,4,,,,,,,,,3,,,53,36
10386,note_on,6,0,4,,,,,,,,,3,,,53,0
10440,note_on,0,0,4,,,,,,,,,3,,,53,36
10440,control_change,0,0,3,,,,,,,,,2,64,0,,
10440,note_on,120,0,3,,,,,,,,,2,,,60,0
10440,control_change,54,0,4,,,,,,,,,3,64,0,,
10440,note_on,0,0,3,,,,,,,,,2,,,58,62
10446,note_on,6,0,4,,,,,,,,,3,,,53,0
10500,note_on,180,0,1,,,,,,,,,0,,,84,0
10500,note_on,0,0,1,,,,,,,,,0,,,72,0
10500,note_on,0,0,1,,,,,,,,,0,,,65,49
10500,note_on,0,0,1,,,,,,,,,0,,,77,49
10500,control_change,0,0,1,,,,,,,,,0,64,127,,
10500,note_on,0,0,3,,,,,,,,,2,,,57,62
10500,control_change,0,0,3,,,,,,,,,2,64,127,,
10500,note_on,0,0,3,,,,,,,,,2,,,65,62
10500,note_on,0,0,4,,,,,,,,,3,,,53,36
10500,control_change,54,0,4,,,,,,,,,3,64,127,,
10500,note_on,60,0,3,,,,,,,,,2,,,58,0
10506,note_on,6,0,4,,,,,,,,,3,,,53,0
10560,note_on,54,0,4,,,,,,,,,3,,,53,36
10566,note_on,6,0,4,,,,,,,,,3,,,53,0
10620,note_on,120,0,3,,,,,,,,,2,,,65,0
10620,note_on,0,0,3,,,,,,,,,2,,,57,0
10620,note_on,0,0,3,,,,,,,,,2,,,60,62
10620,note_on,54,0,4,,,,,,,,,3,,,53,36
10626,note_on,6,0,4,,,,,,,,,3,,,53,0
10680,note_on,54,0,4,,,,,,,,,3,,,53,36
10680,note_on,60,0,3,,,,,,,,,2,,,60,0
10680,note_on,180,0,1,,,,,,,,,0,,,77,0
10680,note_on,0,0,1,,,,,,,,,0,,,65,0
10680,note_on,0,0,1,,,,,,,,,0,,,81,49
10680,control_change,0,0,1,,,,,,,,,0,64,0,,
10680,note_on,0,0,1,,,,,,,,,0,,,69,49
10680,note_on,0,0,3,,,,,,,,,2,,,61,62
10686,note_on,6,0,4,,,,,,,,,3,,,53,0
10740,note_on,54,0,4,,,,,,,,,3,,,53,36
10746,note_on,6,0,4,,,,,,,,,3,,,53,0
10800,note_on,0,0,4,,,,,,,,,3,,,53,36
10800,control_change,54,0,4,,,,,,,,,3,64,0,,
10800,note_on,0,0,3,,,,,,,,,2,,,60,62
10800,control_change,0,0,3,,,,,,,,,2,64,0,,
10800,note_on,120,0,3,,,,,,,,,2,,,61,0
10806,note_on,6,0,4,,,,,,,,,3,,,53,0
10860,note_on,0,0,3,,,,,,,,,2,,,58,62
10860,control_change,0,0,3,,,,,,,,,2,64,127,,
10860,note_on,0,0,3,,,,,,,,,2,,,64,62
10860,note_on,60,0,3,,,,,,,,,2,,,60,0
10860,note_on,180,0,1,,,,,,,,,0,,,81,0
10860,note_on,0,0,4,,,,,,,,,3,,,53,36
10860,note_on,0,0,1,,,,,,,,,0,,,67,49
10860,note_on,0,0,1,,,,,,,,,0,,,69,0
10860,control_change,0,0,1,,,,,,,,,0,64,127,,
10860,control_change,54,0,4,,,,,,,,,3,64,127,,
10860,note_on,0,0,1,,,,,,,,,0,,,79,49
10866,note_on,6,0,4,,,,,,,,,3,,,53,0
10920,note_on,54,0,4,,,,,,,,,3,,,53,36
10926,note_on,6,0,4,,,,,,,,,3,,,53,0
10980,note_on,54,0,4,,,,,,,,,3,,,53,36
10980,note_on,0,0,3,,,,,,,,,2,,,58,0
10980,note_on,120,0,3,,,,,,,,,2,,,64,0
10980,note_on,0,0,3,,,,,,,,,2,,,61,62
10986,note_on,6,0,4,,,,,,,,,3,,,53,0
11040,note_on,180,0,1,,,,,,,,,0,,,79,0
11040,note_on,54,0,4,,,,,,,,,3,,,53,36
11040,control_change,0,0,1,,,,,,,,,0,64,0,,
11040,note_on,60,0,3,,,,,,,,,2,,,61,0
11040,note_on,0,0,3,,,,,,,,,2,,,60,62
11040,note_on,0,0,1,,,,,,,,,0,,,84,49
11040,note_on,0,0,1,,,,,,,,,0,,,72,49
11040,note_on,0,0,1,,,,,,,,,0,,,67,0
11046,note_on,6,0,4,,,,,,,,,3,,,53,0
11100,note_on,54,0,4,,,,,,,,,3,,,53,36
11106,note_on,6,0,4,,,,,,,,,3,,,53,0
11160,note_on,0,0,4,,,,,,,,,3,,,53,36
11160,control_change,54,0,4,,,,,,,,,3,64,0,,
11160,note_on,120,0,3,,,,,,,,,2,,,60,0
11160,control_change,0,0,3,,,,,,,,,2,64,0,,
11160,note_on,0,0,3,,,,,,,,,2,,,58,62
11166,note_on,6,0,4,,,,,,,,,3,,,53,0
11220,note_on,0,0,1,,,,,,,,,0,,,72,0
11220,note_on,0,0,3,,,,,,,,,2,,,65,62
11220,note_on,0,0,3,,,,,,,,,2,,,57,62
11220,note_on,0,0,3,,,,,,,,,2,,,53,62
11220,note_on,180,0,1,,,,,,,,,0,,,84,0
11220,note_on,0,0,1,,,,,,,,,0,,,77,49
11220,note_on,0,0,1,,,,,,,,,0,,,65,49
11220,note_on,60,0,3,,,,,,,,,2,,,58,0
11226,note_on,0,0,1,,,,,,,,,0,,,65,0
11226,note_on,0,0,3,,,,,,,,,2,,,53,0
11226,note_on,0,0,3,,,,,,,,,2,,,57,0
11226,note_on,6,0,3,,,,,,,,,2,,,65,0
11226,note_on,6,0,1,,,,,,,,,0,,,77,0
11280,note_on,54,0,3,,,,,,,,,2,,,64,36
11280,note_on,54,0,1,,,,,,,,,0,,,76,36
11340,note_on,60,0,3,,,,,,,,,2,,,64,0
11340,note_on,60,0,1,,,,,,,,,0,,,76,0
11340,note_on,0,0,1,,,,,,,,,0,,,77,36
11340,note_on,0,0,3,,,,,,,,,2,,,65,36
11400,note_on,60,0,3,,,,,,,,,2,,,65,0
11400,note_on,0,0,3,,,,,,,,,2,,,60,36
11400,note_on,0,0,1,,,,,,,,,0,,,72,36
11400,control_change,0,0,1,,,,,,,,,0,64,127,,
11400,note_on,60,0,1,,,,,,,,,0,,,77,0
11400,control_change,0,0,3,,,,,,,,,2,64,127,,
11460,note_on,0,0,1,,,,,,,,,0,,,69,36
11460,note_on,60,0,1,,,,,,,,,0,,,72,0
11460,note_on,60,0,3,,,,,,,,,2,,,60,0
11460,note_on,0,0,3,,,,,,,,,2,,,57,36
11520,note_on,60,0,1,,,,,,,,,0,,,69,0
11520,note_on,0,0,1,,,,,,,,,0,,,65,36
11520,control_change,0,0,1,,,,,,,,,0,64,0,,
11520,note_on,60,0,3,,,,,,,,,2,,,57,0
11520,control_change,0,0,3,,,,,,,,,2,64,0,,
11520,note_on,0,0,3,,,,,,,,,2,,,53,36
11580,note_on,60,0,1,,,,,,,,,0,,,65,0
11580,note_on,60,0,3,,,,,,,,,2,,,53,0
11580,control_change,0,0,3,,,,,,,,,2,64,127,,
11580,note_on,0,0,3,,,,,,,,,2,,,56,36
11580,note_on,0,0,1,,,,,,,,,0,,,68,36
11580,control_change,0,0,1,,,,,,,,,0,64,127,,
11580,note_on,0,0,2,,,,,,,,,1,,,65,75
11580,note_on,2160,0,2,,,,,,,,,1,,,62,75
11580,note_on,0,0,3,,,,,,,,,2,,,46,36
11580,note_on,414,0,4,,,,,,,,,3,,,53,36
11610,note_on,0,0,3,,,,,,,,,2,,,55,36
11610,note_on,0,0,3,,,,,,,,,2,,,46,0
11610,note_on,30,0,3,,,,,,,,,2,,,56,0
11610,note_on,0,0,1,,,,,,,,,0,,,67,36
11610,note_on,30,0,1,,,,,,,,,0,,,68,0
11610,note_on,0,0,3,,,,,,,,,2,,,47,36
11640,note_on,60,0,2,,,,,,,,,1,,,65,0
11640,control_change,0,0,3,,,,,,,,,2,64,0,,
11640,note_on,0,0,3,,,,,,,,,2,,,47,0
11640,note_on,30,0,3,,,,,,,,,2,,,55,0
11640,note_on,60,0,4,,,,,,,,,3,,,53,0
11640,control_change,0,0,1,,,,,,,,,0,64,0,,
11640,note_on,0,0,3,,,,,,,,,2,,,47,52
11640,note_on,0,0,3,,,,,,,,,2,,,53,57
11640,note_on,0,0,2,,,,,,,,,1,,,62,0
11640,note_on,0,0,3,,,,,,,,,2,,,55,62
11640,note_on,0,0,2,,,,,,,,,1,,,65,101
11640,note_on,0,0,1,,,,,,,,,0,,,67,62
11640,note_on,30,0,1,,,,,,,,,0,,,67,0
11640,note_on,0,0,2,,,,,,,,,1,,,62,93
11760,note_on,0,0,1,,,,,,,,,0,,,68,36
11760,note_on,120,0,4,,,,,,,,,3,,,53,36
11760,note_on,0,0,3,,,,,,,,,2,,,53,0
11760,note_on,0,0,2,,,,,,,,,1,,,62,75
11760,note_on,0,0,2,,,,,,,,,1,,,62,0
11760,note_on,120,0,2,,,,,,,,,1,,,65,0
11760,note_on,0,0,3,,,,,,,,,2,,,47,0
11760,note_on,0,0,3,,,,,,,,,2,,,56,36
11760,control_change,0,0,1,,,,,,,,,0,64,127,,
11760,note_on,0,0,3,,,,,,,,,2,,,46,36
11760,control_change,0,0,3,,,,,,,,,2,64,127,,
11760,note_on,120,0,3,,,,,,,,,2,,,55,0
11760,note_on,0,0,2,,,,,,,,,1,,,65,75
11760,note_on,120,0,1,,,,,,,,,0,,,67,0
11790,note_on,30,0,1,,,,,,,,,0,,,68,0
11790,note_on,0,0,1,,,,,,,,,0,,,67,36
11790,note_on,0,0,3,,,,,,,,,2,,,47,36
11790,note_on,30,0,3,,,,,,,,,2,,,56,0
11790,note_on,0,0,3,,,,,,,,,2,,,46,0
11790,note_on,0,0,3,,,,,,,,,2,,,55,36
11820,note_on,30,0,1,,,,,,,,,0,,,67,0
11820,note_on,0,0,2,,,,,,,,,1,,,65,101
11820,note_on,0,0,2,,,,,,,,,1,,,62,93
11820,note_on,0,0,2,,,,,,,,,1,,,62,0
11820,note_on,60,0,2,,,,,,,,,1,,,65,0
11820,control_change,0,0,1,,,,,,,,,0,64,0,,
11820,note_on,60,0,4,,,,,,,,,3,,,53,0
11820,note_on,0,0,3,,,,,,,,,2,,,47,0
11820,control_change,0,0,3,,,,,,,,,2,64,0,,
11820,note_on,30,0,3,,,,,,,,,2,,,55,0
11820,note_on,0,0,3,,,,,,,,,2,,,53,57
11820,note_on,0,0,3,,,,,,,,,2,,,47,52
11820,note_on,0,0,1,,,,,,,,,0,,,67,62
11820,note_on,0,0,3,,,,,,,,,2,,,55,62
11940,note_on,0,0,3,,,,,,,,,2,,,53,0
11940,control_change,0,0,1,,,,,,,,,0,64,127,,
11940,note_on,0,0,3,,,,,,,,,2,,,47,0
11940,note_on,120,0,1,,,,,,,,,0,,,67,0
11940,control_change,0,0,3,,,,,,,,,2,64,127,,
11940,note_on,0,0,3,,,,,,,,,2,,,48,62
11940,note_on,0,0,3,,,,,,,,,2,,,57,62
11940,note_on,120,0,2,,,,,,,,,1,,,65,0
11940,note_on,0,0,2,,,,,,,,,1,,,62,0
11940,control_change,0,0,2,,,,,,,,,1,64,127,,
11940,note_on,0,0,2,,,,,,,,,1,,,63,62
11940,note_on,0,0,2,,,,,,,,,1,,,65,62
11940,note_on,0,0,1,,,,,,,,,0,,,70,75
11940,note_on,120,0,3,,,,,,,,,2,,,55,0
11940,note_on,0,0,3,,,,,,,,,2,,,53,62
11946,note_on,0,0,3,,,,,,,,,2,,,53,0
11946,note_on,6,0,3,,,,,,,,,2,,,57,0
11946,note_on,0,0,3,,,,,,,,,2,,,48,0
11970,note_on,30,0,1,,,,,,,,,0,,,70,0
11970,note_on,0,0,1,,,,,,,,,0,,,69,75
12000,note_on,30,0,1,,,,,,,,,0,,,69,0
12000,note_on,0,0,1,,,,,,,,,0,,,69,101
12000,note_on,54,0,3,,,,,,,,,2,,,48,78
12000,note_on,0,0,3,,,,,,,,,2,,,53,83
12000,note_on,0,0,2,,,,,,,,,1,,,65,88
12000,note_on,0,0,2,,,,,,,,,1,,,63,80
12000,note_on,0,0,2,,,,,,,,,1,,,63,0
12000,note_on,60,0,2,,,,,,,,,1,,,65,0
12000,note_on,0,0,3,,,,,,,,,2,,,57,88
12120,note_on,0,0,3,,,,,,,,,2,,,53,62
12120,control_change,0,0,3,,,,,,,,,2,64,0,,
12120,note_on,0,0,3,,,,,,,,,2,,,48,0
12120,note_on,0,0,3,,,,,,,,,2,,,53,0
12120,note_on,120,0,1,,,,,,,,,0,,,69,0
12120,note_on,0,0,3,,,,,,,,,2,,,58,62
12120,note_on,120,0,2,,,,,,,,,1,,,65,0
12120,control_change,0,0,2,,,,,,,,,1,64,0,,
12120,note_on,0,0,2,,,,,,,,,1,,,65,62
12120,note_on,120,0,3,,,,,,,,,2,,,57,0
12120,note_on,300,0,4,,,,,,,,,3,,,50,36
12120,note_on,0,0,2,,,,,,,,,1,,,63,0
12120,note_on,0,0,1,,,,,,,,,0,,,70,75
12120,control_change,0,0,1,,,,,,,,,0,64,0,,
12140,note_on,20,0,1,,,,,,,,,0,,,70,0
12140,note_on,0,0,1,,,,,,,,,0,,,72,75
12159,note_on,19,0,1,,,,,,,,,0,,,70,75
12160,note_on,1,0,1,,,,,,,,,0,,,72,0
12179,note_on,19,0,1,,,,,,,,,0,,,70,0
12180,note_on,1,0,1,,,,,,,,,0,,,69,75
12200,note_on,20,0,1,,,,,,,,,0,,,69,0
12200,note_on,0,0,1,,,,,,,,,0,,,70,75
12210,note_on,0,0,4,,,,,,,,,3,,,48,36
12210,note_on,90,0,4,,,,,,,,,3,,,50,0
12219,note_on,19,0,1,,,,,,,,,0,,,72,75
12220,note_on,1,0,1,,,,,,,,,0,,,70,0
12239,note_on,19,0,1,,,,,,,,,0,,,72,0
12240,note_on,1,0,1,,,,,,,,,0,,,74,75
12240,note_on,0,0,4,,,,,,,,,3,,,46,36
12240,note_on,30,0,4,,,,,,,,,3,,,48,0
12300,note_on,0,0,2,,,,,,,,,1,,,63,62
12300,control_change,0,0,1,,,,,,,,,0,64,127,,
12300,control_change,0,0,2,,,,,,,,,1,64,127,,
12300,note_on,180,0,2,,,,,,,,,1,,,65,0
12300,note_on,180,0,3,,,,,,,,,2,,,58,0
12300,note_on,0,0,3,,,,,,,,,2,,,53,0
12300,note_on,0,0,2,,,,,,,,,1,,,65,62
12300,note_on,0,0,3,,,,,,,,,2,,,48,62
12300,note_on,0,0,3,,,,,,,,,2,,,53,62
12300,note_on,0,0,3,,,,,,,,,2,,,57,62
12300,note_on,60,0,1,,,,,,,,,0,,,74,0
12300,control_change,0,0,3,,,,,,,,,2,64,127,,
12300,note_on,60,0,4,,,,,,,,,3,,,46,0
12300,note_on,0,0,1,,,,,,,,,0,,,70,75
12306,note_on,0,0,3,,,,,,,,,2,,,48,0
12306,note_on,0,0,3,,,,,,,,,2,,,53,0
12306,note_on,6,0,3,,,,,,,,,2,,,57,0
12330,note_on,0,0,1,,,,,,,,,0,,,69,75
12330,note_on,30,0,1,,,,,,,,,0,,,70,0
12360,note_on,54,0,3,,,,,,,,,2,,,48,78
12360,note_on,0,0,3,,,,,,,,,2,,,53,83
12360,note_on,0,0,3,,,,,,,,,2,,,57,88
12360,note_on,0,0,2,,,,,,,,,1,,,65,88
12360,note_on,60,0,2,,,,,,,,,1,,,65,0
12360,note_on,0,0,2,,,,,,,,,1,,,63,0
12360,note_on,0,0,2,,,,,,,,,1,,,63,80
12360,note_on,0,0,1,,,,,,,,,0,,,69,101
12360,note_on,30,0,1,,,,,,,,,0,,,69,0
12480,note_on,0,0,3,,,,,,,,,2,,,53,0
12480,note_on,120,0,1,,,,,,,,,0,,,69,0
12480,note_on,120,0,2,,,,,,,,,1,,,65,0
12480,note_on,0,0,2,,,,,,,,,1,,,63,0
12480,control_change,0,0,2,,,,,,,,,1,64,0,,
12480,note_on,0,0,2,,,,,,,,,1,,,65,62
12480,note_on,180,0,4,,,,,,,,,3,,,50,36
12480,control_change,0,0,1,,,,,,,,,0,64,0,,
12480,note_on,0,0,3,,,,,,,,,2,,,48,0
12480,note_on,120,0,3,,,,,,,,,2,,,57,0
12480,note_on,0,0,1,,,,,,,,,0,,,70,75
12480,control_change,0,0,3,,,,,,,,,2,64,0,,
12480,note_on,0,0,3,,,,,,,,,2,,,53,62
12480,note_on,0,0,3,,,,,,,,,2,,,58,62
12500,note_on,0,0,1,,,,,,,,,0,,,72,75
12500,note_on,20,0,1,,,,,,,,,0,,,70,0
12519,note_on,19,0,1,,,,,,,,,0,,,70,75
12520,note_on,1,0,1,,,,,,,,,0,,,72,0
12539,note_on,19,0,1,,,,,,,,,0,,,70,0
12540,note_on,1,0,1,,,,,,,,,0,,,69,75
12560,note_on,0,0,1,,,,,,,,,0,,,70,75
12560,note_on,20,0,1,,,,,,,,,0,,,69,0
12570,note_on,0,0,4,,,,,,,,,3,,,48,36
12570,note_on,90,0,4,,,,,,,,,3,,,50,0
12579,note_on,19,0,1,,,,,,,,,0,,,72,75
12580,note_on,1,0,1,,,,,,,,,0,,,70,0
12599,note_on,19,0,1,,,,,,,,,0,,,72,0
12600,note_on,1,0,1,,,,,,,,,0,,,74,75
12600,note_on,0,0,4,,,,,,,,,3,,,46,36
12600,note_on,30,0,4,,,,,,,,,3,,,48,0
12645,note_on,165,0,3,,,,,,,,,2,,,74,62
12645,note_on,45,0,1,,,,,,,,,0,,,86,75
12660,control_change,0,0,1,,,,,,,,,0,64,127,,
12660,note_on,15,0,3,,,,,,,,,2,,,74,0
12660,note_on,0,0,3,,,,,,,,,2,,,58,0
12660,note_on,0,0,3,,,,,,,,,2,,,53,0
12660,control_change,0,0,3,,,,,,,,,2,64,127,,
12660,note_on,0,0,1,,,,,,,,,0,,,74,0
12660,note_on,0,0,1,,,,,,,,,0,,,89,114
12660,note_on,15,0,1,,,,,,,,,0,,,86,0
12660,note_on,0,0,3,,,,,,,,,2,,,77,101
12660,note_on,60,0,4,,,,,,,,,3,,,46,0
12660,note_on,180,0,2,,,,,,,,,1,,,65,0
12900,note_on,0,0,3,,,,,,,,,2,,,74,49
12900,note_on,0,0,1,,,,,,,,,0,,,86,62
12900,note_on,240,0,1,,,,,,,,,0,,,89,0
12900,note_on,240,0,3,,,,,,,,,2,,,77,0
12960,note_on,60,0,1,,,,,,,,,0,,,86,0
12960,note_on,0,0,1,,,,,,,,,0,,,82,62
12960,note_on,60,0,3,,,,,,,,,2,,,74,0
12960,note_on,0,0,3,,,,,,,,,2,,,70,49
13020,note_on,60,0,1,,,,,,,,,0,,,82,0
13020,note_on,0,0,1,,,,,,,,,0,,,77,62
13020,note_on,0,0,3,,,,,,,,,2,,,65,49
13020,note_on,60,0,3,,,,,,,,,2,,,70,0
13080,note_on,0,0,3,,,,,,,,,2,,,62,49
13080,note_on,60,0,3,,,,,,,,,2,,,65,0
13080,note_on,0,0,1,,,,,,,,,0,,,74,62
13080,note_on,60,0,1,,,,,,,,,0,,,77,0
13140,note_on,60,0,1,,,,,,,,,0,,,74,0
13140,note_on,0,0,3,,,,,,,,,2,,,58,49
13140,note_on,60,0,3,,,,,,,,,2,,,62,0
13140,note_on,0,0,1,,,,,,,,,0,,,70,62
13200,control_change,0,0,1,,,,,,,,,0,64,0,,
13200,note_on,60,0,1,,,,,,,,,0,,,70,0
13200,note_on,0,0,3,,,,,,,,,2,,,55,49
13200,control_change,0,0,3,,,,,,,,,2,64,0,,
13200,note_on,60,0,3,,,,,,,,,2,,,58,0
13200,note_on,0,0,1,,,,,,,,,0,,,67,62
13260,note_on,60,0,1,,,,,,,,,0,,,67,0
13260,note_on,0,0,1,,,,,,,,,0,,,73,62
13260,note_on,0,0,3,,,,,,,,,2,,,61,49
13260,note_on,60,0,3,,,,,,,,,2,,,55,0
13320,note_on,0,0,1,,,,,,,,,0,,,74,62
13320,note_on,60,0,3,,,,,,,,,2,,,61,0
13320,note_on,0,0,3,,,,,,,,,2,,,62,49
13320,note_on,60,0,1,,,,,,,,,0,,,73,0
13365,note_on,45,0,1,,,,,,,,,0,,,67,62
13380,note_on,720,0,4,,,,,,,,,3,,,48,36
13380,note_on,60,0,3,,,,,,,,,2,,,62,0
13380,note_on,0,0,3,,,,,,,,,2,,,57,49
13380,note_on,720,0,2,,,,,,,,,1,,,60,62
13380,note_on,15,0,1,,,,,,,,,0,,,67,0
13380,note_on,0,0,1,,,,,,,,,0,,,74,0
13380,note_on,0,0,1,,,,,,,,,0,,,65,62
13380,control_change,0,0,1,,,,,,,,,0,64,127,,
13470,note_on,90,0,1,,,,,,,,,0,,,65,0
13470,note_on,0,0,1,,,,,,,,,0,,,64,62
13500,note_on,30,0,1,,,,,,,,,0,,,64,0
13500,note_on,0,0,1,,,,,,,,,0,,,65,62
13560,note_on,180,0,3,,,,,,,,,2,,,57,0
13560,note_on,0,0,3,,,,,,,,,2,,,58,49
13560,note_on,0,0,1,,,,,,,,,0,,,69,62
13560,note_on,180,0,2,,,,,,,,,1,,,60,0
13560,control_change,0,0,1,,,,,,,,,0,64,0,,
13560,note_on,0,0,2,,,,,,,,,1,,,64,62
13560,note_on,60,0,1,,,,,,,,,0,,,65,0
13680,note_on,120,0,1,,,,,,,,,0,,,69,0
13680,note_on,0,0,1,,,,,,,,,0,,,67,62
13740,note_on,180,0,2,,,,,,,,,1,,,64,0
13740,note_on,360,0,4,,,,,,,,,3,,,48,0
13740,control_change,0,0,4,,,,,,,,,3,64,127,,
13740,note_on,180,0,3,,,,,,,,,2,,,58,0
13740,control_change,0,0,3,,,,,,,,,2,64,127,,
13740,note_on,0,0,3,,,,,,,,,2,,,65,62
13740,note_on,0,0,1,,,,,,,,,0,,,65,62
13740,control_change,0,0,1,,,,,,,,,0,64,127,,
13740,note_on,60,0,1,,,,,,,,,0,,,67,0
13740,note_on,0,0,4,,,,,,,,,3,,,53,36
13740,note_on,0,0,3,,,,,,,,,2,,,57,62
13746,note_on,6,0,4,,,,,,,,,3,,,53,0
13770,note_on,30,0,1,,,,,,,,,0,,,65,0
13770,note_on,0,0,1,,,,,,,,,0,,,77,62
13800,note_on,30,0,1,,,,,,,,,0,,,77,0
13800,note_on,0,0,1,,,,,,,,,0,,,77,62
13800,note_on,0,0,1,,,,,,,,,0,,,65,62
13800,note_on,54,0,4,,,,,,,,,3,,,53,36
13806,note_on,6,0,4,,,,,,,,,3,,,53,0
13860,note_on,0,0,3,,,,,,,,,2,,,60,62
13860,note_on,0,0,3,,,,,,,,,2,,,57,0
13860,note_on,120,0,3,,,,,,,,,2,,,65,0
13860,note_on,54,0,4,,,,,,,,,3,,,53,36
13866,note_on,6,0,4,,,,,,,,,3,,,53,0
13920,note_on,0,0,1,,,,,,,,,0,,,65,0
13920,note_on,0,0,1,,,,,,,,,0,,,69,62
13920,note_on,120,0,1,,,,,,,,,0,,,77,0
13920,note_on,54,0,4,,,,,,,,,3,,,53,36
13920,note_on,60,0,3,,,,,,,,,2,,,60,0
13920,note_on,0,0,3,,,,,,,,,2,,,61,62
13926,note_on,6,0,4,,,,,,,,,3,,,53,0
13950,note_on,30,0,1,,,,,,,,,0,,,69,0
13950,note_on,0,0,1,,,,,,,,,0,,,81,62
13980,note_on,30,0,1,,,,,,,,,0,,,81,0
13980,note_on,54,0,4,,,,,,,,,3,,,53,36
13980,control_change,0,0,1,,,,,,,,,0,64,0,,
13980,note_on,0,0,1,,,,,,,,,0,,,69,62
13980,note_on,0,0,1,,,,,,,,,0,,,81,62
13986,note_on,6,0,4,,,,,,,,,3,,,53,0
14040,note_on,120,0,3,,,,,,,,,2,,,61,0
14040,note_on,0,0,4,,,,,,,,,3,,,53,36
14040,control_change,54,0,4,,,,,,,,,3,64,0,,
14040,control_change,0,0,3,,,,,,,,,2,64,0,,
14040,note_on,0,0,3,,,,,,,,,2,,,60,62
14046,note_on,6,0,4,,,,,,,,,3,,,53,0
14100,control_change,0,0,3,,,,,,,,,2,64,127,,
14100,note_on,0,0,3,,,,,,,,,2,,,58,62
14100,note_on,60,0,3,,,,,,,,,2,,,60,0
14100,note_on,0,0,3,,,,,,,,,2,,,64,62
14100,note_on,0,0,1,,,,,,,,,0,,,67,62
14100,control_change,0,0,1,,,,,,,,,0,64,127,,
14100,note_on,0,0,1,,,,,,,,,0,,,69,0
14100,note_on,120,0,1,,,,,,,,,0,,,81,0
14100,note_on,0,0,4,,,,,,,,,3,,,53,36
14100,control_change,54,0,4,,,,,,,,,3,64,127,,
14106,note_on,6,0,4,,,,,,,,,3,,,53,0
14130,note_on,0,0,1,,,,,,,,,0,,,79,62
14130,note_on,30,0,1,,,,,,,,,0,,,67,0
14160,note_on,54,0,4,,,,,,,,,3,,,53,36
14160,note_on,30,0,1,,,,,,,,,0,,,79,0
14160,note_on,0,0,1,,,,,,,,,0,,,67,62
14160,note_on,0,0,1,,,,,,,,,0,,,79,62
14166,note_on,6,0,4,,,,,,,,,3,,,53,0
14220,note_on,0,0,3,,,,,,,,,2,,,61,62
14220,note_on,0,0,3,,,,,,,,,2,,,58,0
14220,note_on,120,0,3,,,,,,,,,2,,,64,0
14220,note_on,54,0,4,,,,,,,,,3,,,53,36
14226,note_on,6,0,4,,,,,,,,,3,,,53,0
14280,note_on,0,0,1,,,,,,,,,0,,,67,0
14280,note_on,0,0,3,,,,,,,,,2,,,60,62
14280,note_on,60,0,3,,,,,,,,,2,,,61,0
14280,note_on,120,0,1,,,,,,,,,0,,,79,0
14280,note_on,54,0,4,,,,,,,,,3,,,53,36
14280,note_on,0,0,1,,,,,,,,,0,,,72,62
14286,note_on,6,0,4,,,,,,,,,3,,,53,0
14310,note_on,0,0,1,,,,,,,,,0,,,84,62
14310,note_on,30,0,1,,,,,,,,,0,,,72,0
14340,note_on,0,0,1,,,,,,,,,0,,,84,62
14340,note_on,54,0,4,,,,,,,,,3,,,53,36
14340,note_on,30,0,1,,,,,,,,,0,,,84,0
14340,control_change,0,0,1,,,,,,,,,0,64,0,,
14340,note_on,0,0,1,,,,,,,,,0,,,72,62
14346,note_on,6,0,4,,,,,,,,,3,,,53,0
14400,control_change,54,0,4,,,,,,,,,3,64,0,,
14400,note_on,0,0,4,,,,,,,,,3,,,53,36
14400,note_on,120,0,3,,,,,,,,,2,,,60,0
14400,control_change,0,0,3,,,,,,,,,2,64,0,,
14400,note_on,0,0,3,,,,,,,,,2,,,58,62
14406,note_on,6,0,4,,,,,,,,,3,,,53,0
14460,control_change,0,0,3,,,,,,,,,2,64,127,,
14460,note_on,0,0,4,,,,,,,,,3,,,53,36
14460,control_change,54,0,4,,,,,,,,,3,64,127,,
14460,note_on,60,0,3,,,,,,,,,2,,,58,0
14460,note_on,0,0,3,,,,,,,,,2,,,65,62
14460,note_on,0,0,3,,,,,,,,,2,,,57,62
14460,control_change,0,0,1,,,,,,,,,0,64,127,,
14460,note_on,0,0,1,,,,,,,,,0,,,65,62
14460,note_on,0,0,1,,,,,,,,,0,,,72,0
14460,note_on,120,0,1,,,,,,,,,0,,,84,0
14466,note_on,6,0,4,,,,,,,,,3,,,53,0
14490,note_on,0,0,1,,,,,,,,,0,,,77,62
14490,note_on,30,0,1,,,,,,,,,0,,,65,0
14520,note_on,30,0,1,,,,,,,,,0,,,77,0
14520,note_on,0,0,1,,,,,,,,,0,,,77,62
14520,note_on,54,0,4,,,,,,,,,3,,,53,36
14520,note_on,0,0,1,,,,,,,,,0,,,65,62
14526,note_on,6,0,4,,,,,,,,,3,,,53,0
14580,note_on,120,0,3,,,,,,,,,2,,,65,0
14580,note_on,0,0,3,,,,,,,,,2,,,60,62
14580,note_on,0,0,3,,,,,,,,,2,,,57,0
14580,note_on,54,0,4,,,,,,,,,3,,,53,36
14586,note_on,6,0,4,,,,,,,,,3,,,53,0
14640,note_on,0,0,3,,,,,,,,,2,,,61,62
14640,note_on,120,0,1,,,,,,,,,0,,,77,0
14640,note_on,0,0,1,,,,,,,,,0,,,65,0
14640,note_on,0,0,1,,,,,,,,,0,,,69,62
14640,note_on,60,0,3,,,,,,,,,2,,,60,0
14640,note_on,54,0,4,,,,,,,,,3,,,53,36
14646,note_on,6,0,4,,,,,,,,,3,,,53,0
14670,note_on,0,0,1,,,,,,,,,0,,,81,62
14670,note_on,30,0,1,,,,,,,,,0,,,69,0
14700,note_on,54,0,4,,,,,,,,,3,,,53,36
14700,note_on,0,0,1,,,,,,,,,0,,,81,62
14700,note_on,0,0,1,,,,,,,,,0,,,69,62
14700,control_change,0,0,1,,,,,,,,,0,64,0,,
14700,note_on,30,0,1,,,,,,,,,0,,,81,0
14706,note_on,6,0,4,,,,,,,,,3,,,53,0
14760,control_change,54,0,4,,,,,,,,,3,64,0,,
14760,note_on,0,0,4,,,,,,,,,3,,,53,36
14760,control_change,0,0,3,,,,,,,,,2,64,0,,
14760,note_on,0,0,3,,,,,,,,,2,,,60,62
14760,note_on,120,0,3,,,,,,,,,2,,,61,0
14766,note_on,6,0,4,,,,,,,,,3,,,53,0
14820,control_change,54,0,4,,,,,,,,,3,64,127,,
14820,note_on,0,0,4,,,,,,,,,3,,,53,36
14820,note_on,0,0,3,,,,,,,,,2,,,58,62
14820,note_on,60,0,3,,,,,,,,,2,,,60,0
14820,control_change,0,0,3,,,,,,,,,2,64,127,,
14820,control_change,0,0,1,,,,,,,,,0,64,127,,
14820,note_on,0,0,1,,,,,,,,,0,,,67,62
14820,note_on,0,0,1,,,,,,,,,0,,,69,0
14820,note_on,120,0,1,,,,,,,,,0,,,81,0
14820,note_on,0,0,3,,,,,,,,,2,,,64,62
14826,note_on,6,0,4,,,,,,,,,3,,,53,0
14850,note_on,0,0,1,,,,,,,,,0,,,79,62
14850,note_on,30,0,1,,,,,,,,,0,,,67,0
14880,note_on,54,0,4,,,,,,,,,3,,,53,36
14880,note_on,0,0,1,,,,,,,,,0,,,79,62
14880,note_on,30,0,1,,,,,,,,,0,,,79,0
14880,note_on,0,0,1,,,,,,,,,0,,,67,62
14886,note_on,6,0,4,,,,,,,,,3,,,53,0
14940,note_on,0,0,3,,,,,,,,,2,,,58,0
14940,note_on,120,0,3,,,,,,,,,2,,,64,0
14940,note_on,0,0,3,,,,,,,,,2,,,61,62
14940,note_on,54,0,4,,,,,,,,,3,,,53,36
14946,note_on,6,0,4,,,,,,,,,3,,,53,0
15000,note_on,60,0,3,,,,,,,,,2,,,61,0
15000,note_on,54,0,4,,,,,,,,,3,,,53,36
15000,note_on,0,0,1,,,,,,,,,0,,,67,0
15000,note_on,0,0,1,,,,,,,,,0,,,72,62
15000,note_on,120,0,1,,,,,,,,,0,,,79,0
15000,note_on,0,0,3,,,,,,,,,2,,,60,62
15006,note_on,6,0,4,,,,,,,,,3,,,53,0
15030,note_on,30,0,1,,,,,,,,,0,,,72,0
15030,note_on,0,0,1,,,,,,,,,0,,,84,62
15060,note_on,30,0,1,,,,,,,,,0,,,84,0
15060,note_on,0,0,1,,,,,,,,,0,,,72,62
15060,note_on,54,0,4,,,,,,,,,3,,,53,36
15060,note_on,0,0,1,,,,,,,,,0,,,84,62
15066,note_on,6,0,4,,,,,,,,,3,,,53,0
15120,note_on,0,0,3,,,,,,,,,2,,,58,62
15120,note_on,0,0,4,,,,,,,,,3,,,53,36
15120,note_on,120,0,3,,,,,,,,,2,,,60,0
15120,control_change,54,0,4,,,,,,,,,3,64,0,,
15126,note_on,6,0,4,,,,,,,,,3,,,53,0
15180,note_on,0,0,3,,,,,,,,,2,,,53,62
15180,note_on,120,0,1,,,,,,,,,0,,,84,0
15180,note_on,0,0,1,,,,,,,,,0,,,72,0
15180,note_on,0,0,1,,,,,,,,,0,,,65,62
15180,note_on,0,0,3,,,,,,,,,2,,,57,62
15180,control_change,0,0,3,,,,,,,,,2,64,0,,
15180,note_on,60,0,3,,,,,,,,,2,,,58,0
15180,note_on,0,0,1,,,,,,,,,0,,,77,62
15180,control_change,0,0,1,,,,,,,,,0,64,0,,
15240,note_on,0,0,3,,,,,,,,,2,,,53,0
15240,note_on,60,0,3,,,,,,,,,2,,,57,0
15240,note_on,0,0,3,,,,,,,,,2,,,64,36
15240,note_on,0,0,1,,,,,,,,,0,,,76,36
15240,note_on,0,0,1,,,,,,,,,0,,,65,0
15240,note_on,60,0,1,,,,,,,,,0,,,77,0
15300,note_on,60,0,3,,,,,,,,,2,,,64,0
15300,note_on,0,0,3,,,,,,,,,2,,,65,36
15300,note_on,60,0,1,,,,,,,,,0,,,76,0
15300,note_on,0,0,1,,,,,,,,,0,,,77,36
15360,note_on,0,0,3,,,,,,,,,2,,,60,36
15360,note_on,60,0,3,,,,,,,,,2,,,65,0
15360,control_change,0,0,3,,,,,,,,,2,64,127,,
15360,control_change,0,0,1,,,,,,,,,0,64,127,,
15360,note_on,0,0,1,,,,,,,,,0,,,72,36
15360,note_on,60,0,1,,,,,,,,,0,,,77,0
15420,note_on,60,0,1,,,,,,,,,0,,,72,0
15420,note_on,0,0,1,,,,,,,,,0,,,69,36
15420,note_on,0,0,3,,,,,,,,,2,,,57,36
15420,note_on,60,0,3,,,,,,,,,2,,,60,0
15480,note_on,60,0,1,,,,,,,,,0,,,69,0
15480,control_change,0,0,1,,,,,,,,,0,64,0,,
15480,note_on,0,0,1,,,,,,,,,0,,,65,36
15480,control_change,0,0,3,,,,,,,,,2,64,0,,
15480,note_on,60,0,3,,,,,,,,,2,,,57,0
15480,note_on,0,0,3,,,,,,,,,2,,,53,36
15540,note_on,0,0,3,,,,,,,,,2,,,46,36
15540,note_on,0,0,3,,,,,,,,,2,,,54,36
15540,note_on,1800,0,2,,,,,,,,,1,,,61,36
15540,note_on,60,0,3,,,,,,,,,2,,,53,0
15540,note_on,60,0,1,,,,,,,,,0,,,65,0
15540,control_change,0,0,1,,,,,,,,,0,64,127,,
15540,note_on,0,0,1,,,,,,,,,0,,,68,49
15546,note_on,6,0,3,,,,,,,,,2,,,54,0
15546,note_on,0,0,3,,,,,,,,,2,,,46,0
15570,note_on,30,0,1,,,,,,,,,0,,,68,0
15570,note_on,0,0,1,,,,,,,,,0,,,66,49
15600,control_change,0,0,1,,,,,,,,,0,64,0,,
15600,note_on,0,0,2,,,,,,,,,1,,,61,62
15600,note_on,0,0,1,,,,,,,,,0,,,66,75
15600,note_on,0,0,3,,,,,,,,,2,,,54,36
15600,note_on,54,0,3,,,,,,,,,2,,,46,36
15600,note_on,30,0,1,,,,,,,,,0,,,66,0
15600,note_on,60,0,2,,,,,,,,,1,,,61,0
15720,note_on,120,0,3,,,,,,,,,2,,,54,0
15720,note_on,0,0,3,,,,,,,,,2,,,46,0
15720,note_on,0,0,3,,,,,,,,,2,,,46,36
15720,note_on,0,0,3,,,,,,,,,2,,,54,36
15720,control_change,0,0,1,,,,,,,,,0,64,127,,
15720,note_on,0,0,2,,,,,,,,,1,,,61,36
15720,note_on,120,0,2,,,,,,,,,1,,,61,0
15720,note_on,120,0,1,,,,,,,,,0,,,66,0
15720,note_on,0,0,1,,,,,,,,,0,,,68,49
15726,note_on,6,0,3,,,,,,,,,2,,,54,0
15726,note_on,0,0,3,,,,,,,,,2,,,46,0
15750,note_on,30,0,1,,,,,,,,,0,,,68,0
15750,note_on,0,0,1,,,,,,,,,0,,,66,49
15780,note_on,30,0,1,,,,,,,,,0,,,66,0
15780,note_on,60,0,2,,,,,,,,,1,,,61,0
15780,note_on,0,0,2,,,,,,,,,1,,,61,62
15780,note_on,54,0,3,,,,,,,,,2,,,46,36
15780,note_on,0,0,3,,,,,,,,,2,,,54,36
15780,note_on,0,0,1,,,,,,,,,0,,,66,75
15780,control_change,0,0,1,,,,,,,,,0,64,0,,
15900,note_on,120,0,3,,,,,,,,,2,,,54,0
15900,note_on,0,0,1,,,,,,,,,0,,,70,62
15900,control_change,0,0,1,,,,,,,,,0,64,127,,
15900,note_on,120,0,1,,,,,,,,,0,,,66,0
15900,note_on,0,0,3,,,,,,,,,2,,,46,0
15900,note_on,0,0,3,,,,,,,,,2,,,57,49
15900,note_on,0,0,2,,,,,,,,,1,,,66,49
15900,note_on,0,0,2,,,,,,,,,1,,,63,49
15900,note_on,120,0,2,,,,,,,,,1,,,61,0
15900,note_on,0,0,3,,,,,,,,,2,,,48,49
15900,note_on,0,0,3,,,,,,,,,2,,,54,49
15906,note_on,0,0,3,,,,,,,,,2,,,48,0
15906,note_on,0,0,3,,,,,,,,,2,,,54,0
15906,note_on,6,0,3,,,,,,,,,2,,,57,0
15930,note_on,30,0,1,,,,,,,,,0,,,70,0
15930,note_on,0,0,1,,,,,,,,,0,,,69,62
15960,note_on,0,0,3,,,,,,,,,2,,,57,49
15960,note_on,0,0,3,,,,,,,,,2,,,54,49
15960,note_on,54,0,3,,,,,,,,,2,,,48,49
15960,note_on,30,0,1,,,,,,,,,0,,,69,0
15960,note_on,0,0,1,,,,,,,,,0,,,69,88
15960,control_change,0,0,1,,,,,,,,,0,64,0,,
15960,note_on,60,0,2,,,,,,,,,1,,,66,0
15960,note_on,0,0,2,,,,,,,,,1,,,63,0
15960,note_on,0,0,2,,,,,,,,,1,,,63,67
15960,note_on,0,0,2,,,,,,,,,1,,,66,75
16080,note_on,120,0,2,,,,,,,,,1,,,66,0
16080,note_on,120,0,3,,,,,,,,,2,,,57,0
16080,note_on,0,0,3,,,,,,,,,2,,,54,0
16080,note_on,0,0,3,,,,,,,,,2,,,48,0
16080,note_on,0,0,3,,,,,,,,,2,,,48,49
16080,note_on,0,0,3,,,,,,,,,2,,,54,49
16080,note_on,0,0,3,,,,,,,,,2,,,57,49
16080,note_on,0,0,2,,,,,,,,,1,,,63,0
16080,note_on,0,0,2,,,,,,,,,1,,,63,49
16080,note_on,0,0,1,,,,,,,,,0,,,70,62
16080,control_change,0,0,1,,,,,,,,,0,64,127,,
16080,note_on,120,0,1,,,,,,,,,0,,,69,0
16080,note_on,0,0,2,,,,,,,,,1,,,66,49
16086,note_on,6,0,3,,,,,,,,,2,,,57,0
16086,note_on,0,0,3,,,,,,,,,2,,,54,0
16086,note_on,0,0,3,,,,,,,,,2,,,48,0
16110,note_on,0,0,1,,,,,,,,,0,,,69,62
16110,note_on,30,0,1,,,,,,,,,0,,,70,0
16140,note_on,30,0,1,,,,,,,,,0,,,69,0
16140,note_on,60,0,2,,,,,,,,,1,,,66,0
16140,note_on,0,0,2,,,,,,,,,1,,,63,0
16140,note_on,0,0,2,,,,,,,,,1,,,63,67
16140,note_on,0,0,2,,,,,,,,,1,,,66,75
16140,note_on,0,0,1,,,,,,,,,0,,,69,88
16140,control_change,0,0,1,,,,,,,,,0,64,0,,
16140,note_on,0,0,3,,,,,,,,,2,,,57,49
16140,note_on,0,0,3,,,,,,,,,2,,,54,49
16140,note_on,54,0,3,,,,,,,,,2,,,48,49
16260,note_on,0,0,3,,,,,,,,,2,,,58,75
16260,note_on,0,0,2,,,,,,,,,1,,,63,0
16260,note_on,120,0,2,,,,,,,,,1,,,66,0
16260,note_on,0,0,3,,,,,,,,,2,,,49,75
16260,note_on,0,0,3,,,,,,,,,2,,,48,0
16260,note_on,0,0,3,,,,,,,,,2,,,54,0
16260,note_on,120,0,3,,,,,,,,,2,,,57,0
16260,note_on,0,0,2,,,,,,,,,1,,,66,75
16260,note_on,0,0,2,,,,,,,,,1,,,61,75
16260,note_on,0,0,3,,,,,,,,,2,,,54,75
16260,note_on,120,0,1,,,,,,,,,0,,,69,0
16260,control_change,0,0,1,,,,,,,,,0,64,127,,
16260,note_on,0,0,1,,,,,,,,,0,,,71,88
16266,note_on,0,0,3,,,,,,,,,2,,,49,0
16266,note_on,0,0,3,,,,,,,,,2,,,54,0
16266,note_on,6,0,3,,,,,,,,,2,,,58,0
16290,note_on,30,0,1,,,,,,,,,0,,,71,0
16290,note_on,0,0,1,,,,,,,,,0,,,70,88
16320,note_on,0,0,3,,,,,,,,,2,,,58,75
16320,note_on,0,0,2,,,,,,,,,1,,,61,93
16320,note_on,0,0,2,,,,,,,,,1,,,66,101
16320,note_on,0,0,2,,,,,,,,,1,,,61,0
16320,note_on,0,0,3,,,,,,,,,2,,,54,75
16320,note_on,54,0,3,,,,,,,,,2,,,49,75
16320,note_on,60,0,2,,,,,,,,,1,,,66,0
16320,note_on,0,0,1,,,,,,,,,0,,,70,114
16320,note_on,30,0,1,,,,,,,,,0,,,70,0
16320,control_change,0,0,1,,,,,,,,,0,64,0,,
16440,note_on,0,0,3,,,,,,,,,2,,,49,75
16440,note_on,0,0,1,,,,,,,,,0,,,75,88
16440,note_on,0,0,3,,,,,,,,,2,,,49,0
16440,note_on,0,0,3,,,,,,,,,2,,,54,0
16440,note_on,120,0,3,,,,,,,,,2,,,58,0
16440,note_on,0,0,3,,,,,,,,,2,,,59,75
16440,note_on,0,0,3,,,,,,,,,2,,,56,75
16440,control_change,0,0,1,,,,,,,,,0,64,127,,
16440,note_on,0,0,2,,,,,,,,,1,,,68,75
16440,note_on,0,0,2,,,,,,,,,1,,,65,75
16440,note_on,0,0,2,,,,,,,,,1,,,61,0
16440,note_on,120,0,2,,,,,,,,,1,,,66,0
16440,note_on,120,0,1,,,,,,,,,0,,,70,0
16446,note_on,0,0,3,,,,,,,,,2,,,49,0
16446,note_on,0,0,3,,,,,,,,,2,,,56,0
16446,note_on,6,0,3,,,,,,,,,2,,,59,0
16470,note_on,30,0,1,,,,,,,,,0,,,75,0
16470,note_on,0,0,1,,,,,,,,,0,,,73,88
16500,note_on,0,0,3,,,,,,,,,2,,,56,75
16500,note_on,0,0,3,,,,,,,,,2,,,59,75
16500,note_on,0,0,2,,,,,,,,,1,,,68,101
16500,note_on,0,0,2,,,,,,,,,1,,,65,93
16500,note_on,0,0,2,,,,,,,,,1,,,65,0
16500,note_on,60,0,2,,,,,,,,,1,,,68,0
16500,note_on,54,0,3,,,,,,,,,2,,,49,75
16500,note_on,30,0,1,,,,,,,,,0,,,73,0
16500,control_change,0,0,1,,,,,,,,,0,64,0,,
16500,note_on,0,0,1,,,,,,,,,0,,,73,114
16620,note_on,0,0,3,,,,,,,,,2,,,49,0
16620,note_on,0,0,2,,,,,,,,,1,,,73,75
16620,note_on,0,0,2,,,,,,,,,1,,,78,75
16620,note_on,120,0,1,,,,,,,,,0,,,73,0
16620,control_change,0,0,1,,,,,,,,,0,64,127,,
16620,note_on,0,0,1,,,,,,,,,0,,,83,88
16620,note_on,0,0,3,,,,,,,,,2,,,70,75
16620,note_on,0,0,3,,,,,,,,,2,,,66,75
16620,note_on,0,0,3,,,,,,,,,2,,,61,75
16620,note_on,0,0,2,,,,,,,,,1,,,65,0
16620,note_on,120,0,2,,,,,,,,,1,,,68,0
16620,note_on,0,0,3,,,,,,,,,2,,,56,0
16620,note_on,120,0,3,,,,,,,,,2,,,59,0
16626,note_on,6,0,3,,,,,,,,,2,,,70,0
16626,note_on,0,0,3,,,,,,,,,2,,,61,0
16626,note_on,0,0,3,,,,,,,,,2,,,66,0
16650,note_on,0,0,1,,,,,,,,,0,,,82,88
16650,note_on,30,0,1,,,,,,,,,0,,,83,0
16680,note_on,0,0,3,,,,,,,,,2,,,70,101
16680,control_change,0,0,1,,,,,,,,,0,64,0,,
16680,note_on,30,0,1,,,,,,,,,0,,,82,0
16680,note_on,0,0,3,,,,,,,,,2,,,66,96
16680,note_on,0,0,1,,,,,,,,,0,,,82,114
16680,note_on,54,0,3,,,,,,,,,2,,,61,91
16680,note_on,60,0,2,,,,,,,,,1,,,78,0
16680,note_on,0,0,2,,,,,,,,,1,,,73,0
16680,note_on,0,0,2,,,,,,,,,1,,,73,93
16680,note_on,0,0,2,,,,,,,,,1,,,78,101
16800,note_on,120,0,1,,,,,,,,,0,,,82,0
16800,note_on,120,0,2,,,,,,,,,1,,,78,0
16800,note_on,0,0,2,,,,,,,,,1,,,73,0
16800,note_on,0,0,2,,,,,,,,,1,,,77,75
16800,note_on,0,0,2,,,,,,,,,1,,,80,75
16800,note_on,0,0,1,,,,,,,,,0,,,87,88
16800,note_on,0,0,3,,,,,,,,,2,,,71,75
16800,note_on,0,0,3,,,,,,,,,2,,,68,75
16800,note_on,0,0,3,,,,,,,,,2,,,61,75
16800,control_change,0,0,3,,,,,,,,,2,64,127,,
16800,note_on,0,0,3,,,,,,,,,2,,,61,0
16800,note_on,0,0,3,,,,,,,,,2,,,66,0
16800,note_on,120,0,3,,,,,,,,,2,,,70,0
16800,control_change,0,0,1,,,,,,,,,0,64,127,,
16806,note_on,0,0,3,,,,,,,,,2,,,68,0
16806,note_on,0,0,3,,,,,,,,,2,,,61,0
16806,note_on,6,0,3,,,,,,,,,2,,,71,0
16830,note_on,30,0,1,,,,,,,,,0,,,87,0
16830,note_on,0,0,1,,,,,,,,,0,,,85,88
16860,note_on,60,0,2,,,,,,,,,1,,,80,0
16860,note_on,0,0,2,,,,,,,,,1,,,77,0
16860,note_on,0,0,2,,,,,,,,,1,,,80,101
16860,note_on,0,0,2,,,,,,,,,1,,,77,93
16860,note_on,0,0,1,,,,,,,,,0,,,85,114
16860,note_on,30,0,1,,,,,,,,,0,,,85,0
16860,note_on,54,0,3,,,,,,,,,2,,,61,91
16860,note_on,0,0,3,,,,,,,,,2,,,68,96
16860,note_on,0,0,3,,,,,,,,,2,,,71,101
17040,note_on,0,0,2,,,,,,,,,1,,,77,0
17040,note_on,0,0,1,,,,,,,,,0,,,85,88
17040,note_on,0,0,1,,,,,,,,,0,,,80,88
17040,note_on,0,0,1,,,,,,,,,0,,,77,88
17040,note_on,180,0,1,,,,,,,,,0,,,85,0
17040,note_on,180,0,2,,,,,,,,,1,,,80,0
17040,note_on,0,0,3,,,,,,,,,2,,,68,0
17040,note_on,0,0,3,,,,,,,,,2,,,61,0
17040,note_on,0,0,3,,,,,,,,,2,,,61,75
17040,note_on,0,0,3,,,,,,,,,2,,,68,75
17040,note_on,0,0,3,,,,,,,,,2,,,71,75
17040,note_on,180,0,3,,,,,,,,,2,,,71,0
17100,note_on,0,0,3,,,,,,,,,2,,,61,75
17100,note_on,0,0,1,,,,,,,,,0,,,85,88
17100,note_on,0,0,1,,,,,,,,,0,,,80,88
17100,note_on,0,0,1,,,,,,,,,0,,,77,88
17100,note_on,0,0,1,,,,,,,,,0,,,77,0
17100,note_on,0,0,3,,,,,,,,,2,,,61,0
17100,note_on,60,0,1,,,,,,,,,0,,,85,0
17100,note_on,0,0,3,,,,,,,,,2,,,68,0
17100,note_on,60,0,3,,,,,,,,,2,,,71,0
17100,note_on,0,0,3,,,,,,,,,2,,,68,75
17100,note_on,0,0,1,,,,,,,,,0,,,80,0
17100,note_on,0,0,3,,,,,,,,,2,,,71,75
17160,note_on,60,0,3,,,,,,,,,2,,,71,0
17160,note_on,0,0,1,,,,,,,,,0,,,77,0
17160,note_on,0,0,1,,,,,,,,,0,,,85,101
17160,note_on,0,0,1,,,,,,,,,0,,,80,101
17160,note_on,0,0,1,,,,,,,,,0,,,77,101
17160,note_on,0,0,1,,,,,,,,,0,,,80,0
17160,note_on,60,0,1,,,,,,,,,0,,,85,0
17160,note_on,0,0,3,,,,,,,,,2,,,68,0
17160,note_on,0,0,3,,,,,,,,,2,,,61,0
17160,note_on,0,0,3,,,,,,,,,2,,,68,88
17160,note_on,0,0,3,,,,,,,,,2,,,71,88
17160,note_on,0,0,3,,,,,,,,,2,,,61,88
17220,note_on,0,0,1,,,,,,,,,0,,,80,0
17220,note_on,0,0,1,,,,,,,,,0,,,85,101
17220,note_on,0,0,1,,,,,,,,,0,,,77,0
17220,note_on,60,0,1,,,,,,,,,0,,,85,0
17220,note_on,60,0,3,,,,,,,,,2,,,71,0
17220,note_on,0,0,1,,,,,,,,,0,,,80,101
17220,note_on,0,0,3,,,,,,,,,2,,,61,0
17220,note_on,0,0,3,,,,,,,,,2,,,61,88
17220,note_on,0,0,3,,,,,,,,,2,,,68,88
17220,note_on,0,0,3,,,,,,,,,2,,,68,0
17220,note_on,0,0,3,,,,,,,,,2,,,71,88
17220,note_on,0,0,1,,,,,,,,,0,,,77,101
17280,note_on,60,0,3,,,,,,,,,2,,,71,0
17280,note_on,0,0,3,,,,,,,,,2,,,68,0
17280,note_on,0,0,3,,,,,,,,,2,,,61,0
17280,control_change,0,0,3,,,,,,,,,2,64,0,,
17280,note_on,0,0,3,,,,,,,,,2,,,61,88
17280,note_on,0,0,3,,,,,,,,,2,,,68,88
17280,control_change,0,0,1,,,,,,,,,0,64,0,,
17280,note_on,0,0,1,,,,,,,,,0,,,85,101
17280,note_on,0,0,1,,,,,,,,,0,,,80,101
17280,note_on,0,0,1,,,,,,,,,0,,,77,101
17280,note_on,0,0,1,,,,,,,,,0,,,77,0
17280,note_on,0,0,1,,,,,,,,,0,,,80,0
17280,note_on,60,0,1,,,,,,,,,0,,,85,0
17280,note_on,0,0,3,,,,,,,,,2,,,71,88
17340,note_on,60,0,3,,,,,,,,,2,,,71,0
17340,note_on,60,0,1,,,,,,,,,0,,,85,0
17340,note_on,0,0,1,,,,,,,,,0,,,80,0
17340,note_on,0,0,3,,,,,,,,,2,,,71,88
17340,note_on,0,0,1,,,,,,,,,0,,,83,101
17340,note_on,0,0,3,,,,,,,,,2,,,68,0
17340,note_on,0,0,1,,,,,,,,,0,,,89,101
17340,control_change,0,0,1,,,,,,,,,0,64,127,,
17340,note_on,0,0,3,,,,,,,,,2,,,65,88
17340,note_on,0,0,3,,,,,,,,,2,,,61,88
17340,note_on,0,0,1,,,,,,,,,0,,,77,0
17340,control_change,0,0,3,,,,,,,,,2,64,127,,
17340,note_on,0,0,3,,,,,,,,,2,,,61,0
17340,note_on,0,0,1,,,,,,,,,0,,,80,101
17400,note_on,0,0,1,,,,,,,,,0,,,79,101
17400,note_on,0,0,1,,,,,,,,,0,,,83,101
17400,note_on,0,0,1,,,,,,,,,0,,,89,101
17400,note_on,0,0,1,,,,,,,,,0,,,80,0
17400,note_on,0,0,3,,,,,,,,,2,,,67,88
17400,note_on,0,0,1,,,,,,,,,0,,,83,0
17400,note_on,60,0,3,,,,,,,,,2,,,71,0
17400,note_on,0,0,3,,,,,,,,,2,,,65,0
17400,note_on,0,0,3,,,,,,,,,2,,,61,0
17400,note_on,0,0,3,,,,,,,,,2,,,71,88
17400,note_on,0,0,3,,,,,,,,,2,,,61,88
17400,note_on,60,0,1,,,,,,,,,0,,,89,0
17460,note_on,0,0,1,,,,,,,,,0,,,89,101
17460,note_on,0,0,1,,,,,,,,,0,,,83,101
17460,note_on,0,0,1,,,,,,,,,0,,,77,101
17460,note_on,0,0,1,,,,,,,,,0,,,79,0
17460,note_on,0,0,1,,,,,,,,,0,,,83,0
17460,note_on,60,0,1,,,,,,,,,0,,,89,0
17460,note_on,0,0,3,,,,,,,,,2,,,68,88
17460,note_on,0,0,3,,,,,,,,,2,,,61,88
17460,note_on,0,0,3,,,,,,,,,2,,,61,0
17460,note_on,0,0,3,,,,,,,,,2,,,67,0
17460,note_on,60,0,3,,,,,,,,,2,,,71,0
17460,note_on,0,0,3,,,,,,,,,2,,,71,88
17520,note_on,0,0,3,,,,,,,,,2,,,61,0
17520,note_on,0,0,1,,,,,,,,,0,,,89,101
17520,note_on,0,0,1,,,,,,,,,0,,,83,101
17520,note_on,0,0,1,,,,,,,,,0,,,77,0
17520,note_on,0,0,1,,,,,,,,,0,,,83,0
17520,note_on,60,0,1,,,,,,,,,0,,,89,0
17520,note_on,60,0,3,,,,,,,,,2,,,71,0
17520,note_on,0,0,1,,,,,,,,,0,,,80,101
17520,note_on,0,0,3,,,,,,,,,2,,,61,88
17520,note_on,0,0,3,,,,,,,,,2,,,65,88
17520,note_on,0,0,3,,,,,,,,,2,,,71,88
17520,note_on,0,0,3,,,,,,,,,2,,,68,0
17580,note_on,60,0,3,,,,,,,,,2,,,71,0
17580,note_on,0,0,3,,,,,,,,,2,,,65,0
17580,note_on,0,0,1,,,,,,,,,0,,,89,101
17580,note_on,0,0,1,,,,,,,,,0,,,83,101
17580,note_on,0,0,1,,,,,,,,,0,,,79,101
17580,note_on,0,0,1,,,,,,,,,0,,,83,0
17580,note_on,60,0,1,,,,,,,,,0,,,89,0
17580,note_on,0,0,3,,,,,,,,,2,,,61,0
17580,note_on,0,0,3,,,,,,,,,2,,,61,88
17580,note_on,0,0,3,,,,,,,,,2,,,67,88
17580,note_on,0,0,3,,,,,,,,,2,,,71,88
17580,note_on,0,0,1,,,,,,,,,0,,,80,0
17640,note_on,0,0,3,,,,,,,,,2,,,68,88
17640,note_on,0,0,3,,,,,,,,,2,,,71,88
17640,control_change,0,0,3,,,,,,,,,2,64,0,,
17640,note_on,0,0,3,,,,,,,,,2,,,61,88
17640,note_on,0,0,3,,,,,,,,,2,,,61,0
17640,note_on,60,0,3,,,,,,,,,2,,,71,0
17640,note_on,0,0,3,,,,,,,,,2,,,67,0
17640,note_on,60,0,1,,,,,,,,,0,,,89,0
17640,note_on,0,0,1,,,,,,,,,0,,,83,0
17640,note_on,0,0,1,,,,,,,,,0,,,79,0
17640,note_on,0,0,1,,,,,,,,,0,,,77,101
17640,note_on,0,0,1,,,,,,,,,0,,,83,101
17640,note_on,0,0,1,,,,,,,,,0,,,89,101
17640,control_change,0,0,1,,,,,,,,,0,64,0,,
17700,note_on,60,0,1,,,,,,,,,0,,,89,0
17700,control_change,0,0,3,,,,,,,,,2,64,127,,
17700,note_on,0,0,3,,,,,,,,,2,,,60,101
17700,note_on,0,0,3,,,,,,,,,2,,,69,101
17700,note_on,0,0,3,,,,,,,,,2,,,61,0
17700,note_on,0,0,3,,,,,,,,,2,,,68,0
17700,note_on,60,0,3,,,,,,,,,2,,,71,0
17700,note_on,0,0,3,,,,,,,,,2,,,65,101
17700,note_on,0,0,3,,,,,,,,,2,,,72,101
17700,note_on,0,0,1,,,,,,,,,0,,,77,0
17700,note_on,0,0,1,,,,,,,,,0,,,83,0
17700,control_change,0,0,1,,,,,,,,,0,64,127,,
17700,note_on,0,0,1,,,,,,,,,0,,,89,114
17700,note_on,0,0,1,,,,,,,,,0,,,84,114
17700,note_on,0,0,1,,,,,,,,,0,,,81,114
17700,note_on,0,0,1,,,,,,,,,0,,,77,114
17940,note_on,0,0,3,,,,,,,,,2,,,60,0
17940,note_on,240,0,3,,,,,,,,,2,,,72,0
17940,note_on,0,0,3,,,,,,,,,2,,,72,36
17940,note_on,0,0,1,,,,,,,,,0,,,84,49
17940,note_on,0,0,1,,,,,,,,,0,,,84,0
17940,note_on,0,0,1,,,,,,,,,0,,,81,0
17940,note_on,0,0,1,,,,,,,,,0,,,77,0
17940,note_on,240,0,1,,,,,,,,,0,,,89,0
17940,note_on,0,0,3,,,,,,,,,2,,,65,0
17940,note_on,0,0,3,,,,,,,,,2,,,69,0
18000,note_on,60,0,3,,,,,,,,,2,,,72,0
18000,note_on,60,0,1,,,,,,,,,0,,,84,0
18000,note_on,0,0,1,,,,,,,,,0,,,81,49
18000,note_on,0,0,3,,,,,,,,,2,,,69,36
18060,note_on,0,0,1,,,,,,,,,0,,,77,49
18060,note_on,60,0,1,,,,,,,,,0,,,81,0
18060,note_on,0,0,3,,,,,,,,,2,,,65,36
18060,note_on,60,0,3,,,,,,,,,2,,,69,0
18120,note_on,0,0,1,,,,,,,,,0,,,72,49
18120,note_on,60,0,1,,,,,,,,,0,,,77,0
18120,note_on,0,0,3,,,,,,,,,2,,,60,36
18120,note_on,60,0,3,,,,,,,,,2,,,65,0
18180,note_on,60,0,3,,,,,,,,,2,,,60,0
18180,note_on,0,0,3,,,,,,,,,2,,,57,36
18180,note_on,0,0,1,,,,,,,,,0,,,69,49
18180,note_on,60,0,1,,,,,,,,,0,,,72,0
18240,note_on,0,0,3,,,,,,,,,2,,,53,36
18240,note_on,60,0,3,,,,,,,,,2,,,57,0
18240,note_on,0,0,1,,,,,,,,,0,,,65,49
18240,note_on,60,0,1,,,,,,,,,0,,,69,0
18300,note_on,0,0,3,,,,,,,,,2,,,50,36
18300,note_on,60,0,3,,,,,,,,,2,,,53,0
18300,note_on,0,0,1,,,,,,,,,0,,,62,49
18300,note_on,60,0,1,,,,,,,,,0,,,65,0
18360,note_on,60,0,1,,,,,,,,,0,,,62,0
18360,control_change,0,0,3,,,,,,,,,2,64,0,,
18360,control_change,0,0,1,,,,,,,,,0,64,0,,
18360,note_on,0,0,1,,,,,,,,,0,,,59,49
18360,note_on,60,0,3,,,,,,,,,2,,,50,0
18360,note_on,0,0,3,,,,,,,,,2,,,47,36
18405,note_on,45,0,1,,,,,,,,,0,,,67,49
18420,note_on,60,0,3,,,,,,,,,2,,,47,0
18420,note_on,0,0,3,,,,,,,,,2,,,57,36
18420,note_on,1380,0,2,,,,,,,,,1,,,60,75
18420,control_change,0,0,1,,,,,,,,,0,64,127,,
18420,note_on,3294,0,4,,,,,,,,,3,,,48,36
18420,note_on,15,0,1,,,,,,,,,0,,,67,0
18420,note_on,0,0,1,,,,,,,,,0,,,59,0
18420,note_on,0,0,1,,,,,,,,,0,,,65,49
18510,note_on,0,0,1,,,,,,,,,0,,,64,49
18510,note_on,90,0,1,,,,,,,,,0,,,65,0
18540,note_on,0,0,1,,,,,,,,,0,,,65,49
18540,note_on,30,0,1,,,,,,,,,0,,,64,0
18600,note_on,0,0,1,,,,,,,,,0,,,69,49
18600,note_on,0,0,3,,,,,,,,,2,,,58,36
18600,note_on,0,0,2,,,,,,,,,1,,,64,75
18600,note_on,180,0,2,,,,,,,,,1,,,60,0
18600,note_on,60,0,1,,,,,,,,,0,,,65,0
18600,note_on,180,0,3,,,,,,,,,2,,,57,0
18600,control_change,0,0,1,,,,,,,,,0,64,0,,
18720,note_on,0,0,1,,,,,,,,,0,,,67,49
18720,note_on,120,0,1,,,,,,,,,0,,,69,0
18780,note_on,0,0,1,,,,,,,,,0,,,53,49
18780,note_on,180,0,2,,,,,,,,,1,,,64,0
18780,note_on,180,0,3,,,,,,,,,2,,,58,0
18780,note_on,0,0,3,,,,,,,,,2,,,45,49
18780,note_on,0,0,1,,,,,,,,,0,,,65,49
18780,note_on,0,0,4,,,,,,,,,3,,,41,36
18780,note_on,60,0,1,,,,,,,,,0,,,67,0
18780,note_on,360,0,4,,,,,,,,,3,,,48,0
18780,note_on,0,0,2,,,,,,,,,1,,,53,36
18780,control_change,0,0,4,,,,,,,,,3,64,127,,
18786,note_on,6,0,4,,,,,,,,,3,,,41,0
18840,note_on,54,0,4,,,,,,,,,3,,,41,36
18846,note_on,6,0,4,,,,,,,,,3,,,41,0
18900,note_on,54,0,4,,,,,,,,,3,,,41,36
18906,note_on,6,0,4,,,,,,,,,3,,,41,0
18960,note_on,0,0,3,,,,,,,,,2,,,48,49
18960,note_on,180,0,3,,,,,,,,,2,,,45,0
18960,note_on,54,0,4,,,,,,,,,3,,,41,36
18960,note_on,180,0,1,,,,,,,,,0,,,65,0
18960,note_on,0,0,1,,,,,,,,,0,,,53,0
18960,note_on,0,0,1,,,,,,,,,0,,,57,49
18966,note_on,6,0,4,,,,,,,,,3,,,41,0
19020,note_on,54,0,4,,,,,,,,,3,,,41,36
19026,note_on,6,0,4,,,,,,,,,3,,,41,0
19080,control_change,54,0,4,,,,,,,,,3,64,0,,
19080,note_on,0,0,4,,,,,,,,,3,,,41,36
19086,note_on,6,0,4,,,,,,,,,3,,,41,0
19140,note_on,0,0,2,,,,,,,,,1,,,52,62
19140,note_on,360,0,2,,,,,,,,,1,,,53,0
19140,note_on,0,0,4,,,,,,,,,3,,,41,36
19140,control_change,54,0,4,,,,,,,,,3,64,127,,
19140,note_on,180,0,3,,,,,,,,,2,,,48,0
19140,note_on,0,0,3,,,,,,,,,2,,,49,49
19140,control_change,0,0,1,,,,,,,,,0,64,127,,
19140,note_on,180,0,1,,,,,,,,,0,,,57,0
19140,note_on,0,0,1,,,,,,,,,0,,,60,75
19140,note_on,0,0,1,,,,,,,,,0,,,55,67
19146,note_on,6,0,4,,,,,,,,,3,,,41,0
19200,note_on,54,0,4,,,,,,,,,3,,,41,36
19206,note_on,6,0,4,,,,,,,,,3,,,41,0
19260,note_on,54,0,4,,,,,,,,,3,,,41,36
19266,note_on,6,0,4,,,,,,,,,3,,,41,0
19320,note_on,0,0,1,,,,,,,,,0,,,58,49
19320,note_on,180,0,1,,,,,,,,,0,,,60,0
19320,note_on,54,0,4,,,,,,,,,3,,,41,36
19326,note_on,6,0,4,,,,,,,,,3,,,41,0
19380,note_on,54,0,4,,,,,,,,,3,,,41,36
19386,note_on,6,0,4,,,,,,,,,3,,,41,0
19440,control_change,54,0,4,,,,,,,,,3,64,0,,
19440,note_on,0,0,4,,,,,,,,,3,,,41,36
19440,note_on,0,0,1,,,,,,,,,0,,,57,49
19440,note_on,0,0,1,,,,,,,,,0,,,55,0
19440,note_on,120,0,1,,,,,,,,,0,,,58,0
19440,control_change,0,0,1,,,,,,,,,0,64,0,,
19446,note_on,6,0,4,,,,,,,,,3,,,41,0
19500,note_on,0,0,2,,,,,,,,,1,,,52,36
19500,note_on,360,0,3,,,,,,,,,2,,,49,0
19500,note_on,0,0,3,,,,,,,,,2,,,48,49
19500,note_on,0,0,1,,,,,,,,,0,,,55,49
19500,note_on,360,0,2,,,,,,,,,1,,,52,0
19500,note_on,60,0,1,,,,,,,,,0,,,57,0
19500,control_change,0,0,1,,,,,,,,,0,64,127,,
19500,control_change,54,0,4,,,,,,,,,3,64,127,,
19500,note_on,0,0,4,,,,,,,,,3,,,41,36
19506,note_on,6,0,4,,,,,,,,,3,,,41,0
19560,note_on,54,0,4,,,,,,,,,3,,,41,36
19566,note_on,6,0,4,,,,,,,,,3,,,41,0
19620,note_on,54,0,4,,,,,,,,,3,,,41,36
19626,note_on,6,0,4,,,,,,,,,3,,,41,0
19680,note_on,0,0,3,,,,,,,,,2,,,46,49
19680,note_on,180,0,3,,,,,,,,,2,,,48,0
19680,note_on,54,0,4,,,,,,,,,3,,,41,36
19686,note_on,6,0,4,,,,,,,,,3,,,41,0
19740,note_on,240,0,1,,,,,,,,,0,,,55,0
19740,note_on,0,0,1,,,,,,,,,0,,,58,49
19740,note_on,54,0,4,,,,,,,,,3,,,41,36
19746,note_on,6,0,4,,,,,,,,,3,,,41,0
19800,note_on,60,0,1,,,,,,,,,0,,,58,0
19800,control_change,0,0,1,,,,,,,,,0,64,0,,
19800,note_on,0,0,1,,,,,,,,,0,,,61,49
19800,note_on,0,0,4,,,,,,,,,3,,,41,36
19800,control_change,54,0,4,,,,,,,,,3,64,0,,
19806,note_on,6,0,4,,,,,,,,,3,,,41,0
19860,note_on,180,0,3,,,,,,,,,2,,,46,0
19860,note_on,0,0,3,,,,,,,,,2,,,45,49
19860,control_change,54,0,4,,,,,,,,,3,64,127,,
19860,note_on,60,0,1,,,,,,,,,0,,,61,0
19860,note_on,0,0,1,,,,,,,,,0,,,61,49
19860,note_on,0,0,4,,,,,,,,,3,,,41,36
19860,note_on,360,0,2,,,,,,,,,1,,,52,0
19860,note_on,0,0,2,,,,,,,,,1,,,53,36
19866,note_on,6,0,4,,,,,,,,,3,,,41,0
19920,note_on,54,0,4,,,,,,,,,3,,,41,36
19926,note_on,6,0,4,,,,,,,,,3,,,41,0
19980,note_on,54,0,4,,,,,,,,,3,,,41,36
19986,note_on,6,0,4,,,,,,,,,3,,,41,0
20040,note_on,0,0,1,,,,,,,,,0,,,60,49
20040,note_on,54,0,4,,,,,,,,,3,,,41,36
20040,note_on,180,0,1,,,,,,,,,0,,,61,0
20046,note_on,6,0,4,,,,,,,,,3,,,41,0
20100,note_on,54,0,4,,,,,,,,,3,,,41,36
20106,note_on,6,0,4,,,,,,,,,3,,,41,0
20160,control_change,54,0,4,,,,,,,,,3,64,0,,
20160,note_on,0,0,4,,,,,,,,,3,,,41,36
20166,note_on,6,0,4,,,,,,,,,3,,,41,0
20220,note_on,0,0,2,,,,,,,,,1,,,53,36
20220,note_on,0,0,4,,,,,,,,,3,,,41,36
20220,control_change,54,0,4,,,,,,,,,3,64,127,,
20220,note_on,360,0,2,,,,,,,,,1,,,53,0
20220,note_on,180,0,1,,,,,,,,,0,,,60,0
20220,note_on,0,0,1,,,,,,,,,0,,,53,49
20220,note_on,360,0,3,,,,,,,,,2,,,45,0
20220,note_on,0,0,3,,,,,,,,,2,,,45,49
20226,note_on,6,0,4,,,,,,,,,3,,,41,0
20280,note_on,54,0,4,,,,,,,,,3,,,41,36
20286,note_on,6,0,4,,,,,,,,,3,,,41,0
20340,note_on,54,0,4,,,,,,,,,3,,,41,36
20346,note_on,6,0,4,,,,,,,,,3,,,41,0
20400,note_on,54,0,4,,,,,,,,,3,,,41,36
20400,note_on,0,0,3,,,,,,,,,2,,,51,49
20400,note_on,180,0,1,,,,,,,,,0,,,53,0
20400,note_on,0,0,1,,,,,,,,,0,,,57,49
20400,note_on,180,0,3,,,,,,,,,2,,,45,0
20406,note_on,6,0,4,,,,,,,,,3,,,41,0
20460,note_on,54,0,4,,,,,,,,,3,,,41,36
20466,note_on,6,0,4,,,,,,,,,3,,,41,0
20520,control_change,54,0,4,,,,,,,,,3,64,0,,
20520,note_on,0,0,4,,,,,,,,,3,,,41,36
20526,note_on,6,0,4,,,,,,,,,3,,,41,0
20580,note_on,360,0,2,,,,,,,,,1,,,53,0
20580,note_on,0,0,1,,,,,,,,,0,,,60,75
20580,note_on,0,0,4,,,,,,,,,3,,,41,36
20580,note_on,0,0,2,,,,,,,,,1,,,52,62
20580,control_change,54,0,4,,,,,,,,,3,64,127,,
20580,note_on,0,0,1,,,,,,,,,0,,,55,67
20580,control_change,0,0,1,,,,,,,,,0,64,127,,
20580,note_on,180,0,1,,,,,,,,,0,,,57,0
20580,note_on,0,0,3,,,,,,,,,2,,,49,49
20580,note_on,180,0,3,,,,,,,,,2,,,51,0
20586,note_on,6,0,4,,,,,,,,,3,,,41,0
20640,note_on,54,0,4,,,,,,,,,3,,,41,36
20646,note_on,6,0,4,,,,,,,,,3,,,41,0
20700,note_on,54,0,4,,,,,,,,,3,,,41,36
20706,note_on,6,0,4,,,,,,,,,3,,,41,0
20760,note_on,180,0,1,,,,,,,,,0,,,60,0
20760,note_on,0,0,1,,,,,,,,,0,,,58,49
20760,note_on,54,0,4,,,,,,,,,3,,,41,36
20766,note_on,6,0,4,,,,,,,,,3,,,41,0
20820,note_on,54,0,4,,,,,,,,,3,,,41,36
20826,note_on,6,0,4,,,,,,,,,3,,,41,0
20880,note_on,120,0,1,,,,,,,,,0,,,58,0
20880,control_change,54,0,4,,,,,,,,,3,64,0,,
20880,note_on,0,0,4,,,,,,,,,3,,,41,36
20880,control_change,0,0,1,,,,,,,,,0,64,0,,
20880,note_on,0,0,1,,,,,,,,,0,,,57,49
20880,note_on,0,0,1,,,,,,,,,0,,,55,0
20886,note_on,6,0,4,,,,,,,,,3,,,41,0
20940,control_change,0,0,1,,,,,,,,,0,64,127,,
20940,note_on,0,0,1,,,,,,,,,0,,,55,49
20940,note_on,60,0,1,,,,,,,,,0,,,57,0
20940,note_on,360,0,3,,,,,,,,,2,,,49,0
20940,note_on,360,0,2,,,,,,,,,1,,,52,0
20940,note_on,0,0,3,,,,,,,,,2,,,48,49
20940,note_on,0,0,4,,,,,,,,,3,,,41,36
20940,control_change,54,0,4,,,,,,,,,3,64,127,,
20940,note_on,0,0,2,,,,,,,,,1,,,52,36
20946,note_on,6,0,4,,,,,,,,,3,,,41,0
21000,note_on,54,0,4,,,,,,,,,3,,,41,36
21006,note_on,6,0,4,,,,,,,,,3,,,41,0
21060,note_on,54,0,4,,,,,,,,,3,,,41,36
21066,note_on,6,0,4,,,,,,,,,3,,,41,0
21120,note_on,54,0,4,,,,,,,,,3,,,41,36
21120,note_on,180,0,3,,,,,,,,,2,,,48,0
21120,note_on,0,0,3,,,,,,,,,2,,,46,49
21126,note_on,6,0,4,,,,,,,,,3,,,41,0
21180,note_on,240,0,1,,,,,,,,,0,,,55,0
21180,note_on,0,0,1,,,,,,,,,0,,,58,49
21180,note_on,54,0,4,,,,,,,,,3,,,41,36
21186,note_on,6,0,4,,,,,,,,,3,,,41,0
21240,note_on,0,0,1,,,,,,,,,0,,,61,49
21240,note_on,0,0,4,,,,,,,,,3,,,41,36
21240,control_change,0,0,1,,,,,,,,,0,64,0,,
21240,control_change,54,0,4,,,,,,,,,3,64,0,,
21240,note_on,60,0,1,,,,,,,,,0,,,58,0
21246,note_on,6,0,4,,,,,,,,,3,,,41,0
21300,note_on,0,0,4,,,,,,,,,3,,,41,36
21300,control_change,54,0,4,,,,,,,,,3,64,127,,
21300,note_on,60,0,1,,,,,,,,,0,,,61,0
21300,note_on,0,0,2,,,,,,,,,1,,,53,36
21300,note_on,180,0,3,,,,,,,,,2,,,46,0
21300,note_on,0,0,1,,,,,,,,,0,,,61,49
21300,note_on,360,0,2,,,,,,,,,1,,,52,0
21300,note_on,0,0,3,,,,,,,,,2,,,45,49
21306,note_on,6,0,4,,,,,,,,,3,,,41,0
21360,note_on,54,0,4,,,,,,,,,3,,,41,36
21366,note_on,6,0,4,,,,,,,,,3,,,41,0
21420,note_on,54,0,4,,,,,,,,,3,,,41,36
21426,note_on,6,0,4,,,,,,,,,3,,,41,0
21480,note_on,0,0,1,,,,,,,,,0,,,60,49
21480,note_on,180,0,1,,,,,,,,,0,,,61,0
21480,note_on,54,0,4,,,,,,,,,3,,,41,36
21486,note_on,6,0,4,,,,,,,,,3,,,41,0
21540,note_on,54,0,4,,,,,,,,,3,,,41,36
21546,note_on,6,0,4,,,,,,,,,3,,,41,0
21600,control_change,54,0,4,,,,,,,,,3,64,0,,
21600,note_on,0,0,4,,,,,,,,,3,,,41,36
21606,note_on,6,0,4,,,,,,,,,3,,,41,0
21660,note_on,180,0,1,,,,,,,,,0,,,60,0
21660,control_change,54,0,4,,,,,,,,,3,64,127,,
21660,note_on,0,0,4,,,,,,,,,3,,,41,36
21660,note_on,0,0,2,,,,,,,,,1,,,57,36
21660,note_on,0,0,2,,,,,,,,,1,,,51,36
21660,note_on,360,0,3,,,,,,,,,2,,,45,0
21660,note_on,360,0,2,,,,,,,,,1,,,53,0
21660,note_on,0,0,1,,,,,,,,,0,,,61,49
21666,note_on,6,0,4,,,,,,,,,3,,,41,0
21720,note_on,54,0,4,,,,,,,,,3,,,41,36
21726,note_on,6,0,4,,,,,,,,,3,,,41,0
21780,note_on,54,0,4,,,,,,,,,3,,,41,36
21786,note_on,6,0,4,,,,,,,,,3,,,41,0
21840,note_on,54,0,4,,,,,,,,,3,,,41,36
21840,note_on,0,0,1,,,,,,,,,0,,,60,49
21840,note_on,180,0,1,,,,,,,,,0,,,61,0
21846,note_on,6,0,4,,,,,,,,,3,,,41,0
21900,note_on,54,0,4,,,,,,,,,3,,,41,36
21906,note_on,6,0,4,,,,,,,,,3,,,41,0
21960,note_on,0,0,4,,,,,,,,,3,,,41,36
21960,control_change,54,0,4,,,,,,,,,3,64,0,,
21966,note_on,6,0,4,,,,,,,,,3,,,41,0
22020,note_on,360,0,2,,,,,,,,,1,,,57,0
22020,control_change,54,0,4,,,,,,,,,3,64,127,,
22020,note_on,0,0,4,,,,,,,,,3,,,41,36
22020,note_on,0,0,2,,,,,,,,,1,,,51,36
22020,note_on,0,0,1,,,,,,,,,0,,,61,49
22020,note_on,180,0,1,,,,,,,,,0,,,60,0
22020,note_on,0,0,2,,,,,,,,,1,,,51,0
22020,note_on,0,0,2,,,,,,,,,1,,,57,36
22026,note_on,6,0,4,,,,,,,,,3,,,41,0
22080,note_on,54,0,4,,,,,,,,,3,,,41,36
22086,note_on,6,0,4,,,,,,,,,3,,,41,0
22140,note_on,54,0,4,,,,,,,,,3,,,41,36
22146,note_on,6,0,4,,,,,,,,,3,,,41,0
22200,note_on,180,0,1,,,,,,,,,0,,,61,0
22200,note_on,0,0,1,,,,,,,,,0,,,60,49
22200,note_on,54,0,4,,,,,,,,,3,,,41,36
22206,note_on,6,0,4,,,,,,,,,3,,,41,0
22260,note_on,54,0,4,,,,,,,,,3,,,41,36
22266,note_on,6,0,4,,,,,,,,,3,,,41,0
22320,note_on,0,0,4,,,,,,,,,3,,,41,36
22320,control_change,54,0,4,,,,,,,,,3,64,0,,
22326,note_on,6,0,4,,,,,,,,,3,,,41,0
22380,note_on,0,0,2,,,,,,,,,1,,,52,36
22380,note_on,0,0,2,,,,,,,,,1,,,51,0
22380,note_on,360,0,2,,,,,,,,,1,,,57,0
22380,note_on,0,0,1,,,,,,,,,0,,,62,49
22380,note_on,0,0,2,,,,,,,,,1,,,57,36
22380,note_on,0,0,3,,,,,,,,,2,,,40,36
22380,note_on,180,0,1,,,,,,,,,0,,,60,0
22380,control_change,720,0,3,,,,,,,,,2,64,127,,
22386,note_on,6,0,3,,,,,,,,,2,,,40,0
22440,set_tempo,22380,1,0,,,,,,512821,,,,,,,
22440,note_on,54,0,3,,,,,,,,,2,,,40,36
22446,note_on,6,0,3,,,,,,,,,2,,,40,0
22500,set_tempo,60,1,0,,,,,,526316,,,,,,,
22500,note_on,54,0,3,,,,,,,,,2,,,40,36
22506,note_on,6,0,3,,,,,,,,,2,,,40,0
22560,note_on,180,0,1,,,,,,,,,0,,,62,0
22560,note_on,54,0,3,,,,,,,,,2,,,40,36
22560,set_tempo,60,1,0,,,,,,540541,,,,,,,
22560,note_on,0,0,1,,,,,,,,,0,,,60,49
22566,note_on,6,0,3,,,,,,,,,2,,,40,0
22620,note_on,54,0,3,,,,,,,,,2,,,40,36
22620,set_tempo,60,1,0,,,,,,560748,,,,,,,
22626,note_on,6,0,3,,,,,,,,,2,,,40,0
22680,set_tempo,60,1,0,,,,,,576923,,,,,,,
22680,note_on,54,0,3,,,,,,,,,2,,,40,36
22686,note_on,6,0,3,,,,,,,,,2,,,40,0
22740,note_on,0,0,1,,,,,,,,,0,,,60,49
22740,note_on,0,0,2,,,,,,,,,1,,,56,36
22740,set_tempo,60,1,0,,,,,,594059,,,,,,,
22740,note_on,360,0,2,,,,,,,,,1,,,57,0
22740,note_on,0,0,3,,,,,,,,,2,,,40,36
22740,note_on,0,0,2,,,,,,,,,1,,,52,0
22740,note_on,180,0,1,,,,,,,,,0,,,60,0
22740,note_on,0,0,2,,,,,,,,,1,,,50,36
22740,control_change,54,0,3,,,,,,,,,2,64,127,,
22746,note_on,6,0,3,,,,,,,,,2,,,40,0
22800,note_on,54,0,3,,,,,,,,,2,,,40,36
22800,set_tempo,60,1,0,,,,,,612245,,,,,,,
22806,note_on,6,0,3,,,,,,,,,2,,,40,0
22860,note_on,54,0,3,,,,,,,,,2,,,40,36
22860,set_tempo,60,1,0,,,,,,638298,,,,,,,
22866,note_on,6,0,3,,,,,,,,,2,,,40,0
22920,note_on,180,0,1,,,,,,,,,0,,,60,0
22920,note_on,0,0,1,,,,,,,,,0,,,59,49
22920,note_on,54,0,3,,,,,,,,,2,,,40,36
22926,note_on,6,0,3,,,,,,,,,2,,,40,0
22980,note_on,54,0,3,,,,,,,,,2,,,40,36
22986,note_on,6,0,3,,,,,,,,,2,,,40,0
23040,note_on,0,0,3,,,,,,,,,2,,,40,36
23040,control_change,54,0,3,,,,,,,,,2,64,0,,
23046,note_on,6,0,3,,,,,,,,,2,,,40,0
23100,note_on,180,0,1,,,,,,,,,0,,,59,0
23100,note_on,0,0,2,,,,,,,,,1,,,50,0
23100,note_on,360,0,2,,,,,,,,,1,,,56,0
23460,note_on,414,0,3,,,,,,,,,2,,,33,75
23460,note_on,0,0,3,,,,,,,,,2,,,45,75
23460,time_signature,600,1,0,1,8,12,8,,,,,,,,,
23460,note_on,360,0,1,,,,,,,,,0,,,64,88
23460,note_on,0,0,1,,,,,,,,,0,,,72,88
23460,note_on,0,0,1,,,,,,,,,0,,,76,88
23460,set_tempo,0,1,0,,,,,,500000,,,,,,,
23466,note_on,6,0,3,,,,,,,,,2,,,45,0
23466,note_on,0,0,3,,,,,,,,,2,,,33,0
23466,note_on,6,0,1,,,,,,,,,0,,,76,0
23466,note_on,0,0,1,,,,,,,,,0,,,72,0
23466,note_on,0,0,1,,,,,,,,,0,,,64,0
23520,note_on,0,0,1,,,,,,,,,0,,,72,88
23520,note_on,0,0,1,,,,,,,,,0,,,64,88
23520,control_change,54,0,1,,,,,,,,,0,64,127,,
23520,note_on,0,0,1,,,,,,,,,0,,,76,88
23520,note_on,54,0,3,,,,,,,,,2,,,33,75
23520,note_on,0,0,3,,,,,,,,,2,,,45,75
23520,time_signature,60,1,0,6,8,12,8,,,,,,,,,
23610,note_on,0,0,1,,,,,,,,,0,,,72,0
23610,note_on,90,0,1,,,,,,,,,0,,,76,0
23610,note_on,0,0,1,,,,,,,,,0,,,71,88
23610,note_on,0,0,1,,,,,,,,,0,,,64,0
23610,note_on,0,0,1,,,,,,,,,0,,,62,88
23610,note_on,0,0,1,,,,,,,,,0,,,74,88
23640,note_on,30,0,1,,,,,,,,,0,,,74,0
23640,note_on,0,0,1,,,,,,,,,0,,,71,0
23640,note_on,0,0,1,,,,,,,,,0,,,62,0
23640,note_on,0,0,1,,,,,,,,,0,,,60,88
23640,note_on,0,0,1,,,,,,,,,0,,,69,88
23640,note_on,0,0,1,,,,,,,,,0,,,72,88
23640,control_change,0,0,1,,,,,,,,,0,64,0,,
23640,note_on,120,0,3,,,,,,,,,2,,,45,0
23640,note_on,0,0,3,,,,,,,,,2,,,33,0
23700,note_on,60,0,3,,,,,,,,,2,,,45,75
23700,note_on,0,0,3,,,,,,,,,2,,,57,75
23700,note_on,0,0,1,,,,,,,,,0,,,72,88
23700,control_change,0,0,1,,,,,,,,,0,64,127,,
23700,note_on,60,0,1,,,,,,,,,0,,,72,0
23700,note_on,0,0,1,,,,,,,,,0,,,69,0
23700,note_on,0,0,1,,,,,,,,,0,,,60,0
23700,note_on,0,0,1,,,,,,,,,0,,,60,88
23700,note_on,0,0,1,,,,,,,,,0,,,64,88
23790,note_on,0,0,1,,,,,,,,,0,,,60,0
23790,note_on,0,0,1,,,,,,,,,0,,,59,88
23790,note_on,0,0,1,,,,,,,,,0,,,62,88
23790,note_on,0,0,1,,,,,,,,,0,,,71,88
23790,note_on,90,0,1,,,,,,,,,0,,,72,0
23790,note_on,0,0,1,,,,,,,,,0,,,64,0
23820,note_on,30,0,1,,,,,,,,,0,,,71,0
23820,control_change,0,0,1,,,,,,,,,0,64,0,,
23820,note_on,0,0,1,,,,,,,,,0,,,69,88
23820,note_on,0,0,1,,,,,,,,,0,,,60,88
23820,note_on,0,0,1,,,,,,,,,0,,,57,88
23820,note_on,0,0,1,,,,,,,,,0,,,62,0
23820,note_on,0,0,3,,,,,,,,,2,,,45,0
23820,note_on,0,0,1,,,,,,,,,0,,,59,0
23820,note_on,120,0,3,,,,,,,,,2,,,57,0
23880,note_on,60,0,1,,,,,,,,,0,,,69,0
23880,note_on,0,0,1,,,,,,,,,0,,,60,0
23880,note_on,0,0,1,,,,,,,,,0,,,57,0
23880,note_on,0,0,1,,,,,,,,,0,,,64,106
23880,control_change,0,0,1,,,,,,,,,0,64,127,,
23880,note_on,0,0,1,,,,,,,,,0,,,68,114
23880,note_on,0,0,3,,,,,,,,,2,,,56,101
23880,note_on,0,0,3,,,,,,,,,2,,,52,93
23880,control_change,60,0,3,,,,,,,,,2,64,127,,
24000,note_on,0,0,1,,,,,,,,,0,,,64,0
24000,note_on,0,0,1,,,,,,,,,0,,,66,49
24000,note_on,0,0,1,,,,,,,,,0,,,69,49
24000,note_on,120,0,3,,,,,,,,,2,,,56,0
24000,note_on,0,0,3,,,,,,,,,2,,,52,0
24000,note_on,0,0,3,,,,,,,,,2,,,52,36
24000,note_on,0,0,3,,,,,,,,,2,,,54,36
24000,note_on,0,0,3,,,,,,,,,2,,,57,36
24000,note_on,120,0,1,,,,,,,,,0,,,68,0
24006,note_on,6,0,1,,,,,,,,,0,,,69,0
24006,note_on,6,0,3,,,,,,,,,2,,,57,0
24006,note_on,0,0,3,,,,,,,,,2,,,54,0
24006,note_on,0,0,3,,,,,,,,,2,,,52,0
24006,note_on,0,0,1,,,,,,,,,0,,,66,0
24060,control_change,54,0,1,,,,,,,,,0,64,0,,
24060,note_on,0,0,1,,,,,,,,,0,,,68,49
24060,note_on,0,0,1,,,,,,,,,0,,,71,49
24060,control_change,54,0,3,,,,,,,,,2,64,0,,
24060,note_on,0,0,3,,,,,,,,,2,,,52,36
24060,note_on,0,0,3,,,,,,,,,2,,,56,36
24060,note_on,0,0,3,,,,,,,,,2,,,59,36
24180,note_on,0,0,1,,,,,,,,,0,,,72,62
24180,note_on,0,0,1,,,,,,,,,0,,,69,62
24180,note_on,0,0,1,,,,,,,,,0,,,68,0
24180,note_on,0,0,3,,,,,,,,,2,,,60,49
24180,note_on,0,0,3,,,,,,,,,2,,,52,0
24180,note_on,0,0,3,,,,,,,,,2,,,52,49
24180,note_on,0,0,3,,,,,,,,,2,,,56,0
24180,note_on,120,0,3,,,,,,,,,2,,,59,0
24180,note_on,120,0,1,,,,,,,,,0,,,71,0
24180,note_on,0,0,3,,,,,,,,,2,,,57,49
24186,note_on,6,0,3,,,,,,,,,2,,,60,0
24186,note_on,0,0,3,,,,,,,,,2,,,57,0
24186,note_on,0,0,3,,,,,,,,,2,,,52,0
24186,note_on,6,0,1,,,,,,,,,0,,,72,0
24186,note_on,0,0,1,,,,,,,,,0,,,69,0
24240,note_on,0,0,1,,,,,,,,,0,,,74,75
24240,note_on,0,0,1,,,,,,,,,0,,,71,75
24240,note_on,0,0,3,,,,,,,,,2,,,62,62
24240,note_on,0,0,3,,,,,,,,,2,,,59,62
24240,note_on,0,0,3,,,,,,,,,2,,,52,62
24240,control_change,54,0,1,,,,,,,,,0,64,127,,
24240,control_change,54,0,3,,,,,,,,,2,64,127,,
24360,note_on,120,0,1,,,,,,,,,0,,,74,0
24360,note_on,0,0,1,,,,,,,,,0,,,71,0
24360,note_on,0,0,1,,,,,,,,,0,,,72,75
24360,note_on,0,0,1,,,,,,,,,0,,,76,75
24360,note_on,0,0,3,,,,,,,,,2,,,52,0
24360,note_on,0,0,3,,,,,,,,,2,,,60,62
24360,note_on,0,0,3,,,,,,,,,2,,,59,0
24360,note_on,0,0,3,,,,,,,,,2,,,64,62
24360,note_on,0,0,3,,,,,,,,,2,,,52,62
24360,note_on,120,0,3,,,,,,,,,2,,,62,0
24366,note_on,0,0,3,,,,,,,,,2,,,60,0
24366,note_on,0,0,3,,,,,,,,,2,,,52,0
24366,note_on,6,0,3,,,,,,,,,2,,,64,0
24366,note_on,6,0,1,,,,,,,,,0,,,76,0
24366,note_on,0,0,1,,,,,,,,,0,,,72,0
24420,note_on,54,0,1,,,,,,,,,0,,,74,88
24420,note_on,0,0,1,,,,,,,,,0,,,77,88
24420,note_on,54,0,3,,,,,,,,,2,,,52,75
24420,note_on,0,0,3,,,,,,,,,2,,,62,75
24420,note_on,0,0,3,,,,,,,,,2,,,65,75
24600,note_on,180,0,1,,,,,,,,,0,,,74,0
24600,note_on,180,0,3,,,,,,,,,2,,,65,0
24600,note_on,0,0,3,,,,,,,,,2,,,62,0
24600,note_on,0,0,3,,,,,,,,,2,,,52,0
24600,note_on,0,0,3,,,,,,,,,2,,,52,62
24606,note_on,6,0,3,,,,,,,,,2,,,52,0
24630,note_on,30,0,1,,,,,,,,,0,,,77,0
24630,note_on,0,0,1,,,,,,,,,0,,,83,75
24660,note_on,54,0,3,,,,,,,,,2,,,62,62
24660,note_on,0,0,3,,,,,,,,,2,,,65,62
24660,note_on,0,0,1,,,,,,,,,0,,,80,75
24660,note_on,30,0,1,,,,,,,,,0,,,83,0
24666,note_on,6,0,3,,,,,,,,,2,,,65,0
24666,note_on,0,0,3,,,,,,,,,2,,,62,0
24690,note_on,0,0,1,,,,,,,,,0,,,86,75
24690,note_on,30,0,1,,,,,,,,,0,,,80,0
24720,note_on,0,0,1,,,,,,,,,0,,,83,75
24720,note_on,54,0,3,,,,,,,,,2,,,62,62
24720,note_on,0,0,3,,,,,,,,,2,,,65,62
24720,note_on,30,0,1,,,,,,,,,0,,,86,0
24726,note_on,6,0,3,,,,,,,,,2,,,65,0
24726,note_on,0,0,3,,,,,,,,,2,,,62,0
24750,note_on,0,0,1,,,,,,,,,0,,,89,75
24750,note_on,30,0,1,,,,,,,,,0,,,83,0
24780,note_on,30,0,1,,,,,,,,,0,,,89,0
24780,note_on,54,0,3,,,,,,,,,2,,,52,62
24780,note_on,0,0,1,,,,,,,,,0,,,86,75
24786,note_on,6,0,3,,,,,,,,,2,,,52,0
24810,note_on,30,0,1,,,,,,,,,0,,,86,0
24810,note_on,0,0,1,,,,,,,,,0,,,83,75
24840,note_on,0,0,3,,,,,,,,,2,,,65,62
24840,note_on,54,0,3,,,,,,,,,2,,,62,62
24840,note_on,0,0,1,,,,,,,,,0,,,80,75
24840,note_on,30,0,1,,,,,,,,,0,,,83,0
24846,note_on,0,0,3,,,,,,,,,2,,,62,0
24846,note_on,6,0,3,,,,,,,,,2,,,65,0
24870,note_on,30,0,1,,,,,,,,,0,,,80,0
24870,note_on,0,0,1,,,,,,,,,0,,,77,75
24900,note_on,30,0,1,,,,,,,,,0,,,77,0
24900,note_on,0,0,3,,,,,,,,,2,,,65,62
24900,note_on,54,0,3,,,,,,,,,2,,,62,62
24900,note_on,0,0,1,,,,,,,,,0,,,83,75
24906,note_on,6,0,3,,,,,,,,,2,,,65,0
24906,note_on,0,0,3,,,,,,,,,2,,,62,0
24930,note_on,0,0,1,,,,,,,,,0,,,80,75
24930,note_on,30,0,1,,,,,,,,,0,,,83,0
24960,note_on,0,0,1,,,,,,,,,0,,,77,75
24960,note_on,30,0,1,,,,,,,,,0,,,80,0
24960,note_on,54,0,3,,,,,,,,,2,,,52,62
24966,note_on,6,0,3,,,,,,,,,2,,,52,0
24990,note_on,30,0,1,,,,,,,,,0,,,77,0
24990,note_on,0,0,1,,,,,,,,,0,,,74,75
25020,note_on,54,0,3,,,,,,,,,2,,,62,62
25020,note_on,0,0,3,,,,,,,,,2,,,65,62
25020,note_on,30,0,1,,,,,,,,,0,,,74,0
25020,note_on,0,0,1,,,,,,,,,0,,,80,75
25026,note_on,0,0,3,,,,,,,,,2,,,62,0
25026,note_on,6,0,3,,,,,,,,,2,,,65,0
25050,note_on,30,0,1,,,,,,,,,0,,,80,0
25050,note_on,0,0,1,,,,,,,,,0,,,77,75
25080,note_on,54,0,3,,,,,,,,,2,,,62,62
25080,note_on,0,0,3,,,,,,,,,2,,,65,62
25080,note_on,30,0,1,,,,,,,,,0,,,77,0
25080,note_on,0,0,1,,,,,,,,,0,,,74,75
25086,note_on,0,0,3,,,,,,,,,2,,,62,0
25086,note_on,6,0,3,,,,,,,,,2,,,65,0
25110,note_on,30,0,1,,,,,,,,,0,,,74,0
25110,note_on,0,0,1,,,,,,,,,0,,,71,75
25140,note_on,30,0,1,,,,,,,,,0,,,71,0
25140,note_on,0,0,1,,,,,,,,,0,,,77,75
25140,note_on,54,0,3,,,,,,,,,2,,,52,62
25146,note_on,6,0,3,,,,,,,,,2,,,52,0
25170,note_on,0,0,1,,,,,,,,,0,,,74,75
25170,note_on,30,0,1,,,,,,,,,0,,,77,0
25200,note_on,0,0,1,,,,,,,,,0,,,71,75
25200,control_change,0,0,1,,,,,,,,,0,64,0,,
25200,control_change,54,0,3,,,,,,,,,2,64,0,,
25200,note_on,0,0,3,,,,,,,,,2,,,62,62
25200,note_on,0,0,3,,,,,,,,,2,,,64,62
25200,note_on,30,0,1,,,,,,,,,0,,,74,0
25206,note_on,0,0,3,,,,,,,,,2,,,62,0
25206,note_on,6,0,3,,,,,,,,,2,,,64,0
25230,note_on,0,0,1,,,,,,,,,0,,,68,75
25230,note_on,30,0,1,,,,,,,,,0,,,71,0
25260,note_on,0,0,1,,,,,,,,,0,,,64,88
25260,note_on,0,0,1,,,,,,,,,0,,,72,88
25260,note_on,0,0,1,,,,,,,,,0,,,76,88
25260,note_on,30,0,1,,,,,,,,,0,,,68,0
25260,note_on,0,0,3,,,,,,,,,2,,,45,75
25260,note_on,54,0,3,,,,,,,,,2,,,33,75
25266,note_on,6,0,3,,,,,,,,,2,,,45,0
25266,note_on,0,0,3,,,,,,,,,2,,,33,0
25320,control_change,0,0,1,,,,,,,,,0,64,127,,
25320,note_on,0,0,1,,,,,,,,,0,,,76,88
25320,note_on,0,0,1,,,,,,,,,0,,,64,88
25320,note_on,0,0,1,,,,,,,,,0,,,64,0
25320,note_on,0,0,1,,,,,,,,,0,,,72,0
25320,note_on,60,0,1,,,,,,,,,0,,,76,0
25320,note_on,0,0,3,,,,,,,,,2,,,45,75
25320,note_on,0,0,1,,,,,,,,,0,,,72,88
25320,note_on,54,0,3,,,,,,,,,2,,,33,75
25410,note_on,0,0,1,,,,,,,,,0,,,72,0
25410,note_on,0,0,1,,,,,,,,,0,,,74,88
25410,note_on,0,0,1,,,,,,,,,0,,,71,88
25410,note_on,0,0,1,,,,,,,,,0,,,62,88
25410,note_on,0,0,1,,,,,,,,,0,,,64,0
25410,note_on,90,0,1,,,,,,,,,0,,,76,0
25440,note_on,0,0,1,,,,,,,,,0,,,69,88
25440,note_on,0,0,1,,,,,,,,,0,,,60,88
25440,note_on,0,0,1,,,,,,,,,0,,,62,0
25440,note_on,0,0,1,,,,,,,,,0,,,71,0
25440,note_on,30,0,1,,,,,,,,,0,,,74,0
25440,control_change,0,0,1,,,,,,,,,0,64,0,,
25440,note_on,120,0,3,,,,,,,,,2,,,45,0
25440,note_on,0,0,3,,,,,,,,,2,,,33,0
25440,note_on,0,0,1,,,,,,,,,0,,,72,88
25500,control_change,0,0,1,,,,,,,,,0,64,127,,
25500,note_on,0,0,1,,,,,,,,,0,,,64,88
25500,note_on,0,0,1,,,,,,,,,0,,,60,88
25500,note_on,0,0,3,,,,,,,,,2,,,57,75
25500,note_on,0,0,1,,,,,,,,,0,,,60,0
25500,note_on,0,0,1,,,,,,,,,0,,,69,0
25500,note_on,60,0,1,,,,,,,,,0,,,72,0
25500,note_on,0,0,1,,,,,,,,,0,,,72,88
25500,note_on,60,0,3,,,,,,,,,2,,,45,75
25590,note_on,90,0,1,,,,,,,,,0,,,72,0
25590,note_on,0,0,1,,,,,,,,,0,,,59,88
25590,note_on,0,0,1,,,,,,,,,0,,,62,88
25590,note_on,0,0,1,,,,,,,,,0,,,71,88
25590,note_on,0,0,1,,,,,,,,,0,,,60,0
25590,note_on,0,0,1,,,,,,,,,0,,,64,0
25620,control_change,0,0,1,,,,,,,,,0,64,0,,
25620,note_on,0,0,1,,,,,,,,,0,,,69,88
25620,note_on,0,0,1,,,,,,,,,0,,,57,88
25620,note_on,0,0,1,,,,,,,,,0,,,59,0
25620,note_on,0,0,1,,,,,,,,,0,,,62,0
25620,note_on,30,0,1,,,,,,,,,0,,,71,0
25620,note_on,0,0,3,,,,,,,,,2,,,45,0
25620,note_on,120,0,3,,,,,,,,,2,,,57,0
25620,note_on,0,0,1,,,,,,,,,0,,,60,88
25680,note_on,0,0,3,,,,,,,,,2,,,52,93
25680,control_change,60,0,3,,,,,,,,,2,64,127,,
25680,note_on,0,0,3,,,,,,,,,2,,,56,101
25680,control_change,0,0,1,,,,,,,,,0,64,127,,
25680,note_on,0,0,1,,,,,,,,,0,,,57,0
25680,note_on,0,0,1,,,,,,,,,0,,,68,114
25680,note_on,0,0,1,,,,,,,,,0,,,64,106
25680,note_on,0,0,1,,,,,,,,,0,,,60,0
25680,note_on,60,0,1,,,,,,,,,0,,,69,0
25800,note_on,0,0,1,,,,,,,,,0,,,66,49
25800,note_on,0,0,1,,,,,,,,,0,,,64,0
25800,note_on,120,0,3,,,,,,,,,2,,,56,0
25800,note_on,0,0,3,,,,,,,,,2,,,54,36
25800,note_on,0,0,3,,,,,,,,,2,,,52,0
25800,note_on,0,0,3,,,,,,,,,2,,,57,36
25800,note_on,120,0,1,,,,,,,,,0,,,68,0
25800,note_on,0,0,1,,,,,,,,,0,,,69,49
25800,note_on,0,0,3,,,,,,,,,2,,,52,36
25806,note_on,6,0,1,,,,,,,,,0,,,69,0
25806,note_on,0,0,1,,,,,,,,,0,,,66,0
25806,note_on,6,0,3,,,,,,,,,2,,,57,0
25806,note_on,0,0,3,,,,,,,,,2,,,54,0
25806,note_on,0,0,3,,,,,,,,,2,,,52,0
25860,control_change,54,0,3,,,,,,,,,2,64,0,,
25860,note_on,0,0,3,,,,,,,,,2,,,52,36
25860,note_on,0,0,3,,,,,,,,,2,,,56,36
25860,note_on,0,0,3,,,,,,,,,2,,,59,36
25860,control_change,54,0,1,,,,,,,,,0,64,0,,
25860,note_on,0,0,1,,,,,,,,,0,,,71,49
25860,note_on,0,0,1,,,,,,,,,0,,,68,49
25980,note_on,0,0,3,,,,,,,,,2,,,52,0
25980,note_on,0,0,1,,,,,,,,,0,,,72,62
25980,note_on,0,0,1,,,,,,,,,0,,,69,62
25980,note_on,0,0,1,,,,,,,,,0,,,68,0
25980,note_on,120,0,1,,,,,,,,,0,,,71,0
25980,note_on,0,0,3,,,,,,,,,2,,,56,0
25980,note_on,120,0,3,,,,,,,,,2,,,59,0
25980,note_on,0,0,3,,,,,,,,,2,,,57,49
25980,note_on,0,0,3,,,,,,,,,2,,,60,49
25980,note_on,0,0,3,,,,,,,,,2,,,52,49
25986,note_on,6,0,3,,,,,,,,,2,,,60,0
25986,note_on,0,0,3,,,,,,,,,2,,,57,0
25986,note_on,0,0,3,,,,,,,,,2,,,52,0
25986,note_on,0,0,1,,,,,,,,,0,,,69,0
25986,note_on,6,0,1,,,,,,,,,0,,,72,0
26040,note_on,0,0,3,,,,,,,,,2,,,59,62
26040,note_on,54,0,1,,,,,,,,,0,,,71,75
26040,note_on,0,0,3,,,,,,,,,2,,,62,62
26040,note_on,54,0,3,,,,,,,,,2,,,52,62
26040,note_on,0,0,1,,,,,,,,,0,,,74,75
26160,note_on,0,0,3,,,,,,,,,2,,,64,62
26160,note_on,0,0,3,,,,,,,,,2,,,60,62
26160,note_on,0,0,3,,,,,,,,,2,,,52,62
26160,note_on,0,0,3,,,,,,,,,2,,,52,0
26160,note_on,0,0,3,,,,,,,,,2,,,59,0
26160,note_on,120,0,3,,,,,,,,,2,,,62,0
26160,note_on,120,0,1,,,,,,,,,0,,,74,0
26160,note_on,0,0,1,,,,,,,,,0,,,76,75
26160,note_on,0,0,1,,,,,,,,,0,,,72,75
26160,note_on,0,0,1,,,,,,,,,0,,,71,0
26166,note_on,0,0,1,,,,,,,,,0,,,72,0
26166,note_on,6,0,3,,,,,,,,,2,,,64,0
26166,note_on,0,0,3,,,,,,,,,2,,,60,0
26166,note_on,0,0,3,,,,,,,,,2,,,52,0
26166,note_on,6,0,1,,,,,,,,,0,,,76,0
26220,note_on,54,0,1,,,,,,,,,0,,,74,88
26220,note_on,3894,0,4,,,,,,,,,3,,,52,75
26220,note_on,54,0,3,,,,,,,,,2,,,62,75
26220,note_on,0,0,3,,,,,,,,,2,,,65,75
26220,note_on,0,0,1,,,,,,,,,0,,,77,88
26340,note_on,120,0,4,,,,,,,,,3,,,52,0
26340,note_on,3240,0,2,,,,,,,,,1,,,66,36
26340,note_on,0,0,4,,,,,,,,,3,,,54,75
26400,note_on,0,0,2,,,,,,,,,1,,,67,36
26400,note_on,0,0,3,,,,,,,,,2,,,55,62
26400,control_change,0,0,3,,,,,,,,,2,64,127,,
26400,note_on,180,0,3,,,,,,,,,2,,,65,0
26400,note_on,60,0,4,,,,,,,,,3,,,54,0
26400,note_on,0,0,3,,,,,,,,,2,,,62,0
26400,note_on,60,0,2,,,,,,,,,1,,,66,0
26400,control_change,180,0,1,,,,,,,,,0,64,127,,
26430,note_on,0,0,1,,,,,,,,,0,,,83,75
26430,note_on,30,0,2,,,,,,,,,1,,,67,0
26430,note_on,30,0,1,,,,,,,,,0,,,77,0
26430,note_on,0,0,1,,,,,,,,,0,,,74,0
26460,note_on,30,0,1,,,,,,,,,0,,,83,0
26460,note_on,0,0,3,,,,,,,,,2,,,68,62
26460,note_on,0,0,3,,,,,,,,,2,,,65,62
26460,note_on,60,0,3,,,,,,,,,2,,,55,0
26460,note_on,0,0,3,,,,,,,,,2,,,62,62
26460,note_on,0,0,1,,,,,,,,,0,,,80,75
26466,note_on,0,0,3,,,,,,,,,2,,,65,0
26466,note_on,6,0,3,,,,,,,,,2,,,68,0
26466,note_on,0,0,3,,,,,,,,,2,,,62,0
26490,note_on,0,0,1,,,,,,,,,0,,,86,75
26490,note_on,30,0,1,,,,,,,,,0,,,80,0
26520,note_on,0,0,1,,,,,,,,,0,,,83,75
26520,note_on,30,0,1,,,,,,,,,0,,,86,0
26520,note_on,54,0,3,,,,,,,,,2,,,62,62
26520,note_on,0,0,3,,,,,,,,,2,,,65,62
26520,note_on,0,0,3,,,,,,,,,2,,,68,62
26526,note_on,6,0,3,,,,,,,,,2,,,68,0
26526,note_on,0,0,3,,,,,,,,,2,,,65,0
26526,note_on,0,0,3,,,,,,,,,2,,,62,0
26550,note_on,30,0,1,,,,,,,,,0,,,83,0
26550,note_on,0,0,1,,,,,,,,,0,,,89,75
26580,note_on,30,0,1,,,,,,,,,0,,,89,0
26580,note_on,54,0,3,,,,,,,,,2,,,55,62
26580,note_on,0,0,1,,,,,,,,,0,,,86,75
26586,note_on,6,0,3,,,,,,,,,2,,,55,0
26610,note_on,30,0,1,,,,,,,,,0,,,86,0
26610,note_on,0,0,1,,,,,,,,,0,,,83,75
26640,note_on,0,0,3,,,,,,,,,2,,,68,62
26640,note_on,0,0,3,,,,,,,,,2,,,65,62
26640,note_on,54,0,3,,,,,,,,,2,,,62,62
26640,note_on,30,0,1,,,,,,,,,0,,,83,0
26640,note_on,0,0,1,,,,,,,,,0,,,80,75
26646,note_on,6,0,3,,,,,,,,,2,,,68,0
26646,note_on,0,0,3,,,,,,,,,2,,,62,0
26646,note_on,0,0,3,,,,,,,,,2,,,65,0
26670,note_on,30,0,1,,,,,,,,,0,,,80,0
26670,note_on,0,0,1,,,,,,,,,0,,,77,75
26700,note_on,30,0,1,,,,,,,,,0,,,77,0
26700,note_on,54,0,3,,,,,,,,,2,,,62,62
26700,note_on,0,0,3,,,,,,,,,2,,,65,62
26700,note_on,0,0,1,,,,,,,,,0,,,86,75
26700,note_on,0,0,3,,,,,,,,,2,,,68,62
26706,note_on,6,0,3,,,,,,,,,2,,,68,0
26706,note_on,0,0,3,,,,,,,,,2,,,65,0
26706,note_on,0,0,3,,,,,,,,,2,,,62,0
26730,note_on,0,0,1,,,,,,,,,0,,,83,75
26730,note_on,30,0,1,,,,,,,,,0,,,86,0
26760,note_on,0,0,1,,,,,,,,,0,,,80,75
26760,note_on,30,0,1,,,,,,,,,0,,,83,0
26760,note_on,54,0,3,,,,,,,,,2,,,55,62
26766,note_on,6,0,3,,,,,,,,,2,,,55,0
26790,note_on,0,0,1,,,,,,,,,0,,,77,75
26790,note_on,30,0,1,,,,,,,,,0,,,80,0
26820,note_on,54,0,3,,,,,,,,,2,,,62,62
26820,note_on,0,0,3,,,,,,,,,2,,,68,62
26820,note_on,30,0,1,,,,,,,,,0,,,77,0
26820,note_on,0,0,1,,,,,,,,,0,,,83,75
26820,note_on,0,0,3,,,,,,,,,2,,,65,62
26826,note_on,6,0,3,,,,,,,,,2,,,68,0
26826,note_on,0,0,3,,,,,,,,,2,,,65,0
26826,note_on,0,0,3,,,,,,,,,2,,,62,0
26850,note_on,30,0,1,,,,,,,,,0,,,83,0
26850,note_on,0,0,1,,,,,,,,,0,,,80,75
26880,note_on,0,0,3,,,,,,,,,2,,,65,62
26880,note_on,54,0,3,,,,,,,,,2,,,62,62
26880,note_on,30,0,1,,,,,,,,,0,,,80,0
26880,note_on,0,0,3,,,,,,,,,2,,,68,62
26880,note_on,0,0,1,,,,,,,,,0,,,77,75
26886,note_on,0,0,3,,,,,,,,,2,,,62,0
26886,note_on,0,0,3,,,,,,,,,2,,,65,0
26886,note_on,6,0,3,,,,,,,,,2,,,68,0
26910,note_on,0,0,1,,,,,,,,,0,,,74,75
26910,note_on,30,0,1,,,,,,,,,0,,,77,0
26940,note_on,54,0,3,,,,,,,,,2,,,55,62
26940,note_on,0,0,1,,,,,,,,,0,,,80,75
26940,note_on,30,0,1,,,,,,,,,0,,,74,0
26946,note_on,6,0,3,,,,,,,,,2,,,55,0
26970,note_on,0,0,1,,,,,,,,,0,,,77,75
26970,note_on,30,0,1,,,,,,,,,0,,,80,0
27000,note_on,0,0,1,,,,,,,,,0,,,74,75
27000,control_change,0,0,1,,,,,,,,,0,64,0,,
27000,note_on,30,0,1,,,,,,,,,0,,,77,0
27000,control_change,54,0,3,,,,,,,,,2,64,0,,
27000,note_on,0,0,3,,,,,,,,,2,,,62,62
27000,note_on,0,0,3,,,,,,,,,2,,,65,62
27000,note_on,0,0,3,,,,,,,,,2,,,67,62
27006,note_on,6,0,3,,,,,,,,,2,,,67,0
27006,note_on,0,0,3,,,,,,,,,2,,,65,0
27006,note_on,0,0,3,,,,,,,,,2,,,62,0
27030,note_on,0,0,1,,,,,,,,,0,,,71,75
27030,note_on,30,0,1,,,,,,,,,0,,,74,0
27060,note_on,54,0,3,,,,,,,,,2,,,36,75
27060,note_on,0,0,1,,,,,,,,,0,,,79,88
27060,note_on,0,0,1,,,,,,,,,0,,,76,88
27060,note_on,0,0,1,,,,,,,,,0,,,67,88
27060,note_on,30,0,1,,,,,,,,,0,,,71,0
27060,note_on,0,0,3,,,,,,,,,2,,,48,75
27066,note_on,6,0,3,,,,,,,,,2,,,48,0
27066,note_on,0,0,3,,,,,,,,,2,,,36,0
27066,note_on,0,0,1,,,,,,,,,0,,,67,0
27066,note_on,0,0,1,,,,,,,,,0,,,76,0
27066,note_on,6,0,1,,,,,,,,,0,,,79,0
27120,note_on,0,0,1,,,,,,,,,0,,,76,88
27120,note_on,0,0,1,,,,,,,,,0,,,79,88
27120,control_change,54,0,1,,,,,,,,,0,64,127,,
27120,note_on,0,0,1,,,,,,,,,0,,,67,88
27120,control_change,54,0,3,,,,,,,,,2,64,127,,
27120,note_on,0,0,3,,,,,,,,,2,,,36,75
27120,note_on,0,0,3,,,,,,,,,2,,,48,75
27210,note_on,0,0,1,,,,,,,,,0,,,77,88
27210,note_on,0,0,1,,,,,,,,,0,,,74,88
27210,note_on,0,0,1,,,,,,,,,0,,,65,88
27210,note_on,0,0,1,,,,,,,,,0,,,67,0
27210,note_on,0,0,1,,,,,,,,,0,,,76,0
27210,note_on,90,0,1,,,,,,,,,0,,,79,0
27240,note_on,0,0,1,,,,,,,,,0,,,65,0
27240,note_on,120,0,3,,,,,,,,,2,,,48,0
27240,note_on,0,0,3,,,,,,,,,2,,,36,0
27240,note_on,0,0,3,,,,,,,,,2,,,48,75
27240,note_on,30,0,1,,,,,,,,,0,,,77,0
27240,note_on,0,0,3,,,,,,,,,2,,,60,75
27240,note_on,0,0,1,,,,,,,,,0,,,64,88
27240,note_on,0,0,1,,,,,,,,,0,,,76,88
27240,note_on,0,0,1,,,,,,,,,0,,,72,88
27240,note_on,0,0,1,,,,,,,,,0,,,74,0
27240,note_on,0,0,3,,,,,,,,,2,,,58,75
27246,note_on,6,0,3,,,,,,,,,2,,,60,0
27246,note_on,0,0,3,,,,,,,,,2,,,58,0
27246,note_on,0,0,3,,,,,,,,,2,,,48,0
27300,note_on,0,0,1,,,,,,,,,0,,,76,88
27300,control_change,0,0,1,,,,,,,,,0,64,0,,
27300,note_on,0,0,1,,,,,,,,,0,,,72,88
27300,note_on,0,0,1,,,,,,,,,0,,,64,88
27300,note_on,0,0,1,,,,,,,,,0,,,64,0
27300,note_on,60,0,1,,,,,,,,,0,,,76,0
27300,note_on,0,0,3,,,,,,,,,2,,,48,75
27300,control_change,54,0,3,,,,,,,,,2,64,0,,
27300,note_on,0,0,1,,,,,,,,,0,,,72,0
27300,note_on,0,0,3,,,,,,,,,2,,,60,75
27300,note_on,0,0,3,,,,,,,,,2,,,58,75
27306,note_on,0,0,1,,,,,,,,,0,,,64,0
27306,note_on,0,0,1,,,,,,,,,0,,,72,0
27306,note_on,6,0,1,,,,,,,,,0,,,76,0
27306,note_on,6,0,3,,,,,,,,,2,,,60,0
27306,note_on,0,0,3,,,,,,,,,2,,,48,0
27306,note_on,0,0,3,,,,,,,,,2,,,58,0
27360,note_on,54,0,3,,,,,,,,,2,,,48,75
27360,note_on,0,0,3,,,,,,,,,2,,,60,75
27360,note_on,0,0,3,,,,,,,,,2,,,58,75
27360,note_on,54,0,1,,,,,,,,,0,,,64,88
27360,note_on,0,0,1,,,,,,,,,0,,,72,88
27360,note_on,0,0,1,,,,,,,,,0,,,76,88
27366,note_on,0,0,3,,,,,,,,,2,,,48,0
27366,note_on,0,0,1,,,,,,,,,0,,,64,0
27366,note_on,6,0,3,,,,,,,,,2,,,60,0
27366,note_on,6,0,1,,,,,,,,,0,,,76,0
27366,note_on,0,0,1,,,,,,,,,0,,,72,0
27366,note_on,0,0,3,,,,,,,,,2,,,58,0
27420,note_on,0,0,1,,,,,,,,,0,,,76,88
27420,note_on,0,0,3,,,,,,,,,2,,,60,75
27420,note_on,54,0,1,,,,,,,,,0,,,64,88
27420,note_on,54,0,3,,,,,,,,,2,,,48,75
27420,note_on,0,0,3,,,,,,,,,2,,,58,75
27420,note_on,0,0,1,,,,,,,,,0,,,72,88
27426,note_on,0,0,3,,,,,,,,,2,,,48,0
27426,note_on,0,0,3,,,,,,,,,2,,,58,0
27426,note_on,6,0,3,,,,,,,,,2,,,60,0
27426,note_on,0,0,1,,,,,,,,,0,,,72,0
27426,note_on,6,0,1,,,,,,,,,0,,,76,0
27426,note_on,0,0,1,,,,,,,,,0,,,64,0
27480,note_on,0,0,4,,,,,,,,,3,,,57,75
27480,control_change,1080,0,4,,,,,,,,,3,64,127,,
27480,note_on,1050,0,2,,,,,,,,,1,,,72,36
27480,note_on,0,0,3,,,,,,,,,2,,,60,75
27480,note_on,54,0,3,,,,,,,,,2,,,48,75
27480,note_on,0,0,1,,,,,,,,,0,,,77,88
27480,note_on,0,0,1,,,,,,,,,0,,,65,88
27480,control_change,54,0,1,,,,,,,,,0,64,127,,
27600,note_on,120,0,4,,,,,,,,,3,,,57,0
27600,note_on,120,0,1,,,,,,,,,0,,,77,0
27600,note_on,0,0,1,,,,,,,,,0,,,65,0
27600,note_on,0,0,1,,,,,,,,,0,,,81,88
27600,note_on,0,0,1,,,,,,,,,0,,,69,88
27600,note_on,0,0,4,,,,,,,,,3,,,53,75
27660,control_change,0,0,1,,,,,,,,,0,64,0,,
27660,note_on,0,0,1,,,,,,,,,0,,,79,88
27660,note_on,0,0,1,,,,,,,,,0,,,67,88
27660,note_on,0,0,1,,,,,,,,,0,,,69,0
27660,note_on,60,0,1,,,,,,,,,0,,,81,0
27660,control_change,0,0,4,,,,,,,,,3,64,0,,
27660,note_on,0,0,4,,,,,,,,,3,,,52,75
27660,note_on,60,0,4,,,,,,,,,3,,,53,0
27780,note_on,300,0,3,,,,,,,,,2,,,60,0
27780,note_on,0,0,3,,,,,,,,,2,,,48,0
27780,note_on,0,0,3,,,,,,,,,2,,,70,36
27780,note_on,300,0,2,,,,,,,,,1,,,72,0
27780,note_on,120,0,4,,,,,,,,,3,,,52,0
27780,note_on,0,0,1,,,,,,,,,0,,,76,49
27780,note_on,0,0,4,,,,,,,,,3,,,60,36
27780,note_on,0,0,1,,,,,,,,,0,,,67,0
27780,note_on,0,0,3,,,,,,,,,2,,,72,36
27780,note_on,0,0,1,,,,,,,,,0,,,84,49
27780,note_on,0,0,1,,,,,,,,,0,,,88,49
27780,note_on,120,0,1,,,,,,,,,0,,,79,0
27786,note_on,0,0,1,,,,,,,,,0,,,76,0
27786,note_on,6,0,3,,,,,,,,,2,,,72,0
27786,note_on,0,0,3,,,,,,,,,2,,,70,0
27786,note_on,6,0,1,,,,,,,,,0,,,88,0
27786,note_on,0,0,1,,,,,,,,,0,,,84,0
27840,note_on,0,0,1,,,,,,,,,0,,,77,49
27840,note_on,60,0,4,,,,,,,,,3,,,60,0
27840,control_change,0,0,4,,,,,,,,,3,64,127,,
27840,note_on,0,0,4,,,,,,,,,3,,,69,36
27840,note_on,54,0,3,,,,,,,,,2,,,60,36
27840,note_on,0,0,3,,,,,,,,,2,,,72,36
27840,note_on,0,0,1,,,,,,,,,0,,,89,49
27840,note_on,60,0,2,,,,,,,,,1,,,84,36
27840,control_change,54,0,1,,,,,,,,,0,64,127,,
27960,note_on,0,0,1,,,,,,,,,0,,,77,0
27960,note_on,0,0,4,,,,,,,,,3,,,65,36
27960,note_on,120,0,4,,,,,,,,,3,,,69,0
27960,note_on,120,0,1,,,,,,,,,0,,,89,0
27960,note_on,0,0,1,,,,,,,,,0,,,81,49
27960,note_on,0,0,1,,,,,,,,,0,,,93,49
28020,note_on,60,0,1,,,,,,,,,0,,,93,0
28020,note_on,0,0,1,,,,,,,,,0,,,81,0
28020,note_on,60,0,4,,,,,,,,,3,,,65,0
28020,control_change,0,0,4,,,,,,,,,3,64,0,,
28020,note_on,0,0,4,,,,,,,,,3,,,64,36
28020,note_on,0,0,1,,,,,,,,,0,,,79,49
28020,note_on,0,0,1,,,,,,,,,0,,,91,49
28020,control_change,0,0,1,,,,,,,,,0,64,0,,
28080,note_on,60,0,4,,,,,,,,,3,,,64,0
28080,note_on,240,0,3,,,,,,,,,2,,,72,0
28080,note_on,0,0,3,,,,,,,,,2,,,60,0
28140,note_on,0,0,1,,,,,,,,,0,,,72,49
28140,note_on,0,0,3,,,,,,,,,2,,,60,36
28140,note_on,300,0,2,,,,,,,,,1,,,84,0
28140,note_on,60,0,3,,,,,,,,,2,,,52,36
28140,note_on,0,0,2,,,,,,,,,1,,,67,36
28140,note_on,0,0,1,,,,,,,,,0,,,79,0
28140,note_on,120,0,1,,,,,,,,,0,,,91,0
28146,note_on,6,0,3,,,,,,,,,2,,,60,0
28146,note_on,0,0,3,,,,,,,,,2,,,52,0
28170,note_on,30,0,1,,,,,,,,,0,,,72,0
28170,note_on,0,0,1,,,,,,,,,0,,,74,49
28200,note_on,54,0,3,,,,,,,,,2,,,53,36
28200,note_on,0,0,2,,,,,,,,,1,,,72,36
28200,note_on,30,0,1,,,,,,,,,0,,,74,0
28200,note_on,0,0,1,,,,,,,,,0,,,74,49
28200,note_on,0,0,2,,,,,,,,,1,,,69,36
28200,note_on,60,0,2,,,,,,,,,1,,,67,0
28200,note_on,0,0,3,,,,,,,,,2,,,60,36
28200,note_on,0,0,3,,,,,,,,,2,,,62,36
28320,note_on,120,0,2,,,,,,,,,1,,,72,0
28320,note_on,0,0,3,,,,,,,,,2,,,60,0
28320,note_on,0,0,3,,,,,,,,,2,,,53,0
28320,note_on,0,0,3,,,,,,,,,2,,,53,36
28320,note_on,0,0,3,,,,,,,,,2,,,60,36
28320,note_on,0,0,3,,,,,,,,,2,,,62,36
28320,note_on,120,0,1,,,,,,,,,0,,,74,0
28320,note_on,0,0,1,,,,,,,,,0,,,74,49
28320,note_on,0,0,2,,,,,,,,,1,,,69,0
28320,note_on,0,0,2,,,,,,,,,1,,,69,36
28320,note_on,0,0,2,,,,,,,,,1,,,72,36
28320,note_on,120,0,3,,,,,,,,,2,,,62,0
28326,note_on,6,0,3,,,,,,,,,2,,,62,0
28326,note_on,0,0,3,,,,,,,,,2,,,60,0
28326,note_on,0,0,3,,,,,,,,,2,,,53,0
28350,note_on,30,0,1,,,,,,,,,0,,,74,0
28350,note_on,0,0,1,,,,,,,,,0,,,75,49
28380,note_on,0,0,2,,,,,,,,,1,,,69,49
28380,note_on,0,0,2,,,,,,,,,1,,,72,49
28380,note_on,0,0,1,,,,,,,,,0,,,75,62
28380,note_on,30,0,1,,,,,,,,,0,,,75,0
28380,note_on,0,0,3,,,,,,,,,2,,,63,49
28380,note_on,0,0,3,,,,,,,,,2,,,60,49
28380,note_on,54,0,3,,,,,,,,,2,,,54,49
28380,note_on,0,0,2,,,,,,,,,1,,,69,0
28380,note_on,60,0,2,,,,,,,,,1,,,72,0
28500,note_on,120,0,2,,,,,,,,,1,,,72,0
28500,note_on,0,0,2,,,,,,,,,1,,,69,0
28500,note_on,0,0,2,,,,,,,,,1,,,69,49
28500,note_on,0,0,2,,,,,,,,,1,,,72,49
28500,note_on,0,0,3,,,,,,,,,2,,,60,49
28500,note_on,0,0,3,,,,,,,,,2,,,60,0
28500,note_on,0,0,3,,,,,,,,,2,,,54,0
28500,note_on,0,0,3,,,,,,,,,2,,,54,49
28500,note_on,0,0,3,,,,,,,,,2,,,63,49
28500,note_on,120,0,3,,,,,,,,,2,,,63,0
28500,note_on,0,0,1,,,,,,,,,0,,,75,62
28500,note_on,120,0,1,,,,,,,,,0,,,75,0
28506,note_on,6,0,3,,,,,,,,,2,,,63,0
28506,note_on,0,0,3,,,,,,,,,2,,,60,0
28506,note_on,0,0,3,,,,,,,,,2,,,54,0
28530,note_on,0,0,1,,,,,,,,,0,,,76,62
28530,note_on,30,0,1,,,,,,,,,0,,,75,0
28560,note_on,0,0,1,,,,,,,,,0,,,76,75
28560,note_on,30,0,1,,,,,,,,,0,,,76,0
28560,note_on,0,0,2,,,,,,,,,1,,,72,62
28560,note_on,0,0,2,,,,,,,,,1,,,67,62
28560,note_on,0,0,2,,,,,,,,,1,,,69,0
28560,note_on,60,0,2,,,,,,,,,1,,,72,0
28560,note_on,0,0,3,,,,,,,,,2,,,64,62
28560,note_on,0,0,3,,,,,,,,,2,,,60,62
28560,note_on,54,0,3,,,,,,,,,2,,,55,62
28680,note_on,120,0,1,,,,,,,,,0,,,76,0
28680,note_on,0,0,1,,,,,,,,,0,,,76,75
28680,note_on,0,0,3,,,,,,,,,2,,,60,62
28680,note_on,0,0,3,,,,,,,,,2,,,55,62
28680,note_on,0,0,3,,,,,,,,,2,,,55,0
28680,note_on,0,0,3,,,,,,,,,2,,,60,0
28680,note_on,0,0,3,,,,,,,,,2,,,64,62
28680,note_on,0,0,2,,,,,,,,,1,,,70,62
28680,note_on,120,0,2,,,,,,,,,1,,,72,0
28680,note_on,0,0,2,,,,,,,,,1,,,67,0
28680,note_on,120,0,3,,,,,,,,,2,,,64,0
28680,note_on,0,0,2,,,,,,,,,1,,,72,62
28686,note_on,0,0,3,,,,,,,,,2,,,60,0
28686,note_on,0,0,3,,,,,,,,,2,,,55,0
28686,note_on,6,0,3,,,,,,,,,2,,,64,0
28710,note_on,30,0,1,,,,,,,,,0,,,76,0
28710,note_on,0,0,1,,,,,,,,,0,,,77,75
28740,note_on,54,0,3,,,,,,,,,2,,,56,75
28740,note_on,0,0,3,,,,,,,,,2,,,65,75
28740,note_on,30,0,1,,,,,,,,,0,,,77,0
28740,note_on,60,0,2,,,,,,,,,1,,,72,0
28740,note_on,0,0,3,,,,,,,,,2,,,60,75
28740,note_on,0,0,2,,,,,,,,,1,,,68,75
28740,note_on,0,0,2,,,,,,,,,1,,,70,0
28740,note_on,0,0,1,,,,,,,,,0,,,77,88
28740,note_on,0,0,2,,,,,,,,,1,,,72,75
28860,note_on,0,0,3,,,,,,,,,2,,,45,101
28860,note_on,0,0,3,,,,,,,,,2,,,33,101
28860,note_on,0,0,3,,,,,,,,,2,,,56,0
28860,note_on,120,0,3,,,,,,,,,2,,,65,0
28860,note_on,0,0,3,,,,,,,,,2,,,60,0
28860,note_on,0,0,2,,,,,,,,,1,,,68,0
28860,note_on,120,0,2,,,,,,,,,1,,,72,0
28860,note_on,0,0,1,,,,,,,,,0,,,78,114
28860,note_on,0,0,1,,,,,,,,,0,,,75,114
28860,note_on,120,0,1,,,,,,,,,0,,,77,0
28860,note_on,0,0,2,,,,,,,,,1,,,66,101
28860,note_on,0,0,2,,,,,,,,,1,,,72,101
28920,note_on,60,0,3,,,,,,,,,2,,,45,0
28920,note_on,0,0,3,,,,,,,,,2,,,33,0
28920,control_change,0,0,3,,,,,,,,,2,64,127,,
28920,note_on,0,0,3,,,,,,,,,2,,,34,36
28920,note_on,0,0,3,,,,,,,,,2,,,46,36
28920,note_on,60,0,2,,,,,,,,,1,,,72,0
28920,note_on,0,0,1,,,,,,,,,0,,,79,75
28920,note_on,0,0,2,,,,,,,,,1,,,70,36
28920,note_on,0,0,2,,,,,,,,,1,,,67,36
28920,note_on,0,0,2,,,,,,,,,1,,,66,0
28920,control_change,0,0,1,,,,,,,,,0,64,127,,
28920,note_on,0,0,1,,,,,,,,,0,,,75,0
28920,note_on,60,0,1,,,,,,,,,0,,,78,0
28980,note_on,0,0,3,,,,,,,,,2,,,58,36
28980,note_on,0,0,3,,,,,,,,,2,,,34,0
28980,note_on,60,0,3,,,,,,,,,2,,,46,0
28980,note_on,900,0,4,,,,,,,,,3,,,55,62
29010,note_on,0,0,1,,,,,,,,,0,,,77,49
29010,note_on,90,0,1,,,,,,,,,0,,,79,0
29040,note_on,0,0,1,,,,,,,,,0,,,75,49
29040,note_on,30,0,1,,,,,,,,,0,,,77,0
29040,control_change,0,0,1,,,,,,,,,0,64,0,,
29040,note_on,60,0,3,,,,,,,,,2,,,58,0
29040,control_change,0,0,3,,,,,,,,,2,64,0,,
29040,note_on,0,0,3,,,,,,,,,2,,,63,36
29044,note_on,4,0,1,,,,,,,,,0,,,75,0
29100,note_on,0,0,1,,,,,,,,,0,,,75,49
29100,note_on,0,0,2,,,,,,,,,1,,,67,0
29100,note_on,180,0,2,,,,,,,,,1,,,70,0
29100,note_on,0,0,3,,,,,,,,,2,,,46,36
29100,note_on,0,0,3,,,,,,,,,2,,,34,36
29100,note_on,0,0,2,,,,,,,,,1,,,70,36
29100,control_change,56,0,1,,,,,,,,,0,64,127,,
29100,control_change,0,0,3,,,,,,,,,2,64,127,,
29100,note_on,60,0,3,,,,,,,,,2,,,63,0
29100,note_on,0,0,2,,,,,,,,,1,,,68,36
29100,note_on,120,0,4,,,,,,,,,3,,,55,0
29160,note_on,60,0,1,,,,,,,,,0,,,75,0
29160,note_on,0,0,1,,,,,,,,,0,,,74,49
29160,note_on,0,0,3,,,,,,,,,2,,,58,36
29160,note_on,60,0,3,,,,,,,,,2,,,46,0
29160,note_on,60,0,4,,,,,,,,,3,,,56,62
29160,note_on,0,0,3,,,,,,,,,2,,,34,0
29190,note_on,0,0,1,,,,,,,,,0,,,72,49
29190,note_on,30,0,1,,,,,,,,,0,,,74,0
29220,note_on,0,0,3,,,,,,,,,2,,,62,36
29220,note_on,0,0,1,,,,,,,,,0,,,70,49
29220,control_change,0,0,1,,,,,,,,,0,64,0,,
29220,control_change,0,0,3,,,,,,,,,2,64,0,,
29220,note_on,60,0,3,,,,,,,,,2,,,58,0
29220,note_on,30,0,1,,,,,,,,,0,,,72,0
29226,note_on,6,0,1,,,,,,,,,0,,,70,0
29280,control_change,54,0,1,,,,,,,,,0,64,127,,
29280,note_on,0,0,1,,,,,,,,,0,,,79,75
29280,note_on,120,0,4,,,,,,,,,3,,,56,0
29280,control_change,0,0,3,,,,,,,,,2,64,127,,
29280,note_on,180,0,2,,,,,,,,,1,,,70,0
29280,note_on,0,0,2,,,,,,,,,1,,,68,0
29280,note_on,0,0,2,,,,,,,,,1,,,67,36
29280,note_on,0,0,2,,,,,,,,,1,,,70,36
29280,note_on,0,0,3,,,,,,,,,2,,,34,36
29280,note_on,0,0,3,,,,,,,,,2,,,46,36
29280,note_on,60,0,3,,,,,,,,,2,,,62,0
29340,note_on,0,0,3,,,,,,,,,2,,,34,0
29340,note_on,0,0,3,,,,,,,,,2,,,58,36
29340,note_on,60,0,4,,,,,,,,,3,,,55,62
29340,note_on,60,0,3,,,,,,,,,2,,,46,0
29370,note_on,90,0,1,,,,,,,,,0,,,79,0
29370,note_on,0,0,1,,,,,,,,,0,,,77,49
29400,note_on,0,0,3,,,,,,,,,2,,,63,36
29400,control_change,0,0,3,,,,,,,,,2,64,0,,
29400,note_on,60,0,3,,,,,,,,,2,,,58,0
29400,note_on,30,0,1,,,,,,,,,0,,,77,0
29400,control_change,0,0,1,,,,,,,,,0,64,0,,
29400,note_on,0,0,1,,,,,,,,,0,,,75,49
29404,note_on,4,0,1,,,,,,,,,0,,,75,0
29460,note_on,0,0,2,,,,,,,,,1,,,68,36
29460,note_on,0,0,2,,,,,,,,,1,,,70,36
29460,note_on,0,0,3,,,,,,,,,2,,,46,36
29460,note_on,180,0,2,,,,,,,,,1,,,70,0
29460,control_change,56,0,1,,,,,,,,,0,64,127,,
29460,note_on,0,0,1,,,,,,,,,0,,,75,49
29460,note_on,0,0,3,,,,,,,,,2,,,34,36
29460,note_on,60,0,3,,,,,,,,,2,,,63,0
29460,control_change,0,0,3,,,,,,,,,2,64,127,,
29460,note_on,120,0,4,,,,,,,,,3,,,55,0
29460,note_on,0,0,2,,,,,,,,,1,,,67,0
29520,note_on,60,0,4,,,,,,,,,3,,,56,62
29520,note_on,0,0,3,,,,,,,,,2,,,58,36
29520,note_on,60,0,1,,,,,,,,,0,,,75,0
29520,note_on,60,0,3,,,,,,,,,2,,,46,0
29520,note_on,0,0,3,,,,,,,,,2,,,34,0
29520,note_on,0,0,1,,,,,,,,,0,,,74,49
29550,note_on,0,0,1,,,,,,,,,0,,,72,49
29550,note_on,30,0,1,,,,,,,,,0,,,74,0
29580,note_on,0,0,1,,,,,,,,,0,,,70,49
29580,control_change,0,0,1,,,,,,,,,0,64,0,,
29580,note_on,30,0,1,,,,,,,,,0,,,72,0
29580,control_change,0,0,3,,,,,,,,,2,64,0,,
29580,note_on,60,0,3,,,,,,,,,2,,,58,0
29580,note_on,0,0,3,,,,,,,,,2,,,62,36
29640,note_on,60,0,3,,,,,,,,,2,,,62,0
29640,note_on,0,0,3,,,,,,,,,2,,,48,62
29640,note_on,0,0,3,,,,,,,,,2,,,36,62
29640,control_change,0,0,3,,,,,,,,,2,64,127,,
29640,note_on,0,0,2,,,,,,,,,1,,,68,0
29640,note_on,120,0,4,,,,,,,,,3,,,56,0
29640,note_on,180,0,2,,,,,,,,,1,,,70,0
29640,control_change,0,0,1,,,,,,,,,0,64,127,,
29640,note_on,0,0,2,,,,,,,,,1,,,72,62
29640,note_on,0,0,1,,,,,,,,,0,,,80,101
29640,note_on,60,0,1,,,,,,,,,0,,,70,0
29640,note_on,0,0,2,,,,,,,,,1,,,68,62
29700,note_on,0,0,3,,,,,,,,,2,,,60,62
29700,note_on,0,0,3,,,,,,,,,2,,,36,0
29700,note_on,60,0,3,,,,,,,,,2,,,48,0
29700,note_on,60,0,4,,,,,,,,,3,,,56,88
29730,note_on,90,0,1,,,,,,,,,0,,,80,0
29730,note_on,0,0,1,,,,,,,,,0,,,79,75
29760,note_on,30,0,1,,,,,,,,,0,,,79,0
29760,control_change,0,0,1,,,,,,,,,0,64,0,,
29760,control_change,0,0,3,,,,,,,,,2,64,0,,
29760,note_on,60,0,3,,,,,,,,,2,,,60,0
29760,note_on,0,0,1,,,,,,,,,0,,,77,75
29760,note_on,0,0,3,,,,,,,,,2,,,65,62
29820,note_on,0,0,1,,,,,,,,,0,,,77,75
29820,control_change,0,0,3,,,,,,,,,2,64,127,,
29820,note_on,0,0,3,,,,,,,,,2,,,36,62
29820,note_on,0,0,3,,,,,,,,,2,,,48,62
29820,note_on,60,0,3,,,,,,,,,2,,,65,0
29820,note_on,180,0,2,,,,,,,,,1,,,72,0
29820,note_on,0,0,2,,,,,,,,,1,,,72,62
29820,note_on,0,0,2,,,,,,,,,1,,,70,62
29820,control_change,0,0,1,,,,,,,,,0,64,127,,
29820,note_on,60,0,1,,,,,,,,,0,,,77,0
29820,note_on,0,0,2,,,,,,,,,1,,,68,0
29820,note_on,120,0,4,,,,,,,,,3,,,56,0
29880,note_on,0,0,1,,,,,,,,,0,,,76,75
29880,note_on,60,0,4,,,,,,,,,3,,,58,88
29880,note_on,0,0,3,,,,,,,,,2,,,36,0
29880,note_on,60,0,1,,,,,,,,,0,,,77,0
29880,note_on,0,0,3,,,,,,,,,2,,,60,62
29880,note_on,60,0,3,,,,,,,,,2,,,48,0
29910,note_on,0,0,1,,,,,,,,,0,,,74,75
29910,note_on,30,0,1,,,,,,,,,0,,,76,0
29940,control_change,0,0,1,,,,,,,,,0,64,0,,
29940,note_on,0,0,1,,,,,,,,,0,,,72,75
29940,note_on,0,0,3,,,,,,,,,2,,,64,62
29940,control_change,0,0,3,,,,,,,,,2,64,0,,
29940,note_on,60,0,3,,,,,,,,,2,,,60,0
29940,note_on,30,0,1,,,,,,,,,0,,,74,0
30000,note_on,120,0,4,,,,,,,,,3,,,58,0
30000,control_change,0,0,3,,,,,,,,,2,64,127,,
30000,control_change,0,0,1,,,,,,,,,0,64,127,,
30000,note_on,0,0,1,,,,,,,,,0,,,80,101
30000,note_on,60,0,1,,,,,,,,,0,,,72,0
30000,note_on,0,0,2,,,,,,,,,1,,,68,62
30000,note_on,0,0,2,,,,,,,,,1,,,70,0
30000,note_on,0,0,2,,,,,,,,,1,,,72,62
30000,note_on,0,0,3,,,,,,,,,2,,,48,62
30000,note_on,0,0,3,,,,,,,,,2,,,36,62
30000,note_on,180,0,2,,,,,,,,,1,,,72,0
30000,note_on,60,0,3,,,,,,,,,2,,,64,0
30060,note_on,0,0,3,,,,,,,,,2,,,60,62
30060,note_on,0,0,3,,,,,,,,,2,,,36,0
30060,note_on,60,0,3,,,,,,,,,2,,,48,0
30060,note_on,60,0,4,,,,,,,,,3,,,56,88
30090,note_on,0,0,1,,,,,,,,,0,,,79,75
30090,note_on,90,0,1,,,,,,,,,0,,,80,0
30120,control_change,0,0,1,,,,,,,,,0,64,0,,
30120,note_on,0,0,1,,,,,,,,,0,,,77,75
30120,note_on,30,0,1,,,,,,,,,0,,,79,0
30120,note_on,60,0,3,,,,,,,,,2,,,60,0
30120,control_change,0,0,3,,,,,,,,,2,64,0,,
30120,note_on,0,0,3,,,,,,,,,2,,,65,62
30180,note_on,0,0,3,,,,,,,,,2,,,48,62
30180,note_on,60,0,3,,,,,,,,,2,,,65,0
30180,note_on,180,0,2,,,,,,,,,1,,,72,0
30180,note_on,0,0,2,,,,,,,,,1,,,68,0
30180,note_on,0,0,2,,,,,,,,,1,,,70,62
30180,note_on,0,0,2,,,,,,,,,1,,,72,62
30180,control_change,0,0,3,,,,,,,,,2,64,127,,
30180,note_on,0,0,1,,,,,,,,,0,,,77,75
30180,control_change,0,0,1,,,,,,,,,0,64,127,,
30180,note_on,60,0,1,,,,,,,,,0,,,77,0
30180,note_on,0,0,3,,,,,,,,,2,,,36,62
30180,note_on,120,0,4,,,,,,,,,3,,,56,0
30240,note_on,0,0,1,,,,,,,,,0,,,76,75
30240,note_on,60,0,1,,,,,,,,,0,,,77,0
30240,note_on,60,0,4,,,,,,,,,3,,,58,88
30240,note_on,0,0,3,,,,,,,,,2,,,36,0
30240,note_on,0,0,3,,,,,,,,,2,,,60,62
30240,note_on,60,0,3,,,,,,,,,2,,,48,0
30270,note_on,30,0,1,,,,,,,,,0,,,76,0
30270,note_on,0,0,1,,,,,,,,,0,,,74,75
30300,note_on,60,0,3,,,,,,,,,2,,,60,0
30300,control_change,0,0,3,,,,,,,,,2,64,0,,
30300,note_on,0,0,3,,,,,,,,,2,,,64,62
30300,note_on,30,0,1,,,,,,,,,0,,,74,0
30300,control_change,0,0,1,,,,,,,,,0,64,0,,
30300,note_on,0,0,1,,,,,,,,,0,,,72,75
30360,note_on,60,0,1,,,,,,,,,0,,,72,0
30360,control_change,0,0,1,,,,,,,,,0,64,127,,
30360,note_on,0,0,1,,,,,,,,,0,,,81,114
30360,note_on,120,0,4,,,,,,,,,3,,,58,0
30360,note_on,0,0,2,,,,,,,,,1,,,72,75
30360,note_on,0,0,2,,,,,,,,,1,,,69,75
30360,note_on,0,0,2,,,,,,,,,1,,,70,0
30360,note_on,180,0,2,,,,,,,,,1,,,72,0
30360,note_on,0,0,3,,,,,,,,,2,,,53,75
30360,note_on,0,0,3,,,,,,,,,2,,,41,75
30360,note_on,60,0,3,,,,,,,,,2,,,64,0
30450,note_on,0,0,1,,,,,,,,,0,,,79,88
30450,note_on,90,0,1,,,,,,,,,0,,,81,0
30480,note_on,0,0,1,,,,,,,,,0,,,77,88
30480,note_on,30,0,1,,,,,,,,,0,,,79,0
30540,note_on,180,0,2,,,,,,,,,1,,,72,0
30540,note_on,0,0,2,,,,,,,,,1,,,72,75
30540,note_on,60,0,1,,,,,,,,,0,,,77,0
30540,note_on,0,0,2,,,,,,,,,1,,,69,0
30540,note_on,0,0,2,,,,,,,,,1,,,69,75
30540,note_on,0,0,1,,,,,,,,,0,,,77,114
30540,note_on,180,0,3,,,,,,,,,2,,,53,0
30540,note_on,0,0,3,,,,,,,,,2,,,41,0
30540,note_on,0,0,3,,,,,,,,,2,,,53,75
30540,note_on,0,0,3,,,,,,,,,2,,,57,75
30540,note_on,0,0,3,,,,,,,,,2,,,65,75
30630,note_on,0,0,1,,,,,,,,,0,,,76,88
30630,note_on,90,0,1,,,,,,,,,0,,,77,0
30660,note_on,30,0,1,,,,,,,,,0,,,76,0
30660,control_change,0,0,1,,,,,,,,,0,64,0,,
30660,note_on,0,0,1,,,,,,,,,0,,,75,88
30720,note_on,0,0,3,,,,,,,,,2,,,41,75
30720,note_on,0,0,3,,,,,,,,,2,,,53,75
30720,note_on,60,0,1,,,,,,,,,0,,,75,0
30720,note_on,0,0,2,,,,,,,,,1,,,72,75
30720,note_on,0,0,2,,,,,,,,,1,,,69,75
30720,note_on,0,0,2,,,,,,,,,1,,,69,0
30720,note_on,180,0,2,,,,,,,,,1,,,72,0
30720,note_on,0,0,3,,,,,,,,,2,,,53,0
30720,note_on,0,0,3,,,,,,,,,2,,,57,0
30720,note_on,180,0,3,,,,,,,,,2,,,65,0
30720,note_on,0,0,1,,,,,,,,,0,,,81,114
30720,control_change,0,0,1,,,,,,,,,0,64,127,,
30810,note_on,0,0,1,,,,,,,,,0,,,79,88
30810,note_on,90,0,1,,,,,,,,,0,,,81,0
30840,note_on,0,0,1,,,,,,,,,0,,,77,88
30840,note_on,30,0,1,,,,,,,,,0,,,79,0
30900,note_on,0,0,1,,,,,,,,,0,,,77,114
30900,note_on,0,0,3,,,,,,,,,2,,,53,75
30900,note_on,180,0,3,,,,,,,,,2,,,53,0
30900,note_on,0,0,3,,,,,,,,,2,,,41,0
30900,note_on,0,0,3,,,,,,,,,2,,,65,75
30900,note_on,0,0,3,,,,,,,,,2,,,57,75
30900,note_on,0,0,2,,,,,,,,,1,,,72,75
30900,note_on,0,0,2,,,,,,,,,1,,,69,75
30900,note_on,0,0,2,,,,,,,,,1,,,69,0
30900,note_on,180,0,2,,,,,,,,,1,,,72,0
30900,note_on,60,0,1,,,,,,,,,0,,,77,0
30990,note_on,90,0,1,,,,,,,,,0,,,77,0
30990,note_on,0,0,1,,,,,,,,,0,,,76,88
31020,note_on,30,0,1,,,,,,,,,0,,,76,0
31020,control_change,0,0,1,,,,,,,,,0,64,0,,
31020,note_on,0,0,1,,,,,,,,,0,,,75,88
31080,note_on,0,0,3,,,,,,,,,2,,,49,75
31080,note_on,0,0,3,,,,,,,,,2,,,37,75
31080,note_on,0,0,3,,,,,,,,,2,,,53,0
31080,note_on,0,0,2,,,,,,,,,1,,,80,101
31080,note_on,180,0,3,,,,,,,,,2,,,65,0
31080,note_on,0,0,3,,,,,,,,,2,,,57,0
31080,control_change,0,0,1,,,,,,,,,0,64,127,,
31080,note_on,0,0,1,,,,,,,,,0,,,89,114
31080,note_on,0,0,2,,,,,,,,,1,,,77,93
31080,note_on,0,0,2,,,,,,,,,1,,,69,0
31080,note_on,180,0,2,,,,,,,,,1,,,72,0
31080,note_on,60,0,1,,,,,,,,,0,,,75,0
31170,note_on,90,0,1,,,,,,,,,0,,,89,0
31170,note_on,0,0,1,,,,,,,,,0,,,87,88
31200,note_on,30,0,1,,,,,,,,,0,,,87,0
31200,note_on,0,0,1,,,,,,,,,0,,,85,88
31260,note_on,0,0,3,,,,,,,,,2,,,37,0
31260,note_on,0,0,1,,,,,,,,,0,,,85,114
31260,note_on,180,0,3,,,,,,,,,2,,,49,0
31260,note_on,0,0,3,,,,,,,,,2,,,61,75
31260,note_on,0,0,3,,,,,,,,,2,,,49,75
31260,note_on,60,0,1,,,,,,,,,0,,,85,0
31260,note_on,0,0,2,,,,,,,,,1,,,80,101
31260,note_on,0,0,3,,,,,,,,,2,,,53,75
31260,note_on,180,0,2,,,,,,,,,1,,,80,0
31260,note_on,0,0,2,,,,,,,,,1,,,77,0
31260,note_on,0,0,2,,,,,,,,,1,,,77,93
31350,note_on,90,0,1,,,,,,,,,0,,,85,0
31350,note_on,0,0,1,,,,,,,,,0,,,84,88
31380,note_on,0,0,1,,,,,,,,,0,,,83,88
31380,note_on,30,0,1,,,,,,,,,0,,,84,0
31380,control_change,0,0,1,,,,,,,,,0,64,0,,
31440,note_on,0,0,2,,,,,,,,,1,,,80,114
31440,note_on,0,0,3,,,,,,,,,2,,,49,88
31440,note_on,0,0,3,,,,,,,,,2,,,37,88
31440,note_on,0,0,1,,,,,,,,,0,,,89,127
31440,control_change,0,0,1,,,,,,,,,0,64,127,,
31440,note_on,60,0,1,,,,,,,,,0,,,83,0
31440,note_on,0,0,2,,,,,,,,,1,,,77,106
31440,note_on,0,0,3,,,,,,,,,2,,,53,0
31440,note_on,180,0,3,,,,,,,,,2,,,61,0
31440,note_on,0,0,2,,,,,,,,,1,,,77,0
31440,note_on,180,0,2,,,,,,,,,1,,,80,0
31440,note_on,0,0,3,,,,,,,,,2,,,49,0
31530,note_on,90,0,1,,,,,,,,,0,,,89,0
31530,note_on,0,0,1,,,,,,,,,0,,,87,101
31560,note_on,0,0,1,,,,,,,,,0,,,85,101
31560,note_on,30,0,1,,,,,,,,,0,,,87,0
31620,note_on,0,0,1,,,,,,,,,0,,,85,127
31620,note_on,0,0,2,,,,,,,,,1,,,80,114
31620,note_on,180,0,2,,,,,,,,,1,,,80,0
31620,note_on,0,0,3,,,,,,,,,2,,,61,88
31620,note_on,0,0,3,,,,,,,,,2,,,53,88
31620,note_on,60,0,1,,,,,,,,,0,,,85,0
31620,note_on,0,0,3,,,,,,,,,2,,,37,0
31620,note_on,0,0,3,,,,,,,,,2,,,49,88
31620,note_on,0,0,2,,,,,,,,,1,,,77,0
31620,note_on,180,0,3,,,,,,,,,2,,,49,0
31620,note_on,0,0,2,,,,,,,,,1,,,77,106
31710,note_on,0,0,1,,,,,,,,,0,,,84,101
31710,note_on,90,0,1,,,,,,,,,0,,,85,0
31740,note_on,0,0,1,,,,,,,,,0,,,83,101
31740,control_change,0,0,1,,,,,,,,,0,64,0,,
31740,note_on,30,0,1,,,,,,,,,0,,,84,0
31800,note_on,0,0,3,,,,,,,,,2,,,48,101
31800,note_on,0,0,3,,,,,,,,,2,,,53,0
31800,note_on,0,0,3,,,,,,,,,2,,,49,0
31800,note_on,0,0,3,,,,,,,,,2,,,36,101
31800,note_on,180,0,3,,,,,,,,,2,,,61,0
31800,note_on,0,0,1,,,,,,,,,0,,,84,127
31800,control_change,0,0,1,,,,,,,,,0,64,127,,
31800,note_on,60,0,1,,,,,,,,,0,,,83,0
31800,note_on,0,0,2,,,,,,,,,1,,,77,0
31800,note_on,180,0,2,,,,,,,,,1,,,80,0
31800,note_on,0,0,1,,,,,,,,,0,,,81,127
31890,note_on,90,0,1,,,,,,,,,0,,,84,0
31890,note_on,0,0,1,,,,,,,,,0,,,81,0
31890,note_on,0,0,1,,,,,,,,,0,,,79,114
31890,note_on,0,0,1,,,,,,,,,0,,,82,114
31920,note_on,0,0,1,,,,,,,,,0,,,79,0
31920,note_on,0,0,1,,,,,,,,,0,,,77,114
31920,note_on,0,0,1,,,,,,,,,0,,,81,114
31920,note_on,30,0,1,,,,,,,,,0,,,82,0
31980,note_on,60,0,1,,,,,,,,,0,,,81,0
31980,note_on,0,0,1,,,,,,,,,0,,,77,0
31980,note_on,180,0,2,,,,,,,,,1,,,72,101
31980,note_on,0,0,1,,,,,,,,,0,,,70,127
31980,note_on,0,0,1,,,,,,,,,0,,,79,127
32070,note_on,0,0,1,,,,,,,,,0,,,69,114
32070,note_on,0,0,1,,,,,,,,,0,,,77,114
32070,note_on,90,0,1,,,,,,,,,0,,,79,0
32070,note_on,0,0,1,,,,,,,,,0,,,70,0
32100,note_on,0,0,1,,,,,,,,,0,,,69,0
32100,note_on,0,0,1,,,,,,,,,0,,,76,114
32100,note_on,0,0,1,,,,,,,,,0,,,67,114
32100,control_change,0,0,1,,,,,,,,,0,64,0,,
32100,note_on,30,0,1,,,,,,,,,0,,,77,0
32160,note_on,60,0,1,,,,,,,,,0,,,76,0
32160,note_on,180,0,2,,,,,,,,,1,,,72,0
32160,control_change,0,0,1,,,,,,,,,0,64,127,,
32160,note_on,0,0,1,,,,,,,,,0,,,72,127
32160,note_on,0,0,1,,,,,,,,,0,,,69,127
32160,note_on,0,0,1,,,,,,,,,0,,,67,0
32250,note_on,0,0,1,,,,,,,,,0,,,70,114
32250,note_on,0,0,1,,,,,,,,,0,,,67,114
32250,note_on,0,0,1,,,,,,,,,0,,,69,0
32250,note_on,90,0,1,,,,,,,,,0,,,72,0
32280,note_on,0,0,1,,,,,,,,,0,,,67,0
32280,note_on,30,0,1,,,,,,,,,0,,,70,0
32280,note_on,0,0,1,,,,,,,,,0,,,69,114
32280,note_on,0,0,1,,,,,,,,,0,,,65,114
32340,note_on,0,0,1,,,,,,,,,0,,,58,127
32340,note_on,0,0,1,,,,,,,,,0,,,65,0
32340,note_on,0,0,1,,,,,,,,,0,,,67,127
32340,note_on,60,0,1,,,,,,,,,0,,,69,0
32340,note_on,180,0,2,,,,,,,,,1,,,60,101
32430,note_on,0,0,1,,,,,,,,,0,,,58,0
32430,note_on,0,0,1,,,,,,,,,0,,,57,114
32430,note_on,0,0,1,,,,,,,,,0,,,65,114
32430,note_on,90,0,1,,,,,,,,,0,,,67,0
32460,control_change,0,0,1,,,,,,,,,0,64,0,,
32460,note_on,30,0,1,,,,,,,,,0,,,65,0
32460,note_on,0,0,1,,,,,,,,,0,,,57,0
32460,note_on,0,0,1,,,,,,,,,0,,,55,114
32460,note_on,0,0,1,,,,,,,,,0,,,64,114
32520,control_change,0,0,1,,,,,,,,,0,64,127,,
32520,note_on,0,0,1,,,,,,,,,0,,,60,114
32520,note_on,720,0,3,,,,,,,,,2,,,48,0
32520,note_on,180,0,2,,,,,,,,,1,,,60,0
32520,note_on,60,0,1,,,,,,,,,0,,,64,0
32520,note_on,0,0,1,,,,,,,,,0,,,57,106
32520,note_on,0,0,1,,,,,,,,,0,,,55,0
32610,note_on,90,0,1,,,,,,,,,0,,,60,0
32610,note_on,0,0,1,,,,,,,,,0,,,57,0
32610,note_on,0,0,1,,,,,,,,,0,,,55,88
32610,note_on,0,0,1,,,,,,,,,0,,,58,88
32640,note_on,30,0,1,,,,,,,,,0,,,58,0
32640,note_on,0,0,1,,,,,,,,,0,,,53,88
32640,note_on,0,0,1,,,,,,,,,0,,,55,0
32640,note_on,0,0,1,,,,,,,,,0,,,57,88
32700,note_on,0,0,1,,,,,,,,,0,,,55,114
32700,note_on,180,0,2,,,,,,,,,1,,,48,75
32700,note_on,0,0,1,,,,,,,,,0,,,53,0
32700,note_on,60,0,1,,,,,,,,,0,,,57,0
32700,note_on,0,0,1,,,,,,,,,0,,,46,106
32790,note_on,90,0,1,,,,,,,,,0,,,55,0
32790,note_on,0,0,1,,,,,,,,,0,,,45,88
32790,note_on,0,0,1,,,,,,,,,0,,,53,88
32790,note_on,0,0,1,,,,,,,,,0,,,46,0
32820,note_on,0,0,1,,,,,,,,,0,,,52,88
32820,control_change,0,0,1,,,,,,,,,0,64,0,,
32820,note_on,0,0,1,,,,,,,,,0,,,45,0
32820,note_on,30,0,1,,,,,,,,,0,,,53,0
32820,note_on,0,0,1,,,,,,,,,0,,,43,88
32880,note_on,60,0,1,,,,,,,,,0,,,52,0
32880,note_on,360,0,3,,,,,,,,,2,,,36,0
32880,note_on,0,0,1,,,,,,,,,0,,,43,0
32880,note_on,180,0,2,,,,,,,,,1,,,48,0
33240,note_on,0,0,3,,,,,,,,,2,,,65,62
33240,note_on,0,0,3,,,,,,,,,2,,,57,62
33240,control_change,360,0,3,,,,,,,,,2,64,127,,
33240,control_change,2880,0,4,,,,,,,,,3,64,127,,
33240,control_change,360,0,1,,,,,,,,,0,64,127,,
33240,note_on,0,0,1,,,,,,,,,0,,,77,49
33240,note_on,0,0,4,,,,,,,,,3,,,53,36
33240,note_on,0,0,1,,,,,,,,,0,,,65,49
33246,note_on,6,0,4,,,,,,,,,3,,,53,0
33300,note_on,54,0,4,,,,,,,,,3,,,53,36
33306,note_on,6,0,4,,,,,,,,,3,,,53,0
33360,note_on,120,0,3,,,,,,,,,2,,,65,0
33360,note_on,0,0,3,,,,,,,,,2,,,57,0
33360,note_on,0,0,3,,,,,,,,,2,,,60,62
33360,note_on,54,0,4,,,,,,,,,3,,,53,36
33366,note_on,6,0,4,,,,,,,,,3,,,53,0
33420,note_on,0,0,1,,,,,,,,,0,,,81,49
33420,note_on,0,0,3,,,,,,,,,2,,,61,62
33420,note_on,60,0,3,,,,,,,,,2,,,60,0
33420,note_on,0,0,1,,,,,,,,,0,,,69,49
33420,note_on,0,0,1,,,,,,,,,0,,,65,0
33420,note_on,180,0,1,,,,,,,,,0,,,77,0
33420,note_on,54,0,4,,,,,,,,,3,,,53,36
33420,control_change,0,0,1,,,,,,,,,0,64,0,,
33426,note_on,6,0,4,,,,,,,,,3,,,53,0
33480,note_on,54,0,4,,,,,,,,,3,,,53,36
33486,note_on,6,0,4,,,,,,,,,3,,,53,0
33540,control_change,54,0,4,,,,,,,,,3,64,0,,
33540,note_on,120,0,3,,,,,,,,,2,,,61,0
33540,control_change,0,0,3,,,,,,,,,2,64,0,,
33540,note_on,0,0,3,,,,,,,,,2,,,60,62
33540,note_on,0,0,4,,,,,,,,,3,,,53,36
33546,note_on,6,0,4,,,,,,,,,3,,,53,0
33600,control_change,0,0,1,,,,,,,,,0,64,127,,
33600,note_on,0,0,1,,,,,,,,,0,,,79,49
33600,note_on,0,0,1,,,,,,,,,0,,,67,49
33600,note_on,0,0,1,,,,,,,,,0,,,69,0
33600,note_on,180,0,1,,,,,,,,,0,,,81,0
33600,control_change,54,0,4,,,,,,,,,3,64,127,,
33600,note_on,0,0,4,,,,,,,,,3,,,53,36
33600,note_on,0,0,3,,,,,,,,,2,,,64,62
33600,note_on,60,0,3,,,,,,,,,2,,,60,0
33600,control_change,0,0,3,,,,,,,,,2,64,127,,
33600,note_on,0,0,3,,,,,,,,,2,,,58,62
33606,note_on,6,0,4,,,,,,,,,3,,,53,0
33660,note_on,54,0,4,,,,,,,,,3,,,53,36
33666,note_on,6,0,4,,,,,,,,,3,,,53,0
33720,note_on,120,0,3,,,,,,,,,2,,,64,0
33720,note_on,0,0,3,,,,,,,,,2,,,61,62
33720,note_on,54,0,4,,,,,,,,,3,,,53,36
33720,note_on,0,0,3,,,,,,,,,2,,,58,0
33726,note_on,6,0,4,,,,,,,,,3,,,53,0
33780,note_on,60,0,3,,,,,,,,,2,,,61,0
33780,note_on,0,0,3,,,,,,,,,2,,,60,62
33780,note_on,180,0,1,,,,,,,,,0,,,79,0
33780,note_on,0,0,1,,,,,,,,,0,,,67,0
33780,note_on,0,0,1,,,,,,,,,0,,,72,49
33780,note_on,0,0,1,,,,,,,,,0,,,84,49
33780,control_change,0,0,1,,,,,,,,,0,64,0,,
33780,note_on,54,0,4,,,,,,,,,3,,,53,36
33786,note_on,6,0,4,,,,,,,,,3,,,53,0
33840,note_on,54,0,4,,,,,,,,,3,,,53,36
33846,note_on,6,0,4,,,,,,,,,3,,,53,0
33900,note_on,120,0,3,,,,,,,,,2,,,60,0
33900,control_change,0,0,3,,,,,,,,,2,64,0,,
33900,note_on,0,0,3,,,,,,,,,2,,,58,62
33900,control_change,54,0,4,,,,,,,,,3,64,0,,
33900,note_on,0,0,4,,,,,,,,,3,,,53,36
33906,note_on,6,0,4,,,,,,,,,3,,,53,0
33960,note_on,60,0,3,,,,,,,,,2,,,58,0
33960,control_change,0,0,3,,,,,,,,,2,64,127,,
33960,note_on,0,0,3,,,,,,,,,2,,,57,62
33960,note_on,0,0,3,,,,,,,,,2,,,65,62
33960,note_on,0,0,1,,,,,,,,,0,,,65,49
33960,note_on,0,0,4,,,,,,,,,3,,,53,36
33960,note_on,0,0,1,,,,,,,,,0,,,77,49
33960,note_on,180,0,1,,,,,,,,,0,,,84,0
33960,control_change,0,0,1,,,,,,,,,0,64,127,,
33960,control_change,54,0,4,,,,,,,,,3,64,127,,
33960,note_on,0,0,1,,,,,,,,,0,,,72,0
33966,note_on,6,0,4,,,,,,,,,3,,,53,0
34020,note_on,54,0,4,,,,,,,,,3,,,53,36
34026,note_on,6,0,4,,,,,,,,,3,,,53,0
34080,note_on,0,0,3,,,,,,,,,2,,,60,62
34080,note_on,0,0,3,,,,,,,,,2,,,57,0
34080,note_on,120,0,3,,,,,,,,,2,,,65,0
34080,note_on,54,0,4,,,,,,,,,3,,,53,36
34086,note_on,6,0,4,,,,,,,,,3,,,53,0
34140,control_change,0,0,1,,,,,,,,,0,64,0,,
34140,note_on,0,0,1,,,,,,,,,0,,,81,49
34140,note_on,0,0,1,,,,,,,,,0,,,69,49
34140,note_on,0,0,1,,,,,,,,,0,,,65,0
34140,note_on,180,0,1,,,,,,,,,0,,,77,0
34140,note_on,54,0,4,,,,,,,,,3,,,53,36
34140,note_on,0,0,3,,,,,,,,,2,,,61,62
34140,note_on,60,0,3,,,,,,,,,2,,,60,0
34146,note_on,6,0,4,,,,,,,,,3,,,53,0
34200,note_on,54,0,4,,,,,,,,,3,,,53,36
34206,note_on,6,0,4,,,,,,,,,3,,,53,0
34260,control_change,54,0,4,,,,,,,,,3,64,0,,
34260,note_on,0,0,3,,,,,,,,,2,,,60,62
34260,control_change,0,0,3,,,,,,,,,2,64,0,,
34260,note_on,120,0,3,,,,,,,,,2,,,61,0
34260,note_on,0,0,4,,,,,,,,,3,,,53,36
34266,note_on,6,0,4,,,,,,,,,3,,,53,0
34320,control_change,54,0,4,,,,,,,,,3,64,127,,
34320,note_on,60,0,3,,,,,,,,,2,,,60,0
34320,control_change,0,0,3,,,,,,,,,2,64,127,,
34320,note_on,0,0,3,,,,,,,,,2,,,58,62
34320,note_on,0,0,1,,,,,,,,,0,,,79,49
34320,note_on,0,0,4,,,,,,,,,3,,,53,36
34320,control_change,0,0,1,,,,,,,,,0,64,127,,
34320,note_on,0,0,3,,,,,,,,,2,,,64,62
34320,note_on,0,0,1,,,,,,,,,0,,,67,49
34320,note_on,180,0,1,,,,,,,,,0,,,81,0
34320,note_on,0,0,1,,,,,,,,,0,,,69,0
34326,note_on,6,0,4,,,,,,,,,3,,,53,0
34380,note_on,54,0,4,,,,,,,,,3,,,53,36
34386,note_on,6,0,4,,,,,,,,,3,,,53,0
34440,note_on,120,0,3,,,,,,,,,2,,,64,0
34440,note_on,0,0,3,,,,,,,,,2,,,58,0
34440,note_on,0,0,3,,,,,,,,,2,,,61,62
34440,note_on,54,0,4,,,,,,,,,3,,,53,36
34446,note_on,6,0,4,,,,,,,,,3,,,53,0
34500,note_on,180,0,1,,,,,,,,,0,,,79,0
34500,note_on,60,0,3,,,,,,,,,2,,,61,0
34500,note_on,0,0,3,,,,,,,,,2,,,60,62
34500,note_on,0,0,1,,,,,,,,,0,,,67,0
34500,note_on,0,0,1,,,,,,,,,0,,,72,49
34500,control_change,0,0,1,,,,,,,,,0,64,0,,
34500,note_on,54,0,4,,,,,,,,,3,,,53,36
34500,note_on,0,0,1,,,,,,,,,0,,,84,49
34506,note_on,6,0,4,,,,,,,,,3,,,53,0
34560,note_on,54,0,4,,,,,,,,,3,,,53,36
34566,note_on,6,0,4,,,,,,,,,3,,,53,0
34620,control_change,0,0,3,,,,,,,,,2,64,0,,
34620,note_on,120,0,3,,,,,,,,,2,,,60,0
34620,control_change,54,0,4,,,,,,,,,3,64,0,,
34620,note_on,0,0,4,,,,,,,,,3,,,53,36
34620,note_on,0,0,3,,,,,,,,,2,,,58,62
34626,note_on,6,0,4,,,,,,,,,3,,,53,0
34680,note_on,0,0,3,,,,,,,,,2,,,57,62
34680,note_on,60,0,3,,,,,,,,,2,,,58,0
34680,note_on,0,0,3,,,,,,,,,2,,,65,62
34680,note_on,0,0,3,,,,,,,,,2,,,53,62
34680,note_on,0,0,1,,,,,,,,,0,,,72,0
34680,note_on,180,0,1,,,,,,,,,0,,,84,0
34680,note_on,0,0,1,,,,,,,,,0,,,65,49
34680,note_on,0,0,1,,,,,,,,,0,,,77,49
34686,note_on,6,0,1,,,,,,,,,0,,,77,0
34686,note_on,0,0,3,,,,,,,,,2,,,53,0
34686,note_on,6,0,3,,,,,,,,,2,,,65,0
34686,note_on,0,0,1,,,,,,,,,0,,,65,0
34686,note_on,0,0,3,,,,,,,,,2,,,57,0
34740,note_on,54,0,1,,,,,,,,,0,,,76,36
34740,note_on,54,0,3,,,,,,,,,2,,,64,36
34800,note_on,60,0,1,,,,,,,,,0,,,76,0
34800,note_on,0,0,3,,,,,,,,,2,,,65,36
34800,note_on,60,0,3,,,,,,,,,2,,,64,0
34800,note_on,0,0,1,,,,,,,,,0,,,77,36
34860,note_on,60,0,1,,,,,,,,,0,,,77,0
34860,note_on,60,0,3,,,,,,,,,2,,,65,0
34860,note_on,0,0,3,,,,,,,,,2,,,60,36
34860,note_on,0,0,1,,,,,,,,,0,,,72,36
34860,control_change,0,0,1,,,,,,,,,0,64,127,,
34860,control_change,0,0,3,,,,,,,,,2,64,127,,
34920,note_on,0,0,1,,,,,,,,,0,,,69,36
34920,note_on,60,0,3,,,,,,,,,2,,,60,0
34920,note_on,0,0,3,,,,,,,,,2,,,57,36
34920,note_on,60,0,1,,,,,,,,,0,,,72,0
34980,control_change,0,0,3,,,,,,,,,2,64,0,,
34980,note_on,0,0,3,,,,,,,,,2,,,53,36
34980,note_on,60,0,3,,,,,,,,,2,,,57,0
34980,control_change,0,0,1,,,,,,,,,0,64,0,,
34980,note_on,0,0,1,,,,,,,,,0,,,65,36
34980,note_on,60,0,1,,,,,,,,,0,,,69,0
35040,note_on,414,0,4,,,,,,,,,3,,,53,36
35040,note_on,60,0,1,,,,,,,,,0,,,65,0
35040,control_change,0,0,1,,,,,,,,,0,64,127,,
35040,note_on,0,0,1,,,,,,,,,0,,,68,36
35040,note_on,0,0,3,,,,,,,,,2,,,56,36
35040,note_on,2160,0,2,,,,,,,,,1,,,62,75
35040,note_on,0,0,2,,,,,,,,,1,,,65,75
35040,note_on,0,0,3,,,,,,,,,2,,,46,36
35040,note_on,60,0,3,,,,,,,,,2,,,53,0
35040,control_change,0,0,3,,,,,,,,,2,64,127,,
35070,note_on,0,0,1,,,,,,,,,0,,,67,36
35070,note_on,30,0,1,,,,,,,,,0,,,68,0
35070,note_on,30,0,3,,,,,,,,,2,,,56,0
35070,note_on,0,0,3,,,,,,,,,2,,,46,0
35070,note_on,0,0,3,,,,,,,,,2,,,47,36
35070,note_on,0,0,3,,,,,,,,,2,,,55,36
35100,note_on,0,0,3,,,,,,,,,2,,,47,52
35100,note_on,30,0,1,,,,,,,,,0,,,67,0
35100,note_on,60,0,2,,,,,,,,,1,,,65,0
35100,note_on,0,0,2,,,,,,,,,1,,,62,0
35100,note_on,0,0,2,,,,,,,,,1,,,62,93
35100,note_on,0,0,2,,,,,,,,,1,,,65,101
35100,note_on,0,0,1,,,,,,,,,0,,,67,62
35100,control_change,0,0,1,,,,,,,,,0,64,0,,
35100,note_on,60,0,4,,,,,,,,,3,,,53,0
35100,note_on,30,0,3,,,,,,,,,2,,,55,0
35100,note_on,0,0,3,,,,,,,,,2,,,47,0
35100,note_on,0,0,3,,,,,,,,,2,,,55,62
35100,note_on,0,0,3,,,,,,,,,2,,,53,57
35100,control_change,0,0,3,,,,,,,,,2,64,0,,
35220,note_on,120,0,1,,,,,,,,,0,,,67,0
35220,note_on,120,0,4,,,,,,,,,3,,,53,36
35220,control_change,0,0,1,,,,,,,,,0,64,127,,
35220,note_on,0,0,1,,,,,,,,,0,,,68,36
35220,note_on,0,0,3,,,,,,,,,2,,,46,36
35220,note_on,0,0,3,,,,,,,,,2,,,47,0
35220,note_on,0,0,3,,,,,,,,,2,,,56,36
35220,control_change,0,0,3,,,,,,,,,2,64,127,,
35220,note_on,0,0,3,,,,,,,,,2,,,53,0
35220,note_on,120,0,3,,,,,,,,,2,,,55,0
35220,note_on,120,0,2,,,,,,,,,1,,,65,0
35220,note_on,0,0,2,,,,,,,,,1,,,62,0
35220,note_on,0,0,2,,,,,,,,,1,,,62,75
35220,note_on,0,0,2,,,,,,,,,1,,,65,75
35250,note_on,0,0,3,,,,,,,,,2,,,47,36
35250,note_on,0,0,3,,,,,,,,,2,,,55,36
35250,note_on,0,0,1,,,,,,,,,0,,,67,36
35250,note_on,30,0,1,,,,,,,,,0,,,68,0
35250,note_on,30,0,3,,,,,,,,,2,,,56,0
35250,note_on,0,0,3,,,,,,,,,2,,,46,0
35280,note_on,0,0,1,,,,,,,,,0,,,67,62
35280,control_change,0,0,1,,,,,,,,,0,64,0,,
35280,note_on,30,0,1,,,,,,,,,0,,,67,0
35280,note_on,30,0,3,,,,,,,,,2,,,55,0
35280,note_on,0,0,3,,,,,,,,,2,,,47,0
35280,note_on,0,0,3,,,,,,,,,2,,,55,62
35280,note_on,0,0,3,,,,,,,,,2,,,53,57
35280,control_change,0,0,3,,,,,,,,,2,64,0,,
35280,note_on,60,0,2,,,,,,,,,1,,,65,0
35280,note_on,0,0,2,,,,,,,,,1,,,62,0
35280,note_on,0,0,2,,,,,,,,,1,,,62,93
35280,note_on,0,0,2,,,,,,,,,1,,,65,101
35280,note_on,60,0,4,,,,,,,,,3,,,53,0
35280,note_on,0,0,3,,,,,,,,,2,,,47,52
35400,note_on,120,0,2,,,,,,,,,1,,,65,0
35400,note_on,0,0,2,,,,,,,,,1,,,62,0
35400,control_change,0,0,2,,,,,,,,,1,64,127,,
35400,note_on,0,0,2,,,,,,,,,1,,,63,62
35400,note_on,0,0,2,,,,,,,,,1,,,65,62
35400,note_on,0,0,3,,,,,,,,,2,,,47,0
35400,control_change,0,0,3,,,,,,,,,2,64,127,,
35400,note_on,0,0,3,,,,,,,,,2,,,53,0
35400,note_on,0,0,3,,,,,,,,,2,,,57,62
35400,note_on,0,0,3,,,,,,,,,2,,,53,62
35400,note_on,120,0,3,,,,,,,,,2,,,55,0
35400,note_on,0,0,3,,,,,,,,,2,,,48,62
35400,control_change,0,0,1,,,,,,,,,0,64,127,,
35400,note_on,120,0,1,,,,,,,,,0,,,67,0
35400,note_on,0,0,1,,,,,,,,,0,,,70,75
35406,note_on,6,0,3,,,,,,,,,2,,,57,0
35406,note_on,0,0,3,,,,,,,,,2,,,53,0
35406,note_on,0,0,3,,,,,,,,,2,,,48,0
35430,note_on,30,0,1,,,,,,,,,0,,,70,0
35430,note_on,0,0,1,,,,,,,,,0,,,69,75
35460,note_on,0,0,2,,,,,,,,,1,,,65,88
35460,note_on,54,0,3,,,,,,,,,2,,,48,78
35460,note_on,0,0,2,,,,,,,,,1,,,63,80
35460,note_on,0,0,3,,,,,,,,,2,,,53,83
35460,note_on,0,0,2,,,,,,,,,1,,,63,0
35460,note_on,0,0,3,,,,,,,,,2,,,57,88
35460,note_on,30,0,1,,,,,,,,,0,,,69,0
35460,note_on,60,0,2,,,,,,,,,1,,,65,0
35460,note_on,0,0,1,,,,,,,,,0,,,69,101
35580,note_on,300,0,4,,,,,,,,,3,,,50,36
35580,note_on,0,0,2,,,,,,,,,1,,,65,62
35580,control_change,0,0,2,,,,,,,,,1,64,0,,
35580,note_on,0,0,2,,,,,,,,,1,,,63,0
35580,note_on,120,0,2,,,,,,,,,1,,,65,0
35580,note_on,120,0,3,,,,,,,,,2,,,57,0
35580,control_change,0,0,1,,,,,,,,,0,64,0,,
35580,note_on,0,0,3,,,,,,,,,2,,,58,62
35580,note_on,0,0,3,,,,,,,,,2,,,53,62
35580,control_change,0,0,3,,,,,,,,,2,64,0,,
35580,note_on,0,0,3,,,,,,,,,2,,,48,0
35580,note_on,0,0,3,,,,,,,,,2,,,53,0
35580,note_on,0,0,1,,,,,,,,,0,,,70,75
35580,note_on,120,0,1,,,,,,,,,0,,,69,0
35600,note_on,20,0,1,,,,,,,,,0,,,70,0
35600,note_on,0,0,1,,,,,,,,,0,,,72,75
35619,note_on,19,0,1,,,,,,,,,0,,,70,75
35620,note_on,1,0,1,,,,,,,,,0,,,72,0
35639,note_on,19,0,1,,,,,,,,,0,,,70,0
35640,note_on,1,0,1,,,,,,,,,0,,,69,75
35660,note_on,0,0,1,,,,,,,,,0,,,70,75
35660,note_on,20,0,1,,,,,,,,,0,,,69,0
35670,note_on,90,0,4,,,,,,,,,3,,,50,0
35670,note_on,0,0,4,,,,,,,,,3,,,48,36
35679,note_on,19,0,1,,,,,,,,,0,,,72,75
35680,note_on,1,0,1,,,,,,,,,0,,,70,0
35699,note_on,19,0,1,,,,,,,,,0,,,72,0
35700,note_on,30,0,4,,,,,,,,,3,,,48,0
35700,note_on,0,0,4,,,,,,,,,3,,,46,36
35700,note_on,1,0,1,,,,,,,,,0,,,74,75
35760,note_on,60,0,1,,,,,,,,,0,,,74,0
35760,note_on,0,0,3,,,,,,,,,2,,,53,0
35760,note_on,0,0,1,,,,,,,,,0,,,70,75
35760,note_on,180,0,2,,,,,,,,,1,,,65,0
35760,control_change,0,0,2,,,,,,,,,1,64,127,,
35760,note_on,0,0,2,,,,,,,,,1,,,63,62
35760,note_on,60,0,4,,,,,,,,,3,,,46,0
35760,note_on,0,0,3,,,,,,,,,2,,,57,62
35760,note_on,0,0,3,,,,,,,,,2,,,53,62
35760,note_on,0,0,3,,,,,,,,,2,,,48,62
35760,control_change,0,0,3,,,,,,,,,2,64,127,,
35760,note_on,0,0,2,,,,,,,,,1,,,65,62
35760,control_change,0,0,1,,,,,,,,,0,64,127,,
35760,note_on,180,0,3,,,,,,,,,2,,,58,0
35766,note_on,0,0,3,,,,,,,,,2,,,48,0
35766,note_on,0,0,3,,,,,,,,,2,,,53,0
35766,note_on,6,0,3,,,,,,,,,2,,,57,0
35790,note_on,0,0,1,,,,,,,,,0,,,69,75
35790,note_on,30,0,1,,,,,,,,,0,,,70,0
35820,note_on,0,0,3,,,,,,,,,2,,,53,83
35820,note_on,0,0,3,,,,,,,,,2,,,57,88
35820,note_on,54,0,3,,,,,,,,,2,,,48,78
35820,note_on,0,0,2,,,,,,,,,1,,,63,0
35820,note_on,60,0,2,,,,,,,,,1,,,65,0
35820,note_on,0,0,1,,,,,,,,,0,,,69,101
35820,note_on,30,0,1,,,,,,,,,0,,,69,0
35820,note_on,0,0,2,,,,,,,,,1,,,65,88
35820,note_on,0,0,2,,,,,,,,,1,,,63,80
35940,note_on,0,0,2,,,,,,,,,1,,,63,0
35940,control_change,0,0,2,,,,,,,,,1,64,0,,
35940,note_on,120,0,2,,,,,,,,,1,,,65,0
35940,note_on,0,0,2,,,,,,,,,1,,,65,62
35940,note_on,120,0,3,,,,,,,,,2,,,57,0
35940,note_on,0,0,3,,,,,,,,,2,,,48,0
35940,note_on,0,0,1,,,,,,,,,0,,,70,75
35940,control_change,0,0,3,,,,,,,,,2,64,0,,
35940,note_on,0,0,3,,,,,,,,,2,,,53,62
35940,note_on,0,0,3,,,,,,,,,2,,,58,62
35940,note_on,0,0,3,,,,,,,,,2,,,53,0
35940,control_change,0,0,1,,,,,,,,,0,64,0,,
35940,note_on,180,0,4,,,,,,,,,3,,,50,36
35940,note_on,120,0,1,,,,,,,,,0,,,69,0
35960,note_on,20,0,1,,,,,,,,,0,,,70,0
35960,note_on,0,0,1,,,,,,,,,0,,,72,75
35979,note_on,19,0,1,,,,,,,,,0,,,70,75
35980,note_on,1,0,1,,,,,,,,,0,,,72,0
35999,note_on,19,0,1,,,,,,,,,0,,,70,0
36000,note_on,1,0,1,,,,,,,,,0,,,69,75
36020,note_on,0,0,1,,,,,,,,,0,,,70,75
36020,note_on,20,0,1,,,,,,,,,0,,,69,0
36030,note_on,90,0,4,,,,,,,,,3,,,50,0
36030,note_on,0,0,4,,,,,,,,,3,,,48,36
36039,note_on,19,0,1,,,,,,,,,0,,,72,75
36040,note_on,1,0,1,,,,,,,,,0,,,70,0
36059,note_on,19,0,1,,,,,,,,,0,,,72,0
36060,note_on,0,0,4,,,,,,,,,3,,,46,36
36060,note_on,30,0,4,,,,,,,,,3,,,48,0
36060,note_on,1,0,1,,,,,,,,,0,,,74,75
36105,note_on,45,0,1,,,,,,,,,0,,,86,75
36105,note_on,165,0,3,,,,,,,,,2,,,74,62
36120,control_change,0,0,1,,,,,,,,,0,64,127,,
36120,note_on,15,0,1,,,,,,,,,0,,,86,0
36120,note_on,0,0,1,,,,,,,,,0,,,74,0
36120,note_on,0,0,1,,,,,,,,,0,,,89,114
36120,control_change,0,0,3,,,,,,,,,2,64,127,,
36120,note_on,0,0,3,,,,,,,,,2,,,58,0
36120,note_on,60,0,4,,,,,,,,,3,,,46,0
36120,note_on,180,0,2,,,,,,,,,1,,,65,0
36120,note_on,15,0,3,,,,,,,,,2,,,74,0
36120,note_on,0,0,3,,,,,,,,,2,,,53,0
36120,note_on,0,0,3,,,,,,,,,2,,,77,101
36360,note_on,0,0,1,,,,,,,,,0,,,86,62
36360,note_on,240,0,1,,,,,,,,,0,,,89,0
36360,note_on,0,0,3,,,,,,,,,2,,,74,49
36360,note_on,240,0,3,,,,,,,,,2,,,77,0
36420,note_on,0,0,3,,,,,,,,,2,,,70,49
36420,note_on,60,0,3,,,,,,,,,2,,,74,0
36420,note_on,0,0,1,,,,,,,,,0,,,82,62
36420,note_on,60,0,1,,,,,,,,,0,,,86,0
36480,note_on,0,0,3,,,,,,,,,2,,,65,49
36480,note_on,60,0,3,,,,,,,,,2,,,70,0
36480,note_on,0,0,1,,,,,,,,,0,,,77,62
36480,note_on,60,0,1,,,,,,,,,0,,,82,0
36540,note_on,0,0,3,,,,,,,,,2,,,62,49
36540,note_on,0,0,1,,,,,,,,,0,,,74,62
36540,note_on,60,0,1,,,,,,,,,0,,,77,0
36540,note_on,60,0,3,,,,,,,,,2,,,65,0
36600,note_on,0,0,1,,,,,,,,,0,,,70,62
36600,note_on,0,0,3,,,,,,,,,2,,,58,49
36600,note_on,60,0,3,,,,,,,,,2,,,62,0
36600,note_on,60,0,1,,,,,,,,,0,,,74,0
36660,control_change,0,0,1,,,,,,,,,0,64,0,,
36660,note_on,0,0,1,,,,,,,,,0,,,67,62
36660,control_change,0,0,3,,,,,,,,,2,64,0,,
36660,note_on,60,0,3,,,,,,,,,2,,,58,0
36660,note_on,60,0,1,,,,,,,,,0,,,70,0
36660,note_on,0,0,3,,,,,,,,,2,,,55,49
36720,note_on,0,0,1,,,,,,,,,0,,,73,62
36720,note_on,60,0,1,,,,,,,,,0,,,67,0
36720,note_on,60,0,3,,,,,,,,,2,,,55,0
36720,note_on,0,0,3,,,,,,,,,2,,,61,49
36780,note_on,60,0,1,,,,,,,,,0,,,73,0
36780,note_on,60,0,3,,,,,,,,,2,,,61,0
36780,note_on,0,0,1,,,,,,,,,0,,,74,62
36780,note_on,0,0,3,,,,,,,,,2,,,62,49
36825,note_on,45,0,1,,,,,,,,,0,,,67,62
36840,note_on,720,0,4,,,,,,,,,3,,,48,36
36840,note_on,0,0,1,,,,,,,,,0,,,74,0
36840,note_on,0,0,1,,,,,,,,,0,,,65,62
36840,control_change,0,0,1,,,,,,,,,0,64,127,,
36840,note_on,60,0,3,,,,,,,,,2,,,62,0
36840,note_on,720,0,2,,,,,,,,,1,,,60,62
36840,note_on,15,0,1,,,,,,,,,0,,,67,0
36840,note_on,0,0,3,,,,,,,,,2,,,57,49
36930,note_on,90,0,1,,,,,,,,,0,,,65,0
36930,note_on,0,0,1,,,,,,,,,0,,,64,62
36960,note_on,30,0,1,,,,,,,,,0,,,64,0
36960,note_on,0,0,1,,,,,,,,,0,,,65,62
37020,note_on,0,0,2,,,,,,,,,1,,,64,62
37020,note_on,180,0,2,,,,,,,,,1,,,60,0
37020,note_on,0,0,3,,,,,,,,,2,,,58,49
37020,note_on,180,0,3,,,,,,,,,2,,,57,0
37020,note_on,60,0,1,,,,,,,,,0,,,65,0
37020,control_change,0,0,1,,,,,,,,,0,64,0,,
37020,note_on,0,0,1,,,,,,,,,0,,,69,62
37140,note_on,120,0,1,,,,,,,,,0,,,69,0
37140,note_on,0,0,1,,,,,,,,,0,,,67,62
37200,note_on,360,0,4,,,,,,,,,3,,,48,0
37200,note_on,0,0,1,,,,,,,,,0,,,65,62
37200,note_on,180,0,2,,,,,,,,,1,,,64,0
37200,control_change,0,0,4,,,,,,,,,3,64,127,,
37200,note_on,60,0,1,,,,,,,,,0,,,67,0
37200,note_on,180,0,3,,,,,,,,,2,,,58,0
37200,control_change,0,0,3,,,,,,,,,2,64,127,,
37200,note_on,0,0,3,,,,,,,,,2,,,57,62
37200,note_on,0,0,3,,,,,,,,,2,,,65,62
37200,control_change,0,0,1,,,,,,,,,0,64,127,,
37200,note_on,0,0,4,,,,,,,,,3,,,53,36
37206,note_on,6,0,4,,,,,,,,,3,,,53,0
37230,note_on,30,0,1,,,,,,,,,0,,,65,0
37230,note_on,0,0,1,,,,,,,,,0,,,77,62
37260,note_on,54,0,4,,,,,,,,,3,,,53,36
37260,note_on,0,0,1,,,,,,,,,0,,,77,62
37260,note_on,0,0,1,,,,,,,,,0,,,65,62
37260,note_on,30,0,1,,,,,,,,,0,,,77,0
37266,note_on,6,0,4,,,,,,,,,3,,,53,0
37320,note_on,120,0,3,,,,,,,,,2,,,65,0
37320,note_on,0,0,3,,,,,,,,,2,,,57,0
37320,note_on,0,0,3,,,,,,,,,2,,,60,62
37320,note_on,54,0,4,,,,,,,,,3,,,53,36
37326,note_on,6,0,4,,,,,,,,,3,,,53,0
37380,note_on,120,0,1,,,,,,,,,0,,,77,0
37380,note_on,0,0,1,,,,,,,,,0,,,65,0
37380,note_on,0,0,1,,,,,,,,,0,,,69,62
37380,note_on,54,0,4,,,,,,,,,3,,,53,36
37380,note_on,0,0,3,,,,,,,,,2,,,61,62
37380,note_on,60,0,3,,,,,,,,,2,,,60,0
37386,note_on,6,0,4,,,,,,,,,3,,,53,0
37410,note_on,30,0,1,,,,,,,,,0,,,69,0
37410,note_on,0,0,1,,,,,,,,,0,,,81,62
37440,note_on,54,0,4,,,,,,,,,3,,,53,36
37440,note_on,30,0,1,,,,,,,,,0,,,81,0
37440,control_change,0,0,1,,,,,,,,,0,64,0,,
37440,note_on,0,0,1,,,,,,,,,0,,,81,62
37440,note_on,0,0,1,,,,,,,,,0,,,69,62
37446,note_on,6,0,4,,,,,,,,,3,,,53,0
37500,control_change,0,0,3,,,,,,,,,2,64,0,,
37500,control_change,54,0,4,,,,,,,,,3,64,0,,
37500,note_on,0,0,3,,,,,,,,,2,,,60,62
37500,note_on,0,0,4,,,,,,,,,3,,,53,36
37500,note_on,120,0,3,,,,,,,,,2,,,61,0
37506,note_on,6,0,4,,,,,,,,,3,,,53,0
37560,control_change,0,0,3,,,,,,,,,2,64,127,,
37560,control_change,0,0,1,,,,,,,,,0,64,127,,
37560,note_on,0,0,1,,,,,,,,,0,,,67,62
37560,note_on,0,0,3,,,,,,,,,2,,,58,62
37560,note_on,0,0,3,,,,,,,,,2,,,64,62
37560,note_on,60,0,3,,,,,,,,,2,,,60,0
37560,note_on,0,0,1,,,,,,,,,0,,,69,0
37560,note_on,120,0,1,,,,,,,,,0,,,81,0
37560,control_change,54,0,4,,,,,,,,,3,64,127,,
37560,note_on,0,0,4,,,,,,,,,3,,,53,36
37566,note_on,6,0,4,,,,,,,,,3,,,53,0
37590,note_on,30,0,1,,,,,,,,,0,,,67,0
37590,note_on,0,0,1,,,,,,,,,0,,,79,62
37620,note_on,30,0,1,,,,,,,,,0,,,79,0
37620,note_on,0,0,1,,,,,,,,,0,,,67,62
37620,note_on,0,0,1,,,,,,,,,0,,,79,62
37620,note_on,54,0,4,,,,,,,,,3,,,53,36
37626,note_on,6,0,4,,,,,,,,,3,,,53,0
37680,note_on,0,0,3,,,,,,,,,2,,,61,62
37680,note_on,0,0,3,,,,,,,,,2,,,58,0
37680,note_on,120,0,3,,,,,,,,,2,,,64,0
37680,note_on,54,0,4,,,,,,,,,3,,,53,36
37686,note_on,6,0,4,,,,,,,,,3,,,53,0
37740,note_on,0,0,3,,,,,,,,,2,,,60,62
37740,note_on,60,0,3,,,,,,,,,2,,,61,0
37740,note_on,54,0,4,,,,,,,,,3,,,53,36
37740,note_on,0,0,1,,,,,,,,,0,,,72,62
37740,note_on,0,0,1,,,,,,,,,0,,,67,0
37740,note_on,120,0,1,,,,,,,,,0,,,79,0
37746,note_on,6,0,4,,,,,,,,,3,,,53,0
37770,note_on,30,0,1,,,,,,,,,0,,,72,0
37770,note_on,0,0,1,,,,,,,,,0,,,84,62
37800,note_on,30,0,1,,,,,,,,,0,,,84,0
37800,note_on,54,0,4,,,,,,,,,3,,,53,36
37800,control_change,0,0,1,,,,,,,,,0,64,0,,
37800,note_on,0,0,1,,,,,,,,,0,,,72,62
37800,note_on,0,0,1,,,,,,,,,0,,,84,62
37806,note_on,6,0,4,,,,,,,,,3,,,53,0
37860,note_on,0,0,4,,,,,,,,,3,,,53,36
37860,control_change,54,0,4,,,,,,,,,3,64,0,,
37860,note_on,0,0,3,,,,,,,,,2,,,58,62
37860,control_change,0,0,3,,,,,,,,,2,64,0,,
37860,note_on,120,0,3,,,,,,,,,2,,,60,0
37866,note_on,6,0,4,,,,,,,,,3,,,53,0
37920,note_on,0,0,1,,,,,,,,,0,,,65,62
37920,note_on,0,0,4,,,,,,,,,3,,,53,36
37920,control_change,0,0,1,,,,,,,,,0,64,127,,
37920,control_change,54,0,4,,,,,,,,,3,64,127,,
37920,note_on,120,0,1,,,,,,,,,0,,,84,0
37920,note_on,60,0,3,,,,,,,,,2,,,58,0
37920,control_change,0,0,3,,,,,,,,,2,64,127,,
37920,note_on,0,0,3,,,,,,,,,2,,,57,62
37920,note_on,0,0,3,,,,,,,,,2,,,65,62
37920,note_on,0,0,1,,,,,,,,,0,,,72,0
37926,note_on,6,0,4,,,,,,,,,3,,,53,0
37950,note_on,30,0,1,,,,,,,,,0,,,65,0
37950,note_on,0,0,1,,,,,,,,,0,,,77,62
37980,note_on,0,0,1,,,,,,,,,0,,,65,62
37980,note_on,0,0,1,,,,,,,,,0,,,77,62
37980,note_on,54,0,4,,,,,,,,,3,,,53,36
37980,note_on,30,0,1,,,,,,,,,0,,,77,0
37986,note_on,6,0,4,,,,,,,,,3,,,53,0
38040,note_on,54,0,4,,,,,,,,,3,,,53,36
38040,note_on,120,0,3,,,,,,,,,2,,,65,0
38040,note_on,0,0,3,,,,,,,,,2,,,60,62
38040,note_on,0,0,3,,,,,,,,,2,,,57,0
38046,note_on,6,0,4,,,,,,,,,3,,,53,0
38100,note_on,0,0,1,,,,,,,,,0,,,65,0
38100,note_on,120,0,1,,,,,,,,,0,,,77,0
38100,note_on,54,0,4,,,,,,,,,3,,,53,36
38100,note_on,0,0,1,,,,,,,,,0,,,69,62
38100,note_on,0,0,3,,,,,,,,,2,,,61,62
38100,note_on,60,0,3,,,,,,,,,2,,,60,0
38106,note_on,6,0,4,,,,,,,,,3,,,53,0
38130,note_on,30,0,1,,,,,,,,,0,,,69,0
38130,note_on,0,0,1,,,,,,,,,0,,,81,62
38160,note_on,0,0,1,,,,,,,,,0,,,69,62
38160,note_on,30,0,1,,,,,,,,,0,,,81,0
38160,control_change,0,0,1,,,,,,,,,0,64,0,,
38160,note_on,54,0,4,,,,,,,,,3,,,53,36
38160,note_on,0,0,1,,,,,,,,,0,,,81,62
38166,note_on,6,0,4,,,,,,,,,3,,,53,0
38220,note_on,0,0,3,,,,,,,,,2,,,60,62
38220,control_change,0,0,3,,,,,,,,,2,64,0,,
38220,note_on,120,0,3,,,,,,,,,2,,,61,0
38220,control_change,54,0,4,,,,,,,,,3,64,0,,
38220,note_on,0,0,4,,,,,,,,,3,,,53,36
38226,note_on,6,0,4,,,,,,,,,3,,,53,0
38280,note_on,120,0,1,,,,,,,,,0,,,81,0
38280,note_on,0,0,1,,,,,,,,,0,,,69,0
38280,control_change,0,0,1,,,,,,,,,0,64,127,,
38280,control_change,54,0,4,,,,,,,,,3,64,127,,
38280,note_on,0,0,4,,,,,,,,,3,,,53,36
38280,note_on,0,0,3,,,,,,,,,2,,,64,62
38280,note_on,0,0,3,,,,,,,,,2,,,58,62
38280,control_change,0,0,3,,,,,,,,,2,64,127,,
38280,note_on,60,0,3,,,,,,,,,2,,,60,0
38280,note_on,0,0,1,,,,,,,,,0,,,67,62
38286,note_on,6,0,4,,,,,,,,,3,,,53,0
38310,note_on,0,0,1,,,,,,,,,0,,,79,62
38310,note_on,30,0,1,,,,,,,,,0,,,67,0
38340,note_on,54,0,4,,,,,,,,,3,,,53,36
38340,note_on,30,0,1,,,,,,,,,0,,,79,0
38340,note_on,0,0,1,,,,,,,,,0,,,67,62
38340,note_on,0,0,1,,,,,,,,,0,,,79,62
38346,note_on,6,0,4,,,,,,,,,3,,,53,0
38400,note_on,120,0,3,,,,,,,,,2,,,64,0
38400,note_on,0,0,3,,,,,,,,,2,,,58,0
38400,note_on,0,0,3,,,,,,,,,2,,,61,62
38400,note_on,54,0,4,,,,,,,,,3,,,53,36
38406,note_on,6,0,4,,,,,,,,,3,,,53,0
38460,note_on,0,0,1,,,,,,,,,0,,,67,0
38460,note_on,0,0,3,,,,,,,,,2,,,60,62
38460,note_on,54,0,4,,,,,,,,,3,,,53,36
38460,note_on,0,0,1,,,,,,,,,0,,,72,62
38460,note_on,120,0,1,,,,,,,,,0,,,79,0
38460,note_on,60,0,3,,,,,,,,,2,,,61,0
38466,note_on,6,0,4,,,,,,,,,3,,,53,0
38490,note_on,30,0,1,,,,,,,,,0,,,72,0
38490,note_on,0,0,1,,,,,,,,,0,,,84,62
38520,note_on,54,0,4,,,,,,,,,3,,,53,36
38520,note_on,30,0,1,,,,,,,,,0,,,84,0
38520,note_on,0,0,1,,,,,,,,,0,,,72,62
38520,note_on,0,0,1,,,,,,,,,0,,,84,62
38526,note_on,6,0,4,,,,,,,,,3,,,53,0
38580,note_on,120,0,3,,,,,,,,,2,,,60,0
38580,control_change,54,0,4,,,,,,,,,3,64,0,,
38580,note_on,0,0,3,,,,,,,,,2,,,58,62
38580,note_on,0,0,4,,,,,,,,,3,,,53,36
38586,note_on,6,0,4,,,,,,,,,3,,,53,0
38640,note_on,0,0,3,,,,,,,,,2,,,53,62
38640,control_change,0,0,1,,,,,,,,,0,64,0,,
38640,note_on,0,0,1,,,,,,,,,0,,,77,62
38640,note_on,0,0,1,,,,,,,,,0,,,65,62
38640,note_on,0,0,3,,,,,,,,,2,,,57,62
38640,note_on,120,0,1,,,,,,,,,0,,,84,0
38640,note_on,60,0,3,,,,,,,,,2,,,58,0
38640,note_on,0,0,1,,,,,,,,,0,,,72,0
38640,control_change,0,0,3,,,,,,,,,2,64,0,,
38700,note_on,0,0,3,,,,,,,,,2,,,64,36
38700,note_on,0,0,3,,,,,,,,,2,,,53,0
38700,note_on,60,0,3,,,,,,,,,2,,,57,0
38700,note_on,0,0,1,,,,,,,,,0,,,76,36
38700,note_on,0,0,1,,,,,,,,,0,,,65,0
38700,note_on,60,0,1,,,,,,,,,0,,,77,0
38760,note_on,60,0,1,,,,,,,,,0,,,76,0
38760,note_on,60,0,3,,,,,,,,,2,,,64,0
38760,note_on,0,0,3,,,,,,,,,2,,,65,36
38760,note_on,0,0,1,,,,,,,,,0,,,77,36
38820,note_on,60,0,1,,,,,,,,,0,,,77,0
38820,note_on,0,0,1,,,,,,,,,0,,,72,36
38820,note_on,60,0,3,,,,,,,,,2,,,65,0
38820,control_change,0,0,3,,,,,,,,,2,64,127,,
38820,note_on,0,0,3,,,,,,,,,2,,,60,36
38820,control_change,0,0,1,,,,,,,,,0,64,127,,
38880,note_on,60,0,1,,,,,,,,,0,,,72,0
38880,note_on,60,0,3,,,,,,,,,2,,,60,0
38880,note_on,0,0,3,,,,,,,,,2,,,57,36
38880,note_on,0,0,1,,,,,,,,,0,,,69,36
38940,note_on,0,0,3,,,,,,,,,2,,,53,36
38940,note_on,60,0,3,,,,,,,,,2,,,57,0
38940,control_change,0,0,3,,,,,,,,,2,64,0,,
38940,note_on,0,0,1,,,,,,,,,0,,,65,36
38940,control_change,0,0,1,,,,,,,,,0,64,0,,
38940,note_on,60,0,1,,,,,,,,,0,,,69,0
39000,note_on,0,0,1,,,,,,,,,0,,,68,49
39000,control_change,0,0,1,,,,,,,,,0,64,127,,
39000,note_on,60,0,1,,,,,,,,,0,,,65,0
39000,note_on,1800,0,2,,,,,,,,,1,,,61,36
39000,note_on,0,0,3,,,,,,,,,2,,,54,36
39000,note_on,0,0,3,,,,,,,,,2,,,46,36
39000,note_on,60,0,3,,,,,,,,,2,,,53,0
39006,note_on,0,0,3,,,,,,,,,2,,,46,0
39006,note_on,6,0,3,,,,,,,,,2,,,54,0
39030,note_on,0,0,1,,,,,,,,,0,,,66,49
39030,note_on,30,0,1,,,,,,,,,0,,,68,0
39060,note_on,0,0,1,,,,,,,,,0,,,66,75
39060,note_on,0,0,2,,,,,,,,,1,,,61,62
39060,note_on,60,0,2,,,,,,,,,1,,,61,0
39060,note_on,54,0,3,,,,,,,,,2,,,46,36
39060,note_on,0,0,3,,,,,,,,,2,,,54,36
39060,control_change,0,0,1,,,,,,,,,0,64,0,,
39060,note_on,30,0,1,,,,,,,,,0,,,66,0
39180,note_on,0,0,3,,,,,,,,,2,,,54,36
39180,note_on,120,0,2,,,,,,,,,1,,,61,0
39180,note_on,0,0,2,,,,,,,,,1,,,61,36
39180,note_on,0,0,1,,,,,,,,,0,,,68,49
39180,note_on,120,0,3,,,,,,,,,2,,,54,0
39180,note_on,0,0,3,,,,,,,,,2,,,46,0
39180,note_on,0,0,3,,,,,,,,,2,,,46,36
39180,control_change,0,0,1,,,,,,,,,0,64,127,,
39180,note_on,120,0,1,,,,,,,,,0,,,66,0
39186,note_on,6,0,3,,,,,,,,,2,,,54,0
39186,note_on,0,0,3,,,,,,,,,2,,,46,0
39210,note_on,0,0,1,,,,,,,,,0,,,66,49
39210,note_on,30,0,1,,,,,,,,,0,,,68,0
39240,control_change,0,0,1,,,,,,,,,0,64,0,,
39240,note_on,30,0,1,,,,,,,,,0,,,66,0
39240,note_on,0,0,3,,,,,,,,,2,,,54,36
39240,note_on,0,0,1,,,,,,,,,0,,,66,75
39240,note_on,0,0,2,,,,,,,,,1,,,61,62
39240,note_on,60,0,2,,,,,,,,,1,,,61,0
39240,note_on,54,0,3,,,,,,,,,2,,,46,36
39360,note_on,0,0,3,,,,,,,,,2,,,48,49
39360,note_on,0,0,3,,,,,,,,,2,,,54,49
39360,note_on,0,0,3,,,,,,,,,2,,,57,49
39360,note_on,0,0,1,,,,,,,,,0,,,70,62
39360,control_change,0,0,1,,,,,,,,,0,64,127,,
39360,note_on,0,0,3,,,,,,,,,2,,,46,0
39360,note_on,120,0,1,,,,,,,,,0,,,66,0
39360,note_on,0,0,2,,,,,,,,,1,,,63,49
39360,note_on,0,0,2,,,,,,,,,1,,,66,49
39360,note_on,120,0,2,,,,,,,,,1,,,61,0
39360,note_on,120,0,3,,,,,,,,,2,,,54,0
39366,note_on,0,0,3,,,,,,,,,2,,,48,0
39366,note_on,6,0,3,,,,,,,,,2,,,57,0
39366,note_on,0,0,3,,,,,,,,,2,,,54,0
39390,note_on,0,0,1,,,,,,,,,0,,,69,62
39390,note_on,30,0,1,,,,,,,,,0,,,70,0
39420,note_on,0,0,1,,,,,,,,,0,,,69,88
39420,control_change,0,0,1,,,,,,,,,0,64,0,,
39420,note_on,0,0,3,,,,,,,,,2,,,57,49
39420,note_on,0,0,3,,,,,,,,,2,,,54,49
39420,note_on,30,0,1,,,,,,,,,0,,,69,0
39420,note_on,0,0,2,,,,,,,,,1,,,66,75
39420,note_on,60,0,2,,,,,,,,,1,,,66,0
39420,note_on,0,0,2,,,,,,,,,1,,,63,0
39420,note_on,0,0,2,,,,,,,,,1,,,63,67
39420,note_on,54,0,3,,,,,,,,,2,,,48,49
39540,control_change,0,0,1,,,,,,,,,0,64,127,,
39540,note_on,120,0,1,,,,,,,,,0,,,69,0
39540,note_on,0,0,1,,,,,,,,,0,,,70,62
39540,note_on,120,0,3,,,,,,,,,2,,,57,0
39540,note_on,0,0,2,,,,,,,,,1,,,63,49
39540,note_on,0,0,3,,,,,,,,,2,,,48,0
39540,note_on,120,0,2,,,,,,,,,1,,,66,0
39540,note_on,0,0,2,,,,,,,,,1,,,63,0
39540,note_on,0,0,3,,,,,,,,,2,,,48,49
39540,note_on,0,0,2,,,,,,,,,1,,,66,49
39540,note_on,0,0,3,,,,,,,,,2,,,54,0
39540,note_on,0,0,3,,,,,,,,,2,,,54,49
39540,note_on,0,0,3,,,,,,,,,2,,,57,49
39546,note_on,6,0,3,,,,,,,,,2,,,57,0
39546,note_on,0,0,3,,,,,,,,,2,,,48,0
39546,note_on,0,0,3,,,,,,,,,2,,,54,0
39570,note_on,30,0,1,,,,,,,,,0,,,70,0
39570,note_on,0,0,1,,,,,,,,,0,,,69,62
39600,note_on,0,0,2,,,,,,,,,1,,,63,67
39600,note_on,60,0,2,,,,,,,,,1,,,66,0
39600,note_on,0,0,2,,,,,,,,,1,,,63,0
39600,note_on,54,0,3,,,,,,,,,2,,,48,49
39600,note_on,0,0,2,,,,,,,,,1,,,66,75
39600,note_on,0,0,3,,,,,,,,,2,,,54,49
39600,note_on,30,0,1,,,,,,,,,0,,,69,0
39600,control_change,0,0,1,,,,,,,,,0,64,0,,
39600,note_on,0,0,1,,,,,,,,,0,,,69,88
39600,note_on,0,0,3,,,,,,,,,2,,,57,49
39720,note_on,0,0,2,,,,,,,,,1,,,61,75
39720,note_on,0,0,3,,,,,,,,,2,,,54,75
39720,note_on,0,0,3,,,,,,,,,2,,,49,75
39720,note_on,0,0,3,,,,,,,,,2,,,48,0
39720,note_on,0,0,3,,,,,,,,,2,,,54,0
39720,note_on,0,0,2,,,,,,,,,1,,,66,75
39720,note_on,0,0,3,,,,,,,,,2,,,58,75
39720,note_on,0,0,1,,,,,,,,,0,,,71,88
39720,note_on,120,0,3,,,,,,,,,2,,,57,0
39720,note_on,120,0,1,,,,,,,,,0,,,69,0
39720,note_on,120,0,2,,,,,,,,,1,,,66,0
39720,note_on,0,0,2,,,,,,,,,1,,,63,0
39720,control_change,0,0,1,,,,,,,,,0,64,127,,
39726,note_on,0,0,3,,,,,,,,,2,,,49,0
39726,note_on,0,0,3,,,,,,,,,2,,,54,0
39726,note_on,6,0,3,,,,,,,,,2,,,58,0
39750,note_on,30,0,1,,,,,,,,,0,,,71,0
39750,note_on,0,0,1,,,,,,,,,0,,,70,88
39780,note_on,54,0,3,,,,,,,,,2,,,49,75
39780,note_on,0,0,3,,,,,,,,,2,,,54,75
39780,note_on,0,0,3,,,,,,,,,2,,,58,75
39780,note_on,0,0,1,,,,,,,,,0,,,70,114
39780,note_on,30,0,1,,,,,,,,,0,,,70,0
39780,note_on,0,0,2,,,,,,,,,1,,,66,101
39780,note_on,0,0,2,,,,,,,,,1,,,61,0
39780,note_on,60,0,2,,,,,,,,,1,,,66,0
39780,control_change,0,0,1,,,,,,,,,0,64,0,,
39780,note_on,0,0,2,,,,,,,,,1,,,61,93
39900,note_on,120,0,3,,,,,,,,,2,,,58,0
39900,note_on,0,0,3,,,,,,,,,2,,,54,0
39900,note_on,0,0,3,,,,,,,,,2,,,49,0
39900,note_on,0,0,3,,,,,,,,,2,,,49,75
39900,note_on,0,0,3,,,,,,,,,2,,,56,75
39900,note_on,0,0,3,,,,,,,,,2,,,59,75
39900,note_on,0,0,2,,,,,,,,,1,,,65,75
39900,note_on,0,0,2,,,,,,,,,1,,,68,75
39900,note_on,0,0,1,,,,,,,,,0,,,75,88
39900,note_on,120,0,1,,,,,,,,,0,,,70,0
39900,note_on,120,0,2,,,,,,,,,1,,,66,0
39900,note_on,0,0,2,,,,,,,,,1,,,61,0
39900,control_change,0,0,1,,,,,,,,,0,64,127,,
39906,note_on,6,0,3,,,,,,,,,2,,,59,0
39906,note_on,0,0,3,,,,,,,,,2,,,56,0
39906,note_on,0,0,3,,,,,,,,,2,,,49,0
39930,note_on,0,0,1,,,,,,,,,0,,,73,88
39930,note_on,30,0,1,,,,,,,,,0,,,75,0
39960,note_on,0,0,2,,,,,,,,,1,,,65,0
39960,note_on,0,0,2,,,,,,,,,1,,,65,93
39960,note_on,0,0,2,,,,,,,,,1,,,68,101
39960,note_on,30,0,1,,,,,,,,,0,,,73,0
39960,control_change,0,0,1,,,,,,,,,0,64,0,,
39960,note_on,0,0,1,,,,,,,,,0,,,73,114
39960,note_on,60,0,2,,,,,,,,,1,,,68,0
39960,note_on,0,0,3,,,,,,,,,2,,,59,75
39960,note_on,0,0,3,,,,,,,,,2,,,56,75
39960,note_on,54,0,3,,,,,,,,,2,,,49,75
40080,note_on,120,0,1,,,,,,,,,0,,,73,0
40080,note_on,0,0,3,,,,,,,,,2,,,49,0
40080,note_on,0,0,3,,,,,,,,,2,,,56,0
40080,note_on,120,0,3,,,,,,,,,2,,,59,0
40080,note_on,120,0,2,,,,,,,,,1,,,68,0
40080,control_change,0,0,1,,,,,,,,,0,64,127,,
40080,note_on,0,0,1,,,,,,,,,0,,,83,88
40080,note_on,0,0,2,,,,,,,,,1,,,65,0
40080,note_on,0,0,3,,,,,,,,,2,,,61,75
40080,note_on,0,0,3,,,,,,,,,2,,,66,75
40080,note_on,0,0,3,,,,,,,,,2,,,70,75
40080,note_on,0,0,2,,,,,,,,,1,,,73,75
40080,note_on,0,0,2,,,,,,,,,1,,,78,75
40086,note_on,6,0,3,,,,,,,,,2,,,70,0
40086,note_on,0,0,3,,,,,,,,,2,,,66,0
40086,note_on,0,0,3,,,,,,,,,2,,,61,0
40110,note_on,30,0,1,,,,,,,,,0,,,83,0
40110,note_on,0,0,1,,,,,,,,,0,,,82,88
40140,note_on,60,0,2,,,,,,,,,1,,,78,0
40140,note_on,0,0,2,,,,,,,,,1,,,73,0
40140,note_on,0,0,2,,,,,,,,,1,,,73,93
40140,note_on,0,0,2,,,,,,,,,1,,,78,101
40140,note_on,0,0,3,,,,,,,,,2,,,66,96
40140,note_on,0,0,3,,,,,,,,,2,,,70,101
40140,note_on,0,0,1,,,,,,,,,0,,,82,114
40140,control_change,0,0,1,,,,,,,,,0,64,0,,
40140,note_on,30,0,1,,,,,,,,,0,,,82,0
40140,note_on,54,0,3,,,,,,,,,2,,,61,91
40260,note_on,0,0,3,,,,,,,,,2,,,68,75
40260,control_change,0,0,3,,,,,,,,,2,64,127,,
40260,note_on,0,0,3,,,,,,,,,2,,,61,75
40260,note_on,120,0,3,,,,,,,,,2,,,70,0
40260,note_on,0,0,3,,,,,,,,,2,,,71,75
40260,note_on,0,0,3,,,,,,,,,2,,,61,0
40260,note_on,120,0,2,,,,,,,,,1,,,78,0
40260,note_on,0,0,2,,,,,,,,,1,,,73,0
40260,note_on,0,0,2,,,,,,,,,1,,,77,75
40260,note_on,0,0,2,,,,,,,,,1,,,80,75
40260,note_on,0,0,1,,,,,,,,,0,,,87,88
40260,note_on,0,0,3,,,,,,,,,2,,,66,0
40260,control_change,0,0,1,,,,,,,,,0,64,127,,
40260,note_on,120,0,1,,,,,,,,,0,,,82,0
40266,note_on,6,0,3,,,,,,,,,2,,,71,0
40266,note_on,0,0,3,,,,,,,,,2,,,61,0
40266,note_on,0,0,3,,,,,,,,,2,,,68,0
40290,note_on,30,0,1,,,,,,,,,0,,,87,0
40290,note_on,0,0,1,,,,,,,,,0,,,85,88
40320,note_on,0,0,2,,,,,,,,,1,,,77,93
40320,note_on,0,0,2,,,,,,,,,1,,,77,0
40320,note_on,60,0,2,,,,,,,,,1,,,80,0
40320,note_on,0,0,2,,,,,,,,,1,,,80,101
40320,note_on,30,0,1,,,,,,,,,0,,,85,0
40320,note_on,0,0,1,,,,,,,,,0,,,85,114
40320,note_on,54,0,3,,,,,,,,,2,,,61,91
40320,note_on,0,0,3,,,,,,,,,2,,,68,96
40320,note_on,0,0,3,,,,,,,,,2,,,71,101
40500,note_on,180,0,1,,,,,,,,,0,,,85,0
40500,note_on,0,0,1,,,,,,,,,0,,,77,88
40500,note_on,0,0,1,,,,,,,,,0,,,80,88
40500,note_on,0,0,2,,,,,,,,,1,,,77,0
40500,note_on,180,0,2,,,,,,,,,1,,,80,0
40500,note_on,0,0,1,,,,,,,,,0,,,85,88
40500,note_on,0,0,3,,,,,,,,,2,,,71,75
40500,note_on,0,0,3,,,,,,,,,2,,,68,75
40500,note_on,180,0,3,,,,,,,,,2,,,71,0
40500,note_on,0,0,3,,,,,,,,,2,,,68,0
40500,note_on,0,0,3,,,,,,,,,2,,,61,75
40500,note_on,0,0,3,,,,,,,,,2,,,61,0
40560,note_on,0,0,1,,,,,,,,,0,,,80,0
40560,note_on,0,0,3,,,,,,,,,2,,,61,75
40560,note_on,60,0,1,,,,,,,,,0,,,85,0
40560,note_on,60,0,3,,,,,,,,,2,,,71,0
40560,note_on,0,0,1,,,,,,,,,0,,,77,0
40560,note_on,0,0,1,,,,,,,,,0,,,77,88
40560,note_on,0,0,1,,,,,,,,,0,,,80,88
40560,note_on,0,0,1,,,,,,,,,0,,,85,88
40560,note_on,0,0,3,,,,,,,,,2,,,61,0
40560,note_on,0,0,3,,,,,,,,,2,,,68,0
40560,note_on,0,0,3,,,,,,,,,2,,,71,75
40560,note_on,0,0,3,,,,,,,,,2,,,68,75
40620,note_on,0,0,3,,,,,,,,,2,,,61,88
40620,note_on,0,0,3,,,,,,,,,2,,,61,0
40620,note_on,0,0,3,,,,,,,,,2,,,68,0
40620,note_on,60,0,3,,,,,,,,,2,,,71,0
40620,note_on,0,0,3,,,,,,,,,2,,,68,88
40620,note_on,0,0,3,,,,,,,,,2,,,71,88
40620,note_on,0,0,1,,,,,,,,,0,,,80,101
40620,note_on,60,0,1,,,,,,,,,0,,,85,0
40620,note_on,0,0,1,,,,,,,,,0,,,85,101
40620,note_on,0,0,1,,,,,,,,,0,,,77,101
40620,note_on,0,0,1,,,,,,,,,0,,,77,0
40620,note_on,0,0,1,,,,,,,,,0,,,80,0
40680,note_on,0,0,3,,,,,,,,,2,,,71,88
40680,note_on,0,0,3,,,,,,,,,2,,,68,88
40680,note_on,0,0,3,,,,,,,,,2,,,61,88
40680,note_on,0,0,3,,,,,,,,,2,,,61,0
40680,note_on,0,0,3,,,,,,,,,2,,,68,0
40680,note_on,0,0,1,,,,,,,,,0,,,77,0
40680,note_on,0,0,1,,,,,,,,,0,,,77,101
40680,note_on,0,0,1,,,,,,,,,0,,,85,101
40680,note_on,60,0,1,,,,,,,,,0,,,85,0
40680,note_on,0,0,1,,,,,,,,,0,,,80,0
40680,note_on,60,0,3,,,,,,,,,2,,,71,0
40680,note_on,0,0,1,,,,,,,,,0,,,80,101
40740,note_on,60,0,3,,,,,,,,,2,,,71,0
40740,note_on,0,0,1,,,,,,,,,0,,,80,0
40740,note_on,0,0,3,,,,,,,,,2,,,71,88
40740,note_on,0,0,3,,,,,,,,,2,,,68,0
40740,note_on,0,0,3,,,,,,,,,2,,,61,88
40740,control_change,0,0,3,,,,,,,,,2,64,0,,
40740,note_on,0,0,3,,,,,,,,,2,,,61,0
40740,note_on,0,0,3,,,,,,,,,2,,,68,88
40740,note_on,60,0,1,,,,,,,,,0,,,85,0
40740,control_change,0,0,1,,,,,,,,,0,64,0,,
40740,note_on,0,0,1,,,,,,,,,0,,,85,101
40740,note_on,0,0,1,,,,,,,,,0,,,80,101
40740,note_on,0,0,1,,,,,,,,,0,,,77,101
40740,note_on,0,0,1,,,,,,,,,0,,,77,0
40800,note_on,0,0,3,,,,,,,,,2,,,71,88
40800,note_on,0,0,3,,,,,,,,,2,,,65,88
40800,note_on,0,0,3,,,,,,,,,2,,,61,88
40800,control_change,0,0,3,,,,,,,,,2,64,127,,
40800,note_on,0,0,3,,,,,,,,,2,,,61,0
40800,note_on,0,0,3,,,,,,,,,2,,,68,0
40800,note_on,0,0,1,,,,,,,,,0,,,80,0
40800,control_change,0,0,1,,,,,,,,,0,64,127,,
40800,note_on,0,0,1,,,,,,,,,0,,,89,101
40800,note_on,0,0,1,,,,,,,,,0,,,83,101
40800,note_on,0,0,1,,,,,,,,,0,,,80,101
40800,note_on,0,0,1,,,,,,,,,0,,,77,0
40800,note_on,60,0,1,,,,,,,,,0,,,85,0
40800,note_on,60,0,3,,,,,,,,,2,,,71,0
40860,note_on,0,0,3,,,,,,,,,2,,,71,88
40860,note_on,60,0,3,,,,,,,,,2,,,71,0
40860,note_on,0,0,3,,,,,,,,,2,,,65,0
40860,note_on,0,0,3,,,,,,,,,2,,,61,0
40860,note_on,0,0,3,,,,,,,,,2,,,61,88
40860,note_on,0,0,3,,,,,,,,,2,,,67,88
40860,note_on,0,0,1,,,,,,,,,0,,,83,101
40860,note_on,0,0,1,,,,,,,,,0,,,89,101
40860,note_on,60,0,1,,,,,,,,,0,,,89,0
40860,note_on,0,0,1,,,,,,,,,0,,,83,0
40860,note_on,0,0,1,,,,,,,,,0,,,80,0
40860,note_on,0,0,1,,,,,,,,,0,,,79,101
40920,note_on,0,0,3,,,,,,,,,2,,,61,88
40920,note_on,0,0,3,,,,,,,,,2,,,68,88
40920,note_on,0,0,3,,,,,,,,,2,,,71,88
40920,note_on,0,0,3,,,,,,,,,2,,,67,0
40920,note_on,0,0,3,,,,,,,,,2,,,61,0
40920,note_on,0,0,1,,,,,,,,,0,,,83,0
40920,note_on,0,0,1,,,,,,,,,0,,,79,0
40920,note_on,0,0,1,,,,,,,,,0,,,77,101
40920,note_on,0,0,1,,,,,,,,,0,,,83,101
40920,note_on,0,0,1,,,,,,,,,0,,,89,101
40920,note_on,60,0,1,,,,,,,,,0,,,89,0
40920,note_on,60,0,3,,,,,,,,,2,,,71,0
40980,note_on,60,0,1,,,,,,,,,0,,,89,0
40980,note_on,0,0,1,,,,,,,,,0,,,83,0
40980,note_on,0,0,1,,,,,,,,,0,,,83,101
40980,note_on,0,0,1,,,,,,,,,0,,,89,101
40980,note_on,0,0,1,,,,,,,,,0,,,77,0
40980,note_on,60,0,3,,,,,,,,,2,,,71,0
40980,note_on,0,0,3,,,,,,,,,2,,,68,0
40980,note_on,0,0,3,,,,,,,,,2,,,61,0
40980,note_on,0,0,3,,,,,,,,,2,,,61,88
40980,note_on,0,0,3,,,,,,,,,2,,,65,88
40980,note_on,0,0,3,,,,,,,,,2,,,71,88
40980,note_on,0,0,1,,,,,,,,,0,,,80,101
41040,note_on,0,0,1,,,,,,,,,0,,,83,0
41040,note_on,60,0,3,,,,,,,,,2,,,71,0
41040,note_on,0,0,3,,,,,,,,,2,,,65,0
41040,note_on,0,0,3,,,,,,,,,2,,,61,0
41040,note_on,0,0,3,,,,,,,,,2,,,61,88
41040,note_on,0,0,3,,,,,,,,,2,,,67,88
41040,note_on,0,0,3,,,,,,,,,2,,,71,88
41040,note_on,0,0,1,,,,,,,,,0,,,80,0
41040,note_on,0,0,1,,,,,,,,,0,,,79,101
41040,note_on,60,0,1,,,,,,,,,0,,,89,0
41040,note_on,0,0,1,,,,,,,,,0,,,83,101
41040,note_on,0,0,1,,,,,,,,,0,,,89,101
41100,note_on,60,0,1,,,,,,,,,0,,,89,0
41100,control_change,0,0,3,,,,,,,,,2,64,0,,
41100,note_on,0,0,3,,,,,,,,,2,,,61,88
41100,note_on,0,0,3,,,,,,,,,2,,,68,88
41100,note_on,0,0,3,,,,,,,,,2,,,71,88
41100,note_on,60,0,3,,,,,,,,,2,,,71,0
41100,note_on,0,0,1,,,,,,,,,0,,,83,0
41100,note_on,0,0,1,,,,,,,,,0,,,79,0
41100,note_on,0,0,1,,,,,,,,,0,,,77,101
41100,note_on,0,0,1,,,,,,,,,0,,,83,101
41100,note_on,0,0,1,,,,,,,,,0,,,89,101
41100,control_change,0,0,1,,,,,,,,,0,64,0,,
41100,note_on,0,0,3,,,,,,,,,2,,,61,0
41100,note_on,0,0,3,,,,,,,,,2,,,67,0
41160,note_on,0,0,3,,,,,,,,,2,,,68,0
41160,note_on,0,0,3,,,,,,,,,2,,,65,101
41160,note_on,0,0,3,,,,,,,,,2,,,60,101
41160,control_change,0,0,3,,,,,,,,,2,64,127,,
41160,note_on,0,0,3,,,,,,,,,2,,,61,0
41160,note_on,60,0,1,,,,,,,,,0,,,89,0
41160,note_on,0,0,1,,,,,,,,,0,,,83,0
41160,note_on,0,0,1,,,,,,,,,0,,,77,0
41160,note_on,0,0,3,,,,,,,,,2,,,69,101
41160,note_on,0,0,1,,,,,,,,,0,,,77,114
41160,note_on,0,0,1,,,,,,,,,0,,,84,114
41160,note_on,60,0,3,,,,,,,,,2,,,71,0
41160,note_on,0,0,1,,,,,,,,,0,,,89,114
41160,control_change,0,0,1,,,,,,,,,0,64,127,,
41160,note_on,0,0,1,,,,,,,,,0,,,81,114
41160,note_on,0,0,3,,,,,,,,,2,,,72,101
41400,note_on,0,0,3,,,,,,,,,2,,,60,0
41400,note_on,240,0,3,,,,,,,,,2,,,72,0
41400,note_on,0,0,3,,,,,,,,,2,,,65,0
41400,note_on,0,0,3,,,,,,,,,2,,,69,0
41400,note_on,0,0,3,,,,,,,,,2,,,72,36
41400,note_on,0,0,1,,,,,,,,,0,,,84,49
41400,note_on,0,0,1,,,,,,,,,0,,,84,0
41400,note_on,240,0,1,,,,,,,,,0,,,89,0
41400,note_on,0,0,1,,,,,,,,,0,,,77,0
41400,note_on,0,0,1,,,,,,,,,0,,,81,0
41460,note_on,0,0,1,,,,,,,,,0,,,81,49
41460,note_on,60,0,3,,,,,,,,,2,,,72,0
41460,note_on,60,0,1,,,,,,,,,0,,,84,0
41460,note_on,0,0,3,,,,,,,,,2,,,69,36
41520,note_on,60,0,3,,,,,,,,,2,,,69,0
41520,note_on,0,0,3,,,,,,,,,2,,,65,36
41520,note_on,0,0,1,,,,,,,,,0,,,77,49
41520,note_on,60,0,1,,,,,,,,,0,,,81,0
41580,note_on,60,0,1,,,,,,,,,0,,,77,0
41580,note_on,0,0,1,,,,,,,,,0,,,72,49
41580,note_on,0,0,3,,,,,,,,,2,,,60,36
41580,note_on,60,0,3,,,,,,,,,2,,,65,0
41640,note_on,0,0,3,,,,,,,,,2,,,57,36
41640,note_on,60,0,1,,,,,,,,,0,,,72,0
41640,note_on,0,0,1,,,,,,,,,0,,,69,49
41640,note_on,60,0,3,,,,,,,,,2,,,60,0
41700,note_on,0,0,3,,,,,,,,,2,,,53,36
41700,note_on,60,0,1,,,,,,,,,0,,,69,0
41700,note_on,0,0,1,,,,,,,,,0,,,65,49
41700,note_on,60,0,3,,,,,,,,,2,,,57,0
41760,note_on,60,0,3,,,,,,,,,2,,,53,0
41760,note_on,60,0,1,,,,,,,,,0,,,65,0
41760,note_on,0,0,3,,,,,,,,,2,,,50,36
41760,note_on,0,0,1,,,,,,,,,0,,,62,49
41820,control_change,0,0,1,,,,,,,,,0,64,0,,
41820,note_on,0,0,1,,,,,,,,,0,,,59,49
41820,note_on,0,0,3,,,,,,,,,2,,,47,36
41820,control_change,0,0,3,,,,,,,,,2,64,0,,
41820,note_on,60,0,3,,,,,,,,,2,,,50,0
41820,note_on,60,0,1,,,,,,,,,0,,,62,0
41865,note_on,45,0,1,,,,,,,,,0,,,67,49
41880,note_on,1380,0,2,,,,,,,,,1,,,60,75
41880,note_on,60,0,3,,,,,,,,,2,,,47,0
41880,note_on,3294,0,4,,,,,,,,,3,,,48,36
41880,note_on,15,0,1,,,,,,,,,0,,,67,0
41880,note_on,0,0,1,,,,,,,,,0,,,59,0
41880,note_on,0,0,1,,,,,,,,,0,,,65,49
41880,control_change,0,0,1,,,,,,,,,0,64,127,,
41880,note_on,0,0,3,,,,,,,,,2,,,57,36
41970,note_on,90,0,1,,,,,,,,,0,,,65,0
41970,note_on,0,0,1,,,,,,,,,0,,,64,49
42000,note_on,30,0,1,,,,,,,,,0,,,64,0
42000,note_on,0,0,1,,,,,,,,,0,,,65,49
42060,note_on,60,0,1,,,,,,,,,0,,,65,0
42060,note_on,0,0,1,,,,,,,,,0,,,69,49
42060,note_on,180,0,2,,,,,,,,,1,,,60,0
42060,note_on,0,0,2,,,,,,,,,1,,,64,75
42060,note_on,180,0,3,,,,,,,,,2,,,57,0
42060,control_change,0,0,1,,,,,,,,,0,64,0,,
42060,note_on,0,0,3,,,,,,,,,2,,,58,36
42180,note_on,120,0,1,,,,,,,,,0,,,69,0
42180,note_on,0,0,1,,,,,,,,,0,,,67,49
42240,note_on,360,0,4,,,,,,,,,3,,,48,0
42240,control_change,0,0,4,,,,,,,,,3,64,127,,
42240,note_on,0,0,4,,,,,,,,,3,,,41,36
42240,note_on,0,0,2,,,,,,,,,1,,,53,36
42240,note_on,180,0,3,,,,,,,,,2,,,58,0
42240,note_on,0,0,3,,,,,,,,,2,,,45,49
42240,note_on,180,0,2,,,,,,,,,1,,,64,0
42240,note_on,60,0,1,,,,,,,,,0,,,67,0
42240,note_on,0,0,1,,,,,,,,,0,,,53,49
42240,note_on,0,0,1,,,,,,,,,0,,,65,49
42246,note_on,6,0,4,,,,,,,,,3,,,41,0
42300,note_on,54,0,4,,,,,,,,,3,,,41,36
42306,note_on,6,0,4,,,,,,,,,3,,,41,0
42360,note_on,54,0,4,,,,,,,,,3,,,41,36
42366,note_on,6,0,4,,,,,,,,,3,,,41,0
42420,note_on,180,0,1,,,,,,,,,0,,,65,0
42420,note_on,0,0,3,,,,,,,,,2,,,48,49
42420,note_on,54,0,4,,,,,,,,,3,,,41,36
42420,note_on,0,0,1,,,,,,,,,0,,,53,0
42420,note_on,0,0,1,,,,,,,,,0,,,57,49
42420,note_on,180,0,3,,,,,,,,,2,,,45,0
42426,note_on,6,0,4,,,,,,,,,3,,,41,0
42480,note_on,54,0,4,,,,,,,,,3,,,41,36
42486,note_on,6,0,4,,,,,,,,,3,,,41,0
42540,note_on,0,0,4,,,,,,,,,3,,,41,36
42540,control_change,54,0,4,,,,,,,,,3,64,0,,
42546,note_on,6,0,4,,,,,,,,,3,,,41,0
42600,note_on,0,0,3,,,,,,,,,2,,,49,49
42600,note_on,180,0,1,,,,,,,,,0,,,57,0
42600,control_change,0,0,1,,,,,,,,,0,64,127,,
42600,note_on,0,0,1,,,,,,,,,0,,,55,67
42600,note_on,0,0,1,,,,,,,,,0,,,60,75
42600,control_change,54,0,4,,,,,,,,,3,64,127,,
42600,note_on,0,0,2,,,,,,,,,1,,,52,62
42600,note_on,360,0,2,,,,,,,,,1,,,53,0
42600,note_on,180,0,3,,,,,,,,,2,,,48,0
42600,note_on,0,0,4,,,,,,,,,3,,,41,36
42606,note_on,6,0,4,,,,,,,,,3,,,41,0
42660,note_on,54,0,4,,,,,,,,,3,,,41,36
42666,note_on,6,0,4,,,,,,,,,3,,,41,0
42720,note_on,54,0,4,,,,,,,,,3,,,41,36
42726,note_on,6,0,4,,,,,,,,,3,,,41,0
42780,note_on,0,0,1,,,,,,,,,0,,,58,49
42780,note_on,180,0,1,,,,,,,,,0,,,60,0
42780,note_on,54,0,4,,,,,,,,,3,,,41,36
42786,note_on,6,0,4,,,,,,,,,3,,,41,0
42840,note_on,54,0,4,,,,,,,,,3,,,41,36
42846,note_on,6,0,4,,,,,,,,,3,,,41,0
42900,note_on,0,0,4,,,,,,,,,3,,,41,36
42900,control_change,54,0,4,,,,,,,,,3,64,0,,
42900,note_on,120,0,1,,,,,,,,,0,,,58,0
42900,note_on,0,0,1,,,,,,,,,0,,,55,0
42900,note_on,0,0,1,,,,,,,,,0,,,57,49
42900,control_change,0,0,1,,,,,,,,,0,64,0,,
42906,note_on,6,0,4,,,,,,,,,3,,,41,0
42960,control_change,54,0,4,,,,,,,,,3,64,127,,
42960,note_on,0,0,4,,,,,,,,,3,,,41,36
42960,note_on,60,0,1,,,,,,,,,0,,,57,0
42960,control_change,0,0,1,,,,,,,,,0,64,127,,
42960,note_on,0,0,1,,,,,,,,,0,,,55,49
42960,note_on,0,0,3,,,,,,,,,2,,,48,49
42960,note_on,360,0,3,,,,,,,,,2,,,49,0
42960,note_on,0,0,2,,,,,,,,,1,,,52,36
42960,note_on,360,0,2,,,,,,,,,1,,,52,0
42966,note_on,6,0,4,,,,,,,,,3,,,41,0
43020,note_on,54,0,4,,,,,,,,,3,,,41,36
43026,note_on,6,0,4,,,,,,,,,3,,,41,0
43080,note_on,54,0,4,,,,,,,,,3,,,41,36
43086,note_on,6,0,4,,,,,,,,,3,,,41,0
43140,note_on,0,0,3,,,,,,,,,2,,,46,49
43140,note_on,180,0,3,,,,,,,,,2,,,48,0
43140,note_on,54,0,4,,,,,,,,,3,,,41,36
43146,note_on,6,0,4,,,,,,,,,3,,,41,0
43200,note_on,0,0,1,,,,,,,,,0,,,58,49
43200,note_on,54,0,4,,,,,,,,,3,,,41,36
43200,note_on,240,0,1,,,,,,,,,0,,,55,0
43206,note_on,6,0,4,,,,,,,,,3,,,41,0
43260,control_change,54,0,4,,,,,,,,,3,64,0,,
43260,note_on,0,0,4,,,,,,,,,3,,,41,36
43260,note_on,0,0,1,,,,,,,,,0,,,61,49
43260,control_change,0,0,1,,,,,,,,,0,64,0,,
43260,note_on,60,0,1,,,,,,,,,0,,,58,0
43266,note_on,6,0,4,,,,,,,,,3,,,41,0
43320,note_on,360,0,2,,,,,,,,,1,,,52,0
43320,note_on,0,0,2,,,,,,,,,1,,,53,36
43320,note_on,180,0,3,,,,,,,,,2,,,46,0
43320,note_on,0,0,3,,,,,,,,,2,,,45,49
43320,control_change,54,0,4,,,,,,,,,3,64,127,,
43320,note_on,60,0,1,,,,,,,,,0,,,61,0
43320,note_on,0,0,1,,,,,,,,,0,,,61,49
43320,note_on,0,0,4,,,,,,,,,3,,,41,36
43326,note_on,6,0,4,,,,,,,,,3,,,41,0
43380,note_on,54,0,4,,,,,,,,,3,,,41,36
43386,note_on,6,0,4,,,,,,,,,3,,,41,0
43440,note_on,54,0,4,,,,,,,,,3,,,41,36
43446,note_on,6,0,4,,,,,,,,,3,,,41,0
43500,note_on,54,0,4,,,,,,,,,3,,,41,36
43500,note_on,180,0,1,,,,,,,,,0,,,61,0
43500,note_on,0,0,1,,,,,,,,,0,,,60,49
43506,note_on,6,0,4,,,,,,,,,3,,,41,0
43560,note_on,54,0,4,,,,,,,,,3,,,41,36
43566,note_on,6,0,4,,,,,,,,,3,,,41,0
43620,note_on,0,0,4,,,,,,,,,3,,,41,36
43620,control_change,54,0,4,,,,,,,,,3,64,0,,
43626,note_on,6,0,4,,,,,,,,,3,,,41,0
43680,note_on,180,0,1,,,,,,,,,0,,,60,0
43680,note_on,0,0,2,,,,,,,,,1,,,53,36
43680,note_on,360,0,3,,,,,,,,,2,,,45,0
43680,note_on,0,0,1,,,,,,,,,0,,,53,49
43680,note_on,360,0,2,,,,,,,,,1,,,53,0
43680,note_on,0,0,3,,,,,,,,,2,,,45,49
43680,control_change,54,0,4,,,,,,,,,3,64,127,,
43680,note_on,0,0,4,,,,,,,,,3,,,41,36
43686,note_on,6,0,4,,,,,,,,,3,,,41,0
43740,note_on,54,0,4,,,,,,,,,3,,,41,36
43746,note_on,6,0,4,,,,,,,,,3,,,41,0
43800,note_on,54,0,4,,,,,,,,,3,,,41,36
43806,note_on,6,0,4,,,,,,,,,3,,,41,0
43860,note_on,180,0,3,,,,,,,,,2,,,45,0
43860,note_on,0,0,1,,,,,,,,,0,,,57,49
43860,note_on,0,0,3,,,,,,,,,2,,,51,49
43860,note_on,54,0,4,,,,,,,,,3,,,41,36
43860,note_on,180,0,1,,,,,,,,,0,,,53,0
43866,note_on,6,0,4,,,,,,,,,3,,,41,0
43920,note_on,54,0,4,,,,,,,,,3,,,41,36
43926,note_on,6,0,4,,,,,,,,,3,,,41,0
43980,control_change,54,0,4,,,,,,,,,3,64,0,,
43980,note_on,0,0,4,,,,,,,,,3,,,41,36
43986,note_on,6,0,4,,,,,,,,,3,,,41,0
44040,control_change,0,0,1,,,,,,,,,0,64,127,,
44040,note_on,0,0,1,,,,,,,,,0,,,55,67
44040,note_on,0,0,1,,,,,,,,,0,,,60,75
44040,note_on,180,0,3,,,,,,,,,2,,,51,0
44040,note_on,180,0,1,,,,,,,,,0,,,57,0
44040,note_on,0,0,3,,,,,,,,,2,,,49,49
44040,note_on,360,0,2,,,,,,,,,1,,,53,0
44040,note_on,0,0,4,,,,,,,,,3,,,41,36
44040,control_change,54,0,4,,,,,,,,,3,64,127,,
44040,note_on,0,0,2,,,,,,,,,1,,,52,62
44046,note_on,6,0,4,,,,,,,,,3,,,41,0
44100,note_on,54,0,4,,,,,,,,,3,,,41,36
44106,note_on,6,0,4,,,,,,,,,3,,,41,0
44160,note_on,54,0,4,,,,,,,,,3,,,41,36
44166,note_on,6,0,4,,,,,,,,,3,,,41,0
44220,note_on,54,0,4,,,,,,,,,3,,,41,36
44220,note_on,0,0,1,,,,,,,,,0,,,58,49
44220,note_on,180,0,1,,,,,,,,,0,,,60,0
44226,note_on,6,0,4,,,,,,,,,3,,,41,0
44280,note_on,54,0,4,,,,,,,,,3,,,41,36
44286,note_on,6,0,4,,,,,,,,,3,,,41,0
44340,control_change,0,0,1,,,,,,,,,0,64,0,,
44340,note_on,0,0,1,,,,,,,,,0,,,57,49
44340,control_change,54,0,4,,,,,,,,,3,64,0,,
44340,note_on,0,0,4,,,,,,,,,3,,,41,36
44340,note_on,0,0,1,,,,,,,,,0,,,55,0
44340,note_on,120,0,1,,,,,,,,,0,,,58,0
44346,note_on,6,0,4,,,,,,,,,3,,,41,0
44400,note_on,360,0,2,,,,,,,,,1,,,52,0
44400,note_on,60,0,1,,,,,,,,,0,,,57,0
44400,control_change,0,0,1,,,,,,,,,0,64,127,,
44400,control_change,54,0,4,,,,,,,,,3,64,127,,
44400,note_on,0,0,4,,,,,,,,,3,,,41,36
44400,note_on,0,0,3,,,,,,,,,2,,,48,49
44400,note_on,0,0,2,,,,,,,,,1,,,52,36
44400,note_on,360,0,3,,,,,,,,,2,,,49,0
44400,note_on,0,0,1,,,,,,,,,0,,,55,49
44406,note_on,6,0,4,,,,,,,,,3,,,41,0
44460,note_on,54,0,4,,,,,,,,,3,,,41,36
44466,note_on,6,0,4,,,,,,,,,3,,,41,0
44520,note_on,54,0,4,,,,,,,,,3,,,41,36
44526,note_on,6,0,4,,,,,,,,,3,,,41,0
44580,note_on,180,0,3,,,,,,,,,2,,,48,0
44580,note_on,0,0,3,,,,,,,,,2,,,46,49
44580,note_on,54,0,4,,,,,,,,,3,,,41,36
44586,note_on,6,0,4,,,,,,,,,3,,,41,0
44640,note_on,54,0,4,,,,,,,,,3,,,41,36
44640,note_on,240,0,1,,,,,,,,,0,,,55,0
44640,note_on,0,0,1,,,,,,,,,0,,,58,49
44646,note_on,6,0,4,,,,,,,,,3,,,41,0
44700,note_on,0,0,4,,,,,,,,,3,,,41,36
44700,note_on,0,0,1,,,,,,,,,0,,,61,49
44700,control_change,0,0,1,,,,,,,,,0,64,0,,
44700,control_change,54,0,4,,,,,,,,,3,64,0,,
44700,note_on,60,0,1,,,,,,,,,0,,,58,0
44706,note_on,6,0,4,,,,,,,,,3,,,41,0
44760,note_on,360,0,2,,,,,,,,,1,,,52,0
44760,note_on,180,0,3,,,,,,,,,2,,,46,0
44760,note_on,0,0,3,,,,,,,,,2,,,45,49
44760,note_on,0,0,1,,,,,,,,,0,,,61,49
44760,note_on,60,0,1,,,,,,,,,0,,,61,0
44760,control_change,54,0,4,,,,,,,,,3,64,127,,
44760,note_on,0,0,4,,,,,,,,,3,,,41,36
44760,note_on,0,0,2,,,,,,,,,1,,,53,36
44766,note_on,6,0,4,,,,,,,,,3,,,41,0
44820,note_on,54,0,4,,,,,,,,,3,,,41,36
44826,note_on,6,0,4,,,,,,,,,3,,,41,0
44880,note_on,54,0,4,,,,,,,,,3,,,41,36
44886,note_on,6,0,4,,,,,,,,,3,,,41,0
44940,note_on,180,0,1,,,,,,,,,0,,,61,0
44940,note_on,0,0,1,,,,,,,,,0,,,60,49
44940,note_on,54,0,4,,,,,,,,,3,,,41,36
44946,note_on,6,0,4,,,,,,,,,3,,,41,0
45000,note_on,54,0,4,,,,,,,,,3,,,41,36
45006,note_on,6,0,4,,,,,,,,,3,,,41,0
45060,note_on,0,0,4,,,,,,,,,3,,,41,36
45060,control_change,54,0,4,,,,,,,,,3,64,0,,
45066,note_on,6,0,4,,,,,,,,,3,,,41,0
45120,note_on,180,0,1,,,,,,,,,0,,,60,0
45120,note_on,0,0,1,,,,,,,,,0,,,61,49
45120,note_on,0,0,4,,,,,,,,,3,,,41,36
45120,note_on,0,0,2,,,,,,,,,1,,,51,36
45120,note_on,0,0,2,,,,,,,,,1,,,57,36
45120,note_on,360,0,3,,,,,,,,,2,,,45,0
45120,note_on,360,0,2,,,,,,,,,1,,,53,0
45120,control_change,54,0,4,,,,,,,,,3,64,127,,
45126,note_on,6,0,4,,,,,,,,,3,,,41,0
45180,note_on,54,0,4,,,,,,,,,3,,,41,36
45186,note_on,6,0,4,,,,,,,,,3,,,41,0
45240,note_on,54,0,4,,,,,,,,,3,,,41,36
45246,note_on,6,0,4,,,,,,,,,3,,,41,0
45300,note_on,54,0,4,,,,,,,,,3,,,41,36
45300,note_on,0,0,1,,,,,,,,,0,,,60,49
45300,note_on,180,0,1,,,,,,,,,0,,,61,0
45306,note_on,6,0,4,,,,,,,,,3,,,41,0
45360,note_on,54,0,4,,,,,,,,,3,,,41,36
45366,note_on,6,0,4,,,,,,,,,3,,,41,0
45420,note_on,0,0,4,,,,,,,,,3,,,41,36
45420,control_change,54,0,4,,,,,,,,,3,64,0,,
45426,note_on,6,0,4,,,,,,,,,3,,,41,0
45480,note_on,0,0,1,,,,,,,,,0,,,61,49
45480,note_on,360,0,2,,,,,,,,,1,,,57,0
45480,note_on,0,0,2,,,,,,,,,1,,,51,0
45480,note_on,0,0,2,,,,,,,,,1,,,51,36
45480,note_on,0,0,2,,,,,,,,,1,,,57,36
45480,note_on,0,0,4,,,,,,,,,3,,,41,36
45480,note_on,180,0,1,,,,,,,,,0,,,60,0
45480,control_change,54,0,4,,,,,,,,,3,64,127,,
45486,note_on,6,0,4,,,,,,,,,3,,,41,0
45540,note_on,54,0,4,,,,,,,,,3,,,41,36
45546,note_on,6,0,4,,,,,,,,,3,,,41,0
45600,note_on,54,0,4,,,,,,,,,3,,,41,36
45606,note_on,6,0,4,,,,,,,,,3,,,41,0
45660,note_on,180,0,1,,,,,,,,,0,,,61,0
45660,note_on,0,0,1,,,,,,,,,0,,,60,49
45660,note_on,54,0,4,,,,,,,,,3,,,41,36
45666,note_on,6,0,4,,,,,,,,,3,,,41,0
45720,note_on,54,0,4,,,,,,,,,3,,,41,36
45726,note_on,6,0,4,,,,,,,,,3,,,41,0
45780,control_change,54,0,4,,,,,,,,,3,64,0,,
45780,note_on,0,0,4,,,,,,,,,3,,,41,36
45786,note_on,6,0,4,,,,,,,,,3,,,41,0
45840,note_on,180,0,1,,,,,,,,,0,,,60,0
45840,note_on,360,0,2,,,,,,,,,1,,,57,0
45840,note_on,0,0,2,,,,,,,,,1,,,51,0
45840,note_on,0,0,2,,,,,,,,,1,,,49,36
45840,set_tempo,22320,1,0,,,,,,500000,,,,,,,
45840,note_on,0,0,3,,,,,,,,,2,,,41,49
45840,control_change,720,0,3,,,,,,,,,2,64,127,,
45840,note_on,0,0,1,,,,,,,,,0,,,60,49
45840,note_on,0,0,2,,,,,,,,,1,,,53,36
45846,note_on,6,0,3,,,,,,,,,2,,,41,0
45900,note_on,54,0,3,,,,,,,,,2,,,41,49
45906,note_on,6,0,3,,,,,,,,,2,,,41,0
45960,note_on,54,0,3,,,,,,,,,2,,,41,49
45966,note_on,6,0,3,,,,,,,,,2,,,41,0
46020,note_on,0,0,1,,,,,,,,,0,,,58,49
46020,note_on,180,0,1,,,,,,,,,0,,,60,0
46020,note_on,54,0,3,,,,,,,,,2,,,41,49
46026,note_on,6,0,3,,,,,,,,,2,,,41,0
46080,note_on,54,0,3,,,,,,,,,2,,,41,49
46086,note_on,6,0,3,,,,,,,,,2,,,41,0
46140,control_change,54,0,3,,,,,,,,,2,64,0,,
46140,note_on,0,0,3,,,,,,,,,2,,,41,49
46146,note_on,6,0,3,,,,,,,,,2,,,41,0
46200,note_on,0,0,2,,,,,,,,,1,,,49,0
46200,note_on,360,0,2,,,,,,,,,1,,,53,0
46200,set_tempo,360,1,0,,,,,,500000,,,,,,,
46200,note_on,180,0,1,,,,,,,,,0,,,58,0
46200,note_on,0,0,2,,,,,,,,,1,,,53,36
46200,note_on,0,0,1,,,,,,,,,0,,,60,49
46200,note_on,0,0,3,,,,,,,,,2,,,41,49
46200,control_change,54,0,3,,,,,,,,,2,64,127,,
46200,note_on,0,0,2,,,,,,,,,1,,,49,36
46206,note_on,6,0,3,,,,,,,,,2,,,41,0
46260,note_on,54,0,3,,,,,,,,,2,,,41,49
46266,note_on,6,0,3,,,,,,,,,2,,,41,0
46320,note_on,54,0,3,,,,,,,,,2,,,41,49
46326,note_on,6,0,3,,,,,,,,,2,,,41,0
46380,note_on,0,0,1,,,,,,,,,0,,,58,49
46380,note_on,54,0,3,,,,,,,,,2,,,41,49
46380,note_on,180,0,1,,,,,,,,,0,,,60,0
46386,note_on,6,0,3,,,,,,,,,2,,,41,0
46440,note_on,54,0,3,,,,,,,,,2,,,41,49
46446,note_on,6,0,3,,,,,,,,,2,,,41,0
46500,note_on,0,0,3,,,,,,,,,2,,,41,49
46500,control_change,54,0,3,,,,,,,,,2,64,0,,
46506,note_on,6,0,3,,,,,,,,,2,,,41,0
46560,note_on,0,0,2,,,,,,,,,1,,,49,0
46560,control_change,0,0,2,,,,,,,,,1,64,127,,
46560,note_on,0,0,3,,,,,,,,,2,,,53,49
46560,note_on,54,0,3,,,,,,,,,2,,,41,49
46560,note_on,0,0,1,,,,,,,,,0,,,59,49
46560,note_on,180,0,1,,,,,,,,,0,,,58,0
46560,note_on,360,0,2,,,,,,,,,1,,,53,0
46560,note_on,0,0,1,,,,,,,,,0,,,70,49
46560,note_on,0,0,2,,,,,,,,,1,,,61,36
46560,control_change,774,0,4,,,,,,,,,3,64,127,,
46560,note_on,0,0,4,,,,,,,,,3,,,49,36
46566,note_on,6,0,2,,,,,,,,,1,,,61,0
46566,note_on,6,0,4,,,,,,,,,3,,,49,0
46620,note_on,54,0,4,,,,,,,,,3,,,49,36
46620,note_on,54,0,2,,,,,,,,,1,,,61,36
46626,note_on,6,0,2,,,,,,,,,1,,,61,0
46626,note_on,6,0,4,,,,,,,,,3,,,49,0
46680,note_on,54,0,2,,,,,,,,,1,,,61,36
46680,note_on,54,0,4,,,,,,,,,3,,,49,36
46686,note_on,6,0,4,,,,,,,,,3,,,49,0
46686,note_on,6,0,2,,,,,,,,,1,,,61,0
46740,note_on,54,0,4,,,,,,,,,3,,,49,36
46740,note_on,0,0,1,,,,,,,,,0,,,68,49
46740,note_on,54,0,2,,,,,,,,,1,,,61,36
46740,note_on,0,0,1,,,,,,,,,0,,,59,0
46740,note_on,180,0,1,,,,,,,,,0,,,70,0
46746,note_on,6,0,2,,,,,,,,,1,,,61,0
46746,note_on,6,0,4,,,,,,,,,3,,,49,0
46800,note_on,54,0,2,,,,,,,,,1,,,61,36
46800,note_on,54,0,4,,,,,,,,,3,,,49,36
46806,note_on,6,0,2,,,,,,,,,1,,,61,0
46806,note_on,6,0,4,,,,,,,,,3,,,49,0
46860,control_change,54,0,2,,,,,,,,,1,64,0,,
46860,note_on,0,0,2,,,,,,,,,1,,,61,36
46860,note_on,0,0,4,,,,,,,,,3,,,49,36
46860,control_change,54,0,4,,,,,,,,,3,64,0,,
46866,note_on,6,0,2,,,,,,,,,1,,,61,0
46866,note_on,6,0,4,,,,,,,,,3,,,49,0
46920,note_on,0,0,4,,,,,,,,,3,,,49,36
46920,control_change,54,0,2,,,,,,,,,1,64,127,,
46920,note_on,0,0,2,,,,,,,,,1,,,61,36
46920,control_change,54,0,4,,,,,,,,,3,64,127,,
46920,note_on,0,0,3,,,,,,,,,2,,,41,0
46920,note_on,0,0,1,,,,,,,,,0,,,70,49
46920,note_on,0,0,1,,,,,,,,,0,,,59,49
46920,note_on,180,0,1,,,,,,,,,0,,,68,0
46920,note_on,360,0,3,,,,,,,,,2,,,53,0
46920,note_on,0,0,3,,,,,,,,,2,,,53,49
46920,note_on,0,0,3,,,,,,,,,2,,,41,49
46926,note_on,6,0,2,,,,,,,,,1,,,61,0
46926,note_on,6,0,4,,,,,,,,,3,,,49,0
46980,note_on,54,0,2,,,,,,,,,1,,,61,36
46980,note_on,54,0,4,,,,,,,,,3,,,49,36
46986,note_on,6,0,4,,,,,,,,,3,,,49,0
46986,note_on,6,0,2,,,,,,,,,1,,,61,0
47040,note_on,54,0,4,,,,,,,,,3,,,49,36
47040,note_on,54,0,2,,,,,,,,,1,,,61,36
47046,note_on,6,0,4,,,,,,,,,3,,,49,0
47046,note_on,6,0,2,,,,,,,,,1,,,61,0
47100,note_on,54,0,2,,,,,,,,,1,,,61,36
47100,note_on,180,0,1,,,,,,,,,0,,,70,0
47100,note_on,0,0,1,,,,,,,,,0,,,59,0
47100,note_on,54,0,4,,,,,,,,,3,,,49,36
47100,note_on,0,0,1,,,,,,,,,0,,,68,49
47106,note_on,6,0,4,,,,,,,,,3,,,49,0
47106,note_on,6,0,2,,,,,,,,,1,,,61,0
47160,note_on,54,0,4,,,,,,,,,3,,,49,36
47160,note_on,54,0,2,,,,,,,,,1,,,61,36
47166,note_on,6,0,4,,,,,,,,,3,,,49,0
47166,note_on,6,0,2,,,,,,,,,1,,,61,0
47220,note_on,0,0,4,,,,,,,,,3,,,49,36
47220,control_change,54,0,4,,,,,,,,,3,64,0,,
47220,control_change,54,0,2,,,,,,,,,1,64,0,,
47220,note_on,0,0,2,,,,,,,,,1,,,61,36
47226,note_on,6,0,4,,,,,,,,,3,,,49,0
47226,note_on,6,0,2,,,,,,,,,1,,,61,0
47280,control_change,54,0,2,,,,,,,,,1,64,127,,
47280,note_on,0,0,4,,,,,,,,,3,,,49,36
47280,note_on,0,0,2,,,,,,,,,1,,,61,36
47280,control_change,54,0,4,,,,,,,,,3,64,127,,
47280,note_on,360,0,3,,,,,,,,,2,,,53,0
47280,note_on,0,0,3,,,,,,,,,2,,,41,0
47280,note_on,0,0,3,,,,,,,,,2,,,42,49
47280,note_on,0,0,3,,,,,,,,,2,,,54,49
47280,note_on,180,0,1,,,,,,,,,0,,,68,0
47280,note_on,0,0,1,,,,,,,,,0,,,58,49
47280,note_on,0,0,1,,,,,,,,,0,,,68,49
47286,note_on,6,0,2,,,,,,,,,1,,,61,0
47286,note_on,6,0,4,,,,,,,,,3,,,49,0
47340,note_on,54,0,2,,,,,,,,,1,,,61,36
47340,note_on,54,0,4,,,,,,,,,3,,,49,36
47346,note_on,6,0,4,,,,,,,,,3,,,49,0
47346,note_on,6,0,2,,,,,,,,,1,,,61,0
47400,note_on,54,0,2,,,,,,,,,1,,,61,36
47400,note_on,54,0,4,,,,,,,,,3,,,49,36
47406,note_on,6,0,2,,,,,,,,,1,,,61,0
47406,note_on,6,0,4,,,,,,,,,3,,,49,0
47460,note_on,54,0,4,,,,,,,,,3,,,49,36
47460,note_on,180,0,1,,,,,,,,,0,,,68,0
47460,note_on,0,0,1,,,,,,,,,0,,,58,0
47460,note_on,0,0,1,,,,,,,,,0,,,66,49
47460,note_on,54,0,2,,,,,,,,,1,,,61,36
47466,note_on,6,0,4,,,,,,,,,3,,,49,0
47466,note_on,6,0,2,,,,,,,,,1,,,61,0
47520,note_on,54,0,4,,,,,,,,,3,,,49,36
47520,note_on,54,0,2,,,,,,,,,1,,,61,36
47526,note_on,6,0,4,,,,,,,,,3,,,49,0
47526,note_on,6,0,2,,,,,,,,,1,,,61,0
47580,note_on,0,0,2,,,,,,,,,1,,,61,36
47580,control_change,54,0,2,,,,,,,,,1,64,0,,
47580,control_change,54,0,4,,,,,,,,,3,64,0,,
47580,note_on,0,0,4,,,,,,,,,3,,,49,36
47586,note_on,6,0,2,,,,,,,,,1,,,61,0
47586,note_on,6,0,4,,,,,,,,,3,,,49,0
47640,note_on,0,0,3,,,,,,,,,2,,,54,49
47640,control_change,54,0,2,,,,,,,,,1,64,127,,
47640,note_on,0,0,2,,,,,,,,,1,,,61,36
47640,note_on,0,0,4,,,,,,,,,3,,,49,36
47640,note_on,0,0,1,,,,,,,,,0,,,68,49
47640,note_on,0,0,3,,,,,,,,,2,,,42,0
47640,note_on,360,0,3,,,,,,,,,2,,,54,0
47640,note_on,0,0,1,,,,,,,,,0,,,58,49
47640,note_on,180,0,1,,,,,,,,,0,,,66,0
47640,control_change,54,0,4,,,,,,,,,3,64,127,,
47640,note_on,0,0,3,,,,,,,,,2,,,42,49
47646,note_on,6,0,2,,,,,,,,,1,,,61,0
47646,note_on,6,0,4,,,,,,,,,3,,,49,0
47700,note_on,54,0,4,,,,,,,,,3,,,49,36
47700,note_on,54,0,2,,,,,,,,,1,,,61,36
47706,note_on,6,0,4,,,,,,,,,3,,,49,0
47706,note_on,6,0,2,,,,,,,,,1,,,61,0
47760,note_on,54,0,4,,,,,,,,,3,,,49,36
47760,note_on,54,0,2,,,,,,,,,1,,,61,36
47766,note_on,6,0,2,,,,,,,,,1,,,61,0
47766,note_on,6,0,4,,,,,,,,,3,,,49,0
47820,note_on,54,0,4,,,,,,,,,3,,,49,36
47820,note_on,0,0,1,,,,,,,,,0,,,66,49
47820,note_on,0,0,1,,,,,,,,,0,,,58,0
47820,note_on,180,0,1,,,,,,,,,0,,,68,0
47820,note_on,54,0,2,,,,,,,,,1,,,61,36
47826,note_on,6,0,2,,,,,,,,,1,,,61,0
47826,note_on,6,0,4,,,,,,,,,3,,,49,0
47880,note_on,54,0,4,,,,,,,,,3,,,49,36
47880,note_on,54,0,2,,,,,,,,,1,,,61,36
47886,note_on,6,0,4,,,,,,,,,3,,,49,0
47886,note_on,6,0,2,,,,,,,,,1,,,61,0
47940,note_on,0,0,4,,,,,,,,,3,,,49,36
47940,note_on,0,0,2,,,,,,,,,1,,,61,36
47940,control_change,54,0,4,,,,,,,,,3,64,0,,
47940,control_change,54,0,2,,,,,,,,,1,64,0,,
47946,note_on,6,0,2,,,,,,,,,1,,,61,0
47946,note_on,6,0,4,,,,,,,,,3,,,49,0
48000,note_on,0,0,4,,,,,,,,,3,,,49,36
48000,control_change,54,0,2,,,,,,,,,1,64,127,,
48000,note_on,0,0,2,,,,,,,,,1,,,61,36
48000,control_change,54,0,4,,,,,,,,,3,64,127,,
48000,note_on,360,0,3,,,,,,,,,2,,,54,0
48000,note_on,0,0,3,,,,,,,,,2,,,42,0
48000,note_on,0,0,3,,,,,,,,,2,,,41,36
48000,note_on,0,0,3,,,,,,,,,2,,,53,36
48000,note_on,0,0,1,,,,,,,,,0,,,70,36
48000,note_on,0,0,1,,,,,,,,,0,,,59,36
48000,note_on,180,0,1,,,,,,,,,0,,,66,0
48006,note_on,6,0,4,,,,,,,,,3,,,49,0
48006,note_on,6,0,2,,,,,,,,,1,,,61,0
48060,note_on,54,0,2,,,,,,,,,1,,,61,36
48060,note_on,54,0,4,,,,,,,,,3,,,49,36
48066,note_on,6,0,2,,,,,,,,,1,,,61,0
48066,note_on,6,0,4,,,,,,,,,3,,,49,0
48120,note_on,54,0,2,,,,,,,,,1,,,61,36
48120,note_on,54,0,4,,,,,,,,,3,,,49,36
48126,note_on,6,0,2,,,,,,,,,1,,,61,0
48126,note_on,6,0,4,,,,,,,,,3,,,49,0
48180,note_on,54,0,4,,,,,,,,,3,,,49,36
48180,note_on,0,0,1,,,,,,,,,0,,,68,36
48180,note_on,0,0,1,,,,,,,,,0,,,59,0
48180,note_on,54,0,2,,,,,,,,,1,,,61,36
48180,note_on,180,0,1,,,,,,,,,0,,,70,0
48186,note_on,6,0,4,,,,,,,,,3,,,49,0
48186,note_on,6,0,2,,,,,,,,,1,,,61,0
48240,note_on,54,0,4,,,,,,,,,3,,,49,36
48240,note_on,54,0,2,,,,,,,,,1,,,61,36
48246,note_on,6,0,4,,,,,,,,,3,,,49,0
48246,note_on,6,0,2,,,,,,,,,1,,,61,0
48300,control_change,54,0,4,,,,,,,,,3,64,0,,
48300,note_on,0,0,4,,,,,,,,,3,,,49,36
48300,note_on,0,0,2,,,,,,,,,1,,,61,36
48300,control_change,54,0,2,,,,,,,,,1,64,0,,
48306,note_on,6,0,4,,,,,,,,,3,,,49,0
48306,note_on,6,0,2,,,,,,,,,1,,,61,0
48360,note_on,0,0,1,,,,,,,,,0,,,70,36
48360,note_on,0,0,3,,,,,,,,,2,,,41,0
48360,note_on,360,0,3,,,,,,,,,2,,,53,0
48360,control_change,54,0,4,,,,,,,,,3,64,127,,
48360,note_on,0,0,4,,,,,,,,,3,,,49,36
48360,note_on,0,0,1,,,,,,,,,0,,,59,36
48360,note_on,0,0,3,,,,,,,,,2,,,53,36
48360,note_on,0,0,2,,,,,,,,,1,,,61,36
48360,note_on,0,0,3,,,,,,,,,2,,,41,36
48360,control_change,54,0,2,,,,,,,,,1,64,127,,
48360,note_on,180,0,1,,,,,,,,,0,,,68,0
48366,note_on,6,0,4,,,,,,,,,3,,,49,0
48366,note_on,6,0,2,,,,,,,,,1,,,61,0
48420,note_on,54,0,2,,,,,,,,,1,,,61,36
48420,note_on,54,0,4,,,,,,,,,3,,,49,36
48426,note_on,6,0,4,,,,,,,,,3,,,49,0
48426,note_on,6,0,2,,,,,,,,,1,,,61,0
48480,note_on,54,0,2,,,,,,,,,1,,,61,36
48480,note_on,54,0,4,,,,,,,,,3,,,49,36
48486,note_on,6,0,4,,,,,,,,,3,,,49,0
48486,note_on,6,0,2,,,,,,,,,1,,,61,0
48540,note_on,54,0,4,,,,,,,,,3,,,49,36
48540,note_on,180,0,1,,,,,,,,,0,,,70,0
48540,note_on,0,0,1,,,,,,,,,0,,,68,36
48540,note_on,0,0,1,,,,,,,,,0,,,59,0
48540,note_on,54,0,2,,,,,,,,,1,,,61,36
48546,note_on,6,0,2,,,,,,,,,1,,,61,0
48546,note_on,6,0,4,,,,,,,,,3,,,49,0
48600,note_on,54,0,2,,,,,,,,,1,,,61,36
48600,note_on,54,0,4,,,,,,,,,3,,,49,36
48606,note_on,6,0,2,,,,,,,,,1,,,61,0
48606,note_on,6,0,4,,,,,,,,,3,,,49,0
48660,control_change,54,0,2,,,,,,,,,1,64,0,,
48660,note_on,0,0,2,,,,,,,,,1,,,61,36
48660,control_change,54,0,4,,,,,,,,,3,64,0,,
48660,note_on,0,0,4,,,,,,,,,3,,,49,36
48666,note_on,6,0,2,,,,,,,,,1,,,61,0
48666,note_on,6,0,4,,,,,,,,,3,,,49,0
48720,note_on,180,0,1,,,,,,,,,0,,,68,0
48720,note_on,0,0,1,,,,,,,,,0,,,58,36
48720,note_on,0,0,1,,,,,,,,,0,,,68,36
48720,note_on,0,0,4,,,,,,,,,3,,,49,36
48720,control_change,54,0,4,,,,,,,,,3,64,127,,
48720,note_on,0,0,2,,,,,,,,,1,,,61,36
48720,note_on,360,0,3,,,,,,,,,2,,,53,0
48720,note_on,0,0,3,,,,,,,,,2,,,41,0
48720,note_on,0,0,3,,,,,,,,,2,,,42,36
48720,note_on,0,0,3,,,,,,,,,2,,,54,36
48720,control_change,54,0,2,,,,,,,,,1,64,127,,
48726,note_on,6,0,2,,,,,,,,,1,,,61,0
48726,note_on,6,0,4,,,,,,,,,3,,,49,0
48780,note_on,54,0,4,,,,,,,,,3,,,49,36
48780,set_tempo,2580,1,0,,,,,,512821,,,,,,,
48780,note_on,54,0,2,,,,,,,,,1,,,61,36
48786,note_on,6,0,2,,,,,,,,,1,,,61,0
48786,note_on,6,0,4,,,,,,,,,3,,,49,0
48840,set_tempo,60,1,0,,,,,,526316,,,,,,,
48840,note_on,54,0,4,,,,,,,,,3,,,49,36
48840,note_on,54,0,2,,,,,,,,,1,,,61,36
48846,note_on,6,0,4,,,,,,,,,3,,,49,0
48846,note_on,6,0,2,,,,,,,,,1,,,61,0
48900,note_on,54,0,4,,,,,,,,,3,,,49,36
48900,note_on,0,0,1,,,,,,,,,0,,,58,0
48900,note_on,54,0,2,,,,,,,,,1,,,61,36
48900,set_tempo,60,1,0,,,,,,540541,,,,,,,
48900,note_on,0,0,1,,,,,,,,,0,,,66,36
48900,note_on,180,0,1,,,,,,,,,0,,,68,0
48906,note_on,6,0,4,,,,,,,,,3,,,49,0
48906,note_on,6,0,2,,,,,,,,,1,,,61,0
48960,note_on,54,0,2,,,,,,,,,1,,,61,36
48960,set_tempo,60,1,0,,,,,,560748,,,,,,,
48960,note_on,54,0,4,,,,,,,,,3,,,49,36
48966,note_on,6,0,4,,,,,,,,,3,,,49,0
48966,note_on,6,0,2,,,,,,,,,1,,,61,0
49020,set_tempo,60,1,0,,,,,,576923,,,,,,,
49020,note_on,0,0,4,,,,,,,,,3,,,49,36
49020,note_on,54,0,2,,,,,,,,,1,,,61,36
49020,control_change,54,0,4,,,,,,,,,3,64,0,,
49026,note_on,6,0,2,,,,,,,,,1,,,61,0
49026,note_on,6,0,4,,,,,,,,,3,,,49,0
49080,control_change,54,0,2,,,,,,,,,1,64,127,,
49080,note_on,0,0,2,,,,,,,,,1,,,61,36
49080,note_on,0,0,3,,,,,,,,,2,,,54,36
49080,note_on,0,0,1,,,,,,,,,0,,,68,36
49080,note_on,0,0,1,,,,,,,,,0,,,58,36
49080,control_change,54,0,4,,,,,,,,,3,64,127,,
49080,set_tempo,60,1,0,,,,,,594059,,,,,,,
49080,note_on,180,0,1,,,,,,,,,0,,,66,0
49080,note_on,0,0,3,,,,,,,,,2,,,42,36
49080,note_on,0,0,4,,,,,,,,,3,,,49,36
49080,note_on,360,0,3,,,,,,,,,2,,,54,0
49080,note_on,0,0,3,,,,,,,,,2,,,42,0
49086,note_on,6,0,4,,,,,,,,,3,,,49,0
49086,note_on,6,0,2,,,,,,,,,1,,,61,0
49140,set_tempo,60,1,0,,,,,,612245,,,,,,,
49140,note_on,54,0,4,,,,,,,,,3,,,49,36
49140,note_on,54,0,2,,,,,,,,,1,,,61,36
49146,note_on,6,0,2,,,,,,,,,1,,,61,0
49146,note_on,6,0,4,,,,,,,,,3,,,49,0
49200,note_on,54,0,2,,,,,,,,,1,,,61,36
49200,note_on,54,0,4,,,,,,,,,3,,,49,36
49200,set_tempo,60,1,0,,,,,,638298,,,,,,,
49206,note_on,6,0,4,,,,,,,,,3,,,49,0
49206,note_on,6,0,2,,,,,,,,,1,,,61,0
49260,note_on,180,0,1,,,,,,,,,0,,,68,0
49260,note_on,54,0,2,,,,,,,,,1,,,61,36
49260,note_on,54,0,4,,,,,,,,,3,,,49,36
49260,note_on,0,0,1,,,,,,,,,0,,,58,0
49260,note_on,0,0,1,,,,,,,,,0,,,66,36
49266,note_on,6,0,4,,,,,,,,,3,,,49,0
49266,note_on,6,0,2,,,,,,,,,1,,,61,0
49320,note_on,54,0,4,,,,,,,,,3,,,49,36
49320,note_on,54,0,2,,,,,,,,,1,,,61,36
49326,note_on,6,0,2,,,,,,,,,1,,,61,0
49326,note_on,6,0,4,,,,,,,,,3,,,49,0
49380,note_on,54,0,2,,,,,,,,,1,,,61,36
49380,control_change,54,0,4,,,,,,,,,3,64,0,,
49380,note_on,0,0,4,,,,,,,,,3,,,49,36
49386,note_on,6,0,2,,,,,,,,,1,,,61,0
49386,note_on,6,0,4,,,,,,,,,3,,,49,0
49440,note_on,0,0,2,,,,,,,,,1,,,56,106
49440,note_on,0,0,2,,,,,,,,,1,,,59,114
49440,note_on,0,0,4,,,,,,,,,3,,,47,114
49440,note_on,360,0,3,,,,,,,,,2,,,54,0
49440,note_on,0,0,3,,,,,,,,,2,,,42,0
49440,note_on,0,0,3,,,,,,,,,2,,,54,114
49440,control_change,54,0,2,,,,,,,,,1,64,0,,
49440,set_tempo,240,1,0,,,,,,500000,,,,,,,
49440,note_on,0,0,1,,,,,,,,,0,,,66,127
49440,note_on,180,0,1,,,,,,,,,0,,,66,0
49440,note_on,54,0,4,,,,,,,,,3,,,44,106
49560,note_on,0,0,1,,,,,,,,,0,,,64,101
49560,note_on,120,0,1,,,,,,,,,0,,,66,0
49560,note_on,0,0,3,,,,,,,,,2,,,52,88
49560,note_on,120,0,3,,,,,,,,,2,,,54,0
49620,note_on,60,0,3,,,,,,,,,2,,,52,0
49620,note_on,0,0,3,,,,,,,,,2,,,54,114
49620,note_on,0,0,2,,,,,,,,,1,,,59,114
49620,note_on,0,0,2,,,,,,,,,1,,,56,106
49620,note_on,0,0,2,,,,,,,,,1,,,56,0
49620,note_on,180,0,2,,,,,,,,,1,,,59,0
49620,note_on,0,0,4,,,,,,,,,3,,,47,114
49620,note_on,0,0,4,,,,,,,,,3,,,44,106
49620,note_on,0,0,4,,,,,,,,,3,,,44,0
49620,note_on,180,0,4,,,,,,,,,3,,,47,0
49620,note_on,0,0,1,,,,,,,,,0,,,66,127
49620,note_on,60,0,1,,,,,,,,,0,,,64,0
49740,note_on,0,0,1,,,,,,,,,0,,,64,101
49740,note_on,120,0,1,,,,,,,,,0,,,66,0
49740,note_on,120,0,3,,,,,,,,,2,,,54,0
49740,note_on,0,0,3,,,,,,,,,2,,,52,88
49800,note_on,180,0,4,,,,,,,,,3,,,47,0
49800,note_on,0,0,4,,,,,,,,,3,,,44,0
49800,note_on,0,0,2,,,,,,,,,1,,,59,114
49800,note_on,0,0,4,,,,,,,,,3,,,44,106
49800,note_on,0,0,1,,,,,,,,,0,,,66,127
49800,note_on,0,0,2,,,,,,,,,1,,,56,106
49800,note_on,0,0,2,,,,,,,,,1,,,56,0
49800,note_on,180,0,2,,,,,,,,,1,,,59,0
49800,note_on,60,0,3,,,,,,,,,2,,,52,0
49800,note_on,0,0,3,,,,,,,,,2,,,54,114
49800,note_on,0,0,4,,,,,,,,,3,,,47,114
49800,note_on,60,0,1,,,,,,,,,0,,,64,0
49920,note_on,120,0,3,,,,,,,,,2,,,54,0
49920,note_on,0,0,3,,,,,,,,,2,,,52,88
49920,note_on,0,0,1,,,,,,,,,0,,,64,101
49920,note_on,120,0,1,,,,,,,,,0,,,66,0
49980,note_on,60,0,3,,,,,,,,,2,,,52,0
49980,note_on,0,0,4,,,,,,,,,3,,,47,114
49980,note_on,0,0,4,,,,,,,,,3,,,44,0
49980,note_on,180,0,4,,,,,,,,,3,,,47,0
49980,note_on,0,0,4,,,,,,,,,3,,,44,106
49980,note_on,0,0,2,,,,,,,,,1,,,56,106
49980,note_on,0,0,3,,,,,,,,,2,,,54,114
49980,note_on,60,0,1,,,,,,,,,0,,,64,0
49980,note_on,0,0,1,,,,,,,,,0,,,66,127
49980,note_on,0,0,2,,,,,,,,,1,,,59,114
49980,note_on,0,0,2,,,,,,,,,1,,,56,0
49980,note_on,180,0,2,,,,,,,,,1,,,59,0
50100,note_on,120,0,3,,,,,,,,,2,,,54,0
50100,note_on,0,0,3,,,,,,,,,2,,,52,88
50100,note_on,120,0,1,,,,,,,,,0,,,66,0
50100,note_on,0,0,1,,,,,,,,,0,,,64,101
50160,note_on,0,0,3,,,,,,,,,2,,,52,114
50160,control_change,0,0,3,,,,,,,,,2,64,127,,
50160,note_on,60,0,3,,,,,,,,,2,,,52,0
50160,control_change,0,0,1,,,,,,,,,0,64,127,,
50160,note_on,180,0,2,,,,,,,,,1,,,59,0
50160,note_on,0,0,2,,,,,,,,,1,,,56,0
50160,note_on,180,0,4,,,,,,,,,3,,,47,0
50160,note_on,0,0,4,,,,,,,,,3,,,44,0
50160,note_on,60,0,1,,,,,,,,,0,,,64,0
50160,note_on,0,0,1,,,,,,,,,0,,,64,127
50250,note_on,90,0,3,,,,,,,,,2,,,52,0
50250,note_on,0,0,1,,,,,,,,,0,,,64,101
50250,note_on,90,0,1,,,,,,,,,0,,,64,0
50250,note_on,0,0,3,,,,,,,,,2,,,52,88
50280,note_on,30,0,3,,,,,,,,,2,,,52,0
50280,note_on,0,0,3,,,,,,,,,2,,,56,88
50280,note_on,30,0,1,,,,,,,,,0,,,64,0
50280,note_on,0,0,1,,,,,,,,,0,,,68,101
50310,note_on,30,0,1,,,,,,,,,0,,,68,0
50310,note_on,0,0,1,,,,,,,,,0,,,71,101
50310,note_on,0,0,3,,,,,,,,,2,,,59,88
50310,note_on,30,0,3,,,,,,,,,2,,,56,0
50340,note_on,30,0,1,,,,,,,,,0,,,71,0
50340,note_on,0,0,3,,,,,,,,,2,,,64,114
50340,note_on,30,0,3,,,,,,,,,2,,,59,0
50340,note_on,0,0,1,,,,,,,,,0,,,76,127
50430,note_on,0,0,3,,,,,,,,,2,,,64,88
50430,note_on,90,0,3,,,,,,,,,2,,,64,0
50430,note_on,0,0,1,,,,,,,,,0,,,76,101
50430,note_on,90,0,1,,,,,,,,,0,,,76,0
50460,note_on,30,0,3,,,,,,,,,2,,,64,0
50460,note_on,0,0,3,,,,,,,,,2,,,68,88
50460,note_on,0,0,1,,,,,,,,,0,,,80,101
50460,note_on,30,0,1,,,,,,,,,0,,,76,0
50490,note_on,30,0,1,,,,,,,,,0,,,80,0
50490,note_on,30,0,3,,,,,,,,,2,,,68,0
50490,note_on,0,0,1,,,,,,,,,0,,,83,101
50490,note_on,0,0,3,,,,,,,,,2,,,71,88
50520,note_on,0,0,1,,,,,,,,,0,,,88,101
50520,note_on,30,0,3,,,,,,,,,2,,,71,0
50520,note_on,30,0,1,,,,,,,,,0,,,83,0
50520,note_on,0,0,3,,,,,,,,,2,,,76,88
50526,note_on,6,0,1,,,,,,,,,0,,,88,0
50526,note_on,6,0,3,,,,,,,,,2,,,76,0
50580,note_on,54,0,3,,,,,,,,,2,,,80,88
50580,note_on,54,0,1,,,,,,,,,0,,,92,101
50586,note_on,6,0,1,,,,,,,,,0,,,92,0
50586,note_on,6,0,3,,,,,,,,,2,,,80,0
50640,note_on,54,0,1,,,,,,,,,0,,,95,101
50640,note_on,54,0,3,,,,,,,,,2,,,83,88
50646,note_on,6,0,1,,,,,,,,,0,,,95,0
50646,note_on,6,0,3,,,,,,,,,2,,,83,0
50700,control_change,54,0,1,,,,,,,,,0,64,0,,
50700,note_on,0,0,3,,,,,,,,,2,,,88,88
50700,control_change,54,0,3,,,,,,,,,2,64,0,,
50700,note_on,0,0,1,,,,,,,,,0,,,100,101
50820,note_on,120,0,1,,,,,,,,,0,,,100,0
50820,note_on,120,0,3,,,,,,,,,2,,,88,0
50880,note_on,60,0,3,,,,,,,,,2,,,52,114
50880,note_on,720,0,4,,,,,,,,,3,,,42,106
50880,note_on,60,0,1,,,,,,,,,0,,,64,127
50880,note_on,0,0,4,,,,,,,,,3,,,45,114
50880,note_on,720,0,2,,,,,,,,,1,,,54,106
50880,note_on,0,0,2,,,,,,,,,1,,,57,114
51000,note_on,120,0,1,,,,,,,,,0,,,64,0
51000,note_on,0,0,1,,,,,,,,,0,,,62,101
51000,note_on,120,0,3,,,,,,,,,2,,,52,0
51000,note_on,0,0,3,,,,,,,,,2,,,50,88
51060,note_on,0,0,2,,,,,,,,,1,,,54,106
51060,note_on,180,0,2,,,,,,,,,1,,,57,0
51060,note_on,60,0,1,,,,,,,,,0,,,62,0
51060,note_on,0,0,1,,,,,,,,,0,,,64,127
51060,note_on,0,0,3,,,,,,,,,2,,,52,114
51060,note_on,0,0,2,,,,,,,,,1,,,54,0
51060,note_on,0,0,4,,,,,,,,,3,,,45,114
51060,note_on,0,0,4,,,,,,,,,3,,,42,106
51060,note_on,0,0,4,,,,,,,,,3,,,42,0
51060,note_on,180,0,4,,,,,,,,,3,,,45,0
51060,note_on,0,0,2,,,,,,,,,1,,,57,114
51060,note_on,60,0,3,,,,,,,,,2,,,50,0
51180,note_on,120,0,1,,,,,,,,,0,,,64,0
51180,note_on,120,0,3,,,,,,,,,2,,,52,0
51180,note_on,0,0,3,,,,,,,,,2,,,50,88
51180,note_on,0,0,1,,,,,,,,,0,,,62,101
51240,note_on,0,0,4,,,,,,,,,3,,,45,114
51240,note_on,0,0,3,,,,,,,,,2,,,52,114
51240,note_on,0,0,4,,,,,,,,,3,,,42,0
51240,note_on,180,0,4,,,,,,,,,3,,,45,0
51240,note_on,60,0,3,,,,,,,,,2,,,50,0
51240,note_on,0,0,4,,,,,,,,,3,,,42,106
51240,note_on,180,0,2,,,,,,,,,1,,,57,0
51240,note_on,0,0,2,,,,,,,,,1,,,54,0
51240,note_on,0,0,2,,,,,,,,,1,,,54,106
51240,note_on,0,0,2,,,,,,,,,1,,,57,114
51240,note_on,0,0,1,,,,,,,,,0,,,64,127
51240,note_on,60,0,1,,,,,,,,,0,,,62,0
51360,note_on,0,0,3,,,,,,,,,2,,,50,88
51360,note_on,0,0,1,,,,,,,,,0,,,62,101
51360,note_on,120,0,1,,,,,,,,,0,,,64,0
51360,note_on,120,0,3,,,,,,,,,2,,,52,0
51420,note_on,60,0,3,,,,,,,,,2,,,50,0
51420,note_on,60,0,1,,,,,,,,,0,,,62,0
51420,note_on,0,0,3,,,,,,,,,2,,,52,114
51420,note_on,0,0,2,,,,,,,,,1,,,57,114
51420,note_on,0,0,4,,,,,,,,,3,,,45,114
51420,note_on,0,0,4,,,,,,,,,3,,,42,0
51420,note_on,180,0,4,,,,,,,,,3,,,45,0
51420,note_on,0,0,2,,,,,,,,,1,,,54,106
51420,note_on,0,0,2,,,,,,,,,1,,,54,0
51420,note_on,180,0,2,,,,,,,,,1,,,57,0
51420,note_on,0,0,1,,,,,,,,,0,,,64,127
51420,note_on,0,0,4,,,,,,,,,3,,,42,106
51540,note_on,120,0,3,,,,,,,,,2,,,52,0
51540,note_on,0,0,3,,,,,,,,,2,,,50,88
51540,note_on,120,0,1,,,,,,,,,0,,,64,0
51540,note_on,0,0,1,,,,,,,,,0,,,62,101
51600,note_on,180,0,2,,,,,,,,,1,,,57,0
51600,control_change,0,0,3,,,,,,,,,2,64,127,,
51600,note_on,0,0,4,,,,,,,,,3,,,42,0
51600,note_on,180,0,4,,,,,,,,,3,,,45,0
51600,note_on,0,0,2,,,,,,,,,1,,,54,0
51600,note_on,0,0,3,,,,,,,,,2,,,50,114
51600,note_on,60,0,3,,,,,,,,,2,,,50,0
51600,note_on,0,0,1,,,,,,,,,0,,,62,127
51600,control_change,0,0,1,,,,,,,,,0,64,127,,
51600,note_on,60,0,1,,,,,,,,,0,,,62,0
51690,note_on,0,0,3,,,,,,,,,2,,,50,88
51690,note_on,90,0,3,,,,,,,,,2,,,50,0
51690,note_on,0,0,1,,,,,,,,,0,,,62,101
51690,note_on,90,0,1,,,,,,,,,0,,,62,0
51720,note_on,0,0,1,,,,,,,,,0,,,66,101
51720,note_on,30,0,1,,,,,,,,,0,,,62,0
51720,note_on,0,0,3,,,,,,,,,2,,,54,88
51720,note_on,30,0,3,,,,,,,,,2,,,50,0
51750,note_on,0,0,3,,,,,,,,,2,,,57,88
51750,note_on,30,0,1,,,,,,,,,0,,,66,0
51750,note_on,0,0,1,,,,,,,,,0,,,69,101
51750,note_on,30,0,3,,,,,,,,,2,,,54,0
51780,note_on,0,0,3,,,,,,,,,2,,,62,88
51780,note_on,30,0,3,,,,,,,,,2,,,57,0
51780,note_on,30,0,1,,,,,,,,,0,,,69,0
51780,note_on,0,0,1,,,,,,,,,0,,,74,101
51870,note_on,90,0,3,,,,,,,,,2,,,62,0
51870,note_on,0,0,1,,,,,,,,,0,,,74,101
51870,note_on,90,0,1,,,,,,,,,0,,,74,0
51870,note_on,0,0,3,,,,,,,,,2,,,62,88
51900,note_on,0,0,3,,,,,,,,,2,,,66,88
51900,note_on,30,0,3,,,,,,,,,2,,,62,0
51900,note_on,0,0,1,,,,,,,,,0,,,78,101
51900,note_on,30,0,1,,,,,,,,,0,,,74,0
51930,note_on,30,0,1,,,,,,,,,0,,,78,0
51930,note_on,30,0,3,,,,,,,,,2,,,66,0
51930,note_on,0,0,3,,,,,,,,,2,,,69,88
51930,note_on,0,0,1,,,,,,,,,0,,,81,101
51960,note_on,30,0,3,,,,,,,,,2,,,69,0
51960,note_on,0,0,3,,,,,,,,,2,,,74,88
51960,note_on,30,0,1,,,,,,,,,0,,,81,0
51960,note_on,0,0,1,,,,,,,,,0,,,86,101
51966,note_on,6,0,3,,,,,,,,,2,,,74,0
51966,note_on,6,0,1,,,,,,,,,0,,,86,0
52020,note_on,54,0,3,,,,,,,,,2,,,78,88
52020,note_on,54,0,1,,,,,,,,,0,,,90,101
52026,note_on,6,0,3,,,,,,,,,2,,,78,0
52026,note_on,6,0,1,,,,,,,,,0,,,90,0
52080,note_on,54,0,1,,,,,,,,,0,,,93,101
52080,note_on,54,0,3,,,,,,,,,2,,,81,88
52086,note_on,6,0,1,,,,,,,,,0,,,93,0
52086,note_on,6,0,3,,,,,,,,,2,,,81,0
52140,control_change,54,0,3,,,,,,,,,2,64,0,,
52140,note_on,0,0,3,,,,,,,,,2,,,86,88
52140,note_on,0,0,1,,,,,,,,,0,,,98,101
52140,control_change,54,0,1,,,,,,,,,0,64,0,,
52260,note_on,120,0,3,,,,,,,,,2,,,86,0
52260,note_on,120,0,1,,,,,,,,,0,,,98,0
52320,note_on,0,0,4,,,,,,,,,3,,,43,114
52320,note_on,0,0,2,,,,,,,,,1,,,55,114
52320,note_on,60,0,1,,,,,,,,,0,,,62,127
52320,note_on,720,0,4,,,,,,,,,3,,,40,106
52320,note_on,720,0,2,,,,,,,,,1,,,52,106
52320,note_on,60,0,3,,,,,,,,,2,,,50,114
52440,note_on,0,0,1,,,,,,,,,0,,,60,101
52440,note_on,120,0,3,,,,,,,,,2,,,50,0
52440,note_on,0,0,3,,,,,,,,,2,,,48,88
52440,note_on,120,0,1,,,,,,,,,0,,,62,0
52500,note_on,0,0,2,,,,,,,,,1,,,55,114
52500,note_on,0,0,2,,,,,,,,,1,,,52,106
52500,note_on,0,0,2,,,,,,,,,1,,,52,0
52500,note_on,60,0,3,,,,,,,,,2,,,48,0
52500,note_on,0,0,3,,,,,,,,,2,,,50,114
52500,note_on,60,0,1,,,,,,,,,0,,,60,0
52500,note_on,180,0,2,,,,,,,,,1,,,55,0
52500,note_on,0,0,4,,,,,,,,,3,,,40,0
52500,note_on,180,0,4,,,,,,,,,3,,,43,0
52500,note_on,0,0,1,,,,,,,,,0,,,62,127
52500,note_on,0,0,4,,,,,,,,,3,,,40,106
52500,note_on,0,0,4,,,,,,,,,3,,,43,114
52620,note_on,0,0,3,,,,,,,,,2,,,48,88
52620,note_on,120,0,3,,,,,,,,,2,,,50,0
52620,note_on,0,0,1,,,,,,,,,0,,,60,101
52620,note_on,120,0,1,,,,,,,,,0,,,62,0
52680,note_on,0,0,4,,,,,,,,,3,,,40,106
52680,note_on,0,0,4,,,,,,,,,3,,,43,114
52680,note_on,0,0,3,,,,,,,,,2,,,50,114
52680,note_on,0,0,2,,,,,,,,,1,,,55,114
52680,note_on,0,0,1,,,,,,,,,0,,,62,127
52680,note_on,60,0,1,,,,,,,,,0,,,60,0
52680,note_on,0,0,2,,,,,,,,,1,,,52,106
52680,note_on,0,0,2,,,,,,,,,1,,,52,0
52680,note_on,180,0,2,,,,,,,,,1,,,55,0
52680,note_on,60,0,3,,,,,,,,,2,,,48,0
52680,note_on,0,0,4,,,,,,,,,3,,,40,0
52680,note_on,180,0,4,,,,,,,,,3,,,43,0
52800,note_on,120,0,1,,,,,,,,,0,,,62,0
52800,note_on,0,0,1,,,,,,,,,0,,,60,101
52800,note_on,0,0,3,,,,,,,,,2,,,48,88
52800,note_on,120,0,3,,,,,,,,,2,,,50,0
52860,note_on,180,0,4,,,,,,,,,3,,,43,0
52860,note_on,0,0,4,,,,,,,,,3,,,40,106
52860,note_on,0,0,4,,,,,,,,,3,,,43,114
52860,note_on,180,0,2,,,,,,,,,1,,,55,0
52860,note_on,0,0,2,,,,,,,,,1,,,52,0
52860,note_on,0,0,2,,,,,,,,,1,,,52,106
52860,note_on,0,0,2,,,,,,,,,1,,,55,114
52860,note_on,0,0,3,,,,,,,,,2,,,50,114
52860,note_on,60,0,3,,,,,,,,,2,,,48,0
52860,note_on,0,0,4,,,,,,,,,3,,,40,0
52860,note_on,0,0,1,,,,,,,,,0,,,62,127
52860,note_on,60,0,1,,,,,,,,,0,,,60,0
52980,note_on,0,0,1,,,,,,,,,0,,,60,101
52980,note_on,120,0,1,,,,,,,,,0,,,62,0
52980,note_on,120,0,3,,,,,,,,,2,,,50,0
52980,note_on,0,0,3,,,,,,,,,2,,,48,88
53040,note_on,0,0,2,,,,,,,,,1,,,52,0
53040,note_on,60,0,3,,,,,,,,,2,,,48,0
53040,note_on,180,0,4,,,,,,,,,3,,,43,0
53040,note_on,0,0,4,,,,,,,,,3,,,40,0
53040,control_change,0,0,3,,,,,,,,,2,64,127,,
53040,note_on,0,0,3,,,,,,,,,2,,,48,114
53040,note_on,0,0,1,,,,,,,,,0,,,60,127
53040,control_change,0,0,1,,,,,,,,,0,64,127,,
53040,note_on,180,0,2,,,,,,,,,1,,,55,0
53040,note_on,60,0,1,,,,,,,,,0,,,60,0
53130,note_on,0,0,1,,,,,,,,,0,,,60,101
53130,note_on,90,0,1,,,,,,,,,0,,,60,0
53130,note_on,0,0,3,,,,,,,,,2,,,48,88
53130,note_on,90,0,3,,,,,,,,,2,,,48,0
53160,note_on,30,0,3,,,,,,,,,2,,,48,0
53160,note_on,30,0,1,,,,,,,,,0,,,60,0
53160,note_on,0,0,1,,,,,,,,,0,,,64,101
53160,note_on,0,0,3,,,,,,,,,2,,,52,88
53190,note_on,0,0,3,,,,,,,,,2,,,55,88
53190,note_on,0,0,1,,,,,,,,,0,,,67,101
53190,note_on,30,0,1,,,,,,,,,0,,,64,0
53190,note_on,30,0,3,,,,,,,,,2,,,52,0
53220,note_on,0,0,1,,,,,,,,,0,,,72,127
53220,note_on,30,0,3,,,,,,,,,2,,,55,0
53220,note_on,0,0,3,,,,,,,,,2,,,60,114
53220,note_on,30,0,1,,,,,,,,,0,,,67,0
53310,note_on,0,0,3,,,,,,,,,2,,,60,88
53310,note_on,0,0,1,,,,,,,,,0,,,72,101
53310,note_on,90,0,3,,,,,,,,,2,,,60,0
53310,note_on,90,0,1,,,,,,,,,0,,,72,0
53340,note_on,0,0,1,,,,,,,,,0,,,76,101
53340,note_on,30,0,3,,,,,,,,,2,,,60,0
53340,note_on,30,0,1,,,,,,,,,0,,,72,0
53340,note_on,0,0,3,,,,,,,,,2,,,64,88
53370,note_on,30,0,1,,,,,,,,,0,,,76,0
53370,note_on,0,0,3,,,,,,,,,2,,,67,88
53370,note_on,0,0,1,,,,,,,,,0,,,79,101
53370,note_on,30,0,3,,,,,,,,,2,,,64,0
53400,note_on,30,0,3,,,,,,,,,2,,,67,0
53400,note_on,0,0,3,,,,,,,,,2,,,72,88
53400,note_on,30,0,1,,,,,,,,,0,,,79,0
53400,note_on,0,0,1,,,,,,,,,0,,,84,101
53406,note_on,6,0,3,,,,,,,,,2,,,72,0
53406,note_on,6,0,1,,,,,,,,,0,,,84,0
53460,note_on,54,0,3,,,,,,,,,2,,,76,88
53460,note_on,54,0,1,,,,,,,,,0,,,88,101
53466,note_on,6,0,3,,,,,,,,,2,,,76,0
53466,note_on,6,0,1,,,,,,,,,0,,,88,0
53520,note_on,54,0,3,,,,,,,,,2,,,79,88
53520,note_on,54,0,1,,,,,,,,,0,,,91,101
53526,note_on,6,0,3,,,,,,,,,2,,,79,0
53526,note_on,6,0,1,,,,,,,,,0,,,91,0
53580,note_on,0,0,3,,,,,,,,,2,,,84,88
53580,control_change,54,0,1,,,,,,,,,0,64,0,,
53580,control_change,54,0,3,,,,,,,,,2,64,0,,
53580,note_on,0,0,1,,,,,,,,,0,,,96,101
53700,note_on,120,0,1,,,,,,,,,0,,,96,0
53700,note_on,120,0,3,,,,,,,,,2,,,84,0
53760,note_on,0,0,1,,,,,,,,,0,,,78,75
53760,note_on,0,0,1,,,,,,,,,0,,,72,75
53760,control_change,60,0,1,,,,,,,,,0,64,127,,
53760,control_change,60,0,3,,,,,,,,,2,64,127,,
53760,note_on,0,0,3,,,,,,,,,2,,,38,88
53760,note_on,0,0,1,,,,,,,,,0,,,81,75
53760,note_on,0,0,1,,,,,,,,,0,,,84,75
53850,note_on,0,0,3,,,,,,,,,2,,,38,88
53850,note_on,90,0,3,,,,,,,,,2,,,38,0
53880,note_on,30,0,3,,,,,,,,,2,,,38,0
53880,note_on,0,0,3,,,,,,,,,2,,,42,88
53910,note_on,30,0,3,,,,,,,,,2,,,42,0
53910,note_on,0,0,3,,,,,,,,,2,,,45,88
53940,note_on,30,0,3,,,,,,,,,2,,,45,0
53940,note_on,0,0,3,,,,,,,,,2,,,50,88
53940,note_on,0,0,1,,,,,,,,,0,,,69,75
53940,note_on,0,0,1,,,,,,,,,0,,,72,0
53940,note_on,0,0,1,,,,,,,,,0,,,78,0
53940,note_on,0,0,1,,,,,,,,,0,,,81,0
53940,note_on,0,0,1,,,,,,,,,0,,,72,75
53940,note_on,0,0,1,,,,,,,,,0,,,78,75
53940,note_on,0,0,1,,,,,,,,,0,,,81,75
53940,note_on,180,0,1,,,,,,,,,0,,,84,0
54030,note_on,0,0,3,,,,,,,,,2,,,50,88
54030,note_on,90,0,3,,,,,,,,,2,,,50,0
54060,note_on,0,0,3,,,,,,,,,2,,,54,88
54060,note_on,30,0,3,,,,,,,,,2,,,50,0
54090,note_on,0,0,3,,,,,,,,,2,,,57,88
54090,note_on,30,0,3,,,,,,,,,2,,,54,0
54120,note_on,30,0,3,,,,,,,,,2,,,57,0
54120,note_on,0,0,1,,,,,,,,,0,,,78,0
54120,note_on,0,0,1,,,,,,,,,0,,,72,75
54120,note_on,0,0,1,,,,,,,,,0,,,69,75
54120,note_on,0,0,1,,,,,,,,,0,,,78,75
54120,note_on,0,0,1,,,,,,,,,0,,,72,0
54120,note_on,0,0,1,,,,,,,,,0,,,69,0
54120,note_on,180,0,1,,,,,,,,,0,,,81,0
54120,note_on,0,0,3,,,,,,,,,2,,,62,88
54120,note_on,0,0,1,,,,,,,,,0,,,66,75
54126,note_on,6,0,3,,,,,,,,,2,,,62,0
54180,note_on,54,0,3,,,,,,,,,2,,,66,88
54186,note_on,6,0,3,,,,,,,,,2,,,66,0
54240,note_on,54,0,3,,,,,,,,,2,,,69,88
54246,note_on,6,0,3,,,,,,,,,2,,,69,0
54300,note_on,0,0,1,,,,,,,,,0,,,69,75
54300,control_change,0,0,1,,,,,,,,,0,64,0,,
54300,note_on,0,0,1,,,,,,,,,0,,,72,75
54300,note_on,0,0,1,,,,,,,,,0,,,66,75
54300,note_on,0,0,1,,,,,,,,,0,,,69,0
54300,note_on,0,0,1,,,,,,,,,0,,,66,0
54300,note_on,180,0,1,,,,,,,,,0,,,78,0
54300,note_on,0,0,1,,,,,,,,,0,,,72,0
54300,note_on,54,0,3,,,,,,,,,2,,,75,114
54420,note_on,0,0,3,,,,,,,,,2,,,74,88
54420,control_change,0,0,3,,,,,,,,,2,64,0,,
54420,note_on,120,0,3,,,,,,,,,2,,,75,0
54480,note_on,0,0,1,,,,,,,,,0,,,89,75
54480,control_change,0,0,3,,,,,,,,,2,64,127,,
54480,note_on,60,0,3,,,,,,,,,2,,,74,0
54480,control_change,0,0,1,,,,,,,,,0,64,127,,
54480,note_on,0,0,3,,,,,,,,,2,,,31,88
54480,note_on,0,0,1,,,,,,,,,0,,,86,75
54480,note_on,180,0,1,,,,,,,,,0,,,72,0
54480,note_on,0,0,1,,,,,,,,,0,,,69,0
54480,note_on,0,0,1,,,,,,,,,0,,,66,0
54480,note_on,0,0,1,,,,,,,,,0,,,77,75
54480,note_on,0,0,1,,,,,,,,,0,,,83,75
54570,note_on,90,0,3,,,,,,,,,2,,,31,0
54570,note_on,0,0,3,,,,,,,,,2,,,31,88
54600,note_on,0,0,3,,,,,,,,,2,,,35,88
54600,note_on,30,0,3,,,,,,,,,2,,,31,0
54630,note_on,30,0,3,,,,,,,,,2,,,35,0
54630,note_on,0,0,3,,,,,,,,,2,,,38,88
54660,note_on,0,0,3,,,,,,,,,2,,,43,88
54660,note_on,30,0,3,,,,,,,,,2,,,38,0
54660,note_on,0,0,1,,,,,,,,,0,,,86,75
54660,note_on,0,0,1,,,,,,,,,0,,,77,75
54660,note_on,0,0,1,,,,,,,,,0,,,74,75
54660,note_on,0,0,1,,,,,,,,,0,,,83,75
54660,note_on,0,0,1,,,,,,,,,0,,,86,0
54660,note_on,0,0,1,,,,,,,,,0,,,83,0
54660,note_on,0,0,1,,,,,,,,,0,,,77,0
54660,note_on,180,0,1,,,,,,,,,0,,,89,0
54750,note_on,90,0,3,,,,,,,,,2,,,43,0
54750,note_on,0,0,3,,,,,,,,,2,,,43,88
54780,note_on,30,0,3,,,,,,,,,2,,,43,0
54780,note_on,0,0,3,,,,,,,,,2,,,47,88
54810,note_on,0,0,3,,,,,,,,,2,,,50,88
54810,note_on,30,0,3,,,,,,,,,2,,,47,0
54840,note_on,0,0,3,,,,,,,,,2,,,55,88
54840,note_on,0,0,1,,,,,,,,,0,,,74,0
54840,note_on,0,0,1,,,,,,,,,0,,,77,0
54840,note_on,180,0,1,,,,,,,,,0,,,86,0
54840,note_on,0,0,1,,,,,,,,,0,,,83,0
54840,note_on,0,0,1,,,,,,,,,0,,,74,75
54840,note_on,0,0,1,,,,,,,,,0,,,77,75
54840,note_on,0,0,1,,,,,,,,,0,,,83,75
54840,note_on,0,0,1,,,,,,,,,0,,,71,75
54840,note_on,30,0,3,,,,,,,,,2,,,50,0
54846,note_on,6,0,3,,,,,,,,,2,,,55,0
54900,note_on,54,0,3,,,,,,,,,2,,,59,88
54906,note_on,6,0,3,,,,,,,,,2,,,59,0
54960,note_on,54,0,3,,,,,,,,,2,,,62,88
54966,note_on,6,0,3,,,,,,,,,2,,,62,0
55020,note_on,0,0,1,,,,,,,,,0,,,71,75
55020,note_on,0,0,1,,,,,,,,,0,,,65,75
55020,note_on,0,0,1,,,,,,,,,0,,,77,0
55020,note_on,180,0,1,,,,,,,,,0,,,83,0
55020,note_on,0,0,1,,,,,,,,,0,,,74,0
55020,note_on,54,0,3,,,,,,,,,2,,,68,114
55020,note_on,0,0,1,,,,,,,,,0,,,74,75
55020,note_on,0,0,1,,,,,,,,,0,,,77,75
55020,control_change,0,0,1,,,,,,,,,0,64,0,,
55020,note_on,0,0,1,,,,,,,,,0,,,71,0
55140,control_change,0,0,3,,,,,,,,,2,64,0,,
55140,note_on,0,0,3,,,,,,,,,2,,,67,88
55140,note_on,120,0,3,,,,,,,,,2,,,68,0
55200,control_change,0,0,1,,,,,,,,,0,64,127,,
55200,note_on,0,0,1,,,,,,,,,0,,,88,75
55200,note_on,0,0,1,,,,,,,,,0,,,82,75
55200,note_on,60,0,3,,,,,,,,,2,,,67,0
55200,note_on,0,0,1,,,,,,,,,0,,,79,75
55200,note_on,0,0,1,,,,,,,,,0,,,76,75
55200,control_change,0,0,3,,,,,,,,,2,64,127,,
55200,note_on,0,0,3,,,,,,,,,2,,,36,88
55200,note_on,0,0,1,,,,,,,,,0,,,74,0
55200,note_on,0,0,1,,,,,,,,,0,,,71,0
55200,note_on,0,0,1,,,,,,,,,0,,,65,0
55200,note_on,180,0,1,,,,,,,,,0,,,77,0
55290,note_on,0,0,3,,,,,,,,,2,,,36,88
55290,note_on,90,0,3,,,,,,,,,2,,,36,0
55320,note_on,30,0,3,,,,,,,,,2,,,36,0
55320,note_on,0,0,3,,,,,,,,,2,,,40,88
55350,note_on,30,0,3,,,,,,,,,2,,,40,0
55350,note_on,0,0,3,,,,,,,,,2,,,43,88
55380,note_on,180,0,1,,,,,,,,,0,,,88,0
55380,note_on,0,0,1,,,,,,,,,0,,,76,0
55380,note_on,0,0,1,,,,,,,,,0,,,79,0
55380,note_on,0,0,1,,,,,,,,,0,,,82,0
55380,note_on,0,0,1,,,,,,,,,0,,,70,75
55380,note_on,0,0,1,,,,,,,,,0,,,82,75
55380,note_on,0,0,1,,,,,,,,,0,,,76,75
55380,note_on,0,0,3,,,,,,,,,2,,,48,88
55380,note_on,0,0,1,,,,,,,,,0,,,79,75
55380,note_on,30,0,3,,,,,,,,,2,,,43,0
55470,note_on,90,0,3,,,,,,,,,2,,,48,0
55470,note_on,0,0,3,,,,,,,,,2,,,48,88
55500,note_on,0,0,3,,,,,,,,,2,,,52,88
55500,note_on,30,0,3,,,,,,,,,2,,,48,0
55530,note_on,30,0,3,,,,,,,,,2,,,52,0
55530,note_on,0,0,3,,,,,,,,,2,,,55,88
55560,note_on,0,0,1,,,,,,,,,0,,,76,75
55560,note_on,0,0,1,,,,,,,,,0,,,70,75
55560,note_on,0,0,1,,,,,,,,,0,,,67,75
55560,note_on,0,0,1,,,,,,,,,0,,,79,0
55560,note_on,0,0,1,,,,,,,,,0,,,76,0
55560,note_on,0,0,1,,,,,,,,,0,,,70,0
55560,note_on,30,0,3,,,,,,,,,2,,,55,0
55560,note_on,180,0,1,,,,,,,,,0,,,82,0
55560,note_on,0,0,3,,,,,,,,,2,,,60,88
55560,note_on,0,0,1,,,,,,,,,0,,,79,75
55566,note_on,6,0,3,,,,,,,,,2,,,60,0
55620,note_on,54,0,3,,,,,,,,,2,,,64,88
55626,note_on,6,0,3,,,,,,,,,2,,,64,0
55680,note_on,54,0,3,,,,,,,,,2,,,67,88
55686,note_on,6,0,3,,,,,,,,,2,,,67,0
55740,note_on,180,0,1,,,,,,,,,0,,,79,0
55740,note_on,0,0,1,,,,,,,,,0,,,67,0
55740,note_on,0,0,1,,,,,,,,,0,,,70,0
55740,note_on,0,0,1,,,,,,,,,0,,,76,0
55740,note_on,0,0,1,,,,,,,,,0,,,67,75
55740,control_change,0,0,1,,,,,,,,,0,64,0,,
55740,note_on,0,0,1,,,,,,,,,0,,,76,75
55740,note_on,0,0,1,,,,,,,,,0,,,70,75
55740,note_on,54,0,3,,,,,,,,,2,,,73,114
55860,note_on,0,0,3,,,,,,,,,2,,,72,88
55860,note_on,120,0,3,,,,,,,,,2,,,73,0
55860,control_change,0,0,3,,,,,,,,,2,64,0,,
55920,note_on,0,0,1,,,,,,,,,0,,,67,0
55920,note_on,0,0,1,,,,,,,,,0,,,70,0
55920,note_on,60,0,3,,,,,,,,,2,,,72,0
55920,note_on,180,0,1,,,,,,,,,0,,,76,0
56280,note_on,0,0,3,,,,,,,,,2,,,48,49
56280,control_change,360,0,3,,,,,,,,,2,64,127,,
56286,note_on,6,0,3,,,,,,,,,2,,,48,0
56340,note_on,54,0,3,,,,,,,,,2,,,52,49
56346,note_on,6,0,3,,,,,,,,,2,,,52,0
56400,note_on,54,0,3,,,,,,,,,2,,,55,49
56406,note_on,6,0,3,,,,,,,,,2,,,55,0
56460,note_on,0,0,1,,,,,,,,,0,,,58,36
56460,note_on,0,0,1,,,,,,,,,0,,,64,36
56460,note_on,540,0,1,,,,,,,,,0,,,55,36
56460,note_on,54,0,3,,,,,,,,,2,,,61,75
56580,control_change,0,0,3,,,,,,,,,2,64,0,,
56580,note_on,120,0,3,,,,,,,,,2,,,61,0
56580,note_on,0,0,3,,,,,,,,,2,,,60,49
56640,note_on,180,0,1,,,,,,,,,0,,,64,0
56640,note_on,0,0,1,,,,,,,,,0,,,55,0
56640,note_on,0,0,1,,,,,,,,,0,,,58,0
56640,note_on,60,0,3,,,,,,,,,2,,,60,0
57000,note_on,360,0,3,,,,,,,,,2,,,36,36
57006,note_on,6,0,3,,,,,,,,,2,,,36,0
57060,note_on,54,0,3,,,,,,,,,2,,,40,36
57066,note_on,6,0,3,,,,,,,,,2,,,40,0
57120,note_on,54,0,3,,,,,,,,,2,,,43,36
57126,note_on,6,0,3,,,,,,,,,2,,,43,0
57180,note_on,54,0,3,,,,,,,,,2,,,49,62
57180,note_on,0,0,1,,,,,,,,,0,,,46,36
57180,note_on,0,0,1,,,,,,,,,0,,,52,36
57180,note_on,540,0,1,,,,,,,,,0,,,43,36
57300,note_on,120,0,3,,,,,,,,,2,,,49,0
57300,note_on,0,0,3,,,,,,,,,2,,,48,36
57360,note_on,180,0,1,,,,,,,,,0,,,52,0
57360,note_on,60,0,3,,,,,,,,,2,,,48,0
57360,note_on,0,0,1,,,,,,,,,0,,,43,0
57360,note_on,0,0,1,,,,,,,,,0,,,46,0
57360,time_signature,7920,1,0,4,4,24,8,,,,,,,,,
57840,note_on,0,0,3,,,,,,,,,2,,,51,36
57840,control_change,480,0,3,,,,,,,,,2,64,127,,
57840,time_signature,480,1,0,6,8,12,8,,,,,,,,,
57840,control_change,480,0,1,,,,,,,,,0,64,127,,
57840,note_on,0,0,1,,,,,,,,,0,,,63,49
57846,note_on,6,0,1,,,,,,,,,0,,,63,0
57846,note_on,6,0,3,,,,,,,,,2,,,51,0
57900,note_on,54,0,1,,,,,,,,,0,,,63,49
57900,note_on,54,0,3,,,,,,,,,2,,,51,36
57906,note_on,6,0,3,,,,,,,,,2,,,51,0
57906,note_on,6,0,1,,,,,,,,,0,,,63,0
57960,note_on,54,0,3,,,,,,,,,2,,,51,36
57960,note_on,54,0,1,,,,,,,,,0,,,63,49
57966,note_on,6,0,3,,,,,,,,,2,,,51,0
57966,note_on,6,0,1,,,,,,,,,0,,,63,0
58020,note_on,54,0,3,,,,,,,,,2,,,51,49
58020,note_on,54,0,1,,,,,,,,,0,,,63,62
58026,note_on,6,0,3,,,,,,,,,2,,,51,0
58026,note_on,6,0,1,,,,,,,,,0,,,63,0
58080,note_on,54,0,3,,,,,,,,,2,,,51,49
58080,note_on,54,0,1,,,,,,,,,0,,,63,62
58086,note_on,6,0,3,,,,,,,,,2,,,51,0
58086,note_on,6,0,1,,,,,,,,,0,,,63,0
58140,control_change,54,0,1,,,,,,,,,0,64,0,,
58140,note_on,0,0,3,,,,,,,,,2,,,51,49
58140,control_change,54,0,3,,,,,,,,,2,64,0,,
58140,note_on,0,0,1,,,,,,,,,0,,,63,62
58146,note_on,6,0,3,,,,,,,,,2,,,51,0
58146,note_on,6,0,1,,,,,,,,,0,,,63,0
58200,note_on,0,0,1,,,,,,,,,0,,,73,88
58200,control_change,54,0,1,,,,,,,,,0,64,127,,
58200,note_on,0,0,3,,,,,,,,,2,,,44,49
58200,note_on,5160,0,2,,,,,,,,,1,,,61,49
58200,note_on,0,0,2,,,,,,,,,1,,,63,49
58200,control_change,54,0,3,,,,,,,,,2,64,127,,
58200,note_on,5160,0,4,,,,,,,,,3,,,44,49
58260,note_on,60,0,3,,,,,,,,,2,,,44,0
58260,note_on,0,0,3,,,,,,,,,2,,,51,49
58320,note_on,0,0,2,,,,,,,,,1,,,60,49
58320,note_on,0,0,3,,,,,,,,,2,,,56,49
58320,note_on,60,0,3,,,,,,,,,2,,,51,0
58320,note_on,0,0,2,,,,,,,,,1,,,61,0
58320,note_on,120,0,2,,,,,,,,,1,,,63,0
58320,note_on,0,0,1,,,,,,,,,0,,,72,62
58320,note_on,120,0,1,,,,,,,,,0,,,73,0
58380,note_on,180,0,4,,,,,,,,,3,,,44,0
58380,note_on,0,0,4,,,,,,,,,3,,,44,49
58380,note_on,60,0,3,,,,,,,,,2,,,56,0
58380,note_on,0,0,3,,,,,,,,,2,,,44,49
58440,note_on,60,0,3,,,,,,,,,2,,,44,0
58440,note_on,120,0,1,,,,,,,,,0,,,72,0
58440,note_on,0,0,1,,,,,,,,,0,,,70,62
58440,note_on,0,0,3,,,,,,,,,2,,,51,49
58500,control_change,0,0,3,,,,,,,,,2,64,0,,
58500,note_on,60,0,1,,,,,,,,,0,,,70,0
58500,note_on,60,0,3,,,,,,,,,2,,,51,0
58500,note_on,0,0,1,,,,,,,,,0,,,68,62
58500,note_on,0,0,3,,,,,,,,,2,,,56,49
58500,control_change,0,0,1,,,,,,,,,0,64,0,,
58560,note_on,60,0,3,,,,,,,,,2,,,56,0
58560,control_change,0,0,3,,,,,,,,,2,64,127,,
58560,note_on,0,0,3,,,,,,,,,2,,,46,49
58560,note_on,0,0,2,,,,,,,,,1,,,67,49
58560,note_on,0,0,2,,,,,,,,,1,,,63,49
58560,note_on,240,0,2,,,,,,,,,1,,,60,0
58560,note_on,0,0,4,,,,,,,,,3,,,46,49
58560,note_on,0,0,1,,,,,,,,,0,,,75,88
58560,control_change,0,0,1,,,,,,,,,0,64,127,,
58560,note_on,180,0,4,,,,,,,,,3,,,44,0
58560,note_on,60,0,1,,,,,,,,,0,,,68,0
58620,note_on,0,0,3,,,,,,,,,2,,,51,49
58620,note_on,60,0,3,,,,,,,,,2,,,46,0
58680,note_on,0,0,3,,,,,,,,,2,,,58,49
58680,note_on,60,0,3,,,,,,,,,2,,,51,0
58680,note_on,0,0,1,,,,,,,,,0,,,73,62
58680,note_on,120,0,1,,,,,,,,,0,,,75,0
58680,note_on,0,0,2,,,,,,,,,1,,,61,49
58680,note_on,0,0,2,,,,,,,,,1,,,63,0
58680,note_on,120,0,2,,,,,,,,,1,,,67,0
58740,note_on,0,0,4,,,,,,,,,3,,,46,49
58740,note_on,60,0,3,,,,,,,,,2,,,58,0
58740,note_on,0,0,3,,,,,,,,,2,,,46,49
58740,note_on,180,0,4,,,,,,,,,3,,,46,0
58800,note_on,60,0,3,,,,,,,,,2,,,46,0
58800,note_on,0,0,3,,,,,,,,,2,,,51,49
58800,note_on,0,0,1,,,,,,,,,0,,,72,62
58800,note_on,120,0,1,,,,,,,,,0,,,73,0
58860,control_change,0,0,3,,,,,,,,,2,64,0,,
58860,note_on,0,0,3,,,,,,,,,2,,,58,49
58860,note_on,60,0,1,,,,,,,,,0,,,72,0
58860,note_on,0,0,1,,,,,,,,,0,,,70,62
58860,control_change,0,0,1,,,,,,,,,0,64,0,,
58860,note_on,60,0,3,,,,,,,,,2,,,51,0
58920,note_on,180,0,4,,,,,,,,,3,,,46,0
58920,note_on,0,0,4,,,,,,,,,3,,,44,49
58920,note_on,240,0,2,,,,,,,,,1,,,61,0
58920,control_change,0,0,1,,,,,,,,,0,64,127,,
58920,note_on,0,0,1,,,,,,,,,0,,,73,88
58920,note_on,60,0,1,,,,,,,,,0,,,70,0
58920,note_on,0,0,3,,,,,,,,,2,,,44,49
58920,control_change,0,0,3,,,,,,,,,2,64,127,,
58920,note_on,60,0,3,,,,,,,,,2,,,58,0
58920,note_on,0,0,2,,,,,,,,,1,,,63,49
58920,note_on,0,0,2,,,,,,,,,1,,,61,49
58980,note_on,60,0,3,,,,,,,,,2,,,44,0
58980,note_on,0,0,3,,,,,,,,,2,,,51,49
59040,note_on,60,0,3,,,,,,,,,2,,,51,0
59040,note_on,0,0,3,,,,,,,,,2,,,56,49
59040,note_on,0,0,2,,,,,,,,,1,,,61,0
59040,note_on,120,0,2,,,,,,,,,1,,,63,0
59040,note_on,120,0,1,,,,,,,,,0,,,73,0
59040,note_on,0,0,1,,,,,,,,,0,,,72,62
59040,note_on,0,0,2,,,,,,,,,1,,,60,49
59100,note_on,0,0,3,,,,,,,,,2,,,44,49
59100,note_on,180,0,4,,,,,,,,,3,,,44,0
59100,note_on,60,0,3,,,,,,,,,2,,,56,0
59100,note_on,0,0,4,,,,,,,,,3,,,44,49
59160,note_on,0,0,3,,,,,,,,,2,,,51,49
59160,note_on,60,0,3,,,,,,,,,2,,,44,0
59160,note_on,0,0,1,,,,,,,,,0,,,70,62
59160,note_on,120,0,1,,,,,,,,,0,,,72,0
59220,note_on,0,0,3,,,,,,,,,2,,,56,49
59220,note_on,60,0,3,,,,,,,,,2,,,51,0
59220,control_change,0,0,3,,,,,,,,,2,64,0,,
59220,note_on,60,0,1,,,,,,,,,0,,,70,0
59220,control_change,0,0,1,,,,,,,,,0,64,0,,
59220,note_on,0,0,1,,,,,,,,,0,,,68,62
59280,note_on,60,0,3,,,,,,,,,2,,,56,0
59280,note_on,0,0,2,,,,,,,,,1,,,67,49
59280,note_on,0,0,2,,,,,,,,,1,,,63,49
59280,note_on,240,0,2,,,,,,,,,1,,,60,0
59280,note_on,180,0,4,,,,,,,,,3,,,44,0
59280,note_on,0,0,4,,,,,,,,,3,,,46,49
59280,control_change,0,0,3,,,,,,,,,2,64,127,,
59280,note_on,0,0,1,,,,,,,,,0,,,75,88
59280,note_on,0,0,3,,,,,,,,,2,,,46,49
59280,note_on,60,0,1,,,,,,,,,0,,,68,0
59280,control_change,0,0,1,,,,,,,,,0,64,127,,
59340,note_on,0,0,3,,,,,,,,,2,,,51,49
59340,note_on,60,0,3,,,,,,,,,2,,,46,0
59400,note_on,0,0,3,,,,,,,,,2,,,58,49
59400,note_on,60,0,3,,,,,,,,,2,,,51,0
59400,note_on,0,0,2,,,,,,,,,1,,,61,49
59400,note_on,0,0,2,,,,,,,,,1,,,63,0
59400,note_on,120,0,1,,,,,,,,,0,,,75,0
59400,note_on,120,0,2,,,,,,,,,1,,,67,0
59400,note_on,0,0,1,,,,,,,,,0,,,73,62
59460,note_on,0,0,3,,,,,,,,,2,,,46,49
59460,note_on,60,0,3,,,,,,,,,2,,,58,0
59460,note_on,0,0,4,,,,,,,,,3,,,46,49
59460,note_on,180,0,4,,,,,,,,,3,,,46,0
59520,note_on,120,0,1,,,,,,,,,0,,,73,0
59520,note_on,0,0,1,,,,,,,,,0,,,72,62
59520,note_on,60,0,3,,,,,,,,,2,,,46,0
59520,note_on,0,0,3,,,,,,,,,2,,,51,49
59580,note_on,0,0,1,,,,,,,,,0,,,70,62
59580,control_change,0,0,1,,,,,,,,,0,64,0,,
59580,note_on,60,0,1,,,,,,,,,0,,,72,0
59580,note_on,0,0,3,,,,,,,,,2,,,58,49
59580,control_change,0,0,3,,,,,,,,,2,64,0,,
59580,note_on,60,0,3,,,,,,,,,2,,,51,0
59640,note_on,0,0,3,,,,,,,,,2,,,48,49
59640,control_change,0,0,3,,,,,,,,,2,64,127,,
59640,note_on,60,0,3,,,,,,,,,2,,,58,0
59640,control_change,0,0,1,,,,,,,,,0,64,127,,
59640,note_on,0,0,4,,,,,,,,,3,,,48,49
59640,note_on,180,0,4,,,,,,,,,3,,,46,0
59640,note_on,0,0,2,,,,,,,,,1,,,65,49
59640,note_on,240,0,2,,,,,,,,,1,,,61,0
59640,note_on,60,0,1,,,,,,,,,0,,,70,0
59640,note_on,0,0,1,,,,,,,,,0,,,77,88
59640,note_on,0,0,2,,,,,,,,,1,,,68,49
59700,note_on,60,0,3,,,,,,,,,2,,,48,0
59700,note_on,0,0,3,,,,,,,,,2,,,56,49
59760,note_on,0,0,3,,,,,,,,,2,,,60,49
59760,note_on,120,0,1,,,,,,,,,0,,,77,0
59760,note_on,0,0,1,,,,,,,,,0,,,75,62
59760,note_on,120,0,2,,,,,,,,,1,,,68,0
59760,note_on,60,0,3,,,,,,,,,2,,,56,0
59760,note_on,0,0,2,,,,,,,,,1,,,63,49
59760,note_on,0,0,2,,,,,,,,,1,,,65,0
59820,note_on,0,0,3,,,,,,,,,2,,,48,49
59820,note_on,60,0,3,,,,,,,,,2,,,60,0
59820,note_on,180,0,4,,,,,,,,,3,,,48,0
59820,note_on,0,0,4,,,,,,,,,3,,,48,49
59880,note_on,0,0,1,,,,,,,,,0,,,73,62
59880,note_on,120,0,1,,,,,,,,,0,,,75,0
59880,note_on,0,0,3,,,,,,,,,2,,,56,49
59880,note_on,60,0,3,,,,,,,,,2,,,48,0
59940,control_change,0,0,3,,,,,,,,,2,64,0,,
59940,note_on,60,0,1,,,,,,,,,0,,,73,0
59940,control_change,0,0,1,,,,,,,,,0,64,0,,
59940,note_on,60,0,3,,,,,,,,,2,,,56,0
59940,note_on,0,0,1,,,,,,,,,0,,,72,62
59940,note_on,0,0,3,,,,,,,,,2,,,60,49
60000,control_change,0,0,3,,,,,,,,,2,64,127,,
60000,note_on,60,0,1,,,,,,,,,0,,,72,0
60000,control_change,0,0,1,,,,,,,,,0,64,127,,
60000,note_on,0,0,1,,,,,,,,,0,,,72,62
60000,note_on,60,0,3,,,,,,,,,2,,,60,0
60000,note_on,0,0,3,,,,,,,,,2,,,48,49
60000,note_on,0,0,4,,,,,,,,,3,,,48,49
60000,note_on,240,0,2,,,,,,,,,1,,,63,0
60000,note_on,0,0,2,,,,,,,,,1,,,63,49
60000,note_on,0,0,2,,,,,,,,,1,,,66,49
60000,note_on,180,0,4,,,,,,,,,3,,,48,0
60060,note_on,60,0,1,,,,,,,,,0,,,72,0
60060,note_on,60,0,3,,,,,,,,,2,,,48,0
60060,note_on,0,0,3,,,,,,,,,2,,,54,49
60060,note_on,0,0,1,,,,,,,,,0,,,70,62
60120,note_on,60,0,1,,,,,,,,,0,,,70,0
60120,note_on,0,0,3,,,,,,,,,2,,,57,49
60120,note_on,60,0,3,,,,,,,,,2,,,54,0
60120,note_on,0,0,1,,,,,,,,,0,,,69,62
60180,note_on,180,0,4,,,,,,,,,3,,,48,0
60180,note_on,60,0,3,,,,,,,,,2,,,57,0
60180,note_on,0,0,4,,,,,,,,,3,,,48,49
60180,note_on,0,0,3,,,,,,,,,2,,,48,49
60180,note_on,60,0,1,,,,,,,,,0,,,69,0
60180,note_on,0,0,1,,,,,,,,,0,,,69,62
60240,note_on,60,0,3,,,,,,,,,2,,,48,0
60240,note_on,60,0,1,,,,,,,,,0,,,69,0
60240,note_on,0,0,1,,,,,,,,,0,,,70,62
60240,note_on,0,0,3,,,,,,,,,2,,,54,49
60300,note_on,60,0,1,,,,,,,,,0,,,70,0
60300,control_change,0,0,1,,,,,,,,,0,64,0,,
60300,note_on,0,0,1,,,,,,,,,0,,,72,62
60300,note_on,60,0,3,,,,,,,,,2,,,54,0
60300,control_change,0,0,3,,,,,,,,,2,64,0,,
60300,note_on,0,0,3,,,,,,,,,2,,,57,49
60360,note_on,0,0,4,,,,,,,,,3,,,49,49
60360,note_on,0,0,3,,,,,,,,,2,,,49,49
60360,control_change,0,0,3,,,,,,,,,2,64,127,,
60360,note_on,0,0,2,,,,,,,,,1,,,65,49
60360,note_on,360,0,2,,,,,,,,,1,,,66,0
60360,note_on,60,0,3,,,,,,,,,2,,,57,0
60360,note_on,180,0,4,,,,,,,,,3,,,48,0
60360,note_on,0,0,2,,,,,,,,,1,,,63,0
60360,note_on,60,0,1,,,,,,,,,0,,,72,0
60360,control_change,0,0,1,,,,,,,,,0,64,127,,
60360,note_on,0,0,1,,,,,,,,,0,,,75,62
60420,note_on,60,0,1,,,,,,,,,0,,,75,0
60420,note_on,0,0,1,,,,,,,,,0,,,73,62
60420,note_on,60,0,3,,,,,,,,,2,,,49,0
60420,note_on,0,0,3,,,,,,,,,2,,,53,49
60480,note_on,0,0,1,,,,,,,,,0,,,72,62
60480,note_on,0,0,3,,,,,,,,,2,,,57,49
60480,note_on,60,0,3,,,,,,,,,2,,,53,0
60480,note_on,60,0,1,,,,,,,,,0,,,73,0
60540,note_on,0,0,1,,,,,,,,,0,,,75,62
60540,note_on,180,0,4,,,,,,,,,3,,,49,0
60540,note_on,0,0,4,,,,,,,,,3,,,49,49
60540,note_on,60,0,3,,,,,,,,,2,,,57,0
60540,note_on,60,0,1,,,,,,,,,0,,,72,0
60540,note_on,0,0,3,,,,,,,,,2,,,49,49
60600,note_on,0,0,1,,,,,,,,,0,,,73,62
60600,note_on,60,0,1,,,,,,,,,0,,,75,0
60600,note_on,0,0,3,,,,,,,,,2,,,58,49
60600,note_on,60,0,3,,,,,,,,,2,,,49,0
60660,note_on,60,0,3,,,,,,,,,2,,,58,0
60660,note_on,0,0,3,,,,,,,,,2,,,61,49
60660,control_change,0,0,3,,,,,,,,,2,64,0,,
60660,note_on,60,0,1,,,,,,,,,0,,,73,0
60660,note_on,0,0,1,,,,,,,,,0,,,70,62
60660,control_change,0,0,1,,,,,,,,,0,64,0,,
60720,note_on,60,0,3,,,,,,,,,2,,,61,0
60720,note_on,0,0,4,,,,,,,,,3,,,51,49
60720,note_on,180,0,4,,,,,,,,,3,,,49,0
60720,note_on,0,0,3,,,,,,,,,2,,,51,49
60720,note_on,0,0,1,,,,,,,,,0,,,68,62
60720,control_change,0,0,1,,,,,,,,,0,64,127,,
60720,note_on,60,0,1,,,,,,,,,0,,,70,0
60720,note_on,0,0,2,,,,,,,,,1,,,68,49
60720,control_change,0,0,3,,,,,,,,,2,64,127,,
60720,note_on,360,0,2,,,,,,,,,1,,,65,0
60780,note_on,0,0,3,,,,,,,,,2,,,60,49
60780,note_on,60,0,3,,,,,,,,,2,,,51,0
60840,note_on,60,0,3,,,,,,,,,2,,,60,0
60840,note_on,0,0,3,,,,,,,,,2,,,63,49
60900,note_on,180,0,1,,,,,,,,,0,,,68,0
60900,note_on,60,0,3,,,,,,,,,2,,,63,0
60900,note_on,0,0,3,,,,,,,,,2,,,51,49
60900,note_on,0,0,1,,,,,,,,,0,,,72,62
60900,note_on,180,0,4,,,,,,,,,3,,,51,0
60900,note_on,0,0,4,,,,,,,,,3,,,51,49
60900,note_on,180,0,2,,,,,,,,,1,,,68,0
60900,note_on,0,0,2,,,,,,,,,1,,,67,49
60960,note_on,60,0,3,,,,,,,,,2,,,51,0
60960,note_on,0,0,3,,,,,,,,,2,,,61,49
61020,control_change,0,0,1,,,,,,,,,0,64,0,,
61020,note_on,0,0,1,,,,,,,,,0,,,70,62
61020,note_on,60,0,3,,,,,,,,,2,,,61,0
61020,note_on,120,0,1,,,,,,,,,0,,,72,0
61020,control_change,0,0,3,,,,,,,,,2,64,0,,
61020,note_on,0,0,3,,,,,,,,,2,,,63,49
61080,note_on,180,0,2,,,,,,,,,1,,,67,0
61080,control_change,0,0,2,,,,,,,,,1,64,127,,
61080,note_on,60,0,3,,,,,,,,,2,,,63,0
61080,control_change,0,0,3,,,,,,,,,2,64,127,,
61080,note_on,0,0,1,,,,,,,,,0,,,73,101
61080,note_on,0,0,3,,,,,,,,,2,,,56,62
61080,note_on,0,0,2,,,,,,,,,1,,,68,62
61080,note_on,0,0,2,,,,,,,,,1,,,75,62
61080,note_on,60,0,1,,,,,,,,,0,,,70,0
61080,control_change,0,0,1,,,,,,,,,0,64,127,,
61080,note_on,180,0,4,,,,,,,,,3,,,51,0
61080,note_on,0,0,3,,,,,,,,,2,,,44,62
61140,note_on,60,0,3,,,,,,,,,2,,,56,0
61140,note_on,0,0,3,,,,,,,,,2,,,63,62
61140,note_on,0,0,3,,,,,,,,,2,,,56,62
61140,note_on,0,0,3,,,,,,,,,2,,,44,0
61146,note_on,0,0,3,,,,,,,,,2,,,56,0
61146,note_on,6,0,3,,,,,,,,,2,,,63,0
61200,note_on,54,0,3,,,,,,,,,2,,,56,62
61200,note_on,0,0,3,,,,,,,,,2,,,63,62
61200,note_on,120,0,1,,,,,,,,,0,,,73,0
61200,note_on,0,0,1,,,,,,,,,0,,,72,75
61206,note_on,6,0,3,,,,,,,,,2,,,63,0
61206,note_on,0,0,3,,,,,,,,,2,,,56,0
61260,note_on,0,0,3,,,,,,,,,2,,,63,62
61260,note_on,54,0,3,,,,,,,,,2,,,56,62
61266,note_on,6,0,3,,,,,,,,,2,,,63,0
61266,note_on,0,0,3,,,,,,,,,2,,,56,0
61320,note_on,0,0,2,,,,,,,,,1,,,67,62
61320,note_on,0,0,3,,,,,,,,,2,,,58,62
61320,note_on,0,0,1,,,,,,,,,0,,,70,75
61320,note_on,120,0,1,,,,,,,,,0,,,72,0
61320,note_on,0,0,2,,,,,,,,,1,,,68,0
61320,note_on,240,0,2,,,,,,,,,1,,,75,0
61320,note_on,54,0,3,,,,,,,,,2,,,56,62
61320,note_on,0,0,3,,,,,,,,,2,,,63,62
61326,note_on,0,0,3,,,,,,,,,2,,,56,0
61326,note_on,0,0,3,,,,,,,,,2,,,58,0
61326,note_on,6,0,3,,,,,,,,,2,,,63,0
61380,note_on,0,0,1,,,,,,,,,0,,,68,75
61380,note_on,0,0,3,,,,,,,,,2,,,63,62
61380,note_on,0,0,3,,,,,,,,,2,,,56,62
61380,control_change,54,0,3,,,,,,,,,2,64,0,,
61380,note_on,0,0,3,,,,,,,,,2,,,60,62
61380,note_on,60,0,1,,,,,,,,,0,,,70,0
61380,note_on,60,0,2,,,,,,,,,1,,,67,0
61380,control_change,0,0,2,,,,,,,,,1,64,0,,
61380,note_on,0,0,2,,,,,,,,,1,,,68,62
61380,control_change,0,0,1,,,,,,,,,0,64,0,,
61386,note_on,0,0,3,,,,,,,,,2,,,56,0
61386,note_on,6,0,3,,,,,,,,,2,,,63,0
61386,note_on,0,0,3,,,,,,,,,2,,,60,0
61440,note_on,60,0,1,,,,,,,,,0,,,68,0
61440,note_on,60,0,2,,,,,,,,,1,,,68,0
61440,note_on,0,0,1,,,,,,,,,0,,,67,75
61440,control_change,0,0,1,,,,,,,,,0,64,127,,
61440,control_change,54,0,3,,,,,,,,,2,64,127,,
61440,note_on,0,0,3,,,,,,,,,2,,,51,62
61465,note_on,25,0,1,,,,,,,,,0,,,70,75
61466,note_on,1,0,1,,,,,,,,,0,,,67,0
61491,note_on,0,0,1,,,,,,,,,0,,,73,75
61491,note_on,25,0,1,,,,,,,,,0,,,70,0
61500,note_on,0,0,3,,,,,,,,,2,,,61,62
61500,note_on,0,0,3,,,,,,,,,2,,,64,62
61500,note_on,0,0,3,,,,,,,,,2,,,67,62
61500,note_on,60,0,3,,,,,,,,,2,,,51,0
61506,note_on,0,0,3,,,,,,,,,2,,,61,0
61506,note_on,6,0,3,,,,,,,,,2,,,67,0
61506,note_on,0,0,3,,,,,,,,,2,,,64,0
61517,note_on,0,0,1,,,,,,,,,0,,,76,75
61517,note_on,26,0,1,,,,,,,,,0,,,73,0
61542,note_on,25,0,1,,,,,,,,,0,,,79,75
61543,note_on,1,0,1,,,,,,,,,0,,,76,0
61560,note_on,0,0,3,,,,,,,,,2,,,64,62
61560,note_on,54,0,3,,,,,,,,,2,,,61,62
61560,note_on,0,0,3,,,,,,,,,2,,,67,62
61566,note_on,6,0,3,,,,,,,,,2,,,67,0
61566,note_on,0,0,3,,,,,,,,,2,,,64,0
61566,note_on,0,0,3,,,,,,,,,2,,,61,0
61568,note_on,25,0,1,,,,,,,,,0,,,79,0
61568,note_on,0,0,1,,,,,,,,,0,,,82,75
61594,note_on,26,0,1,,,,,,,,,0,,,82,0
61594,note_on,0,0,1,,,,,,,,,0,,,85,75
61620,note_on,54,0,3,,,,,,,,,2,,,51,62
61620,note_on,0,0,1,,,,,,,,,0,,,88,101
61620,note_on,26,0,1,,,,,,,,,0,,,85,0
61680,note_on,0,0,3,,,,,,,,,2,,,64,62
61680,note_on,0,0,3,,,,,,,,,2,,,67,62
61680,note_on,60,0,3,,,,,,,,,2,,,51,0
61680,note_on,0,0,3,,,,,,,,,2,,,61,62
61686,note_on,6,0,3,,,,,,,,,2,,,67,0
61686,note_on,0,0,3,,,,,,,,,2,,,61,0
61686,note_on,0,0,3,,,,,,,,,2,,,64,0
61740,note_on,0,0,3,,,,,,,,,2,,,61,62
61740,note_on,120,0,1,,,,,,,,,0,,,88,0
61740,note_on,0,0,3,,,,,,,,,2,,,63,62
61740,note_on,0,0,3,,,,,,,,,2,,,67,62
61740,note_on,0,0,1,,,,,,,,,0,,,87,75
61740,control_change,0,0,1,,,,,,,,,0,64,0,,
61740,control_change,54,0,3,,,,,,,,,2,64,0,,
61746,note_on,6,0,3,,,,,,,,,2,,,67,0
61746,note_on,0,0,3,,,,,,,,,2,,,61,0
61746,note_on,0,0,3,,,,,,,,,2,,,63,0
61800,note_on,0,0,3,,,,,,,,,2,,,56,62
61800,note_on,0,0,3,,,,,,,,,2,,,44,62
61800,control_change,0,0,1,,,,,,,,,0,64,127,,
61800,control_change,54,0,3,,,,,,,,,2,64,127,,
61800,control_change,0,0,1,,,,,,,,,0,64,127,,
61800,control_change,360,0,2,,,,,,,,,1,64,127,,
61800,note_on,60,0,1,,,,,,,,,0,,,87,0
61800,note_on,0,0,1,,,,,,,,,0,,,73,101
61800,note_on,0,0,2,,,,,,,,,1,,,75,62
61800,note_on,0,0,2,,,,,,,,,1,,,68,62
61860,note_on,0,0,3,,,,,,,,,2,,,44,0
61860,note_on,0,0,3,,,,,,,,,2,,,63,62
61860,note_on,60,0,3,,,,,,,,,2,,,56,0
61860,note_on,0,0,3,,,,,,,,,2,,,56,62
61866,note_on,6,0,3,,,,,,,,,2,,,63,0
61866,note_on,0,0,3,,,,,,,,,2,,,56,0
61920,note_on,54,0,3,,,,,,,,,2,,,56,62
61920,note_on,120,0,1,,,,,,,,,0,,,73,0
61920,note_on,0,0,1,,,,,,,,,0,,,72,75
61920,note_on,0,0,3,,,,,,,,,2,,,63,62
61926,note_on,6,0,3,,,,,,,,,2,,,63,0
61926,note_on,0,0,3,,,,,,,,,2,,,56,0
61980,note_on,0,0,3,,,,,,,,,2,,,63,62
61980,note_on,54,0,3,,,,,,,,,2,,,56,62
61986,note_on,0,0,3,,,,,,,,,2,,,56,0
61986,note_on,6,0,3,,,,,,,,,2,,,63,0
62040,note_on,0,0,1,,,,,,,,,0,,,70,75
62040,note_on,0,0,3,,,,,,,,,2,,,63,62
62040,note_on,0,0,3,,,,,,,,,2,,,58,62
62040,note_on,54,0,3,,,,,,,,,2,,,56,62
62040,note_on,0,0,2,,,,,,,,,1,,,67,62
62040,note_on,0,0,2,,,,,,,,,1,,,68,0
62040,note_on,240,0,2,,,,,,,,,1,,,75,0
62040,note_on,120,0,1,,,,,,,,,0,,,72,0
62046,note_on,6,0,3,,,,,,,,,2,,,63,0
62046,note_on,0,0,3,,,,,,,,,2,,,58,0
62046,note_on,0,0,3,,,,,,,,,2,,,56,0
62100,note_on,0,0,3,,,,,,,,,2,,,56,62
62100,control_change,54,0,3,,,,,,,,,2,64,0,,
62100,note_on,0,0,3,,,,,,,,,2,,,60,62
62100,note_on,0,0,3,,,,,,,,,2,,,63,62
62100,note_on,0,0,2,,,,,,,,,1,,,68,62
62100,note_on,0,0,1,,,,,,,,,0,,,68,75
62100,control_change,0,0,1,,,,,,,,,0,64,0,,
62100,note_on,60,0,1,,,,,,,,,0,,,70,0
62100,note_on,60,0,2,,,,,,,,,1,,,67,0
62100,control_change,0,0,2,,,,,,,,,1,64,0,,
62106,note_on,0,0,3,,,,,,,,,2,,,56,0
62106,note_on,6,0,3,,,,,,,,,2,,,63,0
62106,note_on,0,0,3,,,,,,,,,2,,,60,0
62160,note_on,0,0,3,,,,,,,,,2,,,51,62
62160,note_on,0,0,1,,,,,,,,,0,,,67,75
62160,control_change,0,0,1,,,,,,,,,0,64,127,,
62160,note_on,60,0,1,,,,,,,,,0,,,68,0
62160,note_on,60,0,2,,,,,,,,,1,,,68,0
62160,control_change,54,0,3,,,,,,,,,2,64,127,,
62185,note_on,25,0,1,,,,,,,,,0,,,70,75
62186,note_on,1,0,1,,,,,,,,,0,,,67,0
62211,note_on,0,0,1,,,,,,,,,0,,,73,75
62211,note_on,25,0,1,,,,,,,,,0,,,70,0
62220,note_on,60,0,3,,,,,,,,,2,,,51,0
62220,note_on,0,0,3,,,,,,,,,2,,,61,62
62220,note_on,0,0,3,,,,,,,,,2,,,64,62
62220,note_on,0,0,3,,,,,,,,,2,,,67,62
62226,note_on,0,0,3,,,,,,,,,2,,,64,0
62226,note_on,0,0,3,,,,,,,,,2,,,61,0
62226,note_on,6,0,3,,,,,,,,,2,,,67,0
62237,note_on,26,0,1,,,,,,,,,0,,,73,0
62237,note_on,0,0,1,,,,,,,,,0,,,76,75
62262,note_on,25,0,1,,,,,,,,,0,,,79,75
62263,note_on,1,0,1,,,,,,,,,0,,,76,0
62280,note_on,54,0,3,,,,,,,,,2,,,61,62
62280,note_on,0,0,3,,,,,,,,,2,,,64,62
62280,note_on,0,0,3,,,,,,,,,2,,,67,62
62286,note_on,0,0,3,,,,,,,,,2,,,61,0
62286,note_on,0,0,3,,,,,,,,,2,,,64,0
62286,note_on,6,0,3,,,,,,,,,2,,,67,0
62288,note_on,25,0,1,,,,,,,,,0,,,79,0
62288,note_on,0,0,1,,,,,,,,,0,,,82,75
62314,note_on,26,0,1,,,,,,,,,0,,,82,0
62314,note_on,0,0,1,,,,,,,,,0,,,85,75
62340,note_on,26,0,1,,,,,,,,,0,,,85,0
62340,note_on,0,0,1,,,,,,,,,0,,,88,101
62340,note_on,54,0,3,,,,,,,,,2,,,51,62
62400,note_on,60,0,3,,,,,,,,,2,,,51,0
62400,note_on,0,0,3,,,,,,,,,2,,,61,62
62400,note_on,0,0,3,,,,,,,,,2,,,64,62
62400,note_on,0,0,3,,,,,,,,,2,,,67,62
62406,note_on,0,0,3,,,,,,,,,2,,,64,0
62406,note_on,6,0,3,,,,,,,,,2,,,67,0
62406,note_on,0,0,3,,,,,,,,,2,,,61,0
62460,note_on,0,0,3,,,,,,,,,2,,,67,62
62460,note_on,0,0,3,,,,,,,,,2,,,64,62
62460,note_on,0,0,3,,,,,,,,,2,,,61,62
62460,control_change,54,0,3,,,,,,,,,2,64,0,,
62466,note_on,6,0,3,,,,,,,,,2,,,67,0
62466,note_on,0,0,3,,,,,,,,,2,,,61,0
62466,note_on,0,0,3,,,,,,,,,2,,,64,0
62520,note_on,0,0,3,,,,,,,,,2,,,52,49
62520,control_change,54,0,3,,,,,,,,,2,64,127,,
62520,control_change,180,0,1,,,,,,,,,0,64,0,,
62520,note_on,360,0,2,,,,,,,,,1,,,76,49
62580,note_on,0,0,3,,,,,,,,,2,,,64,49
62580,note_on,0,0,3,,,,,,,,,2,,,61,49
62580,note_on,60,0,3,,,,,,,,,2,,,52,0
62586,note_on,0,0,3,,,,,,,,,2,,,61,0
62586,note_on,6,0,3,,,,,,,,,2,,,64,0
62640,note_on,0,0,3,,,,,,,,,2,,,64,49
62640,note_on,54,0,3,,,,,,,,,2,,,61,49
62646,note_on,0,0,3,,,,,,,,,2,,,61,0
62646,note_on,6,0,3,,,,,,,,,2,,,64,0
62700,note_on,0,0,2,,,,,,,,,1,,,80,49
62700,note_on,0,0,3,,,,,,,,,2,,,52,49
62700,control_change,54,0,3,,,,,,,,,2,64,0,,
62700,note_on,180,0,1,,,,,,,,,0,,,88,0
62700,note_on,180,0,2,,,,,,,,,1,,,76,0
62700,note_on,0,0,1,,,,,,,,,0,,,86,62
62760,note_on,0,0,3,,,,,,,,,2,,,62,49
62760,note_on,0,0,1,,,,,,,,,0,,,85,62
62760,note_on,60,0,3,,,,,,,,,2,,,52,0
62760,note_on,0,0,3,,,,,,,,,2,,,64,49
62760,note_on,60,0,1,,,,,,,,,0,,,86,0
62766,note_on,6,0,3,,,,,,,,,2,,,64,0
62766,note_on,0,0,3,,,,,,,,,2,,,62,0
62820,note_on,54,0,3,,,,,,,,,2,,,62,49
62820,note_on,0,0,3,,,,,,,,,2,,,64,49
62820,note_on,0,0,1,,,,,,,,,0,,,84,62
62820,note_on,60,0,1,,,,,,,,,0,,,85,0
62826,note_on,6,0,3,,,,,,,,,2,,,64,0
62826,note_on,0,0,3,,,,,,,,,2,,,62,0
62880,note_on,0,0,1,,,,,,,,,0,,,74,75
62880,control_change,0,0,1,,,,,,,,,0,64,127,,
62880,control_change,0,0,1,,,,,,,,,0,64,127,,
62880,note_on,60,0,1,,,,,,,,,0,,,84,0
62880,control_change,0,0,2,,,,,,,,,1,64,127,,
62880,note_on,180,0,2,,,,,,,,,1,,,80,0
62880,note_on,0,0,2,,,,,,,,,1,,,69,36
62880,note_on,0,0,3,,,,,,,,,2,,,45,36
62880,note_on,0,0,2,,,,,,,,,1,,,76,36
62880,control_change,54,0,3,,,,,,,,,2,64,127,,
62880,note_on,0,0,3,,,,,,,,,2,,,57,36
62940,note_on,0,0,3,,,,,,,,,2,,,64,36
62940,note_on,0,0,3,,,,,,,,,2,,,57,36
62940,note_on,0,0,3,,,,,,,,,2,,,45,0
62940,note_on,60,0,3,,,,,,,,,2,,,57,0
62946,note_on,0,0,3,,,,,,,,,2,,,57,0
62946,note_on,6,0,3,,,,,,,,,2,,,64,0
63000,note_on,54,0,3,,,,,,,,,2,,,57,36
63000,note_on,0,0,3,,,,,,,,,2,,,64,36
63000,note_on,0,0,1,,,,,,,,,0,,,73,49
63000,note_on,120,0,1,,,,,,,,,0,,,74,0
63006,note_on,6,0,3,,,,,,,,,2,,,64,0
63006,note_on,0,0,3,,,,,,,,,2,,,57,0
63060,note_on,54,0,3,,,,,,,,,2,,,57,36
63060,note_on,0,0,3,,,,,,,,,2,,,64,36
63066,note_on,6,0,3,,,,,,,,,2,,,64,0
63066,note_on,0,0,3,,,,,,,,,2,,,57,0
63120,note_on,120,0,1,,,,,,,,,0,,,73,0
63120,note_on,240,0,2,,,,,,,,,1,,,76,0
63120,note_on,0,0,3,,,,,,,,,2,,,64,36
63120,note_on,0,0,3,,,,,,,,,2,,,59,36
63120,note_on,54,0,3,,,,,,,,,2,,,57,36
63120,note_on,0,0,2,,,,,,,,,1,,,68,36
63120,note_on,0,0,2,,,,,,,,,1,,,69,0
63120,note_on,0,0,1,,,,,,,,,0,,,71,49
63126,note_on,0,0,3,,,,,,,,,2,,,57,0
63126,note_on,0,0,3,,,,,,,,,2,,,59,0
63126,note_on,6,0,3,,,,,,,,,2,,,64,0
63180,control_change,0,0,1,,,,,,,,,0,64,0,,
63180,note_on,0,0,1,,,,,,,,,0,,,69,49
63180,note_on,0,0,2,,,,,,,,,1,,,69,36
63180,note_on,60,0,1,,,,,,,,,0,,,71,0
63180,note_on,0,0,3,,,,,,,,,2,,,64,36
63180,note_on,0,0,3,,,,,,,,,2,,,61,36
63180,note_on,0,0,3,,,,,,,,,2,,,57,36
63180,control_change,54,0,3,,,,,,,,,2,64,0,,
63180,control_change,0,0,2,,,,,,,,,1,64,0,,
63180,note_on,60,0,2,,,,,,,,,1,,,68,0
63186,note_on,0,0,3,,,,,,,,,2,,,57,0
63186,note_on,0,0,3,,,,,,,,,2,,,61,0
63186,note_on,6,0,3,,,,,,,,,2,,,64,0
63240,note_on,60,0,2,,,,,,,,,1,,,69,0
63240,note_on,0,0,3,,,,,,,,,2,,,52,36
63240,control_change,54,0,3,,,,,,,,,2,64,127,,
63240,note_on,60,0,1,,,,,,,,,0,,,69,0
63240,control_change,0,0,1,,,,,,,,,0,64,127,,
63240,note_on,0,0,1,,,,,,,,,0,,,68,49
63265,note_on,25,0,1,,,,,,,,,0,,,71,49
63266,note_on,1,0,1,,,,,,,,,0,,,68,0
63291,note_on,0,0,1,,,,,,,,,0,,,74,49
63291,note_on,25,0,1,,,,,,,,,0,,,71,0
63300,note_on,0,0,3,,,,,,,,,2,,,65,36
63300,note_on,0,0,3,,,,,,,,,2,,,62,36
63300,note_on,60,0,3,,,,,,,,,2,,,52,0
63300,note_on,0,0,3,,,,,,,,,2,,,68,36
63306,note_on,0,0,3,,,,,,,,,2,,,62,0
63306,note_on,6,0,3,,,,,,,,,2,,,68,0
63306,note_on,0,0,3,,,,,,,,,2,,,65,0
63317,note_on,26,0,1,,,,,,,,,0,,,74,0
63317,note_on,0,0,1,,,,,,,,,0,,,77,49
63342,note_on,25,0,1,,,,,,,,,0,,,80,49
63343,note_on,1,0,1,,,,,,,,,0,,,77,0
63360,note_on,0,0,3,,,,,,,,,2,,,68,36
63360,note_on,0,0,3,,,,,,,,,2,,,65,36
63360,note_on,54,0,3,,,,,,,,,2,,,62,36
63366,note_on,0,0,3,,,,,,,,,2,,,65,0
63366,note_on,6,0,3,,,,,,,,,2,,,68,0
63366,note_on,0,0,3,,,,,,,,,2,,,62,0
63368,note_on,0,0,1,,,,,,,,,0,,,83,49
63368,note_on,25,0,1,,,,,,,,,0,,,80,0
63394,note_on,26,0,1,,,,,,,,,0,,,83,0
63394,note_on,0,0,1,,,,,,,,,0,,,86,49
63420,note_on,26,0,1,,,,,,,,,0,,,86,0
63420,note_on,54,0,3,,,,,,,,,2,,,52,36
63420,note_on,0,0,1,,,,,,,,,0,,,89,75
63480,note_on,60,0,3,,,,,,,,,2,,,52,0
63480,note_on,0,0,3,,,,,,,,,2,,,62,36
63480,note_on,0,0,3,,,,,,,,,2,,,65,36
63480,note_on,0,0,3,,,,,,,,,2,,,68,36
63486,note_on,6,0,3,,,,,,,,,2,,,68,0
63486,note_on,0,0,3,,,,,,,,,2,,,65,0
63486,note_on,0,0,3,,,,,,,,,2,,,62,0
63540,note_on,0,0,3,,,,,,,,,2,,,68,36
63540,note_on,0,0,3,,,,,,,,,2,,,64,36
63540,note_on,0,0,3,,,,,,,,,2,,,62,36
63540,control_change,54,0,3,,,,,,,,,2,64,0,,
63540,control_change,0,0,1,,,,,,,,,0,64,0,,
63540,note_on,120,0,1,,,,,,,,,0,,,89,0
63540,note_on,0,0,1,,,,,,,,,0,,,88,49
63546,note_on,0,0,3,,,,,,,,,2,,,62,0
63546,note_on,6,0,3,,,,,,,,,2,,,68,0
63546,note_on,0,0,3,,,,,,,,,2,,,64,0
63600,control_change,0,0,1,,,,,,,,,0,64,127,,
63600,note_on,0,0,1,,,,,,,,,0,,,74,75
63600,note_on,0,0,2,,,,,,,,,1,,,76,36
63600,note_on,0,0,2,,,,,,,,,1,,,69,36
63600,control_change,360,0,2,,,,,,,,,1,64,127,,
63600,note_on,60,0,1,,,,,,,,,0,,,88,0
63600,note_on,0,0,3,,,,,,,,,2,,,57,36
63600,note_on,0,0,3,,,,,,,,,2,,,45,36
63600,control_change,54,0,3,,,,,,,,,2,64,127,,
63600,control_change,0,0,1,,,,,,,,,0,64,127,,
63660,note_on,0,0,3,,,,,,,,,2,,,64,36
63660,note_on,0,0,3,,,,,,,,,2,,,57,36
63660,note_on,0,0,3,,,,,,,,,2,,,45,0
63660,note_on,60,0,3,,,,,,,,,2,,,57,0
63666,note_on,0,0,3,,,,,,,,,2,,,57,0
63666,note_on,6,0,3,,,,,,,,,2,,,64,0
63720,note_on,54,0,3,,,,,,,,,2,,,57,36
63720,note_on,0,0,3,,,,,,,,,2,,,64,36
63720,note_on,120,0,1,,,,,,,,,0,,,74,0
63720,note_on,0,0,1,,,,,,,,,0,,,73,49
63726,note_on,0,0,3,,,,,,,,,2,,,57,0
63726,note_on,6,0,3,,,,,,,,,2,,,64,0
63780,note_on,54,0,3,,,,,,,,,2,,,57,36
63780,note_on,0,0,3,,,,,,,,,2,,,64,36
63786,note_on,6,0,3,,,,,,,,,2,,,64,0
63786,note_on,0,0,3,,,,,,,,,2,,,57,0
63840,note_on,120,0,1,,,,,,,,,0,,,73,0
63840,note_on,0,0,1,,,,,,,,,0,,,71,49
63840,note_on,54,0,3,,,,,,,,,2,,,57,36
63840,note_on,0,0,3,,,,,,,,,2,,,59,36
63840,note_on,0,0,2,,,,,,,,,1,,,68,36
63840,note_on,0,0,2,,,,,,,,,1,,,69,0
63840,note_on,240,0,2,,,,,,,,,1,,,76,0
63840,note_on,0,0,3,,,,,,,,,2,,,64,36
63846,note_on,0,0,3,,,,,,,,,2,,,59,0
63846,note_on,0,0,3,,,,,,,,,2,,,57,0
63846,note_on,6,0,3,,,,,,,,,2,,,64,0
63900,control_change,54,0,3,,,,,,,,,2,64,0,,
63900,note_on,0,0,3,,,,,,,,,2,,,57,36
63900,note_on,0,0,3,,,,,,,,,2,,,64,36
63900,control_change,0,0,1,,,,,,,,,0,64,0,,
63900,note_on,0,0,3,,,,,,,,,2,,,61,36
63900,note_on,60,0,2,,,,,,,,,1,,,68,0
63900,control_change,0,0,2,,,,,,,,,1,64,0,,
63900,note_on,0,0,2,,,,,,,,,1,,,69,36
63900,note_on,60,0,1,,,,,,,,,0,,,71,0
63900,note_on,0,0,1,,,,,,,,,0,,,69,49
63906,note_on,0,0,3,,,,,,,,,2,,,57,0
63906,note_on,0,0,3,,,,,,,,,2,,,61,0
63906,note_on,6,0,3,,,,,,,,,2,,,64,0
63960,note_on,60,0,1,,,,,,,,,0,,,69,0
63960,control_change,0,0,1,,,,,,,,,0,64,127,,
63960,note_on,0,0,1,,,,,,,,,0,,,68,49
63960,control_change,54,0,3,,,,,,,,,2,64,127,,
63960,note_on,60,0,2,,,,,,,,,1,,,69,0
63960,note_on,0,0,3,,,,,,,,,2,,,52,36
63985,note_on,25,0,1,,,,,,,,,0,,,71,49
63986,note_on,1,0,1,,,,,,,,,0,,,68,0
64011,note_on,25,0,1,,,,,,,,,0,,,71,0
64011,note_on,0,0,1,,,,,,,,,0,,,74,49
64020,note_on,0,0,3,,,,,,,,,2,,,62,36
64020,note_on,0,0,3,,,,,,,,,2,,,65,36
64020,note_on,0,0,3,,,,,,,,,2,,,68,36
64020,note_on,60,0,3,,,,,,,,,2,,,52,0
64026,note_on,0,0,3,,,,,,,,,2,,,62,0
64026,note_on,0,0,3,,,,,,,,,2,,,65,0
64026,note_on,6,0,3,,,,,,,,,2,,,68,0
64037,note_on,26,0,1,,,,,,,,,0,,,74,0
64037,note_on,0,0,1,,,,,,,,,0,,,77,49
64062,note_on,25,0,1,,,,,,,,,0,,,80,49
64063,note_on,1,0,1,,,,,,,,,0,,,77,0
64080,note_on,54,0,3,,,,,,,,,2,,,62,36
64080,note_on,0,0,3,,,,,,,,,2,,,65,36
64080,note_on,0,0,3,,,,,,,,,2,,,68,36
64086,note_on,6,0,3,,,,,,,,,2,,,68,0
64086,note_on,0,0,3,,,,,,,,,2,,,65,0
64086,note_on,0,0,3,,,,,,,,,2,,,62,0
64088,note_on,0,0,1,,,,,,,,,0,,,83,49
64088,note_on,25,0,1,,,,,,,,,0,,,80,0
64114,note_on,26,0,1,,,,,,,,,0,,,83,0
64114,note_on,0,0,1,,,,,,,,,0,,,86,49
64140,note_on,54,0,3,,,,,,,,,2,,,52,36
64140,note_on,26,0,1,,,,,,,,,0,,,86,0
64140,note_on,0,0,1,,,,,,,,,0,,,89,75
64200,note_on,60,0,3,,,,,,,,,2,,,52,0
64200,note_on,0,0,3,,,,,,,,,2,,,68,36
64200,note_on,0,0,3,,,,,,,,,2,,,65,36
64200,note_on,0,0,3,,,,,,,,,2,,,62,36
64206,note_on,0,0,3,,,,,,,,,2,,,62,0
64206,note_on,6,0,3,,,,,,,,,2,,,68,0
64206,note_on,0,0,3,,,,,,,,,2,,,65,0
64260,control_change,0,0,1,,,,,,,,,0,64,0,,
64260,note_on,0,0,3,,,,,,,,,2,,,68,36
64260,note_on,0,0,1,,,,,,,,,0,,,88,49
64260,control_change,54,0,3,,,,,,,,,2,64,0,,
64260,note_on,0,0,3,,,,,,,,,2,,,62,36
64260,note_on,0,0,3,,,,,,,,,2,,,64,36
64260,note_on,120,0,1,,,,,,,,,0,,,89,0
64266,note_on,0,0,3,,,,,,,,,2,,,62,0
64266,note_on,0,0,3,,,,,,,,,2,,,64,0
64266,note_on,6,0,3,,,,,,,,,2,,,68,0
64320,control_change,54,0,3,,,,,,,,,2,64,127,,
64320,note_on,0,0,3,,,,,,,,,2,,,57,36
64320,note_on,0,0,3,,,,,,,,,2,,,64,36
64320,note_on,0,0,2,,,,,,,,,1,,,76,36
64320,note_on,60,0,1,,,,,,,,,0,,,88,0
64320,control_change,0,0,1,,,,,,,,,0,64,127,,
64320,control_change,0,0,1,,,,,,,,,0,64,127,,
64320,note_on,0,0,1,,,,,,,,,0,,,74,75
64320,control_change,360,0,2,,,,,,,,,1,64,127,,
64320,note_on,0,0,2,,,,,,,,,1,,,69,36
64380,note_on,60,0,3,,,,,,,,,2,,,64,0
64380,note_on,0,0,3,,,,,,,,,2,,,57,0
64380,note_on,0,0,3,,,,,,,,,2,,,64,36
64380,note_on,0,0,3,,,,,,,,,2,,,57,36
64386,note_on,0,0,3,,,,,,,,,2,,,57,0
64386,note_on,6,0,3,,,,,,,,,2,,,64,0
64440,note_on,0,0,1,,,,,,,,,0,,,73,49
64440,note_on,120,0,1,,,,,,,,,0,,,74,0
64440,note_on,54,0,3,,,,,,,,,2,,,57,36
64440,note_on,0,0,3,,,,,,,,,2,,,64,36
64446,note_on,0,0,3,,,,,,,,,2,,,57,0
64446,note_on,6,0,3,,,,,,,,,2,,,64,0
64500,note_on,0,0,3,,,,,,,,,2,,,64,36
64500,note_on,54,0,3,,,,,,,,,2,,,57,36
64506,note_on,6,0,3,,,,,,,,,2,,,64,0
64506,note_on,0,0,3,,,,,,,,,2,,,57,0
64560,note_on,0,0,1,,,,,,,,,0,,,71,49
64560,note_on,240,0,2,,,,,,,,,1,,,76,0
64560,note_on,0,0,2,,,,,,,,,1,,,69,0
64560,note_on,0,0,2,,,,,,,,,1,,,68,36
64560,note_on,54,0,3,,,,,,,,,2,,,57,36
64560,note_on,120,0,1,,,,,,,,,0,,,73,0
64560,note_on,0,0,3,,,,,,,,,2,,,64,36
64560,note_on,0,0,3,,,,,,,,,2,,,59,36
64566,note_on,6,0,3,,,,,,,,,2,,,64,0
64566,note_on,0,0,3,,,,,,,,,2,,,59,0
64566,note_on,0,0,3,,,,,,,,,2,,,57,0
64620,note_on,60,0,1,,,,,,,,,0,,,71,0
64620,note_on,0,0,2,,,,,,,,,1,,,69,36
64620,note_on,60,0,2,,,,,,,,,1,,,68,0
64620,control_change,0,0,1,,,,,,,,,0,64,0,,
64620,note_on,0,0,1,,,,,,,,,0,,,69,49
64620,control_change,0,0,2,,,,,,,,,1,64,0,,
64620,control_change,54,0,3,,,,,,,,,2,64,0,,
64620,note_on,0,0,3,,,,,,,,,2,,,57,36
64620,note_on,0,0,3,,,,,,,,,2,,,61,36
64620,note_on,0,0,3,,,,,,,,,2,,,64,36
64626,note_on,0,0,3,,,,,,,,,2,,,61,0
64626,note_on,0,0,3,,,,,,,,,2,,,57,0
64626,note_on,6,0,3,,,,,,,,,2,,,64,0
64680,note_on,60,0,2,,,,,,,,,1,,,69,0
64680,note_on,0,0,2,,,,,,,,,1,,,77,62
64680,note_on,0,0,1,,,,,,,,,0,,,72,49
64680,control_change,0,0,1,,,,,,,,,0,64,127,,
64680,note_on,60,0,1,,,,,,,,,0,,,69,0
64680,note_on,0,0,3,,,,,,,,,2,,,65,36
64680,note_on,0,0,3,,,,,,,,,2,,,60,36
64680,note_on,0,0,3,,,,,,,,,2,,,57,36
64680,control_change,54,0,3,,,,,,,,,2,64,127,,
64740,note_on,0,0,3,,,,,,,,,2,,,65,36
64740,note_on,60,0,3,,,,,,,,,2,,,65,0
64740,note_on,0,0,3,,,,,,,,,2,,,60,0
64740,note_on,0,0,3,,,,,,,,,2,,,57,0
64740,note_on,0,0,3,,,,,,,,,2,,,57,36
64740,note_on,0,0,3,,,,,,,,,2,,,60,36
64800,note_on,120,0,1,,,,,,,,,0,,,72,0
64800,note_on,0,0,1,,,,,,,,,0,,,75,49
64800,note_on,60,0,3,,,,,,,,,2,,,65,0
64800,note_on,0,0,3,,,,,,,,,2,,,65,36
64800,note_on,0,0,3,,,,,,,,,2,,,60,36
64800,note_on,0,0,3,,,,,,,,,2,,,57,36
64800,note_on,0,0,3,,,,,,,,,2,,,57,0
64800,note_on,0,0,3,,,,,,,,,2,,,60,0
64860,note_on,0,0,3,,,,,,,,,2,,,65,36
64860,note_on,0,0,3,,,,,,,,,2,,,60,36
64860,note_on,0,0,3,,,,,,,,,2,,,57,36
64860,note_on,0,0,3,,,,,,,,,2,,,57,0
64860,note_on,0,0,3,,,,,,,,,2,,,60,0
64860,note_on,60,0,3,,,,,,,,,2,,,65,0
64920,note_on,0,0,3,,,,,,,,,2,,,65,36
64920,note_on,120,0,1,,,,,,,,,0,,,75,0
64920,note_on,0,0,1,,,,,,,,,0,,,74,49
64920,note_on,0,0,3,,,,,,,,,2,,,62,36
64920,note_on,60,0,3,,,,,,,,,2,,,65,0
64920,note_on,0,0,3,,,,,,,,,2,,,60,0
64920,note_on,0,0,3,,,,,,,,,2,,,57,0
64920,note_on,0,0,3,,,,,,,,,2,,,57,36
64980,note_on,0,0,3,,,,,,,,,2,,,57,0
64980,note_on,60,0,1,,,,,,,,,0,,,74,0
64980,note_on,0,0,3,,,,,,,,,2,,,65,36
64980,note_on,0,0,3,,,,,,,,,2,,,63,36
64980,note_on,0,0,3,,,,,,,,,2,,,57,36
64980,control_change,0,0,3,,,,,,,,,2,64,0,,
64980,note_on,0,0,3,,,,,,,,,2,,,62,0
64980,note_on,60,0,3,,,,,,,,,2,,,65,0
64980,control_change,0,0,1,,,,,,,,,0,64,0,,
64980,note_on,0,0,1,,,,,,,,,0,,,72,49
65040,control_change,0,0,3,,,,,,,,,2,64,127,,
65040,note_on,60,0,1,,,,,,,,,0,,,72,0
65040,control_change,0,0,1,,,,,,,,,0,64,127,,
65040,note_on,360,0,2,,,,,,,,,1,,,77,0
65040,note_on,0,0,2,,,,,,,,,1,,,78,62
65040,note_on,0,0,3,,,,,,,,,2,,,57,36
65040,note_on,0,0,3,,,,,,,,,2,,,66,36
65040,note_on,60,0,3,,,,,,,,,2,,,65,0
65040,note_on,0,0,3,,,,,,,,,2,,,63,0
65040,note_on,0,0,3,,,,,,,,,2,,,57,0
65040,note_on,0,0,1,,,,,,,,,0,,,72,49
65040,note_on,0,0,3,,,,,,,,,2,,,60,36
65100,note_on,0,0,3,,,,,,,,,2,,,57,36
65100,note_on,0,0,3,,,,,,,,,2,,,60,0
65100,note_on,0,0,3,,,,,,,,,2,,,57,0
65100,note_on,0,0,3,,,,,,,,,2,,,66,36
65100,note_on,60,0,3,,,,,,,,,2,,,66,0
65100,note_on,0,0,3,,,,,,,,,2,,,60,36
65160,note_on,0,0,3,,,,,,,,,2,,,57,0
65160,note_on,0,0,3,,,,,,,,,2,,,60,0
65160,note_on,0,0,1,,,,,,,,,0,,,75,49
65160,note_on,120,0,1,,,,,,,,,0,,,72,0
65160,note_on,0,0,3,,,,,,,,,2,,,57,36
65160,note_on,0,0,3,,,,,,,,,2,,,60,36
65160,note_on,0,0,3,,,,,,,,,2,,,66,36
65160,note_on,60,0,3,,,,,,,,,2,,,66,0
65220,note_on,0,0,3,,,,,,,,,2,,,66,36
65220,note_on,0,0,3,,,,,,,,,2,,,60,36
65220,note_on,0,0,3,,,,,,,,,2,,,57,36
65220,note_on,0,0,3,,,,,,,,,2,,,60,0
65220,note_on,60,0,3,,,,,,,,,2,,,66,0
65220,note_on,0,0,3,,,,,,,,,2,,,57,0
65280,note_on,0,0,3,,,,,,,,,2,,,62,49
65280,note_on,0,0,3,,,,,,,,,2,,,57,49
65280,note_on,0,0,3,,,,,,,,,2,,,66,49
65280,note_on,0,0,3,,,,,,,,,2,,,60,0
65280,note_on,120,0,1,,,,,,,,,0,,,75,0
65280,note_on,0,0,1,,,,,,,,,0,,,74,62
65280,note_on,0,0,3,,,,,,,,,2,,,57,0
65280,note_on,60,0,3,,,,,,,,,2,,,66,0
65340,note_on,60,0,3,,,,,,,,,2,,,66,0
65340,note_on,0,0,3,,,,,,,,,2,,,62,0
65340,note_on,0,0,3,,,,,,,,,2,,,57,0
65340,note_on,0,0,3,,,,,,,,,2,,,57,49
65340,note_on,0,0,3,,,,,,,,,2,,,63,49
65340,note_on,0,0,3,,,,,,,,,2,,,66,49
65340,control_change,0,0,3,,,,,,,,,2,64,0,,
65340,note_on,60,0,1,,,,,,,,,0,,,74,0
65340,control_change,0,0,1,,,,,,,,,0,64,0,,
65340,note_on,0,0,1,,,,,,,,,0,,,72,62
65400,note_on,0,0,3,,,,,,,,,2,,,57,0
65400,control_change,0,0,3,,,,,,,,,2,64,127,,
65400,note_on,0,0,3,,,,,,,,,2,,,58,49
65400,note_on,0,0,3,,,,,,,,,2,,,63,49
65400,note_on,0,0,3,,,,,,,,,2,,,67,49
65400,note_on,0,0,3,,,,,,,,,2,,,63,0
65400,note_on,360,0,2,,,,,,,,,1,,,78,0
65400,note_on,60,0,3,,,,,,,,,2,,,66,0
65400,note_on,0,0,2,,,,,,,,,1,,,75,36
65400,note_on,0,0,1,,,,,,,,,0,,,79,88
65400,control_change,0,0,1,,,,,,,,,0,64,127,,
65400,note_on,60,0,1,,,,,,,,,0,,,72,0
65400,note_on,0,0,2,,,,,,,,,1,,,70,36
65460,note_on,0,0,3,,,,,,,,,2,,,58,49
65460,note_on,0,0,3,,,,,,,,,2,,,58,0
65460,note_on,0,0,3,,,,,,,,,2,,,63,0
65460,note_on,60,0,3,,,,,,,,,2,,,67,0
65460,note_on,0,0,3,,,,,,,,,2,,,67,49
65460,note_on,0,0,3,,,,,,,,,2,,,63,49
65520,note_on,60,0,3,,,,,,,,,2,,,67,0
65520,note_on,0,0,3,,,,,,,,,2,,,58,0
65520,note_on,0,0,3,,,,,,,,,2,,,63,49
65520,note_on,0,0,3,,,,,,,,,2,,,67,49
65520,note_on,0,0,3,,,,,,,,,2,,,63,0
65520,note_on,0,0,1,,,,,,,,,0,,,79,62
65520,note_on,120,0,1,,,,,,,,,0,,,79,0
65520,note_on,0,0,3,,,,,,,,,2,,,58,49
65580,note_on,0,0,3,,,,,,,,,2,,,63,0
65580,note_on,0,0,3,,,,,,,,,2,,,58,0
65580,note_on,0,0,3,,,,,,,,,2,,,58,49
65580,note_on,0,0,3,,,,,,,,,2,,,63,49
65580,note_on,60,0,3,,,,,,,,,2,,,67,0
65640,note_on,60,0,3,,,,,,,,,2,,,63,0
65640,note_on,0,0,3,,,,,,,,,2,,,58,0
65640,note_on,0,0,3,,,,,,,,,2,,,58,62
65640,note_on,0,0,3,,,,,,,,,2,,,65,62
65640,note_on,0,0,1,,,,,,,,,0,,,77,75
65640,note_on,120,0,1,,,,,,,,,0,,,79,0
65700,note_on,0,0,3,,,,,,,,,2,,,67,62
65700,note_on,0,0,3,,,,,,,,,2,,,58,62
65700,control_change,0,0,3,,,,,,,,,2,64,0,,
65700,note_on,0,0,3,,,,,,,,,2,,,58,0
65700,note_on,60,0,3,,,,,,,,,2,,,65,0
65700,control_change,0,0,1,,,,,,,,,0,64,0,,
65700,note_on,60,0,1,,,,,,,,,0,,,77,0
65700,note_on,0,0,1,,,,,,,,,0,,,75,75
65760,note_on,0,0,3,,,,,,,,,2,,,62,75
65760,note_on,0,0,3,,,,,,,,,2,,,58,75
65760,note_on,0,0,3,,,,,,,,,2,,,68,75
65760,note_on,0,0,2,,,,,,,,,1,,,74,75
65760,note_on,0,0,2,,,,,,,,,1,,,70,75
65760,note_on,0,0,2,,,,,,,,,1,,,70,0
65760,note_on,360,0,2,,,,,,,,,1,,,75,0
65760,control_change,0,0,3,,,,,,,,,2,64,127,,
65760,note_on,0,0,3,,,,,,,,,2,,,58,0
65760,note_on,60,0,1,,,,,,,,,0,,,75,0
65760,control_change,0,0,1,,,,,,,,,0,64,127,,
65760,note_on,0,0,1,,,,,,,,,0,,,77,88
65760,note_on,0,0,1,,,,,,,,,0,,,80,88
65760,note_on,60,0,3,,,,,,,,,2,,,67,0
65820,note_on,60,0,3,,,,,,,,,2,,,68,0
65820,note_on,0,0,3,,,,,,,,,2,,,62,0
65820,note_on,0,0,3,,,,,,,,,2,,,58,0
65820,note_on,0,0,3,,,,,,,,,2,,,58,75
65820,note_on,0,0,3,,,,,,,,,2,,,62,75
65820,note_on,0,0,3,,,,,,,,,2,,,68,75
65880,note_on,120,0,2,,,,,,,,,1,,,74,0
65880,note_on,0,0,2,,,,,,,,,1,,,70,0
65880,note_on,0,0,2,,,,,,,,,1,,,70,75
65880,note_on,0,0,2,,,,,,,,,1,,,74,75
65880,note_on,0,0,1,,,,,,,,,0,,,80,88
65880,note_on,0,0,3,,,,,,,,,2,,,58,0
65880,note_on,0,0,3,,,,,,,,,2,,,68,75
65880,note_on,0,0,1,,,,,,,,,0,,,77,88
65880,note_on,0,0,1,,,,,,,,,0,,,77,0
65880,note_on,120,0,1,,,,,,,,,0,,,80,0
65880,note_on,60,0,3,,,,,,,,,2,,,68,0
65880,note_on,0,0,3,,,,,,,,,2,,,62,0
65880,note_on,0,0,3,,,,,,,,,2,,,58,75
65880,note_on,0,0,3,,,,,,,,,2,,,62,75
65940,note_on,0,0,3,,,,,,,,,2,,,62,0
65940,note_on,60,0,3,,,,,,,,,2,,,68,0
65940,note_on,0,0,3,,,,,,,,,2,,,58,0
65940,note_on,0,0,3,,,,,,,,,2,,,68,75
65940,note_on,0,0,3,,,,,,,,,2,,,62,75
65940,note_on,0,0,3,,,,,,,,,2,,,58,75
66000,note_on,0,0,3,,,,,,,,,2,,,68,75
66000,note_on,0,0,3,,,,,,,,,2,,,64,75
66000,note_on,0,0,3,,,,,,,,,2,,,58,75
66000,note_on,0,0,3,,,,,,,,,2,,,58,0
66000,note_on,120,0,1,,,,,,,,,0,,,80,0
66000,note_on,0,0,3,,,,,,,,,2,,,62,0
66000,note_on,60,0,3,,,,,,,,,2,,,68,0
66000,note_on,0,0,1,,,,,,,,,0,,,76,88
66000,note_on,0,0,1,,,,,,,,,0,,,77,0
66060,note_on,0,0,1,,,,,,,,,0,,,74,88
66060,control_change,0,0,1,,,,,,,,,0,64,0,,
66060,note_on,60,0,1,,,,,,,,,0,,,76,0
66060,note_on,60,0,3,,,,,,,,,2,,,68,0
66060,note_on,0,0,3,,,,,,,,,2,,,64,0
66060,note_on,0,0,3,,,,,,,,,2,,,58,0
66060,note_on,0,0,3,,,,,,,,,2,,,58,75
66060,note_on,0,0,3,,,,,,,,,2,,,65,75
66060,note_on,0,0,3,,,,,,,,,2,,,68,75
66120,note_on,0,0,2,,,,,,,,,1,,,70,0
66120,note_on,0,0,1,,,,,,,,,0,,,77,88
66120,note_on,0,0,1,,,,,,,,,0,,,70,88
66120,note_on,60,0,1,,,,,,,,,0,,,74,0
66120,note_on,0,0,3,,,,,,,,,2,,,68,75
66120,note_on,240,0,2,,,,,,,,,1,,,74,0
66120,note_on,0,0,3,,,,,,,,,2,,,58,0
66120,note_on,0,0,3,,,,,,,,,2,,,58,75
66120,note_on,0,0,1,,,,,,,,,0,,,80,88
66120,note_on,0,0,3,,,,,,,,,2,,,65,0
66120,note_on,60,0,3,,,,,,,,,2,,,68,0
66120,note_on,0,0,3,,,,,,,,,2,,,62,75
66126,note_on,0,0,1,,,,,,,,,0,,,70,0
66126,note_on,0,0,1,,,,,,,,,0,,,77,0
66126,note_on,0,0,3,,,,,,,,,2,,,58,0
66126,note_on,6,0,3,,,,,,,,,2,,,68,0
66126,note_on,0,0,3,,,,,,,,,2,,,62,0
66126,note_on,6,0,1,,,,,,,,,0,,,80,0
66180,note_on,0,0,3,,,,,,,,,2,,,64,75
66180,note_on,54,0,1,,,,,,,,,0,,,70,88
66180,note_on,0,0,1,,,,,,,,,0,,,76,88
66180,note_on,54,0,3,,,,,,,,,2,,,58,75
66180,note_on,0,0,3,,,,,,,,,2,,,68,75
66180,note_on,0,0,1,,,,,,,,,0,,,80,88
66186,note_on,0,0,1,,,,,,,,,0,,,70,0
66186,note_on,0,0,1,,,,,,,,,0,,,76,0
66186,note_on,6,0,3,,,,,,,,,2,,,68,0
66186,note_on,0,0,3,,,,,,,,,2,,,64,0
66186,note_on,0,0,3,,,,,,,,,2,,,58,0
66186,note_on,6,0,1,,,,,,,,,0,,,80,0
66240,note_on,0,0,3,,,,,,,,,2,,,65,75
66240,note_on,0,0,3,,,,,,,,,2,,,68,75
66240,note_on,54,0,1,,,,,,,,,0,,,70,88
66240,note_on,0,0,1,,,,,,,,,0,,,74,88
66240,note_on,0,0,1,,,,,,,,,0,,,80,88
66240,note_on,54,0,3,,,,,,,,,2,,,58,75
66246,note_on,6,0,3,,,,,,,,,2,,,68,0
66246,note_on,0,0,3,,,,,,,,,2,,,65,0
66246,note_on,0,0,3,,,,,,,,,2,,,58,0
66246,note_on,6,0,1,,,,,,,,,0,,,80,0
66246,note_on,0,0,1,,,,,,,,,0,,,74,0
66246,note_on,0,0,1,,,,,,,,,0,,,70,0
66300,note_on,0,0,1,,,,,,,,,0,,,77,88
66300,note_on,0,0,3,,,,,,,,,2,,,68,75
66300,note_on,0,0,3,,,,,,,,,2,,,62,75
66300,note_on,54,0,3,,,,,,,,,2,,,58,75
66300,note_on,54,0,1,,,,,,,,,0,,,70,88
66300,note_on,0,0,1,,,,,,,,,0,,,80,88
66306,note_on,0,0,3,,,,,,,,,2,,,58,0
66306,note_on,0,0,3,,,,,,,,,2,,,62,0
66306,note_on,6,0,3,,,,,,,,,2,,,68,0
66306,note_on,6,0,1,,,,,,,,,0,,,80,0
66306,note_on,0,0,1,,,,,,,,,0,,,70,0
66306,note_on,0,0,1,,,,,,,,,0,,,77,0
66360,note_on,0,0,3,,,,,,,,,2,,,68,75
66360,note_on,0,0,1,,,,,,,,,0,,,76,88
66360,note_on,54,0,3,,,,,,,,,2,,,58,75
66360,note_on,54,0,1,,,,,,,,,0,,,70,88
66360,note_on,0,0,1,,,,,,,,,0,,,80,88
66360,note_on,0,0,3,,,,,,,,,2,,,64,75
66366,note_on,6,0,3,,,,,,,,,2,,,68,0
66366,note_on,6,0,1,,,,,,,,,0,,,80,0
66366,note_on,0,0,1,,,,,,,,,0,,,76,0
66366,note_on,0,0,1,,,,,,,,,0,,,70,0
66366,note_on,0,0,3,,,,,,,,,2,,,64,0
66366,note_on,0,0,3,,,,,,,,,2,,,58,0
66420,note_on,0,0,1,,,,,,,,,0,,,80,88
66420,note_on,0,0,1,,,,,,,,,0,,,74,88
66420,note_on,54,0,3,,,,,,,,,2,,,58,75
66420,note_on,0,0,3,,,,,,,,,2,,,65,75
66420,note_on,54,0,1,,,,,,,,,0,,,70,88
66420,note_on,0,0,3,,,,,,,,,2,,,68,75
66426,note_on,6,0,1,,,,,,,,,0,,,80,0
66426,note_on,6,0,3,,,,,,,,,2,,,68,0
66426,note_on,0,0,3,,,,,,,,,2,,,65,0
66426,note_on,0,0,3,,,,,,,,,2,,,58,0
66426,note_on,0,0,1,,,,,,,,,0,,,70,0
66426,note_on,0,0,1,,,,,,,,,0,,,74,0
66480,note_on,0,0,3,,,,,,,,,2,,,65,88
66480,note_on,0,0,3,,,,,,,,,2,,,62,88
66480,note_on,0,0,3,,,,,,,,,2,,,69,88
66480,note_on,54,0,3,,,,,,,,,2,,,57,88
66480,note_on,0,0,1,,,,,,,,,0,,,74,101
66480,note_on,0,0,1,,,,,,,,,0,,,77,101
66480,control_change,54,0,1,,,,,,,,,0,64,127,,
66480,note_on,0,0,1,,,,,,,,,0,,,81,101
66600,note_on,120,0,1,,,,,,,,,0,,,81,0
66600,note_on,0,0,3,,,,,,,,,2,,,57,0
66600,note_on,0,0,1,,,,,,,,,0,,,77,0
66600,note_on,0,0,3,,,,,,,,,2,,,65,0
66600,note_on,0,0,1,,,,,,,,,0,,,74,0
66600,note_on,0,0,1,,,,,,,,,0,,,77,101
66600,note_on,120,0,3,,,,,,,,,2,,,69,0
66600,note_on,0,0,3,,,,,,,,,2,,,62,0
66620,note_on,0,0,1,,,,,,,,,0,,,81,101
66620,note_on,20,0,1,,,,,,,,,0,,,77,0
66639,note_on,19,0,1,,,,,,,,,0,,,86,101
66640,note_on,1,0,1,,,,,,,,,0,,,81,0
66659,note_on,19,0,1,,,,,,,,,0,,,86,0
66660,note_on,1,0,1,,,,,,,,,0,,,89,127
66780,note_on,120,0,1,,,,,,,,,0,,,89,0
66840,note_on,60,0,1,,,,,,,,,0,,,86,101
66840,time_signature,9000,1,0,2,8,12,8,,,,,,,,,
66860,note_on,20,0,1,,,,,,,,,0,,,86,0
66860,note_on,0,0,1,,,,,,,,,0,,,81,101
66879,note_on,19,0,1,,,,,,,,,0,,,77,101
66880,note_on,1,0,1,,,,,,,,,0,,,81,0
66899,note_on,19,0,1,,,,,,,,,0,,,77,0
66900,note_on,1,0,1,,,,,,,,,0,,,74,101
66915,note_on,0,0,1,,,,,,,,,0,,,69,101
66915,note_on,15,0,1,,,,,,,,,0,,,74,0
66930,note_on,0,0,1,,,,,,,,,0,,,65,101
66930,note_on,15,0,1,,,,,,,,,0,,,69,0
66945,note_on,0,0,1,,,,,,,,,0,,,62,101
66945,note_on,15,0,1,,,,,,,,,0,,,65,0
66945,control_change,0,0,1,,,,,,,,,0,64,0,,
66960,note_on,0,0,3,,,,,,,,,2,,,45,88
66960,note_on,0,0,1,,,,,,,,,0,,,57,101
66960,time_signature,120,1,0,6,8,12,8,,,,,,,,,
66960,note_on,15,0,1,,,,,,,,,0,,,62,0
66960,note_on,0,0,3,,,,,,,,,2,,,33,88
66960,control_change,360,0,3,,,,,,,,,2,64,127,,
66960,control_change,0,0,1,,,,,,,,,0,64,127,,
67080,note_on,120,0,1,,,,,,,,,0,,,57,0
67080,note_on,120,0,3,,,,,,,,,2,,,45,0
67080,note_on,0,0,3,,,,,,,,,2,,,33,0
67140,note_on,0,0,3,,,,,,,,,2,,,57,88
67140,note_on,0,0,3,,,,,,,,,2,,,45,88
67140,control_change,60,0,3,,,,,,,,,2,64,0,,
67140,note_on,0,0,1,,,,,,,,,0,,,76,101
67140,control_change,60,0,1,,,,,,,,,0,64,0,,
67140,note_on,0,0,1,,,,,,,,,0,,,69,101
67140,note_on,0,0,1,,,,,,,,,0,,,81,101
67140,note_on,0,0,1,,,,,,,,,0,,,73,101
67260,note_on,120,0,1,,,,,,,,,0,,,81,0
67260,note_on,0,0,1,,,,,,,,,0,,,69,0
67260,note_on,0,0,1,,,,,,,,,0,,,73,0
67260,note_on,0,0,1,,,,,,,,,0,,,76,0
67260,note_on,0,0,3,,,,,,,,,2,,,45,0
67260,note_on,120,0,3,,,,,,,,,2,,,57,0
67620,note_on,0,0,3,,,,,,,,,2,,,50,88
67620,note_on,360,0,1,,,,,,,,,0,,,69,101
67620,note_on,0,0,1,,,,,,,,,0,,,77,101
67620,note_on,0,0,1,,,,,,,,,0,,,81,101
67620,note_on,360,0,3,,,,,,,,,2,,,38,88
67626,note_on,6,0,1,,,,,,,,,0,,,81,0
67626,note_on,0,0,1,,,,,,,,,0,,,69,0
67626,note_on,0,0,1,,,,,,,,,0,,,77,0
67680,note_on,0,0,1,,,,,,,,,0,,,69,101
67680,control_change,54,0,1,,,,,,,,,0,64,127,,
67680,note_on,0,0,1,,,,,,,,,0,,,81,101
67680,note_on,0,0,1,,,,,,,,,0,,,77,101
67680,note_on,0,0,3,,,,,,,,,2,,,38,0
67680,note_on,0,0,3,,,,,,,,,2,,,38,88
67680,note_on,0,0,3,,,,,,,,,2,,,50,88
67680,note_on,60,0,3,,,,,,,,,2,,,50,0
67770,note_on,0,0,1,,,,,,,,,0,,,79,101
67770,note_on,0,0,1,,,,,,,,,0,,,76,101
67770,note_on,90,0,1,,,,,,,,,0,,,81,0
67770,note_on,0,0,1,,,,,,,,,0,,,69,0
67770,note_on,0,0,1,,,,,,,,,0,,,77,0
67770,note_on,0,0,1,,,,,,,,,0,,,67,101
67800,note_on,0,0,3,,,,,,,,,2,,,38,0
67800,note_on,0,0,1,,,,,,,,,0,,,77,101
67800,note_on,0,0,1,,,,,,,,,0,,,74,101
67800,control_change,0,0,1,,,,,,,,,0,64,0,,
67800,note_on,120,0,3,,,,,,,,,2,,,50,0
67800,note_on,0,0,1,,,,,,,,,0,,,76,0
67800,note_on,30,0,1,,,,,,,,,0,,,79,0
67800,note_on,0,0,1,,,,,,,,,0,,,65,101
67800,note_on,0,0,1,,,,,,,,,0,,,67,0
67860,note_on,60,0,1,,,,,,,,,0,,,77,0
67860,note_on,60,0,3,,,,,,,,,2,,,50,88
67860,note_on,0,0,3,,,,,,,,,2,,,62,88
67860,note_on,0,0,1,,,,,,,,,0,,,74,0
67860,note_on,0,0,1,,,,,,,,,0,,,65,0
67860,control_change,0,0,1,,,,,,,,,0,64,127,,
67860,note_on,0,0,1,,,,,,,,,0,,,77,101
67860,note_on,0,0,1,,,,,,,,,0,,,69,101
67860,note_on,0,0,1,,,,,,,,,0,,,65,101
67950,note_on,0,0,1,,,,,,,,,0,,,67,101
67950,note_on,0,0,1,,,,,,,,,0,,,64,101
67950,note_on,0,0,1,,,,,,,,,0,,,65,0
67950,note_on,0,0,1,,,,,,,,,0,,,69,0
67950,note_on,90,0,1,,,,,,,,,0,,,77,0
67950,note_on,0,0,1,,,,,,,,,0,,,76,101
67980,note_on,120,0,3,,,,,,,,,2,,,62,0
67980,note_on,0,0,1,,,,,,,,,0,,,67,0
67980,note_on,0,0,1,,,,,,,,,0,,,64,0
67980,note_on,0,0,1,,,,,,,,,0,,,62,101
67980,note_on,0,0,1,,,,,,,,,0,,,65,101
67980,note_on,0,0,1,,,,,,,,,0,,,74,101
67980,control_change,0,0,1,,,,,,,,,0,64,0,,
67980,note_on,30,0,1,,,,,,,,,0,,,76,0
67980,note_on,0,0,3,,,,,,,,,2,,,50,0
68040,control_change,60,0,3,,,,,,,,,2,64,127,,
68040,note_on,0,0,3,,,,,,,,,2,,,57,62
68040,note_on,0,0,3,,,,,,,,,2,,,61,62
68040,note_on,60,0,1,,,,,,,,,0,,,74,0
68040,note_on,0,0,1,,,,,,,,,0,,,65,0
68040,note_on,0,0,1,,,,,,,,,0,,,62,0
68040,note_on,0,0,1,,,,,,,,,0,,,69,75
68040,note_on,0,0,1,,,,,,,,,0,,,73,75
68040,control_change,0,0,1,,,,,,,,,0,64,127,,
68160,note_on,120,0,3,,,,,,,,,2,,,61,0
68160,note_on,0,0,3,,,,,,,,,2,,,57,36
68160,note_on,0,0,3,,,,,,,,,2,,,59,36
68160,note_on,0,0,3,,,,,,,,,2,,,62,36
68160,note_on,120,0,1,,,,,,,,,0,,,73,0
68160,note_on,0,0,3,,,,,,,,,2,,,57,0
68160,note_on,0,0,1,,,,,,,,,0,,,69,0
68160,note_on,0,0,1,,,,,,,,,0,,,71,49
68160,note_on,0,0,1,,,,,,,,,0,,,74,49
68166,note_on,6,0,1,,,,,,,,,0,,,74,0
68166,note_on,0,0,1,,,,,,,,,0,,,71,0
68166,note_on,0,0,3,,,,,,,,,2,,,57,0
68166,note_on,0,0,3,,,,,,,,,2,,,59,0
68166,note_on,6,0,3,,,,,,,,,2,,,62,0
68220,note_on,54,0,1,,,,,,,,,0,,,73,49
68220,note_on,0,0,1,,,,,,,,,0,,,76,49
68220,note_on,0,0,3,,,,,,,,,2,,,64,36
68220,note_on,0,0,3,,,,,,,,,2,,,61,36
68220,note_on,54,0,3,,,,,,,,,2,,,57,36
68340,note_on,0,0,3,,,,,,,,,2,,,57,0
68340,note_on,0,0,3,,,,,,,,,2,,,61,0
68340,note_on,120,0,3,,,,,,,,,2,,,64,0
68340,note_on,0,0,3,,,,,,,,,2,,,57,36
68340,note_on,0,0,3,,,,,,,,,2,,,65,36
68340,control_change,0,0,3,,,,,,,,,2,64,0,,
68340,control_change,0,0,1,,,,,,,,,0,64,0,,
68340,note_on,0,0,1,,,,,,,,,0,,,77,49
68340,note_on,0,0,1,,,,,,,,,0,,,74,49
68340,note_on,0,0,1,,,,,,,,,0,,,73,0
68340,note_on,120,0,1,,,,,,,,,0,,,76,0
68340,note_on,0,0,3,,,,,,,,,2,,,62,36
68346,note_on,0,0,3,,,,,,,,,2,,,57,0
68346,note_on,0,0,3,,,,,,,,,2,,,62,0
68346,note_on,6,0,3,,,,,,,,,2,,,65,0
68346,note_on,0,0,1,,,,,,,,,0,,,74,0
68346,note_on,6,0,1,,,,,,,,,0,,,77,0
68400,note_on,54,0,3,,,,,,,,,2,,,57,62
68400,note_on,0,0,3,,,,,,,,,2,,,64,62
68400,note_on,0,0,3,,,,,,,,,2,,,67,62
68400,note_on,0,0,1,,,,,,,,,0,,,79,75
68400,note_on,54,0,1,,,,,,,,,0,,,76,75
68520,note_on,0,0,1,,,,,,,,,0,,,77,75
68520,note_on,0,0,1,,,,,,,,,0,,,81,75
68520,note_on,0,0,3,,,,,,,,,2,,,69,62
68520,note_on,0,0,3,,,,,,,,,2,,,65,62
68520,note_on,120,0,1,,,,,,,,,0,,,79,0
68520,note_on,0,0,3,,,,,,,,,2,,,57,0
68520,note_on,0,0,1,,,,,,,,,0,,,76,0
68520,note_on,0,0,3,,,,,,,,,2,,,57,62
68520,note_on,0,0,3,,,,,,,,,2,,,64,0
68520,note_on,120,0,3,,,,,,,,,2,,,67,0
68526,note_on,0,0,1,,,,,,,,,0,,,77,0
68526,note_on,6,0,1,,,,,,,,,0,,,81,0
68526,note_on,0,0,3,,,,,,,,,2,,,65,0
68526,note_on,6,0,3,,,,,,,,,2,,,69,0
68526,note_on,0,0,3,,,,,,,,,2,,,57,0
68580,note_on,54,0,1,,,,,,,,,0,,,79,88
68580,note_on,54,0,3,,,,,,,,,2,,,57,75
68580,note_on,0,0,3,,,,,,,,,2,,,67,75
68580,note_on,0,0,3,,,,,,,,,2,,,70,75
68580,note_on,0,0,1,,,,,,,,,0,,,82,88
68760,control_change,0,0,3,,,,,,,,,2,64,127,,
68760,note_on,180,0,3,,,,,,,,,2,,,70,0
68760,note_on,0,0,3,,,,,,,,,2,,,67,0
68760,note_on,0,0,3,,,,,,,,,2,,,57,0
68760,note_on,0,0,3,,,,,,,,,2,,,57,62
68760,note_on,180,0,1,,,,,,,,,0,,,79,0
68760,control_change,0,0,1,,,,,,,,,0,64,127,,
68790,note_on,30,0,1,,,,,,,,,0,,,82,0
68790,note_on,0,0,1,,,,,,,,,0,,,88,75
68820,note_on,60,0,3,,,,,,,,,2,,,57,0
68820,note_on,0,0,3,,,,,,,,,2,,,67,62
68820,note_on,0,0,3,,,,,,,,,2,,,70,62
68820,note_on,30,0,1,,,,,,,,,0,,,88,0
68820,note_on,0,0,1,,,,,,,,,0,,,85,75
68826,note_on,0,0,3,,,,,,,,,2,,,67,0
68826,note_on,6,0,3,,,,,,,,,2,,,70,0
68850,note_on,0,0,1,,,,,,,,,0,,,91,75
68850,note_on,30,0,1,,,,,,,,,0,,,85,0
68880,note_on,0,0,3,,,,,,,,,2,,,70,62
68880,note_on,54,0,3,,,,,,,,,2,,,67,62
68880,note_on,0,0,1,,,,,,,,,0,,,88,75
68880,note_on,30,0,1,,,,,,,,,0,,,91,0
68886,note_on,6,0,3,,,,,,,,,2,,,70,0
68886,note_on,0,0,3,,,,,,,,,2,,,67,0
68910,note_on,0,0,1,,,,,,,,,0,,,94,75
68910,note_on,30,0,1,,,,,,,,,0,,,88,0
68940,note_on,30,0,1,,,,,,,,,0,,,94,0
68940,note_on,54,0,3,,,,,,,,,2,,,57,62
68940,note_on,0,0,1,,,,,,,,,0,,,91,75
68970,note_on,30,0,1,,,,,,,,,0,,,91,0
68970,note_on,0,0,1,,,,,,,,,0,,,88,75
69000,note_on,0,0,3,,,,,,,,,2,,,67,62
69000,note_on,60,0,3,,,,,,,,,2,,,57,0
69000,note_on,30,0,1,,,,,,,,,0,,,88,0
69000,note_on,0,0,3,,,,,,,,,2,,,70,62
69000,note_on,0,0,1,,,,,,,,,0,,,85,75
69006,note_on,6,0,3,,,,,,,,,2,,,70,0
69006,note_on,0,0,3,,,,,,,,,2,,,67,0
69030,note_on,30,0,1,,,,,,,,,0,,,85,0
69030,note_on,0,0,1,,,,,,,,,0,,,82,75
69060,note_on,30,0,1,,,,,,,,,0,,,82,0
69060,note_on,0,0,3,,,,,,,,,2,,,70,62
69060,note_on,54,0,3,,,,,,,,,2,,,67,62
69060,note_on,0,0,1,,,,,,,,,0,,,88,75
69066,note_on,0,0,3,,,,,,,,,2,,,67,0
69066,note_on,6,0,3,,,,,,,,,2,,,70,0
69090,note_on,30,0,1,,,,,,,,,0,,,88,0
69090,note_on,0,0,1,,,,,,,,,0,,,85,75
69120,note_on,0,0,1,,,,,,,,,0,,,82,75
69120,note_on,30,0,1,,,,,,,,,0,,,85,0
69120,note_on,54,0,3,,,,,,,,,2,,,57,62
69150,note_on,30,0,1,,,,,,,,,0,,,82,0
69150,note_on,0,0,1,,,,,,,,,0,,,79,75
69180,note_on,60,0,3,,,,,,,,,2,,,57,0
69180,note_on,0,0,3,,,,,,,,,2,,,70,62
69180,note_on,0,0,3,,,,,,,,,2,,,67,62
69180,note_on,30,0,1,,,,,,,,,0,,,79,0
69180,note_on,0,0,1,,,,,,,,,0,,,85,75
69186,note_on,0,0,3,,,,,,,,,2,,,67,0
69186,note_on,6,0,3,,,,,,,,,2,,,70,0
69210,note_on,30,0,1,,,,,,,,,0,,,85,0
69210,note_on,0,0,1,,,,,,,,,0,,,82,75
69240,note_on,54,0,3,,,,,,,,,2,,,67,62
69240,note_on,0,0,1,,,,,,,,,0,,,79,75
69240,note_on,30,0,1,,,,,,,,,0,,,82,0
69240,note_on,0,0,3,,,,,,,,,2,,,70,62
69246,note_on,6,0,3,,,,,,,,,2,,,70,0
69246,note_on,0,0,3,,,,,,,,,2,,,67,0
69270,note_on,0,0,1,,,,,,,,,0,,,76,75
69270,note_on,30,0,1,,,,,,,,,0,,,79,0
69300,note_on,0,0,1,,,,,,,,,0,,,82,75
69300,note_on,30,0,1,,,,,,,,,0,,,76,0
69300,note_on,54,0,3,,,,,,,,,2,,,57,62
69330,note_on,0,0,1,,,,,,,,,0,,,79,75
69330,note_on,30,0,1,,,,,,,,,0,,,82,0
69360,note_on,0,0,3,,,,,,,,,2,,,69,62
69360,note_on,0,0,3,,,,,,,,,2,,,67,62
69360,control_change,0,0,3,,,,,,,,,2,64,0,,
69360,control_change,0,0,1,,,,,,,,,0,64,0,,
69360,note_on,30,0,1,,,,,,,,,0,,,79,0
69360,note_on,0,0,1,,,,,,,,,0,,,76,75
69360,note_on,60,0,3,,,,,,,,,2,,,57,0
69366,note_on,6,0,3,,,,,,,,,2,,,69,0
69366,note_on,0,0,3,,,,,,,,,2,,,67,0
69390,note_on,30,0,1,,,,,,,,,0,,,76,0
69390,note_on,0,0,1,,,,,,,,,0,,,73,75
69420,note_on,0,0,1,,,,,,,,,0,,,77,101
69420,note_on,0,0,3,,,,,,,,,2,,,50,88
69420,note_on,54,0,3,,,,,,,,,2,,,38,88
69420,note_on,30,0,1,,,,,,,,,0,,,73,0
69420,note_on,0,0,1,,,,,,,,,0,,,69,101
69420,note_on,0,0,1,,,,,,,,,0,,,81,101
69426,note_on,6,0,3,,,,,,,,,2,,,50,0
69426,note_on,0,0,3,,,,,,,,,2,,,38,0
69426,note_on,6,0,1,,,,,,,,,0,,,81,0
69426,note_on,0,0,1,,,,,,,,,0,,,77,0
69426,note_on,0,0,1,,,,,,,,,0,,,69,0
69480,control_change,54,0,1,,,,,,,,,0,64,127,,
69480,note_on,0,0,1,,,,,,,,,0,,,77,101
69480,note_on,0,0,1,,,,,,,,,0,,,81,101
69480,note_on,0,0,1,,,,,,,,,0,,,69,101
69480,note_on,0,0,3,,,,,,,,,2,,,50,88
69480,note_on,54,0,3,,,,,,,,,2,,,38,88
69570,note_on,90,0,1,,,,,,,,,0,,,81,0
69570,note_on,0,0,1,,,,,,,,,0,,,69,0
69570,note_on,0,0,1,,,,,,,,,0,,,67,101
69570,note_on,0,0,1,,,,,,,,,0,,,79,101
69570,note_on,0,0,1,,,,,,,,,0,,,77,0
69570,note_on,0,0,1,,,,,,,,,0,,,76,101
69600,note_on,0,0,3,,,,,,,,,2,,,38,0
69600,note_on,120,0,3,,,,,,,,,2,,,50,0
69600,note_on,0,0,1,,,,,,,,,0,,,67,0
69600,note_on,30,0,1,,,,,,,,,0,,,79,0
69600,control_change,0,0,1,,,,,,,,,0,64,0,,
69600,note_on,0,0,1,,,,,,,,,0,,,77,101
69600,note_on,0,0,1,,,,,,,,,0,,,65,101
69600,note_on,0,0,1,,,,,,,,,0,,,76,0
69600,note_on,0,0,1,,,,,,,,,0,,,74,101
69660,note_on,0,0,1,,,,,,,,,0,,,77,101
69660,note_on,0,0,1,,,,,,,,,0,,,69,101
69660,note_on,0,0,1,,,,,,,,,0,,,65,101
69660,note_on,0,0,1,,,,,,,,,0,,,65,0
69660,note_on,0,0,1,,,,,,,,,0,,,74,0
69660,note_on,60,0,1,,,,,,,,,0,,,77,0
69660,control_change,0,0,1,,,,,,,,,0,64,127,,
69660,note_on,0,0,3,,,,,,,,,2,,,62,88
69660,note_on,60,0,3,,,,,,,,,2,,,50,88
69750,note_on,0,0,1,,,,,,,,,0,,,65,0
69750,note_on,0,0,1,,,,,,,,,0,,,64,101
69750,note_on,0,0,1,,,,,,,,,0,,,67,101
69750,note_on,0,0,1,,,,,,,,,0,,,76,101
69750,note_on,0,0,1,,,,,,,,,0,,,69,0
69750,note_on,90,0,1,,,,,,,,,0,,,77,0
69780,note_on,0,0,1,,,,,,,,,0,,,74,101
69780,control_change,0,0,1,,,,,,,,,0,64,0,,
69780,note_on,0,0,1,,,,,,,,,0,,,65,101
69780,note_on,0,0,1,,,,,,,,,0,,,62,101
69780,note_on,0,0,1,,,,,,,,,0,,,64,0
69780,note_on,30,0,1,,,,,,,,,0,,,76,0
69780,note_on,0,0,1,,,,,,,,,0,,,67,0
69780,note_on,120,0,3,,,,,,,,,2,,,62,0
69780,note_on,0,0,3,,,,,,,,,2,,,50,0
69840,control_change,60,0,3,,,,,,,,,2,64,127,,
69840,note_on,0,0,1,,,,,,,,,0,,,69,75
69840,control_change,0,0,1,,,,,,,,,0,64,127,,
69840,note_on,0,0,3,,,,,,,,,2,,,57,62
69840,note_on,0,0,3,,,,,,,,,2,,,61,62
69840,note_on,60,0,1,,,,,,,,,0,,,74,0
69840,note_on,0,0,1,,,,,,,,,0,,,65,0
69840,note_on,0,0,1,,,,,,,,,0,,,62,0
69840,note_on,0,0,1,,,,,,,,,0,,,73,75
69960,note_on,120,0,1,,,,,,,,,0,,,73,0
69960,note_on,0,0,1,,,,,,,,,0,,,69,0
69960,note_on,120,0,3,,,,,,,,,2,,,61,0
69960,note_on,0,0,3,,,,,,,,,2,,,62,36
69960,note_on,0,0,3,,,,,,,,,2,,,59,36
69960,note_on,0,0,3,,,,,,,,,2,,,57,36
69960,note_on,0,0,3,,,,,,,,,2,,,57,0
69960,note_on,0,0,1,,,,,,,,,0,,,71,49
69960,note_on,0,0,1,,,,,,,,,0,,,74,49
69966,note_on,0,0,1,,,,,,,,,0,,,71,0
69966,note_on,6,0,3,,,,,,,,,2,,,62,0
69966,note_on,0,0,3,,,,,,,,,2,,,59,0
69966,note_on,0,0,3,,,,,,,,,2,,,57,0
69966,note_on,6,0,1,,,,,,,,,0,,,74,0
70020,note_on,54,0,1,,,,,,,,,0,,,73,49
70020,note_on,0,0,1,,,,,,,,,0,,,76,49
70020,note_on,54,0,3,,,,,,,,,2,,,57,36
70020,note_on,0,0,3,,,,,,,,,2,,,61,36
70020,note_on,0,0,3,,,,,,,,,2,,,64,36
70140,control_change,0,0,1,,,,,,,,,0,64,0,,
70140,note_on,120,0,3,,,,,,,,,2,,,64,0
70140,note_on,0,0,3,,,,,,,,,2,,,61,0
70140,control_change,0,0,3,,,,,,,,,2,64,0,,
70140,note_on,0,0,3,,,,,,,,,2,,,57,36
70140,note_on,0,0,3,,,,,,,,,2,,,62,36
70140,note_on,0,0,3,,,,,,,,,2,,,65,36
70140,note_on,0,0,1,,,,,,,,,0,,,77,49
70140,note_on,0,0,1,,,,,,,,,0,,,74,49
70140,note_on,120,0,1,,,,,,,,,0,,,76,0
70140,note_on,0,0,3,,,,,,,,,2,,,57,0
70140,note_on,0,0,1,,,,,,,,,0,,,73,0
70146,note_on,0,0,1,,,,,,,,,0,,,74,0
70146,note_on,6,0,1,,,,,,,,,0,,,77,0
70146,note_on,6,0,3,,,,,,,,,2,,,65,0
70146,note_on,0,0,3,,,,,,,,,2,,,62,0
70146,note_on,0,0,3,,,,,,,,,2,,,57,0
70200,note_on,0,0,1,,,,,,,,,0,,,79,75
70200,note_on,54,0,3,,,,,,,,,2,,,57,62
70200,note_on,0,0,3,,,,,,,,,2,,,64,62
70200,note_on,54,0,1,,,,,,,,,0,,,76,75
70200,note_on,0,0,3,,,,,,,,,2,,,67,62
70320,note_on,0,0,3,,,,,,,,,2,,,57,62
70320,note_on,0,0,3,,,,,,,,,2,,,57,0
70320,note_on,0,0,3,,,,,,,,,2,,,64,0
70320,note_on,120,0,3,,,,,,,,,2,,,67,0
70320,note_on,120,0,1,,,,,,,,,0,,,79,0
70320,note_on,0,0,1,,,,,,,,,0,,,76,0
70320,note_on,0,0,1,,,,,,,,,0,,,77,75
70320,note_on,0,0,1,,,,,,,,,0,,,81,75
70320,note_on,0,0,3,,,,,,,,,2,,,65,62
70320,note_on,0,0,3,,,,,,,,,2,,,69,62
70326,note_on,0,0,3,,,,,,,,,2,,,65,0
70326,note_on,0,0,3,,,,,,,,,2,,,57,0
70326,note_on,6,0,1,,,,,,,,,0,,,81,0
70326,note_on,0,0,1,,,,,,,,,0,,,77,0
70326,note_on,6,0,3,,,,,,,,,2,,,69,0
70380,note_on,54,0,3,,,,,,,,,2,,,57,75
70380,note_on,0,0,3,,,,,,,,,2,,,67,75
70380,note_on,0,0,3,,,,,,,,,2,,,70,75
70380,note_on,54,0,1,,,,,,,,,0,,,79,88
70380,note_on,0,0,1,,,,,,,,,0,,,82,88
70500,note_on,9420,0,4,,,,,,,,,3,,,59,36
70500,note_on,4380,0,2,,,,,,,,,1,,,71,36
70560,note_on,180,0,1,,,,,,,,,0,,,79,0
70560,control_change,0,0,1,,,,,,,,,0,64,127,,
70560,note_on,60,0,2,,,,,,,,,1,,,71,0
70560,note_on,0,0,3,,,,,,,,,2,,,67,0
70560,note_on,180,0,3,,,,,,,,,2,,,70,0
70560,note_on,0,0,2,,,,,,,,,1,,,72,36
70560,note_on,60,0,4,,,,,,,,,3,,,59,0
70560,note_on,0,0,3,,,,,,,,,2,,,60,62
70560,note_on,0,0,3,,,,,,,,,2,,,57,0
70560,control_change,0,0,3,,,,,,,,,2,64,127,,
70590,note_on,30,0,2,,,,,,,,,1,,,72,0
70590,note_on,0,0,1,,,,,,,,,0,,,88,75
70590,note_on,30,0,1,,,,,,,,,0,,,82,0
70620,note_on,60,0,3,,,,,,,,,2,,,60,0
70620,note_on,0,0,1,,,,,,,,,0,,,85,75
70620,note_on,30,0,1,,,,,,,,,0,,,88,0
70620,note_on,0,0,3,,,,,,,,,2,,,73,62
70620,note_on,0,0,3,,,,,,,,,2,,,70,62
70620,note_on,0,0,3,,,,,,,,,2,,,67,62
70626,note_on,0,0,3,,,,,,,,,2,,,70,0
70626,note_on,6,0,3,,,,,,,,,2,,,73,0
70626,note_on,0,0,3,,,,,,,,,2,,,67,0
70650,note_on,30,0,1,,,,,,,,,0,,,85,0
70650,note_on,0,0,1,,,,,,,,,0,,,91,75
70680,note_on,0,0,3,,,,,,,,,2,,,70,62
70680,note_on,54,0,3,,,,,,,,,2,,,67,62
70680,note_on,0,0,3,,,,,,,,,2,,,73,62
70680,note_on,0,0,1,,,,,,,,,0,,,88,75
70680,note_on,30,0,1,,,,,,,,,0,,,91,0
70686,note_on,0,0,3,,,,,,,,,2,,,67,0
70686,note_on,0,0,3,,,,,,,,,2,,,70,0
70686,note_on,6,0,3,,,,,,,,,2,,,73,0
70710,note_on,30,0,1,,,,,,,,,0,,,88,0
70710,note_on,0,0,1,,,,,,,,,0,,,94,75
70740,note_on,54,0,3,,,,,,,,,2,,,60,62
70740,note_on,0,0,1,,,,,,,,,0,,,91,75
70740,note_on,30,0,1,,,,,,,,,0,,,94,0
70770,note_on,30,0,1,,,,,,,,,0,,,91,0
70770,note_on,0,0,1,,,,,,,,,0,,,88,75
70800,note_on,60,0,3,,,,,,,,,2,,,60,0
70800,note_on,0,0,3,,,,,,,,,2,,,73,62
70800,note_on,0,0,3,,,,,,,,,2,,,70,62
70800,note_on,30,0,1,,,,,,,,,0,,,88,0
70800,note_on,0,0,1,,,,,,,,,0,,,85,75
70800,note_on,0,0,3,,,,,,,,,2,,,67,62
70806,note_on,6,0,3,,,,,,,,,2,,,73,0
70806,note_on,0,0,3,,,,,,,,,2,,,70,0
70806,note_on,0,0,3,,,,,,,,,2,,,67,0
70830,note_on,30,0,1,,,,,,,,,0,,,85,0
70830,note_on,0,0,1,,,,,,,,,0,,,82,75
70860,note_on,30,0,1,,,,,,,,,0,,,82,0
70860,note_on,0,0,1,,,,,,,,,0,,,91,75
70860,note_on,0,0,3,,,,,,,,,2,,,70,62
70860,note_on,0,0,3,,,,,,,,,2,,,73,62
70860,note_on,54,0,3,,,,,,,,,2,,,67,62
70866,note_on,0,0,3,,,,,,,,,2,,,67,0
70866,note_on,6,0,3,,,,,,,,,2,,,73,0
70866,note_on,0,0,3,,,,,,,,,2,,,70,0
70890,note_on,0,0,1,,,,,,,,,0,,,88,75
70890,note_on,30,0,1,,,,,,,,,0,,,91,0
70920,note_on,30,0,1,,,,,,,,,0,,,88,0
70920,note_on,0,0,1,,,,,,,,,0,,,85,75
70920,note_on,54,0,3,,,,,,,,,2,,,60,62
70950,note_on,30,0,1,,,,,,,,,0,,,85,0
70950,note_on,0,0,1,,,,,,,,,0,,,82,75
70980,note_on,30,0,1,,,,,,,,,0,,,82,0
70980,note_on,0,0,3,,,,,,,,,2,,,73,62
70980,note_on,0,0,1,,,,,,,,,0,,,88,75
70980,note_on,60,0,3,,,,,,,,,2,,,60,0
70980,note_on,0,0,3,,,,,,,,,2,,,70,62
70980,note_on,0,0,3,,,,,,,,,2,,,67,62
70986,note_on,6,0,3,,,,,,,,,2,,,73,0
70986,note_on,0,0,3,,,,,,,,,2,,,70,0
70986,note_on,0,0,3,,,,,,,,,2,,,67,0
71010,note_on,0,0,1,,,,,,,,,0,,,85,75
71010,note_on,30,0,1,,,,,,,,,0,,,88,0
71040,note_on,54,0,3,,,,,,,,,2,,,67,62
71040,note_on,0,0,3,,,,,,,,,2,,,73,62
71040,note_on,0,0,3,,,,,,,,,2,,,70,62
71040,note_on,0,0,1,,,,,,,,,0,,,82,75
71040,note_on,30,0,1,,,,,,,,,0,,,85,0
71046,note_on,6,0,3,,,,,,,,,2,,,73,0
71046,note_on,0,0,3,,,,,,,,,2,,,70,0
71046,note_on,0,0,3,,,,,,,,,2,,,67,0
71070,note_on,0,0,1,,,,,,,,,0,,,79,75
71070,note_on,30,0,1,,,,,,,,,0,,,82,0
71100,note_on,0,0,1,,,,,,,,,0,,,85,75
71100,note_on,54,0,3,,,,,,,,,2,,,60,62
71100,note_on,30,0,1,,,,,,,,,0,,,79,0
71130,note_on,0,0,1,,,,,,,,,0,,,82,75
71130,note_on,30,0,1,,,,,,,,,0,,,85,0
71160,control_change,0,0,1,,,,,,,,,0,64,0,,
71160,note_on,30,0,1,,,,,,,,,0,,,82,0
71160,note_on,0,0,1,,,,,,,,,0,,,79,75
71160,note_on,0,0,3,,,,,,,,,2,,,70,62
71160,control_change,0,0,3,,,,,,,,,2,64,0,,
71160,note_on,0,0,3,,,,,,,,,2,,,67,62
71160,note_on,0,0,3,,,,,,,,,2,,,72,62
71160,note_on,60,0,3,,,,,,,,,2,,,60,0
71166,note_on,6,0,3,,,,,,,,,2,,,72,0
71166,note_on,0,0,3,,,,,,,,,2,,,70,0
71166,note_on,0,0,3,,,,,,,,,2,,,67,0
71190,note_on,0,0,1,,,,,,,,,0,,,76,75
71190,note_on,30,0,1,,,,,,,,,0,,,79,0
71220,note_on,0,0,1,,,,,,,,,0,,,84,101
71220,note_on,0,0,1,,,,,,,,,0,,,72,101
71220,note_on,30,0,1,,,,,,,,,0,,,76,0
71220,note_on,0,0,1,,,,,,,,,0,,,81,101
71220,note_on,0,0,3,,,,,,,,,2,,,53,88
71220,note_on,54,0,3,,,,,,,,,2,,,41,88
71226,note_on,0,0,3,,,,,,,,,2,,,41,0
71226,note_on,6,0,3,,,,,,,,,2,,,53,0
71226,note_on,6,0,1,,,,,,,,,0,,,84,0
71226,note_on,0,0,1,,,,,,,,,0,,,81,0
71226,note_on,0,0,1,,,,,,,,,0,,,72,0
71280,note_on,0,0,3,,,,,,,,,2,,,53,88
71280,note_on,0,0,1,,,,,,,,,0,,,84,101
71280,note_on,0,0,3,,,,,,,,,2,,,41,88
71280,note_on,0,0,1,,,,,,,,,0,,,72,101
71280,note_on,0,0,1,,,,,,,,,0,,,81,101
71280,control_change,54,0,3,,,,,,,,,2,64,127,,
71280,control_change,54,0,1,,,,,,,,,0,64,127,,
71370,note_on,90,0,1,,,,,,,,,0,,,84,0
71370,note_on,0,0,1,,,,,,,,,0,,,81,0
71370,note_on,0,0,1,,,,,,,,,0,,,72,0
71370,note_on,0,0,1,,,,,,,,,0,,,70,101
71370,note_on,0,0,1,,,,,,,,,0,,,79,101
71370,note_on,0,0,1,,,,,,,,,0,,,82,101
71400,note_on,0,0,1,,,,,,,,,0,,,77,101
71400,note_on,30,0,1,,,,,,,,,0,,,82,0
71400,note_on,0,0,1,,,,,,,,,0,,,79,0
71400,note_on,0,0,1,,,,,,,,,0,,,69,101
71400,note_on,0,0,1,,,,,,,,,0,,,81,101
71400,note_on,0,0,1,,,,,,,,,0,,,70,0
71400,note_on,0,0,3,,,,,,,,,2,,,63,88
71400,note_on,0,0,3,,,,,,,,,2,,,65,88
71400,note_on,0,0,3,,,,,,,,,2,,,53,88
71400,note_on,0,0,3,,,,,,,,,2,,,41,0
71400,note_on,120,0,3,,,,,,,,,2,,,53,0
71406,note_on,0,0,3,,,,,,,,,2,,,53,0
71406,note_on,0,0,3,,,,,,,,,2,,,63,0
71406,note_on,6,0,3,,,,,,,,,2,,,65,0
71460,note_on,54,0,3,,,,,,,,,2,,,53,88
71460,note_on,0,0,3,,,,,,,,,2,,,63,88
71460,note_on,0,0,3,,,,,,,,,2,,,65,88
71460,note_on,0,0,1,,,,,,,,,0,,,69,101
71460,note_on,0,0,1,,,,,,,,,0,,,69,0
71460,note_on,0,0,1,,,,,,,,,0,,,81,101
71460,note_on,0,0,1,,,,,,,,,0,,,77,101
71460,note_on,60,0,1,,,,,,,,,0,,,81,0
71460,note_on,0,0,1,,,,,,,,,0,,,77,0
71466,note_on,0,0,1,,,,,,,,,0,,,77,0
71466,note_on,0,0,3,,,,,,,,,2,,,53,0
71466,note_on,0,0,3,,,,,,,,,2,,,63,0
71466,note_on,6,0,3,,,,,,,,,2,,,65,0
71466,note_on,0,0,1,,,,,,,,,0,,,69,0
71466,note_on,6,0,1,,,,,,,,,0,,,81,0
71520,note_on,0,0,1,,,,,,,,,0,,,77,101
71520,note_on,0,0,3,,,,,,,,,2,,,65,88
71520,note_on,54,0,3,,,,,,,,,2,,,53,88
71520,note_on,0,0,3,,,,,,,,,2,,,63,88
71520,note_on,54,0,1,,,,,,,,,0,,,69,101
71520,note_on,0,0,1,,,,,,,,,0,,,81,101
71526,note_on,0,0,1,,,,,,,,,0,,,69,0
71526,note_on,6,0,1,,,,,,,,,0,,,81,0
71526,note_on,0,0,1,,,,,,,,,0,,,77,0
71526,note_on,0,0,3,,,,,,,,,2,,,53,0
71526,note_on,0,0,3,,,,,,,,,2,,,63,0
71526,note_on,6,0,3,,,,,,,,,2,,,65,0
71580,note_on,0,0,3,,,,,,,,,2,,,65,88
71580,note_on,0,0,3,,,,,,,,,2,,,63,88
71580,note_on,0,0,3,,,,,,,,,2,,,53,88
71580,control_change,54,0,1,,,,,,,,,0,64,0,,
71580,note_on,0,0,1,,,,,,,,,0,,,77,101
71580,control_change,54,0,3,,,,,,,,,2,64,0,,
71580,note_on,0,0,1,,,,,,,,,0,,,81,101
71580,note_on,0,0,1,,,,,,,,,0,,,69,101
71586,note_on,6,0,1,,,,,,,,,0,,,81,0
71586,note_on,0,0,1,,,,,,,,,0,,,77,0
71586,note_on,0,0,1,,,,,,,,,0,,,69,0
71586,note_on,6,0,3,,,,,,,,,2,,,65,0
71586,note_on,0,0,3,,,,,,,,,2,,,63,0
71586,note_on,0,0,3,,,,,,,,,2,,,53,0
71640,note_on,0,0,3,,,,,,,,,2,,,62,88
71640,note_on,0,0,4,,,,,,,,,3,,,65,88
71640,note_on,1080,0,4,,,,,,,,,3,,,53,88
71640,note_on,0,0,1,,,,,,,,,0,,,82,101
71640,note_on,1050,0,2,,,,,,,,,1,,,77,88
71640,control_change,54,0,1,,,,,,,,,0,64,127,,
71640,note_on,0,0,1,,,,,,,,,0,,,70,101
71640,control_change,54,0,3,,,,,,,,,2,64,127,,
71760,note_on,120,0,1,,,,,,,,,0,,,82,0
71760,note_on,120,0,3,,,,,,,,,2,,,62,0
71760,note_on,0,0,1,,,,,,,,,0,,,86,101
71760,note_on,0,0,1,,,,,,,,,0,,,74,101
71760,note_on,0,0,1,,,,,,,,,0,,,70,0
71760,note_on,0,0,3,,,,,,,,,2,,,58,88
71820,control_change,0,0,1,,,,,,,,,0,64,0,,
71820,note_on,0,0,1,,,,,,,,,0,,,72,101
71820,note_on,0,0,1,,,,,,,,,0,,,84,101
71820,note_on,60,0,1,,,,,,,,,0,,,86,0
71820,note_on,0,0,1,,,,,,,,,0,,,74,0
71820,note_on,60,0,3,,,,,,,,,2,,,58,0
71820,control_change,0,0,3,,,,,,,,,2,64,0,,
71820,note_on,0,0,3,,,,,,,,,2,,,57,88
71940,note_on,0,0,1,,,,,,,,,0,,,72,0
71940,note_on,0,0,4,,,,,,,,,3,,,53,0
71940,note_on,300,0,4,,,,,,,,,3,,,65,0
71940,note_on,300,0,2,,,,,,,,,1,,,77,0
71940,note_on,120,0,3,,,,,,,,,2,,,57,0
71940,note_on,0,0,1,,,,,,,,,0,,,93,49
71940,note_on,0,0,1,,,,,,,,,0,,,89,49
71940,note_on,0,0,1,,,,,,,,,0,,,81,49
71940,note_on,0,0,3,,,,,,,,,2,,,65,36
71940,note_on,120,0,1,,,,,,,,,0,,,84,0
71940,note_on,0,0,3,,,,,,,,,2,,,75,36
71940,note_on,0,0,3,,,,,,,,,2,,,77,36
71946,note_on,6,0,3,,,,,,,,,2,,,77,0
71946,note_on,0,0,3,,,,,,,,,2,,,65,0
71946,note_on,6,0,1,,,,,,,,,0,,,93,0
71946,note_on,0,0,1,,,,,,,,,0,,,89,0
71946,note_on,0,0,1,,,,,,,,,0,,,81,0
71946,note_on,0,0,3,,,,,,,,,2,,,75,0
72000,control_change,54,0,1,,,,,,,,,0,64,127,,
72000,note_on,60,0,2,,,,,,,,,1,,,89,62
72000,note_on,0,0,1,,,,,,,,,0,,,82,67
72000,note_on,0,0,1,,,,,,,,,0,,,94,75
72000,note_on,60,0,4,,,,,,,,,3,,,65,36
72000,note_on,0,0,4,,,,,,,,,3,,,77,36
72000,control_change,54,0,3,,,,,,,,,2,64,127,,
72000,note_on,0,0,3,,,,,,,,,2,,,74,36
72120,note_on,0,0,1,,,,,,,,,0,,,98,49
72120,note_on,120,0,1,,,,,,,,,0,,,94,0
72120,note_on,120,0,3,,,,,,,,,2,,,74,0
72120,note_on,0,0,3,,,,,,,,,2,,,70,36
72120,note_on,0,0,1,,,,,,,,,0,,,82,0
72120,note_on,0,0,1,,,,,,,,,0,,,86,49
72180,note_on,60,0,1,,,,,,,,,0,,,98,0
72180,note_on,0,0,1,,,,,,,,,0,,,86,0
72180,note_on,0,0,1,,,,,,,,,0,,,84,49
72180,note_on,0,0,1,,,,,,,,,0,,,96,49
72180,note_on,0,0,3,,,,,,,,,2,,,69,36
72180,control_change,0,0,1,,,,,,,,,0,64,0,,
72180,control_change,0,0,3,,,,,,,,,2,64,0,,
72180,note_on,60,0,3,,,,,,,,,2,,,70,0
72300,note_on,120,0,3,,,,,,,,,2,,,69,0
72300,note_on,300,0,4,,,,,,,,,3,,,77,0
72300,note_on,0,0,4,,,,,,,,,3,,,65,0
72300,note_on,0,0,2,,,,,,,,,1,,,72,36
72300,note_on,120,0,1,,,,,,,,,0,,,96,0
72300,note_on,0,0,1,,,,,,,,,0,,,84,0
72300,note_on,0,0,1,,,,,,,,,0,,,77,49
72300,note_on,300,0,2,,,,,,,,,1,,,89,0
72300,note_on,0,0,3,,,,,,,,,2,,,57,36
72300,note_on,0,0,3,,,,,,,,,2,,,65,36
72306,note_on,6,0,3,,,,,,,,,2,,,65,0
72306,note_on,0,0,3,,,,,,,,,2,,,57,0
72330,note_on,30,0,1,,,,,,,,,0,,,77,0
72330,note_on,0,0,1,,,,,,,,,0,,,79,49
72360,note_on,0,0,3,,,,,,,,,2,,,65,36
72360,note_on,54,0,3,,,,,,,,,2,,,58,36
72360,note_on,60,0,2,,,,,,,,,1,,,72,0
72360,note_on,0,0,1,,,,,,,,,0,,,79,49
72360,note_on,0,0,2,,,,,,,,,1,,,74,36
72360,note_on,0,0,3,,,,,,,,,2,,,67,36
72360,note_on,30,0,1,,,,,,,,,0,,,79,0
72360,control_change,0,0,1,,,,,,,,,0,64,127,,
72360,note_on,0,0,2,,,,,,,,,1,,,77,36
72480,note_on,0,0,3,,,,,,,,,2,,,65,36
72480,note_on,0,0,3,,,,,,,,,2,,,67,36
72480,note_on,120,0,2,,,,,,,,,1,,,77,0
72480,note_on,0,0,3,,,,,,,,,2,,,58,36
72480,note_on,0,0,2,,,,,,,,,1,,,74,0
72480,note_on,120,0,3,,,,,,,,,2,,,67,0
72480,note_on,0,0,2,,,,,,,,,1,,,77,36
72480,note_on,0,0,2,,,,,,,,,1,,,74,36
72480,note_on,0,0,3,,,,,,,,,2,,,58,0
72480,note_on,120,0,1,,,,,,,,,0,,,79,0
72480,note_on,0,0,1,,,,,,,,,0,,,79,49
72480,note_on,0,0,3,,,,,,,,,2,,,65,0
72486,note_on,0,0,3,,,,,,,,,2,,,65,0
72486,note_on,6,0,3,,,,,,,,,2,,,67,0
72486,note_on,0,0,3,,,,,,,,,2,,,58,0
72510,note_on,30,0,1,,,,,,,,,0,,,79,0
72510,control_change,0,0,1,,,,,,,,,0,64,0,,
72510,note_on,0,0,1,,,,,,,,,0,,,80,49
72540,note_on,0,0,2,,,,,,,,,1,,,74,49
72540,note_on,0,0,3,,,,,,,,,2,,,65,49
72540,note_on,0,0,2,,,,,,,,,1,,,74,0
72540,note_on,30,0,1,,,,,,,,,0,,,80,0
72540,control_change,0,0,1,,,,,,,,,0,64,127,,
72540,note_on,60,0,2,,,,,,,,,1,,,77,0
72540,note_on,0,0,1,,,,,,,,,0,,,80,62
72540,note_on,0,0,2,,,,,,,,,1,,,77,49
72540,note_on,54,0,3,,,,,,,,,2,,,59,49
72540,note_on,0,0,3,,,,,,,,,2,,,68,49
72660,note_on,120,0,3,,,,,,,,,2,,,68,0
72660,note_on,120,0,1,,,,,,,,,0,,,80,0
72660,note_on,0,0,2,,,,,,,,,1,,,77,49
72660,note_on,0,0,2,,,,,,,,,1,,,74,49
72660,note_on,0,0,2,,,,,,,,,1,,,74,0
72660,note_on,120,0,2,,,,,,,,,1,,,77,0
72660,note_on,0,0,1,,,,,,,,,0,,,80,62
72660,note_on,0,0,3,,,,,,,,,2,,,65,0
72660,note_on,0,0,3,,,,,,,,,2,,,59,0
72660,note_on,0,0,3,,,,,,,,,2,,,59,49
72660,note_on,0,0,3,,,,,,,,,2,,,65,49
72660,note_on,0,0,3,,,,,,,,,2,,,68,49
72666,note_on,6,0,3,,,,,,,,,2,,,68,0
72666,note_on,0,0,3,,,,,,,,,2,,,65,0
72666,note_on,0,0,3,,,,,,,,,2,,,59,0
72690,note_on,0,0,1,,,,,,,,,0,,,81,62
72690,control_change,0,0,1,,,,,,,,,0,64,0,,
72690,note_on,30,0,1,,,,,,,,,0,,,80,0
72720,note_on,54,0,3,,,,,,,,,2,,,60,62
72720,note_on,0,0,2,,,,,,,,,1,,,77,62
72720,note_on,0,0,2,,,,,,,,,1,,,72,62
72720,note_on,0,0,2,,,,,,,,,1,,,74,0
72720,note_on,60,0,2,,,,,,,,,1,,,77,0
72720,note_on,0,0,1,,,,,,,,,0,,,81,75
72720,note_on,0,0,3,,,,,,,,,2,,,65,62
72720,note_on,30,0,1,,,,,,,,,0,,,81,0
72720,control_change,0,0,1,,,,,,,,,0,64,127,,
72720,note_on,0,0,3,,,,,,,,,2,,,69,62
72840,note_on,120,0,3,,,,,,,,,2,,,69,0
72840,note_on,0,0,3,,,,,,,,,2,,,65,0
72840,note_on,0,0,2,,,,,,,,,1,,,77,62
72840,note_on,120,0,2,,,,,,,,,1,,,77,0
72840,note_on,0,0,1,,,,,,,,,0,,,81,75
72840,note_on,0,0,2,,,,,,,,,1,,,75,62
72840,note_on,0,0,2,,,,,,,,,1,,,72,0
72840,note_on,120,0,1,,,,,,,,,0,,,81,0
72840,note_on,0,0,3,,,,,,,,,2,,,60,62
72840,note_on,0,0,3,,,,,,,,,2,,,69,62
72840,note_on,0,0,3,,,,,,,,,2,,,65,62
72840,note_on,0,0,3,,,,,,,,,2,,,60,0
72846,note_on,0,0,3,,,,,,,,,2,,,65,0
72846,note_on,6,0,3,,,,,,,,,2,,,69,0
72846,note_on,0,0,3,,,,,,,,,2,,,60,0
72870,control_change,0,0,1,,,,,,,,,0,64,0,,
72870,note_on,0,0,1,,,,,,,,,0,,,82,75
72870,note_on,30,0,1,,,,,,,,,0,,,81,0
72900,note_on,30,0,1,,,,,,,,,0,,,82,0
72900,note_on,0,0,2,,,,,,,,,1,,,75,0
72900,note_on,0,0,1,,,,,,,,,0,,,82,88
72900,note_on,0,0,2,,,,,,,,,1,,,73,75
72900,note_on,0,0,2,,,,,,,,,1,,,77,75
72900,note_on,54,0,3,,,,,,,,,2,,,61,75
72900,note_on,0,0,3,,,,,,,,,2,,,65,75
72900,note_on,0,0,3,,,,,,,,,2,,,70,75
72900,note_on,60,0,2,,,,,,,,,1,,,77,0
73020,note_on,0,0,1,,,,,,,,,0,,,83,114
73020,note_on,0,0,1,,,,,,,,,0,,,80,114
73020,note_on,120,0,1,,,,,,,,,0,,,82,0
73020,note_on,0,0,3,,,,,,,,,2,,,50,101
73020,note_on,0,0,2,,,,,,,,,1,,,71,101
73020,note_on,0,0,3,,,,,,,,,2,,,61,0
73020,note_on,0,0,3,,,,,,,,,2,,,65,0
73020,note_on,120,0,3,,,,,,,,,2,,,70,0
73020,note_on,0,0,2,,,,,,,,,1,,,77,101
73020,note_on,0,0,2,,,,,,,,,1,,,73,0
73020,note_on,0,0,3,,,,,,,,,2,,,38,101
73020,note_on,120,0,2,,,,,,,,,1,,,77,0
73080,note_on,60,0,1,,,,,,,,,0,,,83,0
73080,note_on,0,0,1,,,,,,,,,0,,,80,0
73080,note_on,0,0,1,,,,,,,,,0,,,84,75
73080,control_change,0,0,1,,,,,,,,,0,64,127,,
73080,note_on,60,0,2,,,,,,,,,1,,,77,0
73080,note_on,0,0,2,,,,,,,,,1,,,71,0
73080,note_on,0,0,2,,,,,,,,,1,,,72,36
73080,note_on,0,0,2,,,,,,,,,1,,,75,36
73080,note_on,60,0,3,,,,,,,,,2,,,50,0
73080,note_on,0,0,3,,,,,,,,,2,,,38,0
73080,control_change,0,0,3,,,,,,,,,2,64,127,,
73080,note_on,0,0,3,,,,,,,,,2,,,39,36
73080,note_on,0,0,3,,,,,,,,,2,,,51,36
73140,note_on,60,0,3,,,,,,,,,2,,,51,0
73140,note_on,0,0,3,,,,,,,,,2,,,39,0
73140,note_on,840,0,4,,,,,,,,,3,,,60,62
73140,note_on,0,0,3,,,,,,,,,2,,,63,36
73170,note_on,90,0,1,,,,,,,,,0,,,84,0
73170,note_on,0,0,1,,,,,,,,,0,,,82,49
73200,note_on,30,0,1,,,,,,,,,0,,,82,0
73200,control_change,0,0,1,,,,,,,,,0,64,0,,
73200,note_on,0,0,1,,,,,,,,,0,,,80,49
73200,note_on,0,0,3,,,,,,,,,2,,,68,36
73200,control_change,0,0,3,,,,,,,,,2,64,0,,
73200,note_on,60,0,3,,,,,,,,,2,,,63,0
73206,note_on,6,0,1,,,,,,,,,0,,,80,0
73260,note_on,0,0,2,,,,,,,,,1,,,75,36
73260,note_on,0,0,2,,,,,,,,,1,,,73,36
73260,note_on,0,0,2,,,,,,,,,1,,,72,0
73260,note_on,180,0,2,,,,,,,,,1,,,75,0
73260,note_on,0,0,3,,,,,,,,,2,,,51,36
73260,control_change,0,0,3,,,,,,,,,2,64,127,,
73260,note_on,60,0,3,,,,,,,,,2,,,68,0
73260,note_on,120,0,4,,,,,,,,,3,,,60,0
73260,note_on,0,0,3,,,,,,,,,2,,,39,36
73260,control_change,54,0,1,,,,,,,,,0,64,127,,
73260,note_on,0,0,1,,,,,,,,,0,,,80,49
73320,note_on,0,0,1,,,,,,,,,0,,,79,49
73320,note_on,60,0,1,,,,,,,,,0,,,80,0
73320,note_on,0,0,3,,,,,,,,,2,,,63,36
73320,note_on,0,0,3,,,,,,,,,2,,,39,0
73320,note_on,60,0,4,,,,,,,,,3,,,61,62
73320,note_on,60,0,3,,,,,,,,,2,,,51,0
73350,note_on,30,0,1,,,,,,,,,0,,,79,0
73350,note_on,0,0,1,,,,,,,,,0,,,77,49
73380,note_on,0,0,3,,,,,,,,,2,,,67,36
73380,control_change,0,0,3,,,,,,,,,2,64,0,,
73380,note_on,60,0,3,,,,,,,,,2,,,63,0
73380,note_on,30,0,1,,,,,,,,,0,,,77,0
73380,control_change,0,0,1,,,,,,,,,0,64,0,,
73380,note_on,0,0,1,,,,,,,,,0,,,75,49
73386,note_on,6,0,1,,,,,,,,,0,,,75,0
73440,control_change,54,0,1,,,,,,,,,0,64,127,,
73440,note_on,0,0,1,,,,,,,,,0,,,84,49
73440,note_on,120,0,4,,,,,,,,,3,,,61,0
73440,note_on,180,0,2,,,,,,,,,1,,,75,0
73440,note_on,0,0,2,,,,,,,,,1,,,73,0
73440,note_on,0,0,2,,,,,,,,,1,,,72,36
73440,note_on,60,0,3,,,,,,,,,2,,,67,0
73440,note_on,0,0,2,,,,,,,,,1,,,75,36
73440,note_on,0,0,3,,,,,,,,,2,,,51,36
73440,control_change,0,0,3,,,,,,,,,2,64,127,,
73500,note_on,60,0,4,,,,,,,,,3,,,60,36
73500,note_on,60,0,3,,,,,,,,,2,,,51,0
73500,note_on,0,0,3,,,,,,,,,2,,,63,36
73530,note_on,0,0,1,,,,,,,,,0,,,82,49
73530,note_on,90,0,1,,,,,,,,,0,,,84,0
73560,note_on,0,0,3,,,,,,,,,2,,,68,36
73560,control_change,0,0,3,,,,,,,,,2,64,0,,
73560,control_change,0,0,1,,,,,,,,,0,64,0,,
73560,note_on,0,0,1,,,,,,,,,0,,,80,49
73560,note_on,30,0,1,,,,,,,,,0,,,82,0
73560,note_on,60,0,3,,,,,,,,,2,,,63,0
73566,note_on,6,0,1,,,,,,,,,0,,,80,0
73620,note_on,0,0,1,,,,,,,,,0,,,80,49
73620,note_on,60,0,3,,,,,,,,,2,,,68,0
73620,note_on,180,0,2,,,,,,,,,1,,,75,0
73620,note_on,0,0,2,,,,,,,,,1,,,72,0
73620,note_on,0,0,2,,,,,,,,,1,,,73,36
73620,note_on,0,0,2,,,,,,,,,1,,,75,36
73620,control_change,0,0,3,,,,,,,,,2,64,127,,
73620,note_on,0,0,3,,,,,,,,,2,,,51,36
73620,control_change,54,0,1,,,,,,,,,0,64,127,,
73620,note_on,120,0,4,,,,,,,,,3,,,60,0
73680,note_on,60,0,3,,,,,,,,,2,,,51,0
73680,note_on,0,0,3,,,,,,,,,2,,,63,36
73680,note_on,60,0,4,,,,,,,,,3,,,61,62
73680,note_on,60,0,1,,,,,,,,,0,,,80,0
73680,note_on,0,0,1,,,,,,,,,0,,,79,49
73710,note_on,30,0,1,,,,,,,,,0,,,79,0
73710,note_on,0,0,1,,,,,,,,,0,,,77,49
73740,note_on,30,0,1,,,,,,,,,0,,,77,0
73740,control_change,0,0,1,,,,,,,,,0,64,0,,
73740,note_on,0,0,1,,,,,,,,,0,,,75,49
73740,note_on,60,0,3,,,,,,,,,2,,,63,0
73740,control_change,0,0,3,,,,,,,,,2,64,0,,
73740,note_on,0,0,3,,,,,,,,,2,,,67,36
73746,note_on,6,0,1,,,,,,,,,0,,,75,0
73800,note_on,0,0,3,,,,,,,,,2,,,53,49
73800,note_on,0,0,2,,,,,,,,,1,,,73,49
73800,note_on,120,0,4,,,,,,,,,3,,,61,0
73800,note_on,0,0,2,,,,,,,,,1,,,77,49
73800,note_on,0,0,1,,,,,,,,,0,,,85,62
73800,control_change,0,0,3,,,,,,,,,2,64,127,,
73800,note_on,0,0,2,,,,,,,,,1,,,73,0
73800,control_change,54,0,1,,,,,,,,,0,64,127,,
73800,note_on,60,0,3,,,,,,,,,2,,,67,0
73800,note_on,180,0,2,,,,,,,,,1,,,75,0
73860,note_on,60,0,3,,,,,,,,,2,,,53,0
73860,note_on,0,0,3,,,,,,,,,2,,,65,49
73860,note_on,60,0,4,,,,,,,,,3,,,61,75
73890,note_on,0,0,1,,,,,,,,,0,,,84,62
73890,note_on,90,0,1,,,,,,,,,0,,,85,0
73920,note_on,60,0,3,,,,,,,,,2,,,65,0
73920,note_on,0,0,1,,,,,,,,,0,,,82,62
73920,control_change,0,0,1,,,,,,,,,0,64,0,,
73920,note_on,30,0,1,,,,,,,,,0,,,84,0
73920,note_on,0,0,3,,,,,,,,,2,,,70,49
73920,control_change,0,0,3,,,,,,,,,2,64,0,,
73980,control_change,0,0,1,,,,,,,,,0,64,127,,
73980,note_on,0,0,2,,,,,,,,,1,,,75,49
73980,note_on,0,0,1,,,,,,,,,0,,,82,62
73980,note_on,60,0,1,,,,,,,,,0,,,82,0
73980,note_on,0,0,2,,,,,,,,,1,,,77,49
73980,control_change,0,0,3,,,,,,,,,2,64,127,,
73980,note_on,0,0,3,,,,,,,,,2,,,53,49
73980,note_on,120,0,4,,,,,,,,,3,,,61,0
73980,note_on,180,0,2,,,,,,,,,1,,,77,0
73980,note_on,60,0,3,,,,,,,,,2,,,70,0
73980,note_on,0,0,2,,,,,,,,,1,,,73,0
74040,note_on,60,0,3,,,,,,,,,2,,,53,0
74040,note_on,0,0,3,,,,,,,,,2,,,65,49
74040,note_on,60,0,1,,,,,,,,,0,,,82,0
74040,note_on,0,0,1,,,,,,,,,0,,,81,62
74040,note_on,60,0,4,,,,,,,,,3,,,63,75
74070,note_on,30,0,1,,,,,,,,,0,,,81,0
74070,note_on,0,0,1,,,,,,,,,0,,,79,62
74100,note_on,0,0,1,,,,,,,,,0,,,77,62
74100,control_change,0,0,1,,,,,,,,,0,64,0,,
74100,note_on,0,0,3,,,,,,,,,2,,,69,49
74100,control_change,0,0,3,,,,,,,,,2,64,0,,
74100,note_on,60,0,3,,,,,,,,,2,,,65,0
74100,note_on,30,0,1,,,,,,,,,0,,,79,0
74160,note_on,0,0,2,,,,,,,,,1,,,77,62
74160,note_on,0,0,2,,,,,,,,,1,,,73,62
74160,note_on,180,0,2,,,,,,,,,1,,,77,0
74160,note_on,0,0,1,,,,,,,,,0,,,85,101
74160,control_change,0,0,1,,,,,,,,,0,64,127,,
74160,note_on,0,0,2,,,,,,,,,1,,,75,0
74160,note_on,120,0,4,,,,,,,,,3,,,63,0
74160,note_on,60,0,1,,,,,,,,,0,,,77,0
74160,note_on,0,0,3,,,,,,,,,2,,,53,62
74160,control_change,0,0,3,,,,,,,,,2,64,127,,
74160,note_on,60,0,3,,,,,,,,,2,,,69,0
74220,note_on,0,0,3,,,,,,,,,2,,,65,62
74220,note_on,60,0,4,,,,,,,,,3,,,61,88
74220,note_on,60,0,3,,,,,,,,,2,,,53,0
74250,note_on,90,0,1,,,,,,,,,0,,,85,0
74250,note_on,0,0,1,,,,,,,,,0,,,84,75
74280,note_on,30,0,1,,,,,,,,,0,,,84,0
74280,control_change,0,0,1,,,,,,,,,0,64,0,,
74280,note_on,0,0,1,,,,,,,,,0,,,82,75
74280,control_change,0,0,3,,,,,,,,,2,64,0,,
74280,note_on,0,0,3,,,,,,,,,2,,,70,62
74280,note_on,60,0,3,,,,,,,,,2,,,65,0
74340,note_on,0,0,1,,,,,,,,,0,,,82,75
74340,control_change,0,0,1,,,,,,,,,0,64,127,,
74340,note_on,180,0,2,,,,,,,,,1,,,77,0
74340,note_on,0,0,2,,,,,,,,,1,,,73,0
74340,note_on,0,0,2,,,,,,,,,1,,,75,62
74340,note_on,0,0,2,,,,,,,,,1,,,77,62
74340,note_on,60,0,1,,,,,,,,,0,,,82,0
74340,note_on,120,0,4,,,,,,,,,3,,,61,0
74340,note_on,0,0,3,,,,,,,,,2,,,53,62
74340,control_change,0,0,3,,,,,,,,,2,64,127,,
74340,note_on,60,0,3,,,,,,,,,2,,,70,0
74400,note_on,0,0,1,,,,,,,,,0,,,81,75
74400,note_on,0,0,3,,,,,,,,,2,,,65,62
74400,note_on,60,0,4,,,,,,,,,3,,,63,88
74400,note_on,60,0,3,,,,,,,,,2,,,53,0
74400,note_on,60,0,1,,,,,,,,,0,,,82,0
74430,note_on,30,0,1,,,,,,,,,0,,,81,0
74430,note_on,0,0,1,,,,,,,,,0,,,79,75
74460,note_on,0,0,1,,,,,,,,,0,,,77,75
74460,control_change,0,0,1,,,,,,,,,0,64,0,,
74460,note_on,0,0,3,,,,,,,,,2,,,69,62
74460,control_change,0,0,3,,,,,,,,,2,64,0,,
74460,note_on,30,0,1,,,,,,,,,0,,,79,0
74460,note_on,60,0,3,,,,,,,,,2,,,65,0
74520,note_on,60,0,1,,,,,,,,,0,,,77,0
74520,control_change,0,0,1,,,,,,,,,0,64,127,,
74520,note_on,0,0,1,,,,,,,,,0,,,86,114
74520,note_on,0,0,2,,,,,,,,,1,,,77,101
74520,note_on,120,0,4,,,,,,,,,3,,,63,0
74520,note_on,60,0,3,,,,,,,,,2,,,69,0
74520,control_change,0,0,3,,,,,,,,,2,64,127,,
74520,note_on,0,0,3,,,,,,,,,2,,,34,75
74520,note_on,0,0,3,,,,,,,,,2,,,46,75
74520,note_on,0,0,2,,,,,,,,,1,,,74,93
74520,note_on,0,0,2,,,,,,,,,1,,,75,0
74520,note_on,180,0,2,,,,,,,,,1,,,77,0
74610,note_on,0,0,1,,,,,,,,,0,,,84,88
74610,note_on,90,0,1,,,,,,,,,0,,,86,0
74640,note_on,0,0,1,,,,,,,,,0,,,82,88
74640,note_on,30,0,1,,,,,,,,,0,,,84,0
74700,note_on,0,0,1,,,,,,,,,0,,,82,114
74700,note_on,0,0,2,,,,,,,,,1,,,74,0
74700,note_on,180,0,2,,,,,,,,,1,,,77,0
74700,note_on,180,0,3,,,,,,,,,2,,,46,0
74700,note_on,0,0,3,,,,,,,,,2,,,50,96
74700,note_on,0,0,3,,,,,,,,,2,,,46,91
74700,control_change,0,0,3,,,,,,,,,2,64,0,,
74700,note_on,0,0,2,,,,,,,,,1,,,74,93
74700,note_on,60,0,1,,,,,,,,,0,,,82,0
74700,note_on,0,0,3,,,,,,,,,2,,,58,101
74700,note_on,0,0,2,,,,,,,,,1,,,77,101
74700,note_on,0,0,3,,,,,,,,,2,,,34,0
74790,note_on,90,0,1,,,,,,,,,0,,,82,0
74790,note_on,0,0,1,,,,,,,,,0,,,81,88
74820,control_change,0,0,1,,,,,,,,,0,64,0,,
74820,note_on,30,0,1,,,,,,,,,0,,,81,0
74820,note_on,0,0,1,,,,,,,,,0,,,80,88
74880,note_on,0,0,3,,,,,,,,,2,,,46,0
74880,note_on,0,0,3,,,,,,,,,2,,,50,0
74880,note_on,180,0,3,,,,,,,,,2,,,58,0
74880,note_on,0,0,3,,,,,,,,,2,,,46,75
74880,note_on,60,0,1,,,,,,,,,0,,,80,0
74880,control_change,0,0,3,,,,,,,,,2,64,127,,
74880,control_change,0,0,1,,,,,,,,,0,64,127,,
74880,note_on,180,0,2,,,,,,,,,1,,,77,0
74880,note_on,0,0,2,,,,,,,,,1,,,74,0
74880,note_on,0,0,2,,,,,,,,,1,,,74,93
74880,note_on,0,0,2,,,,,,,,,1,,,77,101
74880,note_on,0,0,1,,,,,,,,,0,,,86,114
74880,note_on,0,0,3,,,,,,,,,2,,,34,75
74970,note_on,90,0,1,,,,,,,,,0,,,86,0
74970,note_on,0,0,1,,,,,,,,,0,,,84,88
75000,note_on,30,0,1,,,,,,,,,0,,,84,0
75000,note_on,0,0,1,,,,,,,,,0,,,82,88
75060,note_on,180,0,3,,,,,,,,,2,,,46,0
75060,control_change,0,0,3,,,,,,,,,2,64,0,,
75060,note_on,0,0,3,,,,,,,,,2,,,46,75
75060,note_on,0,0,2,,,,,,,,,1,,,74,93
75060,note_on,0,0,3,,,,,,,,,2,,,50,75
75060,note_on,60,0,1,,,,,,,,,0,,,82,0
75060,note_on,0,0,1,,,,,,,,,0,,,82,114
75060,note_on,0,0,2,,,,,,,,,1,,,77,101
75060,note_on,0,0,3,,,,,,,,,2,,,58,75
75060,note_on,0,0,3,,,,,,,,,2,,,34,0
75060,note_on,180,0,2,,,,,,,,,1,,,77,0
75060,note_on,0,0,2,,,,,,,,,1,,,74,0
75150,note_on,0,0,1,,,,,,,,,0,,,81,88
75150,note_on,90,0,1,,,,,,,,,0,,,82,0
75180,note_on,0,0,1,,,,,,,,,0,,,80,88
75180,control_change,0,0,1,,,,,,,,,0,64,0,,
75180,note_on,30,0,1,,,,,,,,,0,,,81,0
75240,note_on,0,0,3,,,,,,,,,2,,,46,0
75240,note_on,0,0,3,,,,,,,,,2,,,50,0
75240,note_on,180,0,3,,,,,,,,,2,,,58,0
75240,note_on,0,0,2,,,,,,,,,1,,,74,0
75240,note_on,0,0,2,,,,,,,,,1,,,81,93
75240,note_on,0,0,2,,,,,,,,,1,,,84,101
75240,note_on,180,0,2,,,,,,,,,1,,,77,0
75240,note_on,0,0,3,,,,,,,,,2,,,41,75
75240,note_on,60,0,1,,,,,,,,,0,,,80,0
75240,control_change,0,0,1,,,,,,,,,0,64,127,,
75240,note_on,0,0,1,,,,,,,,,0,,,93,114
75240,control_change,0,0,3,,,,,,,,,2,64,127,,
75240,note_on,0,0,3,,,,,,,,,2,,,53,75
75330,note_on,90,0,1,,,,,,,,,0,,,93,0
75330,note_on,0,0,1,,,,,,,,,0,,,91,88
75360,note_on,30,0,1,,,,,,,,,0,,,91,0
75360,note_on,0,0,1,,,,,,,,,0,,,89,88
75420,note_on,0,0,2,,,,,,,,,1,,,84,101
75420,note_on,0,0,2,,,,,,,,,1,,,81,93
75420,note_on,0,0,2,,,,,,,,,1,,,81,0
75420,note_on,60,0,1,,,,,,,,,0,,,89,0
75420,note_on,180,0,2,,,,,,,,,1,,,84,0
75420,note_on,0,0,1,,,,,,,,,0,,,89,114
75420,note_on,180,0,3,,,,,,,,,2,,,53,0
75420,note_on,0,0,3,,,,,,,,,2,,,41,0
75420,control_change,0,0,3,,,,,,,,,2,64,0,,
75420,note_on,0,0,3,,,,,,,,,2,,,53,75
75420,note_on,0,0,3,,,,,,,,,2,,,57,75
75420,note_on,0,0,3,,,,,,,,,2,,,65,75
75510,note_on,0,0,1,,,,,,,,,0,,,88,88
75510,note_on,90,0,1,,,,,,,,,0,,,89,0
75540,note_on,0,0,1,,,,,,,,,0,,,87,88
75540,note_on,30,0,1,,,,,,,,,0,,,88,0
75540,control_change,0,0,1,,,,,,,,,0,64,0,,
75600,control_change,0,0,3,,,,,,,,,2,64,127,,
75600,note_on,0,0,1,,,,,,,,,0,,,93,114
75600,control_change,0,0,1,,,,,,,,,0,64,127,,
75600,note_on,0,0,2,,,,,,,,,1,,,84,101
75600,note_on,0,0,3,,,,,,,,,2,,,41,75
75600,note_on,0,0,2,,,,,,,,,1,,,81,93
75600,note_on,0,0,2,,,,,,,,,1,,,81,0
75600,note_on,60,0,1,,,,,,,,,0,,,87,0
75600,note_on,0,0,3,,,,,,,,,2,,,53,75
75600,note_on,180,0,3,,,,,,,,,2,,,65,0
75600,note_on,0,0,3,,,,,,,,,2,,,57,0
75600,note_on,0,0,3,,,,,,,,,2,,,53,0
75600,note_on,180,0,2,,,,,,,,,1,,,84,0
75690,note_on,90,0,1,,,,,,,,,0,,,93,0
75690,note_on,0,0,1,,,,,,,,,0,,,91,88
75720,note_on,30,0,1,,,,,,,,,0,,,91,0
75720,note_on,0,0,1,,,,,,,,,0,,,89,88
75780,note_on,60,0,1,,,,,,,,,0,,,89,0
75780,note_on,0,0,1,,,,,,,,,0,,,89,114
75780,note_on,0,0,2,,,,,,,,,1,,,81,93
75780,note_on,180,0,3,,,,,,,,,2,,,53,0
75780,control_change,0,0,3,,,,,,,,,2,64,0,,
75780,note_on,0,0,3,,,,,,,,,2,,,53,75
75780,note_on,0,0,3,,,,,,,,,2,,,57,75
75780,note_on,0,0,3,,,,,,,,,2,,,65,75
75780,note_on,0,0,3,,,,,,,,,2,,,41,0
75780,note_on,0,0,2,,,,,,,,,1,,,84,101
75780,note_on,180,0,2,,,,,,,,,1,,,84,0
75780,note_on,0,0,2,,,,,,,,,1,,,81,0
75870,note_on,0,0,1,,,,,,,,,0,,,88,88
75870,note_on,90,0,1,,,,,,,,,0,,,89,0
75900,note_on,0,0,1,,,,,,,,,0,,,87,88
75900,control_change,0,0,1,,,,,,,,,0,64,0,,
75900,note_on,30,0,1,,,,,,,,,0,,,88,0
75960,note_on,0,0,1,,,,,,,,,0,,,88,127
75960,note_on,180,0,2,,,,,,,,,1,,,84,0
75960,note_on,0,0,2,,,,,,,,,1,,,81,0
75960,note_on,0,0,3,,,,,,,,,2,,,52,101
75960,note_on,0,0,3,,,,,,,,,2,,,40,101
75960,control_change,0,0,3,,,,,,,,,2,64,127,,
75960,note_on,0,0,3,,,,,,,,,2,,,53,0
75960,note_on,0,0,3,,,,,,,,,2,,,57,0
75960,note_on,180,0,3,,,,,,,,,2,,,65,0
75960,note_on,0,0,1,,,,,,,,,0,,,85,127
75960,control_change,0,0,1,,,,,,,,,0,64,127,,
75960,note_on,60,0,1,,,,,,,,,0,,,87,0
76050,note_on,0,0,1,,,,,,,,,0,,,83,114
76050,note_on,0,0,1,,,,,,,,,0,,,85,0
76050,note_on,90,0,1,,,,,,,,,0,,,88,0
76050,note_on,0,0,1,,,,,,,,,0,,,86,114
76080,note_on,0,0,1,,,,,,,,,0,,,81,114
76080,note_on,0,0,1,,,,,,,,,0,,,83,0
76080,note_on,30,0,1,,,,,,,,,0,,,86,0
76080,note_on,0,0,1,,,,,,,,,0,,,85,114
76140,note_on,180,0,2,,,,,,,,,1,,,76,127
76140,note_on,0,0,1,,,,,,,,,0,,,83,127
76140,note_on,0,0,1,,,,,,,,,0,,,81,0
76140,note_on,60,0,1,,,,,,,,,0,,,85,0
76140,note_on,0,0,1,,,,,,,,,0,,,74,127
76230,note_on,90,0,1,,,,,,,,,0,,,83,0
76230,note_on,0,0,1,,,,,,,,,0,,,74,0
76230,note_on,0,0,1,,,,,,,,,0,,,73,114
76230,note_on,0,0,1,,,,,,,,,0,,,81,114
76260,note_on,0,0,1,,,,,,,,,0,,,80,114
76260,note_on,0,0,1,,,,,,,,,0,,,71,114
76260,note_on,0,0,1,,,,,,,,,0,,,73,0
76260,note_on,30,0,1,,,,,,,,,0,,,81,0
76260,control_change,0,0,1,,,,,,,,,0,64,0,,
76320,note_on,60,0,1,,,,,,,,,0,,,80,0
76320,note_on,0,0,1,,,,,,,,,0,,,73,88
76320,note_on,180,0,2,,,,,,,,,1,,,76,0
76320,control_change,0,0,1,,,,,,,,,0,64,127,,
76320,note_on,0,0,1,,,,,,,,,0,,,71,0
76320,note_on,0,0,1,,,,,,,,,0,,,76,88
76410,note_on,90,0,1,,,,,,,,,0,,,76,0
76410,note_on,0,0,1,,,,,,,,,0,,,73,0
76410,note_on,0,0,1,,,,,,,,,0,,,71,88
76410,note_on,0,0,1,,,,,,,,,0,,,74,88
76440,note_on,30,0,1,,,,,,,,,0,,,74,0
76440,note_on,0,0,1,,,,,,,,,0,,,71,0
76440,note_on,0,0,1,,,,,,,,,0,,,69,88
76440,note_on,0,0,1,,,,,,,,,0,,,73,88
76500,note_on,0,0,1,,,,,,,,,0,,,71,114
76500,note_on,0,0,1,,,,,,,,,0,,,62,106
76500,note_on,60,0,1,,,,,,,,,0,,,73,0
76500,note_on,180,0,2,,,,,,,,,1,,,64,114
76500,note_on,0,0,1,,,,,,,,,0,,,69,0
76590,note_on,0,0,1,,,,,,,,,0,,,69,88
76590,note_on,90,0,1,,,,,,,,,0,,,71,0
76590,note_on,0,0,1,,,,,,,,,0,,,62,0
76590,note_on,0,0,1,,,,,,,,,0,,,61,88
76620,note_on,30,0,1,,,,,,,,,0,,,69,0
76620,note_on,0,0,1,,,,,,,,,0,,,61,0
76620,note_on,0,0,1,,,,,,,,,0,,,59,88
76620,note_on,0,0,1,,,,,,,,,0,,,68,88
76620,control_change,0,0,1,,,,,,,,,0,64,0,,
76680,note_on,0,0,1,,,,,,,,,0,,,64,101
76680,control_change,0,0,1,,,,,,,,,0,64,127,,
76680,note_on,0,0,1,,,,,,,,,0,,,61,93
76680,note_on,180,0,2,,,,,,,,,1,,,64,0
76680,note_on,60,0,1,,,,,,,,,0,,,68,0
76680,control_change,0,0,3,,,,,,,,,2,64,0,,
76680,note_on,0,0,1,,,,,,,,,0,,,59,0
76680,note_on,720,0,3,,,,,,,,,2,,,52,0
76770,note_on,90,0,1,,,,,,,,,0,,,64,0
76770,note_on,0,0,1,,,,,,,,,0,,,61,0
76770,note_on,0,0,1,,,,,,,,,0,,,59,75
76770,note_on,0,0,1,,,,,,,,,0,,,62,75
76800,note_on,30,0,1,,,,,,,,,0,,,62,0
76800,note_on,0,0,1,,,,,,,,,0,,,59,0
76800,note_on,0,0,1,,,,,,,,,0,,,57,75
76800,note_on,0,0,1,,,,,,,,,0,,,61,75
76860,note_on,60,0,1,,,,,,,,,0,,,61,0
76860,note_on,0,0,1,,,,,,,,,0,,,57,0
76860,note_on,0,0,1,,,,,,,,,0,,,50,93
76860,note_on,0,0,1,,,,,,,,,0,,,59,101
76860,note_on,180,0,2,,,,,,,,,1,,,52,101
76950,note_on,0,0,1,,,,,,,,,0,,,57,75
76950,note_on,0,0,1,,,,,,,,,0,,,49,75
76950,note_on,0,0,1,,,,,,,,,0,,,50,0
76950,note_on,90,0,1,,,,,,,,,0,,,59,0
76980,note_on,0,0,1,,,,,,,,,0,,,47,75
76980,note_on,30,0,1,,,,,,,,,0,,,57,0
76980,note_on,0,0,1,,,,,,,,,0,,,56,75
76980,control_change,0,0,1,,,,,,,,,0,64,0,,
76980,note_on,0,0,1,,,,,,,,,0,,,49,0
77040,note_on,180,0,2,,,,,,,,,1,,,52,0
77040,note_on,60,0,1,,,,,,,,,0,,,56,0
77040,note_on,0,0,1,,,,,,,,,0,,,47,0
77040,note_on,360,0,3,,,,,,,,,2,,,40,0
77400,note_on,0,0,1,,,,,,,,,0,,,81,49
77400,note_on,0,0,3,,,,,,,,,2,,,61,62
77400,control_change,360,0,3,,,,,,,,,2,64,127,,
77400,note_on,360,0,1,,,,,,,,,0,,,69,49
77400,control_change,2880,0,4,,,,,,,,,3,64,127,,
77400,note_on,0,0,3,,,,,,,,,2,,,69,62
77400,note_on,0,0,4,,,,,,,,,3,,,57,36
77406,note_on,6,0,4,,,,,,,,,3,,,57,0
77460,note_on,54,0,4,,,,,,,,,3,,,57,36
77466,note_on,6,0,4,,,,,,,,,3,,,57,0
77520,note_on,54,0,4,,,,,,,,,3,,,57,36
77520,note_on,120,0,3,,,,,,,,,2,,,69,0
77520,note_on,0,0,3,,,,,,,,,2,,,61,0
77520,note_on,0,0,3,,,,,,,,,2,,,64,62
77526,note_on,6,0,4,,,,,,,,,3,,,57,0
77580,note_on,0,0,1,,,,,,,,,0,,,85,49
77580,note_on,0,0,1,,,,,,,,,0,,,73,49
77580,note_on,54,0,4,,,,,,,,,3,,,57,36
77580,note_on,180,0,1,,,,,,,,,0,,,81,0
77580,note_on,0,0,3,,,,,,,,,2,,,65,62
77580,note_on,60,0,3,,,,,,,,,2,,,64,0
77580,note_on,0,0,1,,,,,,,,,0,,,69,0
77586,note_on,6,0,4,,,,,,,,,3,,,57,0
77640,note_on,54,0,4,,,,,,,,,3,,,57,36
77646,note_on,6,0,4,,,,,,,,,3,,,57,0
77700,control_change,0,0,3,,,,,,,,,2,64,0,,
77700,note_on,120,0,3,,,,,,,,,2,,,65,0
77700,control_change,54,0,4,,,,,,,,,3,64,127,,
77700,note_on,0,0,4,,,,,,,,,3,,,57,36
77700,note_on,0,0,3,,,,,,,,,2,,,64,62
77706,note_on,6,0,4,,,,,,,,,3,,,57,0
77760,note_on,180,0,1,,,,,,,,,0,,,85,0
77760,note_on,0,0,1,,,,,,,,,0,,,73,0
77760,note_on,0,0,1,,,,,,,,,0,,,83,49
77760,note_on,0,0,3,,,,,,,,,2,,,68,62
77760,note_on,0,0,3,,,,,,,,,2,,,62,62
77760,control_change,0,0,3,,,,,,,,,2,64,127,,
77760,note_on,60,0,3,,,,,,,,,2,,,64,0
77760,control_change,54,0,4,,,,,,,,,3,64,127,,
77760,note_on,0,0,4,,,,,,,,,3,,,57,36
77760,note_on,0,0,1,,,,,,,,,0,,,71,49
77766,note_on,6,0,4,,,,,,,,,3,,,57,0
77820,note_on,54,0,4,,,,,,,,,3,,,57,36
77826,note_on,6,0,4,,,,,,,,,3,,,57,0
77880,note_on,0,0,3,,,,,,,,,2,,,65,62
77880,note_on,0,0,3,,,,,,,,,2,,,62,0
77880,note_on,120,0,3,,,,,,,,,2,,,68,0
77880,note_on,54,0,4,,,,,,,,,3,,,57,36
77886,note_on,6,0,4,,,,,,,,,3,,,57,0
77940,note_on,0,0,3,,,,,,,,,2,,,64,62
77940,note_on,54,0,4,,,,,,,,,3,,,57,36
77940,note_on,180,0,1,,,,,,,,,0,,,83,0
77940,note_on,0,0,1,,,,,,,,,0,,,71,0
77940,note_on,0,0,1,,,,,,,,,0,,,76,49
77940,note_on,0,0,1,,,,,,,,,0,,,88,49
77940,note_on,60,0,3,,,,,,,,,2,,,65,0
77946,note_on,6,0,4,,,,,,,,,3,,,57,0
78000,note_on,54,0,4,,,,,,,,,3,,,57,36
78006,note_on,6,0,4,,,,,,,,,3,,,57,0
78060,control_change,54,0,4,,,,,,,,,3,64,127,,
78060,note_on,0,0,4,,,,,,,,,3,,,57,36
78060,note_on,120,0,3,,,,,,,,,2,,,64,0
78060,control_change,0,0,3,,,,,,,,,2,64,0,,
78060,note_on,0,0,3,,,,,,,,,2,,,62,62
78066,note_on,6,0,4,,,,,,,,,3,,,57,0
78120,note_on,0,0,3,,,,,,,,,2,,,61,62
78120,note_on,60,0,3,,,,,,,,,2,,,62,0
78120,note_on,0,0,3,,,,,,,,,2,,,69,62
78120,control_change,54,0,4,,,,,,,,,3,64,127,,
78120,note_on,0,0,4,,,,,,,,,3,,,57,36
78120,control_change,0,0,3,,,,,,,,,2,64,127,,
78120,note_on,0,0,1,,,,,,,,,0,,,81,49
78120,note_on,0,0,1,,,,,,,,,0,,,69,49
78120,note_on,0,0,1,,,,,,,,,0,,,76,0
78120,note_on,180,0,1,,,,,,,,,0,,,88,0
78126,note_on,6,0,4,,,,,,,,,3,,,57,0
78180,note_on,54,0,4,,,,,,,,,3,,,57,36
78186,note_on,6,0,4,,,,,,,,,3,,,57,0
78240,note_on,54,0,4,,,,,,,,,3,,,57,36
78240,note_on,120,0,3,,,,,,,,,2,,,69,0
78240,note_on,0,0,3,,,,,,,,,2,,,64,62
78240,note_on,0,0,3,,,,,,,,,2,,,61,0
78246,note_on,6,0,4,,,,,,,,,3,,,57,0
78300,note_on,0,0,3,,,,,,,,,2,,,65,62
78300,note_on,0,0,1,,,,,,,,,0,,,69,0
78300,note_on,0,0,1,,,,,,,,,0,,,73,49
78300,note_on,54,0,4,,,,,,,,,3,,,57,36
78300,note_on,0,0,1,,,,,,,,,0,,,85,49
78300,note_on,180,0,1,,,,,,,,,0,,,81,0
78300,note_on,60,0,3,,,,,,,,,2,,,64,0
78306,note_on,6,0,4,,,,,,,,,3,,,57,0
78360,note_on,54,0,4,,,,,,,,,3,,,57,36
78366,note_on,6,0,4,,,,,,,,,3,,,57,0
78420,note_on,0,0,4,,,,,,,,,3,,,57,36
78420,control_change,0,0,3,,,,,,,,,2,64,0,,
78420,note_on,0,0,3,,,,,,,,,2,,,64,62
78420,control_change,54,0,4,,,,,,,,,3,64,127,,
78420,note_on,120,0,3,,,,,,,,,2,,,65,0
78426,note_on,6,0,4,,,,,,,,,3,,,57,0
78480,note_on,0,0,1,,,,,,,,,0,,,83,49
78480,note_on,0,0,4,,,,,,,,,3,,,57,36
78480,control_change,54,0,4,,,,,,,,,3,64,127,,
78480,note_on,180,0,1,,,,,,,,,0,,,85,0
78480,note_on,0,0,1,,,,,,,,,0,,,71,49
78480,note_on,0,0,1,,,,,,,,,0,,,73,0
78480,control_change,0,0,1,,,,,,,,,0,64,127,,
78480,note_on,0,0,3,,,,,,,,,2,,,68,62
78480,note_on,0,0,3,,,,,,,,,2,,,62,62
78480,control_change,0,0,3,,,,,,,,,2,64,127,,
78480,note_on,60,0,3,,,,,,,,,2,,,64,0
78486,note_on,6,0,4,,,,,,,,,3,,,57,0
78540,note_on,54,0,4,,,,,,,,,3,,,57,36
78546,note_on,6,0,4,,,,,,,,,3,,,57,0
78600,note_on,120,0,3,,,,,,,,,2,,,68,0
78600,note_on,0,0,3,,,,,,,,,2,,,65,62
78600,note_on,54,0,4,,,,,,,,,3,,,57,36
78600,note_on,0,0,3,,,,,,,,,2,,,62,0
78606,note_on,6,0,4,,,,,,,,,3,,,57,0
78660,note_on,54,0,4,,,,,,,,,3,,,57,36
78660,note_on,0,0,1,,,,,,,,,0,,,88,49
78660,note_on,0,0,1,,,,,,,,,0,,,76,49
78660,note_on,0,0,1,,,,,,,,,0,,,71,0
78660,note_on,180,0,1,,,,,,,,,0,,,83,0
78660,note_on,0,0,3,,,,,,,,,2,,,64,62
78660,note_on,60,0,3,,,,,,,,,2,,,65,0
78666,note_on,6,0,4,,,,,,,,,3,,,57,0
78720,note_on,54,0,4,,,,,,,,,3,,,57,36
78726,note_on,6,0,4,,,,,,,,,3,,,57,0
78780,note_on,0,0,3,,,,,,,,,2,,,62,62
78780,note_on,120,0,3,,,,,,,,,2,,,64,0
78780,note_on,0,0,4,,,,,,,,,3,,,57,36
78780,control_change,54,0,4,,,,,,,,,3,64,127,,
78786,note_on,6,0,4,,,,,,,,,3,,,57,0
78840,note_on,0,0,3,,,,,,,,,2,,,57,62
78840,control_change,0,0,3,,,,,,,,,2,64,0,,
78840,note_on,0,0,3,,,,,,,,,2,,,69,62
78840,note_on,0,0,1,,,,,,,,,0,,,69,49
78840,note_on,0,0,3,,,,,,,,,2,,,61,62
78840,note_on,60,0,3,,,,,,,,,2,,,62,0
78840,note_on,0,0,1,,,,,,,,,0,,,76,0
78840,note_on,180,0,1,,,,,,,,,0,,,88,0
78840,note_on,0,0,1,,,,,,,,,0,,,81,49
78840,control_change,0,0,1,,,,,,,,,0,64,0,,
78900,control_change,0,0,3,,,,,,,,,2,64,127,,
78900,note_on,0,0,1,,,,,,,,,0,,,69,0
78900,note_on,0,0,3,,,,,,,,,2,,,68,62
78900,control_change,0,0,1,,,,,,,,,0,64,127,,
78900,note_on,0,0,3,,,,,,,,,2,,,57,0
78900,note_on,0,0,3,,,,,,,,,2,,,61,0
78900,note_on,0,0,1,,,,,,,,,0,,,80,49
78900,note_on,60,0,1,,,,,,,,,0,,,81,0
78900,note_on,60,0,3,,,,,,,,,2,,,69,0
78960,note_on,60,0,3,,,,,,,,,2,,,68,0
78960,note_on,0,0,3,,,,,,,,,2,,,69,62
78960,note_on,0,0,1,,,,,,,,,0,,,81,49
78960,note_on,60,0,1,,,,,,,,,0,,,80,0
79020,note_on,60,0,3,,,,,,,,,2,,,69,0
79020,note_on,0,0,1,,,,,,,,,0,,,76,49
79020,note_on,60,0,1,,,,,,,,,0,,,81,0
79020,note_on,0,0,3,,,,,,,,,2,,,64,62
79080,note_on,60,0,1,,,,,,,,,0,,,76,0
79080,note_on,0,0,1,,,,,,,,,0,,,73,49
79080,note_on,60,0,3,,,,,,,,,2,,,64,0
79080,note_on,0,0,3,,,,,,,,,2,,,61,62
79140,note_on,60,0,3,,,,,,,,,2,,,61,0
79140,control_change,0,0,3,,,,,,,,,2,64,0,,
79140,note_on,0,0,1,,,,,,,,,0,,,69,49
79140,note_on,60,0,1,,,,,,,,,0,,,73,0
79140,control_change,0,0,1,,,,,,,,,0,64,0,,
79140,note_on,0,0,3,,,,,,,,,2,,,57,62
79200,note_on,60,0,3,,,,,,,,,2,,,57,0
79200,control_change,0,0,3,,,,,,,,,2,64,127,,
79200,note_on,0,0,3,,,,,,,,,2,,,50,36
79200,note_on,0,0,3,,,,,,,,,2,,,60,36
79200,note_on,2160,0,2,,,,,,,,,1,,,66,36
79200,note_on,0,0,2,,,,,,,,,1,,,69,36
79200,note_on,414,0,4,,,,,,,,,3,,,57,36
79200,note_on,0,0,1,,,,,,,,,0,,,72,49
79200,control_change,0,0,1,,,,,,,,,0,64,127,,
79200,note_on,60,0,1,,,,,,,,,0,,,69,0
79230,note_on,0,0,1,,,,,,,,,0,,,71,49
79230,note_on,30,0,1,,,,,,,,,0,,,72,0
79230,note_on,30,0,3,,,,,,,,,2,,,60,0
79230,note_on,0,0,3,,,,,,,,,2,,,50,0
79230,note_on,0,0,3,,,,,,,,,2,,,51,36
79230,note_on,0,0,3,,,,,,,,,2,,,59,36
79260,note_on,60,0,4,,,,,,,,,3,,,57,0
79260,note_on,30,0,1,,,,,,,,,0,,,71,0
79260,note_on,0,0,2,,,,,,,,,1,,,69,36
79260,control_change,0,0,1,,,,,,,,,0,64,0,,
79260,note_on,0,0,4,,,,,,,,,3,,,51,36
79260,note_on,30,0,3,,,,,,,,,2,,,59,0
79260,note_on,0,0,1,,,,,,,,,0,,,71,75
79260,note_on,0,0,3,,,,,,,,,2,,,51,0
79260,control_change,0,0,3,,,,,,,,,2,64,0,,
79260,note_on,0,0,3,,,,,,,,,2,,,59,36
79260,note_on,0,0,2,,,,,,,,,1,,,66,36
79260,note_on,0,0,2,,,,,,,,,1,,,66,0
79260,note_on,60,0,2,,,,,,,,,1,,,69,0
79260,note_on,0,0,4,,,,,,,,,3,,,57,36
79380,note_on,0,0,2,,,,,,,,,1,,,66,0
79380,note_on,0,0,2,,,,,,,,,1,,,66,36
79380,note_on,0,0,2,,,,,,,,,1,,,69,36
79380,control_change,0,0,1,,,,,,,,,0,64,127,,
79380,note_on,0,0,1,,,,,,,,,0,,,72,49
79380,note_on,120,0,4,,,,,,,,,3,,,57,0
79380,note_on,0,0,3,,,,,,,,,2,,,60,36
79380,note_on,0,0,3,,,,,,,,,2,,,50,36
79380,control_change,0,0,3,,,,,,,,,2,64,127,,
79380,note_on,120,0,3,,,,,,,,,2,,,59,0
79380,note_on,120,0,1,,,,,,,,,0,,,71,0
79380,note_on,0,0,4,,,,,,,,,3,,,51,0
79380,note_on,120,0,2,,,,,,,,,1,,,69,0
79380,note_on,0,0,4,,,,,,,,,3,,,57,36
79410,note_on,30,0,3,,,,,,,,,2,,,60,0
79410,note_on,30,0,1,,,,,,,,,0,,,72,0
79410,note_on,0,0,1,,,,,,,,,0,,,71,49
79410,note_on,0,0,3,,,,,,,,,2,,,50,0
79410,note_on,0,0,3,,,,,,,,,2,,,51,36
79410,note_on,0,0,3,,,,,,,,,2,,,59,36
79440,note_on,0,0,4,,,,,,,,,3,,,57,36
79440,note_on,0,0,4,,,,,,,,,3,,,51,36
79440,note_on,60,0,4,,,,,,,,,3,,,57,0
79440,note_on,60,0,2,,,,,,,,,1,,,69,0
79440,note_on,0,0,2,,,,,,,,,1,,,66,0
79440,note_on,0,0,2,,,,,,,,,1,,,66,36
79440,note_on,0,0,2,,,,,,,,,1,,,69,36
79440,note_on,30,0,3,,,,,,,,,2,,,59,0
79440,note_on,0,0,3,,,,,,,,,2,,,51,0
79440,control_change,0,0,3,,,,,,,,,2,64,0,,
79440,note_on,0,0,3,,,,,,,,,2,,,59,36
79440,note_on,0,0,1,,,,,,,,,0,,,71,75
79440,control_change,0,0,1,,,,,,,,,0,64,0,,
79440,note_on,30,0,1,,,,,,,,,0,,,71,0
79560,note_on,120,0,3,,,,,,,,,2,,,59,0
79560,control_change,0,0,3,,,,,,,,,2,64,127,,
79560,note_on,0,0,3,,,,,,,,,2,,,52,62
79560,note_on,0,0,3,,,,,,,,,2,,,57,62
79560,note_on,0,0,3,,,,,,,,,2,,,61,62
79560,note_on,0,0,2,,,,,,,,,1,,,67,62
79560,control_change,0,0,2,,,,,,,,,1,64,127,,
79560,note_on,0,0,4,,,,,,,,,3,,,51,0
79560,note_on,0,0,2,,,,,,,,,1,,,66,0
79560,note_on,0,0,2,,,,,,,,,1,,,69,62
79560,note_on,120,0,2,,,,,,,,,1,,,69,0
79560,note_on,120,0,1,,,,,,,,,0,,,71,0
79560,note_on,120,0,4,,,,,,,,,3,,,57,0
79560,control_change,0,0,1,,,,,,,,,0,64,127,,
79560,note_on,0,0,1,,,,,,,,,0,,,74,75
79566,note_on,0,0,3,,,,,,,,,2,,,52,0
79566,note_on,0,0,3,,,,,,,,,2,,,57,0
79566,note_on,6,0,3,,,,,,,,,2,,,61,0
79590,note_on,0,0,1,,,,,,,,,0,,,73,75
79590,note_on,30,0,1,,,,,,,,,0,,,74,0
79620,note_on,0,0,3,,,,,,,,,2,,,61,62
79620,note_on,0,0,3,,,,,,,,,2,,,57,62
79620,note_on,54,0,3,,,,,,,,,2,,,52,62
79620,note_on,0,0,2,,,,,,,,,1,,,69,62
79620,note_on,30,0,1,,,,,,,,,0,,,73,0
79620,note_on,0,0,1,,,,,,,,,0,,,73,101
79620,note_on,0,0,2,,,,,,,,,1,,,67,62
79620,note_on,0,0,2,,,,,,,,,1,,,67,0
79620,note_on,60,0,2,,,,,,,,,1,,,69,0
79740,note_on,0,0,2,,,,,,,,,1,,,67,0
79740,note_on,0,0,2,,,,,,,,,1,,,69,62
79740,note_on,120,0,2,,,,,,,,,1,,,69,0
79740,note_on,0,0,3,,,,,,,,,2,,,62,62
79740,note_on,0,0,3,,,,,,,,,2,,,57,62
79740,control_change,0,0,3,,,,,,,,,2,64,0,,
79740,note_on,0,0,3,,,,,,,,,2,,,52,0
79740,note_on,0,0,3,,,,,,,,,2,,,57,0
79740,note_on,120,0,3,,,,,,,,,2,,,61,0
79740,control_change,0,0,1,,,,,,,,,0,64,0,,
79740,note_on,120,0,1,,,,,,,,,0,,,73,0
79740,control_change,0,0,2,,,,,,,,,1,64,0,,
79740,note_on,180,0,4,,,,,,,,,3,,,54,62
79740,note_on,0,0,1,,,,,,,,,0,,,74,75
79760,note_on,0,0,1,,,,,,,,,0,,,76,75
79760,note_on,20,0,1,,,,,,,,,0,,,74,0
79779,note_on,19,0,1,,,,,,,,,0,,,74,75
79780,note_on,1,0,1,,,,,,,,,0,,,76,0
79799,note_on,19,0,1,,,,,,,,,0,,,74,0
79800,note_on,1,0,1,,,,,,,,,0,,,73,75
79820,note_on,20,0,1,,,,,,,,,0,,,73,0
79820,note_on,0,0,1,,,,,,,,,0,,,74,75
79830,note_on,90,0,4,,,,,,,,,3,,,54,0
79830,note_on,0,0,4,,,,,,,,,3,,,52,62
79839,note_on,19,0,1,,,,,,,,,0,,,76,75
79840,note_on,1,0,1,,,,,,,,,0,,,74,0
79859,note_on,19,0,1,,,,,,,,,0,,,76,0
79860,note_on,30,0,4,,,,,,,,,3,,,52,0
79860,note_on,0,0,4,,,,,,,,,3,,,50,62
79860,note_on,1,0,1,,,,,,,,,0,,,78,75
79920,note_on,0,0,2,,,,,,,,,1,,,67,62
79920,note_on,0,0,2,,,,,,,,,1,,,69,62
79920,control_change,0,0,2,,,,,,,,,1,64,127,,
79920,note_on,180,0,2,,,,,,,,,1,,,69,0
79920,note_on,0,0,1,,,,,,,,,0,,,74,75
79920,note_on,180,0,3,,,,,,,,,2,,,62,0
79920,note_on,0,0,3,,,,,,,,,2,,,61,62
79920,note_on,0,0,3,,,,,,,,,2,,,57,62
79920,note_on,0,0,3,,,,,,,,,2,,,52,62
79920,control_change,0,0,3,,,,,,,,,2,64,127,,
79920,note_on,0,0,3,,,,,,,,,2,,,57,0
79920,note_on,60,0,1,,,,,,,,,0,,,78,0
79920,control_change,0,0,1,,,,,,,,,0,64,127,,
79920,note_on,60,0,4,,,,,,,,,3,,,50,0
79926,note_on,0,0,3,,,,,,,,,2,,,52,0
79926,note_on,0,0,3,,,,,,,,,2,,,57,0
79926,note_on,6,0,3,,,,,,,,,2,,,61,0
79950,note_on,30,0,1,,,,,,,,,0,,,74,0
79950,note_on,0,0,1,,,,,,,,,0,,,73,75
79980,note_on,0,0,2,,,,,,,,,1,,,67,62
79980,note_on,0,0,2,,,,,,,,,1,,,67,0
79980,note_on,60,0,2,,,,,,,,,1,,,69,0
79980,note_on,0,0,3,,,,,,,,,2,,,61,62
79980,note_on,0,0,2,,,,,,,,,1,,,69,62
79980,note_on,30,0,1,,,,,,,,,0,,,73,0
79980,note_on,54,0,3,,,,,,,,,2,,,52,62
79980,note_on,0,0,1,,,,,,,,,0,,,73,101
79980,note_on,0,0,3,,,,,,,,,2,,,57,62
80100,note_on,0,0,3,,,,,,,,,2,,,57,62
80100,control_change,0,0,3,,,,,,,,,2,64,0,,
80100,note_on,0,0,3,,,,,,,,,2,,,52,0
80100,note_on,0,0,3,,,,,,,,,2,,,57,0
80100,note_on,120,0,3,,,,,,,,,2,,,61,0
80100,note_on,0,0,3,,,,,,,,,2,,,62,62
80100,control_change,0,0,2,,,,,,,,,1,64,0,,
80100,note_on,120,0,1,,,,,,,,,0,,,73,0
80100,note_on,180,0,4,,,,,,,,,3,,,54,62
80100,note_on,0,0,2,,,,,,,,,1,,,69,62
80100,note_on,0,0,1,,,,,,,,,0,,,74,75
80100,control_change,0,0,1,,,,,,,,,0,64,0,,
80100,note_on,120,0,2,,,,,,,,,1,,,69,0
80100,note_on,0,0,2,,,,,,,,,1,,,67,0
80120,note_on,0,0,1,,,,,,,,,0,,,76,75
80120,note_on,20,0,1,,,,,,,,,0,,,74,0
80139,note_on,19,0,1,,,,,,,,,0,,,74,75
80140,note_on,1,0,1,,,,,,,,,0,,,76,0
80159,note_on,19,0,1,,,,,,,,,0,,,74,0
80160,note_on,1,0,1,,,,,,,,,0,,,73,75
80180,note_on,20,0,1,,,,,,,,,0,,,73,0
80180,note_on,0,0,1,,,,,,,,,0,,,74,75
80190,note_on,90,0,4,,,,,,,,,3,,,54,0
80190,note_on,0,0,4,,,,,,,,,3,,,52,62
80199,note_on,19,0,1,,,,,,,,,0,,,76,75
80200,note_on,1,0,1,,,,,,,,,0,,,74,0
80219,note_on,19,0,1,,,,,,,,,0,,,76,0
80220,note_on,1,0,1,,,,,,,,,0,,,78,75
80220,note_on,30,0,4,,,,,,,,,3,,,52,0
80220,note_on,0,0,4,,,,,,,,,3,,,50,62
80220,control_change,0,0,4,,,,,,,,,3,64,0,,
80265,note_on,45,0,1,,,,,,,,,0,,,90,101
80265,note_on,165,0,3,,,,,,,,,2,,,78,62
80280,note_on,15,0,3,,,,,,,,,2,,,78,0
80280,note_on,0,0,3,,,,,,,,,2,,,57,0
80280,control_change,0,0,3,,,,,,,,,2,64,127,,
80280,note_on,0,0,3,,,,,,,,,2,,,62,0
80280,note_on,60,0,4,,,,,,,,,3,,,50,0
80280,note_on,0,0,1,,,,,,,,,0,,,93,88
80280,control_change,0,0,1,,,,,,,,,0,64,127,,
80280,note_on,0,0,3,,,,,,,,,2,,,81,101
80280,note_on,0,0,1,,,,,,,,,0,,,78,0
80280,note_on,15,0,1,,,,,,,,,0,,,90,0
80280,note_on,180,0,2,,,,,,,,,1,,,69,0
80520,note_on,0,0,3,,,,,,,,,2,,,78,36
80520,note_on,240,0,3,,,,,,,,,2,,,81,0
80520,note_on,240,0,1,,,,,,,,,0,,,93,0
80520,note_on,0,0,1,,,,,,,,,0,,,90,49
80580,note_on,0,0,3,,,,,,,,,2,,,74,36
80580,note_on,60,0,3,,,,,,,,,2,,,78,0
80580,note_on,60,0,1,,,,,,,,,0,,,90,0
80580,note_on,0,0,1,,,,,,,,,0,,,86,49
80640,note_on,0,0,3,,,,,,,,,2,,,69,36
80640,note_on,60,0,3,,,,,,,,,2,,,74,0
80640,note_on,60,0,1,,,,,,,,,0,,,86,0
80640,note_on,0,0,1,,,,,,,,,0,,,81,49
80700,note_on,60,0,3,,,,,,,,,2,,,69,0
80700,note_on,0,0,1,,,,,,,,,0,,,78,49
80700,note_on,0,0,3,,,,,,,,,2,,,66,36
80700,note_on,60,0,1,,,,,,,,,0,,,81,0
80760,note_on,0,0,1,,,,,,,,,0,,,74,49
80760,note_on,0,0,3,,,,,,,,,2,,,62,36
80760,note_on,60,0,3,,,,,,,,,2,,,66,0
80760,note_on,60,0,1,,,,,,,,,0,,,78,0
80820,note_on,60,0,3,,,,,,,,,2,,,62,0
80820,note_on,0,0,3,,,,,,,,,2,,,59,36
80820,note_on,60,0,1,,,,,,,,,0,,,74,0
80820,note_on,0,0,1,,,,,,,,,0,,,71,49
80880,control_change,0,0,1,,,,,,,,,0,64,0,,
80880,control_change,0,0,3,,,,,,,,,2,64,0,,
80880,note_on,0,0,3,,,,,,,,,2,,,65,36
80880,note_on,60,0,3,,,,,,,,,2,,,59,0
80880,note_on,60,0,1,,,,,,,,,0,,,71,0
80880,note_on,0,0,1,,,,,,,,,0,,,77,49
80940,note_on,60,0,3,,,,,,,,,2,,,65,0
80940,note_on,0,0,3,,,,,,,,,2,,,66,36
80940,note_on,60,0,1,,,,,,,,,0,,,77,0
80940,note_on,0,0,1,,,,,,,,,0,,,78,49
80985,note_on,45,0,1,,,,,,,,,0,,,71,49
81000,note_on,0,0,1,,,,,,,,,0,,,78,0
81000,note_on,15,0,1,,,,,,,,,0,,,71,0
81000,note_on,0,0,1,,,,,,,,,0,,,69,49
81000,note_on,720,0,2,,,,,,,,,1,,,64,62
81000,note_on,0,0,3,,,,,,,,,2,,,61,36
81000,note_on,60,0,3,,,,,,,,,2,,,66,0
81000,note_on,720,0,4,,,,,,,,,3,,,52,62
81000,control_change,0,0,1,,,,,,,,,0,64,127,,
81090,note_on,0,0,1,,,,,,,,,0,,,68,49
81090,note_on,90,0,1,,,,,,,,,0,,,69,0
81120,note_on,0,0,1,,,,,,,,,0,,,69,49
81120,note_on,30,0,1,,,,,,,,,0,,,68,0
81180,note_on,0,0,2,,,,,,,,,1,,,68,62
81180,note_on,0,0,3,,,,,,,,,2,,,62,36
81180,note_on,180,0,3,,,,,,,,,2,,,61,0
81180,note_on,60,0,1,,,,,,,,,0,,,69,0
81180,control_change,0,0,1,,,,,,,,,0,64,0,,
81180,note_on,0,0,1,,,,,,,,,0,,,73,49
81180,note_on,180,0,2,,,,,,,,,1,,,64,0
81300,note_on,120,0,1,,,,,,,,,0,,,73,0
81300,note_on,0,0,1,,,,,,,,,0,,,71,49
81360,note_on,180,0,3,,,,,,,,,2,,,62,0
81360,control_change,0,0,3,,,,,,,,,2,64,127,,
81360,note_on,0,0,1,,,,,,,,,0,,,69,36
81360,note_on,0,0,3,,,,,,,,,2,,,69,36
81360,note_on,180,0,2,,,,,,,,,1,,,68,0
81360,note_on,60,0,1,,,,,,,,,0,,,71,0
81360,control_change,0,0,1,,,,,,,,,0,64,127,,
81360,note_on,360,0,4,,,,,,,,,3,,,52,0
81360,control_change,0,0,4,,,,,,,,,3,64,127,,
81360,note_on,0,0,4,,,,,,,,,3,,,57,36
81360,note_on,0,0,3,,,,,,,,,2,,,61,36
81366,note_on,6,0,4,,,,,,,,,3,,,57,0
81390,note_on,0,0,1,,,,,,,,,0,,,81,36
81390,note_on,30,0,1,,,,,,,,,0,,,69,0
81420,note_on,0,0,1,,,,,,,,,0,,,81,36
81420,note_on,54,0,4,,,,,,,,,3,,,57,36
81420,note_on,30,0,1,,,,,,,,,0,,,81,0
81420,note_on,0,0,1,,,,,,,,,0,,,69,36
81426,note_on,6,0,4,,,,,,,,,3,,,57,0
81480,note_on,0,0,3,,,,,,,,,2,,,61,0
81480,note_on,0,0,3,,,,,,,,,2,,,64,36
81480,note_on,120,0,3,,,,,,,,,2,,,69,0
81480,note_on,54,0,4,,,,,,,,,3,,,57,36
81486,note_on,6,0,4,,,,,,,,,3,,,57,0
81540,note_on,120,0,1,,,,,,,,,0,,,81,0
81540,note_on,0,0,1,,,,,,,,,0,,,69,0
81540,note_on,0,0,1,,,,,,,,,0,,,73,36
81540,note_on,60,0,3,,,,,,,,,2,,,64,0
81540,note_on,54,0,4,,,,,,,,,3,,,57,36
81540,note_on,0,0,3,,,,,,,,,2,,,65,36
81546,note_on,6,0,4,,,,,,,,,3,,,57,0
81570,note_on,30,0,1,,,,,,,,,0,,,73,0
81570,note_on,0,0,1,,,,,,,,,0,,,85,36
81600,note_on,54,0,4,,,,,,,,,3,,,57,36
81600,note_on,0,0,1,,,,,,,,,0,,,73,36
81600,note_on,0,0,1,,,,,,,,,0,,,85,36
81600,control_change,0,0,1,,,,,,,,,0,64,0,,
81600,note_on,30,0,1,,,,,,,,,0,,,85,0
81606,note_on,6,0,4,,,,,,,,,3,,,57,0
81660,note_on,120,0,3,,,,,,,,,2,,,65,0
81660,control_change,0,0,3,,,,,,,,,2,64,0,,
81660,control_change,54,0,4,,,,,,,,,3,64,127,,
81660,note_on,0,0,4,,,,,,,,,3,,,57,36
81660,note_on,0,0,3,,,,,,,,,2,,,64,36
81666,note_on,6,0,4,,,,,,,,,3,,,57,0
81720,control_change,54,0,4,,,,,,,,,3,64,127,,
81720,note_on,0,0,3,,,,,,,,,2,,,62,36
81720,note_on,60,0,3,,,,,,,,,2,,,64,0
81720,control_change,0,0,1,,,,,,,,,0,64,127,,
81720,note_on,0,0,1,,,,,,,,,0,,,73,0
81720,note_on,120,0,1,,,,,,,,,0,,,85,0
81720,note_on,0,0,1,,,,,,,,,0,,,71,36
81720,note_on,0,0,3,,,,,,,,,2,,,68,36
81720,note_on,0,0,4,,,,,,,,,3,,,57,36
81720,control_change,0,0,3,,,,,,,,,2,64,127,,
81726,note_on,6,0,4,,,,,,,,,3,,,57,0
81750,note_on,30,0,1,,,,,,,,,0,,,71,0
81750,note_on,0,0,1,,,,,,,,,0,,,83,36
81780,note_on,54,0,4,,,,,,,,,3,,,57,36
81780,note_on,30,0,1,,,,,,,,,0,,,83,0
81780,note_on,0,0,1,,,,,,,,,0,,,71,36
81780,note_on,0,0,1,,,,,,,,,0,,,83,36
81786,note_on,6,0,4,,,,,,,,,3,,,57,0
81840,note_on,54,0,4,,,,,,,,,3,,,57,36
81840,note_on,0,0,3,,,,,,,,,2,,,62,0
81840,note_on,120,0,3,,,,,,,,,2,,,68,0
81840,note_on,0,0,3,,,,,,,,,2,,,65,36
81846,note_on,6,0,4,,,,,,,,,3,,,57,0
81900,note_on,54,0,4,,,,,,,,,3,,,57,36
81900,note_on,0,0,3,,,,,,,,,2,,,64,36
81900,note_on,60,0,3,,,,,,,,,2,,,65,0
81900,note_on,120,0,1,,,,,,,,,0,,,83,0
81900,note_on,0,0,1,,,,,,,,,0,,,71,0
81900,note_on,0,0,1,,,,,,,,,0,,,76,36
81906,note_on,6,0,4,,,,,,,,,3,,,57,0
81930,note_on,30,0,1,,,,,,,,,0,,,76,0
81930,note_on,0,0,1,,,,,,,,,0,,,88,36
81960,note_on,30,0,1,,,,,,,,,0,,,88,0
81960,control_change,0,0,1,,,,,,,,,0,64,0,,
81960,note_on,0,0,1,,,,,,,,,0,,,76,36
81960,note_on,54,0,4,,,,,,,,,3,,,57,36
81960,note_on,0,0,1,,,,,,,,,0,,,88,36
81966,note_on,6,0,4,,,,,,,,,3,,,57,0
82020,control_change,0,0,3,,,,,,,,,2,64,0,,
82020,note_on,0,0,4,,,,,,,,,3,,,57,36
82020,control_change,54,0,4,,,,,,,,,3,64,127,,
82020,note_on,120,0,3,,,,,,,,,2,,,64,0
82020,note_on,0,0,3,,,,,,,,,2,,,62,36
82026,note_on,6,0,4,,,,,,,,,3,,,57,0
82080,note_on,120,0,1,,,,,,,,,0,,,88,0
82080,note_on,0,0,1,,,,,,,,,0,,,76,0
82080,note_on,0,0,1,,,,,,,,,0,,,69,36
82080,control_change,0,0,1,,,,,,,,,0,64,127,,
82080,note_on,0,0,3,,,,,,,,,2,,,61,36
82080,control_change,0,0,3,,,,,,,,,2,64,127,,
82080,note_on,60,0,3,,,,,,,,,2,,,62,0
82080,note_on,0,0,3,,,,,,,,,2,,,69,36
82080,control_change,54,0,4,,,,,,,,,3,64,127,,
82080,note_on,0,0,4,,,,,,,,,3,,,57,36
82086,note_on,6,0,4,,,,,,,,,3,,,57,0
82110,note_on,0,0,1,,,,,,,,,0,,,81,36
82110,note_on,30,0,1,,,,,,,,,0,,,69,0
82140,note_on,54,0,4,,,,,,,,,3,,,57,36
82140,note_on,30,0,1,,,,,,,,,0,,,81,0
82140,note_on,0,0,1,,,,,,,,,0,,,69,36
82140,note_on,0,0,1,,,,,,,,,0,,,81,36
82146,note_on,6,0,4,,,,,,,,,3,,,57,0
82200,note_on,54,0,4,,,,,,,,,3,,,57,36
82200,note_on,0,0,3,,,,,,,,,2,,,64,36
82200,note_on,0,0,3,,,,,,,,,2,,,61,0
82200,note_on,120,0,3,,,,,,,,,2,,,69,0
82206,note_on,6,0,4,,,,,,,,,3,,,57,0
82260,note_on,0,0,1,,,,,,,,,0,,,69,0
82260,note_on,0,0,3,,,,,,,,,2,,,65,36
82260,note_on,54,0,4,,,,,,,,,3,,,57,36
82260,note_on,60,0,3,,,,,,,,,2,,,64,0
82260,note_on,0,0,1,,,,,,,,,0,,,73,36
82260,note_on,120,0,1,,,,,,,,,0,,,81,0
82266,note_on,6,0,4,,,,,,,,,3,,,57,0
82290,note_on,30,0,1,,,,,,,,,0,,,73,0
82290,note_on,0,0,1,,,,,,,,,0,,,85,36
82320,note_on,30,0,1,,,,,,,,,0,,,85,0
82320,note_on,0,0,1,,,,,,,,,0,,,85,36
82320,control_change,0,0,1,,,,,,,,,0,64,0,,
82320,note_on,54,0,4,,,,,,,,,3,,,57,36
82320,note_on,0,0,1,,,,,,,,,0,,,73,36
82326,note_on,6,0,4,,,,,,,,,3,,,57,0
82380,control_change,54,0,4,,,,,,,,,3,64,127,,
82380,note_on,0,0,4,,,,,,,,,3,,,57,36
82380,note_on,0,0,3,,,,,,,,,2,,,64,36
82380,control_change,0,0,3,,,,,,,,,2,64,0,,
82380,note_on,120,0,3,,,,,,,,,2,,,65,0
82386,note_on,6,0,4,,,,,,,,,3,,,57,0
82440,note_on,0,0,4,,,,,,,,,3,,,57,36
82440,control_change,54,0,4,,,,,,,,,3,64,127,,
82440,note_on,120,0,1,,,,,,,,,0,,,85,0
82440,note_on,0,0,1,,,,,,,,,0,,,73,0
82440,note_on,0,0,1,,,,,,,,,0,,,71,36
82440,control_change,0,0,1,,,,,,,,,0,64,127,,
82440,note_on,0,0,3,,,,,,,,,2,,,68,36
82440,note_on,0,0,3,,,,,,,,,2,,,62,36
82440,control_change,0,0,3,,,,,,,,,2,64,127,,
82440,note_on,60,0,3,,,,,,,,,2,,,64,0
82446,note_on,6,0,4,,,,,,,,,3,,,57,0
82470,note_on,30,0,1,,,,,,,,,0,,,71,0
82470,note_on,0,0,1,,,,,,,,,0,,,83,36
82500,note_on,30,0,1,,,,,,,,,0,,,83,0
82500,note_on,0,0,1,,,,,,,,,0,,,71,36
82500,note_on,0,0,1,,,,,,,,,0,,,83,36
82500,note_on,54,0,4,,,,,,,,,3,,,57,36
82506,note_on,6,0,4,,,,,,,,,3,,,57,0
82560,note_on,0,0,3,,,,,,,,,2,,,62,0
82560,note_on,120,0,3,,,,,,,,,2,,,68,0
82560,note_on,54,0,4,,,,,,,,,3,,,57,36
82560,note_on,0,0,3,,,,,,,,,2,,,65,36
82566,note_on,6,0,4,,,,,,,,,3,,,57,0
82620,note_on,0,0,1,,,,,,,,,0,,,76,36
82620,note_on,120,0,1,,,,,,,,,0,,,83,0
82620,note_on,60,0,3,,,,,,,,,2,,,65,0
82620,note_on,0,0,1,,,,,,,,,0,,,71,0
82620,note_on,0,0,3,,,,,,,,,2,,,64,36
82620,note_on,54,0,4,,,,,,,,,3,,,57,36
82626,note_on,6,0,4,,,,,,,,,3,,,57,0
82650,note_on,30,0,1,,,,,,,,,0,,,76,0
82650,note_on,0,0,1,,,,,,,,,0,,,88,36
82680,note_on,54,0,4,,,,,,,,,3,,,57,36
82680,control_change,0,0,1,,,,,,,,,0,64,0,,
82680,note_on,0,0,1,,,,,,,,,0,,,76,36
82680,note_on,30,0,1,,,,,,,,,0,,,88,0
82680,note_on,0,0,1,,,,,,,,,0,,,88,36
82686,note_on,6,0,4,,,,,,,,,3,,,57,0
82740,control_change,54,0,4,,,,,,,,,3,64,127,,
82740,note_on,120,0,3,,,,,,,,,2,,,64,0
82740,note_on,0,0,4,,,,,,,,,3,,,57,36
82740,note_on,0,0,3,,,,,,,,,2,,,62,36
82746,note_on,6,0,4,,,,,,,,,3,,,57,0
82800,note_on,0,0,1,,,,,,,,,0,,,69,36
82800,note_on,0,0,3,,,,,,,,,2,,,57,36
82800,note_on,0,0,3,,,,,,,,,2,,,61,36
82800,control_change,0,0,1,,,,,,,,,0,64,0,,
82800,note_on,120,0,1,,,,,,,,,0,,,88,0
82800,control_change,0,0,3,,,,,,,,,2,64,0,,
82800,note_on,0,0,3,,,,,,,,,2,,,69,36
82800,note_on,0,0,1,,,,,,,,,0,,,76,0
82800,note_on,0,0,1,,,,,,,,,0,,,81,36
82800,note_on,60,0,3,,,,,,,,,2,,,62,0
82806,note_on,6,0,1,,,,,,,,,0,,,81,0
82806,note_on,0,0,1,,,,,,,,,0,,,69,0
82860,note_on,0,0,3,,,,,,,,,2,,,57,0
82860,note_on,0,0,3,,,,,,,,,2,,,68,62
82860,control_change,0,0,3,,,,,,,,,2,64,127,,
82860,note_on,0,0,3,,,,,,,,,2,,,61,0
82860,note_on,60,0,3,,,,,,,,,2,,,69,0
82860,note_on,0,0,1,,,,,,,,,0,,,80,62
82860,control_change,54,0,1,,,,,,,,,0,64,127,,
82920,note_on,60,0,1,,,,,,,,,0,,,80,0
82920,note_on,0,0,1,,,,,,,,,0,,,81,36
82920,note_on,0,0,3,,,,,,,,,2,,,69,36
82920,note_on,60,0,3,,,,,,,,,2,,,68,0
82980,note_on,60,0,1,,,,,,,,,0,,,81,0
82980,note_on,0,0,1,,,,,,,,,0,,,76,36
82980,note_on,0,0,3,,,,,,,,,2,,,64,36
82980,note_on,60,0,3,,,,,,,,,2,,,69,0
83040,note_on,60,0,3,,,,,,,,,2,,,64,0
83040,note_on,0,0,3,,,,,,,,,2,,,61,36
83040,note_on,0,0,1,,,,,,,,,0,,,73,36
83040,note_on,60,0,1,,,,,,,,,0,,,76,0
83100,note_on,0,0,1,,,,,,,,,0,,,69,36
83100,control_change,0,0,1,,,,,,,,,0,64,0,,
83100,note_on,60,0,1,,,,,,,,,0,,,73,0
83100,note_on,0,0,3,,,,,,,,,2,,,57,36
83100,control_change,0,0,3,,,,,,,,,2,64,0,,
83100,note_on,60,0,3,,,,,,,,,2,,,61,0
83160,control_change,0,0,1,,,,,,,,,0,64,127,,
83160,note_on,1800,0,2,,,,,,,,,1,,,65,62
83160,note_on,0,0,1,,,,,,,,,0,,,72,49
83160,note_on,0,0,3,,,,,,,,,2,,,53,36
83160,note_on,0,0,3,,,,,,,,,2,,,50,36
83160,note_on,0,0,3,,,,,,,,,2,,,58,36
83160,note_on,60,0,1,,,,,,,,,0,,,69,0
83160,note_on,60,0,3,,,,,,,,,2,,,57,0
83166,note_on,6,0,3,,,,,,,,,2,,,58,0
83166,note_on,0,0,3,,,,,,,,,2,,,53,0
83166,note_on,0,0,3,,,,,,,,,2,,,50,0
83190,note_on,30,0,1,,,,,,,,,0,,,72,0
83190,note_on,0,0,1,,,,,,,,,0,,,70,49
83220,note_on,0,0,3,,,,,,,,,2,,,58,36
83220,note_on,30,0,1,,,,,,,,,0,,,70,0
83220,control_change,0,0,1,,,,,,,,,0,64,0,,
83220,note_on,0,0,1,,,,,,,,,0,,,70,75
83220,note_on,0,0,2,,,,,,,,,1,,,65,62
83220,note_on,60,0,2,,,,,,,,,1,,,65,0
83220,note_on,54,0,3,,,,,,,,,2,,,50,36
83220,note_on,0,0,3,,,,,,,,,2,,,53,36
83340,note_on,0,0,2,,,,,,,,,1,,,65,62
83340,note_on,120,0,1,,,,,,,,,0,,,70,0
83340,note_on,0,0,1,,,,,,,,,0,,,72,49
83340,note_on,0,0,3,,,,,,,,,2,,,50,0
83340,note_on,0,0,3,,,,,,,,,2,,,53,0
83340,note_on,120,0,3,,,,,,,,,2,,,58,0
83340,note_on,0,0,3,,,,,,,,,2,,,58,36
83340,note_on,0,0,3,,,,,,,,,2,,,53,36
83340,note_on,0,0,3,,,,,,,,,2,,,50,36
83340,note_on,120,0,2,,,,,,,,,1,,,65,0
83340,control_change,0,0,1,,,,,,,,,0,64,127,,
83346,note_on,0,0,3,,,,,,,,,2,,,50,0
83346,note_on,0,0,3,,,,,,,,,2,,,53,0
83346,note_on,6,0,3,,,,,,,,,2,,,58,0
83370,note_on,0,0,1,,,,,,,,,0,,,70,49
83370,note_on,30,0,1,,,,,,,,,0,,,72,0
83400,note_on,0,0,1,,,,,,,,,0,,,70,75
83400,note_on,0,0,3,,,,,,,,,2,,,53,36
83400,note_on,54,0,3,,,,,,,,,2,,,50,36
83400,note_on,0,0,2,,,,,,,,,1,,,65,62
83400,control_change,0,0,1,,,,,,,,,0,64,0,,
83400,note_on,30,0,1,,,,,,,,,0,,,70,0
83400,note_on,0,0,3,,,,,,,,,2,,,58,36
83400,note_on,60,0,2,,,,,,,,,1,,,65,0
83520,note_on,0,0,2,,,,,,,,,1,,,70,49
83520,note_on,0,0,2,,,,,,,,,1,,,67,49
83520,note_on,120,0,2,,,,,,,,,1,,,65,0
83520,note_on,0,0,3,,,,,,,,,2,,,58,49
83520,note_on,0,0,3,,,,,,,,,2,,,61,49
83520,note_on,120,0,1,,,,,,,,,0,,,70,0
83520,control_change,0,0,1,,,,,,,,,0,64,127,,
83520,note_on,0,0,1,,,,,,,,,0,,,74,62
83520,note_on,0,0,3,,,,,,,,,2,,,52,49
83520,note_on,0,0,3,,,,,,,,,2,,,50,0
83520,note_on,0,0,3,,,,,,,,,2,,,53,0
83520,note_on,120,0,3,,,,,,,,,2,,,58,0
83526,note_on,0,0,3,,,,,,,,,2,,,58,0
83526,note_on,0,0,2,,,,,,,,,1,,,67,0
83526,note_on,6,0,3,,,,,,,,,2,,,61,0
83526,note_on,0,0,3,,,,,,,,,2,,,52,0
83526,note_on,6,0,2,,,,,,,,,1,,,70,0
83550,note_on,30,0,1,,,,,,,,,0,,,74,0
83550,note_on,0,0,1,,,,,,,,,0,,,73,62
83580,note_on,54,0,3,,,,,,,,,2,,,52,49
83580,note_on,0,0,3,,,,,,,,,2,,,58,49
83580,note_on,0,0,3,,,,,,,,,2,,,61,49
83580,note_on,0,0,1,,,,,,,,,0,,,73,88
83580,note_on,0,0,2,,,,,,,,,1,,,70,49
83580,note_on,54,0,2,,,,,,,,,1,,,67,49
83580,control_change,0,0,1,,,,,,,,,0,64,0,,
83580,note_on,30,0,1,,,,,,,,,0,,,73,0
83700,note_on,0,0,3,,,,,,,,,2,,,52,62
83700,note_on,0,0,3,,,,,,,,,2,,,58,0
83700,note_on,0,0,3,,,,,,,,,2,,,58,62
83700,note_on,120,0,3,,,,,,,,,2,,,61,0
83700,note_on,0,0,3,,,,,,,,,2,,,52,0
83700,note_on,0,0,3,,,,,,,,,2,,,61,62
83700,note_on,0,0,2,,,,,,,,,1,,,67,62
83700,note_on,0,0,1,,,,,,,,,0,,,74,75
83700,note_on,0,0,2,,,,,,,,,1,,,67,0
83700,note_on,120,0,2,,,,,,,,,1,,,70,0
83700,note_on,120,0,1,,,,,,,,,0,,,73,0
83700,control_change,0,0,1,,,,,,,,,0,64,127,,
83700,note_on,0,0,2,,,,,,,,,1,,,70,62
83706,note_on,6,0,2,,,,,,,,,1,,,70,0
83706,note_on,0,0,2,,,,,,,,,1,,,67,0
83706,note_on,6,0,3,,,,,,,,,2,,,61,0
83706,note_on,0,0,3,,,,,,,,,2,,,58,0
83706,note_on,0,0,3,,,,,,,,,2,,,52,0
83730,note_on,0,0,1,,,,,,,,,0,,,73,75
83730,note_on,30,0,1,,,,,,,,,0,,,74,0
83760,note_on,0,0,1,,,,,,,,,0,,,73,101
83760,control_change,0,0,1,,,,,,,,,0,64,0,,
83760,note_on,30,0,1,,,,,,,,,0,,,73,0
83760,note_on,0,0,2,,,,,,,,,1,,,70,62
83760,note_on,54,0,3,,,,,,,,,2,,,52,62
83760,note_on,0,0,3,,,,,,,,,2,,,58,62
83760,note_on,0,0,3,,,,,,,,,2,,,61,62
83760,note_on,54,0,2,,,,,,,,,1,,,67,62
83880,note_on,120,0,3,,,,,,,,,2,,,61,0
83880,note_on,120,0,2,,,,,,,,,1,,,70,0
83880,note_on,0,0,2,,,,,,,,,1,,,67,0
83880,note_on,0,0,2,,,,,,,,,1,,,65,75
83880,note_on,0,0,2,,,,,,,,,1,,,70,75
83880,note_on,0,0,3,,,,,,,,,2,,,52,0
83880,note_on,0,0,3,,,,,,,,,2,,,53,75
83880,note_on,0,0,3,,,,,,,,,2,,,58,75
83880,note_on,0,0,3,,,,,,,,,2,,,62,75
83880,note_on,0,0,3,,,,,,,,,2,,,58,0
83880,control_change,0,0,1,,,,,,,,,0,64,127,,
83880,note_on,120,0,1,,,,,,,,,0,,,73,0
83880,note_on,0,0,1,,,,,,,,,0,,,75,88
83886,note_on,6,0,2,,,,,,,,,1,,,70,0
83886,note_on,0,0,2,,,,,,,,,1,,,65,0
83886,note_on,0,0,3,,,,,,,,,2,,,53,0
83886,note_on,0,0,3,,,,,,,,,2,,,58,0
83886,note_on,6,0,3,,,,,,,,,2,,,62,0
83910,note_on,0,0,1,,,,,,,,,0,,,74,88
83910,note_on,30,0,1,,,,,,,,,0,,,75,0
83940,note_on,0,0,1,,,,,,,,,0,,,74,114
83940,control_change,0,0,1,,,,,,,,,0,64,0,,
83940,note_on,30,0,1,,,,,,,,,0,,,74,0
83940,note_on,54,0,2,,,,,,,,,1,,,65,75
83940,note_on,0,0,3,,,,,,,,,2,,,62,75
83940,note_on,54,0,3,,,,,,,,,2,,,53,75
83940,note_on,0,0,3,,,,,,,,,2,,,58,75
83940,note_on,0,0,2,,,,,,,,,1,,,70,75
84060,note_on,0,0,3,,,,,,,,,2,,,60,75
84060,note_on,0,0,3,,,,,,,,,2,,,63,75
84060,note_on,120,0,3,,,,,,,,,2,,,62,0
84060,note_on,0,0,3,,,,,,,,,2,,,58,0
84060,note_on,0,0,3,,,,,,,,,2,,,53,0
84060,note_on,0,0,3,,,,,,,,,2,,,53,75
84060,note_on,0,0,2,,,,,,,,,1,,,72,75
84060,control_change,0,0,1,,,,,,,,,0,64,127,,
84060,note_on,0,0,2,,,,,,,,,1,,,69,75
84060,note_on,0,0,2,,,,,,,,,1,,,65,0
84060,note_on,120,0,2,,,,,,,,,1,,,70,0
84060,note_on,120,0,1,,,,,,,,,0,,,74,0
84060,note_on,0,0,1,,,,,,,,,0,,,79,88
84066,note_on,0,0,3,,,,,,,,,2,,,53,0
84066,note_on,0,0,3,,,,,,,,,2,,,60,0
84066,note_on,6,0,3,,,,,,,,,2,,,63,0
84066,note_on,0,0,2,,,,,,,,,1,,,69,0
84066,note_on,6,0,2,,,,,,,,,1,,,72,0
84090,note_on,30,0,1,,,,,,,,,0,,,79,0
84090,note_on,0,0,1,,,,,,,,,0,,,77,88
84120,note_on,0,0,3,,,,,,,,,2,,,63,75
84120,note_on,0,0,3,,,,,,,,,2,,,60,75
84120,note_on,54,0,3,,,,,,,,,2,,,53,75
84120,control_change,0,0,1,,,,,,,,,0,64,0,,
84120,note_on,54,0,2,,,,,,,,,1,,,69,75
84120,note_on,0,0,2,,,,,,,,,1,,,72,75
84120,note_on,0,0,1,,,,,,,,,0,,,77,114
84120,note_on,30,0,1,,,,,,,,,0,,,77,0
84240,note_on,120,0,2,,,,,,,,,1,,,72,0
84240,note_on,0,0,2,,,,,,,,,1,,,69,0
84240,note_on,0,0,2,,,,,,,,,1,,,77,75
84240,note_on,0,0,2,,,,,,,,,1,,,82,75
84240,note_on,120,0,3,,,,,,,,,2,,,63,0
84240,note_on,0,0,3,,,,,,,,,2,,,60,0
84240,note_on,0,0,3,,,,,,,,,2,,,53,0
84240,note_on,0,0,3,,,,,,,,,2,,,70,75
84240,note_on,0,0,3,,,,,,,,,2,,,65,75
84240,note_on,0,0,3,,,,,,,,,2,,,74,75
84240,note_on,120,0,1,,,,,,,,,0,,,77,0
84240,control_change,0,0,1,,,,,,,,,0,64,127,,
84240,note_on,0,0,1,,,,,,,,,0,,,87,88
84246,note_on,0,0,2,,,,,,,,,1,,,77,0
84246,note_on,0,0,3,,,,,,,,,2,,,65,0
84246,note_on,0,0,3,,,,,,,,,2,,,70,0
84246,note_on,6,0,3,,,,,,,,,2,,,74,0
84246,note_on,6,0,2,,,,,,,,,1,,,82,0
84270,note_on,30,0,1,,,,,,,,,0,,,87,0
84270,note_on,0,0,1,,,,,,,,,0,,,86,88
84300,note_on,0,0,2,,,,,,,,,1,,,82,75
84300,note_on,54,0,2,,,,,,,,,1,,,77,75
84300,note_on,30,0,1,,,,,,,,,0,,,86,0
84300,control_change,0,0,1,,,,,,,,,0,64,0,,
84300,note_on,0,0,1,,,,,,,,,0,,,86,114
84300,note_on,0,0,3,,,,,,,,,2,,,74,75
84300,note_on,0,0,3,,,,,,,,,2,,,70,75
84300,note_on,54,0,3,,,,,,,,,2,,,65,75
84420,note_on,120,0,3,,,,,,,,,2,,,74,0
84420,note_on,0,0,2,,,,,,,,,1,,,81,75
84420,control_change,0,0,2,,,,,,,,,1,64,127,,
84420,note_on,0,0,2,,,,,,,,,1,,,77,0
84420,note_on,120,0,2,,,,,,,,,1,,,82,0
84420,note_on,0,0,3,,,,,,,,,2,,,65,0
84420,control_change,0,0,3,,,,,,,,,2,64,127,,
84420,note_on,0,0,2,,,,,,,,,1,,,84,75
84420,note_on,0,0,3,,,,,,,,,2,,,65,75
84420,note_on,0,0,3,,,,,,,,,2,,,75,75
84420,note_on,0,0,3,,,,,,,,,2,,,70,0
84420,note_on,120,0,1,,,,,,,,,0,,,86,0
84420,control_change,0,0,1,,,,,,,,,0,64,127,,
84420,note_on,0,0,1,,,,,,,,,0,,,91,88
84420,note_on,0,0,3,,,,,,,,,2,,,72,75
84426,note_on,0,0,2,,,,,,,,,1,,,81,0
84426,note_on,6,0,2,,,,,,,,,1,,,84,0
84450,note_on,30,0,1,,,,,,,,,0,,,91,0
84450,note_on,0,0,1,,,,,,,,,0,,,89,88
84480,note_on,54,0,2,,,,,,,,,1,,,81,75
84480,note_on,0,0,2,,,,,,,,,1,,,84,75
84480,note_on,0,0,3,,,,,,,,,2,,,65,91
84480,note_on,60,0,3,,,,,,,,,2,,,75,0
84480,note_on,0,0,3,,,,,,,,,2,,,72,0
84480,note_on,0,0,3,,,,,,,,,2,,,65,0
84480,note_on,0,0,3,,,,,,,,,2,,,72,96
84480,note_on,0,0,3,,,,,,,,,2,,,75,101
84480,note_on,30,0,1,,,,,,,,,0,,,89,0
84480,note_on,0,0,1,,,,,,,,,0,,,89,114
84660,note_on,180,0,1,,,,,,,,,0,,,89,0
84660,note_on,0,0,1,,,,,,,,,0,,,89,88
84660,note_on,180,0,3,,,,,,,,,2,,,75,0
84660,note_on,0,0,3,,,,,,,,,2,,,72,0
84660,note_on,0,0,3,,,,,,,,,2,,,65,0
84660,note_on,0,0,3,,,,,,,,,2,,,65,75
84660,note_on,0,0,3,,,,,,,,,2,,,72,75
84660,note_on,0,0,3,,,,,,,,,2,,,75,75
84660,note_on,0,0,2,,,,,,,,,1,,,84,75
84660,note_on,0,0,2,,,,,,,,,1,,,81,75
84660,note_on,0,0,2,,,,,,,,,1,,,81,0
84660,note_on,180,0,2,,,,,,,,,1,,,84,0
84666,note_on,0,0,2,,,,,,,,,1,,,81,0
84666,note_on,6,0,2,,,,,,,,,1,,,84,0
84666,note_on,6,0,1,,,,,,,,,0,,,89,0
84720,note_on,54,0,2,,,,,,,,,1,,,81,75
84720,note_on,54,0,1,,,,,,,,,0,,,89,88
84720,note_on,0,0,2,,,,,,,,,1,,,84,75
84720,note_on,60,0,3,,,,,,,,,2,,,75,0
84720,note_on,0,0,3,,,,,,,,,2,,,72,75
84720,note_on,0,0,3,,,,,,,,,2,,,65,0
84720,note_on,0,0,3,,,,,,,,,2,,,65,75
84720,note_on,0,0,3,,,,,,,,,2,,,75,75
84720,note_on,0,0,3,,,,,,,,,2,,,72,0
84726,note_on,0,0,2,,,,,,,,,1,,,81,0
84726,note_on,6,0,2,,,,,,,,,1,,,84,0
84726,note_on,6,0,1,,,,,,,,,0,,,89,0
84780,note_on,0,0,2,,,,,,,,,1,,,84,75
84780,note_on,54,0,2,,,,,,,,,1,,,81,75
84780,note_on,54,0,1,,,,,,,,,0,,,89,88
84780,note_on,60,0,3,,,,,,,,,2,,,75,0
84780,note_on,0,0,3,,,,,,,,,2,,,72,0
84780,note_on,0,0,3,,,,,,,,,2,,,65,0
84780,note_on,0,0,3,,,,,,,,,2,,,72,75
84780,note_on,0,0,3,,,,,,,,,2,,,75,75
84780,note_on,0,0,3,,,,,,,,,2,,,65,75
84786,note_on,6,0,1,,,,,,,,,0,,,89,0
84786,note_on,6,0,2,,,,,,,,,1,,,84,0
84786,note_on,0,0,2,,,,,,,,,1,,,81,0
84840,note_on,0,0,3,,,,,,,,,2,,,75,75
84840,note_on,0,0,3,,,,,,,,,2,,,72,75
84840,note_on,0,0,3,,,,,,,,,2,,,65,75
84840,note_on,0,0,3,,,,,,,,,2,,,65,0
84840,note_on,0,0,3,,,,,,,,,2,,,72,0
84840,note_on,60,0,3,,,,,,,,,2,,,75,0
84840,note_on,54,0,1,,,,,,,,,0,,,89,88
84840,note_on,0,0,2,,,,,,,,,1,,,84,75
84840,note_on,54,0,2,,,,,,,,,1,,,81,75
84846,note_on,6,0,1,,,,,,,,,0,,,89,0
84846,note_on,6,0,2,,,,,,,,,1,,,84,0
84846,note_on,0,0,2,,,,,,,,,1,,,81,0
84900,note_on,0,0,2,,,,,,,,,1,,,84,75
84900,control_change,54,0,2,,,,,,,,,1,64,0,,
84900,note_on,0,0,2,,,,,,,,,1,,,81,75
84900,note_on,0,0,3,,,,,,,,,2,,,72,0
84900,note_on,0,0,3,,,,,,,,,2,,,65,0
84900,note_on,0,0,3,,,,,,,,,2,,,65,75
84900,note_on,0,0,3,,,,,,,,,2,,,72,75
84900,note_on,0,0,1,,,,,,,,,0,,,89,88
84900,control_change,54,0,1,,,,,,,,,0,64,0,,
84900,note_on,0,0,3,,,,,,,,,2,,,75,75
84900,control_change,0,0,3,,,,,,,,,2,64,0,,
84900,note_on,60,0,3,,,,,,,,,2,,,75,0
84906,note_on,6,0,2,,,,,,,,,1,,,84,0
84906,note_on,6,0,1,,,,,,,,,0,,,89,0
84906,note_on,0,0,2,,,,,,,,,1,,,81,0
84960,note_on,0,0,1,,,,,,,,,0,,,87,101
84960,note_on,0,0,1,,,,,,,,,0,,,84,101
84960,control_change,54,0,1,,,,,,,,,0,64,127,,
84960,note_on,60,0,3,,,,,,,,,2,,,75,0
84960,note_on,0,0,3,,,,,,,,,2,,,72,0
84960,control_change,0,0,3,,,,,,,,,2,64,127,,
84960,note_on,0,0,3,,,,,,,,,2,,,65,88
84960,note_on,0,0,3,,,,,,,,,2,,,69,88
84960,note_on,0,0,3,,,,,,,,,2,,,75,88
84960,note_on,0,0,1,,,,,,,,,0,,,93,101
84960,note_on,0,0,3,,,,,,,,,2,,,65,0
84966,note_on,0,0,3,,,,,,,,,2,,,69,0
84966,note_on,6,0,1,,,,,,,,,0,,,93,0
84966,note_on,0,0,1,,,,,,,,,0,,,84,0
84966,note_on,0,0,1,,,,,,,,,0,,,87,0
84966,note_on,6,0,3,,,,,,,,,2,,,75,0
84966,note_on,0,0,3,,,,,,,,,2,,,65,0
85020,note_on,0,0,1,,,,,,,,,0,,,93,101
85020,note_on,0,0,1,,,,,,,,,0,,,87,101
85020,note_on,54,0,1,,,,,,,,,0,,,83,101
85020,note_on,0,0,3,,,,,,,,,2,,,75,88
85020,note_on,54,0,3,,,,,,,,,2,,,65,88
85020,note_on,0,0,3,,,,,,,,,2,,,71,88
85026,note_on,0,0,3,,,,,,,,,2,,,65,0
85026,note_on,0,0,3,,,,,,,,,2,,,71,0
85026,note_on,6,0,3,,,,,,,,,2,,,75,0
85026,note_on,6,0,1,,,,,,,,,0,,,93,0
85026,note_on,0,0,1,,,,,,,,,0,,,87,0
85026,note_on,0,0,1,,,,,,,,,0,,,83,0
85080,note_on,54,0,1,,,,,,,,,0,,,81,101
85080,note_on,54,0,3,,,,,,,,,2,,,65,88
85080,note_on,0,0,3,,,,,,,,,2,,,72,88
85080,note_on,0,0,3,,,,,,,,,2,,,75,88
85080,note_on,0,0,1,,,,,,,,,0,,,87,101
85080,note_on,0,0,1,,,,,,,,,0,,,93,101
85086,note_on,6,0,3,,,,,,,,,2,,,75,0
85086,note_on,0,0,3,,,,,,,,,2,,,72,0
85086,note_on,0,0,3,,,,,,,,,2,,,65,0
85086,note_on,0,0,1,,,,,,,,,0,,,81,0
85086,note_on,0,0,1,,,,,,,,,0,,,87,0
85086,note_on,6,0,1,,,,,,,,,0,,,93,0
85140,note_on,54,0,3,,,,,,,,,2,,,65,88
85140,note_on,0,0,3,,,,,,,,,2,,,69,88
85140,note_on,0,0,3,,,,,,,,,2,,,75,88
85140,note_on,54,0,1,,,,,,,,,0,,,84,101
85140,note_on,0,0,1,,,,,,,,,0,,,87,101
85140,note_on,0,0,1,,,,,,,,,0,,,93,101
85146,note_on,6,0,1,,,,,,,,,0,,,93,0
85146,note_on,0,0,1,,,,,,,,,0,,,84,0
85146,note_on,6,0,3,,,,,,,,,2,,,75,0
85146,note_on,0,0,1,,,,,,,,,0,,,87,0
85146,note_on,0,0,3,,,,,,,,,2,,,69,0
85146,note_on,0,0,3,,,,,,,,,2,,,65,0
85200,note_on,0,0,1,,,,,,,,,0,,,87,101
85200,note_on,0,0,1,,,,,,,,,0,,,93,101
85200,note_on,54,0,3,,,,,,,,,2,,,65,88
85200,note_on,54,0,1,,,,,,,,,0,,,83,101
85200,note_on,0,0,3,,,,,,,,,2,,,75,88
85200,note_on,0,0,3,,,,,,,,,2,,,71,88
85206,note_on,6,0,3,,,,,,,,,2,,,75,0
85206,note_on,0,0,3,,,,,,,,,2,,,65,0
85206,note_on,0,0,1,,,,,,,,,0,,,83,0
85206,note_on,0,0,1,,,,,,,,,0,,,87,0
85206,note_on,6,0,1,,,,,,,,,0,,,93,0
85206,note_on,0,0,3,,,,,,,,,2,,,71,0
85260,note_on,0,0,1,,,,,,,,,0,,,93,101
85260,note_on,0,0,1,,,,,,,,,0,,,81,101
85260,note_on,0,0,1,,,,,,,,,0,,,87,101
85260,note_on,0,0,3,,,,,,,,,2,,,75,88
85260,control_change,54,0,3,,,,,,,,,2,64,0,,
85260,note_on,0,0,3,,,,,,,,,2,,,72,88
85260,control_change,54,0,1,,,,,,,,,0,64,0,,
85260,note_on,0,0,3,,,,,,,,,2,,,65,88
85266,note_on,6,0,3,,,,,,,,,2,,,75,0
85266,note_on,0,0,3,,,,,,,,,2,,,72,0
85266,note_on,0,0,3,,,,,,,,,2,,,65,0
85266,note_on,6,0,1,,,,,,,,,0,,,93,0
85266,note_on,0,0,1,,,,,,,,,0,,,87,0
85266,note_on,0,0,1,,,,,,,,,0,,,81,0
85320,note_on,0,0,3,,,,,,,,,2,,,64,75
85320,control_change,54,0,3,,,,,,,,,2,64,127,,
85320,note_on,0,0,1,,,,,,,,,0,,,85,88
85320,note_on,0,0,1,,,,,,,,,0,,,88,88
85320,note_on,0,0,3,,,,,,,,,2,,,76,75
85320,note_on,0,0,3,,,,,,,,,2,,,73,75
85320,control_change,54,0,1,,,,,,,,,0,64,127,,
85320,note_on,0,0,1,,,,,,,,,0,,,81,88
85320,note_on,0,0,3,,,,,,,,,2,,,69,75
85320,note_on,0,0,1,,,,,,,,,0,,,93,88
85560,note_on,240,0,3,,,,,,,,,2,,,76,0
85560,note_on,240,0,1,,,,,,,,,0,,,93,0
85560,note_on,0,0,1,,,,,,,,,0,,,81,0
85560,note_on,0,0,1,,,,,,,,,0,,,85,0
85560,note_on,0,0,1,,,,,,,,,0,,,88,0
85560,note_on,0,0,1,,,,,,,,,0,,,88,49
85560,note_on,0,0,3,,,,,,,,,2,,,69,0
85560,note_on,0,0,3,,,,,,,,,2,,,64,0
85560,note_on,0,0,3,,,,,,,,,2,,,73,0
85560,note_on,0,0,3,,,,,,,,,2,,,76,36
85620,note_on,60,0,1,,,,,,,,,0,,,88,0
85620,note_on,0,0,1,,,,,,,,,0,,,85,49
85620,note_on,0,0,3,,,,,,,,,2,,,73,36
85620,note_on,60,0,3,,,,,,,,,2,,,76,0
85680,note_on,0,0,1,,,,,,,,,0,,,81,49
85680,note_on,60,0,3,,,,,,,,,2,,,73,0
85680,note_on,0,0,3,,,,,,,,,2,,,69,36
85680,note_on,60,0,1,,,,,,,,,0,,,85,0
85740,note_on,0,0,3,,,,,,,,,2,,,64,36
85740,note_on,60,0,3,,,,,,,,,2,,,69,0
85740,note_on,0,0,1,,,,,,,,,0,,,76,49
85740,note_on,60,0,1,,,,,,,,,0,,,81,0
85800,note_on,0,0,1,,,,,,,,,0,,,73,49
85800,note_on,60,0,1,,,,,,,,,0,,,76,0
85800,note_on,0,0,3,,,,,,,,,2,,,61,36
85800,note_on,60,0,3,,,,,,,,,2,,,64,0
85860,control_change,0,0,1,,,,,,,,,0,64,0,,
85860,note_on,0,0,1,,,,,,,,,0,,,69,49
85860,note_on,0,0,3,,,,,,,,,2,,,57,36
85860,note_on,60,0,1,,,,,,,,,0,,,73,0
85860,control_change,0,0,3,,,,,,,,,2,64,0,,
85860,note_on,60,0,3,,,,,,,,,2,,,61,0
85920,note_on,60,0,3,,,,,,,,,2,,,57,0
85920,note_on,60,0,1,,,,,,,,,0,,,69,0
85920,note_on,0,0,3,,,,,,,,,2,,,54,36
85920,note_on,0,0,1,,,,,,,,,0,,,66,49
85980,note_on,0,0,1,,,,,,,,,0,,,63,49
85980,note_on,60,0,3,,,,,,,,,2,,,54,0
85980,note_on,0,0,3,,,,,,,,,2,,,51,36
85980,note_on,60,0,1,,,,,,,,,0,,,66,0
86010,note_on,30,0,1,,,,,,,,,0,,,69,49
86025,note_on,15,0,1,,,,,,,,,0,,,69,0
86025,note_on,0,0,1,,,,,,,,,0,,,71,49
86040,note_on,60,0,3,,,,,,,,,2,,,51,0
86040,note_on,0,0,3,,,,,,,,,2,,,61,36
86040,control_change,0,0,1,,,,,,,,,0,64,127,,
86040,note_on,0,0,1,,,,,,,,,0,,,69,49
86040,note_on,15,0,1,,,,,,,,,0,,,71,0
86040,note_on,3294,0,4,,,,,,,,,3,,,52,36
86040,note_on,1134,0,2,,,,,,,,,1,,,64,75
86040,note_on,0,0,1,,,,,,,,,0,,,63,0
86130,note_on,90,0,1,,,,,,,,,0,,,69,0
86130,note_on,0,0,1,,,,,,,,,0,,,68,49
86160,note_on,0,0,1,,,,,,,,,0,,,69,49
86160,note_on,30,0,1,,,,,,,,,0,,,68,0
86220,note_on,60,0,1,,,,,,,,,0,,,69,0
86220,note_on,0,0,3,,,,,,,,,2,,,62,36
86220,note_on,180,0,2,,,,,,,,,1,,,64,0
86220,note_on,0,0,2,,,,,,,,,1,,,68,75
86220,control_change,0,0,1,,,,,,,,,0,64,0,,
86220,note_on,180,0,3,,,,,,,,,2,,,61,0
86220,note_on,0,0,1,,,,,,,,,0,,,73,49
86340,note_on,0,0,1,,,,,,,,,0,,,71,49
86340,note_on,120,0,1,,,,,,,,,0,,,73,0
86400,control_change,0,0,4,,,,,,,,,3,64,127,,
86400,note_on,0,0,4,,,,,,,,,3,,,45,36
86400,note_on,60,0,1,,,,,,,,,0,,,71,0
86400,note_on,0,0,2,,,,,,,,,1,,,57,36
86400,note_on,180,0,2,,,,,,,,,1,,,68,0
86400,note_on,0,0,3,,,,,,,,,2,,,49,36
86400,note_on,180,0,3,,,,,,,,,2,,,62,0
86400,note_on,0,0,1,,,,,,,,,0,,,69,36
86400,note_on,360,0,4,,,,,,,,,3,,,52,0
86400,note_on,0,0,1,,,,,,,,,0,,,57,36
86406,note_on,6,0,4,,,,,,,,,3,,,45,0
86460,note_on,54,0,4,,,,,,,,,3,,,45,36
86466,note_on,6,0,4,,,,,,,,,3,,,45,0
86520,note_on,54,0,4,,,,,,,,,3,,,45,36
86526,note_on,6,0,4,,,,,,,,,3,,,45,0
86580,note_on,0,0,1,,,,,,,,,0,,,61,36
86580,note_on,0,0,1,,,,,,,,,0,,,57,0
86580,note_on,180,0,1,,,,,,,,,0,,,69,0
86580,note_on,180,0,3,,,,,,,,,2,,,49,0
86580,note_on,54,0,4,,,,,,,,,3,,,45,36
86580,note_on,0,0,3,,,,,,,,,2,,,52,36
86586,note_on,6,0,4,,,,,,,,,3,,,45,0
86640,note_on,54,0,4,,,,,,,,,3,,,45,36
86646,note_on,6,0,4,,,,,,,,,3,,,45,0
86700,control_change,54,0,4,,,,,,,,,3,64,127,,
86700,note_on,0,0,4,,,,,,,,,3,,,45,36
86706,note_on,6,0,4,,,,,,,,,3,,,45,0
86760,note_on,360,0,2,,,,,,,,,1,,,57,0
86760,note_on,0,0,2,,,,,,,,,1,,,56,36
86760,note_on,0,0,1,,,,,,,,,0,,,64,62
86760,note_on,0,0,4,,,,,,,,,3,,,45,36
86760,note_on,180,0,3,,,,,,,,,2,,,52,0
86760,note_on,0,0,1,,,,,,,,,0,,,59,54
86760,control_change,0,0,1,,,,,,,,,0,64,127,,
86760,note_on,180,0,1,,,,,,,,,0,,,61,0
86760,control_change,54,0,4,,,,,,,,,3,64,127,,
86760,note_on,0,0,3,,,,,,,,,2,,,53,36
86766,note_on,6,0,4,,,,,,,,,3,,,45,0
86820,note_on,54,0,4,,,,,,,,,3,,,45,36
86826,note_on,6,0,4,,,,,,,,,3,,,45,0
86880,note_on,54,0,4,,,,,,,,,3,,,45,36
86886,note_on,6,0,4,,,,,,,,,3,,,45,0
86940,note_on,180,0,1,,,,,,,,,0,,,64,0
86940,note_on,0,0,1,,,,,,,,,0,,,62,36
86940,note_on,54,0,4,,,,,,,,,3,,,45,36
86946,note_on,6,0,4,,,,,,,,,3,,,45,0
87000,note_on,54,0,4,,,,,,,,,3,,,45,36
87006,note_on,6,0,4,,,,,,,,,3,,,45,0
87060,note_on,0,0,1,,,,,,,,,0,,,59,0
87060,note_on,0,0,4,,,,,,,,,3,,,45,36
87060,control_change,0,0,1,,,,,,,,,0,64,0,,
87060,note_on,0,0,1,,,,,,,,,0,,,61,36
87060,control_change,54,0,4,,,,,,,,,3,64,127,,
87060,note_on,120,0,1,,,,,,,,,0,,,62,0
87066,note_on,6,0,4,,,,,,,,,3,,,45,0
87120,control_change,0,0,1,,,,,,,,,0,64,127,,
87120,note_on,0,0,2,,,,,,,,,1,,,56,36
87120,note_on,360,0,2,,,,,,,,,1,,,56,0
87120,note_on,0,0,1,,,,,,,,,0,,,59,36
87120,note_on,60,0,1,,,,,,,,,0,,,61,0
87120,note_on,0,0,3,,,,,,,,,2,,,52,36
87120,note_on,360,0,3,,,,,,,,,2,,,53,0
87120,note_on,0,0,4,,,,,,,,,3,,,45,36
87120,control_change,54,0,4,,,,,,,,,3,64,127,,
87126,note_on,6,0,4,,,,,,,,,3,,,45,0
87180,note_on,54,0,4,,,,,,,,,3,,,45,36
87186,note_on,6,0,4,,,,,,,,,3,,,45,0
87240,note_on,54,0,4,,,,,,,,,3,,,45,36
87246,note_on,6,0,4,,,,,,,,,3,,,45,0
87300,note_on,0,0,3,,,,,,,,,2,,,50,36
87300,note_on,54,0,4,,,,,,,,,3,,,45,36
87300,note_on,180,0,3,,,,,,,,,2,,,52,0
87306,note_on,6,0,4,,,,,,,,,3,,,45,0
87360,note_on,0,0,1,,,,,,,,,0,,,62,36
87360,note_on,54,0,4,,,,,,,,,3,,,45,36
87360,note_on,240,0,1,,,,,,,,,0,,,59,0
87366,note_on,6,0,4,,,,,,,,,3,,,45,0
87420,control_change,0,0,1,,,,,,,,,0,64,0,,
87420,note_on,0,0,4,,,,,,,,,3,,,45,36
87420,note_on,0,0,1,,,,,,,,,0,,,65,36
87420,note_on,60,0,1,,,,,,,,,0,,,62,0
87420,control_change,54,0,4,,,,,,,,,3,64,127,,
87426,note_on,6,0,4,,,,,,,,,3,,,45,0
87480,note_on,0,0,1,,,,,,,,,0,,,65,36
87480,control_change,54,0,4,,,,,,,,,3,64,127,,
87480,note_on,0,0,4,,,,,,,,,3,,,45,36
87480,note_on,60,0,1,,,,,,,,,0,,,65,0
87480,note_on,0,0,3,,,,,,,,,2,,,49,36
87480,note_on,180,0,3,,,,,,,,,2,,,50,0
87480,note_on,360,0,2,,,,,,,,,1,,,56,0
87480,note_on,0,0,2,,,,,,,,,1,,,57,36
87486,note_on,6,0,4,,,,,,,,,3,,,45,0
87540,note_on,54,0,4,,,,,,,,,3,,,45,36
87546,note_on,6,0,4,,,,,,,,,3,,,45,0
87600,note_on,54,0,4,,,,,,,,,3,,,45,36
87606,note_on,6,0,4,,,,,,,,,3,,,45,0
87660,note_on,180,0,1,,,,,,,,,0,,,65,0
87660,note_on,0,0,1,,,,,,,,,0,,,64,36
87660,note_on,54,0,4,,,,,,,,,3,,,45,36
87666,note_on,6,0,4,,,,,,,,,3,,,45,0
87720,note_on,54,0,4,,,,,,,,,3,,,45,36
87726,note_on,6,0,4,,,,,,,,,3,,,45,0
87780,control_change,54,0,4,,,,,,,,,3,64,127,,
87780,note_on,0,0,4,,,,,,,,,3,,,45,36
87786,note_on,6,0,4,,,,,,,,,3,,,45,0
87840,control_change,54,0,4,,,,,,,,,3,64,127,,
87840,note_on,0,0,1,,,,,,,,,0,,,57,36
87840,note_on,0,0,3,,,,,,,,,2,,,49,36
87840,note_on,360,0,3,,,,,,,,,2,,,49,0
87840,note_on,0,0,4,,,,,,,,,3,,,45,36
87840,note_on,180,0,1,,,,,,,,,0,,,64,0
87840,note_on,0,0,2,,,,,,,,,1,,,57,36
87840,note_on,360,0,2,,,,,,,,,1,,,57,0
87846,note_on,6,0,4,,,,,,,,,3,,,45,0
87900,note_on,54,0,4,,,,,,,,,3,,,45,36
87906,note_on,6,0,4,,,,,,,,,3,,,45,0
87960,note_on,54,0,4,,,,,,,,,3,,,45,36
87966,note_on,6,0,4,,,,,,,,,3,,,45,0
88020,note_on,0,0,1,,,,,,,,,0,,,61,36
88020,note_on,54,0,4,,,,,,,,,3,,,45,36
88020,note_on,0,0,3,,,,,,,,,2,,,55,36
88020,note_on,180,0,3,,,,,,,,,2,,,49,0
88020,note_on,180,0,1,,,,,,,,,0,,,57,0
88026,note_on,6,0,4,,,,,,,,,3,,,45,0
88080,note_on,54,0,4,,,,,,,,,3,,,45,36
88086,note_on,6,0,4,,,,,,,,,3,,,45,0
88140,note_on,0,0,4,,,,,,,,,3,,,45,36
88140,control_change,54,0,4,,,,,,,,,3,64,127,,
88146,note_on,6,0,4,,,,,,,,,3,,,45,0
88200,note_on,360,0,2,,,,,,,,,1,,,57,0
88200,note_on,0,0,1,,,,,,,,,0,,,59,54
88200,note_on,0,0,2,,,,,,,,,1,,,56,36
88200,control_change,54,0,4,,,,,,,,,3,64,127,,
88200,note_on,0,0,4,,,,,,,,,3,,,45,36
88200,note_on,180,0,3,,,,,,,,,2,,,55,0
88200,note_on,0,0,3,,,,,,,,,2,,,53,36
88200,note_on,180,0,1,,,,,,,,,0,,,61,0
88200,note_on,0,0,1,,,,,,,,,0,,,64,62
88200,control_change,0,0,1,,,,,,,,,0,64,127,,
88206,note_on,6,0,4,,,,,,,,,3,,,45,0
88260,note_on,54,0,4,,,,,,,,,3,,,45,36
88266,note_on,6,0,4,,,,,,,,,3,,,45,0
88320,note_on,54,0,4,,,,,,,,,3,,,45,36
88326,note_on,6,0,4,,,,,,,,,3,,,45,0
88380,note_on,54,0,4,,,,,,,,,3,,,45,36
88380,note_on,180,0,1,,,,,,,,,0,,,64,0
88380,note_on,0,0,1,,,,,,,,,0,,,62,36
88386,note_on,6,0,4,,,,,,,,,3,,,45,0
88440,note_on,54,0,4,,,,,,,,,3,,,45,36
88446,note_on,6,0,4,,,,,,,,,3,,,45,0
88500,note_on,0,0,4,,,,,,,,,3,,,45,36
88500,control_change,54,0,4,,,,,,,,,3,64,127,,
88500,note_on,0,0,1,,,,,,,,,0,,,61,36
88500,control_change,0,0,1,,,,,,,,,0,64,0,,
88500,note_on,120,0,1,,,,,,,,,0,,,62,0
88500,note_on,0,0,1,,,,,,,,,0,,,59,0
88506,note_on,6,0,4,,,,,,,,,3,,,45,0
88560,note_on,60,0,1,,,,,,,,,0,,,61,0
88560,note_on,0,0,1,,,,,,,,,0,,,59,36
88560,note_on,360,0,2,,,,,,,,,1,,,56,0
88560,note_on,0,0,2,,,,,,,,,1,,,56,36
88560,control_change,54,0,4,,,,,,,,,3,64,127,,
88560,note_on,360,0,3,,,,,,,,,2,,,53,0
88560,note_on,0,0,3,,,,,,,,,2,,,52,36
88560,note_on,0,0,4,,,,,,,,,3,,,45,36
88566,note_on,6,0,4,,,,,,,,,3,,,45,0
88620,note_on,54,0,4,,,,,,,,,3,,,45,36
88620,set_tempo,21660,1,0,,,,,,512821,,,,,,,
88626,note_on,6,0,4,,,,,,,,,3,,,45,0
88680,note_on,54,0,4,,,,,,,,,3,,,45,36
88680,set_tempo,60,1,0,,,,,,526316,,,,,,,
88686,note_on,6,0,4,,,,,,,,,3,,,45,0
88740,set_tempo,60,1,0,,,,,,540541,,,,,,,
88740,note_on,0,0,3,,,,,,,,,2,,,50,36
88740,note_on,54,0,4,,,,,,,,,3,,,45,36
88740,note_on,180,0,3,,,,,,,,,2,,,52,0
88746,note_on,6,0,4,,,,,,,,,3,,,45,0
88800,set_tempo,60,1,0,,,,,,560748,,,,,,,
88800,note_on,240,0,1,,,,,,,,,0,,,59,0
88800,note_on,0,0,1,,,,,,,,,0,,,62,36
88800,note_on,54,0,4,,,,,,,,,3,,,45,36
88806,note_on,6,0,4,,,,,,,,,3,,,45,0
88860,set_tempo,60,1,0,,,,,,576923,,,,,,,
88860,note_on,0,0,4,,,,,,,,,3,,,45,36
88860,note_on,60,0,1,,,,,,,,,0,,,62,0
88860,note_on,0,0,1,,,,,,,,,0,,,65,36
88860,control_change,54,0,4,,,,,,,,,3,64,127,,
88866,note_on,6,0,4,,,,,,,,,3,,,45,0
88920,control_change,54,0,4,,,,,,,,,3,64,127,,
88920,note_on,360,0,2,,,,,,,,,1,,,56,0
88920,set_tempo,60,1,0,,,,,,594059,,,,,,,
88920,note_on,0,0,2,,,,,,,,,1,,,57,36
88920,note_on,0,0,4,,,,,,,,,3,,,45,36
88920,note_on,0,0,3,,,,,,,,,2,,,49,36
88920,note_on,0,0,1,,,,,,,,,0,,,65,36
88920,note_on,180,0,3,,,,,,,,,2,,,50,0
88920,note_on,60,0,1,,,,,,,,,0,,,65,0
88926,note_on,6,0,4,,,,,,,,,3,,,45,0
88980,set_tempo,60,1,0,,,,,,612245,,,,,,,
88980,note_on,54,0,4,,,,,,,,,3,,,45,36
88986,note_on,6,0,4,,,,,,,,,3,,,45,0
89040,set_tempo,60,1,0,,,,,,638298,,,,,,,
89040,note_on,54,0,4,,,,,,,,,3,,,45,36
89046,note_on,6,0,4,,,,,,,,,3,,,45,0
89100,note_on,54,0,4,,,,,,,,,3,,,45,36
89100,note_on,0,0,1,,,,,,,,,0,,,64,36
89100,note_on,180,0,1,,,,,,,,,0,,,65,0
89106,note_on,6,0,4,,,,,,,,,3,,,45,0
89160,note_on,54,0,4,,,,,,,,,3,,,45,36
89166,note_on,6,0,4,,,,,,,,,3,,,45,0
89220,control_change,54,0,4,,,,,,,,,3,64,127,,
89220,note_on,0,0,4,,,,,,,,,3,,,45,36
89226,note_on,6,0,4,,,,,,,,,3,,,45,0
89280,note_on,0,0,2,,,,,,,,,1,,,59,114
89280,note_on,0,0,3,,,,,,,,,2,,,54,114
89280,note_on,54,0,4,,,,,,,,,3,,,44,106
89280,note_on,0,0,1,,,,,,,,,0,,,66,127
89280,note_on,0,0,4,,,,,,,,,3,,,47,114
89280,note_on,360,0,2,,,,,,,,,1,,,57,0
89280,control_change,0,0,2,,,,,,,,,1,64,0,,
89280,set_tempo,240,1,0,,,,,,500000,,,,,,,
89280,note_on,360,0,3,,,,,,,,,2,,,49,0
89280,note_on,180,0,1,,,,,,,,,0,,,64,0
89280,note_on,0,0,2,,,,,,,,,1,,,56,106
89400,note_on,0,0,1,,,,,,,,,0,,,64,101
89400,note_on,0,0,3,,,,,,,,,2,,,52,88
89400,note_on,120,0,1,,,,,,,,,0,,,66,0
89400,note_on,120,0,3,,,,,,,,,2,,,54,0
89460,note_on,60,0,3,,,,,,,,,2,,,52,0
89460,note_on,0,0,3,,,,,,,,,2,,,54,114
89460,note_on,0,0,2,,,,,,,,,1,,,59,114
89460,note_on,0,0,1,,,,,,,,,0,,,66,127
89460,note_on,0,0,2,,,,,,,,,1,,,56,106
89460,note_on,180,0,2,,,,,,,,,1,,,59,0
89460,note_on,0,0,2,,,,,,,,,1,,,56,0
89460,note_on,180,0,4,,,,,,,,,3,,,47,0
89460,note_on,0,0,4,,,,,,,,,3,,,44,0
89460,note_on,0,0,4,,,,,,,,,3,,,44,106
89460,note_on,0,0,4,,,,,,,,,3,,,47,114
89460,note_on,60,0,1,,,,,,,,,0,,,64,0
89580,note_on,0,0,3,,,,,,,,,2,,,52,88
89580,note_on,120,0,3,,,,,,,,,2,,,54,0
89580,note_on,120,0,1,,,,,,,,,0,,,66,0
89580,note_on,0,0,1,,,,,,,,,0,,,64,101
89640,note_on,0,0,2,,,,,,,,,1,,,56,0
89640,note_on,0,0,3,,,,,,,,,2,,,54,114
89640,note_on,60,0,3,,,,,,,,,2,,,52,0
89640,note_on,180,0,2,,,,,,,,,1,,,59,0
89640,note_on,60,0,1,,,,,,,,,0,,,64,0
89640,note_on,0,0,4,,,,,,,,,3,,,44,106
89640,note_on,0,0,4,,,,,,,,,3,,,47,114
89640,note_on,180,0,4,,,,,,,,,3,,,47,0
89640,note_on,0,0,2,,,,,,,,,1,,,59,114
89640,note_on,0,0,2,,,,,,,,,1,,,56,106
89640,note_on,0,0,1,,,,,,,,,0,,,66,127
89640,note_on,0,0,4,,,,,,,,,3,,,44,0
89760,note_on,0,0,3,,,,,,,,,2,,,52,88
89760,note_on,120,0,3,,,,,,,,,2,,,54,0
89760,note_on,0,0,1,,,,,,,,,0,,,64,101
89760,note_on,120,0,1,,,,,,,,,0,,,66,0
89820,note_on,60,0,3,,,,,,,,,2,,,52,0
89820,note_on,0,0,4,,,,,,,,,3,,,44,0
89820,note_on,180,0,4,,,,,,,,,3,,,47,0
89820,note_on,0,0,4,,,,,,,,,3,,,47,114
89820,note_on,0,0,3,,,,,,,,,2,,,54,114
89820,note_on,0,0,4,,,,,,,,,3,,,44,106
89820,note_on,180,0,2,,,,,,,,,1,,,59,0
89820,note_on,0,0,1,,,,,,,,,0,,,66,127
89820,note_on,60,0,1,,,,,,,,,0,,,64,0
89820,note_on,0,0,2,,,,,,,,,1,,,56,106
89820,note_on,0,0,2,,,,,,,,,1,,,56,0
89820,note_on,0,0,2,,,,,,,,,1,,,59,114
89940,note_on,0,0,1,,,,,,,,,0,,,64,101
89940,note_on,120,0,3,,,,,,,,,2,,,54,0
89940,note_on,0,0,3,,,,,,,,,2,,,52,88
89940,note_on,120,0,1,,,,,,,,,0,,,66,0
90000,note_on,0,0,4,,,,,,,,,3,,,44,0
90000,note_on,0,0,2,,,,,,,,,1,,,56,0
90000,note_on,180,0,4,,,,,,,,,3,,,47,0
90000,note_on,60,0,3,,,,,,,,,2,,,52,0
90000,note_on,180,0,2,,,,,,,,,1,,,59,0
90000,note_on,0,0,3,,,,,,,,,2,,,52,114
90000,control_change,0,0,3,,,,,,,,,2,64,127,,
90000,note_on,0,0,1,,,,,,,,,0,,,64,127
90000,control_change,0,0,1,,,,,,,,,0,64,127,,
90000,note_on,60,0,1,,,,,,,,,0,,,64,0
90090,note_on,0,0,1,,,,,,,,,0,,,64,101
90090,note_on,90,0,1,,,,,,,,,0,,,64,0
90090,note_on,0,0,3,,,,,,,,,2,,,52,88
90090,note_on,90,0,3,,,,,,,,,2,,,52,0
90120,note_on,30,0,3,,,,,,,,,2,,,52,0
90120,note_on,0,0,1,,,,,,,,,0,,,68,101
90120,note_on,30,0,1,,,,,,,,,0,,,64,0
90120,note_on,0,0,3,,,,,,,,,2,,,56,88
90150,note_on,0,0,1,,,,,,,,,0,,,71,101
90150,note_on,30,0,1,,,,,,,,,0,,,68,0
90150,note_on,0,0,3,,,,,,,,,2,,,59,88
90150,note_on,30,0,3,,,,,,,,,2,,,56,0
90180,note_on,30,0,3,,,,,,,,,2,,,59,0
90180,note_on,0,0,3,,,,,,,,,2,,,64,114
90180,note_on,30,0,1,,,,,,,,,0,,,71,0
90180,note_on,0,0,1,,,,,,,,,0,,,76,127
90270,note_on,90,0,3,,,,,,,,,2,,,64,0
90270,note_on,0,0,1,,,,,,,,,0,,,76,101
90270,note_on,90,0,1,,,,,,,,,0,,,76,0
90270,note_on,0,0,3,,,,,,,,,2,,,64,88
90300,note_on,30,0,3,,,,,,,,,2,,,64,0
90300,note_on,0,0,3,,,,,,,,,2,,,68,88
90300,note_on,0,0,1,,,,,,,,,0,,,80,101
90300,note_on,30,0,1,,,,,,,,,0,,,76,0
90330,note_on,30,0,3,,,,,,,,,2,,,68,0
90330,note_on,30,0,1,,,,,,,,,0,,,80,0
90330,note_on,0,0,1,,,,,,,,,0,,,83,101
90330,note_on,0,0,3,,,,,,,,,2,,,71,88
90360,note_on,30,0,1,,,,,,,,,0,,,83,0
90360,note_on,0,0,1,,,,,,,,,0,,,88,101
90360,note_on,30,0,3,,,,,,,,,2,,,71,0
90360,note_on,0,0,3,,,,,,,,,2,,,76,88
90366,note_on,6,0,1,,,,,,,,,0,,,88,0
90366,note_on,6,0,3,,,,,,,,,2,,,76,0
90420,note_on,54,0,1,,,,,,,,,0,,,92,101
90420,note_on,54,0,3,,,,,,,,,2,,,80,88
90426,note_on,6,0,1,,,,,,,,,0,,,92,0
90426,note_on,6,0,3,,,,,,,,,2,,,80,0
90480,note_on,54,0,3,,,,,,,,,2,,,83,88
90480,note_on,54,0,1,,,,,,,,,0,,,95,101
90486,note_on,6,0,3,,,,,,,,,2,,,83,0
90486,note_on,6,0,1,,,,,,,,,0,,,95,0
90540,control_change,54,0,1,,,,,,,,,0,64,0,,
90540,control_change,54,0,3,,,,,,,,,2,64,0,,
90540,note_on,0,0,3,,,,,,,,,2,,,88,88
90540,note_on,0,0,1,,,,,,,,,0,,,100,101
90660,note_on,120,0,1,,,,,,,,,0,,,100,0
90660,note_on,120,0,3,,,,,,,,,2,,,88,0
90720,note_on,60,0,3,,,,,,,,,2,,,52,114
90720,note_on,60,0,1,,,,,,,,,0,,,64,127
90720,note_on,720,0,4,,,,,,,,,3,,,42,106
90720,note_on,0,0,4,,,,,,,,,3,,,45,114
90720,note_on,0,0,2,,,,,,,,,1,,,57,114
90720,note_on,720,0,2,,,,,,,,,1,,,54,106
90840,note_on,120,0,3,,,,,,,,,2,,,52,0
90840,note_on,0,0,3,,,,,,,,,2,,,50,88
90840,note_on,120,0,1,,,,,,,,,0,,,64,0
90840,note_on,0,0,1,,,,,,,,,0,,,62,101
90900,note_on,180,0,2,,,,,,,,,1,,,57,0
90900,note_on,0,0,4,,,,,,,,,3,,,42,0
90900,note_on,0,0,2,,,,,,,,,1,,,54,106
90900,note_on,0,0,2,,,,,,,,,1,,,57,114
90900,note_on,60,0,3,,,,,,,,,2,,,50,0
90900,note_on,0,0,3,,,,,,,,,2,,,52,114
90900,note_on,180,0,4,,,,,,,,,3,,,45,0
90900,note_on,0,0,1,,,,,,,,,0,,,64,127
90900,note_on,0,0,2,,,,,,,,,1,,,54,0
90900,note_on,60,0,1,,,,,,,,,0,,,62,0
90900,note_on,0,0,4,,,,,,,,,3,,,42,106
90900,note_on,0,0,4,,,,,,,,,3,,,45,114
91020,note_on,0,0,3,,,,,,,,,2,,,50,88
91020,note_on,120,0,1,,,,,,,,,0,,,64,0
91020,note_on,0,0,1,,,,,,,,,0,,,62,101
91020,note_on,120,0,3,,,,,,,,,2,,,52,0
91080,note_on,0,0,4,,,,,,,,,3,,,42,0
91080,note_on,0,0,3,,,,,,,,,2,,,52,114
91080,note_on,60,0,3,,,,,,,,,2,,,50,0
91080,note_on,0,0,4,,,,,,,,,3,,,42,106
91080,note_on,180,0,4,,,,,,,,,3,,,45,0
91080,note_on,0,0,2,,,,,,,,,1,,,57,114
91080,note_on,0,0,1,,,,,,,,,0,,,64,127
91080,note_on,60,0,1,,,,,,,,,0,,,62,0
91080,note_on,0,0,4,,,,,,,,,3,,,45,114
91080,note_on,0,0,2,,,,,,,,,1,,,54,0
91080,note_on,180,0,2,,,,,,,,,1,,,57,0
91080,note_on,0,0,2,,,,,,,,,1,,,54,106
91200,note_on,120,0,1,,,,,,,,,0,,,64,0
91200,note_on,120,0,3,,,,,,,,,2,,,52,0
91200,note_on,0,0,3,,,,,,,,,2,,,50,88
91200,note_on,0,0,1,,,,,,,,,0,,,62,101
91260,note_on,0,0,2,,,,,,,,,1,,,54,0
91260,note_on,0,0,4,,,,,,,,,3,,,42,0
91260,note_on,0,0,4,,,,,,,,,3,,,42,106
91260,note_on,60,0,3,,,,,,,,,2,,,50,0
91260,note_on,0,0,3,,,,,,,,,2,,,52,114
91260,note_on,0,0,2,,,,,,,,,1,,,54,106
91260,note_on,180,0,2,,,,,,,,,1,,,57,0
91260,note_on,0,0,4,,,,,,,,,3,,,45,114
91260,note_on,180,0,4,,,,,,,,,3,,,45,0
91260,note_on,60,0,1,,,,,,,,,0,,,62,0
91260,note_on,0,0,1,,,,,,,,,0,,,64,127
91260,note_on,0,0,2,,,,,,,,,1,,,57,114
91380,note_on,120,0,3,,,,,,,,,2,,,52,0
91380,note_on,120,0,1,,,,,,,,,0,,,64,0
91380,note_on,0,0,1,,,,,,,,,0,,,62,101
91380,note_on,0,0,3,,,,,,,,,2,,,50,88
91440,note_on,180,0,4,,,,,,,,,3,,,45,0
91440,note_on,0,0,4,,,,,,,,,3,,,42,0
91440,note_on,60,0,1,,,,,,,,,0,,,62,0
91440,control_change,0,0,1,,,,,,,,,0,64,127,,
91440,note_on,0,0,1,,,,,,,,,0,,,62,127
91440,note_on,180,0,2,,,,,,,,,1,,,57,0
91440,control_change,0,0,3,,,,,,,,,2,64,127,,
91440,note_on,0,0,3,,,,,,,,,2,,,50,114
91440,note_on,0,0,2,,,,,,,,,1,,,54,0
91440,note_on,60,0,3,,,,,,,,,2,,,50,0
91530,note_on,0,0,1,,,,,,,,,0,,,62,101
91530,note_on,90,0,1,,,,,,,,,0,,,62,0
91530,note_on,90,0,3,,,,,,,,,2,,,50,0
91530,note_on,0,0,3,,,,,,,,,2,,,50,88
91560,note_on,0,0,1,,,,,,,,,0,,,66,101
91560,note_on,0,0,3,,,,,,,,,2,,,54,88
91560,note_on,30,0,3,,,,,,,,,2,,,50,0
91560,note_on,30,0,1,,,,,,,,,0,,,62,0
91590,note_on,0,0,3,,,,,,,,,2,,,57,88
91590,note_on,30,0,1,,,,,,,,,0,,,66,0
91590,note_on,30,0,3,,,,,,,,,2,,,54,0
91590,note_on,0,0,1,,,,,,,,,0,,,69,101
91620,note_on,30,0,3,,,,,,,,,2,,,57,0
91620,note_on,0,0,3,,,,,,,,,2,,,62,88
91620,note_on,30,0,1,,,,,,,,,0,,,69,0
91620,note_on,0,0,1,,,,,,,,,0,,,74,101
91710,note_on,0,0,1,,,,,,,,,0,,,74,101
91710,note_on,0,0,3,,,,,,,,,2,,,62,88
91710,note_on,90,0,3,,,,,,,,,2,,,62,0
91710,note_on,90,0,1,,,,,,,,,0,,,74,0
91740,note_on,0,0,1,,,,,,,,,0,,,78,101
91740,note_on,30,0,1,,,,,,,,,0,,,74,0
91740,note_on,30,0,3,,,,,,,,,2,,,62,0
91740,note_on,0,0,3,,,,,,,,,2,,,66,88
91770,note_on,0,0,1,,,,,,,,,0,,,81,101
91770,note_on,30,0,1,,,,,,,,,0,,,78,0
91770,note_on,30,0,3,,,,,,,,,2,,,66,0
91770,note_on,0,0,3,,,,,,,,,2,,,69,88
91800,note_on,30,0,1,,,,,,,,,0,,,81,0
91800,note_on,0,0,1,,,,,,,,,0,,,86,101
91800,note_on,30,0,3,,,,,,,,,2,,,69,0
91800,note_on,0,0,3,,,,,,,,,2,,,74,88
91806,note_on,6,0,1,,,,,,,,,0,,,86,0
91806,note_on,6,0,3,,,,,,,,,2,,,74,0
91860,note_on,54,0,1,,,,,,,,,0,,,90,101
91860,note_on,54,0,3,,,,,,,,,2,,,78,88
91866,note_on,6,0,3,,,,,,,,,2,,,78,0
91866,note_on,6,0,1,,,,,,,,,0,,,90,0
91920,note_on,54,0,1,,,,,,,,,0,,,93,101
91920,note_on,54,0,3,,,,,,,,,2,,,81,88
91926,note_on,6,0,3,,,,,,,,,2,,,81,0
91926,note_on,6,0,1,,,,,,,,,0,,,93,0
91980,note_on,0,0,3,,,,,,,,,2,,,86,88
91980,control_change,54,0,3,,,,,,,,,2,64,0,,
91980,control_change,54,0,1,,,,,,,,,0,64,0,,
91980,note_on,0,0,1,,,,,,,,,0,,,98,101
92100,note_on,120,0,1,,,,,,,,,0,,,98,0
92100,note_on,120,0,3,,,,,,,,,2,,,86,0
92160,note_on,0,0,2,,,,,,,,,1,,,55,114
92160,note_on,720,0,2,,,,,,,,,1,,,52,106
92160,note_on,720,0,4,,,,,,,,,3,,,40,106
92160,note_on,0,0,4,,,,,,,,,3,,,43,114
92160,note_on,60,0,1,,,,,,,,,0,,,62,127
92160,note_on,60,0,3,,,,,,,,,2,,,50,114
92280,note_on,120,0,1,,,,,,,,,0,,,62,0
92280,note_on,120,0,3,,,,,,,,,2,,,50,0
92280,note_on,0,0,1,,,,,,,,,0,,,60,101
92280,note_on,0,0,3,,,,,,,,,2,,,48,88
92340,note_on,0,0,2,,,,,,,,,1,,,55,114
92340,note_on,0,0,2,,,,,,,,,1,,,52,106
92340,note_on,0,0,2,,,,,,,,,1,,,52,0
92340,note_on,180,0,2,,,,,,,,,1,,,55,0
92340,note_on,0,0,3,,,,,,,,,2,,,50,114
92340,note_on,60,0,3,,,,,,,,,2,,,48,0
92340,note_on,60,0,1,,,,,,,,,0,,,60,0
92340,note_on,180,0,4,,,,,,,,,3,,,43,0
92340,note_on,0,0,4,,,,,,,,,3,,,40,0
92340,note_on,0,0,4,,,,,,,,,3,,,40,106
92340,note_on,0,0,4,,,,,,,,,3,,,43,114
92340,note_on,0,0,1,,,,,,,,,0,,,62,127
92460,note_on,120,0,1,,,,,,,,,0,,,62,0
92460,note_on,0,0,1,,,,,,,,,0,,,60,101
92460,note_on,0,0,3,,,,,,,,,2,,,48,88
92460,note_on,120,0,3,,,,,,,,,2,,,50,0
92520,note_on,60,0,1,,,,,,,,,0,,,60,0
92520,note_on,180,0,4,,,,,,,,,3,,,43,0
92520,note_on,0,0,4,,,,,,,,,3,,,40,0
92520,note_on,0,0,2,,,,,,,,,1,,,55,114
92520,note_on,0,0,2,,,,,,,,,1,,,52,106
92520,note_on,0,0,2,,,,,,,,,1,,,52,0
92520,note_on,180,0,2,,,,,,,,,1,,,55,0
92520,note_on,0,0,1,,,,,,,,,0,,,62,127
92520,note_on,0,0,3,,,,,,,,,2,,,50,114
92520,note_on,60,0,3,,,,,,,,,2,,,48,0
92520,note_on,0,0,4,,,,,,,,,3,,,43,114
92520,note_on,0,0,4,,,,,,,,,3,,,40,106
92640,note_on,120,0,1,,,,,,,,,0,,,62,0
92640,note_on,0,0,1,,,,,,,,,0,,,60,101
92640,note_on,120,0,3,,,,,,,,,2,,,50,0
92640,note_on,0,0,3,,,,,,,,,2,,,48,88
92700,note_on,0,0,1,,,,,,,,,0,,,62,127
92700,note_on,0,0,4,,,,,,,,,3,,,40,106
92700,note_on,0,0,2,,,,,,,,,1,,,55,114
92700,note_on,0,0,2,,,,,,,,,1,,,52,106
92700,note_on,0,0,2,,,,,,,,,1,,,52,0
92700,note_on,180,0,2,,,,,,,,,1,,,55,0
92700,note_on,0,0,4,,,,,,,,,3,,,40,0
92700,note_on,60,0,3,,,,,,,,,2,,,48,0
92700,note_on,0,0,4,,,,,,,,,3,,,43,114
92700,note_on,180,0,4,,,,,,,,,3,,,43,0
92700,note_on,60,0,1,,,,,,,,,0,,,60,0
92700,note_on,0,0,3,,,,,,,,,2,,,50,114
92820,note_on,120,0,1,,,,,,,,,0,,,62,0
92820,note_on,0,0,1,,,,,,,,,0,,,60,101
92820,note_on,0,0,3,,,,,,,,,2,,,48,88
92820,note_on,120,0,3,,,,,,,,,2,,,50,0
92880,note_on,180,0,4,,,,,,,,,3,,,43,0
92880,note_on,0,0,4,,,,,,,,,3,,,40,0
92880,note_on,0,0,1,,,,,,,,,0,,,60,127
92880,note_on,180,0,2,,,,,,,,,1,,,55,0
92880,control_change,0,0,1,,,,,,,,,0,64,127,,
92880,note_on,60,0,3,,,,,,,,,2,,,48,0
92880,control_change,0,0,3,,,,,,,,,2,64,127,,
92880,note_on,0,0,3,,,,,,,,,2,,,48,114
92880,note_on,60,0,1,,,,,,,,,0,,,60,0
92880,note_on,0,0,2,,,,,,,,,1,,,52,0
92970,note_on,90,0,3,,,,,,,,,2,,,48,0
92970,note_on,0,0,3,,,,,,,,,2,,,48,88
92970,note_on,0,0,1,,,,,,,,,0,,,60,101
92970,note_on,90,0,1,,,,,,,,,0,,,60,0
93000,note_on,30,0,3,,,,,,,,,2,,,48,0
93000,note_on,0,0,1,,,,,,,,,0,,,64,101
93000,note_on,30,0,1,,,,,,,,,0,,,60,0
93000,note_on,0,0,3,,,,,,,,,2,,,52,88
93030,note_on,0,0,3,,,,,,,,,2,,,55,88
93030,note_on,30,0,1,,,,,,,,,0,,,64,0
93030,note_on,0,0,1,,,,,,,,,0,,,67,101
93030,note_on,30,0,3,,,,,,,,,2,,,52,0
93060,note_on,0,0,3,,,,,,,,,2,,,60,114
93060,note_on,30,0,1,,,,,,,,,0,,,67,0
93060,note_on,0,0,1,,,,,,,,,0,,,72,127
93060,note_on,30,0,3,,,,,,,,,2,,,55,0
93150,note_on,90,0,3,,,,,,,,,2,,,60,0
93150,note_on,0,0,3,,,,,,,,,2,,,60,88
93150,note_on,90,0,1,,,,,,,,,0,,,72,0
93150,note_on,0,0,1,,,,,,,,,0,,,72,101
93180,note_on,0,0,1,,,,,,,,,0,,,76,101
93180,note_on,0,0,3,,,,,,,,,2,,,64,88
93180,note_on,30,0,3,,,,,,,,,2,,,60,0
93180,note_on,30,0,1,,,,,,,,,0,,,72,0
93210,note_on,30,0,1,,,,,,,,,0,,,76,0
93210,note_on,0,0,1,,,,,,,,,0,,,79,101
93210,note_on,30,0,3,,,,,,,,,2,,,64,0
93210,note_on,0,0,3,,,,,,,,,2,,,67,88
93240,note_on,0,0,3,,,,,,,,,2,,,72,88
93240,note_on,30,0,3,,,,,,,,,2,,,67,0
93240,note_on,0,0,1,,,,,,,,,0,,,84,101
93240,note_on,30,0,1,,,,,,,,,0,,,79,0
93246,note_on,6,0,3,,,,,,,,,2,,,72,0
93246,note_on,6,0,1,,,,,,,,,0,,,84,0
93300,note_on,54,0,1,,,,,,,,,0,,,88,101
93300,note_on,54,0,3,,,,,,,,,2,,,76,88
93306,note_on,6,0,1,,,,,,,,,0,,,88,0
93306,note_on,6,0,3,,,,,,,,,2,,,76,0
93360,note_on,54,0,3,,,,,,,,,2,,,79,88
93360,note_on,54,0,1,,,,,,,,,0,,,91,101
93366,note_on,6,0,1,,,,,,,,,0,,,91,0
93366,note_on,6,0,3,,,,,,,,,2,,,79,0
93420,note_on,0,0,1,,,,,,,,,0,,,96,101
93420,control_change,54,0,1,,,,,,,,,0,64,0,,
93420,note_on,0,0,3,,,,,,,,,2,,,84,88
93420,control_change,54,0,3,,,,,,,,,2,64,0,,
93540,note_on,120,0,1,,,,,,,,,0,,,96,0
93540,note_on,120,0,3,,,,,,,,,2,,,84,0
93600,note_on,0,0,1,,,,,,,,,0,,,72,75
93600,note_on,0,0,1,,,,,,,,,0,,,78,75
93600,note_on,0,0,3,,,,,,,,,2,,,38,88
93600,control_change,60,0,3,,,,,,,,,2,64,127,,
93600,control_change,60,0,1,,,,,,,,,0,64,127,,
93600,note_on,0,0,1,,,,,,,,,0,,,84,75
93600,note_on,0,0,1,,,,,,,,,0,,,81,75
93690,note_on,0,0,3,,,,,,,,,2,,,38,88
93690,note_on,90,0,3,,,,,,,,,2,,,38,0
93720,note_on,0,0,3,,,,,,,,,2,,,42,88
93720,note_on,30,0,3,,,,,,,,,2,,,38,0
93750,note_on,0,0,3,,,,,,,,,2,,,45,88
93750,note_on,30,0,3,,,,,,,,,2,,,42,0
93780,note_on,0,0,1,,,,,,,,,0,,,72,0
93780,note_on,180,0,1,,,,,,,,,0,,,84,0
93780,note_on,0,0,1,,,,,,,,,0,,,78,0
93780,note_on,0,0,1,,,,,,,,,0,,,81,0
93780,note_on,0,0,1,,,,,,,,,0,,,69,75
93780,note_on,0,0,1,,,,,,,,,0,,,72,75
93780,note_on,0,0,1,,,,,,,,,0,,,78,75
93780,note_on,0,0,1,,,,,,,,,0,,,81,75
93780,note_on,0,0,3,,,,,,,,,2,,,50,88
93780,note_on,30,0,3,,,,,,,,,2,,,45,0
93870,note_on,90,0,3,,,,,,,,,2,,,50,0
93870,note_on,0,0,3,,,,,,,,,2,,,50,88
93900,note_on,30,0,3,,,,,,,,,2,,,50,0
93900,note_on,0,0,3,,,,,,,,,2,,,54,88
93930,note_on,0,0,3,,,,,,,,,2,,,57,88
93930,note_on,30,0,3,,,,,,,,,2,,,54,0
93960,note_on,0,0,3,,,,,,,,,2,,,62,88
93960,note_on,30,0,3,,,,,,,,,2,,,57,0
93960,note_on,0,0,1,,,,,,,,,0,,,72,75
93960,note_on,180,0,1,,,,,,,,,0,,,81,0
93960,note_on,0,0,1,,,,,,,,,0,,,69,0
93960,note_on,0,0,1,,,,,,,,,0,,,72,0
93960,note_on,0,0,1,,,,,,,,,0,,,66,75
93960,note_on,0,0,1,,,,,,,,,0,,,69,75
93960,note_on,0,0,1,,,,,,,,,0,,,78,75
93960,note_on,0,0,1,,,,,,,,,0,,,78,0
93966,note_on,6,0,3,,,,,,,,,2,,,62,0
94020,note_on,54,0,3,,,,,,,,,2,,,66,88
94026,note_on,6,0,3,,,,,,,,,2,,,66,0
94080,note_on,54,0,3,,,,,,,,,2,,,69,88
94086,note_on,6,0,3,,,,,,,,,2,,,69,0
94140,note_on,180,0,1,,,,,,,,,0,,,78,0
94140,control_change,0,0,1,,,,,,,,,0,64,0,,
94140,note_on,0,0,1,,,,,,,,,0,,,72,75
94140,note_on,54,0,3,,,,,,,,,2,,,75,114
94140,note_on,0,0,1,,,,,,,,,0,,,69,75
94140,note_on,0,0,1,,,,,,,,,0,,,66,75
94140,note_on,0,0,1,,,,,,,,,0,,,72,0
94140,note_on,0,0,1,,,,,,,,,0,,,66,0
94140,note_on,0,0,1,,,,,,,,,0,,,69,0
94260,note_on,0,0,3,,,,,,,,,2,,,74,88
94260,note_on,120,0,3,,,,,,,,,2,,,75,0
94260,control_change,0,0,3,,,,,,,,,2,64,0,,
94320,note_on,0,0,3,,,,,,,,,2,,,31,88
94320,control_change,0,0,3,,,,,,,,,2,64,127,,
94320,note_on,60,0,3,,,,,,,,,2,,,74,0
94320,note_on,180,0,1,,,,,,,,,0,,,72,0
94320,note_on,0,0,1,,,,,,,,,0,,,86,75
94320,note_on,0,0,1,,,,,,,,,0,,,83,75
94320,note_on,0,0,1,,,,,,,,,0,,,69,0
94320,note_on,0,0,1,,,,,,,,,0,,,66,0
94320,note_on,0,0,1,,,,,,,,,0,,,89,75
94320,control_change,0,0,1,,,,,,,,,0,64,127,,
94320,note_on,0,0,1,,,,,,,,,0,,,77,75
94410,note_on,0,0,3,,,,,,,,,2,,,31,88
94410,note_on,90,0,3,,,,,,,,,2,,,31,0
94440,note_on,30,0,3,,,,,,,,,2,,,31,0
94440,note_on,0,0,3,,,,,,,,,2,,,35,88
94470,note_on,30,0,3,,,,,,,,,2,,,35,0
94470,note_on,0,0,3,,,,,,,,,2,,,38,88
94500,note_on,0,0,1,,,,,,,,,0,,,77,0
94500,note_on,0,0,1,,,,,,,,,0,,,83,0
94500,note_on,0,0,1,,,,,,,,,0,,,86,0
94500,note_on,30,0,3,,,,,,,,,2,,,38,0
94500,note_on,0,0,3,,,,,,,,,2,,,43,88
94500,note_on,0,0,1,,,,,,,,,0,,,77,75
94500,note_on,0,0,1,,,,,,,,,0,,,83,75
94500,note_on,180,0,1,,,,,,,,,0,,,89,0
94500,note_on,0,0,1,,,,,,,,,0,,,74,75
94500,note_on,0,0,1,,,,,,,,,0,,,86,75
94590,note_on,90,0,3,,,,,,,,,2,,,43,0
94590,note_on,0,0,3,,,,,,,,,2,,,43,88
94620,note_on,30,0,3,,,,,,,,,2,,,43,0
94620,note_on,0,0,3,,,,,,,,,2,,,47,88
94650,note_on,30,0,3,,,,,,,,,2,,,47,0
94650,note_on,0,0,3,,,,,,,,,2,,,50,88
94680,note_on,180,0,1,,,,,,,,,0,,,86,0
94680,note_on,0,0,1,,,,,,,,,0,,,83,0
94680,note_on,0,0,1,,,,,,,,,0,,,71,75
94680,note_on,0,0,1,,,,,,,,,0,,,74,75
94680,note_on,0,0,1,,,,,,,,,0,,,77,75
94680,note_on,0,0,1,,,,,,,,,0,,,83,75
94680,note_on,0,0,1,,,,,,,,,0,,,77,0
94680,note_on,0,0,1,,,,,,,,,0,,,74,0
94680,note_on,30,0,3,,,,,,,,,2,,,50,0
94680,note_on,0,0,3,,,,,,,,,2,,,55,88
94686,note_on,6,0,3,,,,,,,,,2,,,55,0
94740,note_on,54,0,3,,,,,,,,,2,,,59,88
94746,note_on,6,0,3,,,,,,,,,2,,,59,0
94800,note_on,54,0,3,,,,,,,,,2,,,62,88
94806,note_on,6,0,3,,,,,,,,,2,,,62,0
94860,note_on,54,0,3,,,,,,,,,2,,,68,114
94860,note_on,0,0,1,,,,,,,,,0,,,74,0
94860,note_on,0,0,1,,,,,,,,,0,,,71,0
94860,note_on,180,0,1,,,,,,,,,0,,,83,0
94860,note_on,0,0,1,,,,,,,,,0,,,77,75
94860,note_on,0,0,1,,,,,,,,,0,,,74,75
94860,note_on,0,0,1,,,,,,,,,0,,,71,75
94860,note_on,0,0,1,,,,,,,,,0,,,65,75
94860,note_on,0,0,1,,,,,,,,,0,,,77,0
94860,control_change,0,0,1,,,,,,,,,0,64,0,,
94980,note_on,120,0,3,,,,,,,,,2,,,68,0
94980,control_change,0,0,3,,,,,,,,,2,64,0,,
94980,note_on,0,0,3,,,,,,,,,2,,,67,88
95040,control_change,0,0,1,,,,,,,,,0,64,127,,
95040,note_on,0,0,1,,,,,,,,,0,,,88,75
95040,note_on,180,0,1,,,,,,,,,0,,,77,0
95040,note_on,0,0,1,,,,,,,,,0,,,65,0
95040,note_on,0,0,1,,,,,,,,,0,,,71,0
95040,note_on,0,0,1,,,,,,,,,0,,,74,0
95040,note_on,0,0,1,,,,,,,,,0,,,76,75
95040,note_on,0,0,1,,,,,,,,,0,,,82,75
95040,note_on,0,0,1,,,,,,,,,0,,,79,75
95040,note_on,0,0,3,,,,,,,,,2,,,36,88
95040,note_on,60,0,3,,,,,,,,,2,,,67,0
95040,control_change,0,0,3,,,,,,,,,2,64,127,,
95130,note_on,0,0,3,,,,,,,,,2,,,36,88
95130,note_on,90,0,3,,,,,,,,,2,,,36,0
95160,note_on,0,0,3,,,,,,,,,2,,,40,88
95160,note_on,30,0,3,,,,,,,,,2,,,36,0
95190,note_on,0,0,3,,,,,,,,,2,,,43,88
95190,note_on,30,0,3,,,,,,,,,2,,,40,0
95220,note_on,30,0,3,,,,,,,,,2,,,43,0
95220,note_on,0,0,1,,,,,,,,,0,,,76,0
95220,note_on,0,0,1,,,,,,,,,0,,,79,0
95220,note_on,180,0,1,,,,,,,,,0,,,88,0
95220,note_on,0,0,1,,,,,,,,,0,,,82,0
95220,note_on,0,0,1,,,,,,,,,0,,,70,75
95220,note_on,0,0,1,,,,,,,,,0,,,76,75
95220,note_on,0,0,1,,,,,,,,,0,,,79,75
95220,note_on,0,0,1,,,,,,,,,0,,,82,75
95220,note_on,0,0,3,,,,,,,,,2,,,48,88
95310,note_on,90,0,3,,,,,,,,,2,,,48,0
95310,note_on,0,0,3,,,,,,,,,2,,,48,88
95340,note_on,0,0,3,,,,,,,,,2,,,52,88
95340,note_on,30,0,3,,,,,,,,,2,,,48,0
95370,note_on,30,0,3,,,,,,,,,2,,,52,0
95370,note_on,0,0,3,,,,,,,,,2,,,55,88
95400,note_on,0,0,1,,,,,,,,,0,,,70,0
95400,note_on,30,0,3,,,,,,,,,2,,,55,0
95400,note_on,0,0,1,,,,,,,,,0,,,79,0
95400,note_on,0,0,1,,,,,,,,,0,,,67,75
95400,note_on,0,0,1,,,,,,,,,0,,,70,75
95400,note_on,0,0,1,,,,,,,,,0,,,76,75
95400,note_on,0,0,3,,,,,,,,,2,,,60,88
95400,note_on,0,0,1,,,,,,,,,0,,,79,75
95400,note_on,0,0,1,,,,,,,,,0,,,76,0
95400,note_on,180,0,1,,,,,,,,,0,,,82,0
95406,note_on,6,0,3,,,,,,,,,2,,,60,0
95460,note_on,54,0,3,,,,,,,,,2,,,64,88
95466,note_on,6,0,3,,,,,,,,,2,,,64,0
95520,note_on,54,0,3,,,,,,,,,2,,,67,88
95526,note_on,6,0,3,,,,,,,,,2,,,67,0
95580,note_on,0,0,1,,,,,,,,,0,,,70,0
95580,control_change,0,0,1,,,,,,,,,0,64,0,,
95580,note_on,54,0,3,,,,,,,,,2,,,73,114
95580,note_on,0,0,1,,,,,,,,,0,,,76,75
95580,note_on,180,0,1,,,,,,,,,0,,,79,0
95580,note_on,0,0,1,,,,,,,,,0,,,67,0
95580,note_on,0,0,1,,,,,,,,,0,,,70,75
95580,note_on,0,0,1,,,,,,,,,0,,,76,0
95580,note_on,0,0,1,,,,,,,,,0,,,67,75
95700,control_change,0,0,3,,,,,,,,,2,64,0,,
95700,note_on,120,0,3,,,,,,,,,2,,,73,0
95700,note_on,0,0,3,,,,,,,,,2,,,72,88
95760,note_on,0,0,1,,,,,,,,,0,,,67,0
95760,note_on,180,0,1,,,,,,,,,0,,,76,0
95760,note_on,0,0,1,,,,,,,,,0,,,70,0
95760,note_on,60,0,3,,,,,,,,,2,,,72,0
96120,control_change,360,0,3,,,,,,,,,2,64,127,,
96120,note_on,0,0,3,,,,,,,,,2,,,48,49
96126,note_on,6,0,3,,,,,,,,,2,,,48,0
96180,note_on,54,0,3,,,,,,,,,2,,,52,49
96186,note_on,6,0,3,,,,,,,,,2,,,52,0
96240,note_on,54,0,3,,,,,,,,,2,,,55,49
96246,note_on,6,0,3,,,,,,,,,2,,,55,0
96300,note_on,0,0,1,,,,,,,,,0,,,58,36
96300,note_on,0,0,1,,,,,,,,,0,,,64,36
96300,note_on,54,0,3,,,,,,,,,2,,,61,75
96300,note_on,540,0,1,,,,,,,,,0,,,55,36
96420,note_on,120,0,3,,,,,,,,,2,,,61,0
96420,control_change,0,0,3,,,,,,,,,2,64,0,,
96420,note_on,0,0,3,,,,,,,,,2,,,60,49
96480,note_on,0,0,1,,,,,,,,,0,,,58,0
96480,note_on,0,0,1,,,,,,,,,0,,,55,0
96480,note_on,180,0,1,,,,,,,,,0,,,64,0
96480,note_on,60,0,3,,,,,,,,,2,,,60,0
96840,note_on,360,0,3,,,,,,,,,2,,,36,36
96846,note_on,6,0,3,,,,,,,,,2,,,36,0
96900,note_on,54,0,3,,,,,,,,,2,,,40,36
96906,note_on,6,0,3,,,,,,,,,2,,,40,0
96960,note_on,54,0,3,,,,,,,,,2,,,43,36
96966,note_on,6,0,3,,,,,,,,,2,,,43,0
97020,note_on,0,0,1,,,,,,,,,0,,,46,36
97020,note_on,54,0,3,,,,,,,,,2,,,49,62
97020,note_on,540,0,1,,,,,,,,,0,,,43,36
97020,note_on,0,0,1,,,,,,,,,0,,,52,36
97140,note_on,120,0,3,,,,,,,,,2,,,49,0
97140,note_on,0,0,3,,,,,,,,,2,,,48,36
97200,time_signature,7920,1,0,4,4,24,8,,,,,,,,,
97200,note_on,0,0,1,,,,,,,,,0,,,46,0
97200,note_on,0,0,1,,,,,,,,,0,,,43,0
97200,note_on,60,0,3,,,,,,,,,2,,,48,0
97200,note_on,180,0,1,,,,,,,,,0,,,52,0
97680,control_change,480,0,3,,,,,,,,,2,64,127,,
97680,time_signature,480,1,0,6,8,12,8,,,,,,,,,
97680,control_change,480,0,1,,,,,,,,,0,64,127,,
97680,note_on,0,0,1,,,,,,,,,0,,,63,49
97680,note_on,0,0,3,,,,,,,,,2,,,51,36
97686,note_on,6,0,3,,,,,,,,,2,,,51,0
97686,note_on,6,0,1,,,,,,,,,0,,,63,0
97740,note_on,54,0,3,,,,,,,,,2,,,51,36
97740,note_on,54,0,1,,,,,,,,,0,,,63,49
97746,note_on,6,0,1,,,,,,,,,0,,,63,0
97746,note_on,6,0,3,,,,,,,,,2,,,51,0
97800,note_on,54,0,1,,,,,,,,,0,,,63,49
97800,note_on,54,0,3,,,,,,,,,2,,,51,36
97806,note_on,6,0,1,,,,,,,,,0,,,63,0
97806,note_on,6,0,3,,,,,,,,,2,,,51,0
97860,note_on,54,0,1,,,,,,,,,0,,,63,62
97860,note_on,54,0,3,,,,,,,,,2,,,51,49
97866,note_on,6,0,1,,,,,,,,,0,,,63,0
97866,note_on,6,0,3,,,,,,,,,2,,,51,0
97920,note_on,54,0,3,,,,,,,,,2,,,51,49
97920,note_on,54,0,1,,,,,,,,,0,,,63,62
97926,note_on,6,0,1,,,,,,,,,0,,,63,0
97926,note_on,6,0,3,,,,,,,,,2,,,51,0
97980,control_change,54,0,1,,,,,,,,,0,64,0,,
97980,note_on,0,0,3,,,,,,,,,2,,,51,49
97980,control_change,54,0,3,,,,,,,,,2,64,0,,
97980,note_on,0,0,1,,,,,,,,,0,,,63,62
97986,note_on,6,0,3,,,,,,,,,2,,,51,0
97986,note_on,6,0,1,,,,,,,,,0,,,63,0
98040,control_change,54,0,3,,,,,,,,,2,64,127,,
98040,note_on,0,0,3,,,,,,,,,2,,,44,49
98040,note_on,5160,0,4,,,,,,,,,3,,,44,49
98040,note_on,0,0,1,,,,,,,,,0,,,73,88
98040,control_change,54,0,1,,,,,,,,,0,64,127,,
98040,note_on,5160,0,2,,,,,,,,,1,,,61,49
98040,note_on,0,0,2,,,,,,,,,1,,,63,49
98100,note_on,0,0,3,,,,,,,,,2,,,51,49
98100,note_on,60,0,3,,,,,,,,,2,,,44,0
98160,note_on,120,0,2,,,,,,,,,1,,,63,0
98160,note_on,60,0,3,,,,,,,,,2,,,51,0
98160,note_on,0,0,3,,,,,,,,,2,,,56,49
98160,note_on,0,0,2,,,,,,,,,1,,,60,49
98160,note_on,0,0,1,,,,,,,,,0,,,72,62
98160,note_on,120,0,1,,,,,,,,,0,,,73,0
98160,note_on,0,0,2,,,,,,,,,1,,,61,0
98220,note_on,60,0,3,,,,,,,,,2,,,56,0
98220,note_on,0,0,3,,,,,,,,,2,,,44,49
98220,note_on,0,0,4,,,,,,,,,3,,,44,49
98220,note_on,180,0,4,,,,,,,,,3,,,44,0
98280,note_on,0,0,1,,,,,,,,,0,,,70,62
98280,note_on,120,0,1,,,,,,,,,0,,,72,0
98280,note_on,60,0,3,,,,,,,,,2,,,44,0
98280,note_on,0,0,3,,,,,,,,,2,,,51,49
98340,note_on,0,0,3,,,,,,,,,2,,,56,49
98340,note_on,0,0,1,,,,,,,,,0,,,68,62
98340,control_change,0,0,1,,,,,,,,,0,64,0,,
98340,note_on,60,0,1,,,,,,,,,0,,,70,0
98340,note_on,60,0,3,,,,,,,,,2,,,51,0
98340,control_change,0,0,3,,,,,,,,,2,64,0,,
98400,note_on,0,0,2,,,,,,,,,1,,,67,49
98400,note_on,0,0,2,,,,,,,,,1,,,63,49
98400,note_on,240,0,2,,,,,,,,,1,,,60,0
98400,note_on,0,0,3,,,,,,,,,2,,,46,49
98400,control_change,0,0,3,,,,,,,,,2,64,127,,
98400,note_on,60,0,3,,,,,,,,,2,,,56,0
98400,note_on,180,0,4,,,,,,,,,3,,,44,0
98400,note_on,60,0,1,,,,,,,,,0,,,68,0
98400,control_change,0,0,1,,,,,,,,,0,64,127,,
98400,note_on,0,0,1,,,,,,,,,0,,,75,88
98400,note_on,0,0,4,,,,,,,,,3,,,46,49
98460,note_on,60,0,3,,,,,,,,,2,,,46,0
98460,note_on,0,0,3,,,,,,,,,2,,,51,49
98520,note_on,120,0,1,,,,,,,,,0,,,75,0
98520,note_on,0,0,1,,,,,,,,,0,,,73,62
98520,note_on,0,0,3,,,,,,,,,2,,,58,49
98520,note_on,120,0,2,,,,,,,,,1,,,67,0
98520,note_on,0,0,2,,,,,,,,,1,,,63,0
98520,note_on,0,0,2,,,,,,,,,1,,,61,49
98520,note_on,60,0,3,,,,,,,,,2,,,51,0
98580,note_on,60,0,3,,,,,,,,,2,,,58,0
98580,note_on,0,0,3,,,,,,,,,2,,,46,49
98580,note_on,0,0,4,,,,,,,,,3,,,46,49
98580,note_on,180,0,4,,,,,,,,,3,,,46,0
98640,note_on,0,0,1,,,,,,,,,0,,,72,62
98640,note_on,0,0,3,,,,,,,,,2,,,51,49
98640,note_on,60,0,3,,,,,,,,,2,,,46,0
98640,note_on,120,0,1,,,,,,,,,0,,,73,0
98700,control_change,0,0,1,,,,,,,,,0,64,0,,
98700,note_on,0,0,3,,,,,,,,,2,,,58,49
98700,control_change,0,0,3,,,,,,,,,2,64,0,,
98700,note_on,60,0,3,,,,,,,,,2,,,51,0
98700,note_on,0,0,1,,,,,,,,,0,,,70,62
98700,note_on,60,0,1,,,,,,,,,0,,,72,0
98760,note_on,0,0,3,,,,,,,,,2,,,44,49
98760,control_change,0,0,3,,,,,,,,,2,64,127,,
98760,note_on,60,0,3,,,,,,,,,2,,,58,0
98760,control_change,0,0,1,,,,,,,,,0,64,127,,
98760,note_on,0,0,2,,,,,,,,,1,,,63,49
98760,note_on,240,0,2,,,,,,,,,1,,,61,0
98760,note_on,0,0,4,,,,,,,,,3,,,44,49
98760,note_on,180,0,4,,,,,,,,,3,,,46,0
98760,note_on,60,0,1,,,,,,,,,0,,,70,0
98760,note_on,0,0,1,,,,,,,,,0,,,73,88
98760,note_on,0,0,2,,,,,,,,,1,,,61,49
98820,note_on,60,0,3,,,,,,,,,2,,,44,0
98820,note_on,0,0,3,,,,,,,,,2,,,51,49
98880,note_on,120,0,1,,,,,,,,,0,,,73,0
98880,note_on,0,0,1,,,,,,,,,0,,,72,62
98880,note_on,0,0,2,,,,,,,,,1,,,61,0
98880,note_on,120,0,2,,,,,,,,,1,,,63,0
98880,note_on,0,0,3,,,,,,,,,2,,,56,49
98880,note_on,60,0,3,,,,,,,,,2,,,51,0
98880,note_on,0,0,2,,,,,,,,,1,,,60,49
98940,note_on,0,0,3,,,,,,,,,2,,,44,49
98940,note_on,60,0,3,,,,,,,,,2,,,56,0
98940,note_on,0,0,4,,,,,,,,,3,,,44,49
98940,note_on,180,0,4,,,,,,,,,3,,,44,0
99000,note_on,0,0,1,,,,,,,,,0,,,70,62
99000,note_on,120,0,1,,,,,,,,,0,,,72,0
99000,note_on,60,0,3,,,,,,,,,2,,,44,0
99000,note_on,0,0,3,,,,,,,,,2,,,51,49
99060,control_change,0,0,1,,,,,,,,,0,64,0,,
99060,note_on,0,0,1,,,,,,,,,0,,,68,62
99060,note_on,60,0,1,,,,,,,,,0,,,70,0
99060,note_on,0,0,3,,,,,,,,,2,,,56,49
99060,control_change,0,0,3,,,,,,,,,2,64,0,,
99060,note_on,60,0,3,,,,,,,,,2,,,51,0
99120,control_change,0,0,1,,,,,,,,,0,64,127,,
99120,note_on,0,0,2,,,,,,,,,1,,,67,49
99120,note_on,0,0,2,,,,,,,,,1,,,63,49
99120,note_on,240,0,2,,,,,,,,,1,,,60,0
99120,note_on,0,0,1,,,,,,,,,0,,,75,88
99120,note_on,60,0,3,,,,,,,,,2,,,56,0
99120,note_on,60,0,1,,,,,,,,,0,,,68,0
99120,control_change,0,0,3,,,,,,,,,2,64,127,,
99120,note_on,0,0,3,,,,,,,,,2,,,46,49
99120,note_on,0,0,4,,,,,,,,,3,,,46,49
99120,note_on,180,0,4,,,,,,,,,3,,,44,0
99180,note_on,60,0,3,,,,,,,,,2,,,46,0
99180,note_on,0,0,3,,,,,,,,,2,,,51,49
99240,note_on,0,0,2,,,,,,,,,1,,,63,0
99240,note_on,120,0,2,,,,,,,,,1,,,67,0
99240,note_on,0,0,2,,,,,,,,,1,,,61,49
99240,note_on,60,0,3,,,,,,,,,2,,,51,0
99240,note_on,0,0,3,,,,,,,,,2,,,58,49
99240,note_on,0,0,1,,,,,,,,,0,,,73,62
99240,note_on,120,0,1,,,,,,,,,0,,,75,0
99300,note_on,180,0,4,,,,,,,,,3,,,46,0
99300,note_on,0,0,4,,,,,,,,,3,,,46,49
99300,note_on,0,0,3,,,,,,,,,2,,,46,49
99300,note_on,60,0,3,,,,,,,,,2,,,58,0
99360,note_on,120,0,1,,,,,,,,,0,,,73,0
99360,note_on,0,0,1,,,,,,,,,0,,,72,62
99360,note_on,60,0,3,,,,,,,,,2,,,46,0
99360,note_on,0,0,3,,,,,,,,,2,,,51,49
99420,note_on,60,0,1,,,,,,,,,0,,,72,0
99420,control_change,0,0,1,,,,,,,,,0,64,0,,
99420,note_on,0,0,1,,,,,,,,,0,,,70,62
99420,note_on,60,0,3,,,,,,,,,2,,,51,0
99420,note_on,0,0,3,,,,,,,,,2,,,58,49
99420,control_change,0,0,3,,,,,,,,,2,64,0,,
99480,note_on,0,0,4,,,,,,,,,3,,,48,49
99480,note_on,0,0,3,,,,,,,,,2,,,48,49
99480,control_change,0,0,3,,,,,,,,,2,64,127,,
99480,note_on,60,0,3,,,,,,,,,2,,,58,0
99480,note_on,0,0,2,,,,,,,,,1,,,68,49
99480,note_on,180,0,4,,,,,,,,,3,,,46,0
99480,control_change,0,0,1,,,,,,,,,0,64,127,,
99480,note_on,0,0,1,,,,,,,,,0,,,77,88
99480,note_on,0,0,2,,,,,,,,,1,,,65,49
99480,note_on,240,0,2,,,,,,,,,1,,,61,0
99480,note_on,60,0,1,,,,,,,,,0,,,70,0
99540,note_on,60,0,3,,,,,,,,,2,,,48,0
99540,note_on,0,0,3,,,,,,,,,2,,,56,49
99600,note_on,0,0,2,,,,,,,,,1,,,65,0
99600,note_on,0,0,2,,,,,,,,,1,,,63,49
99600,note_on,120,0,2,,,,,,,,,1,,,68,0
99600,note_on,60,0,3,,,,,,,,,2,,,56,0
99600,note_on,0,0,3,,,,,,,,,2,,,60,49
99600,note_on,120,0,1,,,,,,,,,0,,,77,0
99600,note_on,0,0,1,,,,,,,,,0,,,75,62
99660,note_on,0,0,4,,,,,,,,,3,,,48,49
99660,note_on,0,0,3,,,,,,,,,2,,,48,49
99660,note_on,180,0,4,,,,,,,,,3,,,48,0
99660,note_on,60,0,3,,,,,,,,,2,,,60,0
99720,note_on,60,0,3,,,,,,,,,2,,,48,0
99720,note_on,0,0,3,,,,,,,,,2,,,56,49
99720,note_on,0,0,1,,,,,,,,,0,,,73,62
99720,note_on,120,0,1,,,,,,,,,0,,,75,0
99780,control_change,0,0,1,,,,,,,,,0,64,0,,
99780,note_on,60,0,1,,,,,,,,,0,,,73,0
99780,note_on,0,0,3,,,,,,,,,2,,,60,49
99780,control_change,0,0,3,,,,,,,,,2,64,0,,
99780,note_on,60,0,3,,,,,,,,,2,,,56,0
99780,note_on,0,0,1,,,,,,,,,0,,,72,62
99840,note_on,60,0,3,,,,,,,,,2,,,60,0
99840,control_change,0,0,3,,,,,,,,,2,64,127,,
99840,note_on,0,0,3,,,,,,,,,2,,,48,49
99840,note_on,240,0,2,,,,,,,,,1,,,63,0
99840,note_on,0,0,1,,,,,,,,,0,,,72,62
99840,note_on,0,0,2,,,,,,,,,1,,,63,49
99840,note_on,0,0,2,,,,,,,,,1,,,66,49
99840,note_on,0,0,4,,,,,,,,,3,,,48,49
99840,note_on,180,0,4,,,,,,,,,3,,,48,0
99840,note_on,60,0,1,,,,,,,,,0,,,72,0
99840,control_change,0,0,1,,,,,,,,,0,64,127,,
99900,note_on,60,0,1,,,,,,,,,0,,,72,0
99900,note_on,60,0,3,,,,,,,,,2,,,48,0
99900,note_on,0,0,1,,,,,,,,,0,,,70,62
99900,note_on,0,0,3,,,,,,,,,2,,,54,49
99960,note_on,0,0,3,,,,,,,,,2,,,57,49
99960,note_on,60,0,3,,,,,,,,,2,,,54,0
99960,note_on,60,0,1,,,,,,,,,0,,,70,0
99960,note_on,0,0,1,,,,,,,,,0,,,69,62
100020,note_on,60,0,3,,,,,,,,,2,,,57,0
100020,note_on,0,0,3,,,,,,,,,2,,,48,49
100020,note_on,0,0,4,,,,,,,,,3,,,48,49
100020,note_on,180,0,4,,,,,,,,,3,,,48,0
100020,note_on,60,0,1,,,,,,,,,0,,,69,0
100020,note_on,0,0,1,,,,,,,,,0,,,69,62
100080,note_on,60,0,1,,,,,,,,,0,,,69,0
100080,note_on,0,0,3,,,,,,,,,2,,,54,49
100080,note_on,60,0,3,,,,,,,,,2,,,48,0
100080,note_on,0,0,1,,,,,,,,,0,,,70,62
100140,note_on,0,0,1,,,,,,,,,0,,,72,62
100140,note_on,0,0,3,,,,,,,,,2,,,57,49
100140,control_change,0,0,3,,,,,,,,,2,64,0,,
100140,note_on,60,0,1,,,,,,,,,0,,,70,0
100140,note_on,60,0,3,,,,,,,,,2,,,54,0
100140,control_change,0,0,1,,,,,,,,,0,64,0,,
100200,control_change,0,0,1,,,,,,,,,0,64,127,,
100200,note_on,0,0,1,,,,,,,,,0,,,75,62
100200,note_on,60,0,1,,,,,,,,,0,,,72,0
100200,control_change,0,0,3,,,,,,,,,2,64,127,,
100200,note_on,0,0,2,,,,,,,,,1,,,65,49
100200,note_on,0,0,2,,,,,,,,,1,,,63,0
100200,note_on,360,0,2,,,,,,,,,1,,,66,0
100200,note_on,0,0,3,,,,,,,,,2,,,49,49
100200,note_on,180,0,4,,,,,,,,,3,,,48,0
100200,note_on,60,0,3,,,,,,,,,2,,,57,0
100200,note_on,0,0,4,,,,,,,,,3,,,49,49
100260,note_on,60,0,1,,,,,,,,,0,,,75,0
100260,note_on,0,0,3,,,,,,,,,2,,,53,49
100260,note_on,60,0,3,,,,,,,,,2,,,49,0
100260,note_on,0,0,1,,,,,,,,,0,,,73,62
100320,note_on,60,0,1,,,,,,,,,0,,,73,0
100320,note_on,0,0,3,,,,,,,,,2,,,57,49
100320,note_on,0,0,1,,,,,,,,,0,,,72,62
100320,note_on,60,0,3,,,,,,,,,2,,,53,0
100380,note_on,60,0,1,,,,,,,,,0,,,72,0
100380,note_on,0,0,1,,,,,,,,,0,,,75,62
100380,note_on,0,0,4,,,,,,,,,3,,,49,49
100380,note_on,0,0,3,,,,,,,,,2,,,49,49
100380,note_on,60,0,3,,,,,,,,,2,,,57,0
100380,note_on,180,0,4,,,,,,,,,3,,,49,0
100440,note_on,0,0,3,,,,,,,,,2,,,58,49
100440,note_on,60,0,3,,,,,,,,,2,,,49,0
100440,note_on,60,0,1,,,,,,,,,0,,,75,0
100440,note_on,0,0,1,,,,,,,,,0,,,73,62
100500,note_on,0,0,3,,,,,,,,,2,,,61,49
100500,control_change,0,0,3,,,,,,,,,2,64,0,,
100500,note_on,60,0,3,,,,,,,,,2,,,58,0
100500,note_on,60,0,1,,,,,,,,,0,,,73,0
100500,control_change,0,0,1,,,,,,,,,0,64,0,,
100500,note_on,0,0,1,,,,,,,,,0,,,70,62
100560,note_on,0,0,4,,,,,,,,,3,,,51,49
100560,note_on,180,0,4,,,,,,,,,3,,,49,0
100560,note_on,0,0,1,,,,,,,,,0,,,68,62
100560,control_change,0,0,3,,,,,,,,,2,64,127,,
100560,control_change,0,0,1,,,,,,,,,0,64,127,,
100560,note_on,360,0,2,,,,,,,,,1,,,65,0
100560,note_on,0,0,2,,,,,,,,,1,,,68,49
100560,note_on,60,0,3,,,,,,,,,2,,,61,0
100560,note_on,0,0,3,,,,,,,,,2,,,51,49
100560,note_on,60,0,1,,,,,,,,,0,,,70,0
100620,note_on,0,0,3,,,,,,,,,2,,,60,49
100620,note_on,60,0,3,,,,,,,,,2,,,51,0
100680,note_on,0,0,3,,,,,,,,,2,,,63,49
100680,note_on,60,0,3,,,,,,,,,2,,,60,0
100740,note_on,60,0,3,,,,,,,,,2,,,63,0
100740,note_on,0,0,4,,,,,,,,,3,,,51,49
100740,note_on,180,0,4,,,,,,,,,3,,,51,0
100740,note_on,0,0,3,,,,,,,,,2,,,51,49
100740,note_on,0,0,2,,,,,,,,,1,,,67,49
100740,note_on,180,0,2,,,,,,,,,1,,,68,0
100740,note_on,0,0,1,,,,,,,,,0,,,72,62
100740,note_on,180,0,1,,,,,,,,,0,,,68,0
100800,note_on,60,0,3,,,,,,,,,2,,,51,0
100800,note_on,0,0,3,,,,,,,,,2,,,61,49
100860,control_change,0,0,3,,,,,,,,,2,64,0,,
100860,note_on,60,0,3,,,,,,,,,2,,,61,0
100860,note_on,0,0,3,,,,,,,,,2,,,63,49
100860,note_on,120,0,1,,,,,,,,,0,,,72,0
100860,control_change,0,0,1,,,,,,,,,0,64,0,,
100860,note_on,0,0,1,,,,,,,,,0,,,70,62
100920,control_change,0,0,3,,,,,,,,,2,64,127,,
100920,note_on,0,0,3,,,,,,,,,2,,,44,62
100920,note_on,0,0,3,,,,,,,,,2,,,56,62
100920,note_on,180,0,2,,,,,,,,,1,,,67,0
100920,control_change,0,0,2,,,,,,,,,1,64,127,,
100920,note_on,0,0,2,,,,,,,,,1,,,68,62
100920,note_on,0,0,2,,,,,,,,,1,,,75,62
100920,note_on,60,0,3,,,,,,,,,2,,,63,0
100920,note_on,180,0,4,,,,,,,,,3,,,51,0
100920,note_on,60,0,1,,,,,,,,,0,,,70,0
100920,note_on,0,0,1,,,,,,,,,0,,,73,101
100920,control_change,0,0,1,,,,,,,,,0,64,127,,
100980,note_on,60,0,3,,,,,,,,,2,,,56,0
100980,note_on,0,0,3,,,,,,,,,2,,,63,62
100980,note_on,0,0,3,,,,,,,,,2,,,56,62
100980,note_on,0,0,3,,,,,,,,,2,,,44,0
100986,note_on,0,0,3,,,,,,,,,2,,,56,0
100986,note_on,6,0,3,,,,,,,,,2,,,63,0
101040,note_on,54,0,3,,,,,,,,,2,,,56,62
101040,note_on,120,0,1,,,,,,,,,0,,,73,0
101040,note_on,0,0,1,,,,,,,,,0,,,72,75
101040,note_on,0,0,3,,,,,,,,,2,,,63,62
101046,note_on,6,0,3,,,,,,,,,2,,,63,0
101046,note_on,0,0,3,,,,,,,,,2,,,56,0
101100,note_on,54,0,3,,,,,,,,,2,,,56,62
101100,note_on,0,0,3,,,,,,,,,2,,,63,62
101106,note_on,0,0,3,,,,,,,,,2,,,56,0
101106,note_on,6,0,3,,,,,,,,,2,,,63,0
101160,note_on,0,0,2,,,,,,,,,1,,,68,0
101160,note_on,240,0,2,,,,,,,,,1,,,75,0
101160,note_on,0,0,3,,,,,,,,,2,,,63,62
101160,note_on,0,0,3,,,,,,,,,2,,,58,62
101160,note_on,54,0,3,,,,,,,,,2,,,56,62
101160,note_on,0,0,1,,,,,,,,,0,,,70,75
101160,note_on,120,0,1,,,,,,,,,0,,,72,0
101160,note_on,0,0,2,,,,,,,,,1,,,67,62
101166,note_on,0,0,3,,,,,,,,,2,,,56,0
101166,note_on,6,0,3,,,,,,,,,2,,,63,0
101166,note_on,0,0,3,,,,,,,,,2,,,58,0
101220,note_on,0,0,2,,,,,,,,,1,,,68,62
101220,control_change,0,0,2,,,,,,,,,1,64,0,,
101220,note_on,60,0,2,,,,,,,,,1,,,67,0
101220,note_on,60,0,1,,,,,,,,,0,,,70,0
101220,control_change,54,0,3,,,,,,,,,2,64,0,,
101220,note_on,0,0,3,,,,,,,,,2,,,56,62
101220,note_on,0,0,3,,,,,,,,,2,,,60,62
101220,note_on,0,0,3,,,,,,,,,2,,,63,62
101220,control_change,0,0,1,,,,,,,,,0,64,0,,
101220,note_on,0,0,1,,,,,,,,,0,,,68,75
101226,note_on,0,0,3,,,,,,,,,2,,,56,0
101226,note_on,0,0,3,,,,,,,,,2,,,60,0
101226,note_on,6,0,3,,,,,,,,,2,,,63,0
101280,control_change,54,0,3,,,,,,,,,2,64,127,,
101280,note_on,0,0,1,,,,,,,,,0,,,67,75
101280,control_change,0,0,1,,,,,,,,,0,64,127,,
101280,note_on,60,0,1,,,,,,,,,0,,,68,0
101280,note_on,0,0,3,,,,,,,,,2,,,51,62
101280,note_on,60,0,2,,,,,,,,,1,,,68,0
101305,note_on,25,0,1,,,,,,,,,0,,,70,75
101306,note_on,1,0,1,,,,,,,,,0,,,67,0
101331,note_on,0,0,1,,,,,,,,,0,,,73,75
101331,note_on,25,0,1,,,,,,,,,0,,,70,0
101340,note_on,0,0,3,,,,,,,,,2,,,64,62
101340,note_on,0,0,3,,,,,,,,,2,,,61,62
101340,note_on,60,0,3,,,,,,,,,2,,,51,0
101340,note_on,0,0,3,,,,,,,,,2,,,67,62
101346,note_on,0,0,3,,,,,,,,,2,,,61,0
101346,note_on,0,0,3,,,,,,,,,2,,,64,0
101346,note_on,6,0,3,,,,,,,,,2,,,67,0
101357,note_on,0,0,1,,,,,,,,,0,,,76,75
101357,note_on,26,0,1,,,,,,,,,0,,,73,0
101382,note_on,25,0,1,,,,,,,,,0,,,79,75
101383,note_on,1,0,1,,,,,,,,,0,,,76,0
101400,note_on,0,0,3,,,,,,,,,2,,,67,62
101400,note_on,0,0,3,,,,,,,,,2,,,64,62
101400,note_on,54,0,3,,,,,,,,,2,,,61,62
101406,note_on,0,0,3,,,,,,,,,2,,,61,0
101406,note_on,6,0,3,,,,,,,,,2,,,67,0
101406,note_on,0,0,3,,,,,,,,,2,,,64,0
101408,note_on,0,0,1,,,,,,,,,0,,,82,75
101408,note_on,25,0,1,,,,,,,,,0,,,79,0
101434,note_on,0,0,1,,,,,,,,,0,,,85,75
101434,note_on,26,0,1,,,,,,,,,0,,,82,0
101460,note_on,54,0,3,,,,,,,,,2,,,51,62
101460,note_on,26,0,1,,,,,,,,,0,,,85,0
101460,note_on,0,0,1,,,,,,,,,0,,,88,101
101520,note_on,0,0,3,,,,,,,,,2,,,61,62
101520,note_on,60,0,3,,,,,,,,,2,,,51,0
101520,note_on,0,0,3,,,,,,,,,2,,,64,62
101520,note_on,0,0,3,,,,,,,,,2,,,67,62
101526,note_on,6,0,3,,,,,,,,,2,,,67,0
101526,note_on,0,0,3,,,,,,,,,2,,,61,0
101526,note_on,0,0,3,,,,,,,,,2,,,64,0
101580,note_on,0,0,3,,,,,,,,,2,,,67,62
101580,note_on,0,0,3,,,,,,,,,2,,,63,62
101580,note_on,0,0,3,,,,,,,,,2,,,61,62
101580,control_change,54,0,3,,,,,,,,,2,64,0,,
101580,note_on,120,0,1,,,,,,,,,0,,,88,0
101580,control_change,0,0,1,,,,,,,,,0,64,0,,
101580,note_on,0,0,1,,,,,,,,,0,,,87,75
101586,note_on,6,0,3,,,,,,,,,2,,,67,0
101586,note_on,0,0,3,,,,,,,,,2,,,61,0
101586,note_on,0,0,3,,,,,,,,,2,,,63,0
101640,note_on,60,0,1,,,,,,,,,0,,,87,0
101640,control_change,0,0,1,,,,,,,,,0,64,127,,
101640,control_change,0,0,1,,,,,,,,,0,64,127,,
101640,note_on,0,0,1,,,,,,,,,0,,,73,101
101640,note_on,0,0,2,,,,,,,,,1,,,75,62
101640,note_on,0,0,2,,,,,,,,,1,,,68,62
101640,control_change,360,0,2,,,,,,,,,1,64,127,,
101640,note_on,0,0,3,,,,,,,,,2,,,56,62
101640,note_on,0,0,3,,,,,,,,,2,,,44,62
101640,control_change,54,0,3,,,,,,,,,2,64,127,,
101700,note_on,60,0,3,,,,,,,,,2,,,56,0
101700,note_on,0,0,3,,,,,,,,,2,,,44,0
101700,note_on,0,0,3,,,,,,,,,2,,,56,62
101700,note_on,0,0,3,,,,,,,,,2,,,63,62
101706,note_on,6,0,3,,,,,,,,,2,,,63,0
101706,note_on,0,0,3,,,,,,,,,2,,,56,0
101760,note_on,120,0,1,,,,,,,,,0,,,73,0
101760,note_on,0,0,1,,,,,,,,,0,,,72,75
101760,note_on,54,0,3,,,,,,,,,2,,,56,62
101760,note_on,0,0,3,,,,,,,,,2,,,63,62
101766,note_on,0,0,3,,,,,,,,,2,,,56,0
101766,note_on,6,0,3,,,,,,,,,2,,,63,0
101820,note_on,0,0,3,,,,,,,,,2,,,63,62
101820,note_on,54,0,3,,,,,,,,,2,,,56,62
101826,note_on,6,0,3,,,,,,,,,2,,,63,0
101826,note_on,0,0,3,,,,,,,,,2,,,56,0
101880,note_on,54,0,3,,,,,,,,,2,,,56,62
101880,note_on,0,0,1,,,,,,,,,0,,,70,75
101880,note_on,0,0,2,,,,,,,,,1,,,67,62
101880,note_on,0,0,2,,,,,,,,,1,,,68,0
101880,note_on,240,0,2,,,,,,,,,1,,,75,0
101880,note_on,120,0,1,,,,,,,,,0,,,72,0
101880,note_on,0,0,3,,,,,,,,,2,,,58,62
101880,note_on,0,0,3,,,,,,,,,2,,,63,62
101886,note_on,0,0,3,,,,,,,,,2,,,58,0
101886,note_on,6,0,3,,,,,,,,,2,,,63,0
101886,note_on,0,0,3,,,,,,,,,2,,,56,0
101940,note_on,60,0,1,,,,,,,,,0,,,70,0
101940,control_change,0,0,1,,,,,,,,,0,64,0,,
101940,note_on,0,0,1,,,,,,,,,0,,,68,75
101940,note_on,0,0,3,,,,,,,,,2,,,56,62
101940,note_on,60,0,2,,,,,,,,,1,,,67,0
101940,control_change,0,0,2,,,,,,,,,1,64,0,,
101940,control_change,54,0,3,,,,,,,,,2,64,0,,
101940,note_on,0,0,3,,,,,,,,,2,,,60,62
101940,note_on,0,0,2,,,,,,,,,1,,,68,62
101940,note_on,0,0,3,,,,,,,,,2,,,63,62
101946,note_on,6,0,3,,,,,,,,,2,,,63,0
101946,note_on,0,0,3,,,,,,,,,2,,,60,0
101946,note_on,0,0,3,,,,,,,,,2,,,56,0
102000,control_change,54,0,3,,,,,,,,,2,64,127,,
102000,note_on,0,0,3,,,,,,,,,2,,,51,62
102000,note_on,60,0,2,,,,,,,,,1,,,68,0
102000,note_on,0,0,1,,,,,,,,,0,,,67,75
102000,control_change,0,0,1,,,,,,,,,0,64,127,,
102000,note_on,60,0,1,,,,,,,,,0,,,68,0
102025,note_on,25,0,1,,,,,,,,,0,,,70,75
102026,note_on,1,0,1,,,,,,,,,0,,,67,0
102051,note_on,25,0,1,,,,,,,,,0,,,70,0
102051,note_on,0,0,1,,,,,,,,,0,,,73,75
102060,note_on,0,0,3,,,,,,,,,2,,,67,62
102060,note_on,0,0,3,,,,,,,,,2,,,64,62
102060,note_on,0,0,3,,,,,,,,,2,,,61,62
102060,note_on,60,0,3,,,,,,,,,2,,,51,0
102066,note_on,0,0,3,,,,,,,,,2,,,64,0
102066,note_on,6,0,3,,,,,,,,,2,,,67,0
102066,note_on,0,0,3,,,,,,,,,2,,,61,0
102077,note_on,0,0,1,,,,,,,,,0,,,76,75
102077,note_on,26,0,1,,,,,,,,,0,,,73,0
102102,note_on,25,0,1,,,,,,,,,0,,,79,75
102103,note_on,1,0,1,,,,,,,,,0,,,76,0
102120,note_on,0,0,3,,,,,,,,,2,,,67,62
102120,note_on,0,0,3,,,,,,,,,2,,,64,62
102120,note_on,54,0,3,,,,,,,,,2,,,61,62
102126,note_on,0,0,3,,,,,,,,,2,,,61,0
102126,note_on,0,0,3,,,,,,,,,2,,,64,0
102126,note_on,6,0,3,,,,,,,,,2,,,67,0
102128,note_on,25,0,1,,,,,,,,,0,,,79,0
102128,note_on,0,0,1,,,,,,,,,0,,,82,75
102154,note_on,0,0,1,,,,,,,,,0,,,85,75
102154,note_on,26,0,1,,,,,,,,,0,,,82,0
102180,note_on,26,0,1,,,,,,,,,0,,,85,0
102180,note_on,0,0,1,,,,,,,,,0,,,88,101
102180,note_on,54,0,3,,,,,,,,,2,,,51,62
102240,note_on,0,0,3,,,,,,,,,2,,,61,62
102240,note_on,60,0,3,,,,,,,,,2,,,51,0
102240,note_on,0,0,3,,,,,,,,,2,,,67,62
102240,note_on,0,0,3,,,,,,,,,2,,,64,62
102246,note_on,6,0,3,,,,,,,,,2,,,67,0
102246,note_on,0,0,3,,,,,,,,,2,,,64,0
102246,note_on,0,0,3,,,,,,,,,2,,,61,0
102300,control_change,54,0,3,,,,,,,,,2,64,0,,
102300,note_on,0,0,3,,,,,,,,,2,,,61,62
102300,note_on,0,0,3,,,,,,,,,2,,,64,62
102300,note_on,0,0,3,,,,,,,,,2,,,67,62
102306,note_on,0,0,3,,,,,,,,,2,,,61,0
102306,note_on,0,0,3,,,,,,,,,2,,,64,0
102306,note_on,6,0,3,,,,,,,,,2,,,67,0
102360,control_change,54,0,3,,,,,,,,,2,64,127,,
102360,note_on,360,0,2,,,,,,,,,1,,,76,49
102360,note_on,0,0,3,,,,,,,,,2,,,52,49
102360,control_change,180,0,1,,,,,,,,,0,64,0,,
102420,note_on,0,0,3,,,,,,,,,2,,,64,49
102420,note_on,60,0,3,,,,,,,,,2,,,52,0
102420,note_on,0,0,3,,,,,,,,,2,,,61,49
102426,note_on,6,0,3,,,,,,,,,2,,,64,0
102426,note_on,0,0,3,,,,,,,,,2,,,61,0
102480,note_on,54,0,3,,,,,,,,,2,,,61,49
102480,note_on,0,0,3,,,,,,,,,2,,,64,49
102486,note_on,0,0,3,,,,,,,,,2,,,61,0
102486,note_on,6,0,3,,,,,,,,,2,,,64,0
102540,note_on,0,0,1,,,,,,,,,0,,,86,62
102540,note_on,0,0,3,,,,,,,,,2,,,52,49
102540,note_on,180,0,2,,,,,,,,,1,,,76,0
102540,note_on,180,0,1,,,,,,,,,0,,,88,0
102540,control_change,54,0,3,,,,,,,,,2,64,0,,
102540,note_on,0,0,2,,,,,,,,,1,,,80,49
102600,note_on,0,0,1,,,,,,,,,0,,,85,62
102600,note_on,60,0,1,,,,,,,,,0,,,86,0
102600,note_on,60,0,3,,,,,,,,,2,,,52,0
102600,note_on,0,0,3,,,,,,,,,2,,,62,49
102600,note_on,0,0,3,,,,,,,,,2,,,64,49
102606,note_on,6,0,3,,,,,,,,,2,,,64,0
102606,note_on,0,0,3,,,,,,,,,2,,,62,0
102660,note_on,0,0,1,,,,,,,,,0,,,84,62
102660,note_on,54,0,3,,,,,,,,,2,,,62,49
102660,note_on,0,0,3,,,,,,,,,2,,,64,49
102660,note_on,60,0,1,,,,,,,,,0,,,85,0
102666,note_on,6,0,3,,,,,,,,,2,,,64,0
102666,note_on,0,0,3,,,,,,,,,2,,,62,0
102720,control_change,0,0,2,,,,,,,,,1,64,127,,
102720,control_change,54,0,3,,,,,,,,,2,64,127,,
102720,note_on,0,0,3,,,,,,,,,2,,,45,36
102720,note_on,0,0,3,,,,,,,,,2,,,57,36
102720,note_on,60,0,1,,,,,,,,,0,,,84,0
102720,control_change,0,0,1,,,,,,,,,0,64,127,,
102720,control_change,0,0,1,,,,,,,,,0,64,127,,
102720,note_on,0,0,1,,,,,,,,,0,,,74,75
102720,note_on,180,0,2,,,,,,,,,1,,,80,0
102720,note_on,0,0,2,,,,,,,,,1,,,69,36
102720,note_on,0,0,2,,,,,,,,,1,,,76,36
102780,note_on,0,0,3,,,,,,,,,2,,,64,36
102780,note_on,0,0,3,,,,,,,,,2,,,57,36
102780,note_on,0,0,3,,,,,,,,,2,,,45,0
102780,note_on,60,0,3,,,,,,,,,2,,,57,0
102786,note_on,0,0,3,,,,,,,,,2,,,57,0
102786,note_on,6,0,3,,,,,,,,,2,,,64,0
102840,note_on,54,0,3,,,,,,,,,2,,,57,36
102840,note_on,0,0,3,,,,,,,,,2,,,64,36
102840,note_on,120,0,1,,,,,,,,,0,,,74,0
102840,note_on,0,0,1,,,,,,,,,0,,,73,49
102846,note_on,0,0,3,,,,,,,,,2,,,57,0
102846,note_on,6,0,3,,,,,,,,,2,,,64,0
102900,note_on,54,0,3,,,,,,,,,2,,,57,36
102900,note_on,0,0,3,,,,,,,,,2,,,64,36
102906,note_on,6,0,3,,,,,,,,,2,,,64,0
102906,note_on,0,0,3,,,,,,,,,2,,,57,0
102960,note_on,0,0,2,,,,,,,,,1,,,68,36
102960,note_on,54,0,3,,,,,,,,,2,,,57,36
102960,note_on,0,0,1,,,,,,,,,0,,,71,49
102960,note_on,0,0,3,,,,,,,,,2,,,59,36
102960,note_on,0,0,2,,,,,,,,,1,,,69,0
102960,note_on,120,0,1,,,,,,,,,0,,,73,0
102960,note_on,240,0,2,,,,,,,,,1,,,76,0
102960,note_on,0,0,3,,,,,,,,,2,,,64,36
102966,note_on,0,0,3,,,,,,,,,2,,,59,0
102966,note_on,0,0,3,,,,,,,,,2,,,57,0
102966,note_on,6,0,3,,,,,,,,,2,,,64,0
103020,control_change,0,0,2,,,,,,,,,1,64,0,,
103020,note_on,60,0,2,,,,,,,,,1,,,68,0
103020,note_on,60,0,1,,,,,,,,,0,,,71,0
103020,note_on,0,0,2,,,,,,,,,1,,,69,36
103020,note_on,0,0,3,,,,,,,,,2,,,57,36
103020,note_on,0,0,3,,,,,,,,,2,,,61,36
103020,note_on,0,0,3,,,,,,,,,2,,,64,36
103020,note_on,0,0,1,,,,,,,,,0,,,69,49
103020,control_change,0,0,1,,,,,,,,,0,64,0,,
103020,control_change,54,0,3,,,,,,,,,2,64,0,,
103026,note_on,6,0,3,,,,,,,,,2,,,64,0
103026,note_on,0,0,3,,,,,,,,,2,,,61,0
103026,note_on,0,0,3,,,,,,,,,2,,,57,0
103080,note_on,0,0,1,,,,,,,,,0,,,68,49
103080,control_change,0,0,1,,,,,,,,,0,64,127,,
103080,note_on,60,0,1,,,,,,,,,0,,,69,0
103080,note_on,60,0,2,,,,,,,,,1,,,69,0
103080,control_change,54,0,3,,,,,,,,,2,64,127,,
103080,note_on,0,0,3,,,,,,,,,2,,,52,36
103105,note_on,25,0,1,,,,,,,,,0,,,71,49
103106,note_on,1,0,1,,,,,,,,,0,,,68,0
103131,note_on,25,0,1,,,,,,,,,0,,,71,0
103131,note_on,0,0,1,,,,,,,,,0,,,74,49
103140,note_on,60,0,3,,,,,,,,,2,,,52,0
103140,note_on,0,0,3,,,,,,,,,2,,,62,36
103140,note_on,0,0,3,,,,,,,,,2,,,68,36
103140,note_on,0,0,3,,,,,,,,,2,,,65,36
103146,note_on,0,0,3,,,,,,,,,2,,,62,0
103146,note_on,0,0,3,,,,,,,,,2,,,65,0
103146,note_on,6,0,3,,,,,,,,,2,,,68,0
103157,note_on,0,0,1,,,,,,,,,0,,,77,49
103157,note_on,26,0,1,,,,,,,,,0,,,74,0
103182,note_on,25,0,1,,,,,,,,,0,,,80,49
103183,note_on,1,0,1,,,,,,,,,0,,,77,0
103200,note_on,0,0,3,,,,,,,,,2,,,68,36
103200,note_on,0,0,3,,,,,,,,,2,,,65,36
103200,note_on,54,0,3,,,,,,,,,2,,,62,36
103206,note_on,0,0,3,,,,,,,,,2,,,62,0
103206,note_on,0,0,3,,,,,,,,,2,,,65,0
103206,note_on,6,0,3,,,,,,,,,2,,,68,0
103208,note_on,25,0,1,,,,,,,,,0,,,80,0
103208,note_on,0,0,1,,,,,,,,,0,,,83,49
103234,note_on,26,0,1,,,,,,,,,0,,,83,0
103234,note_on,0,0,1,,,,,,,,,0,,,86,49
103260,note_on,54,0,3,,,,,,,,,2,,,52,36
103260,note_on,26,0,1,,,,,,,,,0,,,86,0
103260,note_on,0,0,1,,,,,,,,,0,,,89,75
103320,note_on,0,0,3,,,,,,,,,2,,,65,36
103320,note_on,0,0,3,,,,,,,,,2,,,62,36
103320,note_on,60,0,3,,,,,,,,,2,,,52,0
103320,note_on,0,0,3,,,,,,,,,2,,,68,36
103326,note_on,0,0,3,,,,,,,,,2,,,65,0
103326,note_on,0,0,3,,,,,,,,,2,,,62,0
103326,note_on,6,0,3,,,,,,,,,2,,,68,0
103380,note_on,0,0,3,,,,,,,,,2,,,68,36
103380,note_on,0,0,3,,,,,,,,,2,,,64,36
103380,note_on,0,0,3,,,,,,,,,2,,,62,36
103380,note_on,120,0,1,,,,,,,,,0,,,89,0
103380,note_on,0,0,1,,,,,,,,,0,,,88,49
103380,control_change,54,0,3,,,,,,,,,2,64,0,,
103380,control_change,0,0,1,,,,,,,,,0,64,0,,
103386,note_on,6,0,3,,,,,,,,,2,,,68,0
103386,note_on,0,0,3,,,,,,,,,2,,,64,0
103386,note_on,0,0,3,,,,,,,,,2,,,62,0
103440,control_change,0,0,1,,,,,,,,,0,64,127,,
103440,control_change,0,0,1,,,,,,,,,0,64,127,,
103440,note_on,0,0,3,,,,,,,,,2,,,45,36
103440,control_change,54,0,3,,,,,,,,,2,64,127,,
103440,note_on,0,0,2,,,,,,,,,1,,,69,36
103440,note_on,0,0,3,,,,,,,,,2,,,57,36
103440,note_on,60,0,1,,,,,,,,,0,,,88,0
103440,note_on,0,0,1,,,,,,,,,0,,,74,75
103440,control_change,360,0,2,,,,,,,,,1,64,127,,
103440,note_on,0,0,2,,,,,,,,,1,,,76,36
103500,note_on,60,0,3,,,,,,,,,2,,,57,0
103500,note_on,0,0,3,,,,,,,,,2,,,45,0
103500,note_on,0,0,3,,,,,,,,,2,,,57,36
103500,note_on,0,0,3,,,,,,,,,2,,,64,36
103506,note_on,0,0,3,,,,,,,,,2,,,57,0
103506,note_on,6,0,3,,,,,,,,,2,,,64,0
103560,note_on,0,0,3,,,,,,,,,2,,,64,36
103560,note_on,120,0,1,,,,,,,,,0,,,74,0
103560,note_on,0,0,1,,,,,,,,,0,,,73,49
103560,note_on,54,0,3,,,,,,,,,2,,,57,36
103566,note_on,6,0,3,,,,,,,,,2,,,64,0
103566,note_on,0,0,3,,,,,,,,,2,,,57,0
103620,note_on,54,0,3,,,,,,,,,2,,,57,36
103620,note_on,0,0,3,,,,,,,,,2,,,64,36
103626,note_on,0,0,3,,,,,,,,,2,,,57,0
103626,note_on,6,0,3,,,,,,,,,2,,,64,0
103680,note_on,120,0,1,,,,,,,,,0,,,73,0
103680,note_on,0,0,1,,,,,,,,,0,,,71,49
103680,note_on,0,0,3,,,,,,,,,2,,,59,36
103680,note_on,0,0,3,,,,,,,,,2,,,64,36
103680,note_on,54,0,3,,,,,,,,,2,,,57,36
103680,note_on,240,0,2,,,,,,,,,1,,,76,0
103680,note_on,0,0,2,,,,,,,,,1,,,68,36
103680,note_on,0,0,2,,,,,,,,,1,,,69,0
103686,note_on,0,0,3,,,,,,,,,2,,,59,0
103686,note_on,0,0,3,,,,,,,,,2,,,57,0
103686,note_on,6,0,3,,,,,,,,,2,,,64,0
103740,note_on,0,0,2,,,,,,,,,1,,,69,36
103740,note_on,0,0,3,,,,,,,,,2,,,64,36
103740,note_on,0,0,3,,,,,,,,,2,,,61,36
103740,note_on,0,0,3,,,,,,,,,2,,,57,36
103740,note_on,60,0,1,,,,,,,,,0,,,71,0
103740,control_change,0,0,1,,,,,,,,,0,64,0,,
103740,note_on,0,0,1,,,,,,,,,0,,,69,49
103740,note_on,60,0,2,,,,,,,,,1,,,68,0
103740,control_change,54,0,3,,,,,,,,,2,64,0,,
103740,control_change,0,0,2,,,,,,,,,1,64,0,,
103746,note_on,0,0,3,,,,,,,,,2,,,57,0
103746,note_on,0,0,3,,,,,,,,,2,,,61,0
103746,note_on,6,0,3,,,,,,,,,2,,,64,0
103800,note_on,60,0,2,,,,,,,,,1,,,69,0
103800,note_on,0,0,3,,,,,,,,,2,,,52,36
103800,control_change,54,0,3,,,,,,,,,2,64,127,,
103800,note_on,60,0,1,,,,,,,,,0,,,69,0
103800,control_change,0,0,1,,,,,,,,,0,64,127,,
103800,note_on,0,0,1,,,,,,,,,0,,,68,49
103825,note_on,25,0,1,,,,,,,,,0,,,71,49
103826,note_on,1,0,1,,,,,,,,,0,,,68,0
103851,note_on,25,0,1,,,,,,,,,0,,,71,0
103851,note_on,0,0,1,,,,,,,,,0,,,74,49
103860,note_on,0,0,3,,,,,,,,,2,,,68,36
103860,note_on,0,0,3,,,,,,,,,2,,,65,36
103860,note_on,0,0,3,,,,,,,,,2,,,62,36
103860,note_on,60,0,3,,,,,,,,,2,,,52,0
103866,note_on,0,0,3,,,,,,,,,2,,,65,0
103866,note_on,6,0,3,,,,,,,,,2,,,68,0
103866,note_on,0,0,3,,,,,,,,,2,,,62,0
103877,note_on,0,0,1,,,,,,,,,0,,,77,49
103877,note_on,26,0,1,,,,,,,,,0,,,74,0
103902,note_on,25,0,1,,,,,,,,,0,,,80,49
103903,note_on,1,0,1,,,,,,,,,0,,,77,0
103920,note_on,0,0,3,,,,,,,,,2,,,65,36
103920,note_on,54,0,3,,,,,,,,,2,,,62,36
103920,note_on,0,0,3,,,,,,,,,2,,,68,36
103926,note_on,0,0,3,,,,,,,,,2,,,62,0
103926,note_on,0,0,3,,,,,,,,,2,,,65,0
103926,note_on,6,0,3,,,,,,,,,2,,,68,0
103928,note_on,0,0,1,,,,,,,,,0,,,83,49
103928,note_on,25,0,1,,,,,,,,,0,,,80,0
103954,note_on,0,0,1,,,,,,,,,0,,,86,49
103954,note_on,26,0,1,,,,,,,,,0,,,83,0
103980,note_on,54,0,3,,,,,,,,,2,,,52,36
103980,note_on,26,0,1,,,,,,,,,0,,,86,0
103980,note_on,0,0,1,,,,,,,,,0,,,89,75
104040,note_on,60,0,3,,,,,,,,,2,,,52,0
104040,note_on,0,0,3,,,,,,,,,2,,,62,36
104040,note_on,0,0,3,,,,,,,,,2,,,65,36
104040,note_on,0,0,3,,,,,,,,,2,,,68,36
104046,note_on,6,0,3,,,,,,,,,2,,,68,0
104046,note_on,0,0,3,,,,,,,,,2,,,65,0
104046,note_on,0,0,3,,,,,,,,,2,,,62,0
104100,note_on,0,0,3,,,,,,,,,2,,,68,36
104100,note_on,0,0,3,,,,,,,,,2,,,64,36
104100,note_on,0,0,1,,,,,,,,,0,,,88,49
104100,control_change,54,0,3,,,,,,,,,2,64,0,,
104100,control_change,0,0,1,,,,,,,,,0,64,0,,
104100,note_on,0,0,3,,,,,,,,,2,,,62,36
104100,note_on,120,0,1,,,,,,,,,0,,,89,0
104106,note_on,6,0,3,,,,,,,,,2,,,68,0
104106,note_on,0,0,3,,,,,,,,,2,,,64,0
104106,note_on,0,0,3,,,,,,,,,2,,,62,0
104160,control_change,54,0,3,,,,,,,,,2,64,127,,
104160,note_on,0,0,3,,,,,,,,,2,,,64,36
104160,note_on,0,0,3,,,,,,,,,2,,,57,36
104160,note_on,0,0,2,,,,,,,,,1,,,69,36
104160,control_change,360,0,2,,,,,,,,,1,64,127,,
104160,note_on,60,0,1,,,,,,,,,0,,,88,0
104160,control_change,0,0,1,,,,,,,,,0,64,127,,
104160,control_change,0,0,1,,,,,,,,,0,64,127,,
104160,note_on,0,0,1,,,,,,,,,0,,,74,75
104160,note_on,0,0,2,,,,,,,,,1,,,76,36
104220,note_on,60,0,3,,,,,,,,,2,,,64,0
104220,note_on,0,0,3,,,,,,,,,2,,,57,0
104220,note_on,0,0,3,,,,,,,,,2,,,57,36
104220,note_on,0,0,3,,,,,,,,,2,,,64,36
104226,note_on,6,0,3,,,,,,,,,2,,,64,0
104226,note_on,0,0,3,,,,,,,,,2,,,57,0
104280,note_on,0,0,3,,,,,,,,,2,,,64,36
104280,note_on,54,0,3,,,,,,,,,2,,,57,36
104280,note_on,0,0,1,,,,,,,,,0,,,73,49
104280,note_on,120,0,1,,,,,,,,,0,,,74,0
104286,note_on,6,0,3,,,,,,,,,2,,,64,0
104286,note_on,0,0,3,,,,,,,,,2,,,57,0
104340,note_on,54,0,3,,,,,,,,,2,,,57,36
104340,note_on,0,0,3,,,,,,,,,2,,,64,36
104346,note_on,6,0,3,,,,,,,,,2,,,64,0
104346,note_on,0,0,3,,,,,,,,,2,,,57,0
104400,note_on,54,0,3,,,,,,,,,2,,,57,36
104400,note_on,0,0,3,,,,,,,,,2,,,59,36
104400,note_on,0,0,3,,,,,,,,,2,,,64,36
104400,note_on,0,0,2,,,,,,,,,1,,,68,36
104400,note_on,0,0,2,,,,,,,,,1,,,69,0
104400,note_on,240,0,2,,,,,,,,,1,,,76,0
104400,note_on,120,0,1,,,,,,,,,0,,,73,0
104400,note_on,0,0,1,,,,,,,,,0,,,71,49
104406,note_on,0,0,3,,,,,,,,,2,,,57,0
104406,note_on,0,0,3,,,,,,,,,2,,,59,0
104406,note_on,6,0,3,,,,,,,,,2,,,64,0
104460,note_on,0,0,3,,,,,,,,,2,,,64,36
104460,note_on,0,0,3,,,,,,,,,2,,,61,36
104460,note_on,0,0,3,,,,,,,,,2,,,57,36
104460,note_on,0,0,1,,,,,,,,,0,,,69,49
104460,control_change,54,0,3,,,,,,,,,2,64,0,,
104460,note_on,60,0,1,,,,,,,,,0,,,71,0
104460,control_change,0,0,1,,,,,,,,,0,64,0,,
104460,note_on,0,0,2,,,,,,,,,1,,,69,36
104460,control_change,0,0,2,,,,,,,,,1,64,0,,
104460,note_on,60,0,2,,,,,,,,,1,,,68,0
104466,note_on,0,0,3,,,,,,,,,2,,,57,0
104466,note_on,0,0,3,,,,,,,,,2,,,61,0
104466,note_on,6,0,3,,,,,,,,,2,,,64,0
104520,note_on,0,0,3,,,,,,,,,2,,,65,36
104520,note_on,0,0,3,,,,,,,,,2,,,60,36
104520,note_on,0,0,3,,,,,,,,,2,,,57,36
104520,control_change,54,0,3,,,,,,,,,2,64,127,,
104520,note_on,60,0,1,,,,,,,,,0,,,69,0
104520,note_on,0,0,2,,,,,,,,,1,,,77,62
104520,note_on,0,0,1,,,,,,,,,0,,,72,49
104520,control_change,0,0,1,,,,,,,,,0,64,127,,
104520,note_on,60,0,2,,,,,,,,,1,,,69,0
104580,note_on,0,0,3,,,,,,,,,2,,,65,36
104580,note_on,0,0,3,,,,,,,,,2,,,60,36
104580,note_on,0,0,3,,,,,,,,,2,,,57,36
104580,note_on,0,0,3,,,,,,,,,2,,,57,0
104580,note_on,60,0,3,,,,,,,,,2,,,65,0
104580,note_on,0,0,3,,,,,,,,,2,,,60,0
104640,note_on,120,0,1,,,,,,,,,0,,,72,0
104640,note_on,0,0,1,,,,,,,,,0,,,75,49
104640,note_on,0,0,3,,,,,,,,,2,,,60,36
104640,note_on,60,0,3,,,,,,,,,2,,,65,0
104640,note_on,0,0,3,,,,,,,,,2,,,60,0
104640,note_on,0,0,3,,,,,,,,,2,,,57,0
104640,note_on,0,0,3,,,,,,,,,2,,,65,36
104640,note_on,0,0,3,,,,,,,,,2,,,57,36
104700,note_on,0,0,3,,,,,,,,,2,,,57,36
104700,note_on,0,0,3,,,,,,,,,2,,,65,36
104700,note_on,0,0,3,,,,,,,,,2,,,60,36
104700,note_on,0,0,3,,,,,,,,,2,,,57,0
104700,note_on,0,0,3,,,,,,,,,2,,,60,0
104700,note_on,60,0,3,,,,,,,,,2,,,65,0
104760,note_on,0,0,3,,,,,,,,,2,,,62,36
104760,note_on,0,0,3,,,,,,,,,2,,,57,36
104760,note_on,0,0,3,,,,,,,,,2,,,57,0
104760,note_on,0,0,3,,,,,,,,,2,,,60,0
104760,note_on,60,0,3,,,,,,,,,2,,,65,0
104760,note_on,0,0,3,,,,,,,,,2,,,65,36
104760,note_on,120,0,1,,,,,,,,,0,,,75,0
104760,note_on,0,0,1,,,,,,,,,0,,,74,49
104820,note_on,60,0,3,,,,,,,,,2,,,65,0
104820,note_on,60,0,1,,,,,,,,,0,,,74,0
104820,control_change,0,0,1,,,,,,,,,0,64,0,,
104820,note_on,0,0,1,,,,,,,,,0,,,72,49
104820,note_on,0,0,3,,,,,,,,,2,,,65,36
104820,note_on,0,0,3,,,,,,,,,2,,,63,36
104820,note_on,0,0,3,,,,,,,,,2,,,57,36
104820,control_change,0,0,3,,,,,,,,,2,64,0,,
104820,note_on,0,0,3,,,,,,,,,2,,,57,0
104820,note_on,0,0,3,,,,,,,,,2,,,62,0
104880,note_on,60,0,1,,,,,,,,,0,,,72,0
104880,control_change,0,0,1,,,,,,,,,0,64,127,,
104880,note_on,0,0,1,,,,,,,,,0,,,72,49
104880,note_on,0,0,2,,,,,,,,,1,,,78,62
104880,note_on,360,0,2,,,,,,,,,1,,,77,0
104880,note_on,60,0,3,,,,,,,,,2,,,65,0
104880,note_on,0,0,3,,,,,,,,,2,,,63,0
104880,note_on,0,0,3,,,,,,,,,2,,,57,0
104880,control_change,0,0,3,,,,,,,,,2,64,127,,
104880,note_on,0,0,3,,,,,,,,,2,,,57,36
104880,note_on,0,0,3,,,,,,,,,2,,,60,36
104880,note_on,0,0,3,,,,,,,,,2,,,66,36
104940,note_on,0,0,3,,,,,,,,,2,,,66,36
104940,note_on,0,0,3,,,,,,,,,2,,,60,36
104940,note_on,0,0,3,,,,,,,,,2,,,57,36
104940,note_on,0,0,3,,,,,,,,,2,,,60,0
104940,note_on,60,0,3,,,,,,,,,2,,,66,0
104940,note_on,0,0,3,,,,,,,,,2,,,57,0
105000,note_on,120,0,1,,,,,,,,,0,,,72,0
105000,note_on,60,0,3,,,,,,,,,2,,,66,0
105000,note_on,0,0,3,,,,,,,,,2,,,60,0
105000,note_on,0,0,3,,,,,,,,,2,,,57,0
105000,note_on,0,0,3,,,,,,,,,2,,,57,36
105000,note_on,0,0,3,,,,,,,,,2,,,60,36
105000,note_on,0,0,3,,,,,,,,,2,,,66,36
105000,note_on,0,0,1,,,,,,,,,0,,,75,49
105060,note_on,0,0,3,,,,,,,,,2,,,60,0
105060,note_on,60,0,3,,,,,,,,,2,,,66,0
105060,note_on,0,0,3,,,,,,,,,2,,,57,0
105060,note_on,0,0,3,,,,,,,,,2,,,57,36
105060,note_on,0,0,3,,,,,,,,,2,,,60,36
105060,note_on,0,0,3,,,,,,,,,2,,,66,36
105120,note_on,60,0,3,,,,,,,,,2,,,66,0
105120,note_on,0,0,3,,,,,,,,,2,,,60,0
105120,note_on,0,0,3,,,,,,,,,2,,,57,49
105120,note_on,0,0,3,,,,,,,,,2,,,62,49
105120,note_on,0,0,3,,,,,,,,,2,,,66,49
105120,note_on,0,0,3,,,,,,,,,2,,,57,0
105120,note_on,120,0,1,,,,,,,,,0,,,75,0
105120,note_on,0,0,1,,,,,,,,,0,,,74,62
105180,control_change,0,0,3,,,,,,,,,2,64,0,,
105180,note_on,60,0,3,,,,,,,,,2,,,66,0
105180,note_on,0,0,3,,,,,,,,,2,,,57,49
105180,note_on,0,0,3,,,,,,,,,2,,,63,49
105180,note_on,0,0,1,,,,,,,,,0,,,72,62
105180,control_change,0,0,1,,,,,,,,,0,64,0,,
105180,note_on,0,0,3,,,,,,,,,2,,,62,0
105180,note_on,60,0,1,,,,,,,,,0,,,74,0
105180,note_on,0,0,3,,,,,,,,,2,,,66,49
105180,note_on,0,0,3,,,,,,,,,2,,,57,0
105240,control_change,0,0,1,,,,,,,,,0,64,127,,
105240,note_on,0,0,1,,,,,,,,,0,,,79,88
105240,note_on,0,0,2,,,,,,,,,1,,,75,36
105240,note_on,0,0,2,,,,,,,,,1,,,70,36
105240,note_on,360,0,2,,,,,,,,,1,,,78,0
105240,note_on,60,0,1,,,,,,,,,0,,,72,0
105240,note_on,60,0,3,,,,,,,,,2,,,66,0
105240,note_on,0,0,3,,,,,,,,,2,,,63,0
105240,note_on,0,0,3,,,,,,,,,2,,,57,0
105240,control_change,0,0,3,,,,,,,,,2,64,127,,
105240,note_on,0,0,3,,,,,,,,,2,,,58,49
105240,note_on,0,0,3,,,,,,,,,2,,,63,49
105240,note_on,0,0,3,,,,,,,,,2,,,67,49
105300,note_on,0,0,3,,,,,,,,,2,,,58,49
105300,note_on,0,0,3,,,,,,,,,2,,,67,49
105300,note_on,0,0,3,,,,,,,,,2,,,63,49
105300,note_on,0,0,3,,,,,,,,,2,,,58,0
105300,note_on,0,0,3,,,,,,,,,2,,,63,0
105300,note_on,60,0,3,,,,,,,,,2,,,67,0
105360,note_on,0,0,1,,,,,,,,,0,,,79,62
105360,note_on,0,0,3,,,,,,,,,2,,,67,49
105360,note_on,0,0,3,,,,,,,,,2,,,63,49
105360,note_on,0,0,3,,,,,,,,,2,,,58,49
105360,note_on,60,0,3,,,,,,,,,2,,,67,0
105360,note_on,0,0,3,,,,,,,,,2,,,63,0
105360,note_on,0,0,3,,,,,,,,,2,,,58,0
105360,note_on,120,0,1,,,,,,,,,0,,,79,0
105420,note_on,0,0,3,,,,,,,,,2,,,63,49
105420,note_on,0,0,3,,,,,,,,,2,,,58,49
105420,note_on,60,0,3,,,,,,,,,2,,,67,0
105420,note_on,0,0,3,,,,,,,,,2,,,58,0
105420,note_on,0,0,3,,,,,,,,,2,,,63,0
105480,note_on,120,0,1,,,,,,,,,0,,,79,0
105480,note_on,60,0,3,,,,,,,,,2,,,63,0
105480,note_on,0,0,3,,,,,,,,,2,,,58,0
105480,note_on,0,0,3,,,,,,,,,2,,,58,62
105480,note_on,0,0,3,,,,,,,,,2,,,65,62
105480,note_on,0,0,1,,,,,,,,,0,,,77,75
105540,control_change,0,0,3,,,,,,,,,2,64,0,,
105540,note_on,0,0,3,,,,,,,,,2,,,58,62
105540,note_on,60,0,3,,,,,,,,,2,,,65,0
105540,control_change,0,0,1,,,,,,,,,0,64,0,,
105540,note_on,0,0,3,,,,,,,,,2,,,58,0
105540,note_on,0,0,1,,,,,,,,,0,,,75,75
105540,note_on,0,0,3,,,,,,,,,2,,,67,62
105540,note_on,60,0,1,,,,,,,,,0,,,77,0
105600,note_on,60,0,3,,,,,,,,,2,,,67,0
105600,note_on,0,0,3,,,,,,,,,2,,,58,0
105600,note_on,0,0,3,,,,,,,,,2,,,68,75
105600,note_on,0,0,2,,,,,,,,,1,,,74,75
105600,note_on,0,0,3,,,,,,,,,2,,,58,75
105600,control_change,0,0,3,,,,,,,,,2,64,127,,
105600,note_on,0,0,2,,,,,,,,,1,,,70,0
105600,note_on,0,0,2,,,,,,,,,1,,,70,75
105600,note_on,60,0,1,,,,,,,,,0,,,75,0
105600,control_change,0,0,1,,,,,,,,,0,64,127,,
105600,note_on,0,0,1,,,,,,,,,0,,,77,88
105600,note_on,0,0,1,,,,,,,,,0,,,80,88
105600,note_on,0,0,3,,,,,,,,,2,,,62,75
105600,note_on,360,0,2,,,,,,,,,1,,,75,0
105660,note_on,0,0,3,,,,,,,,,2,,,58,75
105660,note_on,0,0,3,,,,,,,,,2,,,58,0
105660,note_on,0,0,3,,,,,,,,,2,,,68,75
105660,note_on,0,0,3,,,,,,,,,2,,,62,75
105660,note_on,60,0,3,,,,,,,,,2,,,68,0
105660,note_on,0,0,3,,,,,,,,,2,,,62,0
105720,note_on,0,0,1,,,,,,,,,0,,,80,88
105720,note_on,0,0,1,,,,,,,,,0,,,77,88
105720,note_on,120,0,1,,,,,,,,,0,,,80,0
105720,note_on,0,0,2,,,,,,,,,1,,,70,0
105720,note_on,120,0,2,,,,,,,,,1,,,74,0
105720,note_on,0,0,3,,,,,,,,,2,,,62,75
105720,note_on,0,0,2,,,,,,,,,1,,,70,75
105720,note_on,60,0,3,,,,,,,,,2,,,68,0
105720,note_on,0,0,3,,,,,,,,,2,,,62,0
105720,note_on,0,0,3,,,,,,,,,2,,,58,0
105720,note_on,0,0,3,,,,,,,,,2,,,68,75
105720,note_on,0,0,3,,,,,,,,,2,,,58,75
105720,note_on,0,0,2,,,,,,,,,1,,,74,75
105720,note_on,0,0,1,,,,,,,,,0,,,77,0
105780,note_on,60,0,3,,,,,,,,,2,,,68,0
105780,note_on,0,0,3,,,,,,,,,2,,,62,0
105780,note_on,0,0,3,,,,,,,,,2,,,58,0
105780,note_on,0,0,3,,,,,,,,,2,,,58,75
105780,note_on,0,0,3,,,,,,,,,2,,,62,75
105780,note_on,0,0,3,,,,,,,,,2,,,68,75
105840,note_on,120,0,1,,,,,,,,,0,,,80,0
105840,note_on,0,0,1,,,,,,,,,0,,,77,0
105840,note_on,0,0,1,,,,,,,,,0,,,76,88
105840,note_on,0,0,3,,,,,,,,,2,,,62,0
105840,note_on,0,0,3,,,,,,,,,2,,,58,0
105840,note_on,0,0,3,,,,,,,,,2,,,58,75
105840,note_on,0,0,3,,,,,,,,,2,,,64,75
105840,note_on,0,0,3,,,,,,,,,2,,,68,75
105840,note_on,60,0,3,,,,,,,,,2,,,68,0
105900,note_on,0,0,3,,,,,,,,,2,,,65,75
105900,note_on,0,0,1,,,,,,,,,0,,,74,88
105900,control_change,0,0,1,,,,,,,,,0,64,0,,
105900,note_on,0,0,3,,,,,,,,,2,,,68,75
105900,note_on,60,0,1,,,,,,,,,0,,,76,0
105900,note_on,0,0,3,,,,,,,,,2,,,58,75
105900,note_on,60,0,3,,,,,,,,,2,,,68,0
105900,note_on,0,0,3,,,,,,,,,2,,,58,0
105900,note_on,0,0,3,,,,,,,,,2,,,64,0
105960,note_on,240,0,2,,,,,,,,,1,,,74,0
105960,note_on,0,0,1,,,,,,,,,0,,,80,88
105960,note_on,0,0,1,,,,,,,,,0,,,77,88
105960,note_on,0,0,1,,,,,,,,,0,,,70,88
105960,note_on,60,0,1,,,,,,,,,0,,,74,0
105960,note_on,60,0,3,,,,,,,,,2,,,68,0
105960,note_on,0,0,3,,,,,,,,,2,,,65,0
105960,note_on,0,0,3,,,,,,,,,2,,,68,75
105960,note_on,0,0,2,,,,,,,,,1,,,70,0
105960,note_on,0,0,3,,,,,,,,,2,,,62,75
105960,note_on,0,0,3,,,,,,,,,2,,,58,75
105960,note_on,0,0,3,,,,,,,,,2,,,58,0
105966,note_on,6,0,1,,,,,,,,,0,,,80,0
105966,note_on,0,0,3,,,,,,,,,2,,,62,0
105966,note_on,6,0,3,,,,,,,,,2,,,68,0
105966,note_on,0,0,3,,,,,,,,,2,,,58,0
105966,note_on,0,0,1,,,,,,,,,0,,,77,0
105966,note_on,0,0,1,,,,,,,,,0,,,70,0
106020,note_on,0,0,1,,,,,,,,,0,,,80,88
106020,note_on,0,0,1,,,,,,,,,0,,,76,88
106020,note_on,54,0,3,,,,,,,,,2,,,58,75
106020,note_on,54,0,1,,,,,,,,,0,,,70,88
106020,note_on,0,0,3,,,,,,,,,2,,,68,75
106020,note_on,0,0,3,,,,,,,,,2,,,64,75
106026,note_on,6,0,1,,,,,,,,,0,,,80,0
106026,note_on,0,0,1,,,,,,,,,0,,,76,0
106026,note_on,0,0,3,,,,,,,,,2,,,64,0
106026,note_on,0,0,1,,,,,,,,,0,,,70,0
106026,note_on,0,0,3,,,,,,,,,2,,,58,0
106026,note_on,6,0,3,,,,,,,,,2,,,68,0
106080,note_on,54,0,1,,,,,,,,,0,,,70,88
106080,note_on,0,0,3,,,,,,,,,2,,,65,75
106080,note_on,54,0,3,,,,,,,,,2,,,58,75
106080,note_on,0,0,1,,,,,,,,,0,,,74,88
106080,note_on,0,0,1,,,,,,,,,0,,,80,88
106080,note_on,0,0,3,,,,,,,,,2,,,68,75
106086,note_on,6,0,3,,,,,,,,,2,,,68,0
106086,note_on,0,0,1,,,,,,,,,0,,,70,0
106086,note_on,0,0,1,,,,,,,,,0,,,74,0
106086,note_on,6,0,1,,,,,,,,,0,,,80,0
106086,note_on,0,0,3,,,,,,,,,2,,,58,0
106086,note_on,0,0,3,,,,,,,,,2,,,65,0
106140,note_on,0,0,3,,,,,,,,,2,,,62,75
106140,note_on,54,0,3,,,,,,,,,2,,,58,75
106140,note_on,0,0,1,,,,,,,,,0,,,80,88
106140,note_on,54,0,1,,,,,,,,,0,,,70,88
106140,note_on,0,0,1,,,,,,,,,0,,,77,88
106140,note_on,0,0,3,,,,,,,,,2,,,68,75
106146,note_on,0,0,1,,,,,,,,,0,,,70,0
106146,note_on,0,0,1,,,,,,,,,0,,,77,0
106146,note_on,6,0,1,,,,,,,,,0,,,80,0
106146,note_on,0,0,3,,,,,,,,,2,,,58,0
106146,note_on,0,0,3,,,,,,,,,2,,,62,0
106146,note_on,6,0,3,,,,,,,,,2,,,68,0
106200,note_on,0,0,1,,,,,,,,,0,,,80,88
106200,note_on,0,0,3,,,,,,,,,2,,,68,75
106200,note_on,0,0,1,,,,,,,,,0,,,76,88
106200,note_on,54,0,1,,,,,,,,,0,,,70,88
106200,note_on,0,0,3,,,,,,,,,2,,,64,75
106200,note_on,54,0,3,,,,,,,,,2,,,58,75
106206,note_on,6,0,1,,,,,,,,,0,,,80,0
106206,note_on,0,0,1,,,,,,,,,0,,,76,0
106206,note_on,0,0,1,,,,,,,,,0,,,70,0
106206,note_on,0,0,3,,,,,,,,,2,,,64,0
106206,note_on,0,0,3,,,,,,,,,2,,,58,0
106206,note_on,6,0,3,,,,,,,,,2,,,68,0
106260,note_on,54,0,1,,,,,,,,,0,,,70,88
106260,note_on,54,0,3,,,,,,,,,2,,,58,75
106260,note_on,0,0,3,,,,,,,,,2,,,65,75
106260,note_on,0,0,3,,,,,,,,,2,,,68,75
106260,note_on,0,0,1,,,,,,,,,0,,,74,88
106260,note_on,0,0,1,,,,,,,,,0,,,80,88
106266,note_on,0,0,1,,,,,,,,,0,,,70,0
106266,note_on,0,0,1,,,,,,,,,0,,,74,0
106266,note_on,6,0,1,,,,,,,,,0,,,80,0
106266,note_on,6,0,3,,,,,,,,,2,,,68,0
106266,note_on,0,0,3,,,,,,,,,2,,,65,0
106266,note_on,0,0,3,,,,,,,,,2,,,58,0
106320,note_on,0,0,1,,,,,,,,,0,,,77,101
106320,note_on,0,0,1,,,,,,,,,0,,,74,101
106320,note_on,0,0,3,,,,,,,,,2,,,69,88
106320,note_on,0,0,3,,,,,,,,,2,,,62,88
106320,note_on,54,0,3,,,,,,,,,2,,,57,88
106320,control_change,54,0,1,,,,,,,,,0,64,127,,
106320,note_on,0,0,3,,,,,,,,,2,,,65,88
106320,note_on,0,0,1,,,,,,,,,0,,,81,101
106440,note_on,120,0,3,,,,,,,,,2,,,69,0
106440,note_on,0,0,3,,,,,,,,,2,,,57,0
106440,note_on,0,0,1,,,,,,,,,0,,,77,101
106440,note_on,0,0,1,,,,,,,,,0,,,74,0
106440,note_on,0,0,1,,,,,,,,,0,,,77,0
106440,note_on,0,0,3,,,,,,,,,2,,,62,0
106440,note_on,0,0,3,,,,,,,,,2,,,65,0
106440,note_on,120,0,1,,,,,,,,,0,,,81,0
106460,note_on,20,0,1,,,,,,,,,0,,,77,0
106460,note_on,0,0,1,,,,,,,,,0,,,81,101
106479,note_on,19,0,1,,,,,,,,,0,,,86,101
106480,note_on,1,0,1,,,,,,,,,0,,,81,0
106499,note_on,19,0,1,,,,,,,,,0,,,86,0
106500,note_on,1,0,1,,,,,,,,,0,,,89,127
106620,note_on,120,0,1,,,,,,,,,0,,,89,0
106680,time_signature,9000,1,0,2,8,12,8,,,,,,,,,
106680,note_on,60,0,1,,,,,,,,,0,,,86,101
106700,note_on,20,0,1,,,,,,,,,0,,,86,0
106700,note_on,0,0,1,,,,,,,,,0,,,81,101
106719,note_on,19,0,1,,,,,,,,,0,,,77,101
106720,note_on,1,0,1,,,,,,,,,0,,,81,0
106739,note_on,19,0,1,,,,,,,,,0,,,77,0
106740,note_on,1,0,1,,,,,,,,,0,,,74,101
106755,note_on,0,0,1,,,,,,,,,0,,,69,101
106755,note_on,15,0,1,,,,,,,,,0,,,74,0
106770,note_on,15,0,1,,,,,,,,,0,,,69,0
106770,note_on,0,0,1,,,,,,,,,0,,,65,101
106785,control_change,0,0,1,,,,,,,,,0,64,0,,
106785,note_on,0,0,1,,,,,,,,,0,,,62,101
106785,note_on,15,0,1,,,,,,,,,0,,,65,0
106800,note_on,15,0,1,,,,,,,,,0,,,62,0
106800,time_signature,120,1,0,6,8,12,8,,,,,,,,,
106800,control_change,360,0,3,,,,,,,,,2,64,127,,
106800,note_on,0,0,3,,,,,,,,,2,,,33,88
106800,note_on,0,0,3,,,,,,,,,2,,,45,88
106800,control_change,0,0,1,,,,,,,,,0,64,127,,
106800,note_on,0,0,1,,,,,,,,,0,,,57,101
106920,note_on,120,0,3,,,,,,,,,2,,,45,0
106920,note_on,0,0,3,,,,,,,,,2,,,33,0
106920,note_on,120,0,1,,,,,,,,,0,,,57,0
106980,note_on,0,0,1,,,,,,,,,0,,,73,101
106980,note_on,0,0,1,,,,,,,,,0,,,69,101
106980,control_change,60,0,1,,,,,,,,,0,64,0,,
106980,note_on,0,0,1,,,,,,,,,0,,,81,101
106980,note_on,0,0,1,,,,,,,,,0,,,76,101
106980,note_on,0,0,3,,,,,,,,,2,,,57,88
106980,note_on,0,0,3,,,,,,,,,2,,,45,88
106980,control_change,60,0,3,,,,,,,,,2,64,0,,
107100,note_on,0,0,1,,,,,,,,,0,,,69,0
107100,note_on,120,0,3,,,,,,,,,2,,,57,0
107100,note_on,0,0,3,,,,,,,,,2,,,45,0
107100,note_on,0,0,1,,,,,,,,,0,,,73,0
107100,note_on,120,0,1,,,,,,,,,0,,,81,0
107100,note_on,0,0,1,,,,,,,,,0,,,76,0
107460,note_on,0,0,3,,,,,,,,,2,,,50,88
107460,note_on,360,0,1,,,,,,,,,0,,,69,101
107460,note_on,0,0,1,,,,,,,,,0,,,77,101
107460,note_on,0,0,1,,,,,,,,,0,,,81,101
107460,note_on,360,0,3,,,,,,,,,2,,,38,88
107466,note_on,0,0,1,,,,,,,,,0,,,69,0
107466,note_on,0,0,1,,,,,,,,,0,,,77,0
107466,note_on,6,0,1,,,,,,,,,0,,,81,0
107520,note_on,0,0,1,,,,,,,,,0,,,77,101
107520,note_on,0,0,1,,,,,,,,,0,,,69,101
107520,note_on,60,0,3,,,,,,,,,2,,,50,0
107520,note_on,0,0,3,,,,,,,,,2,,,38,0
107520,note_on,0,0,3,,,,,,,,,2,,,38,88
107520,note_on,0,0,3,,,,,,,,,2,,,50,88
107520,control_change,54,0,1,,,,,,,,,0,64,127,,
107520,note_on,0,0,1,,,,,,,,,0,,,81,101
107610,note_on,0,0,1,,,,,,,,,0,,,79,101
107610,note_on,0,0,1,,,,,,,,,0,,,77,0
107610,note_on,0,0,1,,,,,,,,,0,,,69,0
107610,note_on,0,0,1,,,,,,,,,0,,,67,101
107610,note_on,0,0,1,,,,,,,,,0,,,76,101
107610,note_on,90,0,1,,,,,,,,,0,,,81,0
107640,control_change,0,0,1,,,,,,,,,0,64,0,,
107640,note_on,0,0,1,,,,,,,,,0,,,76,0
107640,note_on,0,0,1,,,,,,,,,0,,,74,101
107640,note_on,0,0,3,,,,,,,,,2,,,38,0
107640,note_on,120,0,3,,,,,,,,,2,,,50,0
107640,note_on,30,0,1,,,,,,,,,0,,,79,0
107640,note_on,0,0,1,,,,,,,,,0,,,77,101
107640,note_on,0,0,1,,,,,,,,,0,,,67,0
107640,note_on,0,0,1,,,,,,,,,0,,,65,101
107700,note_on,0,0,1,,,,,,,,,0,,,69,101
107700,note_on,0,0,1,,,,,,,,,0,,,77,101
107700,note_on,0,0,1,,,,,,,,,0,,,65,101
107700,note_on,0,0,1,,,,,,,,,0,,,65,0
107700,control_change,0,0,1,,,,,,,,,0,64,127,,
107700,note_on,0,0,1,,,,,,,,,0,,,74,0
107700,note_on,60,0,1,,,,,,,,,0,,,77,0
107700,note_on,60,0,3,,,,,,,,,2,,,50,88
107700,note_on,0,0,3,,,,,,,,,2,,,62,88
107790,note_on,0,0,1,,,,,,,,,0,,,64,101
107790,note_on,0,0,1,,,,,,,,,0,,,65,0
107790,note_on,0,0,1,,,,,,,,,0,,,76,101
107790,note_on,0,0,1,,,,,,,,,0,,,67,101
107790,note_on,0,0,1,,,,,,,,,0,,,69,0
107790,note_on,90,0,1,,,,,,,,,0,,,77,0
107820,note_on,120,0,3,,,,,,,,,2,,,62,0
107820,control_change,0,0,1,,,,,,,,,0,64,0,,
107820,note_on,0,0,1,,,,,,,,,0,,,74,101
107820,note_on,0,0,1,,,,,,,,,0,,,65,101
107820,note_on,0,0,1,,,,,,,,,0,,,62,101
107820,note_on,0,0,1,,,,,,,,,0,,,64,0
107820,note_on,0,0,1,,,,,,,,,0,,,67,0
107820,note_on,30,0,1,,,,,,,,,0,,,76,0
107820,note_on,0,0,3,,,,,,,,,2,,,50,0
107880,control_change,60,0,3,,,,,,,,,2,64,127,,
107880,note_on,0,0,3,,,,,,,,,2,,,57,62
107880,note_on,0,0,1,,,,,,,,,0,,,73,75
107880,note_on,60,0,1,,,,,,,,,0,,,74,0
107880,note_on,0,0,3,,,,,,,,,2,,,61,62
107880,control_change,0,0,1,,,,,,,,,0,64,127,,
107880,note_on,0,0,1,,,,,,,,,0,,,69,75
107880,note_on,0,0,1,,,,,,,,,0,,,65,0
107880,note_on,0,0,1,,,,,,,,,0,,,62,0
108000,note_on,0,0,3,,,,,,,,,2,,,57,0
108000,note_on,0,0,1,,,,,,,,,0,,,74,49
108000,note_on,0,0,1,,,,,,,,,0,,,71,49
108000,note_on,0,0,1,,,,,,,,,0,,,69,0
108000,note_on,120,0,1,,,,,,,,,0,,,73,0
108000,note_on,0,0,3,,,,,,,,,2,,,59,36
108000,note_on,0,0,3,,,,,,,,,2,,,62,36
108000,note_on,0,0,3,,,,,,,,,2,,,57,36
108000,note_on,120,0,3,,,,,,,,,2,,,61,0
108006,note_on,0,0,3,,,,,,,,,2,,,57,0
108006,note_on,0,0,3,,,,,,,,,2,,,59,0
108006,note_on,6,0,3,,,,,,,,,2,,,62,0
108006,note_on,6,0,1,,,,,,,,,0,,,74,0
108006,note_on,0,0,1,,,,,,,,,0,,,71,0
108060,note_on,54,0,3,,,,,,,,,2,,,57,36
108060,note_on,0,0,1,,,,,,,,,0,,,76,49
108060,note_on,0,0,3,,,,,,,,,2,,,61,36
108060,note_on,54,0,1,,,,,,,,,0,,,73,49
108060,note_on,0,0,3,,,,,,,,,2,,,64,36
108180,note_on,0,0,3,,,,,,,,,2,,,61,0
108180,control_change,0,0,1,,,,,,,,,0,64,0,,
108180,note_on,0,0,1,,,,,,,,,0,,,77,49
108180,note_on,0,0,1,,,,,,,,,0,,,74,49
108180,note_on,0,0,1,,,,,,,,,0,,,73,0
108180,note_on,120,0,1,,,,,,,,,0,,,76,0
108180,note_on,0,0,3,,,,,,,,,2,,,65,36
108180,note_on,0,0,3,,,,,,,,,2,,,62,36
108180,note_on,0,0,3,,,,,,,,,2,,,57,36
108180,control_change,0,0,3,,,,,,,,,2,64,0,,
108180,note_on,0,0,3,,,,,,,,,2,,,57,0
108180,note_on,120,0,3,,,,,,,,,2,,,64,0
108186,note_on,0,0,3,,,,,,,,,2,,,57,0
108186,note_on,6,0,3,,,,,,,,,2,,,65,0
108186,note_on,0,0,3,,,,,,,,,2,,,62,0
108186,note_on,6,0,1,,,,,,,,,0,,,77,0
108186,note_on,0,0,1,,,,,,,,,0,,,74,0
108240,note_on,0,0,3,,,,,,,,,2,,,64,62
108240,note_on,54,0,1,,,,,,,,,0,,,76,75
108240,note_on,0,0,1,,,,,,,,,0,,,79,75
108240,note_on,0,0,3,,,,,,,,,2,,,67,62
108240,note_on,54,0,3,,,,,,,,,2,,,57,62
108360,note_on,0,0,3,,,,,,,,,2,,,69,62
108360,note_on,0,0,3,,,,,,,,,2,,,65,62
108360,note_on,0,0,3,,,,,,,,,2,,,57,62
108360,note_on,0,0,3,,,,,,,,,2,,,57,0
108360,note_on,120,0,3,,,,,,,,,2,,,67,0
108360,note_on,0,0,1,,,,,,,,,0,,,81,75
108360,note_on,0,0,1,,,,,,,,,0,,,77,75
108360,note_on,0,0,1,,,,,,,,,0,,,76,0
108360,note_on,120,0,1,,,,,,,,,0,,,79,0
108360,note_on,0,0,3,,,,,,,,,2,,,64,0
108366,note_on,6,0,3,,,,,,,,,2,,,69,0
108366,note_on,0,0,3,,,,,,,,,2,,,57,0
108366,note_on,0,0,3,,,,,,,,,2,,,65,0
108366,note_on,6,0,1,,,,,,,,,0,,,81,0
108366,note_on,0,0,1,,,,,,,,,0,,,77,0
108420,note_on,0,0,3,,,,,,,,,2,,,67,75
108420,note_on,54,0,3,,,,,,,,,2,,,57,75
108420,note_on,0,0,1,,,,,,,,,0,,,82,88
108420,note_on,54,0,1,,,,,,,,,0,,,79,88
108420,note_on,0,0,3,,,,,,,,,2,,,70,75
108600,control_change,0,0,1,,,,,,,,,0,64,127,,
108600,note_on,180,0,1,,,,,,,,,0,,,79,0
108600,note_on,180,0,3,,,,,,,,,2,,,70,0
108600,note_on,0,0,3,,,,,,,,,2,,,67,0
108600,note_on,0,0,3,,,,,,,,,2,,,57,0
108600,control_change,0,0,3,,,,,,,,,2,64,127,,
108600,note_on,0,0,3,,,,,,,,,2,,,57,62
108630,note_on,0,0,1,,,,,,,,,0,,,88,75
108630,note_on,30,0,1,,,,,,,,,0,,,82,0
108660,note_on,0,0,3,,,,,,,,,2,,,70,62
108660,note_on,0,0,3,,,,,,,,,2,,,67,62
108660,note_on,30,0,1,,,,,,,,,0,,,88,0
108660,note_on,0,0,1,,,,,,,,,0,,,85,75
108660,note_on,60,0,3,,,,,,,,,2,,,57,0
108666,note_on,6,0,3,,,,,,,,,2,,,70,0
108666,note_on,0,0,3,,,,,,,,,2,,,67,0
108690,note_on,30,0,1,,,,,,,,,0,,,85,0
108690,note_on,0,0,1,,,,,,,,,0,,,91,75
108720,note_on,0,0,3,,,,,,,,,2,,,70,62
108720,note_on,0,0,1,,,,,,,,,0,,,88,75
108720,note_on,30,0,1,,,,,,,,,0,,,91,0
108720,note_on,54,0,3,,,,,,,,,2,,,67,62
108726,note_on,6,0,3,,,,,,,,,2,,,70,0
108726,note_on,0,0,3,,,,,,,,,2,,,67,0
108750,note_on,0,0,1,,,,,,,,,0,,,94,75
108750,note_on,30,0,1,,,,,,,,,0,,,88,0
108780,note_on,54,0,3,,,,,,,,,2,,,57,62
108780,note_on,0,0,1,,,,,,,,,0,,,91,75
108780,note_on,30,0,1,,,,,,,,,0,,,94,0
108810,note_on,30,0,1,,,,,,,,,0,,,91,0
108810,note_on,0,0,1,,,,,,,,,0,,,88,75
108840,note_on,60,0,3,,,,,,,,,2,,,57,0
108840,note_on,0,0,3,,,,,,,,,2,,,70,62
108840,note_on,0,0,3,,,,,,,,,2,,,67,62
108840,note_on,30,0,1,,,,,,,,,0,,,88,0
108840,note_on,0,0,1,,,,,,,,,0,,,85,75
108846,note_on,0,0,3,,,,,,,,,2,,,67,0
108846,note_on,6,0,3,,,,,,,,,2,,,70,0
108870,note_on,0,0,1,,,,,,,,,0,,,82,75
108870,note_on,30,0,1,,,,,,,,,0,,,85,0
108900,note_on,0,0,3,,,,,,,,,2,,,70,62
108900,note_on,54,0,3,,,,,,,,,2,,,67,62
108900,note_on,0,0,1,,,,,,,,,0,,,88,75
108900,note_on,30,0,1,,,,,,,,,0,,,82,0
108906,note_on,0,0,3,,,,,,,,,2,,,67,0
108906,note_on,6,0,3,,,,,,,,,2,,,70,0
108930,note_on,0,0,1,,,,,,,,,0,,,85,75
108930,note_on,30,0,1,,,,,,,,,0,,,88,0
108960,note_on,0,0,1,,,,,,,,,0,,,82,75
108960,note_on,30,0,1,,,,,,,,,0,,,85,0
108960,note_on,54,0,3,,,,,,,,,2,,,57,62
108990,note_on,30,0,1,,,,,,,,,0,,,82,0
108990,note_on,0,0,1,,,,,,,,,0,,,79,75
109020,note_on,0,0,1,,,,,,,,,0,,,85,75
109020,note_on,60,0,3,,,,,,,,,2,,,57,0
109020,note_on,0,0,3,,,,,,,,,2,,,67,62
109020,note_on,0,0,3,,,,,,,,,2,,,70,62
109020,note_on,30,0,1,,,,,,,,,0,,,79,0
109026,note_on,0,0,3,,,,,,,,,2,,,67,0
109026,note_on,6,0,3,,,,,,,,,2,,,70,0
109050,note_on,0,0,1,,,,,,,,,0,,,82,75
109050,note_on,30,0,1,,,,,,,,,0,,,85,0
109080,note_on,0,0,3,,,,,,,,,2,,,70,62
109080,note_on,0,0,1,,,,,,,,,0,,,79,75
109080,note_on,30,0,1,,,,,,,,,0,,,82,0
109080,note_on,54,0,3,,,,,,,,,2,,,67,62
109086,note_on,6,0,3,,,,,,,,,2,,,70,0
109086,note_on,0,0,3,,,,,,,,,2,,,67,0
109110,note_on,0,0,1,,,,,,,,,0,,,76,75
109110,note_on,30,0,1,,,,,,,,,0,,,79,0
109140,note_on,54,0,3,,,,,,,,,2,,,57,62
109140,note_on,30,0,1,,,,,,,,,0,,,76,0
109140,note_on,0,0,1,,,,,,,,,0,,,82,75
109170,note_on,30,0,1,,,,,,,,,0,,,82,0
109170,note_on,0,0,1,,,,,,,,,0,,,79,75
109200,note_on,0,0,3,,,,,,,,,2,,,69,62
109200,control_change,0,0,3,,,,,,,,,2,64,0,,
109200,note_on,60,0,3,,,,,,,,,2,,,57,0
109200,note_on,0,0,1,,,,,,,,,0,,,76,75
109200,note_on,30,0,1,,,,,,,,,0,,,79,0
109200,control_change,0,0,1,,,,,,,,,0,64,0,,
109200,note_on,0,0,3,,,,,,,,,2,,,67,62
109206,note_on,6,0,3,,,,,,,,,2,,,69,0
109206,note_on,0,0,3,,,,,,,,,2,,,67,0
109230,note_on,30,0,1,,,,,,,,,0,,,76,0
109230,note_on,0,0,1,,,,,,,,,0,,,73,75
109260,note_on,54,0,3,,,,,,,,,2,,,38,88
109260,note_on,0,0,3,,,,,,,,,2,,,50,88
109260,note_on,0,0,1,,,,,,,,,0,,,81,101
109260,note_on,0,0,1,,,,,,,,,0,,,77,101
109260,note_on,0,0,1,,,,,,,,,0,,,69,101
109260,note_on,30,0,1,,,,,,,,,0,,,73,0
109266,note_on,0,0,1,,,,,,,,,0,,,69,0
109266,note_on,0,0,1,,,,,,,,,0,,,77,0
109266,note_on,6,0,1,,,,,,,,,0,,,81,0
109266,note_on,6,0,3,,,,,,,,,2,,,50,0
109266,note_on,0,0,3,,,,,,,,,2,,,38,0
109320,note_on,54,0,3,,,,,,,,,2,,,38,88
109320,note_on,0,0,3,,,,,,,,,2,,,50,88
109320,note_on,0,0,1,,,,,,,,,0,,,81,101
109320,control_change,54,0,1,,,,,,,,,0,64,127,,
109320,note_on,0,0,1,,,,,,,,,0,,,69,101
109320,note_on,0,0,1,,,,,,,,,0,,,77,101
109410,note_on,0,0,1,,,,,,,,,0,,,69,0
109410,note_on,0,0,1,,,,,,,,,0,,,67,101
109410,note_on,0,0,1,,,,,,,,,0,,,76,101
109410,note_on,90,0,1,,,,,,,,,0,,,81,0
109410,note_on,0,0,1,,,,,,,,,0,,,79,101
109410,note_on,0,0,1,,,,,,,,,0,,,77,0
109440,note_on,0,0,3,,,,,,,,,2,,,38,0
109440,note_on,0,0,1,,,,,,,,,0,,,65,101
109440,control_change,0,0,1,,,,,,,,,0,64,0,,
109440,note_on,0,0,1,,,,,,,,,0,,,77,101
109440,note_on,0,0,1,,,,,,,,,0,,,74,101
109440,note_on,0,0,1,,,,,,,,,0,,,67,0
109440,note_on,0,0,1,,,,,,,,,0,,,76,0
109440,note_on,30,0,1,,,,,,,,,0,,,79,0
109440,note_on,120,0,3,,,,,,,,,2,,,50,0
109500,control_change,0,0,1,,,,,,,,,0,64,127,,
109500,note_on,0,0,1,,,,,,,,,0,,,77,101
109500,note_on,0,0,1,,,,,,,,,0,,,69,101
109500,note_on,0,0,1,,,,,,,,,0,,,65,101
109500,note_on,0,0,1,,,,,,,,,0,,,65,0
109500,note_on,0,0,1,,,,,,,,,0,,,74,0
109500,note_on,60,0,1,,,,,,,,,0,,,77,0
109500,note_on,60,0,3,,,,,,,,,2,,,50,88
109500,note_on,0,0,3,,,,,,,,,2,,,62,88
109590,note_on,0,0,1,,,,,,,,,0,,,65,0
109590,note_on,90,0,1,,,,,,,,,0,,,77,0
109590,note_on,0,0,1,,,,,,,,,0,,,69,0
109590,note_on,0,0,1,,,,,,,,,0,,,76,101
109590,note_on,0,0,1,,,,,,,,,0,,,64,101
109590,note_on,0,0,1,,,,,,,,,0,,,67,101
109620,note_on,0,0,1,,,,,,,,,0,,,64,0
109620,note_on,0,0,1,,,,,,,,,0,,,62,101
109620,note_on,0,0,1,,,,,,,,,0,,,65,101
109620,note_on,0,0,1,,,,,,,,,0,,,74,101
109620,note_on,0,0,1,,,,,,,,,0,,,67,0
109620,note_on,120,0,3,,,,,,,,,2,,,62,0
109620,note_on,0,0,3,,,,,,,,,2,,,50,0
109620,control_change,0,0,1,,,,,,,,,0,64,0,,
109620,note_on,30,0,1,,,,,,,,,0,,,76,0
109680,note_on,0,0,3,,,,,,,,,2,,,57,62
109680,note_on,0,0,3,,,,,,,,,2,,,61,62
109680,control_change,60,0,3,,,,,,,,,2,64,127,,
109680,note_on,60,0,1,,,,,,,,,0,,,74,0
109680,note_on,0,0,1,,,,,,,,,0,,,65,0
109680,note_on,0,0,1,,,,,,,,,0,,,62,0
109680,note_on,0,0,1,,,,,,,,,0,,,69,75
109680,note_on,0,0,1,,,,,,,,,0,,,73,75
109680,control_change,0,0,1,,,,,,,,,0,64,127,,
109800,note_on,0,0,3,,,,,,,,,2,,,59,36
109800,note_on,120,0,1,,,,,,,,,0,,,73,0
109800,note_on,0,0,1,,,,,,,,,0,,,69,0
109800,note_on,0,0,1,,,,,,,,,0,,,71,49
109800,note_on,0,0,1,,,,,,,,,0,,,74,49
109800,note_on,120,0,3,,,,,,,,,2,,,61,0
109800,note_on,0,0,3,,,,,,,,,2,,,57,0
109800,note_on,0,0,3,,,,,,,,,2,,,57,36
109800,note_on,0,0,3,,,,,,,,,2,,,62,36
109806,note_on,0,0,3,,,,,,,,,2,,,57,0
109806,note_on,6,0,1,,,,,,,,,0,,,74,0
109806,note_on,6,0,3,,,,,,,,,2,,,62,0
109806,note_on,0,0,3,,,,,,,,,2,,,59,0
109806,note_on,0,0,1,,,,,,,,,0,,,71,0
109860,note_on,54,0,1,,,,,,,,,0,,,73,49
109860,note_on,0,0,1,,,,,,,,,0,,,76,49
109860,note_on,54,0,3,,,,,,,,,2,,,57,36
109860,note_on,0,0,3,,,,,,,,,2,,,64,36
109860,note_on,0,0,3,,,,,,,,,2,,,61,36
109980,note_on,0,0,3,,,,,,,,,2,,,62,36
109980,note_on,0,0,3,,,,,,,,,2,,,57,36
109980,control_change,0,0,1,,,,,,,,,0,64,0,,
109980,note_on,0,0,1,,,,,,,,,0,,,77,49
109980,note_on,0,0,1,,,,,,,,,0,,,74,49
109980,note_on,0,0,1,,,,,,,,,0,,,73,0
109980,note_on,120,0,1,,,,,,,,,0,,,76,0
109980,control_change,0,0,3,,,,,,,,,2,64,0,,
109980,note_on,0,0,3,,,,,,,,,2,,,57,0
109980,note_on,0,0,3,,,,,,,,,2,,,61,0
109980,note_on,0,0,3,,,,,,,,,2,,,65,36
109980,note_on,120,0,3,,,,,,,,,2,,,64,0
109986,note_on,0,0,3,,,,,,,,,2,,,62,0
109986,note_on,0,0,3,,,,,,,,,2,,,57,0
109986,note_on,6,0,3,,,,,,,,,2,,,65,0
109986,note_on,6,0,1,,,,,,,,,0,,,77,0
109986,note_on,0,0,1,,,,,,,,,0,,,74,0
110040,note_on,54,0,3,,,,,,,,,2,,,57,62
110040,note_on,0,0,1,,,,,,,,,0,,,79,75
110040,note_on,54,0,1,,,,,,,,,0,,,76,75
110040,note_on,0,0,3,,,,,,,,,2,,,67,62
110040,note_on,0,0,3,,,,,,,,,2,,,64,62
110160,note_on,0,0,1,,,,,,,,,0,,,81,75
110160,note_on,0,0,1,,,,,,,,,0,,,77,75
110160,note_on,0,0,1,,,,,,,,,0,,,76,0
110160,note_on,120,0,1,,,,,,,,,0,,,79,0
110160,note_on,0,0,3,,,,,,,,,2,,,65,62
110160,note_on,120,0,3,,,,,,,,,2,,,67,0
110160,note_on,0,0,3,,,,,,,,,2,,,64,0
110160,note_on,0,0,3,,,,,,,,,2,,,57,0
110160,note_on,0,0,3,,,,,,,,,2,,,57,62
110160,note_on,0,0,3,,,,,,,,,2,,,69,62
110166,note_on,0,0,3,,,,,,,,,2,,,57,0
110166,note_on,0,0,3,,,,,,,,,2,,,65,0
110166,note_on,6,0,1,,,,,,,,,0,,,81,0
110166,note_on,0,0,1,,,,,,,,,0,,,77,0
110166,note_on,6,0,3,,,,,,,,,2,,,69,0
110220,note_on,54,0,1,,,,,,,,,0,,,79,88
110220,note_on,0,0,1,,,,,,,,,0,,,82,88
110220,note_on,0,0,3,,,,,,,,,2,,,70,75
110220,note_on,54,0,3,,,,,,,,,2,,,57,75
110220,note_on,0,0,3,,,,,,,,,2,,,67,75
110340,note_on,4380,0,2,,,,,,,,,1,,,71,36
110340,note_on,9420,0,4,,,,,,,,,3,,,59,36
110400,note_on,180,0,3,,,,,,,,,2,,,70,0
110400,control_change,0,0,1,,,,,,,,,0,64,127,,
110400,note_on,180,0,1,,,,,,,,,0,,,79,0
110400,note_on,60,0,2,,,,,,,,,1,,,71,0
110400,note_on,0,0,2,,,,,,,,,1,,,72,36
110400,note_on,0,0,3,,,,,,,,,2,,,67,0
110400,note_on,0,0,3,,,,,,,,,2,,,57,0
110400,control_change,0,0,3,,,,,,,,,2,64,127,,
110400,note_on,0,0,3,,,,,,,,,2,,,60,62
110400,note_on,60,0,4,,,,,,,,,3,,,59,0
110430,note_on,30,0,2,,,,,,,,,1,,,72,0
110430,note_on,0,0,1,,,,,,,,,0,,,88,75
110430,note_on,30,0,1,,,,,,,,,0,,,82,0
110460,note_on,0,0,3,,,,,,,,,2,,,67,62
110460,note_on,60,0,3,,,,,,,,,2,,,60,0
110460,note_on,0,0,3,,,,,,,,,2,,,73,62
110460,note_on,0,0,1,,,,,,,,,0,,,85,75
110460,note_on,0,0,3,,,,,,,,,2,,,70,62
110460,note_on,30,0,1,,,,,,,,,0,,,88,0
110466,note_on,0,0,3,,,,,,,,,2,,,67,0
110466,note_on,6,0,3,,,,,,,,,2,,,73,0
110466,note_on,0,0,3,,,,,,,,,2,,,70,0
110490,note_on,0,0,1,,,,,,,,,0,,,91,75
110490,note_on,30,0,1,,,,,,,,,0,,,85,0
110520,note_on,0,0,1,,,,,,,,,0,,,88,75
110520,note_on,30,0,1,,,,,,,,,0,,,91,0
110520,note_on,54,0,3,,,,,,,,,2,,,67,62
110520,note_on,0,0,3,,,,,,,,,2,,,70,62
110520,note_on,0,0,3,,,,,,,,,2,,,73,62
110526,note_on,6,0,3,,,,,,,,,2,,,73,0
110526,note_on,0,0,3,,,,,,,,,2,,,67,0
110526,note_on,0,0,3,,,,,,,,,2,,,70,0
110550,note_on,30,0,1,,,,,,,,,0,,,88,0
110550,note_on,0,0,1,,,,,,,,,0,,,94,75
110580,note_on,54,0,3,,,,,,,,,2,,,60,62
110580,note_on,30,0,1,,,,,,,,,0,,,94,0
110580,note_on,0,0,1,,,,,,,,,0,,,91,75
110610,note_on,30,0,1,,,,,,,,,0,,,91,0
110610,note_on,0,0,1,,,,,,,,,0,,,88,75
110640,note_on,60,0,3,,,,,,,,,2,,,60,0
110640,note_on,0,0,1,,,,,,,,,0,,,85,75
110640,note_on,30,0,1,,,,,,,,,0,,,88,0
110640,note_on,0,0,3,,,,,,,,,2,,,70,62
110640,note_on,0,0,3,,,,,,,,,2,,,73,62
110640,note_on,0,0,3,,,,,,,,,2,,,67,62
110646,note_on,6,0,3,,,,,,,,,2,,,73,0
110646,note_on,0,0,3,,,,,,,,,2,,,70,0
110646,note_on,0,0,3,,,,,,,,,2,,,67,0
110670,note_on,30,0,1,,,,,,,,,0,,,85,0
110670,note_on,0,0,1,,,,,,,,,0,,,82,75
110700,note_on,54,0,3,,,,,,,,,2,,,67,62
110700,note_on,0,0,3,,,,,,,,,2,,,70,62
110700,note_on,0,0,3,,,,,,,,,2,,,73,62
110700,note_on,0,0,1,,,,,,,,,0,,,91,75
110700,note_on,30,0,1,,,,,,,,,0,,,82,0
110706,note_on,0,0,3,,,,,,,,,2,,,67,0
110706,note_on,0,0,3,,,,,,,,,2,,,70,0
110706,note_on,6,0,3,,,,,,,,,2,,,73,0
110730,note_on,30,0,1,,,,,,,,,0,,,91,0
110730,note_on,0,0,1,,,,,,,,,0,,,88,75
110760,note_on,30,0,1,,,,,,,,,0,,,88,0
110760,note_on,0,0,1,,,,,,,,,0,,,85,75
110760,note_on,54,0,3,,,,,,,,,2,,,60,62
110790,note_on,30,0,1,,,,,,,,,0,,,85,0
110790,note_on,0,0,1,,,,,,,,,0,,,82,75
110820,note_on,0,0,3,,,,,,,,,2,,,73,62
110820,note_on,0,0,3,,,,,,,,,2,,,70,62
110820,note_on,0,0,3,,,,,,,,,2,,,67,62
110820,note_on,60,0,3,,,,,,,,,2,,,60,0
110820,note_on,30,0,1,,,,,,,,,0,,,82,0
110820,note_on,0,0,1,,,,,,,,,0,,,88,75
110826,note_on,0,0,3,,,,,,,,,2,,,70,0
110826,note_on,0,0,3,,,,,,,,,2,,,67,0
110826,note_on,6,0,3,,,,,,,,,2,,,73,0
110850,note_on,30,0,1,,,,,,,,,0,,,88,0
110850,note_on,0,0,1,,,,,,,,,0,,,85,75
110880,note_on,0,0,3,,,,,,,,,2,,,73,62
110880,note_on,54,0,3,,,,,,,,,2,,,67,62
110880,note_on,0,0,1,,,,,,,,,0,,,82,75
110880,note_on,0,0,3,,,,,,,,,2,,,70,62
110880,note_on,30,0,1,,,,,,,,,0,,,85,0
110886,note_on,6,0,3,,,,,,,,,2,,,73,0
110886,note_on,0,0,3,,,,,,,,,2,,,70,0
110886,note_on,0,0,3,,,,,,,,,2,,,67,0
110910,note_on,0,0,1,,,,,,,,,0,,,79,75
110910,note_on,30,0,1,,,,,,,,,0,,,82,0
110940,note_on,30,0,1,,,,,,,,,0,,,79,0
110940,note_on,0,0,1,,,,,,,,,0,,,85,75
110940,note_on,54,0,3,,,,,,,,,2,,,60,62
110970,note_on,30,0,1,,,,,,,,,0,,,85,0
110970,note_on,0,0,1,,,,,,,,,0,,,82,75
111000,note_on,60,0,3,,,,,,,,,2,,,60,0
111000,control_change,0,0,3,,,,,,,,,2,64,0,,
111000,note_on,0,0,3,,,,,,,,,2,,,70,62
111000,control_change,0,0,1,,,,,,,,,0,64,0,,
111000,note_on,0,0,1,,,,,,,,,0,,,79,75
111000,note_on,0,0,3,,,,,,,,,2,,,67,62
111000,note_on,30,0,1,,,,,,,,,0,,,82,0
111000,note_on,0,0,3,,,,,,,,,2,,,72,62
111006,note_on,0,0,3,,,,,,,,,2,,,67,0
111006,note_on,0,0,3,,,,,,,,,2,,,70,0
111006,note_on,6,0,3,,,,,,,,,2,,,72,0
111030,note_on,30,0,1,,,,,,,,,0,,,79,0
111030,note_on,0,0,1,,,,,,,,,0,,,76,75
111060,note_on,54,0,3,,,,,,,,,2,,,41,88
111060,note_on,0,0,1,,,,,,,,,0,,,84,101
111060,note_on,30,0,1,,,,,,,,,0,,,76,0
111060,note_on,0,0,1,,,,,,,,,0,,,72,101
111060,note_on,0,0,1,,,,,,,,,0,,,81,101
111060,note_on,0,0,3,,,,,,,,,2,,,53,88
111066,note_on,0,0,3,,,,,,,,,2,,,41,0
111066,note_on,6,0,1,,,,,,,,,0,,,84,0
111066,note_on,0,0,1,,,,,,,,,0,,,72,0
111066,note_on,6,0,3,,,,,,,,,2,,,53,0
111066,note_on,0,0,1,,,,,,,,,0,,,81,0
111120,control_change,54,0,1,,,,,,,,,0,64,127,,
111120,note_on,0,0,1,,,,,,,,,0,,,72,101
111120,note_on,0,0,1,,,,,,,,,0,,,81,101
111120,note_on,0,0,1,,,,,,,,,0,,,84,101
111120,note_on,0,0,3,,,,,,,,,2,,,53,88
111120,note_on,0,0,3,,,,,,,,,2,,,41,88
111120,control_change,54,0,3,,,,,,,,,2,64,127,,
111210,note_on,0,0,1,,,,,,,,,0,,,82,101
111210,note_on,0,0,1,,,,,,,,,0,,,72,0
111210,note_on,0,0,1,,,,,,,,,0,,,81,0
111210,note_on,90,0,1,,,,,,,,,0,,,84,0
111210,note_on,0,0,1,,,,,,,,,0,,,70,101
111210,note_on,0,0,1,,,,,,,,,0,,,79,101
111240,note_on,120,0,3,,,,,,,,,2,,,53,0
111240,note_on,0,0,3,,,,,,,,,2,,,41,0
111240,note_on,0,0,3,,,,,,,,,2,,,53,88
111240,note_on,0,0,3,,,,,,,,,2,,,65,88
111240,note_on,0,0,1,,,,,,,,,0,,,81,101
111240,note_on,0,0,1,,,,,,,,,0,,,77,101
111240,note_on,0,0,1,,,,,,,,,0,,,69,101
111240,note_on,0,0,1,,,,,,,,,0,,,70,0
111240,note_on,0,0,1,,,,,,,,,0,,,79,0
111240,note_on,30,0,1,,,,,,,,,0,,,82,0
111240,note_on,0,0,3,,,,,,,,,2,,,63,88
111246,note_on,0,0,3,,,,,,,,,2,,,53,0
111246,note_on,0,0,3,,,,,,,,,2,,,63,0
111246,note_on,6,0,3,,,,,,,,,2,,,65,0
111300,note_on,0,0,1,,,,,,,,,0,,,69,0
111300,note_on,0,0,3,,,,,,,,,2,,,65,88
111300,note_on,0,0,3,,,,,,,,,2,,,63,88
111300,note_on,54,0,3,,,,,,,,,2,,,53,88
111300,note_on,0,0,1,,,,,,,,,0,,,81,101
111300,note_on,0,0,1,,,,,,,,,0,,,77,0
111300,note_on,0,0,1,,,,,,,,,0,,,69,101
111300,note_on,0,0,1,,,,,,,,,0,,,77,101
111300,note_on,60,0,1,,,,,,,,,0,,,81,0
111306,note_on,6,0,1,,,,,,,,,0,,,81,0
111306,note_on,0,0,1,,,,,,,,,0,,,77,0
111306,note_on,0,0,1,,,,,,,,,0,,,69,0
111306,note_on,6,0,3,,,,,,,,,2,,,65,0
111306,note_on,0,0,3,,,,,,,,,2,,,63,0
111306,note_on,0,0,3,,,,,,,,,2,,,53,0
111360,note_on,0,0,1,,,,,,,,,0,,,81,101
111360,note_on,54,0,1,,,,,,,,,0,,,69,101
111360,note_on,0,0,1,,,,,,,,,0,,,77,101
111360,note_on,0,0,3,,,,,,,,,2,,,65,88
111360,note_on,0,0,3,,,,,,,,,2,,,63,88
111360,note_on,54,0,3,,,,,,,,,2,,,53,88
111366,note_on,0,0,3,,,,,,,,,2,,,53,0
111366,note_on,0,0,1,,,,,,,,,0,,,69,0
111366,note_on,0,0,1,,,,,,,,,0,,,77,0
111366,note_on,6,0,1,,,,,,,,,0,,,81,0
111366,note_on,6,0,3,,,,,,,,,2,,,65,0
111366,note_on,0,0,3,,,,,,,,,2,,,63,0
111420,note_on,0,0,1,,,,,,,,,0,,,69,101
111420,control_change,54,0,1,,,,,,,,,0,64,0,,
111420,note_on,0,0,3,,,,,,,,,2,,,63,88
111420,note_on,0,0,3,,,,,,,,,2,,,65,88
111420,note_on,0,0,1,,,,,,,,,0,,,77,101
111420,note_on,0,0,3,,,,,,,,,2,,,53,88
111420,control_change,54,0,3,,,,,,,,,2,64,0,,
111420,note_on,0,0,1,,,,,,,,,0,,,81,101
111426,note_on,0,0,1,,,,,,,,,0,,,69,0
111426,note_on,0,0,1,,,,,,,,,0,,,77,0
111426,note_on,0,0,3,,,,,,,,,2,,,53,0
111426,note_on,6,0,3,,,,,,,,,2,,,65,0
111426,note_on,6,0,1,,,,,,,,,0,,,81,0
111426,note_on,0,0,3,,,,,,,,,2,,,63,0
111480,note_on,1050,0,2,,,,,,,,,1,,,77,88
111480,control_change,54,0,1,,,,,,,,,0,64,127,,
111480,note_on,0,0,1,,,,,,,,,0,,,70,101
111480,note_on,0,0,1,,,,,,,,,0,,,82,101
111480,note_on,1080,0,4,,,,,,,,,3,,,53,88
111480,control_change,54,0,3,,,,,,,,,2,64,127,,
111480,note_on,0,0,3,,,,,,,,,2,,,62,88
111480,note_on,0,0,4,,,,,,,,,3,,,65,88
111600,note_on,0,0,1,,,,,,,,,0,,,86,101
111600,note_on,0,0,1,,,,,,,,,0,,,74,101
111600,note_on,0,0,1,,,,,,,,,0,,,70,0
111600,note_on,120,0,1,,,,,,,,,0,,,82,0
111600,note_on,0,0,3,,,,,,,,,2,,,58,88
111600,note_on,120,0,3,,,,,,,,,2,,,62,0
111660,note_on,0,0,1,,,,,,,,,0,,,72,101
111660,note_on,0,0,1,,,,,,,,,0,,,74,0
111660,note_on,60,0,1,,,,,,,,,0,,,86,0
111660,note_on,0,0,3,,,,,,,,,2,,,57,88
111660,control_change,0,0,3,,,,,,,,,2,64,0,,
111660,note_on,60,0,3,,,,,,,,,2,,,58,0
111660,note_on,0,0,1,,,,,,,,,0,,,84,101
111660,control_change,0,0,1,,,,,,,,,0,64,0,,
111780,note_on,0,0,1,,,,,,,,,0,,,72,0
111780,note_on,300,0,2,,,,,,,,,1,,,77,0
111780,note_on,0,0,3,,,,,,,,,2,,,77,36
111780,note_on,0,0,1,,,,,,,,,0,,,81,49
111780,note_on,0,0,3,,,,,,,,,2,,,65,36
111780,note_on,120,0,3,,,,,,,,,2,,,57,0
111780,note_on,0,0,3,,,,,,,,,2,,,75,36
111780,note_on,0,0,1,,,,,,,,,0,,,89,49
111780,note_on,120,0,1,,,,,,,,,0,,,84,0
111780,note_on,0,0,1,,,,,,,,,0,,,93,49
111780,note_on,300,0,4,,,,,,,,,3,,,65,0
111780,note_on,0,0,4,,,,,,,,,3,,,53,0
111786,note_on,0,0,3,,,,,,,,,2,,,65,0
111786,note_on,6,0,1,,,,,,,,,0,,,93,0
111786,note_on,6,0,3,,,,,,,,,2,,,77,0
111786,note_on,0,0,1,,,,,,,,,0,,,89,0
111786,note_on,0,0,1,,,,,,,,,0,,,81,0
111786,note_on,0,0,3,,,,,,,,,2,,,75,0
111840,note_on,0,0,1,,,,,,,,,0,,,94,75
111840,note_on,0,0,1,,,,,,,,,0,,,82,67
111840,control_change,54,0,1,,,,,,,,,0,64,127,,
111840,control_change,54,0,3,,,,,,,,,2,64,127,,
111840,note_on,0,0,3,,,,,,,,,2,,,74,36
111840,note_on,0,0,4,,,,,,,,,3,,,77,36
111840,note_on,60,0,2,,,,,,,,,1,,,89,62
111840,note_on,60,0,4,,,,,,,,,3,,,65,36
111960,note_on,120,0,1,,,,,,,,,0,,,94,0
111960,note_on,0,0,1,,,,,,,,,0,,,82,0
111960,note_on,0,0,1,,,,,,,,,0,,,86,49
111960,note_on,0,0,1,,,,,,,,,0,,,98,49
111960,note_on,120,0,3,,,,,,,,,2,,,74,0
111960,note_on,0,0,3,,,,,,,,,2,,,70,36
112020,control_change,0,0,3,,,,,,,,,2,64,0,,
112020,note_on,0,0,3,,,,,,,,,2,,,69,36
112020,control_change,0,0,1,,,,,,,,,0,64,0,,
112020,note_on,0,0,1,,,,,,,,,0,,,84,49
112020,note_on,0,0,1,,,,,,,,,0,,,86,0
112020,note_on,60,0,1,,,,,,,,,0,,,98,0
112020,note_on,0,0,1,,,,,,,,,0,,,96,49
112020,note_on,60,0,3,,,,,,,,,2,,,70,0
112140,note_on,0,0,1,,,,,,,,,0,,,84,0
112140,note_on,300,0,4,,,,,,,,,3,,,77,0
112140,note_on,0,0,4,,,,,,,,,3,,,65,0
112140,note_on,120,0,3,,,,,,,,,2,,,69,0
112140,note_on,300,0,2,,,,,,,,,1,,,89,0
112140,note_on,0,0,2,,,,,,,,,1,,,72,36
112140,note_on,0,0,1,,,,,,,,,0,,,77,49
112140,note_on,120,0,1,,,,,,,,,0,,,96,0
112140,note_on,0,0,3,,,,,,,,,2,,,57,36
112140,note_on,0,0,3,,,,,,,,,2,,,65,36
112146,note_on,0,0,3,,,,,,,,,2,,,57,0
112146,note_on,6,0,3,,,,,,,,,2,,,65,0
112170,note_on,30,0,1,,,,,,,,,0,,,77,0
112170,note_on,0,0,1,,,,,,,,,0,,,79,49
112200,note_on,0,0,1,,,,,,,,,0,,,79,49
112200,note_on,60,0,2,,,,,,,,,1,,,72,0
112200,note_on,0,0,3,,,,,,,,,2,,,67,36
112200,note_on,0,0,3,,,,,,,,,2,,,65,36
112200,note_on,54,0,3,,,,,,,,,2,,,58,36
112200,note_on,0,0,2,,,,,,,,,1,,,74,36
112200,control_change,0,0,1,,,,,,,,,0,64,127,,
112200,note_on,30,0,1,,,,,,,,,0,,,79,0
112200,note_on,0,0,2,,,,,,,,,1,,,77,36
112320,note_on,120,0,2,,,,,,,,,1,,,77,0
112320,note_on,0,0,2,,,,,,,,,1,,,74,0
112320,note_on,0,0,2,,,,,,,,,1,,,74,36
112320,note_on,0,0,2,,,,,,,,,1,,,77,36
112320,note_on,120,0,1,,,,,,,,,0,,,79,0
112320,note_on,0,0,3,,,,,,,,,2,,,58,0
112320,note_on,0,0,3,,,,,,,,,2,,,67,36
112320,note_on,0,0,3,,,,,,,,,2,,,65,36
112320,note_on,0,0,3,,,,,,,,,2,,,58,36
112320,note_on,0,0,1,,,,,,,,,0,,,79,49
112320,note_on,0,0,3,,,,,,,,,2,,,65,0
112320,note_on,120,0,3,,,,,,,,,2,,,67,0
112326,note_on,6,0,3,,,,,,,,,2,,,67,0
112326,note_on,0,0,3,,,,,,,,,2,,,65,0
112326,note_on,0,0,3,,,,,,,,,2,,,58,0
112350,note_on,30,0,1,,,,,,,,,0,,,79,0
112350,control_change,0,0,1,,,,,,,,,0,64,0,,
112350,note_on,0,0,1,,,,,,,,,0,,,80,49
112380,note_on,0,0,1,,,,,,,,,0,,,80,62
112380,note_on,0,0,2,,,,,,,,,1,,,77,49
112380,note_on,30,0,1,,,,,,,,,0,,,80,0
112380,note_on,0,0,2,,,,,,,,,1,,,74,0
112380,note_on,0,0,2,,,,,,,,,1,,,74,49
112380,control_change,0,0,1,,,,,,,,,0,64,127,,
112380,note_on,60,0,2,,,,,,,,,1,,,77,0
112380,note_on,54,0,3,,,,,,,,,2,,,59,49
112380,note_on,0,0,3,,,,,,,,,2,,,65,49
112380,note_on,0,0,3,,,,,,,,,2,,,68,49
112500,note_on,0,0,1,,,,,,,,,0,,,80,62
112500,note_on,0,0,2,,,,,,,,,1,,,74,49
112500,note_on,0,0,2,,,,,,,,,1,,,74,0
112500,note_on,120,0,2,,,,,,,,,1,,,77,0
112500,note_on,0,0,3,,,,,,,,,2,,,68,49
112500,note_on,0,0,3,,,,,,,,,2,,,65,49
112500,note_on,0,0,3,,,,,,,,,2,,,59,49
112500,note_on,0,0,3,,,,,,,,,2,,,59,0
112500,note_on,0,0,3,,,,,,,,,2,,,65,0
112500,note_on,120,0,3,,,,,,,,,2,,,68,0
112500,note_on,0,0,2,,,,,,,,,1,,,77,49
112500,note_on,120,0,1,,,,,,,,,0,,,80,0
112506,note_on,0,0,3,,,,,,,,,2,,,65,0
112506,note_on,6,0,3,,,,,,,,,2,,,68,0
112506,note_on,0,0,3,,,,,,,,,2,,,59,0
112530,note_on,30,0,1,,,,,,,,,0,,,80,0
112530,control_change,0,0,1,,,,,,,,,0,64,0,,
112530,note_on,0,0,1,,,,,,,,,0,,,81,62
112560,note_on,0,0,2,,,,,,,,,1,,,77,62
112560,note_on,0,0,2,,,,,,,,,1,,,72,62
112560,note_on,0,0,2,,,,,,,,,1,,,74,0
112560,note_on,60,0,2,,,,,,,,,1,,,77,0
112560,note_on,0,0,3,,,,,,,,,2,,,65,62
112560,note_on,30,0,1,,,,,,,,,0,,,81,0
112560,control_change,0,0,1,,,,,,,,,0,64,127,,
112560,note_on,0,0,1,,,,,,,,,0,,,81,75
112560,note_on,54,0,3,,,,,,,,,2,,,60,62
112560,note_on,0,0,3,,,,,,,,,2,,,69,62
112680,note_on,0,0,3,,,,,,,,,2,,,69,62
112680,note_on,0,0,1,,,,,,,,,0,,,81,75
112680,note_on,0,0,3,,,,,,,,,2,,,65,62
112680,note_on,0,0,3,,,,,,,,,2,,,60,62
112680,note_on,120,0,3,,,,,,,,,2,,,69,0
112680,note_on,0,0,3,,,,,,,,,2,,,65,0
112680,note_on,0,0,2,,,,,,,,,1,,,77,62
112680,note_on,0,0,2,,,,,,,,,1,,,75,62
112680,note_on,0,0,2,,,,,,,,,1,,,72,0
112680,note_on,120,0,2,,,,,,,,,1,,,77,0
112680,note_on,0,0,3,,,,,,,,,2,,,60,0
112680,note_on,120,0,1,,,,,,,,,0,,,81,0
112686,note_on,0,0,3,,,,,,,,,2,,,60,0
112686,note_on,0,0,3,,,,,,,,,2,,,65,0
112686,note_on,6,0,3,,,,,,,,,2,,,69,0
112710,note_on,0,0,1,,,,,,,,,0,,,82,75
112710,note_on,30,0,1,,,,,,,,,0,,,81,0
112710,control_change,0,0,1,,,,,,,,,0,64,0,,
112740,note_on,0,0,3,,,,,,,,,2,,,70,75
112740,note_on,30,0,1,,,,,,,,,0,,,82,0
112740,note_on,54,0,3,,,,,,,,,2,,,61,75
112740,note_on,0,0,1,,,,,,,,,0,,,82,88
112740,note_on,60,0,2,,,,,,,,,1,,,77,0
112740,note_on,0,0,2,,,,,,,,,1,,,75,0
112740,note_on,0,0,2,,,,,,,,,1,,,73,75
112740,note_on,0,0,2,,,,,,,,,1,,,77,75
112740,note_on,0,0,3,,,,,,,,,2,,,65,75
112860,note_on,120,0,1,,,,,,,,,0,,,82,0
112860,note_on,0,0,3,,,,,,,,,2,,,38,101
112860,note_on,0,0,3,,,,,,,,,2,,,61,0
112860,note_on,0,0,3,,,,,,,,,2,,,65,0
112860,note_on,120,0,3,,,,,,,,,2,,,70,0
112860,note_on,0,0,1,,,,,,,,,0,,,80,114
112860,note_on,0,0,3,,,,,,,,,2,,,50,101
112860,note_on,0,0,1,,,,,,,,,0,,,83,114
112860,note_on,120,0,2,,,,,,,,,1,,,77,0
112860,note_on,0,0,2,,,,,,,,,1,,,71,101
112860,note_on,0,0,2,,,,,,,,,1,,,73,0
112860,note_on,0,0,2,,,,,,,,,1,,,77,101
112920,note_on,0,0,3,,,,,,,,,2,,,51,36
112920,note_on,0,0,3,,,,,,,,,2,,,39,36
112920,control_change,0,0,3,,,,,,,,,2,64,127,,
112920,note_on,0,0,3,,,,,,,,,2,,,38,0
112920,note_on,60,0,3,,,,,,,,,2,,,50,0
112920,note_on,60,0,2,,,,,,,,,1,,,77,0
112920,note_on,0,0,2,,,,,,,,,1,,,72,36
112920,note_on,0,0,2,,,,,,,,,1,,,75,36
112920,note_on,0,0,2,,,,,,,,,1,,,71,0
112920,note_on,0,0,1,,,,,,,,,0,,,80,0
112920,note_on,0,0,1,,,,,,,,,0,,,84,75
112920,control_change,0,0,1,,,,,,,,,0,64,127,,
112920,note_on,60,0,1,,,,,,,,,0,,,83,0
112980,note_on,60,0,3,,,,,,,,,2,,,51,0
112980,note_on,840,0,4,,,,,,,,,3,,,60,62
112980,note_on,0,0,3,,,,,,,,,2,,,63,36
112980,note_on,0,0,3,,,,,,,,,2,,,39,0
113010,note_on,90,0,1,,,,,,,,,0,,,84,0
113010,note_on,0,0,1,,,,,,,,,0,,,82,49
113040,control_change,0,0,3,,,,,,,,,2,64,0,,
113040,note_on,0,0,3,,,,,,,,,2,,,68,36
113040,note_on,30,0,1,,,,,,,,,0,,,82,0
113040,control_change,0,0,1,,,,,,,,,0,64,0,,
113040,note_on,0,0,1,,,,,,,,,0,,,80,49
113040,note_on,60,0,3,,,,,,,,,2,,,63,0
113046,note_on,6,0,1,,,,,,,,,0,,,80,0
113100,note_on,60,0,3,,,,,,,,,2,,,68,0
113100,note_on,0,0,1,,,,,,,,,0,,,80,49
113100,note_on,0,0,2,,,,,,,,,1,,,75,36
113100,control_change,0,0,3,,,,,,,,,2,64,127,,
113100,note_on,180,0,2,,,,,,,,,1,,,75,0
113100,note_on,120,0,4,,,,,,,,,3,,,60,0
113100,note_on,0,0,3,,,,,,,,,2,,,39,36
113100,note_on,0,0,3,,,,,,,,,2,,,51,36
113100,note_on,0,0,2,,,,,,,,,1,,,72,0
113100,note_on,0,0,2,,,,,,,,,1,,,73,36
113100,control_change,54,0,1,,,,,,,,,0,64,127,,
113160,note_on,60,0,1,,,,,,,,,0,,,80,0
113160,note_on,60,0,4,,,,,,,,,3,,,61,62
113160,note_on,0,0,1,,,,,,,,,0,,,79,49
113160,note_on,60,0,3,,,,,,,,,2,,,51,0
113160,note_on,0,0,3,,,,,,,,,2,,,63,36
113160,note_on,0,0,3,,,,,,,,,2,,,39,0
113190,note_on,30,0,1,,,,,,,,,0,,,79,0
113190,note_on,0,0,1,,,,,,,,,0,,,77,49
113220,control_change,0,0,3,,,,,,,,,2,64,0,,
113220,note_on,0,0,3,,,,,,,,,2,,,67,36
113220,note_on,30,0,1,,,,,,,,,0,,,77,0
113220,control_change,0,0,1,,,,,,,,,0,64,0,,
113220,note_on,0,0,1,,,,,,,,,0,,,75,49
113220,note_on,60,0,3,,,,,,,,,2,,,63,0
113226,note_on,6,0,1,,,,,,,,,0,,,75,0
113280,note_on,0,0,2,,,,,,,,,1,,,75,36
113280,note_on,120,0,4,,,,,,,,,3,,,61,0
113280,note_on,0,0,2,,,,,,,,,1,,,72,36
113280,note_on,0,0,3,,,,,,,,,2,,,51,36
113280,note_on,180,0,2,,,,,,,,,1,,,75,0
113280,control_change,54,0,1,,,,,,,,,0,64,127,,
113280,note_on,60,0,3,,,,,,,,,2,,,67,0
113280,control_change,0,0,3,,,,,,,,,2,64,127,,
113280,note_on,0,0,2,,,,,,,,,1,,,73,0
113280,note_on,0,0,1,,,,,,,,,0,,,84,49
113340,note_on,60,0,4,,,,,,,,,3,,,60,36
113340,note_on,0,0,3,,,,,,,,,2,,,63,36
113340,note_on,60,0,3,,,,,,,,,2,,,51,0
113370,note_on,90,0,1,,,,,,,,,0,,,84,0
113370,note_on,0,0,1,,,,,,,,,0,,,82,49
113400,control_change,0,0,3,,,,,,,,,2,64,0,,
113400,note_on,0,0,3,,,,,,,,,2,,,68,36
113400,note_on,0,0,1,,,,,,,,,0,,,80,49
113400,control_change,0,0,1,,,,,,,,,0,64,0,,
113400,note_on,30,0,1,,,,,,,,,0,,,82,0
113400,note_on,60,0,3,,,,,,,,,2,,,63,0
113406,note_on,6,0,1,,,,,,,,,0,,,80,0
113460,note_on,180,0,2,,,,,,,,,1,,,75,0
113460,note_on,0,0,3,,,,,,,,,2,,,51,36
113460,note_on,0,0,1,,,,,,,,,0,,,80,49
113460,control_change,54,0,1,,,,,,,,,0,64,127,,
113460,note_on,0,0,2,,,,,,,,,1,,,73,36
113460,control_change,0,0,3,,,,,,,,,2,64,127,,
113460,note_on,0,0,2,,,,,,,,,1,,,75,36
113460,note_on,120,0,4,,,,,,,,,3,,,60,0
113460,note_on,0,0,2,,,,,,,,,1,,,72,0
113460,note_on,60,0,3,,,,,,,,,2,,,68,0
113520,note_on,60,0,4,,,,,,,,,3,,,61,62
113520,note_on,60,0,1,,,,,,,,,0,,,80,0
113520,note_on,0,0,1,,,,,,,,,0,,,79,49
113520,note_on,60,0,3,,,,,,,,,2,,,51,0
113520,note_on,0,0,3,,,,,,,,,2,,,63,36
113550,note_on,0,0,1,,,,,,,,,0,,,77,49
113550,note_on,30,0,1,,,,,,,,,0,,,79,0
113580,note_on,0,0,1,,,,,,,,,0,,,75,49
113580,control_change,0,0,1,,,,,,,,,0,64,0,,
113580,note_on,30,0,1,,,,,,,,,0,,,77,0
113580,control_change,0,0,3,,,,,,,,,2,64,0,,
113580,note_on,0,0,3,,,,,,,,,2,,,67,36
113580,note_on,60,0,3,,,,,,,,,2,,,63,0
113586,note_on,6,0,1,,,,,,,,,0,,,75,0
113640,note_on,0,0,1,,,,,,,,,0,,,85,62
113640,control_change,54,0,1,,,,,,,,,0,64,127,,
113640,note_on,120,0,4,,,,,,,,,3,,,61,0
113640,note_on,180,0,2,,,,,,,,,1,,,75,0
113640,note_on,0,0,2,,,,,,,,,1,,,73,0
113640,note_on,0,0,2,,,,,,,,,1,,,73,49
113640,note_on,0,0,2,,,,,,,,,1,,,77,49
113640,note_on,0,0,3,,,,,,,,,2,,,53,49
113640,control_change,0,0,3,,,,,,,,,2,64,127,,
113640,note_on,60,0,3,,,,,,,,,2,,,67,0
113700,note_on,60,0,4,,,,,,,,,3,,,61,75
113700,note_on,0,0,3,,,,,,,,,2,,,65,49
113700,note_on,60,0,3,,,,,,,,,2,,,53,0
113730,note_on,0,0,1,,,,,,,,,0,,,84,62
113730,note_on,90,0,1,,,,,,,,,0,,,85,0
113760,note_on,30,0,1,,,,,,,,,0,,,84,0
113760,control_change,0,0,1,,,,,,,,,0,64,0,,
113760,note_on,60,0,3,,,,,,,,,2,,,65,0
113760,control_change,0,0,3,,,,,,,,,2,64,0,,
113760,note_on,0,0,3,,,,,,,,,2,,,70,49
113760,note_on,0,0,1,,,,,,,,,0,,,82,62
113820,note_on,0,0,2,,,,,,,,,1,,,77,49
113820,note_on,60,0,1,,,,,,,,,0,,,82,0
113820,note_on,120,0,4,,,,,,,,,3,,,61,0
113820,note_on,0,0,3,,,,,,,,,2,,,53,49
113820,control_change,0,0,1,,,,,,,,,0,64,127,,
113820,control_change,0,0,3,,,,,,,,,2,64,127,,
113820,note_on,60,0,3,,,,,,,,,2,,,70,0
113820,note_on,180,0,2,,,,,,,,,1,,,77,0
113820,note_on,0,0,2,,,,,,,,,1,,,73,0
113820,note_on,0,0,2,,,,,,,,,1,,,75,49
113820,note_on,0,0,1,,,,,,,,,0,,,82,62
113880,note_on,0,0,1,,,,,,,,,0,,,81,62
113880,note_on,60,0,4,,,,,,,,,3,,,63,75
113880,note_on,60,0,3,,,,,,,,,2,,,53,0
113880,note_on,0,0,3,,,,,,,,,2,,,65,49
113880,note_on,60,0,1,,,,,,,,,0,,,82,0
113910,note_on,0,0,1,,,,,,,,,0,,,79,62
113910,note_on,30,0,1,,,,,,,,,0,,,81,0
113940,note_on,0,0,3,,,,,,,,,2,,,69,49
113940,control_change,0,0,3,,,,,,,,,2,64,0,,
113940,note_on,30,0,1,,,,,,,,,0,,,79,0
113940,control_change,0,0,1,,,,,,,,,0,64,0,,
113940,note_on,0,0,1,,,,,,,,,0,,,77,62
113940,note_on,60,0,3,,,,,,,,,2,,,65,0
114000,control_change,0,0,3,,,,,,,,,2,64,127,,
114000,note_on,60,0,3,,,,,,,,,2,,,69,0
114000,control_change,0,0,1,,,,,,,,,0,64,127,,
114000,note_on,120,0,4,,,,,,,,,3,,,63,0
114000,note_on,0,0,3,,,,,,,,,2,,,53,62
114000,note_on,60,0,1,,,,,,,,,0,,,77,0
114000,note_on,0,0,2,,,,,,,,,1,,,73,62
114000,note_on,0,0,1,,,,,,,,,0,,,85,101
114000,note_on,0,0,2,,,,,,,,,1,,,77,62
114000,note_on,0,0,2,,,,,,,,,1,,,75,0
114000,note_on,180,0,2,,,,,,,,,1,,,77,0
114060,note_on,0,0,3,,,,,,,,,2,,,65,62
114060,note_on,60,0,3,,,,,,,,,2,,,53,0
114060,note_on,60,0,4,,,,,,,,,3,,,61,88
114090,note_on,90,0,1,,,,,,,,,0,,,85,0
114090,note_on,0,0,1,,,,,,,,,0,,,84,75
114120,note_on,60,0,3,,,,,,,,,2,,,65,0
114120,note_on,0,0,3,,,,,,,,,2,,,70,62
114120,note_on,30,0,1,,,,,,,,,0,,,84,0
114120,control_change,0,0,1,,,,,,,,,0,64,0,,
114120,control_change,0,0,3,,,,,,,,,2,64,0,,
114120,note_on,0,0,1,,,,,,,,,0,,,82,75
114180,note_on,60,0,1,,,,,,,,,0,,,82,0
114180,note_on,0,0,2,,,,,,,,,1,,,75,62
114180,note_on,180,0,2,,,,,,,,,1,,,77,0
114180,note_on,0,0,2,,,,,,,,,1,,,77,62
114180,note_on,0,0,2,,,,,,,,,1,,,73,0
114180,control_change,0,0,1,,,,,,,,,0,64,127,,
114180,note_on,120,0,4,,,,,,,,,3,,,61,0
114180,note_on,60,0,3,,,,,,,,,2,,,70,0
114180,control_change,0,0,3,,,,,,,,,2,64,127,,
114180,note_on,0,0,3,,,,,,,,,2,,,53,62
114180,note_on,0,0,1,,,,,,,,,0,,,82,75
114240,note_on,60,0,4,,,,,,,,,3,,,63,88
114240,note_on,0,0,3,,,,,,,,,2,,,65,62
114240,note_on,60,0,3,,,,,,,,,2,,,53,0
114240,note_on,0,0,1,,,,,,,,,0,,,81,75
114240,note_on,60,0,1,,,,,,,,,0,,,82,0
114270,note_on,30,0,1,,,,,,,,,0,,,81,0
114270,note_on,0,0,1,,,,,,,,,0,,,79,75
114300,note_on,30,0,1,,,,,,,,,0,,,79,0
114300,control_change,0,0,3,,,,,,,,,2,64,0,,
114300,note_on,0,0,3,,,,,,,,,2,,,69,62
114300,note_on,0,0,1,,,,,,,,,0,,,77,75
114300,control_change,0,0,1,,,,,,,,,0,64,0,,
114300,note_on,60,0,3,,,,,,,,,2,,,65,0
114360,note_on,0,0,2,,,,,,,,,1,,,77,101
114360,note_on,0,0,2,,,,,,,,,1,,,74,93
114360,note_on,0,0,2,,,,,,,,,1,,,75,0
114360,note_on,180,0,2,,,,,,,,,1,,,77,0
114360,control_change,0,0,1,,,,,,,,,0,64,127,,
114360,note_on,0,0,3,,,,,,,,,2,,,46,75
114360,note_on,0,0,3,,,,,,,,,2,,,34,75
114360,control_change,0,0,3,,,,,,,,,2,64,127,,
114360,note_on,60,0,3,,,,,,,,,2,,,69,0
114360,note_on,120,0,4,,,,,,,,,3,,,63,0
114360,note_on,0,0,1,,,,,,,,,0,,,86,114
114360,note_on,60,0,1,,,,,,,,,0,,,77,0
114450,note_on,0,0,1,,,,,,,,,0,,,84,88
114450,note_on,90,0,1,,,,,,,,,0,,,86,0
114480,note_on,0,0,1,,,,,,,,,0,,,82,88
114480,note_on,30,0,1,,,,,,,,,0,,,84,0
114540,note_on,0,0,3,,,,,,,,,2,,,58,101
114540,note_on,0,0,3,,,,,,,,,2,,,46,91
114540,note_on,0,0,3,,,,,,,,,2,,,50,96
114540,note_on,180,0,3,,,,,,,,,2,,,46,0
114540,note_on,180,0,2,,,,,,,,,1,,,77,0
114540,note_on,0,0,2,,,,,,,,,1,,,74,0
114540,control_change,0,0,3,,,,,,,,,2,64,0,,
114540,note_on,0,0,3,,,,,,,,,2,,,34,0
114540,note_on,0,0,2,,,,,,,,,1,,,74,93
114540,note_on,0,0,2,,,,,,,,,1,,,77,101
114540,note_on,0,0,1,,,,,,,,,0,,,82,114
114540,note_on,60,0,1,,,,,,,,,0,,,82,0
114630,note_on,0,0,1,,,,,,,,,0,,,81,88
114630,note_on,90,0,1,,,,,,,,,0,,,82,0
114660,control_change,0,0,1,,,,,,,,,0,64,0,,
114660,note_on,30,0,1,,,,,,,,,0,,,81,0
114660,note_on,0,0,1,,,,,,,,,0,,,80,88
114720,control_change,0,0,1,,,,,,,,,0,64,127,,
114720,note_on,60,0,1,,,,,,,,,0,,,80,0
114720,note_on,0,0,2,,,,,,,,,1,,,77,101
114720,note_on,180,0,3,,,,,,,,,2,,,58,0
114720,note_on,0,0,3,,,,,,,,,2,,,46,75
114720,note_on,0,0,3,,,,,,,,,2,,,34,75
114720,control_change,0,0,3,,,,,,,,,2,64,127,,
114720,note_on,0,0,3,,,,,,,,,2,,,46,0
114720,note_on,0,0,3,,,,,,,,,2,,,50,0
114720,note_on,180,0,2,,,,,,,,,1,,,77,0
114720,note_on,0,0,2,,,,,,,,,1,,,74,0
114720,note_on,0,0,2,,,,,,,,,1,,,74,93
114720,note_on,0,0,1,,,,,,,,,0,,,86,114
114810,note_on,0,0,1,,,,,,,,,0,,,84,88
114810,note_on,90,0,1,,,,,,,,,0,,,86,0
114840,note_on,30,0,1,,,,,,,,,0,,,84,0
114840,note_on,0,0,1,,,,,,,,,0,,,82,88
114900,note_on,0,0,2,,,,,,,,,1,,,74,93
114900,note_on,0,0,3,,,,,,,,,2,,,34,0
114900,note_on,180,0,3,,,,,,,,,2,,,46,0
114900,note_on,0,0,3,,,,,,,,,2,,,50,75
114900,note_on,0,0,3,,,,,,,,,2,,,58,75
114900,note_on,0,0,2,,,,,,,,,1,,,77,101
114900,note_on,0,0,3,,,,,,,,,2,,,46,75
114900,control_change,0,0,3,,,,,,,,,2,64,0,,
114900,note_on,0,0,1,,,,,,,,,0,,,82,114
114900,note_on,60,0,1,,,,,,,,,0,,,82,0
114900,note_on,180,0,2,,,,,,,,,1,,,77,0
114900,note_on,0,0,2,,,,,,,,,1,,,74,0
114990,note_on,0,0,1,,,,,,,,,0,,,81,88
114990,note_on,90,0,1,,,,,,,,,0,,,82,0
115020,note_on,30,0,1,,,,,,,,,0,,,81,0
115020,control_change,0,0,1,,,,,,,,,0,64,0,,
115020,note_on,0,0,1,,,,,,,,,0,,,80,88
115080,note_on,0,0,3,,,,,,,,,2,,,53,75
115080,note_on,0,0,3,,,,,,,,,2,,,41,75
115080,note_on,0,0,2,,,,,,,,,1,,,84,101
115080,note_on,0,0,2,,,,,,,,,1,,,74,0
115080,note_on,0,0,3,,,,,,,,,2,,,46,0
115080,note_on,0,0,3,,,,,,,,,2,,,50,0
115080,note_on,180,0,3,,,,,,,,,2,,,58,0
115080,note_on,0,0,1,,,,,,,,,0,,,93,114
115080,control_change,0,0,3,,,,,,,,,2,64,127,,
115080,note_on,0,0,2,,,,,,,,,1,,,81,93
115080,control_change,0,0,1,,,,,,,,,0,64,127,,
115080,note_on,180,0,2,,,,,,,,,1,,,77,0
115080,note_on,60,0,1,,,,,,,,,0,,,80,0
115170,note_on,0,0,1,,,,,,,,,0,,,91,88
115170,note_on,90,0,1,,,,,,,,,0,,,93,0
115200,note_on,0,0,1,,,,,,,,,0,,,89,88
115200,note_on,30,0,1,,,,,,,,,0,,,91,0
115260,note_on,0,0,1,,,,,,,,,0,,,89,114
115260,note_on,60,0,1,,,,,,,,,0,,,89,0
115260,note_on,0,0,3,,,,,,,,,2,,,57,75
115260,note_on,180,0,2,,,,,,,,,1,,,84,0
115260,note_on,0,0,2,,,,,,,,,1,,,81,0
115260,note_on,0,0,2,,,,,,,,,1,,,81,93
115260,note_on,0,0,2,,,,,,,,,1,,,84,101
115260,note_on,180,0,3,,,,,,,,,2,,,53,0
115260,note_on,0,0,3,,,,,,,,,2,,,41,0
115260,control_change,0,0,3,,,,,,,,,2,64,0,,
115260,note_on,0,0,3,,,,,,,,,2,,,65,75
115260,note_on,0,0,3,,,,,,,,,2,,,53,75
115350,note_on,90,0,1,,,,,,,,,0,,,89,0
115350,note_on,0,0,1,,,,,,,,,0,,,88,88
115380,control_change,0,0,1,,,,,,,,,0,64,0,,
115380,note_on,30,0,1,,,,,,,,,0,,,88,0
115380,note_on,0,0,1,,,,,,,,,0,,,87,88
115440,note_on,60,0,1,,,,,,,,,0,,,87,0
115440,note_on,0,0,2,,,,,,,,,1,,,84,101
115440,note_on,0,0,2,,,,,,,,,1,,,81,93
115440,note_on,0,0,2,,,,,,,,,1,,,81,0
115440,note_on,180,0,2,,,,,,,,,1,,,84,0
115440,note_on,180,0,3,,,,,,,,,2,,,65,0
115440,note_on,0,0,3,,,,,,,,,2,,,57,0
115440,note_on,0,0,3,,,,,,,,,2,,,53,0
115440,control_change,0,0,3,,,,,,,,,2,64,127,,
115440,note_on,0,0,3,,,,,,,,,2,,,41,75
115440,note_on,0,0,1,,,,,,,,,0,,,93,114
115440,control_change,0,0,1,,,,,,,,,0,64,127,,
115440,note_on,0,0,3,,,,,,,,,2,,,53,75
115530,note_on,0,0,1,,,,,,,,,0,,,91,88
115530,note_on,90,0,1,,,,,,,,,0,,,93,0
115560,note_on,0,0,1,,,,,,,,,0,,,89,88
115560,note_on,30,0,1,,,,,,,,,0,,,91,0
115620,note_on,180,0,3,,,,,,,,,2,,,53,0
115620,note_on,0,0,3,,,,,,,,,2,,,41,0
115620,control_change,0,0,3,,,,,,,,,2,64,0,,
115620,note_on,0,0,3,,,,,,,,,2,,,53,75
115620,note_on,0,0,3,,,,,,,,,2,,,57,75
115620,note_on,0,0,3,,,,,,,,,2,,,65,75
115620,note_on,0,0,2,,,,,,,,,1,,,81,93
115620,note_on,60,0,1,,,,,,,,,0,,,89,0
115620,note_on,0,0,1,,,,,,,,,0,,,89,114
115620,note_on,0,0,2,,,,,,,,,1,,,84,101
115620,note_on,180,0,2,,,,,,,,,1,,,84,0
115620,note_on,0,0,2,,,,,,,,,1,,,81,0
115710,note_on,0,0,1,,,,,,,,,0,,,88,88
115710,note_on,90,0,1,,,,,,,,,0,,,89,0
115740,note_on,0,0,1,,,,,,,,,0,,,87,88
115740,control_change,0,0,1,,,,,,,,,0,64,0,,
115740,note_on,30,0,1,,,,,,,,,0,,,88,0
115800,control_change,0,0,3,,,,,,,,,2,64,127,,
115800,note_on,0,0,3,,,,,,,,,2,,,53,0
115800,note_on,0,0,3,,,,,,,,,2,,,57,0
115800,note_on,0,0,1,,,,,,,,,0,,,85,127
115800,note_on,0,0,1,,,,,,,,,0,,,88,127
115800,note_on,60,0,1,,,,,,,,,0,,,87,0
115800,control_change,0,0,1,,,,,,,,,0,64,127,,
115800,note_on,180,0,3,,,,,,,,,2,,,65,0
115800,note_on,0,0,3,,,,,,,,,2,,,52,101
115800,note_on,0,0,3,,,,,,,,,2,,,40,101
115800,note_on,0,0,2,,,,,,,,,1,,,81,0
115800,note_on,180,0,2,,,,,,,,,1,,,84,0
115890,note_on,90,0,1,,,,,,,,,0,,,88,0
115890,note_on,0,0,1,,,,,,,,,0,,,85,0
115890,note_on,0,0,1,,,,,,,,,0,,,83,114
115890,note_on,0,0,1,,,,,,,,,0,,,86,114
115920,note_on,30,0,1,,,,,,,,,0,,,86,0
115920,note_on,0,0,1,,,,,,,,,0,,,83,0
115920,note_on,0,0,1,,,,,,,,,0,,,81,114
115920,note_on,0,0,1,,,,,,,,,0,,,85,114
115980,note_on,0,0,1,,,,,,,,,0,,,83,127
115980,note_on,180,0,2,,,,,,,,,1,,,76,127
115980,note_on,0,0,1,,,,,,,,,0,,,74,127
115980,note_on,60,0,1,,,,,,,,,0,,,85,0
115980,note_on,0,0,1,,,,,,,,,0,,,81,0
116070,note_on,90,0,1,,,,,,,,,0,,,83,0
116070,note_on,0,0,1,,,,,,,,,0,,,74,0
116070,note_on,0,0,1,,,,,,,,,0,,,73,114
116070,note_on,0,0,1,,,,,,,,,0,,,81,114
116100,note_on,30,0,1,,,,,,,,,0,,,81,0
116100,note_on,0,0,1,,,,,,,,,0,,,73,0
116100,note_on,0,0,1,,,,,,,,,0,,,71,114
116100,control_change,0,0,1,,,,,,,,,0,64,0,,
116100,note_on,0,0,1,,,,,,,,,0,,,80,114
116160,control_change,0,0,1,,,,,,,,,0,64,127,,
116160,note_on,0,0,1,,,,,,,,,0,,,76,88
116160,note_on,0,0,1,,,,,,,,,0,,,73,88
116160,note_on,0,0,1,,,,,,,,,0,,,71,0
116160,note_on,60,0,1,,,,,,,,,0,,,80,0
116160,note_on,180,0,2,,,,,,,,,1,,,76,0
116250,note_on,0,0,1,,,,,,,,,0,,,74,88
116250,note_on,0,0,1,,,,,,,,,0,,,71,88
116250,note_on,0,0,1,,,,,,,,,0,,,73,0
116250,note_on,90,0,1,,,,,,,,,0,,,76,0
116280,note_on,0,0,1,,,,,,,,,0,,,71,0
116280,note_on,30,0,1,,,,,,,,,0,,,74,0
116280,note_on,0,0,1,,,,,,,,,0,,,69,88
116280,note_on,0,0,1,,,,,,,,,0,,,73,88
116340,note_on,60,0,1,,,,,,,,,0,,,73,0
116340,note_on,0,0,1,,,,,,,,,0,,,69,0
116340,note_on,0,0,1,,,,,,,,,0,,,62,106
116340,note_on,0,0,1,,,,,,,,,0,,,71,114
116340,note_on,180,0,2,,,,,,,,,1,,,64,114
116430,note_on,0,0,1,,,,,,,,,0,,,62,0
116430,note_on,0,0,1,,,,,,,,,0,,,61,88
116430,note_on,90,0,1,,,,,,,,,0,,,71,0
116430,note_on,0,0,1,,,,,,,,,0,,,69,88
116460,note_on,30,0,1,,,,,,,,,0,,,69,0
116460,note_on,0,0,1,,,,,,,,,0,,,61,0
116460,note_on,0,0,1,,,,,,,,,0,,,59,88
116460,control_change,0,0,1,,,,,,,,,0,64,0,,
116460,note_on,0,0,1,,,,,,,,,0,,,68,88
116520,note_on,60,0,1,,,,,,,,,0,,,68,0
116520,note_on,0,0,1,,,,,,,,,0,,,59,0
116520,note_on,0,0,1,,,,,,,,,0,,,61,93
116520,note_on,0,0,1,,,,,,,,,0,,,64,101
116520,control_change,0,0,1,,,,,,,,,0,64,127,,
116520,control_change,0,0,3,,,,,,,,,2,64,0,,
116520,note_on,720,0,3,,,,,,,,,2,,,52,0
116520,note_on,180,0,2,,,,,,,,,1,,,64,0
116610,note_on,0,0,1,,,,,,,,,0,,,62,75
116610,note_on,90,0,1,,,,,,,,,0,,,64,0
116610,note_on,0,0,1,,,,,,,,,0,,,61,0
116610,note_on,0,0,1,,,,,,,,,0,,,59,75
116640,note_on,0,0,1,,,,,,,,,0,,,59,0
116640,note_on,0,0,1,,,,,,,,,0,,,57,75
116640,note_on,0,0,1,,,,,,,,,0,,,61,75
116640,note_on,30,0,1,,,,,,,,,0,,,62,0
116700,note_on,0,0,1,,,,,,,,,0,,,50,93
116700,note_on,180,0,2,,,,,,,,,1,,,52,101
116700,note_on,60,0,1,,,,,,,,,0,,,61,0
116700,note_on,0,0,1,,,,,,,,,0,,,57,0
116700,note_on,0,0,1,,,,,,,,,0,,,59,101
116790,note_on,90,0,1,,,,,,,,,0,,,59,0
116790,note_on,0,0,1,,,,,,,,,0,,,50,0
116790,note_on,0,0,1,,,,,,,,,0,,,49,75
116790,note_on,0,0,1,,,,,,,,,0,,,57,75
116820,note_on,0,0,1,,,,,,,,,0,,,56,75
116820,note_on,30,0,1,,,,,,,,,0,,,57,0
116820,note_on,0,0,1,,,,,,,,,0,,,49,0
116820,note_on,0,0,1,,,,,,,,,0,,,47,75
116820,control_change,0,0,1,,,,,,,,,0,64,0,,
116880,note_on,180,0,2,,,,,,,,,1,,,52,0
116880,note_on,360,0,3,,,,,,,,,2,,,40,0
116880,note_on,60,0,1,,,,,,,,,0,,,56,0
116880,note_on,0,0,1,,,,,,,,,0,,,47,0
117240,note_on,360,0,1,,,,,,,,,0,,,69,49
117240,control_change,360,0,3,,,,,,,,,2,64,127,,
117240,note_on,0,0,4,,,,,,,,,3,,,57,36
117240,note_on,0,0,3,,,,,,,,,2,,,69,62
117240,note_on,0,0,1,,,,,,,,,0,,,81,49
117240,note_on,0,0,3,,,,,,,,,2,,,61,62
117240,control_change,2880,0,4,,,,,,,,,3,64,127,,
117246,note_on,6,0,4,,,,,,,,,3,,,57,0
117300,note_on,54,0,4,,,,,,,,,3,,,57,36
117306,note_on,6,0,4,,,,,,,,,3,,,57,0
117360,note_on,0,0,3,,,,,,,,,2,,,61,0
117360,note_on,54,0,4,,,,,,,,,3,,,57,36
117360,note_on,0,0,3,,,,,,,,,2,,,64,62
117360,note_on,120,0,3,,,,,,,,,2,,,69,0
117366,note_on,6,0,4,,,,,,,,,3,,,57,0
117420,note_on,0,0,3,,,,,,,,,2,,,65,62
117420,note_on,60,0,3,,,,,,,,,2,,,64,0
117420,note_on,180,0,1,,,,,,,,,0,,,81,0
117420,note_on,54,0,4,,,,,,,,,3,,,57,36
117420,note_on,0,0,1,,,,,,,,,0,,,69,0
117420,note_on,0,0,1,,,,,,,,,0,,,73,49
117420,note_on,0,0,1,,,,,,,,,0,,,85,49
117426,note_on,6,0,4,,,,,,,,,3,,,57,0
117480,note_on,54,0,4,,,,,,,,,3,,,57,36
117486,note_on,6,0,4,,,,,,,,,3,,,57,0
117540,note_on,0,0,4,,,,,,,,,3,,,57,36
117540,note_on,120,0,3,,,,,,,,,2,,,65,0
117540,control_change,0,0,3,,,,,,,,,2,64,0,,
117540,note_on,0,0,3,,,,,,,,,2,,,64,62
117540,control_change,54,0,4,,,,,,,,,3,64,127,,
117546,note_on,6,0,4,,,,,,,,,3,,,57,0
117600,note_on,0,0,3,,,,,,,,,2,,,68,62
117600,note_on,0,0,1,,,,,,,,,0,,,83,49
117600,note_on,0,0,4,,,,,,,,,3,,,57,36
117600,note_on,0,0,3,,,,,,,,,2,,,62,62
117600,control_change,0,0,3,,,,,,,,,2,64,127,,
117600,note_on,180,0,1,,,,,,,,,0,,,85,0
117600,note_on,0,0,1,,,,,,,,,0,,,73,0
117600,note_on,0,0,1,,,,,,,,,0,,,71,49
117600,control_change,54,0,4,,,,,,,,,3,64,127,,
117600,note_on,60,0,3,,,,,,,,,2,,,64,0
117606,note_on,6,0,4,,,,,,,,,3,,,57,0
117660,note_on,54,0,4,,,,,,,,,3,,,57,36
117666,note_on,6,0,4,,,,,,,,,3,,,57,0
117720,note_on,54,0,4,,,,,,,,,3,,,57,36
117720,note_on,0,0,3,,,,,,,,,2,,,62,0
117720,note_on,120,0,3,,,,,,,,,2,,,68,0
117720,note_on,0,0,3,,,,,,,,,2,,,65,62
117726,note_on,6,0,4,,,,,,,,,3,,,57,0
117780,note_on,54,0,4,,,,,,,,,3,,,57,36
117780,note_on,60,0,3,,,,,,,,,2,,,65,0
117780,note_on,0,0,3,,,,,,,,,2,,,64,62
117780,note_on,0,0,1,,,,,,,,,0,,,88,49
117780,note_on,0,0,1,,,,,,,,,0,,,76,49
117780,note_on,180,0,1,,,,,,,,,0,,,83,0
117780,note_on,0,0,1,,,,,,,,,0,,,71,0
117786,note_on,6,0,4,,,,,,,,,3,,,57,0
117840,note_on,54,0,4,,,,,,,,,3,,,57,36
117846,note_on,6,0,4,,,,,,,,,3,,,57,0
117900,control_change,0,0,3,,,,,,,,,2,64,0,,
117900,note_on,0,0,4,,,,,,,,,3,,,57,36
117900,control_change,54,0,4,,,,,,,,,3,64,127,,
117900,note_on,120,0,3,,,,,,,,,2,,,64,0
117900,note_on,0,0,3,,,,,,,,,2,,,62,62
117906,note_on,6,0,4,,,,,,,,,3,,,57,0
117960,note_on,180,0,1,,,,,,,,,0,,,88,0
117960,control_change,0,0,3,,,,,,,,,2,64,127,,
117960,note_on,0,0,1,,,,,,,,,0,,,76,0
117960,note_on,0,0,1,,,,,,,,,0,,,69,49
117960,note_on,0,0,1,,,,,,,,,0,,,81,49
117960,note_on,0,0,3,,,,,,,,,2,,,61,62
117960,note_on,60,0,3,,,,,,,,,2,,,62,0
117960,note_on,0,0,3,,,,,,,,,2,,,69,62
117960,control_change,54,0,4,,,,,,,,,3,64,127,,
117960,note_on,0,0,4,,,,,,,,,3,,,57,36
117966,note_on,6,0,4,,,,,,,,,3,,,57,0
118020,note_on,54,0,4,,,,,,,,,3,,,57,36
118026,note_on,6,0,4,,,,,,,,,3,,,57,0
118080,note_on,54,0,4,,,,,,,,,3,,,57,36
118080,note_on,0,0,3,,,,,,,,,2,,,61,0
118080,note_on,0,0,3,,,,,,,,,2,,,64,62
118080,note_on,120,0,3,,,,,,,,,2,,,69,0
118086,note_on,6,0,4,,,,,,,,,3,,,57,0
118140,note_on,54,0,4,,,,,,,,,3,,,57,36
118140,note_on,0,0,1,,,,,,,,,0,,,73,49
118140,note_on,0,0,1,,,,,,,,,0,,,69,0
118140,note_on,180,0,1,,,,,,,,,0,,,81,0
118140,note_on,60,0,3,,,,,,,,,2,,,64,0
118140,note_on,0,0,3,,,,,,,,,2,,,65,62
118140,note_on,0,0,1,,,,,,,,,0,,,85,49
118146,note_on,6,0,4,,,,,,,,,3,,,57,0
118200,note_on,54,0,4,,,,,,,,,3,,,57,36
118206,note_on,6,0,4,,,,,,,,,3,,,57,0
118260,control_change,0,0,3,,,,,,,,,2,64,0,,
118260,note_on,0,0,3,,,,,,,,,2,,,64,62
118260,note_on,0,0,4,,,,,,,,,3,,,57,36
118260,control_change,54,0,4,,,,,,,,,3,64,127,,
118260,note_on,120,0,3,,,,,,,,,2,,,65,0
118266,note_on,6,0,4,,,,,,,,,3,,,57,0
118320,note_on,0,0,4,,,,,,,,,3,,,57,36
118320,note_on,0,0,3,,,,,,,,,2,,,68,62
118320,note_on,0,0,3,,,,,,,,,2,,,62,62
118320,control_change,0,0,3,,,,,,,,,2,64,127,,
118320,note_on,60,0,3,,,,,,,,,2,,,64,0
118320,note_on,0,0,1,,,,,,,,,0,,,71,49
118320,note_on,0,0,1,,,,,,,,,0,,,83,49
118320,note_on,0,0,1,,,,,,,,,0,,,73,0
118320,note_on,180,0,1,,,,,,,,,0,,,85,0
118320,control_change,0,0,1,,,,,,,,,0,64,127,,
118320,control_change,54,0,4,,,,,,,,,3,64,127,,
118326,note_on,6,0,4,,,,,,,,,3,,,57,0
118380,note_on,54,0,4,,,,,,,,,3,,,57,36
118386,note_on,6,0,4,,,,,,,,,3,,,57,0
118440,note_on,120,0,3,,,,,,,,,2,,,68,0
118440,note_on,0,0,3,,,,,,,,,2,,,62,0
118440,note_on,0,0,3,,,,,,,,,2,,,65,62
118440,note_on,54,0,4,,,,,,,,,3,,,57,36
118446,note_on,6,0,4,,,,,,,,,3,,,57,0
118500,note_on,0,0,1,,,,,,,,,0,,,88,49
118500,note_on,60,0,3,,,,,,,,,2,,,65,0
118500,note_on,0,0,3,,,,,,,,,2,,,64,62
118500,note_on,0,0,1,,,,,,,,,0,,,71,0
118500,note_on,180,0,1,,,,,,,,,0,,,83,0
118500,note_on,54,0,4,,,,,,,,,3,,,57,36
118500,note_on,0,0,1,,,,,,,,,0,,,76,49
118506,note_on,6,0,4,,,,,,,,,3,,,57,0
118560,note_on,54,0,4,,,,,,,,,3,,,57,36
118566,note_on,6,0,4,,,,,,,,,3,,,57,0
118620,note_on,0,0,3,,,,,,,,,2,,,62,62
118620,note_on,120,0,3,,,,,,,,,2,,,64,0
118620,control_change,54,0,4,,,,,,,,,3,64,127,,
118620,note_on,0,0,4,,,,,,,,,3,,,57,36
118626,note_on,6,0,4,,,,,,,,,3,,,57,0
118680,note_on,0,0,1,,,,,,,,,0,,,69,49
118680,note_on,0,0,1,,,,,,,,,0,,,81,49
118680,control_change,0,0,1,,,,,,,,,0,64,0,,
118680,note_on,0,0,1,,,,,,,,,0,,,76,0
118680,note_on,60,0,3,,,,,,,,,2,,,62,0
118680,control_change,0,0,3,,,,,,,,,2,64,0,,
118680,note_on,0,0,3,,,,,,,,,2,,,57,62
118680,note_on,0,0,3,,,,,,,,,2,,,61,62
118680,note_on,0,0,3,,,,,,,,,2,,,69,62
118680,note_on,180,0,1,,,,,,,,,0,,,88,0
118740,note_on,60,0,1,,,,,,,,,0,,,81,0
118740,note_on,0,0,1,,,,,,,,,0,,,69,0
118740,note_on,0,0,1,,,,,,,,,0,,,80,49
118740,control_change,0,0,1,,,,,,,,,0,64,127,,
118740,note_on,0,0,3,,,,,,,,,2,,,61,0
118740,note_on,0,0,3,,,,,,,,,2,,,57,0
118740,note_on,60,0,3,,,,,,,,,2,,,69,0
118740,control_change,0,0,3,,,,,,,,,2,64,127,,
118740,note_on,0,0,3,,,,,,,,,2,,,68,62
118800,note_on,0,0,1,,,,,,,,,0,,,81,49
118800,note_on,0,0,3,,,,,,,,,2,,,69,62
118800,note_on,60,0,1,,,,,,,,,0,,,80,0
118800,note_on,60,0,3,,,,,,,,,2,,,68,0
118860,note_on,60,0,3,,,,,,,,,2,,,69,0
118860,note_on,0,0,3,,,,,,,,,2,,,64,62
118860,note_on,60,0,1,,,,,,,,,0,,,81,0
118860,note_on,0,0,1,,,,,,,,,0,,,76,49
118920,note_on,60,0,3,,,,,,,,,2,,,64,0
118920,note_on,0,0,3,,,,,,,,,2,,,61,62
118920,note_on,60,0,1,,,,,,,,,0,,,76,0
118920,note_on,0,0,1,,,,,,,,,0,,,73,49
118980,note_on,60,0,1,,,,,,,,,0,,,73,0
118980,note_on,0,0,1,,,,,,,,,0,,,69,49
118980,control_change,0,0,3,,,,,,,,,2,64,0,,
118980,note_on,0,0,3,,,,,,,,,2,,,57,62
118980,control_change,0,0,1,,,,,,,,,0,64,0,,
118980,note_on,60,0,3,,,,,,,,,2,,,61,0
119040,note_on,60,0,3,,,,,,,,,2,,,57,0
119040,control_change,0,0,3,,,,,,,,,2,64,127,,
119040,note_on,60,0,1,,,,,,,,,0,,,69,0
119040,control_change,0,0,1,,,,,,,,,0,64,127,,
119040,note_on,0,0,1,,,,,,,,,0,,,72,49
119040,note_on,414,0,4,,,,,,,,,3,,,57,36
119040,note_on,0,0,3,,,,,,,,,2,,,50,36
119040,note_on,0,0,3,,,,,,,,,2,,,60,36
119040,note_on,2160,0,2,,,,,,,,,1,,,66,36
119040,note_on,0,0,2,,,,,,,,,1,,,69,36
119070,note_on,30,0,3,,,,,,,,,2,,,60,0
119070,note_on,0,0,3,,,,,,,,,2,,,50,0
119070,note_on,0,0,3,,,,,,,,,2,,,51,36
119070,note_on,0,0,3,,,,,,,,,2,,,59,36
119070,note_on,0,0,1,,,,,,,,,0,,,71,49
119070,note_on,30,0,1,,,,,,,,,0,,,72,0
119100,note_on,0,0,3,,,,,,,,,2,,,59,36
119100,note_on,60,0,4,,,,,,,,,3,,,57,0
119100,note_on,60,0,2,,,,,,,,,1,,,69,0
119100,note_on,0,0,2,,,,,,,,,1,,,66,0
119100,note_on,0,0,2,,,,,,,,,1,,,66,36
119100,note_on,30,0,3,,,,,,,,,2,,,59,0
119100,note_on,0,0,3,,,,,,,,,2,,,51,0
119100,note_on,0,0,4,,,,,,,,,3,,,57,36
119100,note_on,0,0,4,,,,,,,,,3,,,51,36
119100,note_on,0,0,2,,,,,,,,,1,,,69,36
119100,note_on,30,0,1,,,,,,,,,0,,,71,0
119100,control_change,0,0,1,,,,,,,,,0,64,0,,
119100,note_on,0,0,1,,,,,,,,,0,,,71,75
119100,control_change,0,0,3,,,,,,,,,2,64,0,,
119220,note_on,120,0,2,,,,,,,,,1,,,69,0
119220,control_change,0,0,1,,,,,,,,,0,64,127,,
119220,note_on,0,0,1,,,,,,,,,0,,,72,49
119220,note_on,0,0,2,,,,,,,,,1,,,66,0
119220,note_on,0,0,2,,,,,,,,,1,,,66,36
119220,note_on,0,0,2,,,,,,,,,1,,,69,36
119220,note_on,120,0,1,,,,,,,,,0,,,71,0
119220,note_on,120,0,4,,,,,,,,,3,,,57,0
119220,note_on,0,0,4,,,,,,,,,3,,,51,0
119220,note_on,0,0,4,,,,,,,,,3,,,57,36
119220,note_on,120,0,3,,,,,,,,,2,,,59,0
119220,note_on,0,0,3,,,,,,,,,2,,,60,36
119220,note_on,0,0,3,,,,,,,,,2,,,50,36
119220,control_change,0,0,3,,,,,,,,,2,64,127,,
119250,note_on,0,0,1,,,,,,,,,0,,,71,49
119250,note_on,30,0,1,,,,,,,,,0,,,72,0
119250,note_on,0,0,3,,,,,,,,,2,,,59,36
119250,note_on,0,0,3,,,,,,,,,2,,,51,36
119250,note_on,0,0,3,,,,,,,,,2,,,50,0
119250,note_on,30,0,3,,,,,,,,,2,,,60,0
119280,note_on,0,0,2,,,,,,,,,1,,,69,36
119280,note_on,60,0,2,,,,,,,,,1,,,69,0
119280,note_on,0,0,4,,,,,,,,,3,,,57,36
119280,note_on,30,0,3,,,,,,,,,2,,,59,0
119280,note_on,0,0,4,,,,,,,,,3,,,51,36
119280,note_on,60,0,4,,,,,,,,,3,,,57,0
119280,note_on,30,0,1,,,,,,,,,0,,,71,0
119280,control_change,0,0,1,,,,,,,,,0,64,0,,
119280,note_on,0,0,1,,,,,,,,,0,,,71,75
119280,note_on,0,0,3,,,,,,,,,2,,,51,0
119280,control_change,0,0,3,,,,,,,,,2,64,0,,
119280,note_on,0,0,3,,,,,,,,,2,,,59,36
119280,note_on,0,0,2,,,,,,,,,1,,,66,36
119280,note_on,0,0,2,,,,,,,,,1,,,66,0
119400,note_on,0,0,4,,,,,,,,,3,,,51,0
119400,note_on,120,0,4,,,,,,,,,3,,,57,0
119400,note_on,120,0,3,,,,,,,,,2,,,59,0
119400,note_on,0,0,2,,,,,,,,,1,,,66,0
119400,note_on,0,0,3,,,,,,,,,2,,,52,62
119400,note_on,0,0,2,,,,,,,,,1,,,69,62
119400,note_on,0,0,2,,,,,,,,,1,,,67,62
119400,control_change,0,0,2,,,,,,,,,1,64,127,,
119400,note_on,0,0,3,,,,,,,,,2,,,57,62
119400,note_on,120,0,2,,,,,,,,,1,,,69,0
119400,note_on,0,0,3,,,,,,,,,2,,,61,62
119400,note_on,120,0,1,,,,,,,,,0,,,71,0
119400,control_change,0,0,1,,,,,,,,,0,64,127,,
119400,note_on,0,0,1,,,,,,,,,0,,,74,75
119400,control_change,0,0,3,,,,,,,,,2,64,127,,
119406,note_on,0,0,3,,,,,,,,,2,,,52,0
119406,note_on,6,0,3,,,,,,,,,2,,,61,0
119406,note_on,0,0,3,,,,,,,,,2,,,57,0
119430,note_on,30,0,1,,,,,,,,,0,,,74,0
119430,note_on,0,0,1,,,,,,,,,0,,,73,75
119460,note_on,54,0,3,,,,,,,,,2,,,52,62
119460,note_on,0,0,3,,,,,,,,,2,,,57,62
119460,note_on,0,0,3,,,,,,,,,2,,,61,62
119460,note_on,0,0,1,,,,,,,,,0,,,73,101
119460,note_on,0,0,2,,,,,,,,,1,,,69,62
119460,note_on,30,0,1,,,,,,,,,0,,,73,0
119460,note_on,0,0,2,,,,,,,,,1,,,67,0
119460,note_on,60,0,2,,,,,,,,,1,,,69,0
119460,note_on,0,0,2,,,,,,,,,1,,,67,62
119580,control_change,0,0,2,,,,,,,,,1,64,0,,
119580,note_on,0,0,2,,,,,,,,,1,,,67,0
119580,note_on,120,0,2,,,,,,,,,1,,,69,0
119580,note_on,180,0,4,,,,,,,,,3,,,54,62
119580,note_on,0,0,2,,,,,,,,,1,,,69,62
119580,note_on,120,0,1,,,,,,,,,0,,,73,0
119580,note_on,0,0,1,,,,,,,,,0,,,74,75
119580,note_on,0,0,3,,,,,,,,,2,,,62,62
119580,note_on,0,0,3,,,,,,,,,2,,,57,62
119580,control_change,0,0,3,,,,,,,,,2,64,0,,
119580,note_on,0,0,3,,,,,,,,,2,,,52,0
119580,note_on,0,0,3,,,,,,,,,2,,,57,0
119580,note_on,120,0,3,,,,,,,,,2,,,61,0
119580,control_change,0,0,1,,,,,,,,,0,64,0,,
119600,note_on,0,0,1,,,,,,,,,0,,,76,75
119600,note_on,20,0,1,,,,,,,,,0,,,74,0
119619,note_on,19,0,1,,,,,,,,,0,,,74,75
119620,note_on,1,0,1,,,,,,,,,0,,,76,0
119639,note_on,19,0,1,,,,,,,,,0,,,74,0
119640,note_on,1,0,1,,,,,,,,,0,,,73,75
119660,note_on,0,0,1,,,,,,,,,0,,,74,75
119660,note_on,20,0,1,,,,,,,,,0,,,73,0
119670,note_on,90,0,4,,,,,,,,,3,,,54,0
119670,note_on,0,0,4,,,,,,,,,3,,,52,62
119679,note_on,19,0,1,,,,,,,,,0,,,76,75
119680,note_on,1,0,1,,,,,,,,,0,,,74,0
119699,note_on,19,0,1,,,,,,,,,0,,,76,0
119700,note_on,1,0,1,,,,,,,,,0,,,78,75
119700,note_on,30,0,4,,,,,,,,,3,,,52,0
119700,note_on,0,0,4,,,,,,,,,3,,,50,62
119760,control_change,0,0,1,,,,,,,,,0,64,127,,
119760,note_on,0,0,1,,,,,,,,,0,,,74,75
119760,note_on,180,0,3,,,,,,,,,2,,,62,0
119760,control_change,0,0,3,,,,,,,,,2,64,127,,
119760,note_on,0,0,3,,,,,,,,,2,,,52,62
119760,note_on,0,0,3,,,,,,,,,2,,,57,62
119760,note_on,60,0,1,,,,,,,,,0,,,78,0
119760,note_on,0,0,3,,,,,,,,,2,,,57,0
119760,note_on,60,0,4,,,,,,,,,3,,,50,0
119760,note_on,180,0,2,,,,,,,,,1,,,69,0
119760,control_change,0,0,2,,,,,,,,,1,64,127,,
119760,note_on,0,0,2,,,,,,,,,1,,,67,62
119760,note_on,0,0,2,,,,,,,,,1,,,69,62
119760,note_on,0,0,3,,,,,,,,,2,,,61,62
119766,note_on,6,0,3,,,,,,,,,2,,,61,0
119766,note_on,0,0,3,,,,,,,,,2,,,52,0
119766,note_on,0,0,3,,,,,,,,,2,,,57,0
119790,note_on,0,0,1,,,,,,,,,0,,,73,75
119790,note_on,30,0,1,,,,,,,,,0,,,74,0
119820,note_on,0,0,1,,,,,,,,,0,,,73,101
119820,note_on,30,0,1,,,,,,,,,0,,,73,0
119820,note_on,0,0,3,,,,,,,,,2,,,61,62
119820,note_on,0,0,3,,,,,,,,,2,,,57,62
119820,note_on,54,0,3,,,,,,,,,2,,,52,62
119820,note_on,0,0,2,,,,,,,,,1,,,69,62
119820,note_on,0,0,2,,,,,,,,,1,,,67,62
119820,note_on,60,0,2,,,,,,,,,1,,,69,0
119820,note_on,0,0,2,,,,,,,,,1,,,67,0
119940,note_on,0,0,2,,,,,,,,,1,,,69,62
119940,note_on,0,0,1,,,,,,,,,0,,,74,75
119940,control_change,0,0,1,,,,,,,,,0,64,0,,
119940,note_on,120,0,1,,,,,,,,,0,,,73,0
119940,note_on,180,0,4,,,,,,,,,3,,,54,62
119940,control_change,0,0,2,,,,,,,,,1,64,0,,
119940,note_on,0,0,3,,,,,,,,,2,,,62,62
119940,control_change,0,0,3,,,,,,,,,2,64,0,,
119940,note_on,0,0,3,,,,,,,,,2,,,52,0
119940,note_on,0,0,3,,,,,,,,,2,,,57,0
119940,note_on,120,0,3,,,,,,,,,2,,,61,0
119940,note_on,120,0,2,,,,,,,,,1,,,69,0
119940,note_on,0,0,2,,,,,,,,,1,,,67,0
119940,note_on,0,0,3,,,,,,,,,2,,,57,62
119960,note_on,20,0,1,,,,,,,,,0,,,74,0
119960,note_on,0,0,1,,,,,,,,,0,,,76,75
119979,note_on,19,0,1,,,,,,,,,0,,,74,75
119980,note_on,1,0,1,,,,,,,,,0,,,76,0
119999,note_on,19,0,1,,,,,,,,,0,,,74,0
120000,note_on,1,0,1,,,,,,,,,0,,,73,75
120020,note_on,20,0,1,,,,,,,,,0,,,73,0
120020,note_on,0,0,1,,,,,,,,,0,,,74,75
120030,note_on,90,0,4,,,,,,,,,3,,,54,0
120030,note_on,0,0,4,,,,,,,,,3,,,52,62
120039,note_on,19,0,1,,,,,,,,,0,,,76,75
120040,note_on,1,0,1,,,,,,,,,0,,,74,0
120059,note_on,19,0,1,,,,,,,,,0,,,76,0
120060,note_on,30,0,4,,,,,,,,,3,,,52,0
120060,control_change,0,0,4,,,,,,,,,3,64,0,,
120060,note_on,0,0,4,,,,,,,,,3,,,50,62
120060,note_on,1,0,1,,,,,,,,,0,,,78,75
120105,note_on,45,0,1,,,,,,,,,0,,,90,101
120105,note_on,165,0,3,,,,,,,,,2,,,78,62
120120,note_on,60,0,4,,,,,,,,,3,,,50,0
120120,note_on,0,0,3,,,,,,,,,2,,,81,101
120120,note_on,15,0,3,,,,,,,,,2,,,78,0
120120,note_on,0,0,3,,,,,,,,,2,,,57,0
120120,control_change,0,0,3,,,,,,,,,2,64,127,,
120120,note_on,180,0,2,,,,,,,,,1,,,69,0
120120,note_on,0,0,3,,,,,,,,,2,,,62,0
120120,control_change,0,0,1,,,,,,,,,0,64,127,,
120120,note_on,0,0,1,,,,,,,,,0,,,93,88
120120,note_on,0,0,1,,,,,,,,,0,,,78,0
120120,note_on,15,0,1,,,,,,,,,0,,,90,0
120360,note_on,240,0,1,,,,,,,,,0,,,93,0
120360,note_on,0,0,3,,,,,,,,,2,,,78,36
120360,note_on,240,0,3,,,,,,,,,2,,,81,0
120360,note_on,0,0,1,,,,,,,,,0,,,90,49
120420,note_on,0,0,1,,,,,,,,,0,,,86,49
120420,note_on,60,0,1,,,,,,,,,0,,,90,0
120420,note_on,0,0,3,,,,,,,,,2,,,74,36
120420,note_on,60,0,3,,,,,,,,,2,,,78,0
120480,note_on,60,0,3,,,,,,,,,2,,,74,0
120480,note_on,0,0,1,,,,,,,,,0,,,81,49
120480,note_on,60,0,1,,,,,,,,,0,,,86,0
120480,note_on,0,0,3,,,,,,,,,2,,,69,36
120540,note_on,60,0,1,,,,,,,,,0,,,81,0
120540,note_on,0,0,1,,,,,,,,,0,,,78,49
120540,note_on,0,0,3,,,,,,,,,2,,,66,36
120540,note_on,60,0,3,,,,,,,,,2,,,69,0
120600,note_on,0,0,1,,,,,,,,,0,,,74,49
120600,note_on,60,0,1,,,,,,,,,0,,,78,0
120600,note_on,0,0,3,,,,,,,,,2,,,62,36
120600,note_on,60,0,3,,,,,,,,,2,,,66,0
120660,note_on,0,0,1,,,,,,,,,0,,,71,49
120660,note_on,60,0,1,,,,,,,,,0,,,74,0
120660,note_on,60,0,3,,,,,,,,,2,,,62,0
120660,note_on,0,0,3,,,,,,,,,2,,,59,36
120720,note_on,0,0,1,,,,,,,,,0,,,77,49
120720,control_change,0,0,1,,,,,,,,,0,64,0,,
120720,note_on,60,0,1,,,,,,,,,0,,,71,0
120720,note_on,0,0,3,,,,,,,,,2,,,65,36
120720,control_change,0,0,3,,,,,,,,,2,64,0,,
120720,note_on,60,0,3,,,,,,,,,2,,,59,0
120780,note_on,0,0,3,,,,,,,,,2,,,66,36
120780,note_on,60,0,3,,,,,,,,,2,,,65,0
120780,note_on,60,0,1,,,,,,,,,0,,,77,0
120780,note_on,0,0,1,,,,,,,,,0,,,78,49
120825,note_on,45,0,1,,,,,,,,,0,,,71,49
120840,note_on,720,0,2,,,,,,,,,1,,,64,62
120840,note_on,0,0,3,,,,,,,,,2,,,61,36
120840,note_on,60,0,3,,,,,,,,,2,,,66,0
120840,note_on,720,0,4,,,,,,,,,3,,,52,62
120840,control_change,0,0,1,,,,,,,,,0,64,127,,
120840,note_on,0,0,1,,,,,,,,,0,,,69,49
120840,note_on,0,0,1,,,,,,,,,0,,,78,0
120840,note_on,15,0,1,,,,,,,,,0,,,71,0
120930,note_on,0,0,1,,,,,,,,,0,,,68,49
120930,note_on,90,0,1,,,,,,,,,0,,,69,0
120960,note_on,0,0,1,,,,,,,,,0,,,69,49
120960,note_on,30,0,1,,,,,,,,,0,,,68,0
121020,note_on,0,0,1,,,,,,,,,0,,,73,49
121020,control_change,0,0,1,,,,,,,,,0,64,0,,
121020,note_on,0,0,3,,,,,,,,,2,,,62,36
121020,note_on,0,0,2,,,,,,,,,1,,,68,62
121020,note_on,180,0,2,,,,,,,,,1,,,64,0
121020,note_on,180,0,3,,,,,,,,,2,,,61,0
121020,note_on,60,0,1,,,,,,,,,0,,,69,0
121140,note_on,0,0,1,,,,,,,,,0,,,71,49
121140,note_on,120,0,1,,,,,,,,,0,,,73,0
121200,note_on,60,0,1,,,,,,,,,0,,,71,0
121200,control_change,0,0,1,,,,,,,,,0,64,127,,
121200,note_on,0,0,1,,,,,,,,,0,,,69,36
121200,note_on,180,0,2,,,,,,,,,1,,,68,0
121200,note_on,0,0,3,,,,,,,,,2,,,69,36
121200,note_on,0,0,3,,,,,,,,,2,,,61,36
121200,control_change,0,0,3,,,,,,,,,2,64,127,,
121200,note_on,180,0,3,,,,,,,,,2,,,62,0
121200,note_on,360,0,4,,,,,,,,,3,,,52,0
121200,control_change,0,0,4,,,,,,,,,3,64,127,,
121200,note_on,0,0,4,,,,,,,,,3,,,57,36
121206,note_on,6,0,4,,,,,,,,,3,,,57,0
121230,note_on,30,0,1,,,,,,,,,0,,,69,0
121230,note_on,0,0,1,,,,,,,,,0,,,81,36
121260,note_on,54,0,4,,,,,,,,,3,,,57,36
121260,note_on,0,0,1,,,,,,,,,0,,,81,36
121260,note_on,0,0,1,,,,,,,,,0,,,69,36
121260,note_on,30,0,1,,,,,,,,,0,,,81,0
121266,note_on,6,0,4,,,,,,,,,3,,,57,0
121320,note_on,54,0,4,,,,,,,,,3,,,57,36
121320,note_on,120,0,3,,,,,,,,,2,,,69,0
121320,note_on,0,0,3,,,,,,,,,2,,,61,0
121320,note_on,0,0,3,,,,,,,,,2,,,64,36
121326,note_on,6,0,4,,,,,,,,,3,,,57,0
121380,note_on,54,0,4,,,,,,,,,3,,,57,36
121380,note_on,60,0,3,,,,,,,,,2,,,64,0
121380,note_on,120,0,1,,,,,,,,,0,,,81,0
121380,note_on,0,0,1,,,,,,,,,0,,,69,0
121380,note_on,0,0,3,,,,,,,,,2,,,65,36
121380,note_on,0,0,1,,,,,,,,,0,,,73,36
121386,note_on,6,0,4,,,,,,,,,3,,,57,0
121410,note_on,0,0,1,,,,,,,,,0,,,85,36
121410,note_on,30,0,1,,,,,,,,,0,,,73,0
121440,note_on,30,0,1,,,,,,,,,0,,,85,0
121440,note_on,54,0,4,,,,,,,,,3,,,57,36
121440,note_on,0,0,1,,,,,,,,,0,,,85,36
121440,note_on,0,0,1,,,,,,,,,0,,,73,36
121440,control_change,0,0,1,,,,,,,,,0,64,0,,
121446,note_on,6,0,4,,,,,,,,,3,,,57,0
121500,control_change,54,0,4,,,,,,,,,3,64,127,,
121500,note_on,120,0,3,,,,,,,,,2,,,65,0
121500,note_on,0,0,3,,,,,,,,,2,,,64,36
121500,control_change,0,0,3,,,,,,,,,2,64,0,,
121500,note_on,0,0,4,,,,,,,,,3,,,57,36
121506,note_on,6,0,4,,,,,,,,,3,,,57,0
121560,note_on,0,0,3,,,,,,,,,2,,,62,36
121560,control_change,0,0,3,,,,,,,,,2,64,127,,
121560,note_on,60,0,3,,,,,,,,,2,,,64,0
121560,note_on,0,0,3,,,,,,,,,2,,,68,36
121560,note_on,0,0,4,,,,,,,,,3,,,57,36
121560,note_on,120,0,1,,,,,,,,,0,,,85,0
121560,note_on,0,0,1,,,,,,,,,0,,,73,0
121560,note_on,0,0,1,,,,,,,,,0,,,71,36
121560,control_change,0,0,1,,,,,,,,,0,64,127,,
121560,control_change,54,0,4,,,,,,,,,3,64,127,,
121566,note_on,6,0,4,,,,,,,,,3,,,57,0
121590,note_on,30,0,1,,,,,,,,,0,,,71,0
121590,note_on,0,0,1,,,,,,,,,0,,,83,36
121620,note_on,0,0,1,,,,,,,,,0,,,83,36
121620,note_on,0,0,1,,,,,,,,,0,,,71,36
121620,note_on,30,0,1,,,,,,,,,0,,,83,0
121620,note_on,54,0,4,,,,,,,,,3,,,57,36
121626,note_on,6,0,4,,,,,,,,,3,,,57,0
121680,note_on,54,0,4,,,,,,,,,3,,,57,36
121680,note_on,0,0,3,,,,,,,,,2,,,65,36
121680,note_on,0,0,3,,,,,,,,,2,,,62,0
121680,note_on,120,0,3,,,,,,,,,2,,,68,0
121686,note_on,6,0,4,,,,,,,,,3,,,57,0
121740,note_on,120,0,1,,,,,,,,,0,,,83,0
121740,note_on,0,0,1,,,,,,,,,0,,,71,0
121740,note_on,60,0,3,,,,,,,,,2,,,65,0
121740,note_on,0,0,3,,,,,,,,,2,,,64,36
121740,note_on,54,0,4,,,,,,,,,3,,,57,36
121740,note_on,0,0,1,,,,,,,,,0,,,76,36
121746,note_on,6,0,4,,,,,,,,,3,,,57,0
121770,note_on,30,0,1,,,,,,,,,0,,,76,0
121770,note_on,0,0,1,,,,,,,,,0,,,88,36
121800,note_on,0,0,1,,,,,,,,,0,,,88,36
121800,control_change,0,0,1,,,,,,,,,0,64,0,,
121800,note_on,0,0,1,,,,,,,,,0,,,76,36
121800,note_on,30,0,1,,,,,,,,,0,,,88,0
121800,note_on,54,0,4,,,,,,,,,3,,,57,36
121806,note_on,6,0,4,,,,,,,,,3,,,57,0
121860,note_on,120,0,3,,,,,,,,,2,,,64,0
121860,control_change,54,0,4,,,,,,,,,3,64,127,,
121860,note_on,0,0,4,,,,,,,,,3,,,57,36
121860,note_on,0,0,3,,,,,,,,,2,,,62,36
121860,control_change,0,0,3,,,,,,,,,2,64,0,,
121866,note_on,6,0,4,,,,,,,,,3,,,57,0
121920,control_change,54,0,4,,,,,,,,,3,64,127,,
121920,note_on,0,0,4,,,,,,,,,3,,,57,36
121920,control_change,0,0,3,,,,,,,,,2,64,127,,
121920,control_change,0,0,1,,,,,,,,,0,64,127,,
121920,note_on,0,0,1,,,,,,,,,0,,,69,36
121920,note_on,60,0,3,,,,,,,,,2,,,62,0
121920,note_on,120,0,1,,,,,,,,,0,,,88,0
121920,note_on,0,0,1,,,,,,,,,0,,,76,0
121920,note_on,0,0,3,,,,,,,,,2,,,69,36
121920,note_on,0,0,3,,,,,,,,,2,,,61,36
121926,note_on,6,0,4,,,,,,,,,3,,,57,0
121950,note_on,30,0,1,,,,,,,,,0,,,69,0
121950,note_on,0,0,1,,,,,,,,,0,,,81,36
121980,note_on,30,0,1,,,,,,,,,0,,,81,0
121980,note_on,0,0,1,,,,,,,,,0,,,69,36
121980,note_on,54,0,4,,,,,,,,,3,,,57,36
121980,note_on,0,0,1,,,,,,,,,0,,,81,36
121986,note_on,6,0,4,,,,,,,,,3,,,57,0
122040,note_on,54,0,4,,,,,,,,,3,,,57,36
122040,note_on,0,0,3,,,,,,,,,2,,,61,0
122040,note_on,120,0,3,,,,,,,,,2,,,69,0
122040,note_on,0,0,3,,,,,,,,,2,,,64,36
122046,note_on,6,0,4,,,,,,,,,3,,,57,0
122100,note_on,54,0,4,,,,,,,,,3,,,57,36
122100,note_on,0,0,3,,,,,,,,,2,,,65,36
122100,note_on,0,0,1,,,,,,,,,0,,,73,36
122100,note_on,0,0,1,,,,,,,,,0,,,69,0
122100,note_on,120,0,1,,,,,,,,,0,,,81,0
122100,note_on,60,0,3,,,,,,,,,2,,,64,0
122106,note_on,6,0,4,,,,,,,,,3,,,57,0
122130,note_on,0,0,1,,,,,,,,,0,,,85,36
122130,note_on,30,0,1,,,,,,,,,0,,,73,0
122160,note_on,30,0,1,,,,,,,,,0,,,85,0
122160,note_on,0,0,1,,,,,,,,,0,,,73,36
122160,note_on,0,0,1,,,,,,,,,0,,,85,36
122160,control_change,0,0,1,,,,,,,,,0,64,0,,
122160,note_on,54,0,4,,,,,,,,,3,,,57,36
122166,note_on,6,0,4,,,,,,,,,3,,,57,0
122220,note_on,0,0,3,,,,,,,,,2,,,64,36
122220,control_change,0,0,3,,,,,,,,,2,64,0,,
122220,note_on,120,0,3,,,,,,,,,2,,,65,0
122220,control_change,54,0,4,,,,,,,,,3,64,127,,
122220,note_on,0,0,4,,,,,,,,,3,,,57,36
122226,note_on,6,0,4,,,,,,,,,3,,,57,0
122280,note_on,120,0,1,,,,,,,,,0,,,85,0
122280,note_on,0,0,3,,,,,,,,,2,,,68,36
122280,control_change,54,0,4,,,,,,,,,3,64,127,,
122280,note_on,0,0,4,,,,,,,,,3,,,57,36
122280,note_on,0,0,3,,,,,,,,,2,,,62,36
122280,control_change,0,0,3,,,,,,,,,2,64,127,,
122280,control_change,0,0,1,,,,,,,,,0,64,127,,
122280,note_on,0,0,1,,,,,,,,,0,,,71,36
122280,note_on,0,0,1,,,,,,,,,0,,,73,0
122280,note_on,60,0,3,,,,,,,,,2,,,64,0
122286,note_on,6,0,4,,,,,,,,,3,,,57,0
122310,note_on,0,0,1,,,,,,,,,0,,,83,36
122310,note_on,30,0,1,,,,,,,,,0,,,71,0
122340,note_on,0,0,1,,,,,,,,,0,,,83,36
122340,note_on,54,0,4,,,,,,,,,3,,,57,36
122340,note_on,0,0,1,,,,,,,,,0,,,71,36
122340,note_on,30,0,1,,,,,,,,,0,,,83,0
122346,note_on,6,0,4,,,,,,,,,3,,,57,0
122400,note_on,120,0,3,,,,,,,,,2,,,68,0
122400,note_on,54,0,4,,,,,,,,,3,,,57,36
122400,note_on,0,0,3,,,,,,,,,2,,,65,36
122400,note_on,0,0,3,,,,,,,,,2,,,62,0
122406,note_on,6,0,4,,,,,,,,,3,,,57,0
122460,note_on,60,0,3,,,,,,,,,2,,,65,0
122460,note_on,120,0,1,,,,,,,,,0,,,83,0
122460,note_on,0,0,1,,,,,,,,,0,,,71,0
122460,note_on,0,0,1,,,,,,,,,0,,,76,36
122460,note_on,54,0,4,,,,,,,,,3,,,57,36
122460,note_on,0,0,3,,,,,,,,,2,,,64,36
122466,note_on,6,0,4,,,,,,,,,3,,,57,0
122490,note_on,30,0,1,,,,,,,,,0,,,76,0
122490,note_on,0,0,1,,,,,,,,,0,,,88,36
122520,note_on,54,0,4,,,,,,,,,3,,,57,36
122520,note_on,0,0,1,,,,,,,,,0,,,88,36
122520,note_on,0,0,1,,,,,,,,,0,,,76,36
122520,control_change,0,0,1,,,,,,,,,0,64,0,,
122520,note_on,30,0,1,,,,,,,,,0,,,88,0
122526,note_on,6,0,4,,,,,,,,,3,,,57,0
122580,note_on,0,0,3,,,,,,,,,2,,,62,36
122580,control_change,54,0,4,,,,,,,,,3,64,127,,
122580,note_on,0,0,4,,,,,,,,,3,,,57,36
122580,note_on,120,0,3,,,,,,,,,2,,,64,0
122586,note_on,6,0,4,,,,,,,,,3,,,57,0
122640,note_on,0,0,1,,,,,,,,,0,,,69,36
122640,control_change,0,0,1,,,,,,,,,0,64,0,,
122640,note_on,0,0,1,,,,,,,,,0,,,81,36
122640,control_change,0,0,3,,,,,,,,,2,64,0,,
122640,note_on,0,0,3,,,,,,,,,2,,,57,36
122640,note_on,0,0,3,,,,,,,,,2,,,61,36
122640,note_on,0,0,3,,,,,,,,,2,,,69,36
122640,note_on,60,0,3,,,,,,,,,2,,,62,0
122640,note_on,0,0,1,,,,,,,,,0,,,76,0
122640,note_on,120,0,1,,,,,,,,,0,,,88,0
122646,note_on,0,0,1,,,,,,,,,0,,,69,0
122646,note_on,6,0,1,,,,,,,,,0,,,81,0
122700,note_on,60,0,3,,,,,,,,,2,,,69,0
122700,note_on,0,0,3,,,,,,,,,2,,,61,0
122700,note_on,0,0,3,,,,,,,,,2,,,68,62
122700,note_on,0,0,1,,,,,,,,,0,,,80,62
122700,control_change,54,0,1,,,,,,,,,0,64,127,,
122700,note_on,0,0,3,,,,,,,,,2,,,57,0
122700,control_change,0,0,3,,,,,,,,,2,64,127,,
122760,note_on,60,0,3,,,,,,,,,2,,,68,0
122760,note_on,60,0,1,,,,,,,,,0,,,80,0
122760,note_on,0,0,1,,,,,,,,,0,,,81,36
122760,note_on,0,0,3,,,,,,,,,2,,,69,36
122820,note_on,60,0,1,,,,,,,,,0,,,81,0
122820,note_on,0,0,3,,,,,,,,,2,,,64,36
122820,note_on,60,0,3,,,,,,,,,2,,,69,0
122820,note_on,0,0,1,,,,,,,,,0,,,76,36
122880,note_on,60,0,1,,,,,,,,,0,,,76,0
122880,note_on,60,0,3,,,,,,,,,2,,,64,0
122880,note_on,0,0,3,,,,,,,,,2,,,61,36
122880,note_on,0,0,1,,,,,,,,,0,,,73,36
122940,note_on,60,0,3,,,,,,,,,2,,,61,0
122940,control_change,0,0,3,,,,,,,,,2,64,0,,
122940,note_on,60,0,1,,,,,,,,,0,,,73,0
122940,control_change,0,0,1,,,,,,,,,0,64,0,,
122940,note_on,0,0,1,,,,,,,,,0,,,69,36
122940,note_on,0,0,3,,,,,,,,,2,,,57,36
123000,note_on,60,0,1,,,,,,,,,0,,,69,0
123000,control_change,0,0,1,,,,,,,,,0,64,127,,
123000,note_on,0,0,1,,,,,,,,,0,,,72,49
123000,note_on,60,0,3,,,,,,,,,2,,,57,0
123000,note_on,0,0,3,,,,,,,,,2,,,50,36
123000,note_on,1800,0,2,,,,,,,,,1,,,65,62
123000,note_on,0,0,3,,,,,,,,,2,,,53,36
123000,note_on,0,0,3,,,,,,,,,2,,,58,36
123006,note_on,0,0,3,,,,,,,,,2,,,50,0
123006,note_on,0,0,3,,,,,,,,,2,,,53,0
123006,note_on,6,0,3,,,,,,,,,2,,,58,0
123030,note_on,30,0,1,,,,,,,,,0,,,72,0
123030,note_on,0,0,1,,,,,,,,,0,,,70,49
123060,note_on,0,0,2,,,,,,,,,1,,,65,62
123060,note_on,0,0,1,,,,,,,,,0,,,70,75
123060,note_on,0,0,3,,,,,,,,,2,,,58,36
123060,note_on,30,0,1,,,,,,,,,0,,,70,0
123060,note_on,54,0,3,,,,,,,,,2,,,50,36
123060,note_on,0,0,3,,,,,,,,,2,,,53,36
123060,note_on,60,0,2,,,,,,,,,1,,,65,0
123060,control_change,0,0,1,,,,,,,,,0,64,0,,
123180,note_on,120,0,1,,,,,,,,,0,,,70,0
123180,control_change,0,0,1,,,,,,,,,0,64,127,,
123180,note_on,0,0,1,,,,,,,,,0,,,72,49
123180,note_on,0,0,2,,,,,,,,,1,,,65,62
123180,note_on,120,0,2,,,,,,,,,1,,,65,0
123180,note_on,0,0,3,,,,,,,,,2,,,50,0
123180,note_on,0,0,3,,,,,,,,,2,,,53,36
123180,note_on,0,0,3,,,,,,,,,2,,,50,36
123180,note_on,0,0,3,,,,,,,,,2,,,53,0
123180,note_on,120,0,3,,,,,,,,,2,,,58,0
123180,note_on,0,0,3,,,,,,,,,2,,,58,36
123186,note_on,6,0,3,,,,,,,,,2,,,58,0
123186,note_on,0,0,3,,,,,,,,,2,,,53,0
123186,note_on,0,0,3,,,,,,,,,2,,,50,0
123210,note_on,0,0,1,,,,,,,,,0,,,70,49
123210,note_on,30,0,1,,,,,,,,,0,,,72,0
123240,note_on,0,0,3,,,,,,,,,2,,,53,36
123240,note_on,0,0,3,,,,,,,,,2,,,58,36
123240,note_on,54,0,3,,,,,,,,,2,,,50,36
123240,note_on,30,0,1,,,,,,,,,0,,,70,0
123240,control_change,0,0,1,,,,,,,,,0,64,0,,
123240,note_on,0,0,2,,,,,,,,,1,,,65,62
123240,note_on,60,0,2,,,,,,,,,1,,,65,0
123240,note_on,0,0,1,,,,,,,,,0,,,70,75
123360,note_on,0,0,3,,,,,,,,,2,,,52,49
123360,note_on,0,0,3,,,,,,,,,2,,,50,0
123360,note_on,0,0,3,,,,,,,,,2,,,53,0
123360,note_on,120,0,1,,,,,,,,,0,,,70,0
123360,control_change,0,0,1,,,,,,,,,0,64,127,,
123360,note_on,0,0,1,,,,,,,,,0,,,74,62
123360,note_on,0,0,3,,,,,,,,,2,,,61,49
123360,note_on,0,0,3,,,,,,,,,2,,,58,49
123360,note_on,120,0,3,,,,,,,,,2,,,58,0
123360,note_on,120,0,2,,,,,,,,,1,,,65,0
123360,note_on,0,0,2,,,,,,,,,1,,,67,49
123360,note_on,0,0,2,,,,,,,,,1,,,70,49
123366,note_on,6,0,2,,,,,,,,,1,,,70,0
123366,note_on,0,0,2,,,,,,,,,1,,,67,0
123366,note_on,6,0,3,,,,,,,,,2,,,61,0
123366,note_on,0,0,3,,,,,,,,,2,,,58,0
123366,note_on,0,0,3,,,,,,,,,2,,,52,0
123390,note_on,0,0,1,,,,,,,,,0,,,73,62
123390,note_on,30,0,1,,,,,,,,,0,,,74,0
123420,note_on,0,0,1,,,,,,,,,0,,,73,88
123420,note_on,0,0,3,,,,,,,,,2,,,61,49
123420,control_change,0,0,1,,,,,,,,,0,64,0,,
123420,note_on,54,0,3,,,,,,,,,2,,,52,49
123420,note_on,0,0,3,,,,,,,,,2,,,58,49
123420,note_on,54,0,2,,,,,,,,,1,,,67,49
123420,note_on,0,0,2,,,,,,,,,1,,,70,49
123420,note_on,30,0,1,,,,,,,,,0,,,73,0
123540,note_on,120,0,3,,,,,,,,,2,,,61,0
123540,note_on,0,0,3,,,,,,,,,2,,,58,0
123540,note_on,0,0,3,,,,,,,,,2,,,52,0
123540,note_on,120,0,2,,,,,,,,,1,,,70,0
123540,note_on,0,0,2,,,,,,,,,1,,,67,0
123540,note_on,0,0,1,,,,,,,,,0,,,74,75
123540,note_on,0,0,2,,,,,,,,,1,,,67,62
123540,note_on,0,0,3,,,,,,,,,2,,,58,62
123540,note_on,0,0,3,,,,,,,,,2,,,61,62
123540,note_on,120,0,1,,,,,,,,,0,,,73,0
123540,control_change,0,0,1,,,,,,,,,0,64,127,,
123540,note_on,0,0,2,,,,,,,,,1,,,70,62
123540,note_on,0,0,3,,,,,,,,,2,,,52,62
123546,note_on,0,0,3,,,,,,,,,2,,,52,0
123546,note_on,6,0,2,,,,,,,,,1,,,70,0
123546,note_on,6,0,3,,,,,,,,,2,,,61,0
123546,note_on,0,0,3,,,,,,,,,2,,,58,0
123546,note_on,0,0,2,,,,,,,,,1,,,67,0
123570,note_on,30,0,1,,,,,,,,,0,,,74,0
123570,note_on,0,0,1,,,,,,,,,0,,,73,75
123600,note_on,0,0,1,,,,,,,,,0,,,73,101
123600,control_change,0,0,1,,,,,,,,,0,64,0,,
123600,note_on,30,0,1,,,,,,,,,0,,,73,0
123600,note_on,54,0,3,,,,,,,,,2,,,52,62
123600,note_on,54,0,2,,,,,,,,,1,,,67,62
123600,note_on,0,0,2,,,,,,,,,1,,,70,62
123600,note_on,0,0,3,,,,,,,,,2,,,61,62
123600,note_on,0,0,3,,,,,,,,,2,,,58,62
123720,control_change,0,0,1,,,,,,,,,0,64,127,,
123720,note_on,0,0,3,,,,,,,,,2,,,53,75
123720,note_on,120,0,3,,,,,,,,,2,,,61,0
123720,note_on,0,0,3,,,,,,,,,2,,,58,75
123720,note_on,0,0,3,,,,,,,,,2,,,62,75
123720,note_on,0,0,1,,,,,,,,,0,,,75,88
123720,note_on,0,0,3,,,,,,,,,2,,,58,0
123720,note_on,0,0,3,,,,,,,,,2,,,52,0
123720,note_on,0,0,2,,,,,,,,,1,,,70,75
123720,note_on,0,0,2,,,,,,,,,1,,,65,75
123720,note_on,0,0,2,,,,,,,,,1,,,67,0
123720,note_on,120,0,2,,,,,,,,,1,,,70,0
123720,note_on,120,0,1,,,,,,,,,0,,,73,0
123726,note_on,0,0,2,,,,,,,,,1,,,65,0
123726,note_on,6,0,3,,,,,,,,,2,,,62,0
123726,note_on,0,0,3,,,,,,,,,2,,,53,0
123726,note_on,6,0,2,,,,,,,,,1,,,70,0
123726,note_on,0,0,3,,,,,,,,,2,,,58,0
123750,note_on,30,0,1,,,,,,,,,0,,,75,0
123750,note_on,0,0,1,,,,,,,,,0,,,74,88
123780,note_on,30,0,1,,,,,,,,,0,,,74,0
123780,control_change,0,0,1,,,,,,,,,0,64,0,,
123780,note_on,0,0,3,,,,,,,,,2,,,62,75
123780,note_on,0,0,3,,,,,,,,,2,,,58,75
123780,note_on,0,0,2,,,,,,,,,1,,,70,75
123780,note_on,54,0,2,,,,,,,,,1,,,65,75
123780,note_on,54,0,3,,,,,,,,,2,,,53,75
123780,note_on,0,0,1,,,,,,,,,0,,,74,114
123900,note_on,0,0,3,,,,,,,,,2,,,58,0
123900,note_on,0,0,3,,,,,,,,,2,,,63,75
123900,note_on,0,0,1,,,,,,,,,0,,,79,88
123900,control_change,0,0,1,,,,,,,,,0,64,127,,
123900,note_on,0,0,3,,,,,,,,,2,,,60,75
123900,note_on,120,0,2,,,,,,,,,1,,,70,0
123900,note_on,0,0,2,,,,,,,,,1,,,72,75
123900,note_on,120,0,1,,,,,,,,,0,,,74,0
123900,note_on,0,0,3,,,,,,,,,2,,,53,75
123900,note_on,0,0,2,,,,,,,,,1,,,65,0
123900,note_on,0,0,2,,,,,,,,,1,,,69,75
123900,note_on,120,0,3,,,,,,,,,2,,,62,0
123900,note_on,0,0,3,,,,,,,,,2,,,53,0
123906,note_on,0,0,2,,,,,,,,,1,,,69,0
123906,note_on,6,0,2,,,,,,,,,1,,,72,0
123906,note_on,0,0,3,,,,,,,,,2,,,53,0
123906,note_on,0,0,3,,,,,,,,,2,,,60,0
123906,note_on,6,0,3,,,,,,,,,2,,,63,0
123930,note_on,30,0,1,,,,,,,,,0,,,79,0
123930,note_on,0,0,1,,,,,,,,,0,,,77,88
123960,note_on,54,0,3,,,,,,,,,2,,,53,75
123960,note_on,0,0,3,,,,,,,,,2,,,60,75
123960,note_on,30,0,1,,,,,,,,,0,,,77,0
123960,control_change,0,0,1,,,,,,,,,0,64,0,,
123960,note_on,0,0,1,,,,,,,,,0,,,77,114
123960,note_on,54,0,2,,,,,,,,,1,,,69,75
123960,note_on,0,0,2,,,,,,,,,1,,,72,75
123960,note_on,0,0,3,,,,,,,,,2,,,63,75
124080,control_change,0,0,1,,,,,,,,,0,64,127,,
124080,note_on,0,0,3,,,,,,,,,2,,,70,75
124080,note_on,0,0,3,,,,,,,,,2,,,65,75
124080,note_on,0,0,3,,,,,,,,,2,,,53,0
124080,note_on,0,0,3,,,,,,,,,2,,,60,0
124080,note_on,120,0,3,,,,,,,,,2,,,63,0
124080,note_on,0,0,1,,,,,,,,,0,,,87,88
124080,note_on,120,0,2,,,,,,,,,1,,,72,0
124080,note_on,0,0,2,,,,,,,,,1,,,69,0
124080,note_on,0,0,2,,,,,,,,,1,,,82,75
124080,note_on,120,0,1,,,,,,,,,0,,,77,0
124080,note_on,0,0,3,,,,,,,,,2,,,74,75
124080,note_on,0,0,2,,,,,,,,,1,,,77,75
124086,note_on,6,0,2,,,,,,,,,1,,,82,0
124086,note_on,0,0,2,,,,,,,,,1,,,77,0
124086,note_on,6,0,3,,,,,,,,,2,,,74,0
124086,note_on,0,0,3,,,,,,,,,2,,,70,0
124086,note_on,0,0,3,,,,,,,,,2,,,65,0
124110,note_on,0,0,1,,,,,,,,,0,,,86,88
124110,note_on,30,0,1,,,,,,,,,0,,,87,0
124140,note_on,0,0,3,,,,,,,,,2,,,74,75
124140,note_on,54,0,3,,,,,,,,,2,,,65,75
124140,note_on,0,0,2,,,,,,,,,1,,,82,75
124140,note_on,54,0,2,,,,,,,,,1,,,77,75
124140,note_on,0,0,1,,,,,,,,,0,,,86,114
124140,control_change,0,0,1,,,,,,,,,0,64,0,,
124140,note_on,30,0,1,,,,,,,,,0,,,86,0
124140,note_on,0,0,3,,,,,,,,,2,,,70,75
124260,note_on,120,0,3,,,,,,,,,2,,,74,0
124260,note_on,0,0,2,,,,,,,,,1,,,84,75
124260,control_change,0,0,2,,,,,,,,,1,64,127,,
124260,note_on,0,0,2,,,,,,,,,1,,,77,0
124260,note_on,0,0,2,,,,,,,,,1,,,81,75
124260,note_on,120,0,2,,,,,,,,,1,,,82,0
124260,note_on,120,0,1,,,,,,,,,0,,,86,0
124260,note_on,0,0,3,,,,,,,,,2,,,75,75
124260,note_on,0,0,3,,,,,,,,,2,,,72,75
124260,note_on,0,0,3,,,,,,,,,2,,,65,75
124260,control_change,0,0,3,,,,,,,,,2,64,127,,
124260,note_on,0,0,3,,,,,,,,,2,,,65,0
124260,note_on,0,0,1,,,,,,,,,0,,,91,88
124260,control_change,0,0,1,,,,,,,,,0,64,127,,
124260,note_on,0,0,3,,,,,,,,,2,,,70,0
124266,note_on,6,0,2,,,,,,,,,1,,,84,0
124266,note_on,0,0,2,,,,,,,,,1,,,81,0
124290,note_on,0,0,1,,,,,,,,,0,,,89,88
124290,note_on,30,0,1,,,,,,,,,0,,,91,0
124320,note_on,0,0,3,,,,,,,,,2,,,72,96
124320,note_on,60,0,3,,,,,,,,,2,,,75,0
124320,note_on,0,0,3,,,,,,,,,2,,,72,0
124320,note_on,0,0,3,,,,,,,,,2,,,75,101
124320,note_on,0,0,3,,,,,,,,,2,,,65,91
124320,note_on,0,0,2,,,,,,,,,1,,,84,75
124320,note_on,0,0,1,,,,,,,,,0,,,89,114
124320,note_on,30,0,1,,,,,,,,,0,,,89,0
124320,note_on,54,0,2,,,,,,,,,1,,,81,75
124320,note_on,0,0,3,,,,,,,,,2,,,65,0
124500,note_on,0,0,1,,,,,,,,,0,,,89,88
124500,note_on,180,0,1,,,,,,,,,0,,,89,0
124500,note_on,0,0,3,,,,,,,,,2,,,72,75
124500,note_on,0,0,2,,,,,,,,,1,,,81,0
124500,note_on,0,0,3,,,,,,,,,2,,,65,75
124500,note_on,0,0,2,,,,,,,,,1,,,84,75
124500,note_on,0,0,3,,,,,,,,,2,,,75,75
124500,note_on,180,0,3,,,,,,,,,2,,,75,0
124500,note_on,0,0,3,,,,,,,,,2,,,72,0
124500,note_on,0,0,3,,,,,,,,,2,,,65,0
124500,note_on,0,0,2,,,,,,,,,1,,,81,75
124500,note_on,180,0,2,,,,,,,,,1,,,84,0
124506,note_on,6,0,2,,,,,,,,,1,,,84,0
124506,note_on,0,0,2,,,,,,,,,1,,,81,0
124506,note_on,6,0,1,,,,,,,,,0,,,89,0
124560,note_on,60,0,3,,,,,,,,,2,,,75,0
124560,note_on,0,0,3,,,,,,,,,2,,,72,0
124560,note_on,0,0,3,,,,,,,,,2,,,65,0
124560,note_on,54,0,2,,,,,,,,,1,,,81,75
124560,note_on,0,0,2,,,,,,,,,1,,,84,75
124560,note_on,0,0,3,,,,,,,,,2,,,65,75
124560,note_on,54,0,1,,,,,,,,,0,,,89,88
124560,note_on,0,0,3,,,,,,,,,2,,,75,75
124560,note_on,0,0,3,,,,,,,,,2,,,72,75
124566,note_on,0,0,2,,,,,,,,,1,,,81,0
124566,note_on,6,0,2,,,,,,,,,1,,,84,0
124566,note_on,6,0,1,,,,,,,,,0,,,89,0
124620,note_on,60,0,3,,,,,,,,,2,,,75,0
124620,note_on,0,0,3,,,,,,,,,2,,,72,0
124620,note_on,0,0,3,,,,,,,,,2,,,65,0
124620,note_on,0,0,3,,,,,,,,,2,,,65,75
124620,note_on,54,0,2,,,,,,,,,1,,,81,75
124620,note_on,0,0,2,,,,,,,,,1,,,84,75
124620,note_on,0,0,3,,,,,,,,,2,,,72,75
124620,note_on,54,0,1,,,,,,,,,0,,,89,88
124620,note_on,0,0,3,,,,,,,,,2,,,75,75
124626,note_on,6,0,2,,,,,,,,,1,,,84,0
124626,note_on,0,0,2,,,,,,,,,1,,,81,0
124626,note_on,6,0,1,,,,,,,,,0,,,89,0
124680,note_on,0,0,3,,,,,,,,,2,,,72,75
124680,note_on,0,0,3,,,,,,,,,2,,,75,75
124680,note_on,0,0,3,,,,,,,,,2,,,65,0
124680,note_on,0,0,3,,,,,,,,,2,,,72,0
124680,note_on,60,0,3,,,,,,,,,2,,,75,0
124680,note_on,0,0,3,,,,,,,,,2,,,65,75
124680,note_on,0,0,2,,,,,,,,,1,,,84,75
124680,note_on,54,0,2,,,,,,,,,1,,,81,75
124680,note_on,54,0,1,,,,,,,,,0,,,89,88
124686,note_on,6,0,1,,,,,,,,,0,,,89,0
124686,note_on,6,0,2,,,,,,,,,1,,,84,0
124686,note_on,0,0,2,,,,,,,,,1,,,81,0
124740,note_on,0,0,3,,,,,,,,,2,,,75,75
124740,note_on,0,0,3,,,,,,,,,2,,,72,75
124740,note_on,0,0,3,,,,,,,,,2,,,65,75
124740,control_change,0,0,3,,,,,,,,,2,64,0,,
124740,control_change,54,0,2,,,,,,,,,1,64,0,,
124740,control_change,54,0,1,,,,,,,,,0,64,0,,
124740,note_on,0,0,3,,,,,,,,,2,,,65,0
124740,note_on,0,0,3,,,,,,,,,2,,,72,0
124740,note_on,0,0,2,,,,,,,,,1,,,84,75
124740,note_on,0,0,2,,,,,,,,,1,,,81,75
124740,note_on,0,0,1,,,,,,,,,0,,,89,88
124740,note_on,60,0,3,,,,,,,,,2,,,75,0
124746,note_on,6,0,1,,,,,,,,,0,,,89,0
124746,note_on,0,0,2,,,,,,,,,1,,,81,0
124746,note_on,6,0,2,,,,,,,,,1,,,84,0
124800,control_change,0,0,3,,,,,,,,,2,64,127,,
124800,note_on,0,0,3,,,,,,,,,2,,,65,88
124800,note_on,0,0,3,,,,,,,,,2,,,69,88
124800,note_on,0,0,3,,,,,,,,,2,,,75,88
124800,note_on,0,0,3,,,,,,,,,2,,,72,0
124800,note_on,60,0,3,,,,,,,,,2,,,75,0
124800,note_on,0,0,1,,,,,,,,,0,,,84,101
124800,note_on,0,0,3,,,,,,,,,2,,,65,0
124800,note_on,0,0,1,,,,,,,,,0,,,93,101
124800,note_on,0,0,1,,,,,,,,,0,,,87,101
124800,control_change,54,0,1,,,,,,,,,0,64,127,,
124806,note_on,0,0,3,,,,,,,,,2,,,65,0
124806,note_on,0,0,3,,,,,,,,,2,,,69,0
124806,note_on,6,0,3,,,,,,,,,2,,,75,0
124806,note_on,6,0,1,,,,,,,,,0,,,93,0
124806,note_on,0,0,1,,,,,,,,,0,,,87,0
124806,note_on,0,0,1,,,,,,,,,0,,,84,0
124860,note_on,54,0,3,,,,,,,,,2,,,65,88
124860,note_on,54,0,1,,,,,,,,,0,,,83,101
124860,note_on,0,0,3,,,,,,,,,2,,,71,88
124860,note_on,0,0,1,,,,,,,,,0,,,93,101
124860,note_on,0,0,1,,,,,,,,,0,,,87,101
124860,note_on,0,0,3,,,,,,,,,2,,,75,88
124866,note_on,0,0,1,,,,,,,,,0,,,83,0
124866,note_on,0,0,1,,,,,,,,,0,,,87,0
124866,note_on,6,0,1,,,,,,,,,0,,,93,0
124866,note_on,0,0,3,,,,,,,,,2,,,65,0
124866,note_on,0,0,3,,,,,,,,,2,,,71,0
124866,note_on,6,0,3,,,,,,,,,2,,,75,0
124920,note_on,54,0,1,,,,,,,,,0,,,81,101
124920,note_on,0,0,1,,,,,,,,,0,,,93,101
124920,note_on,0,0,3,,,,,,,,,2,,,75,88
124920,note_on,0,0,3,,,,,,,,,2,,,72,88
124920,note_on,54,0,3,,,,,,,,,2,,,65,88
124920,note_on,0,0,1,,,,,,,,,0,,,87,101
124926,note_on,0,0,3,,,,,,,,,2,,,72,0
124926,note_on,0,0,3,,,,,,,,,2,,,65,0
124926,note_on,6,0,3,,,,,,,,,2,,,75,0
124926,note_on,0,0,1,,,,,,,,,0,,,81,0
124926,note_on,6,0,1,,,,,,,,,0,,,93,0
124926,note_on,0,0,1,,,,,,,,,0,,,87,0
124980,note_on,0,0,1,,,,,,,,,0,,,93,101
124980,note_on,0,0,1,,,,,,,,,0,,,87,101
124980,note_on,54,0,3,,,,,,,,,2,,,65,88
124980,note_on,0,0,3,,,,,,,,,2,,,69,88
124980,note_on,0,0,3,,,,,,,,,2,,,75,88
124980,note_on,54,0,1,,,,,,,,,0,,,84,101
124986,note_on,0,0,1,,,,,,,,,0,,,84,0
124986,note_on,0,0,1,,,,,,,,,0,,,87,0
124986,note_on,6,0,1,,,,,,,,,0,,,93,0
124986,note_on,0,0,3,,,,,,,,,2,,,65,0
124986,note_on,6,0,3,,,,,,,,,2,,,75,0
124986,note_on,0,0,3,,,,,,,,,2,,,69,0
125040,note_on,54,0,3,,,,,,,,,2,,,65,88
125040,note_on,54,0,1,,,,,,,,,0,,,83,101
125040,note_on,0,0,3,,,,,,,,,2,,,75,88
125040,note_on,0,0,1,,,,,,,,,0,,,93,101
125040,note_on,0,0,1,,,,,,,,,0,,,87,101
125040,note_on,0,0,3,,,,,,,,,2,,,71,88
125046,note_on,6,0,1,,,,,,,,,0,,,93,0
125046,note_on,0,0,1,,,,,,,,,0,,,87,0
125046,note_on,0,0,1,,,,,,,,,0,,,83,0
125046,note_on,0,0,3,,,,,,,,,2,,,71,0
125046,note_on,6,0,3,,,,,,,,,2,,,75,0
125046,note_on,0,0,3,,,,,,,,,2,,,65,0
125100,note_on,0,0,1,,,,,,,,,0,,,93,101
125100,note_on,0,0,3,,,,,,,,,2,,,75,88
125100,control_change,54,0,3,,,,,,,,,2,64,0,,
125100,note_on,0,0,3,,,,,,,,,2,,,65,88
125100,note_on,0,0,3,,,,,,,,,2,,,72,88
125100,note_on,0,0,1,,,,,,,,,0,,,81,101
125100,control_change,54,0,1,,,,,,,,,0,64,0,,
125100,note_on,0,0,1,,,,,,,,,0,,,87,101
125106,note_on,6,0,3,,,,,,,,,2,,,75,0
125106,note_on,0,0,3,,,,,,,,,2,,,72,0
125106,note_on,0,0,3,,,,,,,,,2,,,65,0
125106,note_on,6,0,1,,,,,,,,,0,,,93,0
125106,note_on,0,0,1,,,,,,,,,0,,,87,0
125106,note_on,0,0,1,,,,,,,,,0,,,81,0
125160,note_on,0,0,1,,,,,,,,,0,,,93,88
125160,note_on,0,0,1,,,,,,,,,0,,,88,88
125160,note_on,0,0,1,,,,,,,,,0,,,85,88
125160,note_on,0,0,3,,,,,,,,,2,,,76,75
125160,control_change,54,0,3,,,,,,,,,2,64,127,,
125160,note_on,0,0,3,,,,,,,,,2,,,64,75
125160,note_on,0,0,3,,,,,,,,,2,,,69,75
125160,note_on,0,0,3,,,,,,,,,2,,,73,75
125160,control_change,54,0,1,,,,,,,,,0,64,127,,
125160,note_on,0,0,1,,,,,,,,,0,,,81,88
125400,note_on,240,0,1,,,,,,,,,0,,,93,0
125400,note_on,0,0,1,,,,,,,,,0,,,85,0
125400,note_on,0,0,1,,,,,,,,,0,,,88,0
125400,note_on,0,0,1,,,,,,,,,0,,,88,49
125400,note_on,0,0,1,,,,,,,,,0,,,81,0
125400,note_on,0,0,3,,,,,,,,,2,,,64,0
125400,note_on,0,0,3,,,,,,,,,2,,,76,36
125400,note_on,240,0,3,,,,,,,,,2,,,76,0
125400,note_on,0,0,3,,,,,,,,,2,,,69,0
125400,note_on,0,0,3,,,,,,,,,2,,,73,0
125460,note_on,60,0,3,,,,,,,,,2,,,76,0
125460,note_on,0,0,3,,,,,,,,,2,,,73,36
125460,note_on,60,0,1,,,,,,,,,0,,,88,0
125460,note_on,0,0,1,,,,,,,,,0,,,85,49
125520,note_on,60,0,1,,,,,,,,,0,,,85,0
125520,note_on,0,0,1,,,,,,,,,0,,,81,49
125520,note_on,60,0,3,,,,,,,,,2,,,73,0
125520,note_on,0,0,3,,,,,,,,,2,,,69,36
125580,note_on,0,0,3,,,,,,,,,2,,,64,36
125580,note_on,0,0,1,,,,,,,,,0,,,76,49
125580,note_on,60,0,1,,,,,,,,,0,,,81,0
125580,note_on,60,0,3,,,,,,,,,2,,,69,0
125640,note_on,60,0,3,,,,,,,,,2,,,64,0
125640,note_on,0,0,3,,,,,,,,,2,,,61,36
125640,note_on,0,0,1,,,,,,,,,0,,,73,49
125640,note_on,60,0,1,,,,,,,,,0,,,76,0
125700,note_on,60,0,3,,,,,,,,,2,,,61,0
125700,control_change,0,0,3,,,,,,,,,2,64,0,,
125700,note_on,0,0,3,,,,,,,,,2,,,57,36
125700,note_on,0,0,1,,,,,,,,,0,,,69,49
125700,control_change,0,0,1,,,,,,,,,0,64,0,,
125700,note_on,60,0,1,,,,,,,,,0,,,73,0
125760,note_on,60,0,1,,,,,,,,,0,,,69,0
125760,note_on,0,0,3,,,,,,,,,2,,,54,36
125760,note_on,60,0,3,,,,,,,,,2,,,57,0
125760,note_on,0,0,1,,,,,,,,,0,,,66,49
125820,note_on,60,0,1,,,,,,,,,0,,,66,0
125820,note_on,0,0,3,,,,,,,,,2,,,51,36
125820,note_on,60,0,3,,,,,,,,,2,,,54,0
125820,note_on,0,0,1,,,,,,,,,0,,,63,49
125850,note_on,30,0,1,,,,,,,,,0,,,69,49
125865,note_on,15,0,1,,,,,,,,,0,,,69,0
125865,note_on,0,0,1,,,,,,,,,0,,,71,49
125880,note_on,0,0,3,,,,,,,,,2,,,61,36
125880,note_on,0,0,1,,,,,,,,,0,,,63,0
125880,note_on,15,0,1,,,,,,,,,0,,,71,0
125880,note_on,0,0,1,,,,,,,,,0,,,69,49
125880,control_change,0,0,1,,,,,,,,,0,64,127,,
125880,note_on,60,0,3,,,,,,,,,2,,,51,0
125880,note_on,3294,0,4,,,,,,,,,3,,,52,36
125880,note_on,1134,0,2,,,,,,,,,1,,,64,75
125970,note_on,0,0,1,,,,,,,,,0,,,68,49
125970,note_on,90,0,1,,,,,,,,,0,,,69,0
126000,note_on,0,0,1,,,,,,,,,0,,,69,49
126000,note_on,30,0,1,,,,,,,,,0,,,68,0
126060,note_on,60,0,1,,,,,,,,,0,,,69,0
126060,control_change,0,0,1,,,,,,,,,0,64,0,,
126060,note_on,180,0,2,,,,,,,,,1,,,64,0
126060,note_on,0,0,1,,,,,,,,,0,,,73,49
126060,note_on,0,0,3,,,,,,,,,2,,,62,36
126060,note_on,180,0,3,,,,,,,,,2,,,61,0
126060,note_on,0,0,2,,,,,,,,,1,,,68,75
126180,note_on,120,0,1,,,,,,,,,0,,,73,0
126180,note_on,0,0,1,,,,,,,,,0,,,71,49
126240,note_on,0,0,2,,,,,,,,,1,,,57,36
126240,note_on,60,0,1,,,,,,,,,0,,,71,0
126240,note_on,0,0,1,,,,,,,,,0,,,57,36
126240,note_on,180,0,2,,,,,,,,,1,,,68,0
126240,note_on,0,0,1,,,,,,,,,0,,,69,36
126240,note_on,360,0,4,,,,,,,,,3,,,52,0
126240,note_on,0,0,4,,,,,,,,,3,,,45,36
126240,note_on,180,0,3,,,,,,,,,2,,,62,0
126240,note_on,0,0,3,,,,,,,,,2,,,49,36
126240,control_change,0,0,4,,,,,,,,,3,64,127,,
126246,note_on,6,0,4,,,,,,,,,3,,,45,0
126300,note_on,54,0,4,,,,,,,,,3,,,45,36
126306,note_on,6,0,4,,,,,,,,,3,,,45,0
126360,note_on,54,0,4,,,,,,,,,3,,,45,36
126366,note_on,6,0,4,,,,,,,,,3,,,45,0
126420,note_on,0,0,1,,,,,,,,,0,,,57,0
126420,note_on,0,0,1,,,,,,,,,0,,,61,36
126420,note_on,180,0,3,,,,,,,,,2,,,49,0
126420,note_on,180,0,1,,,,,,,,,0,,,69,0
126420,note_on,0,0,3,,,,,,,,,2,,,52,36
126420,note_on,54,0,4,,,,,,,,,3,,,45,36
126426,note_on,6,0,4,,,,,,,,,3,,,45,0
126480,note_on,54,0,4,,,,,,,,,3,,,45,36
126486,note_on,6,0,4,,,,,,,,,3,,,45,0
126540,note_on,0,0,4,,,,,,,,,3,,,45,36
126540,control_change,54,0,4,,,,,,,,,3,64,127,,
126546,note_on,6,0,4,,,,,,,,,3,,,45,0
126600,note_on,180,0,3,,,,,,,,,2,,,52,0
126600,note_on,0,0,4,,,,,,,,,3,,,45,36
126600,note_on,0,0,3,,,,,,,,,2,,,53,36
126600,note_on,0,0,2,,,,,,,,,1,,,56,36
126600,control_change,0,0,1,,,,,,,,,0,64,127,,
126600,note_on,0,0,1,,,,,,,,,0,,,59,54
126600,note_on,0,0,1,,,,,,,,,0,,,64,62
126600,note_on,180,0,1,,,,,,,,,0,,,61,0
126600,control_change,54,0,4,,,,,,,,,3,64,127,,
126600,note_on,360,0,2,,,,,,,,,1,,,57,0
126606,note_on,6,0,4,,,,,,,,,3,,,45,0
126660,note_on,54,0,4,,,,,,,,,3,,,45,36
126666,note_on,6,0,4,,,,,,,,,3,,,45,0
126720,note_on,54,0,4,,,,,,,,,3,,,45,36
126726,note_on,6,0,4,,,,,,,,,3,,,45,0
126780,note_on,54,0,4,,,,,,,,,3,,,45,36
126780,note_on,180,0,1,,,,,,,,,0,,,64,0
126780,note_on,0,0,1,,,,,,,,,0,,,62,36
126786,note_on,6,0,4,,,,,,,,,3,,,45,0
126840,note_on,54,0,4,,,,,,,,,3,,,45,36
126846,note_on,6,0,4,,,,,,,,,3,,,45,0
126900,note_on,0,0,4,,,,,,,,,3,,,45,36
126900,control_change,54,0,4,,,,,,,,,3,64,127,,
126900,control_change,0,0,1,,,,,,,,,0,64,0,,
126900,note_on,0,0,1,,,,,,,,,0,,,61,36
126900,note_on,0,0,1,,,,,,,,,0,,,59,0
126900,note_on,120,0,1,,,,,,,,,0,,,62,0
126906,note_on,6,0,4,,,,,,,,,3,,,45,0
126960,note_on,0,0,4,,,,,,,,,3,,,45,36
126960,control_change,54,0,4,,,,,,,,,3,64,127,,
126960,note_on,360,0,2,,,,,,,,,1,,,56,0
126960,note_on,0,0,3,,,,,,,,,2,,,52,36
126960,note_on,360,0,3,,,,,,,,,2,,,53,0
126960,note_on,0,0,2,,,,,,,,,1,,,56,36
126960,control_change,0,0,1,,,,,,,,,0,64,127,,
126960,note_on,60,0,1,,,,,,,,,0,,,61,0
126960,note_on,0,0,1,,,,,,,,,0,,,59,36
126966,note_on,6,0,4,,,,,,,,,3,,,45,0
127020,note_on,54,0,4,,,,,,,,,3,,,45,36
127026,note_on,6,0,4,,,,,,,,,3,,,45,0
127080,note_on,54,0,4,,,,,,,,,3,,,45,36
127086,note_on,6,0,4,,,,,,,,,3,,,45,0
127140,note_on,54,0,4,,,,,,,,,3,,,45,36
127140,note_on,180,0,3,,,,,,,,,2,,,52,0
127140,note_on,0,0,3,,,,,,,,,2,,,50,36
127146,note_on,6,0,4,,,,,,,,,3,,,45,0
127200,note_on,0,0,1,,,,,,,,,0,,,62,36
127200,note_on,54,0,4,,,,,,,,,3,,,45,36
127200,note_on,240,0,1,,,,,,,,,0,,,59,0
127206,note_on,6,0,4,,,,,,,,,3,,,45,0
127260,note_on,0,0,4,,,,,,,,,3,,,45,36
127260,control_change,54,0,4,,,,,,,,,3,64,127,,
127260,note_on,60,0,1,,,,,,,,,0,,,62,0
127260,note_on,0,0,1,,,,,,,,,0,,,65,36
127260,control_change,0,0,1,,,,,,,,,0,64,0,,
127266,note_on,6,0,4,,,,,,,,,3,,,45,0
127320,control_change,54,0,4,,,,,,,,,3,64,127,,
127320,note_on,180,0,3,,,,,,,,,2,,,50,0
127320,note_on,0,0,3,,,,,,,,,2,,,49,36
127320,note_on,0,0,1,,,,,,,,,0,,,65,36
127320,note_on,0,0,2,,,,,,,,,1,,,57,36
127320,note_on,60,0,1,,,,,,,,,0,,,65,0
127320,note_on,0,0,4,,,,,,,,,3,,,45,36
127320,note_on,360,0,2,,,,,,,,,1,,,56,0
127326,note_on,6,0,4,,,,,,,,,3,,,45,0
127380,note_on,54,0,4,,,,,,,,,3,,,45,36
127386,note_on,6,0,4,,,,,,,,,3,,,45,0
127440,note_on,54,0,4,,,,,,,,,3,,,45,36
127446,note_on,6,0,4,,,,,,,,,3,,,45,0
127500,note_on,180,0,1,,,,,,,,,0,,,65,0
127500,note_on,0,0,1,,,,,,,,,0,,,64,36
127500,note_on,54,0,4,,,,,,,,,3,,,45,36
127506,note_on,6,0,4,,,,,,,,,3,,,45,0
127560,note_on,54,0,4,,,,,,,,,3,,,45,36
127566,note_on,6,0,4,,,,,,,,,3,,,45,0
127620,control_change,54,0,4,,,,,,,,,3,64,127,,
127620,note_on,0,0,4,,,,,,,,,3,,,45,36
127626,note_on,6,0,4,,,,,,,,,3,,,45,0
127680,control_change,54,0,4,,,,,,,,,3,64,127,,
127680,note_on,0,0,3,,,,,,,,,2,,,49,36
127680,note_on,360,0,3,,,,,,,,,2,,,49,0
127680,note_on,0,0,4,,,,,,,,,3,,,45,36
127680,note_on,0,0,1,,,,,,,,,0,,,57,36
127680,note_on,180,0,1,,,,,,,,,0,,,64,0
127680,note_on,0,0,2,,,,,,,,,1,,,57,36
127680,note_on,360,0,2,,,,,,,,,1,,,57,0
127686,note_on,6,0,4,,,,,,,,,3,,,45,0
127740,note_on,54,0,4,,,,,,,,,3,,,45,36
127746,note_on,6,0,4,,,,,,,,,3,,,45,0
127800,note_on,54,0,4,,,,,,,,,3,,,45,36
127806,note_on,6,0,4,,,,,,,,,3,,,45,0
127860,note_on,0,0,1,,,,,,,,,0,,,61,36
127860,note_on,180,0,1,,,,,,,,,0,,,57,0
127860,note_on,54,0,4,,,,,,,,,3,,,45,36
127860,note_on,0,0,3,,,,,,,,,2,,,55,36
127860,note_on,180,0,3,,,,,,,,,2,,,49,0
127866,note_on,6,0,4,,,,,,,,,3,,,45,0
127920,note_on,54,0,4,,,,,,,,,3,,,45,36
127926,note_on,6,0,4,,,,,,,,,3,,,45,0
127980,note_on,0,0,4,,,,,,,,,3,,,45,36
127980,control_change,54,0,4,,,,,,,,,3,64,127,,
127986,note_on,6,0,4,,,,,,,,,3,,,45,0
128040,note_on,0,0,4,,,,,,,,,3,,,45,36
128040,note_on,0,0,3,,,,,,,,,2,,,53,36
128040,note_on,180,0,3,,,,,,,,,2,,,55,0
128040,control_change,0,0,1,,,,,,,,,0,64,127,,
128040,control_change,54,0,4,,,,,,,,,3,64,127,,
128040,note_on,360,0,2,,,,,,,,,1,,,57,0
128040,note_on,0,0,2,,,,,,,,,1,,,56,36
128040,note_on,0,0,1,,,,,,,,,0,,,59,54
128040,note_on,0,0,1,,,,,,,,,0,,,64,62
128040,note_on,180,0,1,,,,,,,,,0,,,61,0
128046,note_on,6,0,4,,,,,,,,,3,,,45,0
128100,note_on,54,0,4,,,,,,,,,3,,,45,36
128106,note_on,6,0,4,,,,,,,,,3,,,45,0
128160,note_on,54,0,4,,,,,,,,,3,,,45,36
128166,note_on,6,0,4,,,,,,,,,3,,,45,0
128220,note_on,180,0,1,,,,,,,,,0,,,64,0
128220,note_on,0,0,1,,,,,,,,,0,,,62,36
128220,note_on,54,0,4,,,,,,,,,3,,,45,36
128226,note_on,6,0,4,,,,,,,,,3,,,45,0
128280,note_on,54,0,4,,,,,,,,,3,,,45,36
128286,note_on,6,0,4,,,,,,,,,3,,,45,0
128340,control_change,54,0,4,,,,,,,,,3,64,127,,
128340,note_on,0,0,4,,,,,,,,,3,,,45,36
128340,note_on,120,0,1,,,,,,,,,0,,,62,0
128340,note_on,0,0,1,,,,,,,,,0,,,59,0
128340,note_on,0,0,1,,,,,,,,,0,,,61,36
128340,control_change,0,0,1,,,,,,,,,0,64,0,,
128346,note_on,6,0,4,,,,,,,,,3,,,45,0
128400,note_on,60,0,1,,,,,,,,,0,,,61,0
128400,note_on,0,0,1,,,,,,,,,0,,,59,36
128400,note_on,0,0,2,,,,,,,,,1,,,56,36
128400,note_on,0,0,4,,,,,,,,,3,,,45,36
128400,note_on,360,0,2,,,,,,,,,1,,,56,0
128400,note_on,360,0,3,,,,,,,,,2,,,53,0
128400,note_on,0,0,3,,,,,,,,,2,,,52,36
128400,control_change,54,0,4,,,,,,,,,3,64,127,,
128406,note_on,6,0,4,,,,,,,,,3,,,45,0
128460,set_tempo,21660,1,0,,,,,,512821,,,,,,,
128460,note_on,54,0,4,,,,,,,,,3,,,45,36
128466,note_on,6,0,4,,,,,,,,,3,,,45,0
128520,set_tempo,60,1,0,,,,,,526316,,,,,,,
128520,note_on,54,0,4,,,,,,,,,3,,,45,36
128526,note_on,6,0,4,,,,,,,,,3,,,45,0
128580,note_on,54,0,4,,,,,,,,,3,,,45,36
128580,set_tempo,60,1,0,,,,,,540541,,,,,,,
128580,note_on,0,0,3,,,,,,,,,2,,,50,36
128580,note_on,180,0,3,,,,,,,,,2,,,52,0
128586,note_on,6,0,4,,,,,,,,,3,,,45,0
128640,note_on,240,0,1,,,,,,,,,0,,,59,0
128640,note_on,54,0,4,,,,,,,,,3,,,45,36
128640,set_tempo,60,1,0,,,,,,560748,,,,,,,
128640,note_on,0,0,1,,,,,,,,,0,,,62,36
128646,note_on,6,0,4,,,,,,,,,3,,,45,0
128700,note_on,0,0,1,,,,,,,,,0,,,65,36
128700,control_change,54,0,4,,,,,,,,,3,64,127,,
128700,set_tempo,60,1,0,,,,,,576923,,,,,,,
128700,note_on,60,0,1,,,,,,,,,0,,,62,0
128700,note_on,0,0,4,,,,,,,,,3,,,45,36
128706,note_on,6,0,4,,,,,,,,,3,,,45,0
128760,set_tempo,60,1,0,,,,,,594059,,,,,,,
128760,note_on,0,0,1,,,,,,,,,0,,,65,36
128760,note_on,60,0,1,,,,,,,,,0,,,65,0
128760,note_on,0,0,2,,,,,,,,,1,,,57,36
128760,note_on,360,0,2,,,,,,,,,1,,,56,0
128760,note_on,0,0,3,,,,,,,,,2,,,49,36
128760,note_on,180,0,3,,,,,,,,,2,,,50,0
128760,control_change,54,0,4,,,,,,,,,3,64,127,,
128760,note_on,0,0,4,,,,,,,,,3,,,45,36
128766,note_on,6,0,4,,,,,,,,,3,,,45,0
128820,set_tempo,60,1,0,,,,,,612245,,,,,,,
128820,note_on,54,0,4,,,,,,,,,3,,,45,36
128826,note_on,6,0,4,,,,,,,,,3,,,45,0
128880,note_on,54,0,4,,,,,,,,,3,,,45,36
128880,set_tempo,60,1,0,,,,,,638298,,,,,,,
128886,note_on,6,0,4,,,,,,,,,3,,,45,0
128940,note_on,54,0,4,,,,,,,,,3,,,45,36
128940,note_on,0,0,1,,,,,,,,,0,,,64,36
128940,note_on,180,0,1,,,,,,,,,0,,,65,0
128946,note_on,6,0,4,,,,,,,,,3,,,45,0
129000,note_on,54,0,4,,,,,,,,,3,,,45,36
129006,note_on,6,0,4,,,,,,,,,3,,,45,0
129060,control_change,54,0,4,,,,,,,,,3,64,127,,
129060,note_on,0,0,4,,,,,,,,,3,,,45,36
129066,note_on,6,0,4,,,,,,,,,3,,,45,0
129120,note_on,0,0,2,,,,,,,,,1,,,57,36
129120,note_on,360,0,3,,,,,,,,,2,,,49,0
129120,control_change,54,0,4,,,,,,,,,3,64,127,,
129120,note_on,0,0,3,,,,,,,,,2,,,48,36
129120,note_on,180,0,1,,,,,,,,,0,,,64,0
129120,note_on,360,0,2,,,,,,,,,1,,,57,0
129120,note_on,0,0,1,,,,,,,,,0,,,65,36
129120,note_on,0,0,4,,,,,,,,,3,,,45,36
129126,note_on,6,0,4,,,,,,,,,3,,,45,0
129180,note_on,54,0,4,,,,,,,,,3,,,45,36
129186,note_on,6,0,4,,,,,,,,,3,,,45,0
129240,note_on,54,0,4,,,,,,,,,3,,,45,36
129246,note_on,6,0,4,,,,,,,,,3,,,45,0
129300,note_on,54,0,4,,,,,,,,,3,,,45,36
129300,note_on,180,0,1,,,,,,,,,0,,,65,0
129300,note_on,0,0,1,,,,,,,,,0,,,64,36
129306,note_on,6,0,4,,,,,,,,,3,,,45,0
129360,note_on,54,0,4,,,,,,,,,3,,,45,36
129366,note_on,6,0,4,,,,,,,,,3,,,45,0
129420,note_on,0,0,4,,,,,,,,,3,,,45,36
129420,control_change,54,0,4,,,,,,,,,3,64,127,,
129426,note_on,6,0,4,,,,,,,,,3,,,45,0
129480,note_on,0,0,4,,,,,,,,,3,,,38,36
129480,control_change,54,0,4,,,,,,,,,3,64,127,,
129480,note_on,0,0,2,,,,,,,,,1,,,57,36
129480,note_on,360,0,3,,,,,,,,,2,,,48,0
129480,note_on,0,0,1,,,,,,,,,0,,,64,49
129480,note_on,360,0,2,,,,,,,,,1,,,57,0
129480,note_on,0,0,2,,,,,,,,,1,,,53,36
129480,note_on,180,0,1,,,,,,,,,0,,,64,0
129540,note_on,60,0,4,,,,,,,,,3,,,38,0
129540,note_on,0,0,4,,,,,,,,,3,,,38,36
129600,note_on,60,0,4,,,,,,,,,3,,,38,0
129600,note_on,0,0,4,,,,,,,,,3,,,38,36
129660,note_on,0,0,4,,,,,,,,,3,,,38,36
129660,note_on,60,0,4,,,,,,,,,3,,,38,0
129660,note_on,180,0,1,,,,,,,,,0,,,64,0
129660,note_on,0,0,1,,,,,,,,,0,,,62,49
129720,note_on,60,0,4,,,,,,,,,3,,,38,0
129720,note_on,0,0,4,,,,,,,,,3,,,38,36
129780,note_on,0,0,4,,,,,,,,,3,,,38,36
129780,control_change,0,0,4,,,,,,,,,3,64,0,,
129780,note_on,60,0,4,,,,,,,,,3,,,38,0
129840,note_on,0,0,4,,,,,,,,,3,,,40,36
129840,note_on,180,0,1,,,,,,,,,0,,,62,0
129840,note_on,0,0,1,,,,,,,,,0,,,62,49
129840,note_on,360,0,2,,,,,,,,,1,,,57,0
129840,note_on,0,0,2,,,,,,,,,1,,,53,0
129840,note_on,0,0,2,,,,,,,,,1,,,52,36
129840,note_on,0,0,2,,,,,,,,,1,,,57,36
129840,note_on,60,0,4,,,,,,,,,3,,,38,0
129840,control_change,0,0,4,,,,,,,,,3,64,127,,
129900,note_on,60,0,4,,,,,,,,,3,,,40,0
129900,note_on,0,0,4,,,,,,,,,3,,,40,36
129960,note_on,60,0,4,,,,,,,,,3,,,40,0
129960,note_on,0,0,4,,,,,,,,,3,,,40,36
130020,note_on,0,0,4,,,,,,,,,3,,,40,36
130020,note_on,180,0,1,,,,,,,,,0,,,62,0
130020,note_on,0,0,1,,,,,,,,,0,,,60,49
130020,note_on,60,0,4,,,,,,,,,3,,,40,0
130080,note_on,60,0,4,,,,,,,,,3,,,40,0
130080,note_on,0,0,4,,,,,,,,,3,,,40,36
130140,note_on,0,0,4,,,,,,,,,3,,,40,36
130140,note_on,60,0,4,,,,,,,,,3,,,40,0
130140,control_change,0,0,4,,,,,,,,,3,64,0,,
130200,note_on,0,0,2,,,,,,,,,1,,,50,36
130200,note_on,0,0,2,,,,,,,,,1,,,56,36
130200,note_on,360,0,2,,,,,,,,,1,,,57,0
130200,note_on,0,0,2,,,,,,,,,1,,,52,0
130200,note_on,60,0,4,,,,,,,,,3,,,40,0
130200,note_on,0,0,4,,,,,,,,,3,,,40,36
130200,note_on,180,0,1,,,,,,,,,0,,,60,0
130200,note_on,0,0,1,,,,,,,,,0,,,60,49
130200,control_change,0,0,4,,,,,,,,,3,64,127,,
130260,note_on,60,0,4,,,,,,,,,3,,,40,0
130260,note_on,0,0,4,,,,,,,,,3,,,40,36
130320,note_on,60,0,4,,,,,,,,,3,,,40,0
130320,note_on,0,0,4,,,,,,,,,3,,,40,36
130380,note_on,180,0,1,,,,,,,,,0,,,60,0
130380,note_on,0,0,1,,,,,,,,,0,,,59,49
130380,note_on,60,0,4,,,,,,,,,3,,,40,0
130380,note_on,0,0,4,,,,,,,,,3,,,40,36
130440,note_on,60,0,4,,,,,,,,,3,,,40,0
130440,note_on,0,0,4,,,,,,,,,3,,,40,36
130500,control_change,0,0,4,,,,,,,,,3,64,0,,
130500,note_on,60,0,4,,,,,,,,,3,,,40,0
130500,note_on,0,0,4,,,,,,,,,3,,,40,36
130560,note_on,360,0,2,,,,,,,,,1,,,56,0
130560,note_on,0,0,2,,,,,,,,,1,,,50,0
130560,note_on,60,0,4,,,,,,,,,3,,,40,0
130560,note_on,180,0,1,,,,,,,,,0,,,59,0
130560,set_tempo,1680,1,0,,,,,,500000,,,,,,,
130860,note_on,0,0,1,,,,,,,,,0,,,72,101
130860,note_on,300,0,4,,,,,,,,,3,,,33,88
130860,note_on,0,0,1,,,,,,,,,0,,,76,101
130860,note_on,0,0,4,,,,,,,,,3,,,45,88
130860,note_on,300,0,1,,,,,,,,,0,,,64,101
130866,note_on,6,0,4,,,,,,,,,3,,,45,0
130866,note_on,6,0,1,,,,,,,,,0,,,76,0
130866,note_on,0,0,4,,,,,,,,,3,,,33,0
130866,note_on,0,0,1,,,,,,,,,0,,,72,0
130866,note_on,0,0,1,,,,,,,,,0,,,64,0
130920,note_on,0,0,1,,,,,,,,,0,,,64,101
130920,control_change,54,0,1,,,,,,,,,0,64,127,,
130920,note_on,54,0,4,,,,,,,,,3,,,33,88
130920,note_on,0,0,1,,,,,,,,,0,,,76,101
130920,note_on,0,0,4,,,,,,,,,3,,,45,88
130920,note_on,0,0,1,,,,,,,,,0,,,72,101
131010,note_on,0,0,1,,,,,,,,,0,,,62,101
131010,note_on,0,0,1,,,,,,,,,0,,,74,101
131010,note_on,0,0,1,,,,,,,,,0,,,72,0
131010,note_on,0,0,1,,,,,,,,,0,,,71,101
131010,note_on,0,0,1,,,,,,,,,0,,,64,0
131010,note_on,90,0,1,,,,,,,,,0,,,76,0
131040,note_on,0,0,1,,,,,,,,,0,,,62,0
131040,note_on,0,0,1,,,,,,,,,0,,,71,0
131040,note_on,30,0,1,,,,,,,,,0,,,74,0
131040,note_on,0,0,1,,,,,,,,,0,,,69,101
131040,note_on,120,0,4,,,,,,,,,3,,,45,0
131040,control_change,0,0,1,,,,,,,,,0,64,0,,
131040,note_on,0,0,1,,,,,,,,,0,,,72,101
131040,note_on,0,0,1,,,,,,,,,0,,,60,101
131040,note_on,0,0,4,,,,,,,,,3,,,33,0
131100,note_on,60,0,1,,,,,,,,,0,,,72,0
131100,note_on,0,0,1,,,,,,,,,0,,,69,0
131100,note_on,0,0,1,,,,,,,,,0,,,60,0
131100,note_on,0,0,1,,,,,,,,,0,,,60,101
131100,note_on,0,0,1,,,,,,,,,0,,,64,101
131100,note_on,0,0,1,,,,,,,,,0,,,72,101
131100,control_change,0,0,1,,,,,,,,,0,64,127,,
131100,note_on,0,0,4,,,,,,,,,3,,,57,88
131100,note_on,60,0,4,,,,,,,,,3,,,45,88
131190,note_on,0,0,1,,,,,,,,,0,,,71,101
131190,note_on,0,0,1,,,,,,,,,0,,,59,101
131190,note_on,0,0,1,,,,,,,,,0,,,60,0
131190,note_on,0,0,1,,,,,,,,,0,,,64,0
131190,note_on,90,0,1,,,,,,,,,0,,,72,0
131190,note_on,0,0,1,,,,,,,,,0,,,62,101
131220,note_on,0,0,1,,,,,,,,,0,,,59,0
131220,note_on,0,0,1,,,,,,,,,0,,,62,0
131220,note_on,30,0,1,,,,,,,,,0,,,71,0
131220,note_on,0,0,4,,,,,,,,,3,,,45,0
131220,note_on,0,0,1,,,,,,,,,0,,,60,101
131220,note_on,0,0,1,,,,,,,,,0,,,69,101
131220,control_change,0,0,1,,,,,,,,,0,64,0,,
131220,note_on,120,0,4,,,,,,,,,3,,,57,0
131220,note_on,0,0,1,,,,,,,,,0,,,57,101
131280,note_on,0,0,1,,,,,,,,,0,,,68,127
131280,note_on,0,0,1,,,,,,,,,0,,,60,0
131280,note_on,0,0,1,,,,,,,,,0,,,57,0
131280,note_on,0,0,1,,,,,,,,,0,,,64,119
131280,control_change,0,0,1,,,,,,,,,0,64,127,,
131280,control_change,0,0,1,,,,,,,,,0,64,127,,
131280,note_on,0,0,3,,,,,,,,,2,,,56,114
131280,note_on,0,0,3,,,,,,,,,2,,,52,106
131280,control_change,0,0,3,,,,,,,,,2,64,127,,
131280,control_change,1800,0,3,,,,,,,,,2,64,127,,
131280,note_on,60,0,1,,,,,,,,,0,,,69,0
131400,note_on,0,0,3,,,,,,,,,2,,,57,49
131400,note_on,0,0,3,,,,,,,,,2,,,54,49
131400,note_on,0,0,3,,,,,,,,,2,,,52,49
131400,note_on,0,0,3,,,,,,,,,2,,,52,0
131400,note_on,120,0,3,,,,,,,,,2,,,56,0
131400,note_on,0,0,1,,,,,,,,,0,,,64,0
131400,note_on,120,0,1,,,,,,,,,0,,,68,0
131400,note_on,0,0,1,,,,,,,,,0,,,66,49
131400,note_on,0,0,1,,,,,,,,,0,,,69,49
131406,note_on,0,0,3,,,,,,,,,2,,,54,0
131406,note_on,6,0,3,,,,,,,,,2,,,57,0
131406,note_on,0,0,3,,,,,,,,,2,,,52,0
131406,note_on,0,0,1,,,,,,,,,0,,,66,0
131406,note_on,6,0,1,,,,,,,,,0,,,69,0
131460,note_on,0,0,3,,,,,,,,,2,,,59,49
131460,note_on,0,0,3,,,,,,,,,2,,,52,49
131460,control_change,54,0,3,,,,,,,,,2,64,0,,
131460,control_change,54,0,1,,,,,,,,,0,64,0,,
131460,note_on,0,0,1,,,,,,,,,0,,,71,49
131460,note_on,0,0,1,,,,,,,,,0,,,68,49
131460,note_on,0,0,3,,,,,,,,,2,,,56,49
131580,note_on,120,0,1,,,,,,,,,0,,,71,0
131580,note_on,0,0,1,,,,,,,,,0,,,68,0
131580,note_on,120,0,3,,,,,,,,,2,,,59,0
131580,note_on,0,0,3,,,,,,,,,2,,,56,0
131580,note_on,0,0,3,,,,,,,,,2,,,52,0
131640,control_change,60,0,1,,,,,,,,,0,64,127,,
131640,control_change,60,0,3,,,,,,,,,2,64,127,,
131640,note_on,0,0,3,,,,,,,,,2,,,57,101
131640,note_on,0,0,3,,,,,,,,,2,,,61,101
131640,note_on,0,0,1,,,,,,,,,0,,,69,114
131640,note_on,0,0,1,,,,,,,,,0,,,73,114
131760,note_on,0,0,1,,,,,,,,,0,,,74,114
131760,note_on,0,0,3,,,,,,,,,2,,,62,101
131760,note_on,0,0,3,,,,,,,,,2,,,59,101
131760,note_on,120,0,1,,,,,,,,,0,,,73,0
131760,note_on,0,0,1,,,,,,,,,0,,,69,0
131760,note_on,0,0,1,,,,,,,,,0,,,68,114
131760,note_on,0,0,1,,,,,,,,,0,,,71,114
131760,note_on,120,0,3,,,,,,,,,2,,,61,0
131760,note_on,0,0,3,,,,,,,,,2,,,57,0
131760,note_on,0,0,3,,,,,,,,,2,,,57,101
131766,note_on,6,0,3,,,,,,,,,2,,,62,0
131766,note_on,0,0,3,,,,,,,,,2,,,59,0
131766,note_on,0,0,1,,,,,,,,,0,,,71,0
131766,note_on,6,0,1,,,,,,,,,0,,,74,0
131766,note_on,0,0,1,,,,,,,,,0,,,68,0
131766,note_on,0,0,3,,,,,,,,,2,,,57,0
131820,note_on,0,0,1,,,,,,,,,0,,,76,114
131820,note_on,0,0,3,,,,,,,,,2,,,64,101
131820,note_on,0,0,1,,,,,,,,,0,,,73,114
131820,note_on,0,0,1,,,,,,,,,0,,,69,114
131820,control_change,54,0,1,,,,,,,,,0,64,0,,
131820,note_on,0,0,3,,,,,,,,,2,,,57,101
131820,note_on,0,0,3,,,,,,,,,2,,,61,101
131820,control_change,54,0,3,,,,,,,,,2,64,0,,
131820,note_on,0,0,1,,,,,,,,,0,,,67,114
131940,note_on,0,0,1,,,,,,,,,0,,,73,0
131940,note_on,0,0,1,,,,,,,,,0,,,69,0
131940,note_on,0,0,1,,,,,,,,,0,,,67,0
131940,note_on,120,0,1,,,,,,,,,0,,,76,0
131940,note_on,0,0,3,,,,,,,,,2,,,57,0
131940,note_on,0,0,3,,,,,,,,,2,,,61,0
131940,note_on,120,0,3,,,,,,,,,2,,,64,0
132000,control_change,60,0,1,,,,,,,,,0,64,127,,
132000,note_on,0,0,1,,,,,,,,,0,,,69,114
132000,time_signature,1440,1,0,8,8,12,8,,,,,,,,,
132000,set_tempo,0,1,0,,,,,,625000,,,,,,,
132000,note_on,0,0,3,,,,,,,,,2,,,50,114
132000,note_on,0,0,3,,,,,,,,,2,,,57,114
132000,control_change,60,0,3,,,,,,,,,2,64,127,,
132000,note_on,0,0,3,,,,,,,,,2,,,62,114
132000,note_on,0,0,1,,,,,,,,,0,,,77,114
132000,note_on,0,0,1,,,,,,,,,0,,,74,114
132120,note_on,120,0,3,,,,,,,,,2,,,62,0
132120,note_on,0,0,1,,,,,,,,,0,,,79,114
132120,note_on,0,0,1,,,,,,,,,0,,,73,114
132120,note_on,0,0,1,,,,,,,,,0,,,69,114
132120,note_on,0,0,1,,,,,,,,,0,,,69,0
132120,note_on,0,0,1,,,,,,,,,0,,,74,0
132120,note_on,120,0,1,,,,,,,,,0,,,77,0
132120,note_on,0,0,3,,,,,,,,,2,,,64,114
132120,note_on,0,0,3,,,,,,,,,2,,,59,114
132120,note_on,0,0,3,,,,,,,,,2,,,52,114
132120,note_on,0,0,3,,,,,,,,,2,,,50,0
132120,note_on,0,0,3,,,,,,,,,2,,,57,0
132126,note_on,0,0,3,,,,,,,,,2,,,59,0
132126,note_on,6,0,3,,,,,,,,,2,,,64,0
132126,note_on,6,0,1,,,,,,,,,0,,,79,0
132126,note_on,0,0,1,,,,,,,,,0,,,73,0
132126,note_on,0,0,1,,,,,,,,,0,,,69,0
132126,note_on,0,0,3,,,,,,,,,2,,,52,0
132180,control_change,54,0,1,,,,,,,,,0,64,0,,
132180,note_on,0,0,1,,,,,,,,,0,,,69,114
132180,control_change,54,0,3,,,,,,,,,2,64,0,,
132180,note_on,0,0,1,,,,,,,,,0,,,81,114
132180,note_on,0,0,3,,,,,,,,,2,,,53,114
132180,note_on,0,0,3,,,,,,,,,2,,,57,114
132180,note_on,0,0,3,,,,,,,,,2,,,65,114
132180,note_on,0,0,1,,,,,,,,,0,,,74,114
132300,note_on,120,0,3,,,,,,,,,2,,,65,0
132300,note_on,0,0,3,,,,,,,,,2,,,57,0
132300,note_on,120,0,1,,,,,,,,,0,,,81,0
132300,note_on,0,0,1,,,,,,,,,0,,,69,0
132300,note_on,0,0,1,,,,,,,,,0,,,74,0
132300,note_on,0,0,3,,,,,,,,,2,,,53,0
132480,control_change,180,0,3,,,,,,,,,2,64,127,,
132480,note_on,1260,0,4,,,,,,,,,3,,,52,36
132480,note_on,0,0,1,,,,,,,,,0,,,76,49
132480,control_change,180,0,1,,,,,,,,,0,64,127,,
132480,time_signature,480,1,0,6,8,12,8,,,,,,,,,
132480,set_tempo,0,1,0,,,,,,500000,,,,,,,
132480,end_of_track,0,1,0,,,,,,,,,,,,,
132480,note_on,0,0,3,,,,,,,,,2,,,60,36
132660,note_on,180,0,3,,,,,,,,,2,,,60,0
132660,note_on,0,0,3,,,,,,,,,2,,,59,36
132660,note_on,0,0,1,,,,,,,,,0,,,77,49
132660,note_on,180,0,1,,,,,,,,,0,,,76,0
132780,note_on,120,0,3,,,,,,,,,2,,,59,0
132780,control_change,0,0,3,,,,,,,,,2,64,0,,
132780,note_on,0,0,3,,,,,,,,,2,,,62,36
132780,note_on,0,0,1,,,,,,,,,0,,,68,49
132780,control_change,0,0,1,,,,,,,,,0,64,0,,
132780,note_on,120,0,1,,,,,,,,,0,,,77,0
132840,note_on,360,0,4,,,,,,,,,3,,,52,0
132840,note_on,0,0,1,,,,,,,,,0,,,69,49
132840,control_change,0,0,1,,,,,,,,,0,64,127,,
132840,note_on,60,0,1,,,,,,,,,0,,,68,0
132840,note_on,0,0,3,,,,,,,,,2,,,60,36
132840,note_on,0,0,3,,,,,,,,,2,,,57,36
132840,note_on,60,0,3,,,,,,,,,2,,,62,0
132900,note_on,60,0,1,,,,,,,,,0,,,69,0
132900,note_on,0,0,1,,,,,,,,,0,,,72,49
132960,note_on,0,0,1,,,,,,,,,0,,,76,49
132960,note_on,0,0,3,,,,,,,,,2,,,57,0
132960,note_on,120,0,3,,,,,,,,,2,,,60,0
132960,note_on,60,0,1,,,,,,,,,0,,,72,0
133020,note_on,60,0,1,,,,,,,,,0,,,76,0
133020,note_on,0,0,1,,,,,,,,,0,,,81,49
133080,note_on,0,0,1,,,,,,,,,0,,,84,49
133080,note_on,60,0,1,,,,,,,,,0,,,81,0
133140,note_on,0,0,1,,,,,,,,,0,,,87,49
133140,control_change,0,0,1,,,,,,,,,0,64,0,,
133140,note_on,60,0,1,,,,,,,,,0,,,84,0
133200,note_on,0,0,3,,,,,,,,,2,,,72,36
133200,note_on,360,0,4,,,,,,,,,3,,,64,36
133200,note_on,0,0,1,,,,,,,,,0,,,88,49
133200,control_change,0,0,1,,,,,,,,,0,64,127,,
133200,note_on,60,0,1,,,,,,,,,0,,,87,0
133200,control_change,240,0,3,,,,,,,,,2,64,127,,
133380,note_on,180,0,1,,,,,,,,,0,,,88,0
133380,note_on,0,0,3,,,,,,,,,2,,,71,36
133380,note_on,180,0,3,,,,,,,,,2,,,72,0
133380,note_on,0,0,1,,,,,,,,,0,,,89,49
133500,note_on,120,0,1,,,,,,,,,0,,,89,0
133500,control_change,0,0,1,,,,,,,,,0,64,0,,
133500,note_on,0,0,1,,,,,,,,,0,,,80,49
133500,note_on,0,0,3,,,,,,,,,2,,,74,36
133500,note_on,120,0,3,,,,,,,,,2,,,71,0
133500,control_change,0,0,3,,,,,,,,,2,64,0,,
133560,note_on,0,0,3,,,,,,,,,2,,,72,36
133560,note_on,0,0,3,,,,,,,,,2,,,69,36
133560,control_change,0,0,3,,,,,,,,,2,64,127,,
133560,note_on,60,0,3,,,,,,,,,2,,,74,0
133560,note_on,360,0,4,,,,,,,,,3,,,64,0
133560,control_change,0,0,1,,,,,,,,,0,64,127,,
133560,note_on,60,0,1,,,,,,,,,0,,,80,0
133560,note_on,0,0,1,,,,,,,,,0,,,81,49
133680,note_on,0,0,3,,,,,,,,,2,,,69,0
133680,note_on,120,0,3,,,,,,,,,2,,,72,0
133680,note_on,120,0,1,,,,,,,,,0,,,81,0
133740,note_on,0,0,3,,,,,,,,,2,,,60,101
133740,note_on,60,0,3,,,,,,,,,2,,,57,101
133740,note_on,60,0,1,,,,,,,,,0,,,81,101
133740,note_on,0,0,1,,,,,,,,,0,,,84,101
133740,note_on,0,0,3,,,,,,,,,2,,,64,101
133740,note_on,0,0,1,,,,,,,,,0,,,88,101
133740,note_on,0,0,1,,,,,,,,,0,,,93,101
133740,note_on,0,0,3,,,,,,,,,2,,,69,101
133860,note_on,120,0,1,,,,,,,,,0,,,93,0
133860,note_on,0,0,1,,,,,,,,,0,,,81,0
133860,note_on,0,0,1,,,,,,,,,0,,,84,0
133860,note_on,0,0,1,,,,,,,,,0,,,88,0
133860,note_on,0,0,3,,,,,,,,,2,,,57,0
133860,note_on,120,0,3,,,,,,,,,2,,,69,0
133860,note_on,0,0,3,,,,,,,,,2,,,60,0
133860,note_on,0,0,3,,,,,,,,,2,,,64,0
133920,control_change,60,0,3,,,,,,,,,2,64,0,,
133920,note_on,0,0,3,,,,,,,,,2,,,33,101
133920,note_on,0,0,3,,,,,,,,,2,,,45,101
133920,note_on,0,0,1,,,,,,,,,0,,,69,101
133920,control_change,60,0,1,,,,,,,,,0,64,0,,
133920,note_on,0,0,1,,,,,,,,,0,,,57,101
133920,note_on,0,0,1,,,,,,,,,0,,,60,101
133920,note_on,0,0,1,,,,,,,,,0,,,64,101
134160,note_on,240,0,1,,,,,,,,,0,,,69,0
134160,note_on,0,0,1,,,,,,,,,0,,,57,0
134160,note_on,240,0,3,,,,,,,,,2,,,45,0
134160,note_on,0,0,3,,,,,,,,,2,,,33,0
134160,note_on,0,0,1,,,,,,,,,0,,,64,0
134160,note_on,0,0,1,,,,,,,,,0,,,60,0
134640,control_change,480,0,3,,,,,,,,,2,64,0,,
134640,control_change,480,0,1,,,,,,,,,0,64,0,,
134640,end_of_track,0,1,1,,,,,,,,,,,,,
134640,control_change,1080,0,4,,,,,,,,,3,64,0,,
134640,control_change,4080,0,2,,,,,,,,,1,64,0,,
134640,end_of_track,0,1,2,,,,,,,,,,,,,
134640,end_of_track,0,1,3,,,,,,,,,,,,,
134640,end_of_track,0,1,4,,,,,,,,,,,,,
