tick,type,time,meta,track,numerator,denominator,clocks_per_click,notated_32nd_notes_per_beat,key,tempo,port,program,channel,control,value,note,velocity
0,track_name,0,1,0,,,,,,,,,,,,,
0,control_change,0,0,2,,,,,,,,,1,7,127,,
0,control_change,0,0,2,,,,,,,,,1,10,97,,
0,track_name,0,1,1,,,,,,,,,,,,,
0,note_on,0,0,1,,,,,,,,,0,,,69,49
0,control_change,0,0,1,,,,,,,,,0,10,97,,
0,control_change,0,0,1,,,,,,,,,0,7,127,,
0,control_change,0,0,4,,,,,,,,,3,10,30,,
0,control_change,0,0,4,,,,,,,,,3,7,127,,
0,program_change,0,0,4,,,,,,,,0,3,,,,
0,track_name,0,1,4,,,,,,,,,,,,,
0,midi_port,0,1,4,,,,,,,0,,,,,,
0,midi_port,0,1,2,,,,,,,0,,,,,,
0,midi_port,0,1,3,,,,,,,0,,,,,,
0,track_name,0,1,3,,,,,,,,,,,,,
0,program_change,0,0,3,,,,,,,,0,2,,,,
0,control_change,0,0,3,,,,,,,,,2,7,127,,
0,control_change,0,0,3,,,,,,,,,2,10,30,,
0,note_on,0,0,3,,,,,,,,,2,,,57,36
0,midi_port,0,1,1,,,,,,,0,,,,,,
0,program_change,0,0,2,,,,,,,,0,1,,,,
0,track_name,0,1,2,,,,,,,,,,,,,
0,program_change,0,0,1,,,,,,,,0,0,,,,
0,copyright,0,1,0,,,,,,,,,,,,,
0,text,0,1,0,,,,,,,,,,,,,
0,time_signature,0,1,0,1,4,24,8,,,,,,,,,
0,key_signature,0,1,0,,,,,C,,,,,,,,
0,set_tempo,0,1,0,,,,,,277778,,,,,,,
60,note_on,0,0,1,,,,,,,,,0,,,69,49
60,note_on,60,0,1,,,,,,,,,0,,,69,0
60,note_on,0,0,3,,,,,,,,,2,,,57,36
60,note_on,60,0,3,,,,,,,,,2,,,57,0
120,note_on,0,0,1,,,,,,,,,0,,,68,49
120,note_on,0,0,1,,,,,,,,,0,,,71,49
120,note_on,0,0,1,,,,,,,,,0,,,64,49
120,note_on,60,0,1,,,,,,,,,0,,,69,0
120,time_signature,120,1,0,3,4,24,8,,,,,,,,,
120,note_on,60,0,3,,,,,,,,,2,,,57,0
120,note_on,0,0,3,,,,,,,,,2,,,52,36
360,note_on,240,0,3,,,,,,,,,2,,,52,0
360,note_on,0,0,3,,,,,,,,,2,,,57,36
360,note_on,0,0,1,,,,,,,,,0,,,69,49
360,note_on,0,0,1,,,,,,,,,0,,,64,0
360,note_on,0,0,1,,,,,,,,,0,,,68,0
360,note_on,240,0,1,,,,,,,,,0,,,71,0
420,note_on,0,0,3,,,,,,,,,2,,,57,36
420,note_on,60,0,3,,,,,,,,,2,,,57,0
420,note_on,0,0,1,,,,,,,,,0,,,69,49
420,note_on,60,0,1,,,,,,,,,0,,,69,0
480,note_on,60,0,3,,,,,,,,,2,,,57,0
480,note_on,0,0,3,,,,,,,,,2,,,52,36
480,note_on,0,0,1,,,,,,,,,0,,,71,49
480,note_on,0,0,1,,,,,,,,,0,,,64,49
480,note_on,0,0,1,,,,,,,,,0,,,68,49
480,note_on,60,0,1,,,,,,,,,0,,,69,0
720,note_on,0,0,1,,,,,,,,,0,,,64,0
720,note_on,0,0,1,,,,,,,,,0,,,69,49
720,note_on,240,0,1,,,,,,,,,0,,,71,0
720,note_on,0,0,1,,,,,,,,,0,,,68,0
720,note_on,240,0,3,,,,,,,,,2,,,52,0
720,note_on,0,0,3,,,,,,,,,2,,,57,36
780,note_on,60,0,3,,,,,,,,,2,,,57,0
780,note_on,0,0,3,,,,,,,,,2,,,57,36
780,note_on,0,0,1,,,,,,,,,0,,,69,49
780,note_on,60,0,1,,,,,,,,,0,,,69,0
840,note_on,60,0,3,,,,,,,,,2,,,57,0
840,note_on,0,0,1,,,,,,,,,0,,,68,49
840,note_on,0,0,3,,,,,,,,,2,,,52,36
840,note_on,0,0,1,,,,,,,,,0,,,71,49
840,note_on,0,0,1,,,,,,,,,0,,,64,49
840,note_on,60,0,1,,,,,,,,,0,,,69,0
960,note_on,120,0,1,,,,,,,,,0,,,71,0
960,note_on,0,0,1,,,,,,,,,0,,,68,0
960,note_on,0,0,1,,,,,,,,,0,,,64,49
960,note_on,0,0,1,,,,,,,,,0,,,72,49
960,note_on,120,0,3,,,,,,,,,2,,,52,0
960,note_on,0,0,3,,,,,,,,,2,,,57,36
960,note_on,0,0,1,,,,,,,,,0,,,69,49
960,note_on,0,0,1,,,,,,,,,0,,,64,0
972,note_on,12,0,1,,,,,,,,,0,,,72,0
972,note_on,0,0,1,,,,,,,,,0,,,69,0
972,note_on,0,0,1,,,,,,,,,0,,,64,0
972,note_on,12,0,3,,,,,,,,,2,,,57,0
1080,note_on,0,0,1,,,,,,,,,0,,,68,49
1080,note_on,108,0,1,,,,,,,,,0,,,64,49
1080,note_on,108,0,3,,,,,,,,,2,,,52,36
1080,note_on,0,0,1,,,,,,,,,0,,,71,49
1092,note_on,12,0,3,,,,,,,,,2,,,52,0
1092,note_on,12,0,1,,,,,,,,,0,,,71,0
1092,note_on,0,0,1,,,,,,,,,0,,,68,0
1092,note_on,0,0,1,,,,,,,,,0,,,64,0
1200,note_on,0,0,1,,,,,,,,,0,,,72,49
1200,note_on,108,0,1,,,,,,,,,0,,,64,49
1200,note_on,108,0,3,,,,,,,,,2,,,57,36
1200,note_on,0,0,1,,,,,,,,,0,,,69,49
1212,note_on,12,0,3,,,,,,,,,2,,,57,0
1212,note_on,0,0,1,,,,,,,,,0,,,64,0
1212,note_on,0,0,1,,,,,,,,,0,,,69,0
1212,note_on,12,0,1,,,,,,,,,0,,,72,0
1320,note_on,0,0,1,,,,,,,,,0,,,76,101
1320,note_on,108,0,1,,,,,,,,,0,,,64,101
1320,note_on,0,0,3,,,,,,,,,2,,,44,88
1320,note_on,108,0,3,,,,,,,,,2,,,32,88
1320,note_on,0,0,1,,,,,,,,,0,,,71,101
1560,note_on,0,0,3,,,,,,,,,2,,,33,88
1560,note_on,0,0,3,,,,,,,,,2,,,45,88
1560,note_on,0,0,1,,,,,,,,,0,,,72,101
1560,note_on,0,0,1,,,,,,,,,0,,,69,101
1560,note_on,0,0,1,,,,,,,,,0,,,64,101
1560,note_on,0,0,1,,,,,,,,,0,,,64,0
1560,note_on,0,0,1,,,,,,,,,0,,,71,0
1560,note_on,240,0,1,,,,,,,,,0,,,76,0
1560,note_on,0,0,3,,,,,,,,,2,,,32,0
1560,note_on,240,0,3,,,,,,,,,2,,,44,0
1680,note_on,120,0,1,,,,,,,,,0,,,72,0
1680,note_on,0,0,3,,,,,,,,,2,,,33,0
1680,note_on,0,0,1,,,,,,,,,0,,,64,0
1680,note_on,0,0,1,,,,,,,,,0,,,69,0
1680,note_on,120,0,3,,,,,,,,,2,,,45,0
1800,note_on,120,0,3,,,,,,,,,2,,,60,36
1800,note_on,0,0,3,,,,,,,,,2,,,64,36
1800,note_on,1800,0,2,,,,,,,,,1,,,67,36
1800,note_on,120,0,1,,,,,,,,,0,,,72,49
1860,note_on,0,0,1,,,,,,,,,0,,,72,49
1860,note_on,60,0,1,,,,,,,,,0,,,72,0
1920,note_on,0,0,3,,,,,,,,,2,,,59,36
1920,note_on,0,0,3,,,,,,,,,2,,,65,36
1920,note_on,0,0,1,,,,,,,,,0,,,74,75
1920,note_on,60,0,1,,,,,,,,,0,,,72,0
1920,note_on,0,0,3,,,,,,,,,2,,,60,0
1920,note_on,120,0,3,,,,,,,,,2,,,64,0
1920,note_on,120,0,2,,,,,,,,,1,,,67,0
1920,note_on,0,0,2,,,,,,,,,1,,,67,36
2160,note_on,0,0,1,,,,,,,,,0,,,72,49
2160,note_on,240,0,3,,,,,,,,,2,,,65,0
2160,note_on,0,0,3,,,,,,,,,2,,,59,0
2160,note_on,0,0,3,,,,,,,,,2,,,60,36
2160,note_on,0,0,3,,,,,,,,,2,,,64,36
2160,note_on,240,0,1,,,,,,,,,0,,,74,0
2160,note_on,240,0,2,,,,,,,,,1,,,67,0
2160,note_on,0,0,2,,,,,,,,,1,,,67,36
2220,note_on,60,0,1,,,,,,,,,0,,,72,0
2220,note_on,0,0,1,,,,,,,,,0,,,72,49
2280,note_on,0,0,1,,,,,,,,,0,,,74,75
2280,note_on,60,0,1,,,,,,,,,0,,,72,0
2280,note_on,0,0,3,,,,,,,,,2,,,65,36
2280,note_on,0,0,2,,,,,,,,,1,,,67,36
2280,note_on,120,0,2,,,,,,,,,1,,,67,0
2280,note_on,0,0,3,,,,,,,,,2,,,59,36
2280,note_on,0,0,3,,,,,,,,,2,,,60,0
2280,note_on,120,0,3,,,,,,,,,2,,,64,0
2520,note_on,240,0,1,,,,,,,,,0,,,74,0
2520,note_on,0,0,1,,,,,,,,,0,,,72,49
2520,note_on,0,0,2,,,,,,,,,1,,,67,36
2520,note_on,240,0,3,,,,,,,,,2,,,65,0
2520,note_on,0,0,3,,,,,,,,,2,,,59,0
2520,note_on,0,0,3,,,,,,,,,2,,,60,36
2520,note_on,0,0,3,,,,,,,,,2,,,64,36
2520,note_on,240,0,2,,,,,,,,,1,,,67,0
2580,note_on,60,0,1,,,,,,,,,0,,,72,0
2580,note_on,0,0,1,,,,,,,,,0,,,72,49
2640,note_on,0,0,3,,,,,,,,,2,,,65,36
2640,note_on,0,0,3,,,,,,,,,2,,,59,36
2640,note_on,0,0,3,,,,,,,,,2,,,60,0
2640,note_on,120,0,3,,,,,,,,,2,,,64,0
2640,note_on,60,0,1,,,,,,,,,0,,,72,0
2640,note_on,120,0,2,,,,,,,,,1,,,67,0
2640,note_on,0,0,1,,,,,,,,,0,,,74,49
2640,note_on,0,0,2,,,,,,,,,1,,,67,36
2880,note_on,240,0,3,,,,,,,,,2,,,65,0
2880,note_on,0,0,3,,,,,,,,,2,,,59,0
2880,note_on,0,0,3,,,,,,,,,2,,,58,36
2880,note_on,0,0,3,,,,,,,,,2,,,60,36
2880,note_on,0,0,3,,,,,,,,,2,,,67,36
2880,note_on,0,0,1,,,,,,,,,0,,,76,49
2880,note_on,240,0,2,,,,,,,,,1,,,67,0
2880,note_on,0,0,2,,,,,,,,,1,,,72,36
2880,note_on,240,0,1,,,,,,,,,0,,,74,0
2940,note_on,60,0,1,,,,,,,,,0,,,76,0
2940,note_on,0,0,1,,,,,,,,,0,,,76,49
3000,note_on,60,0,1,,,,,,,,,0,,,76,0
3000,note_on,0,0,3,,,,,,,,,2,,,58,0
3000,note_on,0,0,3,,,,,,,,,2,,,57,36
3000,note_on,0,0,3,,,,,,,,,2,,,65,36
3000,note_on,120,0,3,,,,,,,,,2,,,67,0
3000,note_on,0,0,1,,,,,,,,,0,,,79,49
3000,note_on,120,0,2,,,,,,,,,1,,,72,0
3000,note_on,0,0,2,,,,,,,,,1,,,72,36
3060,note_on,0,0,1,,,,,,,,,0,,,77,49
3060,note_on,60,0,1,,,,,,,,,0,,,79,0
3120,note_on,0,0,1,,,,,,,,,0,,,76,49
3120,note_on,60,0,1,,,,,,,,,0,,,77,0
3120,note_on,120,0,2,,,,,,,,,1,,,72,0
3120,note_on,0,0,2,,,,,,,,,1,,,72,36
3120,note_on,0,0,3,,,,,,,,,2,,,67,36
3120,note_on,0,0,3,,,,,,,,,2,,,55,36
3120,note_on,0,0,3,,,,,,,,,2,,,60,0
3120,note_on,0,0,3,,,,,,,,,2,,,57,0
3120,note_on,120,0,3,,,,,,,,,2,,,65,0
3132,note_on,12,0,2,,,,,,,,,1,,,72,0
3132,note_on,0,0,3,,,,,,,,,2,,,55,0
3132,note_on,12,0,1,,,,,,,,,0,,,76,0
3132,note_on,12,0,3,,,,,,,,,2,,,67,0
3240,note_on,108,0,1,,,,,,,,,0,,,74,49
3240,note_on,108,0,3,,,,,,,,,2,,,55,36
3240,note_on,0,0,3,,,,,,,,,2,,,65,36
3240,note_on,108,0,2,,,,,,,,,1,,,71,36
3252,note_on,12,0,3,,,,,,,,,2,,,65,0
3252,note_on,0,0,3,,,,,,,,,2,,,55,0
3252,note_on,12,0,2,,,,,,,,,1,,,71,0
3252,note_on,12,0,1,,,,,,,,,0,,,74,0
3360,note_on,108,0,1,,,,,,,,,0,,,72,49
3360,note_on,0,0,3,,,,,,,,,2,,,64,36
3360,note_on,108,0,3,,,,,,,,,2,,,60,36
3372,note_on,0,0,3,,,,,,,,,2,,,60,0
3372,note_on,12,0,1,,,,,,,,,0,,,72,0
3372,note_on,12,0,3,,,,,,,,,2,,,64,0
3480,note_on,108,0,3,,,,,,,,,2,,,52,75
3480,note_on,0,0,3,,,,,,,,,2,,,64,75
3480,note_on,108,0,1,,,,,,,,,0,,,67,88
3480,note_on,0,0,1,,,,,,,,,0,,,79,88
3720,note_on,240,0,1,,,,,,,,,0,,,79,0
3720,note_on,0,0,1,,,,,,,,,0,,,67,0
3720,note_on,0,0,1,,,,,,,,,0,,,76,88
3720,note_on,0,0,3,,,,,,,,,2,,,60,75
3720,note_on,0,0,3,,,,,,,,,2,,,52,0
3720,note_on,0,0,3,,,,,,,,,2,,,48,75
3720,note_on,240,0,3,,,,,,,,,2,,,64,0
3720,note_on,0,0,1,,,,,,,,,0,,,64,88
3732,note_on,12,0,3,,,,,,,,,2,,,60,0
3732,note_on,0,0,3,,,,,,,,,2,,,48,0
3732,note_on,0,0,1,,,,,,,,,0,,,64,0
3732,note_on,12,0,1,,,,,,,,,0,,,76,0
3840,note_on,0,0,1,,,,,,,,,0,,,72,88
3840,note_on,0,0,3,,,,,,,,,2,,,57,75
3840,note_on,108,0,3,,,,,,,,,2,,,45,75
3840,note_on,108,0,1,,,,,,,,,0,,,60,88
3852,note_on,12,0,1,,,,,,,,,0,,,72,0
3852,note_on,0,0,1,,,,,,,,,0,,,60,0
3852,note_on,12,0,3,,,,,,,,,2,,,57,0
3852,note_on,0,0,3,,,,,,,,,2,,,45,0
3960,note_on,108,0,3,,,,,,,,,2,,,41,75
3960,note_on,108,0,1,,,,,,,,,0,,,57,88
3960,note_on,0,0,1,,,,,,,,,0,,,69,88
3960,note_on,0,0,3,,,,,,,,,2,,,53,75
3972,note_on,12,0,3,,,,,,,,,2,,,53,0
3972,note_on,0,0,3,,,,,,,,,2,,,41,0
3972,note_on,12,0,1,,,,,,,,,0,,,69,0
3972,note_on,0,0,1,,,,,,,,,0,,,57,0
4080,note_on,108,0,3,,,,,,,,,2,,,38,75
4080,note_on,0,0,3,,,,,,,,,2,,,50,75
4080,note_on,108,0,1,,,,,,,,,0,,,53,88
4080,note_on,0,0,1,,,,,,,,,0,,,65,88
4092,note_on,12,0,1,,,,,,,,,0,,,65,0
4092,note_on,0,0,1,,,,,,,,,0,,,53,0
4092,note_on,0,0,3,,,,,,,,,2,,,38,0
4092,note_on,12,0,3,,,,,,,,,2,,,50,0
4200,note_on,0,0,1,,,,,,,,,0,,,81,88
4200,note_on,0,0,1,,,,,,,,,0,,,77,88
4200,note_on,0,0,1,,,,,,,,,0,,,74,88
4200,note_on,0,0,1,,,,,,,,,0,,,69,88
4200,control_change,108,0,1,,,,,,,,,0,64,127,,
4200,note_on,0,0,3,,,,,,,,,2,,,47,75
4200,note_on,0,0,3,,,,,,,,,2,,,35,75
4200,control_change,108,0,3,,,,,,,,,2,64,127,,
4440,note_on,0,0,3,,,,,,,,,2,,,59,75
4440,note_on,0,0,3,,,,,,,,,2,,,35,0
4440,note_on,240,0,3,,,,,,,,,2,,,47,0
4440,note_on,0,0,3,,,,,,,,,2,,,65,75
4440,note_on,0,0,3,,,,,,,,,2,,,69,75
4440,note_on,0,0,1,,,,,,,,,0,,,81,88
4440,note_on,0,0,1,,,,,,,,,0,,,77,0
4440,note_on,240,0,1,,,,,,,,,0,,,81,0
4440,note_on,0,0,1,,,,,,,,,0,,,86,88
4440,note_on,0,0,1,,,,,,,,,0,,,77,88
4440,note_on,0,0,1,,,,,,,,,0,,,69,0
4440,note_on,0,0,1,,,,,,,,,0,,,74,0
4980,note_on,0,0,1,,,,,,,,,0,,,84,49
4980,note_on,0,0,1,,,,,,,,,0,,,77,0
4980,note_on,0,0,1,,,,,,,,,0,,,81,0
4980,note_on,540,0,1,,,,,,,,,0,,,86,0
5040,note_on,0,0,1,,,,,,,,,0,,,83,49
5040,note_on,60,0,1,,,,,,,,,0,,,84,0
5100,control_change,0,0,1,,,,,,,,,0,64,0,,
5100,note_on,60,0,1,,,,,,,,,0,,,83,0
5100,note_on,0,0,1,,,,,,,,,0,,,81,49
5160,note_on,720,0,3,,,,,,,,,2,,,69,0
5160,note_on,0,0,3,,,,,,,,,2,,,65,0
5160,note_on,0,0,3,,,,,,,,,2,,,59,0
5160,note_on,0,0,3,,,,,,,,,2,,,67,36
5160,note_on,0,0,3,,,,,,,,,2,,,64,36
5160,note_on,0,0,3,,,,,,,,,2,,,60,36
5160,control_change,0,0,3,,,,,,,,,2,64,0,,
5160,note_on,0,0,1,,,,,,,,,0,,,79,49
5160,note_on,60,0,1,,,,,,,,,0,,,81,0
5220,note_on,60,0,3,,,,,,,,,2,,,67,0
5220,note_on,0,0,3,,,,,,,,,2,,,64,0
5220,note_on,0,0,3,,,,,,,,,2,,,60,0
5220,note_on,60,0,1,,,,,,,,,0,,,79,0
5280,control_change,60,0,1,,,,,,,,,0,64,127,,
5280,note_on,0,0,1,,,,,,,,,0,,,91,49
5280,note_on,0,0,3,,,,,,,,,2,,,76,54
5280,control_change,60,0,3,,,,,,,,,2,64,127,,
5280,note_on,0,0,3,,,,,,,,,2,,,79,62
5460,note_on,180,0,1,,,,,,,,,0,,,91,0
5460,note_on,0,0,1,,,,,,,,,0,,,88,49
5520,note_on,240,0,3,,,,,,,,,2,,,79,0
5520,note_on,0,0,3,,,,,,,,,2,,,76,0
5520,note_on,0,0,3,,,,,,,,,2,,,76,36
5520,note_on,0,0,1,,,,,,,,,0,,,88,49
5520,note_on,60,0,1,,,,,,,,,0,,,88,0
5520,note_on,0,0,3,,,,,,,,,2,,,72,36
5532,note_on,12,0,3,,,,,,,,,2,,,76,0
5532,note_on,0,0,3,,,,,,,,,2,,,72,0
5580,note_on,0,0,1,,,,,,,,,0,,,84,49
5580,note_on,60,0,1,,,,,,,,,0,,,88,0
5640,note_on,0,0,1,,,,,,,,,0,,,84,49
5640,note_on,0,0,3,,,,,,,,,2,,,72,36
5640,note_on,60,0,1,,,,,,,,,0,,,84,0
5640,note_on,108,0,3,,,,,,,,,2,,,69,36
5652,note_on,0,0,3,,,,,,,,,2,,,69,0
5652,note_on,12,0,3,,,,,,,,,2,,,72,0
5700,note_on,60,0,1,,,,,,,,,0,,,84,0
5700,note_on,0,0,1,,,,,,,,,0,,,81,49
5760,note_on,0,0,3,,,,,,,,,2,,,69,36
5760,note_on,0,0,3,,,,,,,,,2,,,65,36
5760,control_change,108,0,3,,,,,,,,,2,64,0,,
5760,note_on,0,0,1,,,,,,,,,0,,,81,49
5760,control_change,0,0,1,,,,,,,,,0,64,0,,
5760,note_on,60,0,1,,,,,,,,,0,,,81,0
5772,note_on,12,0,3,,,,,,,,,2,,,69,0
5772,note_on,0,0,3,,,,,,,,,2,,,65,0
5820,note_on,0,0,1,,,,,,,,,0,,,77,49
5820,note_on,60,0,1,,,,,,,,,0,,,81,0
5880,note_on,108,0,3,,,,,,,,,2,,,62,36
5880,note_on,0,0,1,,,,,,,,,0,,,77,49
5880,note_on,60,0,1,,,,,,,,,0,,,77,0
5880,note_on,0,0,3,,,,,,,,,2,,,65,36
5940,note_on,0,0,3,,,,,,,,,2,,,62,0
5940,note_on,60,0,3,,,,,,,,,2,,,65,0
5940,note_on,60,0,1,,,,,,,,,0,,,77,0
6000,note_on,0,0,1,,,,,,,,,0,,,75,70
6000,note_on,0,0,3,,,,,,,,,2,,,68,62
6000,note_on,0,0,3,,,,,,,,,2,,,63,57
6000,note_on,60,0,3,,,,,,,,,2,,,60,52
6000,note_on,0,0,1,,,,,,,,,0,,,80,75
6000,note_on,60,0,1,,,,,,,,,0,,,72,65
6600,note_on,600,0,1,,,,,,,,,0,,,80,0
6600,note_on,0,0,1,,,,,,,,,0,,,74,49
6600,note_on,0,0,1,,,,,,,,,0,,,72,0
6600,note_on,0,0,1,,,,,,,,,0,,,75,0
6600,note_on,6600,0,4,,,,,,,,,3,,,59,64
6600,control_change,0,0,1,,,,,,,,,0,64,127,,
6600,note_on,0,0,4,,,,,,,,,3,,,67,64
6600,note_on,0,0,2,,,,,,,,,1,,,79,36
6600,note_on,600,0,3,,,,,,,,,2,,,68,0
6600,note_on,0,0,3,,,,,,,,,2,,,63,0
6600,note_on,0,0,3,,,,,,,,,2,,,60,0
6600,control_change,0,0,3,,,,,,,,,2,64,127,,
6600,note_on,0,0,3,,,,,,,,,2,,,74,36
6600,note_on,3348,0,2,,,,,,,,,1,,,71,36
6660,note_on,0,0,3,,,,,,,,,2,,,76,36
6660,note_on,60,0,1,,,,,,,,,0,,,74,0
6660,note_on,0,0,1,,,,,,,,,0,,,76,49
6660,note_on,60,0,3,,,,,,,,,2,,,74,0
6720,note_on,60,0,1,,,,,,,,,0,,,76,0
6720,note_on,0,0,1,,,,,,,,,0,,,77,62
6720,note_on,0,0,3,,,,,,,,,2,,,77,49
6720,note_on,60,0,3,,,,,,,,,2,,,76,0
6780,note_on,0,0,3,,,,,,,,,2,,,76,49
6780,note_on,60,0,3,,,,,,,,,2,,,77,0
6780,note_on,0,0,1,,,,,,,,,0,,,76,62
6780,note_on,60,0,1,,,,,,,,,0,,,77,0
6840,note_on,0,0,3,,,,,,,,,2,,,74,62
6840,note_on,60,0,3,,,,,,,,,2,,,76,0
6840,note_on,60,0,1,,,,,,,,,0,,,76,0
6840,note_on,0,0,1,,,,,,,,,0,,,74,75
6900,control_change,0,0,1,,,,,,,,,0,64,0,,
6900,note_on,0,0,1,,,,,,,,,0,,,76,75
6900,note_on,0,0,3,,,,,,,,,2,,,76,62
6900,control_change,0,0,3,,,,,,,,,2,64,0,,
6900,note_on,60,0,3,,,,,,,,,2,,,74,0
6900,note_on,60,0,1,,,,,,,,,0,,,74,0
6960,note_on,60,0,1,,,,,,,,,0,,,76,0
6960,note_on,360,0,2,,,,,,,,,1,,,77,96
6960,note_on,60,0,3,,,,,,,,,2,,,76,0
6960,note_on,360,0,4,,,,,,,,,3,,,65,75
7200,note_on,240,0,2,,,,,,,,,1,,,77,0
7200,note_on,0,0,4,,,,,,,,,3,,,60,75
7200,note_on,0,0,4,,,,,,,,,3,,,59,0
7200,note_on,240,0,4,,,,,,,,,3,,,65,0
7200,note_on,0,0,2,,,,,,,,,1,,,71,0
7200,note_on,0,0,2,,,,,,,,,1,,,72,75
7200,note_on,0,0,4,,,,,,,,,3,,,64,75
7200,note_on,0,0,2,,,,,,,,,1,,,76,75
7320,note_on,120,0,2,,,,,,,,,1,,,76,0
7320,note_on,120,0,4,,,,,,,,,3,,,64,0
7320,note_on,0,0,4,,,,,,,,,3,,,53,36
7320,note_on,0,0,4,,,,,,,,,3,,,67,0
7320,note_on,0,0,4,,,,,,,,,3,,,60,0
7320,note_on,0,0,2,,,,,,,,,1,,,72,0
7320,note_on,0,0,2,,,,,,,,,1,,,79,0
7320,note_on,0,0,2,,,,,,,,,1,,,69,36
7320,note_on,0,0,2,,,,,,,,,1,,,74,36
7320,note_on,360,0,1,,,,,,,,,0,,,79,49
7332,note_on,12,0,4,,,,,,,,,3,,,53,0
7380,note_on,0,0,1,,,,,,,,,0,,,77,49
7380,note_on,60,0,1,,,,,,,,,0,,,79,0
7440,note_on,108,0,4,,,,,,,,,3,,,55,36
7440,note_on,120,0,2,,,,,,,,,1,,,74,0
7440,note_on,0,0,2,,,,,,,,,1,,,72,36
7440,note_on,0,0,2,,,,,,,,,1,,,69,0
7440,note_on,0,0,2,,,,,,,,,1,,,67,36
7440,note_on,0,0,1,,,,,,,,,0,,,77,49
7440,note_on,60,0,1,,,,,,,,,0,,,77,0
7452,note_on,12,0,4,,,,,,,,,3,,,55,0
7500,note_on,0,0,1,,,,,,,,,0,,,76,49
7500,note_on,60,0,1,,,,,,,,,0,,,77,0
7560,note_on,0,0,2,,,,,,,,,1,,,71,36
7560,note_on,108,0,4,,,,,,,,,3,,,55,36
7560,note_on,60,0,1,,,,,,,,,0,,,76,0
7560,note_on,120,0,2,,,,,,,,,1,,,72,0
7560,note_on,0,0,1,,,,,,,,,0,,,76,49
7560,note_on,0,0,2,,,,,,,,,1,,,65,36
7560,note_on,0,0,2,,,,,,,,,1,,,67,0
7572,note_on,12,0,4,,,,,,,,,3,,,55,0
7620,note_on,0,0,1,,,,,,,,,0,,,74,49
7620,note_on,60,0,1,,,,,,,,,0,,,76,0
7680,note_on,0,0,1,,,,,,,,,0,,,72,49
7680,note_on,0,0,4,,,,,,,,,3,,,55,36
7680,note_on,108,0,4,,,,,,,,,3,,,48,36
7680,note_on,0,0,1,,,,,,,,,0,,,64,49
7680,note_on,60,0,1,,,,,,,,,0,,,74,0
7680,note_on,0,0,2,,,,,,,,,1,,,65,0
7680,note_on,120,0,2,,,,,,,,,1,,,71,0
7920,note_on,0,0,4,,,,,,,,,3,,,64,36
7920,note_on,0,0,1,,,,,,,,,0,,,64,0
7920,note_on,240,0,1,,,,,,,,,0,,,72,0
7920,note_on,0,0,4,,,,,,,,,3,,,48,0
7920,note_on,0,0,1,,,,,,,,,0,,,79,36
7920,note_on,240,0,4,,,,,,,,,3,,,55,0
7980,note_on,60,0,4,,,,,,,,,3,,,64,0
7980,note_on,0,0,4,,,,,,,,,3,,,64,36
7980,note_on,60,0,1,,,,,,,,,0,,,79,0
7980,note_on,0,0,1,,,,,,,,,0,,,79,36
8040,note_on,60,0,1,,,,,,,,,0,,,79,0
8040,control_change,0,0,1,,,,,,,,,0,64,127,,
8040,note_on,0,0,1,,,,,,,,,0,,,67,36
8040,note_on,0,0,4,,,,,,,,,3,,,52,36
8040,control_change,0,0,4,,,,,,,,,3,64,127,,
8040,note_on,60,0,4,,,,,,,,,3,,,64,0
8280,note_on,0,0,4,,,,,,,,,3,,,64,36
8280,note_on,240,0,1,,,,,,,,,0,,,67,0
8280,note_on,0,0,1,,,,,,,,,0,,,79,36
8280,note_on,240,0,4,,,,,,,,,3,,,52,0
8340,note_on,60,0,1,,,,,,,,,0,,,79,0
8340,control_change,0,0,1,,,,,,,,,0,64,0,,
8340,note_on,0,0,1,,,,,,,,,0,,,79,36
8340,control_change,0,0,4,,,,,,,,,3,64,0,,
8340,note_on,60,0,4,,,,,,,,,3,,,64,0
8340,note_on,0,0,4,,,,,,,,,3,,,64,36
8400,note_on,60,0,1,,,,,,,,,0,,,79,0
8400,note_on,0,0,4,,,,,,,,,3,,,53,36
8400,control_change,0,0,4,,,,,,,,,3,64,127,,
8400,note_on,60,0,4,,,,,,,,,3,,,64,0
8400,control_change,0,0,1,,,,,,,,,0,64,127,,
8400,note_on,0,0,1,,,,,,,,,0,,,69,36
8640,note_on,240,0,1,,,,,,,,,0,,,69,0
8640,note_on,0,0,4,,,,,,,,,3,,,64,36
8640,note_on,240,0,4,,,,,,,,,3,,,53,0
8640,note_on,0,0,1,,,,,,,,,0,,,79,36
8700,note_on,0,0,4,,,,,,,,,3,,,64,36
8700,control_change,0,0,4,,,,,,,,,3,64,0,,
8700,note_on,60,0,4,,,,,,,,,3,,,64,0
8700,note_on,60,0,1,,,,,,,,,0,,,79,0
8700,control_change,0,0,1,,,,,,,,,0,64,0,,
8700,note_on,0,0,1,,,,,,,,,0,,,79,36
8760,note_on,60,0,1,,,,,,,,,0,,,79,0
8760,note_on,0,0,1,,,,,,,,,0,,,71,36
8760,note_on,60,0,4,,,,,,,,,3,,,64,0
8760,note_on,0,0,4,,,,,,,,,3,,,55,36
8820,note_on,0,0,4,,,,,,,,,3,,,65,36
8820,note_on,60,0,4,,,,,,,,,3,,,55,0
8820,note_on,0,0,1,,,,,,,,,0,,,79,36
8820,note_on,60,0,1,,,,,,,,,0,,,71,0
8880,note_on,60,0,1,,,,,,,,,0,,,79,0
8880,note_on,0,0,4,,,,,,,,,3,,,57,36
8880,note_on,60,0,4,,,,,,,,,3,,,65,0
8880,note_on,0,0,1,,,,,,,,,0,,,72,36
8940,note_on,60,0,1,,,,,,,,,0,,,72,0
8940,note_on,0,0,4,,,,,,,,,3,,,65,36
8940,note_on,60,0,4,,,,,,,,,3,,,57,0
8940,note_on,0,0,1,,,,,,,,,0,,,79,36
9000,note_on,0,0,4,,,,,,,,,3,,,59,36
9000,note_on,60,0,4,,,,,,,,,3,,,65,0
9000,note_on,0,0,1,,,,,,,,,0,,,74,36
9000,note_on,60,0,1,,,,,,,,,0,,,79,0
9060,note_on,0,0,1,,,,,,,,,0,,,79,36
9060,note_on,60,0,1,,,,,,,,,0,,,74,0
9060,note_on,60,0,4,,,,,,,,,3,,,59,0
9060,note_on,0,0,4,,,,,,,,,3,,,65,36
9120,note_on,60,0,1,,,,,,,,,0,,,79,0
9120,note_on,2160,0,3,,,,,,,,,2,,,60,62
9120,note_on,0,0,1,,,,,,,,,0,,,76,36
9120,note_on,60,0,4,,,,,,,,,3,,,65,0
9180,note_on,60,0,3,,,,,,,,,2,,,60,0
9180,note_on,0,0,3,,,,,,,,,2,,,64,62
9180,note_on,60,0,1,,,,,,,,,0,,,76,0
9180,note_on,0,0,1,,,,,,,,,0,,,79,36
9240,note_on,0,0,3,,,,,,,,,2,,,59,62
9240,note_on,60,0,3,,,,,,,,,2,,,64,0
9240,note_on,60,0,1,,,,,,,,,0,,,79,0
9240,note_on,0,0,1,,,,,,,,,0,,,74,36
9300,note_on,0,0,1,,,,,,,,,0,,,80,36
9300,note_on,60,0,1,,,,,,,,,0,,,74,0
9300,note_on,60,0,3,,,,,,,,,2,,,59,0
9300,note_on,0,0,3,,,,,,,,,2,,,64,62
9360,note_on,0,0,1,,,,,,,,,0,,,72,49
9360,note_on,60,0,3,,,,,,,,,2,,,64,0
9360,note_on,0,0,3,,,,,,,,,2,,,57,62
9360,note_on,60,0,1,,,,,,,,,0,,,80,0
9420,note_on,0,0,1,,,,,,,,,0,,,81,49
9420,note_on,60,0,3,,,,,,,,,2,,,57,0
9420,note_on,60,0,1,,,,,,,,,0,,,72,0
9420,note_on,0,0,3,,,,,,,,,2,,,64,62
9480,note_on,60,0,1,,,,,,,,,0,,,81,0
9480,note_on,0,0,1,,,,,,,,,0,,,81,62
9480,note_on,0,0,3,,,,,,,,,2,,,53,49
9480,note_on,60,0,3,,,,,,,,,2,,,64,0
9540,note_on,0,0,1,,,,,,,,,0,,,86,62
9540,note_on,60,0,1,,,,,,,,,0,,,81,0
9540,note_on,0,0,3,,,,,,,,,2,,,62,49
9540,note_on,60,0,3,,,,,,,,,2,,,53,0
9600,note_on,60,0,1,,,,,,,,,0,,,86,0
9600,note_on,0,0,1,,,,,,,,,0,,,83,75
9600,note_on,60,0,3,,,,,,,,,2,,,62,0
9600,note_on,0,0,3,,,,,,,,,2,,,55,62
9660,note_on,60,0,3,,,,,,,,,2,,,55,0
9660,note_on,0,0,3,,,,,,,,,2,,,64,62
9660,note_on,60,0,1,,,,,,,,,0,,,83,0
9660,note_on,0,0,1,,,,,,,,,0,,,88,75
9720,note_on,0,0,3,,,,,,,,,2,,,55,75
9720,note_on,60,0,1,,,,,,,,,0,,,88,0
9720,note_on,0,0,1,,,,,,,,,0,,,83,88
9720,note_on,60,0,3,,,,,,,,,2,,,64,0
9780,note_on,60,0,3,,,,,,,,,2,,,55,0
9780,note_on,0,0,3,,,,,,,,,2,,,65,75
9780,note_on,60,0,1,,,,,,,,,0,,,83,0
9780,note_on,0,0,1,,,,,,,,,0,,,91,88
9840,note_on,60,0,3,,,,,,,,,2,,,65,0
9840,note_on,0,0,3,,,,,,,,,2,,,60,75
9840,note_on,0,0,3,,,,,,,,,2,,,64,75
9840,time_signature,9720,1,0,2,4,24,8,,,,,,,,,
9840,note_on,0,0,1,,,,,,,,,0,,,84,88
9840,note_on,60,0,1,,,,,,,,,0,,,91,0
9960,note_on,120,0,1,,,,,,,,,0,,,84,0
9960,note_on,0,0,3,,,,,,,,,2,,,60,0
9960,note_on,120,0,3,,,,,,,,,2,,,64,0
10080,note_on,120,0,3,,,,,,,,,2,,,57,36
10080,note_on,120,0,1,,,,,,,,,0,,,69,49
10080,time_signature,240,1,0,1,4,24,8,,,,,,,,,
10140,note_on,0,0,3,,,,,,,,,2,,,57,36
10140,note_on,60,0,1,,,,,,,,,0,,,69,0
10140,note_on,0,0,1,,,,,,,,,0,,,69,49
10140,note_on,60,0,3,,,,,,,,,2,,,57,0
10200,note_on,60,0,3,,,,,,,,,2,,,57,0
10200,note_on,0,0,1,,,,,,,,,0,,,68,49
10200,note_on,0,0,1,,,,,,,,,0,,,71,49
10200,time_signature,120,1,0,3,4,24,8,,,,,,,,,
10200,note_on,0,0,1,,,,,,,,,0,,,64,49
10200,note_on,0,0,3,,,,,,,,,2,,,52,36
10200,note_on,60,0,1,,,,,,,,,0,,,69,0
10440,note_on,240,0,3,,,,,,,,,2,,,52,0
10440,note_on,0,0,1,,,,,,,,,0,,,69,49
10440,note_on,0,0,1,,,,,,,,,0,,,68,0
10440,note_on,240,0,1,,,,,,,,,0,,,71,0
10440,note_on,0,0,3,,,,,,,,,2,,,57,36
10440,note_on,0,0,1,,,,,,,,,0,,,64,0
10500,note_on,0,0,1,,,,,,,,,0,,,69,49
10500,note_on,60,0,1,,,,,,,,,0,,,69,0
10500,note_on,0,0,3,,,,,,,,,2,,,57,36
10500,note_on,60,0,3,,,,,,,,,2,,,57,0
10560,note_on,0,0,3,,,,,,,,,2,,,52,36
10560,note_on,60,0,1,,,,,,,,,0,,,69,0
10560,note_on,0,0,1,,,,,,,,,0,,,64,49
10560,note_on,0,0,1,,,,,,,,,0,,,68,49
10560,note_on,0,0,1,,,,,,,,,0,,,71,49
10560,note_on,60,0,3,,,,,,,,,2,,,57,0
10800,note_on,240,0,3,,,,,,,,,2,,,52,0
10800,note_on,240,0,1,,,,,,,,,0,,,71,0
10800,note_on,0,0,1,,,,,,,,,0,,,68,0
10800,note_on,0,0,1,,,,,,,,,0,,,64,0
10800,note_on,0,0,3,,,,,,,,,2,,,57,36
10800,note_on,0,0,1,,,,,,,,,0,,,69,49
10860,note_on,60,0,1,,,,,,,,,0,,,69,0
10860,note_on,0,0,3,,,,,,,,,2,,,57,36
10860,note_on,60,0,3,,,,,,,,,2,,,57,0
10860,note_on,0,0,1,,,,,,,,,0,,,69,49
10920,note_on,60,0,3,,,,,,,,,2,,,57,0
10920,note_on,0,0,3,,,,,,,,,2,,,52,36
10920,note_on,0,0,1,,,,,,,,,0,,,71,49
10920,note_on,0,0,1,,,,,,,,,0,,,68,49
10920,note_on,0,0,1,,,,,,,,,0,,,64,49
10920,note_on,60,0,1,,,,,,,,,0,,,69,0
11040,note_on,0,0,1,,,,,,,,,0,,,69,49
11040,note_on,0,0,1,,,,,,,,,0,,,64,49
11040,note_on,0,0,1,,,,,,,,,0,,,64,0
11040,note_on,0,0,1,,,,,,,,,0,,,68,0
11040,note_on,120,0,1,,,,,,,,,0,,,71,0
11040,note_on,0,0,1,,,,,,,,,0,,,72,49
11040,note_on,120,0,3,,,,,,,,,2,,,52,0
11040,note_on,0,0,3,,,,,,,,,2,,,57,36
11052,note_on,12,0,1,,,,,,,,,0,,,72,0
11052,note_on,0,0,1,,,,,,,,,0,,,64,0
11052,note_on,0,0,1,,,,,,,,,0,,,69,0
11052,note_on,12,0,3,,,,,,,,,2,,,57,0
11160,note_on,0,0,1,,,,,,,,,0,,,71,49
11160,note_on,0,0,1,,,,,,,,,0,,,68,49
11160,note_on,108,0,1,,,,,,,,,0,,,64,49
11160,note_on,108,0,3,,,,,,,,,2,,,52,36
11172,note_on,0,0,1,,,,,,,,,0,,,64,0
11172,note_on,0,0,1,,,,,,,,,0,,,68,0
11172,note_on,12,0,1,,,,,,,,,0,,,71,0
11172,note_on,12,0,3,,,,,,,,,2,,,52,0
11280,note_on,108,0,3,,,,,,,,,2,,,57,36
11280,note_on,0,0,1,,,,,,,,,0,,,72,49
11280,note_on,0,0,1,,,,,,,,,0,,,69,49
11280,note_on,108,0,1,,,,,,,,,0,,,64,49
11292,note_on,12,0,3,,,,,,,,,2,,,57,0
11292,note_on,0,0,1,,,,,,,,,0,,,69,0
11292,note_on,0,0,1,,,,,,,,,0,,,64,0
11292,note_on,12,0,1,,,,,,,,,0,,,72,0
11400,note_on,0,0,1,,,,,,,,,0,,,71,101
11400,note_on,0,0,1,,,,,,,,,0,,,76,101
11400,note_on,0,0,3,,,,,,,,,2,,,44,88
11400,note_on,108,0,3,,,,,,,,,2,,,32,88
11400,note_on,108,0,1,,,,,,,,,0,,,64,101
11640,note_on,0,0,1,,,,,,,,,0,,,64,101
11640,note_on,0,0,1,,,,,,,,,0,,,72,101
11640,note_on,0,0,1,,,,,,,,,0,,,64,0
11640,note_on,0,0,1,,,,,,,,,0,,,71,0
11640,note_on,240,0,1,,,,,,,,,0,,,76,0
11640,note_on,0,0,1,,,,,,,,,0,,,69,101
11640,note_on,0,0,3,,,,,,,,,2,,,45,88
11640,note_on,0,0,3,,,,,,,,,2,,,33,88
11640,note_on,240,0,3,,,,,,,,,2,,,44,0
11640,note_on,0,0,3,,,,,,,,,2,,,32,0
11760,note_on,0,0,3,,,,,,,,,2,,,33,0
11760,note_on,120,0,3,,,,,,,,,2,,,45,0
11760,note_on,120,0,1,,,,,,,,,0,,,72,0
11760,note_on,0,0,1,,,,,,,,,0,,,69,0
11760,note_on,0,0,1,,,,,,,,,0,,,64,0
11880,note_on,0,0,3,,,,,,,,,2,,,64,36
11880,note_on,120,0,3,,,,,,,,,2,,,60,36
11880,note_on,4200,0,2,,,,,,,,,1,,,67,36
11880,note_on,120,0,1,,,,,,,,,0,,,72,49
11940,note_on,60,0,1,,,,,,,,,0,,,72,0
11940,note_on,0,0,1,,,,,,,,,0,,,72,49
12000,note_on,60,0,1,,,,,,,,,0,,,72,0
12000,note_on,0,0,1,,,,,,,,,0,,,74,75
12000,note_on,0,0,2,,,,,,,,,1,,,67,36
12000,note_on,120,0,2,,,,,,,,,1,,,67,0
12000,note_on,120,0,3,,,,,,,,,2,,,64,0
12000,note_on,0,0,3,,,,,,,,,2,,,60,0
12000,note_on,0,0,3,,,,,,,,,2,,,59,36
12000,note_on,0,0,3,,,,,,,,,2,,,65,36
12240,note_on,240,0,2,,,,,,,,,1,,,67,0
12240,note_on,0,0,3,,,,,,,,,2,,,64,36
12240,note_on,0,0,3,,,,,,,,,2,,,60,36
12240,note_on,0,0,3,,,,,,,,,2,,,59,0
12240,note_on,240,0,3,,,,,,,,,2,,,65,0
12240,note_on,0,0,1,,,,,,,,,0,,,72,49
12240,note_on,240,0,1,,,,,,,,,0,,,74,0
12240,note_on,0,0,2,,,,,,,,,1,,,67,36
12300,note_on,0,0,1,,,,,,,,,0,,,72,49
12300,note_on,60,0,1,,,,,,,,,0,,,72,0
12360,note_on,0,0,3,,,,,,,,,2,,,60,0
12360,note_on,0,0,3,,,,,,,,,2,,,59,36
12360,note_on,0,0,3,,,,,,,,,2,,,65,36
12360,note_on,0,0,2,,,,,,,,,1,,,67,36
12360,note_on,120,0,3,,,,,,,,,2,,,64,0
12360,note_on,120,0,2,,,,,,,,,1,,,67,0
12360,note_on,60,0,1,,,,,,,,,0,,,72,0
12360,note_on,0,0,1,,,,,,,,,0,,,74,75
12600,note_on,240,0,2,,,,,,,,,1,,,67,0
12600,note_on,0,0,2,,,,,,,,,1,,,67,36
12600,note_on,0,0,3,,,,,,,,,2,,,64,36
12600,note_on,0,0,3,,,,,,,,,2,,,59,0
12600,note_on,240,0,3,,,,,,,,,2,,,65,0
12600,note_on,240,0,1,,,,,,,,,0,,,74,0
12600,note_on,0,0,3,,,,,,,,,2,,,60,36
12600,note_on,0,0,1,,,,,,,,,0,,,72,49
12660,note_on,60,0,1,,,,,,,,,0,,,72,0
12660,note_on,0,0,1,,,,,,,,,0,,,72,49
12720,note_on,0,0,2,,,,,,,,,1,,,67,36
12720,note_on,120,0,2,,,,,,,,,1,,,67,0
12720,note_on,0,0,3,,,,,,,,,2,,,59,36
12720,note_on,0,0,3,,,,,,,,,2,,,60,0
12720,note_on,120,0,3,,,,,,,,,2,,,64,0
12720,note_on,0,0,3,,,,,,,,,2,,,65,36
12720,note_on,0,0,1,,,,,,,,,0,,,74,49
12720,note_on,60,0,1,,,,,,,,,0,,,72,0
12960,note_on,0,0,1,,,,,,,,,0,,,76,49
12960,note_on,240,0,1,,,,,,,,,0,,,74,0
12960,note_on,240,0,3,,,,,,,,,2,,,65,0
12960,note_on,0,0,3,,,,,,,,,2,,,59,0
12960,note_on,0,0,3,,,,,,,,,2,,,58,36
12960,note_on,0,0,3,,,,,,,,,2,,,60,36
12960,note_on,0,0,3,,,,,,,,,2,,,67,36
12960,note_on,0,0,2,,,,,,,,,1,,,72,36
12960,note_on,240,0,2,,,,,,,,,1,,,67,0
13020,note_on,0,0,1,,,,,,,,,0,,,76,49
13020,note_on,60,0,1,,,,,,,,,0,,,76,0
13080,note_on,120,0,2,,,,,,,,,1,,,72,0
13080,note_on,60,0,1,,,,,,,,,0,,,76,0
13080,note_on,0,0,1,,,,,,,,,0,,,79,49
13080,note_on,0,0,3,,,,,,,,,2,,,65,36
13080,note_on,0,0,3,,,,,,,,,2,,,57,36
13080,note_on,0,0,3,,,,,,,,,2,,,58,0
13080,note_on,120,0,3,,,,,,,,,2,,,67,0
13080,note_on,0,0,2,,,,,,,,,1,,,72,36
13140,note_on,60,0,1,,,,,,,,,0,,,79,0
13140,note_on,0,0,1,,,,,,,,,0,,,77,49
13200,note_on,0,0,3,,,,,,,,,2,,,67,36
13200,note_on,0,0,3,,,,,,,,,2,,,55,36
13200,note_on,0,0,3,,,,,,,,,2,,,60,0
13200,note_on,0,0,3,,,,,,,,,2,,,57,0
13200,note_on,120,0,3,,,,,,,,,2,,,65,0
13200,note_on,60,0,1,,,,,,,,,0,,,77,0
13200,note_on,0,0,1,,,,,,,,,0,,,76,49
13200,note_on,120,0,2,,,,,,,,,1,,,72,0
13200,note_on,0,0,2,,,,,,,,,1,,,72,36
13212,note_on,12,0,2,,,,,,,,,1,,,72,0
13212,note_on,12,0,3,,,,,,,,,2,,,67,0
13212,note_on,0,0,3,,,,,,,,,2,,,55,0
13212,note_on,12,0,1,,,,,,,,,0,,,76,0
13320,note_on,108,0,3,,,,,,,,,2,,,55,36
13320,note_on,0,0,3,,,,,,,,,2,,,65,36
13320,note_on,108,0,1,,,,,,,,,0,,,74,49
13320,note_on,108,0,2,,,,,,,,,1,,,71,36
13332,note_on,12,0,3,,,,,,,,,2,,,65,0
13332,note_on,12,0,1,,,,,,,,,0,,,74,0
13332,note_on,0,0,3,,,,,,,,,2,,,55,0
13332,note_on,12,0,2,,,,,,,,,1,,,71,0
13440,note_on,0,0,3,,,,,,,,,2,,,64,36
13440,note_on,108,0,3,,,,,,,,,2,,,60,36
13440,note_on,108,0,1,,,,,,,,,0,,,72,49
13452,note_on,0,0,3,,,,,,,,,2,,,60,0
13452,note_on,12,0,3,,,,,,,,,2,,,64,0
13452,note_on,12,0,1,,,,,,,,,0,,,72,0
13560,note_on,0,0,3,,,,,,,,,2,,,64,75
13560,note_on,108,0,3,,,,,,,,,2,,,52,75
13560,note_on,108,0,1,,,,,,,,,0,,,67,88
13560,note_on,0,0,1,,,,,,,,,0,,,79,88
13800,note_on,0,0,3,,,,,,,,,2,,,60,75
13800,note_on,240,0,1,,,,,,,,,0,,,79,0
13800,note_on,0,0,1,,,,,,,,,0,,,67,0
13800,note_on,240,0,3,,,,,,,,,2,,,64,0
13800,note_on,0,0,1,,,,,,,,,0,,,76,88
13800,note_on,0,0,1,,,,,,,,,0,,,64,88
13800,note_on,0,0,3,,,,,,,,,2,,,48,75
13800,note_on,0,0,3,,,,,,,,,2,,,52,0
13812,note_on,0,0,1,,,,,,,,,0,,,64,0
13812,note_on,0,0,3,,,,,,,,,2,,,48,0
13812,note_on,12,0,1,,,,,,,,,0,,,76,0
13812,note_on,12,0,3,,,,,,,,,2,,,60,0
13920,note_on,0,0,1,,,,,,,,,0,,,72,88
13920,note_on,108,0,1,,,,,,,,,0,,,60,88
13920,note_on,108,0,3,,,,,,,,,2,,,45,75
13920,note_on,0,0,3,,,,,,,,,2,,,57,75
13932,note_on,0,0,1,,,,,,,,,0,,,60,0
13932,note_on,12,0,3,,,,,,,,,2,,,57,0
13932,note_on,0,0,3,,,,,,,,,2,,,45,0
13932,note_on,12,0,1,,,,,,,,,0,,,72,0
14040,note_on,0,0,1,,,,,,,,,0,,,69,88
14040,note_on,108,0,3,,,,,,,,,2,,,41,75
14040,note_on,0,0,3,,,,,,,,,2,,,53,75
14040,note_on,108,0,1,,,,,,,,,0,,,57,88
14052,note_on,0,0,3,,,,,,,,,2,,,41,0
14052,note_on,0,0,1,,,,,,,,,0,,,57,0
14052,note_on,12,0,1,,,,,,,,,0,,,69,0
14052,note_on,12,0,3,,,,,,,,,2,,,53,0
14160,note_on,0,0,3,,,,,,,,,2,,,50,75
14160,note_on,108,0,3,,,,,,,,,2,,,38,75
14160,note_on,0,0,1,,,,,,,,,0,,,65,88
14160,note_on,108,0,1,,,,,,,,,0,,,53,88
14172,note_on,12,0,3,,,,,,,,,2,,,50,0
14172,note_on,12,0,1,,,,,,,,,0,,,65,0
14172,note_on,0,0,1,,,,,,,,,0,,,53,0
14172,note_on,0,0,3,,,,,,,,,2,,,38,0
14280,note_on,0,0,1,,,,,,,,,0,,,81,88
14280,note_on,0,0,3,,,,,,,,,2,,,47,75
14280,note_on,0,0,3,,,,,,,,,2,,,35,75
14280,control_change,108,0,3,,,,,,,,,2,64,127,,
14280,control_change,108,0,1,,,,,,,,,0,64,127,,
14280,note_on,0,0,1,,,,,,,,,0,,,69,88
14280,note_on,0,0,1,,,,,,,,,0,,,74,88
14280,note_on,0,0,1,,,,,,,,,0,,,77,88
14520,note_on,0,0,3,,,,,,,,,2,,,69,75
14520,note_on,0,0,1,,,,,,,,,0,,,86,88
14520,note_on,0,0,1,,,,,,,,,0,,,81,88
14520,note_on,0,0,1,,,,,,,,,0,,,77,88
14520,note_on,0,0,1,,,,,,,,,0,,,77,0
14520,note_on,0,0,3,,,,,,,,,2,,,35,0
14520,note_on,0,0,1,,,,,,,,,0,,,69,0
14520,note_on,240,0,1,,,,,,,,,0,,,81,0
14520,note_on,0,0,3,,,,,,,,,2,,,59,75
14520,note_on,240,0,3,,,,,,,,,2,,,47,0
14520,note_on,0,0,1,,,,,,,,,0,,,74,0
14520,note_on,0,0,3,,,,,,,,,2,,,65,75
15060,note_on,0,0,1,,,,,,,,,0,,,81,0
15060,note_on,540,0,1,,,,,,,,,0,,,86,0
15060,note_on,0,0,1,,,,,,,,,0,,,84,49
15060,note_on,0,0,1,,,,,,,,,0,,,77,0
15120,note_on,0,0,1,,,,,,,,,0,,,83,49
15120,note_on,60,0,1,,,,,,,,,0,,,84,0
15180,note_on,0,0,1,,,,,,,,,0,,,81,49
15180,control_change,0,0,1,,,,,,,,,0,64,0,,
15180,note_on,60,0,1,,,,,,,,,0,,,83,0
15240,note_on,0,0,3,,,,,,,,,2,,,67,36
15240,note_on,0,0,3,,,,,,,,,2,,,64,36
15240,note_on,0,0,3,,,,,,,,,2,,,60,36
15240,control_change,0,0,3,,,,,,,,,2,64,0,,
15240,note_on,0,0,3,,,,,,,,,2,,,59,0
15240,note_on,720,0,3,,,,,,,,,2,,,69,0
15240,note_on,60,0,1,,,,,,,,,0,,,81,0
15240,note_on,0,0,1,,,,,,,,,0,,,79,49
15240,note_on,0,0,3,,,,,,,,,2,,,65,0
15300,note_on,0,0,3,,,,,,,,,2,,,64,0
15300,note_on,60,0,1,,,,,,,,,0,,,79,0
15300,note_on,60,0,3,,,,,,,,,2,,,67,0
15300,note_on,0,0,3,,,,,,,,,2,,,60,0
15360,note_on,0,0,3,,,,,,,,,2,,,79,62
15360,control_change,60,0,3,,,,,,,,,2,64,127,,
15360,note_on,0,0,3,,,,,,,,,2,,,76,54
15360,control_change,60,0,1,,,,,,,,,0,64,127,,
15360,note_on,0,0,1,,,,,,,,,0,,,91,49
15540,note_on,180,0,1,,,,,,,,,0,,,91,0
15540,note_on,0,0,1,,,,,,,,,0,,,88,49
15600,note_on,240,0,3,,,,,,,,,2,,,79,0
15600,note_on,60,0,1,,,,,,,,,0,,,88,0
15600,note_on,0,0,1,,,,,,,,,0,,,88,49
15600,note_on,0,0,3,,,,,,,,,2,,,76,36
15600,note_on,0,0,3,,,,,,,,,2,,,72,36
15600,note_on,0,0,3,,,,,,,,,2,,,76,0
15612,note_on,0,0,3,,,,,,,,,2,,,72,0
15612,note_on,12,0,3,,,,,,,,,2,,,76,0
15660,note_on,0,0,1,,,,,,,,,0,,,84,49
15660,note_on,60,0,1,,,,,,,,,0,,,88,0
15720,note_on,0,0,1,,,,,,,,,0,,,84,49
15720,note_on,60,0,1,,,,,,,,,0,,,84,0
15720,note_on,0,0,3,,,,,,,,,2,,,72,36
15720,note_on,108,0,3,,,,,,,,,2,,,69,36
15732,note_on,0,0,3,,,,,,,,,2,,,69,0
15732,note_on,12,0,3,,,,,,,,,2,,,72,0
15780,note_on,0,0,1,,,,,,,,,0,,,81,49
15780,note_on,60,0,1,,,,,,,,,0,,,84,0
15840,control_change,0,0,1,,,,,,,,,0,64,0,,
15840,note_on,0,0,1,,,,,,,,,0,,,81,49
15840,note_on,0,0,3,,,,,,,,,2,,,69,36
15840,note_on,0,0,3,,,,,,,,,2,,,65,36
15840,control_change,108,0,3,,,,,,,,,2,64,0,,
15840,note_on,60,0,1,,,,,,,,,0,,,81,0
15852,note_on,0,0,3,,,,,,,,,2,,,65,0
15852,note_on,12,0,3,,,,,,,,,2,,,69,0
15900,note_on,0,0,1,,,,,,,,,0,,,77,49
15900,note_on,60,0,1,,,,,,,,,0,,,81,0
15960,note_on,0,0,3,,,,,,,,,2,,,65,36
15960,note_on,108,0,3,,,,,,,,,2,,,62,36
15960,note_on,60,0,1,,,,,,,,,0,,,77,0
15960,note_on,0,0,1,,,,,,,,,0,,,77,49
16020,note_on,60,0,3,,,,,,,,,2,,,65,0
16020,note_on,0,0,3,,,,,,,,,2,,,62,0
16020,note_on,60,0,1,,,,,,,,,0,,,77,0
16080,note_on,60,0,3,,,,,,,,,2,,,60,52
16080,note_on,0,0,3,,,,,,,,,2,,,63,57
16080,note_on,0,0,3,,,,,,,,,2,,,68,62
16080,note_on,0,0,1,,,,,,,,,0,,,75,70
16080,note_on,60,0,1,,,,,,,,,0,,,72,65
16080,note_on,0,0,1,,,,,,,,,0,,,80,75
16680,note_on,0,0,4,,,,,,,,,3,,,67,36
16680,note_on,0,0,3,,,,,,,,,2,,,74,36
16680,note_on,0,0,3,,,,,,,,,2,,,63,0
16680,note_on,0,0,3,,,,,,,,,2,,,60,0
16680,control_change,0,0,3,,,,,,,,,2,64,127,,
16680,note_on,600,0,3,,,,,,,,,2,,,68,0
16680,note_on,7560,0,4,,,,,,,,,3,,,59,36
16680,control_change,0,0,1,,,,,,,,,0,64,127,,
16680,note_on,0,0,2,,,,,,,,,1,,,79,36
16680,note_on,3348,0,2,,,,,,,,,1,,,71,36
16680,note_on,600,0,1,,,,,,,,,0,,,80,0
16680,note_on,0,0,1,,,,,,,,,0,,,72,0
16680,note_on,0,0,1,,,,,,,,,0,,,74,49
16680,note_on,0,0,1,,,,,,,,,0,,,75,0
16740,note_on,0,0,3,,,,,,,,,2,,,76,36
16740,note_on,60,0,1,,,,,,,,,0,,,74,0
16740,note_on,60,0,3,,,,,,,,,2,,,74,0
16740,note_on,0,0,1,,,,,,,,,0,,,76,49
16800,note_on,0,0,1,,,,,,,,,0,,,77,62
16800,note_on,60,0,1,,,,,,,,,0,,,76,0
16800,note_on,60,0,3,,,,,,,,,2,,,76,0
16800,note_on,0,0,3,,,,,,,,,2,,,77,49
16860,note_on,0,0,1,,,,,,,,,0,,,76,62
16860,note_on,60,0,1,,,,,,,,,0,,,77,0
16860,note_on,60,0,3,,,,,,,,,2,,,77,0
16860,note_on,0,0,3,,,,,,,,,2,,,76,49
16920,note_on,0,0,3,,,,,,,,,2,,,74,62
16920,note_on,60,0,3,,,,,,,,,2,,,76,0
16920,note_on,60,0,1,,,,,,,,,0,,,76,0
16920,note_on,0,0,1,,,,,,,,,0,,,74,75
16980,note_on,60,0,1,,,,,,,,,0,,,74,0
16980,control_change,0,0,3,,,,,,,,,2,64,0,,
16980,note_on,60,0,3,,,,,,,,,2,,,74,0
16980,control_change,0,0,1,,,,,,,,,0,64,0,,
16980,note_on,0,0,1,,,,,,,,,0,,,76,75
16980,note_on,0,0,3,,,,,,,,,2,,,76,62
17040,note_on,360,0,2,,,,,,,,,1,,,77,96
17040,note_on,60,0,3,,,,,,,,,2,,,76,0
17040,note_on,360,0,4,,,,,,,,,3,,,65,75
17040,note_on,60,0,1,,,,,,,,,0,,,76,0
17280,note_on,240,0,4,,,,,,,,,3,,,65,0
17280,note_on,0,0,4,,,,,,,,,3,,,59,0
17280,note_on,0,0,4,,,,,,,,,3,,,60,75
17280,note_on,0,0,4,,,,,,,,,3,,,64,75
17280,note_on,240,0,2,,,,,,,,,1,,,77,0
17280,note_on,0,0,2,,,,,,,,,1,,,71,0
17280,note_on,0,0,2,,,,,,,,,1,,,72,75
17280,note_on,0,0,2,,,,,,,,,1,,,76,75
17400,note_on,120,0,4,,,,,,,,,3,,,64,0
17400,note_on,0,0,2,,,,,,,,,1,,,74,36
17400,note_on,0,0,4,,,,,,,,,3,,,53,36
17400,note_on,0,0,4,,,,,,,,,3,,,67,0
17400,note_on,0,0,4,,,,,,,,,3,,,60,0
17400,note_on,0,0,2,,,,,,,,,1,,,69,36
17400,note_on,0,0,2,,,,,,,,,1,,,79,0
17400,note_on,0,0,2,,,,,,,,,1,,,72,0
17400,note_on,120,0,2,,,,,,,,,1,,,76,0
17400,note_on,360,0,1,,,,,,,,,0,,,79,49
17412,note_on,12,0,4,,,,,,,,,3,,,53,0
17460,note_on,60,0,1,,,,,,,,,0,,,79,0
17460,note_on,0,0,1,,,,,,,,,0,,,77,49
17520,note_on,0,0,2,,,,,,,,,1,,,67,36
17520,note_on,120,0,2,,,,,,,,,1,,,74,0
17520,note_on,108,0,4,,,,,,,,,3,,,55,36
17520,note_on,0,0,1,,,,,,,,,0,,,77,49
17520,note_on,60,0,1,,,,,,,,,0,,,77,0
17520,note_on,0,0,2,,,,,,,,,1,,,69,0
17520,note_on,0,0,2,,,,,,,,,1,,,72,36
17532,note_on,12,0,4,,,,,,,,,3,,,55,0
17580,note_on,0,0,1,,,,,,,,,0,,,76,49
17580,note_on,60,0,1,,,,,,,,,0,,,77,0
17640,note_on,0,0,1,,,,,,,,,0,,,76,49
17640,note_on,60,0,1,,,,,,,,,0,,,76,0
17640,note_on,0,0,2,,,,,,,,,1,,,71,36
17640,note_on,0,0,2,,,,,,,,,1,,,65,36
17640,note_on,0,0,2,,,,,,,,,1,,,67,0
17640,note_on,108,0,4,,,,,,,,,3,,,55,36
17640,note_on,120,0,2,,,,,,,,,1,,,72,0
17652,note_on,12,0,4,,,,,,,,,3,,,55,0
17700,note_on,0,0,1,,,,,,,,,0,,,74,49
17700,note_on,60,0,1,,,,,,,,,0,,,76,0
17760,note_on,0,0,1,,,,,,,,,0,,,64,49
17760,note_on,0,0,2,,,,,,,,,1,,,65,0
17760,note_on,0,0,4,,,,,,,,,3,,,55,36
17760,note_on,120,0,2,,,,,,,,,1,,,71,0
17760,note_on,60,0,1,,,,,,,,,0,,,74,0
17760,note_on,108,0,4,,,,,,,,,3,,,48,36
17760,note_on,0,0,1,,,,,,,,,0,,,72,49
18000,note_on,240,0,4,,,,,,,,,3,,,55,0
18000,note_on,0,0,4,,,,,,,,,3,,,64,36
18000,note_on,0,0,4,,,,,,,,,3,,,48,0
18000,note_on,240,0,1,,,,,,,,,0,,,72,0
18000,note_on,0,0,1,,,,,,,,,0,,,64,0
18000,note_on,0,0,1,,,,,,,,,0,,,79,36
18060,note_on,60,0,4,,,,,,,,,3,,,64,0
18060,note_on,0,0,4,,,,,,,,,3,,,64,36
18060,note_on,60,0,1,,,,,,,,,0,,,79,0
18060,note_on,0,0,1,,,,,,,,,0,,,79,36
18120,note_on,0,0,1,,,,,,,,,0,,,67,36
18120,note_on,60,0,4,,,,,,,,,3,,,64,0
18120,control_change,0,0,4,,,,,,,,,3,64,127,,
18120,note_on,0,0,4,,,,,,,,,3,,,52,36
18120,control_change,0,0,1,,,,,,,,,0,64,127,,
18120,note_on,60,0,1,,,,,,,,,0,,,79,0
18360,note_on,0,0,1,,,,,,,,,0,,,79,36
18360,note_on,0,0,4,,,,,,,,,3,,,64,36
18360,note_on,240,0,4,,,,,,,,,3,,,52,0
18360,note_on,240,0,1,,,,,,,,,0,,,67,0
18420,control_change,0,0,4,,,,,,,,,3,64,0,,
18420,note_on,60,0,4,,,,,,,,,3,,,64,0
18420,note_on,0,0,4,,,,,,,,,3,,,64,36
18420,note_on,60,0,1,,,,,,,,,0,,,79,0
18420,note_on,0,0,1,,,,,,,,,0,,,79,36
18420,control_change,0,0,1,,,,,,,,,0,64,0,,
18480,control_change,0,0,4,,,,,,,,,3,64,127,,
18480,note_on,0,0,4,,,,,,,,,3,,,53,36
18480,note_on,0,0,1,,,,,,,,,0,,,69,36
18480,control_change,0,0,1,,,,,,,,,0,64,127,,
18480,note_on,60,0,1,,,,,,,,,0,,,79,0
18480,note_on,60,0,4,,,,,,,,,3,,,64,0
18720,note_on,240,0,4,,,,,,,,,3,,,53,0
18720,note_on,0,0,1,,,,,,,,,0,,,79,36
18720,note_on,240,0,1,,,,,,,,,0,,,69,0
18720,note_on,0,0,4,,,,,,,,,3,,,64,36
18780,control_change,0,0,1,,,,,,,,,0,64,0,,
18780,note_on,0,0,4,,,,,,,,,3,,,64,36
18780,note_on,0,0,1,,,,,,,,,0,,,79,36
18780,note_on,60,0,1,,,,,,,,,0,,,79,0
18780,note_on,60,0,4,,,,,,,,,3,,,64,0
18780,control_change,0,0,4,,,,,,,,,3,64,0,,
18840,note_on,0,0,1,,,,,,,,,0,,,71,36
18840,note_on,60,0,4,,,,,,,,,3,,,64,0
18840,note_on,0,0,4,,,,,,,,,3,,,55,36
18840,note_on,60,0,1,,,,,,,,,0,,,79,0
18900,note_on,60,0,1,,,,,,,,,0,,,71,0
18900,note_on,0,0,1,,,,,,,,,0,,,79,36
18900,note_on,0,0,4,,,,,,,,,3,,,65,36
18900,note_on,60,0,4,,,,,,,,,3,,,55,0
18960,note_on,60,0,4,,,,,,,,,3,,,65,0
18960,note_on,60,0,1,,,,,,,,,0,,,79,0
18960,note_on,0,0,4,,,,,,,,,3,,,57,36
18960,note_on,0,0,1,,,,,,,,,0,,,72,36
19020,note_on,60,0,1,,,,,,,,,0,,,72,0
19020,note_on,0,0,4,,,,,,,,,3,,,65,36
19020,note_on,60,0,4,,,,,,,,,3,,,57,0
19020,note_on,0,0,1,,,,,,,,,0,,,79,36
19080,note_on,60,0,4,,,,,,,,,3,,,65,0
19080,note_on,0,0,1,,,,,,,,,0,,,74,36
19080,note_on,60,0,1,,,,,,,,,0,,,79,0
19080,note_on,0,0,4,,,,,,,,,3,,,59,36
19140,note_on,60,0,4,,,,,,,,,3,,,59,0
19140,note_on,0,0,4,,,,,,,,,3,,,65,36
19140,note_on,0,0,1,,,,,,,,,0,,,79,36
19140,note_on,60,0,1,,,,,,,,,0,,,74,0
19200,note_on,60,0,1,,,,,,,,,0,,,79,0
19200,note_on,60,0,4,,,,,,,,,3,,,65,0
19200,note_on,0,0,1,,,,,,,,,0,,,76,36
19200,note_on,2160,0,3,,,,,,,,,2,,,60,62
19260,note_on,0,0,3,,,,,,,,,2,,,64,62
19260,note_on,60,0,1,,,,,,,,,0,,,76,0
19260,note_on,0,0,1,,,,,,,,,0,,,79,36
19260,note_on,60,0,3,,,,,,,,,2,,,60,0
19320,note_on,0,0,3,,,,,,,,,2,,,59,62
19320,note_on,0,0,1,,,,,,,,,0,,,74,36
19320,note_on,60,0,3,,,,,,,,,2,,,64,0
19320,note_on,60,0,1,,,,,,,,,0,,,79,0
19380,note_on,60,0,3,,,,,,,,,2,,,59,0
19380,note_on,0,0,3,,,,,,,,,2,,,64,62
19380,note_on,0,0,1,,,,,,,,,0,,,80,36
19380,note_on,60,0,1,,,,,,,,,0,,,74,0
19440,note_on,0,0,1,,,,,,,,,0,,,72,49
19440,note_on,60,0,3,,,,,,,,,2,,,64,0
19440,note_on,0,0,3,,,,,,,,,2,,,57,62
19440,note_on,60,0,1,,,,,,,,,0,,,80,0
19500,note_on,60,0,3,,,,,,,,,2,,,57,0
19500,note_on,0,0,1,,,,,,,,,0,,,81,49
19500,note_on,60,0,1,,,,,,,,,0,,,72,0
19500,note_on,0,0,3,,,,,,,,,2,,,64,62
19560,note_on,60,0,3,,,,,,,,,2,,,64,0
19560,note_on,0,0,3,,,,,,,,,2,,,53,49
19560,note_on,0,0,1,,,,,,,,,0,,,81,62
19560,note_on,60,0,1,,,,,,,,,0,,,81,0
19620,note_on,0,0,3,,,,,,,,,2,,,62,49
19620,note_on,60,0,3,,,,,,,,,2,,,53,0
19620,note_on,0,0,1,,,,,,,,,0,,,86,62
19620,note_on,60,0,1,,,,,,,,,0,,,81,0
19680,note_on,0,0,3,,,,,,,,,2,,,55,62
19680,note_on,60,0,3,,,,,,,,,2,,,62,0
19680,note_on,0,0,1,,,,,,,,,0,,,83,75
19680,note_on,60,0,1,,,,,,,,,0,,,86,0
19740,note_on,0,0,1,,,,,,,,,0,,,88,75
19740,note_on,60,0,1,,,,,,,,,0,,,83,0
19740,note_on,60,0,3,,,,,,,,,2,,,55,0
19740,note_on,0,0,3,,,,,,,,,2,,,64,62
19800,note_on,0,0,1,,,,,,,,,0,,,83,88
19800,note_on,0,0,3,,,,,,,,,2,,,55,75
19800,note_on,60,0,3,,,,,,,,,2,,,64,0
19800,note_on,60,0,1,,,,,,,,,0,,,88,0
19860,note_on,0,0,3,,,,,,,,,2,,,65,75
19860,note_on,60,0,1,,,,,,,,,0,,,83,0
19860,note_on,0,0,1,,,,,,,,,0,,,91,88
19860,note_on,60,0,3,,,,,,,,,2,,,55,0
19920,note_on,60,0,3,,,,,,,,,2,,,65,0
19920,note_on,60,0,1,,,,,,,,,0,,,91,0
19920,note_on,0,0,3,,,,,,,,,2,,,60,75
19920,note_on,0,0,1,,,,,,,,,0,,,84,88
19920,note_on,0,0,3,,,,,,,,,2,,,64,75
19920,time_signature,9720,1,0,2,4,24,8,,,,,,,,,
20040,note_on,120,0,1,,,,,,,,,0,,,84,0
20040,note_on,120,0,3,,,,,,,,,2,,,64,0
20040,note_on,0,0,3,,,,,,,,,2,,,60,0
20160,time_signature,240,1,0,1,4,24,8,,,,,,,,,
20160,note_on,120,0,1,,,,,,,,,0,,,72,49
20220,note_on,60,0,1,,,,,,,,,0,,,72,0
20220,note_on,0,0,1,,,,,,,,,0,,,72,49
20280,note_on,0,0,1,,,,,,,,,0,,,73,49
20280,note_on,0,0,1,,,,,,,,,0,,,70,49
20280,note_on,60,0,1,,,,,,,,,0,,,72,0
20280,time_signature,120,1,0,3,4,24,8,,,,,,,,,
20280,control_change,0,0,1,,,,,,,,,0,64,127,,
20400,note_on,360,0,3,,,,,,,,,2,,,60,36
20520,note_on,240,0,1,,,,,,,,,0,,,73,0
20520,note_on,0,0,1,,,,,,,,,0,,,70,0
20520,note_on,0,0,1,,,,,,,,,0,,,68,49
20520,note_on,0,0,1,,,,,,,,,0,,,72,49
20580,note_on,0,0,1,,,,,,,,,0,,,68,0
20580,note_on,60,0,1,,,,,,,,,0,,,72,0
20580,note_on,0,0,1,,,,,,,,,0,,,72,49
20580,control_change,0,0,1,,,,,,,,,0,64,0,,
20580,note_on,0,0,1,,,,,,,,,0,,,68,49
20640,note_on,60,0,1,,,,,,,,,0,,,72,0
20640,note_on,0,0,1,,,,,,,,,0,,,68,0
20640,note_on,0,0,1,,,,,,,,,0,,,67,49
20640,note_on,0,0,1,,,,,,,,,0,,,70,49
20760,note_on,360,0,3,,,,,,,,,2,,,60,0
20760,note_on,0,0,3,,,,,,,,,2,,,60,36
20880,note_on,0,0,1,,,,,,,,,0,,,68,49
20880,note_on,0,0,1,,,,,,,,,0,,,67,0
20880,note_on,240,0,1,,,,,,,,,0,,,70,0
20880,note_on,0,0,1,,,,,,,,,0,,,65,49
20940,note_on,60,0,1,,,,,,,,,0,,,68,0
20940,note_on,0,0,1,,,,,,,,,0,,,65,49
20940,note_on,0,0,1,,,,,,,,,0,,,68,49
20940,note_on,0,0,1,,,,,,,,,0,,,65,0
21000,note_on,60,0,1,,,,,,,,,0,,,68,0
21000,note_on,0,0,1,,,,,,,,,0,,,65,0
21000,note_on,0,0,1,,,,,,,,,0,,,67,49
21000,note_on,0,0,1,,,,,,,,,0,,,64,49
21120,note_on,120,0,1,,,,,,,,,0,,,67,0
21120,note_on,0,0,1,,,,,,,,,0,,,64,49
21120,note_on,360,0,3,,,,,,,,,2,,,60,0
21120,note_on,0,0,3,,,,,,,,,2,,,61,36
21120,note_on,0,0,1,,,,,,,,,0,,,67,49
21120,note_on,0,0,1,,,,,,,,,0,,,64,0
21132,note_on,12,0,3,,,,,,,,,2,,,61,0
21132,note_on,12,0,1,,,,,,,,,0,,,67,0
21132,note_on,0,0,1,,,,,,,,,0,,,64,0
21240,note_on,108,0,3,,,,,,,,,2,,,59,36
21240,note_on,108,0,1,,,,,,,,,0,,,65,49
21240,note_on,0,0,1,,,,,,,,,0,,,68,49
21252,note_on,0,0,1,,,,,,,,,0,,,65,0
21252,note_on,12,0,1,,,,,,,,,0,,,68,0
21252,note_on,12,0,3,,,,,,,,,2,,,59,0
21360,note_on,0,0,1,,,,,,,,,0,,,67,49
21360,note_on,108,0,3,,,,,,,,,2,,,60,36
21360,note_on,108,0,1,,,,,,,,,0,,,64,49
21420,note_on,60,0,3,,,,,,,,,2,,,60,0
21480,note_on,60,0,3,,,,,,,,,2,,,48,36
21600,note_on,0,0,1,,,,,,,,,0,,,60,36
21600,note_on,240,0,1,,,,,,,,,0,,,67,0
21600,note_on,0,0,1,,,,,,,,,0,,,64,0
21660,note_on,0,0,1,,,,,,,,,0,,,60,36
21660,note_on,60,0,1,,,,,,,,,0,,,60,0
21720,note_on,0,0,1,,,,,,,,,0,,,58,36
21720,note_on,0,0,1,,,,,,,,,0,,,61,36
21720,note_on,60,0,1,,,,,,,,,0,,,60,0
21840,note_on,360,0,3,,,,,,,,,2,,,48,0
21840,note_on,0,0,3,,,,,,,,,2,,,48,36
21960,note_on,0,0,1,,,,,,,,,0,,,56,36
21960,note_on,0,0,1,,,,,,,,,0,,,58,0
21960,note_on,240,0,1,,,,,,,,,0,,,61,0
21960,note_on,0,0,1,,,,,,,,,0,,,60,36
22020,note_on,0,0,1,,,,,,,,,0,,,56,0
22020,note_on,0,0,1,,,,,,,,,0,,,56,36
22020,note_on,0,0,1,,,,,,,,,0,,,60,36
22020,note_on,60,0,1,,,,,,,,,0,,,60,0
22080,note_on,0,0,1,,,,,,,,,0,,,58,36
22080,control_change,0,0,1,,,,,,,,,0,64,127,,
22080,note_on,60,0,1,,,,,,,,,0,,,60,0
22080,note_on,0,0,1,,,,,,,,,0,,,56,0
22080,note_on,0,0,1,,,,,,,,,0,,,55,36
22200,note_on,360,0,3,,,,,,,,,2,,,48,0
22200,note_on,0,0,3,,,,,,,,,2,,,48,36
22320,note_on,0,0,1,,,,,,,,,0,,,55,0
22320,note_on,240,0,1,,,,,,,,,0,,,58,0
22320,note_on,0,0,1,,,,,,,,,0,,,53,36
22320,note_on,0,0,1,,,,,,,,,0,,,56,36
22380,note_on,0,0,1,,,,,,,,,0,,,53,0
22380,note_on,0,0,1,,,,,,,,,0,,,53,36
22380,note_on,0,0,1,,,,,,,,,0,,,56,36
22380,control_change,0,0,1,,,,,,,,,0,64,0,,
22380,note_on,60,0,1,,,,,,,,,0,,,56,0
22440,note_on,60,0,1,,,,,,,,,0,,,56,0
22440,note_on,0,0,1,,,,,,,,,0,,,53,0
22440,note_on,0,0,1,,,,,,,,,0,,,52,36
22440,note_on,0,0,1,,,,,,,,,0,,,55,36
22560,note_on,0,0,1,,,,,,,,,0,,,52,0
22560,note_on,0,0,1,,,,,,,,,0,,,52,36
22560,note_on,0,0,1,,,,,,,,,0,,,55,36
22560,note_on,120,0,1,,,,,,,,,0,,,55,0
22560,note_on,360,0,3,,,,,,,,,2,,,48,0
22560,note_on,0,0,3,,,,,,,,,2,,,49,36
22572,note_on,12,0,3,,,,,,,,,2,,,49,0
22572,note_on,0,0,1,,,,,,,,,0,,,52,0
22572,note_on,12,0,1,,,,,,,,,0,,,55,0
22680,note_on,108,0,3,,,,,,,,,2,,,47,36
22680,note_on,0,0,1,,,,,,,,,0,,,56,36
22680,note_on,108,0,1,,,,,,,,,0,,,53,36
22692,note_on,12,0,3,,,,,,,,,2,,,47,0
22692,note_on,12,0,1,,,,,,,,,0,,,56,0
22692,note_on,0,0,1,,,,,,,,,0,,,53,0
22800,note_on,108,0,1,,,,,,,,,0,,,52,36
22800,note_on,0,0,1,,,,,,,,,0,,,55,36
22800,time_signature,2520,1,0,2,4,24,8,,,,,,,,,
22800,note_on,0,0,3,,,,,,,,,2,,,48,36
22800,control_change,108,0,3,,,,,,,,,2,64,127,,
22812,note_on,12,0,3,,,,,,,,,2,,,48,0
22920,note_on,108,0,3,,,,,,,,,2,,,36,36
22932,note_on,12,0,3,,,,,,,,,2,,,36,0
23040,time_signature,240,1,0,1,4,24,8,,,,,,,,,
23040,note_on,0,0,3,,,,,,,,,2,,,60,101
23040,note_on,240,0,1,,,,,,,,,0,,,55,0
23040,note_on,0,0,3,,,,,,,,,2,,,48,101
23040,control_change,108,0,3,,,,,,,,,2,64,0,,
23040,note_on,0,0,1,,,,,,,,,0,,,52,0
23100,note_on,0,0,3,,,,,,,,,2,,,60,101
23100,note_on,0,0,3,,,,,,,,,2,,,48,101
23100,note_on,0,0,3,,,,,,,,,2,,,48,0
23100,note_on,60,0,3,,,,,,,,,2,,,60,0
23160,note_on,0,0,3,,,,,,,,,2,,,48,0
23160,time_signature,120,1,0,3,4,24,8,,,,,,,,,
23160,note_on,60,0,3,,,,,,,,,2,,,60,0
23160,control_change,0,0,3,,,,,,,,,2,64,127,,
23160,note_on,0,0,3,,,,,,,,,2,,,61,101
23160,note_on,0,0,3,,,,,,,,,2,,,49,101
23280,note_on,240,0,1,,,,,,,,,0,,,63,88
23280,note_on,0,0,1,,,,,,,,,0,,,67,88
23280,note_on,0,0,1,,,,,,,,,0,,,70,88
23280,note_on,0,0,1,,,,,,,,,0,,,75,88
23400,note_on,240,0,3,,,,,,,,,2,,,61,0
23400,note_on,0,0,3,,,,,,,,,2,,,49,0
23400,note_on,0,0,3,,,,,,,,,2,,,48,101
23400,note_on,0,0,3,,,,,,,,,2,,,60,101
23460,note_on,0,0,3,,,,,,,,,2,,,48,101
23460,note_on,60,0,3,,,,,,,,,2,,,60,0
23460,note_on,0,0,3,,,,,,,,,2,,,48,0
23460,control_change,0,0,3,,,,,,,,,2,64,0,,
23460,note_on,0,0,3,,,,,,,,,2,,,60,101
23520,note_on,60,0,3,,,,,,,,,2,,,60,0
23520,note_on,0,0,3,,,,,,,,,2,,,48,0
23520,control_change,0,0,3,,,,,,,,,2,64,127,,
23520,note_on,0,0,3,,,,,,,,,2,,,49,101
23520,note_on,0,0,3,,,,,,,,,2,,,61,101
23640,note_on,0,0,1,,,,,,,,,0,,,63,0
23640,note_on,0,0,1,,,,,,,,,0,,,75,88
23640,note_on,0,0,1,,,,,,,,,0,,,70,88
23640,note_on,0,0,1,,,,,,,,,0,,,67,88
23640,note_on,0,0,1,,,,,,,,,0,,,63,88
23640,note_on,0,0,1,,,,,,,,,0,,,70,0
23640,note_on,360,0,1,,,,,,,,,0,,,75,0
23640,note_on,0,0,1,,,,,,,,,0,,,67,0
23760,note_on,0,0,3,,,,,,,,,2,,,48,101
23760,note_on,0,0,3,,,,,,,,,2,,,60,101
23760,note_on,0,0,3,,,,,,,,,2,,,49,0
23760,note_on,240,0,3,,,,,,,,,2,,,61,0
23820,note_on,60,0,3,,,,,,,,,2,,,60,0
23820,note_on,0,0,3,,,,,,,,,2,,,48,0
23820,note_on,0,0,3,,,,,,,,,2,,,60,101
23820,note_on,0,0,3,,,,,,,,,2,,,48,101
23820,control_change,0,0,3,,,,,,,,,2,64,0,,
23880,note_on,0,0,3,,,,,,,,,2,,,61,101
23880,note_on,0,0,3,,,,,,,,,2,,,49,101
23880,control_change,0,0,3,,,,,,,,,2,64,127,,
23880,note_on,0,0,3,,,,,,,,,2,,,48,0
23880,note_on,60,0,3,,,,,,,,,2,,,60,0
23892,note_on,12,0,3,,,,,,,,,2,,,61,0
23892,note_on,0,0,3,,,,,,,,,2,,,49,0
24000,note_on,0,0,1,,,,,,,,,0,,,75,88
24000,note_on,108,0,3,,,,,,,,,2,,,46,101
24000,note_on,360,0,1,,,,,,,,,0,,,75,0
24000,note_on,0,0,1,,,,,,,,,0,,,63,0
24000,note_on,0,0,1,,,,,,,,,0,,,67,0
24000,note_on,0,0,1,,,,,,,,,0,,,70,0
24000,control_change,0,0,1,,,,,,,,,0,64,127,,
24000,note_on,0,0,3,,,,,,,,,2,,,58,101
24000,note_on,0,0,1,,,,,,,,,0,,,70,88
24000,note_on,0,0,1,,,,,,,,,0,,,67,88
24000,note_on,0,0,1,,,,,,,,,0,,,63,88
24012,note_on,12,0,3,,,,,,,,,2,,,58,0
24012,note_on,0,0,1,,,,,,,,,0,,,63,0
24012,note_on,0,0,1,,,,,,,,,0,,,67,0
24012,note_on,0,0,1,,,,,,,,,0,,,70,0
24012,note_on,12,0,1,,,,,,,,,0,,,75,0
24012,note_on,0,0,3,,,,,,,,,2,,,46,0
24120,note_on,0,0,3,,,,,,,,,2,,,55,101
24120,note_on,108,0,1,,,,,,,,,0,,,63,88
24120,note_on,0,0,1,,,,,,,,,0,,,67,88
24120,note_on,0,0,1,,,,,,,,,0,,,70,88
24120,note_on,0,0,1,,,,,,,,,0,,,75,88
24120,note_on,108,0,3,,,,,,,,,2,,,43,101
24132,note_on,0,0,3,,,,,,,,,2,,,43,0
24132,note_on,12,0,1,,,,,,,,,0,,,75,0
24132,note_on,0,0,1,,,,,,,,,0,,,63,0
24132,note_on,0,0,1,,,,,,,,,0,,,67,0
24132,note_on,0,0,1,,,,,,,,,0,,,70,0
24132,note_on,12,0,3,,,,,,,,,2,,,55,0
24240,note_on,108,0,1,,,,,,,,,0,,,63,101
24240,note_on,0,0,1,,,,,,,,,0,,,67,101
24240,note_on,0,0,1,,,,,,,,,0,,,70,101
24240,note_on,0,0,3,,,,,,,,,2,,,51,88
24240,note_on,108,0,3,,,,,,,,,2,,,39,88
24240,note_on,0,0,1,,,,,,,,,0,,,75,101
24252,note_on,0,0,3,,,,,,,,,2,,,39,0
24252,note_on,12,0,3,,,,,,,,,2,,,51,0
24252,note_on,0,0,1,,,,,,,,,0,,,70,0
24252,note_on,0,0,1,,,,,,,,,0,,,67,0
24252,note_on,0,0,1,,,,,,,,,0,,,63,0
24252,note_on,12,0,1,,,,,,,,,0,,,75,0
24360,note_on,0,0,1,,,,,,,,,0,,,75,101
24360,note_on,108,0,1,,,,,,,,,0,,,70,101
24360,note_on,0,0,1,,,,,,,,,0,,,79,101
24360,note_on,0,0,3,,,,,,,,,2,,,49,88
24360,note_on,108,0,3,,,,,,,,,2,,,37,88
24372,note_on,12,0,3,,,,,,,,,2,,,49,0
24372,note_on,0,0,1,,,,,,,,,0,,,70,0
24372,note_on,0,0,1,,,,,,,,,0,,,75,0
24372,note_on,12,0,1,,,,,,,,,0,,,79,0
24372,note_on,0,0,3,,,,,,,,,2,,,37,0
24480,note_on,0,0,1,,,,,,,,,0,,,79,101
24480,note_on,0,0,3,,,,,,,,,2,,,46,88
24480,note_on,0,0,1,,,,,,,,,0,,,82,101
24480,note_on,108,0,3,,,,,,,,,2,,,34,88
24480,note_on,108,0,1,,,,,,,,,0,,,75,101
24492,note_on,0,0,1,,,,,,,,,0,,,75,0
24492,note_on,0,0,1,,,,,,,,,0,,,79,0
24492,note_on,12,0,1,,,,,,,,,0,,,82,0
24492,note_on,12,0,3,,,,,,,,,2,,,46,0
24492,note_on,0,0,3,,,,,,,,,2,,,34,0
24600,note_on,0,0,3,,,,,,,,,2,,,43,101
24600,note_on,108,0,1,,,,,,,,,0,,,75,114
24600,note_on,0,0,1,,,,,,,,,0,,,82,114
24600,note_on,0,0,1,,,,,,,,,0,,,85,114
24600,note_on,108,0,3,,,,,,,,,2,,,31,101
24612,note_on,0,0,3,,,,,,,,,2,,,31,0
24612,note_on,12,0,3,,,,,,,,,2,,,43,0
24612,note_on,12,0,1,,,,,,,,,0,,,85,0
24612,note_on,0,0,1,,,,,,,,,0,,,82,0
24612,note_on,0,0,1,,,,,,,,,0,,,75,0
24840,control_change,228,0,1,,,,,,,,,0,64,0,,
24840,control_change,228,0,3,,,,,,,,,2,64,0,,
25200,note_on,360,0,1,,,,,,,,,0,,,63,49
25260,note_on,60,0,1,,,,,,,,,0,,,63,0
25260,note_on,0,0,1,,,,,,,,,0,,,63,49
25320,note_on,7560,0,2,,,,,,,,,1,,,68,49
25320,note_on,0,0,2,,,,,,,,,1,,,72,49
25440,note_on,0,0,3,,,,,,,,,2,,,44,36
25440,control_change,600,0,3,,,,,,,,,2,64,127,,
25500,note_on,0,0,3,,,,,,,,,2,,,44,36
25500,note_on,60,0,3,,,,,,,,,2,,,44,0
25560,note_on,0,0,3,,,,,,,,,2,,,51,36
25560,control_change,0,0,3,,,,,,,,,2,64,0,,
25560,note_on,60,0,3,,,,,,,,,2,,,44,0
25560,note_on,240,0,2,,,,,,,,,1,,,72,0
25560,note_on,0,0,2,,,,,,,,,1,,,67,49
25560,note_on,0,0,2,,,,,,,,,1,,,70,49
25560,note_on,0,0,2,,,,,,,,,1,,,68,0
25572,note_on,12,0,3,,,,,,,,,2,,,51,0
25680,note_on,120,0,2,,,,,,,,,1,,,70,0
25680,note_on,0,0,2,,,,,,,,,1,,,67,0
25680,note_on,0,0,2,,,,,,,,,1,,,68,49
25680,note_on,0,0,2,,,,,,,,,1,,,72,49
25680,note_on,0,0,1,,,,,,,,,0,,,63,49
25680,note_on,420,0,1,,,,,,,,,0,,,63,0
25800,note_on,0,0,3,,,,,,,,,2,,,44,36
25800,control_change,228,0,3,,,,,,,,,2,64,127,,
25860,note_on,0,0,3,,,,,,,,,2,,,44,36
25860,note_on,60,0,3,,,,,,,,,2,,,44,0
25920,note_on,0,0,2,,,,,,,,,1,,,67,49
25920,control_change,0,0,3,,,,,,,,,2,64,0,,
25920,note_on,60,0,3,,,,,,,,,2,,,44,0
25920,note_on,240,0,2,,,,,,,,,1,,,72,0
25920,note_on,0,0,3,,,,,,,,,2,,,51,36
25920,note_on,0,0,2,,,,,,,,,1,,,70,49
25920,note_on,0,0,2,,,,,,,,,1,,,68,0
25932,note_on,12,0,3,,,,,,,,,2,,,51,0
26040,note_on,0,0,1,,,,,,,,,0,,,73,49
26040,note_on,0,0,1,,,,,,,,,0,,,70,49
26040,note_on,0,0,1,,,,,,,,,0,,,65,49
26040,note_on,360,0,1,,,,,,,,,0,,,63,0
26040,note_on,120,0,2,,,,,,,,,1,,,70,0
26040,note_on,0,0,2,,,,,,,,,1,,,67,0
26040,note_on,108,0,3,,,,,,,,,2,,,46,36
26052,note_on,12,0,3,,,,,,,,,2,,,46,0
26052,note_on,0,0,1,,,,,,,,,0,,,65,0
26052,note_on,12,0,1,,,,,,,,,0,,,73,0
26052,note_on,0,0,1,,,,,,,,,0,,,70,0
26160,note_on,0,0,1,,,,,,,,,0,,,70,49
26160,note_on,108,0,3,,,,,,,,,2,,,49,36
26160,note_on,0,0,1,,,,,,,,,0,,,73,49
26160,note_on,108,0,1,,,,,,,,,0,,,65,49
26172,note_on,12,0,3,,,,,,,,,2,,,49,0
26172,note_on,12,0,1,,,,,,,,,0,,,73,0
26172,note_on,0,0,1,,,,,,,,,0,,,70,0
26172,note_on,0,0,1,,,,,,,,,0,,,65,0
26280,note_on,108,0,1,,,,,,,,,0,,,65,49
26280,note_on,0,0,1,,,,,,,,,0,,,72,49
26280,note_on,0,0,1,,,,,,,,,0,,,69,49
26280,note_on,108,0,3,,,,,,,,,2,,,53,36
26292,note_on,12,0,3,,,,,,,,,2,,,53,0
26292,note_on,12,0,1,,,,,,,,,0,,,72,0
26292,note_on,0,0,1,,,,,,,,,0,,,69,0
26292,note_on,0,0,1,,,,,,,,,0,,,65,0
26400,note_on,360,0,2,,,,,,,,,1,,,65,49
26400,note_on,108,0,1,,,,,,,,,0,,,70,49
26400,note_on,0,0,1,,,,,,,,,0,,,73,49
26520,control_change,228,0,3,,,,,,,,,2,64,127,,
26520,note_on,0,0,3,,,,,,,,,2,,,46,36
26580,note_on,60,0,3,,,,,,,,,2,,,46,0
26580,note_on,0,0,3,,,,,,,,,2,,,46,36
26640,control_change,0,0,3,,,,,,,,,2,64,0,,
26640,note_on,0,0,1,,,,,,,,,0,,,72,49
26640,note_on,0,0,1,,,,,,,,,0,,,69,49
26640,note_on,60,0,3,,,,,,,,,2,,,46,0
26640,note_on,240,0,1,,,,,,,,,0,,,73,0
26640,note_on,0,0,3,,,,,,,,,2,,,53,36
26640,note_on,0,0,1,,,,,,,,,0,,,70,0
26652,note_on,12,0,3,,,,,,,,,2,,,53,0
26760,note_on,120,0,1,,,,,,,,,0,,,72,0
26760,note_on,0,0,1,,,,,,,,,0,,,69,0
26760,note_on,0,0,1,,,,,,,,,0,,,73,49
26760,note_on,0,0,1,,,,,,,,,0,,,77,49
26760,note_on,360,0,2,,,,,,,,,1,,,65,0
26760,note_on,0,0,2,,,,,,,,,1,,,68,49
26880,control_change,228,0,3,,,,,,,,,2,64,127,,
26880,note_on,0,0,3,,,,,,,,,2,,,49,36
26940,note_on,60,0,3,,,,,,,,,2,,,49,0
26940,note_on,0,0,3,,,,,,,,,2,,,49,36
27000,note_on,0,0,1,,,,,,,,,0,,,72,49
27000,note_on,0,0,1,,,,,,,,,0,,,73,0
27000,note_on,0,0,1,,,,,,,,,0,,,75,49
27000,note_on,60,0,3,,,,,,,,,2,,,49,0
27000,control_change,0,0,3,,,,,,,,,2,64,0,,
27000,note_on,0,0,3,,,,,,,,,2,,,56,36
27000,note_on,240,0,1,,,,,,,,,0,,,77,0
27012,note_on,12,0,3,,,,,,,,,2,,,56,0
27120,note_on,360,0,2,,,,,,,,,1,,,68,0
27120,note_on,0,0,1,,,,,,,,,0,,,72,0
27120,note_on,0,0,1,,,,,,,,,0,,,77,49
27120,note_on,0,0,2,,,,,,,,,1,,,68,49
27120,note_on,0,0,1,,,,,,,,,0,,,73,49
27120,note_on,120,0,1,,,,,,,,,0,,,75,0
27240,note_on,0,0,3,,,,,,,,,2,,,49,36
27240,control_change,228,0,3,,,,,,,,,2,64,127,,
27300,note_on,60,0,3,,,,,,,,,2,,,49,0
27300,note_on,0,0,3,,,,,,,,,2,,,49,36
27360,control_change,0,0,3,,,,,,,,,2,64,0,,
27360,note_on,0,0,3,,,,,,,,,2,,,56,36
27360,note_on,60,0,3,,,,,,,,,2,,,49,0
27360,note_on,240,0,1,,,,,,,,,0,,,77,0
27360,note_on,0,0,1,,,,,,,,,0,,,73,0
27360,note_on,0,0,1,,,,,,,,,0,,,72,49
27360,note_on,0,0,1,,,,,,,,,0,,,75,49
27372,note_on,12,0,3,,,,,,,,,2,,,56,0
27480,note_on,0,0,1,,,,,,,,,0,,,72,0
27480,note_on,0,0,1,,,,,,,,,0,,,77,49
27480,note_on,0,0,1,,,,,,,,,0,,,73,49
27480,note_on,0,0,1,,,,,,,,,0,,,68,49
27480,note_on,120,0,1,,,,,,,,,0,,,75,0
27480,note_on,360,0,2,,,,,,,,,1,,,68,0
27492,note_on,12,0,1,,,,,,,,,0,,,77,0
27492,note_on,0,0,1,,,,,,,,,0,,,73,0
27492,note_on,0,0,1,,,,,,,,,0,,,68,0
27600,note_on,228,0,3,,,,,,,,,2,,,49,36
27600,note_on,108,0,1,,,,,,,,,0,,,68,49
27600,note_on,0,0,1,,,,,,,,,0,,,73,49
27600,note_on,0,0,1,,,,,,,,,0,,,77,49
27612,note_on,0,0,1,,,,,,,,,0,,,68,0
27612,note_on,12,0,3,,,,,,,,,2,,,49,0
27612,note_on,12,0,1,,,,,,,,,0,,,77,0
27612,note_on,0,0,1,,,,,,,,,0,,,73,0
27720,note_on,108,0,1,,,,,,,,,0,,,70,49
27720,note_on,108,0,3,,,,,,,,,2,,,61,36
27720,note_on,0,0,3,,,,,,,,,2,,,63,36
27720,note_on,0,0,1,,,,,,,,,0,,,79,49
27720,note_on,0,0,1,,,,,,,,,0,,,75,49
27732,note_on,0,0,1,,,,,,,,,0,,,70,0
27732,note_on,12,0,3,,,,,,,,,2,,,63,0
27732,note_on,12,0,1,,,,,,,,,0,,,79,0
27732,note_on,0,0,3,,,,,,,,,2,,,61,0
27732,note_on,0,0,1,,,,,,,,,0,,,75,0
27840,note_on,0,0,1,,,,,,,,,0,,,80,62
27840,note_on,0,0,1,,,,,,,,,0,,,75,62
27840,note_on,108,0,1,,,,,,,,,0,,,68,62
27960,control_change,228,0,3,,,,,,,,,2,64,127,,
27960,note_on,0,0,3,,,,,,,,,2,,,60,49
27960,note_on,0,0,3,,,,,,,,,2,,,63,49
28020,note_on,60,0,3,,,,,,,,,2,,,63,0
28020,note_on,0,0,3,,,,,,,,,2,,,60,0
28020,note_on,0,0,3,,,,,,,,,2,,,60,49
28020,note_on,0,0,3,,,,,,,,,2,,,63,49
28080,note_on,0,0,1,,,,,,,,,0,,,75,62
28080,note_on,0,0,1,,,,,,,,,0,,,70,62
28080,note_on,0,0,1,,,,,,,,,0,,,79,62
28080,note_on,0,0,3,,,,,,,,,2,,,63,49
28080,control_change,0,0,3,,,,,,,,,2,64,0,,
28080,note_on,240,0,1,,,,,,,,,0,,,80,0
28080,note_on,0,0,3,,,,,,,,,2,,,61,49
28080,note_on,0,0,1,,,,,,,,,0,,,75,0
28080,note_on,0,0,3,,,,,,,,,2,,,60,0
28080,note_on,60,0,3,,,,,,,,,2,,,63,0
28080,note_on,0,0,1,,,,,,,,,0,,,68,0
28092,note_on,12,0,3,,,,,,,,,2,,,63,0
28092,note_on,0,0,3,,,,,,,,,2,,,61,0
28200,note_on,0,0,1,,,,,,,,,0,,,80,101
28200,note_on,0,0,1,,,,,,,,,0,,,75,96
28200,note_on,0,0,1,,,,,,,,,0,,,70,0
28200,note_on,0,0,1,,,,,,,,,0,,,75,0
28200,note_on,120,0,1,,,,,,,,,0,,,79,0
28200,note_on,0,0,1,,,,,,,,,0,,,68,91
28320,note_on,0,0,3,,,,,,,,,2,,,63,62
28320,note_on,0,0,3,,,,,,,,,2,,,60,62
28320,control_change,228,0,3,,,,,,,,,2,64,127,,
28380,note_on,0,0,3,,,,,,,,,2,,,63,62
28380,note_on,0,0,3,,,,,,,,,2,,,60,62
28380,note_on,0,0,3,,,,,,,,,2,,,60,0
28380,note_on,60,0,3,,,,,,,,,2,,,63,0
28440,note_on,0,0,1,,,,,,,,,0,,,68,0
28440,note_on,60,0,3,,,,,,,,,2,,,63,0
28440,note_on,0,0,1,,,,,,,,,0,,,75,75
28440,note_on,0,0,1,,,,,,,,,0,,,79,75
28440,note_on,240,0,1,,,,,,,,,0,,,80,0
28440,note_on,0,0,1,,,,,,,,,0,,,75,0
28440,note_on,0,0,1,,,,,,,,,0,,,70,75
28440,note_on,0,0,3,,,,,,,,,2,,,63,62
28440,note_on,0,0,3,,,,,,,,,2,,,61,62
28440,note_on,0,0,3,,,,,,,,,2,,,60,0
28440,control_change,0,0,3,,,,,,,,,2,64,0,,
28452,note_on,0,0,3,,,,,,,,,2,,,61,0
28452,note_on,12,0,3,,,,,,,,,2,,,63,0
28560,note_on,120,0,1,,,,,,,,,0,,,79,0
28560,note_on,0,0,1,,,,,,,,,0,,,75,0
28560,note_on,0,0,1,,,,,,,,,0,,,70,0
28560,note_on,0,0,1,,,,,,,,,0,,,68,104
28560,note_on,0,0,1,,,,,,,,,0,,,80,114
28560,note_on,0,0,1,,,,,,,,,0,,,75,109
28572,note_on,0,0,1,,,,,,,,,0,,,75,0
28572,note_on,0,0,1,,,,,,,,,0,,,68,0
28572,note_on,12,0,1,,,,,,,,,0,,,80,0
28680,note_on,0,0,1,,,,,,,,,0,,,75,109
28680,note_on,0,0,3,,,,,,,,,2,,,63,101
28680,note_on,228,0,3,,,,,,,,,2,,,60,93
28680,note_on,108,0,1,,,,,,,,,0,,,68,104
28680,note_on,0,0,1,,,,,,,,,0,,,80,114
28692,note_on,0,0,1,,,,,,,,,0,,,68,0
28692,note_on,0,0,3,,,,,,,,,2,,,60,0
28692,note_on,12,0,3,,,,,,,,,2,,,63,0
28692,note_on,12,0,1,,,,,,,,,0,,,80,0
28692,note_on,0,0,1,,,,,,,,,0,,,75,0
28800,note_on,0,0,3,,,,,,,,,2,,,63,101
28800,note_on,108,0,3,,,,,,,,,2,,,58,93
28800,note_on,0,0,1,,,,,,,,,0,,,82,114
28800,note_on,0,0,1,,,,,,,,,0,,,75,109
28800,note_on,108,0,1,,,,,,,,,0,,,70,104
28812,note_on,12,0,3,,,,,,,,,2,,,63,0
28812,note_on,0,0,3,,,,,,,,,2,,,58,0
28812,note_on,12,0,1,,,,,,,,,0,,,82,0
28812,note_on,0,0,1,,,,,,,,,0,,,75,0
28812,note_on,0,0,1,,,,,,,,,0,,,70,0
28920,note_on,108,0,1,,,,,,,,,0,,,72,104
28920,note_on,0,0,1,,,,,,,,,0,,,75,109
28920,note_on,0,0,1,,,,,,,,,0,,,84,114
28920,note_on,108,0,3,,,,,,,,,2,,,56,93
28920,note_on,0,0,3,,,,,,,,,2,,,63,101
28932,note_on,0,0,1,,,,,,,,,0,,,72,0
28932,note_on,12,0,1,,,,,,,,,0,,,84,0
28932,note_on,0,0,1,,,,,,,,,0,,,75,0
28932,note_on,0,0,3,,,,,,,,,2,,,56,0
28932,note_on,12,0,3,,,,,,,,,2,,,63,0
29040,note_on,0,0,1,,,,,,,,,0,,,85,127
29040,note_on,0,0,1,,,,,,,,,0,,,80,122
29040,note_on,108,0,1,,,,,,,,,0,,,73,117
29040,note_on,0,0,3,,,,,,,,,2,,,61,114
29040,note_on,0,0,3,,,,,,,,,2,,,56,109
29040,note_on,108,0,3,,,,,,,,,2,,,53,104
29052,note_on,0,0,3,,,,,,,,,2,,,53,0
29052,note_on,0,0,3,,,,,,,,,2,,,56,0
29052,note_on,12,0,3,,,,,,,,,2,,,61,0
29052,note_on,12,0,1,,,,,,,,,0,,,85,0
29052,note_on,0,0,1,,,,,,,,,0,,,80,0
29052,note_on,0,0,1,,,,,,,,,0,,,73,0
29160,note_on,0,0,3,,,,,,,,,2,,,56,109
29160,note_on,108,0,3,,,,,,,,,2,,,51,104
29160,note_on,108,0,1,,,,,,,,,0,,,75,117
29160,note_on,0,0,3,,,,,,,,,2,,,60,114
29160,note_on,0,0,1,,,,,,,,,0,,,87,127
29160,note_on,0,0,1,,,,,,,,,0,,,80,122
29172,note_on,0,0,1,,,,,,,,,0,,,80,0
29172,note_on,0,0,1,,,,,,,,,0,,,75,0
29172,note_on,0,0,3,,,,,,,,,2,,,51,0
29172,note_on,12,0,1,,,,,,,,,0,,,87,0
29172,note_on,0,0,3,,,,,,,,,2,,,56,0
29172,note_on,12,0,3,,,,,,,,,2,,,60,0
29280,control_change,108,0,1,,,,,,,,,0,64,127,,
29280,note_on,0,0,1,,,,,,,,,0,,,77,117
29280,note_on,0,0,1,,,,,,,,,0,,,80,122
29280,note_on,0,0,1,,,,,,,,,0,,,89,127
29280,note_on,0,0,3,,,,,,,,,2,,,59,88
29280,note_on,0,0,3,,,,,,,,,2,,,56,88
29280,note_on,0,0,3,,,,,,,,,2,,,50,88
29280,control_change,108,0,3,,,,,,,,,2,64,127,,
29292,note_on,0,0,1,,,,,,,,,0,,,77,0
29292,note_on,0,0,1,,,,,,,,,0,,,80,0
29292,note_on,12,0,1,,,,,,,,,0,,,89,0
29520,note_on,228,0,1,,,,,,,,,0,,,68,101
29580,note_on,0,0,1,,,,,,,,,0,,,68,101
29580,note_on,60,0,1,,,,,,,,,0,,,68,0
29640,note_on,0,0,1,,,,,,,,,0,,,71,88
29640,note_on,60,0,1,,,,,,,,,0,,,68,0
30120,note_on,840,0,3,,,,,,,,,2,,,59,0
30120,note_on,0,0,3,,,,,,,,,2,,,56,0
30120,note_on,0,0,3,,,,,,,,,2,,,50,0
30360,control_change,720,0,1,,,,,,,,,0,64,0,,
30480,note_on,120,0,1,,,,,,,,,0,,,71,0
30600,control_change,480,0,3,,,,,,,,,2,64,0,,
30600,note_on,0,0,3,,,,,,,,,2,,,51,36
30660,note_on,60,0,3,,,,,,,,,2,,,51,0
30660,note_on,0,0,3,,,,,,,,,2,,,51,36
30720,note_on,60,0,3,,,,,,,,,2,,,51,0
30720,note_on,0,0,3,,,,,,,,,2,,,56,36
30720,note_on,0,0,3,,,,,,,,,2,,,59,36
30840,control_change,360,0,1,,,,,,,,,0,64,127,,
30840,note_on,0,0,1,,,,,,,,,0,,,63,49
30900,note_on,60,0,1,,,,,,,,,0,,,63,0
30900,note_on,0,0,1,,,,,,,,,0,,,63,49
30960,control_change,0,0,1,,,,,,,,,0,64,0,,
30960,note_on,0,0,1,,,,,,,,,0,,,75,49
30960,note_on,60,0,1,,,,,,,,,0,,,63,0
30960,note_on,0,0,3,,,,,,,,,2,,,58,36
30960,note_on,0,0,3,,,,,,,,,2,,,55,36
30960,note_on,0,0,3,,,,,,,,,2,,,56,0
30960,note_on,240,0,3,,,,,,,,,2,,,59,0
31080,note_on,0,0,3,,,,,,,,,2,,,55,0
31080,note_on,120,0,3,,,,,,,,,2,,,58,0
31080,note_on,0,0,3,,,,,,,,,2,,,59,36
31080,note_on,0,0,3,,,,,,,,,2,,,56,36
31200,note_on,0,0,1,,,,,,,,,0,,,63,49
31200,note_on,240,0,1,,,,,,,,,0,,,75,0
31260,note_on,0,0,1,,,,,,,,,0,,,63,49
31260,note_on,60,0,1,,,,,,,,,0,,,63,0
31320,note_on,0,0,1,,,,,,,,,0,,,75,49
31320,note_on,60,0,1,,,,,,,,,0,,,63,0
31320,note_on,240,0,3,,,,,,,,,2,,,59,0
31320,note_on,0,0,3,,,,,,,,,2,,,58,36
31320,note_on,0,0,3,,,,,,,,,2,,,55,36
31320,note_on,0,0,3,,,,,,,,,2,,,56,0
31332,note_on,0,0,3,,,,,,,,,2,,,55,0
31332,note_on,12,0,3,,,,,,,,,2,,,58,0
31440,control_change,108,0,3,,,,,,,,,2,64,127,,
31440,note_on,0,0,3,,,,,,,,,2,,,59,36
31440,note_on,0,0,3,,,,,,,,,2,,,56,36
31440,control_change,120,0,1,,,,,,,,,0,64,127,,
31452,note_on,0,0,3,,,,,,,,,2,,,56,0
31452,note_on,12,0,3,,,,,,,,,2,,,59,0
31560,note_on,0,0,1,,,,,,,,,0,,,75,49
31560,note_on,108,0,3,,,,,,,,,2,,,56,36
31560,note_on,120,0,1,,,,,,,,,0,,,75,0
31560,note_on,0,0,3,,,,,,,,,2,,,59,36
31560,note_on,0,0,1,,,,,,,,,0,,,63,49
31572,note_on,12,0,1,,,,,,,,,0,,,75,0
31572,note_on,0,0,1,,,,,,,,,0,,,63,0
31572,note_on,0,0,3,,,,,,,,,2,,,56,0
31572,note_on,12,0,3,,,,,,,,,2,,,59,0
31680,control_change,108,0,3,,,,,,,,,2,64,0,,
31680,note_on,0,0,3,,,,,,,,,2,,,56,36
31680,control_change,108,0,1,,,,,,,,,0,64,0,,
31680,note_on,0,0,1,,,,,,,,,0,,,67,49
31680,note_on,0,0,3,,,,,,,,,2,,,58,36
31680,note_on,0,0,1,,,,,,,,,0,,,79,49
31680,note_on,0,0,3,,,,,,,,,2,,,61,36
31692,note_on,0,0,3,,,,,,,,,2,,,58,0
31692,note_on,12,0,3,,,,,,,,,2,,,61,0
31692,note_on,0,0,3,,,,,,,,,2,,,56,0
31692,note_on,0,0,1,,,,,,,,,0,,,67,0
31692,note_on,12,0,1,,,,,,,,,0,,,79,0
31800,note_on,0,0,3,,,,,,,,,2,,,56,36
31800,note_on,0,0,3,,,,,,,,,2,,,59,36
31800,note_on,0,0,3,,,,,,,,,2,,,63,36
31800,note_on,0,0,1,,,,,,,,,0,,,80,49
31800,note_on,0,0,1,,,,,,,,,0,,,68,49
31800,control_change,108,0,1,,,,,,,,,0,64,127,,
31800,control_change,108,0,3,,,,,,,,,2,64,127,,
31812,note_on,12,0,3,,,,,,,,,2,,,63,0
31812,note_on,0,0,3,,,,,,,,,2,,,59,0
31812,note_on,0,0,1,,,,,,,,,0,,,68,0
31812,note_on,12,0,1,,,,,,,,,0,,,80,0
31812,note_on,0,0,3,,,,,,,,,2,,,56,0
31920,note_on,0,0,3,,,,,,,,,2,,,58,36
31920,note_on,108,0,3,,,,,,,,,2,,,56,36
31920,note_on,108,0,1,,,,,,,,,0,,,70,49
31920,note_on,0,0,3,,,,,,,,,2,,,61,36
31920,note_on,0,0,1,,,,,,,,,0,,,82,49
31932,note_on,0,0,1,,,,,,,,,0,,,70,0
31932,note_on,12,0,3,,,,,,,,,2,,,61,0
31932,note_on,0,0,3,,,,,,,,,2,,,56,0
31932,note_on,0,0,3,,,,,,,,,2,,,58,0
31932,note_on,12,0,1,,,,,,,,,0,,,82,0
32040,note_on,0,0,3,,,,,,,,,2,,,59,36
32040,control_change,108,0,3,,,,,,,,,2,64,0,,
32040,note_on,0,0,1,,,,,,,,,0,,,83,49
32040,note_on,0,0,1,,,,,,,,,0,,,71,49
32040,control_change,108,0,1,,,,,,,,,0,64,0,,
32040,note_on,0,0,3,,,,,,,,,2,,,56,36
32052,note_on,12,0,3,,,,,,,,,2,,,59,0
32052,note_on,0,0,3,,,,,,,,,2,,,56,0
32052,note_on,0,0,1,,,,,,,,,0,,,71,0
32052,note_on,12,0,1,,,,,,,,,0,,,83,0
32160,note_on,0,0,3,,,,,,,,,2,,,58,36
32160,control_change,108,0,3,,,,,,,,,2,64,127,,
32160,note_on,0,0,3,,,,,,,,,2,,,56,36
32160,note_on,0,0,1,,,,,,,,,0,,,73,49
32160,note_on,0,0,3,,,,,,,,,2,,,61,36
32160,control_change,108,0,1,,,,,,,,,0,64,127,,
32160,note_on,0,0,1,,,,,,,,,0,,,85,49
32172,note_on,0,0,3,,,,,,,,,2,,,58,0
32172,note_on,0,0,3,,,,,,,,,2,,,56,0
32172,note_on,12,0,3,,,,,,,,,2,,,61,0
32172,note_on,0,0,1,,,,,,,,,0,,,73,0
32172,note_on,12,0,1,,,,,,,,,0,,,85,0
32280,note_on,0,0,3,,,,,,,,,2,,,56,36
32280,control_change,108,0,3,,,,,,,,,2,64,0,,
32280,note_on,0,0,3,,,,,,,,,2,,,63,36
32280,note_on,0,0,3,,,,,,,,,2,,,59,36
32280,note_on,0,0,1,,,,,,,,,0,,,75,49
32280,note_on,0,0,1,,,,,,,,,0,,,87,49
32280,control_change,108,0,1,,,,,,,,,0,64,0,,
32292,note_on,12,0,1,,,,,,,,,0,,,87,0
32292,note_on,0,0,1,,,,,,,,,0,,,75,0
32292,note_on,0,0,3,,,,,,,,,2,,,56,0
32292,note_on,0,0,3,,,,,,,,,2,,,59,0
32292,note_on,12,0,3,,,,,,,,,2,,,63,0
32400,note_on,0,0,1,,,,,,,,,0,,,88,49
32400,note_on,0,0,3,,,,,,,,,2,,,64,36
32400,note_on,0,0,3,,,,,,,,,2,,,61,36
32400,note_on,0,0,3,,,,,,,,,2,,,58,36
32400,note_on,108,0,3,,,,,,,,,2,,,56,36
32400,note_on,108,0,1,,,,,,,,,0,,,76,49
32412,note_on,12,0,1,,,,,,,,,0,,,88,0
32412,note_on,0,0,3,,,,,,,,,2,,,56,0
32412,note_on,0,0,3,,,,,,,,,2,,,58,0
32412,note_on,0,0,3,,,,,,,,,2,,,61,0
32412,note_on,0,0,1,,,,,,,,,0,,,76,0
32412,note_on,12,0,3,,,,,,,,,2,,,64,0
32520,note_on,0,0,3,,,,,,,,,2,,,63,36
32520,note_on,0,0,3,,,,,,,,,2,,,56,36
32520,note_on,0,0,1,,,,,,,,,0,,,87,49
32520,note_on,108,0,1,,,,,,,,,0,,,75,49
32520,control_change,108,0,3,,,,,,,,,2,64,127,,
32520,note_on,0,0,3,,,,,,,,,2,,,59,36
32760,note_on,0,0,3,,,,,,,,,2,,,56,0
32760,note_on,0,0,3,,,,,,,,,2,,,51,36
32760,note_on,0,0,1,,,,,,,,,0,,,75,0
32760,note_on,240,0,1,,,,,,,,,0,,,87,0
32760,note_on,240,0,3,,,,,,,,,2,,,63,0
32760,note_on,0,0,3,,,,,,,,,2,,,59,0
32820,note_on,60,0,3,,,,,,,,,2,,,51,0
32820,control_change,0,0,3,,,,,,,,,2,64,0,,
32820,note_on,0,0,3,,,,,,,,,2,,,51,36
32880,note_on,60,0,3,,,,,,,,,2,,,51,0
32880,note_on,0,0,3,,,,,,,,,2,,,56,36
32880,note_on,0,0,3,,,,,,,,,2,,,59,36
33000,note_on,240,0,1,,,,,,,,,0,,,63,49
33060,note_on,60,0,1,,,,,,,,,0,,,63,0
33060,note_on,0,0,1,,,,,,,,,0,,,63,49
33120,note_on,0,0,3,,,,,,,,,2,,,58,36
33120,note_on,0,0,3,,,,,,,,,2,,,56,0
33120,note_on,240,0,3,,,,,,,,,2,,,59,0
33120,note_on,0,0,1,,,,,,,,,0,,,75,49
33120,note_on,60,0,1,,,,,,,,,0,,,63,0
33120,note_on,0,0,3,,,,,,,,,2,,,55,36
33240,note_on,0,0,3,,,,,,,,,2,,,56,36
33240,note_on,0,0,3,,,,,,,,,2,,,59,36
33240,note_on,0,0,3,,,,,,,,,2,,,55,0
33240,note_on,120,0,3,,,,,,,,,2,,,58,0
33360,note_on,0,0,1,,,,,,,,,0,,,63,49
33360,note_on,240,0,1,,,,,,,,,0,,,75,0
33420,note_on,60,0,1,,,,,,,,,0,,,63,0
33420,note_on,0,0,1,,,,,,,,,0,,,63,49
33480,note_on,0,0,3,,,,,,,,,2,,,58,36
33480,note_on,0,0,3,,,,,,,,,2,,,55,36
33480,note_on,0,0,3,,,,,,,,,2,,,56,0
33480,note_on,240,0,3,,,,,,,,,2,,,59,0
33480,note_on,60,0,1,,,,,,,,,0,,,63,0
33480,note_on,0,0,1,,,,,,,,,0,,,75,49
33600,note_on,0,0,3,,,,,,,,,2,,,56,36
33600,note_on,0,0,3,,,,,,,,,2,,,59,36
33600,note_on,0,0,3,,,,,,,,,2,,,55,0
33600,note_on,120,0,3,,,,,,,,,2,,,58,0
33720,note_on,0,0,1,,,,,,,,,0,,,63,49
33720,note_on,240,0,1,,,,,,,,,0,,,75,0
33720,note_on,0,0,3,,,,,,,,,2,,,56,36
33720,note_on,0,0,3,,,,,,,,,2,,,56,0
33720,note_on,120,0,3,,,,,,,,,2,,,59,0
33720,note_on,0,0,3,,,,,,,,,2,,,59,36
33720,note_on,0,0,1,,,,,,,,,0,,,75,49
33840,note_on,0,0,3,,,,,,,,,2,,,54,36
33840,note_on,0,0,1,,,,,,,,,0,,,75,49
33840,note_on,0,0,1,,,,,,,,,0,,,63,49
33840,note_on,0,0,1,,,,,,,,,0,,,63,0
33840,note_on,120,0,1,,,,,,,,,0,,,75,0
33840,note_on,0,0,3,,,,,,,,,2,,,59,36
33840,note_on,120,0,3,,,,,,,,,2,,,59,0
33840,note_on,0,0,3,,,,,,,,,2,,,56,0
33840,note_on,0,0,3,,,,,,,,,2,,,57,36
33960,note_on,0,0,3,,,,,,,,,2,,,59,36
33960,note_on,0,0,3,,,,,,,,,2,,,55,36
33960,note_on,0,0,3,,,,,,,,,2,,,52,36
33960,note_on,0,0,3,,,,,,,,,2,,,54,0
33960,note_on,0,0,3,,,,,,,,,2,,,57,0
33960,note_on,120,0,3,,,,,,,,,2,,,59,0
33960,note_on,0,0,1,,,,,,,,,0,,,64,49
33960,note_on,120,0,1,,,,,,,,,0,,,75,0
33960,note_on,0,0,1,,,,,,,,,0,,,76,49
33960,note_on,0,0,1,,,,,,,,,0,,,63,0
34080,note_on,0,0,3,,,,,,,,,2,,,57,36
34080,note_on,0,0,1,,,,,,,,,0,,,78,49
34080,note_on,0,0,1,,,,,,,,,0,,,66,49
34080,note_on,0,0,1,,,,,,,,,0,,,64,0
34080,note_on,120,0,1,,,,,,,,,0,,,76,0
34080,note_on,120,0,3,,,,,,,,,2,,,59,0
34080,note_on,0,0,3,,,,,,,,,2,,,55,0
34080,note_on,0,0,3,,,,,,,,,2,,,52,0
34080,note_on,0,0,3,,,,,,,,,2,,,52,36
34080,note_on,0,0,3,,,,,,,,,2,,,54,36
34092,note_on,0,0,3,,,,,,,,,2,,,52,0
34092,note_on,0,0,1,,,,,,,,,0,,,66,0
34092,note_on,12,0,3,,,,,,,,,2,,,57,0
34092,note_on,0,0,3,,,,,,,,,2,,,54,0
34092,note_on,12,0,1,,,,,,,,,0,,,78,0
34200,note_on,0,0,3,,,,,,,,,2,,,55,36
34200,note_on,108,0,3,,,,,,,,,2,,,52,36
34200,note_on,0,0,1,,,,,,,,,0,,,79,49
34200,note_on,108,0,1,,,,,,,,,0,,,67,49
34212,note_on,12,0,3,,,,,,,,,2,,,55,0
34212,note_on,0,0,1,,,,,,,,,0,,,67,0
34212,note_on,12,0,1,,,,,,,,,0,,,79,0
34212,note_on,0,0,3,,,,,,,,,2,,,52,0
34320,note_on,0,0,3,,,,,,,,,2,,,52,49
34320,control_change,108,0,3,,,,,,,,,2,64,127,,
34320,note_on,0,0,1,,,,,,,,,0,,,81,62
34320,note_on,0,0,1,,,,,,,,,0,,,69,62
34320,control_change,108,0,1,,,,,,,,,0,64,127,,
34320,note_on,0,0,3,,,,,,,,,2,,,54,49
34320,note_on,0,0,3,,,,,,,,,2,,,57,49
34324,note_on,0,0,3,,,,,,,,,2,,,54,0
34324,note_on,0,0,3,,,,,,,,,2,,,52,0
34324,note_on,4,0,3,,,,,,,,,2,,,57,0
34332,note_on,12,0,1,,,,,,,,,0,,,81,0
34332,note_on,0,0,1,,,,,,,,,0,,,69,0
34440,note_on,0,0,3,,,,,,,,,2,,,59,62
34440,note_on,0,0,3,,,,,,,,,2,,,55,62
34440,note_on,0,0,3,,,,,,,,,2,,,52,62
34440,control_change,108,0,1,,,,,,,,,0,64,0,,
34440,note_on,0,0,1,,,,,,,,,0,,,71,75
34440,note_on,0,0,1,,,,,,,,,0,,,83,75
34440,control_change,116,0,3,,,,,,,,,2,64,0,,
34444,note_on,0,0,3,,,,,,,,,2,,,55,0
34444,note_on,4,0,3,,,,,,,,,2,,,59,0
34444,note_on,0,0,3,,,,,,,,,2,,,52,0
34452,note_on,0,0,1,,,,,,,,,0,,,71,0
34452,note_on,12,0,1,,,,,,,,,0,,,83,0
34560,note_on,116,0,3,,,,,,,,,2,,,52,62
34560,note_on,108,0,1,,,,,,,,,0,,,72,75
34560,note_on,0,0,3,,,,,,,,,2,,,57,62
34560,note_on,0,0,3,,,,,,,,,2,,,60,62
34560,note_on,0,0,1,,,,,,,,,0,,,84,75
34564,note_on,0,0,3,,,,,,,,,2,,,57,0
34564,note_on,4,0,3,,,,,,,,,2,,,60,0
34564,note_on,0,0,3,,,,,,,,,2,,,52,0
34572,note_on,0,0,1,,,,,,,,,0,,,72,0
34572,note_on,12,0,1,,,,,,,,,0,,,84,0
34680,note_on,0,0,1,,,,,,,,,0,,,83,49
34680,note_on,0,0,1,,,,,,,,,0,,,71,49
34680,note_on,0,0,3,,,,,,,,,2,,,55,36
34680,note_on,0,0,3,,,,,,,,,2,,,59,36
34680,control_change,108,0,1,,,,,,,,,0,64,127,,
34680,note_on,116,0,3,,,,,,,,,2,,,52,36
34920,note_on,240,0,1,,,,,,,,,0,,,83,0
34920,note_on,0,0,1,,,,,,,,,0,,,71,0
34920,note_on,0,0,1,,,,,,,,,0,,,76,36
34980,note_on,0,0,1,,,,,,,,,0,,,76,36
34980,note_on,60,0,1,,,,,,,,,0,,,76,0
34980,control_change,0,0,1,,,,,,,,,0,64,0,,
35040,note_on,0,0,3,,,,,,,,,2,,,52,0
35040,note_on,0,0,1,,,,,,,,,0,,,66,36
35040,note_on,360,0,3,,,,,,,,,2,,,59,0
35040,note_on,0,0,3,,,,,,,,,2,,,55,0
35040,note_on,60,0,1,,,,,,,,,0,,,76,0
35040,control_change,0,0,1,,,,,,,,,0,64,127,,
35160,note_on,120,0,3,,,,,,,,,2,,,52,36
35160,note_on,0,0,3,,,,,,,,,2,,,60,36
35160,note_on,0,0,3,,,,,,,,,2,,,57,36
35160,note_on,0,0,3,,,,,,,,,2,,,54,36
35280,note_on,240,0,1,,,,,,,,,0,,,66,0
35280,note_on,0,0,1,,,,,,,,,0,,,76,36
35340,note_on,0,0,1,,,,,,,,,0,,,76,36
35340,control_change,0,0,1,,,,,,,,,0,64,0,,
35340,note_on,60,0,1,,,,,,,,,0,,,76,0
35400,note_on,0,0,3,,,,,,,,,2,,,57,0
35400,note_on,0,0,3,,,,,,,,,2,,,54,0
35400,note_on,0,0,3,,,,,,,,,2,,,52,0
35400,note_on,240,0,3,,,,,,,,,2,,,60,0
35400,note_on,0,0,1,,,,,,,,,0,,,71,36
35400,note_on,60,0,1,,,,,,,,,0,,,76,0
35520,note_on,120,0,3,,,,,,,,,2,,,52,36
35520,note_on,0,0,3,,,,,,,,,2,,,55,36
35520,note_on,0,0,3,,,,,,,,,2,,,59,36
35640,note_on,0,0,1,,,,,,,,,0,,,83,36
35640,note_on,240,0,1,,,,,,,,,0,,,71,0
35760,note_on,0,0,3,,,,,,,,,2,,,54,36
35760,note_on,240,0,3,,,,,,,,,2,,,59,0
35760,note_on,0,0,3,,,,,,,,,2,,,55,0
35760,note_on,0,0,3,,,,,,,,,2,,,52,36
35760,note_on,0,0,1,,,,,,,,,0,,,83,36
35760,note_on,120,0,1,,,,,,,,,0,,,83,0
35760,note_on,0,0,3,,,,,,,,,2,,,52,0
35760,note_on,0,0,3,,,,,,,,,2,,,57,36
35772,note_on,0,0,3,,,,,,,,,2,,,52,0
35772,note_on,0,0,3,,,,,,,,,2,,,54,0
35772,note_on,12,0,3,,,,,,,,,2,,,57,0
35820,note_on,0,0,1,,,,,,,,,0,,,81,36
35820,note_on,60,0,1,,,,,,,,,0,,,83,0
35880,note_on,108,0,3,,,,,,,,,2,,,52,36
35880,note_on,60,0,1,,,,,,,,,0,,,81,0
35880,note_on,0,0,1,,,,,,,,,0,,,81,36
35880,note_on,0,0,3,,,,,,,,,2,,,59,36
35880,note_on,0,0,3,,,,,,,,,2,,,55,36
35892,note_on,12,0,3,,,,,,,,,2,,,59,0
35892,note_on,0,0,3,,,,,,,,,2,,,55,0
35892,note_on,0,0,3,,,,,,,,,2,,,52,0
35940,note_on,0,0,1,,,,,,,,,0,,,83,36
35940,note_on,60,0,1,,,,,,,,,0,,,81,0
36000,note_on,0,0,3,,,,,,,,,2,,,60,36
36000,note_on,0,0,1,,,,,,,,,0,,,83,36
36000,note_on,108,0,3,,,,,,,,,2,,,52,36
36000,note_on,0,0,3,,,,,,,,,2,,,57,36
36000,note_on,60,0,1,,,,,,,,,0,,,83,0
36012,note_on,12,0,3,,,,,,,,,2,,,60,0
36012,note_on,0,0,3,,,,,,,,,2,,,52,0
36012,note_on,0,0,3,,,,,,,,,2,,,57,0
36060,note_on,0,0,1,,,,,,,,,0,,,84,36
36060,note_on,60,0,1,,,,,,,,,0,,,83,0
36120,control_change,0,0,1,,,,,,,,,0,64,127,,
36120,note_on,0,0,3,,,,,,,,,2,,,59,36
36120,note_on,0,0,3,,,,,,,,,2,,,55,36
36120,note_on,0,0,1,,,,,,,,,0,,,83,36
36120,note_on,108,0,3,,,,,,,,,2,,,52,36
36120,note_on,60,0,1,,,,,,,,,0,,,84,0
36360,note_on,0,0,1,,,,,,,,,0,,,76,36
36360,note_on,240,0,1,,,,,,,,,0,,,83,0
36420,note_on,60,0,1,,,,,,,,,0,,,76,0
36420,control_change,0,0,1,,,,,,,,,0,64,0,,
36420,note_on,0,0,1,,,,,,,,,0,,,76,36
36480,note_on,60,0,1,,,,,,,,,0,,,76,0
36480,control_change,0,0,1,,,,,,,,,0,64,127,,
36480,note_on,360,0,3,,,,,,,,,2,,,59,0
36480,note_on,0,0,3,,,,,,,,,2,,,55,0
36480,note_on,0,0,3,,,,,,,,,2,,,52,0
36480,note_on,0,0,1,,,,,,,,,0,,,66,36
36600,note_on,120,0,3,,,,,,,,,2,,,52,36
36600,note_on,0,0,3,,,,,,,,,2,,,54,36
36600,note_on,0,0,3,,,,,,,,,2,,,57,36
36600,note_on,0,0,3,,,,,,,,,2,,,60,36
36720,note_on,240,0,1,,,,,,,,,0,,,66,0
36720,note_on,0,0,1,,,,,,,,,0,,,76,36
36780,control_change,0,0,1,,,,,,,,,0,64,0,,
36780,note_on,60,0,1,,,,,,,,,0,,,76,0
36780,note_on,0,0,1,,,,,,,,,0,,,76,36
36840,note_on,0,0,3,,,,,,,,,2,,,57,0
36840,note_on,0,0,3,,,,,,,,,2,,,54,0
36840,note_on,0,0,3,,,,,,,,,2,,,52,0
36840,note_on,240,0,3,,,,,,,,,2,,,60,0
36840,note_on,0,0,1,,,,,,,,,0,,,71,36
36840,note_on,60,0,1,,,,,,,,,0,,,76,0
36900,set_tempo,13740,1,0,,,,,,288462,,,,,,,
36960,note_on,120,0,3,,,,,,,,,2,,,52,36
36960,note_on,0,0,3,,,,,,,,,2,,,55,36
36960,note_on,0,0,3,,,,,,,,,2,,,59,36
36960,set_tempo,60,1,0,,,,,,300000,,,,,,,
37020,set_tempo,60,1,0,,,,,,312500,,,,,,,
37080,note_on,0,0,1,,,,,,,,,0,,,76,36
37080,set_tempo,60,1,0,,,,,,326087,,,,,,,
37080,note_on,240,0,1,,,,,,,,,0,,,71,0
37140,note_on,60,0,1,,,,,,,,,0,,,76,0
37140,note_on,0,0,1,,,,,,,,,0,,,76,36
37140,set_tempo,60,1,0,,,,,,340909,,,,,,,
37200,note_on,240,0,3,,,,,,,,,2,,,59,0
37200,set_tempo,60,1,0,,,,,,357143,,,,,,,
37200,note_on,0,0,3,,,,,,,,,2,,,55,0
37200,note_on,0,0,1,,,,,,,,,0,,,66,36
37200,control_change,0,0,1,,,,,,,,,0,64,127,,
37200,note_on,60,0,1,,,,,,,,,0,,,76,0
37200,note_on,0,0,3,,,,,,,,,2,,,52,0
37260,set_tempo,60,1,0,,,,,,375000,,,,,,,
37320,note_on,120,0,3,,,,,,,,,2,,,52,36
37320,note_on,0,0,3,,,,,,,,,2,,,54,36
37320,note_on,0,0,3,,,,,,,,,2,,,57,36
37320,note_on,0,0,3,,,,,,,,,2,,,60,36
37320,set_tempo,60,1,0,,,,,,394737,,,,,,,
37440,note_on,240,0,1,,,,,,,,,0,,,66,0
37440,note_on,0,0,1,,,,,,,,,0,,,76,36
37500,note_on,0,0,1,,,,,,,,,0,,,76,36
37500,control_change,0,0,1,,,,,,,,,0,64,0,,
37500,note_on,60,0,1,,,,,,,,,0,,,76,0
37560,note_on,240,0,3,,,,,,,,,2,,,60,0
37560,note_on,0,0,1,,,,,,,,,0,,,71,36
37560,note_on,60,0,1,,,,,,,,,0,,,76,0
37560,note_on,0,0,3,,,,,,,,,2,,,57,0
37560,note_on,0,0,3,,,,,,,,,2,,,52,0
37560,note_on,0,0,3,,,,,,,,,2,,,54,0
37680,note_on,0,0,3,,,,,,,,,2,,,55,36
37680,note_on,0,0,3,,,,,,,,,2,,,59,36
37680,note_on,120,0,3,,,,,,,,,2,,,52,36
37800,note_on,240,0,1,,,,,,,,,0,,,71,0
37800,note_on,0,0,1,,,,,,,,,0,,,67,36
37860,note_on,0,0,1,,,,,,,,,0,,,71,36
37860,note_on,60,0,1,,,,,,,,,0,,,67,0
37920,note_on,0,0,3,,,,,,,,,2,,,57,36
37920,note_on,0,0,3,,,,,,,,,2,,,54,36
37920,note_on,0,0,3,,,,,,,,,2,,,45,36
37920,note_on,10440,0,2,,,,,,,,,1,,,66,49
37920,note_on,0,0,3,,,,,,,,,2,,,52,0
37920,note_on,0,0,3,,,,,,,,,2,,,55,0
37920,note_on,240,0,3,,,,,,,,,2,,,59,0
37920,note_on,60,0,1,,,,,,,,,0,,,71,0
37920,set_tempo,600,1,0,,,,,,277778,,,,,,,
37920,note_on,0,0,1,,,,,,,,,0,,,71,36
37932,note_on,0,0,3,,,,,,,,,2,,,45,0
37932,note_on,0,0,3,,,,,,,,,2,,,54,0
37932,note_on,12,0,3,,,,,,,,,2,,,57,0
37980,note_on,0,0,1,,,,,,,,,0,,,69,36
37980,note_on,60,0,1,,,,,,,,,0,,,71,0
38040,note_on,120,0,2,,,,,,,,,1,,,66,0
38040,note_on,0,0,2,,,,,,,,,1,,,64,49
38040,note_on,0,0,3,,,,,,,,,2,,,59,36
38040,note_on,0,0,3,,,,,,,,,2,,,55,36
38040,note_on,60,0,1,,,,,,,,,0,,,69,0
38040,note_on,0,0,1,,,,,,,,,0,,,69,36
38040,note_on,108,0,3,,,,,,,,,2,,,47,36
38052,note_on,12,0,3,,,,,,,,,2,,,59,0
38052,note_on,0,0,3,,,,,,,,,2,,,47,0
38052,note_on,0,0,3,,,,,,,,,2,,,55,0
38100,note_on,0,0,1,,,,,,,,,0,,,67,36
38100,note_on,60,0,1,,,,,,,,,0,,,69,0
38160,note_on,0,0,1,,,,,,,,,0,,,67,36
38160,note_on,60,0,1,,,,,,,,,0,,,67,0
38160,note_on,108,0,3,,,,,,,,,2,,,47,36
38160,note_on,0,0,3,,,,,,,,,2,,,57,36
38160,note_on,0,0,2,,,,,,,,,1,,,63,49
38160,note_on,120,0,2,,,,,,,,,1,,,64,0
38160,note_on,0,0,3,,,,,,,,,2,,,59,36
38172,note_on,12,0,3,,,,,,,,,2,,,59,0
38172,note_on,0,0,3,,,,,,,,,2,,,47,0
38172,note_on,0,0,3,,,,,,,,,2,,,57,0
38220,note_on,0,0,1,,,,,,,,,0,,,66,36
38220,note_on,60,0,1,,,,,,,,,0,,,67,0
38280,note_on,120,0,2,,,,,,,,,1,,,63,0
38280,note_on,108,0,3,,,,,,,,,2,,,52,36
38280,note_on,0,0,1,,,,,,,,,0,,,64,36
38280,note_on,60,0,1,,,,,,,,,0,,,66,0
38280,note_on,0,0,3,,,,,,,,,2,,,59,36
38280,note_on,0,0,3,,,,,,,,,2,,,55,36
38292,note_on,0,0,3,,,,,,,,,2,,,52,0
38292,note_on,0,0,3,,,,,,,,,2,,,55,0
38292,note_on,12,0,3,,,,,,,,,2,,,59,0
38400,note_on,108,0,3,,,,,,,,,2,,,64,75
38400,note_on,120,0,1,,,,,,,,,0,,,64,0
38520,note_on,120,0,1,,,,,,,,,0,,,68,88
38520,note_on,0,0,1,,,,,,,,,0,,,71,88
38580,note_on,0,0,1,,,,,,,,,0,,,68,0
38580,note_on,0,0,1,,,,,,,,,0,,,68,88
38580,note_on,0,0,1,,,,,,,,,0,,,71,88
38580,note_on,60,0,1,,,,,,,,,0,,,71,0
38640,note_on,0,0,1,,,,,,,,,0,,,72,88
38640,note_on,60,0,1,,,,,,,,,0,,,71,0
38640,note_on,0,0,1,,,,,,,,,0,,,68,0
38640,note_on,0,0,1,,,,,,,,,0,,,69,88
38760,note_on,360,0,3,,,,,,,,,2,,,64,0
38760,note_on,0,0,3,,,,,,,,,2,,,64,75
38880,note_on,240,0,1,,,,,,,,,0,,,72,0
38880,note_on,0,0,1,,,,,,,,,0,,,71,88
38880,note_on,0,0,1,,,,,,,,,0,,,68,88
38880,note_on,0,0,1,,,,,,,,,0,,,69,0
38940,note_on,0,0,1,,,,,,,,,0,,,71,88
38940,note_on,0,0,1,,,,,,,,,0,,,68,88
38940,note_on,60,0,1,,,,,,,,,0,,,71,0
38940,note_on,0,0,1,,,,,,,,,0,,,68,0
39000,note_on,60,0,1,,,,,,,,,0,,,71,0
39000,note_on,0,0,1,,,,,,,,,0,,,74,106
39000,note_on,0,0,1,,,,,,,,,0,,,77,114
39000,note_on,0,0,1,,,,,,,,,0,,,68,0
39120,note_on,360,0,3,,,,,,,,,2,,,64,0
39120,note_on,0,0,3,,,,,,,,,2,,,64,75
39240,note_on,240,0,1,,,,,,,,,0,,,77,0
39240,note_on,0,0,1,,,,,,,,,0,,,74,0
39240,note_on,0,0,1,,,,,,,,,0,,,72,88
39240,note_on,0,0,1,,,,,,,,,0,,,76,88
39300,note_on,60,0,1,,,,,,,,,0,,,76,0
39300,note_on,0,0,1,,,,,,,,,0,,,72,0
39300,note_on,0,0,1,,,,,,,,,0,,,72,88
39300,note_on,0,0,1,,,,,,,,,0,,,76,88
39360,note_on,60,0,1,,,,,,,,,0,,,76,0
39360,note_on,0,0,1,,,,,,,,,0,,,72,0
39360,note_on,0,0,1,,,,,,,,,0,,,71,88
39360,note_on,0,0,1,,,,,,,,,0,,,74,88
39480,note_on,0,0,1,,,,,,,,,0,,,74,88
39480,note_on,0,0,3,,,,,,,,,2,,,64,75
39480,note_on,360,0,3,,,,,,,,,2,,,64,0
39480,note_on,0,0,1,,,,,,,,,0,,,71,88
39480,note_on,0,0,1,,,,,,,,,0,,,71,0
39480,note_on,120,0,1,,,,,,,,,0,,,74,0
39492,note_on,12,0,1,,,,,,,,,0,,,74,0
39492,note_on,0,0,1,,,,,,,,,0,,,71,0
39600,note_on,108,0,1,,,,,,,,,0,,,63,88
39600,note_on,0,0,1,,,,,,,,,0,,,69,88
39600,note_on,0,0,1,,,,,,,,,0,,,72,88
39612,note_on,0,0,1,,,,,,,,,0,,,63,0
39612,note_on,12,0,1,,,,,,,,,0,,,72,0
39612,note_on,0,0,1,,,,,,,,,0,,,69,0
39720,note_on,240,0,3,,,,,,,,,2,,,64,0
39720,note_on,108,0,1,,,,,,,,,0,,,64,88
39720,note_on,0,0,1,,,,,,,,,0,,,68,88
39720,note_on,0,0,1,,,,,,,,,0,,,71,88
39840,note_on,120,0,3,,,,,,,,,2,,,52,75
39960,note_on,0,0,1,,,,,,,,,0,,,59,88
39960,note_on,0,0,1,,,,,,,,,0,,,56,88
39960,note_on,240,0,1,,,,,,,,,0,,,71,0
39960,note_on,0,0,1,,,,,,,,,0,,,68,0
39960,note_on,0,0,1,,,,,,,,,0,,,64,0
40020,note_on,0,0,1,,,,,,,,,0,,,56,88
40020,note_on,0,0,1,,,,,,,,,0,,,59,88
40020,note_on,60,0,1,,,,,,,,,0,,,59,0
40020,note_on,0,0,1,,,,,,,,,0,,,56,0
40080,note_on,60,0,1,,,,,,,,,0,,,59,0
40080,note_on,0,0,1,,,,,,,,,0,,,56,0
40080,note_on,0,0,1,,,,,,,,,0,,,57,88
40080,note_on,0,0,1,,,,,,,,,0,,,60,88
40200,note_on,360,0,3,,,,,,,,,2,,,52,0
40200,note_on,0,0,3,,,,,,,,,2,,,52,75
40320,note_on,240,0,1,,,,,,,,,0,,,60,0
40320,note_on,0,0,1,,,,,,,,,0,,,57,0
40320,note_on,0,0,1,,,,,,,,,0,,,56,88
40320,note_on,0,0,1,,,,,,,,,0,,,59,88
40380,note_on,60,0,1,,,,,,,,,0,,,59,0
40380,note_on,0,0,1,,,,,,,,,0,,,56,0
40380,note_on,0,0,1,,,,,,,,,0,,,56,88
40380,note_on,0,0,1,,,,,,,,,0,,,59,88
40440,note_on,60,0,1,,,,,,,,,0,,,59,0
40440,control_change,0,0,1,,,,,,,,,0,64,127,,
40440,note_on,0,0,1,,,,,,,,,0,,,56,0
40440,note_on,0,0,1,,,,,,,,,0,,,62,106
40440,note_on,0,0,1,,,,,,,,,0,,,65,114
40560,note_on,360,0,3,,,,,,,,,2,,,52,0
40560,note_on,0,0,3,,,,,,,,,2,,,52,75
40680,note_on,240,0,1,,,,,,,,,0,,,65,0
40680,note_on,0,0,1,,,,,,,,,0,,,62,0
40680,note_on,0,0,1,,,,,,,,,0,,,60,88
40680,note_on,0,0,1,,,,,,,,,0,,,64,88
40740,note_on,60,0,1,,,,,,,,,0,,,64,0
40740,note_on,0,0,1,,,,,,,,,0,,,60,0
40740,note_on,0,0,1,,,,,,,,,0,,,60,88
40740,note_on,0,0,1,,,,,,,,,0,,,64,88
40740,control_change,0,0,1,,,,,,,,,0,64,0,,
40800,note_on,0,0,1,,,,,,,,,0,,,62,88
40800,note_on,60,0,1,,,,,,,,,0,,,64,0
40800,note_on,0,0,1,,,,,,,,,0,,,59,88
40800,note_on,0,0,1,,,,,,,,,0,,,60,0
40920,note_on,0,0,1,,,,,,,,,0,,,59,88
40920,note_on,0,0,3,,,,,,,,,2,,,52,75
40920,note_on,360,0,3,,,,,,,,,2,,,52,0
40920,note_on,120,0,1,,,,,,,,,0,,,62,0
40920,note_on,0,0,1,,,,,,,,,0,,,59,0
40920,note_on,0,0,1,,,,,,,,,0,,,62,88
40932,note_on,12,0,1,,,,,,,,,0,,,62,0
40932,note_on,12,0,3,,,,,,,,,2,,,52,0
40932,note_on,0,0,1,,,,,,,,,0,,,59,0
41040,note_on,108,0,1,,,,,,,,,0,,,57,88
41040,note_on,0,0,1,,,,,,,,,0,,,60,88
41040,note_on,108,0,3,,,,,,,,,2,,,51,75
41052,note_on,12,0,1,,,,,,,,,0,,,60,0
41052,note_on,12,0,3,,,,,,,,,2,,,51,0
41052,note_on,0,0,1,,,,,,,,,0,,,57,0
41160,note_on,108,0,1,,,,,,,,,0,,,52,88
41160,note_on,0,0,1,,,,,,,,,0,,,56,88
41160,note_on,0,0,1,,,,,,,,,0,,,59,88
41280,note_on,228,0,3,,,,,,,,,2,,,40,75
41400,note_on,0,0,1,,,,,,,,,0,,,52,0
41400,note_on,0,0,1,,,,,,,,,0,,,51,49
41400,note_on,0,0,1,,,,,,,,,0,,,57,49
41400,note_on,0,0,1,,,,,,,,,0,,,60,49
41400,note_on,240,0,1,,,,,,,,,0,,,59,0
41400,note_on,0,0,1,,,,,,,,,0,,,56,0
41460,note_on,60,0,1,,,,,,,,,0,,,60,0
41460,note_on,0,0,1,,,,,,,,,0,,,51,0
41460,note_on,0,0,1,,,,,,,,,0,,,51,49
41460,note_on,0,0,1,,,,,,,,,0,,,57,49
41460,note_on,0,0,1,,,,,,,,,0,,,60,49
41460,note_on,0,0,1,,,,,,,,,0,,,57,0
41520,note_on,0,0,1,,,,,,,,,0,,,59,49
41520,note_on,60,0,1,,,,,,,,,0,,,60,0
41520,note_on,0,0,1,,,,,,,,,0,,,51,0
41520,note_on,0,0,1,,,,,,,,,0,,,52,49
41520,note_on,0,0,1,,,,,,,,,0,,,56,49
41520,note_on,0,0,1,,,,,,,,,0,,,57,0
41640,note_on,360,0,3,,,,,,,,,2,,,40,0
41640,note_on,0,0,3,,,,,,,,,2,,,40,36
41760,note_on,240,0,1,,,,,,,,,0,,,59,0
41760,note_on,0,0,1,,,,,,,,,0,,,56,0
41760,note_on,0,0,1,,,,,,,,,0,,,52,0
41760,note_on,0,0,1,,,,,,,,,0,,,51,49
41760,note_on,0,0,1,,,,,,,,,0,,,57,49
41760,note_on,0,0,1,,,,,,,,,0,,,60,49
41820,note_on,60,0,1,,,,,,,,,0,,,60,0
41820,note_on,0,0,1,,,,,,,,,0,,,57,0
41820,note_on,0,0,1,,,,,,,,,0,,,51,49
41820,note_on,0,0,1,,,,,,,,,0,,,57,49
41820,note_on,0,0,1,,,,,,,,,0,,,60,49
41820,note_on,0,0,1,,,,,,,,,0,,,51,0
41880,note_on,0,0,1,,,,,,,,,0,,,57,0
41880,note_on,60,0,1,,,,,,,,,0,,,60,0
41880,note_on,0,0,1,,,,,,,,,0,,,59,49
41880,note_on,0,0,1,,,,,,,,,0,,,56,49
41880,note_on,0,0,1,,,,,,,,,0,,,52,49
41880,note_on,0,0,1,,,,,,,,,0,,,51,0
42000,note_on,360,0,3,,,,,,,,,2,,,40,0
42000,note_on,0,0,3,,,,,,,,,2,,,35,62
42120,note_on,0,0,1,,,,,,,,,0,,,56,0
42120,note_on,0,0,1,,,,,,,,,0,,,52,0
42120,note_on,0,0,1,,,,,,,,,0,,,51,49
42120,note_on,0,0,1,,,,,,,,,0,,,57,49
42120,note_on,0,0,1,,,,,,,,,0,,,60,49
42120,note_on,240,0,1,,,,,,,,,0,,,59,0
42180,note_on,0,0,1,,,,,,,,,0,,,57,49
42180,note_on,0,0,1,,,,,,,,,0,,,60,49
42180,note_on,0,0,1,,,,,,,,,0,,,51,49
42180,note_on,0,0,1,,,,,,,,,0,,,51,0
42180,note_on,0,0,1,,,,,,,,,0,,,57,0
42180,note_on,60,0,1,,,,,,,,,0,,,60,0
42240,note_on,0,0,1,,,,,,,,,0,,,59,49
42240,note_on,0,0,1,,,,,,,,,0,,,56,49
42240,note_on,0,0,1,,,,,,,,,0,,,52,49
42240,note_on,0,0,1,,,,,,,,,0,,,51,0
42240,note_on,0,0,1,,,,,,,,,0,,,57,0
42240,note_on,60,0,1,,,,,,,,,0,,,60,0
42360,note_on,360,0,3,,,,,,,,,2,,,35,0
42360,note_on,0,0,3,,,,,,,,,2,,,40,36
42480,note_on,0,0,1,,,,,,,,,0,,,56,0
42480,note_on,0,0,1,,,,,,,,,0,,,52,0
42480,note_on,0,0,1,,,,,,,,,0,,,51,49
42480,note_on,0,0,1,,,,,,,,,0,,,57,49
42480,note_on,0,0,1,,,,,,,,,0,,,60,49
42480,note_on,240,0,1,,,,,,,,,0,,,59,0
42540,note_on,60,0,1,,,,,,,,,0,,,60,0
42540,note_on,0,0,1,,,,,,,,,0,,,57,0
42540,note_on,0,0,1,,,,,,,,,0,,,51,49
42540,note_on,0,0,1,,,,,,,,,0,,,60,49
42540,note_on,0,0,1,,,,,,,,,0,,,57,49
42540,note_on,0,0,1,,,,,,,,,0,,,51,0
42600,note_on,0,0,1,,,,,,,,,0,,,59,49
42600,note_on,0,0,1,,,,,,,,,0,,,56,49
42600,note_on,60,0,1,,,,,,,,,0,,,60,0
42600,note_on,0,0,1,,,,,,,,,0,,,57,0
42600,note_on,0,0,1,,,,,,,,,0,,,51,0
42600,note_on,0,0,1,,,,,,,,,0,,,52,49
42720,note_on,0,0,3,,,,,,,,,2,,,35,75
42720,note_on,360,0,3,,,,,,,,,2,,,40,0
42840,note_on,0,0,1,,,,,,,,,0,,,60,49
42840,note_on,0,0,1,,,,,,,,,0,,,57,49
42840,note_on,0,0,1,,,,,,,,,0,,,51,49
42840,note_on,0,0,1,,,,,,,,,0,,,56,0
42840,note_on,240,0,1,,,,,,,,,0,,,59,0
42840,note_on,0,0,1,,,,,,,,,0,,,52,0
42900,note_on,0,0,1,,,,,,,,,0,,,51,49
42900,note_on,0,0,1,,,,,,,,,0,,,60,49
42900,note_on,0,0,1,,,,,,,,,0,,,57,49
42900,note_on,0,0,1,,,,,,,,,0,,,51,0
42900,note_on,60,0,1,,,,,,,,,0,,,60,0
42900,note_on,0,0,1,,,,,,,,,0,,,57,0
42960,note_on,240,0,3,,,,,,,,,2,,,35,0
42960,note_on,0,0,1,,,,,,,,,0,,,51,0
42960,note_on,0,0,1,,,,,,,,,0,,,56,49
42960,note_on,0,0,1,,,,,,,,,0,,,59,49
42960,note_on,60,0,1,,,,,,,,,0,,,60,0
42960,note_on,0,0,1,,,,,,,,,0,,,57,0
42960,note_on,0,0,3,,,,,,,,,2,,,35,75
42960,note_on,0,0,1,,,,,,,,,0,,,52,49
43080,note_on,120,0,3,,,,,,,,,2,,,35,0
43080,note_on,0,0,3,,,,,,,,,2,,,40,75
43200,note_on,240,0,1,,,,,,,,,0,,,59,0
43200,note_on,0,0,1,,,,,,,,,0,,,69,49
43200,note_on,0,0,1,,,,,,,,,0,,,56,0
43200,note_on,120,0,3,,,,,,,,,2,,,40,0
43200,note_on,0,0,3,,,,,,,,,2,,,57,36
43200,note_on,0,0,1,,,,,,,,,0,,,52,0
43260,note_on,0,0,3,,,,,,,,,2,,,57,36
43260,note_on,60,0,3,,,,,,,,,2,,,57,0
43260,note_on,60,0,1,,,,,,,,,0,,,69,0
43260,note_on,0,0,1,,,,,,,,,0,,,69,49
43320,note_on,0,0,1,,,,,,,,,0,,,71,49
43320,note_on,0,0,1,,,,,,,,,0,,,64,49
43320,note_on,0,0,3,,,,,,,,,2,,,52,36
43320,note_on,60,0,3,,,,,,,,,2,,,57,0
43320,note_on,60,0,1,,,,,,,,,0,,,69,0
43320,note_on,0,0,1,,,,,,,,,0,,,68,49
43560,note_on,0,0,1,,,,,,,,,0,,,64,0
43560,note_on,0,0,1,,,,,,,,,0,,,69,49
43560,note_on,0,0,3,,,,,,,,,2,,,57,36
43560,note_on,240,0,3,,,,,,,,,2,,,52,0
43560,note_on,240,0,1,,,,,,,,,0,,,71,0
43560,note_on,0,0,1,,,,,,,,,0,,,68,0
43620,note_on,60,0,3,,,,,,,,,2,,,57,0
43620,note_on,0,0,3,,,,,,,,,2,,,57,36
43620,note_on,0,0,1,,,,,,,,,0,,,69,49
43620,note_on,60,0,1,,,,,,,,,0,,,69,0
43680,note_on,0,0,1,,,,,,,,,0,,,71,49
43680,note_on,0,0,1,,,,,,,,,0,,,68,49
43680,note_on,60,0,3,,,,,,,,,2,,,57,0
43680,note_on,0,0,1,,,,,,,,,0,,,64,49
43680,note_on,60,0,1,,,,,,,,,0,,,69,0
43680,note_on,0,0,3,,,,,,,,,2,,,52,36
43920,note_on,240,0,1,,,,,,,,,0,,,71,0
43920,note_on,0,0,3,,,,,,,,,2,,,57,36
43920,note_on,0,0,1,,,,,,,,,0,,,64,0
43920,note_on,0,0,1,,,,,,,,,0,,,69,49
43920,note_on,240,0,3,,,,,,,,,2,,,52,0
43920,note_on,0,0,1,,,,,,,,,0,,,68,0
43980,note_on,0,0,1,,,,,,,,,0,,,69,49
43980,note_on,60,0,1,,,,,,,,,0,,,69,0
43980,note_on,60,0,3,,,,,,,,,2,,,57,0
43980,note_on,0,0,3,,,,,,,,,2,,,57,36
44040,note_on,0,0,1,,,,,,,,,0,,,71,49
44040,note_on,0,0,1,,,,,,,,,0,,,64,49
44040,note_on,60,0,1,,,,,,,,,0,,,69,0
44040,note_on,0,0,1,,,,,,,,,0,,,68,49
44040,note_on,60,0,3,,,,,,,,,2,,,57,0
44040,note_on,0,0,3,,,,,,,,,2,,,52,36
44052,note_on,12,0,3,,,,,,,,,2,,,52,0
44160,note_on,120,0,1,,,,,,,,,0,,,71,0
44160,note_on,0,0,1,,,,,,,,,0,,,72,62
44160,note_on,0,0,1,,,,,,,,,0,,,69,62
44160,note_on,0,0,1,,,,,,,,,0,,,64,0
44160,note_on,0,0,1,,,,,,,,,0,,,64,62
44160,note_on,108,0,3,,,,,,,,,2,,,57,49
44160,note_on,0,0,1,,,,,,,,,0,,,68,0
44172,note_on,12,0,1,,,,,,,,,0,,,72,0
44172,note_on,0,0,1,,,,,,,,,0,,,64,0
44172,note_on,0,0,1,,,,,,,,,0,,,69,0
44172,note_on,12,0,3,,,,,,,,,2,,,57,0
44280,note_on,108,0,3,,,,,,,,,2,,,52,62
44280,note_on,0,0,1,,,,,,,,,0,,,71,75
44280,note_on,108,0,1,,,,,,,,,0,,,64,75
44280,note_on,0,0,1,,,,,,,,,0,,,68,75
44292,note_on,0,0,1,,,,,,,,,0,,,68,0
44292,note_on,0,0,1,,,,,,,,,0,,,64,0
44292,note_on,12,0,3,,,,,,,,,2,,,52,0
44292,note_on,12,0,1,,,,,,,,,0,,,71,0
44400,note_on,0,0,1,,,,,,,,,0,,,72,88
44400,note_on,0,0,1,,,,,,,,,0,,,69,88
44400,note_on,108,0,1,,,,,,,,,0,,,64,88
44400,note_on,108,0,3,,,,,,,,,2,,,57,75
44412,note_on,0,0,1,,,,,,,,,0,,,64,0
44412,note_on,0,0,1,,,,,,,,,0,,,69,0
44412,note_on,12,0,1,,,,,,,,,0,,,72,0
44412,note_on,12,0,3,,,,,,,,,2,,,57,0
44520,note_on,108,0,3,,,,,,,,,2,,,32,88
44520,note_on,0,0,3,,,,,,,,,2,,,44,88
44520,note_on,0,0,1,,,,,,,,,0,,,76,101
44520,note_on,0,0,1,,,,,,,,,0,,,71,101
44520,note_on,108,0,1,,,,,,,,,0,,,64,101
44760,note_on,240,0,3,,,,,,,,,2,,,44,0
44760,note_on,0,0,1,,,,,,,,,0,,,72,101
44760,note_on,0,0,1,,,,,,,,,0,,,69,101
44760,note_on,240,0,1,,,,,,,,,0,,,76,0
44760,note_on,0,0,1,,,,,,,,,0,,,64,101
44760,note_on,0,0,1,,,,,,,,,0,,,71,0
44760,note_on,0,0,3,,,,,,,,,2,,,33,88
44760,note_on,0,0,3,,,,,,,,,2,,,32,0
44760,note_on,0,0,3,,,,,,,,,2,,,45,88
44760,note_on,0,0,1,,,,,,,,,0,,,64,0
44880,note_on,120,0,3,,,,,,,,,2,,,45,0
44880,note_on,0,0,3,,,,,,,,,2,,,33,0
44880,note_on,120,0,1,,,,,,,,,0,,,72,0
44880,note_on,0,0,1,,,,,,,,,0,,,69,0
44880,note_on,0,0,1,,,,,,,,,0,,,64,0
45000,note_on,0,0,3,,,,,,,,,2,,,61,36
45000,note_on,120,0,3,,,,,,,,,2,,,57,36
45000,note_on,6720,0,2,,,,,,,,,1,,,64,36
45000,note_on,120,0,1,,,,,,,,,0,,,69,49
45060,note_on,60,0,1,,,,,,,,,0,,,69,0
45060,note_on,0,0,1,,,,,,,,,0,,,69,49
45120,note_on,0,0,1,,,,,,,,,0,,,71,75
45120,note_on,120,0,3,,,,,,,,,2,,,61,0
45120,note_on,0,0,3,,,,,,,,,2,,,57,0
45120,note_on,0,0,3,,,,,,,,,2,,,56,54
45120,note_on,0,0,3,,,,,,,,,2,,,62,62
45120,note_on,0,0,2,,,,,,,,,1,,,64,36
45120,note_on,120,0,2,,,,,,,,,1,,,64,0
45120,key_signature,7200,1,0,,,,,A,,,,,,,,
45120,note_on,60,0,1,,,,,,,,,0,,,69,0
45360,note_on,0,0,3,,,,,,,,,2,,,56,0
45360,note_on,0,0,3,,,,,,,,,2,,,61,36
45360,note_on,0,0,3,,,,,,,,,2,,,57,36
45360,note_on,240,0,1,,,,,,,,,0,,,71,0
45360,note_on,240,0,3,,,,,,,,,2,,,62,0
45360,note_on,0,0,1,,,,,,,,,0,,,69,49
45360,note_on,240,0,2,,,,,,,,,1,,,64,0
45360,note_on,0,0,2,,,,,,,,,1,,,64,36
45420,note_on,60,0,1,,,,,,,,,0,,,69,0
45420,note_on,0,0,1,,,,,,,,,0,,,69,49
45480,note_on,60,0,1,,,,,,,,,0,,,69,0
45480,note_on,0,0,1,,,,,,,,,0,,,71,75
45480,note_on,120,0,3,,,,,,,,,2,,,61,0
45480,note_on,120,0,2,,,,,,,,,1,,,64,0
45480,note_on,0,0,3,,,,,,,,,2,,,57,0
45480,note_on,0,0,3,,,,,,,,,2,,,62,62
45480,note_on,0,0,3,,,,,,,,,2,,,56,54
45480,note_on,0,0,2,,,,,,,,,1,,,64,36
45720,note_on,240,0,3,,,,,,,,,2,,,62,0
45720,note_on,0,0,3,,,,,,,,,2,,,56,0
45720,note_on,0,0,2,,,,,,,,,1,,,64,36
45720,note_on,0,0,3,,,,,,,,,2,,,61,36
45720,note_on,240,0,1,,,,,,,,,0,,,71,0
45720,note_on,0,0,1,,,,,,,,,0,,,69,49
45720,note_on,0,0,3,,,,,,,,,2,,,57,36
45720,note_on,240,0,2,,,,,,,,,1,,,64,0
45780,note_on,60,0,1,,,,,,,,,0,,,69,0
45780,note_on,0,0,1,,,,,,,,,0,,,69,49
45840,note_on,60,0,1,,,,,,,,,0,,,69,0
45840,note_on,0,0,1,,,,,,,,,0,,,71,75
45840,note_on,0,0,3,,,,,,,,,2,,,57,0
45840,note_on,120,0,3,,,,,,,,,2,,,61,0
45840,note_on,0,0,3,,,,,,,,,2,,,62,36
45840,note_on,120,0,2,,,,,,,,,1,,,64,0
45840,note_on,0,0,2,,,,,,,,,1,,,64,36
45840,note_on,0,0,3,,,,,,,,,2,,,56,36
46080,note_on,240,0,3,,,,,,,,,2,,,62,0
46080,note_on,0,0,3,,,,,,,,,2,,,55,36
46080,note_on,0,0,3,,,,,,,,,2,,,56,0
46080,note_on,0,0,2,,,,,,,,,1,,,69,36
46080,note_on,0,0,3,,,,,,,,,2,,,57,36
46080,note_on,240,0,2,,,,,,,,,1,,,64,0
46080,note_on,0,0,1,,,,,,,,,0,,,73,49
46080,note_on,240,0,1,,,,,,,,,0,,,71,0
46080,note_on,0,0,3,,,,,,,,,2,,,64,36
46140,note_on,0,0,1,,,,,,,,,0,,,73,49
46140,note_on,60,0,1,,,,,,,,,0,,,73,0
46200,note_on,120,0,3,,,,,,,,,2,,,64,0
46200,note_on,0,0,2,,,,,,,,,1,,,69,36
46200,note_on,120,0,2,,,,,,,,,1,,,69,0
46200,note_on,0,0,3,,,,,,,,,2,,,55,0
46200,note_on,0,0,3,,,,,,,,,2,,,57,0
46200,note_on,0,0,3,,,,,,,,,2,,,57,36
46200,note_on,0,0,3,,,,,,,,,2,,,62,36
46200,note_on,60,0,1,,,,,,,,,0,,,73,0
46200,note_on,0,0,1,,,,,,,,,0,,,76,49
46200,note_on,0,0,3,,,,,,,,,2,,,54,36
46260,note_on,60,0,1,,,,,,,,,0,,,76,0
46260,note_on,0,0,1,,,,,,,,,0,,,74,49
46320,note_on,0,0,1,,,,,,,,,0,,,73,49
46320,note_on,120,0,2,,,,,,,,,1,,,69,0
46320,note_on,0,0,2,,,,,,,,,1,,,69,36
46320,note_on,60,0,1,,,,,,,,,0,,,74,0
46320,note_on,0,0,3,,,,,,,,,2,,,64,36
46320,note_on,0,0,3,,,,,,,,,2,,,52,36
46320,note_on,0,0,3,,,,,,,,,2,,,54,0
46320,note_on,0,0,3,,,,,,,,,2,,,57,0
46320,note_on,120,0,3,,,,,,,,,2,,,62,0
46332,note_on,12,0,1,,,,,,,,,0,,,73,0
46332,note_on,12,0,2,,,,,,,,,1,,,69,0
46332,note_on,0,0,3,,,,,,,,,2,,,52,0
46332,note_on,12,0,3,,,,,,,,,2,,,64,0
46440,note_on,108,0,2,,,,,,,,,1,,,68,36
46440,note_on,0,0,3,,,,,,,,,2,,,62,36
46440,note_on,108,0,3,,,,,,,,,2,,,52,36
46440,note_on,108,0,1,,,,,,,,,0,,,71,49
46452,note_on,12,0,3,,,,,,,,,2,,,62,0
46452,note_on,0,0,3,,,,,,,,,2,,,52,0
46452,note_on,12,0,2,,,,,,,,,1,,,68,0
46452,note_on,12,0,1,,,,,,,,,0,,,71,0
46560,note_on,108,0,3,,,,,,,,,2,,,57,36
46560,note_on,0,0,3,,,,,,,,,2,,,61,36
46560,note_on,108,0,1,,,,,,,,,0,,,69,49
46680,note_on,0,0,3,,,,,,,,,2,,,57,0
46680,control_change,0,0,3,,,,,,,,,2,64,127,,
46680,note_on,0,0,3,,,,,,,,,2,,,49,88
46680,note_on,0,0,3,,,,,,,,,2,,,61,88
46680,note_on,120,0,1,,,,,,,,,0,,,69,0
46680,control_change,0,0,1,,,,,,,,,0,64,127,,
46680,note_on,0,0,1,,,,,,,,,0,,,64,101
46680,note_on,120,0,3,,,,,,,,,2,,,61,0
46680,note_on,0,0,1,,,,,,,,,0,,,76,101
46920,note_on,0,0,3,,,,,,,,,2,,,49,0
46920,note_on,0,0,3,,,,,,,,,2,,,45,88
46920,note_on,0,0,3,,,,,,,,,2,,,57,88
46920,note_on,240,0,1,,,,,,,,,0,,,76,0
46920,note_on,240,0,3,,,,,,,,,2,,,61,0
46920,note_on,0,0,1,,,,,,,,,0,,,61,101
46920,note_on,0,0,1,,,,,,,,,0,,,73,101
46920,note_on,0,0,1,,,,,,,,,0,,,64,0
46932,note_on,0,0,1,,,,,,,,,0,,,61,0
46932,note_on,12,0,3,,,,,,,,,2,,,57,0
46932,note_on,0,0,3,,,,,,,,,2,,,45,0
46932,note_on,12,0,1,,,,,,,,,0,,,73,0
47040,note_on,108,0,1,,,,,,,,,0,,,57,101
47040,note_on,0,0,1,,,,,,,,,0,,,69,101
47040,note_on,0,0,3,,,,,,,,,2,,,54,88
47040,note_on,108,0,3,,,,,,,,,2,,,42,88
47052,note_on,12,0,1,,,,,,,,,0,,,69,0
47052,note_on,0,0,1,,,,,,,,,0,,,57,0
47052,note_on,0,0,3,,,,,,,,,2,,,42,0
47052,note_on,12,0,3,,,,,,,,,2,,,54,0
47160,note_on,0,0,3,,,,,,,,,2,,,50,88
47160,control_change,108,0,1,,,,,,,,,0,64,0,,
47160,note_on,0,0,1,,,,,,,,,0,,,54,101
47160,control_change,108,0,3,,,,,,,,,2,64,0,,
47160,note_on,0,0,3,,,,,,,,,2,,,38,88
47160,note_on,0,0,1,,,,,,,,,0,,,66,101
47172,note_on,12,0,1,,,,,,,,,0,,,66,0
47172,note_on,0,0,1,,,,,,,,,0,,,54,0
47172,note_on,12,0,3,,,,,,,,,2,,,50,0
47172,note_on,0,0,3,,,,,,,,,2,,,38,0
47280,note_on,0,0,1,,,,,,,,,0,,,62,101
47280,note_on,108,0,1,,,,,,,,,0,,,50,101
47280,note_on,0,0,3,,,,,,,,,2,,,47,88
47280,note_on,108,0,3,,,,,,,,,2,,,35,88
47400,note_on,0,0,3,,,,,,,,,2,,,35,0
47400,note_on,0,0,3,,,,,,,,,2,,,44,75
47400,note_on,0,0,1,,,,,,,,,0,,,74,88
47400,note_on,0,0,1,,,,,,,,,0,,,71,88
47400,note_on,0,0,1,,,,,,,,,0,,,50,0
47400,note_on,120,0,1,,,,,,,,,0,,,62,0
47400,note_on,0,0,3,,,,,,,,,2,,,32,75
47400,note_on,0,0,1,,,,,,,,,0,,,78,88
47400,note_on,120,0,3,,,,,,,,,2,,,47,0
47640,note_on,0,0,1,,,,,,,,,0,,,83,88
47640,note_on,0,0,1,,,,,,,,,0,,,78,88
47640,note_on,0,0,1,,,,,,,,,0,,,74,88
47640,note_on,240,0,1,,,,,,,,,0,,,78,0
47640,note_on,0,0,1,,,,,,,,,0,,,74,0
47640,note_on,0,0,3,,,,,,,,,2,,,66,75
47640,note_on,0,0,3,,,,,,,,,2,,,62,75
47640,note_on,0,0,3,,,,,,,,,2,,,57,75
47640,note_on,0,0,3,,,,,,,,,2,,,32,0
47640,note_on,240,0,3,,,,,,,,,2,,,44,0
47640,note_on,0,0,1,,,,,,,,,0,,,71,0
48120,note_on,0,0,3,,,,,,,,,2,,,57,0
48120,note_on,0,0,3,,,,,,,,,2,,,62,0
48120,note_on,480,0,3,,,,,,,,,2,,,66,0
48180,note_on,0,0,1,,,,,,,,,0,,,74,0
48180,note_on,0,0,1,,,,,,,,,0,,,78,0
48180,note_on,0,0,1,,,,,,,,,0,,,81,36
48180,note_on,540,0,1,,,,,,,,,0,,,83,0
48240,note_on,60,0,1,,,,,,,,,0,,,81,0
48240,note_on,0,0,1,,,,,,,,,0,,,80,36
48300,note_on,60,0,1,,,,,,,,,0,,,80,0
48300,note_on,0,0,1,,,,,,,,,0,,,78,36
48360,note_on,0,0,3,,,,,,,,,2,,,57,36
48360,note_on,60,0,1,,,,,,,,,0,,,78,0
48360,control_change,0,0,1,,,,,,,,,0,64,127,,
48360,note_on,0,0,1,,,,,,,,,0,,,76,36
48360,control_change,240,0,3,,,,,,,,,2,64,127,,
48360,note_on,0,0,3,,,,,,,,,2,,,61,36
48360,note_on,0,0,3,,,,,,,,,2,,,64,36
48420,note_on,0,0,3,,,,,,,,,2,,,57,0
48420,note_on,0,0,3,,,,,,,,,2,,,61,0
48420,note_on,60,0,3,,,,,,,,,2,,,64,0
48480,note_on,60,0,3,,,,,,,,,2,,,73,36
48480,note_on,0,0,1,,,,,,,,,0,,,88,36
48480,note_on,0,0,3,,,,,,,,,2,,,76,36
48480,note_on,120,0,1,,,,,,,,,0,,,76,0
48660,note_on,0,0,1,,,,,,,,,0,,,85,36
48660,note_on,180,0,1,,,,,,,,,0,,,88,0
48720,note_on,0,0,3,,,,,,,,,2,,,69,36
48720,note_on,0,0,3,,,,,,,,,2,,,73,36
48720,note_on,60,0,1,,,,,,,,,0,,,85,0
48720,note_on,0,0,3,,,,,,,,,2,,,73,0
48720,note_on,0,0,1,,,,,,,,,0,,,85,36
48720,note_on,240,0,3,,,,,,,,,2,,,76,0
48732,note_on,12,0,3,,,,,,,,,2,,,73,0
48732,note_on,0,0,3,,,,,,,,,2,,,69,0
48780,note_on,0,0,1,,,,,,,,,0,,,81,36
48780,note_on,60,0,1,,,,,,,,,0,,,85,0
48840,note_on,0,0,1,,,,,,,,,0,,,81,36
48840,control_change,108,0,3,,,,,,,,,2,64,0,,
48840,note_on,60,0,1,,,,,,,,,0,,,81,0
48840,note_on,0,0,3,,,,,,,,,2,,,66,36
48840,note_on,0,0,3,,,,,,,,,2,,,69,36
48840,control_change,0,0,1,,,,,,,,,0,64,0,,
48852,note_on,12,0,3,,,,,,,,,2,,,69,0
48852,note_on,0,0,3,,,,,,,,,2,,,66,0
48900,note_on,60,0,1,,,,,,,,,0,,,81,0
48900,note_on,0,0,1,,,,,,,,,0,,,78,36
48960,note_on,0,0,3,,,,,,,,,2,,,66,36
48960,note_on,108,0,3,,,,,,,,,2,,,62,36
48960,note_on,0,0,1,,,,,,,,,0,,,78,36
48960,note_on,60,0,1,,,,,,,,,0,,,78,0
48972,note_on,12,0,3,,,,,,,,,2,,,66,0
48972,note_on,0,0,3,,,,,,,,,2,,,62,0
49020,note_on,60,0,1,,,,,,,,,0,,,78,0
49020,note_on,0,0,1,,,,,,,,,0,,,74,36
49080,note_on,108,0,3,,,,,,,,,2,,,59,36
49080,note_on,0,0,3,,,,,,,,,2,,,62,36
49080,note_on,60,0,1,,,,,,,,,0,,,74,0
49080,note_on,0,0,1,,,,,,,,,0,,,74,36
49092,note_on,12,0,1,,,,,,,,,0,,,74,0
49092,note_on,12,0,3,,,,,,,,,2,,,62,0
49092,note_on,0,0,3,,,,,,,,,2,,,59,0
49200,note_on,0,0,3,,,,,,,,,2,,,60,57
49200,note_on,108,0,3,,,,,,,,,2,,,57,52
49200,note_on,0,0,3,,,,,,,,,2,,,65,62
49200,note_on,108,0,1,,,,,,,,,0,,,69,52
49200,note_on,0,0,1,,,,,,,,,0,,,77,62
49200,note_on,0,0,1,,,,,,,,,0,,,72,57
49800,note_on,0,0,1,,,,,,,,,0,,,68,49
49800,note_on,0,0,1,,,,,,,,,0,,,69,0
49800,note_on,0,0,1,,,,,,,,,0,,,72,0
49800,note_on,0,0,4,,,,,,,,,3,,,59,36
49800,control_change,30600,0,4,,,,,,,,,3,64,127,,
49800,note_on,600,0,1,,,,,,,,,0,,,77,0
49800,note_on,0,0,1,,,,,,,,,0,,,76,49
49800,note_on,0,0,3,,,,,,,,,2,,,60,0
49800,note_on,0,0,2,,,,,,,,,1,,,71,49
49800,control_change,3348,0,2,,,,,,,,,1,64,127,,
49800,note_on,0,0,3,,,,,,,,,2,,,64,36
49800,note_on,0,0,3,,,,,,,,,2,,,56,36
49800,note_on,0,0,3,,,,,,,,,2,,,57,0
49800,note_on,600,0,3,,,,,,,,,2,,,65,0
49860,note_on,60,0,2,,,,,,,,,1,,,71,0
49860,note_on,60,0,4,,,,,,,,,3,,,59,0
49860,note_on,0,0,4,,,,,,,,,3,,,61,36
49860,note_on,0,0,2,,,,,,,,,1,,,73,49
49920,note_on,60,0,4,,,,,,,,,3,,,61,0
49920,note_on,60,0,2,,,,,,,,,1,,,73,0
49920,note_on,0,0,2,,,,,,,,,1,,,74,62
49920,note_on,0,0,4,,,,,,,,,3,,,62,49
49980,note_on,60,0,2,,,,,,,,,1,,,74,0
49980,note_on,0,0,2,,,,,,,,,1,,,73,62
49980,note_on,60,0,4,,,,,,,,,3,,,62,0
49980,note_on,0,0,4,,,,,,,,,3,,,61,49
50040,note_on,60,0,2,,,,,,,,,1,,,73,0
50040,note_on,0,0,2,,,,,,,,,1,,,71,75
50040,note_on,0,0,4,,,,,,,,,3,,,59,62
50040,note_on,60,0,4,,,,,,,,,3,,,61,0
50100,control_change,0,0,4,,,,,,,,,3,64,0,,
50100,note_on,60,0,4,,,,,,,,,3,,,59,0
50100,note_on,0,0,2,,,,,,,,,1,,,73,75
50100,control_change,0,0,2,,,,,,,,,1,64,0,,
50100,note_on,60,0,2,,,,,,,,,1,,,71,0
50100,note_on,0,0,4,,,,,,,,,3,,,61,62
50160,note_on,60,0,4,,,,,,,,,3,,,61,0
50160,note_on,360,0,3,,,,,,,,,2,,,62,62
50160,note_on,360,0,1,,,,,,,,,0,,,74,96
50160,note_on,60,0,2,,,,,,,,,1,,,73,0
50400,note_on,240,0,3,,,,,,,,,2,,,62,0
50400,note_on,0,0,3,,,,,,,,,2,,,56,0
50400,note_on,0,0,1,,,,,,,,,0,,,73,75
50400,note_on,0,0,1,,,,,,,,,0,,,69,75
50400,note_on,0,0,1,,,,,,,,,0,,,68,0
50400,note_on,240,0,1,,,,,,,,,0,,,74,0
50400,note_on,0,0,3,,,,,,,,,2,,,61,62
50400,note_on,0,0,3,,,,,,,,,2,,,57,62
50520,note_on,0,0,3,,,,,,,,,2,,,64,0
50520,note_on,0,0,3,,,,,,,,,2,,,50,36
50520,note_on,0,0,2,,,,,,,,,1,,,71,36
50520,note_on,120,0,3,,,,,,,,,2,,,61,0
50520,note_on,120,0,1,,,,,,,,,0,,,73,0
50520,note_on,0,0,1,,,,,,,,,0,,,69,0
50520,note_on,0,0,1,,,,,,,,,0,,,76,0
50520,note_on,0,0,1,,,,,,,,,0,,,76,49
50520,note_on,0,0,3,,,,,,,,,2,,,57,0
50520,note_on,360,0,2,,,,,,,,,1,,,66,36
50532,note_on,12,0,3,,,,,,,,,2,,,50,0
50580,note_on,60,0,1,,,,,,,,,0,,,76,0
50580,note_on,0,0,1,,,,,,,,,0,,,74,49
50640,note_on,60,0,1,,,,,,,,,0,,,74,0
50640,note_on,0,0,1,,,,,,,,,0,,,74,49
50640,note_on,108,0,3,,,,,,,,,2,,,52,36
50640,note_on,0,0,2,,,,,,,,,1,,,69,36
50640,note_on,0,0,2,,,,,,,,,1,,,64,36
50640,note_on,0,0,2,,,,,,,,,1,,,66,0
50640,note_on,120,0,2,,,,,,,,,1,,,71,0
50652,note_on,12,0,3,,,,,,,,,2,,,52,0
50700,note_on,60,0,1,,,,,,,,,0,,,74,0
50700,note_on,0,0,1,,,,,,,,,0,,,73,49
50760,note_on,60,0,1,,,,,,,,,0,,,73,0
50760,note_on,0,0,1,,,,,,,,,0,,,73,49
50760,note_on,0,0,2,,,,,,,,,1,,,62,36
50760,note_on,0,0,2,,,,,,,,,1,,,64,0
50760,note_on,120,0,2,,,,,,,,,1,,,69,0
50760,note_on,0,0,2,,,,,,,,,1,,,68,36
50760,note_on,108,0,3,,,,,,,,,2,,,52,36
50772,note_on,12,0,3,,,,,,,,,2,,,52,0
50820,note_on,0,0,1,,,,,,,,,0,,,71,49
50820,note_on,60,0,1,,,,,,,,,0,,,73,0
50880,note_on,0,0,1,,,,,,,,,0,,,69,49
50880,note_on,0,0,1,,,,,,,,,0,,,61,49
50880,note_on,108,0,3,,,,,,,,,2,,,57,36
50880,note_on,0,0,2,,,,,,,,,1,,,62,0
50880,note_on,60,0,1,,,,,,,,,0,,,71,0
50880,note_on,120,0,2,,,,,,,,,1,,,68,0
51000,note_on,0,0,1,,,,,,,,,0,,,61,0
51000,note_on,120,0,1,,,,,,,,,0,,,69,0
51000,note_on,120,0,3,,,,,,,,,2,,,57,0
51120,note_on,120,0,1,,,,,,,,,0,,,76,49
51120,note_on,120,0,3,,,,,,,,,2,,,61,36
51180,note_on,0,0,1,,,,,,,,,0,,,76,49
51180,note_on,60,0,1,,,,,,,,,0,,,76,0
51180,note_on,60,0,3,,,,,,,,,2,,,61,0
51180,note_on,0,0,3,,,,,,,,,2,,,61,36
51240,note_on,0,0,3,,,,,,,,,2,,,49,36
51240,note_on,60,0,3,,,,,,,,,2,,,61,0
51240,note_on,60,0,1,,,,,,,,,0,,,76,0
51240,control_change,0,0,1,,,,,,,,,0,64,127,,
51240,note_on,0,0,1,,,,,,,,,0,,,64,75
51240,control_change,0,0,3,,,,,,,,,2,64,127,,
51480,note_on,240,0,3,,,,,,,,,2,,,49,0
51480,note_on,0,0,3,,,,,,,,,2,,,61,36
51480,note_on,0,0,1,,,,,,,,,0,,,76,49
51480,note_on,240,0,1,,,,,,,,,0,,,64,0
51540,note_on,60,0,1,,,,,,,,,0,,,76,0
51540,note_on,0,0,3,,,,,,,,,2,,,61,36
51540,note_on,0,0,1,,,,,,,,,0,,,76,49
51540,control_change,0,0,3,,,,,,,,,2,64,0,,
51540,note_on,60,0,3,,,,,,,,,2,,,61,0
51540,control_change,0,0,1,,,,,,,,,0,64,0,,
51600,note_on,0,0,3,,,,,,,,,2,,,50,36
51600,control_change,0,0,3,,,,,,,,,2,64,127,,
51600,note_on,60,0,3,,,,,,,,,2,,,61,0
51600,note_on,60,0,1,,,,,,,,,0,,,76,0
51600,control_change,0,0,1,,,,,,,,,0,64,127,,
51600,note_on,0,0,1,,,,,,,,,0,,,66,49
51840,note_on,240,0,3,,,,,,,,,2,,,50,0
51840,note_on,0,0,3,,,,,,,,,2,,,61,36
51840,note_on,240,0,1,,,,,,,,,0,,,66,0
51840,note_on,0,0,1,,,,,,,,,0,,,76,49
51900,note_on,60,0,1,,,,,,,,,0,,,76,0
51900,note_on,60,0,3,,,,,,,,,2,,,61,0
51900,note_on,0,0,1,,,,,,,,,0,,,76,49
51900,control_change,0,0,3,,,,,,,,,2,64,0,,
51900,note_on,0,0,3,,,,,,,,,2,,,61,36
51900,control_change,0,0,1,,,,,,,,,0,64,0,,
51960,note_on,60,0,3,,,,,,,,,2,,,61,0
51960,note_on,0,0,3,,,,,,,,,2,,,52,36
51960,note_on,60,0,1,,,,,,,,,0,,,76,0
51960,note_on,0,0,1,,,,,,,,,0,,,68,49
52020,note_on,60,0,3,,,,,,,,,2,,,52,0
52020,note_on,0,0,3,,,,,,,,,2,,,62,36
52020,note_on,60,0,1,,,,,,,,,0,,,68,0
52020,note_on,0,0,1,,,,,,,,,0,,,76,49
52080,note_on,0,0,1,,,,,,,,,0,,,69,49
52080,note_on,60,0,1,,,,,,,,,0,,,76,0
52080,note_on,60,0,3,,,,,,,,,2,,,62,0
52080,note_on,0,0,3,,,,,,,,,2,,,54,36
52140,note_on,60,0,1,,,,,,,,,0,,,69,0
52140,note_on,0,0,1,,,,,,,,,0,,,76,49
52140,note_on,60,0,3,,,,,,,,,2,,,54,0
52140,note_on,0,0,3,,,,,,,,,2,,,62,36
52200,note_on,60,0,1,,,,,,,,,0,,,76,0
52200,note_on,0,0,1,,,,,,,,,0,,,71,49
52200,note_on,60,0,3,,,,,,,,,2,,,62,0
52200,note_on,0,0,3,,,,,,,,,2,,,56,36
52260,note_on,60,0,3,,,,,,,,,2,,,56,0
52260,note_on,0,0,3,,,,,,,,,2,,,62,36
52260,note_on,60,0,1,,,,,,,,,0,,,71,0
52260,note_on,0,0,1,,,,,,,,,0,,,76,49
52320,note_on,60,0,3,,,,,,,,,2,,,62,0
52320,note_on,0,0,3,,,,,,,,,2,,,57,49
52320,note_on,60,0,1,,,,,,,,,0,,,76,0
52320,note_on,0,0,1,,,,,,,,,0,,,73,62
52380,note_on,60,0,3,,,,,,,,,2,,,57,0
52380,note_on,0,0,3,,,,,,,,,2,,,61,49
52380,note_on,60,0,1,,,,,,,,,0,,,73,0
52380,note_on,0,0,1,,,,,,,,,0,,,76,62
52440,note_on,0,0,1,,,,,,,,,0,,,71,62
52440,note_on,60,0,1,,,,,,,,,0,,,76,0
52440,note_on,60,0,3,,,,,,,,,2,,,61,0
52440,note_on,0,0,3,,,,,,,,,2,,,56,49
52500,note_on,0,0,1,,,,,,,,,0,,,77,62
52500,note_on,0,0,3,,,,,,,,,2,,,61,49
52500,note_on,60,0,3,,,,,,,,,2,,,56,0
52500,note_on,60,0,1,,,,,,,,,0,,,71,0
52560,note_on,0,0,3,,,,,,,,,2,,,54,49
52560,note_on,60,0,3,,,,,,,,,2,,,61,0
52560,note_on,0,0,1,,,,,,,,,0,,,69,62
52560,note_on,60,0,1,,,,,,,,,0,,,77,0
52620,note_on,0,0,3,,,,,,,,,2,,,61,49
52620,note_on,60,0,1,,,,,,,,,0,,,69,0
52620,note_on,60,0,3,,,,,,,,,2,,,54,0
52620,note_on,0,0,1,,,,,,,,,0,,,78,62
52680,note_on,60,0,1,,,,,,,,,0,,,78,0
52680,note_on,0,0,3,,,,,,,,,2,,,50,62
52680,note_on,0,0,1,,,,,,,,,0,,,78,75
52680,note_on,60,0,3,,,,,,,,,2,,,61,0
52740,note_on,0,0,1,,,,,,,,,0,,,83,75
52740,note_on,60,0,1,,,,,,,,,0,,,78,0
52740,note_on,60,0,3,,,,,,,,,2,,,50,0
52740,note_on,0,0,3,,,,,,,,,2,,,59,62
52800,note_on,0,0,1,,,,,,,,,0,,,80,75
52800,note_on,60,0,1,,,,,,,,,0,,,83,0
52800,note_on,0,0,3,,,,,,,,,2,,,52,62
52800,note_on,60,0,3,,,,,,,,,2,,,59,0
52860,note_on,0,0,1,,,,,,,,,0,,,85,75
52860,note_on,60,0,1,,,,,,,,,0,,,80,0
52860,note_on,0,0,3,,,,,,,,,2,,,61,62
52860,note_on,60,0,3,,,,,,,,,2,,,52,0
52920,note_on,60,0,1,,,,,,,,,0,,,85,0
52920,note_on,0,0,3,,,,,,,,,2,,,52,62
52920,note_on,0,0,1,,,,,,,,,0,,,80,75
52920,note_on,60,0,3,,,,,,,,,2,,,61,0
52980,note_on,0,0,3,,,,,,,,,2,,,62,62
52980,note_on,0,0,1,,,,,,,,,0,,,88,75
52980,note_on,60,0,3,,,,,,,,,2,,,52,0
52980,note_on,60,0,1,,,,,,,,,0,,,80,0
53040,note_on,60,0,3,,,,,,,,,2,,,62,0
53040,note_on,0,0,1,,,,,,,,,0,,,81,88
53040,note_on,60,0,1,,,,,,,,,0,,,88,0
53040,note_on,0,0,3,,,,,,,,,2,,,57,75
53040,note_on,0,0,3,,,,,,,,,2,,,61,75
53160,note_on,0,0,3,,,,,,,,,2,,,45,88
53160,note_on,0,0,3,,,,,,,,,2,,,33,88
53160,note_on,120,0,3,,,,,,,,,2,,,61,0
53160,note_on,0,0,3,,,,,,,,,2,,,57,0
53160,note_on,120,0,1,,,,,,,,,0,,,81,0
53280,note_on,120,0,1,,,,,,,,,0,,,68,101
53280,note_on,0,0,1,,,,,,,,,0,,,71,101
53280,note_on,0,0,1,,,,,,,,,0,,,74,101
53280,note_on,0,0,1,,,,,,,,,0,,,76,101
53340,note_on,0,0,1,,,,,,,,,0,,,76,101
53340,note_on,0,0,1,,,,,,,,,0,,,74,101
53340,note_on,0,0,1,,,,,,,,,0,,,68,101
53340,note_on,0,0,1,,,,,,,,,0,,,74,0
53340,note_on,0,0,1,,,,,,,,,0,,,68,0
53340,note_on,0,0,1,,,,,,,,,0,,,71,101
53340,note_on,60,0,1,,,,,,,,,0,,,76,0
53340,note_on,0,0,1,,,,,,,,,0,,,71,0
53400,note_on,0,0,1,,,,,,,,,0,,,68,0
53400,note_on,0,0,1,,,,,,,,,0,,,71,0
53400,note_on,0,0,1,,,,,,,,,0,,,74,0
53400,note_on,0,0,1,,,,,,,,,0,,,73,122
53400,note_on,0,0,1,,,,,,,,,0,,,69,117
53400,note_on,60,0,1,,,,,,,,,0,,,76,0
53400,note_on,0,0,1,,,,,,,,,0,,,76,127
53520,note_on,0,0,3,,,,,,,,,2,,,45,114
53520,note_on,0,0,3,,,,,,,,,2,,,33,106
53520,note_on,0,0,3,,,,,,,,,2,,,33,0
53520,note_on,360,0,3,,,,,,,,,2,,,45,0
53640,note_on,0,0,1,,,,,,,,,0,,,74,101
53640,note_on,0,0,1,,,,,,,,,0,,,73,0
53640,note_on,0,0,1,,,,,,,,,0,,,69,0
53640,note_on,0,0,1,,,,,,,,,0,,,68,101
53640,note_on,0,0,1,,,,,,,,,0,,,76,101
53640,note_on,0,0,1,,,,,,,,,0,,,71,101
53640,note_on,240,0,1,,,,,,,,,0,,,76,0
53700,note_on,0,0,1,,,,,,,,,0,,,76,101
53700,note_on,0,0,1,,,,,,,,,0,,,74,101
53700,note_on,0,0,1,,,,,,,,,0,,,71,101
53700,note_on,0,0,1,,,,,,,,,0,,,68,101
53700,note_on,0,0,1,,,,,,,,,0,,,74,0
53700,note_on,0,0,1,,,,,,,,,0,,,71,0
53700,note_on,0,0,1,,,,,,,,,0,,,68,0
53700,note_on,60,0,1,,,,,,,,,0,,,76,0
53760,note_on,0,0,1,,,,,,,,,0,,,68,0
53760,note_on,0,0,1,,,,,,,,,0,,,76,127
53760,note_on,0,0,1,,,,,,,,,0,,,73,122
53760,note_on,0,0,1,,,,,,,,,0,,,69,117
53760,note_on,0,0,1,,,,,,,,,0,,,74,0
53760,note_on,0,0,1,,,,,,,,,0,,,71,0
53760,note_on,60,0,1,,,,,,,,,0,,,76,0
53880,note_on,360,0,3,,,,,,,,,2,,,45,0
53880,note_on,0,0,3,,,,,,,,,2,,,33,0
53880,note_on,0,0,3,,,,,,,,,2,,,33,106
53880,note_on,0,0,3,,,,,,,,,2,,,45,114
54000,note_on,240,0,1,,,,,,,,,0,,,76,0
54000,note_on,0,0,1,,,,,,,,,0,,,73,0
54000,note_on,0,0,1,,,,,,,,,0,,,69,0
54000,note_on,0,0,1,,,,,,,,,0,,,74,101
54000,note_on,0,0,1,,,,,,,,,0,,,76,101
54000,note_on,0,0,1,,,,,,,,,0,,,80,101
54000,note_on,0,0,1,,,,,,,,,0,,,71,101
54060,note_on,0,0,1,,,,,,,,,0,,,80,101
54060,note_on,0,0,1,,,,,,,,,0,,,74,101
54060,note_on,0,0,1,,,,,,,,,0,,,71,101
54060,note_on,0,0,1,,,,,,,,,0,,,76,0
54060,note_on,0,0,1,,,,,,,,,0,,,74,0
54060,note_on,0,0,1,,,,,,,,,0,,,76,101
54060,note_on,60,0,1,,,,,,,,,0,,,80,0
54060,note_on,0,0,1,,,,,,,,,0,,,71,0
54120,note_on,0,0,1,,,,,,,,,0,,,76,0
54120,note_on,0,0,1,,,,,,,,,0,,,81,127
54120,note_on,0,0,1,,,,,,,,,0,,,76,122
54120,note_on,60,0,1,,,,,,,,,0,,,80,0
54120,note_on,0,0,1,,,,,,,,,0,,,71,0
54120,note_on,0,0,1,,,,,,,,,0,,,74,0
54120,note_on,0,0,1,,,,,,,,,0,,,73,117
54240,note_on,0,0,3,,,,,,,,,2,,,33,106
54240,note_on,360,0,3,,,,,,,,,2,,,45,0
54240,note_on,0,0,3,,,,,,,,,2,,,33,0
54240,note_on,0,0,3,,,,,,,,,2,,,45,114
54360,note_on,0,0,1,,,,,,,,,0,,,80,101
54360,note_on,240,0,1,,,,,,,,,0,,,81,0
54360,note_on,0,0,1,,,,,,,,,0,,,73,0
54360,note_on,0,0,1,,,,,,,,,0,,,76,101
54360,note_on,0,0,1,,,,,,,,,0,,,83,101
54360,note_on,0,0,1,,,,,,,,,0,,,76,0
54420,note_on,0,0,1,,,,,,,,,0,,,80,0
54420,note_on,60,0,1,,,,,,,,,0,,,83,0
54420,note_on,0,0,1,,,,,,,,,0,,,83,101
54420,note_on,0,0,1,,,,,,,,,0,,,76,0
54420,note_on,0,0,1,,,,,,,,,0,,,76,101
54420,note_on,0,0,1,,,,,,,,,0,,,80,101
54480,note_on,60,0,1,,,,,,,,,0,,,83,0
54480,note_on,0,0,1,,,,,,,,,0,,,80,0
54480,note_on,0,0,1,,,,,,,,,0,,,76,0
54480,note_on,0,0,1,,,,,,,,,0,,,76,117
54480,note_on,0,0,1,,,,,,,,,0,,,81,122
54480,note_on,0,0,1,,,,,,,,,0,,,85,127
54480,control_change,0,0,1,,,,,,,,,0,64,127,,
54480,control_change,240,0,3,,,,,,,,,2,64,127,,
54600,note_on,120,0,3,,,,,,,,,2,,,45,0
54600,note_on,0,0,3,,,,,,,,,2,,,33,106
54600,note_on,0,0,3,,,,,,,,,2,,,45,114
54600,note_on,0,0,3,,,,,,,,,2,,,33,0
54720,note_on,0,0,1,,,,,,,,,0,,,76,0
54720,note_on,0,0,1,,,,,,,,,0,,,80,101
54720,note_on,0,0,1,,,,,,,,,0,,,83,101
54720,note_on,0,0,1,,,,,,,,,0,,,86,101
54720,note_on,0,0,1,,,,,,,,,0,,,88,101
54720,note_on,240,0,1,,,,,,,,,0,,,85,0
54720,note_on,0,0,1,,,,,,,,,0,,,81,0
54780,note_on,0,0,1,,,,,,,,,0,,,83,0
54780,note_on,60,0,1,,,,,,,,,0,,,88,0
54780,note_on,0,0,1,,,,,,,,,0,,,80,0
54780,note_on,0,0,1,,,,,,,,,0,,,86,0
54780,note_on,0,0,1,,,,,,,,,0,,,80,101
54780,note_on,0,0,1,,,,,,,,,0,,,83,101
54780,note_on,0,0,1,,,,,,,,,0,,,86,101
54780,note_on,0,0,1,,,,,,,,,0,,,88,101
54840,note_on,0,0,1,,,,,,,,,0,,,80,0
54840,note_on,0,0,1,,,,,,,,,0,,,83,0
54840,note_on,0,0,1,,,,,,,,,0,,,86,0
54840,note_on,60,0,1,,,,,,,,,0,,,88,0
54840,note_on,0,0,1,,,,,,,,,0,,,85,122
54840,note_on,0,0,1,,,,,,,,,0,,,88,127
54840,note_on,0,0,1,,,,,,,,,0,,,81,117
54852,note_on,12,0,1,,,,,,,,,0,,,88,0
54852,note_on,0,0,1,,,,,,,,,0,,,85,0
54852,note_on,0,0,1,,,,,,,,,0,,,81,0
54960,note_on,0,0,3,,,,,,,,,2,,,49,114
54960,note_on,0,0,3,,,,,,,,,2,,,37,106
54960,note_on,0,0,3,,,,,,,,,2,,,33,0
54960,note_on,360,0,3,,,,,,,,,2,,,45,0
54960,note_on,0,0,1,,,,,,,,,0,,,88,127
54960,note_on,0,0,1,,,,,,,,,0,,,85,122
54960,note_on,108,0,1,,,,,,,,,0,,,81,117
54972,note_on,0,0,3,,,,,,,,,2,,,37,0
54972,note_on,12,0,3,,,,,,,,,2,,,49,0
54972,note_on,12,0,1,,,,,,,,,0,,,88,0
54972,note_on,0,0,1,,,,,,,,,0,,,85,0
54972,note_on,0,0,1,,,,,,,,,0,,,81,0
55080,control_change,108,0,1,,,,,,,,,0,64,0,,
55080,note_on,0,0,1,,,,,,,,,0,,,83,115
55080,note_on,0,0,1,,,,,,,,,0,,,86,119
55080,note_on,0,0,1,,,,,,,,,0,,,88,123
55080,note_on,0,0,1,,,,,,,,,0,,,92,127
55080,control_change,108,0,3,,,,,,,,,2,64,0,,
55080,note_on,0,0,3,,,,,,,,,2,,,40,106
55080,note_on,0,0,3,,,,,,,,,2,,,52,114
55092,note_on,0,0,1,,,,,,,,,0,,,83,0
55092,note_on,12,0,1,,,,,,,,,0,,,92,0
55092,note_on,12,0,3,,,,,,,,,2,,,52,0
55092,note_on,0,0,3,,,,,,,,,2,,,40,0
55092,note_on,0,0,1,,,,,,,,,0,,,88,0
55092,note_on,0,0,1,,,,,,,,,0,,,86,0
55200,note_on,0,0,3,,,,,,,,,2,,,45,114
55200,note_on,108,0,3,,,,,,,,,2,,,33,106
55200,note_on,0,0,1,,,,,,,,,0,,,85,101
55200,note_on,0,0,1,,,,,,,,,0,,,88,101
55200,note_on,108,0,1,,,,,,,,,0,,,81,101
55200,note_on,0,0,1,,,,,,,,,0,,,93,101
55212,note_on,12,0,3,,,,,,,,,2,,,45,0
55212,note_on,0,0,3,,,,,,,,,2,,,33,0
55320,note_on,0,0,1,,,,,,,,,0,,,85,0
55320,note_on,108,0,3,,,,,,,,,2,,,64,62
55320,note_on,0,0,1,,,,,,,,,0,,,81,0
55320,note_on,120,0,1,,,,,,,,,0,,,93,0
55320,note_on,0,0,1,,,,,,,,,0,,,88,0
55440,note_on,120,0,1,,,,,,,,,0,,,76,75
55500,note_on,0,0,1,,,,,,,,,0,,,76,75
55500,note_on,60,0,1,,,,,,,,,0,,,76,0
55560,note_on,0,0,1,,,,,,,,,0,,,74,75
55560,note_on,0,0,1,,,,,,,,,0,,,77,75
55560,note_on,60,0,1,,,,,,,,,0,,,76,0
55680,note_on,0,0,3,,,,,,,,,2,,,64,62
55680,note_on,360,0,3,,,,,,,,,2,,,64,0
55800,note_on,240,0,1,,,,,,,,,0,,,77,0
55800,note_on,0,0,1,,,,,,,,,0,,,76,75
55800,note_on,0,0,1,,,,,,,,,0,,,72,75
55800,note_on,0,0,1,,,,,,,,,0,,,74,0
55860,note_on,60,0,1,,,,,,,,,0,,,76,0
55860,note_on,0,0,1,,,,,,,,,0,,,72,0
55860,note_on,0,0,1,,,,,,,,,0,,,72,75
55860,note_on,0,0,1,,,,,,,,,0,,,76,75
55920,note_on,60,0,1,,,,,,,,,0,,,76,0
55920,note_on,0,0,1,,,,,,,,,0,,,72,0
55920,note_on,0,0,1,,,,,,,,,0,,,71,75
55920,note_on,0,0,1,,,,,,,,,0,,,74,75
56040,note_on,0,0,3,,,,,,,,,2,,,64,62
56040,note_on,360,0,3,,,,,,,,,2,,,64,0
56160,note_on,0,0,1,,,,,,,,,0,,,69,75
56160,note_on,0,0,1,,,,,,,,,0,,,72,75
56160,note_on,240,0,1,,,,,,,,,0,,,74,0
56160,note_on,0,0,1,,,,,,,,,0,,,71,0
56220,note_on,60,0,1,,,,,,,,,0,,,72,0
56220,note_on,0,0,1,,,,,,,,,0,,,69,0
56220,note_on,0,0,1,,,,,,,,,0,,,69,75
56220,note_on,0,0,1,,,,,,,,,0,,,72,75
56280,note_on,60,0,1,,,,,,,,,0,,,72,0
56280,note_on,0,0,1,,,,,,,,,0,,,69,0
56280,note_on,0,0,1,,,,,,,,,0,,,71,75
56280,note_on,0,0,1,,,,,,,,,0,,,68,75
56292,note_on,12,0,1,,,,,,,,,0,,,71,0
56292,note_on,0,0,1,,,,,,,,,0,,,68,0
56400,note_on,0,0,1,,,,,,,,,0,,,71,75
56400,note_on,108,0,1,,,,,,,,,0,,,68,75
56400,note_on,360,0,3,,,,,,,,,2,,,64,0
56400,note_on,0,0,3,,,,,,,,,2,,,65,62
56412,note_on,0,0,1,,,,,,,,,0,,,68,0
56412,note_on,12,0,1,,,,,,,,,0,,,71,0
56412,note_on,12,0,3,,,,,,,,,2,,,65,0
56520,note_on,108,0,1,,,,,,,,,0,,,69,75
56520,note_on,0,0,1,,,,,,,,,0,,,72,75
56520,note_on,108,0,3,,,,,,,,,2,,,63,62
56532,note_on,12,0,1,,,,,,,,,0,,,72,0
56532,note_on,12,0,3,,,,,,,,,2,,,63,0
56532,note_on,0,0,1,,,,,,,,,0,,,69,0
56640,note_on,108,0,1,,,,,,,,,0,,,68,75
56640,note_on,0,0,1,,,,,,,,,0,,,71,75
56640,note_on,108,0,3,,,,,,,,,2,,,64,62
56652,note_on,12,0,3,,,,,,,,,2,,,64,0
56652,note_on,12,0,1,,,,,,,,,0,,,71,0
56652,note_on,0,0,1,,,,,,,,,0,,,68,0
56760,note_on,0,0,3,,,,,,,,,2,,,60,62
56760,control_change,108,0,3,,,,,,,,,2,64,127,,
56880,control_change,228,0,1,,,,,,,,,0,64,127,,
56880,note_on,0,0,1,,,,,,,,,0,,,72,75
56940,note_on,60,0,1,,,,,,,,,0,,,72,0
56940,note_on,0,0,1,,,,,,,,,0,,,72,75
57000,note_on,0,0,1,,,,,,,,,0,,,73,75
57000,key_signature,11880,1,0,,,,,C,,,,,,,,
57000,note_on,60,0,1,,,,,,,,,0,,,72,0
57000,note_on,0,0,1,,,,,,,,,0,,,70,75
57120,note_on,360,0,3,,,,,,,,,2,,,60,0
57120,note_on,0,0,3,,,,,,,,,2,,,60,62
57240,note_on,0,0,1,,,,,,,,,0,,,72,75
57240,note_on,0,0,1,,,,,,,,,0,,,70,0
57240,note_on,0,0,1,,,,,,,,,0,,,68,75
57240,note_on,240,0,1,,,,,,,,,0,,,73,0
57300,note_on,60,0,1,,,,,,,,,0,,,72,0
57300,note_on,0,0,1,,,,,,,,,0,,,68,0
57300,note_on,0,0,1,,,,,,,,,0,,,68,75
57300,note_on,0,0,1,,,,,,,,,0,,,72,75
57300,control_change,0,0,1,,,,,,,,,0,64,0,,
57360,note_on,0,0,1,,,,,,,,,0,,,68,0
57360,note_on,0,0,1,,,,,,,,,0,,,67,75
57360,note_on,0,0,1,,,,,,,,,0,,,70,75
57360,note_on,60,0,1,,,,,,,,,0,,,72,0
57360,control_change,240,0,3,,,,,,,,,2,64,0,,
57480,note_on,120,0,3,,,,,,,,,2,,,60,0
57480,note_on,0,0,3,,,,,,,,,2,,,60,62
57600,note_on,0,0,1,,,,,,,,,0,,,68,75
57600,note_on,0,0,1,,,,,,,,,0,,,67,0
57600,note_on,240,0,1,,,,,,,,,0,,,70,0
57600,note_on,0,0,1,,,,,,,,,0,,,65,75
57660,note_on,60,0,1,,,,,,,,,0,,,68,0
57660,note_on,0,0,1,,,,,,,,,0,,,65,0
57660,note_on,0,0,1,,,,,,,,,0,,,65,75
57660,note_on,0,0,1,,,,,,,,,0,,,68,75
57720,note_on,0,0,1,,,,,,,,,0,,,64,75
57720,note_on,60,0,1,,,,,,,,,0,,,68,0
57720,note_on,0,0,1,,,,,,,,,0,,,65,0
57720,note_on,0,0,1,,,,,,,,,0,,,67,75
57840,note_on,0,0,3,,,,,,,,,2,,,61,62
57840,note_on,360,0,3,,,,,,,,,2,,,60,0
57840,note_on,0,0,1,,,,,,,,,0,,,64,0
57840,note_on,0,0,1,,,,,,,,,0,,,64,75
57840,note_on,0,0,1,,,,,,,,,0,,,67,75
57840,note_on,120,0,1,,,,,,,,,0,,,67,0
57852,note_on,12,0,3,,,,,,,,,2,,,61,0
57852,note_on,12,0,1,,,,,,,,,0,,,67,0
57852,note_on,0,0,1,,,,,,,,,0,,,64,0
57960,note_on,0,0,1,,,,,,,,,0,,,68,75
57960,note_on,108,0,1,,,,,,,,,0,,,65,75
57960,note_on,108,0,3,,,,,,,,,2,,,59,62
57972,note_on,0,0,1,,,,,,,,,0,,,65,0
57972,note_on,12,0,1,,,,,,,,,0,,,68,0
57972,note_on,12,0,3,,,,,,,,,2,,,59,0
58080,note_on,108,0,3,,,,,,,,,2,,,60,62
58080,note_on,0,0,1,,,,,,,,,0,,,67,75
58080,note_on,108,0,1,,,,,,,,,0,,,64,75
58080,time_signature,1080,1,0,2,4,24,8,,,,,,,,,
58092,note_on,12,0,3,,,,,,,,,2,,,60,0
58092,note_on,0,0,1,,,,,,,,,0,,,64,0
58092,note_on,12,0,1,,,,,,,,,0,,,67,0
58200,note_on,108,0,3,,,,,,,,,2,,,48,62
58320,note_on,120,0,3,,,,,,,,,2,,,48,0
58320,note_on,0,0,3,,,,,,,,,2,,,48,101
58320,note_on,0,0,3,,,,,,,,,2,,,60,101
58320,time_signature,240,1,0,1,4,24,8,,,,,,,,,
58320,control_change,0,0,3,,,,,,,,,2,64,0,,
58380,note_on,60,0,3,,,,,,,,,2,,,60,0
58380,note_on,0,0,3,,,,,,,,,2,,,48,0
58380,note_on,0,0,3,,,,,,,,,2,,,60,101
58380,note_on,0,0,3,,,,,,,,,2,,,48,101
58440,note_on,60,0,3,,,,,,,,,2,,,60,0
58440,time_signature,120,1,0,3,4,24,8,,,,,,,,,
58440,note_on,0,0,3,,,,,,,,,2,,,48,0
58440,control_change,0,0,3,,,,,,,,,2,64,127,,
58440,note_on,0,0,3,,,,,,,,,2,,,49,101
58440,note_on,0,0,3,,,,,,,,,2,,,61,101
58560,note_on,0,0,1,,,,,,,,,0,,,75,88
58560,note_on,468,0,1,,,,,,,,,0,,,63,88
58560,note_on,0,0,1,,,,,,,,,0,,,67,88
58560,note_on,0,0,1,,,,,,,,,0,,,70,88
58680,note_on,0,0,3,,,,,,,,,2,,,49,0
58680,note_on,0,0,3,,,,,,,,,2,,,48,101
58680,note_on,0,0,3,,,,,,,,,2,,,60,101
58680,note_on,240,0,3,,,,,,,,,2,,,61,0
58740,note_on,60,0,3,,,,,,,,,2,,,60,0
58740,note_on,0,0,3,,,,,,,,,2,,,48,0
58740,control_change,0,0,3,,,,,,,,,2,64,0,,
58740,note_on,0,0,3,,,,,,,,,2,,,48,101
58740,note_on,0,0,3,,,,,,,,,2,,,60,101
58800,note_on,0,0,3,,,,,,,,,2,,,49,101
58800,note_on,60,0,3,,,,,,,,,2,,,60,0
58800,control_change,0,0,3,,,,,,,,,2,64,127,,
58800,note_on,0,0,3,,,,,,,,,2,,,48,0
58800,note_on,0,0,3,,,,,,,,,2,,,61,101
58920,note_on,0,0,1,,,,,,,,,0,,,75,88
58920,note_on,0,0,1,,,,,,,,,0,,,70,88
58920,note_on,0,0,1,,,,,,,,,0,,,67,88
58920,note_on,0,0,1,,,,,,,,,0,,,63,88
58920,note_on,0,0,1,,,,,,,,,0,,,70,0
58920,note_on,0,0,1,,,,,,,,,0,,,67,0
58920,note_on,0,0,1,,,,,,,,,0,,,63,0
58920,note_on,360,0,1,,,,,,,,,0,,,75,0
59040,note_on,240,0,3,,,,,,,,,2,,,61,0
59040,note_on,0,0,3,,,,,,,,,2,,,49,0
59040,note_on,0,0,3,,,,,,,,,2,,,60,101
59040,note_on,0,0,3,,,,,,,,,2,,,48,101
59100,note_on,0,0,3,,,,,,,,,2,,,60,101
59100,note_on,0,0,3,,,,,,,,,2,,,48,101
59100,control_change,0,0,3,,,,,,,,,2,64,0,,
59100,note_on,0,0,3,,,,,,,,,2,,,48,0
59100,note_on,60,0,3,,,,,,,,,2,,,60,0
59160,note_on,0,0,3,,,,,,,,,2,,,49,101
59160,note_on,0,0,3,,,,,,,,,2,,,61,101
59160,note_on,60,0,3,,,,,,,,,2,,,60,0
59160,note_on,0,0,3,,,,,,,,,2,,,48,0
59160,control_change,0,0,3,,,,,,,,,2,64,127,,
59172,note_on,0,0,3,,,,,,,,,2,,,49,0
59172,note_on,12,0,3,,,,,,,,,2,,,61,0
59280,note_on,108,0,3,,,,,,,,,2,,,46,101
59280,note_on,0,0,1,,,,,,,,,0,,,67,0
59280,note_on,0,0,1,,,,,,,,,0,,,70,0
59280,note_on,0,0,1,,,,,,,,,0,,,63,88
59280,note_on,0,0,1,,,,,,,,,0,,,67,88
59280,note_on,0,0,1,,,,,,,,,0,,,70,88
59280,note_on,0,0,1,,,,,,,,,0,,,75,88
59280,control_change,0,0,1,,,,,,,,,0,64,127,,
59280,note_on,360,0,1,,,,,,,,,0,,,75,0
59280,note_on,0,0,3,,,,,,,,,2,,,58,101
59280,note_on,0,0,1,,,,,,,,,0,,,63,0
59292,note_on,0,0,1,,,,,,,,,0,,,63,0
59292,note_on,0,0,1,,,,,,,,,0,,,67,0
59292,note_on,0,0,1,,,,,,,,,0,,,70,0
59292,note_on,12,0,3,,,,,,,,,2,,,58,0
59292,note_on,12,0,1,,,,,,,,,0,,,75,0
59292,note_on,0,0,3,,,,,,,,,2,,,46,0
59400,note_on,108,0,1,,,,,,,,,0,,,63,88
59400,note_on,0,0,1,,,,,,,,,0,,,67,88
59400,note_on,108,0,3,,,,,,,,,2,,,43,101
59400,note_on,0,0,3,,,,,,,,,2,,,55,101
59400,note_on,0,0,1,,,,,,,,,0,,,75,88
59400,note_on,0,0,1,,,,,,,,,0,,,70,88
59412,note_on,12,0,1,,,,,,,,,0,,,75,0
59412,note_on,0,0,1,,,,,,,,,0,,,63,0
59412,note_on,0,0,1,,,,,,,,,0,,,67,0
59412,note_on,0,0,1,,,,,,,,,0,,,70,0
59412,note_on,0,0,3,,,,,,,,,2,,,43,0
59412,note_on,12,0,3,,,,,,,,,2,,,55,0
59520,note_on,0,0,3,,,,,,,,,2,,,51,88
59520,note_on,0,0,1,,,,,,,,,0,,,75,101
59520,note_on,0,0,1,,,,,,,,,0,,,70,101
59520,note_on,0,0,1,,,,,,,,,0,,,67,101
59520,note_on,108,0,3,,,,,,,,,2,,,39,88
59520,note_on,108,0,1,,,,,,,,,0,,,63,101
59532,note_on,12,0,1,,,,,,,,,0,,,75,0
59532,note_on,0,0,1,,,,,,,,,0,,,70,0
59532,note_on,0,0,1,,,,,,,,,0,,,63,0
59532,note_on,0,0,1,,,,,,,,,0,,,67,0
59532,note_on,0,0,3,,,,,,,,,2,,,39,0
59532,note_on,12,0,3,,,,,,,,,2,,,51,0
59640,note_on,0,0,3,,,,,,,,,2,,,49,88
59640,note_on,108,0,3,,,,,,,,,2,,,37,88
59640,note_on,108,0,1,,,,,,,,,0,,,70,101
59640,note_on,0,0,1,,,,,,,,,0,,,75,101
59640,note_on,0,0,1,,,,,,,,,0,,,79,101
59652,note_on,0,0,3,,,,,,,,,2,,,37,0
59652,note_on,12,0,3,,,,,,,,,2,,,49,0
59652,note_on,0,0,1,,,,,,,,,0,,,70,0
59652,note_on,0,0,1,,,,,,,,,0,,,75,0
59652,note_on,12,0,1,,,,,,,,,0,,,79,0
59760,note_on,108,0,1,,,,,,,,,0,,,75,101
59760,note_on,0,0,1,,,,,,,,,0,,,79,101
59760,note_on,0,0,1,,,,,,,,,0,,,82,101
59760,note_on,108,0,3,,,,,,,,,2,,,34,88
59760,note_on,0,0,3,,,,,,,,,2,,,46,88
59772,note_on,0,0,1,,,,,,,,,0,,,75,0
59772,note_on,0,0,1,,,,,,,,,0,,,79,0
59772,note_on,12,0,1,,,,,,,,,0,,,82,0
59772,note_on,12,0,3,,,,,,,,,2,,,46,0
59772,note_on,0,0,3,,,,,,,,,2,,,34,0
59880,note_on,0,0,1,,,,,,,,,0,,,82,114
59880,note_on,108,0,1,,,,,,,,,0,,,75,114
59880,note_on,0,0,1,,,,,,,,,0,,,85,114
59880,note_on,108,0,3,,,,,,,,,2,,,31,101
59880,note_on,0,0,3,,,,,,,,,2,,,43,101
59892,note_on,12,0,3,,,,,,,,,2,,,43,0
59892,note_on,0,0,3,,,,,,,,,2,,,31,0
59892,note_on,0,0,1,,,,,,,,,0,,,75,0
59892,note_on,0,0,1,,,,,,,,,0,,,82,0
59892,note_on,12,0,1,,,,,,,,,0,,,85,0
60120,control_change,228,0,3,,,,,,,,,2,64,0,,
60120,control_change,228,0,1,,,,,,,,,0,64,0,,
60480,note_on,360,0,1,,,,,,,,,0,,,63,49
60540,note_on,60,0,1,,,,,,,,,0,,,63,0
60540,note_on,0,0,1,,,,,,,,,0,,,63,49
60600,note_on,0,0,2,,,,,,,,,1,,,72,49
60600,note_on,9720,0,2,,,,,,,,,1,,,68,49
60720,control_change,600,0,3,,,,,,,,,2,64,127,,
60720,note_on,0,0,3,,,,,,,,,2,,,44,36
60780,note_on,60,0,3,,,,,,,,,2,,,44,0
60780,note_on,0,0,3,,,,,,,,,2,,,44,36
60840,control_change,0,0,3,,,,,,,,,2,64,0,,
60840,note_on,240,0,2,,,,,,,,,1,,,72,0
60840,note_on,0,0,2,,,,,,,,,1,,,68,0
60840,note_on,0,0,2,,,,,,,,,1,,,67,49
60840,note_on,0,0,2,,,,,,,,,1,,,70,49
60840,note_on,0,0,3,,,,,,,,,2,,,51,36
60840,note_on,60,0,3,,,,,,,,,2,,,44,0
60852,note_on,12,0,3,,,,,,,,,2,,,51,0
60960,note_on,120,0,2,,,,,,,,,1,,,70,0
60960,note_on,0,0,2,,,,,,,,,1,,,72,49
60960,note_on,0,0,1,,,,,,,,,0,,,63,49
60960,note_on,420,0,1,,,,,,,,,0,,,63,0
60960,note_on,0,0,2,,,,,,,,,1,,,67,0
60960,note_on,0,0,2,,,,,,,,,1,,,68,49
61080,control_change,228,0,3,,,,,,,,,2,64,127,,
61080,note_on,0,0,3,,,,,,,,,2,,,44,36
61140,note_on,60,0,3,,,,,,,,,2,,,44,0
61140,note_on,0,0,3,,,,,,,,,2,,,44,36
61200,note_on,0,0,3,,,,,,,,,2,,,51,36
61200,control_change,0,0,3,,,,,,,,,2,64,0,,
61200,note_on,60,0,3,,,,,,,,,2,,,44,0
61200,note_on,0,0,2,,,,,,,,,1,,,67,49
61200,note_on,0,0,2,,,,,,,,,1,,,68,0
61200,note_on,0,0,2,,,,,,,,,1,,,70,49
61200,note_on,240,0,2,,,,,,,,,1,,,72,0
61212,note_on,12,0,3,,,,,,,,,2,,,51,0
61320,note_on,360,0,1,,,,,,,,,0,,,63,0
61320,note_on,0,0,1,,,,,,,,,0,,,65,49
61320,note_on,120,0,2,,,,,,,,,1,,,70,0
61320,note_on,0,0,2,,,,,,,,,1,,,67,0
61320,note_on,0,0,1,,,,,,,,,0,,,70,49
61320,note_on,0,0,1,,,,,,,,,0,,,73,49
61320,note_on,108,0,3,,,,,,,,,2,,,46,36
61332,note_on,12,0,3,,,,,,,,,2,,,46,0
61332,note_on,12,0,1,,,,,,,,,0,,,73,0
61332,note_on,0,0,1,,,,,,,,,0,,,70,0
61332,note_on,0,0,1,,,,,,,,,0,,,65,0
61440,note_on,108,0,1,,,,,,,,,0,,,65,49
61440,note_on,0,0,1,,,,,,,,,0,,,73,49
61440,note_on,0,0,1,,,,,,,,,0,,,70,49
61440,note_on,108,0,3,,,,,,,,,2,,,49,36
61452,note_on,12,0,3,,,,,,,,,2,,,49,0
61452,note_on,0,0,1,,,,,,,,,0,,,70,0
61452,note_on,0,0,1,,,,,,,,,0,,,65,0
61452,note_on,12,0,1,,,,,,,,,0,,,73,0
61560,note_on,108,0,3,,,,,,,,,2,,,53,36
61560,note_on,108,0,1,,,,,,,,,0,,,65,49
61560,note_on,0,0,1,,,,,,,,,0,,,69,49
61560,note_on,0,0,1,,,,,,,,,0,,,72,49
61572,note_on,12,0,3,,,,,,,,,2,,,53,0
61572,note_on,12,0,1,,,,,,,,,0,,,72,0
61572,note_on,0,0,1,,,,,,,,,0,,,69,0
61572,note_on,0,0,1,,,,,,,,,0,,,65,0
61680,note_on,0,0,1,,,,,,,,,0,,,73,49
61680,note_on,108,0,1,,,,,,,,,0,,,70,49
61680,note_on,360,0,2,,,,,,,,,1,,,65,49
61800,control_change,228,0,3,,,,,,,,,2,64,127,,
61800,note_on,0,0,3,,,,,,,,,2,,,46,36
61860,note_on,60,0,3,,,,,,,,,2,,,46,0
61860,note_on,0,0,3,,,,,,,,,2,,,46,36
61920,note_on,0,0,3,,,,,,,,,2,,,53,36
61920,note_on,60,0,3,,,,,,,,,2,,,46,0
61920,note_on,240,0,1,,,,,,,,,0,,,73,0
61920,note_on,0,0,1,,,,,,,,,0,,,70,0
61920,note_on,0,0,1,,,,,,,,,0,,,69,49
61920,note_on,0,0,1,,,,,,,,,0,,,72,49
61920,control_change,0,0,3,,,,,,,,,2,64,0,,
61932,note_on,12,0,3,,,,,,,,,2,,,53,0
62040,note_on,360,0,2,,,,,,,,,1,,,65,0
62040,note_on,120,0,1,,,,,,,,,0,,,72,0
62040,note_on,0,0,1,,,,,,,,,0,,,69,0
62040,note_on,0,0,1,,,,,,,,,0,,,73,49
62040,note_on,0,0,1,,,,,,,,,0,,,77,49
62040,note_on,0,0,2,,,,,,,,,1,,,68,49
62160,note_on,0,0,3,,,,,,,,,2,,,49,36
62160,control_change,228,0,3,,,,,,,,,2,64,127,,
62220,note_on,0,0,3,,,,,,,,,2,,,49,36
62220,note_on,60,0,3,,,,,,,,,2,,,49,0
62280,note_on,0,0,1,,,,,,,,,0,,,75,49
62280,note_on,0,0,1,,,,,,,,,0,,,73,0
62280,note_on,240,0,1,,,,,,,,,0,,,77,0
62280,note_on,0,0,3,,,,,,,,,2,,,56,36
62280,control_change,0,0,3,,,,,,,,,2,64,0,,
62280,note_on,60,0,3,,,,,,,,,2,,,49,0
62280,note_on,0,0,1,,,,,,,,,0,,,72,49
62292,note_on,12,0,3,,,,,,,,,2,,,56,0
62400,note_on,120,0,1,,,,,,,,,0,,,75,0
62400,note_on,0,0,1,,,,,,,,,0,,,72,0
62400,note_on,0,0,1,,,,,,,,,0,,,73,49
62400,note_on,360,0,2,,,,,,,,,1,,,68,0
62400,note_on,0,0,2,,,,,,,,,1,,,68,49
62400,note_on,0,0,1,,,,,,,,,0,,,77,49
62520,control_change,228,0,3,,,,,,,,,2,64,127,,
62520,note_on,0,0,3,,,,,,,,,2,,,49,36
62580,note_on,0,0,3,,,,,,,,,2,,,49,36
62580,note_on,60,0,3,,,,,,,,,2,,,49,0
62640,note_on,240,0,1,,,,,,,,,0,,,77,0
62640,note_on,0,0,1,,,,,,,,,0,,,73,0
62640,control_change,0,0,3,,,,,,,,,2,64,0,,
62640,note_on,60,0,3,,,,,,,,,2,,,49,0
62640,note_on,0,0,1,,,,,,,,,0,,,72,49
62640,note_on,0,0,3,,,,,,,,,2,,,56,36
62640,note_on,0,0,1,,,,,,,,,0,,,75,49
62652,note_on,12,0,3,,,,,,,,,2,,,56,0
62760,note_on,0,0,1,,,,,,,,,0,,,68,49
62760,note_on,0,0,1,,,,,,,,,0,,,72,0
62760,note_on,0,0,1,,,,,,,,,0,,,77,49
62760,note_on,0,0,1,,,,,,,,,0,,,73,49
62760,note_on,360,0,2,,,,,,,,,1,,,68,0
62760,note_on,120,0,1,,,,,,,,,0,,,75,0
62772,note_on,0,0,1,,,,,,,,,0,,,68,0
62772,note_on,0,0,1,,,,,,,,,0,,,73,0
62772,note_on,12,0,1,,,,,,,,,0,,,77,0
62880,note_on,228,0,3,,,,,,,,,2,,,49,36
62880,note_on,108,0,1,,,,,,,,,0,,,68,49
62880,note_on,0,0,1,,,,,,,,,0,,,73,49
62880,note_on,0,0,1,,,,,,,,,0,,,77,49
62892,note_on,12,0,1,,,,,,,,,0,,,77,0
62892,note_on,0,0,1,,,,,,,,,0,,,73,0
62892,note_on,0,0,1,,,,,,,,,0,,,68,0
62892,note_on,12,0,3,,,,,,,,,2,,,49,0
63000,note_on,108,0,3,,,,,,,,,2,,,61,36
63000,note_on,108,0,1,,,,,,,,,0,,,70,49
63000,note_on,0,0,1,,,,,,,,,0,,,75,49
63000,note_on,0,0,1,,,,,,,,,0,,,79,49
63000,note_on,0,0,3,,,,,,,,,2,,,63,36
63012,note_on,12,0,3,,,,,,,,,2,,,63,0
63012,note_on,12,0,1,,,,,,,,,0,,,79,0
63012,note_on,0,0,3,,,,,,,,,2,,,61,0
63012,note_on,0,0,1,,,,,,,,,0,,,70,0
63012,note_on,0,0,1,,,,,,,,,0,,,75,0
63120,note_on,0,0,1,,,,,,,,,0,,,80,62
63120,note_on,0,0,1,,,,,,,,,0,,,75,62
63120,note_on,108,0,1,,,,,,,,,0,,,68,62
63240,control_change,228,0,3,,,,,,,,,2,64,127,,
63240,note_on,0,0,3,,,,,,,,,2,,,63,49
63240,note_on,0,0,3,,,,,,,,,2,,,60,49
63300,note_on,0,0,3,,,,,,,,,2,,,60,49
63300,note_on,0,0,3,,,,,,,,,2,,,60,0
63300,note_on,60,0,3,,,,,,,,,2,,,63,0
63300,note_on,0,0,3,,,,,,,,,2,,,63,49
63360,note_on,0,0,1,,,,,,,,,0,,,68,0
63360,note_on,0,0,3,,,,,,,,,2,,,61,49
63360,note_on,0,0,3,,,,,,,,,2,,,60,0
63360,control_change,0,0,3,,,,,,,,,2,64,0,,
63360,note_on,0,0,3,,,,,,,,,2,,,63,49
63360,note_on,0,0,1,,,,,,,,,0,,,79,62
63360,note_on,0,0,1,,,,,,,,,0,,,75,62
63360,note_on,0,0,1,,,,,,,,,0,,,70,62
63360,note_on,60,0,3,,,,,,,,,2,,,63,0
63360,note_on,0,0,1,,,,,,,,,0,,,75,0
63360,note_on,240,0,1,,,,,,,,,0,,,80,0
63372,note_on,12,0,3,,,,,,,,,2,,,63,0
63372,note_on,0,0,3,,,,,,,,,2,,,61,0
63480,note_on,120,0,1,,,,,,,,,0,,,79,0
63480,note_on,0,0,1,,,,,,,,,0,,,75,0
63480,note_on,0,0,1,,,,,,,,,0,,,70,0
63480,note_on,0,0,1,,,,,,,,,0,,,68,91
63480,note_on,0,0,1,,,,,,,,,0,,,75,96
63480,note_on,0,0,1,,,,,,,,,0,,,80,101
63600,control_change,228,0,3,,,,,,,,,2,64,127,,
63600,note_on,0,0,3,,,,,,,,,2,,,60,62
63600,note_on,0,0,3,,,,,,,,,2,,,63,62
63660,note_on,60,0,3,,,,,,,,,2,,,63,0
63660,note_on,0,0,3,,,,,,,,,2,,,60,0
63660,note_on,0,0,3,,,,,,,,,2,,,63,62
63660,note_on,0,0,3,,,,,,,,,2,,,60,62
63720,note_on,60,0,3,,,,,,,,,2,,,63,0
63720,note_on,0,0,1,,,,,,,,,0,,,75,0
63720,note_on,0,0,1,,,,,,,,,0,,,68,0
63720,note_on,0,0,1,,,,,,,,,0,,,70,75
63720,note_on,0,0,1,,,,,,,,,0,,,79,75
63720,note_on,0,0,3,,,,,,,,,2,,,60,0
63720,control_change,0,0,3,,,,,,,,,2,64,0,,
63720,note_on,0,0,3,,,,,,,,,2,,,61,62
63720,note_on,0,0,3,,,,,,,,,2,,,63,62
63720,note_on,0,0,1,,,,,,,,,0,,,75,75
63720,note_on,240,0,1,,,,,,,,,0,,,80,0
63732,note_on,12,0,3,,,,,,,,,2,,,63,0
63732,note_on,0,0,3,,,,,,,,,2,,,61,0
63840,note_on,0,0,1,,,,,,,,,0,,,80,114
63840,note_on,120,0,1,,,,,,,,,0,,,79,0
63840,note_on,0,0,1,,,,,,,,,0,,,75,0
63840,note_on,0,0,1,,,,,,,,,0,,,75,109
63840,note_on,0,0,1,,,,,,,,,0,,,68,104
63840,note_on,0,0,1,,,,,,,,,0,,,70,0
63852,note_on,0,0,1,,,,,,,,,0,,,75,0
63852,note_on,0,0,1,,,,,,,,,0,,,68,0
63852,note_on,12,0,1,,,,,,,,,0,,,80,0
63960,note_on,108,0,1,,,,,,,,,0,,,68,104
63960,note_on,0,0,1,,,,,,,,,0,,,80,114
63960,note_on,228,0,3,,,,,,,,,2,,,60,93
63960,note_on,0,0,3,,,,,,,,,2,,,63,101
63960,note_on,0,0,1,,,,,,,,,0,,,75,109
63972,note_on,12,0,3,,,,,,,,,2,,,63,0
63972,note_on,0,0,1,,,,,,,,,0,,,68,0
63972,note_on,0,0,1,,,,,,,,,0,,,75,0
63972,note_on,12,0,1,,,,,,,,,0,,,80,0
63972,note_on,0,0,3,,,,,,,,,2,,,60,0
64080,note_on,108,0,1,,,,,,,,,0,,,70,104
64080,note_on,108,0,3,,,,,,,,,2,,,58,93
64080,note_on,0,0,3,,,,,,,,,2,,,63,101
64080,note_on,0,0,1,,,,,,,,,0,,,82,114
64080,note_on,0,0,1,,,,,,,,,0,,,75,109
64092,note_on,12,0,1,,,,,,,,,0,,,82,0
64092,note_on,0,0,1,,,,,,,,,0,,,75,0
64092,note_on,0,0,1,,,,,,,,,0,,,70,0
64092,note_on,0,0,3,,,,,,,,,2,,,58,0
64092,note_on,12,0,3,,,,,,,,,2,,,63,0
64200,note_on,0,0,1,,,,,,,,,0,,,84,114
64200,note_on,0,0,1,,,,,,,,,0,,,75,109
64200,note_on,0,0,3,,,,,,,,,2,,,63,101
64200,note_on,108,0,3,,,,,,,,,2,,,56,93
64200,note_on,108,0,1,,,,,,,,,0,,,72,104
64212,note_on,0,0,3,,,,,,,,,2,,,56,0
64212,note_on,0,0,1,,,,,,,,,0,,,75,0
64212,note_on,0,0,1,,,,,,,,,0,,,72,0
64212,note_on,12,0,3,,,,,,,,,2,,,63,0
64212,note_on,12,0,1,,,,,,,,,0,,,84,0
64320,note_on,0,0,1,,,,,,,,,0,,,80,122
64320,note_on,0,0,1,,,,,,,,,0,,,85,127
64320,note_on,108,0,1,,,,,,,,,0,,,73,117
64320,note_on,108,0,3,,,,,,,,,2,,,53,104
64320,note_on,0,0,3,,,,,,,,,2,,,61,114
64320,note_on,0,0,3,,,,,,,,,2,,,56,109
64332,note_on,0,0,1,,,,,,,,,0,,,73,0
64332,note_on,0,0,1,,,,,,,,,0,,,80,0
64332,note_on,0,0,3,,,,,,,,,2,,,56,0
64332,note_on,0,0,3,,,,,,,,,2,,,53,0
64332,note_on,12,0,3,,,,,,,,,2,,,61,0
64332,note_on,12,0,1,,,,,,,,,0,,,85,0
64440,note_on,108,0,3,,,,,,,,,2,,,51,104
64440,note_on,0,0,3,,,,,,,,,2,,,60,114
64440,note_on,108,0,1,,,,,,,,,0,,,75,117
64440,note_on,0,0,1,,,,,,,,,0,,,80,122
64440,note_on,0,0,1,,,,,,,,,0,,,87,127
64440,note_on,0,0,3,,,,,,,,,2,,,56,109
64452,note_on,0,0,1,,,,,,,,,0,,,80,0
64452,note_on,12,0,3,,,,,,,,,2,,,60,0
64452,note_on,0,0,3,,,,,,,,,2,,,56,0
64452,note_on,0,0,3,,,,,,,,,2,,,51,0
64452,note_on,12,0,1,,,,,,,,,0,,,87,0
64452,note_on,0,0,1,,,,,,,,,0,,,75,0
64560,note_on,0,0,3,,,,,,,,,2,,,59,88
64560,note_on,0,0,1,,,,,,,,,0,,,77,117
64560,note_on,0,0,1,,,,,,,,,0,,,80,122
64560,note_on,0,0,1,,,,,,,,,0,,,89,127
64560,note_on,0,0,3,,,,,,,,,2,,,56,88
64560,control_change,108,0,3,,,,,,,,,2,64,127,,
64560,note_on,0,0,3,,,,,,,,,2,,,50,88
64560,control_change,108,0,1,,,,,,,,,0,64,127,,
64572,note_on,0,0,1,,,,,,,,,0,,,80,0
64572,note_on,0,0,1,,,,,,,,,0,,,77,0
64572,note_on,12,0,1,,,,,,,,,0,,,89,0
64800,note_on,228,0,1,,,,,,,,,0,,,68,101
64860,note_on,0,0,1,,,,,,,,,0,,,68,101
64860,note_on,60,0,1,,,,,,,,,0,,,68,0
64920,note_on,60,0,1,,,,,,,,,0,,,68,0
64920,note_on,0,0,1,,,,,,,,,0,,,71,88
65400,note_on,840,0,3,,,,,,,,,2,,,59,0
65400,note_on,0,0,3,,,,,,,,,2,,,50,0
65400,note_on,0,0,3,,,,,,,,,2,,,56,0
65640,control_change,720,0,1,,,,,,,,,0,64,0,,
65760,note_on,120,0,1,,,,,,,,,0,,,71,0
65880,control_change,480,0,3,,,,,,,,,2,64,0,,
65880,note_on,0,0,3,,,,,,,,,2,,,51,36
65940,note_on,60,0,3,,,,,,,,,2,,,51,0
65940,note_on,0,0,3,,,,,,,,,2,,,51,36
66000,note_on,0,0,3,,,,,,,,,2,,,59,36
66000,note_on,0,0,3,,,,,,,,,2,,,56,36
66000,note_on,60,0,3,,,,,,,,,2,,,51,0
66120,note_on,0,0,1,,,,,,,,,0,,,63,49
66120,control_change,360,0,1,,,,,,,,,0,64,127,,
66180,note_on,60,0,1,,,,,,,,,0,,,63,0
66180,note_on,0,0,1,,,,,,,,,0,,,63,49
66240,note_on,60,0,1,,,,,,,,,0,,,63,0
66240,control_change,0,0,1,,,,,,,,,0,64,0,,
66240,note_on,0,0,1,,,,,,,,,0,,,75,49
66240,note_on,240,0,3,,,,,,,,,2,,,59,0
66240,note_on,0,0,3,,,,,,,,,2,,,56,0
66240,note_on,0,0,3,,,,,,,,,2,,,55,36
66240,note_on,0,0,3,,,,,,,,,2,,,58,36
66360,note_on,0,0,3,,,,,,,,,2,,,59,36
66360,note_on,0,0,3,,,,,,,,,2,,,56,36
66360,note_on,0,0,3,,,,,,,,,2,,,55,0
66360,note_on,120,0,3,,,,,,,,,2,,,58,0
66480,note_on,240,0,1,,,,,,,,,0,,,75,0
66480,note_on,0,0,1,,,,,,,,,0,,,63,49
66540,note_on,0,0,1,,,,,,,,,0,,,63,49
66540,note_on,60,0,1,,,,,,,,,0,,,63,0
66600,note_on,0,0,3,,,,,,,,,2,,,55,36
66600,note_on,60,0,1,,,,,,,,,0,,,63,0
66600,note_on,240,0,3,,,,,,,,,2,,,59,0
66600,note_on,0,0,3,,,,,,,,,2,,,56,0
66600,note_on,0,0,3,,,,,,,,,2,,,58,36
66600,note_on,0,0,1,,,,,,,,,0,,,75,49
66612,note_on,12,0,3,,,,,,,,,2,,,58,0
66612,note_on,0,0,3,,,,,,,,,2,,,55,0
66720,note_on,0,0,3,,,,,,,,,2,,,56,36
66720,note_on,0,0,3,,,,,,,,,2,,,59,36
66720,control_change,108,0,3,,,,,,,,,2,64,127,,
66720,control_change,120,0,1,,,,,,,,,0,64,127,,
66732,note_on,12,0,3,,,,,,,,,2,,,59,0
66732,note_on,0,0,3,,,,,,,,,2,,,56,0
66840,note_on,120,0,1,,,,,,,,,0,,,75,0
66840,note_on,0,0,1,,,,,,,,,0,,,63,49
66840,note_on,0,0,1,,,,,,,,,0,,,75,49
66840,note_on,0,0,3,,,,,,,,,2,,,59,36
66840,note_on,108,0,3,,,,,,,,,2,,,56,36
66852,note_on,12,0,3,,,,,,,,,2,,,59,0
66852,note_on,12,0,1,,,,,,,,,0,,,75,0
66852,note_on,0,0,1,,,,,,,,,0,,,63,0
66852,note_on,0,0,3,,,,,,,,,2,,,56,0
66960,control_change,108,0,3,,,,,,,,,2,64,0,,
66960,note_on,0,0,3,,,,,,,,,2,,,58,36
66960,note_on,0,0,3,,,,,,,,,2,,,61,36
66960,note_on,0,0,3,,,,,,,,,2,,,56,36
66960,control_change,108,0,1,,,,,,,,,0,64,0,,
66960,note_on,0,0,1,,,,,,,,,0,,,67,49
66960,note_on,0,0,1,,,,,,,,,0,,,79,49
66972,note_on,12,0,3,,,,,,,,,2,,,61,0
66972,note_on,0,0,3,,,,,,,,,2,,,58,0
66972,note_on,0,0,3,,,,,,,,,2,,,56,0
66972,note_on,12,0,1,,,,,,,,,0,,,79,0
66972,note_on,0,0,1,,,,,,,,,0,,,67,0
67080,control_change,108,0,3,,,,,,,,,2,64,127,,
67080,note_on,0,0,3,,,,,,,,,2,,,56,36
67080,note_on,0,0,3,,,,,,,,,2,,,59,36
67080,control_change,108,0,1,,,,,,,,,0,64,127,,
67080,note_on,0,0,3,,,,,,,,,2,,,63,36
67080,note_on,0,0,1,,,,,,,,,0,,,80,49
67080,note_on,0,0,1,,,,,,,,,0,,,68,49
67092,note_on,12,0,1,,,,,,,,,0,,,80,0
67092,note_on,0,0,1,,,,,,,,,0,,,68,0
67092,note_on,12,0,3,,,,,,,,,2,,,63,0
67092,note_on,0,0,3,,,,,,,,,2,,,59,0
67092,note_on,0,0,3,,,,,,,,,2,,,56,0
67200,note_on,108,0,3,,,,,,,,,2,,,56,36
67200,note_on,0,0,3,,,,,,,,,2,,,58,36
67200,note_on,0,0,3,,,,,,,,,2,,,61,36
67200,note_on,108,0,1,,,,,,,,,0,,,70,49
67200,note_on,0,0,1,,,,,,,,,0,,,82,49
67212,note_on,0,0,3,,,,,,,,,2,,,56,0
67212,note_on,0,0,3,,,,,,,,,2,,,58,0
67212,note_on,12,0,3,,,,,,,,,2,,,61,0
67212,note_on,12,0,1,,,,,,,,,0,,,82,0
67212,note_on,0,0,1,,,,,,,,,0,,,70,0
67320,note_on,0,0,1,,,,,,,,,0,,,83,49
67320,note_on,0,0,1,,,,,,,,,0,,,71,49
67320,control_change,108,0,1,,,,,,,,,0,64,0,,
67320,note_on,0,0,3,,,,,,,,,2,,,56,36
67320,control_change,108,0,3,,,,,,,,,2,64,0,,
67320,note_on,0,0,3,,,,,,,,,2,,,59,36
67332,note_on,0,0,3,,,,,,,,,2,,,56,0
67332,note_on,12,0,3,,,,,,,,,2,,,59,0
67332,note_on,12,0,1,,,,,,,,,0,,,83,0
67332,note_on,0,0,1,,,,,,,,,0,,,71,0
67440,note_on,0,0,3,,,,,,,,,2,,,56,36
67440,note_on,0,0,3,,,,,,,,,2,,,58,36
67440,note_on,0,0,3,,,,,,,,,2,,,61,36
67440,control_change,108,0,3,,,,,,,,,2,64,127,,
67440,note_on,0,0,1,,,,,,,,,0,,,85,49
67440,note_on,0,0,1,,,,,,,,,0,,,73,49
67440,control_change,108,0,1,,,,,,,,,0,64,127,,
67452,note_on,0,0,3,,,,,,,,,2,,,56,0
67452,note_on,0,0,3,,,,,,,,,2,,,58,0
67452,note_on,12,0,3,,,,,,,,,2,,,61,0
67452,note_on,12,0,1,,,,,,,,,0,,,85,0
67452,note_on,0,0,1,,,,,,,,,0,,,73,0
67560,note_on,0,0,3,,,,,,,,,2,,,59,36
67560,note_on,0,0,3,,,,,,,,,2,,,56,36
67560,control_change,108,0,3,,,,,,,,,2,64,0,,
67560,control_change,108,0,1,,,,,,,,,0,64,0,,
67560,note_on,0,0,1,,,,,,,,,0,,,75,49
67560,note_on,0,0,1,,,,,,,,,0,,,87,49
67560,note_on,0,0,3,,,,,,,,,2,,,63,36
67572,note_on,0,0,3,,,,,,,,,2,,,56,0
67572,note_on,12,0,3,,,,,,,,,2,,,63,0
67572,note_on,12,0,1,,,,,,,,,0,,,87,0
67572,note_on,0,0,1,,,,,,,,,0,,,75,0
67572,note_on,0,0,3,,,,,,,,,2,,,59,0
67680,note_on,0,0,1,,,,,,,,,0,,,88,49
67680,note_on,108,0,3,,,,,,,,,2,,,56,36
67680,note_on,0,0,3,,,,,,,,,2,,,58,36
67680,note_on,0,0,3,,,,,,,,,2,,,61,36
67680,note_on,0,0,3,,,,,,,,,2,,,64,36
67680,note_on,108,0,1,,,,,,,,,0,,,76,49
67692,note_on,12,0,3,,,,,,,,,2,,,64,0
67692,note_on,0,0,3,,,,,,,,,2,,,56,0
67692,note_on,0,0,3,,,,,,,,,2,,,61,0
67692,note_on,0,0,1,,,,,,,,,0,,,76,0
67692,note_on,12,0,1,,,,,,,,,0,,,88,0
67692,note_on,0,0,3,,,,,,,,,2,,,58,0
67800,note_on,0,0,3,,,,,,,,,2,,,56,36
67800,note_on,0,0,3,,,,,,,,,2,,,59,36
67800,note_on,0,0,3,,,,,,,,,2,,,63,36
67800,note_on,0,0,1,,,,,,,,,0,,,87,49
67800,control_change,108,0,3,,,,,,,,,2,64,127,,
67800,note_on,108,0,1,,,,,,,,,0,,,75,49
68040,note_on,240,0,1,,,,,,,,,0,,,87,0
68040,note_on,0,0,1,,,,,,,,,0,,,75,0
68040,note_on,0,0,3,,,,,,,,,2,,,51,36
68040,note_on,240,0,3,,,,,,,,,2,,,63,0
68040,note_on,0,0,3,,,,,,,,,2,,,59,0
68040,note_on,0,0,3,,,,,,,,,2,,,56,0
68100,note_on,0,0,3,,,,,,,,,2,,,51,36
68100,control_change,0,0,3,,,,,,,,,2,64,0,,
68100,note_on,60,0,3,,,,,,,,,2,,,51,0
68160,note_on,0,0,3,,,,,,,,,2,,,56,36
68160,note_on,60,0,3,,,,,,,,,2,,,51,0
68160,note_on,0,0,3,,,,,,,,,2,,,59,36
68280,note_on,240,0,1,,,,,,,,,0,,,63,49
68340,note_on,0,0,1,,,,,,,,,0,,,63,49
68340,note_on,60,0,1,,,,,,,,,0,,,63,0
68400,note_on,240,0,3,,,,,,,,,2,,,59,0
68400,note_on,60,0,1,,,,,,,,,0,,,63,0
68400,note_on,0,0,1,,,,,,,,,0,,,75,49
68400,note_on,0,0,3,,,,,,,,,2,,,55,36
68400,note_on,0,0,3,,,,,,,,,2,,,58,36
68400,note_on,0,0,3,,,,,,,,,2,,,56,0
68520,note_on,120,0,3,,,,,,,,,2,,,58,0
68520,note_on,0,0,3,,,,,,,,,2,,,55,0
68520,note_on,0,0,3,,,,,,,,,2,,,59,36
68520,note_on,0,0,3,,,,,,,,,2,,,56,36
68640,note_on,240,0,1,,,,,,,,,0,,,75,0
68640,note_on,0,0,1,,,,,,,,,0,,,63,49
68700,note_on,60,0,1,,,,,,,,,0,,,63,0
68700,note_on,0,0,1,,,,,,,,,0,,,63,49
68760,note_on,0,0,3,,,,,,,,,2,,,56,0
68760,note_on,0,0,1,,,,,,,,,0,,,75,49
68760,note_on,60,0,1,,,,,,,,,0,,,63,0
68760,note_on,240,0,3,,,,,,,,,2,,,59,0
68760,note_on,0,0,3,,,,,,,,,2,,,58,36
68760,note_on,0,0,3,,,,,,,,,2,,,55,36
68880,note_on,120,0,3,,,,,,,,,2,,,58,0
68880,note_on,0,0,3,,,,,,,,,2,,,55,0
68880,note_on,0,0,3,,,,,,,,,2,,,56,36
68880,note_on,0,0,3,,,,,,,,,2,,,59,36
69000,note_on,240,0,1,,,,,,,,,0,,,75,0
69000,note_on,0,0,3,,,,,,,,,2,,,56,0
69000,note_on,0,0,3,,,,,,,,,2,,,56,36
69000,note_on,0,0,3,,,,,,,,,2,,,59,36
69000,note_on,120,0,3,,,,,,,,,2,,,59,0
69000,note_on,0,0,1,,,,,,,,,0,,,75,49
69000,note_on,0,0,1,,,,,,,,,0,,,63,49
69120,note_on,0,0,3,,,,,,,,,2,,,54,36
69120,note_on,0,0,1,,,,,,,,,0,,,75,49
69120,note_on,0,0,1,,,,,,,,,0,,,63,49
69120,note_on,0,0,3,,,,,,,,,2,,,57,36
69120,note_on,120,0,1,,,,,,,,,0,,,75,0
69120,note_on,0,0,1,,,,,,,,,0,,,63,0
69120,note_on,0,0,3,,,,,,,,,2,,,59,36
69120,note_on,0,0,3,,,,,,,,,2,,,56,0
69120,note_on,120,0,3,,,,,,,,,2,,,59,0
69240,note_on,0,0,1,,,,,,,,,0,,,76,49
69240,note_on,0,0,1,,,,,,,,,0,,,64,49
69240,note_on,0,0,1,,,,,,,,,0,,,63,0
69240,note_on,0,0,3,,,,,,,,,2,,,52,36
69240,note_on,120,0,1,,,,,,,,,0,,,75,0
69240,note_on,120,0,3,,,,,,,,,2,,,59,0
69240,note_on,0,0,3,,,,,,,,,2,,,54,0
69240,note_on,0,0,3,,,,,,,,,2,,,59,36
69240,note_on,0,0,3,,,,,,,,,2,,,55,36
69240,note_on,0,0,3,,,,,,,,,2,,,57,0
69360,note_on,120,0,1,,,,,,,,,0,,,76,0
69360,note_on,0,0,1,,,,,,,,,0,,,64,0
69360,note_on,0,0,1,,,,,,,,,0,,,66,49
69360,note_on,0,0,1,,,,,,,,,0,,,78,49
69360,note_on,0,0,3,,,,,,,,,2,,,52,36
69360,note_on,0,0,3,,,,,,,,,2,,,52,0
69360,note_on,0,0,3,,,,,,,,,2,,,55,0
69360,note_on,0,0,3,,,,,,,,,2,,,54,36
69360,note_on,0,0,3,,,,,,,,,2,,,57,36
69360,note_on,120,0,3,,,,,,,,,2,,,59,0
69372,note_on,12,0,3,,,,,,,,,2,,,57,0
69372,note_on,0,0,3,,,,,,,,,2,,,54,0
69372,note_on,0,0,3,,,,,,,,,2,,,52,0
69372,note_on,0,0,1,,,,,,,,,0,,,66,0
69372,note_on,12,0,1,,,,,,,,,0,,,78,0
69480,note_on,0,0,3,,,,,,,,,2,,,55,36
69480,note_on,108,0,3,,,,,,,,,2,,,52,36
69480,note_on,108,0,1,,,,,,,,,0,,,67,49
69480,note_on,0,0,1,,,,,,,,,0,,,79,49
69492,note_on,12,0,3,,,,,,,,,2,,,55,0
69492,note_on,12,0,1,,,,,,,,,0,,,79,0
69492,note_on,0,0,1,,,,,,,,,0,,,67,0
69492,note_on,0,0,3,,,,,,,,,2,,,52,0
69600,note_on,0,0,3,,,,,,,,,2,,,52,49
69600,note_on,0,0,3,,,,,,,,,2,,,54,49
69600,control_change,108,0,1,,,,,,,,,0,64,127,,
69600,note_on,0,0,1,,,,,,,,,0,,,69,62
69600,note_on,0,0,3,,,,,,,,,2,,,57,49
69600,control_change,108,0,3,,,,,,,,,2,64,127,,
69600,note_on,0,0,1,,,,,,,,,0,,,81,62
69604,note_on,4,0,3,,,,,,,,,2,,,57,0
69604,note_on,0,0,3,,,,,,,,,2,,,52,0
69604,note_on,0,0,3,,,,,,,,,2,,,54,0
69612,note_on,0,0,1,,,,,,,,,0,,,69,0
69612,note_on,12,0,1,,,,,,,,,0,,,81,0
69720,control_change,116,0,3,,,,,,,,,2,64,0,,
69720,note_on,0,0,3,,,,,,,,,2,,,55,62
69720,note_on,0,0,3,,,,,,,,,2,,,59,62
69720,note_on,0,0,3,,,,,,,,,2,,,52,62
69720,control_change,108,0,1,,,,,,,,,0,64,0,,
69720,note_on,0,0,1,,,,,,,,,0,,,83,75
69720,note_on,0,0,1,,,,,,,,,0,,,71,75
69724,note_on,0,0,3,,,,,,,,,2,,,55,0
69724,note_on,4,0,3,,,,,,,,,2,,,59,0
69724,note_on,0,0,3,,,,,,,,,2,,,52,0
69732,note_on,12,0,1,,,,,,,,,0,,,83,0
69732,note_on,0,0,1,,,,,,,,,0,,,71,0
69840,note_on,0,0,1,,,,,,,,,0,,,84,75
69840,note_on,0,0,3,,,,,,,,,2,,,57,62
69840,note_on,0,0,3,,,,,,,,,2,,,60,62
69840,note_on,116,0,3,,,,,,,,,2,,,52,62
69840,note_on,108,0,1,,,,,,,,,0,,,72,75
69844,note_on,4,0,3,,,,,,,,,2,,,60,0
69844,note_on,0,0,3,,,,,,,,,2,,,57,0
69844,note_on,0,0,3,,,,,,,,,2,,,52,0
69852,note_on,0,0,1,,,,,,,,,0,,,72,0
69852,note_on,12,0,1,,,,,,,,,0,,,84,0
69960,note_on,116,0,3,,,,,,,,,2,,,52,36
69960,note_on,0,0,3,,,,,,,,,2,,,55,36
69960,note_on,0,0,1,,,,,,,,,0,,,71,49
69960,note_on,0,0,1,,,,,,,,,0,,,83,49
69960,control_change,108,0,1,,,,,,,,,0,64,127,,
69960,note_on,0,0,3,,,,,,,,,2,,,59,36
70200,note_on,0,0,1,,,,,,,,,0,,,76,36
70200,note_on,0,0,1,,,,,,,,,0,,,71,0
70200,note_on,240,0,1,,,,,,,,,0,,,83,0
70260,note_on,0,0,1,,,,,,,,,0,,,76,36
70260,control_change,0,0,1,,,,,,,,,0,64,0,,
70260,note_on,60,0,1,,,,,,,,,0,,,76,0
70320,note_on,0,0,3,,,,,,,,,2,,,55,0
70320,note_on,0,0,3,,,,,,,,,2,,,52,0
70320,control_change,0,0,1,,,,,,,,,0,64,127,,
70320,note_on,0,0,1,,,,,,,,,0,,,66,36
70320,note_on,360,0,3,,,,,,,,,2,,,59,0
70320,note_on,60,0,1,,,,,,,,,0,,,76,0
70440,note_on,0,0,3,,,,,,,,,2,,,60,36
70440,note_on,0,0,3,,,,,,,,,2,,,54,36
70440,note_on,120,0,3,,,,,,,,,2,,,52,36
70440,note_on,0,0,3,,,,,,,,,2,,,57,36
70560,note_on,240,0,1,,,,,,,,,0,,,66,0
70560,note_on,0,0,1,,,,,,,,,0,,,76,36
70620,note_on,60,0,1,,,,,,,,,0,,,76,0
70620,control_change,0,0,1,,,,,,,,,0,64,0,,
70620,note_on,0,0,1,,,,,,,,,0,,,76,36
70680,note_on,0,0,3,,,,,,,,,2,,,57,0
70680,note_on,0,0,3,,,,,,,,,2,,,52,0
70680,note_on,60,0,1,,,,,,,,,0,,,76,0
70680,note_on,240,0,3,,,,,,,,,2,,,60,0
70680,note_on,0,0,3,,,,,,,,,2,,,54,0
70680,note_on,0,0,1,,,,,,,,,0,,,71,36
70800,note_on,120,0,3,,,,,,,,,2,,,52,36
70800,note_on,0,0,3,,,,,,,,,2,,,55,36
70800,note_on,0,0,3,,,,,,,,,2,,,59,36
70920,note_on,240,0,1,,,,,,,,,0,,,71,0
70920,note_on,0,0,1,,,,,,,,,0,,,83,36
71040,note_on,120,0,1,,,,,,,,,0,,,83,0
71040,note_on,0,0,1,,,,,,,,,0,,,83,36
71040,note_on,240,0,3,,,,,,,,,2,,,59,0
71040,note_on,0,0,3,,,,,,,,,2,,,55,0
71040,note_on,0,0,3,,,,,,,,,2,,,52,0
71040,note_on,0,0,3,,,,,,,,,2,,,52,36
71040,note_on,0,0,3,,,,,,,,,2,,,57,36
71040,note_on,0,0,3,,,,,,,,,2,,,54,36
71052,note_on,12,0,3,,,,,,,,,2,,,57,0
71052,note_on,0,0,3,,,,,,,,,2,,,52,0
71052,note_on,0,0,3,,,,,,,,,2,,,54,0
71100,note_on,60,0,1,,,,,,,,,0,,,83,0
71100,note_on,0,0,1,,,,,,,,,0,,,81,36
71160,note_on,60,0,1,,,,,,,,,0,,,81,0
71160,note_on,0,0,3,,,,,,,,,2,,,59,36
71160,note_on,0,0,1,,,,,,,,,0,,,81,36
71160,note_on,0,0,3,,,,,,,,,2,,,55,36
71160,note_on,108,0,3,,,,,,,,,2,,,52,36
71172,note_on,12,0,3,,,,,,,,,2,,,59,0
71172,note_on,0,0,3,,,,,,,,,2,,,55,0
71172,note_on,0,0,3,,,,,,,,,2,,,52,0
71220,note_on,60,0,1,,,,,,,,,0,,,81,0
71220,note_on,0,0,1,,,,,,,,,0,,,83,36
71280,note_on,0,0,3,,,,,,,,,2,,,60,36
71280,note_on,0,0,1,,,,,,,,,0,,,83,36
71280,note_on,108,0,3,,,,,,,,,2,,,52,36
71280,note_on,0,0,3,,,,,,,,,2,,,57,36
71280,note_on,60,0,1,,,,,,,,,0,,,83,0
71292,note_on,12,0,3,,,,,,,,,2,,,60,0
71292,note_on,0,0,3,,,,,,,,,2,,,57,0
71292,note_on,0,0,3,,,,,,,,,2,,,52,0
71340,note_on,0,0,1,,,,,,,,,0,,,84,36
71340,note_on,60,0,1,,,,,,,,,0,,,83,0
71400,note_on,0,0,3,,,,,,,,,2,,,59,36
71400,note_on,0,0,3,,,,,,,,,2,,,55,36
71400,note_on,108,0,3,,,,,,,,,2,,,52,36
71400,note_on,0,0,1,,,,,,,,,0,,,83,36
71400,control_change,0,0,1,,,,,,,,,0,64,127,,
71400,note_on,60,0,1,,,,,,,,,0,,,84,0
71640,note_on,0,0,1,,,,,,,,,0,,,76,36
71640,note_on,240,0,1,,,,,,,,,0,,,83,0
71700,control_change,0,0,1,,,,,,,,,0,64,0,,
71700,note_on,0,0,1,,,,,,,,,0,,,76,36
71700,note_on,60,0,1,,,,,,,,,0,,,76,0
71760,note_on,0,0,1,,,,,,,,,0,,,66,36
71760,control_change,0,0,1,,,,,,,,,0,64,127,,
71760,note_on,60,0,1,,,,,,,,,0,,,76,0
71760,note_on,360,0,3,,,,,,,,,2,,,59,0
71760,note_on,0,0,3,,,,,,,,,2,,,52,0
71760,note_on,0,0,3,,,,,,,,,2,,,55,0
71880,note_on,0,0,3,,,,,,,,,2,,,60,36
71880,note_on,0,0,3,,,,,,,,,2,,,57,36
71880,note_on,0,0,3,,,,,,,,,2,,,54,36
71880,note_on,120,0,3,,,,,,,,,2,,,52,36
72000,note_on,240,0,1,,,,,,,,,0,,,66,0
72000,note_on,0,0,1,,,,,,,,,0,,,76,36
72060,note_on,60,0,1,,,,,,,,,0,,,76,0
72060,control_change,0,0,1,,,,,,,,,0,64,0,,
72060,note_on,0,0,1,,,,,,,,,0,,,76,36
72120,note_on,0,0,3,,,,,,,,,2,,,52,0
72120,note_on,240,0,3,,,,,,,,,2,,,60,0
72120,note_on,60,0,1,,,,,,,,,0,,,76,0
72120,note_on,0,0,3,,,,,,,,,2,,,54,0
72120,note_on,0,0,3,,,,,,,,,2,,,57,0
72120,note_on,0,0,1,,,,,,,,,0,,,71,36
72180,set_tempo,13740,1,0,,,,,,288462,,,,,,,
72240,note_on,0,0,3,,,,,,,,,2,,,55,36
72240,note_on,0,0,3,,,,,,,,,2,,,59,36
72240,set_tempo,60,1,0,,,,,,300000,,,,,,,
72240,note_on,120,0,3,,,,,,,,,2,,,52,36
72300,set_tempo,60,1,0,,,,,,312500,,,,,,,
72360,set_tempo,60,1,0,,,,,,326087,,,,,,,
72360,note_on,240,0,1,,,,,,,,,0,,,71,0
72360,note_on,0,0,1,,,,,,,,,0,,,76,36
72420,set_tempo,60,1,0,,,,,,340909,,,,,,,
72420,note_on,60,0,1,,,,,,,,,0,,,76,0
72420,note_on,0,0,1,,,,,,,,,0,,,76,36
72480,set_tempo,60,1,0,,,,,,357143,,,,,,,
72480,note_on,60,0,1,,,,,,,,,0,,,76,0
72480,control_change,0,0,1,,,,,,,,,0,64,127,,
72480,note_on,240,0,3,,,,,,,,,2,,,59,0
72480,note_on,0,0,3,,,,,,,,,2,,,55,0
72480,note_on,0,0,3,,,,,,,,,2,,,52,0
72480,note_on,0,0,1,,,,,,,,,0,,,66,36
72540,set_tempo,60,1,0,,,,,,375000,,,,,,,
72600,note_on,120,0,3,,,,,,,,,2,,,52,36
72600,note_on,0,0,3,,,,,,,,,2,,,54,36
72600,note_on,0,0,3,,,,,,,,,2,,,57,36
72600,note_on,0,0,3,,,,,,,,,2,,,60,36
72600,set_tempo,60,1,0,,,,,,394737,,,,,,,
72720,note_on,240,0,1,,,,,,,,,0,,,66,0
72720,note_on,0,0,1,,,,,,,,,0,,,76,36
72780,note_on,60,0,1,,,,,,,,,0,,,76,0
72780,control_change,0,0,1,,,,,,,,,0,64,0,,
72780,note_on,0,0,1,,,,,,,,,0,,,76,36
72840,note_on,60,0,1,,,,,,,,,0,,,76,0
72840,note_on,0,0,1,,,,,,,,,0,,,71,36
72840,note_on,240,0,3,,,,,,,,,2,,,60,0
72840,note_on,0,0,3,,,,,,,,,2,,,52,0
72840,note_on,0,0,3,,,,,,,,,2,,,54,0
72840,note_on,0,0,3,,,,,,,,,2,,,57,0
72960,note_on,120,0,3,,,,,,,,,2,,,52,36
72960,note_on,0,0,3,,,,,,,,,2,,,55,36
72960,note_on,0,0,3,,,,,,,,,2,,,59,36
73080,note_on,240,0,1,,,,,,,,,0,,,71,0
73080,note_on,0,0,1,,,,,,,,,0,,,67,36
73140,note_on,60,0,1,,,,,,,,,0,,,67,0
73140,note_on,0,0,1,,,,,,,,,0,,,71,36
73200,note_on,10440,0,2,,,,,,,,,1,,,66,49
73200,note_on,0,0,3,,,,,,,,,2,,,57,36
73200,note_on,0,0,3,,,,,,,,,2,,,54,36
73200,note_on,0,0,3,,,,,,,,,2,,,45,36
73200,note_on,0,0,3,,,,,,,,,2,,,52,0
73200,note_on,0,0,3,,,,,,,,,2,,,55,0
73200,note_on,240,0,3,,,,,,,,,2,,,59,0
73200,set_tempo,600,1,0,,,,,,277778,,,,,,,
73200,note_on,0,0,1,,,,,,,,,0,,,71,36
73200,note_on,60,0,1,,,,,,,,,0,,,71,0
73212,note_on,0,0,3,,,,,,,,,2,,,54,0
73212,note_on,0,0,3,,,,,,,,,2,,,45,0
73212,note_on,12,0,3,,,,,,,,,2,,,57,0
73260,note_on,60,0,1,,,,,,,,,0,,,71,0
73260,note_on,0,0,1,,,,,,,,,0,,,69,36
73320,note_on,108,0,3,,,,,,,,,2,,,47,36
73320,note_on,0,0,3,,,,,,,,,2,,,59,36
73320,note_on,60,0,1,,,,,,,,,0,,,69,0
73320,note_on,0,0,3,,,,,,,,,2,,,55,36
73320,note_on,0,0,1,,,,,,,,,0,,,69,36
73320,note_on,0,0,2,,,,,,,,,1,,,64,49
73320,note_on,120,0,2,,,,,,,,,1,,,66,0
73332,note_on,0,0,3,,,,,,,,,2,,,55,0
73332,note_on,12,0,3,,,,,,,,,2,,,59,0
73332,note_on,0,0,3,,,,,,,,,2,,,47,0
73380,note_on,0,0,1,,,,,,,,,0,,,67,36
73380,note_on,60,0,1,,,,,,,,,0,,,69,0
73440,note_on,0,0,1,,,,,,,,,0,,,67,36
73440,note_on,120,0,2,,,,,,,,,1,,,64,0
73440,note_on,0,0,2,,,,,,,,,1,,,63,49
73440,note_on,108,0,3,,,,,,,,,2,,,47,36
73440,note_on,0,0,3,,,,,,,,,2,,,57,36
73440,note_on,60,0,1,,,,,,,,,0,,,67,0
73440,note_on,0,0,3,,,,,,,,,2,,,59,36
73452,note_on,12,0,3,,,,,,,,,2,,,59,0
73452,note_on,0,0,3,,,,,,,,,2,,,57,0
73452,note_on,0,0,3,,,,,,,,,2,,,47,0
73500,note_on,60,0,1,,,,,,,,,0,,,67,0
73500,note_on,0,0,1,,,,,,,,,0,,,66,36
73560,note_on,120,0,2,,,,,,,,,1,,,63,0
73560,note_on,0,0,3,,,,,,,,,2,,,59,36
73560,note_on,60,0,1,,,,,,,,,0,,,66,0
73560,note_on,0,0,1,,,,,,,,,0,,,64,36
73560,note_on,0,0,3,,,,,,,,,2,,,55,36
73560,note_on,108,0,3,,,,,,,,,2,,,52,36
73572,note_on,0,0,3,,,,,,,,,2,,,52,0
73572,note_on,12,0,3,,,,,,,,,2,,,59,0
73572,note_on,0,0,3,,,,,,,,,2,,,55,0
73680,note_on,108,0,3,,,,,,,,,2,,,64,75
73680,note_on,120,0,1,,,,,,,,,0,,,64,0
73800,note_on,0,0,1,,,,,,,,,0,,,71,88
73800,note_on,120,0,1,,,,,,,,,0,,,68,88
73860,note_on,0,0,1,,,,,,,,,0,,,68,88
73860,note_on,0,0,1,,,,,,,,,0,,,71,88
73860,note_on,0,0,1,,,,,,,,,0,,,68,0
73860,note_on,60,0,1,,,,,,,,,0,,,71,0
73920,note_on,60,0,1,,,,,,,,,0,,,71,0
73920,note_on,0,0,1,,,,,,,,,0,,,69,88
73920,note_on,0,0,1,,,,,,,,,0,,,68,0
73920,note_on,0,0,1,,,,,,,,,0,,,72,88
74040,note_on,360,0,3,,,,,,,,,2,,,64,0
74040,note_on,0,0,3,,,,,,,,,2,,,64,75
74160,note_on,240,0,1,,,,,,,,,0,,,72,0
74160,note_on,0,0,1,,,,,,,,,0,,,69,0
74160,note_on,0,0,1,,,,,,,,,0,,,68,88
74160,note_on,0,0,1,,,,,,,,,0,,,71,88
74220,note_on,60,0,1,,,,,,,,,0,,,71,0
74220,note_on,0,0,1,,,,,,,,,0,,,68,0
74220,note_on,0,0,1,,,,,,,,,0,,,68,88
74220,note_on,0,0,1,,,,,,,,,0,,,71,88
74280,note_on,0,0,1,,,,,,,,,0,,,77,114
74280,note_on,0,0,1,,,,,,,,,0,,,74,106
74280,note_on,0,0,1,,,,,,,,,0,,,68,0
74280,note_on,60,0,1,,,,,,,,,0,,,71,0
74400,note_on,0,0,3,,,,,,,,,2,,,64,75
74400,note_on,360,0,3,,,,,,,,,2,,,64,0
74520,note_on,240,0,1,,,,,,,,,0,,,77,0
74520,note_on,0,0,1,,,,,,,,,0,,,74,0
74520,note_on,0,0,1,,,,,,,,,0,,,72,88
74520,note_on,0,0,1,,,,,,,,,0,,,76,88
74580,note_on,60,0,1,,,,,,,,,0,,,76,0
74580,note_on,0,0,1,,,,,,,,,0,,,72,0
74580,note_on,0,0,1,,,,,,,,,0,,,76,88
74580,note_on,0,0,1,,,,,,,,,0,,,72,88
74640,note_on,0,0,1,,,,,,,,,0,,,74,88
74640,note_on,60,0,1,,,,,,,,,0,,,76,0
74640,note_on,0,0,1,,,,,,,,,0,,,72,0
74640,note_on,0,0,1,,,,,,,,,0,,,71,88
74760,note_on,0,0,1,,,,,,,,,0,,,71,0
74760,note_on,0,0,1,,,,,,,,,0,,,71,88
74760,note_on,0,0,3,,,,,,,,,2,,,64,75
74760,note_on,360,0,3,,,,,,,,,2,,,64,0
74760,note_on,0,0,1,,,,,,,,,0,,,74,88
74760,note_on,120,0,1,,,,,,,,,0,,,74,0
74772,note_on,12,0,1,,,,,,,,,0,,,74,0
74772,note_on,0,0,1,,,,,,,,,0,,,71,0
74880,note_on,108,0,1,,,,,,,,,0,,,63,88
74880,note_on,0,0,1,,,,,,,,,0,,,69,88
74880,note_on,0,0,1,,,,,,,,,0,,,72,88
74892,note_on,12,0,1,,,,,,,,,0,,,72,0
74892,note_on,0,0,1,,,,,,,,,0,,,69,0
74892,note_on,0,0,1,,,,,,,,,0,,,63,0
75000,note_on,0,0,1,,,,,,,,,0,,,71,88
75000,note_on,108,0,1,,,,,,,,,0,,,64,88
75000,note_on,0,0,1,,,,,,,,,0,,,68,88
75000,note_on,240,0,3,,,,,,,,,2,,,64,0
75120,note_on,120,0,3,,,,,,,,,2,,,52,75
75240,note_on,0,0,1,,,,,,,,,0,,,59,88
75240,note_on,0,0,1,,,,,,,,,0,,,56,88
75240,note_on,0,0,1,,,,,,,,,0,,,68,0
75240,note_on,240,0,1,,,,,,,,,0,,,71,0
75240,note_on,0,0,1,,,,,,,,,0,,,64,0
75300,note_on,60,0,1,,,,,,,,,0,,,59,0
75300,note_on,0,0,1,,,,,,,,,0,,,56,0
75300,note_on,0,0,1,,,,,,,,,0,,,56,88
75300,note_on,0,0,1,,,,,,,,,0,,,59,88
75360,note_on,60,0,1,,,,,,,,,0,,,59,0
75360,note_on,0,0,1,,,,,,,,,0,,,56,0
75360,note_on,0,0,1,,,,,,,,,0,,,57,88
75360,note_on,0,0,1,,,,,,,,,0,,,60,88
75480,note_on,360,0,3,,,,,,,,,2,,,52,0
75480,note_on,0,0,3,,,,,,,,,2,,,52,75
75600,note_on,240,0,1,,,,,,,,,0,,,60,0
75600,note_on,0,0,1,,,,,,,,,0,,,59,88
75600,note_on,0,0,1,,,,,,,,,0,,,57,0
75600,note_on,0,0,1,,,,,,,,,0,,,56,88
75660,note_on,0,0,1,,,,,,,,,0,,,59,88
75660,note_on,0,0,1,,,,,,,,,0,,,56,88
75660,note_on,0,0,1,,,,,,,,,0,,,56,0
75660,note_on,60,0,1,,,,,,,,,0,,,59,0
75720,control_change,0,0,1,,,,,,,,,0,64,127,,
75720,note_on,0,0,1,,,,,,,,,0,,,62,106
75720,note_on,0,0,1,,,,,,,,,0,,,56,0
75720,note_on,60,0,1,,,,,,,,,0,,,59,0
75720,note_on,0,0,1,,,,,,,,,0,,,65,114
75840,note_on,360,0,3,,,,,,,,,2,,,52,0
75840,note_on,0,0,3,,,,,,,,,2,,,52,75
75960,note_on,0,0,1,,,,,,,,,0,,,60,88
75960,note_on,0,0,1,,,,,,,,,0,,,62,0
75960,note_on,240,0,1,,,,,,,,,0,,,65,0
75960,note_on,0,0,1,,,,,,,,,0,,,64,88
76020,note_on,60,0,1,,,,,,,,,0,,,64,0
76020,note_on,0,0,1,,,,,,,,,0,,,60,0
76020,note_on,0,0,1,,,,,,,,,0,,,60,88
76020,note_on,0,0,1,,,,,,,,,0,,,64,88
76020,control_change,0,0,1,,,,,,,,,0,64,0,,
76080,note_on,0,0,1,,,,,,,,,0,,,59,88
76080,note_on,60,0,1,,,,,,,,,0,,,64,0
76080,note_on,0,0,1,,,,,,,,,0,,,60,0
76080,note_on,0,0,1,,,,,,,,,0,,,62,88
76200,note_on,0,0,3,,,,,,,,,2,,,52,75
76200,note_on,360,0,3,,,,,,,,,2,,,52,0
76200,note_on,0,0,1,,,,,,,,,0,,,59,0
76200,note_on,0,0,1,,,,,,,,,0,,,59,88
76200,note_on,0,0,1,,,,,,,,,0,,,62,88
76200,note_on,120,0,1,,,,,,,,,0,,,62,0
76212,note_on,12,0,3,,,,,,,,,2,,,52,0
76212,note_on,0,0,1,,,,,,,,,0,,,59,0
76212,note_on,12,0,1,,,,,,,,,0,,,62,0
76320,note_on,108,0,1,,,,,,,,,0,,,57,88
76320,note_on,108,0,3,,,,,,,,,2,,,51,75
76320,note_on,0,0,1,,,,,,,,,0,,,60,88
76332,note_on,12,0,3,,,,,,,,,2,,,51,0
76332,note_on,12,0,1,,,,,,,,,0,,,60,0
76332,note_on,0,0,1,,,,,,,,,0,,,57,0
76440,note_on,0,0,1,,,,,,,,,0,,,56,88
76440,note_on,108,0,1,,,,,,,,,0,,,52,88
76440,note_on,0,0,1,,,,,,,,,0,,,59,88
76560,note_on,228,0,3,,,,,,,,,2,,,40,75
76680,note_on,0,0,1,,,,,,,,,0,,,51,49
76680,note_on,240,0,1,,,,,,,,,0,,,59,0
76680,note_on,0,0,1,,,,,,,,,0,,,56,0
76680,note_on,0,0,1,,,,,,,,,0,,,52,0
76680,note_on,0,0,1,,,,,,,,,0,,,60,49
76680,note_on,0,0,1,,,,,,,,,0,,,57,49
76740,note_on,0,0,1,,,,,,,,,0,,,51,49
76740,note_on,0,0,1,,,,,,,,,0,,,51,0
76740,note_on,0,0,1,,,,,,,,,0,,,57,0
76740,note_on,60,0,1,,,,,,,,,0,,,60,0
76740,note_on,0,0,1,,,,,,,,,0,,,57,49
76740,note_on,0,0,1,,,,,,,,,0,,,60,49
76800,note_on,60,0,1,,,,,,,,,0,,,60,0
76800,note_on,0,0,1,,,,,,,,,0,,,57,0
76800,note_on,0,0,1,,,,,,,,,0,,,52,49
76800,note_on,0,0,1,,,,,,,,,0,,,56,49
76800,note_on,0,0,1,,,,,,,,,0,,,51,0
76800,note_on,0,0,1,,,,,,,,,0,,,59,49
76920,note_on,360,0,3,,,,,,,,,2,,,40,0
76920,note_on,0,0,3,,,,,,,,,2,,,40,36
77040,note_on,0,0,1,,,,,,,,,0,,,60,49
77040,note_on,0,0,1,,,,,,,,,0,,,57,49
77040,note_on,0,0,1,,,,,,,,,0,,,52,0
77040,note_on,0,0,1,,,,,,,,,0,,,51,49
77040,note_on,240,0,1,,,,,,,,,0,,,59,0
77040,note_on,0,0,1,,,,,,,,,0,,,56,0
77100,note_on,60,0,1,,,,,,,,,0,,,60,0
77100,note_on,0,0,1,,,,,,,,,0,,,57,0
77100,note_on,0,0,1,,,,,,,,,0,,,51,0
77100,note_on,0,0,1,,,,,,,,,0,,,51,49
77100,note_on,0,0,1,,,,,,,,,0,,,57,49
77100,note_on,0,0,1,,,,,,,,,0,,,60,49
77160,note_on,0,0,1,,,,,,,,,0,,,56,49
77160,note_on,0,0,1,,,,,,,,,0,,,51,0
77160,note_on,0,0,1,,,,,,,,,0,,,59,49
77160,note_on,60,0,1,,,,,,,,,0,,,60,0
77160,note_on,0,0,1,,,,,,,,,0,,,57,0
77160,note_on,0,0,1,,,,,,,,,0,,,52,49
77280,note_on,360,0,3,,,,,,,,,2,,,40,0
77280,note_on,0,0,3,,,,,,,,,2,,,35,62
77400,note_on,0,0,1,,,,,,,,,0,,,51,49
77400,note_on,240,0,1,,,,,,,,,0,,,59,0
77400,note_on,0,0,1,,,,,,,,,0,,,56,0
77400,note_on,0,0,1,,,,,,,,,0,,,60,49
77400,note_on,0,0,1,,,,,,,,,0,,,57,49
77400,note_on,0,0,1,,,,,,,,,0,,,52,0
77460,note_on,0,0,1,,,,,,,,,0,,,60,49
77460,note_on,0,0,1,,,,,,,,,0,,,57,49
77460,note_on,0,0,1,,,,,,,,,0,,,51,49
77460,note_on,0,0,1,,,,,,,,,0,,,51,0
77460,note_on,0,0,1,,,,,,,,,0,,,57,0
77460,note_on,60,0,1,,,,,,,,,0,,,60,0
77520,note_on,60,0,1,,,,,,,,,0,,,60,0
77520,note_on,0,0,1,,,,,,,,,0,,,57,0
77520,note_on,0,0,1,,,,,,,,,0,,,51,0
77520,note_on,0,0,1,,,,,,,,,0,,,52,49
77520,note_on,0,0,1,,,,,,,,,0,,,56,49
77520,note_on,0,0,1,,,,,,,,,0,,,59,49
77640,note_on,360,0,3,,,,,,,,,2,,,35,0
77640,note_on,0,0,3,,,,,,,,,2,,,40,36
77760,note_on,0,0,1,,,,,,,,,0,,,52,0
77760,note_on,0,0,1,,,,,,,,,0,,,51,49
77760,note_on,0,0,1,,,,,,,,,0,,,57,49
77760,note_on,0,0,1,,,,,,,,,0,,,60,49
77760,note_on,0,0,1,,,,,,,,,0,,,56,0
77760,note_on,240,0,1,,,,,,,,,0,,,59,0
77820,note_on,0,0,1,,,,,,,,,0,,,57,49
77820,note_on,0,0,1,,,,,,,,,0,,,60,49
77820,note_on,0,0,1,,,,,,,,,0,,,51,0
77820,note_on,60,0,1,,,,,,,,,0,,,60,0
77820,note_on,0,0,1,,,,,,,,,0,,,51,49
77820,note_on,0,0,1,,,,,,,,,0,,,57,0
77880,note_on,60,0,1,,,,,,,,,0,,,60,0
77880,note_on,0,0,1,,,,,,,,,0,,,57,0
77880,note_on,0,0,1,,,,,,,,,0,,,51,0
77880,note_on,0,0,1,,,,,,,,,0,,,52,49
77880,note_on,0,0,1,,,,,,,,,0,,,56,49
77880,note_on,0,0,1,,,,,,,,,0,,,59,49
78000,note_on,0,0,3,,,,,,,,,2,,,35,75
78000,note_on,360,0,3,,,,,,,,,2,,,40,0
78120,note_on,0,0,1,,,,,,,,,0,,,57,49
78120,note_on,0,0,1,,,,,,,,,0,,,60,49
78120,note_on,240,0,1,,,,,,,,,0,,,59,0
78120,note_on,0,0,1,,,,,,,,,0,,,56,0
78120,note_on,0,0,1,,,,,,,,,0,,,52,0
78120,note_on,0,0,1,,,,,,,,,0,,,51,49
78180,note_on,60,0,1,,,,,,,,,0,,,60,0
78180,note_on,0,0,1,,,,,,,,,0,,,57,0
78180,note_on,0,0,1,,,,,,,,,0,,,51,0
78180,note_on,0,0,1,,,,,,,,,0,,,51,49
78180,note_on,0,0,1,,,,,,,,,0,,,57,49
78180,note_on,0,0,1,,,,,,,,,0,,,60,49
78240,note_on,0,0,3,,,,,,,,,2,,,35,75
78240,note_on,240,0,3,,,,,,,,,2,,,35,0
78240,note_on,0,0,1,,,,,,,,,0,,,51,0
78240,note_on,0,0,1,,,,,,,,,0,,,52,49
78240,note_on,60,0,1,,,,,,,,,0,,,60,0
78240,note_on,0,0,1,,,,,,,,,0,,,57,0
78240,note_on,0,0,1,,,,,,,,,0,,,59,49
78240,note_on,0,0,1,,,,,,,,,0,,,56,49
78360,note_on,0,0,3,,,,,,,,,2,,,40,75
78360,note_on,120,0,3,,,,,,,,,2,,,35,0
78480,note_on,0,0,3,,,,,,,,,2,,,57,36
78480,note_on,120,0,3,,,,,,,,,2,,,40,0
78480,note_on,240,0,1,,,,,,,,,0,,,59,0
78480,note_on,0,0,1,,,,,,,,,0,,,56,0
78480,note_on,0,0,1,,,,,,,,,0,,,52,0
78480,note_on,0,0,1,,,,,,,,,0,,,69,49
78540,note_on,60,0,3,,,,,,,,,2,,,57,0
78540,note_on,0,0,3,,,,,,,,,2,,,57,36
78540,note_on,60,0,1,,,,,,,,,0,,,69,0
78540,note_on,0,0,1,,,,,,,,,0,,,69,49
78600,note_on,0,0,3,,,,,,,,,2,,,52,36
78600,note_on,60,0,3,,,,,,,,,2,,,57,0
78600,note_on,0,0,1,,,,,,,,,0,,,71,49
78600,note_on,0,0,1,,,,,,,,,0,,,64,49
78600,note_on,0,0,1,,,,,,,,,0,,,68,49
78600,note_on,60,0,1,,,,,,,,,0,,,69,0
78840,note_on,0,0,1,,,,,,,,,0,,,68,0
78840,note_on,240,0,1,,,,,,,,,0,,,71,0
78840,note_on,240,0,3,,,,,,,,,2,,,52,0
78840,note_on,0,0,3,,,,,,,,,2,,,57,36
78840,note_on,0,0,1,,,,,,,,,0,,,69,49
78840,note_on,0,0,1,,,,,,,,,0,,,64,0
78900,note_on,0,0,1,,,,,,,,,0,,,69,49
78900,note_on,60,0,3,,,,,,,,,2,,,57,0
78900,note_on,0,0,3,,,,,,,,,2,,,57,36
78900,note_on,60,0,1,,,,,,,,,0,,,69,0
78960,note_on,60,0,1,,,,,,,,,0,,,69,0
78960,note_on,0,0,1,,,,,,,,,0,,,68,49
78960,note_on,0,0,1,,,,,,,,,0,,,71,49
78960,note_on,0,0,3,,,,,,,,,2,,,52,36
78960,note_on,60,0,3,,,,,,,,,2,,,57,0
78960,note_on,0,0,1,,,,,,,,,0,,,64,49
79200,note_on,240,0,1,,,,,,,,,0,,,71,0
79200,note_on,0,0,1,,,,,,,,,0,,,68,0
79200,note_on,0,0,1,,,,,,,,,0,,,64,0
79200,note_on,0,0,1,,,,,,,,,0,,,69,49
79200,note_on,240,0,3,,,,,,,,,2,,,52,0
79200,note_on,0,0,3,,,,,,,,,2,,,57,36
79260,note_on,60,0,1,,,,,,,,,0,,,69,0
79260,note_on,0,0,1,,,,,,,,,0,,,69,49
79260,note_on,60,0,3,,,,,,,,,2,,,57,0
79260,note_on,0,0,3,,,,,,,,,2,,,57,36
79320,note_on,0,0,1,,,,,,,,,0,,,68,49
79320,note_on,60,0,3,,,,,,,,,2,,,57,0
79320,note_on,0,0,1,,,,,,,,,0,,,71,49
79320,note_on,0,0,1,,,,,,,,,0,,,64,49
79320,note_on,60,0,1,,,,,,,,,0,,,69,0
79320,note_on,0,0,3,,,,,,,,,2,,,52,36
79332,note_on,12,0,3,,,,,,,,,2,,,52,0
79440,note_on,108,0,3,,,,,,,,,2,,,57,49
79440,note_on,0,0,1,,,,,,,,,0,,,64,62
79440,note_on,120,0,1,,,,,,,,,0,,,71,0
79440,note_on,0,0,1,,,,,,,,,0,,,68,0
79440,note_on,0,0,1,,,,,,,,,0,,,72,62
79440,note_on,0,0,1,,,,,,,,,0,,,64,0
79440,note_on,0,0,1,,,,,,,,,0,,,69,62
79452,note_on,12,0,3,,,,,,,,,2,,,57,0
79452,note_on,0,0,1,,,,,,,,,0,,,64,0
79452,note_on,0,0,1,,,,,,,,,0,,,69,0
79452,note_on,12,0,1,,,,,,,,,0,,,72,0
79560,note_on,108,0,3,,,,,,,,,2,,,52,62
79560,note_on,108,0,1,,,,,,,,,0,,,64,75
79560,note_on,0,0,1,,,,,,,,,0,,,68,75
79560,note_on,0,0,1,,,,,,,,,0,,,71,75
79572,note_on,0,0,1,,,,,,,,,0,,,64,0
79572,note_on,0,0,1,,,,,,,,,0,,,68,0
79572,note_on,12,0,1,,,,,,,,,0,,,71,0
79572,note_on,12,0,3,,,,,,,,,2,,,52,0
79680,note_on,0,0,1,,,,,,,,,0,,,72,88
79680,note_on,0,0,1,,,,,,,,,0,,,69,88
79680,note_on,108,0,1,,,,,,,,,0,,,64,88
79680,note_on,108,0,3,,,,,,,,,2,,,57,75
79692,note_on,12,0,1,,,,,,,,,0,,,72,0
79692,note_on,0,0,1,,,,,,,,,0,,,69,0
79692,note_on,12,0,3,,,,,,,,,2,,,57,0
79692,note_on,0,0,1,,,,,,,,,0,,,64,0
79800,note_on,108,0,1,,,,,,,,,0,,,64,101
79800,note_on,0,0,3,,,,,,,,,2,,,44,88
79800,note_on,0,0,1,,,,,,,,,0,,,76,101
79800,note_on,0,0,1,,,,,,,,,0,,,71,101
79800,note_on,108,0,3,,,,,,,,,2,,,32,88
80040,note_on,0,0,3,,,,,,,,,2,,,45,88
80040,note_on,0,0,3,,,,,,,,,2,,,33,88
80040,note_on,0,0,3,,,,,,,,,2,,,32,0
80040,note_on,240,0,3,,,,,,,,,2,,,44,0
80040,note_on,0,0,1,,,,,,,,,0,,,71,0
80040,note_on,240,0,1,,,,,,,,,0,,,76,0
80040,note_on,0,0,1,,,,,,,,,0,,,64,0
80040,note_on,0,0,1,,,,,,,,,0,,,64,101
80040,note_on,0,0,1,,,,,,,,,0,,,69,101
80040,note_on,0,0,1,,,,,,,,,0,,,72,101
80160,note_on,120,0,3,,,,,,,,,2,,,45,0
80160,note_on,0,0,1,,,,,,,,,0,,,69,0
80160,note_on,0,0,1,,,,,,,,,0,,,64,0
80160,note_on,0,0,3,,,,,,,,,2,,,33,0
80160,note_on,120,0,1,,,,,,,,,0,,,72,0
80280,note_on,6720,0,2,,,,,,,,,1,,,64,36
80280,note_on,0,0,3,,,,,,,,,2,,,61,36
80280,note_on,120,0,3,,,,,,,,,2,,,57,36
80280,note_on,120,0,1,,,,,,,,,0,,,69,49
80340,note_on,60,0,1,,,,,,,,,0,,,69,0
80340,note_on,0,0,1,,,,,,,,,0,,,69,49
80400,note_on,0,0,3,,,,,,,,,2,,,57,0
80400,note_on,0,0,1,,,,,,,,,0,,,71,75
80400,note_on,0,0,2,,,,,,,,,1,,,64,36
80400,note_on,60,0,1,,,,,,,,,0,,,69,0
80400,note_on,0,0,3,,,,,,,,,2,,,56,54
80400,note_on,120,0,2,,,,,,,,,1,,,64,0
80400,note_on,0,0,3,,,,,,,,,2,,,62,62
80400,note_on,120,0,3,,,,,,,,,2,,,61,0
80400,key_signature,7200,1,0,,,,,A,,,,,,,,
80640,note_on,0,0,2,,,,,,,,,1,,,64,36
80640,note_on,240,0,2,,,,,,,,,1,,,64,0
80640,note_on,0,0,3,,,,,,,,,2,,,57,36
80640,note_on,240,0,3,,,,,,,,,2,,,62,0
80640,note_on,0,0,1,,,,,,,,,0,,,69,49
80640,note_on,240,0,1,,,,,,,,,0,,,71,0
80640,note_on,0,0,3,,,,,,,,,2,,,61,36
80640,note_on,0,0,3,,,,,,,,,2,,,56,0
80700,note_on,60,0,1,,,,,,,,,0,,,69,0
80700,note_on,0,0,1,,,,,,,,,0,,,69,49
80760,note_on,60,0,1,,,,,,,,,0,,,69,0
80760,note_on,0,0,1,,,,,,,,,0,,,71,75
80760,note_on,0,0,2,,,,,,,,,1,,,64,36
80760,note_on,0,0,3,,,,,,,,,2,,,62,62
80760,note_on,120,0,2,,,,,,,,,1,,,64,0
80760,note_on,120,0,3,,,,,,,,,2,,,61,0
80760,note_on,0,0,3,,,,,,,,,2,,,57,0
80760,note_on,0,0,3,,,,,,,,,2,,,56,54
81000,note_on,0,0,1,,,,,,,,,0,,,69,49
81000,note_on,240,0,2,,,,,,,,,1,,,64,0
81000,note_on,0,0,3,,,,,,,,,2,,,56,0
81000,note_on,240,0,3,,,,,,,,,2,,,62,0
81000,note_on,240,0,1,,,,,,,,,0,,,71,0
81000,note_on,0,0,2,,,,,,,,,1,,,64,36
81000,note_on,0,0,3,,,,,,,,,2,,,57,36
81000,note_on,0,0,3,,,,,,,,,2,,,61,36
81060,note_on,60,0,1,,,,,,,,,0,,,69,0
81060,note_on,0,0,1,,,,,,,,,0,,,69,49
81120,note_on,120,0,3,,,,,,,,,2,,,61,0
81120,note_on,0,0,3,,,,,,,,,2,,,62,36
81120,note_on,0,0,3,,,,,,,,,2,,,56,36
81120,note_on,0,0,1,,,,,,,,,0,,,71,75
81120,note_on,0,0,3,,,,,,,,,2,,,57,0
81120,note_on,120,0,2,,,,,,,,,1,,,64,0
81120,note_on,0,0,2,,,,,,,,,1,,,64,36
81120,note_on,60,0,1,,,,,,,,,0,,,69,0
81360,note_on,240,0,1,,,,,,,,,0,,,71,0
81360,note_on,0,0,1,,,,,,,,,0,,,73,49
81360,note_on,0,0,2,,,,,,,,,1,,,69,36
81360,note_on,0,0,3,,,,,,,,,2,,,56,0
81360,note_on,0,0,3,,,,,,,,,2,,,55,36
81360,note_on,0,0,3,,,,,,,,,2,,,57,36
81360,note_on,0,0,3,,,,,,,,,2,,,64,36
81360,note_on,240,0,2,,,,,,,,,1,,,64,0
81360,note_on,240,0,3,,,,,,,,,2,,,62,0
81420,note_on,60,0,1,,,,,,,,,0,,,73,0
81420,note_on,0,0,1,,,,,,,,,0,,,73,49
81480,note_on,60,0,1,,,,,,,,,0,,,73,0
81480,note_on,0,0,1,,,,,,,,,0,,,76,49
81480,note_on,120,0,3,,,,,,,,,2,,,64,0
81480,note_on,120,0,2,,,,,,,,,1,,,69,0
81480,note_on,0,0,3,,,,,,,,,2,,,62,36
81480,note_on,0,0,3,,,,,,,,,2,,,57,36
81480,note_on,0,0,3,,,,,,,,,2,,,54,36
81480,note_on,0,0,3,,,,,,,,,2,,,55,0
81480,note_on,0,0,2,,,,,,,,,1,,,69,36
81480,note_on,0,0,3,,,,,,,,,2,,,57,0
81540,note_on,60,0,1,,,,,,,,,0,,,76,0
81540,note_on,0,0,1,,,,,,,,,0,,,74,49
81600,note_on,0,0,3,,,,,,,,,2,,,64,36
81600,note_on,0,0,3,,,,,,,,,2,,,52,36
81600,note_on,0,0,3,,,,,,,,,2,,,54,0
81600,note_on,120,0,3,,,,,,,,,2,,,62,0
81600,note_on,0,0,3,,,,,,,,,2,,,57,0
81600,note_on,0,0,2,,,,,,,,,1,,,69,36
81600,note_on,120,0,2,,,,,,,,,1,,,69,0
81600,note_on,60,0,1,,,,,,,,,0,,,74,0
81600,note_on,0,0,1,,,,,,,,,0,,,73,49
81612,note_on,12,0,2,,,,,,,,,1,,,69,0
81612,note_on,0,0,3,,,,,,,,,2,,,52,0
81612,note_on,12,0,3,,,,,,,,,2,,,64,0
81612,note_on,12,0,1,,,,,,,,,0,,,73,0
81720,note_on,0,0,3,,,,,,,,,2,,,62,36
81720,note_on,108,0,2,,,,,,,,,1,,,68,36
81720,note_on,108,0,1,,,,,,,,,0,,,71,49
81720,note_on,108,0,3,,,,,,,,,2,,,52,36
81732,note_on,12,0,1,,,,,,,,,0,,,71,0
81732,note_on,12,0,3,,,,,,,,,2,,,62,0
81732,note_on,0,0,3,,,,,,,,,2,,,52,0
81732,note_on,12,0,2,,,,,,,,,1,,,68,0
81840,note_on,108,0,1,,,,,,,,,0,,,69,49
81840,note_on,108,0,3,,,,,,,,,2,,,57,36
81840,note_on,0,0,3,,,,,,,,,2,,,61,36
81960,note_on,120,0,3,,,,,,,,,2,,,61,0
81960,note_on,0,0,3,,,,,,,,,2,,,57,0
81960,control_change,0,0,3,,,,,,,,,2,64,127,,
81960,note_on,0,0,3,,,,,,,,,2,,,49,88
81960,note_on,0,0,3,,,,,,,,,2,,,61,88
81960,note_on,0,0,1,,,,,,,,,0,,,64,101
81960,control_change,0,0,1,,,,,,,,,0,64,127,,
81960,note_on,0,0,1,,,,,,,,,0,,,76,101
81960,note_on,120,0,1,,,,,,,,,0,,,69,0
82200,note_on,0,0,3,,,,,,,,,2,,,57,88
82200,note_on,0,0,3,,,,,,,,,2,,,45,88
82200,note_on,0,0,3,,,,,,,,,2,,,49,0
82200,note_on,240,0,3,,,,,,,,,2,,,61,0
82200,note_on,0,0,1,,,,,,,,,0,,,61,101
82200,note_on,240,0,1,,,,,,,,,0,,,76,0
82200,note_on,0,0,1,,,,,,,,,0,,,64,0
82200,note_on,0,0,1,,,,,,,,,0,,,73,101
82212,note_on,12,0,1,,,,,,,,,0,,,73,0
82212,note_on,0,0,3,,,,,,,,,2,,,45,0
82212,note_on,12,0,3,,,,,,,,,2,,,57,0
82212,note_on,0,0,1,,,,,,,,,0,,,61,0
82320,note_on,0,0,3,,,,,,,,,2,,,54,88
82320,note_on,108,0,3,,,,,,,,,2,,,42,88
82320,note_on,108,0,1,,,,,,,,,0,,,57,101
82320,note_on,0,0,1,,,,,,,,,0,,,69,101
82332,note_on,0,0,1,,,,,,,,,0,,,57,0
82332,note_on,12,0,1,,,,,,,,,0,,,69,0
82332,note_on,12,0,3,,,,,,,,,2,,,54,0
82332,note_on,0,0,3,,,,,,,,,2,,,42,0
82440,control_change,108,0,1,,,,,,,,,0,64,0,,
82440,note_on,0,0,1,,,,,,,,,0,,,66,101
82440,note_on,0,0,3,,,,,,,,,2,,,38,88
82440,note_on,0,0,3,,,,,,,,,2,,,50,88
82440,control_change,108,0,3,,,,,,,,,2,64,0,,
82440,note_on,0,0,1,,,,,,,,,0,,,54,101
82452,note_on,0,0,3,,,,,,,,,2,,,38,0
82452,note_on,0,0,1,,,,,,,,,0,,,54,0
82452,note_on,12,0,1,,,,,,,,,0,,,66,0
82452,note_on,12,0,3,,,,,,,,,2,,,50,0
82560,note_on,108,0,3,,,,,,,,,2,,,35,88
82560,note_on,0,0,3,,,,,,,,,2,,,47,88
82560,note_on,0,0,1,,,,,,,,,0,,,62,101
82560,note_on,108,0,1,,,,,,,,,0,,,50,101
82680,note_on,120,0,3,,,,,,,,,2,,,47,0
82680,note_on,0,0,3,,,,,,,,,2,,,35,0
82680,note_on,0,0,3,,,,,,,,,2,,,32,75
82680,note_on,120,0,1,,,,,,,,,0,,,62,0
82680,note_on,0,0,3,,,,,,,,,2,,,44,75
82680,note_on,0,0,1,,,,,,,,,0,,,50,0
82680,note_on,0,0,1,,,,,,,,,0,,,78,88
82680,note_on,0,0,1,,,,,,,,,0,,,71,88
82680,note_on,0,0,1,,,,,,,,,0,,,74,88
82920,note_on,0,0,3,,,,,,,,,2,,,62,75
82920,note_on,0,0,3,,,,,,,,,2,,,57,75
82920,note_on,0,0,3,,,,,,,,,2,,,32,0
82920,note_on,240,0,3,,,,,,,,,2,,,44,0
82920,note_on,240,0,1,,,,,,,,,0,,,78,0
82920,note_on,0,0,3,,,,,,,,,2,,,66,75
82920,note_on,0,0,1,,,,,,,,,0,,,74,0
82920,note_on,0,0,1,,,,,,,,,0,,,74,88
82920,note_on,0,0,1,,,,,,,,,0,,,78,88
82920,note_on,0,0,1,,,,,,,,,0,,,83,88
82920,note_on,0,0,1,,,,,,,,,0,,,71,0
83400,note_on,0,0,3,,,,,,,,,2,,,62,0
83400,note_on,0,0,3,,,,,,,,,2,,,57,0
83400,note_on,480,0,3,,,,,,,,,2,,,66,0
83460,note_on,540,0,1,,,,,,,,,0,,,83,0
83460,note_on,0,0,1,,,,,,,,,0,,,78,0
83460,note_on,0,0,1,,,,,,,,,0,,,74,0
83460,note_on,0,0,1,,,,,,,,,0,,,81,36
83520,note_on,60,0,1,,,,,,,,,0,,,81,0
83520,note_on,0,0,1,,,,,,,,,0,,,80,36
83580,note_on,0,0,1,,,,,,,,,0,,,78,36
83580,note_on,60,0,1,,,,,,,,,0,,,80,0
83640,note_on,0,0,1,,,,,,,,,0,,,76,36
83640,control_change,240,0,3,,,,,,,,,2,64,127,,
83640,note_on,0,0,3,,,,,,,,,2,,,57,36
83640,note_on,0,0,3,,,,,,,,,2,,,61,36
83640,note_on,0,0,3,,,,,,,,,2,,,64,36
83640,note_on,60,0,1,,,,,,,,,0,,,78,0
83640,control_change,0,0,1,,,,,,,,,0,64,127,,
83700,note_on,60,0,3,,,,,,,,,2,,,64,0
83700,note_on,0,0,3,,,,,,,,,2,,,57,0
83700,note_on,0,0,3,,,,,,,,,2,,,61,0
83760,note_on,0,0,3,,,,,,,,,2,,,76,36
83760,note_on,60,0,3,,,,,,,,,2,,,73,36
83760,note_on,120,0,1,,,,,,,,,0,,,76,0
83760,note_on,0,0,1,,,,,,,,,0,,,88,36
83940,note_on,0,0,1,,,,,,,,,0,,,85,36
83940,note_on,180,0,1,,,,,,,,,0,,,88,0
84000,note_on,0,0,3,,,,,,,,,2,,,69,36
84000,note_on,0,0,3,,,,,,,,,2,,,73,36
84000,note_on,0,0,1,,,,,,,,,0,,,85,36
84000,note_on,60,0,1,,,,,,,,,0,,,85,0
84000,note_on,0,0,3,,,,,,,,,2,,,73,0
84000,note_on,240,0,3,,,,,,,,,2,,,76,0
84012,note_on,12,0,3,,,,,,,,,2,,,73,0
84012,note_on,0,0,3,,,,,,,,,2,,,69,0
84060,note_on,60,0,1,,,,,,,,,0,,,85,0
84060,note_on,0,0,1,,,,,,,,,0,,,81,36
84120,note_on,0,0,3,,,,,,,,,2,,,69,36
84120,control_change,108,0,3,,,,,,,,,2,64,0,,
84120,control_change,0,0,1,,,,,,,,,0,64,0,,
84120,note_on,0,0,1,,,,,,,,,0,,,81,36
84120,note_on,60,0,1,,,,,,,,,0,,,81,0
84120,note_on,0,0,3,,,,,,,,,2,,,66,36
84132,note_on,12,0,3,,,,,,,,,2,,,69,0
84132,note_on,0,0,3,,,,,,,,,2,,,66,0
84180,note_on,60,0,1,,,,,,,,,0,,,81,0
84180,note_on,0,0,1,,,,,,,,,0,,,78,36
84240,note_on,108,0,3,,,,,,,,,2,,,62,36
84240,note_on,0,0,3,,,,,,,,,2,,,66,36
84240,note_on,0,0,1,,,,,,,,,0,,,78,36
84240,note_on,60,0,1,,,,,,,,,0,,,78,0
84252,note_on,12,0,3,,,,,,,,,2,,,66,0
84252,note_on,0,0,3,,,,,,,,,2,,,62,0
84300,note_on,60,0,1,,,,,,,,,0,,,78,0
84300,note_on,0,0,1,,,,,,,,,0,,,74,36
84360,note_on,108,0,3,,,,,,,,,2,,,59,36
84360,note_on,60,0,1,,,,,,,,,0,,,74,0
84360,note_on,0,0,1,,,,,,,,,0,,,74,36
84360,note_on,0,0,3,,,,,,,,,2,,,62,36
84372,note_on,12,0,1,,,,,,,,,0,,,74,0
84372,note_on,0,0,3,,,,,,,,,2,,,59,0
84372,note_on,12,0,3,,,,,,,,,2,,,62,0
84480,note_on,0,0,1,,,,,,,,,0,,,72,57
84480,note_on,108,0,3,,,,,,,,,2,,,57,52
84480,note_on,0,0,3,,,,,,,,,2,,,60,57
84480,note_on,0,0,3,,,,,,,,,2,,,65,62
84480,note_on,108,0,1,,,,,,,,,0,,,69,52
84480,note_on,0,0,1,,,,,,,,,0,,,77,62
85080,control_change,3348,0,2,,,,,,,,,1,64,127,,
85080,note_on,0,0,2,,,,,,,,,1,,,71,49
85080,note_on,0,0,3,,,,,,,,,2,,,56,36
85080,note_on,0,0,3,,,,,,,,,2,,,60,0
85080,note_on,0,0,4,,,,,,,,,3,,,59,36
85080,control_change,34920,0,4,,,,,,,,,3,64,127,,
85080,note_on,600,0,3,,,,,,,,,2,,,65,0
85080,note_on,0,0,1,,,,,,,,,0,,,68,49
85080,note_on,0,0,1,,,,,,,,,0,,,69,0
85080,note_on,0,0,1,,,,,,,,,0,,,76,49
85080,note_on,600,0,1,,,,,,,,,0,,,77,0
85080,note_on,0,0,3,,,,,,,,,2,,,64,36
85080,note_on,0,0,3,,,,,,,,,2,,,57,0
85080,note_on,0,0,1,,,,,,,,,0,,,72,0
85140,note_on,60,0,4,,,,,,,,,3,,,59,0
85140,note_on,0,0,4,,,,,,,,,3,,,61,36
85140,note_on,60,0,2,,,,,,,,,1,,,71,0
85140,note_on,0,0,2,,,,,,,,,1,,,73,49
85200,note_on,0,0,2,,,,,,,,,1,,,74,62
85200,note_on,0,0,4,,,,,,,,,3,,,62,49
85200,note_on,60,0,2,,,,,,,,,1,,,73,0
85200,note_on,60,0,4,,,,,,,,,3,,,61,0
85260,note_on,60,0,2,,,,,,,,,1,,,74,0
85260,note_on,0,0,4,,,,,,,,,3,,,61,49
85260,note_on,60,0,4,,,,,,,,,3,,,62,0
85260,note_on,0,0,2,,,,,,,,,1,,,73,62
85320,note_on,0,0,4,,,,,,,,,3,,,59,62
85320,note_on,60,0,4,,,,,,,,,3,,,61,0
85320,note_on,60,0,2,,,,,,,,,1,,,73,0
85320,note_on,0,0,2,,,,,,,,,1,,,71,75
85380,control_change,0,0,4,,,,,,,,,3,64,0,,
85380,note_on,60,0,4,,,,,,,,,3,,,59,0
85380,note_on,0,0,4,,,,,,,,,3,,,61,62
85380,note_on,60,0,2,,,,,,,,,1,,,71,0
85380,control_change,0,0,2,,,,,,,,,1,64,0,,
85380,note_on,0,0,2,,,,,,,,,1,,,73,75
85440,note_on,360,0,3,,,,,,,,,2,,,62,62
85440,note_on,360,0,1,,,,,,,,,0,,,74,96
85440,note_on,60,0,4,,,,,,,,,3,,,61,0
85440,note_on,60,0,2,,,,,,,,,1,,,73,0
85680,note_on,240,0,1,,,,,,,,,0,,,74,0
85680,note_on,240,0,3,,,,,,,,,2,,,62,0
85680,note_on,0,0,3,,,,,,,,,2,,,56,0
85680,note_on,0,0,3,,,,,,,,,2,,,57,62
85680,note_on,0,0,3,,,,,,,,,2,,,61,62
85680,note_on,0,0,1,,,,,,,,,0,,,68,0
85680,note_on,0,0,1,,,,,,,,,0,,,69,75
85680,note_on,0,0,1,,,,,,,,,0,,,73,75
85800,note_on,120,0,3,,,,,,,,,2,,,61,0
85800,note_on,0,0,3,,,,,,,,,2,,,57,0
85800,note_on,0,0,3,,,,,,,,,2,,,64,0
85800,note_on,360,0,2,,,,,,,,,1,,,66,36
85800,note_on,0,0,1,,,,,,,,,0,,,76,0
85800,note_on,0,0,1,,,,,,,,,0,,,69,0
85800,note_on,120,0,1,,,,,,,,,0,,,73,0
85800,note_on,0,0,3,,,,,,,,,2,,,50,36
85800,note_on,0,0,2,,,,,,,,,1,,,71,36
85800,note_on,0,0,1,,,,,,,,,0,,,76,49
85812,note_on,12,0,3,,,,,,,,,2,,,50,0
85860,note_on,0,0,1,,,,,,,,,0,,,74,49
85860,note_on,60,0,1,,,,,,,,,0,,,76,0
85920,note_on,60,0,1,,,,,,,,,0,,,74,0
85920,note_on,0,0,1,,,,,,,,,0,,,74,49
85920,note_on,0,0,2,,,,,,,,,1,,,64,36
85920,note_on,0,0,2,,,,,,,,,1,,,66,0
85920,note_on,120,0,2,,,,,,,,,1,,,71,0
85920,note_on,0,0,2,,,,,,,,,1,,,69,36
85920,note_on,108,0,3,,,,,,,,,2,,,52,36
85932,note_on,12,0,3,,,,,,,,,2,,,52,0
85980,note_on,60,0,1,,,,,,,,,0,,,74,0
85980,note_on,0,0,1,,,,,,,,,0,,,73,49
86040,note_on,0,0,1,,,,,,,,,0,,,73,49
86040,note_on,108,0,3,,,,,,,,,2,,,52,36
86040,note_on,60,0,1,,,,,,,,,0,,,73,0
86040,note_on,0,0,2,,,,,,,,,1,,,68,36
86040,note_on,0,0,2,,,,,,,,,1,,,62,36
86040,note_on,120,0,2,,,,,,,,,1,,,69,0
86040,note_on,0,0,2,,,,,,,,,1,,,64,0
86052,note_on,12,0,3,,,,,,,,,2,,,52,0
86100,note_on,60,0,1,,,,,,,,,0,,,73,0
86100,note_on,0,0,1,,,,,,,,,0,,,71,49
86160,note_on,0,0,1,,,,,,,,,0,,,69,49
86160,note_on,0,0,1,,,,,,,,,0,,,61,49
86160,note_on,60,0,1,,,,,,,,,0,,,71,0
86160,note_on,120,0,2,,,,,,,,,1,,,68,0
86160,note_on,0,0,2,,,,,,,,,1,,,62,0
86160,note_on,108,0,3,,,,,,,,,2,,,57,36
86280,note_on,0,0,1,,,,,,,,,0,,,61,0
86280,note_on,120,0,3,,,,,,,,,2,,,57,0
86280,note_on,120,0,1,,,,,,,,,0,,,69,0
86400,note_on,120,0,3,,,,,,,,,2,,,61,36
86400,note_on,120,0,1,,,,,,,,,0,,,76,49
86460,note_on,60,0,3,,,,,,,,,2,,,61,0
86460,note_on,0,0,3,,,,,,,,,2,,,61,36
86460,note_on,60,0,1,,,,,,,,,0,,,76,0
86460,note_on,0,0,1,,,,,,,,,0,,,76,49
86520,note_on,60,0,3,,,,,,,,,2,,,61,0
86520,note_on,0,0,3,,,,,,,,,2,,,49,36
86520,note_on,60,0,1,,,,,,,,,0,,,76,0
86520,note_on,0,0,1,,,,,,,,,0,,,64,75
86520,control_change,0,0,3,,,,,,,,,2,64,127,,
86520,control_change,0,0,1,,,,,,,,,0,64,127,,
86760,note_on,240,0,3,,,,,,,,,2,,,49,0
86760,note_on,0,0,3,,,,,,,,,2,,,61,36
86760,note_on,0,0,1,,,,,,,,,0,,,76,49
86760,note_on,240,0,1,,,,,,,,,0,,,64,0
86820,note_on,60,0,1,,,,,,,,,0,,,76,0
86820,note_on,60,0,3,,,,,,,,,2,,,61,0
86820,note_on,0,0,3,,,,,,,,,2,,,61,36
86820,control_change,0,0,3,,,,,,,,,2,64,0,,
86820,note_on,0,0,1,,,,,,,,,0,,,76,49
86820,control_change,0,0,1,,,,,,,,,0,64,0,,
86880,note_on,60,0,1,,,,,,,,,0,,,76,0
86880,note_on,0,0,1,,,,,,,,,0,,,66,49
86880,note_on,0,0,3,,,,,,,,,2,,,50,36
86880,control_change,0,0,3,,,,,,,,,2,64,127,,
86880,note_on,60,0,3,,,,,,,,,2,,,61,0
86880,control_change,0,0,1,,,,,,,,,0,64,127,,
87120,note_on,0,0,1,,,,,,,,,0,,,76,49
87120,note_on,0,0,3,,,,,,,,,2,,,61,36
87120,note_on,240,0,3,,,,,,,,,2,,,50,0
87120,note_on,240,0,1,,,,,,,,,0,,,66,0
87180,note_on,60,0,1,,,,,,,,,0,,,76,0
87180,note_on,0,0,3,,,,,,,,,2,,,61,36
87180,control_change,0,0,1,,,,,,,,,0,64,0,,
87180,note_on,0,0,1,,,,,,,,,0,,,76,49
87180,note_on,60,0,3,,,,,,,,,2,,,61,0
87180,control_change,0,0,3,,,,,,,,,2,64,0,,
87240,note_on,60,0,1,,,,,,,,,0,,,76,0
87240,note_on,0,0,1,,,,,,,,,0,,,68,49
87240,note_on,60,0,3,,,,,,,,,2,,,61,0
87240,note_on,0,0,3,,,,,,,,,2,,,52,36
87300,note_on,60,0,1,,,,,,,,,0,,,68,0
87300,note_on,0,0,1,,,,,,,,,0,,,76,49
87300,note_on,60,0,3,,,,,,,,,2,,,52,0
87300,note_on,0,0,3,,,,,,,,,2,,,62,36
87360,note_on,60,0,1,,,,,,,,,0,,,76,0
87360,note_on,0,0,1,,,,,,,,,0,,,69,49
87360,note_on,60,0,3,,,,,,,,,2,,,62,0
87360,note_on,0,0,3,,,,,,,,,2,,,54,36
87420,note_on,60,0,1,,,,,,,,,0,,,69,0
87420,note_on,0,0,1,,,,,,,,,0,,,76,49
87420,note_on,0,0,3,,,,,,,,,2,,,62,36
87420,note_on,60,0,3,,,,,,,,,2,,,54,0
87480,note_on,0,0,1,,,,,,,,,0,,,71,49
87480,note_on,60,0,1,,,,,,,,,0,,,76,0
87480,note_on,0,0,3,,,,,,,,,2,,,56,36
87480,note_on,60,0,3,,,,,,,,,2,,,62,0
87540,note_on,0,0,3,,,,,,,,,2,,,62,36
87540,note_on,60,0,3,,,,,,,,,2,,,56,0
87540,note_on,60,0,1,,,,,,,,,0,,,71,0
87540,note_on,0,0,1,,,,,,,,,0,,,76,49
87600,note_on,0,0,3,,,,,,,,,2,,,57,49
87600,note_on,60,0,3,,,,,,,,,2,,,62,0
87600,note_on,60,0,1,,,,,,,,,0,,,76,0
87600,note_on,0,0,1,,,,,,,,,0,,,73,62
87660,note_on,0,0,3,,,,,,,,,2,,,61,49
87660,note_on,60,0,3,,,,,,,,,2,,,57,0
87660,note_on,60,0,1,,,,,,,,,0,,,73,0
87660,note_on,0,0,1,,,,,,,,,0,,,76,62
87720,note_on,60,0,1,,,,,,,,,0,,,76,0
87720,note_on,0,0,1,,,,,,,,,0,,,71,62
87720,note_on,0,0,3,,,,,,,,,2,,,56,49
87720,note_on,60,0,3,,,,,,,,,2,,,61,0
87780,note_on,0,0,1,,,,,,,,,0,,,77,62
87780,note_on,60,0,3,,,,,,,,,2,,,56,0
87780,note_on,0,0,3,,,,,,,,,2,,,61,49
87780,note_on,60,0,1,,,,,,,,,0,,,71,0
87840,note_on,60,0,1,,,,,,,,,0,,,77,0
87840,note_on,60,0,3,,,,,,,,,2,,,61,0
87840,note_on,0,0,3,,,,,,,,,2,,,54,49
87840,note_on,0,0,1,,,,,,,,,0,,,69,62
87900,note_on,60,0,3,,,,,,,,,2,,,54,0
87900,note_on,0,0,3,,,,,,,,,2,,,61,49
87900,note_on,60,0,1,,,,,,,,,0,,,69,0
87900,note_on,0,0,1,,,,,,,,,0,,,78,62
87960,note_on,60,0,1,,,,,,,,,0,,,78,0
87960,note_on,0,0,1,,,,,,,,,0,,,78,75
87960,note_on,60,0,3,,,,,,,,,2,,,61,0
87960,note_on,0,0,3,,,,,,,,,2,,,50,62
88020,note_on,60,0,3,,,,,,,,,2,,,50,0
88020,note_on,0,0,3,,,,,,,,,2,,,59,62
88020,note_on,60,0,1,,,,,,,,,0,,,78,0
88020,note_on,0,0,1,,,,,,,,,0,,,83,75
88080,note_on,0,0,3,,,,,,,,,2,,,52,62
88080,note_on,60,0,3,,,,,,,,,2,,,59,0
88080,note_on,60,0,1,,,,,,,,,0,,,83,0
88080,note_on,0,0,1,,,,,,,,,0,,,80,75
88140,note_on,0,0,3,,,,,,,,,2,,,61,62
88140,note_on,60,0,3,,,,,,,,,2,,,52,0
88140,note_on,0,0,1,,,,,,,,,0,,,85,75
88140,note_on,60,0,1,,,,,,,,,0,,,80,0
88200,note_on,0,0,1,,,,,,,,,0,,,80,75
88200,note_on,0,0,3,,,,,,,,,2,,,52,62
88200,note_on,60,0,3,,,,,,,,,2,,,61,0
88200,note_on,60,0,1,,,,,,,,,0,,,85,0
88260,note_on,0,0,1,,,,,,,,,0,,,88,75
88260,note_on,60,0,1,,,,,,,,,0,,,80,0
88260,note_on,0,0,3,,,,,,,,,2,,,62,62
88260,note_on,60,0,3,,,,,,,,,2,,,52,0
88320,note_on,60,0,3,,,,,,,,,2,,,62,0
88320,note_on,0,0,3,,,,,,,,,2,,,57,75
88320,note_on,0,0,3,,,,,,,,,2,,,61,75
88320,note_on,60,0,1,,,,,,,,,0,,,88,0
88320,note_on,0,0,1,,,,,,,,,0,,,81,88
88440,note_on,0,0,3,,,,,,,,,2,,,45,88
88440,note_on,120,0,1,,,,,,,,,0,,,81,0
88440,note_on,0,0,3,,,,,,,,,2,,,33,88
88440,note_on,0,0,3,,,,,,,,,2,,,57,0
88440,note_on,120,0,3,,,,,,,,,2,,,61,0
88560,note_on,120,0,1,,,,,,,,,0,,,68,101
88560,note_on,0,0,1,,,,,,,,,0,,,71,101
88560,note_on,0,0,1,,,,,,,,,0,,,76,101
88560,note_on,0,0,1,,,,,,,,,0,,,74,101
88620,note_on,60,0,1,,,,,,,,,0,,,76,0
88620,note_on,0,0,1,,,,,,,,,0,,,68,0
88620,note_on,0,0,1,,,,,,,,,0,,,71,0
88620,note_on,0,0,1,,,,,,,,,0,,,74,0
88620,note_on,0,0,1,,,,,,,,,0,,,68,101
88620,note_on,0,0,1,,,,,,,,,0,,,71,101
88620,note_on,0,0,1,,,,,,,,,0,,,74,101
88620,note_on,0,0,1,,,,,,,,,0,,,76,101
88680,note_on,0,0,1,,,,,,,,,0,,,68,0
88680,note_on,0,0,1,,,,,,,,,0,,,71,0
88680,note_on,0,0,1,,,,,,,,,0,,,74,0
88680,note_on,0,0,1,,,,,,,,,0,,,69,117
88680,note_on,0,0,1,,,,,,,,,0,,,73,122
88680,note_on,0,0,1,,,,,,,,,0,,,76,127
88680,note_on,60,0,1,,,,,,,,,0,,,76,0
88800,note_on,360,0,3,,,,,,,,,2,,,45,0
88800,note_on,0,0,3,,,,,,,,,2,,,33,0
88800,note_on,0,0,3,,,,,,,,,2,,,33,106
88800,note_on,0,0,3,,,,,,,,,2,,,45,114
88920,note_on,0,0,1,,,,,,,,,0,,,76,101
88920,note_on,0,0,1,,,,,,,,,0,,,74,101
88920,note_on,0,0,1,,,,,,,,,0,,,69,0
88920,note_on,0,0,1,,,,,,,,,0,,,73,0
88920,note_on,240,0,1,,,,,,,,,0,,,76,0
88920,note_on,0,0,1,,,,,,,,,0,,,68,101
88920,note_on,0,0,1,,,,,,,,,0,,,71,101
88980,note_on,60,0,1,,,,,,,,,0,,,76,0
88980,note_on,0,0,1,,,,,,,,,0,,,68,0
88980,note_on,0,0,1,,,,,,,,,0,,,71,0
88980,note_on,0,0,1,,,,,,,,,0,,,74,0
88980,note_on,0,0,1,,,,,,,,,0,,,68,101
88980,note_on,0,0,1,,,,,,,,,0,,,74,101
88980,note_on,0,0,1,,,,,,,,,0,,,76,101
88980,note_on,0,0,1,,,,,,,,,0,,,71,101
89040,note_on,0,0,1,,,,,,,,,0,,,69,117
89040,note_on,0,0,1,,,,,,,,,0,,,76,127
89040,note_on,0,0,1,,,,,,,,,0,,,73,122
89040,note_on,0,0,1,,,,,,,,,0,,,74,0
89040,note_on,0,0,1,,,,,,,,,0,,,71,0
89040,note_on,0,0,1,,,,,,,,,0,,,68,0
89040,note_on,60,0,1,,,,,,,,,0,,,76,0
89160,note_on,0,0,3,,,,,,,,,2,,,33,0
89160,note_on,360,0,3,,,,,,,,,2,,,45,0
89160,note_on,0,0,3,,,,,,,,,2,,,33,106
89160,note_on,0,0,3,,,,,,,,,2,,,45,114
89280,note_on,0,0,1,,,,,,,,,0,,,73,0
89280,note_on,0,0,1,,,,,,,,,0,,,69,0
89280,note_on,240,0,1,,,,,,,,,0,,,76,0
89280,note_on,0,0,1,,,,,,,,,0,,,76,101
89280,note_on,0,0,1,,,,,,,,,0,,,80,101
89280,note_on,0,0,1,,,,,,,,,0,,,71,101
89280,note_on,0,0,1,,,,,,,,,0,,,74,101
89340,note_on,0,0,1,,,,,,,,,0,,,76,0
89340,note_on,0,0,1,,,,,,,,,0,,,74,101
89340,note_on,0,0,1,,,,,,,,,0,,,71,0
89340,note_on,60,0,1,,,,,,,,,0,,,80,0
89340,note_on,0,0,1,,,,,,,,,0,,,76,101
89340,note_on,0,0,1,,,,,,,,,0,,,80,101
89340,note_on,0,0,1,,,,,,,,,0,,,71,101
89340,note_on,0,0,1,,,,,,,,,0,,,74,0
89400,note_on,60,0,1,,,,,,,,,0,,,80,0
89400,note_on,0,0,1,,,,,,,,,0,,,71,0
89400,note_on,0,0,1,,,,,,,,,0,,,74,0
89400,note_on,0,0,1,,,,,,,,,0,,,76,0
89400,note_on,0,0,1,,,,,,,,,0,,,73,117
89400,note_on,0,0,1,,,,,,,,,0,,,81,127
89400,note_on,0,0,1,,,,,,,,,0,,,76,122
89520,note_on,360,0,3,,,,,,,,,2,,,45,0
89520,note_on,0,0,3,,,,,,,,,2,,,33,0
89520,note_on,0,0,3,,,,,,,,,2,,,33,106
89520,note_on,0,0,3,,,,,,,,,2,,,45,114
89640,note_on,240,0,1,,,,,,,,,0,,,81,0
89640,note_on,0,0,1,,,,,,,,,0,,,76,0
89640,note_on,0,0,1,,,,,,,,,0,,,73,0
89640,note_on,0,0,1,,,,,,,,,0,,,76,101
89640,note_on,0,0,1,,,,,,,,,0,,,80,101
89640,note_on,0,0,1,,,,,,,,,0,,,83,101
89700,note_on,60,0,1,,,,,,,,,0,,,83,0
89700,note_on,0,0,1,,,,,,,,,0,,,80,0
89700,note_on,0,0,1,,,,,,,,,0,,,76,0
89700,note_on,0,0,1,,,,,,,,,0,,,76,101
89700,note_on,0,0,1,,,,,,,,,0,,,80,101
89700,note_on,0,0,1,,,,,,,,,0,,,83,101
89760,note_on,0,0,1,,,,,,,,,0,,,85,127
89760,note_on,0,0,1,,,,,,,,,0,,,81,122
89760,note_on,0,0,1,,,,,,,,,0,,,76,117
89760,note_on,0,0,1,,,,,,,,,0,,,76,0
89760,note_on,0,0,1,,,,,,,,,0,,,80,0
89760,note_on,60,0,1,,,,,,,,,0,,,83,0
89760,control_change,240,0,3,,,,,,,,,2,64,127,,
89760,control_change,0,0,1,,,,,,,,,0,64,127,,
89880,note_on,0,0,3,,,,,,,,,2,,,33,106
89880,note_on,0,0,3,,,,,,,,,2,,,45,114
89880,note_on,0,0,3,,,,,,,,,2,,,33,0
89880,note_on,120,0,3,,,,,,,,,2,,,45,0
90000,note_on,240,0,1,,,,,,,,,0,,,85,0
90000,note_on,0,0,1,,,,,,,,,0,,,81,0
90000,note_on,0,0,1,,,,,,,,,0,,,76,0
90000,note_on,0,0,1,,,,,,,,,0,,,80,101
90000,note_on,0,0,1,,,,,,,,,0,,,86,101
90000,note_on,0,0,1,,,,,,,,,0,,,88,101
90000,note_on,0,0,1,,,,,,,,,0,,,83,101
90060,note_on,60,0,1,,,,,,,,,0,,,88,0
90060,note_on,0,0,1,,,,,,,,,0,,,80,0
90060,note_on,0,0,1,,,,,,,,,0,,,83,0
90060,note_on,0,0,1,,,,,,,,,0,,,86,0
90060,note_on,0,0,1,,,,,,,,,0,,,80,101
90060,note_on,0,0,1,,,,,,,,,0,,,83,101
90060,note_on,0,0,1,,,,,,,,,0,,,86,101
90060,note_on,0,0,1,,,,,,,,,0,,,88,101
90120,note_on,0,0,1,,,,,,,,,0,,,80,0
90120,note_on,0,0,1,,,,,,,,,0,,,86,0
90120,note_on,0,0,1,,,,,,,,,0,,,81,117
90120,note_on,60,0,1,,,,,,,,,0,,,88,0
90120,note_on,0,0,1,,,,,,,,,0,,,85,122
90120,note_on,0,0,1,,,,,,,,,0,,,88,127
90120,note_on,0,0,1,,,,,,,,,0,,,83,0
90132,note_on,12,0,1,,,,,,,,,0,,,88,0
90132,note_on,0,0,1,,,,,,,,,0,,,85,0
90132,note_on,0,0,1,,,,,,,,,0,,,81,0
90240,note_on,360,0,3,,,,,,,,,2,,,45,0
90240,note_on,0,0,3,,,,,,,,,2,,,33,0
90240,note_on,0,0,3,,,,,,,,,2,,,37,106
90240,note_on,0,0,3,,,,,,,,,2,,,49,114
90240,note_on,108,0,1,,,,,,,,,0,,,81,117
90240,note_on,0,0,1,,,,,,,,,0,,,85,122
90240,note_on,0,0,1,,,,,,,,,0,,,88,127
90252,note_on,0,0,1,,,,,,,,,0,,,81,0
90252,note_on,0,0,1,,,,,,,,,0,,,85,0
90252,note_on,12,0,3,,,,,,,,,2,,,49,0
90252,note_on,0,0,3,,,,,,,,,2,,,37,0
90252,note_on,12,0,1,,,,,,,,,0,,,88,0
90360,control_change,108,0,3,,,,,,,,,2,64,0,,
90360,note_on,0,0,3,,,,,,,,,2,,,40,106
90360,note_on,0,0,1,,,,,,,,,0,,,92,127
90360,note_on,0,0,3,,,,,,,,,2,,,52,114
90360,note_on,0,0,1,,,,,,,,,0,,,86,119
90360,note_on,0,0,1,,,,,,,,,0,,,83,115
90360,control_change,108,0,1,,,,,,,,,0,64,0,,
90360,note_on,0,0,1,,,,,,,,,0,,,88,123
90372,note_on,12,0,1,,,,,,,,,0,,,92,0
90372,note_on,0,0,1,,,,,,,,,0,,,86,0
90372,note_on,0,0,1,,,,,,,,,0,,,88,0
90372,note_on,0,0,3,,,,,,,,,2,,,40,0
90372,note_on,12,0,3,,,,,,,,,2,,,52,0
90372,note_on,0,0,1,,,,,,,,,0,,,83,0
90480,note_on,108,0,3,,,,,,,,,2,,,33,124
90480,note_on,0,0,3,,,,,,,,,2,,,45,127
90480,note_on,108,0,1,,,,,,,,,0,,,81,115
90480,note_on,0,0,1,,,,,,,,,0,,,88,123
90480,note_on,0,0,1,,,,,,,,,0,,,85,119
90480,key_signature,0,1,0,,,,,C,,,,,,,,
90480,note_on,0,0,1,,,,,,,,,0,,,93,127
90480,time_signature,10080,1,0,4,4,24,8,,,,,,,,,
90600,note_on,120,0,3,,,,,,,,,2,,,45,0
90600,note_on,0,0,1,,,,,,,,,0,,,88,0
90600,note_on,0,0,1,,,,,,,,,0,,,85,0
90600,note_on,0,0,1,,,,,,,,,0,,,81,0
90600,note_on,120,0,1,,,,,,,,,0,,,93,0
90600,note_on,0,0,3,,,,,,,,,2,,,33,0
90960,time_signature,480,1,0,3,4,24,8,,,,,,,,,
90960,note_on,0,0,1,,,,,,,,,0,,,69,36
90960,control_change,360,0,1,,,,,,,,,0,64,127,,
90960,key_signature,0,1,0,,,,,F,,,,,,,,
90960,set_tempo,0,1,0,,,,,,392157,,,,,,,
91200,note_on,0,0,1,,,,,,,,,0,,,72,36
91200,note_on,240,0,1,,,,,,,,,0,,,69,0
91320,note_on,120,0,1,,,,,,,,,0,,,72,0
91320,note_on,0,0,1,,,,,,,,,0,,,69,36
91560,note_on,0,0,1,,,,,,,,,0,,,72,36
91560,control_change,960,0,3,,,,,,,,,2,64,127,,
91560,note_on,0,0,3,,,,,,,,,2,,,60,36
91560,note_on,240,0,1,,,,,,,,,0,,,69,0
91680,note_on,120,0,3,,,,,,,,,2,,,60,0
91680,note_on,0,0,3,,,,,,,,,2,,,57,36
91680,note_on,0,0,1,,,,,,,,,0,,,69,36
91680,note_on,120,0,1,,,,,,,,,0,,,72,0
91920,note_on,240,0,3,,,,,,,,,2,,,57,0
91920,note_on,0,0,3,,,,,,,,,2,,,60,36
91920,note_on,0,0,1,,,,,,,,,0,,,72,36
91920,note_on,240,0,1,,,,,,,,,0,,,69,0
92040,time_signature,1080,1,0,2,4,24,8,,,,,,,,,
92040,note_on,0,0,1,,,,,,,,,0,,,69,36
92040,note_on,120,0,1,,,,,,,,,0,,,72,0
92040,note_on,120,0,3,,,,,,,,,2,,,60,0
92040,note_on,0,0,3,,,,,,,,,2,,,57,36
92280,note_on,0,0,3,,,,,,,,,2,,,60,36
92280,control_change,0,0,3,,,,,,,,,2,64,0,,
92280,note_on,240,0,3,,,,,,,,,2,,,57,0
92280,time_signature,240,1,0,1,4,24,8,,,,,,,,,
92280,note_on,240,0,1,,,,,,,,,0,,,69,0
92280,control_change,0,0,1,,,,,,,,,0,64,0,,
92280,note_on,0,0,1,,,,,,,,,0,,,72,36
92400,note_on,0,0,1,,,,,,,,,0,,,69,36
92400,control_change,0,0,1,,,,,,,,,0,64,127,,
92400,note_on,120,0,3,,,,,,,,,2,,,60,0
92400,note_on,0,0,3,,,,,,,,,2,,,57,36
92400,time_signature,120,1,0,3,4,24,8,,,,,,,,,
92400,control_change,6960,0,4,,,,,,,,,3,64,127,,
92400,note_on,0,0,4,,,,,,,,,3,,,53,36
92400,note_on,120,0,1,,,,,,,,,0,,,72,0
92400,control_change,0,0,3,,,,,,,,,2,64,127,,
92520,note_on,120,0,1,,,,,,,,,0,,,69,0
92520,note_on,0,0,1,,,,,,,,,0,,,72,36
92520,note_on,120,0,3,,,,,,,,,2,,,57,0
92520,note_on,0,0,3,,,,,,,,,2,,,60,36
92640,note_on,0,0,4,,,,,,,,,3,,,53,36
92640,note_on,0,0,3,,,,,,,,,2,,,62,36
92640,note_on,120,0,3,,,,,,,,,2,,,60,0
92640,note_on,240,0,4,,,,,,,,,3,,,53,0
92640,note_on,0,0,1,,,,,,,,,0,,,74,36
92640,note_on,0,0,4,,,,,,,,,3,,,57,36
92640,note_on,120,0,1,,,,,,,,,0,,,72,0
92760,note_on,0,0,4,,,,,,,,,3,,,53,0
92760,note_on,0,0,4,,,,,,,,,3,,,53,36
92760,note_on,0,0,4,,,,,,,,,3,,,57,36
92760,note_on,120,0,1,,,,,,,,,0,,,74,0
92760,note_on,0,0,3,,,,,,,,,2,,,65,36
92760,note_on,120,0,3,,,,,,,,,2,,,62,0
92760,note_on,0,0,1,,,,,,,,,0,,,77,36
92760,note_on,120,0,4,,,,,,,,,3,,,57,0
93000,note_on,0,0,3,,,,,,,,,2,,,57,36
93000,control_change,0,0,4,,,,,,,,,3,64,0,,
93000,control_change,0,0,3,,,,,,,,,2,64,0,,
93000,note_on,0,0,1,,,,,,,,,0,,,69,36
93000,note_on,0,0,4,,,,,,,,,3,,,53,36
93000,note_on,240,0,1,,,,,,,,,0,,,77,0
93000,note_on,240,0,4,,,,,,,,,3,,,57,0
93000,note_on,0,0,4,,,,,,,,,3,,,53,0
93000,note_on,240,0,3,,,,,,,,,2,,,65,0
93000,control_change,0,0,1,,,,,,,,,0,64,0,,
93120,note_on,120,0,1,,,,,,,,,0,,,69,0
93120,note_on,0,0,3,,,,,,,,,2,,,58,36
93120,note_on,0,0,1,,,,,,,,,0,,,70,36
93120,note_on,0,0,3,,,,,,,,,2,,,55,36
93120,note_on,120,0,3,,,,,,,,,2,,,57,0
93120,note_on,0,0,4,,,,,,,,,3,,,53,36
93120,note_on,120,0,4,,,,,,,,,3,,,53,0
93240,note_on,120,0,1,,,,,,,,,0,,,70,0
93240,note_on,0,0,1,,,,,,,,,0,,,67,36
93360,note_on,120,0,1,,,,,,,,,0,,,67,0
93360,note_on,0,0,1,,,,,,,,,0,,,74,36
93360,note_on,240,0,3,,,,,,,,,2,,,58,0
93360,note_on,0,0,3,,,,,,,,,2,,,55,0
93360,note_on,0,0,3,,,,,,,,,2,,,55,36
93360,note_on,0,0,3,,,,,,,,,2,,,62,36
93360,note_on,0,0,4,,,,,,,,,3,,,53,36
93360,note_on,240,0,4,,,,,,,,,3,,,53,0
93480,note_on,0,0,3,,,,,,,,,2,,,55,0
93480,note_on,120,0,3,,,,,,,,,2,,,62,0
93480,note_on,120,0,1,,,,,,,,,0,,,74,0
93480,note_on,0,0,3,,,,,,,,,2,,,53,36
93480,note_on,0,0,1,,,,,,,,,0,,,72,36
93480,note_on,120,0,4,,,,,,,,,3,,,53,0
93480,note_on,0,0,3,,,,,,,,,2,,,60,36
93480,note_on,0,0,3,,,,,,,,,2,,,57,36
93720,note_on,240,0,1,,,,,,,,,0,,,72,0
93720,note_on,0,0,1,,,,,,,,,0,,,67,36
93720,note_on,0,0,1,,,,,,,,,0,,,79,36
93720,note_on,240,0,3,,,,,,,,,2,,,60,0
93720,note_on,0,0,3,,,,,,,,,2,,,57,0
93720,note_on,0,0,3,,,,,,,,,2,,,53,36
93720,note_on,0,0,3,,,,,,,,,2,,,58,36
93720,note_on,0,0,3,,,,,,,,,2,,,60,36
93720,note_on,0,0,3,,,,,,,,,2,,,53,0
93840,note_on,0,0,3,,,,,,,,,2,,,60,62
93840,note_on,0,0,3,,,,,,,,,2,,,53,54
93840,note_on,0,0,3,,,,,,,,,2,,,53,0
93840,note_on,0,0,3,,,,,,,,,2,,,58,0
93840,note_on,120,0,3,,,,,,,,,2,,,60,0
93840,note_on,0,0,1,,,,,,,,,0,,,67,0
93840,note_on,120,0,1,,,,,,,,,0,,,79,0
93840,note_on,0,0,1,,,,,,,,,0,,,69,54
93840,note_on,0,0,1,,,,,,,,,0,,,81,62
94080,note_on,0,0,1,,,,,,,,,0,,,67,36
94080,note_on,0,0,1,,,,,,,,,0,,,69,0
94080,note_on,0,0,1,,,,,,,,,0,,,72,36
94080,note_on,0,0,3,,,,,,,,,2,,,53,0
94080,note_on,240,0,3,,,,,,,,,2,,,60,0
94080,note_on,0,0,3,,,,,,,,,2,,,58,36
94080,note_on,0,0,3,,,,,,,,,2,,,60,36
94080,note_on,240,0,1,,,,,,,,,0,,,81,0
94080,note_on,0,0,3,,,,,,,,,2,,,53,36
94200,note_on,120,0,1,,,,,,,,,0,,,72,0
94200,note_on,0,0,1,,,,,,,,,0,,,65,36
94200,note_on,0,0,1,,,,,,,,,0,,,67,0
94200,note_on,0,0,3,,,,,,,,,2,,,60,36
94200,note_on,0,0,3,,,,,,,,,2,,,57,36
94200,note_on,0,0,3,,,,,,,,,2,,,53,36
94200,note_on,120,0,3,,,,,,,,,2,,,60,0
94200,note_on,0,0,3,,,,,,,,,2,,,58,0
94200,note_on,0,0,3,,,,,,,,,2,,,53,0
94200,note_on,0,0,1,,,,,,,,,0,,,69,36
94440,note_on,0,0,1,,,,,,,,,0,,,67,36
94440,note_on,240,0,1,,,,,,,,,0,,,69,0
94440,note_on,0,0,1,,,,,,,,,0,,,65,0
94440,note_on,0,0,1,,,,,,,,,0,,,79,36
94440,note_on,0,0,3,,,,,,,,,2,,,60,36
94440,note_on,240,0,3,,,,,,,,,2,,,60,0
94440,note_on,0,0,3,,,,,,,,,2,,,57,0
94440,note_on,0,0,3,,,,,,,,,2,,,53,0
94440,note_on,0,0,3,,,,,,,,,2,,,53,36
94440,note_on,0,0,3,,,,,,,,,2,,,58,36
94560,note_on,0,0,1,,,,,,,,,0,,,67,0
94560,note_on,0,0,3,,,,,,,,,2,,,58,0
94560,note_on,0,0,1,,,,,,,,,0,,,81,62
94560,note_on,0,0,1,,,,,,,,,0,,,69,54
94560,note_on,120,0,3,,,,,,,,,2,,,60,0
94560,note_on,120,0,1,,,,,,,,,0,,,79,0
94560,note_on,0,0,3,,,,,,,,,2,,,53,0
94560,note_on,0,0,3,,,,,,,,,2,,,53,54
94560,note_on,0,0,3,,,,,,,,,2,,,60,62
94800,note_on,0,0,3,,,,,,,,,2,,,60,36
94800,note_on,0,0,3,,,,,,,,,2,,,58,36
94800,note_on,0,0,3,,,,,,,,,2,,,53,0
94800,note_on,240,0,3,,,,,,,,,2,,,60,0
94800,note_on,240,0,1,,,,,,,,,0,,,81,0
94800,note_on,0,0,1,,,,,,,,,0,,,69,0
94800,note_on,0,0,1,,,,,,,,,0,,,67,36
94800,note_on,0,0,1,,,,,,,,,0,,,72,36
94800,note_on,0,0,3,,,,,,,,,2,,,53,36
94920,note_on,0,0,3,,,,,,,,,2,,,57,36
94920,note_on,120,0,3,,,,,,,,,2,,,60,0
94920,note_on,0,0,3,,,,,,,,,2,,,58,0
94920,note_on,0,0,3,,,,,,,,,2,,,53,0
94920,note_on,0,0,3,,,,,,,,,2,,,53,36
94920,note_on,0,0,3,,,,,,,,,2,,,60,36
94920,note_on,0,0,1,,,,,,,,,0,,,67,0
94920,note_on,120,0,1,,,,,,,,,0,,,72,0
94920,note_on,0,0,1,,,,,,,,,0,,,69,36
94920,note_on,0,0,1,,,,,,,,,0,,,65,36
95160,note_on,0,0,3,,,,,,,,,2,,,60,36
95160,note_on,0,0,3,,,,,,,,,2,,,57,36
95160,note_on,0,0,3,,,,,,,,,2,,,53,36
95160,note_on,0,0,3,,,,,,,,,2,,,53,0
95160,note_on,0,0,3,,,,,,,,,2,,,57,0
95160,note_on,240,0,3,,,,,,,,,2,,,60,0
95160,note_on,240,0,1,,,,,,,,,0,,,69,0
95160,note_on,0,0,1,,,,,,,,,0,,,65,0
95160,note_on,0,0,1,,,,,,,,,0,,,72,36
95160,note_on,0,0,1,,,,,,,,,0,,,84,36
95280,note_on,120,0,3,,,,,,,,,2,,,60,0
95280,note_on,120,0,1,,,,,,,,,0,,,84,0
95280,note_on,0,0,1,,,,,,,,,0,,,81,36
95280,note_on,0,0,1,,,,,,,,,0,,,69,36
95280,note_on,0,0,3,,,,,,,,,2,,,57,36
95280,note_on,0,0,3,,,,,,,,,2,,,57,0
95280,control_change,0,0,1,,,,,,,,,0,64,127,,
95280,control_change,1800,0,4,,,,,,,,,3,64,127,,
95280,note_on,0,0,3,,,,,,,,,2,,,53,0
95280,note_on,0,0,4,,,,,,,,,3,,,53,36
95280,note_on,0,0,1,,,,,,,,,0,,,72,0
95280,control_change,0,0,3,,,,,,,,,2,64,127,,
95400,note_on,120,0,3,,,,,,,,,2,,,57,0
95400,note_on,0,0,1,,,,,,,,,0,,,69,0
95400,note_on,0,0,1,,,,,,,,,0,,,72,36
95400,note_on,0,0,1,,,,,,,,,0,,,84,36
95400,note_on,120,0,1,,,,,,,,,0,,,81,0
95400,note_on,0,0,3,,,,,,,,,2,,,60,36
95520,note_on,120,0,1,,,,,,,,,0,,,84,0
95520,note_on,0,0,1,,,,,,,,,0,,,72,0
95520,note_on,0,0,1,,,,,,,,,0,,,74,36
95520,note_on,0,0,1,,,,,,,,,0,,,86,36
95520,note_on,0,0,4,,,,,,,,,3,,,57,36
95520,note_on,0,0,4,,,,,,,,,3,,,53,36
95520,note_on,240,0,4,,,,,,,,,3,,,53,0
95520,note_on,0,0,3,,,,,,,,,2,,,62,36
95520,note_on,120,0,3,,,,,,,,,2,,,60,0
95640,note_on,0,0,1,,,,,,,,,0,,,77,36
95640,note_on,0,0,1,,,,,,,,,0,,,74,0
95640,note_on,120,0,1,,,,,,,,,0,,,86,0
95640,note_on,0,0,1,,,,,,,,,0,,,89,36
95640,note_on,0,0,4,,,,,,,,,3,,,53,0
95640,note_on,120,0,4,,,,,,,,,3,,,57,0
95640,note_on,0,0,4,,,,,,,,,3,,,57,36
95640,note_on,0,0,4,,,,,,,,,3,,,53,36
95640,note_on,120,0,3,,,,,,,,,2,,,62,0
95640,note_on,0,0,3,,,,,,,,,2,,,65,36
95880,control_change,0,0,1,,,,,,,,,0,64,0,,
95880,note_on,0,0,1,,,,,,,,,0,,,81,36
95880,note_on,0,0,1,,,,,,,,,0,,,69,36
95880,note_on,0,0,1,,,,,,,,,0,,,77,0
95880,note_on,240,0,1,,,,,,,,,0,,,89,0
95880,note_on,240,0,3,,,,,,,,,2,,,65,0
95880,control_change,0,0,3,,,,,,,,,2,64,0,,
95880,note_on,0,0,3,,,,,,,,,2,,,57,36
95880,note_on,0,0,4,,,,,,,,,3,,,53,36
95880,control_change,0,0,4,,,,,,,,,3,64,0,,
95880,note_on,0,0,4,,,,,,,,,3,,,53,0
95880,note_on,240,0,4,,,,,,,,,3,,,57,0
96000,note_on,120,0,3,,,,,,,,,2,,,57,0
96000,note_on,0,0,3,,,,,,,,,2,,,55,36
96000,note_on,0,0,3,,,,,,,,,2,,,58,36
96000,note_on,120,0,1,,,,,,,,,0,,,81,0
96000,note_on,0,0,1,,,,,,,,,0,,,70,36
96000,note_on,0,0,1,,,,,,,,,0,,,69,0
96000,note_on,120,0,4,,,,,,,,,3,,,53,0
96000,note_on,0,0,4,,,,,,,,,3,,,53,36
96000,note_on,0,0,1,,,,,,,,,0,,,82,36
96120,note_on,0,0,1,,,,,,,,,0,,,79,36
96120,note_on,120,0,1,,,,,,,,,0,,,82,0
96120,note_on,0,0,1,,,,,,,,,0,,,70,0
96120,note_on,0,0,1,,,,,,,,,0,,,67,36
96240,note_on,120,0,1,,,,,,,,,0,,,79,0
96240,note_on,0,0,1,,,,,,,,,0,,,67,0
96240,note_on,0,0,1,,,,,,,,,0,,,74,36
96240,note_on,0,0,1,,,,,,,,,0,,,86,36
96240,note_on,0,0,3,,,,,,,,,2,,,55,0
96240,note_on,0,0,3,,,,,,,,,2,,,62,36
96240,note_on,0,0,4,,,,,,,,,3,,,53,36
96240,note_on,240,0,4,,,,,,,,,3,,,53,0
96240,note_on,240,0,3,,,,,,,,,2,,,58,0
96240,note_on,0,0,3,,,,,,,,,2,,,55,36
96360,note_on,120,0,3,,,,,,,,,2,,,62,0
96360,note_on,0,0,3,,,,,,,,,2,,,53,36
96360,note_on,0,0,1,,,,,,,,,0,,,84,36
96360,note_on,0,0,1,,,,,,,,,0,,,74,0
96360,note_on,120,0,1,,,,,,,,,0,,,86,0
96360,note_on,0,0,3,,,,,,,,,2,,,57,36
96360,note_on,0,0,1,,,,,,,,,0,,,72,36
96360,note_on,0,0,3,,,,,,,,,2,,,60,36
96360,note_on,0,0,3,,,,,,,,,2,,,55,0
96360,note_on,120,0,4,,,,,,,,,3,,,53,0
96600,note_on,0,0,3,,,,,,,,,2,,,67,36
96600,note_on,240,0,1,,,,,,,,,0,,,84,0
96600,note_on,0,0,1,,,,,,,,,0,,,91,36
96600,note_on,0,0,1,,,,,,,,,0,,,72,0
96600,note_on,240,0,3,,,,,,,,,2,,,60,0
96600,note_on,0,0,1,,,,,,,,,0,,,79,36
96600,note_on,0,0,3,,,,,,,,,2,,,60,36
96600,note_on,0,0,3,,,,,,,,,2,,,57,0
96600,note_on,0,0,3,,,,,,,,,2,,,53,0
96600,note_on,0,0,3,,,,,,,,,2,,,53,36
96600,note_on,0,0,3,,,,,,,,,2,,,58,36
96720,note_on,0,0,1,,,,,,,,,0,,,93,62
96720,note_on,0,0,1,,,,,,,,,0,,,81,54
96720,note_on,0,0,1,,,,,,,,,0,,,79,0
96720,note_on,120,0,1,,,,,,,,,0,,,91,0
96720,note_on,0,0,3,,,,,,,,,2,,,53,0
96720,note_on,0,0,3,,,,,,,,,2,,,60,57
96720,note_on,0,0,3,,,,,,,,,2,,,58,0
96720,note_on,0,0,3,,,,,,,,,2,,,60,0
96720,note_on,0,0,3,,,,,,,,,2,,,53,52
96720,note_on,0,0,3,,,,,,,,,2,,,69,62
96720,note_on,120,0,3,,,,,,,,,2,,,67,0
96960,note_on,240,0,3,,,,,,,,,2,,,69,0
96960,note_on,0,0,3,,,,,,,,,2,,,53,0
96960,note_on,0,0,3,,,,,,,,,2,,,53,36
96960,note_on,0,0,1,,,,,,,,,0,,,84,36
96960,note_on,0,0,3,,,,,,,,,2,,,67,36
96960,note_on,0,0,3,,,,,,,,,2,,,60,36
96960,note_on,240,0,1,,,,,,,,,0,,,93,0
96960,note_on,0,0,1,,,,,,,,,0,,,81,0
96960,note_on,0,0,1,,,,,,,,,0,,,72,36
96960,note_on,0,0,3,,,,,,,,,2,,,60,0
96960,note_on,0,0,3,,,,,,,,,2,,,58,36
97080,note_on,0,0,3,,,,,,,,,2,,,65,36
97080,note_on,0,0,1,,,,,,,,,0,,,72,0
97080,note_on,0,0,1,,,,,,,,,0,,,69,36
97080,note_on,0,0,1,,,,,,,,,0,,,81,36
97080,note_on,0,0,3,,,,,,,,,2,,,60,36
97080,note_on,0,0,3,,,,,,,,,2,,,57,36
97080,note_on,0,0,3,,,,,,,,,2,,,53,36
97080,note_on,0,0,3,,,,,,,,,2,,,58,0
97080,note_on,0,0,3,,,,,,,,,2,,,53,0
97080,note_on,120,0,3,,,,,,,,,2,,,67,0
97080,note_on,120,0,1,,,,,,,,,0,,,84,0
97080,note_on,0,0,3,,,,,,,,,2,,,60,0
97320,note_on,0,0,1,,,,,,,,,0,,,91,36
97320,note_on,0,0,1,,,,,,,,,0,,,79,36
97320,note_on,0,0,3,,,,,,,,,2,,,60,36
97320,note_on,0,0,3,,,,,,,,,2,,,53,36
97320,note_on,240,0,3,,,,,,,,,2,,,65,0
97320,note_on,0,0,3,,,,,,,,,2,,,53,0
97320,note_on,0,0,3,,,,,,,,,2,,,57,0
97320,note_on,0,0,3,,,,,,,,,2,,,60,0
97320,note_on,0,0,1,,,,,,,,,0,,,69,0
97320,note_on,0,0,3,,,,,,,,,2,,,58,36
97320,note_on,240,0,1,,,,,,,,,0,,,81,0
97320,note_on,0,0,3,,,,,,,,,2,,,67,36
97440,note_on,120,0,3,,,,,,,,,2,,,67,0
97440,note_on,0,0,3,,,,,,,,,2,,,53,0
97440,note_on,0,0,3,,,,,,,,,2,,,58,0
97440,note_on,0,0,3,,,,,,,,,2,,,60,0
97440,note_on,0,0,1,,,,,,,,,0,,,93,62
97440,note_on,0,0,1,,,,,,,,,0,,,81,54
97440,note_on,0,0,1,,,,,,,,,0,,,79,0
97440,note_on,120,0,1,,,,,,,,,0,,,91,0
97440,note_on,0,0,3,,,,,,,,,2,,,53,52
97440,note_on,0,0,3,,,,,,,,,2,,,60,57
97440,note_on,0,0,3,,,,,,,,,2,,,69,62
97680,note_on,0,0,3,,,,,,,,,2,,,58,36
97680,note_on,0,0,1,,,,,,,,,0,,,81,0
97680,note_on,0,0,3,,,,,,,,,2,,,53,0
97680,note_on,0,0,3,,,,,,,,,2,,,53,36
97680,note_on,0,0,3,,,,,,,,,2,,,60,36
97680,note_on,0,0,3,,,,,,,,,2,,,67,36
97680,note_on,0,0,3,,,,,,,,,2,,,60,0
97680,note_on,240,0,1,,,,,,,,,0,,,93,0
97680,note_on,240,0,3,,,,,,,,,2,,,69,0
97680,note_on,0,0,1,,,,,,,,,0,,,72,36
97680,note_on,0,0,1,,,,,,,,,0,,,84,36
97800,note_on,0,0,3,,,,,,,,,2,,,53,36
97800,note_on,120,0,1,,,,,,,,,0,,,84,0
97800,note_on,0,0,1,,,,,,,,,0,,,72,0
97800,note_on,0,0,1,,,,,,,,,0,,,69,36
97800,note_on,0,0,3,,,,,,,,,2,,,65,36
97800,note_on,0,0,3,,,,,,,,,2,,,60,36
97800,note_on,0,0,3,,,,,,,,,2,,,57,36
97800,note_on,0,0,1,,,,,,,,,0,,,81,36
97800,note_on,0,0,3,,,,,,,,,2,,,60,0
97800,note_on,0,0,3,,,,,,,,,2,,,58,0
97800,note_on,0,0,3,,,,,,,,,2,,,53,0
97800,note_on,120,0,3,,,,,,,,,2,,,67,0
98040,note_on,0,0,3,,,,,,,,,2,,,62,36
98040,note_on,0,0,3,,,,,,,,,2,,,60,0
98040,note_on,0,0,3,,,,,,,,,2,,,53,36
98040,note_on,0,0,3,,,,,,,,,2,,,57,36
98040,note_on,0,0,3,,,,,,,,,2,,,57,0
98040,note_on,0,0,3,,,,,,,,,2,,,53,0
98040,note_on,240,0,3,,,,,,,,,2,,,65,0
98040,note_on,0,0,1,,,,,,,,,0,,,86,36
98040,note_on,240,0,1,,,,,,,,,0,,,81,0
98040,note_on,0,0,1,,,,,,,,,0,,,74,36
98040,note_on,0,0,1,,,,,,,,,0,,,69,0
98160,note_on,0,0,1,,,,,,,,,0,,,74,0
98160,note_on,0,0,1,,,,,,,,,0,,,69,36
98160,note_on,0,0,1,,,,,,,,,0,,,81,36
98160,note_on,120,0,3,,,,,,,,,2,,,62,0
98160,note_on,0,0,3,,,,,,,,,2,,,57,0
98160,note_on,0,0,3,,,,,,,,,2,,,53,0
98160,note_on,120,0,1,,,,,,,,,0,,,86,0
98160,note_on,0,0,3,,,,,,,,,2,,,57,36
98160,note_on,0,0,3,,,,,,,,,2,,,53,36
98160,note_on,0,0,3,,,,,,,,,2,,,60,36
98400,note_on,240,0,3,,,,,,,,,2,,,60,0
98400,note_on,0,0,3,,,,,,,,,2,,,57,0
98400,note_on,0,0,3,,,,,,,,,2,,,53,36
98400,note_on,0,0,3,,,,,,,,,2,,,57,36
98400,note_on,0,0,3,,,,,,,,,2,,,62,36
98400,note_on,0,0,1,,,,,,,,,0,,,86,36
98400,note_on,0,0,1,,,,,,,,,0,,,74,36
98400,note_on,0,0,1,,,,,,,,,0,,,69,0
98400,note_on,240,0,1,,,,,,,,,0,,,81,0
98400,note_on,0,0,3,,,,,,,,,2,,,53,0
98520,note_on,120,0,3,,,,,,,,,2,,,62,0
98520,note_on,0,0,3,,,,,,,,,2,,,57,0
98520,note_on,0,0,3,,,,,,,,,2,,,53,0
98520,note_on,0,0,3,,,,,,,,,2,,,53,36
98520,note_on,0,0,3,,,,,,,,,2,,,57,36
98520,note_on,0,0,3,,,,,,,,,2,,,60,36
98520,note_on,120,0,1,,,,,,,,,0,,,86,0
98520,note_on,0,0,1,,,,,,,,,0,,,74,0
98520,note_on,0,0,1,,,,,,,,,0,,,69,36
98520,note_on,0,0,1,,,,,,,,,0,,,81,36
98760,note_on,0,0,3,,,,,,,,,2,,,62,36
98760,note_on,0,0,3,,,,,,,,,2,,,57,36
98760,note_on,0,0,3,,,,,,,,,2,,,53,0
98760,note_on,0,0,3,,,,,,,,,2,,,57,0
98760,note_on,0,0,3,,,,,,,,,2,,,53,36
98760,note_on,0,0,1,,,,,,,,,0,,,74,36
98760,note_on,0,0,1,,,,,,,,,0,,,69,0
98760,note_on,240,0,1,,,,,,,,,0,,,81,0
98760,note_on,0,0,1,,,,,,,,,0,,,86,36
98760,note_on,240,0,3,,,,,,,,,2,,,60,0
98880,note_on,0,0,3,,,,,,,,,2,,,64,36
98880,note_on,120,0,3,,,,,,,,,2,,,62,0
98880,note_on,0,0,3,,,,,,,,,2,,,57,0
98880,note_on,0,0,3,,,,,,,,,2,,,53,0
98880,note_on,0,0,3,,,,,,,,,2,,,52,36
98880,note_on,0,0,3,,,,,,,,,2,,,57,36
98880,note_on,0,0,3,,,,,,,,,2,,,60,36
98880,note_on,0,0,1,,,,,,,,,0,,,76,36
98880,note_on,120,0,1,,,,,,,,,0,,,86,0
98880,note_on,0,0,1,,,,,,,,,0,,,74,0
98880,note_on,0,0,1,,,,,,,,,0,,,88,36
98892,note_on,0,0,3,,,,,,,,,2,,,57,0
98892,note_on,0,0,3,,,,,,,,,2,,,60,0
98892,note_on,0,0,1,,,,,,,,,0,,,76,0
98892,note_on,0,0,3,,,,,,,,,2,,,52,0
98892,note_on,12,0,3,,,,,,,,,2,,,64,0
98892,note_on,12,0,1,,,,,,,,,0,,,88,0
99000,note_on,0,0,1,,,,,,,,,0,,,88,36
99000,note_on,108,0,1,,,,,,,,,0,,,76,36
99000,note_on,0,0,3,,,,,,,,,2,,,64,36
99000,note_on,0,0,3,,,,,,,,,2,,,60,36
99000,note_on,0,0,3,,,,,,,,,2,,,57,36
99000,note_on,108,0,3,,,,,,,,,2,,,52,36
99012,note_on,12,0,1,,,,,,,,,0,,,88,0
99012,note_on,0,0,3,,,,,,,,,2,,,57,0
99012,note_on,12,0,3,,,,,,,,,2,,,64,0
99012,note_on,0,0,3,,,,,,,,,2,,,52,0
99012,note_on,0,0,3,,,,,,,,,2,,,60,0
99012,note_on,0,0,1,,,,,,,,,0,,,76,0
99120,note_on,0,0,1,,,,,,,,,0,,,88,36
99120,note_on,108,0,3,,,,,,,,,2,,,52,36
99120,note_on,0,0,3,,,,,,,,,2,,,56,36
99120,note_on,0,0,3,,,,,,,,,2,,,59,36
99120,note_on,108,0,1,,,,,,,,,0,,,76,36
99120,note_on,0,0,3,,,,,,,,,2,,,64,36
99132,note_on,12,0,3,,,,,,,,,2,,,64,0
99132,note_on,12,0,1,,,,,,,,,0,,,88,0
99132,note_on,0,0,1,,,,,,,,,0,,,76,0
99132,note_on,0,0,3,,,,,,,,,2,,,52,0
99132,note_on,0,0,3,,,,,,,,,2,,,56,0
99132,note_on,0,0,3,,,,,,,,,2,,,59,0
99240,note_on,0,0,3,,,,,,,,,2,,,64,36
99240,note_on,108,0,1,,,,,,,,,0,,,76,36
99240,time_signature,6840,1,0,2,4,24,8,,,,,,,,,
99240,note_on,108,0,3,,,,,,,,,2,,,57,36
99240,note_on,0,0,3,,,,,,,,,2,,,60,36
99240,note_on,0,0,1,,,,,,,,,0,,,88,36
99252,note_on,0,0,1,,,,,,,,,0,,,76,0
99252,note_on,0,0,3,,,,,,,,,2,,,57,0
99252,note_on,12,0,1,,,,,,,,,0,,,88,0
99252,note_on,12,0,3,,,,,,,,,2,,,64,0
99252,note_on,0,0,3,,,,,,,,,2,,,60,0
99480,note_on,0,0,3,,,,,,,,,2,,,60,36
99480,note_on,0,0,1,,,,,,,,,0,,,72,36
99480,control_change,228,0,1,,,,,,,,,0,64,0,,
99480,time_signature,240,1,0,1,4,24,8,,,,,,,,,
99480,control_change,228,0,3,,,,,,,,,2,64,0,,
99600,note_on,120,0,1,,,,,,,,,0,,,72,0
99600,control_change,0,0,1,,,,,,,,,0,64,127,,
99600,note_on,0,0,4,,,,,,,,,3,,,53,36
99600,note_on,0,0,3,,,,,,,,,2,,,57,36
99600,control_change,0,0,3,,,,,,,,,2,64,127,,
99600,note_on,120,0,3,,,,,,,,,2,,,60,0
99600,note_on,0,0,1,,,,,,,,,0,,,69,36
99600,time_signature,120,1,0,3,4,24,8,,,,,,,,,
99600,control_change,3240,0,4,,,,,,,,,3,64,127,,
99720,note_on,120,0,1,,,,,,,,,0,,,69,0
99720,note_on,120,0,3,,,,,,,,,2,,,57,0
99720,note_on,0,0,3,,,,,,,,,2,,,60,36
99720,note_on,0,0,1,,,,,,,,,0,,,72,36
99840,note_on,120,0,1,,,,,,,,,0,,,72,0
99840,note_on,0,0,1,,,,,,,,,0,,,74,36
99840,note_on,0,0,3,,,,,,,,,2,,,62,36
99840,note_on,0,0,4,,,,,,,,,3,,,57,36
99840,note_on,0,0,4,,,,,,,,,3,,,53,36
99840,note_on,240,0,4,,,,,,,,,3,,,53,0
99840,note_on,120,0,3,,,,,,,,,2,,,60,0
99960,note_on,0,0,4,,,,,,,,,3,,,53,0
99960,note_on,0,0,4,,,,,,,,,3,,,53,36
99960,note_on,0,0,4,,,,,,,,,3,,,57,36
99960,note_on,0,0,3,,,,,,,,,2,,,65,36
99960,note_on,120,0,3,,,,,,,,,2,,,62,0
99960,note_on,120,0,4,,,,,,,,,3,,,57,0
99960,note_on,120,0,1,,,,,,,,,0,,,74,0
99960,note_on,0,0,1,,,,,,,,,0,,,77,36
100200,note_on,240,0,3,,,,,,,,,2,,,65,0
100200,control_change,0,0,3,,,,,,,,,2,64,0,,
100200,note_on,0,0,3,,,,,,,,,2,,,57,36
100200,note_on,240,0,1,,,,,,,,,0,,,77,0
100200,control_change,0,0,1,,,,,,,,,0,64,0,,
100200,note_on,0,0,1,,,,,,,,,0,,,69,36
100200,note_on,240,0,4,,,,,,,,,3,,,57,0
100200,note_on,0,0,4,,,,,,,,,3,,,53,0
100200,control_change,0,0,4,,,,,,,,,3,64,0,,
100200,note_on,0,0,4,,,,,,,,,3,,,53,36
100320,note_on,0,0,3,,,,,,,,,2,,,55,36
100320,note_on,0,0,3,,,,,,,,,2,,,58,36
100320,note_on,120,0,3,,,,,,,,,2,,,57,0
100320,note_on,0,0,1,,,,,,,,,0,,,70,36
100320,note_on,0,0,4,,,,,,,,,3,,,53,36
100320,note_on,120,0,1,,,,,,,,,0,,,69,0
100320,note_on,120,0,4,,,,,,,,,3,,,53,0
100440,note_on,0,0,1,,,,,,,,,0,,,67,36
100440,note_on,120,0,1,,,,,,,,,0,,,70,0
100560,note_on,0,0,3,,,,,,,,,2,,,62,36
100560,note_on,0,0,4,,,,,,,,,3,,,53,36
100560,note_on,0,0,3,,,,,,,,,2,,,55,0
100560,note_on,240,0,3,,,,,,,,,2,,,58,0
100560,note_on,240,0,4,,,,,,,,,3,,,53,0
100560,note_on,0,0,1,,,,,,,,,0,,,74,36
100560,note_on,120,0,1,,,,,,,,,0,,,67,0
100560,note_on,0,0,3,,,,,,,,,2,,,55,36
100680,note_on,120,0,3,,,,,,,,,2,,,62,0
100680,note_on,0,0,3,,,,,,,,,2,,,60,36
100680,note_on,0,0,3,,,,,,,,,2,,,57,36
100680,note_on,0,0,3,,,,,,,,,2,,,55,0
100680,note_on,0,0,3,,,,,,,,,2,,,53,36
100680,note_on,0,0,1,,,,,,,,,0,,,72,36
100680,note_on,120,0,1,,,,,,,,,0,,,74,0
100680,note_on,120,0,4,,,,,,,,,3,,,53,0
100920,note_on,0,0,3,,,,,,,,,2,,,60,36
100920,note_on,0,0,3,,,,,,,,,2,,,58,36
100920,note_on,240,0,1,,,,,,,,,0,,,72,0
100920,note_on,0,0,3,,,,,,,,,2,,,57,0
100920,note_on,0,0,3,,,,,,,,,2,,,53,0
100920,note_on,0,0,3,,,,,,,,,2,,,53,36
100920,note_on,0,0,1,,,,,,,,,0,,,79,36
100920,note_on,0,0,1,,,,,,,,,0,,,67,36
100920,note_on,240,0,3,,,,,,,,,2,,,60,0
101040,note_on,120,0,1,,,,,,,,,0,,,79,0
101040,note_on,0,0,1,,,,,,,,,0,,,67,0
101040,note_on,0,0,1,,,,,,,,,0,,,69,54
101040,note_on,0,0,3,,,,,,,,,2,,,60,62
101040,note_on,0,0,3,,,,,,,,,2,,,53,0
101040,note_on,0,0,3,,,,,,,,,2,,,58,0
101040,note_on,120,0,3,,,,,,,,,2,,,60,0
101040,note_on,0,0,1,,,,,,,,,0,,,81,62
101040,note_on,0,0,3,,,,,,,,,2,,,53,54
101280,note_on,0,0,3,,,,,,,,,2,,,58,36
101280,note_on,0,0,3,,,,,,,,,2,,,53,36
101280,note_on,0,0,3,,,,,,,,,2,,,60,36
101280,note_on,240,0,3,,,,,,,,,2,,,60,0
101280,note_on,0,0,3,,,,,,,,,2,,,53,0
101280,note_on,240,0,1,,,,,,,,,0,,,81,0
101280,note_on,0,0,1,,,,,,,,,0,,,69,0
101280,note_on,0,0,1,,,,,,,,,0,,,67,36
101280,note_on,0,0,1,,,,,,,,,0,,,72,36
101400,note_on,120,0,3,,,,,,,,,2,,,60,0
101400,note_on,0,0,3,,,,,,,,,2,,,53,36
101400,note_on,0,0,3,,,,,,,,,2,,,57,36
101400,note_on,0,0,3,,,,,,,,,2,,,60,36
101400,note_on,0,0,3,,,,,,,,,2,,,53,0
101400,note_on,0,0,3,,,,,,,,,2,,,58,0
101400,note_on,0,0,1,,,,,,,,,0,,,65,36
101400,note_on,0,0,1,,,,,,,,,0,,,67,0
101400,note_on,120,0,1,,,,,,,,,0,,,72,0
101400,note_on,0,0,1,,,,,,,,,0,,,69,36
101640,note_on,0,0,3,,,,,,,,,2,,,53,36
101640,note_on,0,0,3,,,,,,,,,2,,,53,0
101640,note_on,0,0,3,,,,,,,,,2,,,57,0
101640,note_on,240,0,3,,,,,,,,,2,,,60,0
101640,note_on,0,0,3,,,,,,,,,2,,,58,36
101640,note_on,0,0,3,,,,,,,,,2,,,60,36
101640,note_on,240,0,1,,,,,,,,,0,,,69,0
101640,note_on,0,0,1,,,,,,,,,0,,,79,36
101640,note_on,0,0,1,,,,,,,,,0,,,67,36
101640,note_on,0,0,1,,,,,,,,,0,,,65,0
101760,note_on,0,0,3,,,,,,,,,2,,,60,62
101760,note_on,0,0,1,,,,,,,,,0,,,69,54
101760,note_on,0,0,1,,,,,,,,,0,,,67,0
101760,note_on,120,0,1,,,,,,,,,0,,,79,0
101760,note_on,120,0,3,,,,,,,,,2,,,60,0
101760,note_on,0,0,1,,,,,,,,,0,,,81,62
101760,note_on,0,0,3,,,,,,,,,2,,,53,54
101760,note_on,0,0,3,,,,,,,,,2,,,53,0
101760,note_on,0,0,3,,,,,,,,,2,,,58,0
102000,note_on,240,0,1,,,,,,,,,0,,,81,0
102000,note_on,0,0,3,,,,,,,,,2,,,53,36
102000,note_on,0,0,3,,,,,,,,,2,,,53,0
102000,note_on,240,0,3,,,,,,,,,2,,,60,0
102000,note_on,0,0,3,,,,,,,,,2,,,58,36
102000,note_on,0,0,3,,,,,,,,,2,,,60,36
102000,note_on,0,0,1,,,,,,,,,0,,,69,0
102000,note_on,0,0,1,,,,,,,,,0,,,67,36
102000,note_on,0,0,1,,,,,,,,,0,,,72,36
102120,note_on,0,0,3,,,,,,,,,2,,,53,0
102120,note_on,120,0,1,,,,,,,,,0,,,72,0
102120,note_on,0,0,1,,,,,,,,,0,,,67,0
102120,note_on,0,0,1,,,,,,,,,0,,,65,36
102120,note_on,0,0,1,,,,,,,,,0,,,69,36
102120,note_on,0,0,3,,,,,,,,,2,,,57,36
102120,note_on,0,0,3,,,,,,,,,2,,,60,36
102120,note_on,0,0,3,,,,,,,,,2,,,58,0
102120,note_on,0,0,3,,,,,,,,,2,,,53,36
102120,note_on,120,0,3,,,,,,,,,2,,,60,0
102360,note_on,0,0,3,,,,,,,,,2,,,57,0
102360,note_on,0,0,3,,,,,,,,,2,,,53,0
102360,note_on,240,0,3,,,,,,,,,2,,,60,0
102360,note_on,0,0,3,,,,,,,,,2,,,57,36
102360,note_on,0,0,3,,,,,,,,,2,,,60,36
102360,note_on,0,0,1,,,,,,,,,0,,,65,0
102360,note_on,240,0,1,,,,,,,,,0,,,69,0
102360,note_on,0,0,1,,,,,,,,,0,,,84,36
102360,note_on,0,0,3,,,,,,,,,2,,,53,36
102360,note_on,0,0,1,,,,,,,,,0,,,72,36
102480,control_change,1800,0,4,,,,,,,,,3,64,127,,
102480,note_on,120,0,3,,,,,,,,,2,,,60,0
102480,note_on,0,0,3,,,,,,,,,2,,,57,0
102480,note_on,0,0,3,,,,,,,,,2,,,53,0
102480,control_change,0,0,3,,,,,,,,,2,64,127,,
102480,note_on,120,0,1,,,,,,,,,0,,,84,0
102480,note_on,0,0,1,,,,,,,,,0,,,72,0
102480,note_on,0,0,1,,,,,,,,,0,,,69,36
102480,note_on,0,0,1,,,,,,,,,0,,,81,36
102480,control_change,0,0,1,,,,,,,,,0,64,127,,
102480,note_on,0,0,4,,,,,,,,,3,,,53,36
102480,note_on,0,0,3,,,,,,,,,2,,,57,36
102600,note_on,120,0,1,,,,,,,,,0,,,81,0
102600,note_on,0,0,1,,,,,,,,,0,,,84,36
102600,note_on,120,0,3,,,,,,,,,2,,,57,0
102600,note_on,0,0,3,,,,,,,,,2,,,60,36
102600,note_on,0,0,1,,,,,,,,,0,,,69,0
102600,note_on,0,0,1,,,,,,,,,0,,,72,36
102720,note_on,120,0,1,,,,,,,,,0,,,84,0
102720,note_on,0,0,1,,,,,,,,,0,,,72,0
102720,note_on,0,0,1,,,,,,,,,0,,,74,36
102720,note_on,0,0,1,,,,,,,,,0,,,86,36
102720,note_on,0,0,4,,,,,,,,,3,,,57,36
102720,note_on,240,0,4,,,,,,,,,3,,,53,0
102720,note_on,0,0,4,,,,,,,,,3,,,53,36
102720,note_on,120,0,3,,,,,,,,,2,,,60,0
102720,note_on,0,0,3,,,,,,,,,2,,,62,36
102840,note_on,0,0,4,,,,,,,,,3,,,57,36
102840,note_on,0,0,4,,,,,,,,,3,,,53,36
102840,note_on,0,0,4,,,,,,,,,3,,,53,0
102840,note_on,0,0,1,,,,,,,,,0,,,89,36
102840,note_on,0,0,1,,,,,,,,,0,,,77,36
102840,note_on,120,0,4,,,,,,,,,3,,,57,0
102840,note_on,120,0,1,,,,,,,,,0,,,86,0
102840,note_on,0,0,3,,,,,,,,,2,,,65,36
102840,note_on,120,0,3,,,,,,,,,2,,,62,0
102840,note_on,0,0,1,,,,,,,,,0,,,74,0
103080,note_on,240,0,1,,,,,,,,,0,,,89,0
103080,note_on,0,0,1,,,,,,,,,0,,,69,36
103080,note_on,0,0,1,,,,,,,,,0,,,81,36
103080,control_change,0,0,1,,,,,,,,,0,64,0,,
103080,note_on,0,0,4,,,,,,,,,3,,,53,36
103080,control_change,0,0,4,,,,,,,,,3,64,0,,
103080,note_on,0,0,4,,,,,,,,,3,,,53,0
103080,note_on,240,0,4,,,,,,,,,3,,,57,0
103080,note_on,0,0,1,,,,,,,,,0,,,77,0
103080,control_change,0,0,3,,,,,,,,,2,64,0,,
103080,note_on,0,0,3,,,,,,,,,2,,,57,36
103080,note_on,240,0,3,,,,,,,,,2,,,65,0
103200,note_on,0,0,1,,,,,,,,,0,,,69,0
103200,note_on,0,0,1,,,,,,,,,0,,,70,36
103200,note_on,0,0,4,,,,,,,,,3,,,53,36
103200,note_on,120,0,4,,,,,,,,,3,,,53,0
103200,note_on,120,0,1,,,,,,,,,0,,,81,0
103200,note_on,0,0,3,,,,,,,,,2,,,58,36
103200,note_on,120,0,3,,,,,,,,,2,,,57,0
103200,note_on,0,0,1,,,,,,,,,0,,,82,36
103200,note_on,0,0,3,,,,,,,,,2,,,55,36
103320,note_on,0,0,1,,,,,,,,,0,,,67,36
103320,note_on,0,0,1,,,,,,,,,0,,,79,36
103320,note_on,120,0,1,,,,,,,,,0,,,82,0
103320,note_on,0,0,1,,,,,,,,,0,,,70,0
103440,note_on,240,0,4,,,,,,,,,3,,,53,0
103440,note_on,240,0,3,,,,,,,,,2,,,58,0
103440,note_on,0,0,3,,,,,,,,,2,,,55,0
103440,note_on,0,0,3,,,,,,,,,2,,,55,36
103440,note_on,0,0,3,,,,,,,,,2,,,62,36
103440,note_on,0,0,4,,,,,,,,,3,,,53,36
103440,note_on,0,0,1,,,,,,,,,0,,,86,36
103440,note_on,0,0,1,,,,,,,,,0,,,74,36
103440,note_on,0,0,1,,,,,,,,,0,,,67,0
103440,note_on,120,0,1,,,,,,,,,0,,,79,0
103560,note_on,0,0,3,,,,,,,,,2,,,55,0
103560,note_on,120,0,3,,,,,,,,,2,,,62,0
103560,note_on,0,0,3,,,,,,,,,2,,,60,36
103560,note_on,0,0,3,,,,,,,,,2,,,57,36
103560,note_on,0,0,3,,,,,,,,,2,,,53,36
103560,note_on,120,0,4,,,,,,,,,3,,,53,0
103560,note_on,0,0,1,,,,,,,,,0,,,72,36
103560,note_on,0,0,1,,,,,,,,,0,,,84,36
103560,note_on,0,0,1,,,,,,,,,0,,,74,0
103560,note_on,120,0,1,,,,,,,,,0,,,86,0
103800,note_on,0,0,1,,,,,,,,,0,,,91,36
103800,note_on,0,0,1,,,,,,,,,0,,,79,36
103800,note_on,0,0,1,,,,,,,,,0,,,72,0
103800,note_on,240,0,1,,,,,,,,,0,,,84,0
103800,note_on,240,0,3,,,,,,,,,2,,,60,0
103800,note_on,0,0,3,,,,,,,,,2,,,57,0
103800,note_on,0,0,3,,,,,,,,,2,,,53,0
103800,note_on,0,0,3,,,,,,,,,2,,,58,36
103800,note_on,0,0,3,,,,,,,,,2,,,60,36
103800,note_on,0,0,3,,,,,,,,,2,,,67,36
103800,note_on,0,0,3,,,,,,,,,2,,,53,36
103920,note_on,0,0,3,,,,,,,,,2,,,53,0
103920,note_on,0,0,3,,,,,,,,,2,,,58,0
103920,note_on,0,0,3,,,,,,,,,2,,,60,0
103920,note_on,0,0,3,,,,,,,,,2,,,53,52
103920,note_on,0,0,3,,,,,,,,,2,,,60,57
103920,note_on,0,0,3,,,,,,,,,2,,,69,62
103920,note_on,0,0,1,,,,,,,,,0,,,93,62
103920,note_on,0,0,1,,,,,,,,,0,,,81,54
103920,note_on,120,0,3,,,,,,,,,2,,,67,0
103920,note_on,0,0,1,,,,,,,,,0,,,79,0
103920,note_on,120,0,1,,,,,,,,,0,,,91,0
104160,note_on,0,0,1,,,,,,,,,0,,,81,0
104160,note_on,240,0,1,,,,,,,,,0,,,93,0
104160,note_on,0,0,3,,,,,,,,,2,,,53,36
104160,note_on,0,0,3,,,,,,,,,2,,,58,36
104160,note_on,0,0,3,,,,,,,,,2,,,53,0
104160,note_on,0,0,3,,,,,,,,,2,,,60,0
104160,note_on,240,0,3,,,,,,,,,2,,,69,0
104160,note_on,0,0,1,,,,,,,,,0,,,72,36
104160,note_on,0,0,3,,,,,,,,,2,,,67,36
104160,note_on,0,0,1,,,,,,,,,0,,,84,36
104160,note_on,0,0,3,,,,,,,,,2,,,60,36
104280,note_on,0,0,3,,,,,,,,,2,,,53,36
104280,note_on,0,0,3,,,,,,,,,2,,,60,0
104280,note_on,0,0,3,,,,,,,,,2,,,60,36
104280,note_on,0,0,3,,,,,,,,,2,,,57,36
104280,note_on,120,0,3,,,,,,,,,2,,,67,0
104280,note_on,0,0,3,,,,,,,,,2,,,53,0
104280,note_on,0,0,3,,,,,,,,,2,,,58,0
104280,note_on,120,0,1,,,,,,,,,0,,,84,0
104280,note_on,0,0,3,,,,,,,,,2,,,65,36
104280,note_on,0,0,1,,,,,,,,,0,,,69,36
104280,note_on,0,0,1,,,,,,,,,0,,,81,36
104280,note_on,0,0,1,,,,,,,,,0,,,72,0
104520,note_on,0,0,1,,,,,,,,,0,,,91,36
104520,note_on,0,0,3,,,,,,,,,2,,,67,36
104520,note_on,0,0,3,,,,,,,,,2,,,60,36
104520,note_on,0,0,3,,,,,,,,,2,,,58,36
104520,note_on,0,0,3,,,,,,,,,2,,,53,36
104520,note_on,0,0,3,,,,,,,,,2,,,60,0
104520,note_on,0,0,3,,,,,,,,,2,,,57,0
104520,note_on,240,0,3,,,,,,,,,2,,,65,0
104520,note_on,0,0,1,,,,,,,,,0,,,79,36
104520,note_on,0,0,1,,,,,,,,,0,,,69,0
104520,note_on,240,0,1,,,,,,,,,0,,,81,0
104520,note_on,0,0,3,,,,,,,,,2,,,53,0
104640,note_on,0,0,1,,,,,,,,,0,,,79,0
104640,note_on,0,0,3,,,,,,,,,2,,,58,0
104640,note_on,120,0,3,,,,,,,,,2,,,67,0
104640,note_on,0,0,3,,,,,,,,,2,,,53,0
104640,note_on,0,0,3,,,,,,,,,2,,,60,0
104640,note_on,120,0,1,,,,,,,,,0,,,91,0
104640,note_on,0,0,3,,,,,,,,,2,,,60,57
104640,note_on,0,0,3,,,,,,,,,2,,,69,62
104640,note_on,0,0,1,,,,,,,,,0,,,81,54
104640,note_on,0,0,1,,,,,,,,,0,,,93,62
104640,note_on,0,0,3,,,,,,,,,2,,,53,52
104880,note_on,240,0,1,,,,,,,,,0,,,93,0
104880,note_on,0,0,1,,,,,,,,,0,,,81,0
104880,note_on,0,0,1,,,,,,,,,0,,,72,36
104880,note_on,0,0,1,,,,,,,,,0,,,84,36
104880,note_on,0,0,3,,,,,,,,,2,,,60,0
104880,note_on,0,0,3,,,,,,,,,2,,,67,36
104880,note_on,0,0,3,,,,,,,,,2,,,60,36
104880,note_on,0,0,3,,,,,,,,,2,,,58,36
104880,note_on,0,0,3,,,,,,,,,2,,,53,36
104880,note_on,0,0,3,,,,,,,,,2,,,53,0
104880,note_on,240,0,3,,,,,,,,,2,,,69,0
105000,note_on,120,0,3,,,,,,,,,2,,,67,0
105000,note_on,0,0,3,,,,,,,,,2,,,60,0
105000,note_on,0,0,3,,,,,,,,,2,,,53,36
105000,note_on,0,0,3,,,,,,,,,2,,,53,0
105000,note_on,0,0,3,,,,,,,,,2,,,58,0
105000,note_on,0,0,3,,,,,,,,,2,,,60,36
105000,note_on,0,0,3,,,,,,,,,2,,,65,36
105000,note_on,120,0,1,,,,,,,,,0,,,84,0
105000,note_on,0,0,1,,,,,,,,,0,,,72,0
105000,note_on,0,0,1,,,,,,,,,0,,,69,36
105000,note_on,0,0,1,,,,,,,,,0,,,81,36
105000,note_on,0,0,3,,,,,,,,,2,,,57,36
105240,note_on,240,0,1,,,,,,,,,0,,,81,0
105240,note_on,0,0,1,,,,,,,,,0,,,69,0
105240,note_on,0,0,1,,,,,,,,,0,,,74,36
105240,note_on,0,0,1,,,,,,,,,0,,,86,36
105240,note_on,0,0,3,,,,,,,,,2,,,53,0
105240,note_on,0,0,3,,,,,,,,,2,,,57,0
105240,note_on,240,0,3,,,,,,,,,2,,,65,0
105240,note_on,0,0,3,,,,,,,,,2,,,53,36
105240,note_on,0,0,3,,,,,,,,,2,,,57,36
105240,note_on,0,0,3,,,,,,,,,2,,,62,36
105240,note_on,0,0,3,,,,,,,,,2,,,60,0
105360,note_on,0,0,3,,,,,,,,,2,,,60,36
105360,note_on,0,0,3,,,,,,,,,2,,,57,36
105360,note_on,0,0,3,,,,,,,,,2,,,53,36
105360,note_on,0,0,3,,,,,,,,,2,,,53,0
105360,note_on,0,0,3,,,,,,,,,2,,,57,0
105360,note_on,120,0,3,,,,,,,,,2,,,62,0
105360,note_on,0,0,1,,,,,,,,,0,,,74,0
105360,note_on,0,0,1,,,,,,,,,0,,,69,36
105360,note_on,0,0,1,,,,,,,,,0,,,81,36
105360,note_on,120,0,1,,,,,,,,,0,,,86,0
105600,note_on,0,0,3,,,,,,,,,2,,,57,36
105600,note_on,0,0,3,,,,,,,,,2,,,57,0
105600,note_on,0,0,3,,,,,,,,,2,,,62,36
105600,note_on,240,0,3,,,,,,,,,2,,,60,0
105600,note_on,0,0,3,,,,,,,,,2,,,53,0
105600,note_on,240,0,1,,,,,,,,,0,,,81,0
105600,note_on,0,0,1,,,,,,,,,0,,,69,0
105600,note_on,0,0,1,,,,,,,,,0,,,74,36
105600,note_on,0,0,1,,,,,,,,,0,,,86,36
105600,note_on,0,0,3,,,,,,,,,2,,,53,36
105720,note_on,0,0,3,,,,,,,,,2,,,53,36
105720,note_on,0,0,3,,,,,,,,,2,,,53,0
105720,note_on,0,0,3,,,,,,,,,2,,,57,0
105720,note_on,120,0,3,,,,,,,,,2,,,62,0
105720,note_on,0,0,3,,,,,,,,,2,,,60,36
105720,note_on,0,0,1,,,,,,,,,0,,,81,36
105720,note_on,0,0,1,,,,,,,,,0,,,69,36
105720,note_on,0,0,1,,,,,,,,,0,,,74,0
105720,note_on,120,0,1,,,,,,,,,0,,,86,0
105720,note_on,0,0,3,,,,,,,,,2,,,57,36
105960,note_on,0,0,3,,,,,,,,,2,,,57,0
105960,note_on,0,0,3,,,,,,,,,2,,,53,36
105960,note_on,240,0,3,,,,,,,,,2,,,60,0
105960,note_on,0,0,3,,,,,,,,,2,,,53,0
105960,note_on,0,0,3,,,,,,,,,2,,,62,36
105960,note_on,0,0,1,,,,,,,,,0,,,86,36
105960,note_on,0,0,1,,,,,,,,,0,,,74,36
105960,note_on,0,0,1,,,,,,,,,0,,,69,0
105960,note_on,240,0,1,,,,,,,,,0,,,81,0
105960,note_on,0,0,3,,,,,,,,,2,,,57,36
106080,note_on,0,0,1,,,,,,,,,0,,,88,36
106080,note_on,0,0,3,,,,,,,,,2,,,60,36
106080,note_on,0,0,3,,,,,,,,,2,,,57,0
106080,note_on,0,0,3,,,,,,,,,2,,,53,0
106080,note_on,0,0,3,,,,,,,,,2,,,52,36
106080,note_on,0,0,3,,,,,,,,,2,,,57,36
106080,note_on,0,0,3,,,,,,,,,2,,,64,36
106080,note_on,0,0,1,,,,,,,,,0,,,76,36
106080,note_on,0,0,1,,,,,,,,,0,,,74,0
106080,note_on,120,0,1,,,,,,,,,0,,,86,0
106080,note_on,120,0,3,,,,,,,,,2,,,62,0
106092,note_on,12,0,3,,,,,,,,,2,,,64,0
106092,note_on,0,0,3,,,,,,,,,2,,,52,0
106092,note_on,0,0,3,,,,,,,,,2,,,57,0
106092,note_on,0,0,3,,,,,,,,,2,,,60,0
106092,note_on,12,0,1,,,,,,,,,0,,,88,0
106092,note_on,0,0,1,,,,,,,,,0,,,76,0
106200,note_on,0,0,3,,,,,,,,,2,,,64,36
106200,note_on,0,0,3,,,,,,,,,2,,,57,36
106200,note_on,0,0,1,,,,,,,,,0,,,88,36
106200,note_on,108,0,1,,,,,,,,,0,,,76,36
106200,note_on,108,0,3,,,,,,,,,2,,,52,36
106200,note_on,0,0,3,,,,,,,,,2,,,60,36
106212,note_on,0,0,3,,,,,,,,,2,,,52,0
106212,note_on,0,0,3,,,,,,,,,2,,,57,0
106212,note_on,0,0,3,,,,,,,,,2,,,60,0
106212,note_on,12,0,3,,,,,,,,,2,,,64,0
106212,note_on,0,0,1,,,,,,,,,0,,,76,0
106212,note_on,12,0,1,,,,,,,,,0,,,88,0
106320,note_on,108,0,3,,,,,,,,,2,,,52,36
106320,note_on,0,0,3,,,,,,,,,2,,,56,36
106320,note_on,0,0,3,,,,,,,,,2,,,59,36
106320,note_on,0,0,3,,,,,,,,,2,,,64,36
106320,note_on,108,0,1,,,,,,,,,0,,,76,36
106320,note_on,0,0,1,,,,,,,,,0,,,88,36
106332,note_on,0,0,3,,,,,,,,,2,,,59,0
106332,note_on,0,0,1,,,,,,,,,0,,,76,0
106332,note_on,0,0,3,,,,,,,,,2,,,56,0
106332,note_on,0,0,3,,,,,,,,,2,,,52,0
106332,note_on,12,0,3,,,,,,,,,2,,,64,0
106332,note_on,12,0,1,,,,,,,,,0,,,88,0
106440,note_on,108,0,1,,,,,,,,,0,,,76,36
106440,time_signature,6840,1,0,2,4,24,8,,,,,,,,,
106440,note_on,0,0,1,,,,,,,,,0,,,88,36
106440,note_on,0,0,3,,,,,,,,,2,,,64,36
106440,note_on,0,0,3,,,,,,,,,2,,,60,36
106440,note_on,108,0,3,,,,,,,,,2,,,57,36
106452,note_on,12,0,1,,,,,,,,,0,,,88,0
106452,note_on,0,0,3,,,,,,,,,2,,,57,0
106452,note_on,0,0,3,,,,,,,,,2,,,60,0
106452,note_on,12,0,3,,,,,,,,,2,,,64,0
106452,note_on,0,0,1,,,,,,,,,0,,,76,0
106680,time_signature,240,1,0,1,4,24,8,,,,,,,,,
106680,note_on,0,0,1,,,,,,,,,0,,,76,75
106680,note_on,228,0,1,,,,,,,,,0,,,64,75
106680,note_on,228,0,3,,,,,,,,,2,,,57,62
106680,note_on,0,0,3,,,,,,,,,2,,,60,62
106800,note_on,0,0,1,,,,,,,,,0,,,77,101
106800,note_on,0,0,1,,,,,,,,,0,,,64,0
106800,note_on,120,0,1,,,,,,,,,0,,,76,0
106800,note_on,120,0,3,,,,,,,,,2,,,60,0
106800,time_signature,120,1,0,3,4,24,8,,,,,,,,,
106800,note_on,0,0,3,,,,,,,,,2,,,53,76
106800,note_on,0,0,1,,,,,,,,,0,,,65,93
106800,note_on,0,0,3,,,,,,,,,2,,,57,0
106800,note_on,0,0,3,,,,,,,,,2,,,57,80
106800,note_on,0,0,3,,,,,,,,,2,,,60,84
106800,note_on,0,0,3,,,,,,,,,2,,,63,88
107040,note_on,240,0,3,,,,,,,,,2,,,63,0
107040,note_on,0,0,3,,,,,,,,,2,,,53,0
107040,note_on,0,0,3,,,,,,,,,2,,,57,0
107040,note_on,0,0,1,,,,,,,,,0,,,76,75
107040,note_on,0,0,1,,,,,,,,,0,,,64,75
107040,note_on,0,0,1,,,,,,,,,0,,,65,0
107040,note_on,240,0,1,,,,,,,,,0,,,77,0
107040,note_on,0,0,3,,,,,,,,,2,,,60,62
107040,note_on,0,0,3,,,,,,,,,2,,,60,0
107040,note_on,0,0,3,,,,,,,,,2,,,57,62
107160,note_on,120,0,3,,,,,,,,,2,,,60,0
107160,note_on,0,0,1,,,,,,,,,0,,,64,0
107160,note_on,120,0,1,,,,,,,,,0,,,76,0
107160,note_on,0,0,1,,,,,,,,,0,,,65,75
107160,note_on,0,0,3,,,,,,,,,2,,,57,0
107160,note_on,0,0,3,,,,,,,,,2,,,53,62
107160,note_on,0,0,3,,,,,,,,,2,,,57,62
107160,note_on,0,0,3,,,,,,,,,2,,,60,62
107160,note_on,0,0,3,,,,,,,,,2,,,63,62
107160,note_on,0,0,1,,,,,,,,,0,,,77,75
107400,note_on,0,0,1,,,,,,,,,0,,,65,75
107400,note_on,0,0,3,,,,,,,,,2,,,60,0
107400,note_on,0,0,1,,,,,,,,,0,,,65,0
107400,note_on,0,0,1,,,,,,,,,0,,,70,75
107400,note_on,0,0,1,,,,,,,,,0,,,74,75
107400,note_on,240,0,3,,,,,,,,,2,,,63,0
107400,note_on,0,0,3,,,,,,,,,2,,,53,0
107400,note_on,0,0,3,,,,,,,,,2,,,57,0
107400,note_on,0,0,3,,,,,,,,,2,,,58,62
107400,note_on,0,0,3,,,,,,,,,2,,,62,62
107400,note_on,240,0,1,,,,,,,,,0,,,77,0
107412,note_on,12,0,3,,,,,,,,,2,,,62,0
107412,note_on,12,0,1,,,,,,,,,0,,,74,0
107412,note_on,0,0,1,,,,,,,,,0,,,70,0
107412,note_on,0,0,1,,,,,,,,,0,,,65,0
107412,note_on,0,0,3,,,,,,,,,2,,,58,0
107520,note_on,0,0,3,,,,,,,,,2,,,62,62
107520,note_on,0,0,1,,,,,,,,,0,,,70,75
107520,note_on,0,0,1,,,,,,,,,0,,,77,75
107520,note_on,0,0,3,,,,,,,,,2,,,58,62
107520,note_on,108,0,1,,,,,,,,,0,,,65,75
107520,note_on,108,0,3,,,,,,,,,2,,,50,62
107532,note_on,12,0,1,,,,,,,,,0,,,77,0
107532,note_on,0,0,1,,,,,,,,,0,,,70,0
107532,note_on,0,0,1,,,,,,,,,0,,,65,0
107532,note_on,0,0,3,,,,,,,,,2,,,50,0
107532,note_on,0,0,3,,,,,,,,,2,,,58,0
107532,note_on,12,0,3,,,,,,,,,2,,,62,0
107640,note_on,108,0,1,,,,,,,,,0,,,65,75
107640,note_on,0,0,1,,,,,,,,,0,,,77,75
107640,note_on,108,0,3,,,,,,,,,2,,,53,62
107640,note_on,0,0,3,,,,,,,,,2,,,58,62
107640,note_on,0,0,3,,,,,,,,,2,,,62,62
107640,note_on,0,0,1,,,,,,,,,0,,,70,75
107652,note_on,12,0,1,,,,,,,,,0,,,77,0
107652,note_on,12,0,3,,,,,,,,,2,,,62,0
107652,note_on,0,0,3,,,,,,,,,2,,,58,0
107652,note_on,0,0,3,,,,,,,,,2,,,53,0
107652,note_on,0,0,1,,,,,,,,,0,,,65,0
107652,note_on,0,0,1,,,,,,,,,0,,,70,0
107760,note_on,0,0,1,,,,,,,,,0,,,72,75
107760,note_on,0,0,1,,,,,,,,,0,,,69,75
107760,note_on,108,0,1,,,,,,,,,0,,,65,75
107760,note_on,0,0,3,,,,,,,,,2,,,63,62
107760,note_on,0,0,3,,,,,,,,,2,,,60,62
107760,note_on,108,0,3,,,,,,,,,2,,,53,62
107772,note_on,12,0,1,,,,,,,,,0,,,72,0
107772,note_on,0,0,3,,,,,,,,,2,,,60,0
107772,note_on,12,0,3,,,,,,,,,2,,,63,0
107772,note_on,0,0,3,,,,,,,,,2,,,53,0
107772,note_on,0,0,1,,,,,,,,,0,,,69,0
107772,note_on,0,0,1,,,,,,,,,0,,,65,0
107880,note_on,0,0,1,,,,,,,,,0,,,74,75
107880,note_on,0,0,1,,,,,,,,,0,,,70,75
107880,note_on,108,0,1,,,,,,,,,0,,,65,75
107880,note_on,108,0,3,,,,,,,,,2,,,58,62
107880,note_on,0,0,3,,,,,,,,,2,,,62,62
108120,note_on,0,0,3,,,,,,,,,2,,,58,62
108120,note_on,0,0,3,,,,,,,,,2,,,55,62
108120,note_on,0,0,1,,,,,,,,,0,,,70,0
108120,note_on,0,0,1,,,,,,,,,0,,,65,0
108120,note_on,0,0,1,,,,,,,,,0,,,62,75
108120,note_on,0,0,1,,,,,,,,,0,,,74,75
108120,note_on,240,0,1,,,,,,,,,0,,,74,0
108120,note_on,0,0,3,,,,,,,,,2,,,58,0
108120,note_on,240,0,3,,,,,,,,,2,,,62,0
108240,note_on,120,0,3,,,,,,,,,2,,,58,0
108240,note_on,0,0,3,,,,,,,,,2,,,55,0
108240,note_on,0,0,3,,,,,,,,,2,,,51,62
108240,note_on,0,0,3,,,,,,,,,2,,,55,62
108240,note_on,0,0,3,,,,,,,,,2,,,58,62
108240,note_on,0,0,3,,,,,,,,,2,,,61,62
108240,note_on,0,0,1,,,,,,,,,0,,,63,75
108240,note_on,0,0,1,,,,,,,,,0,,,62,0
108240,note_on,120,0,1,,,,,,,,,0,,,74,0
108240,note_on,0,0,1,,,,,,,,,0,,,75,75
108480,note_on,0,0,3,,,,,,,,,2,,,51,0
108480,note_on,240,0,1,,,,,,,,,0,,,75,0
108480,note_on,0,0,1,,,,,,,,,0,,,63,0
108480,note_on,0,0,1,,,,,,,,,0,,,62,75
108480,note_on,0,0,1,,,,,,,,,0,,,74,75
108480,note_on,240,0,3,,,,,,,,,2,,,61,0
108480,note_on,0,0,3,,,,,,,,,2,,,55,0
108480,note_on,0,0,3,,,,,,,,,2,,,58,0
108480,note_on,0,0,3,,,,,,,,,2,,,55,62
108480,note_on,0,0,3,,,,,,,,,2,,,58,62
108600,note_on,0,0,3,,,,,,,,,2,,,51,62
108600,note_on,0,0,3,,,,,,,,,2,,,55,0
108600,note_on,0,0,1,,,,,,,,,0,,,75,75
108600,note_on,0,0,3,,,,,,,,,2,,,55,62
108600,note_on,120,0,3,,,,,,,,,2,,,58,0
108600,note_on,0,0,1,,,,,,,,,0,,,63,75
108600,note_on,0,0,3,,,,,,,,,2,,,58,62
108600,note_on,0,0,1,,,,,,,,,0,,,62,0
108600,note_on,120,0,1,,,,,,,,,0,,,74,0
108600,note_on,0,0,3,,,,,,,,,2,,,61,62
108840,note_on,240,0,3,,,,,,,,,2,,,61,0
108840,note_on,240,0,1,,,,,,,,,0,,,75,0
108840,note_on,0,0,1,,,,,,,,,0,,,63,0
108840,note_on,0,0,1,,,,,,,,,0,,,62,75
108840,note_on,0,0,1,,,,,,,,,0,,,67,75
108840,note_on,0,0,1,,,,,,,,,0,,,70,75
108840,note_on,0,0,3,,,,,,,,,2,,,58,62
108840,note_on,0,0,3,,,,,,,,,2,,,55,62
108840,note_on,0,0,3,,,,,,,,,2,,,55,0
108840,note_on,0,0,3,,,,,,,,,2,,,51,0
108840,note_on,0,0,3,,,,,,,,,2,,,58,0
108852,note_on,0,0,1,,,,,,,,,0,,,67,0
108852,note_on,0,0,3,,,,,,,,,2,,,55,0
108852,note_on,12,0,3,,,,,,,,,2,,,58,0
108852,note_on,0,0,1,,,,,,,,,0,,,62,0
108852,note_on,12,0,1,,,,,,,,,0,,,70,0
108960,note_on,0,0,3,,,,,,,,,2,,,55,62
108960,note_on,108,0,1,,,,,,,,,0,,,62,75
108960,note_on,0,0,3,,,,,,,,,2,,,58,62
108960,note_on,108,0,3,,,,,,,,,2,,,46,62
108960,note_on,0,0,1,,,,,,,,,0,,,67,75
108960,note_on,0,0,1,,,,,,,,,0,,,74,75
108972,note_on,12,0,1,,,,,,,,,0,,,74,0
108972,note_on,0,0,1,,,,,,,,,0,,,67,0
108972,note_on,0,0,1,,,,,,,,,0,,,62,0
108972,note_on,0,0,3,,,,,,,,,2,,,46,0
108972,note_on,0,0,3,,,,,,,,,2,,,55,0
108972,note_on,12,0,3,,,,,,,,,2,,,58,0
109080,note_on,108,0,1,,,,,,,,,0,,,62,75
109080,note_on,0,0,3,,,,,,,,,2,,,58,62
109080,note_on,0,0,1,,,,,,,,,0,,,74,75
109080,note_on,108,0,3,,,,,,,,,2,,,50,62
109080,note_on,0,0,1,,,,,,,,,0,,,67,75
109080,note_on,0,0,3,,,,,,,,,2,,,55,62
109092,note_on,12,0,1,,,,,,,,,0,,,74,0
109092,note_on,0,0,1,,,,,,,,,0,,,62,0
109092,note_on,0,0,3,,,,,,,,,2,,,50,0
109092,note_on,0,0,3,,,,,,,,,2,,,55,0
109092,note_on,12,0,3,,,,,,,,,2,,,58,0
109092,note_on,0,0,1,,,,,,,,,0,,,67,0
109200,note_on,108,0,1,,,,,,,,,0,,,62,75
109200,note_on,0,0,1,,,,,,,,,0,,,66,75
109200,note_on,0,0,1,,,,,,,,,0,,,69,75
109200,note_on,0,0,3,,,,,,,,,2,,,60,62
109200,note_on,0,0,3,,,,,,,,,2,,,57,62
109200,note_on,108,0,3,,,,,,,,,2,,,50,62
109212,note_on,0,0,3,,,,,,,,,2,,,57,0
109212,note_on,0,0,3,,,,,,,,,2,,,50,0
109212,note_on,12,0,3,,,,,,,,,2,,,60,0
109212,note_on,0,0,1,,,,,,,,,0,,,62,0
109212,note_on,0,0,1,,,,,,,,,0,,,66,0
109212,note_on,12,0,1,,,,,,,,,0,,,69,0
109320,note_on,0,0,3,,,,,,,,,2,,,58,62
109320,note_on,0,0,1,,,,,,,,,0,,,70,75
109320,note_on,0,0,1,,,,,,,,,0,,,67,75
109320,note_on,108,0,1,,,,,,,,,0,,,62,75
109320,note_on,108,0,3,,,,,,,,,2,,,55,62
109560,note_on,0,0,3,,,,,,,,,2,,,43,36
109560,note_on,0,0,3,,,,,,,,,2,,,55,36
109560,note_on,0,0,1,,,,,,,,,0,,,70,36
109560,note_on,0,0,1,,,,,,,,,0,,,67,36
109560,note_on,0,0,1,,,,,,,,,0,,,62,36
109560,note_on,0,0,1,,,,,,,,,0,,,62,0
109560,note_on,0,0,1,,,,,,,,,0,,,67,0
109560,note_on,240,0,1,,,,,,,,,0,,,70,0
109560,note_on,0,0,3,,,,,,,,,2,,,55,0
109560,note_on,240,0,3,,,,,,,,,2,,,58,0
109680,note_on,120,0,3,,,,,,,,,2,,,55,0
109680,note_on,0,0,3,,,,,,,,,2,,,45,54
109680,note_on,0,0,3,,,,,,,,,2,,,52,62
109680,note_on,0,0,1,,,,,,,,,0,,,69,62
109680,note_on,0,0,1,,,,,,,,,0,,,67,57
109680,note_on,0,0,1,,,,,,,,,0,,,61,52
109680,note_on,0,0,1,,,,,,,,,0,,,62,0
109680,note_on,0,0,1,,,,,,,,,0,,,67,0
109680,note_on,120,0,1,,,,,,,,,0,,,70,0
109680,note_on,0,0,3,,,,,,,,,2,,,43,0
109920,note_on,0,0,1,,,,,,,,,0,,,61,0
109920,note_on,0,0,1,,,,,,,,,0,,,67,0
109920,note_on,0,0,1,,,,,,,,,0,,,62,36
109920,note_on,240,0,1,,,,,,,,,0,,,69,0
109920,note_on,0,0,1,,,,,,,,,0,,,70,36
109920,note_on,240,0,3,,,,,,,,,2,,,52,0
109920,note_on,0,0,3,,,,,,,,,2,,,45,0
109920,note_on,0,0,3,,,,,,,,,2,,,43,36
109920,note_on,0,0,3,,,,,,,,,2,,,55,36
109920,note_on,0,0,1,,,,,,,,,0,,,67,36
110040,note_on,0,0,1,,,,,,,,,0,,,67,0
110040,note_on,0,0,1,,,,,,,,,0,,,62,0
110040,note_on,0,0,1,,,,,,,,,0,,,61,52
110040,note_on,0,0,1,,,,,,,,,0,,,67,57
110040,note_on,0,0,1,,,,,,,,,0,,,69,62
110040,note_on,120,0,3,,,,,,,,,2,,,55,0
110040,note_on,0,0,3,,,,,,,,,2,,,43,0
110040,note_on,0,0,3,,,,,,,,,2,,,45,54
110040,note_on,0,0,3,,,,,,,,,2,,,52,62
110040,note_on,120,0,1,,,,,,,,,0,,,70,0
110280,note_on,240,0,3,,,,,,,,,2,,,52,0
110280,note_on,0,0,3,,,,,,,,,2,,,55,36
110280,note_on,0,0,1,,,,,,,,,0,,,70,36
110280,note_on,0,0,1,,,,,,,,,0,,,67,36
110280,note_on,0,0,1,,,,,,,,,0,,,62,36
110280,note_on,0,0,1,,,,,,,,,0,,,61,0
110280,note_on,0,0,1,,,,,,,,,0,,,67,0
110280,note_on,240,0,1,,,,,,,,,0,,,69,0
110280,note_on,0,0,3,,,,,,,,,2,,,45,0
110280,note_on,0,0,3,,,,,,,,,2,,,43,36
110400,note_on,0,0,1,,,,,,,,,0,,,67,0
110400,note_on,120,0,1,,,,,,,,,0,,,70,0
110400,note_on,0,0,1,,,,,,,,,0,,,62,0
110400,note_on,0,0,1,,,,,,,,,0,,,67,57
110400,note_on,0,0,1,,,,,,,,,0,,,61,52
110400,note_on,0,0,3,,,,,,,,,2,,,52,62
110400,note_on,0,0,3,,,,,,,,,2,,,45,54
110400,note_on,0,0,3,,,,,,,,,2,,,43,0
110400,note_on,120,0,3,,,,,,,,,2,,,55,0
110400,note_on,0,0,1,,,,,,,,,0,,,69,62
111000,note_on,600,0,1,,,,,,,,,0,,,69,0
111000,note_on,0,0,1,,,,,,,,,0,,,67,0
111000,note_on,0,0,1,,,,,,,,,0,,,61,0
111000,note_on,0,0,3,,,,,,,,,2,,,60,36
111000,note_on,0,0,3,,,,,,,,,2,,,57,36
111000,note_on,0,0,3,,,,,,,,,2,,,45,0
111000,note_on,600,0,3,,,,,,,,,2,,,52,0
111000,note_on,0,0,1,,,,,,,,,0,,,72,36
111000,note_on,0,0,3,,,,,,,,,2,,,53,36
111120,note_on,120,0,1,,,,,,,,,0,,,72,0
111120,note_on,0,0,3,,,,,,,,,2,,,57,0
111120,control_change,0,0,3,,,,,,,,,2,64,127,,
111120,note_on,0,0,3,,,,,,,,,2,,,53,0
111120,note_on,120,0,3,,,,,,,,,2,,,60,0
111120,control_change,7560,0,4,,,,,,,,,3,64,127,,
111120,control_change,0,0,1,,,,,,,,,0,64,127,,
111120,note_on,0,0,3,,,,,,,,,2,,,57,36
111120,note_on,0,0,1,,,,,,,,,0,,,69,36
111120,note_on,0,0,4,,,,,,,,,3,,,53,36
111240,note_on,120,0,3,,,,,,,,,2,,,57,0
111240,note_on,0,0,3,,,,,,,,,2,,,60,36
111240,note_on,120,0,1,,,,,,,,,0,,,69,0
111240,note_on,0,0,1,,,,,,,,,0,,,72,36
111360,note_on,0,0,4,,,,,,,,,3,,,53,36
111360,note_on,240,0,4,,,,,,,,,3,,,53,0
111360,note_on,120,0,3,,,,,,,,,2,,,60,0
111360,note_on,0,0,3,,,,,,,,,2,,,62,36
111360,note_on,120,0,1,,,,,,,,,0,,,72,0
111360,note_on,0,0,1,,,,,,,,,0,,,74,36
111360,note_on,0,0,4,,,,,,,,,3,,,57,36
111480,note_on,0,0,4,,,,,,,,,3,,,53,0
111480,note_on,120,0,1,,,,,,,,,0,,,74,0
111480,note_on,0,0,1,,,,,,,,,0,,,77,36
111480,note_on,0,0,4,,,,,,,,,3,,,57,36
111480,note_on,0,0,4,,,,,,,,,3,,,53,36
111480,note_on,0,0,3,,,,,,,,,2,,,65,36
111480,note_on,120,0,3,,,,,,,,,2,,,62,0
111480,note_on,120,0,4,,,,,,,,,3,,,57,0
111720,note_on,0,0,3,,,,,,,,,2,,,57,36
111720,note_on,240,0,3,,,,,,,,,2,,,65,0
111720,note_on,240,0,4,,,,,,,,,3,,,57,0
111720,note_on,0,0,4,,,,,,,,,3,,,53,36
111720,control_change,0,0,4,,,,,,,,,3,64,0,,
111720,control_change,0,0,3,,,,,,,,,2,64,0,,
111720,control_change,0,0,1,,,,,,,,,0,64,0,,
111720,note_on,240,0,1,,,,,,,,,0,,,77,0
111720,note_on,0,0,4,,,,,,,,,3,,,53,0
111720,note_on,0,0,1,,,,,,,,,0,,,69,36
111840,note_on,120,0,4,,,,,,,,,3,,,53,0
111840,note_on,0,0,4,,,,,,,,,3,,,53,36
111840,note_on,0,0,3,,,,,,,,,2,,,58,36
111840,note_on,0,0,3,,,,,,,,,2,,,55,36
111840,note_on,120,0,3,,,,,,,,,2,,,57,0
111840,note_on,120,0,1,,,,,,,,,0,,,69,0
111840,control_change,0,0,1,,,,,,,,,0,64,127,,
111840,note_on,0,0,1,,,,,,,,,0,,,70,36
111960,note_on,0,0,1,,,,,,,,,0,,,67,36
111960,note_on,120,0,1,,,,,,,,,0,,,70,0
112080,note_on,120,0,1,,,,,,,,,0,,,67,0
112080,control_change,0,0,1,,,,,,,,,0,64,0,,
112080,note_on,0,0,1,,,,,,,,,0,,,74,36
112080,note_on,0,0,4,,,,,,,,,3,,,53,36
112080,note_on,240,0,4,,,,,,,,,3,,,53,0
112080,note_on,240,0,3,,,,,,,,,2,,,58,0
112080,note_on,0,0,3,,,,,,,,,2,,,55,0
112080,note_on,0,0,3,,,,,,,,,2,,,62,36
112080,note_on,0,0,3,,,,,,,,,2,,,55,36
112200,note_on,120,0,1,,,,,,,,,0,,,74,0
112200,note_on,0,0,1,,,,,,,,,0,,,72,36
112200,note_on,120,0,4,,,,,,,,,3,,,53,0
112200,note_on,120,0,3,,,,,,,,,2,,,62,0
112200,note_on,0,0,3,,,,,,,,,2,,,55,0
112200,note_on,0,0,3,,,,,,,,,2,,,53,36
112200,note_on,0,0,3,,,,,,,,,2,,,57,36
112200,note_on,0,0,3,,,,,,,,,2,,,60,36
112440,note_on,0,0,1,,,,,,,,,0,,,91,36
112440,note_on,0,0,3,,,,,,,,,2,,,67,36
112440,note_on,0,0,3,,,,,,,,,2,,,60,36
112440,note_on,0,0,1,,,,,,,,,0,,,79,36
112440,note_on,0,0,3,,,,,,,,,2,,,58,36
112440,note_on,0,0,3,,,,,,,,,2,,,53,0
112440,note_on,0,0,3,,,,,,,,,2,,,57,0
112440,note_on,240,0,3,,,,,,,,,2,,,60,0
112440,note_on,0,0,3,,,,,,,,,2,,,53,36
112440,note_on,240,0,1,,,,,,,,,0,,,72,0
112560,note_on,0,0,1,,,,,,,,,0,,,93,62
112560,note_on,0,0,1,,,,,,,,,0,,,81,54
112560,note_on,0,0,1,,,,,,,,,0,,,79,0
112560,note_on,120,0,1,,,,,,,,,0,,,91,0
112560,note_on,0,0,3,,,,,,,,,2,,,60,36
112560,note_on,0,0,3,,,,,,,,,2,,,69,36
112560,note_on,0,0,3,,,,,,,,,2,,,53,36
112560,note_on,0,0,3,,,,,,,,,2,,,60,0
112560,note_on,0,0,3,,,,,,,,,2,,,58,0
112560,note_on,0,0,3,,,,,,,,,2,,,53,0
112560,note_on,120,0,3,,,,,,,,,2,,,67,0
112800,note_on,0,0,3,,,,,,,,,2,,,60,0
112800,note_on,0,0,3,,,,,,,,,2,,,53,0
112800,note_on,0,0,3,,,,,,,,,2,,,53,36
112800,note_on,0,0,3,,,,,,,,,2,,,58,36
112800,note_on,0,0,3,,,,,,,,,2,,,60,36
112800,note_on,0,0,3,,,,,,,,,2,,,67,36
112800,note_on,240,0,1,,,,,,,,,0,,,93,0
112800,note_on,240,0,3,,,,,,,,,2,,,69,0
112800,note_on,0,0,1,,,,,,,,,0,,,81,0
112800,note_on,26640,0,2,,,,,,,,,1,,,48,36
112920,note_on,120,0,2,,,,,,,,,1,,,48,0
112920,note_on,0,0,2,,,,,,,,,1,,,41,36
112920,note_on,120,0,3,,,,,,,,,2,,,67,0
112920,note_on,0,0,3,,,,,,,,,2,,,53,0
112920,note_on,0,0,3,,,,,,,,,2,,,58,0
112920,note_on,0,0,3,,,,,,,,,2,,,60,0
112920,note_on,0,0,3,,,,,,,,,2,,,53,36
112920,note_on,0,0,3,,,,,,,,,2,,,57,36
112920,note_on,0,0,3,,,,,,,,,2,,,60,36
112920,note_on,0,0,3,,,,,,,,,2,,,65,36
113160,note_on,0,0,1,,,,,,,,,0,,,91,36
113160,note_on,0,0,3,,,,,,,,,2,,,67,36
113160,note_on,0,0,3,,,,,,,,,2,,,60,36
113160,note_on,0,0,3,,,,,,,,,2,,,58,36
113160,note_on,0,0,3,,,,,,,,,2,,,53,36
113160,note_on,360,0,1,,,,,,,,,0,,,79,36
113160,note_on,0,0,3,,,,,,,,,2,,,57,0
113160,note_on,0,0,3,,,,,,,,,2,,,53,0
113160,note_on,240,0,3,,,,,,,,,2,,,65,0
113160,note_on,0,0,3,,,,,,,,,2,,,60,0
113160,note_on,240,0,2,,,,,,,,,1,,,41,0
113280,note_on,0,0,1,,,,,,,,,0,,,79,0
113280,note_on,0,0,1,,,,,,,,,0,,,81,54
113280,note_on,0,0,1,,,,,,,,,0,,,93,62
113280,note_on,0,0,3,,,,,,,,,2,,,69,36
113280,note_on,120,0,1,,,,,,,,,0,,,91,0
113280,note_on,0,0,3,,,,,,,,,2,,,53,36
113280,note_on,0,0,3,,,,,,,,,2,,,60,0
113280,note_on,0,0,3,,,,,,,,,2,,,58,0
113280,note_on,0,0,3,,,,,,,,,2,,,53,0
113280,note_on,120,0,3,,,,,,,,,2,,,67,0
113280,note_on,0,0,3,,,,,,,,,2,,,60,36
113520,note_on,240,0,3,,,,,,,,,2,,,69,0
113520,note_on,360,0,2,,,,,,,,,1,,,48,36
113520,note_on,0,0,3,,,,,,,,,2,,,53,0
113520,note_on,0,0,3,,,,,,,,,2,,,53,36
113520,note_on,0,0,3,,,,,,,,,2,,,58,36
113520,note_on,0,0,3,,,,,,,,,2,,,60,36
113520,note_on,0,0,3,,,,,,,,,2,,,67,36
113520,note_on,0,0,1,,,,,,,,,0,,,81,0
113520,note_on,240,0,1,,,,,,,,,0,,,93,0
113520,note_on,0,0,3,,,,,,,,,2,,,60,0
113640,note_on,120,0,3,,,,,,,,,2,,,67,0
113640,note_on,0,0,3,,,,,,,,,2,,,60,36
113640,note_on,0,0,3,,,,,,,,,2,,,57,36
113640,note_on,0,0,3,,,,,,,,,2,,,53,36
113640,note_on,0,0,3,,,,,,,,,2,,,60,0
113640,note_on,0,0,3,,,,,,,,,2,,,58,0
113640,note_on,0,0,3,,,,,,,,,2,,,53,0
113640,note_on,120,0,2,,,,,,,,,1,,,48,0
113640,note_on,0,0,3,,,,,,,,,2,,,65,36
113640,note_on,0,0,2,,,,,,,,,1,,,41,36
113880,note_on,0,0,2,,,,,,,,,1,,,48,36
113880,note_on,240,0,2,,,,,,,,,1,,,41,0
113880,note_on,0,0,3,,,,,,,,,2,,,53,0
113880,note_on,240,0,3,,,,,,,,,2,,,65,0
113880,note_on,0,0,3,,,,,,,,,2,,,57,0
113880,note_on,0,0,3,,,,,,,,,2,,,60,0
113880,note_on,0,0,3,,,,,,,,,2,,,53,36
113880,note_on,0,0,3,,,,,,,,,2,,,58,36
113880,note_on,0,0,3,,,,,,,,,2,,,60,36
113880,note_on,0,0,3,,,,,,,,,2,,,67,36
114000,note_on,0,0,3,,,,,,,,,2,,,57,36
114000,note_on,0,0,2,,,,,,,,,1,,,41,36
114000,note_on,0,0,3,,,,,,,,,2,,,53,36
114000,note_on,120,0,3,,,,,,,,,2,,,67,0
114000,note_on,0,0,3,,,,,,,,,2,,,58,0
114000,note_on,120,0,2,,,,,,,,,1,,,48,0
114000,note_on,0,0,3,,,,,,,,,2,,,53,0
114000,note_on,0,0,3,,,,,,,,,2,,,60,36
114000,note_on,0,0,3,,,,,,,,,2,,,65,36
114000,note_on,0,0,3,,,,,,,,,2,,,60,0
114240,note_on,240,0,3,,,,,,,,,2,,,65,0
114240,note_on,0,0,3,,,,,,,,,2,,,53,0
114240,note_on,0,0,3,,,,,,,,,2,,,57,0
114240,note_on,0,0,3,,,,,,,,,2,,,60,0
114240,note_on,720,0,1,,,,,,,,,0,,,79,36
114240,note_on,0,0,3,,,,,,,,,2,,,67,36
114240,note_on,240,0,2,,,,,,,,,1,,,41,0
114240,note_on,0,0,3,,,,,,,,,2,,,53,36
114240,note_on,0,0,3,,,,,,,,,2,,,58,36
114240,note_on,0,0,3,,,,,,,,,2,,,60,36
114240,note_on,0,0,1,,,,,,,,,0,,,91,36
114360,note_on,0,0,1,,,,,,,,,0,,,79,0
114360,note_on,0,0,1,,,,,,,,,0,,,81,54
114360,note_on,0,0,1,,,,,,,,,0,,,93,62
114360,note_on,120,0,1,,,,,,,,,0,,,91,0
114360,note_on,0,0,3,,,,,,,,,2,,,58,0
114360,note_on,120,0,3,,,,,,,,,2,,,67,0
114360,note_on,0,0,3,,,,,,,,,2,,,53,0
114360,note_on,0,0,3,,,,,,,,,2,,,60,0
114360,note_on,0,0,3,,,,,,,,,2,,,53,36
114360,note_on,0,0,3,,,,,,,,,2,,,60,36
114360,note_on,0,0,3,,,,,,,,,2,,,69,36
114600,note_on,0,0,3,,,,,,,,,2,,,60,0
114600,note_on,0,0,3,,,,,,,,,2,,,60,36
114600,note_on,0,0,3,,,,,,,,,2,,,58,36
114600,note_on,0,0,3,,,,,,,,,2,,,53,36
114600,note_on,0,0,3,,,,,,,,,2,,,53,0
114600,note_on,0,0,1,,,,,,,,,0,,,81,0
114600,note_on,240,0,1,,,,,,,,,0,,,93,0
114600,note_on,0,0,3,,,,,,,,,2,,,67,36
114600,note_on,360,0,2,,,,,,,,,1,,,48,36
114600,note_on,240,0,3,,,,,,,,,2,,,69,0
114720,note_on,120,0,3,,,,,,,,,2,,,67,0
114720,note_on,120,0,2,,,,,,,,,1,,,48,0
114720,note_on,0,0,3,,,,,,,,,2,,,58,0
114720,note_on,0,0,2,,,,,,,,,1,,,41,36
114720,note_on,0,0,3,,,,,,,,,2,,,60,0
114720,note_on,0,0,3,,,,,,,,,2,,,53,36
114720,note_on,0,0,3,,,,,,,,,2,,,57,36
114720,note_on,0,0,3,,,,,,,,,2,,,60,36
114720,note_on,0,0,3,,,,,,,,,2,,,53,0
115080,time_signature,8280,1,0,2,4,24,8,,,,,,,,,
115320,note_on,600,0,2,,,,,,,,,1,,,41,0
115320,time_signature,240,1,0,1,4,24,8,,,,,,,,,
115320,note_on,0,0,3,,,,,,,,,2,,,53,0
115320,note_on,0,0,3,,,,,,,,,2,,,57,62
115320,note_on,0,0,3,,,,,,,,,2,,,60,62
115320,note_on,0,0,3,,,,,,,,,2,,,57,0
115320,note_on,600,0,3,,,,,,,,,2,,,60,0
115320,note_on,720,0,1,,,,,,,,,0,,,64,75
115320,note_on,0,0,1,,,,,,,,,0,,,76,75
115440,note_on,0,0,1,,,,,,,,,0,,,65,93
115440,time_signature,120,1,0,3,4,24,8,,,,,,,,,
115440,note_on,0,0,3,,,,,,,,,2,,,63,88
115440,note_on,0,0,3,,,,,,,,,2,,,60,84
115440,note_on,120,0,3,,,,,,,,,2,,,60,0
115440,note_on,0,0,3,,,,,,,,,2,,,57,0
115440,note_on,0,0,3,,,,,,,,,2,,,53,76
115440,note_on,0,0,3,,,,,,,,,2,,,57,80
115440,note_on,120,0,1,,,,,,,,,0,,,76,0
115440,note_on,0,0,1,,,,,,,,,0,,,64,0
115440,note_on,0,0,1,,,,,,,,,0,,,77,101
115680,note_on,0,0,1,,,,,,,,,0,,,76,75
115680,note_on,0,0,1,,,,,,,,,0,,,64,75
115680,note_on,0,0,1,,,,,,,,,0,,,65,0
115680,note_on,240,0,1,,,,,,,,,0,,,77,0
115680,note_on,0,0,3,,,,,,,,,2,,,60,62
115680,note_on,0,0,3,,,,,,,,,2,,,57,62
115680,note_on,0,0,3,,,,,,,,,2,,,60,0
115680,note_on,240,0,3,,,,,,,,,2,,,63,0
115680,note_on,0,0,3,,,,,,,,,2,,,53,0
115680,note_on,0,0,3,,,,,,,,,2,,,57,0
115800,note_on,0,0,1,,,,,,,,,0,,,77,75
115800,note_on,0,0,3,,,,,,,,,2,,,57,62
115800,note_on,0,0,3,,,,,,,,,2,,,60,62
115800,note_on,0,0,3,,,,,,,,,2,,,63,62
115800,note_on,120,0,3,,,,,,,,,2,,,60,0
115800,note_on,0,0,3,,,,,,,,,2,,,53,62
115800,note_on,0,0,1,,,,,,,,,0,,,65,75
115800,note_on,0,0,1,,,,,,,,,0,,,64,0
115800,note_on,120,0,1,,,,,,,,,0,,,76,0
115800,note_on,0,0,3,,,,,,,,,2,,,57,0
116040,note_on,0,0,3,,,,,,,,,2,,,57,0
116040,note_on,0,0,3,,,,,,,,,2,,,60,0
116040,note_on,240,0,3,,,,,,,,,2,,,63,0
116040,note_on,0,0,3,,,,,,,,,2,,,58,62
116040,note_on,0,0,3,,,,,,,,,2,,,62,62
116040,note_on,0,0,1,,,,,,,,,0,,,74,75
116040,note_on,0,0,1,,,,,,,,,0,,,70,75
116040,note_on,0,0,1,,,,,,,,,0,,,65,75
116040,note_on,0,0,1,,,,,,,,,0,,,65,0
116040,note_on,240,0,1,,,,,,,,,0,,,77,0
116040,note_on,0,0,3,,,,,,,,,2,,,53,0
116052,note_on,12,0,3,,,,,,,,,2,,,62,0
116052,note_on,12,0,1,,,,,,,,,0,,,74,0
116052,note_on,0,0,1,,,,,,,,,0,,,70,0
116052,note_on,0,0,1,,,,,,,,,0,,,65,0
116052,note_on,0,0,3,,,,,,,,,2,,,58,0
116160,note_on,108,0,1,,,,,,,,,0,,,65,75
116160,note_on,0,0,1,,,,,,,,,0,,,70,75
116160,note_on,0,0,1,,,,,,,,,0,,,77,75
116160,note_on,108,0,3,,,,,,,,,2,,,50,62
116160,note_on,0,0,3,,,,,,,,,2,,,58,62
116160,note_on,0,0,3,,,,,,,,,2,,,62,62
116172,note_on,12,0,1,,,,,,,,,0,,,77,0
116172,note_on,0,0,1,,,,,,,,,0,,,70,0
116172,note_on,0,0,1,,,,,,,,,0,,,65,0
116172,note_on,12,0,3,,,,,,,,,2,,,62,0
116172,note_on,0,0,3,,,,,,,,,2,,,50,0
116172,note_on,0,0,3,,,,,,,,,2,,,58,0
116280,note_on,108,0,1,,,,,,,,,0,,,65,75
116280,note_on,0,0,3,,,,,,,,,2,,,58,62
116280,note_on,0,0,1,,,,,,,,,0,,,70,75
116280,note_on,0,0,3,,,,,,,,,2,,,62,62
116280,note_on,108,0,3,,,,,,,,,2,,,53,62
116280,note_on,0,0,1,,,,,,,,,0,,,77,75
116292,note_on,0,0,3,,,,,,,,,2,,,58,0
116292,note_on,12,0,1,,,,,,,,,0,,,77,0
116292,note_on,12,0,3,,,,,,,,,2,,,62,0
116292,note_on,0,0,1,,,,,,,,,0,,,65,0
116292,note_on,0,0,1,,,,,,,,,0,,,70,0
116292,note_on,0,0,3,,,,,,,,,2,,,53,0
116400,note_on,0,0,1,,,,,,,,,0,,,72,75
116400,note_on,0,0,1,,,,,,,,,0,,,69,75
116400,note_on,108,0,1,,,,,,,,,0,,,65,75
116400,note_on,0,0,3,,,,,,,,,2,,,63,62
116400,note_on,0,0,3,,,,,,,,,2,,,60,62
116400,note_on,108,0,3,,,,,,,,,2,,,53,62
116412,note_on,12,0,1,,,,,,,,,0,,,72,0
116412,note_on,0,0,1,,,,,,,,,0,,,65,0
116412,note_on,0,0,3,,,,,,,,,2,,,53,0
116412,note_on,0,0,3,,,,,,,,,2,,,60,0
116412,note_on,12,0,3,,,,,,,,,2,,,63,0
116412,note_on,0,0,1,,,,,,,,,0,,,69,0
116520,note_on,108,0,1,,,,,,,,,0,,,65,75
116520,note_on,0,0,1,,,,,,,,,0,,,70,75
116520,note_on,0,0,1,,,,,,,,,0,,,74,75
116520,note_on,0,0,3,,,,,,,,,2,,,62,62
116520,note_on,108,0,3,,,,,,,,,2,,,58,62
116760,note_on,0,0,3,,,,,,,,,2,,,55,62
116760,note_on,0,0,1,,,,,,,,,0,,,74,75
116760,note_on,240,0,1,,,,,,,,,0,,,74,0
116760,note_on,0,0,3,,,,,,,,,2,,,58,0
116760,note_on,240,0,3,,,,,,,,,2,,,62,0
116760,note_on,0,0,1,,,,,,,,,0,,,62,75
116760,note_on,0,0,1,,,,,,,,,0,,,65,0
116760,note_on,0,0,1,,,,,,,,,0,,,70,0
116760,note_on,0,0,3,,,,,,,,,2,,,58,62
116880,note_on,0,0,3,,,,,,,,,2,,,58,62
116880,note_on,0,0,3,,,,,,,,,2,,,55,62
116880,note_on,0,0,1,,,,,,,,,0,,,75,75
116880,note_on,120,0,3,,,,,,,,,2,,,58,0
116880,note_on,0,0,1,,,,,,,,,0,,,62,0
116880,note_on,120,0,1,,,,,,,,,0,,,74,0
116880,note_on,0,0,3,,,,,,,,,2,,,61,62
116880,note_on,0,0,3,,,,,,,,,2,,,55,0
116880,note_on,0,0,3,,,,,,,,,2,,,51,62
116880,note_on,0,0,1,,,,,,,,,0,,,63,75
117120,note_on,0,0,1,,,,,,,,,0,,,63,0
117120,note_on,0,0,1,,,,,,,,,0,,,62,75
117120,note_on,0,0,1,,,,,,,,,0,,,74,75
117120,note_on,240,0,3,,,,,,,,,2,,,61,0
117120,note_on,0,0,3,,,,,,,,,2,,,51,0
117120,note_on,0,0,3,,,,,,,,,2,,,55,0
117120,note_on,0,0,3,,,,,,,,,2,,,58,0
117120,note_on,0,0,3,,,,,,,,,2,,,55,62
117120,note_on,0,0,3,,,,,,,,,2,,,58,62
117120,note_on,240,0,1,,,,,,,,,0,,,75,0
117240,note_on,0,0,3,,,,,,,,,2,,,58,62
117240,note_on,0,0,3,,,,,,,,,2,,,61,62
117240,note_on,0,0,1,,,,,,,,,0,,,75,75
117240,note_on,0,0,1,,,,,,,,,0,,,63,75
117240,note_on,120,0,1,,,,,,,,,0,,,74,0
117240,note_on,120,0,3,,,,,,,,,2,,,58,0
117240,note_on,0,0,3,,,,,,,,,2,,,55,0
117240,note_on,0,0,3,,,,,,,,,2,,,51,62
117240,note_on,0,0,3,,,,,,,,,2,,,55,62
117240,note_on,0,0,1,,,,,,,,,0,,,62,0
117480,note_on,0,0,3,,,,,,,,,2,,,58,0
117480,note_on,240,0,3,,,,,,,,,2,,,61,0
117480,note_on,0,0,3,,,,,,,,,2,,,58,62
117480,note_on,0,0,1,,,,,,,,,0,,,70,75
117480,note_on,0,0,3,,,,,,,,,2,,,55,62
117480,note_on,0,0,3,,,,,,,,,2,,,55,0
117480,note_on,0,0,3,,,,,,,,,2,,,51,0
117480,note_on,0,0,1,,,,,,,,,0,,,67,75
117480,note_on,0,0,1,,,,,,,,,0,,,62,75
117480,note_on,0,0,1,,,,,,,,,0,,,63,0
117480,note_on,240,0,1,,,,,,,,,0,,,75,0
117492,note_on,0,0,3,,,,,,,,,2,,,55,0
117492,note_on,12,0,3,,,,,,,,,2,,,58,0
117492,note_on,0,0,1,,,,,,,,,0,,,62,0
117492,note_on,0,0,1,,,,,,,,,0,,,67,0
117492,note_on,12,0,1,,,,,,,,,0,,,70,0
117600,note_on,108,0,1,,,,,,,,,0,,,62,75
117600,note_on,0,0,3,,,,,,,,,2,,,55,62
117600,note_on,0,0,1,,,,,,,,,0,,,67,75
117600,note_on,108,0,3,,,,,,,,,2,,,46,62
117600,note_on,0,0,3,,,,,,,,,2,,,58,62
117600,note_on,0,0,1,,,,,,,,,0,,,74,75
117612,note_on,0,0,3,,,,,,,,,2,,,55,0
117612,note_on,0,0,1,,,,,,,,,0,,,67,0
117612,note_on,0,0,1,,,,,,,,,0,,,62,0
117612,note_on,12,0,3,,,,,,,,,2,,,58,0
117612,note_on,12,0,1,,,,,,,,,0,,,74,0
117612,note_on,0,0,3,,,,,,,,,2,,,46,0
117720,note_on,108,0,1,,,,,,,,,0,,,62,75
117720,note_on,0,0,1,,,,,,,,,0,,,67,75
117720,note_on,0,0,3,,,,,,,,,2,,,55,62
117720,note_on,0,0,1,,,,,,,,,0,,,74,75
117720,note_on,0,0,3,,,,,,,,,2,,,58,62
117720,note_on,108,0,3,,,,,,,,,2,,,50,62
117732,note_on,12,0,3,,,,,,,,,2,,,58,0
117732,note_on,0,0,3,,,,,,,,,2,,,55,0
117732,note_on,0,0,3,,,,,,,,,2,,,50,0
117732,note_on,0,0,1,,,,,,,,,0,,,62,0
117732,note_on,0,0,1,,,,,,,,,0,,,67,0
117732,note_on,12,0,1,,,,,,,,,0,,,74,0
117840,note_on,0,0,3,,,,,,,,,2,,,57,62
117840,note_on,0,0,3,,,,,,,,,2,,,60,62
117840,note_on,108,0,3,,,,,,,,,2,,,50,62
117840,note_on,0,0,1,,,,,,,,,0,,,69,75
117840,note_on,0,0,1,,,,,,,,,0,,,66,75
117840,note_on,108,0,1,,,,,,,,,0,,,62,75
117852,note_on,12,0,3,,,,,,,,,2,,,60,0
117852,note_on,12,0,1,,,,,,,,,0,,,69,0
117852,note_on,0,0,3,,,,,,,,,2,,,57,0
117852,note_on,0,0,1,,,,,,,,,0,,,66,0
117852,note_on,0,0,1,,,,,,,,,0,,,62,0
117852,note_on,0,0,3,,,,,,,,,2,,,50,0
117960,note_on,108,0,1,,,,,,,,,0,,,62,75
117960,note_on,0,0,1,,,,,,,,,0,,,67,75
117960,note_on,0,0,1,,,,,,,,,0,,,70,75
117960,note_on,108,0,3,,,,,,,,,2,,,55,62
117960,note_on,0,0,3,,,,,,,,,2,,,58,62
118200,note_on,0,0,3,,,,,,,,,2,,,55,0
118200,note_on,240,0,3,,,,,,,,,2,,,58,0
118200,note_on,0,0,3,,,,,,,,,2,,,43,36
118200,note_on,240,0,1,,,,,,,,,0,,,70,0
118200,note_on,0,0,3,,,,,,,,,2,,,55,36
118200,note_on,0,0,1,,,,,,,,,0,,,70,36
118200,note_on,0,0,1,,,,,,,,,0,,,67,36
118200,note_on,0,0,1,,,,,,,,,0,,,62,36
118200,note_on,0,0,1,,,,,,,,,0,,,62,0
118200,note_on,0,0,1,,,,,,,,,0,,,67,0
118320,note_on,120,0,3,,,,,,,,,2,,,55,0
118320,note_on,0,0,1,,,,,,,,,0,,,61,52
118320,note_on,0,0,1,,,,,,,,,0,,,62,0
118320,note_on,0,0,1,,,,,,,,,0,,,67,0
118320,note_on,120,0,1,,,,,,,,,0,,,70,0
118320,note_on,0,0,1,,,,,,,,,0,,,67,57
118320,note_on,0,0,1,,,,,,,,,0,,,69,62
118320,note_on,0,0,3,,,,,,,,,2,,,43,0
118320,note_on,0,0,3,,,,,,,,,2,,,45,54
118320,note_on,0,0,3,,,,,,,,,2,,,52,62
118560,note_on,0,0,3,,,,,,,,,2,,,45,0
118560,note_on,240,0,1,,,,,,,,,0,,,69,0
118560,note_on,0,0,1,,,,,,,,,0,,,67,0
118560,note_on,0,0,1,,,,,,,,,0,,,61,0
118560,note_on,0,0,1,,,,,,,,,0,,,62,36
118560,note_on,0,0,1,,,,,,,,,0,,,67,36
118560,note_on,0,0,1,,,,,,,,,0,,,70,36
118560,note_on,0,0,3,,,,,,,,,2,,,55,36
118560,note_on,0,0,3,,,,,,,,,2,,,43,36
118560,note_on,240,0,3,,,,,,,,,2,,,52,0
118680,note_on,120,0,1,,,,,,,,,0,,,70,0
118680,note_on,0,0,1,,,,,,,,,0,,,67,0
118680,note_on,0,0,1,,,,,,,,,0,,,61,52
118680,note_on,120,0,3,,,,,,,,,2,,,55,0
118680,note_on,0,0,3,,,,,,,,,2,,,43,0
118680,note_on,0,0,3,,,,,,,,,2,,,45,54
118680,note_on,0,0,1,,,,,,,,,0,,,62,0
118680,note_on,0,0,3,,,,,,,,,2,,,52,62
118680,note_on,0,0,1,,,,,,,,,0,,,67,57
118680,note_on,0,0,1,,,,,,,,,0,,,69,62
118920,note_on,240,0,1,,,,,,,,,0,,,69,0
118920,note_on,0,0,1,,,,,,,,,0,,,67,0
118920,note_on,0,0,1,,,,,,,,,0,,,61,0
118920,note_on,0,0,1,,,,,,,,,0,,,62,36
118920,note_on,0,0,1,,,,,,,,,0,,,70,36
118920,note_on,0,0,1,,,,,,,,,0,,,67,36
118920,note_on,240,0,3,,,,,,,,,2,,,52,0
118920,note_on,0,0,3,,,,,,,,,2,,,43,36
118920,note_on,0,0,3,,,,,,,,,2,,,55,36
118920,note_on,0,0,3,,,,,,,,,2,,,45,0
119040,note_on,0,0,1,,,,,,,,,0,,,69,62
119040,note_on,0,0,1,,,,,,,,,0,,,67,57
119040,note_on,0,0,1,,,,,,,,,0,,,61,52
119040,note_on,120,0,1,,,,,,,,,0,,,70,0
119040,note_on,0,0,1,,,,,,,,,0,,,67,0
119040,note_on,0,0,3,,,,,,,,,2,,,52,62
119040,note_on,0,0,3,,,,,,,,,2,,,45,54
119040,note_on,0,0,3,,,,,,,,,2,,,43,0
119040,note_on,120,0,3,,,,,,,,,2,,,55,0
119040,note_on,0,0,1,,,,,,,,,0,,,62,0
119640,note_on,0,0,1,,,,,,,,,0,,,67,0
119640,note_on,600,0,1,,,,,,,,,0,,,69,0
119640,note_on,0,0,1,,,,,,,,,0,,,72,36
119640,note_on,0,0,1,,,,,,,,,0,,,61,0
119640,note_on,0,0,3,,,,,,,,,2,,,53,36
119640,note_on,600,0,3,,,,,,,,,2,,,52,0
119640,note_on,0,0,3,,,,,,,,,2,,,60,36
119640,note_on,0,0,3,,,,,,,,,2,,,45,0
119640,note_on,0,0,3,,,,,,,,,2,,,57,36
119760,control_change,7560,0,4,,,,,,,,,3,64,127,,
119760,note_on,0,0,4,,,,,,,,,3,,,53,36
119760,note_on,0,0,3,,,,,,,,,2,,,57,36
119760,control_change,0,0,3,,,,,,,,,2,64,127,,
119760,note_on,0,0,3,,,,,,,,,2,,,53,0
119760,note_on,0,0,3,,,,,,,,,2,,,57,0
119760,note_on,120,0,3,,,,,,,,,2,,,60,0
119760,note_on,120,0,1,,,,,,,,,0,,,72,0
119760,control_change,0,0,1,,,,,,,,,0,64,127,,
119760,note_on,0,0,1,,,,,,,,,0,,,69,36
119880,note_on,120,0,1,,,,,,,,,0,,,69,0
119880,note_on,0,0,1,,,,,,,,,0,,,72,36
119880,note_on,120,0,3,,,,,,,,,2,,,57,0
119880,note_on,0,0,3,,,,,,,,,2,,,60,36
120000,note_on,0,0,4,,,,,,,,,3,,,53,36
120000,note_on,0,0,4,,,,,,,,,3,,,57,36
120000,note_on,240,0,4,,,,,,,,,3,,,53,0
120000,note_on,0,0,3,,,,,,,,,2,,,62,36
120000,note_on,120,0,1,,,,,,,,,0,,,72,0
120000,note_on,0,0,1,,,,,,,,,0,,,74,36
120000,note_on,120,0,3,,,,,,,,,2,,,60,0
120120,note_on,120,0,3,,,,,,,,,2,,,62,0
120120,note_on,0,0,3,,,,,,,,,2,,,65,36
120120,note_on,120,0,4,,,,,,,,,3,,,57,0
120120,note_on,0,0,1,,,,,,,,,0,,,77,36
120120,note_on,0,0,4,,,,,,,,,3,,,57,36
120120,note_on,0,0,4,,,,,,,,,3,,,53,36
120120,note_on,0,0,4,,,,,,,,,3,,,53,0
120120,note_on,120,0,1,,,,,,,,,0,,,74,0
120360,note_on,0,0,4,,,,,,,,,3,,,53,36
120360,control_change,0,0,4,,,,,,,,,3,64,0,,
120360,note_on,0,0,4,,,,,,,,,3,,,53,0
120360,note_on,240,0,4,,,,,,,,,3,,,57,0
120360,note_on,240,0,1,,,,,,,,,0,,,77,0
120360,note_on,0,0,1,,,,,,,,,0,,,69,36
120360,note_on,0,0,3,,,,,,,,,2,,,57,36
120360,control_change,0,0,3,,,,,,,,,2,64,0,,
120360,note_on,240,0,3,,,,,,,,,2,,,65,0
120360,control_change,0,0,1,,,,,,,,,0,64,0,,
120480,note_on,120,0,1,,,,,,,,,0,,,69,0
120480,control_change,0,0,1,,,,,,,,,0,64,127,,
120480,note_on,0,0,1,,,,,,,,,0,,,70,36
120480,note_on,0,0,3,,,,,,,,,2,,,58,36
120480,note_on,0,0,3,,,,,,,,,2,,,55,36
120480,note_on,120,0,3,,,,,,,,,2,,,57,0
120480,note_on,120,0,4,,,,,,,,,3,,,53,0
120480,note_on,0,0,4,,,,,,,,,3,,,53,36
120600,note_on,120,0,1,,,,,,,,,0,,,70,0
120600,note_on,0,0,1,,,,,,,,,0,,,67,36
120720,note_on,0,0,3,,,,,,,,,2,,,55,36
120720,note_on,240,0,3,,,,,,,,,2,,,58,0
120720,note_on,0,0,1,,,,,,,,,0,,,74,36
120720,note_on,0,0,3,,,,,,,,,2,,,55,0
120720,control_change,0,0,1,,,,,,,,,0,64,0,,
120720,note_on,0,0,3,,,,,,,,,2,,,62,36
120720,note_on,120,0,1,,,,,,,,,0,,,67,0
120720,note_on,0,0,4,,,,,,,,,3,,,53,36
120720,note_on,240,0,4,,,,,,,,,3,,,53,0
120840,note_on,0,0,3,,,,,,,,,2,,,53,36
120840,note_on,0,0,3,,,,,,,,,2,,,55,0
120840,note_on,120,0,3,,,,,,,,,2,,,62,0
120840,note_on,0,0,3,,,,,,,,,2,,,60,36
120840,note_on,120,0,4,,,,,,,,,3,,,53,0
120840,note_on,120,0,1,,,,,,,,,0,,,74,0
120840,note_on,0,0,1,,,,,,,,,0,,,72,36
120840,note_on,0,0,3,,,,,,,,,2,,,57,36
121080,note_on,240,0,1,,,,,,,,,0,,,72,0
121080,note_on,0,0,3,,,,,,,,,2,,,53,36
121080,note_on,0,0,3,,,,,,,,,2,,,57,0
121080,note_on,0,0,3,,,,,,,,,2,,,53,0
121080,note_on,0,0,1,,,,,,,,,0,,,91,36
121080,note_on,0,0,3,,,,,,,,,2,,,58,36
121080,note_on,0,0,3,,,,,,,,,2,,,60,36
121080,note_on,0,0,3,,,,,,,,,2,,,67,36
121080,note_on,240,0,3,,,,,,,,,2,,,60,0
121080,note_on,0,0,1,,,,,,,,,0,,,79,36
121200,note_on,0,0,1,,,,,,,,,0,,,79,0
121200,note_on,120,0,1,,,,,,,,,0,,,91,0
121200,note_on,0,0,1,,,,,,,,,0,,,93,62
121200,note_on,0,0,1,,,,,,,,,0,,,81,54
121200,note_on,0,0,3,,,,,,,,,2,,,69,36
121200,note_on,0,0,3,,,,,,,,,2,,,60,36
121200,note_on,0,0,3,,,,,,,,,2,,,53,36
121200,note_on,0,0,3,,,,,,,,,2,,,60,0
121200,note_on,0,0,3,,,,,,,,,2,,,58,0
121200,note_on,0,0,3,,,,,,,,,2,,,53,0
121200,note_on,120,0,3,,,,,,,,,2,,,67,0
121440,note_on,0,0,1,,,,,,,,,0,,,81,0
121440,note_on,240,0,1,,,,,,,,,0,,,93,0
121440,note_on,6120,0,2,,,,,,,,,1,,,48,36
121440,note_on,0,0,3,,,,,,,,,2,,,60,36
121440,note_on,0,0,3,,,,,,,,,2,,,58,36
121440,note_on,0,0,3,,,,,,,,,2,,,53,36
121440,note_on,0,0,3,,,,,,,,,2,,,53,0
121440,note_on,240,0,3,,,,,,,,,2,,,69,0
121440,note_on,0,0,3,,,,,,,,,2,,,67,36
121440,note_on,0,0,3,,,,,,,,,2,,,60,0
121560,note_on,0,0,2,,,,,,,,,1,,,41,36
121560,note_on,120,0,2,,,,,,,,,1,,,48,0
121560,note_on,120,0,3,,,,,,,,,2,,,67,0
121560,note_on,0,0,3,,,,,,,,,2,,,53,0
121560,note_on,0,0,3,,,,,,,,,2,,,58,0
121560,note_on,0,0,3,,,,,,,,,2,,,60,0
121560,note_on,0,0,3,,,,,,,,,2,,,53,36
121560,note_on,0,0,3,,,,,,,,,2,,,57,36
121560,note_on,0,0,3,,,,,,,,,2,,,60,36
121560,note_on,0,0,3,,,,,,,,,2,,,65,36
121800,note_on,0,0,3,,,,,,,,,2,,,60,0
121800,note_on,240,0,3,,,,,,,,,2,,,65,0
121800,note_on,0,0,3,,,,,,,,,2,,,53,0
121800,note_on,240,0,2,,,,,,,,,1,,,41,0
121800,note_on,360,0,1,,,,,,,,,0,,,79,36
121800,note_on,0,0,1,,,,,,,,,0,,,91,36
121800,note_on,0,0,3,,,,,,,,,2,,,67,36
121800,note_on,0,0,3,,,,,,,,,2,,,60,36
121800,note_on,0,0,3,,,,,,,,,2,,,58,36
121800,note_on,0,0,3,,,,,,,,,2,,,53,36
121800,note_on,0,0,3,,,,,,,,,2,,,57,0
121920,note_on,0,0,1,,,,,,,,,0,,,93,62
121920,note_on,0,0,1,,,,,,,,,0,,,79,0
121920,note_on,0,0,1,,,,,,,,,0,,,81,54
121920,note_on,0,0,3,,,,,,,,,2,,,69,36
121920,note_on,0,0,3,,,,,,,,,2,,,60,36
121920,note_on,0,0,3,,,,,,,,,2,,,53,36
121920,note_on,0,0,3,,,,,,,,,2,,,60,0
121920,note_on,0,0,3,,,,,,,,,2,,,58,0
121920,note_on,0,0,3,,,,,,,,,2,,,53,0
121920,note_on,120,0,3,,,,,,,,,2,,,67,0
121920,note_on,120,0,1,,,,,,,,,0,,,91,0
122160,note_on,240,0,1,,,,,,,,,0,,,93,0
122160,note_on,0,0,3,,,,,,,,,2,,,67,36
122160,note_on,0,0,3,,,,,,,,,2,,,53,0
122160,note_on,0,0,3,,,,,,,,,2,,,60,0
122160,note_on,240,0,3,,,,,,,,,2,,,69,0
122160,note_on,0,0,1,,,,,,,,,0,,,81,0
122160,note_on,360,0,2,,,,,,,,,1,,,48,36
122160,note_on,0,0,3,,,,,,,,,2,,,60,36
122160,note_on,0,0,3,,,,,,,,,2,,,53,36
122160,note_on,0,0,3,,,,,,,,,2,,,58,36
122280,note_on,0,0,3,,,,,,,,,2,,,60,36
122280,note_on,120,0,2,,,,,,,,,1,,,48,0
122280,note_on,0,0,3,,,,,,,,,2,,,65,36
122280,note_on,120,0,3,,,,,,,,,2,,,67,0
122280,note_on,0,0,3,,,,,,,,,2,,,53,0
122280,note_on,0,0,2,,,,,,,,,1,,,41,36
122280,note_on,0,0,3,,,,,,,,,2,,,53,36
122280,note_on,0,0,3,,,,,,,,,2,,,57,36
122280,note_on,0,0,3,,,,,,,,,2,,,58,0
122280,note_on,0,0,3,,,,,,,,,2,,,60,0
122520,note_on,240,0,3,,,,,,,,,2,,,65,0
122520,note_on,0,0,3,,,,,,,,,2,,,53,0
122520,note_on,0,0,3,,,,,,,,,2,,,57,0
122520,note_on,0,0,3,,,,,,,,,2,,,60,0
122520,note_on,0,0,3,,,,,,,,,2,,,53,36
122520,note_on,0,0,3,,,,,,,,,2,,,60,36
122520,note_on,0,0,3,,,,,,,,,2,,,67,36
122520,note_on,0,0,3,,,,,,,,,2,,,58,36
122520,note_on,0,0,2,,,,,,,,,1,,,48,36
122520,note_on,240,0,2,,,,,,,,,1,,,41,0
122640,note_on,120,0,2,,,,,,,,,1,,,48,0
122640,note_on,0,0,2,,,,,,,,,1,,,41,36
122640,note_on,0,0,3,,,,,,,,,2,,,65,36
122640,note_on,0,0,3,,,,,,,,,2,,,60,36
122640,note_on,0,0,3,,,,,,,,,2,,,57,36
122640,note_on,0,0,3,,,,,,,,,2,,,53,36
122640,note_on,0,0,3,,,,,,,,,2,,,60,0
122640,note_on,0,0,3,,,,,,,,,2,,,58,0
122640,note_on,0,0,3,,,,,,,,,2,,,53,0
122640,note_on,120,0,3,,,,,,,,,2,,,67,0
122880,note_on,0,0,3,,,,,,,,,2,,,57,0
122880,note_on,0,0,3,,,,,,,,,2,,,53,0
122880,note_on,240,0,3,,,,,,,,,2,,,65,0
122880,note_on,0,0,3,,,,,,,,,2,,,53,36
122880,note_on,720,0,1,,,,,,,,,0,,,79,36
122880,note_on,0,0,1,,,,,,,,,0,,,91,36
122880,note_on,0,0,3,,,,,,,,,2,,,67,36
122880,note_on,0,0,3,,,,,,,,,2,,,60,36
122880,note_on,0,0,3,,,,,,,,,2,,,58,36
122880,note_on,240,0,2,,,,,,,,,1,,,41,0
122880,note_on,0,0,3,,,,,,,,,2,,,60,0
123000,note_on,0,0,3,,,,,,,,,2,,,69,36
123000,note_on,0,0,3,,,,,,,,,2,,,53,36
123000,note_on,0,0,3,,,,,,,,,2,,,60,0
123000,note_on,0,0,3,,,,,,,,,2,,,53,0
123000,note_on,120,0,3,,,,,,,,,2,,,67,0
123000,note_on,0,0,3,,,,,,,,,2,,,60,36
123000,note_on,0,0,3,,,,,,,,,2,,,58,0
123000,note_on,0,0,1,,,,,,,,,0,,,93,62
123000,note_on,0,0,1,,,,,,,,,0,,,79,0
123000,note_on,120,0,1,,,,,,,,,0,,,91,0
123000,note_on,0,0,1,,,,,,,,,0,,,81,54
123240,note_on,360,0,2,,,,,,,,,1,,,48,36
123240,note_on,0,0,3,,,,,,,,,2,,,67,36
123240,note_on,0,0,3,,,,,,,,,2,,,60,36
123240,note_on,0,0,3,,,,,,,,,2,,,58,36
123240,note_on,0,0,3,,,,,,,,,2,,,53,36
123240,note_on,0,0,3,,,,,,,,,2,,,60,0
123240,note_on,0,0,3,,,,,,,,,2,,,53,0
123240,note_on,0,0,1,,,,,,,,,0,,,81,0
123240,note_on,240,0,1,,,,,,,,,0,,,93,0
123240,note_on,240,0,3,,,,,,,,,2,,,69,0
123360,note_on,0,0,2,,,,,,,,,1,,,41,36
123360,note_on,120,0,2,,,,,,,,,1,,,48,0
123360,note_on,120,0,3,,,,,,,,,2,,,67,0
123360,note_on,0,0,3,,,,,,,,,2,,,53,0
123360,note_on,0,0,3,,,,,,,,,2,,,58,0
123360,note_on,0,0,3,,,,,,,,,2,,,60,0
123360,note_on,0,0,3,,,,,,,,,2,,,53,36
123360,note_on,0,0,3,,,,,,,,,2,,,57,36
123360,note_on,0,0,3,,,,,,,,,2,,,60,36
123720,time_signature,8280,1,0,2,4,24,8,,,,,,,,,
123960,note_on,720,0,1,,,,,,,,,0,,,69,49
123960,note_on,0,0,3,,,,,,,,,2,,,57,36
123960,time_signature,240,1,0,1,4,24,8,,,,,,,,,
123960,note_on,0,0,3,,,,,,,,,2,,,57,0
123960,note_on,0,0,3,,,,,,,,,2,,,53,0
123960,key_signature,0,1,0,,,,,C,,,,,,,,
123960,set_tempo,0,1,0,,,,,,277778,,,,,,,
123960,note_on,600,0,2,,,,,,,,,1,,,41,0
123960,note_on,600,0,3,,,,,,,,,2,,,60,0
124020,note_on,60,0,1,,,,,,,,,0,,,69,0
124020,note_on,0,0,1,,,,,,,,,0,,,69,49
124020,note_on,60,0,3,,,,,,,,,2,,,57,0
124020,note_on,0,0,3,,,,,,,,,2,,,57,36
124080,note_on,0,0,1,,,,,,,,,0,,,71,49
124080,note_on,0,0,1,,,,,,,,,0,,,64,49
124080,note_on,60,0,1,,,,,,,,,0,,,69,0
124080,note_on,60,0,3,,,,,,,,,2,,,57,0
124080,note_on,0,0,3,,,,,,,,,2,,,52,36
124080,note_on,0,0,1,,,,,,,,,0,,,68,49
124080,time_signature,120,1,0,3,4,24,8,,,,,,,,,
124320,note_on,0,0,1,,,,,,,,,0,,,68,0
124320,note_on,0,0,3,,,,,,,,,2,,,57,36
124320,note_on,0,0,1,,,,,,,,,0,,,64,0
124320,note_on,0,0,1,,,,,,,,,0,,,69,49
124320,note_on,240,0,3,,,,,,,,,2,,,52,0
124320,note_on,240,0,1,,,,,,,,,0,,,71,0
124380,note_on,60,0,1,,,,,,,,,0,,,69,0
124380,note_on,0,0,1,,,,,,,,,0,,,69,49
124380,note_on,0,0,3,,,,,,,,,2,,,57,36
124380,note_on,60,0,3,,,,,,,,,2,,,57,0
124440,note_on,0,0,3,,,,,,,,,2,,,52,36
124440,note_on,60,0,3,,,,,,,,,2,,,57,0
124440,note_on,60,0,1,,,,,,,,,0,,,69,0
124440,note_on,0,0,1,,,,,,,,,0,,,64,49
124440,note_on,0,0,1,,,,,,,,,0,,,68,49
124440,note_on,0,0,1,,,,,,,,,0,,,71,49
124680,note_on,0,0,3,,,,,,,,,2,,,57,36
124680,note_on,240,0,3,,,,,,,,,2,,,52,0
124680,note_on,240,0,1,,,,,,,,,0,,,71,0
124680,note_on,0,0,1,,,,,,,,,0,,,68,0
124680,note_on,0,0,1,,,,,,,,,0,,,64,0
124680,note_on,0,0,1,,,,,,,,,0,,,69,49
124740,note_on,60,0,1,,,,,,,,,0,,,69,0
124740,note_on,0,0,1,,,,,,,,,0,,,69,49
124740,note_on,0,0,3,,,,,,,,,2,,,57,36
124740,note_on,60,0,3,,,,,,,,,2,,,57,0
124800,note_on,0,0,1,,,,,,,,,0,,,68,49
124800,note_on,0,0,1,,,,,,,,,0,,,71,49
124800,note_on,60,0,1,,,,,,,,,0,,,69,0
124800,note_on,60,0,3,,,,,,,,,2,,,57,0
124800,note_on,0,0,1,,,,,,,,,0,,,64,49
124800,note_on,0,0,3,,,,,,,,,2,,,52,36
124920,note_on,120,0,3,,,,,,,,,2,,,52,0
124920,note_on,0,0,3,,,,,,,,,2,,,57,36
124920,note_on,120,0,1,,,,,,,,,0,,,71,0
124920,note_on,0,0,1,,,,,,,,,0,,,68,0
124920,note_on,0,0,1,,,,,,,,,0,,,64,0
124920,note_on,0,0,1,,,,,,,,,0,,,64,49
124920,note_on,0,0,1,,,,,,,,,0,,,69,49
124920,note_on,0,0,1,,,,,,,,,0,,,72,49
124932,note_on,0,0,1,,,,,,,,,0,,,69,0
124932,note_on,12,0,3,,,,,,,,,2,,,57,0
124932,note_on,0,0,1,,,,,,,,,0,,,64,0
124932,note_on,12,0,1,,,,,,,,,0,,,72,0
125040,note_on,0,0,1,,,,,,,,,0,,,71,49
125040,note_on,0,0,1,,,,,,,,,0,,,68,49
125040,note_on,108,0,1,,,,,,,,,0,,,64,49
125040,note_on,108,0,3,,,,,,,,,2,,,52,36
125052,note_on,0,0,1,,,,,,,,,0,,,64,0
125052,note_on,0,0,1,,,,,,,,,0,,,68,0
125052,note_on,12,0,1,,,,,,,,,0,,,71,0
125052,note_on,12,0,3,,,,,,,,,2,,,52,0
125160,note_on,0,0,1,,,,,,,,,0,,,69,49
125160,note_on,0,0,1,,,,,,,,,0,,,72,49
125160,note_on,108,0,3,,,,,,,,,2,,,57,36
125160,note_on,108,0,1,,,,,,,,,0,,,64,49
125172,note_on,12,0,3,,,,,,,,,2,,,57,0
125172,note_on,0,0,1,,,,,,,,,0,,,64,0
125172,note_on,12,0,1,,,,,,,,,0,,,72,0
125172,note_on,0,0,1,,,,,,,,,0,,,69,0
125280,note_on,0,0,1,,,,,,,,,0,,,71,101
125280,note_on,0,0,1,,,,,,,,,0,,,76,101
125280,note_on,0,0,3,,,,,,,,,2,,,44,88
125280,note_on,108,0,3,,,,,,,,,2,,,32,88
125280,note_on,108,0,1,,,,,,,,,0,,,64,101
125520,note_on,240,0,3,,,,,,,,,2,,,44,0
125520,note_on,0,0,3,,,,,,,,,2,,,32,0
125520,note_on,0,0,3,,,,,,,,,2,,,33,88
125520,note_on,0,0,3,,,,,,,,,2,,,45,88
125520,note_on,0,0,1,,,,,,,,,0,,,64,0
125520,note_on,0,0,1,,,,,,,,,0,,,72,101
125520,note_on,0,0,1,,,,,,,,,0,,,69,101
125520,note_on,0,0,1,,,,,,,,,0,,,64,101
125520,note_on,0,0,1,,,,,,,,,0,,,71,0
125520,note_on,240,0,1,,,,,,,,,0,,,76,0
125640,note_on,120,0,1,,,,,,,,,0,,,72,0
125640,note_on,0,0,3,,,,,,,,,2,,,33,0
125640,note_on,120,0,3,,,,,,,,,2,,,45,0
125640,note_on,0,0,1,,,,,,,,,0,,,69,0
125640,note_on,0,0,1,,,,,,,,,0,,,64,0
125760,note_on,1800,0,2,,,,,,,,,1,,,67,36
125760,note_on,120,0,1,,,,,,,,,0,,,72,49
125760,note_on,0,0,3,,,,,,,,,2,,,64,36
125760,note_on,120,0,3,,,,,,,,,2,,,60,36
125820,note_on,0,0,1,,,,,,,,,0,,,72,49
125820,note_on,60,0,1,,,,,,,,,0,,,72,0
125880,note_on,120,0,3,,,,,,,,,2,,,64,0
125880,note_on,0,0,3,,,,,,,,,2,,,60,0
125880,note_on,0,0,3,,,,,,,,,2,,,59,36
125880,note_on,0,0,3,,,,,,,,,2,,,65,36
125880,note_on,0,0,1,,,,,,,,,0,,,74,75
125880,note_on,60,0,1,,,,,,,,,0,,,72,0
125880,note_on,120,0,2,,,,,,,,,1,,,67,0
125880,note_on,0,0,2,,,,,,,,,1,,,67,36
126120,note_on,240,0,2,,,,,,,,,1,,,67,0
126120,note_on,0,0,2,,,,,,,,,1,,,67,36
126120,note_on,0,0,1,,,,,,,,,0,,,72,49
126120,note_on,240,0,3,,,,,,,,,2,,,65,0
126120,note_on,0,0,3,,,,,,,,,2,,,60,36
126120,note_on,0,0,3,,,,,,,,,2,,,64,36
126120,note_on,240,0,1,,,,,,,,,0,,,74,0
126120,note_on,0,0,3,,,,,,,,,2,,,59,0
126180,note_on,60,0,1,,,,,,,,,0,,,72,0
126180,note_on,0,0,1,,,,,,,,,0,,,72,49
126240,note_on,120,0,2,,,,,,,,,1,,,67,0
126240,note_on,120,0,3,,,,,,,,,2,,,64,0
126240,note_on,0,0,3,,,,,,,,,2,,,60,0
126240,note_on,0,0,3,,,,,,,,,2,,,59,36
126240,note_on,0,0,3,,,,,,,,,2,,,65,36
126240,note_on,0,0,2,,,,,,,,,1,,,67,36
126240,note_on,60,0,1,,,,,,,,,0,,,72,0
126240,note_on,0,0,1,,,,,,,,,0,,,74,75
126480,note_on,0,0,3,,,,,,,,,2,,,60,36
126480,note_on,240,0,2,,,,,,,,,1,,,67,0
126480,note_on,0,0,2,,,,,,,,,1,,,67,36
126480,note_on,240,0,1,,,,,,,,,0,,,74,0
126480,note_on,0,0,1,,,,,,,,,0,,,72,49
126480,note_on,240,0,3,,,,,,,,,2,,,65,0
126480,note_on,0,0,3,,,,,,,,,2,,,59,0
126480,note_on,0,0,3,,,,,,,,,2,,,64,36
126540,note_on,60,0,1,,,,,,,,,0,,,72,0
126540,note_on,0,0,1,,,,,,,,,0,,,72,49
126600,note_on,120,0,2,,,,,,,,,1,,,67,0
126600,note_on,0,0,2,,,,,,,,,1,,,67,36
126600,note_on,60,0,1,,,,,,,,,0,,,72,0
126600,note_on,0,0,3,,,,,,,,,2,,,65,36
126600,note_on,120,0,3,,,,,,,,,2,,,64,0
126600,note_on,0,0,3,,,,,,,,,2,,,60,0
126600,note_on,0,0,3,,,,,,,,,2,,,59,36
126600,note_on,0,0,1,,,,,,,,,0,,,74,49
126840,note_on,0,0,1,,,,,,,,,0,,,76,49
126840,note_on,0,0,3,,,,,,,,,2,,,67,36
126840,note_on,0,0,3,,,,,,,,,2,,,60,36
126840,note_on,0,0,3,,,,,,,,,2,,,58,36
126840,note_on,240,0,2,,,,,,,,,1,,,67,0
126840,note_on,0,0,3,,,,,,,,,2,,,59,0
126840,note_on,240,0,3,,,,,,,,,2,,,65,0
126840,note_on,240,0,1,,,,,,,,,0,,,74,0
126840,note_on,0,0,2,,,,,,,,,1,,,72,36
126900,note_on,0,0,1,,,,,,,,,0,,,76,49
126900,note_on,60,0,1,,,,,,,,,0,,,76,0
126960,note_on,120,0,3,,,,,,,,,2,,,67,0
126960,note_on,0,0,3,,,,,,,,,2,,,58,0
126960,note_on,0,0,3,,,,,,,,,2,,,57,36
126960,note_on,0,0,3,,,,,,,,,2,,,65,36
126960,note_on,0,0,1,,,,,,,,,0,,,79,49
126960,note_on,120,0,2,,,,,,,,,1,,,72,0
126960,note_on,0,0,2,,,,,,,,,1,,,72,36
126960,note_on,60,0,1,,,,,,,,,0,,,76,0
127020,note_on,0,0,1,,,,,,,,,0,,,77,49
127020,note_on,60,0,1,,,,,,,,,0,,,79,0
127080,note_on,60,0,1,,,,,,,,,0,,,77,0
127080,note_on,120,0,3,,,,,,,,,2,,,65,0
127080,note_on,0,0,3,,,,,,,,,2,,,57,0
127080,note_on,0,0,3,,,,,,,,,2,,,60,0
127080,note_on,0,0,3,,,,,,,,,2,,,55,36
127080,note_on,0,0,2,,,,,,,,,1,,,72,36
127080,note_on,120,0,2,,,,,,,,,1,,,72,0
127080,note_on,0,0,3,,,,,,,,,2,,,67,36
127080,note_on,0,0,1,,,,,,,,,0,,,76,49
127092,note_on,12,0,2,,,,,,,,,1,,,72,0
127092,note_on,12,0,3,,,,,,,,,2,,,67,0
127092,note_on,0,0,3,,,,,,,,,2,,,55,0
127092,note_on,12,0,1,,,,,,,,,0,,,76,0
127200,note_on,108,0,1,,,,,,,,,0,,,74,49
127200,note_on,108,0,3,,,,,,,,,2,,,55,36
127200,note_on,108,0,2,,,,,,,,,1,,,71,36
127200,note_on,0,0,3,,,,,,,,,2,,,65,36
127212,note_on,12,0,1,,,,,,,,,0,,,74,0
127212,note_on,0,0,3,,,,,,,,,2,,,55,0
127212,note_on,12,0,2,,,,,,,,,1,,,71,0
127212,note_on,12,0,3,,,,,,,,,2,,,65,0
127320,note_on,108,0,1,,,,,,,,,0,,,72,49
127320,note_on,108,0,3,,,,,,,,,2,,,60,36
127320,note_on,0,0,3,,,,,,,,,2,,,64,36
127332,note_on,12,0,1,,,,,,,,,0,,,72,0
127332,note_on,0,0,3,,,,,,,,,2,,,60,0
127332,note_on,12,0,3,,,,,,,,,2,,,64,0
127440,note_on,108,0,3,,,,,,,,,2,,,52,75
127440,note_on,108,0,1,,,,,,,,,0,,,67,88
127440,note_on,0,0,1,,,,,,,,,0,,,79,88
127440,note_on,0,0,3,,,,,,,,,2,,,64,75
127680,note_on,0,0,3,,,,,,,,,2,,,60,75
127680,note_on,0,0,3,,,,,,,,,2,,,52,0
127680,note_on,0,0,3,,,,,,,,,2,,,48,75
127680,note_on,240,0,3,,,,,,,,,2,,,64,0
127680,note_on,0,0,1,,,,,,,,,0,,,76,88
127680,note_on,0,0,1,,,,,,,,,0,,,64,88
127680,note_on,0,0,1,,,,,,,,,0,,,67,0
127680,note_on,240,0,1,,,,,,,,,0,,,79,0
127692,note_on,12,0,3,,,,,,,,,2,,,60,0
127692,note_on,12,0,1,,,,,,,,,0,,,76,0
127692,note_on,0,0,1,,,,,,,,,0,,,64,0
127692,note_on,0,0,3,,,,,,,,,2,,,48,0
127800,note_on,0,0,3,,,,,,,,,2,,,57,75
127800,note_on,108,0,3,,,,,,,,,2,,,45,75
127800,note_on,0,0,1,,,,,,,,,0,,,72,88
127800,note_on,108,0,1,,,,,,,,,0,,,60,88
127812,note_on,0,0,3,,,,,,,,,2,,,45,0
127812,note_on,0,0,1,,,,,,,,,0,,,60,0
127812,note_on,12,0,1,,,,,,,,,0,,,72,0
127812,note_on,12,0,3,,,,,,,,,2,,,57,0
127920,note_on,108,0,3,,,,,,,,,2,,,41,75
127920,note_on,108,0,1,,,,,,,,,0,,,57,88
127920,note_on,0,0,1,,,,,,,,,0,,,69,88
127920,note_on,0,0,3,,,,,,,,,2,,,53,75
127932,note_on,12,0,1,,,,,,,,,0,,,69,0
127932,note_on,0,0,1,,,,,,,,,0,,,57,0
127932,note_on,12,0,3,,,,,,,,,2,,,53,0
127932,note_on,0,0,3,,,,,,,,,2,,,41,0
128040,note_on,108,0,3,,,,,,,,,2,,,38,75
128040,note_on,0,0,3,,,,,,,,,2,,,50,75
128040,note_on,108,0,1,,,,,,,,,0,,,53,88
128040,note_on,0,0,1,,,,,,,,,0,,,65,88
128052,note_on,0,0,1,,,,,,,,,0,,,53,0
128052,note_on,12,0,3,,,,,,,,,2,,,50,0
128052,note_on,12,0,1,,,,,,,,,0,,,65,0
128052,note_on,0,0,3,,,,,,,,,2,,,38,0
128160,control_change,108,0,3,,,,,,,,,2,64,127,,
128160,note_on,0,0,3,,,,,,,,,2,,,35,75
128160,control_change,108,0,1,,,,,,,,,0,64,127,,
128160,note_on,0,0,3,,,,,,,,,2,,,47,75
128160,note_on,0,0,1,,,,,,,,,0,,,69,88
128160,note_on,0,0,1,,,,,,,,,0,,,74,88
128160,note_on,0,0,1,,,,,,,,,0,,,77,88
128160,note_on,0,0,1,,,,,,,,,0,,,81,88
128400,note_on,0,0,1,,,,,,,,,0,,,77,0
128400,note_on,0,0,1,,,,,,,,,0,,,77,88
128400,note_on,0,0,1,,,,,,,,,0,,,74,0
128400,note_on,0,0,3,,,,,,,,,2,,,35,0
128400,note_on,240,0,1,,,,,,,,,0,,,81,0
128400,note_on,0,0,1,,,,,,,,,0,,,81,88
128400,note_on,0,0,1,,,,,,,,,0,,,69,0
128400,note_on,0,0,1,,,,,,,,,0,,,86,88
128400,note_on,240,0,3,,,,,,,,,2,,,47,0
128400,note_on,0,0,3,,,,,,,,,2,,,59,75
128400,note_on,0,0,3,,,,,,,,,2,,,65,75
128400,note_on,0,0,3,,,,,,,,,2,,,69,75
128940,note_on,0,0,1,,,,,,,,,0,,,77,0
128940,note_on,0,0,1,,,,,,,,,0,,,81,0
128940,note_on,540,0,1,,,,,,,,,0,,,86,0
128940,note_on,0,0,1,,,,,,,,,0,,,84,49
129000,note_on,60,0,1,,,,,,,,,0,,,84,0
129000,note_on,0,0,1,,,,,,,,,0,,,83,49
129060,note_on,60,0,1,,,,,,,,,0,,,83,0
129060,note_on,0,0,1,,,,,,,,,0,,,81,49
129060,control_change,0,0,1,,,,,,,,,0,64,0,,
129120,note_on,0,0,3,,,,,,,,,2,,,59,0
129120,note_on,0,0,3,,,,,,,,,2,,,65,0
129120,note_on,720,0,3,,,,,,,,,2,,,69,0
129120,note_on,0,0,3,,,,,,,,,2,,,67,36
129120,note_on,0,0,3,,,,,,,,,2,,,64,36
129120,control_change,0,0,3,,,,,,,,,2,64,0,,
129120,note_on,0,0,1,,,,,,,,,0,,,79,49
129120,note_on,0,0,3,,,,,,,,,2,,,60,36
129120,note_on,60,0,1,,,,,,,,,0,,,81,0
129180,note_on,0,0,3,,,,,,,,,2,,,64,0
129180,note_on,60,0,1,,,,,,,,,0,,,79,0
129180,note_on,0,0,3,,,,,,,,,2,,,60,0
129180,note_on,60,0,3,,,,,,,,,2,,,67,0
129240,note_on,0,0,3,,,,,,,,,2,,,79,62
129240,note_on,0,0,3,,,,,,,,,2,,,76,54
129240,control_change,60,0,1,,,,,,,,,0,64,127,,
129240,note_on,0,0,1,,,,,,,,,0,,,91,49
129240,control_change,60,0,3,,,,,,,,,2,64,127,,
129420,note_on,180,0,1,,,,,,,,,0,,,91,0
129420,note_on,0,0,1,,,,,,,,,0,,,88,49
129480,note_on,0,0,3,,,,,,,,,2,,,76,36
129480,note_on,0,0,3,,,,,,,,,2,,,72,36
129480,note_on,240,0,3,,,,,,,,,2,,,79,0
129480,note_on,60,0,1,,,,,,,,,0,,,88,0
129480,note_on,0,0,1,,,,,,,,,0,,,88,49
129480,note_on,0,0,3,,,,,,,,,2,,,76,0
129492,note_on,0,0,3,,,,,,,,,2,,,72,0
129492,note_on,12,0,3,,,,,,,,,2,,,76,0
129540,note_on,60,0,1,,,,,,,,,0,,,88,0
129540,note_on,0,0,1,,,,,,,,,0,,,84,49
129600,note_on,0,0,3,,,,,,,,,2,,,72,36
129600,note_on,108,0,3,,,,,,,,,2,,,69,36
129600,note_on,0,0,1,,,,,,,,,0,,,84,49
129600,note_on,60,0,1,,,,,,,,,0,,,84,0
129612,note_on,0,0,3,,,,,,,,,2,,,69,0
129612,note_on,12,0,3,,,,,,,,,2,,,72,0
129660,note_on,0,0,1,,,,,,,,,0,,,81,49
129660,note_on,60,0,1,,,,,,,,,0,,,84,0
129720,control_change,0,0,1,,,,,,,,,0,64,0,,
129720,note_on,0,0,3,,,,,,,,,2,,,69,36
129720,control_change,108,0,3,,,,,,,,,2,64,0,,
129720,note_on,60,0,1,,,,,,,,,0,,,81,0
129720,note_on,0,0,3,,,,,,,,,2,,,65,36
129720,note_on,0,0,1,,,,,,,,,0,,,81,49
129732,note_on,12,0,3,,,,,,,,,2,,,69,0
129732,note_on,0,0,3,,,,,,,,,2,,,65,0
129780,note_on,60,0,1,,,,,,,,,0,,,81,0
129780,note_on,0,0,1,,,,,,,,,0,,,77,49
129840,note_on,0,0,1,,,,,,,,,0,,,77,49
129840,note_on,108,0,3,,,,,,,,,2,,,62,36
129840,note_on,0,0,3,,,,,,,,,2,,,65,36
129840,note_on,60,0,1,,,,,,,,,0,,,77,0
129900,note_on,0,0,3,,,,,,,,,2,,,62,0
129900,note_on,60,0,3,,,,,,,,,2,,,65,0
129900,note_on,60,0,1,,,,,,,,,0,,,77,0
129960,note_on,60,0,1,,,,,,,,,0,,,72,65
129960,note_on,0,0,1,,,,,,,,,0,,,75,70
129960,note_on,0,0,1,,,,,,,,,0,,,80,75
129960,note_on,60,0,3,,,,,,,,,2,,,60,52
129960,note_on,0,0,3,,,,,,,,,2,,,63,57
129960,note_on,0,0,3,,,,,,,,,2,,,68,62
130560,note_on,0,0,1,,,,,,,,,0,,,72,0
130560,control_change,0,0,1,,,,,,,,,0,64,127,,
130560,note_on,3348,0,2,,,,,,,,,1,,,71,36
130560,note_on,0,0,2,,,,,,,,,1,,,79,36
130560,note_on,0,0,1,,,,,,,,,0,,,74,49
130560,note_on,0,0,4,,,,,,,,,3,,,67,36
130560,note_on,0,0,1,,,,,,,,,0,,,75,0
130560,note_on,600,0,1,,,,,,,,,0,,,80,0
130560,note_on,600,0,3,,,,,,,,,2,,,68,0
130560,note_on,9720,0,4,,,,,,,,,3,,,59,36
130560,note_on,0,0,3,,,,,,,,,2,,,60,0
130560,control_change,0,0,3,,,,,,,,,2,64,127,,
130560,note_on,0,0,3,,,,,,,,,2,,,74,36
130560,note_on,0,0,3,,,,,,,,,2,,,63,0
130620,note_on,60,0,3,,,,,,,,,2,,,74,0
130620,note_on,0,0,3,,,,,,,,,2,,,76,36
130620,note_on,0,0,1,,,,,,,,,0,,,76,49
130620,note_on,60,0,1,,,,,,,,,0,,,74,0
130680,note_on,60,0,3,,,,,,,,,2,,,76,0
130680,note_on,0,0,3,,,,,,,,,2,,,77,49
130680,note_on,0,0,1,,,,,,,,,0,,,77,62
130680,note_on,60,0,1,,,,,,,,,0,,,76,0
130740,note_on,0,0,1,,,,,,,,,0,,,76,62
130740,note_on,60,0,3,,,,,,,,,2,,,77,0
130740,note_on,60,0,1,,,,,,,,,0,,,77,0
130740,note_on,0,0,3,,,,,,,,,2,,,76,49
130800,note_on,0,0,1,,,,,,,,,0,,,74,75
130800,note_on,60,0,3,,,,,,,,,2,,,76,0
130800,note_on,60,0,1,,,,,,,,,0,,,76,0
130800,note_on,0,0,3,,,,,,,,,2,,,74,62
130860,note_on,60,0,1,,,,,,,,,0,,,74,0
130860,note_on,0,0,1,,,,,,,,,0,,,76,75
130860,control_change,0,0,3,,,,,,,,,2,64,0,,
130860,note_on,0,0,3,,,,,,,,,2,,,76,62
130860,control_change,0,0,1,,,,,,,,,0,64,0,,
130860,note_on,60,0,3,,,,,,,,,2,,,74,0
130920,note_on,60,0,1,,,,,,,,,0,,,76,0
130920,note_on,360,0,4,,,,,,,,,3,,,65,75
130920,note_on,360,0,2,,,,,,,,,1,,,77,96
130920,note_on,60,0,3,,,,,,,,,2,,,76,0
131160,note_on,240,0,2,,,,,,,,,1,,,77,0
131160,note_on,0,0,2,,,,,,,,,1,,,71,0
131160,note_on,0,0,2,,,,,,,,,1,,,76,75
131160,note_on,0,0,2,,,,,,,,,1,,,72,75
131160,note_on,0,0,4,,,,,,,,,3,,,59,0
131160,note_on,0,0,4,,,,,,,,,3,,,60,75
131160,note_on,0,0,4,,,,,,,,,3,,,64,75
131160,note_on,240,0,4,,,,,,,,,3,,,65,0
131280,note_on,360,0,1,,,,,,,,,0,,,79,49
131280,note_on,0,0,4,,,,,,,,,3,,,53,36
131280,note_on,0,0,4,,,,,,,,,3,,,67,0
131280,note_on,120,0,4,,,,,,,,,3,,,64,0
131280,note_on,120,0,2,,,,,,,,,1,,,76,0
131280,note_on,0,0,2,,,,,,,,,1,,,72,0
131280,note_on,0,0,2,,,,,,,,,1,,,79,0
131280,note_on,0,0,2,,,,,,,,,1,,,69,36
131280,note_on,0,0,2,,,,,,,,,1,,,74,36
131280,note_on,0,0,4,,,,,,,,,3,,,60,0
131292,note_on,12,0,4,,,,,,,,,3,,,53,0
131340,note_on,0,0,1,,,,,,,,,0,,,77,49
131340,note_on,60,0,1,,,,,,,,,0,,,79,0
131400,note_on,0,0,2,,,,,,,,,1,,,69,0
131400,note_on,0,0,2,,,,,,,,,1,,,67,36
131400,note_on,0,0,2,,,,,,,,,1,,,72,36
131400,note_on,60,0,1,,,,,,,,,0,,,77,0
131400,note_on,0,0,1,,,,,,,,,0,,,77,49
131400,note_on,108,0,4,,,,,,,,,3,,,55,36
131400,note_on,120,0,2,,,,,,,,,1,,,74,0
131412,note_on,12,0,4,,,,,,,,,3,,,55,0
131460,note_on,0,0,1,,,,,,,,,0,,,76,49
131460,note_on,60,0,1,,,,,,,,,0,,,77,0
131520,note_on,0,0,1,,,,,,,,,0,,,76,49
131520,note_on,60,0,1,,,,,,,,,0,,,76,0
131520,note_on,0,0,2,,,,,,,,,1,,,71,36
131520,note_on,0,0,2,,,,,,,,,1,,,65,36
131520,note_on,0,0,2,,,,,,,,,1,,,67,0
131520,note_on,120,0,2,,,,,,,,,1,,,72,0
131520,note_on,108,0,4,,,,,,,,,3,,,55,36
131532,note_on,12,0,4,,,,,,,,,3,,,55,0
131580,note_on,0,0,1,,,,,,,,,0,,,74,49
131580,note_on,60,0,1,,,,,,,,,0,,,76,0
131640,note_on,0,0,1,,,,,,,,,0,,,64,49
131640,note_on,60,0,1,,,,,,,,,0,,,74,0
131640,note_on,0,0,1,,,,,,,,,0,,,72,49
131640,note_on,0,0,4,,,,,,,,,3,,,55,36
131640,note_on,108,0,4,,,,,,,,,3,,,48,36
131640,note_on,120,0,2,,,,,,,,,1,,,71,0
131640,note_on,0,0,2,,,,,,,,,1,,,65,0
131880,note_on,0,0,4,,,,,,,,,3,,,64,36
131880,note_on,0,0,4,,,,,,,,,3,,,48,0
131880,note_on,240,0,4,,,,,,,,,3,,,55,0
131880,note_on,240,0,1,,,,,,,,,0,,,72,0
131880,note_on,0,0,1,,,,,,,,,0,,,64,0
131880,note_on,0,0,1,,,,,,,,,0,,,79,36
131940,note_on,60,0,4,,,,,,,,,3,,,64,0
131940,note_on,60,0,1,,,,,,,,,0,,,79,0
131940,note_on,0,0,1,,,,,,,,,0,,,79,36
131940,note_on,0,0,4,,,,,,,,,3,,,64,36
132000,control_change,0,0,1,,,,,,,,,0,64,127,,
132000,note_on,60,0,1,,,,,,,,,0,,,79,0
132000,note_on,0,0,1,,,,,,,,,0,,,67,36
132000,control_change,0,0,4,,,,,,,,,3,64,127,,
132000,note_on,60,0,4,,,,,,,,,3,,,64,0
132000,note_on,0,0,4,,,,,,,,,3,,,52,36
132240,note_on,240,0,1,,,,,,,,,0,,,67,0
132240,note_on,240,0,4,,,,,,,,,3,,,52,0
132240,note_on,0,0,4,,,,,,,,,3,,,64,36
132240,note_on,0,0,1,,,,,,,,,0,,,79,36
132300,note_on,60,0,4,,,,,,,,,3,,,64,0
132300,control_change,0,0,4,,,,,,,,,3,64,0,,
132300,note_on,0,0,4,,,,,,,,,3,,,64,36
132300,note_on,0,0,1,,,,,,,,,0,,,79,36
132300,control_change,0,0,1,,,,,,,,,0,64,0,,
132300,note_on,60,0,1,,,,,,,,,0,,,79,0
132360,note_on,0,0,4,,,,,,,,,3,,,53,36
132360,control_change,0,0,4,,,,,,,,,3,64,127,,
132360,note_on,60,0,1,,,,,,,,,0,,,79,0
132360,note_on,60,0,4,,,,,,,,,3,,,64,0
132360,control_change,0,0,1,,,,,,,,,0,64,127,,
132360,note_on,0,0,1,,,,,,,,,0,,,69,36
132600,note_on,240,0,1,,,,,,,,,0,,,69,0
132600,note_on,240,0,4,,,,,,,,,3,,,53,0
132600,note_on,0,0,4,,,,,,,,,3,,,64,36
132600,note_on,0,0,1,,,,,,,,,0,,,79,36
132660,control_change,0,0,1,,,,,,,,,0,64,0,,
132660,note_on,0,0,1,,,,,,,,,0,,,79,36
132660,note_on,60,0,4,,,,,,,,,3,,,64,0
132660,note_on,0,0,4,,,,,,,,,3,,,64,36
132660,control_change,0,0,4,,,,,,,,,3,64,0,,
132660,note_on,60,0,1,,,,,,,,,0,,,79,0
132720,note_on,60,0,1,,,,,,,,,0,,,79,0
132720,note_on,0,0,1,,,,,,,,,0,,,71,36
132720,note_on,0,0,4,,,,,,,,,3,,,55,36
132720,note_on,60,0,4,,,,,,,,,3,,,64,0
132780,note_on,60,0,1,,,,,,,,,0,,,71,0
132780,note_on,0,0,4,,,,,,,,,3,,,65,36
132780,note_on,60,0,4,,,,,,,,,3,,,55,0
132780,note_on,0,0,1,,,,,,,,,0,,,79,36
132840,note_on,60,0,4,,,,,,,,,3,,,65,0
132840,note_on,60,0,1,,,,,,,,,0,,,79,0
132840,note_on,0,0,1,,,,,,,,,0,,,72,36
132840,note_on,0,0,4,,,,,,,,,3,,,57,36
132900,note_on,60,0,4,,,,,,,,,3,,,57,0
132900,note_on,0,0,4,,,,,,,,,3,,,65,36
132900,note_on,60,0,1,,,,,,,,,0,,,72,0
132900,note_on,0,0,1,,,,,,,,,0,,,79,36
132960,note_on,60,0,4,,,,,,,,,3,,,65,0
132960,note_on,60,0,1,,,,,,,,,0,,,79,0
132960,note_on,0,0,1,,,,,,,,,0,,,74,36
132960,note_on,0,0,4,,,,,,,,,3,,,59,36
133020,note_on,60,0,4,,,,,,,,,3,,,59,0
133020,note_on,0,0,4,,,,,,,,,3,,,65,36
133020,note_on,60,0,1,,,,,,,,,0,,,74,0
133020,note_on,0,0,1,,,,,,,,,0,,,79,36
133080,note_on,60,0,4,,,,,,,,,3,,,65,0
133080,note_on,0,0,1,,,,,,,,,0,,,76,36
133080,note_on,2160,0,3,,,,,,,,,2,,,60,62
133080,note_on,60,0,1,,,,,,,,,0,,,79,0
133140,note_on,60,0,1,,,,,,,,,0,,,76,0
133140,note_on,60,0,3,,,,,,,,,2,,,60,0
133140,note_on,0,0,3,,,,,,,,,2,,,64,62
133140,note_on,0,0,1,,,,,,,,,0,,,79,36
133200,note_on,60,0,3,,,,,,,,,2,,,64,0
133200,note_on,0,0,3,,,,,,,,,2,,,59,62
133200,note_on,0,0,1,,,,,,,,,0,,,74,36
133200,note_on,60,0,1,,,,,,,,,0,,,79,0
133260,note_on,0,0,3,,,,,,,,,2,,,64,62
133260,note_on,60,0,3,,,,,,,,,2,,,59,0
133260,note_on,60,0,1,,,,,,,,,0,,,74,0
133260,note_on,0,0,1,,,,,,,,,0,,,80,36
133320,note_on,0,0,3,,,,,,,,,2,,,57,62
133320,note_on,0,0,1,,,,,,,,,0,,,72,49
133320,note_on,60,0,1,,,,,,,,,0,,,80,0
133320,note_on,60,0,3,,,,,,,,,2,,,64,0
133380,note_on,0,0,1,,,,,,,,,0,,,81,49
133380,note_on,60,0,1,,,,,,,,,0,,,72,0
133380,note_on,0,0,3,,,,,,,,,2,,,64,62
133380,note_on,60,0,3,,,,,,,,,2,,,57,0
133440,note_on,60,0,1,,,,,,,,,0,,,81,0
133440,note_on,0,0,3,,,,,,,,,2,,,53,49
133440,note_on,60,0,3,,,,,,,,,2,,,64,0
133440,note_on,0,0,1,,,,,,,,,0,,,81,62
133500,note_on,0,0,1,,,,,,,,,0,,,86,62
133500,note_on,0,0,3,,,,,,,,,2,,,62,49
133500,note_on,60,0,1,,,,,,,,,0,,,81,0
133500,note_on,60,0,3,,,,,,,,,2,,,53,0
133560,note_on,60,0,3,,,,,,,,,2,,,62,0
133560,note_on,60,0,1,,,,,,,,,0,,,86,0
133560,note_on,0,0,1,,,,,,,,,0,,,83,75
133560,note_on,0,0,3,,,,,,,,,2,,,55,62
133620,note_on,0,0,3,,,,,,,,,2,,,64,62
133620,note_on,60,0,1,,,,,,,,,0,,,83,0
133620,note_on,60,0,3,,,,,,,,,2,,,55,0
133620,note_on,0,0,1,,,,,,,,,0,,,88,75
133680,note_on,0,0,1,,,,,,,,,0,,,83,88
133680,note_on,60,0,1,,,,,,,,,0,,,88,0
133680,note_on,60,0,3,,,,,,,,,2,,,64,0
133680,note_on,0,0,3,,,,,,,,,2,,,55,75
133740,note_on,0,0,3,,,,,,,,,2,,,65,75
133740,note_on,0,0,1,,,,,,,,,0,,,91,88
133740,note_on,60,0,1,,,,,,,,,0,,,83,0
133740,note_on,60,0,3,,,,,,,,,2,,,55,0
133800,note_on,0,0,3,,,,,,,,,2,,,64,75
133800,time_signature,9720,1,0,2,4,24,8,,,,,,,,,
133800,note_on,60,0,1,,,,,,,,,0,,,91,0
133800,note_on,0,0,1,,,,,,,,,0,,,84,88
133800,note_on,0,0,3,,,,,,,,,2,,,60,75
133800,note_on,60,0,3,,,,,,,,,2,,,65,0
133920,note_on,120,0,1,,,,,,,,,0,,,84,0
133920,note_on,0,0,3,,,,,,,,,2,,,60,0
133920,note_on,120,0,3,,,,,,,,,2,,,64,0
134040,note_on,120,0,1,,,,,,,,,0,,,72,49
134040,time_signature,240,1,0,1,4,24,8,,,,,,,,,
134100,note_on,0,0,1,,,,,,,,,0,,,72,49
134100,note_on,60,0,1,,,,,,,,,0,,,72,0
134160,time_signature,120,1,0,3,4,24,8,,,,,,,,,
134160,note_on,60,0,1,,,,,,,,,0,,,72,0
134160,note_on,0,0,1,,,,,,,,,0,,,70,49
134160,note_on,0,0,1,,,,,,,,,0,,,73,49
134160,control_change,0,0,1,,,,,,,,,0,64,127,,
134280,note_on,360,0,3,,,,,,,,,2,,,60,36
134400,note_on,0,0,1,,,,,,,,,0,,,68,49
134400,note_on,0,0,1,,,,,,,,,0,,,70,0
134400,note_on,0,0,1,,,,,,,,,0,,,72,49
134400,note_on,240,0,1,,,,,,,,,0,,,73,0
134460,note_on,0,0,1,,,,,,,,,0,,,68,49
134460,note_on,0,0,1,,,,,,,,,0,,,68,0
134460,note_on,60,0,1,,,,,,,,,0,,,72,0
134460,note_on,0,0,1,,,,,,,,,0,,,72,49
134460,control_change,0,0,1,,,,,,,,,0,64,0,,
134520,note_on,60,0,1,,,,,,,,,0,,,72,0
134520,note_on,0,0,1,,,,,,,,,0,,,68,0
134520,note_on,0,0,1,,,,,,,,,0,,,67,49
134520,note_on,0,0,1,,,,,,,,,0,,,70,49
134640,note_on,360,0,3,,,,,,,,,2,,,60,0
134640,note_on,0,0,3,,,,,,,,,2,,,60,36
134760,note_on,240,0,1,,,,,,,,,0,,,70,0
134760,note_on,0,0,1,,,,,,,,,0,,,65,49
134760,note_on,0,0,1,,,,,,,,,0,,,68,49
134760,note_on,0,0,1,,,,,,,,,0,,,67,0
134820,note_on,60,0,1,,,,,,,,,0,,,68,0
134820,note_on,0,0,1,,,,,,,,,0,,,65,0
134820,note_on,0,0,1,,,,,,,,,0,,,65,49
134820,note_on,0,0,1,,,,,,,,,0,,,68,49
134880,note_on,60,0,1,,,,,,,,,0,,,68,0
134880,note_on,0,0,1,,,,,,,,,0,,,65,0
134880,note_on,0,0,1,,,,,,,,,0,,,64,49
134880,note_on,0,0,1,,,,,,,,,0,,,67,49
135000,note_on,0,0,1,,,,,,,,,0,,,67,49
135000,note_on,0,0,1,,,,,,,,,0,,,64,0
135000,note_on,0,0,3,,,,,,,,,2,,,61,36
135000,note_on,120,0,1,,,,,,,,,0,,,67,0
135000,note_on,0,0,1,,,,,,,,,0,,,64,49
135000,note_on,360,0,3,,,,,,,,,2,,,60,0
135012,note_on,12,0,1,,,,,,,,,0,,,67,0
135012,note_on,0,0,1,,,,,,,,,0,,,64,0
135012,note_on,12,0,3,,,,,,,,,2,,,61,0
135120,note_on,108,0,1,,,,,,,,,0,,,65,49
135120,note_on,0,0,1,,,,,,,,,0,,,68,49
135120,note_on,108,0,3,,,,,,,,,2,,,59,36
135132,note_on,12,0,3,,,,,,,,,2,,,59,0
135132,note_on,0,0,1,,,,,,,,,0,,,65,0
135132,note_on,12,0,1,,,,,,,,,0,,,68,0
135240,note_on,0,0,1,,,,,,,,,0,,,67,49
135240,note_on,108,0,1,,,,,,,,,0,,,64,49
135240,note_on,108,0,3,,,,,,,,,2,,,60,36
135300,note_on,60,0,3,,,,,,,,,2,,,60,0
135360,note_on,60,0,3,,,,,,,,,2,,,48,36
135480,note_on,240,0,1,,,,,,,,,0,,,67,0
135480,note_on,0,0,1,,,,,,,,,0,,,60,36
135480,note_on,0,0,1,,,,,,,,,0,,,64,0
135540,note_on,60,0,1,,,,,,,,,0,,,60,0
135540,note_on,0,0,1,,,,,,,,,0,,,60,36
135600,note_on,60,0,1,,,,,,,,,0,,,60,0
135600,note_on,0,0,1,,,,,,,,,0,,,58,36
135600,note_on,0,0,1,,,,,,,,,0,,,61,36
135720,note_on,360,0,3,,,,,,,,,2,,,48,0
135720,note_on,0,0,3,,,,,,,,,2,,,48,36
135840,note_on,0,0,1,,,,,,,,,0,,,58,0
135840,note_on,0,0,1,,,,,,,,,0,,,56,36
135840,note_on,240,0,1,,,,,,,,,0,,,61,0
135840,note_on,0,0,1,,,,,,,,,0,,,60,36
135900,note_on,0,0,1,,,,,,,,,0,,,56,36
135900,note_on,0,0,1,,,,,,,,,0,,,60,36
135900,note_on,60,0,1,,,,,,,,,0,,,60,0
135900,note_on,0,0,1,,,,,,,,,0,,,56,0
135960,note_on,60,0,1,,,,,,,,,0,,,60,0
135960,note_on,0,0,1,,,,,,,,,0,,,56,0
135960,note_on,0,0,1,,,,,,,,,0,,,58,36
135960,control_change,0,0,1,,,,,,,,,0,64,127,,
135960,note_on,0,0,1,,,,,,,,,0,,,55,36
136080,note_on,360,0,3,,,,,,,,,2,,,48,0
136080,note_on,0,0,3,,,,,,,,,2,,,48,36
136200,note_on,0,0,1,,,,,,,,,0,,,55,0
136200,note_on,0,0,1,,,,,,,,,0,,,53,36
136200,note_on,0,0,1,,,,,,,,,0,,,56,36
136200,note_on,240,0,1,,,,,,,,,0,,,58,0
136260,note_on,60,0,1,,,,,,,,,0,,,56,0
136260,control_change,0,0,1,,,,,,,,,0,64,0,,
136260,note_on,0,0,1,,,,,,,,,0,,,56,36
136260,note_on,0,0,1,,,,,,,,,0,,,53,36
136260,note_on,0,0,1,,,,,,,,,0,,,53,0
136320,note_on,0,0,1,,,,,,,,,0,,,55,36
136320,note_on,0,0,1,,,,,,,,,0,,,52,36
136320,note_on,0,0,1,,,,,,,,,0,,,53,0
136320,note_on,60,0,1,,,,,,,,,0,,,56,0
136440,note_on,120,0,1,,,,,,,,,0,,,55,0
136440,note_on,0,0,1,,,,,,,,,0,,,55,36
136440,note_on,0,0,1,,,,,,,,,0,,,52,36
136440,note_on,360,0,3,,,,,,,,,2,,,48,0
136440,note_on,0,0,3,,,,,,,,,2,,,49,36
136440,note_on,0,0,1,,,,,,,,,0,,,52,0
136452,note_on,12,0,1,,,,,,,,,0,,,55,0
136452,note_on,0,0,1,,,,,,,,,0,,,52,0
136452,note_on,12,0,3,,,,,,,,,2,,,49,0
136560,note_on,0,0,1,,,,,,,,,0,,,56,36
136560,note_on,108,0,1,,,,,,,,,0,,,53,36
136560,note_on,108,0,3,,,,,,,,,2,,,47,36
136572,note_on,0,0,1,,,,,,,,,0,,,53,0
136572,note_on,12,0,1,,,,,,,,,0,,,56,0
136572,note_on,12,0,3,,,,,,,,,2,,,47,0
136680,note_on,0,0,3,,,,,,,,,2,,,48,36
136680,note_on,0,0,1,,,,,,,,,0,,,55,36
136680,time_signature,2520,1,0,2,4,24,8,,,,,,,,,
136680,note_on,108,0,1,,,,,,,,,0,,,52,36
136680,control_change,108,0,3,,,,,,,,,2,64,127,,
136692,note_on,12,0,3,,,,,,,,,2,,,48,0
136800,note_on,108,0,3,,,,,,,,,2,,,36,36
136812,note_on,12,0,3,,,,,,,,,2,,,36,0
136920,note_on,0,0,3,,,,,,,,,2,,,60,101
136920,note_on,0,0,1,,,,,,,,,0,,,52,0
136920,note_on,0,0,3,,,,,,,,,2,,,48,101
136920,control_change,108,0,3,,,,,,,,,2,64,0,,
136920,time_signature,240,1,0,1,4,24,8,,,,,,,,,
136920,note_on,240,0,1,,,,,,,,,0,,,55,0
136980,note_on,0,0,3,,,,,,,,,2,,,60,101
136980,note_on,0,0,3,,,,,,,,,2,,,48,101
136980,note_on,0,0,3,,,,,,,,,2,,,48,0
136980,note_on,60,0,3,,,,,,,,,2,,,60,0
137040,note_on,60,0,3,,,,,,,,,2,,,60,0
137040,control_change,0,0,3,,,,,,,,,2,64,127,,
137040,note_on,0,0,3,,,,,,,,,2,,,49,101
137040,note_on,0,0,3,,,,,,,,,2,,,61,101
137040,note_on,0,0,3,,,,,,,,,2,,,48,0
137040,time_signature,120,1,0,3,4,24,8,,,,,,,,,
137160,note_on,0,0,1,,,,,,,,,0,,,75,88
137160,note_on,0,0,1,,,,,,,,,0,,,67,88
137160,note_on,240,0,1,,,,,,,,,0,,,63,88
137160,note_on,0,0,1,,,,,,,,,0,,,70,88
137280,note_on,0,0,3,,,,,,,,,2,,,60,101
137280,note_on,240,0,3,,,,,,,,,2,,,61,0
137280,note_on,0,0,3,,,,,,,,,2,,,49,0
137280,note_on,0,0,3,,,,,,,,,2,,,48,101
137340,control_change,0,0,3,,,,,,,,,2,64,0,,
137340,note_on,0,0,3,,,,,,,,,2,,,48,0
137340,note_on,60,0,3,,,,,,,,,2,,,60,0
137340,note_on,0,0,3,,,,,,,,,2,,,60,101
137340,note_on,0,0,3,,,,,,,,,2,,,48,101
137400,note_on,60,0,3,,,,,,,,,2,,,60,0
137400,note_on,0,0,3,,,,,,,,,2,,,48,0
137400,control_change,0,0,3,,,,,,,,,2,64,127,,
137400,note_on,0,0,3,,,,,,,,,2,,,49,101
137400,note_on,0,0,3,,,,,,,,,2,,,61,101
137520,note_on,0,0,1,,,,,,,,,0,,,75,88
137520,note_on,0,0,1,,,,,,,,,0,,,70,0
137520,note_on,0,0,1,,,,,,,,,0,,,67,88
137520,note_on,0,0,1,,,,,,,,,0,,,63,88
137520,note_on,0,0,1,,,,,,,,,0,,,67,0
137520,note_on,0,0,1,,,,,,,,,0,,,63,0
137520,note_on,360,0,1,,,,,,,,,0,,,75,0
137520,note_on,0,0,1,,,,,,,,,0,,,70,88
137640,note_on,240,0,3,,,,,,,,,2,,,61,0
137640,note_on,0,0,3,,,,,,,,,2,,,49,0
137640,note_on,0,0,3,,,,,,,,,2,,,48,101
137640,note_on,0,0,3,,,,,,,,,2,,,60,101
137700,note_on,60,0,3,,,,,,,,,2,,,60,0
137700,note_on,0,0,3,,,,,,,,,2,,,48,0
137700,control_change,0,0,3,,,,,,,,,2,64,0,,
137700,note_on,0,0,3,,,,,,,,,2,,,60,101
137700,note_on,0,0,3,,,,,,,,,2,,,48,101
137760,note_on,0,0,3,,,,,,,,,2,,,48,0
137760,note_on,0,0,3,,,,,,,,,2,,,61,101
137760,note_on,0,0,3,,,,,,,,,2,,,49,101
137760,control_change,0,0,3,,,,,,,,,2,64,127,,
137760,note_on,60,0,3,,,,,,,,,2,,,60,0
137772,note_on,0,0,3,,,,,,,,,2,,,49,0
137772,note_on,12,0,3,,,,,,,,,2,,,61,0
137880,note_on,0,0,1,,,,,,,,,0,,,70,0
137880,note_on,0,0,1,,,,,,,,,0,,,63,88
137880,control_change,0,0,1,,,,,,,,,0,64,127,,
137880,note_on,0,0,1,,,,,,,,,0,,,70,88
137880,note_on,0,0,1,,,,,,,,,0,,,67,88
137880,note_on,360,0,1,,,,,,,,,0,,,75,0
137880,note_on,0,0,3,,,,,,,,,2,,,58,101
137880,note_on,0,0,1,,,,,,,,,0,,,75,88
137880,note_on,108,0,3,,,,,,,,,2,,,46,101
137880,note_on,0,0,1,,,,,,,,,0,,,67,0
137880,note_on,0,0,1,,,,,,,,,0,,,63,0
137892,note_on,12,0,3,,,,,,,,,2,,,58,0
137892,note_on,0,0,3,,,,,,,,,2,,,46,0
137892,note_on,12,0,1,,,,,,,,,0,,,75,0
137892,note_on,0,0,1,,,,,,,,,0,,,70,0
137892,note_on,0,0,1,,,,,,,,,0,,,63,0
137892,note_on,0,0,1,,,,,,,,,0,,,67,0
138000,note_on,108,0,3,,,,,,,,,2,,,43,101
138000,note_on,0,0,3,,,,,,,,,2,,,55,101
138000,note_on,0,0,1,,,,,,,,,0,,,75,88
138000,note_on,0,0,1,,,,,,,,,0,,,70,88
138000,note_on,0,0,1,,,,,,,,,0,,,67,88
138000,note_on,108,0,1,,,,,,,,,0,,,63,88
138012,note_on,0,0,1,,,,,,,,,0,,,67,0
138012,note_on,0,0,1,,,,,,,,,0,,,63,0
138012,note_on,12,0,1,,,,,,,,,0,,,75,0
138012,note_on,12,0,3,,,,,,,,,2,,,55,0
138012,note_on,0,0,3,,,,,,,,,2,,,43,0
138012,note_on,0,0,1,,,,,,,,,0,,,70,0
138120,note_on,108,0,1,,,,,,,,,0,,,63,101
138120,note_on,0,0,1,,,,,,,,,0,,,75,101
138120,note_on,0,0,1,,,,,,,,,0,,,70,101
138120,note_on,0,0,1,,,,,,,,,0,,,67,101
138120,note_on,0,0,3,,,,,,,,,2,,,51,88
138120,note_on,108,0,3,,,,,,,,,2,,,39,88
138132,note_on,0,0,1,,,,,,,,,0,,,63,0
138132,note_on,0,0,3,,,,,,,,,2,,,39,0
138132,note_on,0,0,1,,,,,,,,,0,,,67,0
138132,note_on,12,0,3,,,,,,,,,2,,,51,0
138132,note_on,0,0,1,,,,,,,,,0,,,70,0
138132,note_on,12,0,1,,,,,,,,,0,,,75,0
138240,note_on,108,0,3,,,,,,,,,2,,,37,88
138240,note_on,0,0,3,,,,,,,,,2,,,49,88
138240,note_on,108,0,1,,,,,,,,,0,,,70,101
138240,note_on,0,0,1,,,,,,,,,0,,,75,101
138240,note_on,0,0,1,,,,,,,,,0,,,79,101
138252,note_on,12,0,1,,,,,,,,,0,,,79,0
138252,note_on,0,0,1,,,,,,,,,0,,,75,0
138252,note_on,0,0,1,,,,,,,,,0,,,70,0
138252,note_on,12,0,3,,,,,,,,,2,,,49,0
138252,note_on,0,0,3,,,,,,,,,2,,,37,0
138360,note_on,0,0,1,,,,,,,,,0,,,82,101
138360,note_on,108,0,3,,,,,,,,,2,,,34,88
138360,note_on,0,0,3,,,,,,,,,2,,,46,88
138360,note_on,0,0,1,,,,,,,,,0,,,79,101
138360,note_on,108,0,1,,,,,,,,,0,,,75,101
138372,note_on,0,0,1,,,,,,,,,0,,,75,0
138372,note_on,0,0,1,,,,,,,,,0,,,79,0
138372,note_on,12,0,1,,,,,,,,,0,,,82,0
138372,note_on,0,0,3,,,,,,,,,2,,,34,0
138372,note_on,12,0,3,,,,,,,,,2,,,46,0
138480,note_on,0,0,3,,,,,,,,,2,,,43,101
138480,note_on,108,0,1,,,,,,,,,0,,,75,114
138480,note_on,0,0,1,,,,,,,,,0,,,82,114
138480,note_on,0,0,1,,,,,,,,,0,,,85,114
138480,note_on,108,0,3,,,,,,,,,2,,,31,101
138492,note_on,12,0,3,,,,,,,,,2,,,43,0
138492,note_on,0,0,3,,,,,,,,,2,,,31,0
138492,note_on,12,0,1,,,,,,,,,0,,,85,0
138492,note_on,0,0,1,,,,,,,,,0,,,82,0
138492,note_on,0,0,1,,,,,,,,,0,,,75,0
138720,control_change,228,0,1,,,,,,,,,0,64,0,,
138720,control_change,228,0,3,,,,,,,,,2,64,0,,
139080,note_on,360,0,1,,,,,,,,,0,,,63,49
139140,note_on,0,0,1,,,,,,,,,0,,,63,49
139140,note_on,60,0,1,,,,,,,,,0,,,63,0
139200,note_on,0,0,2,,,,,,,,,1,,,72,49
139200,note_on,7560,0,2,,,,,,,,,1,,,68,49
139320,note_on,0,0,3,,,,,,,,,2,,,44,36
139320,control_change,600,0,3,,,,,,,,,2,64,127,,
139380,note_on,60,0,3,,,,,,,,,2,,,44,0
139380,note_on,0,0,3,,,,,,,,,2,,,44,36
139440,note_on,240,0,2,,,,,,,,,1,,,72,0
139440,note_on,0,0,2,,,,,,,,,1,,,68,0
139440,note_on,0,0,2,,,,,,,,,1,,,67,49
139440,note_on,0,0,2,,,,,,,,,1,,,70,49
139440,note_on,60,0,3,,,,,,,,,2,,,44,0
139440,control_change,0,0,3,,,,,,,,,2,64,0,,
139440,note_on,0,0,3,,,,,,,,,2,,,51,36
139452,note_on,12,0,3,,,,,,,,,2,,,51,0
139560,note_on,0,0,1,,,,,,,,,0,,,63,49
139560,note_on,0,0,2,,,,,,,,,1,,,72,49
139560,note_on,0,0,2,,,,,,,,,1,,,68,49
139560,note_on,0,0,2,,,,,,,,,1,,,67,0
139560,note_on,120,0,2,,,,,,,,,1,,,70,0
139560,note_on,420,0,1,,,,,,,,,0,,,63,0
139680,control_change,228,0,3,,,,,,,,,2,64,127,,
139680,note_on,0,0,3,,,,,,,,,2,,,44,36
139740,note_on,60,0,3,,,,,,,,,2,,,44,0
139740,note_on,0,0,3,,,,,,,,,2,,,44,36
139800,note_on,0,0,2,,,,,,,,,1,,,68,0
139800,note_on,0,0,2,,,,,,,,,1,,,67,49
139800,note_on,0,0,2,,,,,,,,,1,,,70,49
139800,note_on,240,0,2,,,,,,,,,1,,,72,0
139800,note_on,60,0,3,,,,,,,,,2,,,44,0
139800,control_change,0,0,3,,,,,,,,,2,64,0,,
139800,note_on,0,0,3,,,,,,,,,2,,,51,36
139812,note_on,12,0,3,,,,,,,,,2,,,51,0
139920,note_on,120,0,2,,,,,,,,,1,,,70,0
139920,note_on,108,0,3,,,,,,,,,2,,,46,36
139920,note_on,0,0,2,,,,,,,,,1,,,67,0
139920,note_on,0,0,1,,,,,,,,,0,,,73,49
139920,note_on,0,0,1,,,,,,,,,0,,,70,49
139920,note_on,0,0,1,,,,,,,,,0,,,65,49
139920,note_on,360,0,1,,,,,,,,,0,,,63,0
139932,note_on,12,0,3,,,,,,,,,2,,,46,0
139932,note_on,12,0,1,,,,,,,,,0,,,73,0
139932,note_on,0,0,1,,,,,,,,,0,,,70,0
139932,note_on,0,0,1,,,,,,,,,0,,,65,0
140040,note_on,0,0,1,,,,,,,,,0,,,73,49
140040,note_on,108,0,3,,,,,,,,,2,,,49,36
140040,note_on,0,0,1,,,,,,,,,0,,,70,49
140040,note_on,108,0,1,,,,,,,,,0,,,65,49
140052,note_on,12,0,3,,,,,,,,,2,,,49,0
140052,note_on,12,0,1,,,,,,,,,0,,,73,0
140052,note_on,0,0,1,,,,,,,,,0,,,70,0
140052,note_on,0,0,1,,,,,,,,,0,,,65,0
140160,note_on,108,0,3,,,,,,,,,2,,,53,36
140160,note_on,0,0,1,,,,,,,,,0,,,72,49
140160,note_on,108,0,1,,,,,,,,,0,,,65,49
140160,note_on,0,0,1,,,,,,,,,0,,,69,49
140172,note_on,12,0,3,,,,,,,,,2,,,53,0
140172,note_on,0,0,1,,,,,,,,,0,,,65,0
140172,note_on,0,0,1,,,,,,,,,0,,,69,0
140172,note_on,12,0,1,,,,,,,,,0,,,72,0
140280,note_on,360,0,2,,,,,,,,,1,,,65,49
140280,note_on,108,0,1,,,,,,,,,0,,,70,49
140280,note_on,0,0,1,,,,,,,,,0,,,73,49
140400,control_change,228,0,3,,,,,,,,,2,64,127,,
140400,note_on,0,0,3,,,,,,,,,2,,,46,36
140460,note_on,0,0,3,,,,,,,,,2,,,46,36
140460,note_on,60,0,3,,,,,,,,,2,,,46,0
140520,note_on,60,0,3,,,,,,,,,2,,,46,0
140520,note_on,240,0,1,,,,,,,,,0,,,73,0
140520,note_on,0,0,1,,,,,,,,,0,,,70,0
140520,note_on,0,0,1,,,,,,,,,0,,,69,49
140520,note_on,0,0,1,,,,,,,,,0,,,72,49
140520,note_on,0,0,3,,,,,,,,,2,,,53,36
140520,control_change,0,0,3,,,,,,,,,2,64,0,,
140532,note_on,12,0,3,,,,,,,,,2,,,53,0
140640,note_on,0,0,1,,,,,,,,,0,,,73,49
140640,note_on,0,0,2,,,,,,,,,1,,,68,49
140640,note_on,360,0,2,,,,,,,,,1,,,65,0
140640,note_on,0,0,1,,,,,,,,,0,,,77,49
140640,note_on,120,0,1,,,,,,,,,0,,,72,0
140640,note_on,0,0,1,,,,,,,,,0,,,69,0
140760,control_change,228,0,3,,,,,,,,,2,64,127,,
140760,note_on,0,0,3,,,,,,,,,2,,,49,36
140820,note_on,60,0,3,,,,,,,,,2,,,49,0
140820,note_on,0,0,3,,,,,,,,,2,,,49,36
140880,note_on,0,0,1,,,,,,,,,0,,,75,49
140880,note_on,0,0,1,,,,,,,,,0,,,72,49
140880,note_on,0,0,1,,,,,,,,,0,,,73,0
140880,note_on,240,0,1,,,,,,,,,0,,,77,0
140880,control_change,0,0,3,,,,,,,,,2,64,0,,
140880,note_on,60,0,3,,,,,,,,,2,,,49,0
140880,note_on,0,0,3,,,,,,,,,2,,,56,36
140892,note_on,12,0,3,,,,,,,,,2,,,56,0
141000,note_on,0,0,1,,,,,,,,,0,,,73,49
141000,note_on,360,0,2,,,,,,,,,1,,,68,0
141000,note_on,0,0,2,,,,,,,,,1,,,68,49
141000,note_on,120,0,1,,,,,,,,,0,,,75,0
141000,note_on,0,0,1,,,,,,,,,0,,,72,0
141000,note_on,0,0,1,,,,,,,,,0,,,77,49
141120,note_on,0,0,3,,,,,,,,,2,,,49,36
141120,control_change,228,0,3,,,,,,,,,2,64,127,,
141180,note_on,0,0,3,,,,,,,,,2,,,49,36
141180,note_on,60,0,3,,,,,,,,,2,,,49,0
141240,note_on,240,0,1,,,,,,,,,0,,,77,0
141240,note_on,0,0,1,,,,,,,,,0,,,73,0
141240,note_on,0,0,1,,,,,,,,,0,,,75,49
141240,note_on,0,0,1,,,,,,,,,0,,,72,49
141240,note_on,60,0,3,,,,,,,,,2,,,49,0
141240,control_change,0,0,3,,,,,,,,,2,64,0,,
141240,note_on,0,0,3,,,,,,,,,2,,,56,36
141252,note_on,12,0,3,,,,,,,,,2,,,56,0
141360,note_on,0,0,1,,,,,,,,,0,,,72,0
141360,note_on,0,0,1,,,,,,,,,0,,,68,49
141360,note_on,0,0,1,,,,,,,,,0,,,73,49
141360,note_on,0,0,1,,,,,,,,,0,,,77,49
141360,note_on,360,0,2,,,,,,,,,1,,,68,0
141360,note_on,120,0,1,,,,,,,,,0,,,75,0
141372,note_on,12,0,1,,,,,,,,,0,,,77,0
141372,note_on,0,0,1,,,,,,,,,0,,,73,0
141372,note_on,0,0,1,,,,,,,,,0,,,68,0
141480,note_on,0,0,1,,,,,,,,,0,,,77,49
141480,note_on,108,0,1,,,,,,,,,0,,,68,49
141480,note_on,0,0,1,,,,,,,,,0,,,73,49
141480,note_on,228,0,3,,,,,,,,,2,,,49,36
141492,note_on,0,0,1,,,,,,,,,0,,,73,0
141492,note_on,12,0,3,,,,,,,,,2,,,49,0
141492,note_on,0,0,1,,,,,,,,,0,,,68,0
141492,note_on,12,0,1,,,,,,,,,0,,,77,0
141600,note_on,108,0,1,,,,,,,,,0,,,70,49
141600,note_on,108,0,3,,,,,,,,,2,,,61,36
141600,note_on,0,0,1,,,,,,,,,0,,,79,49
141600,note_on,0,0,1,,,,,,,,,0,,,75,49
141600,note_on,0,0,3,,,,,,,,,2,,,63,36
141612,note_on,0,0,1,,,,,,,,,0,,,70,0
141612,note_on,0,0,1,,,,,,,,,0,,,75,0
141612,note_on,12,0,1,,,,,,,,,0,,,79,0
141612,note_on,0,0,3,,,,,,,,,2,,,61,0
141612,note_on,12,0,3,,,,,,,,,2,,,63,0
141720,note_on,0,0,1,,,,,,,,,0,,,80,62
141720,note_on,0,0,1,,,,,,,,,0,,,75,62
141720,note_on,108,0,1,,,,,,,,,0,,,68,62
141840,control_change,228,0,3,,,,,,,,,2,64,127,,
141840,note_on,0,0,3,,,,,,,,,2,,,60,49
141840,note_on,0,0,3,,,,,,,,,2,,,63,49
141900,note_on,60,0,3,,,,,,,,,2,,,63,0
141900,note_on,0,0,3,,,,,,,,,2,,,60,49
141900,note_on,0,0,3,,,,,,,,,2,,,60,0
141900,note_on,0,0,3,,,,,,,,,2,,,63,49
141960,note_on,0,0,1,,,,,,,,,0,,,75,0
141960,note_on,0,0,1,,,,,,,,,0,,,68,0
141960,note_on,0,0,1,,,,,,,,,0,,,70,62
141960,note_on,0,0,1,,,,,,,,,0,,,75,62
141960,note_on,0,0,1,,,,,,,,,0,,,79,62
141960,note_on,240,0,1,,,,,,,,,0,,,80,0
141960,note_on,60,0,3,,,,,,,,,2,,,63,0
141960,note_on,0,0,3,,,,,,,,,2,,,63,49
141960,note_on,0,0,3,,,,,,,,,2,,,61,49
141960,control_change,0,0,3,,,,,,,,,2,64,0,,
141960,note_on,0,0,3,,,,,,,,,2,,,60,0
141972,note_on,0,0,3,,,,,,,,,2,,,61,0
141972,note_on,12,0,3,,,,,,,,,2,,,63,0
142080,note_on,0,0,1,,,,,,,,,0,,,70,0
142080,note_on,0,0,1,,,,,,,,,0,,,75,0
142080,note_on,120,0,1,,,,,,,,,0,,,79,0
142080,note_on,0,0,1,,,,,,,,,0,,,75,96
142080,note_on,0,0,1,,,,,,,,,0,,,68,91
142080,note_on,0,0,1,,,,,,,,,0,,,80,101
142200,note_on,0,0,3,,,,,,,,,2,,,60,62
142200,note_on,0,0,3,,,,,,,,,2,,,63,62
142200,control_change,228,0,3,,,,,,,,,2,64,127,,
142260,note_on,0,0,3,,,,,,,,,2,,,60,62
142260,note_on,60,0,3,,,,,,,,,2,,,63,0
142260,note_on,0,0,3,,,,,,,,,2,,,60,0
142260,note_on,0,0,3,,,,,,,,,2,,,63,62
142320,note_on,60,0,3,,,,,,,,,2,,,63,0
142320,note_on,0,0,3,,,,,,,,,2,,,60,0
142320,control_change,0,0,3,,,,,,,,,2,64,0,,
142320,note_on,0,0,3,,,,,,,,,2,,,61,62
142320,note_on,0,0,3,,,,,,,,,2,,,63,62
142320,note_on,240,0,1,,,,,,,,,0,,,80,0
142320,note_on,0,0,1,,,,,,,,,0,,,75,0
142320,note_on,0,0,1,,,,,,,,,0,,,68,0
142320,note_on,0,0,1,,,,,,,,,0,,,70,75
142320,note_on,0,0,1,,,,,,,,,0,,,75,75
142320,note_on,0,0,1,,,,,,,,,0,,,79,75
142332,note_on,0,0,3,,,,,,,,,2,,,61,0
142332,note_on,12,0,3,,,,,,,,,2,,,63,0
142440,note_on,120,0,1,,,,,,,,,0,,,79,0
142440,note_on,0,0,1,,,,,,,,,0,,,75,0
142440,note_on,0,0,1,,,,,,,,,0,,,70,0
142440,note_on,0,0,1,,,,,,,,,0,,,75,109
142440,note_on,0,0,1,,,,,,,,,0,,,80,114
142440,note_on,0,0,1,,,,,,,,,0,,,68,104
142452,note_on,12,0,1,,,,,,,,,0,,,80,0
142452,note_on,0,0,1,,,,,,,,,0,,,75,0
142452,note_on,0,0,1,,,,,,,,,0,,,68,0
142560,note_on,0,0,3,,,,,,,,,2,,,63,101
142560,note_on,0,0,1,,,,,,,,,0,,,80,114
142560,note_on,228,0,3,,,,,,,,,2,,,60,93
142560,note_on,0,0,1,,,,,,,,,0,,,75,109
142560,note_on,108,0,1,,,,,,,,,0,,,68,104
142572,note_on,0,0,1,,,,,,,,,0,,,68,0
142572,note_on,0,0,1,,,,,,,,,0,,,75,0
142572,note_on,12,0,1,,,,,,,,,0,,,80,0
142572,note_on,0,0,3,,,,,,,,,2,,,60,0
142572,note_on,12,0,3,,,,,,,,,2,,,63,0
142680,note_on,0,0,1,,,,,,,,,0,,,82,114
142680,note_on,0,0,1,,,,,,,,,0,,,75,109
142680,note_on,108,0,1,,,,,,,,,0,,,70,104
142680,note_on,108,0,3,,,,,,,,,2,,,58,93
142680,note_on,0,0,3,,,,,,,,,2,,,63,101
142692,note_on,12,0,3,,,,,,,,,2,,,63,0
142692,note_on,0,0,3,,,,,,,,,2,,,58,0
142692,note_on,0,0,1,,,,,,,,,0,,,70,0
142692,note_on,12,0,1,,,,,,,,,0,,,82,0
142692,note_on,0,0,1,,,,,,,,,0,,,75,0
142800,note_on,0,0,1,,,,,,,,,0,,,75,109
142800,note_on,108,0,1,,,,,,,,,0,,,72,104
142800,note_on,0,0,1,,,,,,,,,0,,,84,114
142800,note_on,108,0,3,,,,,,,,,2,,,56,93
142800,note_on,0,0,3,,,,,,,,,2,,,63,101
142812,note_on,0,0,3,,,,,,,,,2,,,56,0
142812,note_on,12,0,1,,,,,,,,,0,,,84,0
142812,note_on,0,0,1,,,,,,,,,0,,,75,0
142812,note_on,0,0,1,,,,,,,,,0,,,72,0
142812,note_on,12,0,3,,,,,,,,,2,,,63,0
142920,note_on,0,0,3,,,,,,,,,2,,,61,114
142920,note_on,108,0,1,,,,,,,,,0,,,73,117
142920,note_on,0,0,1,,,,,,,,,0,,,80,122
142920,note_on,0,0,1,,,,,,,,,0,,,85,127
142920,note_on,108,0,3,,,,,,,,,2,,,53,104
142920,note_on,0,0,3,,,,,,,,,2,,,56,109
142932,note_on,12,0,1,,,,,,,,,0,,,85,0
142932,note_on,0,0,1,,,,,,,,,0,,,80,0
142932,note_on,0,0,1,,,,,,,,,0,,,73,0
142932,note_on,12,0,3,,,,,,,,,2,,,61,0
142932,note_on,0,0,3,,,,,,,,,2,,,53,0
142932,note_on,0,0,3,,,,,,,,,2,,,56,0
143040,note_on,108,0,3,,,,,,,,,2,,,51,104
143040,note_on,0,0,3,,,,,,,,,2,,,56,109
143040,note_on,108,0,1,,,,,,,,,0,,,75,117
143040,note_on,0,0,1,,,,,,,,,0,,,80,122
143040,note_on,0,0,1,,,,,,,,,0,,,87,127
143040,note_on,0,0,3,,,,,,,,,2,,,60,114
143052,note_on,12,0,1,,,,,,,,,0,,,87,0
143052,note_on,0,0,3,,,,,,,,,2,,,56,0
143052,note_on,0,0,3,,,,,,,,,2,,,51,0
143052,note_on,12,0,3,,,,,,,,,2,,,60,0
143052,note_on,0,0,1,,,,,,,,,0,,,75,0
143052,note_on,0,0,1,,,,,,,,,0,,,80,0
143160,control_change,108,0,1,,,,,,,,,0,64,127,,
143160,note_on,0,0,1,,,,,,,,,0,,,77,117
143160,note_on,0,0,1,,,,,,,,,0,,,80,122
143160,note_on,0,0,1,,,,,,,,,0,,,89,127
143160,note_on,0,0,3,,,,,,,,,2,,,50,88
143160,control_change,108,0,3,,,,,,,,,2,64,127,,
143160,note_on,0,0,3,,,,,,,,,2,,,59,88
143160,note_on,0,0,3,,,,,,,,,2,,,56,88
143172,note_on,12,0,1,,,,,,,,,0,,,89,0
143172,note_on,0,0,1,,,,,,,,,0,,,80,0
143172,note_on,0,0,1,,,,,,,,,0,,,77,0
143400,note_on,228,0,1,,,,,,,,,0,,,68,101
143460,note_on,0,0,1,,,,,,,,,0,,,68,101
143460,note_on,60,0,1,,,,,,,,,0,,,68,0
143520,note_on,60,0,1,,,,,,,,,0,,,68,0
143520,note_on,0,0,1,,,,,,,,,0,,,71,88
144000,note_on,840,0,3,,,,,,,,,2,,,59,0
144000,note_on,0,0,3,,,,,,,,,2,,,50,0
144000,note_on,0,0,3,,,,,,,,,2,,,56,0
144240,control_change,720,0,1,,,,,,,,,0,64,0,,
144360,note_on,120,0,1,,,,,,,,,0,,,71,0
144480,note_on,0,0,3,,,,,,,,,2,,,51,36
144480,control_change,480,0,3,,,,,,,,,2,64,0,,
144540,note_on,60,0,3,,,,,,,,,2,,,51,0
144540,note_on,0,0,3,,,,,,,,,2,,,51,36
144600,note_on,0,0,3,,,,,,,,,2,,,56,36
144600,note_on,0,0,3,,,,,,,,,2,,,59,36
144600,note_on,60,0,3,,,,,,,,,2,,,51,0
144720,control_change,360,0,1,,,,,,,,,0,64,127,,
144720,note_on,0,0,1,,,,,,,,,0,,,63,49
144780,note_on,60,0,1,,,,,,,,,0,,,63,0
144780,note_on,0,0,1,,,,,,,,,0,,,63,49
144840,note_on,0,0,3,,,,,,,,,2,,,58,36
144840,note_on,0,0,3,,,,,,,,,2,,,56,0
144840,note_on,240,0,3,,,,,,,,,2,,,59,0
144840,note_on,0,0,1,,,,,,,,,0,,,75,49
144840,control_change,0,0,1,,,,,,,,,0,64,0,,
144840,note_on,60,0,1,,,,,,,,,0,,,63,0
144840,note_on,0,0,3,,,,,,,,,2,,,55,36
144960,note_on,0,0,3,,,,,,,,,2,,,59,36
144960,note_on,0,0,3,,,,,,,,,2,,,56,36
144960,note_on,0,0,3,,,,,,,,,2,,,55,0
144960,note_on,120,0,3,,,,,,,,,2,,,58,0
145080,note_on,0,0,1,,,,,,,,,0,,,63,49
145080,note_on,240,0,1,,,,,,,,,0,,,75,0
145140,note_on,60,0,1,,,,,,,,,0,,,63,0
145140,note_on,0,0,1,,,,,,,,,0,,,63,49
145200,note_on,0,0,3,,,,,,,,,2,,,55,36
145200,note_on,0,0,3,,,,,,,,,2,,,58,36
145200,note_on,60,0,1,,,,,,,,,0,,,63,0
145200,note_on,0,0,1,,,,,,,,,0,,,75,49
145200,note_on,0,0,3,,,,,,,,,2,,,56,0
145200,note_on,240,0,3,,,,,,,,,2,,,59,0
145212,note_on,0,0,3,,,,,,,,,2,,,55,0
145212,note_on,12,0,3,,,,,,,,,2,,,58,0
145320,note_on,0,0,3,,,,,,,,,2,,,59,36
145320,control_change,108,0,3,,,,,,,,,2,64,127,,
145320,note_on,0,0,3,,,,,,,,,2,,,56,36
145320,control_change,120,0,1,,,,,,,,,0,64,127,,
145332,note_on,0,0,3,,,,,,,,,2,,,56,0
145332,note_on,12,0,3,,,,,,,,,2,,,59,0
145440,note_on,108,0,3,,,,,,,,,2,,,56,36
145440,note_on,0,0,3,,,,,,,,,2,,,59,36
145440,note_on,120,0,1,,,,,,,,,0,,,75,0
145440,note_on,0,0,1,,,,,,,,,0,,,63,49
145440,note_on,0,0,1,,,,,,,,,0,,,75,49
145452,note_on,12,0,3,,,,,,,,,2,,,59,0
145452,note_on,12,0,1,,,,,,,,,0,,,75,0
145452,note_on,0,0,1,,,,,,,,,0,,,63,0
145452,note_on,0,0,3,,,,,,,,,2,,,56,0
145560,note_on,0,0,1,,,,,,,,,0,,,67,49
145560,note_on,0,0,3,,,,,,,,,2,,,56,36
145560,note_on,0,0,3,,,,,,,,,2,,,58,36
145560,control_change,108,0,3,,,,,,,,,2,64,0,,
145560,note_on,0,0,3,,,,,,,,,2,,,61,36
145560,note_on,0,0,1,,,,,,,,,0,,,79,49
145560,control_change,108,0,1,,,,,,,,,0,64,0,,
145572,note_on,0,0,3,,,,,,,,,2,,,56,0
145572,note_on,0,0,3,,,,,,,,,2,,,58,0
145572,note_on,12,0,3,,,,,,,,,2,,,61,0
145572,note_on,12,0,1,,,,,,,,,0,,,79,0
145572,note_on,0,0,1,,,,,,,,,0,,,67,0
145680,note_on,0,0,3,,,,,,,,,2,,,63,36
145680,control_change,108,0,1,,,,,,,,,0,64,127,,
145680,note_on,0,0,1,,,,,,,,,0,,,68,49
145680,note_on,0,0,1,,,,,,,,,0,,,80,49
145680,control_change,108,0,3,,,,,,,,,2,64,127,,
145680,note_on,0,0,3,,,,,,,,,2,,,56,36
145680,note_on,0,0,3,,,,,,,,,2,,,59,36
145692,note_on,12,0,1,,,,,,,,,0,,,80,0
145692,note_on,0,0,1,,,,,,,,,0,,,68,0
145692,note_on,0,0,3,,,,,,,,,2,,,56,0
145692,note_on,0,0,3,,,,,,,,,2,,,59,0
145692,note_on,12,0,3,,,,,,,,,2,,,63,0
145800,note_on,0,0,3,,,,,,,,,2,,,61,36
145800,note_on,0,0,3,,,,,,,,,2,,,58,36
145800,note_on,108,0,1,,,,,,,,,0,,,70,49
145800,note_on,0,0,1,,,,,,,,,0,,,82,49
145800,note_on,108,0,3,,,,,,,,,2,,,56,36
145812,note_on,12,0,1,,,,,,,,,0,,,82,0
145812,note_on,12,0,3,,,,,,,,,2,,,61,0
145812,note_on,0,0,3,,,,,,,,,2,,,58,0
145812,note_on,0,0,3,,,,,,,,,2,,,56,0
145812,note_on,0,0,1,,,,,,,,,0,,,70,0
145920,control_change,108,0,3,,,,,,,,,2,64,0,,
145920,note_on,0,0,3,,,,,,,,,2,,,59,36
145920,note_on,0,0,1,,,,,,,,,0,,,83,49
145920,note_on,0,0,3,,,,,,,,,2,,,56,36
145920,control_change,108,0,1,,,,,,,,,0,64,0,,
145920,note_on,0,0,1,,,,,,,,,0,,,71,49
145932,note_on,0,0,1,,,,,,,,,0,,,71,0
145932,note_on,12,0,1,,,,,,,,,0,,,83,0
145932,note_on,12,0,3,,,,,,,,,2,,,59,0
145932,note_on,0,0,3,,,,,,,,,2,,,56,0
146040,note_on,0,0,1,,,,,,,,,0,,,85,49
146040,note_on,0,0,1,,,,,,,,,0,,,73,49
146040,control_change,108,0,1,,,,,,,,,0,64,127,,
146040,note_on,0,0,3,,,,,,,,,2,,,56,36
146040,control_change,108,0,3,,,,,,,,,2,64,127,,
146040,note_on,0,0,3,,,,,,,,,2,,,58,36
146040,note_on,0,0,3,,,,,,,,,2,,,61,36
146052,note_on,0,0,1,,,,,,,,,0,,,73,0
146052,note_on,0,0,3,,,,,,,,,2,,,56,0
146052,note_on,0,0,3,,,,,,,,,2,,,58,0
146052,note_on,12,0,3,,,,,,,,,2,,,61,0
146052,note_on,12,0,1,,,,,,,,,0,,,85,0
146160,note_on,0,0,1,,,,,,,,,0,,,87,49
146160,note_on,0,0,3,,,,,,,,,2,,,63,36
146160,note_on,0,0,3,,,,,,,,,2,,,59,36
146160,note_on,0,0,3,,,,,,,,,2,,,56,36
146160,control_change,108,0,3,,,,,,,,,2,64,0,,
146160,note_on,0,0,1,,,,,,,,,0,,,75,49
146160,control_change,108,0,1,,,,,,,,,0,64,0,,
146172,note_on,0,0,1,,,,,,,,,0,,,75,0
146172,note_on,12,0,1,,,,,,,,,0,,,87,0
146172,note_on,0,0,3,,,,,,,,,2,,,56,0
146172,note_on,12,0,3,,,,,,,,,2,,,63,0
146172,note_on,0,0,3,,,,,,,,,2,,,59,0
146280,note_on,0,0,3,,,,,,,,,2,,,61,36
146280,note_on,0,0,3,,,,,,,,,2,,,58,36
146280,note_on,108,0,3,,,,,,,,,2,,,56,36
146280,note_on,108,0,1,,,,,,,,,0,,,76,49
146280,note_on,0,0,1,,,,,,,,,0,,,88,49
146280,note_on,0,0,3,,,,,,,,,2,,,64,36
146292,note_on,12,0,1,,,,,,,,,0,,,88,0
146292,note_on,0,0,1,,,,,,,,,0,,,76,0
146292,note_on,12,0,3,,,,,,,,,2,,,64,0
146292,note_on,0,0,3,,,,,,,,,2,,,56,0
146292,note_on,0,0,3,,,,,,,,,2,,,61,0
146292,note_on,0,0,3,,,,,,,,,2,,,58,0
146400,note_on,108,0,1,,,,,,,,,0,,,75,49
146400,note_on,0,0,1,,,,,,,,,0,,,87,49
146400,control_change,108,0,3,,,,,,,,,2,64,127,,
146400,note_on,0,0,3,,,,,,,,,2,,,56,36
146400,note_on,0,0,3,,,,,,,,,2,,,59,36
146400,note_on,0,0,3,,,,,,,,,2,,,63,36
146640,note_on,0,0,3,,,,,,,,,2,,,59,0
146640,note_on,0,0,3,,,,,,,,,2,,,56,0
146640,note_on,0,0,3,,,,,,,,,2,,,51,36
146640,note_on,240,0,3,,,,,,,,,2,,,63,0
146640,note_on,0,0,1,,,,,,,,,0,,,75,0
146640,note_on,240,0,1,,,,,,,,,0,,,87,0
146700,note_on,60,0,3,,,,,,,,,2,,,51,0
146700,control_change,0,0,3,,,,,,,,,2,64,0,,
146700,note_on,0,0,3,,,,,,,,,2,,,51,36
146760,note_on,60,0,3,,,,,,,,,2,,,51,0
146760,note_on,0,0,3,,,,,,,,,2,,,56,36
146760,note_on,0,0,3,,,,,,,,,2,,,59,36
146880,note_on,240,0,1,,,,,,,,,0,,,63,49
146940,note_on,0,0,1,,,,,,,,,0,,,63,49
146940,note_on,60,0,1,,,,,,,,,0,,,63,0
147000,note_on,60,0,1,,,,,,,,,0,,,63,0
147000,note_on,0,0,1,,,,,,,,,0,,,75,49
147000,note_on,240,0,3,,,,,,,,,2,,,59,0
147000,note_on,0,0,3,,,,,,,,,2,,,56,0
147000,note_on,0,0,3,,,,,,,,,2,,,55,36
147000,note_on,0,0,3,,,,,,,,,2,,,58,36
147120,note_on,120,0,3,,,,,,,,,2,,,58,0
147120,note_on,0,0,3,,,,,,,,,2,,,55,0
147120,note_on,0,0,3,,,,,,,,,2,,,56,36
147120,note_on,0,0,3,,,,,,,,,2,,,59,36
147240,note_on,240,0,1,,,,,,,,,0,,,75,0
147240,note_on,0,0,1,,,,,,,,,0,,,63,49
147300,note_on,60,0,1,,,,,,,,,0,,,63,0
147300,note_on,0,0,1,,,,,,,,,0,,,63,49
147360,note_on,0,0,3,,,,,,,,,2,,,58,36
147360,note_on,60,0,1,,,,,,,,,0,,,63,0
147360,note_on,0,0,1,,,,,,,,,0,,,75,49
147360,note_on,240,0,3,,,,,,,,,2,,,59,0
147360,note_on,0,0,3,,,,,,,,,2,,,56,0
147360,note_on,0,0,3,,,,,,,,,2,,,55,36
147480,note_on,0,0,3,,,,,,,,,2,,,59,36
147480,note_on,0,0,3,,,,,,,,,2,,,56,36
147480,note_on,120,0,3,,,,,,,,,2,,,58,0
147480,note_on,0,0,3,,,,,,,,,2,,,55,0
147600,note_on,240,0,1,,,,,,,,,0,,,75,0
147600,note_on,0,0,1,,,,,,,,,0,,,63,49
147600,note_on,0,0,1,,,,,,,,,0,,,75,49
147600,note_on,0,0,3,,,,,,,,,2,,,56,36
147600,note_on,0,0,3,,,,,,,,,2,,,59,36
147600,note_on,0,0,3,,,,,,,,,2,,,56,0
147600,note_on,120,0,3,,,,,,,,,2,,,59,0
147720,note_on,0,0,3,,,,,,,,,2,,,57,36
147720,note_on,0,0,3,,,,,,,,,2,,,54,36
147720,note_on,0,0,3,,,,,,,,,2,,,56,0
147720,note_on,120,0,3,,,,,,,,,2,,,59,0
147720,note_on,0,0,1,,,,,,,,,0,,,63,49
147720,note_on,120,0,1,,,,,,,,,0,,,75,0
147720,note_on,0,0,1,,,,,,,,,0,,,63,0
147720,note_on,0,0,3,,,,,,,,,2,,,59,36
147720,note_on,0,0,1,,,,,,,,,0,,,75,49
147840,note_on,0,0,3,,,,,,,,,2,,,55,36
147840,note_on,0,0,1,,,,,,,,,0,,,63,0
147840,note_on,0,0,1,,,,,,,,,0,,,64,49
147840,note_on,0,0,1,,,,,,,,,0,,,76,49
147840,note_on,120,0,3,,,,,,,,,2,,,59,0
147840,note_on,0,0,3,,,,,,,,,2,,,57,0
147840,note_on,0,0,3,,,,,,,,,2,,,54,0
147840,note_on,0,0,3,,,,,,,,,2,,,52,36
147840,note_on,0,0,3,,,,,,,,,2,,,59,36
147840,note_on,120,0,1,,,,,,,,,0,,,75,0
147960,note_on,0,0,3,,,,,,,,,2,,,55,0
147960,note_on,0,0,3,,,,,,,,,2,,,52,0
147960,note_on,0,0,3,,,,,,,,,2,,,52,36
147960,note_on,0,0,3,,,,,,,,,2,,,57,36
147960,note_on,0,0,1,,,,,,,,,0,,,78,49
147960,note_on,0,0,1,,,,,,,,,0,,,66,49
147960,note_on,0,0,1,,,,,,,,,0,,,64,0
147960,note_on,120,0,1,,,,,,,,,0,,,76,0
147960,note_on,0,0,3,,,,,,,,,2,,,54,36
147960,note_on,120,0,3,,,,,,,,,2,,,59,0
147972,note_on,12,0,3,,,,,,,,,2,,,57,0
147972,note_on,0,0,1,,,,,,,,,0,,,66,0
147972,note_on,0,0,3,,,,,,,,,2,,,54,0
147972,note_on,0,0,3,,,,,,,,,2,,,52,0
147972,note_on,12,0,1,,,,,,,,,0,,,78,0
148080,note_on,0,0,1,,,,,,,,,0,,,79,49
148080,note_on,108,0,1,,,,,,,,,0,,,67,49
148080,note_on,108,0,3,,,,,,,,,2,,,52,36
148080,note_on,0,0,3,,,,,,,,,2,,,55,36
148092,note_on,12,0,1,,,,,,,,,0,,,79,0
148092,note_on,0,0,1,,,,,,,,,0,,,67,0
148092,note_on,0,0,3,,,,,,,,,2,,,52,0
148092,note_on,12,0,3,,,,,,,,,2,,,55,0
148200,note_on,0,0,1,,,,,,,,,0,,,81,62
148200,note_on,0,0,3,,,,,,,,,2,,,52,49
148200,control_change,108,0,3,,,,,,,,,2,64,127,,
148200,control_change,108,0,1,,,,,,,,,0,64,127,,
148200,note_on,0,0,1,,,,,,,,,0,,,69,62
148200,note_on,0,0,3,,,,,,,,,2,,,57,49
148200,note_on,0,0,3,,,,,,,,,2,,,54,49
148204,note_on,0,0,3,,,,,,,,,2,,,52,0
148204,note_on,4,0,3,,,,,,,,,2,,,57,0
148204,note_on,0,0,3,,,,,,,,,2,,,54,0
148212,note_on,12,0,1,,,,,,,,,0,,,81,0
148212,note_on,0,0,1,,,,,,,,,0,,,69,0
148320,note_on,0,0,1,,,,,,,,,0,,,83,75
148320,note_on,0,0,1,,,,,,,,,0,,,71,75
148320,control_change,108,0,1,,,,,,,,,0,64,0,,
148320,note_on,0,0,3,,,,,,,,,2,,,59,62
148320,note_on,0,0,3,,,,,,,,,2,,,55,62
148320,control_change,116,0,3,,,,,,,,,2,64,0,,
148320,note_on,0,0,3,,,,,,,,,2,,,52,62
148324,note_on,0,0,3,,,,,,,,,2,,,52,0
148324,note_on,4,0,3,,,,,,,,,2,,,59,0
148324,note_on,0,0,3,,,,,,,,,2,,,55,0
148332,note_on,0,0,1,,,,,,,,,0,,,71,0
148332,note_on,12,0,1,,,,,,,,,0,,,83,0
148440,note_on,108,0,1,,,,,,,,,0,,,72,75
148440,note_on,0,0,1,,,,,,,,,0,,,84,75
148440,note_on,0,0,3,,,,,,,,,2,,,57,62
148440,note_on,0,0,3,,,,,,,,,2,,,60,62
148440,note_on,116,0,3,,,,,,,,,2,,,52,62
148444,note_on,0,0,3,,,,,,,,,2,,,52,0
148444,note_on,4,0,3,,,,,,,,,2,,,60,0
148444,note_on,0,0,3,,,,,,,,,2,,,57,0
148452,note_on,12,0,1,,,,,,,,,0,,,84,0
148452,note_on,0,0,1,,,,,,,,,0,,,72,0
148560,note_on,0,0,1,,,,,,,,,0,,,71,49
148560,note_on,0,0,3,,,,,,,,,2,,,55,36
148560,note_on,0,0,3,,,,,,,,,2,,,59,36
148560,control_change,108,0,1,,,,,,,,,0,64,127,,
148560,note_on,0,0,1,,,,,,,,,0,,,83,49
148560,note_on,116,0,3,,,,,,,,,2,,,52,36
148800,note_on,240,0,1,,,,,,,,,0,,,83,0
148800,note_on,0,0,1,,,,,,,,,0,,,71,0
148800,note_on,0,0,1,,,,,,,,,0,,,76,36
148860,note_on,60,0,1,,,,,,,,,0,,,76,0
148860,note_on,0,0,1,,,,,,,,,0,,,76,36
148860,control_change,0,0,1,,,,,,,,,0,64,0,,
148920,note_on,60,0,1,,,,,,,,,0,,,76,0
148920,control_change,0,0,1,,,,,,,,,0,64,127,,
148920,note_on,0,0,1,,,,,,,,,0,,,66,36
148920,note_on,0,0,3,,,,,,,,,2,,,55,0
148920,note_on,360,0,3,,,,,,,,,2,,,59,0
148920,note_on,0,0,3,,,,,,,,,2,,,52,0
149040,note_on,0,0,3,,,,,,,,,2,,,54,36
149040,note_on,0,0,3,,,,,,,,,2,,,57,36
149040,note_on,0,0,3,,,,,,,,,2,,,60,36
149040,note_on,120,0,3,,,,,,,,,2,,,52,36
149160,note_on,240,0,1,,,,,,,,,0,,,66,0
149160,note_on,0,0,1,,,,,,,,,0,,,76,36
149220,control_change,0,0,1,,,,,,,,,0,64,0,,
149220,note_on,0,0,1,,,,,,,,,0,,,76,36
149220,note_on,60,0,1,,,,,,,,,0,,,76,0
149280,note_on,0,0,1,,,,,,,,,0,,,71,36
149280,note_on,240,0,3,,,,,,,,,2,,,60,0
149280,note_on,0,0,3,,,,,,,,,2,,,52,0
149280,note_on,0,0,3,,,,,,,,,2,,,54,0
149280,note_on,0,0,3,,,,,,,,,2,,,57,0
149280,note_on,60,0,1,,,,,,,,,0,,,76,0
149400,note_on,120,0,3,,,,,,,,,2,,,52,36
149400,note_on,0,0,3,,,,,,,,,2,,,55,36
149400,note_on,0,0,3,,,,,,,,,2,,,59,36
149520,note_on,0,0,1,,,,,,,,,0,,,83,36
149520,note_on,240,0,1,,,,,,,,,0,,,71,0
149640,note_on,0,0,3,,,,,,,,,2,,,55,0
149640,note_on,0,0,3,,,,,,,,,2,,,52,0
149640,note_on,0,0,3,,,,,,,,,2,,,52,36
149640,note_on,0,0,3,,,,,,,,,2,,,54,36
149640,note_on,0,0,3,,,,,,,,,2,,,57,36
149640,note_on,240,0,3,,,,,,,,,2,,,59,0
149640,note_on,120,0,1,,,,,,,,,0,,,83,0
149640,note_on,0,0,1,,,,,,,,,0,,,83,36
149652,note_on,0,0,3,,,,,,,,,2,,,52,0
149652,note_on,0,0,3,,,,,,,,,2,,,54,0
149652,note_on,12,0,3,,,,,,,,,2,,,57,0
149700,note_on,0,0,1,,,,,,,,,0,,,81,36
149700,note_on,60,0,1,,,,,,,,,0,,,83,0
149760,note_on,108,0,3,,,,,,,,,2,,,52,36
149760,note_on,0,0,1,,,,,,,,,0,,,81,36
149760,note_on,60,0,1,,,,,,,,,0,,,81,0
149760,note_on,0,0,3,,,,,,,,,2,,,55,36
149760,note_on,0,0,3,,,,,,,,,2,,,59,36
149772,note_on,12,0,3,,,,,,,,,2,,,59,0
149772,note_on,0,0,3,,,,,,,,,2,,,55,0
149772,note_on,0,0,3,,,,,,,,,2,,,52,0
149820,note_on,0,0,1,,,,,,,,,0,,,83,36
149820,note_on,60,0,1,,,,,,,,,0,,,81,0
149880,note_on,60,0,1,,,,,,,,,0,,,83,0
149880,note_on,0,0,1,,,,,,,,,0,,,83,36
149880,note_on,108,0,3,,,,,,,,,2,,,52,36
149880,note_on,0,0,3,,,,,,,,,2,,,60,36
149880,note_on,0,0,3,,,,,,,,,2,,,57,36
149892,note_on,0,0,3,,,,,,,,,2,,,52,0
149892,note_on,0,0,3,,,,,,,,,2,,,57,0
149892,note_on,12,0,3,,,,,,,,,2,,,60,0
149940,note_on,60,0,1,,,,,,,,,0,,,83,0
149940,note_on,0,0,1,,,,,,,,,0,,,84,36
150000,control_change,0,0,1,,,,,,,,,0,64,127,,
150000,note_on,0,0,3,,,,,,,,,2,,,59,36
150000,note_on,0,0,3,,,,,,,,,2,,,55,36
150000,note_on,108,0,3,,,,,,,,,2,,,52,36
150000,note_on,60,0,1,,,,,,,,,0,,,84,0
150000,note_on,0,0,1,,,,,,,,,0,,,83,36
150240,note_on,0,0,1,,,,,,,,,0,,,76,36
150240,note_on,240,0,1,,,,,,,,,0,,,83,0
150300,note_on,60,0,1,,,,,,,,,0,,,76,0
150300,note_on,0,0,1,,,,,,,,,0,,,76,36
150300,control_change,0,0,1,,,,,,,,,0,64,0,,
150360,note_on,0,0,1,,,,,,,,,0,,,66,36
150360,note_on,60,0,1,,,,,,,,,0,,,76,0
150360,control_change,0,0,1,,,,,,,,,0,64,127,,
150360,note_on,0,0,3,,,,,,,,,2,,,55,0
150360,note_on,360,0,3,,,,,,,,,2,,,59,0
150360,note_on,0,0,3,,,,,,,,,2,,,52,0
150480,note_on,0,0,3,,,,,,,,,2,,,60,36
150480,note_on,120,0,3,,,,,,,,,2,,,52,36
150480,note_on,0,0,3,,,,,,,,,2,,,54,36
150480,note_on,0,0,3,,,,,,,,,2,,,57,36
150600,note_on,240,0,1,,,,,,,,,0,,,66,0
150600,note_on,0,0,1,,,,,,,,,0,,,76,36
150660,note_on,0,0,1,,,,,,,,,0,,,76,36
150660,control_change,0,0,1,,,,,,,,,0,64,0,,
150660,note_on,60,0,1,,,,,,,,,0,,,76,0
150720,note_on,60,0,1,,,,,,,,,0,,,76,0
150720,note_on,0,0,1,,,,,,,,,0,,,71,36
150720,note_on,0,0,3,,,,,,,,,2,,,57,0
150720,note_on,0,0,3,,,,,,,,,2,,,54,0
150720,note_on,0,0,3,,,,,,,,,2,,,52,0
150720,note_on,240,0,3,,,,,,,,,2,,,60,0
150780,set_tempo,13740,1,0,,,,,,288462,,,,,,,
150840,note_on,0,0,3,,,,,,,,,2,,,59,36
150840,note_on,0,0,3,,,,,,,,,2,,,55,36
150840,set_tempo,60,1,0,,,,,,300000,,,,,,,
150840,note_on,120,0,3,,,,,,,,,2,,,52,36
150900,set_tempo,60,1,0,,,,,,312500,,,,,,,
150960,set_tempo,60,1,0,,,,,,326087,,,,,,,
150960,note_on,240,0,1,,,,,,,,,0,,,71,0
150960,note_on,0,0,1,,,,,,,,,0,,,76,36
151020,note_on,60,0,1,,,,,,,,,0,,,76,0
151020,set_tempo,60,1,0,,,,,,340909,,,,,,,
151020,note_on,0,0,1,,,,,,,,,0,,,76,36
151080,set_tempo,60,1,0,,,,,,357143,,,,,,,
151080,control_change,0,0,1,,,,,,,,,0,64,127,,
151080,note_on,60,0,1,,,,,,,,,0,,,76,0
151080,note_on,0,0,3,,,,,,,,,2,,,52,0
151080,note_on,0,0,3,,,,,,,,,2,,,55,0
151080,note_on,240,0,3,,,,,,,,,2,,,59,0
151080,note_on,0,0,1,,,,,,,,,0,,,66,36
151140,set_tempo,60,1,0,,,,,,375000,,,,,,,
151200,note_on,0,0,3,,,,,,,,,2,,,54,36
151200,note_on,0,0,3,,,,,,,,,2,,,57,36
151200,note_on,0,0,3,,,,,,,,,2,,,60,36
151200,set_tempo,60,1,0,,,,,,394737,,,,,,,
151200,note_on,120,0,3,,,,,,,,,2,,,52,36
151320,note_on,240,0,1,,,,,,,,,0,,,66,0
151320,note_on,0,0,1,,,,,,,,,0,,,76,36
151380,note_on,60,0,1,,,,,,,,,0,,,76,0
151380,control_change,0,0,1,,,,,,,,,0,64,0,,
151380,note_on,0,0,1,,,,,,,,,0,,,76,36
151440,note_on,0,0,3,,,,,,,,,2,,,57,0
151440,note_on,0,0,3,,,,,,,,,2,,,54,0
151440,note_on,0,0,3,,,,,,,,,2,,,52,0
151440,note_on,240,0,3,,,,,,,,,2,,,60,0
151440,note_on,60,0,1,,,,,,,,,0,,,76,0
151440,note_on,0,0,1,,,,,,,,,0,,,71,36
151560,note_on,0,0,3,,,,,,,,,2,,,55,36
151560,note_on,120,0,3,,,,,,,,,2,,,52,36
151560,note_on,0,0,3,,,,,,,,,2,,,59,36
151680,note_on,0,0,1,,,,,,,,,0,,,67,36
151680,note_on,240,0,1,,,,,,,,,0,,,71,0
151740,note_on,60,0,1,,,,,,,,,0,,,67,0
151740,note_on,0,0,1,,,,,,,,,0,,,71,36
151800,note_on,0,0,3,,,,,,,,,2,,,54,36
151800,set_tempo,600,1,0,,,,,,277778,,,,,,,
151800,note_on,60,0,1,,,,,,,,,0,,,71,0
151800,note_on,0,0,1,,,,,,,,,0,,,71,36
151800,note_on,10440,0,2,,,,,,,,,1,,,66,49
151800,note_on,0,0,3,,,,,,,,,2,,,57,36
151800,note_on,240,0,3,,,,,,,,,2,,,59,0
151800,note_on,0,0,3,,,,,,,,,2,,,55,0
151800,note_on,0,0,3,,,,,,,,,2,,,52,0
151800,note_on,0,0,3,,,,,,,,,2,,,45,36
151812,note_on,0,0,3,,,,,,,,,2,,,45,0
151812,note_on,0,0,3,,,,,,,,,2,,,54,0
151812,note_on,12,0,3,,,,,,,,,2,,,57,0
151860,note_on,0,0,1,,,,,,,,,0,,,69,36
151860,note_on,60,0,1,,,,,,,,,0,,,71,0
151920,note_on,0,0,1,,,,,,,,,0,,,69,36
151920,note_on,60,0,1,,,,,,,,,0,,,69,0
151920,note_on,108,0,3,,,,,,,,,2,,,47,36
151920,note_on,0,0,3,,,,,,,,,2,,,55,36
151920,note_on,0,0,3,,,,,,,,,2,,,59,36
151920,note_on,0,0,2,,,,,,,,,1,,,64,49
151920,note_on,120,0,2,,,,,,,,,1,,,66,0
151932,note_on,12,0,3,,,,,,,,,2,,,59,0
151932,note_on,0,0,3,,,,,,,,,2,,,55,0
151932,note_on,0,0,3,,,,,,,,,2,,,47,0
151980,note_on,60,0,1,,,,,,,,,0,,,69,0
151980,note_on,0,0,1,,,,,,,,,0,,,67,36
152040,note_on,0,0,2,,,,,,,,,1,,,63,49
152040,note_on,120,0,2,,,,,,,,,1,,,64,0
152040,note_on,0,0,1,,,,,,,,,0,,,67,36
152040,note_on,0,0,3,,,,,,,,,2,,,57,36
152040,note_on,108,0,3,,,,,,,,,2,,,47,36
152040,note_on,0,0,3,,,,,,,,,2,,,59,36
152040,note_on,60,0,1,,,,,,,,,0,,,67,0
152052,note_on,0,0,3,,,,,,,,,2,,,57,0
152052,note_on,0,0,3,,,,,,,,,2,,,47,0
152052,note_on,12,0,3,,,,,,,,,2,,,59,0
152100,note_on,60,0,1,,,,,,,,,0,,,67,0
152100,note_on,0,0,1,,,,,,,,,0,,,66,36
152160,note_on,0,0,3,,,,,,,,,2,,,59,36
152160,note_on,0,0,3,,,,,,,,,2,,,55,36
152160,note_on,108,0,3,,,,,,,,,2,,,52,36
152160,note_on,60,0,1,,,,,,,,,0,,,66,0
152160,note_on,120,0,2,,,,,,,,,1,,,63,0
152160,note_on,0,0,1,,,,,,,,,0,,,64,36
152172,note_on,0,0,3,,,,,,,,,2,,,52,0
152172,note_on,12,0,3,,,,,,,,,2,,,59,0
152172,note_on,0,0,3,,,,,,,,,2,,,55,0
152280,note_on,120,0,1,,,,,,,,,0,,,64,0
152280,note_on,108,0,3,,,,,,,,,2,,,64,75
152400,note_on,0,0,1,,,,,,,,,0,,,71,88
152400,note_on,120,0,1,,,,,,,,,0,,,68,88
152460,note_on,0,0,1,,,,,,,,,0,,,71,88
152460,note_on,0,0,1,,,,,,,,,0,,,68,88
152460,note_on,0,0,1,,,,,,,,,0,,,68,0
152460,note_on,60,0,1,,,,,,,,,0,,,71,0
152520,note_on,0,0,1,,,,,,,,,0,,,68,0
152520,note_on,0,0,1,,,,,,,,,0,,,69,88
152520,note_on,0,0,1,,,,,,,,,0,,,72,88
152520,note_on,60,0,1,,,,,,,,,0,,,71,0
152640,note_on,0,0,3,,,,,,,,,2,,,64,75
152640,note_on,360,0,3,,,,,,,,,2,,,64,0
152760,note_on,0,0,1,,,,,,,,,0,,,71,88
152760,note_on,240,0,1,,,,,,,,,0,,,72,0
152760,note_on,0,0,1,,,,,,,,,0,,,69,0
152760,note_on,0,0,1,,,,,,,,,0,,,68,88
152820,note_on,0,0,1,,,,,,,,,0,,,71,88
152820,note_on,0,0,1,,,,,,,,,0,,,68,88
152820,note_on,0,0,1,,,,,,,,,0,,,68,0
152820,note_on,60,0,1,,,,,,,,,0,,,71,0
152880,note_on,0,0,1,,,,,,,,,0,,,68,0
152880,note_on,0,0,1,,,,,,,,,0,,,77,114
152880,note_on,0,0,1,,,,,,,,,0,,,74,106
152880,note_on,60,0,1,,,,,,,,,0,,,71,0
153000,note_on,360,0,3,,,,,,,,,2,,,64,0
153000,note_on,0,0,3,,,,,,,,,2,,,64,75
153120,note_on,240,0,1,,,,,,,,,0,,,77,0
153120,note_on,0,0,1,,,,,,,,,0,,,74,0
153120,note_on,0,0,1,,,,,,,,,0,,,72,88
153120,note_on,0,0,1,,,,,,,,,0,,,76,88
153180,note_on,0,0,1,,,,,,,,,0,,,76,88
153180,note_on,60,0,1,,,,,,,,,0,,,76,0
153180,note_on,0,0,1,,,,,,,,,0,,,72,0
153180,note_on,0,0,1,,,,,,,,,0,,,72,88
153240,note_on,0,0,1,,,,,,,,,0,,,74,88
153240,note_on,0,0,1,,,,,,,,,0,,,72,0
153240,note_on,60,0,1,,,,,,,,,0,,,76,0
153240,note_on,0,0,1,,,,,,,,,0,,,71,88
153360,note_on,0,0,3,,,,,,,,,2,,,64,75
153360,note_on,360,0,3,,,,,,,,,2,,,64,0
153360,note_on,120,0,1,,,,,,,,,0,,,74,0
153360,note_on,0,0,1,,,,,,,,,0,,,71,0
153360,note_on,0,0,1,,,,,,,,,0,,,71,88
153360,note_on,0,0,1,,,,,,,,,0,,,74,88
153372,note_on,0,0,1,,,,,,,,,0,,,71,0
153372,note_on,12,0,1,,,,,,,,,0,,,74,0
153480,note_on,108,0,1,,,,,,,,,0,,,63,88
153480,note_on,0,0,1,,,,,,,,,0,,,69,88
153480,note_on,0,0,1,,,,,,,,,0,,,72,88
153492,note_on,0,0,1,,,,,,,,,0,,,63,0
153492,note_on,12,0,1,,,,,,,,,0,,,72,0
153492,note_on,0,0,1,,,,,,,,,0,,,69,0
153600,note_on,108,0,1,,,,,,,,,0,,,64,88
153600,note_on,240,0,3,,,,,,,,,2,,,64,0
153600,note_on,0,0,1,,,,,,,,,0,,,71,88
153600,note_on,0,0,1,,,,,,,,,0,,,68,88
153720,note_on,120,0,3,,,,,,,,,2,,,52,75
153840,note_on,0,0,1,,,,,,,,,0,,,64,0
153840,note_on,0,0,1,,,,,,,,,0,,,68,0
153840,note_on,240,0,1,,,,,,,,,0,,,71,0
153840,note_on,0,0,1,,,,,,,,,0,,,59,88
153840,note_on,0,0,1,,,,,,,,,0,,,56,88
153900,note_on,60,0,1,,,,,,,,,0,,,59,0
153900,note_on,0,0,1,,,,,,,,,0,,,56,0
153900,note_on,0,0,1,,,,,,,,,0,,,56,88
153900,note_on,0,0,1,,,,,,,,,0,,,59,88
153960,note_on,60,0,1,,,,,,,,,0,,,59,0
153960,note_on,0,0,1,,,,,,,,,0,,,56,0
153960,note_on,0,0,1,,,,,,,,,0,,,57,88
153960,note_on,0,0,1,,,,,,,,,0,,,60,88
154080,note_on,0,0,3,,,,,,,,,2,,,52,75
154080,note_on,360,0,3,,,,,,,,,2,,,52,0
154200,note_on,0,0,1,,,,,,,,,0,,,59,88
154200,note_on,0,0,1,,,,,,,,,0,,,56,88
154200,note_on,240,0,1,,,,,,,,,0,,,60,0
154200,note_on,0,0,1,,,,,,,,,0,,,57,0
154260,note_on,60,0,1,,,,,,,,,0,,,59,0
154260,note_on,0,0,1,,,,,,,,,0,,,56,0
154260,note_on,0,0,1,,,,,,,,,0,,,56,88
154260,note_on,0,0,1,,,,,,,,,0,,,59,88
154320,note_on,0,0,1,,,,,,,,,0,,,65,114
154320,note_on,60,0,1,,,,,,,,,0,,,59,0
154320,note_on,0,0,1,,,,,,,,,0,,,56,0
154320,note_on,0,0,1,,,,,,,,,0,,,62,106
154320,control_change,0,0,1,,,,,,,,,0,64,127,,
154440,note_on,360,0,3,,,,,,,,,2,,,52,0
154440,note_on,0,0,3,,,,,,,,,2,,,52,75
154560,note_on,0,0,1,,,,,,,,,0,,,60,88
154560,note_on,0,0,1,,,,,,,,,0,,,64,88
154560,note_on,240,0,1,,,,,,,,,0,,,65,0
154560,note_on,0,0,1,,,,,,,,,0,,,62,0
154620,note_on,0,0,1,,,,,,,,,0,,,60,0
154620,note_on,0,0,1,,,,,,,,,0,,,60,88
154620,note_on,0,0,1,,,,,,,,,0,,,64,88
154620,control_change,0,0,1,,,,,,,,,0,64,0,,
154620,note_on,60,0,1,,,,,,,,,0,,,64,0
154680,note_on,60,0,1,,,,,,,,,0,,,64,0
154680,note_on,0,0,1,,,,,,,,,0,,,60,0
154680,note_on,0,0,1,,,,,,,,,0,,,59,88
154680,note_on,0,0,1,,,,,,,,,0,,,62,88
154800,note_on,360,0,3,,,,,,,,,2,,,52,0
154800,note_on,0,0,3,,,,,,,,,2,,,52,75
154800,note_on,0,0,1,,,,,,,,,0,,,59,88
154800,note_on,0,0,1,,,,,,,,,0,,,62,88
154800,note_on,0,0,1,,,,,,,,,0,,,59,0
154800,note_on,120,0,1,,,,,,,,,0,,,62,0
154812,note_on,12,0,1,,,,,,,,,0,,,62,0
154812,note_on,0,0,1,,,,,,,,,0,,,59,0
154812,note_on,12,0,3,,,,,,,,,2,,,52,0
154920,note_on,108,0,1,,,,,,,,,0,,,57,88
154920,note_on,108,0,3,,,,,,,,,2,,,51,75
154920,note_on,0,0,1,,,,,,,,,0,,,60,88
154932,note_on,0,0,1,,,,,,,,,0,,,57,0
154932,note_on,12,0,3,,,,,,,,,2,,,51,0
154932,note_on,12,0,1,,,,,,,,,0,,,60,0
155040,note_on,108,0,1,,,,,,,,,0,,,52,88
155040,note_on,0,0,1,,,,,,,,,0,,,56,88
155040,note_on,0,0,1,,,,,,,,,0,,,59,88
155160,note_on,228,0,3,,,,,,,,,2,,,40,75
155280,note_on,240,0,1,,,,,,,,,0,,,59,0
155280,note_on,0,0,1,,,,,,,,,0,,,56,0
155280,note_on,0,0,1,,,,,,,,,0,,,52,0
155280,note_on,0,0,1,,,,,,,,,0,,,51,49
155280,note_on,0,0,1,,,,,,,,,0,,,57,49
155280,note_on,0,0,1,,,,,,,,,0,,,60,49
155340,note_on,0,0,1,,,,,,,,,0,,,57,0
155340,note_on,60,0,1,,,,,,,,,0,,,60,0
155340,note_on,0,0,1,,,,,,,,,0,,,51,0
155340,note_on,0,0,1,,,,,,,,,0,,,51,49
155340,note_on,0,0,1,,,,,,,,,0,,,60,49
155340,note_on,0,0,1,,,,,,,,,0,,,57,49
155400,note_on,0,0,1,,,,,,,,,0,,,57,0
155400,note_on,0,0,1,,,,,,,,,0,,,51,0
155400,note_on,0,0,1,,,,,,,,,0,,,52,49
155400,note_on,0,0,1,,,,,,,,,0,,,56,49
155400,note_on,60,0,1,,,,,,,,,0,,,60,0
155400,note_on,0,0,1,,,,,,,,,0,,,59,49
155520,note_on,360,0,3,,,,,,,,,2,,,40,0
155520,note_on,0,0,3,,,,,,,,,2,,,40,36
155640,note_on,240,0,1,,,,,,,,,0,,,59,0
155640,note_on,0,0,1,,,,,,,,,0,,,56,0
155640,note_on,0,0,1,,,,,,,,,0,,,52,0
155640,note_on,0,0,1,,,,,,,,,0,,,57,49
155640,note_on,0,0,1,,,,,,,,,0,,,60,49
155640,note_on,0,0,1,,,,,,,,,0,,,51,49
155700,note_on,0,0,1,,,,,,,,,0,,,51,49
155700,note_on,0,0,1,,,,,,,,,0,,,57,49
155700,note_on,0,0,1,,,,,,,,,0,,,60,49
155700,note_on,0,0,1,,,,,,,,,0,,,51,0
155700,note_on,60,0,1,,,,,,,,,0,,,60,0
155700,note_on,0,0,1,,,,,,,,,0,,,57,0
155760,note_on,60,0,1,,,,,,,,,0,,,60,0
155760,note_on,0,0,1,,,,,,,,,0,,,57,0
155760,note_on,0,0,1,,,,,,,,,0,,,51,0
155760,note_on,0,0,1,,,,,,,,,0,,,52,49
155760,note_on,0,0,1,,,,,,,,,0,,,56,49
155760,note_on,0,0,1,,,,,,,,,0,,,59,49
155880,note_on,360,0,3,,,,,,,,,2,,,40,0
155880,note_on,0,0,3,,,,,,,,,2,,,35,62
156000,note_on,0,0,1,,,,,,,,,0,,,60,49
156000,note_on,0,0,1,,,,,,,,,0,,,57,49
156000,note_on,0,0,1,,,,,,,,,0,,,51,49
156000,note_on,0,0,1,,,,,,,,,0,,,52,0
156000,note_on,240,0,1,,,,,,,,,0,,,59,0
156000,note_on,0,0,1,,,,,,,,,0,,,56,0
156060,note_on,60,0,1,,,,,,,,,0,,,60,0
156060,note_on,0,0,1,,,,,,,,,0,,,60,49
156060,note_on,0,0,1,,,,,,,,,0,,,57,49
156060,note_on,0,0,1,,,,,,,,,0,,,51,0
156060,note_on,0,0,1,,,,,,,,,0,,,57,0
156060,note_on,0,0,1,,,,,,,,,0,,,51,49
156120,note_on,0,0,1,,,,,,,,,0,,,52,49
156120,note_on,60,0,1,,,,,,,,,0,,,60,0
156120,note_on,0,0,1,,,,,,,,,0,,,57,0
156120,note_on,0,0,1,,,,,,,,,0,,,51,0
156120,note_on,0,0,1,,,,,,,,,0,,,59,49
156120,note_on,0,0,1,,,,,,,,,0,,,56,49
156240,note_on,360,0,3,,,,,,,,,2,,,35,0
156240,note_on,0,0,3,,,,,,,,,2,,,40,36
156360,note_on,0,0,1,,,,,,,,,0,,,51,49
156360,note_on,0,0,1,,,,,,,,,0,,,52,0
156360,note_on,0,0,1,,,,,,,,,0,,,56,0
156360,note_on,0,0,1,,,,,,,,,0,,,60,49
156360,note_on,240,0,1,,,,,,,,,0,,,59,0
156360,note_on,0,0,1,,,,,,,,,0,,,57,49
156420,note_on,0,0,1,,,,,,,,,0,,,51,49
156420,note_on,60,0,1,,,,,,,,,0,,,60,0
156420,note_on,0,0,1,,,,,,,,,0,,,60,49
156420,note_on,0,0,1,,,,,,,,,0,,,57,0
156420,note_on,0,0,1,,,,,,,,,0,,,51,0
156420,note_on,0,0,1,,,,,,,,,0,,,57,49
156480,note_on,0,0,1,,,,,,,,,0,,,56,49
156480,note_on,60,0,1,,,,,,,,,0,,,60,0
156480,note_on,0,0,1,,,,,,,,,0,,,57,0
156480,note_on,0,0,1,,,,,,,,,0,,,51,0
156480,note_on,0,0,1,,,,,,,,,0,,,59,49
156480,note_on,0,0,1,,,,,,,,,0,,,52,49
156600,note_on,360,0,3,,,,,,,,,2,,,40,0
156600,note_on,0,0,3,,,,,,,,,2,,,35,75
156720,note_on,0,0,1,,,,,,,,,0,,,51,49
156720,note_on,0,0,1,,,,,,,,,0,,,52,0
156720,note_on,0,0,1,,,,,,,,,0,,,56,0
156720,note_on,240,0,1,,,,,,,,,0,,,59,0
156720,note_on,0,0,1,,,,,,,,,0,,,60,49
156720,note_on,0,0,1,,,,,,,,,0,,,57,49
156780,note_on,0,0,1,,,,,,,,,0,,,57,49
156780,note_on,0,0,1,,,,,,,,,0,,,60,49
156780,note_on,60,0,1,,,,,,,,,0,,,60,0
156780,note_on,0,0,1,,,,,,,,,0,,,51,0
156780,note_on,0,0,1,,,,,,,,,0,,,51,49
156780,note_on,0,0,1,,,,,,,,,0,,,57,0
156840,note_on,60,0,1,,,,,,,,,0,,,60,0
156840,note_on,0,0,3,,,,,,,,,2,,,35,75
156840,note_on,0,0,1,,,,,,,,,0,,,57,0
156840,note_on,240,0,3,,,,,,,,,2,,,35,0
156840,note_on,0,0,1,,,,,,,,,0,,,52,49
156840,note_on,0,0,1,,,,,,,,,0,,,56,49
156840,note_on,0,0,1,,,,,,,,,0,,,59,49
156840,note_on,0,0,1,,,,,,,,,0,,,51,0
156960,note_on,120,0,3,,,,,,,,,2,,,35,0
156960,note_on,0,0,3,,,,,,,,,2,,,40,75
157080,note_on,0,0,1,,,,,,,,,0,,,52,0
157080,note_on,0,0,1,,,,,,,,,0,,,69,49
157080,note_on,240,0,1,,,,,,,,,0,,,59,0
157080,note_on,0,0,3,,,,,,,,,2,,,57,36
157080,note_on,0,0,1,,,,,,,,,0,,,56,0
157080,note_on,120,0,3,,,,,,,,,2,,,40,0
157140,note_on,0,0,3,,,,,,,,,2,,,57,36
157140,note_on,60,0,1,,,,,,,,,0,,,69,0
157140,note_on,60,0,3,,,,,,,,,2,,,57,0
157140,note_on,0,0,1,,,,,,,,,0,,,69,49
157200,note_on,0,0,3,,,,,,,,,2,,,52,36
157200,note_on,0,0,1,,,,,,,,,0,,,68,49
157200,note_on,60,0,3,,,,,,,,,2,,,57,0
157200,note_on,60,0,1,,,,,,,,,0,,,69,0
157200,note_on,0,0,1,,,,,,,,,0,,,71,49
157200,note_on,0,0,1,,,,,,,,,0,,,64,49
157440,note_on,0,0,1,,,,,,,,,0,,,69,49
157440,note_on,0,0,3,,,,,,,,,2,,,57,36
157440,note_on,0,0,1,,,,,,,,,0,,,64,0
157440,note_on,0,0,1,,,,,,,,,0,,,68,0
157440,note_on,240,0,1,,,,,,,,,0,,,71,0
157440,note_on,240,0,3,,,,,,,,,2,,,52,0
157500,note_on,60,0,3,,,,,,,,,2,,,57,0
157500,note_on,0,0,3,,,,,,,,,2,,,57,36
157500,note_on,0,0,1,,,,,,,,,0,,,69,49
157500,note_on,60,0,1,,,,,,,,,0,,,69,0
157560,note_on,0,0,1,,,,,,,,,0,,,68,49
157560,note_on,0,0,1,,,,,,,,,0,,,71,49
157560,note_on,0,0,1,,,,,,,,,0,,,64,49
157560,note_on,0,0,3,,,,,,,,,2,,,52,36
157560,note_on,60,0,3,,,,,,,,,2,,,57,0
157560,note_on,60,0,1,,,,,,,,,0,,,69,0
157800,note_on,0,0,3,,,,,,,,,2,,,57,36
157800,note_on,240,0,3,,,,,,,,,2,,,52,0
157800,note_on,0,0,1,,,,,,,,,0,,,69,49
157800,note_on,0,0,1,,,,,,,,,0,,,64,0
157800,note_on,0,0,1,,,,,,,,,0,,,68,0
157800,note_on,240,0,1,,,,,,,,,0,,,71,0
157860,note_on,60,0,3,,,,,,,,,2,,,57,0
157860,note_on,0,0,3,,,,,,,,,2,,,57,36
157860,note_on,0,0,1,,,,,,,,,0,,,69,49
157860,note_on,60,0,1,,,,,,,,,0,,,69,0
157920,note_on,0,0,1,,,,,,,,,0,,,71,49
157920,note_on,0,0,1,,,,,,,,,0,,,64,49
157920,note_on,0,0,1,,,,,,,,,0,,,68,49
157920,note_on,60,0,1,,,,,,,,,0,,,69,0
157920,note_on,0,0,3,,,,,,,,,2,,,52,36
157920,note_on,60,0,3,,,,,,,,,2,,,57,0
157932,note_on,12,0,3,,,,,,,,,2,,,52,0
158040,note_on,0,0,1,,,,,,,,,0,,,72,62
158040,note_on,0,0,1,,,,,,,,,0,,,64,62
158040,note_on,0,0,1,,,,,,,,,0,,,64,0
158040,note_on,0,0,1,,,,,,,,,0,,,68,0
158040,note_on,0,0,1,,,,,,,,,0,,,69,62
158040,note_on,108,0,3,,,,,,,,,2,,,57,49
158040,note_on,120,0,1,,,,,,,,,0,,,71,0
158052,note_on,12,0,3,,,,,,,,,2,,,57,0
158052,note_on,12,0,1,,,,,,,,,0,,,72,0
158052,note_on,0,0,1,,,,,,,,,0,,,69,0
158052,note_on,0,0,1,,,,,,,,,0,,,64,0
158160,note_on,0,0,1,,,,,,,,,0,,,71,75
158160,note_on,0,0,1,,,,,,,,,0,,,68,75
158160,note_on,108,0,1,,,,,,,,,0,,,64,75
158160,note_on,108,0,3,,,,,,,,,2,,,52,62
158172,note_on,12,0,1,,,,,,,,,0,,,71,0
158172,note_on,0,0,1,,,,,,,,,0,,,68,0
158172,note_on,0,0,1,,,,,,,,,0,,,64,0
158172,note_on,12,0,3,,,,,,,,,2,,,52,0
158280,note_on,0,0,1,,,,,,,,,0,,,69,88
158280,note_on,108,0,1,,,,,,,,,0,,,64,88
158280,note_on,108,0,3,,,,,,,,,2,,,57,75
158280,note_on,0,0,1,,,,,,,,,0,,,72,88
158292,note_on,0,0,1,,,,,,,,,0,,,64,0
158292,note_on,0,0,1,,,,,,,,,0,,,69,0
158292,note_on,12,0,1,,,,,,,,,0,,,72,0
158292,note_on,12,0,3,,,,,,,,,2,,,57,0
158400,note_on,0,0,1,,,,,,,,,0,,,76,101
158400,note_on,0,0,1,,,,,,,,,0,,,71,101
158400,note_on,108,0,1,,,,,,,,,0,,,64,101
158400,note_on,0,0,3,,,,,,,,,2,,,44,88
158400,note_on,108,0,3,,,,,,,,,2,,,32,88
158640,note_on,0,0,1,,,,,,,,,0,,,64,0
158640,note_on,0,0,3,,,,,,,,,2,,,33,88
158640,note_on,0,0,3,,,,,,,,,2,,,45,88
158640,note_on,0,0,1,,,,,,,,,0,,,64,101
158640,note_on,0,0,3,,,,,,,,,2,,,32,0
158640,note_on,240,0,3,,,,,,,,,2,,,44,0
158640,note_on,0,0,1,,,,,,,,,0,,,72,101
158640,note_on,0,0,1,,,,,,,,,0,,,71,0
158640,note_on,240,0,1,,,,,,,,,0,,,76,0
158640,note_on,0,0,1,,,,,,,,,0,,,69,101
158760,note_on,0,0,1,,,,,,,,,0,,,64,0
158760,note_on,120,0,3,,,,,,,,,2,,,45,0
158760,note_on,0,0,1,,,,,,,,,0,,,69,0
158760,note_on,120,0,1,,,,,,,,,0,,,72,0
158760,note_on,0,0,3,,,,,,,,,2,,,33,0
158880,note_on,6720,0,2,,,,,,,,,1,,,64,36
158880,note_on,120,0,1,,,,,,,,,0,,,69,49
158880,note_on,0,0,3,,,,,,,,,2,,,61,36
158880,note_on,120,0,3,,,,,,,,,2,,,57,36
158940,note_on,60,0,1,,,,,,,,,0,,,69,0
158940,note_on,0,0,1,,,,,,,,,0,,,69,49
159000,key_signature,7200,1,0,,,,,A,,,,,,,,
159000,note_on,0,0,2,,,,,,,,,1,,,64,36
159000,note_on,120,0,2,,,,,,,,,1,,,64,0
159000,note_on,0,0,3,,,,,,,,,2,,,62,62
159000,note_on,0,0,3,,,,,,,,,2,,,57,0
159000,note_on,0,0,3,,,,,,,,,2,,,56,54
159000,note_on,0,0,1,,,,,,,,,0,,,71,75
159000,note_on,60,0,1,,,,,,,,,0,,,69,0
159000,note_on,120,0,3,,,,,,,,,2,,,61,0
159240,note_on,0,0,2,,,,,,,,,1,,,64,36
159240,note_on,240,0,3,,,,,,,,,2,,,62,0
159240,note_on,0,0,3,,,,,,,,,2,,,56,0
159240,note_on,240,0,2,,,,,,,,,1,,,64,0
159240,note_on,0,0,3,,,,,,,,,2,,,57,36
159240,note_on,0,0,3,,,,,,,,,2,,,61,36
159240,note_on,240,0,1,,,,,,,,,0,,,71,0
159240,note_on,0,0,1,,,,,,,,,0,,,69,49
159300,note_on,60,0,1,,,,,,,,,0,,,69,0
159300,note_on,0,0,1,,,,,,,,,0,,,69,49
159360,note_on,120,0,2,,,,,,,,,1,,,64,0
159360,note_on,0,0,3,,,,,,,,,2,,,57,0
159360,note_on,120,0,3,,,,,,,,,2,,,61,0
159360,note_on,0,0,3,,,,,,,,,2,,,56,54
159360,note_on,0,0,1,,,,,,,,,0,,,71,75
159360,note_on,0,0,2,,,,,,,,,1,,,64,36
159360,note_on,60,0,1,,,,,,,,,0,,,69,0
159360,note_on,0,0,3,,,,,,,,,2,,,62,62
159600,note_on,240,0,1,,,,,,,,,0,,,71,0
159600,note_on,0,0,1,,,,,,,,,0,,,69,49
159600,note_on,0,0,3,,,,,,,,,2,,,61,36
159600,note_on,0,0,3,,,,,,,,,2,,,57,36
159600,note_on,0,0,3,,,,,,,,,2,,,56,0
159600,note_on,240,0,3,,,,,,,,,2,,,62,0
159600,note_on,240,0,2,,,,,,,,,1,,,64,0
159600,note_on,0,0,2,,,,,,,,,1,,,64,36
159660,note_on,0,0,1,,,,,,,,,0,,,69,49
159660,note_on,60,0,1,,,,,,,,,0,,,69,0
159720,note_on,60,0,1,,,,,,,,,0,,,69,0
159720,note_on,0,0,3,,,,,,,,,2,,,57,0
159720,note_on,120,0,3,,,,,,,,,2,,,61,0
159720,note_on,0,0,1,,,,,,,,,0,,,71,75
159720,note_on,0,0,3,,,,,,,,,2,,,62,36
159720,note_on,0,0,3,,,,,,,,,2,,,56,36
159720,note_on,0,0,2,,,,,,,,,1,,,64,36
159720,note_on,120,0,2,,,,,,,,,1,,,64,0
159960,note_on,0,0,3,,,,,,,,,2,,,56,0
159960,note_on,240,0,1,,,,,,,,,0,,,71,0
159960,note_on,240,0,3,,,,,,,,,2,,,62,0
159960,note_on,0,0,1,,,,,,,,,0,,,73,49
159960,note_on,240,0,2,,,,,,,,,1,,,64,0
159960,note_on,0,0,2,,,,,,,,,1,,,69,36
159960,note_on,0,0,3,,,,,,,,,2,,,55,36
159960,note_on,0,0,3,,,,,,,,,2,,,57,36
159960,note_on,0,0,3,,,,,,,,,2,,,64,36
160020,note_on,0,0,1,,,,,,,,,0,,,73,49
160020,note_on,60,0,1,,,,,,,,,0,,,73,0
160080,note_on,120,0,2,,,,,,,,,1,,,69,0
160080,note_on,0,0,2,,,,,,,,,1,,,69,36
160080,note_on,120,0,3,,,,,,,,,2,,,64,0
160080,note_on,0,0,3,,,,,,,,,2,,,57,0
160080,note_on,0,0,1,,,,,,,,,0,,,76,49
160080,note_on,0,0,3,,,,,,,,,2,,,62,36
160080,note_on,0,0,3,,,,,,,,,2,,,57,36
160080,note_on,0,0,3,,,,,,,,,2,,,54,36
160080,note_on,0,0,3,,,,,,,,,2,,,55,0
160080,note_on,60,0,1,,,,,,,,,0,,,73,0
160140,note_on,60,0,1,,,,,,,,,0,,,76,0
160140,note_on,0,0,1,,,,,,,,,0,,,74,49
160200,note_on,0,0,3,,,,,,,,,2,,,57,0
160200,note_on,0,0,3,,,,,,,,,2,,,52,36
160200,note_on,0,0,3,,,,,,,,,2,,,64,36
160200,note_on,0,0,2,,,,,,,,,1,,,69,36
160200,note_on,120,0,2,,,,,,,,,1,,,69,0
160200,note_on,0,0,3,,,,,,,,,2,,,54,0
160200,note_on,120,0,3,,,,,,,,,2,,,62,0
160200,note_on,60,0,1,,,,,,,,,0,,,74,0
160200,note_on,0,0,1,,,,,,,,,0,,,73,49
160212,note_on,12,0,3,,,,,,,,,2,,,64,0
160212,note_on,0,0,3,,,,,,,,,2,,,52,0
160212,note_on,12,0,2,,,,,,,,,1,,,69,0
160212,note_on,12,0,1,,,,,,,,,0,,,73,0
160320,note_on,0,0,3,,,,,,,,,2,,,62,36
160320,note_on,108,0,3,,,,,,,,,2,,,52,36
160320,note_on,108,0,2,,,,,,,,,1,,,68,36
160320,note_on,108,0,1,,,,,,,,,0,,,71,49
160332,note_on,0,0,3,,,,,,,,,2,,,52,0
160332,note_on,12,0,3,,,,,,,,,2,,,62,0
160332,note_on,12,0,2,,,,,,,,,1,,,68,0
160332,note_on,12,0,1,,,,,,,,,0,,,71,0
160440,note_on,108,0,1,,,,,,,,,0,,,69,49
160440,note_on,0,0,3,,,,,,,,,2,,,61,36
160440,note_on,108,0,3,,,,,,,,,2,,,57,36
160560,control_change,0,0,3,,,,,,,,,2,64,127,,
160560,note_on,0,0,3,,,,,,,,,2,,,49,88
160560,note_on,0,0,3,,,,,,,,,2,,,61,88
160560,note_on,0,0,3,,,,,,,,,2,,,57,0
160560,note_on,120,0,1,,,,,,,,,0,,,69,0
160560,control_change,0,0,1,,,,,,,,,0,64,127,,
160560,note_on,120,0,3,,,,,,,,,2,,,61,0
160560,note_on,0,0,1,,,,,,,,,0,,,76,101
160560,note_on,0,0,1,,,,,,,,,0,,,64,101
160800,note_on,0,0,1,,,,,,,,,0,,,73,101
160800,note_on,0,0,1,,,,,,,,,0,,,61,101
160800,note_on,0,0,3,,,,,,,,,2,,,57,88
160800,note_on,240,0,1,,,,,,,,,0,,,76,0
160800,note_on,240,0,3,,,,,,,,,2,,,61,0
160800,note_on,0,0,3,,,,,,,,,2,,,49,0
160800,note_on,0,0,3,,,,,,,,,2,,,45,88
160800,note_on,0,0,1,,,,,,,,,0,,,64,0
160812,note_on,12,0,1,,,,,,,,,0,,,73,0
160812,note_on,0,0,1,,,,,,,,,0,,,61,0
160812,note_on,0,0,3,,,,,,,,,2,,,45,0
160812,note_on,12,0,3,,,,,,,,,2,,,57,0
160920,note_on,0,0,1,,,,,,,,,0,,,69,101
160920,note_on,0,0,3,,,,,,,,,2,,,54,88
160920,note_on,108,0,3,,,,,,,,,2,,,42,88
160920,note_on,108,0,1,,,,,,,,,0,,,57,101
160932,note_on,12,0,1,,,,,,,,,0,,,69,0
160932,note_on,0,0,3,,,,,,,,,2,,,42,0
160932,note_on,12,0,3,,,,,,,,,2,,,54,0
160932,note_on,0,0,1,,,,,,,,,0,,,57,0
161040,control_change,108,0,1,,,,,,,,,0,64,0,,
161040,note_on,0,0,1,,,,,,,,,0,,,66,101
161040,note_on,0,0,1,,,,,,,,,0,,,54,101
161040,control_change,108,0,3,,,,,,,,,2,64,0,,
161040,note_on,0,0,3,,,,,,,,,2,,,38,88
161040,note_on,0,0,3,,,,,,,,,2,,,50,88
161052,note_on,12,0,3,,,,,,,,,2,,,50,0
161052,note_on,0,0,1,,,,,,,,,0,,,54,0
161052,note_on,12,0,1,,,,,,,,,0,,,66,0
161052,note_on,0,0,3,,,,,,,,,2,,,38,0
161160,note_on,108,0,1,,,,,,,,,0,,,50,101
161160,note_on,108,0,3,,,,,,,,,2,,,35,88
161160,note_on,0,0,3,,,,,,,,,2,,,47,88
161160,note_on,0,0,1,,,,,,,,,0,,,62,101
161280,note_on,0,0,1,,,,,,,,,0,,,71,88
161280,note_on,0,0,1,,,,,,,,,0,,,50,0
161280,note_on,120,0,1,,,,,,,,,0,,,62,0
161280,note_on,0,0,3,,,,,,,,,2,,,44,75
161280,note_on,0,0,1,,,,,,,,,0,,,74,88
161280,note_on,0,0,3,,,,,,,,,2,,,32,75
161280,note_on,0,0,3,,,,,,,,,2,,,35,0
161280,note_on,120,0,3,,,,,,,,,2,,,47,0
161280,note_on,0,0,1,,,,,,,,,0,,,78,88
161520,note_on,0,0,1,,,,,,,,,0,,,74,88
161520,note_on,0,0,1,,,,,,,,,0,,,71,0
161520,note_on,0,0,1,,,,,,,,,0,,,74,0
161520,note_on,0,0,1,,,,,,,,,0,,,83,88
161520,note_on,240,0,1,,,,,,,,,0,,,78,0
161520,note_on,0,0,1,,,,,,,,,0,,,78,88
161520,note_on,0,0,3,,,,,,,,,2,,,57,75
161520,note_on,0,0,3,,,,,,,,,2,,,66,75
161520,note_on,0,0,3,,,,,,,,,2,,,62,75
161520,note_on,0,0,3,,,,,,,,,2,,,32,0
161520,note_on,240,0,3,,,,,,,,,2,,,44,0
162000,note_on,480,0,3,,,,,,,,,2,,,66,0
162000,note_on,0,0,3,,,,,,,,,2,,,57,0
162000,note_on,0,0,3,,,,,,,,,2,,,62,0
162060,note_on,540,0,1,,,,,,,,,0,,,83,0
162060,note_on,0,0,1,,,,,,,,,0,,,78,0
162060,note_on,0,0,1,,,,,,,,,0,,,74,0
162060,note_on,0,0,1,,,,,,,,,0,,,81,36
162120,note_on,60,0,1,,,,,,,,,0,,,81,0
162120,note_on,0,0,1,,,,,,,,,0,,,80,36
162180,note_on,60,0,1,,,,,,,,,0,,,80,0
162180,note_on,0,0,1,,,,,,,,,0,,,78,36
162240,note_on,60,0,1,,,,,,,,,0,,,78,0
162240,control_change,240,0,3,,,,,,,,,2,64,127,,
162240,note_on,0,0,3,,,,,,,,,2,,,57,36
162240,note_on,0,0,3,,,,,,,,,2,,,61,36
162240,note_on,0,0,3,,,,,,,,,2,,,64,36
162240,control_change,0,0,1,,,,,,,,,0,64,127,,
162240,note_on,0,0,1,,,,,,,,,0,,,76,36
162300,note_on,0,0,3,,,,,,,,,2,,,61,0
162300,note_on,60,0,3,,,,,,,,,2,,,64,0
162300,note_on,0,0,3,,,,,,,,,2,,,57,0
162360,note_on,0,0,1,,,,,,,,,0,,,88,36
162360,note_on,120,0,1,,,,,,,,,0,,,76,0
162360,note_on,60,0,3,,,,,,,,,2,,,73,36
162360,note_on,0,0,3,,,,,,,,,2,,,76,36
162540,note_on,180,0,1,,,,,,,,,0,,,88,0
162540,note_on,0,0,1,,,,,,,,,0,,,85,36
162600,note_on,60,0,1,,,,,,,,,0,,,85,0
162600,note_on,0,0,1,,,,,,,,,0,,,85,36
162600,note_on,0,0,3,,,,,,,,,2,,,73,36
162600,note_on,0,0,3,,,,,,,,,2,,,69,36
162600,note_on,0,0,3,,,,,,,,,2,,,73,0
162600,note_on,240,0,3,,,,,,,,,2,,,76,0
162612,note_on,0,0,3,,,,,,,,,2,,,69,0
162612,note_on,12,0,3,,,,,,,,,2,,,73,0
162660,note_on,60,0,1,,,,,,,,,0,,,85,0
162660,note_on,0,0,1,,,,,,,,,0,,,81,36
162720,note_on,0,0,1,,,,,,,,,0,,,81,36
162720,control_change,0,0,1,,,,,,,,,0,64,0,,
162720,note_on,60,0,1,,,,,,,,,0,,,81,0
162720,control_change,108,0,3,,,,,,,,,2,64,0,,
162720,note_on,0,0,3,,,,,,,,,2,,,66,36
162720,note_on,0,0,3,,,,,,,,,2,,,69,36
162732,note_on,0,0,3,,,,,,,,,2,,,66,0
162732,note_on,12,0,3,,,,,,,,,2,,,69,0
162780,note_on,60,0,1,,,,,,,,,0,,,81,0
162780,note_on,0,0,1,,,,,,,,,0,,,78,36
162840,note_on,0,0,3,,,,,,,,,2,,,66,36
162840,note_on,108,0,3,,,,,,,,,2,,,62,36
162840,note_on,0,0,1,,,,,,,,,0,,,78,36
162840,note_on,60,0,1,,,,,,,,,0,,,78,0
162852,note_on,12,0,3,,,,,,,,,2,,,66,0
162852,note_on,0,0,3,,,,,,,,,2,,,62,0
162900,note_on,0,0,1,,,,,,,,,0,,,74,36
162900,note_on,60,0,1,,,,,,,,,0,,,78,0
162960,note_on,60,0,1,,,,,,,,,0,,,74,0
162960,note_on,0,0,1,,,,,,,,,0,,,74,36
162960,note_on,108,0,3,,,,,,,,,2,,,59,36
162960,note_on,0,0,3,,,,,,,,,2,,,62,36
162972,note_on,12,0,1,,,,,,,,,0,,,74,0
162972,note_on,0,0,3,,,,,,,,,2,,,59,0
162972,note_on,12,0,3,,,,,,,,,2,,,62,0
163080,note_on,0,0,1,,,,,,,,,0,,,72,57
163080,note_on,0,0,1,,,,,,,,,0,,,77,62
163080,note_on,0,0,3,,,,,,,,,2,,,65,62
163080,note_on,108,0,1,,,,,,,,,0,,,69,52
163080,note_on,108,0,3,,,,,,,,,2,,,57,52
163080,note_on,0,0,3,,,,,,,,,2,,,60,57
163680,control_change,3348,0,2,,,,,,,,,1,64,127,,
163680,note_on,0,0,2,,,,,,,,,1,,,71,49
163680,control_change,30600,0,4,,,,,,,,,3,64,127,,
163680,note_on,0,0,3,,,,,,,,,2,,,57,0
163680,note_on,0,0,1,,,,,,,,,0,,,72,0
163680,note_on,600,0,1,,,,,,,,,0,,,77,0
163680,note_on,0,0,3,,,,,,,,,2,,,64,36
163680,note_on,0,0,4,,,,,,,,,3,,,59,36
163680,note_on,600,0,3,,,,,,,,,2,,,65,0
163680,note_on,0,0,1,,,,,,,,,0,,,69,0
163680,note_on,0,0,1,,,,,,,,,0,,,68,49
163680,note_on,0,0,1,,,,,,,,,0,,,76,49
163680,note_on,0,0,3,,,,,,,,,2,,,60,0
163680,note_on,0,0,3,,,,,,,,,2,,,56,36
163740,note_on,0,0,2,,,,,,,,,1,,,73,49
163740,note_on,60,0,2,,,,,,,,,1,,,71,0
163740,note_on,0,0,4,,,,,,,,,3,,,61,36
163740,note_on,60,0,4,,,,,,,,,3,,,59,0
163800,note_on,60,0,2,,,,,,,,,1,,,73,0
163800,note_on,0,0,2,,,,,,,,,1,,,74,62
163800,note_on,0,0,4,,,,,,,,,3,,,62,49
163800,note_on,60,0,4,,,,,,,,,3,,,61,0
163860,note_on,60,0,2,,,,,,,,,1,,,74,0
163860,note_on,0,0,4,,,,,,,,,3,,,61,49
163860,note_on,60,0,4,,,,,,,,,3,,,62,0
163860,note_on,0,0,2,,,,,,,,,1,,,73,62
163920,note_on,60,0,4,,,,,,,,,3,,,61,0
163920,note_on,0,0,4,,,,,,,,,3,,,59,62
163920,note_on,60,0,2,,,,,,,,,1,,,73,0
163920,note_on,0,0,2,,,,,,,,,1,,,71,75
163980,note_on,60,0,4,,,,,,,,,3,,,59,0
163980,note_on,60,0,2,,,,,,,,,1,,,71,0
163980,control_change,0,0,2,,,,,,,,,1,64,0,,
163980,note_on,0,0,2,,,,,,,,,1,,,73,75
163980,note_on,0,0,4,,,,,,,,,3,,,61,62
163980,control_change,0,0,4,,,,,,,,,3,64,0,,
164040,note_on,60,0,2,,,,,,,,,1,,,73,0
164040,note_on,360,0,1,,,,,,,,,0,,,74,96
164040,note_on,60,0,4,,,,,,,,,3,,,61,0
164040,note_on,360,0,3,,,,,,,,,2,,,62,62
164280,note_on,240,0,3,,,,,,,,,2,,,62,0
164280,note_on,0,0,3,,,,,,,,,2,,,57,62
164280,note_on,0,0,3,,,,,,,,,2,,,56,0
164280,note_on,240,0,1,,,,,,,,,0,,,74,0
164280,note_on,0,0,1,,,,,,,,,0,,,68,0
164280,note_on,0,0,1,,,,,,,,,0,,,69,75
164280,note_on,0,0,1,,,,,,,,,0,,,73,75
164280,note_on,0,0,3,,,,,,,,,2,,,61,62
164400,note_on,120,0,3,,,,,,,,,2,,,61,0
164400,note_on,0,0,3,,,,,,,,,2,,,64,0
164400,note_on,0,0,3,,,,,,,,,2,,,50,36
164400,note_on,0,0,3,,,,,,,,,2,,,57,0
164400,note_on,0,0,1,,,,,,,,,0,,,76,49
164400,note_on,360,0,2,,,,,,,,,1,,,66,36
164400,note_on,0,0,2,,,,,,,,,1,,,71,36
164400,note_on,120,0,1,,,,,,,,,0,,,73,0
164400,note_on,0,0,1,,,,,,,,,0,,,69,0
164400,note_on,0,0,1,,,,,,,,,0,,,76,0
164412,note_on,12,0,3,,,,,,,,,2,,,50,0
164460,note_on,60,0,1,,,,,,,,,0,,,76,0
164460,note_on,0,0,1,,,,,,,,,0,,,74,49
164520,note_on,108,0,3,,,,,,,,,2,,,52,36
164520,note_on,120,0,2,,,,,,,,,1,,,71,0
164520,note_on,0,0,2,,,,,,,,,1,,,64,36
164520,note_on,0,0,2,,,,,,,,,1,,,69,36
164520,note_on,60,0,1,,,,,,,,,0,,,74,0
164520,note_on,0,0,2,,,,,,,,,1,,,66,0
164520,note_on,0,0,1,,,,,,,,,0,,,74,49
164532,note_on,12,0,3,,,,,,,,,2,,,52,0
164580,note_on,0,0,1,,,,,,,,,0,,,73,49
164580,note_on,60,0,1,,,,,,,,,0,,,74,0
164640,note_on,108,0,3,,,,,,,,,2,,,52,36
164640,note_on,120,0,2,,,,,,,,,1,,,69,0
164640,note_on,0,0,2,,,,,,,,,1,,,64,0
164640,note_on,0,0,2,,,,,,,,,1,,,62,36
164640,note_on,60,0,1,,,,,,,,,0,,,73,0
164640,note_on,0,0,1,,,,,,,,,0,,,73,49
164640,note_on,0,0,2,,,,,,,,,1,,,68,36
164652,note_on,12,0,3,,,,,,,,,2,,,52,0
164700,note_on,60,0,1,,,,,,,,,0,,,73,0
164700,note_on,0,0,1,,,,,,,,,0,,,71,49
164760,note_on,108,0,3,,,,,,,,,2,,,57,36
164760,note_on,0,0,1,,,,,,,,,0,,,61,49
164760,note_on,0,0,1,,,,,,,,,0,,,69,49
164760,note_on,120,0,2,,,,,,,,,1,,,68,0
164760,note_on,0,0,2,,,,,,,,,1,,,62,0
164760,note_on,60,0,1,,,,,,,,,0,,,71,0
164880,note_on,120,0,1,,,,,,,,,0,,,69,0
164880,note_on,0,0,1,,,,,,,,,0,,,61,0
164880,note_on,120,0,3,,,,,,,,,2,,,57,0
165000,note_on,120,0,1,,,,,,,,,0,,,76,49
165000,note_on,120,0,3,,,,,,,,,2,,,61,36
165060,note_on,0,0,1,,,,,,,,,0,,,76,49
165060,note_on,60,0,1,,,,,,,,,0,,,76,0
165060,note_on,60,0,3,,,,,,,,,2,,,61,0
165060,note_on,0,0,3,,,,,,,,,2,,,61,36
165120,control_change,0,0,1,,,,,,,,,0,64,127,,
165120,note_on,0,0,1,,,,,,,,,0,,,64,75
165120,note_on,60,0,3,,,,,,,,,2,,,61,0
165120,control_change,0,0,3,,,,,,,,,2,64,127,,
165120,note_on,60,0,1,,,,,,,,,0,,,76,0
165120,note_on,0,0,3,,,,,,,,,2,,,49,36
165360,note_on,240,0,1,,,,,,,,,0,,,64,0
165360,note_on,0,0,1,,,,,,,,,0,,,76,49
165360,note_on,240,0,3,,,,,,,,,2,,,49,0
165360,note_on,0,0,3,,,,,,,,,2,,,61,36
165420,note_on,60,0,3,,,,,,,,,2,,,61,0
165420,control_change,0,0,3,,,,,,,,,2,64,0,,
165420,note_on,0,0,3,,,,,,,,,2,,,61,36
165420,note_on,0,0,1,,,,,,,,,0,,,76,49
165420,control_change,0,0,1,,,,,,,,,0,64,0,,
165420,note_on,60,0,1,,,,,,,,,0,,,76,0
165480,note_on,60,0,1,,,,,,,,,0,,,76,0
165480,control_change,0,0,1,,,,,,,,,0,64,127,,
165480,note_on,0,0,1,,,,,,,,,0,,,66,49
165480,note_on,60,0,3,,,,,,,,,2,,,61,0
165480,control_change,0,0,3,,,,,,,,,2,64,127,,
165480,note_on,0,0,3,,,,,,,,,2,,,50,36
165720,note_on,0,0,3,,,,,,,,,2,,,61,36
165720,note_on,240,0,3,,,,,,,,,2,,,50,0
165720,note_on,240,0,1,,,,,,,,,0,,,66,0
165720,note_on,0,0,1,,,,,,,,,0,,,76,49
165780,control_change,0,0,3,,,,,,,,,2,64,0,,
165780,note_on,60,0,1,,,,,,,,,0,,,76,0
165780,control_change,0,0,1,,,,,,,,,0,64,0,,
165780,note_on,0,0,1,,,,,,,,,0,,,76,49
165780,note_on,0,0,3,,,,,,,,,2,,,61,36
165780,note_on,60,0,3,,,,,,,,,2,,,61,0
165840,note_on,0,0,1,,,,,,,,,0,,,68,49
165840,note_on,60,0,1,,,,,,,,,0,,,76,0
165840,note_on,0,0,3,,,,,,,,,2,,,52,36
165840,note_on,60,0,3,,,,,,,,,2,,,61,0
165900,note_on,60,0,1,,,,,,,,,0,,,68,0
165900,note_on,0,0,3,,,,,,,,,2,,,62,36
165900,note_on,60,0,3,,,,,,,,,2,,,52,0
165900,note_on,0,0,1,,,,,,,,,0,,,76,49
165960,note_on,60,0,1,,,,,,,,,0,,,76,0
165960,note_on,0,0,1,,,,,,,,,0,,,69,49
165960,note_on,0,0,3,,,,,,,,,2,,,54,36
165960,note_on,60,0,3,,,,,,,,,2,,,62,0
166020,note_on,0,0,3,,,,,,,,,2,,,62,36
166020,note_on,60,0,1,,,,,,,,,0,,,69,0
166020,note_on,60,0,3,,,,,,,,,2,,,54,0
166020,note_on,0,0,1,,,,,,,,,0,,,76,49
166080,note_on,0,0,1,,,,,,,,,0,,,71,49
166080,note_on,60,0,1,,,,,,,,,0,,,76,0
166080,note_on,60,0,3,,,,,,,,,2,,,62,0
166080,note_on,0,0,3,,,,,,,,,2,,,56,36
166140,note_on,60,0,3,,,,,,,,,2,,,56,0
166140,note_on,60,0,1,,,,,,,,,0,,,71,0
166140,note_on,0,0,3,,,,,,,,,2,,,62,36
166140,note_on,0,0,1,,,,,,,,,0,,,76,49
166200,note_on,60,0,3,,,,,,,,,2,,,62,0
166200,note_on,0,0,3,,,,,,,,,2,,,57,49
166200,note_on,0,0,1,,,,,,,,,0,,,73,62
166200,note_on,60,0,1,,,,,,,,,0,,,76,0
166260,note_on,60,0,3,,,,,,,,,2,,,57,0
166260,note_on,0,0,3,,,,,,,,,2,,,61,49
166260,note_on,60,0,1,,,,,,,,,0,,,73,0
166260,note_on,0,0,1,,,,,,,,,0,,,76,62
166320,note_on,0,0,3,,,,,,,,,2,,,56,49
166320,note_on,60,0,3,,,,,,,,,2,,,61,0
166320,note_on,0,0,1,,,,,,,,,0,,,71,62
166320,note_on,60,0,1,,,,,,,,,0,,,76,0
166380,note_on,0,0,3,,,,,,,,,2,,,61,49
166380,note_on,0,0,1,,,,,,,,,0,,,77,62
166380,note_on,60,0,3,,,,,,,,,2,,,56,0
166380,note_on,60,0,1,,,,,,,,,0,,,71,0
166440,note_on,60,0,1,,,,,,,,,0,,,77,0
166440,note_on,0,0,1,,,,,,,,,0,,,69,62
166440,note_on,0,0,3,,,,,,,,,2,,,54,49
166440,note_on,60,0,3,,,,,,,,,2,,,61,0
166500,note_on,0,0,3,,,,,,,,,2,,,61,49
166500,note_on,60,0,3,,,,,,,,,2,,,54,0
166500,note_on,60,0,1,,,,,,,,,0,,,69,0
166500,note_on,0,0,1,,,,,,,,,0,,,78,62
166560,note_on,60,0,1,,,,,,,,,0,,,78,0
166560,note_on,0,0,1,,,,,,,,,0,,,78,75
166560,note_on,0,0,3,,,,,,,,,2,,,50,62
166560,note_on,60,0,3,,,,,,,,,2,,,61,0
166620,note_on,60,0,3,,,,,,,,,2,,,50,0
166620,note_on,60,0,1,,,,,,,,,0,,,78,0
166620,note_on,0,0,3,,,,,,,,,2,,,59,62
166620,note_on,0,0,1,,,,,,,,,0,,,83,75
166680,note_on,0,0,3,,,,,,,,,2,,,52,62
166680,note_on,60,0,3,,,,,,,,,2,,,59,0
166680,note_on,0,0,1,,,,,,,,,0,,,80,75
166680,note_on,60,0,1,,,,,,,,,0,,,83,0
166740,note_on,60,0,1,,,,,,,,,0,,,80,0
166740,note_on,0,0,1,,,,,,,,,0,,,85,75
166740,note_on,60,0,3,,,,,,,,,2,,,52,0
166740,note_on,0,0,3,,,,,,,,,2,,,61,62
166800,note_on,60,0,1,,,,,,,,,0,,,85,0
166800,note_on,60,0,3,,,,,,,,,2,,,61,0
166800,note_on,0,0,3,,,,,,,,,2,,,52,62
166800,note_on,0,0,1,,,,,,,,,0,,,80,75
166860,note_on,60,0,3,,,,,,,,,2,,,52,0
166860,note_on,60,0,1,,,,,,,,,0,,,80,0
166860,note_on,0,0,1,,,,,,,,,0,,,88,75
166860,note_on,0,0,3,,,,,,,,,2,,,62,62
166920,note_on,0,0,3,,,,,,,,,2,,,57,75
166920,note_on,60,0,1,,,,,,,,,0,,,88,0
166920,note_on,0,0,1,,,,,,,,,0,,,81,88
166920,note_on,60,0,3,,,,,,,,,2,,,62,0
166920,note_on,0,0,3,,,,,,,,,2,,,61,75
167040,note_on,0,0,3,,,,,,,,,2,,,33,88
167040,note_on,0,0,3,,,,,,,,,2,,,57,0
167040,note_on,0,0,3,,,,,,,,,2,,,45,88
167040,note_on,120,0,1,,,,,,,,,0,,,81,0
167040,note_on,120,0,3,,,,,,,,,2,,,61,0
167160,note_on,120,0,1,,,,,,,,,0,,,68,101
167160,note_on,0,0,1,,,,,,,,,0,,,71,101
167160,note_on,0,0,1,,,,,,,,,0,,,74,101
167160,note_on,0,0,1,,,,,,,,,0,,,76,101
167220,note_on,0,0,1,,,,,,,,,0,,,74,101
167220,note_on,0,0,1,,,,,,,,,0,,,71,101
167220,note_on,0,0,1,,,,,,,,,0,,,68,101
167220,note_on,0,0,1,,,,,,,,,0,,,76,101
167220,note_on,0,0,1,,,,,,,,,0,,,74,0
167220,note_on,60,0,1,,,,,,,,,0,,,76,0
167220,note_on,0,0,1,,,,,,,,,0,,,68,0
167220,note_on,0,0,1,,,,,,,,,0,,,71,0
167280,note_on,0,0,1,,,,,,,,,0,,,71,0
167280,note_on,0,0,1,,,,,,,,,0,,,74,0
167280,note_on,0,0,1,,,,,,,,,0,,,69,117
167280,note_on,0,0,1,,,,,,,,,0,,,73,122
167280,note_on,0,0,1,,,,,,,,,0,,,76,127
167280,note_on,0,0,1,,,,,,,,,0,,,68,0
167280,note_on,60,0,1,,,,,,,,,0,,,76,0
167400,note_on,0,0,3,,,,,,,,,2,,,45,114
167400,note_on,360,0,3,,,,,,,,,2,,,45,0
167400,note_on,0,0,3,,,,,,,,,2,,,33,0
167400,note_on,0,0,3,,,,,,,,,2,,,33,106
167520,note_on,0,0,1,,,,,,,,,0,,,71,101
167520,note_on,0,0,1,,,,,,,,,0,,,73,0
167520,note_on,240,0,1,,,,,,,,,0,,,76,0
167520,note_on,0,0,1,,,,,,,,,0,,,76,101
167520,note_on,0,0,1,,,,,,,,,0,,,74,101
167520,note_on,0,0,1,,,,,,,,,0,,,69,0
167520,note_on,0,0,1,,,,,,,,,0,,,68,101
167580,note_on,0,0,1,,,,,,,,,0,,,74,101
167580,note_on,60,0,1,,,,,,,,,0,,,76,0
167580,note_on,0,0,1,,,,,,,,,0,,,68,0
167580,note_on,0,0,1,,,,,,,,,0,,,74,0
167580,note_on,0,0,1,,,,,,,,,0,,,68,101
167580,note_on,0,0,1,,,,,,,,,0,,,76,101
167580,note_on,0,0,1,,,,,,,,,0,,,71,101
167580,note_on,0,0,1,,,,,,,,,0,,,71,0
167640,note_on,0,0,1,,,,,,,,,0,,,71,0
167640,note_on,0,0,1,,,,,,,,,0,,,74,0
167640,note_on,60,0,1,,,,,,,,,0,,,76,0
167640,note_on,0,0,1,,,,,,,,,0,,,68,0
167640,note_on,0,0,1,,,,,,,,,0,,,69,117
167640,note_on,0,0,1,,,,,,,,,0,,,76,127
167640,note_on,0,0,1,,,,,,,,,0,,,73,122
167760,note_on,360,0,3,,,,,,,,,2,,,45,0
167760,note_on,0,0,3,,,,,,,,,2,,,33,0
167760,note_on,0,0,3,,,,,,,,,2,,,33,106
167760,note_on,0,0,3,,,,,,,,,2,,,45,114
167880,note_on,0,0,1,,,,,,,,,0,,,73,0
167880,note_on,0,0,1,,,,,,,,,0,,,69,0
167880,note_on,0,0,1,,,,,,,,,0,,,71,101
167880,note_on,0,0,1,,,,,,,,,0,,,74,101
167880,note_on,0,0,1,,,,,,,,,0,,,80,101
167880,note_on,240,0,1,,,,,,,,,0,,,76,0
167880,note_on,0,0,1,,,,,,,,,0,,,76,101
167940,note_on,0,0,1,,,,,,,,,0,,,74,101
167940,note_on,0,0,1,,,,,,,,,0,,,76,101
167940,note_on,0,0,1,,,,,,,,,0,,,71,101
167940,note_on,0,0,1,,,,,,,,,0,,,76,0
167940,note_on,0,0,1,,,,,,,,,0,,,74,0
167940,note_on,0,0,1,,,,,,,,,0,,,71,0
167940,note_on,60,0,1,,,,,,,,,0,,,80,0
167940,note_on,0,0,1,,,,,,,,,0,,,80,101
168000,note_on,0,0,1,,,,,,,,,0,,,76,122
168000,note_on,0,0,1,,,,,,,,,0,,,73,117
168000,note_on,0,0,1,,,,,,,,,0,,,76,0
168000,note_on,0,0,1,,,,,,,,,0,,,74,0
168000,note_on,60,0,1,,,,,,,,,0,,,80,0
168000,note_on,0,0,1,,,,,,,,,0,,,81,127
168000,note_on,0,0,1,,,,,,,,,0,,,71,0
168120,note_on,0,0,3,,,,,,,,,2,,,33,0
168120,note_on,0,0,3,,,,,,,,,2,,,33,106
168120,note_on,0,0,3,,,,,,,,,2,,,45,114
168120,note_on,360,0,3,,,,,,,,,2,,,45,0
168240,note_on,240,0,1,,,,,,,,,0,,,81,0
168240,note_on,0,0,1,,,,,,,,,0,,,76,0
168240,note_on,0,0,1,,,,,,,,,0,,,73,0
168240,note_on,0,0,1,,,,,,,,,0,,,76,101
168240,note_on,0,0,1,,,,,,,,,0,,,80,101
168240,note_on,0,0,1,,,,,,,,,0,,,83,101
168300,note_on,0,0,1,,,,,,,,,0,,,83,101
168300,note_on,0,0,1,,,,,,,,,0,,,76,101
168300,note_on,0,0,1,,,,,,,,,0,,,76,0
168300,note_on,0,0,1,,,,,,,,,0,,,80,0
168300,note_on,0,0,1,,,,,,,,,0,,,80,101
168300,note_on,60,0,1,,,,,,,,,0,,,83,0
168360,control_change,0,0,1,,,,,,,,,0,64,127,,
168360,control_change,240,0,3,,,,,,,,,2,64,127,,
168360,note_on,0,0,1,,,,,,,,,0,,,85,127
168360,note_on,60,0,1,,,,,,,,,0,,,83,0
168360,note_on,0,0,1,,,,,,,,,0,,,80,0
168360,note_on,0,0,1,,,,,,,,,0,,,76,0
168360,note_on,0,0,1,,,,,,,,,0,,,76,117
168360,note_on,0,0,1,,,,,,,,,0,,,81,122
168480,note_on,0,0,3,,,,,,,,,2,,,45,114
168480,note_on,0,0,3,,,,,,,,,2,,,33,106
168480,note_on,120,0,3,,,,,,,,,2,,,45,0
168480,note_on,0,0,3,,,,,,,,,2,,,33,0
168600,note_on,240,0,1,,,,,,,,,0,,,85,0
168600,note_on,0,0,1,,,,,,,,,0,,,81,0
168600,note_on,0,0,1,,,,,,,,,0,,,76,0
168600,note_on,0,0,1,,,,,,,,,0,,,80,101
168600,note_on,0,0,1,,,,,,,,,0,,,83,101
168600,note_on,0,0,1,,,,,,,,,0,,,86,101
168600,note_on,0,0,1,,,,,,,,,0,,,88,101
168660,note_on,60,0,1,,,,,,,,,0,,,88,0
168660,note_on,0,0,1,,,,,,,,,0,,,80,0
168660,note_on,0,0,1,,,,,,,,,0,,,83,0
168660,note_on,0,0,1,,,,,,,,,0,,,88,101
168660,note_on,0,0,1,,,,,,,,,0,,,80,101
168660,note_on,0,0,1,,,,,,,,,0,,,83,101
168660,note_on,0,0,1,,,,,,,,,0,,,86,101
168660,note_on,0,0,1,,,,,,,,,0,,,86,0
168720,note_on,0,0,1,,,,,,,,,0,,,88,127
168720,note_on,0,0,1,,,,,,,,,0,,,85,122
168720,note_on,0,0,1,,,,,,,,,0,,,81,117
168720,note_on,0,0,1,,,,,,,,,0,,,86,0
168720,note_on,0,0,1,,,,,,,,,0,,,80,0
168720,note_on,60,0,1,,,,,,,,,0,,,88,0
168720,note_on,0,0,1,,,,,,,,,0,,,83,0
168732,note_on,12,0,1,,,,,,,,,0,,,88,0
168732,note_on,0,0,1,,,,,,,,,0,,,85,0
168732,note_on,0,0,1,,,,,,,,,0,,,81,0
168840,note_on,0,0,3,,,,,,,,,2,,,37,106
168840,note_on,0,0,3,,,,,,,,,2,,,49,114
168840,note_on,0,0,3,,,,,,,,,2,,,33,0
168840,note_on,360,0,3,,,,,,,,,2,,,45,0
168840,note_on,108,0,1,,,,,,,,,0,,,81,117
168840,note_on,0,0,1,,,,,,,,,0,,,85,122
168840,note_on,0,0,1,,,,,,,,,0,,,88,127
168852,note_on,0,0,1,,,,,,,,,0,,,81,0
168852,note_on,12,0,1,,,,,,,,,0,,,88,0
168852,note_on,12,0,3,,,,,,,,,2,,,49,0
168852,note_on,0,0,3,,,,,,,,,2,,,37,0
168852,note_on,0,0,1,,,,,,,,,0,,,85,0
168960,control_change,108,0,3,,,,,,,,,2,64,0,,
168960,note_on,0,0,3,,,,,,,,,2,,,52,114
168960,note_on,0,0,1,,,,,,,,,0,,,92,127
168960,note_on,0,0,1,,,,,,,,,0,,,88,123
168960,note_on,0,0,1,,,,,,,,,0,,,83,115
168960,control_change,108,0,1,,,,,,,,,0,64,0,,
168960,note_on,0,0,3,,,,,,,,,2,,,40,106
168960,note_on,0,0,1,,,,,,,,,0,,,86,119
168972,note_on,12,0,3,,,,,,,,,2,,,52,0
168972,note_on,0,0,3,,,,,,,,,2,,,40,0
168972,note_on,0,0,1,,,,,,,,,0,,,88,0
168972,note_on,12,0,1,,,,,,,,,0,,,92,0
168972,note_on,0,0,1,,,,,,,,,0,,,83,0
168972,note_on,0,0,1,,,,,,,,,0,,,86,0
169080,key_signature,10080,1,0,,,,,C,,,,,,,,
169080,note_on,0,0,3,,,,,,,,,2,,,45,127
169080,note_on,108,0,3,,,,,,,,,2,,,33,124
169080,end_of_track,0,1,0,,,,,,,,,,,,,
169080,note_on,0,0,1,,,,,,,,,0,,,93,127
169080,note_on,0,0,1,,,,,,,,,0,,,85,119
169080,note_on,0,0,1,,,,,,,,,0,,,88,123
169080,note_on,108,0,1,,,,,,,,,0,,,81,115
169200,note_on,120,0,1,,,,,,,,,0,,,93,0
169200,note_on,0,0,1,,,,,,,,,0,,,81,0
169200,note_on,0,0,1,,,,,,,,,0,,,85,0
169200,note_on,0,0,1,,,,,,,,,0,,,88,0
169200,note_on,120,0,3,,,,,,,,,2,,,45,0
169200,note_on,0,0,3,,,,,,,,,2,,,33,0
169800,control_change,5760,0,4,,,,,,,,,3,64,0,,
169800,control_change,600,0,3,,,,,,,,,2,64,0,,
169800,control_change,600,0,1,,,,,,,,,0,64,0,,
169800,end_of_track,0,1,1,,,,,,,,,,,,,
169800,control_change,5040,0,2,,,,,,,,,1,64,0,,
169800,end_of_track,0,1,2,,,,,,,,,,,,,
169800,end_of_track,0,1,3,,,,,,,,,,,,,
169800,end_of_track,0,1,4,,,,,,,,,,,,,
