tick,type,numerator,denominator,clocks_per_click,notated_32nd_notes_per_beat,time,meta,track,key,tempo,port,program,channel,control,value,note,velocity
0,time_signature,4,4,24,8,0,1,0,,,,,,,,,
0,control_change,,,,,0,0,1,,,,,0,7,64,,
0,control_change,,,,,0,0,1,,,,,0,64,95,,
0,control_change,,,,,0,0,1,,,,,0,91,96,,
0,note_on,,,,,0,0,1,,,,,0,,,60,48
0,note_on,,,,,0,0,1,,,,,0,,,68,48
0,track_name,,,,,0,1,7,,,,,,,,,
0,midi_port,,,,,0,1,2,,,0,,,,,,
0,program_change,,,,,0,0,2,,,,0,0,,,,
0,control_change,,,,,0,0,2,,,,,0,7,64,,
0,note_on,,,,,0,0,2,,,,,0,,,44,47
0,note_on,,,,,0,0,2,,,,,0,,,51,47
0,program_change,,,,,0,0,1,,,,0,0,,,,
0,midi_port,,,,,0,1,3,,,0,,,,,,
0,end_of_track,,,,,0,1,3,,,,,,,,,
0,midi_port,,,,,0,1,4,,,0,,,,,,
0,track_name,,,,,0,1,4,,,,,,,,,
0,end_of_track,,,,,0,1,4,,,,,,,,,
0,midi_port,,,,,0,1,5,,,0,,,,,,
0,track_name,,,,,0,1,5,,,,,,,,,
0,end_of_track,,,,,0,1,5,,,,,,,,,
0,midi_port,,,,,0,1,6,,,0,,,,,,
0,track_name,,,,,0,1,6,,,,,,,,,
0,end_of_track,,,,,0,1,6,,,,,,,,,
0,midi_port,,,,,0,1,7,,,0,,,,,,
0,track_name,,,,,0,1,3,,,,,,,,,
0,midi_port,,,,,0,1,1,,,0,,,,,,
0,end_of_track,,,,,0,1,7,,,,,,,,,
0,key_signature,,,,,0,1,0,C,,,,,,,,
0,set_tempo,,,,,0,1,0,,1875000,,,,,,,
105,note_on,,,,,0,0,2,,,,,0,,,44,0
105,note_on,,,,,105,0,2,,,,,0,,,51,0
105,note_on,,,,,0,0,1,,,,,0,,,60,0
105,note_on,,,,,105,0,1,,,,,0,,,68,0
117,control_change,,,,,12,0,1,,,,,0,64,0,,
120,note_on,,,,,3,0,1,,,,,0,,,61,45
120,control_change,,,,,0,0,1,,,,,0,64,95,,
120,note_on,,,,,0,0,1,,,,,0,,,68,45
120,note_on,,,,,0,0,2,,,,,0,,,51,37
120,note_on,,,,,15,0,2,,,,,0,,,44,37
150,note_on,,,,,0,0,1,,,,,0,,,67,38
150,note_on,,,,,30,0,1,,,,,0,,,68,0
180,note_on,,,,,0,0,1,,,,,0,,,70,42
180,note_on,,,,,30,0,1,,,,,0,,,67,0
210,note_on,,,,,30,0,1,,,,,0,,,70,0
210,note_on,,,,,0,0,1,,,,,0,,,67,38
237,control_change,,,,,27,0,1,,,,,0,64,0,,
240,note_on,,,,,0,0,1,,,,,0,,,68,40
240,note_on,,,,,120,0,2,,,,,0,,,51,0
240,note_on,,,,,3,0,1,,,,,0,,,67,0
240,note_on,,,,,0,0,2,,,,,0,,,44,0
240,note_on,,,,,0,0,2,,,,,0,,,48,39
240,note_on,,,,,0,0,2,,,,,0,,,51,39
240,control_change,,,,,0,0,1,,,,,0,64,95,,
240,note_on,,,,,0,0,1,,,,,0,,,61,0
240,note_on,,,,,0,0,1,,,,,0,,,63,40
320,set_tempo,,,,,320,1,0,,1898734,,,,,,,
330,note_on,,,,,90,0,1,,,,,0,,,63,0
330,note_on,,,,,0,0,1,,,,,0,,,63,32
330,control_change,,,,,0,0,1,,,,,0,64,0,,
330,set_tempo,,,,,10,1,0,,1910828,,,,,,,
330,note_on,,,,,90,0,2,,,,,0,,,48,0
330,note_on,,,,,0,0,2,,,,,0,,,49,38
337,note_on,,,,,7,0,1,,,,,0,,,63,0
338,note_on,,,,,1,0,1,,,,,0,,,65,33
340,set_tempo,,,,,10,1,0,,1916932,,,,,,,
345,note_on,,,,,0,0,1,,,,,0,,,67,35
345,note_on,,,,,7,0,1,,,,,0,,,65,0
350,set_tempo,,,,,10,1,0,,1923076,,,,,,,
352,note_on,,,,,7,0,1,,,,,0,,,67,0
352,note_on,,,,,0,0,1,,,,,0,,,65,36
359,note_on,,,,,7,0,1,,,,,0,,,65,0
360,note_on,,,,,1,0,1,,,,,0,,,63,38
360,set_tempo,,,,,10,1,0,,1941747,,,,,,,
360,note_on,,,,,30,0,2,,,,,0,,,49,0
360,note_on,,,,,0,0,2,,,,,0,,,48,34
370,set_tempo,,,,,10,1,0,,1948051,,,,,,,
380,set_tempo,,,,,10,1,0,,1954397,,,,,,,
390,set_tempo,,,,,10,1,0,,1967213,,,,,,,
400,set_tempo,,,,,10,1,0,,1980198,,,,,,,
410,set_tempo,,,,,10,1,0,,1986754,,,,,,,
412,note_on,,,,,52,0,2,,,,,0,,,48,0
412,note_on,,,,,0,0,1,,,,,0,,,68,0
412,note_on,,,,,52,0,1,,,,,0,,,63,0
412,note_on,,,,,0,0,2,,,,,0,,,51,0
420,note_on,,,,,8,0,1,,,,,0,,,63,41
420,note_on,,,,,8,0,2,,,,,0,,,51,37
420,note_on,,,,,0,0,2,,,,,0,,,43,37
420,note_on,,,,,0,0,1,,,,,0,,,70,41
420,set_tempo,,,,,10,1,0,,1993355,,,,,,,
430,set_tempo,,,,,10,1,0,,2000000,,,,,,,
440,set_tempo,,,,,10,1,0,,1973684,,,,,,,
450,set_tempo,,,,,10,1,0,,1960784,,,,,,,
470,set_tempo,,,,,20,1,0,,1948051,,,,,,,
480,note_on,,,,,0,0,1,,,,,0,,,72,47
480,set_tempo,,,,,10,1,0,,1935483,,,,,,,
480,note_on,,,,,0,0,2,,,,,0,,,51,41
480,note_on,,,,,0,0,2,,,,,0,,,44,41
480,note_on,,,,,0,0,2,,,,,0,,,51,0
480,note_on,,,,,60,0,2,,,,,0,,,43,0
480,note_on,,,,,60,0,1,,,,,0,,,70,0
480,note_on,,,,,0,0,1,,,,,0,,,63,0
480,note_on,,,,,0,0,1,,,,,0,,,63,47
480,control_change,,,,,0,0,1,,,,,0,64,96,,
490,set_tempo,,,,,10,1,0,,1923076,,,,,,,
500,set_tempo,,,,,10,1,0,,1916932,,,,,,,
510,set_tempo,,,,,10,1,0,,1910828,,,,,,,
520,set_tempo,,,,,10,1,0,,1892744,,,,,,,
530,set_tempo,,,,,10,1,0,,1886792,,,,,,,
540,note_on,,,,,0,0,1,,,,,0,,,63,0
540,note_on,,,,,0,0,1,,,,,0,,,60,40
540,note_on,,,,,0,0,1,,,,,0,,,70,40
540,note_on,,,,,0,0,2,,,,,0,,,52,39
540,note_on,,,,,0,0,1,,,,,0,,,72,40
540,set_tempo,,,,,10,1,0,,1875000,,,,,,,
540,note_on,,,,,60,0,2,,,,,0,,,51,0
540,note_on,,,,,0,0,2,,,,,0,,,44,0
540,note_on,,,,,0,0,2,,,,,0,,,43,39
540,note_on,,,,,60,0,1,,,,,0,,,72,0
560,set_tempo,,,,,20,1,0,,1851851,,,,,,,
570,set_tempo,,,,,10,1,0,,1846153,,,,,,,
580,set_tempo,,,,,10,1,0,,1840490,,,,,,,
590,set_tempo,,,,,10,1,0,,1829268,,,,,,,
600,note_on,,,,,60,0,2,,,,,0,,,52,0
600,note_on,,,,,0,0,1,,,,,0,,,60,0
600,note_on,,,,,0,0,1,,,,,0,,,60,35
600,note_on,,,,,0,0,1,,,,,0,,,68,35
600,note_on,,,,,0,0,1,,,,,0,,,72,35
600,note_on,,,,,0,0,2,,,,,0,,,53,37
600,note_on,,,,,0,0,2,,,,,0,,,41,37
600,note_on,,,,,0,0,2,,,,,0,,,43,0
600,note_on,,,,,0,0,1,,,,,0,,,70,0
600,note_on,,,,,60,0,1,,,,,0,,,72,0
600,set_tempo,,,,,10,1,0,,1829268,,,,,,,
620,set_tempo,,,,,20,1,0,,1823708,,,,,,,
640,set_tempo,,,,,20,1,0,,1812688,,,,,,,
650,set_tempo,,,,,10,1,0,,1807228,,,,,,,
660,note_on,,,,,0,0,2,,,,,0,,,37,42
660,set_tempo,,,,,10,1,0,,1796407,,,,,,,
660,note_on,,,,,60,0,2,,,,,0,,,53,0
660,note_on,,,,,0,0,2,,,,,0,,,41,0
660,note_on,,,,,0,0,2,,,,,0,,,49,42
660,note_on,,,,,0,0,1,,,,,0,,,73,43
660,note_on,,,,,60,0,1,,,,,0,,,72,0
660,note_on,,,,,0,0,1,,,,,0,,,65,43
660,note_on,,,,,0,0,1,,,,,0,,,60,0
660,note_on,,,,,0,0,1,,,,,0,,,68,0
660,note_on,,,,,0,0,1,,,,,0,,,70,43
717,control_change,,,,,57,0,1,,,,,0,64,0,,
720,note_on,,,,,3,0,1,,,,,0,,,73,0
720,note_on,,,,,0,0,1,,,,,0,,,63,49
720,note_on,,,,,0,0,1,,,,,0,,,68,49
720,note_on,,,,,0,0,1,,,,,0,,,72,49
720,control_change,,,,,0,0,1,,,,,0,64,96,,
720,note_on,,,,,0,0,2,,,,,0,,,51,50
720,note_on,,,,,0,0,1,,,,,0,,,65,0
720,note_on,,,,,60,0,2,,,,,0,,,49,0
720,note_on,,,,,0,0,2,,,,,0,,,37,0
720,note_on,,,,,0,0,2,,,,,0,,,39,50
720,set_tempo,,,,,60,1,0,,1785714,,,,,,,
720,note_on,,,,,0,0,1,,,,,0,,,70,0
730,set_tempo,,,,,10,1,0,,1780415,,,,,,,
760,set_tempo,,,,,30,1,0,,1791044,,,,,,,
770,set_tempo,,,,,10,1,0,,1801801,,,,,,,
780,set_tempo,,,,,10,1,0,,1823708,,,,,,,
790,set_tempo,,,,,10,1,0,,1829268,,,,,,,
800,set_tempo,,,,,10,1,0,,1840490,,,,,,,
810,set_tempo,,,,,10,1,0,,1857585,,,,,,,
820,set_tempo,,,,,10,1,0,,1863354,,,,,,,
830,set_tempo,,,,,10,1,0,,1869158,,,,,,,
840,note_on,,,,,0,0,1,,,,,0,,,63,0
840,set_tempo,,,,,10,1,0,,1875000,,,,,,,
840,note_on,,,,,0,0,1,,,,,0,,,68,0
840,note_on,,,,,120,0,1,,,,,0,,,72,0
840,note_on,,,,,0,0,1,,,,,0,,,70,32
840,note_on,,,,,0,0,1,,,,,0,,,67,32
840,note_on,,,,,0,0,1,,,,,0,,,63,32
850,set_tempo,,,,,10,1,0,,1898734,,,,,,,
860,set_tempo,,,,,10,1,0,,1904761,,,,,,,
870,set_tempo,,,,,10,1,0,,1916932,,,,,,,
880,set_tempo,,,,,10,1,0,,1929260,,,,,,,
885,control_change,,,,,0,0,1,,,,,0,64,0,,
885,note_on,,,,,0,0,1,,,,,0,,,63,0
885,note_on,,,,,0,0,1,,,,,0,,,67,0
885,note_on,,,,,45,0,1,,,,,0,,,70,0
885,note_on,,,,,165,0,2,,,,,0,,,51,0
885,note_on,,,,,0,0,2,,,,,0,,,39,0
890,set_tempo,,,,,10,1,0,,1941747,,,,,,,
900,set_tempo,,,,,10,1,0,,1954397,,,,,,,
900,note_on,,,,,15,0,1,,,,,0,,,71,43
930,set_tempo,,,,,30,1,0,,1948051,,,,,,,
940,set_tempo,,,,,10,1,0,,1929260,,,,,,,
950,set_tempo,,,,,10,1,0,,1923076,,,,,,,
960,note_on,,,,,60,0,1,,,,,0,,,71,0
960,set_tempo,,,,,10,1,0,,1916932,,,,,,,
960,control_change,,,,,0,0,1,,,,,0,64,96,,
960,note_on,,,,,0,0,2,,,,,0,,,55,44
960,note_on,,,,,75,0,2,,,,,0,,,48,44
960,note_on,,,,,0,0,1,,,,,0,,,72,39
960,note_on,,,,,0,0,1,,,,,0,,,64,39
970,set_tempo,,,,,10,1,0,,1910828,,,,,,,
990,set_tempo,,,,,20,1,0,,1904761,,,,,,,
1020,set_tempo,,,,,30,1,0,,1898734,,,,,,,
1030,set_tempo,,,,,10,1,0,,1892744,,,,,,,
1060,set_tempo,,,,,30,1,0,,1886792,,,,,,,
1077,control_change,,,,,117,0,1,,,,,0,64,0,,
1080,note_on,,,,,3,0,1,,,,,0,,,72,0
1080,note_on,,,,,0,0,1,,,,,0,,,64,0
1080,note_on,,,,,0,0,1,,,,,0,,,65,37
1080,control_change,,,,,0,0,1,,,,,0,64,95,,
1080,note_on,,,,,0,0,1,,,,,0,,,68,37
1080,note_on,,,,,120,0,2,,,,,0,,,55,0
1080,note_on,,,,,0,0,2,,,,,0,,,48,0
1080,note_on,,,,,0,0,2,,,,,0,,,41,39
1080,note_on,,,,,0,0,2,,,,,0,,,56,39
1090,set_tempo,,,,,30,1,0,,1875000,,,,,,,
1130,set_tempo,,,,,40,1,0,,1869158,,,,,,,
1150,set_tempo,,,,,20,1,0,,1863354,,,,,,,
1170,note_on,,,,,0,0,1,,,,,0,,,67,33
1170,note_on,,,,,0,0,1,,,,,0,,,63,33
1170,note_on,,,,,0,0,1,,,,,0,,,65,0
1170,note_on,,,,,90,0,2,,,,,0,,,41,0
1170,note_on,,,,,90,0,1,,,,,0,,,68,0
1170,note_on,,,,,0,0,2,,,,,0,,,43,53
1185,note_on,,,,,0,0,2,,,,,0,,,44,53
1185,control_change,,,,,15,0,1,,,,,0,64,0,,
1185,note_on,,,,,15,0,2,,,,,0,,,43,0
1190,set_tempo,,,,,40,1,0,,1857585,,,,,,,
1200,note_on,,,,,0,0,2,,,,,0,,,56,54
1200,note_on,,,,,15,0,2,,,,,0,,,44,0
1200,note_on,,,,,15,0,1,,,,,0,,,67,0
1200,note_on,,,,,0,0,1,,,,,0,,,63,0
1200,note_on,,,,,0,0,1,,,,,0,,,63,41
1200,note_on,,,,,0,0,1,,,,,0,,,67,41
1200,note_on,,,,,0,0,2,,,,,0,,,56,0
1200,note_on,,,,,0,0,2,,,,,0,,,46,54
1220,set_tempo,,,,,30,1,0,,1851851,,,,,,,
1260,note_on,,,,,0,0,1,,,,,0,,,62,36
1260,note_on,,,,,0,0,1,,,,,0,,,63,0
1260,note_on,,,,,0,0,1,,,,,0,,,65,36
1260,note_on,,,,,60,0,1,,,,,0,,,67,0
1280,set_tempo,,,,,60,1,0,,1846153,,,,,,,
1310,set_tempo,,,,,30,1,0,,1840490,,,,,,,
1340,set_tempo,,,,,30,1,0,,1834862,,,,,,,
1360,set_tempo,,,,,20,1,0,,1829268,,,,,,,
1365,note_on,,,,,165,0,2,,,,,0,,,46,0
1365,note_on,,,,,0,0,2,,,,,0,,,56,0
1365,note_on,,,,,0,0,1,,,,,0,,,65,0
1365,note_on,,,,,105,0,1,,,,,0,,,62,0
1380,set_tempo,,,,,20,1,0,,1823708,,,,,,,
1380,note_on,,,,,15,0,1,,,,,0,,,62,35
1380,note_on,,,,,0,0,1,,,,,0,,,65,35
1380,note_on,,,,,0,0,2,,,,,0,,,56,38
1380,note_on,,,,,15,0,2,,,,,0,,,46,38
1420,set_tempo,,,,,40,1,0,,1818181,,,,,,,
1440,note_on,,,,,60,0,1,,,,,0,,,65,0
1440,control_change,,,,,0,0,1,,,,,0,64,95,,
1440,note_on,,,,,0,0,1,,,,,0,,,67,43
1440,note_on,,,,,0,0,1,,,,,0,,,63,43
1440,note_on,,,,,60,0,2,,,,,0,,,56,0
1440,note_on,,,,,0,0,2,,,,,0,,,46,0
1440,note_on,,,,,0,0,2,,,,,0,,,55,45
1440,note_on,,,,,0,0,2,,,,,0,,,46,45
1440,note_on,,,,,0,0,1,,,,,0,,,62,0
1450,set_tempo,,,,,30,1,0,,1812688,,,,,,,
1490,set_tempo,,,,,40,1,0,,1807228,,,,,,,
1495,control_change,,,,,55,0,1,,,,,0,64,0,,
1500,note_on,,,,,5,0,1,,,,,0,,,63,0
1500,note_on,,,,,0,0,2,,,,,0,,,46,47
1500,note_on,,,,,0,0,2,,,,,0,,,60,47
1500,note_on,,,,,0,0,2,,,,,0,,,55,0
1500,note_on,,,,,60,0,2,,,,,0,,,46,0
1500,note_on,,,,,0,0,1,,,,,0,,,67,0
1500,note_on,,,,,0,0,1,,,,,0,,,68,47
1500,note_on,,,,,0,0,1,,,,,0,,,63,47
1500,control_change,,,,,0,0,1,,,,,0,64,96,,
1540,set_tempo,,,,,50,1,0,,1801801,,,,,,,
1545,note_on,,,,,0,0,1,,,,,0,,,72,53
1545,note_on,,,,,0,0,2,,,,,0,,,56,52
1545,note_on,,,,,45,0,1,,,,,0,,,68,0
1545,note_on,,,,,45,0,2,,,,,0,,,60,0
1555,control_change,,,,,10,0,1,,,,,0,64,0,,
1560,note_on,,,,,0,0,1,,,,,0,,,63,0
1560,note_on,,,,,0,0,1,,,,,0,,,70,53
1560,note_on,,,,,0,0,1,,,,,0,,,63,53
1560,control_change,,,,,0,0,1,,,,,0,64,96,,
1560,note_on,,,,,5,0,1,,,,,0,,,72,0
1560,note_on,,,,,15,0,2,,,,,0,,,56,0
1560,note_on,,,,,0,0,2,,,,,0,,,46,0
1560,note_on,,,,,0,0,2,,,,,0,,,55,52
1560,note_on,,,,,0,0,2,,,,,0,,,46,52
1615,control_change,,,,,55,0,1,,,,,0,64,0,,
1620,note_on,,,,,60,0,2,,,,,0,,,46,0
1620,note_on,,,,,0,0,2,,,,,0,,,55,0
1620,note_on,,,,,0,0,2,,,,,0,,,46,40
1620,note_on,,,,,0,0,2,,,,,0,,,53,40
1620,note_on,,,,,5,0,1,,,,,0,,,63,0
1620,note_on,,,,,0,0,1,,,,,0,,,70,0
1620,note_on,,,,,0,0,1,,,,,0,,,74,44
1620,note_on,,,,,0,0,1,,,,,0,,,68,44
1620,control_change,,,,,0,0,1,,,,,0,64,96,,
1660,set_tempo,,,,,120,1,0,,1807228,,,,,,,
1665,note_on,,,,,0,0,1,,,,,0,,,77,34
1665,note_on,,,,,45,0,1,,,,,0,,,74,0
1665,note_on,,,,,45,0,2,,,,,0,,,53,0
1665,note_on,,,,,0,0,2,,,,,0,,,50,36
1670,set_tempo,,,,,10,1,0,,1812688,,,,,,,
1677,control_change,,,,,12,0,1,,,,,0,64,0,,
1680,note_on,,,,,0,0,1,,,,,0,,,75,33
1680,note_on,,,,,0,0,2,,,,,0,,,51,32
1680,note_on,,,,,0,0,2,,,,,0,,,39,32
1680,note_on,,,,,0,0,2,,,,,0,,,46,0
1680,note_on,,,,,15,0,2,,,,,0,,,50,0
1680,control_change,,,,,0,0,1,,,,,0,64,95,,
1680,note_on,,,,,0,0,1,,,,,0,,,67,33
1680,note_on,,,,,0,0,1,,,,,0,,,68,0
1680,note_on,,,,,3,0,1,,,,,0,,,77,0
1690,set_tempo,,,,,20,1,0,,1829268,,,,,,,
1700,set_tempo,,,,,10,1,0,,1846153,,,,,,,
1710,set_tempo,,,,,10,1,0,,1851851,,,,,,,
1720,set_tempo,,,,,10,1,0,,1863354,,,,,,,
1730,set_tempo,,,,,10,1,0,,1875000,,,,,,,
1740,set_tempo,,,,,10,1,0,,1904761,,,,,,,
1750,set_tempo,,,,,10,1,0,,1910828,,,,,,,
1760,set_tempo,,,,,10,1,0,,1916932,,,,,,,
1770,note_on,,,,,0,0,1,,,,,0,,,74,35
1770,set_tempo,,,,,10,1,0,,1929260,,,,,,,
1770,note_on,,,,,90,0,1,,,,,0,,,75,0
1780,set_tempo,,,,,10,1,0,,1948051,,,,,,,
1790,set_tempo,,,,,10,1,0,,1948051,,,,,,,
1797,control_change,,,,,27,0,1,,,,,0,64,0,,
1800,note_on,,,,,0,0,2,,,,,0,,,63,44
1800,set_tempo,,,,,10,1,0,,1973684,,,,,,,
1800,note_on,,,,,120,0,2,,,,,0,,,51,0
1800,note_on,,,,,0,0,2,,,,,0,,,39,0
1800,note_on,,,,,3,0,1,,,,,0,,,74,0
1800,note_on,,,,,0,0,1,,,,,0,,,67,0
1800,note_on,,,,,0,0,1,,,,,0,,,67,36
1800,note_on,,,,,0,0,1,,,,,0,,,73,36
1800,control_change,,,,,0,0,1,,,,,0,64,95,,
1810,set_tempo,,,,,10,1,0,,1993355,,,,,,,
1830,set_tempo,,,,,20,1,0,,2000000,,,,,,,
1840,set_tempo,,,,,10,1,0,,2013422,,,,,,,
1860,note_on,,,,,60,0,1,,,,,0,,,73,0
1860,note_on,,,,,0,0,1,,,,,0,,,72,32
1860,set_tempo,,,,,20,1,0,,2040816,,,,,,,
1870,set_tempo,,,,,10,1,0,,2076124,,,,,,,
1880,set_tempo,,,,,10,1,0,,2097902,,,,,,,
1890,set_tempo,,,,,10,1,0,,2120141,,,,,,,
1890,note_on,,,,,0,0,1,,,,,0,,,70,31
1890,note_on,,,,,0,0,2,,,,,0,,,61,32
1890,note_on,,,,,30,0,1,,,,,0,,,72,0
1890,note_on,,,,,90,0,2,,,,,0,,,63,0
1900,set_tempo,,,,,10,1,0,,2264150,,,,,,,
1910,set_tempo,,,,,10,1,0,,2597402,,,,,,,
1917,control_change,,,,,27,0,1,,,,,0,64,0,,
1920,note_on,,,,,0,0,2,,,,,0,,,60,31
1920,note_on,,,,,0,0,2,,,,,0,,,56,31
1920,note_on,,,,,30,0,2,,,,,0,,,61,0
1920,control_change,,,,,0,0,1,,,,,0,91,96,,
1920,set_tempo,,,,,10,1,0,,1875000,,,,,,,
1920,control_change,,,,,0,0,1,,,,,0,64,95,,
1920,note_on,,,,,0,0,1,,,,,0,,,68,29
1920,note_on,,,,,0,0,1,,,,,0,,,63,29
1920,note_on,,,,,0,0,1,,,,,0,,,67,0
1920,note_on,,,,,3,0,1,,,,,0,,,70,0
2025,note_on,,,,,0,0,1,,,,,0,,,63,0
2025,note_on,,,,,105,0,1,,,,,0,,,68,0
2025,note_on,,,,,105,0,2,,,,,0,,,60,0
2025,note_on,,,,,0,0,2,,,,,0,,,56,0
2037,control_change,,,,,12,0,1,,,,,0,64,0,,
2040,note_on,,,,,15,0,2,,,,,0,,,58,33
2040,note_on,,,,,0,0,1,,,,,0,,,68,32
2040,note_on,,,,,3,0,1,,,,,0,,,63,32
2040,control_change,,,,,0,0,1,,,,,0,64,95,,
2040,note_on,,,,,0,0,2,,,,,0,,,61,33
2070,note_on,,,,,30,0,1,,,,,0,,,68,0
2070,note_on,,,,,0,0,1,,,,,0,,,67,27
2100,note_on,,,,,30,0,1,,,,,0,,,67,0
2100,note_on,,,,,0,0,1,,,,,0,,,70,34
2130,note_on,,,,,30,0,1,,,,,0,,,70,0
2130,note_on,,,,,0,0,1,,,,,0,,,67,27
2157,control_change,,,,,27,0,1,,,,,0,64,0,,
2160,note_on,,,,,3,0,1,,,,,0,,,67,0
2160,note_on,,,,,0,0,1,,,,,0,,,63,0
2160,note_on,,,,,0,0,1,,,,,0,,,68,35
2160,note_on,,,,,0,0,1,,,,,0,,,63,35
2160,control_change,,,,,0,0,1,,,,,0,64,95,,
2160,note_on,,,,,120,0,2,,,,,0,,,61,0
2160,note_on,,,,,0,0,2,,,,,0,,,58,0
2160,note_on,,,,,0,0,2,,,,,0,,,60,35
2250,note_on,,,,,90,0,1,,,,,0,,,63,0
2250,note_on,,,,,90,0,2,,,,,0,,,60,0
2250,note_on,,,,,0,0,2,,,,,0,,,61,31
2250,note_on,,,,,0,0,1,,,,,0,,,63,26
2250,control_change,,,,,0,0,1,,,,,0,64,0,,
2257,note_on,,,,,7,0,1,,,,,0,,,63,0
2258,note_on,,,,,1,0,1,,,,,0,,,65,26
2265,note_on,,,,,7,0,1,,,,,0,,,65,0
2265,note_on,,,,,0,0,1,,,,,0,,,67,26
2272,note_on,,,,,0,0,1,,,,,0,,,65,27
2272,note_on,,,,,7,0,1,,,,,0,,,67,0
2279,note_on,,,,,7,0,1,,,,,0,,,65,0
2280,note_on,,,,,30,0,2,,,,,0,,,61,0
2280,note_on,,,,,0,0,2,,,,,0,,,60,31
2280,note_on,,,,,1,0,1,,,,,0,,,63,28
2332,note_on,,,,,52,0,2,,,,,0,,,60,0
2332,note_on,,,,,0,0,1,,,,,0,,,68,0
2332,note_on,,,,,52,0,1,,,,,0,,,63,0
2340,note_on,,,,,0,0,1,,,,,0,,,70,32
2340,note_on,,,,,8,0,1,,,,,0,,,63,32
2340,note_on,,,,,8,0,2,,,,,0,,,55,31
2390,set_tempo,,,,,470,1,0,,1875000,,,,,,,
2400,note_on,,,,,60,0,2,,,,,0,,,55,0
2400,control_change,,,,,0,0,1,,,,,0,64,96,,
2400,note_on,,,,,0,0,2,,,,,0,,,56,36
2400,note_on,,,,,0,0,1,,,,,0,,,63,0
2400,note_on,,,,,0,0,1,,,,,0,,,63,38
2400,note_on,,,,,0,0,1,,,,,0,,,72,38
2400,set_tempo,,,,,10,1,0,,1880877,,,,,,,
2400,note_on,,,,,60,0,1,,,,,0,,,70,0
2410,set_tempo,,,,,10,1,0,,1886792,,,,,,,
2420,set_tempo,,,,,10,1,0,,1892744,,,,,,,
2430,set_tempo,,,,,10,1,0,,1898734,,,,,,,
2435,set_tempo,,,,,5,1,0,,1910828,,,,,,,
2440,set_tempo,,,,,5,1,0,,1916932,,,,,,,
2445,set_tempo,,,,,5,1,0,,1923076,,,,,,,
2455,set_tempo,,,,,10,1,0,,1935483,,,,,,,
2460,note_on,,,,,60,0,1,,,,,0,,,72,0
2460,set_tempo,,,,,5,1,0,,1941747,,,,,,,
2460,note_on,,,,,60,0,2,,,,,0,,,56,0
2460,note_on,,,,,0,0,2,,,,,0,,,55,46
2460,note_on,,,,,0,0,1,,,,,0,,,63,0
2460,note_on,,,,,0,0,1,,,,,0,,,70,51
2460,note_on,,,,,0,0,1,,,,,0,,,60,51
2460,note_on,,,,,0,0,1,,,,,0,,,72,51
2490,set_tempo,,,,,30,1,0,,1960784,,,,,,,
2500,set_tempo,,,,,10,1,0,,1967213,,,,,,,
2505,set_tempo,,,,,5,1,0,,1973684,,,,,,,
2510,set_tempo,,,,,5,1,0,,1986754,,,,,,,
2520,note_on,,,,,0,0,1,,,,,0,,,60,0
2520,note_on,,,,,0,0,1,,,,,0,,,70,0
2520,note_on,,,,,60,0,1,,,,,0,,,72,0
2520,note_on,,,,,0,0,1,,,,,0,,,72,60
2520,note_on,,,,,0,0,1,,,,,0,,,68,60
2520,note_on,,,,,0,0,2,,,,,0,,,53,56
2520,note_on,,,,,0,0,1,,,,,0,,,60,60
2520,note_on,,,,,60,0,2,,,,,0,,,55,0
2540,set_tempo,,,,,30,1,0,,1993355,,,,,,,
2545,set_tempo,,,,,5,1,0,,2006688,,,,,,,
2555,set_tempo,,,,,10,1,0,,2020202,,,,,,,
2565,set_tempo,,,,,10,1,0,,2061855,,,,,,,
2570,set_tempo,,,,,5,1,0,,2068965,,,,,,,
2580,note_on,,,,,0,0,2,,,,,0,,,51,60
2580,note_on,,,,,0,0,1,,,,,0,,,72,70
2580,note_on,,,,,0,0,1,,,,,0,,,68,70
2580,note_on,,,,,0,0,1,,,,,0,,,66,70
2580,note_on,,,,,0,0,1,,,,,0,,,60,0
2580,note_on,,,,,0,0,1,,,,,0,,,68,0
2580,note_on,,,,,60,0,1,,,,,0,,,72,0
2580,note_on,,,,,60,0,2,,,,,0,,,53,0
2580,set_tempo,,,,,10,1,0,,2083333,,,,,,,
2585,set_tempo,,,,,5,1,0,,2097902,,,,,,,
2590,set_tempo,,,,,5,1,0,,2112676,,,,,,,
2600,set_tempo,,,,,10,1,0,,2127659,,,,,,,
2605,set_tempo,,,,,5,1,0,,2173913,,,,,,,
2610,set_tempo,,,,,5,1,0,,2181818,,,,,,,
2620,set_tempo,,,,,10,1,0,,2197802,,,,,,,
2625,set_tempo,,,,,5,1,0,,2214022,,,,,,,
2635,set_tempo,,,,,10,1,0,,2264150,,,,,,,
2637,control_change,,,,,57,0,1,,,,,0,64,0,,
2640,note_on,,,,,0,0,1,,,,,0,,,68,78
2640,note_on,,,,,0,0,1,,,,,0,,,73,78
2640,control_change,,,,,0,0,1,,,,,0,64,95,,
2640,note_on,,,,,0,0,1,,,,,0,,,68,0
2640,note_on,,,,,60,0,2,,,,,0,,,51,0
2640,note_on,,,,,0,0,2,,,,,0,,,49,77
2640,note_on,,,,,3,0,1,,,,,0,,,72,0
2640,note_on,,,,,0,0,1,,,,,0,,,65,78
2640,note_on,,,,,0,0,1,,,,,0,,,66,0
2640,set_tempo,,,,,5,1,0,,2281368,,,,,,,
2645,set_tempo,,,,,5,1,0,,2298850,,,,,,,
2650,set_tempo,,,,,5,1,0,,2316602,,,,,,,
2660,set_tempo,,,,,10,1,0,,2371541,,,,,,,
2665,set_tempo,,,,,5,1,0,,2390438,,,,,,,
2670,set_tempo,,,,,5,1,0,,2448979,,,,,,,
2680,set_tempo,,,,,10,1,0,,2510460,,,,,,,
2685,set_tempo,,,,,5,1,0,,2542372,,,,,,,
2690,set_tempo,,,,,5,1,0,,3658536,,,,,,,
2697,control_change,,,,,57,0,1,,,,,0,64,0,,
2700,note_on,,,,,0,0,1,,,,,0,,,69,64
2700,note_on,,,,,0,0,1,,,,,0,,,73,64
2700,control_change,,,,,0,0,1,,,,,0,64,95,,
2700,note_on,,,,,0,0,2,,,,,0,,,42,69
2700,note_on,,,,,0,0,1,,,,,0,,,66,64
2700,note_on,,,,,0,0,1,,,,,0,,,68,0
2700,note_on,,,,,3,0,1,,,,,0,,,73,0
2700,note_on,,,,,60,0,2,,,,,0,,,49,0
2700,note_on,,,,,0,0,1,,,,,0,,,65,0
2705,set_tempo,,,,,15,1,0,,2727272,,,,,,,
2710,set_tempo,,,,,5,1,0,,2816901,,,,,,,
2720,set_tempo,,,,,10,1,0,,2898550,,,,,,,
2725,set_tempo,,,,,5,1,0,,2970297,,,,,,,
2735,set_tempo,,,,,10,1,0,,3000000,,,,,,,
2740,set_tempo,,,,,5,1,0,,3030303,,,,,,,
2745,set_tempo,,,,,5,1,0,,3092783,,,,,,,
2750,set_tempo,,,,,5,1,0,,3108808,,,,,,,
2755,set_tempo,,,,,5,1,0,,3141361,,,,,,,
2757,control_change,,,,,57,0,1,,,,,0,64,0,,
2760,note_on,,,,,0,0,2,,,,,0,,,49,49
2760,note_on,,,,,0,0,1,,,,,0,,,68,56
2760,note_on,,,,,60,0,2,,,,,0,,,42,0
2760,note_on,,,,,0,0,1,,,,,0,,,65,56
2760,note_on,,,,,0,0,1,,,,,0,,,66,0
2760,note_on,,,,,0,0,1,,,,,0,,,73,56
2760,note_on,,,,,0,0,1,,,,,0,,,69,0
2760,note_on,,,,,3,0,1,,,,,0,,,73,0
2760,set_tempo,,,,,5,1,0,,6000000,,,,,,,
2790,set_tempo,,,,,30,1,0,,3488372,,,,,,,
2790,note_on,,,,,0,0,1,,,,,0,,,65,0
2790,note_on,,,,,30,0,1,,,,,0,,,73,0
2790,note_on,,,,,30,0,2,,,,,0,,,49,0
2790,note_on,,,,,0,0,1,,,,,0,,,68,0
2815,set_tempo,,,,,25,1,0,,1764705,,,,,,,
2820,note_on,,,,,30,0,2,,,,,0,,,44,29
2820,note_on,,,,,30,0,1,,,,,0,,,63,34
2820,note_on,,,,,0,0,1,,,,,0,,,72,34
2820,note_on,,,,,0,0,1,,,,,0,,,68,34
2825,set_tempo,,,,,10,1,0,,1759530,,,,,,,
2870,set_tempo,,,,,45,1,0,,1775147,,,,,,,
2880,note_on,,,,,0,0,1,,,,,0,,,67,36
2880,note_on,,,,,0,0,1,,,,,0,,,63,0
2880,note_on,,,,,0,0,1,,,,,0,,,72,36
2880,control_change,,,,,0,0,1,,,,,0,64,96,,
2880,note_on,,,,,0,0,1,,,,,0,,,61,36
2880,note_on,,,,,0,0,1,,,,,0,,,68,0
2880,note_on,,,,,60,0,1,,,,,0,,,72,0
2880,note_on,,,,,0,0,2,,,,,0,,,51,33
2880,note_on,,,,,60,0,2,,,,,0,,,44,0
2885,set_tempo,,,,,15,1,0,,1785714,,,,,,,
2900,set_tempo,,,,,15,1,0,,1791044,,,,,,,
2915,set_tempo,,,,,15,1,0,,1796407,,,,,,,
2920,set_tempo,,,,,5,1,0,,1801801,,,,,,,
2940,set_tempo,,,,,20,1,0,,1807228,,,,,,,
2940,note_on,,,,,60,0,1,,,,,0,,,72,0
2940,note_on,,,,,0,0,1,,,,,0,,,70,35
2950,set_tempo,,,,,10,1,0,,1812688,,,,,,,
2955,set_tempo,,,,,5,1,0,,1818181,,,,,,,
2965,set_tempo,,,,,10,1,0,,1823708,,,,,,,
2980,set_tempo,,,,,15,1,0,,1829268,,,,,,,
2985,note_on,,,,,45,0,1,,,,,0,,,70,0
2985,note_on,,,,,0,0,1,,,,,0,,,69,31
2985,set_tempo,,,,,5,1,0,,1834862,,,,,,,
2995,set_tempo,,,,,10,1,0,,1846153,,,,,,,
2997,control_change,,,,,12,0,1,,,,,0,64,0,,
3000,set_tempo,,,,,5,1,0,,1851851,,,,,,,
3000,control_change,,,,,0,0,1,,,,,0,64,94,,
3000,note_on,,,,,0,0,1,,,,,0,,,72,38
3000,note_on,,,,,3,0,1,,,,,0,,,69,0
3010,set_tempo,,,,,10,1,0,,1863354,,,,,,,
3020,set_tempo,,,,,10,1,0,,1875000,,,,,,,
3035,set_tempo,,,,,15,1,0,,1880877,,,,,,,
3040,set_tempo,,,,,5,1,0,,1892744,,,,,,,
3045,set_tempo,,,,,5,1,0,,1898734,,,,,,,
3045,note_on,,,,,45,0,1,,,,,0,,,72,0
3045,note_on,,,,,0,0,1,,,,,0,,,70,38
3055,set_tempo,,,,,10,1,0,,1904761,,,,,,,
3056,note_on,,,,,0,0,1,,,,,0,,,67,0
3056,note_on,,,,,176,0,2,,,,,0,,,51,0
3056,note_on,,,,,0,0,1,,,,,0,,,61,0
3056,note_on,,,,,11,0,1,,,,,0,,,70,0
3060,note_on,,,,,0,0,1,,,,,0,,,67,35
3060,set_tempo,,,,,5,1,0,,1910828,,,,,,,
3060,note_on,,,,,4,0,2,,,,,0,,,51,35
3060,note_on,,,,,0,0,2,,,,,0,,,39,35
3060,note_on,,,,,4,0,1,,,,,0,,,61,35
3060,note_on,,,,,0,0,1,,,,,0,,,70,35
3070,set_tempo,,,,,10,1,0,,1916932,,,,,,,
3085,set_tempo,,,,,15,1,0,,1923076,,,,,,,
3090,set_tempo,,,,,5,1,0,,1935483,,,,,,,
3095,set_tempo,,,,,5,1,0,,1941747,,,,,,,
3105,note_on,,,,,0,0,2,,,,,0,,,44,31
3105,note_on,,,,,45,0,2,,,,,0,,,39,0
3105,note_on,,,,,0,0,1,,,,,0,,,68,31
3105,note_on,,,,,0,0,1,,,,,0,,,67,0
3105,set_tempo,,,,,10,1,0,,1948051,,,,,,,
3105,note_on,,,,,45,0,1,,,,,0,,,70,0
3105,note_on,,,,,0,0,1,,,,,0,,,61,0
3105,note_on,,,,,0,0,1,,,,,0,,,60,31
3115,set_tempo,,,,,10,1,0,,1954397,,,,,,,
3117,control_change,,,,,12,0,1,,,,,0,64,0,,
3120,note_on,,,,,0,0,2,,,,,0,,,51,28
3120,note_on,,,,,3,0,1,,,,,0,,,68,0
3120,note_on,,,,,0,0,1,,,,,0,,,60,0
3120,note_on,,,,,0,0,1,,,,,0,,,60,29
3120,note_on,,,,,0,0,2,,,,,0,,,44,28
3120,note_on,,,,,0,0,2,,,,,0,,,51,0
3120,note_on,,,,,15,0,2,,,,,0,,,44,0
3120,set_tempo,,,,,5,1,0,,1960784,,,,,,,
3120,note_on,,,,,0,0,1,,,,,0,,,68,29
3125,set_tempo,,,,,5,1,0,,1967213,,,,,,,
3190,set_tempo,,,,,65,1,0,,1880877,,,,,,,
3195,note_on,,,,,0,0,2,,,,,0,,,44,0
3195,note_on,,,,,75,0,2,,,,,0,,,51,0
3195,note_on,,,,,75,0,1,,,,,0,,,68,0
3195,note_on,,,,,0,0,1,,,,,0,,,60,0
3210,note_on,,,,,15,0,1,,,,,0,,,75,33
3210,note_on,,,,,0,0,1,,,,,0,,,63,33
3240,note_on,,,,,0,0,1,,,,,0,,,75,0
3240,note_on,,,,,0,0,1,,,,,0,,,77,28
3240,note_on,,,,,0,0,1,,,,,0,,,65,28
3240,note_on,,,,,30,0,1,,,,,0,,,63,0
3245,set_tempo,,,,,55,1,0,,1875000,,,,,,,
3262,note_on,,,,,22,0,1,,,,,0,,,77,0
3262,note_on,,,,,0,0,1,,,,,0,,,65,0
3270,note_on,,,,,0,0,1,,,,,0,,,79,32
3270,note_on,,,,,8,0,1,,,,,0,,,67,32
3292,note_on,,,,,0,0,1,,,,,0,,,67,0
3292,note_on,,,,,22,0,1,,,,,0,,,79,0
3300,note_on,,,,,8,0,1,,,,,0,,,68,38
3300,note_on,,,,,0,0,1,,,,,0,,,80,38
3322,note_on,,,,,22,0,1,,,,,0,,,80,0
3322,note_on,,,,,0,0,1,,,,,0,,,68,0
3330,note_on,,,,,8,0,1,,,,,0,,,75,41
3330,note_on,,,,,0,0,1,,,,,0,,,82,41
3330,note_on,,,,,0,0,1,,,,,0,,,70,41
3330,note_on,,,,,0,0,1,,,,,0,,,67,41
3352,note_on,,,,,0,0,1,,,,,0,,,70,0
3352,note_on,,,,,22,0,1,,,,,0,,,82,0
3352,note_on,,,,,0,0,1,,,,,0,,,67,0
3352,note_on,,,,,0,0,1,,,,,0,,,75,0
3360,control_change,,,,,0,0,1,,,,,0,64,96,,
3360,note_on,,,,,0,0,1,,,,,0,,,84,45
3360,note_on,,,,,0,0,1,,,,,0,,,75,45
3360,note_on,,,,,8,0,1,,,,,0,,,72,45
3360,note_on,,,,,165,0,2,,,,,0,,,68,40
3360,set_tempo,,,,,115,1,0,,1880877,,,,,,,
3370,set_tempo,,,,,10,1,0,,1886792,,,,,,,
3380,set_tempo,,,,,10,1,0,,1892744,,,,,,,
3390,set_tempo,,,,,10,1,0,,1898734,,,,,,,
3395,set_tempo,,,,,5,1,0,,1910828,,,,,,,
3400,set_tempo,,,,,5,1,0,,1916932,,,,,,,
3405,set_tempo,,,,,5,1,0,,1923076,,,,,,,
3415,set_tempo,,,,,10,1,0,,1935483,,,,,,,
3420,note_on,,,,,60,0,1,,,,,0,,,84,0
3420,note_on,,,,,0,0,1,,,,,0,,,75,0
3420,note_on,,,,,0,0,1,,,,,0,,,72,0
3420,note_on,,,,,0,0,1,,,,,0,,,76,47
3420,note_on,,,,,0,0,1,,,,,0,,,72,47
3420,note_on,,,,,0,0,1,,,,,0,,,82,47
3420,note_on,,,,,0,0,1,,,,,0,,,84,47
3420,note_on,,,,,60,0,2,,,,,0,,,68,0
3420,note_on,,,,,0,0,2,,,,,0,,,70,50
3420,note_on,,,,,0,0,2,,,,,0,,,67,50
3420,set_tempo,,,,,5,1,0,,1941747,,,,,,,
3450,set_tempo,,,,,30,1,0,,1960784,,,,,,,
3460,set_tempo,,,,,10,1,0,,1967213,,,,,,,
3465,set_tempo,,,,,5,1,0,,1973684,,,,,,,
3470,set_tempo,,,,,5,1,0,,1986754,,,,,,,
3480,note_on,,,,,0,0,2,,,,,0,,,65,64
3480,note_on,,,,,0,0,2,,,,,0,,,68,64
3480,note_on,,,,,0,0,2,,,,,0,,,70,0
3480,note_on,,,,,60,0,2,,,,,0,,,67,0
3480,note_on,,,,,0,0,1,,,,,0,,,77,60
3480,note_on,,,,,0,0,1,,,,,0,,,72,60
3480,note_on,,,,,0,0,1,,,,,0,,,82,0
3480,note_on,,,,,0,0,1,,,,,0,,,72,0
3480,note_on,,,,,0,0,1,,,,,0,,,76,0
3480,note_on,,,,,60,0,1,,,,,0,,,84,0
3480,note_on,,,,,0,0,1,,,,,0,,,80,60
3480,note_on,,,,,0,0,1,,,,,0,,,84,60
3500,set_tempo,,,,,30,1,0,,1993355,,,,,,,
3505,set_tempo,,,,,5,1,0,,2006688,,,,,,,
3515,set_tempo,,,,,10,1,0,,2020202,,,,,,,
3525,set_tempo,,,,,10,1,0,,2061855,,,,,,,
3530,set_tempo,,,,,5,1,0,,2068965,,,,,,,
3540,note_on,,,,,0,0,2,,,,,0,,,68,0
3540,note_on,,,,,60,0,2,,,,,0,,,65,0
3540,note_on,,,,,0,0,1,,,,,0,,,80,0
3540,note_on,,,,,60,0,1,,,,,0,,,84,0
3540,note_on,,,,,0,0,1,,,,,0,,,77,0
3540,note_on,,,,,0,0,2,,,,,0,,,66,80
3540,note_on,,,,,0,0,1,,,,,0,,,84,78
3540,note_on,,,,,0,0,1,,,,,0,,,80,78
3540,note_on,,,,,0,0,1,,,,,0,,,78,78
3540,note_on,,,,,0,0,1,,,,,0,,,72,78
3540,note_on,,,,,0,0,1,,,,,0,,,72,0
3540,note_on,,,,,0,0,2,,,,,0,,,63,80
3540,set_tempo,,,,,10,1,0,,2083333,,,,,,,
3545,set_tempo,,,,,5,1,0,,2097902,,,,,,,
3550,set_tempo,,,,,5,1,0,,2112676,,,,,,,
3560,set_tempo,,,,,10,1,0,,2127659,,,,,,,
3565,set_tempo,,,,,5,1,0,,2173913,,,,,,,
3570,set_tempo,,,,,5,1,0,,2181818,,,,,,,
3580,set_tempo,,,,,10,1,0,,2197802,,,,,,,
3585,set_tempo,,,,,5,1,0,,2214022,,,,,,,
3595,set_tempo,,,,,10,1,0,,2264150,,,,,,,
3597,control_change,,,,,57,0,1,,,,,0,64,0,,
3600,note_on,,,,,0,0,2,,,,,0,,,61,89
3600,note_on,,,,,0,0,2,,,,,0,,,65,89
3600,control_change,,,,,0,0,1,,,,,0,64,95,,
3600,note_on,,,,,0,0,1,,,,,0,,,85,96
3600,note_on,,,,,0,0,1,,,,,0,,,80,96
3600,note_on,,,,,0,0,1,,,,,0,,,77,96
3600,note_on,,,,,0,0,1,,,,,0,,,73,96
3600,note_on,,,,,0,0,1,,,,,0,,,72,0
3600,note_on,,,,,0,0,1,,,,,0,,,78,0
3600,note_on,,,,,0,0,2,,,,,0,,,68,89
3600,note_on,,,,,0,0,2,,,,,0,,,66,0
3600,note_on,,,,,60,0,2,,,,,0,,,63,0
3600,set_tempo,,,,,5,1,0,,2281368,,,,,,,
3600,note_on,,,,,0,0,1,,,,,0,,,80,0
3600,note_on,,,,,3,0,1,,,,,0,,,84,0
3605,set_tempo,,,,,5,1,0,,2298850,,,,,,,
3610,set_tempo,,,,,5,1,0,,2316602,,,,,,,
3620,set_tempo,,,,,10,1,0,,2371541,,,,,,,
3625,set_tempo,,,,,5,1,0,,2390438,,,,,,,
3630,set_tempo,,,,,5,1,0,,2448979,,,,,,,
3640,set_tempo,,,,,10,1,0,,2510460,,,,,,,
3645,set_tempo,,,,,5,1,0,,2542372,,,,,,,
3650,set_tempo,,,,,5,1,0,,3658536,,,,,,,
3660,note_on,,,,,60,0,1,,,,,0,,,85,0
3660,note_on,,,,,0,0,1,,,,,0,,,73,0
3660,note_on,,,,,60,0,2,,,,,0,,,61,0
3660,note_on,,,,,0,0,2,,,,,0,,,65,0
3660,note_on,,,,,0,0,2,,,,,0,,,68,0
3660,note_on,,,,,0,0,2,,,,,0,,,66,76
3660,note_on,,,,,0,0,1,,,,,0,,,81,76
3660,note_on,,,,,0,0,2,,,,,0,,,54,76
3660,note_on,,,,,0,0,1,,,,,0,,,77,0
3660,note_on,,,,,0,0,1,,,,,0,,,80,0
3660,note_on,,,,,0,0,1,,,,,0,,,73,76
3660,note_on,,,,,0,0,1,,,,,0,,,78,76
3660,note_on,,,,,0,0,1,,,,,0,,,85,76
3660,note_on,,,,,0,0,2,,,,,0,,,61,76
3665,set_tempo,,,,,15,1,0,,2727272,,,,,,,
3670,set_tempo,,,,,5,1,0,,2816901,,,,,,,
3680,set_tempo,,,,,10,1,0,,2898550,,,,,,,
3685,set_tempo,,,,,5,1,0,,2970297,,,,,,,
3695,set_tempo,,,,,10,1,0,,3000000,,,,,,,
3700,set_tempo,,,,,5,1,0,,3030303,,,,,,,
3705,set_tempo,,,,,5,1,0,,3092783,,,,,,,
3710,set_tempo,,,,,5,1,0,,3108808,,,,,,,
3715,set_tempo,,,,,5,1,0,,3141361,,,,,,,
3717,control_change,,,,,57,0,1,,,,,0,64,0,,
3720,set_tempo,,,,,5,1,0,,6000000,,,,,,,
3720,note_on,,,,,0,0,1,,,,,0,,,73,47
3720,note_on,,,,,0,0,1,,,,,0,,,81,0
3720,note_on,,,,,0,0,2,,,,,0,,,65,43
3720,note_on,,,,,0,0,2,,,,,0,,,61,43
3720,note_on,,,,,0,0,2,,,,,0,,,68,43
3720,note_on,,,,,0,0,2,,,,,0,,,66,0
3720,note_on,,,,,60,0,2,,,,,0,,,54,0
3720,note_on,,,,,3,0,1,,,,,0,,,85,0
3720,note_on,,,,,0,0,1,,,,,0,,,77,47
3720,note_on,,,,,0,0,2,,,,,0,,,61,0
3720,note_on,,,,,0,0,1,,,,,0,,,85,47
3720,note_on,,,,,0,0,1,,,,,0,,,73,0
3720,note_on,,,,,0,0,1,,,,,0,,,78,0
3720,note_on,,,,,0,0,1,,,,,0,,,80,47
3750,note_on,,,,,30,0,1,,,,,0,,,85,0
3750,note_on,,,,,0,0,1,,,,,0,,,80,0
3750,note_on,,,,,0,0,1,,,,,0,,,73,0
3750,set_tempo,,,,,30,1,0,,3488372,,,,,,,
3750,note_on,,,,,0,0,2,,,,,0,,,68,0
3750,note_on,,,,,0,0,2,,,,,0,,,65,0
3750,note_on,,,,,30,0,2,,,,,0,,,61,0
3750,note_on,,,,,0,0,1,,,,,0,,,77,0
3775,set_tempo,,,,,25,1,0,,1764705,,,,,,,
3780,note_on,,,,,30,0,1,,,,,0,,,63,43
3780,note_on,,,,,0,0,1,,,,,0,,,68,43
3780,note_on,,,,,30,0,2,,,,,0,,,44,35
3780,note_on,,,,,0,0,1,,,,,0,,,72,43
3785,set_tempo,,,,,10,1,0,,1759530,,,,,,,
3830,set_tempo,,,,,45,1,0,,1775147,,,,,,,
3840,control_change,,,,,0,0,1,,,,,0,64,96,,
3840,note_on,,,,,0,0,1,,,,,0,,,63,0
3840,note_on,,,,,0,0,2,,,,,0,,,51,33
3840,note_on,,,,,0,0,1,,,,,0,,,61,36
3840,note_on,,,,,0,0,1,,,,,0,,,72,36
3840,note_on,,,,,0,0,1,,,,,0,,,67,36
3840,note_on,,,,,60,0,2,,,,,0,,,44,0
3840,note_on,,,,,0,0,1,,,,,0,,,68,0
3840,note_on,,,,,60,0,1,,,,,0,,,72,0
3845,set_tempo,,,,,15,1,0,,1785714,,,,,,,
3860,set_tempo,,,,,15,1,0,,1791044,,,,,,,
3875,set_tempo,,,,,15,1,0,,1796407,,,,,,,
3880,set_tempo,,,,,5,1,0,,1801801,,,,,,,
3900,set_tempo,,,,,20,1,0,,1807228,,,,,,,
3900,note_on,,,,,0,0,1,,,,,0,,,70,35
3900,note_on,,,,,60,0,1,,,,,0,,,72,0
3910,set_tempo,,,,,10,1,0,,1812688,,,,,,,
3915,set_tempo,,,,,5,1,0,,1818181,,,,,,,
3925,set_tempo,,,,,10,1,0,,1823708,,,,,,,
3940,set_tempo,,,,,15,1,0,,1829268,,,,,,,
3945,note_on,,,,,45,0,1,,,,,0,,,70,0
3945,set_tempo,,,,,5,1,0,,1834862,,,,,,,
3945,note_on,,,,,0,0,1,,,,,0,,,69,31
3955,set_tempo,,,,,10,1,0,,1846153,,,,,,,
3957,control_change,,,,,12,0,1,,,,,0,64,0,,
3960,set_tempo,,,,,5,1,0,,1851851,,,,,,,
3960,control_change,,,,,0,0,1,,,,,0,64,94,,
3960,note_on,,,,,0,0,1,,,,,0,,,72,38
3960,note_on,,,,,3,0,1,,,,,0,,,69,0
3970,set_tempo,,,,,10,1,0,,1863354,,,,,,,
3980,set_tempo,,,,,10,1,0,,1875000,,,,,,,
3995,set_tempo,,,,,15,1,0,,1880877,,,,,,,
4000,set_tempo,,,,,5,1,0,,1892744,,,,,,,
4005,set_tempo,,,,,5,1,0,,1898734,,,,,,,
4005,note_on,,,,,0,0,1,,,,,0,,,70,38
4005,note_on,,,,,45,0,1,,,,,0,,,72,0
4015,set_tempo,,,,,10,1,0,,1904761,,,,,,,
4016,note_on,,,,,0,0,1,,,,,0,,,67,0
4016,note_on,,,,,0,0,1,,,,,0,,,61,0
4016,note_on,,,,,11,0,1,,,,,0,,,70,0
4016,note_on,,,,,176,0,2,,,,,0,,,51,0
4020,set_tempo,,,,,5,1,0,,1910828,,,,,,,
4020,note_on,,,,,0,0,2,,,,,0,,,39,35
4020,note_on,,,,,4,0,2,,,,,0,,,51,35
4020,note_on,,,,,4,0,1,,,,,0,,,61,35
4020,note_on,,,,,0,0,1,,,,,0,,,67,35
4020,note_on,,,,,0,0,1,,,,,0,,,70,35
4030,set_tempo,,,,,10,1,0,,1916932,,,,,,,
4045,set_tempo,,,,,15,1,0,,1923076,,,,,,,
4050,set_tempo,,,,,5,1,0,,1935483,,,,,,,
4055,set_tempo,,,,,5,1,0,,1941747,,,,,,,
4065,note_on,,,,,45,0,1,,,,,0,,,70,0
4065,note_on,,,,,0,0,1,,,,,0,,,67,0
4065,note_on,,,,,0,0,1,,,,,0,,,61,0
4065,note_on,,,,,0,0,1,,,,,0,,,60,31
4065,note_on,,,,,0,0,1,,,,,0,,,68,31
4065,set_tempo,,,,,10,1,0,,1948051,,,,,,,
4065,note_on,,,,,45,0,2,,,,,0,,,39,0
4065,note_on,,,,,0,0,2,,,,,0,,,44,31
4075,set_tempo,,,,,10,1,0,,1954397,,,,,,,
4077,control_change,,,,,12,0,1,,,,,0,64,0,,
4080,note_on,,,,,15,0,2,,,,,0,,,44,0
4080,note_on,,,,,0,0,2,,,,,0,,,51,0
4080,note_on,,,,,0,0,2,,,,,0,,,44,28
4080,note_on,,,,,0,0,2,,,,,0,,,51,28
4080,set_tempo,,,,,5,1,0,,1960784,,,,,,,
4080,note_on,,,,,0,0,1,,,,,0,,,60,29
4080,note_on,,,,,0,0,1,,,,,0,,,60,0
4080,note_on,,,,,3,0,1,,,,,0,,,68,0
4080,note_on,,,,,0,0,1,,,,,0,,,68,29
4085,set_tempo,,,,,5,1,0,,1960784,,,,,,,
4090,set_tempo,,,,,5,1,0,,1967213,,,,,,,
4125,set_tempo,,,,,35,1,0,,1954397,,,,,,,
4135,set_tempo,,,,,10,1,0,,1941747,,,,,,,
4155,note_on,,,,,0,0,2,,,,,0,,,44,0
4155,note_on,,,,,75,0,1,,,,,0,,,68,0
4155,note_on,,,,,75,0,2,,,,,0,,,51,0
4155,note_on,,,,,0,0,1,,,,,0,,,60,0
4170,note_on,,,,,15,0,2,,,,,0,,,45,32
4175,set_tempo,,,,,40,1,0,,1929260,,,,,,,
4200,note_on,,,,,30,0,2,,,,,0,,,45,0
4200,note_on,,,,,0,0,2,,,,,0,,,44,38
4205,set_tempo,,,,,30,1,0,,1916932,,,,,,,
4230,note_on,,,,,30,0,2,,,,,0,,,44,0
4230,note_on,,,,,0,0,2,,,,,0,,,42,42
4245,set_tempo,,,,,40,1,0,,1904761,,,,,,,
4260,note_on,,,,,0,0,2,,,,,0,,,40,47
4260,note_on,,,,,30,0,2,,,,,0,,,42,0
4260,note_on,,,,,105,0,1,,,,,0,,,56,45
4275,set_tempo,,,,,30,1,0,,1892744,,,,,,,
4285,set_tempo,,,,,10,1,0,,1880877,,,,,,,
4290,note_on,,,,,30,0,2,,,,,0,,,40,0
4290,note_on,,,,,0,0,2,,,,,0,,,39,54
4312,note_on,,,,,22,0,2,,,,,0,,,39,0
4315,set_tempo,,,,,30,1,0,,1875000,,,,,,,
4320,note_on,,,,,60,0,1,,,,,0,,,56,0
4320,control_change,,,,,0,0,1,,,,,0,64,96,,
4320,set_tempo,,,,,5,1,0,,1869158,,,,,,,
4320,note_on,,,,,8,0,2,,,,,0,,,37,56
4320,note_on,,,,,0,0,1,,,,,0,,,64,52
4330,set_tempo,,,,,10,1,0,,1863354,,,,,,,
4340,set_tempo,,,,,10,1,0,,1857585,,,,,,,
4345,set_tempo,,,,,5,1,0,,1846153,,,,,,,
4350,note_on,,,,,30,0,2,,,,,0,,,37,0
4350,note_on,,,,,0,0,2,,,,,0,,,44,48
4380,note_on,,,,,0,0,2,,,,,0,,,49,45
4380,set_tempo,,,,,35,1,0,,1834862,,,,,,,
4380,note_on,,,,,30,0,2,,,,,0,,,44,0
4410,set_tempo,,,,,30,1,0,,1823708,,,,,,,
4410,note_on,,,,,0,0,2,,,,,0,,,44,45
4410,note_on,,,,,30,0,2,,,,,0,,,49,0
4437,control_change,,,,,117,0,1,,,,,0,64,0,,
4440,set_tempo,,,,,30,1,0,,1818181,,,,,,,
4440,note_on,,,,,30,0,2,,,,,0,,,44,0
4440,note_on,,,,,0,0,2,,,,,0,,,37,50
4440,control_change,,,,,0,0,1,,,,,0,64,95,,
4440,note_on,,,,,0,0,1,,,,,0,,,63,47
4440,note_on,,,,,3,0,1,,,,,0,,,64,0
4450,set_tempo,,,,,10,1,0,,1812688,,,,,,,
4455,set_tempo,,,,,5,1,0,,1807228,,,,,,,
4465,set_tempo,,,,,10,1,0,,1801801,,,,,,,
4470,note_on,,,,,30,0,2,,,,,0,,,37,0
4470,note_on,,,,,0,0,2,,,,,0,,,44,47
4475,set_tempo,,,,,10,1,0,,1796407,,,,,,,
4500,note_on,,,,,30,0,2,,,,,0,,,44,0
4500,note_on,,,,,0,0,2,,,,,0,,,48,47
4505,set_tempo,,,,,30,1,0,,1785714,,,,,,,
4530,note_on,,,,,0,0,2,,,,,0,,,44,47
4530,note_on,,,,,30,0,2,,,,,0,,,48,0
4535,set_tempo,,,,,30,1,0,,1775147,,,,,,,
4545,set_tempo,,,,,10,1,0,,1769911,,,,,,,
4557,control_change,,,,,117,0,1,,,,,0,64,0,,
4560,note_on,,,,,30,0,2,,,,,0,,,44,0
4560,note_on,,,,,0,0,2,,,,,0,,,40,51
4560,control_change,,,,,0,0,1,,,,,0,64,96,,
4560,note_on,,,,,0,0,1,,,,,0,,,68,59
4560,note_on,,,,,3,0,1,,,,,0,,,63,0
4575,set_tempo,,,,,30,1,0,,1759530,,,,,,,
4590,note_on,,,,,0,0,2,,,,,0,,,44,47
4590,note_on,,,,,30,0,2,,,,,0,,,40,0
4605,set_tempo,,,,,30,1,0,,1754385,,,,,,,
4610,set_tempo,,,,,5,1,0,,1749271,,,,,,,
4620,note_on,,,,,0,0,2,,,,,0,,,52,43
4620,note_on,,,,,30,0,2,,,,,0,,,44,0
4640,set_tempo,,,,,30,1,0,,1744186,,,,,,,
4650,note_on,,,,,90,0,1,,,,,0,,,68,0
4650,note_on,,,,,0,0,2,,,,,0,,,44,44
4650,note_on,,,,,30,0,2,,,,,0,,,52,0
4650,set_tempo,,,,,10,1,0,,1739130,,,,,,,
4665,note_on,,,,,15,0,1,,,,,0,,,69,49
4680,note_on,,,,,15,0,1,,,,,0,,,69,0
4680,note_on,,,,,30,0,2,,,,,0,,,44,0
4680,note_on,,,,,0,0,2,,,,,0,,,40,53
4680,note_on,,,,,0,0,1,,,,,0,,,68,48
4690,set_tempo,,,,,40,1,0,,1729106,,,,,,,
4710,note_on,,,,,30,0,2,,,,,0,,,40,0
4710,note_on,,,,,0,0,2,,,,,0,,,44,47
4720,set_tempo,,,,,30,1,0,,1719197,,,,,,,
4737,control_change,,,,,57,0,1,,,,,0,64,0,,
4740,note_on,,,,,0,0,1,,,,,0,,,76,52
4740,note_on,,,,,0,0,1,,,,,0,,,64,52
4740,note_on,,,,,3,0,1,,,,,0,,,68,0
4740,note_on,,,,,0,0,2,,,,,0,,,37,46
4740,note_on,,,,,30,0,2,,,,,0,,,44,0
4750,set_tempo,,,,,30,1,0,,1714285,,,,,,,
4755,set_tempo,,,,,5,1,0,,1709401,,,,,,,
4770,note_on,,,,,0,0,2,,,,,0,,,44,45
4770,note_on,,,,,30,0,2,,,,,0,,,37,0
4775,set_tempo,,,,,20,1,0,,1690140,,,,,,,
4785,set_tempo,,,,,10,1,0,,1685393,,,,,,,
4800,note_on,,,,,60,0,1,,,,,0,,,64,0
4800,note_on,,,,,0,0,1,,,,,0,,,76,0
4800,note_on,,,,,0,0,1,,,,,0,,,63,60
4800,note_on,,,,,0,0,2,,,,,0,,,36,54
4800,control_change,,,,,0,0,1,,,,,0,64,96,,
4800,note_on,,,,,30,0,2,,,,,0,,,44,0
4800,note_on,,,,,0,0,1,,,,,0,,,75,60
4810,set_tempo,,,,,25,1,0,,1680672,,,,,,,
4830,note_on,,,,,0,0,2,,,,,0,,,44,48
4830,note_on,,,,,30,0,2,,,,,0,,,36,0
4835,set_tempo,,,,,25,1,0,,1675977,,,,,,,
4860,note_on,,,,,0,0,1,,,,,0,,,63,0
4860,note_on,,,,,0,0,1,,,,,0,,,60,48
4860,note_on,,,,,0,0,1,,,,,0,,,72,48
4860,note_on,,,,,0,0,2,,,,,0,,,51,43
4860,note_on,,,,,30,0,2,,,,,0,,,44,0
4860,note_on,,,,,60,0,1,,,,,0,,,75,0
4890,note_on,,,,,0,0,2,,,,,0,,,44,45
4890,note_on,,,,,30,0,2,,,,,0,,,51,0
4895,set_tempo,,,,,60,1,0,,1680672,,,,,,,
4910,set_tempo,,,,,15,1,0,,1685393,,,,,,,
4917,control_change,,,,,57,0,1,,,,,0,64,0,,
4920,set_tempo,,,,,10,1,0,,1690140,,,,,,,
4920,note_on,,,,,0,0,1,,,,,0,,,68,55
4920,note_on,,,,,3,0,1,,,,,0,,,72,0
4920,note_on,,,,,0,0,1,,,,,0,,,56,55
4920,note_on,,,,,0,0,2,,,,,0,,,36,52
4920,note_on,,,,,30,0,2,,,,,0,,,44,0
4920,note_on,,,,,0,0,1,,,,,0,,,60,0
4920,control_change,,,,,0,0,1,,,,,0,64,95,,
4925,set_tempo,,,,,5,1,0,,1694915,,,,,,,
4940,set_tempo,,,,,15,1,0,,1699716,,,,,,,
4945,set_tempo,,,,,5,1,0,,1704545,,,,,,,
4950,note_on,,,,,0,0,2,,,,,0,,,44,45
4950,note_on,,,,,30,0,2,,,,,0,,,36,0
4955,set_tempo,,,,,10,1,0,,1709401,,,,,,,
4960,set_tempo,,,,,5,1,0,,1714285,,,,,,,
4970,set_tempo,,,,,10,1,0,,1719197,,,,,,,
4980,set_tempo,,,,,10,1,0,,1724137,,,,,,,
4980,note_on,,,,,0,0,2,,,,,0,,,48,43
4980,note_on,,,,,30,0,2,,,,,0,,,44,0
4980,note_on,,,,,0,0,1,,,,,0,,,51,59
4980,note_on,,,,,0,0,1,,,,,0,,,56,0
4980,note_on,,,,,60,0,1,,,,,0,,,68,0
4980,note_on,,,,,0,0,1,,,,,0,,,63,59
4985,set_tempo,,,,,5,1,0,,1729106,,,,,,,
4990,set_tempo,,,,,5,1,0,,1734104,,,,,,,
4995,set_tempo,,,,,5,1,0,,1739130,,,,,,,
5000,set_tempo,,,,,5,1,0,,1749271,,,,,,,
5010,set_tempo,,,,,10,1,0,,1759530,,,,,,,
5010,note_on,,,,,0,0,2,,,,,0,,,44,45
5010,note_on,,,,,30,0,2,,,,,0,,,48,0
5020,set_tempo,,,,,10,1,0,,1764705,,,,,,,
5025,set_tempo,,,,,5,1,0,,1775147,,,,,,,
5030,set_tempo,,,,,5,1,0,,1780415,,,,,,,
5035,set_tempo,,,,,5,1,0,,1791044,,,,,,,
5037,control_change,,,,,57,0,1,,,,,0,64,0,,
5040,note_on,,,,,0,0,1,,,,,0,,,51,0
5040,note_on,,,,,3,0,1,,,,,0,,,63,0
5040,note_on,,,,,0,0,2,,,,,0,,,37,53
5040,note_on,,,,,0,0,1,,,,,0,,,52,53
5040,set_tempo,,,,,5,1,0,,1796407,,,,,,,
5040,control_change,,,,,0,0,1,,,,,0,64,95,,
5040,note_on,,,,,30,0,2,,,,,0,,,44,0
5040,note_on,,,,,0,0,1,,,,,0,,,64,53
5045,set_tempo,,,,,5,1,0,,1801801,,,,,,,
5050,set_tempo,,,,,5,1,0,,1807228,,,,,,,
5055,set_tempo,,,,,5,1,0,,1829268,,,,,,,
5060,set_tempo,,,,,5,1,0,,1840490,,,,,,,
5065,set_tempo,,,,,5,1,0,,1846153,,,,,,,
5070,note_on,,,,,30,0,2,,,,,0,,,37,0
5070,set_tempo,,,,,5,1,0,,1869158,,,,,,,
5070,note_on,,,,,0,0,2,,,,,0,,,44,48
5075,set_tempo,,,,,5,1,0,,1892744,,,,,,,
5080,set_tempo,,,,,5,1,0,,1904761,,,,,,,
5085,set_tempo,,,,,5,1,0,,1916932,,,,,,,
5090,set_tempo,,,,,5,1,0,,1929260,,,,,,,
5095,set_tempo,,,,,5,1,0,,1910828,,,,,,,
5100,note_on,,,,,0,0,2,,,,,0,,,49,46
5100,note_on,,,,,30,0,2,,,,,0,,,44,0
5115,set_tempo,,,,,20,1,0,,1923076,,,,,,,
5130,note_on,,,,,0,0,2,,,,,0,,,44,44
5130,note_on,,,,,30,0,2,,,,,0,,,49,0
5145,set_tempo,,,,,30,1,0,,1929260,,,,,,,
5150,set_tempo,,,,,5,1,0,,1935483,,,,,,,
5157,control_change,,,,,117,0,1,,,,,0,64,0,,
5160,note_on,,,,,30,0,2,,,,,0,,,44,0
5160,note_on,,,,,0,0,2,,,,,0,,,37,44
5165,set_tempo,,,,,15,1,0,,1941747,,,,,,,
5175,set_tempo,,,,,10,1,0,,1948051,,,,,,,
5185,set_tempo,,,,,10,1,0,,1954397,,,,,,,
5190,note_on,,,,,33,0,1,,,,,0,,,64,0
5190,note_on,,,,,0,0,1,,,,,0,,,52,0
5190,note_on,,,,,30,0,2,,,,,0,,,37,0
5190,note_on,,,,,0,0,2,,,,,0,,,44,40
5195,set_tempo,,,,,10,1,0,,1960784,,,,,,,
5205,set_tempo,,,,,10,1,0,,1967213,,,,,,,
5220,note_on,,,,,30,0,2,,,,,0,,,44,0
5220,note_on,,,,,0,0,2,,,,,0,,,49,36
5220,note_on,,,,,30,0,1,,,,,0,,,52,40
5220,note_on,,,,,0,0,1,,,,,0,,,64,40
5220,set_tempo,,,,,15,1,0,,1973684,,,,,,,
5225,set_tempo,,,,,5,1,0,,1980198,,,,,,,
5235,set_tempo,,,,,10,1,0,,1986754,,,,,,,
5245,set_tempo,,,,,10,1,0,,1993355,,,,,,,
5250,note_on,,,,,0,0,2,,,,,0,,,44,32
5250,note_on,,,,,30,0,2,,,,,0,,,49,0
5260,set_tempo,,,,,15,1,0,,2000000,,,,,,,
5265,set_tempo,,,,,5,1,0,,2006688,,,,,,,
5275,set_tempo,,,,,10,1,0,,1993355,,,,,,,
5280,control_change,,,,,0,0,1,,,,,0,64,95,,
5280,note_on,,,,,0,0,2,,,,,0,,,37,25
5280,note_on,,,,,60,0,1,,,,,0,,,64,0
5280,note_on,,,,,0,0,1,,,,,0,,,52,0
5280,note_on,,,,,30,0,2,,,,,0,,,44,0
5280,note_on,,,,,0,0,1,,,,,0,,,69,32
5280,note_on,,,,,0,0,1,,,,,0,,,57,32
5310,note_on,,,,,30,0,2,,,,,0,,,37,0
5310,note_on,,,,,0,0,2,,,,,0,,,45,29
5310,set_tempo,,,,,35,1,0,,1986754,,,,,,,
5340,note_on,,,,,30,0,2,,,,,0,,,45,0
5340,note_on,,,,,0,0,2,,,,,0,,,52,32
5350,set_tempo,,,,,40,1,0,,1980198,,,,,,,
5370,note_on,,,,,30,0,2,,,,,0,,,52,0
5370,note_on,,,,,0,0,2,,,,,0,,,45,34
5380,set_tempo,,,,,30,1,0,,1973684,,,,,,,
5390,set_tempo,,,,,10,1,0,,1967213,,,,,,,
5397,control_change,,,,,117,0,1,,,,,0,64,0,,
5400,note_on,,,,,30,0,2,,,,,0,,,45,0
5400,note_on,,,,,0,0,1,,,,,0,,,69,0
5400,set_tempo,,,,,10,1,0,,1960784,,,,,,,
5400,note_on,,,,,3,0,1,,,,,0,,,57,0
5400,note_on,,,,,0,0,2,,,,,0,,,35,36
5400,note_on,,,,,0,0,1,,,,,0,,,56,36
5400,control_change,,,,,0,0,1,,,,,0,64,95,,
5400,note_on,,,,,0,0,1,,,,,0,,,68,36
5410,set_tempo,,,,,10,1,0,,1954397,,,,,,,
5430,note_on,,,,,30,0,2,,,,,0,,,35,0
5430,note_on,,,,,0,0,2,,,,,0,,,47,36
5450,set_tempo,,,,,40,1,0,,1941747,,,,,,,
5460,note_on,,,,,30,0,2,,,,,0,,,47,0
5460,note_on,,,,,0,0,2,,,,,0,,,52,38
5465,set_tempo,,,,,15,1,0,,1935483,,,,,,,
5470,set_tempo,,,,,5,1,0,,1929260,,,,,,,
5480,set_tempo,,,,,10,1,0,,1923076,,,,,,,
5490,note_on,,,,,90,0,1,,,,,0,,,56,0
5490,control_change,,,,,0,0,1,,,,,0,64,0,,
5490,note_on,,,,,0,0,1,,,,,0,,,68,0
5490,note_on,,,,,30,0,2,,,,,0,,,52,0
5490,note_on,,,,,0,0,2,,,,,0,,,47,38
5495,set_tempo,,,,,15,1,0,,1916932,,,,,,,
5505,set_tempo,,,,,10,1,0,,1910828,,,,,,,
5505,note_on,,,,,15,0,1,,,,,0,,,69,44
5505,note_on,,,,,0,0,1,,,,,0,,,57,44
5515,set_tempo,,,,,10,1,0,,1898734,,,,,,,
5520,note_on,,,,,15,0,1,,,,,0,,,57,0
5520,note_on,,,,,0,0,1,,,,,0,,,69,0
5520,note_on,,,,,0,0,1,,,,,0,,,68,44
5520,note_on,,,,,0,0,1,,,,,0,,,56,44
5520,note_on,,,,,30,0,2,,,,,0,,,47,0
5520,note_on,,,,,0,0,2,,,,,0,,,37,38
5520,set_tempo,,,,,5,1,0,,1892744,,,,,,,
5525,set_tempo,,,,,5,1,0,,1886792,,,,,,,
5540,set_tempo,,,,,15,1,0,,1880877,,,,,,,
5550,note_on,,,,,30,0,2,,,,,0,,,37,0
5550,note_on,,,,,0,0,2,,,,,0,,,46,40
5570,set_tempo,,,,,30,1,0,,1875000,,,,,,,
5580,note_on,,,,,60,0,1,,,,,0,,,56,0
5580,note_on,,,,,0,0,1,,,,,0,,,54,37
5580,control_change,,,,,0,0,1,,,,,0,64,95,,
5580,set_tempo,,,,,10,1,0,,1863354,,,,,,,
5580,note_on,,,,,0,0,1,,,,,0,,,68,0
5580,note_on,,,,,30,0,2,,,,,0,,,46,0
5580,note_on,,,,,0,0,1,,,,,0,,,66,37
5580,note_on,,,,,0,0,2,,,,,0,,,52,41
5610,set_tempo,,,,,30,1,0,,1857585,,,,,,,
5610,note_on,,,,,0,0,2,,,,,0,,,46,42
5610,note_on,,,,,30,0,2,,,,,0,,,52,0
5615,set_tempo,,,,,5,1,0,,1851851,,,,,,,
5630,set_tempo,,,,,15,1,0,,1840490,,,,,,,
5637,control_change,,,,,57,0,1,,,,,0,64,0,,
5640,note_on,,,,,0,0,2,,,,,0,,,36,42
5640,note_on,,,,,30,0,2,,,,,0,,,46,0
5665,set_tempo,,,,,35,1,0,,1829268,,,,,,,
5670,note_on,,,,,0,0,2,,,,,0,,,46,43
5670,note_on,,,,,30,0,2,,,,,0,,,36,0
5695,set_tempo,,,,,30,1,0,,1823708,,,,,,,
5700,note_on,,,,,0,0,2,,,,,0,,,52,44
5700,set_tempo,,,,,5,1,0,,1818181,,,,,,,
5700,note_on,,,,,0,0,1,,,,,0,,,55,51
5700,note_on,,,,,30,0,2,,,,,0,,,46,0
5700,control_change,,,,,0,0,1,,,,,0,64,95,,
5700,note_on,,,,,0,0,1,,,,,0,,,66,0
5700,note_on,,,,,0,0,1,,,,,0,,,67,51
5700,note_on,,,,,63,0,1,,,,,0,,,54,0
5730,set_tempo,,,,,30,1,0,,1812688,,,,,,,
5730,note_on,,,,,30,0,2,,,,,0,,,52,0
5730,note_on,,,,,0,0,2,,,,,0,,,46,46
5757,control_change,,,,,57,0,1,,,,,0,64,0,,
5760,control_change,,,,,0,0,1,,,,,0,64,95,,
5760,note_on,,,,,0,0,1,,,,,0,,,52,62
5760,note_on,,,,,0,0,1,,,,,0,,,64,62
5760,note_on,,,,,0,0,1,,,,,0,,,67,0
5760,note_on,,,,,0,0,2,,,,,0,,,35,46
5760,note_on,,,,,30,0,2,,,,,0,,,46,0
5760,set_tempo,,,,,30,1,0,,1807228,,,,,,,
5760,note_on,,,,,3,0,1,,,,,0,,,55,0
5770,set_tempo,,,,,10,1,0,,1796407,,,,,,,
5790,note_on,,,,,30,0,2,,,,,0,,,35,0
5790,note_on,,,,,0,0,2,,,,,0,,,44,50
5800,set_tempo,,,,,30,1,0,,1791044,,,,,,,
5810,set_tempo,,,,,10,1,0,,1780415,,,,,,,
5820,note_on,,,,,30,0,2,,,,,0,,,44,0
5820,note_on,,,,,0,0,2,,,,,0,,,47,53
5820,set_tempo,,,,,10,1,0,,1775147,,,,,,,
5850,note_on,,,,,30,0,2,,,,,0,,,47,0
5850,note_on,,,,,0,0,2,,,,,0,,,44,57
5855,set_tempo,,,,,35,1,0,,1764705,,,,,,,
5877,control_change,,,,,117,0,1,,,,,0,64,0,,
5880,note_on,,,,,30,0,2,,,,,0,,,44,0
5880,note_on,,,,,0,0,1,,,,,0,,,64,0
5880,control_change,,,,,0,0,1,,,,,0,64,95,,
5880,note_on,,,,,0,0,1,,,,,0,,,63,57
5880,note_on,,,,,0,0,1,,,,,0,,,51,57
5880,note_on,,,,,0,0,2,,,,,0,,,33,59
5880,note_on,,,,,3,0,1,,,,,0,,,52,0
5885,set_tempo,,,,,30,1,0,,1754385,,,,,,,
5910,note_on,,,,,30,0,2,,,,,0,,,33,0
5910,note_on,,,,,0,0,2,,,,,0,,,42,61
5910,note_on,,,,,30,0,1,,,,,0,,,63,0
5915,set_tempo,,,,,30,1,0,,1744186,,,,,,,
5925,note_on,,,,,15,0,1,,,,,0,,,64,62
5925,set_tempo,,,,,10,1,0,,1739130,,,,,,,
5930,note_on,,,,,5,0,1,,,,,0,,,64,0
5930,note_on,,,,,0,0,1,,,,,0,,,63,64
5930,set_tempo,,,,,5,1,0,,1734104,,,,,,,
5935,note_on,,,,,5,0,1,,,,,0,,,63,0
5935,note_on,,,,,0,0,1,,,,,0,,,61,64
5937,control_change,,,,,2,0,1,,,,,0,64,0,,
5940,note_on,,,,,0,0,2,,,,,0,,,47,65
5940,note_on,,,,,30,0,2,,,,,0,,,42,0
5940,note_on,,,,,3,0,1,,,,,0,,,61,0
5940,note_on,,,,,0,0,1,,,,,0,,,63,64
5955,note_on,,,,,15,0,1,,,,,0,,,63,0
5955,note_on,,,,,0,0,1,,,,,0,,,51,0
5965,set_tempo,,,,,35,1,0,,1729106,,,,,,,
5970,note_on,,,,,0,0,1,,,,,0,,,59,68
5970,note_on,,,,,30,0,2,,,,,0,,,47,0
5970,note_on,,,,,0,0,2,,,,,0,,,42,67
5970,note_on,,,,,15,0,1,,,,,0,,,71,68
5975,set_tempo,,,,,10,1,0,,1719197,,,,,,,
6000,note_on,,,,,0,0,1,,,,,0,,,59,74
6000,note_on,,,,,30,0,2,,,,,0,,,42,0
6000,note_on,,,,,0,0,1,,,,,0,,,71,74
6000,note_on,,,,,0,0,1,,,,,0,,,71,0
6000,note_on,,,,,30,0,1,,,,,0,,,59,0
6000,note_on,,,,,0,0,2,,,,,0,,,32,72
6002,control_change,,,,,2,0,1,,,,,0,64,94,,
6005,set_tempo,,,,,30,1,0,,1714285,,,,,,,
6030,note_on,,,,,0,0,2,,,,,0,,,40,75
6030,note_on,,,,,30,0,2,,,,,0,,,32,0
6035,set_tempo,,,,,30,1,0,,1699716,,,,,,,
6050,set_tempo,,,,,15,1,0,,1694915,,,,,,,
6055,set_tempo,,,,,5,1,0,,1690140,,,,,,,
6057,control_change,,,,,55,0,1,,,,,0,64,0,,
6060,note_on,,,,,0,0,2,,,,,0,,,47,84
6060,note_on,,,,,30,0,2,,,,,0,,,40,0
6065,set_tempo,,,,,10,1,0,,1685393,,,,,,,
6075,set_tempo,,,,,10,1,0,,1680672,,,,,,,
6085,set_tempo,,,,,10,1,0,,1675977,,,,,,,
6090,set_tempo,,,,,5,1,0,,1671309,,,,,,,
6090,note_on,,,,,0,0,1,,,,,0,,,71,0
6090,note_on,,,,,33,0,1,,,,,0,,,59,0
6090,note_on,,,,,30,0,2,,,,,0,,,47,0
6090,note_on,,,,,0,0,2,,,,,0,,,40,97
6100,set_tempo,,,,,10,1,0,,1666666,,,,,,,
6110,set_tempo,,,,,10,1,0,,1662049,,,,,,,
6110,note_on,,,,,20,0,1,,,,,0,,,71,92
6115,note_on,,,,,0,0,1,,,,,0,,,73,96
6115,note_on,,,,,5,0,1,,,,,0,,,71,0
6120,set_tempo,,,,,10,1,0,,1657458,,,,,,,
6120,note_on,,,,,0,0,1,,,,,0,,,62,100
6120,note_on,,,,,30,0,2,,,,,0,,,40,0
6120,control_change,,,,,0,0,1,,,,,0,64,96,,
6120,note_on,,,,,5,0,1,,,,,0,,,73,0
6120,note_on,,,,,0,0,1,,,,,0,,,74,100
6120,note_on,,,,,0,0,2,,,,,0,,,32,109
6130,set_tempo,,,,,10,1,0,,1652892,,,,,,,
6135,set_tempo,,,,,5,1,0,,1648351,,,,,,,
6150,note_on,,,,,30,0,2,,,,,0,,,32,0
6150,note_on,,,,,0,0,2,,,,,0,,,41,90
6155,set_tempo,,,,,20,1,0,,1639344,,,,,,,
6180,note_on,,,,,30,0,2,,,,,0,,,41,0
6180,note_on,,,,,0,0,2,,,,,0,,,47,78
6180,set_tempo,,,,,25,1,0,,1634877,,,,,,,
6210,note_on,,,,,30,0,2,,,,,0,,,47,0
6210,note_on,,,,,0,0,2,,,,,0,,,41,65
6225,set_tempo,,,,,45,1,0,,1639344,,,,,,,
6225,note_on,,,,,0,0,1,,,,,0,,,74,0
6225,note_on,,,,,105,0,1,,,,,0,,,62,0
6235,set_tempo,,,,,10,1,0,,1643835,,,,,,,
6240,note_on,,,,,15,0,1,,,,,0,,,74,62
6240,note_on,,,,,0,0,1,,,,,0,,,62,62
6240,note_on,,,,,0,0,2,,,,,0,,,33,60
6240,note_on,,,,,30,0,2,,,,,0,,,41,0
6240,control_change,,,,,0,0,1,,,,,0,64,0,,
6245,set_tempo,,,,,10,1,0,,1648351,,,,,,,
6250,set_tempo,,,,,5,1,0,,1652892,,,,,,,
6255,set_tempo,,,,,5,1,0,,1657458,,,,,,,
6260,set_tempo,,,,,5,1,0,,1662049,,,,,,,
6270,note_on,,,,,30,0,1,,,,,0,,,62,0
6270,note_on,,,,,0,0,1,,,,,0,,,74,0
6270,note_on,,,,,0,0,2,,,,,0,,,45,49
6270,note_on,,,,,0,0,1,,,,,0,,,61,56
6270,note_on,,,,,30,0,2,,,,,0,,,33,0
6270,set_tempo,,,,,10,1,0,,1666666,,,,,,,
6270,note_on,,,,,0,0,1,,,,,0,,,73,56
6275,set_tempo,,,,,5,1,0,,1675977,,,,,,,
6280,set_tempo,,,,,5,1,0,,1680672,,,,,,,
6290,set_tempo,,,,,10,1,0,,1690140,,,,,,,
6295,set_tempo,,,,,5,1,0,,1694915,,,,,,,
6300,note_on,,,,,0,0,2,,,,,0,,,42,43
6300,set_tempo,,,,,5,1,0,,1699716,,,,,,,
6300,note_on,,,,,30,0,2,,,,,0,,,45,0
6300,note_on,,,,,30,0,1,,,,,0,,,61,0
6300,note_on,,,,,0,0,1,,,,,0,,,73,0
6300,note_on,,,,,0,0,1,,,,,0,,,69,50
6300,note_on,,,,,0,0,1,,,,,0,,,57,50
6310,set_tempo,,,,,10,1,0,,1704545,,,,,,,
6315,set_tempo,,,,,5,1,0,,1709401,,,,,,,
6330,set_tempo,,,,,15,1,0,,1704545,,,,,,,
6330,note_on,,,,,0,0,2,,,,,0,,,49,38
6330,note_on,,,,,30,0,2,,,,,0,,,42,0
6330,note_on,,,,,0,0,1,,,,,0,,,68,45
6330,note_on,,,,,0,0,1,,,,,0,,,69,0
6330,note_on,,,,,30,0,1,,,,,0,,,57,0
6330,note_on,,,,,0,0,1,,,,,0,,,56,45
6340,set_tempo,,,,,10,1,0,,1714285,,,,,,,
6350,set_tempo,,,,,10,1,0,,1729106,,,,,,,
6355,set_tempo,,,,,5,1,0,,1739130,,,,,,,
6360,note_on,,,,,30,0,1,,,,,0,,,56,0
6360,note_on,,,,,0,0,1,,,,,0,,,66,40
6360,note_on,,,,,0,0,1,,,,,0,,,54,40
6360,control_change,,,,,0,0,1,,,,,0,64,95,,
6360,note_on,,,,,0,0,1,,,,,0,,,68,0
6360,note_on,,,,,30,0,2,,,,,0,,,49,0
6360,note_on,,,,,0,0,2,,,,,0,,,35,36
6370,set_tempo,,,,,15,1,0,,1769911,,,,,,,
6380,set_tempo,,,,,10,1,0,,1785714,,,,,,,
6390,note_on,,,,,30,0,2,,,,,0,,,35,0
6390,note_on,,,,,0,0,2,,,,,0,,,45,34
6390,set_tempo,,,,,10,1,0,,1801801,,,,,,,
6400,set_tempo,,,,,10,1,0,,1807228,,,,,,,
6410,set_tempo,,,,,10,1,0,,1851851,,,,,,,
6417,control_change,,,,,57,0,1,,,,,0,64,0,,
6420,note_on,,,,,30,0,2,,,,,0,,,45,0
6420,note_on,,,,,0,0,2,,,,,0,,,42,33
6420,control_change,,,,,0,0,1,,,,,0,64,96,,
6420,note_on,,,,,0,0,1,,,,,0,,,59,37
6420,note_on,,,,,0,0,1,,,,,0,,,71,37
6420,note_on,,,,,0,0,1,,,,,0,,,66,0
6420,note_on,,,,,3,0,1,,,,,0,,,54,0
6440,set_tempo,,,,,30,1,0,,1863354,,,,,,,
6445,set_tempo,,,,,5,1,0,,1904761,,,,,,,
6450,note_on,,,,,30,0,2,,,,,0,,,42,0
6450,set_tempo,,,,,5,1,0,,1910828,,,,,,,
6450,note_on,,,,,0,0,2,,,,,0,,,51,31
6460,set_tempo,,,,,10,1,0,,1923076,,,,,,,
6465,set_tempo,,,,,5,1,0,,1960784,,,,,,,
6472,note_on,,,,,0,0,1,,,,,0,,,71,0
6472,note_on,,,,,52,0,1,,,,,0,,,59,0
6475,set_tempo,,,,,10,1,0,,2352941,,,,,,,
6477,control_change,,,,,5,0,1,,,,,0,64,0,,
6480,note_on,,,,,0,0,2,,,,,0,,,52,38
6480,note_on,,,,,0,0,2,,,,,0,,,40,38
6480,set_tempo,,,,,5,1,0,,2343750,,,,,,,
6480,control_change,,,,,0,0,1,,,,,0,64,95,,
6480,note_on,,,,,3,0,1,,,,,0,,,64,34
6480,note_on,,,,,30,0,2,,,,,0,,,51,0
6485,set_tempo,,,,,5,1,0,,2316602,,,,,,,
6490,set_tempo,,,,,5,1,0,,2298850,,,,,,,
6497,note_on,,,,,0,0,2,,,,,0,,,40,0
6497,note_on,,,,,17,0,2,,,,,0,,,52,0
6500,set_tempo,,,,,10,1,0,,2272727,,,,,,,
6500,note_on,,,,,0,0,2,,,,,0,,,52,30
6500,note_on,,,,,3,0,2,,,,,0,,,40,30
6505,set_tempo,,,,,5,1,0,,2255639,,,,,,,
6510,set_tempo,,,,,5,1,0,,2238805,,,,,,,
6513,note_on,,,,,13,0,2,,,,,0,,,52,0
6513,note_on,,,,,0,0,2,,,,,0,,,40,0
6515,set_tempo,,,,,5,1,0,,2222222,,,,,,,
6520,note_on,,,,,7,0,2,,,,,0,,,52,31
6520,set_tempo,,,,,5,1,0,,2166064,,,,,,,
6520,note_on,,,,,0,0,2,,,,,0,,,40,31
6525,set_tempo,,,,,5,1,0,,2150537,,,,,,,
6530,set_tempo,,,,,5,1,0,,2135231,,,,,,,
6533,note_on,,,,,0,0,2,,,,,0,,,52,0
6533,note_on,,,,,13,0,2,,,,,0,,,40,0
6537,control_change,,,,,57,0,1,,,,,0,64,0,,
6540,control_change,,,,,3,0,1,,,,,0,64,96,,
6540,note_on,,,,,0,0,2,,,,,0,,,52,32
6540,note_on,,,,,7,0,2,,,,,0,,,42,32
6540,set_tempo,,,,,10,1,0,,2090592,,,,,,,
6545,set_tempo,,,,,5,1,0,,2047781,,,,,,,
6550,set_tempo,,,,,5,1,0,,2033898,,,,,,,
6553,note_on,,,,,0,0,2,,,,,0,,,42,0
6553,note_on,,,,,13,0,2,,,,,0,,,52,0
6555,set_tempo,,,,,5,1,0,,2020202,,,,,,,
6560,note_on,,,,,0,0,2,,,,,0,,,52,34
6560,note_on,,,,,7,0,2,,,,,0,,,42,34
6560,set_tempo,,,,,5,1,0,,2013422,,,,,,,
6565,set_tempo,,,,,5,1,0,,1973684,,,,,,,
6573,note_on,,,,,13,0,2,,,,,0,,,52,0
6573,note_on,,,,,0,0,2,,,,,0,,,42,0
6580,note_on,,,,,7,0,2,,,,,0,,,52,35
6580,note_on,,,,,0,0,2,,,,,0,,,42,35
6593,note_on,,,,,13,0,2,,,,,0,,,42,0
6593,note_on,,,,,0,0,2,,,,,0,,,52,0
6595,set_tempo,,,,,30,1,0,,1960784,,,,,,,
6597,control_change,,,,,57,0,1,,,,,0,64,0,,
6600,set_tempo,,,,,5,1,0,,1923076,,,,,,,
6600,note_on,,,,,0,0,2,,,,,0,,,52,36
6600,note_on,,,,,7,0,2,,,,,0,,,43,36
6600,note_on,,,,,3,0,1,,,,,0,,,64,0
6600,control_change,,,,,0,0,1,,,,,0,64,96,,
6610,set_tempo,,,,,10,1,0,,1916932,,,,,,,
6615,set_tempo,,,,,5,1,0,,1904761,,,,,,,
6617,note_on,,,,,17,0,2,,,,,0,,,52,0
6617,note_on,,,,,0,0,2,,,,,0,,,43,0
6620,note_on,,,,,3,0,2,,,,,0,,,43,37
6620,note_on,,,,,0,0,2,,,,,0,,,52,37
6625,set_tempo,,,,,10,1,0,,1892744,,,,,,,
6633,note_on,,,,,13,0,2,,,,,0,,,52,0
6633,note_on,,,,,0,0,2,,,,,0,,,43,0
6640,note_on,,,,,7,0,2,,,,,0,,,52,38
6640,note_on,,,,,0,0,2,,,,,0,,,43,38
6653,note_on,,,,,13,0,2,,,,,0,,,43,0
6653,note_on,,,,,0,0,2,,,,,0,,,52,0
6655,set_tempo,,,,,30,1,0,,1880877,,,,,,,
6657,control_change,,,,,57,0,1,,,,,0,64,0,,
6660,control_change,,,,,0,0,1,,,,,0,64,95,,
6660,note_on,,,,,0,0,1,,,,,0,,,52,39
6660,note_on,,,,,3,0,1,,,,,0,,,64,39
6660,set_tempo,,,,,5,1,0,,1869158,,,,,,,
6660,note_on,,,,,7,0,2,,,,,0,,,44,39
6660,note_on,,,,,0,0,2,,,,,0,,,52,39
6673,note_on,,,,,13,0,2,,,,,0,,,52,0
6673,note_on,,,,,0,0,2,,,,,0,,,44,0
6680,note_on,,,,,0,0,2,,,,,0,,,52,39
6680,note_on,,,,,7,0,2,,,,,0,,,44,39
6690,set_tempo,,,,,30,1,0,,1857585,,,,,,,
6693,note_on,,,,,13,0,2,,,,,0,,,52,0
6693,note_on,,,,,0,0,2,,,,,0,,,44,0
6695,set_tempo,,,,,5,1,0,,1846153,,,,,,,
6700,note_on,,,,,7,0,2,,,,,0,,,52,40
6700,note_on,,,,,0,0,2,,,,,0,,,44,40
6705,set_tempo,,,,,10,1,0,,1840490,,,,,,,
6710,set_tempo,,,,,5,1,0,,1834862,,,,,,,
6713,note_on,,,,,13,0,2,,,,,0,,,44,0
6713,note_on,,,,,0,0,2,,,,,0,,,52,0
6717,control_change,,,,,57,0,1,,,,,0,64,0,,
6720,note_on,,,,,0,0,1,,,,,0,,,66,52
6720,note_on,,,,,0,0,1,,,,,0,,,64,0
6720,note_on,,,,,0,0,2,,,,,0,,,52,41
6720,note_on,,,,,7,0,2,,,,,0,,,45,41
6720,note_on,,,,,3,0,1,,,,,0,,,52,0
6720,note_on,,,,,0,0,1,,,,,0,,,54,52
6722,control_change,,,,,2,0,1,,,,,0,64,96,,
6737,note_on,,,,,0,0,2,,,,,0,,,45,0
6737,note_on,,,,,17,0,2,,,,,0,,,52,0
6740,note_on,,,,,0,0,2,,,,,0,,,52,41
6740,note_on,,,,,3,0,2,,,,,0,,,45,41
6740,set_tempo,,,,,30,1,0,,1823708,,,,,,,
6745,set_tempo,,,,,5,1,0,,1818181,,,,,,,
6753,note_on,,,,,0,0,2,,,,,0,,,45,0
6753,note_on,,,,,13,0,2,,,,,0,,,52,0
6760,note_on,,,,,7,0,2,,,,,0,,,52,41
6760,note_on,,,,,0,0,2,,,,,0,,,45,41
6760,set_tempo,,,,,15,1,0,,1812688,,,,,,,
6773,note_on,,,,,13,0,2,,,,,0,,,45,0
6773,note_on,,,,,0,0,2,,,,,0,,,52,0
6777,control_change,,,,,55,0,1,,,,,0,64,0,,
6780,note_on,,,,,0,0,2,,,,,0,,,52,42
6780,note_on,,,,,3,0,1,,,,,0,,,66,0
6780,note_on,,,,,0,0,1,,,,,0,,,54,0
6780,control_change,,,,,0,0,1,,,,,0,64,95,,
6780,note_on,,,,,7,0,2,,,,,0,,,47,42
6793,note_on,,,,,13,0,2,,,,,0,,,52,0
6793,note_on,,,,,0,0,2,,,,,0,,,47,0
6795,set_tempo,,,,,35,1,0,,1807228,,,,,,,
6800,note_on,,,,,7,0,2,,,,,0,,,47,43
6800,note_on,,,,,0,0,2,,,,,0,,,52,43
6805,set_tempo,,,,,10,1,0,,1801801,,,,,,,
6813,note_on,,,,,13,0,2,,,,,0,,,52,0
6813,note_on,,,,,0,0,2,,,,,0,,,47,0
6820,note_on,,,,,7,0,2,,,,,0,,,52,43
6820,note_on,,,,,0,0,2,,,,,0,,,47,43
6825,note_on,,,,,45,0,1,,,,,0,,,55,56
6825,note_on,,,,,0,0,1,,,,,0,,,67,56
6830,set_tempo,,,,,25,1,0,,1796407,,,,,,,
6833,note_on,,,,,13,0,2,,,,,0,,,47,0
6833,note_on,,,,,0,0,2,,,,,0,,,52,0
6837,control_change,,,,,12,0,1,,,,,0,64,0,,
6840,note_on,,,,,3,0,1,,,,,0,,,67,0
6840,note_on,,,,,0,0,1,,,,,0,,,66,63
6840,control_change,,,,,0,0,1,,,,,0,64,95,,
6840,note_on,,,,,0,0,2,,,,,0,,,52,44
6840,note_on,,,,,7,0,2,,,,,0,,,48,44
6840,note_on,,,,,0,0,1,,,,,0,,,55,0
6840,note_on,,,,,0,0,1,,,,,0,,,54,63
6857,note_on,,,,,0,0,2,,,,,0,,,48,0
6857,note_on,,,,,17,0,2,,,,,0,,,52,0
6860,note_on,,,,,3,0,2,,,,,0,,,48,45
6860,note_on,,,,,0,0,2,,,,,0,,,52,45
6870,set_tempo,,,,,40,1,0,,1791044,,,,,,,
6873,note_on,,,,,13,0,2,,,,,0,,,52,0
6873,note_on,,,,,0,0,2,,,,,0,,,48,0
6875,set_tempo,,,,,5,1,0,,1785714,,,,,,,
6880,note_on,,,,,7,0,2,,,,,0,,,52,46
6880,note_on,,,,,0,0,2,,,,,0,,,48,46
6885,note_on,,,,,45,0,1,,,,,0,,,66,0
6885,note_on,,,,,0,0,1,,,,,0,,,54,0
6893,note_on,,,,,0,0,2,,,,,0,,,52,0
6893,note_on,,,,,13,0,2,,,,,0,,,48,0
6895,set_tempo,,,,,20,1,0,,1780415,,,,,,,
6897,control_change,,,,,12,0,1,,,,,0,64,0,,
6900,note_on,,,,,0,0,1,,,,,0,,,66,57
6900,note_on,,,,,3,0,1,,,,,0,,,54,57
6900,note_on,,,,,7,0,2,,,,,0,,,45,46
6900,note_on,,,,,0,0,2,,,,,0,,,52,46
6900,control_change,,,,,0,0,1,,,,,0,64,96,,
6913,note_on,,,,,13,0,2,,,,,0,,,52,0
6913,note_on,,,,,0,0,2,,,,,0,,,45,0
6920,note_on,,,,,0,0,2,,,,,0,,,52,48
6920,note_on,,,,,7,0,2,,,,,0,,,45,48
6933,note_on,,,,,13,0,2,,,,,0,,,52,0
6933,note_on,,,,,0,0,2,,,,,0,,,45,0
6935,set_tempo,,,,,40,1,0,,1775147,,,,,,,
6940,note_on,,,,,7,0,2,,,,,0,,,52,48
6940,note_on,,,,,0,0,2,,,,,0,,,47,48
6945,note_on,,,,,0,0,1,,,,,0,,,54,0
6945,note_on,,,,,45,0,1,,,,,0,,,66,0
6953,note_on,,,,,13,0,2,,,,,0,,,47,0
6953,note_on,,,,,0,0,2,,,,,0,,,52,0
6957,control_change,,,,,12,0,1,,,,,0,64,0,,
6960,note_on,,,,,7,0,2,,,,,0,,,48,47
6960,note_on,,,,,3,0,1,,,,,0,,,54,59
6960,note_on,,,,,0,0,1,,,,,0,,,66,59
6960,control_change,,,,,0,0,1,,,,,0,64,95,,
6960,note_on,,,,,0,0,2,,,,,0,,,52,47
6977,note_on,,,,,0,0,2,,,,,0,,,48,0
6977,note_on,,,,,17,0,2,,,,,0,,,52,0
6980,note_on,,,,,0,0,2,,,,,0,,,52,48
6980,note_on,,,,,3,0,2,,,,,0,,,48,48
6993,note_on,,,,,0,0,2,,,,,0,,,48,0
6993,note_on,,,,,13,0,2,,,,,0,,,52,0
7000,note_on,,,,,0,0,2,,,,,0,,,48,50
7000,note_on,,,,,7,0,2,,,,,0,,,52,50
7005,note_on,,,,,0,0,1,,,,,0,,,54,0
7005,note_on,,,,,45,0,1,,,,,0,,,66,0
7005,note_on,,,,,0,0,1,,,,,0,,,55,58
7005,note_on,,,,,0,0,1,,,,,0,,,67,58
7013,note_on,,,,,13,0,2,,,,,0,,,48,0
7013,note_on,,,,,0,0,2,,,,,0,,,52,0
7017,control_change,,,,,12,0,1,,,,,0,64,0,,
7020,control_change,,,,,0,0,1,,,,,0,64,96,,
7020,note_on,,,,,0,0,1,,,,,0,,,69,61
7020,note_on,,,,,0,0,1,,,,,0,,,57,61
7020,note_on,,,,,0,0,1,,,,,0,,,55,0
7020,note_on,,,,,3,0,1,,,,,0,,,67,0
7020,note_on,,,,,0,0,2,,,,,0,,,52,53
7020,note_on,,,,,7,0,2,,,,,0,,,47,53
7033,note_on,,,,,0,0,2,,,,,0,,,47,0
7033,note_on,,,,,13,0,2,,,,,0,,,52,0
7040,note_on,,,,,0,0,2,,,,,0,,,52,55
7040,note_on,,,,,7,0,2,,,,,0,,,47,55
7053,note_on,,,,,0,0,2,,,,,0,,,47,0
7053,note_on,,,,,13,0,2,,,,,0,,,52,0
7060,note_on,,,,,0,0,2,,,,,0,,,47,56
7060,note_on,,,,,7,0,2,,,,,0,,,52,56
7065,note_on,,,,,0,0,1,,,,,0,,,57,0
7065,note_on,,,,,45,0,1,,,,,0,,,69,0
7065,note_on,,,,,0,0,1,,,,,0,,,59,66
7065,note_on,,,,,0,0,1,,,,,0,,,71,66
7073,note_on,,,,,0,0,2,,,,,0,,,52,0
7073,note_on,,,,,13,0,2,,,,,0,,,47,0
7077,control_change,,,,,12,0,1,,,,,0,64,0,,
7080,note_on,,,,,3,0,1,,,,,0,,,71,0
7080,note_on,,,,,0,0,1,,,,,0,,,59,0
7080,note_on,,,,,0,0,1,,,,,0,,,60,70
7080,note_on,,,,,0,0,1,,,,,0,,,72,70
7080,note_on,,,,,7,0,2,,,,,0,,,45,58
7080,note_on,,,,,0,0,2,,,,,0,,,52,58
7080,control_change,,,,,0,0,1,,,,,0,64,95,,
7097,note_on,,,,,17,0,2,,,,,0,,,52,0
7097,note_on,,,,,0,0,2,,,,,0,,,45,0
7100,note_on,,,,,0,0,2,,,,,0,,,52,64
7100,note_on,,,,,3,0,2,,,,,0,,,45,64
7113,note_on,,,,,0,0,2,,,,,0,,,45,0
7113,note_on,,,,,13,0,2,,,,,0,,,52,0
7120,note_on,,,,,0,0,2,,,,,0,,,45,72
7120,note_on,,,,,7,0,2,,,,,0,,,52,72
7133,note_on,,,,,0,0,2,,,,,0,,,52,0
7133,note_on,,,,,13,0,2,,,,,0,,,45,0
7137,control_change,,,,,57,0,1,,,,,0,64,0,,
7140,note_on,,,,,7,0,2,,,,,0,,,46,81
7140,note_on,,,,,0,0,2,,,,,0,,,52,81
7140,note_on,,,,,0,0,1,,,,,0,,,54,69
7140,note_on,,,,,0,0,1,,,,,0,,,66,69
7140,control_change,,,,,0,0,1,,,,,0,64,95,,
7140,note_on,,,,,0,0,1,,,,,0,,,60,0
7140,note_on,,,,,3,0,1,,,,,0,,,72,0
7153,note_on,,,,,13,0,2,,,,,0,,,52,0
7153,note_on,,,,,0,0,2,,,,,0,,,46,0
7160,note_on,,,,,7,0,2,,,,,0,,,46,84
7160,note_on,,,,,0,0,2,,,,,0,,,52,84
7173,note_on,,,,,13,0,2,,,,,0,,,52,0
7173,note_on,,,,,0,0,2,,,,,0,,,46,0
7180,note_on,,,,,0,0,2,,,,,0,,,46,86
7180,note_on,,,,,7,0,2,,,,,0,,,52,86
7185,note_on,,,,,45,0,1,,,,,0,,,66,0
7185,note_on,,,,,0,0,1,,,,,0,,,54,0
7185,set_tempo,,,,,250,1,0,,1769911,,,,,,,
7193,note_on,,,,,0,0,2,,,,,0,,,52,0
7193,note_on,,,,,13,0,2,,,,,0,,,46,0
7197,control_change,,,,,12,0,1,,,,,0,64,0,,
7200,note_on,,,,,0,0,2,,,,,0,,,47,91
7200,note_on,,,,,7,0,2,,,,,0,,,51,91
7200,control_change,,,,,0,0,1,,,,,0,64,95,,
7200,note_on,,,,,0,0,1,,,,,0,,,66,84
7200,note_on,,,,,3,0,1,,,,,0,,,54,84
7200,set_tempo,,,,,15,1,0,,1764705,,,,,,,
7205,set_tempo,,,,,5,1,0,,1759530,,,,,,,
7210,set_tempo,,,,,5,1,0,,1754385,,,,,,,
7217,note_on,,,,,0,0,2,,,,,0,,,51,0
7217,note_on,,,,,17,0,2,,,,,0,,,47,0
7220,note_on,,,,,3,0,2,,,,,0,,,51,78
7220,set_tempo,,,,,10,1,0,,1749271,,,,,,,
7220,note_on,,,,,0,0,2,,,,,0,,,47,78
7225,set_tempo,,,,,5,1,0,,1744186,,,,,,,
7230,set_tempo,,,,,5,1,0,,1739130,,,,,,,
7233,note_on,,,,,13,0,2,,,,,0,,,47,0
7233,note_on,,,,,0,0,2,,,,,0,,,51,0
7240,set_tempo,,,,,10,1,0,,1734104,,,,,,,
7240,note_on,,,,,0,0,2,,,,,0,,,47,77
7240,note_on,,,,,7,0,2,,,,,0,,,51,77
7245,set_tempo,,,,,5,1,0,,1729106,,,,,,,
7250,set_tempo,,,,,5,1,0,,1724137,,,,,,,
7253,note_on,,,,,13,0,2,,,,,0,,,47,0
7253,note_on,,,,,0,0,2,,,,,0,,,51,0
7257,control_change,,,,,57,0,1,,,,,0,64,0,,
7260,set_tempo,,,,,10,1,0,,1719197,,,,,,,
7260,note_on,,,,,0,0,2,,,,,0,,,51,79
7260,note_on,,,,,7,0,2,,,,,0,,,48,79
7260,control_change,,,,,3,0,1,,,,,0,64,95,,
7265,set_tempo,,,,,5,1,0,,1714285,,,,,,,
7270,set_tempo,,,,,5,1,0,,1709401,,,,,,,
7273,note_on,,,,,0,0,2,,,,,0,,,48,0
7273,note_on,,,,,13,0,2,,,,,0,,,51,0
7280,set_tempo,,,,,10,1,0,,1704545,,,,,,,
7280,note_on,,,,,7,0,2,,,,,0,,,48,84
7280,note_on,,,,,0,0,2,,,,,0,,,51,84
7290,set_tempo,,,,,10,1,0,,1694915,,,,,,,
7293,note_on,,,,,13,0,2,,,,,0,,,51,0
7293,note_on,,,,,0,0,2,,,,,0,,,48,0
7300,set_tempo,,,,,10,1,0,,1690140,,,,,,,
7300,note_on,,,,,7,0,2,,,,,0,,,48,92
7300,note_on,,,,,0,0,2,,,,,0,,,51,92
7305,set_tempo,,,,,5,1,0,,1680672,,,,,,,
7313,note_on,,,,,0,0,2,,,,,0,,,48,0
7313,note_on,,,,,13,0,2,,,,,0,,,51,0
7317,control_change,,,,,57,0,1,,,,,0,64,0,,
7320,control_change,,,,,3,0,1,,,,,0,64,96,,
7320,note_on,,,,,0,0,2,,,,,0,,,51,97
7320,note_on,,,,,7,0,2,,,,,0,,,47,97
7320,set_tempo,,,,,15,1,0,,1671309,,,,,,,
7330,set_tempo,,,,,10,1,0,,1666666,,,,,,,
7337,note_on,,,,,0,0,2,,,,,0,,,47,0
7337,note_on,,,,,17,0,2,,,,,0,,,51,0
7340,note_on,,,,,0,0,2,,,,,0,,,51,102
7340,note_on,,,,,3,0,2,,,,,0,,,47,102
7340,set_tempo,,,,,10,1,0,,1657458,,,,,,,
7345,set_tempo,,,,,5,1,0,,1652892,,,,,,,
7353,note_on,,,,,0,0,2,,,,,0,,,47,0
7353,note_on,,,,,13,0,2,,,,,0,,,51,0
7355,set_tempo,,,,,10,1,0,,1648351,,,,,,,
7360,note_on,,,,,7,0,2,,,,,0,,,47,104
7360,set_tempo,,,,,5,1,0,,1643835,,,,,,,
7360,note_on,,,,,0,0,2,,,,,0,,,51,104
7365,set_tempo,,,,,5,1,0,,1639344,,,,,,,
7373,note_on,,,,,13,0,2,,,,,0,,,51,0
7373,note_on,,,,,0,0,2,,,,,0,,,47,0
7375,set_tempo,,,,,10,1,0,,1634877,,,,,,,
7377,control_change,,,,,57,0,1,,,,,0,64,0,,
7380,note_on,,,,,0,0,1,,,,,0,,,71,104
7380,note_on,,,,,7,0,2,,,,,0,,,45,108
7380,control_change,,,,,0,0,1,,,,,0,64,96,,
7380,note_on,,,,,3,0,1,,,,,0,,,66,0
7380,note_on,,,,,0,0,1,,,,,0,,,54,0
7380,note_on,,,,,0,0,1,,,,,0,,,59,104
7380,note_on,,,,,0,0,2,,,,,0,,,51,108
7385,set_tempo,,,,,10,1,0,,1626016,,,,,,,
7390,set_tempo,,,,,5,1,0,,1621621,,,,,,,
7393,note_on,,,,,13,0,2,,,,,0,,,51,0
7393,note_on,,,,,0,0,2,,,,,0,,,45,0
7400,note_on,,,,,7,0,2,,,,,0,,,45,110
7400,note_on,,,,,0,0,2,,,,,0,,,51,110
7400,set_tempo,,,,,10,1,0,,1617250,,,,,,,
7405,set_tempo,,,,,5,1,0,,1612903,,,,,,,
7413,note_on,,,,,13,0,2,,,,,0,,,51,0
7413,note_on,,,,,0,0,2,,,,,0,,,45,0
7415,set_tempo,,,,,10,1,0,,1608579,,,,,,,
7420,note_on,,,,,0,0,2,,,,,0,,,51,112
7420,note_on,,,,,7,0,2,,,,,0,,,45,112
7420,set_tempo,,,,,5,1,0,,1604278,,,,,,,
7433,note_on,,,,,0,0,2,,,,,0,,,45,0
7433,note_on,,,,,13,0,2,,,,,0,,,51,0
7435,set_tempo,,,,,15,1,0,,1600000,,,,,,,
7437,control_change,,,,,57,0,1,,,,,0,64,0,,
7440,note_on,,,,,0,0,1,,,,,0,,,64,120
7440,note_on,,,,,7,0,2,,,,,0,,,31,116
7440,note_on,,,,,3,0,1,,,,,0,,,71,0
7440,note_on,,,,,0,0,1,,,,,0,,,59,0
7440,note_on,,,,,0,0,1,,,,,0,,,76,120
7440,control_change,,,,,0,0,1,,,,,0,64,95,,
7440,note_on,,,,,0,0,2,,,,,0,,,43,116
7440,set_tempo,,,,,5,1,0,,1769911,,,,,,,
7450,set_tempo,,,,,10,1,0,,1604278,,,,,,,
7458,note_on,,,,,18,0,2,,,,,0,,,43,0
7458,note_on,,,,,0,0,2,,,,,0,,,31,0
7460,note_on,,,,,2,0,2,,,,,0,,,43,89
7460,note_on,,,,,0,0,2,,,,,0,,,47,89
7478,note_on,,,,,0,0,2,,,,,0,,,43,0
7478,note_on,,,,,18,0,2,,,,,0,,,47,0
7480,note_on,,,,,0,0,2,,,,,0,,,47,78
7480,note_on,,,,,2,0,2,,,,,0,,,43,78
7498,note_on,,,,,0,0,2,,,,,0,,,43,0
7498,note_on,,,,,18,0,2,,,,,0,,,47,0
7500,note_on,,,,,2,0,2,,,,,0,,,43,68
7500,note_on,,,,,0,0,2,,,,,0,,,47,68
7518,note_on,,,,,18,0,2,,,,,0,,,47,0
7518,note_on,,,,,0,0,2,,,,,0,,,43,0
7520,note_on,,,,,2,0,2,,,,,0,,,43,61
7520,note_on,,,,,0,0,2,,,,,0,,,47,61
7530,note_on,,,,,90,0,1,,,,,0,,,64,0
7530,note_on,,,,,0,0,1,,,,,0,,,76,0
7538,note_on,,,,,0,0,2,,,,,0,,,43,0
7538,note_on,,,,,18,0,2,,,,,0,,,47,0
7541,note_on,,,,,0,0,2,,,,,0,,,43,56
7541,note_on,,,,,3,0,2,,,,,0,,,47,56
7545,set_tempo,,,,,95,1,0,,1604278,,,,,,,
7545,note_on,,,,,15,0,1,,,,,0,,,64,79
7545,note_on,,,,,0,0,1,,,,,0,,,52,79
7550,set_tempo,,,,,5,1,0,,1775147,,,,,,,
7557,note_on,,,,,16,0,2,,,,,0,,,43,0
7557,note_on,,,,,0,0,2,,,,,0,,,47,0
7560,note_on,,,,,15,0,1,,,,,0,,,52,0
7560,note_on,,,,,0,0,1,,,,,0,,,64,0
7560,control_change,,,,,0,0,1,,,,,0,64,0,,
7561,note_on,,,,,0,0,2,,,,,0,,,52,68
7561,note_on,,,,,4,0,2,,,,,0,,,64,68
7561,note_on,,,,,0,0,2,,,,,0,,,47,68
7561,note_on,,,,,0,0,2,,,,,0,,,43,68
7565,set_tempo,,,,,15,1,0,,1604278,,,,,,,
7570,set_tempo,,,,,5,1,0,,1612903,,,,,,,
7575,set_tempo,,,,,5,1,0,,1621621,,,,,,,
7577,note_on,,,,,16,0,2,,,,,0,,,43,0
7580,set_tempo,,,,,5,1,0,,1626016,,,,,,,
7580,control_change,,,,,20,0,1,,,,,0,64,96,,
7581,note_on,,,,,0,0,2,,,,,0,,,42,58
7581,note_on,,,,,0,0,2,,,,,0,,,63,58
7581,note_on,,,,,0,0,2,,,,,0,,,51,58
7581,note_on,,,,,0,0,2,,,,,0,,,47,0
7581,note_on,,,,,0,0,2,,,,,0,,,52,0
7581,note_on,,,,,4,0,2,,,,,0,,,64,0
7581,note_on,,,,,0,0,2,,,,,0,,,45,58
7590,set_tempo,,,,,10,1,0,,1634877,,,,,,,
7594,note_on,,,,,13,0,2,,,,,0,,,42,0
7594,note_on,,,,,0,0,2,,,,,0,,,45,0
7595,set_tempo,,,,,5,1,0,,1648351,,,,,,,
7597,note_on,,,,,3,0,2,,,,,0,,,63,0
7597,note_on,,,,,0,0,2,,,,,0,,,51,0
7601,note_on,,,,,0,0,2,,,,,0,,,42,54
7601,note_on,,,,,0,0,2,,,,,0,,,45,54
7601,note_on,,,,,4,0,2,,,,,0,,,63,54
7601,note_on,,,,,0,0,2,,,,,0,,,51,54
7605,set_tempo,,,,,10,1,0,,1657458,,,,,,,
7610,set_tempo,,,,,5,1,0,,1662049,,,,,,,
7614,note_on,,,,,13,0,2,,,,,0,,,45,0
7614,note_on,,,,,0,0,2,,,,,0,,,42,0
7615,set_tempo,,,,,5,1,0,,1675977,,,,,,,
7617,note_on,,,,,3,0,2,,,,,0,,,51,0
7617,note_on,,,,,0,0,2,,,,,0,,,63,0
7621,note_on,,,,,0,0,2,,,,,0,,,45,49
7621,note_on,,,,,0,0,2,,,,,0,,,42,49
7621,note_on,,,,,4,0,2,,,,,0,,,63,49
7621,note_on,,,,,0,0,2,,,,,0,,,51,49
7630,set_tempo,,,,,15,1,0,,1685393,,,,,,,
7634,note_on,,,,,13,0,2,,,,,0,,,45,0
7634,note_on,,,,,0,0,2,,,,,0,,,42,0
7635,set_tempo,,,,,5,1,0,,1719197,,,,,,,
7637,note_on,,,,,3,0,2,,,,,0,,,51,0
7637,note_on,,,,,0,0,2,,,,,0,,,63,0
7640,set_tempo,,,,,5,1,0,,1724137,,,,,,,
7641,note_on,,,,,4,0,2,,,,,0,,,63,45
7641,note_on,,,,,0,0,2,,,,,0,,,51,45
7641,note_on,,,,,0,0,2,,,,,0,,,42,45
7641,note_on,,,,,0,0,2,,,,,0,,,45,45
7650,set_tempo,,,,,10,1,0,,1729106,,,,,,,
7654,note_on,,,,,0,0,2,,,,,0,,,42,0
7654,note_on,,,,,13,0,2,,,,,0,,,45,0
7655,set_tempo,,,,,5,1,0,,1749271,,,,,,,
7657,note_on,,,,,0,0,2,,,,,0,,,63,0
7657,note_on,,,,,3,0,2,,,,,0,,,51,0
7660,set_tempo,,,,,5,1,0,,1759530,,,,,,,
7661,note_on,,,,,0,0,2,,,,,0,,,42,40
7661,note_on,,,,,4,0,2,,,,,0,,,63,40
7661,note_on,,,,,0,0,2,,,,,0,,,45,40
7661,note_on,,,,,0,0,2,,,,,0,,,51,40
7670,set_tempo,,,,,10,1,0,,1764705,,,,,,,
7674,note_on,,,,,13,0,2,,,,,0,,,45,0
7674,note_on,,,,,0,0,2,,,,,0,,,42,0
7677,control_change,,,,,97,0,1,,,,,0,64,0,,
7677,note_on,,,,,3,0,2,,,,,0,,,51,0
7677,note_on,,,,,0,0,2,,,,,0,,,63,0
7680,note_on,,,,,0,0,1,,,,,0,,,64,119
7680,note_on,,,,,3,0,1,,,,,0,,,76,119
7680,set_tempo,,,,,10,1,0,,1769911,,,,,,,
7680,note_on,,,,,3,0,2,,,,,0,,,31,109
7680,note_on,,,,,0,0,2,,,,,0,,,43,109
7680,control_change,,,,,0,0,1,,,,,0,64,95,,
7690,set_tempo,,,,,10,1,0,,1604278,,,,,,,
7698,note_on,,,,,18,0,2,,,,,0,,,43,0
7698,note_on,,,,,0,0,2,,,,,0,,,31,0
7700,note_on,,,,,0,0,2,,,,,0,,,47,89
7700,note_on,,,,,2,0,2,,,,,0,,,43,89
7718,note_on,,,,,18,0,2,,,,,0,,,47,0
7718,note_on,,,,,0,0,2,,,,,0,,,43,0
7720,note_on,,,,,2,0,2,,,,,0,,,43,78
7720,note_on,,,,,0,0,2,,,,,0,,,47,78
7738,note_on,,,,,18,0,2,,,,,0,,,47,0
7738,note_on,,,,,0,0,2,,,,,0,,,43,0
7740,note_on,,,,,2,0,2,,,,,0,,,43,68
7740,note_on,,,,,0,0,2,,,,,0,,,47,68
7758,note_on,,,,,0,0,2,,,,,0,,,43,0
7758,note_on,,,,,18,0,2,,,,,0,,,47,0
7760,note_on,,,,,0,0,2,,,,,0,,,47,61
7760,note_on,,,,,2,0,2,,,,,0,,,43,61
7770,note_on,,,,,90,0,1,,,,,0,,,64,0
7770,note_on,,,,,0,0,1,,,,,0,,,76,0
7778,note_on,,,,,0,0,2,,,,,0,,,43,0
7778,note_on,,,,,18,0,2,,,,,0,,,47,0
7781,note_on,,,,,0,0,2,,,,,0,,,43,56
7781,note_on,,,,,3,0,2,,,,,0,,,47,56
7785,set_tempo,,,,,95,1,0,,1604278,,,,,,,
7785,note_on,,,,,15,0,1,,,,,0,,,64,79
7785,note_on,,,,,0,0,1,,,,,0,,,52,79
7790,set_tempo,,,,,5,1,0,,1775147,,,,,,,
7797,note_on,,,,,16,0,2,,,,,0,,,43,0
7797,note_on,,,,,0,0,2,,,,,0,,,47,0
7800,note_on,,,,,15,0,1,,,,,0,,,52,0
7800,note_on,,,,,3,0,2,,,,,0,,,55,68
7800,note_on,,,,,0,0,2,,,,,0,,,67,68
7800,control_change,,,,,0,0,1,,,,,0,64,0,,
7800,note_on,,,,,0,0,1,,,,,0,,,64,0
7801,note_on,,,,,1,0,2,,,,,0,,,43,68
7801,note_on,,,,,0,0,2,,,,,0,,,47,68
7805,set_tempo,,,,,15,1,0,,1604278,,,,,,,
7810,set_tempo,,,,,5,1,0,,1612903,,,,,,,
7815,set_tempo,,,,,5,1,0,,1621621,,,,,,,
7817,note_on,,,,,16,0,2,,,,,0,,,43,0
7820,control_change,,,,,20,0,1,,,,,0,64,97,,
7820,set_tempo,,,,,5,1,0,,1626016,,,,,,,
7820,note_on,,,,,3,0,2,,,,,0,,,55,0
7820,note_on,,,,,0,0,2,,,,,0,,,67,0
7821,note_on,,,,,0,0,2,,,,,0,,,66,58
7821,note_on,,,,,0,0,2,,,,,0,,,48,58
7821,note_on,,,,,0,0,2,,,,,0,,,45,58
7821,note_on,,,,,0,0,2,,,,,0,,,54,58
7821,note_on,,,,,1,0,2,,,,,0,,,47,0
7830,set_tempo,,,,,10,1,0,,1634877,,,,,,,
7834,note_on,,,,,13,0,2,,,,,0,,,45,0
7834,note_on,,,,,0,0,2,,,,,0,,,48,0
7835,set_tempo,,,,,5,1,0,,1648351,,,,,,,
7837,note_on,,,,,0,0,2,,,,,0,,,54,0
7837,note_on,,,,,3,0,2,,,,,0,,,66,0
7841,note_on,,,,,0,0,2,,,,,0,,,45,54
7841,note_on,,,,,0,0,2,,,,,0,,,54,54
7841,note_on,,,,,4,0,2,,,,,0,,,66,54
7841,note_on,,,,,0,0,2,,,,,0,,,48,54
7845,set_tempo,,,,,10,1,0,,1657458,,,,,,,
7850,set_tempo,,,,,5,1,0,,1662049,,,,,,,
7854,note_on,,,,,0,0,2,,,,,0,,,45,0
7854,note_on,,,,,13,0,2,,,,,0,,,48,0
7855,set_tempo,,,,,5,1,0,,1675977,,,,,,,
7857,note_on,,,,,0,0,2,,,,,0,,,66,0
7857,note_on,,,,,3,0,2,,,,,0,,,54,0
7861,note_on,,,,,0,0,2,,,,,0,,,54,49
7861,note_on,,,,,0,0,2,,,,,0,,,45,49
7861,note_on,,,,,0,0,2,,,,,0,,,48,49
7861,note_on,,,,,4,0,2,,,,,0,,,66,49
7870,set_tempo,,,,,15,1,0,,1685393,,,,,,,
7874,note_on,,,,,13,0,2,,,,,0,,,48,0
7874,note_on,,,,,0,0,2,,,,,0,,,45,0
7875,set_tempo,,,,,5,1,0,,1719197,,,,,,,
7877,note_on,,,,,0,0,2,,,,,0,,,66,0
7877,note_on,,,,,3,0,2,,,,,0,,,54,0
7880,set_tempo,,,,,5,1,0,,1724137,,,,,,,
7881,note_on,,,,,0,0,2,,,,,0,,,48,45
7881,note_on,,,,,0,0,2,,,,,0,,,45,45
7881,note_on,,,,,0,0,2,,,,,0,,,54,45
7881,note_on,,,,,4,0,2,,,,,0,,,66,45
7890,set_tempo,,,,,10,1,0,,1729106,,,,,,,
7894,note_on,,,,,13,0,2,,,,,0,,,48,0
7894,note_on,,,,,0,0,2,,,,,0,,,45,0
7895,set_tempo,,,,,5,1,0,,1749271,,,,,,,
7897,note_on,,,,,0,0,2,,,,,0,,,66,0
7897,note_on,,,,,3,0,2,,,,,0,,,54,0
7900,set_tempo,,,,,5,1,0,,1759530,,,,,,,
7901,note_on,,,,,0,0,2,,,,,0,,,54,40
7901,note_on,,,,,0,0,2,,,,,0,,,45,40
7901,note_on,,,,,4,0,2,,,,,0,,,66,40
7901,note_on,,,,,0,0,2,,,,,0,,,48,40
7910,set_tempo,,,,,10,1,0,,1764705,,,,,,,
7914,note_on,,,,,0,0,2,,,,,0,,,45,0
7914,note_on,,,,,13,0,2,,,,,0,,,48,0
7917,note_on,,,,,0,0,2,,,,,0,,,66,0
7917,note_on,,,,,3,0,2,,,,,0,,,54,0
7917,control_change,,,,,97,0,1,,,,,0,64,0,,
7920,note_on,,,,,0,0,2,,,,,0,,,45,109
7920,note_on,,,,,0,0,1,,,,,0,,,66,119
7920,control_change,,,,,0,0,1,,,,,0,64,95,,
7920,set_tempo,,,,,10,1,0,,1769911,,,,,,,
7920,note_on,,,,,3,0,2,,,,,0,,,33,109
7920,note_on,,,,,3,0,1,,,,,0,,,78,119
7930,set_tempo,,,,,10,1,0,,1604278,,,,,,,
7938,note_on,,,,,0,0,2,,,,,0,,,33,0
7938,note_on,,,,,18,0,2,,,,,0,,,45,0
7940,note_on,,,,,2,0,2,,,,,0,,,45,89
7940,note_on,,,,,0,0,2,,,,,0,,,49,89
7958,note_on,,,,,0,0,2,,,,,0,,,45,0
7958,note_on,,,,,18,0,2,,,,,0,,,49,0
7960,note_on,,,,,2,0,2,,,,,0,,,45,78
7960,note_on,,,,,0,0,2,,,,,0,,,49,78
7978,note_on,,,,,18,0,2,,,,,0,,,49,0
7978,note_on,,,,,0,0,2,,,,,0,,,45,0
7980,note_on,,,,,0,0,2,,,,,0,,,49,68
7980,note_on,,,,,2,0,2,,,,,0,,,45,68
7998,note_on,,,,,18,0,2,,,,,0,,,49,0
7998,note_on,,,,,0,0,2,,,,,0,,,45,0
8000,note_on,,,,,2,0,2,,,,,0,,,45,61
8000,note_on,,,,,0,0,2,,,,,0,,,49,61
8010,note_on,,,,,0,0,1,,,,,0,,,78,0
8010,note_on,,,,,90,0,1,,,,,0,,,66,0
8018,note_on,,,,,0,0,2,,,,,0,,,45,0
8018,note_on,,,,,18,0,2,,,,,0,,,49,0
8021,note_on,,,,,3,0,2,,,,,0,,,49,56
8021,note_on,,,,,0,0,2,,,,,0,,,45,56
8025,note_on,,,,,15,0,1,,,,,0,,,66,79
8025,note_on,,,,,0,0,1,,,,,0,,,54,79
8025,set_tempo,,,,,95,1,0,,1604278,,,,,,,
8030,set_tempo,,,,,5,1,0,,1775147,,,,,,,
8037,note_on,,,,,0,0,2,,,,,0,,,49,0
8037,note_on,,,,,16,0,2,,,,,0,,,45,0
8040,note_on,,,,,0,0,1,,,,,0,,,66,0
8040,note_on,,,,,15,0,1,,,,,0,,,54,0
8040,control_change,,,,,0,0,1,,,,,0,64,0,,
8041,note_on,,,,,0,0,2,,,,,0,,,49,68
8041,note_on,,,,,0,0,2,,,,,0,,,54,68
8041,note_on,,,,,4,0,2,,,,,0,,,66,68
8041,note_on,,,,,0,0,2,,,,,0,,,45,68
8045,set_tempo,,,,,15,1,0,,1604278,,,,,,,
8050,set_tempo,,,,,5,1,0,,1612903,,,,,,,
8055,set_tempo,,,,,5,1,0,,1621621,,,,,,,
8057,note_on,,,,,16,0,2,,,,,0,,,45,0
8060,control_change,,,,,20,0,1,,,,,0,64,96,,
8060,set_tempo,,,,,5,1,0,,1626016,,,,,,,
8061,note_on,,,,,0,0,2,,,,,0,,,49,0
8061,note_on,,,,,0,0,2,,,,,0,,,44,58
8061,note_on,,,,,0,0,2,,,,,0,,,65,58
8061,note_on,,,,,0,0,2,,,,,0,,,53,58
8061,note_on,,,,,0,0,2,,,,,0,,,47,58
8061,note_on,,,,,0,0,2,,,,,0,,,54,0
8061,note_on,,,,,4,0,2,,,,,0,,,66,0
8070,set_tempo,,,,,10,1,0,,1634877,,,,,,,
8074,note_on,,,,,13,0,2,,,,,0,,,44,0
8074,note_on,,,,,0,0,2,,,,,0,,,47,0
8075,set_tempo,,,,,5,1,0,,1648351,,,,,,,
8077,note_on,,,,,0,0,2,,,,,0,,,53,0
8077,note_on,,,,,3,0,2,,,,,0,,,65,0
8081,note_on,,,,,4,0,2,,,,,0,,,65,54
8081,note_on,,,,,0,0,2,,,,,0,,,53,54
8081,note_on,,,,,0,0,2,,,,,0,,,44,54
8081,note_on,,,,,0,0,2,,,,,0,,,47,54
8085,set_tempo,,,,,10,1,0,,1657458,,,,,,,
8090,set_tempo,,,,,5,1,0,,1662049,,,,,,,
8094,note_on,,,,,13,0,2,,,,,0,,,47,0
8094,note_on,,,,,0,0,2,,,,,0,,,44,0
8095,set_tempo,,,,,5,1,0,,1675977,,,,,,,
8097,note_on,,,,,3,0,2,,,,,0,,,53,0
8097,note_on,,,,,0,0,2,,,,,0,,,65,0
8101,note_on,,,,,4,0,2,,,,,0,,,65,49
8101,note_on,,,,,0,0,2,,,,,0,,,44,49
8101,note_on,,,,,0,0,2,,,,,0,,,47,49
8101,note_on,,,,,0,0,2,,,,,0,,,53,49
8110,set_tempo,,,,,15,1,0,,1685393,,,,,,,
8114,note_on,,,,,0,0,2,,,,,0,,,44,0
8114,note_on,,,,,13,0,2,,,,,0,,,47,0
8115,set_tempo,,,,,5,1,0,,1719197,,,,,,,
8117,note_on,,,,,3,0,2,,,,,0,,,53,0
8117,note_on,,,,,0,0,2,,,,,0,,,65,0
8120,set_tempo,,,,,5,1,0,,1724137,,,,,,,
8121,note_on,,,,,0,0,2,,,,,0,,,47,45
8121,note_on,,,,,0,0,2,,,,,0,,,44,45
8121,note_on,,,,,0,0,2,,,,,0,,,53,45
8121,note_on,,,,,4,0,2,,,,,0,,,65,45
8130,set_tempo,,,,,10,1,0,,1729106,,,,,,,
8134,note_on,,,,,0,0,2,,,,,0,,,44,0
8134,note_on,,,,,13,0,2,,,,,0,,,47,0
8135,set_tempo,,,,,5,1,0,,1749271,,,,,,,
8137,note_on,,,,,3,0,2,,,,,0,,,53,0
8137,note_on,,,,,0,0,2,,,,,0,,,65,0
8140,set_tempo,,,,,5,1,0,,1759530,,,,,,,
8141,note_on,,,,,0,0,2,,,,,0,,,47,40
8141,note_on,,,,,0,0,2,,,,,0,,,53,40
8141,note_on,,,,,4,0,2,,,,,0,,,65,40
8141,note_on,,,,,0,0,2,,,,,0,,,44,40
8150,set_tempo,,,,,10,1,0,,1764705,,,,,,,
8154,note_on,,,,,13,0,2,,,,,0,,,47,0
8154,note_on,,,,,0,0,2,,,,,0,,,44,0
8157,control_change,,,,,97,0,1,,,,,0,64,0,,
8157,note_on,,,,,0,0,2,,,,,0,,,65,0
8157,note_on,,,,,3,0,2,,,,,0,,,53,0
8160,set_tempo,,,,,10,1,0,,1769911,,,,,,,
8160,note_on,,,,,3,0,2,,,,,0,,,78,112
8160,note_on,,,,,0,0,2,,,,,0,,,66,112
8160,note_on,,,,,0,0,2,,,,,0,,,33,109
8160,note_on,,,,,0,0,2,,,,,0,,,45,109
8160,control_change,,,,,3,0,1,,,,,0,64,95,,
8160,control_change,,,,,0,0,2,,,,,0,64,95,,
8170,set_tempo,,,,,10,1,0,,1604278,,,,,,,
8178,note_on,,,,,18,0,2,,,,,0,,,45,0
8178,note_on,,,,,0,0,2,,,,,0,,,33,0
8180,note_on,,,,,2,0,2,,,,,0,,,45,89
8180,note_on,,,,,0,0,2,,,,,0,,,49,89
8198,note_on,,,,,18,0,2,,,,,0,,,49,0
8198,note_on,,,,,0,0,2,,,,,0,,,45,0
8200,note_on,,,,,2,0,2,,,,,0,,,45,78
8200,note_on,,,,,0,0,2,,,,,0,,,49,78
8218,note_on,,,,,0,0,2,,,,,0,,,45,0
8218,note_on,,,,,18,0,2,,,,,0,,,49,0
8220,note_on,,,,,2,0,2,,,,,0,,,45,68
8220,note_on,,,,,0,0,2,,,,,0,,,49,68
8238,note_on,,,,,18,0,2,,,,,0,,,49,0
8238,note_on,,,,,0,0,2,,,,,0,,,45,0
8240,note_on,,,,,2,0,2,,,,,0,,,45,61
8240,note_on,,,,,0,0,2,,,,,0,,,49,61
8250,note_on,,,,,10,0,2,,,,,0,,,66,0
8250,note_on,,,,,0,0,2,,,,,0,,,78,0
8258,note_on,,,,,0,0,2,,,,,0,,,49,0
8258,note_on,,,,,8,0,2,,,,,0,,,45,0
8261,note_on,,,,,3,0,2,,,,,0,,,49,56
8261,note_on,,,,,0,0,2,,,,,0,,,45,56
8265,note_on,,,,,4,0,2,,,,,0,,,66,79
8265,set_tempo,,,,,95,1,0,,1604278,,,,,,,
8265,note_on,,,,,0,0,2,,,,,0,,,54,79
8270,set_tempo,,,,,5,1,0,,1775147,,,,,,,
8275,control_change,,,,,115,0,1,,,,,0,64,0,,
8277,note_on,,,,,0,0,2,,,,,0,,,49,0
8277,note_on,,,,,12,0,2,,,,,0,,,45,0
8280,control_change,,,,,0,0,2,,,,,0,64,0,,
8280,note_on,,,,,3,0,2,,,,,0,,,66,0
8280,note_on,,,,,0,0,2,,,,,0,,,54,0
8280,note_on,,,,,0,0,2,,,,,0,,,57,68
8280,note_on,,,,,0,0,2,,,,,0,,,69,68
8280,note_on,,,,,0,0,2,,,,,0,,,45,68
8280,note_on,,,,,0,0,2,,,,,0,,,49,68
8285,set_tempo,,,,,15,1,0,,1604278,,,,,,,
8290,set_tempo,,,,,5,1,0,,1612903,,,,,,,
8295,set_tempo,,,,,5,1,0,,1621621,,,,,,,
8296,note_on,,,,,16,0,2,,,,,0,,,45,0
8300,set_tempo,,,,,5,1,0,,1626016,,,,,,,
8300,note_on,,,,,0,0,2,,,,,0,,,47,58
8300,note_on,,,,,0,0,2,,,,,0,,,69,0
8300,control_change,,,,,25,0,1,,,,,0,64,95,,
8300,note_on,,,,,4,0,2,,,,,0,,,57,0
8300,note_on,,,,,0,0,2,,,,,0,,,49,0
8300,note_on,,,,,0,0,2,,,,,0,,,55,58
8300,note_on,,,,,0,0,2,,,,,0,,,67,58
8300,note_on,,,,,0,0,2,,,,,0,,,50,58
8300,control_change,,,,,0,0,2,,,,,0,64,97,,
8310,set_tempo,,,,,10,1,0,,1634877,,,,,,,
8313,note_on,,,,,0,0,2,,,,,0,,,50,0
8313,note_on,,,,,13,0,2,,,,,0,,,47,0
8315,set_tempo,,,,,5,1,0,,1648351,,,,,,,
8316,note_on,,,,,0,0,2,,,,,0,,,55,0
8316,note_on,,,,,3,0,2,,,,,0,,,67,0
8320,note_on,,,,,4,0,2,,,,,0,,,47,54
8320,note_on,,,,,0,0,2,,,,,0,,,67,54
8320,note_on,,,,,0,0,2,,,,,0,,,50,54
8320,note_on,,,,,0,0,2,,,,,0,,,55,54
8325,set_tempo,,,,,10,1,0,,1657458,,,,,,,
8330,set_tempo,,,,,5,1,0,,1662049,,,,,,,
8333,note_on,,,,,13,0,2,,,,,0,,,50,0
8333,note_on,,,,,0,0,2,,,,,0,,,47,0
8335,set_tempo,,,,,5,1,0,,1675977,,,,,,,
8336,note_on,,,,,0,0,2,,,,,0,,,67,0
8336,note_on,,,,,3,0,2,,,,,0,,,55,0
8340,note_on,,,,,0,0,2,,,,,0,,,50,49
8340,note_on,,,,,0,0,2,,,,,0,,,47,49
8340,note_on,,,,,0,0,2,,,,,0,,,55,49
8340,note_on,,,,,4,0,2,,,,,0,,,67,49
8350,set_tempo,,,,,15,1,0,,1685393,,,,,,,
8353,note_on,,,,,13,0,2,,,,,0,,,50,0
8353,note_on,,,,,0,0,2,,,,,0,,,47,0
8355,set_tempo,,,,,5,1,0,,1719197,,,,,,,
8356,note_on,,,,,3,0,2,,,,,0,,,55,0
8356,note_on,,,,,0,0,2,,,,,0,,,67,0
8360,note_on,,,,,0,0,2,,,,,0,,,50,45
8360,note_on,,,,,0,0,2,,,,,0,,,67,45
8360,set_tempo,,,,,5,1,0,,1724137,,,,,,,
8360,note_on,,,,,4,0,2,,,,,0,,,55,45
8360,note_on,,,,,0,0,2,,,,,0,,,47,45
8370,set_tempo,,,,,10,1,0,,1729106,,,,,,,
8373,note_on,,,,,13,0,2,,,,,0,,,50,0
8373,note_on,,,,,0,0,2,,,,,0,,,47,0
8375,set_tempo,,,,,5,1,0,,1749271,,,,,,,
8376,note_on,,,,,3,0,2,,,,,0,,,67,0
8376,note_on,,,,,0,0,2,,,,,0,,,55,0
8380,note_on,,,,,0,0,2,,,,,0,,,55,40
8380,note_on,,,,,0,0,2,,,,,0,,,67,40
8380,set_tempo,,,,,5,1,0,,1759530,,,,,,,
8380,note_on,,,,,4,0,2,,,,,0,,,47,40
8380,note_on,,,,,0,0,2,,,,,0,,,50,40
8390,set_tempo,,,,,10,1,0,,1764705,,,,,,,
8393,note_on,,,,,13,0,2,,,,,0,,,50,0
8393,note_on,,,,,0,0,2,,,,,0,,,47,0
8395,set_tempo,,,,,5,1,0,,1775147,,,,,,,
8396,note_on,,,,,3,0,2,,,,,0,,,67,0
8396,note_on,,,,,0,0,2,,,,,0,,,55,0
8397,control_change,,,,,1,0,2,,,,,0,64,0,,
8397,control_change,,,,,97,0,1,,,,,0,64,0,,
8400,control_change,,,,,3,0,1,,,,,0,64,95,,
8400,note_on,,,,,0,0,2,,,,,0,,,46,40
8400,note_on,,,,,0,0,2,,,,,0,,,67,40
8400,note_on,,,,,0,0,2,,,,,0,,,50,40
8400,note_on,,,,,3,0,2,,,,,0,,,55,40
8405,set_tempo,,,,,10,1,0,,1769911,,,,,,,
8420,note_on,,,,,0,0,2,,,,,0,,,67,40
8420,set_tempo,,,,,15,1,0,,1759530,,,,,,,
8420,note_on,,,,,0,0,2,,,,,0,,,46,40
8420,note_on,,,,,0,0,2,,,,,0,,,50,40
8420,note_on,,,,,0,0,2,,,,,0,,,50,0
8420,note_on,,,,,0,0,2,,,,,0,,,67,0
8420,note_on,,,,,0,0,2,,,,,0,,,55,0
8420,note_on,,,,,20,0,2,,,,,0,,,46,0
8420,note_on,,,,,0,0,2,,,,,0,,,55,40
8440,note_on,,,,,0,0,2,,,,,0,,,46,42
8440,note_on,,,,,0,0,2,,,,,0,,,50,42
8440,note_on,,,,,0,0,2,,,,,0,,,67,42
8440,note_on,,,,,0,0,2,,,,,0,,,50,0
8440,note_on,,,,,0,0,2,,,,,0,,,67,0
8440,note_on,,,,,0,0,2,,,,,0,,,55,0
8440,note_on,,,,,20,0,2,,,,,0,,,46,0
8440,note_on,,,,,0,0,2,,,,,0,,,55,42
8455,set_tempo,,,,,35,1,0,,1729106,,,,,,,
8460,note_on,,,,,0,0,2,,,,,0,,,46,43
8460,note_on,,,,,0,0,2,,,,,0,,,50,43
8460,note_on,,,,,0,0,2,,,,,0,,,70,43
8460,note_on,,,,,0,0,2,,,,,0,,,50,0
8460,note_on,,,,,0,0,2,,,,,0,,,67,0
8460,note_on,,,,,20,0,2,,,,,0,,,46,0
8460,note_on,,,,,0,0,2,,,,,0,,,58,43
8460,note_on,,,,,0,0,2,,,,,0,,,55,0
8465,set_tempo,,,,,10,1,0,,1719197,,,,,,,
8475,set_tempo,,,,,10,1,0,,1714285,,,,,,,
8480,note_on,,,,,0,0,2,,,,,0,,,46,46
8480,note_on,,,,,0,0,2,,,,,0,,,50,46
8480,set_tempo,,,,,5,1,0,,1704545,,,,,,,
8480,note_on,,,,,0,0,2,,,,,0,,,70,0
8480,note_on,,,,,0,0,2,,,,,0,,,58,0
8480,note_on,,,,,20,0,2,,,,,0,,,46,0
8480,note_on,,,,,0,0,2,,,,,0,,,70,46
8480,note_on,,,,,0,0,2,,,,,0,,,50,0
8480,note_on,,,,,0,0,2,,,,,0,,,58,46
8495,set_tempo,,,,,15,1,0,,1699716,,,,,,,
8500,note_on,,,,,0,0,2,,,,,0,,,50,0
8500,note_on,,,,,0,0,2,,,,,0,,,70,0
8500,set_tempo,,,,,5,1,0,,1694915,,,,,,,
8500,note_on,,,,,0,0,2,,,,,0,,,58,0
8500,note_on,,,,,20,0,2,,,,,0,,,46,0
8501,note_on,,,,,1,0,2,,,,,0,,,58,52
8501,note_on,,,,,0,0,2,,,,,0,,,70,52
8501,note_on,,,,,0,0,2,,,,,0,,,50,52
8501,note_on,,,,,0,0,2,,,,,0,,,46,52
8515,control_change,,,,,115,0,1,,,,,0,64,0,,
8520,control_change,,,,,5,0,1,,,,,0,64,94,,
8521,note_on,,,,,0,0,2,,,,,0,,,50,0
8521,note_on,,,,,0,0,2,,,,,0,,,46,63
8521,note_on,,,,,0,0,2,,,,,0,,,50,63
8521,note_on,,,,,0,0,2,,,,,0,,,74,63
8521,note_on,,,,,0,0,2,,,,,0,,,62,63
8521,note_on,,,,,0,0,2,,,,,0,,,70,0
8521,note_on,,,,,0,0,2,,,,,0,,,58,0
8521,note_on,,,,,20,0,2,,,,,0,,,46,0
8530,set_tempo,,,,,30,1,0,,1685393,,,,,,,
8541,note_on,,,,,0,0,2,,,,,0,,,50,0
8541,note_on,,,,,0,0,2,,,,,0,,,62,77
8541,note_on,,,,,0,0,2,,,,,0,,,46,77
8541,note_on,,,,,0,0,2,,,,,0,,,74,77
8541,note_on,,,,,0,0,2,,,,,0,,,50,77
8541,note_on,,,,,20,0,2,,,,,0,,,46,0
8541,note_on,,,,,0,0,2,,,,,0,,,62,0
8541,note_on,,,,,0,0,2,,,,,0,,,74,0
8560,set_tempo,,,,,30,1,0,,1675977,,,,,,,
8561,note_on,,,,,20,0,2,,,,,0,,,46,0
8561,note_on,,,,,0,0,2,,,,,0,,,50,0
8561,note_on,,,,,0,0,2,,,,,0,,,62,100
8561,note_on,,,,,0,0,2,,,,,0,,,46,100
8561,note_on,,,,,0,0,2,,,,,0,,,74,0
8561,note_on,,,,,0,0,2,,,,,0,,,62,0
8561,note_on,,,,,0,0,2,,,,,0,,,74,100
8561,note_on,,,,,0,0,2,,,,,0,,,50,100
8565,set_tempo,,,,,5,1,0,,1666666,,,,,,,
8577,control_change,,,,,57,0,1,,,,,0,64,0,,
8580,control_change,,,,,3,0,1,,,,,0,64,97,,
8581,note_on,,,,,20,0,2,,,,,0,,,46,0
8581,note_on,,,,,0,0,2,,,,,0,,,62,0
8581,note_on,,,,,0,0,2,,,,,0,,,74,0
8581,note_on,,,,,0,0,2,,,,,0,,,50,0
8581,note_on,,,,,0,0,2,,,,,0,,,66,125
8581,note_on,,,,,0,0,2,,,,,0,,,78,125
8581,note_on,,,,,0,0,2,,,,,0,,,54,125
8581,note_on,,,,,0,0,2,,,,,0,,,50,125
8581,note_on,,,,,0,0,2,,,,,0,,,46,125
8601,note_on,,,,,20,0,2,,,,,0,,,46,0
8601,note_on,,,,,0,0,2,,,,,0,,,54,0
8601,note_on,,,,,0,0,2,,,,,0,,,66,0
8601,note_on,,,,,0,0,2,,,,,0,,,78,0
8601,note_on,,,,,0,0,2,,,,,0,,,50,0
8601,note_on,,,,,0,0,2,,,,,0,,,66,119
8601,note_on,,,,,0,0,2,,,,,0,,,78,119
8601,note_on,,,,,0,0,2,,,,,0,,,54,119
8601,note_on,,,,,0,0,2,,,,,0,,,50,119
8601,note_on,,,,,0,0,2,,,,,0,,,46,119
8605,set_tempo,,,,,40,1,0,,1657458,,,,,,,
8610,set_tempo,,,,,5,1,0,,1648351,,,,,,,
8620,set_tempo,,,,,10,1,0,,1643835,,,,,,,
8621,note_on,,,,,0,0,2,,,,,0,,,54,0
8621,note_on,,,,,0,0,2,,,,,0,,,46,107
8621,note_on,,,,,0,0,2,,,,,0,,,50,107
8621,note_on,,,,,0,0,2,,,,,0,,,54,107
8621,note_on,,,,,0,0,2,,,,,0,,,78,107
8621,note_on,,,,,0,0,2,,,,,0,,,66,107
8621,note_on,,,,,0,0,2,,,,,0,,,50,0
8621,note_on,,,,,0,0,2,,,,,0,,,78,0
8621,note_on,,,,,0,0,2,,,,,0,,,66,0
8621,note_on,,,,,20,0,2,,,,,0,,,46,0
8625,set_tempo,,,,,5,1,0,,1639344,,,,,,,
8635,set_tempo,,,,,10,1,0,,1630434,,,,,,,
8637,control_change,,,,,57,0,1,,,,,0,64,0,,
8640,control_change,,,,,3,0,1,,,,,0,64,96,,
8641,note_on,,,,,0,0,2,,,,,0,,,50,115
8641,note_on,,,,,0,0,2,,,,,0,,,79,115
8641,note_on,,,,,0,0,2,,,,,0,,,67,115
8641,note_on,,,,,0,0,2,,,,,0,,,50,0
8641,note_on,,,,,0,0,2,,,,,0,,,78,0
8641,note_on,,,,,0,0,2,,,,,0,,,66,0
8641,note_on,,,,,0,0,2,,,,,0,,,54,0
8641,note_on,,,,,20,0,2,,,,,0,,,46,0
8641,note_on,,,,,0,0,2,,,,,0,,,46,115
8641,note_on,,,,,0,0,2,,,,,0,,,55,115
8645,set_tempo,,,,,10,1,0,,1621621,,,,,,,
8650,set_tempo,,,,,5,1,0,,1617250,,,,,,,
8660,set_tempo,,,,,10,1,0,,1612903,,,,,,,
8661,note_on,,,,,0,0,2,,,,,0,,,50,0
8661,note_on,,,,,0,0,2,,,,,0,,,79,0
8661,note_on,,,,,20,0,2,,,,,0,,,46,0
8661,note_on,,,,,0,0,2,,,,,0,,,55,0
8661,note_on,,,,,0,0,2,,,,,0,,,67,0
8661,note_on,,,,,0,0,2,,,,,0,,,67,101
8661,note_on,,,,,0,0,2,,,,,0,,,55,101
8661,note_on,,,,,0,0,2,,,,,0,,,50,101
8661,note_on,,,,,0,0,2,,,,,0,,,46,101
8661,note_on,,,,,0,0,2,,,,,0,,,79,101
8681,note_on,,,,,0,0,2,,,,,0,,,46,87
8681,note_on,,,,,0,0,2,,,,,0,,,50,87
8681,note_on,,,,,0,0,2,,,,,0,,,55,0
8681,note_on,,,,,20,0,2,,,,,0,,,46,0
8681,note_on,,,,,0,0,2,,,,,0,,,67,0
8681,note_on,,,,,0,0,2,,,,,0,,,79,0
8681,note_on,,,,,0,0,2,,,,,0,,,50,0
8681,note_on,,,,,0,0,2,,,,,0,,,67,87
8681,note_on,,,,,0,0,2,,,,,0,,,79,87
8681,note_on,,,,,0,0,2,,,,,0,,,55,87
8685,set_tempo,,,,,25,1,0,,1648351,,,,,,,
8690,set_tempo,,,,,5,1,0,,1652892,,,,,,,
8700,set_tempo,,,,,10,1,0,,1657458,,,,,,,
8701,note_on,,,,,0,0,2,,,,,0,,,55,0
8701,note_on,,,,,0,0,2,,,,,0,,,50,0
8701,note_on,,,,,0,0,2,,,,,0,,,79,0
8701,note_on,,,,,0,0,2,,,,,0,,,67,0
8701,note_on,,,,,20,0,2,,,,,0,,,46,0
8702,note_on,,,,,0,0,2,,,,,0,,,46,84
8702,note_on,,,,,0,0,2,,,,,0,,,50,84
8702,note_on,,,,,0,0,2,,,,,0,,,74,84
8702,note_on,,,,,1,0,2,,,,,0,,,62,84
8705,set_tempo,,,,,5,1,0,,1671309,,,,,,,
8710,set_tempo,,,,,5,1,0,,1675977,,,,,,,
8720,set_tempo,,,,,10,1,0,,1685393,,,,,,,
8722,note_on,,,,,20,0,2,,,,,0,,,46,0
8722,note_on,,,,,0,0,2,,,,,0,,,46,81
8722,note_on,,,,,0,0,2,,,,,0,,,50,0
8722,note_on,,,,,0,0,2,,,,,0,,,74,0
8722,note_on,,,,,0,0,2,,,,,0,,,50,81
8722,note_on,,,,,0,0,2,,,,,0,,,74,81
8722,note_on,,,,,0,0,2,,,,,0,,,62,81
8722,note_on,,,,,0,0,2,,,,,0,,,62,0
8725,set_tempo,,,,,5,1,0,,1694915,,,,,,,
8730,set_tempo,,,,,5,1,0,,1699716,,,,,,,
8735,set_tempo,,,,,5,1,0,,1704545,,,,,,,
8742,note_on,,,,,0,0,2,,,,,0,,,50,0
8742,note_on,,,,,0,0,2,,,,,0,,,62,72
8742,note_on,,,,,0,0,2,,,,,0,,,74,72
8742,note_on,,,,,20,0,2,,,,,0,,,46,0
8742,note_on,,,,,0,0,2,,,,,0,,,62,0
8742,note_on,,,,,0,0,2,,,,,0,,,50,72
8742,note_on,,,,,0,0,2,,,,,0,,,46,72
8742,note_on,,,,,0,0,2,,,,,0,,,74,0
8745,set_tempo,,,,,10,1,0,,1734104,,,,,,,
8750,set_tempo,,,,,5,1,0,,1739130,,,,,,,
8757,control_change,,,,,117,0,1,,,,,0,64,0,,
8760,control_change,,,,,3,0,1,,,,,0,64,96,,
8762,note_on,,,,,0,0,2,,,,,0,,,74,0
8762,note_on,,,,,0,0,2,,,,,0,,,50,0
8762,note_on,,,,,0,0,2,,,,,0,,,58,64
8762,note_on,,,,,0,0,2,,,,,0,,,70,64
8762,note_on,,,,,0,0,2,,,,,0,,,62,0
8762,note_on,,,,,0,0,2,,,,,0,,,46,64
8762,note_on,,,,,20,0,2,,,,,0,,,46,0
8762,note_on,,,,,0,0,2,,,,,0,,,50,64
8765,set_tempo,,,,,15,1,0,,1769911,,,,,,,
8775,set_tempo,,,,,10,1,0,,1801801,,,,,,,
8780,set_tempo,,,,,5,1,0,,1807228,,,,,,,
8782,note_on,,,,,20,0,2,,,,,0,,,46,0
8782,note_on,,,,,0,0,2,,,,,0,,,58,0
8782,note_on,,,,,0,0,2,,,,,0,,,50,0
8782,note_on,,,,,0,0,2,,,,,0,,,58,59
8782,note_on,,,,,0,0,2,,,,,0,,,70,59
8782,note_on,,,,,0,0,2,,,,,0,,,46,59
8782,note_on,,,,,0,0,2,,,,,0,,,70,0
8782,note_on,,,,,0,0,2,,,,,0,,,50,59
8785,set_tempo,,,,,5,1,0,,1812688,,,,,,,
8790,set_tempo,,,,,5,1,0,,1823708,,,,,,,
8800,set_tempo,,,,,10,1,0,,1846153,,,,,,,
8802,note_on,,,,,0,0,2,,,,,0,,,70,0
8802,note_on,,,,,0,0,2,,,,,0,,,46,55
8802,note_on,,,,,0,0,2,,,,,0,,,50,55
8802,note_on,,,,,0,0,2,,,,,0,,,70,55
8802,note_on,,,,,0,0,2,,,,,0,,,58,55
8802,note_on,,,,,20,0,2,,,,,0,,,46,0
8802,note_on,,,,,0,0,2,,,,,0,,,58,0
8802,note_on,,,,,0,0,2,,,,,0,,,50,0
8805,set_tempo,,,,,5,1,0,,1851851,,,,,,,
8810,set_tempo,,,,,5,1,0,,1863354,,,,,,,
8820,set_tempo,,,,,10,1,0,,1869158,,,,,,,
8822,note_on,,,,,0,0,2,,,,,0,,,58,0
8822,note_on,,,,,20,0,2,,,,,0,,,46,0
8822,note_on,,,,,0,0,2,,,,,0,,,67,51
8822,note_on,,,,,0,0,2,,,,,0,,,70,0
8822,note_on,,,,,0,0,2,,,,,0,,,50,51
8822,note_on,,,,,0,0,2,,,,,0,,,46,51
8822,note_on,,,,,0,0,2,,,,,0,,,55,51
8822,note_on,,,,,0,0,2,,,,,0,,,50,0
8825,set_tempo,,,,,5,1,0,,1875000,,,,,,,
8830,set_tempo,,,,,5,1,0,,1880877,,,,,,,
8842,note_on,,,,,20,0,2,,,,,0,,,46,0
8842,note_on,,,,,0,0,2,,,,,0,,,55,0
8842,note_on,,,,,0,0,2,,,,,0,,,55,47
8842,note_on,,,,,0,0,2,,,,,0,,,67,47
8842,note_on,,,,,0,0,2,,,,,0,,,50,47
8842,note_on,,,,,0,0,2,,,,,0,,,46,47
8842,note_on,,,,,0,0,2,,,,,0,,,50,0
8842,note_on,,,,,0,0,2,,,,,0,,,67,0
8845,set_tempo,,,,,15,1,0,,1886792,,,,,,,
8860,set_tempo,,,,,15,1,0,,1892744,,,,,,,
8862,note_on,,,,,20,0,2,,,,,0,,,46,0
8862,note_on,,,,,0,0,2,,,,,0,,,55,0
8862,note_on,,,,,0,0,2,,,,,0,,,67,0
8862,note_on,,,,,0,0,2,,,,,0,,,50,0
8862,note_on,,,,,0,0,2,,,,,0,,,55,43
8862,note_on,,,,,0,0,2,,,,,0,,,67,43
8862,note_on,,,,,0,0,2,,,,,0,,,50,43
8862,note_on,,,,,0,0,2,,,,,0,,,46,43
8870,set_tempo,,,,,10,1,0,,2142857,,,,,,,
8877,control_change,,,,,117,0,1,,,,,0,64,0,,
8880,note_on,,,,,0,0,2,,,,,0,,,48,41
8880,note_on,,,,,0,0,2,,,,,0,,,67,41
8880,control_change,,,,,3,0,1,,,,,0,64,95,,
8880,note_on,,,,,18,0,2,,,,,0,,,51,41
8880,note_on,,,,,0,0,2,,,,,0,,,55,41
8882,note_on,,,,,2,0,2,,,,,0,,,46,0
8882,note_on,,,,,0,0,2,,,,,0,,,50,0
8882,note_on,,,,,0,0,2,,,,,0,,,55,0
8882,note_on,,,,,0,0,2,,,,,0,,,67,0
8885,set_tempo,,,,,15,1,0,,1993355,,,,,,,
8900,note_on,,,,,0,0,2,,,,,0,,,48,0
8900,note_on,,,,,0,0,2,,,,,0,,,48,43
8900,note_on,,,,,0,0,2,,,,,0,,,51,43
8900,note_on,,,,,0,0,2,,,,,0,,,67,43
8900,note_on,,,,,0,0,2,,,,,0,,,55,43
8900,note_on,,,,,0,0,2,,,,,0,,,67,0
8900,note_on,,,,,0,0,2,,,,,0,,,55,0
8900,note_on,,,,,18,0,2,,,,,0,,,51,0
8900,set_tempo,,,,,15,1,0,,1980198,,,,,,,
8905,set_tempo,,,,,5,1,0,,1967213,,,,,,,
8910,set_tempo,,,,,5,1,0,,1892744,,,,,,,
8915,set_tempo,,,,,5,1,0,,1834862,,,,,,,
8920,note_on,,,,,20,0,2,,,,,0,,,48,0
8920,note_on,,,,,0,0,2,,,,,0,,,55,0
8920,note_on,,,,,0,0,2,,,,,0,,,67,0
8920,note_on,,,,,0,0,2,,,,,0,,,51,0
8920,note_on,,,,,0,0,2,,,,,0,,,55,43
8920,note_on,,,,,0,0,2,,,,,0,,,67,43
8920,note_on,,,,,0,0,2,,,,,0,,,51,43
8920,note_on,,,,,0,0,2,,,,,0,,,48,43
8920,set_tempo,,,,,5,1,0,,1818181,,,,,,,
8925,set_tempo,,,,,5,1,0,,1796407,,,,,,,
8930,set_tempo,,,,,5,1,0,,1729106,,,,,,,
8935,set_tempo,,,,,5,1,0,,1729106,,,,,,,
8940,note_on,,,,,0,0,2,,,,,0,,,51,45
8940,note_on,,,,,0,0,2,,,,,0,,,67,0
8940,note_on,,,,,0,0,2,,,,,0,,,72,45
8940,note_on,,,,,0,0,2,,,,,0,,,55,0
8940,note_on,,,,,0,0,2,,,,,0,,,60,45
8940,note_on,,,,,20,0,2,,,,,0,,,48,0
8940,note_on,,,,,0,0,2,,,,,0,,,48,45
8940,note_on,,,,,0,0,2,,,,,0,,,51,0
8945,set_tempo,,,,,10,1,0,,1719197,,,,,,,
8955,set_tempo,,,,,10,1,0,,1714285,,,,,,,
8960,note_on,,,,,0,0,2,,,,,0,,,60,48
8960,note_on,,,,,0,0,2,,,,,0,,,51,48
8960,note_on,,,,,0,0,2,,,,,0,,,48,48
8960,note_on,,,,,0,0,2,,,,,0,,,51,0
8960,note_on,,,,,0,0,2,,,,,0,,,60,0
8960,note_on,,,,,0,0,2,,,,,0,,,72,0
8960,note_on,,,,,20,0,2,,,,,0,,,48,0
8960,set_tempo,,,,,5,1,0,,1704545,,,,,,,
8960,note_on,,,,,0,0,2,,,,,0,,,72,48
8975,set_tempo,,,,,15,1,0,,1699716,,,,,,,
8980,set_tempo,,,,,5,1,0,,1694915,,,,,,,
8980,note_on,,,,,0,0,2,,,,,0,,,60,0
8980,note_on,,,,,20,0,2,,,,,0,,,48,0
8980,note_on,,,,,0,0,2,,,,,0,,,72,0
8980,note_on,,,,,0,0,2,,,,,0,,,51,0
8980,note_on,,,,,0,0,2,,,,,0,,,51,54
8980,note_on,,,,,0,0,2,,,,,0,,,48,54
8980,note_on,,,,,0,0,2,,,,,0,,,72,54
8980,note_on,,,,,0,0,2,,,,,0,,,60,54
8995,control_change,,,,,115,0,1,,,,,0,64,0,,
9000,note_on,,,,,0,0,2,,,,,0,,,75,69
9000,note_on,,,,,20,0,2,,,,,0,,,60,0
9000,note_on,,,,,0,0,2,,,,,0,,,51,0
9000,note_on,,,,,0,0,2,,,,,0,,,72,0
9000,control_change,,,,,5,0,1,,,,,0,64,94,,
9000,note_on,,,,,0,0,2,,,,,0,,,48,69
9000,note_on,,,,,0,0,2,,,,,0,,,51,69
9000,note_on,,,,,0,0,2,,,,,0,,,63,69
9000,note_on,,,,,0,0,2,,,,,0,,,48,0
9010,set_tempo,,,,,30,1,0,,1685393,,,,,,,
9020,note_on,,,,,0,0,2,,,,,0,,,63,0
9020,note_on,,,,,20,0,2,,,,,0,,,48,0
9020,note_on,,,,,0,0,2,,,,,0,,,48,89
9020,note_on,,,,,0,0,2,,,,,0,,,51,89
9020,note_on,,,,,0,0,2,,,,,0,,,75,89
9020,note_on,,,,,0,0,2,,,,,0,,,63,89
9020,note_on,,,,,0,0,2,,,,,0,,,51,0
9020,note_on,,,,,0,0,2,,,,,0,,,75,0
9040,note_on,,,,,0,0,2,,,,,0,,,75,101
9040,note_on,,,,,0,0,2,,,,,0,,,63,101
9040,note_on,,,,,0,0,2,,,,,0,,,48,101
9040,set_tempo,,,,,30,1,0,,1675977,,,,,,,
9040,note_on,,,,,0,0,2,,,,,0,,,51,101
9040,note_on,,,,,0,0,2,,,,,0,,,51,0
9040,note_on,,,,,20,0,2,,,,,0,,,48,0
9040,note_on,,,,,0,0,2,,,,,0,,,63,0
9040,note_on,,,,,0,0,2,,,,,0,,,75,0
9045,set_tempo,,,,,5,1,0,,1666666,,,,,,,
9057,control_change,,,,,57,0,1,,,,,0,64,0,,
9060,note_on,,,,,0,0,2,,,,,0,,,51,125
9060,note_on,,,,,20,0,2,,,,,0,,,75,0
9060,note_on,,,,,0,0,2,,,,,0,,,51,0
9060,note_on,,,,,0,0,2,,,,,0,,,48,0
9060,note_on,,,,,0,0,2,,,,,0,,,63,0
9060,note_on,,,,,0,0,2,,,,,0,,,66,125
9060,note_on,,,,,0,0,2,,,,,0,,,78,125
9060,note_on,,,,,0,0,2,,,,,0,,,54,125
9060,control_change,,,,,3,0,1,,,,,0,64,97,,
9060,note_on,,,,,0,0,2,,,,,0,,,48,125
9080,note_on,,,,,0,0,2,,,,,0,,,78,0
9080,note_on,,,,,0,0,2,,,,,0,,,54,0
9080,note_on,,,,,0,0,2,,,,,0,,,66,0
9080,note_on,,,,,0,0,2,,,,,0,,,51,0
9080,note_on,,,,,0,0,2,,,,,0,,,66,119
9080,note_on,,,,,0,0,2,,,,,0,,,78,119
9080,note_on,,,,,0,0,2,,,,,0,,,54,119
9080,note_on,,,,,20,0,2,,,,,0,,,48,0
9080,note_on,,,,,0,0,2,,,,,0,,,51,119
9080,note_on,,,,,0,0,2,,,,,0,,,48,119
9085,set_tempo,,,,,40,1,0,,1657458,,,,,,,
9090,set_tempo,,,,,5,1,0,,1648351,,,,,,,
9100,note_on,,,,,0,0,2,,,,,0,,,54,0
9100,note_on,,,,,0,0,2,,,,,0,,,51,107
9100,note_on,,,,,0,0,2,,,,,0,,,54,107
9100,note_on,,,,,0,0,2,,,,,0,,,78,107
9100,note_on,,,,,20,0,2,,,,,0,,,48,0
9100,note_on,,,,,0,0,2,,,,,0,,,66,107
9100,note_on,,,,,0,0,2,,,,,0,,,51,0
9100,note_on,,,,,0,0,2,,,,,0,,,78,0
9100,set_tempo,,,,,10,1,0,,1643835,,,,,,,
9100,note_on,,,,,0,0,2,,,,,0,,,48,107
9100,note_on,,,,,0,0,2,,,,,0,,,66,0
9105,set_tempo,,,,,5,1,0,,1639344,,,,,,,
9115,set_tempo,,,,,10,1,0,,1630434,,,,,,,
9117,control_change,,,,,57,0,1,,,,,0,64,0,,
9120,note_on,,,,,0,0,2,,,,,0,,,66,0
9120,note_on,,,,,0,0,2,,,,,0,,,48,115
9120,note_on,,,,,0,0,2,,,,,0,,,51,115
9120,control_change,,,,,3,0,1,,,,,0,64,96,,
9120,note_on,,,,,0,0,2,,,,,0,,,55,115
9120,note_on,,,,,0,0,2,,,,,0,,,79,115
9120,note_on,,,,,0,0,2,,,,,0,,,67,115
9120,note_on,,,,,0,0,2,,,,,0,,,51,0
9120,note_on,,,,,20,0,2,,,,,0,,,48,0
9120,note_on,,,,,0,0,2,,,,,0,,,54,0
9120,note_on,,,,,0,0,2,,,,,0,,,78,0
9125,set_tempo,,,,,10,1,0,,1621621,,,,,,,
9130,set_tempo,,,,,5,1,0,,1617250,,,,,,,
9140,note_on,,,,,0,0,2,,,,,0,,,67,94
9140,note_on,,,,,0,0,2,,,,,0,,,79,94
9140,note_on,,,,,0,0,2,,,,,0,,,55,94
9140,note_on,,,,,0,0,2,,,,,0,,,51,94
9140,note_on,,,,,0,0,2,,,,,0,,,48,94
9140,set_tempo,,,,,10,1,0,,1612903,,,,,,,
9140,note_on,,,,,20,0,2,,,,,0,,,48,0
9140,note_on,,,,,0,0,2,,,,,0,,,55,0
9140,note_on,,,,,0,0,2,,,,,0,,,51,0
9140,note_on,,,,,0,0,2,,,,,0,,,67,0
9140,note_on,,,,,0,0,2,,,,,0,,,79,0
9160,note_on,,,,,0,0,2,,,,,0,,,55,81
9160,note_on,,,,,20,0,2,,,,,0,,,48,0
9160,note_on,,,,,0,0,2,,,,,0,,,55,0
9160,note_on,,,,,0,0,2,,,,,0,,,67,0
9160,note_on,,,,,0,0,2,,,,,0,,,79,0
9160,note_on,,,,,0,0,2,,,,,0,,,51,0
9160,note_on,,,,,0,0,2,,,,,0,,,67,81
9160,note_on,,,,,0,0,2,,,,,0,,,79,81
9160,note_on,,,,,0,0,2,,,,,0,,,51,81
9160,note_on,,,,,0,0,2,,,,,0,,,48,81
9165,set_tempo,,,,,25,1,0,,1648351,,,,,,,
9170,set_tempo,,,,,5,1,0,,1652892,,,,,,,
9180,note_on,,,,,0,0,2,,,,,0,,,48,74
9180,note_on,,,,,0,0,2,,,,,0,,,51,0
9180,note_on,,,,,0,0,2,,,,,0,,,67,0
9180,note_on,,,,,0,0,2,,,,,0,,,79,0
9180,note_on,,,,,0,0,2,,,,,0,,,55,0
9180,set_tempo,,,,,10,1,0,,1657458,,,,,,,
9180,note_on,,,,,0,0,2,,,,,0,,,51,74
9180,note_on,,,,,0,0,2,,,,,0,,,63,74
9180,note_on,,,,,20,0,2,,,,,0,,,48,0
9180,note_on,,,,,0,0,2,,,,,0,,,75,74
9185,set_tempo,,,,,5,1,0,,1671309,,,,,,,
9190,set_tempo,,,,,5,1,0,,1675977,,,,,,,
9200,note_on,,,,,0,0,2,,,,,0,,,75,0
9200,note_on,,,,,0,0,2,,,,,0,,,51,0
9200,note_on,,,,,0,0,2,,,,,0,,,48,66
9200,note_on,,,,,0,0,2,,,,,0,,,75,66
9200,note_on,,,,,0,0,2,,,,,0,,,51,66
9200,note_on,,,,,0,0,2,,,,,0,,,63,0
9200,note_on,,,,,0,0,2,,,,,0,,,63,66
9200,note_on,,,,,20,0,2,,,,,0,,,48,0
9200,set_tempo,,,,,10,1,0,,1685393,,,,,,,
9205,set_tempo,,,,,5,1,0,,1694915,,,,,,,
9210,set_tempo,,,,,5,1,0,,1699716,,,,,,,
9215,set_tempo,,,,,5,1,0,,1704545,,,,,,,
9220,note_on,,,,,0,0,2,,,,,0,,,75,0
9220,note_on,,,,,0,0,2,,,,,0,,,75,61
9220,note_on,,,,,0,0,2,,,,,0,,,63,61
9220,note_on,,,,,0,0,2,,,,,0,,,48,61
9220,note_on,,,,,0,0,2,,,,,0,,,51,61
9220,note_on,,,,,0,0,2,,,,,0,,,51,0
9220,note_on,,,,,0,0,2,,,,,0,,,63,0
9220,note_on,,,,,20,0,2,,,,,0,,,48,0
9225,set_tempo,,,,,10,1,0,,1734104,,,,,,,
9230,set_tempo,,,,,5,1,0,,1739130,,,,,,,
9237,control_change,,,,,117,0,1,,,,,0,64,0,,
9240,note_on,,,,,0,0,2,,,,,0,,,63,0
9240,note_on,,,,,0,0,2,,,,,0,,,60,55
9240,control_change,,,,,3,0,1,,,,,0,64,96,,
9240,note_on,,,,,0,0,2,,,,,0,,,51,55
9240,note_on,,,,,0,0,2,,,,,0,,,72,55
9240,note_on,,,,,20,0,2,,,,,0,,,75,0
9240,note_on,,,,,0,0,2,,,,,0,,,51,0
9240,note_on,,,,,0,0,2,,,,,0,,,48,55
9240,note_on,,,,,0,0,2,,,,,0,,,48,0
9245,set_tempo,,,,,15,1,0,,1769911,,,,,,,
9255,set_tempo,,,,,10,1,0,,1801801,,,,,,,
9260,set_tempo,,,,,5,1,0,,1807228,,,,,,,
9260,note_on,,,,,0,0,2,,,,,0,,,60,0
9260,note_on,,,,,20,0,2,,,,,0,,,48,0
9260,note_on,,,,,0,0,2,,,,,0,,,72,0
9260,note_on,,,,,0,0,2,,,,,0,,,51,0
9260,note_on,,,,,0,0,2,,,,,0,,,60,48
9260,note_on,,,,,0,0,2,,,,,0,,,72,48
9260,note_on,,,,,0,0,2,,,,,0,,,51,48
9260,note_on,,,,,0,0,2,,,,,0,,,48,48
9265,set_tempo,,,,,5,1,0,,1812688,,,,,,,
9270,set_tempo,,,,,5,1,0,,1823708,,,,,,,
9280,note_on,,,,,0,0,2,,,,,0,,,60,46
9280,note_on,,,,,0,0,2,,,,,0,,,72,46
9280,set_tempo,,,,,10,1,0,,1846153,,,,,,,
9280,note_on,,,,,20,0,2,,,,,0,,,48,0
9280,note_on,,,,,0,0,2,,,,,0,,,60,0
9280,note_on,,,,,0,0,2,,,,,0,,,72,0
9280,note_on,,,,,0,0,2,,,,,0,,,51,0
9280,note_on,,,,,0,0,2,,,,,0,,,51,46
9280,note_on,,,,,0,0,2,,,,,0,,,48,46
9285,set_tempo,,,,,5,1,0,,1851851,,,,,,,
9290,set_tempo,,,,,5,1,0,,1863354,,,,,,,
9300,note_on,,,,,0,0,2,,,,,0,,,48,0
9300,note_on,,,,,0,0,2,,,,,0,,,48,44
9300,note_on,,,,,0,0,2,,,,,0,,,51,44
9300,note_on,,,,,0,0,2,,,,,0,,,51,0
9300,note_on,,,,,0,0,2,,,,,0,,,55,44
9300,set_tempo,,,,,10,1,0,,1869158,,,,,,,
9300,note_on,,,,,0,0,2,,,,,0,,,67,44
9300,note_on,,,,,20,0,2,,,,,0,,,72,0
9300,note_on,,,,,0,0,2,,,,,0,,,60,0
9305,set_tempo,,,,,5,1,0,,1875000,,,,,,,
9310,set_tempo,,,,,5,1,0,,1880877,,,,,,,
9320,note_on,,,,,0,0,2,,,,,0,,,55,42
9320,note_on,,,,,20,0,2,,,,,0,,,48,0
9320,note_on,,,,,0,0,2,,,,,0,,,55,0
9320,note_on,,,,,0,0,2,,,,,0,,,67,0
9320,note_on,,,,,0,0,2,,,,,0,,,48,42
9320,note_on,,,,,0,0,2,,,,,0,,,51,42
9320,note_on,,,,,0,0,2,,,,,0,,,67,42
9320,note_on,,,,,0,0,2,,,,,0,,,51,0
9325,set_tempo,,,,,15,1,0,,1886792,,,,,,,
9340,note_on,,,,,0,0,2,,,,,0,,,48,42
9340,note_on,,,,,0,0,2,,,,,0,,,51,42
9340,note_on,,,,,20,0,2,,,,,0,,,48,0
9340,note_on,,,,,0,0,2,,,,,0,,,55,0
9340,note_on,,,,,0,0,2,,,,,0,,,67,0
9340,note_on,,,,,0,0,2,,,,,0,,,51,0
9340,note_on,,,,,0,0,2,,,,,0,,,55,42
9340,note_on,,,,,0,0,2,,,,,0,,,67,42
9340,set_tempo,,,,,15,1,0,,1892744,,,,,,,
9345,set_tempo,,,,,5,1,0,,2150537,,,,,,,
9357,control_change,,,,,117,0,1,,,,,0,64,0,,
9360,note_on,,,,,0,0,2,,,,,0,,,67,0
9360,note_on,,,,,0,0,2,,,,,0,,,55,0
9360,note_on,,,,,20,0,2,,,,,0,,,48,0
9360,note_on,,,,,0,0,2,,,,,0,,,55,56
9360,note_on,,,,,0,0,2,,,,,0,,,67,56
9360,note_on,,,,,0,0,2,,,,,0,,,48,56
9360,note_on,,,,,0,0,2,,,,,0,,,51,56
9360,note_on,,,,,0,0,2,,,,,0,,,51,0
9360,control_change,,,,,3,0,1,,,,,0,64,95,,
9380,note_on,,,,,0,0,2,,,,,0,,,51,0
9380,note_on,,,,,0,0,2,,,,,0,,,67,0
9380,note_on,,,,,0,0,2,,,,,0,,,56,51
9380,note_on,,,,,0,0,2,,,,,0,,,68,51
9380,note_on,,,,,0,0,2,,,,,0,,,48,51
9380,note_on,,,,,20,0,2,,,,,0,,,48,0
9380,note_on,,,,,0,0,2,,,,,0,,,55,0
9380,note_on,,,,,0,0,2,,,,,0,,,51,51
9380,set_tempo,,,,,35,1,0,,1980198,,,,,,,
9385,set_tempo,,,,,5,1,0,,1967213,,,,,,,
9390,set_tempo,,,,,5,1,0,,1892744,,,,,,,
9395,set_tempo,,,,,5,1,0,,1834862,,,,,,,
9395,note_on,,,,,15,0,2,,,,,0,,,68,0
9395,note_on,,,,,0,0,2,,,,,0,,,56,0
9400,set_tempo,,,,,5,1,0,,1818181,,,,,,,
9400,note_on,,,,,0,0,2,,,,,0,,,56,43
9400,note_on,,,,,0,0,2,,,,,0,,,68,43
9400,note_on,,,,,0,0,2,,,,,0,,,48,43
9400,note_on,,,,,5,0,2,,,,,0,,,51,0
9400,note_on,,,,,0,0,2,,,,,0,,,48,0
9400,note_on,,,,,0,0,2,,,,,0,,,51,43
9405,set_tempo,,,,,5,1,0,,1796407,,,,,,,
9410,set_tempo,,,,,5,1,0,,1729106,,,,,,,
9415,set_tempo,,,,,5,1,0,,1729106,,,,,,,
9420,note_on,,,,,0,0,2,,,,,0,,,68,0
9420,note_on,,,,,20,0,2,,,,,0,,,56,0
9420,note_on,,,,,0,0,2,,,,,0,,,51,0
9420,note_on,,,,,0,0,2,,,,,0,,,48,0
9420,note_on,,,,,0,0,2,,,,,0,,,72,45
9420,note_on,,,,,0,0,2,,,,,0,,,60,45
9420,note_on,,,,,0,0,2,,,,,0,,,51,45
9420,note_on,,,,,0,0,2,,,,,0,,,48,45
9425,set_tempo,,,,,10,1,0,,1719197,,,,,,,
9435,set_tempo,,,,,10,1,0,,1714285,,,,,,,
9440,note_on,,,,,0,0,2,,,,,0,,,48,48
9440,note_on,,,,,0,0,2,,,,,0,,,51,48
9440,note_on,,,,,0,0,2,,,,,0,,,60,48
9440,note_on,,,,,0,0,2,,,,,0,,,72,48
9440,set_tempo,,,,,5,1,0,,1704545,,,,,,,
9440,note_on,,,,,0,0,2,,,,,0,,,60,0
9440,note_on,,,,,0,0,2,,,,,0,,,72,0
9440,note_on,,,,,20,0,2,,,,,0,,,48,0
9440,note_on,,,,,0,0,2,,,,,0,,,51,0
9455,set_tempo,,,,,15,1,0,,1699716,,,,,,,
9460,note_on,,,,,20,0,2,,,,,0,,,48,0
9460,note_on,,,,,0,0,2,,,,,0,,,72,0
9460,note_on,,,,,0,0,2,,,,,0,,,60,0
9460,note_on,,,,,0,0,2,,,,,0,,,51,0
9460,note_on,,,,,0,0,2,,,,,0,,,48,54
9460,note_on,,,,,0,0,2,,,,,0,,,72,54
9460,note_on,,,,,0,0,2,,,,,0,,,60,54
9460,note_on,,,,,0,0,2,,,,,0,,,51,54
9460,set_tempo,,,,,5,1,0,,1694915,,,,,,,
9475,control_change,,,,,115,0,1,,,,,0,64,0,,
9480,control_change,,,,,5,0,1,,,,,0,64,94,,
9480,note_on,,,,,0,0,2,,,,,0,,,51,0
9480,note_on,,,,,0,0,2,,,,,0,,,48,0
9480,note_on,,,,,0,0,2,,,,,0,,,72,0
9480,note_on,,,,,0,0,2,,,,,0,,,63,69
9480,note_on,,,,,0,0,2,,,,,0,,,75,69
9480,note_on,,,,,0,0,2,,,,,0,,,51,69
9480,note_on,,,,,20,0,2,,,,,0,,,60,0
9480,note_on,,,,,0,0,2,,,,,0,,,48,69
9490,set_tempo,,,,,30,1,0,,1685393,,,,,,,
9500,note_on,,,,,0,0,2,,,,,0,,,75,0
9500,note_on,,,,,0,0,2,,,,,0,,,63,0
9500,note_on,,,,,0,0,2,,,,,0,,,51,0
9500,note_on,,,,,0,0,2,,,,,0,,,63,89
9500,note_on,,,,,0,0,2,,,,,0,,,75,89
9500,note_on,,,,,0,0,2,,,,,0,,,51,89
9500,note_on,,,,,0,0,2,,,,,0,,,48,89
9500,note_on,,,,,20,0,2,,,,,0,,,48,0
9520,note_on,,,,,0,0,2,,,,,0,,,51,101
9520,set_tempo,,,,,30,1,0,,1675977,,,,,,,
9520,note_on,,,,,0,0,2,,,,,0,,,48,101
9520,note_on,,,,,0,0,2,,,,,0,,,51,0
9520,note_on,,,,,0,0,2,,,,,0,,,75,0
9520,note_on,,,,,0,0,2,,,,,0,,,75,101
9520,note_on,,,,,0,0,2,,,,,0,,,63,101
9520,note_on,,,,,20,0,2,,,,,0,,,48,0
9520,note_on,,,,,0,0,2,,,,,0,,,63,0
9525,set_tempo,,,,,5,1,0,,1666666,,,,,,,
9537,control_change,,,,,57,0,1,,,,,0,64,0,,
9540,note_on,,,,,0,0,2,,,,,0,,,51,0
9540,note_on,,,,,0,0,2,,,,,0,,,67,125
9540,control_change,,,,,3,0,1,,,,,0,64,97,,
9540,note_on,,,,,0,0,2,,,,,0,,,79,125
9540,note_on,,,,,0,0,2,,,,,0,,,55,125
9540,note_on,,,,,0,0,2,,,,,0,,,63,0
9540,note_on,,,,,0,0,2,,,,,0,,,48,125
9540,note_on,,,,,0,0,2,,,,,0,,,51,125
9540,note_on,,,,,20,0,2,,,,,0,,,75,0
9540,note_on,,,,,0,0,2,,,,,0,,,48,0
9560,note_on,,,,,0,0,2,,,,,0,,,51,0
9560,note_on,,,,,0,0,2,,,,,0,,,55,0
9560,note_on,,,,,0,0,2,,,,,0,,,67,0
9560,note_on,,,,,0,0,2,,,,,0,,,55,119
9560,note_on,,,,,0,0,2,,,,,0,,,79,119
9560,note_on,,,,,20,0,2,,,,,0,,,48,0
9560,note_on,,,,,0,0,2,,,,,0,,,51,119
9560,note_on,,,,,0,0,2,,,,,0,,,48,119
9560,note_on,,,,,0,0,2,,,,,0,,,67,119
9560,note_on,,,,,0,0,2,,,,,0,,,79,0
9565,set_tempo,,,,,40,1,0,,1657458,,,,,,,
9570,set_tempo,,,,,5,1,0,,1648351,,,,,,,
9580,note_on,,,,,0,0,2,,,,,0,,,67,107
9580,note_on,,,,,0,0,2,,,,,0,,,55,107
9580,note_on,,,,,0,0,2,,,,,0,,,79,107
9580,set_tempo,,,,,10,1,0,,1643835,,,,,,,
9580,note_on,,,,,0,0,2,,,,,0,,,48,107
9580,note_on,,,,,20,0,2,,,,,0,,,48,0
9580,note_on,,,,,0,0,2,,,,,0,,,79,0
9580,note_on,,,,,0,0,2,,,,,0,,,55,0
9580,note_on,,,,,0,0,2,,,,,0,,,67,0
9580,note_on,,,,,0,0,2,,,,,0,,,51,0
9580,note_on,,,,,0,0,2,,,,,0,,,51,107
9585,set_tempo,,,,,5,1,0,,1639344,,,,,,,
9595,set_tempo,,,,,10,1,0,,1630434,,,,,,,
9597,control_change,,,,,57,0,1,,,,,0,64,0,,
9600,note_on,,,,,0,0,2,,,,,0,,,56,115
9600,control_change,,,,,3,0,1,,,,,0,64,96,,
9600,note_on,,,,,20,0,2,,,,,0,,,55,0
9600,note_on,,,,,0,0,2,,,,,0,,,67,0
9600,note_on,,,,,0,0,2,,,,,0,,,51,0
9600,note_on,,,,,0,0,2,,,,,0,,,48,0
9600,note_on,,,,,0,0,2,,,,,0,,,79,0
9600,note_on,,,,,0,0,2,,,,,0,,,68,115
9600,note_on,,,,,0,0,2,,,,,0,,,80,115
9600,note_on,,,,,0,0,2,,,,,0,,,51,115
9600,note_on,,,,,0,0,2,,,,,0,,,48,115
9605,set_tempo,,,,,10,1,0,,1621621,,,,,,,
9610,set_tempo,,,,,5,1,0,,1617250,,,,,,,
9620,note_on,,,,,0,0,2,,,,,0,,,56,101
9620,note_on,,,,,0,0,2,,,,,0,,,51,0
9620,note_on,,,,,0,0,2,,,,,0,,,80,101
9620,note_on,,,,,0,0,2,,,,,0,,,68,101
9620,set_tempo,,,,,10,1,0,,1612903,,,,,,,
9620,note_on,,,,,0,0,2,,,,,0,,,48,101
9620,note_on,,,,,0,0,2,,,,,0,,,80,0
9620,note_on,,,,,20,0,2,,,,,0,,,48,0
9620,note_on,,,,,0,0,2,,,,,0,,,68,0
9620,note_on,,,,,0,0,2,,,,,0,,,51,101
9620,note_on,,,,,0,0,2,,,,,0,,,56,0
9640,note_on,,,,,0,0,2,,,,,0,,,51,0
9640,note_on,,,,,0,0,2,,,,,0,,,68,0
9640,note_on,,,,,0,0,2,,,,,0,,,56,0
9640,note_on,,,,,0,0,2,,,,,0,,,80,0
9640,note_on,,,,,0,0,2,,,,,0,,,51,92
9640,note_on,,,,,0,0,2,,,,,0,,,48,92
9640,note_on,,,,,0,0,2,,,,,0,,,68,92
9640,note_on,,,,,0,0,2,,,,,0,,,80,92
9640,note_on,,,,,0,0,2,,,,,0,,,56,92
9640,note_on,,,,,20,0,2,,,,,0,,,48,0
9645,set_tempo,,,,,25,1,0,,1648351,,,,,,,
9650,set_tempo,,,,,5,1,0,,1652892,,,,,,,
9658,control_change,,,,,58,0,1,,,,,0,64,0,,
9660,note_on,,,,,0,0,2,,,,,0,,,52,79
9660,note_on,,,,,0,0,2,,,,,0,,,76,79
9660,note_on,,,,,0,0,2,,,,,0,,,56,79
9660,note_on,,,,,0,0,2,,,,,0,,,64,79
9660,note_on,,,,,0,0,2,,,,,0,,,49,79
9660,note_on,,,,,0,0,2,,,,,0,,,80,0
9660,note_on,,,,,0,0,2,,,,,0,,,48,0
9660,note_on,,,,,0,0,2,,,,,0,,,51,0
9660,note_on,,,,,0,0,2,,,,,0,,,68,0
9660,note_on,,,,,20,0,2,,,,,0,,,56,0
9660,set_tempo,,,,,10,1,0,,1657458,,,,,,,
9660,control_change,,,,,2,0,1,,,,,0,64,96,,
9665,set_tempo,,,,,5,1,0,,1671309,,,,,,,
9670,set_tempo,,,,,5,1,0,,1675977,,,,,,,
9680,note_on,,,,,0,0,2,,,,,0,,,49,71
9680,set_tempo,,,,,10,1,0,,1685393,,,,,,,
9680,note_on,,,,,0,0,2,,,,,0,,,64,71
9680,note_on,,,,,0,0,2,,,,,0,,,76,71
9680,note_on,,,,,0,0,2,,,,,0,,,52,71
9680,note_on,,,,,0,0,2,,,,,0,,,56,71
9680,note_on,,,,,0,0,2,,,,,0,,,76,0
9680,note_on,,,,,0,0,2,,,,,0,,,52,0
9680,note_on,,,,,20,0,2,,,,,0,,,49,0
9680,note_on,,,,,0,0,2,,,,,0,,,56,0
9680,note_on,,,,,0,0,2,,,,,0,,,64,0
9685,set_tempo,,,,,5,1,0,,1694915,,,,,,,
9690,set_tempo,,,,,5,1,0,,1699716,,,,,,,
9695,set_tempo,,,,,5,1,0,,1704545,,,,,,,
9700,note_on,,,,,0,0,2,,,,,0,,,52,0
9700,note_on,,,,,0,0,2,,,,,0,,,64,0
9700,note_on,,,,,0,0,2,,,,,0,,,52,64
9700,note_on,,,,,0,0,2,,,,,0,,,56,0
9700,note_on,,,,,20,0,2,,,,,0,,,49,0
9700,note_on,,,,,0,0,2,,,,,0,,,49,64
9700,note_on,,,,,0,0,2,,,,,0,,,56,64
9700,note_on,,,,,0,0,2,,,,,0,,,64,64
9700,note_on,,,,,0,0,2,,,,,0,,,76,64
9700,note_on,,,,,0,0,2,,,,,0,,,76,0
9705,set_tempo,,,,,10,1,0,,1734104,,,,,,,
9710,set_tempo,,,,,5,1,0,,1739130,,,,,,,
9717,control_change,,,,,57,0,1,,,,,0,64,0,,
9720,note_on,,,,,0,0,2,,,,,0,,,64,0
9720,note_on,,,,,0,0,2,,,,,0,,,49,0
9720,note_on,,,,,0,0,2,,,,,0,,,52,0
9720,note_on,,,,,0,0,2,,,,,0,,,56,0
9720,note_on,,,,,20,0,2,,,,,0,,,76,0
9720,note_on,,,,,0,0,2,,,,,0,,,73,58
9720,note_on,,,,,0,0,2,,,,,0,,,61,58
9720,note_on,,,,,0,0,2,,,,,0,,,56,58
9720,note_on,,,,,0,0,2,,,,,0,,,52,58
9720,note_on,,,,,0,0,2,,,,,0,,,49,58
9720,control_change,,,,,3,0,1,,,,,0,64,96,,
9725,set_tempo,,,,,15,1,0,,1769911,,,,,,,
9735,set_tempo,,,,,10,1,0,,1801801,,,,,,,
9740,set_tempo,,,,,5,1,0,,1807228,,,,,,,
9740,note_on,,,,,0,0,2,,,,,0,,,52,55
9740,note_on,,,,,0,0,2,,,,,0,,,49,55
9740,note_on,,,,,0,0,2,,,,,0,,,73,55
9740,note_on,,,,,0,0,2,,,,,0,,,61,55
9740,note_on,,,,,0,0,2,,,,,0,,,73,0
9740,note_on,,,,,0,0,2,,,,,0,,,56,0
9740,note_on,,,,,0,0,2,,,,,0,,,52,0
9740,note_on,,,,,0,0,2,,,,,0,,,56,55
9740,note_on,,,,,20,0,2,,,,,0,,,49,0
9740,note_on,,,,,0,0,2,,,,,0,,,61,0
9745,set_tempo,,,,,5,1,0,,1812688,,,,,,,
9750,set_tempo,,,,,5,1,0,,1823708,,,,,,,
9760,note_on,,,,,0,0,2,,,,,0,,,56,51
9760,note_on,,,,,0,0,2,,,,,0,,,49,51
9760,note_on,,,,,0,0,2,,,,,0,,,52,51
9760,note_on,,,,,0,0,2,,,,,0,,,52,0
9760,note_on,,,,,0,0,2,,,,,0,,,61,0
9760,note_on,,,,,0,0,2,,,,,0,,,56,0
9760,note_on,,,,,0,0,2,,,,,0,,,73,0
9760,note_on,,,,,0,0,2,,,,,0,,,73,51
9760,note_on,,,,,0,0,2,,,,,0,,,61,51
9760,set_tempo,,,,,10,1,0,,1846153,,,,,,,
9760,note_on,,,,,20,0,2,,,,,0,,,49,0
9765,set_tempo,,,,,5,1,0,,1851851,,,,,,,
9770,set_tempo,,,,,5,1,0,,1863354,,,,,,,
9780,note_on,,,,,0,0,2,,,,,0,,,56,0
9780,note_on,,,,,0,0,2,,,,,0,,,49,0
9780,note_on,,,,,0,0,2,,,,,0,,,61,0
9780,note_on,,,,,0,0,2,,,,,0,,,47,48
9780,note_on,,,,,0,0,2,,,,,0,,,52,0
9780,note_on,,,,,0,0,2,,,,,0,,,51,48
9780,set_tempo,,,,,10,1,0,,1869158,,,,,,,
9780,note_on,,,,,20,0,2,,,,,0,,,73,0
9780,note_on,,,,,0,0,2,,,,,0,,,68,48
9785,set_tempo,,,,,5,1,0,,1875000,,,,,,,
9790,set_tempo,,,,,5,1,0,,1880877,,,,,,,
9800,note_on,,,,,0,0,2,,,,,0,,,47,48
9800,note_on,,,,,0,0,2,,,,,0,,,51,0
9800,note_on,,,,,0,0,2,,,,,0,,,47,0
9800,note_on,,,,,0,0,2,,,,,0,,,51,48
9800,note_on,,,,,0,0,2,,,,,0,,,68,48
9800,note_on,,,,,20,0,2,,,,,0,,,68,0
9805,set_tempo,,,,,15,1,0,,1892744,,,,,,,
9810,set_tempo,,,,,5,1,0,,1898734,,,,,,,
9820,note_on,,,,,0,0,2,,,,,0,,,68,48
9820,note_on,,,,,0,0,2,,,,,0,,,51,48
9820,note_on,,,,,0,0,2,,,,,0,,,44,48
9820,note_on,,,,,0,0,2,,,,,0,,,47,48
9820,note_on,,,,,0,0,2,,,,,0,,,47,0
9820,note_on,,,,,0,0,2,,,,,0,,,51,0
9820,note_on,,,,,20,0,2,,,,,0,,,68,0
9825,set_tempo,,,,,15,1,0,,1954397,,,,,,,
9830,set_tempo,,,,,5,1,0,,1967213,,,,,,,
9835,set_tempo,,,,,5,1,0,,1980198,,,,,,,
9837,control_change,,,,,117,0,1,,,,,0,64,0,,
9840,control_change,,,,,3,0,1,,,,,0,64,95,,
9840,note_on,,,,,0,0,2,,,,,0,,,68,53
9840,note_on,,,,,0,0,2,,,,,0,,,47,0
9840,note_on,,,,,0,0,2,,,,,0,,,51,53
9840,note_on,,,,,0,0,2,,,,,0,,,47,53
9840,note_on,,,,,0,0,2,,,,,0,,,39,53
9840,note_on,,,,,0,0,2,,,,,0,,,51,0
9840,note_on,,,,,0,0,2,,,,,0,,,44,0
9840,note_on,,,,,20,0,2,,,,,0,,,68,0
9840,set_tempo,,,,,5,1,0,,1973684,,,,,,,
9840,note_on,,,,,0,0,2,,,,,0,,,56,53
9850,set_tempo,,,,,10,1,0,,2013422,,,,,,,
9860,note_on,,,,,0,0,2,,,,,0,,,47,0
9860,note_on,,,,,0,0,2,,,,,0,,,56,58
9860,note_on,,,,,20,0,2,,,,,0,,,68,0
9860,note_on,,,,,0,0,2,,,,,0,,,51,0
9860,note_on,,,,,0,0,2,,,,,0,,,39,0
9860,note_on,,,,,0,0,2,,,,,0,,,56,0
9860,note_on,,,,,0,0,2,,,,,0,,,47,58
9860,note_on,,,,,0,0,2,,,,,0,,,51,58
9860,note_on,,,,,0,0,2,,,,,0,,,39,58
9860,note_on,,,,,0,0,2,,,,,0,,,68,58
9880,note_on,,,,,0,0,2,,,,,0,,,56,0
9880,note_on,,,,,0,0,2,,,,,0,,,51,0
9880,note_on,,,,,0,0,2,,,,,0,,,47,0
9880,note_on,,,,,0,0,2,,,,,0,,,51,64
9880,note_on,,,,,20,0,2,,,,,0,,,68,0
9880,note_on,,,,,0,0,2,,,,,0,,,68,64
9880,note_on,,,,,0,0,2,,,,,0,,,39,0
9880,note_on,,,,,0,0,2,,,,,0,,,47,64
9880,note_on,,,,,0,0,2,,,,,0,,,56,64
9880,note_on,,,,,0,0,2,,,,,0,,,39,64
9880,set_tempo,,,,,30,1,0,,2054794,,,,,,,
9885,set_tempo,,,,,5,1,0,,2097902,,,,,,,
9890,set_tempo,,,,,5,1,0,,2150537,,,,,,,
9897,control_change,,,,,57,0,1,,,,,0,64,0,,
9900,note_on,,,,,20,0,2,,,,,0,,,68,0
9900,note_on,,,,,0,0,2,,,,,0,,,39,0
9900,note_on,,,,,0,0,2,,,,,0,,,47,0
9900,note_on,,,,,0,0,2,,,,,0,,,51,0
9900,note_on,,,,,0,0,2,,,,,0,,,56,0
9900,set_tempo,,,,,10,1,0,,2197802,,,,,,,
9900,note_on,,,,,0,0,2,,,,,0,,,59,71
9900,note_on,,,,,0,0,2,,,,,0,,,71,71
9900,control_change,,,,,3,0,1,,,,,0,64,96,,
9900,note_on,,,,,0,0,2,,,,,0,,,49,71
9900,note_on,,,,,0,0,2,,,,,0,,,52,71
9902,control_change,,,,,2,0,1,,,,,0,64,95,,
9905,set_tempo,,,,,5,1,0,,2214022,,,,,,,
9910,set_tempo,,,,,5,1,0,,2230483,,,,,,,
9920,set_tempo,,,,,10,1,0,,2281368,,,,,,,
9920,note_on,,,,,0,0,2,,,,,0,,,71,65
9920,note_on,,,,,0,0,2,,,,,0,,,59,65
9920,note_on,,,,,0,0,2,,,,,0,,,52,65
9920,note_on,,,,,0,0,2,,,,,0,,,49,65
9920,note_on,,,,,0,0,2,,,,,0,,,59,0
9920,note_on,,,,,0,0,2,,,,,0,,,52,0
9920,note_on,,,,,0,0,2,,,,,0,,,49,0
9920,note_on,,,,,20,0,2,,,,,0,,,71,0
9925,set_tempo,,,,,5,1,0,,2334630,,,,,,,
9930,set_tempo,,,,,5,1,0,,2352941,,,,,,,
9935,set_tempo,,,,,5,1,0,,2371541,,,,,,,
9940,note_on,,,,,0,0,2,,,,,0,,,52,61
9940,note_on,,,,,0,0,2,,,,,0,,,70,61
9940,note_on,,,,,0,0,2,,,,,0,,,58,61
9940,note_on,,,,,0,0,2,,,,,0,,,49,61
9940,note_on,,,,,0,0,2,,,,,0,,,59,0
9940,note_on,,,,,0,0,2,,,,,0,,,52,0
9940,set_tempo,,,,,5,1,0,,2400000,,,,,,,
9940,note_on,,,,,0,0,2,,,,,0,,,49,0
9940,control_change,,,,,38,0,1,,,,,0,64,0,,
9940,note_on,,,,,20,0,2,,,,,0,,,71,0
9945,set_tempo,,,,,5,1,0,,2459016,,,,,,,
9955,set_tempo,,,,,10,1,0,,2521008,,,,,,,
9960,note_on,,,,,0,0,2,,,,,0,,,49,0
9960,control_change,,,,,20,0,1,,,,,0,64,96,,
9960,note_on,,,,,0,0,2,,,,,0,,,68,60
9960,set_tempo,,,,,5,1,0,,2542372,,,,,,,
9960,note_on,,,,,20,0,2,,,,,0,,,70,0
9960,note_on,,,,,0,0,2,,,,,0,,,52,0
9960,note_on,,,,,0,0,2,,,,,0,,,58,0
9960,note_on,,,,,0,0,2,,,,,0,,,39,60
9960,note_on,,,,,0,0,2,,,,,0,,,47,60
9960,note_on,,,,,0,0,2,,,,,0,,,51,60
9960,note_on,,,,,0,0,2,,,,,0,,,56,60
9965,set_tempo,,,,,5,1,0,,2564102,,,,,,,
9970,set_tempo,,,,,5,1,0,,2586206,,,,,,,
9980,note_on,,,,,20,0,2,,,,,0,,,68,0
9980,note_on,,,,,0,0,2,,,,,0,,,51,0
9980,note_on,,,,,0,0,2,,,,,0,,,47,0
9980,note_on,,,,,0,0,2,,,,,0,,,56,0
9980,note_on,,,,,0,0,2,,,,,0,,,39,54
9980,note_on,,,,,0,0,2,,,,,0,,,47,54
9980,note_on,,,,,0,0,2,,,,,0,,,51,54
9980,note_on,,,,,0,0,2,,,,,0,,,56,54
9980,note_on,,,,,0,0,2,,,,,0,,,68,54
9980,set_tempo,,,,,10,1,0,,2714932,,,,,,,
9980,note_on,,,,,0,0,2,,,,,0,,,39,0
9990,set_tempo,,,,,10,1,0,,2764976,,,,,,,
9995,set_tempo,,,,,5,1,0,,2803738,,,,,,,
10000,set_tempo,,,,,5,1,0,,2830188,,,,,,,
10000,note_on,,,,,0,0,2,,,,,0,,,68,48
10000,note_on,,,,,0,0,2,,,,,0,,,51,48
10000,note_on,,,,,0,0,2,,,,,0,,,56,48
10000,note_on,,,,,0,0,2,,,,,0,,,39,48
10000,note_on,,,,,20,0,2,,,,,0,,,68,0
10000,note_on,,,,,0,0,2,,,,,0,,,51,0
10000,note_on,,,,,0,0,2,,,,,0,,,39,0
10000,note_on,,,,,0,0,2,,,,,0,,,47,0
10000,note_on,,,,,0,0,2,,,,,0,,,47,48
10000,note_on,,,,,0,0,2,,,,,0,,,56,0
10010,set_tempo,,,,,10,1,0,,3061224,,,,,,,
10015,set_tempo,,,,,5,1,0,,3092783,,,,,,,
10017,control_change,,,,,57,0,1,,,,,0,64,0,,
10020,set_tempo,,,,,5,1,0,,3125000,,,,,,,
10020,note_on,,,,,0,0,2,,,,,0,,,67,43
10020,note_on,,,,,0,0,2,,,,,0,,,55,43
10020,note_on,,,,,0,0,2,,,,,0,,,61,43
10020,note_on,,,,,0,0,2,,,,,0,,,51,43
10020,note_on,,,,,20,0,2,,,,,0,,,68,0
10020,note_on,,,,,0,0,2,,,,,0,,,46,43
10020,control_change,,,,,3,0,1,,,,,0,64,95,,
10020,note_on,,,,,0,0,2,,,,,0,,,51,0
10020,note_on,,,,,0,0,2,,,,,0,,,39,0
10020,note_on,,,,,0,0,2,,,,,0,,,47,0
10020,note_on,,,,,0,0,2,,,,,0,,,56,0
10020,note_on,,,,,0,0,2,,,,,0,,,39,43
10020,note_on,,,,,0,0,2,,,,,0,,,63,43
10025,set_tempo,,,,,5,1,0,,3314917,,,,,,,
10030,set_tempo,,,,,5,1,0,,3508771,,,,,,,
10035,set_tempo,,,,,5,1,0,,3571428,,,,,,,
10040,note_on,,,,,0,0,2,,,,,0,,,55,39
10040,note_on,,,,,0,0,2,,,,,0,,,61,39
10040,note_on,,,,,0,0,2,,,,,0,,,63,39
10040,note_on,,,,,0,0,2,,,,,0,,,51,39
10040,note_on,,,,,0,0,2,,,,,0,,,46,39
10040,note_on,,,,,0,0,2,,,,,0,,,39,39
10040,note_on,,,,,0,0,2,,,,,0,,,63,0
10040,note_on,,,,,0,0,2,,,,,0,,,39,0
10040,note_on,,,,,0,0,2,,,,,0,,,51,0
10040,note_on,,,,,0,0,2,,,,,0,,,46,0
10040,note_on,,,,,20,0,2,,,,,0,,,67,0
10040,note_on,,,,,0,0,2,,,,,0,,,67,39
10040,note_on,,,,,0,0,2,,,,,0,,,55,0
10040,note_on,,,,,0,0,2,,,,,0,,,61,0
10045,set_tempo,,,,,10,1,0,,3703703,,,,,,,
10050,set_tempo,,,,,5,1,0,,3973509,,,,,,,
10060,note_on,,,,,0,0,2,,,,,0,,,51,35
10060,note_on,,,,,0,0,2,,,,,0,,,63,35
10060,note_on,,,,,0,0,2,,,,,0,,,61,35
10060,note_on,,,,,0,0,2,,,,,0,,,55,35
10060,note_on,,,,,0,0,2,,,,,0,,,67,35
10060,note_on,,,,,0,0,2,,,,,0,,,63,0
10060,note_on,,,,,0,0,2,,,,,0,,,55,0
10060,note_on,,,,,0,0,2,,,,,0,,,39,0
10060,note_on,,,,,0,0,2,,,,,0,,,51,0
10060,note_on,,,,,0,0,2,,,,,0,,,46,0
10060,note_on,,,,,0,0,2,,,,,0,,,61,0
10060,note_on,,,,,20,0,2,,,,,0,,,67,0
10060,note_on,,,,,0,0,2,,,,,0,,,39,35
10060,note_on,,,,,0,0,2,,,,,0,,,46,35
10065,set_tempo,,,,,15,1,0,,4109589,,,,,,,
10077,control_change,,,,,57,0,1,,,,,0,64,0,,
10080,set_tempo,,,,,15,1,0,,2247191,,,,,,,
10080,note_on,,,,,3,0,1,,,,,0,,,60,48
10080,note_on,,,,,20,0,2,,,,,0,,,67,0
10080,note_on,,,,,0,0,2,,,,,0,,,61,0
10080,note_on,,,,,0,0,2,,,,,0,,,46,0
10080,note_on,,,,,0,0,2,,,,,0,,,51,0
10080,note_on,,,,,0,0,2,,,,,0,,,39,0
10080,note_on,,,,,0,0,2,,,,,0,,,55,0
10080,note_on,,,,,0,0,2,,,,,0,,,63,0
10080,control_change,,,,,0,0,1,,,,,0,91,96,,
10080,control_change,,,,,0,0,1,,,,,0,64,95,,
10080,note_on,,,,,0,0,1,,,,,0,,,44,47
10080,note_on,,,,,0,0,1,,,,,0,,,68,48
10085,set_tempo,,,,,5,1,0,,2166064,,,,,,,
10090,set_tempo,,,,,5,1,0,,2150537,,,,,,,
10095,set_tempo,,,,,5,1,0,,2135231,,,,,,,
10100,note_on,,,,,20,0,2,,,,,0,,,51,35
10100,set_tempo,,,,,5,1,0,,2076124,,,,,,,
10110,set_tempo,,,,,10,1,0,,2061855,,,,,,,
10115,set_tempo,,,,,5,1,0,,2047781,,,,,,,
10116,note_on,,,,,16,0,2,,,,,0,,,51,0
10120,note_on,,,,,4,0,2,,,,,0,,,51,42
10125,set_tempo,,,,,10,1,0,,2006688,,,,,,,
10127,control_change,,,,,47,0,1,,,,,0,64,0,,
10130,control_change,,,,,3,0,1,,,,,0,64,96,,
10135,set_tempo,,,,,10,1,0,,2000000,,,,,,,
10136,note_on,,,,,16,0,2,,,,,0,,,51,0
10140,note_on,,,,,4,0,2,,,,,0,,,50,42
10140,set_tempo,,,,,5,1,0,,1986754,,,,,,,
10145,set_tempo,,,,,5,1,0,,1980198,,,,,,,
10150,set_tempo,,,,,5,1,0,,1973684,,,,,,,
10155,set_tempo,,,,,5,1,0,,1967213,,,,,,,
10160,note_on,,,,,20,0,2,,,,,0,,,50,0
10160,set_tempo,,,,,5,1,0,,1960784,,,,,,,
10160,note_on,,,,,0,0,2,,,,,0,,,51,41
10170,set_tempo,,,,,10,1,0,,1954397,,,,,,,
10176,note_on,,,,,16,0,2,,,,,0,,,51,0
10180,set_tempo,,,,,10,1,0,,1948051,,,,,,,
10181,note_on,,,,,5,0,2,,,,,0,,,51,34
10185,note_on,,,,,55,0,1,,,,,0,,,44,0
10185,note_on,,,,,0,0,1,,,,,0,,,68,0
10185,note_on,,,,,0,0,1,,,,,0,,,60,0
10190,set_tempo,,,,,10,1,0,,1941747,,,,,,,
10197,control_change,,,,,12,0,1,,,,,0,64,0,,
10197,note_on,,,,,16,0,2,,,,,0,,,51,0
10200,note_on,,,,,0,0,1,,,,,0,,,68,45
10200,note_on,,,,,0,0,1,,,,,0,,,44,37
10200,control_change,,,,,0,0,1,,,,,0,64,95,,
10200,note_on,,,,,3,0,1,,,,,0,,,61,45
10200,set_tempo,,,,,10,1,0,,1929260,,,,,,,
10210,set_tempo,,,,,10,1,0,,1923076,,,,,,,
10215,set_tempo,,,,,5,1,0,,1916932,,,,,,,
10221,note_on,,,,,24,0,2,,,,,0,,,51,38
10230,note_on,,,,,0,0,1,,,,,0,,,67,38
10230,note_on,,,,,30,0,1,,,,,0,,,68,0
10235,set_tempo,,,,,20,1,0,,1910828,,,,,,,
10237,note_on,,,,,16,0,2,,,,,0,,,51,0
10240,set_tempo,,,,,5,1,0,,1904761,,,,,,,
10241,note_on,,,,,4,0,2,,,,,0,,,51,43
10247,control_change,,,,,17,0,1,,,,,0,64,0,,
10257,note_on,,,,,16,0,2,,,,,0,,,51,0
10260,note_on,,,,,13,0,1,,,,,0,,,67,0
10260,control_change,,,,,0,0,1,,,,,0,64,95,,
10260,note_on,,,,,0,0,1,,,,,0,,,70,42
10261,note_on,,,,,4,0,2,,,,,0,,,53,49
10270,set_tempo,,,,,30,1,0,,1898734,,,,,,,
10281,note_on,,,,,0,0,2,,,,,0,,,51,39
10281,note_on,,,,,20,0,2,,,,,0,,,53,0
10290,note_on,,,,,30,0,1,,,,,0,,,70,0
10290,note_on,,,,,0,0,1,,,,,0,,,67,38
10297,note_on,,,,,16,0,2,,,,,0,,,51,0
10301,note_on,,,,,4,0,2,,,,,0,,,51,36
10310,set_tempo,,,,,40,1,0,,1892744,,,,,,,
10317,note_on,,,,,16,0,2,,,,,0,,,51,0
10317,control_change,,,,,27,0,1,,,,,0,64,0,,
10320,set_tempo,,,,,10,1,0,,1886792,,,,,,,
10320,note_on,,,,,0,0,1,,,,,0,,,63,40
10320,note_on,,,,,0,0,1,,,,,0,,,68,40
10320,note_on,,,,,0,0,1,,,,,0,,,61,0
10320,note_on,,,,,0,0,1,,,,,0,,,44,0
10320,note_on,,,,,3,0,1,,,,,0,,,67,0
10320,note_on,,,,,0,0,1,,,,,0,,,48,39
10320,control_change,,,,,0,0,1,,,,,0,64,95,,
10325,set_tempo,,,,,5,1,0,,1880877,,,,,,,
10340,note_on,,,,,23,0,2,,,,,0,,,51,33
10356,note_on,,,,,16,0,2,,,,,0,,,51,0
10360,note_on,,,,,4,0,2,,,,,0,,,51,37
10365,set_tempo,,,,,40,1,0,,1875000,,,,,,,
10376,note_on,,,,,16,0,2,,,,,0,,,51,0
10380,note_on,,,,,4,0,2,,,,,0,,,56,39
10400,note_on,,,,,20,0,2,,,,,0,,,56,0
10400,note_on,,,,,0,0,2,,,,,0,,,51,35
10400,set_tempo,,,,,35,1,0,,1898734,,,,,,,
10410,note_on,,,,,0,0,1,,,,,0,,,63,32
10410,set_tempo,,,,,10,1,0,,1910828,,,,,,,
10410,note_on,,,,,90,0,1,,,,,0,,,48,0
10410,note_on,,,,,0,0,1,,,,,0,,,63,0
10410,note_on,,,,,0,0,1,,,,,0,,,49,38
10410,control_change,,,,,0,0,1,,,,,0,64,0,,
10416,note_on,,,,,16,0,2,,,,,0,,,51,0
10417,note_on,,,,,7,0,1,,,,,0,,,63,0
10418,note_on,,,,,1,0,1,,,,,0,,,65,33
10420,set_tempo,,,,,10,1,0,,1916932,,,,,,,
10420,note_on,,,,,4,0,2,,,,,0,,,51,31
10425,note_on,,,,,7,0,1,,,,,0,,,65,0
10425,note_on,,,,,0,0,1,,,,,0,,,67,35
10430,set_tempo,,,,,10,1,0,,1923076,,,,,,,
10432,note_on,,,,,7,0,1,,,,,0,,,67,0
10432,note_on,,,,,0,0,1,,,,,0,,,65,36
10436,note_on,,,,,16,0,2,,,,,0,,,51,0
10439,note_on,,,,,7,0,1,,,,,0,,,65,0
10440,note_on,,,,,1,0,1,,,,,0,,,49,0
10440,note_on,,,,,0,0,1,,,,,0,,,63,38
10440,note_on,,,,,4,0,2,,,,,0,,,51,31
10440,set_tempo,,,,,10,1,0,,1941747,,,,,,,
10440,note_on,,,,,0,0,1,,,,,0,,,48,34
10450,set_tempo,,,,,10,1,0,,1948051,,,,,,,
10460,note_on,,,,,20,0,2,,,,,0,,,51,0
10460,note_on,,,,,0,0,2,,,,,0,,,53,31
10460,set_tempo,,,,,10,1,0,,1954397,,,,,,,
10470,set_tempo,,,,,10,1,0,,1967213,,,,,,,
10476,note_on,,,,,16,0,2,,,,,0,,,53,0
10480,set_tempo,,,,,10,1,0,,1980198,,,,,,,
10480,note_on,,,,,4,0,2,,,,,0,,,51,34
10490,set_tempo,,,,,10,1,0,,1986754,,,,,,,
10492,note_on,,,,,52,0,1,,,,,0,,,48,0
10492,note_on,,,,,0,0,1,,,,,0,,,63,0
10492,note_on,,,,,0,0,1,,,,,0,,,68,0
10494,note_on,,,,,14,0,2,,,,,0,,,51,0
10500,note_on,,,,,0,0,1,,,,,0,,,70,41
10500,note_on,,,,,6,0,2,,,,,0,,,51,42
10500,note_on,,,,,8,0,1,,,,,0,,,43,47
10500,note_on,,,,,0,0,1,,,,,0,,,63,41
10500,set_tempo,,,,,10,1,0,,1993355,,,,,,,
10510,set_tempo,,,,,10,1,0,,2000000,,,,,,,
10520,set_tempo,,,,,10,1,0,,1973684,,,,,,,
10520,note_on,,,,,20,0,2,,,,,0,,,51,0
10520,note_on,,,,,0,0,2,,,,,0,,,53,38
10530,set_tempo,,,,,10,1,0,,1960784,,,,,,,
10536,note_on,,,,,16,0,2,,,,,0,,,53,0
10540,note_on,,,,,4,0,2,,,,,0,,,51,32
10550,set_tempo,,,,,20,1,0,,1948051,,,,,,,
10556,note_on,,,,,16,0,2,,,,,0,,,51,0
10560,set_tempo,,,,,10,1,0,,1935483,,,,,,,
10560,control_change,,,,,0,0,1,,,,,0,64,96,,
10560,note_on,,,,,0,0,1,,,,,0,,,63,0
10560,note_on,,,,,0,0,1,,,,,0,,,43,0
10560,note_on,,,,,0,0,1,,,,,0,,,44,51
10560,note_on,,,,,0,0,1,,,,,0,,,63,47
10560,note_on,,,,,0,0,1,,,,,0,,,72,47
10560,note_on,,,,,60,0,1,,,,,0,,,70,0
10570,set_tempo,,,,,10,1,0,,1923076,,,,,,,
10580,note_on,,,,,24,0,2,,,,,0,,,51,32
10580,set_tempo,,,,,10,1,0,,1916932,,,,,,,
10590,set_tempo,,,,,10,1,0,,1910828,,,,,,,
10596,note_on,,,,,16,0,2,,,,,0,,,51,0
10600,set_tempo,,,,,10,1,0,,1892744,,,,,,,
10600,note_on,,,,,4,0,2,,,,,0,,,51,37
10610,set_tempo,,,,,10,1,0,,1886792,,,,,,,
10616,note_on,,,,,16,0,2,,,,,0,,,51,0
10620,set_tempo,,,,,10,1,0,,1875000,,,,,,,
10620,note_on,,,,,0,0,1,,,,,0,,,44,0
10620,note_on,,,,,60,0,1,,,,,0,,,72,0
10620,note_on,,,,,0,0,1,,,,,0,,,63,0
10620,note_on,,,,,0,0,1,,,,,0,,,60,34
10620,note_on,,,,,4,0,2,,,,,0,,,53,41
10620,note_on,,,,,0,0,1,,,,,0,,,72,34
10620,note_on,,,,,0,0,1,,,,,0,,,70,34
10620,note_on,,,,,0,0,1,,,,,0,,,43,42
10640,set_tempo,,,,,20,1,0,,1851851,,,,,,,
10640,note_on,,,,,20,0,2,,,,,0,,,53,0
10640,note_on,,,,,0,0,2,,,,,0,,,52,37
10650,set_tempo,,,,,10,1,0,,1846153,,,,,,,
10656,note_on,,,,,16,0,2,,,,,0,,,52,0
10660,set_tempo,,,,,10,1,0,,1840490,,,,,,,
10660,note_on,,,,,4,0,2,,,,,0,,,52,36
10670,set_tempo,,,,,10,1,0,,1829268,,,,,,,
10676,note_on,,,,,16,0,2,,,,,0,,,52,0
10680,note_on,,,,,0,0,1,,,,,0,,,70,0
10680,set_tempo,,,,,10,1,0,,1829268,,,,,,,
10680,note_on,,,,,0,0,1,,,,,0,,,68,36
10680,note_on,,,,,0,0,1,,,,,0,,,60,36
10680,note_on,,,,,0,0,1,,,,,0,,,41,47
10680,note_on,,,,,4,0,2,,,,,0,,,55,36
10680,note_on,,,,,0,0,1,,,,,0,,,60,0
10680,note_on,,,,,0,0,1,,,,,0,,,72,36
10680,note_on,,,,,60,0,1,,,,,0,,,72,0
10680,note_on,,,,,0,0,1,,,,,0,,,43,0
10700,note_on,,,,,0,0,2,,,,,0,,,53,41
10700,set_tempo,,,,,20,1,0,,1823708,,,,,,,
10700,note_on,,,,,20,0,2,,,,,0,,,55,0
10716,note_on,,,,,16,0,2,,,,,0,,,53,0
10720,note_on,,,,,4,0,2,,,,,0,,,53,41
10720,set_tempo,,,,,20,1,0,,1812688,,,,,,,
10730,set_tempo,,,,,10,1,0,,1807228,,,,,,,
10734,note_on,,,,,14,0,2,,,,,0,,,53,0
10740,note_on,,,,,0,0,1,,,,,0,,,65,43
10740,note_on,,,,,0,0,1,,,,,0,,,49,56
10740,note_on,,,,,0,0,1,,,,,0,,,73,43
10740,note_on,,,,,0,0,1,,,,,0,,,70,43
10740,note_on,,,,,6,0,2,,,,,0,,,57,41
10740,note_on,,,,,0,0,1,,,,,0,,,68,0
10740,note_on,,,,,0,0,1,,,,,0,,,60,0
10740,note_on,,,,,0,0,1,,,,,0,,,41,0
10740,note_on,,,,,60,0,1,,,,,0,,,72,0
10740,set_tempo,,,,,10,1,0,,1796407,,,,,,,
10760,note_on,,,,,20,0,2,,,,,0,,,57,0
10760,note_on,,,,,0,0,2,,,,,0,,,60,38
10776,note_on,,,,,16,0,2,,,,,0,,,60,0
10780,note_on,,,,,4,0,2,,,,,0,,,58,34
10796,note_on,,,,,16,0,2,,,,,0,,,58,0
10797,control_change,,,,,57,0,1,,,,,0,64,0,,
10800,note_on,,,,,3,0,1,,,,,0,,,73,0
10800,control_change,,,,,0,0,1,,,,,0,64,96,,
10800,note_on,,,,,0,0,1,,,,,0,,,72,49
10800,note_on,,,,,0,0,1,,,,,0,,,68,49
10800,note_on,,,,,0,0,1,,,,,0,,,63,49
10800,note_on,,,,,0,0,1,,,,,0,,,51,60
10800,note_on,,,,,0,0,1,,,,,0,,,70,0
10800,note_on,,,,,0,0,1,,,,,0,,,65,0
10800,note_on,,,,,0,0,1,,,,,0,,,49,0
10800,set_tempo,,,,,60,1,0,,1785714,,,,,,,
10810,set_tempo,,,,,10,1,0,,1780415,,,,,,,
10820,note_on,,,,,24,0,2,,,,,0,,,56,45
10836,note_on,,,,,16,0,2,,,,,0,,,56,0
10840,set_tempo,,,,,30,1,0,,1791044,,,,,,,
10840,note_on,,,,,4,0,2,,,,,0,,,55,37
10850,set_tempo,,,,,10,1,0,,1801801,,,,,,,
10860,set_tempo,,,,,10,1,0,,1823708,,,,,,,
10860,note_on,,,,,20,0,2,,,,,0,,,55,0
10860,note_on,,,,,0,0,2,,,,,0,,,56,33
10870,set_tempo,,,,,10,1,0,,1829268,,,,,,,
10880,note_on,,,,,0,0,2,,,,,0,,,60,33
10880,note_on,,,,,20,0,2,,,,,0,,,56,0
10880,set_tempo,,,,,10,1,0,,1840490,,,,,,,
10890,set_tempo,,,,,10,1,0,,1857585,,,,,,,
10896,note_on,,,,,16,0,2,,,,,0,,,60,0
10900,set_tempo,,,,,10,1,0,,1863354,,,,,,,
10900,note_on,,,,,4,0,2,,,,,0,,,61,38
10910,set_tempo,,,,,10,1,0,,1869158,,,,,,,
10916,note_on,,,,,16,0,2,,,,,0,,,61,0
10920,note_on,,,,,4,0,2,,,,,0,,,63,42
10920,note_on,,,,,0,0,1,,,,,0,,,63,0
10920,set_tempo,,,,,10,1,0,,1875000,,,,,,,
10920,note_on,,,,,0,0,1,,,,,0,,,70,32
10920,note_on,,,,,0,0,1,,,,,0,,,67,32
10920,note_on,,,,,0,0,1,,,,,0,,,63,32
10920,note_on,,,,,120,0,1,,,,,0,,,72,0
10920,note_on,,,,,0,0,1,,,,,0,,,68,0
10930,set_tempo,,,,,10,1,0,,1898734,,,,,,,
10935,note_on,,,,,15,0,2,,,,,0,,,63,0
10935,note_on,,,,,15,0,1,,,,,0,,,51,0
10940,note_on,,,,,5,0,2,,,,,0,,,51,43
10940,set_tempo,,,,,10,1,0,,1904761,,,,,,,
10950,set_tempo,,,,,10,1,0,,1916932,,,,,,,
10956,note_on,,,,,16,0,2,,,,,0,,,51,0
10960,note_on,,,,,4,0,2,,,,,0,,,50,43
10960,set_tempo,,,,,10,1,0,,1929260,,,,,,,
10965,control_change,,,,,30,0,1,,,,,0,64,0,,
10970,set_tempo,,,,,10,1,0,,1941747,,,,,,,
10980,set_tempo,,,,,10,1,0,,1954397,,,,,,,
10980,note_on,,,,,20,0,2,,,,,0,,,50,0
10980,note_on,,,,,0,0,2,,,,,0,,,51,40
10995,note_on,,,,,30,0,1,,,,,0,,,63,0
10995,note_on,,,,,0,0,1,,,,,0,,,67,0
10995,note_on,,,,,0,0,1,,,,,0,,,70,0
11000,note_on,,,,,20,0,2,,,,,0,,,51,0
11000,note_on,,,,,0,0,2,,,,,0,,,53,37
11010,note_on,,,,,15,0,1,,,,,0,,,71,43
11010,set_tempo,,,,,30,1,0,,1948051,,,,,,,
11016,note_on,,,,,16,0,2,,,,,0,,,53,0
11020,note_on,,,,,4,0,2,,,,,0,,,49,31
11020,set_tempo,,,,,10,1,0,,1929260,,,,,,,
11030,set_tempo,,,,,10,1,0,,1923076,,,,,,,
11036,note_on,,,,,16,0,2,,,,,0,,,49,0
11040,note_on,,,,,0,0,1,,,,,0,,,55,44
11040,set_tempo,,,,,10,1,0,,1916932,,,,,,,
11040,note_on,,,,,30,0,1,,,,,0,,,71,0
11040,control_change,,,,,0,0,1,,,,,0,64,96,,
11040,note_on,,,,,0,0,1,,,,,0,,,64,39
11040,note_on,,,,,0,0,1,,,,,0,,,72,39
11050,set_tempo,,,,,10,1,0,,1910828,,,,,,,
11060,note_on,,,,,24,0,2,,,,,0,,,48,35
11070,set_tempo,,,,,20,1,0,,1904761,,,,,,,
11076,note_on,,,,,16,0,2,,,,,0,,,48,0
11080,note_on,,,,,4,0,2,,,,,0,,,48,42
11096,note_on,,,,,16,0,2,,,,,0,,,48,0
11097,control_change,,,,,57,0,1,,,,,0,64,0,,
11100,set_tempo,,,,,30,1,0,,1898734,,,,,,,
11100,control_change,,,,,3,0,1,,,,,0,64,96,,
11100,note_on,,,,,4,0,2,,,,,0,,,47,42
11110,set_tempo,,,,,10,1,0,,1892744,,,,,,,
11120,note_on,,,,,0,0,2,,,,,0,,,48,41
11120,note_on,,,,,20,0,2,,,,,0,,,47,0
11136,note_on,,,,,16,0,2,,,,,0,,,48,0
11140,note_on,,,,,4,0,2,,,,,0,,,48,34
11140,set_tempo,,,,,30,1,0,,1886792,,,,,,,
11156,note_on,,,,,16,0,2,,,,,0,,,48,0
11157,control_change,,,,,57,0,1,,,,,0,64,0,,
11160,note_on,,,,,0,0,1,,,,,0,,,56,39
11160,control_change,,,,,0,0,1,,,,,0,64,95,,
11160,note_on,,,,,3,0,1,,,,,0,,,55,0
11160,note_on,,,,,0,0,1,,,,,0,,,72,0
11160,note_on,,,,,0,0,1,,,,,0,,,64,0
11160,note_on,,,,,0,0,1,,,,,0,,,65,37
11160,note_on,,,,,0,0,1,,,,,0,,,68,37
11170,set_tempo,,,,,30,1,0,,1875000,,,,,,,
11180,note_on,,,,,24,0,2,,,,,0,,,41,34
11196,note_on,,,,,16,0,2,,,,,0,,,41,0
11200,note_on,,,,,4,0,2,,,,,0,,,40,36
11210,set_tempo,,,,,40,1,0,,1869158,,,,,,,
11216,note_on,,,,,16,0,2,,,,,0,,,40,0
11217,control_change,,,,,57,0,1,,,,,0,64,0,,
11220,control_change,,,,,3,0,1,,,,,0,64,96,,
11220,note_on,,,,,4,0,2,,,,,0,,,41,39
11230,set_tempo,,,,,20,1,0,,1863354,,,,,,,
11240,note_on,,,,,20,0,2,,,,,0,,,41,0
11240,note_on,,,,,0,0,2,,,,,0,,,43,40
11250,note_on,,,,,0,0,1,,,,,0,,,67,33
11250,note_on,,,,,0,0,1,,,,,0,,,63,33
11250,note_on,,,,,0,0,1,,,,,0,,,65,0
11250,note_on,,,,,30,0,1,,,,,0,,,68,0
11256,note_on,,,,,16,0,2,,,,,0,,,43,0
11260,note_on,,,,,4,0,2,,,,,0,,,44,41
11265,control_change,,,,,15,0,1,,,,,0,64,0,,
11270,set_tempo,,,,,40,1,0,,1857585,,,,,,,
11276,note_on,,,,,16,0,2,,,,,0,,,44,0
11280,note_on,,,,,0,0,1,,,,,0,,,67,41
11280,note_on,,,,,0,0,1,,,,,0,,,63,41
11280,note_on,,,,,0,0,1,,,,,0,,,56,54
11280,note_on,,,,,0,0,1,,,,,0,,,56,0
11280,note_on,,,,,0,0,1,,,,,0,,,63,0
11280,note_on,,,,,15,0,1,,,,,0,,,67,0
11280,note_on,,,,,4,0,2,,,,,0,,,48,41
11299,note_on,,,,,19,0,2,,,,,0,,,48,0
11300,set_tempo,,,,,30,1,0,,1851851,,,,,,,
11300,note_on,,,,,1,0,2,,,,,0,,,46,38
11319,note_on,,,,,19,0,2,,,,,0,,,46,0
11320,note_on,,,,,1,0,2,,,,,0,,,45,37
11339,note_on,,,,,19,0,2,,,,,0,,,45,0
11340,note_on,,,,,0,0,1,,,,,0,,,63,0
11340,note_on,,,,,1,0,2,,,,,0,,,46,35
11340,note_on,,,,,0,0,1,,,,,0,,,65,36
11340,note_on,,,,,0,0,1,,,,,0,,,62,36
11340,note_on,,,,,60,0,1,,,,,0,,,67,0
11359,note_on,,,,,19,0,2,,,,,0,,,46,0
11360,set_tempo,,,,,60,1,0,,1846153,,,,,,,
11360,note_on,,,,,1,0,2,,,,,0,,,48,32
11379,note_on,,,,,19,0,2,,,,,0,,,48,0
11380,note_on,,,,,1,0,2,,,,,0,,,45,29
11385,note_on,,,,,45,0,1,,,,,0,,,56,0
11390,set_tempo,,,,,30,1,0,,1840490,,,,,,,
11399,note_on,,,,,19,0,2,,,,,0,,,45,0
11400,note_on,,,,,15,0,1,,,,,0,,,46,38
11420,note_on,,,,,21,0,2,,,,,0,,,56,37
11420,set_tempo,,,,,30,1,0,,1834862,,,,,,,
11439,note_on,,,,,19,0,2,,,,,0,,,56,0
11440,note_on,,,,,1,0,2,,,,,0,,,58,41
11440,set_tempo,,,,,20,1,0,,1829268,,,,,,,
11445,note_on,,,,,0,0,1,,,,,0,,,65,0
11445,note_on,,,,,45,0,1,,,,,0,,,62,0
11459,note_on,,,,,19,0,2,,,,,0,,,58,0
11460,set_tempo,,,,,20,1,0,,1823708,,,,,,,
11460,note_on,,,,,15,0,1,,,,,0,,,62,35
11460,note_on,,,,,0,0,1,,,,,0,,,65,35
11460,note_on,,,,,1,0,2,,,,,0,,,59,42
11479,note_on,,,,,19,0,2,,,,,0,,,59,0
11480,note_on,,,,,1,0,2,,,,,0,,,60,37
11499,note_on,,,,,19,0,2,,,,,0,,,60,0
11500,note_on,,,,,1,0,2,,,,,0,,,56,33
11500,set_tempo,,,,,40,1,0,,1818181,,,,,,,
11519,note_on,,,,,19,0,2,,,,,0,,,56,0
11520,control_change,,,,,0,0,1,,,,,0,64,95,,
11520,note_on,,,,,60,0,1,,,,,0,,,65,0
11520,note_on,,,,,0,0,1,,,,,0,,,62,0
11520,note_on,,,,,0,0,1,,,,,0,,,46,0
11520,note_on,,,,,0,0,1,,,,,0,,,67,43
11520,note_on,,,,,0,0,1,,,,,0,,,63,43
11520,note_on,,,,,0,0,1,,,,,0,,,46,45
11530,set_tempo,,,,,30,1,0,,1812688,,,,,,,
11540,note_on,,,,,21,0,2,,,,,0,,,55,41
11560,note_on,,,,,20,0,2,,,,,0,,,55,0
11560,note_on,,,,,0,0,2,,,,,0,,,58,30
11570,set_tempo,,,,,40,1,0,,1807228,,,,,,,
11575,note_on,,,,,15,0,2,,,,,0,,,58,0
11575,control_change,,,,,55,0,1,,,,,0,64,0,,
11580,note_on,,,,,0,0,1,,,,,0,,,46,47
11580,note_on,,,,,0,0,1,,,,,0,,,63,47
11580,note_on,,,,,0,0,1,,,,,0,,,68,47
11580,note_on,,,,,0,0,1,,,,,0,,,67,0
11580,note_on,,,,,0,0,1,,,,,0,,,63,0
11580,control_change,,,,,0,0,1,,,,,0,64,96,,
11580,note_on,,,,,5,0,1,,,,,0,,,46,0
11600,note_on,,,,,25,0,2,,,,,0,,,60,47
11620,set_tempo,,,,,50,1,0,,1801801,,,,,,,
11620,note_on,,,,,0,0,2,,,,,0,,,56,37
11620,note_on,,,,,20,0,2,,,,,0,,,60,0
11625,note_on,,,,,0,0,1,,,,,0,,,72,53
11625,note_on,,,,,45,0,1,,,,,0,,,68,0
11635,note_on,,,,,15,0,2,,,,,0,,,56,0
11635,control_change,,,,,10,0,1,,,,,0,64,0,,
11640,note_on,,,,,5,0,1,,,,,0,,,72,0
11640,note_on,,,,,0,0,1,,,,,0,,,46,0
11640,note_on,,,,,0,0,1,,,,,0,,,63,0
11640,note_on,,,,,0,0,1,,,,,0,,,70,53
11640,note_on,,,,,0,0,1,,,,,0,,,63,53
11640,note_on,,,,,0,0,1,,,,,0,,,46,52
11640,control_change,,,,,0,0,1,,,,,0,64,96,,
11660,note_on,,,,,25,0,2,,,,,0,,,56,44
11680,note_on,,,,,20,0,2,,,,,0,,,56,0
11680,note_on,,,,,0,0,2,,,,,0,,,55,35
11695,control_change,,,,,55,0,1,,,,,0,64,0,,
11695,note_on,,,,,15,0,2,,,,,0,,,55,0
11700,note_on,,,,,0,0,1,,,,,0,,,74,44
11700,note_on,,,,,0,0,1,,,,,0,,,68,44
11700,control_change,,,,,0,0,1,,,,,0,64,96,,
11700,note_on,,,,,0,0,1,,,,,0,,,46,40
11700,note_on,,,,,0,0,1,,,,,0,,,70,0
11700,note_on,,,,,5,0,1,,,,,0,,,46,0
11700,note_on,,,,,0,0,1,,,,,0,,,63,0
11720,note_on,,,,,25,0,2,,,,,0,,,56,37
11740,set_tempo,,,,,120,1,0,,1807228,,,,,,,
11740,note_on,,,,,20,0,2,,,,,0,,,56,0
11740,note_on,,,,,0,0,2,,,,,0,,,50,29
11745,note_on,,,,,0,0,1,,,,,0,,,77,34
11745,note_on,,,,,45,0,1,,,,,0,,,74,0
11750,set_tempo,,,,,10,1,0,,1812688,,,,,,,
11755,note_on,,,,,15,0,2,,,,,0,,,50,0
11757,control_change,,,,,12,0,1,,,,,0,64,0,,
11760,note_on,,,,,3,0,1,,,,,0,,,77,0
11760,note_on,,,,,0,0,1,,,,,0,,,46,0
11760,note_on,,,,,0,0,1,,,,,0,,,68,0
11760,note_on,,,,,0,0,1,,,,,0,,,67,33
11760,note_on,,,,,0,0,1,,,,,0,,,39,32
11760,control_change,,,,,0,0,1,,,,,0,64,95,,
11760,note_on,,,,,0,0,1,,,,,0,,,75,33
11770,set_tempo,,,,,20,1,0,,1829268,,,,,,,
11780,set_tempo,,,,,10,1,0,,1846153,,,,,,,
11780,note_on,,,,,25,0,2,,,,,0,,,51,38
11790,set_tempo,,,,,10,1,0,,1851851,,,,,,,
11800,set_tempo,,,,,10,1,0,,1863354,,,,,,,
11800,note_on,,,,,20,0,2,,,,,0,,,51,0
11800,note_on,,,,,0,0,2,,,,,0,,,55,33
11810,set_tempo,,,,,10,1,0,,1875000,,,,,,,
11820,note_on,,,,,0,0,2,,,,,0,,,58,33
11820,note_on,,,,,20,0,2,,,,,0,,,55,0
11820,set_tempo,,,,,10,1,0,,1904761,,,,,,,
11830,set_tempo,,,,,10,1,0,,1910828,,,,,,,
11840,note_on,,,,,20,0,2,,,,,0,,,58,0
11840,set_tempo,,,,,10,1,0,,1916932,,,,,,,
11840,note_on,,,,,0,0,2,,,,,0,,,60,37
11850,set_tempo,,,,,10,1,0,,1929260,,,,,,,
11850,note_on,,,,,90,0,1,,,,,0,,,75,0
11860,note_on,,,,,20,0,2,,,,,0,,,60,0
11860,note_on,,,,,0,0,2,,,,,0,,,62,43
11860,set_tempo,,,,,10,1,0,,1948051,,,,,,,
11865,note_on,,,,,15,0,1,,,,,0,,,74,35
11870,set_tempo,,,,,10,1,0,,1948051,,,,,,,
11877,control_change,,,,,12,0,1,,,,,0,64,0,,
11880,note_on,,,,,0,0,1,,,,,0,,,67,36
11880,note_on,,,,,0,0,1,,,,,0,,,67,0
11880,note_on,,,,,0,0,1,,,,,0,,,39,0
11880,note_on,,,,,0,0,2,,,,,0,,,63,44
11880,set_tempo,,,,,10,1,0,,1973684,,,,,,,
11880,note_on,,,,,0,0,1,,,,,0,,,73,36
11880,note_on,,,,,20,0,2,,,,,0,,,62,0
11880,note_on,,,,,3,0,1,,,,,0,,,74,0
11880,control_change,,,,,0,0,1,,,,,0,64,95,,
11890,set_tempo,,,,,10,1,0,,1993355,,,,,,,
11895,set_tempo,,,,,5,1,0,,2000000,,,,,,,
11905,set_tempo,,,,,10,1,0,,2076124,,,,,,,
11910,set_tempo,,,,,5,1,0,,2135231,,,,,,,
11915,set_tempo,,,,,5,1,0,,2173913,,,,,,,
11925,set_tempo,,,,,10,1,0,,2238805,,,,,,,
11930,set_tempo,,,,,5,1,0,,2343750,,,,,,,
11935,set_tempo,,,,,5,1,0,,2448979,,,,,,,
11940,note_on,,,,,60,0,1,,,,,0,,,73,0
11940,note_on,,,,,0,0,1,,,,,0,,,72,32
11940,set_tempo,,,,,5,1,0,,2459016,,,,,,,
11945,set_tempo,,,,,5,1,0,,2714932,,,,,,,
11950,set_tempo,,,,,5,1,0,,2843601,,,,,,,
11955,set_tempo,,,,,5,1,0,,2857142,,,,,,,
11960,set_tempo,,,,,5,1,0,,2870813,,,,,,,
11965,set_tempo,,,,,5,1,0,,2941176,,,,,,,
11970,note_on,,,,,0,0,2,,,,,0,,,61,32
11970,note_on,,,,,30,0,1,,,,,0,,,72,0
11970,set_tempo,,,,,5,1,0,,3092783,,,,,,,
11970,note_on,,,,,0,0,1,,,,,0,,,70,31
11970,note_on,,,,,90,0,2,,,,,0,,,63,0
11975,set_tempo,,,,,5,1,0,,3191489,,,,,,,
11985,set_tempo,,,,,10,1,0,,3260869,,,,,,,
11990,note_on,,,,,0,0,1,,,,,0,,,67,0
11990,note_on,,,,,20,0,1,,,,,0,,,70,0
11990,set_tempo,,,,,5,1,0,,6000000,,,,,,,
11990,note_on,,,,,20,0,2,,,,,0,,,61,0
11997,control_change,,,,,7,0,1,,,,,0,64,0,,
12000,control_change,,,,,0,0,1,,,,,0,91,96,,
12000,control_change,,,,,0,0,1,,,,,0,64,95,,
12000,note_on,,,,,0,0,1,,,,,0,,,80,29
12000,note_on,,,,,0,0,1,,,,,0,,,75,29
12000,note_on,,,,,3,0,1,,,,,0,,,68,31
12000,note_on,,,,,0,0,2,,,,,0,,,60,31
12000,note_on,,,,,10,0,2,,,,,0,,,56,31
12000,set_tempo,,,,,10,1,0,,1875000,,,,,,,
12000,note_on,,,,,0,0,2,,,,,0,,,63,31
12105,note_on,,,,,0,0,1,,,,,0,,,68,0
12105,note_on,,,,,0,0,2,,,,,0,,,56,0
12105,note_on,,,,,105,0,1,,,,,0,,,80,0
12105,note_on,,,,,0,0,1,,,,,0,,,75,0
12105,note_on,,,,,105,0,2,,,,,0,,,63,0
12105,note_on,,,,,0,0,2,,,,,0,,,60,0
12117,control_change,,,,,12,0,1,,,,,0,64,0,,
12120,note_on,,,,,3,0,1,,,,,0,,,68,32
12120,note_on,,,,,15,0,2,,,,,0,,,63,33
12120,note_on,,,,,0,0,2,,,,,0,,,61,33
12120,control_change,,,,,0,0,1,,,,,0,64,95,,
12120,note_on,,,,,0,0,1,,,,,0,,,80,32
12120,note_on,,,,,0,0,1,,,,,0,,,75,32
12120,note_on,,,,,0,0,2,,,,,0,,,58,33
12150,note_on,,,,,0,0,1,,,,,0,,,79,27
12150,note_on,,,,,0,0,1,,,,,0,,,67,27
12150,note_on,,,,,0,0,1,,,,,0,,,68,0
12150,note_on,,,,,30,0,1,,,,,0,,,80,0
12180,note_on,,,,,0,0,1,,,,,0,,,82,34
12180,note_on,,,,,0,0,1,,,,,0,,,70,34
12180,note_on,,,,,30,0,1,,,,,0,,,79,0
12180,note_on,,,,,0,0,1,,,,,0,,,67,0
12210,note_on,,,,,0,0,1,,,,,0,,,79,27
12210,note_on,,,,,30,0,1,,,,,0,,,82,0
12210,note_on,,,,,0,0,1,,,,,0,,,70,0
12210,note_on,,,,,0,0,1,,,,,0,,,67,27
12237,control_change,,,,,27,0,1,,,,,0,64,0,,
12240,note_on,,,,,120,0,2,,,,,0,,,58,0
12240,note_on,,,,,0,0,2,,,,,0,,,63,0
12240,note_on,,,,,0,0,2,,,,,0,,,60,35
12240,note_on,,,,,0,0,2,,,,,0,,,61,0
12240,note_on,,,,,0,0,1,,,,,0,,,75,35
12240,note_on,,,,,0,0,1,,,,,0,,,80,35
12240,note_on,,,,,0,0,1,,,,,0,,,68,35
12240,note_on,,,,,0,0,1,,,,,0,,,63,35
12240,note_on,,,,,0,0,1,,,,,0,,,75,0
12240,note_on,,,,,0,0,1,,,,,0,,,67,0
12240,note_on,,,,,3,0,1,,,,,0,,,79,0
12240,control_change,,,,,0,0,1,,,,,0,64,95,,
12330,note_on,,,,,0,0,1,,,,,0,,,75,26
12330,note_on,,,,,90,0,2,,,,,0,,,60,0
12330,note_on,,,,,0,0,2,,,,,0,,,61,31
12330,control_change,,,,,0,0,1,,,,,0,64,0,,
12330,note_on,,,,,90,0,1,,,,,0,,,75,0
12337,note_on,,,,,7,0,1,,,,,0,,,75,0
12338,note_on,,,,,1,0,1,,,,,0,,,77,26
12345,note_on,,,,,0,0,1,,,,,0,,,79,26
12345,note_on,,,,,7,0,1,,,,,0,,,77,0
12352,note_on,,,,,0,0,1,,,,,0,,,77,27
12352,note_on,,,,,7,0,1,,,,,0,,,79,0
12359,note_on,,,,,7,0,1,,,,,0,,,77,0
12360,note_on,,,,,1,0,1,,,,,0,,,75,28
12360,note_on,,,,,0,0,2,,,,,0,,,60,31
12360,note_on,,,,,30,0,2,,,,,0,,,61,0
12412,note_on,,,,,52,0,2,,,,,0,,,60,0
12412,note_on,,,,,0,0,1,,,,,0,,,80,0
12412,note_on,,,,,52,0,1,,,,,0,,,75,0
12412,note_on,,,,,0,0,1,,,,,0,,,63,0
12412,note_on,,,,,0,0,1,,,,,0,,,68,0
12420,note_on,,,,,8,0,1,,,,,0,,,70,32
12420,note_on,,,,,0,0,2,,,,,0,,,63,31
12420,note_on,,,,,0,0,1,,,,,0,,,82,32
12420,note_on,,,,,8,0,2,,,,,0,,,55,31
12420,note_on,,,,,0,0,2,,,,,0,,,58,31
12420,note_on,,,,,0,0,1,,,,,0,,,75,32
12470,set_tempo,,,,,470,1,0,,1875000,,,,,,,
12480,note_on,,,,,0,0,2,,,,,0,,,55,0
12480,note_on,,,,,0,0,2,,,,,0,,,56,36
12480,note_on,,,,,0,0,2,,,,,0,,,58,0
12480,note_on,,,,,60,0,2,,,,,0,,,63,0
12480,set_tempo,,,,,10,1,0,,1880877,,,,,,,
12480,note_on,,,,,0,0,2,,,,,0,,,60,36
12480,note_on,,,,,0,0,2,,,,,0,,,63,36
12480,control_change,,,,,0,0,1,,,,,0,64,96,,
12480,note_on,,,,,0,0,1,,,,,0,,,84,38
12480,note_on,,,,,0,0,1,,,,,0,,,75,38
12480,note_on,,,,,0,0,1,,,,,0,,,72,38
12480,note_on,,,,,0,0,1,,,,,0,,,70,0
12480,note_on,,,,,60,0,1,,,,,0,,,82,0
12480,note_on,,,,,0,0,1,,,,,0,,,75,0
12490,set_tempo,,,,,10,1,0,,1886792,,,,,,,
12500,set_tempo,,,,,10,1,0,,1892744,,,,,,,
12510,set_tempo,,,,,10,1,0,,1898734,,,,,,,
12515,set_tempo,,,,,5,1,0,,1910828,,,,,,,
12520,set_tempo,,,,,5,1,0,,1916932,,,,,,,
12525,set_tempo,,,,,5,1,0,,1923076,,,,,,,
12535,set_tempo,,,,,10,1,0,,1935483,,,,,,,
12540,note_on,,,,,0,0,2,,,,,0,,,55,46
12540,note_on,,,,,0,0,2,,,,,0,,,56,0
12540,note_on,,,,,0,0,2,,,,,0,,,60,0
12540,note_on,,,,,60,0,2,,,,,0,,,63,0
12540,note_on,,,,,0,0,2,,,,,0,,,60,46
12540,note_on,,,,,0,0,2,,,,,0,,,64,46
12540,note_on,,,,,0,0,1,,,,,0,,,72,0
12540,note_on,,,,,0,0,1,,,,,0,,,84,51
12540,set_tempo,,,,,5,1,0,,1941747,,,,,,,
12540,note_on,,,,,0,0,1,,,,,0,,,82,51
12540,note_on,,,,,0,0,1,,,,,0,,,72,51
12540,note_on,,,,,60,0,1,,,,,0,,,84,0
12540,note_on,,,,,0,0,1,,,,,0,,,75,0
12540,note_on,,,,,0,0,1,,,,,0,,,76,51
12570,set_tempo,,,,,30,1,0,,1960784,,,,,,,
12580,set_tempo,,,,,10,1,0,,1967213,,,,,,,
12585,set_tempo,,,,,5,1,0,,1973684,,,,,,,
12590,set_tempo,,,,,5,1,0,,1986754,,,,,,,
12600,note_on,,,,,60,0,2,,,,,0,,,64,0
12600,note_on,,,,,0,0,2,,,,,0,,,60,0
12600,note_on,,,,,0,0,1,,,,,0,,,84,60
12600,note_on,,,,,0,0,2,,,,,0,,,53,56
12600,note_on,,,,,0,0,2,,,,,0,,,60,56
12600,note_on,,,,,0,0,2,,,,,0,,,65,56
12600,note_on,,,,,60,0,1,,,,,0,,,84,0
12600,note_on,,,,,0,0,1,,,,,0,,,76,0
12600,note_on,,,,,0,0,1,,,,,0,,,72,0
12600,note_on,,,,,0,0,1,,,,,0,,,82,0
12600,note_on,,,,,0,0,1,,,,,0,,,77,60
12600,note_on,,,,,0,0,1,,,,,0,,,72,60
12600,note_on,,,,,0,0,1,,,,,0,,,80,60
12600,note_on,,,,,0,0,2,,,,,0,,,55,0
12620,set_tempo,,,,,30,1,0,,1993355,,,,,,,
12625,set_tempo,,,,,5,1,0,,2006688,,,,,,,
12635,set_tempo,,,,,10,1,0,,2020202,,,,,,,
12645,set_tempo,,,,,10,1,0,,2061855,,,,,,,
12650,set_tempo,,,,,5,1,0,,2068965,,,,,,,
12660,note_on,,,,,0,0,1,,,,,0,,,72,0
12660,note_on,,,,,0,0,1,,,,,0,,,80,0
12660,note_on,,,,,0,0,1,,,,,0,,,72,70
12660,note_on,,,,,0,0,1,,,,,0,,,78,70
12660,note_on,,,,,0,0,1,,,,,0,,,80,70
12660,note_on,,,,,0,0,1,,,,,0,,,84,70
12660,note_on,,,,,60,0,1,,,,,0,,,84,0
12660,note_on,,,,,0,0,1,,,,,0,,,77,0
12660,set_tempo,,,,,10,1,0,,2083333,,,,,,,
12660,note_on,,,,,60,0,2,,,,,0,,,65,0
12660,note_on,,,,,0,0,2,,,,,0,,,60,0
12660,note_on,,,,,0,0,2,,,,,0,,,53,0
12660,note_on,,,,,0,0,2,,,,,0,,,51,60
12660,note_on,,,,,0,0,2,,,,,0,,,56,60
12660,note_on,,,,,0,0,2,,,,,0,,,63,60
12665,set_tempo,,,,,5,1,0,,2097902,,,,,,,
12670,set_tempo,,,,,5,1,0,,2112676,,,,,,,
12680,set_tempo,,,,,10,1,0,,2127659,,,,,,,
12685,set_tempo,,,,,5,1,0,,2173913,,,,,,,
12690,set_tempo,,,,,5,1,0,,2181818,,,,,,,
12700,set_tempo,,,,,10,1,0,,2197802,,,,,,,
12705,set_tempo,,,,,5,1,0,,2214022,,,,,,,
12715,set_tempo,,,,,10,1,0,,2264150,,,,,,,
12717,control_change,,,,,57,0,1,,,,,0,64,0,,
12720,note_on,,,,,3,0,1,,,,,0,,,84,0
12720,set_tempo,,,,,5,1,0,,2281368,,,,,,,
12720,note_on,,,,,0,0,1,,,,,0,,,78,0
12720,note_on,,,,,0,0,1,,,,,0,,,80,0
12720,note_on,,,,,0,0,1,,,,,0,,,72,0
12720,note_on,,,,,0,0,1,,,,,0,,,77,78
12720,note_on,,,,,0,0,2,,,,,0,,,61,77
12720,note_on,,,,,0,0,2,,,,,0,,,56,77
12720,note_on,,,,,0,0,2,,,,,0,,,49,77
12720,note_on,,,,,0,0,2,,,,,0,,,51,0
12720,note_on,,,,,0,0,1,,,,,0,,,85,78
12720,control_change,,,,,0,0,1,,,,,0,64,95,,
12720,note_on,,,,,0,0,2,,,,,0,,,56,0
12720,note_on,,,,,60,0,2,,,,,0,,,63,0
12720,note_on,,,,,0,0,1,,,,,0,,,73,78
12720,note_on,,,,,0,0,1,,,,,0,,,80,78
12725,set_tempo,,,,,5,1,0,,2298850,,,,,,,
12730,set_tempo,,,,,5,1,0,,2316602,,,,,,,
12740,set_tempo,,,,,10,1,0,,2371541,,,,,,,
12745,set_tempo,,,,,5,1,0,,2390438,,,,,,,
12750,set_tempo,,,,,5,1,0,,2448979,,,,,,,
12760,set_tempo,,,,,10,1,0,,2510460,,,,,,,
12765,set_tempo,,,,,5,1,0,,2542372,,,,,,,
12770,set_tempo,,,,,5,1,0,,3658536,,,,,,,
12777,control_change,,,,,57,0,1,,,,,0,64,0,,
12780,note_on,,,,,0,0,2,,,,,0,,,42,69
12780,note_on,,,,,0,0,2,,,,,0,,,56,0
12780,note_on,,,,,60,0,2,,,,,0,,,61,0
12780,control_change,,,,,0,0,1,,,,,0,64,95,,
12780,note_on,,,,,0,0,2,,,,,0,,,49,69
12780,note_on,,,,,0,0,1,,,,,0,,,85,64
12780,note_on,,,,,0,0,1,,,,,0,,,81,64
12780,note_on,,,,,0,0,1,,,,,0,,,78,64
12780,note_on,,,,,0,0,1,,,,,0,,,73,64
12780,note_on,,,,,0,0,1,,,,,0,,,80,0
12780,note_on,,,,,0,0,1,,,,,0,,,77,0
12780,note_on,,,,,0,0,1,,,,,0,,,73,0
12780,note_on,,,,,3,0,1,,,,,0,,,85,0
12780,note_on,,,,,0,0,2,,,,,0,,,54,69
12780,note_on,,,,,0,0,2,,,,,0,,,49,0
12785,set_tempo,,,,,15,1,0,,2727272,,,,,,,
12790,set_tempo,,,,,5,1,0,,2816901,,,,,,,
12800,set_tempo,,,,,10,1,0,,2898550,,,,,,,
12805,set_tempo,,,,,5,1,0,,2970297,,,,,,,
12815,set_tempo,,,,,10,1,0,,3000000,,,,,,,
12820,set_tempo,,,,,5,1,0,,3030303,,,,,,,
12825,set_tempo,,,,,5,1,0,,3092783,,,,,,,
12830,set_tempo,,,,,5,1,0,,3108808,,,,,,,
12835,set_tempo,,,,,5,1,0,,3141361,,,,,,,
12837,control_change,,,,,57,0,1,,,,,0,64,0,,
12840,note_on,,,,,0,0,1,,,,,0,,,77,56
12840,note_on,,,,,0,0,1,,,,,0,,,85,56
12840,set_tempo,,,,,5,1,0,,6000000,,,,,,,
12840,note_on,,,,,3,0,1,,,,,0,,,85,0
12840,note_on,,,,,0,0,1,,,,,0,,,73,0
12840,note_on,,,,,0,0,1,,,,,0,,,78,0
12840,note_on,,,,,0,0,1,,,,,0,,,81,0
12840,note_on,,,,,60,0,2,,,,,0,,,54,0
12840,note_on,,,,,0,0,2,,,,,0,,,49,0
12840,note_on,,,,,0,0,2,,,,,0,,,42,0
12840,note_on,,,,,0,0,2,,,,,0,,,49,49
12840,note_on,,,,,0,0,2,,,,,0,,,56,49
12840,note_on,,,,,0,0,2,,,,,0,,,61,49
12840,note_on,,,,,0,0,1,,,,,0,,,73,56
12840,note_on,,,,,0,0,1,,,,,0,,,80,56
12870,note_on,,,,,0,0,2,,,,,0,,,49,0
12870,set_tempo,,,,,30,1,0,,3488372,,,,,,,
12870,note_on,,,,,0,0,2,,,,,0,,,56,0
12870,note_on,,,,,30,0,2,,,,,0,,,61,0
12870,note_on,,,,,0,0,1,,,,,0,,,80,0
12870,note_on,,,,,0,0,1,,,,,0,,,77,0
12870,note_on,,,,,0,0,1,,,,,0,,,73,0
12870,note_on,,,,,30,0,1,,,,,0,,,85,0
12895,set_tempo,,,,,25,1,0,,1764705,,,,,,,
12900,note_on,,,,,30,0,2,,,,,0,,,42,35
12900,note_on,,,,,0,0,1,,,,,0,,,57,36
12900,note_on,,,,,0,0,1,,,,,0,,,54,36
12900,note_on,,,,,30,0,1,,,,,0,,,61,36
12901,set_tempo,,,,,6,1,0,,2083333,,,,,,,
12906,set_tempo,,,,,5,1,0,,2097902,,,,,,,
12911,set_tempo,,,,,5,1,0,,2112676,,,,,,,
12921,set_tempo,,,,,10,1,0,,2127659,,,,,,,
12926,set_tempo,,,,,5,1,0,,2173913,,,,,,,
12931,set_tempo,,,,,5,1,0,,2181818,,,,,,,
12941,set_tempo,,,,,10,1,0,,2197802,,,,,,,
12945,note_on,,,,,45,0,2,,,,,0,,,42,0
12945,note_on,,,,,0,0,2,,,,,0,,,40,40
12946,set_tempo,,,,,5,1,0,,2214022,,,,,,,
12956,set_tempo,,,,,10,1,0,,2264150,,,,,,,
12957,control_change,,,,,57,0,1,,,,,0,64,0,,
12960,note_on,,,,,3,0,1,,,,,0,,,57,0
12960,note_on,,,,,0,0,1,,,,,0,,,61,0
12960,note_on,,,,,0,0,1,,,,,0,,,54,42
12960,note_on,,,,,0,0,1,,,,,0,,,62,42
12960,note_on,,,,,0,0,1,,,,,0,,,57,42
12960,control_change,,,,,0,0,1,,,,,0,64,95,,
12960,note_on,,,,,0,0,1,,,,,0,,,54,0
12960,note_on,,,,,15,0,2,,,,,0,,,40,0
12960,note_on,,,,,0,0,2,,,,,0,,,38,44
12961,set_tempo,,,,,5,1,0,,2281368,,,,,,,
12966,set_tempo,,,,,5,1,0,,2298850,,,,,,,
12971,set_tempo,,,,,5,1,0,,2316602,,,,,,,
12981,set_tempo,,,,,10,1,0,,2371541,,,,,,,
12986,set_tempo,,,,,5,1,0,,2390438,,,,,,,
12991,set_tempo,,,,,5,1,0,,2448979,,,,,,,
13001,set_tempo,,,,,10,1,0,,2510460,,,,,,,
13006,set_tempo,,,,,5,1,0,,2542372,,,,,,,
13011,set_tempo,,,,,5,1,0,,3658536,,,,,,,
13017,control_change,,,,,57,0,1,,,,,0,64,0,,
13020,note_on,,,,,3,0,1,,,,,0,,,62,0
13020,note_on,,,,,0,0,1,,,,,0,,,57,0
13020,note_on,,,,,0,0,1,,,,,0,,,54,0
13020,note_on,,,,,0,0,1,,,,,0,,,55,36
13020,note_on,,,,,0,0,1,,,,,0,,,58,36
13020,note_on,,,,,0,0,1,,,,,0,,,62,36
13020,note_on,,,,,60,0,2,,,,,0,,,38,0
13020,note_on,,,,,0,0,2,,,,,0,,,31,38
13020,control_change,,,,,0,0,1,,,,,0,64,95,,
13026,set_tempo,,,,,15,1,0,,2727272,,,,,,,
13031,set_tempo,,,,,5,1,0,,2816901,,,,,,,
13041,set_tempo,,,,,10,1,0,,2898550,,,,,,,
13046,set_tempo,,,,,5,1,0,,2970297,,,,,,,
13056,set_tempo,,,,,10,1,0,,3000000,,,,,,,
13061,set_tempo,,,,,5,1,0,,3030303,,,,,,,
13066,set_tempo,,,,,5,1,0,,3092783,,,,,,,
13071,set_tempo,,,,,5,1,0,,3108808,,,,,,,
13076,set_tempo,,,,,5,1,0,,3141361,,,,,,,
13077,control_change,,,,,57,0,1,,,,,0,64,0,,
13080,note_on,,,,,0,0,2,,,,,0,,,38,30
13080,note_on,,,,,60,0,2,,,,,0,,,31,0
13080,note_on,,,,,0,0,1,,,,,0,,,62,31
13080,note_on,,,,,0,0,1,,,,,0,,,57,31
13080,note_on,,,,,0,0,1,,,,,0,,,54,31
13080,note_on,,,,,0,0,1,,,,,0,,,55,0
13080,note_on,,,,,0,0,1,,,,,0,,,58,0
13080,note_on,,,,,3,0,1,,,,,0,,,62,0
13081,set_tempo,,,,,5,1,0,,6000000,,,,,,,
13110,note_on,,,,,0,0,1,,,,,0,,,57,0
13110,note_on,,,,,30,0,2,,,,,0,,,38,0
13110,note_on,,,,,0,0,1,,,,,0,,,54,0
13110,note_on,,,,,30,0,1,,,,,0,,,62,0
13111,set_tempo,,,,,30,1,0,,3488372,,,,,,,
13136,set_tempo,,,,,25,1,0,,1764705,,,,,,,
13140,note_on,,,,,0,0,1,,,,,0,,,69,34
13140,note_on,,,,,30,0,1,,,,,0,,,64,34
13140,note_on,,,,,0,0,1,,,,,0,,,73,34
13140,note_on,,,,,30,0,2,,,,,0,,,45,29
13146,set_tempo,,,,,10,1,0,,1759530,,,,,,,
13191,set_tempo,,,,,45,1,0,,1775147,,,,,,,
13200,note_on,,,,,0,0,1,,,,,0,,,64,0
13200,note_on,,,,,0,0,1,,,,,0,,,68,36
13200,note_on,,,,,0,0,2,,,,,0,,,52,33
13200,note_on,,,,,60,0,1,,,,,0,,,73,0
13200,note_on,,,,,60,0,2,,,,,0,,,45,0
13200,note_on,,,,,0,0,1,,,,,0,,,69,0
13200,control_change,,,,,0,0,1,,,,,0,64,96,,
13200,note_on,,,,,0,0,1,,,,,0,,,62,36
13200,note_on,,,,,0,0,1,,,,,0,,,73,36
13206,set_tempo,,,,,15,1,0,,1785714,,,,,,,
13221,set_tempo,,,,,15,1,0,,1791044,,,,,,,
13236,set_tempo,,,,,15,1,0,,1796407,,,,,,,
13241,set_tempo,,,,,5,1,0,,1801801,,,,,,,
13260,note_on,,,,,60,0,1,,,,,0,,,73,0
13260,note_on,,,,,0,0,1,,,,,0,,,71,35
13261,set_tempo,,,,,20,1,0,,1807228,,,,,,,
13271,set_tempo,,,,,10,1,0,,1812688,,,,,,,
13276,set_tempo,,,,,5,1,0,,1818181,,,,,,,
13286,set_tempo,,,,,10,1,0,,1823708,,,,,,,
13301,set_tempo,,,,,15,1,0,,1829268,,,,,,,
13305,note_on,,,,,0,0,1,,,,,0,,,70,31
13305,note_on,,,,,45,0,1,,,,,0,,,71,0
13306,set_tempo,,,,,5,1,0,,1834862,,,,,,,
13316,set_tempo,,,,,10,1,0,,1846153,,,,,,,
13317,control_change,,,,,12,0,1,,,,,0,64,0,,
13320,control_change,,,,,0,0,1,,,,,0,64,94,,
13320,note_on,,,,,0,0,1,,,,,0,,,73,38
13320,note_on,,,,,3,0,1,,,,,0,,,70,0
13321,set_tempo,,,,,5,1,0,,1851851,,,,,,,
13331,set_tempo,,,,,10,1,0,,1863354,,,,,,,
13341,set_tempo,,,,,10,1,0,,1875000,,,,,,,
13356,set_tempo,,,,,15,1,0,,1880877,,,,,,,
13361,set_tempo,,,,,5,1,0,,1892744,,,,,,,
13365,note_on,,,,,0,0,1,,,,,0,,,71,38
13365,note_on,,,,,45,0,1,,,,,0,,,73,0
13366,set_tempo,,,,,5,1,0,,1898734,,,,,,,
13376,set_tempo,,,,,10,1,0,,1904761,,,,,,,
13376,note_on,,,,,0,0,1,,,,,0,,,68,0
13376,note_on,,,,,0,0,1,,,,,0,,,62,0
13376,note_on,,,,,11,0,1,,,,,0,,,71,0
13376,note_on,,,,,176,0,2,,,,,0,,,52,0
13380,note_on,,,,,0,0,1,,,,,0,,,71,35
13380,note_on,,,,,0,0,1,,,,,0,,,68,35
13380,note_on,,,,,4,0,2,,,,,0,,,52,35
13380,note_on,,,,,0,0,2,,,,,0,,,40,35
13380,note_on,,,,,4,0,1,,,,,0,,,62,35
13381,set_tempo,,,,,5,1,0,,1910828,,,,,,,
13391,set_tempo,,,,,10,1,0,,1916932,,,,,,,
13406,set_tempo,,,,,15,1,0,,1923076,,,,,,,
13411,set_tempo,,,,,5,1,0,,1935483,,,,,,,
13416,set_tempo,,,,,5,1,0,,1941747,,,,,,,
13425,note_on,,,,,0,0,1,,,,,0,,,61,31
13425,note_on,,,,,45,0,1,,,,,0,,,71,0
13425,note_on,,,,,0,0,1,,,,,0,,,68,0
13425,note_on,,,,,0,0,1,,,,,0,,,62,0
13425,note_on,,,,,0,0,1,,,,,0,,,69,31
13425,note_on,,,,,0,0,2,,,,,0,,,45,31
13425,note_on,,,,,45,0,2,,,,,0,,,40,0
13426,set_tempo,,,,,10,1,0,,1948051,,,,,,,
13436,set_tempo,,,,,10,1,0,,1954397,,,,,,,
13437,control_change,,,,,12,0,1,,,,,0,64,0,,
13440,note_on,,,,,0,0,2,,,,,0,,,52,28
13440,note_on,,,,,0,0,2,,,,,0,,,45,28
13440,note_on,,,,,0,0,2,,,,,0,,,52,0
13440,note_on,,,,,3,0,1,,,,,0,,,69,0
13440,note_on,,,,,0,0,1,,,,,0,,,61,0
13440,note_on,,,,,0,0,1,,,,,0,,,61,29
13440,note_on,,,,,0,0,1,,,,,0,,,69,29
13440,note_on,,,,,15,0,2,,,,,0,,,45,0
13441,set_tempo,,,,,5,1,0,,1960784,,,,,,,
13446,set_tempo,,,,,5,1,0,,1967213,,,,,,,
13511,set_tempo,,,,,65,1,0,,1880877,,,,,,,
13515,note_on,,,,,0,0,2,,,,,0,,,45,0
13515,note_on,,,,,75,0,2,,,,,0,,,52,0
13515,note_on,,,,,75,0,1,,,,,0,,,69,0
13515,note_on,,,,,0,0,1,,,,,0,,,61,0
13530,note_on,,,,,15,0,1,,,,,0,,,76,33
13530,note_on,,,,,0,0,1,,,,,0,,,64,33
13560,note_on,,,,,0,0,1,,,,,0,,,66,28
13560,note_on,,,,,0,0,1,,,,,0,,,78,28
13560,note_on,,,,,30,0,1,,,,,0,,,64,0
13560,note_on,,,,,0,0,1,,,,,0,,,76,0
13566,set_tempo,,,,,55,1,0,,1875000,,,,,,,
13582,note_on,,,,,22,0,1,,,,,0,,,78,0
13582,note_on,,,,,0,0,1,,,,,0,,,66,0
13590,note_on,,,,,8,0,1,,,,,0,,,68,32
13590,note_on,,,,,0,0,1,,,,,0,,,80,32
13612,note_on,,,,,22,0,1,,,,,0,,,80,0
13612,note_on,,,,,0,0,1,,,,,0,,,68,0
13620,note_on,,,,,8,0,1,,,,,0,,,69,38
13620,note_on,,,,,0,0,1,,,,,0,,,81,38
13642,note_on,,,,,22,0,1,,,,,0,,,81,0
13642,note_on,,,,,0,0,1,,,,,0,,,69,0
13650,note_on,,,,,8,0,1,,,,,0,,,76,41
13650,note_on,,,,,0,0,1,,,,,0,,,68,41
13650,note_on,,,,,0,0,1,,,,,0,,,71,41
13650,note_on,,,,,0,0,1,,,,,0,,,83,41
13672,note_on,,,,,0,0,1,,,,,0,,,71,0
13672,note_on,,,,,0,0,1,,,,,0,,,68,0
13672,note_on,,,,,0,0,1,,,,,0,,,76,0
13672,note_on,,,,,22,0,1,,,,,0,,,83,0
13680,note_on,,,,,0,0,1,,,,,0,,,85,40
13680,note_on,,,,,0,0,1,,,,,0,,,76,40
13680,note_on,,,,,8,0,1,,,,,0,,,73,40
13680,note_on,,,,,165,0,2,,,,,0,,,69,39
13680,control_change,,,,,0,0,1,,,,,0,64,96,,
13681,set_tempo,,,,,115,1,0,,1880877,,,,,,,
13691,set_tempo,,,,,10,1,0,,1886792,,,,,,,
13701,set_tempo,,,,,10,1,0,,1892744,,,,,,,
13711,set_tempo,,,,,10,1,0,,1898734,,,,,,,
13716,set_tempo,,,,,5,1,0,,1910828,,,,,,,
13721,set_tempo,,,,,5,1,0,,1916932,,,,,,,
13726,set_tempo,,,,,5,1,0,,1923076,,,,,,,
13736,set_tempo,,,,,10,1,0,,1935483,,,,,,,
13740,note_on,,,,,0,0,1,,,,,0,,,85,47
13740,note_on,,,,,0,0,1,,,,,0,,,83,47
13740,note_on,,,,,0,0,1,,,,,0,,,73,47
13740,note_on,,,,,0,0,1,,,,,0,,,77,47
13740,note_on,,,,,0,0,1,,,,,0,,,73,0
13740,note_on,,,,,0,0,1,,,,,0,,,76,0
13740,note_on,,,,,60,0,1,,,,,0,,,85,0
13740,note_on,,,,,60,0,2,,,,,0,,,69,0
13740,note_on,,,,,0,0,2,,,,,0,,,71,47
13740,note_on,,,,,0,0,2,,,,,0,,,68,47
13741,set_tempo,,,,,5,1,0,,1941747,,,,,,,
13771,set_tempo,,,,,30,1,0,,1960784,,,,,,,
13781,set_tempo,,,,,10,1,0,,1967213,,,,,,,
13786,set_tempo,,,,,5,1,0,,1973684,,,,,,,
13791,set_tempo,,,,,5,1,0,,1986754,,,,,,,
13800,note_on,,,,,0,0,2,,,,,0,,,66,52
13800,note_on,,,,,0,0,2,,,,,0,,,69,52
13800,note_on,,,,,0,0,2,,,,,0,,,71,0
13800,note_on,,,,,60,0,2,,,,,0,,,68,0
13800,note_on,,,,,0,0,1,,,,,0,,,77,0
13800,note_on,,,,,0,0,1,,,,,0,,,73,0
13800,note_on,,,,,0,0,1,,,,,0,,,83,0
13800,note_on,,,,,60,0,1,,,,,0,,,85,0
13800,note_on,,,,,0,0,1,,,,,0,,,73,55
13800,note_on,,,,,0,0,1,,,,,0,,,81,55
13800,note_on,,,,,0,0,1,,,,,0,,,85,55
13800,note_on,,,,,0,0,1,,,,,0,,,78,55
13821,set_tempo,,,,,30,1,0,,1993355,,,,,,,
13826,set_tempo,,,,,5,1,0,,2006688,,,,,,,
13836,set_tempo,,,,,10,1,0,,2020202,,,,,,,
13846,set_tempo,,,,,10,1,0,,2061855,,,,,,,
13851,set_tempo,,,,,5,1,0,,2068965,,,,,,,
13860,note_on,,,,,60,0,2,,,,,0,,,66,0
13860,note_on,,,,,0,0,1,,,,,0,,,85,64
13860,note_on,,,,,0,0,1,,,,,0,,,81,64
13860,note_on,,,,,0,0,1,,,,,0,,,79,64
13860,note_on,,,,,60,0,1,,,,,0,,,85,0
13860,note_on,,,,,0,0,1,,,,,0,,,81,0
13860,note_on,,,,,0,0,1,,,,,0,,,73,0
13860,note_on,,,,,0,0,1,,,,,0,,,78,0
13860,note_on,,,,,0,0,2,,,,,0,,,69,0
13860,note_on,,,,,0,0,1,,,,,0,,,73,64
13860,note_on,,,,,0,0,2,,,,,0,,,67,60
13860,note_on,,,,,0,0,2,,,,,0,,,64,60
13861,set_tempo,,,,,10,1,0,,2083333,,,,,,,
13866,set_tempo,,,,,5,1,0,,2097902,,,,,,,
13871,set_tempo,,,,,5,1,0,,2112676,,,,,,,
13881,set_tempo,,,,,10,1,0,,2127659,,,,,,,
13886,set_tempo,,,,,5,1,0,,2173913,,,,,,,
13891,set_tempo,,,,,5,1,0,,2181818,,,,,,,
13901,set_tempo,,,,,10,1,0,,2197802,,,,,,,
13906,set_tempo,,,,,5,1,0,,2214022,,,,,,,
13916,set_tempo,,,,,10,1,0,,2264150,,,,,,,
13917,control_change,,,,,57,0,1,,,,,0,64,0,,
13920,note_on,,,,,0,0,1,,,,,0,,,73,0
13920,note_on,,,,,0,0,1,,,,,0,,,79,0
13920,note_on,,,,,0,0,1,,,,,0,,,81,0
13920,note_on,,,,,0,0,1,,,,,0,,,74,71
13920,note_on,,,,,0,0,1,,,,,0,,,78,71
13920,note_on,,,,,3,0,1,,,,,0,,,85,0
13920,note_on,,,,,60,0,2,,,,,0,,,64,0
13920,note_on,,,,,0,0,1,,,,,0,,,86,71
13920,note_on,,,,,0,0,1,,,,,0,,,81,71
13920,control_change,,,,,0,0,1,,,,,0,64,95,,
13920,note_on,,,,,0,0,2,,,,,0,,,66,68
13920,note_on,,,,,0,0,2,,,,,0,,,69,68
13920,note_on,,,,,0,0,2,,,,,0,,,62,68
13920,note_on,,,,,0,0,2,,,,,0,,,67,0
13921,set_tempo,,,,,5,1,0,,2281368,,,,,,,
13926,set_tempo,,,,,5,1,0,,2298850,,,,,,,
13931,set_tempo,,,,,5,1,0,,2316602,,,,,,,
13941,set_tempo,,,,,10,1,0,,2371541,,,,,,,
13946,set_tempo,,,,,5,1,0,,2390438,,,,,,,
13951,set_tempo,,,,,5,1,0,,2448979,,,,,,,
13961,set_tempo,,,,,10,1,0,,2510460,,,,,,,
13966,set_tempo,,,,,5,1,0,,2542372,,,,,,,
13971,set_tempo,,,,,5,1,0,,3658536,,,,,,,
13980,note_on,,,,,0,0,1,,,,,0,,,74,0
13980,note_on,,,,,0,0,1,,,,,0,,,78,0
13980,note_on,,,,,0,0,1,,,,,0,,,81,0
13980,note_on,,,,,0,0,1,,,,,0,,,74,64
13980,note_on,,,,,0,0,1,,,,,0,,,79,64
13980,note_on,,,,,0,0,1,,,,,0,,,82,64
13980,note_on,,,,,0,0,1,,,,,0,,,86,64
13980,note_on,,,,,60,0,1,,,,,0,,,86,0
13980,note_on,,,,,0,0,2,,,,,0,,,69,0
13980,note_on,,,,,60,0,2,,,,,0,,,62,0
13980,note_on,,,,,0,0,2,,,,,0,,,66,0
13980,note_on,,,,,0,0,2,,,,,0,,,67,54
13980,note_on,,,,,0,0,2,,,,,0,,,62,54
13980,note_on,,,,,0,0,2,,,,,0,,,55,54
13986,set_tempo,,,,,15,1,0,,2727272,,,,,,,
13991,set_tempo,,,,,5,1,0,,2816901,,,,,,,
14001,set_tempo,,,,,10,1,0,,2898550,,,,,,,
14006,set_tempo,,,,,5,1,0,,2970297,,,,,,,
14016,set_tempo,,,,,10,1,0,,3000000,,,,,,,
14021,set_tempo,,,,,5,1,0,,3030303,,,,,,,
14026,set_tempo,,,,,5,1,0,,3092783,,,,,,,
14031,set_tempo,,,,,5,1,0,,3108808,,,,,,,
14036,set_tempo,,,,,5,1,0,,3141361,,,,,,,
14037,control_change,,,,,57,0,1,,,,,0,64,0,,
14040,note_on,,,,,0,0,1,,,,,0,,,74,52
14040,note_on,,,,,3,0,1,,,,,0,,,86,0
14040,note_on,,,,,0,0,1,,,,,0,,,79,0
14040,note_on,,,,,0,0,1,,,,,0,,,74,0
14040,note_on,,,,,0,0,1,,,,,0,,,78,52
14040,note_on,,,,,60,0,2,,,,,0,,,55,0
14040,note_on,,,,,0,0,2,,,,,0,,,66,38
14040,note_on,,,,,0,0,2,,,,,0,,,69,38
14040,note_on,,,,,0,0,2,,,,,0,,,67,0
14040,note_on,,,,,0,0,2,,,,,0,,,62,0
14040,note_on,,,,,0,0,1,,,,,0,,,81,52
14040,note_on,,,,,0,0,2,,,,,0,,,62,38
14040,note_on,,,,,0,0,1,,,,,0,,,86,52
14040,note_on,,,,,0,0,1,,,,,0,,,82,0
14041,set_tempo,,,,,5,1,0,,6000000,,,,,,,
14070,note_on,,,,,0,0,2,,,,,0,,,66,0
14070,note_on,,,,,0,0,1,,,,,0,,,81,0
14070,note_on,,,,,0,0,1,,,,,0,,,78,0
14070,note_on,,,,,0,0,1,,,,,0,,,74,0
14070,note_on,,,,,30,0,1,,,,,0,,,86,0
14070,note_on,,,,,30,0,2,,,,,0,,,62,0
14070,note_on,,,,,0,0,2,,,,,0,,,69,0
14071,set_tempo,,,,,30,1,0,,3488372,,,,,,,
14096,set_tempo,,,,,25,1,0,,1764705,,,,,,,
14100,note_on,,,,,0,0,1,,,,,0,,,73,42
14100,note_on,,,,,30,0,1,,,,,0,,,64,42
14100,note_on,,,,,0,0,1,,,,,0,,,69,42
14100,note_on,,,,,30,0,2,,,,,0,,,45,35
14106,set_tempo,,,,,10,1,0,,1759530,,,,,,,
14151,set_tempo,,,,,45,1,0,,1775147,,,,,,,
14160,note_on,,,,,60,0,2,,,,,0,,,45,0
14160,note_on,,,,,60,0,1,,,,,0,,,73,0
14160,note_on,,,,,0,0,2,,,,,0,,,52,33
14160,note_on,,,,,0,0,1,,,,,0,,,68,36
14160,note_on,,,,,0,0,1,,,,,0,,,69,0
14160,note_on,,,,,0,0,1,,,,,0,,,64,0
14160,note_on,,,,,0,0,1,,,,,0,,,62,36
14160,note_on,,,,,0,0,1,,,,,0,,,73,36
14160,control_change,,,,,0,0,1,,,,,0,64,96,,
14166,set_tempo,,,,,15,1,0,,1785714,,,,,,,
14181,set_tempo,,,,,15,1,0,,1791044,,,,,,,
14196,set_tempo,,,,,15,1,0,,1796407,,,,,,,
14201,set_tempo,,,,,5,1,0,,1801801,,,,,,,
14220,note_on,,,,,0,0,1,,,,,0,,,71,35
14220,note_on,,,,,60,0,1,,,,,0,,,73,0
14221,set_tempo,,,,,20,1,0,,1807228,,,,,,,
14231,set_tempo,,,,,10,1,0,,1812688,,,,,,,
14236,set_tempo,,,,,5,1,0,,1818181,,,,,,,
14246,set_tempo,,,,,10,1,0,,1823708,,,,,,,
14261,set_tempo,,,,,15,1,0,,1829268,,,,,,,
14265,note_on,,,,,45,0,1,,,,,0,,,71,0
14265,note_on,,,,,0,0,1,,,,,0,,,70,31
14266,set_tempo,,,,,5,1,0,,1834862,,,,,,,
14276,set_tempo,,,,,10,1,0,,1846153,,,,,,,
14277,control_change,,,,,12,0,1,,,,,0,64,0,,
14280,note_on,,,,,0,0,1,,,,,0,,,73,38
14280,control_change,,,,,0,0,1,,,,,0,64,94,,
14280,note_on,,,,,3,0,1,,,,,0,,,70,0
14281,set_tempo,,,,,5,1,0,,1851851,,,,,,,
14291,set_tempo,,,,,10,1,0,,1863354,,,,,,,
14301,set_tempo,,,,,10,1,0,,1875000,,,,,,,
14316,set_tempo,,,,,15,1,0,,1880877,,,,,,,
14321,set_tempo,,,,,5,1,0,,1892744,,,,,,,
14325,note_on,,,,,45,0,1,,,,,0,,,73,0
14325,note_on,,,,,0,0,1,,,,,0,,,71,38
14326,set_tempo,,,,,5,1,0,,1898734,,,,,,,
14336,set_tempo,,,,,10,1,0,,1904761,,,,,,,
14336,note_on,,,,,176,0,2,,,,,0,,,52,0
14336,note_on,,,,,0,0,1,,,,,0,,,68,0
14336,note_on,,,,,0,0,1,,,,,0,,,62,0
14336,note_on,,,,,11,0,1,,,,,0,,,71,0
14340,note_on,,,,,4,0,2,,,,,0,,,52,35
14340,note_on,,,,,0,0,1,,,,,0,,,71,35
14340,note_on,,,,,4,0,1,,,,,0,,,62,35
14340,note_on,,,,,0,0,1,,,,,0,,,68,35
14340,note_on,,,,,0,0,2,,,,,0,,,40,35
14341,set_tempo,,,,,5,1,0,,1910828,,,,,,,
14351,set_tempo,,,,,10,1,0,,1916932,,,,,,,
14366,set_tempo,,,,,15,1,0,,1923076,,,,,,,
14371,set_tempo,,,,,5,1,0,,1935483,,,,,,,
14376,set_tempo,,,,,5,1,0,,1941747,,,,,,,
14385,note_on,,,,,0,0,1,,,,,0,,,69,31
14385,note_on,,,,,0,0,1,,,,,0,,,61,31
14385,note_on,,,,,0,0,1,,,,,0,,,68,0
14385,note_on,,,,,0,0,1,,,,,0,,,62,0
14385,note_on,,,,,45,0,2,,,,,0,,,40,0
14385,note_on,,,,,0,0,2,,,,,0,,,45,31
14385,note_on,,,,,45,0,1,,,,,0,,,71,0
14386,set_tempo,,,,,10,1,0,,1948051,,,,,,,
14396,set_tempo,,,,,10,1,0,,1954397,,,,,,,
14397,control_change,,,,,12,0,1,,,,,0,64,0,,
14400,note_on,,,,,0,0,2,,,,,0,,,45,28
14400,note_on,,,,,15,0,2,,,,,0,,,45,0
14400,note_on,,,,,0,0,2,,,,,0,,,52,0
14400,note_on,,,,,0,0,1,,,,,0,,,61,0
14400,note_on,,,,,0,0,2,,,,,0,,,52,28
14400,note_on,,,,,3,0,1,,,,,0,,,69,0
14400,note_on,,,,,0,0,1,,,,,0,,,61,29
14400,note_on,,,,,0,0,1,,,,,0,,,69,29
14401,set_tempo,,,,,5,1,0,,1960784,,,,,,,
14406,set_tempo,,,,,5,1,0,,1960784,,,,,,,
14411,set_tempo,,,,,5,1,0,,1967213,,,,,,,
14446,set_tempo,,,,,35,1,0,,1954397,,,,,,,
14456,set_tempo,,,,,10,1,0,,1941747,,,,,,,
14475,note_on,,,,,0,0,2,,,,,0,,,45,0
14475,note_on,,,,,75,0,2,,,,,0,,,52,0
14475,note_on,,,,,75,0,1,,,,,0,,,69,0
14475,note_on,,,,,0,0,1,,,,,0,,,61,0
14490,note_on,,,,,15,0,2,,,,,0,,,46,39
14496,set_tempo,,,,,40,1,0,,1929260,,,,,,,
14520,note_on,,,,,0,0,2,,,,,0,,,45,40
14520,note_on,,,,,30,0,2,,,,,0,,,46,0
14526,set_tempo,,,,,30,1,0,,1916932,,,,,,,
14550,note_on,,,,,30,0,2,,,,,0,,,45,0
14550,note_on,,,,,0,0,2,,,,,0,,,43,44
14566,set_tempo,,,,,40,1,0,,1904761,,,,,,,
14580,note_on,,,,,105,0,1,,,,,0,,,57,53
14580,note_on,,,,,0,0,2,,,,,0,,,41,48
14580,note_on,,,,,30,0,2,,,,,0,,,43,0
14596,set_tempo,,,,,30,1,0,,1892744,,,,,,,
14606,set_tempo,,,,,10,1,0,,1880877,,,,,,,
14610,note_on,,,,,30,0,2,,,,,0,,,41,0
14610,note_on,,,,,0,0,2,,,,,0,,,40,51
14632,note_on,,,,,22,0,2,,,,,0,,,40,0
14636,set_tempo,,,,,30,1,0,,1875000,,,,,,,
14640,note_on,,,,,60,0,1,,,,,0,,,57,0
14640,note_on,,,,,8,0,2,,,,,0,,,38,61
14640,note_on,,,,,0,0,1,,,,,0,,,65,68
14641,set_tempo,,,,,5,1,0,,1869158,,,,,,,
14651,set_tempo,,,,,10,1,0,,1863354,,,,,,,
14656,note_on,,,,,16,0,2,,,,,0,,,38,0
14660,note_on,,,,,4,0,2,,,,,0,,,62,46
14661,set_tempo,,,,,10,1,0,,1857585,,,,,,,
14666,set_tempo,,,,,5,1,0,,1846153,,,,,,,
14676,note_on,,,,,16,0,2,,,,,0,,,62,0
14680,note_on,,,,,4,0,2,,,,,0,,,60,43
14696,note_on,,,,,16,0,2,,,,,0,,,60,0
14700,note_on,,,,,4,0,2,,,,,0,,,58,43
14701,set_tempo,,,,,35,1,0,,1834862,,,,,,,
14716,note_on,,,,,16,0,2,,,,,0,,,58,0
14720,note_on,,,,,4,0,2,,,,,0,,,57,44
14731,set_tempo,,,,,30,1,0,,1823708,,,,,,,
14736,note_on,,,,,16,0,2,,,,,0,,,57,0
14740,note_on,,,,,4,0,2,,,,,0,,,56,50
14756,note_on,,,,,16,0,2,,,,,0,,,56,0
14760,note_on,,,,,0,0,1,,,,,0,,,64,60
14760,note_on,,,,,120,0,1,,,,,0,,,65,0
14760,note_on,,,,,4,0,2,,,,,0,,,57,53
14761,set_tempo,,,,,30,1,0,,1818181,,,,,,,
14771,set_tempo,,,,,10,1,0,,1812688,,,,,,,
14776,note_on,,,,,16,0,2,,,,,0,,,57,0
14776,set_tempo,,,,,5,1,0,,1807228,,,,,,,
14780,note_on,,,,,4,0,2,,,,,0,,,58,49
14786,set_tempo,,,,,10,1,0,,1801801,,,,,,,
14796,set_tempo,,,,,10,1,0,,1796407,,,,,,,
14796,note_on,,,,,16,0,2,,,,,0,,,58,0
14800,note_on,,,,,4,0,2,,,,,0,,,57,48
14816,note_on,,,,,16,0,2,,,,,0,,,57,0
14820,note_on,,,,,4,0,2,,,,,0,,,55,48
14826,set_tempo,,,,,30,1,0,,1785714,,,,,,,
14836,note_on,,,,,16,0,2,,,,,0,,,55,0
14840,note_on,,,,,4,0,2,,,,,0,,,53,49
14856,note_on,,,,,16,0,2,,,,,0,,,53,0
14856,set_tempo,,,,,30,1,0,,1775147,,,,,,,
14860,note_on,,,,,4,0,2,,,,,0,,,52,52
14866,set_tempo,,,,,10,1,0,,1769911,,,,,,,
14876,note_on,,,,,16,0,2,,,,,0,,,52,0
14880,note_on,,,,,0,0,1,,,,,0,,,69,62
14880,note_on,,,,,4,0,2,,,,,0,,,53,55
14880,note_on,,,,,120,0,1,,,,,0,,,64,0
14896,set_tempo,,,,,30,1,0,,1759530,,,,,,,
14896,note_on,,,,,16,0,2,,,,,0,,,53,0
14900,note_on,,,,,4,0,2,,,,,0,,,55,51
14916,note_on,,,,,16,0,2,,,,,0,,,55,0
14920,note_on,,,,,4,0,2,,,,,0,,,53,48
14926,set_tempo,,,,,30,1,0,,1754385,,,,,,,
14931,set_tempo,,,,,5,1,0,,1749271,,,,,,,
14936,note_on,,,,,16,0,2,,,,,0,,,53,0
14940,note_on,,,,,4,0,2,,,,,0,,,52,47
14956,note_on,,,,,16,0,2,,,,,0,,,52,0
14960,note_on,,,,,4,0,2,,,,,0,,,53,47
14961,set_tempo,,,,,30,1,0,,1744186,,,,,,,
14970,note_on,,,,,90,0,1,,,,,0,,,69,0
14971,set_tempo,,,,,10,1,0,,1739130,,,,,,,
14976,note_on,,,,,16,0,2,,,,,0,,,53,0
14980,note_on,,,,,4,0,2,,,,,0,,,55,50
14985,note_on,,,,,15,0,1,,,,,0,,,70,50
14996,note_on,,,,,16,0,2,,,,,0,,,55,0
15000,note_on,,,,,15,0,1,,,,,0,,,70,0
15000,note_on,,,,,0,0,1,,,,,0,,,69,48
15000,note_on,,,,,4,0,2,,,,,0,,,53,56
15011,set_tempo,,,,,40,1,0,,1729106,,,,,,,
15016,note_on,,,,,16,0,2,,,,,0,,,53,0
15020,note_on,,,,,4,0,2,,,,,0,,,52,49
15036,note_on,,,,,16,0,2,,,,,0,,,52,0
15040,note_on,,,,,4,0,2,,,,,0,,,50,45
15041,set_tempo,,,,,30,1,0,,1719197,,,,,,,
15056,note_on,,,,,16,0,2,,,,,0,,,50,0
15060,note_on,,,,,4,0,2,,,,,0,,,48,43
15060,note_on,,,,,60,0,1,,,,,0,,,69,0
15060,note_on,,,,,0,0,1,,,,,0,,,77,50
15060,note_on,,,,,0,0,1,,,,,0,,,65,50
15071,set_tempo,,,,,30,1,0,,1714285,,,,,,,
15076,set_tempo,,,,,5,1,0,,1709401,,,,,,,
15076,note_on,,,,,16,0,2,,,,,0,,,48,0
15080,note_on,,,,,4,0,2,,,,,0,,,46,43
15096,note_on,,,,,16,0,2,,,,,0,,,46,0
15096,set_tempo,,,,,20,1,0,,1690140,,,,,,,
15100,note_on,,,,,4,0,2,,,,,0,,,45,49
15106,set_tempo,,,,,10,1,0,,1685393,,,,,,,
15116,note_on,,,,,16,0,2,,,,,0,,,45,0
15120,note_on,,,,,4,0,2,,,,,0,,,44,53
15120,note_on,,,,,0,0,1,,,,,0,,,76,58
15120,note_on,,,,,0,0,1,,,,,0,,,64,58
15120,note_on,,,,,0,0,1,,,,,0,,,77,0
15120,note_on,,,,,60,0,1,,,,,0,,,65,0
15131,set_tempo,,,,,25,1,0,,1680672,,,,,,,
15136,note_on,,,,,16,0,2,,,,,0,,,44,0
15140,note_on,,,,,4,0,2,,,,,0,,,43,51
15156,note_on,,,,,16,0,2,,,,,0,,,43,0
15156,set_tempo,,,,,25,1,0,,1675977,,,,,,,
15160,note_on,,,,,4,0,2,,,,,0,,,44,48
15176,note_on,,,,,16,0,2,,,,,0,,,44,0
15180,note_on,,,,,0,0,1,,,,,0,,,73,53
15180,note_on,,,,,0,0,1,,,,,0,,,61,53
15180,note_on,,,,,0,0,1,,,,,0,,,64,0
15180,note_on,,,,,60,0,1,,,,,0,,,76,0
15180,note_on,,,,,4,0,2,,,,,0,,,45,45
15190,set_tempo,,,,,34,1,0,,1671309,,,,,,,
15196,note_on,,,,,16,0,2,,,,,0,,,45,0
15200,note_on,,,,,4,0,2,,,,,0,,,44,45
15205,set_tempo,,,,,15,1,0,,1675977,,,,,,,
15215,set_tempo,,,,,10,1,0,,1680672,,,,,,,
15216,note_on,,,,,16,0,2,,,,,0,,,44,0
15220,set_tempo,,,,,5,1,0,,1680672,,,,,,,
15220,note_on,,,,,4,0,2,,,,,0,,,45,41
15235,set_tempo,,,,,15,1,0,,1685393,,,,,,,
15236,note_on,,,,,16,0,2,,,,,0,,,45,0
15240,note_on,,,,,0,0,1,,,,,0,,,57,47
15240,note_on,,,,,0,0,1,,,,,0,,,61,0
15240,note_on,,,,,4,0,2,,,,,0,,,46,45
15240,note_on,,,,,0,0,1,,,,,0,,,69,47
15240,note_on,,,,,60,0,1,,,,,0,,,73,0
15250,set_tempo,,,,,15,1,0,,1690140,,,,,,,
15256,note_on,,,,,16,0,2,,,,,0,,,46,0
15260,set_tempo,,,,,10,1,0,,1694915,,,,,,,
15260,note_on,,,,,4,0,2,,,,,0,,,47,41
15275,set_tempo,,,,,15,1,0,,1699716,,,,,,,
15276,note_on,,,,,16,0,2,,,,,0,,,47,0
15280,note_on,,,,,4,0,2,,,,,0,,,48,40
15296,note_on,,,,,16,0,2,,,,,0,,,48,0
15300,note_on,,,,,0,0,1,,,,,0,,,57,0
15300,note_on,,,,,0,0,1,,,,,0,,,64,55
15300,note_on,,,,,4,0,2,,,,,0,,,49,40
15300,note_on,,,,,60,0,1,,,,,0,,,69,0
15300,note_on,,,,,0,0,1,,,,,0,,,52,55
15316,note_on,,,,,16,0,2,,,,,0,,,49,0
15320,note_on,,,,,4,0,2,,,,,0,,,50,40
15336,note_on,,,,,16,0,2,,,,,0,,,50,0
15340,note_on,,,,,4,0,2,,,,,0,,,49,41
15356,note_on,,,,,16,0,2,,,,,0,,,49,0
15360,note_on,,,,,4,0,2,,,,,0,,,50,40
15360,set_tempo,,,,,85,1,0,,1694915,,,,,,,
15360,note_on,,,,,60,0,1,,,,,0,,,64,0
15360,note_on,,,,,0,0,1,,,,,0,,,52,0
15360,note_on,,,,,0,0,1,,,,,0,,,53,61
15360,note_on,,,,,0,0,1,,,,,0,,,65,61
15376,note_on,,,,,16,0,2,,,,,0,,,50,0
15378,note_on,,,,,2,0,2,,,,,0,,,52,40
15394,note_on,,,,,16,0,2,,,,,0,,,52,0
15398,note_on,,,,,4,0,2,,,,,0,,,53,41
15400,set_tempo,,,,,40,1,0,,1690140,,,,,,,
15410,set_tempo,,,,,10,1,0,,1685393,,,,,,,
15414,note_on,,,,,16,0,2,,,,,0,,,53,0
15418,note_on,,,,,4,0,2,,,,,0,,,52,44
15430,set_tempo,,,,,20,1,0,,1680672,,,,,,,
15434,note_on,,,,,16,0,2,,,,,0,,,52,0
15438,note_on,,,,,4,0,2,,,,,0,,,50,46
15440,set_tempo,,,,,10,1,0,,1675977,,,,,,,
15454,note_on,,,,,16,0,2,,,,,0,,,50,0
15455,set_tempo,,,,,15,1,0,,1671309,,,,,,,
15458,note_on,,,,,4,0,2,,,,,0,,,49,50
15474,note_on,,,,,16,0,2,,,,,0,,,49,0
15478,note_on,,,,,4,0,2,,,,,0,,,50,57
15485,set_tempo,,,,,30,1,0,,1666666,,,,,,,
15494,note_on,,,,,16,0,2,,,,,0,,,50,0
15498,note_on,,,,,4,0,2,,,,,0,,,51,64
15510,note_on,,,,,150,0,1,,,,,0,,,65,0
15510,note_on,,,,,0,0,1,,,,,0,,,53,0
15514,note_on,,,,,16,0,2,,,,,0,,,51,0
15518,note_on,,,,,4,0,2,,,,,0,,,52,71
15525,set_tempo,,,,,40,1,0,,1662049,,,,,,,
15534,note_on,,,,,16,0,2,,,,,0,,,52,0
15538,note_on,,,,,4,0,2,,,,,0,,,53,77
15540,control_change,,,,,0,0,1,,,,,0,64,95,,
15540,note_on,,,,,0,0,1,,,,,0,,,70,81
15540,note_on,,,,,0,0,1,,,,,0,,,68,81
15540,note_on,,,,,30,0,1,,,,,0,,,62,81
15554,note_on,,,,,16,0,2,,,,,0,,,53,0
15560,set_tempo,,,,,35,1,0,,1657458,,,,,,,
15560,note_on,,,,,6,0,2,,,,,0,,,54,84
15576,note_on,,,,,16,0,2,,,,,0,,,54,0
15580,note_on,,,,,4,0,2,,,,,0,,,53,96
15596,note_on,,,,,16,0,2,,,,,0,,,53,0
15597,control_change,,,,,57,0,1,,,,,0,64,0,,
15600,control_change,,,,,0,0,1,,,,,0,64,96,,
15600,note_on,,,,,0,0,1,,,,,0,,,63,96
15600,note_on,,,,,0,0,1,,,,,0,,,62,0
15600,note_on,,,,,0,0,1,,,,,0,,,66,96
15600,note_on,,,,,0,0,1,,,,,0,,,70,96
15600,note_on,,,,,0,0,2,,,,,0,,,54,102
15600,note_on,,,,,3,0,1,,,,,0,,,70,0
15600,note_on,,,,,0,0,1,,,,,0,,,68,0
15600,note_on,,,,,4,0,2,,,,,0,,,42,102
15605,set_tempo,,,,,45,1,0,,1662049,,,,,,,
15620,note_on,,,,,0,0,1,,,,,0,,,66,0
15620,note_on,,,,,0,0,1,,,,,0,,,87,84
15620,note_on,,,,,0,0,1,,,,,0,,,75,84
15620,note_on,,,,,0,0,1,,,,,0,,,63,0
15620,note_on,,,,,20,0,1,,,,,0,,,70,0
15630,set_tempo,,,,,25,1,0,,1657458,,,,,,,
15640,note_on,,,,,20,0,1,,,,,0,,,75,0
15640,note_on,,,,,0,0,1,,,,,0,,,85,86
15640,note_on,,,,,0,0,1,,,,,0,,,73,86
15640,set_tempo,,,,,10,1,0,,1652892,,,,,,,
15640,note_on,,,,,0,0,1,,,,,0,,,87,0
15660,note_on,,,,,20,0,1,,,,,0,,,73,0
15660,note_on,,,,,0,0,1,,,,,0,,,85,0
15660,note_on,,,,,0,0,1,,,,,0,,,72,91
15660,note_on,,,,,0,0,1,,,,,0,,,84,91
15660,set_tempo,,,,,20,1,0,,1648351,,,,,,,
15680,note_on,,,,,20,0,1,,,,,0,,,84,0
15680,note_on,,,,,0,0,1,,,,,0,,,72,0
15680,note_on,,,,,0,0,1,,,,,0,,,82,95
15680,note_on,,,,,0,0,1,,,,,0,,,70,95
15700,note_on,,,,,0,0,1,,,,,0,,,69,98
15700,note_on,,,,,0,0,1,,,,,0,,,81,98
15700,note_on,,,,,0,0,1,,,,,0,,,82,0
15700,note_on,,,,,20,0,1,,,,,0,,,70,0
15717,control_change,,,,,17,0,1,,,,,0,64,0,,
15720,note_on,,,,,0,0,2,,,,,0,,,41,96
15720,note_on,,,,,0,0,2,,,,,0,,,42,0
15720,note_on,,,,,0,0,1,,,,,0,,,69,0
15720,note_on,,,,,120,0,2,,,,,0,,,54,0
15720,note_on,,,,,3,0,1,,,,,0,,,81,0
15720,note_on,,,,,0,0,2,,,,,0,,,53,96
15720,note_on,,,,,0,0,1,,,,,0,,,70,98
15720,note_on,,,,,0,0,1,,,,,0,,,82,98
15720,control_change,,,,,0,0,1,,,,,0,64,95,,
15740,note_on,,,,,20,0,1,,,,,0,,,70,0
15740,note_on,,,,,0,0,1,,,,,0,,,82,0
15740,note_on,,,,,0,0,1,,,,,0,,,72,98
15740,note_on,,,,,0,0,1,,,,,0,,,84,98
15740,set_tempo,,,,,80,1,0,,1643835,,,,,,,
15760,note_on,,,,,20,0,1,,,,,0,,,84,0
15760,note_on,,,,,0,0,1,,,,,0,,,72,0
15760,note_on,,,,,0,0,1,,,,,0,,,70,95
15760,note_on,,,,,0,0,1,,,,,0,,,82,95
15765,set_tempo,,,,,25,1,0,,1639344,,,,,,,
15775,set_tempo,,,,,10,1,0,,1634877,,,,,,,
15780,note_on,,,,,0,0,1,,,,,0,,,68,92
15780,note_on,,,,,0,0,1,,,,,0,,,80,92
15780,note_on,,,,,0,0,1,,,,,0,,,70,0
15780,note_on,,,,,20,0,1,,,,,0,,,82,0
15795,set_tempo,,,,,20,1,0,,1634877,,,,,,,
15800,note_on,,,,,0,0,1,,,,,0,,,78,93
15800,note_on,,,,,20,0,1,,,,,0,,,68,0
15800,note_on,,,,,0,0,1,,,,,0,,,66,93
15800,note_on,,,,,0,0,1,,,,,0,,,80,0
15805,set_tempo,,,,,10,1,0,,1630434,,,,,,,
15820,note_on,,,,,20,0,1,,,,,0,,,78,0
15820,note_on,,,,,0,0,1,,,,,0,,,66,0
15820,note_on,,,,,0,0,1,,,,,0,,,65,96
15820,note_on,,,,,0,0,1,,,,,0,,,77,96
15835,control_change,,,,,15,0,1,,,,,0,64,0,,
15835,set_tempo,,,,,30,1,0,,1626016,,,,,,,
15840,note_on,,,,,5,0,1,,,,,0,,,77,0
15840,note_on,,,,,0,0,2,,,,,0,,,41,0
15840,note_on,,,,,120,0,2,,,,,0,,,53,0
15840,note_on,,,,,0,0,1,,,,,0,,,65,0
15840,note_on,,,,,0,0,1,,,,,0,,,66,102
15840,note_on,,,,,0,0,1,,,,,0,,,78,102
15840,control_change,,,,,0,0,1,,,,,0,64,96,,
15840,note_on,,,,,0,0,2,,,,,0,,,46,100
15840,note_on,,,,,0,0,2,,,,,0,,,58,100
15850,set_tempo,,,,,15,1,0,,1621621,,,,,,,
15860,note_on,,,,,0,0,1,,,,,0,,,68,96
15860,note_on,,,,,20,0,1,,,,,0,,,78,0
15860,note_on,,,,,0,0,1,,,,,0,,,80,96
15860,note_on,,,,,0,0,1,,,,,0,,,66,0
15875,set_tempo,,,,,25,1,0,,1617250,,,,,,,
15880,note_on,,,,,20,0,1,,,,,0,,,80,0
15880,note_on,,,,,0,0,1,,,,,0,,,68,0
15880,note_on,,,,,0,0,1,,,,,0,,,66,88
15880,note_on,,,,,0,0,1,,,,,0,,,78,88
15900,note_on,,,,,20,0,1,,,,,0,,,78,0
15900,note_on,,,,,0,0,1,,,,,0,,,66,0
15900,note_on,,,,,0,0,1,,,,,0,,,65,80
15900,note_on,,,,,0,0,1,,,,,0,,,77,80
15915,set_tempo,,,,,40,1,0,,1612903,,,,,,,
15920,note_on,,,,,20,0,1,,,,,0,,,77,0
15920,note_on,,,,,0,0,1,,,,,0,,,66,75
15920,note_on,,,,,0,0,1,,,,,0,,,78,75
15920,note_on,,,,,0,0,1,,,,,0,,,65,0
15930,note_on,,,,,90,0,2,,,,,0,,,58,0
15930,note_on,,,,,0,0,2,,,,,0,,,46,0
15940,note_on,,,,,0,0,1,,,,,0,,,66,0
15940,note_on,,,,,20,0,1,,,,,0,,,78,0
15940,note_on,,,,,0,0,1,,,,,0,,,80,72
15940,note_on,,,,,0,0,1,,,,,0,,,68,72
15945,control_change,,,,,5,0,1,,,,,0,64,0,,
15945,note_on,,,,,0,0,2,,,,,0,,,59,89
15945,note_on,,,,,15,0,2,,,,,0,,,47,89
15960,note_on,,,,,15,0,1,,,,,0,,,80,0
15960,note_on,,,,,0,0,1,,,,,0,,,66,71
15960,note_on,,,,,0,0,1,,,,,0,,,78,71
15960,set_tempo,,,,,45,1,0,,1608579,,,,,,,
15960,note_on,,,,,0,0,1,,,,,0,,,68,0
15960,note_on,,,,,15,0,2,,,,,0,,,59,0
15960,note_on,,,,,0,0,2,,,,,0,,,47,0
15960,note_on,,,,,0,0,2,,,,,0,,,46,88
15960,note_on,,,,,0,0,2,,,,,0,,,58,88
15980,note_on,,,,,0,0,1,,,,,0,,,77,72
15980,note_on,,,,,0,0,1,,,,,0,,,65,72
15980,note_on,,,,,0,0,1,,,,,0,,,66,0
15980,note_on,,,,,20,0,1,,,,,0,,,78,0
15990,set_tempo,,,,,30,1,0,,1604278,,,,,,,
16000,note_on,,,,,20,0,1,,,,,0,,,77,0
16000,note_on,,,,,0,0,1,,,,,0,,,65,0
16000,note_on,,,,,0,0,1,,,,,0,,,75,73
16000,note_on,,,,,0,0,1,,,,,0,,,63,73
16005,note_on,,,,,0,0,2,,,,,0,,,46,0
16005,note_on,,,,,45,0,2,,,,,0,,,58,0
16020,note_on,,,,,0,0,1,,,,,0,,,73,76
16020,note_on,,,,,0,0,1,,,,,0,,,61,76
16020,note_on,,,,,20,0,1,,,,,0,,,75,0
16020,note_on,,,,,0,0,1,,,,,0,,,63,0
16020,control_change,,,,,0,0,1,,,,,0,64,96,,
16020,note_on,,,,,15,0,2,,,,,0,,,54,117
16025,set_tempo,,,,,35,1,0,,1600000,,,,,,,
16040,note_on,,,,,20,0,1,,,,,0,,,61,0
16040,note_on,,,,,0,0,1,,,,,0,,,73,0
16040,note_on,,,,,0,0,1,,,,,0,,,59,78
16040,note_on,,,,,0,0,1,,,,,0,,,71,78
16060,note_on,,,,,0,0,1,,,,,0,,,70,81
16060,note_on,,,,,0,0,1,,,,,0,,,58,81
16060,note_on,,,,,0,0,1,,,,,0,,,59,0
16060,note_on,,,,,20,0,1,,,,,0,,,71,0
16070,set_tempo,,,,,45,1,0,,1595744,,,,,,,
16077,control_change,,,,,17,0,1,,,,,0,64,0,,
16080,note_on,,,,,0,0,2,,,,,0,,,53,112
16080,note_on,,,,,60,0,2,,,,,0,,,54,0
16080,note_on,,,,,3,0,1,,,,,0,,,70,0
16080,control_change,,,,,0,0,1,,,,,0,64,95,,
16080,note_on,,,,,0,0,1,,,,,0,,,69,84
16080,note_on,,,,,0,0,1,,,,,0,,,57,84
16080,note_on,,,,,0,0,1,,,,,0,,,58,0
16100,set_tempo,,,,,30,1,0,,1591511,,,,,,,
16100,note_on,,,,,0,0,1,,,,,0,,,57,0
16100,note_on,,,,,0,0,1,,,,,0,,,56,85
16100,note_on,,,,,0,0,1,,,,,0,,,68,85
16100,note_on,,,,,20,0,1,,,,,0,,,69,0
16105,set_tempo,,,,,5,1,0,,1587301,,,,,,,
16115,set_tempo,,,,,10,1,0,,1583113,,,,,,,
16120,note_on,,,,,20,0,1,,,,,0,,,68,0
16120,note_on,,,,,0,0,1,,,,,0,,,56,0
16120,note_on,,,,,0,0,1,,,,,0,,,57,89
16120,note_on,,,,,0,0,1,,,,,0,,,69,89
16125,set_tempo,,,,,10,1,0,,1578947,,,,,,,
16135,set_tempo,,,,,10,1,0,,1574803,,,,,,,
16140,note_on,,,,,60,0,2,,,,,0,,,53,0
16140,set_tempo,,,,,5,1,0,,1570680,,,,,,,
16140,note_on,,,,,0,0,2,,,,,0,,,50,104
16140,note_on,,,,,20,0,1,,,,,0,,,69,0
16140,note_on,,,,,0,0,1,,,,,0,,,57,0
16140,note_on,,,,,0,0,1,,,,,0,,,58,91
16140,note_on,,,,,0,0,1,,,,,0,,,70,91
16150,set_tempo,,,,,10,1,0,,1566579,,,,,,,
16155,set_tempo,,,,,5,1,0,,1562500,,,,,,,
16160,note_on,,,,,0,0,1,,,,,0,,,57,95
16160,note_on,,,,,20,0,1,,,,,0,,,70,0
16160,note_on,,,,,0,0,1,,,,,0,,,58,0
16160,note_on,,,,,0,0,1,,,,,0,,,69,95
16165,set_tempo,,,,,10,1,0,,1558441,,,,,,,
16175,set_tempo,,,,,10,1,0,,1554404,,,,,,,
16180,note_on,,,,,20,0,1,,,,,0,,,69,0
16180,note_on,,,,,0,0,1,,,,,0,,,57,0
16180,note_on,,,,,0,0,1,,,,,0,,,58,97
16180,note_on,,,,,0,0,1,,,,,0,,,70,97
16185,set_tempo,,,,,10,1,0,,1550387,,,,,,,
16197,control_change,,,,,17,0,1,,,,,0,64,0,,
16200,control_change,,,,,0,0,1,,,,,0,64,95,,
16200,note_on,,,,,0,0,2,,,,,0,,,46,112
16200,note_on,,,,,0,0,1,,,,,0,,,71,99
16200,note_on,,,,,60,0,2,,,,,0,,,50,0
16200,note_on,,,,,3,0,1,,,,,0,,,70,0
16200,note_on,,,,,0,0,1,,,,,0,,,58,0
16200,set_tempo,,,,,15,1,0,,1546391,,,,,,,
16200,note_on,,,,,0,0,1,,,,,0,,,59,99
16205,set_tempo,,,,,5,1,0,,1542416,,,,,,,
16220,note_on,,,,,20,0,1,,,,,0,,,71,0
16220,set_tempo,,,,,15,1,0,,1538461,,,,,,,
16220,note_on,,,,,0,0,1,,,,,0,,,72,103
16220,note_on,,,,,0,0,1,,,,,0,,,60,103
16220,note_on,,,,,0,0,1,,,,,0,,,59,0
16230,set_tempo,,,,,10,1,0,,1534526,,,,,,,
16240,note_on,,,,,0,0,1,,,,,0,,,61,105
16240,note_on,,,,,0,0,1,,,,,0,,,72,0
16240,note_on,,,,,20,0,1,,,,,0,,,60,0
16240,note_on,,,,,0,0,1,,,,,0,,,73,105
16245,set_tempo,,,,,15,1,0,,1530612,,,,,,,
16260,note_on,,,,,0,0,2,,,,,0,,,41,120
16260,note_on,,,,,20,0,1,,,,,0,,,73,0
16260,note_on,,,,,0,0,1,,,,,0,,,61,0
16260,note_on,,,,,0,0,1,,,,,0,,,62,108
16260,note_on,,,,,0,0,1,,,,,0,,,74,108
16260,note_on,,,,,60,0,2,,,,,0,,,46,0
16275,set_tempo,,,,,30,1,0,,1526717,,,,,,,
16280,note_on,,,,,0,0,1,,,,,0,,,62,0
16280,note_on,,,,,0,0,1,,,,,0,,,63,109
16280,set_tempo,,,,,5,1,0,,1522842,,,,,,,
16280,note_on,,,,,0,0,1,,,,,0,,,75,109
16280,note_on,,,,,20,0,1,,,,,0,,,74,0
16295,set_tempo,,,,,15,1,0,,1518987,,,,,,,
16300,note_on,,,,,20,0,1,,,,,0,,,75,0
16300,note_on,,,,,0,0,1,,,,,0,,,63,0
16300,note_on,,,,,0,0,1,,,,,0,,,62,111
16300,note_on,,,,,0,0,1,,,,,0,,,74,111
16300,set_tempo,,,,,5,1,0,,1515151,,,,,,,
16315,control_change,,,,,15,0,1,,,,,0,64,0,,
16320,note_on,,,,,5,0,1,,,,,0,,,74,0
16320,note_on,,,,,0,0,1,,,,,0,,,62,0
16320,note_on,,,,,0,0,1,,,,,0,,,63,112
16320,note_on,,,,,0,0,1,,,,,0,,,75,112
16320,control_change,,,,,0,0,1,,,,,0,64,96,,
16320,set_tempo,,,,,20,1,0,,1507537,,,,,,,
16320,note_on,,,,,0,0,2,,,,,0,,,42,124
16320,note_on,,,,,60,0,2,,,,,0,,,41,0
16335,set_tempo,,,,,15,1,0,,1500000,,,,,,,
16340,note_on,,,,,0,0,1,,,,,0,,,77,108
16340,note_on,,,,,0,0,1,,,,,0,,,65,108
16340,note_on,,,,,0,0,1,,,,,0,,,63,0
16340,note_on,,,,,20,0,1,,,,,0,,,75,0
16350,set_tempo,,,,,15,1,0,,1496259,,,,,,,
16360,note_on,,,,,0,0,1,,,,,0,,,78,105
16360,note_on,,,,,0,0,1,,,,,0,,,66,105
16360,note_on,,,,,0,0,1,,,,,0,,,65,0
16360,set_tempo,,,,,10,1,0,,1492537,,,,,,,
16360,note_on,,,,,20,0,1,,,,,0,,,77,0
16380,note_on,,,,,0,0,1,,,,,0,,,77,104
16380,note_on,,,,,0,0,1,,,,,0,,,65,104
16380,note_on,,,,,0,0,1,,,,,0,,,66,0
16380,note_on,,,,,20,0,1,,,,,0,,,78,0
16390,set_tempo,,,,,30,1,0,,1492537,,,,,,,
16395,set_tempo,,,,,5,1,0,,1496259,,,,,,,
16400,note_on,,,,,0,0,1,,,,,0,,,63,104
16400,note_on,,,,,0,0,1,,,,,0,,,75,104
16400,note_on,,,,,0,0,1,,,,,0,,,65,0
16400,note_on,,,,,20,0,1,,,,,0,,,77,0
16410,note_on,,,,,90,0,2,,,,,0,,,42,0
16410,set_tempo,,,,,15,1,0,,1500000,,,,,,,
16415,set_tempo,,,,,5,1,0,,1503759,,,,,,,
16420,note_on,,,,,20,0,1,,,,,0,,,75,0
16420,note_on,,,,,0,0,1,,,,,0,,,63,0
16420,note_on,,,,,0,0,1,,,,,0,,,74,104
16420,note_on,,,,,0,0,1,,,,,0,,,62,104
16425,set_tempo,,,,,10,1,0,,1507537,,,,,,,
16425,control_change,,,,,5,0,1,,,,,0,64,0,,
16425,note_on,,,,,15,0,2,,,,,0,,,41,102
16435,set_tempo,,,,,10,1,0,,1511335,,,,,,,
16440,note_on,,,,,15,0,2,,,,,0,,,41,0
16440,note_on,,,,,15,0,1,,,,,0,,,62,0
16440,note_on,,,,,0,0,1,,,,,0,,,63,104
16440,note_on,,,,,0,0,2,,,,,0,,,39,106
16440,note_on,,,,,0,0,1,,,,,0,,,75,104
16440,note_on,,,,,0,0,1,,,,,0,,,74,0
16450,set_tempo,,,,,15,1,0,,1515151,,,,,,,
16455,set_tempo,,,,,5,1,0,,1538461,,,,,,,
16460,set_tempo,,,,,5,1,0,,1562500,,,,,,,
16460,note_on,,,,,0,0,1,,,,,0,,,63,0
16460,note_on,,,,,0,0,1,,,,,0,,,77,106
16460,note_on,,,,,0,0,1,,,,,0,,,65,106
16460,note_on,,,,,20,0,1,,,,,0,,,75,0
16470,set_tempo,,,,,10,1,0,,1570680,,,,,,,
16475,set_tempo,,,,,5,1,0,,1578947,,,,,,,
16480,note_on,,,,,0,0,1,,,,,0,,,66,108
16480,note_on,,,,,0,0,1,,,,,0,,,78,108
16480,note_on,,,,,20,0,1,,,,,0,,,65,0
16480,note_on,,,,,0,0,1,,,,,0,,,77,0
16490,set_tempo,,,,,15,1,0,,1591511,,,,,,,
16495,set_tempo,,,,,5,1,0,,1595744,,,,,,,
16500,note_on,,,,,20,0,1,,,,,0,,,78,0
16500,note_on,,,,,0,0,2,,,,,0,,,36,114
16500,note_on,,,,,0,0,1,,,,,0,,,66,0
16500,control_change,,,,,0,0,1,,,,,0,64,95,,
16500,note_on,,,,,0,0,1,,,,,0,,,67,111
16500,note_on,,,,,60,0,2,,,,,0,,,39,0
16500,note_on,,,,,0,0,1,,,,,0,,,79,111
16500,note_on,,,,,0,0,2,,,,,0,,,40,114
16510,set_tempo,,,,,15,1,0,,1604278,,,,,,,
16515,set_tempo,,,,,5,1,0,,1612903,,,,,,,
16520,note_on,,,,,0,0,1,,,,,0,,,80,112
16520,note_on,,,,,0,0,1,,,,,0,,,68,112
16520,note_on,,,,,20,0,1,,,,,0,,,67,0
16520,note_on,,,,,0,0,1,,,,,0,,,79,0
16530,set_tempo,,,,,15,1,0,,1617250,,,,,,,
16535,set_tempo,,,,,5,1,0,,1621621,,,,,,,
16540,note_on,,,,,0,0,1,,,,,0,,,82,118
16540,note_on,,,,,0,0,1,,,,,0,,,70,118
16540,note_on,,,,,20,0,1,,,,,0,,,68,0
16540,set_tempo,,,,,5,1,0,,1626016,,,,,,,
16540,note_on,,,,,0,0,1,,,,,0,,,80,0
16550,set_tempo,,,,,10,1,0,,1630434,,,,,,,
16550,control_change,,,,,10,0,1,,,,,0,64,0,,
16560,control_change,,,,,0,0,1,,,,,0,64,95,,
16560,note_on,,,,,10,0,1,,,,,0,,,82,0
16560,note_on,,,,,0,0,1,,,,,0,,,70,0
16560,note_on,,,,,0,0,1,,,,,0,,,68,127
16560,note_on,,,,,0,0,1,,,,,0,,,72,127
16560,note_on,,,,,0,0,1,,,,,0,,,77,127
16560,note_on,,,,,0,0,1,,,,,0,,,80,127
16560,note_on,,,,,0,0,2,,,,,0,,,40,0
16560,note_on,,,,,60,0,2,,,,,0,,,36,0
16560,note_on,,,,,0,0,2,,,,,0,,,41,117
16560,control_change,,,,,0,0,2,,,,,0,64,96,,
16560,note_on,,,,,0,0,2,,,,,0,,,29,117
16560,set_tempo,,,,,10,1,0,,1639344,,,,,,,
16575,set_tempo,,,,,15,1,0,,1634877,,,,,,,
16580,set_tempo,,,,,5,1,0,,1630434,,,,,,,
16580,note_on,,,,,20,0,2,,,,,0,,,41,0
16580,note_on,,,,,0,0,2,,,,,0,,,29,0
16580,note_on,,,,,0,0,2,,,,,0,,,65,101
16580,note_on,,,,,0,0,2,,,,,0,,,53,101
16590,set_tempo,,,,,10,1,0,,1626016,,,,,,,
16595,set_tempo,,,,,5,1,0,,1621621,,,,,,,
16596,note_on,,,,,16,0,2,,,,,0,,,53,0
16596,note_on,,,,,0,0,2,,,,,0,,,65,0
16600,note_on,,,,,0,0,2,,,,,0,,,51,107
16600,note_on,,,,,4,0,2,,,,,0,,,63,107
16616,note_on,,,,,0,0,2,,,,,0,,,63,0
16616,note_on,,,,,16,0,2,,,,,0,,,51,0
16620,note_on,,,,,4,0,2,,,,,0,,,49,109
16620,note_on,,,,,0,0,2,,,,,0,,,61,109
16630,set_tempo,,,,,35,1,0,,1612903,,,,,,,
16635,set_tempo,,,,,5,1,0,,1608579,,,,,,,
16636,note_on,,,,,0,0,2,,,,,0,,,49,0
16636,note_on,,,,,16,0,2,,,,,0,,,61,0
16640,note_on,,,,,0,0,2,,,,,0,,,48,117
16640,note_on,,,,,4,0,2,,,,,0,,,60,117
16645,set_tempo,,,,,10,1,0,,1604278,,,,,,,
16650,set_tempo,,,,,5,1,0,,1600000,,,,,,,
16656,note_on,,,,,16,0,2,,,,,0,,,48,0
16656,note_on,,,,,0,0,2,,,,,0,,,60,0
16660,note_on,,,,,4,0,2,,,,,0,,,47,121
16660,note_on,,,,,0,0,2,,,,,0,,,59,121
16676,note_on,,,,,0,0,2,,,,,0,,,47,0
16676,note_on,,,,,16,0,2,,,,,0,,,59,0
16677,control_change,,,,,1,0,2,,,,,0,64,0,,
16677,control_change,,,,,117,0,1,,,,,0,64,0,,
16680,control_change,,,,,0,0,2,,,,,0,64,95,,
16680,note_on,,,,,0,0,2,,,,,0,,,48,122
16680,note_on,,,,,3,0,2,,,,,0,,,60,122
16680,note_on,,,,,0,0,1,,,,,0,,,79,112
16680,control_change,,,,,0,0,1,,,,,0,64,95,,
16680,note_on,,,,,0,0,1,,,,,0,,,76,112
16680,note_on,,,,,0,0,1,,,,,0,,,72,112
16680,note_on,,,,,0,0,1,,,,,0,,,67,112
16680,note_on,,,,,0,0,1,,,,,0,,,77,0
16680,note_on,,,,,3,0,1,,,,,0,,,80,0
16680,note_on,,,,,0,0,1,,,,,0,,,68,0
16680,note_on,,,,,0,0,1,,,,,0,,,72,0
16685,set_tempo,,,,,35,1,0,,1595744,,,,,,,
16695,set_tempo,,,,,10,1,0,,1587301,,,,,,,
16696,note_on,,,,,0,0,2,,,,,0,,,60,0
16696,note_on,,,,,16,0,2,,,,,0,,,48,0
16700,note_on,,,,,4,0,2,,,,,0,,,49,122
16700,note_on,,,,,0,0,2,,,,,0,,,61,122
16705,set_tempo,,,,,10,1,0,,1583113,,,,,,,
16716,note_on,,,,,16,0,2,,,,,0,,,61,0
16716,note_on,,,,,0,0,2,,,,,0,,,49,0
16720,set_tempo,,,,,15,1,0,,1578947,,,,,,,
16720,note_on,,,,,4,0,2,,,,,0,,,48,121
16720,note_on,,,,,0,0,2,,,,,0,,,60,121
16730,set_tempo,,,,,10,1,0,,1574803,,,,,,,
16736,note_on,,,,,16,0,2,,,,,0,,,60,0
16736,note_on,,,,,0,0,2,,,,,0,,,48,0
16740,note_on,,,,,0,0,2,,,,,0,,,46,117
16740,note_on,,,,,4,0,2,,,,,0,,,58,117
16740,set_tempo,,,,,10,1,0,,1570680,,,,,,,
16755,set_tempo,,,,,15,1,0,,1566579,,,,,,,
16756,note_on,,,,,16,0,2,,,,,0,,,46,0
16756,note_on,,,,,0,0,2,,,,,0,,,58,0
16760,note_on,,,,,4,0,2,,,,,0,,,44,115
16760,note_on,,,,,0,0,2,,,,,0,,,56,115
16765,set_tempo,,,,,10,1,0,,1558441,,,,,,,
16776,note_on,,,,,16,0,2,,,,,0,,,56,0
16776,note_on,,,,,0,0,2,,,,,0,,,44,0
16780,note_on,,,,,4,0,2,,,,,0,,,43,115
16780,note_on,,,,,0,0,2,,,,,0,,,55,115
16795,control_change,,,,,15,0,2,,,,,0,64,0,,
16795,set_tempo,,,,,30,1,0,,1554404,,,,,,,
16795,control_change,,,,,115,0,1,,,,,0,64,0,,
16796,note_on,,,,,1,0,2,,,,,0,,,55,0
16796,note_on,,,,,0,0,2,,,,,0,,,43,0
16800,note_on,,,,,5,0,1,,,,,0,,,79,0
16800,note_on,,,,,0,0,1,,,,,0,,,72,124
16800,note_on,,,,,0,0,1,,,,,0,,,72,0
16800,note_on,,,,,0,0,1,,,,,0,,,76,0
16800,control_change,,,,,0,0,1,,,,,0,64,96,,
16800,note_on,,,,,0,0,1,,,,,0,,,67,0
16800,note_on,,,,,0,0,1,,,,,0,,,77,124
16800,note_on,,,,,0,0,1,,,,,0,,,84,124
16800,note_on,,,,,4,0,2,,,,,0,,,44,119
16800,note_on,,,,,0,0,2,,,,,0,,,56,119
16800,control_change,,,,,0,0,2,,,,,0,64,96,,
16805,set_tempo,,,,,10,1,0,,1550387,,,,,,,
16815,set_tempo,,,,,10,1,0,,1546391,,,,,,,
16816,note_on,,,,,16,0,2,,,,,0,,,56,0
16816,note_on,,,,,0,0,2,,,,,0,,,44,0
16820,set_tempo,,,,,5,1,0,,1542416,,,,,,,
16820,note_on,,,,,4,0,2,,,,,0,,,46,119
16820,note_on,,,,,0,0,2,,,,,0,,,58,119
16836,note_on,,,,,16,0,2,,,,,0,,,58,0
16836,note_on,,,,,0,0,2,,,,,0,,,46,0
16840,note_on,,,,,0,0,2,,,,,0,,,56,117
16840,note_on,,,,,4,0,2,,,,,0,,,44,117
16855,set_tempo,,,,,35,1,0,,1538461,,,,,,,
16856,note_on,,,,,0,0,2,,,,,0,,,44,0
16856,note_on,,,,,16,0,2,,,,,0,,,56,0
16860,set_tempo,,,,,5,1,0,,1534526,,,,,,,
16860,note_on,,,,,4,0,2,,,,,0,,,43,112
16860,note_on,,,,,0,0,2,,,,,0,,,55,112
16870,set_tempo,,,,,10,1,0,,1530612,,,,,,,
16875,set_tempo,,,,,5,1,0,,1526717,,,,,,,
16876,note_on,,,,,0,0,2,,,,,0,,,43,0
16876,note_on,,,,,16,0,2,,,,,0,,,55,0
16880,note_on,,,,,0,0,2,,,,,0,,,56,104
16880,note_on,,,,,4,0,2,,,,,0,,,44,104
16890,note_on,,,,,0,0,1,,,,,0,,,77,0
16890,note_on,,,,,0,0,1,,,,,0,,,72,0
16890,note_on,,,,,90,0,1,,,,,0,,,84,0
16896,note_on,,,,,0,0,2,,,,,0,,,44,0
16896,note_on,,,,,16,0,2,,,,,0,,,56,0
16900,note_on,,,,,0,0,2,,,,,0,,,58,96
16900,note_on,,,,,4,0,2,,,,,0,,,46,96
16905,note_on,,,,,15,0,1,,,,,0,,,73,121
16905,note_on,,,,,0,0,1,,,,,0,,,77,121
16905,note_on,,,,,0,0,1,,,,,0,,,85,121
16905,control_change,,,,,0,0,1,,,,,0,64,0,,
16905,set_tempo,,,,,30,1,0,,1522842,,,,,,,
16905,control_change,,,,,5,0,2,,,,,0,64,0,,
16916,note_on,,,,,11,0,2,,,,,0,,,58,0
16916,note_on,,,,,0,0,2,,,,,0,,,46,0
16920,note_on,,,,,0,0,2,,,,,0,,,56,96
16920,note_on,,,,,0,0,1,,,,,0,,,84,118
16920,note_on,,,,,0,0,1,,,,,0,,,77,118
16920,note_on,,,,,0,0,1,,,,,0,,,73,0
16920,note_on,,,,,0,0,1,,,,,0,,,77,0
16920,note_on,,,,,15,0,1,,,,,0,,,85,0
16920,note_on,,,,,4,0,2,,,,,0,,,44,96
16920,note_on,,,,,0,0,1,,,,,0,,,72,118
16935,set_tempo,,,,,30,1,0,,1515151,,,,,,,
16936,note_on,,,,,16,0,2,,,,,0,,,56,0
16936,note_on,,,,,0,0,2,,,,,0,,,44,0
16940,note_on,,,,,4,0,2,,,,,0,,,43,97
16940,note_on,,,,,0,0,2,,,,,0,,,55,97
16945,set_tempo,,,,,10,1,0,,1511335,,,,,,,
16956,note_on,,,,,16,0,2,,,,,0,,,55,0
16956,note_on,,,,,0,0,2,,,,,0,,,43,0
16960,note_on,,,,,4,0,2,,,,,0,,,41,98
16960,note_on,,,,,0,0,2,,,,,0,,,53,98
16960,set_tempo,,,,,15,1,0,,1507537,,,,,,,
16965,note_on,,,,,45,0,1,,,,,0,,,84,0
16965,note_on,,,,,0,0,1,,,,,0,,,77,0
16965,note_on,,,,,0,0,1,,,,,0,,,72,0
16976,note_on,,,,,0,0,2,,,,,0,,,41,0
16976,note_on,,,,,16,0,2,,,,,0,,,53,0
16980,set_tempo,,,,,20,1,0,,1503759,,,,,,,
16980,note_on,,,,,15,0,1,,,,,0,,,92,124
16980,note_on,,,,,0,0,1,,,,,0,,,84,124
16980,control_change,,,,,0,0,1,,,,,0,64,96,,
16980,note_on,,,,,0,0,1,,,,,0,,,80,124
16980,note_on,,,,,0,0,2,,,,,0,,,39,100
16980,note_on,,,,,4,0,2,,,,,0,,,51,100
16980,control_change,,,,,0,0,2,,,,,0,64,96,,
16990,set_tempo,,,,,10,1,0,,1500000,,,,,,,
16996,note_on,,,,,16,0,2,,,,,0,,,39,0
16996,note_on,,,,,0,0,2,,,,,0,,,51,0
17000,note_on,,,,,4,0,2,,,,,0,,,49,102
17000,note_on,,,,,0,0,2,,,,,0,,,37,102
17016,note_on,,,,,0,0,2,,,,,0,,,49,0
17016,note_on,,,,,16,0,2,,,,,0,,,37,0
17020,note_on,,,,,4,0,2,,,,,0,,,36,105
17020,note_on,,,,,0,0,2,,,,,0,,,48,105
17030,set_tempo,,,,,40,1,0,,1496259,,,,,,,
17036,note_on,,,,,0,0,2,,,,,0,,,36,0
17036,note_on,,,,,16,0,2,,,,,0,,,48,0
17037,control_change,,,,,57,0,1,,,,,0,64,0,,
17037,control_change,,,,,1,0,2,,,,,0,64,0,,
17040,control_change,,,,,0,0,2,,,,,0,64,95,,
17040,note_on,,,,,0,0,1,,,,,0,,,92,0
17040,note_on,,,,,3,0,2,,,,,0,,,35,126
17040,note_on,,,,,0,0,1,,,,,0,,,84,0
17040,note_on,,,,,0,0,2,,,,,0,,,47,126
17040,note_on,,,,,3,0,1,,,,,0,,,80,0
17040,control_change,,,,,0,0,1,,,,,0,64,95,,
17040,note_on,,,,,0,0,1,,,,,0,,,79,126
17040,note_on,,,,,0,0,1,,,,,0,,,86,126
17040,note_on,,,,,0,0,1,,,,,0,,,91,126
17045,set_tempo,,,,,15,1,0,,1492537,,,,,,,
17060,note_on,,,,,0,0,2,,,,,0,,,34,108
17060,note_on,,,,,0,0,2,,,,,0,,,46,108
17060,note_on,,,,,20,0,2,,,,,0,,,47,0
17060,note_on,,,,,0,0,2,,,,,0,,,35,0
17076,note_on,,,,,16,0,2,,,,,0,,,46,0
17076,note_on,,,,,0,0,2,,,,,0,,,34,0
17080,note_on,,,,,4,0,2,,,,,0,,,35,109
17080,note_on,,,,,0,0,2,,,,,0,,,47,109
17088,note_on,,,,,0,0,1,,,,,0,,,91,0
17088,note_on,,,,,48,0,1,,,,,0,,,79,0
17088,note_on,,,,,0,0,1,,,,,0,,,86,0
17096,note_on,,,,,16,0,2,,,,,0,,,47,0
17096,note_on,,,,,0,0,2,,,,,0,,,35,0
17097,control_change,,,,,9,0,1,,,,,0,64,0,,
17100,note_on,,,,,0,0,1,,,,,0,,,84,120
17100,note_on,,,,,0,0,1,,,,,0,,,76,120
17100,control_change,,,,,0,0,1,,,,,0,64,95,,
17100,note_on,,,,,4,0,2,,,,,0,,,36,124
17100,note_on,,,,,0,0,2,,,,,0,,,48,124
17100,note_on,,,,,3,0,1,,,,,0,,,88,120
17105,set_tempo,,,,,60,1,0,,1496259,,,,,,,
17115,set_tempo,,,,,10,1,0,,1500000,,,,,,,
17120,note_on,,,,,20,0,2,,,,,0,,,48,0
17120,note_on,,,,,0,0,2,,,,,0,,,36,0
17120,note_on,,,,,0,0,2,,,,,0,,,35,112
17120,note_on,,,,,0,0,2,,,,,0,,,47,112
17125,set_tempo,,,,,10,1,0,,1503759,,,,,,,
17135,set_tempo,,,,,10,1,0,,1507537,,,,,,,
17136,note_on,,,,,0,0,2,,,,,0,,,35,0
17136,note_on,,,,,16,0,2,,,,,0,,,47,0
17140,note_on,,,,,0,0,2,,,,,0,,,48,115
17140,note_on,,,,,4,0,2,,,,,0,,,36,115
17148,note_on,,,,,0,0,1,,,,,0,,,84,0
17148,note_on,,,,,48,0,1,,,,,0,,,76,0
17148,note_on,,,,,0,0,1,,,,,0,,,88,0
17150,set_tempo,,,,,15,1,0,,1511335,,,,,,,
17156,note_on,,,,,16,0,2,,,,,0,,,48,0
17156,note_on,,,,,0,0,2,,,,,0,,,36,0
17157,control_change,,,,,9,0,1,,,,,0,64,0,,
17157,control_change,,,,,1,0,2,,,,,0,64,0,,
17160,control_change,,,,,0,0,2,,,,,0,64,95,,
17160,note_on,,,,,0,0,1,,,,,0,,,77,124
17160,note_on,,,,,0,0,1,,,,,0,,,72,124
17160,control_change,,,,,0,0,1,,,,,0,64,95,,
17160,note_on,,,,,0,0,2,,,,,0,,,49,127
17160,note_on,,,,,3,0,1,,,,,0,,,84,124
17160,note_on,,,,,3,0,2,,,,,0,,,37,127
17160,set_tempo,,,,,10,1,0,,1515151,,,,,,,
17165,set_tempo,,,,,5,1,0,,1518987,,,,,,,
17170,set_tempo,,,,,5,1,0,,1522842,,,,,,,
17175,set_tempo,,,,,5,1,0,,1526717,,,,,,,
17180,note_on,,,,,0,0,2,,,,,0,,,38,116
17180,note_on,,,,,0,0,2,,,,,0,,,50,116
17180,note_on,,,,,0,0,2,,,,,0,,,37,0
17180,note_on,,,,,20,0,2,,,,,0,,,49,0
17185,set_tempo,,,,,10,1,0,,1511335,,,,,,,
17196,note_on,,,,,0,0,2,,,,,0,,,50,0
17196,note_on,,,,,16,0,2,,,,,0,,,38,0
17200,note_on,,,,,0,0,2,,,,,0,,,51,116
17200,note_on,,,,,4,0,2,,,,,0,,,39,116
17208,note_on,,,,,48,0,1,,,,,0,,,72,0
17208,note_on,,,,,0,0,1,,,,,0,,,84,0
17208,note_on,,,,,0,0,1,,,,,0,,,77,0
17215,set_tempo,,,,,30,1,0,,1530612,,,,,,,
17216,note_on,,,,,16,0,2,,,,,0,,,51,0
17216,note_on,,,,,0,0,2,,,,,0,,,39,0
17217,control_change,,,,,9,0,1,,,,,0,64,0,,
17220,note_on,,,,,0,0,2,,,,,0,,,52,127
17220,note_on,,,,,4,0,2,,,,,0,,,40,127
17220,note_on,,,,,3,0,1,,,,,0,,,67,127
17220,note_on,,,,,0,0,1,,,,,0,,,72,127
17220,note_on,,,,,0,0,1,,,,,0,,,79,127
17220,control_change,,,,,0,0,1,,,,,0,64,95,,
17225,set_tempo,,,,,10,1,0,,1550387,,,,,,,
17230,set_tempo,,,,,5,1,0,,1570680,,,,,,,
17240,note_on,,,,,0,0,2,,,,,0,,,53,115
17240,note_on,,,,,0,0,2,,,,,0,,,41,115
17240,set_tempo,,,,,10,1,0,,1657458,,,,,,,
17240,note_on,,,,,20,0,2,,,,,0,,,52,0
17240,note_on,,,,,0,0,2,,,,,0,,,40,0
17250,set_tempo,,,,,10,1,0,,1729106,,,,,,,
17255,set_tempo,,,,,5,1,0,,1807228,,,,,,,
17256,note_on,,,,,16,0,2,,,,,0,,,53,0
17256,note_on,,,,,0,0,2,,,,,0,,,41,0
17260,note_on,,,,,4,0,2,,,,,0,,,40,110
17260,set_tempo,,,,,5,1,0,,2020202,,,,,,,
17260,note_on,,,,,0,0,2,,,,,0,,,52,110
17265,set_tempo,,,,,5,1,0,,2127659,,,,,,,
17268,note_on,,,,,48,0,1,,,,,0,,,79,0
17268,note_on,,,,,0,0,1,,,,,0,,,72,0
17268,note_on,,,,,0,0,1,,,,,0,,,67,0
17270,note_on,,,,,0,0,2,,,,,0,,,40,0
17270,note_on,,,,,10,0,2,,,,,0,,,52,0
17270,control_change,,,,,2,0,1,,,,,0,64,0,,
17270,set_tempo,,,,,5,1,0,,2970297,,,,,,,
17275,control_change,,,,,5,0,2,,,,,0,64,0,,
17280,set_tempo,,,,,10,1,0,,2083333,,,,,,,
17280,note_on,,,,,10,0,1,,,,,0,,,50,50
17280,control_change,,,,,0,0,1,,,,,0,64,95,,
17280,note_on,,,,,0,0,1,,,,,0,,,82,58
17280,note_on,,,,,0,0,1,,,,,0,,,77,58
17280,note_on,,,,,0,0,1,,,,,0,,,70,58
17285,set_tempo,,,,,5,1,0,,1960784,,,,,,,
17290,set_tempo,,,,,5,1,0,,1886792,,,,,,,
17295,set_tempo,,,,,5,1,0,,1851851,,,,,,,
17300,set_tempo,,,,,5,1,0,,1840490,,,,,,,
17300,note_on,,,,,25,0,2,,,,,0,,,53,43
17305,set_tempo,,,,,5,1,0,,1801801,,,,,,,
17310,set_tempo,,,,,5,1,0,,1785714,,,,,,,
17315,set_tempo,,,,,5,1,0,,1754385,,,,,,,
17320,note_on,,,,,20,0,2,,,,,0,,,53,0
17320,note_on,,,,,0,0,2,,,,,0,,,58,46
17320,set_tempo,,,,,5,1,0,,1724137,,,,,,,
17325,set_tempo,,,,,5,1,0,,1680672,,,,,,,
17330,set_tempo,,,,,5,1,0,,1657458,,,,,,,
17340,note_on,,,,,0,0,2,,,,,0,,,53,50
17340,note_on,,,,,20,0,2,,,,,0,,,58,0
17345,set_tempo,,,,,15,1,0,,1634877,,,,,,,
17350,set_tempo,,,,,5,1,0,,1612903,,,,,,,
17360,note_on,,,,,20,0,2,,,,,0,,,53,0
17360,note_on,,,,,0,0,2,,,,,0,,,58,47
17380,note_on,,,,,0,0,2,,,,,0,,,53,41
17380,note_on,,,,,20,0,2,,,,,0,,,58,0
17385,set_tempo,,,,,35,1,0,,1591511,,,,,,,
17390,set_tempo,,,,,5,1,0,,1550387,,,,,,,
17397,control_change,,,,,117,0,1,,,,,0,64,0,,
17400,note_on,,,,,20,0,2,,,,,0,,,53,0
17400,note_on,,,,,0,0,1,,,,,0,,,77,0
17400,note_on,,,,,3,0,1,,,,,0,,,82,0
17400,control_change,,,,,0,0,1,,,,,0,64,96,,
17400,note_on,,,,,0,0,1,,,,,0,,,81,42
17400,note_on,,,,,0,0,1,,,,,0,,,77,42
17400,note_on,,,,,0,0,1,,,,,0,,,69,42
17400,note_on,,,,,0,0,1,,,,,0,,,48,42
17400,note_on,,,,,0,0,1,,,,,0,,,70,0
17400,note_on,,,,,0,0,1,,,,,0,,,50,0
17420,note_on,,,,,20,0,2,,,,,0,,,53,38
17420,set_tempo,,,,,30,1,0,,1530612,,,,,,,
17435,set_tempo,,,,,15,1,0,,1511335,,,,,,,
17440,note_on,,,,,0,0,2,,,,,0,,,60,41
17440,note_on,,,,,20,0,2,,,,,0,,,53,0
17460,note_on,,,,,20,0,2,,,,,0,,,60,0
17460,note_on,,,,,0,0,2,,,,,0,,,53,46
17470,set_tempo,,,,,35,1,0,,1492537,,,,,,,
17475,set_tempo,,,,,5,1,0,,1511335,,,,,,,
17480,note_on,,,,,0,0,2,,,,,0,,,60,49
17480,note_on,,,,,20,0,2,,,,,0,,,53,0
17490,note_on,,,,,90,0,1,,,,,0,,,81,0
17490,note_on,,,,,0,0,1,,,,,0,,,77,0
17490,note_on,,,,,0,0,1,,,,,0,,,69,0
17499,note_on,,,,,19,0,2,,,,,0,,,53,47
17500,note_on,,,,,1,0,2,,,,,0,,,60,0
17505,note_on,,,,,0,0,1,,,,,0,,,70,50
17505,note_on,,,,,15,0,1,,,,,0,,,82,50
17505,control_change,,,,,0,0,1,,,,,0,64,0,,
17519,note_on,,,,,19,0,2,,,,,0,,,53,0
17520,note_on,,,,,0,0,1,,,,,0,,,82,0
17520,note_on,,,,,0,0,1,,,,,0,,,48,0
17520,note_on,,,,,0,0,1,,,,,0,,,46,46
17520,note_on,,,,,0,0,1,,,,,0,,,77,51
17520,note_on,,,,,0,0,1,,,,,0,,,69,51
17520,note_on,,,,,0,0,1,,,,,0,,,81,51
17520,note_on,,,,,15,0,1,,,,,0,,,70,0
17522,control_change,,,,,2,0,1,,,,,0,64,96,,
17540,note_on,,,,,21,0,2,,,,,0,,,53,42
17560,note_on,,,,,0,0,2,,,,,0,,,62,48
17560,note_on,,,,,20,0,2,,,,,0,,,53,0
17575,control_change,,,,,53,0,1,,,,,0,64,0,,
17580,note_on,,,,,0,0,1,,,,,0,,,79,46
17580,note_on,,,,,20,0,2,,,,,0,,,62,0
17580,note_on,,,,,0,0,1,,,,,0,,,69,0
17580,note_on,,,,,5,0,1,,,,,0,,,81,0
17580,note_on,,,,,0,0,1,,,,,0,,,67,46
17580,note_on,,,,,0,0,2,,,,,0,,,53,42
17580,control_change,,,,,0,0,1,,,,,0,64,95,,
17600,note_on,,,,,0,0,2,,,,,0,,,62,38
17600,note_on,,,,,20,0,2,,,,,0,,,53,0
17620,note_on,,,,,20,0,2,,,,,0,,,62,0
17620,note_on,,,,,0,0,2,,,,,0,,,53,35
17640,note_on,,,,,0,0,1,,,,,0,,,46,45
17640,note_on,,,,,20,0,2,,,,,0,,,53,0
17640,note_on,,,,,60,0,1,,,,,0,,,46,0
17660,note_on,,,,,20,0,2,,,,,0,,,53,49
17670,note_on,,,,,30,0,1,,,,,0,,,77,0
17670,note_on,,,,,0,0,1,,,,,0,,,79,0
17670,note_on,,,,,0,0,1,,,,,0,,,67,0
17680,note_on,,,,,0,0,2,,,,,0,,,62,46
17680,note_on,,,,,20,0,2,,,,,0,,,53,0
17695,set_tempo,,,,,220,1,0,,1530612,,,,,,,
17697,control_change,,,,,27,0,1,,,,,0,64,0,,
17700,note_on,,,,,0,0,1,,,,,0,,,68,46
17700,note_on,,,,,0,0,1,,,,,0,,,77,46
17700,note_on,,,,,0,0,1,,,,,0,,,80,46
17700,note_on,,,,,3,0,1,,,,,0,,,46,0
17700,note_on,,,,,0,0,1,,,,,0,,,47,46
17700,note_on,,,,,20,0,2,,,,,0,,,62,0
17700,control_change,,,,,0,0,1,,,,,0,64,95,,
17705,set_tempo,,,,,10,1,0,,1550387,,,,,,,
17720,note_on,,,,,20,0,2,,,,,0,,,53,44
17735,set_tempo,,,,,30,1,0,,1570680,,,,,,,
17739,note_on,,,,,19,0,2,,,,,0,,,62,36
17740,note_on,,,,,1,0,2,,,,,0,,,53,0
17757,control_change,,,,,57,0,1,,,,,0,64,0,,
17759,note_on,,,,,19,0,2,,,,,0,,,62,0
17760,control_change,,,,,0,0,1,,,,,0,64,94,,
17760,note_on,,,,,3,0,1,,,,,0,,,80,0
17760,note_on,,,,,0,0,1,,,,,0,,,47,0
17760,note_on,,,,,0,0,1,,,,,0,,,68,0
17760,note_on,,,,,0,0,1,,,,,0,,,77,0
17760,note_on,,,,,0,0,1,,,,,0,,,48,47
17760,note_on,,,,,0,0,1,,,,,0,,,65,50
17760,note_on,,,,,0,0,1,,,,,0,,,72,50
17760,note_on,,,,,0,0,1,,,,,0,,,77,50
17780,note_on,,,,,21,0,2,,,,,0,,,57,40
17800,note_on,,,,,0,0,2,,,,,0,,,60,44
17800,note_on,,,,,20,0,2,,,,,0,,,57,0
17820,note_on,,,,,0,0,2,,,,,0,,,57,47
17820,note_on,,,,,20,0,2,,,,,0,,,60,0
17840,note_on,,,,,0,0,2,,,,,0,,,60,44
17840,note_on,,,,,20,0,2,,,,,0,,,57,0
17860,note_on,,,,,0,0,2,,,,,0,,,57,38
17860,note_on,,,,,20,0,2,,,,,0,,,60,0
17877,control_change,,,,,117,0,1,,,,,0,64,0,,
17880,note_on,,,,,0,0,1,,,,,0,,,72,50
17880,note_on,,,,,0,0,1,,,,,0,,,46,47
17880,note_on,,,,,0,0,1,,,,,0,,,72,0
17880,note_on,,,,,0,0,1,,,,,0,,,76,50
17880,note_on,,,,,20,0,2,,,,,0,,,57,0
17880,note_on,,,,,0,0,1,,,,,0,,,64,50
17880,note_on,,,,,3,0,1,,,,,0,,,77,0
17880,note_on,,,,,0,0,1,,,,,0,,,48,0
17880,note_on,,,,,0,0,1,,,,,0,,,65,0
17900,note_on,,,,,20,0,2,,,,,0,,,55,40
17920,note_on,,,,,0,0,2,,,,,0,,,60,46
17920,note_on,,,,,20,0,2,,,,,0,,,55,0
17925,note_on,,,,,45,0,1,,,,,0,,,76,0
17925,note_on,,,,,0,0,1,,,,,0,,,77,49
17930,note_on,,,,,0,0,1,,,,,0,,,76,50
17930,note_on,,,,,5,0,1,,,,,0,,,77,0
17935,note_on,,,,,0,0,1,,,,,0,,,74,51
17935,note_on,,,,,5,0,1,,,,,0,,,76,0
17940,note_on,,,,,20,0,2,,,,,0,,,60,0
17940,note_on,,,,,5,0,1,,,,,0,,,74,0
17940,note_on,,,,,0,0,1,,,,,0,,,76,52
17940,note_on,,,,,0,0,2,,,,,0,,,55,50
17960,note_on,,,,,20,0,2,,,,,0,,,55,0
17960,note_on,,,,,0,0,2,,,,,0,,,60,45
17970,note_on,,,,,0,0,1,,,,,0,,,72,63
17970,note_on,,,,,30,0,1,,,,,0,,,76,0
17970,note_on,,,,,0,0,1,,,,,0,,,64,0
17970,note_on,,,,,0,0,1,,,,,0,,,84,63
17970,note_on,,,,,0,0,1,,,,,0,,,72,0
17979,note_on,,,,,19,0,2,,,,,0,,,55,43
17980,note_on,,,,,1,0,2,,,,,0,,,60,0
17999,note_on,,,,,19,0,2,,,,,0,,,55,0
18000,note_on,,,,,30,0,1,,,,,0,,,84,0
18000,note_on,,,,,0,0,1,,,,,0,,,77,66
18000,note_on,,,,,0,0,1,,,,,0,,,72,0
18000,note_on,,,,,0,0,1,,,,,0,,,46,0
18000,note_on,,,,,0,0,1,,,,,0,,,72,76
18000,note_on,,,,,0,0,1,,,,,0,,,84,76
18000,note_on,,,,,0,0,1,,,,,0,,,45,56
18000,control_change,,,,,0,0,1,,,,,0,64,95,,
18020,note_on,,,,,21,0,2,,,,,0,,,53,45
18040,note_on,,,,,20,0,2,,,,,0,,,53,0
18040,note_on,,,,,0,0,2,,,,,0,,,60,51
18060,note_on,,,,,0,0,2,,,,,0,,,53,53
18060,note_on,,,,,20,0,2,,,,,0,,,60,0
18080,note_on,,,,,20,0,2,,,,,0,,,53,0
18080,note_on,,,,,0,0,2,,,,,0,,,60,49
18100,note_on,,,,,0,0,2,,,,,0,,,53,43
18100,note_on,,,,,20,0,2,,,,,0,,,60,0
18117,control_change,,,,,117,0,1,,,,,0,64,0,,
18120,note_on,,,,,0,0,1,,,,,0,,,78,84
18120,note_on,,,,,0,0,1,,,,,0,,,87,90
18120,note_on,,,,,0,0,1,,,,,0,,,45,0
18120,note_on,,,,,20,0,2,,,,,0,,,53,0
18120,note_on,,,,,0,0,1,,,,,0,,,72,0
18120,note_on,,,,,3,0,1,,,,,0,,,77,0
18120,control_change,,,,,0,0,1,,,,,0,64,96,,
18120,note_on,,,,,0,0,1,,,,,0,,,45,70
18120,note_on,,,,,0,0,1,,,,,0,,,84,0
18120,note_on,,,,,0,0,1,,,,,0,,,75,90
18140,note_on,,,,,20,0,2,,,,,0,,,54,43
18160,note_on,,,,,20,0,2,,,,,0,,,54,0
18160,note_on,,,,,0,0,2,,,,,0,,,63,48
18180,note_on,,,,,20,0,2,,,,,0,,,63,0
18180,note_on,,,,,0,0,2,,,,,0,,,54,49
18200,note_on,,,,,20,0,2,,,,,0,,,54,0
18200,note_on,,,,,0,0,2,,,,,0,,,63,49
18220,note_on,,,,,20,0,2,,,,,0,,,63,0
18220,note_on,,,,,0,0,2,,,,,0,,,54,45
18237,control_change,,,,,117,0,1,,,,,0,64,0,,
18240,note_on,,,,,0,0,2,,,,,0,,,46,44
18240,note_on,,,,,20,0,2,,,,,0,,,54,0
18240,note_on,,,,,0,0,1,,,,,0,,,79,61
18240,note_on,,,,,3,0,1,,,,,0,,,45,0
18240,note_on,,,,,0,0,1,,,,,0,,,78,0
18250,set_tempo,,,,,515,1,0,,1591511,,,,,,,
18260,note_on,,,,,20,0,2,,,,,0,,,55,39
18265,set_tempo,,,,,15,1,0,,1612903,,,,,,,
18270,set_tempo,,,,,5,1,0,,1634877,,,,,,,
18270,note_on,,,,,30,0,1,,,,,0,,,87,0
18270,note_on,,,,,0,0,1,,,,,0,,,75,0
18270,note_on,,,,,0,0,1,,,,,0,,,74,58
18270,note_on,,,,,0,0,1,,,,,0,,,86,58
18280,note_on,,,,,20,0,2,,,,,0,,,55,0
18280,note_on,,,,,0,0,2,,,,,0,,,58,42
18285,set_tempo,,,,,15,1,0,,1657458,,,,,,,
18290,set_tempo,,,,,5,1,0,,1680672,,,,,,,
18300,note_on,,,,,0,0,1,,,,,0,,,82,53
18300,note_on,,,,,0,0,1,,,,,0,,,79,0
18300,note_on,,,,,0,0,1,,,,,0,,,70,53
18300,note_on,,,,,30,0,1,,,,,0,,,86,0
18300,note_on,,,,,0,0,1,,,,,0,,,74,0
18300,note_on,,,,,20,0,2,,,,,0,,,58,0
18300,note_on,,,,,0,0,2,,,,,0,,,55,45
18305,set_tempo,,,,,15,1,0,,1704545,,,,,,,
18320,set_tempo,,,,,15,1,0,,1729106,,,,,,,
18320,note_on,,,,,0,0,2,,,,,0,,,58,48
18320,note_on,,,,,20,0,2,,,,,0,,,55,0
18330,note_on,,,,,0,0,1,,,,,0,,,81,51
18330,note_on,,,,,0,0,1,,,,,0,,,69,51
18330,note_on,,,,,0,0,1,,,,,0,,,70,0
18330,note_on,,,,,30,0,1,,,,,0,,,82,0
18340,set_tempo,,,,,20,1,0,,1754385,,,,,,,
18340,note_on,,,,,20,0,2,,,,,0,,,58,0
18340,note_on,,,,,0,0,2,,,,,0,,,62,51
18350,set_tempo,,,,,10,1,0,,1780415,,,,,,,
18350,note_on,,,,,10,0,2,,,,,0,,,46,0
18355,set_tempo,,,,,5,1,0,,1807228,,,,,,,
18360,note_on,,,,,0,0,2,,,,,0,,,48,53
18360,note_on,,,,,10,0,2,,,,,0,,,62,0
18360,note_on,,,,,30,0,1,,,,,0,,,81,0
18360,note_on,,,,,0,0,1,,,,,0,,,69,0
18360,note_on,,,,,0,0,1,,,,,0,,,67,49
18360,note_on,,,,,0,0,1,,,,,0,,,79,49
18360,control_change,,,,,0,0,1,,,,,0,64,95,,
18370,set_tempo,,,,,15,1,0,,1834862,,,,,,,
18375,set_tempo,,,,,5,1,0,,1863354,,,,,,,
18380,note_on,,,,,0,0,2,,,,,0,,,55,51
18380,note_on,,,,,20,0,2,,,,,0,,,48,0
18390,set_tempo,,,,,15,1,0,,1892744,,,,,,,
18400,note_on,,,,,20,0,2,,,,,0,,,55,0
18400,note_on,,,,,0,0,2,,,,,0,,,58,45
18400,set_tempo,,,,,10,1,0,,1923076,,,,,,,
18420,note_on,,,,,0,0,1,,,,,0,,,72,46
18420,note_on,,,,,0,0,1,,,,,0,,,84,46
18420,note_on,,,,,0,0,1,,,,,0,,,67,0
18420,note_on,,,,,60,0,1,,,,,0,,,79,0
18420,note_on,,,,,0,0,2,,,,,0,,,55,39
18420,note_on,,,,,20,0,2,,,,,0,,,58,0
18425,set_tempo,,,,,25,1,0,,1954397,,,,,,,
18440,note_on,,,,,0,0,2,,,,,0,,,58,34
18440,set_tempo,,,,,15,1,0,,2054794,,,,,,,
18440,note_on,,,,,20,0,2,,,,,0,,,55,0
18445,set_tempo,,,,,5,1,0,,2020202,,,,,,,
18450,set_tempo,,,,,5,1,0,,1954397,,,,,,,
18455,set_tempo,,,,,5,1,0,,1923076,,,,,,,
18460,note_on,,,,,0,0,2,,,,,0,,,64,30
18460,note_on,,,,,20,0,2,,,,,0,,,58,0
18465,set_tempo,,,,,10,1,0,,1892744,,,,,,,
18475,set_tempo,,,,,10,1,0,,1834862,,,,,,,
18477,control_change,,,,,57,0,1,,,,,0,64,0,,
18480,note_on,,,,,0,0,2,,,,,0,,,41,29
18480,note_on,,,,,20,0,2,,,,,0,,,64,0
18480,note_on,,,,,3,0,1,,,,,0,,,72,0
18480,note_on,,,,,0,0,1,,,,,0,,,84,0
18480,note_on,,,,,0,0,1,,,,,0,,,77,46
18480,note_on,,,,,0,0,1,,,,,0,,,65,46
18480,control_change,,,,,0,0,1,,,,,0,64,95,,
18485,set_tempo,,,,,10,1,0,,1807228,,,,,,,
18490,set_tempo,,,,,5,1,0,,1780415,,,,,,,
18495,note_on,,,,,0,0,2,,,,,0,,,53,28
18495,note_on,,,,,15,0,2,,,,,0,,,41,0
18505,set_tempo,,,,,15,1,0,,1754385,,,,,,,
18510,note_on,,,,,15,0,2,,,,,0,,,53,0
18510,note_on,,,,,0,0,2,,,,,0,,,41,28
18515,set_tempo,,,,,10,1,0,,1729106,,,,,,,
18525,note_on,,,,,0,0,2,,,,,0,,,53,28
18525,note_on,,,,,15,0,2,,,,,0,,,41,0
18525,set_tempo,,,,,10,1,0,,1704545,,,,,,,
18537,control_change,,,,,57,0,1,,,,,0,64,0,,
18540,set_tempo,,,,,15,1,0,,1680672,,,,,,,
18540,note_on,,,,,15,0,2,,,,,0,,,53,0
18540,control_change,,,,,3,0,1,,,,,0,64,95,,
18540,note_on,,,,,0,0,2,,,,,0,,,43,28
18550,set_tempo,,,,,10,1,0,,1657458,,,,,,,
18555,note_on,,,,,0,0,2,,,,,0,,,53,28
18555,note_on,,,,,15,0,2,,,,,0,,,43,0
18565,set_tempo,,,,,15,1,0,,1634877,,,,,,,
18570,note_on,,,,,0,0,2,,,,,0,,,43,28
18570,note_on,,,,,15,0,2,,,,,0,,,53,0
18570,set_tempo,,,,,5,1,0,,1612903,,,,,,,
18580,set_tempo,,,,,10,1,0,,1591511,,,,,,,
18585,note_on,,,,,15,0,2,,,,,0,,,43,0
18585,note_on,,,,,0,0,2,,,,,0,,,53,28
18590,set_tempo,,,,,10,1,0,,1570680,,,,,,,
18595,control_change,,,,,55,0,1,,,,,0,64,0,,
18600,note_on,,,,,15,0,2,,,,,0,,,53,0
18600,control_change,,,,,0,0,1,,,,,0,64,96,,
18600,note_on,,,,,0,0,2,,,,,0,,,44,28
18600,note_on,,,,,5,0,1,,,,,0,,,77,0
18600,note_on,,,,,0,0,1,,,,,0,,,65,0
18615,note_on,,,,,0,0,2,,,,,0,,,53,28
18615,note_on,,,,,15,0,2,,,,,0,,,44,0
18625,set_tempo,,,,,35,1,0,,1550387,,,,,,,
18630,note_on,,,,,15,0,2,,,,,0,,,53,0
18630,note_on,,,,,0,0,2,,,,,0,,,44,28
18645,note_on,,,,,0,0,2,,,,,0,,,53,28
18645,note_on,,,,,15,0,2,,,,,0,,,44,0
18657,control_change,,,,,57,0,1,,,,,0,64,0,,
18660,note_on,,,,,0,0,2,,,,,0,,,45,28
18660,note_on,,,,,15,0,2,,,,,0,,,53,0
18660,note_on,,,,,3,0,1,,,,,0,,,65,49
18660,control_change,,,,,0,0,1,,,,,0,64,96,,
18675,note_on,,,,,15,0,2,,,,,0,,,45,0
18675,note_on,,,,,0,0,2,,,,,0,,,53,28
18690,note_on,,,,,0,0,2,,,,,0,,,45,28
18690,note_on,,,,,15,0,2,,,,,0,,,53,0
18705,note_on,,,,,0,0,2,,,,,0,,,53,27
18705,note_on,,,,,15,0,2,,,,,0,,,45,0
18717,control_change,,,,,57,0,1,,,,,0,64,0,,
18720,note_on,,,,,0,0,2,,,,,0,,,46,27
18720,note_on,,,,,0,0,1,,,,,0,,,67,42
18720,note_on,,,,,0,0,1,,,,,0,,,55,42
18720,note_on,,,,,3,0,1,,,,,0,,,65,0
18720,note_on,,,,,15,0,2,,,,,0,,,53,0
18722,control_change,,,,,2,0,1,,,,,0,64,95,,
18735,note_on,,,,,15,0,2,,,,,0,,,46,0
18735,note_on,,,,,0,0,2,,,,,0,,,53,28
18750,note_on,,,,,15,0,2,,,,,0,,,53,0
18750,set_tempo,,,,,125,1,0,,1530612,,,,,,,
18750,note_on,,,,,0,0,2,,,,,0,,,46,29
18765,note_on,,,,,0,0,2,,,,,0,,,53,31
18765,note_on,,,,,15,0,2,,,,,0,,,46,0
18777,control_change,,,,,55,0,1,,,,,0,64,0,,
18780,set_tempo,,,,,30,1,0,,1511335,,,,,,,
18780,note_on,,,,,0,0,2,,,,,0,,,48,31
18780,note_on,,,,,15,0,2,,,,,0,,,53,0
18780,control_change,,,,,3,0,1,,,,,0,64,95,,
18795,note_on,,,,,0,0,2,,,,,0,,,53,32
18795,note_on,,,,,15,0,2,,,,,0,,,48,0
18810,note_on,,,,,0,0,2,,,,,0,,,48,33
18810,note_on,,,,,0,0,1,,,,,0,,,55,0
18810,note_on,,,,,15,0,2,,,,,0,,,53,0
18810,note_on,,,,,30,0,1,,,,,0,,,67,0
18825,note_on,,,,,15,0,1,,,,,0,,,56,46
18825,note_on,,,,,0,0,2,,,,,0,,,53,34
18825,note_on,,,,,15,0,2,,,,,0,,,48,0
18825,note_on,,,,,0,0,1,,,,,0,,,68,46
18837,control_change,,,,,12,0,1,,,,,0,64,0,,
18840,note_on,,,,,3,0,1,,,,,0,,,68,0
18840,note_on,,,,,0,0,1,,,,,0,,,56,0
18840,note_on,,,,,0,0,1,,,,,0,,,55,46
18840,note_on,,,,,0,0,2,,,,,0,,,49,35
18840,note_on,,,,,0,0,1,,,,,0,,,67,46
18840,control_change,,,,,0,0,1,,,,,0,64,95,,
18840,note_on,,,,,15,0,2,,,,,0,,,53,0
18855,note_on,,,,,15,0,2,,,,,0,,,49,0
18855,note_on,,,,,0,0,2,,,,,0,,,53,36
18860,set_tempo,,,,,80,1,0,,1492537,,,,,,,
18870,note_on,,,,,15,0,2,,,,,0,,,53,0
18870,note_on,,,,,0,0,2,,,,,0,,,49,37
18885,note_on,,,,,15,0,2,,,,,0,,,49,0
18885,note_on,,,,,0,0,2,,,,,0,,,53,38
18895,control_change,,,,,55,0,1,,,,,0,64,0,,
18900,note_on,,,,,0,0,1,,,,,0,,,55,47
18900,note_on,,,,,0,0,1,,,,,0,,,55,0
18900,note_on,,,,,5,0,1,,,,,0,,,67,0
18900,control_change,,,,,0,0,1,,,,,0,64,96,,
18900,note_on,,,,,0,0,1,,,,,0,,,67,47
18900,note_on,,,,,15,0,2,,,,,0,,,53,0
18900,note_on,,,,,0,0,2,,,,,0,,,46,39
18915,note_on,,,,,15,0,2,,,,,0,,,46,0
18915,note_on,,,,,0,0,2,,,,,0,,,53,39
18930,note_on,,,,,0,0,2,,,,,0,,,48,40
18930,note_on,,,,,15,0,2,,,,,0,,,53,0
18945,note_on,,,,,0,0,2,,,,,0,,,53,42
18945,note_on,,,,,15,0,2,,,,,0,,,48,0
18950,note_on,,,,,0,0,1,,,,,0,,,55,0
18950,note_on,,,,,50,0,1,,,,,0,,,67,0
18957,control_change,,,,,7,0,1,,,,,0,64,0,,
18960,control_change,,,,,0,0,1,,,,,0,64,95,,
18960,note_on,,,,,0,0,1,,,,,0,,,67,51
18960,note_on,,,,,3,0,1,,,,,0,,,55,51
18960,note_on,,,,,15,0,2,,,,,0,,,53,0
18960,note_on,,,,,0,0,2,,,,,0,,,49,42
18975,note_on,,,,,15,0,2,,,,,0,,,49,0
18975,note_on,,,,,0,0,2,,,,,0,,,53,43
18990,note_on,,,,,0,0,2,,,,,0,,,49,43
18990,note_on,,,,,15,0,2,,,,,0,,,53,0
19005,note_on,,,,,0,0,2,,,,,0,,,53,41
19005,note_on,,,,,0,0,1,,,,,0,,,68,48
19005,note_on,,,,,45,0,1,,,,,0,,,67,0
19005,note_on,,,,,15,0,2,,,,,0,,,49,0
19005,note_on,,,,,0,0,1,,,,,0,,,56,48
19005,note_on,,,,,0,0,1,,,,,0,,,55,0
19017,control_change,,,,,12,0,1,,,,,0,64,0,,
19020,note_on,,,,,3,0,1,,,,,0,,,68,0
19020,note_on,,,,,0,0,1,,,,,0,,,56,0
19020,note_on,,,,,0,0,1,,,,,0,,,70,47
19020,note_on,,,,,0,0,2,,,,,0,,,48,41
19020,note_on,,,,,0,0,1,,,,,0,,,58,47
19020,note_on,,,,,15,0,2,,,,,0,,,53,0
19020,control_change,,,,,0,0,1,,,,,0,64,95,,
19035,note_on,,,,,0,0,2,,,,,0,,,53,38
19035,note_on,,,,,15,0,2,,,,,0,,,48,0
19045,set_tempo,,,,,185,1,0,,1474201,,,,,,,
19050,note_on,,,,,15,0,2,,,,,0,,,53,0
19050,note_on,,,,,0,0,2,,,,,0,,,48,38
19065,note_on,,,,,45,0,1,,,,,0,,,70,0
19065,note_on,,,,,0,0,1,,,,,0,,,58,0
19065,note_on,,,,,0,0,1,,,,,0,,,60,46
19065,note_on,,,,,0,0,1,,,,,0,,,72,46
19065,note_on,,,,,0,0,2,,,,,0,,,53,37
19065,note_on,,,,,15,0,2,,,,,0,,,48,0
19077,control_change,,,,,12,0,1,,,,,0,64,0,,
19080,note_on,,,,,15,0,2,,,,,0,,,53,0
19080,note_on,,,,,0,0,2,,,,,0,,,46,36
19080,note_on,,,,,3,0,1,,,,,0,,,72,0
19080,note_on,,,,,0,0,1,,,,,0,,,60,0
19080,note_on,,,,,0,0,1,,,,,0,,,61,46
19080,control_change,,,,,0,0,1,,,,,0,64,95,,
19080,note_on,,,,,0,0,1,,,,,0,,,73,46
19095,note_on,,,,,0,0,2,,,,,0,,,53,36
19095,note_on,,,,,15,0,2,,,,,0,,,46,0
19110,note_on,,,,,15,0,2,,,,,0,,,53,0
19110,note_on,,,,,0,0,2,,,,,0,,,46,34
19125,note_on,,,,,15,0,2,,,,,0,,,46,0
19125,note_on,,,,,0,0,2,,,,,0,,,53,34
19125,set_tempo,,,,,80,1,0,,1456310,,,,,,,
19137,control_change,,,,,57,0,1,,,,,0,64,0,,
19140,note_on,,,,,3,0,1,,,,,0,,,73,0
19140,note_on,,,,,0,0,1,,,,,0,,,61,0
19140,note_on,,,,,0,0,2,,,,,0,,,47,34
19140,note_on,,,,,0,0,1,,,,,0,,,55,41
19140,note_on,,,,,0,0,1,,,,,0,,,67,41
19140,note_on,,,,,15,0,2,,,,,0,,,53,0
19140,control_change,,,,,0,0,1,,,,,0,64,95,,
19155,note_on,,,,,0,0,2,,,,,0,,,53,34
19155,note_on,,,,,15,0,2,,,,,0,,,47,0
19170,note_on,,,,,15,0,2,,,,,0,,,53,0
19170,note_on,,,,,0,0,2,,,,,0,,,47,34
19185,note_on,,,,,15,0,2,,,,,0,,,47,0
19185,set_tempo,,,,,60,1,0,,1438848,,,,,,,
19185,note_on,,,,,0,0,2,,,,,0,,,53,34
19190,note_on,,,,,0,0,1,,,,,0,,,55,0
19190,note_on,,,,,50,0,1,,,,,0,,,67,0
19197,control_change,,,,,7,0,1,,,,,0,64,0,,
19200,note_on,,,,,15,0,2,,,,,0,,,53,0
19200,note_on,,,,,3,0,1,,,,,0,,,55,56
19200,note_on,,,,,0,0,1,,,,,0,,,67,56
19200,control_change,,,,,0,0,1,,,,,0,64,95,,
19200,note_on,,,,,0,0,2,,,,,0,,,48,34
19215,note_on,,,,,0,0,2,,,,,0,,,52,35
19215,note_on,,,,,15,0,2,,,,,0,,,48,0
19230,note_on,,,,,15,0,2,,,,,0,,,52,0
19230,note_on,,,,,0,0,2,,,,,0,,,48,41
19235,set_tempo,,,,,50,1,0,,1421800,,,,,,,
19245,note_on,,,,,0,0,2,,,,,0,,,52,45
19245,note_on,,,,,15,0,2,,,,,0,,,48,0
19257,control_change,,,,,57,0,1,,,,,0,64,0,,
19260,control_change,,,,,3,0,1,,,,,0,64,95,,
19260,note_on,,,,,0,0,2,,,,,0,,,49,48
19260,note_on,,,,,15,0,2,,,,,0,,,52,0
19275,note_on,,,,,0,0,2,,,,,0,,,52,48
19275,note_on,,,,,15,0,2,,,,,0,,,49,0
19290,note_on,,,,,15,0,2,,,,,0,,,52,0
19290,note_on,,,,,0,0,2,,,,,0,,,49,50
19300,set_tempo,,,,,65,1,0,,1405152,,,,,,,
19305,note_on,,,,,15,0,2,,,,,0,,,49,0
19305,note_on,,,,,0,0,2,,,,,0,,,52,58
19317,control_change,,,,,57,0,1,,,,,0,64,0,,
19320,note_on,,,,,0,0,2,,,,,0,,,48,62
19320,note_on,,,,,15,0,2,,,,,0,,,52,0
19320,control_change,,,,,3,0,1,,,,,0,64,95,,
19335,note_on,,,,,15,0,2,,,,,0,,,48,0
19335,note_on,,,,,0,0,2,,,,,0,,,52,71
19350,note_on,,,,,0,0,2,,,,,0,,,48,81
19350,note_on,,,,,15,0,2,,,,,0,,,52,0
19365,note_on,,,,,15,0,2,,,,,0,,,48,0
19365,set_tempo,,,,,65,1,0,,1388888,,,,,,,
19365,note_on,,,,,0,0,2,,,,,0,,,52,85
19375,control_change,,,,,55,0,1,,,,,0,64,0,,
19380,note_on,,,,,0,0,2,,,,,0,,,46,91
19380,note_on,,,,,0,0,1,,,,,0,,,55,0
19380,note_on,,,,,15,0,2,,,,,0,,,52,0
19380,control_change,,,,,0,0,1,,,,,0,64,95,,
19380,note_on,,,,,5,0,1,,,,,0,,,67,0
19380,note_on,,,,,0,0,1,,,,,0,,,72,82
19380,note_on,,,,,0,0,1,,,,,0,,,60,82
19395,note_on,,,,,0,0,2,,,,,0,,,52,96
19395,note_on,,,,,15,0,2,,,,,0,,,46,0
19410,note_on,,,,,0,0,2,,,,,0,,,46,99
19410,note_on,,,,,15,0,2,,,,,0,,,52,0
19425,note_on,,,,,0,0,2,,,,,0,,,52,103
19425,note_on,,,,,15,0,2,,,,,0,,,46,0
19435,control_change,,,,,55,0,1,,,,,0,64,0,,
19440,note_on,,,,,0,0,2,,,,,0,,,32,109
19440,set_tempo,,,,,75,1,0,,1769911,,,,,,,
19440,note_on,,,,,0,0,2,,,,,0,,,44,109
19440,control_change,,,,,0,0,1,,,,,0,64,95,,
19440,note_on,,,,,0,0,1,,,,,0,,,65,123
19440,note_on,,,,,0,0,1,,,,,0,,,77,123
19440,note_on,,,,,0,0,1,,,,,0,,,60,0
19440,note_on,,,,,5,0,1,,,,,0,,,72,0
19440,note_on,,,,,15,0,2,,,,,0,,,52,0
19450,set_tempo,,,,,10,1,0,,1604278,,,,,,,
19458,note_on,,,,,0,0,2,,,,,0,,,32,0
19458,note_on,,,,,18,0,2,,,,,0,,,44,0
19460,note_on,,,,,2,0,2,,,,,0,,,44,89
19460,note_on,,,,,0,0,2,,,,,0,,,48,89
19478,note_on,,,,,18,0,2,,,,,0,,,48,0
19478,note_on,,,,,0,0,2,,,,,0,,,44,0
19480,note_on,,,,,2,0,2,,,,,0,,,44,78
19480,note_on,,,,,0,0,2,,,,,0,,,48,78
19498,note_on,,,,,18,0,2,,,,,0,,,48,0
19498,note_on,,,,,0,0,2,,,,,0,,,44,0
19500,note_on,,,,,2,0,2,,,,,0,,,44,68
19500,note_on,,,,,0,0,2,,,,,0,,,48,68
19518,note_on,,,,,0,0,2,,,,,0,,,44,0
19518,note_on,,,,,18,0,2,,,,,0,,,48,0
19520,note_on,,,,,0,0,2,,,,,0,,,48,61
19520,note_on,,,,,2,0,2,,,,,0,,,44,61
19530,note_on,,,,,90,0,1,,,,,0,,,65,0
19530,note_on,,,,,0,0,1,,,,,0,,,77,0
19538,note_on,,,,,18,0,2,,,,,0,,,48,0
19538,note_on,,,,,0,0,2,,,,,0,,,44,0
19541,note_on,,,,,3,0,2,,,,,0,,,48,56
19541,note_on,,,,,0,0,2,,,,,0,,,44,56
19545,note_on,,,,,15,0,1,,,,,0,,,65,79
19545,set_tempo,,,,,95,1,0,,1604278,,,,,,,
19545,note_on,,,,,0,0,1,,,,,0,,,53,79
19550,set_tempo,,,,,5,1,0,,1775147,,,,,,,
19557,note_on,,,,,16,0,2,,,,,0,,,44,0
19557,note_on,,,,,0,0,2,,,,,0,,,48,0
19560,control_change,,,,,0,0,1,,,,,0,64,0,,
19560,note_on,,,,,15,0,1,,,,,0,,,53,0
19560,note_on,,,,,0,0,1,,,,,0,,,65,0
19561,note_on,,,,,0,0,2,,,,,0,,,53,68
19561,note_on,,,,,4,0,2,,,,,0,,,65,68
19561,note_on,,,,,0,0,2,,,,,0,,,44,68
19561,note_on,,,,,0,0,2,,,,,0,,,48,68
19565,set_tempo,,,,,15,1,0,,1604278,,,,,,,
19570,set_tempo,,,,,5,1,0,,1612903,,,,,,,
19575,set_tempo,,,,,5,1,0,,1621621,,,,,,,
19577,note_on,,,,,16,0,2,,,,,0,,,44,0
19580,control_change,,,,,20,0,1,,,,,0,64,96,,
19580,set_tempo,,,,,5,1,0,,1626016,,,,,,,
19581,note_on,,,,,0,0,2,,,,,0,,,53,0
19581,note_on,,,,,0,0,2,,,,,0,,,48,0
19581,note_on,,,,,0,0,2,,,,,0,,,52,58
19581,note_on,,,,,0,0,2,,,,,0,,,64,58
19581,note_on,,,,,0,0,2,,,,,0,,,46,58
19581,note_on,,,,,0,0,2,,,,,0,,,43,58
19581,note_on,,,,,4,0,2,,,,,0,,,65,0
19590,set_tempo,,,,,10,1,0,,1634877,,,,,,,
19594,note_on,,,,,0,0,2,,,,,0,,,46,0
19594,note_on,,,,,13,0,2,,,,,0,,,43,0
19595,set_tempo,,,,,5,1,0,,1648351,,,,,,,
19597,note_on,,,,,3,0,2,,,,,0,,,64,0
19597,note_on,,,,,0,0,2,,,,,0,,,52,0
19601,note_on,,,,,0,0,2,,,,,0,,,46,54
19601,note_on,,,,,0,0,2,,,,,0,,,43,54
19601,note_on,,,,,0,0,2,,,,,0,,,52,54
19601,note_on,,,,,4,0,2,,,,,0,,,64,54
19605,set_tempo,,,,,10,1,0,,1657458,,,,,,,
19610,set_tempo,,,,,5,1,0,,1662049,,,,,,,
19614,note_on,,,,,0,0,2,,,,,0,,,43,0
19614,note_on,,,,,13,0,2,,,,,0,,,46,0
19615,set_tempo,,,,,5,1,0,,1675977,,,,,,,
19617,note_on,,,,,3,0,2,,,,,0,,,52,0
19617,note_on,,,,,0,0,2,,,,,0,,,64,0
19621,note_on,,,,,0,0,2,,,,,0,,,46,49
19621,note_on,,,,,0,0,2,,,,,0,,,43,49
19621,note_on,,,,,0,0,2,,,,,0,,,52,49
19621,note_on,,,,,4,0,2,,,,,0,,,64,49
19630,set_tempo,,,,,15,1,0,,1685393,,,,,,,
19634,note_on,,,,,0,0,2,,,,,0,,,43,0
19634,note_on,,,,,13,0,2,,,,,0,,,46,0
19635,set_tempo,,,,,5,1,0,,1719197,,,,,,,
19637,note_on,,,,,0,0,2,,,,,0,,,64,0
19637,note_on,,,,,3,0,2,,,,,0,,,52,0
19640,set_tempo,,,,,5,1,0,,1724137,,,,,,,
19641,note_on,,,,,0,0,2,,,,,0,,,43,45
19641,note_on,,,,,0,0,2,,,,,0,,,52,45
19641,note_on,,,,,4,0,2,,,,,0,,,64,45
19641,note_on,,,,,0,0,2,,,,,0,,,46,45
19650,set_tempo,,,,,10,1,0,,1729106,,,,,,,
19654,note_on,,,,,13,0,2,,,,,0,,,46,0
19654,note_on,,,,,0,0,2,,,,,0,,,43,0
19655,set_tempo,,,,,5,1,0,,1749271,,,,,,,
19657,note_on,,,,,3,0,2,,,,,0,,,52,0
19657,note_on,,,,,0,0,2,,,,,0,,,64,0
19660,set_tempo,,,,,5,1,0,,1759530,,,,,,,
19661,note_on,,,,,4,0,2,,,,,0,,,64,40
19661,note_on,,,,,0,0,2,,,,,0,,,52,40
19661,note_on,,,,,0,0,2,,,,,0,,,43,40
19661,note_on,,,,,0,0,2,,,,,0,,,46,40
19670,set_tempo,,,,,10,1,0,,1764705,,,,,,,
19674,note_on,,,,,0,0,2,,,,,0,,,43,0
19674,note_on,,,,,13,0,2,,,,,0,,,46,0
19677,control_change,,,,,97,0,1,,,,,0,64,0,,
19677,note_on,,,,,0,0,2,,,,,0,,,64,0
19677,note_on,,,,,3,0,2,,,,,0,,,52,0
19680,note_on,,,,,3,0,2,,,,,0,,,32,109
19680,note_on,,,,,0,0,2,,,,,0,,,44,109
19680,set_tempo,,,,,10,1,0,,1769911,,,,,,,
19680,note_on,,,,,3,0,1,,,,,0,,,77,120
19680,control_change,,,,,0,0,1,,,,,0,64,95,,
19680,note_on,,,,,0,0,1,,,,,0,,,65,120
19690,set_tempo,,,,,10,1,0,,1604278,,,,,,,
19698,note_on,,,,,18,0,2,,,,,0,,,44,0
19698,note_on,,,,,0,0,2,,,,,0,,,32,0
19700,note_on,,,,,2,0,2,,,,,0,,,44,89
19700,note_on,,,,,0,0,2,,,,,0,,,48,89
19718,note_on,,,,,18,0,2,,,,,0,,,48,0
19718,note_on,,,,,0,0,2,,,,,0,,,44,0
19720,note_on,,,,,2,0,2,,,,,0,,,44,78
19720,note_on,,,,,0,0,2,,,,,0,,,48,78
19738,note_on,,,,,0,0,2,,,,,0,,,44,0
19738,note_on,,,,,18,0,2,,,,,0,,,48,0
19740,note_on,,,,,2,0,2,,,,,0,,,44,68
19740,note_on,,,,,0,0,2,,,,,0,,,48,68
19758,note_on,,,,,18,0,2,,,,,0,,,48,0
19758,note_on,,,,,0,0,2,,,,,0,,,44,0
19760,note_on,,,,,0,0,2,,,,,0,,,48,61
19760,note_on,,,,,2,0,2,,,,,0,,,44,61
19770,note_on,,,,,90,0,1,,,,,0,,,65,0
19770,note_on,,,,,0,0,1,,,,,0,,,77,0
19778,note_on,,,,,0,0,2,,,,,0,,,44,0
19778,note_on,,,,,18,0,2,,,,,0,,,48,0
19780,note_on,,,,,0,0,2,,,,,0,,,44,56
19780,note_on,,,,,2,0,2,,,,,0,,,48,56
19785,note_on,,,,,0,0,1,,,,,0,,,53,79
19785,note_on,,,,,15,0,1,,,,,0,,,65,79
19785,set_tempo,,,,,95,1,0,,1604278,,,,,,,
19790,set_tempo,,,,,5,1,0,,1775147,,,,,,,
19796,note_on,,,,,0,0,2,,,,,0,,,48,0
19796,note_on,,,,,16,0,2,,,,,0,,,44,0
19800,note_on,,,,,0,0,2,,,,,0,,,48,68
19800,note_on,,,,,0,0,2,,,,,0,,,65,68
19800,note_on,,,,,4,0,2,,,,,0,,,53,68
19800,note_on,,,,,0,0,2,,,,,0,,,44,68
19800,control_change,,,,,0,0,1,,,,,0,64,0,,
19800,note_on,,,,,0,0,1,,,,,0,,,65,0
19800,note_on,,,,,15,0,1,,,,,0,,,53,0
19805,set_tempo,,,,,15,1,0,,1604278,,,,,,,
19810,set_tempo,,,,,5,1,0,,1612903,,,,,,,
19815,set_tempo,,,,,5,1,0,,1621621,,,,,,,
19816,note_on,,,,,16,0,2,,,,,0,,,44,0
19820,note_on,,,,,0,0,2,,,,,0,,,46,58
19820,note_on,,,,,0,0,2,,,,,0,,,49,58
19820,note_on,,,,,0,0,2,,,,,0,,,54,58
19820,note_on,,,,,0,0,2,,,,,0,,,48,0
19820,note_on,,,,,0,0,2,,,,,0,,,65,0
19820,note_on,,,,,0,0,2,,,,,0,,,66,58
19820,control_change,,,,,20,0,1,,,,,0,64,97,,
19820,set_tempo,,,,,5,1,0,,1626016,,,,,,,
19820,note_on,,,,,4,0,2,,,,,0,,,53,0
19830,set_tempo,,,,,10,1,0,,1634877,,,,,,,
19833,note_on,,,,,13,0,2,,,,,0,,,46,0
19833,note_on,,,,,0,0,2,,,,,0,,,49,0
19835,set_tempo,,,,,5,1,0,,1648351,,,,,,,
19836,note_on,,,,,3,0,2,,,,,0,,,66,0
19836,note_on,,,,,0,0,2,,,,,0,,,54,0
19840,note_on,,,,,0,0,2,,,,,0,,,66,54
19840,note_on,,,,,0,0,2,,,,,0,,,54,54
19840,note_on,,,,,4,0,2,,,,,0,,,46,54
19840,note_on,,,,,0,0,2,,,,,0,,,49,54
19845,set_tempo,,,,,10,1,0,,1657458,,,,,,,
19850,set_tempo,,,,,5,1,0,,1662049,,,,,,,
19853,note_on,,,,,13,0,2,,,,,0,,,49,0
19853,note_on,,,,,0,0,2,,,,,0,,,46,0
19855,set_tempo,,,,,5,1,0,,1675977,,,,,,,
19856,note_on,,,,,3,0,2,,,,,0,,,54,0
19856,note_on,,,,,0,0,2,,,,,0,,,66,0
19860,note_on,,,,,0,0,2,,,,,0,,,49,49
19860,note_on,,,,,0,0,2,,,,,0,,,54,49
19860,note_on,,,,,4,0,2,,,,,0,,,66,49
19860,note_on,,,,,0,0,2,,,,,0,,,46,49
19870,set_tempo,,,,,15,1,0,,1685393,,,,,,,
19873,note_on,,,,,13,0,2,,,,,0,,,49,0
19873,note_on,,,,,0,0,2,,,,,0,,,46,0
19875,set_tempo,,,,,5,1,0,,1719197,,,,,,,
19876,note_on,,,,,0,0,2,,,,,0,,,66,0
19876,note_on,,,,,3,0,2,,,,,0,,,54,0
19880,note_on,,,,,0,0,2,,,,,0,,,46,45
19880,note_on,,,,,0,0,2,,,,,0,,,49,45
19880,note_on,,,,,4,0,2,,,,,0,,,54,45
19880,note_on,,,,,0,0,2,,,,,0,,,66,45
19880,set_tempo,,,,,5,1,0,,1724137,,,,,,,
19890,set_tempo,,,,,10,1,0,,1729106,,,,,,,
19893,note_on,,,,,13,0,2,,,,,0,,,49,0
19893,note_on,,,,,0,0,2,,,,,0,,,46,0
19895,set_tempo,,,,,5,1,0,,1749271,,,,,,,
19896,note_on,,,,,3,0,2,,,,,0,,,66,0
19896,note_on,,,,,0,0,2,,,,,0,,,54,0
19900,set_tempo,,,,,5,1,0,,1759530,,,,,,,
19900,note_on,,,,,0,0,2,,,,,0,,,54,40
19900,note_on,,,,,0,0,2,,,,,0,,,66,40
19900,note_on,,,,,4,0,2,,,,,0,,,46,40
19900,note_on,,,,,0,0,2,,,,,0,,,49,40
19910,set_tempo,,,,,10,1,0,,1764705,,,,,,,
19913,note_on,,,,,0,0,2,,,,,0,,,46,0
19913,note_on,,,,,13,0,2,,,,,0,,,49,0
19916,note_on,,,,,3,0,2,,,,,0,,,66,0
19916,note_on,,,,,0,0,2,,,,,0,,,54,0
19917,control_change,,,,,97,0,1,,,,,0,64,0,,
19920,note_on,,,,,4,0,2,,,,,0,,,34,109
19920,set_tempo,,,,,10,1,0,,1769911,,,,,,,
19920,note_on,,,,,3,0,1,,,,,0,,,79,124
19920,note_on,,,,,0,0,1,,,,,0,,,67,124
19920,control_change,,,,,0,0,1,,,,,0,64,95,,
19920,note_on,,,,,0,0,2,,,,,0,,,46,109
19930,set_tempo,,,,,10,1,0,,1604278,,,,,,,
19938,note_on,,,,,0,0,2,,,,,0,,,34,0
19938,note_on,,,,,18,0,2,,,,,0,,,46,0
19940,note_on,,,,,0,0,2,,,,,0,,,50,89
19940,note_on,,,,,2,0,2,,,,,0,,,46,89
19958,note_on,,,,,0,0,2,,,,,0,,,46,0
19958,note_on,,,,,18,0,2,,,,,0,,,50,0
19960,note_on,,,,,0,0,2,,,,,0,,,50,78
19960,note_on,,,,,2,0,2,,,,,0,,,46,78
19978,note_on,,,,,18,0,2,,,,,0,,,50,0
19978,note_on,,,,,0,0,2,,,,,0,,,46,0
19980,note_on,,,,,2,0,2,,,,,0,,,46,68
19980,note_on,,,,,0,0,2,,,,,0,,,50,68
19998,note_on,,,,,0,0,2,,,,,0,,,46,0
19998,note_on,,,,,18,0,2,,,,,0,,,50,0
20000,note_on,,,,,0,0,2,,,,,0,,,50,61
20000,note_on,,,,,2,0,2,,,,,0,,,46,61
20010,note_on,,,,,90,0,1,,,,,0,,,67,0
20010,note_on,,,,,0,0,1,,,,,0,,,79,0
20018,note_on,,,,,0,0,2,,,,,0,,,46,0
20018,note_on,,,,,18,0,2,,,,,0,,,50,0
20020,note_on,,,,,0,0,2,,,,,0,,,46,56
20020,note_on,,,,,2,0,2,,,,,0,,,50,56
20025,set_tempo,,,,,95,1,0,,1604278,,,,,,,
20025,note_on,,,,,0,0,1,,,,,0,,,55,79
20025,note_on,,,,,15,0,1,,,,,0,,,67,79
20030,set_tempo,,,,,5,1,0,,1775147,,,,,,,
20036,note_on,,,,,0,0,2,,,,,0,,,50,0
20036,note_on,,,,,16,0,2,,,,,0,,,46,0
20040,note_on,,,,,0,0,2,,,,,0,,,55,68
20040,note_on,,,,,0,0,2,,,,,0,,,50,68
20040,note_on,,,,,15,0,1,,,,,0,,,55,0
20040,note_on,,,,,0,0,1,,,,,0,,,67,0
20040,control_change,,,,,0,0,1,,,,,0,64,0,,
20040,note_on,,,,,4,0,2,,,,,0,,,67,68
20040,note_on,,,,,0,0,2,,,,,0,,,46,68
20045,set_tempo,,,,,15,1,0,,1604278,,,,,,,
20050,set_tempo,,,,,5,1,0,,1612903,,,,,,,
20055,set_tempo,,,,,5,1,0,,1621621,,,,,,,
20056,note_on,,,,,16,0,2,,,,,0,,,46,0
20060,note_on,,,,,0,0,2,,,,,0,,,45,58
20060,note_on,,,,,0,0,2,,,,,0,,,66,58
20060,note_on,,,,,0,0,2,,,,,0,,,54,58
20060,note_on,,,,,0,0,2,,,,,0,,,50,0
20060,note_on,,,,,0,0,2,,,,,0,,,55,0
20060,note_on,,,,,4,0,2,,,,,0,,,67,0
20060,note_on,,,,,0,0,2,,,,,0,,,48,58
20060,control_change,,,,,20,0,1,,,,,0,64,96,,
20060,set_tempo,,,,,5,1,0,,1626016,,,,,,,
20070,set_tempo,,,,,10,1,0,,1634877,,,,,,,
20073,note_on,,,,,13,0,2,,,,,0,,,45,0
20073,note_on,,,,,0,0,2,,,,,0,,,48,0
20075,set_tempo,,,,,5,1,0,,1648351,,,,,,,
20076,note_on,,,,,3,0,2,,,,,0,,,66,0
20076,note_on,,,,,0,0,2,,,,,0,,,54,0
20080,note_on,,,,,4,0,2,,,,,0,,,66,54
20080,note_on,,,,,0,0,2,,,,,0,,,54,54
20080,note_on,,,,,0,0,2,,,,,0,,,45,54
20080,note_on,,,,,0,0,2,,,,,0,,,48,54
20085,set_tempo,,,,,10,1,0,,1657458,,,,,,,
20090,set_tempo,,,,,5,1,0,,1662049,,,,,,,
20093,note_on,,,,,13,0,2,,,,,0,,,48,0
20093,note_on,,,,,0,0,2,,,,,0,,,45,0
20095,set_tempo,,,,,5,1,0,,1675977,,,,,,,
20096,note_on,,,,,3,0,2,,,,,0,,,54,0
20096,note_on,,,,,0,0,2,,,,,0,,,66,0
20100,note_on,,,,,0,0,2,,,,,0,,,48,49
20100,note_on,,,,,0,0,2,,,,,0,,,45,49
20100,note_on,,,,,0,0,2,,,,,0,,,54,49
20100,note_on,,,,,4,0,2,,,,,0,,,66,49
20110,set_tempo,,,,,15,1,0,,1685393,,,,,,,
20113,note_on,,,,,0,0,2,,,,,0,,,45,0
20113,note_on,,,,,13,0,2,,,,,0,,,48,0
20115,set_tempo,,,,,5,1,0,,1719197,,,,,,,
20116,note_on,,,,,0,0,2,,,,,0,,,66,0
20116,note_on,,,,,3,0,2,,,,,0,,,54,0
20120,note_on,,,,,0,0,2,,,,,0,,,45,45
20120,set_tempo,,,,,5,1,0,,1724137,,,,,,,
20120,note_on,,,,,0,0,2,,,,,0,,,48,45
20120,note_on,,,,,4,0,2,,,,,0,,,66,45
20120,note_on,,,,,0,0,2,,,,,0,,,54,45
20130,set_tempo,,,,,10,1,0,,1729106,,,,,,,
20133,note_on,,,,,13,0,2,,,,,0,,,48,0
20133,note_on,,,,,0,0,2,,,,,0,,,45,0
20135,set_tempo,,,,,5,1,0,,1749271,,,,,,,
20136,note_on,,,,,3,0,2,,,,,0,,,54,0
20136,note_on,,,,,0,0,2,,,,,0,,,66,0
20140,note_on,,,,,4,0,2,,,,,0,,,66,40
20140,set_tempo,,,,,5,1,0,,1759530,,,,,,,
20140,note_on,,,,,0,0,2,,,,,0,,,54,40
20140,note_on,,,,,0,0,2,,,,,0,,,45,40
20140,note_on,,,,,0,0,2,,,,,0,,,48,40
20150,set_tempo,,,,,10,1,0,,1764705,,,,,,,
20153,note_on,,,,,13,0,2,,,,,0,,,48,0
20153,note_on,,,,,0,0,2,,,,,0,,,45,0
20156,note_on,,,,,0,0,2,,,,,0,,,66,0
20156,note_on,,,,,3,0,2,,,,,0,,,54,0
20157,control_change,,,,,97,0,1,,,,,0,64,0,,
20160,control_change,,,,,0,0,2,,,,,0,64,95,,
20160,note_on,,,,,0,0,2,,,,,0,,,46,121
20160,note_on,,,,,0,0,2,,,,,0,,,67,121
20160,note_on,,,,,4,0,2,,,,,0,,,79,121
20160,set_tempo,,,,,10,1,0,,1769911,,,,,,,
20160,control_change,,,,,3,0,1,,,,,0,64,95,,
20160,note_on,,,,,0,0,2,,,,,0,,,34,121
20170,set_tempo,,,,,10,1,0,,1604278,,,,,,,
20178,note_on,,,,,18,0,2,,,,,0,,,46,0
20178,note_on,,,,,0,0,2,,,,,0,,,34,0
20180,note_on,,,,,2,0,2,,,,,0,,,46,89
20180,note_on,,,,,0,0,2,,,,,0,,,50,89
20198,note_on,,,,,18,0,2,,,,,0,,,50,0
20198,note_on,,,,,0,0,2,,,,,0,,,46,0
20200,note_on,,,,,2,0,2,,,,,0,,,46,78
20200,note_on,,,,,0,0,2,,,,,0,,,50,78
20218,note_on,,,,,18,0,2,,,,,0,,,50,0
20218,note_on,,,,,0,0,2,,,,,0,,,46,0
20220,note_on,,,,,0,0,2,,,,,0,,,50,68
20220,note_on,,,,,2,0,2,,,,,0,,,46,68
20238,note_on,,,,,0,0,2,,,,,0,,,46,0
20238,note_on,,,,,18,0,2,,,,,0,,,50,0
20240,note_on,,,,,2,0,2,,,,,0,,,46,61
20240,note_on,,,,,0,0,2,,,,,0,,,50,61
20250,note_on,,,,,10,0,2,,,,,0,,,67,0
20250,note_on,,,,,0,0,2,,,,,0,,,79,0
20258,note_on,,,,,0,0,2,,,,,0,,,50,0
20258,note_on,,,,,8,0,2,,,,,0,,,46,0
20261,note_on,,,,,0,0,2,,,,,0,,,46,56
20261,note_on,,,,,3,0,2,,,,,0,,,50,56
20265,note_on,,,,,0,0,2,,,,,0,,,55,79
20265,set_tempo,,,,,95,1,0,,1604278,,,,,,,
20265,note_on,,,,,4,0,2,,,,,0,,,67,79
20270,set_tempo,,,,,5,1,0,,1775147,,,,,,,
20275,control_change,,,,,115,0,1,,,,,0,64,0,,
20277,note_on,,,,,0,0,2,,,,,0,,,50,0
20277,note_on,,,,,12,0,2,,,,,0,,,46,0
20280,note_on,,,,,3,0,2,,,,,0,,,67,0
20280,note_on,,,,,0,0,2,,,,,0,,,55,0
20280,note_on,,,,,0,0,2,,,,,0,,,55,68
20280,note_on,,,,,0,0,2,,,,,0,,,67,68
20280,note_on,,,,,0,0,2,,,,,0,,,46,68
20280,control_change,,,,,0,0,2,,,,,0,64,0,,
20280,note_on,,,,,0,0,2,,,,,0,,,50,68
20285,set_tempo,,,,,15,1,0,,1604278,,,,,,,
20290,set_tempo,,,,,5,1,0,,1612903,,,,,,,
20295,set_tempo,,,,,5,1,0,,1621621,,,,,,,
20296,note_on,,,,,16,0,2,,,,,0,,,46,0
20300,control_change,,,,,25,0,1,,,,,0,64,95,,
20300,set_tempo,,,,,5,1,0,,1626016,,,,,,,
20300,note_on,,,,,4,0,2,,,,,0,,,55,0
20300,note_on,,,,,0,0,2,,,,,0,,,67,0
20300,note_on,,,,,0,0,2,,,,,0,,,50,0
20300,note_on,,,,,0,0,2,,,,,0,,,56,58
20300,note_on,,,,,0,0,2,,,,,0,,,68,58
20300,note_on,,,,,0,0,2,,,,,0,,,51,58
20300,note_on,,,,,0,0,2,,,,,0,,,48,58
20300,control_change,,,,,0,0,2,,,,,0,64,97,,
20310,set_tempo,,,,,10,1,0,,1634877,,,,,,,
20313,note_on,,,,,0,0,2,,,,,0,,,51,0
20313,note_on,,,,,13,0,2,,,,,0,,,48,0
20315,set_tempo,,,,,5,1,0,,1648351,,,,,,,
20316,note_on,,,,,3,0,2,,,,,0,,,68,0
20316,note_on,,,,,0,0,2,,,,,0,,,56,0
20320,note_on,,,,,4,0,2,,,,,0,,,48,54
20320,note_on,,,,,0,0,2,,,,,0,,,51,54
20320,note_on,,,,,0,0,2,,,,,0,,,56,54
20320,note_on,,,,,0,0,2,,,,,0,,,68,54
20325,set_tempo,,,,,10,1,0,,1657458,,,,,,,
20330,set_tempo,,,,,5,1,0,,1662049,,,,,,,
20333,note_on,,,,,13,0,2,,,,,0,,,51,0
20333,note_on,,,,,0,0,2,,,,,0,,,48,0
20335,set_tempo,,,,,5,1,0,,1675977,,,,,,,
20336,note_on,,,,,0,0,2,,,,,0,,,68,0
20336,note_on,,,,,3,0,2,,,,,0,,,56,0
20340,note_on,,,,,0,0,2,,,,,0,,,51,49
20340,note_on,,,,,0,0,2,,,,,0,,,56,49
20340,note_on,,,,,4,0,2,,,,,0,,,68,49
20340,note_on,,,,,0,0,2,,,,,0,,,48,49
20350,set_tempo,,,,,15,1,0,,1685393,,,,,,,
20353,note_on,,,,,13,0,2,,,,,0,,,51,0
20353,note_on,,,,,0,0,2,,,,,0,,,48,0
20355,set_tempo,,,,,5,1,0,,1719197,,,,,,,
20356,note_on,,,,,0,0,2,,,,,0,,,68,0
20356,note_on,,,,,3,0,2,,,,,0,,,56,0
20360,note_on,,,,,4,0,2,,,,,0,,,56,45
20360,note_on,,,,,0,0,2,,,,,0,,,68,45
20360,note_on,,,,,0,0,2,,,,,0,,,48,45
20360,note_on,,,,,0,0,2,,,,,0,,,51,45
20360,set_tempo,,,,,5,1,0,,1724137,,,,,,,
20370,set_tempo,,,,,10,1,0,,1729106,,,,,,,
20373,note_on,,,,,13,0,2,,,,,0,,,51,0
20373,note_on,,,,,0,0,2,,,,,0,,,48,0
20375,set_tempo,,,,,5,1,0,,1749271,,,,,,,
20376,note_on,,,,,3,0,2,,,,,0,,,68,0
20376,note_on,,,,,0,0,2,,,,,0,,,56,0
20380,set_tempo,,,,,5,1,0,,1759530,,,,,,,
20380,note_on,,,,,0,0,2,,,,,0,,,56,40
20380,note_on,,,,,0,0,2,,,,,0,,,68,40
20380,note_on,,,,,0,0,2,,,,,0,,,51,40
20380,note_on,,,,,4,0,2,,,,,0,,,48,40
20390,set_tempo,,,,,10,1,0,,1764705,,,,,,,
20393,note_on,,,,,0,0,2,,,,,0,,,48,0
20393,note_on,,,,,13,0,2,,,,,0,,,51,0
20395,set_tempo,,,,,5,1,0,,1775147,,,,,,,
20396,note_on,,,,,0,0,2,,,,,0,,,56,0
20396,note_on,,,,,3,0,2,,,,,0,,,68,0
20397,control_change,,,,,97,0,1,,,,,0,64,0,,
20397,control_change,,,,,1,0,2,,,,,0,64,0,,
20400,note_on,,,,,0,0,2,,,,,0,,,51,40
20400,note_on,,,,,0,0,2,,,,,0,,,47,40
20400,control_change,,,,,3,0,1,,,,,0,64,95,,
20400,note_on,,,,,0,0,2,,,,,0,,,68,40
20400,note_on,,,,,3,0,2,,,,,0,,,56,40
20405,set_tempo,,,,,10,1,0,,1769911,,,,,,,
20420,note_on,,,,,0,0,2,,,,,0,,,51,40
20420,note_on,,,,,0,0,2,,,,,0,,,68,40
20420,set_tempo,,,,,15,1,0,,1759530,,,,,,,
20420,note_on,,,,,0,0,2,,,,,0,,,56,40
20420,note_on,,,,,0,0,2,,,,,0,,,51,0
20420,note_on,,,,,0,0,2,,,,,0,,,68,0
20420,note_on,,,,,0,0,2,,,,,0,,,56,0
20420,note_on,,,,,20,0,2,,,,,0,,,47,0
20420,note_on,,,,,0,0,2,,,,,0,,,47,40
20440,note_on,,,,,20,0,2,,,,,0,,,47,0
20440,note_on,,,,,0,0,2,,,,,0,,,68,0
20440,note_on,,,,,0,0,2,,,,,0,,,56,0
20440,note_on,,,,,0,0,2,,,,,0,,,56,42
20440,note_on,,,,,0,0,2,,,,,0,,,47,42
20440,note_on,,,,,0,0,2,,,,,0,,,51,42
20440,note_on,,,,,0,0,2,,,,,0,,,68,42
20440,note_on,,,,,0,0,2,,,,,0,,,51,0
20455,set_tempo,,,,,35,1,0,,1729106,,,,,,,
20460,note_on,,,,,0,0,2,,,,,0,,,47,43
20460,note_on,,,,,0,0,2,,,,,0,,,51,43
20460,note_on,,,,,0,0,2,,,,,0,,,71,43
20460,note_on,,,,,0,0,2,,,,,0,,,59,43
20460,note_on,,,,,0,0,2,,,,,0,,,51,0
20460,note_on,,,,,0,0,2,,,,,0,,,68,0
20460,note_on,,,,,0,0,2,,,,,0,,,56,0
20460,note_on,,,,,20,0,2,,,,,0,,,47,0
20465,set_tempo,,,,,10,1,0,,1719197,,,,,,,
20475,set_tempo,,,,,10,1,0,,1714285,,,,,,,
20480,note_on,,,,,0,0,2,,,,,0,,,59,0
20480,note_on,,,,,20,0,2,,,,,0,,,47,0
20480,set_tempo,,,,,5,1,0,,1704545,,,,,,,
20480,note_on,,,,,0,0,2,,,,,0,,,71,0
20480,note_on,,,,,0,0,2,,,,,0,,,51,0
20480,note_on,,,,,0,0,2,,,,,0,,,59,46
20480,note_on,,,,,0,0,2,,,,,0,,,71,46
20480,note_on,,,,,0,0,2,,,,,0,,,51,46
20480,note_on,,,,,0,0,2,,,,,0,,,47,46
20495,set_tempo,,,,,15,1,0,,1699716,,,,,,,
20500,note_on,,,,,0,0,2,,,,,0,,,51,0
20500,note_on,,,,,0,0,2,,,,,0,,,71,0
20500,note_on,,,,,20,0,2,,,,,0,,,47,0
20500,set_tempo,,,,,5,1,0,,1694915,,,,,,,
20500,note_on,,,,,0,0,2,,,,,0,,,59,0
20501,note_on,,,,,1,0,2,,,,,0,,,59,52
20501,note_on,,,,,0,0,2,,,,,0,,,71,52
20501,note_on,,,,,0,0,2,,,,,0,,,51,52
20501,note_on,,,,,0,0,2,,,,,0,,,47,52
20515,control_change,,,,,115,0,1,,,,,0,64,0,,
20520,control_change,,,,,5,0,1,,,,,0,64,94,,
20521,note_on,,,,,0,0,2,,,,,0,,,47,63
20521,note_on,,,,,0,0,2,,,,,0,,,51,63
20521,note_on,,,,,0,0,2,,,,,0,,,63,63
20521,note_on,,,,,0,0,2,,,,,0,,,51,0
20521,note_on,,,,,0,0,2,,,,,0,,,75,63
20521,note_on,,,,,20,0,2,,,,,0,,,47,0
20521,note_on,,,,,0,0,2,,,,,0,,,59,0
20521,note_on,,,,,0,0,2,,,,,0,,,71,0
20530,set_tempo,,,,,30,1,0,,1685393,,,,,,,
20541,note_on,,,,,20,0,2,,,,,0,,,47,0
20541,note_on,,,,,0,0,2,,,,,0,,,63,0
20541,note_on,,,,,0,0,2,,,,,0,,,75,0
20541,note_on,,,,,0,0,2,,,,,0,,,51,0
20541,note_on,,,,,0,0,2,,,,,0,,,63,77
20541,note_on,,,,,0,0,2,,,,,0,,,75,77
20541,note_on,,,,,0,0,2,,,,,0,,,51,77
20541,note_on,,,,,0,0,2,,,,,0,,,47,77
20560,set_tempo,,,,,30,1,0,,1675977,,,,,,,
20561,note_on,,,,,0,0,2,,,,,0,,,47,100
20561,note_on,,,,,0,0,2,,,,,0,,,51,0
20561,note_on,,,,,0,0,2,,,,,0,,,75,0
20561,note_on,,,,,0,0,2,,,,,0,,,51,100
20561,note_on,,,,,0,0,2,,,,,0,,,63,0
20561,note_on,,,,,0,0,2,,,,,0,,,63,100
20561,note_on,,,,,20,0,2,,,,,0,,,47,0
20561,note_on,,,,,0,0,2,,,,,0,,,75,100
20565,set_tempo,,,,,5,1,0,,1666666,,,,,,,
20577,control_change,,,,,57,0,1,,,,,0,64,0,,
20580,control_change,,,,,3,0,1,,,,,0,64,97,,
20581,note_on,,,,,20,0,2,,,,,0,,,47,0
20581,note_on,,,,,0,0,2,,,,,0,,,63,0
20581,note_on,,,,,0,0,2,,,,,0,,,75,0
20581,note_on,,,,,0,0,2,,,,,0,,,51,0
20581,note_on,,,,,0,0,2,,,,,0,,,67,125
20581,note_on,,,,,0,0,2,,,,,0,,,79,125
20581,note_on,,,,,0,0,2,,,,,0,,,55,125
20581,note_on,,,,,0,0,2,,,,,0,,,51,125
20581,note_on,,,,,0,0,2,,,,,0,,,47,125
20601,note_on,,,,,0,0,2,,,,,0,,,47,119
20601,note_on,,,,,0,0,2,,,,,0,,,51,119
20601,note_on,,,,,0,0,2,,,,,0,,,55,119
20601,note_on,,,,,0,0,2,,,,,0,,,79,119
20601,note_on,,,,,0,0,2,,,,,0,,,67,0
20601,note_on,,,,,0,0,2,,,,,0,,,51,0
20601,note_on,,,,,0,0,2,,,,,0,,,79,0
20601,note_on,,,,,0,0,2,,,,,0,,,55,0
20601,note_on,,,,,20,0,2,,,,,0,,,47,0
20601,note_on,,,,,0,0,2,,,,,0,,,67,119
20605,set_tempo,,,,,40,1,0,,1657458,,,,,,,
20610,set_tempo,,,,,5,1,0,,1648351,,,,,,,
20620,set_tempo,,,,,10,1,0,,1643835,,,,,,,
20621,note_on,,,,,0,0,2,,,,,0,,,51,107
20621,note_on,,,,,0,0,2,,,,,0,,,47,107
20621,note_on,,,,,0,0,2,,,,,0,,,55,107
20621,note_on,,,,,0,0,2,,,,,0,,,67,107
20621,note_on,,,,,0,0,2,,,,,0,,,51,0
20621,note_on,,,,,20,0,2,,,,,0,,,47,0
20621,note_on,,,,,0,0,2,,,,,0,,,55,0
20621,note_on,,,,,0,0,2,,,,,0,,,67,0
20621,note_on,,,,,0,0,2,,,,,0,,,79,0
20621,note_on,,,,,0,0,2,,,,,0,,,79,107
20625,set_tempo,,,,,5,1,0,,1639344,,,,,,,
20635,set_tempo,,,,,10,1,0,,1630434,,,,,,,
20637,control_change,,,,,57,0,1,,,,,0,64,0,,
20640,control_change,,,,,3,0,1,,,,,0,64,96,,
20641,note_on,,,,,0,0,2,,,,,0,,,47,115
20641,note_on,,,,,0,0,2,,,,,0,,,51,115
20641,note_on,,,,,0,0,2,,,,,0,,,80,115
20641,note_on,,,,,0,0,2,,,,,0,,,68,115
20641,note_on,,,,,0,0,2,,,,,0,,,51,0
20641,note_on,,,,,0,0,2,,,,,0,,,79,0
20641,note_on,,,,,0,0,2,,,,,0,,,67,0
20641,note_on,,,,,0,0,2,,,,,0,,,55,0
20641,note_on,,,,,20,0,2,,,,,0,,,47,0
20641,note_on,,,,,0,0,2,,,,,0,,,56,115
20645,set_tempo,,,,,10,1,0,,1621621,,,,,,,
20650,set_tempo,,,,,5,1,0,,1617250,,,,,,,
20660,set_tempo,,,,,10,1,0,,1612903,,,,,,,
20661,note_on,,,,,0,0,2,,,,,0,,,51,101
20661,note_on,,,,,0,0,2,,,,,0,,,47,101
20661,note_on,,,,,0,0,2,,,,,0,,,68,0
20661,note_on,,,,,0,0,2,,,,,0,,,56,101
20661,note_on,,,,,0,0,2,,,,,0,,,80,0
20661,note_on,,,,,0,0,2,,,,,0,,,51,0
20661,note_on,,,,,20,0,2,,,,,0,,,47,0
20661,note_on,,,,,0,0,2,,,,,0,,,68,101
20661,note_on,,,,,0,0,2,,,,,0,,,80,101
20661,note_on,,,,,0,0,2,,,,,0,,,56,0
20681,note_on,,,,,20,0,2,,,,,0,,,47,0
20681,note_on,,,,,0,0,2,,,,,0,,,56,0
20681,note_on,,,,,0,0,2,,,,,0,,,68,0
20681,note_on,,,,,0,0,2,,,,,0,,,51,0
20681,note_on,,,,,0,0,2,,,,,0,,,80,0
20681,note_on,,,,,0,0,2,,,,,0,,,56,87
20681,note_on,,,,,0,0,2,,,,,0,,,51,87
20681,note_on,,,,,0,0,2,,,,,0,,,47,87
20681,note_on,,,,,0,0,2,,,,,0,,,68,87
20681,note_on,,,,,0,0,2,,,,,0,,,80,87
20685,set_tempo,,,,,25,1,0,,1648351,,,,,,,
20690,set_tempo,,,,,5,1,0,,1652892,,,,,,,
20700,set_tempo,,,,,10,1,0,,1657458,,,,,,,
20701,note_on,,,,,0,0,2,,,,,0,,,56,0
20701,note_on,,,,,0,0,2,,,,,0,,,80,0
20701,note_on,,,,,0,0,2,,,,,0,,,51,0
20701,note_on,,,,,20,0,2,,,,,0,,,47,0
20701,note_on,,,,,0,0,2,,,,,0,,,68,0
20702,note_on,,,,,0,0,2,,,,,0,,,75,84
20702,note_on,,,,,0,0,2,,,,,0,,,47,84
20702,note_on,,,,,1,0,2,,,,,0,,,63,84
20702,note_on,,,,,0,0,2,,,,,0,,,51,84
20705,set_tempo,,,,,5,1,0,,1671309,,,,,,,
20710,set_tempo,,,,,5,1,0,,1675977,,,,,,,
20720,set_tempo,,,,,10,1,0,,1685393,,,,,,,
20722,note_on,,,,,0,0,2,,,,,0,,,75,0
20722,note_on,,,,,0,0,2,,,,,0,,,63,0
20722,note_on,,,,,20,0,2,,,,,0,,,47,0
20722,note_on,,,,,0,0,2,,,,,0,,,51,0
20722,note_on,,,,,0,0,2,,,,,0,,,63,81
20722,note_on,,,,,0,0,2,,,,,0,,,75,81
20722,note_on,,,,,0,0,2,,,,,0,,,51,81
20722,note_on,,,,,0,0,2,,,,,0,,,47,81
20725,set_tempo,,,,,5,1,0,,1694915,,,,,,,
20730,set_tempo,,,,,5,1,0,,1699716,,,,,,,
20735,set_tempo,,,,,5,1,0,,1704545,,,,,,,
20742,note_on,,,,,0,0,2,,,,,0,,,47,72
20742,note_on,,,,,0,0,2,,,,,0,,,51,72
20742,note_on,,,,,0,0,2,,,,,0,,,75,72
20742,note_on,,,,,0,0,2,,,,,0,,,63,72
20742,note_on,,,,,0,0,2,,,,,0,,,75,0
20742,note_on,,,,,0,0,2,,,,,0,,,63,0
20742,note_on,,,,,20,0,2,,,,,0,,,47,0
20742,note_on,,,,,0,0,2,,,,,0,,,51,0
20745,set_tempo,,,,,10,1,0,,1734104,,,,,,,
20750,set_tempo,,,,,5,1,0,,1739130,,,,,,,
20757,control_change,,,,,117,0,1,,,,,0,64,0,,
20760,control_change,,,,,3,0,1,,,,,0,64,96,,
20762,note_on,,,,,20,0,2,,,,,0,,,47,0
20762,note_on,,,,,0,0,2,,,,,0,,,63,0
20762,note_on,,,,,0,0,2,,,,,0,,,51,0
20762,note_on,,,,,0,0,2,,,,,0,,,59,64
20762,note_on,,,,,0,0,2,,,,,0,,,51,64
20762,note_on,,,,,0,0,2,,,,,0,,,47,64
20762,note_on,,,,,0,0,2,,,,,0,,,75,0
20762,note_on,,,,,0,0,2,,,,,0,,,71,64
20765,set_tempo,,,,,15,1,0,,1769911,,,,,,,
20775,set_tempo,,,,,10,1,0,,1801801,,,,,,,
20780,set_tempo,,,,,5,1,0,,1807228,,,,,,,
20782,note_on,,,,,0,0,2,,,,,0,,,47,59
20782,note_on,,,,,0,0,2,,,,,0,,,51,59
20782,note_on,,,,,0,0,2,,,,,0,,,71,59
20782,note_on,,,,,0,0,2,,,,,0,,,51,0
20782,note_on,,,,,0,0,2,,,,,0,,,71,0
20782,note_on,,,,,0,0,2,,,,,0,,,59,0
20782,note_on,,,,,20,0,2,,,,,0,,,47,0
20782,note_on,,,,,0,0,2,,,,,0,,,59,59
20785,set_tempo,,,,,5,1,0,,1812688,,,,,,,
20790,set_tempo,,,,,5,1,0,,1823708,,,,,,,
20800,set_tempo,,,,,10,1,0,,1846153,,,,,,,
20802,note_on,,,,,0,0,2,,,,,0,,,59,0
20802,note_on,,,,,20,0,2,,,,,0,,,47,0
20802,note_on,,,,,0,0,2,,,,,0,,,59,55
20802,note_on,,,,,0,0,2,,,,,0,,,51,0
20802,note_on,,,,,0,0,2,,,,,0,,,51,55
20802,note_on,,,,,0,0,2,,,,,0,,,71,55
20802,note_on,,,,,0,0,2,,,,,0,,,47,55
20802,note_on,,,,,0,0,2,,,,,0,,,71,0
20805,set_tempo,,,,,5,1,0,,1851851,,,,,,,
20810,set_tempo,,,,,5,1,0,,1863354,,,,,,,
20820,set_tempo,,,,,10,1,0,,1869158,,,,,,,
20822,note_on,,,,,20,0,2,,,,,0,,,47,0
20822,note_on,,,,,0,0,2,,,,,0,,,59,0
20822,note_on,,,,,0,0,2,,,,,0,,,71,0
20822,note_on,,,,,0,0,2,,,,,0,,,51,0
20822,note_on,,,,,0,0,2,,,,,0,,,56,51
20822,note_on,,,,,0,0,2,,,,,0,,,68,51
20822,note_on,,,,,0,0,2,,,,,0,,,51,51
20822,note_on,,,,,0,0,2,,,,,0,,,47,51
20825,set_tempo,,,,,5,1,0,,1875000,,,,,,,
20830,set_tempo,,,,,5,1,0,,1880877,,,,,,,
20842,note_on,,,,,20,0,2,,,,,0,,,47,0
20842,note_on,,,,,0,0,2,,,,,0,,,51,47
20842,note_on,,,,,0,0,2,,,,,0,,,47,47
20842,note_on,,,,,0,0,2,,,,,0,,,56,0
20842,note_on,,,,,0,0,2,,,,,0,,,68,0
20842,note_on,,,,,0,0,2,,,,,0,,,51,0
20842,note_on,,,,,0,0,2,,,,,0,,,56,47
20842,note_on,,,,,0,0,2,,,,,0,,,68,47
20845,set_tempo,,,,,15,1,0,,1886792,,,,,,,
20860,set_tempo,,,,,15,1,0,,1892744,,,,,,,
20862,note_on,,,,,0,0,2,,,,,0,,,56,43
20862,note_on,,,,,0,0,2,,,,,0,,,51,43
20862,note_on,,,,,0,0,2,,,,,0,,,47,43
20862,note_on,,,,,0,0,2,,,,,0,,,56,0
20862,note_on,,,,,20,0,2,,,,,0,,,47,0
20862,note_on,,,,,0,0,2,,,,,0,,,68,43
20862,note_on,,,,,0,0,2,,,,,0,,,68,0
20862,note_on,,,,,0,0,2,,,,,0,,,51,0
20870,set_tempo,,,,,10,1,0,,2142857,,,,,,,
20877,control_change,,,,,117,0,1,,,,,0,64,0,,
20880,control_change,,,,,3,0,1,,,,,0,64,95,,
20880,note_on,,,,,18,0,2,,,,,0,,,52,41
20880,note_on,,,,,0,0,2,,,,,0,,,56,41
20880,note_on,,,,,0,0,2,,,,,0,,,68,41
20880,note_on,,,,,0,0,2,,,,,0,,,49,41
20882,note_on,,,,,0,0,2,,,,,0,,,68,0
20882,note_on,,,,,0,0,2,,,,,0,,,56,0
20882,note_on,,,,,2,0,2,,,,,0,,,47,0
20882,note_on,,,,,0,0,2,,,,,0,,,51,0
20885,set_tempo,,,,,15,1,0,,1993355,,,,,,,
20900,set_tempo,,,,,15,1,0,,1980198,,,,,,,
20900,note_on,,,,,18,0,2,,,,,0,,,52,0
20900,note_on,,,,,0,0,2,,,,,0,,,49,0
20900,note_on,,,,,0,0,2,,,,,0,,,56,0
20900,note_on,,,,,0,0,2,,,,,0,,,68,0
20900,note_on,,,,,0,0,2,,,,,0,,,56,43
20900,note_on,,,,,0,0,2,,,,,0,,,68,43
20900,note_on,,,,,0,0,2,,,,,0,,,52,43
20900,note_on,,,,,0,0,2,,,,,0,,,49,43
20905,set_tempo,,,,,5,1,0,,1967213,,,,,,,
20910,set_tempo,,,,,5,1,0,,1892744,,,,,,,
20915,set_tempo,,,,,5,1,0,,1834862,,,,,,,
20920,note_on,,,,,0,0,2,,,,,0,,,56,0
20920,note_on,,,,,0,0,2,,,,,0,,,52,0
20920,set_tempo,,,,,5,1,0,,1818181,,,,,,,
20920,note_on,,,,,20,0,2,,,,,0,,,49,0
20920,note_on,,,,,0,0,2,,,,,0,,,49,43
20920,note_on,,,,,0,0,2,,,,,0,,,68,0
20920,note_on,,,,,0,0,2,,,,,0,,,68,43
20920,note_on,,,,,0,0,2,,,,,0,,,56,43
20920,note_on,,,,,0,0,2,,,,,0,,,52,43
20925,set_tempo,,,,,5,1,0,,1796407,,,,,,,
20930,set_tempo,,,,,5,1,0,,1729106,,,,,,,
20935,set_tempo,,,,,5,1,0,,1729106,,,,,,,
20940,note_on,,,,,20,0,2,,,,,0,,,49,0
20940,note_on,,,,,0,0,2,,,,,0,,,56,0
20940,note_on,,,,,0,0,2,,,,,0,,,68,0
20940,note_on,,,,,0,0,2,,,,,0,,,52,0
20940,note_on,,,,,0,0,2,,,,,0,,,61,45
20940,note_on,,,,,0,0,2,,,,,0,,,52,45
20940,note_on,,,,,0,0,2,,,,,0,,,49,45
20940,note_on,,,,,0,0,2,,,,,0,,,73,45
20945,set_tempo,,,,,10,1,0,,1719197,,,,,,,
20955,set_tempo,,,,,10,1,0,,1714285,,,,,,,
20960,note_on,,,,,0,0,2,,,,,0,,,52,48
20960,note_on,,,,,0,0,2,,,,,0,,,73,0
20960,set_tempo,,,,,5,1,0,,1704545,,,,,,,
20960,note_on,,,,,0,0,2,,,,,0,,,49,48
20960,note_on,,,,,0,0,2,,,,,0,,,61,48
20960,note_on,,,,,20,0,2,,,,,0,,,49,0
20960,note_on,,,,,0,0,2,,,,,0,,,52,0
20960,note_on,,,,,0,0,2,,,,,0,,,73,48
20960,note_on,,,,,0,0,2,,,,,0,,,61,0
20975,set_tempo,,,,,15,1,0,,1699716,,,,,,,
20980,note_on,,,,,0,0,2,,,,,0,,,52,0
20980,note_on,,,,,0,0,2,,,,,0,,,49,54
20980,note_on,,,,,0,0,2,,,,,0,,,52,54
20980,note_on,,,,,0,0,2,,,,,0,,,61,54
20980,note_on,,,,,0,0,2,,,,,0,,,73,54
20980,note_on,,,,,0,0,2,,,,,0,,,61,0
20980,note_on,,,,,0,0,2,,,,,0,,,73,0
20980,note_on,,,,,20,0,2,,,,,0,,,49,0
20980,set_tempo,,,,,5,1,0,,1694915,,,,,,,
20995,control_change,,,,,115,0,1,,,,,0,64,0,,
21000,note_on,,,,,0,0,2,,,,,0,,,52,69
21000,control_change,,,,,5,0,1,,,,,0,64,94,,
21000,note_on,,,,,20,0,2,,,,,0,,,61,0
21000,note_on,,,,,0,0,2,,,,,0,,,49,69
21000,note_on,,,,,0,0,2,,,,,0,,,76,69
21000,note_on,,,,,0,0,2,,,,,0,,,64,69
21000,note_on,,,,,0,0,2,,,,,0,,,73,0
21000,note_on,,,,,0,0,2,,,,,0,,,49,0
21000,note_on,,,,,0,0,2,,,,,0,,,52,0
21010,set_tempo,,,,,30,1,0,,1685393,,,,,,,
21020,note_on,,,,,0,0,2,,,,,0,,,76,89
21020,note_on,,,,,0,0,2,,,,,0,,,52,89
21020,note_on,,,,,0,0,2,,,,,0,,,49,89
21020,note_on,,,,,0,0,2,,,,,0,,,64,0
21020,note_on,,,,,0,0,2,,,,,0,,,64,89
21020,note_on,,,,,20,0,2,,,,,0,,,49,0
21020,note_on,,,,,0,0,2,,,,,0,,,76,0
21020,note_on,,,,,0,0,2,,,,,0,,,52,0
21040,note_on,,,,,20,0,2,,,,,0,,,49,0
21040,note_on,,,,,0,0,2,,,,,0,,,64,0
21040,note_on,,,,,0,0,2,,,,,0,,,76,0
21040,note_on,,,,,0,0,2,,,,,0,,,52,0
21040,note_on,,,,,0,0,2,,,,,0,,,49,101
21040,note_on,,,,,0,0,2,,,,,0,,,64,101
21040,note_on,,,,,0,0,2,,,,,0,,,76,101
21040,set_tempo,,,,,30,1,0,,1675977,,,,,,,
21040,note_on,,,,,0,0,2,,,,,0,,,52,101
21045,set_tempo,,,,,5,1,0,,1666666,,,,,,,
21057,control_change,,,,,57,0,1,,,,,0,64,0,,
21060,note_on,,,,,0,0,2,,,,,0,,,49,125
21060,control_change,,,,,3,0,1,,,,,0,64,97,,
21060,note_on,,,,,0,0,2,,,,,0,,,52,125
21060,note_on,,,,,0,0,2,,,,,0,,,79,125
21060,note_on,,,,,0,0,2,,,,,0,,,67,125
21060,note_on,,,,,20,0,2,,,,,0,,,76,0
21060,note_on,,,,,0,0,2,,,,,0,,,52,0
21060,note_on,,,,,0,0,2,,,,,0,,,49,0
21060,note_on,,,,,0,0,2,,,,,0,,,64,0
21060,note_on,,,,,0,0,2,,,,,0,,,55,125
21080,note_on,,,,,0,0,2,,,,,0,,,49,119
21080,note_on,,,,,0,0,2,,,,,0,,,55,119
21080,note_on,,,,,0,0,2,,,,,0,,,52,119
21080,note_on,,,,,0,0,2,,,,,0,,,67,119
21080,note_on,,,,,0,0,2,,,,,0,,,52,0
21080,note_on,,,,,0,0,2,,,,,0,,,79,0
21080,note_on,,,,,0,0,2,,,,,0,,,67,0
21080,note_on,,,,,0,0,2,,,,,0,,,55,0
21080,note_on,,,,,20,0,2,,,,,0,,,49,0
21080,note_on,,,,,0,0,2,,,,,0,,,79,119
21085,set_tempo,,,,,40,1,0,,1657458,,,,,,,
21090,set_tempo,,,,,5,1,0,,1648351,,,,,,,
21100,set_tempo,,,,,10,1,0,,1643835,,,,,,,
21100,note_on,,,,,0,0,2,,,,,0,,,49,107
21100,note_on,,,,,20,0,2,,,,,0,,,49,0
21100,note_on,,,,,0,0,2,,,,,0,,,52,107
21100,note_on,,,,,0,0,2,,,,,0,,,55,107
21100,note_on,,,,,0,0,2,,,,,0,,,79,107
21100,note_on,,,,,0,0,2,,,,,0,,,67,107
21100,note_on,,,,,0,0,2,,,,,0,,,52,0
21100,note_on,,,,,0,0,2,,,,,0,,,79,0
21100,note_on,,,,,0,0,2,,,,,0,,,67,0
21100,note_on,,,,,0,0,2,,,,,0,,,55,0
21105,set_tempo,,,,,5,1,0,,1639344,,,,,,,
21115,set_tempo,,,,,10,1,0,,1630434,,,,,,,
21117,control_change,,,,,57,0,1,,,,,0,64,0,,
21120,note_on,,,,,0,0,2,,,,,0,,,49,115
21120,note_on,,,,,0,0,2,,,,,0,,,52,115
21120,note_on,,,,,0,0,2,,,,,0,,,56,115
21120,note_on,,,,,0,0,2,,,,,0,,,80,115
21120,note_on,,,,,0,0,2,,,,,0,,,68,115
21120,note_on,,,,,20,0,2,,,,,0,,,49,0
21120,control_change,,,,,3,0,1,,,,,0,64,96,,
21120,note_on,,,,,0,0,2,,,,,0,,,52,0
21120,note_on,,,,,0,0,2,,,,,0,,,79,0
21120,note_on,,,,,0,0,2,,,,,0,,,67,0
21120,note_on,,,,,0,0,2,,,,,0,,,55,0
21125,set_tempo,,,,,10,1,0,,1621621,,,,,,,
21130,set_tempo,,,,,5,1,0,,1617250,,,,,,,
21140,note_on,,,,,0,0,2,,,,,0,,,49,94
21140,note_on,,,,,0,0,2,,,,,0,,,52,94
21140,note_on,,,,,0,0,2,,,,,0,,,56,94
21140,note_on,,,,,0,0,2,,,,,0,,,68,94
21140,note_on,,,,,0,0,2,,,,,0,,,80,94
21140,note_on,,,,,0,0,2,,,,,0,,,52,0
21140,note_on,,,,,0,0,2,,,,,0,,,56,0
21140,note_on,,,,,0,0,2,,,,,0,,,68,0
21140,note_on,,,,,20,0,2,,,,,0,,,49,0
21140,set_tempo,,,,,10,1,0,,1612903,,,,,,,
21140,note_on,,,,,0,0,2,,,,,0,,,80,0
21160,note_on,,,,,0,0,2,,,,,0,,,49,81
21160,note_on,,,,,0,0,2,,,,,0,,,52,81
21160,note_on,,,,,0,0,2,,,,,0,,,56,81
21160,note_on,,,,,0,0,2,,,,,0,,,68,81
21160,note_on,,,,,0,0,2,,,,,0,,,52,0
21160,note_on,,,,,0,0,2,,,,,0,,,80,81
21160,note_on,,,,,0,0,2,,,,,0,,,68,0
21160,note_on,,,,,0,0,2,,,,,0,,,56,0
21160,note_on,,,,,20,0,2,,,,,0,,,49,0
21160,note_on,,,,,0,0,2,,,,,0,,,80,0
21165,set_tempo,,,,,25,1,0,,1648351,,,,,,,
21170,set_tempo,,,,,5,1,0,,1652892,,,,,,,
21180,note_on,,,,,20,0,2,,,,,0,,,49,0
21180,note_on,,,,,0,0,2,,,,,0,,,56,0
21180,note_on,,,,,0,0,2,,,,,0,,,68,0
21180,note_on,,,,,0,0,2,,,,,0,,,80,0
21180,note_on,,,,,0,0,2,,,,,0,,,49,74
21180,note_on,,,,,0,0,2,,,,,0,,,64,74
21180,note_on,,,,,0,0,2,,,,,0,,,76,74
21180,note_on,,,,,0,0,2,,,,,0,,,52,74
21180,note_on,,,,,0,0,2,,,,,0,,,52,0
21180,set_tempo,,,,,10,1,0,,1657458,,,,,,,
21185,set_tempo,,,,,5,1,0,,1671309,,,,,,,
21190,set_tempo,,,,,5,1,0,,1675977,,,,,,,
21200,set_tempo,,,,,10,1,0,,1685393,,,,,,,
21200,note_on,,,,,20,0,2,,,,,0,,,49,0
21200,note_on,,,,,0,0,2,,,,,0,,,64,0
21200,note_on,,,,,0,0,2,,,,,0,,,76,0
21200,note_on,,,,,0,0,2,,,,,0,,,64,66
21200,note_on,,,,,0,0,2,,,,,0,,,76,66
21200,note_on,,,,,0,0,2,,,,,0,,,52,66
21200,note_on,,,,,0,0,2,,,,,0,,,49,66
21200,note_on,,,,,0,0,2,,,,,0,,,52,0
21205,set_tempo,,,,,5,1,0,,1694915,,,,,,,
21210,set_tempo,,,,,5,1,0,,1699716,,,,,,,
21215,set_tempo,,,,,5,1,0,,1704545,,,,,,,
21220,note_on,,,,,0,0,2,,,,,0,,,64,61
21220,note_on,,,,,0,0,2,,,,,0,,,76,61
21220,note_on,,,,,0,0,2,,,,,0,,,49,61
21220,note_on,,,,,0,0,2,,,,,0,,,52,0
21220,note_on,,,,,0,0,2,,,,,0,,,76,0
21220,note_on,,,,,0,0,2,,,,,0,,,64,0
21220,note_on,,,,,20,0,2,,,,,0,,,49,0
21220,note_on,,,,,0,0,2,,,,,0,,,52,61
21225,set_tempo,,,,,10,1,0,,1734104,,,,,,,
21230,set_tempo,,,,,5,1,0,,1739130,,,,,,,
21237,control_change,,,,,117,0,1,,,,,0,64,0,,
21240,control_change,,,,,3,0,1,,,,,0,64,96,,
21240,note_on,,,,,0,0,2,,,,,0,,,49,55
21240,note_on,,,,,0,0,2,,,,,0,,,61,55
21240,note_on,,,,,0,0,2,,,,,0,,,64,0
21240,note_on,,,,,0,0,2,,,,,0,,,49,0
21240,note_on,,,,,0,0,2,,,,,0,,,52,0
21240,note_on,,,,,20,0,2,,,,,0,,,76,0
21240,note_on,,,,,0,0,2,,,,,0,,,73,55
21240,note_on,,,,,0,0,2,,,,,0,,,52,55
21245,set_tempo,,,,,15,1,0,,1769911,,,,,,,
21255,set_tempo,,,,,10,1,0,,1801801,,,,,,,
21260,set_tempo,,,,,5,1,0,,1807228,,,,,,,
21260,note_on,,,,,0,0,2,,,,,0,,,52,0
21260,note_on,,,,,20,0,2,,,,,0,,,49,0
21260,note_on,,,,,0,0,2,,,,,0,,,61,0
21260,note_on,,,,,0,0,2,,,,,0,,,73,0
21260,note_on,,,,,0,0,2,,,,,0,,,61,48
21260,note_on,,,,,0,0,2,,,,,0,,,73,48
21260,note_on,,,,,0,0,2,,,,,0,,,52,48
21260,note_on,,,,,0,0,2,,,,,0,,,49,48
21265,set_tempo,,,,,5,1,0,,1812688,,,,,,,
21270,set_tempo,,,,,5,1,0,,1823708,,,,,,,
21280,note_on,,,,,0,0,2,,,,,0,,,73,0
21280,note_on,,,,,0,0,2,,,,,0,,,52,0
21280,set_tempo,,,,,10,1,0,,1846153,,,,,,,
21280,note_on,,,,,0,0,2,,,,,0,,,73,46
21280,note_on,,,,,0,0,2,,,,,0,,,61,46
21280,note_on,,,,,0,0,2,,,,,0,,,49,46
21280,note_on,,,,,0,0,2,,,,,0,,,52,46
21280,note_on,,,,,0,0,2,,,,,0,,,61,0
21280,note_on,,,,,20,0,2,,,,,0,,,49,0
21285,set_tempo,,,,,5,1,0,,1851851,,,,,,,
21290,set_tempo,,,,,5,1,0,,1863354,,,,,,,
21300,set_tempo,,,,,10,1,0,,1869158,,,,,,,
21300,note_on,,,,,0,0,2,,,,,0,,,68,44
21300,note_on,,,,,0,0,2,,,,,0,,,52,44
21300,note_on,,,,,0,0,2,,,,,0,,,49,44
21300,note_on,,,,,0,0,2,,,,,0,,,52,0
21300,note_on,,,,,0,0,2,,,,,0,,,61,0
21300,note_on,,,,,0,0,2,,,,,0,,,49,0
21300,note_on,,,,,20,0,2,,,,,0,,,73,0
21300,note_on,,,,,0,0,2,,,,,0,,,56,44
21305,set_tempo,,,,,5,1,0,,1875000,,,,,,,
21310,set_tempo,,,,,5,1,0,,1880877,,,,,,,
21320,note_on,,,,,0,0,2,,,,,0,,,49,42
21320,note_on,,,,,0,0,2,,,,,0,,,52,42
21320,note_on,,,,,0,0,2,,,,,0,,,68,42
21320,note_on,,,,,0,0,2,,,,,0,,,56,42
21320,note_on,,,,,0,0,2,,,,,0,,,52,0
21320,note_on,,,,,0,0,2,,,,,0,,,56,0
21320,note_on,,,,,0,0,2,,,,,0,,,68,0
21320,note_on,,,,,20,0,2,,,,,0,,,49,0
21325,set_tempo,,,,,15,1,0,,1886792,,,,,,,
21340,set_tempo,,,,,15,1,0,,1892744,,,,,,,
21340,note_on,,,,,0,0,2,,,,,0,,,52,42
21340,note_on,,,,,20,0,2,,,,,0,,,49,0
21340,note_on,,,,,0,0,2,,,,,0,,,56,0
21340,note_on,,,,,0,0,2,,,,,0,,,68,0
21340,note_on,,,,,0,0,2,,,,,0,,,52,0
21340,note_on,,,,,0,0,2,,,,,0,,,56,42
21340,note_on,,,,,0,0,2,,,,,0,,,68,42
21340,note_on,,,,,0,0,2,,,,,0,,,49,42
21345,set_tempo,,,,,5,1,0,,2150537,,,,,,,
21357,control_change,,,,,117,0,1,,,,,0,64,0,,
21360,control_change,,,,,3,0,1,,,,,0,64,95,,
21360,note_on,,,,,20,0,2,,,,,0,,,49,0
21360,note_on,,,,,0,0,2,,,,,0,,,52,56
21360,note_on,,,,,0,0,2,,,,,0,,,52,0
21360,note_on,,,,,0,0,2,,,,,0,,,68,0
21360,note_on,,,,,0,0,2,,,,,0,,,56,0
21360,note_on,,,,,0,0,2,,,,,0,,,56,56
21360,note_on,,,,,0,0,2,,,,,0,,,68,56
21360,note_on,,,,,0,0,2,,,,,0,,,49,56
21380,note_on,,,,,0,0,2,,,,,0,,,49,51
21380,set_tempo,,,,,35,1,0,,1980198,,,,,,,
21380,note_on,,,,,0,0,2,,,,,0,,,52,51
21380,note_on,,,,,20,0,2,,,,,0,,,49,0
21380,note_on,,,,,0,0,2,,,,,0,,,52,0
21380,note_on,,,,,0,0,2,,,,,0,,,56,0
21380,note_on,,,,,0,0,2,,,,,0,,,68,0
21380,note_on,,,,,0,0,2,,,,,0,,,57,51
21380,note_on,,,,,0,0,2,,,,,0,,,69,51
21385,set_tempo,,,,,5,1,0,,1967213,,,,,,,
21390,set_tempo,,,,,5,1,0,,1892744,,,,,,,
21395,note_on,,,,,15,0,2,,,,,0,,,69,0
21395,note_on,,,,,0,0,2,,,,,0,,,57,0
21395,set_tempo,,,,,5,1,0,,1834862,,,,,,,
21400,note_on,,,,,5,0,2,,,,,0,,,52,0
21400,note_on,,,,,0,0,2,,,,,0,,,49,0
21400,note_on,,,,,0,0,2,,,,,0,,,52,43
21400,note_on,,,,,0,0,2,,,,,0,,,49,43
21400,set_tempo,,,,,5,1,0,,1818181,,,,,,,
21400,note_on,,,,,0,0,2,,,,,0,,,57,43
21400,note_on,,,,,0,0,2,,,,,0,,,69,43
21405,set_tempo,,,,,5,1,0,,1796407,,,,,,,
21410,set_tempo,,,,,5,1,0,,1729106,,,,,,,
21415,set_tempo,,,,,5,1,0,,1729106,,,,,,,
21420,note_on,,,,,0,0,2,,,,,0,,,49,45
21420,note_on,,,,,0,0,2,,,,,0,,,69,0
21420,note_on,,,,,0,0,2,,,,,0,,,61,45
21420,note_on,,,,,0,0,2,,,,,0,,,73,45
21420,note_on,,,,,0,0,2,,,,,0,,,52,45
21420,note_on,,,,,0,0,2,,,,,0,,,52,0
21420,note_on,,,,,20,0,2,,,,,0,,,57,0
21420,note_on,,,,,0,0,2,,,,,0,,,49,0
21425,set_tempo,,,,,10,1,0,,1719197,,,,,,,
21435,set_tempo,,,,,10,1,0,,1714285,,,,,,,
21440,note_on,,,,,0,0,2,,,,,0,,,52,0
21440,set_tempo,,,,,5,1,0,,1704545,,,,,,,
21440,note_on,,,,,20,0,2,,,,,0,,,49,0
21440,note_on,,,,,0,0,2,,,,,0,,,73,0
21440,note_on,,,,,0,0,2,,,,,0,,,61,0
21440,note_on,,,,,0,0,2,,,,,0,,,61,48
21440,note_on,,,,,0,0,2,,,,,0,,,73,48
21440,note_on,,,,,0,0,2,,,,,0,,,49,48
21440,note_on,,,,,0,0,2,,,,,0,,,52,48
21455,set_tempo,,,,,15,1,0,,1699716,,,,,,,
21460,note_on,,,,,0,0,2,,,,,0,,,61,54
21460,note_on,,,,,0,0,2,,,,,0,,,73,54
21460,note_on,,,,,20,0,2,,,,,0,,,49,0
21460,note_on,,,,,0,0,2,,,,,0,,,73,0
21460,note_on,,,,,0,0,2,,,,,0,,,61,0
21460,note_on,,,,,0,0,2,,,,,0,,,52,0
21460,note_on,,,,,0,0,2,,,,,0,,,52,54
21460,set_tempo,,,,,5,1,0,,1694915,,,,,,,
21460,note_on,,,,,0,0,2,,,,,0,,,49,54
21475,control_change,,,,,115,0,1,,,,,0,64,0,,
21480,control_change,,,,,5,0,1,,,,,0,64,94,,
21480,note_on,,,,,0,0,2,,,,,0,,,49,0
21480,note_on,,,,,0,0,2,,,,,0,,,52,0
21480,note_on,,,,,20,0,2,,,,,0,,,61,0
21480,note_on,,,,,0,0,2,,,,,0,,,73,0
21480,note_on,,,,,0,0,2,,,,,0,,,64,69
21480,note_on,,,,,0,0,2,,,,,0,,,76,69
21480,note_on,,,,,0,0,2,,,,,0,,,52,69
21480,note_on,,,,,0,0,2,,,,,0,,,49,69
21490,set_tempo,,,,,30,1,0,,1685393,,,,,,,
21500,note_on,,,,,0,0,2,,,,,0,,,52,0
21500,note_on,,,,,0,0,2,,,,,0,,,64,89
21500,note_on,,,,,0,0,2,,,,,0,,,76,89
21500,note_on,,,,,0,0,2,,,,,0,,,52,89
21500,note_on,,,,,20,0,2,,,,,0,,,49,0
21500,note_on,,,,,0,0,2,,,,,0,,,76,0
21500,note_on,,,,,0,0,2,,,,,0,,,49,89
21500,note_on,,,,,0,0,2,,,,,0,,,64,0
21520,note_on,,,,,0,0,2,,,,,0,,,52,101
21520,note_on,,,,,0,0,2,,,,,0,,,49,101
21520,note_on,,,,,0,0,2,,,,,0,,,64,101
21520,note_on,,,,,0,0,2,,,,,0,,,76,101
21520,note_on,,,,,0,0,2,,,,,0,,,64,0
21520,note_on,,,,,0,0,2,,,,,0,,,76,0
21520,note_on,,,,,0,0,2,,,,,0,,,52,0
21520,note_on,,,,,20,0,2,,,,,0,,,49,0
21520,set_tempo,,,,,30,1,0,,1675977,,,,,,,
21525,set_tempo,,,,,5,1,0,,1666666,,,,,,,
21537,control_change,,,,,57,0,1,,,,,0,64,0,,
21540,note_on,,,,,0,0,2,,,,,0,,,49,125
21540,note_on,,,,,0,0,2,,,,,0,,,52,125
21540,note_on,,,,,0,0,2,,,,,0,,,68,125
21540,note_on,,,,,0,0,2,,,,,0,,,80,125
21540,note_on,,,,,0,0,2,,,,,0,,,56,125
21540,note_on,,,,,0,0,2,,,,,0,,,64,0
21540,note_on,,,,,20,0,2,,,,,0,,,76,0
21540,note_on,,,,,0,0,2,,,,,0,,,52,0
21540,control_change,,,,,3,0,1,,,,,0,64,97,,
21540,note_on,,,,,0,0,2,,,,,0,,,49,0
21560,note_on,,,,,0,0,2,,,,,0,,,52,0
21560,note_on,,,,,0,0,2,,,,,0,,,68,119
21560,note_on,,,,,0,0,2,,,,,0,,,80,119
21560,note_on,,,,,0,0,2,,,,,0,,,52,119
21560,note_on,,,,,0,0,2,,,,,0,,,49,119
21560,note_on,,,,,0,0,2,,,,,0,,,56,119
21560,note_on,,,,,0,0,2,,,,,0,,,80,0
21560,note_on,,,,,20,0,2,,,,,0,,,49,0
21560,note_on,,,,,0,0,2,,,,,0,,,68,0
21560,note_on,,,,,0,0,2,,,,,0,,,56,0
21565,set_tempo,,,,,40,1,0,,1657458,,,,,,,
21570,set_tempo,,,,,5,1,0,,1648351,,,,,,,
21580,note_on,,,,,0,0,2,,,,,0,,,80,107
21580,set_tempo,,,,,10,1,0,,1643835,,,,,,,
21580,note_on,,,,,20,0,2,,,,,0,,,49,0
21580,note_on,,,,,0,0,2,,,,,0,,,80,0
21580,note_on,,,,,0,0,2,,,,,0,,,56,0
21580,note_on,,,,,0,0,2,,,,,0,,,68,0
21580,note_on,,,,,0,0,2,,,,,0,,,52,0
21580,note_on,,,,,0,0,2,,,,,0,,,52,107
21580,note_on,,,,,0,0,2,,,,,0,,,49,107
21580,note_on,,,,,0,0,2,,,,,0,,,68,107
21580,note_on,,,,,0,0,2,,,,,0,,,56,107
21585,set_tempo,,,,,5,1,0,,1639344,,,,,,,
21595,set_tempo,,,,,10,1,0,,1630434,,,,,,,
21597,control_change,,,,,57,0,1,,,,,0,64,0,,
21600,note_on,,,,,0,0,2,,,,,0,,,52,115
21600,note_on,,,,,20,0,2,,,,,0,,,56,0
21600,note_on,,,,,0,0,2,,,,,0,,,68,0
21600,note_on,,,,,0,0,2,,,,,0,,,52,0
21600,note_on,,,,,0,0,2,,,,,0,,,49,0
21600,note_on,,,,,0,0,2,,,,,0,,,80,0
21600,note_on,,,,,0,0,2,,,,,0,,,57,115
21600,note_on,,,,,0,0,2,,,,,0,,,69,115
21600,note_on,,,,,0,0,2,,,,,0,,,81,115
21600,note_on,,,,,0,0,2,,,,,0,,,49,115
21600,control_change,,,,,3,0,1,,,,,0,64,96,,
21605,set_tempo,,,,,10,1,0,,1621621,,,,,,,
21610,set_tempo,,,,,5,1,0,,1617250,,,,,,,
21620,note_on,,,,,20,0,2,,,,,0,,,49,0
21620,note_on,,,,,0,0,2,,,,,0,,,57,0
21620,note_on,,,,,0,0,2,,,,,0,,,69,0
21620,note_on,,,,,0,0,2,,,,,0,,,52,0
21620,note_on,,,,,0,0,2,,,,,0,,,57,101
21620,note_on,,,,,0,0,2,,,,,0,,,81,101
21620,note_on,,,,,0,0,2,,,,,0,,,69,101
21620,note_on,,,,,0,0,2,,,,,0,,,52,101
21620,note_on,,,,,0,0,2,,,,,0,,,49,101
21620,note_on,,,,,0,0,2,,,,,0,,,81,0
21620,set_tempo,,,,,10,1,0,,1612903,,,,,,,
21640,note_on,,,,,0,0,2,,,,,0,,,69,0
21640,note_on,,,,,0,0,2,,,,,0,,,57,0
21640,note_on,,,,,0,0,2,,,,,0,,,57,92
21640,note_on,,,,,0,0,2,,,,,0,,,69,92
21640,note_on,,,,,0,0,2,,,,,0,,,49,92
21640,note_on,,,,,20,0,2,,,,,0,,,49,0
21640,note_on,,,,,0,0,2,,,,,0,,,81,0
21640,note_on,,,,,0,0,2,,,,,0,,,52,0
21640,note_on,,,,,0,0,2,,,,,0,,,52,92
21640,note_on,,,,,0,0,2,,,,,0,,,81,92
21645,set_tempo,,,,,25,1,0,,1648351,,,,,,,
21650,set_tempo,,,,,5,1,0,,1652892,,,,,,,
21658,control_change,,,,,58,0,1,,,,,0,64,0,,
21660,set_tempo,,,,,10,1,0,,1657458,,,,,,,
21660,note_on,,,,,20,0,2,,,,,0,,,57,0
21660,note_on,,,,,0,0,2,,,,,0,,,77,79
21660,note_on,,,,,0,0,2,,,,,0,,,65,79
21660,note_on,,,,,0,0,2,,,,,0,,,53,79
21660,note_on,,,,,0,0,2,,,,,0,,,57,79
21660,note_on,,,,,0,0,2,,,,,0,,,81,0
21660,note_on,,,,,0,0,2,,,,,0,,,49,0
21660,note_on,,,,,0,0,2,,,,,0,,,52,0
21660,note_on,,,,,0,0,2,,,,,0,,,69,0
21660,note_on,,,,,0,0,2,,,,,0,,,50,79
21660,control_change,,,,,2,0,1,,,,,0,64,96,,
21665,set_tempo,,,,,5,1,0,,1671309,,,,,,,
21670,set_tempo,,,,,5,1,0,,1675977,,,,,,,
21680,set_tempo,,,,,10,1,0,,1685393,,,,,,,
21680,note_on,,,,,0,0,2,,,,,0,,,57,71
21680,note_on,,,,,0,0,2,,,,,0,,,65,0
21680,note_on,,,,,20,0,2,,,,,0,,,50,0
21680,note_on,,,,,0,0,2,,,,,0,,,57,0
21680,note_on,,,,,0,0,2,,,,,0,,,53,0
21680,note_on,,,,,0,0,2,,,,,0,,,77,0
21680,note_on,,,,,0,0,2,,,,,0,,,77,71
21680,note_on,,,,,0,0,2,,,,,0,,,65,71
21680,note_on,,,,,0,0,2,,,,,0,,,53,71
21680,note_on,,,,,0,0,2,,,,,0,,,50,71
21685,set_tempo,,,,,5,1,0,,1694915,,,,,,,
21690,set_tempo,,,,,5,1,0,,1699716,,,,,,,
21695,set_tempo,,,,,5,1,0,,1704545,,,,,,,
21700,note_on,,,,,20,0,2,,,,,0,,,50,0
21700,note_on,,,,,0,0,2,,,,,0,,,53,0
21700,note_on,,,,,0,0,2,,,,,0,,,77,64
21700,note_on,,,,,0,0,2,,,,,0,,,77,0
21700,note_on,,,,,0,0,2,,,,,0,,,57,0
21700,note_on,,,,,0,0,2,,,,,0,,,65,0
21700,note_on,,,,,0,0,2,,,,,0,,,53,64
21700,note_on,,,,,0,0,2,,,,,0,,,50,64
21700,note_on,,,,,0,0,2,,,,,0,,,57,64
21700,note_on,,,,,0,0,2,,,,,0,,,65,64
21705,set_tempo,,,,,10,1,0,,1734104,,,,,,,
21710,set_tempo,,,,,5,1,0,,1739130,,,,,,,
21717,control_change,,,,,57,0,1,,,,,0,64,0,,
21720,note_on,,,,,0,0,2,,,,,0,,,53,58
21720,note_on,,,,,20,0,2,,,,,0,,,77,0
21720,note_on,,,,,0,0,2,,,,,0,,,57,0
21720,note_on,,,,,0,0,2,,,,,0,,,53,0
21720,note_on,,,,,0,0,2,,,,,0,,,50,0
21720,note_on,,,,,0,0,2,,,,,0,,,57,58
21720,note_on,,,,,0,0,2,,,,,0,,,65,0
21720,note_on,,,,,0,0,2,,,,,0,,,62,58
21720,note_on,,,,,0,0,2,,,,,0,,,50,58
21720,note_on,,,,,0,0,2,,,,,0,,,74,58
21720,control_change,,,,,3,0,1,,,,,0,64,96,,
21725,set_tempo,,,,,15,1,0,,1769911,,,,,,,
21735,set_tempo,,,,,10,1,0,,1801801,,,,,,,
21740,note_on,,,,,0,0,2,,,,,0,,,62,0
21740,set_tempo,,,,,5,1,0,,1807228,,,,,,,
21740,note_on,,,,,0,0,2,,,,,0,,,50,55
21740,note_on,,,,,20,0,2,,,,,0,,,50,0
21740,note_on,,,,,0,0,2,,,,,0,,,74,55
21740,note_on,,,,,0,0,2,,,,,0,,,57,0
21740,note_on,,,,,0,0,2,,,,,0,,,62,55
21740,note_on,,,,,0,0,2,,,,,0,,,57,55
21740,note_on,,,,,0,0,2,,,,,0,,,74,0
21740,note_on,,,,,0,0,2,,,,,0,,,53,55
21740,note_on,,,,,0,0,2,,,,,0,,,53,0
21745,set_tempo,,,,,5,1,0,,1812688,,,,,,,
21750,set_tempo,,,,,5,1,0,,1823708,,,,,,,
21760,note_on,,,,,0,0,2,,,,,0,,,50,51
21760,note_on,,,,,0,0,2,,,,,0,,,53,0
21760,note_on,,,,,20,0,2,,,,,0,,,50,0
21760,note_on,,,,,0,0,2,,,,,0,,,74,0
21760,note_on,,,,,0,0,2,,,,,0,,,57,0
21760,note_on,,,,,0,0,2,,,,,0,,,62,0
21760,set_tempo,,,,,10,1,0,,1846153,,,,,,,
21760,note_on,,,,,0,0,2,,,,,0,,,53,51
21760,note_on,,,,,0,0,2,,,,,0,,,62,51
21760,note_on,,,,,0,0,2,,,,,0,,,74,51
21760,note_on,,,,,0,0,2,,,,,0,,,57,51
21765,set_tempo,,,,,5,1,0,,1851851,,,,,,,
21770,set_tempo,,,,,5,1,0,,1863354,,,,,,,
21780,note_on,,,,,0,0,2,,,,,0,,,48,48
21780,set_tempo,,,,,10,1,0,,1869158,,,,,,,
21780,note_on,,,,,0,0,2,,,,,0,,,62,0
21780,note_on,,,,,0,0,2,,,,,0,,,50,0
21780,note_on,,,,,0,0,2,,,,,0,,,53,0
21780,note_on,,,,,0,0,2,,,,,0,,,57,0
21780,note_on,,,,,20,0,2,,,,,0,,,74,0
21780,note_on,,,,,0,0,2,,,,,0,,,52,48
21780,note_on,,,,,0,0,2,,,,,0,,,69,48
21785,set_tempo,,,,,5,1,0,,1875000,,,,,,,
21790,set_tempo,,,,,5,1,0,,1880877,,,,,,,
21800,note_on,,,,,0,0,2,,,,,0,,,48,48
21800,note_on,,,,,20,0,2,,,,,0,,,69,0
21800,note_on,,,,,0,0,2,,,,,0,,,52,0
21800,note_on,,,,,0,0,2,,,,,0,,,69,48
21800,note_on,,,,,0,0,2,,,,,0,,,52,48
21800,note_on,,,,,0,0,2,,,,,0,,,48,0
21805,set_tempo,,,,,15,1,0,,1892744,,,,,,,
21810,set_tempo,,,,,5,1,0,,1898734,,,,,,,
21820,note_on,,,,,0,0,2,,,,,0,,,52,48
21820,note_on,,,,,20,0,2,,,,,0,,,69,0
21820,note_on,,,,,0,0,2,,,,,0,,,52,0
21820,note_on,,,,,0,0,2,,,,,0,,,48,0
21820,note_on,,,,,0,0,2,,,,,0,,,48,48
21820,note_on,,,,,0,0,2,,,,,0,,,69,48
21820,note_on,,,,,0,0,2,,,,,0,,,45,48
21825,set_tempo,,,,,15,1,0,,1954397,,,,,,,
21830,set_tempo,,,,,5,1,0,,1967213,,,,,,,
21835,set_tempo,,,,,5,1,0,,1980198,,,,,,,
21837,control_change,,,,,117,0,1,,,,,0,64,0,,
21840,note_on,,,,,0,0,2,,,,,0,,,69,53
21840,control_change,,,,,3,0,1,,,,,0,64,95,,
21840,note_on,,,,,20,0,2,,,,,0,,,69,0
21840,note_on,,,,,0,0,2,,,,,0,,,48,0
21840,note_on,,,,,0,0,2,,,,,0,,,45,0
21840,note_on,,,,,0,0,2,,,,,0,,,52,0
21840,note_on,,,,,0,0,2,,,,,0,,,40,53
21840,note_on,,,,,0,0,2,,,,,0,,,48,53
21840,note_on,,,,,0,0,2,,,,,0,,,52,53
21840,note_on,,,,,0,0,2,,,,,0,,,57,53
21840,set_tempo,,,,,5,1,0,,1973684,,,,,,,
21850,set_tempo,,,,,10,1,0,,2013422,,,,,,,
21860,note_on,,,,,0,0,2,,,,,0,,,52,0
21860,note_on,,,,,0,0,2,,,,,0,,,40,0
21860,note_on,,,,,0,0,2,,,,,0,,,48,0
21860,note_on,,,,,0,0,2,,,,,0,,,48,58
21860,note_on,,,,,0,0,2,,,,,0,,,52,58
21860,note_on,,,,,0,0,2,,,,,0,,,40,58
21860,note_on,,,,,0,0,2,,,,,0,,,57,58
21860,note_on,,,,,0,0,2,,,,,0,,,69,58
21860,note_on,,,,,20,0,2,,,,,0,,,69,0
21860,note_on,,,,,0,0,2,,,,,0,,,57,0
21880,note_on,,,,,0,0,2,,,,,0,,,40,0
21880,note_on,,,,,0,0,2,,,,,0,,,69,64
21880,note_on,,,,,20,0,2,,,,,0,,,69,0
21880,set_tempo,,,,,30,1,0,,2054794,,,,,,,
21880,note_on,,,,,0,0,2,,,,,0,,,48,0
21880,note_on,,,,,0,0,2,,,,,0,,,52,0
21880,note_on,,,,,0,0,2,,,,,0,,,57,0
21880,note_on,,,,,0,0,2,,,,,0,,,48,64
21880,note_on,,,,,0,0,2,,,,,0,,,52,64
21880,note_on,,,,,0,0,2,,,,,0,,,40,64
21880,note_on,,,,,0,0,2,,,,,0,,,57,64
21885,set_tempo,,,,,5,1,0,,1986754,,,,,,,
21897,control_change,,,,,57,0,1,,,,,0,64,0,,
21900,note_on,,,,,0,0,2,,,,,0,,,40,0
21900,note_on,,,,,0,0,2,,,,,0,,,48,0
21900,note_on,,,,,0,0,2,,,,,0,,,52,0
21900,note_on,,,,,0,0,2,,,,,0,,,57,0
21900,note_on,,,,,0,0,2,,,,,0,,,50,71
21900,note_on,,,,,0,0,2,,,,,0,,,53,71
21900,note_on,,,,,0,0,2,,,,,0,,,60,71
21900,note_on,,,,,0,0,2,,,,,0,,,72,71
21900,note_on,,,,,20,0,2,,,,,0,,,69,0
21900,control_change,,,,,3,0,1,,,,,0,64,96,,
21902,control_change,,,,,2,0,1,,,,,0,64,95,,
21920,note_on,,,,,0,0,2,,,,,0,,,50,65
21920,note_on,,,,,20,0,2,,,,,0,,,72,0
21920,note_on,,,,,0,0,2,,,,,0,,,50,0
21920,note_on,,,,,0,0,2,,,,,0,,,53,0
21920,note_on,,,,,0,0,2,,,,,0,,,60,0
21920,note_on,,,,,0,0,2,,,,,0,,,53,65
21920,note_on,,,,,0,0,2,,,,,0,,,60,65
21920,note_on,,,,,0,0,2,,,,,0,,,72,65
21935,set_tempo,,,,,50,1,0,,2000000,,,,,,,
21940,note_on,,,,,0,0,2,,,,,0,,,71,61
21940,note_on,,,,,0,0,2,,,,,0,,,59,61
21940,note_on,,,,,0,0,2,,,,,0,,,53,61
21940,note_on,,,,,0,0,2,,,,,0,,,50,61
21940,note_on,,,,,0,0,2,,,,,0,,,60,0
21940,note_on,,,,,0,0,2,,,,,0,,,50,0
21940,note_on,,,,,20,0,2,,,,,0,,,72,0
21940,control_change,,,,,38,0,1,,,,,0,64,0,,
21940,note_on,,,,,0,0,2,,,,,0,,,53,0
21960,note_on,,,,,0,0,2,,,,,0,,,50,0
21960,control_change,,,,,20,0,1,,,,,0,64,96,,
21960,note_on,,,,,20,0,2,,,,,0,,,71,0
21960,note_on,,,,,0,0,2,,,,,0,,,53,0
21960,note_on,,,,,0,0,2,,,,,0,,,59,0
21960,note_on,,,,,0,0,2,,,,,0,,,40,60
21960,note_on,,,,,0,0,2,,,,,0,,,48,60
21960,note_on,,,,,0,0,2,,,,,0,,,52,60
21960,note_on,,,,,0,0,2,,,,,0,,,57,60
21960,note_on,,,,,0,0,2,,,,,0,,,69,60
21960,set_tempo,,,,,25,1,0,,2222222,,,,,,,
21970,set_tempo,,,,,10,1,0,,2307692,,,,,,,
21975,set_tempo,,,,,5,1,0,,2400000,,,,,,,
21980,note_on,,,,,0,0,2,,,,,0,,,52,0
21980,note_on,,,,,20,0,2,,,,,0,,,69,0
21980,note_on,,,,,0,0,2,,,,,0,,,48,0
21980,note_on,,,,,0,0,2,,,,,0,,,69,54
21980,note_on,,,,,0,0,2,,,,,0,,,57,54
21980,note_on,,,,,0,0,2,,,,,0,,,52,54
21980,note_on,,,,,0,0,2,,,,,0,,,48,54
21980,note_on,,,,,0,0,2,,,,,0,,,40,54
21980,note_on,,,,,0,0,2,,,,,0,,,40,0
21980,note_on,,,,,0,0,2,,,,,0,,,57,0
21990,set_tempo,,,,,15,1,0,,2448979,,,,,,,
21995,set_tempo,,,,,5,1,0,,2500000,,,,,,,
22000,set_tempo,,,,,5,1,0,,2553191,,,,,,,
22000,note_on,,,,,0,0,2,,,,,0,,,69,48
22000,note_on,,,,,0,0,2,,,,,0,,,52,48
22000,note_on,,,,,20,0,2,,,,,0,,,69,0
22000,note_on,,,,,0,0,2,,,,,0,,,52,0
22000,note_on,,,,,0,0,2,,,,,0,,,40,0
22000,note_on,,,,,0,0,2,,,,,0,,,48,0
22000,note_on,,,,,0,0,2,,,,,0,,,57,0
22000,note_on,,,,,0,0,2,,,,,0,,,40,48
22000,note_on,,,,,0,0,2,,,,,0,,,48,48
22000,note_on,,,,,0,0,2,,,,,0,,,57,48
22010,set_tempo,,,,,10,1,0,,2608695,,,,,,,
22017,control_change,,,,,57,0,1,,,,,0,64,0,,
22020,note_on,,,,,0,0,2,,,,,0,,,62,43
22020,note_on,,,,,0,0,2,,,,,0,,,56,43
22020,set_tempo,,,,,10,1,0,,2666666,,,,,,,
22020,control_change,,,,,3,0,1,,,,,0,64,95,,
22020,note_on,,,,,0,0,2,,,,,0,,,68,43
22020,note_on,,,,,0,0,2,,,,,0,,,52,43
22020,note_on,,,,,0,0,2,,,,,0,,,64,43
22020,note_on,,,,,0,0,2,,,,,0,,,40,43
22020,note_on,,,,,0,0,2,,,,,0,,,57,0
22020,note_on,,,,,0,0,2,,,,,0,,,48,0
22020,note_on,,,,,0,0,2,,,,,0,,,40,0
22020,note_on,,,,,0,0,2,,,,,0,,,52,0
22020,note_on,,,,,20,0,2,,,,,0,,,69,0
22020,note_on,,,,,0,0,2,,,,,0,,,47,43
22030,set_tempo,,,,,10,1,0,,2727272,,,,,,,
22035,set_tempo,,,,,5,1,0,,2790697,,,,,,,
22040,note_on,,,,,0,0,2,,,,,0,,,52,0
22040,note_on,,,,,0,0,2,,,,,0,,,40,0
22040,note_on,,,,,0,0,2,,,,,0,,,62,0
22040,set_tempo,,,,,5,1,0,,2857142,,,,,,,
22040,note_on,,,,,0,0,2,,,,,0,,,56,0
22040,note_on,,,,,0,0,2,,,,,0,,,64,0
22040,note_on,,,,,0,0,2,,,,,0,,,40,39
22040,note_on,,,,,0,0,2,,,,,0,,,52,39
22040,note_on,,,,,0,0,2,,,,,0,,,64,39
22040,note_on,,,,,20,0,2,,,,,0,,,68,0
22040,note_on,,,,,0,0,2,,,,,0,,,47,0
22040,note_on,,,,,0,0,2,,,,,0,,,62,39
22040,note_on,,,,,0,0,2,,,,,0,,,47,39
22040,note_on,,,,,0,0,2,,,,,0,,,56,39
22040,note_on,,,,,0,0,2,,,,,0,,,68,39
22050,set_tempo,,,,,10,1,0,,2926829,,,,,,,
22060,note_on,,,,,20,0,2,,,,,0,,,68,0
22060,note_on,,,,,0,0,2,,,,,0,,,52,0
22060,note_on,,,,,0,0,2,,,,,0,,,40,0
22060,note_on,,,,,0,0,2,,,,,0,,,56,0
22060,note_on,,,,,0,0,2,,,,,0,,,64,0
22060,note_on,,,,,0,0,2,,,,,0,,,40,35
22060,note_on,,,,,0,0,2,,,,,0,,,47,35
22060,note_on,,,,,0,0,2,,,,,0,,,52,35
22060,note_on,,,,,0,0,2,,,,,0,,,64,35
22060,note_on,,,,,0,0,2,,,,,0,,,62,35
22060,note_on,,,,,0,0,2,,,,,0,,,56,35
22060,note_on,,,,,0,0,2,,,,,0,,,68,35
22060,note_on,,,,,0,0,2,,,,,0,,,47,0
22060,note_on,,,,,0,0,2,,,,,0,,,62,0
22060,set_tempo,,,,,10,1,0,,3870967,,,,,,,
22065,set_tempo,,,,,5,1,0,,6000000,,,,,,,
22075,set_tempo,,,,,10,1,0,,6000000,,,,,,,
22077,control_change,,,,,57,0,1,,,,,0,64,0,,
22080,note_on,,,,,3,0,1,,,,,0,,,68,39
22080,control_change,,,,,0,0,1,,,,,0,64,96,,
22080,set_tempo,,,,,5,1,0,,2790697,,,,,,,
22080,note_on,,,,,20,0,2,,,,,0,,,68,0
22080,note_on,,,,,0,0,2,,,,,0,,,62,0
22080,note_on,,,,,0,0,2,,,,,0,,,52,0
22080,note_on,,,,,0,0,2,,,,,0,,,40,0
22080,note_on,,,,,0,0,2,,,,,0,,,47,0
22080,note_on,,,,,0,0,2,,,,,0,,,64,0
22080,note_on,,,,,0,0,2,,,,,0,,,39,31
22080,note_on,,,,,0,0,2,,,,,0,,,48,31
22080,note_on,,,,,0,0,2,,,,,0,,,51,31
22080,note_on,,,,,0,0,2,,,,,0,,,56,0
22095,set_tempo,,,,,15,1,0,,2727272,,,,,,,
22125,note_on,,,,,45,0,1,,,,,0,,,68,0
22125,note_on,,,,,0,0,1,,,,,0,,,70,37
22130,note_on,,,,,5,0,1,,,,,0,,,70,0
22130,set_tempo,,,,,35,1,0,,2666666,,,,,,,
22130,note_on,,,,,0,0,1,,,,,0,,,68,37
22135,note_on,,,,,0,0,1,,,,,0,,,67,40
22135,note_on,,,,,5,0,1,,,,,0,,,68,0
22140,note_on,,,,,0,0,1,,,,,0,,,68,41
22140,control_change,,,,,0,0,1,,,,,0,64,0,,
22140,note_on,,,,,5,0,1,,,,,0,,,67,0
22140,set_tempo,,,,,10,1,0,,2608695,,,,,,,
22140,note_on,,,,,60,0,2,,,,,0,,,51,0
22140,note_on,,,,,0,0,2,,,,,0,,,48,0
22140,note_on,,,,,0,0,2,,,,,0,,,39,0
22145,control_change,,,,,0,0,1,,,,,0,64,96,,
22145,note_on,,,,,0,0,1,,,,,0,,,72,43
22145,note_on,,,,,0,0,1,,,,,0,,,60,43
22145,note_on,,,,,5,0,1,,,,,0,,,68,0
22145,note_on,,,,,5,0,2,,,,,0,,,49,39
22145,note_on,,,,,0,0,2,,,,,0,,,53,39
22150,set_tempo,,,,,10,1,0,,2586206,,,,,,,
22155,set_tempo,,,,,5,1,0,,2643171,,,,,,,
22165,set_tempo,,,,,10,1,0,,2702702,,,,,,,
22170,set_tempo,,,,,5,1,0,,2764976,,,,,,,
22175,set_tempo,,,,,5,1,0,,2830188,,,,,,,
22185,note_on,,,,,0,0,1,,,,,0,,,58,43
22185,note_on,,,,,0,0,1,,,,,0,,,70,43
22185,note_on,,,,,0,0,1,,,,,0,,,60,0
22185,note_on,,,,,40,0,1,,,,,0,,,72,0
22185,set_tempo,,,,,10,1,0,,2898550,,,,,,,
22190,set_tempo,,,,,5,1,0,,2970297,,,,,,,
22195,set_tempo,,,,,5,1,0,,3045685,,,,,,,
22197,control_change,,,,,12,0,1,,,,,0,64,0,,
22200,note_on,,,,,3,0,1,,,,,0,,,70,0
22200,note_on,,,,,0,0,1,,,,,0,,,58,0
22200,note_on,,,,,0,0,1,,,,,0,,,56,43
22200,note_on,,,,,0,0,1,,,,,0,,,68,43
22200,control_change,,,,,0,0,1,,,,,0,64,93,,
22200,note_on,,,,,0,0,2,,,,,0,,,48,42
22200,note_on,,,,,0,0,2,,,,,0,,,49,0
22200,note_on,,,,,0,0,2,,,,,0,,,39,42
22200,note_on,,,,,0,0,2,,,,,0,,,51,42
22200,note_on,,,,,55,0,2,,,,,0,,,53,0
22210,set_tempo,,,,,15,1,0,,3296703,,,,,,,
22230,set_tempo,,,,,20,1,0,,3389830,,,,,,,
22245,set_tempo,,,,,15,1,0,,3488372,,,,,,,
22250,set_tempo,,,,,5,1,0,,3592814,,,,,,,
22255,set_tempo,,,,,5,1,0,,3703703,,,,,,,
22257,control_change,,,,,57,0,1,,,,,0,64,0,,
22260,note_on,,,,,0,0,1,,,,,0,,,56,0
22260,note_on,,,,,60,0,2,,,,,0,,,51,0
22260,note_on,,,,,0,0,1,,,,,0,,,55,34
22260,note_on,,,,,0,0,1,,,,,0,,,61,34
22260,note_on,,,,,0,0,1,,,,,0,,,63,34
22260,note_on,,,,,0,0,1,,,,,0,,,67,34
22260,note_on,,,,,3,0,1,,,,,0,,,68,0
22260,note_on,,,,,0,0,2,,,,,0,,,48,0
22260,note_on,,,,,0,0,2,,,,,0,,,46,32
22260,note_on,,,,,0,0,2,,,,,0,,,39,32
22260,control_change,,,,,0,0,1,,,,,0,64,93,,
22260,note_on,,,,,0,0,2,,,,,0,,,51,32
22260,note_on,,,,,0,0,2,,,,,0,,,39,0
22270,set_tempo,,,,,15,1,0,,3821656,,,,,,,
22285,set_tempo,,,,,15,1,0,,3947368,,,,,,,
22290,set_tempo,,,,,5,1,0,,4081632,,,,,,,
22295,set_tempo,,,,,5,1,0,,4225352,,,,,,,
22310,set_tempo,,,,,15,1,0,,4444444,,,,,,,
22315,set_tempo,,,,,5,1,0,,4444444,,,,,,,
22317,control_change,,,,,57,0,1,,,,,0,64,0,,
22320,note_on,,,,,0,0,1,,,,,0,,,55,0
22320,note_on,,,,,3,0,1,,,,,0,,,67,0
22320,note_on,,,,,0,0,2,,,,,0,,,39,0
22320,note_on,,,,,0,0,2,,,,,0,,,32,40
22320,note_on,,,,,0,0,1,,,,,0,,,63,0
22320,note_on,,,,,60,0,2,,,,,0,,,51,0
22320,note_on,,,,,0,0,2,,,,,0,,,46,0
22320,control_change,,,,,0,0,1,,,,,0,64,96,,
22320,note_on,,,,,0,0,1,,,,,0,,,61,0
22320,set_tempo,,,,,5,1,0,,3076923,,,,,,,
22320,note_on,,,,,0,0,1,,,,,0,,,60,37
22320,control_change,,,,,0,0,1,,,,,0,91,96,,
22325,note_on,,,,,5,0,1,,,,,0,,,68,48
22330,note_on,,,,,5,0,1,,,,,0,,,75,43
22335,set_tempo,,,,,15,1,0,,2000000,,,,,,,
22343,note_on,,,,,23,0,2,,,,,0,,,32,0
22350,note_on,,,,,7,0,2,,,,,0,,,44,28
22365,note_on,,,,,15,0,2,,,,,0,,,44,0
22376,control_change,,,,,46,0,1,,,,,0,64,0,,
22380,note_on,,,,,15,0,2,,,,,0,,,51,32
22395,note_on,,,,,15,0,2,,,,,0,,,51,0
22410,note_on,,,,,15,0,2,,,,,0,,,44,37
22425,note_on,,,,,0,0,1,,,,,0,,,60,0
22425,note_on,,,,,49,0,1,,,,,0,,,75,0
22425,note_on,,,,,15,0,2,,,,,0,,,44,0
22425,note_on,,,,,0,0,1,,,,,0,,,68,0
22440,note_on,,,,,15,0,1,,,,,0,,,61,34
22440,control_change,,,,,0,0,1,,,,,0,64,95,,
22440,note_on,,,,,15,0,2,,,,,0,,,34,43
22440,set_tempo,,,,,105,1,0,,2666666,,,,,,,
22445,note_on,,,,,5,0,1,,,,,0,,,68,41
22450,note_on,,,,,5,0,1,,,,,0,,,75,34
22455,set_tempo,,,,,15,1,0,,2033898,,,,,,,
22463,note_on,,,,,23,0,2,,,,,0,,,34,0
22470,note_on,,,,,7,0,2,,,,,0,,,46,30
22470,note_on,,,,,20,0,1,,,,,0,,,68,0
22470,note_on,,,,,0,0,1,,,,,0,,,67,38
22485,note_on,,,,,15,0,2,,,,,0,,,46,0
22496,control_change,,,,,26,0,1,,,,,0,64,0,,
22500,note_on,,,,,0,0,1,,,,,0,,,70,42
22500,note_on,,,,,15,0,2,,,,,0,,,51,32
22500,note_on,,,,,4,0,1,,,,,0,,,67,0
22515,note_on,,,,,15,0,2,,,,,0,,,51,0
22530,note_on,,,,,30,0,1,,,,,0,,,70,0
22530,note_on,,,,,0,0,1,,,,,0,,,67,38
22530,note_on,,,,,15,0,2,,,,,0,,,46,35
22545,note_on,,,,,15,0,1,,,,,0,,,75,0
22545,note_on,,,,,15,0,2,,,,,0,,,46,0
22560,control_change,,,,,0,0,1,,,,,0,64,95,,
22560,note_on,,,,,0,0,1,,,,,0,,,61,0
22560,note_on,,,,,0,0,1,,,,,0,,,68,40
22560,note_on,,,,,0,0,1,,,,,0,,,75,40
22560,note_on,,,,,0,0,1,,,,,0,,,63,40
22560,note_on,,,,,15,0,1,,,,,0,,,67,0
22560,note_on,,,,,15,0,2,,,,,0,,,36,39
22583,note_on,,,,,23,0,2,,,,,0,,,36,0
22590,note_on,,,,,7,0,2,,,,,0,,,56,32
22605,note_on,,,,,15,0,2,,,,,0,,,56,0
22616,control_change,,,,,56,0,1,,,,,0,64,0,,
22620,note_on,,,,,15,0,2,,,,,0,,,51,36
22635,note_on,,,,,15,0,2,,,,,0,,,51,0
22640,set_tempo,,,,,185,1,0,,1898734,,,,,,,
22650,set_tempo,,,,,10,1,0,,1910828,,,,,,,
22650,note_on,,,,,34,0,1,,,,,0,,,63,0
22650,note_on,,,,,15,0,2,,,,,0,,,49,38
22660,set_tempo,,,,,10,1,0,,1916932,,,,,,,
22665,note_on,,,,,15,0,1,,,,,0,,,65,33
22665,note_on,,,,,15,0,2,,,,,0,,,49,0
22670,set_tempo,,,,,10,1,0,,1923076,,,,,,,
22680,note_on,,,,,0,0,1,,,,,0,,,63,38
22680,note_on,,,,,15,0,2,,,,,0,,,48,41
22680,set_tempo,,,,,10,1,0,,1941747,,,,,,,
22680,note_on,,,,,15,0,1,,,,,0,,,65,0
22690,set_tempo,,,,,10,1,0,,1948051,,,,,,,
22700,set_tempo,,,,,10,1,0,,1954397,,,,,,,
22703,note_on,,,,,23,0,2,,,,,0,,,48,0
22710,note_on,,,,,7,0,2,,,,,0,,,51,40
22710,set_tempo,,,,,10,1,0,,1967213,,,,,,,
22720,set_tempo,,,,,10,1,0,,1980198,,,,,,,
22725,note_on,,,,,15,0,2,,,,,0,,,51,0
22730,set_tempo,,,,,10,1,0,,1986754,,,,,,,
22732,note_on,,,,,0,0,1,,,,,0,,,68,0
22732,note_on,,,,,0,0,1,,,,,0,,,75,0
22732,note_on,,,,,52,0,1,,,,,0,,,63,0
22740,note_on,,,,,15,0,2,,,,,0,,,43,34
22740,set_tempo,,,,,10,1,0,,1993355,,,,,,,
22740,note_on,,,,,8,0,1,,,,,0,,,70,51
22740,note_on,,,,,0,0,1,,,,,0,,,75,41
22740,note_on,,,,,0,0,1,,,,,0,,,63,41
22750,set_tempo,,,,,10,1,0,,2000000,,,,,,,
22755,note_on,,,,,15,0,2,,,,,0,,,43,0
22760,set_tempo,,,,,10,1,0,,1973684,,,,,,,
22770,note_on,,,,,15,0,2,,,,,0,,,51,33
22770,set_tempo,,,,,10,1,0,,1960784,,,,,,,
22785,note_on,,,,,15,0,2,,,,,0,,,51,0
22790,set_tempo,,,,,20,1,0,,1948051,,,,,,,
22800,note_on,,,,,0,0,1,,,,,0,,,72,57
22800,note_on,,,,,0,0,1,,,,,0,,,70,0
22800,note_on,,,,,0,0,1,,,,,0,,,75,0
22800,note_on,,,,,60,0,1,,,,,0,,,63,0
22800,note_on,,,,,0,0,1,,,,,0,,,63,47
22800,note_on,,,,,15,0,2,,,,,0,,,44,40
22800,set_tempo,,,,,10,1,0,,1935483,,,,,,,
22800,note_on,,,,,0,0,1,,,,,0,,,75,47
22810,set_tempo,,,,,10,1,0,,1923076,,,,,,,
22820,set_tempo,,,,,10,1,0,,1916932,,,,,,,
22823,note_on,,,,,23,0,2,,,,,0,,,44,0
22830,note_on,,,,,7,0,2,,,,,0,,,51,32
22830,set_tempo,,,,,10,1,0,,1910828,,,,,,,
22840,set_tempo,,,,,10,1,0,,1892744,,,,,,,
22845,note_on,,,,,15,0,2,,,,,0,,,51,0
22850,set_tempo,,,,,10,1,0,,1886792,,,,,,,
22860,note_on,,,,,15,0,2,,,,,0,,,43,34
22860,set_tempo,,,,,10,1,0,,1875000,,,,,,,
22860,note_on,,,,,60,0,1,,,,,0,,,63,0
22860,note_on,,,,,0,0,1,,,,,0,,,72,0
22860,note_on,,,,,0,0,1,,,,,0,,,70,42
22860,note_on,,,,,0,0,1,,,,,0,,,64,42
22860,note_on,,,,,0,0,1,,,,,0,,,75,0
22860,note_on,,,,,0,0,1,,,,,0,,,72,52
22860,note_on,,,,,0,0,1,,,,,0,,,76,42
22875,note_on,,,,,15,0,2,,,,,0,,,43,0
22880,set_tempo,,,,,20,1,0,,1851851,,,,,,,
22890,set_tempo,,,,,10,1,0,,1846153,,,,,,,
22890,note_on,,,,,15,0,2,,,,,0,,,48,39
22900,set_tempo,,,,,10,1,0,,1840490,,,,,,,
22905,note_on,,,,,15,0,2,,,,,0,,,48,0
22910,set_tempo,,,,,10,1,0,,1829268,,,,,,,
22920,note_on,,,,,15,0,2,,,,,0,,,41,44
22920,set_tempo,,,,,10,1,0,,1829268,,,,,,,
22920,note_on,,,,,60,0,1,,,,,0,,,70,0
22920,note_on,,,,,0,0,1,,,,,0,,,72,0
22920,note_on,,,,,0,0,1,,,,,0,,,76,0
22920,note_on,,,,,0,0,1,,,,,0,,,64,0
22920,note_on,,,,,0,0,1,,,,,0,,,72,58
22920,note_on,,,,,0,0,1,,,,,0,,,65,48
22920,note_on,,,,,0,0,1,,,,,0,,,77,48
22920,note_on,,,,,0,0,1,,,,,0,,,68,48
22940,set_tempo,,,,,20,1,0,,1823708,,,,,,,
22943,note_on,,,,,23,0,2,,,,,0,,,41,0
22950,note_on,,,,,7,0,2,,,,,0,,,48,33
22960,set_tempo,,,,,20,1,0,,1812688,,,,,,,
22965,note_on,,,,,15,0,2,,,,,0,,,48,0
22970,set_tempo,,,,,10,1,0,,1807228,,,,,,,
22980,note_on,,,,,0,0,1,,,,,0,,,72,0
22980,note_on,,,,,15,0,2,,,,,0,,,37,39
22980,set_tempo,,,,,10,1,0,,2448979,,,,,,,
22980,note_on,,,,,0,0,1,,,,,0,,,65,0
22980,note_on,,,,,0,0,1,,,,,0,,,77,0
22980,note_on,,,,,60,0,1,,,,,0,,,68,0
22980,note_on,,,,,0,0,1,,,,,0,,,65,48
22980,control_change,,,,,0,0,1,,,,,0,64,95,,
22985,note_on,,,,,5,0,1,,,,,0,,,73,57
22990,note_on,,,,,5,0,1,,,,,0,,,80,52
22995,note_on,,,,,15,0,2,,,,,0,,,37,0
22995,set_tempo,,,,,15,1,0,,1791044,,,,,,,
23010,note_on,,,,,15,0,2,,,,,0,,,49,42
23025,note_on,,,,,15,0,2,,,,,0,,,49,0
23036,control_change,,,,,46,0,1,,,,,0,64,0,,
23040,set_tempo,,,,,45,1,0,,1785714,,,,,,,
23040,note_on,,,,,0,0,1,,,,,0,,,65,0
23040,note_on,,,,,0,0,1,,,,,0,,,73,0
23040,note_on,,,,,0,0,1,,,,,0,,,72,57
23040,note_on,,,,,0,0,1,,,,,0,,,63,47
23040,note_on,,,,,15,0,2,,,,,0,,,39,45
23040,note_on,,,,,0,0,1,,,,,0,,,75,47
23040,note_on,,,,,4,0,1,,,,,0,,,80,0
23040,note_on,,,,,0,0,1,,,,,0,,,68,47
23050,set_tempo,,,,,10,1,0,,1780415,,,,,,,
23063,note_on,,,,,23,0,2,,,,,0,,,39,0
23070,note_on,,,,,7,0,2,,,,,0,,,44,35
23080,set_tempo,,,,,30,1,0,,1791044,,,,,,,
23085,note_on,,,,,15,0,2,,,,,0,,,44,0
23090,set_tempo,,,,,10,1,0,,1801801,,,,,,,
23100,note_on,,,,,15,0,2,,,,,0,,,48,37
23100,set_tempo,,,,,10,1,0,,1823708,,,,,,,
23110,set_tempo,,,,,10,1,0,,1829268,,,,,,,
23115,note_on,,,,,15,0,2,,,,,0,,,48,0
23120,set_tempo,,,,,10,1,0,,1840490,,,,,,,
23130,note_on,,,,,15,0,2,,,,,0,,,51,42
23130,set_tempo,,,,,10,1,0,,1857585,,,,,,,
23140,set_tempo,,,,,10,1,0,,1863354,,,,,,,
23145,note_on,,,,,15,0,2,,,,,0,,,51,0
23150,set_tempo,,,,,10,1,0,,1869158,,,,,,,
23160,note_on,,,,,15,0,2,,,,,0,,,51,49
23160,set_tempo,,,,,10,1,0,,1875000,,,,,,,
23160,note_on,,,,,0,0,1,,,,,0,,,67,38
23160,note_on,,,,,0,0,1,,,,,0,,,70,48
23160,note_on,,,,,0,0,1,,,,,0,,,72,0
23160,note_on,,,,,120,0,1,,,,,0,,,68,0
23170,set_tempo,,,,,10,1,0,,1898734,,,,,,,
23180,set_tempo,,,,,10,1,0,,1904761,,,,,,,
23183,note_on,,,,,23,0,2,,,,,0,,,51,0
23190,set_tempo,,,,,10,1,0,,1904761,,,,,,,
23190,note_on,,,,,7,0,2,,,,,0,,,50,39
23205,note_on,,,,,15,0,2,,,,,0,,,50,0
23220,note_on,,,,,15,0,2,,,,,0,,,51,35
23220,set_tempo,,,,,30,1,0,,1935483,,,,,,,
23230,set_tempo,,,,,10,1,0,,1967213,,,,,,,
23235,set_tempo,,,,,5,1,0,,2000000,,,,,,,
23235,note_on,,,,,0,0,1,,,,,0,,,75,0
23235,note_on,,,,,0,0,1,,,,,0,,,63,0
23235,note_on,,,,,15,0,2,,,,,0,,,51,0
23235,note_on,,,,,75,0,1,,,,,0,,,67,0
23235,note_on,,,,,0,0,1,,,,,0,,,70,0
23245,set_tempo,,,,,10,1,0,,2033898,,,,,,,
23250,note_on,,,,,15,0,2,,,,,0,,,49,34
23250,note_on,,,,,15,0,1,,,,,0,,,71,43
23255,set_tempo,,,,,10,1,0,,2181818,,,,,,,
23260,set_tempo,,,,,5,1,0,,2222222,,,,,,,
23265,set_tempo,,,,,5,1,0,,2307692,,,,,,,
23265,note_on,,,,,15,0,2,,,,,0,,,49,0
23270,set_tempo,,,,,5,1,0,,2400000,,,,,,,
23275,set_tempo,,,,,5,1,0,,2500000,,,,,,,
23280,note_on,,,,,15,0,2,,,,,0,,,48,32
23280,note_on,,,,,30,0,1,,,,,0,,,71,0
23280,note_on,,,,,0,0,1,,,,,0,,,55,37
23280,note_on,,,,,0,0,1,,,,,0,,,72,47
23280,note_on,,,,,0,0,1,,,,,0,,,64,37
23280,set_tempo,,,,,5,1,0,,2068965,,,,,,,
23280,note_on,,,,,0,0,1,,,,,0,,,76,37
23285,set_tempo,,,,,5,1,0,,2000000,,,,,,,
23295,set_tempo,,,,,10,1,0,,1967213,,,,,,,
23300,set_tempo,,,,,5,1,0,,1904761,,,,,,,
23303,note_on,,,,,23,0,2,,,,,0,,,48,0
23305,set_tempo,,,,,5,1,0,,1875000,,,,,,,
23310,note_on,,,,,7,0,2,,,,,0,,,49,31
23320,set_tempo,,,,,15,1,0,,1818181,,,,,,,
23325,note_on,,,,,15,0,2,,,,,0,,,49,0
23340,note_on,,,,,15,0,2,,,,,0,,,47,35
23340,set_tempo,,,,,20,1,0,,1791044,,,,,,,
23355,note_on,,,,,15,0,2,,,,,0,,,47,0
23370,note_on,,,,,15,0,2,,,,,0,,,48,39
23385,note_on,,,,,15,0,2,,,,,0,,,48,0
23397,control_change,,,,,117,0,1,,,,,0,64,0,,
23400,note_on,,,,,15,0,2,,,,,0,,,53,42
23400,note_on,,,,,0,0,1,,,,,0,,,55,0
23400,note_on,,,,,0,0,1,,,,,0,,,76,0
23400,note_on,,,,,0,0,1,,,,,0,,,72,0
23400,note_on,,,,,0,0,1,,,,,0,,,68,47
23400,note_on,,,,,0,0,1,,,,,0,,,56,37
23400,note_on,,,,,0,0,1,,,,,0,,,77,37
23400,note_on,,,,,0,0,1,,,,,0,,,65,37
23400,note_on,,,,,3,0,1,,,,,0,,,64,0
23423,note_on,,,,,23,0,2,,,,,0,,,53,0
23430,note_on,,,,,7,0,2,,,,,0,,,41,39
23445,note_on,,,,,15,0,2,,,,,0,,,41,0
23450,set_tempo,,,,,110,1,0,,1869158,,,,,,,
23460,note_on,,,,,15,0,2,,,,,0,,,43,37
23470,set_tempo,,,,,20,1,0,,1863354,,,,,,,
23475,note_on,,,,,15,0,2,,,,,0,,,43,0
23490,note_on,,,,,15,0,2,,,,,0,,,44,36
23490,note_on,,,,,90,0,1,,,,,0,,,65,0
23490,note_on,,,,,0,0,1,,,,,0,,,68,0
23505,note_on,,,,,0,0,1,,,,,0,,,63,33
23505,note_on,,,,,15,0,2,,,,,0,,,44,0
23505,note_on,,,,,15,0,1,,,,,0,,,67,43
23510,set_tempo,,,,,40,1,0,,1857585,,,,,,,
23520,note_on,,,,,0,0,1,,,,,0,,,56,41
23520,note_on,,,,,0,0,1,,,,,0,,,63,41
23520,note_on,,,,,0,0,1,,,,,0,,,70,41
23520,note_on,,,,,15,0,2,,,,,0,,,46,39
23520,note_on,,,,,0,0,1,,,,,0,,,67,51
23520,note_on,,,,,0,0,1,,,,,0,,,67,0
23520,note_on,,,,,15,0,1,,,,,0,,,63,0
23520,note_on,,,,,0,0,1,,,,,0,,,56,0
23520,note_on,,,,,0,0,1,,,,,0,,,77,0
23540,set_tempo,,,,,30,1,0,,1851851,,,,,,,
23543,note_on,,,,,23,0,2,,,,,0,,,46,0
23550,note_on,,,,,7,0,2,,,,,0,,,45,39
23565,note_on,,,,,15,0,2,,,,,0,,,45,0
23580,note_on,,,,,15,0,2,,,,,0,,,46,41
23580,note_on,,,,,60,0,1,,,,,0,,,63,0
23580,note_on,,,,,0,0,1,,,,,0,,,67,0
23580,note_on,,,,,0,0,1,,,,,0,,,65,42
23580,note_on,,,,,0,0,1,,,,,0,,,62,36
23595,note_on,,,,,15,0,2,,,,,0,,,46,0
23600,set_tempo,,,,,60,1,0,,1846153,,,,,,,
23610,note_on,,,,,15,0,2,,,,,0,,,48,46
23625,note_on,,,,,15,0,2,,,,,0,,,48,0
23630,set_tempo,,,,,30,1,0,,1840490,,,,,,,
23640,note_on,,,,,15,0,2,,,,,0,,,48,51
23660,set_tempo,,,,,30,1,0,,1834862,,,,,,,
23663,note_on,,,,,23,0,2,,,,,0,,,48,0
23670,note_on,,,,,7,0,2,,,,,0,,,46,45
23680,set_tempo,,,,,20,1,0,,1829268,,,,,,,
23685,note_on,,,,,0,0,1,,,,,0,,,70,0
23685,note_on,,,,,105,0,1,,,,,0,,,62,0
23685,note_on,,,,,0,0,1,,,,,0,,,65,0
23685,note_on,,,,,15,0,2,,,,,0,,,46,0
23685,note_on,,,,,0,0,1,,,,,0,,,56,0
23700,note_on,,,,,15,0,1,,,,,0,,,65,45
23700,note_on,,,,,0,0,1,,,,,0,,,56,35
23700,note_on,,,,,0,0,1,,,,,0,,,70,35
23700,note_on,,,,,15,0,2,,,,,0,,,45,41
23700,set_tempo,,,,,20,1,0,,1791044,,,,,,,
23700,note_on,,,,,0,0,1,,,,,0,,,62,35
23715,note_on,,,,,15,0,2,,,,,0,,,45,0
23715,set_tempo,,,,,15,1,0,,1818181,,,,,,,
23725,set_tempo,,,,,10,1,0,,1846153,,,,,,,
23730,note_on,,,,,15,0,2,,,,,0,,,46,39
23740,set_tempo,,,,,15,1,0,,1875000,,,,,,,
23745,note_on,,,,,15,0,2,,,,,0,,,46,0
23745,set_tempo,,,,,5,1,0,,1904761,,,,,,,
23760,note_on,,,,,0,0,1,,,,,0,,,70,43
23760,note_on,,,,,0,0,1,,,,,0,,,63,43
23760,note_on,,,,,0,0,1,,,,,0,,,67,53
23760,note_on,,,,,0,0,1,,,,,0,,,55,43
23760,note_on,,,,,0,0,1,,,,,0,,,56,0
23760,note_on,,,,,0,0,1,,,,,0,,,70,0
23760,note_on,,,,,15,0,2,,,,,0,,,51,45
23760,note_on,,,,,60,0,1,,,,,0,,,62,0
23760,note_on,,,,,0,0,1,,,,,0,,,65,0
23760,set_tempo,,,,,15,1,0,,1935483,,,,,,,
23765,set_tempo,,,,,5,1,0,,1967213,,,,,,,
23770,set_tempo,,,,,5,1,0,,1935483,,,,,,,
23783,note_on,,,,,23,0,2,,,,,0,,,51,0
23785,set_tempo,,,,,15,1,0,,1904761,,,,,,,
23790,note_on,,,,,7,0,2,,,,,0,,,50,35
23795,set_tempo,,,,,10,1,0,,1875000,,,,,,,
23805,note_on,,,,,15,0,2,,,,,0,,,50,0
23815,set_tempo,,,,,20,1,0,,1846153,,,,,,,
23820,note_on,,,,,15,0,2,,,,,0,,,48,35
23820,note_on,,,,,0,0,1,,,,,0,,,75,47
23820,note_on,,,,,0,0,1,,,,,0,,,68,55
23820,note_on,,,,,0,0,1,,,,,0,,,70,0
23820,note_on,,,,,0,0,1,,,,,0,,,55,0
23820,note_on,,,,,0,0,1,,,,,0,,,67,0
23820,note_on,,,,,60,0,1,,,,,0,,,63,0
23820,note_on,,,,,0,0,1,,,,,0,,,63,47
23820,note_on,,,,,0,0,1,,,,,0,,,56,47
23825,set_tempo,,,,,10,1,0,,1818181,,,,,,,
23835,note_on,,,,,15,0,2,,,,,0,,,48,0
23850,note_on,,,,,15,0,2,,,,,0,,,44,39
23865,set_tempo,,,,,40,1,0,,1791044,,,,,,,
23865,note_on,,,,,45,0,1,,,,,0,,,68,0
23865,note_on,,,,,15,0,2,,,,,0,,,44,0
23865,note_on,,,,,0,0,1,,,,,0,,,72,53
23870,set_tempo,,,,,5,1,0,,1739130,,,,,,,
23880,note_on,,,,,15,0,2,,,,,0,,,46,47
23880,note_on,,,,,0,0,1,,,,,0,,,75,53
23880,note_on,,,,,0,0,1,,,,,0,,,63,53
23880,note_on,,,,,15,0,1,,,,,0,,,72,0
23880,note_on,,,,,0,0,1,,,,,0,,,63,0
23880,note_on,,,,,0,0,1,,,,,0,,,75,0
23880,note_on,,,,,0,0,1,,,,,0,,,56,0
23880,note_on,,,,,0,0,1,,,,,0,,,70,58
23880,note_on,,,,,0,0,1,,,,,0,,,55,53
23890,set_tempo,,,,,20,1,0,,1714285,,,,,,,
23903,note_on,,,,,23,0,2,,,,,0,,,46,0
23905,set_tempo,,,,,15,1,0,,1690140,,,,,,,
23910,note_on,,,,,7,0,2,,,,,0,,,45,43
23925,note_on,,,,,15,0,2,,,,,0,,,45,0
23940,set_tempo,,,,,35,1,0,,3000000,,,,,,,
23940,control_change,,,,,0,0,1,,,,,0,64,96,,
23940,note_on,,,,,0,0,1,,,,,0,,,68,44
23940,note_on,,,,,0,0,1,,,,,0,,,53,44
23940,note_on,,,,,0,0,1,,,,,0,,,75,0
23940,note_on,,,,,0,0,1,,,,,0,,,55,0
23940,note_on,,,,,0,0,1,,,,,0,,,70,0
23940,note_on,,,,,60,0,1,,,,,0,,,63,0
23940,note_on,,,,,15,0,2,,,,,0,,,46,37
23945,note_on,,,,,5,0,1,,,,,0,,,74,54
23950,set_tempo,,,,,10,1,0,,3076923,,,,,,,
23950,note_on,,,,,5,0,1,,,,,0,,,82,50
23955,set_tempo,,,,,5,1,0,,1666666,,,,,,,
23955,note_on,,,,,15,0,2,,,,,0,,,46,0
23965,set_tempo,,,,,10,1,0,,1621621,,,,,,,
23970,note_on,,,,,15,0,2,,,,,0,,,34,33
23980,set_tempo,,,,,15,1,0,,1714285,,,,,,,
23985,set_tempo,,,,,5,1,0,,1739130,,,,,,,
23985,note_on,,,,,15,0,2,,,,,0,,,34,0
23985,note_on,,,,,35,0,1,,,,,0,,,74,0
23985,note_on,,,,,0,0,1,,,,,0,,,53,0
23985,note_on,,,,,0,0,1,,,,,0,,,50,34
23985,note_on,,,,,0,0,1,,,,,0,,,77,40
23993,control_change,,,,,8,0,1,,,,,0,64,0,,
24000,note_on,,,,,7,0,1,,,,,0,,,50,0
24000,note_on,,,,,0,0,1,,,,,0,,,82,0
24000,note_on,,,,,0,0,1,,,,,0,,,68,0
24000,note_on,,,,,0,0,1,,,,,0,,,77,0
24000,control_change,,,,,0,0,1,,,,,0,64,96,,
24000,note_on,,,,,0,0,1,,,,,0,,,67,48
24000,note_on,,,,,15,0,2,,,,,0,,,39,32
24000,set_tempo,,,,,15,1,0,,3000000,,,,,,,
24000,note_on,,,,,0,0,2,,,,,0,,,51,32
24005,note_on,,,,,5,0,1,,,,,0,,,75,50
24010,note_on,,,,,5,0,1,,,,,0,,,82,48
24015,set_tempo,,,,,15,1,0,,1714285,,,,,,,
24030,note_on,,,,,30,0,2,,,,,0,,,55,32
24045,set_tempo,,,,,30,1,0,,1739130,,,,,,,
24045,note_on,,,,,15,0,2,,,,,0,,,51,0
24050,set_tempo,,,,,5,1,0,,1764705,,,,,,,
24060,note_on,,,,,15,0,2,,,,,0,,,55,0
24060,note_on,,,,,0,0,2,,,,,0,,,58,38
24065,set_tempo,,,,,15,1,0,,1791044,,,,,,,
24070,set_tempo,,,,,5,1,0,,1818181,,,,,,,
24085,set_tempo,,,,,15,1,0,,1875000,,,,,,,
24090,note_on,,,,,30,0,2,,,,,0,,,58,0
24090,note_on,,,,,0,0,2,,,,,0,,,39,0
24090,note_on,,,,,0,0,2,,,,,0,,,62,40
24090,note_on,,,,,0,0,1,,,,,0,,,79,35
24090,note_on,,,,,80,0,1,,,,,0,,,82,0
24105,set_tempo,,,,,20,1,0,,1935483,,,,,,,
24116,control_change,,,,,26,0,1,,,,,0,64,0,,
24120,note_on,,,,,0,0,2,,,,,0,,,63,41
24120,note_on,,,,,30,0,2,,,,,0,,,62,0
24120,note_on,,,,,4,0,1,,,,,0,,,79,0
24120,note_on,,,,,0,0,1,,,,,0,,,67,0
24120,note_on,,,,,0,0,1,,,,,0,,,77,36
24120,control_change,,,,,0,0,1,,,,,0,64,94,,
24120,set_tempo,,,,,15,1,0,,1967213,,,,,,,
24120,note_on,,,,,0,0,1,,,,,0,,,75,0
24125,set_tempo,,,,,5,1,0,,2000000,,,,,,,
24135,set_tempo,,,,,10,1,0,,2000000,,,,,,,
24140,note_on,,,,,0,0,1,,,,,0,,,75,38
24140,note_on,,,,,20,0,1,,,,,0,,,77,0
24150,set_tempo,,,,,15,1,0,,2033898,,,,,,,
24150,note_on,,,,,30,0,2,,,,,0,,,65,37
24160,note_on,,,,,20,0,1,,,,,0,,,75,0
24160,note_on,,,,,0,0,1,,,,,0,,,74,40
24165,note_on,,,,,15,0,2,,,,,0,,,63,0
24165,set_tempo,,,,,15,1,0,,2142857,,,,,,,
24170,set_tempo,,,,,5,1,0,,2181818,,,,,,,
24176,control_change,,,,,16,0,1,,,,,0,64,0,,
24180,set_tempo,,,,,10,1,0,,2222222,,,,,,,
24180,control_change,,,,,0,0,1,,,,,0,64,95,,
24180,note_on,,,,,0,0,1,,,,,0,,,73,42
24180,note_on,,,,,4,0,1,,,,,0,,,74,0
24180,note_on,,,,,15,0,2,,,,,0,,,65,0
24180,note_on,,,,,0,0,2,,,,,0,,,67,34
24185,set_tempo,,,,,5,1,0,,2448979,,,,,,,
24190,set_tempo,,,,,5,1,0,,2553191,,,,,,,
24200,note_on,,,,,0,0,1,,,,,0,,,72,38
24200,note_on,,,,,20,0,1,,,,,0,,,73,0
24200,set_tempo,,,,,10,1,0,,2666666,,,,,,,
24205,set_tempo,,,,,5,1,0,,2926829,,,,,,,
24210,note_on,,,,,30,0,2,,,,,0,,,67,0
24210,set_tempo,,,,,5,1,0,,3000000,,,,,,,
24210,note_on,,,,,0,0,2,,,,,0,,,63,32
24215,set_tempo,,,,,5,1,0,,3243243,,,,,,,
24220,set_tempo,,,,,5,1,0,,3428571,,,,,,,
24220,note_on,,,,,0,0,1,,,,,0,,,70,32
24220,note_on,,,,,20,0,1,,,,,0,,,72,0
24225,set_tempo,,,,,5,1,0,,4285714,,,,,,,
24230,set_tempo,,,,,5,1,0,,6000000,,,,,,,
24235,set_tempo,,,,,5,1,0,,6000000,,,,,,,
24236,control_change,,,,,16,0,1,,,,,0,64,0,,
24240,note_on,,,,,4,0,1,,,,,0,,,70,0
24240,set_tempo,,,,,5,1,0,,2033898,,,,,,,
24240,note_on,,,,,30,0,2,,,,,0,,,63,0
24240,note_on,,,,,0,0,2,,,,,0,,,63,22
24240,note_on,,,,,0,0,2,,,,,0,,,56,22
24240,note_on,,,,,0,0,1,,,,,0,,,68,26
24240,control_change,,,,,0,0,1,,,,,0,91,96,,
24240,note_on,,,,,0,0,2,,,,,0,,,60,22
24345,note_on,,,,,105,0,2,,,,,0,,,56,0
24345,note_on,,,,,0,0,2,,,,,0,,,63,0
24345,note_on,,,,,105,0,1,,,,,0,,,68,0
24345,note_on,,,,,0,0,2,,,,,0,,,60,0
24350,set_tempo,,,,,110,1,0,,2054794,,,,,,,
24360,note_on,,,,,15,0,2,,,,,0,,,64,28
24360,note_on,,,,,0,0,2,,,,,0,,,61,28
24360,note_on,,,,,0,0,2,,,,,0,,,58,28
24360,note_on,,,,,15,0,1,,,,,0,,,68,25
24365,set_tempo,,,,,15,1,0,,2090592,,,,,,,
24370,set_tempo,,,,,5,1,0,,2127659,,,,,,,
24385,set_tempo,,,,,15,1,0,,2166064,,,,,,,
24390,note_on,,,,,30,0,1,,,,,0,,,68,0
24390,note_on,,,,,0,0,1,,,,,0,,,67,20
24390,set_tempo,,,,,5,1,0,,2205882,,,,,,,
24420,note_on,,,,,30,0,1,,,,,0,,,67,0
24420,note_on,,,,,0,0,1,,,,,0,,,70,28
24450,note_on,,,,,0,0,1,,,,,0,,,67,22
24450,note_on,,,,,30,0,1,,,,,0,,,70,0
24480,control_change,,,,,0,0,1,,,,,0,64,96,,
24480,note_on,,,,,0,0,1,,,,,0,,,63,29
24480,note_on,,,,,30,0,1,,,,,0,,,67,0
24480,note_on,,,,,0,0,2,,,,,0,,,64,0
24480,note_on,,,,,0,0,2,,,,,0,,,61,0
24480,note_on,,,,,0,0,1,,,,,0,,,68,29
24480,note_on,,,,,120,0,2,,,,,0,,,58,0
24480,note_on,,,,,0,0,2,,,,,0,,,60,29
24570,set_tempo,,,,,180,1,0,,2429149,,,,,,,
24570,note_on,,,,,90,0,1,,,,,0,,,63,0
24570,note_on,,,,,0,0,1,,,,,0,,,63,23
24570,note_on,,,,,90,0,2,,,,,0,,,60,0
24570,note_on,,,,,0,0,2,,,,,0,,,61,26
24575,set_tempo,,,,,5,1,0,,2479338,,,,,,,
24577,note_on,,,,,7,0,1,,,,,0,,,63,0
24578,note_on,,,,,1,0,1,,,,,0,,,64,24
24585,note_on,,,,,0,0,1,,,,,0,,,66,26
24585,note_on,,,,,7,0,1,,,,,0,,,64,0
24592,note_on,,,,,7,0,1,,,,,0,,,66,0
24592,note_on,,,,,0,0,1,,,,,0,,,64,26
24596,control_change,,,,,4,0,1,,,,,0,64,0,,
24599,note_on,,,,,3,0,1,,,,,0,,,64,0
24600,note_on,,,,,0,0,2,,,,,0,,,60,24
24600,control_change,,,,,0,0,1,,,,,0,64,95,,
24600,set_tempo,,,,,25,1,0,,1863354,,,,,,,
24600,note_on,,,,,30,0,2,,,,,0,,,61,0
24600,note_on,,,,,1,0,1,,,,,0,,,63,28
24605,set_tempo,,,,,5,1,0,,2054794,,,,,,,
24645,note_on,,,,,45,0,2,,,,,0,,,60,0
24652,note_on,,,,,0,0,1,,,,,0,,,68,0
24652,note_on,,,,,52,0,1,,,,,0,,,63,0
24660,note_on,,,,,15,0,2,,,,,0,,,55,25
24660,note_on,,,,,0,0,1,,,,,0,,,70,32
24660,note_on,,,,,8,0,1,,,,,0,,,63,32
24716,control_change,,,,,56,0,1,,,,,0,64,0,,
24720,note_on,,,,,0,0,1,,,,,0,,,63,32
24720,note_on,,,,,0,0,2,,,,,0,,,56,29
24720,note_on,,,,,60,0,2,,,,,0,,,55,0
24720,note_on,,,,,0,0,1,,,,,0,,,71,32
24720,note_on,,,,,4,0,1,,,,,0,,,70,0
24720,control_change,,,,,0,0,1,,,,,0,64,95,,
24720,note_on,,,,,0,0,1,,,,,0,,,63,0
24780,note_on,,,,,0,0,2,,,,,0,,,54,39
24780,note_on,,,,,60,0,2,,,,,0,,,56,0
24780,note_on,,,,,0,0,1,,,,,0,,,69,35
24780,note_on,,,,,0,0,1,,,,,0,,,71,35
24780,note_on,,,,,0,0,1,,,,,0,,,63,35
24780,note_on,,,,,0,0,1,,,,,0,,,71,0
24780,note_on,,,,,60,0,1,,,,,0,,,63,0
24810,control_change,,,,,30,0,1,,,,,0,64,0,,
24840,note_on,,,,,0,0,1,,,,,0,,,64,40
24840,note_on,,,,,0,0,1,,,,,0,,,71,40
24840,note_on,,,,,0,0,1,,,,,0,,,68,40
24840,note_on,,,,,0,0,1,,,,,0,,,63,0
24840,note_on,,,,,30,0,1,,,,,0,,,69,0
24840,note_on,,,,,0,0,1,,,,,0,,,71,0
24840,note_on,,,,,60,0,2,,,,,0,,,54,0
24840,note_on,,,,,0,0,2,,,,,0,,,52,45
24860,set_tempo,,,,,255,1,0,,2090592,,,,,,,
24870,set_tempo,,,,,10,1,0,,2127659,,,,,,,
24880,set_tempo,,,,,10,1,0,,2166064,,,,,,,
24890,set_tempo,,,,,10,1,0,,2205882,,,,,,,
24900,note_on,,,,,0,0,1,,,,,0,,,67,46
24900,note_on,,,,,60,0,2,,,,,0,,,52,0
24900,note_on,,,,,0,0,2,,,,,0,,,50,54
24900,note_on,,,,,60,0,1,,,,,0,,,64,0
24900,note_on,,,,,0,0,1,,,,,0,,,71,0
24900,note_on,,,,,0,0,1,,,,,0,,,68,0
24900,note_on,,,,,0,0,1,,,,,0,,,71,46
24900,note_on,,,,,0,0,1,,,,,0,,,65,46
24900,control_change,,,,,0,0,1,,,,,0,64,95,,
24925,set_tempo,,,,,35,1,0,,2247191,,,,,,,
24940,set_tempo,,,,,15,1,0,,2290076,,,,,,,
24955,set_tempo,,,,,15,1,0,,2264150,,,,,,,
24956,control_change,,,,,56,0,1,,,,,0,64,0,,
24960,note_on,,,,,60,0,2,,,,,0,,,50,0
24960,note_on,,,,,0,0,1,,,,,0,,,72,51
24960,set_tempo,,,,,5,1,0,,2281368,,,,,,,
24960,note_on,,,,,4,0,1,,,,,0,,,65,0
24960,note_on,,,,,0,0,1,,,,,0,,,67,0
24960,note_on,,,,,0,0,1,,,,,0,,,71,0
24960,note_on,,,,,0,0,1,,,,,0,,,64,51
24960,note_on,,,,,0,0,1,,,,,0,,,67,51
24960,note_on,,,,,0,0,2,,,,,0,,,48,59
24960,control_change,,,,,0,0,1,,,,,0,64,94,,
24965,set_tempo,,,,,5,1,0,,2298850,,,,,,,
24970,set_tempo,,,,,5,1,0,,2316602,,,,,,,
24980,set_tempo,,,,,10,1,0,,2371541,,,,,,,
24985,set_tempo,,,,,5,1,0,,2390438,,,,,,,
24990,set_tempo,,,,,5,1,0,,2448979,,,,,,,
25000,set_tempo,,,,,10,1,0,,2510460,,,,,,,
25005,set_tempo,,,,,5,1,0,,2542372,,,,,,,
25010,set_tempo,,,,,5,1,0,,3658536,,,,,,,
25016,control_change,,,,,56,0,1,,,,,0,64,0,,
25020,note_on,,,,,0,0,2,,,,,0,,,41,54
25020,note_on,,,,,4,0,1,,,,,0,,,72,0
25020,note_on,,,,,0,0,1,,,,,0,,,67,0
25020,note_on,,,,,0,0,1,,,,,0,,,64,0
25020,note_on,,,,,0,0,1,,,,,0,,,68,45
25020,note_on,,,,,0,0,1,,,,,0,,,65,45
25020,note_on,,,,,0,0,1,,,,,0,,,72,45
25020,control_change,,,,,0,0,1,,,,,0,64,96,,
25020,note_on,,,,,60,0,2,,,,,0,,,48,0
25025,set_tempo,,,,,15,1,0,,2727272,,,,,,,
25030,set_tempo,,,,,5,1,0,,2816901,,,,,,,
25040,set_tempo,,,,,10,1,0,,2898550,,,,,,,
25045,set_tempo,,,,,5,1,0,,2970297,,,,,,,
25055,set_tempo,,,,,10,1,0,,3000000,,,,,,,
25060,set_tempo,,,,,5,1,0,,3030303,,,,,,,
25065,set_tempo,,,,,5,1,0,,3092783,,,,,,,
25070,set_tempo,,,,,5,1,0,,3108808,,,,,,,
25075,set_tempo,,,,,5,1,0,,3141361,,,,,,,
25076,control_change,,,,,56,0,1,,,,,0,64,0,,
25080,note_on,,,,,60,0,2,,,,,0,,,41,0
25080,note_on,,,,,0,0,1,,,,,0,,,67,36
25080,note_on,,,,,0,0,1,,,,,0,,,64,36
25080,note_on,,,,,0,0,1,,,,,0,,,68,0
25080,note_on,,,,,0,0,1,,,,,0,,,65,0
25080,note_on,,,,,0,0,1,,,,,0,,,72,36
25080,note_on,,,,,0,0,2,,,,,0,,,48,47
25080,set_tempo,,,,,5,1,0,,6000000,,,,,,,
25080,control_change,,,,,0,0,1,,,,,0,64,95,,
25080,note_on,,,,,4,0,1,,,,,0,,,72,0
25110,set_tempo,,,,,30,1,0,,3488372,,,,,,,
25135,set_tempo,,,,,25,1,0,,1008403,,,,,,,
25136,control_change,,,,,56,0,1,,,,,0,64,0,,
25170,note_on,,,,,0,0,1,,,,,0,,,67,0
25170,note_on,,,,,0,0,1,,,,,0,,,64,0
25170,note_on,,,,,34,0,1,,,,,0,,,72,0
25170,note_on,,,,,90,0,2,,,,,0,,,48,0
25260,note_on,,,,,0,0,1,,,,,0,,,80,36
25260,note_on,,,,,90,0,1,,,,,0,,,84,36
25260,set_tempo,,,,,125,1,0,,1764705,,,,,,,
25260,note_on,,,,,90,0,2,,,,,0,,,77,35
25261,set_tempo,,,,,1,1,0,,2083333,,,,,,,
25266,set_tempo,,,,,5,1,0,,2097902,,,,,,,
25271,set_tempo,,,,,5,1,0,,2112676,,,,,,,
25281,set_tempo,,,,,10,1,0,,2127659,,,,,,,
25286,set_tempo,,,,,5,1,0,,2173913,,,,,,,
25291,set_tempo,,,,,5,1,0,,2181818,,,,,,,
25301,set_tempo,,,,,10,1,0,,2197802,,,,,,,
25305,note_on,,,,,45,0,2,,,,,0,,,77,0
25305,note_on,,,,,0,0,2,,,,,0,,,75,40
25306,set_tempo,,,,,5,1,0,,2214022,,,,,,,
25316,set_tempo,,,,,10,1,0,,2264150,,,,,,,
25317,control_change,,,,,57,0,1,,,,,0,64,0,,
25320,note_on,,,,,3,0,1,,,,,0,,,80,0
25320,note_on,,,,,0,0,1,,,,,0,,,80,42
25320,note_on,,,,,0,0,1,,,,,0,,,85,42
25320,note_on,,,,,0,0,1,,,,,0,,,77,42
25320,note_on,,,,,0,0,1,,,,,0,,,84,0
25320,note_on,,,,,15,0,2,,,,,0,,,75,0
25320,note_on,,,,,0,0,2,,,,,0,,,73,44
25320,control_change,,,,,0,0,1,,,,,0,64,95,,
25321,set_tempo,,,,,5,1,0,,2281368,,,,,,,
25326,set_tempo,,,,,5,1,0,,2298850,,,,,,,
25331,set_tempo,,,,,5,1,0,,2316602,,,,,,,
25341,set_tempo,,,,,10,1,0,,2371541,,,,,,,
25346,set_tempo,,,,,5,1,0,,2390438,,,,,,,
25351,set_tempo,,,,,5,1,0,,2448979,,,,,,,
25361,set_tempo,,,,,10,1,0,,2510460,,,,,,,
25366,set_tempo,,,,,5,1,0,,2542372,,,,,,,
25371,set_tempo,,,,,5,1,0,,3658536,,,,,,,
25377,control_change,,,,,57,0,1,,,,,0,64,0,,
25380,note_on,,,,,0,0,1,,,,,0,,,80,0
25380,control_change,,,,,0,0,1,,,,,0,64,95,,
25380,note_on,,,,,0,0,1,,,,,0,,,85,36
25380,note_on,,,,,0,0,1,,,,,0,,,81,36
25380,note_on,,,,,0,0,2,,,,,0,,,66,38
25380,note_on,,,,,60,0,2,,,,,0,,,73,0
25380,note_on,,,,,0,0,1,,,,,0,,,78,36
25380,note_on,,,,,3,0,1,,,,,0,,,85,0
25380,note_on,,,,,0,0,1,,,,,0,,,77,0
25386,set_tempo,,,,,15,1,0,,2727272,,,,,,,
25391,set_tempo,,,,,5,1,0,,2816901,,,,,,,
25401,set_tempo,,,,,10,1,0,,2898550,,,,,,,
25406,set_tempo,,,,,5,1,0,,2970297,,,,,,,
25416,set_tempo,,,,,10,1,0,,3000000,,,,,,,
25421,set_tempo,,,,,5,1,0,,3030303,,,,,,,
25426,set_tempo,,,,,5,1,0,,3092783,,,,,,,
25431,set_tempo,,,,,5,1,0,,3108808,,,,,,,
25436,set_tempo,,,,,5,1,0,,3141361,,,,,,,
25437,control_change,,,,,57,0,1,,,,,0,64,0,,
25440,note_on,,,,,0,0,2,,,,,0,,,73,30
25440,note_on,,,,,60,0,2,,,,,0,,,66,0
25440,note_on,,,,,0,0,1,,,,,0,,,81,0
25440,note_on,,,,,0,0,1,,,,,0,,,78,0
25440,note_on,,,,,0,0,1,,,,,0,,,77,31
25440,note_on,,,,,0,0,1,,,,,0,,,80,31
25440,note_on,,,,,0,0,1,,,,,0,,,85,31
25440,note_on,,,,,3,0,1,,,,,0,,,85,0
25441,set_tempo,,,,,5,1,0,,6000000,,,,,,,
25471,set_tempo,,,,,30,1,0,,3488372,,,,,,,
25495,set_tempo,,,,,24,1,0,,1100917,,,,,,,
25530,note_on,,,,,90,0,2,,,,,0,,,73,0
25530,note_on,,,,,90,0,1,,,,,0,,,85,0
25530,note_on,,,,,0,0,1,,,,,0,,,77,0
25530,note_on,,,,,0,0,1,,,,,0,,,80,0
25620,note_on,,,,,0,0,1,,,,,0,,,54,45
25620,note_on,,,,,0,0,1,,,,,0,,,57,45
25620,set_tempo,,,,,125,1,0,,1764705,,,,,,,
25620,note_on,,,,,90,0,1,,,,,0,,,61,45
25620,note_on,,,,,90,0,2,,,,,0,,,42,42
25621,set_tempo,,,,,1,1,0,,2083333,,,,,,,
25626,set_tempo,,,,,5,1,0,,2097902,,,,,,,
25630,set_tempo,,,,,4,1,0,,1780415,,,,,,,
25640,set_tempo,,,,,10,1,0,,1807228,,,,,,,
25655,set_tempo,,,,,15,1,0,,1834862,,,,,,,
25665,set_tempo,,,,,10,1,0,,1863354,,,,,,,
25665,note_on,,,,,45,0,2,,,,,0,,,42,0
25665,note_on,,,,,0,0,2,,,,,0,,,40,55
25677,control_change,,,,,57,0,1,,,,,0,64,0,,
25680,note_on,,,,,3,0,1,,,,,0,,,57,0
25680,note_on,,,,,0,0,1,,,,,0,,,54,0
25680,note_on,,,,,0,0,1,,,,,0,,,61,0
25680,note_on,,,,,0,0,1,,,,,0,,,54,60
25680,note_on,,,,,0,0,1,,,,,0,,,57,60
25680,note_on,,,,,0,0,1,,,,,0,,,62,60
25680,control_change,,,,,0,0,1,,,,,0,64,95,,
25680,note_on,,,,,15,0,2,,,,,0,,,40,0
25680,note_on,,,,,0,0,2,,,,,0,,,38,57
25680,set_tempo,,,,,15,1,0,,1892744,,,,,,,
25725,set_tempo,,,,,45,1,0,,3488372,,,,,,,
25737,control_change,,,,,57,0,1,,,,,0,64,0,,
25740,note_on,,,,,60,0,2,,,,,0,,,38,0
25740,control_change,,,,,0,0,1,,,,,0,64,95,,
25740,note_on,,,,,0,0,1,,,,,0,,,62,50
25740,note_on,,,,,0,0,1,,,,,0,,,58,50
25740,note_on,,,,,0,0,1,,,,,0,,,55,50
25740,note_on,,,,,0,0,1,,,,,0,,,54,0
25740,note_on,,,,,0,0,1,,,,,0,,,57,0
25740,note_on,,,,,3,0,1,,,,,0,,,62,0
25740,note_on,,,,,0,0,2,,,,,0,,,31,44
25745,set_tempo,,,,,20,1,0,,2586206,,,,,,,
25785,set_tempo,,,,,40,1,0,,2479338,,,,,,,
25797,control_change,,,,,57,0,1,,,,,0,64,0,,
25800,note_on,,,,,60,0,2,,,,,0,,,31,0
25800,set_tempo,,,,,15,1,0,,4918032,,,,,,,
25800,note_on,,,,,0,0,1,,,,,0,,,57,42
25800,note_on,,,,,0,0,1,,,,,0,,,62,42
25800,note_on,,,,,0,0,2,,,,,0,,,38,37
25800,note_on,,,,,0,0,1,,,,,0,,,54,42
25800,note_on,,,,,0,0,1,,,,,0,,,55,0
25800,note_on,,,,,0,0,1,,,,,0,,,58,0
25800,note_on,,,,,3,0,1,,,,,0,,,62,0
25855,set_tempo,,,,,55,1,0,,1764705,,,,,,,
25920,note_on,,,,,0,0,1,,,,,0,,,57,0
25920,note_on,,,,,120,0,1,,,,,0,,,62,0
25920,note_on,,,,,0,0,1,,,,,0,,,54,0
25920,note_on,,,,,120,0,2,,,,,0,,,38,0
25980,set_tempo,,,,,125,1,0,,2020202,,,,,,,
25980,note_on,,,,,60,0,2,,,,,0,,,45,36
25980,note_on,,,,,60,0,1,,,,,0,,,64,36
25980,note_on,,,,,0,0,1,,,,,0,,,69,36
25980,note_on,,,,,0,0,1,,,,,0,,,73,36
25980,control_change,,,,,0,0,1,,,,,0,64,95,,
26032,note_on,,,,,52,0,1,,,,,0,,,73,0
26032,note_on,,,,,52,0,2,,,,,0,,,45,0
26032,note_on,,,,,0,0,1,,,,,0,,,64,0
26032,note_on,,,,,0,0,1,,,,,0,,,69,0
26033,control_change,,,,,1,0,1,,,,,0,64,0,,
26040,control_change,,,,,0,0,1,,,,,0,64,95,,
26040,note_on,,,,,7,0,1,,,,,0,,,73,42
26040,note_on,,,,,0,0,1,,,,,0,,,62,42
26040,note_on,,,,,8,0,2,,,,,0,,,52,39
26040,note_on,,,,,0,0,1,,,,,0,,,68,42
26085,set_tempo,,,,,105,1,0,,2000000,,,,,,,
26100,note_on,,,,,0,0,1,,,,,0,,,71,33
26100,set_tempo,,,,,15,1,0,,2068965,,,,,,,
26100,note_on,,,,,60,0,1,,,,,0,,,73,0
26120,set_tempo,,,,,20,1,0,,2105263,,,,,,,
26125,set_tempo,,,,,5,1,0,,2142857,,,,,,,
26135,set_tempo,,,,,10,1,0,,2181818,,,,,,,
26145,set_tempo,,,,,10,1,0,,2222222,,,,,,,
26145,note_on,,,,,0,0,1,,,,,0,,,70,33
26145,note_on,,,,,45,0,1,,,,,0,,,71,0
26155,set_tempo,,,,,10,1,0,,2264150,,,,,,,
26160,set_tempo,,,,,5,1,0,,2307692,,,,,,,
26160,note_on,,,,,15,0,1,,,,,0,,,70,0
26160,note_on,,,,,0,0,1,,,,,0,,,73,33
26180,set_tempo,,,,,20,1,0,,2352941,,,,,,,
26185,set_tempo,,,,,5,1,0,,2400000,,,,,,,
26195,set_tempo,,,,,10,1,0,,2448979,,,,,,,
26205,set_tempo,,,,,10,1,0,,2500000,,,,,,,
26215,set_tempo,,,,,10,1,0,,2553191,,,,,,,
26220,note_on,,,,,0,0,1,,,,,0,,,71,26
26220,note_on,,,,,60,0,1,,,,,0,,,73,0
26225,set_tempo,,,,,10,1,0,,2608695,,,,,,,
26240,set_tempo,,,,,15,1,0,,2727272,,,,,,,
26255,set_tempo,,,,,15,1,0,,2790697,,,,,,,
26265,set_tempo,,,,,10,1,0,,2857142,,,,,,,
26280,set_tempo,,,,,15,1,0,,1250000,,,,,,,
26280,note_on,,,,,60,0,1,,,,,0,,,71,0
26280,note_on,,,,,0,0,1,,,,,0,,,62,0
26280,note_on,,,,,0,0,1,,,,,0,,,68,0
26280,note_on,,,,,240,0,2,,,,,0,,,52,0
26336,control_change,,,,,56,0,1,,,,,0,64,0,,
26400,set_tempo,,,,,120,1,0,,1764705,,,,,,,
26460,note_on,,,,,0,0,1,,,,,0,,,68,65
26460,note_on,,,,,124,0,1,,,,,0,,,63,65
26460,note_on,,,,,0,0,1,,,,,0,,,72,65
26460,note_on,,,,,180,0,2,,,,,0,,,44,67
26512,note_on,,,,,0,0,1,,,,,0,,,63,0
26512,note_on,,,,,0,0,1,,,,,0,,,68,0
26512,note_on,,,,,52,0,1,,,,,0,,,72,0
26512,note_on,,,,,52,0,2,,,,,0,,,44,0
26520,note_on,,,,,0,0,1,,,,,0,,,72,90
26520,control_change,,,,,0,0,1,,,,,0,64,96,,
26520,note_on,,,,,0,0,1,,,,,0,,,61,90
26520,note_on,,,,,8,0,2,,,,,0,,,51,100
26520,note_on,,,,,8,0,1,,,,,0,,,67,90
26535,set_tempo,,,,,135,1,0,,1739130,,,,,,,
26540,set_tempo,,,,,5,1,0,,1714285,,,,,,,
26560,set_tempo,,,,,20,1,0,,1690140,,,,,,,
26570,set_tempo,,,,,10,1,0,,1666666,,,,,,,
26580,set_tempo,,,,,10,1,0,,1643835,,,,,,,
26580,note_on,,,,,0,0,1,,,,,0,,,70,81
26580,note_on,,,,,60,0,1,,,,,0,,,72,0
26600,set_tempo,,,,,20,1,0,,1621621,,,,,,,
26605,set_tempo,,,,,5,1,0,,1634877,,,,,,,
26620,set_tempo,,,,,15,1,0,,1657458,,,,,,,
26625,set_tempo,,,,,5,1,0,,1680672,,,,,,,
26625,note_on,,,,,0,0,1,,,,,0,,,69,73
26625,note_on,,,,,45,0,1,,,,,0,,,70,0
26637,control_change,,,,,12,0,1,,,,,0,64,0,,
26640,set_tempo,,,,,15,1,0,,1704545,,,,,,,
26640,note_on,,,,,3,0,1,,,,,0,,,69,0
26640,control_change,,,,,0,0,1,,,,,0,64,94,,
26640,note_on,,,,,0,0,1,,,,,0,,,72,82
26645,set_tempo,,,,,5,1,0,,1729106,,,,,,,
26655,set_tempo,,,,,10,1,0,,1754385,,,,,,,
26665,set_tempo,,,,,10,1,0,,1780415,,,,,,,
26680,set_tempo,,,,,15,1,0,,1834862,,,,,,,
26685,note_on,,,,,45,0,1,,,,,0,,,72,0
26685,note_on,,,,,0,0,1,,,,,0,,,70,74
26690,set_tempo,,,,,10,1,0,,1863354,,,,,,,
26696,note_on,,,,,11,0,1,,,,,0,,,70,0
26696,note_on,,,,,0,0,1,,,,,0,,,61,0
26696,note_on,,,,,0,0,1,,,,,0,,,67,0
26696,note_on,,,,,176,0,2,,,,,0,,,51,0
26700,note_on,,,,,0,0,2,,,,,0,,,39,73
26700,note_on,,,,,4,0,1,,,,,0,,,61,69
26700,note_on,,,,,0,0,1,,,,,0,,,67,69
26700,note_on,,,,,0,0,1,,,,,0,,,70,69
26700,note_on,,,,,4,0,2,,,,,0,,,51,73
26700,set_tempo,,,,,10,1,0,,1892744,,,,,,,
26710,set_tempo,,,,,10,1,0,,1923076,,,,,,,
26725,set_tempo,,,,,15,1,0,,1954397,,,,,,,
26745,note_on,,,,,45,0,1,,,,,0,,,70,0
26745,note_on,,,,,0,0,1,,,,,0,,,67,0
26745,note_on,,,,,0,0,1,,,,,0,,,61,0
26745,note_on,,,,,45,0,2,,,,,0,,,39,0
26745,note_on,,,,,0,0,1,,,,,0,,,60,61
26745,note_on,,,,,0,0,2,,,,,0,,,44,58
26745,note_on,,,,,0,0,1,,,,,0,,,68,61
26757,control_change,,,,,12,0,1,,,,,0,64,0,,
26760,note_on,,,,,0,0,2,,,,,0,,,51,0
26760,set_tempo,,,,,35,1,0,,1657458,,,,,,,
26760,note_on,,,,,3,0,1,,,,,0,,,68,0
26760,note_on,,,,,0,0,1,,,,,0,,,60,0
26760,note_on,,,,,0,0,1,,,,,0,,,60,69
26760,note_on,,,,,0,0,2,,,,,0,,,51,61
26760,note_on,,,,,0,0,2,,,,,0,,,44,61
26760,note_on,,,,,15,0,2,,,,,0,,,44,0
26760,note_on,,,,,0,0,1,,,,,0,,,68,69
26835,note_on,,,,,75,0,1,,,,,0,,,68,0
26835,note_on,,,,,0,0,1,,,,,0,,,60,0
26835,note_on,,,,,0,0,2,,,,,0,,,44,0
26835,note_on,,,,,75,0,2,,,,,0,,,51,0
26880,note_on,,,,,45,0,1,,,,,0,,,61,84
26880,note_on,,,,,0,0,1,,,,,0,,,68,84
26880,note_on,,,,,45,0,2,,,,,0,,,44,84
26880,note_on,,,,,0,0,2,,,,,0,,,53,84
27000,note_on,,,,,0,0,1,,,,,0,,,61,0
27000,set_tempo,,,,,240,1,0,,1780415,,,,,,,
27000,note_on,,,,,120,0,2,,,,,0,,,53,0
27000,note_on,,,,,0,0,2,,,,,0,,,44,0
27000,note_on,,,,,0,0,1,,,,,0,,,60,50
27000,note_on,,,,,0,0,2,,,,,0,,,51,50
27000,note_on,,,,,0,0,2,,,,,0,,,44,50
27000,note_on,,,,,120,0,1,,,,,0,,,68,0
27000,note_on,,,,,0,0,1,,,,,0,,,68,50
27075,note_on,,,,,0,0,2,,,,,0,,,44,0
27075,note_on,,,,,75,0,2,,,,,0,,,51,0
27075,note_on,,,,,0,0,1,,,,,0,,,60,0
27075,note_on,,,,,75,0,1,,,,,0,,,68,0
27115,set_tempo,,,,,115,1,0,,1791044,,,,,,,
27120,note_on,,,,,0,0,2,,,,,0,,,44,61
27120,control_change,,,,,0,0,1,,,,,0,64,95,,
27120,note_on,,,,,0,0,1,,,,,0,,,67,63
27120,note_on,,,,,45,0,1,,,,,0,,,51,63
27120,set_tempo,,,,,5,1,0,,1791044,,,,,,,
27120,note_on,,,,,45,0,2,,,,,0,,,61,61
27140,note_on,,,,,20,0,1,,,,,0,,,67,0
27140,note_on,,,,,0,0,1,,,,,0,,,70,71
27150,set_tempo,,,,,30,1,0,,1818181,,,,,,,
27160,note_on,,,,,0,0,1,,,,,0,,,68,77
27160,set_tempo,,,,,10,1,0,,1846153,,,,,,,
27160,note_on,,,,,20,0,1,,,,,0,,,70,0
27170,set_tempo,,,,,10,1,0,,1875000,,,,,,,
27180,set_tempo,,,,,10,1,0,,1904761,,,,,,,
27180,note_on,,,,,20,0,1,,,,,0,,,68,0
27180,note_on,,,,,0,0,1,,,,,0,,,67,80
27200,note_on,,,,,0,0,1,,,,,0,,,55,85
27200,note_on,,,,,0,0,1,,,,,0,,,70,85
27200,note_on,,,,,0,0,1,,,,,0,,,51,0
27200,note_on,,,,,20,0,1,,,,,0,,,67,0
27220,note_on,,,,,20,0,1,,,,,0,,,70,0
27220,note_on,,,,,0,0,1,,,,,0,,,55,0
27220,note_on,,,,,0,0,1,,,,,0,,,58,90
27220,note_on,,,,,0,0,1,,,,,0,,,75,90
27230,set_tempo,,,,,50,1,0,,3076923,,,,,,,
27236,control_change,,,,,0,0,1,,,,,0,64,0,,
27236,note_on,,,,,16,0,1,,,,,0,,,75,0
27240,note_on,,,,,0,0,1,,,,,0,,,67,94
27240,note_on,,,,,0,0,2,,,,,0,,,44,92
27240,note_on,,,,,0,0,2,,,,,0,,,63,92
27240,note_on,,,,,0,0,2,,,,,0,,,58,92
27240,control_change,,,,,0,0,1,,,,,0,64,94,,
27240,note_on,,,,,0,0,2,,,,,0,,,61,0
27240,note_on,,,,,4,0,1,,,,,0,,,58,0
27240,note_on,,,,,0,0,1,,,,,0,,,75,94
27240,set_tempo,,,,,10,1,0,,1558441,,,,,,,
27240,note_on,,,,,0,0,2,,,,,0,,,51,92
27240,note_on,,,,,120,0,2,,,,,0,,,44,0
27265,set_tempo,,,,,25,1,0,,1600000,,,,,,,
27285,set_tempo,,,,,20,1,0,,1578947,,,,,,,
27305,set_tempo,,,,,20,1,0,,1558441,,,,,,,
27310,set_tempo,,,,,5,1,0,,1591511,,,,,,,
27330,set_tempo,,,,,20,1,0,,1634877,,,,,,,
27360,set_tempo,,,,,30,1,0,,1680672,,,,,,,
27380,note_on,,,,,0,0,1,,,,,0,,,73,67
27380,note_on,,,,,0,0,1,,,,,0,,,75,0
27380,note_on,,,,,140,0,1,,,,,0,,,67,0
27380,set_tempo,,,,,20,1,0,,1729106,,,,,,,
27400,note_on,,,,,20,0,1,,,,,0,,,73,0
27400,note_on,,,,,0,0,1,,,,,0,,,72,61
27420,set_tempo,,,,,40,1,0,,1754385,,,,,,,
27420,note_on,,,,,20,0,1,,,,,0,,,72,0
27420,note_on,,,,,0,0,1,,,,,0,,,73,55
27440,note_on,,,,,20,0,1,,,,,0,,,73,0
27440,note_on,,,,,0,0,1,,,,,0,,,70,51
27460,note_on,,,,,20,0,1,,,,,0,,,70,0
27460,set_tempo,,,,,40,1,0,,1923076,,,,,,,
27460,note_on,,,,,0,0,1,,,,,0,,,67,45
27473,control_change,,,,,13,0,1,,,,,0,64,0,,
27480,note_on,,,,,0,0,2,,,,,0,,,44,47
27480,note_on,,,,,0,0,2,,,,,0,,,51,0
27480,note_on,,,,,0,0,2,,,,,0,,,58,0
27480,note_on,,,,,0,0,2,,,,,0,,,63,0
27480,note_on,,,,,0,0,2,,,,,0,,,56,47
27480,note_on,,,,,0,0,2,,,,,0,,,51,47
27480,note_on,,,,,240,0,2,,,,,0,,,44,0
27480,note_on,,,,,0,0,1,,,,,0,,,60,40
27480,note_on,,,,,0,0,1,,,,,0,,,68,40
27480,note_on,,,,,7,0,1,,,,,0,,,67,0
27483,control_change,,,,,3,0,1,,,,,0,64,96,,
27510,set_tempo,,,,,50,1,0,,1986754,,,,,,,
27536,control_change,,,,,53,0,1,,,,,0,64,0,,
27540,note_on,,,,,4,0,1,,,,,0,,,68,0
27540,note_on,,,,,0,0,1,,,,,0,,,60,0
27540,note_on,,,,,60,0,2,,,,,0,,,56,0
27540,note_on,,,,,0,0,2,,,,,0,,,51,0
27540,note_on,,,,,0,0,2,,,,,0,,,44,0
27560,set_tempo,,,,,50,1,0,,2205882,,,,,,,
27590,note_on,,,,,50,0,2,,,,,0,,,44,49
27595,note_on,,,,,5,0,2,,,,,0,,,51,55
27600,note_on,,,,,5,0,2,,,,,0,,,60,56
27600,note_on,,,,,60,0,1,,,,,0,,,63,49
27600,control_change,,,,,0,0,1,,,,,0,64,95,,
27600,note_on,,,,,0,0,1,,,,,0,,,72,49
27610,set_tempo,,,,,50,1,0,,2479338,,,,,,,
27650,note_on,,,,,50,0,2,,,,,0,,,60,0
27650,note_on,,,,,0,0,2,,,,,0,,,51,0
27650,note_on,,,,,0,0,2,,,,,0,,,44,0
27660,set_tempo,,,,,50,1,0,,2586206,,,,,,,
27660,note_on,,,,,60,0,1,,,,,0,,,72,0
27660,note_on,,,,,0,0,1,,,,,0,,,63,0
27680,control_change,,,,,20,0,1,,,,,0,64,0,,
27690,end_of_track,,,,,0,1,0,,,,,,,,,
27690,set_tempo,,,,,30,1,0,,2702702,,,,,,,
27720,note_on,,,,,0,0,2,,,,,0,,,44,37
27720,note_on,,,,,0,0,2,,,,,0,,,48,37
27720,note_on,,,,,70,0,2,,,,,0,,,56,37
27720,note_on,,,,,40,0,1,,,,,0,,,60,37
27720,note_on,,,,,0,0,1,,,,,0,,,68,37
27960,note_on,,,,,0,0,2,,,,,0,,,56,0
27960,note_on,,,,,0,0,2,,,,,0,,,48,0
27960,note_on,,,,,240,0,2,,,,,0,,,44,0
27960,end_of_track,,,,,0,1,1,,,,,,,,,
27960,note_on,,,,,240,0,1,,,,,0,,,68,0
27960,end_of_track,,,,,0,1,2,,,,,,,,,
27960,note_on,,,,,0,0,1,,,,,0,,,60,0
