tick,type,time,meta,track,numerator,denominator,clocks_per_click,notated_32nd_notes_per_beat,key,tempo,program,channel,control,value,note,velocity
0,track_name,0,1,0,,,,,,,,,,,,
0,control_change,0,0,4,,,,,,,,3,10,20,,
0,control_change,0,0,4,,,,,,,,3,64,127,,
0,control_change,0,0,4,,,,,,,,3,11,127,,
0,control_change,0,0,4,,,,,,,,3,91,64,,
0,control_change,0,0,4,,,,,,,,3,93,0,,
0,note_on,0,0,4,,,,,,,,3,,,36,64
0,control_change,0,0,4,,,,,,,,3,7,120,,
0,note_on,0,0,4,,,,,,,,3,,,43,64
0,program_change,0,0,2,,,,,,,0,1,,,,
0,control_change,0,0,1,,,,,,,,0,91,74,,
0,control_change,0,0,1,,,,,,,,0,93,38,,
0,control_change,0,0,1,,,,,,,,0,11,127,,
0,control_change,0,0,1,,,,,,,,0,10,110,,
0,control_change,0,0,1,,,,,,,,0,7,120,,
0,note_on,0,0,4,,,,,,,,3,,,51,64
0,program_change,0,0,1,,,,,,,0,0,,,,
0,program_change,0,0,4,,,,,,,0,3,,,,
0,note_on,0,0,3,,,,,,,,2,,,55,64
0,control_change,0,0,2,,,,,,,,1,7,120,,
0,control_change,0,0,2,,,,,,,,1,10,80,,
0,control_change,0,0,2,,,,,,,,1,11,124,,
0,control_change,0,0,2,,,,,,,,1,93,38,,
0,control_change,0,0,2,,,,,,,,1,91,74,,
0,track_name,0,1,3,,,,,,,,,,,,
0,track_name,0,1,4,,,,,,,,,,,,
0,program_change,0,0,3,,,,,,,0,2,,,,
0,control_change,0,0,3,,,,,,,,2,10,40,,
0,control_change,0,0,3,,,,,,,,2,64,127,,
0,control_change,0,0,3,,,,,,,,2,93,0,,
0,control_change,0,0,3,,,,,,,,2,127,64,,
0,note_on,0,0,3,,,,,,,,2,,,63,64
0,note_on,0,0,3,,,,,,,,2,,,60,64
0,control_change,0,0,3,,,,,,,,2,7,120,,
0,track_name,0,1,1,,,,,,,,,,,,
0,track_name,0,1,2,,,,,,,,,,,,
0,text,0,1,0,,,,,,,,,,,,
0,text,0,1,0,,,,,,,,,,,,
0,text,0,1,0,,,,,,,,,,,,
0,text,0,1,0,,,,,,,,,,,,
0,time_signature,0,1,0,3,4,24,8,,,,,,,,
0,key_signature,0,1,0,,,,,C,,,,,,,
0,set_tempo,0,1,0,,,,,,750000,,,,,,
48,control_change,48,0,1,,,,,,,,0,11,126,,
839,note_on,839,0,4,,,,,,,,3,,,51,0
839,note_on,0,0,4,,,,,,,,3,,,36,0
839,note_on,839,0,3,,,,,,,,2,,,55,0
839,note_on,0,0,3,,,,,,,,2,,,60,0
839,note_on,0,0,3,,,,,,,,2,,,63,0
839,note_on,0,0,4,,,,,,,,3,,,43,0
840,note_on,0,0,4,,,,,,,,3,,,51,64
840,note_on,0,0,4,,,,,,,,3,,,43,64
840,note_on,0,0,3,,,,,,,,2,,,55,64
840,note_on,0,0,3,,,,,,,,2,,,60,64
840,note_on,1,0,3,,,,,,,,2,,,63,64
840,note_on,1,0,4,,,,,,,,3,,,36,64
874,control_change,34,0,3,,,,,,,,2,64,0,,
909,control_change,69,0,4,,,,,,,,3,64,0,,
959,note_on,85,0,3,,,,,,,,2,,,55,0
959,note_on,0,0,3,,,,,,,,2,,,60,0
959,note_on,0,0,3,,,,,,,,2,,,63,0
959,note_on,50,0,4,,,,,,,,3,,,51,0
959,note_on,0,0,4,,,,,,,,3,,,36,0
959,note_on,0,0,4,,,,,,,,3,,,43,0
960,note_on,0,0,4,,,,,,,,3,,,51,64
960,note_on,0,0,4,,,,,,,,3,,,43,64
960,note_on,1,0,4,,,,,,,,3,,,36,64
960,note_on,0,0,3,,,,,,,,2,,,60,64
960,note_on,0,0,3,,,,,,,,2,,,55,64
960,note_on,1,0,3,,,,,,,,2,,,63,64
1068,note_on,0,0,3,,,,,,,,2,,,60,0
1068,note_on,108,0,3,,,,,,,,2,,,55,0
1068,note_on,108,0,4,,,,,,,,3,,,51,0
1068,note_on,0,0,4,,,,,,,,3,,,43,0
1068,note_on,0,0,3,,,,,,,,2,,,63,0
1176,note_on,108,0,4,,,,,,,,3,,,36,0
1440,control_change,264,0,4,,,,,,,,3,64,127,,
1440,control_change,0,0,1,,,,,,,,0,91,74,,
1440,control_change,1392,0,1,,,,,,,,0,11,127,,
1440,control_change,0,0,4,,,,,,,,3,11,127,,
1440,control_change,0,0,1,,,,,,,,0,93,38,,
1440,control_change,0,0,4,,,,,,,,3,93,36,,
1440,note_on,0,0,3,,,,,,,,2,,,60,64
1440,note_on,0,0,3,,,,,,,,2,,,55,64
1440,control_change,0,0,4,,,,,,,,3,91,68,,
1440,note_on,0,0,3,,,,,,,,2,,,63,64
1440,control_change,372,0,3,,,,,,,,2,64,127,,
1440,note_on,0,0,4,,,,,,,,3,,,51,64
1440,note_on,0,0,4,,,,,,,,3,,,43,64
1440,note_on,0,0,4,,,,,,,,3,,,36,64
1488,control_change,48,0,1,,,,,,,,0,11,126,,
2279,note_on,0,0,4,,,,,,,,3,,,36,0
2279,note_on,839,0,4,,,,,,,,3,,,51,0
2279,note_on,0,0,3,,,,,,,,2,,,63,0
2279,note_on,0,0,3,,,,,,,,2,,,60,0
2279,note_on,839,0,3,,,,,,,,2,,,55,0
2279,note_on,0,0,4,,,,,,,,3,,,43,0
2280,note_on,0,0,4,,,,,,,,3,,,43,62
2280,note_on,0,0,4,,,,,,,,3,,,51,62
2280,note_on,0,0,3,,,,,,,,2,,,60,64
2280,note_on,1,0,4,,,,,,,,3,,,36,62
2280,note_on,0,0,3,,,,,,,,2,,,55,64
2280,note_on,1,0,3,,,,,,,,2,,,63,64
2399,note_on,0,0,4,,,,,,,,3,,,43,0
2399,note_on,119,0,4,,,,,,,,3,,,51,0
2399,note_on,119,0,3,,,,,,,,2,,,55,0
2399,note_on,0,0,3,,,,,,,,2,,,60,0
2399,note_on,0,0,3,,,,,,,,2,,,63,0
2399,note_on,0,0,4,,,,,,,,3,,,36,0
2400,control_change,1,0,3,,,,,,,,2,64,0,,
2400,note_on,0,0,3,,,,,,,,2,,,63,64
2400,note_on,0,0,3,,,,,,,,2,,,60,64
2400,note_on,0,0,3,,,,,,,,2,,,55,64
2400,note_on,0,0,4,,,,,,,,3,,,36,63
2400,control_change,1,0,4,,,,,,,,3,64,0,,
2400,note_on,0,0,4,,,,,,,,3,,,51,63
2400,note_on,0,0,4,,,,,,,,3,,,43,63
2508,note_on,0,0,3,,,,,,,,2,,,60,0
2508,note_on,0,0,3,,,,,,,,2,,,63,0
2508,note_on,108,0,3,,,,,,,,2,,,55,0
2508,note_on,108,0,4,,,,,,,,3,,,51,0
2508,note_on,0,0,4,,,,,,,,3,,,43,0
2508,note_on,0,0,4,,,,,,,,3,,,36,0
2880,note_on,0,0,4,,,,,,,,3,,,51,67
2880,note_on,0,0,3,,,,,,,,2,,,55,64
2880,note_on,0,0,4,,,,,,,,3,,,43,67
2880,note_on,0,0,3,,,,,,,,2,,,60,64
2880,note_on,372,0,3,,,,,,,,2,,,63,64
2880,note_on,372,0,4,,,,,,,,3,,,36,67
3359,note_on,479,0,4,,,,,,,,3,,,51,0
3359,note_on,0,0,3,,,,,,,,2,,,63,0
3359,note_on,479,0,3,,,,,,,,2,,,55,0
3359,note_on,0,0,3,,,,,,,,2,,,60,0
3359,note_on,0,0,4,,,,,,,,3,,,43,0
3359,note_on,0,0,4,,,,,,,,3,,,36,0
3360,note_on,1,0,4,,,,,,,,3,,,39,72
3360,note_on,0,0,4,,,,,,,,3,,,43,72
3360,note_on,0,0,3,,,,,,,,2,,,60,64
3360,note_on,0,0,3,,,,,,,,2,,,55,64
3360,note_on,1,0,3,,,,,,,,2,,,63,64
3360,note_on,0,0,4,,,,,,,,3,,,51,72
3839,note_on,479,0,4,,,,,,,,3,,,51,0
3839,note_on,0,0,4,,,,,,,,3,,,39,0
3839,note_on,0,0,3,,,,,,,,2,,,63,0
3839,note_on,0,0,3,,,,,,,,2,,,60,0
3839,note_on,479,0,3,,,,,,,,2,,,55,0
3839,note_on,0,0,4,,,,,,,,3,,,43,0
3840,note_on,1,0,4,,,,,,,,3,,,36,76
3840,note_on,0,0,4,,,,,,,,3,,,43,76
3840,note_on,0,0,3,,,,,,,,2,,,55,64
3840,note_on,0,0,3,,,,,,,,2,,,60,64
3840,note_on,1,0,3,,,,,,,,2,,,63,64
3840,note_on,0,0,4,,,,,,,,3,,,51,76
4272,note_on,0,0,4,,,,,,,,3,,,36,0
4272,note_on,432,0,4,,,,,,,,3,,,51,0
4272,note_on,0,0,3,,,,,,,,2,,,60,0
4272,note_on,0,0,4,,,,,,,,3,,,43,0
4272,note_on,432,0,3,,,,,,,,2,,,55,0
4272,note_on,0,0,3,,,,,,,,2,,,63,0
4320,control_change,48,0,4,,,,,,,,3,64,127,,
4320,note_on,0,0,4,,,,,,,,3,,,41,80
4320,note_on,0,0,4,,,,,,,,3,,,47,80
4320,note_on,0,0,4,,,,,,,,3,,,50,80
4320,note_on,0,0,3,,,,,,,,2,,,57,89
4320,note_on,0,0,3,,,,,,,,2,,,59,89
4320,note_on,0,0,3,,,,,,,,2,,,62,89
4320,control_change,48,0,3,,,,,,,,2,64,127,,
5159,note_on,839,0,3,,,,,,,,2,,,57,0
5159,note_on,0,0,3,,,,,,,,2,,,62,0
5159,note_on,0,0,3,,,,,,,,2,,,59,0
5159,note_on,0,0,4,,,,,,,,3,,,41,0
5159,note_on,0,0,4,,,,,,,,3,,,47,0
5159,note_on,839,0,4,,,,,,,,3,,,50,0
5160,note_on,0,0,4,,,,,,,,3,,,50,77
5160,note_on,1,0,4,,,,,,,,3,,,41,77
5160,note_on,0,0,4,,,,,,,,3,,,47,77
5160,note_on,1,0,3,,,,,,,,2,,,62,64
5160,note_on,0,0,3,,,,,,,,2,,,57,64
5160,note_on,0,0,3,,,,,,,,2,,,59,64
5279,note_on,119,0,3,,,,,,,,2,,,57,0
5279,note_on,0,0,3,,,,,,,,2,,,59,0
5279,note_on,0,0,3,,,,,,,,2,,,62,0
5279,note_on,0,0,4,,,,,,,,3,,,41,0
5279,note_on,0,0,4,,,,,,,,3,,,47,0
5279,note_on,119,0,4,,,,,,,,3,,,50,0
5280,note_on,0,0,4,,,,,,,,3,,,50,73
5280,note_on,0,0,4,,,,,,,,3,,,47,73
5280,note_on,0,0,3,,,,,,,,2,,,57,62
5280,control_change,1,0,4,,,,,,,,3,64,0,,
5280,note_on,0,0,3,,,,,,,,2,,,59,62
5280,note_on,0,0,3,,,,,,,,2,,,62,62
5280,control_change,1,0,3,,,,,,,,2,64,0,,
5280,note_on,0,0,4,,,,,,,,3,,,41,73
5712,note_on,0,0,4,,,,,,,,3,,,47,0
5712,note_on,0,0,4,,,,,,,,3,,,41,0
5712,note_on,432,0,4,,,,,,,,3,,,50,0
5712,note_on,0,0,3,,,,,,,,2,,,59,0
5712,note_on,432,0,3,,,,,,,,2,,,57,0
5712,note_on,0,0,3,,,,,,,,2,,,62,0
5760,time_signature,5760,1,0,2,4,24,8,,,,,,,,
6720,note_on,0,0,3,,,,,,,,2,,,60,44
6720,note_on,0,0,4,,,,,,,,3,,,30,34
6720,note_on,0,0,3,,,,,,,,2,,,48,44
6720,note_on,0,0,3,,,,,,,,2,,,50,44
6720,note_on,0,0,3,,,,,,,,2,,,57,44
6720,note_on,0,0,3,,,,,,,,2,,,62,44
6720,control_change,1008,0,4,,,,,,,,3,64,127,,
6720,control_change,1008,0,3,,,,,,,,2,64,127,,
6720,note_on,0,0,4,,,,,,,,3,,,45,34
6720,note_on,0,0,4,,,,,,,,3,,,42,34
6720,time_signature,960,1,0,3,4,24,8,,,,,,,,
7559,note_on,0,0,3,,,,,,,,2,,,50,0
7559,note_on,0,0,4,,,,,,,,3,,,30,0
7559,note_on,0,0,4,,,,,,,,3,,,42,0
7559,note_on,839,0,4,,,,,,,,3,,,45,0
7559,note_on,839,0,3,,,,,,,,2,,,48,0
7559,note_on,0,0,3,,,,,,,,2,,,57,0
7559,note_on,0,0,3,,,,,,,,2,,,62,0
7559,note_on,0,0,3,,,,,,,,2,,,60,0
7560,note_on,0,0,4,,,,,,,,3,,,45,34
7560,note_on,0,0,4,,,,,,,,3,,,42,34
7560,note_on,1,0,3,,,,,,,,2,,,62,44
7560,note_on,0,0,3,,,,,,,,2,,,60,44
7560,note_on,0,0,3,,,,,,,,2,,,57,44
7560,note_on,0,0,3,,,,,,,,2,,,50,44
7560,note_on,0,0,3,,,,,,,,2,,,48,44
7560,note_on,1,0,4,,,,,,,,3,,,30,34
7619,note_on,59,0,4,,,,,,,,3,,,45,0
7679,note_on,0,0,4,,,,,,,,3,,,30,0
7679,note_on,60,0,4,,,,,,,,3,,,42,0
7679,note_on,0,0,3,,,,,,,,2,,,60,0
7679,note_on,0,0,3,,,,,,,,2,,,62,0
7679,note_on,0,0,3,,,,,,,,2,,,57,0
7679,note_on,119,0,3,,,,,,,,2,,,48,0
7679,note_on,0,0,3,,,,,,,,2,,,50,0
7680,note_on,0,0,4,,,,,,,,3,,,30,34
7680,note_on,0,0,3,,,,,,,,2,,,48,44
7680,note_on,0,0,3,,,,,,,,2,,,50,44
7680,control_change,1,0,4,,,,,,,,3,64,0,,
7680,note_on,0,0,4,,,,,,,,3,,,42,34
7680,note_on,0,0,4,,,,,,,,3,,,45,34
7680,control_change,1,0,3,,,,,,,,2,64,0,,
7680,note_on,0,0,3,,,,,,,,2,,,62,44
7680,note_on,0,0,3,,,,,,,,2,,,60,44
7680,note_on,0,0,3,,,,,,,,2,,,57,44
7788,note_on,0,0,3,,,,,,,,2,,,62,0
7788,note_on,108,0,3,,,,,,,,2,,,50,0
7788,note_on,0,0,3,,,,,,,,2,,,57,0
7788,note_on,108,0,4,,,,,,,,3,,,45,0
7788,note_on,0,0,4,,,,,,,,3,,,42,0
7788,note_on,0,0,4,,,,,,,,3,,,30,0
7896,note_on,108,0,3,,,,,,,,2,,,60,0
7896,note_on,0,0,3,,,,,,,,2,,,48,0
8160,note_on,0,0,3,,,,,,,,2,,,60,44
8160,note_on,0,0,3,,,,,,,,2,,,62,44
8160,note_on,0,0,3,,,,,,,,2,,,50,44
8160,note_on,0,0,3,,,,,,,,2,,,48,44
8160,control_change,264,0,3,,,,,,,,2,64,127,,
8160,note_on,0,0,3,,,,,,,,2,,,57,44
8160,control_change,372,0,4,,,,,,,,3,64,127,,
8160,note_on,0,0,4,,,,,,,,3,,,45,34
8160,note_on,0,0,4,,,,,,,,3,,,42,34
8160,note_on,0,0,4,,,,,,,,3,,,30,34
8999,note_on,0,0,4,,,,,,,,3,,,30,0
8999,note_on,0,0,4,,,,,,,,3,,,42,0
8999,note_on,839,0,4,,,,,,,,3,,,45,0
8999,note_on,0,0,3,,,,,,,,2,,,50,0
8999,note_on,839,0,3,,,,,,,,2,,,48,0
8999,note_on,0,0,3,,,,,,,,2,,,57,0
8999,note_on,0,0,3,,,,,,,,2,,,62,0
8999,note_on,0,0,3,,,,,,,,2,,,60,0
9000,note_on,0,0,3,,,,,,,,2,,,60,44
9000,note_on,0,0,3,,,,,,,,2,,,57,44
9000,note_on,0,0,4,,,,,,,,3,,,45,33
9000,note_on,0,0,4,,,,,,,,3,,,42,33
9000,note_on,1,0,3,,,,,,,,2,,,62,44
9000,note_on,1,0,4,,,,,,,,3,,,30,33
9000,note_on,0,0,3,,,,,,,,2,,,50,44
9000,note_on,0,0,3,,,,,,,,2,,,48,44
9119,note_on,0,0,4,,,,,,,,3,,,30,0
9119,note_on,0,0,4,,,,,,,,3,,,42,0
9119,note_on,119,0,4,,,,,,,,3,,,45,0
9119,note_on,0,0,3,,,,,,,,2,,,57,0
9119,note_on,119,0,3,,,,,,,,2,,,48,0
9119,note_on,0,0,3,,,,,,,,2,,,62,0
9119,note_on,0,0,3,,,,,,,,2,,,60,0
9119,note_on,0,0,3,,,,,,,,2,,,50,0
9120,note_on,0,0,4,,,,,,,,3,,,45,33
9120,note_on,0,0,4,,,,,,,,3,,,42,33
9120,note_on,0,0,4,,,,,,,,3,,,30,33
9120,note_on,0,0,3,,,,,,,,2,,,48,44
9120,control_change,1,0,4,,,,,,,,3,64,0,,
9120,note_on,0,0,3,,,,,,,,2,,,62,44
9120,note_on,0,0,3,,,,,,,,2,,,60,44
9120,note_on,0,0,3,,,,,,,,2,,,57,44
9120,note_on,0,0,3,,,,,,,,2,,,50,44
9120,control_change,1,0,3,,,,,,,,2,64,0,,
9228,note_on,0,0,3,,,,,,,,2,,,57,0
9228,note_on,108,0,4,,,,,,,,3,,,45,0
9228,note_on,0,0,4,,,,,,,,3,,,42,0
9228,note_on,0,0,4,,,,,,,,3,,,30,0
9228,note_on,0,0,3,,,,,,,,2,,,62,0
9228,note_on,108,0,3,,,,,,,,2,,,50,0
9336,note_on,108,0,3,,,,,,,,2,,,60,0
9336,note_on,0,0,3,,,,,,,,2,,,48,0
9600,note_on,372,0,4,,,,,,,,3,,,31,33
9600,note_on,0,0,3,,,,,,,,2,,,51,44
9600,note_on,0,0,3,,,,,,,,2,,,55,44
9600,note_on,0,0,3,,,,,,,,2,,,60,44
9600,note_on,264,0,3,,,,,,,,2,,,63,44
9600,note_on,0,0,4,,,,,,,,3,,,48,33
9600,note_on,0,0,4,,,,,,,,3,,,43,33
10079,note_on,0,0,4,,,,,,,,3,,,43,0
10079,note_on,479,0,4,,,,,,,,3,,,48,0
10079,note_on,479,0,3,,,,,,,,2,,,51,0
10079,note_on,0,0,3,,,,,,,,2,,,63,0
10079,note_on,0,0,3,,,,,,,,2,,,60,0
10079,note_on,0,0,3,,,,,,,,2,,,55,0
10079,note_on,0,0,4,,,,,,,,3,,,31,0
10080,note_on,1,0,4,,,,,,,,3,,,31,33
10080,note_on,0,0,4,,,,,,,,3,,,43,33
10080,note_on,0,0,4,,,,,,,,3,,,48,33
10080,note_on,0,0,3,,,,,,,,2,,,55,44
10080,note_on,1,0,3,,,,,,,,2,,,62,44
10080,note_on,0,0,3,,,,,,,,2,,,60,44
10080,note_on,0,0,3,,,,,,,,2,,,50,44
10559,note_on,0,0,3,,,,,,,,2,,,55,0
10559,note_on,0,0,3,,,,,,,,2,,,62,0
10559,note_on,0,0,3,,,,,,,,2,,,60,0
10559,note_on,0,0,4,,,,,,,,3,,,31,0
10559,note_on,0,0,4,,,,,,,,3,,,43,0
10559,note_on,479,0,4,,,,,,,,3,,,48,0
10559,note_on,479,0,3,,,,,,,,2,,,50,0
10560,note_on,0,0,4,,,,,,,,3,,,47,32
10560,note_on,1,0,3,,,,,,,,2,,,63,43
10560,note_on,0,0,3,,,,,,,,2,,,59,43
10560,note_on,0,0,3,,,,,,,,2,,,55,43
10560,note_on,0,0,3,,,,,,,,2,,,51,43
10560,note_on,1,0,4,,,,,,,,3,,,31,32
10560,note_on,0,0,4,,,,,,,,3,,,43,32
10992,note_on,432,0,3,,,,,,,,2,,,51,0
10992,note_on,0,0,4,,,,,,,,3,,,43,0
10992,note_on,432,0,4,,,,,,,,3,,,47,0
10992,note_on,0,0,3,,,,,,,,2,,,55,0
10992,note_on,0,0,3,,,,,,,,2,,,59,0
10992,note_on,0,0,3,,,,,,,,2,,,63,0
10992,note_on,0,0,4,,,,,,,,3,,,31,0
11040,note_on,0,0,4,,,,,,,,3,,,48,32
11040,note_on,0,0,3,,,,,,,,2,,,51,43
11040,note_on,0,0,3,,,,,,,,2,,,55,43
11040,note_on,0,0,3,,,,,,,,2,,,60,43
11040,note_on,0,0,4,,,,,,,,3,,,43,32
11040,control_change,48,0,4,,,,,,,,3,64,127,,
11040,note_on,0,0,4,,,,,,,,3,,,36,32
11040,control_change,48,0,3,,,,,,,,2,64,127,,
11879,note_on,839,0,4,,,,,,,,3,,,48,0
11879,note_on,0,0,3,,,,,,,,2,,,55,0
11879,note_on,839,0,3,,,,,,,,2,,,51,0
11879,note_on,0,0,4,,,,,,,,3,,,43,0
11879,note_on,0,0,4,,,,,,,,3,,,36,0
11879,note_on,0,0,3,,,,,,,,2,,,60,0
11880,note_on,0,0,4,,,,,,,,3,,,43,32
11880,note_on,0,0,4,,,,,,,,3,,,48,32
11880,note_on,1,0,3,,,,,,,,2,,,60,43
11880,note_on,0,0,3,,,,,,,,2,,,51,43
11880,note_on,0,0,3,,,,,,,,2,,,55,43
11880,note_on,1,0,4,,,,,,,,3,,,36,32
11999,note_on,0,0,4,,,,,,,,3,,,43,0
11999,note_on,119,0,4,,,,,,,,3,,,48,0
11999,note_on,0,0,3,,,,,,,,2,,,60,0
11999,note_on,0,0,3,,,,,,,,2,,,55,0
11999,note_on,119,0,3,,,,,,,,2,,,51,0
11999,note_on,0,0,4,,,,,,,,3,,,36,0
12000,note_on,0,0,3,,,,,,,,2,,,51,43
12000,note_on,0,0,3,,,,,,,,2,,,60,43
12000,note_on,0,0,3,,,,,,,,2,,,55,43
12000,note_on,0,0,4,,,,,,,,3,,,48,31
12000,note_on,0,0,4,,,,,,,,3,,,43,31
12000,note_on,0,0,4,,,,,,,,3,,,36,31
12000,control_change,1,0,4,,,,,,,,3,64,0,,
12000,control_change,1,0,3,,,,,,,,2,64,0,,
12108,note_on,0,0,4,,,,,,,,3,,,43,0
12108,note_on,108,0,4,,,,,,,,3,,,48,0
12108,note_on,0,0,4,,,,,,,,3,,,36,0
12108,note_on,108,0,3,,,,,,,,2,,,51,0
12108,note_on,0,0,3,,,,,,,,2,,,55,0
12108,note_on,0,0,3,,,,,,,,2,,,60,0
12480,note_on,0,0,4,,,,,,,,3,,,48,31
12480,note_on,0,0,4,,,,,,,,3,,,43,31
12480,note_on,0,0,4,,,,,,,,3,,,36,31
12480,control_change,372,0,4,,,,,,,,3,64,127,,
12480,note_on,372,0,3,,,,,,,,2,,,60,43
12480,note_on,0,0,3,,,,,,,,2,,,51,43
12480,note_on,0,0,3,,,,,,,,2,,,55,43
12497,control_change,17,0,3,,,,,,,,2,64,127,,
13319,note_on,0,0,4,,,,,,,,3,,,43,0
13319,note_on,0,0,4,,,,,,,,3,,,36,0
13319,note_on,0,0,3,,,,,,,,2,,,60,0
13319,note_on,0,0,3,,,,,,,,2,,,55,0
13319,note_on,822,0,3,,,,,,,,2,,,51,0
13319,note_on,839,0,4,,,,,,,,3,,,48,0
13320,note_on,1,0,4,,,,,,,,3,,,36,31
13320,note_on,0,0,4,,,,,,,,3,,,43,31
13320,note_on,0,0,4,,,,,,,,3,,,48,31
13320,note_on,0,0,3,,,,,,,,2,,,51,43
13320,note_on,1,0,3,,,,,,,,2,,,60,43
13320,note_on,0,0,3,,,,,,,,2,,,55,43
13439,note_on,119,0,4,,,,,,,,3,,,48,0
13439,note_on,0,0,4,,,,,,,,3,,,36,0
13439,note_on,119,0,3,,,,,,,,2,,,51,0
13439,note_on,0,0,3,,,,,,,,2,,,55,0
13439,note_on,0,0,4,,,,,,,,3,,,43,0
13439,note_on,0,0,3,,,,,,,,2,,,60,0
13440,note_on,0,0,3,,,,,,,,2,,,55,43
13440,note_on,0,0,3,,,,,,,,2,,,51,43
13440,note_on,0,0,4,,,,,,,,3,,,36,31
13440,note_on,0,0,4,,,,,,,,3,,,43,31
13440,note_on,1,0,3,,,,,,,,2,,,60,43
13440,note_on,0,0,4,,,,,,,,3,,,48,31
13440,control_change,1,0,4,,,,,,,,3,64,0,,
13457,control_change,17,0,3,,,,,,,,2,64,0,,
13548,note_on,0,0,3,,,,,,,,2,,,55,0
13548,note_on,0,0,3,,,,,,,,2,,,60,0
13548,note_on,91,0,3,,,,,,,,2,,,51,0
13548,note_on,0,0,4,,,,,,,,3,,,43,0
13548,note_on,0,0,4,,,,,,,,3,,,36,0
13548,note_on,108,0,4,,,,,,,,3,,,48,0
13680,note_on,13680,0,2,,,,,,,,1,,,55,79
13896,note_on,216,0,2,,,,,,,,1,,,55,0
13920,note_on,0,0,4,,,,,,,,3,,,51,51
13920,control_change,12432,0,1,,,,,,,,0,64,127,,
13920,note_on,0,0,1,,,,,,,,0,,,60,48
13920,note_on,0,0,1,,,,,,,,0,,,63,48
13920,note_on,0,0,4,,,,,,,,3,,,43,51
13920,control_change,372,0,4,,,,,,,,3,64,127,,
13920,control_change,24,0,2,,,,,,,,1,64,127,,
13920,note_on,0,0,2,,,,,,,,1,,,55,79
13920,note_on,0,0,4,,,,,,,,3,,,36,51
14279,note_on,359,0,2,,,,,,,,1,,,55,0
14280,note_on,1,0,2,,,,,,,,1,,,55,79
14399,note_on,119,0,2,,,,,,,,1,,,55,0
14400,note_on,1,0,2,,,,,,,,1,,,60,79
14759,note_on,839,0,4,,,,,,,,3,,,51,0
14759,note_on,0,0,1,,,,,,,,0,,,60,0
14759,note_on,839,0,1,,,,,,,,0,,,63,0
14759,note_on,0,0,4,,,,,,,,3,,,36,0
14759,note_on,0,0,4,,,,,,,,3,,,43,0
14760,note_on,0,0,1,,,,,,,,0,,,63,48
14760,note_on,0,0,1,,,,,,,,0,,,60,48
14760,note_on,0,0,4,,,,,,,,3,,,51,51
14760,note_on,0,0,4,,,,,,,,3,,,43,51
14760,note_on,1,0,4,,,,,,,,3,,,36,51
14760,note_on,1,0,1,,,,,,,,0,,,55,48
14879,note_on,0,0,4,,,,,,,,3,,,43,0
14879,note_on,0,0,1,,,,,,,,0,,,60,0
14879,note_on,119,0,1,,,,,,,,0,,,63,0
14879,note_on,0,0,1,,,,,,,,0,,,55,0
14879,note_on,119,0,4,,,,,,,,3,,,51,0
14879,note_on,0,0,4,,,,,,,,3,,,36,0
14880,note_on,0,0,4,,,,,,,,3,,,51,51
14880,note_on,0,0,4,,,,,,,,3,,,43,51
14880,note_on,0,0,4,,,,,,,,3,,,36,51
14880,control_change,1,0,4,,,,,,,,3,64,0,,
14880,control_change,1,0,1,,,,,,,,0,64,0,,
14880,note_on,0,0,1,,,,,,,,0,,,55,48
14880,note_on,0,0,1,,,,,,,,0,,,63,48
14880,control_change,480,0,2,,,,,,,,1,64,0,,
14880,note_on,0,0,1,,,,,,,,0,,,60,48
14988,note_on,108,0,1,,,,,,,,0,,,63,0
14988,note_on,0,0,1,,,,,,,,0,,,60,0
14988,note_on,0,0,1,,,,,,,,0,,,55,0
14988,note_on,108,0,4,,,,,,,,3,,,51,0
14988,note_on,0,0,4,,,,,,,,3,,,43,0
14988,note_on,0,0,4,,,,,,,,3,,,36,0
15119,note_on,239,0,2,,,,,,,,1,,,60,0
15120,note_on,1,0,2,,,,,,,,1,,,55,79
15336,note_on,216,0,2,,,,,,,,1,,,55,0
15360,control_change,372,0,4,,,,,,,,3,64,127,,
15360,note_on,0,0,4,,,,,,,,3,,,43,51
15360,note_on,0,0,4,,,,,,,,3,,,51,51
15360,control_change,24,0,2,,,,,,,,1,64,127,,
15360,note_on,0,0,2,,,,,,,,1,,,51,79
15360,note_on,0,0,4,,,,,,,,3,,,36,51
15360,control_change,372,0,1,,,,,,,,0,64,127,,
15360,note_on,0,0,1,,,,,,,,0,,,55,48
15360,note_on,0,0,1,,,,,,,,0,,,60,48
15360,note_on,0,0,1,,,,,,,,0,,,63,48
15719,note_on,359,0,2,,,,,,,,1,,,51,0
15720,note_on,1,0,2,,,,,,,,1,,,50,79
15839,note_on,119,0,2,,,,,,,,1,,,50,0
15840,note_on,1,0,2,,,,,,,,1,,,48,79
16199,note_on,0,0,1,,,,,,,,0,,,55,0
16199,note_on,839,0,1,,,,,,,,0,,,63,0
16199,note_on,839,0,4,,,,,,,,3,,,51,0
16199,note_on,0,0,4,,,,,,,,3,,,43,0
16199,note_on,0,0,4,,,,,,,,3,,,36,0
16199,note_on,359,0,2,,,,,,,,1,,,48,0
16199,note_on,0,0,1,,,,,,,,0,,,60,0
16200,note_on,0,0,1,,,,,,,,0,,,63,56
16200,note_on,0,0,1,,,,,,,,0,,,60,56
16200,note_on,1,0,1,,,,,,,,0,,,55,56
16200,note_on,0,0,4,,,,,,,,3,,,43,55
16200,note_on,0,0,4,,,,,,,,3,,,51,55
16200,note_on,1,0,4,,,,,,,,3,,,36,55
16319,note_on,0,0,4,,,,,,,,3,,,36,0
16319,note_on,0,0,1,,,,,,,,0,,,60,0
16319,note_on,0,0,1,,,,,,,,0,,,55,0
16319,note_on,0,0,4,,,,,,,,3,,,43,0
16319,note_on,119,0,1,,,,,,,,0,,,63,0
16319,note_on,119,0,4,,,,,,,,3,,,51,0
16320,control_change,121,0,2,,,,,,,,1,64,0,,
16320,note_on,0,0,4,,,,,,,,3,,,51,56
16320,control_change,1,0,4,,,,,,,,3,64,0,,
16320,note_on,0,0,4,,,,,,,,3,,,36,56
16320,note_on,0,0,4,,,,,,,,3,,,43,56
16320,control_change,1,0,1,,,,,,,,0,64,0,,
16320,note_on,0,0,1,,,,,,,,0,,,55,57
16320,note_on,0,0,1,,,,,,,,0,,,63,57
16320,note_on,0,0,1,,,,,,,,0,,,60,57
16439,note_on,0,0,4,,,,,,,,3,,,36,0
16439,note_on,0,0,4,,,,,,,,3,,,43,0
16439,note_on,119,0,4,,,,,,,,3,,,51,0
16536,note_on,216,0,1,,,,,,,,0,,,63,0
16536,note_on,0,0,1,,,,,,,,0,,,60,0
16536,note_on,0,0,1,,,,,,,,0,,,55,0
16560,note_on,240,0,2,,,,,,,,1,,,46,62
16560,note_on,121,0,4,,,,,,,,3,,,34,58
16776,note_on,216,0,2,,,,,,,,1,,,46,0
16776,note_on,216,0,4,,,,,,,,3,,,34,0
16800,note_on,0,0,2,,,,,,,,1,,,45,64
16800,control_change,24,0,2,,,,,,,,1,64,127,,
16800,note_on,24,0,4,,,,,,,,3,,,33,61
17159,note_on,359,0,2,,,,,,,,1,,,45,0
17160,note_on,1,0,2,,,,,,,,1,,,57,68
17279,note_on,479,0,4,,,,,,,,3,,,33,0
17279,note_on,119,0,2,,,,,,,,1,,,57,0
17280,note_on,0,0,4,,,,,,,,3,,,48,66
17280,note_on,0,0,1,,,,,,,,0,,,63,66
17280,note_on,0,0,1,,,,,,,,0,,,60,66
17280,note_on,0,0,4,,,,,,,,3,,,42,66
17280,note_on,1,0,2,,,,,,,,1,,,57,69
17280,note_on,0,0,1,,,,,,,,0,,,54,66
17280,note_on,744,0,1,,,,,,,,0,,,51,66
17280,note_on,0,0,4,,,,,,,,3,,,39,66
17280,note_on,1,0,4,,,,,,,,3,,,33,66
17759,note_on,479,0,4,,,,,,,,3,,,48,0
17759,note_on,0,0,4,,,,,,,,3,,,33,0
17759,note_on,0,0,4,,,,,,,,3,,,39,0
17759,note_on,479,0,1,,,,,,,,0,,,63,0
17759,note_on,0,0,1,,,,,,,,0,,,54,0
17759,note_on,0,0,4,,,,,,,,3,,,42,0
17759,note_on,0,0,1,,,,,,,,0,,,60,0
17759,note_on,0,0,1,,,,,,,,0,,,51,0
17759,note_on,479,0,2,,,,,,,,1,,,57,0
17760,control_change,1,0,2,,,,,,,,1,64,0,,
17760,note_on,0,0,2,,,,,,,,1,,,57,74
17760,note_on,0,0,1,,,,,,,,0,,,63,71
17760,note_on,1,0,4,,,,,,,,3,,,33,71
17760,note_on,0,0,4,,,,,,,,3,,,39,71
17760,note_on,0,0,4,,,,,,,,3,,,42,71
17760,note_on,0,0,4,,,,,,,,3,,,48,71
17760,note_on,0,0,1,,,,,,,,0,,,60,71
17760,note_on,0,0,1,,,,,,,,0,,,54,71
17760,note_on,1,0,1,,,,,,,,0,,,51,71
18192,note_on,432,0,1,,,,,,,,0,,,63,0
18192,note_on,0,0,1,,,,,,,,0,,,60,0
18192,note_on,0,0,1,,,,,,,,0,,,54,0
18192,note_on,0,0,1,,,,,,,,0,,,51,0
18192,note_on,0,0,4,,,,,,,,3,,,42,0
18192,note_on,0,0,4,,,,,,,,3,,,39,0
18192,note_on,0,0,4,,,,,,,,3,,,33,0
18192,note_on,432,0,4,,,,,,,,3,,,48,0
18192,note_on,432,0,2,,,,,,,,1,,,57,0
18240,note_on,48,0,4,,,,,,,,3,,,31,76
18240,note_on,0,0,4,,,,,,,,3,,,39,76
18240,note_on,0,0,4,,,,,,,,3,,,43,76
18240,note_on,48,0,2,,,,,,,,1,,,55,79
18240,note_on,48,0,1,,,,,,,,0,,,51,75
18240,note_on,0,0,1,,,,,,,,0,,,60,75
18240,note_on,0,0,1,,,,,,,,0,,,63,75
18240,note_on,0,0,4,,,,,,,,3,,,48,76
18719,note_on,0,0,4,,,,,,,,3,,,31,0
18719,note_on,0,0,4,,,,,,,,3,,,39,0
18719,note_on,0,0,4,,,,,,,,3,,,43,0
18719,note_on,479,0,4,,,,,,,,3,,,48,0
18719,note_on,0,0,1,,,,,,,,0,,,51,0
18719,note_on,479,0,1,,,,,,,,0,,,63,0
18719,note_on,0,0,1,,,,,,,,0,,,60,0
18720,note_on,0,0,1,,,,,,,,0,,,62,80
18720,note_on,0,0,1,,,,,,,,0,,,59,80
18720,note_on,1,0,4,,,,,,,,3,,,29,62
18720,note_on,0,0,4,,,,,,,,3,,,38,62
18720,note_on,0,0,4,,,,,,,,3,,,43,62
18720,note_on,0,0,4,,,,,,,,3,,,42,62
18720,note_on,0,0,4,,,,,,,,3,,,47,62
18720,note_on,1,0,1,,,,,,,,0,,,50,80
19079,note_on,0,0,4,,,,,,,,3,,,42,0
19079,note_on,359,0,4,,,,,,,,3,,,47,0
19079,note_on,0,0,4,,,,,,,,3,,,29,0
19079,note_on,0,0,4,,,,,,,,3,,,38,0
19079,note_on,0,0,4,,,,,,,,3,,,43,0
19079,note_on,359,0,1,,,,,,,,0,,,62,0
19079,note_on,0,0,1,,,,,,,,0,,,59,0
19079,note_on,0,0,1,,,,,,,,0,,,50,0
19080,note_on,1,0,1,,,,,,,,0,,,55,59
19080,note_on,1,0,4,,,,,,,,3,,,43,65
19104,note_on,864,0,2,,,,,,,,1,,,55,0
19199,note_on,119,0,1,,,,,,,,0,,,55,0
19199,note_on,119,0,4,,,,,,,,3,,,43,0
19200,note_on,0,0,1,,,,,,,,0,,,55,60
19200,note_on,0,0,1,,,,,,,,0,,,60,60
19200,note_on,1,0,1,,,,,,,,0,,,48,60
19200,note_on,0,0,4,,,,,,,,3,,,43,66
19200,note_on,1,0,4,,,,,,,,3,,,39,66
19559,note_on,359,0,1,,,,,,,,0,,,60,0
19559,note_on,0,0,1,,,,,,,,0,,,48,0
19559,note_on,0,0,4,,,,,,,,3,,,39,0
19559,note_on,0,0,1,,,,,,,,0,,,55,0
19559,note_on,359,0,4,,,,,,,,3,,,43,0
19560,note_on,1,0,4,,,,,,,,3,,,38,70
19560,note_on,0,0,4,,,,,,,,3,,,43,70
19560,note_on,1,0,1,,,,,,,,0,,,50,65
19560,note_on,0,0,1,,,,,,,,0,,,59,65
19560,note_on,0,0,1,,,,,,,,0,,,62,65
19668,note_on,0,0,1,,,,,,,,0,,,50,0
19668,note_on,108,0,4,,,,,,,,3,,,43,0
19668,note_on,108,0,1,,,,,,,,0,,,62,0
19668,note_on,0,0,1,,,,,,,,0,,,59,0
19668,note_on,0,0,4,,,,,,,,3,,,38,0
19680,note_on,0,0,4,,,,,,,,3,,,48,71
19680,note_on,0,0,1,,,,,,,,0,,,63,67
19680,note_on,6132,0,3,,,,,,,,2,,,43,64
19680,note_on,0,0,1,,,,,,,,0,,,60,67
19680,note_on,12,0,1,,,,,,,,0,,,51,67
19680,note_on,12,0,4,,,,,,,,3,,,36,71
20039,note_on,359,0,4,,,,,,,,3,,,48,0
20039,note_on,0,0,4,,,,,,,,3,,,36,0
20040,note_on,1,0,4,,,,,,,,3,,,34,75
20040,note_on,0,0,4,,,,,,,,3,,,46,75
20159,note_on,0,0,1,,,,,,,,0,,,51,0
20159,note_on,0,0,1,,,,,,,,0,,,60,0
20159,note_on,479,0,3,,,,,,,,2,,,43,0
20159,note_on,119,0,4,,,,,,,,3,,,46,0
20159,note_on,479,0,1,,,,,,,,0,,,63,0
20159,note_on,0,0,4,,,,,,,,3,,,34,0
20160,note_on,1,0,3,,,,,,,,2,,,42,74
20160,note_on,1,0,1,,,,,,,,0,,,53,73
20160,note_on,0,0,4,,,,,,,,3,,,45,76
20160,note_on,0,0,1,,,,,,,,0,,,63,73
20160,note_on,0,0,1,,,,,,,,0,,,60,73
20160,note_on,1,0,4,,,,,,,,3,,,33,76
20160,note_on,0,0,1,,,,,,,,0,,,65,73
20519,note_on,359,0,3,,,,,,,,2,,,42,0
20520,note_on,1,0,3,,,,,,,,2,,,40,82
20639,note_on,0,0,1,,,,,,,,0,,,63,0
20639,note_on,0,0,1,,,,,,,,0,,,60,0
20639,note_on,0,0,1,,,,,,,,0,,,53,0
20639,note_on,119,0,3,,,,,,,,2,,,40,0
20639,note_on,0,0,4,,,,,,,,3,,,33,0
20639,note_on,479,0,4,,,,,,,,3,,,45,0
20639,note_on,479,0,1,,,,,,,,0,,,65,0
20640,note_on,0,0,1,,,,,,,,0,,,66,80
20640,note_on,1,0,3,,,,,,,,2,,,38,85
20640,note_on,1,0,1,,,,,,,,0,,,54,80
20640,note_on,0,0,1,,,,,,,,0,,,60,80
20640,note_on,1,0,4,,,,,,,,3,,,32,81
20640,note_on,0,0,4,,,,,,,,3,,,44,81
20640,note_on,0,0,1,,,,,,,,0,,,63,80
20999,note_on,359,0,3,,,,,,,,2,,,38,0
21000,note_on,1,0,3,,,,,,,,2,,,36,92
21072,note_on,0,0,4,,,,,,,,3,,,32,0
21072,note_on,432,0,4,,,,,,,,3,,,44,0
21072,note_on,0,0,1,,,,,,,,0,,,63,0
21072,note_on,0,0,1,,,,,,,,0,,,60,0
21072,note_on,0,0,1,,,,,,,,0,,,54,0
21072,note_on,432,0,1,,,,,,,,0,,,66,0
21108,note_on,108,0,3,,,,,,,,2,,,36,0
21120,note_on,0,0,3,,,,,,,,2,,,39,91
21120,note_on,0,0,2,,,,,,,,1,,,55,90
21120,note_on,0,0,1,,,,,,,,0,,,63,86
21120,note_on,2016,0,2,,,,,,,,1,,,67,90
21120,note_on,48,0,1,,,,,,,,0,,,60,86
21120,note_on,12,0,3,,,,,,,,2,,,36,91
21120,note_on,48,0,4,,,,,,,,3,,,31,86
21120,note_on,0,0,4,,,,,,,,3,,,43,86
21599,note_on,479,0,3,,,,,,,,2,,,39,0
21599,note_on,0,0,3,,,,,,,,2,,,36,0
21599,note_on,479,0,1,,,,,,,,0,,,63,0
21599,note_on,0,0,1,,,,,,,,0,,,60,0
21600,note_on,1,0,3,,,,,,,,2,,,35,89
21600,note_on,0,0,1,,,,,,,,0,,,62,93
21600,note_on,1,0,1,,,,,,,,0,,,59,93
21600,note_on,0,0,3,,,,,,,,2,,,38,89
21984,note_on,0,0,4,,,,,,,,3,,,31,0
21984,note_on,864,0,4,,,,,,,,3,,,43,0
21984,note_on,864,0,2,,,,,,,,1,,,55,0
21984,note_on,0,0,2,,,,,,,,1,,,67,0
22439,note_on,839,0,3,,,,,,,,2,,,38,0
22439,note_on,839,0,1,,,,,,,,0,,,62,0
22439,note_on,0,0,1,,,,,,,,0,,,59,0
22439,note_on,0,0,3,,,,,,,,2,,,35,0
22440,note_on,0,0,3,,,,,,,,2,,,43,72
22440,note_on,0,0,1,,,,,,,,0,,,62,75
22440,note_on,1,0,1,,,,,,,,0,,,50,75
22440,note_on,0,0,1,,,,,,,,0,,,58,75
22440,note_on,1,0,3,,,,,,,,2,,,55,72
22548,note_on,108,0,3,,,,,,,,2,,,43,0
22548,note_on,0,0,3,,,,,,,,2,,,55,0
22560,note_on,0,0,1,,,,,,,,0,,,50,0
22560,note_on,120,0,1,,,,,,,,0,,,62,0
22560,note_on,0,0,1,,,,,,,,0,,,58,0
22560,note_on,0,0,1,,,,,,,,0,,,59,77
22560,note_on,0,0,1,,,,,,,,0,,,50,77
22560,note_on,0,0,3,,,,,,,,2,,,55,74
22560,control_change,0,0,1,,,,,,,,0,64,127,,
22560,note_on,0,0,1,,,,,,,,0,,,62,77
22560,control_change,12,0,3,,,,,,,,2,64,127,,
22560,note_on,0,0,3,,,,,,,,2,,,43,74
22919,note_on,359,0,1,,,,,,,,0,,,62,0
22919,note_on,0,0,1,,,,,,,,0,,,50,0
22919,note_on,359,0,3,,,,,,,,2,,,55,0
22919,note_on,0,0,3,,,,,,,,2,,,43,0
22919,note_on,0,0,1,,,,,,,,0,,,59,0
22920,note_on,1,0,1,,,,,,,,0,,,50,82
22920,note_on,0,0,3,,,,,,,,2,,,55,79
22920,note_on,1,0,3,,,,,,,,2,,,43,79
22920,note_on,0,0,1,,,,,,,,0,,,59,82
22920,note_on,0,0,1,,,,,,,,0,,,62,82
23039,note_on,0,0,1,,,,,,,,0,,,50,0
23039,note_on,0,0,3,,,,,,,,2,,,43,0
23039,note_on,119,0,3,,,,,,,,2,,,55,0
23039,note_on,119,0,1,,,,,,,,0,,,62,0
23039,note_on,0,0,1,,,,,,,,0,,,59,0
23040,note_on,0,0,1,,,,,,,,0,,,62,84
23040,note_on,0,0,1,,,,,,,,0,,,59,84
23040,note_on,1,0,1,,,,,,,,0,,,50,84
23040,note_on,0,0,3,,,,,,,,2,,,44,80
23040,note_on,1,0,3,,,,,,,,2,,,56,80
23120,control_change,80,0,1,,,,,,,,0,64,0,,
23120,control_change,80,0,3,,,,,,,,2,64,0,,
23879,note_on,0,0,3,,,,,,,,2,,,56,0
23879,note_on,759,0,3,,,,,,,,2,,,44,0
23880,note_on,0,0,3,,,,,,,,2,,,43,74
23880,note_on,1,0,3,,,,,,,,2,,,55,74
23904,note_on,0,0,1,,,,,,,,0,,,59,0
23904,note_on,784,0,1,,,,,,,,0,,,62,0
23904,note_on,0,0,1,,,,,,,,0,,,50,0
23988,note_on,0,0,3,,,,,,,,2,,,55,0
23988,note_on,108,0,3,,,,,,,,2,,,43,0
24000,note_on,0,0,2,,,,,,,,1,,,50,67
24000,note_on,0,0,2,,,,,,,,1,,,60,67
24000,note_on,2016,0,2,,,,,,,,1,,,62,67
24000,note_on,12,0,3,,,,,,,,2,,,42,72
24000,note_on,0,0,3,,,,,,,,2,,,54,72
24179,note_on,179,0,2,,,,,,,,1,,,50,0
24179,note_on,0,0,2,,,,,,,,1,,,60,0
24179,note_on,0,0,2,,,,,,,,1,,,62,0
24179,note_on,0,0,3,,,,,,,,2,,,42,0
24179,note_on,179,0,3,,,,,,,,2,,,54,0
24360,note_on,181,0,2,,,,,,,,1,,,62,59
24360,note_on,0,0,2,,,,,,,,1,,,60,59
24360,note_on,181,0,3,,,,,,,,2,,,38,68
24360,note_on,0,0,3,,,,,,,,2,,,50,68
24419,note_on,59,0,3,,,,,,,,2,,,50,0
24419,note_on,0,0,3,,,,,,,,2,,,38,0
24419,note_on,0,0,2,,,,,,,,1,,,62,0
24419,note_on,59,0,2,,,,,,,,1,,,60,0
24480,note_on,0,0,2,,,,,,,,1,,,59,56
24480,note_on,0,0,2,,,,,,,,1,,,50,56
24480,note_on,61,0,2,,,,,,,,1,,,62,56
24480,note_on,0,0,3,,,,,,,,2,,,43,66
24480,note_on,61,0,3,,,,,,,,2,,,55,66
25128,note_on,648,0,2,,,,,,,,1,,,50,0
25128,note_on,0,0,2,,,,,,,,1,,,62,0
25128,note_on,0,0,2,,,,,,,,1,,,59,0
25319,note_on,0,0,3,,,,,,,,2,,,55,0
25319,note_on,839,0,3,,,,,,,,2,,,43,0
25320,note_on,0,0,1,,,,,,,,0,,,62,67
25320,note_on,0,0,1,,,,,,,,0,,,59,67
25320,note_on,1416,0,1,,,,,,,,0,,,55,67
25320,note_on,0,0,1,,,,,,,,0,,,67,67
25320,note_on,0,0,3,,,,,,,,2,,,50,66
25320,note_on,0,0,3,,,,,,,,2,,,47,66
25320,note_on,1,0,3,,,,,,,,2,,,43,66
25428,note_on,0,0,1,,,,,,,,0,,,59,0
25428,note_on,0,0,1,,,,,,,,0,,,55,0
25428,note_on,0,0,3,,,,,,,,2,,,43,0
25428,note_on,0,0,3,,,,,,,,2,,,47,0
25428,note_on,108,0,3,,,,,,,,2,,,50,0
25428,note_on,0,0,1,,,,,,,,0,,,62,0
25428,note_on,108,0,1,,,,,,,,0,,,67,0
25440,note_on,0,0,3,,,,,,,,2,,,47,69
25440,note_on,0,0,1,,,,,,,,0,,,62,71
25440,note_on,0,0,1,,,,,,,,0,,,59,71
25440,note_on,0,0,1,,,,,,,,0,,,55,71
25440,control_change,12,0,1,,,,,,,,0,64,127,,
25440,note_on,0,0,3,,,,,,,,2,,,43,69
25440,note_on,0,0,3,,,,,,,,2,,,50,69
25440,control_change,12,0,3,,,,,,,,2,64,127,,
25440,note_on,0,0,1,,,,,,,,0,,,67,71
25799,note_on,0,0,3,,,,,,,,2,,,47,0
25799,note_on,0,0,1,,,,,,,,0,,,55,0
25799,note_on,0,0,1,,,,,,,,0,,,59,0
25799,note_on,0,0,1,,,,,,,,0,,,62,0
25799,note_on,359,0,3,,,,,,,,2,,,50,0
25799,note_on,0,0,3,,,,,,,,2,,,43,0
25799,note_on,359,0,1,,,,,,,,0,,,67,0
25800,note_on,0,0,1,,,,,,,,0,,,67,82
25800,note_on,1,0,3,,,,,,,,2,,,43,77
25800,note_on,0,0,3,,,,,,,,2,,,50,77
25800,note_on,1,0,1,,,,,,,,0,,,55,82
25800,note_on,0,0,1,,,,,,,,0,,,59,82
25800,note_on,0,0,1,,,,,,,,0,,,62,82
25800,note_on,0,0,3,,,,,,,,2,,,47,77
25919,note_on,119,0,3,,,,,,,,2,,,50,0
25919,note_on,0,0,3,,,,,,,,2,,,47,0
25919,note_on,0,0,3,,,,,,,,2,,,43,0
25919,note_on,0,0,1,,,,,,,,0,,,55,0
25919,note_on,0,0,1,,,,,,,,0,,,59,0
25919,note_on,0,0,1,,,,,,,,0,,,62,0
25919,note_on,119,0,1,,,,,,,,0,,,67,0
25920,note_on,1,0,1,,,,,,,,0,,,56,85
25920,note_on,0,0,1,,,,,,,,0,,,68,85
25920,note_on,3936,0,4,,,,,,,,3,,,44,89
25920,note_on,1,0,3,,,,,,,,2,,,47,80
25920,note_on,0,0,2,,,,,,,,1,,,59,89
25920,note_on,792,0,2,,,,,,,,1,,,62,89
25920,note_on,0,0,3,,,,,,,,2,,,50,80
26040,control_change,120,0,1,,,,,,,,0,64,0,,
26080,control_change,160,0,3,,,,,,,,2,64,0,,
26759,note_on,719,0,1,,,,,,,,0,,,68,0
26759,note_on,839,0,4,,,,,,,,3,,,44,0
26759,note_on,0,0,1,,,,,,,,0,,,56,0
26760,note_on,1,0,1,,,,,,,,0,,,55,64
26760,note_on,0,0,1,,,,,,,,0,,,67,64
26760,note_on,1,0,4,,,,,,,,3,,,43,64
26784,note_on,0,0,2,,,,,,,,1,,,62,0
26784,note_on,0,0,3,,,,,,,,2,,,47,0
26784,note_on,704,0,3,,,,,,,,2,,,50,0
26784,note_on,864,0,2,,,,,,,,1,,,59,0
26868,note_on,108,0,1,,,,,,,,0,,,67,0
26868,note_on,0,0,1,,,,,,,,0,,,55,0
26868,note_on,108,0,4,,,,,,,,3,,,43,0
26880,note_on,12,0,1,,,,,,,,0,,,54,64
26880,note_on,0,0,1,,,,,,,,0,,,60,64
26880,note_on,0,0,1,,,,,,,,0,,,63,64
26880,note_on,96,0,3,,,,,,,,2,,,42,64
26880,note_on,0,0,1,,,,,,,,0,,,66,64
26880,note_on,0,0,3,,,,,,,,2,,,51,64
26880,note_on,0,0,3,,,,,,,,2,,,48,64
27239,note_on,0,0,3,,,,,,,,2,,,42,0
27239,note_on,0,0,3,,,,,,,,2,,,48,0
27239,note_on,359,0,3,,,,,,,,2,,,51,0
27239,note_on,0,0,1,,,,,,,,0,,,63,0
27239,note_on,0,0,1,,,,,,,,0,,,60,0
27239,note_on,0,0,1,,,,,,,,0,,,54,0
27239,note_on,359,0,1,,,,,,,,0,,,66,0
27240,note_on,1,0,1,,,,,,,,0,,,62,64
27240,note_on,1,0,3,,,,,,,,2,,,38,64
27240,note_on,0,0,3,,,,,,,,2,,,50,64
27359,note_on,119,0,1,,,,,,,,0,,,62,0
27359,note_on,119,0,3,,,,,,,,2,,,50,0
27359,note_on,0,0,3,,,,,,,,2,,,38,0
27360,note_on,0,0,1,,,,,,,,0,,,67,64
27360,note_on,0,0,1,,,,,,,,0,,,62,64
27360,note_on,1,0,1,,,,,,,,0,,,55,64
27360,note_on,0,0,1,,,,,,,,0,,,59,64
27360,note_on,0,0,3,,,,,,,,2,,,47,64
27360,note_on,0,0,3,,,,,,,,2,,,50,64
27360,note_on,1,0,3,,,,,,,,2,,,43,64
27792,note_on,0,0,3,,,,,,,,2,,,43,0
27792,note_on,432,0,3,,,,,,,,2,,,50,0
27792,note_on,0,0,3,,,,,,,,2,,,47,0
28079,note_on,719,0,1,,,,,,,,0,,,67,0
28079,note_on,0,0,1,,,,,,,,0,,,55,0
28079,note_on,0,0,1,,,,,,,,0,,,59,0
28079,note_on,0,0,1,,,,,,,,0,,,62,0
28080,note_on,1,0,1,,,,,,,,0,,,55,66
28080,note_on,0,0,1,,,,,,,,0,,,67,66
28296,note_on,216,0,1,,,,,,,,0,,,67,0
28296,note_on,0,0,1,,,,,,,,0,,,55,0
28320,note_on,528,0,3,,,,,,,,2,,,39,64
28320,control_change,24,0,1,,,,,,,,0,64,127,,
28320,note_on,0,0,1,,,,,,,,0,,,55,70
28320,note_on,0,0,1,,,,,,,,0,,,63,70
28320,note_on,0,0,1,,,,,,,,0,,,67,70
28320,note_on,0,0,3,,,,,,,,2,,,51,64
28320,note_on,0,0,3,,,,,,,,2,,,46,64
28679,note_on,0,0,1,,,,,,,,0,,,55,0
28679,note_on,0,0,3,,,,,,,,2,,,39,0
28679,note_on,0,0,3,,,,,,,,2,,,46,0
28679,note_on,359,0,3,,,,,,,,2,,,51,0
28679,note_on,359,0,1,,,,,,,,0,,,67,0
28679,note_on,0,0,1,,,,,,,,0,,,63,0
28680,note_on,1,0,1,,,,,,,,0,,,57,85
28680,note_on,0,0,1,,,,,,,,0,,,63,85
28680,note_on,0,0,1,,,,,,,,0,,,69,85
28680,note_on,0,0,3,,,,,,,,2,,,45,66
28680,note_on,1,0,3,,,,,,,,2,,,36,66
28680,note_on,0,0,3,,,,,,,,2,,,51,66
28799,note_on,0,0,1,,,,,,,,0,,,63,0
28799,note_on,0,0,1,,,,,,,,0,,,57,0
28799,note_on,119,0,3,,,,,,,,2,,,51,0
28799,note_on,0,0,3,,,,,,,,2,,,45,0
28799,note_on,0,0,3,,,,,,,,2,,,36,0
28799,note_on,119,0,1,,,,,,,,0,,,69,0
28800,note_on,0,0,3,,,,,,,,2,,,51,67
28800,note_on,1,0,3,,,,,,,,2,,,35,67
28800,note_on,0,0,3,,,,,,,,2,,,43,67
28800,note_on,0,0,1,,,,,,,,0,,,70,87
28800,note_on,0,0,1,,,,,,,,0,,,63,87
28800,note_on,1,0,1,,,,,,,,0,,,58,87
29279,note_on,479,0,1,,,,,,,,0,,,70,0
29279,note_on,0,0,1,,,,,,,,0,,,63,0
29279,note_on,0,0,1,,,,,,,,0,,,58,0
29279,note_on,479,0,3,,,,,,,,2,,,51,0
29279,note_on,0,0,3,,,,,,,,2,,,43,0
29279,note_on,0,0,3,,,,,,,,2,,,35,0
29280,note_on,0,0,3,,,,,,,,2,,,41,71
29280,note_on,0,0,3,,,,,,,,2,,,50,71
29280,note_on,0,0,2,,,,,,,,1,,,65,80
29280,note_on,2496,0,2,,,,,,,,1,,,68,80
29280,note_on,1,0,3,,,,,,,,2,,,35,71
29280,control_change,1,0,1,,,,,,,,0,64,0,,
29280,note_on,0,0,1,,,,,,,,0,,,74,96
29280,note_on,0,0,1,,,,,,,,0,,,62,96
29320,control_change,40,0,1,,,,,,,,0,64,127,,
29375,note_on,0,0,1,,,,,,,,0,,,62,0
29375,note_on,55,0,1,,,,,,,,0,,,74,0
29376,note_on,1,0,1,,,,,,,,0,,,63,96
29376,note_on,0,0,1,,,,,,,,0,,,75,96
29471,note_on,0,0,1,,,,,,,,0,,,63,0
29471,note_on,95,0,1,,,,,,,,0,,,75,0
29472,note_on,1,0,1,,,,,,,,0,,,62,96
29472,note_on,0,0,1,,,,,,,,0,,,74,96
29567,note_on,0,0,1,,,,,,,,0,,,62,0
29567,note_on,95,0,1,,,,,,,,0,,,74,0
29568,note_on,1,0,1,,,,,,,,0,,,60,96
29568,note_on,0,0,1,,,,,,,,0,,,72,96
29663,note_on,95,0,1,,,,,,,,0,,,72,0
29663,note_on,0,0,1,,,,,,,,0,,,60,0
29664,note_on,0,0,1,,,,,,,,0,,,74,96
29664,note_on,1,0,1,,,,,,,,0,,,62,96
29712,note_on,432,0,3,,,,,,,,2,,,50,0
29712,note_on,0,0,3,,,,,,,,2,,,41,0
29712,note_on,0,0,3,,,,,,,,2,,,35,0
29712,note_on,0,0,2,,,,,,,,1,,,68,0
29712,note_on,432,0,2,,,,,,,,1,,,65,0
29760,note_on,0,0,4,,,,,,,,3,,,51,85
29760,note_on,0,0,4,,,,,,,,3,,,42,85
29760,note_on,0,0,4,,,,,,,,3,,,39,85
29760,note_on,2892,0,4,,,,,,,,3,,,36,85
29760,note_on,0,0,1,,,,,,,,0,,,63,97
29760,note_on,0,0,1,,,,,,,,0,,,62,0
29760,note_on,96,0,1,,,,,,,,0,,,74,0
29760,note_on,0,0,1,,,,,,,,0,,,66,97
29760,note_on,0,0,1,,,,,,,,0,,,69,97
29760,note_on,0,0,1,,,,,,,,0,,,75,97
30280,control_change,520,0,1,,,,,,,,0,64,0,,
31679,note_on,0,0,4,,,,,,,,3,,,42,0
31679,note_on,0,0,4,,,,,,,,3,,,39,0
31679,note_on,0,0,4,,,,,,,,3,,,36,0
31679,note_on,1919,0,4,,,,,,,,3,,,51,0
31680,note_on,0,0,4,,,,,,,,3,,,48,88
31680,note_on,0,0,4,,,,,,,,3,,,54,88
31680,note_on,1,0,4,,,,,,,,3,,,57,88
31680,note_on,0,0,4,,,,,,,,3,,,51,88
31919,note_on,1639,0,1,,,,,,,,0,,,75,0
31919,note_on,0,0,1,,,,,,,,0,,,66,0
31919,note_on,0,0,1,,,,,,,,0,,,69,0
31919,note_on,0,0,1,,,,,,,,0,,,63,0
31920,note_on,1,0,1,,,,,,,,0,,,63,100
32039,note_on,119,0,1,,,,,,,,0,,,63,0
32159,note_on,479,0,4,,,,,,,,3,,,48,0
32159,note_on,0,0,4,,,,,,,,3,,,51,0
32159,note_on,0,0,4,,,,,,,,3,,,57,0
32159,note_on,0,0,4,,,,,,,,3,,,54,0
32160,note_on,121,0,1,,,,,,,,0,,,75,103
32160,note_on,0,0,4,,,,,,,,3,,,46,92
32160,note_on,0,0,4,,,,,,,,3,,,51,92
32160,note_on,0,0,4,,,,,,,,3,,,54,92
32160,note_on,1,0,4,,,,,,,,3,,,58,92
32279,note_on,119,0,1,,,,,,,,0,,,75,0
32400,note_on,121,0,1,,,,,,,,0,,,87,105
32508,note_on,108,0,1,,,,,,,,0,,,87,0
32592,note_on,0,0,4,,,,,,,,3,,,58,0
32592,note_on,432,0,4,,,,,,,,3,,,46,0
32592,note_on,0,0,4,,,,,,,,3,,,51,0
32592,note_on,0,0,4,,,,,,,,3,,,54,0
32640,note_on,132,0,1,,,,,,,,0,,,87,102
32640,note_on,0,0,4,,,,,,,,3,,,45,64
32640,note_on,0,0,4,,,,,,,,3,,,51,64
32640,note_on,0,0,4,,,,,,,,3,,,53,64
32640,note_on,48,0,4,,,,,,,,3,,,60,64
32667,control_change,27,0,1,,,,,,,,0,64,127,,
32759,note_on,92,0,1,,,,,,,,0,,,87,0
32760,note_on,1,0,1,,,,,,,,0,,,99,102
33504,note_on,864,0,4,,,,,,,,3,,,45,0
33504,note_on,0,0,4,,,,,,,,3,,,60,0
33504,note_on,0,0,4,,,,,,,,3,,,53,0
33504,note_on,0,0,4,,,,,,,,3,,,51,0
33559,note_on,799,0,1,,,,,,,,0,,,99,0
33560,note_on,1,0,1,,,,,,,,0,,,98,74
33627,control_change,67,0,1,,,,,,,,0,64,0,,
33639,note_on,12,0,1,,,,,,,,0,,,98,0
33640,note_on,1,0,1,,,,,,,,0,,,101,74
33719,note_on,79,0,1,,,,,,,,0,,,101,0
33720,note_on,1,0,1,,,,,,,,0,,,99,76
33799,note_on,79,0,1,,,,,,,,0,,,99,0
33800,note_on,1,0,1,,,,,,,,0,,,96,76
33879,note_on,79,0,1,,,,,,,,0,,,96,0
33880,note_on,1,0,1,,,,,,,,0,,,93,77
33959,note_on,79,0,1,,,,,,,,0,,,93,0
33960,note_on,1,0,1,,,,,,,,0,,,92,78
34039,note_on,79,0,1,,,,,,,,0,,,92,0
34040,note_on,1,0,1,,,,,,,,0,,,89,79
34099,note_on,59,0,1,,,,,,,,0,,,89,0
34100,note_on,1,0,1,,,,,,,,0,,,88,80
34179,note_on,79,0,1,,,,,,,,0,,,88,0
34180,note_on,1,0,1,,,,,,,,0,,,87,80
34259,note_on,79,0,1,,,,,,,,0,,,87,0
34260,note_on,1,0,1,,,,,,,,0,,,84,82
34339,note_on,79,0,1,,,,,,,,0,,,84,0
34340,note_on,1,0,1,,,,,,,,0,,,81,82
34419,note_on,79,0,1,,,,,,,,0,,,81,0
34420,note_on,1,0,1,,,,,,,,0,,,80,83
34499,note_on,79,0,1,,,,,,,,0,,,80,0
34500,note_on,1,0,1,,,,,,,,0,,,77,84
34579,note_on,79,0,1,,,,,,,,0,,,77,0
34580,note_on,1,0,1,,,,,,,,0,,,76,85
34659,note_on,79,0,1,,,,,,,,0,,,76,0
34660,note_on,1,0,1,,,,,,,,0,,,75,86
34739,note_on,79,0,1,,,,,,,,0,,,75,0
34740,note_on,1,0,1,,,,,,,,0,,,72,87
34819,note_on,79,0,1,,,,,,,,0,,,72,0
34820,note_on,1,0,1,,,,,,,,0,,,69,88
34899,note_on,79,0,1,,,,,,,,0,,,69,0
34900,note_on,1,0,1,,,,,,,,0,,,68,88
34979,note_on,79,0,1,,,,,,,,0,,,68,0
34980,note_on,1,0,1,,,,,,,,0,,,66,90
35059,note_on,79,0,1,,,,,,,,0,,,66,0
35060,note_on,1,0,1,,,,,,,,0,,,64,90
35139,note_on,79,0,1,,,,,,,,0,,,64,0
35140,note_on,1,0,1,,,,,,,,0,,,63,91
35219,note_on,79,0,1,,,,,,,,0,,,63,0
35220,note_on,1,0,1,,,,,,,,0,,,60,92
35299,note_on,79,0,1,,,,,,,,0,,,60,0
35300,note_on,1,0,1,,,,,,,,0,,,57,93
35379,note_on,79,0,1,,,,,,,,0,,,57,0
35380,note_on,1,0,1,,,,,,,,0,,,56,94
35459,note_on,79,0,1,,,,,,,,0,,,56,0
35460,note_on,1,0,1,,,,,,,,0,,,53,95
35520,control_change,5808,0,2,,,,,,,,1,64,127,,
35520,note_on,0,0,2,,,,,,,,1,,,52,97
35532,note_on,72,0,1,,,,,,,,0,,,53,0
35599,note_on,79,0,2,,,,,,,,1,,,52,0
35600,note_on,1,0,2,,,,,,,,1,,,51,97
35679,note_on,79,0,2,,,,,,,,1,,,51,0
35680,note_on,1,0,2,,,,,,,,1,,,48,97
35759,note_on,79,0,2,,,,,,,,1,,,48,0
35760,note_on,1,0,2,,,,,,,,1,,,45,97
35839,note_on,79,0,2,,,,,,,,1,,,45,0
35840,note_on,1,0,2,,,,,,,,1,,,42,97
35919,note_on,79,0,2,,,,,,,,1,,,42,0
35920,note_on,1,0,2,,,,,,,,1,,,41,97
35999,note_on,79,0,2,,,,,,,,1,,,41,0
36000,note_on,1,0,2,,,,,,,,1,,,40,97
36079,note_on,79,0,2,,,,,,,,1,,,40,0
36080,note_on,1,0,2,,,,,,,,1,,,39,97
36159,note_on,79,0,2,,,,,,,,1,,,39,0
36160,note_on,1,0,2,,,,,,,,1,,,36,97
36239,note_on,79,0,2,,,,,,,,1,,,36,0
36240,note_on,1,0,2,,,,,,,,1,,,35,97
36319,note_on,79,0,2,,,,,,,,1,,,35,0
36320,note_on,1,0,2,,,,,,,,1,,,34,97
36399,note_on,79,0,2,,,,,,,,1,,,34,0
36400,note_on,1,0,2,,,,,,,,1,,,33,97
36479,note_on,79,0,2,,,,,,,,1,,,33,0
36480,note_on,1,0,2,,,,,,,,1,,,34,97
36559,note_on,79,0,2,,,,,,,,1,,,34,0
36560,note_on,1,0,2,,,,,,,,1,,,33,97
36639,note_on,79,0,2,,,,,,,,1,,,33,0
36640,note_on,1,0,2,,,,,,,,1,,,32,97
36719,note_on,79,0,2,,,,,,,,1,,,32,0
36720,note_on,1,0,2,,,,,,,,1,,,33,97
36799,note_on,79,0,2,,,,,,,,1,,,33,0
36800,note_on,1,0,2,,,,,,,,1,,,36,97
36879,note_on,79,0,2,,,,,,,,1,,,36,0
36880,note_on,1,0,2,,,,,,,,1,,,33,97
36952,note_on,72,0,2,,,,,,,,1,,,33,0
36960,note_on,0,0,4,,,,,,,,3,,,53,89
36960,note_on,8,0,2,,,,,,,,1,,,32,97
36960,control_change,3456,0,4,,,,,,,,3,64,127,,
36960,note_on,0,0,4,,,,,,,,3,,,51,89
36960,note_on,0,0,4,,,,,,,,3,,,60,89
37039,note_on,79,0,2,,,,,,,,1,,,32,0
37040,note_on,1,0,2,,,,,,,,1,,,33,97
37119,note_on,79,0,2,,,,,,,,1,,,33,0
37120,note_on,1,0,2,,,,,,,,1,,,32,97
37199,note_on,79,0,2,,,,,,,,1,,,32,0
37200,note_on,1,0,2,,,,,,,,1,,,33,97
37279,note_on,79,0,2,,,,,,,,1,,,33,0
37280,note_on,1,0,2,,,,,,,,1,,,32,97
37359,note_on,79,0,2,,,,,,,,1,,,32,0
37360,note_on,1,0,2,,,,,,,,1,,,33,97
37439,note_on,479,0,4,,,,,,,,3,,,51,0
37439,note_on,79,0,2,,,,,,,,1,,,33,0
37440,note_on,1,0,4,,,,,,,,3,,,50,80
37440,note_on,1,0,2,,,,,,,,1,,,32,97
37519,note_on,79,0,2,,,,,,,,1,,,32,0
37520,note_on,1,0,2,,,,,,,,1,,,33,97
37599,note_on,79,0,2,,,,,,,,1,,,33,0
37600,note_on,1,0,2,,,,,,,,1,,,31,91
37648,control_change,7936,0,3,,,,,,,,2,64,127,,
37672,note_on,72,0,2,,,,,,,,1,,,31,0
37680,note_on,32,0,3,,,,,,,,2,,,29,80
37704,control_change,32,0,2,,,,,,,,1,64,0,,
37719,note_on,39,0,3,,,,,,,,2,,,29,0
37720,note_on,1,0,3,,,,,,,,2,,,32,80
37759,note_on,39,0,3,,,,,,,,2,,,32,0
37760,note_on,1,0,3,,,,,,,,2,,,36,82
37799,note_on,39,0,3,,,,,,,,2,,,36,0
37800,note_on,1,0,3,,,,,,,,2,,,38,83
37839,note_on,39,0,3,,,,,,,,2,,,38,0
37840,note_on,1,0,3,,,,,,,,2,,,41,84
37879,note_on,39,0,3,,,,,,,,2,,,41,0
37880,note_on,1,0,3,,,,,,,,2,,,44,85
37919,note_on,0,0,4,,,,,,,,3,,,53,0
37919,note_on,0,0,4,,,,,,,,3,,,60,0
37919,note_on,479,0,4,,,,,,,,3,,,50,0
37919,note_on,39,0,3,,,,,,,,2,,,44,0
37920,note_on,1,0,3,,,,,,,,2,,,48,86
37920,note_on,0,0,4,,,,,,,,3,,,54,72
37920,note_on,0,0,4,,,,,,,,3,,,60,72
37920,note_on,0,0,4,,,,,,,,3,,,50,72
37920,control_change,1,0,4,,,,,,,,3,64,0,,
37959,note_on,39,0,3,,,,,,,,2,,,48,0
37960,note_on,1,0,3,,,,,,,,2,,,44,87
37999,note_on,39,0,3,,,,,,,,2,,,44,0
38000,note_on,1,0,3,,,,,,,,2,,,42,88
38039,note_on,39,0,3,,,,,,,,2,,,42,0
38040,note_on,1,0,3,,,,,,,,2,,,38,90
38079,note_on,39,0,3,,,,,,,,2,,,38,0
38080,note_on,1,0,3,,,,,,,,2,,,36,90
38119,note_on,39,0,3,,,,,,,,2,,,36,0
38120,note_on,1,0,3,,,,,,,,2,,,35,92
38159,note_on,39,0,3,,,,,,,,2,,,35,0
38160,note_on,1,0,3,,,,,,,,2,,,34,93
38199,note_on,39,0,3,,,,,,,,2,,,34,0
38200,note_on,1,0,3,,,,,,,,2,,,33,93
38239,note_on,39,0,3,,,,,,,,2,,,33,0
38240,note_on,1,0,3,,,,,,,,2,,,32,95
38279,note_on,39,0,3,,,,,,,,2,,,32,0
38280,note_on,1,0,3,,,,,,,,2,,,33,96
38319,note_on,39,0,3,,,,,,,,2,,,33,0
38320,note_on,1,0,3,,,,,,,,2,,,32,97
38352,note_on,432,0,4,,,,,,,,3,,,50,0
38352,note_on,0,0,4,,,,,,,,3,,,54,0
38352,note_on,0,0,4,,,,,,,,3,,,60,0
38359,note_on,39,0,3,,,,,,,,2,,,32,0
38360,note_on,1,0,3,,,,,,,,2,,,31,98
38373,set_tempo,31653,1,0,,,,,,684307,,,,,,
38396,note_on,36,0,3,,,,,,,,2,,,31,0
38400,control_change,696,0,2,,,,,,,,1,64,127,,
38400,control_change,48,0,4,,,,,,,,3,64,127,,
38400,note_on,0,0,4,,,,,,,,3,,,50,63
38400,note_on,0,0,4,,,,,,,,3,,,55,63
38400,note_on,0,0,4,,,,,,,,3,,,47,63
38400,note_on,4,0,3,,,,,,,,2,,,31,100
38400,note_on,0,0,4,,,,,,,,3,,,59,63
38608,control_change,208,0,3,,,,,,,,2,64,0,,
39239,note_on,0,0,4,,,,,,,,3,,,55,0
39239,note_on,0,0,4,,,,,,,,3,,,50,0
39239,note_on,0,0,4,,,,,,,,3,,,59,0
39239,note_on,839,0,4,,,,,,,,3,,,47,0
39240,note_on,0,0,4,,,,,,,,3,,,38,85
39240,note_on,632,0,3,,,,,,,,2,,,31,0
39240,note_on,840,0,2,,,,,,,,1,,,59,83
39240,note_on,0,0,2,,,,,,,,1,,,55,83
39240,note_on,0,0,2,,,,,,,,1,,,50,83
39240,note_on,0,0,4,,,,,,,,3,,,43,85
39240,note_on,0,0,2,,,,,,,,1,,,47,83
39240,note_on,0,0,4,,,,,,,,3,,,35,85
39240,note_on,1,0,4,,,,,,,,3,,,31,85
39359,note_on,0,0,4,,,,,,,,3,,,35,0
39359,note_on,119,0,4,,,,,,,,3,,,43,0
39359,note_on,0,0,4,,,,,,,,3,,,31,0
39359,note_on,0,0,4,,,,,,,,3,,,38,0
39359,note_on,0,0,2,,,,,,,,1,,,59,0
39359,note_on,0,0,2,,,,,,,,1,,,55,0
39359,note_on,0,0,2,,,,,,,,1,,,50,0
39359,note_on,119,0,2,,,,,,,,1,,,47,0
39360,note_on,0,0,2,,,,,,,,1,,,50,83
39360,note_on,0,0,2,,,,,,,,1,,,47,83
39360,note_on,0,0,2,,,,,,,,1,,,55,83
39360,control_change,1,0,4,,,,,,,,3,64,0,,
39360,note_on,0,0,4,,,,,,,,3,,,31,85
39360,note_on,0,0,4,,,,,,,,3,,,35,85
39360,note_on,0,0,4,,,,,,,,3,,,38,85
39360,note_on,0,0,4,,,,,,,,3,,,43,85
39360,control_change,1,0,2,,,,,,,,1,64,0,,
39360,note_on,0,0,2,,,,,,,,1,,,59,83
39468,note_on,108,0,4,,,,,,,,3,,,43,0
39468,note_on,108,0,2,,,,,,,,1,,,47,0
39468,note_on,0,0,4,,,,,,,,3,,,38,0
39468,note_on,0,0,4,,,,,,,,3,,,31,0
39468,note_on,0,0,2,,,,,,,,1,,,50,0
39468,note_on,0,0,4,,,,,,,,3,,,35,0
39468,note_on,0,0,2,,,,,,,,1,,,59,0
39468,note_on,0,0,2,,,,,,,,1,,,55,0
39840,note_on,372,0,2,,,,,,,,1,,,60,83
39840,note_on,0,0,2,,,,,,,,1,,,55,83
39840,note_on,0,0,2,,,,,,,,1,,,51,83
39840,note_on,0,0,2,,,,,,,,1,,,48,83
39840,control_change,372,0,4,,,,,,,,3,64,127,,
39840,note_on,0,0,4,,,,,,,,3,,,36,85
39840,note_on,0,0,4,,,,,,,,3,,,39,85
39840,note_on,0,0,4,,,,,,,,3,,,43,85
39874,control_change,34,0,2,,,,,,,,1,64,127,,
40679,note_on,839,0,4,,,,,,,,3,,,43,0
40679,note_on,0,0,4,,,,,,,,3,,,39,0
40679,note_on,0,0,4,,,,,,,,3,,,36,0
40679,note_on,805,0,2,,,,,,,,1,,,48,0
40679,note_on,0,0,2,,,,,,,,1,,,60,0
40679,note_on,0,0,2,,,,,,,,1,,,55,0
40679,note_on,0,0,2,,,,,,,,1,,,51,0
40680,note_on,1,0,2,,,,,,,,1,,,60,85
40680,note_on,0,0,2,,,,,,,,1,,,55,85
40680,note_on,0,0,2,,,,,,,,1,,,48,85
40680,note_on,1,0,4,,,,,,,,3,,,36,85
40680,note_on,0,0,4,,,,,,,,3,,,39,85
40680,note_on,0,0,4,,,,,,,,3,,,43,85
40680,note_on,0,0,2,,,,,,,,1,,,51,85
40799,note_on,0,0,2,,,,,,,,1,,,55,0
40799,note_on,0,0,2,,,,,,,,1,,,51,0
40799,note_on,0,0,2,,,,,,,,1,,,60,0
40799,note_on,119,0,2,,,,,,,,1,,,48,0
40799,note_on,0,0,4,,,,,,,,3,,,36,0
40799,note_on,0,0,4,,,,,,,,3,,,39,0
40799,note_on,119,0,4,,,,,,,,3,,,43,0
40800,note_on,0,0,4,,,,,,,,3,,,39,85
40800,note_on,0,0,4,,,,,,,,3,,,43,85
40800,note_on,0,0,2,,,,,,,,1,,,48,85
40800,note_on,0,0,2,,,,,,,,1,,,51,85
40800,note_on,0,0,2,,,,,,,,1,,,55,85
40800,note_on,1,0,2,,,,,,,,1,,,60,85
40800,control_change,1,0,4,,,,,,,,3,64,0,,
40800,note_on,0,0,4,,,,,,,,3,,,36,85
40834,control_change,34,0,2,,,,,,,,1,64,0,,
40908,note_on,0,0,2,,,,,,,,1,,,55,0
40908,note_on,0,0,2,,,,,,,,1,,,60,0
40908,note_on,74,0,2,,,,,,,,1,,,48,0
40908,note_on,0,0,2,,,,,,,,1,,,51,0
40908,note_on,108,0,4,,,,,,,,3,,,43,0
40908,note_on,0,0,4,,,,,,,,3,,,39,0
41016,note_on,108,0,4,,,,,,,,3,,,36,0
41280,control_change,372,0,2,,,,,,,,1,64,127,,
41280,note_on,0,0,2,,,,,,,,1,,,55,85
41280,note_on,0,0,2,,,,,,,,1,,,50,85
41280,note_on,0,0,2,,,,,,,,1,,,47,85
41280,note_on,0,0,4,,,,,,,,3,,,43,85
41280,note_on,0,0,4,,,,,,,,3,,,38,85
41280,note_on,0,0,4,,,,,,,,3,,,35,85
41280,note_on,0,0,4,,,,,,,,3,,,31,85
41280,control_change,264,0,4,,,,,,,,3,64,127,,
42119,note_on,839,0,2,,,,,,,,1,,,47,0
42119,note_on,0,0,2,,,,,,,,1,,,55,0
42119,note_on,0,0,4,,,,,,,,3,,,35,0
42119,note_on,0,0,4,,,,,,,,3,,,31,0
42119,note_on,839,0,4,,,,,,,,3,,,43,0
42119,note_on,0,0,2,,,,,,,,1,,,50,0
42119,note_on,0,0,4,,,,,,,,3,,,38,0
42120,note_on,0,0,4,,,,,,,,3,,,38,85
42120,note_on,0,0,4,,,,,,,,3,,,43,85
42120,note_on,0,0,2,,,,,,,,1,,,47,85
42120,note_on,0,0,4,,,,,,,,3,,,35,85
42120,note_on,1,0,4,,,,,,,,3,,,31,85
42120,note_on,1,0,2,,,,,,,,1,,,55,85
42120,note_on,0,0,2,,,,,,,,1,,,50,85
42239,note_on,0,0,2,,,,,,,,1,,,55,0
42239,note_on,0,0,2,,,,,,,,1,,,50,0
42239,note_on,0,0,4,,,,,,,,3,,,35,0
42239,note_on,0,0,4,,,,,,,,3,,,31,0
42239,note_on,119,0,4,,,,,,,,3,,,43,0
42239,note_on,119,0,2,,,,,,,,1,,,47,0
42239,note_on,0,0,4,,,,,,,,3,,,38,0
42240,note_on,0,0,2,,,,,,,,1,,,48,85
42240,note_on,0,0,2,,,,,,,,1,,,51,85
42240,note_on,0,0,2,,,,,,,,1,,,55,85
42240,control_change,1,0,4,,,,,,,,3,64,0,,
42240,note_on,0,0,4,,,,,,,,3,,,36,85
42240,note_on,0,0,4,,,,,,,,3,,,39,85
42240,note_on,0,0,4,,,,,,,,3,,,43,85
42240,control_change,1,0,2,,,,,,,,1,64,0,,
42348,note_on,0,0,4,,,,,,,,3,,,39,0
42348,note_on,0,0,4,,,,,,,,3,,,36,0
42348,note_on,108,0,2,,,,,,,,1,,,48,0
42348,note_on,108,0,4,,,,,,,,3,,,43,0
42348,note_on,0,0,2,,,,,,,,1,,,55,0
42348,note_on,0,0,2,,,,,,,,1,,,51,0
42720,note_on,0,0,4,,,,,,,,3,,,31,80
42720,control_change,372,0,4,,,,,,,,3,64,127,,
42780,note_on,60,0,4,,,,,,,,3,,,35,82
42840,note_on,60,0,4,,,,,,,,3,,,38,84
42900,note_on,60,0,4,,,,,,,,3,,,43,86
42960,note_on,60,0,4,,,,,,,,3,,,47,88
43020,note_on,60,0,4,,,,,,,,3,,,50,90
43080,note_on,60,0,4,,,,,,,,3,,,55,92
43679,note_on,599,0,4,,,,,,,,3,,,55,0
43679,note_on,0,0,4,,,,,,,,3,,,43,0
43679,note_on,0,0,4,,,,,,,,3,,,50,0
43679,note_on,0,0,4,,,,,,,,3,,,31,0
43679,note_on,0,0,4,,,,,,,,3,,,38,0
43679,note_on,0,0,4,,,,,,,,3,,,35,0
43679,note_on,0,0,4,,,,,,,,3,,,47,0
43680,note_on,0,0,4,,,,,,,,3,,,30,90
43680,control_change,1,0,4,,,,,,,,3,64,0,,
43704,control_change,24,0,4,,,,,,,,3,64,127,,
43719,note_on,15,0,4,,,,,,,,3,,,30,0
43720,note_on,1,0,4,,,,,,,,3,,,31,90
43759,note_on,39,0,4,,,,,,,,3,,,31,0
43760,note_on,1,0,4,,,,,,,,3,,,34,92
43799,note_on,39,0,4,,,,,,,,3,,,34,0
43800,note_on,1,0,4,,,,,,,,3,,,39,94
43839,note_on,39,0,4,,,,,,,,3,,,39,0
43840,note_on,1,0,4,,,,,,,,3,,,38,94
43879,note_on,39,0,4,,,,,,,,3,,,38,0
43880,note_on,1,0,4,,,,,,,,3,,,42,96
43919,note_on,39,0,4,,,,,,,,3,,,42,0
43920,note_on,1,0,4,,,,,,,,3,,,44,98
43959,note_on,39,0,4,,,,,,,,3,,,44,0
43960,note_on,1,0,4,,,,,,,,3,,,43,98
43999,note_on,39,0,4,,,,,,,,3,,,43,0
44000,note_on,1,0,4,,,,,,,,3,,,46,100
44039,note_on,39,0,4,,,,,,,,3,,,46,0
44040,note_on,1,0,4,,,,,,,,3,,,51,102
44079,note_on,39,0,4,,,,,,,,3,,,51,0
44080,note_on,1,0,4,,,,,,,,3,,,50,85
44119,note_on,39,0,4,,,,,,,,3,,,50,0
44120,note_on,1,0,4,,,,,,,,3,,,54,85
44156,note_on,36,0,4,,,,,,,,3,,,54,0
44160,note_on,0,0,1,,,,,,,,0,,,57,79
44160,control_change,8628,0,1,,,,,,,,0,64,127,,
44199,note_on,39,0,1,,,,,,,,0,,,57,0
44200,note_on,1,0,1,,,,,,,,0,,,55,79
44239,note_on,39,0,1,,,,,,,,0,,,55,0
44240,note_on,1,0,1,,,,,,,,0,,,59,79
44279,note_on,39,0,1,,,,,,,,0,,,59,0
44280,note_on,1,0,1,,,,,,,,0,,,63,80
44319,note_on,39,0,1,,,,,,,,0,,,63,0
44320,note_on,1,0,1,,,,,,,,0,,,62,80
44359,note_on,39,0,1,,,,,,,,0,,,62,0
44360,note_on,1,0,1,,,,,,,,0,,,66,81
44399,note_on,39,0,1,,,,,,,,0,,,66,0
44400,note_on,1,0,1,,,,,,,,0,,,69,82
44439,note_on,39,0,1,,,,,,,,0,,,69,0
44440,note_on,1,0,1,,,,,,,,0,,,67,82
44479,note_on,39,0,1,,,,,,,,0,,,67,0
44480,note_on,1,0,1,,,,,,,,0,,,71,83
44519,note_on,39,0,1,,,,,,,,0,,,71,0
44520,note_on,1,0,1,,,,,,,,0,,,76,84
44559,note_on,39,0,1,,,,,,,,0,,,76,0
44560,note_on,1,0,1,,,,,,,,0,,,74,84
44599,note_on,39,0,1,,,,,,,,0,,,74,0
44600,note_on,1,0,1,,,,,,,,0,,,78,85
44639,note_on,39,0,1,,,,,,,,0,,,78,0
44640,note_on,1,0,1,,,,,,,,0,,,80,86
44664,control_change,508,0,4,,,,,,,,3,64,0,,
44679,note_on,39,0,1,,,,,,,,0,,,80,0
44680,note_on,1,0,1,,,,,,,,0,,,79,86
44719,note_on,39,0,1,,,,,,,,0,,,79,0
44720,note_on,1,0,1,,,,,,,,0,,,83,87
44759,note_on,39,0,1,,,,,,,,0,,,83,0
44760,note_on,1,0,1,,,,,,,,0,,,87,87
44799,note_on,39,0,1,,,,,,,,0,,,87,0
44800,note_on,1,0,1,,,,,,,,0,,,86,87
44839,note_on,39,0,1,,,,,,,,0,,,86,0
44840,note_on,1,0,1,,,,,,,,0,,,90,88
44879,note_on,39,0,1,,,,,,,,0,,,90,0
44880,note_on,1,0,1,,,,,,,,0,,,92,89
44919,note_on,39,0,1,,,,,,,,0,,,92,0
44920,note_on,1,0,1,,,,,,,,0,,,90,89
44959,note_on,39,0,1,,,,,,,,0,,,90,0
44960,note_on,1,0,1,,,,,,,,0,,,91,90
44999,note_on,39,0,1,,,,,,,,0,,,91,0
45000,note_on,1,0,1,,,,,,,,0,,,92,91
45039,note_on,39,0,1,,,,,,,,0,,,92,0
45040,note_on,1,0,1,,,,,,,,0,,,91,91
45079,note_on,39,0,1,,,,,,,,0,,,91,0
45080,note_on,1,0,1,,,,,,,,0,,,92,92
45119,note_on,39,0,1,,,,,,,,0,,,92,0
45120,note_on,1,0,1,,,,,,,,0,,,91,93
45159,note_on,39,0,1,,,,,,,,0,,,91,0
45160,note_on,1,0,1,,,,,,,,0,,,92,93
45199,note_on,39,0,1,,,,,,,,0,,,92,0
45200,note_on,1,0,1,,,,,,,,0,,,91,94
45239,note_on,39,0,1,,,,,,,,0,,,91,0
45240,note_on,1,0,1,,,,,,,,0,,,92,95
45279,note_on,39,0,1,,,,,,,,0,,,92,0
45280,note_on,1,0,1,,,,,,,,0,,,91,96
45319,note_on,39,0,1,,,,,,,,0,,,91,0
45320,note_on,1,0,1,,,,,,,,0,,,92,96
45359,note_on,39,0,1,,,,,,,,0,,,92,0
45360,note_on,1,0,1,,,,,,,,0,,,91,96
45399,note_on,39,0,1,,,,,,,,0,,,91,0
45400,note_on,1,0,1,,,,,,,,0,,,92,96
45439,note_on,39,0,1,,,,,,,,0,,,92,0
45440,note_on,1,0,1,,,,,,,,0,,,91,95
45479,note_on,39,0,1,,,,,,,,0,,,91,0
45480,note_on,1,0,1,,,,,,,,0,,,92,95
45519,note_on,39,0,1,,,,,,,,0,,,92,0
45520,note_on,1,0,1,,,,,,,,0,,,91,95
45559,note_on,39,0,1,,,,,,,,0,,,91,0
45560,note_on,1,0,1,,,,,,,,0,,,92,95
45596,note_on,36,0,1,,,,,,,,0,,,92,0
45600,note_on,4,0,1,,,,,,,,0,,,91,95
45639,note_on,39,0,1,,,,,,,,0,,,91,0
45640,note_on,1,0,1,,,,,,,,0,,,92,95
45679,note_on,39,0,1,,,,,,,,0,,,92,0
45680,note_on,1,0,1,,,,,,,,0,,,91,95
45719,note_on,39,0,1,,,,,,,,0,,,91,0
45720,note_on,1,0,1,,,,,,,,0,,,92,95
45759,note_on,39,0,1,,,,,,,,0,,,92,0
45760,note_on,1,0,1,,,,,,,,0,,,91,95
45799,note_on,39,0,1,,,,,,,,0,,,91,0
45800,note_on,1,0,1,,,,,,,,0,,,92,95
45839,note_on,39,0,1,,,,,,,,0,,,92,0
45840,note_on,1,0,1,,,,,,,,0,,,91,96
45879,note_on,39,0,1,,,,,,,,0,,,91,0
45880,note_on,1,0,1,,,,,,,,0,,,92,96
45919,note_on,39,0,1,,,,,,,,0,,,92,0
45920,note_on,1,0,1,,,,,,,,0,,,91,96
45959,note_on,39,0,1,,,,,,,,0,,,91,0
45960,note_on,1,0,1,,,,,,,,0,,,92,96
45999,note_on,39,0,1,,,,,,,,0,,,92,0
46000,note_on,1,0,1,,,,,,,,0,,,91,96
46039,note_on,39,0,1,,,,,,,,0,,,91,0
46040,note_on,1,0,1,,,,,,,,0,,,92,96
46079,note_on,39,0,1,,,,,,,,0,,,92,0
46080,note_on,1,0,1,,,,,,,,0,,,91,96
46119,note_on,39,0,1,,,,,,,,0,,,91,0
46120,note_on,1,0,1,,,,,,,,0,,,92,96
46159,note_on,39,0,1,,,,,,,,0,,,92,0
46160,note_on,1,0,1,,,,,,,,0,,,91,96
46199,note_on,39,0,1,,,,,,,,0,,,91,0
46200,note_on,1,0,1,,,,,,,,0,,,92,96
46239,note_on,39,0,1,,,,,,,,0,,,92,0
46240,note_on,1,0,1,,,,,,,,0,,,91,96
46279,note_on,39,0,1,,,,,,,,0,,,91,0
46280,note_on,1,0,1,,,,,,,,0,,,92,96
46319,note_on,39,0,1,,,,,,,,0,,,92,0
46320,note_on,1,0,1,,,,,,,,0,,,91,97
46359,note_on,39,0,1,,,,,,,,0,,,91,0
46360,note_on,1,0,1,,,,,,,,0,,,92,97
46399,note_on,39,0,1,,,,,,,,0,,,92,0
46400,note_on,1,0,1,,,,,,,,0,,,91,97
46439,note_on,39,0,1,,,,,,,,0,,,91,0
46440,note_on,1,0,1,,,,,,,,0,,,92,97
46479,note_on,39,0,1,,,,,,,,0,,,92,0
46480,note_on,1,0,1,,,,,,,,0,,,91,97
46519,note_on,39,0,1,,,,,,,,0,,,91,0
46520,note_on,1,0,1,,,,,,,,0,,,92,97
46559,note_on,39,0,1,,,,,,,,0,,,92,0
46560,note_on,1,0,1,,,,,,,,0,,,91,97
46599,note_on,39,0,1,,,,,,,,0,,,91,0
46600,note_on,1,0,1,,,,,,,,0,,,92,97
46639,note_on,39,0,1,,,,,,,,0,,,92,0
46640,note_on,1,0,1,,,,,,,,0,,,91,97
46679,note_on,39,0,1,,,,,,,,0,,,91,0
46680,note_on,1,0,1,,,,,,,,0,,,90,97
46719,note_on,39,0,1,,,,,,,,0,,,90,0
46720,note_on,1,0,1,,,,,,,,0,,,91,97
46759,note_on,39,0,1,,,,,,,,0,,,91,0
46760,note_on,1,0,1,,,,,,,,0,,,94,99
46799,note_on,39,0,1,,,,,,,,0,,,94,0
46800,note_on,1,0,1,,,,,,,,0,,,92,99
46839,note_on,39,0,1,,,,,,,,0,,,92,0
46840,note_on,1,0,1,,,,,,,,0,,,91,100
46876,note_on,36,0,1,,,,,,,,0,,,91,0
47000,control_change,124,0,1,,,,,,,,0,64,0,,
48480,note_on,0,0,3,,,,,,,,2,,,51,64
48480,note_on,0,0,3,,,,,,,,2,,,60,64
48480,control_change,9240,0,3,,,,,,,,2,64,127,,
48480,control_change,3816,0,4,,,,,,,,3,64,127,,
48480,note_on,0,0,4,,,,,,,,3,,,44,64
48480,time_signature,10107,1,0,4,4,24,8,,,,,,,,
48480,set_tempo,0,1,0,,,,,,666667,,,,,,
48481,set_tempo,1,1,0,,,,,,619835,,,,,,
48639,note_on,159,0,3,,,,,,,,2,,,51,0
48639,note_on,0,0,3,,,,,,,,2,,,60,0
48640,note_on,1,0,3,,,,,,,,2,,,63,51
48640,note_on,0,0,3,,,,,,,,2,,,56,51
48799,note_on,0,0,3,,,,,,,,2,,,63,0
48799,note_on,159,0,3,,,,,,,,2,,,56,0
48800,note_on,1,0,3,,,,,,,,2,,,60,51
48800,note_on,0,0,3,,,,,,,,2,,,51,51
48959,note_on,479,0,4,,,,,,,,3,,,44,0
48959,note_on,159,0,3,,,,,,,,2,,,51,0
48959,note_on,0,0,3,,,,,,,,2,,,60,0
48960,note_on,1,0,4,,,,,,,,3,,,32,51
48960,note_on,0,0,4,,,,,,,,3,,,39,51
48960,note_on,1,0,3,,,,,,,,2,,,56,51
48960,note_on,0,0,3,,,,,,,,2,,,48,51
49119,note_on,0,0,3,,,,,,,,2,,,56,0
49119,note_on,159,0,3,,,,,,,,2,,,48,0
49120,note_on,0,0,3,,,,,,,,2,,,44,51
49120,note_on,1,0,3,,,,,,,,2,,,51,51
49279,note_on,159,0,3,,,,,,,,2,,,44,0
49279,note_on,0,0,3,,,,,,,,2,,,51,0
49280,note_on,1,0,3,,,,,,,,2,,,56,51
49280,note_on,0,0,3,,,,,,,,2,,,48,51
49439,note_on,159,0,3,,,,,,,,2,,,48,0
49439,note_on,0,0,3,,,,,,,,2,,,56,0
49439,note_on,479,0,4,,,,,,,,3,,,39,0
49439,note_on,0,0,4,,,,,,,,3,,,32,0
49440,note_on,0,0,4,,,,,,,,3,,,44,51
49440,control_change,1,0,4,,,,,,,,3,64,0,,
49440,note_on,0,0,3,,,,,,,,2,,,60,51
49440,note_on,0,0,3,,,,,,,,2,,,51,51
49440,control_change,1,0,3,,,,,,,,2,64,0,,
49599,note_on,0,0,3,,,,,,,,2,,,60,0
49599,note_on,159,0,3,,,,,,,,2,,,51,0
49600,note_on,0,0,3,,,,,,,,2,,,56,51
49600,note_on,1,0,3,,,,,,,,2,,,63,51
49759,note_on,159,0,3,,,,,,,,2,,,56,0
49759,note_on,0,0,3,,,,,,,,2,,,63,0
49760,note_on,1,0,3,,,,,,,,2,,,60,51
49760,note_on,0,0,3,,,,,,,,2,,,51,51
49919,note_on,479,0,4,,,,,,,,3,,,44,0
49919,note_on,0,0,3,,,,,,,,2,,,60,0
49919,note_on,159,0,3,,,,,,,,2,,,51,0
49920,note_on,1,0,4,,,,,,,,3,,,32,51
49920,note_on,0,0,3,,,,,,,,2,,,48,51
49920,note_on,1,0,3,,,,,,,,2,,,56,51
49920,note_on,0,0,4,,,,,,,,3,,,39,51
50079,note_on,0,0,3,,,,,,,,2,,,56,0
50079,note_on,159,0,3,,,,,,,,2,,,48,0
50080,note_on,0,0,3,,,,,,,,2,,,44,51
50080,note_on,1,0,3,,,,,,,,2,,,51,51
50136,note_on,216,0,4,,,,,,,,3,,,39,0
50136,note_on,0,0,4,,,,,,,,3,,,32,0
50224,note_on,144,0,3,,,,,,,,2,,,44,0
50224,note_on,0,0,3,,,,,,,,2,,,51,0
50280,note_on,3280,0,1,,,,,,,,0,,,68,83
50280,note_on,7932,0,2,,,,,,,,1,,,56,51
50388,note_on,108,0,1,,,,,,,,0,,,68,0
50388,note_on,108,0,2,,,,,,,,1,,,56,0
50400,control_change,264,0,4,,,,,,,,3,64,127,,
50400,note_on,0,0,2,,,,,,,,1,,,60,51
50400,control_change,12,0,2,,,,,,,,1,64,127,,
50400,note_on,0,0,4,,,,,,,,3,,,44,51
50400,note_on,0,0,1,,,,,,,,0,,,68,92
50400,control_change,176,0,3,,,,,,,,2,64,127,,
50400,note_on,0,0,3,,,,,,,,2,,,51,51
50400,control_change,12,0,1,,,,,,,,0,64,127,,
50559,note_on,159,0,2,,,,,,,,1,,,60,0
50559,note_on,159,0,3,,,,,,,,2,,,51,0
50560,note_on,1,0,2,,,,,,,,1,,,63,51
50560,note_on,1,0,3,,,,,,,,2,,,56,51
50719,note_on,159,0,2,,,,,,,,1,,,63,0
50719,note_on,159,0,3,,,,,,,,2,,,56,0
50720,note_on,1,0,3,,,,,,,,2,,,51,51
50720,note_on,1,0,2,,,,,,,,1,,,60,51
50879,note_on,159,0,2,,,,,,,,1,,,60,0
50879,note_on,479,0,4,,,,,,,,3,,,44,0
50879,note_on,479,0,1,,,,,,,,0,,,68,0
50879,note_on,159,0,3,,,,,,,,2,,,51,0
50880,note_on,1,0,1,,,,,,,,0,,,63,99
50880,note_on,1,0,2,,,,,,,,1,,,56,51
50880,note_on,1,0,4,,,,,,,,3,,,32,51
50880,note_on,1,0,3,,,,,,,,2,,,48,51
51039,note_on,159,0,3,,,,,,,,2,,,48,0
51039,note_on,159,0,2,,,,,,,,1,,,56,0
51040,note_on,1,0,2,,,,,,,,1,,,51,51
51040,note_on,1,0,3,,,,,,,,2,,,44,51
51199,note_on,159,0,2,,,,,,,,1,,,51,0
51199,note_on,159,0,3,,,,,,,,2,,,44,0
51200,note_on,1,0,3,,,,,,,,2,,,48,51
51200,note_on,1,0,2,,,,,,,,1,,,56,51
51359,note_on,479,0,1,,,,,,,,0,,,63,0
51359,note_on,159,0,2,,,,,,,,1,,,56,0
51359,note_on,479,0,4,,,,,,,,3,,,32,0
51359,note_on,159,0,3,,,,,,,,2,,,48,0
51360,note_on,1,0,1,,,,,,,,0,,,72,92
51360,note_on,0,0,3,,,,,,,,2,,,51,51
51360,control_change,1,0,4,,,,,,,,3,64,0,,
51360,note_on,0,0,4,,,,,,,,3,,,44,51
51360,note_on,0,0,2,,,,,,,,1,,,60,51
51360,control_change,1,0,2,,,,,,,,1,64,0,,
51360,control_change,1,0,3,,,,,,,,2,64,0,,
51519,note_on,159,0,2,,,,,,,,1,,,60,0
51519,note_on,159,0,3,,,,,,,,2,,,51,0
51520,note_on,1,0,3,,,,,,,,2,,,56,51
51520,note_on,1,0,2,,,,,,,,1,,,63,51
51679,note_on,159,0,2,,,,,,,,1,,,63,0
51679,note_on,159,0,3,,,,,,,,2,,,56,0
51680,note_on,1,0,2,,,,,,,,1,,,60,51
51680,note_on,1,0,3,,,,,,,,2,,,51,51
51839,note_on,159,0,2,,,,,,,,1,,,60,0
51839,note_on,479,0,4,,,,,,,,3,,,44,0
51839,note_on,159,0,3,,,,,,,,2,,,51,0
51840,note_on,1,0,4,,,,,,,,3,,,32,51
51840,note_on,1,0,3,,,,,,,,2,,,48,51
51840,note_on,1,0,2,,,,,,,,1,,,56,51
51999,note_on,159,0,3,,,,,,,,2,,,48,0
51999,note_on,159,0,2,,,,,,,,1,,,56,0
52000,note_on,1,0,3,,,,,,,,2,,,44,51
52000,note_on,1,0,2,,,,,,,,1,,,51,51
52056,note_on,216,0,4,,,,,,,,3,,,32,0
52079,note_on,719,0,1,,,,,,,,0,,,72,0
52080,note_on,1,0,1,,,,,,,,0,,,68,92
52133,control_change,53,0,1,,,,,,,,0,64,0,,
52159,note_on,159,0,3,,,,,,,,2,,,44,0
52159,note_on,159,0,2,,,,,,,,1,,,51,0
52160,note_on,1,0,3,,,,,,,,2,,,48,51
52160,note_on,1,0,2,,,,,,,,1,,,56,51
52296,note_on,163,0,1,,,,,,,,0,,,68,0
52304,note_on,144,0,3,,,,,,,,2,,,48,0
52304,note_on,144,0,2,,,,,,,,1,,,56,0
52320,control_change,16,0,3,,,,,,,,2,64,127,,
52320,note_on,0,0,3,,,,,,,,2,,,50,51
52320,note_on,0,0,2,,,,,,,,1,,,58,51
52320,control_change,16,0,2,,,,,,,,1,64,127,,
52320,control_change,264,0,4,,,,,,,,3,64,127,,
52320,note_on,0,0,4,,,,,,,,3,,,44,51
52320,note_on,0,0,1,,,,,,,,0,,,65,92
52320,control_change,24,0,1,,,,,,,,0,64,127,,
52479,note_on,159,0,3,,,,,,,,2,,,50,0
52479,note_on,159,0,2,,,,,,,,1,,,58,0
52480,note_on,1,0,3,,,,,,,,2,,,53,51
52480,note_on,1,0,2,,,,,,,,1,,,62,51
52639,note_on,159,0,3,,,,,,,,2,,,53,0
52639,note_on,159,0,2,,,,,,,,1,,,62,0
52640,note_on,1,0,3,,,,,,,,2,,,50,51
52640,note_on,1,0,2,,,,,,,,1,,,58,51
52799,note_on,479,0,4,,,,,,,,3,,,44,0
52799,note_on,159,0,2,,,,,,,,1,,,58,0
52799,note_on,159,0,3,,,,,,,,2,,,50,0
52800,note_on,1,0,4,,,,,,,,3,,,32,51
52800,note_on,1,0,2,,,,,,,,1,,,56,51
52800,note_on,1,0,3,,,,,,,,2,,,46,51
52959,note_on,159,0,2,,,,,,,,1,,,56,0
52959,note_on,159,0,3,,,,,,,,2,,,46,0
52960,note_on,1,0,3,,,,,,,,2,,,44,51
52960,note_on,1,0,2,,,,,,,,1,,,53,51
53039,note_on,719,0,1,,,,,,,,0,,,65,0
53040,note_on,1,0,1,,,,,,,,0,,,70,92
53119,note_on,159,0,2,,,,,,,,1,,,53,0
53119,note_on,159,0,3,,,,,,,,2,,,44,0
53120,note_on,1,0,2,,,,,,,,1,,,56,51
53120,note_on,1,0,3,,,,,,,,2,,,46,51
53279,note_on,159,0,3,,,,,,,,2,,,46,0
53279,note_on,159,0,2,,,,,,,,1,,,56,0
53279,note_on,479,0,4,,,,,,,,3,,,32,0
53279,note_on,239,0,1,,,,,,,,0,,,70,0
53280,control_change,1,0,2,,,,,,,,1,64,0,,
53280,note_on,0,0,2,,,,,,,,1,,,61,51
53280,note_on,1,0,1,,,,,,,,0,,,70,92
53280,note_on,0,0,4,,,,,,,,3,,,44,51
53280,control_change,1,0,4,,,,,,,,3,64,0,,
53280,control_change,1,0,3,,,,,,,,2,64,0,,
53280,note_on,0,0,3,,,,,,,,2,,,51,51
53439,note_on,159,0,3,,,,,,,,2,,,51,0
53439,note_on,159,0,2,,,,,,,,1,,,61,0
53440,note_on,1,0,2,,,,,,,,1,,,63,51
53440,note_on,1,0,3,,,,,,,,2,,,55,51
53599,note_on,159,0,3,,,,,,,,2,,,55,0
53599,note_on,159,0,2,,,,,,,,1,,,63,0
53600,note_on,1,0,2,,,,,,,,1,,,61,51
53600,note_on,1,0,3,,,,,,,,2,,,51,51
53759,note_on,159,0,3,,,,,,,,2,,,51,0
53759,note_on,479,0,4,,,,,,,,3,,,44,0
53759,note_on,159,0,2,,,,,,,,1,,,61,0
53760,note_on,1,0,4,,,,,,,,3,,,32,51
53760,note_on,1,0,2,,,,,,,,1,,,58,51
53760,note_on,1,0,3,,,,,,,,2,,,46,51
53919,note_on,159,0,2,,,,,,,,1,,,58,0
53919,note_on,159,0,3,,,,,,,,2,,,46,0
53920,note_on,1,0,3,,,,,,,,2,,,44,51
53920,note_on,1,0,2,,,,,,,,1,,,53,51
53976,note_on,216,0,4,,,,,,,,3,,,32,0
53999,note_on,719,0,1,,,,,,,,0,,,70,0
54000,note_on,1,0,1,,,,,,,,0,,,63,91
54000,note_on,0,0,1,,,,,,,,0,,,61,91
54079,note_on,159,0,2,,,,,,,,1,,,53,0
54079,note_on,159,0,3,,,,,,,,2,,,44,0
54080,note_on,1,0,3,,,,,,,,2,,,46,51
54080,note_on,1,0,2,,,,,,,,1,,,58,51
54093,control_change,93,0,1,,,,,,,,0,64,0,,
54216,note_on,0,0,1,,,,,,,,0,,,63,0
54216,note_on,123,0,1,,,,,,,,0,,,61,0
54224,note_on,144,0,3,,,,,,,,2,,,46,0
54224,note_on,144,0,2,,,,,,,,1,,,58,0
54240,note_on,0,0,4,,,,,,,,3,,,44,51
54240,control_change,16,0,2,,,,,,,,1,64,127,,
54240,note_on,16,0,3,,,,,,,,2,,,51,45
54240,control_change,264,0,4,,,,,,,,3,64,127,,
54240,note_on,0,0,2,,,,,,,,1,,,60,42
54240,note_on,24,0,1,,,,,,,,0,,,72,92
54253,control_change,13,0,3,,,,,,,,2,64,127,,
54360,control_change,120,0,1,,,,,,,,0,64,127,,
54399,note_on,159,0,2,,,,,,,,1,,,60,0
54399,note_on,146,0,3,,,,,,,,2,,,51,0
54400,note_on,1,0,3,,,,,,,,2,,,56,47
54400,note_on,1,0,2,,,,,,,,1,,,63,44
54559,note_on,159,0,2,,,,,,,,1,,,63,0
54559,note_on,159,0,3,,,,,,,,2,,,56,0
54560,note_on,1,0,2,,,,,,,,1,,,60,46
54560,note_on,1,0,3,,,,,,,,2,,,51,49
54719,note_on,159,0,3,,,,,,,,2,,,51,0
54719,note_on,359,0,1,,,,,,,,0,,,72,0
54719,note_on,159,0,2,,,,,,,,1,,,60,0
54720,note_on,1,0,2,,,,,,,,1,,,61,48
54720,note_on,1,0,1,,,,,,,,0,,,73,93
54720,note_on,1,0,3,,,,,,,,2,,,58,52
54879,note_on,159,0,2,,,,,,,,1,,,61,0
54879,note_on,159,0,3,,,,,,,,2,,,58,0
54880,note_on,1,0,3,,,,,,,,2,,,51,54
54880,note_on,1,0,2,,,,,,,,1,,,63,50
55039,note_on,159,0,3,,,,,,,,2,,,51,0
55039,note_on,159,0,2,,,,,,,,1,,,63,0
55040,note_on,1,0,2,,,,,,,,1,,,61,52
55040,note_on,1,0,3,,,,,,,,2,,,58,56
55199,note_on,159,0,2,,,,,,,,1,,,61,0
55199,note_on,479,0,1,,,,,,,,0,,,73,0
55199,note_on,159,0,3,,,,,,,,2,,,58,0
55200,note_on,1,0,3,,,,,,,,2,,,60,59
55200,control_change,960,0,4,,,,,,,,3,64,0,,
55200,control_change,1,0,2,,,,,,,,1,64,0,,
55200,note_on,1,0,1,,,,,,,,0,,,75,95
55200,note_on,0,0,2,,,,,,,,1,,,63,54
55213,control_change,13,0,3,,,,,,,,2,64,0,,
55359,note_on,159,0,2,,,,,,,,1,,,63,0
55359,note_on,146,0,3,,,,,,,,2,,,60,0
55360,note_on,1,0,2,,,,,,,,1,,,68,56
55360,note_on,1,0,3,,,,,,,,2,,,51,61
55519,note_on,159,0,2,,,,,,,,1,,,68,0
55519,note_on,159,0,3,,,,,,,,2,,,51,0
55520,note_on,1,0,2,,,,,,,,1,,,63,58
55520,note_on,1,0,3,,,,,,,,2,,,60,63
55679,note_on,159,0,3,,,,,,,,2,,,60,0
55679,note_on,159,0,2,,,,,,,,1,,,63,0
55679,note_on,479,0,4,,,,,,,,3,,,44,0
55680,note_on,1,0,3,,,,,,,,2,,,56,65
55680,note_on,1,0,2,,,,,,,,1,,,60,61
55680,note_on,1,0,4,,,,,,,,3,,,48,51
55839,note_on,159,0,3,,,,,,,,2,,,56,0
55839,note_on,159,0,2,,,,,,,,1,,,60,0
55840,note_on,1,0,2,,,,,,,,1,,,63,63
55840,note_on,1,0,3,,,,,,,,2,,,51,68
55919,note_on,719,0,1,,,,,,,,0,,,75,0
55920,note_on,1,0,1,,,,,,,,0,,,72,97
55999,note_on,159,0,3,,,,,,,,2,,,51,0
55999,note_on,159,0,2,,,,,,,,1,,,63,0
56000,control_change,80,0,1,,,,,,,,0,64,0,,
56000,note_on,1,0,2,,,,,,,,1,,,60,65
56000,note_on,1,0,3,,,,,,,,2,,,56,65
56112,note_on,432,0,4,,,,,,,,3,,,48,0
56136,note_on,136,0,1,,,,,,,,0,,,72,0
56144,note_on,144,0,3,,,,,,,,2,,,56,0
56144,note_on,144,0,2,,,,,,,,1,,,60,0
56160,control_change,16,0,3,,,,,,,,2,64,127,,
56160,note_on,0,0,3,,,,,,,,2,,,55,63
56160,note_on,0,0,4,,,,,,,,3,,,39,51
56160,control_change,48,0,4,,,,,,,,3,64,127,,
56160,control_change,16,0,2,,,,,,,,1,64,127,,
56160,control_change,24,0,1,,,,,,,,0,64,127,,
56160,note_on,0,0,2,,,,,,,,1,,,58,62
56160,note_on,0,0,1,,,,,,,,0,,,70,98
56319,note_on,159,0,2,,,,,,,,1,,,58,0
56319,note_on,159,0,3,,,,,,,,2,,,55,0
56320,note_on,1,0,3,,,,,,,,2,,,51,62
56320,note_on,1,0,2,,,,,,,,1,,,63,61
56479,note_on,159,0,2,,,,,,,,1,,,63,0
56479,note_on,159,0,3,,,,,,,,2,,,51,0
56480,note_on,1,0,3,,,,,,,,2,,,46,60
56480,note_on,1,0,2,,,,,,,,1,,,58,59
56592,note_on,432,0,1,,,,,,,,0,,,70,0
56592,note_on,432,0,4,,,,,,,,3,,,39,0
56639,note_on,159,0,3,,,,,,,,2,,,46,0
56639,note_on,159,0,2,,,,,,,,1,,,58,0
56640,note_on,1,0,2,,,,,,,,1,,,63,57
56640,note_on,1,0,3,,,,,,,,2,,,51,58
56799,note_on,159,0,2,,,,,,,,1,,,63,0
56799,note_on,159,0,3,,,,,,,,2,,,51,0
56800,note_on,1,0,3,,,,,,,,2,,,55,57
56800,note_on,1,0,2,,,,,,,,1,,,70,55
56959,note_on,159,0,3,,,,,,,,2,,,55,0
56959,note_on,159,0,2,,,,,,,,1,,,70,0
56960,note_on,1,0,3,,,,,,,,2,,,58,56
56960,note_on,1,0,2,,,,,,,,1,,,70,53
57119,note_on,159,0,3,,,,,,,,2,,,58,0
57119,note_on,159,0,2,,,,,,,,1,,,70,0
57120,note_on,0,0,2,,,,,,,,1,,,75,51
57120,control_change,528,0,4,,,,,,,,3,64,0,,
57120,control_change,528,0,1,,,,,,,,0,64,0,,
57120,control_change,1,0,3,,,,,,,,2,64,0,,
57120,note_on,0,0,3,,,,,,,,2,,,63,54
57120,control_change,1,0,2,,,,,,,,1,64,0,,
57160,control_change,40,0,2,,,,,,,,1,64,127,,
57187,control_change,67,0,3,,,,,,,,2,64,127,,
57279,note_on,92,0,3,,,,,,,,2,,,63,0
57279,note_on,119,0,2,,,,,,,,1,,,75,0
57280,note_on,1,0,3,,,,,,,,2,,,67,52
57280,note_on,1,0,2,,,,,,,,1,,,82,49
57439,note_on,159,0,2,,,,,,,,1,,,82,0
57439,note_on,159,0,3,,,,,,,,2,,,67,0
57440,note_on,1,0,2,,,,,,,,1,,,82,48
57440,note_on,1,0,3,,,,,,,,2,,,70,51
57599,note_on,159,0,3,,,,,,,,2,,,70,0
57599,note_on,159,0,2,,,,,,,,1,,,82,0
57600,note_on,1,0,2,,,,,,,,1,,,75,45
57600,note_on,1,0,3,,,,,,,,2,,,75,49
57839,note_on,239,0,3,,,,,,,,2,,,75,0
57839,note_on,239,0,2,,,,,,,,1,,,75,0
57840,note_on,1,0,3,,,,,,,,2,,,79,47
57840,note_on,1,0,2,,,,,,,,1,,,82,42
57912,note_on,72,0,2,,,,,,,,1,,,82,0
57912,note_on,72,0,3,,,,,,,,2,,,79,0
58080,set_tempo,9599,1,0,,,,,,461538,,,,,,
58120,control_change,208,0,2,,,,,,,,1,64,0,,
58147,control_change,235,0,3,,,,,,,,2,64,0,,
59760,note_on,1640,0,2,,,,,,,,1,,,54,51
59760,note_on,0,0,1,,,,,,,,0,,,70,82
59760,note_on,2640,0,1,,,,,,,,0,,,82,82
59760,note_on,0,0,2,,,,,,,,1,,,39,51
59760,note_on,0,0,1,,,,,,,,0,,,75,82
59967,set_tempo,1887,1,0,,,,,,626043,,,,,,
59976,note_on,216,0,1,,,,,,,,0,,,70,0
59976,note_on,0,0,1,,,,,,,,0,,,75,0
59976,note_on,216,0,2,,,,,,,,1,,,39,0
59976,note_on,0,0,2,,,,,,,,1,,,54,0
59976,note_on,0,0,1,,,,,,,,0,,,82,0
60000,note_on,24,0,1,,,,,,,,0,,,70,97
60000,control_change,1853,0,3,,,,,,,,2,64,127,,
60000,note_on,0,0,2,,,,,,,,1,,,58,52
60000,control_change,24,0,2,,,,,,,,1,64,127,,
60000,note_on,0,0,3,,,,,,,,2,,,49,51
60017,set_tempo,50,1,0,,,,,,629195,,,,,,
60040,control_change,40,0,1,,,,,,,,0,64,127,,
60050,set_tempo,33,1,0,,,,,,632378,,,,,,
60159,note_on,159,0,2,,,,,,,,1,,,58,0
60159,note_on,159,0,3,,,,,,,,2,,,49,0
60160,note_on,1,0,3,,,,,,,,2,,,53,53
60160,note_on,1,0,2,,,,,,,,1,,,61,51
60319,note_on,159,0,2,,,,,,,,1,,,61,0
60319,note_on,159,0,3,,,,,,,,2,,,53,0
60320,note_on,1,0,2,,,,,,,,1,,,58,50
60320,note_on,1,0,3,,,,,,,,2,,,49,52
60479,note_on,439,0,1,,,,,,,,0,,,70,0
60479,note_on,159,0,3,,,,,,,,2,,,49,0
60479,note_on,159,0,2,,,,,,,,1,,,58,0
60480,note_on,1,0,3,,,,,,,,2,,,51,51
60480,note_on,1,0,1,,,,,,,,0,,,72,93
60480,note_on,1,0,2,,,,,,,,1,,,60,49
60639,note_on,159,0,2,,,,,,,,1,,,60,0
60639,note_on,159,0,3,,,,,,,,2,,,51,0
60640,note_on,1,0,2,,,,,,,,1,,,63,48
60640,note_on,1,0,3,,,,,,,,2,,,53,50
60799,note_on,159,0,2,,,,,,,,1,,,63,0
60799,note_on,159,0,3,,,,,,,,2,,,53,0
60800,note_on,1,0,2,,,,,,,,1,,,60,48
60800,note_on,1,0,3,,,,,,,,2,,,51,49
60959,note_on,159,0,3,,,,,,,,2,,,51,0
60959,note_on,479,0,1,,,,,,,,0,,,72,0
60959,note_on,159,0,2,,,,,,,,1,,,60,0
60960,note_on,0,0,2,,,,,,,,1,,,61,47
60960,control_change,1,0,3,,,,,,,,2,64,0,,
60960,note_on,0,0,3,,,,,,,,2,,,53,48
60960,note_on,1,0,1,,,,,,,,0,,,73,93
60960,control_change,1,0,2,,,,,,,,1,64,0,,
61000,control_change,40,0,1,,,,,,,,0,64,0,,
61119,note_on,159,0,2,,,,,,,,1,,,61,0
61119,note_on,159,0,3,,,,,,,,2,,,53,0
61120,note_on,1,0,2,,,,,,,,1,,,65,46
61120,note_on,1,0,3,,,,,,,,2,,,58,48
61279,note_on,159,0,2,,,,,,,,1,,,65,0
61279,note_on,159,0,3,,,,,,,,2,,,58,0
61280,note_on,1,0,2,,,,,,,,1,,,61,45
61280,note_on,1,0,3,,,,,,,,2,,,53,47
61439,note_on,159,0,2,,,,,,,,1,,,61,0
61439,note_on,159,0,3,,,,,,,,2,,,53,0
61440,note_on,4320,0,4,,,,,,,,3,,,34,51
61440,note_on,1,0,2,,,,,,,,1,,,58,44
61440,note_on,1,0,3,,,,,,,,2,,,49,46
61599,note_on,159,0,2,,,,,,,,1,,,58,0
61599,note_on,159,0,3,,,,,,,,2,,,49,0
61600,note_on,1,0,3,,,,,,,,2,,,53,45
61600,note_on,1,0,2,,,,,,,,1,,,61,43
61679,note_on,679,0,1,,,,,,,,0,,,73,0
61680,note_on,1,0,1,,,,,,,,0,,,70,93
61759,note_on,159,0,3,,,,,,,,2,,,53,0
61759,note_on,159,0,2,,,,,,,,1,,,61,0
61760,note_on,1,0,3,,,,,,,,2,,,49,44
61760,note_on,1,0,2,,,,,,,,1,,,58,42
61872,note_on,432,0,4,,,,,,,,3,,,34,0
61896,note_on,216,0,1,,,,,,,,0,,,70,0
61904,note_on,144,0,3,,,,,,,,2,,,49,0
61904,note_on,144,0,2,,,,,,,,1,,,58,0
61920,note_on,48,0,4,,,,,,,,3,,,41,51
61920,control_change,16,0,2,,,,,,,,1,64,127,,
61920,note_on,0,0,2,,,,,,,,1,,,57,41
61920,note_on,16,0,3,,,,,,,,2,,,48,43
61920,note_on,0,0,1,,,,,,,,0,,,69,93
61920,control_change,24,0,1,,,,,,,,0,64,127,,
62079,note_on,159,0,2,,,,,,,,1,,,57,0
62079,note_on,159,0,3,,,,,,,,2,,,48,0
62080,note_on,1,0,3,,,,,,,,2,,,53,43
62080,note_on,1,0,2,,,,,,,,1,,,60,41
62239,note_on,159,0,3,,,,,,,,2,,,53,0
62239,note_on,159,0,2,,,,,,,,1,,,60,0
62240,note_on,1,0,3,,,,,,,,2,,,48,42
62240,note_on,1,0,2,,,,,,,,1,,,57,40
62352,note_on,432,0,4,,,,,,,,3,,,41,0
62352,note_on,432,0,1,,,,,,,,0,,,69,0
62399,note_on,159,0,2,,,,,,,,1,,,57,0
62399,note_on,159,0,3,,,,,,,,2,,,48,0
62400,note_on,1,0,3,,,,,,,,2,,,53,41
62400,note_on,1,0,2,,,,,,,,1,,,60,39
62559,note_on,159,0,2,,,,,,,,1,,,60,0
62559,note_on,159,0,3,,,,,,,,2,,,53,0
62560,note_on,1,0,3,,,,,,,,2,,,57,40
62560,note_on,1,0,2,,,,,,,,1,,,69,38
62719,note_on,159,0,3,,,,,,,,2,,,57,0
62719,note_on,159,0,2,,,,,,,,1,,,69,0
62720,note_on,1,0,3,,,,,,,,2,,,60,39
62720,note_on,1,0,2,,,,,,,,1,,,69,37
62879,note_on,159,0,3,,,,,,,,2,,,60,0
62879,note_on,159,0,2,,,,,,,,1,,,69,0
62880,note_on,1,0,3,,,,,,,,2,,,65,38
62880,control_change,528,0,1,,,,,,,,0,64,0,,
62880,note_on,0,0,2,,,,,,,,1,,,72,36
62880,control_change,1,0,2,,,,,,,,1,64,0,,
63039,note_on,159,0,3,,,,,,,,2,,,65,0
63039,note_on,159,0,2,,,,,,,,1,,,72,0
63040,note_on,1,0,3,,,,,,,,2,,,69,38
63040,note_on,1,0,2,,,,,,,,1,,,81,35
63199,note_on,159,0,3,,,,,,,,2,,,69,0
63199,note_on,159,0,2,,,,,,,,1,,,81,0
63200,note_on,1,0,2,,,,,,,,1,,,81,35
63200,note_on,1,0,3,,,,,,,,2,,,72,37
63359,note_on,159,0,3,,,,,,,,2,,,72,0
63359,note_on,159,0,2,,,,,,,,1,,,81,0
63360,note_on,1,0,3,,,,,,,,2,,,77,36
63360,note_on,1,0,2,,,,,,,,1,,,84,34
63519,note_on,159,0,2,,,,,,,,1,,,84,0
63519,note_on,159,0,3,,,,,,,,2,,,77,0
63520,note_on,1,0,2,,,,,,,,1,,,93,33
63520,note_on,1,0,3,,,,,,,,2,,,81,35
63592,note_on,72,0,3,,,,,,,,2,,,81,0
63592,note_on,72,0,2,,,,,,,,1,,,93,0
63840,set_tempo,3790,1,0,,,,,,461538,,,,,,
65520,note_on,2640,0,1,,,,,,,,0,,,80,93
65520,note_on,1928,0,3,,,,,,,,2,,,60,51
65520,note_on,0,0,3,,,,,,,,2,,,56,51
65520,note_on,0,0,1,,,,,,,,0,,,72,93
65520,note_on,0,0,1,,,,,,,,0,,,63,93
65736,note_on,0,0,3,,,,,,,,2,,,60,0
65736,note_on,216,0,3,,,,,,,,2,,,56,0
65736,note_on,0,0,1,,,,,,,,0,,,80,0
65736,note_on,0,0,1,,,,,,,,0,,,72,0
65736,note_on,216,0,1,,,,,,,,0,,,63,0
65744,set_tempo,1904,1,0,,,,,,607780,,,,,,
65760,control_change,24,0,1,,,,,,,,0,64,127,,
65760,note_on,24,0,3,,,,,,,,2,,,44,51
65760,note_on,0,0,1,,,,,,,,0,,,63,82
65800,note_on,40,0,1,,,,,,,,0,,,72,89
65800,note_on,40,0,3,,,,,,,,2,,,51,50
65813,control_change,13,0,3,,,,,,,,2,64,127,,
65840,note_on,27,0,3,,,,,,,,2,,,60,56
65840,note_on,40,0,1,,,,,,,,0,,,80,96
65843,set_tempo,99,1,0,,,,,,610749,,,,,,
65926,set_tempo,83,1,0,,,,,,613748,,,,,,
65959,note_on,119,0,3,,,,,,,,2,,,60,0
65959,note_on,0,0,3,,,,,,,,2,,,51,0
65959,note_on,0,0,3,,,,,,,,2,,,44,0
65960,note_on,0,0,3,,,,,,,,2,,,56,57
65960,note_on,1,0,3,,,,,,,,2,,,63,57
66119,note_on,0,0,3,,,,,,,,2,,,63,0
66119,note_on,159,0,3,,,,,,,,2,,,56,0
66120,note_on,1,0,3,,,,,,,,2,,,60,57
66120,note_on,0,0,3,,,,,,,,2,,,51,57
66239,note_on,0,0,1,,,,,,,,0,,,63,0
66239,note_on,399,0,1,,,,,,,,0,,,80,0
66239,note_on,0,0,1,,,,,,,,0,,,72,0
66240,note_on,1,0,1,,,,,,,,0,,,60,82
66279,note_on,159,0,3,,,,,,,,2,,,51,0
66279,note_on,0,0,3,,,,,,,,2,,,60,0
66280,note_on,0,0,3,,,,,,,,2,,,48,58
66280,note_on,40,0,1,,,,,,,,0,,,68,88
66280,note_on,1,0,3,,,,,,,,2,,,56,58
66320,note_on,40,0,1,,,,,,,,0,,,75,94
66439,note_on,0,0,3,,,,,,,,2,,,56,0
66439,note_on,159,0,3,,,,,,,,2,,,48,0
66440,note_on,1,0,3,,,,,,,,2,,,51,59
66440,note_on,0,0,3,,,,,,,,2,,,44,59
66599,note_on,159,0,3,,,,,,,,2,,,44,0
66599,note_on,0,0,3,,,,,,,,2,,,51,0
66600,note_on,1,0,3,,,,,,,,2,,,56,59
66600,note_on,0,0,3,,,,,,,,2,,,48,59
66719,note_on,0,0,1,,,,,,,,0,,,68,0
66719,note_on,0,0,1,,,,,,,,0,,,60,0
66719,note_on,399,0,1,,,,,,,,0,,,75,0
66720,note_on,0,0,1,,,,,,,,0,,,68,81
66720,control_change,1,0,1,,,,,,,,0,64,0,,
66759,note_on,159,0,3,,,,,,,,2,,,48,0
66759,note_on,0,0,3,,,,,,,,2,,,56,0
66760,control_change,0,0,1,,,,,,,,0,64,127,,
66760,note_on,40,0,1,,,,,,,,0,,,75,89
66760,note_on,1,0,3,,,,,,,,2,,,44,45
66773,control_change,13,0,3,,,,,,,,2,64,0,,
66800,note_on,27,0,3,,,,,,,,2,,,51,49
66800,note_on,40,0,1,,,,,,,,0,,,84,97
66840,note_on,40,0,3,,,,,,,,2,,,60,53
66959,note_on,0,0,3,,,,,,,,2,,,44,0
66959,note_on,0,0,3,,,,,,,,2,,,51,0
66959,note_on,119,0,3,,,,,,,,2,,,60,0
66960,note_on,1,0,3,,,,,,,,2,,,63,51
66960,note_on,0,0,3,,,,,,,,2,,,56,51
67119,note_on,159,0,3,,,,,,,,2,,,56,0
67119,note_on,0,0,3,,,,,,,,2,,,63,0
67120,note_on,0,0,3,,,,,,,,2,,,51,51
67120,note_on,1,0,3,,,,,,,,2,,,60,51
67279,note_on,159,0,3,,,,,,,,2,,,51,0
67279,note_on,0,0,3,,,,,,,,2,,,60,0
67280,note_on,1,0,3,,,,,,,,2,,,56,51
67280,note_on,0,0,3,,,,,,,,2,,,48,51
67439,note_on,159,0,3,,,,,,,,2,,,48,0
67439,note_on,0,0,3,,,,,,,,2,,,56,0
67439,note_on,0,0,1,,,,,,,,0,,,75,0
67439,note_on,639,0,1,,,,,,,,0,,,84,0
67439,note_on,0,0,1,,,,,,,,0,,,68,0
67440,note_on,1,0,1,,,,,,,,0,,,63,83
67440,note_on,1,0,3,,,,,,,,2,,,51,51
67440,note_on,0,0,3,,,,,,,,2,,,44,51
67480,note_on,40,0,1,,,,,,,,0,,,72,88
67520,note_on,40,0,1,,,,,,,,0,,,80,92
67599,note_on,159,0,3,,,,,,,,2,,,44,0
67599,note_on,0,0,3,,,,,,,,2,,,51,0
67600,note_on,0,0,3,,,,,,,,2,,,48,51
67600,note_on,1,0,3,,,,,,,,2,,,56,51
67668,note_on,148,0,1,,,,,,,,0,,,80,0
67668,note_on,0,0,1,,,,,,,,0,,,72,0
67668,note_on,0,0,1,,,,,,,,0,,,63,0
67680,note_on,12,0,1,,,,,,,,0,,,70,89
67680,control_change,0,0,1,,,,,,,,0,64,127,,
67680,note_on,0,0,3,,,,,,,,2,,,44,48
67680,control_change,80,0,3,,,,,,,,2,64,127,,
67719,note_on,39,0,3,,,,,,,,2,,,44,0
67720,note_on,0,0,1,,,,,,,,0,,,77,96
67720,note_on,1,0,3,,,,,,,,2,,,53,51
67720,control_change,40,0,1,,,,,,,,0,64,0,,
67744,note_on,0,0,3,,,,,,,,2,,,56,0
67744,note_on,24,0,3,,,,,,,,2,,,48,0
67759,note_on,15,0,3,,,,,,,,2,,,53,0
67760,note_on,1,0,3,,,,,,,,2,,,62,54
67799,note_on,39,0,3,,,,,,,,2,,,62,0
67800,note_on,1,0,3,,,,,,,,2,,,62,56
67800,note_on,0,0,3,,,,,,,,2,,,44,56
67800,note_on,0,0,3,,,,,,,,2,,,53,56
67879,note_on,79,0,3,,,,,,,,2,,,44,0
67879,note_on,0,0,3,,,,,,,,2,,,53,0
67879,note_on,0,0,3,,,,,,,,2,,,62,0
67880,note_on,1,0,3,,,,,,,,2,,,65,62
67880,note_on,0,0,3,,,,,,,,2,,,56,62
68039,note_on,0,0,3,,,,,,,,2,,,65,0
68039,note_on,159,0,3,,,,,,,,2,,,56,0
68040,note_on,0,0,3,,,,,,,,2,,,53,51
68040,note_on,1,0,3,,,,,,,,2,,,62,51
68199,note_on,0,0,3,,,,,,,,2,,,62,0
68199,note_on,159,0,3,,,,,,,,2,,,53,0
68200,note_on,1,0,3,,,,,,,,2,,,58,51
68200,note_on,0,0,3,,,,,,,,2,,,50,51
68359,note_on,159,0,3,,,,,,,,2,,,50,0
68359,note_on,0,0,3,,,,,,,,2,,,58,0
68360,note_on,1,0,3,,,,,,,,2,,,53,51
68360,note_on,0,0,3,,,,,,,,2,,,46,51
68399,note_on,0,0,1,,,,,,,,0,,,70,0
68399,note_on,679,0,1,,,,,,,,0,,,77,0
68400,note_on,1,0,1,,,,,,,,0,,,68,84
68440,note_on,40,0,1,,,,,,,,0,,,70,89
68480,note_on,40,0,1,,,,,,,,0,,,82,94
68519,note_on,159,0,3,,,,,,,,2,,,46,0
68519,note_on,0,0,3,,,,,,,,2,,,53,0
68520,note_on,1,0,3,,,,,,,,2,,,58,51
68520,note_on,0,0,3,,,,,,,,2,,,50,51
68639,note_on,159,0,1,,,,,,,,0,,,82,0
68639,note_on,0,0,1,,,,,,,,0,,,70,0
68639,note_on,0,0,1,,,,,,,,0,,,68,0
68640,control_change,1,0,1,,,,,,,,0,64,0,,
68640,note_on,0,0,1,,,,,,,,0,,,67,86
68640,control_change,120,0,3,,,,,,,,2,64,0,,
68672,control_change,32,0,1,,,,,,,,0,64,127,,
68679,note_on,39,0,3,,,,,,,,2,,,50,0
68679,note_on,0,0,3,,,,,,,,2,,,58,0
68680,note_on,1,0,3,,,,,,,,2,,,44,53
68680,note_on,8,0,1,,,,,,,,0,,,73,92
68719,note_on,39,0,3,,,,,,,,2,,,44,0
68720,note_on,1,0,3,,,,,,,,2,,,51,56
68720,note_on,40,0,1,,,,,,,,0,,,82,97
68759,note_on,39,0,3,,,,,,,,2,,,51,0
68760,note_on,1,0,3,,,,,,,,2,,,61,58
68799,note_on,39,0,3,,,,,,,,2,,,61,0
68800,note_on,0,0,3,,,,,,,,2,,,51,52
68800,note_on,1,0,3,,,,,,,,2,,,61,52
68800,note_on,0,0,3,,,,,,,,2,,,44,52
68879,note_on,79,0,3,,,,,,,,2,,,44,0
68879,note_on,0,0,3,,,,,,,,2,,,61,0
68879,note_on,0,0,3,,,,,,,,2,,,51,0
68880,note_on,1,0,3,,,,,,,,2,,,63,51
68880,note_on,0,0,3,,,,,,,,2,,,55,51
69039,note_on,159,0,3,,,,,,,,2,,,55,0
69039,note_on,0,0,3,,,,,,,,2,,,63,0
69040,note_on,0,0,3,,,,,,,,2,,,51,53
69040,note_on,1,0,3,,,,,,,,2,,,60,53
69199,note_on,159,0,3,,,,,,,,2,,,51,0
69199,note_on,0,0,3,,,,,,,,2,,,60,0
69200,note_on,1,0,3,,,,,,,,2,,,58,53
69200,note_on,0,0,3,,,,,,,,2,,,49,53
69359,note_on,0,0,1,,,,,,,,0,,,67,0
69359,note_on,159,0,3,,,,,,,,2,,,49,0
69359,note_on,0,0,3,,,,,,,,2,,,58,0
69359,note_on,639,0,1,,,,,,,,0,,,82,0
69359,note_on,0,0,1,,,,,,,,0,,,73,0
69360,note_on,1,0,3,,,,,,,,2,,,51,54
69360,note_on,0,0,3,,,,,,,,2,,,44,54
69360,note_on,1,0,1,,,,,,,,0,,,67,80
69400,note_on,40,0,1,,,,,,,,0,,,73,85
69440,note_on,40,0,1,,,,,,,,0,,,75,90
69519,note_on,159,0,3,,,,,,,,2,,,44,0
69519,note_on,0,0,3,,,,,,,,2,,,51,0
69520,note_on,0,0,3,,,,,,,,2,,,51,54
69520,note_on,1,0,3,,,,,,,,2,,,58,54
69588,note_on,0,0,1,,,,,,,,0,,,73,0
69588,note_on,0,0,1,,,,,,,,0,,,67,0
69588,note_on,148,0,1,,,,,,,,0,,,75,0
69600,note_on,0,0,3,,,,,,,,2,,,60,55
69600,note_on,0,0,3,,,,,,,,2,,,51,55
69600,control_change,80,0,3,,,,,,,,2,64,127,,
69600,note_on,12,0,1,,,,,,,,0,,,68,82
69600,control_change,0,0,1,,,,,,,,0,64,127,,
69632,control_change,32,0,1,,,,,,,,0,64,0,,
69639,note_on,7,0,1,,,,,,,,0,,,68,0
69640,note_on,1,0,1,,,,,,,,0,,,75,85
69664,note_on,64,0,3,,,,,,,,2,,,51,0
69664,note_on,0,0,3,,,,,,,,2,,,58,0
69680,note_on,40,0,1,,,,,,,,0,,,84,88
69720,note_on,40,0,1,,,,,,,,0,,,63,91
69747,control_change,7395,0,4,,,,,,,,3,64,127,,
69759,note_on,0,0,3,,,,,,,,2,,,51,0
69759,note_on,95,0,3,,,,,,,,2,,,60,0
69760,note_on,1,0,3,,,,,,,,2,,,63,55
69919,note_on,159,0,3,,,,,,,,2,,,63,0
69920,note_on,1,0,3,,,,,,,,2,,,51,56
70079,note_on,159,0,3,,,,,,,,2,,,51,0
70079,note_on,0,0,1,,,,,,,,0,,,75,0
70079,note_on,0,0,1,,,,,,,,0,,,84,0
70079,note_on,359,0,1,,,,,,,,0,,,63,0
70080,note_on,1,0,1,,,,,,,,0,,,70,87
70080,note_on,1,0,3,,,,,,,,2,,,61,56
70080,note_on,333,0,4,,,,,,,,3,,,44,60
70080,note_on,0,0,4,,,,,,,,3,,,58,60
70120,note_on,40,0,1,,,,,,,,0,,,75,91
70160,note_on,40,0,1,,,,,,,,0,,,85,95
70239,note_on,159,0,3,,,,,,,,2,,,61,0
70240,note_on,1,0,3,,,,,,,,2,,,63,57
70399,note_on,159,0,3,,,,,,,,2,,,63,0
70400,note_on,1,0,3,,,,,,,,2,,,51,58
70559,note_on,479,0,4,,,,,,,,3,,,58,0
70559,note_on,0,0,1,,,,,,,,0,,,75,0
70559,note_on,0,0,1,,,,,,,,0,,,70,0
70559,note_on,399,0,1,,,,,,,,0,,,85,0
70559,note_on,159,0,3,,,,,,,,2,,,51,0
70560,note_on,0,0,1,,,,,,,,0,,,72,87
70560,control_change,1,0,3,,,,,,,,2,64,0,,
70560,note_on,0,0,3,,,,,,,,2,,,60,58
70560,note_on,1,0,4,,,,,,,,3,,,60,64
70560,control_change,1,0,1,,,,,,,,0,64,0,,
70600,note_on,40,0,1,,,,,,,,0,,,75,92
70600,control_change,0,0,1,,,,,,,,0,64,127,,
70640,note_on,40,0,1,,,,,,,,0,,,87,97
70707,control_change,147,0,4,,,,,,,,3,64,0,,
70719,note_on,159,0,3,,,,,,,,2,,,60,0
70720,note_on,1,0,3,,,,,,,,2,,,63,59
70879,note_on,159,0,3,,,,,,,,2,,,63,0
70880,note_on,1,0,3,,,,,,,,2,,,51,59
71039,note_on,332,0,4,,,,,,,,3,,,60,0
71039,note_on,0,0,4,,,,,,,,3,,,44,0
71039,note_on,159,0,3,,,,,,,,2,,,51,0
71040,note_on,1,0,3,,,,,,,,2,,,44,60
71040,note_on,1,0,4,,,,,,,,3,,,44,69
71199,note_on,159,0,3,,,,,,,,2,,,44,0
71200,note_on,1,0,3,,,,,,,,2,,,60,60
71279,note_on,0,0,1,,,,,,,,0,,,72,0
71279,note_on,639,0,1,,,,,,,,0,,,87,0
71279,note_on,0,0,1,,,,,,,,0,,,75,0
71280,note_on,1,0,1,,,,,,,,0,,,68,80
71320,note_on,40,0,1,,,,,,,,0,,,75,86
71359,note_on,159,0,3,,,,,,,,2,,,60,0
71360,note_on,1,0,3,,,,,,,,2,,,51,61
71360,note_on,40,0,1,,,,,,,,0,,,84,92
71472,note_on,432,0,4,,,,,,,,3,,,44,0
71504,note_on,144,0,3,,,,,,,,2,,,51,0
71508,note_on,0,0,1,,,,,,,,0,,,75,0
71508,note_on,0,0,1,,,,,,,,0,,,68,0
71508,note_on,148,0,1,,,,,,,,0,,,84,0
71520,note_on,12,0,1,,,,,,,,0,,,67,86
71520,note_on,0,0,3,,,,,,,,2,,,58,61
71520,control_change,16,0,3,,,,,,,,2,64,127,,
71520,note_on,0,0,4,,,,,,,,3,,,39,73
71520,control_change,48,0,4,,,,,,,,3,64,127,,
71560,control_change,40,0,1,,,,,,,,0,64,0,,
71560,note_on,0,0,1,,,,,,,,0,,,75,90
71573,control_change,13,0,1,,,,,,,,0,64,127,,
71600,note_on,27,0,1,,,,,,,,0,,,82,94
71679,note_on,159,0,3,,,,,,,,2,,,58,0
71680,note_on,1,0,3,,,,,,,,2,,,51,62
71839,note_on,159,0,3,,,,,,,,2,,,51,0
71840,note_on,1,0,3,,,,,,,,2,,,46,60
71952,note_on,432,0,4,,,,,,,,3,,,39,0
71999,note_on,159,0,3,,,,,,,,2,,,46,0
72000,note_on,1,0,3,,,,,,,,2,,,51,59
72159,note_on,159,0,3,,,,,,,,2,,,51,0
72160,note_on,1,0,3,,,,,,,,2,,,58,57
72319,note_on,159,0,3,,,,,,,,2,,,58,0
72320,note_on,1,0,3,,,,,,,,2,,,63,56
72432,note_on,0,0,1,,,,,,,,0,,,75,0
72432,note_on,0,0,1,,,,,,,,0,,,67,0
72432,note_on,832,0,1,,,,,,,,0,,,82,0
72479,note_on,159,0,3,,,,,,,,2,,,63,0
72480,note_on,0,0,3,,,,,,,,2,,,70,54
72480,control_change,1,0,3,,,,,,,,2,64,0,,
72480,control_change,528,0,4,,,,,,,,3,64,0,,
72533,control_change,101,0,1,,,,,,,,0,64,0,,
72639,note_on,159,0,3,,,,,,,,2,,,70,0
72640,note_on,1,0,3,,,,,,,,2,,,75,52
72799,note_on,159,0,3,,,,,,,,2,,,75,0
72800,note_on,1,0,3,,,,,,,,2,,,82,51
72959,note_on,159,0,3,,,,,,,,2,,,82,0
72960,note_on,1,0,3,,,,,,,,2,,,87,49
73119,note_on,159,0,3,,,,,,,,2,,,87,0
73120,note_on,1,0,3,,,,,,,,2,,,94,48
73264,note_on,144,0,3,,,,,,,,2,,,94,0
73920,set_tempo,7994,1,0,,,,,,461538,,,,,,
75120,note_on,2587,0,1,,,,,,,,0,,,66,78
75160,note_on,40,0,1,,,,,,,,0,,,73,84
75200,note_on,40,0,1,,,,,,,,0,,,82,90
75327,set_tempo,1407,1,0,,,,,,599042,,,,,,
75348,note_on,0,0,1,,,,,,,,0,,,66,0
75348,note_on,0,0,1,,,,,,,,0,,,73,0
75348,note_on,148,0,1,,,,,,,,0,,,82,0
75360,note_on,0,0,3,,,,,,,,2,,,58,64
75360,note_on,12,0,1,,,,,,,,0,,,66,82
75360,control_change,0,0,1,,,,,,,,0,64,127,,
75360,note_on,0,0,4,,,,,,,,3,,,49,82
75360,note_on,0,0,4,,,,,,,,3,,,42,82
75360,control_change,2880,0,4,,,,,,,,3,64,127,,
75360,control_change,2096,0,3,,,,,,,,2,64,127,,
75377,set_tempo,50,1,0,,,,,,601926,,,,,,
75400,note_on,40,0,1,,,,,,,,0,,,73,85
75410,set_tempo,33,1,0,,,,,,604839,,,,,,
75440,note_on,40,0,1,,,,,,,,0,,,82,88
75460,set_tempo,50,1,0,,,,,,607780,,,,,,
75493,set_tempo,33,1,0,,,,,,610749,,,,,,
75519,note_on,159,0,3,,,,,,,,2,,,58,0
75520,note_on,1,0,3,,,,,,,,2,,,61,64
75679,note_on,159,0,3,,,,,,,,2,,,61,0
75680,note_on,1,0,3,,,,,,,,2,,,49,64
75839,note_on,0,0,1,,,,,,,,0,,,73,0
75839,note_on,159,0,3,,,,,,,,2,,,49,0
75839,note_on,479,0,4,,,,,,,,3,,,49,0
75839,note_on,0,0,1,,,,,,,,0,,,66,0
75839,note_on,399,0,1,,,,,,,,0,,,82,0
75840,note_on,1,0,3,,,,,,,,2,,,59,64
75840,note_on,1,0,4,,,,,,,,3,,,56,98
75840,note_on,1,0,1,,,,,,,,0,,,68,79
75880,note_on,40,0,1,,,,,,,,0,,,73,84
75920,note_on,40,0,1,,,,,,,,0,,,83,89
75999,note_on,159,0,3,,,,,,,,2,,,59,0
76000,note_on,1,0,3,,,,,,,,2,,,61,64
76159,note_on,159,0,3,,,,,,,,2,,,61,0
76160,note_on,1,0,3,,,,,,,,2,,,49,64
76319,note_on,399,0,1,,,,,,,,0,,,83,0
76319,note_on,0,0,1,,,,,,,,0,,,68,0
76319,note_on,0,0,1,,,,,,,,0,,,73,0
76319,note_on,479,0,4,,,,,,,,3,,,56,0
76319,note_on,159,0,3,,,,,,,,2,,,49,0
76320,control_change,0,0,1,,,,,,,,0,64,0,,
76320,control_change,1,0,3,,,,,,,,2,64,0,,
76320,note_on,0,0,3,,,,,,,,2,,,58,64
76320,note_on,0,0,4,,,,,,,,3,,,58,97
76320,control_change,1,0,4,,,,,,,,3,64,0,,
76320,note_on,1,0,1,,,,,,,,0,,,70,81
76360,note_on,40,0,1,,,,,,,,0,,,73,87
76373,control_change,13,0,1,,,,,,,,0,64,127,,
76400,note_on,27,0,1,,,,,,,,0,,,85,93
76479,note_on,159,0,3,,,,,,,,2,,,58,0
76480,note_on,1,0,3,,,,,,,,2,,,61,64
76639,note_on,159,0,3,,,,,,,,2,,,61,0
76640,note_on,1,0,3,,,,,,,,2,,,49,64
76799,note_on,0,0,4,,,,,,,,3,,,42,0
76799,note_on,159,0,3,,,,,,,,2,,,49,0
76799,note_on,479,0,4,,,,,,,,3,,,58,0
76800,note_on,1,0,3,,,,,,,,2,,,42,64
76800,note_on,1,0,4,,,,,,,,3,,,42,80
76959,note_on,159,0,3,,,,,,,,2,,,42,0
76960,note_on,1,0,3,,,,,,,,2,,,58,64
77039,note_on,639,0,1,,,,,,,,0,,,85,0
77039,note_on,0,0,1,,,,,,,,0,,,73,0
77039,note_on,0,0,1,,,,,,,,0,,,70,0
77040,note_on,1,0,1,,,,,,,,0,,,66,81
77080,note_on,40,0,1,,,,,,,,0,,,73,87
77119,note_on,159,0,3,,,,,,,,2,,,58,0
77120,note_on,1,0,3,,,,,,,,2,,,49,64
77120,note_on,40,0,1,,,,,,,,0,,,82,92
77232,note_on,432,0,4,,,,,,,,3,,,42,0
77264,note_on,144,0,3,,,,,,,,2,,,49,0
77268,note_on,148,0,1,,,,,,,,0,,,82,0
77268,note_on,0,0,1,,,,,,,,0,,,66,0
77268,note_on,0,0,1,,,,,,,,0,,,73,0
77280,control_change,16,0,3,,,,,,,,2,64,127,,
77280,control_change,12,0,1,,,,,,,,0,64,127,,
77280,note_on,0,0,1,,,,,,,,0,,,65,83
77280,note_on,0,0,3,,,,,,,,2,,,56,64
77320,note_on,40,0,1,,,,,,,,0,,,73,88
77333,control_change,13,0,1,,,,,,,,0,64,0,,
77360,note_on,27,0,1,,,,,,,,0,,,80,93
77439,note_on,159,0,3,,,,,,,,2,,,56,0
77440,note_on,1,0,3,,,,,,,,2,,,49,64
77599,note_on,159,0,3,,,,,,,,2,,,49,0
77600,note_on,1,0,3,,,,,,,,2,,,44,64
77759,note_on,159,0,3,,,,,,,,2,,,44,0
77760,note_on,1,0,3,,,,,,,,2,,,49,64
77919,note_on,159,0,3,,,,,,,,2,,,49,0
77920,note_on,1,0,3,,,,,,,,2,,,56,64
78079,note_on,159,0,3,,,,,,,,2,,,56,0
78080,note_on,1,0,3,,,,,,,,2,,,61,64
78192,note_on,832,0,1,,,,,,,,0,,,80,0
78192,note_on,0,0,1,,,,,,,,0,,,65,0
78192,note_on,0,0,1,,,,,,,,0,,,73,0
78239,note_on,159,0,3,,,,,,,,2,,,61,0
78240,control_change,1008,0,4,,,,,,,,3,64,0,,
78240,control_change,1,0,3,,,,,,,,2,64,0,,
78240,note_on,0,0,3,,,,,,,,2,,,68,64
78240,control_change,48,0,1,,,,,,,,0,64,0,,
78293,control_change,53,0,3,,,,,,,,2,64,127,,
78399,note_on,106,0,3,,,,,,,,2,,,68,0
78400,note_on,1,0,3,,,,,,,,2,,,73,64
78559,note_on,159,0,3,,,,,,,,2,,,73,0
78560,note_on,1,0,3,,,,,,,,2,,,80,64
78719,note_on,159,0,3,,,,,,,,2,,,80,0
78720,note_on,1,0,3,,,,,,,,2,,,85,64
78879,note_on,159,0,3,,,,,,,,2,,,85,0
78880,note_on,1,0,3,,,,,,,,2,,,92,64
79039,note_on,159,0,3,,,,,,,,2,,,92,0
79040,note_on,1,0,3,,,,,,,,2,,,85,64
79184,note_on,144,0,3,,,,,,,,2,,,85,0
79200,note_on,16,0,3,,,,,,,,2,,,80,64
79253,control_change,53,0,3,,,,,,,,2,64,127,,
79253,control_change,0,0,3,,,,,,,,2,64,0,,
79359,note_on,106,0,3,,,,,,,,2,,,80,0
79360,note_on,1,0,3,,,,,,,,2,,,73,65
79519,note_on,159,0,3,,,,,,,,2,,,73,0
79520,note_on,1,0,3,,,,,,,,2,,,68,64
79679,note_on,159,0,3,,,,,,,,2,,,68,0
79680,note_on,1,0,3,,,,,,,,2,,,61,62
79839,note_on,159,0,3,,,,,,,,2,,,61,0
79840,note_on,1,0,3,,,,,,,,2,,,56,61
79999,note_on,159,0,3,,,,,,,,2,,,56,0
80000,note_on,1,0,3,,,,,,,,2,,,49,59
80159,note_on,159,0,3,,,,,,,,2,,,49,0
80160,note_on,1,0,3,,,,,,,,2,,,44,58
80319,note_on,159,0,3,,,,,,,,2,,,44,0
80320,note_on,1,0,3,,,,,,,,2,,,49,56
80479,note_on,159,0,3,,,,,,,,2,,,49,0
80480,note_on,1,0,3,,,,,,,,2,,,56,55
80639,note_on,159,0,3,,,,,,,,2,,,56,0
80640,note_on,1,0,3,,,,,,,,2,,,49,54
80799,note_on,159,0,3,,,,,,,,2,,,49,0
80800,note_on,1,0,3,,,,,,,,2,,,44,52
80959,note_on,159,0,3,,,,,,,,2,,,44,0
80960,note_on,1,0,3,,,,,,,,2,,,37,51
81000,control_change,40,0,3,,,,,,,,2,64,0,,
81087,set_tempo,5594,1,0,,,,,,569044,,,,,,
81104,note_on,104,0,3,,,,,,,,2,,,37,0
81120,control_change,16,0,3,,,,,,,,2,64,127,,
81120,note_on,0,0,3,,,,,,,,2,,,37,49
81279,note_on,159,0,3,,,,,,,,2,,,37,0
81280,note_on,1,0,3,,,,,,,,2,,,37,48
81439,note_on,159,0,3,,,,,,,,2,,,37,0
81440,note_on,1,0,3,,,,,,,,2,,,37,46
81599,note_on,159,0,3,,,,,,,,2,,,37,0
81600,note_on,1,0,3,,,,,,,,2,,,37,45
81759,note_on,159,0,3,,,,,,,,2,,,37,0
81760,note_on,1,0,3,,,,,,,,2,,,37,43
81919,note_on,159,0,3,,,,,,,,2,,,37,0
81920,note_on,1,0,3,,,,,,,,2,,,37,42
82079,note_on,159,0,3,,,,,,,,2,,,37,0
82080,note_on,1,0,3,,,,,,,,2,,,37,41
82239,note_on,159,0,3,,,,,,,,2,,,37,0
82240,note_on,1,0,3,,,,,,,,2,,,37,39
82399,note_on,159,0,3,,,,,,,,2,,,37,0
82400,note_on,1,0,3,,,,,,,,2,,,37,38
82533,control_change,18941,0,2,,,,,,,,1,64,127,,
82559,note_on,159,0,3,,,,,,,,2,,,37,0
82560,note_on,1,0,3,,,,,,,,2,,,37,36
82719,note_on,159,0,3,,,,,,,,2,,,37,0
82720,note_on,1,0,3,,,,,,,,2,,,37,64
82720,note_on,187,0,2,,,,,,,,1,,,48,68
82799,note_on,79,0,2,,,,,,,,1,,,48,0
82800,note_on,1,0,2,,,,,,,,1,,,49,69
82879,note_on,159,0,3,,,,,,,,2,,,37,0
82879,note_on,79,0,2,,,,,,,,1,,,49,0
82880,note_on,1,0,3,,,,,,,,2,,,37,64
82880,note_on,1,0,2,,,,,,,,1,,,48,70
82959,note_on,79,0,2,,,,,,,,1,,,48,0
82960,note_on,1,0,2,,,,,,,,1,,,49,71
83000,control_change,120,0,3,,,,,,,,2,64,0,,
83024,note_on,24,0,3,,,,,,,,2,,,37,0
83032,note_on,72,0,2,,,,,,,,1,,,49,0
83040,note_on,16,0,3,,,,,,,,2,,,37,95
83120,control_change,80,0,3,,,,,,,,2,64,127,,
83199,note_on,79,0,3,,,,,,,,2,,,37,0
83200,note_on,168,0,2,,,,,,,,1,,,50,74
83200,note_on,1,0,3,,,,,,,,2,,,37,74
83240,control_change,5000,0,4,,,,,,,,3,64,127,,
83279,note_on,79,0,2,,,,,,,,1,,,50,0
83280,note_on,1,0,2,,,,,,,,1,,,49,75
83359,note_on,159,0,3,,,,,,,,2,,,37,0
83359,note_on,79,0,2,,,,,,,,1,,,49,0
83360,note_on,1,0,2,,,,,,,,1,,,50,76
83360,note_on,1,0,3,,,,,,,,2,,,37,76
83439,note_on,79,0,2,,,,,,,,1,,,50,0
83440,note_on,1,0,2,,,,,,,,1,,,49,77
83493,control_change,53,0,2,,,,,,,,1,64,0,,
83519,note_on,159,0,3,,,,,,,,2,,,37,0
83520,note_on,280,0,4,,,,,,,,3,,,35,77
83520,note_on,5280,0,1,,,,,,,,0,,,48,95
83520,note_on,1,0,3,,,,,,,,2,,,36,78
83570,control_change,77,0,2,,,,,,,,1,64,127,,
83679,note_on,109,0,2,,,,,,,,1,,,49,0
83679,note_on,159,0,3,,,,,,,,2,,,36,0
83680,note_on,1,0,2,,,,,,,,1,,,52,80
83680,note_on,1,0,3,,,,,,,,2,,,36,79
83759,note_on,79,0,2,,,,,,,,1,,,52,0
83760,note_on,1,0,2,,,,,,,,1,,,53,81
83839,note_on,79,0,2,,,,,,,,1,,,53,0
83839,note_on,159,0,3,,,,,,,,2,,,36,0
83840,note_on,1,0,3,,,,,,,,2,,,36,81
83840,note_on,1,0,2,,,,,,,,1,,,52,82
83919,note_on,79,0,2,,,,,,,,1,,,52,0
83920,note_on,1,0,2,,,,,,,,1,,,53,83
83999,note_on,479,0,4,,,,,,,,3,,,35,0
83999,note_on,159,0,3,,,,,,,,2,,,36,0
84000,note_on,1,0,4,,,,,,,,3,,,33,84
84000,note_on,1,0,3,,,,,,,,2,,,36,84
84030,control_change,510,0,1,,,,,,,,0,64,127,,
84159,note_on,159,0,3,,,,,,,,2,,,36,0
84159,note_on,239,0,2,,,,,,,,1,,,53,0
84159,note_on,129,0,1,,,,,,,,0,,,48,0
84160,note_on,1,0,3,,,,,,,,2,,,36,85
84160,note_on,1,0,2,,,,,,,,1,,,52,86
84160,note_on,1,0,1,,,,,,,,0,,,48,95
84200,control_change,200,0,4,,,,,,,,3,64,0,,
84239,note_on,79,0,2,,,,,,,,1,,,52,0
84240,note_on,1,0,2,,,,,,,,1,,,54,87
84319,note_on,159,0,1,,,,,,,,0,,,48,0
84319,note_on,159,0,3,,,,,,,,2,,,36,0
84319,note_on,79,0,2,,,,,,,,1,,,54,0
84320,note_on,1,0,3,,,,,,,,2,,,36,87
84320,note_on,1,0,1,,,,,,,,0,,,48,95
84320,note_on,1,0,2,,,,,,,,1,,,52,88
84399,note_on,79,0,2,,,,,,,,1,,,52,0
84400,note_on,1,0,2,,,,,,,,1,,,54,89
84479,note_on,279,0,4,,,,,,,,3,,,33,0
84479,note_on,159,0,3,,,,,,,,2,,,36,0
84480,note_on,1,0,4,,,,,,,,3,,,32,91
84480,note_on,1,0,3,,,,,,,,2,,,36,89
84530,control_change,130,0,2,,,,,,,,1,64,0,,
84570,control_change,40,0,2,,,,,,,,1,64,127,,
84639,note_on,69,0,2,,,,,,,,1,,,54,0
84639,note_on,319,0,1,,,,,,,,0,,,48,0
84639,note_on,159,0,3,,,,,,,,2,,,36,0
84640,note_on,1,0,1,,,,,,,,0,,,48,95
84640,note_on,1,0,3,,,,,,,,2,,,36,91
84640,note_on,1,0,2,,,,,,,,1,,,55,92
84719,note_on,79,0,2,,,,,,,,1,,,55,0
84720,note_on,1,0,2,,,,,,,,1,,,56,93
84799,note_on,159,0,3,,,,,,,,2,,,36,0
84799,note_on,159,0,1,,,,,,,,0,,,48,0
84799,note_on,79,0,2,,,,,,,,1,,,56,0
84800,note_on,1,0,2,,,,,,,,1,,,55,94
84800,note_on,1,0,1,,,,,,,,0,,,48,93
84800,note_on,1,0,3,,,,,,,,2,,,36,93
84879,note_on,79,0,2,,,,,,,,1,,,55,0
84880,note_on,1,0,2,,,,,,,,1,,,56,95
84912,note_on,432,0,4,,,,,,,,3,,,32,0
84944,note_on,144,0,3,,,,,,,,2,,,36,0
84944,note_on,144,0,1,,,,,,,,0,,,48,0
84952,note_on,72,0,2,,,,,,,,1,,,56,0
84960,control_change,48,0,4,,,,,,,,3,64,127,,
84960,note_on,0,0,3,,,,,,,,2,,,42,95
84960,note_on,0,0,4,,,,,,,,3,,,33,64
84960,note_on,16,0,3,,,,,,,,2,,,37,95
84990,control_change,46,0,1,,,,,,,,0,64,0,,
85119,note_on,159,0,3,,,,,,,,2,,,42,0
85119,note_on,0,0,3,,,,,,,,2,,,37,0
85120,note_on,1,0,3,,,,,,,,2,,,37,77
85120,note_on,0,0,3,,,,,,,,2,,,42,77
85120,note_on,130,0,1,,,,,,,,0,,,57,88
85120,note_on,168,0,2,,,,,,,,1,,,49,84
85199,note_on,79,0,2,,,,,,,,1,,,49,0
85200,note_on,1,0,2,,,,,,,,1,,,51,85
85279,note_on,0,0,3,,,,,,,,2,,,37,0
85279,note_on,159,0,3,,,,,,,,2,,,42,0
85279,note_on,79,0,2,,,,,,,,1,,,51,0
85279,note_on,159,0,1,,,,,,,,0,,,57,0
85280,note_on,0,0,3,,,,,,,,2,,,42,80
85280,note_on,1,0,3,,,,,,,,2,,,37,80
85280,note_on,1,0,2,,,,,,,,1,,,56,85
85280,note_on,1,0,1,,,,,,,,0,,,61,90
85328,control_change,48,0,1,,,,,,,,0,64,127,,
85359,note_on,79,0,2,,,,,,,,1,,,56,0
85360,note_on,1,0,2,,,,,,,,1,,,57,85
85439,note_on,0,0,3,,,,,,,,2,,,37,0
85439,note_on,159,0,3,,,,,,,,2,,,42,0
85439,note_on,111,0,1,,,,,,,,0,,,61,0
85439,note_on,79,0,2,,,,,,,,1,,,57,0
85440,note_on,1,0,3,,,,,,,,2,,,37,82
85440,note_on,0,0,3,,,,,,,,2,,,42,82
85440,note_on,1,0,1,,,,,,,,0,,,66,91
85440,note_on,1,0,2,,,,,,,,1,,,60,86
85519,note_on,79,0,2,,,,,,,,1,,,60,0
85520,note_on,1,0,2,,,,,,,,1,,,61,87
85530,control_change,10,0,2,,,,,,,,1,64,0,,
85592,control_change,62,0,2,,,,,,,,1,64,127,,
85599,note_on,159,0,3,,,,,,,,2,,,42,0
85599,note_on,0,0,3,,,,,,,,2,,,37,0
85599,note_on,159,0,1,,,,,,,,0,,,66,0
85599,note_on,7,0,2,,,,,,,,1,,,61,0
85600,note_on,1,0,3,,,,,,,,2,,,37,85
85600,note_on,0,0,3,,,,,,,,2,,,42,85
85600,note_on,1,0,1,,,,,,,,0,,,69,93
85600,note_on,1,0,2,,,,,,,,1,,,63,87
85679,note_on,79,0,2,,,,,,,,1,,,63,0
85680,note_on,1,0,2,,,,,,,,1,,,66,88
85759,note_on,79,0,2,,,,,,,,1,,,66,0
85759,note_on,799,0,4,,,,,,,,3,,,33,0
85759,note_on,159,0,1,,,,,,,,0,,,69,0
85759,note_on,0,0,3,,,,,,,,2,,,37,0
85759,note_on,159,0,3,,,,,,,,2,,,42,0
85760,note_on,0,0,3,,,,,,,,2,,,42,87
85760,note_on,1,0,4,,,,,,,,3,,,36,64
85760,note_on,1,0,2,,,,,,,,1,,,68,88
85760,note_on,1,0,1,,,,,,,,0,,,73,94
85760,note_on,1,0,3,,,,,,,,2,,,37,87
85839,note_on,79,0,2,,,,,,,,1,,,68,0
85840,note_on,1,0,2,,,,,,,,1,,,69,89
85919,note_on,79,0,2,,,,,,,,1,,,69,0
85919,note_on,159,0,1,,,,,,,,0,,,73,0
85919,note_on,0,0,3,,,,,,,,2,,,37,0
85919,note_on,159,0,3,,,,,,,,2,,,42,0
85919,note_on,159,0,4,,,,,,,,3,,,36,0
85920,control_change,1,0,4,,,,,,,,3,64,0,,
85920,note_on,1,0,3,,,,,,,,2,,,37,90
85920,note_on,1,0,1,,,,,,,,0,,,78,96
85920,note_on,0,0,4,,,,,,,,3,,,36,64
85920,note_on,1,0,2,,,,,,,,1,,,72,90
85920,note_on,0,0,3,,,,,,,,2,,,42,90
85999,note_on,79,0,2,,,,,,,,1,,,72,0
86000,note_on,1,0,2,,,,,,,,1,,,73,90
86079,note_on,0,0,3,,,,,,,,2,,,37,0
86079,note_on,159,0,3,,,,,,,,2,,,42,0
86079,note_on,159,0,1,,,,,,,,0,,,78,0
86079,note_on,79,0,2,,,,,,,,1,,,73,0
86080,note_on,0,0,3,,,,,,,,2,,,42,92
86080,note_on,1,0,1,,,,,,,,0,,,81,97
86080,note_on,1,0,3,,,,,,,,2,,,37,92
86080,note_on,1,0,2,,,,,,,,1,,,77,91
86159,note_on,79,0,2,,,,,,,,1,,,77,0
86160,note_on,1,0,2,,,,,,,,1,,,78,91
86239,note_on,0,0,3,,,,,,,,2,,,37,0
86239,note_on,159,0,3,,,,,,,,2,,,42,0
86239,note_on,79,0,2,,,,,,,,1,,,78,0
86239,note_on,159,0,1,,,,,,,,0,,,81,0
86240,note_on,1,0,3,,,,,,,,2,,,37,95
86240,note_on,1,0,1,,,,,,,,0,,,85,98
86240,note_on,1,0,2,,,,,,,,1,,,80,92
86240,note_on,0,0,3,,,,,,,,2,,,42,95
86288,control_change,48,0,1,,,,,,,,0,64,0,,
86319,note_on,79,0,2,,,,,,,,1,,,80,0
86320,note_on,1,0,2,,,,,,,,1,,,81,92
86328,control_change,88,0,3,,,,,,,,2,64,0,,
86352,note_on,432,0,4,,,,,,,,3,,,36,0
86392,note_on,72,0,2,,,,,,,,1,,,81,0
86399,note_on,111,0,1,,,,,,,,0,,,85,0
86399,note_on,71,0,3,,,,,,,,2,,,42,0
86399,note_on,0,0,3,,,,,,,,2,,,37,0
86400,note_on,1,0,1,,,,,,,,0,,,85,100
86400,note_on,0,0,1,,,,,,,,0,,,90,100
86400,note_on,0,0,3,,,,,,,,2,,,42,97
86400,note_on,1,0,3,,,,,,,,2,,,37,97
86544,note_on,144,0,1,,,,,,,,0,,,90,0
86544,note_on,0,0,1,,,,,,,,0,,,85,0
86552,control_change,160,0,2,,,,,,,,1,64,0,,
86559,note_on,159,0,3,,,,,,,,2,,,42,0
86559,note_on,0,0,3,,,,,,,,2,,,37,0
86560,note_on,0,0,3,,,,,,,,2,,,45,68
86560,note_on,0,0,3,,,,,,,,2,,,37,68
86560,note_on,1,0,3,,,,,,,,2,,,33,68
86719,note_on,0,0,3,,,,,,,,2,,,33,0
86719,note_on,0,0,3,,,,,,,,2,,,37,0
86719,note_on,159,0,3,,,,,,,,2,,,45,0
86720,note_on,0,0,3,,,,,,,,2,,,47,70
86720,note_on,0,0,3,,,,,,,,2,,,37,70
86720,note_on,1,0,3,,,,,,,,2,,,35,70
86864,note_on,0,0,3,,,,,,,,2,,,37,0
86864,note_on,0,0,3,,,,,,,,2,,,35,0
86864,note_on,144,0,3,,,,,,,,2,,,47,0
86880,note_on,0,0,3,,,,,,,,2,,,49,71
86880,note_on,0,0,3,,,,,,,,2,,,37,71
86880,control_change,16,0,3,,,,,,,,2,64,127,,
86880,control_change,528,0,4,,,,,,,,3,64,127,,
86880,note_on,0,0,4,,,,,,,,3,,,37,75
86940,control_change,396,0,1,,,,,,,,0,64,127,,
87039,note_on,0,0,3,,,,,,,,2,,,37,0
87039,note_on,159,0,3,,,,,,,,2,,,49,0
87040,note_on,0,0,3,,,,,,,,2,,,49,72
87040,note_on,1,0,3,,,,,,,,2,,,37,72
87040,note_on,100,0,1,,,,,,,,0,,,60,74
87119,note_on,79,0,1,,,,,,,,0,,,60,0
87120,note_on,1,0,1,,,,,,,,0,,,61,75
87199,note_on,79,0,1,,,,,,,,0,,,61,0
87199,note_on,159,0,3,,,,,,,,2,,,49,0
87199,note_on,0,0,3,,,,,,,,2,,,37,0
87200,note_on,1,0,3,,,,,,,,2,,,37,74
87200,note_on,0,0,3,,,,,,,,2,,,49,74
87200,note_on,1,0,1,,,,,,,,0,,,60,76
87279,note_on,79,0,1,,,,,,,,0,,,60,0
87280,note_on,1,0,1,,,,,,,,0,,,61,77
87350,control_change,798,0,2,,,,,,,,1,64,127,,
87359,note_on,0,0,3,,,,,,,,2,,,37,0
87359,note_on,159,0,3,,,,,,,,2,,,49,0
87359,note_on,479,0,4,,,,,,,,3,,,37,0
87360,note_on,1,0,3,,,,,,,,2,,,37,75
87360,note_on,0,0,3,,,,,,,,2,,,49,75
87360,note_on,1,0,4,,,,,,,,3,,,35,80
87519,note_on,159,0,3,,,,,,,,2,,,49,0
87519,note_on,239,0,1,,,,,,,,0,,,61,0
87519,note_on,0,0,3,,,,,,,,2,,,37,0
87520,note_on,1,0,1,,,,,,,,0,,,62,80
87520,note_on,170,0,2,,,,,,,,1,,,53,81
87520,note_on,0,0,3,,,,,,,,2,,,49,77
87520,note_on,1,0,3,,,,,,,,2,,,37,77
87599,note_on,79,0,1,,,,,,,,0,,,62,0
87600,note_on,1,0,1,,,,,,,,0,,,61,81
87679,note_on,0,0,3,,,,,,,,2,,,37,0
87679,note_on,159,0,2,,,,,,,,1,,,53,0
87679,note_on,159,0,3,,,,,,,,2,,,49,0
87679,note_on,79,0,1,,,,,,,,0,,,61,0
87680,note_on,1,0,3,,,,,,,,2,,,37,78
87680,note_on,0,0,3,,,,,,,,2,,,49,78
87680,note_on,1,0,1,,,,,,,,0,,,62,82
87680,note_on,1,0,2,,,,,,,,1,,,53,83
87759,note_on,79,0,1,,,,,,,,0,,,62,0
87760,note_on,1,0,1,,,,,,,,0,,,61,83
87839,note_on,0,0,3,,,,,,,,2,,,37,0
87839,note_on,479,0,4,,,,,,,,3,,,35,0
87839,note_on,159,0,3,,,,,,,,2,,,49,0
87840,control_change,1,0,4,,,,,,,,3,64,0,,
87840,note_on,1,0,3,,,,,,,,2,,,37,80
87840,note_on,0,0,3,,,,,,,,2,,,49,80
87840,note_on,0,0,4,,,,,,,,3,,,33,86
87900,control_change,140,0,1,,,,,,,,0,64,0,,
87999,note_on,159,0,3,,,,,,,,2,,,49,0
87999,note_on,0,0,3,,,,,,,,2,,,37,0
87999,note_on,99,0,1,,,,,,,,0,,,61,0
87999,note_on,319,0,2,,,,,,,,1,,,53,0
88000,note_on,1,0,3,,,,,,,,2,,,37,81
88000,note_on,0,0,3,,,,,,,,2,,,49,81
88000,note_on,1,0,2,,,,,,,,1,,,54,87
88000,note_on,1,0,1,,,,,,,,0,,,60,86
88010,control_change,10,0,1,,,,,,,,0,64,127,,
88079,note_on,69,0,1,,,,,,,,0,,,60,0
88080,note_on,1,0,1,,,,,,,,0,,,61,87
88159,note_on,159,0,2,,,,,,,,1,,,54,0
88159,note_on,159,0,3,,,,,,,,2,,,49,0
88159,note_on,0,0,3,,,,,,,,2,,,37,0
88159,note_on,79,0,1,,,,,,,,0,,,61,0
88160,note_on,0,0,3,,,,,,,,2,,,49,83
88160,note_on,1,0,1,,,,,,,,0,,,60,88
88160,note_on,1,0,3,,,,,,,,2,,,37,83
88160,note_on,1,0,2,,,,,,,,1,,,54,89
88239,note_on,79,0,1,,,,,,,,0,,,60,0
88240,note_on,1,0,1,,,,,,,,0,,,61,89
88310,control_change,150,0,2,,,,,,,,1,64,0,,
88319,note_on,479,0,4,,,,,,,,3,,,33,0
88319,note_on,0,0,3,,,,,,,,2,,,37,0
88319,note_on,159,0,3,,,,,,,,2,,,49,0
88320,note_on,0,0,3,,,,,,,,2,,,49,84
88320,note_on,1,0,4,,,,,,,,3,,,32,91
88320,note_on,1,0,3,,,,,,,,2,,,37,84
88479,note_on,159,0,3,,,,,,,,2,,,49,0
88479,note_on,0,0,3,,,,,,,,2,,,37,0
88479,note_on,239,0,1,,,,,,,,0,,,61,0
88479,note_on,169,0,2,,,,,,,,1,,,54,0
88480,note_on,1,0,2,,,,,,,,1,,,61,92
88480,note_on,0,0,2,,,,,,,,1,,,59,92
88480,note_on,1,0,1,,,,,,,,0,,,64,92
88480,note_on,0,0,3,,,,,,,,2,,,49,86
88480,note_on,1,0,3,,,,,,,,2,,,37,86
88559,note_on,79,0,1,,,,,,,,0,,,64,0
88560,note_on,1,0,1,,,,,,,,0,,,63,93
88639,note_on,159,0,3,,,,,,,,2,,,49,0
88639,note_on,0,0,3,,,,,,,,2,,,37,0
88639,note_on,79,0,1,,,,,,,,0,,,63,0
88639,note_on,159,0,2,,,,,,,,1,,,59,0
88639,note_on,0,0,2,,,,,,,,1,,,61,0
88640,note_on,0,0,2,,,,,,,,1,,,59,94
88640,note_on,1,0,1,,,,,,,,0,,,64,94
88640,note_on,0,0,3,,,,,,,,2,,,49,87
88640,note_on,1,0,3,,,,,,,,2,,,37,87
88640,note_on,1,0,2,,,,,,,,1,,,61,94
88719,note_on,79,0,1,,,,,,,,0,,,64,0
88720,note_on,1,0,1,,,,,,,,0,,,63,95
88750,control_change,110,0,3,,,,,,,,2,64,0,,
88752,note_on,432,0,4,,,,,,,,3,,,32,0
88784,note_on,0,0,2,,,,,,,,1,,,61,0
88784,note_on,34,0,3,,,,,,,,2,,,49,0
88784,note_on,0,0,3,,,,,,,,2,,,37,0
88784,note_on,144,0,2,,,,,,,,1,,,59,0
88792,note_on,72,0,1,,,,,,,,0,,,63,0
88800,control_change,16,0,2,,,,,,,,1,64,127,,
88800,note_on,0,0,3,,,,,,,,2,,,49,94
88800,control_change,48,0,4,,,,,,,,3,64,127,,
88800,note_on,0,0,4,,,,,,,,3,,,33,68
88800,note_on,16,0,3,,,,,,,,2,,,54,94
88840,note_on,40,0,4,,,,,,,,3,,,45,68
88864,control_change,64,0,3,,,,,,,,2,64,127,,
88880,note_on,40,0,4,,,,,,,,3,,,49,69
88920,note_on,40,0,4,,,,,,,,3,,,54,70
88959,note_on,0,0,3,,,,,,,,2,,,54,0
88959,note_on,95,0,3,,,,,,,,2,,,49,0
88960,note_on,168,0,1,,,,,,,,0,,,66,91
88960,note_on,160,0,2,,,,,,,,1,,,60,83
88960,note_on,0,0,3,,,,,,,,2,,,49,71
88960,note_on,1,0,3,,,,,,,,2,,,54,71
88970,control_change,10,0,1,,,,,,,,0,64,0,,
89028,note_on,0,0,4,,,,,,,,3,,,49,0
89028,note_on,0,0,4,,,,,,,,3,,,45,0
89028,note_on,0,0,4,,,,,,,,3,,,33,0
89028,note_on,108,0,4,,,,,,,,3,,,54,0
89039,note_on,79,0,2,,,,,,,,1,,,60,0
89040,control_change,70,0,1,,,,,,,,0,64,127,,
89040,note_on,1,0,2,,,,,,,,1,,,61,84
89119,note_on,79,0,1,,,,,,,,0,,,66,0
89119,note_on,159,0,3,,,,,,,,2,,,49,0
89119,note_on,0,0,3,,,,,,,,2,,,54,0
89119,note_on,79,0,2,,,,,,,,1,,,61,0
89120,note_on,1,0,1,,,,,,,,0,,,69,92
89120,note_on,1,0,3,,,,,,,,2,,,54,74
89120,note_on,0,0,3,,,,,,,,2,,,49,74
89120,note_on,1,0,2,,,,,,,,1,,,65,85
89199,note_on,79,0,2,,,,,,,,1,,,65,0
89200,note_on,1,0,2,,,,,,,,1,,,66,86
89279,note_on,0,0,3,,,,,,,,2,,,54,0
89279,note_on,159,0,3,,,,,,,,2,,,49,0
89279,note_on,159,0,1,,,,,,,,0,,,69,0
89279,note_on,79,0,2,,,,,,,,1,,,66,0
89280,note_on,1,0,3,,,,,,,,2,,,54,78
89280,note_on,1,0,2,,,,,,,,1,,,68,87
89280,note_on,1,0,1,,,,,,,,0,,,73,93
89280,note_on,0,0,3,,,,,,,,2,,,49,78
89359,note_on,79,0,2,,,,,,,,1,,,68,0
89360,note_on,1,0,2,,,,,,,,1,,,69,88
89439,note_on,79,0,2,,,,,,,,1,,,69,0
89439,note_on,159,0,3,,,,,,,,2,,,49,0
89439,note_on,0,0,3,,,,,,,,2,,,54,0
89439,note_on,159,0,1,,,,,,,,0,,,73,0
89440,note_on,1,0,2,,,,,,,,1,,,72,88
89440,note_on,1,0,1,,,,,,,,0,,,78,93
89440,note_on,1,0,3,,,,,,,,2,,,54,81
89440,note_on,0,0,3,,,,,,,,2,,,49,81
89519,note_on,79,0,2,,,,,,,,1,,,72,0
89520,note_on,1,0,2,,,,,,,,1,,,73,90
89599,note_on,159,0,1,,,,,,,,0,,,78,0
89599,note_on,159,0,3,,,,,,,,2,,,49,0
89599,note_on,79,0,2,,,,,,,,1,,,73,0
89599,note_on,0,0,3,,,,,,,,2,,,54,0
89600,note_on,1,0,2,,,,,,,,1,,,77,90
89600,note_on,1,0,3,,,,,,,,2,,,54,85
89600,note_on,1,0,1,,,,,,,,0,,,81,94
89600,note_on,0,0,3,,,,,,,,2,,,49,85
89679,note_on,79,0,2,,,,,,,,1,,,77,0
89680,note_on,1,0,2,,,,,,,,1,,,78,91
89759,note_on,79,0,2,,,,,,,,1,,,78,0
89759,note_on,159,0,1,,,,,,,,0,,,81,0
89759,note_on,159,0,3,,,,,,,,2,,,49,0
89759,note_on,0,0,3,,,,,,,,2,,,54,0
89760,note_on,1,0,2,,,,,,,,1,,,80,92
89760,note_on,0,0,3,,,,,,,,2,,,49,88
89760,note_on,1,0,3,,,,,,,,2,,,54,88
89760,note_on,1,0,1,,,,,,,,0,,,85,95
89760,control_change,732,0,4,,,,,,,,3,64,0,,
89839,note_on,79,0,2,,,,,,,,1,,,80,0
89840,note_on,1,0,2,,,,,,,,1,,,81,93
89919,note_on,0,0,3,,,,,,,,2,,,54,0
89919,note_on,159,0,1,,,,,,,,0,,,85,0
89919,note_on,79,0,2,,,,,,,,1,,,81,0
89919,note_on,159,0,3,,,,,,,,2,,,49,0
89920,note_on,1,0,1,,,,,,,,0,,,90,96
89920,note_on,1,0,2,,,,,,,,1,,,84,94
89920,note_on,0,0,3,,,,,,,,2,,,49,91
89920,note_on,1,0,3,,,,,,,,2,,,54,91
89999,note_on,79,0,2,,,,,,,,1,,,84,0
90000,note_on,1,0,2,,,,,,,,1,,,85,95
90079,note_on,0,0,3,,,,,,,,2,,,54,0
90079,note_on,159,0,3,,,,,,,,2,,,49,0
90079,note_on,159,0,1,,,,,,,,0,,,90,0
90079,note_on,79,0,2,,,,,,,,1,,,85,0
90080,note_on,1,0,2,,,,,,,,1,,,89,96
90080,note_on,0,0,3,,,,,,,,2,,,49,95
90080,note_on,1,0,3,,,,,,,,2,,,54,95
90080,note_on,1,0,1,,,,,,,,0,,,93,97
90112,control_change,32,0,2,,,,,,,,1,64,0,,
90159,note_on,47,0,2,,,,,,,,1,,,89,0
90160,note_on,1,0,2,,,,,,,,1,,,90,96
90232,note_on,72,0,2,,,,,,,,1,,,90,0
90239,note_on,0,0,3,,,,,,,,2,,,54,0
90239,note_on,159,0,3,,,,,,,,2,,,49,0
90239,note_on,159,0,1,,,,,,,,0,,,93,0
90240,note_on,1,0,1,,,,,,,,0,,,93,94
90240,note_on,0,0,1,,,,,,,,0,,,97,94
90240,note_on,1,0,3,,,,,,,,2,,,54,66
90240,note_on,0,0,3,,,,,,,,2,,,49,66
90296,control_change,56,0,1,,,,,,,,0,64,0,,
90384,note_on,88,0,1,,,,,,,,0,,,97,0
90384,note_on,0,0,1,,,,,,,,0,,,93,0
90399,note_on,159,0,3,,,,,,,,2,,,49,0
90399,note_on,0,0,3,,,,,,,,2,,,54,0
90400,note_on,0,0,3,,,,,,,,2,,,49,68
90400,note_on,1,0,3,,,,,,,,2,,,54,68
90559,note_on,159,0,3,,,,,,,,2,,,49,0
90559,note_on,0,0,3,,,,,,,,2,,,54,0
90560,note_on,1,0,3,,,,,,,,2,,,54,69
90560,note_on,0,0,3,,,,,,,,2,,,49,69
90648,control_change,88,0,3,,,,,,,,2,64,0,,
90704,note_on,56,0,3,,,,,,,,2,,,49,0
90704,note_on,0,0,3,,,,,,,,2,,,54,0
90720,control_change,16,0,3,,,,,,,,2,64,127,,
90880,note_on,0,0,3,,,,,,,,2,,,49,73
90880,note_on,160,0,3,,,,,,,,2,,,61,73
90947,control_change,1187,0,4,,,,,,,,3,64,127,,
91039,note_on,159,0,3,,,,,,,,2,,,49,0
91039,note_on,0,0,3,,,,,,,,2,,,61,0
91040,note_on,1,0,3,,,,,,,,2,,,61,75
91040,note_on,0,0,3,,,,,,,,2,,,49,75
91199,note_on,159,0,3,,,,,,,,2,,,49,0
91199,note_on,0,0,3,,,,,,,,2,,,61,0
91200,note_on,1,0,3,,,,,,,,2,,,61,77
91200,note_on,0,0,3,,,,,,,,2,,,57,77
91200,note_on,0,0,3,,,,,,,,2,,,54,77
91200,note_on,0,0,3,,,,,,,,2,,,49,77
91200,note_on,253,0,4,,,,,,,,3,,,33,52
91240,note_on,40,0,4,,,,,,,,3,,,37,56
91280,note_on,40,0,4,,,,,,,,3,,,42,61
91320,note_on,40,0,4,,,,,,,,3,,,45,66
91359,note_on,0,0,3,,,,,,,,2,,,57,0
91359,note_on,0,0,3,,,,,,,,2,,,54,0
91359,note_on,0,0,3,,,,,,,,2,,,61,0
91359,note_on,159,0,3,,,,,,,,2,,,49,0
91360,note_on,1,0,3,,,,,,,,2,,,61,79
91360,note_on,0,0,3,,,,,,,,2,,,49,79
91499,note_on,179,0,4,,,,,,,,3,,,45,0
91499,note_on,0,0,4,,,,,,,,3,,,37,0
91499,note_on,0,0,4,,,,,,,,3,,,33,0
91499,note_on,0,0,4,,,,,,,,3,,,42,0
91519,note_on,159,0,3,,,,,,,,2,,,49,0
91519,note_on,0,0,3,,,,,,,,2,,,61,0
91520,note_on,1,0,3,,,,,,,,2,,,61,81
91520,note_on,0,0,3,,,,,,,,2,,,49,81
91679,note_on,0,0,3,,,,,,,,2,,,61,0
91679,note_on,159,0,3,,,,,,,,2,,,49,0
91680,note_on,181,0,4,,,,,,,,3,,,33,71
91680,note_on,0,0,3,,,,,,,,2,,,49,83
91680,note_on,0,0,3,,,,,,,,2,,,54,83
91680,note_on,0,0,3,,,,,,,,2,,,57,83
91680,note_on,0,0,3,,,,,,,,2,,,61,83
91680,control_change,1,0,3,,,,,,,,2,64,0,,
91720,note_on,40,0,4,,,,,,,,3,,,37,73
91760,note_on,40,0,4,,,,,,,,3,,,42,77
91800,note_on,40,0,4,,,,,,,,3,,,45,79
91813,control_change,133,0,3,,,,,,,,2,64,127,,
91839,note_on,0,0,3,,,,,,,,2,,,54,0
91839,note_on,0,0,3,,,,,,,,2,,,57,0
91839,note_on,0,0,3,,,,,,,,2,,,61,0
91839,note_on,26,0,3,,,,,,,,2,,,49,0
91840,note_on,0,0,3,,,,,,,,2,,,49,85
91840,note_on,1,0,3,,,,,,,,2,,,61,85
91907,control_change,107,0,4,,,,,,,,3,64,0,,
91979,note_on,72,0,4,,,,,,,,3,,,45,0
91979,note_on,0,0,4,,,,,,,,3,,,33,0
91979,note_on,0,0,4,,,,,,,,3,,,37,0
91979,note_on,0,0,4,,,,,,,,3,,,42,0
91999,note_on,159,0,3,,,,,,,,2,,,49,0
91999,note_on,0,0,3,,,,,,,,2,,,61,0
92000,note_on,0,0,3,,,,,,,,2,,,49,87
92000,note_on,1,0,3,,,,,,,,2,,,61,87
92053,control_change,74,0,4,,,,,,,,3,64,127,,
92159,note_on,0,0,3,,,,,,,,2,,,61,0
92159,note_on,159,0,3,,,,,,,,2,,,49,0
92160,note_on,0,0,3,,,,,,,,2,,,57,89
92160,note_on,1,0,3,,,,,,,,2,,,61,89
92160,note_on,107,0,4,,,,,,,,3,,,33,64
92160,note_on,0,0,3,,,,,,,,2,,,54,89
92160,note_on,0,0,3,,,,,,,,2,,,49,89
92200,note_on,40,0,4,,,,,,,,3,,,37,85
92240,note_on,40,0,4,,,,,,,,3,,,42,90
92280,note_on,40,0,4,,,,,,,,3,,,45,93
92319,note_on,159,0,3,,,,,,,,2,,,49,0
92319,note_on,0,0,3,,,,,,,,2,,,61,0
92319,note_on,0,0,3,,,,,,,,2,,,57,0
92319,note_on,0,0,3,,,,,,,,2,,,54,0
92320,note_on,1,0,3,,,,,,,,2,,,61,91
92320,note_on,0,0,3,,,,,,,,2,,,49,91
92334,note_on,0,0,4,,,,,,,,3,,,42,0
92334,note_on,0,0,4,,,,,,,,3,,,33,0
92334,note_on,54,0,4,,,,,,,,3,,,45,0
92334,note_on,0,0,4,,,,,,,,3,,,37,0
92479,note_on,159,0,3,,,,,,,,2,,,49,0
92479,note_on,0,0,3,,,,,,,,2,,,61,0
92480,note_on,0,0,3,,,,,,,,2,,,49,64
92480,note_on,1,0,3,,,,,,,,2,,,61,64
92520,note_on,0,0,2,,,,,,,,1,,,69,64
92520,note_on,2288,0,2,,,,,,,,1,,,57,64
92583,set_tempo,11496,1,0,,,,,,569044,,,,,,
92624,note_on,144,0,3,,,,,,,,2,,,49,0
92624,note_on,0,0,3,,,,,,,,2,,,61,0
92628,note_on,0,0,2,,,,,,,,1,,,57,0
92628,note_on,108,0,2,,,,,,,,1,,,69,0
92640,note_on,16,0,3,,,,,,,,2,,,61,64
92640,control_change,12,0,2,,,,,,,,1,64,127,,
92640,note_on,0,0,3,,,,,,,,2,,,53,64
92640,note_on,0,0,3,,,,,,,,2,,,49,64
92640,note_on,0,0,2,,,,,,,,1,,,69,64
92640,note_on,0,0,2,,,,,,,,1,,,57,64
92707,control_change,2323,0,1,,,,,,,,0,64,127,,
92773,control_change,133,0,3,,,,,,,,2,64,0,,
92800,note_on,466,0,4,,,,,,,,3,,,33,64
92800,note_on,0,0,4,,,,,,,,3,,,45,64
92856,note_on,83,0,3,,,,,,,,2,,,49,0
92856,note_on,0,0,3,,,,,,,,2,,,61,0
92856,note_on,0,0,3,,,,,,,,2,,,53,0
92880,note_on,0,0,1,,,,,,,,0,,,66,107
92880,note_on,173,0,1,,,,,,,,0,,,57,107
92880,note_on,0,0,1,,,,,,,,0,,,69,107
92959,note_on,0,0,4,,,,,,,,3,,,33,0
92959,note_on,159,0,4,,,,,,,,3,,,45,0
92960,note_on,0,0,4,,,,,,,,3,,,46,69
92960,note_on,1,0,4,,,,,,,,3,,,34,69
93013,control_change,53,0,4,,,,,,,,3,64,0,,
93039,note_on,159,0,1,,,,,,,,0,,,69,0
93039,note_on,0,0,1,,,,,,,,0,,,57,0
93039,note_on,0,0,1,,,,,,,,0,,,66,0
93040,note_on,0,0,1,,,,,,,,0,,,69,107
93040,note_on,0,0,1,,,,,,,,0,,,66,107
93040,note_on,1,0,1,,,,,,,,0,,,58,107
93119,note_on,0,0,4,,,,,,,,3,,,34,0
93119,note_on,106,0,4,,,,,,,,3,,,46,0
93120,note_on,0,0,4,,,,,,,,3,,,47,74
93120,note_on,1,0,4,,,,,,,,3,,,35,74
93133,control_change,13,0,4,,,,,,,,3,64,127,,
93199,note_on,159,0,1,,,,,,,,0,,,69,0
93199,note_on,0,0,1,,,,,,,,0,,,66,0
93199,note_on,0,0,1,,,,,,,,0,,,58,0
93199,note_on,559,0,2,,,,,,,,1,,,69,0
93199,note_on,0,0,2,,,,,,,,1,,,57,0
93200,note_on,1,0,1,,,,,,,,0,,,59,70
93200,note_on,0,0,1,,,,,,,,0,,,66,70
93200,note_on,0,0,1,,,,,,,,0,,,69,70
93200,note_on,0,0,2,,,,,,,,1,,,69,64
93200,note_on,1,0,2,,,,,,,,1,,,57,64
93279,note_on,146,0,4,,,,,,,,3,,,47,0
93279,note_on,0,0,4,,,,,,,,3,,,35,0
93280,note_on,1,0,4,,,,,,,,3,,,36,79
93280,note_on,0,0,4,,,,,,,,3,,,48,79
93359,note_on,0,0,1,,,,,,,,0,,,66,0
93359,note_on,159,0,1,,,,,,,,0,,,69,0
93359,note_on,0,0,1,,,,,,,,0,,,59,0
93360,note_on,0,0,1,,,,,,,,0,,,66,77
93360,note_on,1,0,1,,,,,,,,0,,,60,77
93360,note_on,0,0,1,,,,,,,,0,,,69,77
93439,note_on,159,0,4,,,,,,,,3,,,48,0
93439,note_on,0,0,4,,,,,,,,3,,,36,0
93440,note_on,1,0,4,,,,,,,,3,,,37,84
93440,note_on,0,0,4,,,,,,,,3,,,49,84
93519,note_on,159,0,1,,,,,,,,0,,,69,0
93519,note_on,0,0,1,,,,,,,,0,,,60,0
93519,note_on,0,0,1,,,,,,,,0,,,66,0
93520,note_on,0,0,1,,,,,,,,0,,,69,84
93520,note_on,0,0,1,,,,,,,,0,,,66,84
93520,note_on,1,0,1,,,,,,,,0,,,61,84
93576,set_tempo,993,1,0,,,,,,571646,,,,,,
93599,note_on,0,0,4,,,,,,,,3,,,37,0
93599,note_on,159,0,4,,,,,,,,3,,,49,0
93600,note_on,1,0,4,,,,,,,,3,,,37,89
93600,note_on,0,0,4,,,,,,,,3,,,49,89
93600,control_change,400,0,2,,,,,,,,1,64,0,,
93640,control_change,40,0,2,,,,,,,,1,64,127,,
93667,control_change,147,0,1,,,,,,,,0,64,0,,
93679,note_on,0,0,2,,,,,,,,1,,,57,0
93679,note_on,12,0,1,,,,,,,,0,,,69,0
93679,note_on,0,0,1,,,,,,,,0,,,66,0
93679,note_on,0,0,1,,,,,,,,0,,,61,0
93679,note_on,39,0,2,,,,,,,,1,,,69,0
93680,note_on,1,0,2,,,,,,,,1,,,57,64
93680,note_on,0,0,2,,,,,,,,1,,,69,64
93680,note_on,0,0,1,,,,,,,,0,,,66,91
93680,note_on,0,0,1,,,,,,,,0,,,69,91
93680,note_on,1,0,1,,,,,,,,0,,,61,91
93759,note_on,0,0,4,,,,,,,,3,,,37,0
93759,note_on,159,0,4,,,,,,,,3,,,49,0
93760,note_on,1,0,4,,,,,,,,3,,,36,94
93760,note_on,0,0,4,,,,,,,,3,,,48,94
93839,note_on,159,0,1,,,,,,,,0,,,66,0
93839,note_on,0,0,1,,,,,,,,0,,,69,0
93839,note_on,0,0,1,,,,,,,,0,,,61,0
93840,note_on,1,0,1,,,,,,,,0,,,60,96
93840,note_on,0,0,1,,,,,,,,0,,,69,96
93840,note_on,0,0,1,,,,,,,,0,,,66,96
93919,note_on,159,0,4,,,,,,,,3,,,48,0
93919,note_on,0,0,4,,,,,,,,3,,,36,0
93920,note_on,1,0,4,,,,,,,,3,,,35,94
93920,note_on,0,0,4,,,,,,,,3,,,47,94
93999,note_on,0,0,1,,,,,,,,0,,,60,0
93999,note_on,0,0,1,,,,,,,,0,,,69,0
93999,note_on,159,0,1,,,,,,,,0,,,66,0
94000,note_on,1,0,1,,,,,,,,0,,,59,90
94000,note_on,0,0,1,,,,,,,,0,,,69,90
94000,note_on,0,0,1,,,,,,,,0,,,66,90
94079,note_on,159,0,4,,,,,,,,3,,,47,0
94079,note_on,0,0,4,,,,,,,,3,,,35,0
94080,note_on,1,0,4,,,,,,,,3,,,34,87
94080,note_on,0,0,4,,,,,,,,3,,,46,87
94159,note_on,0,0,2,,,,,,,,1,,,57,0
94159,note_on,479,0,2,,,,,,,,1,,,69,0
94159,note_on,0,0,1,,,,,,,,0,,,69,0
94159,note_on,0,0,1,,,,,,,,0,,,59,0
94159,note_on,159,0,1,,,,,,,,0,,,66,0
94160,note_on,0,0,1,,,,,,,,0,,,66,84
94160,note_on,0,0,1,,,,,,,,0,,,69,84
94160,note_on,1,0,1,,,,,,,,0,,,58,84
94160,note_on,0,0,2,,,,,,,,1,,,69,64
94160,note_on,1,0,2,,,,,,,,1,,,57,64
94239,note_on,0,0,4,,,,,,,,3,,,34,0
94239,note_on,159,0,4,,,,,,,,3,,,46,0
94240,note_on,1,0,4,,,,,,,,3,,,33,81
94240,note_on,0,0,4,,,,,,,,3,,,45,81
94319,note_on,0,0,1,,,,,,,,0,,,58,0
94319,note_on,159,0,1,,,,,,,,0,,,66,0
94319,note_on,0,0,1,,,,,,,,0,,,69,0
94320,note_on,1,0,1,,,,,,,,0,,,57,78
94320,note_on,0,0,1,,,,,,,,0,,,69,78
94320,note_on,0,0,1,,,,,,,,0,,,66,78
94399,note_on,0,0,4,,,,,,,,3,,,33,0
94399,note_on,159,0,4,,,,,,,,3,,,45,0
94400,note_on,0,0,4,,,,,,,,3,,,45,74
94400,note_on,1,0,4,,,,,,,,3,,,33,74
94467,control_change,67,0,4,,,,,,,,3,64,0,,
94479,note_on,159,0,1,,,,,,,,0,,,66,0
94479,note_on,0,0,1,,,,,,,,0,,,69,0
94479,note_on,0,0,1,,,,,,,,0,,,57,0
94479,note_on,0,0,2,,,,,,,,1,,,57,0
94479,note_on,319,0,2,,,,,,,,1,,,69,0
94480,note_on,1,0,2,,,,,,,,1,,,57,64
94480,note_on,0,0,2,,,,,,,,1,,,69,64
94480,note_on,1,0,1,,,,,,,,0,,,57,72
94480,note_on,0,0,1,,,,,,,,0,,,66,72
94480,note_on,0,0,1,,,,,,,,0,,,69,72
94544,note_on,0,0,4,,,,,,,,3,,,33,0
94544,note_on,77,0,4,,,,,,,,3,,,45,0
94552,set_tempo,976,1,0,,,,,,574273,,,,,,
94552,note_on,72,0,2,,,,,,,,1,,,69,0
94552,note_on,0,0,2,,,,,,,,1,,,57,0
94552,note_on,72,0,1,,,,,,,,0,,,69,0
94552,note_on,0,0,1,,,,,,,,0,,,66,0
94552,note_on,0,0,1,,,,,,,,0,,,57,0
94554,set_tempo,2,1,0,,,,,,574273,,,,,,
94560,note_on,0,0,1,,,,,,,,0,,,60,68
94560,control_change,8,0,1,,,,,,,,0,64,127,,
94560,note_on,0,0,1,,,,,,,,0,,,64,68
94560,note_on,0,0,1,,,,,,,,0,,,72,68
94560,note_on,0,0,4,,,,,,,,3,,,33,93
94560,note_on,0,0,4,,,,,,,,3,,,40,93
94560,note_on,0,0,4,,,,,,,,3,,,48,93
94560,control_change,16,0,4,,,,,,,,3,64,127,,
94592,control_change,40,0,2,,,,,,,,1,64,127,,
94600,control_change,8,0,2,,,,,,,,1,64,0,,
94639,note_on,79,0,4,,,,,,,,3,,,33,0
94639,note_on,0,0,4,,,,,,,,3,,,48,0
94639,note_on,0,0,4,,,,,,,,3,,,40,0
94668,note_on,108,0,1,,,,,,,,0,,,64,0
94668,note_on,0,0,1,,,,,,,,0,,,72,0
94668,note_on,0,0,1,,,,,,,,0,,,60,0
94720,note_on,120,0,2,,,,,,,,1,,,96,95
94720,note_on,0,0,4,,,,,,,,3,,,52,94
94720,note_on,0,0,2,,,,,,,,1,,,93,95
94720,note_on,81,0,4,,,,,,,,3,,,60,94
94720,note_on,0,0,4,,,,,,,,3,,,57,94
94799,note_on,0,0,2,,,,,,,,1,,,96,0
94799,note_on,79,0,2,,,,,,,,1,,,93,0
94800,note_on,1,0,2,,,,,,,,1,,,95,93
94800,note_on,0,0,2,,,,,,,,1,,,92,93
94879,note_on,159,0,4,,,,,,,,3,,,52,0
94879,note_on,0,0,4,,,,,,,,3,,,57,0
94879,note_on,0,0,4,,,,,,,,3,,,60,0
94879,note_on,79,0,2,,,,,,,,1,,,92,0
94879,note_on,0,0,2,,,,,,,,1,,,95,0
94880,note_on,1,0,4,,,,,,,,3,,,60,92
94880,note_on,0,0,4,,,,,,,,3,,,57,92
94880,note_on,0,0,4,,,,,,,,3,,,52,92
94880,note_on,0,0,2,,,,,,,,1,,,91,92
94880,note_on,1,0,2,,,,,,,,1,,,94,92
94959,note_on,0,0,2,,,,,,,,1,,,94,0
94959,note_on,79,0,2,,,,,,,,1,,,91,0
94960,note_on,0,0,2,,,,,,,,1,,,90,90
94960,note_on,1,0,2,,,,,,,,1,,,93,90
95039,note_on,0,0,2,,,,,,,,1,,,93,0
95039,note_on,79,0,2,,,,,,,,1,,,90,0
95039,note_on,0,0,4,,,,,,,,3,,,60,0
95039,note_on,0,0,4,,,,,,,,3,,,57,0
95039,note_on,159,0,4,,,,,,,,3,,,52,0
95040,note_on,1,0,4,,,,,,,,3,,,60,91
95040,note_on,0,0,2,,,,,,,,1,,,89,89
95040,note_on,1,0,2,,,,,,,,1,,,92,89
95040,note_on,0,0,4,,,,,,,,3,,,52,91
95040,note_on,0,0,4,,,,,,,,3,,,57,91
95119,note_on,0,0,2,,,,,,,,1,,,92,0
95119,note_on,79,0,2,,,,,,,,1,,,89,0
95120,note_on,0,0,2,,,,,,,,1,,,88,87
95120,note_on,1,0,2,,,,,,,,1,,,91,87
95199,note_on,79,0,2,,,,,,,,1,,,88,0
95199,note_on,0,0,4,,,,,,,,3,,,60,0
95199,note_on,0,0,4,,,,,,,,3,,,57,0
95199,note_on,159,0,4,,,,,,,,3,,,52,0
95199,note_on,0,0,2,,,,,,,,1,,,91,0
95200,note_on,1,0,2,,,,,,,,1,,,90,86
95200,note_on,0,0,2,,,,,,,,1,,,87,86
95200,note_on,1,0,4,,,,,,,,3,,,60,90
95200,note_on,0,0,4,,,,,,,,3,,,52,90
95200,note_on,0,0,4,,,,,,,,3,,,57,90
95279,note_on,79,0,2,,,,,,,,1,,,87,0
95279,note_on,0,0,2,,,,,,,,1,,,90,0
95280,note_on,0,0,2,,,,,,,,1,,,86,84
95280,note_on,1,0,2,,,,,,,,1,,,89,84
95359,note_on,159,0,4,,,,,,,,3,,,52,0
95359,note_on,0,0,4,,,,,,,,3,,,57,0
95359,note_on,79,0,2,,,,,,,,1,,,86,0
95359,note_on,0,0,2,,,,,,,,1,,,89,0
95359,note_on,0,0,4,,,,,,,,3,,,60,0
95360,note_on,1,0,2,,,,,,,,1,,,88,83
95360,note_on,0,0,4,,,,,,,,3,,,59,112
95360,note_on,1,0,4,,,,,,,,3,,,71,112
95360,note_on,0,0,2,,,,,,,,1,,,85,83
95439,note_on,79,0,2,,,,,,,,1,,,85,0
95439,note_on,0,0,2,,,,,,,,1,,,88,0
95440,note_on,1,0,2,,,,,,,,1,,,87,81
95440,note_on,0,0,2,,,,,,,,1,,,84,81
95519,note_on,79,0,2,,,,,,,,1,,,84,0
95519,note_on,0,0,2,,,,,,,,1,,,87,0
95520,note_on,2664,0,3,,,,,,,,2,,,36,112
95520,control_change,852,0,1,,,,,,,,0,64,0,,
95520,note_on,0,0,3,,,,,,,,2,,,48,112
95520,note_on,0,0,2,,,,,,,,1,,,83,80
95520,note_on,1,0,2,,,,,,,,1,,,86,80
95552,control_change,32,0,2,,,,,,,,1,64,0,,
95599,note_on,47,0,2,,,,,,,,1,,,83,0
95599,note_on,0,0,2,,,,,,,,1,,,86,0
95600,note_on,1,0,2,,,,,,,,1,,,85,78
95600,note_on,0,0,2,,,,,,,,1,,,82,78
95679,note_on,79,0,2,,,,,,,,1,,,82,0
95679,note_on,319,0,4,,,,,,,,3,,,59,0
95679,note_on,0,0,4,,,,,,,,3,,,71,0
95679,note_on,0,0,2,,,,,,,,1,,,85,0
95680,note_on,0,0,2,,,,,,,,1,,,81,77
95680,note_on,1,0,4,,,,,,,,3,,,60,87
95680,note_on,0,0,4,,,,,,,,3,,,57,87
95680,note_on,0,0,4,,,,,,,,3,,,52,87
95680,note_on,1,0,2,,,,,,,,1,,,84,77
95759,note_on,79,0,2,,,,,,,,1,,,81,0
95759,note_on,0,0,2,,,,,,,,1,,,84,0
95760,note_on,1,0,2,,,,,,,,1,,,83,75
95760,note_on,0,0,2,,,,,,,,1,,,80,75
95839,note_on,79,0,2,,,,,,,,1,,,80,0
95839,note_on,0,0,2,,,,,,,,1,,,83,0
95839,note_on,159,0,4,,,,,,,,3,,,52,0
95839,note_on,0,0,4,,,,,,,,3,,,57,0
95839,note_on,0,0,4,,,,,,,,3,,,60,0
95840,note_on,0,0,2,,,,,,,,1,,,79,74
95840,note_on,1,0,2,,,,,,,,1,,,82,74
95840,note_on,1,0,4,,,,,,,,3,,,60,85
95840,note_on,0,0,4,,,,,,,,3,,,57,85
95840,note_on,0,0,4,,,,,,,,3,,,52,85
95919,note_on,79,0,2,,,,,,,,1,,,79,0
95919,note_on,0,0,2,,,,,,,,1,,,82,0
95920,note_on,0,0,2,,,,,,,,1,,,78,72
95920,note_on,1,0,2,,,,,,,,1,,,81,72
95999,note_on,0,0,4,,,,,,,,3,,,57,0
95999,note_on,0,0,4,,,,,,,,3,,,60,0
95999,note_on,159,0,4,,,,,,,,3,,,52,0
95999,note_on,0,0,2,,,,,,,,1,,,81,0
95999,note_on,79,0,2,,,,,,,,1,,,78,0
96000,note_on,0,0,2,,,,,,,,1,,,77,71
96000,note_on,1,0,2,,,,,,,,1,,,80,71
96000,note_on,0,0,4,,,,,,,,3,,,52,83
96000,note_on,0,0,4,,,,,,,,3,,,57,83
96000,note_on,1,0,4,,,,,,,,3,,,60,83
96079,note_on,0,0,2,,,,,,,,1,,,80,0
96079,note_on,79,0,2,,,,,,,,1,,,77,0
96080,note_on,0,0,2,,,,,,,,1,,,76,69
96080,note_on,1,0,2,,,,,,,,1,,,79,69
96159,note_on,0,0,4,,,,,,,,3,,,57,0
96159,note_on,0,0,2,,,,,,,,1,,,79,0
96159,note_on,79,0,2,,,,,,,,1,,,76,0
96159,note_on,159,0,4,,,,,,,,3,,,52,0
96159,note_on,0,0,4,,,,,,,,3,,,60,0
96160,note_on,1,0,2,,,,,,,,1,,,78,68
96160,note_on,0,0,4,,,,,,,,3,,,57,82
96160,note_on,0,0,4,,,,,,,,3,,,52,82
96160,note_on,0,0,2,,,,,,,,1,,,75,68
96160,note_on,1,0,4,,,,,,,,3,,,60,82
96239,note_on,79,0,2,,,,,,,,1,,,75,0
96239,note_on,0,0,2,,,,,,,,1,,,78,0
96240,note_on,1,0,2,,,,,,,,1,,,77,66
96240,note_on,0,0,2,,,,,,,,1,,,74,66
96319,note_on,79,0,2,,,,,,,,1,,,74,0
96319,note_on,0,0,2,,,,,,,,1,,,77,0
96319,note_on,0,0,4,,,,,,,,3,,,60,0
96319,note_on,0,0,4,,,,,,,,3,,,57,0
96319,note_on,159,0,4,,,,,,,,3,,,52,0
96320,note_on,1,0,2,,,,,,,,1,,,76,65
96320,note_on,0,0,4,,,,,,,,3,,,52,81
96320,note_on,0,0,2,,,,,,,,1,,,72,65
96320,note_on,0,0,4,,,,,,,,3,,,57,81
96320,note_on,1,0,4,,,,,,,,3,,,60,81
96384,note_on,864,0,3,,,,,,,,2,,,48,0
96384,note_on,0,0,3,,,,,,,,2,,,36,0
96399,note_on,79,0,2,,,,,,,,1,,,72,0
96399,note_on,0,0,2,,,,,,,,1,,,76,0
96400,control_change,80,0,4,,,,,,,,3,64,0,,
96400,note_on,1,0,2,,,,,,,,1,,,69,63
96464,note_on,0,0,4,,,,,,,,3,,,60,0
96464,note_on,0,0,4,,,,,,,,3,,,57,0
96464,note_on,64,0,4,,,,,,,,3,,,52,0
96472,note_on,72,0,2,,,,,,,,1,,,69,0
96480,control_change,96,0,3,,,,,,,,2,64,127,,
96480,note_on,0,0,4,,,,,,,,3,,,52,80
96480,note_on,16,0,4,,,,,,,,3,,,60,80
96480,note_on,0,0,4,,,,,,,,3,,,57,80
96489,set_tempo,1935,1,0,,,,,,579598,,,,,,
96640,note_on,0,0,3,,,,,,,,2,,,52,98
96640,note_on,160,0,3,,,,,,,,2,,,60,98
96640,note_on,0,0,3,,,,,,,,2,,,57,98
96799,note_on,0,0,3,,,,,,,,2,,,60,0
96799,note_on,0,0,3,,,,,,,,2,,,57,0
96799,note_on,159,0,3,,,,,,,,2,,,52,0
96800,note_on,1,0,3,,,,,,,,2,,,60,84
96800,note_on,0,0,3,,,,,,,,2,,,57,84
96800,note_on,0,0,3,,,,,,,,2,,,52,84
96959,note_on,0,0,4,,,,,,,,3,,,60,0
96959,note_on,0,0,4,,,,,,,,3,,,57,0
96959,note_on,479,0,4,,,,,,,,3,,,52,0
96959,note_on,159,0,3,,,,,,,,2,,,52,0
96959,note_on,0,0,3,,,,,,,,2,,,57,0
96959,note_on,0,0,3,,,,,,,,2,,,60,0
96960,note_on,1,0,4,,,,,,,,3,,,33,98
96960,note_on,1,0,3,,,,,,,,2,,,60,96
96960,note_on,0,0,3,,,,,,,,2,,,57,96
96960,note_on,0,0,3,,,,,,,,2,,,52,96
97000,note_on,40,0,4,,,,,,,,3,,,40,100
97040,note_on,40,0,4,,,,,,,,3,,,48,103
97119,note_on,0,0,3,,,,,,,,2,,,60,0
97119,note_on,0,0,3,,,,,,,,2,,,57,0
97119,note_on,159,0,3,,,,,,,,2,,,52,0
97120,note_on,1,0,3,,,,,,,,2,,,60,84
97120,note_on,0,0,3,,,,,,,,2,,,57,84
97120,note_on,0,0,3,,,,,,,,2,,,52,84
97259,note_on,0,0,4,,,,,,,,3,,,33,0
97259,note_on,0,0,4,,,,,,,,3,,,40,0
97259,note_on,219,0,4,,,,,,,,3,,,48,0
97279,note_on,0,0,3,,,,,,,,2,,,60,0
97279,note_on,159,0,3,,,,,,,,2,,,52,0
97279,note_on,0,0,3,,,,,,,,2,,,57,0
97280,note_on,0,0,3,,,,,,,,2,,,52,84
97280,note_on,0,0,3,,,,,,,,2,,,57,84
97280,note_on,1,0,3,,,,,,,,2,,,60,84
97439,note_on,0,0,3,,,,,,,,2,,,60,0
97439,note_on,0,0,3,,,,,,,,2,,,57,0
97439,note_on,159,0,3,,,,,,,,2,,,52,0
97440,note_on,0,0,3,,,,,,,,2,,,60,84
97440,control_change,1,0,3,,,,,,,,2,64,0,,
97440,note_on,181,0,4,,,,,,,,3,,,33,96
97440,note_on,0,0,3,,,,,,,,2,,,52,84
97440,note_on,0,0,3,,,,,,,,2,,,57,84
97480,note_on,40,0,4,,,,,,,,3,,,40,97
97520,note_on,40,0,4,,,,,,,,3,,,48,98
97559,note_on,39,0,4,,,,,,,,3,,,48,0
97560,note_on,1,0,4,,,,,,,,3,,,48,99
97599,note_on,0,0,3,,,,,,,,2,,,60,0
97599,note_on,0,0,3,,,,,,,,2,,,57,0
97599,note_on,159,0,3,,,,,,,,2,,,52,0
97600,note_on,1,0,3,,,,,,,,2,,,60,85
97600,note_on,0,0,3,,,,,,,,2,,,57,85
97600,note_on,0,0,3,,,,,,,,2,,,52,85
97739,note_on,179,0,4,,,,,,,,3,,,48,0
97739,note_on,0,0,4,,,,,,,,3,,,33,0
97739,note_on,0,0,4,,,,,,,,3,,,40,0
97759,note_on,159,0,3,,,,,,,,2,,,52,0
97759,note_on,0,0,3,,,,,,,,2,,,57,0
97759,note_on,0,0,3,,,,,,,,2,,,60,0
97760,note_on,0,0,3,,,,,,,,2,,,52,85
97760,note_on,1,0,3,,,,,,,,2,,,60,85
97760,note_on,0,0,3,,,,,,,,2,,,57,85
97919,note_on,159,0,3,,,,,,,,2,,,52,0
97919,note_on,0,0,3,,,,,,,,2,,,57,0
97919,note_on,0,0,3,,,,,,,,2,,,60,0
97920,note_on,1,0,3,,,,,,,,2,,,60,85
97920,note_on,0,0,3,,,,,,,,2,,,57,85
97920,note_on,0,0,3,,,,,,,,2,,,52,85
97920,note_on,181,0,4,,,,,,,,3,,,33,99
97960,note_on,40,0,4,,,,,,,,3,,,40,100
97989,control_change,2469,0,1,,,,,,,,0,64,127,,
98000,note_on,40,0,4,,,,,,,,3,,,48,103
98079,note_on,0,0,3,,,,,,,,2,,,57,0
98079,note_on,159,0,3,,,,,,,,2,,,52,0
98079,note_on,0,0,3,,,,,,,,2,,,60,0
98080,note_on,0,0,3,,,,,,,,2,,,52,85
98080,note_on,1,0,3,,,,,,,,2,,,60,85
98080,note_on,0,0,3,,,,,,,,2,,,57,85
98094,note_on,94,0,4,,,,,,,,3,,,48,0
98094,note_on,0,0,4,,,,,,,,3,,,40,0
98094,note_on,0,0,4,,,,,,,,3,,,33,0
98239,note_on,0,0,3,,,,,,,,2,,,60,0
98239,note_on,0,0,3,,,,,,,,2,,,57,0
98239,note_on,159,0,3,,,,,,,,2,,,52,0
98240,note_on,0,0,3,,,,,,,,2,,,57,85
98240,note_on,1,0,3,,,,,,,,2,,,60,85
98240,note_on,0,0,3,,,,,,,,2,,,52,85
98280,note_on,0,0,1,,,,,,,,0,,,72,114
98280,note_on,291,0,1,,,,,,,,0,,,84,114
98384,note_on,0,0,3,,,,,,,,2,,,57,0
98384,note_on,0,0,3,,,,,,,,2,,,60,0
98384,note_on,144,0,3,,,,,,,,2,,,52,0
98388,note_on,108,0,1,,,,,,,,0,,,72,0
98388,note_on,0,0,1,,,,,,,,0,,,84,0
98400,note_on,0,0,3,,,,,,,,2,,,52,68
98400,note_on,16,0,3,,,,,,,,2,,,57,68
98400,note_on,12,0,1,,,,,,,,0,,,72,114
98400,note_on,0,0,1,,,,,,,,0,,,84,114
98400,control_change,306,0,4,,,,,,,,3,64,127,,
98440,control_change,40,0,3,,,,,,,,2,64,127,,
98560,note_on,0,0,4,,,,,,,,3,,,45,64
98560,note_on,160,0,4,,,,,,,,3,,,33,64
98616,note_on,216,0,1,,,,,,,,0,,,84,0
98616,note_on,0,0,1,,,,,,,,0,,,72,0
98639,note_on,0,0,3,,,,,,,,2,,,57,0
98639,note_on,199,0,3,,,,,,,,2,,,52,0
98640,note_on,0,0,3,,,,,,,,2,,,69,75
98640,note_on,0,0,3,,,,,,,,2,,,60,75
98640,note_on,1,0,3,,,,,,,,2,,,72,75
98719,note_on,159,0,4,,,,,,,,3,,,45,0
98719,note_on,0,0,4,,,,,,,,3,,,33,0
98720,note_on,0,0,4,,,,,,,,3,,,46,71
98720,note_on,1,0,4,,,,,,,,3,,,34,71
98799,note_on,159,0,3,,,,,,,,2,,,60,0
98799,note_on,0,0,3,,,,,,,,2,,,72,0
98799,note_on,0,0,3,,,,,,,,2,,,69,0
98800,note_on,0,0,3,,,,,,,,2,,,69,80
98800,note_on,0,0,3,,,,,,,,2,,,61,80
98800,note_on,1,0,3,,,,,,,,2,,,72,80
98879,note_on,159,0,4,,,,,,,,3,,,46,0
98879,note_on,0,0,4,,,,,,,,3,,,34,0
98880,note_on,0,0,4,,,,,,,,3,,,47,77
98880,note_on,1,0,4,,,,,,,,3,,,35,77
98949,control_change,333,0,1,,,,,,,,0,64,0,,
98959,note_on,0,0,3,,,,,,,,2,,,72,0
98959,note_on,159,0,3,,,,,,,,2,,,61,0
98959,note_on,0,0,3,,,,,,,,2,,,69,0
98960,note_on,1,0,3,,,,,,,,2,,,72,85
98960,note_on,0,0,3,,,,,,,,2,,,69,85
98960,note_on,0,0,3,,,,,,,,2,,,62,85
99039,note_on,159,0,4,,,,,,,,3,,,47,0
99039,note_on,0,0,4,,,,,,,,3,,,35,0
99040,note_on,1,0,4,,,,,,,,3,,,36,82
99040,note_on,0,0,4,,,,,,,,3,,,48,82
99119,note_on,159,0,3,,,,,,,,2,,,62,0
99119,note_on,0,0,3,,,,,,,,2,,,69,0
99119,note_on,0,0,3,,,,,,,,2,,,72,0
99120,note_on,1,0,3,,,,,,,,2,,,72,91
99120,note_on,0,0,3,,,,,,,,2,,,69,91
99120,note_on,0,0,3,,,,,,,,2,,,63,91
99199,note_on,159,0,4,,,,,,,,3,,,48,0
99199,note_on,0,0,4,,,,,,,,3,,,36,0
99200,note_on,1,0,4,,,,,,,,3,,,37,88
99200,note_on,0,0,4,,,,,,,,3,,,49,88
99279,note_on,0,0,3,,,,,,,,2,,,69,0
99279,note_on,0,0,3,,,,,,,,2,,,72,0
99279,note_on,159,0,3,,,,,,,,2,,,63,0
99280,note_on,0,0,3,,,,,,,,2,,,64,95
99280,note_on,1,0,3,,,,,,,,2,,,72,95
99280,note_on,0,0,3,,,,,,,,2,,,69,95
99359,note_on,159,0,4,,,,,,,,3,,,49,0
99359,note_on,0,0,4,,,,,,,,3,,,37,0
99360,control_change,1,0,4,,,,,,,,3,64,0,,
99360,note_on,0,0,4,,,,,,,,3,,,38,94
99360,note_on,0,0,4,,,,,,,,3,,,50,94
99400,control_change,40,0,4,,,,,,,,3,64,127,,
99400,control_change,120,0,3,,,,,,,,2,64,0,,
99439,note_on,39,0,3,,,,,,,,2,,,64,0
99439,note_on,0,0,3,,,,,,,,2,,,69,0
99439,note_on,0,0,3,,,,,,,,2,,,72,0
99440,note_on,0,0,3,,,,,,,,2,,,66,96
99440,note_on,0,0,3,,,,,,,,2,,,69,96
99440,control_change,1,0,3,,,,,,,,2,64,127,,
99519,note_on,119,0,4,,,,,,,,3,,,50,0
99519,note_on,0,0,4,,,,,,,,3,,,38,0
99520,note_on,0,0,4,,,,,,,,3,,,49,92
99520,note_on,1,0,4,,,,,,,,3,,,37,92
99599,note_on,159,0,3,,,,,,,,2,,,66,0
99599,note_on,0,0,3,,,,,,,,2,,,69,0
99600,note_on,1,0,3,,,,,,,,2,,,72,97
99600,note_on,0,0,3,,,,,,,,2,,,69,97
99600,note_on,0,0,3,,,,,,,,2,,,64,97
99679,note_on,0,0,4,,,,,,,,3,,,37,0
99679,note_on,159,0,4,,,,,,,,3,,,49,0
99680,note_on,0,0,4,,,,,,,,3,,,48,92
99680,note_on,1,0,4,,,,,,,,3,,,36,92
99759,note_on,159,0,3,,,,,,,,2,,,64,0
99759,note_on,0,0,3,,,,,,,,2,,,69,0
99759,note_on,0,0,3,,,,,,,,2,,,72,0
99760,note_on,0,0,3,,,,,,,,2,,,69,98
99760,note_on,1,0,3,,,,,,,,2,,,72,98
99760,note_on,0,0,3,,,,,,,,2,,,63,98
99839,note_on,159,0,4,,,,,,,,3,,,48,0
99839,note_on,0,0,4,,,,,,,,3,,,36,0
99840,note_on,0,0,4,,,,,,,,3,,,47,92
99840,note_on,1,0,4,,,,,,,,3,,,35,92
99919,note_on,159,0,3,,,,,,,,2,,,63,0
99919,note_on,0,0,3,,,,,,,,2,,,69,0
99919,note_on,0,0,3,,,,,,,,2,,,72,0
99920,note_on,1,0,3,,,,,,,,2,,,72,99
99920,note_on,0,0,3,,,,,,,,2,,,69,99
99920,note_on,0,0,3,,,,,,,,2,,,62,99
99999,note_on,0,0,4,,,,,,,,3,,,35,0
99999,note_on,159,0,4,,,,,,,,3,,,47,0
100000,note_on,1,0,4,,,,,,,,3,,,34,93
100000,note_on,0,0,4,,,,,,,,3,,,46,93
100079,note_on,0,0,3,,,,,,,,2,,,72,0
100079,note_on,159,0,3,,,,,,,,2,,,62,0
100079,note_on,0,0,3,,,,,,,,2,,,69,0
100080,note_on,1,0,3,,,,,,,,2,,,72,100
100080,note_on,0,0,3,,,,,,,,2,,,61,100
100080,note_on,0,0,3,,,,,,,,2,,,69,100
100159,note_on,0,0,4,,,,,,,,3,,,34,0
100159,note_on,159,0,4,,,,,,,,3,,,46,0
100160,note_on,0,0,4,,,,,,,,3,,,45,93
100160,note_on,1,0,4,,,,,,,,3,,,33,93
100239,note_on,159,0,3,,,,,,,,2,,,61,0
100239,note_on,0,0,3,,,,,,,,2,,,72,0
100239,note_on,0,0,3,,,,,,,,2,,,69,0
100240,note_on,1,0,3,,,,,,,,2,,,72,102
100240,note_on,0,0,3,,,,,,,,2,,,69,102
100240,note_on,0,0,3,,,,,,,,2,,,60,102
100296,set_tempo,3807,1,0,,,,,,585023,,,,,,
100304,note_on,0,0,4,,,,,,,,3,,,33,0
100304,note_on,144,0,4,,,,,,,,3,,,45,0
100312,note_on,72,0,3,,,,,,,,2,,,60,0
100312,note_on,0,0,3,,,,,,,,2,,,72,0
100312,note_on,0,0,3,,,,,,,,2,,,69,0
100320,note_on,0,0,4,,,,,,,,3,,,32,93
100320,note_on,0,0,4,,,,,,,,3,,,41,93
100320,note_on,0,0,4,,,,,,,,3,,,44,93
100320,control_change,16,0,4,,,,,,,,3,64,127,,
100320,control_change,3848,0,2,,,,,,,,1,64,127,,
100360,control_change,40,0,4,,,,,,,,3,64,0,,
100399,note_on,0,0,4,,,,,,,,3,,,44,0
100399,note_on,0,0,4,,,,,,,,3,,,41,0
100399,note_on,39,0,4,,,,,,,,3,,,32,0
100400,control_change,88,0,3,,,,,,,,2,64,0,,
100480,note_on,81,0,4,,,,,,,,3,,,60,97
100480,note_on,0,0,2,,,,,,,,1,,,96,95
100480,note_on,160,0,2,,,,,,,,1,,,101,95
100480,note_on,0,0,4,,,,,,,,3,,,53,97
100480,note_on,0,0,4,,,,,,,,3,,,56,97
100559,note_on,79,0,2,,,,,,,,1,,,96,0
100559,note_on,0,0,2,,,,,,,,1,,,101,0
100560,note_on,1,0,2,,,,,,,,1,,,100,93
100639,note_on,0,0,4,,,,,,,,3,,,60,0
100639,note_on,159,0,4,,,,,,,,3,,,53,0
100639,note_on,79,0,2,,,,,,,,1,,,100,0
100639,note_on,0,0,4,,,,,,,,3,,,56,0
100640,note_on,0,0,4,,,,,,,,3,,,53,94
100640,note_on,1,0,2,,,,,,,,1,,,99,92
100640,note_on,1,0,4,,,,,,,,3,,,60,94
100640,note_on,0,0,4,,,,,,,,3,,,56,94
100719,note_on,79,0,2,,,,,,,,1,,,99,0
100720,note_on,0,0,2,,,,,,,,1,,,95,91
100720,note_on,1,0,2,,,,,,,,1,,,98,91
100799,note_on,0,0,2,,,,,,,,1,,,98,0
100799,note_on,79,0,2,,,,,,,,1,,,95,0
100799,note_on,0,0,4,,,,,,,,3,,,60,0
100799,note_on,0,0,4,,,,,,,,3,,,56,0
100799,note_on,159,0,4,,,,,,,,3,,,53,0
100800,note_on,0,0,4,,,,,,,,3,,,53,90
100800,note_on,0,0,4,,,,,,,,3,,,56,90
100800,note_on,1,0,4,,,,,,,,3,,,60,90
100800,note_on,0,0,2,,,,,,,,1,,,94,89
100800,note_on,1,0,2,,,,,,,,1,,,97,89
100879,note_on,0,0,2,,,,,,,,1,,,97,0
100879,note_on,79,0,2,,,,,,,,1,,,94,0
100880,note_on,0,0,2,,,,,,,,1,,,93,88
100880,note_on,1,0,2,,,,,,,,1,,,96,88
100959,note_on,0,0,2,,,,,,,,1,,,96,0
100959,note_on,79,0,2,,,,,,,,1,,,93,0
100959,note_on,159,0,4,,,,,,,,3,,,53,0
100959,note_on,0,0,4,,,,,,,,3,,,56,0
100959,note_on,0,0,4,,,,,,,,3,,,60,0
100960,note_on,0,0,4,,,,,,,,3,,,53,87
100960,note_on,0,0,4,,,,,,,,3,,,56,87
100960,note_on,1,0,4,,,,,,,,3,,,60,87
100960,note_on,0,0,2,,,,,,,,1,,,92,86
100960,note_on,1,0,2,,,,,,,,1,,,95,86
101039,note_on,79,0,2,,,,,,,,1,,,92,0
101039,note_on,0,0,2,,,,,,,,1,,,95,0
101040,note_on,0,0,2,,,,,,,,1,,,91,85
101040,note_on,1,0,2,,,,,,,,1,,,94,85
101096,control_change,696,0,3,,,,,,,,2,64,127,,
101119,note_on,0,0,2,,,,,,,,1,,,94,0
101119,note_on,159,0,4,,,,,,,,3,,,53,0
101119,note_on,79,0,2,,,,,,,,1,,,91,0
101119,note_on,0,0,4,,,,,,,,3,,,56,0
101119,note_on,0,0,4,,,,,,,,3,,,60,0
101120,note_on,0,0,2,,,,,,,,1,,,90,84
101120,note_on,1,0,2,,,,,,,,1,,,93,84
101120,note_on,24,0,3,,,,,,,,2,,,68,93
101120,note_on,0,0,3,,,,,,,,2,,,56,93
101120,note_on,1,0,4,,,,,,,,3,,,68,84
101120,note_on,0,0,4,,,,,,,,3,,,56,84
101199,note_on,79,0,2,,,,,,,,1,,,90,0
101199,note_on,0,0,2,,,,,,,,1,,,93,0
101200,note_on,0,0,2,,,,,,,,1,,,89,82
101200,note_on,1,0,2,,,,,,,,1,,,92,82
101279,note_on,79,0,2,,,,,,,,1,,,89,0
101279,note_on,159,0,3,,,,,,,,2,,,56,0
101279,note_on,0,0,3,,,,,,,,2,,,68,0
101279,note_on,0,0,4,,,,,,,,3,,,68,0
101279,note_on,0,0,2,,,,,,,,1,,,92,0
101279,note_on,159,0,4,,,,,,,,3,,,56,0
101280,note_on,1,0,3,,,,,,,,2,,,65,93
101280,note_on,1,0,2,,,,,,,,1,,,91,81
101280,note_on,0,0,2,,,,,,,,1,,,88,81
101280,control_change,1,0,4,,,,,,,,3,64,0,,
101280,note_on,0,0,3,,,,,,,,2,,,53,93
101280,note_on,0,0,4,,,,,,,,3,,,65,81
101280,note_on,0,0,4,,,,,,,,3,,,53,81
101352,control_change,72,0,4,,,,,,,,3,64,127,,
101359,note_on,79,0,2,,,,,,,,1,,,88,0
101359,note_on,0,0,2,,,,,,,,1,,,91,0
101360,note_on,0,0,2,,,,,,,,1,,,87,79
101360,note_on,1,0,2,,,,,,,,1,,,90,79
101439,note_on,87,0,4,,,,,,,,3,,,53,0
101439,note_on,79,0,2,,,,,,,,1,,,87,0
101439,note_on,0,0,4,,,,,,,,3,,,65,0
101439,note_on,0,0,2,,,,,,,,1,,,90,0
101440,note_on,1,0,2,,,,,,,,1,,,89,78
101440,note_on,0,0,2,,,,,,,,1,,,86,78
101440,note_on,0,0,4,,,,,,,,3,,,56,78
101440,note_on,1,0,4,,,,,,,,3,,,60,78
101440,note_on,0,0,4,,,,,,,,3,,,53,78
101519,note_on,79,0,2,,,,,,,,1,,,86,0
101519,note_on,0,0,2,,,,,,,,1,,,89,0
101520,note_on,1,0,2,,,,,,,,1,,,88,76
101520,note_on,0,0,2,,,,,,,,1,,,85,76
101599,note_on,159,0,4,,,,,,,,3,,,53,0
101599,note_on,0,0,2,,,,,,,,1,,,88,0
101599,note_on,79,0,2,,,,,,,,1,,,85,0
101599,note_on,0,0,4,,,,,,,,3,,,56,0
101599,note_on,0,0,4,,,,,,,,3,,,60,0
101600,note_on,0,0,2,,,,,,,,1,,,84,75
101600,note_on,1,0,2,,,,,,,,1,,,87,75
101600,note_on,1,0,4,,,,,,,,3,,,60,74
101600,note_on,0,0,4,,,,,,,,3,,,56,74
101600,note_on,0,0,4,,,,,,,,3,,,53,74
101679,note_on,79,0,2,,,,,,,,1,,,84,0
101679,note_on,0,0,2,,,,,,,,1,,,87,0
101680,note_on,0,0,2,,,,,,,,1,,,83,74
101680,note_on,1,0,2,,,,,,,,1,,,86,74
101759,note_on,0,0,4,,,,,,,,3,,,56,0
101759,note_on,0,0,4,,,,,,,,3,,,60,0
101759,note_on,79,0,2,,,,,,,,1,,,83,0
101759,note_on,0,0,2,,,,,,,,1,,,86,0
101759,note_on,159,0,4,,,,,,,,3,,,53,0
101760,note_on,0,0,2,,,,,,,,1,,,82,72
101760,note_on,1,0,2,,,,,,,,1,,,85,72
101760,note_on,0,0,4,,,,,,,,3,,,53,71
101760,note_on,0,0,4,,,,,,,,3,,,56,71
101760,note_on,1,0,4,,,,,,,,3,,,60,71
101839,note_on,0,0,2,,,,,,,,1,,,85,0
101839,note_on,79,0,2,,,,,,,,1,,,82,0
101840,note_on,1,0,2,,,,,,,,1,,,84,71
101840,note_on,0,0,2,,,,,,,,1,,,81,71
101919,note_on,0,0,2,,,,,,,,1,,,84,0
101919,note_on,79,0,2,,,,,,,,1,,,81,0
101919,note_on,0,0,4,,,,,,,,3,,,60,0
101919,note_on,0,0,4,,,,,,,,3,,,56,0
101919,note_on,159,0,4,,,,,,,,3,,,53,0
101920,note_on,0,0,2,,,,,,,,1,,,80,70
101920,note_on,0,0,4,,,,,,,,3,,,53,68
101920,note_on,0,0,4,,,,,,,,3,,,56,68
101920,note_on,1,0,4,,,,,,,,3,,,60,68
101920,note_on,1,0,2,,,,,,,,1,,,83,70
101999,note_on,0,0,2,,,,,,,,1,,,83,0
101999,note_on,79,0,2,,,,,,,,1,,,80,0
102000,note_on,1,0,2,,,,,,,,1,,,82,68
102000,note_on,0,0,2,,,,,,,,1,,,79,68
102056,control_change,776,0,3,,,,,,,,2,64,0,,
102079,note_on,0,0,4,,,,,,,,3,,,60,0
102079,note_on,0,0,4,,,,,,,,3,,,56,0
102079,note_on,159,0,4,,,,,,,,3,,,53,0
102079,note_on,0,0,2,,,,,,,,1,,,82,0
102079,note_on,79,0,2,,,,,,,,1,,,79,0
102080,note_on,0,0,2,,,,,,,,1,,,78,67
102080,note_on,1,0,4,,,,,,,,3,,,60,64
102080,note_on,1,0,2,,,,,,,,1,,,81,67
102080,note_on,0,0,4,,,,,,,,3,,,53,64
102080,note_on,0,0,4,,,,,,,,3,,,56,64
102144,note_on,0,0,3,,,,,,,,2,,,65,0
102144,note_on,88,0,3,,,,,,,,2,,,53,0
102159,note_on,79,0,2,,,,,,,,1,,,78,0
102159,note_on,0,0,2,,,,,,,,1,,,81,0
102160,note_on,1,0,2,,,,,,,,1,,,80,65
102160,note_on,0,0,2,,,,,,,,1,,,77,65
102168,control_change,8,0,2,,,,,,,,1,64,0,,
102208,control_change,128,0,4,,,,,,,,3,64,0,,
102208,control_change,0,0,4,,,,,,,,3,64,127,,
102224,note_on,16,0,4,,,,,,,,3,,,53,0
102224,note_on,0,0,4,,,,,,,,3,,,56,0
102224,note_on,0,0,4,,,,,,,,3,,,60,0
102232,note_on,0,0,2,,,,,,,,1,,,80,0
102232,note_on,64,0,2,,,,,,,,1,,,77,0
102240,note_on,0,0,4,,,,,,,,3,,,53,61
102240,note_on,16,0,4,,,,,,,,3,,,60,61
102240,note_on,0,0,4,,,,,,,,3,,,56,61
102240,control_change,8,0,2,,,,,,,,1,64,127,,
102400,note_on,160,0,2,,,,,,,,1,,,53,64
102400,note_on,0,0,2,,,,,,,,1,,,60,64
102400,note_on,0,0,2,,,,,,,,1,,,65,64
102559,note_on,159,0,2,,,,,,,,1,,,65,0
102559,note_on,0,0,2,,,,,,,,1,,,60,0
102559,note_on,0,0,2,,,,,,,,1,,,53,0
102560,note_on,1,0,2,,,,,,,,1,,,53,64
102560,note_on,0,0,2,,,,,,,,1,,,60,64
102560,note_on,0,0,2,,,,,,,,1,,,65,64
102627,control_change,483,0,3,,,,,,,,2,64,127,,
102719,note_on,0,0,4,,,,,,,,3,,,56,0
102719,note_on,0,0,4,,,,,,,,3,,,60,0
102719,note_on,479,0,4,,,,,,,,3,,,53,0
102720,note_on,1,0,4,,,,,,,,3,,,32,66
102720,note_on,93,0,3,,,,,,,,2,,,44,62
102799,note_on,239,0,2,,,,,,,,1,,,65,0
102799,note_on,0,0,2,,,,,,,,1,,,60,0
102799,note_on,0,0,2,,,,,,,,1,,,53,0
102800,note_on,1,0,2,,,,,,,,1,,,53,64
102800,note_on,0,0,2,,,,,,,,1,,,65,64
102800,note_on,0,0,2,,,,,,,,1,,,60,64
102879,note_on,159,0,3,,,,,,,,2,,,44,0
102880,note_on,1,0,3,,,,,,,,2,,,46,66
102959,note_on,0,0,2,,,,,,,,1,,,60,0
102959,note_on,0,0,2,,,,,,,,1,,,53,0
102959,note_on,159,0,2,,,,,,,,1,,,65,0
102960,note_on,1,0,2,,,,,,,,1,,,53,64
102960,note_on,0,0,2,,,,,,,,1,,,60,64
102960,note_on,0,0,2,,,,,,,,1,,,65,64
103039,note_on,159,0,3,,,,,,,,2,,,46,0
103040,note_on,1,0,3,,,,,,,,2,,,47,70
103119,note_on,159,0,2,,,,,,,,1,,,65,0
103119,note_on,0,0,2,,,,,,,,1,,,60,0
103119,note_on,0,0,2,,,,,,,,1,,,53,0
103120,note_on,1,0,2,,,,,,,,1,,,53,64
103120,note_on,0,0,2,,,,,,,,1,,,60,64
103120,note_on,0,0,2,,,,,,,,1,,,65,64
103168,control_change,448,0,4,,,,,,,,3,64,0,,
103199,note_on,31,0,4,,,,,,,,3,,,32,0
103199,note_on,159,0,3,,,,,,,,2,,,47,0
103200,note_on,1,0,4,,,,,,,,3,,,32,77
103200,note_on,1,0,3,,,,,,,,2,,,48,74
103267,control_change,67,0,4,,,,,,,,3,64,127,,
103279,note_on,159,0,2,,,,,,,,1,,,65,0
103279,note_on,0,0,2,,,,,,,,1,,,53,0
103279,note_on,0,0,2,,,,,,,,1,,,60,0
103280,note_on,0,0,2,,,,,,,,1,,,60,64
103280,note_on,1,0,2,,,,,,,,1,,,53,64
103280,note_on,0,0,2,,,,,,,,1,,,65,64
103319,note_on,52,0,4,,,,,,,,3,,,32,0
103320,note_on,1,0,4,,,,,,,,3,,,48,79
103359,note_on,159,0,3,,,,,,,,2,,,48,0
103360,note_on,1,0,3,,,,,,,,2,,,49,62
103439,note_on,0,0,2,,,,,,,,1,,,53,0
103439,note_on,0,0,2,,,,,,,,1,,,60,0
103439,note_on,159,0,2,,,,,,,,1,,,65,0
103440,note_on,0,0,2,,,,,,,,1,,,65,64
103440,note_on,1,0,2,,,,,,,,1,,,53,64
103440,note_on,0,0,2,,,,,,,,1,,,60,64
103519,note_on,159,0,3,,,,,,,,2,,,49,0
103520,note_on,1,0,3,,,,,,,,2,,,50,62
103587,control_change,67,0,3,,,,,,,,2,64,0,,
103599,note_on,159,0,2,,,,,,,,1,,,65,0
103599,note_on,0,0,2,,,,,,,,1,,,60,0
103599,note_on,0,0,2,,,,,,,,1,,,53,0
103600,note_on,1,0,2,,,,,,,,1,,,53,64
103600,note_on,0,0,2,,,,,,,,1,,,65,64
103600,note_on,0,0,2,,,,,,,,1,,,60,64
103679,note_on,92,0,3,,,,,,,,2,,,50,0
103679,note_on,359,0,4,,,,,,,,3,,,48,0
103680,note_on,1,0,4,,,,,,,,3,,,33,67
103680,note_on,1,0,3,,,,,,,,2,,,51,62
103680,note_on,0,0,1,,,,,,,,0,,,72,102
103680,note_on,4731,0,1,,,,,,,,0,,,65,102
103759,note_on,0,0,2,,,,,,,,1,,,53,0
103759,note_on,159,0,2,,,,,,,,1,,,65,0
103759,note_on,0,0,2,,,,,,,,1,,,60,0
103760,note_on,1,0,2,,,,,,,,1,,,60,64
103760,note_on,0,0,2,,,,,,,,1,,,63,64
103799,note_on,119,0,4,,,,,,,,3,,,33,0
103800,note_on,1,0,4,,,,,,,,3,,,51,75
103839,note_on,159,0,3,,,,,,,,2,,,51,0
103840,note_on,1,0,3,,,,,,,,2,,,52,62
103908,note_on,108,0,4,,,,,,,,3,,,51,0
103919,note_on,159,0,2,,,,,,,,1,,,63,0
103919,note_on,0,0,2,,,,,,,,1,,,60,0
103920,note_on,0,0,2,,,,,,,,1,,,65,64
103920,note_on,1,0,2,,,,,,,,1,,,63,64
103999,note_on,159,0,3,,,,,,,,2,,,52,0
104000,note_on,1,0,3,,,,,,,,2,,,53,62
104079,note_on,159,0,2,,,,,,,,1,,,65,0
104079,note_on,0,0,2,,,,,,,,1,,,63,0
104080,note_on,0,0,2,,,,,,,,1,,,65,64
104080,note_on,1,0,2,,,,,,,,1,,,63,64
104093,control_change,13,0,2,,,,,,,,1,64,0,,
104112,note_on,432,0,1,,,,,,,,0,,,72,0
104112,note_on,0,0,1,,,,,,,,0,,,65,0
104144,note_on,144,0,3,,,,,,,,2,,,53,0
104160,note_on,252,0,4,,,,,,,,3,,,35,67
104160,control_change,48,0,1,,,,,,,,0,64,127,,
104160,note_on,16,0,3,,,,,,,,2,,,54,62
104168,control_change,75,0,2,,,,,,,,1,64,127,,
104169,set_tempo,3873,1,0,,,,,,593354,,,,,,
104227,control_change,67,0,4,,,,,,,,3,64,0,,
104239,note_on,71,0,2,,,,,,,,1,,,65,0
104239,note_on,0,0,2,,,,,,,,1,,,63,0
104240,note_on,0,0,1,,,,,,,,0,,,73,102
104240,note_on,80,0,1,,,,,,,,0,,,61,102
104240,note_on,1,0,2,,,,,,,,1,,,66,64
104240,note_on,0,0,2,,,,,,,,1,,,70,64
104279,note_on,52,0,4,,,,,,,,3,,,35,0
104280,note_on,1,0,4,,,,,,,,3,,,54,72
104319,note_on,159,0,3,,,,,,,,2,,,54,0
104320,note_on,1,0,3,,,,,,,,2,,,53,62
104399,note_on,0,0,2,,,,,,,,1,,,66,0
104399,note_on,159,0,2,,,,,,,,1,,,70,0
104400,note_on,0,0,2,,,,,,,,1,,,70,64
104400,note_on,1,0,2,,,,,,,,1,,,66,64
104416,control_change,136,0,4,,,,,,,,3,64,127,,
104479,note_on,159,0,3,,,,,,,,2,,,53,0
104480,note_on,1,0,3,,,,,,,,2,,,52,62
104559,note_on,0,0,2,,,,,,,,1,,,66,0
104559,note_on,159,0,2,,,,,,,,1,,,70,0
104560,note_on,1,0,2,,,,,,,,1,,,66,64
104560,note_on,0,0,2,,,,,,,,1,,,70,64
104639,note_on,223,0,4,,,,,,,,3,,,54,0
104639,note_on,159,0,3,,,,,,,,2,,,52,0
104640,note_on,1,0,4,,,,,,,,3,,,36,65
104640,note_on,1,0,3,,,,,,,,2,,,51,62
104656,control_change,16,0,3,,,,,,,,2,64,127,,
104719,note_on,159,0,2,,,,,,,,1,,,70,0
104719,note_on,0,0,2,,,,,,,,1,,,66,0
104720,note_on,1,0,2,,,,,,,,1,,,65,64
104720,note_on,0,0,2,,,,,,,,1,,,68,64
104759,note_on,119,0,4,,,,,,,,3,,,36,0
104760,note_on,1,0,4,,,,,,,,3,,,51,79
104799,note_on,143,0,3,,,,,,,,2,,,51,0
104800,note_on,1,0,3,,,,,,,,2,,,50,62
104879,note_on,159,0,2,,,,,,,,1,,,68,0
104879,note_on,0,0,2,,,,,,,,1,,,65,0
104880,note_on,1,0,2,,,,,,,,1,,,65,64
104880,note_on,0,0,2,,,,,,,,1,,,68,64
104959,note_on,159,0,3,,,,,,,,2,,,50,0
104960,note_on,1,0,3,,,,,,,,2,,,49,62
105039,note_on,0,0,2,,,,,,,,1,,,65,0
105039,note_on,159,0,2,,,,,,,,1,,,68,0
105040,note_on,1,0,2,,,,,,,,1,,,65,64
105040,note_on,0,0,2,,,,,,,,1,,,68,64
105119,note_on,159,0,3,,,,,,,,2,,,49,0
105119,note_on,359,0,4,,,,,,,,3,,,51,0
105120,note_on,1,0,3,,,,,,,,2,,,51,62
105120,control_change,880,0,1,,,,,,,,0,64,0,,
105120,note_on,1,0,4,,,,,,,,3,,,35,64
105199,note_on,0,0,2,,,,,,,,1,,,65,0
105199,note_on,159,0,2,,,,,,,,1,,,68,0
105200,note_on,0,0,2,,,,,,,,1,,,70,64
105200,note_on,1,0,2,,,,,,,,1,,,66,64
105208,control_change,88,0,1,,,,,,,,0,64,127,,
105239,note_on,119,0,4,,,,,,,,3,,,35,0
105240,note_on,1,0,4,,,,,,,,3,,,51,77
105279,note_on,159,0,3,,,,,,,,2,,,51,0
105280,note_on,1,0,3,,,,,,,,2,,,50,62
105359,note_on,0,0,2,,,,,,,,1,,,66,0
105359,note_on,159,0,2,,,,,,,,1,,,70,0
105360,note_on,1,0,2,,,,,,,,1,,,66,64
105360,note_on,0,0,2,,,,,,,,1,,,70,64
105376,control_change,136,0,4,,,,,,,,3,64,0,,
105439,note_on,159,0,3,,,,,,,,2,,,50,0
105440,note_on,1,0,3,,,,,,,,2,,,49,62
105519,note_on,159,0,2,,,,,,,,1,,,70,0
105519,note_on,0,0,2,,,,,,,,1,,,66,0
105519,note_on,0,0,1,,,,,,,,0,,,61,0
105519,note_on,311,0,1,,,,,,,,0,,,73,0
105520,note_on,0,0,1,,,,,,,,0,,,70,91
105520,note_on,1,0,2,,,,,,,,1,,,61,64
105520,note_on,0,0,2,,,,,,,,1,,,66,64
105520,note_on,1,0,1,,,,,,,,0,,,58,91
105599,note_on,159,0,3,,,,,,,,2,,,49,0
105599,note_on,223,0,4,,,,,,,,3,,,51,0
105600,note_on,1,0,4,,,,,,,,3,,,37,67
105600,note_on,1,0,3,,,,,,,,2,,,48,62
105616,control_change,16,0,3,,,,,,,,2,64,0,,
105679,note_on,159,0,2,,,,,,,,1,,,66,0
105679,note_on,159,0,1,,,,,,,,0,,,70,0
105679,note_on,0,0,1,,,,,,,,0,,,58,0
105679,note_on,0,0,2,,,,,,,,1,,,61,0
105680,note_on,1,0,2,,,,,,,,1,,,61,64
105680,note_on,0,0,2,,,,,,,,1,,,66,64
105680,note_on,1,0,1,,,,,,,,0,,,70,102
105680,note_on,0,0,1,,,,,,,,0,,,58,102
105719,note_on,119,0,4,,,,,,,,3,,,37,0
105720,note_on,1,0,4,,,,,,,,3,,,48,76
105759,note_on,143,0,3,,,,,,,,2,,,48,0
105760,note_on,1,0,3,,,,,,,,2,,,47,62
105828,note_on,108,0,4,,,,,,,,3,,,48,0
105839,note_on,0,0,2,,,,,,,,1,,,61,0
105839,note_on,159,0,2,,,,,,,,1,,,66,0
105840,note_on,1,0,2,,,,,,,,1,,,61,64
105840,note_on,0,0,2,,,,,,,,1,,,66,64
105919,note_on,159,0,3,,,,,,,,2,,,47,0
105920,note_on,1,0,3,,,,,,,,2,,,46,62
105999,note_on,0,0,1,,,,,,,,0,,,70,0
105999,note_on,319,0,1,,,,,,,,0,,,58,0
105999,note_on,0,0,2,,,,,,,,1,,,61,0
105999,note_on,159,0,2,,,,,,,,1,,,66,0
106000,note_on,0,0,2,,,,,,,,1,,,58,64
106000,control_change,1,0,2,,,,,,,,1,64,0,,
106000,note_on,0,0,2,,,,,,,,1,,,61,64
106000,note_on,1,0,1,,,,,,,,0,,,54,93
106000,note_on,0,0,1,,,,,,,,0,,,66,93
106064,note_on,144,0,3,,,,,,,,2,,,46,0
106072,note_on,0,0,2,,,,,,,,1,,,58,0
106072,note_on,72,0,2,,,,,,,,1,,,61,0
106072,note_on,72,0,1,,,,,,,,0,,,66,0
106072,note_on,0,0,1,,,,,,,,0,,,54,0
106080,control_change,8,0,2,,,,,,,,1,64,127,,
106080,note_on,0,0,4,,,,,,,,3,,,36,75
106080,control_change,252,0,4,,,,,,,,3,64,127,,
106080,control_change,16,0,3,,,,,,,,2,64,127,,
106080,note_on,0,0,3,,,,,,,,2,,,44,62
106160,note_on,0,0,2,,,,,,,,1,,,60,64
106160,note_on,88,0,1,,,,,,,,0,,,65,102
106160,note_on,0,0,1,,,,,,,,0,,,53,102
106160,note_on,80,0,2,,,,,,,,1,,,56,64
106168,control_change,8,0,1,,,,,,,,0,64,0,,
106239,note_on,159,0,3,,,,,,,,2,,,44,0
106240,note_on,1,0,3,,,,,,,,2,,,45,62
106307,control_change,139,0,1,,,,,,,,0,64,127,,
106319,note_on,0,0,2,,,,,,,,1,,,56,0
106319,note_on,159,0,2,,,,,,,,1,,,60,0
106320,note_on,0,0,2,,,,,,,,1,,,60,64
106320,note_on,1,0,2,,,,,,,,1,,,56,64
106399,note_on,159,0,3,,,,,,,,2,,,45,0
106400,note_on,1,0,3,,,,,,,,2,,,46,62
106479,note_on,0,0,2,,,,,,,,1,,,56,0
106479,note_on,159,0,2,,,,,,,,1,,,60,0
106480,note_on,0,0,2,,,,,,,,1,,,60,64
106480,note_on,1,0,2,,,,,,,,1,,,56,64
106559,note_on,159,0,3,,,,,,,,2,,,46,0
106560,note_on,1,0,3,,,,,,,,2,,,47,62
106639,note_on,0,0,1,,,,,,,,0,,,65,0
106639,note_on,0,0,2,,,,,,,,1,,,56,0
106639,note_on,159,0,2,,,,,,,,1,,,60,0
106639,note_on,332,0,1,,,,,,,,0,,,53,0
106640,note_on,1,0,2,,,,,,,,1,,,60,64
106640,note_on,0,0,1,,,,,,,,0,,,68,96
106640,note_on,1,0,1,,,,,,,,0,,,56,96
106640,note_on,0,0,2,,,,,,,,1,,,65,64
106719,note_on,159,0,3,,,,,,,,2,,,47,0
106720,note_on,1,0,3,,,,,,,,2,,,48,62
106799,note_on,0,0,2,,,,,,,,1,,,60,0
106799,note_on,159,0,2,,,,,,,,1,,,65,0
106800,note_on,1,0,2,,,,,,,,1,,,60,64
106800,note_on,0,0,2,,,,,,,,1,,,65,64
106879,note_on,159,0,3,,,,,,,,2,,,48,0
106880,note_on,1,0,3,,,,,,,,2,,,49,62
106959,note_on,159,0,2,,,,,,,,1,,,65,0
106959,note_on,0,0,2,,,,,,,,1,,,60,0
106960,note_on,0,0,2,,,,,,,,1,,,65,64
106960,note_on,1,0,2,,,,,,,,1,,,60,64
107039,note_on,959,0,4,,,,,,,,3,,,36,0
107039,note_on,159,0,3,,,,,,,,2,,,49,0
107040,control_change,1,0,3,,,,,,,,2,64,0,,
107040,control_change,1,0,4,,,,,,,,3,64,0,,
107040,note_on,0,0,4,,,,,,,,3,,,36,94
107040,note_on,0,0,3,,,,,,,,2,,,49,62
107119,note_on,159,0,2,,,,,,,,1,,,65,0
107119,note_on,0,0,2,,,,,,,,1,,,60,0
107120,note_on,1,0,2,,,,,,,,1,,,58,64
107120,note_on,0,0,2,,,,,,,,1,,,65,64
107199,note_on,159,0,3,,,,,,,,2,,,49,0
107200,note_on,1,0,3,,,,,,,,2,,,48,62
107279,note_on,159,0,2,,,,,,,,1,,,65,0
107279,note_on,0,0,2,,,,,,,,1,,,58,0
107280,note_on,1,0,2,,,,,,,,1,,,58,64
107280,note_on,0,0,2,,,,,,,,1,,,65,64
107359,note_on,159,0,3,,,,,,,,2,,,48,0
107360,note_on,1,0,3,,,,,,,,2,,,47,62
107439,note_on,159,0,2,,,,,,,,1,,,65,0
107439,note_on,0,0,2,,,,,,,,1,,,58,0
107440,note_on,0,0,2,,,,,,,,1,,,65,64
107440,note_on,1,0,2,,,,,,,,1,,,58,64
107519,note_on,479,0,4,,,,,,,,3,,,36,0
107519,note_on,159,0,3,,,,,,,,2,,,47,0
107520,note_on,1,0,3,,,,,,,,2,,,46,62
107520,note_on,1,0,4,,,,,,,,3,,,36,94
107599,note_on,0,0,1,,,,,,,,0,,,56,0
107599,note_on,159,0,2,,,,,,,,1,,,65,0
107599,note_on,0,0,2,,,,,,,,1,,,58,0
107599,note_on,959,0,1,,,,,,,,0,,,68,0
107600,note_on,1,0,1,,,,,,,,0,,,67,97
107600,note_on,0,0,1,,,,,,,,0,,,55,97
107600,note_on,1,0,2,,,,,,,,1,,,58,64
107600,note_on,0,0,2,,,,,,,,1,,,64,64
107679,note_on,159,0,3,,,,,,,,2,,,46,0
107680,note_on,1,0,3,,,,,,,,2,,,43,38
107759,note_on,159,0,2,,,,,,,,1,,,64,0
107759,note_on,0,0,2,,,,,,,,1,,,58,0
107760,note_on,0,0,2,,,,,,,,1,,,64,64
107760,note_on,1,0,2,,,,,,,,1,,,58,64
107839,note_on,159,0,3,,,,,,,,2,,,43,0
107840,note_on,1,0,3,,,,,,,,2,,,48,40
107919,note_on,0,0,2,,,,,,,,1,,,58,0
107919,note_on,159,0,2,,,,,,,,1,,,64,0
107920,control_change,1,0,2,,,,,,,,1,64,0,,
107920,control_change,320,0,1,,,,,,,,0,64,0,,
107920,note_on,0,0,2,,,,,,,,1,,,58,64
107920,note_on,0,0,2,,,,,,,,1,,,64,64
107952,note_on,432,0,4,,,,,,,,3,,,36,0
107984,note_on,144,0,3,,,,,,,,2,,,48,0
107992,note_on,0,0,2,,,,,,,,1,,,58,0
107992,note_on,72,0,1,,,,,,,,0,,,55,0
107992,note_on,0,0,1,,,,,,,,0,,,67,0
107992,note_on,72,0,2,,,,,,,,1,,,64,0
108000,control_change,16,0,3,,,,,,,,2,64,127,,
108000,control_change,8,0,2,,,,,,,,1,64,127,,
108000,note_on,48,0,4,,,,,,,,3,,,41,93
108000,control_change,8,0,1,,,,,,,,0,64,127,,
108027,control_change,27,0,4,,,,,,,,3,64,127,,
108080,note_on,0,0,1,,,,,,,,0,,,65,95
108080,note_on,80,0,1,,,,,,,,0,,,53,95
108160,note_on,0,0,3,,,,,,,,2,,,47,45
108160,note_on,160,0,3,,,,,,,,2,,,44,45
108240,note_on,0,0,2,,,,,,,,1,,,59,64
108240,note_on,240,0,2,,,,,,,,1,,,56,64
108319,note_on,0,0,3,,,,,,,,2,,,44,0
108319,note_on,159,0,3,,,,,,,,2,,,47,0
108320,note_on,1,0,3,,,,,,,,2,,,44,47
108320,note_on,0,0,3,,,,,,,,2,,,48,47
108399,note_on,159,0,2,,,,,,,,1,,,59,0
108399,note_on,0,0,2,,,,,,,,1,,,56,0
108400,note_on,1,0,2,,,,,,,,1,,,56,64
108400,note_on,0,0,2,,,,,,,,1,,,60,64
108479,note_on,452,0,4,,,,,,,,3,,,41,0
108480,note_on,1,0,4,,,,,,,,3,,,39,87
108559,note_on,479,0,1,,,,,,,,0,,,65,0
108559,note_on,0,0,1,,,,,,,,0,,,53,0
108560,note_on,1,0,1,,,,,,,,0,,,60,96
108560,note_on,0,0,1,,,,,,,,0,,,72,96
108639,note_on,0,0,3,,,,,,,,2,,,44,0
108639,note_on,319,0,3,,,,,,,,2,,,48,0
108640,note_on,0,0,3,,,,,,,,2,,,48,51
108640,note_on,1,0,3,,,,,,,,2,,,54,51
108719,note_on,319,0,2,,,,,,,,1,,,60,0
108719,note_on,0,0,2,,,,,,,,1,,,56,0
108720,note_on,1,0,2,,,,,,,,1,,,57,64
108720,note_on,0,0,2,,,,,,,,1,,,66,64
108799,note_on,159,0,3,,,,,,,,2,,,48,0
108799,note_on,0,0,3,,,,,,,,2,,,54,0
108800,note_on,1,0,3,,,,,,,,2,,,53,53
108800,note_on,0,0,3,,,,,,,,2,,,48,53
108879,note_on,159,0,2,,,,,,,,1,,,66,0
108879,note_on,0,0,2,,,,,,,,1,,,57,0
108880,note_on,1,0,2,,,,,,,,1,,,57,64
108880,note_on,0,0,2,,,,,,,,1,,,65,64
108959,note_on,479,0,4,,,,,,,,3,,,39,0
108960,note_on,1,0,4,,,,,,,,3,,,38,80
108960,control_change,80,0,2,,,,,,,,1,64,0,,
108960,control_change,160,0,3,,,,,,,,2,64,0,,
108987,control_change,27,0,4,,,,,,,,3,64,0,,
109039,note_on,0,0,1,,,,,,,,0,,,60,0
109039,note_on,479,0,1,,,,,,,,0,,,72,0
109040,note_on,0,0,1,,,,,,,,0,,,65,97
109040,note_on,1,0,1,,,,,,,,0,,,77,97
109053,control_change,93,0,2,,,,,,,,1,64,127,,
109119,note_on,159,0,3,,,,,,,,2,,,48,0
109119,note_on,0,0,3,,,,,,,,2,,,53,0
109120,note_on,1,0,3,,,,,,,,2,,,54,57
109120,note_on,0,0,3,,,,,,,,2,,,50,57
109199,note_on,0,0,2,,,,,,,,1,,,57,0
109199,note_on,146,0,2,,,,,,,,1,,,65,0
109200,note_on,1,0,2,,,,,,,,1,,,62,64
109200,note_on,0,0,2,,,,,,,,1,,,66,64
109279,note_on,159,0,3,,,,,,,,2,,,50,0
109279,note_on,0,0,3,,,,,,,,2,,,54,0
109280,note_on,0,0,3,,,,,,,,2,,,50,59
109280,note_on,1,0,3,,,,,,,,2,,,53,59
109359,note_on,159,0,2,,,,,,,,1,,,66,0
109359,note_on,0,0,2,,,,,,,,1,,,62,0
109360,note_on,0,0,2,,,,,,,,1,,,65,64
109360,note_on,1,0,2,,,,,,,,1,,,62,64
109439,note_on,452,0,4,,,,,,,,3,,,38,0
109440,note_on,1,0,4,,,,,,,,3,,,37,73
109519,note_on,479,0,1,,,,,,,,0,,,65,0
109519,note_on,0,0,1,,,,,,,,0,,,77,0
109520,note_on,0,0,1,,,,,,,,0,,,70,98
109520,note_on,1,0,1,,,,,,,,0,,,58,98
109599,note_on,0,0,3,,,,,,,,2,,,53,0
109599,note_on,319,0,3,,,,,,,,2,,,50,0
109600,note_on,0,0,3,,,,,,,,2,,,49,70
109600,note_on,1,0,3,,,,,,,,2,,,55,70
109679,note_on,319,0,2,,,,,,,,1,,,65,0
109679,note_on,0,0,2,,,,,,,,1,,,62,0
109680,note_on,1,0,2,,,,,,,,1,,,61,67
109680,note_on,0,0,2,,,,,,,,1,,,67,67
109733,control_change,213,0,1,,,,,,,,0,64,0,,
109759,note_on,159,0,3,,,,,,,,2,,,49,0
109759,note_on,0,0,3,,,,,,,,2,,,55,0
109760,note_on,1,0,3,,,,,,,,2,,,53,73
109760,note_on,0,0,3,,,,,,,,2,,,50,73
109839,note_on,159,0,2,,,,,,,,1,,,67,0
109839,note_on,0,0,2,,,,,,,,1,,,61,0
109840,note_on,1,0,2,,,,,,,,1,,,61,70
109840,note_on,0,0,2,,,,,,,,1,,,65,70
109872,note_on,432,0,4,,,,,,,,3,,,37,0
109904,note_on,144,0,3,,,,,,,,2,,,50,0
109904,note_on,0,0,3,,,,,,,,2,,,53,0
109912,note_on,179,0,1,,,,,,,,0,,,70,0
109912,note_on,0,0,1,,,,,,,,0,,,58,0
109912,note_on,72,0,2,,,,,,,,1,,,65,0
109912,note_on,0,0,2,,,,,,,,1,,,61,0
109920,note_on,0,0,3,,,,,,,,2,,,44,77
109920,control_change,48,0,4,,,,,,,,3,64,127,,
109920,note_on,0,0,4,,,,,,,,3,,,36,95
109920,control_change,16,0,3,,,,,,,,2,64,127,,
110000,note_on,0,0,2,,,,,,,,1,,,65,74
110000,note_on,88,0,2,,,,,,,,1,,,56,74
110000,note_on,0,0,2,,,,,,,,1,,,68,74
110013,control_change,13,0,2,,,,,,,,1,64,0,,
110079,note_on,159,0,3,,,,,,,,2,,,44,0
110080,note_on,1,0,3,,,,,,,,2,,,45,80
110090,control_change,77,0,2,,,,,,,,1,64,127,,
110159,note_on,0,0,2,,,,,,,,1,,,56,0
110159,note_on,0,0,2,,,,,,,,1,,,65,0
110159,note_on,69,0,2,,,,,,,,1,,,68,0
110160,note_on,0,0,2,,,,,,,,1,,,65,77
110160,note_on,0,0,2,,,,,,,,1,,,68,77
110160,note_on,1,0,2,,,,,,,,1,,,57,77
110239,note_on,159,0,3,,,,,,,,2,,,45,0
110240,note_on,1,0,3,,,,,,,,2,,,46,83
110319,note_on,0,0,2,,,,,,,,1,,,57,0
110319,note_on,0,0,2,,,,,,,,1,,,65,0
110319,note_on,159,0,2,,,,,,,,1,,,68,0
110320,note_on,0,0,2,,,,,,,,1,,,68,81
110320,note_on,1,0,2,,,,,,,,1,,,58,81
110320,note_on,0,0,2,,,,,,,,1,,,65,81
110399,note_on,159,0,3,,,,,,,,2,,,46,0
110400,note_on,1,0,3,,,,,,,,2,,,47,87
110479,note_on,159,0,2,,,,,,,,1,,,68,0
110479,note_on,0,0,2,,,,,,,,1,,,65,0
110479,note_on,0,0,2,,,,,,,,1,,,58,0
110480,note_on,1,0,2,,,,,,,,1,,,59,84
110480,note_on,0,0,2,,,,,,,,1,,,65,84
110480,note_on,0,0,2,,,,,,,,1,,,68,84
110559,note_on,159,0,3,,,,,,,,2,,,47,0
110560,note_on,1,0,3,,,,,,,,2,,,48,90
110639,note_on,159,0,2,,,,,,,,1,,,68,0
110639,note_on,0,0,2,,,,,,,,1,,,65,0
110639,note_on,0,0,2,,,,,,,,1,,,59,0
110640,note_on,0,0,2,,,,,,,,1,,,65,87
110640,note_on,0,0,2,,,,,,,,1,,,68,87
110640,note_on,1,0,2,,,,,,,,1,,,60,87
110719,note_on,159,0,3,,,,,,,,2,,,48,0
110720,note_on,1,0,3,,,,,,,,2,,,49,93
110799,note_on,0,0,2,,,,,,,,1,,,65,0
110799,note_on,159,0,2,,,,,,,,1,,,68,0
110799,note_on,0,0,2,,,,,,,,1,,,60,0
110800,note_on,0,0,2,,,,,,,,1,,,68,91
110800,note_on,0,0,2,,,,,,,,1,,,65,91
110800,note_on,1,0,2,,,,,,,,1,,,61,91
110879,note_on,159,0,3,,,,,,,,2,,,49,0
110879,note_on,959,0,4,,,,,,,,3,,,36,0
110880,control_change,1,0,3,,,,,,,,2,64,0,,
110880,note_on,0,0,4,,,,,,,,3,,,36,94
110880,control_change,1,0,4,,,,,,,,3,64,0,,
110880,note_on,0,0,3,,,,,,,,2,,,49,97
110959,note_on,159,0,2,,,,,,,,1,,,68,0
110959,note_on,0,0,2,,,,,,,,1,,,65,0
110959,note_on,0,0,2,,,,,,,,1,,,61,0
110960,note_on,0,0,2,,,,,,,,1,,,67,91
110960,control_change,80,0,3,,,,,,,,2,64,127,,
110960,note_on,1,0,2,,,,,,,,1,,,61,91
110960,note_on,0,0,2,,,,,,,,1,,,65,91
111039,note_on,79,0,3,,,,,,,,2,,,49,0
111040,note_on,1,0,3,,,,,,,,2,,,48,97
111050,control_change,90,0,2,,,,,,,,1,64,0,,
111119,note_on,0,0,2,,,,,,,,1,,,65,0
111119,note_on,0,0,2,,,,,,,,1,,,61,0
111119,note_on,69,0,2,,,,,,,,1,,,67,0
111120,note_on,0,0,2,,,,,,,,1,,,65,88
111120,note_on,0,0,2,,,,,,,,1,,,67,88
111120,note_on,1,0,2,,,,,,,,1,,,60,88
111199,note_on,159,0,3,,,,,,,,2,,,48,0
111200,note_on,1,0,3,,,,,,,,2,,,47,94
111279,note_on,159,0,2,,,,,,,,1,,,67,0
111279,note_on,0,0,2,,,,,,,,1,,,65,0
111279,note_on,0,0,2,,,,,,,,1,,,60,0
111280,note_on,1,0,2,,,,,,,,1,,,59,86
111280,note_on,0,0,2,,,,,,,,1,,,65,86
111280,note_on,0,0,2,,,,,,,,1,,,67,86
111359,note_on,479,0,4,,,,,,,,3,,,36,0
111359,note_on,159,0,3,,,,,,,,2,,,47,0
111360,note_on,1,0,4,,,,,,,,3,,,36,93
111360,note_on,1,0,3,,,,,,,,2,,,49,91
111439,note_on,0,0,2,,,,,,,,1,,,59,0
111439,note_on,159,0,2,,,,,,,,1,,,67,0
111439,note_on,0,0,2,,,,,,,,1,,,65,0
111440,note_on,0,0,2,,,,,,,,1,,,64,83
111440,note_on,1,0,2,,,,,,,,1,,,61,83
111440,note_on,0,0,2,,,,,,,,1,,,67,83
111519,note_on,159,0,3,,,,,,,,2,,,49,0
111520,note_on,1,0,3,,,,,,,,2,,,48,89
111599,note_on,0,0,2,,,,,,,,1,,,61,0
111599,note_on,0,0,2,,,,,,,,1,,,64,0
111599,note_on,159,0,2,,,,,,,,1,,,67,0
111600,note_on,0,0,2,,,,,,,,1,,,67,80
111600,note_on,0,0,2,,,,,,,,1,,,64,80
111600,note_on,1,0,2,,,,,,,,1,,,60,80
111679,note_on,159,0,3,,,,,,,,2,,,48,0
111680,note_on,1,0,3,,,,,,,,2,,,46,86
111759,note_on,159,0,2,,,,,,,,1,,,67,0
111759,note_on,0,0,2,,,,,,,,1,,,60,0
111759,note_on,0,0,2,,,,,,,,1,,,64,0
111760,note_on,1,0,2,,,,,,,,1,,,58,78
111760,note_on,0,0,2,,,,,,,,1,,,64,78
111760,note_on,0,0,2,,,,,,,,1,,,67,78
111790,control_change,110,0,3,,,,,,,,2,64,0,,
111792,note_on,432,0,4,,,,,,,,3,,,36,0
111824,note_on,34,0,3,,,,,,,,2,,,46,0
111832,note_on,72,0,2,,,,,,,,1,,,67,0
111832,note_on,0,0,2,,,,,,,,1,,,64,0
111832,note_on,0,0,2,,,,,,,,1,,,58,0
111840,control_change,16,0,3,,,,,,,,2,64,127,,
111840,note_on,0,0,3,,,,,,,,2,,,49,83
111840,control_change,48,0,4,,,,,,,,3,64,127,,
111840,control_change,8,0,2,,,,,,,,1,64,127,,
111840,note_on,0,0,4,,,,,,,,3,,,41,92
111920,note_on,0,0,2,,,,,,,,1,,,61,75
111920,note_on,0,0,2,,,,,,,,1,,,65,75
111920,note_on,80,0,2,,,,,,,,1,,,56,75
111999,note_on,159,0,3,,,,,,,,2,,,49,0
112000,note_on,1,0,3,,,,,,,,2,,,48,81
112079,note_on,0,0,2,,,,,,,,1,,,61,0
112079,note_on,159,0,2,,,,,,,,1,,,65,0
112079,note_on,0,0,2,,,,,,,,1,,,56,0
112080,note_on,0,0,2,,,,,,,,1,,,65,72
112080,note_on,1,0,2,,,,,,,,1,,,56,72
112080,note_on,0,0,2,,,,,,,,1,,,60,72
112159,note_on,159,0,3,,,,,,,,2,,,48,0
112160,note_on,1,0,3,,,,,,,,2,,,53,78
112239,note_on,159,0,2,,,,,,,,1,,,65,0
112239,note_on,0,0,2,,,,,,,,1,,,56,0
112239,note_on,0,0,2,,,,,,,,1,,,60,0
112240,note_on,0,0,2,,,,,,,,1,,,60,70
112240,note_on,0,0,2,,,,,,,,1,,,65,70
112240,note_on,1,0,2,,,,,,,,1,,,56,70
112272,note_on,432,0,4,,,,,,,,3,,,41,0
112319,note_on,159,0,3,,,,,,,,2,,,53,0
112320,note_on,1,0,3,,,,,,,,2,,,56,74
112399,note_on,0,0,2,,,,,,,,1,,,56,0
112399,note_on,0,0,2,,,,,,,,1,,,60,0
112399,note_on,159,0,2,,,,,,,,1,,,65,0
112400,note_on,0,0,2,,,,,,,,1,,,60,67
112400,note_on,0,0,2,,,,,,,,1,,,65,67
112400,note_on,1,0,2,,,,,,,,1,,,56,67
112479,note_on,159,0,3,,,,,,,,2,,,56,0
112480,note_on,1,0,3,,,,,,,,2,,,48,71
112559,note_on,159,0,2,,,,,,,,1,,,65,0
112559,note_on,0,0,2,,,,,,,,1,,,60,0
112559,note_on,0,0,2,,,,,,,,1,,,56,0
112560,note_on,1,0,2,,,,,,,,1,,,56,64
112560,note_on,0,0,2,,,,,,,,1,,,60,64
112560,note_on,0,0,2,,,,,,,,1,,,65,64
112639,note_on,159,0,3,,,,,,,,2,,,48,0
112640,note_on,1,0,3,,,,,,,,2,,,53,68
112719,note_on,159,0,2,,,,,,,,1,,,65,0
112719,note_on,0,0,2,,,,,,,,1,,,56,0
112719,note_on,0,0,2,,,,,,,,1,,,60,0
112720,note_on,0,0,2,,,,,,,,1,,,65,65
112720,note_on,0,0,2,,,,,,,,1,,,60,65
112720,note_on,1,0,2,,,,,,,,1,,,56,65
112799,note_on,159,0,3,,,,,,,,2,,,53,0
112800,note_on,0,0,3,,,,,,,,2,,,44,65
112800,control_change,528,0,4,,,,,,,,3,64,0,,
112800,control_change,1,0,3,,,,,,,,2,64,0,,
112879,note_on,0,0,2,,,,,,,,1,,,60,0
112879,note_on,159,0,2,,,,,,,,1,,,65,0
112879,note_on,0,0,2,,,,,,,,1,,,56,0
112880,note_on,1,0,2,,,,,,,,1,,,56,64
112880,note_on,0,0,2,,,,,,,,1,,,60,64
112880,note_on,0,0,2,,,,,,,,1,,,65,64
112959,note_on,159,0,3,,,,,,,,2,,,44,0
112960,note_on,1,0,3,,,,,,,,2,,,48,63
113039,note_on,159,0,2,,,,,,,,1,,,65,0
113039,note_on,0,0,2,,,,,,,,1,,,56,0
113039,note_on,0,0,2,,,,,,,,1,,,60,0
113040,note_on,1,0,2,,,,,,,,1,,,56,62
113040,note_on,0,0,2,,,,,,,,1,,,60,62
113040,note_on,0,0,2,,,,,,,,1,,,65,62
113119,note_on,159,0,3,,,,,,,,2,,,48,0
113120,note_on,1,0,3,,,,,,,,2,,,41,60
113199,note_on,0,0,2,,,,,,,,1,,,56,0
113199,note_on,0,0,2,,,,,,,,1,,,60,0
113199,note_on,159,0,2,,,,,,,,1,,,65,0
113200,note_on,0,0,2,,,,,,,,1,,,60,60
113200,note_on,1,0,2,,,,,,,,1,,,56,60
113200,note_on,0,0,2,,,,,,,,1,,,65,60
113279,note_on,159,0,3,,,,,,,,2,,,41,0
113280,note_on,1,0,3,,,,,,,,2,,,44,60
113359,note_on,159,0,2,,,,,,,,1,,,65,0
113359,note_on,0,0,2,,,,,,,,1,,,56,0
113359,note_on,0,0,2,,,,,,,,1,,,60,0
113360,note_on,1,0,2,,,,,,,,1,,,56,58
113360,note_on,0,0,2,,,,,,,,1,,,65,58
113360,note_on,0,0,2,,,,,,,,1,,,60,58
113439,note_on,159,0,3,,,,,,,,2,,,44,0
113440,note_on,1,0,3,,,,,,,,2,,,36,58
113519,note_on,0,0,2,,,,,,,,1,,,56,0
113519,note_on,0,0,2,,,,,,,,1,,,60,0
113519,note_on,159,0,2,,,,,,,,1,,,65,0
113520,note_on,0,0,2,,,,,,,,1,,,65,56
113520,note_on,0,0,2,,,,,,,,1,,,60,56
113520,note_on,1,0,2,,,,,,,,1,,,56,56
113599,note_on,159,0,3,,,,,,,,2,,,36,0
113600,control_change,1,0,3,,,,,,,,2,64,127,,
113600,note_on,0,0,3,,,,,,,,2,,,41,56
113653,control_change,133,0,2,,,,,,,,1,64,0,,
113679,note_on,26,0,2,,,,,,,,1,,,65,0
113679,note_on,0,0,2,,,,,,,,1,,,60,0
113679,note_on,0,0,2,,,,,,,,1,,,56,0
113680,note_on,0,0,2,,,,,,,,1,,,65,55
113680,note_on,1,0,2,,,,,,,,1,,,56,55
113680,note_on,0,0,2,,,,,,,,1,,,60,55
113744,note_on,144,0,3,,,,,,,,2,,,41,0
113752,note_on,0,0,2,,,,,,,,1,,,56,0
113752,note_on,0,0,2,,,,,,,,1,,,60,0
113752,note_on,72,0,2,,,,,,,,1,,,65,0
113760,note_on,16,0,3,,,,,,,,2,,,32,54
113760,control_change,8,0,2,,,,,,,,1,64,127,,
113920,note_on,160,0,2,,,,,,,,1,,,56,52
113920,note_on,0,0,2,,,,,,,,1,,,60,52
113920,note_on,0,0,2,,,,,,,,1,,,65,52
114079,note_on,0,0,2,,,,,,,,1,,,60,0
114079,note_on,0,0,2,,,,,,,,1,,,56,0
114079,note_on,159,0,2,,,,,,,,1,,,65,0
114080,note_on,1,0,2,,,,,,,,1,,,56,50
114080,note_on,0,0,2,,,,,,,,1,,,65,50
114080,note_on,0,0,2,,,,,,,,1,,,60,50
114239,note_on,159,0,2,,,,,,,,1,,,65,0
114239,note_on,0,0,2,,,,,,,,1,,,60,0
114239,note_on,0,0,2,,,,,,,,1,,,56,0
114239,note_on,479,0,3,,,,,,,,2,,,32,0
114240,note_on,1,0,3,,,,,,,,2,,,32,48
114240,note_on,1,0,2,,,,,,,,1,,,56,48
114240,note_on,0,0,2,,,,,,,,1,,,60,48
114240,note_on,0,0,2,,,,,,,,1,,,65,48
114280,note_on,40,0,3,,,,,,,,2,,,36,47
114320,note_on,40,0,3,,,,,,,,2,,,41,47
114377,control_change,57,0,3,,,,,,,,2,64,0,,
114399,note_on,159,0,2,,,,,,,,1,,,65,0
114399,note_on,0,0,2,,,,,,,,1,,,56,0
114399,note_on,0,0,2,,,,,,,,1,,,60,0
114400,note_on,0,0,2,,,,,,,,1,,,65,46
114400,note_on,0,0,2,,,,,,,,1,,,60,46
114400,note_on,1,0,2,,,,,,,,1,,,56,46
114559,note_on,0,0,2,,,,,,,,1,,,60,0
114559,note_on,0,0,2,,,,,,,,1,,,56,0
114559,note_on,159,0,2,,,,,,,,1,,,65,0
114560,note_on,1,0,2,,,,,,,,1,,,56,45
114560,note_on,0,0,2,,,,,,,,1,,,60,45
114560,note_on,0,0,2,,,,,,,,1,,,65,45
114703,control_change,326,0,3,,,,,,,,2,64,127,,
114719,note_on,0,0,2,,,,,,,,1,,,60,0
114719,note_on,0,0,2,,,,,,,,1,,,56,0
114719,note_on,159,0,2,,,,,,,,1,,,65,0
114719,note_on,16,0,3,,,,,,,,2,,,41,0
114719,note_on,0,0,3,,,,,,,,2,,,36,0
114719,note_on,0,0,3,,,,,,,,2,,,32,0
114720,note_on,0,0,2,,,,,,,,1,,,65,43
114720,note_on,0,0,2,,,,,,,,1,,,60,43
114720,note_on,0,0,2,,,,,,,,1,,,56,43
114720,control_change,1,0,2,,,,,,,,1,64,0,,
114720,note_on,1,0,3,,,,,,,,2,,,32,42
114760,note_on,40,0,3,,,,,,,,2,,,36,42
114800,note_on,40,0,3,,,,,,,,2,,,41,41
114879,note_on,159,0,2,,,,,,,,1,,,65,0
114879,note_on,0,0,2,,,,,,,,1,,,56,0
114879,note_on,0,0,2,,,,,,,,1,,,60,0
114880,note_on,1,0,2,,,,,,,,1,,,56,41
114880,note_on,0,0,2,,,,,,,,1,,,60,41
114880,note_on,0,0,2,,,,,,,,1,,,65,41
115039,note_on,0,0,2,,,,,,,,1,,,56,0
115039,note_on,159,0,2,,,,,,,,1,,,65,0
115039,note_on,0,0,2,,,,,,,,1,,,60,0
115040,note_on,1,0,2,,,,,,,,1,,,56,39
115040,note_on,0,0,2,,,,,,,,1,,,60,39
115040,note_on,0,0,2,,,,,,,,1,,,65,39
115199,note_on,159,0,2,,,,,,,,1,,,65,0
115199,note_on,0,0,2,,,,,,,,1,,,60,0
115199,note_on,0,0,2,,,,,,,,1,,,56,0
115199,note_on,399,0,3,,,,,,,,2,,,41,0
115199,note_on,0,0,3,,,,,,,,2,,,36,0
115199,note_on,0,0,3,,,,,,,,2,,,32,0
115200,note_on,1,0,3,,,,,,,,2,,,32,36
115200,note_on,1,0,2,,,,,,,,1,,,56,37
115200,note_on,0,0,2,,,,,,,,1,,,65,37
115200,note_on,0,0,2,,,,,,,,1,,,60,37
115240,note_on,40,0,3,,,,,,,,2,,,36,36
115280,note_on,40,0,3,,,,,,,,2,,,41,35
115359,note_on,0,0,2,,,,,,,,1,,,56,0
115359,note_on,0,0,2,,,,,,,,1,,,60,0
115359,note_on,159,0,2,,,,,,,,1,,,65,0
115360,note_on,0,0,2,,,,,,,,1,,,65,36
115360,note_on,1,0,2,,,,,,,,1,,,56,36
115360,note_on,0,0,2,,,,,,,,1,,,60,36
115428,note_on,0,0,3,,,,,,,,2,,,32,0
115428,note_on,0,0,3,,,,,,,,2,,,36,0
115428,note_on,148,0,3,,,,,,,,2,,,41,0
115509,control_change,81,0,3,,,,,,,,2,64,0,,
115519,note_on,159,0,2,,,,,,,,1,,,65,0
115519,note_on,0,0,2,,,,,,,,1,,,60,0
115519,note_on,0,0,2,,,,,,,,1,,,56,0
115520,note_on,0,0,2,,,,,,,,1,,,60,34
115520,note_on,0,0,2,,,,,,,,1,,,65,34
115520,note_on,1,0,2,,,,,,,,1,,,56,34
115664,note_on,144,0,2,,,,,,,,1,,,65,0
115664,note_on,0,0,2,,,,,,,,1,,,60,0
115664,note_on,0,0,2,,,,,,,,1,,,56,0
115680,note_on,16,0,2,,,,,,,,1,,,55,36
115680,time_signature,11511,1,0,6,8,12,8,,,,,,,,
115680,set_tempo,0,1,0,,,,,,428571,,,,,,
115680,control_change,2880,0,4,,,,,,,,3,64,127,,
115680,note_on,0,0,3,,,,,,,,2,,,43,51
115680,note_on,0,0,4,,,,,,,,3,,,31,51
115680,control_change,171,0,3,,,,,,,,2,64,127,,
115739,note_on,59,0,4,,,,,,,,3,,,31,0
115740,note_on,1,0,4,,,,,,,,3,,,43,76
115799,note_on,119,0,2,,,,,,,,1,,,55,0
115799,note_on,119,0,3,,,,,,,,2,,,43,0
115800,note_on,1,0,3,,,,,,,,2,,,47,51
115800,note_on,1,0,2,,,,,,,,1,,,59,38
115919,note_on,119,0,2,,,,,,,,1,,,59,0
115919,note_on,119,0,3,,,,,,,,2,,,47,0
115920,note_on,1,0,3,,,,,,,,2,,,50,51
115920,note_on,1,0,2,,,,,,,,1,,,62,40
116039,note_on,119,0,3,,,,,,,,2,,,50,0
116039,note_on,119,0,2,,,,,,,,1,,,62,0
116040,note_on,1,0,3,,,,,,,,2,,,53,51
116040,note_on,1,0,2,,,,,,,,1,,,65,41
116159,note_on,119,0,3,,,,,,,,2,,,53,0
116159,note_on,119,0,2,,,,,,,,1,,,65,0
116160,note_on,1,0,3,,,,,,,,2,,,50,51
116160,note_on,1,0,2,,,,,,,,1,,,62,43
116279,note_on,119,0,2,,,,,,,,1,,,62,0
116279,note_on,119,0,3,,,,,,,,2,,,50,0
116280,note_on,1,0,3,,,,,,,,2,,,47,51
116280,note_on,1,0,2,,,,,,,,1,,,59,44
116316,control_change,36,0,3,,,,,,,,2,64,0,,
116333,control_change,593,0,4,,,,,,,,3,64,0,,
116399,note_on,66,0,4,,,,,,,,3,,,43,0
116399,note_on,119,0,2,,,,,,,,1,,,59,0
116399,note_on,83,0,3,,,,,,,,2,,,47,0
116400,note_on,1,0,2,,,,,,,,1,,,56,45
116400,note_on,1,0,4,,,,,,,,3,,,32,67
116400,control_change,1,0,3,,,,,,,,2,64,127,,
116400,note_on,0,0,3,,,,,,,,2,,,44,51
116413,control_change,13,0,4,,,,,,,,3,64,127,,
116459,note_on,46,0,4,,,,,,,,3,,,32,0
116460,note_on,1,0,4,,,,,,,,3,,,44,76
116514,note_on,54,0,4,,,,,,,,3,,,44,0
116519,note_on,119,0,2,,,,,,,,1,,,56,0
116519,note_on,119,0,3,,,,,,,,2,,,44,0
116520,note_on,1,0,3,,,,,,,,2,,,47,51
116520,note_on,1,0,2,,,,,,,,1,,,59,47
116639,note_on,119,0,2,,,,,,,,1,,,59,0
116639,note_on,119,0,3,,,,,,,,2,,,47,0
116640,note_on,1,0,3,,,,,,,,2,,,50,50
116640,note_on,1,0,2,,,,,,,,1,,,62,48
116759,note_on,119,0,3,,,,,,,,2,,,50,0
116759,note_on,119,0,2,,,,,,,,1,,,62,0
116760,note_on,1,0,3,,,,,,,,2,,,53,52
116760,note_on,1,0,2,,,,,,,,1,,,65,50
116879,note_on,119,0,2,,,,,,,,1,,,65,0
116879,note_on,119,0,3,,,,,,,,2,,,53,0
116880,note_on,1,0,2,,,,,,,,1,,,62,52
116880,note_on,1,0,3,,,,,,,,2,,,50,53
116999,note_on,119,0,2,,,,,,,,1,,,62,0
116999,note_on,119,0,3,,,,,,,,2,,,50,0
117000,note_on,1,0,2,,,,,,,,1,,,59,53
117000,note_on,1,0,3,,,,,,,,2,,,47,54
117036,control_change,36,0,3,,,,,,,,2,64,0,,
117040,control_change,526,0,4,,,,,,,,3,64,0,,
117087,set_tempo,1407,1,0,,,,,,417449,,,,,,
117108,note_on,108,0,2,,,,,,,,1,,,59,0
117108,note_on,72,0,3,,,,,,,,2,,,47,0
117120,control_change,0,0,2,,,,,,,,1,64,127,,
117120,control_change,80,0,4,,,,,,,,3,64,127,,
117120,note_on,0,0,4,,,,,,,,3,,,31,66
117120,control_change,12,0,3,,,,,,,,2,64,127,,
117120,note_on,0,0,3,,,,,,,,2,,,43,56
117120,note_on,12,0,2,,,,,,,,1,,,55,55
117179,note_on,59,0,4,,,,,,,,3,,,31,0
117180,note_on,1,0,4,,,,,,,,3,,,43,75
117239,note_on,119,0,2,,,,,,,,1,,,55,0
117239,note_on,119,0,3,,,,,,,,2,,,43,0
117240,note_on,1,0,2,,,,,,,,1,,,59,56
117240,note_on,1,0,3,,,,,,,,2,,,47,57
117359,note_on,119,0,2,,,,,,,,1,,,59,0
117359,note_on,119,0,3,,,,,,,,2,,,47,0
117360,note_on,1,0,3,,,,,,,,2,,,50,59
117360,note_on,1,0,2,,,,,,,,1,,,62,57
117479,note_on,119,0,2,,,,,,,,1,,,62,0
117479,note_on,119,0,3,,,,,,,,2,,,50,0
117480,note_on,1,0,2,,,,,,,,1,,,65,59
117480,note_on,1,0,3,,,,,,,,2,,,53,60
117599,note_on,119,0,3,,,,,,,,2,,,53,0
117599,note_on,119,0,2,,,,,,,,1,,,65,0
117600,note_on,1,0,3,,,,,,,,2,,,50,62
117600,note_on,1,0,2,,,,,,,,1,,,62,60
117707,control_change,527,0,4,,,,,,,,3,64,0,,
117719,note_on,119,0,3,,,,,,,,2,,,50,0
117719,note_on,119,0,2,,,,,,,,1,,,62,0
117720,control_change,1,0,3,,,,,,,,2,64,0,,
117720,note_on,0,0,3,,,,,,,,2,,,47,64
117720,note_on,1,0,2,,,,,,,,1,,,59,62
117816,control_change,96,0,3,,,,,,,,2,64,127,,
117839,note_on,23,0,3,,,,,,,,2,,,47,0
117839,note_on,119,0,2,,,,,,,,1,,,59,0
117839,note_on,132,0,4,,,,,,,,3,,,43,0
117840,note_on,1,0,3,,,,,,,,2,,,44,64
117840,note_on,1,0,4,,,,,,,,3,,,32,64
117840,note_on,1,0,2,,,,,,,,1,,,56,64
117864,control_change,24,0,2,,,,,,,,1,64,127,,
117888,control_change,48,0,4,,,,,,,,3,64,127,,
117899,note_on,11,0,4,,,,,,,,3,,,32,0
117900,note_on,1,0,4,,,,,,,,3,,,44,74
117954,note_on,54,0,4,,,,,,,,3,,,44,0
117959,note_on,95,0,2,,,,,,,,1,,,56,0
117959,note_on,119,0,3,,,,,,,,2,,,44,0
117960,note_on,1,0,2,,,,,,,,1,,,59,65
117960,note_on,1,0,3,,,,,,,,2,,,47,66
118079,note_on,119,0,3,,,,,,,,2,,,47,0
118079,note_on,119,0,2,,,,,,,,1,,,59,0
118080,note_on,1,0,2,,,,,,,,1,,,62,67
118080,note_on,1,0,3,,,,,,,,2,,,50,68
118199,note_on,119,0,2,,,,,,,,1,,,62,0
118199,note_on,119,0,3,,,,,,,,2,,,50,0
118200,note_on,1,0,3,,,,,,,,2,,,53,69
118200,note_on,1,0,2,,,,,,,,1,,,65,68
118319,note_on,119,0,2,,,,,,,,1,,,65,0
118319,note_on,119,0,3,,,,,,,,2,,,53,0
118320,note_on,1,0,3,,,,,,,,2,,,50,71
118320,note_on,1,0,2,,,,,,,,1,,,62,69
118439,note_on,119,0,2,,,,,,,,1,,,62,0
118439,note_on,119,0,3,,,,,,,,2,,,50,0
118440,note_on,1,0,2,,,,,,,,1,,,59,71
118440,note_on,1,0,3,,,,,,,,2,,,47,72
118500,control_change,60,0,3,,,,,,,,2,64,0,,
118512,control_change,72,0,2,,,,,,,,1,64,0,,
118513,control_change,1,0,2,,,,,,,,1,64,127,,
118524,control_change,570,0,4,,,,,,,,3,64,0,,
118548,note_on,48,0,3,,,,,,,,2,,,47,0
118548,note_on,35,0,2,,,,,,,,1,,,59,0
118560,note_on,0,0,4,,,,,,,,3,,,31,51
118560,control_change,36,0,4,,,,,,,,3,64,127,,
118560,note_on,12,0,3,,,,,,,,2,,,43,74
118560,note_on,0,0,1,,,,,,,,0,,,67,76
118560,note_on,8648,0,1,,,,,,,,0,,,55,76
118560,note_on,12,0,2,,,,,,,,1,,,55,72
118608,control_change,48,0,3,,,,,,,,2,64,127,,
118619,note_on,59,0,4,,,,,,,,3,,,31,0
118620,note_on,1,0,4,,,,,,,,3,,,43,51
118679,note_on,119,0,2,,,,,,,,1,,,55,0
118679,note_on,71,0,3,,,,,,,,2,,,43,0
118680,note_on,1,0,2,,,,,,,,1,,,59,70
118680,note_on,1,0,3,,,,,,,,2,,,47,75
118799,note_on,119,0,3,,,,,,,,2,,,47,0
118799,note_on,119,0,2,,,,,,,,1,,,59,0
118800,note_on,1,0,3,,,,,,,,2,,,50,75
118800,note_on,1,0,2,,,,,,,,1,,,62,69
118919,note_on,119,0,2,,,,,,,,1,,,62,0
118919,note_on,119,0,3,,,,,,,,2,,,50,0
118920,note_on,1,0,3,,,,,,,,2,,,53,74
118920,note_on,1,0,2,,,,,,,,1,,,65,68
119039,note_on,119,0,2,,,,,,,,1,,,65,0
119039,note_on,119,0,3,,,,,,,,2,,,53,0
119040,note_on,1,0,3,,,,,,,,2,,,50,72
119040,note_on,1,0,2,,,,,,,,1,,,62,68
119052,control_change,432,0,4,,,,,,,,3,64,0,,
119159,note_on,119,0,3,,,,,,,,2,,,50,0
119159,note_on,119,0,2,,,,,,,,1,,,62,0
119160,note_on,0,0,3,,,,,,,,2,,,47,72
119160,note_on,1,0,2,,,,,,,,1,,,59,68
119160,control_change,1,0,3,,,,,,,,2,64,0,,
119185,control_change,25,0,2,,,,,,,,1,64,0,,
119220,control_change,168,0,4,,,,,,,,3,64,127,,
119257,control_change,72,0,2,,,,,,,,1,64,127,,
119279,note_on,119,0,3,,,,,,,,2,,,47,0
119279,note_on,59,0,4,,,,,,,,3,,,43,0
119279,note_on,22,0,2,,,,,,,,1,,,59,0
119280,note_on,1,0,4,,,,,,,,3,,,32,51
119280,note_on,1,0,2,,,,,,,,1,,,56,67
119280,note_on,1,0,3,,,,,,,,2,,,44,71
119292,control_change,12,0,3,,,,,,,,2,64,127,,
119339,note_on,59,0,4,,,,,,,,3,,,32,0
119340,note_on,1,0,4,,,,,,,,3,,,44,51
119394,note_on,54,0,4,,,,,,,,3,,,44,0
119399,note_on,107,0,3,,,,,,,,2,,,44,0
119399,note_on,119,0,2,,,,,,,,1,,,56,0
119400,note_on,1,0,3,,,,,,,,2,,,47,70
119400,note_on,1,0,2,,,,,,,,1,,,59,66
119519,note_on,119,0,3,,,,,,,,2,,,47,0
119519,note_on,119,0,2,,,,,,,,1,,,59,0
119520,note_on,1,0,2,,,,,,,,1,,,62,65
119520,note_on,1,0,3,,,,,,,,2,,,50,69
119639,note_on,119,0,3,,,,,,,,2,,,50,0
119639,note_on,119,0,2,,,,,,,,1,,,62,0
119640,note_on,1,0,3,,,,,,,,2,,,53,68
119640,note_on,1,0,2,,,,,,,,1,,,65,64
119759,note_on,0,0,1,,,,,,,,0,,,55,0
119759,note_on,119,0,3,,,,,,,,2,,,53,0
119759,note_on,1199,0,1,,,,,,,,0,,,67,0
119759,note_on,119,0,2,,,,,,,,1,,,65,0
119760,note_on,0,0,1,,,,,,,,0,,,56,76
119760,note_on,1,0,1,,,,,,,,0,,,68,76
119760,note_on,1,0,3,,,,,,,,2,,,50,67
119760,note_on,1,0,2,,,,,,,,1,,,62,64
119879,note_on,119,0,3,,,,,,,,2,,,50,0
119879,note_on,119,0,2,,,,,,,,1,,,62,0
119880,note_on,1,0,3,,,,,,,,2,,,47,66
119880,note_on,1,0,2,,,,,,,,1,,,59,63
119905,control_change,25,0,2,,,,,,,,1,64,0,,
119906,control_change,1,0,2,,,,,,,,1,64,127,,
119928,control_change,534,0,4,,,,,,,,3,64,0,,
119964,control_change,84,0,3,,,,,,,,2,64,0,,
119976,note_on,0,0,1,,,,,,,,0,,,68,0
119976,note_on,216,0,1,,,,,,,,0,,,56,0
119988,note_on,82,0,2,,,,,,,,1,,,59,0
119988,note_on,24,0,3,,,,,,,,2,,,47,0
120000,control_change,24,0,1,,,,,,,,0,64,127,,
120000,note_on,12,0,2,,,,,,,,1,,,55,63
120000,note_on,0,0,1,,,,,,,,0,,,67,76
120000,note_on,12,0,3,,,,,,,,2,,,43,65
120000,note_on,72,0,4,,,,,,,,3,,,31,51
120000,note_on,0,0,1,,,,,,,,0,,,55,76
120012,control_change,12,0,4,,,,,,,,3,64,127,,
120059,note_on,47,0,4,,,,,,,,3,,,31,0
120060,note_on,1,0,4,,,,,,,,3,,,43,51
120096,control_change,96,0,3,,,,,,,,2,64,127,,
120119,note_on,23,0,3,,,,,,,,2,,,43,0
120119,note_on,119,0,2,,,,,,,,1,,,55,0
120120,note_on,1,0,3,,,,,,,,2,,,47,64
120120,note_on,1,0,2,,,,,,,,1,,,59,62
120239,note_on,119,0,3,,,,,,,,2,,,47,0
120239,note_on,119,0,2,,,,,,,,1,,,59,0
120240,note_on,1,0,2,,,,,,,,1,,,62,61
120240,note_on,1,0,3,,,,,,,,2,,,50,64
120359,note_on,119,0,2,,,,,,,,1,,,62,0
120359,note_on,119,0,3,,,,,,,,2,,,50,0
120360,note_on,1,0,3,,,,,,,,2,,,53,63
120360,note_on,1,0,2,,,,,,,,1,,,65,60
120479,note_on,119,0,2,,,,,,,,1,,,65,0
120479,note_on,119,0,3,,,,,,,,2,,,53,0
120479,note_on,0,0,1,,,,,,,,0,,,55,0
120479,note_on,479,0,1,,,,,,,,0,,,67,0
120480,note_on,1,0,2,,,,,,,,1,,,62,60
120480,note_on,1,0,3,,,,,,,,2,,,50,61
120480,note_on,1,0,1,,,,,,,,0,,,55,76
120480,note_on,0,0,1,,,,,,,,0,,,67,76
120564,control_change,504,0,4,,,,,,,,3,64,0,,
120578,control_change,98,0,2,,,,,,,,1,64,0,,
120588,control_change,108,0,3,,,,,,,,2,64,0,,
120599,note_on,21,0,2,,,,,,,,1,,,62,0
120599,note_on,11,0,3,,,,,,,,2,,,50,0
120600,note_on,1,0,3,,,,,,,,2,,,47,60
120600,note_on,1,0,2,,,,,,,,1,,,59,59
120650,control_change,50,0,2,,,,,,,,1,64,127,,
120719,note_on,0,0,1,,,,,,,,0,,,55,0
120719,note_on,239,0,1,,,,,,,,0,,,67,0
120719,note_on,69,0,2,,,,,,,,1,,,59,0
120719,note_on,119,0,3,,,,,,,,2,,,47,0
120719,note_on,155,0,4,,,,,,,,3,,,43,0
120720,note_on,1,0,4,,,,,,,,3,,,32,51
120720,note_on,1,0,3,,,,,,,,2,,,44,60
120720,note_on,0,0,1,,,,,,,,0,,,56,76
120720,note_on,1,0,2,,,,,,,,1,,,56,58
120720,note_on,1,0,1,,,,,,,,0,,,68,76
120756,control_change,36,0,3,,,,,,,,2,64,127,,
120779,note_on,59,0,4,,,,,,,,3,,,32,0
120780,note_on,0,0,4,,,,,,,,3,,,44,51
120780,control_change,1,0,4,,,,,,,,3,64,127,,
120834,note_on,54,0,4,,,,,,,,3,,,44,0
120839,note_on,119,0,2,,,,,,,,1,,,56,0
120839,note_on,83,0,3,,,,,,,,2,,,44,0
120840,note_on,1,0,2,,,,,,,,1,,,59,58
120840,note_on,1,0,3,,,,,,,,2,,,47,59
120959,note_on,119,0,2,,,,,,,,1,,,59,0
120959,note_on,119,0,3,,,,,,,,2,,,47,0
120960,note_on,1,0,2,,,,,,,,1,,,62,57
120960,note_on,1,0,3,,,,,,,,2,,,50,58
120960,control_change,240,0,1,,,,,,,,0,64,0,,
121079,note_on,119,0,3,,,,,,,,2,,,50,0
121079,note_on,119,0,1,,,,,,,,0,,,56,0
121079,note_on,119,0,2,,,,,,,,1,,,62,0
121079,note_on,0,0,1,,,,,,,,0,,,68,0
121080,note_on,1,0,3,,,,,,,,2,,,53,56
121080,note_on,1,0,2,,,,,,,,1,,,65,56
121080,note_on,0,0,1,,,,,,,,0,,,77,76
121080,note_on,1,0,1,,,,,,,,0,,,65,76
121199,note_on,119,0,3,,,,,,,,2,,,53,0
121199,note_on,119,0,1,,,,,,,,0,,,77,0
121199,note_on,0,0,1,,,,,,,,0,,,65,0
121199,note_on,119,0,2,,,,,,,,1,,,65,0
121200,note_on,1,0,3,,,,,,,,2,,,50,56
121200,note_on,1,0,1,,,,,,,,0,,,74,76
121200,note_on,0,0,1,,,,,,,,0,,,62,76
121200,note_on,1,0,2,,,,,,,,1,,,62,56
121298,control_change,98,0,2,,,,,,,,1,64,0,,
121299,control_change,1,0,2,,,,,,,,1,64,127,,
121319,note_on,20,0,2,,,,,,,,1,,,62,0
121319,note_on,119,0,3,,,,,,,,2,,,50,0
121320,note_on,1,0,2,,,,,,,,1,,,60,55
121320,note_on,1,0,3,,,,,,,,2,,,48,55
121333,control_change,13,0,3,,,,,,,,2,64,0,,
121416,note_on,216,0,1,,,,,,,,0,,,62,0
121416,note_on,0,0,1,,,,,,,,0,,,74,0
121428,note_on,108,0,2,,,,,,,,1,,,60,0
121428,note_on,95,0,3,,,,,,,,2,,,48,0
121440,note_on,12,0,2,,,,,,,,1,,,59,54
121440,control_change,24,0,1,,,,,,,,0,64,127,,
121440,note_on,0,0,1,,,,,,,,0,,,59,76
121440,note_on,0,0,1,,,,,,,,0,,,71,76
121440,note_on,0,0,4,,,,,,,,3,,,31,67
121440,control_change,606,0,4,,,,,,,,3,64,0,,
121440,note_on,12,0,3,,,,,,,,2,,,47,51
121467,control_change,27,0,3,,,,,,,,2,64,127,,
121499,note_on,59,0,4,,,,,,,,3,,,31,0
121500,note_on,1,0,4,,,,,,,,3,,,43,67
121536,control_change,36,0,4,,,,,,,,3,64,127,,
121559,note_on,92,0,3,,,,,,,,2,,,47,0
121559,note_on,119,0,2,,,,,,,,1,,,59,0
121560,note_on,1,0,3,,,,,,,,2,,,50,51
121560,note_on,1,0,2,,,,,,,,1,,,62,51
121679,note_on,119,0,3,,,,,,,,2,,,50,0
121679,note_on,119,0,2,,,,,,,,1,,,62,0
121680,note_on,1,0,3,,,,,,,,2,,,53,51
121680,note_on,1,0,2,,,,,,,,1,,,65,51
121799,note_on,119,0,3,,,,,,,,2,,,53,0
121799,note_on,119,0,2,,,,,,,,1,,,65,0
121800,note_on,1,0,3,,,,,,,,2,,,50,51
121800,note_on,1,0,2,,,,,,,,1,,,62,51
121919,note_on,119,0,2,,,,,,,,1,,,62,0
121919,note_on,119,0,3,,,,,,,,2,,,50,0
121920,note_on,1,0,2,,,,,,,,1,,,59,51
121920,note_on,1,0,3,,,,,,,,2,,,47,51
121971,control_change,51,0,2,,,,,,,,1,64,0,,
122028,control_change,492,0,4,,,,,,,,3,64,0,,
122039,note_on,68,0,2,,,,,,,,1,,,59,0
122039,note_on,119,0,3,,,,,,,,2,,,47,0
122040,note_on,1,0,2,,,,,,,,1,,,55,51
122040,note_on,1,0,3,,,,,,,,2,,,43,51
122043,control_change,3,0,2,,,,,,,,1,64,127,,
122064,control_change,24,0,3,,,,,,,,2,64,0,,
122148,control_change,120,0,4,,,,,,,,3,64,127,,
122159,note_on,116,0,2,,,,,,,,1,,,55,0
122159,note_on,95,0,3,,,,,,,,2,,,43,0
122159,note_on,11,0,4,,,,,,,,3,,,43,0
122160,note_on,1,0,4,,,,,,,,3,,,32,66
122160,note_on,1,0,3,,,,,,,,2,,,44,51
122160,note_on,1,0,2,,,,,,,,1,,,56,51
122184,control_change,24,0,3,,,,,,,,2,64,127,,
122219,note_on,59,0,4,,,,,,,,3,,,32,0
122220,note_on,1,0,4,,,,,,,,3,,,44,66
122274,note_on,54,0,4,,,,,,,,3,,,44,0
122279,note_on,119,0,2,,,,,,,,1,,,56,0
122279,note_on,95,0,3,,,,,,,,2,,,44,0
122280,note_on,1,0,2,,,,,,,,1,,,59,51
122280,note_on,1,0,3,,,,,,,,2,,,47,51
122399,note_on,119,0,2,,,,,,,,1,,,59,0
122399,note_on,119,0,3,,,,,,,,2,,,47,0
122400,note_on,1,0,3,,,,,,,,2,,,50,51
122400,note_on,1,0,2,,,,,,,,1,,,62,51
122400,control_change,960,0,1,,,,,,,,0,64,0,,
122519,note_on,119,0,3,,,,,,,,2,,,50,0
122519,note_on,119,0,2,,,,,,,,1,,,62,0
122520,note_on,1,0,3,,,,,,,,2,,,53,51
122520,note_on,1,0,2,,,,,,,,1,,,65,51
122639,note_on,239,0,1,,,,,,,,0,,,71,0
122639,note_on,119,0,2,,,,,,,,1,,,65,0
122639,note_on,0,0,1,,,,,,,,0,,,59,0
122639,note_on,119,0,3,,,,,,,,2,,,53,0
122640,note_on,1,0,3,,,,,,,,2,,,50,51
122640,note_on,1,0,2,,,,,,,,1,,,62,51
122640,note_on,1,0,1,,,,,,,,0,,,56,83
122640,note_on,0,0,1,,,,,,,,0,,,68,83
122691,control_change,51,0,2,,,,,,,,1,64,0,,
122692,control_change,1,0,2,,,,,,,,1,64,127,,
122759,note_on,119,0,3,,,,,,,,2,,,50,0
122759,note_on,67,0,2,,,,,,,,1,,,62,0
122760,note_on,1,0,2,,,,,,,,1,,,59,51
122760,note_on,1,0,3,,,,,,,,2,,,47,51
122784,control_change,24,0,3,,,,,,,,2,64,0,,
122808,control_change,534,0,4,,,,,,,,3,64,0,,
122856,note_on,216,0,1,,,,,,,,0,,,68,0
122856,note_on,0,0,1,,,,,,,,0,,,56,0
122868,note_on,108,0,2,,,,,,,,1,,,59,0
122868,note_on,84,0,3,,,,,,,,2,,,47,0
122880,control_change,72,0,4,,,,,,,,3,64,127,,
122880,control_change,0,0,3,,,,,,,,2,64,127,,
122880,note_on,12,0,3,,,,,,,,2,,,43,51
122880,note_on,0,0,1,,,,,,,,0,,,55,85
122880,control_change,24,0,1,,,,,,,,0,64,127,,
122880,note_on,12,0,2,,,,,,,,1,,,55,51
122880,note_on,0,0,1,,,,,,,,0,,,67,85
122880,note_on,0,0,4,,,,,,,,3,,,31,65
122939,note_on,59,0,4,,,,,,,,3,,,31,0
122940,note_on,1,0,4,,,,,,,,3,,,43,65
122999,note_on,119,0,3,,,,,,,,2,,,43,0
122999,note_on,119,0,2,,,,,,,,1,,,55,0
123000,note_on,1,0,3,,,,,,,,2,,,47,55
123000,note_on,1,0,2,,,,,,,,1,,,59,53
123119,note_on,119,0,2,,,,,,,,1,,,59,0
123119,note_on,119,0,3,,,,,,,,2,,,47,0
123120,note_on,1,0,2,,,,,,,,1,,,62,56
123120,note_on,1,0,3,,,,,,,,2,,,50,56
123239,note_on,119,0,2,,,,,,,,1,,,62,0
123239,note_on,119,0,3,,,,,,,,2,,,50,0
123240,note_on,1,0,2,,,,,,,,1,,,65,57
123240,note_on,1,0,3,,,,,,,,2,,,53,58
123359,note_on,119,0,2,,,,,,,,1,,,65,0
123359,note_on,479,0,1,,,,,,,,0,,,67,0
123359,note_on,0,0,1,,,,,,,,0,,,55,0
123359,note_on,119,0,3,,,,,,,,2,,,53,0
123360,note_on,1,0,1,,,,,,,,0,,,55,87
123360,note_on,1,0,3,,,,,,,,2,,,50,60
123360,note_on,1,0,2,,,,,,,,1,,,62,59
123360,note_on,0,0,1,,,,,,,,0,,,67,87
123364,control_change,4,0,2,,,,,,,,1,64,0,,
123436,control_change,72,0,2,,,,,,,,1,64,127,,
123479,note_on,43,0,2,,,,,,,,1,,,62,0
123479,note_on,119,0,3,,,,,,,,2,,,50,0
123480,note_on,1,0,2,,,,,,,,1,,,59,61
123480,note_on,1,0,3,,,,,,,,2,,,47,61
123552,control_change,72,0,3,,,,,,,,2,64,0,,
123599,note_on,659,0,4,,,,,,,,3,,,43,0
123599,note_on,47,0,3,,,,,,,,2,,,47,0
123599,note_on,119,0,2,,,,,,,,1,,,59,0
123599,note_on,239,0,1,,,,,,,,0,,,67,0
123599,note_on,0,0,1,,,,,,,,0,,,55,0
123600,note_on,1,0,3,,,,,,,,2,,,44,63
123600,note_on,1,0,1,,,,,,,,0,,,68,88
123600,note_on,0,0,1,,,,,,,,0,,,56,88
123600,note_on,1,0,2,,,,,,,,1,,,56,63
123600,note_on,1,0,4,,,,,,,,3,,,32,75
123624,control_change,24,0,3,,,,,,,,2,64,127,,
123659,note_on,59,0,4,,,,,,,,3,,,32,0
123660,note_on,1,0,4,,,,,,,,3,,,44,75
123714,note_on,54,0,4,,,,,,,,3,,,44,0
123719,note_on,119,0,2,,,,,,,,1,,,56,0
123719,note_on,95,0,3,,,,,,,,2,,,44,0
123720,note_on,1,0,3,,,,,,,,2,,,47,64
123720,note_on,1,0,2,,,,,,,,1,,,59,64
123839,note_on,119,0,2,,,,,,,,1,,,59,0
123839,note_on,119,0,3,,,,,,,,2,,,47,0
123840,control_change,240,0,1,,,,,,,,0,64,0,,
123840,note_on,1,0,3,,,,,,,,2,,,50,63
123840,control_change,126,0,4,,,,,,,,3,64,0,,
123840,note_on,1,0,2,,,,,,,,1,,,62,67
123959,note_on,119,0,3,,,,,,,,2,,,50,0
123959,note_on,0,0,1,,,,,,,,0,,,68,0
123959,note_on,119,0,1,,,,,,,,0,,,56,0
123959,note_on,119,0,2,,,,,,,,1,,,62,0
123960,note_on,1,0,1,,,,,,,,0,,,77,90
123960,note_on,0,0,1,,,,,,,,0,,,65,90
123960,note_on,1,0,2,,,,,,,,1,,,65,68
123960,note_on,1,0,3,,,,,,,,2,,,53,63
124079,note_on,119,0,3,,,,,,,,2,,,53,0
124079,note_on,119,0,2,,,,,,,,1,,,65,0
124079,note_on,119,0,1,,,,,,,,0,,,65,0
124079,note_on,0,0,1,,,,,,,,0,,,77,0
124080,note_on,1,0,2,,,,,,,,1,,,62,71
124080,note_on,1,0,3,,,,,,,,2,,,50,63
124080,note_on,0,0,1,,,,,,,,0,,,74,90
124080,note_on,1,0,1,,,,,,,,0,,,62,90
124084,control_change,4,0,2,,,,,,,,1,64,0,,
124085,control_change,1,0,2,,,,,,,,1,64,127,,
124199,note_on,114,0,2,,,,,,,,1,,,62,0
124199,note_on,119,0,3,,,,,,,,2,,,50,0
124200,note_on,1,0,2,,,,,,,,1,,,60,69
124200,note_on,1,0,3,,,,,,,,2,,,48,64
124272,control_change,72,0,3,,,,,,,,2,64,0,,
124296,note_on,0,0,1,,,,,,,,0,,,62,0
124296,note_on,216,0,1,,,,,,,,0,,,74,0
124308,note_on,108,0,2,,,,,,,,1,,,60,0
124308,note_on,36,0,3,,,,,,,,2,,,48,0
124320,note_on,0,0,4,,,,,,,,3,,,29,75
124320,control_change,24,0,1,,,,,,,,0,64,127,,
124320,note_on,0,0,1,,,,,,,,0,,,71,92
124320,note_on,0,0,1,,,,,,,,0,,,59,92
124320,note_on,12,0,2,,,,,,,,1,,,59,68
124320,control_change,480,0,4,,,,,,,,3,64,127,,
124320,note_on,12,0,3,,,,,,,,2,,,47,64
124320,control_change,0,0,3,,,,,,,,2,64,127,,
124379,note_on,59,0,4,,,,,,,,3,,,29,0
124380,note_on,1,0,4,,,,,,,,3,,,47,75
124439,note_on,119,0,3,,,,,,,,2,,,47,0
124439,note_on,119,0,2,,,,,,,,1,,,59,0
124440,note_on,1,0,3,,,,,,,,2,,,50,64
124440,note_on,1,0,2,,,,,,,,1,,,62,68
124559,note_on,119,0,3,,,,,,,,2,,,50,0
124559,note_on,119,0,2,,,,,,,,1,,,62,0
124560,note_on,1,0,2,,,,,,,,1,,,65,67
124560,note_on,1,0,3,,,,,,,,2,,,53,64
124679,note_on,119,0,2,,,,,,,,1,,,65,0
124679,note_on,119,0,3,,,,,,,,2,,,53,0
124680,note_on,1,0,2,,,,,,,,1,,,62,66
124680,note_on,1,0,3,,,,,,,,2,,,50,64
124757,control_change,77,0,2,,,,,,,,1,64,0,,
124799,note_on,119,0,3,,,,,,,,2,,,50,0
124799,note_on,42,0,2,,,,,,,,1,,,62,0
124800,note_on,1,0,3,,,,,,,,2,,,47,64
124800,note_on,1,0,2,,,,,,,,1,,,59,65
124829,control_change,29,0,2,,,,,,,,1,64,127,,
124919,note_on,90,0,2,,,,,,,,1,,,59,0
124919,note_on,119,0,3,,,,,,,,2,,,47,0
124920,note_on,1,0,3,,,,,,,,2,,,43,68
124920,note_on,1,0,2,,,,,,,,1,,,55,64
125039,note_on,119,0,3,,,,,,,,2,,,43,0
125039,note_on,659,0,4,,,,,,,,3,,,47,0
125039,note_on,119,0,2,,,,,,,,1,,,55,0
125040,note_on,1,0,2,,,,,,,,1,,,56,64
125040,note_on,1,0,3,,,,,,,,2,,,44,67
125040,note_on,0,0,4,,,,,,,,3,,,44,75
125040,note_on,1,0,4,,,,,,,,3,,,32,75
125064,control_change,24,0,3,,,,,,,,2,64,127,,
125159,note_on,119,0,2,,,,,,,,1,,,56,0
125159,note_on,95,0,3,,,,,,,,2,,,44,0
125160,note_on,1,0,2,,,,,,,,1,,,59,63
125160,note_on,1,0,3,,,,,,,,2,,,47,66
125279,note_on,119,0,2,,,,,,,,1,,,59,0
125279,note_on,119,0,3,,,,,,,,2,,,47,0
125280,control_change,240,0,4,,,,,,,,3,64,0,,
125280,control_change,960,0,1,,,,,,,,0,64,0,,
125280,note_on,1,0,2,,,,,,,,1,,,62,62
125280,note_on,1,0,3,,,,,,,,2,,,50,64
125399,note_on,119,0,3,,,,,,,,2,,,50,0
125399,note_on,119,0,2,,,,,,,,1,,,62,0
125400,note_on,1,0,2,,,,,,,,1,,,65,61
125400,note_on,1,0,3,,,,,,,,2,,,53,64
125472,note_on,192,0,4,,,,,,,,3,,,44,0
125472,note_on,0,0,4,,,,,,,,3,,,32,0
125477,control_change,77,0,2,,,,,,,,1,64,0,,
125478,control_change,1,0,2,,,,,,,,1,64,127,,
125519,note_on,119,0,3,,,,,,,,2,,,53,0
125519,note_on,0,0,1,,,,,,,,0,,,71,0
125519,note_on,239,0,1,,,,,,,,0,,,59,0
125519,note_on,41,0,2,,,,,,,,1,,,65,0
125520,note_on,1,0,2,,,,,,,,1,,,62,60
125520,note_on,1,0,3,,,,,,,,2,,,50,63
125520,note_on,1,0,1,,,,,,,,0,,,64,84
125639,note_on,119,0,2,,,,,,,,1,,,62,0
125639,note_on,119,0,3,,,,,,,,2,,,50,0
125640,note_on,1,0,3,,,,,,,,2,,,47,77
125640,note_on,1,0,2,,,,,,,,1,,,59,75
125712,control_change,72,0,3,,,,,,,,2,64,0,,
125713,control_change,1,0,3,,,,,,,,2,64,127,,
125736,note_on,216,0,1,,,,,,,,0,,,64,0
125748,note_on,35,0,3,,,,,,,,2,,,47,0
125748,note_on,108,0,2,,,,,,,,1,,,59,0
125760,note_on,0,0,1,,,,,,,,0,,,69,94
125760,note_on,0,0,4,,,,,,,,3,,,33,94
125760,control_change,288,0,4,,,,,,,,3,64,127,,
125760,note_on,12,0,3,,,,,,,,2,,,45,76
125760,control_change,24,0,1,,,,,,,,0,64,127,,
125760,note_on,0,0,1,,,,,,,,0,,,57,94
125760,note_on,12,0,2,,,,,,,,1,,,57,74
125760,note_on,0,0,4,,,,,,,,3,,,45,94
125879,note_on,119,0,2,,,,,,,,1,,,57,0
125879,note_on,119,0,3,,,,,,,,2,,,45,0
125880,note_on,1,0,2,,,,,,,,1,,,60,73
125880,note_on,1,0,3,,,,,,,,2,,,48,75
125999,note_on,119,0,3,,,,,,,,2,,,48,0
125999,note_on,119,0,2,,,,,,,,1,,,60,0
126000,note_on,1,0,2,,,,,,,,1,,,64,71
126000,note_on,1,0,3,,,,,,,,2,,,52,73
126119,note_on,119,0,2,,,,,,,,1,,,64,0
126119,note_on,119,0,3,,,,,,,,2,,,52,0
126120,note_on,1,0,2,,,,,,,,1,,,60,70
126120,note_on,1,0,3,,,,,,,,2,,,48,72
126150,control_change,30,0,2,,,,,,,,1,64,0,,
126222,control_change,72,0,2,,,,,,,,1,64,127,,
126239,note_on,479,0,1,,,,,,,,0,,,69,0
126239,note_on,17,0,2,,,,,,,,1,,,60,0
126239,note_on,119,0,3,,,,,,,,2,,,48,0
126239,note_on,479,0,4,,,,,,,,3,,,45,0
126239,note_on,0,0,4,,,,,,,,3,,,33,0
126239,note_on,0,0,1,,,,,,,,0,,,57,0
126240,note_on,1,0,3,,,,,,,,2,,,47,71
126240,note_on,0,0,1,,,,,,,,0,,,71,94
126240,note_on,1,0,4,,,,,,,,3,,,47,94
126240,note_on,1,0,1,,,,,,,,0,,,59,94
126240,note_on,1,0,2,,,,,,,,1,,,59,69
126359,note_on,119,0,3,,,,,,,,2,,,47,0
126359,note_on,119,0,2,,,,,,,,1,,,59,0
126360,note_on,1,0,3,,,,,,,,2,,,52,69
126360,note_on,1,0,2,,,,,,,,1,,,64,68
126385,control_change,25,0,3,,,,,,,,2,64,0,,
126457,control_change,72,0,3,,,,,,,,2,64,127,,
126479,note_on,22,0,3,,,,,,,,2,,,52,0
126479,note_on,239,0,4,,,,,,,,3,,,47,0
126479,note_on,0,0,1,,,,,,,,0,,,59,0
126479,note_on,119,0,2,,,,,,,,1,,,64,0
126479,note_on,239,0,1,,,,,,,,0,,,71,0
126480,note_on,1,0,3,,,,,,,,2,,,48,68
126480,note_on,0,0,1,,,,,,,,0,,,72,94
126480,note_on,1,0,2,,,,,,,,1,,,60,67
126480,note_on,1,0,1,,,,,,,,0,,,60,94
126480,note_on,0,0,4,,,,,,,,3,,,48,94
126480,note_on,1,0,4,,,,,,,,3,,,41,94
126599,note_on,119,0,2,,,,,,,,1,,,60,0
126599,note_on,119,0,3,,,,,,,,2,,,48,0
126600,note_on,1,0,2,,,,,,,,1,,,65,66
126600,note_on,1,0,3,,,,,,,,2,,,53,67
126719,note_on,119,0,3,,,,,,,,2,,,53,0
126719,note_on,119,0,2,,,,,,,,1,,,65,0
126720,control_change,240,0,1,,,,,,,,0,64,0,,
126720,note_on,1,0,3,,,,,,,,2,,,57,64
126720,control_change,240,0,4,,,,,,,,3,64,0,,
126720,note_on,1,0,2,,,,,,,,1,,,69,64
126839,note_on,119,0,2,,,,,,,,1,,,69,0
126839,note_on,119,0,3,,,,,,,,2,,,57,0
126840,note_on,1,0,2,,,,,,,,1,,,65,65
126840,note_on,1,0,3,,,,,,,,2,,,53,64
126870,control_change,30,0,2,,,,,,,,1,64,0,,
126871,control_change,1,0,2,,,,,,,,1,64,127,,
126959,note_on,119,0,3,,,,,,,,2,,,53,0
126959,note_on,0,0,1,,,,,,,,0,,,60,0
126959,note_on,239,0,1,,,,,,,,0,,,72,0
126959,note_on,0,0,4,,,,,,,,3,,,41,0
126959,note_on,239,0,4,,,,,,,,3,,,48,0
126959,note_on,88,0,2,,,,,,,,1,,,65,0
126960,note_on,1,0,2,,,,,,,,1,,,62,66
126960,note_on,1,0,4,,,,,,,,3,,,50,94
126960,note_on,1,0,1,,,,,,,,0,,,62,94
126960,note_on,0,0,1,,,,,,,,0,,,74,94
126960,note_on,1,0,3,,,,,,,,2,,,50,65
127079,note_on,119,0,2,,,,,,,,1,,,62,0
127079,note_on,119,0,3,,,,,,,,2,,,50,0
127080,note_on,1,0,2,,,,,,,,1,,,69,66
127080,note_on,1,0,3,,,,,,,,2,,,57,66
127105,control_change,25,0,3,,,,,,,,2,64,0,,
127106,control_change,1,0,3,,,,,,,,2,64,127,,
127157,set_tempo,10070,1,0,,,,,,390092,,,,,,
127176,note_on,0,0,1,,,,,,,,0,,,62,0
127176,note_on,216,0,1,,,,,,,,0,,,74,0
127176,note_on,216,0,4,,,,,,,,3,,,50,0
127188,note_on,82,0,3,,,,,,,,2,,,57,0
127188,note_on,108,0,2,,,,,,,,1,,,69,0
127200,note_on,12,0,3,,,,,,,,2,,,52,67
127200,note_on,0,0,1,,,,,,,,0,,,76,94
127200,control_change,24,0,1,,,,,,,,0,64,127,,
127200,note_on,0,0,4,,,,,,,,3,,,40,94
127200,note_on,24,0,4,,,,,,,,3,,,52,94
127200,note_on,12,0,2,,,,,,,,1,,,64,67
127267,control_change,67,0,4,,,,,,,,3,64,127,,
127319,note_on,119,0,3,,,,,,,,2,,,52,0
127319,note_on,119,0,2,,,,,,,,1,,,64,0
127320,note_on,1,0,3,,,,,,,,2,,,56,68
127320,note_on,1,0,2,,,,,,,,1,,,68,68
127439,note_on,119,0,3,,,,,,,,2,,,56,0
127439,note_on,119,0,2,,,,,,,,1,,,68,0
127440,note_on,1,0,2,,,,,,,,1,,,71,69
127440,note_on,1,0,3,,,,,,,,2,,,59,69
127543,control_change,103,0,2,,,,,,,,1,64,0,,
127559,note_on,119,0,3,,,,,,,,2,,,59,0
127559,note_on,16,0,2,,,,,,,,1,,,71,0
127560,note_on,1,0,2,,,,,,,,1,,,72,70
127560,note_on,1,0,3,,,,,,,,2,,,60,70
127615,control_change,55,0,2,,,,,,,,1,64,127,,
127679,note_on,119,0,3,,,,,,,,2,,,60,0
127679,note_on,64,0,2,,,,,,,,1,,,72,0
127680,note_on,1,0,3,,,,,,,,2,,,59,72
127680,note_on,1,0,2,,,,,,,,1,,,71,71
127778,control_change,98,0,3,,,,,,,,2,64,0,,
127799,note_on,119,0,2,,,,,,,,1,,,71,0
127799,note_on,21,0,3,,,,,,,,2,,,59,0
127800,note_on,1,0,3,,,,,,,,2,,,56,73
127800,note_on,1,0,2,,,,,,,,1,,,68,72
127850,control_change,50,0,3,,,,,,,,2,64,127,,
127919,note_on,119,0,2,,,,,,,,1,,,68,0
127919,note_on,69,0,3,,,,,,,,2,,,56,0
127920,note_on,1,0,3,,,,,,,,2,,,52,74
127920,note_on,1,0,2,,,,,,,,1,,,64,73
128039,note_on,119,0,2,,,,,,,,1,,,64,0
128039,note_on,119,0,3,,,,,,,,2,,,52,0
128040,note_on,1,0,2,,,,,,,,1,,,69,74
128040,note_on,1,0,3,,,,,,,,2,,,57,75
128159,note_on,119,0,3,,,,,,,,2,,,57,0
128159,note_on,119,0,2,,,,,,,,1,,,69,0
128160,control_change,960,0,1,,,,,,,,0,64,0,,
128160,note_on,1,0,2,,,,,,,,1,,,72,75
128160,note_on,1,0,3,,,,,,,,2,,,60,76
128227,control_change,960,0,4,,,,,,,,3,64,0,,
128263,control_change,103,0,2,,,,,,,,1,64,0,,
128279,note_on,16,0,2,,,,,,,,1,,,72,0
128279,note_on,119,0,3,,,,,,,,2,,,60,0
128280,note_on,1,0,2,,,,,,,,1,,,74,76
128280,note_on,1,0,3,,,,,,,,2,,,62,77
128399,note_on,119,0,2,,,,,,,,1,,,74,0
128399,note_on,119,0,3,,,,,,,,2,,,62,0
128400,note_on,1,0,2,,,,,,,,1,,,72,77
128400,note_on,1,0,3,,,,,,,,2,,,60,79
128496,note_on,269,0,4,,,,,,,,3,,,40,0
128496,note_on,336,0,1,,,,,,,,0,,,76,0
128496,note_on,0,0,4,,,,,,,,3,,,52,0
128498,control_change,98,0,3,,,,,,,,2,64,0,,
128499,control_change,1,0,3,,,,,,,,2,64,127,,
128519,note_on,20,0,3,,,,,,,,2,,,60,0
128519,note_on,119,0,2,,,,,,,,1,,,72,0
128520,note_on,1,0,3,,,,,,,,2,,,57,80
128520,note_on,1,0,2,,,,,,,,1,,,69,78
128628,note_on,108,0,2,,,,,,,,1,,,69,0
128628,note_on,108,0,3,,,,,,,,2,,,57,0
128640,control_change,144,0,4,,,,,,,,3,64,127,,
128640,note_on,0,0,4,,,,,,,,3,,,52,94
128640,note_on,0,0,4,,,,,,,,3,,,40,94
128640,note_on,0,0,2,,,,,,,,1,,,64,79
128640,note_on,0,0,1,,,,,,,,0,,,64,98
128640,control_change,144,0,1,,,,,,,,0,64,127,,
128640,note_on,0,0,1,,,,,,,,0,,,76,98
128640,control_change,12,0,2,,,,,,,,1,64,127,,
128640,note_on,12,0,3,,,,,,,,2,,,52,81
128640,control_change,0,0,3,,,,,,,,2,64,127,,
128759,note_on,119,0,3,,,,,,,,2,,,52,0
128759,note_on,119,0,2,,,,,,,,1,,,64,0
128760,note_on,1,0,3,,,,,,,,2,,,56,82
128760,note_on,1,0,2,,,,,,,,1,,,68,79
128879,note_on,119,0,3,,,,,,,,2,,,56,0
128879,note_on,119,0,2,,,,,,,,1,,,68,0
128880,note_on,1,0,3,,,,,,,,2,,,59,83
128880,note_on,1,0,2,,,,,,,,1,,,71,80
128999,note_on,119,0,3,,,,,,,,2,,,59,0
128999,note_on,119,0,2,,,,,,,,1,,,71,0
129000,note_on,1,0,2,,,,,,,,1,,,72,81
129000,note_on,1,0,3,,,,,,,,2,,,60,84
129119,note_on,119,0,3,,,,,,,,2,,,60,0
129119,note_on,119,0,2,,,,,,,,1,,,72,0
129120,note_on,1,0,3,,,,,,,,2,,,59,85
129120,note_on,1,0,2,,,,,,,,1,,,71,82
129171,control_change,51,0,3,,,,,,,,2,64,0,,
129239,note_on,119,0,2,,,,,,,,1,,,71,0
129239,note_on,68,0,3,,,,,,,,2,,,59,0
129240,note_on,1,0,2,,,,,,,,1,,,68,83
129240,note_on,1,0,3,,,,,,,,2,,,56,87
129359,note_on,0,0,4,,,,,,,,3,,,52,0
129359,note_on,719,0,4,,,,,,,,3,,,40,0
129359,note_on,119,0,3,,,,,,,,2,,,56,0
129359,note_on,119,0,2,,,,,,,,1,,,68,0
129359,note_on,0,0,1,,,,,,,,0,,,64,0
129359,note_on,719,0,1,,,,,,,,0,,,76,0
129360,note_on,1,0,2,,,,,,,,1,,,64,84
129360,note_on,1,0,4,,,,,,,,3,,,52,94
129360,note_on,1,0,1,,,,,,,,0,,,76,98
129360,note_on,0,0,1,,,,,,,,0,,,64,98
129360,note_on,1,0,3,,,,,,,,2,,,52,88
129360,note_on,0,0,4,,,,,,,,3,,,40,94
129384,control_change,24,0,3,,,,,,,,2,64,127,,
129479,note_on,119,0,2,,,,,,,,1,,,64,0
129479,note_on,95,0,3,,,,,,,,2,,,52,0
129480,note_on,1,0,2,,,,,,,,1,,,69,85
129480,note_on,1,0,3,,,,,,,,2,,,57,89
129599,note_on,119,0,2,,,,,,,,1,,,69,0
129599,note_on,119,0,3,,,,,,,,2,,,57,0
129600,note_on,1,0,3,,,,,,,,2,,,60,90
129600,control_change,1,0,2,,,,,,,,1,64,0,,
129600,note_on,0,0,2,,,,,,,,1,,,72,86
129600,control_change,240,0,1,,,,,,,,0,64,0,,
129600,control_change,240,0,4,,,,,,,,3,64,0,,
129719,note_on,119,0,2,,,,,,,,1,,,72,0
129719,note_on,119,0,3,,,,,,,,2,,,60,0
129720,note_on,1,0,2,,,,,,,,1,,,74,87
129720,note_on,1,0,3,,,,,,,,2,,,62,91
129792,note_on,192,0,4,,,,,,,,3,,,40,0
129792,note_on,192,0,1,,,,,,,,0,,,64,0
129792,note_on,0,0,1,,,,,,,,0,,,76,0
129792,note_on,0,0,4,,,,,,,,3,,,52,0
129839,note_on,119,0,2,,,,,,,,1,,,74,0
129839,note_on,119,0,3,,,,,,,,2,,,62,0
129840,note_on,1,0,3,,,,,,,,2,,,60,92
129840,note_on,1,0,2,,,,,,,,1,,,72,88
129891,control_change,51,0,3,,,,,,,,2,64,0,,
129959,note_on,119,0,2,,,,,,,,1,,,72,0
129959,note_on,68,0,3,,,,,,,,2,,,60,0
129960,note_on,1,0,2,,,,,,,,1,,,69,89
129960,note_on,1,0,3,,,,,,,,2,,,57,64
130032,control_change,72,0,3,,,,,,,,2,64,0,,
130033,control_change,1,0,3,,,,,,,,2,64,127,,
130068,note_on,108,0,2,,,,,,,,1,,,69,0
130068,note_on,35,0,3,,,,,,,,2,,,57,0
130080,note_on,0,0,4,,,,,,,,3,,,40,94
130080,note_on,0,0,1,,,,,,,,0,,,64,97
130080,note_on,288,0,1,,,,,,,,0,,,76,97
130080,control_change,0,0,3,,,,,,,,2,64,127,,
130080,note_on,288,0,4,,,,,,,,3,,,52,94
130080,control_change,12,0,2,,,,,,,,1,64,127,,
130080,note_on,0,0,2,,,,,,,,1,,,64,96
130080,note_on,12,0,3,,,,,,,,2,,,52,64
130199,note_on,119,0,3,,,,,,,,2,,,52,0
130199,note_on,119,0,2,,,,,,,,1,,,64,0
130200,note_on,1,0,3,,,,,,,,2,,,56,91
130200,note_on,1,0,2,,,,,,,,1,,,68,96
130319,note_on,119,0,2,,,,,,,,1,,,68,0
130319,note_on,119,0,3,,,,,,,,2,,,56,0
130320,note_on,1,0,2,,,,,,,,1,,,71,97
130320,note_on,1,0,3,,,,,,,,2,,,59,98
130439,note_on,119,0,3,,,,,,,,2,,,59,0
130439,note_on,119,0,2,,,,,,,,1,,,71,0
130440,note_on,1,0,3,,,,,,,,2,,,60,97
130440,note_on,1,0,2,,,,,,,,1,,,72,97
130512,note_on,0,0,1,,,,,,,,0,,,76,0
130512,note_on,432,0,1,,,,,,,,0,,,64,0
130512,note_on,0,0,4,,,,,,,,3,,,52,0
130512,note_on,432,0,4,,,,,,,,3,,,40,0
130559,note_on,119,0,2,,,,,,,,1,,,72,0
130559,note_on,119,0,3,,,,,,,,2,,,60,0
130560,note_on,1,0,2,,,,,,,,1,,,71,96
130560,note_on,1,0,3,,,,,,,,2,,,59,96
130679,note_on,119,0,2,,,,,,,,1,,,71,0
130679,note_on,119,0,3,,,,,,,,2,,,59,0
130680,note_on,1,0,2,,,,,,,,1,,,68,95
130680,note_on,1,0,3,,,,,,,,2,,,56,96
130705,control_change,25,0,3,,,,,,,,2,64,0,,
130777,control_change,72,0,3,,,,,,,,2,64,127,,
130799,note_on,119,0,2,,,,,,,,1,,,68,0
130799,note_on,22,0,3,,,,,,,,2,,,56,0
130800,note_on,1,0,3,,,,,,,,2,,,52,95
130800,note_on,1,0,2,,,,,,,,1,,,64,94
130919,note_on,119,0,3,,,,,,,,2,,,52,0
130919,note_on,119,0,2,,,,,,,,1,,,64,0
130920,note_on,1,0,2,,,,,,,,1,,,68,94
130920,note_on,1,0,3,,,,,,,,2,,,56,94
131039,note_on,119,0,2,,,,,,,,1,,,68,0
131039,note_on,119,0,3,,,,,,,,2,,,56,0
131040,note_on,1,0,2,,,,,,,,1,,,71,93
131040,note_on,1,0,3,,,,,,,,2,,,59,94
131159,note_on,119,0,2,,,,,,,,1,,,71,0
131159,note_on,119,0,3,,,,,,,,2,,,59,0
131160,note_on,1,0,2,,,,,,,,1,,,75,92
131160,note_on,1,0,3,,,,,,,,2,,,63,93
131279,note_on,119,0,3,,,,,,,,2,,,63,0
131279,note_on,119,0,2,,,,,,,,1,,,75,0
131280,note_on,1,0,3,,,,,,,,2,,,64,92
131280,note_on,1,0,2,,,,,,,,1,,,76,92
131399,note_on,119,0,3,,,,,,,,2,,,64,0
131399,note_on,119,0,2,,,,,,,,1,,,76,0
131400,note_on,1,0,2,,,,,,,,1,,,80,91
131400,note_on,1,0,3,,,,,,,,2,,,68,91
131425,control_change,25,0,3,,,,,,,,2,64,0,,
131440,control_change,40,0,2,,,,,,,,1,64,0,,
131508,note_on,83,0,3,,,,,,,,2,,,68,0
131508,note_on,68,0,2,,,,,,,,1,,,80,0
131520,control_change,0,0,3,,,,,,,,2,64,127,,
131520,control_change,12,0,2,,,,,,,,1,64,127,,
131520,note_on,0,0,2,,,,,,,,1,,,83,90
131520,note_on,12,0,3,,,,,,,,2,,,71,91
131639,note_on,119,0,3,,,,,,,,2,,,71,0
131639,note_on,119,0,2,,,,,,,,1,,,83,0
131640,note_on,1,0,3,,,,,,,,2,,,72,90
131640,note_on,1,0,2,,,,,,,,1,,,84,90
131759,note_on,119,0,3,,,,,,,,2,,,72,0
131759,note_on,119,0,2,,,,,,,,1,,,84,0
131760,note_on,1,0,2,,,,,,,,1,,,83,89
131760,note_on,1,0,3,,,,,,,,2,,,71,89
131879,note_on,119,0,3,,,,,,,,2,,,71,0
131879,note_on,119,0,2,,,,,,,,1,,,83,0
131880,note_on,1,0,2,,,,,,,,1,,,80,88
131880,note_on,1,0,3,,,,,,,,2,,,68,88
131999,note_on,119,0,3,,,,,,,,2,,,68,0
131999,note_on,119,0,2,,,,,,,,1,,,80,0
132000,note_on,1,0,3,,,,,,,,2,,,64,88
132000,note_on,1,0,2,,,,,,,,1,,,76,88
132119,note_on,119,0,3,,,,,,,,2,,,64,0
132119,note_on,119,0,2,,,,,,,,1,,,76,0
132120,note_on,1,0,3,,,,,,,,2,,,68,87
132120,note_on,1,0,2,,,,,,,,1,,,80,87
132239,note_on,119,0,2,,,,,,,,1,,,80,0
132239,note_on,119,0,3,,,,,,,,2,,,68,0
132240,note_on,1,0,3,,,,,,,,2,,,71,86
132240,note_on,1,0,2,,,,,,,,1,,,83,86
132359,note_on,119,0,3,,,,,,,,2,,,71,0
132359,note_on,119,0,2,,,,,,,,1,,,83,0
132360,note_on,1,0,2,,,,,,,,1,,,87,86
132360,note_on,1,0,3,,,,,,,,2,,,75,86
132479,note_on,119,0,3,,,,,,,,2,,,75,0
132479,note_on,119,0,2,,,,,,,,1,,,87,0
132480,note_on,1,0,3,,,,,,,,2,,,76,85
132480,note_on,1,0,2,,,,,,,,1,,,88,85
132599,note_on,119,0,2,,,,,,,,1,,,88,0
132599,note_on,119,0,3,,,,,,,,2,,,76,0
132600,note_on,1,0,3,,,,,,,,2,,,80,84
132600,note_on,1,0,2,,,,,,,,1,,,92,84
132719,note_on,119,0,2,,,,,,,,1,,,92,0
132719,note_on,119,0,3,,,,,,,,2,,,80,0
132720,note_on,1,0,2,,,,,,,,1,,,95,83
132720,note_on,1,0,3,,,,,,,,2,,,83,83
132839,note_on,119,0,2,,,,,,,,1,,,95,0
132839,note_on,119,0,3,,,,,,,,2,,,83,0
132840,note_on,1,0,2,,,,,,,,1,,,96,83
132840,note_on,1,0,3,,,,,,,,2,,,84,83
132948,note_on,108,0,2,,,,,,,,1,,,96,0
132948,note_on,108,0,3,,,,,,,,2,,,84,0
132960,note_on,12,0,2,,,,,,,,1,,,95,82
132960,note_on,12,0,3,,,,,,,,2,,,83,82
133079,note_on,119,0,3,,,,,,,,2,,,83,0
133079,note_on,119,0,2,,,,,,,,1,,,95,0
133080,note_on,1,0,3,,,,,,,,2,,,80,81
133080,note_on,1,0,2,,,,,,,,1,,,92,81
133199,note_on,119,0,3,,,,,,,,2,,,80,0
133199,note_on,119,0,2,,,,,,,,1,,,92,0
133200,note_on,1,0,3,,,,,,,,2,,,76,80
133200,note_on,1,0,2,,,,,,,,1,,,88,81
133319,note_on,119,0,2,,,,,,,,1,,,88,0
133319,note_on,119,0,3,,,,,,,,2,,,76,0
133320,note_on,1,0,3,,,,,,,,2,,,80,80
133320,note_on,1,0,2,,,,,,,,1,,,92,80
133439,note_on,119,0,3,,,,,,,,2,,,80,0
133439,note_on,119,0,2,,,,,,,,1,,,92,0
133440,note_on,1,0,3,,,,,,,,2,,,83,79
133440,note_on,1,0,2,,,,,,,,1,,,95,79
133559,note_on,119,0,3,,,,,,,,2,,,83,0
133559,note_on,119,0,2,,,,,,,,1,,,95,0
133560,note_on,1,0,3,,,,,,,,2,,,87,78
133560,note_on,1,0,2,,,,,,,,1,,,99,79
133679,note_on,119,0,3,,,,,,,,2,,,87,0
133679,note_on,119,0,2,,,,,,,,1,,,99,0
133680,note_on,1,0,3,,,,,,,,2,,,88,77
133680,note_on,1,0,2,,,,,,,,1,,,100,78
133799,note_on,119,0,2,,,,,,,,1,,,100,0
133799,note_on,119,0,3,,,,,,,,2,,,88,0
133800,note_on,1,0,2,,,,,,,,1,,,101,77
133800,note_on,1,0,3,,,,,,,,2,,,89,77
133919,note_on,119,0,2,,,,,,,,1,,,101,0
133919,note_on,119,0,3,,,,,,,,2,,,89,0
133920,note_on,1,0,2,,,,,,,,1,,,100,77
133920,note_on,1,0,3,,,,,,,,2,,,88,76
134039,note_on,119,0,3,,,,,,,,2,,,88,0
134039,note_on,119,0,2,,,,,,,,1,,,100,0
134040,note_on,1,0,3,,,,,,,,2,,,84,75
134040,note_on,1,0,2,,,,,,,,1,,,96,76
134159,note_on,119,0,2,,,,,,,,1,,,96,0
134159,note_on,119,0,3,,,,,,,,2,,,84,0
134160,note_on,1,0,3,,,,,,,,2,,,83,75
134160,note_on,1,0,2,,,,,,,,1,,,95,75
134279,note_on,119,0,3,,,,,,,,2,,,83,0
134279,note_on,119,0,2,,,,,,,,1,,,95,0
134280,note_on,1,0,2,,,,,,,,1,,,92,74
134280,note_on,1,0,3,,,,,,,,2,,,80,74
134388,note_on,108,0,2,,,,,,,,1,,,92,0
134388,note_on,108,0,3,,,,,,,,2,,,80,0
134400,note_on,12,0,2,,,,,,,,1,,,88,74
134400,note_on,12,0,3,,,,,,,,2,,,76,73
134519,note_on,119,0,2,,,,,,,,1,,,88,0
134519,note_on,119,0,3,,,,,,,,2,,,76,0
134520,note_on,1,0,3,,,,,,,,2,,,77,72
134520,note_on,1,0,2,,,,,,,,1,,,89,73
134639,note_on,119,0,3,,,,,,,,2,,,77,0
134639,note_on,119,0,2,,,,,,,,1,,,89,0
134640,note_on,1,0,3,,,,,,,,2,,,76,72
134640,note_on,1,0,2,,,,,,,,1,,,88,72
134759,note_on,119,0,2,,,,,,,,1,,,88,0
134759,note_on,119,0,3,,,,,,,,2,,,76,0
134760,note_on,1,0,2,,,,,,,,1,,,84,72
134760,note_on,1,0,3,,,,,,,,2,,,72,71
134879,note_on,119,0,2,,,,,,,,1,,,84,0
134879,note_on,119,0,3,,,,,,,,2,,,72,0
134880,note_on,1,0,2,,,,,,,,1,,,83,71
134880,note_on,1,0,3,,,,,,,,2,,,71,70
134999,note_on,119,0,2,,,,,,,,1,,,83,0
134999,note_on,119,0,3,,,,,,,,2,,,71,0
135000,note_on,1,0,3,,,,,,,,2,,,68,69
135000,note_on,1,0,2,,,,,,,,1,,,80,70
135119,note_on,119,0,3,,,,,,,,2,,,68,0
135119,note_on,119,0,2,,,,,,,,1,,,80,0
135120,note_on,1,0,2,,,,,,,,1,,,76,70
135120,note_on,1,0,3,,,,,,,,2,,,64,69
135239,note_on,119,0,3,,,,,,,,2,,,64,0
135239,note_on,119,0,2,,,,,,,,1,,,76,0
135240,note_on,1,0,3,,,,,,,,2,,,65,68
135240,note_on,1,0,2,,,,,,,,1,,,77,69
135359,note_on,119,0,3,,,,,,,,2,,,65,0
135359,note_on,119,0,2,,,,,,,,1,,,77,0
135360,note_on,1,0,3,,,,,,,,2,,,64,67
135360,note_on,1,0,2,,,,,,,,1,,,76,68
135479,note_on,119,0,3,,,,,,,,2,,,64,0
135479,note_on,119,0,2,,,,,,,,1,,,76,0
135480,note_on,1,0,2,,,,,,,,1,,,72,68
135480,note_on,1,0,3,,,,,,,,2,,,60,67
135599,note_on,119,0,3,,,,,,,,2,,,60,0
135599,note_on,119,0,2,,,,,,,,1,,,72,0
135600,note_on,1,0,3,,,,,,,,2,,,59,66
135600,note_on,1,0,2,,,,,,,,1,,,71,67
135719,note_on,119,0,2,,,,,,,,1,,,71,0
135719,note_on,119,0,3,,,,,,,,2,,,59,0
135720,note_on,1,0,2,,,,,,,,1,,,68,66
135720,note_on,1,0,3,,,,,,,,2,,,56,65
135828,note_on,108,0,2,,,,,,,,1,,,68,0
135828,note_on,108,0,3,,,,,,,,2,,,56,0
135840,note_on,12,0,2,,,,,,,,1,,,64,66
135840,note_on,12,0,3,,,,,,,,2,,,52,64
135959,note_on,119,0,2,,,,,,,,1,,,64,0
135959,note_on,119,0,3,,,,,,,,2,,,52,0
135960,note_on,1,0,3,,,,,,,,2,,,53,64
135960,note_on,1,0,2,,,,,,,,1,,,65,65
136079,note_on,119,0,2,,,,,,,,1,,,65,0
136079,note_on,119,0,3,,,,,,,,2,,,53,0
136080,note_on,1,0,2,,,,,,,,1,,,64,64
136080,note_on,1,0,3,,,,,,,,2,,,52,63
136199,note_on,119,0,3,,,,,,,,2,,,52,0
136199,note_on,119,0,2,,,,,,,,1,,,64,0
136200,note_on,1,0,2,,,,,,,,1,,,60,63
136200,note_on,1,0,3,,,,,,,,2,,,48,62
136319,note_on,119,0,2,,,,,,,,1,,,60,0
136319,note_on,119,0,3,,,,,,,,2,,,48,0
136320,note_on,1,0,2,,,,,,,,1,,,59,63
136320,note_on,1,0,3,,,,,,,,2,,,47,61
136439,note_on,119,0,2,,,,,,,,1,,,59,0
136439,note_on,119,0,3,,,,,,,,2,,,47,0
136440,note_on,1,0,3,,,,,,,,2,,,44,61
136440,note_on,1,0,2,,,,,,,,1,,,56,62
136559,note_on,119,0,3,,,,,,,,2,,,44,0
136559,note_on,119,0,2,,,,,,,,1,,,56,0
136560,note_on,1,0,3,,,,,,,,2,,,40,60
136560,note_on,1,0,2,,,,,,,,1,,,52,61
136679,note_on,119,0,3,,,,,,,,2,,,40,0
136679,note_on,119,0,2,,,,,,,,1,,,52,0
136680,note_on,1,0,2,,,,,,,,1,,,53,61
136680,note_on,1,0,3,,,,,,,,2,,,41,59
136799,note_on,119,0,3,,,,,,,,2,,,41,0
136799,note_on,119,0,2,,,,,,,,1,,,53,0
136800,note_on,1,0,2,,,,,,,,1,,,52,60
136800,note_on,1,0,3,,,,,,,,2,,,40,58
136919,note_on,119,0,3,,,,,,,,2,,,40,0
136919,note_on,119,0,2,,,,,,,,1,,,52,0
136920,note_on,1,0,3,,,,,,,,2,,,36,58
136920,note_on,1,0,2,,,,,,,,1,,,48,59
137039,note_on,119,0,3,,,,,,,,2,,,36,0
137039,note_on,119,0,2,,,,,,,,1,,,48,0
137040,note_on,1,0,3,,,,,,,,2,,,35,57
137040,note_on,1,0,2,,,,,,,,1,,,47,59
137159,note_on,119,0,2,,,,,,,,1,,,47,0
137159,note_on,119,0,3,,,,,,,,2,,,35,0
137160,note_on,1,0,3,,,,,,,,2,,,39,56
137160,note_on,1,0,2,,,,,,,,1,,,51,58
137268,note_on,108,0,3,,,,,,,,2,,,39,0
137268,note_on,108,0,2,,,,,,,,1,,,51,0
137280,note_on,12,0,2,,,,,,,,1,,,52,57
137280,note_on,12,0,3,,,,,,,,2,,,40,56
137399,note_on,119,0,3,,,,,,,,2,,,40,0
137399,note_on,119,0,2,,,,,,,,1,,,52,0
137400,note_on,1,0,2,,,,,,,,1,,,53,57
137400,note_on,1,0,3,,,,,,,,2,,,41,55
137519,note_on,119,0,2,,,,,,,,1,,,53,0
137519,note_on,119,0,3,,,,,,,,2,,,41,0
137520,note_on,1,0,2,,,,,,,,1,,,52,56
137520,note_on,1,0,3,,,,,,,,2,,,40,54
137639,note_on,119,0,3,,,,,,,,2,,,40,0
137639,note_on,119,0,2,,,,,,,,1,,,52,0
137640,note_on,1,0,3,,,,,,,,2,,,36,53
137640,note_on,1,0,2,,,,,,,,1,,,48,55
137759,note_on,119,0,2,,,,,,,,1,,,48,0
137759,note_on,119,0,3,,,,,,,,2,,,36,0
137760,note_on,1,0,3,,,,,,,,2,,,35,53
137760,note_on,1,0,2,,,,,,,,1,,,47,55
137879,note_on,119,0,2,,,,,,,,1,,,47,0
137879,note_on,119,0,3,,,,,,,,2,,,35,0
137880,note_on,1,0,3,,,,,,,,2,,,39,52
137880,note_on,1,0,2,,,,,,,,1,,,51,54
137999,note_on,119,0,2,,,,,,,,1,,,51,0
137999,note_on,119,0,3,,,,,,,,2,,,39,0
138000,note_on,1,0,2,,,,,,,,1,,,52,53
138000,note_on,1,0,3,,,,,,,,2,,,40,51
138119,note_on,119,0,2,,,,,,,,1,,,52,0
138119,note_on,119,0,3,,,,,,,,2,,,40,0
138120,note_on,1,0,2,,,,,,,,1,,,53,52
138120,note_on,1,0,3,,,,,,,,2,,,41,50
138239,note_on,119,0,3,,,,,,,,2,,,41,0
138239,note_on,119,0,2,,,,,,,,1,,,53,0
138240,note_on,1,0,3,,,,,,,,2,,,40,50
138240,note_on,1,0,2,,,,,,,,1,,,52,52
138359,note_on,119,0,3,,,,,,,,2,,,40,0
138359,note_on,119,0,2,,,,,,,,1,,,52,0
138360,note_on,1,0,2,,,,,,,,1,,,48,51
138360,note_on,1,0,3,,,,,,,,2,,,36,49
138479,note_on,119,0,3,,,,,,,,2,,,36,0
138479,note_on,119,0,2,,,,,,,,1,,,48,0
138480,note_on,1,0,2,,,,,,,,1,,,47,50
138480,note_on,1,0,3,,,,,,,,2,,,35,48
138599,note_on,119,0,3,,,,,,,,2,,,35,0
138599,note_on,119,0,2,,,,,,,,1,,,47,0
138600,note_on,1,0,3,,,,,,,,2,,,39,48
138600,note_on,1,0,2,,,,,,,,1,,,51,50
138680,control_change,80,0,3,,,,,,,,2,64,0,,
138708,note_on,108,0,2,,,,,,,,1,,,51,0
138708,note_on,28,0,3,,,,,,,,2,,,39,0
138720,note_on,12,0,3,,,,,,,,2,,,40,47
138720,control_change,0,0,2,,,,,,,,1,64,0,,
138720,note_on,12,0,2,,,,,,,,1,,,52,49
138936,note_on,216,0,2,,,,,,,,1,,,52,0
138936,note_on,216,0,3,,,,,,,,2,,,40,0
140855,set_tempo,13698,1,0,,,,,,444148,,,,,,
140880,note_on,10368,0,1,,,,,,,,0,,,76,82
140880,note_on,0,0,1,,,,,,,,0,,,88,82
140921,set_tempo,66,1,0,,,,,,445732,,,,,,
141359,note_on,479,0,1,,,,,,,,0,,,88,0
141359,note_on,0,0,1,,,,,,,,0,,,76,0
141360,note_on,1,0,1,,,,,,,,0,,,86,82
141360,note_on,0,0,1,,,,,,,,0,,,74,82
141576,note_on,216,0,1,,,,,,,,0,,,74,0
141576,note_on,0,0,1,,,,,,,,0,,,86,0
141583,set_tempo,662,1,0,,,,,,447327,,,,,,
141600,set_tempo,17,1,0,,,,,,481812,,,,,,
141600,note_on,0,0,1,,,,,,,,0,,,74,82
141600,note_on,0,0,1,,,,,,,,0,,,86,82
141600,note_on,0,0,4,,,,,,,,3,,,40,64
141600,control_change,11088,0,4,,,,,,,,3,64,127,,
141600,control_change,24,0,1,,,,,,,,0,64,127,,
141780,control_change,2844,0,3,,,,,,,,2,64,127,,
141840,note_on,60,0,3,,,,,,,,2,,,67,50
141840,note_on,0,0,3,,,,,,,,2,,,60,50
142079,note_on,239,0,3,,,,,,,,2,,,60,0
142079,note_on,0,0,3,,,,,,,,2,,,67,0
142080,note_on,1,0,3,,,,,,,,2,,,55,50
142319,note_on,0,0,1,,,,,,,,0,,,86,0
142319,note_on,719,0,1,,,,,,,,0,,,74,0
142319,note_on,719,0,4,,,,,,,,3,,,40,0
142320,note_on,1,0,1,,,,,,,,0,,,84,82
142320,note_on,1,0,4,,,,,,,,3,,,52,64
142320,note_on,0,0,1,,,,,,,,0,,,72,82
142536,note_on,216,0,4,,,,,,,,3,,,52,0
142559,note_on,479,0,3,,,,,,,,2,,,55,0
142560,note_on,0,0,3,,,,,,,,2,,,67,50
142560,note_on,1,0,3,,,,,,,,2,,,60,50
142560,control_change,24,0,4,,,,,,,,3,64,0,,
142560,control_change,240,0,1,,,,,,,,0,64,0,,
142740,control_change,180,0,3,,,,,,,,2,64,0,,
142799,note_on,0,0,3,,,,,,,,2,,,60,0
142799,note_on,59,0,3,,,,,,,,2,,,67,0
142800,note_on,1,0,3,,,,,,,,2,,,55,50
143016,note_on,216,0,3,,,,,,,,2,,,55,0
143040,control_change,24,0,3,,,,,,,,2,64,127,,
143040,control_change,480,0,4,,,,,,,,3,64,127,,
143040,set_tempo,1440,1,0,,,,,,524246,,,,,,
143040,note_on,0,0,4,,,,,,,,3,,,40,64
143055,control_change,495,0,1,,,,,,,,0,64,127,,
143280,note_on,240,0,3,,,,,,,,2,,,60,50
143280,note_on,0,0,3,,,,,,,,2,,,67,50
143519,note_on,0,0,3,,,,,,,,2,,,60,0
143519,note_on,239,0,3,,,,,,,,2,,,67,0
143520,note_on,1,0,3,,,,,,,,2,,,55,50
143565,control_change,4629,0,2,,,,,,,,1,64,127,,
143640,note_on,75,0,2,,,,,,,,1,,,83,69
143719,note_on,79,0,2,,,,,,,,1,,,83,0
143720,note_on,1,0,2,,,,,,,,1,,,84,74
143759,note_on,719,0,4,,,,,,,,3,,,40,0
143759,note_on,0,0,1,,,,,,,,0,,,84,0
143759,note_on,704,0,1,,,,,,,,0,,,72,0
143760,note_on,1,0,1,,,,,,,,0,,,84,82
143760,note_on,0,0,1,,,,,,,,0,,,72,82
143760,note_on,1,0,4,,,,,,,,3,,,52,64
143799,note_on,79,0,2,,,,,,,,1,,,84,0
143800,note_on,1,0,2,,,,,,,,1,,,86,82
143872,note_on,72,0,2,,,,,,,,1,,,86,0
143976,note_on,216,0,4,,,,,,,,3,,,52,0
143999,note_on,479,0,3,,,,,,,,2,,,55,0
144000,control_change,1,0,3,,,,,,,,2,64,0,,
144000,control_change,24,0,4,,,,,,,,3,64,0,,
144000,note_on,0,0,3,,,,,,,,2,,,68,50
144000,note_on,0,0,3,,,,,,,,2,,,60,50
144015,control_change,255,0,1,,,,,,,,0,64,0,,
144239,note_on,239,0,3,,,,,,,,2,,,68,0
144239,note_on,0,0,3,,,,,,,,2,,,60,0
144240,note_on,1,0,3,,,,,,,,2,,,56,50
144359,note_on,0,0,1,,,,,,,,0,,,84,0
144359,note_on,344,0,1,,,,,,,,0,,,72,0
144360,note_on,1,0,1,,,,,,,,0,,,83,71
144360,note_on,0,0,1,,,,,,,,0,,,71,71
144456,note_on,216,0,3,,,,,,,,2,,,56,0
144468,note_on,108,0,1,,,,,,,,0,,,71,0
144468,note_on,0,0,1,,,,,,,,0,,,83,0
144480,note_on,12,0,1,,,,,,,,0,,,83,82
144480,note_on,0,0,1,,,,,,,,0,,,71,82
144480,control_change,0,0,1,,,,,,,,0,64,127,,
144480,note_on,0,0,4,,,,,,,,3,,,41,64
144480,control_change,24,0,3,,,,,,,,2,64,127,,
144480,control_change,480,0,4,,,,,,,,3,64,127,,
144525,control_change,653,0,2,,,,,,,,1,64,0,,
144720,note_on,240,0,3,,,,,,,,2,,,68,50
144720,note_on,0,0,3,,,,,,,,2,,,62,50
144959,note_on,239,0,3,,,,,,,,2,,,62,0
144959,note_on,0,0,3,,,,,,,,2,,,68,0
144960,note_on,1,0,3,,,,,,,,2,,,56,50
145199,note_on,719,0,4,,,,,,,,3,,,41,0
145199,note_on,0,0,1,,,,,,,,0,,,83,0
145199,note_on,719,0,1,,,,,,,,0,,,71,0
145200,note_on,1,0,1,,,,,,,,0,,,69,82
145200,note_on,0,0,1,,,,,,,,0,,,81,82
145200,note_on,1,0,4,,,,,,,,3,,,53,64
145416,note_on,216,0,4,,,,,,,,3,,,53,0
145439,note_on,479,0,3,,,,,,,,2,,,56,0
145440,control_change,0,0,3,,,,,,,,2,64,0,,
145440,note_on,0,0,3,,,,,,,,2,,,60,49
145440,note_on,1,0,3,,,,,,,,2,,,69,49
145440,control_change,240,0,1,,,,,,,,0,64,0,,
145440,control_change,24,0,4,,,,,,,,3,64,0,,
145441,control_change,1,0,3,,,,,,,,2,64,127,,
145441,control_change,1,0,1,,,,,,,,0,64,127,,
145679,note_on,0,0,3,,,,,,,,2,,,69,0
145679,note_on,238,0,3,,,,,,,,2,,,60,0
145680,note_on,1,0,3,,,,,,,,2,,,57,49
145848,note_on,407,0,1,,,,,,,,0,,,81,0
145848,note_on,0,0,1,,,,,,,,0,,,69,0
145896,note_on,216,0,3,,,,,,,,2,,,57,0
145920,control_change,480,0,4,,,,,,,,3,64,127,,
145920,note_on,0,0,4,,,,,,,,3,,,40,64
146160,note_on,264,0,3,,,,,,,,2,,,67,48
146160,note_on,0,0,3,,,,,,,,2,,,61,48
146399,note_on,0,0,3,,,,,,,,2,,,67,0
146399,note_on,239,0,3,,,,,,,,2,,,61,0
146400,note_on,1,0,3,,,,,,,,2,,,57,48
146401,control_change,1,0,3,,,,,,,,2,64,0,,
146401,control_change,553,0,1,,,,,,,,0,64,0,,
146402,control_change,1,0,3,,,,,,,,2,64,127,,
146402,control_change,1,0,1,,,,,,,,0,64,127,,
146622,set_tempo,3582,1,0,,,,,,483676,,,,,,
146639,note_on,719,0,4,,,,,,,,3,,,40,0
146640,note_on,238,0,1,,,,,,,,0,,,69,81
146640,note_on,1,0,4,,,,,,,,3,,,52,64
146640,note_on,0,0,1,,,,,,,,0,,,81,81
146856,note_on,216,0,4,,,,,,,,3,,,52,0
146879,note_on,477,0,3,,,,,,,,2,,,57,0
146880,note_on,0,0,3,,,,,,,,2,,,61,47
146880,note_on,1,0,3,,,,,,,,2,,,67,47
146880,control_change,24,0,4,,,,,,,,3,64,0,,
147119,note_on,0,0,3,,,,,,,,2,,,67,0
147119,note_on,239,0,3,,,,,,,,2,,,61,0
147119,note_on,0,0,1,,,,,,,,0,,,69,0
147119,note_on,479,0,1,,,,,,,,0,,,81,0
147120,note_on,0,0,1,,,,,,,,0,,,67,81
147120,note_on,1,0,3,,,,,,,,2,,,57,47
147120,note_on,1,0,1,,,,,,,,0,,,79,81
147336,note_on,0,0,1,,,,,,,,0,,,79,0
147336,note_on,216,0,1,,,,,,,,0,,,67,0
147336,note_on,216,0,3,,,,,,,,2,,,57,0
147360,note_on,0,0,1,,,,,,,,0,,,67,81
147360,note_on,24,0,1,,,,,,,,0,,,79,81
147360,note_on,480,0,4,,,,,,,,3,,,38,64
147362,control_change,26,0,3,,,,,,,,2,64,0,,
147362,control_change,2,0,1,,,,,,,,0,64,0,,
147363,control_change,1,0,3,,,,,,,,2,64,127,,
147363,control_change,1,0,1,,,,,,,,0,64,127,,
147411,control_change,51,0,4,,,,,,,,3,64,127,,
147600,note_on,0,0,3,,,,,,,,2,,,65,46
147600,note_on,237,0,3,,,,,,,,2,,,62,46
147839,note_on,0,0,3,,,,,,,,2,,,62,0
147839,note_on,239,0,3,,,,,,,,2,,,65,0
147840,note_on,1,0,3,,,,,,,,2,,,57,45
147959,note_on,0,0,1,,,,,,,,0,,,79,0
147959,note_on,596,0,1,,,,,,,,0,,,67,0
147960,note_on,1,0,1,,,,,,,,0,,,77,71
147960,note_on,0,0,1,,,,,,,,0,,,65,71
148079,note_on,119,0,1,,,,,,,,0,,,65,0
148079,note_on,0,0,1,,,,,,,,0,,,77,0
148079,note_on,668,0,4,,,,,,,,3,,,38,0
148080,note_on,1,0,1,,,,,,,,0,,,89,81
148080,note_on,0,0,1,,,,,,,,0,,,77,81
148080,note_on,1,0,4,,,,,,,,3,,,50,64
148296,note_on,216,0,4,,,,,,,,3,,,50,0
148319,note_on,479,0,3,,,,,,,,2,,,57,0
148320,note_on,0,0,3,,,,,,,,2,,,65,45
148320,note_on,1,0,3,,,,,,,,2,,,62,45
148323,control_change,3,0,3,,,,,,,,2,64,0,,
148323,control_change,243,0,1,,,,,,,,0,64,0,,
148324,control_change,1,0,1,,,,,,,,0,64,127,,
148324,control_change,1,0,3,,,,,,,,2,64,127,,
148371,control_change,75,0,4,,,,,,,,3,64,0,,
148559,note_on,0,0,3,,,,,,,,2,,,62,0
148559,note_on,235,0,3,,,,,,,,2,,,65,0
148560,note_on,1,0,3,,,,,,,,2,,,57,44
148776,note_on,216,0,3,,,,,,,,2,,,57,0
148800,note_on,429,0,4,,,,,,,,3,,,36,64
148807,set_tempo,2185,1,0,,,,,,474496,,,,,,
148851,control_change,51,0,4,,,,,,,,3,64,127,,
149040,note_on,0,0,3,,,,,,,,2,,,62,44
149040,note_on,264,0,3,,,,,,,,2,,,65,44
149279,note_on,239,0,3,,,,,,,,2,,,62,0
149279,note_on,0,0,3,,,,,,,,2,,,65,0
149280,note_on,1,0,3,,,,,,,,2,,,56,43
149284,control_change,960,0,1,,,,,,,,0,64,0,,
149284,control_change,4,0,3,,,,,,,,2,64,0,,
149285,control_change,1,0,3,,,,,,,,2,64,127,,
149285,control_change,1,0,1,,,,,,,,0,64,127,,
149519,note_on,668,0,4,,,,,,,,3,,,36,0
149519,note_on,0,0,1,,,,,,,,0,,,89,0
149519,note_on,234,0,1,,,,,,,,0,,,77,0
149520,note_on,1,0,4,,,,,,,,3,,,48,64
149520,note_on,1,0,1,,,,,,,,0,,,89,81
149520,note_on,0,0,1,,,,,,,,0,,,77,81
149736,note_on,216,0,4,,,,,,,,3,,,48,0
149759,note_on,474,0,3,,,,,,,,2,,,56,0
149760,note_on,1,0,3,,,,,,,,2,,,65,42
149760,note_on,0,0,3,,,,,,,,2,,,62,42
149811,control_change,75,0,4,,,,,,,,3,64,0,,
149999,note_on,239,0,3,,,,,,,,2,,,62,0
149999,note_on,0,0,3,,,,,,,,2,,,65,0
150000,note_on,1,0,3,,,,,,,,2,,,56,42
150119,note_on,0,0,1,,,,,,,,0,,,89,0
150119,note_on,599,0,1,,,,,,,,0,,,77,0
150120,note_on,1,0,1,,,,,,,,0,,,76,72
150120,note_on,0,0,1,,,,,,,,0,,,88,72
150216,note_on,216,0,3,,,,,,,,2,,,56,0
150228,note_on,0,0,1,,,,,,,,0,,,76,0
150228,note_on,108,0,1,,,,,,,,0,,,88,0
150240,note_on,0,0,1,,,,,,,,0,,,76,81
150240,note_on,12,0,1,,,,,,,,0,,,88,81
150240,note_on,429,0,4,,,,,,,,3,,,35,64
150245,control_change,29,0,3,,,,,,,,2,64,0,,
150245,control_change,5,0,1,,,,,,,,0,64,0,,
150246,control_change,1,0,3,,,,,,,,2,64,127,,
150246,control_change,1,0,1,,,,,,,,0,64,127,,
150300,control_change,60,0,4,,,,,,,,3,64,127,,
150480,note_on,0,0,3,,,,,,,,2,,,62,41
150480,note_on,234,0,3,,,,,,,,2,,,55,41
150719,note_on,0,0,3,,,,,,,,2,,,55,0
150719,note_on,239,0,3,,,,,,,,2,,,62,0
150720,note_on,1,0,3,,,,,,,,2,,,53,41
150959,note_on,713,0,1,,,,,,,,0,,,76,0
150959,note_on,659,0,4,,,,,,,,3,,,35,0
150959,note_on,0,0,1,,,,,,,,0,,,88,0
150960,note_on,0,0,1,,,,,,,,0,,,74,94
150960,note_on,1,0,4,,,,,,,,3,,,47,64
150960,note_on,1,0,1,,,,,,,,0,,,86,94
151176,note_on,216,0,4,,,,,,,,3,,,47,0
151199,note_on,479,0,3,,,,,,,,2,,,53,0
151200,note_on,1,0,3,,,,,,,,2,,,62,44
151200,note_on,0,0,3,,,,,,,,2,,,55,44
151206,control_change,246,0,1,,,,,,,,0,64,0,,
151206,control_change,6,0,3,,,,,,,,2,64,0,,
151207,control_change,1,0,1,,,,,,,,0,64,127,,
151207,control_change,1,0,3,,,,,,,,2,64,127,,
151260,control_change,84,0,4,,,,,,,,3,64,0,,
151392,note_on,0,0,1,,,,,,,,0,,,86,0
151392,note_on,185,0,1,,,,,,,,0,,,74,0
151439,note_on,232,0,3,,,,,,,,2,,,55,0
151439,note_on,0,0,3,,,,,,,,2,,,62,0
151440,note_on,1,0,3,,,,,,,,2,,,53,44
151637,set_tempo,2830,1,0,,,,,,489356,,,,,,
151656,note_on,216,0,3,,,,,,,,2,,,53,0
151680,note_on,420,0,4,,,,,,,,3,,,35,64
151800,control_change,120,0,4,,,,,,,,3,64,127,,
151920,note_on,264,0,3,,,,,,,,2,,,55,44
151920,note_on,0,0,3,,,,,,,,2,,,62,44
152159,note_on,239,0,3,,,,,,,,2,,,62,0
152159,note_on,0,0,3,,,,,,,,2,,,55,0
152160,note_on,1,0,3,,,,,,,,2,,,53,44
152167,control_change,775,0,1,,,,,,,,0,64,0,,
152167,control_change,7,0,3,,,,,,,,2,64,0,,
152168,control_change,1,0,1,,,,,,,,0,64,127,,
152168,control_change,1,0,3,,,,,,,,2,64,127,,
152399,note_on,599,0,4,,,,,,,,3,,,35,0
152400,note_on,1,0,4,,,,,,,,3,,,47,64
152400,note_on,232,0,1,,,,,,,,0,,,86,86
152400,note_on,0,0,1,,,,,,,,0,,,74,86
152616,note_on,216,0,4,,,,,,,,3,,,47,0
152639,note_on,471,0,3,,,,,,,,2,,,53,0
152640,note_on,1,0,3,,,,,,,,2,,,62,44
152760,control_change,144,0,4,,,,,,,,3,64,0,,
152879,note_on,239,0,3,,,,,,,,2,,,62,0
152880,note_on,0,0,3,,,,,,,,2,,,55,44
152880,note_on,1,0,3,,,,,,,,2,,,53,44
153048,note_on,648,0,1,,,,,,,,0,,,74,0
153048,note_on,0,0,1,,,,,,,,0,,,86,0
153096,note_on,0,0,3,,,,,,,,2,,,53,0
153096,note_on,216,0,3,,,,,,,,2,,,55,0
153120,control_change,360,0,4,,,,,,,,3,64,127,,
153120,note_on,72,0,1,,,,,,,,0,,,87,94
153120,note_on,0,0,1,,,,,,,,0,,,75,94
153120,note_on,0,0,4,,,,,,,,3,,,48,64
153128,control_change,32,0,3,,,,,,,,2,64,0,,
153128,control_change,8,0,1,,,,,,,,0,64,0,,
153129,control_change,1,0,3,,,,,,,,2,64,127,,
153129,control_change,1,0,1,,,,,,,,0,64,127,,
153360,note_on,231,0,3,,,,,,,,2,,,63,44
153599,note_on,239,0,3,,,,,,,,2,,,63,0
153600,note_on,1,0,3,,,,,,,,2,,,55,44
153600,note_on,0,0,3,,,,,,,,2,,,51,44
153839,note_on,719,0,4,,,,,,,,3,,,48,0
153839,note_on,710,0,1,,,,,,,,0,,,75,0
153839,note_on,0,0,1,,,,,,,,0,,,87,0
153840,note_on,1,0,4,,,,,,,,3,,,44,64
153840,note_on,1,0,1,,,,,,,,0,,,84,85
153840,note_on,0,0,1,,,,,,,,0,,,72,85
154056,note_on,216,0,4,,,,,,,,3,,,44,0
154079,note_on,0,0,3,,,,,,,,2,,,55,0
154079,note_on,479,0,3,,,,,,,,2,,,51,0
154080,control_change,24,0,4,,,,,,,,3,64,0,,
154080,note_on,1,0,3,,,,,,,,2,,,60,44
154089,control_change,249,0,1,,,,,,,,0,64,0,,
154089,control_change,9,0,3,,,,,,,,2,64,0,,
154090,control_change,1,0,1,,,,,,,,0,64,127,,
154090,control_change,1,0,3,,,,,,,,2,64,127,,
154319,note_on,229,0,3,,,,,,,,2,,,60,0
154320,note_on,1,0,3,,,,,,,,2,,,51,44
154320,note_on,0,0,3,,,,,,,,2,,,56,44
154488,note_on,0,0,1,,,,,,,,0,,,84,0
154488,note_on,398,0,1,,,,,,,,0,,,72,0
154532,set_tempo,2895,1,0,,,,,,470921,,,,,,
154536,note_on,216,0,3,,,,,,,,2,,,56,0
154536,note_on,0,0,3,,,,,,,,2,,,51,0
154560,note_on,72,0,1,,,,,,,,0,,,77,73
154560,control_change,480,0,4,,,,,,,,3,64,127,,
154560,note_on,0,0,4,,,,,,,,3,,,37,64
154680,note_on,120,0,1,,,,,,,,0,,,89,94
154800,note_on,264,0,3,,,,,,,,2,,,65,44
155039,note_on,239,0,3,,,,,,,,2,,,65,0
155040,note_on,1,0,3,,,,,,,,2,,,58,44
155040,note_on,0,0,3,,,,,,,,2,,,56,44
155050,control_change,370,0,1,,,,,,,,0,64,0,,
155050,control_change,10,0,3,,,,,,,,2,64,0,,
155051,control_change,1,0,3,,,,,,,,2,64,127,,
155051,control_change,1,0,1,,,,,,,,0,64,127,,
155279,note_on,719,0,4,,,,,,,,3,,,37,0
155280,note_on,1,0,4,,,,,,,,3,,,39,64
155496,note_on,216,0,4,,,,,,,,3,,,39,0
155519,note_on,468,0,3,,,,,,,,2,,,56,0
155519,note_on,0,0,3,,,,,,,,2,,,58,0
155520,control_change,24,0,4,,,,,,,,3,64,0,,
155520,note_on,1,0,3,,,,,,,,2,,,61,44
155759,note_on,239,0,3,,,,,,,,2,,,61,0
155759,note_on,0,0,1,,,,,,,,0,,,77,0
155759,note_on,708,0,1,,,,,,,,0,,,89,0
155760,note_on,1,0,1,,,,,,,,0,,,73,93
155760,note_on,0,0,1,,,,,,,,0,,,85,93
155760,note_on,0,0,3,,,,,,,,2,,,51,44
155760,note_on,1,0,3,,,,,,,,2,,,55,44
155955,set_tempo,1423,1,0,,,,,,452182,,,,,,
155976,note_on,216,0,1,,,,,,,,0,,,85,0
155976,note_on,0,0,1,,,,,,,,0,,,73,0
155976,note_on,0,0,3,,,,,,,,2,,,55,0
155976,note_on,216,0,3,,,,,,,,2,,,51,0
156000,control_change,480,0,4,,,,,,,,3,64,127,,
156000,note_on,0,0,4,,,,,,,,3,,,44,64
156000,note_on,0,0,1,,,,,,,,0,,,84,83
156000,note_on,24,0,1,,,,,,,,0,,,72,83
156011,control_change,11,0,1,,,,,,,,0,64,0,,
156011,control_change,35,0,3,,,,,,,,2,64,0,,
156012,control_change,1,0,1,,,,,,,,0,64,127,,
156012,control_change,1,0,3,,,,,,,,2,64,127,,
156240,note_on,228,0,3,,,,,,,,2,,,60,44
156479,note_on,239,0,3,,,,,,,,2,,,60,0
156480,note_on,1,0,3,,,,,,,,2,,,51,44
156480,note_on,0,0,3,,,,,,,,2,,,56,44
156719,note_on,719,0,4,,,,,,,,3,,,44,0
156720,note_on,1,0,4,,,,,,,,3,,,44,64
156936,note_on,216,0,4,,,,,,,,3,,,44,0
156959,note_on,479,0,3,,,,,,,,2,,,56,0
156959,note_on,0,0,3,,,,,,,,2,,,51,0
156960,note_on,1,0,3,,,,,,,,2,,,57,41
156960,note_on,0,0,3,,,,,,,,2,,,60,41
156960,control_change,24,0,4,,,,,,,,3,64,0,,
156972,control_change,960,0,1,,,,,,,,0,64,0,,
156972,control_change,12,0,3,,,,,,,,2,64,0,,
156973,control_change,1,0,1,,,,,,,,0,64,127,,
156973,control_change,1,0,3,,,,,,,,2,64,127,,
157199,note_on,0,0,3,,,,,,,,2,,,57,0
157199,note_on,226,0,3,,,,,,,,2,,,60,0
157200,note_on,1,0,3,,,,,,,,2,,,51,41
157296,note_on,0,0,1,,,,,,,,0,,,72,0
157296,note_on,323,0,1,,,,,,,,0,,,84,0
157416,note_on,216,0,3,,,,,,,,2,,,51,0
157440,note_on,480,0,4,,,,,,,,3,,,43,64
157467,control_change,27,0,4,,,,,,,,3,64,127,,
157582,set_tempo,1627,1,0,,,,,,476304,,,,,,
157680,note_on,264,0,3,,,,,,,,2,,,58,42
157680,note_on,0,0,3,,,,,,,,2,,,60,42
157919,note_on,0,0,3,,,,,,,,2,,,58,0
157919,note_on,239,0,3,,,,,,,,2,,,60,0
157920,note_on,1,0,3,,,,,,,,2,,,52,42
157933,control_change,637,0,1,,,,,,,,0,64,0,,
157933,control_change,13,0,3,,,,,,,,2,64,0,,
157934,control_change,1,0,3,,,,,,,,2,64,127,,
157934,control_change,1,0,1,,,,,,,,0,64,127,,
158159,note_on,692,0,4,,,,,,,,3,,,43,0
158160,note_on,1,0,4,,,,,,,,3,,,43,64
158160,note_on,226,0,1,,,,,,,,0,,,84,88
158160,note_on,0,0,1,,,,,,,,0,,,72,88
158376,note_on,216,0,4,,,,,,,,3,,,43,0
158399,note_on,465,0,3,,,,,,,,2,,,52,0
158400,note_on,1,0,3,,,,,,,,2,,,60,43
158400,note_on,0,0,3,,,,,,,,2,,,58,43
158427,control_change,51,0,4,,,,,,,,3,64,0,,
158639,note_on,239,0,3,,,,,,,,2,,,58,0
158639,note_on,0,0,3,,,,,,,,2,,,60,0
158640,note_on,1,0,3,,,,,,,,2,,,52,43
158790,set_tempo,1208,1,0,,,,,,524246,,,,,,
158808,note_on,0,0,1,,,,,,,,0,,,84,0
158808,note_on,648,0,1,,,,,,,,0,,,72,0
158856,note_on,216,0,3,,,,,,,,2,,,52,0
158880,note_on,0,0,1,,,,,,,,0,,,72,87
158880,note_on,72,0,1,,,,,,,,0,,,84,87
158880,note_on,453,0,4,,,,,,,,3,,,41,64
158894,control_change,38,0,3,,,,,,,,2,64,0,,
158894,control_change,14,0,1,,,,,,,,0,64,0,,
159000,control_change,106,0,1,,,,,,,,0,64,127,,
159090,control_change,210,0,4,,,,,,,,3,64,127,,
159090,control_change,196,0,3,,,,,,,,2,64,127,,
159120,note_on,0,0,3,,,,,,,,2,,,57,44
159120,note_on,30,0,3,,,,,,,,2,,,60,44
159359,note_on,0,0,3,,,,,,,,2,,,60,0
159359,note_on,239,0,3,,,,,,,,2,,,57,0
159360,note_on,1,0,3,,,,,,,,2,,,53,44
159599,note_on,0,0,1,,,,,,,,0,,,84,0
159599,note_on,599,0,1,,,,,,,,0,,,72,0
159599,note_on,509,0,4,,,,,,,,3,,,41,0
159600,note_on,0,0,1,,,,,,,,0,,,77,97
159600,note_on,1,0,1,,,,,,,,0,,,89,97
159600,note_on,1,0,4,,,,,,,,3,,,45,64
159816,note_on,216,0,4,,,,,,,,3,,,45,0
159839,note_on,479,0,3,,,,,,,,2,,,53,0
159840,note_on,1,0,3,,,,,,,,2,,,60,45
159840,note_on,0,0,3,,,,,,,,2,,,65,45
159960,control_change,360,0,1,,,,,,,,0,64,0,,
160050,control_change,234,0,4,,,,,,,,3,64,0,,
160050,control_change,210,0,3,,,,,,,,2,64,0,,
160079,note_on,29,0,3,,,,,,,,2,,,65,0
160079,note_on,0,0,3,,,,,,,,2,,,60,0
160080,note_on,1,0,3,,,,,,,,2,,,57,45
160248,note_on,288,0,1,,,,,,,,0,,,77,0
160248,note_on,0,0,1,,,,,,,,0,,,89,0
160296,note_on,216,0,3,,,,,,,,2,,,57,0
160313,set_tempo,1523,1,0,,,,,,567054,,,,,,
160320,control_change,72,0,1,,,,,,,,0,64,127,,
160320,note_on,0,0,4,,,,,,,,3,,,46,64
160320,note_on,0,0,1,,,,,,,,0,,,79,86
160320,control_change,24,0,3,,,,,,,,2,64,127,,
160320,note_on,0,0,1,,,,,,,,0,,,67,86
160320,control_change,270,0,4,,,,,,,,3,64,127,,
160560,note_on,240,0,3,,,,,,,,2,,,55,46
160560,note_on,0,0,3,,,,,,,,2,,,62,46
160799,note_on,239,0,3,,,,,,,,2,,,62,0
160799,note_on,0,0,3,,,,,,,,2,,,55,0
160800,note_on,1,0,3,,,,,,,,2,,,53,46
161039,note_on,719,0,4,,,,,,,,3,,,46,0
161040,note_on,1,0,4,,,,,,,,3,,,48,64
161256,note_on,216,0,4,,,,,,,,3,,,48,0
161279,note_on,479,0,3,,,,,,,,2,,,53,0
161279,note_on,959,0,1,,,,,,,,0,,,79,0
161279,note_on,0,0,1,,,,,,,,0,,,67,0
161280,control_change,24,0,4,,,,,,,,3,64,0,,
161280,note_on,0,0,1,,,,,,,,0,,,81,95
161280,note_on,0,0,1,,,,,,,,0,,,69,95
161280,note_on,0,0,3,,,,,,,,2,,,60,64
161280,note_on,1,0,3,,,,,,,,2,,,58,64
161280,control_change,1,0,1,,,,,,,,0,64,0,,
161280,control_change,0,0,3,,,,,,,,2,64,0,,
161519,note_on,239,0,3,,,,,,,,2,,,60,0
161519,note_on,0,0,1,,,,,,,,0,,,69,0
161519,note_on,239,0,1,,,,,,,,0,,,81,0
161519,note_on,0,0,3,,,,,,,,2,,,58,0
161520,note_on,0,0,1,,,,,,,,0,,,67,89
161520,note_on,1,0,3,,,,,,,,2,,,52,47
161520,note_on,1,0,1,,,,,,,,0,,,79,89
161736,note_on,0,0,1,,,,,,,,0,,,79,0
161736,note_on,216,0,3,,,,,,,,2,,,52,0
161736,note_on,216,0,1,,,,,,,,0,,,67,0
161760,control_change,24,0,3,,,,,,,,2,64,127,,
161760,control_change,480,0,4,,,,,,,,3,64,127,,
161760,note_on,0,0,1,,,,,,,,0,,,77,81
161760,note_on,24,0,1,,,,,,,,0,,,65,81
161760,note_on,0,0,4,,,,,,,,3,,,41,64
161971,set_tempo,1658,1,0,,,,,,522057,,,,,,
162000,note_on,240,0,3,,,,,,,,2,,,60,47
162000,note_on,0,0,3,,,,,,,,2,,,57,47
162239,note_on,239,0,3,,,,,,,,2,,,57,0
162239,note_on,0,0,3,,,,,,,,2,,,60,0
162240,note_on,1,0,3,,,,,,,,2,,,53,47
162467,set_tempo,496,1,0,,,,,,481812,,,,,,
162479,note_on,719,0,4,,,,,,,,3,,,41,0
162480,note_on,1,0,4,,,,,,,,3,,,41,65
162696,note_on,216,0,4,,,,,,,,3,,,41,0
162719,note_on,479,0,3,,,,,,,,2,,,53,0
162720,control_change,24,0,4,,,,,,,,3,64,0,,
162720,control_change,1,0,3,,,,,,,,2,64,0,,
162720,note_on,0,0,3,,,,,,,,2,,,60,48
162720,note_on,0,0,3,,,,,,,,2,,,57,48
162931,set_tempo,464,1,0,,,,,,445732,,,,,,
162959,note_on,239,0,3,,,,,,,,2,,,57,0
162959,note_on,0,0,3,,,,,,,,2,,,60,0
162960,note_on,1,0,3,,,,,,,,2,,,53,48
163056,note_on,0,0,1,,,,,,,,0,,,65,0
163056,note_on,1296,0,1,,,,,,,,0,,,77,0
163176,note_on,216,0,3,,,,,,,,2,,,53,0
163200,note_on,0,0,4,,,,,,,,3,,,41,71
163200,control_change,480,0,4,,,,,,,,3,64,127,,
163200,control_change,24,0,3,,,,,,,,2,64,127,,
163440,note_on,0,0,3,,,,,,,,2,,,57,48
163440,note_on,240,0,3,,,,,,,,2,,,60,48
163679,note_on,0,0,3,,,,,,,,2,,,60,0
163679,note_on,239,0,3,,,,,,,,2,,,57,0
163680,note_on,1,0,3,,,,,,,,2,,,53,49
163919,note_on,719,0,4,,,,,,,,3,,,41,0
163920,note_on,1,0,4,,,,,,,,3,,,44,77
164136,note_on,216,0,4,,,,,,,,3,,,44,0
164159,note_on,479,0,3,,,,,,,,2,,,53,0
164160,control_change,24,0,4,,,,,,,,3,64,0,,
164160,note_on,0,0,3,,,,,,,,2,,,53,49
164160,note_on,0,0,3,,,,,,,,2,,,56,49
164160,control_change,1,0,3,,,,,,,,2,64,0,,
164399,note_on,0,0,3,,,,,,,,2,,,53,0
164399,note_on,239,0,3,,,,,,,,2,,,56,0
164400,note_on,1,0,3,,,,,,,,2,,,48,49
164616,note_on,216,0,3,,,,,,,,2,,,48,0
164640,control_change,0,0,3,,,,,,,,2,64,127,,
164640,note_on,24,0,3,,,,,,,,2,,,43,47
164640,note_on,0,0,4,,,,,,,,3,,,43,64
164640,note_on,0,0,1,,,,,,,,0,,,67,85
164640,note_on,1584,0,1,,,,,,,,0,,,55,85
164640,control_change,0,0,4,,,,,,,,3,64,127,,
164640,note_on,480,0,4,,,,,,,,3,,,31,64
164640,note_on,20115,0,2,,,,,,,,1,,,55,47
164640,control_change,0,0,2,,,,,,,,1,64,127,,
164652,set_tempo,1721,1,0,,,,,,391722,,,,,,
164759,note_on,119,0,2,,,,,,,,1,,,55,0
164759,note_on,119,0,3,,,,,,,,2,,,43,0
164760,note_on,1,0,2,,,,,,,,1,,,59,47
164760,note_on,1,0,3,,,,,,,,2,,,47,47
164879,note_on,119,0,3,,,,,,,,2,,,47,0
164879,note_on,119,0,2,,,,,,,,1,,,59,0
164880,note_on,1,0,3,,,,,,,,2,,,50,47
164880,note_on,1,0,2,,,,,,,,1,,,62,47
164999,note_on,119,0,3,,,,,,,,2,,,50,0
164999,note_on,119,0,2,,,,,,,,1,,,62,0
165000,note_on,1,0,3,,,,,,,,2,,,53,48
165000,note_on,1,0,2,,,,,,,,1,,,65,47
165119,note_on,119,0,3,,,,,,,,2,,,53,0
165119,note_on,119,0,2,,,,,,,,1,,,65,0
165120,note_on,1,0,3,,,,,,,,2,,,50,48
165120,note_on,1,0,2,,,,,,,,1,,,62,48
165237,control_change,117,0,3,,,,,,,,2,64,0,,
165237,control_change,117,0,2,,,,,,,,1,64,0,,
165237,control_change,597,0,4,,,,,,,,3,64,0,,
165239,note_on,2,0,3,,,,,,,,2,,,50,0
165239,note_on,2,0,2,,,,,,,,1,,,62,0
165240,note_on,1,0,3,,,,,,,,2,,,47,48
165240,note_on,1,0,2,,,,,,,,1,,,59,48
165357,control_change,117,0,2,,,,,,,,1,64,127,,
165357,control_change,117,0,3,,,,,,,,2,64,127,,
165357,control_change,120,0,4,,,,,,,,3,64,127,,
165359,note_on,0,0,4,,,,,,,,3,,,31,0
165359,note_on,2,0,4,,,,,,,,3,,,43,0
165359,note_on,2,0,2,,,,,,,,1,,,59,0
165359,note_on,2,0,3,,,,,,,,2,,,47,0
165360,note_on,1,0,3,,,,,,,,2,,,44,48
165360,note_on,1,0,4,,,,,,,,3,,,32,64
165360,note_on,0,0,4,,,,,,,,3,,,44,64
165360,note_on,1,0,2,,,,,,,,1,,,56,48
165479,note_on,119,0,3,,,,,,,,2,,,44,0
165479,note_on,119,0,2,,,,,,,,1,,,56,0
165480,note_on,1,0,2,,,,,,,,1,,,59,48
165480,note_on,1,0,3,,,,,,,,2,,,47,49
165599,note_on,119,0,2,,,,,,,,1,,,59,0
165599,note_on,119,0,3,,,,,,,,2,,,47,0
165600,note_on,1,0,2,,,,,,,,1,,,62,48
165600,note_on,1,0,3,,,,,,,,2,,,50,49
165719,note_on,119,0,3,,,,,,,,2,,,50,0
165719,note_on,119,0,2,,,,,,,,1,,,62,0
165720,note_on,1,0,3,,,,,,,,2,,,53,49
165720,note_on,1,0,2,,,,,,,,1,,,65,49
165839,note_on,0,0,1,,,,,,,,0,,,55,0
165839,note_on,119,0,3,,,,,,,,2,,,53,0
165839,note_on,479,0,4,,,,,,,,3,,,44,0
165839,note_on,0,0,4,,,,,,,,3,,,32,0
165839,note_on,119,0,2,,,,,,,,1,,,65,0
165839,note_on,1199,0,1,,,,,,,,0,,,67,0
165840,note_on,1,0,4,,,,,,,,3,,,44,64
165840,note_on,1,0,2,,,,,,,,1,,,62,49
165840,note_on,1,0,3,,,,,,,,2,,,50,50
165840,note_on,0,0,1,,,,,,,,0,,,68,72
165840,note_on,1,0,1,,,,,,,,0,,,56,72
165957,control_change,117,0,4,,,,,,,,3,64,0,,
165957,control_change,117,0,2,,,,,,,,1,64,0,,
165957,control_change,117,0,3,,,,,,,,2,64,0,,
165958,control_change,1,0,3,,,,,,,,2,64,127,,
165958,control_change,1,0,2,,,,,,,,1,64,127,,
165958,control_change,1,0,4,,,,,,,,3,64,127,,
165959,note_on,1,0,2,,,,,,,,1,,,62,0
165959,note_on,1,0,3,,,,,,,,2,,,50,0
165960,note_on,1,0,3,,,,,,,,2,,,47,50
165960,note_on,1,0,2,,,,,,,,1,,,59,49
166056,note_on,98,0,4,,,,,,,,3,,,44,0
166056,note_on,216,0,1,,,,,,,,0,,,68,0
166056,note_on,0,0,1,,,,,,,,0,,,56,0
166068,note_on,108,0,3,,,,,,,,2,,,47,0
166068,note_on,108,0,2,,,,,,,,1,,,59,0
166080,control_change,24,0,1,,,,,,,,0,64,127,,
166080,note_on,24,0,4,,,,,,,,3,,,31,64
166080,note_on,12,0,3,,,,,,,,2,,,43,50
166080,note_on,0,0,1,,,,,,,,0,,,55,83
166080,note_on,0,0,1,,,,,,,,0,,,67,83
166080,note_on,0,0,4,,,,,,,,3,,,43,64
166080,note_on,12,0,2,,,,,,,,1,,,55,49
166199,note_on,119,0,2,,,,,,,,1,,,55,0
166199,note_on,119,0,3,,,,,,,,2,,,43,0
166200,note_on,1,0,3,,,,,,,,2,,,47,50
166200,note_on,1,0,2,,,,,,,,1,,,59,50
166319,note_on,119,0,3,,,,,,,,2,,,47,0
166319,note_on,119,0,2,,,,,,,,1,,,59,0
166320,note_on,1,0,3,,,,,,,,2,,,50,51
166320,note_on,1,0,2,,,,,,,,1,,,62,50
166439,note_on,119,0,2,,,,,,,,1,,,62,0
166439,note_on,119,0,3,,,,,,,,2,,,50,0
166440,note_on,1,0,3,,,,,,,,2,,,53,51
166440,note_on,1,0,2,,,,,,,,1,,,65,50
166555,control_change,115,0,3,,,,,,,,2,64,0,,
166555,control_change,475,0,4,,,,,,,,3,64,0,,
166555,control_change,115,0,2,,,,,,,,1,64,0,,
166559,note_on,4,0,4,,,,,,,,3,,,43,0
166559,note_on,0,0,1,,,,,,,,0,,,55,0
166559,note_on,0,0,4,,,,,,,,3,,,31,0
166559,note_on,479,0,1,,,,,,,,0,,,67,0
166559,note_on,4,0,2,,,,,,,,1,,,65,0
166559,note_on,4,0,3,,,,,,,,2,,,53,0
166560,note_on,1,0,4,,,,,,,,3,,,43,64
166560,note_on,1,0,1,,,,,,,,0,,,68,69
166560,note_on,0,0,1,,,,,,,,0,,,56,69
166560,note_on,1,0,2,,,,,,,,1,,,62,50
166560,note_on,1,0,3,,,,,,,,2,,,50,51
166675,control_change,115,0,2,,,,,,,,1,64,127,,
166675,control_change,115,0,4,,,,,,,,3,64,127,,
166675,control_change,115,0,3,,,,,,,,2,64,127,,
166679,note_on,4,0,2,,,,,,,,1,,,62,0
166679,note_on,4,0,3,,,,,,,,2,,,50,0
166680,note_on,1,0,2,,,,,,,,1,,,59,50
166680,note_on,1,0,3,,,,,,,,2,,,47,51
166799,note_on,124,0,4,,,,,,,,3,,,43,0
166799,note_on,119,0,2,,,,,,,,1,,,59,0
166799,note_on,119,0,3,,,,,,,,2,,,47,0
166799,note_on,0,0,1,,,,,,,,0,,,68,0
166799,note_on,239,0,1,,,,,,,,0,,,56,0
166800,note_on,1,0,3,,,,,,,,2,,,44,52
166800,note_on,0,0,4,,,,,,,,3,,,44,64
166800,note_on,1,0,4,,,,,,,,3,,,32,64
166800,note_on,1,0,2,,,,,,,,1,,,56,51
166800,note_on,1,0,1,,,,,,,,0,,,56,83
166800,note_on,0,0,1,,,,,,,,0,,,68,83
166919,note_on,119,0,3,,,,,,,,2,,,44,0
166919,note_on,119,0,2,,,,,,,,1,,,56,0
166920,note_on,1,0,3,,,,,,,,2,,,47,52
166920,note_on,1,0,2,,,,,,,,1,,,59,51
167039,note_on,119,0,3,,,,,,,,2,,,47,0
167039,note_on,119,0,2,,,,,,,,1,,,59,0
167040,note_on,1,0,3,,,,,,,,2,,,53,52
167040,control_change,240,0,1,,,,,,,,0,64,0,,
167040,note_on,1,0,2,,,,,,,,1,,,65,51
167159,note_on,119,0,3,,,,,,,,2,,,53,0
167159,note_on,119,0,2,,,,,,,,1,,,65,0
167160,note_on,1,0,2,,,,,,,,1,,,62,51
167160,note_on,1,0,3,,,,,,,,2,,,50,53
167275,control_change,115,0,2,,,,,,,,1,64,0,,
167275,control_change,115,0,3,,,,,,,,2,64,0,,
167275,control_change,475,0,4,,,,,,,,3,64,0,,
167276,control_change,1,0,4,,,,,,,,3,64,127,,
167276,control_change,1,0,3,,,,,,,,2,64,127,,
167276,control_change,1,0,2,,,,,,,,1,64,127,,
167279,note_on,239,0,1,,,,,,,,0,,,68,0
167279,note_on,0,0,1,,,,,,,,0,,,56,0
167279,note_on,3,0,2,,,,,,,,1,,,62,0
167279,note_on,3,0,4,,,,,,,,3,,,44,0
167279,note_on,0,0,4,,,,,,,,3,,,32,0
167279,note_on,3,0,3,,,,,,,,2,,,50,0
167280,note_on,1,0,4,,,,,,,,3,,,46,64
167280,note_on,1,0,1,,,,,,,,0,,,58,81
167280,note_on,1,0,3,,,,,,,,2,,,46,53
167280,note_on,1,0,2,,,,,,,,1,,,58,51
167280,note_on,0,0,1,,,,,,,,0,,,70,81
167399,note_on,119,0,4,,,,,,,,3,,,46,0
167399,note_on,119,0,3,,,,,,,,2,,,46,0
167399,note_on,0,0,1,,,,,,,,0,,,58,0
167399,note_on,119,0,2,,,,,,,,1,,,58,0
167399,note_on,119,0,1,,,,,,,,0,,,70,0
167400,note_on,1,0,1,,,,,,,,0,,,56,77
167400,note_on,0,0,1,,,,,,,,0,,,68,77
167400,note_on,1,0,2,,,,,,,,1,,,57,52
167400,note_on,1,0,4,,,,,,,,3,,,44,64
167400,note_on,1,0,3,,,,,,,,2,,,45,53
167508,note_on,0,0,1,,,,,,,,0,,,56,0
167508,note_on,108,0,2,,,,,,,,1,,,57,0
167508,note_on,108,0,3,,,,,,,,2,,,45,0
167508,note_on,108,0,1,,,,,,,,0,,,68,0
167508,note_on,108,0,4,,,,,,,,3,,,44,0
167520,note_on,0,0,4,,,,,,,,3,,,43,64
167520,note_on,12,0,4,,,,,,,,3,,,31,64
167520,note_on,12,0,2,,,,,,,,1,,,55,52
167520,control_change,12,0,1,,,,,,,,0,64,127,,
167520,note_on,0,0,1,,,,,,,,0,,,55,74
167520,note_on,12,0,3,,,,,,,,2,,,43,53
167520,note_on,0,0,1,,,,,,,,0,,,67,74
167639,note_on,119,0,2,,,,,,,,1,,,55,0
167639,note_on,119,0,3,,,,,,,,2,,,43,0
167640,note_on,1,0,2,,,,,,,,1,,,59,52
167640,note_on,1,0,3,,,,,,,,2,,,47,54
167759,note_on,119,0,2,,,,,,,,1,,,59,0
167759,note_on,119,0,3,,,,,,,,2,,,47,0
167760,note_on,1,0,2,,,,,,,,1,,,62,52
167760,note_on,1,0,3,,,,,,,,2,,,50,54
167873,control_change,113,0,2,,,,,,,,1,64,0,,
167873,control_change,113,0,3,,,,,,,,2,64,0,,
167873,control_change,353,0,4,,,,,,,,3,64,0,,
167879,note_on,6,0,2,,,,,,,,1,,,62,0
167879,note_on,6,0,3,,,,,,,,2,,,50,0
167880,note_on,1,0,3,,,,,,,,2,,,53,54
167880,note_on,1,0,2,,,,,,,,1,,,65,53
167993,control_change,113,0,2,,,,,,,,1,64,127,,
167993,control_change,113,0,3,,,,,,,,2,64,127,,
167993,control_change,120,0,4,,,,,,,,3,64,127,,
167999,note_on,6,0,3,,,,,,,,2,,,53,0
167999,note_on,6,0,2,,,,,,,,1,,,65,0
168000,note_on,1,0,3,,,,,,,,2,,,50,54
168000,note_on,1,0,2,,,,,,,,1,,,62,53
168119,note_on,119,0,3,,,,,,,,2,,,50,0
168119,note_on,119,0,2,,,,,,,,1,,,62,0
168120,note_on,1,0,3,,,,,,,,2,,,47,55
168120,note_on,1,0,2,,,,,,,,1,,,59,53
168239,note_on,119,0,2,,,,,,,,1,,,59,0
168239,note_on,0,0,4,,,,,,,,3,,,31,0
168239,note_on,119,0,3,,,,,,,,2,,,47,0
168239,note_on,246,0,4,,,,,,,,3,,,43,0
168240,note_on,1,0,2,,,,,,,,1,,,58,53
168240,note_on,1,0,3,,,,,,,,2,,,46,55
168240,note_on,1,0,4,,,,,,,,3,,,34,64
168240,note_on,0,0,4,,,,,,,,3,,,46,64
168359,note_on,119,0,3,,,,,,,,2,,,46,0
168359,note_on,119,0,2,,,,,,,,1,,,58,0
168360,note_on,1,0,2,,,,,,,,1,,,60,53
168360,note_on,1,0,3,,,,,,,,2,,,48,55
168479,note_on,119,0,3,,,,,,,,2,,,48,0
168479,note_on,119,0,2,,,,,,,,1,,,60,0
168480,note_on,1,0,3,,,,,,,,2,,,52,56
168480,note_on,1,0,2,,,,,,,,1,,,64,54
168480,control_change,960,0,1,,,,,,,,0,64,0,,
168593,control_change,113,0,3,,,,,,,,2,64,0,,
168593,control_change,113,0,2,,,,,,,,1,64,0,,
168593,control_change,353,0,4,,,,,,,,3,64,0,,
168594,control_change,1,0,4,,,,,,,,3,64,127,,
168594,control_change,1,0,2,,,,,,,,1,64,127,,
168594,control_change,1,0,3,,,,,,,,2,64,127,,
168599,note_on,5,0,3,,,,,,,,2,,,52,0
168599,note_on,5,0,2,,,,,,,,1,,,64,0
168600,note_on,1,0,2,,,,,,,,1,,,67,54
168600,note_on,1,0,3,,,,,,,,2,,,55,56
168719,note_on,0,0,1,,,,,,,,0,,,55,0
168719,note_on,119,0,2,,,,,,,,1,,,67,0
168719,note_on,239,0,1,,,,,,,,0,,,67,0
168719,note_on,125,0,4,,,,,,,,3,,,46,0
168719,note_on,119,0,3,,,,,,,,2,,,55,0
168719,note_on,0,0,4,,,,,,,,3,,,34,0
168720,note_on,1,0,4,,,,,,,,3,,,46,64
168720,note_on,0,0,1,,,,,,,,0,,,70,73
168720,note_on,1,0,1,,,,,,,,0,,,58,73
168720,note_on,1,0,3,,,,,,,,2,,,52,56
168720,note_on,1,0,2,,,,,,,,1,,,64,54
168839,note_on,119,0,3,,,,,,,,2,,,52,0
168839,note_on,119,0,2,,,,,,,,1,,,64,0
168840,note_on,1,0,2,,,,,,,,1,,,60,54
168840,note_on,1,0,3,,,,,,,,2,,,48,56
168936,note_on,0,0,1,,,,,,,,0,,,58,0
168936,note_on,216,0,1,,,,,,,,0,,,70,0
168936,note_on,216,0,4,,,,,,,,3,,,46,0
168948,note_on,108,0,3,,,,,,,,2,,,48,0
168948,note_on,108,0,2,,,,,,,,1,,,60,0
168960,note_on,24,0,1,,,,,,,,0,,,69,83
168960,note_on,0,0,4,,,,,,,,3,,,45,64
168960,note_on,24,0,4,,,,,,,,3,,,33,64
168960,note_on,12,0,2,,,,,,,,1,,,57,55
168960,note_on,12,0,3,,,,,,,,2,,,45,57
168960,note_on,0,0,1,,,,,,,,0,,,57,83
168973,control_change,13,0,1,,,,,,,,0,64,127,,
169079,note_on,119,0,3,,,,,,,,2,,,45,0
169079,note_on,119,0,2,,,,,,,,1,,,57,0
169080,note_on,1,0,2,,,,,,,,1,,,61,55
169080,note_on,1,0,3,,,,,,,,2,,,49,57
169191,control_change,111,0,2,,,,,,,,1,64,0,,
169191,control_change,111,0,3,,,,,,,,2,64,0,,
169191,control_change,231,0,4,,,,,,,,3,64,0,,
169199,note_on,8,0,2,,,,,,,,1,,,61,0
169199,note_on,8,0,3,,,,,,,,2,,,49,0
169200,note_on,1,0,2,,,,,,,,1,,,64,55
169200,note_on,1,0,3,,,,,,,,2,,,52,57
169311,control_change,111,0,3,,,,,,,,2,64,127,,
169311,control_change,120,0,4,,,,,,,,3,64,127,,
169311,control_change,111,0,2,,,,,,,,1,64,127,,
169319,note_on,8,0,3,,,,,,,,2,,,52,0
169319,note_on,8,0,2,,,,,,,,1,,,64,0
169320,note_on,1,0,3,,,,,,,,2,,,55,57
169320,note_on,1,0,2,,,,,,,,1,,,67,55
169439,note_on,119,0,3,,,,,,,,2,,,55,0
169439,note_on,128,0,4,,,,,,,,3,,,45,0
169439,note_on,0,0,4,,,,,,,,3,,,33,0
169439,note_on,466,0,1,,,,,,,,0,,,57,0
169439,note_on,0,0,1,,,,,,,,0,,,69,0
169439,note_on,119,0,2,,,,,,,,1,,,67,0
169440,note_on,0,0,1,,,,,,,,0,,,69,73
169440,note_on,1,0,1,,,,,,,,0,,,57,73
169440,note_on,1,0,4,,,,,,,,3,,,45,64
169440,note_on,1,0,3,,,,,,,,2,,,52,58
169440,note_on,1,0,2,,,,,,,,1,,,64,55
169559,note_on,119,0,2,,,,,,,,1,,,64,0
169559,note_on,119,0,3,,,,,,,,2,,,52,0
169560,note_on,1,0,3,,,,,,,,2,,,49,58
169560,note_on,1,0,2,,,,,,,,1,,,61,56
169679,note_on,0,0,1,,,,,,,,0,,,57,0
169679,note_on,239,0,1,,,,,,,,0,,,69,0
169679,note_on,239,0,4,,,,,,,,3,,,45,0
169679,note_on,119,0,3,,,,,,,,2,,,49,0
169679,note_on,119,0,2,,,,,,,,1,,,61,0
169680,note_on,1,0,3,,,,,,,,2,,,46,58
169680,note_on,0,0,4,,,,,,,,3,,,46,64
169680,note_on,0,0,1,,,,,,,,0,,,70,83
169680,note_on,1,0,4,,,,,,,,3,,,34,64
169680,note_on,1,0,2,,,,,,,,1,,,58,56
169680,note_on,1,0,1,,,,,,,,0,,,58,83
169799,note_on,119,0,2,,,,,,,,1,,,58,0
169799,note_on,119,0,3,,,,,,,,2,,,46,0
169800,note_on,1,0,2,,,,,,,,1,,,64,56
169800,note_on,1,0,3,,,,,,,,2,,,52,58
169911,control_change,231,0,4,,,,,,,,3,64,0,,
169911,control_change,111,0,3,,,,,,,,2,64,0,,
169911,control_change,111,0,2,,,,,,,,1,64,0,,
169912,control_change,1,0,2,,,,,,,,1,64,127,,
169912,control_change,1,0,3,,,,,,,,2,64,127,,
169912,control_change,1,0,4,,,,,,,,3,64,127,,
169919,note_on,7,0,3,,,,,,,,2,,,52,0
169919,note_on,7,0,2,,,,,,,,1,,,64,0
169920,note_on,1,0,2,,,,,,,,1,,,67,56
169920,note_on,1,0,3,,,,,,,,2,,,55,59
169933,control_change,253,0,1,,,,,,,,0,64,0,,
170039,note_on,119,0,2,,,,,,,,1,,,67,0
170039,note_on,119,0,3,,,,,,,,2,,,55,0
170040,note_on,1,0,2,,,,,,,,1,,,64,57
170040,note_on,1,0,3,,,,,,,,2,,,52,59
170112,note_on,0,0,4,,,,,,,,3,,,34,0
170112,note_on,200,0,4,,,,,,,,3,,,46,0
170159,note_on,119,0,2,,,,,,,,1,,,64,0
170159,note_on,119,0,3,,,,,,,,2,,,52,0
170159,note_on,226,0,1,,,,,,,,0,,,70,0
170159,note_on,0,0,1,,,,,,,,0,,,58,0
170160,note_on,1,0,3,,,,,,,,2,,,48,59
170160,note_on,1,0,1,,,,,,,,0,,,60,84
170160,note_on,0,0,1,,,,,,,,0,,,72,84
170160,note_on,1,0,2,,,,,,,,1,,,60,57
170279,note_on,119,0,1,,,,,,,,0,,,72,0
170279,note_on,119,0,2,,,,,,,,1,,,60,0
170279,note_on,0,0,1,,,,,,,,0,,,60,0
170279,note_on,119,0,3,,,,,,,,2,,,48,0
170280,note_on,1,0,2,,,,,,,,1,,,58,57
170280,note_on,1,0,1,,,,,,,,0,,,70,81
170280,note_on,0,0,1,,,,,,,,0,,,58,81
170280,note_on,1,0,3,,,,,,,,2,,,46,60
170388,note_on,108,0,1,,,,,,,,0,,,58,0
170388,note_on,0,0,1,,,,,,,,0,,,70,0
170388,note_on,108,0,3,,,,,,,,2,,,46,0
170388,note_on,108,0,2,,,,,,,,1,,,58,0
170400,note_on,0,0,4,,,,,,,,3,,,45,64
170400,control_change,12,0,1,,,,,,,,0,64,127,,
170400,note_on,0,0,1,,,,,,,,0,,,69,78
170400,note_on,0,0,1,,,,,,,,0,,,57,78
170400,note_on,12,0,3,,,,,,,,2,,,45,60
170400,note_on,288,0,4,,,,,,,,3,,,33,64
170400,note_on,12,0,2,,,,,,,,1,,,57,57
170509,control_change,109,0,4,,,,,,,,3,64,0,,
170509,control_change,109,0,3,,,,,,,,2,64,0,,
170509,control_change,109,0,2,,,,,,,,1,64,0,,
170519,note_on,10,0,3,,,,,,,,2,,,45,0
170519,note_on,10,0,2,,,,,,,,1,,,57,0
170520,note_on,1,0,3,,,,,,,,2,,,49,60
170520,note_on,1,0,2,,,,,,,,1,,,61,60
170629,control_change,109,0,3,,,,,,,,2,64,127,,
170629,control_change,120,0,4,,,,,,,,3,64,127,,
170629,control_change,109,0,2,,,,,,,,1,64,127,,
170639,note_on,10,0,3,,,,,,,,2,,,49,0
170639,note_on,10,0,2,,,,,,,,1,,,61,0
170640,note_on,1,0,3,,,,,,,,2,,,52,60
170640,note_on,1,0,2,,,,,,,,1,,,64,60
170759,note_on,119,0,2,,,,,,,,1,,,64,0
170759,note_on,119,0,3,,,,,,,,2,,,52,0
170760,note_on,1,0,2,,,,,,,,1,,,67,60
170760,note_on,1,0,3,,,,,,,,2,,,55,61
170832,note_on,432,0,1,,,,,,,,0,,,57,0
170832,note_on,0,0,1,,,,,,,,0,,,69,0
170879,note_on,119,0,2,,,,,,,,1,,,67,0
170879,note_on,119,0,3,,,,,,,,2,,,55,0
170880,note_on,1,0,2,,,,,,,,1,,,64,60
170880,note_on,1,0,3,,,,,,,,2,,,52,61
170999,note_on,119,0,3,,,,,,,,2,,,52,0
170999,note_on,119,0,2,,,,,,,,1,,,64,0
171000,note_on,1,0,3,,,,,,,,2,,,49,61
171000,note_on,1,0,2,,,,,,,,1,,,61,59
171119,note_on,119,0,3,,,,,,,,2,,,49,0
171119,note_on,490,0,4,,,,,,,,3,,,45,0
171119,note_on,0,0,4,,,,,,,,3,,,33,0
171119,note_on,119,0,2,,,,,,,,1,,,61,0
171120,note_on,1,0,4,,,,,,,,3,,,34,64
171120,note_on,1,0,3,,,,,,,,2,,,46,61
171120,note_on,1,0,2,,,,,,,,1,,,58,59
171120,note_on,0,0,4,,,,,,,,3,,,46,64
171229,control_change,109,0,3,,,,,,,,2,64,0,,
171229,control_change,109,0,2,,,,,,,,1,64,0,,
171229,control_change,109,0,4,,,,,,,,3,64,0,,
171230,control_change,1,0,3,,,,,,,,2,64,127,,
171230,control_change,1,0,2,,,,,,,,1,64,127,,
171230,control_change,1,0,4,,,,,,,,3,64,127,,
171239,note_on,9,0,3,,,,,,,,2,,,46,0
171239,note_on,9,0,2,,,,,,,,1,,,58,0
171240,note_on,1,0,2,,,,,,,,1,,,61,59
171240,note_on,1,0,3,,,,,,,,2,,,49,61
171359,note_on,119,0,3,,,,,,,,2,,,49,0
171359,note_on,119,0,2,,,,,,,,1,,,61,0
171360,control_change,528,0,1,,,,,,,,0,64,0,,
171360,note_on,1,0,3,,,,,,,,2,,,52,60
171360,note_on,1,0,2,,,,,,,,1,,,64,59
171479,note_on,119,0,3,,,,,,,,2,,,52,0
171479,note_on,119,0,2,,,,,,,,1,,,64,0
171480,note_on,1,0,3,,,,,,,,2,,,55,60
171480,note_on,1,0,2,,,,,,,,1,,,67,58
171552,note_on,0,0,4,,,,,,,,3,,,34,0
171552,note_on,322,0,4,,,,,,,,3,,,46,0
171599,note_on,119,0,3,,,,,,,,2,,,55,0
171599,note_on,119,0,2,,,,,,,,1,,,67,0
171600,note_on,1,0,3,,,,,,,,2,,,52,60
171600,note_on,1,0,2,,,,,,,,1,,,64,58
171719,note_on,119,0,3,,,,,,,,2,,,52,0
171719,note_on,119,0,2,,,,,,,,1,,,64,0
171720,note_on,1,0,2,,,,,,,,1,,,61,58
171720,note_on,1,0,3,,,,,,,,2,,,49,60
171827,control_change,275,0,4,,,,,,,,3,64,0,,
171827,control_change,107,0,2,,,,,,,,1,64,0,,
171827,control_change,107,0,3,,,,,,,,2,64,0,,
171828,note_on,1,0,2,,,,,,,,1,,,61,0
171828,note_on,1,0,3,,,,,,,,2,,,49,0
171840,note_on,0,0,4,,,,,,,,3,,,45,64
171840,note_on,12,0,2,,,,,,,,1,,,57,58
171840,note_on,13,0,4,,,,,,,,3,,,33,64
171840,note_on,12,0,3,,,,,,,,2,,,45,59
171947,control_change,107,0,2,,,,,,,,1,64,127,,
171947,control_change,107,0,3,,,,,,,,2,64,127,,
171947,control_change,107,0,4,,,,,,,,3,64,127,,
171959,note_on,12,0,2,,,,,,,,1,,,57,0
171959,note_on,12,0,3,,,,,,,,2,,,45,0
171960,note_on,1,0,3,,,,,,,,2,,,49,59
171960,note_on,1,0,2,,,,,,,,1,,,61,57
172079,note_on,119,0,3,,,,,,,,2,,,49,0
172079,note_on,119,0,2,,,,,,,,1,,,61,0
172080,note_on,1,0,3,,,,,,,,2,,,52,59
172080,note_on,1,0,2,,,,,,,,1,,,64,57
172199,note_on,119,0,3,,,,,,,,2,,,52,0
172199,note_on,119,0,2,,,,,,,,1,,,64,0
172200,note_on,1,0,2,,,,,,,,1,,,67,57
172200,note_on,1,0,3,,,,,,,,2,,,55,59
172319,note_on,119,0,3,,,,,,,,2,,,55,0
172319,note_on,119,0,2,,,,,,,,1,,,67,0
172320,note_on,1,0,2,,,,,,,,1,,,64,57
172320,note_on,1,0,3,,,,,,,,2,,,52,59
172439,note_on,119,0,2,,,,,,,,1,,,64,0
172439,note_on,119,0,3,,,,,,,,2,,,52,0
172440,note_on,1,0,2,,,,,,,,1,,,61,56
172440,note_on,1,0,3,,,,,,,,2,,,49,58
172547,control_change,600,0,4,,,,,,,,3,64,0,,
172547,control_change,107,0,3,,,,,,,,2,64,0,,
172547,control_change,107,0,2,,,,,,,,1,64,0,,
172548,control_change,1,0,4,,,,,,,,3,64,127,,
172548,control_change,1,0,3,,,,,,,,2,64,127,,
172548,control_change,1,0,2,,,,,,,,1,64,127,,
172559,note_on,0,0,4,,,,,,,,3,,,33,0
172559,note_on,11,0,3,,,,,,,,2,,,49,0
172559,note_on,11,0,4,,,,,,,,3,,,45,0
172559,note_on,11,0,2,,,,,,,,1,,,61,0
172560,note_on,1,0,2,,,,,,,,1,,,58,56
172560,note_on,1,0,3,,,,,,,,2,,,46,58
172560,note_on,0,0,4,,,,,,,,3,,,46,64
172560,note_on,1,0,4,,,,,,,,3,,,34,64
172679,note_on,119,0,3,,,,,,,,2,,,46,0
172679,note_on,119,0,2,,,,,,,,1,,,58,0
172680,note_on,1,0,2,,,,,,,,1,,,61,57
172680,note_on,1,0,3,,,,,,,,2,,,49,58
172799,note_on,119,0,3,,,,,,,,2,,,49,0
172799,note_on,119,0,2,,,,,,,,1,,,61,0
172800,note_on,1,0,2,,,,,,,,1,,,67,57
172800,note_on,1,0,3,,,,,,,,2,,,55,58
172919,note_on,119,0,2,,,,,,,,1,,,67,0
172919,note_on,119,0,3,,,,,,,,2,,,55,0
172920,note_on,1,0,3,,,,,,,,2,,,52,58
172920,note_on,1,0,2,,,,,,,,1,,,64,58
173039,note_on,119,0,2,,,,,,,,1,,,64,0
173039,note_on,479,0,4,,,,,,,,3,,,46,0
173039,note_on,119,0,3,,,,,,,,2,,,52,0
173039,note_on,0,0,4,,,,,,,,3,,,34,0
173040,note_on,1680,0,1,,,,,,,,0,,,61,86
173040,note_on,0,0,1,,,,,,,,0,,,73,86
173040,note_on,1,0,3,,,,,,,,2,,,49,58
173040,note_on,1,0,2,,,,,,,,1,,,61,58
173040,note_on,1,0,4,,,,,,,,3,,,49,64
173145,control_change,105,0,2,,,,,,,,1,64,0,,
173145,control_change,105,0,3,,,,,,,,2,64,0,,
173145,control_change,105,0,4,,,,,,,,3,64,0,,
173159,note_on,14,0,3,,,,,,,,2,,,49,0
173159,note_on,14,0,2,,,,,,,,1,,,61,0
173160,note_on,1,0,2,,,,,,,,1,,,64,58
173160,note_on,1,0,3,,,,,,,,2,,,52,59
173256,note_on,216,0,1,,,,,,,,0,,,73,0
173256,note_on,111,0,4,,,,,,,,3,,,49,0
173256,note_on,0,0,1,,,,,,,,0,,,61,0
173265,control_change,105,0,3,,,,,,,,2,64,127,,
173265,control_change,9,0,4,,,,,,,,3,64,127,,
173265,control_change,105,0,2,,,,,,,,1,64,127,,
173268,note_on,3,0,2,,,,,,,,1,,,64,0
173268,note_on,3,0,3,,,,,,,,2,,,52,0
173280,note_on,12,0,2,,,,,,,,1,,,62,59
173280,control_change,24,0,1,,,,,,,,0,64,127,,
173280,note_on,0,0,1,,,,,,,,0,,,62,89
173280,note_on,0,0,1,,,,,,,,0,,,74,89
173280,note_on,15,0,4,,,,,,,,3,,,46,64
173280,note_on,12,0,3,,,,,,,,2,,,50,59
173399,note_on,119,0,2,,,,,,,,1,,,62,0
173399,note_on,119,0,3,,,,,,,,2,,,50,0
173400,note_on,1,0,3,,,,,,,,2,,,53,60
173400,note_on,1,0,2,,,,,,,,1,,,65,59
173519,note_on,119,0,3,,,,,,,,2,,,53,0
173519,note_on,119,0,2,,,,,,,,1,,,65,0
173520,note_on,1,0,3,,,,,,,,2,,,58,60
173520,note_on,1,0,2,,,,,,,,1,,,70,60
173639,note_on,119,0,2,,,,,,,,1,,,70,0
173639,note_on,119,0,3,,,,,,,,2,,,58,0
173640,note_on,1,0,2,,,,,,,,1,,,65,60
173640,note_on,1,0,3,,,,,,,,2,,,53,61
173759,note_on,479,0,1,,,,,,,,0,,,74,0
173759,note_on,0,0,1,,,,,,,,0,,,62,0
173759,note_on,479,0,4,,,,,,,,3,,,46,0
173759,note_on,119,0,2,,,,,,,,1,,,65,0
173759,note_on,119,0,3,,,,,,,,2,,,53,0
173760,note_on,1,0,4,,,,,,,,3,,,50,64
173760,note_on,1,0,3,,,,,,,,2,,,50,61
173760,note_on,0,0,1,,,,,,,,0,,,62,93
173760,note_on,1,0,1,,,,,,,,0,,,74,93
173760,note_on,1,0,2,,,,,,,,1,,,62,60
173865,control_change,105,0,2,,,,,,,,1,64,0,,
173865,control_change,105,0,3,,,,,,,,2,64,0,,
173865,control_change,105,0,4,,,,,,,,3,64,0,,
173866,control_change,1,0,4,,,,,,,,3,64,127,,
173866,control_change,1,0,2,,,,,,,,1,64,127,,
173866,control_change,1,0,3,,,,,,,,2,64,127,,
173879,note_on,13,0,3,,,,,,,,2,,,50,0
173879,note_on,13,0,2,,,,,,,,1,,,62,0
173880,note_on,1,0,2,,,,,,,,1,,,64,61
173880,note_on,1,0,3,,,,,,,,2,,,52,62
173999,note_on,239,0,1,,,,,,,,0,,,62,0
173999,note_on,133,0,4,,,,,,,,3,,,50,0
173999,note_on,0,0,1,,,,,,,,0,,,74,0
173999,note_on,119,0,3,,,,,,,,2,,,52,0
173999,note_on,119,0,2,,,,,,,,1,,,64,0
174000,note_on,1,0,1,,,,,,,,0,,,77,95
174000,note_on,0,0,1,,,,,,,,0,,,65,95
174000,note_on,1,0,3,,,,,,,,2,,,53,62
174000,note_on,1,0,4,,,,,,,,3,,,45,64
174000,note_on,1,0,2,,,,,,,,1,,,65,61
174119,note_on,119,0,2,,,,,,,,1,,,65,0
174119,note_on,119,0,3,,,,,,,,2,,,53,0
174120,note_on,1,0,2,,,,,,,,1,,,69,62
174120,note_on,1,0,3,,,,,,,,2,,,57,63
174239,note_on,119,0,2,,,,,,,,1,,,69,0
174239,note_on,119,0,3,,,,,,,,2,,,57,0
174240,note_on,1,0,2,,,,,,,,1,,,74,62
174240,note_on,1,0,3,,,,,,,,2,,,62,63
174240,control_change,240,0,1,,,,,,,,0,64,0,,
174359,note_on,119,0,2,,,,,,,,1,,,74,0
174359,note_on,119,0,3,,,,,,,,2,,,62,0
174360,note_on,1,0,2,,,,,,,,1,,,69,62
174360,note_on,1,0,3,,,,,,,,2,,,57,64
174463,control_change,103,0,3,,,,,,,,2,64,0,,
174463,control_change,463,0,4,,,,,,,,3,64,0,,
174463,control_change,103,0,2,,,,,,,,1,64,0,,
174479,note_on,16,0,4,,,,,,,,3,,,45,0
174479,note_on,16,0,3,,,,,,,,2,,,57,0
174479,note_on,16,0,2,,,,,,,,1,,,69,0
174479,note_on,239,0,1,,,,,,,,0,,,65,0
174479,note_on,0,0,1,,,,,,,,0,,,77,0
174480,note_on,1,0,4,,,,,,,,3,,,53,64
174480,note_on,1,0,3,,,,,,,,2,,,53,64
174480,note_on,1,0,2,,,,,,,,1,,,65,63
174480,note_on,1,0,1,,,,,,,,0,,,65,92
174480,note_on,0,0,1,,,,,,,,0,,,77,92
174583,control_change,103,0,2,,,,,,,,1,64,127,,
174583,control_change,103,0,4,,,,,,,,3,64,127,,
174583,control_change,103,0,3,,,,,,,,2,64,127,,
174599,note_on,16,0,3,,,,,,,,2,,,53,0
174599,note_on,16,0,2,,,,,,,,1,,,65,0
174600,note_on,1,0,2,,,,,,,,1,,,69,63
174600,note_on,1,0,3,,,,,,,,2,,,57,65
174696,note_on,0,0,1,,,,,,,,0,,,65,0
174696,note_on,216,0,1,,,,,,,,0,,,77,0
174696,note_on,113,0,4,,,,,,,,3,,,53,0
174708,note_on,108,0,2,,,,,,,,1,,,69,0
174708,note_on,108,0,3,,,,,,,,2,,,57,0
174720,note_on,12,0,2,,,,,,,,1,,,64,64
174720,note_on,12,0,3,,,,,,,,2,,,52,65
174720,note_on,0,0,1,,,,,,,,0,,,76,104
174720,note_on,24,0,4,,,,,,,,3,,,44,64
174720,control_change,24,0,1,,,,,,,,0,64,127,,
174839,note_on,119,0,3,,,,,,,,2,,,52,0
174839,note_on,119,0,2,,,,,,,,1,,,64,0
174840,note_on,1,0,3,,,,,,,,2,,,59,65
174840,note_on,1,0,2,,,,,,,,1,,,71,65
174959,note_on,119,0,2,,,,,,,,1,,,71,0
174959,note_on,119,0,3,,,,,,,,2,,,59,0
174960,note_on,1,0,2,,,,,,,,1,,,74,66
174960,note_on,1,0,3,,,,,,,,2,,,62,66
175079,note_on,119,0,2,,,,,,,,1,,,74,0
175079,note_on,119,0,3,,,,,,,,2,,,62,0
175080,note_on,1,0,2,,,,,,,,1,,,71,67
175080,note_on,1,0,3,,,,,,,,2,,,59,66
175183,control_change,103,0,2,,,,,,,,1,64,0,,
175183,control_change,463,0,4,,,,,,,,3,64,0,,
175183,control_change,103,0,3,,,,,,,,2,64,0,,
175184,control_change,1,0,4,,,,,,,,3,64,127,,
175184,control_change,1,0,2,,,,,,,,1,64,127,,
175184,control_change,1,0,3,,,,,,,,2,64,127,,
175199,note_on,15,0,2,,,,,,,,1,,,71,0
175199,note_on,15,0,3,,,,,,,,2,,,59,0
175200,note_on,1,0,2,,,,,,,,1,,,65,68
175200,note_on,1,0,3,,,,,,,,2,,,53,67
175319,note_on,119,0,2,,,,,,,,1,,,65,0
175319,note_on,119,0,3,,,,,,,,2,,,53,0
175320,note_on,1,0,2,,,,,,,,1,,,63,69
175320,note_on,1,0,3,,,,,,,,2,,,51,67
175439,note_on,119,0,2,,,,,,,,1,,,63,0
175439,note_on,255,0,4,,,,,,,,3,,,44,0
175439,note_on,119,0,3,,,,,,,,2,,,51,0
175440,note_on,1,0,3,,,,,,,,2,,,52,68
175440,note_on,1,0,4,,,,,,,,3,,,45,64
175440,note_on,1,0,2,,,,,,,,1,,,64,70
175559,note_on,119,0,2,,,,,,,,1,,,64,0
175559,note_on,119,0,3,,,,,,,,2,,,52,0
175560,note_on,1,0,2,,,,,,,,1,,,69,71
175560,note_on,1,0,3,,,,,,,,2,,,57,68
175679,note_on,119,0,2,,,,,,,,1,,,69,0
175679,note_on,119,0,3,,,,,,,,2,,,57,0
175680,note_on,1,0,2,,,,,,,,1,,,72,72
175680,control_change,960,0,1,,,,,,,,0,64,0,,
175680,note_on,1,0,3,,,,,,,,2,,,60,69
175781,control_change,101,0,2,,,,,,,,1,64,0,,
175781,control_change,341,0,4,,,,,,,,3,64,0,,
175781,control_change,101,0,3,,,,,,,,2,64,0,,
175799,note_on,18,0,2,,,,,,,,1,,,72,0
175799,note_on,18,0,3,,,,,,,,2,,,60,0
175800,note_on,1,0,2,,,,,,,,1,,,69,73
175800,note_on,1,0,3,,,,,,,,2,,,57,69
175872,note_on,91,0,4,,,,,,,,3,,,45,0
175901,control_change,29,0,4,,,,,,,,3,64,127,,
175901,control_change,101,0,2,,,,,,,,1,64,127,,
175901,control_change,101,0,3,,,,,,,,2,64,127,,
175919,note_on,18,0,3,,,,,,,,2,,,57,0
175919,note_on,18,0,2,,,,,,,,1,,,69,0
175920,note_on,1,0,3,,,,,,,,2,,,53,70
175920,note_on,1,0,2,,,,,,,,1,,,65,74
176016,note_on,336,0,1,,,,,,,,0,,,76,0
176039,note_on,119,0,3,,,,,,,,2,,,53,0
176039,note_on,119,0,2,,,,,,,,1,,,65,0
176040,note_on,1,0,3,,,,,,,,2,,,51,70
176040,note_on,1,0,2,,,,,,,,1,,,63,75
176148,note_on,108,0,2,,,,,,,,1,,,63,0
176148,note_on,108,0,3,,,,,,,,2,,,51,0
176160,note_on,259,0,4,,,,,,,,3,,,44,64
176160,note_on,12,0,2,,,,,,,,1,,,64,76
176160,note_on,12,0,3,,,,,,,,2,,,52,71
176160,note_on,144,0,1,,,,,,,,0,,,76,94
176279,note_on,119,0,3,,,,,,,,2,,,52,0
176279,note_on,119,0,2,,,,,,,,1,,,64,0
176280,note_on,1,0,2,,,,,,,,1,,,71,77
176280,note_on,1,0,3,,,,,,,,2,,,59,71
176399,note_on,119,0,2,,,,,,,,1,,,71,0
176399,note_on,119,0,3,,,,,,,,2,,,59,0
176400,note_on,1,0,3,,,,,,,,2,,,62,72
176400,note_on,1,0,2,,,,,,,,1,,,74,78
176501,control_change,101,0,3,,,,,,,,2,64,0,,
176501,control_change,341,0,4,,,,,,,,3,64,0,,
176501,control_change,101,0,2,,,,,,,,1,64,0,,
176502,control_change,1,0,4,,,,,,,,3,64,127,,
176502,control_change,1,0,3,,,,,,,,2,64,127,,
176502,control_change,1,0,2,,,,,,,,1,64,127,,
176519,note_on,17,0,3,,,,,,,,2,,,62,0
176519,note_on,17,0,2,,,,,,,,1,,,74,0
176520,note_on,1,0,3,,,,,,,,2,,,59,72
176520,note_on,1,0,2,,,,,,,,1,,,71,79
176639,note_on,119,0,3,,,,,,,,2,,,59,0
176639,note_on,119,0,2,,,,,,,,1,,,71,0
176640,note_on,1,0,3,,,,,,,,2,,,53,73
176640,note_on,1,0,2,,,,,,,,1,,,65,80
176759,note_on,119,0,3,,,,,,,,2,,,53,0
176759,note_on,119,0,2,,,,,,,,1,,,65,0
176760,note_on,1,0,2,,,,,,,,1,,,63,81
176760,note_on,1,0,3,,,,,,,,2,,,51,73
176879,note_on,119,0,2,,,,,,,,1,,,63,0
176879,note_on,119,0,3,,,,,,,,2,,,51,0
176879,note_on,377,0,4,,,,,,,,3,,,44,0
176879,note_on,719,0,1,,,,,,,,0,,,76,0
176880,note_on,1,0,3,,,,,,,,2,,,52,73
176880,note_on,1,0,4,,,,,,,,3,,,45,64
176880,note_on,1,0,2,,,,,,,,1,,,64,82
176880,note_on,1,0,1,,,,,,,,0,,,76,96
176999,note_on,119,0,3,,,,,,,,2,,,52,0
176999,note_on,119,0,2,,,,,,,,1,,,64,0
177000,note_on,1,0,2,,,,,,,,1,,,69,83
177000,note_on,1,0,3,,,,,,,,2,,,57,74
177099,control_change,99,0,3,,,,,,,,2,64,0,,
177099,control_change,99,0,2,,,,,,,,1,64,0,,
177099,control_change,219,0,4,,,,,,,,3,64,0,,
177119,note_on,20,0,3,,,,,,,,2,,,57,0
177119,note_on,20,0,2,,,,,,,,1,,,69,0
177120,note_on,1,0,3,,,,,,,,2,,,60,74
177120,note_on,1,0,2,,,,,,,,1,,,72,85
177219,control_change,99,0,2,,,,,,,,1,64,127,,
177219,control_change,120,0,4,,,,,,,,3,64,127,,
177219,control_change,99,0,3,,,,,,,,2,64,127,,
177239,note_on,20,0,2,,,,,,,,1,,,72,0
177239,note_on,20,0,3,,,,,,,,2,,,60,0
177240,note_on,1,0,2,,,,,,,,1,,,69,85
177240,note_on,1,0,3,,,,,,,,2,,,57,75
177312,note_on,93,0,4,,,,,,,,3,,,45,0
177359,note_on,119,0,3,,,,,,,,2,,,57,0
177359,note_on,119,0,2,,,,,,,,1,,,69,0
177360,note_on,1,0,2,,,,,,,,1,,,65,86
177360,note_on,1,0,3,,,,,,,,2,,,53,75
177479,note_on,119,0,2,,,,,,,,1,,,65,0
177479,note_on,119,0,3,,,,,,,,2,,,53,0
177480,note_on,1,0,3,,,,,,,,2,,,51,76
177480,note_on,1,0,2,,,,,,,,1,,,63,88
177528,note_on,648,0,1,,,,,,,,0,,,76,0
177588,note_on,108,0,2,,,,,,,,1,,,63,0
177588,note_on,108,0,3,,,,,,,,2,,,51,0
177600,note_on,72,0,1,,,,,,,,0,,,76,94
177600,note_on,12,0,3,,,,,,,,2,,,52,76
177600,note_on,12,0,2,,,,,,,,1,,,64,89
177600,note_on,288,0,4,,,,,,,,3,,,40,64
177719,note_on,119,0,2,,,,,,,,1,,,64,0
177719,note_on,119,0,3,,,,,,,,2,,,52,0
177720,note_on,1,0,3,,,,,,,,2,,,56,77
177720,note_on,1,0,2,,,,,,,,1,,,68,89
177819,control_change,99,0,2,,,,,,,,1,64,0,,
177819,control_change,219,0,4,,,,,,,,3,64,0,,
177819,control_change,99,0,3,,,,,,,,2,64,0,,
177820,control_change,1,0,3,,,,,,,,2,64,127,,
177820,control_change,1,0,4,,,,,,,,3,64,127,,
177820,control_change,1,0,2,,,,,,,,1,64,127,,
177839,note_on,19,0,3,,,,,,,,2,,,56,0
177839,note_on,19,0,2,,,,,,,,1,,,68,0
177840,note_on,1,0,2,,,,,,,,1,,,71,91
177840,note_on,1,0,3,,,,,,,,2,,,59,77
177959,note_on,119,0,3,,,,,,,,2,,,59,0
177959,note_on,119,0,2,,,,,,,,1,,,71,0
177960,note_on,1,0,2,,,,,,,,1,,,72,92
177960,note_on,1,0,3,,,,,,,,2,,,60,78
178032,note_on,432,0,1,,,,,,,,0,,,76,0
178032,note_on,212,0,4,,,,,,,,3,,,40,0
178079,note_on,119,0,2,,,,,,,,1,,,72,0
178079,note_on,119,0,3,,,,,,,,2,,,60,0
178080,note_on,1,0,2,,,,,,,,1,,,71,75
178080,note_on,1,0,3,,,,,,,,2,,,59,78
178199,note_on,119,0,2,,,,,,,,1,,,71,0
178199,note_on,119,0,3,,,,,,,,2,,,59,0
178200,note_on,1,0,2,,,,,,,,1,,,68,75
178200,note_on,1,0,3,,,,,,,,2,,,56,79
178319,note_on,119,0,2,,,,,,,,1,,,68,0
178319,note_on,119,0,3,,,,,,,,2,,,56,0
178320,note_on,1,0,2,,,,,,,,1,,,64,75
178320,note_on,1,0,3,,,,,,,,2,,,52,79
178417,control_change,97,0,2,,,,,,,,1,64,0,,
178417,control_change,385,0,4,,,,,,,,3,64,0,,
178417,control_change,97,0,3,,,,,,,,2,64,0,,
178439,note_on,22,0,2,,,,,,,,1,,,64,0
178439,note_on,22,0,3,,,,,,,,2,,,52,0
178440,note_on,1,0,2,,,,,,,,1,,,68,79
178440,note_on,1,0,3,,,,,,,,2,,,56,80
178537,control_change,97,0,2,,,,,,,,1,64,127,,
178537,control_change,97,0,3,,,,,,,,2,64,127,,
178537,control_change,120,0,4,,,,,,,,3,64,127,,
178559,note_on,22,0,2,,,,,,,,1,,,68,0
178559,note_on,22,0,3,,,,,,,,2,,,56,0
178560,note_on,1,0,2,,,,,,,,1,,,71,78
178560,note_on,1,0,3,,,,,,,,2,,,59,79
178679,note_on,119,0,2,,,,,,,,1,,,71,0
178679,note_on,119,0,3,,,,,,,,2,,,59,0
178680,note_on,1,0,2,,,,,,,,1,,,75,77
178680,note_on,1,0,3,,,,,,,,2,,,63,78
178799,note_on,119,0,2,,,,,,,,1,,,75,0
178799,note_on,119,0,3,,,,,,,,2,,,63,0
178800,note_on,1,0,2,,,,,,,,1,,,76,75
178800,note_on,1,0,3,,,,,,,,2,,,64,76
178919,note_on,119,0,3,,,,,,,,2,,,64,0
178919,note_on,119,0,2,,,,,,,,1,,,76,0
178920,note_on,1,0,2,,,,,,,,1,,,80,74
178920,note_on,1,0,3,,,,,,,,2,,,68,75
179028,note_on,108,0,3,,,,,,,,2,,,68,0
179028,note_on,108,0,2,,,,,,,,1,,,80,0
179040,note_on,12,0,2,,,,,,,,1,,,71,72
179040,note_on,12,0,3,,,,,,,,2,,,59,74
179137,control_change,97,0,2,,,,,,,,1,64,0,,
179137,control_change,600,0,4,,,,,,,,3,64,0,,
179137,control_change,97,0,3,,,,,,,,2,64,0,,
179138,control_change,1,0,2,,,,,,,,1,64,127,,
179138,control_change,1,0,4,,,,,,,,3,64,127,,
179138,control_change,1,0,3,,,,,,,,2,64,127,,
179159,note_on,21,0,2,,,,,,,,1,,,71,0
179159,note_on,21,0,3,,,,,,,,2,,,59,0
179160,note_on,1,0,3,,,,,,,,2,,,60,73
179160,note_on,1,0,2,,,,,,,,1,,,72,71
179279,note_on,119,0,3,,,,,,,,2,,,60,0
179279,note_on,119,0,2,,,,,,,,1,,,72,0
179280,note_on,1,0,2,,,,,,,,1,,,71,70
179280,note_on,1,0,3,,,,,,,,2,,,59,71
179399,note_on,119,0,3,,,,,,,,2,,,59,0
179399,note_on,119,0,2,,,,,,,,1,,,71,0
179400,note_on,1,0,2,,,,,,,,1,,,68,68
179400,note_on,1,0,3,,,,,,,,2,,,56,70
179519,note_on,119,0,2,,,,,,,,1,,,68,0
179519,note_on,119,0,3,,,,,,,,2,,,56,0
179520,note_on,1,0,3,,,,,,,,2,,,52,69
179520,note_on,1,0,2,,,,,,,,1,,,64,67
179639,note_on,119,0,3,,,,,,,,2,,,52,0
179639,note_on,119,0,2,,,,,,,,1,,,64,0
179640,note_on,1,0,3,,,,,,,,2,,,56,68
179640,note_on,1,0,2,,,,,,,,1,,,68,66
179735,control_change,95,0,3,,,,,,,,2,64,0,,
179735,control_change,95,0,2,,,,,,,,1,64,0,,
179735,control_change,597,0,4,,,,,,,,3,64,0,,
179759,note_on,24,0,3,,,,,,,,2,,,56,0
179759,note_on,24,0,2,,,,,,,,1,,,68,0
179760,note_on,1,0,3,,,,,,,,2,,,59,66
179760,note_on,1,0,2,,,,,,,,1,,,71,64
179855,control_change,95,0,2,,,,,,,,1,64,127,,
179855,control_change,95,0,3,,,,,,,,2,64,127,,
179855,control_change,120,0,4,,,,,,,,3,64,127,,
179879,note_on,24,0,2,,,,,,,,1,,,71,0
179879,note_on,24,0,3,,,,,,,,2,,,59,0
179880,note_on,1,0,3,,,,,,,,2,,,63,65
179880,note_on,1,0,2,,,,,,,,1,,,75,63
179999,note_on,119,0,3,,,,,,,,2,,,63,0
179999,note_on,119,0,2,,,,,,,,1,,,75,0
180000,note_on,1,0,3,,,,,,,,2,,,64,64
180000,note_on,1,0,2,,,,,,,,1,,,76,61
180119,note_on,119,0,2,,,,,,,,1,,,76,0
180119,note_on,119,0,3,,,,,,,,2,,,64,0
180120,note_on,1,0,2,,,,,,,,1,,,80,60
180120,note_on,1,0,3,,,,,,,,2,,,68,62
180239,note_on,119,0,3,,,,,,,,2,,,68,0
180239,note_on,119,0,2,,,,,,,,1,,,80,0
180240,note_on,1,0,2,,,,,,,,1,,,83,59
180240,note_on,1,0,3,,,,,,,,2,,,71,61
180359,note_on,119,0,2,,,,,,,,1,,,83,0
180359,note_on,119,0,3,,,,,,,,2,,,71,0
180360,note_on,1,0,2,,,,,,,,1,,,84,57
180360,note_on,1,0,3,,,,,,,,2,,,72,60
180455,control_change,600,0,4,,,,,,,,3,64,0,,
180456,control_change,1,0,4,,,,,,,,3,64,127,,
180468,note_on,108,0,3,,,,,,,,2,,,72,0
180468,note_on,108,0,2,,,,,,,,1,,,84,0
180480,note_on,12,0,3,,,,,,,,2,,,71,58
180480,note_on,12,0,2,,,,,,,,1,,,83,56
180599,note_on,119,0,2,,,,,,,,1,,,83,0
180599,note_on,119,0,3,,,,,,,,2,,,71,0
180600,note_on,1,0,3,,,,,,,,2,,,68,57
180600,note_on,1,0,2,,,,,,,,1,,,80,54
180719,note_on,119,0,2,,,,,,,,1,,,80,0
180719,note_on,119,0,3,,,,,,,,2,,,68,0
180720,note_on,1,0,2,,,,,,,,1,,,76,53
180720,note_on,1,0,3,,,,,,,,2,,,64,56
180839,note_on,119,0,3,,,,,,,,2,,,64,0
180839,note_on,119,0,2,,,,,,,,1,,,76,0
180840,note_on,1,0,3,,,,,,,,2,,,68,55
180840,note_on,1,0,2,,,,,,,,1,,,80,52
180959,note_on,119,0,3,,,,,,,,2,,,68,0
180959,note_on,119,0,2,,,,,,,,1,,,80,0
180960,note_on,1,0,3,,,,,,,,2,,,71,53
180960,note_on,1,0,2,,,,,,,,1,,,83,50
181053,control_change,597,0,4,,,,,,,,3,64,0,,
181079,note_on,119,0,2,,,,,,,,1,,,83,0
181079,note_on,119,0,3,,,,,,,,2,,,71,0
181080,note_on,1,0,3,,,,,,,,2,,,75,52
181080,note_on,1,0,2,,,,,,,,1,,,87,49
181173,control_change,120,0,4,,,,,,,,3,64,127,,
181199,note_on,119,0,3,,,,,,,,2,,,75,0
181199,note_on,119,0,2,,,,,,,,1,,,87,0
181200,note_on,1,0,2,,,,,,,,1,,,88,47
181200,note_on,1,0,3,,,,,,,,2,,,76,51
181319,note_on,119,0,3,,,,,,,,2,,,76,0
181319,note_on,119,0,2,,,,,,,,1,,,88,0
181320,note_on,1,0,3,,,,,,,,2,,,77,50
181320,note_on,1,0,2,,,,,,,,1,,,89,46
181439,note_on,119,0,3,,,,,,,,2,,,77,0
181439,note_on,119,0,2,,,,,,,,1,,,89,0
181440,note_on,1,0,3,,,,,,,,2,,,76,48
181440,note_on,1,0,2,,,,,,,,1,,,88,44
181559,note_on,119,0,3,,,,,,,,2,,,76,0
181559,note_on,119,0,2,,,,,,,,1,,,88,0
181560,note_on,1,0,2,,,,,,,,1,,,84,43
181560,note_on,1,0,3,,,,,,,,2,,,72,47
181679,note_on,119,0,2,,,,,,,,1,,,84,0
181679,note_on,119,0,3,,,,,,,,2,,,72,0
181680,note_on,1,0,3,,,,,,,,2,,,70,46
181680,note_on,1,0,2,,,,,,,,1,,,82,42
181773,control_change,600,0,4,,,,,,,,3,64,0,,
181774,control_change,1,0,4,,,,,,,,3,64,127,,
181799,note_on,119,0,2,,,,,,,,1,,,82,0
181799,note_on,119,0,3,,,,,,,,2,,,70,0
181800,note_on,1,0,3,,,,,,,,2,,,67,44
181800,note_on,1,0,2,,,,,,,,1,,,79,40
181908,note_on,108,0,3,,,,,,,,2,,,67,0
181908,note_on,108,0,2,,,,,,,,1,,,79,0
181920,note_on,12,0,3,,,,,,,,2,,,64,43
181920,note_on,12,0,2,,,,,,,,1,,,76,42
182039,note_on,119,0,2,,,,,,,,1,,,76,0
182039,note_on,119,0,3,,,,,,,,2,,,64,0
182040,note_on,1,0,2,,,,,,,,1,,,77,42
182040,note_on,1,0,3,,,,,,,,2,,,65,42
182159,note_on,119,0,2,,,,,,,,1,,,77,0
182159,note_on,119,0,3,,,,,,,,2,,,65,0
182160,note_on,1,0,3,,,,,,,,2,,,64,42
182160,note_on,1,0,2,,,,,,,,1,,,76,41
182279,note_on,119,0,2,,,,,,,,1,,,76,0
182279,note_on,119,0,3,,,,,,,,2,,,64,0
182280,note_on,1,0,3,,,,,,,,2,,,60,42
182280,note_on,1,0,2,,,,,,,,1,,,72,41
182371,control_change,597,0,4,,,,,,,,3,64,0,,
182399,note_on,119,0,2,,,,,,,,1,,,72,0
182399,note_on,119,0,3,,,,,,,,2,,,60,0
182400,note_on,1,0,2,,,,,,,,1,,,71,41
182400,note_on,1,0,3,,,,,,,,2,,,59,41
182491,control_change,120,0,4,,,,,,,,3,64,127,,
182519,note_on,119,0,3,,,,,,,,2,,,59,0
182519,note_on,119,0,2,,,,,,,,1,,,71,0
182520,note_on,1,0,2,,,,,,,,1,,,68,40
182520,note_on,1,0,3,,,,,,,,2,,,56,41
182639,note_on,119,0,2,,,,,,,,1,,,68,0
182639,note_on,119,0,3,,,,,,,,2,,,56,0
182640,note_on,1,0,2,,,,,,,,1,,,64,40
182640,note_on,1,0,3,,,,,,,,2,,,52,41
182759,note_on,119,0,3,,,,,,,,2,,,52,0
182759,note_on,119,0,2,,,,,,,,1,,,64,0
182760,note_on,1,0,2,,,,,,,,1,,,65,40
182760,note_on,1,0,3,,,,,,,,2,,,53,41
182879,note_on,119,0,2,,,,,,,,1,,,65,0
182879,note_on,119,0,3,,,,,,,,2,,,53,0
182880,note_on,1,0,2,,,,,,,,1,,,64,39
182880,note_on,1,0,3,,,,,,,,2,,,52,40
182999,note_on,119,0,2,,,,,,,,1,,,64,0
182999,note_on,119,0,3,,,,,,,,2,,,52,0
183000,note_on,1,0,3,,,,,,,,2,,,48,40
183000,note_on,1,0,2,,,,,,,,1,,,60,39
183091,control_change,600,0,4,,,,,,,,3,64,0,,
183092,control_change,1,0,4,,,,,,,,3,64,127,,
183119,note_on,119,0,2,,,,,,,,1,,,60,0
183119,note_on,119,0,3,,,,,,,,2,,,48,0
183120,note_on,1,0,2,,,,,,,,1,,,59,39
183120,note_on,1,0,3,,,,,,,,2,,,47,40
183239,note_on,119,0,3,,,,,,,,2,,,47,0
183239,note_on,119,0,2,,,,,,,,1,,,59,0
183240,note_on,1,0,3,,,,,,,,2,,,44,39
183240,note_on,1,0,2,,,,,,,,1,,,56,38
183348,note_on,108,0,3,,,,,,,,2,,,44,0
183348,note_on,108,0,2,,,,,,,,1,,,56,0
183360,note_on,12,0,3,,,,,,,,2,,,52,39
183360,note_on,12,0,2,,,,,,,,1,,,64,38
183479,note_on,119,0,2,,,,,,,,1,,,64,0
183479,note_on,119,0,3,,,,,,,,2,,,52,0
183480,note_on,1,0,3,,,,,,,,2,,,53,39
183480,note_on,1,0,2,,,,,,,,1,,,65,38
183599,note_on,119,0,2,,,,,,,,1,,,65,0
183599,note_on,119,0,3,,,,,,,,2,,,53,0
183600,note_on,1,0,2,,,,,,,,1,,,64,37
183600,note_on,1,0,3,,,,,,,,2,,,52,39
183689,control_change,597,0,4,,,,,,,,3,64,0,,
183719,note_on,119,0,3,,,,,,,,2,,,52,0
183719,note_on,119,0,2,,,,,,,,1,,,64,0
183720,note_on,1,0,3,,,,,,,,2,,,48,38
183720,note_on,1,0,2,,,,,,,,1,,,60,37
183809,control_change,120,0,4,,,,,,,,3,64,127,,
183839,note_on,119,0,3,,,,,,,,2,,,48,0
183839,note_on,119,0,2,,,,,,,,1,,,60,0
183840,note_on,1,0,3,,,,,,,,2,,,47,38
183840,note_on,1,0,2,,,,,,,,1,,,59,37
183959,note_on,119,0,3,,,,,,,,2,,,47,0
183959,note_on,119,0,2,,,,,,,,1,,,59,0
183960,note_on,1,0,3,,,,,,,,2,,,44,38
183960,note_on,1,0,2,,,,,,,,1,,,56,36
184079,note_on,119,0,3,,,,,,,,2,,,44,0
184079,note_on,119,0,2,,,,,,,,1,,,56,0
184080,note_on,1,0,3,,,,,,,,2,,,40,37
184080,note_on,1,0,2,,,,,,,,1,,,52,36
184199,note_on,119,0,3,,,,,,,,2,,,40,0
184199,note_on,119,0,2,,,,,,,,1,,,52,0
184200,note_on,1,0,2,,,,,,,,1,,,53,36
184200,note_on,1,0,3,,,,,,,,2,,,41,37
184319,note_on,119,0,3,,,,,,,,2,,,41,0
184319,note_on,119,0,2,,,,,,,,1,,,53,0
184320,note_on,1,0,3,,,,,,,,2,,,40,37
184320,note_on,1,0,2,,,,,,,,1,,,52,35
184409,control_change,600,0,4,,,,,,,,3,64,0,,
184439,note_on,119,0,2,,,,,,,,1,,,52,0
184439,note_on,119,0,3,,,,,,,,2,,,40,0
184440,note_on,1,0,2,,,,,,,,1,,,48,35
184440,note_on,1,0,3,,,,,,,,2,,,36,36
184559,note_on,119,0,2,,,,,,,,1,,,48,0
184559,note_on,119,0,3,,,,,,,,2,,,36,0
184560,note_on,1,0,2,,,,,,,,1,,,47,34
184679,note_on,119,0,2,,,,,,,,1,,,47,0
184680,note_on,1,0,2,,,,,,,,1,,,51,34
184680,note_on,121,0,3,,,,,,,,2,,,39,36
184788,note_on,108,0,3,,,,,,,,2,,,39,0
184788,note_on,108,0,2,,,,,,,,1,,,51,0
184800,note_on,12,0,2,,,,,,,,1,,,52,34
184800,note_on,12,0,3,,,,,,,,2,,,40,36
184919,note_on,119,0,2,,,,,,,,1,,,52,0
184919,note_on,119,0,3,,,,,,,,2,,,40,0
184920,note_on,1,0,2,,,,,,,,1,,,53,33
184920,note_on,1,0,3,,,,,,,,2,,,41,35
185039,note_on,119,0,3,,,,,,,,2,,,41,0
185039,note_on,119,0,2,,,,,,,,1,,,53,0
185040,note_on,1,0,2,,,,,,,,1,,,52,33
185040,note_on,1,0,3,,,,,,,,2,,,40,35
185159,note_on,119,0,3,,,,,,,,2,,,40,0
185159,note_on,119,0,2,,,,,,,,1,,,52,0
185160,note_on,1,0,2,,,,,,,,1,,,48,33
185160,note_on,1,0,3,,,,,,,,2,,,36,35
185279,note_on,119,0,2,,,,,,,,1,,,48,0
185279,note_on,119,0,3,,,,,,,,2,,,36,0
185280,note_on,1,0,3,,,,,,,,2,,,35,34
185280,note_on,1,0,2,,,,,,,,1,,,47,32
185399,note_on,119,0,3,,,,,,,,2,,,35,0
185399,note_on,119,0,2,,,,,,,,1,,,47,0
185400,note_on,1,0,2,,,,,,,,1,,,49,32
185400,note_on,1,0,3,,,,,,,,2,,,37,34
185519,note_on,119,0,2,,,,,,,,1,,,49,0
185519,note_on,119,0,3,,,,,,,,2,,,37,0
185520,note_on,1,0,3,,,,,,,,2,,,40,34
185520,note_on,1,0,2,,,,,,,,1,,,52,32
185639,note_on,119,0,2,,,,,,,,1,,,52,0
185639,note_on,119,0,3,,,,,,,,2,,,40,0
185640,note_on,1,0,2,,,,,,,,1,,,53,31
185640,note_on,1,0,3,,,,,,,,2,,,41,34
185759,note_on,119,0,3,,,,,,,,2,,,41,0
185759,note_on,119,0,2,,,,,,,,1,,,53,0
185760,control_change,1,0,3,,,,,,,,2,64,0,,
185760,note_on,0,0,2,,,,,,,,1,,,52,31
185760,control_change,1,0,2,,,,,,,,1,64,0,,
185760,note_on,0,0,3,,,,,,,,2,,,40,33
185879,note_on,119,0,2,,,,,,,,1,,,52,0
185879,note_on,119,0,3,,,,,,,,2,,,40,0
185880,note_on,1,0,2,,,,,,,,1,,,48,31
185880,note_on,1,0,3,,,,,,,,2,,,36,33
185999,note_on,119,0,3,,,,,,,,2,,,36,0
185999,note_on,119,0,2,,,,,,,,1,,,48,0
186000,note_on,1,0,3,,,,,,,,2,,,35,33
186000,note_on,1,0,2,,,,,,,,1,,,47,30
186119,note_on,119,0,3,,,,,,,,2,,,35,0
186119,note_on,119,0,2,,,,,,,,1,,,47,0
186120,note_on,1,0,3,,,,,,,,2,,,39,32
186120,note_on,1,0,2,,,,,,,,1,,,51,30
186228,note_on,108,0,3,,,,,,,,2,,,39,0
186228,note_on,108,0,2,,,,,,,,1,,,51,0
186240,note_on,12,0,2,,,,,,,,1,,,52,30
186240,note_on,12,0,3,,,,,,,,2,,,40,32
186348,note_on,108,0,3,,,,,,,,2,,,40,0
186348,note_on,108,0,2,,,,,,,,1,,,52,0
187627,set_tempo,22975,1,0,,,,,,417915,,,,,,
187677,set_tempo,50,1,0,,,,,,482431,,,,,,
188400,note_on,2052,0,3,,,,,,,,2,,,64,79
188879,note_on,479,0,3,,,,,,,,2,,,64,0
188880,note_on,1,0,3,,,,,,,,2,,,62,86
189096,note_on,216,0,3,,,,,,,,2,,,62,0
189120,note_on,0,0,3,,,,,,,,2,,,62,86
189120,control_change,24,0,3,,,,,,,,2,64,127,,
189360,control_change,11328,0,1,,,,,,,,0,64,127,,
189360,note_on,0,0,1,,,,,,,,0,,,64,47
189599,note_on,239,0,1,,,,,,,,0,,,64,0
189600,note_on,1,0,1,,,,,,,,0,,,72,51
189839,note_on,719,0,3,,,,,,,,2,,,62,0
189839,note_on,239,0,1,,,,,,,,0,,,72,0
189840,note_on,1,0,3,,,,,,,,2,,,60,86
189840,note_on,5431,0,4,,,,,,,,3,,,55,64
189840,note_on,0,0,4,,,,,,,,3,,,52,64
189840,note_on,1,0,1,,,,,,,,0,,,79,53
190056,note_on,216,0,4,,,,,,,,3,,,52,0
190056,note_on,0,0,4,,,,,,,,3,,,55,0
190079,note_on,239,0,1,,,,,,,,0,,,79,0
190080,note_on,1,0,1,,,,,,,,0,,,76,57
190080,control_change,240,0,3,,,,,,,,2,64,0,,
190319,note_on,239,0,1,,,,,,,,0,,,76,0
190320,control_change,1,0,1,,,,,,,,0,64,0,,
190320,note_on,0,0,1,,,,,,,,0,,,84,59
190536,note_on,216,0,1,,,,,,,,0,,,84,0
190560,note_on,24,0,1,,,,,,,,0,,,91,63
190560,note_on,0,0,4,,,,,,,,3,,,40,64
190560,control_change,504,0,4,,,,,,,,3,64,127,,
190560,control_change,0,0,1,,,,,,,,0,64,127,,
190629,control_change,549,0,3,,,,,,,,2,64,127,,
190799,note_on,239,0,1,,,,,,,,0,,,91,0
190800,note_on,1,0,1,,,,,,,,0,,,84,62
190954,control_change,4606,0,2,,,,,,,,1,64,127,,
191039,note_on,239,0,1,,,,,,,,0,,,84,0
191040,note_on,1,0,1,,,,,,,,0,,,76,60
191160,note_on,206,0,2,,,,,,,,1,,,59,71
191239,note_on,79,0,2,,,,,,,,1,,,59,0
191240,note_on,1,0,2,,,,,,,,1,,,60,73
191279,note_on,719,0,4,,,,,,,,3,,,40,0
191279,note_on,650,0,3,,,,,,,,2,,,60,0
191279,note_on,239,0,1,,,,,,,,0,,,76,0
191280,note_on,0,0,4,,,,,,,,3,,,52,64
191280,note_on,1,0,4,,,,,,,,3,,,56,64
191280,note_on,1,0,1,,,,,,,,0,,,80,57
191280,note_on,1,0,3,,,,,,,,2,,,60,93
191319,note_on,79,0,2,,,,,,,,1,,,60,0
191320,note_on,1,0,2,,,,,,,,1,,,62,76
191392,note_on,72,0,2,,,,,,,,1,,,62,0
191496,note_on,216,0,4,,,,,,,,3,,,52,0
191496,note_on,0,0,4,,,,,,,,3,,,56,0
191519,note_on,239,0,1,,,,,,,,0,,,80,0
191520,control_change,24,0,4,,,,,,,,3,64,0,,
191520,control_change,1,0,1,,,,,,,,0,64,0,,
191520,note_on,0,0,1,,,,,,,,0,,,72,55
191589,control_change,309,0,3,,,,,,,,2,64,0,,
191759,note_on,239,0,1,,,,,,,,0,,,72,0
191759,note_on,170,0,3,,,,,,,,2,,,60,0
191760,note_on,1,0,1,,,,,,,,0,,,64,53
191760,note_on,1,0,3,,,,,,,,2,,,59,87
191914,control_change,522,0,2,,,,,,,,1,64,0,,
191976,note_on,216,0,3,,,,,,,,2,,,59,0
191976,note_on,216,0,1,,,,,,,,0,,,64,0
192000,note_on,0,0,3,,,,,,,,2,,,59,85
192000,control_change,24,0,3,,,,,,,,2,64,127,,
192030,control_change,510,0,4,,,,,,,,3,64,127,,
192060,control_change,84,0,1,,,,,,,,0,64,127,,
192240,note_on,180,0,1,,,,,,,,0,,,65,48
192479,note_on,239,0,1,,,,,,,,0,,,65,0
192480,note_on,1,0,1,,,,,,,,0,,,72,52
192719,note_on,239,0,1,,,,,,,,0,,,72,0
192719,note_on,719,0,3,,,,,,,,2,,,59,0
192720,note_on,690,0,4,,,,,,,,3,,,41,64
192720,note_on,1,0,1,,,,,,,,0,,,81,55
192720,note_on,1,0,3,,,,,,,,2,,,57,77
192720,note_on,0,0,4,,,,,,,,3,,,48,64
192936,note_on,216,0,4,,,,,,,,3,,,48,0
192936,note_on,0,0,4,,,,,,,,3,,,41,0
192959,note_on,239,0,1,,,,,,,,0,,,81,0
192960,note_on,1,0,1,,,,,,,,0,,,77,59
192960,control_change,240,0,3,,,,,,,,2,64,0,,
192990,control_change,54,0,4,,,,,,,,3,64,0,,
193020,control_change,60,0,1,,,,,,,,0,64,0,,
193199,note_on,179,0,1,,,,,,,,0,,,77,0
193200,note_on,1,0,1,,,,,,,,0,,,84,62
193416,note_on,216,0,1,,,,,,,,0,,,84,0
193440,control_change,480,0,3,,,,,,,,2,64,127,,
193440,control_change,450,0,4,,,,,,,,3,64,127,,
193440,note_on,0,0,4,,,,,,,,3,,,40,64
193440,note_on,0,0,4,,,,,,,,3,,,49,64
193440,note_on,24,0,1,,,,,,,,0,,,93,65
193467,control_change,27,0,1,,,,,,,,0,64,127,,
193656,note_on,216,0,4,,,,,,,,3,,,49,0
193656,note_on,0,0,4,,,,,,,,3,,,40,0
193679,note_on,212,0,1,,,,,,,,0,,,93,0
193680,note_on,1,0,1,,,,,,,,0,,,85,65
193919,note_on,239,0,1,,,,,,,,0,,,85,0
193920,note_on,1,0,1,,,,,,,,0,,,79,60
194159,note_on,239,0,1,,,,,,,,0,,,79,0
194159,note_on,719,0,3,,,,,,,,2,,,57,0
194160,note_on,1,0,1,,,,,,,,0,,,81,55
194160,note_on,1,0,3,,,,,,,,2,,,57,97
194399,note_on,239,0,1,,,,,,,,0,,,81,0
194400,control_change,240,0,3,,,,,,,,2,64,0,,
194400,control_change,744,0,4,,,,,,,,3,64,0,,
194400,note_on,1,0,1,,,,,,,,0,,,73,51
194427,control_change,27,0,1,,,,,,,,0,64,0,,
194639,note_on,239,0,3,,,,,,,,2,,,57,0
194639,note_on,212,0,1,,,,,,,,0,,,73,0
194640,note_on,1,0,1,,,,,,,,0,,,67,46
194640,note_on,1,0,3,,,,,,,,2,,,55,93
194856,note_on,216,0,1,,,,,,,,0,,,67,0
194856,note_on,216,0,3,,,,,,,,2,,,55,0
194880,control_change,24,0,3,,,,,,,,2,64,127,,
194880,note_on,0,0,4,,,,,,,,3,,,38,64
194880,note_on,0,0,3,,,,,,,,2,,,55,90
194880,note_on,0,0,4,,,,,,,,3,,,45,64
194880,control_change,480,0,4,,,,,,,,3,64,127,,
195120,note_on,264,0,1,,,,,,,,0,,,65,31
195120,control_change,0,0,1,,,,,,,,0,64,127,,
195359,note_on,479,0,3,,,,,,,,2,,,55,0
195359,note_on,239,0,1,,,,,,,,0,,,65,0
195360,note_on,1,0,1,,,,,,,,0,,,74,35
195360,note_on,1,0,3,,,,,,,,2,,,53,85
195599,note_on,239,0,1,,,,,,,,0,,,74,0
195599,note_on,0,0,4,,,,,,,,3,,,38,0
195599,note_on,239,0,3,,,,,,,,2,,,53,0
195599,note_on,719,0,4,,,,,,,,3,,,45,0
195600,note_on,1,0,1,,,,,,,,0,,,81,37
195600,note_on,0,0,4,,,,,,,,3,,,50,64
195600,note_on,1,0,3,,,,,,,,2,,,65,83
195600,note_on,1,0,4,,,,,,,,3,,,57,64
195816,note_on,216,0,4,,,,,,,,3,,,50,0
195816,note_on,0,0,4,,,,,,,,3,,,57,0
195839,note_on,239,0,1,,,,,,,,0,,,81,0
195840,note_on,1,0,1,,,,,,,,0,,,77,41
195840,control_change,240,0,3,,,,,,,,2,64,0,,
195840,control_change,24,0,4,,,,,,,,3,64,0,,
196079,note_on,239,0,1,,,,,,,,0,,,77,0
196080,control_change,1,0,1,,,,,,,,0,64,0,,
196080,note_on,0,0,1,,,,,,,,0,,,86,43
196296,note_on,216,0,1,,,,,,,,0,,,86,0
196320,control_change,480,0,3,,,,,,,,2,64,127,,
196320,note_on,0,0,4,,,,,,,,3,,,48,64
196320,note_on,24,0,1,,,,,,,,0,,,92,46
196320,note_on,480,0,4,,,,,,,,3,,,56,64
196536,note_on,216,0,4,,,,,,,,3,,,48,0
196536,note_on,0,0,4,,,,,,,,3,,,56,0
196559,note_on,239,0,1,,,,,,,,0,,,92,0
196560,note_on,1,0,1,,,,,,,,0,,,86,49
196594,control_change,34,0,1,,,,,,,,0,64,127,,
196799,note_on,205,0,1,,,,,,,,0,,,86,0
196800,note_on,1,0,1,,,,,,,,0,,,77,51
197039,note_on,719,0,3,,,,,,,,2,,,65,0
197039,note_on,239,0,1,,,,,,,,0,,,77,0
197040,note_on,1,0,1,,,,,,,,0,,,80,48
197040,note_on,1,0,3,,,,,,,,2,,,65,82
197279,note_on,239,0,1,,,,,,,,0,,,80,0
197280,note_on,1,0,1,,,,,,,,0,,,74,44
197280,control_change,240,0,3,,,,,,,,2,64,0,,
197519,note_on,239,0,1,,,,,,,,0,,,74,0
197520,note_on,1,0,1,,,,,,,,0,,,65,40
197554,control_change,34,0,1,,,,,,,,0,64,0,,
197639,note_on,359,0,3,,,,,,,,2,,,65,0
197640,note_on,1,0,3,,,,,,,,2,,,64,72
197736,note_on,182,0,1,,,,,,,,0,,,65,0
197748,note_on,108,0,3,,,,,,,,2,,,64,0
197760,note_on,0,0,3,,,,,,,,2,,,64,82
197760,control_change,12,0,3,,,,,,,,2,64,127,,
197794,control_change,58,0,1,,,,,,,,0,64,127,,
198000,note_on,206,0,1,,,,,,,,0,,,65,49
198239,note_on,239,0,1,,,,,,,,0,,,65,0
198240,note_on,1,0,1,,,,,,,,0,,,74,53
198343,control_change,1807,0,4,,,,,,,,3,64,127,,
198479,note_on,719,0,3,,,,,,,,2,,,64,0
198479,note_on,239,0,1,,,,,,,,0,,,74,0
198480,note_on,137,0,4,,,,,,,,3,,,47,58
198480,note_on,1,0,1,,,,,,,,0,,,79,57
198480,note_on,1,0,3,,,,,,,,2,,,62,80
198520,note_on,40,0,4,,,,,,,,3,,,53,61
198560,note_on,40,0,4,,,,,,,,3,,,55,62
198600,note_on,40,0,4,,,,,,,,3,,,62,64
198719,note_on,0,0,4,,,,,,,,3,,,53,0
198719,note_on,0,0,4,,,,,,,,3,,,47,0
198719,note_on,239,0,1,,,,,,,,0,,,79,0
198719,note_on,119,0,4,,,,,,,,3,,,55,0
198720,control_change,240,0,3,,,,,,,,2,64,0,,
198720,note_on,1,0,1,,,,,,,,0,,,77,60
198754,control_change,34,0,1,,,,,,,,0,64,0,,
198959,note_on,205,0,1,,,,,,,,0,,,77,0
198960,note_on,1,0,1,,,,,,,,0,,,86,64
199080,control_change,361,0,4,,,,,,,,3,64,0,,
199128,note_on,408,0,3,,,,,,,,2,,,62,0
199152,note_on,72,0,4,,,,,,,,3,,,62,0
199176,note_on,216,0,1,,,,,,,,0,,,86,0
199200,control_change,48,0,4,,,,,,,,3,64,127,,
199200,note_on,0,0,4,,,,,,,,3,,,35,64
199200,note_on,24,0,1,,,,,,,,0,,,91,67
199217,control_change,17,0,1,,,,,,,,0,64,127,,
199439,note_on,222,0,1,,,,,,,,0,,,91,0
199440,note_on,1,0,1,,,,,,,,0,,,86,67
199679,note_on,239,0,1,,,,,,,,0,,,86,0
199680,note_on,1,0,1,,,,,,,,0,,,77,63
199919,note_on,719,0,4,,,,,,,,3,,,35,0
199919,note_on,239,0,1,,,,,,,,0,,,77,0
199920,note_on,1,0,1,,,,,,,,0,,,79,60
199920,note_on,792,0,3,,,,,,,,2,,,62,79
199920,note_on,1,0,4,,,,,,,,3,,,47,58
199959,note_on,39,0,4,,,,,,,,3,,,47,0
199960,note_on,1,0,4,,,,,,,,3,,,53,62
200000,note_on,40,0,4,,,,,,,,3,,,55,64
200040,note_on,0,0,4,,,,,,,,3,,,50,68
200040,note_on,40,0,4,,,,,,,,3,,,62,68
200159,note_on,0,0,4,,,,,,,,3,,,55,0
200159,note_on,0,0,4,,,,,,,,3,,,53,0
200159,note_on,119,0,4,,,,,,,,3,,,50,0
200159,note_on,239,0,1,,,,,,,,0,,,79,0
200160,note_on,1,0,1,,,,,,,,0,,,74,56
200160,control_change,1,0,4,,,,,,,,3,64,0,,
200177,control_change,17,0,1,,,,,,,,0,64,0,,
200399,note_on,222,0,1,,,,,,,,0,,,74,0
200400,note_on,1,0,1,,,,,,,,0,,,65,53
200568,note_on,648,0,3,,,,,,,,2,,,62,0
200592,note_on,432,0,4,,,,,,,,3,,,62,0
200610,set_tempo,12933,1,0,,,,,,520246,,,,,,
200616,note_on,216,0,1,,,,,,,,0,,,65,0
200640,control_change,24,0,1,,,,,,,,0,64,127,,
200640,note_on,72,0,3,,,,,,,,2,,,63,79
200640,control_change,48,0,4,,,,,,,,3,64,127,,
200640,note_on,0,0,4,,,,,,,,3,,,48,56
200680,note_on,40,0,4,,,,,,,,3,,,51,58
200720,note_on,40,0,4,,,,,,,,3,,,55,62
200759,set_tempo,149,1,0,,,,,,518090,,,,,,
200760,note_on,40,0,4,,,,,,,,3,,,63,63
200879,note_on,119,0,4,,,,,,,,3,,,55,0
200879,note_on,0,0,4,,,,,,,,3,,,51,0
200879,note_on,0,0,4,,,,,,,,3,,,48,0
200880,note_on,0,0,1,,,,,,,,0,,,79,37
200880,note_on,240,0,1,,,,,,,,0,,,72,37
201119,note_on,0,0,1,,,,,,,,0,,,72,0
201119,note_on,239,0,1,,,,,,,,0,,,79,0
201120,note_on,1,0,1,,,,,,,,0,,,75,39
201272,control_change,393,0,4,,,,,,,,3,64,0,,
201352,control_change,80,0,4,,,,,,,,3,64,127,,
201359,note_on,7,0,4,,,,,,,,3,,,63,0
201359,note_on,239,0,1,,,,,,,,0,,,75,0
201359,note_on,719,0,3,,,,,,,,2,,,63,0
201360,note_on,1,0,1,,,,,,,,0,,,70,40
201360,note_on,1,0,3,,,,,,,,2,,,60,79
201360,note_on,1,0,4,,,,,,,,3,,,46,55
201400,note_on,40,0,4,,,,,,,,3,,,52,58
201440,note_on,40,0,4,,,,,,,,3,,,58,60
201480,note_on,40,0,4,,,,,,,,3,,,60,64
201553,set_tempo,794,1,0,,,,,,570071,,,,,,
201599,note_on,119,0,4,,,,,,,,3,,,58,0
201599,note_on,0,0,4,,,,,,,,3,,,52,0
201599,note_on,0,0,4,,,,,,,,3,,,46,0
201599,note_on,239,0,1,,,,,,,,0,,,70,0
201600,control_change,1,0,1,,,,,,,,0,64,0,,
201600,note_on,0,0,1,,,,,,,,0,,,84,42
201600,note_on,0,0,1,,,,,,,,0,,,76,42
201839,note_on,239,0,1,,,,,,,,0,,,76,0
201839,note_on,0,0,1,,,,,,,,0,,,84,0
201840,note_on,1,0,1,,,,,,,,0,,,82,44
202008,note_on,648,0,3,,,,,,,,2,,,60,0
202032,note_on,433,0,4,,,,,,,,3,,,60,0
202048,control_change,16,0,4,,,,,,,,3,64,0,,
202056,note_on,216,0,1,,,,,,,,0,,,82,0
202056,control_change,0,0,1,,,,,,,,0,64,127,,
202080,note_on,32,0,4,,,,,,,,3,,,49,53
202080,note_on,72,0,3,,,,,,,,2,,,65,78
202080,note_on,24,0,1,,,,,,,,0,,,70,45
202120,note_on,40,0,4,,,,,,,,3,,,56,56
202160,control_change,40,0,4,,,,,,,,3,64,127,,
202160,note_on,0,0,4,,,,,,,,3,,,58,61
202200,note_on,40,0,4,,,,,,,,3,,,65,63
202319,note_on,119,0,4,,,,,,,,3,,,58,0
202319,note_on,0,0,4,,,,,,,,3,,,56,0
202319,note_on,239,0,1,,,,,,,,0,,,70,0
202319,note_on,0,0,4,,,,,,,,3,,,49,0
202320,note_on,0,0,1,,,,,,,,0,,,85,47
202320,note_on,1,0,1,,,,,,,,0,,,77,47
202559,note_on,239,0,1,,,,,,,,0,,,85,0
202559,note_on,0,0,1,,,,,,,,0,,,77,0
202560,note_on,1,0,1,,,,,,,,0,,,82,49
202653,control_change,573,0,3,,,,,,,,2,64,127,,
202680,control_change,361,0,4,,,,,,,,3,64,0,,
202799,note_on,239,0,1,,,,,,,,0,,,82,0
202800,note_on,1,0,1,,,,,,,,0,,,73,50
202800,note_on,120,0,4,,,,,,,,3,,,55,81
202800,note_on,0,0,4,,,,,,,,3,,,51,81
202827,control_change,27,0,4,,,,,,,,3,64,127,,
203016,control_change,216,0,1,,,,,,,,0,64,0,,
203039,note_on,23,0,1,,,,,,,,0,,,73,0
203039,note_on,212,0,4,,,,,,,,3,,,51,0
203039,note_on,0,0,4,,,,,,,,3,,,55,0
203040,note_on,0,0,1,,,,,,,,0,,,79,52
203040,note_on,1,0,1,,,,,,,,0,,,87,52
203240,control_change,201,0,4,,,,,,,,3,64,0,,
203279,note_on,39,0,4,,,,,,,,3,,,65,0
203279,note_on,626,0,3,,,,,,,,2,,,65,0
203279,note_on,0,0,1,,,,,,,,0,,,87,0
203279,note_on,239,0,1,,,,,,,,0,,,79,0
203280,note_on,1,0,1,,,,,,,,0,,,82,52
203280,note_on,1,0,4,,,,,,,,3,,,61,64
203280,note_on,1,0,3,,,,,,,,2,,,61,64
203320,control_change,40,0,4,,,,,,,,3,64,127,,
203496,note_on,176,0,4,,,,,,,,3,,,61,0
203496,note_on,216,0,1,,,,,,,,0,,,82,0
203496,note_on,216,0,3,,,,,,,,2,,,61,0
203520,note_on,11606,0,2,,,,,,,,1,,,60,64
203520,note_on,24,0,3,,,,,,,,2,,,60,64
203520,note_on,0,0,1,,,,,,,,0,,,72,63
203520,note_on,0,0,4,,,,,,,,3,,,44,64
203520,note_on,0,0,4,,,,,,,,3,,,51,64
203520,note_on,24,0,4,,,,,,,,3,,,56,64
203520,control_change,24,0,1,,,,,,,,0,64,127,,
203547,control_change,27,0,2,,,,,,,,1,64,127,,
203613,control_change,93,0,3,,,,,,,,2,64,0,,
203736,note_on,216,0,4,,,,,,,,3,,,44,0
203736,note_on,0,0,4,,,,,,,,3,,,56,0
203736,note_on,0,0,4,,,,,,,,3,,,51,0
203759,note_on,239,0,1,,,,,,,,0,,,72,0
203760,note_on,1,0,1,,,,,,,,0,,,87,61
203760,note_on,0,0,1,,,,,,,,0,,,80,61
203840,control_change,227,0,3,,,,,,,,2,64,127,,
203999,note_on,239,0,1,,,,,,,,0,,,80,0
203999,note_on,0,0,1,,,,,,,,0,,,87,0
204000,note_on,1,0,1,,,,,,,,0,,,84,59
204239,note_on,239,0,1,,,,,,,,0,,,84,0
204240,note_on,1,0,1,,,,,,,,0,,,75,57
204280,control_change,544,0,4,,,,,,,,3,64,0,,
204479,note_on,239,0,1,,,,,,,,0,,,75,0
204480,control_change,1,0,1,,,,,,,,0,64,0,,
204480,note_on,0,0,1,,,,,,,,0,,,84,55
204480,note_on,0,0,1,,,,,,,,0,,,92,55
204507,control_change,960,0,2,,,,,,,,1,64,0,,
204719,note_on,239,0,1,,,,,,,,0,,,92,0
204719,note_on,0,0,1,,,,,,,,0,,,84,0
204720,note_on,1,0,1,,,,,,,,0,,,87,53
204800,control_change,960,0,3,,,,,,,,2,64,0,,
204816,note_on,16,0,3,,,,,,,,2,,,60,0
204816,note_on,309,0,2,,,,,,,,1,,,60,0
204936,note_on,216,0,1,,,,,,,,0,,,87,0
204960,note_on,24,0,1,,,,,,,,0,,,80,51
204960,control_change,0,0,1,,,,,,,,0,64,127,,
204960,control_change,680,0,4,,,,,,,,3,64,127,,
204987,control_change,171,0,2,,,,,,,,1,64,127,,
205199,note_on,239,0,1,,,,,,,,0,,,80,0
205200,note_on,1,0,1,,,,,,,,0,,,96,49
205200,note_on,0,0,1,,,,,,,,0,,,87,49
205280,control_change,464,0,3,,,,,,,,2,64,127,,
205439,note_on,0,0,1,,,,,,,,0,,,96,0
205439,note_on,239,0,1,,,,,,,,0,,,87,0
205440,note_on,1,0,1,,,,,,,,0,,,92,47
205679,note_on,239,0,1,,,,,,,,0,,,92,0
205680,note_on,400,0,3,,,,,,,,2,,,54,49
205680,note_on,693,0,2,,,,,,,,1,,,66,47
205680,note_on,0,0,4,,,,,,,,3,,,51,64
205680,note_on,0,0,4,,,,,,,,3,,,48,64
205680,note_on,720,0,4,,,,,,,,3,,,44,64
205680,note_on,1,0,1,,,,,,,,0,,,84,45
205896,note_on,0,0,4,,,,,,,,3,,,44,0
205896,note_on,0,0,4,,,,,,,,3,,,48,0
205896,note_on,216,0,4,,,,,,,,3,,,51,0
205919,note_on,239,0,1,,,,,,,,0,,,84,0
205920,note_on,0,0,1,,,,,,,,0,,,99,43
205920,note_on,1,0,1,,,,,,,,0,,,90,43
206159,note_on,239,0,1,,,,,,,,0,,,99,0
206159,note_on,0,0,1,,,,,,,,0,,,90,0
206160,note_on,1,0,1,,,,,,,,0,,,96,41
206208,control_change,48,0,1,,,,,,,,0,64,0,,
206240,control_change,560,0,3,,,,,,,,2,64,0,,
206256,control_change,360,0,4,,,,,,,,3,64,0,,
206256,control_change,576,0,2,,,,,,,,1,64,0,,
206328,note_on,72,0,2,,,,,,,,1,,,66,0
206328,note_on,88,0,3,,,,,,,,2,,,54,0
206376,note_on,168,0,1,,,,,,,,0,,,96,0
206400,control_change,144,0,4,,,,,,,,3,64,127,,
206400,note_on,0,0,4,,,,,,,,3,,,48,64
206400,time_signature,4847,1,0,3,4,24,8,,,,,,,,
206400,note_on,0,0,4,,,,,,,,3,,,51,64
206400,note_on,0,0,4,,,,,,,,3,,,43,64
206400,note_on,72,0,3,,,,,,,,2,,,55,64
206400,set_tempo,0,1,0,,,,,,750000,,,,,,
207239,note_on,839,0,4,,,,,,,,3,,,43,0
207239,note_on,0,0,4,,,,,,,,3,,,51,0
207239,note_on,0,0,4,,,,,,,,3,,,48,0
207240,note_on,1,0,4,,,,,,,,3,,,43,54
207240,note_on,0,0,4,,,,,,,,3,,,51,54
207240,note_on,0,0,4,,,,,,,,3,,,48,54
207359,note_on,119,0,4,,,,,,,,3,,,48,0
207359,note_on,0,0,4,,,,,,,,3,,,51,0
207359,note_on,0,0,4,,,,,,,,3,,,43,0
207360,control_change,1,0,4,,,,,,,,3,64,0,,
207360,note_on,0,0,4,,,,,,,,3,,,48,64
207360,note_on,0,0,4,,,,,,,,3,,,51,64
207360,note_on,0,0,4,,,,,,,,3,,,43,64
207576,note_on,0,0,4,,,,,,,,3,,,48,0
207576,note_on,216,0,4,,,,,,,,3,,,43,0
207576,note_on,0,0,4,,,,,,,,3,,,51,0
207696,note_on,1296,0,3,,,,,,,,2,,,55,0
207840,control_change,264,0,4,,,,,,,,3,64,127,,
207840,note_on,0,0,4,,,,,,,,3,,,48,64
207840,note_on,0,0,4,,,,,,,,3,,,51,64
207840,note_on,0,0,4,,,,,,,,3,,,43,64
208679,note_on,839,0,4,,,,,,,,3,,,43,0
208679,note_on,0,0,4,,,,,,,,3,,,51,0
208679,note_on,0,0,4,,,,,,,,3,,,48,0
208680,note_on,1,0,4,,,,,,,,3,,,48,55
208680,note_on,0,0,4,,,,,,,,3,,,51,55
208680,note_on,0,0,4,,,,,,,,3,,,43,55
208714,control_change,34,0,4,,,,,,,,3,64,0,,
208799,note_on,0,0,4,,,,,,,,3,,,48,0
208799,note_on,85,0,4,,,,,,,,3,,,43,0
208799,note_on,0,0,4,,,,,,,,3,,,51,0
208800,note_on,1,0,4,,,,,,,,3,,,48,64
208800,note_on,0,0,4,,,,,,,,3,,,51,64
208800,note_on,0,0,4,,,,,,,,3,,,43,64
209016,note_on,216,0,4,,,,,,,,3,,,43,0
209016,note_on,0,0,4,,,,,,,,3,,,51,0
209016,note_on,0,0,4,,,,,,,,3,,,48,0
209280,note_on,0,0,3,,,,,,,,2,,,51,73
209280,note_on,264,0,4,,,,,,,,3,,,31,73
209280,note_on,0,0,4,,,,,,,,3,,,43,73
209280,control_change,0,0,4,,,,,,,,3,64,127,,
209280,control_change,1584,0,3,,,,,,,,2,64,127,,
209280,note_on,0,0,3,,,,,,,,2,,,48,73
209623,control_change,3295,0,2,,,,,,,,1,64,127,,
209759,note_on,0,0,3,,,,,,,,2,,,51,0
209759,note_on,479,0,4,,,,,,,,3,,,43,0
209759,note_on,0,0,4,,,,,,,,3,,,31,0
209759,note_on,479,0,3,,,,,,,,2,,,48,0
209760,note_on,0,0,3,,,,,,,,2,,,48,83
209760,note_on,1,0,3,,,,,,,,2,,,51,83
209760,note_on,0,0,4,,,,,,,,3,,,43,79
209760,note_on,1,0,4,,,,,,,,3,,,36,79
209760,note_on,137,0,2,,,,,,,,1,,,55,79
210239,note_on,479,0,3,,,,,,,,2,,,48,0
210239,note_on,0,0,3,,,,,,,,2,,,51,0
210239,note_on,0,0,4,,,,,,,,3,,,36,0
210239,note_on,479,0,4,,,,,,,,3,,,43,0
210240,note_on,1,0,4,,,,,,,,3,,,39,86
210240,note_on,0,0,4,,,,,,,,3,,,43,86
210240,note_on,0,0,3,,,,,,,,2,,,48,88
210240,note_on,1,0,3,,,,,,,,2,,,51,88
210599,note_on,839,0,2,,,,,,,,1,,,55,0
210600,note_on,1,0,2,,,,,,,,1,,,55,92
210672,note_on,0,0,3,,,,,,,,2,,,51,0
210672,note_on,432,0,3,,,,,,,,2,,,48,0
210672,note_on,432,0,4,,,,,,,,3,,,43,0
210672,note_on,0,0,4,,,,,,,,3,,,39,0
210708,note_on,108,0,2,,,,,,,,1,,,55,0
210720,note_on,48,0,3,,,,,,,,2,,,47,94
210720,note_on,0,0,3,,,,,,,,2,,,50,94
210720,note_on,48,0,4,,,,,,,,3,,,44,92
210720,note_on,0,0,4,,,,,,,,3,,,41,92
210720,note_on,12,0,2,,,,,,,,1,,,57,94
211080,control_change,360,0,4,,,,,,,,3,64,0,,
211200,control_change,480,0,3,,,,,,,,2,64,0,,
211260,control_change,540,0,2,,,,,,,,1,64,0,,
211560,note_on,480,0,4,,,,,,,,3,,,41,0
211560,note_on,0,0,4,,,,,,,,3,,,44,0
211560,note_on,0,0,3,,,,,,,,2,,,47,0
211560,note_on,360,0,3,,,,,,,,2,,,50,0
212016,note_on,756,0,2,,,,,,,,1,,,57,0
212160,control_change,600,0,4,,,,,,,,3,64,127,,
212160,note_on,0,0,3,,,,,,,,2,,,47,83
212160,note_on,0,0,3,,,,,,,,2,,,50,83
212160,note_on,0,0,4,,,,,,,,3,,,41,74
212160,note_on,0,0,4,,,,,,,,3,,,44,74
212160,control_change,600,0,3,,,,,,,,2,64,127,,
212279,note_on,119,0,3,,,,,,,,2,,,50,0
212279,note_on,0,0,3,,,,,,,,2,,,47,0
212279,note_on,0,0,4,,,,,,,,3,,,44,0
212279,note_on,119,0,4,,,,,,,,3,,,41,0
212280,note_on,1,0,4,,,,,,,,3,,,41,66
212280,note_on,0,0,4,,,,,,,,3,,,44,66
212280,note_on,0,0,3,,,,,,,,2,,,50,64
212280,note_on,1,0,3,,,,,,,,2,,,47,64
212712,note_on,0,0,3,,,,,,,,2,,,47,0
212712,note_on,432,0,3,,,,,,,,2,,,50,0
212712,note_on,0,0,4,,,,,,,,3,,,41,0
212712,note_on,432,0,4,,,,,,,,3,,,44,0
213120,control_change,408,0,4,,,,,,,,3,64,0,,
213120,control_change,408,0,3,,,,,,,,2,64,0,,
213600,note_on,0,0,4,,,,,,,,3,,,45,64
213600,note_on,0,0,4,,,,,,,,3,,,30,64
213600,control_change,480,0,3,,,,,,,,2,64,127,,
213600,note_on,0,0,3,,,,,,,,2,,,50,64
213600,note_on,0,0,3,,,,,,,,2,,,48,64
213600,note_on,0,0,3,,,,,,,,2,,,42,64
213600,control_change,480,0,4,,,,,,,,3,64,127,,
214439,note_on,0,0,4,,,,,,,,3,,,30,0
214439,note_on,839,0,4,,,,,,,,3,,,45,0
214439,note_on,0,0,3,,,,,,,,2,,,42,0
214439,note_on,0,0,3,,,,,,,,2,,,48,0
214439,note_on,839,0,3,,,,,,,,2,,,50,0
214440,note_on,0,0,4,,,,,,,,3,,,45,64
214440,note_on,0,0,3,,,,,,,,2,,,48,64
214440,note_on,1,0,3,,,,,,,,2,,,42,64
214440,note_on,0,0,3,,,,,,,,2,,,50,64
214440,note_on,1,0,4,,,,,,,,3,,,30,64
214559,note_on,119,0,3,,,,,,,,2,,,50,0
214559,note_on,0,0,3,,,,,,,,2,,,48,0
214559,note_on,0,0,3,,,,,,,,2,,,42,0
214559,note_on,0,0,4,,,,,,,,3,,,30,0
214559,note_on,119,0,4,,,,,,,,3,,,45,0
214560,note_on,0,0,4,,,,,,,,3,,,45,64
214560,control_change,0,0,4,,,,,,,,3,64,0,,
214560,control_change,1,0,3,,,,,,,,2,64,0,,
214560,note_on,0,0,3,,,,,,,,2,,,48,64
214560,note_on,0,0,3,,,,,,,,2,,,50,64
214560,note_on,0,0,3,,,,,,,,2,,,42,64
214560,note_on,1,0,4,,,,,,,,3,,,30,64
214776,note_on,0,0,4,,,,,,,,3,,,30,0
214776,note_on,216,0,4,,,,,,,,3,,,45,0
214776,note_on,0,0,3,,,,,,,,2,,,50,0
214776,note_on,216,0,3,,,,,,,,2,,,42,0
214776,note_on,0,0,3,,,,,,,,2,,,48,0
215040,control_change,264,0,3,,,,,,,,2,64,127,,
215040,note_on,0,0,4,,,,,,,,3,,,30,64
215040,note_on,0,0,4,,,,,,,,3,,,45,64
215040,control_change,264,0,4,,,,,,,,3,64,127,,
215040,note_on,0,0,3,,,,,,,,2,,,42,64
215040,note_on,0,0,3,,,,,,,,2,,,48,64
215040,note_on,0,0,3,,,,,,,,2,,,50,64
215879,note_on,839,0,3,,,,,,,,2,,,50,0
215879,note_on,839,0,4,,,,,,,,3,,,30,0
215879,note_on,0,0,3,,,,,,,,2,,,42,0
215879,note_on,0,0,3,,,,,,,,2,,,48,0
215879,note_on,0,0,4,,,,,,,,3,,,45,0
215880,note_on,0,0,3,,,,,,,,2,,,48,64
215880,note_on,0,0,4,,,,,,,,3,,,45,64
215880,note_on,0,0,3,,,,,,,,2,,,50,64
215880,note_on,1,0,4,,,,,,,,3,,,30,64
215880,note_on,1,0,3,,,,,,,,2,,,42,64
215999,note_on,119,0,4,,,,,,,,3,,,45,0
215999,note_on,0,0,4,,,,,,,,3,,,30,0
215999,note_on,119,0,3,,,,,,,,2,,,50,0
215999,note_on,0,0,3,,,,,,,,2,,,48,0
215999,note_on,0,0,3,,,,,,,,2,,,42,0
216000,note_on,1,0,4,,,,,,,,3,,,30,64
216000,note_on,0,0,4,,,,,,,,3,,,45,64
216000,control_change,0,0,4,,,,,,,,3,64,0,,
216000,control_change,1,0,3,,,,,,,,2,64,0,,
216000,note_on,0,0,3,,,,,,,,2,,,42,64
216000,note_on,0,0,3,,,,,,,,2,,,50,64
216000,note_on,0,0,3,,,,,,,,2,,,48,64
216216,note_on,0,0,3,,,,,,,,2,,,42,0
216216,note_on,0,0,3,,,,,,,,2,,,48,0
216216,note_on,216,0,3,,,,,,,,2,,,50,0
216216,note_on,216,0,4,,,,,,,,3,,,45,0
216216,note_on,0,0,4,,,,,,,,3,,,30,0
216237,set_tempo,9837,1,0,,,,,,1040763,,,,,,
216353,set_tempo,116,1,0,,,,,,1032169,,,,,,
216360,note_on,9984,0,1,,,,,,,,0,,,57,86
216360,note_on,0,0,1,,,,,,,,0,,,69,86
216452,set_tempo,99,1,0,,,,,,1023716,,,,,,
216468,note_on,0,0,1,,,,,,,,0,,,57,0
216468,set_tempo,16,1,0,,,,,,1058388,,,,,,
216468,note_on,108,0,1,,,,,,,,0,,,69,0
216480,control_change,12,0,1,,,,,,,,0,64,127,,
216480,note_on,0,0,1,,,,,,,,0,,,72,93
216480,note_on,0,0,1,,,,,,,,0,,,60,93
216480,note_on,0,0,2,,,,,,,,1,,,60,64
216480,note_on,4464,0,2,,,,,,,,1,,,63,64
216480,note_on,264,0,4,,,,,,,,3,,,31,66
216535,set_tempo,67,1,0,,,,,,567913,,,,,,
216560,note_on,80,0,4,,,,,,,,3,,,43,94
216640,note_on,80,0,4,,,,,,,,3,,,48,98
216720,note_on,80,0,4,,,,,,,,3,,,51,102
216816,set_tempo,281,1,0,,,,,,522785,,,,,,
217319,note_on,0,0,2,,,,,,,,1,,,63,0
217319,note_on,839,0,2,,,,,,,,1,,,60,0
217319,note_on,0,0,4,,,,,,,,3,,,48,0
217319,note_on,0,0,4,,,,,,,,3,,,43,0
217319,note_on,0,0,4,,,,,,,,3,,,31,0
217319,note_on,599,0,4,,,,,,,,3,,,51,0
217320,note_on,0,0,2,,,,,,,,1,,,63,83
217320,note_on,1,0,2,,,,,,,,1,,,60,83
217320,note_on,1,0,4,,,,,,,,3,,,48,84
217320,note_on,0,0,4,,,,,,,,3,,,51,84
217320,note_on,0,0,4,,,,,,,,3,,,43,84
217395,set_tempo,579,1,0,,,,,,520607,,,,,,
217439,note_on,959,0,1,,,,,,,,0,,,60,0
217439,note_on,0,0,1,,,,,,,,0,,,72,0
217439,note_on,119,0,4,,,,,,,,3,,,43,0
217439,note_on,0,0,4,,,,,,,,3,,,51,0
217439,note_on,0,0,4,,,,,,,,3,,,48,0
217439,note_on,119,0,2,,,,,,,,1,,,63,0
217439,note_on,0,0,2,,,,,,,,1,,,60,0
217440,note_on,1,0,2,,,,,,,,1,,,60,89
217440,note_on,0,0,2,,,,,,,,1,,,63,89
217440,note_on,0,0,4,,,,,,,,3,,,51,94
217440,note_on,0,0,1,,,,,,,,0,,,55,95
217440,note_on,0,0,4,,,,,,,,3,,,48,94
217440,control_change,1,0,1,,,,,,,,0,64,0,,
217440,note_on,1,0,4,,,,,,,,3,,,43,94
217440,note_on,0,0,1,,,,,,,,0,,,67,95
217656,note_on,0,0,4,,,,,,,,3,,,43,0
217656,note_on,0,0,2,,,,,,,,1,,,60,0
217656,note_on,216,0,2,,,,,,,,1,,,63,0
217656,note_on,0,0,4,,,,,,,,3,,,51,0
217656,note_on,216,0,4,,,,,,,,3,,,48,0
217872,note_on,432,0,1,,,,,,,,0,,,67,0
217872,note_on,0,0,1,,,,,,,,0,,,55,0
217908,set_tempo,513,1,0,,,,,,562799,,,,,,
217920,note_on,0,0,4,,,,,,,,3,,,50,94
217920,note_on,264,0,4,,,,,,,,3,,,43,94
217920,control_change,264,0,2,,,,,,,,1,64,127,,
217920,note_on,0,0,2,,,,,,,,1,,,60,97
217920,note_on,0,0,2,,,,,,,,1,,,62,97
217920,control_change,48,0,1,,,,,,,,0,64,127,,
217920,note_on,0,0,4,,,,,,,,3,,,48,94
217971,control_change,51,0,4,,,,,,,,3,64,127,,
218399,note_on,0,0,4,,,,,,,,3,,,43,0
218399,note_on,428,0,4,,,,,,,,3,,,48,0
218399,note_on,0,0,2,,,,,,,,1,,,60,0
218399,note_on,479,0,2,,,,,,,,1,,,62,0
218399,note_on,0,0,4,,,,,,,,3,,,50,0
218400,note_on,480,0,1,,,,,,,,0,,,55,95
218400,note_on,1,0,4,,,,,,,,3,,,43,94
218400,note_on,0,0,4,,,,,,,,3,,,47,94
218400,note_on,0,0,4,,,,,,,,3,,,50,94
218400,note_on,1,0,2,,,,,,,,1,,,62,97
218400,note_on,0,0,2,,,,,,,,1,,,59,97
218400,note_on,0,0,1,,,,,,,,0,,,67,95
218852,set_tempo,944,1,0,,,,,,520607,,,,,,
218879,note_on,479,0,4,,,,,,,,3,,,47,0
218879,note_on,0,0,4,,,,,,,,3,,,50,0
218879,note_on,479,0,2,,,,,,,,1,,,59,0
218879,note_on,0,0,4,,,,,,,,3,,,43,0
218879,note_on,0,0,2,,,,,,,,1,,,62,0
218880,control_change,0,0,2,,,,,,,,1,64,0,,
218880,note_on,0,0,2,,,,,,,,1,,,59,96
218880,note_on,0,0,4,,,,,,,,3,,,51,94
218880,note_on,0,0,4,,,,,,,,3,,,47,94
218880,note_on,1,0,4,,,,,,,,3,,,43,94
218880,control_change,480,0,1,,,,,,,,0,64,0,,
218880,note_on,1,0,2,,,,,,,,1,,,63,96
218931,control_change,51,0,4,,,,,,,,3,64,0,,
219150,set_tempo,298,1,0,,,,,,678963,,,,,,
219239,note_on,0,0,1,,,,,,,,0,,,55,0
219239,note_on,359,0,1,,,,,,,,0,,,67,0
219240,note_on,1,0,1,,,,,,,,0,,,55,86
219240,note_on,0,0,1,,,,,,,,0,,,67,86
219299,set_tempo,149,1,0,,,,,,682672,,,,,,
219312,note_on,0,0,2,,,,,,,,1,,,63,0
219312,note_on,432,0,2,,,,,,,,1,,,59,0
219312,note_on,381,0,4,,,,,,,,3,,,47,0
219312,note_on,0,0,4,,,,,,,,3,,,51,0
219312,note_on,0,0,4,,,,,,,,3,,,43,0
219342,set_tempo,43,1,0,,,,,,775896,,,,,,
219342,end_of_track,0,1,0,,,,,,,,,,,,
219348,note_on,108,0,1,,,,,,,,0,,,67,0
219348,note_on,0,0,1,,,,,,,,0,,,55,0
219360,control_change,48,0,2,,,,,,,,1,64,127,,
219360,control_change,48,0,4,,,,,,,,3,64,127,,
219360,note_on,0,0,4,,,,,,,,3,,,36,94
219360,note_on,0,0,4,,,,,,,,3,,,48,94
219360,note_on,0,0,1,,,,,,,,0,,,67,95
219360,control_change,12,0,1,,,,,,,,0,64,127,,
219360,note_on,0,0,1,,,,,,,,0,,,55,95
219360,control_change,3144,0,3,,,,,,,,2,64,127,,
219360,note_on,0,0,4,,,,,,,,3,,,39,94
219360,note_on,0,0,2,,,,,,,,1,,,60,96
220199,note_on,0,0,4,,,,,,,,3,,,39,0
220199,note_on,0,0,4,,,,,,,,3,,,48,0
220199,note_on,839,0,4,,,,,,,,3,,,36,0
220200,note_on,840,0,3,,,,,,,,2,,,60,65
220200,note_on,840,0,2,,,,,,,,1,,,60,0
220200,note_on,1,0,4,,,,,,,,3,,,39,63
220200,note_on,0,0,4,,,,,,,,3,,,43,63
220200,note_on,0,0,4,,,,,,,,3,,,48,63
220200,note_on,0,0,4,,,,,,,,3,,,36,63
220200,note_on,0,0,3,,,,,,,,2,,,51,65
220200,note_on,0,0,3,,,,,,,,2,,,55,65
220224,note_on,864,0,1,,,,,,,,0,,,67,0
220224,note_on,0,0,1,,,,,,,,0,,,55,0
220319,note_on,0,0,4,,,,,,,,3,,,48,0
220319,note_on,0,0,4,,,,,,,,3,,,43,0
220319,note_on,119,0,4,,,,,,,,3,,,36,0
220319,note_on,0,0,4,,,,,,,,3,,,39,0
220319,note_on,0,0,3,,,,,,,,2,,,55,0
220319,note_on,0,0,3,,,,,,,,2,,,60,0
220319,note_on,119,0,3,,,,,,,,2,,,51,0
220320,note_on,1,0,4,,,,,,,,3,,,36,61
220320,note_on,0,0,4,,,,,,,,3,,,39,61
220320,end_of_track,0,1,1,,,,,,,,,,,,
220320,control_change,96,0,1,,,,,,,,0,64,0,,
220320,control_change,0,0,4,,,,,,,,3,64,0,,
220320,note_on,0,0,4,,,,,,,,3,,,43,61
220320,end_of_track,0,1,2,,,,,,,,,,,,
220320,note_on,0,0,4,,,,,,,,3,,,48,61
220320,control_change,1,0,3,,,,,,,,2,64,0,,
220320,note_on,0,0,3,,,,,,,,2,,,55,63
220320,note_on,0,0,3,,,,,,,,2,,,51,63
220320,note_on,0,0,3,,,,,,,,2,,,60,63
220320,control_change,120,0,2,,,,,,,,1,64,0,,
220536,note_on,216,0,3,,,,,,,,2,,,60,0
220536,note_on,0,0,3,,,,,,,,2,,,51,0
220536,note_on,0,0,3,,,,,,,,2,,,55,0
220536,note_on,216,0,4,,,,,,,,3,,,43,0
220536,note_on,0,0,4,,,,,,,,3,,,36,0
220536,note_on,0,0,4,,,,,,,,3,,,39,0
220536,note_on,0,0,4,,,,,,,,3,,,48,0
220800,note_on,0,0,4,,,,,,,,3,,,48,55
220800,note_on,0,0,4,,,,,,,,3,,,39,55
220800,note_on,0,0,3,,,,,,,,2,,,51,56
220800,note_on,0,0,3,,,,,,,,2,,,55,56
220800,control_change,264,0,3,,,,,,,,2,64,127,,
220800,note_on,264,0,4,,,,,,,,3,,,36,55
220800,note_on,0,0,3,,,,,,,,2,,,60,56
220817,control_change,17,0,4,,,,,,,,3,64,127,,
221639,note_on,822,0,4,,,,,,,,3,,,48,0
221639,note_on,0,0,3,,,,,,,,2,,,60,0
221639,note_on,0,0,3,,,,,,,,2,,,55,0
221639,note_on,839,0,3,,,,,,,,2,,,51,0
221639,note_on,0,0,4,,,,,,,,3,,,36,0
221639,note_on,0,0,4,,,,,,,,3,,,39,0
221640,note_on,0,0,3,,,,,,,,2,,,51,44
221640,note_on,0,0,3,,,,,,,,2,,,55,44
221640,note_on,1,0,3,,,,,,,,2,,,60,44
221640,note_on,0,0,4,,,,,,,,3,,,39,44
221640,note_on,0,0,4,,,,,,,,3,,,48,44
221640,note_on,0,0,4,,,,,,,,3,,,43,44
221640,note_on,1,0,4,,,,,,,,3,,,36,44
221759,note_on,0,0,4,,,,,,,,3,,,43,0
221759,note_on,119,0,4,,,,,,,,3,,,39,0
221759,note_on,0,0,4,,,,,,,,3,,,48,0
221759,note_on,0,0,4,,,,,,,,3,,,36,0
221759,note_on,0,0,3,,,,,,,,2,,,60,0
221759,note_on,0,0,3,,,,,,,,2,,,55,0
221759,note_on,119,0,3,,,,,,,,2,,,51,0
221760,note_on,1,0,4,,,,,,,,3,,,36,42
221760,note_on,0,0,4,,,,,,,,3,,,39,42
221760,note_on,0,0,4,,,,,,,,3,,,48,42
221760,note_on,0,0,4,,,,,,,,3,,,43,42
221760,control_change,1,0,3,,,,,,,,2,64,0,,
221760,note_on,0,0,3,,,,,,,,2,,,55,42
221760,note_on,0,0,3,,,,,,,,2,,,51,42
221760,note_on,0,0,3,,,,,,,,2,,,60,42
221777,control_change,17,0,4,,,,,,,,3,64,0,,
221976,note_on,0,0,3,,,,,,,,2,,,55,0
221976,note_on,216,0,3,,,,,,,,2,,,51,0
221976,note_on,0,0,4,,,,,,,,3,,,48,0
221976,note_on,0,0,4,,,,,,,,3,,,43,0
221976,note_on,0,0,4,,,,,,,,3,,,36,0
221976,note_on,199,0,4,,,,,,,,3,,,39,0
221976,note_on,0,0,3,,,,,,,,2,,,60,0
222240,control_change,0,0,4,,,,,,,,3,64,127,,
222240,note_on,0,0,4,,,,,,,,3,,,43,36
222240,note_on,264,0,4,,,,,,,,3,,,48,36
222240,note_on,0,0,4,,,,,,,,3,,,39,36
222240,note_on,0,0,3,,,,,,,,2,,,51,35
222240,note_on,0,0,3,,,,,,,,2,,,55,35
222240,note_on,0,0,4,,,,,,,,3,,,36,36
222240,note_on,0,0,3,,,,,,,,2,,,60,35
222240,control_change,264,0,3,,,,,,,,2,64,127,,
223200,control_change,960,0,3,,,,,,,,2,64,0,,
223200,control_change,960,0,4,,,,,,,,3,64,0,,
224976,note_on,1776,0,4,,,,,,,,3,,,39,0
224976,note_on,0,0,4,,,,,,,,3,,,43,0
224976,note_on,0,0,4,,,,,,,,3,,,48,0
224976,end_of_track,0,1,3,,,,,,,,,,,,
224976,note_on,1776,0,3,,,,,,,,2,,,51,0
224976,note_on,0,0,3,,,,,,,,2,,,55,0
224976,note_on,0,0,3,,,,,,,,2,,,60,0
224976,note_on,0,0,4,,,,,,,,3,,,36,0
224976,end_of_track,0,1,4,,,,,,,,,,,,
