tick,type,time,meta,track,numerator,denominator,clocks_per_click,notated_32nd_notes_per_beat,key,tempo,program,channel,control,value,note,velocity
0,track_name,0,1,0,,,,,,,,,,,,
0,note_on,0,0,4,,,,,,,,3,,,43,64
0,track_name,0,1,1,,,,,,,,,,,,
0,program_change,0,0,1,,,,,,,0,0,,,,
0,control_change,0,0,1,,,,,,,,0,7,127,,
0,control_change,0,0,1,,,,,,,,0,10,110,,
0,control_change,0,0,1,,,,,,,,0,11,127,,
0,control_change,0,0,4,,,,,,,,3,93,0,,
0,control_change,0,0,1,,,,,,,,0,93,38,,
0,control_change,0,0,3,,,,,,,,2,93,0,,
0,track_name,0,1,2,,,,,,,,,,,,
0,program_change,0,0,2,,,,,,,0,1,,,,
0,control_change,0,0,2,,,,,,,,1,7,127,,
0,control_change,0,0,2,,,,,,,,1,10,80,,
0,control_change,0,0,2,,,,,,,,1,11,127,,
0,control_change,0,0,1,,,,,,,,0,91,74,,
0,control_change,0,0,4,,,,,,,,3,91,60,,
0,control_change,0,0,4,,,,,,,,3,11,127,,
0,control_change,0,0,4,,,,,,,,3,10,20,,
0,text,0,1,0,,,,,,,,,,,,
0,text,0,1,0,,,,,,,,,,,,
0,text,0,1,0,,,,,,,,,,,,
0,text,0,1,0,,,,,,,,,,,,
0,time_signature,0,1,0,4,4,24,8,,,,,,,,
0,key_signature,0,1,0,,,,,C,,,,,,,
0,set_tempo,0,1,0,,,,,,600000,,,,,,
0,control_change,0,0,3,,,,,,,,2,11,127,,
0,control_change,0,0,3,,,,,,,,2,10,40,,
0,control_change,0,0,3,,,,,,,,2,7,127,,
0,program_change,0,0,3,,,,,,,0,2,,,,
0,track_name,0,1,3,,,,,,,,,,,,
0,track_name,0,1,4,,,,,,,,,,,,
0,program_change,0,0,4,,,,,,,0,3,,,,
0,control_change,0,0,4,,,,,,,,3,7,127,,
0,control_change,0,0,2,,,,,,,,1,93,38,,
0,control_change,0,0,2,,,,,,,,1,91,74,,
48,control_change,48,0,3,,,,,,,,2,91,64,,
95,note_on,95,0,4,,,,,,,,3,,,43,0
137,control_change,137,0,1,,,,,,,,0,64,127,,
240,note_on,145,0,4,,,,,,,,3,,,59,33
240,note_on,0,0,1,,,,,,,,0,,,71,64
240,note_on,0,0,1,,,,,,,,0,,,67,64
240,note_on,103,0,1,,,,,,,,0,,,62,64
479,note_on,239,0,4,,,,,,,,3,,,59,0
480,note_on,1,0,4,,,,,,,,3,,,55,33
480,note_on,0,0,4,,,,,,,,3,,,50,33
719,note_on,479,0,1,,,,,,,,0,,,71,0
719,note_on,239,0,4,,,,,,,,3,,,50,0
719,note_on,0,0,4,,,,,,,,3,,,55,0
719,note_on,0,0,1,,,,,,,,0,,,67,0
719,note_on,0,0,1,,,,,,,,0,,,62,0
720,note_on,0,0,1,,,,,,,,0,,,67,64
720,note_on,0,0,1,,,,,,,,0,,,71,64
720,note_on,1,0,1,,,,,,,,0,,,62,64
720,note_on,1,0,4,,,,,,,,3,,,59,33
959,note_on,0,0,1,,,,,,,,0,,,62,0
959,note_on,239,0,4,,,,,,,,3,,,59,0
959,note_on,0,0,1,,,,,,,,0,,,67,0
959,note_on,239,0,1,,,,,,,,0,,,71,0
960,note_on,1,0,4,,,,,,,,3,,,47,33
960,note_on,0,0,1,,,,,,,,0,,,74,76
960,note_on,0,0,1,,,,,,,,0,,,67,76
960,note_on,1,0,1,,,,,,,,0,,,62,76
1055,note_on,95,0,4,,,,,,,,3,,,47,0
1097,control_change,137,0,1,,,,,,,,0,64,0,,
1151,note_on,0,0,1,,,,,,,,0,,,62,0
1151,note_on,0,0,1,,,,,,,,0,,,67,0
1151,note_on,54,0,1,,,,,,,,0,,,74,0
1200,note_on,145,0,4,,,,,,,,3,,,59,33
1439,note_on,239,0,4,,,,,,,,3,,,59,0
1440,note_on,0,0,1,,,,,,,,0,,,67,64
1440,note_on,289,0,1,,,,,,,,0,,,62,64
1440,note_on,0,0,4,,,,,,,,3,,,50,33
1440,note_on,0,0,1,,,,,,,,0,,,74,64
1440,note_on,1,0,4,,,,,,,,3,,,55,33
1612,note_on,0,0,1,,,,,,,,0,,,62,0
1612,note_on,172,0,1,,,,,,,,0,,,74,0
1612,note_on,0,0,1,,,,,,,,0,,,67,0
1679,note_on,0,0,4,,,,,,,,3,,,55,0
1679,note_on,239,0,4,,,,,,,,3,,,50,0
1680,note_on,1,0,4,,,,,,,,3,,,59,33
1896,note_on,216,0,4,,,,,,,,3,,,59,0
1920,note_on,24,0,4,,,,,,,,3,,,45,54
2015,note_on,95,0,4,,,,,,,,3,,,45,0
2091,control_change,479,0,1,,,,,,,,0,64,127,,
2160,note_on,69,0,1,,,,,,,,0,,,62,64
2160,note_on,145,0,4,,,,,,,,3,,,60,33
2160,note_on,0,0,1,,,,,,,,0,,,72,64
2160,note_on,0,0,1,,,,,,,,0,,,66,64
2399,note_on,239,0,4,,,,,,,,3,,,60,0
2400,note_on,0,0,4,,,,,,,,3,,,50,33
2400,note_on,1,0,4,,,,,,,,3,,,54,33
2639,note_on,0,0,4,,,,,,,,3,,,54,0
2639,note_on,239,0,4,,,,,,,,3,,,50,0
2639,note_on,479,0,1,,,,,,,,0,,,72,0
2639,note_on,0,0,1,,,,,,,,0,,,66,0
2639,note_on,0,0,1,,,,,,,,0,,,62,0
2640,note_on,1,0,4,,,,,,,,3,,,60,33
2640,note_on,1,0,1,,,,,,,,0,,,62,64
2640,note_on,0,0,1,,,,,,,,0,,,66,64
2640,note_on,0,0,1,,,,,,,,0,,,72,64
2879,note_on,0,0,1,,,,,,,,0,,,66,0
2879,note_on,239,0,1,,,,,,,,0,,,72,0
2879,note_on,239,0,4,,,,,,,,3,,,60,0
2879,note_on,0,0,1,,,,,,,,0,,,62,0
2880,note_on,0,0,1,,,,,,,,0,,,72,74
2880,note_on,1,0,1,,,,,,,,0,,,74,74
2880,note_on,0,0,1,,,,,,,,0,,,62,74
2880,note_on,1,0,4,,,,,,,,3,,,38,33
2880,note_on,0,0,1,,,,,,,,0,,,66,74
2975,note_on,95,0,4,,,,,,,,3,,,38,0
3051,control_change,171,0,1,,,,,,,,0,64,0,,
3071,note_on,0,0,1,,,,,,,,0,,,66,0
3071,note_on,0,0,1,,,,,,,,0,,,74,0
3071,note_on,20,0,1,,,,,,,,0,,,62,0
3120,note_on,145,0,4,,,,,,,,3,,,60,33
3359,note_on,288,0,1,,,,,,,,0,,,72,0
3359,note_on,239,0,4,,,,,,,,3,,,60,0
3360,note_on,1,0,1,,,,,,,,0,,,74,64
3360,note_on,0,0,1,,,,,,,,0,,,72,64
3360,note_on,0,0,1,,,,,,,,0,,,66,64
3360,note_on,0,0,1,,,,,,,,0,,,62,64
3360,note_on,1,0,4,,,,,,,,3,,,57,33
3360,note_on,0,0,4,,,,,,,,3,,,50,33
3532,note_on,0,0,1,,,,,,,,0,,,72,0
3532,note_on,0,0,1,,,,,,,,0,,,66,0
3532,note_on,0,0,1,,,,,,,,0,,,74,0
3532,note_on,172,0,1,,,,,,,,0,,,62,0
3599,note_on,0,0,4,,,,,,,,3,,,57,0
3599,note_on,239,0,4,,,,,,,,3,,,50,0
3600,note_on,1,0,4,,,,,,,,3,,,60,33
3816,note_on,216,0,4,,,,,,,,3,,,60,0
3840,control_change,308,0,1,,,,,,,,0,64,127,,
3840,note_on,24,0,4,,,,,,,,3,,,43,54
3935,note_on,95,0,4,,,,,,,,3,,,43,0
4080,note_on,145,0,4,,,,,,,,3,,,59,32
4080,note_on,0,0,1,,,,,,,,0,,,71,64
4080,note_on,240,0,1,,,,,,,,0,,,62,64
4080,note_on,0,0,1,,,,,,,,0,,,67,64
4319,note_on,239,0,4,,,,,,,,3,,,59,0
4320,note_on,1,0,4,,,,,,,,3,,,55,32
4320,note_on,0,0,4,,,,,,,,3,,,50,32
4559,note_on,479,0,1,,,,,,,,0,,,71,0
4559,note_on,0,0,1,,,,,,,,0,,,67,0
4559,note_on,0,0,1,,,,,,,,0,,,62,0
4559,note_on,0,0,4,,,,,,,,3,,,55,0
4559,note_on,239,0,4,,,,,,,,3,,,50,0
4560,note_on,1,0,4,,,,,,,,3,,,59,32
4560,note_on,1,0,1,,,,,,,,0,,,62,64
4560,note_on,0,0,1,,,,,,,,0,,,67,64
4560,note_on,0,0,1,,,,,,,,0,,,71,64
4799,note_on,0,0,1,,,,,,,,0,,,67,0
4799,note_on,239,0,1,,,,,,,,0,,,71,0
4799,note_on,239,0,4,,,,,,,,3,,,59,0
4799,note_on,0,0,1,,,,,,,,0,,,62,0
4800,note_on,1,0,4,,,,,,,,3,,,47,32
4800,note_on,0,0,1,,,,,,,,0,,,79,75
4800,control_change,1,0,1,,,,,,,,0,64,0,,
4800,note_on,0,0,1,,,,,,,,0,,,67,75
4800,note_on,0,0,1,,,,,,,,0,,,74,75
4895,note_on,95,0,4,,,,,,,,3,,,47,0
4991,note_on,191,0,1,,,,,,,,0,,,67,0
4991,note_on,0,0,1,,,,,,,,0,,,74,0
4991,note_on,0,0,1,,,,,,,,0,,,79,0
5040,note_on,145,0,4,,,,,,,,3,,,59,32
5279,note_on,239,0,4,,,,,,,,3,,,59,0
5280,note_on,0,0,4,,,,,,,,3,,,50,32
5280,note_on,1,0,4,,,,,,,,3,,,55,32
5280,note_on,289,0,1,,,,,,,,0,,,79,64
5280,note_on,0,0,1,,,,,,,,0,,,67,64
5280,note_on,0,0,1,,,,,,,,0,,,74,64
5452,note_on,0,0,1,,,,,,,,0,,,79,0
5452,note_on,0,0,1,,,,,,,,0,,,74,0
5452,note_on,172,0,1,,,,,,,,0,,,67,0
5519,note_on,239,0,4,,,,,,,,3,,,50,0
5519,note_on,0,0,4,,,,,,,,3,,,55,0
5520,note_on,1,0,4,,,,,,,,3,,,59,31
5736,note_on,216,0,4,,,,,,,,3,,,59,0
5760,note_on,24,0,4,,,,,,,,3,,,38,53
5813,control_change,361,0,1,,,,,,,,0,64,127,,
5855,note_on,95,0,4,,,,,,,,3,,,38,0
6000,note_on,187,0,1,,,,,,,,0,,,62,64
6000,note_on,0,0,1,,,,,,,,0,,,69,64
6000,note_on,145,0,4,,,,,,,,3,,,57,31
6000,note_on,0,0,1,,,,,,,,0,,,66,64
6239,note_on,239,0,4,,,,,,,,3,,,57,0
6240,note_on,0,0,4,,,,,,,,3,,,50,31
6240,note_on,1,0,4,,,,,,,,3,,,54,31
6479,note_on,479,0,1,,,,,,,,0,,,69,0
6479,note_on,0,0,1,,,,,,,,0,,,66,0
6479,note_on,0,0,1,,,,,,,,0,,,62,0
6479,note_on,0,0,4,,,,,,,,3,,,54,0
6479,note_on,239,0,4,,,,,,,,3,,,50,0
6480,note_on,1,0,4,,,,,,,,3,,,57,31
6480,note_on,0,0,1,,,,,,,,0,,,66,64
6480,note_on,1,0,1,,,,,,,,0,,,62,64
6480,note_on,0,0,1,,,,,,,,0,,,69,64
6719,note_on,0,0,1,,,,,,,,0,,,66,0
6719,note_on,239,0,4,,,,,,,,3,,,57,0
6719,note_on,239,0,1,,,,,,,,0,,,69,0
6719,note_on,0,0,1,,,,,,,,0,,,62,0
6720,note_on,1,0,4,,,,,,,,3,,,43,31
6720,note_on,1,0,1,,,,,,,,0,,,62,73
6720,note_on,0,0,1,,,,,,,,0,,,67,73
6720,note_on,0,0,1,,,,,,,,0,,,71,73
6773,control_change,53,0,1,,,,,,,,0,64,0,,
6815,note_on,95,0,4,,,,,,,,3,,,43,0
6911,note_on,0,0,1,,,,,,,,0,,,62,0
6911,note_on,138,0,1,,,,,,,,0,,,71,0
6911,note_on,0,0,1,,,,,,,,0,,,67,0
6960,note_on,145,0,4,,,,,,,,3,,,59,31
7199,note_on,239,0,4,,,,,,,,3,,,59,0
7200,note_on,0,0,4,,,,,,,,3,,,50,31
7200,note_on,1,0,4,,,,,,,,3,,,55,31
7200,note_on,0,0,1,,,,,,,,0,,,71,64
7200,note_on,0,0,1,,,,,,,,0,,,67,64
7200,note_on,289,0,1,,,,,,,,0,,,62,64
7372,note_on,0,0,1,,,,,,,,0,,,62,0
7372,note_on,172,0,1,,,,,,,,0,,,71,0
7372,note_on,0,0,1,,,,,,,,0,,,67,0
7439,note_on,239,0,4,,,,,,,,3,,,50,0
7439,note_on,0,0,4,,,,,,,,3,,,55,0
7440,note_on,1,0,4,,,,,,,,3,,,59,31
7656,note_on,216,0,4,,,,,,,,3,,,59,0
7680,control_change,308,0,1,,,,,,,,0,64,127,,
7680,note_on,24,0,4,,,,,,,,3,,,38,53
7775,note_on,95,0,4,,,,,,,,3,,,38,0
7920,note_on,240,0,1,,,,,,,,0,,,66,64
7920,note_on,0,0,1,,,,,,,,0,,,69,64
7920,note_on,0,0,1,,,,,,,,0,,,74,64
7920,note_on,145,0,4,,,,,,,,3,,,57,31
8159,note_on,239,0,4,,,,,,,,3,,,57,0
8160,note_on,0,0,4,,,,,,,,3,,,50,33
8160,note_on,1,0,4,,,,,,,,3,,,54,33
8399,note_on,0,0,1,,,,,,,,0,,,66,0
8399,note_on,0,0,1,,,,,,,,0,,,69,0
8399,note_on,479,0,1,,,,,,,,0,,,74,0
8399,note_on,0,0,4,,,,,,,,3,,,54,0
8399,note_on,239,0,4,,,,,,,,3,,,50,0
8400,note_on,0,0,1,,,,,,,,0,,,74,64
8400,note_on,0,0,1,,,,,,,,0,,,69,64
8400,note_on,1,0,1,,,,,,,,0,,,66,64
8400,note_on,1,0,4,,,,,,,,3,,,57,33
8639,note_on,0,0,1,,,,,,,,0,,,69,0
8639,note_on,239,0,1,,,,,,,,0,,,74,0
8639,note_on,0,0,1,,,,,,,,0,,,66,0
8639,note_on,239,0,4,,,,,,,,3,,,57,0
8640,note_on,1,0,4,,,,,,,,3,,,43,33
8640,note_on,0,0,1,,,,,,,,0,,,62,73
8640,control_change,1,0,1,,,,,,,,0,64,0,,
8640,note_on,0,0,1,,,,,,,,0,,,71,73
8640,note_on,0,0,1,,,,,,,,0,,,67,73
8735,note_on,95,0,4,,,,,,,,3,,,43,0
8880,note_on,145,0,4,,,,,,,,3,,,59,32
9119,note_on,239,0,4,,,,,,,,3,,,59,0
9120,note_on,1,0,4,,,,,,,,3,,,55,32
9120,note_on,0,0,4,,,,,,,,3,,,50,32
9359,note_on,0,0,4,,,,,,,,3,,,55,0
9359,note_on,239,0,4,,,,,,,,3,,,50,0
9360,note_on,1,0,4,,,,,,,,3,,,59,32
9504,note_on,864,0,1,,,,,,,,0,,,71,0
9504,note_on,0,0,1,,,,,,,,0,,,67,0
9504,note_on,0,0,1,,,,,,,,0,,,62,0
9576,note_on,216,0,4,,,,,,,,3,,,59,0
9600,note_on,24,0,4,,,,,,,,3,,,43,54
9600,control_change,9600,0,2,,,,,,,,1,64,127,,
9613,control_change,109,0,1,,,,,,,,0,64,127,,
9651,control_change,51,0,4,,,,,,,,3,64,127,,
9669,control_change,9621,0,3,,,,,,,,2,64,127,,
9695,note_on,44,0,4,,,,,,,,3,,,43,0
9840,note_on,227,0,1,,,,,,,,0,,,74,64
9840,note_on,0,0,1,,,,,,,,0,,,71,64
9840,note_on,0,0,1,,,,,,,,0,,,67,64
9840,note_on,145,0,4,,,,,,,,3,,,59,32
9840,note_on,171,0,3,,,,,,,,2,,,59,64
10079,note_on,239,0,4,,,,,,,,3,,,59,0
10080,note_on,1,0,4,,,,,,,,3,,,55,32
10080,note_on,0,0,4,,,,,,,,3,,,50,32
10319,note_on,239,0,4,,,,,,,,3,,,50,0
10319,note_on,479,0,1,,,,,,,,0,,,67,0
10319,note_on,0,0,1,,,,,,,,0,,,71,0
10319,note_on,0,0,4,,,,,,,,3,,,55,0
10319,note_on,0,0,1,,,,,,,,0,,,74,0
10319,note_on,479,0,3,,,,,,,,2,,,59,0
10320,note_on,1,0,1,,,,,,,,0,,,74,64
10320,note_on,0,0,1,,,,,,,,0,,,71,64
10320,note_on,0,0,1,,,,,,,,0,,,67,64
10320,note_on,1,0,3,,,,,,,,2,,,59,56
10320,note_on,1,0,4,,,,,,,,3,,,59,32
10513,set_tempo,10513,1,0,,,,,,685558,,,,,,
10559,note_on,239,0,3,,,,,,,,2,,,59,0
10559,note_on,0,0,1,,,,,,,,0,,,74,0
10559,note_on,0,0,1,,,,,,,,0,,,71,0
10559,note_on,239,0,4,,,,,,,,3,,,59,0
10559,note_on,239,0,1,,,,,,,,0,,,67,0
10560,note_on,1,0,4,,,,,,,,3,,,47,32
10560,note_on,1,0,3,,,,,,,,2,,,62,64
10560,note_on,0,0,2,,,,,,,,1,,,67,64
10560,control_change,960,0,2,,,,,,,,1,64,0,,
10560,note_on,1,0,1,,,,,,,,0,,,74,64
10573,control_change,13,0,1,,,,,,,,0,64,0,,
10611,control_change,51,0,4,,,,,,,,3,64,0,,
10629,control_change,69,0,3,,,,,,,,2,64,0,,
10655,note_on,44,0,4,,,,,,,,3,,,47,0
10663,control_change,103,0,2,,,,,,,,1,64,127,,
10663,control_change,8,0,4,,,,,,,,3,64,127,,
10680,control_change,107,0,1,,,,,,,,0,64,127,,
10766,control_change,137,0,3,,,,,,,,2,64,127,,
10800,note_on,137,0,4,,,,,,,,3,,,59,31
10919,note_on,239,0,1,,,,,,,,0,,,74,0
10920,note_on,1,0,1,,,,,,,,0,,,76,56
11022,set_tempo,509,1,0,,,,,,620861,,,,,,
11039,note_on,119,0,1,,,,,,,,0,,,76,0
11039,note_on,239,0,4,,,,,,,,3,,,59,0
11040,note_on,1,0,4,,,,,,,,3,,,55,31
11040,note_on,0,0,4,,,,,,,,3,,,50,31
11040,note_on,1,0,1,,,,,,,,0,,,74,70
11208,note_on,545,0,2,,,,,,,,1,,,67,0
11256,note_on,216,0,1,,,,,,,,0,,,74,0
11279,note_on,513,0,3,,,,,,,,2,,,62,0
11279,note_on,239,0,4,,,,,,,,3,,,50,0
11279,note_on,0,0,4,,,,,,,,3,,,55,0
11280,note_on,1,0,3,,,,,,,,2,,,62,58
11280,note_on,1,0,4,,,,,,,,3,,,59,31
11417,control_change,137,0,3,,,,,,,,2,64,0,,
11467,control_change,211,0,1,,,,,,,,0,64,0,,
11469,set_tempo,447,1,0,,,,,,685558,,,,,,
11469,control_change,189,0,4,,,,,,,,3,64,0,,
11496,note_on,79,0,3,,,,,,,,2,,,62,0
11496,note_on,27,0,4,,,,,,,,3,,,59,0
11520,note_on,53,0,1,,,,,,,,0,,,60,68
11520,note_on,24,0,3,,,,,,,,2,,,60,64
11520,note_on,24,0,4,,,,,,,,3,,,42,52
11600,note_on,80,0,1,,,,,,,,0,,,69,72
11615,note_on,95,0,4,,,,,,,,3,,,42,0
11623,control_change,415,0,2,,,,,,,,1,64,0,,
11680,note_on,80,0,1,,,,,,,,0,,,74,78
11760,note_on,145,0,4,,,,,,,,3,,,50,32
11760,note_on,0,0,4,,,,,,,,3,,,57,32
11816,set_tempo,347,1,0,,,,,,681818,,,,,,
11949,set_tempo,133,1,0,,,,,,733855,,,,,,
11965,set_tempo,16,1,0,,,,,,725338,,,,,,
11999,note_on,319,0,1,,,,,,,,0,,,74,0
11999,note_on,0,0,1,,,,,,,,0,,,69,0
11999,note_on,0,0,1,,,,,,,,0,,,60,0
11999,note_on,239,0,4,,,,,,,,3,,,57,0
11999,note_on,0,0,4,,,,,,,,3,,,50,0
11999,note_on,479,0,3,,,,,,,,2,,,60,0
12000,note_on,1,0,1,,,,,,,,0,,,59,75
12000,note_on,1,0,4,,,,,,,,3,,,43,32
12000,note_on,1,0,3,,,,,,,,2,,,59,64
12080,note_on,80,0,1,,,,,,,,0,,,67,77
12095,note_on,95,0,4,,,,,,,,3,,,43,0
12160,note_on,80,0,1,,,,,,,,0,,,74,80
12240,note_on,0,0,4,,,,,,,,3,,,55,32
12240,note_on,145,0,4,,,,,,,,3,,,50,32
12379,set_tempo,414,1,0,,,,,,733855,,,,,,
12396,set_tempo,17,1,0,,,,,,738189,,,,,,
12412,set_tempo,16,1,0,,,,,,747012,,,,,,
12429,set_tempo,17,1,0,,,,,,751503,,,,,,
12445,set_tempo,16,1,0,,,,,,756048,,,,,,
12462,set_tempo,17,1,0,,,,,,765306,,,,,,
12478,set_tempo,16,1,0,,,,,,770021,,,,,,
12479,note_on,0,0,4,,,,,,,,3,,,50,0
12479,note_on,319,0,1,,,,,,,,0,,,74,0
12479,note_on,0,0,1,,,,,,,,0,,,59,0
12479,note_on,0,0,1,,,,,,,,0,,,67,0
12479,note_on,479,0,3,,,,,,,,2,,,59,0
12479,note_on,239,0,4,,,,,,,,3,,,55,0
12480,note_on,1,0,1,,,,,,,,0,,,57,71
12480,note_on,1,0,4,,,,,,,,3,,,38,33
12480,note_on,1,0,3,,,,,,,,2,,,57,64
12495,set_tempo,17,1,0,,,,,,779626,,,,,,
12560,note_on,80,0,1,,,,,,,,0,,,66,77
12575,note_on,95,0,4,,,,,,,,3,,,38,0
12640,note_on,80,0,1,,,,,,,,0,,,74,80
12712,note_on,72,0,1,,,,,,,,0,,,74,0
12712,note_on,0,0,1,,,,,,,,0,,,66,0
12712,note_on,0,0,1,,,,,,,,0,,,57,0
12720,note_on,145,0,4,,,,,,,,3,,,54,33
12793,set_tempo,298,1,0,,,,,,770021,,,,,,
12912,note_on,432,0,3,,,,,,,,2,,,57,0
12959,note_on,239,0,4,,,,,,,,3,,,54,0
12960,note_on,1,0,4,,,,,,,,3,,,50,31
13024,set_tempo,231,1,0,,,,,,765306,,,,,,
13058,set_tempo,34,1,0,,,,,,774793,,,,,,
13199,note_on,239,0,4,,,,,,,,3,,,50,0
13200,note_on,1,0,4,,,,,,,,3,,,54,31
13405,set_tempo,347,1,0,,,,,,656743,,,,,,
13416,note_on,216,0,4,,,,,,,,3,,,54,0
13440,control_change,24,0,4,,,,,,,,3,64,127,,
13440,note_on,0,0,4,,,,,,,,3,,,36,53
13440,control_change,728,0,1,,,,,,,,0,64,127,,
13474,control_change,562,0,3,,,,,,,,2,64,127,,
13504,set_tempo,99,1,0,,,,,,653310,,,,,,
13535,note_on,95,0,4,,,,,,,,3,,,36,0
13670,set_tempo,166,1,0,,,,,,627090,,,,,,
13680,note_on,206,0,3,,,,,,,,2,,,57,64
13680,note_on,240,0,1,,,,,,,,0,,,67,64
13680,note_on,0,0,1,,,,,,,,0,,,69,64
13680,note_on,0,0,1,,,,,,,,0,,,76,64
13680,note_on,145,0,4,,,,,,,,3,,,57,31
13919,note_on,239,0,4,,,,,,,,3,,,57,0
13920,note_on,0,0,4,,,,,,,,3,,,52,31
13920,note_on,1,0,4,,,,,,,,3,,,55,31
14159,note_on,479,0,1,,,,,,,,0,,,76,0
14159,note_on,0,0,1,,,,,,,,0,,,69,0
14159,note_on,0,0,1,,,,,,,,0,,,67,0
14159,note_on,0,0,4,,,,,,,,3,,,55,0
14159,note_on,239,0,4,,,,,,,,3,,,52,0
14159,note_on,479,0,3,,,,,,,,2,,,57,0
14160,note_on,1,0,3,,,,,,,,2,,,57,57
14160,note_on,0,0,1,,,,,,,,0,,,76,64
14160,note_on,1,0,4,,,,,,,,3,,,57,31
14160,note_on,0,0,1,,,,,,,,0,,,69,64
14160,note_on,1,0,1,,,,,,,,0,,,67,64
14364,set_tempo,694,1,0,,,,,,627090,,,,,,
14399,note_on,0,0,1,,,,,,,,0,,,69,0
14399,note_on,239,0,3,,,,,,,,2,,,57,0
14399,note_on,239,0,4,,,,,,,,3,,,57,0
14399,note_on,239,0,1,,,,,,,,0,,,76,0
14399,note_on,0,0,1,,,,,,,,0,,,67,0
14400,note_on,0,0,4,,,,,,,,3,,,38,31
14400,control_change,1,0,4,,,,,,,,3,64,0,,
14400,control_change,1,0,1,,,,,,,,0,64,0,,
14400,note_on,0,0,1,,,,,,,,0,,,74,64
14400,note_on,0,0,2,,,,,,,,1,,,69,64
14400,control_change,2777,0,2,,,,,,,,1,64,127,,
14400,note_on,1,0,3,,,,,,,,2,,,60,64
14400,note_on,0,0,2,,,,,,,,1,,,66,64
14434,control_change,34,0,3,,,,,,,,2,64,0,,
14451,control_change,51,0,1,,,,,,,,0,64,127,,
14451,control_change,51,0,4,,,,,,,,3,64,127,,
14486,control_change,52,0,3,,,,,,,,2,64,127,,
14495,note_on,44,0,4,,,,,,,,3,,,38,0
14640,note_on,145,0,4,,,,,,,,3,,,57,31
14680,set_tempo,316,1,0,,,,,,700935,,,,,,
14759,note_on,308,0,1,,,,,,,,0,,,74,0
14760,note_on,1,0,1,,,,,,,,0,,,76,64
14879,note_on,119,0,1,,,,,,,,0,,,76,0
14879,note_on,239,0,4,,,,,,,,3,,,57,0
14880,note_on,1,0,1,,,,,,,,0,,,74,70
14880,note_on,0,0,4,,,,,,,,3,,,50,31
14880,note_on,1,0,4,,,,,,,,3,,,54,31
15048,note_on,0,0,2,,,,,,,,1,,,66,0
15048,note_on,648,0,2,,,,,,,,1,,,69,0
15096,note_on,216,0,1,,,,,,,,0,,,74,0
15119,note_on,239,0,4,,,,,,,,3,,,50,0
15119,note_on,0,0,4,,,,,,,,3,,,54,0
15119,note_on,633,0,3,,,,,,,,2,,,60,0
15120,note_on,1,0,4,,,,,,,,3,,,57,31
15120,note_on,1,0,3,,,,,,,,2,,,60,55
15171,control_change,123,0,2,,,,,,,,1,64,0,,
15336,note_on,216,0,3,,,,,,,,2,,,60,0
15336,note_on,216,0,4,,,,,,,,3,,,57,0
15360,note_on,24,0,4,,,,,,,,3,,,47,57
15360,note_on,24,0,3,,,,,,,,2,,,59,64
15366,set_tempo,686,1,0,,,,,,627090,,,,,,
15411,control_change,51,0,4,,,,,,,,3,64,0,,
15411,control_change,315,0,1,,,,,,,,0,64,0,,
15446,control_change,86,0,3,,,,,,,,2,64,0,,
15455,note_on,44,0,4,,,,,,,,3,,,47,0
15600,note_on,145,0,4,,,,,,,,3,,,59,31
15600,note_on,189,0,1,,,,,,,,0,,,74,64
15600,note_on,0,0,1,,,,,,,,0,,,67,64
15792,note_on,346,0,3,,,,,,,,2,,,59,0
15829,set_tempo,463,1,0,,,,,,602894,,,,,,
15839,note_on,239,0,4,,,,,,,,3,,,59,0
15840,note_on,0,0,4,,,,,,,,3,,,50,31
15840,note_on,1,0,4,,,,,,,,3,,,55,31
16079,note_on,0,0,4,,,,,,,,3,,,55,0
16079,note_on,239,0,4,,,,,,,,3,,,50,0
16079,note_on,0,0,1,,,,,,,,0,,,74,0
16079,note_on,479,0,1,,,,,,,,0,,,67,0
16080,note_on,1,0,4,,,,,,,,3,,,59,31
16080,note_on,1,0,1,,,,,,,,0,,,74,76
16080,note_on,0,0,1,,,,,,,,0,,,71,76
16319,note_on,0,0,1,,,,,,,,0,,,74,0
16319,note_on,239,0,1,,,,,,,,0,,,71,0
16319,note_on,239,0,4,,,,,,,,3,,,59,0
16320,note_on,1,0,1,,,,,,,,0,,,74,93
16320,note_on,1,0,4,,,,,,,,3,,,59,31
16559,note_on,239,0,4,,,,,,,,3,,,59,0
16560,note_on,1,0,4,,,,,,,,3,,,62,31
16679,note_on,359,0,1,,,,,,,,0,,,74,0
16680,note_on,1,0,1,,,,,,,,0,,,76,80
16799,note_on,119,0,1,,,,,,,,0,,,76,0
16799,note_on,239,0,4,,,,,,,,3,,,62,0
16800,note_on,1,0,4,,,,,,,,3,,,57,31
16800,note_on,1,0,1,,,,,,,,0,,,74,64
16800,note_on,1629,0,2,,,,,,,,1,,,72,64
17039,note_on,239,0,1,,,,,,,,0,,,74,0
17039,note_on,239,0,4,,,,,,,,3,,,57,0
17040,note_on,1,0,4,,,,,,,,3,,,62,31
17040,note_on,1,0,1,,,,,,,,0,,,78,64
17232,note_on,432,0,2,,,,,,,,1,,,72,0
17253,set_tempo,1424,1,0,,,,,,620861,,,,,,
17256,note_on,216,0,4,,,,,,,,3,,,62,0
17256,note_on,216,0,1,,,,,,,,0,,,78,0
17280,control_change,24,0,1,,,,,,,,0,64,127,,
17280,note_on,0,0,1,,,,,,,,0,,,79,64
17280,control_change,48,0,2,,,,,,,,1,64,127,,
17280,note_on,0,0,2,,,,,,,,1,,,71,64
17280,note_on,0,0,4,,,,,,,,3,,,43,55
17280,control_change,24,0,4,,,,,,,,3,64,127,,
17375,note_on,95,0,4,,,,,,,,3,,,43,0
17400,control_change,1608,0,3,,,,,,,,2,64,127,,
17519,note_on,239,0,1,,,,,,,,0,,,79,0
17519,note_on,239,0,2,,,,,,,,1,,,71,0
17520,note_on,145,0,4,,,,,,,,3,,,59,55
17520,note_on,120,0,3,,,,,,,,2,,,59,64
17520,note_on,0,0,1,,,,,,,,0,,,71,64
17520,note_on,1,0,1,,,,,,,,0,,,74,64
17520,note_on,1,0,2,,,,,,,,1,,,67,64
17759,note_on,239,0,4,,,,,,,,3,,,59,0
17760,note_on,1,0,4,,,,,,,,3,,,55,31
17760,note_on,0,0,4,,,,,,,,3,,,50,31
17999,note_on,239,0,4,,,,,,,,3,,,50,0
17999,note_on,0,0,1,,,,,,,,0,,,74,0
17999,note_on,479,0,2,,,,,,,,1,,,67,0
17999,note_on,0,0,4,,,,,,,,3,,,55,0
17999,note_on,479,0,3,,,,,,,,2,,,59,0
17999,note_on,479,0,1,,,,,,,,0,,,71,0
18000,note_on,1,0,1,,,,,,,,0,,,74,64
18000,note_on,0,0,1,,,,,,,,0,,,71,64
18000,note_on,1,0,4,,,,,,,,3,,,59,31
18000,note_on,1,0,2,,,,,,,,1,,,67,64
18000,note_on,1,0,3,,,,,,,,2,,,59,57
18154,control_change,154,0,1,,,,,,,,0,64,0,,
18223,control_change,69,0,1,,,,,,,,0,64,127,,
18239,note_on,239,0,3,,,,,,,,2,,,59,0
18239,note_on,239,0,4,,,,,,,,3,,,59,0
18239,note_on,16,0,1,,,,,,,,0,,,71,0
18239,note_on,239,0,2,,,,,,,,1,,,67,0
18239,note_on,0,0,1,,,,,,,,0,,,74,0
18240,note_on,0,0,4,,,,,,,,3,,,47,31
18240,note_on,0,0,2,,,,,,,,1,,,67,64
18240,control_change,1,0,2,,,,,,,,1,64,0,,
18240,note_on,1,0,1,,,,,,,,0,,,74,64
18240,control_change,1,0,4,,,,,,,,3,64,0,,
18240,note_on,1,0,3,,,,,,,,2,,,62,64
18291,control_change,51,0,2,,,,,,,,1,64,127,,
18291,control_change,51,0,4,,,,,,,,3,64,127,,
18335,note_on,44,0,4,,,,,,,,3,,,47,0
18360,control_change,120,0,3,,,,,,,,2,64,0,,
18395,set_tempo,1142,1,0,,,,,,697026,,,,,,
18429,control_change,69,0,3,,,,,,,,2,64,127,,
18480,note_on,145,0,4,,,,,,,,3,,,59,31
18599,note_on,359,0,1,,,,,,,,0,,,74,0
18600,note_on,1,0,1,,,,,,,,0,,,76,64
18719,note_on,239,0,4,,,,,,,,3,,,59,0
18719,note_on,119,0,1,,,,,,,,0,,,76,0
18720,note_on,0,0,4,,,,,,,,3,,,50,31
18720,note_on,1,0,4,,,,,,,,3,,,55,31
18720,note_on,1,0,1,,,,,,,,0,,,74,68
18888,note_on,597,0,2,,,,,,,,1,,,67,0
18924,set_tempo,529,1,0,,,,,,627090,,,,,,
18936,note_on,216,0,1,,,,,,,,0,,,74,0
18959,note_on,530,0,3,,,,,,,,2,,,62,0
18959,note_on,239,0,4,,,,,,,,3,,,50,0
18959,note_on,0,0,4,,,,,,,,3,,,55,0
18960,note_on,1,0,4,,,,,,,,3,,,59,31
18960,note_on,1,0,3,,,,,,,,2,,,62,64
19029,control_change,93,0,1,,,,,,,,0,64,0,,
19057,set_tempo,133,1,0,,,,,,627090,,,,,,
19080,control_change,120,0,3,,,,,,,,2,64,0,,
19176,note_on,216,0,4,,,,,,,,3,,,59,0
19176,note_on,96,0,3,,,,,,,,2,,,62,0
19200,note_on,0,0,1,,,,,,,,0,,,60,63
19200,control_change,171,0,1,,,,,,,,0,64,127,,
19200,note_on,24,0,4,,,,,,,,3,,,42,56
19200,note_on,24,0,3,,,,,,,,2,,,60,64
19251,control_change,363,0,2,,,,,,,,1,64,0,,
19251,control_change,51,0,4,,,,,,,,3,64,0,,
19280,note_on,80,0,1,,,,,,,,0,,,69,70
19295,note_on,44,0,4,,,,,,,,3,,,42,0
19360,note_on,80,0,1,,,,,,,,0,,,76,81
19440,note_on,145,0,4,,,,,,,,3,,,50,35
19440,note_on,0,0,4,,,,,,,,3,,,57,35
19636,set_tempo,579,1,0,,,,,,623960,,,,,,
19679,note_on,319,0,1,,,,,,,,0,,,76,0
19679,note_on,0,0,1,,,,,,,,0,,,69,0
19679,note_on,0,0,1,,,,,,,,0,,,60,0
19679,note_on,479,0,3,,,,,,,,2,,,60,0
19679,note_on,0,0,4,,,,,,,,3,,,50,0
19679,note_on,239,0,4,,,,,,,,3,,,57,0
19680,note_on,1,0,3,,,,,,,,2,,,59,64
19680,note_on,1,0,1,,,,,,,,0,,,59,71
19680,note_on,1,0,4,,,,,,,,3,,,43,35
19760,note_on,80,0,1,,,,,,,,0,,,67,74
19775,note_on,95,0,4,,,,,,,,3,,,43,0
19840,note_on,80,0,1,,,,,,,,0,,,74,80
19920,note_on,145,0,4,,,,,,,,3,,,50,35
19920,note_on,0,0,4,,,,,,,,3,,,55,35
19984,set_tempo,348,1,0,,,,,,559701,,,,,,
20000,set_tempo,16,1,0,,,,,,562219,,,,,,
20017,set_tempo,17,1,0,,,,,,564759,,,,,,
20033,set_tempo,16,1,0,,,,,,567322,,,,,,
20050,set_tempo,17,1,0,,,,,,569909,,,,,,
20067,set_tempo,17,1,0,,,,,,575153,,,,,,
20076,note_on,236,0,1,,,,,,,,0,,,57,64
20083,set_tempo,16,1,0,,,,,,577812,,,,,,
20100,set_tempo,17,1,0,,,,,,580495,,,,,,
20116,set_tempo,16,1,0,,,,,,583204,,,,,,
20133,set_tempo,17,1,0,,,,,,585938,,,,,,
20149,set_tempo,16,1,0,,,,,,591483,,,,,,
20159,note_on,83,0,1,,,,,,,,0,,,74,0
20159,note_on,0,0,1,,,,,,,,0,,,67,0
20159,note_on,239,0,4,,,,,,,,3,,,55,0
20159,note_on,0,0,4,,,,,,,,3,,,50,0
20159,note_on,0,0,1,,,,,,,,0,,,59,0
20159,note_on,479,0,3,,,,,,,,2,,,59,0
20160,note_on,1,0,4,,,,,,,,3,,,38,35
20160,note_on,1,0,3,,,,,,,,2,,,57,64
20160,control_change,1,0,1,,,,,,,,0,64,0,,
20166,set_tempo,17,1,0,,,,,,594295,,,,,,
20182,set_tempo,16,1,0,,,,,,597134,,,,,,
20199,set_tempo,17,1,0,,,,,,600000,,,,,,
20216,set_tempo,17,1,0,,,,,,602894,,,,,,
20232,set_tempo,16,1,0,,,,,,608766,,,,,,
20235,note_on,75,0,1,,,,,,,,0,,,57,0
20249,set_tempo,17,1,0,,,,,,608766,,,,,,
20255,note_on,95,0,4,,,,,,,,3,,,38,0
20331,set_tempo,82,1,0,,,,,,605816,,,,,,
20398,set_tempo,67,1,0,,,,,,602894,,,,,,
20399,note_on,164,0,1,,,,,,,,0,,,74,63
20399,note_on,0,0,1,,,,,,,,0,,,57,63
20400,note_on,145,0,4,,,,,,,,3,,,54,35
20431,note_on,32,0,1,,,,,,,,0,,,66,59
20464,set_tempo,66,1,0,,,,,,600000,,,,,,
20478,note_on,47,0,1,,,,,,,,0,,,74,0
20510,note_on,32,0,1,,,,,,,,0,,,66,0
20530,set_tempo,66,1,0,,,,,,597134,,,,,,
20592,note_on,432,0,3,,,,,,,,2,,,57,0
20596,set_tempo,66,1,0,,,,,,594295,,,,,,
20619,note_on,109,0,1,,,,,,,,0,,,57,0
20639,note_on,239,0,4,,,,,,,,3,,,54,0
20640,note_on,1,0,4,,,,,,,,3,,,50,35
20879,note_on,239,0,4,,,,,,,,3,,,50,0
20880,note_on,1,0,4,,,,,,,,3,,,54,35
21096,note_on,216,0,4,,,,,,,,3,,,54,0
21120,note_on,0,0,4,,,,,,,,3,,,36,53
21120,control_change,528,0,3,,,,,,,,2,64,127,,
21120,control_change,24,0,4,,,,,,,,3,64,127,,
21147,control_change,528,0,1,,,,,,,,0,64,127,,
21215,note_on,95,0,4,,,,,,,,3,,,36,0
21360,note_on,145,0,4,,,,,,,,3,,,57,34
21360,note_on,213,0,1,,,,,,,,0,,,67,64
21360,note_on,240,0,3,,,,,,,,2,,,57,64
21360,note_on,0,0,1,,,,,,,,0,,,76,64
21360,note_on,0,0,1,,,,,,,,0,,,69,64
21599,note_on,239,0,4,,,,,,,,3,,,57,0
21600,note_on,0,0,4,,,,,,,,3,,,48,34
21600,note_on,1,0,4,,,,,,,,3,,,52,34
21839,note_on,479,0,1,,,,,,,,0,,,76,0
21839,note_on,0,0,1,,,,,,,,0,,,69,0
21839,note_on,479,0,3,,,,,,,,2,,,57,0
21839,note_on,0,0,4,,,,,,,,3,,,52,0
21839,note_on,239,0,4,,,,,,,,3,,,48,0
21839,note_on,0,0,1,,,,,,,,0,,,67,0
21840,note_on,1,0,4,,,,,,,,3,,,57,34
21840,note_on,0,0,1,,,,,,,,0,,,76,64
21840,note_on,0,0,1,,,,,,,,0,,,67,64
21840,note_on,1,0,1,,,,,,,,0,,,69,64
21840,note_on,1,0,3,,,,,,,,2,,,57,58
21893,control_change,2642,0,2,,,,,,,,1,64,127,,
22079,note_on,239,0,3,,,,,,,,2,,,57,0
22079,note_on,239,0,1,,,,,,,,0,,,67,0
22079,note_on,0,0,1,,,,,,,,0,,,76,0
22079,note_on,239,0,4,,,,,,,,3,,,57,0
22079,note_on,0,0,1,,,,,,,,0,,,69,0
22080,control_change,1,0,4,,,,,,,,3,64,0,,
22080,note_on,0,0,4,,,,,,,,3,,,60,34
22080,note_on,0,0,4,,,,,,,,3,,,45,34
22080,note_on,0,0,3,,,,,,,,2,,,60,64
22080,control_change,1,0,3,,,,,,,,2,64,0,,
22080,note_on,187,0,2,,,,,,,,1,,,66,64
22080,note_on,1,0,1,,,,,,,,0,,,76,64
22107,control_change,27,0,1,,,,,,,,0,64,0,,
22120,control_change,40,0,3,,,,,,,,2,64,127,,
22120,control_change,40,0,4,,,,,,,,3,64,127,,
22147,control_change,40,0,1,,,,,,,,0,64,127,,
22175,note_on,55,0,4,,,,,,,,3,,,45,0
22319,note_on,144,0,4,,,,,,,,3,,,60,0
22320,note_on,1,0,4,,,,,,,,3,,,57,34
22439,note_on,292,0,1,,,,,,,,0,,,76,0
22440,note_on,1,0,1,,,,,,,,0,,,78,64
22559,note_on,439,0,3,,,,,,,,2,,,60,0
22559,note_on,239,0,4,,,,,,,,3,,,57,0
22559,note_on,119,0,1,,,,,,,,0,,,78,0
22560,note_on,1,0,4,,,,,,,,3,,,54,34
22560,note_on,0,0,4,,,,,,,,3,,,52,34
22560,note_on,1,0,3,,,,,,,,2,,,60,64
22560,note_on,1,0,1,,,,,,,,0,,,76,67
22728,note_on,648,0,2,,,,,,,,1,,,66,0
22776,note_on,216,0,1,,,,,,,,0,,,76,0
22799,note_on,0,0,4,,,,,,,,3,,,54,0
22799,note_on,239,0,4,,,,,,,,3,,,52,0
22800,note_on,1,0,4,,,,,,,,3,,,57,34
22853,control_change,125,0,2,,,,,,,,1,64,0,,
22992,note_on,432,0,3,,,,,,,,2,,,60,0
23016,note_on,216,0,4,,,,,,,,3,,,57,0
23020,set_tempo,2424,1,0,,,,,,670841,,,,,,
23040,note_on,24,0,4,,,,,,,,3,,,47,56
23040,note_on,48,0,3,,,,,,,,2,,,59,64
23080,control_change,40,0,4,,,,,,,,3,64,0,,
23080,control_change,40,0,3,,,,,,,,2,64,0,,
23107,control_change,331,0,1,,,,,,,,0,64,0,,
23120,control_change,40,0,4,,,,,,,,3,64,127,,
23135,note_on,15,0,4,,,,,,,,3,,,47,0
23143,control_change,63,0,3,,,,,,,,2,64,127,,
23160,control_change,53,0,1,,,,,,,,0,64,127,,
23280,note_on,145,0,4,,,,,,,,3,,,59,33
23280,note_on,120,0,1,,,,,,,,0,,,71,71
23280,note_on,0,0,1,,,,,,,,0,,,75,71
23280,note_on,0,0,1,,,,,,,,0,,,66,71
23285,set_tempo,265,1,0,,,,,,674460,,,,,,
23519,note_on,239,0,4,,,,,,,,3,,,59,0
23520,note_on,0,0,4,,,,,,,,3,,,51,33
23520,control_change,667,0,2,,,,,,,,1,64,127,,
23520,note_on,1,0,4,,,,,,,,3,,,54,33
23533,set_tempo,248,1,0,,,,,,678119,,,,,,
23759,note_on,479,0,1,,,,,,,,0,,,66,0
23759,note_on,0,0,1,,,,,,,,0,,,75,0
23759,note_on,0,0,1,,,,,,,,0,,,71,0
23759,note_on,239,0,4,,,,,,,,3,,,51,0
23759,note_on,0,0,4,,,,,,,,3,,,54,0
23760,note_on,1,0,1,,,,,,,,0,,,75,79
23760,note_on,0,0,1,,,,,,,,0,,,66,79
23760,note_on,1,0,4,,,,,,,,3,,,59,33
23760,note_on,0,0,1,,,,,,,,0,,,71,79
23808,control_change,48,0,4,,,,,,,,3,64,0,,
23904,note_on,761,0,3,,,,,,,,2,,,59,0
23999,note_on,191,0,4,,,,,,,,3,,,59,0
23999,note_on,0,0,1,,,,,,,,0,,,66,0
23999,note_on,239,0,1,,,,,,,,0,,,71,0
23999,note_on,0,0,1,,,,,,,,0,,,75,0
24000,note_on,1,0,4,,,,,,,,3,,,47,32
24000,note_on,1,0,1,,,,,,,,0,,,78,83
24000,note_on,0,0,2,,,,,,,,1,,,71,64
24000,note_on,480,0,2,,,,,,,,1,,,75,64
24080,control_change,80,0,4,,,,,,,,3,64,127,,
24095,note_on,15,0,4,,,,,,,,3,,,47,0
24103,control_change,199,0,3,,,,,,,,2,64,0,,
24240,note_on,145,0,4,,,,,,,,3,,,63,32
24359,note_on,359,0,1,,,,,,,,0,,,78,0
24360,note_on,1,0,1,,,,,,,,0,,,79,88
24479,note_on,479,0,2,,,,,,,,1,,,71,0
24479,note_on,0,0,2,,,,,,,,1,,,75,0
24479,note_on,239,0,4,,,,,,,,3,,,63,0
24479,note_on,119,0,1,,,,,,,,0,,,79,0
24480,note_on,1,0,4,,,,,,,,3,,,59,32
24480,note_on,0,0,4,,,,,,,,3,,,54,32
24480,note_on,0,0,2,,,,,,,,1,,,71,64
24480,note_on,0,0,2,,,,,,,,1,,,75,64
24480,note_on,1,0,1,,,,,,,,0,,,78,90
24480,control_change,1,0,2,,,,,,,,1,64,0,,
24696,note_on,216,0,2,,,,,,,,1,,,71,0
24696,note_on,216,0,1,,,,,,,,0,,,78,0
24696,note_on,0,0,2,,,,,,,,1,,,75,0
24719,note_on,239,0,4,,,,,,,,3,,,54,0
24719,note_on,0,0,4,,,,,,,,3,,,59,0
24720,note_on,1,0,4,,,,,,,,3,,,63,32
24806,control_change,110,0,1,,,,,,,,0,64,0,,
24936,note_on,216,0,4,,,,,,,,3,,,63,0
24960,control_change,154,0,1,,,,,,,,0,64,127,,
24960,note_on,24,0,4,,,,,,,,3,,,47,56
25040,control_change,80,0,4,,,,,,,,3,64,0,,
25055,note_on,15,0,4,,,,,,,,3,,,47,0
25131,control_change,76,0,4,,,,,,,,3,64,127,,
25200,note_on,69,0,4,,,,,,,,3,,,64,32
25200,note_on,0,0,1,,,,,,,,0,,,79,89
25200,note_on,0,0,1,,,,,,,,0,,,71,89
25200,note_on,240,0,1,,,,,,,,0,,,76,89
25439,note_on,239,0,4,,,,,,,,3,,,64,0
25440,note_on,0,0,4,,,,,,,,3,,,55,32
25440,note_on,1,0,4,,,,,,,,3,,,59,32
25594,control_change,898,0,2,,,,,,,,1,64,127,,
25679,note_on,239,0,4,,,,,,,,3,,,55,0
25679,note_on,0,0,1,,,,,,,,0,,,76,0
25679,note_on,0,0,1,,,,,,,,0,,,71,0
25679,note_on,479,0,1,,,,,,,,0,,,79,0
25679,note_on,0,0,4,,,,,,,,3,,,59,0
25680,note_on,0,0,1,,,,,,,,0,,,76,89
25680,note_on,1,0,1,,,,,,,,0,,,71,89
25680,note_on,0,0,1,,,,,,,,0,,,79,89
25680,note_on,1,0,4,,,,,,,,3,,,64,32
25919,note_on,0,0,1,,,,,,,,0,,,79,0
25919,note_on,239,0,1,,,,,,,,0,,,76,0
25919,note_on,0,0,1,,,,,,,,0,,,71,0
25919,note_on,239,0,4,,,,,,,,3,,,64,0
25920,note_on,0,0,2,,,,,,,,1,,,76,64
25920,note_on,0,0,1,,,,,,,,0,,,86,84
25920,note_on,326,0,2,,,,,,,,1,,,79,64
25920,note_on,1,0,4,,,,,,,,3,,,47,32
25920,control_change,1,0,1,,,,,,,,0,64,0,,
26015,note_on,95,0,4,,,,,,,,3,,,47,0
26091,control_change,76,0,4,,,,,,,,3,64,0,,
26160,note_on,69,0,4,,,,,,,,3,,,64,32
26279,note_on,359,0,1,,,,,,,,0,,,86,0
26280,note_on,1,0,1,,,,,,,,0,,,88,78
26399,note_on,239,0,4,,,,,,,,3,,,64,0
26399,note_on,119,0,1,,,,,,,,0,,,88,0
26399,note_on,0,0,2,,,,,,,,1,,,79,0
26399,note_on,479,0,2,,,,,,,,1,,,76,0
26400,note_on,1,0,1,,,,,,,,0,,,82,75
26400,note_on,0,0,2,,,,,,,,1,,,76,64
26400,note_on,0,0,4,,,,,,,,3,,,55,32
26400,note_on,1,0,4,,,,,,,,3,,,61,32
26400,note_on,1,0,2,,,,,,,,1,,,79,64
26554,control_change,154,0,2,,,,,,,,1,64,0,,
26616,note_on,216,0,1,,,,,,,,0,,,82,0
26616,note_on,62,0,2,,,,,,,,1,,,76,0
26616,note_on,0,0,2,,,,,,,,1,,,79,0
26639,note_on,239,0,4,,,,,,,,3,,,55,0
26639,note_on,0,0,4,,,,,,,,3,,,61,0
26640,note_on,1,0,4,,,,,,,,3,,,64,32
26844,set_tempo,3311,1,0,,,,,,784519,,,,,,
26856,note_on,216,0,4,,,,,,,,3,,,64,0
26880,note_on,0,0,4,,,,,,,,3,,,47,54
26880,control_change,264,0,1,,,,,,,,0,64,127,,
26880,control_change,24,0,4,,,,,,,,3,64,127,,
26975,note_on,95,0,4,,,,,,,,3,,,47,0
27120,note_on,240,0,1,,,,,,,,0,,,90,64
27120,note_on,0,0,1,,,,,,,,0,,,75,64
27120,note_on,0,0,1,,,,,,,,0,,,83,64
27120,note_on,145,0,4,,,,,,,,3,,,63,32
27359,note_on,239,0,4,,,,,,,,3,,,63,0
27360,note_on,0,0,4,,,,,,,,3,,,54,32
27360,note_on,1,0,4,,,,,,,,3,,,59,32
27599,note_on,239,0,4,,,,,,,,3,,,54,0
27599,note_on,0,0,1,,,,,,,,0,,,75,0
27599,note_on,479,0,1,,,,,,,,0,,,83,0
27599,note_on,0,0,4,,,,,,,,3,,,59,0
27599,note_on,0,0,1,,,,,,,,0,,,90,0
27600,note_on,1,0,4,,,,,,,,3,,,63,32
27600,note_on,0,0,1,,,,,,,,0,,,75,64
27600,note_on,0,0,1,,,,,,,,0,,,83,64
27600,note_on,1,0,1,,,,,,,,0,,,90,64
27839,note_on,239,0,4,,,,,,,,3,,,63,0
27839,note_on,0,0,1,,,,,,,,0,,,90,0
27839,note_on,239,0,1,,,,,,,,0,,,75,0
27839,note_on,0,0,1,,,,,,,,0,,,83,0
27840,control_change,1,0,4,,,,,,,,3,64,0,,
27840,note_on,0,0,4,,,,,,,,3,,,47,31
27840,control_change,1,0,1,,,,,,,,0,64,0,,
27840,note_on,0,0,1,,,,,,,,0,,,87,64
27840,note_on,0,0,1,,,,,,,,0,,,78,64
27840,note_on,0,0,1,,,,,,,,0,,,95,64
27935,note_on,95,0,4,,,,,,,,3,,,47,0
28080,note_on,145,0,4,,,,,,,,3,,,59,31
28234,set_tempo,1390,1,0,,,,,,697026,,,,,,
28319,note_on,239,0,4,,,,,,,,3,,,59,0
28320,note_on,1,0,4,,,,,,,,3,,,54,31
28320,note_on,0,0,4,,,,,,,,3,,,51,31
28559,note_on,0,0,4,,,,,,,,3,,,54,0
28559,note_on,239,0,4,,,,,,,,3,,,51,0
28560,note_on,1,0,4,,,,,,,,3,,,59,31
28560,note_on,4457,0,3,,,,,,,,2,,,59,76
28704,note_on,0,0,1,,,,,,,,0,,,87,0
28704,note_on,0,0,1,,,,,,,,0,,,78,0
28704,note_on,864,0,1,,,,,,,,0,,,95,0
28776,note_on,216,0,3,,,,,,,,2,,,59,0
28776,note_on,216,0,4,,,,,,,,3,,,59,0
28800,note_on,24,0,4,,,,,,,,3,,,48,57
28800,note_on,24,0,3,,,,,,,,2,,,59,81
28800,control_change,96,0,1,,,,,,,,0,64,127,,
28853,control_change,53,0,3,,,,,,,,2,64,127,,
28895,note_on,95,0,4,,,,,,,,3,,,48,0
29040,note_on,145,0,4,,,,,,,,3,,,54,33
29040,note_on,240,0,1,,,,,,,,0,,,69,51
29040,note_on,0,0,1,,,,,,,,0,,,62,51
29040,note_on,0,0,1,,,,,,,,0,,,66,51
29279,note_on,239,0,4,,,,,,,,3,,,54,0
29280,note_on,1,0,4,,,,,,,,3,,,50,31
29519,note_on,239,0,4,,,,,,,,3,,,50,0
29519,note_on,0,0,1,,,,,,,,0,,,69,0
29519,note_on,0,0,1,,,,,,,,0,,,62,0
29519,note_on,666,0,3,,,,,,,,2,,,59,0
29519,note_on,479,0,1,,,,,,,,0,,,66,0
29520,note_on,1,0,4,,,,,,,,3,,,54,31
29520,note_on,1,0,3,,,,,,,,2,,,57,72
29520,note_on,0,0,1,,,,,,,,0,,,69,43
29520,note_on,0,0,1,,,,,,,,0,,,62,43
29520,note_on,1,0,1,,,,,,,,0,,,66,43
29759,note_on,239,0,3,,,,,,,,2,,,57,0
29759,note_on,239,0,4,,,,,,,,3,,,54,0
29759,note_on,239,0,1,,,,,,,,0,,,69,0
29759,note_on,0,0,1,,,,,,,,0,,,62,0
29759,note_on,0,0,1,,,,,,,,0,,,66,0
29760,note_on,0,0,1,,,,,,,,0,,,74,51
29760,note_on,0,0,1,,,,,,,,0,,,62,51
29760,note_on,1,0,3,,,,,,,,2,,,55,75
29760,control_change,1,0,1,,,,,,,,0,64,0,,
29760,note_on,1,0,4,,,,,,,,3,,,36,31
29760,note_on,0,0,1,,,,,,,,0,,,69,51
29813,control_change,53,0,3,,,,,,,,2,64,0,,
29855,note_on,95,0,4,,,,,,,,3,,,36,0
30000,note_on,145,0,4,,,,,,,,3,,,50,31
30239,note_on,426,0,3,,,,,,,,2,,,55,0
30239,note_on,479,0,1,,,,,,,,0,,,69,0
30239,note_on,0,0,1,,,,,,,,0,,,74,0
30239,note_on,239,0,4,,,,,,,,3,,,50,0
30239,note_on,0,0,1,,,,,,,,0,,,62,0
30240,note_on,1,0,4,,,,,,,,3,,,48,31
30240,note_on,1,0,1,,,,,,,,0,,,62,51
30240,note_on,0,0,1,,,,,,,,0,,,66,51
30240,note_on,0,0,1,,,,,,,,0,,,69,51
30240,note_on,1,0,3,,,,,,,,2,,,54,82
30456,note_on,0,0,1,,,,,,,,0,,,62,0
30456,note_on,216,0,1,,,,,,,,0,,,69,0
30456,note_on,0,0,1,,,,,,,,0,,,66,0
30479,note_on,239,0,4,,,,,,,,3,,,48,0
30480,note_on,1,0,4,,,,,,,,3,,,50,31
30672,note_on,432,0,3,,,,,,,,2,,,54,0
30684,set_tempo,2450,1,0,,,,,,649913,,,,,,
30696,note_on,216,0,4,,,,,,,,3,,,50,0
30720,note_on,24,0,4,,,,,,,,3,,,47,56
30720,note_on,48,0,3,,,,,,,,2,,,62,82
30815,note_on,95,0,4,,,,,,,,3,,,47,0
30960,note_on,145,0,4,,,,,,,,3,,,55,31
30960,note_on,504,0,1,,,,,,,,0,,,67,51
30960,note_on,0,0,1,,,,,,,,0,,,71,51
30960,note_on,0,0,1,,,,,,,,0,,,62,51
30994,control_change,274,0,3,,,,,,,,2,64,127,,
31199,note_on,239,0,4,,,,,,,,3,,,55,0
31200,note_on,1,0,4,,,,,,,,3,,,50,30
31439,note_on,239,0,4,,,,,,,,3,,,50,0
31439,note_on,445,0,3,,,,,,,,2,,,62,0
31439,note_on,479,0,1,,,,,,,,0,,,62,0
31439,note_on,0,0,1,,,,,,,,0,,,71,0
31439,note_on,0,0,1,,,,,,,,0,,,67,0
31440,note_on,1,0,1,,,,,,,,0,,,71,44
31440,note_on,1,0,3,,,,,,,,2,,,59,75
31440,note_on,0,0,1,,,,,,,,0,,,62,44
31440,note_on,0,0,1,,,,,,,,0,,,67,44
31440,note_on,1,0,4,,,,,,,,3,,,55,30
31679,note_on,239,0,1,,,,,,,,0,,,67,0
31679,note_on,0,0,1,,,,,,,,0,,,71,0
31679,note_on,239,0,4,,,,,,,,3,,,55,0
31679,note_on,239,0,3,,,,,,,,2,,,59,0
31679,note_on,0,0,1,,,,,,,,0,,,62,0
31680,note_on,1,0,1,,,,,,,,0,,,71,51
31680,note_on,0,0,1,,,,,,,,0,,,74,51
31680,note_on,0,0,1,,,,,,,,0,,,62,51
31680,note_on,1,0,4,,,,,,,,3,,,35,30
31680,note_on,0,0,4,,,,,,,,3,,,55,30
31680,note_on,1,0,3,,,,,,,,2,,,55,81
31775,note_on,95,0,4,,,,,,,,3,,,35,0
31919,note_on,144,0,4,,,,,,,,3,,,55,0
31920,note_on,1,0,4,,,,,,,,3,,,50,30
31954,control_change,274,0,3,,,,,,,,2,64,0,,
32159,note_on,205,0,3,,,,,,,,2,,,55,0
32159,note_on,239,0,4,,,,,,,,3,,,50,0
32159,note_on,0,0,1,,,,,,,,0,,,71,0
32159,note_on,479,0,1,,,,,,,,0,,,62,0
32159,note_on,0,0,1,,,,,,,,0,,,74,0
32160,note_on,1,0,1,,,,,,,,0,,,62,51
32160,note_on,1,0,3,,,,,,,,2,,,55,82
32160,note_on,0,0,1,,,,,,,,0,,,67,51
32160,note_on,0,0,1,,,,,,,,0,,,71,51
32160,note_on,1,0,4,,,,,,,,3,,,47,30
32376,note_on,0,0,1,,,,,,,,0,,,71,0
32376,note_on,216,0,1,,,,,,,,0,,,67,0
32376,note_on,0,0,1,,,,,,,,0,,,62,0
32399,note_on,239,0,4,,,,,,,,3,,,47,0
32400,note_on,1,0,4,,,,,,,,3,,,50,30
32592,note_on,432,0,3,,,,,,,,2,,,55,0
32616,note_on,216,0,4,,,,,,,,3,,,50,0
32620,set_tempo,1936,1,0,,,,,,630252,,,,,,
32640,control_change,48,0,3,,,,,,,,2,64,127,,
32640,note_on,24,0,4,,,,,,,,3,,,43,59
32640,note_on,0,0,3,,,,,,,,2,,,59,81
32735,note_on,95,0,4,,,,,,,,3,,,43,0
32880,note_on,504,0,1,,,,,,,,0,,,74,51
32880,note_on,0,0,1,,,,,,,,0,,,71,51
32880,note_on,0,0,1,,,,,,,,0,,,67,51
32880,note_on,145,0,4,,,,,,,,3,,,55,30
33119,note_on,239,0,4,,,,,,,,3,,,55,0
33119,note_on,479,0,3,,,,,,,,2,,,59,0
33120,note_on,1,0,3,,,,,,,,2,,,59,80
33120,note_on,1,0,4,,,,,,,,3,,,50,30
33359,note_on,239,0,4,,,,,,,,3,,,50,0
33359,note_on,0,0,1,,,,,,,,0,,,71,0
33359,note_on,479,0,1,,,,,,,,0,,,67,0
33359,note_on,0,0,1,,,,,,,,0,,,74,0
33360,note_on,1,0,1,,,,,,,,0,,,71,42
33360,note_on,0,0,1,,,,,,,,0,,,67,42
33360,note_on,0,0,1,,,,,,,,0,,,74,42
33360,note_on,1,0,4,,,,,,,,3,,,55,30
33599,note_on,239,0,1,,,,,,,,0,,,74,0
33599,note_on,0,0,1,,,,,,,,0,,,71,0
33599,note_on,0,0,1,,,,,,,,0,,,67,0
33599,note_on,239,0,4,,,,,,,,3,,,55,0
33599,note_on,479,0,3,,,,,,,,2,,,59,0
33600,note_on,1,0,1,,,,,,,,0,,,67,51
33600,note_on,0,0,1,,,,,,,,0,,,74,51
33600,note_on,1,0,4,,,,,,,,3,,,47,30
33600,control_change,1,0,3,,,,,,,,2,64,0,,
33600,note_on,0,0,1,,,,,,,,0,,,79,51
33600,note_on,0,0,3,,,,,,,,2,,,62,80
33695,note_on,95,0,4,,,,,,,,3,,,47,0
33840,note_on,145,0,4,,,,,,,,3,,,59,30
34079,note_on,479,0,1,,,,,,,,0,,,74,0
34079,note_on,0,0,1,,,,,,,,0,,,79,0
34079,note_on,0,0,1,,,,,,,,0,,,67,0
34079,note_on,239,0,4,,,,,,,,3,,,59,0
34080,note_on,1,0,4,,,,,,,,3,,,50,30
34080,note_on,0,0,1,,,,,,,,0,,,67,51
34080,note_on,1,0,1,,,,,,,,0,,,71,51
34296,note_on,0,0,1,,,,,,,,0,,,71,0
34296,note_on,216,0,1,,,,,,,,0,,,67,0
34319,note_on,239,0,4,,,,,,,,3,,,50,0
34319,note_on,719,0,3,,,,,,,,2,,,62,0
34320,note_on,1,0,3,,,,,,,,2,,,62,72
34320,note_on,1,0,4,,,,,,,,3,,,55,30
34536,note_on,216,0,4,,,,,,,,3,,,55,0
34536,note_on,216,0,3,,,,,,,,2,,,62,0
34560,note_on,24,0,4,,,,,,,,3,,,38,59
34560,note_on,0,0,3,,,,,,,,2,,,57,78
34560,control_change,24,0,3,,,,,,,,2,64,127,,
34655,note_on,95,0,4,,,,,,,,3,,,38,0
34800,note_on,0,0,1,,,,,,,,0,,,69,71
34800,note_on,504,0,1,,,,,,,,0,,,66,71
34800,note_on,145,0,4,,,,,,,,3,,,54,32
35039,note_on,239,0,4,,,,,,,,3,,,54,0
35040,note_on,1,0,4,,,,,,,,3,,,50,37
35087,set_tempo,2467,1,0,,,,,,569909,,,,,,
35279,note_on,479,0,1,,,,,,,,0,,,69,0
35279,note_on,239,0,4,,,,,,,,3,,,50,0
35279,note_on,0,0,1,,,,,,,,0,,,66,0
35280,note_on,1,0,4,,,,,,,,3,,,54,40
35280,note_on,0,0,1,,,,,,,,0,,,66,63
35280,note_on,1,0,1,,,,,,,,0,,,69,63
35519,note_on,239,0,4,,,,,,,,3,,,54,0
35519,note_on,239,0,1,,,,,,,,0,,,66,0
35519,note_on,0,0,1,,,,,,,,0,,,69,0
35520,note_on,1,0,4,,,,,,,,3,,,38,45
35520,note_on,0,0,1,,,,,,,,0,,,74,82
35520,control_change,960,0,3,,,,,,,,2,64,0,,
35520,note_on,1,0,1,,,,,,,,0,,,66,82
35520,note_on,0,0,1,,,,,,,,0,,,69,82
35615,note_on,95,0,4,,,,,,,,3,,,38,0
35707,control_change,187,0,3,,,,,,,,2,64,127,,
35707,control_change,187,0,1,,,,,,,,0,64,127,,
35760,note_on,145,0,4,,,,,,,,3,,,57,48
35999,note_on,0,0,1,,,,,,,,0,,,66,0
35999,note_on,239,0,4,,,,,,,,3,,,57,0
35999,note_on,0,0,1,,,,,,,,0,,,69,0
35999,note_on,292,0,1,,,,,,,,0,,,74,0
36000,note_on,0,0,4,,,,,,,,3,,,50,53
36000,note_on,1,0,1,,,,,,,,0,,,69,89
36000,note_on,1,0,4,,,,,,,,3,,,54,53
36000,note_on,0,0,1,,,,,,,,0,,,81,89
36239,note_on,239,0,4,,,,,,,,3,,,50,0
36239,note_on,0,0,4,,,,,,,,3,,,54,0
36239,note_on,532,0,3,,,,,,,,2,,,57,0
36240,note_on,1,0,4,,,,,,,,3,,,57,56
36240,note_on,1,0,3,,,,,,,,2,,,57,80
36432,note_on,0,0,1,,,,,,,,0,,,69,0
36432,note_on,432,0,1,,,,,,,,0,,,81,0
36456,note_on,216,0,4,,,,,,,,3,,,57,0
36456,note_on,216,0,3,,,,,,,,2,,,57,0
36480,note_on,24,0,4,,,,,,,,3,,,48,61
36480,note_on,0,0,1,,,,,,,,0,,,71,97
36480,note_on,48,0,1,,,,,,,,0,,,83,97
36667,control_change,211,0,3,,,,,,,,2,64,0,,
36667,control_change,187,0,1,,,,,,,,0,64,0,,
36719,note_on,239,0,4,,,,,,,,3,,,48,0
36720,note_on,53,0,3,,,,,,,,2,,,59,80
36720,note_on,1,0,4,,,,,,,,3,,,59,57
36827,control_change,107,0,3,,,,,,,,2,64,127,,
36959,note_on,239,0,4,,,,,,,,3,,,59,0
36960,note_on,1,0,4,,,,,,,,3,,,54,50
36960,note_on,0,0,4,,,,,,,,3,,,50,50
37093,control_change,426,0,1,,,,,,,,0,64,127,,
37199,note_on,106,0,1,,,,,,,,0,,,71,0
37199,note_on,0,0,1,,,,,,,,0,,,83,0
37199,note_on,372,0,3,,,,,,,,2,,,59,0
37199,note_on,0,0,4,,,,,,,,3,,,54,0
37199,note_on,239,0,4,,,,,,,,3,,,50,0
37200,note_on,1,0,3,,,,,,,,2,,,57,80
37200,note_on,1,0,4,,,,,,,,3,,,57,44
37200,note_on,1,0,1,,,,,,,,0,,,81,77
37200,note_on,0,0,1,,,,,,,,0,,,69,77
37439,note_on,239,0,4,,,,,,,,3,,,57,0
37439,note_on,239,0,1,,,,,,,,0,,,69,0
37439,note_on,0,0,1,,,,,,,,0,,,81,0
37440,note_on,1,0,4,,,,,,,,3,,,36,37
37440,note_on,0,0,1,,,,,,,,0,,,88,69
37440,note_on,1,0,1,,,,,,,,0,,,76,69
37679,note_on,239,0,4,,,,,,,,3,,,36,0
37679,note_on,479,0,3,,,,,,,,2,,,57,0
37680,note_on,1,0,3,,,,,,,,2,,,64,79
37680,note_on,1,0,4,,,,,,,,3,,,64,31
37787,control_change,107,0,3,,,,,,,,2,64,0,,
37919,note_on,479,0,1,,,,,,,,0,,,88,0
37919,note_on,239,0,4,,,,,,,,3,,,64,0
37919,note_on,0,0,1,,,,,,,,0,,,76,0
37920,note_on,0,0,4,,,,,,,,3,,,54,31
37920,note_on,1,0,1,,,,,,,,0,,,86,64
37920,note_on,0,0,1,,,,,,,,0,,,74,64
37920,note_on,1,0,4,,,,,,,,3,,,57,31
38053,control_change,133,0,1,,,,,,,,0,64,0,,
38159,note_on,0,0,4,,,,,,,,3,,,57,0
38159,note_on,239,0,4,,,,,,,,3,,,54,0
38159,note_on,372,0,3,,,,,,,,2,,,64,0
38160,note_on,1,0,3,,,,,,,,2,,,62,79
38160,note_on,1,0,4,,,,,,,,3,,,62,31
38267,control_change,107,0,3,,,,,,,,2,64,127,,
38320,control_change,267,0,1,,,,,,,,0,64,127,,
38352,note_on,0,0,1,,,,,,,,0,,,86,0
38352,note_on,32,0,1,,,,,,,,0,,,74,0
38376,note_on,216,0,4,,,,,,,,3,,,62,0
38376,note_on,109,0,3,,,,,,,,2,,,62,0
38384,set_tempo,3297,1,0,,,,,,627090,,,,,,
38400,note_on,24,0,4,,,,,,,,3,,,47,31
38400,note_on,48,0,1,,,,,,,,0,,,74,64
38400,note_on,0,0,1,,,,,,,,0,,,86,64
38639,note_on,239,0,4,,,,,,,,3,,,47,0
38640,note_on,1,0,4,,,,,,,,3,,,62,31
38640,note_on,264,0,3,,,,,,,,2,,,62,79
38879,note_on,239,0,4,,,,,,,,3,,,62,0
38880,note_on,1,0,4,,,,,,,,3,,,55,31
38880,note_on,0,0,4,,,,,,,,3,,,50,31
39119,note_on,719,0,1,,,,,,,,0,,,86,0
39119,note_on,0,0,1,,,,,,,,0,,,74,0
39119,note_on,479,0,3,,,,,,,,2,,,62,0
39119,note_on,239,0,4,,,,,,,,3,,,50,0
39119,note_on,0,0,4,,,,,,,,3,,,55,0
39120,note_on,0,0,1,,,,,,,,0,,,71,64
39120,note_on,1,0,1,,,,,,,,0,,,83,64
39120,note_on,1,0,3,,,,,,,,2,,,59,79
39120,note_on,1,0,4,,,,,,,,3,,,59,31
39227,control_change,107,0,3,,,,,,,,2,64,0,,
39280,control_change,160,0,1,,,,,,,,0,64,0,,
39359,note_on,79,0,1,,,,,,,,0,,,71,0
39359,note_on,0,0,1,,,,,,,,0,,,83,0
39359,note_on,239,0,4,,,,,,,,3,,,59,0
39360,note_on,1,0,1,,,,,,,,0,,,79,64
39360,note_on,0,0,1,,,,,,,,0,,,67,64
39360,note_on,1,0,4,,,,,,,,3,,,35,31
39599,note_on,372,0,3,,,,,,,,2,,,59,0
39599,note_on,239,0,4,,,,,,,,3,,,35,0
39600,note_on,1,0,3,,,,,,,,2,,,55,78
39600,note_on,1,0,4,,,,,,,,3,,,55,31
39792,note_on,432,0,1,,,,,,,,0,,,67,0
39792,note_on,0,0,1,,,,,,,,0,,,79,0
39839,note_on,239,0,4,,,,,,,,3,,,55,0
39840,note_on,0,0,4,,,,,,,,3,,,50,31
39840,note_on,1,0,4,,,,,,,,3,,,47,31
40079,note_on,479,0,3,,,,,,,,2,,,55,0
40079,note_on,239,0,4,,,,,,,,3,,,50,0
40079,note_on,0,0,4,,,,,,,,3,,,47,0
40080,note_on,1,0,4,,,,,,,,3,,,55,31
40080,note_on,1,0,3,,,,,,,,2,,,55,65
40296,note_on,216,0,3,,,,,,,,2,,,55,0
40296,note_on,216,0,4,,,,,,,,3,,,55,0
40320,note_on,0,0,3,,,,,,,,2,,,59,78
40320,control_change,24,0,3,,,,,,,,2,64,127,,
40320,control_change,24,0,4,,,,,,,,3,64,127,,
40320,note_on,0,0,4,,,,,,,,3,,,38,59
40320,control_change,528,0,1,,,,,,,,0,64,127,,
40320,note_on,0,0,4,,,,,,,,3,,,59,59
40559,note_on,0,0,4,,,,,,,,3,,,59,0
40559,note_on,239,0,4,,,,,,,,3,,,38,0
40560,note_on,0,0,1,,,,,,,,0,,,74,64
40560,note_on,240,0,1,,,,,,,,0,,,79,64
40560,note_on,0,0,1,,,,,,,,0,,,71,64
40560,note_on,0,0,1,,,,,,,,0,,,83,64
40560,note_on,1,0,4,,,,,,,,3,,,55,31
40799,note_on,239,0,4,,,,,,,,3,,,55,0
40800,note_on,1,0,4,,,,,,,,3,,,50,31
41039,note_on,239,0,4,,,,,,,,3,,,50,0
41039,note_on,479,0,1,,,,,,,,0,,,71,0
41039,note_on,719,0,3,,,,,,,,2,,,59,0
41039,note_on,0,0,1,,,,,,,,0,,,79,0
41039,note_on,0,0,1,,,,,,,,0,,,74,0
41039,note_on,0,0,1,,,,,,,,0,,,83,0
41040,note_on,0,0,1,,,,,,,,0,,,71,64
41040,note_on,0,0,1,,,,,,,,0,,,83,64
41040,note_on,0,0,1,,,,,,,,0,,,74,64
41040,note_on,1,0,3,,,,,,,,2,,,59,65
41040,note_on,1,0,1,,,,,,,,0,,,79,64
41040,note_on,1,0,4,,,,,,,,3,,,55,31
41279,note_on,239,0,4,,,,,,,,3,,,55,0
41279,note_on,239,0,1,,,,,,,,0,,,71,0
41279,note_on,0,0,1,,,,,,,,0,,,79,0
41279,note_on,0,0,1,,,,,,,,0,,,74,0
41279,note_on,0,0,1,,,,,,,,0,,,83,0
41279,note_on,239,0,3,,,,,,,,2,,,59,0
41280,note_on,0,0,4,,,,,,,,3,,,38,31
41280,control_change,1,0,4,,,,,,,,3,64,0,,
41280,note_on,0,0,1,,,,,,,,0,,,74,64
41280,note_on,0,0,1,,,,,,,,0,,,79,64
41280,control_change,1,0,3,,,,,,,,2,64,0,,
41280,note_on,0,0,3,,,,,,,,2,,,62,77
41280,control_change,1,0,1,,,,,,,,0,64,0,,
41280,note_on,0,0,1,,,,,,,,0,,,86,64
41280,note_on,0,0,1,,,,,,,,0,,,81,64
41446,set_tempo,3062,1,0,,,,,,697026,,,,,,
41471,note_on,191,0,1,,,,,,,,0,,,81,0
41471,note_on,0,0,1,,,,,,,,0,,,74,0
41471,note_on,0,0,1,,,,,,,,0,,,86,0
41519,note_on,239,0,4,,,,,,,,3,,,38,0
41520,note_on,0,0,4,,,,,,,,3,,,55,31
41520,note_on,1,0,4,,,,,,,,3,,,57,31
41744,set_tempo,298,1,0,,,,,,693161,,,,,,
41759,note_on,239,0,4,,,,,,,,3,,,55,0
41759,note_on,0,0,4,,,,,,,,3,,,57,0
41759,note_on,288,0,1,,,,,,,,0,,,79,0
41759,note_on,479,0,3,,,,,,,,2,,,62,0
41760,note_on,1,0,1,,,,,,,,0,,,81,64
41760,note_on,1,0,4,,,,,,,,3,,,50,31
41760,note_on,0,0,1,,,,,,,,0,,,72,64
41760,note_on,0,0,1,,,,,,,,0,,,78,64
41760,note_on,1,0,3,,,,,,,,2,,,62,77
41760,note_on,0,0,1,,,,,,,,0,,,86,64
41846,note_on,0,0,1,,,,,,,,0,,,78,0
41846,note_on,0,0,1,,,,,,,,0,,,72,0
41846,note_on,0,0,1,,,,,,,,0,,,81,0
41846,note_on,86,0,1,,,,,,,,0,,,86,0
41999,note_on,239,0,4,,,,,,,,3,,,50,0
42000,note_on,0,0,4,,,,,,,,3,,,54,31
42000,note_on,1,0,4,,,,,,,,3,,,57,31
42192,note_on,432,0,3,,,,,,,,2,,,62,0
42207,set_tempo,463,1,0,,,,,,779626,,,,,,
42216,note_on,0,0,4,,,,,,,,3,,,57,0
42216,note_on,216,0,4,,,,,,,,3,,,54,0
42240,control_change,394,0,1,,,,,,,,0,64,127,,
42240,note_on,0,0,1,,,,,,,,0,,,86,64
42240,note_on,0,0,1,,,,,,,,0,,,83,64
42240,note_on,0,0,1,,,,,,,,0,,,74,64
42240,note_on,0,0,3,,,,,,,,2,,,59,77
42240,control_change,48,0,3,,,,,,,,2,64,127,,
42240,control_change,24,0,4,,,,,,,,3,64,127,,
42240,note_on,0,0,4,,,,,,,,3,,,40,59
42479,note_on,239,0,4,,,,,,,,3,,,40,0
42480,note_on,1,0,4,,,,,,,,3,,,55,30
42719,note_on,239,0,4,,,,,,,,3,,,55,0
42720,note_on,1,0,4,,,,,,,,3,,,52,30
42959,note_on,239,0,4,,,,,,,,3,,,52,0
42960,note_on,1,0,4,,,,,,,,3,,,55,30
43104,note_on,864,0,3,,,,,,,,2,,,59,0
43199,note_on,239,0,4,,,,,,,,3,,,55,0
43199,note_on,959,0,1,,,,,,,,0,,,74,0
43199,note_on,0,0,1,,,,,,,,0,,,83,0
43199,note_on,0,0,1,,,,,,,,0,,,86,0
43200,note_on,0,0,4,,,,,,,,3,,,47,31
43200,control_change,1,0,4,,,,,,,,3,64,0,,
43200,control_change,1,0,1,,,,,,,,0,64,0,,
43200,note_on,0,0,1,,,,,,,,0,,,83,96
43200,control_change,96,0,3,,,,,,,,2,64,0,,
43200,note_on,0,0,1,,,,,,,,0,,,91,96
43217,set_tempo,1010,1,0,,,,,,779626,,,,,,
43250,set_tempo,33,1,0,,,,,,774793,,,,,,
43267,set_tempo,17,1,0,,,,,,770021,,,,,,
43283,set_tempo,16,1,0,,,,,,765306,,,,,,
43300,set_tempo,17,1,0,,,,,,760649,,,,,,
43333,set_tempo,33,1,0,,,,,,756048,,,,,,
43349,set_tempo,16,1,0,,,,,,751503,,,,,,
43366,set_tempo,17,1,0,,,,,,747012,,,,,,
43383,set_tempo,17,1,0,,,,,,742574,,,,,,
43416,set_tempo,33,1,0,,,,,,738189,,,,,,
43432,set_tempo,16,1,0,,,,,,733855,,,,,,
43439,note_on,239,0,1,,,,,,,,0,,,91,0
43439,note_on,239,0,4,,,,,,,,3,,,47,0
43439,note_on,0,0,1,,,,,,,,0,,,83,0
43440,note_on,1,0,4,,,,,,,,3,,,55,31
43440,note_on,1,0,1,,,,,,,,0,,,93,88
43440,note_on,0,0,1,,,,,,,,0,,,84,88
43449,set_tempo,17,1,0,,,,,,729572,,,,,,
43465,set_tempo,16,1,0,,,,,,725338,,,,,,
43498,set_tempo,33,1,0,,,,,,721154,,,,,,
43515,set_tempo,17,1,0,,,,,,717017,,,,,,
43532,set_tempo,17,1,0,,,,,,712928,,,,,,
43548,set_tempo,16,1,0,,,,,,708885,,,,,,
43559,note_on,0,0,1,,,,,,,,0,,,93,0
43559,note_on,119,0,1,,,,,,,,0,,,84,0
43560,note_on,1,0,1,,,,,,,,0,,,91,85
43560,note_on,0,0,1,,,,,,,,0,,,83,85
43581,set_tempo,33,1,0,,,,,,704887,,,,,,
43598,set_tempo,17,1,0,,,,,,700935,,,,,,
43614,set_tempo,16,1,0,,,,,,697026,,,,,,
43631,set_tempo,17,1,0,,,,,,693161,,,,,,
43679,note_on,119,0,1,,,,,,,,0,,,83,0
43679,note_on,239,0,4,,,,,,,,3,,,55,0
43679,note_on,0,0,1,,,,,,,,0,,,91,0
43680,note_on,1,0,4,,,,,,,,3,,,52,31
43680,note_on,0,0,1,,,,,,,,0,,,90,80
43680,note_on,1,0,1,,,,,,,,0,,,81,80
43799,note_on,119,0,1,,,,,,,,0,,,90,0
43799,note_on,0,0,1,,,,,,,,0,,,81,0
43800,note_on,1,0,1,,,,,,,,0,,,88,76
43800,note_on,0,0,1,,,,,,,,0,,,79,76
43919,note_on,119,0,1,,,,,,,,0,,,79,0
43919,note_on,0,0,1,,,,,,,,0,,,88,0
43919,note_on,239,0,4,,,,,,,,3,,,52,0
43920,note_on,1,0,4,,,,,,,,3,,,55,31
43920,note_on,1,0,1,,,,,,,,0,,,78,73
43920,note_on,0,0,1,,,,,,,,0,,,86,73
44039,note_on,119,0,1,,,,,,,,0,,,86,0
44039,note_on,0,0,1,,,,,,,,0,,,78,0
44040,note_on,0,0,1,,,,,,,,0,,,76,69
44040,note_on,1,0,1,,,,,,,,0,,,84,69
44136,note_on,216,0,4,,,,,,,,3,,,55,0
44148,note_on,0,0,1,,,,,,,,0,,,84,0
44148,note_on,108,0,1,,,,,,,,0,,,76,0
44160,control_change,12,0,1,,,,,,,,0,64,127,,
44160,note_on,0,0,4,,,,,,,,3,,,59,61
44160,control_change,960,0,3,,,,,,,,2,64,127,,
44160,note_on,0,0,1,,,,,,,,0,,,83,64
44160,control_change,24,0,4,,,,,,,,3,64,127,,
44160,note_on,0,0,4,,,,,,,,3,,,38,61
44160,note_on,0,0,1,,,,,,,,0,,,74,64
44160,note_on,0,0,3,,,,,,,,2,,,59,77
44399,note_on,0,0,1,,,,,,,,0,,,83,0
44399,note_on,0,0,4,,,,,,,,3,,,59,0
44399,note_on,239,0,4,,,,,,,,3,,,38,0
44399,note_on,239,0,1,,,,,,,,0,,,74,0
44400,note_on,1,0,1,,,,,,,,0,,,79,64
44400,note_on,0,0,1,,,,,,,,0,,,83,64
44400,note_on,0,0,1,,,,,,,,0,,,74,64
44400,note_on,0,0,1,,,,,,,,0,,,71,64
44400,note_on,1,0,4,,,,,,,,3,,,55,32
44639,note_on,239,0,4,,,,,,,,3,,,55,0
44640,note_on,1,0,4,,,,,,,,3,,,50,32
44879,note_on,239,0,4,,,,,,,,3,,,50,0
44879,note_on,0,0,1,,,,,,,,0,,,83,0
44879,note_on,0,0,1,,,,,,,,0,,,74,0
44879,note_on,0,0,1,,,,,,,,0,,,79,0
44879,note_on,479,0,1,,,,,,,,0,,,71,0
44879,note_on,719,0,3,,,,,,,,2,,,59,0
44880,note_on,1,0,4,,,,,,,,3,,,55,31
44880,note_on,1,0,1,,,,,,,,0,,,79,58
44880,note_on,0,0,1,,,,,,,,0,,,74,58
44880,note_on,0,0,1,,,,,,,,0,,,83,58
44880,note_on,0,0,1,,,,,,,,0,,,71,58
44880,note_on,1,0,3,,,,,,,,2,,,59,62
45119,note_on,239,0,4,,,,,,,,3,,,55,0
45119,note_on,239,0,1,,,,,,,,0,,,71,0
45119,note_on,0,0,1,,,,,,,,0,,,79,0
45119,note_on,0,0,1,,,,,,,,0,,,74,0
45119,note_on,0,0,1,,,,,,,,0,,,83,0
45119,note_on,239,0,3,,,,,,,,2,,,59,0
45120,note_on,0,0,3,,,,,,,,2,,,62,76
45120,control_change,1,0,3,,,,,,,,2,64,0,,
45120,control_change,1,0,1,,,,,,,,0,64,0,,
45120,note_on,0,0,1,,,,,,,,0,,,74,64
45120,note_on,0,0,1,,,,,,,,0,,,81,64
45120,control_change,1,0,4,,,,,,,,3,64,0,,
45120,note_on,0,0,4,,,,,,,,3,,,38,31
45120,note_on,0,0,4,,,,,,,,3,,,62,31
45120,note_on,0,0,1,,,,,,,,0,,,79,64
45120,note_on,0,0,1,,,,,,,,0,,,86,64
45200,control_change,80,0,4,,,,,,,,3,64,127,,
45223,control_change,103,0,1,,,,,,,,0,64,127,,
45291,control_change,171,0,3,,,,,,,,2,64,127,,
45359,note_on,0,0,4,,,,,,,,3,,,62,0
45359,note_on,159,0,4,,,,,,,,3,,,38,0
45360,note_on,0,0,4,,,,,,,,3,,,55,31
45360,note_on,1,0,4,,,,,,,,3,,,57,31
45599,note_on,376,0,1,,,,,,,,0,,,81,0
45599,note_on,0,0,1,,,,,,,,0,,,86,0
45599,note_on,0,0,1,,,,,,,,0,,,74,0
45599,note_on,0,0,1,,,,,,,,0,,,79,0
45599,note_on,308,0,3,,,,,,,,2,,,62,0
45599,note_on,239,0,4,,,,,,,,3,,,55,0
45599,note_on,0,0,4,,,,,,,,3,,,57,0
45600,note_on,1,0,1,,,,,,,,0,,,81,64
45600,note_on,0,0,1,,,,,,,,0,,,86,64
45600,note_on,0,0,1,,,,,,,,0,,,78,64
45600,note_on,0,0,1,,,,,,,,0,,,74,64
45600,note_on,1,0,3,,,,,,,,2,,,62,75
45600,note_on,1,0,4,,,,,,,,3,,,50,31
45839,note_on,239,0,4,,,,,,,,3,,,50,0
45840,note_on,1,0,4,,,,,,,,3,,,57,31
45840,note_on,0,0,4,,,,,,,,3,,,54,31
45943,control_change,343,0,1,,,,,,,,0,64,0,,
45977,control_change,377,0,3,,,,,,,,2,64,0,,
46032,note_on,55,0,3,,,,,,,,2,,,62,0
46032,note_on,0,0,1,,,,,,,,0,,,81,0
46032,note_on,0,0,1,,,,,,,,0,,,78,0
46032,note_on,0,0,1,,,,,,,,0,,,74,0
46032,note_on,89,0,1,,,,,,,,0,,,86,0
46056,note_on,216,0,4,,,,,,,,3,,,54,0
46056,note_on,0,0,4,,,,,,,,3,,,57,0
46080,control_change,48,0,3,,,,,,,,2,64,127,,
46080,note_on,0,0,1,,,,,,,,0,,,71,56
46080,note_on,0,0,1,,,,,,,,0,,,79,56
46080,control_change,48,0,1,,,,,,,,0,64,127,,
46080,note_on,24,0,4,,,,,,,,3,,,43,60
46080,note_on,0,0,1,,,,,,,,0,,,67,56
46080,note_on,0,0,3,,,,,,,,2,,,55,75
46160,control_change,80,0,4,,,,,,,,3,64,0,,
46251,control_change,91,0,4,,,,,,,,3,64,127,,
46319,note_on,68,0,4,,,,,,,,3,,,43,0
46320,note_on,1,0,4,,,,,,,,3,,,50,31
46559,note_on,239,0,4,,,,,,,,3,,,50,0
46560,note_on,1,0,4,,,,,,,,3,,,47,31
46799,note_on,239,0,4,,,,,,,,3,,,47,0
46800,note_on,1,0,4,,,,,,,,3,,,50,31
46944,note_on,864,0,3,,,,,,,,2,,,55,0
47039,note_on,239,0,4,,,,,,,,3,,,50,0
47040,control_change,960,0,1,,,,,,,,0,64,0,,
47040,note_on,1,0,4,,,,,,,,3,,,43,31
47040,control_change,96,0,3,,,,,,,,2,64,0,,
47211,control_change,171,0,4,,,,,,,,3,64,0,,
47279,note_on,68,0,4,,,,,,,,3,,,43,0
47280,note_on,1,0,4,,,,,,,,3,,,59,31
47519,note_on,0,0,1,,,,,,,,0,,,79,0
47519,note_on,239,0,4,,,,,,,,3,,,59,0
47519,note_on,0,0,1,,,,,,,,0,,,71,0
47519,note_on,479,0,1,,,,,,,,0,,,67,0
47520,note_on,1,0,1,,,,,,,,0,,,71,64
47520,note_on,0,0,1,,,,,,,,0,,,74,64
47520,note_on,1,0,4,,,,,,,,3,,,55,31
47520,note_on,0,0,4,,,,,,,,3,,,50,31
47520,note_on,0,0,1,,,,,,,,0,,,67,64
47759,note_on,0,0,4,,,,,,,,3,,,55,0
47759,note_on,239,0,4,,,,,,,,3,,,50,0
47760,note_on,1,0,4,,,,,,,,3,,,59,31
47952,note_on,0,0,1,,,,,,,,0,,,67,0
47952,note_on,432,0,1,,,,,,,,0,,,74,0
47952,note_on,0,0,1,,,,,,,,0,,,71,0
47976,set_tempo,4345,1,0,,,,,,774793,,,,,,
47976,note_on,216,0,4,,,,,,,,3,,,59,0
48000,note_on,24,0,4,,,,,,,,3,,,48,58
48000,note_on,0,0,1,,,,,,,,0,,,67,64
48000,note_on,0,0,1,,,,,,,,0,,,76,64
48000,note_on,0,0,1,,,,,,,,0,,,69,64
48000,control_change,48,0,1,,,,,,,,0,64,127,,
48239,note_on,239,0,4,,,,,,,,3,,,48,0
48240,note_on,1,0,4,,,,,,,,3,,,64,31
48479,note_on,239,0,4,,,,,,,,3,,,64,0
48480,note_on,1,0,4,,,,,,,,3,,,57,31
48719,note_on,239,0,4,,,,,,,,3,,,57,0
48719,note_on,0,0,1,,,,,,,,0,,,76,0
48719,note_on,0,0,1,,,,,,,,0,,,67,0
48719,note_on,719,0,1,,,,,,,,0,,,69,0
48720,note_on,0,0,1,,,,,,,,0,,,76,56
48720,note_on,0,0,1,,,,,,,,0,,,67,56
48720,note_on,1,0,1,,,,,,,,0,,,69,56
48720,note_on,1,0,4,,,,,,,,3,,,64,31
48959,note_on,239,0,4,,,,,,,,3,,,64,0
48959,note_on,0,0,1,,,,,,,,0,,,69,0
48959,note_on,0,0,1,,,,,,,,0,,,67,0
48959,note_on,239,0,1,,,,,,,,0,,,76,0
48960,note_on,0,0,1,,,,,,,,0,,,74,64
48960,control_change,1,0,1,,,,,,,,0,64,0,,
48960,note_on,0,0,1,,,,,,,,0,,,72,64
48960,note_on,1,0,4,,,,,,,,3,,,50,31
48960,note_on,0,0,1,,,,,,,,0,,,66,64
49199,note_on,239,0,4,,,,,,,,3,,,50,0
49200,note_on,1,0,4,,,,,,,,3,,,62,31
49439,note_on,479,0,1,,,,,,,,0,,,72,0
49439,note_on,239,0,4,,,,,,,,3,,,62,0
49439,note_on,0,0,1,,,,,,,,0,,,74,0
49439,note_on,0,0,1,,,,,,,,0,,,66,0
49440,note_on,1,0,1,,,,,,,,0,,,74,64
49440,note_on,1,0,4,,,,,,,,3,,,60,31
49440,note_on,0,0,4,,,,,,,,3,,,57,31
49440,note_on,0,0,1,,,,,,,,0,,,66,64
49440,note_on,0,0,1,,,,,,,,0,,,72,64
49679,note_on,239,0,4,,,,,,,,3,,,57,0
49679,note_on,0,0,4,,,,,,,,3,,,60,0
49680,note_on,1,0,4,,,,,,,,3,,,62,31
49872,note_on,0,0,1,,,,,,,,0,,,72,0
49872,note_on,432,0,1,,,,,,,,0,,,66,0
49872,note_on,0,0,1,,,,,,,,0,,,74,0
49896,note_on,216,0,4,,,,,,,,3,,,62,0
49920,note_on,0,0,1,,,,,,,,0,,,67,56
49920,note_on,24,0,4,,,,,,,,3,,,43,31
49920,note_on,0,0,1,,,,,,,,0,,,74,56
49920,note_on,0,0,1,,,,,,,,0,,,71,56
49920,control_change,48,0,1,,,,,,,,0,64,127,,
50159,note_on,239,0,4,,,,,,,,3,,,43,0
50160,note_on,1,0,4,,,,,,,,3,,,62,31
50399,note_on,239,0,4,,,,,,,,3,,,62,0
50400,note_on,0,0,4,,,,,,,,3,,,55,31
50400,note_on,1,0,4,,,,,,,,3,,,59,31
50639,note_on,0,0,4,,,,,,,,3,,,59,0
50639,note_on,239,0,4,,,,,,,,3,,,55,0
50640,note_on,1,0,4,,,,,,,,3,,,62,32
50872,set_tempo,2896,1,0,,,,,,765306,,,,,,
50879,note_on,0,0,1,,,,,,,,0,,,71,0
50879,note_on,959,0,1,,,,,,,,0,,,74,0
50879,note_on,0,0,1,,,,,,,,0,,,67,0
50879,note_on,239,0,4,,,,,,,,3,,,62,0
50880,note_on,0,0,1,,,,,,,,0,,,72,64
50880,control_change,1,0,1,,,,,,,,0,64,0,,
50880,note_on,1,0,4,,,,,,,,3,,,43,65
50880,note_on,0,0,1,,,,,,,,0,,,67,64
50880,note_on,0,0,1,,,,,,,,0,,,64,64
50889,set_tempo,17,1,0,,,,,,760649,,,,,,
50905,set_tempo,16,1,0,,,,,,756048,,,,,,
50922,set_tempo,17,1,0,,,,,,751503,,,,,,
50938,set_tempo,16,1,0,,,,,,747012,,,,,,
50955,set_tempo,17,1,0,,,,,,742574,,,,,,
50971,set_tempo,16,1,0,,,,,,738189,,,,,,
50988,set_tempo,17,1,0,,,,,,733855,,,,,,
51004,set_tempo,16,1,0,,,,,,729572,,,,,,
51021,set_tempo,17,1,0,,,,,,725338,,,,,,
51038,set_tempo,17,1,0,,,,,,721154,,,,,,
51054,set_tempo,16,1,0,,,,,,717017,,,,,,
51071,set_tempo,17,1,0,,,,,,712928,,,,,,
51087,set_tempo,16,1,0,,,,,,708885,,,,,,
51104,set_tempo,17,1,0,,,,,,704887,,,,,,
51119,note_on,239,0,1,,,,,,,,0,,,67,0
51119,note_on,0,0,1,,,,,,,,0,,,64,0
51119,note_on,0,0,1,,,,,,,,0,,,72,0
51119,note_on,239,0,4,,,,,,,,3,,,43,0
51120,note_on,0,0,1,,,,,,,,0,,,71,61
51120,note_on,0,0,1,,,,,,,,0,,,62,61
51120,note_on,1,0,1,,,,,,,,0,,,67,61
51120,note_on,1,0,4,,,,,,,,3,,,55,62
51120,set_tempo,16,1,0,,,,,,700935,,,,,,
51137,set_tempo,17,1,0,,,,,,697026,,,,,,
51302,set_tempo,165,1,0,,,,,,689338,,,,,,
51359,note_on,0,0,1,,,,,,,,0,,,67,0
51359,note_on,0,0,1,,,,,,,,0,,,62,0
51359,note_on,239,0,1,,,,,,,,0,,,71,0
51359,note_on,239,0,4,,,,,,,,3,,,55,0
51360,note_on,0,0,1,,,,,,,,0,,,62,58
51360,note_on,0,0,1,,,,,,,,0,,,69,58
51360,note_on,1,0,1,,,,,,,,0,,,60,58
51360,note_on,1,0,4,,,,,,,,3,,,50,58
51468,set_tempo,166,1,0,,,,,,693161,,,,,,
51599,note_on,239,0,1,,,,,,,,0,,,62,0
51599,note_on,239,0,4,,,,,,,,3,,,50,0
51599,note_on,0,0,1,,,,,,,,0,,,60,0
51599,note_on,0,0,1,,,,,,,,0,,,69,0
51600,note_on,1,0,1,,,,,,,,0,,,59,54
51600,note_on,1,0,4,,,,,,,,3,,,55,55
51600,note_on,0,0,1,,,,,,,,0,,,62,54
51600,note_on,0,0,1,,,,,,,,0,,,67,54
51816,note_on,216,0,1,,,,,,,,0,,,67,0
51816,note_on,0,0,1,,,,,,,,0,,,62,0
51816,note_on,0,0,1,,,,,,,,0,,,59,0
51816,note_on,216,0,4,,,,,,,,3,,,55,0
51840,note_on,24,0,4,,,,,,,,3,,,36,51
51840,control_change,4800,0,3,,,,,,,,2,64,127,,
51840,note_on,0,0,3,,,,,,,,2,,,64,64
51840,note_on,0,0,3,,,,,,,,2,,,60,64
51840,control_change,24,0,1,,,,,,,,0,64,127,,
51840,note_on,0,0,1,,,,,,,,0,,,67,51
52079,note_on,239,0,4,,,,,,,,3,,,36,0
52080,note_on,1,0,4,,,,,,,,3,,,55,32
52319,note_on,239,0,4,,,,,,,,3,,,55,0
52319,note_on,479,0,1,,,,,,,,0,,,67,0
52320,note_on,1,0,1,,,,,,,,0,,,69,64
52320,note_on,1,0,4,,,,,,,,3,,,52,32
52320,note_on,0,0,4,,,,,,,,3,,,48,32
52559,note_on,239,0,1,,,,,,,,0,,,69,0
52559,note_on,719,0,3,,,,,,,,2,,,60,0
52559,note_on,239,0,4,,,,,,,,3,,,48,0
52559,note_on,0,0,4,,,,,,,,3,,,52,0
52559,note_on,0,0,3,,,,,,,,2,,,64,0
52560,note_on,1,0,4,,,,,,,,3,,,55,32
52560,note_on,0,0,3,,,,,,,,2,,,60,56
52560,note_on,1,0,3,,,,,,,,2,,,64,56
52560,note_on,1,0,1,,,,,,,,0,,,69,56
52799,note_on,239,0,1,,,,,,,,0,,,69,0
52799,note_on,0,0,3,,,,,,,,2,,,64,0
52799,note_on,239,0,3,,,,,,,,2,,,60,0
52799,note_on,239,0,4,,,,,,,,3,,,55,0
52800,note_on,0,0,3,,,,,,,,2,,,62,64
52800,note_on,0,0,3,,,,,,,,2,,,66,64
52800,control_change,1,0,3,,,,,,,,2,64,0,,
52800,note_on,1,0,4,,,,,,,,3,,,38,32
52800,note_on,0,0,1,,,,,,,,0,,,69,64
52800,control_change,1,0,1,,,,,,,,0,64,0,,
53039,note_on,239,0,4,,,,,,,,3,,,38,0
53040,note_on,1,0,4,,,,,,,,3,,,57,32
53279,note_on,479,0,1,,,,,,,,0,,,69,0
53279,note_on,239,0,4,,,,,,,,3,,,57,0
53280,note_on,1,0,4,,,,,,,,3,,,54,32
53280,note_on,1,0,1,,,,,,,,0,,,71,64
53280,note_on,0,0,4,,,,,,,,3,,,50,32
53519,note_on,239,0,1,,,,,,,,0,,,71,0
53519,note_on,719,0,3,,,,,,,,2,,,62,0
53519,note_on,0,0,3,,,,,,,,2,,,66,0
53519,note_on,239,0,4,,,,,,,,3,,,50,0
53519,note_on,0,0,4,,,,,,,,3,,,54,0
53520,note_on,1,0,3,,,,,,,,2,,,66,64
53520,note_on,0,0,3,,,,,,,,2,,,62,64
53520,note_on,1,0,1,,,,,,,,0,,,71,54
53520,note_on,1,0,4,,,,,,,,3,,,59,32
53736,note_on,216,0,3,,,,,,,,2,,,62,0
53736,note_on,0,0,3,,,,,,,,2,,,66,0
53736,note_on,216,0,1,,,,,,,,0,,,71,0
53736,note_on,216,0,4,,,,,,,,3,,,59,0
53760,note_on,0,0,1,,,,,,,,0,,,71,64
53760,note_on,0,0,1,,,,,,,,0,,,62,64
53760,note_on,24,0,1,,,,,,,,0,,,67,64
53760,note_on,24,0,4,,,,,,,,3,,,43,58
53794,control_change,34,0,1,,,,,,,,0,64,127,,
53999,note_on,239,0,4,,,,,,,,3,,,43,0
54000,note_on,1,0,4,,,,,,,,3,,,59,32
54239,note_on,239,0,4,,,,,,,,3,,,59,0
54240,note_on,0,0,4,,,,,,,,3,,,50,32
54240,note_on,1,0,4,,,,,,,,3,,,55,32
54479,note_on,0,0,4,,,,,,,,3,,,55,0
54479,note_on,239,0,4,,,,,,,,3,,,50,0
54480,note_on,1,0,4,,,,,,,,3,,,59,32
54719,note_on,239,0,4,,,,,,,,3,,,59,0
54720,note_on,1,0,4,,,,,,,,3,,,43,32
54754,control_change,960,0,1,,,,,,,,0,64,0,,
54959,note_on,239,0,4,,,,,,,,3,,,43,0
54960,note_on,1,0,4,,,,,,,,3,,,55,32
55199,note_on,239,0,4,,,,,,,,3,,,55,0
55200,note_on,1,0,4,,,,,,,,3,,,47,32
55200,note_on,0,0,4,,,,,,,,3,,,50,32
55439,note_on,0,0,1,,,,,,,,0,,,67,0
55439,note_on,0,0,4,,,,,,,,3,,,47,0
55439,note_on,239,0,4,,,,,,,,3,,,50,0
55439,note_on,0,0,1,,,,,,,,0,,,62,0
55439,note_on,685,0,1,,,,,,,,0,,,71,0
55440,note_on,1,0,1,,,,,,,,0,,,59,77
55440,note_on,0,0,1,,,,,,,,0,,,71,77
55440,note_on,1,0,4,,,,,,,,3,,,55,35
55656,note_on,216,0,1,,,,,,,,0,,,71,0
55656,note_on,0,0,1,,,,,,,,0,,,59,0
55656,note_on,216,0,4,,,,,,,,3,,,55,0
55679,set_tempo,4211,1,0,,,,,,674460,,,,,,
55680,note_on,0,0,4,,,,,,,,3,,,50,64
55680,control_change,29064,0,2,,,,,,,,1,64,127,,
55680,note_on,0,0,2,,,,,,,,1,,,57,36
55680,control_change,24,0,1,,,,,,,,0,64,127,,
55680,note_on,0,0,1,,,,,,,,0,,,69,77
55680,note_on,0,0,1,,,,,,,,0,,,57,77
55680,note_on,0,0,4,,,,,,,,3,,,38,64
55680,control_change,1944,0,3,,,,,,,,2,64,127,,
55680,control_change,24,0,4,,,,,,,,3,64,127,,
55766,note_on,0,0,4,,,,,,,,3,,,38,0
55766,note_on,86,0,4,,,,,,,,3,,,50,0
55919,note_on,239,0,2,,,,,,,,1,,,57,0
55920,note_on,0,0,3,,,,,,,,2,,,74,48
55920,note_on,1,0,2,,,,,,,,1,,,62,37
55920,note_on,240,0,3,,,,,,,,2,,,81,48
55920,note_on,0,0,3,,,,,,,,2,,,78,48
55920,note_on,0,0,2,,,,,,,,1,,,66,37
56159,note_on,0,0,2,,,,,,,,1,,,62,0
56159,note_on,239,0,2,,,,,,,,1,,,66,0
56159,note_on,479,0,1,,,,,,,,0,,,57,0
56159,note_on,0,0,1,,,,,,,,0,,,69,0
56160,note_on,1,0,1,,,,,,,,0,,,69,88
56160,note_on,1,0,2,,,,,,,,1,,,57,39
56399,note_on,239,0,2,,,,,,,,1,,,57,0
56399,note_on,479,0,3,,,,,,,,2,,,74,0
56399,note_on,0,0,3,,,,,,,,2,,,81,0
56399,note_on,0,0,3,,,,,,,,2,,,78,0
56399,note_on,239,0,1,,,,,,,,0,,,69,0
56400,note_on,0,0,3,,,,,,,,2,,,78,47
56400,note_on,0,0,3,,,,,,,,2,,,74,47
56400,note_on,1,0,1,,,,,,,,0,,,69,88
56400,note_on,1,0,3,,,,,,,,2,,,81,47
56400,note_on,0,0,2,,,,,,,,1,,,66,40
56400,note_on,1,0,2,,,,,,,,1,,,62,40
56639,note_on,239,0,3,,,,,,,,2,,,74,0
56639,note_on,0,0,3,,,,,,,,2,,,78,0
56639,note_on,239,0,1,,,,,,,,0,,,69,0
56639,note_on,0,0,3,,,,,,,,2,,,81,0
56639,note_on,0,0,2,,,,,,,,1,,,62,0
56639,note_on,239,0,2,,,,,,,,1,,,66,0
56640,control_change,874,0,4,,,,,,,,3,64,0,,
56640,note_on,1,0,1,,,,,,,,0,,,74,88
56640,control_change,1,0,3,,,,,,,,2,64,0,,
56640,note_on,1,0,2,,,,,,,,1,,,62,42
56640,note_on,0,0,3,,,,,,,,2,,,78,45
56640,note_on,0,0,3,,,,,,,,2,,,81,45
56640,note_on,0,0,3,,,,,,,,2,,,86,45
56655,set_tempo,976,1,0,,,,,,656743,,,,,,
56735,note_on,0,0,3,,,,,,,,2,,,78,0
56735,note_on,95,0,3,,,,,,,,2,,,86,0
56735,note_on,0,0,3,,,,,,,,2,,,81,0
56879,note_on,239,0,2,,,,,,,,1,,,62,0
56880,note_on,0,0,3,,,,,,,,2,,,62,43
56880,note_on,145,0,3,,,,,,,,2,,,57,43
56880,note_on,1,0,2,,,,,,,,1,,,66,43
56880,note_on,0,0,2,,,,,,,,1,,,69,43
56975,note_on,95,0,3,,,,,,,,2,,,62,0
56975,note_on,0,0,3,,,,,,,,2,,,57,0
57119,note_on,239,0,2,,,,,,,,1,,,69,0
57119,note_on,479,0,1,,,,,,,,0,,,74,0
57119,note_on,0,0,2,,,,,,,,1,,,66,0
57120,note_on,145,0,3,,,,,,,,2,,,50,40
57120,note_on,1,0,1,,,,,,,,0,,,74,90
57120,note_on,1,0,2,,,,,,,,1,,,62,45
57215,note_on,95,0,3,,,,,,,,2,,,50,0
57359,note_on,239,0,2,,,,,,,,1,,,62,0
57360,note_on,1,0,2,,,,,,,,1,,,66,46
57360,note_on,0,0,3,,,,,,,,2,,,57,38
57360,note_on,0,0,2,,,,,,,,1,,,69,46
57360,note_on,145,0,3,,,,,,,,2,,,54,38
57440,control_change,80,0,2,,,,,,,,1,64,0,,
57446,note_on,0,0,3,,,,,,,,2,,,54,0
57446,note_on,86,0,3,,,,,,,,2,,,57,0
57520,control_change,400,0,1,,,,,,,,0,64,0,,
57552,note_on,32,0,1,,,,,,,,0,,,74,0
57576,note_on,0,0,2,,,,,,,,1,,,66,0
57576,note_on,136,0,2,,,,,,,,1,,,69,0
57600,note_on,0,0,3,,,,,,,,2,,,38,36
57600,control_change,154,0,3,,,,,,,,2,64,127,,
57600,note_on,0,0,1,,,,,,,,0,,,58,90
57600,control_change,24,0,2,,,,,,,,1,64,127,,
57600,note_on,0,0,1,,,,,,,,0,,,70,90
57600,note_on,0,0,3,,,,,,,,2,,,50,36
57600,control_change,48,0,1,,,,,,,,0,64,127,,
57600,note_on,0,0,2,,,,,,,,1,,,58,48
57695,note_on,0,0,3,,,,,,,,2,,,38,0
57695,note_on,95,0,3,,,,,,,,2,,,50,0
57719,note_on,119,0,2,,,,,,,,1,,,58,0
57840,note_on,0,0,2,,,,,,,,1,,,67,49
57840,note_on,121,0,2,,,,,,,,1,,,62,49
57840,note_on,0,0,3,,,,,,,,2,,,74,34
57840,note_on,0,0,3,,,,,,,,2,,,79,34
57840,note_on,145,0,3,,,,,,,,2,,,82,34
57959,note_on,0,0,1,,,,,,,,0,,,58,0
57959,note_on,0,0,2,,,,,,,,1,,,62,0
57959,note_on,119,0,2,,,,,,,,1,,,67,0
57959,note_on,359,0,1,,,,,,,,0,,,70,0
57960,note_on,0,0,1,,,,,,,,0,,,69,67
57960,note_on,1,0,1,,,,,,,,0,,,57,67
58079,note_on,0,0,1,,,,,,,,0,,,57,0
58079,note_on,119,0,1,,,,,,,,0,,,69,0
58080,note_on,0,0,1,,,,,,,,0,,,58,77
58080,note_on,1,0,1,,,,,,,,0,,,70,77
58080,note_on,121,0,2,,,,,,,,1,,,58,51
58199,note_on,119,0,2,,,,,,,,1,,,58,0
58319,note_on,479,0,3,,,,,,,,2,,,74,0
58319,note_on,0,0,3,,,,,,,,2,,,82,0
58319,note_on,0,0,3,,,,,,,,2,,,79,0
58320,note_on,1,0,3,,,,,,,,2,,,82,50
58320,note_on,0,0,3,,,,,,,,2,,,74,50
58320,note_on,0,0,2,,,,,,,,1,,,67,52
58320,note_on,0,0,3,,,,,,,,2,,,79,50
58320,note_on,121,0,2,,,,,,,,1,,,62,52
58439,note_on,0,0,2,,,,,,,,1,,,62,0
58439,note_on,359,0,1,,,,,,,,0,,,58,0
58439,note_on,0,0,1,,,,,,,,0,,,70,0
58439,note_on,119,0,2,,,,,,,,1,,,67,0
58440,note_on,1,0,1,,,,,,,,0,,,60,67
58440,note_on,0,0,1,,,,,,,,0,,,72,67
58559,note_on,0,0,1,,,,,,,,0,,,60,0
58559,note_on,239,0,3,,,,,,,,2,,,74,0
58559,note_on,0,0,3,,,,,,,,2,,,82,0
58559,note_on,0,0,3,,,,,,,,2,,,79,0
58559,note_on,119,0,1,,,,,,,,0,,,72,0
58560,control_change,1,0,3,,,,,,,,2,64,0,,
58560,note_on,0,0,3,,,,,,,,2,,,86,47
58560,note_on,0,0,3,,,,,,,,2,,,82,47
58560,note_on,0,0,3,,,,,,,,2,,,79,47
58560,note_on,0,0,1,,,,,,,,0,,,74,77
58560,note_on,121,0,2,,,,,,,,1,,,62,53
58560,note_on,1,0,1,,,,,,,,0,,,62,77
58655,note_on,95,0,3,,,,,,,,2,,,86,0
58655,note_on,0,0,3,,,,,,,,2,,,82,0
58655,note_on,0,0,3,,,,,,,,2,,,79,0
58679,note_on,119,0,2,,,,,,,,1,,,62,0
58800,note_on,121,0,2,,,,,,,,1,,,67,55
58800,note_on,0,0,2,,,,,,,,1,,,70,55
58800,note_on,145,0,3,,,,,,,,2,,,55,44
58800,note_on,0,0,3,,,,,,,,2,,,58,44
58895,note_on,0,0,3,,,,,,,,2,,,55,0
58895,note_on,95,0,3,,,,,,,,2,,,58,0
58919,note_on,119,0,2,,,,,,,,1,,,70,0
58919,note_on,0,0,2,,,,,,,,1,,,67,0
59040,note_on,121,0,2,,,,,,,,1,,,62,56
59040,note_on,145,0,3,,,,,,,,2,,,50,41
59135,note_on,95,0,3,,,,,,,,2,,,50,0
59159,note_on,119,0,2,,,,,,,,1,,,62,0
59279,note_on,0,0,1,,,,,,,,0,,,62,0
59279,note_on,719,0,1,,,,,,,,0,,,74,0
59280,note_on,145,0,3,,,,,,,,2,,,55,38
59280,note_on,0,0,3,,,,,,,,2,,,58,38
59280,note_on,1,0,1,,,,,,,,0,,,74,87
59280,note_on,121,0,2,,,,,,,,1,,,67,58
59280,note_on,0,0,2,,,,,,,,1,,,70,58
59366,note_on,86,0,3,,,,,,,,2,,,58,0
59366,note_on,0,0,3,,,,,,,,2,,,55,0
59383,control_change,103,0,2,,,,,,,,1,64,0,,
59388,note_on,0,0,2,,,,,,,,1,,,67,0
59388,note_on,5,0,2,,,,,,,,1,,,70,0
59400,control_change,120,0,1,,,,,,,,0,64,0,,
59496,note_on,96,0,1,,,,,,,,0,,,74,0
59520,control_change,24,0,1,,,,,,,,0,64,127,,
59520,control_change,132,0,2,,,,,,,,1,64,127,,
59520,note_on,0,0,2,,,,,,,,1,,,61,59
59520,note_on,0,0,3,,,,,,,,2,,,52,35
59520,note_on,0,0,1,,,,,,,,0,,,73,90
59520,note_on,0,0,3,,,,,,,,2,,,38,35
59520,control_change,154,0,3,,,,,,,,2,64,127,,
59520,note_on,0,0,1,,,,,,,,0,,,61,90
59615,note_on,0,0,3,,,,,,,,2,,,38,0
59615,note_on,95,0,3,,,,,,,,2,,,52,0
59639,note_on,119,0,2,,,,,,,,1,,,61,0
59760,note_on,0,0,3,,,,,,,,2,,,82,32
59760,note_on,0,0,2,,,,,,,,1,,,70,61
59760,note_on,121,0,2,,,,,,,,1,,,67,61
59760,note_on,145,0,3,,,,,,,,2,,,85,32
59760,note_on,0,0,3,,,,,,,,2,,,76,32
59879,note_on,0,0,2,,,,,,,,1,,,67,0
59879,note_on,119,0,2,,,,,,,,1,,,70,0
59999,note_on,479,0,1,,,,,,,,0,,,73,0
59999,note_on,0,0,1,,,,,,,,0,,,61,0
60000,note_on,121,0,2,,,,,,,,1,,,61,59
60000,note_on,0,0,1,,,,,,,,0,,,61,78
60000,note_on,1,0,1,,,,,,,,0,,,73,78
60119,note_on,119,0,2,,,,,,,,1,,,61,0
60239,note_on,0,0,3,,,,,,,,2,,,82,0
60239,note_on,0,0,3,,,,,,,,2,,,85,0
60239,note_on,479,0,3,,,,,,,,2,,,76,0
60240,note_on,0,0,2,,,,,,,,1,,,70,58
60240,note_on,121,0,2,,,,,,,,1,,,67,58
60240,note_on,0,0,3,,,,,,,,2,,,76,46
60240,note_on,0,0,3,,,,,,,,2,,,82,46
60240,note_on,1,0,3,,,,,,,,2,,,85,46
60359,note_on,359,0,1,,,,,,,,0,,,61,0
60359,note_on,119,0,2,,,,,,,,1,,,70,0
60359,note_on,0,0,2,,,,,,,,1,,,67,0
60359,note_on,0,0,1,,,,,,,,0,,,73,0
60360,note_on,0,0,1,,,,,,,,0,,,61,68
60360,note_on,1,0,1,,,,,,,,0,,,73,68
60479,note_on,0,0,3,,,,,,,,2,,,82,0
60479,note_on,239,0,3,,,,,,,,2,,,76,0
60479,note_on,0,0,1,,,,,,,,0,,,73,0
60479,note_on,0,0,3,,,,,,,,2,,,85,0
60479,note_on,119,0,1,,,,,,,,0,,,61,0
60480,note_on,1,0,1,,,,,,,,0,,,76,96
60480,note_on,0,0,3,,,,,,,,2,,,79,44
60480,control_change,1,0,3,,,,,,,,2,64,0,,
60480,note_on,0,0,1,,,,,,,,0,,,64,96
60480,note_on,121,0,2,,,,,,,,1,,,64,56
60480,note_on,0,0,3,,,,,,,,2,,,84,44
60480,note_on,0,0,3,,,,,,,,2,,,88,44
60575,note_on,0,0,3,,,,,,,,2,,,84,0
60575,note_on,0,0,3,,,,,,,,2,,,79,0
60575,note_on,95,0,3,,,,,,,,2,,,88,0
60599,note_on,119,0,2,,,,,,,,1,,,64,0
60720,note_on,0,0,2,,,,,,,,1,,,70,54
60720,note_on,121,0,2,,,,,,,,1,,,67,54
60720,note_on,0,0,3,,,,,,,,2,,,64,42
60720,note_on,145,0,3,,,,,,,,2,,,61,42
60815,note_on,0,0,3,,,,,,,,2,,,61,0
60815,note_on,95,0,3,,,,,,,,2,,,64,0
60839,note_on,119,0,2,,,,,,,,1,,,70,0
60839,note_on,0,0,2,,,,,,,,1,,,67,0
60960,note_on,121,0,2,,,,,,,,1,,,64,53
60960,note_on,145,0,3,,,,,,,,2,,,50,40
61055,note_on,95,0,3,,,,,,,,2,,,50,0
61056,control_change,576,0,1,,,,,,,,0,64,0,,
61079,note_on,119,0,2,,,,,,,,1,,,64,0
61199,note_on,0,0,1,,,,,,,,0,,,76,0
61199,note_on,143,0,1,,,,,,,,0,,,64,0
61200,note_on,145,0,3,,,,,,,,2,,,55,38
61200,note_on,0,0,3,,,,,,,,2,,,58,38
61200,note_on,1,0,1,,,,,,,,0,,,61,85
61200,note_on,0,0,1,,,,,,,,0,,,73,85
61200,note_on,121,0,2,,,,,,,,1,,,61,51
61286,note_on,86,0,3,,,,,,,,2,,,58,0
61286,note_on,0,0,3,,,,,,,,2,,,55,0
61296,control_change,96,0,2,,,,,,,,1,64,0,,
61308,note_on,12,0,2,,,,,,,,1,,,61,0
61380,set_tempo,4725,1,0,,,,,,623960,,,,,,
61416,note_on,216,0,1,,,,,,,,0,,,73,0
61416,note_on,0,0,1,,,,,,,,0,,,61,0
61440,control_change,132,0,2,,,,,,,,1,64,127,,
61440,note_on,0,0,2,,,,,,,,1,,,62,49
61440,control_change,154,0,3,,,,,,,,2,64,127,,
61440,note_on,0,0,1,,,,,,,,0,,,74,89
61440,note_on,0,0,3,,,,,,,,2,,,54,35
61440,note_on,0,0,3,,,,,,,,2,,,38,35
61440,control_change,24,0,1,,,,,,,,0,64,127,,
61535,note_on,95,0,3,,,,,,,,2,,,54,0
61535,note_on,0,0,3,,,,,,,,2,,,38,0
61559,note_on,119,0,2,,,,,,,,1,,,62,0
61680,note_on,0,0,2,,,,,,,,1,,,69,47
61680,note_on,121,0,2,,,,,,,,1,,,66,47
61680,note_on,0,0,3,,,,,,,,2,,,78,33
61680,note_on,145,0,3,,,,,,,,2,,,81,33
61680,note_on,0,0,3,,,,,,,,2,,,74,33
61799,note_on,0,0,2,,,,,,,,1,,,66,0
61799,note_on,119,0,2,,,,,,,,1,,,69,0
61920,note_on,121,0,2,,,,,,,,1,,,62,46
62039,note_on,119,0,2,,,,,,,,1,,,62,0
62159,note_on,479,0,3,,,,,,,,2,,,74,0
62159,note_on,0,0,3,,,,,,,,2,,,81,0
62159,note_on,0,0,3,,,,,,,,2,,,78,0
62160,note_on,0,0,2,,,,,,,,1,,,69,44
62160,note_on,0,0,3,,,,,,,,2,,,74,49
62160,note_on,0,0,3,,,,,,,,2,,,78,49
62160,note_on,1,0,3,,,,,,,,2,,,81,49
62160,note_on,121,0,2,,,,,,,,1,,,66,44
62279,note_on,119,0,2,,,,,,,,1,,,69,0
62279,note_on,0,0,2,,,,,,,,1,,,66,0
62399,note_on,0,0,3,,,,,,,,2,,,81,0
62399,note_on,0,0,3,,,,,,,,2,,,78,0
62399,note_on,239,0,3,,,,,,,,2,,,74,0
62400,note_on,121,0,2,,,,,,,,1,,,62,42
62400,note_on,0,0,3,,,,,,,,2,,,86,47
62400,control_change,960,0,1,,,,,,,,0,64,0,,
62400,control_change,1,0,3,,,,,,,,2,64,0,,
62400,note_on,0,0,3,,,,,,,,2,,,78,47
62400,note_on,0,0,3,,,,,,,,2,,,81,47
62495,note_on,0,0,3,,,,,,,,2,,,78,0
62495,note_on,0,0,3,,,,,,,,2,,,81,0
62495,note_on,95,0,3,,,,,,,,2,,,86,0
62519,note_on,119,0,2,,,,,,,,1,,,62,0
62640,note_on,0,0,3,,,,,,,,2,,,57,45
62640,note_on,145,0,3,,,,,,,,2,,,54,45
62640,note_on,0,0,2,,,,,,,,1,,,66,41
62640,note_on,121,0,2,,,,,,,,1,,,62,41
62735,note_on,95,0,3,,,,,,,,2,,,57,0
62735,note_on,0,0,3,,,,,,,,2,,,54,0
62759,note_on,0,0,2,,,,,,,,1,,,62,0
62759,note_on,119,0,2,,,,,,,,1,,,66,0
62879,note_on,479,0,1,,,,,,,,0,,,74,0
62880,note_on,1,0,1,,,,,,,,0,,,69,88
62880,note_on,145,0,3,,,,,,,,2,,,50,43
62880,note_on,121,0,2,,,,,,,,1,,,57,39
62975,note_on,95,0,3,,,,,,,,2,,,50,0
62999,note_on,119,0,2,,,,,,,,1,,,57,0
63093,control_change,94,0,2,,,,,,,,1,64,0,,
63120,note_on,145,0,3,,,,,,,,2,,,54,41
63120,note_on,27,0,2,,,,,,,,1,,,62,37
63120,note_on,0,0,2,,,,,,,,1,,,66,37
63120,note_on,0,0,3,,,,,,,,2,,,57,41
63206,note_on,86,0,3,,,,,,,,2,,,57,0
63206,note_on,0,0,3,,,,,,,,2,,,54,0
63227,control_change,21,0,3,,,,,,,,2,64,127,,
63228,note_on,108,0,2,,,,,,,,1,,,66,0
63228,note_on,0,0,2,,,,,,,,1,,,62,0
63280,control_change,52,0,2,,,,,,,,1,64,127,,
63312,note_on,432,0,1,,,,,,,,0,,,69,0
63360,note_on,80,0,2,,,,,,,,1,,,57,35
63360,note_on,0,0,3,,,,,,,,2,,,50,38
63360,note_on,48,0,1,,,,,,,,0,,,69,87
63360,note_on,133,0,3,,,,,,,,2,,,38,38
63387,control_change,27,0,1,,,,,,,,0,64,127,,
63455,note_on,0,0,3,,,,,,,,2,,,38,0
63455,note_on,95,0,3,,,,,,,,2,,,50,0
63479,note_on,119,0,2,,,,,,,,1,,,57,0
63600,note_on,121,0,2,,,,,,,,1,,,62,36
63600,note_on,0,0,2,,,,,,,,1,,,66,36
63600,note_on,145,0,3,,,,,,,,2,,,81,36
63600,note_on,0,0,3,,,,,,,,2,,,78,36
63600,note_on,0,0,3,,,,,,,,2,,,74,36
63719,note_on,0,0,2,,,,,,,,1,,,62,0
63719,note_on,119,0,2,,,,,,,,1,,,66,0
63840,note_on,121,0,2,,,,,,,,1,,,57,38
63959,note_on,119,0,2,,,,,,,,1,,,57,0
64079,note_on,479,0,3,,,,,,,,2,,,74,0
64079,note_on,0,0,3,,,,,,,,2,,,81,0
64079,note_on,0,0,3,,,,,,,,2,,,78,0
64079,note_on,692,0,1,,,,,,,,0,,,69,0
64080,note_on,1,0,3,,,,,,,,2,,,81,47
64080,note_on,0,0,3,,,,,,,,2,,,78,47
64080,note_on,0,0,3,,,,,,,,2,,,74,47
64080,note_on,0,0,2,,,,,,,,1,,,66,40
64080,note_on,121,0,2,,,,,,,,1,,,62,40
64080,note_on,1,0,1,,,,,,,,0,,,69,83
64187,control_change,107,0,3,,,,,,,,2,64,0,,
64199,note_on,119,0,2,,,,,,,,1,,,66,0
64199,note_on,0,0,2,,,,,,,,1,,,62,0
64240,control_change,41,0,2,,,,,,,,1,64,0,,
64319,note_on,0,0,3,,,,,,,,2,,,81,0
64319,note_on,239,0,1,,,,,,,,0,,,69,0
64319,note_on,0,0,3,,,,,,,,2,,,78,0
64319,note_on,132,0,3,,,,,,,,2,,,74,0
64320,note_on,0,0,3,,,,,,,,2,,,86,45
64320,note_on,1,0,1,,,,,,,,0,,,74,87
64320,note_on,0,0,3,,,,,,,,2,,,81,45
64320,note_on,1,0,3,,,,,,,,2,,,78,45
64320,note_on,80,0,2,,,,,,,,1,,,62,41
64347,control_change,27,0,1,,,,,,,,0,64,0,,
64415,note_on,0,0,3,,,,,,,,2,,,78,0
64415,note_on,95,0,3,,,,,,,,2,,,86,0
64415,note_on,0,0,3,,,,,,,,2,,,81,0
64439,note_on,119,0,2,,,,,,,,1,,,62,0
64560,note_on,121,0,2,,,,,,,,1,,,66,43
64560,note_on,0,0,2,,,,,,,,1,,,69,43
64560,note_on,0,0,3,,,,,,,,2,,,62,43
64560,note_on,145,0,3,,,,,,,,2,,,57,43
64655,note_on,0,0,3,,,,,,,,2,,,57,0
64655,note_on,95,0,3,,,,,,,,2,,,62,0
64679,note_on,0,0,2,,,,,,,,1,,,66,0
64679,note_on,119,0,2,,,,,,,,1,,,69,0
64800,note_on,145,0,3,,,,,,,,2,,,50,41
64800,note_on,121,0,2,,,,,,,,1,,,62,45
64895,note_on,95,0,3,,,,,,,,2,,,50,0
64919,note_on,119,0,2,,,,,,,,1,,,62,0
65039,note_on,692,0,1,,,,,,,,0,,,74,0
65040,note_on,1,0,1,,,,,,,,0,,,72,92
65040,note_on,121,0,2,,,,,,,,1,,,60,46
65040,note_on,145,0,3,,,,,,,,2,,,54,39
65040,note_on,0,0,3,,,,,,,,2,,,57,39
65126,note_on,86,0,3,,,,,,,,2,,,57,0
65126,note_on,0,0,3,,,,,,,,2,,,54,0
65148,note_on,108,0,2,,,,,,,,1,,,60,0
65256,note_on,216,0,1,,,,,,,,0,,,72,0
65280,control_change,154,0,3,,,,,,,,2,64,127,,
65280,note_on,132,0,2,,,,,,,,1,,,60,48
65280,note_on,0,0,3,,,,,,,,2,,,50,37
65280,note_on,0,0,3,,,,,,,,2,,,38,37
65280,control_change,24,0,1,,,,,,,,0,64,127,,
65280,note_on,0,0,1,,,,,,,,0,,,60,87
65280,note_on,0,0,1,,,,,,,,0,,,72,87
65339,note_on,59,0,2,,,,,,,,1,,,60,0
65375,note_on,0,0,3,,,,,,,,2,,,38,0
65375,note_on,95,0,3,,,,,,,,2,,,50,0
65520,note_on,0,0,3,,,,,,,,2,,,79,35
65520,note_on,0,0,3,,,,,,,,2,,,74,35
65520,note_on,145,0,3,,,,,,,,2,,,83,35
65520,note_on,0,0,2,,,,,,,,1,,,67,50
65520,note_on,181,0,2,,,,,,,,1,,,62,50
65579,note_on,0,0,2,,,,,,,,1,,,62,0
65579,note_on,59,0,2,,,,,,,,1,,,67,0
65639,note_on,359,0,1,,,,,,,,0,,,72,0
65639,note_on,0,0,1,,,,,,,,0,,,60,0
65640,note_on,1,0,1,,,,,,,,0,,,71,68
65640,note_on,0,0,1,,,,,,,,0,,,59,68
65759,note_on,119,0,1,,,,,,,,0,,,59,0
65759,note_on,0,0,1,,,,,,,,0,,,71,0
65760,note_on,181,0,2,,,,,,,,1,,,59,52
65760,note_on,1,0,1,,,,,,,,0,,,59,79
65760,note_on,0,0,1,,,,,,,,0,,,71,79
65999,note_on,479,0,3,,,,,,,,2,,,74,0
65999,note_on,0,0,3,,,,,,,,2,,,79,0
65999,note_on,0,0,3,,,,,,,,2,,,83,0
65999,note_on,239,0,2,,,,,,,,1,,,59,0
66000,note_on,0,0,2,,,,,,,,1,,,67,53
66000,note_on,0,0,3,,,,,,,,2,,,79,49
66000,note_on,0,0,3,,,,,,,,2,,,74,49
66000,note_on,1,0,2,,,,,,,,1,,,62,53
66000,note_on,1,0,3,,,,,,,,2,,,83,49
66059,note_on,59,0,2,,,,,,,,1,,,67,0
66059,note_on,0,0,2,,,,,,,,1,,,62,0
66119,note_on,359,0,1,,,,,,,,0,,,71,0
66119,note_on,0,0,1,,,,,,,,0,,,59,0
66120,note_on,0,0,1,,,,,,,,0,,,69,66
66120,note_on,1,0,1,,,,,,,,0,,,57,66
66239,note_on,0,0,1,,,,,,,,0,,,57,0
66239,note_on,119,0,1,,,,,,,,0,,,69,0
66239,note_on,0,0,3,,,,,,,,2,,,79,0
66239,note_on,0,0,3,,,,,,,,2,,,83,0
66239,note_on,239,0,3,,,,,,,,2,,,74,0
66240,note_on,0,0,1,,,,,,,,0,,,59,79
66240,note_on,1,0,1,,,,,,,,0,,,71,79
66240,note_on,181,0,2,,,,,,,,1,,,59,55
66240,control_change,1,0,3,,,,,,,,2,64,0,,
66240,note_on,0,0,3,,,,,,,,2,,,79,46
66240,note_on,0,0,3,,,,,,,,2,,,83,46
66240,note_on,0,0,3,,,,,,,,2,,,86,46
66335,note_on,0,0,3,,,,,,,,2,,,79,0
66335,note_on,95,0,3,,,,,,,,2,,,86,0
66335,note_on,0,0,3,,,,,,,,2,,,83,0
66479,note_on,239,0,2,,,,,,,,1,,,59,0
66480,note_on,145,0,3,,,,,,,,2,,,55,44
66480,note_on,0,0,3,,,,,,,,2,,,59,44
66480,note_on,0,0,2,,,,,,,,1,,,67,57
66480,note_on,1,0,2,,,,,,,,1,,,62,57
66539,note_on,0,0,2,,,,,,,,1,,,62,0
66539,note_on,59,0,2,,,,,,,,1,,,67,0
66575,note_on,95,0,3,,,,,,,,2,,,59,0
66575,note_on,0,0,3,,,,,,,,2,,,55,0
66720,note_on,181,0,2,,,,,,,,1,,,59,58
66720,note_on,145,0,3,,,,,,,,2,,,50,41
66815,note_on,95,0,3,,,,,,,,2,,,50,0
66909,control_change,669,0,1,,,,,,,,0,64,0,,
66959,note_on,50,0,1,,,,,,,,0,,,59,0
66959,note_on,0,0,1,,,,,,,,0,,,71,0
66959,note_on,239,0,2,,,,,,,,1,,,59,0
66960,note_on,1,0,2,,,,,,,,1,,,62,60
66960,note_on,0,0,3,,,,,,,,2,,,59,39
66960,note_on,145,0,3,,,,,,,,2,,,55,39
66960,note_on,1,0,1,,,,,,,,0,,,74,95
67014,note_on,54,0,2,,,,,,,,1,,,62,0
67046,note_on,0,0,3,,,,,,,,2,,,55,0
67046,note_on,86,0,3,,,,,,,,2,,,59,0
67149,set_tempo,5769,1,0,,,,,,602894,,,,,,
67176,note_on,216,0,1,,,,,,,,0,,,74,0
67200,control_change,24,0,1,,,,,,,,0,64,127,,
67200,control_change,154,0,3,,,,,,,,2,64,127,,
67200,control_change,186,0,2,,,,,,,,1,64,127,,
67200,note_on,0,0,3,,,,,,,,2,,,38,36
67200,note_on,0,0,3,,,,,,,,2,,,52,36
67200,note_on,0,0,1,,,,,,,,0,,,73,95
67200,note_on,0,0,1,,,,,,,,0,,,61,95
67200,note_on,0,0,2,,,,,,,,1,,,61,63
67259,note_on,59,0,2,,,,,,,,1,,,61,0
67295,note_on,95,0,3,,,,,,,,2,,,52,0
67295,note_on,0,0,3,,,,,,,,2,,,38,0
67440,note_on,0,0,3,,,,,,,,2,,,76,34
67440,note_on,145,0,3,,,,,,,,2,,,85,34
67440,note_on,0,0,2,,,,,,,,1,,,70,61
67440,note_on,181,0,2,,,,,,,,1,,,67,61
67440,note_on,0,0,3,,,,,,,,2,,,82,34
67499,note_on,59,0,2,,,,,,,,1,,,70,0
67499,note_on,0,0,2,,,,,,,,1,,,67,0
67680,note_on,181,0,2,,,,,,,,1,,,61,59
67739,note_on,59,0,2,,,,,,,,1,,,61,0
67919,note_on,0,0,3,,,,,,,,2,,,85,0
67919,note_on,719,0,1,,,,,,,,0,,,61,0
67919,note_on,0,0,3,,,,,,,,2,,,82,0
67919,note_on,479,0,3,,,,,,,,2,,,76,0
67919,note_on,0,0,1,,,,,,,,0,,,73,0
67920,note_on,181,0,2,,,,,,,,1,,,67,57
67920,note_on,0,0,2,,,,,,,,1,,,70,57
67920,note_on,1,0,3,,,,,,,,2,,,85,48
67920,note_on,0,0,3,,,,,,,,2,,,76,48
67920,note_on,0,0,3,,,,,,,,2,,,82,48
67920,note_on,1,0,1,,,,,,,,0,,,73,95
67979,note_on,0,0,2,,,,,,,,1,,,67,0
67979,note_on,59,0,2,,,,,,,,1,,,70,0
68159,note_on,239,0,1,,,,,,,,0,,,73,0
68159,note_on,0,0,3,,,,,,,,2,,,85,0
68159,note_on,0,0,3,,,,,,,,2,,,82,0
68159,note_on,239,0,3,,,,,,,,2,,,76,0
68160,note_on,1,0,1,,,,,,,,0,,,79,95
68160,note_on,0,0,2,,,,,,,,1,,,64,55
68160,control_change,181,0,2,,,,,,,,1,64,0,,
68160,note_on,0,0,3,,,,,,,,2,,,85,61
68160,note_on,0,0,3,,,,,,,,2,,,82,61
68160,control_change,1,0,3,,,,,,,,2,64,0,,
68160,note_on,0,0,3,,,,,,,,2,,,91,61
68219,note_on,59,0,2,,,,,,,,1,,,64,0
68255,note_on,95,0,3,,,,,,,,2,,,85,0
68255,note_on,0,0,3,,,,,,,,2,,,82,0
68399,note_on,144,0,3,,,,,,,,2,,,91,0
68400,note_on,181,0,2,,,,,,,,1,,,67,53
68400,note_on,1,0,3,,,,,,,,2,,,61,60
68400,note_on,0,0,3,,,,,,,,2,,,64,60
68400,note_on,0,0,2,,,,,,,,1,,,70,53
68459,note_on,0,0,2,,,,,,,,1,,,67,0
68459,note_on,59,0,2,,,,,,,,1,,,70,0
68495,note_on,0,0,3,,,,,,,,2,,,61,0
68495,note_on,95,0,3,,,,,,,,2,,,64,0
68624,control_change,464,0,1,,,,,,,,0,64,0,,
68639,note_on,15,0,1,,,,,,,,0,,,79,0
68640,note_on,145,0,3,,,,,,,,2,,,50,59
68640,note_on,1,0,1,,,,,,,,0,,,76,95
68640,note_on,181,0,2,,,,,,,,1,,,64,51
68699,note_on,59,0,2,,,,,,,,1,,,64,0
68735,note_on,95,0,3,,,,,,,,2,,,50,0
68879,note_on,239,0,1,,,,,,,,0,,,76,0
68880,note_on,0,0,3,,,,,,,,2,,,58,58
68880,note_on,145,0,3,,,,,,,,2,,,55,58
68880,note_on,1,0,1,,,,,,,,0,,,73,95
68880,note_on,181,0,2,,,,,,,,1,,,61,49
68934,note_on,54,0,2,,,,,,,,1,,,61,0
68966,note_on,0,0,3,,,,,,,,2,,,55,0
68966,note_on,86,0,3,,,,,,,,2,,,58,0
69096,note_on,216,0,1,,,,,,,,0,,,73,0
69120,note_on,0,0,3,,,,,,,,2,,,50,57
69120,control_change,186,0,2,,,,,,,,1,64,127,,
69120,note_on,0,0,1,,,,,,,,0,,,74,95
69120,control_change,24,0,1,,,,,,,,0,64,127,,
69120,note_on,0,0,2,,,,,,,,1,,,62,47
69120,note_on,154,0,3,,,,,,,,2,,,38,57
69179,note_on,59,0,2,,,,,,,,1,,,62,0
69215,note_on,95,0,3,,,,,,,,2,,,50,0
69215,note_on,0,0,3,,,,,,,,2,,,38,0
69360,note_on,0,0,2,,,,,,,,1,,,69,45
69360,note_on,181,0,2,,,,,,,,1,,,66,45
69360,note_on,145,0,3,,,,,,,,2,,,81,55
69360,note_on,0,0,3,,,,,,,,2,,,78,55
69360,note_on,0,0,3,,,,,,,,2,,,74,55
69419,note_on,0,0,2,,,,,,,,1,,,66,0
69419,note_on,59,0,2,,,,,,,,1,,,69,0
69600,note_on,181,0,2,,,,,,,,1,,,62,43
69659,note_on,59,0,2,,,,,,,,1,,,62,0
69839,note_on,0,0,3,,,,,,,,2,,,81,0
69839,note_on,479,0,3,,,,,,,,2,,,74,0
69839,note_on,0,0,3,,,,,,,,2,,,78,0
69840,note_on,0,0,3,,,,,,,,2,,,78,70
69840,note_on,0,0,3,,,,,,,,2,,,74,70
69840,note_on,1,0,3,,,,,,,,2,,,81,70
69840,note_on,181,0,2,,,,,,,,1,,,66,41
69840,note_on,0,0,2,,,,,,,,1,,,69,41
69899,note_on,0,0,2,,,,,,,,1,,,66,0
69899,note_on,59,0,2,,,,,,,,1,,,69,0
70079,note_on,239,0,3,,,,,,,,2,,,74,0
70079,note_on,0,0,3,,,,,,,,2,,,78,0
70079,note_on,0,0,3,,,,,,,,2,,,81,0
70080,note_on,0,0,2,,,,,,,,1,,,62,39
70080,control_change,181,0,2,,,,,,,,1,64,0,,
70080,control_change,960,0,1,,,,,,,,0,64,0,,
70080,note_on,0,0,3,,,,,,,,2,,,86,65
70080,note_on,0,0,3,,,,,,,,2,,,81,65
70080,note_on,1,0,3,,,,,,,,2,,,78,65
70139,note_on,59,0,2,,,,,,,,1,,,62,0
70175,note_on,0,0,3,,,,,,,,2,,,78,0
70175,note_on,95,0,3,,,,,,,,2,,,86,0
70175,note_on,0,0,3,,,,,,,,2,,,81,0
70320,note_on,145,0,3,,,,,,,,2,,,57,60
70320,note_on,0,0,3,,,,,,,,2,,,62,60
70320,note_on,181,0,2,,,,,,,,1,,,66,37
70320,note_on,0,0,2,,,,,,,,1,,,69,37
70379,note_on,0,0,2,,,,,,,,1,,,66,0
70379,note_on,59,0,2,,,,,,,,1,,,69,0
70415,note_on,95,0,3,,,,,,,,2,,,62,0
70415,note_on,0,0,3,,,,,,,,2,,,57,0
70559,note_on,479,0,1,,,,,,,,0,,,74,0
70560,note_on,145,0,3,,,,,,,,2,,,50,55
70560,note_on,1,0,1,,,,,,,,0,,,74,40
70560,note_on,181,0,2,,,,,,,,1,,,62,35
70619,note_on,59,0,2,,,,,,,,1,,,62,0
70655,note_on,95,0,3,,,,,,,,2,,,50,0
70800,note_on,0,0,3,,,,,,,,2,,,57,50
70800,note_on,145,0,3,,,,,,,,2,,,54,50
70800,note_on,0,0,2,,,,,,,,1,,,69,33
70800,note_on,181,0,2,,,,,,,,1,,,66,33
70854,note_on,0,0,2,,,,,,,,1,,,66,0
70854,note_on,54,0,2,,,,,,,,1,,,69,0
70886,note_on,86,0,3,,,,,,,,2,,,57,0
70886,note_on,0,0,3,,,,,,,,2,,,54,0
70956,set_tempo,3807,1,0,,,,,,591483,,,,,,
70992,note_on,432,0,1,,,,,,,,0,,,74,0
71040,note_on,0,0,2,,,,,,,,1,,,62,31
71040,control_change,48,0,1,,,,,,,,0,64,127,,
71040,note_on,0,0,4,,,,,,,,3,,,46,52
71040,control_change,14400,0,4,,,,,,,,3,64,127,,
71040,note_on,0,0,2,,,,,,,,1,,,74,31
71040,control_change,186,0,2,,,,,,,,1,64,127,,
71040,note_on,0,0,4,,,,,,,,3,,,53,52
71040,note_on,0,0,4,,,,,,,,3,,,58,52
71279,note_on,239,0,4,,,,,,,,3,,,58,0
71279,note_on,0,0,4,,,,,,,,3,,,53,0
71279,note_on,0,0,4,,,,,,,,3,,,46,0
71280,note_on,240,0,1,,,,,,,,0,,,89,40
71280,note_on,1,0,4,,,,,,,,3,,,34,32
71280,note_on,0,0,1,,,,,,,,0,,,86,40
71280,note_on,0,0,1,,,,,,,,0,,,82,40
71280,note_on,0,0,1,,,,,,,,0,,,77,40
71519,note_on,239,0,4,,,,,,,,3,,,34,0
71520,note_on,1,0,4,,,,,,,,3,,,46,32
71520,note_on,0,0,4,,,,,,,,3,,,53,32
71759,note_on,479,0,1,,,,,,,,0,,,82,0
71759,note_on,0,0,4,,,,,,,,3,,,46,0
71759,note_on,0,0,1,,,,,,,,0,,,89,0
71759,note_on,719,0,2,,,,,,,,1,,,62,0
71759,note_on,0,0,1,,,,,,,,0,,,86,0
71759,note_on,239,0,4,,,,,,,,3,,,53,0
71759,note_on,0,0,1,,,,,,,,0,,,77,0
71759,note_on,0,0,2,,,,,,,,1,,,74,0
71760,note_on,0,0,2,,,,,,,,1,,,60,79
71760,note_on,1,0,4,,,,,,,,3,,,62,32
71760,note_on,1,0,2,,,,,,,,1,,,72,79
71760,note_on,1,0,1,,,,,,,,0,,,86,40
71760,note_on,0,0,1,,,,,,,,0,,,77,40
71760,note_on,0,0,1,,,,,,,,0,,,82,40
71760,note_on,0,0,1,,,,,,,,0,,,89,40
71999,note_on,0,0,1,,,,,,,,0,,,89,0
71999,note_on,0,0,1,,,,,,,,0,,,86,0
71999,note_on,239,0,1,,,,,,,,0,,,77,0
71999,note_on,239,0,4,,,,,,,,3,,,62,0
71999,note_on,239,0,2,,,,,,,,1,,,60,0
71999,note_on,0,0,2,,,,,,,,1,,,72,0
71999,note_on,0,0,1,,,,,,,,0,,,82,0
72000,control_change,1,0,2,,,,,,,,1,64,0,,
72000,note_on,0,0,2,,,,,,,,1,,,60,75
72000,note_on,0,0,2,,,,,,,,1,,,72,75
72000,control_change,1,0,1,,,,,,,,0,64,0,,
72000,note_on,0,0,1,,,,,,,,0,,,77,41
72000,note_on,0,0,1,,,,,,,,0,,,89,41
72000,note_on,0,0,1,,,,,,,,0,,,81,41
72000,note_on,0,0,1,,,,,,,,0,,,87,41
72000,control_change,1,0,4,,,,,,,,3,64,0,,
72000,note_on,0,0,4,,,,,,,,3,,,60,32
72239,note_on,239,0,4,,,,,,,,3,,,60,0
72240,note_on,0,0,4,,,,,,,,3,,,46,32
72240,note_on,1,0,4,,,,,,,,3,,,53,32
72359,note_on,0,0,1,,,,,,,,0,,,89,0
72359,note_on,0,0,1,,,,,,,,0,,,81,0
72359,note_on,0,0,1,,,,,,,,0,,,87,0
72359,note_on,359,0,1,,,,,,,,0,,,77,0
72360,note_on,1,0,1,,,,,,,,0,,,91,41
72360,note_on,0,0,1,,,,,,,,0,,,79,41
72479,note_on,0,0,4,,,,,,,,3,,,53,0
72479,note_on,479,0,2,,,,,,,,1,,,60,0
72479,note_on,0,0,2,,,,,,,,1,,,72,0
72479,note_on,239,0,4,,,,,,,,3,,,46,0
72479,note_on,119,0,1,,,,,,,,0,,,79,0
72479,note_on,0,0,1,,,,,,,,0,,,91,0
72480,note_on,1,0,4,,,,,,,,3,,,58,32
72480,note_on,1,0,2,,,,,,,,1,,,58,79
72480,note_on,0,0,2,,,,,,,,1,,,70,79
72480,note_on,0,0,1,,,,,,,,0,,,89,41
72480,note_on,1,0,1,,,,,,,,0,,,77,41
72566,note_on,0,0,1,,,,,,,,0,,,77,0
72566,note_on,86,0,1,,,,,,,,0,,,89,0
72719,note_on,239,0,4,,,,,,,,3,,,58,0
72719,note_on,239,0,2,,,,,,,,1,,,70,0
72719,note_on,0,0,2,,,,,,,,1,,,58,0
72720,note_on,1,0,4,,,,,,,,3,,,57,32
72720,note_on,1,0,2,,,,,,,,1,,,57,89
72720,note_on,0,0,2,,,,,,,,1,,,69,89
72936,note_on,216,0,4,,,,,,,,3,,,57,0
72936,note_on,0,0,2,,,,,,,,1,,,57,0
72936,note_on,216,0,2,,,,,,,,1,,,69,0
72960,note_on,0,0,2,,,,,,,,1,,,58,81
72960,note_on,0,0,2,,,,,,,,1,,,70,81
72960,control_change,24,0,2,,,,,,,,1,64,127,,
72960,control_change,394,0,1,,,,,,,,0,64,127,,
73029,control_change,93,0,4,,,,,,,,3,64,127,,
73200,note_on,240,0,1,,,,,,,,0,,,77,41
73200,note_on,0,0,1,,,,,,,,0,,,82,41
73200,note_on,171,0,4,,,,,,,,3,,,34,52
73200,note_on,0,0,1,,,,,,,,0,,,86,41
73439,note_on,239,0,4,,,,,,,,3,,,34,0
73440,note_on,1,0,4,,,,,,,,3,,,53,32
73440,note_on,0,0,4,,,,,,,,3,,,46,32
73679,note_on,239,0,4,,,,,,,,3,,,46,0
73679,note_on,719,0,2,,,,,,,,1,,,70,0
73679,note_on,0,0,1,,,,,,,,0,,,86,0
73679,note_on,479,0,1,,,,,,,,0,,,82,0
73679,note_on,0,0,1,,,,,,,,0,,,77,0
73679,note_on,0,0,4,,,,,,,,3,,,53,0
73679,note_on,0,0,2,,,,,,,,1,,,58,0
73680,note_on,0,0,1,,,,,,,,0,,,77,42
73680,note_on,0,0,1,,,,,,,,0,,,86,42
73680,note_on,1,0,1,,,,,,,,0,,,82,42
73680,note_on,1,0,4,,,,,,,,3,,,65,32
73680,note_on,0,0,2,,,,,,,,1,,,65,68
73680,note_on,0,0,4,,,,,,,,3,,,53,32
73680,note_on,1,0,2,,,,,,,,1,,,53,68
73919,note_on,239,0,2,,,,,,,,1,,,65,0
73919,note_on,0,0,2,,,,,,,,1,,,53,0
73919,note_on,239,0,1,,,,,,,,0,,,77,0
73919,note_on,0,0,1,,,,,,,,0,,,86,0
73919,note_on,239,0,4,,,,,,,,3,,,53,0
73919,note_on,0,0,4,,,,,,,,3,,,65,0
73919,note_on,0,0,1,,,,,,,,0,,,82,0
73920,note_on,0,0,1,,,,,,,,0,,,86,42
73920,note_on,0,0,1,,,,,,,,0,,,89,42
73920,note_on,0,0,1,,,,,,,,0,,,82,42
73920,note_on,0,0,1,,,,,,,,0,,,77,42
73920,note_on,1,0,4,,,,,,,,3,,,65,32
73920,note_on,0,0,4,,,,,,,,3,,,53,32
73920,control_change,1,0,1,,,,,,,,0,64,0,,
73920,note_on,0,0,2,,,,,,,,1,,,53,81
73920,note_on,0,0,2,,,,,,,,1,,,65,81
73920,control_change,1,0,2,,,,,,,,1,64,0,,
73989,control_change,69,0,4,,,,,,,,3,64,0,,
74159,note_on,0,0,4,,,,,,,,3,,,65,0
74159,note_on,170,0,4,,,,,,,,3,,,53,0
74160,note_on,1,0,4,,,,,,,,3,,,46,32
74279,note_on,0,0,1,,,,,,,,0,,,77,0
74279,note_on,359,0,1,,,,,,,,0,,,86,0
74279,note_on,0,0,1,,,,,,,,0,,,89,0
74279,note_on,0,0,1,,,,,,,,0,,,82,0
74280,note_on,1,0,1,,,,,,,,0,,,91,35
74280,note_on,0,0,1,,,,,,,,0,,,79,35
74399,note_on,239,0,4,,,,,,,,3,,,46,0
74399,note_on,0,0,1,,,,,,,,0,,,91,0
74399,note_on,119,0,1,,,,,,,,0,,,79,0
74399,note_on,479,0,2,,,,,,,,1,,,65,0
74399,note_on,0,0,2,,,,,,,,1,,,53,0
74400,note_on,1,0,2,,,,,,,,1,,,58,81
74400,note_on,1,0,4,,,,,,,,3,,,58,32
74400,note_on,0,0,1,,,,,,,,0,,,89,42
74400,note_on,0,0,2,,,,,,,,1,,,70,81
74400,note_on,1,0,1,,,,,,,,0,,,77,42
74616,note_on,0,0,1,,,,,,,,0,,,77,0
74616,note_on,216,0,1,,,,,,,,0,,,89,0
74639,note_on,239,0,4,,,,,,,,3,,,58,0
74640,note_on,0,0,4,,,,,,,,3,,,62,32
74640,note_on,1,0,4,,,,,,,,3,,,65,32
74832,note_on,432,0,2,,,,,,,,1,,,70,0
74832,note_on,0,0,2,,,,,,,,1,,,58,0
74856,note_on,0,0,4,,,,,,,,3,,,65,0
74856,note_on,216,0,4,,,,,,,,3,,,62,0
74880,note_on,0,0,2,,,,,,,,1,,,63,72
74880,control_change,24,0,4,,,,,,,,3,64,127,,
74880,control_change,264,0,1,,,,,,,,0,64,127,,
74880,control_change,48,0,2,,,,,,,,1,64,127,,
74880,note_on,0,0,2,,,,,,,,1,,,51,72
75120,note_on,0,0,1,,,,,,,,0,,,84,43
75120,note_on,240,0,1,,,,,,,,0,,,89,43
75120,note_on,0,0,1,,,,,,,,0,,,77,43
75120,note_on,240,0,4,,,,,,,,3,,,45,53
75120,note_on,0,0,1,,,,,,,,0,,,87,43
75359,note_on,239,0,4,,,,,,,,3,,,45,0
75360,note_on,0,0,4,,,,,,,,3,,,53,32
75360,note_on,1,0,4,,,,,,,,3,,,60,32
75599,note_on,0,0,1,,,,,,,,0,,,87,0
75599,note_on,0,0,1,,,,,,,,0,,,77,0
75599,note_on,0,0,1,,,,,,,,0,,,89,0
75599,note_on,479,0,1,,,,,,,,0,,,84,0
75599,note_on,239,0,4,,,,,,,,3,,,53,0
75599,note_on,719,0,2,,,,,,,,1,,,63,0
75599,note_on,0,0,2,,,,,,,,1,,,51,0
75599,note_on,0,0,4,,,,,,,,3,,,60,0
75600,note_on,1,0,1,,,,,,,,0,,,87,43
75600,note_on,0,0,1,,,,,,,,0,,,89,43
75600,note_on,0,0,1,,,,,,,,0,,,84,43
75600,note_on,1,0,4,,,,,,,,3,,,63,32
75600,note_on,1,0,2,,,,,,,,1,,,51,65
75600,note_on,0,0,2,,,,,,,,1,,,63,65
75600,note_on,0,0,1,,,,,,,,0,,,77,43
75703,control_change,103,0,2,,,,,,,,1,64,0,,
75823,control_change,120,0,2,,,,,,,,1,64,127,,
75839,note_on,239,0,1,,,,,,,,0,,,77,0
75839,note_on,0,0,1,,,,,,,,0,,,87,0
75839,note_on,0,0,1,,,,,,,,0,,,89,0
75839,note_on,16,0,2,,,,,,,,1,,,63,0
75839,note_on,0,0,2,,,,,,,,1,,,51,0
75839,note_on,0,0,1,,,,,,,,0,,,84,0
75839,note_on,239,0,4,,,,,,,,3,,,63,0
75840,control_change,1,0,4,,,,,,,,3,64,0,,
75840,note_on,0,0,1,,,,,,,,0,,,86,43
75840,note_on,0,0,1,,,,,,,,0,,,82,43
75840,note_on,0,0,1,,,,,,,,0,,,89,43
75840,note_on,0,0,1,,,,,,,,0,,,77,43
75840,note_on,0,0,2,,,,,,,,1,,,62,81
75840,note_on,1,0,2,,,,,,,,1,,,50,81
75840,note_on,0,0,4,,,,,,,,3,,,62,32
75840,control_change,1,0,1,,,,,,,,0,64,0,,
75891,control_change,51,0,1,,,,,,,,0,64,127,,
75926,control_change,86,0,4,,,,,,,,3,64,127,,
76079,note_on,153,0,4,,,,,,,,3,,,62,0
76080,note_on,1,0,4,,,,,,,,3,,,53,32
76080,note_on,0,0,4,,,,,,,,3,,,46,32
76199,note_on,308,0,1,,,,,,,,0,,,77,0
76199,note_on,0,0,1,,,,,,,,0,,,86,0
76199,note_on,0,0,1,,,,,,,,0,,,82,0
76199,note_on,0,0,1,,,,,,,,0,,,89,0
76200,note_on,0,0,1,,,,,,,,0,,,79,40
76200,note_on,1,0,1,,,,,,,,0,,,91,40
76319,note_on,479,0,2,,,,,,,,1,,,62,0
76319,note_on,0,0,1,,,,,,,,0,,,91,0
76319,note_on,0,0,4,,,,,,,,3,,,53,0
76319,note_on,239,0,4,,,,,,,,3,,,46,0
76319,note_on,0,0,2,,,,,,,,1,,,50,0
76319,note_on,119,0,1,,,,,,,,0,,,79,0
76320,note_on,1,0,1,,,,,,,,0,,,77,40
76320,note_on,1,0,4,,,,,,,,3,,,58,32
76320,note_on,0,0,2,,,,,,,,1,,,58,78
76320,note_on,1,0,2,,,,,,,,1,,,46,78
76320,note_on,0,0,1,,,,,,,,0,,,89,40
76406,note_on,0,0,1,,,,,,,,0,,,77,0
76406,note_on,86,0,1,,,,,,,,0,,,89,0
76559,note_on,239,0,4,,,,,,,,3,,,58,0
76560,note_on,1,0,4,,,,,,,,3,,,65,32
76560,note_on,0,0,4,,,,,,,,3,,,62,32
76749,set_tempo,5793,1,0,,,,,,588697,,,,,,
76752,note_on,432,0,2,,,,,,,,1,,,58,0
76752,note_on,0,0,2,,,,,,,,1,,,46,0
76776,note_on,0,0,4,,,,,,,,3,,,65,0
76776,note_on,216,0,4,,,,,,,,3,,,62,0
76783,control_change,31,0,2,,,,,,,,1,64,0,,
76800,note_on,17,0,2,,,,,,,,1,,,48,71
76800,note_on,0,0,2,,,,,,,,1,,,60,71
76851,control_change,445,0,1,,,,,,,,0,64,0,,
76886,control_change,110,0,4,,,,,,,,3,64,0,,
76937,control_change,137,0,2,,,,,,,,1,64,127,,
76989,control_change,138,0,1,,,,,,,,0,64,127,,
77040,note_on,51,0,1,,,,,,,,0,,,72,41
77040,note_on,0,0,1,,,,,,,,0,,,81,41
77040,note_on,0,0,1,,,,,,,,0,,,84,41
77040,control_change,154,0,4,,,,,,,,3,64,127,,
77040,note_on,0,0,4,,,,,,,,3,,,29,51
77279,note_on,239,0,4,,,,,,,,3,,,29,0
77280,note_on,0,0,4,,,,,,,,3,,,45,32
77280,note_on,1,0,4,,,,,,,,3,,,53,32
77519,note_on,0,0,4,,,,,,,,3,,,53,0
77519,note_on,239,0,4,,,,,,,,3,,,45,0
77519,note_on,0,0,1,,,,,,,,0,,,72,0
77519,note_on,0,0,1,,,,,,,,0,,,84,0
77519,note_on,479,0,1,,,,,,,,0,,,81,0
77520,note_on,0,0,4,,,,,,,,3,,,57,32
77520,note_on,1,0,4,,,,,,,,3,,,65,32
77520,note_on,0,0,1,,,,,,,,0,,,84,41
77520,note_on,1,0,1,,,,,,,,0,,,81,41
77520,note_on,0,0,1,,,,,,,,0,,,72,41
77664,note_on,727,0,2,,,,,,,,1,,,60,0
77664,note_on,0,0,2,,,,,,,,1,,,48,0
77759,note_on,239,0,4,,,,,,,,3,,,57,0
77759,note_on,0,0,1,,,,,,,,0,,,84,0
77759,note_on,0,0,1,,,,,,,,0,,,81,0
77759,note_on,239,0,1,,,,,,,,0,,,72,0
77759,note_on,0,0,4,,,,,,,,3,,,65,0
77760,note_on,0,0,1,,,,,,,,0,,,81,42
77760,note_on,0,0,1,,,,,,,,0,,,89,42
77760,note_on,0,0,1,,,,,,,,0,,,84,42
77760,note_on,1,0,4,,,,,,,,3,,,41,32
77760,note_on,1,0,1,,,,,,,,0,,,77,42
77897,control_change,233,0,2,,,,,,,,1,64,0,,
77949,control_change,189,0,1,,,,,,,,0,64,0,,
77999,note_on,239,0,4,,,,,,,,3,,,41,0
78000,control_change,1,0,4,,,,,,,,3,64,0,,
78000,note_on,0,0,4,,,,,,,,3,,,60,32
78119,note_on,0,0,1,,,,,,,,0,,,89,0
78119,note_on,170,0,1,,,,,,,,0,,,84,0
78119,note_on,0,0,1,,,,,,,,0,,,77,0
78119,note_on,0,0,1,,,,,,,,0,,,81,0
78120,note_on,1,0,1,,,,,,,,0,,,91,35
78120,note_on,0,0,1,,,,,,,,0,,,79,35
78239,note_on,0,0,1,,,,,,,,0,,,91,0
78239,note_on,119,0,1,,,,,,,,0,,,79,0
78239,note_on,239,0,4,,,,,,,,3,,,60,0
78240,note_on,1,0,4,,,,,,,,3,,,57,32
78240,note_on,1,0,1,,,,,,,,0,,,77,42
78240,note_on,0,0,1,,,,,,,,0,,,89,42
78240,note_on,0,0,4,,,,,,,,3,,,53,32
78326,note_on,86,0,1,,,,,,,,0,,,89,0
78326,note_on,0,0,1,,,,,,,,0,,,77,0
78479,note_on,239,0,4,,,,,,,,3,,,53,0
78479,note_on,0,0,4,,,,,,,,3,,,57,0
78480,note_on,1,0,4,,,,,,,,3,,,60,32
78695,set_tempo,1946,1,0,,,,,,567322,,,,,,
78696,note_on,216,0,4,,,,,,,,3,,,60,0
78720,note_on,0,0,4,,,,,,,,3,,,51,58
78720,note_on,0,0,4,,,,,,,,3,,,39,58
78720,control_change,24,0,4,,,,,,,,3,64,127,,
78720,note_on,0,0,2,,,,,,,,1,,,62,38
78720,control_change,823,0,2,,,,,,,,1,64,127,,
78720,note_on,0,0,1,,,,,,,,0,,,74,84
78720,note_on,0,0,1,,,,,,,,0,,,62,84
78720,control_change,394,0,1,,,,,,,,0,64,127,,
78959,note_on,239,0,4,,,,,,,,3,,,51,0
78959,note_on,0,0,4,,,,,,,,3,,,39,0
78959,note_on,239,0,2,,,,,,,,1,,,62,0
78960,note_on,0,0,2,,,,,,,,1,,,69,41
78960,note_on,0,0,4,,,,,,,,3,,,77,32
78960,note_on,0,0,4,,,,,,,,3,,,81,32
78960,note_on,1,0,4,,,,,,,,3,,,86,32
78960,note_on,1,0,2,,,,,,,,1,,,65,41
79199,note_on,479,0,1,,,,,,,,0,,,62,0
79199,note_on,239,0,2,,,,,,,,1,,,69,0
79199,note_on,0,0,2,,,,,,,,1,,,65,0
79199,note_on,0,0,1,,,,,,,,0,,,74,0
79200,note_on,1,0,2,,,,,,,,1,,,60,44
79200,note_on,0,0,1,,,,,,,,0,,,72,89
79200,note_on,1,0,1,,,,,,,,0,,,60,89
79439,note_on,239,0,2,,,,,,,,1,,,60,0
79439,note_on,479,0,4,,,,,,,,3,,,77,0
79439,note_on,0,0,4,,,,,,,,3,,,86,0
79439,note_on,0,0,4,,,,,,,,3,,,81,0
79440,note_on,0,0,2,,,,,,,,1,,,69,46
79440,note_on,1,0,2,,,,,,,,1,,,65,46
79440,note_on,0,0,4,,,,,,,,3,,,77,31
79440,note_on,0,0,4,,,,,,,,3,,,81,31
79440,note_on,1,0,4,,,,,,,,3,,,84,31
79559,note_on,0,0,1,,,,,,,,0,,,60,0
79559,note_on,359,0,1,,,,,,,,0,,,72,0
79560,note_on,1,0,1,,,,,,,,0,,,72,83
79560,note_on,0,0,1,,,,,,,,0,,,60,83
79679,note_on,119,0,1,,,,,,,,0,,,60,0
79679,note_on,239,0,4,,,,,,,,3,,,77,0
79679,note_on,0,0,4,,,,,,,,3,,,81,0
79679,note_on,0,0,4,,,,,,,,3,,,84,0
79679,note_on,0,0,2,,,,,,,,1,,,65,0
79679,note_on,239,0,2,,,,,,,,1,,,69,0
79679,note_on,0,0,1,,,,,,,,0,,,72,0
79680,note_on,0,0,2,,,,,,,,1,,,67,49
79680,control_change,1,0,2,,,,,,,,1,64,0,,
79680,note_on,0,0,1,,,,,,,,0,,,62,88
79680,note_on,0,0,1,,,,,,,,0,,,74,88
79680,control_change,1,0,1,,,,,,,,0,64,0,,
79680,note_on,0,0,4,,,,,,,,3,,,51,31
79680,control_change,1,0,4,,,,,,,,3,64,0,,
79731,control_change,51,0,1,,,,,,,,0,64,127,,
79731,control_change,51,0,2,,,,,,,,1,64,127,,
79749,control_change,69,0,4,,,,,,,,3,64,127,,
79919,note_on,188,0,2,,,,,,,,1,,,67,0
79919,note_on,170,0,4,,,,,,,,3,,,51,0
79920,note_on,0,0,2,,,,,,,,1,,,72,51
79920,note_on,0,0,4,,,,,,,,3,,,81,32
79920,note_on,0,0,4,,,,,,,,3,,,84,32
79920,note_on,1,0,4,,,,,,,,3,,,91,32
79920,note_on,1,0,2,,,,,,,,1,,,69,51
80159,note_on,239,0,2,,,,,,,,1,,,72,0
80159,note_on,0,0,2,,,,,,,,1,,,69,0
80159,note_on,428,0,1,,,,,,,,0,,,62,0
80159,note_on,0,0,1,,,,,,,,0,,,74,0
80160,note_on,1,0,2,,,,,,,,1,,,65,54
80160,note_on,1,0,1,,,,,,,,0,,,60,86
80160,note_on,0,0,1,,,,,,,,0,,,72,86
80399,note_on,479,0,4,,,,,,,,3,,,81,0
80399,note_on,239,0,2,,,,,,,,1,,,65,0
80399,note_on,0,0,4,,,,,,,,3,,,84,0
80399,note_on,0,0,4,,,,,,,,3,,,91,0
80400,note_on,1,0,4,,,,,,,,3,,,89,33
80400,note_on,0,0,4,,,,,,,,3,,,81,33
80400,note_on,0,0,4,,,,,,,,3,,,84,33
80400,note_on,1,0,2,,,,,,,,1,,,69,56
80400,note_on,0,0,2,,,,,,,,1,,,72,56
80592,note_on,432,0,1,,,,,,,,0,,,72,0
80592,note_on,0,0,1,,,,,,,,0,,,60,0
80616,note_on,0,0,4,,,,,,,,3,,,89,0
80616,note_on,0,0,4,,,,,,,,3,,,84,0
80616,note_on,216,0,4,,,,,,,,3,,,81,0
80616,note_on,216,0,2,,,,,,,,1,,,72,0
80616,note_on,0,0,2,,,,,,,,1,,,69,0
80640,note_on,48,0,1,,,,,,,,0,,,77,86
80640,note_on,24,0,2,,,,,,,,1,,,65,59
80640,note_on,24,0,4,,,,,,,,3,,,38,60
80640,note_on,0,0,4,,,,,,,,3,,,50,60
80640,note_on,0,0,1,,,,,,,,0,,,65,86
80691,control_change,51,0,2,,,,,,,,1,64,0,,
80691,control_change,51,0,1,,,,,,,,0,64,0,,
80709,control_change,69,0,4,,,,,,,,3,64,0,,
80720,control_change,29,0,1,,,,,,,,0,64,127,,
80735,note_on,26,0,4,,,,,,,,3,,,50,0
80735,note_on,0,0,4,,,,,,,,3,,,38,0
80773,control_change,82,0,2,,,,,,,,1,64,127,,
80800,control_change,65,0,4,,,,,,,,3,64,127,,
80879,note_on,106,0,2,,,,,,,,1,,,65,0
80880,note_on,0,0,4,,,,,,,,3,,,82,36
80880,note_on,0,0,4,,,,,,,,3,,,86,36
80880,note_on,80,0,4,,,,,,,,3,,,89,36
80880,note_on,1,0,2,,,,,,,,1,,,70,60
80880,note_on,0,0,2,,,,,,,,1,,,74,60
81119,note_on,239,0,2,,,,,,,,1,,,74,0
81119,note_on,0,0,2,,,,,,,,1,,,70,0
81120,note_on,1,0,2,,,,,,,,1,,,65,60
81359,note_on,239,0,2,,,,,,,,1,,,65,0
81359,note_on,479,0,4,,,,,,,,3,,,82,0
81359,note_on,0,0,1,,,,,,,,0,,,77,0
81359,note_on,0,0,4,,,,,,,,3,,,86,0
81359,note_on,639,0,1,,,,,,,,0,,,65,0
81359,note_on,0,0,4,,,,,,,,3,,,89,0
81360,note_on,0,0,4,,,,,,,,3,,,82,36
81360,note_on,1,0,4,,,,,,,,3,,,86,36
81360,note_on,1,0,2,,,,,,,,1,,,62,60
81360,note_on,1,0,1,,,,,,,,0,,,74,82
81360,note_on,0,0,1,,,,,,,,0,,,62,82
81360,note_on,0,0,4,,,,,,,,3,,,77,36
81599,note_on,0,0,4,,,,,,,,3,,,82,0
81599,note_on,239,0,2,,,,,,,,1,,,62,0
81599,note_on,0,0,4,,,,,,,,3,,,86,0
81599,note_on,239,0,1,,,,,,,,0,,,62,0
81599,note_on,0,0,1,,,,,,,,0,,,74,0
81599,note_on,239,0,4,,,,,,,,3,,,77,0
81600,note_on,0,0,4,,,,,,,,3,,,74,36
81600,note_on,1,0,4,,,,,,,,3,,,82,36
81600,note_on,0,0,1,,,,,,,,0,,,58,88
81600,note_on,1,0,1,,,,,,,,0,,,70,88
81600,note_on,1,0,2,,,,,,,,1,,,58,60
81600,note_on,0,0,4,,,,,,,,3,,,77,36
81680,control_change,80,0,1,,,,,,,,0,64,0,,
81733,control_change,133,0,2,,,,,,,,1,64,0,,
81760,control_change,160,0,4,,,,,,,,3,64,0,,
81839,note_on,79,0,4,,,,,,,,3,,,74,0
81839,note_on,0,0,4,,,,,,,,3,,,77,0
81839,note_on,0,0,4,,,,,,,,3,,,82,0
81839,note_on,106,0,2,,,,,,,,1,,,58,0
81840,note_on,1,0,4,,,,,,,,3,,,58,36
81840,note_on,0,0,4,,,,,,,,3,,,53,36
81840,note_on,0,0,2,,,,,,,,1,,,65,60
81840,note_on,1,0,2,,,,,,,,1,,,62,60
81887,note_on,207,0,1,,,,,,,,0,,,58,0
81887,note_on,0,0,1,,,,,,,,0,,,70,0
81935,note_on,95,0,4,,,,,,,,3,,,53,0
81935,note_on,0,0,4,,,,,,,,3,,,58,0
82079,note_on,239,0,2,,,,,,,,1,,,65,0
82079,note_on,0,0,2,,,,,,,,1,,,62,0
82080,note_on,1,0,2,,,,,,,,1,,,58,60
82080,note_on,145,0,4,,,,,,,,3,,,50,36
82175,note_on,95,0,4,,,,,,,,3,,,50,0
82319,note_on,239,0,2,,,,,,,,1,,,58,0
82320,note_on,0,0,4,,,,,,,,3,,,53,36
82320,note_on,433,0,1,,,,,,,,0,,,74,82
82320,note_on,1,0,2,,,,,,,,1,,,62,57
82320,note_on,145,0,4,,,,,,,,3,,,58,36
82406,note_on,0,0,4,,,,,,,,3,,,58,0
82406,note_on,86,0,4,,,,,,,,3,,,53,0
82536,note_on,216,0,1,,,,,,,,0,,,74,0
82536,note_on,216,0,2,,,,,,,,1,,,62,0
82560,control_change,24,0,1,,,,,,,,0,64,127,,
82560,note_on,0,0,1,,,,,,,,0,,,62,89
82560,control_change,24,0,2,,,,,,,,1,64,127,,
82560,note_on,0,0,2,,,,,,,,1,,,62,54
82560,note_on,0,0,1,,,,,,,,0,,,74,89
82560,control_change,154,0,4,,,,,,,,3,64,127,,
82560,note_on,0,0,4,,,,,,,,3,,,41,57
82561,set_tempo,3866,1,0,,,,,,617792,,,,,,
82655,note_on,95,0,4,,,,,,,,3,,,41,0
82799,note_on,239,0,2,,,,,,,,1,,,62,0
82800,note_on,0,0,4,,,,,,,,3,,,53,36
82800,note_on,145,0,4,,,,,,,,3,,,58,36
82800,note_on,0,0,2,,,,,,,,1,,,70,52
82800,note_on,1,0,2,,,,,,,,1,,,65,52
82895,note_on,95,0,4,,,,,,,,3,,,53,0
82895,note_on,0,0,4,,,,,,,,3,,,58,0
82942,set_tempo,381,1,0,,,,,,620861,,,,,,
83039,note_on,479,0,1,,,,,,,,0,,,62,0
83039,note_on,0,0,1,,,,,,,,0,,,74,0
83039,note_on,239,0,2,,,,,,,,1,,,70,0
83039,note_on,0,0,2,,,,,,,,1,,,65,0
83040,note_on,1,0,1,,,,,,,,0,,,62,90
83040,note_on,1,0,2,,,,,,,,1,,,62,49
83040,note_on,0,0,1,,,,,,,,0,,,74,90
83040,note_on,145,0,4,,,,,,,,3,,,46,36
83135,note_on,95,0,4,,,,,,,,3,,,46,0
83279,note_on,239,0,2,,,,,,,,1,,,62,0
83280,note_on,145,0,4,,,,,,,,3,,,62,36
83280,note_on,0,0,4,,,,,,,,3,,,58,36
83280,note_on,1,0,2,,,,,,,,1,,,65,46
83280,note_on,0,0,2,,,,,,,,1,,,70,46
83375,note_on,95,0,4,,,,,,,,3,,,58,0
83375,note_on,0,0,4,,,,,,,,3,,,62,0
83519,note_on,0,0,2,,,,,,,,1,,,65,0
83519,note_on,0,0,1,,,,,,,,0,,,62,0
83519,note_on,239,0,2,,,,,,,,1,,,70,0
83519,note_on,479,0,1,,,,,,,,0,,,74,0
83520,note_on,0,0,2,,,,,,,,1,,,65,43
83520,control_change,1,0,2,,,,,,,,1,64,0,,
83520,note_on,0,0,1,,,,,,,,0,,,65,90
83520,note_on,0,0,4,,,,,,,,3,,,41,36
83520,control_change,1,0,1,,,,,,,,0,64,0,,
83520,note_on,0,0,1,,,,,,,,0,,,77,90
83520,control_change,145,0,4,,,,,,,,3,64,0,,
83600,control_change,80,0,4,,,,,,,,3,64,127,,
83600,control_change,80,0,1,,,,,,,,0,64,127,,
83600,control_change,80,0,2,,,,,,,,1,64,127,,
83615,note_on,15,0,4,,,,,,,,3,,,41,0
83759,note_on,159,0,2,,,,,,,,1,,,65,0
83760,note_on,1,0,2,,,,,,,,1,,,70,40
83760,note_on,145,0,4,,,,,,,,3,,,60,36
83760,note_on,0,0,4,,,,,,,,3,,,58,36
83760,note_on,0,0,2,,,,,,,,1,,,72,40
83836,set_tempo,894,1,0,,,,,,630252,,,,,,
83855,note_on,0,0,4,,,,,,,,3,,,60,0
83855,note_on,95,0,4,,,,,,,,3,,,58,0
83999,note_on,239,0,2,,,,,,,,1,,,72,0
83999,note_on,0,0,2,,,,,,,,1,,,70,0
83999,note_on,399,0,1,,,,,,,,0,,,65,0
83999,note_on,0,0,1,,,,,,,,0,,,77,0
84000,note_on,145,0,4,,,,,,,,3,,,41,36
84000,note_on,1,0,2,,,,,,,,1,,,63,37
84000,note_on,0,0,1,,,,,,,,0,,,77,91
84000,note_on,1,0,1,,,,,,,,0,,,63,91
84095,note_on,95,0,4,,,,,,,,3,,,41,0
84239,note_on,239,0,2,,,,,,,,1,,,63,0
84240,note_on,1,0,2,,,,,,,,1,,,69,34
84240,note_on,0,0,2,,,,,,,,1,,,72,34
84240,note_on,0,0,4,,,,,,,,3,,,57,36
84240,note_on,145,0,4,,,,,,,,3,,,60,36
84326,note_on,0,0,4,,,,,,,,3,,,60,0
84326,note_on,86,0,4,,,,,,,,3,,,57,0
84400,control_change,74,0,4,,,,,,,,3,64,0,,
84432,note_on,0,0,1,,,,,,,,0,,,63,0
84432,note_on,432,0,1,,,,,,,,0,,,77,0
84456,note_on,0,0,2,,,,,,,,1,,,69,0
84456,note_on,216,0,2,,,,,,,,1,,,72,0
84480,note_on,0,0,1,,,,,,,,0,,,70,89
84480,note_on,0,0,4,,,,,,,,3,,,43,57
84480,control_change,80,0,4,,,,,,,,3,64,127,,
84480,note_on,0,0,1,,,,,,,,0,,,62,89
84480,note_on,48,0,1,,,,,,,,0,,,74,89
84548,set_tempo,712,1,0,,,,,,643225,,,,,,
84560,control_change,80,0,1,,,,,,,,0,64,0,,
84560,control_change,104,0,2,,,,,,,,1,64,0,,
84575,note_on,95,0,4,,,,,,,,3,,,43,0
84720,note_on,145,0,4,,,,,,,,3,,,58,35
84720,note_on,0,0,4,,,,,,,,3,,,55,35
84815,note_on,95,0,4,,,,,,,,3,,,55,0
84815,note_on,0,0,4,,,,,,,,3,,,58,0
84960,note_on,145,0,4,,,,,,,,3,,,46,35
85055,note_on,95,0,4,,,,,,,,3,,,46,0
85200,note_on,0,0,4,,,,,,,,3,,,58,35
85200,note_on,145,0,4,,,,,,,,3,,,62,35
85280,control_change,80,0,4,,,,,,,,3,64,0,,
85295,note_on,0,0,4,,,,,,,,3,,,62,0
85295,note_on,15,0,4,,,,,,,,3,,,58,0
85373,control_change,78,0,4,,,,,,,,3,64,127,,
85408,set_tempo,860,1,0,,,,,,685558,,,,,,
85427,control_change,867,0,1,,,,,,,,0,64,127,,
85439,note_on,0,0,1,,,,,,,,0,,,70,0
85439,note_on,0,0,1,,,,,,,,0,,,74,0
85439,note_on,12,0,1,,,,,,,,0,,,62,0
85440,note_on,1,0,1,,,,,,,,0,,,86,96
85440,note_on,67,0,4,,,,,,,,3,,,39,35
85440,note_on,0,0,1,,,,,,,,0,,,94,96
85535,note_on,95,0,4,,,,,,,,3,,,39,0
85679,note_on,239,0,1,,,,,,,,0,,,94,0
85679,note_on,0,0,1,,,,,,,,0,,,86,0
85680,note_on,0,0,4,,,,,,,,3,,,55,35
85680,note_on,145,0,4,,,,,,,,3,,,51,35
85680,note_on,1,0,1,,,,,,,,0,,,96,92
85680,note_on,0,0,1,,,,,,,,0,,,87,92
85775,note_on,95,0,4,,,,,,,,3,,,55,0
85775,note_on,0,0,4,,,,,,,,3,,,51,0
85799,note_on,0,0,1,,,,,,,,0,,,96,0
85799,note_on,119,0,1,,,,,,,,0,,,87,0
85800,note_on,1,0,1,,,,,,,,0,,,94,90
85800,note_on,0,0,1,,,,,,,,0,,,86,90
85919,note_on,119,0,1,,,,,,,,0,,,86,0
85919,note_on,0,0,1,,,,,,,,0,,,94,0
85920,note_on,1,0,1,,,,,,,,0,,,84,88
85920,note_on,0,0,1,,,,,,,,0,,,93,88
85920,note_on,145,0,4,,,,,,,,3,,,43,35
86015,note_on,95,0,4,,,,,,,,3,,,43,0
86039,note_on,119,0,1,,,,,,,,0,,,93,0
86039,note_on,0,0,1,,,,,,,,0,,,84,0
86040,note_on,1,0,1,,,,,,,,0,,,91,86
86040,note_on,0,0,1,,,,,,,,0,,,82,86
86159,note_on,0,0,1,,,,,,,,0,,,91,0
86159,note_on,119,0,1,,,,,,,,0,,,82,0
86160,note_on,0,0,1,,,,,,,,0,,,89,84
86160,note_on,145,0,4,,,,,,,,3,,,51,35
86160,note_on,0,0,4,,,,,,,,3,,,55,35
86160,note_on,1,0,1,,,,,,,,0,,,81,84
86246,note_on,86,0,4,,,,,,,,3,,,55,0
86246,note_on,0,0,4,,,,,,,,3,,,51,0
86279,note_on,119,0,1,,,,,,,,0,,,89,0
86279,note_on,0,0,1,,,,,,,,0,,,81,0
86280,note_on,0,0,1,,,,,,,,0,,,79,82
86280,note_on,1,0,1,,,,,,,,0,,,87,82
86307,control_change,27,0,1,,,,,,,,0,64,0,,
86333,control_change,87,0,4,,,,,,,,3,64,0,,
86347,control_change,40,0,1,,,,,,,,0,64,127,,
86347,control_change,1787,0,2,,,,,,,,1,64,127,,
86368,set_tempo,960,1,0,,,,,,779626,,,,,,
86388,note_on,0,0,1,,,,,,,,0,,,87,0
86388,note_on,41,0,1,,,,,,,,0,,,79,0
86400,note_on,12,0,1,,,,,,,,0,,,86,79
86400,note_on,0,0,4,,,,,,,,3,,,41,56
86400,note_on,53,0,2,,,,,,,,1,,,82,63
86400,control_change,67,0,4,,,,,,,,3,64,127,,
86495,note_on,95,0,4,,,,,,,,3,,,41,0
86639,note_on,239,0,2,,,,,,,,1,,,82,0
86640,note_on,1,0,2,,,,,,,,1,,,77,60
86640,note_on,0,0,4,,,,,,,,3,,,62,35
86640,note_on,145,0,4,,,,,,,,3,,,58,35
86735,note_on,0,0,4,,,,,,,,3,,,58,0
86735,note_on,95,0,4,,,,,,,,3,,,62,0
86879,note_on,239,0,2,,,,,,,,1,,,77,0
86879,note_on,479,0,1,,,,,,,,0,,,86,0
86880,note_on,1,0,1,,,,,,,,0,,,82,71
86880,note_on,0,0,1,,,,,,,,0,,,86,71
86880,note_on,1,0,2,,,,,,,,1,,,74,56
86880,note_on,145,0,4,,,,,,,,3,,,46,35
86975,note_on,95,0,4,,,,,,,,3,,,46,0
87119,note_on,239,0,2,,,,,,,,1,,,74,0
87120,note_on,1,0,2,,,,,,,,1,,,70,52
87120,note_on,145,0,4,,,,,,,,3,,,50,35
87215,note_on,95,0,4,,,,,,,,3,,,50,0
87307,control_change,427,0,1,,,,,,,,0,64,0,,
87307,control_change,187,0,2,,,,,,,,1,64,0,,
87359,note_on,52,0,1,,,,,,,,0,,,86,0
87359,note_on,0,0,1,,,,,,,,0,,,82,0
87359,note_on,52,0,2,,,,,,,,1,,,70,0
87360,note_on,0,0,1,,,,,,,,0,,,84,64
87360,note_on,1,0,2,,,,,,,,1,,,77,48
87360,note_on,0,0,1,,,,,,,,0,,,82,64
87360,note_on,1,0,1,,,,,,,,0,,,89,64
87360,note_on,0,0,4,,,,,,,,3,,,53,35
87360,control_change,145,0,4,,,,,,,,3,64,0,,
87413,control_change,53,0,1,,,,,,,,0,64,127,,
87440,control_change,80,0,2,,,,,,,,1,64,127,,
87455,note_on,95,0,4,,,,,,,,3,,,53,0
87467,control_change,12,0,4,,,,,,,,3,64,127,,
87599,note_on,159,0,2,,,,,,,,1,,,77,0
87600,note_on,133,0,4,,,,,,,,3,,,65,35
87600,note_on,1,0,2,,,,,,,,1,,,72,45
87600,note_on,0,0,2,,,,,,,,1,,,70,45
87600,note_on,0,0,4,,,,,,,,3,,,60,35
87600,note_on,0,0,4,,,,,,,,3,,,58,35
87695,note_on,0,0,4,,,,,,,,3,,,65,0
87695,note_on,0,0,4,,,,,,,,3,,,60,0
87695,note_on,95,0,4,,,,,,,,3,,,58,0
87839,note_on,239,0,2,,,,,,,,1,,,70,0
87839,note_on,426,0,1,,,,,,,,0,,,82,0
87839,note_on,0,0,2,,,,,,,,1,,,72,0
87839,note_on,0,0,1,,,,,,,,0,,,84,0
87839,note_on,0,0,1,,,,,,,,0,,,89,0
87840,note_on,145,0,4,,,,,,,,3,,,53,35
87840,note_on,0,0,1,,,,,,,,0,,,81,64
87840,note_on,0,0,1,,,,,,,,0,,,89,64
87840,note_on,1,0,1,,,,,,,,0,,,84,64
87840,note_on,1,0,2,,,,,,,,1,,,77,41
87935,note_on,95,0,4,,,,,,,,3,,,53,0
88079,note_on,239,0,2,,,,,,,,1,,,77,0
88080,note_on,145,0,4,,,,,,,,3,,,65,35
88080,note_on,0,0,2,,,,,,,,1,,,69,37
88080,note_on,1,0,2,,,,,,,,1,,,72,37
88080,note_on,0,0,4,,,,,,,,3,,,60,35
88080,note_on,0,0,4,,,,,,,,3,,,57,35
88166,note_on,0,0,4,,,,,,,,3,,,65,0
88166,note_on,86,0,4,,,,,,,,3,,,57,0
88166,note_on,0,0,4,,,,,,,,3,,,60,0
88272,note_on,0,0,1,,,,,,,,0,,,84,0
88272,note_on,0,0,1,,,,,,,,0,,,81,0
88272,note_on,432,0,1,,,,,,,,0,,,89,0
88296,note_on,0,0,2,,,,,,,,1,,,72,0
88296,note_on,216,0,2,,,,,,,,1,,,69,0
88320,note_on,154,0,4,,,,,,,,3,,,46,58
88320,note_on,0,0,1,,,,,,,,0,,,58,64
88320,control_change,48,0,1,,,,,,,,0,64,0,,
88321,set_tempo,1953,1,0,,,,,,569909,,,,,,
88360,note_on,40,0,1,,,,,,,,0,,,62,67
88371,control_change,11,0,1,,,,,,,,0,64,127,,
88400,note_on,29,0,1,,,,,,,,0,,,65,69
88400,control_change,104,0,2,,,,,,,,1,64,0,,
88415,note_on,95,0,4,,,,,,,,3,,,46,0
88427,control_change,12,0,4,,,,,,,,3,64,0,,
88440,note_on,40,0,1,,,,,,,,0,,,70,73
88480,note_on,40,0,1,,,,,,,,0,,,74,76
88509,control_change,82,0,4,,,,,,,,3,64,127,,
88560,note_on,51,0,4,,,,,,,,3,,,62,34
88799,note_on,239,0,4,,,,,,,,3,,,62,0
88800,note_on,1,0,4,,,,,,,,3,,,58,34
88800,note_on,0,0,4,,,,,,,,3,,,53,34
89039,note_on,239,0,4,,,,,,,,3,,,53,0
89039,note_on,0,0,4,,,,,,,,3,,,58,0
89040,note_on,1,0,4,,,,,,,,3,,,62,34
89279,note_on,239,0,4,,,,,,,,3,,,62,0
89280,note_on,1,0,4,,,,,,,,3,,,46,34
89331,control_change,851,0,1,,,,,,,,0,64,0,,
89375,note_on,95,0,4,,,,,,,,3,,,46,0
89469,control_change,94,0,4,,,,,,,,3,64,0,,
89520,note_on,51,0,4,,,,,,,,3,,,62,34
89759,note_on,239,0,4,,,,,,,,3,,,62,0
89759,note_on,428,0,1,,,,,,,,0,,,74,0
89759,note_on,0,0,1,,,,,,,,0,,,65,0
89759,note_on,0,0,1,,,,,,,,0,,,58,0
89759,note_on,0,0,1,,,,,,,,0,,,62,0
89759,note_on,0,0,1,,,,,,,,0,,,70,0
89760,note_on,0,0,1,,,,,,,,0,,,70,64
89760,note_on,0,0,4,,,,,,,,3,,,53,34
89760,note_on,1,0,1,,,,,,,,0,,,65,64
89760,note_on,0,0,1,,,,,,,,0,,,74,64
89760,note_on,1,0,4,,,,,,,,3,,,58,34
89999,note_on,0,0,4,,,,,,,,3,,,58,0
89999,note_on,239,0,4,,,,,,,,3,,,53,0
90000,note_on,1,0,4,,,,,,,,3,,,62,34
90192,note_on,0,0,1,,,,,,,,0,,,74,0
90192,note_on,0,0,1,,,,,,,,0,,,65,0
90192,note_on,432,0,1,,,,,,,,0,,,70,0
90216,note_on,216,0,4,,,,,,,,3,,,62,0
90240,note_on,24,0,4,,,,,,,,3,,,45,58
90240,control_change,48,0,1,,,,,,,,0,64,127,,
90240,note_on,0,0,1,,,,,,,,0,,,74,64
90240,note_on,0,0,1,,,,,,,,0,,,72,64
90240,note_on,0,0,1,,,,,,,,0,,,66,64
90335,note_on,95,0,4,,,,,,,,3,,,45,0
90480,note_on,145,0,4,,,,,,,,3,,,62,34
90655,set_tempo,2334,1,0,,,,,,627090,,,,,,
90719,note_on,239,0,4,,,,,,,,3,,,62,0
90720,note_on,0,0,4,,,,,,,,3,,,57,34
90720,note_on,1,0,4,,,,,,,,3,,,60,34
90959,note_on,0,0,4,,,,,,,,3,,,60,0
90959,note_on,239,0,4,,,,,,,,3,,,57,0
90960,note_on,1,0,4,,,,,,,,3,,,62,34
91079,note_on,0,0,1,,,,,,,,0,,,72,0
91079,note_on,0,0,1,,,,,,,,0,,,74,0
91079,note_on,839,0,1,,,,,,,,0,,,66,0
91080,note_on,1,0,1,,,,,,,,0,,,74,58
91080,note_on,0,0,1,,,,,,,,0,,,72,58
91080,note_on,0,0,1,,,,,,,,0,,,66,58
91199,note_on,119,0,1,,,,,,,,0,,,72,0
91199,note_on,239,0,4,,,,,,,,3,,,62,0
91199,note_on,0,0,1,,,,,,,,0,,,74,0
91199,note_on,0,0,1,,,,,,,,0,,,66,0
91200,note_on,1,0,4,,,,,,,,3,,,45,34
91200,note_on,0,0,1,,,,,,,,0,,,74,64
91200,control_change,1,0,1,,,,,,,,0,64,0,,
91200,note_on,0,0,2,,,,,,,,1,,,66,64
91200,note_on,2800,0,2,,,,,,,,1,,,72,64
91218,set_tempo,563,1,0,,,,,,567322,,,,,,
91295,note_on,95,0,4,,,,,,,,3,,,45,0
91440,note_on,145,0,4,,,,,,,,3,,,62,34
91559,note_on,359,0,1,,,,,,,,0,,,74,0
91560,note_on,1,0,1,,,,,,,,0,,,75,57
91679,note_on,119,0,1,,,,,,,,0,,,75,0
91679,note_on,239,0,4,,,,,,,,3,,,62,0
91680,note_on,1,0,1,,,,,,,,0,,,74,64
91680,note_on,1,0,4,,,,,,,,3,,,60,34
91680,note_on,0,0,4,,,,,,,,3,,,57,34
91848,note_on,0,0,2,,,,,,,,1,,,72,0
91848,note_on,648,0,2,,,,,,,,1,,,66,0
91896,note_on,216,0,1,,,,,,,,0,,,74,0
91919,note_on,239,0,4,,,,,,,,3,,,57,0
91919,note_on,0,0,4,,,,,,,,3,,,60,0
91920,note_on,1,0,4,,,,,,,,3,,,62,34
92136,note_on,216,0,4,,,,,,,,3,,,62,0
92160,note_on,0,0,1,,,,,,,,0,,,74,64
92160,note_on,0,0,1,,,,,,,,0,,,67,64
92160,note_on,264,0,1,,,,,,,,0,,,72,64
92160,note_on,24,0,4,,,,,,,,3,,,43,62
92173,control_change,13,0,1,,,,,,,,0,64,127,,
92173,control_change,13,0,4,,,,,,,,3,64,127,,
92255,note_on,82,0,4,,,,,,,,3,,,43,0
92400,note_on,145,0,4,,,,,,,,3,,,62,31
92639,note_on,239,0,4,,,,,,,,3,,,62,0
92640,note_on,0,0,4,,,,,,,,3,,,55,31
92640,note_on,1,0,4,,,,,,,,3,,,60,31
92879,note_on,239,0,4,,,,,,,,3,,,55,0
92879,note_on,0,0,4,,,,,,,,3,,,60,0
92880,note_on,1,0,4,,,,,,,,3,,,62,31
92956,set_tempo,1738,1,0,,,,,,614754,,,,,,
92999,note_on,0,0,1,,,,,,,,0,,,72,0
92999,note_on,0,0,1,,,,,,,,0,,,67,0
92999,note_on,826,0,1,,,,,,,,0,,,74,0
93000,note_on,0,0,1,,,,,,,,0,,,74,75
93000,note_on,1,0,1,,,,,,,,0,,,67,75
93000,note_on,0,0,1,,,,,,,,0,,,72,75
93119,note_on,119,0,1,,,,,,,,0,,,72,0
93119,note_on,0,0,1,,,,,,,,0,,,74,0
93119,note_on,0,0,1,,,,,,,,0,,,67,0
93119,note_on,239,0,4,,,,,,,,3,,,62,0
93120,note_on,1,0,4,,,,,,,,3,,,43,31
93120,note_on,1272,0,2,,,,,,,,1,,,72,64
93120,note_on,1,0,1,,,,,,,,0,,,74,87
93120,note_on,0,0,2,,,,,,,,1,,,67,64
93133,control_change,13,0,1,,,,,,,,0,64,0,,
93133,control_change,13,0,4,,,,,,,,3,64,0,,
93213,control_change,80,0,1,,,,,,,,0,64,127,,
93215,note_on,82,0,4,,,,,,,,3,,,43,0
93360,note_on,145,0,4,,,,,,,,3,,,62,31
93469,set_tempo,513,1,0,,,,,,572519,,,,,,
93479,note_on,266,0,1,,,,,,,,0,,,74,0
93480,note_on,1,0,1,,,,,,,,0,,,75,75
93599,note_on,119,0,1,,,,,,,,0,,,75,0
93599,note_on,239,0,4,,,,,,,,3,,,62,0
93600,note_on,1,0,4,,,,,,,,3,,,60,31
93600,note_on,0,0,4,,,,,,,,3,,,55,31
93600,note_on,1,0,1,,,,,,,,0,,,74,87
93768,note_on,0,0,2,,,,,,,,1,,,72,0
93768,note_on,648,0,2,,,,,,,,1,,,67,0
93816,note_on,216,0,1,,,,,,,,0,,,74,0
93839,note_on,239,0,4,,,,,,,,3,,,55,0
93839,note_on,0,0,4,,,,,,,,3,,,60,0
93840,note_on,1,0,4,,,,,,,,3,,,62,31
94056,note_on,216,0,4,,,,,,,,3,,,62,0
94080,control_change,24,0,4,,,,,,,,3,64,127,,
94080,note_on,0,0,1,,,,,,,,0,,,72,87
94080,note_on,0,0,1,,,,,,,,0,,,69,87
94080,note_on,264,0,1,,,,,,,,0,,,74,87
94080,note_on,0,0,4,,,,,,,,3,,,42,60
94173,control_change,93,0,1,,,,,,,,0,64,0,,
94175,note_on,95,0,4,,,,,,,,3,,,42,0
94320,note_on,145,0,4,,,,,,,,3,,,62,31
94559,note_on,239,0,4,,,,,,,,3,,,62,0
94560,note_on,0,0,4,,,,,,,,3,,,57,31
94560,note_on,1,0,4,,,,,,,,3,,,60,31
94799,note_on,239,0,4,,,,,,,,3,,,57,0
94799,note_on,0,0,4,,,,,,,,3,,,60,0
94800,note_on,1,0,4,,,,,,,,3,,,62,31
94919,note_on,0,0,1,,,,,,,,0,,,74,0
94919,note_on,0,0,1,,,,,,,,0,,,69,0
94919,note_on,746,0,1,,,,,,,,0,,,72,0
94920,note_on,0,0,1,,,,,,,,0,,,69,50
94920,note_on,0,0,1,,,,,,,,0,,,72,50
94920,note_on,1,0,1,,,,,,,,0,,,74,50
95039,note_on,0,0,1,,,,,,,,0,,,74,0
95039,note_on,0,0,1,,,,,,,,0,,,72,0
95039,note_on,119,0,1,,,,,,,,0,,,69,0
95039,note_on,239,0,4,,,,,,,,3,,,62,0
95040,note_on,0,0,1,,,,,,,,0,,,69,64
95040,note_on,1,0,1,,,,,,,,0,,,72,64
95040,note_on,0,0,4,,,,,,,,3,,,43,31
95040,note_on,0,0,1,,,,,,,,0,,,74,64
95040,control_change,1,0,4,,,,,,,,3,64,0,,
95135,note_on,95,0,4,,,,,,,,3,,,43,0
95280,note_on,145,0,4,,,,,,,,3,,,62,32
95519,note_on,479,0,1,,,,,,,,0,,,74,0
95519,note_on,0,0,1,,,,,,,,0,,,72,0
95519,note_on,0,0,1,,,,,,,,0,,,69,0
95519,note_on,239,0,4,,,,,,,,3,,,62,0
95520,note_on,1,0,1,,,,,,,,0,,,67,74
95520,note_on,0,0,1,,,,,,,,0,,,74,74
95520,note_on,0,0,1,,,,,,,,0,,,71,74
95520,note_on,1,0,4,,,,,,,,3,,,59,32
95520,note_on,0,0,4,,,,,,,,3,,,55,32
95759,note_on,239,0,4,,,,,,,,3,,,55,0
95759,note_on,0,0,4,,,,,,,,3,,,59,0
95760,note_on,1,0,4,,,,,,,,3,,,62,32
95952,note_on,432,0,1,,,,,,,,0,,,71,0
95952,note_on,0,0,1,,,,,,,,0,,,74,0
95952,note_on,0,0,1,,,,,,,,0,,,67,0
95976,note_on,216,0,4,,,,,,,,3,,,62,0
96000,note_on,0,0,1,,,,,,,,0,,,66,64
96000,control_change,24,0,4,,,,,,,,3,64,127,,
96000,note_on,0,0,1,,,,,,,,0,,,74,64
96000,note_on,0,0,4,,,,,,,,3,,,50,61
96000,note_on,0,0,1,,,,,,,,0,,,69,64
96000,control_change,48,0,1,,,,,,,,0,64,127,,
96095,note_on,95,0,4,,,,,,,,3,,,50,0
96240,note_on,145,0,4,,,,,,,,3,,,62,32
96479,note_on,239,0,4,,,,,,,,3,,,62,0
96480,note_on,1,0,4,,,,,,,,3,,,57,32
96480,note_on,0,0,4,,,,,,,,3,,,54,32
96719,note_on,239,0,4,,,,,,,,3,,,54,0
96719,note_on,0,0,4,,,,,,,,3,,,57,0
96720,note_on,1,0,4,,,,,,,,3,,,62,32
96864,note_on,864,0,1,,,,,,,,0,,,74,0
96864,note_on,0,0,1,,,,,,,,0,,,66,0
96864,note_on,0,0,1,,,,,,,,0,,,69,0
96959,note_on,239,0,4,,,,,,,,3,,,62,0
96960,note_on,1,0,4,,,,,,,,3,,,38,32
96960,control_change,96,0,1,,,,,,,,0,64,0,,
97055,note_on,95,0,4,,,,,,,,3,,,38,0
97200,note_on,145,0,4,,,,,,,,3,,,57,32
97439,note_on,239,0,4,,,,,,,,3,,,57,0
97440,note_on,0,0,4,,,,,,,,3,,,50,32
97440,note_on,1,0,4,,,,,,,,3,,,54,32
97679,note_on,0,0,4,,,,,,,,3,,,54,0
97679,note_on,239,0,4,,,,,,,,3,,,50,0
97680,note_on,0,0,4,,,,,,,,3,,,58,32
97680,control_change,1,0,4,,,,,,,,3,64,0,,
97896,note_on,216,0,4,,,,,,,,3,,,58,0
97916,set_tempo,4447,1,0,,,,,,693161,,,,,,
97920,note_on,24,0,4,,,,,,,,3,,,43,60
98015,note_on,95,0,4,,,,,,,,3,,,43,0
98160,note_on,145,0,4,,,,,,,,3,,,59,32
98160,note_on,4392,0,2,,,,,,,,1,,,71,64
98160,note_on,1200,0,1,,,,,,,,0,,,74,73
98160,note_on,27274,0,3,,,,,,,,2,,,59,64
98279,note_on,119,0,2,,,,,,,,1,,,71,0
98280,note_on,1,0,2,,,,,,,,1,,,69,60
98399,note_on,239,0,4,,,,,,,,3,,,59,0
98399,note_on,119,0,2,,,,,,,,1,,,69,0
98400,note_on,0,0,4,,,,,,,,3,,,50,36
98400,note_on,1,0,2,,,,,,,,1,,,67,55
98400,note_on,1,0,4,,,,,,,,3,,,55,36
98519,note_on,119,0,2,,,,,,,,1,,,67,0
98520,note_on,1,0,2,,,,,,,,1,,,62,51
98639,note_on,479,0,3,,,,,,,,2,,,59,0
98639,note_on,119,0,2,,,,,,,,1,,,62,0
98639,note_on,479,0,1,,,,,,,,0,,,74,0
98639,note_on,239,0,4,,,,,,,,3,,,50,0
98639,note_on,0,0,4,,,,,,,,3,,,55,0
98640,note_on,1,0,1,,,,,,,,0,,,74,86
98640,note_on,1,0,2,,,,,,,,1,,,67,57
98640,note_on,1,0,3,,,,,,,,2,,,59,67
98640,note_on,1,0,4,,,,,,,,3,,,59,36
98759,note_on,119,0,2,,,,,,,,1,,,67,0
98760,note_on,1,0,2,,,,,,,,1,,,69,64
98879,note_on,119,0,2,,,,,,,,1,,,69,0
98879,note_on,239,0,1,,,,,,,,0,,,74,0
98879,note_on,239,0,4,,,,,,,,3,,,59,0
98880,note_on,1,0,4,,,,,,,,3,,,47,36
98880,note_on,1,0,1,,,,,,,,0,,,74,63
98880,note_on,1,0,2,,,,,,,,1,,,71,72
98975,note_on,95,0,4,,,,,,,,3,,,47,0
98999,note_on,119,0,1,,,,,,,,0,,,74,0
99000,note_on,1,0,1,,,,,,,,0,,,76,65
99096,note_on,216,0,2,,,,,,,,1,,,71,0
99119,note_on,119,0,1,,,,,,,,0,,,76,0
99119,note_on,479,0,3,,,,,,,,2,,,59,0
99120,note_on,145,0,4,,,,,,,,3,,,62,36
99120,note_on,1,0,1,,,,,,,,0,,,74,67
99120,note_on,1,0,3,,,,,,,,2,,,62,70
99239,note_on,119,0,1,,,,,,,,0,,,74,0
99240,note_on,1,0,1,,,,,,,,0,,,88,69
99356,set_tempo,1440,1,0,,,,,,674460,,,,,,
99359,note_on,119,0,1,,,,,,,,0,,,88,0
99359,note_on,239,0,4,,,,,,,,3,,,62,0
99360,note_on,1,0,1,,,,,,,,0,,,86,72
99360,note_on,1,0,4,,,,,,,,3,,,55,35
99360,note_on,0,0,4,,,,,,,,3,,,50,35
99479,note_on,119,0,1,,,,,,,,0,,,86,0
99480,note_on,1,0,1,,,,,,,,0,,,100,74
99599,note_on,239,0,4,,,,,,,,3,,,50,0
99599,note_on,0,0,4,,,,,,,,3,,,55,0
99599,note_on,479,0,3,,,,,,,,2,,,62,0
99599,note_on,119,0,1,,,,,,,,0,,,100,0
99600,note_on,1,0,3,,,,,,,,2,,,62,73
99600,note_on,1,0,1,,,,,,,,0,,,98,76
99600,note_on,1,0,4,,,,,,,,3,,,62,35
99719,note_on,119,0,1,,,,,,,,0,,,98,0
99720,note_on,1,0,1,,,,,,,,0,,,88,78
99816,note_on,216,0,4,,,,,,,,3,,,62,0
99816,note_on,216,0,3,,,,,,,,2,,,62,0
99828,note_on,108,0,1,,,,,,,,0,,,88,0
99840,control_change,12,0,1,,,,,,,,0,64,127,,
99840,note_on,0,0,1,,,,,,,,0,,,86,81
99840,control_change,24,0,4,,,,,,,,3,64,127,,
99840,note_on,0,0,4,,,,,,,,3,,,42,60
99840,control_change,744,0,2,,,,,,,,1,64,127,,
99840,note_on,0,0,2,,,,,,,,1,,,84,84
99935,note_on,95,0,4,,,,,,,,3,,,42,0
99959,note_on,119,0,2,,,,,,,,1,,,84,0
99960,note_on,1,0,2,,,,,,,,1,,,83,70
100079,note_on,119,0,2,,,,,,,,1,,,83,0
100080,note_on,264,0,3,,,,,,,,2,,,60,77
100080,note_on,145,0,4,,,,,,,,3,,,50,35
100080,note_on,1,0,2,,,,,,,,1,,,81,68
100199,note_on,119,0,2,,,,,,,,1,,,81,0
100200,note_on,1,0,2,,,,,,,,1,,,76,65
100319,note_on,119,0,2,,,,,,,,1,,,76,0
100319,note_on,479,0,1,,,,,,,,0,,,86,0
100319,note_on,239,0,4,,,,,,,,3,,,50,0
100320,note_on,1,0,2,,,,,,,,1,,,71,62
100320,note_on,1,0,1,,,,,,,,0,,,74,88
100320,note_on,1,0,4,,,,,,,,3,,,43,35
100415,note_on,95,0,4,,,,,,,,3,,,43,0
100439,note_on,119,0,2,,,,,,,,1,,,71,0
100440,note_on,1,0,2,,,,,,,,1,,,69,60
100559,note_on,479,0,3,,,,,,,,2,,,60,0
100559,note_on,119,0,2,,,,,,,,1,,,69,0
100560,note_on,145,0,4,,,,,,,,3,,,50,34
100560,note_on,1,0,3,,,,,,,,2,,,59,72
100560,note_on,1,0,2,,,,,,,,1,,,67,57
100679,note_on,119,0,2,,,,,,,,1,,,67,0
100680,note_on,1,0,2,,,,,,,,1,,,64,55
100799,note_on,239,0,4,,,,,,,,3,,,50,0
100799,note_on,479,0,1,,,,,,,,0,,,74,0
100799,note_on,119,0,2,,,,,,,,1,,,64,0
100800,control_change,1,0,4,,,,,,,,3,64,0,,
100800,control_change,1,0,2,,,,,,,,1,64,0,,
100800,control_change,1,0,1,,,,,,,,0,64,0,,
100800,note_on,0,0,1,,,,,,,,0,,,74,77
100800,note_on,0,0,2,,,,,,,,1,,,69,52
100800,note_on,0,0,4,,,,,,,,3,,,38,34
100840,control_change,40,0,2,,,,,,,,1,64,127,,
100853,control_change,53,0,4,,,,,,,,3,64,127,,
100895,note_on,42,0,4,,,,,,,,3,,,38,0
100919,note_on,79,0,2,,,,,,,,1,,,69,0
100920,note_on,1,0,2,,,,,,,,1,,,67,52
101039,note_on,479,0,3,,,,,,,,2,,,59,0
101039,note_on,119,0,2,,,,,,,,1,,,67,0
101040,note_on,1,0,2,,,,,,,,1,,,66,54
101040,note_on,1,0,3,,,,,,,,2,,,57,68
101040,note_on,145,0,4,,,,,,,,3,,,57,34
101159,note_on,119,0,2,,,,,,,,1,,,66,0
101160,note_on,1,0,2,,,,,,,,1,,,62,56
101232,note_on,432,0,1,,,,,,,,0,,,74,0
101279,note_on,119,0,2,,,,,,,,1,,,62,0
101279,note_on,239,0,4,,,,,,,,3,,,57,0
101280,note_on,0,0,4,,,,,,,,3,,,50,34
101280,note_on,1,0,4,,,,,,,,3,,,54,34
101280,note_on,1,0,2,,,,,,,,1,,,66,59
101399,note_on,119,0,2,,,,,,,,1,,,66,0
101400,note_on,1,0,2,,,,,,,,1,,,67,61
101519,note_on,479,0,3,,,,,,,,2,,,57,0
101519,note_on,119,0,2,,,,,,,,1,,,67,0
101519,note_on,0,0,4,,,,,,,,3,,,54,0
101519,note_on,239,0,4,,,,,,,,3,,,50,0
101520,note_on,1,0,4,,,,,,,,3,,,57,34
101520,note_on,1,0,3,,,,,,,,2,,,57,64
101520,note_on,1,0,2,,,,,,,,1,,,69,63
101639,note_on,119,0,2,,,,,,,,1,,,69,0
101640,note_on,1,0,2,,,,,,,,1,,,86,65
101736,note_on,216,0,4,,,,,,,,3,,,57,0
101736,note_on,216,0,3,,,,,,,,2,,,57,0
101748,note_on,108,0,2,,,,,,,,1,,,86,0
101756,set_tempo,2400,1,0,,,,,,627090,,,,,,
101760,note_on,24,0,4,,,,,,,,3,,,36,60
101794,control_change,562,0,1,,,,,,,,0,64,127,,
101800,control_change,52,0,2,,,,,,,,1,64,0,,
101813,control_change,53,0,4,,,,,,,,3,64,0,,
101846,control_change,110,0,3,,,,,,,,2,64,127,,
101855,note_on,42,0,4,,,,,,,,3,,,36,0
101931,control_change,131,0,2,,,,,,,,1,64,127,,
101931,control_change,76,0,4,,,,,,,,3,64,127,,
102000,note_on,69,0,4,,,,,,,,3,,,57,60
102000,note_on,154,0,3,,,,,,,,2,,,57,64
102000,note_on,69,0,2,,,,,,,,1,,,72,63
102000,note_on,206,0,1,,,,,,,,0,,,88,84
102119,note_on,119,0,2,,,,,,,,1,,,72,0
102120,note_on,1,0,2,,,,,,,,1,,,71,49
102239,note_on,239,0,4,,,,,,,,3,,,57,0
102239,note_on,119,0,2,,,,,,,,1,,,71,0
102240,note_on,0,0,4,,,,,,,,3,,,52,33
102240,note_on,1,0,4,,,,,,,,3,,,55,33
102240,note_on,1,0,2,,,,,,,,1,,,69,50
102359,note_on,119,0,2,,,,,,,,1,,,69,0
102360,note_on,1,0,2,,,,,,,,1,,,64,51
102479,note_on,239,0,4,,,,,,,,3,,,52,0
102479,note_on,119,0,2,,,,,,,,1,,,64,0
102479,note_on,0,0,4,,,,,,,,3,,,55,0
102479,note_on,479,0,3,,,,,,,,2,,,57,0
102479,note_on,479,0,1,,,,,,,,0,,,88,0
102480,note_on,1,0,3,,,,,,,,2,,,57,64
102480,note_on,1,0,4,,,,,,,,3,,,57,33
102480,note_on,1,0,2,,,,,,,,1,,,69,52
102480,note_on,1,0,1,,,,,,,,0,,,88,83
102599,note_on,119,0,2,,,,,,,,1,,,69,0
102600,note_on,1,0,2,,,,,,,,1,,,71,53
102669,control_change,189,0,3,,,,,,,,2,64,0,,
102703,control_change,223,0,4,,,,,,,,3,64,0,,
102719,note_on,16,0,4,,,,,,,,3,,,57,0
102719,note_on,119,0,2,,,,,,,,1,,,71,0
102719,note_on,239,0,1,,,,,,,,0,,,88,0
102720,note_on,1,0,1,,,,,,,,0,,,84,89
102720,note_on,1,0,4,,,,,,,,3,,,38,32
102720,control_change,1,0,2,,,,,,,,1,64,0,,
102720,note_on,0,0,2,,,,,,,,1,,,74,54
102737,control_change,68,0,3,,,,,,,,2,64,127,,
102754,control_change,34,0,1,,,,,,,,0,64,0,,
102789,control_change,69,0,2,,,,,,,,1,64,127,,
102815,note_on,95,0,4,,,,,,,,3,,,38,0
102839,note_on,50,0,2,,,,,,,,1,,,74,0
102840,note_on,1,0,2,,,,,,,,1,,,76,55
102857,control_change,42,0,4,,,,,,,,3,64,127,,
102936,note_on,182,0,1,,,,,,,,0,,,84,0
102959,note_on,222,0,3,,,,,,,,2,,,57,0
102959,note_on,119,0,2,,,,,,,,1,,,76,0
102960,note_on,1,0,3,,,,,,,,2,,,60,73
102960,note_on,103,0,4,,,,,,,,3,,,60,32
102960,note_on,1,0,2,,,,,,,,1,,,74,56
103079,note_on,119,0,2,,,,,,,,1,,,74,0
103080,note_on,1,0,2,,,,,,,,1,,,88,57
103199,note_on,239,0,4,,,,,,,,3,,,60,0
103199,note_on,119,0,2,,,,,,,,1,,,88,0
103200,note_on,1,0,4,,,,,,,,3,,,57,32
103200,note_on,0,0,4,,,,,,,,3,,,54,32
103200,note_on,1,0,2,,,,,,,,1,,,86,58
103319,note_on,119,0,2,,,,,,,,1,,,86,0
103320,note_on,1,0,2,,,,,,,,1,,,100,59
103439,note_on,479,0,3,,,,,,,,2,,,60,0
103439,note_on,0,0,4,,,,,,,,3,,,57,0
103439,note_on,239,0,4,,,,,,,,3,,,54,0
103439,note_on,119,0,2,,,,,,,,1,,,100,0
103440,note_on,1,0,3,,,,,,,,2,,,60,75
103440,note_on,1,0,4,,,,,,,,3,,,60,32
103440,note_on,1,0,2,,,,,,,,1,,,98,60
103491,control_change,51,0,4,,,,,,,,3,64,0,,
103559,note_on,119,0,2,,,,,,,,1,,,98,0
103560,note_on,1,0,2,,,,,,,,1,,,88,61
103577,control_change,17,0,2,,,,,,,,1,64,0,,
103656,note_on,216,0,3,,,,,,,,2,,,60,0
103656,note_on,165,0,4,,,,,,,,3,,,60,0
103668,note_on,91,0,2,,,,,,,,1,,,88,0
103680,control_change,744,0,1,,,,,,,,0,64,127,,
103680,note_on,0,0,1,,,,,,,,0,,,86,86
103680,control_change,12,0,2,,,,,,,,1,64,127,,
103680,note_on,0,0,2,,,,,,,,1,,,83,62
103680,note_on,0,0,4,,,,,,,,3,,,43,58
103680,control_change,24,0,4,,,,,,,,3,64,127,,
103697,control_change,41,0,3,,,,,,,,2,64,0,,
103733,control_change,36,0,3,,,,,,,,2,64,127,,
103775,note_on,95,0,4,,,,,,,,3,,,43,0
103799,note_on,119,0,2,,,,,,,,1,,,83,0
103800,note_on,1,0,2,,,,,,,,1,,,81,66
103919,note_on,119,0,2,,,,,,,,1,,,81,0
103920,note_on,1,0,2,,,,,,,,1,,,79,65
103920,note_on,187,0,3,,,,,,,,2,,,59,64
103920,note_on,145,0,4,,,,,,,,3,,,59,31
104039,note_on,119,0,2,,,,,,,,1,,,79,0
104040,note_on,1,0,2,,,,,,,,1,,,76,64
104159,note_on,119,0,2,,,,,,,,1,,,76,0
104159,note_on,239,0,4,,,,,,,,3,,,59,0
104159,note_on,479,0,1,,,,,,,,0,,,86,0
104160,note_on,1,0,2,,,,,,,,1,,,71,62
104160,note_on,1,0,4,,,,,,,,3,,,55,31
104160,note_on,0,0,4,,,,,,,,3,,,50,31
104160,note_on,1,0,1,,,,,,,,0,,,74,86
104279,note_on,119,0,2,,,,,,,,1,,,71,0
104280,note_on,1,0,2,,,,,,,,1,,,69,61
104352,note_on,432,0,3,,,,,,,,2,,,59,0
104399,note_on,119,0,2,,,,,,,,1,,,69,0
104399,note_on,0,0,4,,,,,,,,3,,,55,0
104399,note_on,239,0,4,,,,,,,,3,,,50,0
104400,note_on,1,0,4,,,,,,,,3,,,59,31
104400,note_on,1,0,2,,,,,,,,1,,,67,60
104519,note_on,119,0,2,,,,,,,,1,,,67,0
104520,note_on,1,0,2,,,,,,,,1,,,64,59
104639,note_on,119,0,2,,,,,,,,1,,,64,0
104639,note_on,239,0,4,,,,,,,,3,,,59,0
104640,note_on,0,0,4,,,,,,,,3,,,47,31
104640,control_change,1,0,4,,,,,,,,3,64,0,,
104640,control_change,1,0,2,,,,,,,,1,64,0,,
104640,control_change,480,0,1,,,,,,,,0,64,0,,
104640,note_on,0,0,2,,,,,,,,1,,,62,58
104693,control_change,341,0,3,,,,,,,,2,64,0,,
104735,note_on,95,0,4,,,,,,,,3,,,47,0
104759,note_on,119,0,2,,,,,,,,1,,,62,0
104760,note_on,1,0,2,,,,,,,,1,,,67,57
104879,note_on,119,0,2,,,,,,,,1,,,67,0
104880,note_on,1,0,2,,,,,,,,1,,,71,56
104880,note_on,145,0,4,,,,,,,,3,,,62,31
104975,note_on,95,0,4,,,,,,,,3,,,62,0
104999,note_on,119,0,2,,,,,,,,1,,,71,0
105000,note_on,1,0,2,,,,,,,,1,,,76,55
105119,note_on,479,0,1,,,,,,,,0,,,74,0
105119,note_on,119,0,2,,,,,,,,1,,,76,0
105120,note_on,1,0,1,,,,,,,,0,,,84,87
105120,note_on,1,0,2,,,,,,,,1,,,74,54
105120,note_on,145,0,4,,,,,,,,3,,,45,30
105215,note_on,95,0,4,,,,,,,,3,,,45,0
105239,note_on,119,0,2,,,,,,,,1,,,74,0
105240,note_on,1,0,2,,,,,,,,1,,,76,53
105359,note_on,119,0,2,,,,,,,,1,,,76,0
105360,note_on,1,0,2,,,,,,,,1,,,77,52
105360,note_on,145,0,4,,,,,,,,3,,,62,30
105446,note_on,86,0,4,,,,,,,,3,,,62,0
105479,note_on,119,0,2,,,,,,,,1,,,77,0
105480,note_on,1,0,2,,,,,,,,1,,,78,51
105552,note_on,432,0,1,,,,,,,,0,,,84,0
105563,set_tempo,3807,1,0,,,,,,569909,,,,,,
105588,note_on,108,0,2,,,,,,,,1,,,78,0
105600,note_on,0,0,4,,,,,,,,3,,,43,57
105600,note_on,12,0,2,,,,,,,,1,,,79,50
105600,control_change,154,0,4,,,,,,,,3,64,127,,
105600,control_change,48,0,1,,,,,,,,0,64,127,,
105600,note_on,0,0,2,,,,,,,,1,,,71,50
105600,note_on,907,0,3,,,,,,,,2,,,59,64
105651,control_change,51,0,2,,,,,,,,1,64,127,,
105695,note_on,95,0,4,,,,,,,,3,,,43,0
105839,note_on,188,0,2,,,,,,,,1,,,71,0
105839,note_on,0,0,2,,,,,,,,1,,,79,0
105840,note_on,145,0,4,,,,,,,,3,,,59,33
105840,note_on,240,0,1,,,,,,,,0,,,86,87
105840,note_on,1,0,2,,,,,,,,1,,,71,50
105959,note_on,119,0,2,,,,,,,,1,,,71,0
105960,note_on,1,0,2,,,,,,,,1,,,69,50
106079,note_on,239,0,4,,,,,,,,3,,,59,0
106079,note_on,119,0,2,,,,,,,,1,,,69,0
106080,note_on,1,0,2,,,,,,,,1,,,67,52
106080,note_on,0,0,4,,,,,,,,3,,,50,29
106080,note_on,1,0,4,,,,,,,,3,,,55,29
106199,note_on,119,0,2,,,,,,,,1,,,67,0
106200,note_on,1,0,2,,,,,,,,1,,,62,52
106319,note_on,719,0,3,,,,,,,,2,,,59,0
106319,note_on,0,0,4,,,,,,,,3,,,55,0
106319,note_on,479,0,1,,,,,,,,0,,,86,0
106319,note_on,239,0,4,,,,,,,,3,,,50,0
106319,note_on,119,0,2,,,,,,,,1,,,62,0
106320,note_on,1,0,3,,,,,,,,2,,,59,68
106320,note_on,1,0,2,,,,,,,,1,,,67,53
106320,note_on,1,0,4,,,,,,,,3,,,59,29
106320,note_on,1,0,1,,,,,,,,0,,,86,88
106439,note_on,119,0,2,,,,,,,,1,,,67,0
106440,note_on,1,0,2,,,,,,,,1,,,69,54
106530,set_tempo,967,1,0,,,,,,700935,,,,,,
106559,note_on,239,0,1,,,,,,,,0,,,86,0
106559,note_on,119,0,2,,,,,,,,1,,,69,0
106559,note_on,239,0,4,,,,,,,,3,,,59,0
106560,note_on,1,0,2,,,,,,,,1,,,74,55
106560,note_on,0,0,4,,,,,,,,3,,,47,29
106560,control_change,1,0,1,,,,,,,,0,64,0,,
106560,note_on,0,0,1,,,,,,,,0,,,83,88
106560,control_change,1,0,4,,,,,,,,3,64,0,,
106655,note_on,95,0,4,,,,,,,,3,,,47,0
106679,note_on,119,0,2,,,,,,,,1,,,74,0
106680,note_on,1,0,2,,,,,,,,1,,,76,56
106697,control_change,42,0,4,,,,,,,,3,64,127,,
106776,note_on,216,0,1,,,,,,,,0,,,83,0
106778,set_tempo,248,1,0,,,,,,697026,,,,,,
106799,note_on,479,0,3,,,,,,,,2,,,59,0
106799,note_on,119,0,2,,,,,,,,1,,,76,0
106800,note_on,1,0,2,,,,,,,,1,,,74,57
106800,note_on,1,0,3,,,,,,,,2,,,62,71
106800,note_on,103,0,4,,,,,,,,3,,,62,29
106919,note_on,119,0,2,,,,,,,,1,,,74,0
106920,note_on,1,0,2,,,,,,,,1,,,88,58
107039,note_on,119,0,2,,,,,,,,1,,,88,0
107039,note_on,239,0,4,,,,,,,,3,,,62,0
107040,note_on,0,0,4,,,,,,,,3,,,50,33
107040,note_on,1,0,2,,,,,,,,1,,,86,59
107040,note_on,1,0,4,,,,,,,,3,,,55,33
107159,note_on,119,0,2,,,,,,,,1,,,86,0
107160,note_on,1,0,2,,,,,,,,1,,,100,60
107279,note_on,119,0,2,,,,,,,,1,,,100,0
107279,note_on,0,0,4,,,,,,,,3,,,55,0
107279,note_on,479,0,3,,,,,,,,2,,,62,0
107279,note_on,239,0,4,,,,,,,,3,,,50,0
107280,note_on,1,0,4,,,,,,,,3,,,62,33
107280,note_on,1,0,2,,,,,,,,1,,,98,61
107280,note_on,1,0,3,,,,,,,,2,,,62,74
107399,note_on,119,0,2,,,,,,,,1,,,98,0
107400,note_on,0,0,2,,,,,,,,1,,,88,62
107400,control_change,1,0,2,,,,,,,,1,64,0,,
107490,set_tempo,712,1,0,,,,,,572519,,,,,,
107496,note_on,216,0,4,,,,,,,,3,,,62,0
107496,note_on,216,0,3,,,,,,,,2,,,62,0
107508,note_on,108,0,2,,,,,,,,1,,,88,0
107520,control_change,12,0,2,,,,,,,,1,64,127,,
107520,control_change,744,0,1,,,,,,,,0,64,127,,
107520,note_on,24,0,4,,,,,,,,3,,,42,59
107520,note_on,0,0,1,,,,,,,,0,,,86,87
107520,note_on,0,0,2,,,,,,,,1,,,84,65
107615,note_on,95,0,4,,,,,,,,3,,,42,0
107627,control_change,131,0,3,,,,,,,,2,64,127,,
107639,note_on,119,0,2,,,,,,,,1,,,84,0
107640,note_on,1,0,2,,,,,,,,1,,,83,64
107657,control_change,42,0,4,,,,,,,,3,64,0,,
107733,control_change,76,0,4,,,,,,,,3,64,127,,
107759,note_on,119,0,2,,,,,,,,1,,,83,0
107760,note_on,133,0,3,,,,,,,,2,,,60,77
107760,note_on,1,0,2,,,,,,,,1,,,81,63
107760,note_on,27,0,4,,,,,,,,3,,,50,33
107879,note_on,119,0,2,,,,,,,,1,,,81,0
107880,note_on,1,0,2,,,,,,,,1,,,76,62
107999,note_on,119,0,2,,,,,,,,1,,,76,0
107999,note_on,479,0,1,,,,,,,,0,,,86,0
107999,note_on,239,0,4,,,,,,,,3,,,50,0
108000,note_on,1,0,4,,,,,,,,3,,,43,33
108000,note_on,1,0,1,,,,,,,,0,,,74,87
108000,note_on,1,0,2,,,,,,,,1,,,71,61
108119,note_on,119,0,2,,,,,,,,1,,,71,0
108120,note_on,1,0,2,,,,,,,,1,,,69,60
108239,note_on,239,0,4,,,,,,,,3,,,43,0
108239,note_on,479,0,3,,,,,,,,2,,,60,0
108239,note_on,119,0,2,,,,,,,,1,,,69,0
108240,note_on,1,0,3,,,,,,,,2,,,59,71
108240,note_on,1,0,4,,,,,,,,3,,,50,33
108240,note_on,1,0,2,,,,,,,,1,,,67,59
108359,note_on,119,0,2,,,,,,,,1,,,67,0
108360,note_on,1,0,2,,,,,,,,1,,,64,59
108479,note_on,239,0,4,,,,,,,,3,,,50,0
108479,note_on,479,0,1,,,,,,,,0,,,74,0
108479,note_on,119,0,2,,,,,,,,1,,,64,0
108480,note_on,1,0,4,,,,,,,,3,,,38,33
108480,note_on,0,0,1,,,,,,,,0,,,74,87
108480,control_change,1,0,1,,,,,,,,0,64,0,,
108480,note_on,1,0,2,,,,,,,,1,,,69,57
108575,note_on,95,0,4,,,,,,,,3,,,38,0
108587,control_change,347,0,3,,,,,,,,2,64,0,,
108599,note_on,119,0,2,,,,,,,,1,,,69,0
108600,note_on,1,0,2,,,,,,,,1,,,67,56
108665,set_tempo,1175,1,0,,,,,,620861,,,,,,
108693,control_change,118,0,4,,,,,,,,3,64,0,,
108719,note_on,132,0,3,,,,,,,,2,,,59,0
108719,note_on,119,0,2,,,,,,,,1,,,67,0
108720,note_on,1,0,3,,,,,,,,2,,,57,65
108720,note_on,1,0,2,,,,,,,,1,,,66,56
108720,note_on,27,0,4,,,,,,,,3,,,57,33
108839,note_on,119,0,2,,,,,,,,1,,,66,0
108840,note_on,1,0,2,,,,,,,,1,,,62,55
108912,note_on,432,0,1,,,,,,,,0,,,74,0
108959,note_on,239,0,4,,,,,,,,3,,,57,0
108959,note_on,119,0,2,,,,,,,,1,,,62,0
108960,note_on,1,0,4,,,,,,,,3,,,54,33
108960,note_on,0,0,4,,,,,,,,3,,,50,33
108960,note_on,1,0,2,,,,,,,,1,,,66,54
109079,note_on,119,0,2,,,,,,,,1,,,66,0
109080,note_on,1,0,2,,,,,,,,1,,,67,53
109152,note_on,432,0,3,,,,,,,,2,,,57,0
109178,set_tempo,513,1,0,,,,,,697026,,,,,,
109199,note_on,239,0,4,,,,,,,,3,,,50,0
109199,note_on,119,0,2,,,,,,,,1,,,67,0
109199,note_on,0,0,4,,,,,,,,3,,,54,0
109200,note_on,1,0,2,,,,,,,,1,,,69,52
109200,note_on,1,0,4,,,,,,,,3,,,57,33
109293,control_change,93,0,2,,,,,,,,1,64,0,,
109319,note_on,26,0,2,,,,,,,,1,,,69,0
109320,note_on,1,0,2,,,,,,,,1,,,86,51
109416,note_on,216,0,4,,,,,,,,3,,,57,0
109428,note_on,108,0,2,,,,,,,,1,,,86,0
109440,control_change,12,0,2,,,,,,,,1,64,127,,
109440,note_on,0,0,4,,,,,,,,3,,,36,62
109440,control_change,528,0,1,,,,,,,,0,64,127,,
109440,control_change,24,0,4,,,,,,,,3,64,127,,
109535,note_on,95,0,4,,,,,,,,3,,,36,0
109680,note_on,240,0,1,,,,,,,,0,,,76,88
109680,note_on,145,0,4,,,,,,,,3,,,57,33
109680,note_on,240,0,2,,,,,,,,1,,,72,49
109680,note_on,528,0,3,,,,,,,,2,,,57,64
109799,note_on,119,0,2,,,,,,,,1,,,72,0
109800,note_on,1,0,2,,,,,,,,1,,,71,50
109898,set_tempo,720,1,0,,,,,,617792,,,,,,
109919,note_on,239,0,4,,,,,,,,3,,,57,0
109919,note_on,119,0,2,,,,,,,,1,,,71,0
109920,note_on,0,0,4,,,,,,,,3,,,52,33
109920,note_on,1,0,4,,,,,,,,3,,,55,33
109920,note_on,1,0,2,,,,,,,,1,,,69,51
110039,note_on,119,0,2,,,,,,,,1,,,69,0
110040,note_on,1,0,2,,,,,,,,1,,,64,52
110159,note_on,479,0,1,,,,,,,,0,,,76,0
110159,note_on,0,0,4,,,,,,,,3,,,55,0
110159,note_on,119,0,2,,,,,,,,1,,,64,0
110159,note_on,479,0,3,,,,,,,,2,,,57,0
110159,note_on,239,0,4,,,,,,,,3,,,52,0
110160,note_on,1,0,3,,,,,,,,2,,,57,64
110160,note_on,1,0,2,,,,,,,,1,,,69,53
110160,note_on,1,0,1,,,,,,,,0,,,76,94
110160,note_on,1,0,4,,,,,,,,3,,,57,33
110279,note_on,119,0,2,,,,,,,,1,,,69,0
110280,note_on,1,0,2,,,,,,,,1,,,71,54
110399,note_on,239,0,1,,,,,,,,0,,,76,0
110399,note_on,239,0,4,,,,,,,,3,,,57,0
110399,note_on,119,0,2,,,,,,,,1,,,71,0
110400,note_on,0,0,4,,,,,,,,3,,,33,63
110400,note_on,0,0,1,,,,,,,,0,,,72,92
110400,control_change,1,0,1,,,,,,,,0,64,0,,
110400,note_on,0,0,2,,,,,,,,1,,,76,55
110400,control_change,1,0,4,,,,,,,,3,64,0,,
110400,control_change,1,0,2,,,,,,,,1,64,0,,
110453,control_change,53,0,2,,,,,,,,1,64,127,,
110495,note_on,95,0,4,,,,,,,,3,,,33,0
110519,note_on,66,0,2,,,,,,,,1,,,76,0
110520,note_on,1,0,2,,,,,,,,1,,,78,56
110616,note_on,216,0,1,,,,,,,,0,,,72,0
110639,note_on,479,0,3,,,,,,,,2,,,57,0
110639,note_on,119,0,2,,,,,,,,1,,,78,0
110640,note_on,145,0,4,,,,,,,,3,,,60,33
110640,note_on,1,0,3,,,,,,,,2,,,60,73
110640,note_on,1,0,2,,,,,,,,1,,,76,57
110759,note_on,119,0,2,,,,,,,,1,,,76,0
110760,note_on,1,0,2,,,,,,,,1,,,90,58
110879,note_on,119,0,2,,,,,,,,1,,,90,0
110879,note_on,239,0,4,,,,,,,,3,,,60,0
110880,note_on,1,0,4,,,,,,,,3,,,54,33
110880,note_on,1,0,2,,,,,,,,1,,,88,59
110880,note_on,0,0,4,,,,,,,,3,,,52,33
110999,note_on,119,0,2,,,,,,,,1,,,88,0
111000,note_on,1,0,2,,,,,,,,1,,,102,60
111119,note_on,0,0,4,,,,,,,,3,,,54,0
111119,note_on,479,0,3,,,,,,,,2,,,60,0
111119,note_on,119,0,2,,,,,,,,1,,,102,0
111119,note_on,239,0,4,,,,,,,,3,,,52,0
111120,note_on,1,0,4,,,,,,,,3,,,60,33
111120,note_on,1,0,3,,,,,,,,2,,,60,76
111120,note_on,1,0,2,,,,,,,,1,,,100,61
111239,note_on,119,0,2,,,,,,,,1,,,100,0
111240,note_on,1,0,2,,,,,,,,1,,,88,62
111336,note_on,216,0,3,,,,,,,,2,,,60,0
111336,note_on,216,0,4,,,,,,,,3,,,60,0
111348,note_on,108,0,2,,,,,,,,1,,,88,0
111360,control_change,24,0,4,,,,,,,,3,64,127,,
111360,note_on,0,0,4,,,,,,,,3,,,35,61
111371,set_tempo,1473,1,0,,,,,,693161,,,,,,
111413,control_change,65,0,2,,,,,,,,1,64,0,,
111427,control_change,811,0,1,,,,,,,,0,64,127,,
111455,note_on,95,0,4,,,,,,,,3,,,35,0
111467,control_change,54,0,2,,,,,,,,1,64,127,,
111600,note_on,133,0,2,,,,,,,,1,,,75,64
111600,note_on,145,0,4,,,,,,,,3,,,59,33
111600,note_on,264,0,3,,,,,,,,2,,,59,64
111600,note_on,173,0,1,,,,,,,,0,,,78,91
111719,note_on,119,0,2,,,,,,,,1,,,75,0
111720,note_on,1,0,2,,,,,,,,1,,,72,64
111839,note_on,239,0,4,,,,,,,,3,,,59,0
111839,note_on,119,0,2,,,,,,,,1,,,72,0
111840,note_on,1,0,2,,,,,,,,1,,,71,63
111840,note_on,0,0,4,,,,,,,,3,,,51,33
111840,note_on,1,0,4,,,,,,,,3,,,54,33
111959,note_on,119,0,2,,,,,,,,1,,,71,0
111960,note_on,1,0,2,,,,,,,,1,,,66,61
112032,note_on,432,0,3,,,,,,,,2,,,59,0
112079,note_on,479,0,1,,,,,,,,0,,,78,0
112079,note_on,119,0,2,,,,,,,,1,,,66,0
112079,note_on,239,0,4,,,,,,,,3,,,51,0
112079,note_on,0,0,4,,,,,,,,3,,,54,0
112080,note_on,1,0,1,,,,,,,,0,,,78,91
112080,note_on,1,0,4,,,,,,,,3,,,59,33
112080,note_on,1,0,2,,,,,,,,1,,,71,60
112199,note_on,119,0,2,,,,,,,,1,,,71,0
112200,note_on,1,0,2,,,,,,,,1,,,72,59
112296,note_on,216,0,1,,,,,,,,0,,,78,0
112319,note_on,119,0,2,,,,,,,,1,,,72,0
112319,note_on,239,0,4,,,,,,,,3,,,59,0
112320,note_on,0,0,2,,,,,,,,1,,,74,57
112320,note_on,1,0,2,,,,,,,,1,,,78,57
112320,note_on,0,0,4,,,,,,,,3,,,47,33
112320,control_change,1,0,4,,,,,,,,3,64,0,,
112387,control_change,91,0,1,,,,,,,,0,64,0,,
112413,control_change,93,0,4,,,,,,,,3,64,127,,
112415,note_on,2,0,4,,,,,,,,3,,,47,0
112439,note_on,119,0,2,,,,,,,,1,,,74,0
112439,note_on,0,0,2,,,,,,,,1,,,78,0
112440,note_on,1,0,2,,,,,,,,1,,,84,56
112559,note_on,119,0,2,,,,,,,,1,,,84,0
112560,note_on,145,0,4,,,,,,,,3,,,63,33
112560,note_on,1,0,2,,,,,,,,1,,,83,55
112560,note_on,0,0,2,,,,,,,,1,,,78,55
112679,note_on,0,0,2,,,,,,,,1,,,83,0
112679,note_on,119,0,2,,,,,,,,1,,,78,0
112680,note_on,1,0,2,,,,,,,,1,,,88,53
112799,note_on,119,0,2,,,,,,,,1,,,88,0
112799,note_on,239,0,4,,,,,,,,3,,,63,0
112800,note_on,1,0,2,,,,,,,,1,,,87,52
112800,note_on,1,0,4,,,,,,,,3,,,59,33
112800,note_on,0,0,4,,,,,,,,3,,,54,33
112800,note_on,0,0,2,,,,,,,,1,,,83,52
112919,note_on,0,0,2,,,,,,,,1,,,87,0
112919,note_on,119,0,2,,,,,,,,1,,,83,0
112920,note_on,1,0,2,,,,,,,,1,,,91,51
113039,note_on,0,0,4,,,,,,,,3,,,59,0
113039,note_on,239,0,4,,,,,,,,3,,,54,0
113039,note_on,119,0,2,,,,,,,,1,,,91,0
113040,note_on,1,0,4,,,,,,,,3,,,63,33
113040,note_on,1,0,2,,,,,,,,1,,,90,49
113040,note_on,0,0,2,,,,,,,,1,,,86,49
113080,control_change,40,0,2,,,,,,,,1,64,0,,
113159,note_on,79,0,2,,,,,,,,1,,,86,0
113159,note_on,0,0,2,,,,,,,,1,,,90,0
113160,note_on,1,0,2,,,,,,,,1,,,95,48
113256,note_on,216,0,4,,,,,,,,3,,,63,0
113258,set_tempo,1887,1,0,,,,,,620861,,,,,,
113268,note_on,108,0,2,,,,,,,,1,,,95,0
113280,note_on,24,0,4,,,,,,,,3,,,47,61
113373,control_change,93,0,4,,,,,,,,3,64,0,,
113413,control_change,145,0,2,,,,,,,,1,64,127,,
113413,control_change,1026,0,1,,,,,,,,0,64,127,,
113519,note_on,146,0,4,,,,,,,,3,,,47,0
113520,note_on,107,0,2,,,,,,,,1,,,76,44
113520,note_on,1,0,4,,,,,,,,3,,,64,33
113520,note_on,107,0,1,,,,,,,,0,,,79,92
113639,note_on,119,0,2,,,,,,,,1,,,76,0
113640,note_on,1,0,2,,,,,,,,1,,,72,46
113759,note_on,119,0,2,,,,,,,,1,,,72,0
113759,note_on,239,0,4,,,,,,,,3,,,64,0
113760,note_on,1,0,2,,,,,,,,1,,,71,47
113760,note_on,1,0,4,,,,,,,,3,,,59,33
113760,note_on,0,0,4,,,,,,,,3,,,55,33
113879,note_on,119,0,2,,,,,,,,1,,,71,0
113880,note_on,1,0,2,,,,,,,,1,,,67,48
113999,note_on,239,0,4,,,,,,,,3,,,55,0
113999,note_on,479,0,1,,,,,,,,0,,,79,0
113999,note_on,0,0,4,,,,,,,,3,,,59,0
113999,note_on,119,0,2,,,,,,,,1,,,67,0
114000,note_on,1,0,2,,,,,,,,1,,,71,49
114000,note_on,1,0,1,,,,,,,,0,,,79,92
114000,note_on,1,0,4,,,,,,,,3,,,64,33
114119,note_on,119,0,2,,,,,,,,1,,,71,0
114120,note_on,1,0,2,,,,,,,,1,,,76,50
114216,note_on,216,0,1,,,,,,,,0,,,79,0
114239,note_on,119,0,2,,,,,,,,1,,,76,0
114239,note_on,239,0,4,,,,,,,,3,,,64,0
114240,note_on,1,0,2,,,,,,,,1,,,71,52
114240,note_on,0,0,2,,,,,,,,1,,,67,52
114240,note_on,1,0,4,,,,,,,,3,,,47,33
114359,note_on,0,0,2,,,,,,,,1,,,71,0
114359,note_on,119,0,2,,,,,,,,1,,,67,0
114360,note_on,1,0,2,,,,,,,,1,,,78,53
114373,control_change,157,0,1,,,,,,,,0,64,0,,
114373,control_change,13,0,2,,,,,,,,1,64,0,,
114479,note_on,106,0,2,,,,,,,,1,,,78,0
114479,note_on,239,0,4,,,,,,,,3,,,47,0
114480,note_on,1,0,4,,,,,,,,3,,,64,33
114480,note_on,1,0,2,,,,,,,,1,,,76,54
114480,note_on,0,0,2,,,,,,,,1,,,71,54
114599,note_on,0,0,2,,,,,,,,1,,,76,0
114599,note_on,119,0,2,,,,,,,,1,,,71,0
114600,note_on,1,0,2,,,,,,,,1,,,81,55
114719,note_on,119,0,2,,,,,,,,1,,,81,0
114719,note_on,239,0,4,,,,,,,,3,,,64,0
114720,note_on,0,0,2,,,,,,,,1,,,76,57
114720,note_on,1,0,2,,,,,,,,1,,,79,57
114720,note_on,1,0,4,,,,,,,,3,,,61,33
114720,note_on,0,0,4,,,,,,,,3,,,58,33
114720,note_on,0,0,4,,,,,,,,3,,,55,33
114839,note_on,0,0,2,,,,,,,,1,,,79,0
114839,note_on,119,0,2,,,,,,,,1,,,76,0
114840,note_on,1,0,2,,,,,,,,1,,,83,58
114959,note_on,0,0,4,,,,,,,,3,,,58,0
114959,note_on,0,0,4,,,,,,,,3,,,61,0
114959,note_on,239,0,4,,,,,,,,3,,,55,0
114959,note_on,119,0,2,,,,,,,,1,,,83,0
114960,note_on,0,0,2,,,,,,,,1,,,79,59
114960,note_on,1,0,2,,,,,,,,1,,,82,59
114960,note_on,1,0,4,,,,,,,,3,,,64,33
115079,note_on,0,0,2,,,,,,,,1,,,82,0
115079,note_on,119,0,2,,,,,,,,1,,,79,0
115080,note_on,1,0,2,,,,,,,,1,,,88,60
115176,note_on,216,0,4,,,,,,,,3,,,64,0
115188,note_on,108,0,2,,,,,,,,1,,,88,0
115200,note_on,0,0,4,,,,,,,,3,,,47,60
115200,control_change,24,0,4,,,,,,,,3,64,127,,
115200,control_change,827,0,1,,,,,,,,0,64,127,,
115211,set_tempo,1953,1,0,,,,,,627090,,,,,,
115250,control_change,62,0,2,,,,,,,,1,64,127,,
115327,set_tempo,116,1,0,,,,,,630252,,,,,,
115427,set_tempo,100,1,0,,,,,,633446,,,,,,
115439,note_on,239,0,4,,,,,,,,3,,,47,0
115440,note_on,1,0,4,,,,,,,,3,,,63,32
115440,note_on,190,0,2,,,,,,,,1,,,75,47
115440,note_on,240,0,1,,,,,,,,0,,,78,92
115526,set_tempo,99,1,0,,,,,,636672,,,,,,
115559,note_on,119,0,2,,,,,,,,1,,,75,0
115560,note_on,1,0,2,,,,,,,,1,,,72,48
115625,set_tempo,99,1,0,,,,,,639932,,,,,,
115679,note_on,119,0,2,,,,,,,,1,,,72,0
115679,note_on,239,0,4,,,,,,,,3,,,63,0
115680,note_on,1,0,4,,,,,,,,3,,,59,33
115680,note_on,1,0,2,,,,,,,,1,,,71,49
115680,note_on,0,0,4,,,,,,,,3,,,54,33
115724,set_tempo,99,1,0,,,,,,643225,,,,,,
115799,note_on,119,0,2,,,,,,,,1,,,71,0
115800,note_on,1,0,2,,,,,,,,1,,,66,50
115824,set_tempo,100,1,0,,,,,,646552,,,,,,
115872,note_on,432,0,1,,,,,,,,0,,,78,0
115919,note_on,119,0,2,,,,,,,,1,,,66,0
115919,note_on,239,0,4,,,,,,,,3,,,54,0
115919,note_on,0,0,4,,,,,,,,3,,,59,0
115920,note_on,1,0,2,,,,,,,,1,,,71,52
115920,note_on,1,0,4,,,,,,,,3,,,63,33
115923,set_tempo,99,1,0,,,,,,649913,,,,,,
116022,set_tempo,99,1,0,,,,,,653310,,,,,,
116039,note_on,119,0,2,,,,,,,,1,,,71,0
116040,note_on,1,0,2,,,,,,,,1,,,72,53
116122,set_tempo,100,1,0,,,,,,656743,,,,,,
116159,note_on,239,0,4,,,,,,,,3,,,63,0
116159,note_on,119,0,2,,,,,,,,1,,,72,0
116160,note_on,0,0,4,,,,,,,,3,,,47,34
116160,control_change,288,0,1,,,,,,,,0,64,0,,
116160,note_on,1,0,2,,,,,,,,1,,,78,54
116160,control_change,1,0,4,,,,,,,,3,64,0,,
116160,note_on,0,0,2,,,,,,,,1,,,75,54
116221,set_tempo,99,1,0,,,,,,660211,,,,,,
116279,note_on,119,0,2,,,,,,,,1,,,75,0
116279,note_on,0,0,2,,,,,,,,1,,,78,0
116280,note_on,1,0,2,,,,,,,,1,,,84,55
116320,set_tempo,99,1,0,,,,,,663717,,,,,,
116399,note_on,239,0,4,,,,,,,,3,,,47,0
116399,note_on,119,0,2,,,,,,,,1,,,84,0
116400,note_on,1,0,4,,,,,,,,3,,,63,34
116400,note_on,0,0,2,,,,,,,,1,,,78,56
116400,note_on,1,0,2,,,,,,,,1,,,83,56
116420,set_tempo,100,1,0,,,,,,667260,,,,,,
116519,note_on,119,0,2,,,,,,,,1,,,78,0
116519,note_on,0,0,2,,,,,,,,1,,,83,0
116520,note_on,1,0,2,,,,,,,,1,,,88,57
116536,set_tempo,116,1,0,,,,,,670841,,,,,,
116635,set_tempo,99,1,0,,,,,,674460,,,,,,
116639,note_on,119,0,2,,,,,,,,1,,,88,0
116639,note_on,239,0,4,,,,,,,,3,,,63,0
116640,note_on,1,0,2,,,,,,,,1,,,87,59
116640,note_on,0,0,2,,,,,,,,1,,,83,59
116640,note_on,1,0,4,,,,,,,,3,,,59,35
116640,note_on,0,0,4,,,,,,,,3,,,54,35
116734,set_tempo,99,1,0,,,,,,678119,,,,,,
116759,note_on,0,0,2,,,,,,,,1,,,87,0
116759,note_on,119,0,2,,,,,,,,1,,,83,0
116760,note_on,1,0,2,,,,,,,,1,,,91,60
116833,set_tempo,99,1,0,,,,,,681818,,,,,,
116879,note_on,239,0,4,,,,,,,,3,,,54,0
116879,note_on,119,0,2,,,,,,,,1,,,91,0
116879,note_on,0,0,4,,,,,,,,3,,,59,0
116880,note_on,1,0,4,,,,,,,,3,,,63,35
116880,note_on,0,0,2,,,,,,,,1,,,87,61
116880,note_on,1,0,2,,,,,,,,1,,,90,61
116933,set_tempo,100,1,0,,,,,,685558,,,,,,
116999,note_on,0,0,2,,,,,,,,1,,,90,0
116999,note_on,119,0,2,,,,,,,,1,,,87,0
117000,note_on,1,0,2,,,,,,,,1,,,96,62
117032,set_tempo,99,1,0,,,,,,689338,,,,,,
117096,note_on,216,0,4,,,,,,,,3,,,63,0
117108,note_on,108,0,2,,,,,,,,1,,,96,0
117120,note_on,12,0,2,,,,,,,,1,,,95,63
117120,note_on,0,0,2,,,,,,,,1,,,91,63
117131,set_tempo,99,1,0,,,,,,693161,,,,,,
117231,set_tempo,100,1,0,,,,,,697026,,,,,,
117239,note_on,119,0,2,,,,,,,,1,,,91,0
117239,note_on,0,0,2,,,,,,,,1,,,95,0
117240,note_on,1,0,2,,,,,,,,1,,,90,62
117330,set_tempo,99,1,0,,,,,,700935,,,,,,
117359,note_on,119,0,2,,,,,,,,1,,,90,0
117360,note_on,0,0,2,,,,,,,,1,,,87,61
117360,note_on,1,0,2,,,,,,,,1,,,90,61
117429,set_tempo,99,1,0,,,,,,704887,,,,,,
117479,note_on,0,0,2,,,,,,,,1,,,90,0
117479,note_on,119,0,2,,,,,,,,1,,,87,0
117480,note_on,1,0,2,,,,,,,,1,,,84,61
117529,set_tempo,100,1,0,,,,,,708885,,,,,,
117599,note_on,119,0,2,,,,,,,,1,,,84,0
117600,note_on,0,0,2,,,,,,,,1,,,84,59
117600,note_on,1,0,2,,,,,,,,1,,,87,59
117628,set_tempo,99,1,0,,,,,,712928,,,,,,
117719,note_on,0,0,2,,,,,,,,1,,,87,0
117719,note_on,119,0,2,,,,,,,,1,,,84,0
117720,note_on,1,0,2,,,,,,,,1,,,83,58
117727,set_tempo,99,1,0,,,,,,717017,,,,,,
117839,note_on,119,0,2,,,,,,,,1,,,83,0
117840,note_on,1,0,2,,,,,,,,1,,,83,58
117840,note_on,0,0,2,,,,,,,,1,,,79,58
117843,set_tempo,116,1,0,,,,,,721154,,,,,,
117942,set_tempo,99,1,0,,,,,,725338,,,,,,
117959,note_on,119,0,2,,,,,,,,1,,,79,0
117959,note_on,0,0,2,,,,,,,,1,,,83,0
117960,note_on,1,0,2,,,,,,,,1,,,78,57
118042,set_tempo,100,1,0,,,,,,729572,,,,,,
118079,note_on,119,0,2,,,,,,,,1,,,78,0
118080,note_on,1,0,2,,,,,,,,1,,,78,55
118080,note_on,0,0,2,,,,,,,,1,,,75,55
118141,set_tempo,99,1,0,,,,,,733855,,,,,,
118199,note_on,0,0,2,,,,,,,,1,,,78,0
118199,note_on,119,0,2,,,,,,,,1,,,75,0
118200,note_on,1,0,2,,,,,,,,1,,,72,55
118240,set_tempo,99,1,0,,,,,,738189,,,,,,
118319,note_on,119,0,2,,,,,,,,1,,,72,0
118320,note_on,1,0,2,,,,,,,,1,,,75,54
118320,note_on,0,0,2,,,,,,,,1,,,72,54
118340,set_tempo,100,1,0,,,,,,742574,,,,,,
118439,note_on,0,0,2,,,,,,,,1,,,75,0
118439,set_tempo,99,1,0,,,,,,747012,,,,,,
118439,note_on,119,0,2,,,,,,,,1,,,72,0
118440,note_on,1,0,2,,,,,,,,1,,,71,53
118538,set_tempo,99,1,0,,,,,,751503,,,,,,
118559,note_on,119,0,2,,,,,,,,1,,,71,0
118560,note_on,0,0,2,,,,,,,,1,,,71,52
118560,note_on,1,0,2,,,,,,,,1,,,67,52
118638,set_tempo,100,1,0,,,,,,756048,,,,,,
118679,note_on,119,0,2,,,,,,,,1,,,71,0
118679,note_on,0,0,2,,,,,,,,1,,,67,0
118680,note_on,1,0,2,,,,,,,,1,,,66,51
118737,set_tempo,99,1,0,,,,,,760649,,,,,,
118799,note_on,119,0,2,,,,,,,,1,,,66,0
118800,note_on,0,0,2,,,,,,,,1,,,66,50
118800,note_on,1,0,2,,,,,,,,1,,,63,50
118836,set_tempo,99,1,0,,,,,,765306,,,,,,
118919,note_on,119,0,2,,,,,,,,1,,,66,0
118919,note_on,0,0,2,,,,,,,,1,,,63,0
118920,note_on,1,0,2,,,,,,,,1,,,60,49
118936,set_tempo,100,1,0,,,,,,770021,,,,,,
119028,note_on,108,0,2,,,,,,,,1,,,60,0
119035,set_tempo,99,1,0,,,,,,774793,,,,,,
119040,note_on,12,0,2,,,,,,,,1,,,60,48
119040,note_on,0,0,2,,,,,,,,1,,,63,48
119159,note_on,119,0,2,,,,,,,,1,,,63,0
119159,note_on,0,0,2,,,,,,,,1,,,60,0
119160,note_on,1,0,2,,,,,,,,1,,,59,47
119279,note_on,119,0,2,,,,,,,,1,,,59,0
119280,note_on,1,0,2,,,,,,,,1,,,55,46
119399,note_on,119,0,2,,,,,,,,1,,,55,0
119400,note_on,1,0,2,,,,,,,,1,,,54,45
119519,note_on,119,0,2,,,,,,,,1,,,54,0
119520,note_on,1,0,2,,,,,,,,1,,,51,44
119639,note_on,119,0,2,,,,,,,,1,,,51,0
119640,note_on,1,0,2,,,,,,,,1,,,48,43
119704,set_tempo,669,1,0,,,,,,765306,,,,,,
119754,set_tempo,50,1,0,,,,,,760649,,,,,,
119759,note_on,119,0,2,,,,,,,,1,,,48,0
119760,note_on,1,0,2,,,,,,,,1,,,46,42
119787,set_tempo,33,1,0,,,,,,756048,,,,,,
119820,set_tempo,33,1,0,,,,,,751503,,,,,,
119870,set_tempo,50,1,0,,,,,,747012,,,,,,
119879,note_on,119,0,2,,,,,,,,1,,,46,0
119880,note_on,1,0,2,,,,,,,,1,,,47,41
119903,set_tempo,33,1,0,,,,,,742574,,,,,,
119907,control_change,27,0,2,,,,,,,,1,64,0,,
119936,set_tempo,33,1,0,,,,,,738189,,,,,,
119969,set_tempo,33,1,0,,,,,,733855,,,,,,
119999,note_on,92,0,2,,,,,,,,1,,,47,0
120000,control_change,1,0,2,,,,,,,,1,64,127,,
120000,note_on,0,0,2,,,,,,,,1,,,51,40
120019,set_tempo,50,1,0,,,,,,729572,,,,,,
120052,set_tempo,33,1,0,,,,,,725338,,,,,,
120085,set_tempo,33,1,0,,,,,,721154,,,,,,
120118,set_tempo,33,1,0,,,,,,717017,,,,,,
120119,note_on,119,0,2,,,,,,,,1,,,51,0
120120,note_on,1,0,2,,,,,,,,1,,,54,39
120168,set_tempo,50,1,0,,,,,,712928,,,,,,
120201,set_tempo,33,1,0,,,,,,708885,,,,,,
120234,set_tempo,33,1,0,,,,,,704887,,,,,,
120239,note_on,119,0,2,,,,,,,,1,,,54,0
120240,note_on,1,0,2,,,,,,,,1,,,57,38
120284,set_tempo,50,1,0,,,,,,700935,,,,,,
120317,set_tempo,33,1,0,,,,,,697026,,,,,,
120350,set_tempo,33,1,0,,,,,,693161,,,,,,
120359,note_on,119,0,2,,,,,,,,1,,,57,0
120360,note_on,1,0,2,,,,,,,,1,,,59,37
120383,set_tempo,33,1,0,,,,,,689338,,,,,,
120433,set_tempo,50,1,0,,,,,,685558,,,,,,
120466,set_tempo,33,1,0,,,,,,681818,,,,,,
120479,note_on,119,0,2,,,,,,,,1,,,59,0
120480,note_on,1,0,2,,,,,,,,1,,,59,36
120499,set_tempo,33,1,0,,,,,,678119,,,,,,
120532,set_tempo,33,1,0,,,,,,674460,,,,,,
120582,set_tempo,50,1,0,,,,,,670841,,,,,,
120599,note_on,119,0,2,,,,,,,,1,,,59,0
120600,note_on,1,0,2,,,,,,,,1,,,60,35
120615,set_tempo,33,1,0,,,,,,667260,,,,,,
120648,set_tempo,33,1,0,,,,,,663717,,,,,,
120698,set_tempo,50,1,0,,,,,,660211,,,,,,
120719,note_on,119,0,2,,,,,,,,1,,,60,0
120720,note_on,1,0,2,,,,,,,,1,,,60,34
120731,set_tempo,33,1,0,,,,,,656743,,,,,,
120764,set_tempo,33,1,0,,,,,,653310,,,,,,
120797,set_tempo,33,1,0,,,,,,649913,,,,,,
120839,note_on,119,0,2,,,,,,,,1,,,60,0
120840,note_on,1,0,2,,,,,,,,1,,,61,64
120840,note_on,4680,0,1,,,,,,,,0,,,83,72
120840,note_on,0,0,1,,,,,,,,0,,,71,72
120847,set_tempo,50,1,0,,,,,,646552,,,,,,
120880,set_tempo,33,1,0,,,,,,643225,,,,,,
120913,set_tempo,33,1,0,,,,,,639932,,,,,,
120920,control_change,80,0,1,,,,,,,,0,64,127,,
120946,set_tempo,33,1,0,,,,,,636672,,,,,,
120948,note_on,108,0,2,,,,,,,,1,,,61,0
120948,note_on,0,0,1,,,,,,,,0,,,83,0
120948,note_on,28,0,1,,,,,,,,0,,,71,0
120960,note_on,0,0,3,,,,,,,,2,,,48,36
120960,note_on,0,0,1,,,,,,,,0,,,71,81
120960,note_on,12,0,1,,,,,,,,0,,,83,81
120960,control_change,12,0,2,,,,,,,,1,64,0,,
120960,control_change,8928,0,3,,,,,,,,2,64,127,,
120960,note_on,0,0,4,,,,,,,,3,,,48,61
120960,control_change,3864,0,4,,,,,,,,3,64,127,,
121055,note_on,95,0,4,,,,,,,,3,,,48,0
121079,note_on,119,0,3,,,,,,,,2,,,48,0
121080,note_on,1,0,3,,,,,,,,2,,,61,37
121199,note_on,119,0,3,,,,,,,,2,,,61,0
121200,note_on,1,0,3,,,,,,,,2,,,62,37
121200,note_on,145,0,4,,,,,,,,3,,,57,33
121200,note_on,0,0,4,,,,,,,,3,,,54,33
121295,note_on,95,0,4,,,,,,,,3,,,54,0
121295,note_on,0,0,4,,,,,,,,3,,,57,0
121319,note_on,119,0,3,,,,,,,,2,,,62,0
121320,note_on,1,0,3,,,,,,,,2,,,66,38
121439,note_on,119,0,3,,,,,,,,2,,,66,0
121439,note_on,479,0,1,,,,,,,,0,,,71,0
121439,note_on,0,0,1,,,,,,,,0,,,83,0
121440,note_on,1,0,1,,,,,,,,0,,,69,85
121440,note_on,1,0,3,,,,,,,,2,,,50,38
121440,note_on,0,0,1,,,,,,,,0,,,81,85
121440,note_on,145,0,4,,,,,,,,3,,,50,33
121535,note_on,95,0,4,,,,,,,,3,,,50,0
121559,note_on,119,0,3,,,,,,,,2,,,50,0
121560,note_on,1,0,3,,,,,,,,2,,,61,39
121679,note_on,119,0,3,,,,,,,,2,,,61,0
121680,note_on,1,0,3,,,,,,,,2,,,62,39
121680,note_on,0,0,4,,,,,,,,3,,,54,33
121680,note_on,145,0,4,,,,,,,,3,,,57,33
121775,note_on,95,0,4,,,,,,,,3,,,54,0
121775,note_on,0,0,4,,,,,,,,3,,,57,0
121799,note_on,119,0,3,,,,,,,,2,,,62,0
121800,note_on,1,0,3,,,,,,,,2,,,66,40
121880,control_change,440,0,1,,,,,,,,0,64,0,,
121919,note_on,39,0,1,,,,,,,,0,,,81,0
121919,note_on,0,0,1,,,,,,,,0,,,69,0
121919,note_on,119,0,3,,,,,,,,2,,,66,0
121920,note_on,0,0,4,,,,,,,,3,,,48,33
121920,control_change,145,0,4,,,,,,,,3,64,0,,
121920,note_on,0,0,1,,,,,,,,0,,,72,82
121920,note_on,1,0,1,,,,,,,,0,,,84,82
121920,note_on,1,0,3,,,,,,,,2,,,48,40
122015,note_on,95,0,4,,,,,,,,3,,,48,0
122039,note_on,119,0,3,,,,,,,,2,,,48,0
122040,note_on,1,0,3,,,,,,,,2,,,61,41
122159,note_on,119,0,3,,,,,,,,2,,,61,0
122160,note_on,1,0,3,,,,,,,,2,,,62,41
122160,note_on,0,0,4,,,,,,,,3,,,54,33
122160,note_on,145,0,4,,,,,,,,3,,,57,33
122240,control_change,320,0,1,,,,,,,,0,64,127,,
122255,note_on,95,0,4,,,,,,,,3,,,54,0
122255,note_on,0,0,4,,,,,,,,3,,,57,0
122279,note_on,119,0,3,,,,,,,,2,,,62,0
122280,note_on,1,0,3,,,,,,,,2,,,69,42
122399,note_on,0,0,1,,,,,,,,0,,,84,0
122399,note_on,119,0,3,,,,,,,,2,,,69,0
122399,note_on,159,0,1,,,,,,,,0,,,72,0
122400,note_on,1,0,1,,,,,,,,0,,,66,79
122400,note_on,0,0,1,,,,,,,,0,,,78,79
122400,note_on,145,0,4,,,,,,,,3,,,50,33
122400,note_on,1,0,3,,,,,,,,2,,,50,42
122495,note_on,95,0,4,,,,,,,,3,,,50,0
122519,note_on,119,0,3,,,,,,,,2,,,50,0
122520,note_on,1,0,3,,,,,,,,2,,,61,43
122639,note_on,119,0,3,,,,,,,,2,,,61,0
122640,note_on,1,0,3,,,,,,,,2,,,63,43
122640,note_on,145,0,4,,,,,,,,3,,,57,33
122640,note_on,0,0,4,,,,,,,,3,,,54,33
122726,note_on,0,0,4,,,,,,,,3,,,57,0
122726,note_on,86,0,4,,,,,,,,3,,,54,0
122759,note_on,119,0,3,,,,,,,,2,,,63,0
122760,note_on,1,0,3,,,,,,,,2,,,62,44
122813,control_change,53,0,3,,,,,,,,2,64,0,,
122827,control_change,427,0,1,,,,,,,,0,64,0,,
122832,note_on,0,0,1,,,,,,,,0,,,66,0
122832,note_on,5,0,1,,,,,,,,0,,,78,0
122833,set_tempo,1887,1,0,,,,,,620861,,,,,,
122868,note_on,55,0,3,,,,,,,,2,,,62,0
122880,control_change,48,0,1,,,,,,,,0,64,127,,
122880,control_change,154,0,4,,,,,,,,3,64,127,,
122880,note_on,0,0,4,,,,,,,,3,,,47,33
122880,note_on,0,0,1,,,,,,,,0,,,79,76
122880,control_change,12,0,3,,,,,,,,2,64,127,,
122880,note_on,0,0,3,,,,,,,,2,,,47,44
122880,control_change,1920,0,2,,,,,,,,1,64,127,,
122880,note_on,0,0,1,,,,,,,,0,,,67,76
122975,note_on,95,0,4,,,,,,,,3,,,47,0
122999,note_on,119,0,3,,,,,,,,2,,,47,0
123000,note_on,1,0,3,,,,,,,,2,,,61,45
123119,note_on,119,0,3,,,,,,,,2,,,61,0
123120,note_on,1,0,3,,,,,,,,2,,,64,45
123120,note_on,0,0,4,,,,,,,,3,,,55,33
123120,note_on,145,0,4,,,,,,,,3,,,59,33
123215,note_on,0,0,4,,,,,,,,3,,,59,0
123215,note_on,95,0,4,,,,,,,,3,,,55,0
123239,note_on,119,0,3,,,,,,,,2,,,64,0
123240,note_on,1,0,3,,,,,,,,2,,,62,46
123329,set_tempo,496,1,0,,,,,,627090,,,,,,
123346,set_tempo,17,1,0,,,,,,633446,,,,,,
123359,note_on,119,0,3,,,,,,,,2,,,62,0
123360,note_on,1,0,3,,,,,,,,2,,,50,46
123360,note_on,145,0,4,,,,,,,,3,,,50,32
123362,set_tempo,16,1,0,,,,,,643225,,,,,,
123379,set_tempo,17,1,0,,,,,,653310,,,,,,
123396,set_tempo,17,1,0,,,,,,660211,,,,,,
123412,set_tempo,16,1,0,,,,,,670841,,,,,,
123429,set_tempo,17,1,0,,,,,,681818,,,,,,
123445,set_tempo,16,1,0,,,,,,689338,,,,,,
123455,note_on,95,0,4,,,,,,,,3,,,50,0
123462,set_tempo,17,1,0,,,,,,700935,,,,,,
123478,set_tempo,16,1,0,,,,,,712928,,,,,,
123479,note_on,0,0,1,,,,,,,,0,,,79,0
123479,note_on,119,0,3,,,,,,,,2,,,50,0
123479,note_on,599,0,1,,,,,,,,0,,,67,0
123480,note_on,1,0,1,,,,,,,,0,,,81,79
123480,note_on,1,0,3,,,,,,,,2,,,64,47
123495,set_tempo,17,1,0,,,,,,794492,,,,,,
123559,note_on,79,0,1,,,,,,,,0,,,81,0
123560,note_on,1,0,1,,,,,,,,0,,,79,77
123594,set_tempo,99,1,0,,,,,,794492,,,,,,
123599,note_on,119,0,3,,,,,,,,2,,,64,0
123600,note_on,0,0,4,,,,,,,,3,,,55,32
123600,note_on,145,0,4,,,,,,,,3,,,59,32
123600,note_on,1,0,3,,,,,,,,2,,,62,47
123627,set_tempo,33,1,0,,,,,,789474,,,,,,
123639,note_on,79,0,1,,,,,,,,0,,,79,0
123640,note_on,1,0,1,,,,,,,,0,,,78,75
123644,set_tempo,17,1,0,,,,,,784519,,,,,,
123660,set_tempo,16,1,0,,,,,,779626,,,,,,
123677,set_tempo,17,1,0,,,,,,774793,,,,,,
123693,set_tempo,16,1,0,,,,,,770021,,,,,,
123695,note_on,0,0,4,,,,,,,,3,,,59,0
123695,note_on,95,0,4,,,,,,,,3,,,55,0
123710,set_tempo,17,1,0,,,,,,765306,,,,,,
123719,note_on,79,0,1,,,,,,,,0,,,78,0
123720,note_on,1,0,1,,,,,,,,0,,,79,73
123727,set_tempo,17,1,0,,,,,,760649,,,,,,
123743,set_tempo,16,1,0,,,,,,756048,,,,,,
123760,set_tempo,17,1,0,,,,,,751503,,,,,,
123776,set_tempo,16,1,0,,,,,,747012,,,,,,
123793,set_tempo,17,1,0,,,,,,742574,,,,,,
123809,set_tempo,16,1,0,,,,,,747012,,,,,,
123826,set_tempo,17,1,0,,,,,,760649,,,,,,
123839,note_on,239,0,3,,,,,,,,2,,,62,0
123839,note_on,119,0,1,,,,,,,,0,,,79,0
123840,note_on,0,0,1,,,,,,,,0,,,69,78
123840,note_on,0,0,1,,,,,,,,0,,,81,78
123840,control_change,1,0,1,,,,,,,,0,64,0,,
123840,control_change,145,0,4,,,,,,,,3,64,0,,
123840,note_on,0,0,4,,,,,,,,3,,,47,32
123840,control_change,960,0,2,,,,,,,,1,64,0,,
123840,note_on,1,0,3,,,,,,,,2,,,47,48
123842,set_tempo,16,1,0,,,,,,751503,,,,,,
123859,set_tempo,17,1,0,,,,,,747012,,,,,,
123876,set_tempo,17,1,0,,,,,,738189,,,,,,
123880,control_change,40,0,1,,,,,,,,0,64,127,,
123892,set_tempo,16,1,0,,,,,,733855,,,,,,
123909,set_tempo,17,1,0,,,,,,729572,,,,,,
123920,control_change,80,0,4,,,,,,,,3,64,127,,
123925,set_tempo,16,1,0,,,,,,721154,,,,,,
123935,note_on,15,0,4,,,,,,,,3,,,47,0
123942,set_tempo,17,1,0,,,,,,717017,,,,,,
123958,set_tempo,16,1,0,,,,,,708885,,,,,,
123959,note_on,79,0,1,,,,,,,,0,,,69,0
123959,note_on,0,0,1,,,,,,,,0,,,81,0
123959,note_on,119,0,3,,,,,,,,2,,,47,0
123960,note_on,0,0,1,,,,,,,,0,,,83,82
123960,note_on,1,0,1,,,,,,,,0,,,71,82
123960,note_on,1,0,3,,,,,,,,2,,,61,49
123975,set_tempo,17,1,0,,,,,,704887,,,,,,
123991,set_tempo,16,1,0,,,,,,697026,,,,,,
124008,set_tempo,17,1,0,,,,,,693161,,,,,,
124024,set_tempo,16,1,0,,,,,,689338,,,,,,
124041,set_tempo,17,1,0,,,,,,681818,,,,,,
124058,set_tempo,17,1,0,,,,,,678119,,,,,,
124074,set_tempo,16,1,0,,,,,,670841,,,,,,
124079,note_on,119,0,3,,,,,,,,2,,,61,0
124080,note_on,0,0,4,,,,,,,,3,,,55,32
124080,note_on,1,0,3,,,,,,,,2,,,64,49
124080,note_on,145,0,4,,,,,,,,3,,,59,32
124091,set_tempo,17,1,0,,,,,,667260,,,,,,
124107,set_tempo,16,1,0,,,,,,660211,,,,,,
124124,set_tempo,17,1,0,,,,,,656743,,,,,,
124140,set_tempo,16,1,0,,,,,,653310,,,,,,
124157,set_tempo,17,1,0,,,,,,646552,,,,,,
124173,set_tempo,16,1,0,,,,,,643225,,,,,,
124175,note_on,95,0,4,,,,,,,,3,,,55,0
124175,note_on,0,0,4,,,,,,,,3,,,59,0
124190,set_tempo,17,1,0,,,,,,636672,,,,,,
124199,note_on,119,0,3,,,,,,,,2,,,64,0
124200,note_on,1,0,3,,,,,,,,2,,,62,50
124207,set_tempo,17,1,0,,,,,,633446,,,,,,
124223,set_tempo,16,1,0,,,,,,627090,,,,,,
124319,note_on,119,0,3,,,,,,,,2,,,62,0
124320,note_on,145,0,4,,,,,,,,3,,,50,32
124320,note_on,1,0,3,,,,,,,,2,,,50,50
124392,note_on,432,0,1,,,,,,,,0,,,83,0
124392,note_on,0,0,1,,,,,,,,0,,,71,0
124415,note_on,95,0,4,,,,,,,,3,,,50,0
124439,note_on,119,0,3,,,,,,,,2,,,50,0
124440,note_on,1,0,3,,,,,,,,2,,,61,51
124559,note_on,119,0,3,,,,,,,,2,,,61,0
124560,note_on,145,0,4,,,,,,,,3,,,59,32
124560,note_on,1,0,3,,,,,,,,2,,,62,51
124560,note_on,0,0,4,,,,,,,,3,,,55,32
124646,note_on,0,0,4,,,,,,,,3,,,59,0
124646,note_on,86,0,4,,,,,,,,3,,,55,0
124667,control_change,107,0,3,,,,,,,,2,64,0,,
124679,note_on,12,0,3,,,,,,,,2,,,62,0
124680,note_on,1,0,3,,,,,,,,2,,,67,52
124788,note_on,108,0,3,,,,,,,,2,,,67,0
124800,note_on,0,0,1,,,,,,,,0,,,71,70
124800,note_on,0,0,1,,,,,,,,0,,,83,70
124800,control_change,408,0,1,,,,,,,,0,64,127,,
124800,note_on,0,0,3,,,,,,,,2,,,43,52
124800,note_on,154,0,4,,,,,,,,3,,,43,61
124800,control_change,12,0,3,,,,,,,,2,64,127,,
124840,control_change,40,0,1,,,,,,,,0,64,0,,
124880,control_change,80,0,4,,,,,,,,3,64,0,,
124895,note_on,15,0,4,,,,,,,,3,,,43,0
124919,note_on,119,0,3,,,,,,,,2,,,43,0
124920,note_on,1,0,3,,,,,,,,2,,,61,53
124947,control_change,52,0,4,,,,,,,,3,64,127,,
125039,note_on,119,0,3,,,,,,,,2,,,61,0
125040,note_on,0,0,4,,,,,,,,3,,,55,32
125040,note_on,1,0,3,,,,,,,,2,,,62,53
125040,note_on,93,0,4,,,,,,,,3,,,59,32
125135,note_on,95,0,4,,,,,,,,3,,,55,0
125135,note_on,0,0,4,,,,,,,,3,,,59,0
125159,note_on,119,0,3,,,,,,,,2,,,62,0
125160,note_on,0,0,3,,,,,,,,2,,,67,54
125160,note_on,1,0,3,,,,,,,,2,,,70,54
125279,note_on,119,0,3,,,,,,,,2,,,67,0
125279,note_on,439,0,1,,,,,,,,0,,,71,0
125279,note_on,0,0,1,,,,,,,,0,,,83,0
125279,note_on,0,0,3,,,,,,,,2,,,70,0
125280,note_on,1,0,3,,,,,,,,2,,,50,54
125280,note_on,145,0,4,,,,,,,,3,,,50,32
125280,note_on,1,0,1,,,,,,,,0,,,83,73
125280,note_on,0,0,1,,,,,,,,0,,,71,73
125375,note_on,95,0,4,,,,,,,,3,,,50,0
125399,note_on,119,0,3,,,,,,,,2,,,50,0
125400,note_on,1,0,3,,,,,,,,2,,,61,55
125519,note_on,119,0,3,,,,,,,,2,,,61,0
125520,note_on,0,0,4,,,,,,,,3,,,55,31
125520,note_on,145,0,4,,,,,,,,3,,,59,31
125520,note_on,1,0,3,,,,,,,,2,,,62,55
125615,note_on,95,0,4,,,,,,,,3,,,55,0
125615,note_on,0,0,4,,,,,,,,3,,,59,0
125639,note_on,119,0,3,,,,,,,,2,,,62,0
125640,note_on,1,0,3,,,,,,,,2,,,71,56
125640,note_on,0,0,3,,,,,,,,2,,,67,56
125693,control_change,78,0,4,,,,,,,,3,64,0,,
125759,note_on,119,0,3,,,,,,,,2,,,67,0
125759,note_on,0,0,3,,,,,,,,2,,,71,0
125759,note_on,479,0,1,,,,,,,,0,,,71,0
125759,note_on,0,0,1,,,,,,,,0,,,83,0
125760,control_change,1,0,1,,,,,,,,0,64,0,,
125760,note_on,0,0,1,,,,,,,,0,,,86,76
125760,note_on,0,0,1,,,,,,,,0,,,74,76
125760,note_on,1,0,3,,,,,,,,2,,,47,56
125760,note_on,67,0,4,,,,,,,,3,,,47,31
125787,control_change,27,0,4,,,,,,,,3,64,127,,
125827,control_change,67,0,1,,,,,,,,0,64,127,,
125855,note_on,68,0,4,,,,,,,,3,,,47,0
125879,note_on,119,0,3,,,,,,,,2,,,47,0
125880,note_on,1,0,3,,,,,,,,2,,,61,57
125999,note_on,119,0,3,,,,,,,,2,,,61,0
126000,note_on,1,0,3,,,,,,,,2,,,62,57
126000,note_on,0,0,4,,,,,,,,3,,,55,31
126000,note_on,145,0,4,,,,,,,,3,,,59,31
126095,note_on,0,0,4,,,,,,,,3,,,59,0
126095,note_on,95,0,4,,,,,,,,3,,,55,0
126119,note_on,119,0,3,,,,,,,,2,,,62,0
126120,note_on,1,0,3,,,,,,,,2,,,73,58
126120,note_on,0,0,3,,,,,,,,2,,,67,58
126239,note_on,119,0,3,,,,,,,,2,,,67,0
126239,note_on,0,0,1,,,,,,,,0,,,74,0
126239,note_on,0,0,3,,,,,,,,2,,,73,0
126239,note_on,412,0,1,,,,,,,,0,,,86,0
126240,note_on,1,0,1,,,,,,,,0,,,86,78
126240,note_on,0,0,1,,,,,,,,0,,,74,78
126240,note_on,1,0,3,,,,,,,,2,,,50,58
126240,note_on,145,0,4,,,,,,,,3,,,50,31
126335,note_on,95,0,4,,,,,,,,3,,,50,0
126359,note_on,119,0,3,,,,,,,,2,,,50,0
126360,note_on,1,0,3,,,,,,,,2,,,61,59
126479,note_on,119,0,3,,,,,,,,2,,,61,0
126480,note_on,145,0,4,,,,,,,,3,,,59,31
126480,note_on,0,0,4,,,,,,,,3,,,55,31
126480,note_on,1,0,3,,,,,,,,2,,,62,59
126566,note_on,86,0,4,,,,,,,,3,,,55,0
126566,note_on,0,0,4,,,,,,,,3,,,59,0
126599,note_on,119,0,3,,,,,,,,2,,,62,0
126600,note_on,0,0,3,,,,,,,,2,,,67,60
126600,note_on,1,0,3,,,,,,,,2,,,74,60
126667,control_change,67,0,3,,,,,,,,2,64,0,,
126672,note_on,0,0,1,,,,,,,,0,,,86,0
126672,note_on,432,0,1,,,,,,,,0,,,74,0
126708,note_on,0,0,3,,,,,,,,2,,,74,0
126708,note_on,41,0,3,,,,,,,,2,,,67,0
126720,note_on,12,0,3,,,,,,,,2,,,38,61
126720,note_on,154,0,4,,,,,,,,3,,,38,31
126720,note_on,0,0,1,,,,,,,,0,,,81,81
126720,note_on,48,0,1,,,,,,,,0,,,78,81
126720,note_on,0,0,1,,,,,,,,0,,,69,81
126747,control_change,27,0,4,,,,,,,,3,64,0,,
126773,control_change,26,0,4,,,,,,,,3,64,127,,
126787,control_change,67,0,1,,,,,,,,0,64,0,,
126787,control_change,67,0,3,,,,,,,,2,64,127,,
126815,note_on,42,0,4,,,,,,,,3,,,38,0
126839,note_on,52,0,3,,,,,,,,2,,,38,0
126840,note_on,1,0,3,,,,,,,,2,,,61,64
126959,note_on,119,0,3,,,,,,,,2,,,61,0
126960,note_on,0,0,4,,,,,,,,3,,,54,31
126960,note_on,1,0,3,,,,,,,,2,,,62,64
126960,note_on,145,0,4,,,,,,,,3,,,57,31
127055,note_on,95,0,4,,,,,,,,3,,,54,0
127055,note_on,0,0,4,,,,,,,,3,,,57,0
127079,note_on,119,0,3,,,,,,,,2,,,62,0
127080,note_on,0,0,3,,,,,,,,2,,,66,64
127080,note_on,1,0,3,,,,,,,,2,,,69,64
127152,note_on,365,0,1,,,,,,,,0,,,81,0
127152,note_on,0,0,1,,,,,,,,0,,,69,0
127152,note_on,0,0,1,,,,,,,,0,,,78,0
127199,note_on,0,0,3,,,,,,,,2,,,69,0
127199,note_on,119,0,3,,,,,,,,2,,,66,0
127200,note_on,1,0,3,,,,,,,,2,,,50,64
127200,note_on,145,0,4,,,,,,,,3,,,50,31
127295,note_on,95,0,4,,,,,,,,3,,,50,0
127319,note_on,119,0,3,,,,,,,,2,,,50,0
127320,note_on,1,0,3,,,,,,,,2,,,61,64
127439,note_on,119,0,3,,,,,,,,2,,,61,0
127440,note_on,1,0,3,,,,,,,,2,,,62,64
127440,note_on,145,0,4,,,,,,,,3,,,57,31
127440,note_on,0,0,4,,,,,,,,3,,,54,31
127526,note_on,0,0,4,,,,,,,,3,,,57,0
127526,note_on,86,0,4,,,,,,,,3,,,54,0
127559,note_on,119,0,3,,,,,,,,2,,,62,0
127560,note_on,0,0,3,,,,,,,,2,,,66,64
127560,note_on,1,0,3,,,,,,,,2,,,69,64
127587,control_change,3747,0,2,,,,,,,,1,64,127,,
127668,note_on,108,0,3,,,,,,,,2,,,66,0
127668,note_on,0,0,3,,,,,,,,2,,,69,0
127680,note_on,93,0,2,,,,,,,,1,,,65,68
127733,control_change,207,0,4,,,,,,,,3,64,0,,
127747,control_change,79,0,3,,,,,,,,2,64,0,,
127799,note_on,119,0,2,,,,,,,,1,,,65,0
127800,note_on,0,0,2,,,,,,,,1,,,69,71
127800,note_on,1,0,2,,,,,,,,1,,,66,71
127800,note_on,0,0,2,,,,,,,,1,,,74,71
127919,note_on,0,0,2,,,,,,,,1,,,66,0
127919,note_on,119,0,2,,,,,,,,1,,,74,0
127919,note_on,0,0,2,,,,,,,,1,,,69,0
127920,note_on,1,0,2,,,,,,,,1,,,68,74
128039,note_on,119,0,2,,,,,,,,1,,,68,0
128040,note_on,1,0,2,,,,,,,,1,,,69,77
128040,note_on,0,0,2,,,,,,,,1,,,74,77
128040,note_on,0,0,2,,,,,,,,1,,,78,77
128159,note_on,119,0,2,,,,,,,,1,,,78,0
128159,note_on,0,0,2,,,,,,,,1,,,74,0
128159,note_on,0,0,2,,,,,,,,1,,,69,0
128160,note_on,1,0,2,,,,,,,,1,,,73,80
128279,note_on,119,0,2,,,,,,,,1,,,73,0
128280,note_on,1,0,2,,,,,,,,1,,,81,83
128280,note_on,0,0,2,,,,,,,,1,,,78,83
128280,note_on,0,0,2,,,,,,,,1,,,74,83
128399,note_on,119,0,2,,,,,,,,1,,,74,0
128399,note_on,0,0,2,,,,,,,,1,,,78,0
128399,note_on,0,0,2,,,,,,,,1,,,81,0
128400,note_on,1,0,2,,,,,,,,1,,,68,86
128519,note_on,119,0,2,,,,,,,,1,,,68,0
128520,note_on,0,0,2,,,,,,,,1,,,78,89
128520,note_on,0,0,2,,,,,,,,1,,,69,89
128520,note_on,1,0,2,,,,,,,,1,,,81,89
128520,note_on,0,0,2,,,,,,,,1,,,74,89
128547,control_change,27,0,2,,,,,,,,1,64,0,,
128628,note_on,0,0,2,,,,,,,,1,,,74,0
128628,note_on,0,0,2,,,,,,,,1,,,78,0
128628,note_on,0,0,2,,,,,,,,1,,,81,0
128628,note_on,81,0,2,,,,,,,,1,,,69,0
128633,set_tempo,4410,1,0,,,,,,611746,,,,,,
128640,control_change,907,0,4,,,,,,,,3,64,127,,
128640,control_change,1488,0,1,,,,,,,,0,64,127,,
128640,note_on,0,0,1,,,,,,,,0,,,83,88
128640,note_on,0,0,1,,,,,,,,0,,,71,88
128640,control_change,893,0,3,,,,,,,,2,64,127,,
128640,note_on,0,0,3,,,,,,,,2,,,48,65
128640,note_on,0,0,4,,,,,,,,3,,,36,60
128683,set_tempo,50,1,0,,,,,,614754,,,,,,
128735,note_on,95,0,4,,,,,,,,3,,,36,0
128759,note_on,119,0,3,,,,,,,,2,,,48,0
128760,note_on,1,0,3,,,,,,,,2,,,61,66
128879,note_on,119,0,3,,,,,,,,2,,,61,0
128880,note_on,1,0,3,,,,,,,,2,,,62,67
128880,note_on,145,0,4,,,,,,,,3,,,57,32
128880,note_on,0,0,4,,,,,,,,3,,,54,32
128975,note_on,0,0,4,,,,,,,,3,,,57,0
128975,note_on,95,0,4,,,,,,,,3,,,54,0
128999,note_on,119,0,3,,,,,,,,2,,,62,0
129000,note_on,1,0,3,,,,,,,,2,,,71,68
129000,note_on,0,0,3,,,,,,,,2,,,66,68
129119,note_on,0,0,1,,,,,,,,0,,,83,0
129119,note_on,479,0,1,,,,,,,,0,,,71,0
129119,note_on,119,0,3,,,,,,,,2,,,66,0
129119,note_on,0,0,3,,,,,,,,2,,,71,0
129120,note_on,1,0,3,,,,,,,,2,,,50,69
129120,note_on,145,0,4,,,,,,,,3,,,50,32
129120,note_on,0,0,1,,,,,,,,0,,,81,88
129120,note_on,1,0,1,,,,,,,,0,,,69,88
129215,note_on,95,0,4,,,,,,,,3,,,50,0
129239,note_on,119,0,3,,,,,,,,2,,,50,0
129240,note_on,1,0,3,,,,,,,,2,,,61,71
129359,note_on,119,0,3,,,,,,,,2,,,61,0
129360,note_on,1,0,3,,,,,,,,2,,,62,72
129360,note_on,145,0,4,,,,,,,,3,,,57,32
129360,note_on,0,0,4,,,,,,,,3,,,54,32
129455,note_on,95,0,4,,,,,,,,3,,,54,0
129455,note_on,0,0,4,,,,,,,,3,,,57,0
129479,note_on,119,0,3,,,,,,,,2,,,62,0
129480,note_on,1,0,3,,,,,,,,2,,,69,73
129480,note_on,0,0,3,,,,,,,,2,,,66,73
129599,note_on,0,0,1,,,,,,,,0,,,69,0
129599,note_on,479,0,1,,,,,,,,0,,,81,0
129599,note_on,119,0,3,,,,,,,,2,,,66,0
129599,note_on,0,0,3,,,,,,,,2,,,69,0
129600,control_change,1,0,3,,,,,,,,2,64,0,,
129600,note_on,0,0,3,,,,,,,,2,,,48,74
129600,note_on,145,0,4,,,,,,,,3,,,36,32
129600,note_on,0,0,1,,,,,,,,0,,,88,88
129600,control_change,1,0,1,,,,,,,,0,64,0,,
129600,note_on,0,0,1,,,,,,,,0,,,76,88
129643,set_tempo,960,1,0,,,,,,597134,,,,,,
129653,control_change,53,0,1,,,,,,,,0,64,127,,
129695,note_on,95,0,4,,,,,,,,3,,,36,0
129719,note_on,119,0,3,,,,,,,,2,,,48,0
129720,note_on,1,0,3,,,,,,,,2,,,64,75
129839,note_on,119,0,3,,,,,,,,2,,,64,0
129840,note_on,0,0,4,,,,,,,,3,,,54,32
129840,note_on,1,0,3,,,,,,,,2,,,66,76
129840,note_on,145,0,4,,,,,,,,3,,,57,32
129935,note_on,95,0,4,,,,,,,,3,,,54,0
129935,note_on,0,0,4,,,,,,,,3,,,57,0
129959,note_on,119,0,3,,,,,,,,2,,,66,0
129960,note_on,1,0,3,,,,,,,,2,,,76,77
129960,note_on,0,0,3,,,,,,,,2,,,69,77
130079,note_on,119,0,3,,,,,,,,2,,,69,0
130079,note_on,0,0,3,,,,,,,,2,,,76,0
130079,note_on,0,0,1,,,,,,,,0,,,88,0
130079,note_on,426,0,1,,,,,,,,0,,,76,0
130080,note_on,0,0,1,,,,,,,,0,,,74,88
130080,note_on,1,0,3,,,,,,,,2,,,50,79
130080,note_on,145,0,4,,,,,,,,3,,,50,32
130080,note_on,1,0,1,,,,,,,,0,,,86,88
130175,note_on,95,0,4,,,,,,,,3,,,50,0
130199,note_on,119,0,3,,,,,,,,2,,,50,0
130200,note_on,1,0,3,,,,,,,,2,,,62,80
130319,note_on,119,0,3,,,,,,,,2,,,62,0
130320,note_on,0,0,4,,,,,,,,3,,,54,32
130320,note_on,1,0,3,,,,,,,,2,,,66,81
130320,note_on,145,0,4,,,,,,,,3,,,57,32
130347,control_change,27,0,4,,,,,,,,3,64,0,,
130406,note_on,0,0,4,,,,,,,,3,,,57,0
130406,note_on,59,0,4,,,,,,,,3,,,54,0
130439,note_on,119,0,3,,,,,,,,2,,,66,0
130440,note_on,1,0,3,,,,,,,,2,,,74,82
130440,note_on,0,0,3,,,,,,,,2,,,69,82
130512,note_on,432,0,1,,,,,,,,0,,,74,0
130512,note_on,0,0,1,,,,,,,,0,,,86,0
130548,note_on,108,0,3,,,,,,,,2,,,69,0
130548,note_on,0,0,3,,,,,,,,2,,,74,0
130560,control_change,48,0,1,,,,,,,,0,64,127,,
130560,note_on,0,0,1,,,,,,,,0,,,74,88
130560,note_on,0,0,1,,,,,,,,0,,,86,88
130560,set_tempo,917,1,0,,,,,,571429,,,,,,
130560,note_on,154,0,4,,,,,,,,3,,,35,60
130560,control_change,12,0,3,,,,,,,,2,64,127,,
130560,note_on,0,0,3,,,,,,,,2,,,47,84
130613,control_change,53,0,1,,,,,,,,0,64,0,,
130655,note_on,95,0,4,,,,,,,,3,,,35,0
130679,note_on,119,0,3,,,,,,,,2,,,47,0
130680,note_on,1,0,3,,,,,,,,2,,,61,81
130799,note_on,119,0,3,,,,,,,,2,,,61,0
130800,note_on,0,0,4,,,,,,,,3,,,59,32
130800,note_on,1,0,3,,,,,,,,2,,,62,78
130800,note_on,145,0,4,,,,,,,,3,,,55,32
130895,note_on,0,0,4,,,,,,,,3,,,55,0
130895,note_on,95,0,4,,,,,,,,3,,,59,0
130919,note_on,119,0,3,,,,,,,,2,,,62,0
130920,note_on,1,0,3,,,,,,,,2,,,74,75
130920,note_on,0,0,3,,,,,,,,2,,,67,75
131039,note_on,0,0,3,,,,,,,,2,,,74,0
131039,note_on,119,0,3,,,,,,,,2,,,67,0
131040,note_on,145,0,4,,,,,,,,3,,,47,32
131040,note_on,1,0,3,,,,,,,,2,,,47,71
131135,note_on,95,0,4,,,,,,,,3,,,47,0
131159,note_on,119,0,3,,,,,,,,2,,,47,0
131160,note_on,1,0,3,,,,,,,,2,,,64,67
131279,note_on,119,0,3,,,,,,,,2,,,64,0
131280,note_on,145,0,4,,,,,,,,3,,,55,32
131280,note_on,0,0,4,,,,,,,,3,,,59,32
131280,note_on,1,0,3,,,,,,,,2,,,62,64
131375,note_on,95,0,4,,,,,,,,3,,,59,0
131375,note_on,0,0,4,,,,,,,,3,,,55,0
131399,note_on,0,0,1,,,,,,,,0,,,74,0
131399,note_on,786,0,1,,,,,,,,0,,,86,0
131400,note_on,1,0,1,,,,,,,,0,,,83,89
131400,note_on,0,0,1,,,,,,,,0,,,71,89
131519,note_on,119,0,1,,,,,,,,0,,,71,0
131519,note_on,0,0,1,,,,,,,,0,,,83,0
131519,note_on,239,0,3,,,,,,,,2,,,62,0
131520,control_change,1,0,1,,,,,,,,0,64,0,,
131520,note_on,0,0,1,,,,,,,,0,,,67,91
131520,note_on,0,0,1,,,,,,,,0,,,79,91
131520,control_change,1,0,3,,,,,,,,2,64,0,,
131520,note_on,0,0,3,,,,,,,,2,,,47,64
131520,note_on,145,0,4,,,,,,,,3,,,35,32
131615,note_on,95,0,4,,,,,,,,3,,,35,0
131639,note_on,119,0,3,,,,,,,,2,,,47,0
131640,note_on,1,0,3,,,,,,,,2,,,61,67
131759,note_on,119,0,3,,,,,,,,2,,,61,0
131760,note_on,0,0,4,,,,,,,,3,,,55,32
131760,note_on,1,0,3,,,,,,,,2,,,62,70
131760,note_on,145,0,4,,,,,,,,3,,,59,32
131855,note_on,0,0,4,,,,,,,,3,,,59,0
131855,note_on,95,0,4,,,,,,,,3,,,55,0
131879,note_on,119,0,3,,,,,,,,2,,,62,0
131880,note_on,1,0,3,,,,,,,,2,,,67,72
131952,note_on,0,0,1,,,,,,,,0,,,67,0
131952,note_on,432,0,1,,,,,,,,0,,,79,0
131999,note_on,119,0,3,,,,,,,,2,,,67,0
132000,note_on,1,0,3,,,,,,,,2,,,50,76
132000,note_on,145,0,4,,,,,,,,3,,,50,32
132095,note_on,95,0,4,,,,,,,,3,,,50,0
132119,note_on,119,0,3,,,,,,,,2,,,50,0
132120,note_on,1,0,3,,,,,,,,2,,,61,78
132239,note_on,119,0,3,,,,,,,,2,,,61,0
132240,note_on,145,0,4,,,,,,,,3,,,59,32
132240,note_on,0,0,4,,,,,,,,3,,,55,32
132240,note_on,1,0,3,,,,,,,,2,,,62,81
132326,note_on,0,0,4,,,,,,,,3,,,59,0
132326,note_on,86,0,4,,,,,,,,3,,,55,0
132359,note_on,119,0,3,,,,,,,,2,,,62,0
132360,note_on,1,0,3,,,,,,,,2,,,70,83
132360,note_on,0,0,3,,,,,,,,2,,,67,83
132468,note_on,108,0,3,,,,,,,,2,,,67,0
132468,note_on,0,0,3,,,,,,,,2,,,70,0
132480,control_change,12,0,3,,,,,,,,2,64,127,,
132480,note_on,0,0,3,,,,,,,,2,,,50,86
132480,note_on,0,0,1,,,,,,,,0,,,83,88
132480,note_on,0,0,1,,,,,,,,0,,,79,88
132480,note_on,0,0,1,,,,,,,,0,,,71,88
132480,control_change,528,0,1,,,,,,,,0,64,127,,
132480,control_change,154,0,4,,,,,,,,3,64,127,,
132480,note_on,0,0,4,,,,,,,,3,,,38,62
132575,note_on,95,0,4,,,,,,,,3,,,38,0
132599,note_on,119,0,3,,,,,,,,2,,,50,0
132600,note_on,1,0,3,,,,,,,,2,,,61,88
132719,note_on,119,0,3,,,,,,,,2,,,61,0
132720,note_on,145,0,4,,,,,,,,3,,,59,32
132720,note_on,0,0,4,,,,,,,,3,,,55,32
132720,note_on,1,0,3,,,,,,,,2,,,62,86
132815,note_on,0,0,4,,,,,,,,3,,,59,0
132815,note_on,95,0,4,,,,,,,,3,,,55,0
132839,note_on,119,0,3,,,,,,,,2,,,62,0
132840,note_on,1,0,3,,,,,,,,2,,,71,85
132840,note_on,0,0,3,,,,,,,,2,,,67,85
132959,note_on,0,0,1,,,,,,,,0,,,79,0
132959,note_on,119,0,3,,,,,,,,2,,,67,0
132959,note_on,0,0,3,,,,,,,,2,,,71,0
132959,note_on,0,0,1,,,,,,,,0,,,83,0
132959,note_on,479,0,1,,,,,,,,0,,,71,0
132960,note_on,1,0,3,,,,,,,,2,,,50,83
132960,note_on,145,0,4,,,,,,,,3,,,50,32
132960,note_on,0,0,1,,,,,,,,0,,,83,88
132960,note_on,0,0,1,,,,,,,,0,,,71,88
132960,note_on,1,0,1,,,,,,,,0,,,79,88
133055,note_on,95,0,4,,,,,,,,3,,,50,0
133079,note_on,119,0,3,,,,,,,,2,,,50,0
133080,note_on,1,0,3,,,,,,,,2,,,61,81
133199,note_on,119,0,3,,,,,,,,2,,,61,0
133200,note_on,1,0,3,,,,,,,,2,,,62,80
133200,note_on,0,0,4,,,,,,,,3,,,55,32
133200,note_on,145,0,4,,,,,,,,3,,,59,32
133295,note_on,0,0,4,,,,,,,,3,,,59,0
133295,note_on,95,0,4,,,,,,,,3,,,55,0
133319,note_on,119,0,3,,,,,,,,2,,,62,0
133320,note_on,1,0,3,,,,,,,,2,,,71,78
133320,note_on,0,0,3,,,,,,,,2,,,67,78
133387,control_change,67,0,3,,,,,,,,2,64,0,,
133439,note_on,0,0,1,,,,,,,,0,,,71,0
133439,note_on,0,0,1,,,,,,,,0,,,79,0
133439,note_on,479,0,1,,,,,,,,0,,,83,0
133439,note_on,0,0,3,,,,,,,,2,,,71,0
133439,note_on,52,0,3,,,,,,,,2,,,67,0
133440,note_on,0,0,1,,,,,,,,0,,,74,87
133440,note_on,0,0,1,,,,,,,,0,,,81,87
133440,control_change,1,0,1,,,,,,,,0,64,0,,
133440,note_on,0,0,1,,,,,,,,0,,,86,87
133440,note_on,0,0,3,,,,,,,,2,,,50,76
133440,control_change,1,0,3,,,,,,,,2,64,127,,
133440,control_change,145,0,4,,,,,,,,3,64,0,,
133440,note_on,0,0,4,,,,,,,,3,,,38,32
133440,note_on,0,0,1,,,,,,,,0,,,79,87
133480,control_change,40,0,1,,,,,,,,0,64,127,,
133480,control_change,40,0,4,,,,,,,,3,64,127,,
133535,note_on,55,0,4,,,,,,,,3,,,38,0
133559,note_on,119,0,3,,,,,,,,2,,,50,0
133560,note_on,1,0,3,,,,,,,,2,,,61,75
133679,note_on,119,0,3,,,,,,,,2,,,61,0
133680,note_on,145,0,4,,,,,,,,3,,,55,32
133680,note_on,0,0,4,,,,,,,,3,,,57,32
133680,note_on,1,0,3,,,,,,,,2,,,62,73
133775,note_on,95,0,4,,,,,,,,3,,,57,0
133775,note_on,0,0,4,,,,,,,,3,,,55,0
133799,note_on,119,0,3,,,,,,,,2,,,62,0
133800,note_on,0,0,3,,,,,,,,2,,,67,72
133800,note_on,1,0,3,,,,,,,,2,,,69,72
133919,note_on,119,0,3,,,,,,,,2,,,67,0
133919,note_on,0,0,3,,,,,,,,2,,,69,0
133919,note_on,439,0,1,,,,,,,,0,,,86,0
133919,note_on,0,0,1,,,,,,,,0,,,81,0
133919,note_on,0,0,1,,,,,,,,0,,,74,0
133919,note_on,0,0,1,,,,,,,,0,,,79,0
133920,note_on,0,0,1,,,,,,,,0,,,81,87
133920,note_on,145,0,4,,,,,,,,3,,,38,32
133920,note_on,1,0,1,,,,,,,,0,,,86,87
133920,note_on,0,0,1,,,,,,,,0,,,78,87
133920,note_on,0,0,1,,,,,,,,0,,,72,87
133920,note_on,1,0,3,,,,,,,,2,,,50,70
134015,note_on,95,0,4,,,,,,,,3,,,38,0
134039,note_on,119,0,3,,,,,,,,2,,,50,0
134040,note_on,1,0,3,,,,,,,,2,,,61,69
134159,note_on,119,0,3,,,,,,,,2,,,61,0
134160,note_on,1,0,3,,,,,,,,2,,,62,67
134160,note_on,145,0,4,,,,,,,,3,,,54,32
134160,note_on,0,0,4,,,,,,,,3,,,57,32
134246,note_on,86,0,4,,,,,,,,3,,,57,0
134246,note_on,0,0,4,,,,,,,,3,,,54,0
134279,note_on,119,0,3,,,,,,,,2,,,62,0
134280,note_on,0,0,3,,,,,,,,2,,,66,66
134280,note_on,1,0,3,,,,,,,,2,,,69,66
134352,note_on,0,0,1,,,,,,,,0,,,81,0
134352,note_on,0,0,1,,,,,,,,0,,,72,0
134352,note_on,432,0,1,,,,,,,,0,,,78,0
134352,note_on,0,0,1,,,,,,,,0,,,86,0
134388,note_on,0,0,3,,,,,,,,2,,,69,0
134388,note_on,108,0,3,,,,,,,,2,,,66,0
134400,note_on,48,0,1,,,,,,,,0,,,83,87
134400,note_on,0,0,4,,,,,,,,3,,,47,62
134400,note_on,154,0,4,,,,,,,,3,,,40,62
134400,control_change,12,0,3,,,,,,,,2,64,0,,
134400,note_on,0,0,4,,,,,,,,3,,,52,62
134400,note_on,0,0,1,,,,,,,,0,,,86,87
134400,note_on,0,0,1,,,,,,,,0,,,74,87
134440,control_change,40,0,1,,,,,,,,0,64,127,,
134440,control_change,40,0,4,,,,,,,,3,64,0,,
134440,control_change,0,0,1,,,,,,,,0,64,0,,
134495,note_on,55,0,1,,,,,,,,0,,,86,0
134495,note_on,0,0,1,,,,,,,,0,,,74,0
134495,note_on,0,0,1,,,,,,,,0,,,83,0
134640,note_on,145,0,1,,,,,,,,0,,,58,63
134759,note_on,119,0,1,,,,,,,,0,,,58,0
134760,note_on,1,0,1,,,,,,,,0,,,64,65
134760,note_on,0,0,1,,,,,,,,0,,,67,65
134760,note_on,0,0,1,,,,,,,,0,,,59,65
134879,note_on,0,0,4,,,,,,,,3,,,40,0
134879,note_on,0,0,1,,,,,,,,0,,,64,0
134879,note_on,0,0,4,,,,,,,,3,,,47,0
134879,note_on,119,0,1,,,,,,,,0,,,59,0
134879,note_on,439,0,4,,,,,,,,3,,,52,0
134879,note_on,0,0,1,,,,,,,,0,,,67,0
134880,note_on,1,0,1,,,,,,,,0,,,63,68
134999,note_on,119,0,1,,,,,,,,0,,,63,0
135000,note_on,0,0,1,,,,,,,,0,,,71,70
135000,note_on,1,0,1,,,,,,,,0,,,64,70
135000,note_on,0,0,1,,,,,,,,0,,,67,70
135119,note_on,119,0,1,,,,,,,,0,,,67,0
135119,note_on,0,0,1,,,,,,,,0,,,71,0
135119,note_on,0,0,1,,,,,,,,0,,,64,0
135120,note_on,1,0,1,,,,,,,,0,,,66,72
135160,control_change,281,0,4,,,,,,,,3,64,127,,
135239,note_on,119,0,1,,,,,,,,0,,,66,0
135240,note_on,1,0,1,,,,,,,,0,,,76,74
135240,note_on,0,0,1,,,,,,,,0,,,67,74
135240,note_on,0,0,1,,,,,,,,0,,,71,74
135359,note_on,119,0,1,,,,,,,,0,,,71,0
135359,note_on,0,0,1,,,,,,,,0,,,67,0
135359,note_on,0,0,1,,,,,,,,0,,,76,0
135360,note_on,1,0,1,,,,,,,,0,,,70,77
135479,note_on,119,0,1,,,,,,,,0,,,70,0
135480,note_on,0,0,1,,,,,,,,0,,,71,79
135480,note_on,0,0,1,,,,,,,,0,,,76,79
135480,note_on,1,0,1,,,,,,,,0,,,79,79
135599,note_on,0,0,1,,,,,,,,0,,,79,0
135599,note_on,0,0,1,,,,,,,,0,,,76,0
135599,note_on,119,0,1,,,,,,,,0,,,71,0
135600,note_on,0,0,1,,,,,,,,0,,,81,81
135600,note_on,0,0,1,,,,,,,,0,,,93,81
135600,note_on,0,0,1,,,,,,,,0,,,84,81
135600,note_on,1,0,1,,,,,,,,0,,,90,81
135600,note_on,0,0,4,,,,,,,,3,,,40,29
135600,note_on,440,0,4,,,,,,,,3,,,52,29
135695,note_on,0,0,4,,,,,,,,3,,,52,0
135695,note_on,95,0,4,,,,,,,,3,,,40,0
135719,note_on,0,0,1,,,,,,,,0,,,90,0
135719,note_on,119,0,1,,,,,,,,0,,,81,0
135719,note_on,0,0,1,,,,,,,,0,,,93,0
135719,note_on,0,0,1,,,,,,,,0,,,84,0
135720,note_on,1,0,1,,,,,,,,0,,,91,84
135720,note_on,0,0,1,,,,,,,,0,,,79,84
135720,note_on,0,0,1,,,,,,,,0,,,83,84
135839,note_on,119,0,1,,,,,,,,0,,,83,0
135839,note_on,0,0,1,,,,,,,,0,,,79,0
135839,note_on,0,0,1,,,,,,,,0,,,91,0
135840,note_on,1,0,1,,,,,,,,0,,,88,86
135840,note_on,0,0,4,,,,,,,,3,,,47,29
135840,note_on,145,0,4,,,,,,,,3,,,59,29
135840,note_on,0,0,1,,,,,,,,0,,,76,86
135840,note_on,0,0,1,,,,,,,,0,,,80,86
135935,note_on,0,0,4,,,,,,,,3,,,59,0
135935,note_on,95,0,4,,,,,,,,3,,,47,0
135959,note_on,119,0,1,,,,,,,,0,,,76,0
135959,note_on,0,0,1,,,,,,,,0,,,80,0
135959,note_on,0,0,1,,,,,,,,0,,,88,0
135960,note_on,0,0,1,,,,,,,,0,,,84,88
135960,note_on,0,0,1,,,,,,,,0,,,72,88
135960,note_on,1,0,1,,,,,,,,0,,,76,88
136079,note_on,0,0,1,,,,,,,,0,,,76,0
136079,note_on,0,0,1,,,,,,,,0,,,72,0
136079,note_on,119,0,1,,,,,,,,0,,,84,0
136080,note_on,145,0,4,,,,,,,,3,,,67,30
136080,note_on,0,0,4,,,,,,,,3,,,55,30
136080,note_on,1,0,1,,,,,,,,0,,,71,91
136080,note_on,0,0,1,,,,,,,,0,,,83,91
136080,note_on,0,0,1,,,,,,,,0,,,74,91
136120,control_change,40,0,4,,,,,,,,3,64,0,,
136166,note_on,46,0,4,,,,,,,,3,,,55,0
136166,note_on,0,0,4,,,,,,,,3,,,67,0
136199,note_on,0,0,1,,,,,,,,0,,,71,0
136199,note_on,0,0,1,,,,,,,,0,,,83,0
136199,note_on,119,0,1,,,,,,,,0,,,74,0
136200,note_on,1,0,1,,,,,,,,0,,,72,93
136200,note_on,0,0,1,,,,,,,,0,,,81,93
136200,note_on,0,0,1,,,,,,,,0,,,69,93
136213,control_change,13,0,1,,,,,,,,0,64,0,,
136308,note_on,95,0,1,,,,,,,,0,,,69,0
136308,note_on,0,0,1,,,,,,,,0,,,81,0
136308,note_on,0,0,1,,,,,,,,0,,,72,0
136320,control_change,12,0,1,,,,,,,,0,64,127,,
136320,note_on,0,0,3,,,,,,,,2,,,50,64
136320,note_on,0,0,1,,,,,,,,0,,,71,95
136320,note_on,0,0,1,,,,,,,,0,,,79,95
136320,control_change,1920,0,3,,,,,,,,2,64,127,,
136320,control_change,154,0,4,,,,,,,,3,64,127,,
136320,note_on,0,0,4,,,,,,,,3,,,38,63
136320,note_on,0,0,1,,,,,,,,0,,,83,95
136415,note_on,95,0,4,,,,,,,,3,,,38,0
136439,note_on,119,0,3,,,,,,,,2,,,50,0
136440,note_on,1,0,3,,,,,,,,2,,,61,66
136559,note_on,119,0,3,,,,,,,,2,,,61,0
136560,note_on,1,0,3,,,,,,,,2,,,62,68
136560,note_on,0,0,4,,,,,,,,3,,,55,33
136560,note_on,145,0,4,,,,,,,,3,,,59,33
136655,note_on,95,0,4,,,,,,,,3,,,55,0
136655,note_on,0,0,4,,,,,,,,3,,,59,0
136679,note_on,119,0,3,,,,,,,,2,,,62,0
136680,note_on,1,0,3,,,,,,,,2,,,71,70
136680,note_on,0,0,3,,,,,,,,2,,,67,70
136799,note_on,479,0,1,,,,,,,,0,,,79,0
136799,note_on,0,0,3,,,,,,,,2,,,71,0
136799,note_on,119,0,3,,,,,,,,2,,,67,0
136799,note_on,0,0,1,,,,,,,,0,,,83,0
136799,note_on,0,0,1,,,,,,,,0,,,71,0
136800,note_on,1,0,3,,,,,,,,2,,,50,73
136800,note_on,0,0,1,,,,,,,,0,,,79,95
136800,note_on,0,0,1,,,,,,,,0,,,71,95
136800,note_on,1,0,1,,,,,,,,0,,,83,95
136800,note_on,145,0,4,,,,,,,,3,,,50,30
136895,note_on,95,0,4,,,,,,,,3,,,50,0
136919,note_on,119,0,3,,,,,,,,2,,,50,0
136920,note_on,1,0,3,,,,,,,,2,,,61,75
137039,note_on,119,0,3,,,,,,,,2,,,61,0
137040,note_on,1,0,3,,,,,,,,2,,,62,77
137040,note_on,0,0,4,,,,,,,,3,,,55,30
137040,note_on,145,0,4,,,,,,,,3,,,59,30
137135,note_on,0,0,4,,,,,,,,3,,,59,0
137135,note_on,95,0,4,,,,,,,,3,,,55,0
137159,note_on,119,0,3,,,,,,,,2,,,62,0
137160,note_on,1,0,3,,,,,,,,2,,,71,80
137160,note_on,0,0,3,,,,,,,,2,,,67,80
137279,note_on,479,0,1,,,,,,,,0,,,79,0
137279,note_on,0,0,1,,,,,,,,0,,,71,0
137279,note_on,0,0,1,,,,,,,,0,,,83,0
137279,note_on,119,0,3,,,,,,,,2,,,67,0
137279,note_on,0,0,3,,,,,,,,2,,,71,0
137280,note_on,0,0,4,,,,,,,,3,,,38,30
137280,control_change,1,0,3,,,,,,,,2,64,0,,
137280,control_change,145,0,4,,,,,,,,3,64,0,,
137280,note_on,0,0,1,,,,,,,,0,,,74,90
137280,note_on,0,0,1,,,,,,,,0,,,79,90
137280,note_on,0,0,1,,,,,,,,0,,,81,90
137280,control_change,1,0,1,,,,,,,,0,64,0,,
137280,note_on,0,0,3,,,,,,,,2,,,50,82
137280,note_on,0,0,1,,,,,,,,0,,,86,90
137320,control_change,40,0,3,,,,,,,,2,64,127,,
137320,control_change,40,0,4,,,,,,,,3,64,127,,
137320,control_change,40,0,1,,,,,,,,0,64,127,,
137375,note_on,55,0,4,,,,,,,,3,,,38,0
137399,note_on,79,0,3,,,,,,,,2,,,50,0
137400,note_on,1,0,3,,,,,,,,2,,,63,84
137519,note_on,119,0,3,,,,,,,,2,,,63,0
137520,note_on,1,0,3,,,,,,,,2,,,62,85
137520,note_on,0,0,4,,,,,,,,3,,,57,30
137520,note_on,145,0,4,,,,,,,,3,,,55,30
137615,note_on,0,0,4,,,,,,,,3,,,55,0
137615,note_on,95,0,4,,,,,,,,3,,,57,0
137639,note_on,119,0,3,,,,,,,,2,,,62,0
137640,note_on,1,0,3,,,,,,,,2,,,69,83
137640,note_on,0,0,3,,,,,,,,2,,,67,83
137759,note_on,0,0,1,,,,,,,,0,,,74,0
137759,note_on,0,0,1,,,,,,,,0,,,79,0
137759,note_on,0,0,1,,,,,,,,0,,,81,0
137759,note_on,439,0,1,,,,,,,,0,,,86,0
137759,note_on,119,0,3,,,,,,,,2,,,67,0
137759,note_on,0,0,3,,,,,,,,2,,,69,0
137760,note_on,1,0,3,,,,,,,,2,,,50,81
137760,note_on,0,0,1,,,,,,,,0,,,72,85
137760,note_on,0,0,1,,,,,,,,0,,,78,85
137760,note_on,0,0,1,,,,,,,,0,,,86,85
137760,note_on,1,0,1,,,,,,,,0,,,81,85
137760,note_on,145,0,4,,,,,,,,3,,,38,31
137855,note_on,95,0,4,,,,,,,,3,,,38,0
137879,note_on,119,0,3,,,,,,,,2,,,50,0
137880,note_on,1,0,3,,,,,,,,2,,,64,79
137999,note_on,119,0,3,,,,,,,,2,,,64,0
138000,note_on,145,0,4,,,,,,,,3,,,54,31
138000,note_on,0,0,4,,,,,,,,3,,,57,31
138000,note_on,1,0,3,,,,,,,,2,,,62,77
138086,note_on,86,0,4,,,,,,,,3,,,57,0
138086,note_on,0,0,4,,,,,,,,3,,,54,0
138119,note_on,119,0,3,,,,,,,,2,,,62,0
138120,note_on,0,0,3,,,,,,,,2,,,66,74
138120,note_on,1,0,3,,,,,,,,2,,,74,74
138192,note_on,432,0,1,,,,,,,,0,,,86,0
138192,note_on,0,0,1,,,,,,,,0,,,72,0
138192,note_on,0,0,1,,,,,,,,0,,,78,0
138192,note_on,0,0,1,,,,,,,,0,,,81,0
138228,note_on,108,0,3,,,,,,,,2,,,66,0
138228,note_on,0,0,3,,,,,,,,2,,,74,0
138240,note_on,0,0,1,,,,,,,,0,,,71,79
138240,note_on,0,0,1,,,,,,,,0,,,67,79
138240,note_on,154,0,4,,,,,,,,3,,,31,61
138240,note_on,0,0,4,,,,,,,,3,,,38,61
138240,note_on,48,0,1,,,,,,,,0,,,79,79
138240,set_tempo,7680,1,0,,,,,,545455,,,,,,
138240,note_on,0,0,4,,,,,,,,3,,,43,61
138280,control_change,52,0,3,,,,,,,,2,64,0,,
138280,control_change,40,0,1,,,,,,,,0,64,0,,
138280,control_change,40,0,4,,,,,,,,3,64,0,,
138335,note_on,0,0,4,,,,,,,,3,,,38,0
138335,note_on,0,0,4,,,,,,,,3,,,31,0
138335,note_on,55,0,4,,,,,,,,3,,,43,0
138360,control_change,80,0,1,,,,,,,,0,64,127,,
138360,control_change,25,0,4,,,,,,,,3,64,127,,
138383,note_on,0,0,1,,,,,,,,0,,,79,0
138383,note_on,0,0,1,,,,,,,,0,,,71,0
138383,note_on,23,0,1,,,,,,,,0,,,67,0
138480,note_on,0,0,4,,,,,,,,3,,,47,32
138480,note_on,120,0,4,,,,,,,,3,,,43,32
138600,note_on,217,0,1,,,,,,,,0,,,59,56
138600,note_on,0,0,1,,,,,,,,0,,,55,56
138719,note_on,239,0,4,,,,,,,,3,,,47,0
138719,note_on,0,0,4,,,,,,,,3,,,43,0
138720,note_on,1,0,4,,,,,,,,3,,,47,39
138720,note_on,0,0,4,,,,,,,,3,,,50,39
138839,note_on,0,0,1,,,,,,,,0,,,59,0
138839,note_on,239,0,1,,,,,,,,0,,,55,0
138840,note_on,0,0,1,,,,,,,,0,,,62,60
138840,note_on,1,0,1,,,,,,,,0,,,55,60
138959,note_on,0,0,4,,,,,,,,3,,,47,0
138959,note_on,239,0,4,,,,,,,,3,,,50,0
138960,note_on,1,0,4,,,,,,,,3,,,59,45
138960,note_on,0,0,4,,,,,,,,3,,,50,45
139079,note_on,239,0,1,,,,,,,,0,,,62,0
139079,note_on,0,0,1,,,,,,,,0,,,55,0
139080,note_on,0,0,1,,,,,,,,0,,,67,63
139080,note_on,1,0,1,,,,,,,,0,,,55,63
139199,note_on,239,0,4,,,,,,,,3,,,50,0
139199,note_on,0,0,4,,,,,,,,3,,,59,0
139200,note_on,1,0,4,,,,,,,,3,,,62,52
139200,note_on,0,0,4,,,,,,,,3,,,55,52
139319,note_on,0,0,1,,,,,,,,0,,,55,0
139319,note_on,239,0,1,,,,,,,,0,,,67,0
139320,note_on,0,0,1,,,,,,,,0,,,59,67
139320,note_on,1,0,1,,,,,,,,0,,,71,67
139439,note_on,0,0,4,,,,,,,,3,,,62,0
139439,note_on,239,0,4,,,,,,,,3,,,55,0
139440,note_on,0,0,4,,,,,,,,3,,,55,58
139440,note_on,1,0,4,,,,,,,,3,,,59,58
139559,note_on,239,0,1,,,,,,,,0,,,59,0
139559,note_on,0,0,1,,,,,,,,0,,,71,0
139560,note_on,1,0,1,,,,,,,,0,,,79,70
139560,note_on,0,0,1,,,,,,,,0,,,71,70
139560,note_on,0,0,1,,,,,,,,0,,,74,70
139560,note_on,0,0,1,,,,,,,,0,,,83,70
139679,note_on,0,0,4,,,,,,,,3,,,59,0
139679,note_on,239,0,4,,,,,,,,3,,,55,0
139680,note_on,1,0,4,,,,,,,,3,,,62,65
139680,note_on,0,0,4,,,,,,,,3,,,59,65
139799,note_on,0,0,1,,,,,,,,0,,,79,0
139799,note_on,239,0,1,,,,,,,,0,,,83,0
139799,note_on,0,0,1,,,,,,,,0,,,74,0
139799,note_on,0,0,1,,,,,,,,0,,,71,0
139800,note_on,1,0,1,,,,,,,,0,,,86,74
139800,note_on,0,0,1,,,,,,,,0,,,74,74
139800,note_on,0,0,1,,,,,,,,0,,,83,74
139800,note_on,0,0,1,,,,,,,,0,,,79,74
139903,control_change,103,0,1,,,,,,,,0,64,0,,
139919,note_on,0,0,4,,,,,,,,3,,,62,0
139919,note_on,239,0,4,,,,,,,,3,,,59,0
139920,note_on,1,0,4,,,,,,,,3,,,67,71
139920,note_on,0,0,4,,,,,,,,3,,,55,71
140039,note_on,0,0,1,,,,,,,,0,,,86,0
140039,note_on,0,0,1,,,,,,,,0,,,74,0
140039,note_on,136,0,1,,,,,,,,0,,,79,0
140039,note_on,0,0,1,,,,,,,,0,,,83,0
140040,note_on,0,0,1,,,,,,,,0,,,83,77
140040,note_on,0,0,1,,,,,,,,0,,,91,77
140040,note_on,0,0,1,,,,,,,,0,,,79,77
140040,control_change,120,0,4,,,,,,,,3,64,0,,
140040,note_on,1,0,1,,,,,,,,0,,,86,77
140136,note_on,96,0,4,,,,,,,,3,,,55,0
140136,note_on,0,0,4,,,,,,,,3,,,67,0
140148,set_tempo,1908,1,0,,,,,,569909,,,,,,
140148,note_on,108,0,1,,,,,,,,0,,,79,0
140148,note_on,0,0,1,,,,,,,,0,,,86,0
140148,note_on,0,0,1,,,,,,,,0,,,91,0
140148,note_on,0,0,1,,,,,,,,0,,,83,0
140160,control_change,24,0,4,,,,,,,,3,64,127,,
140160,control_change,11532,0,2,,,,,,,,1,64,127,,
140160,note_on,0,0,4,,,,,,,,3,,,31,97
140160,note_on,0,0,4,,,,,,,,3,,,43,97
140211,control_change,63,0,1,,,,,,,,0,64,127,,
140280,note_on,120,0,2,,,,,,,,1,,,57,92
140280,note_on,69,0,1,,,,,,,,0,,,69,81
140280,note_on,0,0,1,,,,,,,,0,,,57,81
140399,note_on,239,0,4,,,,,,,,3,,,43,0
140399,note_on,0,0,4,,,,,,,,3,,,31,0
140400,note_on,1,0,4,,,,,,,,3,,,43,36
140400,note_on,0,0,4,,,,,,,,3,,,48,36
140519,note_on,239,0,2,,,,,,,,1,,,57,0
140520,note_on,0,0,2,,,,,,,,1,,,64,93
140520,note_on,1,0,2,,,,,,,,1,,,60,93
140639,note_on,239,0,4,,,,,,,,3,,,48,0
140639,note_on,0,0,4,,,,,,,,3,,,43,0
140640,note_on,0,0,4,,,,,,,,3,,,48,53
140640,note_on,1,0,4,,,,,,,,3,,,52,53
140759,note_on,0,0,2,,,,,,,,1,,,60,0
140759,note_on,239,0,2,,,,,,,,1,,,64,0
140759,note_on,479,0,1,,,,,,,,0,,,57,0
140759,note_on,0,0,1,,,,,,,,0,,,69,0
140760,note_on,1,0,2,,,,,,,,1,,,60,105
140760,note_on,1,0,1,,,,,,,,0,,,72,69
140879,note_on,239,0,4,,,,,,,,3,,,48,0
140879,note_on,0,0,4,,,,,,,,3,,,52,0
140880,note_on,1,0,4,,,,,,,,3,,,60,58
140880,note_on,0,0,4,,,,,,,,3,,,52,58
140999,note_on,239,0,2,,,,,,,,1,,,60,0
140999,note_on,239,0,1,,,,,,,,0,,,72,0
141000,note_on,1,0,1,,,,,,,,0,,,71,72
141000,note_on,1,0,2,,,,,,,,1,,,59,104
141119,note_on,0,0,4,,,,,,,,3,,,60,0
141119,note_on,239,0,4,,,,,,,,3,,,52,0
141120,note_on,0,0,4,,,,,,,,3,,,60,63
141120,note_on,1,0,4,,,,,,,,3,,,64,63
141120,control_change,120,0,2,,,,,,,,1,64,0,,
141239,note_on,239,0,1,,,,,,,,0,,,71,0
141239,note_on,119,0,2,,,,,,,,1,,,59,0
141240,note_on,1,0,1,,,,,,,,0,,,69,77
141240,note_on,1,0,2,,,,,,,,1,,,57,102
141348,note_on,108,0,2,,,,,,,,1,,,57,0
141359,note_on,0,0,4,,,,,,,,3,,,64,0
141359,note_on,239,0,4,,,,,,,,3,,,60,0
141360,note_on,0,0,4,,,,,,,,3,,,55,68
141360,note_on,1,0,4,,,,,,,,3,,,60,68
141479,note_on,239,0,1,,,,,,,,0,,,69,0
141480,note_on,1,0,1,,,,,,,,0,,,81,80
141480,note_on,0,0,1,,,,,,,,0,,,84,80
141480,note_on,0,0,1,,,,,,,,0,,,72,80
141480,note_on,0,0,1,,,,,,,,0,,,76,80
141599,note_on,0,0,4,,,,,,,,3,,,60,0
141599,note_on,239,0,4,,,,,,,,3,,,55,0
141600,note_on,1,0,4,,,,,,,,3,,,64,74
141600,note_on,0,0,4,,,,,,,,3,,,60,74
141719,note_on,239,0,1,,,,,,,,0,,,72,0
141719,note_on,0,0,1,,,,,,,,0,,,81,0
141719,note_on,0,0,1,,,,,,,,0,,,76,0
141719,note_on,0,0,1,,,,,,,,0,,,84,0
141720,note_on,1,0,1,,,,,,,,0,,,76,84
141720,note_on,0,0,1,,,,,,,,0,,,81,84
141720,note_on,0,0,1,,,,,,,,0,,,88,84
141720,note_on,0,0,1,,,,,,,,0,,,84,84
141839,note_on,239,0,4,,,,,,,,3,,,60,0
141839,note_on,0,0,4,,,,,,,,3,,,64,0
141840,note_on,1,0,4,,,,,,,,3,,,64,78
141840,note_on,0,0,4,,,,,,,,3,,,60,78
141840,note_on,0,0,4,,,,,,,,3,,,55,78
141909,control_change,69,0,4,,,,,,,,3,64,0,,
141909,control_change,189,0,1,,,,,,,,0,64,0,,
141948,note_on,39,0,4,,,,,,,,3,,,55,0
141948,note_on,0,0,4,,,,,,,,3,,,60,0
141948,note_on,0,0,4,,,,,,,,3,,,64,0
141959,note_on,50,0,1,,,,,,,,0,,,84,0
141959,note_on,0,0,1,,,,,,,,0,,,76,0
141959,note_on,0,0,1,,,,,,,,0,,,81,0
141959,note_on,0,0,1,,,,,,,,0,,,88,0
141960,note_on,0,0,1,,,,,,,,0,,,93,88
141960,note_on,0,0,1,,,,,,,,0,,,81,88
141960,note_on,0,0,1,,,,,,,,0,,,84,88
141960,note_on,1,0,1,,,,,,,,0,,,88,88
142068,note_on,0,0,1,,,,,,,,0,,,84,0
142068,note_on,0,0,1,,,,,,,,0,,,81,0
142068,note_on,0,0,1,,,,,,,,0,,,88,0
142068,note_on,108,0,1,,,,,,,,0,,,93,0
142080,control_change,12,0,1,,,,,,,,0,64,127,,
142080,note_on,0,0,4,,,,,,,,3,,,31,95
142080,control_change,132,0,4,,,,,,,,3,64,127,,
142080,note_on,0,0,4,,,,,,,,3,,,43,95
142200,note_on,0,0,2,,,,,,,,1,,,71,105
142200,note_on,852,0,2,,,,,,,,1,,,59,105
142200,note_on,0,0,1,,,,,,,,0,,,71,92
142200,note_on,120,0,1,,,,,,,,0,,,59,92
142319,note_on,239,0,4,,,,,,,,3,,,43,0
142319,note_on,0,0,4,,,,,,,,3,,,31,0
142320,note_on,0,0,4,,,,,,,,3,,,50,39
142320,note_on,1,0,4,,,,,,,,3,,,43,39
142439,note_on,239,0,2,,,,,,,,1,,,71,0
142439,note_on,0,0,2,,,,,,,,1,,,59,0
142440,note_on,1,0,2,,,,,,,,1,,,62,104
142440,note_on,0,0,2,,,,,,,,1,,,65,104
142559,note_on,0,0,4,,,,,,,,3,,,43,0
142559,note_on,239,0,4,,,,,,,,3,,,50,0
142560,note_on,0,0,4,,,,,,,,3,,,50,47
142560,note_on,1,0,4,,,,,,,,3,,,53,47
142679,note_on,0,0,2,,,,,,,,1,,,62,0
142679,note_on,0,0,1,,,,,,,,0,,,59,0
142679,note_on,479,0,1,,,,,,,,0,,,71,0
142679,note_on,239,0,2,,,,,,,,1,,,65,0
142680,note_on,1,0,2,,,,,,,,1,,,74,102
142680,note_on,0,0,2,,,,,,,,1,,,62,102
142680,note_on,1,0,1,,,,,,,,0,,,62,79
142680,note_on,0,0,1,,,,,,,,0,,,74,79
142799,note_on,0,0,4,,,,,,,,3,,,53,0
142799,note_on,239,0,4,,,,,,,,3,,,50,0
142800,note_on,0,0,4,,,,,,,,3,,,53,54
142800,note_on,1,0,4,,,,,,,,3,,,62,54
142919,note_on,239,0,2,,,,,,,,1,,,62,0
142919,note_on,0,0,2,,,,,,,,1,,,74,0
142919,note_on,239,0,1,,,,,,,,0,,,74,0
142919,note_on,0,0,1,,,,,,,,0,,,62,0
142920,note_on,1,0,1,,,,,,,,0,,,72,82
142920,note_on,0,0,1,,,,,,,,0,,,60,82
142920,note_on,1,0,2,,,,,,,,1,,,72,100
142920,note_on,0,0,2,,,,,,,,1,,,60,100
143039,note_on,0,0,4,,,,,,,,3,,,62,0
143039,note_on,239,0,4,,,,,,,,3,,,53,0
143040,note_on,0,0,4,,,,,,,,3,,,65,61
143040,control_change,120,0,1,,,,,,,,0,64,0,,
143040,note_on,0,0,4,,,,,,,,3,,,62,61
143040,control_change,1,0,4,,,,,,,,3,64,0,,
143159,note_on,0,0,2,,,,,,,,1,,,72,0
143159,note_on,119,0,1,,,,,,,,0,,,60,0
143159,note_on,0,0,1,,,,,,,,0,,,72,0
143159,note_on,239,0,2,,,,,,,,1,,,60,0
143160,note_on,1,0,1,,,,,,,,0,,,71,85
143160,note_on,0,0,1,,,,,,,,0,,,59,85
143160,note_on,1,0,2,,,,,,,,1,,,59,98
143160,note_on,0,0,2,,,,,,,,1,,,71,98
143279,note_on,239,0,4,,,,,,,,3,,,62,0
143279,note_on,0,0,4,,,,,,,,3,,,65,0
143280,note_on,1,0,4,,,,,,,,3,,,62,68
143280,note_on,0,0,4,,,,,,,,3,,,55,68
143399,note_on,239,0,1,,,,,,,,0,,,59,0
143399,note_on,0,0,1,,,,,,,,0,,,71,0
143400,note_on,0,0,1,,,,,,,,0,,,74,87
143400,note_on,0,0,1,,,,,,,,0,,,77,87
143400,note_on,1,0,1,,,,,,,,0,,,83,87
143400,note_on,0,0,1,,,,,,,,0,,,86,87
143519,note_on,0,0,4,,,,,,,,3,,,62,0
143519,note_on,239,0,4,,,,,,,,3,,,55,0
143520,note_on,0,0,4,,,,,,,,3,,,62,76
143520,note_on,1,0,4,,,,,,,,3,,,65,76
143639,note_on,0,0,1,,,,,,,,0,,,83,0
143639,note_on,0,0,1,,,,,,,,0,,,77,0
143639,note_on,239,0,1,,,,,,,,0,,,74,0
143639,note_on,0,0,1,,,,,,,,0,,,86,0
143640,note_on,0,0,1,,,,,,,,0,,,86,90
143640,note_on,0,0,1,,,,,,,,0,,,89,90
143640,note_on,0,0,1,,,,,,,,0,,,83,90
143640,note_on,1,0,1,,,,,,,,0,,,77,90
143759,note_on,0,0,2,,,,,,,,1,,,59,0
143759,note_on,0,0,4,,,,,,,,3,,,65,0
143759,note_on,599,0,2,,,,,,,,1,,,71,0
143759,note_on,239,0,4,,,,,,,,3,,,62,0
143760,note_on,0,0,4,,,,,,,,3,,,62,82
143760,note_on,0,0,4,,,,,,,,3,,,55,82
143760,note_on,1,0,2,,,,,,,,1,,,83,95
143760,note_on,1,0,4,,,,,,,,3,,,65,82
143868,note_on,0,0,4,,,,,,,,3,,,65,0
143868,note_on,0,0,4,,,,,,,,3,,,62,0
143868,note_on,108,0,4,,,,,,,,3,,,55,0
143879,note_on,0,0,1,,,,,,,,0,,,83,0
143879,note_on,0,0,1,,,,,,,,0,,,77,0
143879,note_on,239,0,1,,,,,,,,0,,,86,0
143879,note_on,0,0,1,,,,,,,,0,,,89,0
143880,note_on,0,0,1,,,,,,,,0,,,95,92
143880,note_on,0,0,1,,,,,,,,0,,,86,92
143880,note_on,0,0,1,,,,,,,,0,,,83,92
143880,note_on,1,0,1,,,,,,,,0,,,89,92
143971,set_tempo,3823,1,0,,,,,,559701,,,,,,
143976,note_on,216,0,2,,,,,,,,1,,,83,0
143988,note_on,0,0,1,,,,,,,,0,,,89,0
143988,note_on,0,0,1,,,,,,,,0,,,83,0
143988,note_on,0,0,1,,,,,,,,0,,,86,0
143988,note_on,108,0,1,,,,,,,,0,,,95,0
144000,control_change,132,0,4,,,,,,,,3,64,127,,
144000,control_change,12,0,1,,,,,,,,0,64,127,,
144000,control_change,24,0,2,,,,,,,,1,64,127,,
144000,note_on,0,0,4,,,,,,,,3,,,43,94
144000,note_on,0,0,4,,,,,,,,3,,,31,94
144120,note_on,120,0,2,,,,,,,,1,,,60,95
144120,note_on,0,0,1,,,,,,,,0,,,60,95
144120,note_on,120,0,1,,,,,,,,0,,,72,95
144239,note_on,239,0,4,,,,,,,,3,,,43,0
144239,note_on,0,0,4,,,,,,,,3,,,31,0
144240,note_on,1,0,4,,,,,,,,3,,,55,65
144240,note_on,0,0,4,,,,,,,,3,,,52,65
144359,note_on,239,0,2,,,,,,,,1,,,60,0
144360,note_on,1,0,2,,,,,,,,1,,,64,67
144360,note_on,0,0,2,,,,,,,,1,,,67,67
144479,note_on,0,0,4,,,,,,,,3,,,55,0
144479,note_on,239,0,4,,,,,,,,3,,,52,0
144480,note_on,1,0,4,,,,,,,,3,,,60,65
144480,note_on,0,0,4,,,,,,,,3,,,55,65
144599,note_on,239,0,2,,,,,,,,1,,,67,0
144599,note_on,0,0,2,,,,,,,,1,,,64,0
144600,note_on,0,0,2,,,,,,,,1,,,67,68
144600,note_on,0,0,2,,,,,,,,1,,,72,68
144600,note_on,1,0,2,,,,,,,,1,,,64,68
144719,note_on,239,0,4,,,,,,,,3,,,55,0
144719,note_on,0,0,4,,,,,,,,3,,,60,0
144720,note_on,0,0,4,,,,,,,,3,,,60,65
144720,note_on,1,0,4,,,,,,,,3,,,72,65
144823,control_change,223,0,2,,,,,,,,1,64,0,,
144839,note_on,16,0,2,,,,,,,,1,,,72,0
144839,note_on,0,0,2,,,,,,,,1,,,67,0
144839,note_on,0,0,2,,,,,,,,1,,,64,0
144840,note_on,1,0,2,,,,,,,,1,,,84,68
144840,note_on,0,0,2,,,,,,,,1,,,76,68
144840,note_on,0,0,2,,,,,,,,1,,,72,68
144909,control_change,69,0,2,,,,,,,,1,64,127,,
144959,note_on,239,0,4,,,,,,,,3,,,60,0
144959,note_on,0,0,4,,,,,,,,3,,,72,0
144960,control_change,1,0,4,,,,,,,,3,64,0,,
144960,note_on,0,0,4,,,,,,,,3,,,31,96
144960,note_on,0,0,4,,,,,,,,3,,,43,96
144960,control_change,840,0,1,,,,,,,,0,64,0,,
145011,control_change,51,0,4,,,,,,,,3,64,127,,
145063,control_change,103,0,1,,,,,,,,0,64,127,,
145079,note_on,0,0,2,,,,,,,,1,,,76,0
145079,note_on,170,0,2,,,,,,,,1,,,72,0
145079,note_on,16,0,1,,,,,,,,0,,,60,0
145079,note_on,0,0,2,,,,,,,,1,,,84,0
145079,note_on,0,0,1,,,,,,,,0,,,72,0
145080,note_on,1,0,1,,,,,,,,0,,,77,95
145080,note_on,1,0,2,,,,,,,,1,,,65,93
145080,note_on,0,0,1,,,,,,,,0,,,65,95
145199,note_on,188,0,4,,,,,,,,3,,,43,0
145199,note_on,0,0,4,,,,,,,,3,,,31,0
145200,note_on,0,0,4,,,,,,,,3,,,53,65
145200,note_on,1,0,4,,,,,,,,3,,,62,65
145296,note_on,216,0,1,,,,,,,,0,,,77,0
145319,note_on,239,0,2,,,,,,,,1,,,65,0
145320,note_on,0,0,2,,,,,,,,1,,,71,68
145320,note_on,1,0,2,,,,,,,,1,,,74,68
145439,note_on,239,0,4,,,,,,,,3,,,53,0
145439,note_on,0,0,4,,,,,,,,3,,,62,0
145440,note_on,0,0,4,,,,,,,,3,,,62,65
145440,note_on,1,0,4,,,,,,,,3,,,65,65
145559,note_on,239,0,2,,,,,,,,1,,,71,0
145559,note_on,0,0,2,,,,,,,,1,,,74,0
145560,note_on,0,0,2,,,,,,,,1,,,71,65
145560,note_on,264,0,1,,,,,,,,0,,,65,0
145560,note_on,1,0,2,,,,,,,,1,,,77,65
145679,note_on,0,0,4,,,,,,,,3,,,65,0
145679,note_on,239,0,4,,,,,,,,3,,,62,0
145680,note_on,0,0,4,,,,,,,,3,,,65,65
145680,note_on,1,0,4,,,,,,,,3,,,77,65
145799,note_on,239,0,2,,,,,,,,1,,,71,0
145799,note_on,0,0,2,,,,,,,,1,,,77,0
145800,note_on,1,0,2,,,,,,,,1,,,86,67
145800,note_on,0,0,2,,,,,,,,1,,,83,67
145800,note_on,0,0,2,,,,,,,,1,,,74,67
145869,control_change,69,0,2,,,,,,,,1,64,0,,
145896,note_on,216,0,4,,,,,,,,3,,,65,0
145896,note_on,0,0,4,,,,,,,,3,,,77,0
145908,note_on,39,0,2,,,,,,,,1,,,74,0
145908,note_on,0,0,2,,,,,,,,1,,,83,0
145908,note_on,0,0,2,,,,,,,,1,,,86,0
145920,note_on,0,0,4,,,,,,,,3,,,48,94
145920,note_on,24,0,4,,,,,,,,3,,,36,94
145971,control_change,51,0,4,,,,,,,,3,64,0,,
146006,control_change,35,0,4,,,,,,,,3,64,127,,
146006,control_change,98,0,2,,,,,,,,1,64,127,,
146023,control_change,463,0,1,,,,,,,,0,64,0,,
146040,note_on,34,0,2,,,,,,,,1,,,76,97
146040,note_on,0,0,2,,,,,,,,1,,,64,97
146159,note_on,153,0,4,,,,,,,,3,,,48,0
146159,note_on,0,0,4,,,,,,,,3,,,36,0
146160,note_on,137,0,1,,,,,,,,0,,,64,95
146160,note_on,0,0,1,,,,,,,,0,,,76,95
146160,note_on,0,0,4,,,,,,,,3,,,55,65
146160,note_on,0,0,4,,,,,,,,3,,,52,65
146160,note_on,1,0,4,,,,,,,,3,,,60,65
146279,note_on,239,0,2,,,,,,,,1,,,64,0
146279,note_on,0,0,2,,,,,,,,1,,,76,0
146280,note_on,0,0,2,,,,,,,,1,,,67,62
146280,note_on,0,0,2,,,,,,,,1,,,72,62
146280,note_on,1,0,2,,,,,,,,1,,,64,62
146399,note_on,0,0,4,,,,,,,,3,,,60,0
146399,note_on,0,0,4,,,,,,,,3,,,55,0
146399,note_on,239,0,4,,,,,,,,3,,,52,0
146400,note_on,0,0,4,,,,,,,,3,,,55,68
146400,note_on,1,0,4,,,,,,,,3,,,64,68
146400,note_on,0,0,4,,,,,,,,3,,,60,68
146519,note_on,0,0,2,,,,,,,,1,,,64,0
146519,note_on,0,0,2,,,,,,,,1,,,67,0
146519,note_on,239,0,2,,,,,,,,1,,,72,0
146520,note_on,1,0,2,,,,,,,,1,,,76,71
146520,note_on,0,0,2,,,,,,,,1,,,67,71
146520,note_on,0,0,2,,,,,,,,1,,,72,71
146592,note_on,0,0,1,,,,,,,,0,,,64,0
146592,note_on,432,0,1,,,,,,,,0,,,76,0
146639,note_on,0,0,4,,,,,,,,3,,,64,0
146639,note_on,0,0,4,,,,,,,,3,,,60,0
146639,note_on,239,0,4,,,,,,,,3,,,55,0
146640,note_on,0,0,4,,,,,,,,3,,,60,71
146640,note_on,0,0,4,,,,,,,,3,,,64,71
146640,note_on,1,0,4,,,,,,,,3,,,67,71
146759,note_on,0,0,2,,,,,,,,1,,,72,0
146759,note_on,239,0,2,,,,,,,,1,,,67,0
146759,note_on,0,0,2,,,,,,,,1,,,76,0
146760,note_on,1,0,2,,,,,,,,1,,,79,75
146760,note_on,0,0,2,,,,,,,,1,,,72,75
146760,note_on,0,0,2,,,,,,,,1,,,76,75
146879,note_on,0,0,4,,,,,,,,3,,,67,0
146879,note_on,0,0,4,,,,,,,,3,,,64,0
146879,note_on,239,0,4,,,,,,,,3,,,60,0
146880,note_on,0,0,4,,,,,,,,3,,,67,75
146880,note_on,1,0,4,,,,,,,,3,,,72,75
146880,note_on,0,0,4,,,,,,,,3,,,64,75
146999,note_on,0,0,2,,,,,,,,1,,,76,0
146999,note_on,0,0,2,,,,,,,,1,,,79,0
146999,note_on,239,0,2,,,,,,,,1,,,72,0
147000,note_on,1,0,2,,,,,,,,1,,,84,79
147000,note_on,0,0,2,,,,,,,,1,,,76,79
147000,note_on,0,0,2,,,,,,,,1,,,79,79
147119,note_on,0,0,4,,,,,,,,3,,,72,0
147119,note_on,239,0,4,,,,,,,,3,,,64,0
147119,note_on,0,0,4,,,,,,,,3,,,67,0
147120,note_on,0,0,4,,,,,,,,3,,,60,79
147120,note_on,0,0,4,,,,,,,,3,,,64,79
147120,note_on,1,0,4,,,,,,,,3,,,67,79
147239,note_on,0,0,2,,,,,,,,1,,,79,0
147239,note_on,0,0,2,,,,,,,,1,,,84,0
147239,note_on,239,0,2,,,,,,,,1,,,76,0
147240,note_on,1,0,2,,,,,,,,1,,,88,83
147240,note_on,0,0,2,,,,,,,,1,,,84,83
147240,note_on,0,0,2,,,,,,,,1,,,79,83
147359,note_on,0,0,4,,,,,,,,3,,,67,0
147359,note_on,0,0,4,,,,,,,,3,,,64,0
147359,note_on,239,0,4,,,,,,,,3,,,60,0
147360,note_on,0,0,4,,,,,,,,3,,,55,83
147360,note_on,0,0,4,,,,,,,,3,,,60,83
147360,note_on,1,0,4,,,,,,,,3,,,64,83
147479,note_on,239,0,2,,,,,,,,1,,,79,0
147479,note_on,0,0,2,,,,,,,,1,,,88,0
147479,note_on,0,0,2,,,,,,,,1,,,84,0
147480,note_on,1,0,2,,,,,,,,1,,,91,88
147480,note_on,0,0,2,,,,,,,,1,,,88,88
147480,note_on,0,0,2,,,,,,,,1,,,84,88
147599,note_on,0,0,4,,,,,,,,3,,,64,0
147599,note_on,0,0,4,,,,,,,,3,,,60,0
147599,note_on,239,0,4,,,,,,,,3,,,55,0
147600,note_on,1,0,4,,,,,,,,3,,,60,87
147600,note_on,0,0,4,,,,,,,,3,,,52,87
147600,note_on,0,0,4,,,,,,,,3,,,55,87
147617,control_change,17,0,4,,,,,,,,3,64,0,,
147708,note_on,0,0,4,,,,,,,,3,,,60,0
147708,note_on,0,0,4,,,,,,,,3,,,55,0
147708,note_on,91,0,4,,,,,,,,3,,,52,0
147719,note_on,0,0,2,,,,,,,,1,,,91,0
147719,note_on,0,0,2,,,,,,,,1,,,88,0
147719,note_on,239,0,2,,,,,,,,1,,,84,0
147720,note_on,1,0,2,,,,,,,,1,,,100,92
147720,note_on,0,0,2,,,,,,,,1,,,88,92
147720,note_on,0,0,2,,,,,,,,1,,,91,92
147737,control_change,17,0,2,,,,,,,,1,64,0,,
147828,note_on,0,0,2,,,,,,,,1,,,91,0
147828,note_on,91,0,2,,,,,,,,1,,,88,0
147828,note_on,0,0,2,,,,,,,,1,,,100,0
147840,note_on,0,0,4,,,,,,,,3,,,48,96
147840,control_change,132,0,4,,,,,,,,3,64,127,,
147840,note_on,0,0,4,,,,,,,,3,,,36,96
147840,control_change,12,0,2,,,,,,,,1,64,127,,
147859,set_tempo,3888,1,0,,,,,,572519,,,,,,
147959,note_on,0,0,4,,,,,,,,3,,,36,0
147959,note_on,119,0,4,,,,,,,,3,,,48,0
148080,note_on,0,0,4,,,,,,,,3,,,60,94
148080,note_on,0,0,4,,,,,,,,3,,,55,94
148080,note_on,121,0,4,,,,,,,,3,,,52,94
148199,note_on,0,0,4,,,,,,,,3,,,52,0
148199,note_on,119,0,4,,,,,,,,3,,,60,0
148199,note_on,0,0,4,,,,,,,,3,,,55,0
148200,note_on,0,0,2,,,,,,,,1,,,72,95
148200,note_on,0,0,2,,,,,,,,1,,,67,95
148200,note_on,360,0,2,,,,,,,,1,,,64,95
148319,note_on,0,0,2,,,,,,,,1,,,67,0
148319,note_on,119,0,2,,,,,,,,1,,,72,0
148319,note_on,0,0,2,,,,,,,,1,,,64,0
148320,note_on,0,0,4,,,,,,,,3,,,60,92
148320,note_on,121,0,4,,,,,,,,3,,,64,92
148320,note_on,0,0,4,,,,,,,,3,,,55,92
148439,note_on,119,0,4,,,,,,,,3,,,55,0
148439,note_on,0,0,4,,,,,,,,3,,,60,0
148439,note_on,0,0,4,,,,,,,,3,,,64,0
148440,note_on,121,0,2,,,,,,,,1,,,76,93
148440,note_on,0,0,2,,,,,,,,1,,,67,93
148440,note_on,0,0,2,,,,,,,,1,,,72,93
148559,note_on,0,0,2,,,,,,,,1,,,76,0
148559,note_on,0,0,2,,,,,,,,1,,,72,0
148559,note_on,119,0,2,,,,,,,,1,,,67,0
148560,note_on,121,0,4,,,,,,,,3,,,67,90
148560,note_on,0,0,4,,,,,,,,3,,,64,90
148560,note_on,0,0,4,,,,,,,,3,,,60,90
148679,note_on,119,0,4,,,,,,,,3,,,60,0
148679,note_on,0,0,4,,,,,,,,3,,,64,0
148679,note_on,0,0,4,,,,,,,,3,,,67,0
148680,note_on,0,0,2,,,,,,,,1,,,72,91
148680,note_on,121,0,2,,,,,,,,1,,,79,91
148680,note_on,0,0,2,,,,,,,,1,,,76,91
148799,note_on,0,0,2,,,,,,,,1,,,79,0
148799,note_on,0,0,2,,,,,,,,1,,,76,0
148799,note_on,119,0,2,,,,,,,,1,,,72,0
148800,note_on,121,0,4,,,,,,,,3,,,72,88
148800,control_change,1,0,2,,,,,,,,1,64,0,,
148800,note_on,0,0,4,,,,,,,,3,,,67,88
148800,note_on,0,0,4,,,,,,,,3,,,64,88
148919,note_on,119,0,4,,,,,,,,3,,,64,0
148919,note_on,0,0,4,,,,,,,,3,,,67,0
148919,note_on,0,0,4,,,,,,,,3,,,72,0
148920,note_on,120,0,2,,,,,,,,1,,,84,89
148920,note_on,0,0,2,,,,,,,,1,,,79,89
148920,note_on,0,0,2,,,,,,,,1,,,76,89
149039,note_on,0,0,2,,,,,,,,1,,,79,0
149039,note_on,119,0,2,,,,,,,,1,,,76,0
149039,note_on,0,0,2,,,,,,,,1,,,84,0
149040,note_on,0,0,4,,,,,,,,3,,,64,86
149040,note_on,121,0,4,,,,,,,,3,,,67,86
149040,note_on,0,0,4,,,,,,,,3,,,60,86
149159,note_on,119,0,4,,,,,,,,3,,,60,0
149159,note_on,0,0,4,,,,,,,,3,,,64,0
149159,note_on,0,0,4,,,,,,,,3,,,67,0
149160,note_on,121,0,2,,,,,,,,1,,,88,86
149160,note_on,0,0,2,,,,,,,,1,,,79,86
149160,note_on,0,0,2,,,,,,,,1,,,84,86
149279,note_on,0,0,2,,,,,,,,1,,,88,0
149279,note_on,0,0,2,,,,,,,,1,,,84,0
149279,note_on,119,0,2,,,,,,,,1,,,79,0
149280,note_on,0,0,4,,,,,,,,3,,,60,83
149280,note_on,0,0,4,,,,,,,,3,,,55,83
149280,note_on,121,0,4,,,,,,,,3,,,64,83
149399,note_on,0,0,4,,,,,,,,3,,,64,0
149399,note_on,0,0,4,,,,,,,,3,,,60,0
149399,note_on,119,0,4,,,,,,,,3,,,55,0
149400,note_on,121,0,2,,,,,,,,1,,,91,84
149400,note_on,0,0,2,,,,,,,,1,,,84,84
149400,note_on,0,0,2,,,,,,,,1,,,88,84
149519,note_on,119,0,2,,,,,,,,1,,,84,0
149519,note_on,0,0,2,,,,,,,,1,,,88,0
149519,note_on,0,0,2,,,,,,,,1,,,91,0
149520,note_on,0,0,4,,,,,,,,3,,,64,81
149520,note_on,121,0,4,,,,,,,,3,,,76,81
149589,control_change,69,0,4,,,,,,,,3,64,0,,
149628,note_on,39,0,4,,,,,,,,3,,,64,0
149628,note_on,0,0,4,,,,,,,,3,,,76,0
149640,note_on,121,0,2,,,,,,,,1,,,100,82
149640,note_on,0,0,2,,,,,,,,1,,,91,82
149640,note_on,0,0,2,,,,,,,,1,,,88,82
149694,note_on,0,0,2,,,,,,,,1,,,100,0
149694,note_on,0,0,2,,,,,,,,1,,,91,0
149694,note_on,54,0,2,,,,,,,,1,,,88,0
149760,note_on,0,0,4,,,,,,,,3,,,35,95
149760,control_change,66,0,2,,,,,,,,1,64,127,,
149760,control_change,132,0,4,,,,,,,,3,64,127,,
149760,note_on,0,0,4,,,,,,,,3,,,47,95
149880,note_on,120,0,2,,,,,,,,1,,,76,80
149880,note_on,0,0,2,,,,,,,,1,,,64,80
149900,control_change,3308,0,1,,,,,,,,0,64,127,,
149999,note_on,0,0,4,,,,,,,,3,,,35,0
149999,note_on,0,0,2,,,,,,,,1,,,76,0
149999,note_on,119,0,2,,,,,,,,1,,,64,0
149999,note_on,239,0,4,,,,,,,,3,,,47,0
150000,note_on,100,0,1,,,,,,,,0,,,76,95
150000,note_on,0,0,4,,,,,,,,3,,,62,77
150000,note_on,0,0,1,,,,,,,,0,,,64,95
150000,note_on,1,0,4,,,,,,,,3,,,52,77
150000,note_on,0,0,4,,,,,,,,3,,,56,77
150119,note_on,0,0,4,,,,,,,,3,,,56,0
150119,note_on,119,0,4,,,,,,,,3,,,62,0
150119,note_on,0,0,4,,,,,,,,3,,,52,0
150120,note_on,121,0,2,,,,,,,,1,,,74,78
150120,note_on,0,0,2,,,,,,,,1,,,68,78
150239,note_on,119,0,2,,,,,,,,1,,,68,0
150239,note_on,0,0,2,,,,,,,,1,,,74,0
150240,note_on,121,0,4,,,,,,,,3,,,64,75
150240,note_on,0,0,4,,,,,,,,3,,,62,75
150240,note_on,0,0,4,,,,,,,,3,,,56,75
150359,note_on,0,0,4,,,,,,,,3,,,64,0
150359,note_on,0,0,4,,,,,,,,3,,,62,0
150359,note_on,119,0,4,,,,,,,,3,,,56,0
150360,note_on,0,0,2,,,,,,,,1,,,68,75
150360,note_on,121,0,2,,,,,,,,1,,,76,75
150360,note_on,0,0,2,,,,,,,,1,,,74,75
150367,set_tempo,2508,1,0,,,,,,585938,,,,,,
150479,note_on,119,0,2,,,,,,,,1,,,68,0
150479,note_on,0,0,2,,,,,,,,1,,,76,0
150479,note_on,0,0,2,,,,,,,,1,,,74,0
150480,note_on,121,0,4,,,,,,,,3,,,68,73
150480,note_on,0,0,4,,,,,,,,3,,,64,73
150480,note_on,0,0,4,,,,,,,,3,,,62,73
150599,note_on,119,0,4,,,,,,,,3,,,62,0
150599,note_on,0,0,4,,,,,,,,3,,,68,0
150599,note_on,0,0,4,,,,,,,,3,,,64,0
150600,note_on,0,0,2,,,,,,,,1,,,74,73
150600,note_on,0,0,2,,,,,,,,1,,,76,73
150600,note_on,121,0,2,,,,,,,,1,,,80,73
150698,set_tempo,331,1,0,,,,,,633446,,,,,,
150719,note_on,0,0,2,,,,,,,,1,,,80,0
150719,note_on,119,0,2,,,,,,,,1,,,74,0
150719,note_on,0,0,2,,,,,,,,1,,,76,0
150720,control_change,1,0,2,,,,,,,,1,64,0,,
150720,note_on,0,0,4,,,,,,,,3,,,68,71
150720,note_on,0,0,4,,,,,,,,3,,,64,71
150720,note_on,121,0,4,,,,,,,,3,,,74,71
150839,note_on,119,0,4,,,,,,,,3,,,64,0
150839,note_on,0,0,4,,,,,,,,3,,,74,0
150839,note_on,0,0,4,,,,,,,,3,,,68,0
150840,note_on,120,0,2,,,,,,,,1,,,86,71
150840,note_on,0,0,2,,,,,,,,1,,,76,71
150840,note_on,0,0,2,,,,,,,,1,,,80,71
150860,control_change,860,0,1,,,,,,,,0,64,0,,
150864,note_on,4,0,1,,,,,,,,0,,,64,0
150864,note_on,0,0,1,,,,,,,,0,,,76,0
150947,set_tempo,249,1,0,,,,,,689338,,,,,,
150959,note_on,0,0,2,,,,,,,,1,,,86,0
150959,note_on,0,0,2,,,,,,,,1,,,80,0
150959,note_on,119,0,2,,,,,,,,1,,,76,0
150960,note_on,0,0,4,,,,,,,,3,,,62,69
150960,note_on,0,0,4,,,,,,,,3,,,64,69
150960,note_on,121,0,4,,,,,,,,3,,,68,69
151079,note_on,119,0,4,,,,,,,,3,,,62,0
151079,note_on,0,0,4,,,,,,,,3,,,64,0
151079,note_on,0,0,4,,,,,,,,3,,,68,0
151080,note_on,0,0,2,,,,,,,,1,,,86,69
151080,note_on,0,0,2,,,,,,,,1,,,80,69
151080,note_on,121,0,2,,,,,,,,1,,,88,69
151199,note_on,0,0,2,,,,,,,,1,,,88,0
151199,note_on,0,0,2,,,,,,,,1,,,86,0
151199,note_on,119,0,2,,,,,,,,1,,,80,0
151200,note_on,121,0,4,,,,,,,,3,,,64,67
151200,note_on,0,0,4,,,,,,,,3,,,56,67
151200,note_on,0,0,4,,,,,,,,3,,,62,67
151211,set_tempo,264,1,0,,,,,,643225,,,,,,
151278,set_tempo,67,1,0,,,,,,608766,,,,,,
151319,note_on,0,0,4,,,,,,,,3,,,64,0
151319,note_on,119,0,4,,,,,,,,3,,,56,0
151319,note_on,0,0,4,,,,,,,,3,,,62,0
151320,note_on,121,0,2,,,,,,,,1,,,92,67
151320,note_on,0,0,2,,,,,,,,1,,,86,67
151320,note_on,0,0,2,,,,,,,,1,,,88,67
151439,note_on,0,0,2,,,,,,,,1,,,92,0
151439,note_on,0,0,2,,,,,,,,1,,,88,0
151439,note_on,119,0,2,,,,,,,,1,,,86,0
151440,note_on,121,0,4,,,,,,,,3,,,38,66
151440,note_on,0,0,4,,,,,,,,3,,,50,66
151548,note_on,108,0,4,,,,,,,,3,,,50,0
151560,note_on,0,0,2,,,,,,,,1,,,86,65
151560,note_on,0,0,2,,,,,,,,1,,,88,65
151560,note_on,0,0,2,,,,,,,,1,,,92,65
151560,note_on,121,0,2,,,,,,,,1,,,98,65
151580,control_change,32,0,4,,,,,,,,3,64,0,,
151614,note_on,54,0,2,,,,,,,,1,,,86,0
151614,note_on,0,0,2,,,,,,,,1,,,92,0
151614,note_on,0,0,2,,,,,,,,1,,,88,0
151656,note_on,76,0,4,,,,,,,,3,,,38,0
151668,note_on,54,0,2,,,,,,,,1,,,98,0
151680,set_tempo,402,1,0,,,,,,600000,,,,,,
151680,control_change,24,0,4,,,,,,,,3,64,127,,
151680,control_change,816,0,1,,,,,,,,0,64,127,,
151680,note_on,0,0,4,,,,,,,,3,,,33,95
151680,note_on,0,0,4,,,,,,,,3,,,45,95
151680,control_change,12,0,2,,,,,,,,1,64,127,,
151800,note_on,120,0,1,,,,,,,,0,,,62,95
151800,note_on,0,0,1,,,,,,,,0,,,74,95
151800,note_on,0,0,2,,,,,,,,1,,,62,64
151800,note_on,120,0,2,,,,,,,,1,,,74,64
151919,note_on,0,0,4,,,,,,,,3,,,33,0
151919,note_on,239,0,4,,,,,,,,3,,,45,0
151920,note_on,1,0,4,,,,,,,,3,,,52,61
151920,note_on,0,0,4,,,,,,,,3,,,57,61
152039,note_on,239,0,2,,,,,,,,1,,,62,0
152039,note_on,0,0,2,,,,,,,,1,,,74,0
152040,note_on,1,0,2,,,,,,,,1,,,64,64
152040,note_on,0,0,2,,,,,,,,1,,,69,64
152159,note_on,239,0,4,,,,,,,,3,,,57,0
152159,note_on,0,0,4,,,,,,,,3,,,52,0
152160,note_on,0,0,4,,,,,,,,3,,,57,60
152160,note_on,1,0,4,,,,,,,,3,,,64,60
152232,note_on,0,0,1,,,,,,,,0,,,62,0
152232,note_on,432,0,1,,,,,,,,0,,,74,0
152279,note_on,0,0,2,,,,,,,,1,,,64,0
152279,note_on,239,0,2,,,,,,,,1,,,69,0
152280,note_on,48,0,1,,,,,,,,0,,,73,95
152280,note_on,0,0,2,,,,,,,,1,,,61,64
152280,note_on,1,0,2,,,,,,,,1,,,73,64
152280,note_on,0,0,1,,,,,,,,0,,,61,95
152399,note_on,239,0,4,,,,,,,,3,,,57,0
152399,note_on,0,0,4,,,,,,,,3,,,64,0
152400,note_on,1,0,4,,,,,,,,3,,,69,58
152400,note_on,0,0,4,,,,,,,,3,,,61,58
152400,note_on,0,0,4,,,,,,,,3,,,64,58
152519,note_on,0,0,2,,,,,,,,1,,,73,0
152519,note_on,239,0,2,,,,,,,,1,,,61,0
152520,note_on,0,0,2,,,,,,,,1,,,73,61
152520,note_on,0,0,2,,,,,,,,1,,,76,61
152520,note_on,1,0,2,,,,,,,,1,,,81,61
152639,note_on,239,0,4,,,,,,,,3,,,61,0
152639,note_on,0,0,4,,,,,,,,3,,,64,0
152639,note_on,0,0,4,,,,,,,,3,,,69,0
152640,control_change,360,0,1,,,,,,,,0,64,0,,
152640,note_on,0,0,4,,,,,,,,3,,,64,57
152640,note_on,0,0,4,,,,,,,,3,,,69,57
152640,note_on,1,0,4,,,,,,,,3,,,73,57
152712,note_on,0,0,1,,,,,,,,0,,,73,0
152712,note_on,72,0,1,,,,,,,,0,,,61,0
152759,note_on,0,0,2,,,,,,,,1,,,76,0
152759,note_on,239,0,2,,,,,,,,1,,,73,0
152759,note_on,0,0,2,,,,,,,,1,,,81,0
152760,note_on,0,0,2,,,,,,,,1,,,81,59
152760,note_on,0,0,2,,,,,,,,1,,,76,59
152760,note_on,1,0,2,,,,,,,,1,,,85,59
152879,note_on,0,0,4,,,,,,,,3,,,69,0
152879,note_on,239,0,4,,,,,,,,3,,,64,0
152879,note_on,0,0,4,,,,,,,,3,,,73,0
152880,note_on,0,0,4,,,,,,,,3,,,61,56
152880,note_on,0,0,4,,,,,,,,3,,,64,56
152880,note_on,1,0,4,,,,,,,,3,,,69,56
152999,note_on,0,0,2,,,,,,,,1,,,85,0
152999,note_on,0,0,2,,,,,,,,1,,,81,0
152999,note_on,239,0,2,,,,,,,,1,,,76,0
153000,note_on,0,0,2,,,,,,,,1,,,81,58
153000,note_on,0,0,2,,,,,,,,1,,,85,58
153000,note_on,1,0,2,,,,,,,,1,,,88,58
153119,note_on,0,0,4,,,,,,,,3,,,64,0
153119,note_on,0,0,4,,,,,,,,3,,,69,0
153119,note_on,239,0,4,,,,,,,,3,,,61,0
153120,note_on,1,0,4,,,,,,,,3,,,64,54
153120,note_on,0,0,4,,,,,,,,3,,,61,54
153120,note_on,0,0,4,,,,,,,,3,,,57,54
153239,note_on,0,0,2,,,,,,,,1,,,88,0
153239,note_on,0,0,2,,,,,,,,1,,,85,0
153239,note_on,239,0,2,,,,,,,,1,,,81,0
153240,note_on,1,0,2,,,,,,,,1,,,93,56
153240,note_on,0,0,2,,,,,,,,1,,,88,56
153240,note_on,0,0,2,,,,,,,,1,,,85,56
153359,note_on,239,0,4,,,,,,,,3,,,57,0
153359,note_on,0,0,4,,,,,,,,3,,,64,0
153359,note_on,0,0,4,,,,,,,,3,,,61,0
153360,note_on,0,0,4,,,,,,,,3,,,52,53
153360,note_on,0,0,4,,,,,,,,3,,,57,53
153360,note_on,1,0,4,,,,,,,,3,,,61,53
153390,control_change,150,0,2,,,,,,,,1,64,0,,
153468,note_on,0,0,4,,,,,,,,3,,,61,0
153468,note_on,0,0,4,,,,,,,,3,,,57,0
153468,note_on,108,0,4,,,,,,,,3,,,52,0
153479,note_on,89,0,2,,,,,,,,1,,,85,0
153479,note_on,0,0,2,,,,,,,,1,,,88,0
153479,note_on,0,0,2,,,,,,,,1,,,93,0
153480,note_on,0,0,2,,,,,,,,1,,,88,55
153480,note_on,0,0,2,,,,,,,,1,,,93,55
153480,note_on,1,0,2,,,,,,,,1,,,100,55
153495,control_change,27,0,4,,,,,,,,3,64,0,,
153588,note_on,0,0,2,,,,,,,,1,,,100,0
153588,note_on,0,0,2,,,,,,,,1,,,93,0
153588,note_on,108,0,2,,,,,,,,1,,,88,0
153600,note_on,0,0,4,,,,,,,,3,,,44,91
153600,note_on,105,0,4,,,,,,,,3,,,32,91
153630,control_change,30,0,4,,,,,,,,3,64,127,,
153839,note_on,0,0,4,,,,,,,,3,,,32,0
153839,note_on,209,0,4,,,,,,,,3,,,44,0
153840,note_on,1,0,4,,,,,,,,3,,,52,50
153840,note_on,0,0,4,,,,,,,,3,,,59,50
153959,note_on,0,0,4,,,,,,,,3,,,52,0
153959,note_on,119,0,4,,,,,,,,3,,,59,0
153960,note_on,0,0,2,,,,,,,,1,,,64,52
153960,note_on,372,0,2,,,,,,,,1,,,62,52
153960,note_on,0,0,2,,,,,,,,1,,,71,52
154050,control_change,90,0,2,,,,,,,,1,64,127,,
154079,note_on,0,0,2,,,,,,,,1,,,62,0
154079,note_on,0,0,2,,,,,,,,1,,,64,0
154079,note_on,29,0,2,,,,,,,,1,,,71,0
154080,note_on,0,0,4,,,,,,,,3,,,59,49
154080,note_on,121,0,4,,,,,,,,3,,,62,49
154199,note_on,0,0,4,,,,,,,,3,,,62,0
154199,note_on,119,0,4,,,,,,,,3,,,59,0
154200,note_on,121,0,2,,,,,,,,1,,,74,51
154200,note_on,0,0,2,,,,,,,,1,,,71,51
154200,note_on,0,0,2,,,,,,,,1,,,64,51
154319,note_on,0,0,2,,,,,,,,1,,,71,0
154319,note_on,0,0,2,,,,,,,,1,,,74,0
154319,note_on,119,0,2,,,,,,,,1,,,64,0
154320,note_on,121,0,4,,,,,,,,3,,,64,47
154320,note_on,0,0,4,,,,,,,,3,,,62,47
154439,note_on,119,0,4,,,,,,,,3,,,62,0
154439,note_on,0,0,4,,,,,,,,3,,,64,0
154440,note_on,121,0,2,,,,,,,,1,,,76,49
154440,note_on,0,0,2,,,,,,,,1,,,74,49
154440,note_on,0,0,2,,,,,,,,1,,,71,49
154470,control_change,1758,0,1,,,,,,,,0,64,127,,
154559,note_on,119,0,2,,,,,,,,1,,,71,0
154559,note_on,0,0,2,,,,,,,,1,,,74,0
154559,note_on,0,0,2,,,,,,,,1,,,76,0
154560,note_on,90,0,1,,,,,,,,0,,,59,83
154560,note_on,0,0,1,,,,,,,,0,,,71,83
154560,note_on,121,0,4,,,,,,,,3,,,71,46
154560,note_on,0,0,4,,,,,,,,3,,,59,46
154680,note_on,0,0,2,,,,,,,,1,,,74,48
154680,note_on,0,0,2,,,,,,,,1,,,76,48
154680,note_on,121,0,2,,,,,,,,1,,,83,48
154799,note_on,0,0,2,,,,,,,,1,,,76,0
154799,note_on,119,0,2,,,,,,,,1,,,74,0
154799,note_on,239,0,4,,,,,,,,3,,,59,0
154799,note_on,0,0,4,,,,,,,,3,,,71,0
154799,note_on,0,0,2,,,,,,,,1,,,83,0
154800,note_on,1,0,4,,,,,,,,3,,,64,45
154800,note_on,0,0,4,,,,,,,,3,,,62,45
154919,note_on,0,0,4,,,,,,,,3,,,64,0
154919,note_on,119,0,4,,,,,,,,3,,,62,0
154920,note_on,121,0,2,,,,,,,,1,,,86,46
154920,note_on,0,0,2,,,,,,,,1,,,76,46
154920,note_on,0,0,2,,,,,,,,1,,,83,46
155039,note_on,119,0,2,,,,,,,,1,,,76,0
155039,note_on,0,0,2,,,,,,,,1,,,83,0
155039,note_on,0,0,2,,,,,,,,1,,,86,0
155040,note_on,0,0,4,,,,,,,,3,,,56,43
155040,note_on,121,0,4,,,,,,,,3,,,62,43
155159,note_on,119,0,4,,,,,,,,3,,,56,0
155159,note_on,0,0,4,,,,,,,,3,,,62,0
155160,note_on,121,0,2,,,,,,,,1,,,88,45
155160,note_on,0,0,2,,,,,,,,1,,,83,45
155160,note_on,0,0,2,,,,,,,,1,,,76,45
155279,note_on,119,0,2,,,,,,,,1,,,76,0
155279,note_on,0,0,2,,,,,,,,1,,,83,0
155279,note_on,0,0,2,,,,,,,,1,,,88,0
155280,note_on,0,0,4,,,,,,,,3,,,62,42
155280,note_on,121,0,4,,,,,,,,3,,,74,42
155280,note_on,720,0,1,,,,,,,,0,,,71,0
155280,note_on,0,0,1,,,,,,,,0,,,59,0
155280,note_on,0,0,1,,,,,,,,0,,,62,88
155280,note_on,0,0,1,,,,,,,,0,,,74,88
155355,control_change,76,0,2,,,,,,,,1,64,0,,
155399,note_on,119,0,4,,,,,,,,3,,,62,0
155400,note_on,0,0,2,,,,,,,,1,,,88,44
155400,note_on,0,0,2,,,,,,,,1,,,95,44
155400,note_on,45,0,2,,,,,,,,1,,,100,44
155415,control_change,16,0,4,,,,,,,,3,64,0,,
155430,control_change,150,0,1,,,,,,,,0,64,0,,
155454,note_on,0,0,2,,,,,,,,1,,,95,0
155454,note_on,54,0,2,,,,,,,,1,,,88,0
155496,note_on,66,0,1,,,,,,,,0,,,74,0
155496,note_on,0,0,1,,,,,,,,0,,,62,0
155508,note_on,93,0,4,,,,,,,,3,,,74,0
155508,note_on,54,0,2,,,,,,,,1,,,100,0
155520,control_change,12,0,2,,,,,,,,1,64,127,,
155520,control_change,12,0,4,,,,,,,,3,64,127,,
155520,note_on,0,0,4,,,,,,,,3,,,33,91
155520,note_on,0,0,4,,,,,,,,3,,,45,91
155560,control_change,64,0,1,,,,,,,,0,64,127,,
155639,note_on,119,0,4,,,,,,,,3,,,45,0
155639,note_on,0,0,4,,,,,,,,3,,,33,0
155640,note_on,120,0,2,,,,,,,,1,,,73,42
155640,note_on,0,0,2,,,,,,,,1,,,61,42
155759,note_on,0,0,2,,,,,,,,1,,,73,0
155759,note_on,119,0,2,,,,,,,,1,,,61,0
155760,note_on,0,0,4,,,,,,,,3,,,57,39
155760,note_on,0,0,1,,,,,,,,0,,,61,92
155760,note_on,121,0,4,,,,,,,,3,,,52,39
155760,note_on,200,0,1,,,,,,,,0,,,73,92
155879,note_on,119,0,4,,,,,,,,3,,,57,0
155879,note_on,0,0,4,,,,,,,,3,,,52,0
155880,note_on,121,0,2,,,,,,,,1,,,64,41
155880,note_on,0,0,2,,,,,,,,1,,,69,41
155999,note_on,119,0,2,,,,,,,,1,,,69,0
155999,note_on,0,0,2,,,,,,,,1,,,64,0
156000,note_on,121,0,4,,,,,,,,3,,,61,38
156000,note_on,0,0,4,,,,,,,,3,,,52,38
156000,note_on,0,0,4,,,,,,,,3,,,57,38
156119,note_on,119,0,4,,,,,,,,3,,,52,0
156119,note_on,0,0,4,,,,,,,,3,,,57,0
156119,note_on,0,0,4,,,,,,,,3,,,61,0
156120,note_on,121,0,2,,,,,,,,1,,,64,39
156120,note_on,0,0,2,,,,,,,,1,,,69,39
156120,note_on,0,0,2,,,,,,,,1,,,73,39
156239,note_on,0,0,2,,,,,,,,1,,,64,0
156239,note_on,119,0,2,,,,,,,,1,,,73,0
156239,note_on,0,0,2,,,,,,,,1,,,69,0
156240,note_on,121,0,4,,,,,,,,3,,,64,36
156240,note_on,0,0,4,,,,,,,,3,,,57,36
156240,note_on,0,0,4,,,,,,,,3,,,61,36
156359,note_on,0,0,4,,,,,,,,3,,,61,0
156359,note_on,119,0,4,,,,,,,,3,,,57,0
156359,note_on,0,0,4,,,,,,,,3,,,64,0
156360,note_on,121,0,2,,,,,,,,1,,,76,38
156360,note_on,0,0,2,,,,,,,,1,,,73,38
156360,note_on,0,0,2,,,,,,,,1,,,69,38
156479,note_on,0,0,2,,,,,,,,1,,,73,0
156479,note_on,0,0,2,,,,,,,,1,,,76,0
156479,note_on,119,0,2,,,,,,,,1,,,69,0
156480,note_on,0,0,4,,,,,,,,3,,,64,35
156480,note_on,0,0,4,,,,,,,,3,,,61,35
156480,note_on,121,0,4,,,,,,,,3,,,69,35
156520,control_change,760,0,1,,,,,,,,0,64,0,,
156599,note_on,0,0,4,,,,,,,,3,,,69,0
156599,note_on,0,0,4,,,,,,,,3,,,64,0
156599,note_on,119,0,4,,,,,,,,3,,,61,0
156600,note_on,121,0,2,,,,,,,,1,,,81,36
156600,note_on,0,0,2,,,,,,,,1,,,76,36
156600,note_on,0,0,2,,,,,,,,1,,,73,36
156624,note_on,0,0,1,,,,,,,,0,,,73,0
156624,note_on,104,0,1,,,,,,,,0,,,61,0
156719,note_on,119,0,2,,,,,,,,1,,,73,0
156719,note_on,0,0,2,,,,,,,,1,,,76,0
156719,note_on,0,0,2,,,,,,,,1,,,81,0
156720,note_on,0,0,4,,,,,,,,3,,,61,34
156720,note_on,0,0,4,,,,,,,,3,,,57,34
156720,note_on,121,0,4,,,,,,,,3,,,64,34
156839,note_on,0,0,4,,,,,,,,3,,,64,0
156839,note_on,0,0,4,,,,,,,,3,,,61,0
156839,note_on,119,0,4,,,,,,,,3,,,57,0
156840,note_on,121,0,2,,,,,,,,1,,,85,35
156840,note_on,0,0,2,,,,,,,,1,,,76,35
156840,note_on,0,0,2,,,,,,,,1,,,81,35
156959,note_on,0,0,2,,,,,,,,1,,,85,0
156959,note_on,0,0,2,,,,,,,,1,,,81,0
156959,note_on,119,0,2,,,,,,,,1,,,76,0
156960,note_on,0,0,4,,,,,,,,3,,,57,32
156960,note_on,0,0,4,,,,,,,,3,,,52,32
156960,note_on,121,0,4,,,,,,,,3,,,61,32
157079,note_on,119,0,4,,,,,,,,3,,,52,0
157079,note_on,0,0,4,,,,,,,,3,,,57,0
157079,note_on,0,0,4,,,,,,,,3,,,61,0
157080,note_on,121,0,2,,,,,,,,1,,,88,34
157080,note_on,0,0,2,,,,,,,,1,,,81,34
157080,note_on,0,0,2,,,,,,,,1,,,85,34
157199,note_on,0,0,2,,,,,,,,1,,,88,0
157199,note_on,0,0,2,,,,,,,,1,,,85,0
157199,note_on,119,0,2,,,,,,,,1,,,81,0
157200,note_on,0,0,4,,,,,,,,3,,,52,31
157200,note_on,121,0,4,,,,,,,,3,,,57,31
157253,control_change,54,0,2,,,,,,,,1,64,0,,
157254,note_on,0,0,4,,,,,,,,3,,,57,0
157254,note_on,54,0,4,,,,,,,,3,,,52,0
157307,control_change,53,0,4,,,,,,,,3,64,0,,
157320,note_on,0,0,2,,,,,,,,1,,,93,32
157320,note_on,67,0,2,,,,,,,,1,,,99,32
157320,note_on,0,0,2,,,,,,,,1,,,85,32
157374,note_on,54,0,2,,,,,,,,1,,,85,0
157374,note_on,0,0,2,,,,,,,,1,,,99,0
157374,note_on,0,0,2,,,,,,,,1,,,93,0
157440,note_on,0,0,4,,,,,,,,3,,,47,91
157440,note_on,0,0,4,,,,,,,,3,,,35,91
157440,control_change,133,0,4,,,,,,,,3,64,127,,
157679,note_on,0,0,4,,,,,,,,3,,,35,0
157679,note_on,239,0,4,,,,,,,,3,,,47,0
157680,note_on,0,0,4,,,,,,,,3,,,56,36
157680,note_on,1,0,4,,,,,,,,3,,,52,36
157680,note_on,0,0,4,,,,,,,,3,,,62,36
157720,control_change,346,0,2,,,,,,,,1,64,127,,
157800,note_on,80,0,2,,,,,,,,1,,,64,43
157800,note_on,0,0,2,,,,,,,,1,,,68,43
157800,note_on,0,0,2,,,,,,,,1,,,74,43
157919,note_on,0,0,4,,,,,,,,3,,,52,0
157919,note_on,0,0,4,,,,,,,,3,,,56,0
157919,note_on,239,0,4,,,,,,,,3,,,62,0
157920,note_on,0,0,4,,,,,,,,3,,,56,39
157920,note_on,0,0,4,,,,,,,,3,,,62,39
157920,note_on,1,0,4,,,,,,,,3,,,64,39
158039,note_on,0,0,2,,,,,,,,1,,,68,0
158039,note_on,0,0,2,,,,,,,,1,,,64,0
158039,note_on,239,0,2,,,,,,,,1,,,74,0
158040,note_on,1,0,2,,,,,,,,1,,,76,47
158040,note_on,0,0,2,,,,,,,,1,,,74,47
158040,note_on,0,0,2,,,,,,,,1,,,68,47
158159,note_on,0,0,4,,,,,,,,3,,,62,0
158159,note_on,239,0,4,,,,,,,,3,,,56,0
158159,note_on,0,0,4,,,,,,,,3,,,64,0
158160,note_on,0,0,4,,,,,,,,3,,,62,43
158160,note_on,1,0,4,,,,,,,,3,,,68,43
158160,note_on,0,0,4,,,,,,,,3,,,64,43
158279,note_on,239,0,2,,,,,,,,1,,,68,0
158279,note_on,0,0,2,,,,,,,,1,,,74,0
158279,note_on,0,0,2,,,,,,,,1,,,76,0
158280,note_on,1,0,2,,,,,,,,1,,,80,50
158280,note_on,0,0,2,,,,,,,,1,,,76,50
158280,note_on,0,0,2,,,,,,,,1,,,74,50
158350,control_change,1726,0,1,,,,,,,,0,64,127,,
158399,note_on,239,0,4,,,,,,,,3,,,62,0
158399,note_on,0,0,4,,,,,,,,3,,,68,0
158399,note_on,0,0,4,,,,,,,,3,,,64,0
158400,note_on,1,0,4,,,,,,,,3,,,76,46
158400,note_on,50,0,1,,,,,,,,0,,,64,92
158400,note_on,0,0,1,,,,,,,,0,,,76,92
158400,note_on,0,0,4,,,,,,,,3,,,64,46
158519,note_on,0,0,2,,,,,,,,1,,,80,0
158519,note_on,239,0,2,,,,,,,,1,,,74,0
158519,note_on,0,0,2,,,,,,,,1,,,76,0
158520,note_on,1,0,2,,,,,,,,1,,,74,53
158520,note_on,0,0,2,,,,,,,,1,,,68,53
158639,note_on,239,0,4,,,,,,,,3,,,64,0
158639,note_on,0,0,4,,,,,,,,3,,,76,0
158640,note_on,1,0,4,,,,,,,,3,,,74,49
158640,note_on,0,0,4,,,,,,,,3,,,68,49
158759,note_on,0,0,2,,,,,,,,1,,,74,0
158759,note_on,239,0,2,,,,,,,,1,,,68,0
158760,note_on,0,0,2,,,,,,,,1,,,74,56
158760,note_on,0,0,2,,,,,,,,1,,,68,56
158760,note_on,1,0,2,,,,,,,,1,,,76,56
158879,note_on,0,0,4,,,,,,,,3,,,74,0
158879,note_on,239,0,4,,,,,,,,3,,,68,0
158880,note_on,1,0,4,,,,,,,,3,,,59,53
158999,note_on,0,0,2,,,,,,,,1,,,74,0
158999,note_on,0,0,2,,,,,,,,1,,,76,0
158999,note_on,239,0,2,,,,,,,,1,,,68,0
159000,note_on,1,0,2,,,,,,,,1,,,80,59
159000,note_on,0,0,2,,,,,,,,1,,,76,59
159000,note_on,0,0,2,,,,,,,,1,,,74,59
159119,note_on,239,0,4,,,,,,,,3,,,59,0
159120,note_on,720,0,1,,,,,,,,0,,,76,0
159120,note_on,1,0,4,,,,,,,,3,,,65,56
159120,note_on,0,0,1,,,,,,,,0,,,65,91
159120,note_on,0,0,1,,,,,,,,0,,,77,91
159120,note_on,0,0,1,,,,,,,,0,,,64,0
159228,note_on,108,0,4,,,,,,,,3,,,65,0
159230,control_change,2,0,4,,,,,,,,3,64,0,,
159239,note_on,0,0,2,,,,,,,,1,,,80,0
159239,note_on,239,0,2,,,,,,,,1,,,74,0
159239,note_on,0,0,2,,,,,,,,1,,,76,0
159240,note_on,1,0,2,,,,,,,,1,,,88,62
159240,note_on,0,0,2,,,,,,,,1,,,80,62
159240,note_on,0,0,2,,,,,,,,1,,,74,62
159270,control_change,30,0,2,,,,,,,,1,64,0,,
159310,control_change,190,0,1,,,,,,,,0,64,0,,
159336,note_on,26,0,1,,,,,,,,0,,,65,0
159336,note_on,0,0,1,,,,,,,,0,,,77,0
159348,note_on,0,0,2,,,,,,,,1,,,88,0
159348,note_on,0,0,2,,,,,,,,1,,,80,0
159348,note_on,78,0,2,,,,,,,,1,,,74,0
159360,note_on,0,0,4,,,,,,,,3,,,48,93
159360,note_on,130,0,4,,,,,,,,3,,,36,93
159394,control_change,46,0,2,,,,,,,,1,64,127,,
159429,control_change,69,0,4,,,,,,,,3,64,127,,
159463,control_change,127,0,1,,,,,,,,0,64,127,,
159480,note_on,86,0,2,,,,,,,,1,,,76,66
159480,note_on,0,0,2,,,,,,,,1,,,64,66
159599,note_on,170,0,4,,,,,,,,3,,,48,0
159599,note_on,0,0,4,,,,,,,,3,,,36,0
159600,note_on,1,0,4,,,,,,,,3,,,52,63
159600,note_on,0,0,4,,,,,,,,3,,,57,63
159600,note_on,0,0,4,,,,,,,,3,,,60,63
159600,note_on,0,0,1,,,,,,,,0,,,64,91
159600,note_on,137,0,1,,,,,,,,0,,,76,91
159719,note_on,239,0,2,,,,,,,,1,,,64,0
159719,note_on,0,0,2,,,,,,,,1,,,76,0
159720,note_on,0,0,2,,,,,,,,1,,,69,69
159720,note_on,1,0,2,,,,,,,,1,,,72,69
159839,note_on,239,0,4,,,,,,,,3,,,60,0
159839,note_on,0,0,4,,,,,,,,3,,,57,0
159839,note_on,0,0,4,,,,,,,,3,,,52,0
159840,note_on,1,0,4,,,,,,,,3,,,64,66
159840,note_on,0,0,4,,,,,,,,3,,,60,66
159840,note_on,0,0,4,,,,,,,,3,,,57,66
159959,note_on,0,0,2,,,,,,,,1,,,72,0
159959,note_on,239,0,2,,,,,,,,1,,,69,0
159960,note_on,0,0,2,,,,,,,,1,,,72,72
159960,note_on,0,0,2,,,,,,,,1,,,69,72
159960,note_on,1,0,2,,,,,,,,1,,,76,72
160079,note_on,0,0,4,,,,,,,,3,,,64,0
160079,note_on,0,0,4,,,,,,,,3,,,60,0
160079,note_on,239,0,4,,,,,,,,3,,,57,0
160080,note_on,1,0,4,,,,,,,,3,,,69,69
160080,note_on,0,0,4,,,,,,,,3,,,64,69
160080,note_on,0,0,4,,,,,,,,3,,,60,69
160199,note_on,0,0,2,,,,,,,,1,,,72,0
160199,note_on,0,0,2,,,,,,,,1,,,76,0
160199,note_on,239,0,2,,,,,,,,1,,,69,0
160200,note_on,1,0,2,,,,,,,,1,,,81,75
160200,note_on,0,0,2,,,,,,,,1,,,76,75
160200,note_on,0,0,2,,,,,,,,1,,,72,75
160319,note_on,0,0,4,,,,,,,,3,,,69,0
160319,note_on,0,0,4,,,,,,,,3,,,64,0
160319,note_on,239,0,4,,,,,,,,3,,,60,0
160320,note_on,0,0,4,,,,,,,,3,,,57,73
160320,note_on,0,0,4,,,,,,,,3,,,60,73
160320,note_on,1,0,4,,,,,,,,3,,,64,73
160354,control_change,154,0,2,,,,,,,,1,64,0,,
160423,control_change,823,0,1,,,,,,,,0,64,0,,
160439,note_on,85,0,2,,,,,,,,1,,,72,0
160439,note_on,0,0,2,,,,,,,,1,,,81,0
160439,note_on,0,0,2,,,,,,,,1,,,76,0
160440,note_on,1,0,2,,,,,,,,1,,,84,78
160440,note_on,0,0,2,,,,,,,,1,,,81,78
160440,note_on,0,0,2,,,,,,,,1,,,76,78
160464,note_on,41,0,1,,,,,,,,0,,,64,0
160464,note_on,0,0,1,,,,,,,,0,,,76,0
160559,note_on,239,0,4,,,,,,,,3,,,57,0
160559,note_on,0,0,4,,,,,,,,3,,,60,0
160559,note_on,0,0,4,,,,,,,,3,,,64,0
160560,note_on,0,0,4,,,,,,,,3,,,52,76
160560,note_on,1,0,4,,,,,,,,3,,,60,76
160560,note_on,0,0,4,,,,,,,,3,,,57,76
160679,note_on,0,0,2,,,,,,,,1,,,81,0
160679,note_on,0,0,2,,,,,,,,1,,,84,0
160679,note_on,239,0,2,,,,,,,,1,,,76,0
160680,note_on,0,0,2,,,,,,,,1,,,84,81
160680,note_on,0,0,2,,,,,,,,1,,,81,81
160680,note_on,1,0,2,,,,,,,,1,,,88,81
160799,note_on,0,0,4,,,,,,,,3,,,60,0
160799,note_on,0,0,4,,,,,,,,3,,,57,0
160799,note_on,239,0,4,,,,,,,,3,,,52,0
160800,note_on,0,0,4,,,,,,,,3,,,62,80
160800,note_on,1,0,4,,,,,,,,3,,,74,80
160919,note_on,0,0,2,,,,,,,,1,,,88,0
160919,note_on,0,0,2,,,,,,,,1,,,84,0
160919,note_on,239,0,2,,,,,,,,1,,,81,0
160920,note_on,0,0,2,,,,,,,,1,,,81,85
160920,note_on,1,0,2,,,,,,,,1,,,93,85
160920,note_on,0,0,2,,,,,,,,1,,,88,85
161039,note_on,0,0,4,,,,,,,,3,,,74,0
161039,note_on,239,0,4,,,,,,,,3,,,62,0
161040,note_on,0,0,4,,,,,,,,3,,,60,83
161040,note_on,1,0,4,,,,,,,,3,,,72,83
161159,note_on,239,0,2,,,,,,,,1,,,81,0
161159,note_on,0,0,2,,,,,,,,1,,,88,0
161159,note_on,0,0,2,,,,,,,,1,,,93,0
161160,note_on,1,0,2,,,,,,,,1,,,96,88
161160,note_on,0,0,2,,,,,,,,1,,,84,88
161160,note_on,0,0,2,,,,,,,,1,,,88,88
161160,note_on,0,0,2,,,,,,,,1,,,93,88
161194,control_change,154,0,4,,,,,,,,3,64,0,,
161256,note_on,0,0,4,,,,,,,,3,,,72,0
161256,note_on,62,0,4,,,,,,,,3,,,60,0
161268,note_on,0,0,2,,,,,,,,1,,,96,0
161268,note_on,0,0,2,,,,,,,,1,,,93,0
161268,note_on,108,0,2,,,,,,,,1,,,84,0
161268,note_on,0,0,2,,,,,,,,1,,,88,0
161280,control_change,12,0,2,,,,,,,,1,64,127,,
161280,note_on,24,0,4,,,,,,,,3,,,38,93
161280,note_on,0,0,4,,,,,,,,3,,,47,93
161280,note_on,0,0,4,,,,,,,,3,,,50,93
161295,control_change,15,0,4,,,,,,,,3,64,127,,
161370,control_change,906,0,1,,,,,,,,0,64,127,,
161400,note_on,0,0,2,,,,,,,,1,,,59,85
161400,note_on,30,0,1,,,,,,,,0,,,71,90
161400,note_on,120,0,2,,,,,,,,1,,,67,85
161519,note_on,0,0,4,,,,,,,,3,,,38,0
161519,note_on,224,0,4,,,,,,,,3,,,50,0
161519,note_on,0,0,4,,,,,,,,3,,,47,0
161520,note_on,0,0,4,,,,,,,,3,,,59,92
161520,note_on,0,0,4,,,,,,,,3,,,55,92
161520,note_on,1,0,4,,,,,,,,3,,,50,92
161639,note_on,0,0,2,,,,,,,,1,,,67,0
161639,note_on,239,0,2,,,,,,,,1,,,59,0
161640,note_on,0,0,2,,,,,,,,1,,,83,85
161640,note_on,0,0,2,,,,,,,,1,,,91,85
161640,note_on,1,0,2,,,,,,,,1,,,95,85
161759,note_on,0,0,4,,,,,,,,3,,,55,0
161759,note_on,0,0,4,,,,,,,,3,,,50,0
161759,note_on,239,0,4,,,,,,,,3,,,59,0
161760,note_on,0,0,4,,,,,,,,3,,,55,92
161760,note_on,1,0,4,,,,,,,,3,,,62,92
161760,note_on,0,0,4,,,,,,,,3,,,59,92
161879,note_on,0,0,2,,,,,,,,1,,,95,0
161879,note_on,0,0,2,,,,,,,,1,,,91,0
161879,note_on,239,0,2,,,,,,,,1,,,83,0
161880,note_on,0,0,2,,,,,,,,1,,,83,86
161880,note_on,0,0,2,,,,,,,,1,,,79,86
161880,note_on,1,0,2,,,,,,,,1,,,91,86
161999,note_on,0,0,4,,,,,,,,3,,,59,0
161999,note_on,0,0,4,,,,,,,,3,,,62,0
161999,note_on,239,0,4,,,,,,,,3,,,55,0
162000,note_on,0,0,4,,,,,,,,3,,,59,91
162000,note_on,0,0,4,,,,,,,,3,,,62,91
162000,note_on,1,0,4,,,,,,,,3,,,67,91
162000,note_on,23720,0,3,,,,,,,,2,,,64,86
162119,note_on,0,0,2,,,,,,,,1,,,91,0
162119,note_on,239,0,2,,,,,,,,1,,,79,0
162119,note_on,0,0,2,,,,,,,,1,,,83,0
162120,note_on,1,0,2,,,,,,,,1,,,83,86
162120,note_on,0,0,2,,,,,,,,1,,,79,86
162120,note_on,0,0,2,,,,,,,,1,,,71,86
162165,control_change,165,0,4,,,,,,,,3,64,0,,
162210,control_change,45,0,4,,,,,,,,3,64,127,,
162239,note_on,0,0,4,,,,,,,,3,,,67,0
162239,note_on,239,0,3,,,,,,,,2,,,64,0
162239,note_on,29,0,4,,,,,,,,3,,,59,0
162239,note_on,0,0,4,,,,,,,,3,,,62,0
162240,note_on,1,0,4,,,,,,,,3,,,55,90
162240,note_on,0,0,4,,,,,,,,3,,,50,90
162240,note_on,0,0,3,,,,,,,,2,,,57,86
162240,note_on,1,0,3,,,,,,,,2,,,62,86
162255,control_change,135,0,2,,,,,,,,1,64,0,,
162330,control_change,930,0,1,,,,,,,,0,64,0,,
162359,note_on,104,0,2,,,,,,,,1,,,71,0
162359,note_on,0,0,2,,,,,,,,1,,,79,0
162359,note_on,0,0,2,,,,,,,,1,,,83,0
162359,note_on,29,0,1,,,,,,,,0,,,71,0
162360,note_on,0,0,2,,,,,,,,1,,,74,87
162360,note_on,1,0,2,,,,,,,,1,,,81,87
162360,note_on,1,0,1,,,,,,,,0,,,86,90
162360,note_on,0,0,2,,,,,,,,1,,,79,87
162435,control_change,75,0,1,,,,,,,,0,64,127,,
162479,note_on,0,0,4,,,,,,,,3,,,55,0
162479,note_on,239,0,4,,,,,,,,3,,,50,0
162480,note_on,0,0,4,,,,,,,,3,,,55,90
162480,note_on,1,0,4,,,,,,,,3,,,57,90
162599,note_on,0,0,2,,,,,,,,1,,,79,0
162599,note_on,0,0,2,,,,,,,,1,,,81,0
162599,note_on,239,0,2,,,,,,,,1,,,74,0
162600,note_on,1,0,2,,,,,,,,1,,,81,87
162600,note_on,0,0,2,,,,,,,,1,,,79,87
162719,note_on,239,0,4,,,,,,,,3,,,55,0
162719,note_on,0,0,4,,,,,,,,3,,,57,0
162719,note_on,0,0,3,,,,,,,,2,,,62,0
162719,note_on,479,0,3,,,,,,,,2,,,57,0
162720,note_on,0,0,3,,,,,,,,2,,,57,86
162720,note_on,1,0,4,,,,,,,,3,,,54,89
162720,note_on,0,0,4,,,,,,,,3,,,50,89
162720,note_on,1,0,3,,,,,,,,2,,,62,86
162839,note_on,0,0,2,,,,,,,,1,,,81,0
162839,note_on,239,0,2,,,,,,,,1,,,79,0
162839,note_on,404,0,1,,,,,,,,0,,,86,0
162840,note_on,1,0,1,,,,,,,,0,,,86,90
162840,note_on,1,0,2,,,,,,,,1,,,81,88
162840,note_on,0,0,2,,,,,,,,1,,,72,88
162840,note_on,0,0,2,,,,,,,,1,,,78,88
162840,note_on,0,0,2,,,,,,,,1,,,74,88
162959,note_on,0,0,4,,,,,,,,3,,,54,0
162959,note_on,239,0,4,,,,,,,,3,,,50,0
162960,note_on,0,0,4,,,,,,,,3,,,54,91
162960,note_on,1,0,4,,,,,,,,3,,,57,91
163068,note_on,0,0,4,,,,,,,,3,,,57,0
163068,note_on,108,0,4,,,,,,,,3,,,54,0
163079,note_on,0,0,2,,,,,,,,1,,,78,0
163079,note_on,0,0,2,,,,,,,,1,,,74,0
163079,note_on,0,0,2,,,,,,,,1,,,81,0
163079,note_on,239,0,2,,,,,,,,1,,,72,0
163080,note_on,1,0,2,,,,,,,,1,,,81,93
163080,note_on,0,0,2,,,,,,,,1,,,78,93
163152,note_on,0,0,3,,,,,,,,2,,,62,0
163152,note_on,432,0,3,,,,,,,,2,,,57,0
163164,note_on,324,0,1,,,,,,,,0,,,86,0
163170,control_change,102,0,4,,,,,,,,3,64,0,,
163188,note_on,108,0,2,,,,,,,,1,,,78,0
163188,note_on,0,0,2,,,,,,,,1,,,81,0
163200,note_on,0,0,4,,,,,,,,3,,,52,92
163200,note_on,0,0,2,,,,,,,,1,,,71,93
163200,note_on,0,0,2,,,,,,,,1,,,79,93
163200,control_change,30,0,4,,,,,,,,3,64,127,,
163200,note_on,0,0,4,,,,,,,,3,,,67,92
163200,note_on,0,0,4,,,,,,,,3,,,59,92
163200,control_change,12,0,2,,,,,,,,1,64,127,,
163200,note_on,0,0,2,,,,,,,,1,,,83,93
163295,note_on,95,0,2,,,,,,,,1,,,71,0
163295,note_on,0,0,4,,,,,,,,3,,,59,0
163295,note_on,95,0,4,,,,,,,,3,,,52,0
163295,note_on,0,0,2,,,,,,,,1,,,83,0
163295,note_on,0,0,4,,,,,,,,3,,,67,0
163295,note_on,0,0,2,,,,,,,,1,,,79,0
163395,control_change,231,0,1,,,,,,,,0,64,0,,
163440,note_on,145,0,2,,,,,,,,1,,,93,93
163440,note_on,0,0,2,,,,,,,,1,,,84,93
163440,note_on,0,0,4,,,,,,,,3,,,40,92
163440,note_on,145,0,4,,,,,,,,3,,,52,92
163535,note_on,0,0,4,,,,,,,,3,,,52,0
163535,note_on,95,0,4,,,,,,,,3,,,40,0
163559,note_on,119,0,2,,,,,,,,1,,,84,0
163559,note_on,0,0,2,,,,,,,,1,,,93,0
163560,note_on,1,0,2,,,,,,,,1,,,91,94
163560,note_on,0,0,2,,,,,,,,1,,,83,94
163679,note_on,119,0,2,,,,,,,,1,,,83,0
163679,note_on,0,0,2,,,,,,,,1,,,91,0
163680,note_on,0,0,2,,,,,,,,1,,,81,94
163680,note_on,1,0,2,,,,,,,,1,,,90,94
163680,note_on,145,0,4,,,,,,,,3,,,59,93
163680,note_on,0,0,4,,,,,,,,3,,,47,93
163775,note_on,95,0,4,,,,,,,,3,,,47,0
163775,note_on,0,0,4,,,,,,,,3,,,59,0
163799,note_on,0,0,2,,,,,,,,1,,,90,0
163799,note_on,119,0,2,,,,,,,,1,,,81,0
163800,note_on,0,0,2,,,,,,,,1,,,79,94
163800,note_on,1,0,2,,,,,,,,1,,,88,94
163919,note_on,119,0,2,,,,,,,,1,,,79,0
163919,note_on,0,0,2,,,,,,,,1,,,88,0
163920,note_on,145,0,4,,,,,,,,3,,,64,94
163920,note_on,1,0,2,,,,,,,,1,,,86,94
163920,note_on,0,0,2,,,,,,,,1,,,78,94
163920,note_on,0,0,4,,,,,,,,3,,,52,94
164015,note_on,95,0,4,,,,,,,,3,,,52,0
164015,note_on,0,0,4,,,,,,,,3,,,64,0
164039,note_on,0,0,2,,,,,,,,1,,,86,0
164039,note_on,119,0,2,,,,,,,,1,,,78,0
164040,note_on,0,0,2,,,,,,,,1,,,76,95
164040,note_on,1,0,2,,,,,,,,1,,,84,95
164159,note_on,119,0,2,,,,,,,,1,,,76,0
164159,note_on,0,0,2,,,,,,,,1,,,84,0
164160,note_on,0,0,4,,,,,,,,3,,,55,95
164160,note_on,145,0,4,,,,,,,,3,,,67,95
164160,note_on,0,0,2,,,,,,,,1,,,74,95
164160,note_on,1,0,2,,,,,,,,1,,,83,95
164255,note_on,0,0,4,,,,,,,,3,,,67,0
164255,note_on,95,0,4,,,,,,,,3,,,55,0
164279,note_on,119,0,2,,,,,,,,1,,,74,0
164279,note_on,0,0,2,,,,,,,,1,,,83,0
164280,note_on,0,0,2,,,,,,,,1,,,71,95
164280,note_on,1,0,2,,,,,,,,1,,,79,95
164399,note_on,0,0,2,,,,,,,,1,,,79,0
164399,note_on,119,0,2,,,,,,,,1,,,71,0
164400,note_on,0,0,2,,,,,,,,1,,,72,95
164400,note_on,1,0,2,,,,,,,,1,,,81,95
164400,note_on,145,0,4,,,,,,,,3,,,64,96
164400,note_on,0,0,4,,,,,,,,3,,,52,96
164495,note_on,0,0,4,,,,,,,,3,,,64,0
164495,note_on,95,0,4,,,,,,,,3,,,52,0
164519,note_on,119,0,2,,,,,,,,1,,,72,0
164519,note_on,0,0,2,,,,,,,,1,,,81,0
164520,note_on,0,0,2,,,,,,,,1,,,71,95
164520,note_on,1,0,2,,,,,,,,1,,,79,95
164639,note_on,0,0,2,,,,,,,,1,,,79,0
164639,note_on,119,0,2,,,,,,,,1,,,71,0
164640,note_on,0,0,2,,,,,,,,1,,,69,96
164640,note_on,1,0,2,,,,,,,,1,,,78,96
164640,note_on,145,0,4,,,,,,,,3,,,59,97
164640,note_on,0,0,4,,,,,,,,3,,,47,97
164735,note_on,0,0,4,,,,,,,,3,,,59,0
164735,note_on,95,0,4,,,,,,,,3,,,47,0
164759,note_on,0,0,2,,,,,,,,1,,,78,0
164759,note_on,119,0,2,,,,,,,,1,,,69,0
164760,note_on,0,0,2,,,,,,,,1,,,67,96
164760,note_on,1,0,2,,,,,,,,1,,,76,96
164773,control_change,38,0,4,,,,,,,,3,64,0,,
164879,note_on,119,0,2,,,,,,,,1,,,67,0
164879,note_on,0,0,2,,,,,,,,1,,,76,0
164880,note_on,0,0,4,,,,,,,,3,,,43,97
164880,note_on,1,0,2,,,,,,,,1,,,74,96
164880,note_on,0,0,2,,,,,,,,1,,,66,96
164880,note_on,107,0,4,,,,,,,,3,,,55,97
164947,control_change,67,0,2,,,,,,,,1,64,0,,
164966,note_on,86,0,4,,,,,,,,3,,,43,0
164966,note_on,0,0,4,,,,,,,,3,,,55,0
164999,note_on,52,0,2,,,,,,,,1,,,66,0
164999,note_on,0,0,2,,,,,,,,1,,,74,0
165000,note_on,0,0,2,,,,,,,,1,,,64,96
165000,note_on,1,0,2,,,,,,,,1,,,72,96
165013,control_change,47,0,4,,,,,,,,3,64,127,,
165108,note_on,0,0,2,,,,,,,,1,,,72,0
165108,note_on,108,0,2,,,,,,,,1,,,64,0
165120,control_change,107,0,4,,,,,,,,3,64,127,,
165120,note_on,0,0,4,,,,,,,,3,,,38,97
165120,note_on,0,0,4,,,,,,,,3,,,50,97
165120,note_on,0,0,1,,,,,,,,0,,,67,95
165120,note_on,0,0,1,,,,,,,,0,,,71,95
165120,note_on,0,0,1,,,,,,,,0,,,62,95
165120,control_change,1725,0,1,,,,,,,,0,64,127,,
165120,control_change,1968,0,3,,,,,,,,2,64,127,,
165360,note_on,240,0,3,,,,,,,,2,,,47,94
165407,note_on,0,0,1,,,,,,,,0,,,71,0
165407,note_on,287,0,1,,,,,,,,0,,,67,0
165407,note_on,0,0,1,,,,,,,,0,,,62,0
165407,note_on,0,0,4,,,,,,,,3,,,38,0
165407,note_on,287,0,4,,,,,,,,3,,,50,0
165480,note_on,372,0,2,,,,,,,,1,,,59,96
165599,note_on,239,0,3,,,,,,,,2,,,47,0
165600,note_on,1,0,3,,,,,,,,2,,,48,94
165719,note_on,239,0,2,,,,,,,,1,,,59,0
165720,note_on,1,0,2,,,,,,,,1,,,60,97
165839,note_on,239,0,3,,,,,,,,2,,,48,0
165840,note_on,433,0,1,,,,,,,,0,,,67,88
165840,note_on,0,0,1,,,,,,,,0,,,71,88
165840,note_on,433,0,4,,,,,,,,3,,,38,97
165840,note_on,1,0,3,,,,,,,,2,,,49,94
165959,note_on,239,0,2,,,,,,,,1,,,60,0
165960,note_on,1,0,2,,,,,,,,1,,,61,97
165973,control_change,133,0,4,,,,,,,,3,64,0,,
166079,note_on,239,0,3,,,,,,,,2,,,49,0
166079,note_on,106,0,4,,,,,,,,3,,,38,0
166079,note_on,0,0,1,,,,,,,,0,,,67,0
166079,note_on,239,0,1,,,,,,,,0,,,71,0
166080,control_change,1,0,4,,,,,,,,3,64,0,,
166080,note_on,0,0,1,,,,,,,,0,,,69,96
166080,control_change,1,0,1,,,,,,,,0,64,0,,
166080,note_on,0,0,1,,,,,,,,0,,,67,96
166080,note_on,0,0,3,,,,,,,,2,,,50,94
166080,control_change,1,0,3,,,,,,,,2,64,0,,
166080,note_on,0,0,4,,,,,,,,3,,,38,96
166199,note_on,239,0,2,,,,,,,,1,,,61,0
166200,note_on,1,0,2,,,,,,,,1,,,62,97
166319,note_on,239,0,3,,,,,,,,2,,,50,0
166320,note_on,1,0,3,,,,,,,,2,,,51,94
166439,note_on,239,0,2,,,,,,,,1,,,62,0
166440,note_on,1,0,2,,,,,,,,1,,,63,98
166559,note_on,0,0,1,,,,,,,,0,,,67,0
166559,note_on,479,0,1,,,,,,,,0,,,69,0
166559,note_on,239,0,3,,,,,,,,2,,,51,0
166559,note_on,479,0,4,,,,,,,,3,,,38,0
166560,note_on,1,0,4,,,,,,,,3,,,38,96
166560,note_on,0,0,1,,,,,,,,0,,,74,96
166560,note_on,1,0,1,,,,,,,,0,,,66,96
166560,note_on,1,0,3,,,,,,,,2,,,48,94
166679,note_on,239,0,2,,,,,,,,1,,,63,0
166680,note_on,1,0,2,,,,,,,,1,,,60,98
166799,note_on,239,0,3,,,,,,,,2,,,48,0
166800,note_on,1,0,3,,,,,,,,2,,,45,94
166919,note_on,239,0,2,,,,,,,,1,,,60,0
166920,note_on,1,0,2,,,,,,,,1,,,57,98
166992,note_on,432,0,4,,,,,,,,3,,,38,0
166992,note_on,432,0,1,,,,,,,,0,,,74,0
166992,note_on,0,0,1,,,,,,,,0,,,66,0
167016,note_on,216,0,3,,,,,,,,2,,,45,0
167028,note_on,108,0,2,,,,,,,,1,,,57,0
167040,set_tempo,15360,1,0,,,,,,545455,,,,,,
167040,note_on,48,0,4,,,,,,,,3,,,31,95
167040,control_change,48,0,1,,,,,,,,0,64,127,,
167040,note_on,0,0,1,,,,,,,,0,,,55,98
167040,note_on,0,0,1,,,,,,,,0,,,67,98
167040,note_on,0,0,1,,,,,,,,0,,,59,98
167040,note_on,0,0,4,,,,,,,,3,,,38,95
167040,note_on,0,0,4,,,,,,,,3,,,47,95
167067,control_change,27,0,4,,,,,,,,3,64,127,,
167135,note_on,0,0,1,,,,,,,,0,,,67,0
167135,note_on,0,0,1,,,,,,,,0,,,55,0
167135,note_on,95,0,1,,,,,,,,0,,,59,0
167280,note_on,145,0,1,,,,,,,,0,,,86,98
167280,note_on,0,0,1,,,,,,,,0,,,91,98
167280,note_on,0,0,1,,,,,,,,0,,,83,98
167399,note_on,119,0,1,,,,,,,,0,,,83,0
167399,note_on,0,0,1,,,,,,,,0,,,91,0
167399,note_on,0,0,1,,,,,,,,0,,,86,0
167400,note_on,1,0,1,,,,,,,,0,,,79,98
167477,set_tempo,437,1,0,,,,,,520111,,,,,,
167519,note_on,119,0,1,,,,,,,,0,,,79,0
167520,note_on,0,0,1,,,,,,,,0,,,86,98
167520,note_on,0,0,1,,,,,,,,0,,,79,98
167520,note_on,1,0,1,,,,,,,,0,,,83,98
167615,note_on,548,0,4,,,,,,,,3,,,47,0
167615,note_on,0,0,4,,,,,,,,3,,,38,0
167615,note_on,0,0,4,,,,,,,,3,,,31,0
167639,note_on,119,0,1,,,,,,,,0,,,86,0
167639,note_on,0,0,1,,,,,,,,0,,,79,0
167639,note_on,0,0,1,,,,,,,,0,,,83,0
167640,note_on,1,0,1,,,,,,,,0,,,74,98
167759,note_on,119,0,1,,,,,,,,0,,,74,0
167760,note_on,0,0,1,,,,,,,,0,,,74,98
167760,note_on,0,0,1,,,,,,,,0,,,79,98
167760,note_on,1,0,1,,,,,,,,0,,,83,98
167879,note_on,119,0,1,,,,,,,,0,,,79,0
167879,note_on,0,0,1,,,,,,,,0,,,74,0
167879,note_on,0,0,1,,,,,,,,0,,,83,0
167880,note_on,1,0,1,,,,,,,,0,,,71,98
167999,note_on,119,0,1,,,,,,,,0,,,71,0
168000,note_on,0,0,1,,,,,,,,0,,,71,98
168000,control_change,1,0,1,,,,,,,,0,64,0,,
168000,note_on,0,0,1,,,,,,,,0,,,74,98
168000,note_on,0,0,1,,,,,,,,0,,,79,98
168027,control_change,412,0,4,,,,,,,,3,64,0,,
168119,note_on,119,0,1,,,,,,,,0,,,74,0
168119,note_on,0,0,1,,,,,,,,0,,,79,0
168119,note_on,0,0,1,,,,,,,,0,,,71,0
168120,note_on,1,0,1,,,,,,,,0,,,67,98
168239,note_on,119,0,1,,,,,,,,0,,,67,0
168240,note_on,1,0,1,,,,,,,,0,,,67,98
168240,note_on,0,0,1,,,,,,,,0,,,74,98
168240,note_on,0,0,1,,,,,,,,0,,,71,98
168359,note_on,0,0,1,,,,,,,,0,,,67,0
168359,note_on,119,0,1,,,,,,,,0,,,74,0
168359,note_on,0,0,1,,,,,,,,0,,,71,0
168360,note_on,1,0,1,,,,,,,,0,,,62,98
168479,note_on,119,0,1,,,,,,,,0,,,62,0
168480,note_on,0,0,1,,,,,,,,0,,,62,98
168480,note_on,1,0,1,,,,,,,,0,,,71,98
168480,note_on,0,0,4,,,,,,,,3,,,43,96
168480,note_on,453,0,4,,,,,,,,3,,,55,96
168599,note_on,0,0,1,,,,,,,,0,,,71,0
168599,note_on,119,0,1,,,,,,,,0,,,62,0
168600,note_on,1,0,1,,,,,,,,0,,,59,98
168719,note_on,119,0,1,,,,,,,,0,,,59,0
168720,note_on,0,0,1,,,,,,,,0,,,66,98
168720,note_on,1,0,1,,,,,,,,0,,,62,98
168720,note_on,0,0,1,,,,,,,,0,,,71,98
168800,control_change,80,0,1,,,,,,,,0,64,127,,
168839,note_on,39,0,1,,,,,,,,0,,,66,0
168839,note_on,0,0,1,,,,,,,,0,,,62,0
168839,note_on,0,0,1,,,,,,,,0,,,71,0
168840,note_on,1,0,1,,,,,,,,0,,,59,98
168912,note_on,432,0,4,,,,,,,,3,,,43,0
168912,note_on,0,0,4,,,,,,,,3,,,55,0
168948,note_on,108,0,1,,,,,,,,0,,,59,0
168960,note_on,0,0,1,,,,,,,,0,,,69,97
168960,note_on,12,0,1,,,,,,,,0,,,57,97
168960,note_on,0,0,1,,,,,,,,0,,,60,97
168960,note_on,48,0,4,,,,,,,,3,,,43,96
168960,note_on,0,0,4,,,,,,,,3,,,48,96
168960,note_on,0,0,4,,,,,,,,3,,,52,96
169046,control_change,86,0,4,,,,,,,,3,64,127,,
169055,note_on,0,0,1,,,,,,,,0,,,57,0
169055,note_on,95,0,1,,,,,,,,0,,,60,0
169055,note_on,0,0,1,,,,,,,,0,,,69,0
169200,note_on,0,0,1,,,,,,,,0,,,84,97
169200,note_on,0,0,1,,,,,,,,0,,,93,97
169200,note_on,145,0,1,,,,,,,,0,,,88,97
169269,control_change,2241,0,2,,,,,,,,1,64,127,,
169319,note_on,0,0,1,,,,,,,,0,,,93,0
169319,note_on,119,0,1,,,,,,,,0,,,84,0
169319,note_on,0,0,1,,,,,,,,0,,,88,0
169320,note_on,1,0,1,,,,,,,,0,,,81,97
169439,note_on,119,0,1,,,,,,,,0,,,81,0
169440,note_on,0,0,1,,,,,,,,0,,,88,97
169440,note_on,171,0,2,,,,,,,,1,,,60,96
169440,note_on,0,0,2,,,,,,,,1,,,72,96
169440,note_on,0,0,1,,,,,,,,0,,,81,97
169440,note_on,1,0,1,,,,,,,,0,,,84,97
169535,note_on,0,0,4,,,,,,,,3,,,48,0
169535,note_on,489,0,4,,,,,,,,3,,,52,0
169535,note_on,0,0,4,,,,,,,,3,,,43,0
169559,note_on,119,0,1,,,,,,,,0,,,88,0
169559,note_on,0,0,1,,,,,,,,0,,,81,0
169559,note_on,0,0,1,,,,,,,,0,,,84,0
169560,note_on,1,0,1,,,,,,,,0,,,76,97
169679,note_on,0,0,2,,,,,,,,1,,,60,0
169679,note_on,239,0,2,,,,,,,,1,,,72,0
169679,note_on,119,0,1,,,,,,,,0,,,76,0
169680,note_on,0,0,1,,,,,,,,0,,,81,97
169680,note_on,0,0,1,,,,,,,,0,,,76,97
169680,note_on,0,0,2,,,,,,,,1,,,71,96
169680,note_on,1,0,2,,,,,,,,1,,,59,96
169680,note_on,1,0,1,,,,,,,,0,,,84,97
169799,note_on,119,0,1,,,,,,,,0,,,81,0
169799,note_on,0,0,1,,,,,,,,0,,,76,0
169799,note_on,0,0,1,,,,,,,,0,,,84,0
169800,note_on,1,0,1,,,,,,,,0,,,72,97
169919,note_on,239,0,2,,,,,,,,1,,,71,0
169919,note_on,119,0,1,,,,,,,,0,,,72,0
169919,note_on,0,0,2,,,,,,,,1,,,59,0
169920,note_on,1,0,1,,,,,,,,0,,,81,97
169920,note_on,0,0,1,,,,,,,,0,,,72,97
169920,note_on,1,0,2,,,,,,,,1,,,57,96
169920,note_on,0,0,2,,,,,,,,1,,,69,96
169920,note_on,0,0,1,,,,,,,,0,,,76,97
170006,control_change,471,0,4,,,,,,,,3,64,0,,
170039,note_on,119,0,1,,,,,,,,0,,,76,0
170039,note_on,0,0,1,,,,,,,,0,,,72,0
170039,note_on,0,0,1,,,,,,,,0,,,81,0
170040,note_on,1,0,1,,,,,,,,0,,,69,97
170159,note_on,119,0,1,,,,,,,,0,,,69,0
170160,note_on,0,0,1,,,,,,,,0,,,72,97
170160,note_on,0,0,1,,,,,,,,0,,,76,97
170160,note_on,1,0,1,,,,,,,,0,,,69,97
170229,control_change,309,0,2,,,,,,,,1,64,0,,
170279,note_on,119,0,1,,,,,,,,0,,,76,0
170279,note_on,0,0,1,,,,,,,,0,,,69,0
170279,note_on,0,0,1,,,,,,,,0,,,72,0
170280,note_on,1,0,1,,,,,,,,0,,,64,97
170352,note_on,0,0,2,,,,,,,,1,,,57,0
170352,note_on,123,0,2,,,,,,,,1,,,69,0
170399,note_on,119,0,1,,,,,,,,0,,,64,0
170400,note_on,0,0,4,,,,,,,,3,,,52,96
170400,note_on,0,0,4,,,,,,,,3,,,48,96
170400,note_on,0,0,4,,,,,,,,3,,,43,96
170400,note_on,0,0,1,,,,,,,,0,,,64,97
170400,note_on,0,0,1,,,,,,,,0,,,72,97
170400,note_on,1,0,1,,,,,,,,0,,,69,97
170400,note_on,394,0,4,,,,,,,,3,,,57,96
170519,note_on,0,0,1,,,,,,,,0,,,64,0
170519,note_on,0,0,1,,,,,,,,0,,,69,0
170519,note_on,119,0,1,,,,,,,,0,,,72,0
170520,note_on,1,0,1,,,,,,,,0,,,60,97
170639,note_on,119,0,1,,,,,,,,0,,,60,0
170640,note_on,1,0,1,,,,,,,,0,,,67,97
170640,note_on,0,0,1,,,,,,,,0,,,64,97
170640,note_on,0,0,1,,,,,,,,0,,,72,97
170759,note_on,0,0,1,,,,,,,,0,,,67,0
170759,note_on,0,0,1,,,,,,,,0,,,72,0
170759,note_on,119,0,1,,,,,,,,0,,,64,0
170760,note_on,1,0,1,,,,,,,,0,,,57,97
170794,control_change,34,0,1,,,,,,,,0,64,0,,
170832,note_on,0,0,4,,,,,,,,3,,,52,0
170832,note_on,0,0,4,,,,,,,,3,,,48,0
170832,note_on,432,0,4,,,,,,,,3,,,43,0
170832,note_on,0,0,4,,,,,,,,3,,,57,0
170868,note_on,74,0,1,,,,,,,,0,,,57,0
170880,control_change,48,0,4,,,,,,,,3,64,127,,
170880,note_on,0,0,4,,,,,,,,3,,,53,96
170880,note_on,0,0,4,,,,,,,,3,,,50,96
170880,note_on,0,0,4,,,,,,,,3,,,43,96
170880,control_change,12,0,1,,,,,,,,0,64,127,,
170880,note_on,0,0,1,,,,,,,,0,,,71,96
170880,note_on,0,0,1,,,,,,,,0,,,59,96
170880,note_on,0,0,1,,,,,,,,0,,,62,96
170895,note_on,0,0,1,,,,,,,,0,,,59,0
170895,note_on,15,0,1,,,,,,,,0,,,62,0
170895,note_on,0,0,1,,,,,,,,0,,,71,0
170910,note_on,30,0,4,,,,,,,,3,,,43,0
170910,note_on,0,0,4,,,,,,,,3,,,50,0
170910,note_on,0,0,4,,,,,,,,3,,,53,0
171120,note_on,225,0,1,,,,,,,,0,,,95,96
171120,note_on,0,0,1,,,,,,,,0,,,89,96
171120,note_on,0,0,1,,,,,,,,0,,,86,96
171239,note_on,119,0,1,,,,,,,,0,,,86,0
171239,note_on,0,0,1,,,,,,,,0,,,89,0
171239,note_on,0,0,1,,,,,,,,0,,,95,0
171240,note_on,1,0,1,,,,,,,,0,,,83,96
171359,note_on,119,0,1,,,,,,,,0,,,83,0
171360,note_on,0,0,4,,,,,,,,3,,,62,96
171360,note_on,450,0,4,,,,,,,,3,,,74,96
171360,note_on,0,0,1,,,,,,,,0,,,83,96
171360,note_on,0,0,1,,,,,,,,0,,,89,96
171360,note_on,1,0,1,,,,,,,,0,,,86,96
171479,note_on,0,0,1,,,,,,,,0,,,89,0
171479,note_on,0,0,1,,,,,,,,0,,,86,0
171479,note_on,119,0,1,,,,,,,,0,,,83,0
171480,note_on,1,0,1,,,,,,,,0,,,77,96
171599,note_on,239,0,4,,,,,,,,3,,,62,0
171599,note_on,119,0,1,,,,,,,,0,,,77,0
171599,note_on,0,0,4,,,,,,,,3,,,74,0
171600,note_on,1,0,1,,,,,,,,0,,,83,96
171600,note_on,0,0,1,,,,,,,,0,,,77,96
171600,note_on,1,0,4,,,,,,,,3,,,72,96
171600,note_on,0,0,4,,,,,,,,3,,,60,96
171600,note_on,0,0,1,,,,,,,,0,,,86,96
171719,note_on,119,0,1,,,,,,,,0,,,86,0
171719,note_on,0,0,1,,,,,,,,0,,,77,0
171719,note_on,0,0,1,,,,,,,,0,,,83,0
171720,note_on,1,0,1,,,,,,,,0,,,74,96
171839,note_on,239,0,4,,,,,,,,3,,,60,0
171839,note_on,0,0,4,,,,,,,,3,,,72,0
171839,note_on,119,0,1,,,,,,,,0,,,74,0
171840,note_on,1,0,1,,,,,,,,0,,,83,96
171840,control_change,1,0,4,,,,,,,,3,64,0,,
171840,note_on,0,0,4,,,,,,,,3,,,71,96
171840,note_on,0,0,4,,,,,,,,3,,,59,96
171840,note_on,0,0,1,,,,,,,,0,,,74,96
171840,note_on,0,0,1,,,,,,,,0,,,77,96
171959,note_on,0,0,1,,,,,,,,0,,,74,0
171959,note_on,0,0,1,,,,,,,,0,,,83,0
171959,note_on,119,0,1,,,,,,,,0,,,77,0
171960,note_on,1,0,1,,,,,,,,0,,,71,96
172079,note_on,119,0,1,,,,,,,,0,,,71,0
172080,note_on,1,0,1,,,,,,,,0,,,71,96
172080,note_on,0,0,1,,,,,,,,0,,,77,96
172080,note_on,0,0,1,,,,,,,,0,,,74,96
172199,note_on,119,0,1,,,,,,,,0,,,74,0
172199,note_on,0,0,1,,,,,,,,0,,,77,0
172199,note_on,0,0,1,,,,,,,,0,,,71,0
172200,note_on,1,0,1,,,,,,,,0,,,65,96
172319,note_on,479,0,4,,,,,,,,3,,,59,0
172319,note_on,119,0,1,,,,,,,,0,,,65,0
172319,note_on,0,0,4,,,,,,,,3,,,71,0
172320,note_on,1,0,4,,,,,,,,3,,,59,96
172320,note_on,0,0,4,,,,,,,,3,,,56,96
172320,note_on,0,0,4,,,,,,,,3,,,50,96
172320,note_on,0,0,4,,,,,,,,3,,,43,96
172320,note_on,0,0,4,,,,,,,,3,,,53,96
172320,note_on,0,0,1,,,,,,,,0,,,74,96
172320,note_on,0,0,1,,,,,,,,0,,,71,96
172320,note_on,1,0,1,,,,,,,,0,,,65,96
172439,note_on,0,0,1,,,,,,,,0,,,65,0
172439,note_on,119,0,1,,,,,,,,0,,,74,0
172439,note_on,0,0,1,,,,,,,,0,,,71,0
172440,note_on,1,0,1,,,,,,,,0,,,62,96
172559,note_on,119,0,1,,,,,,,,0,,,62,0
172560,note_on,1,0,1,,,,,,,,0,,,65,96
172560,note_on,0,0,1,,,,,,,,0,,,62,96
172560,note_on,0,0,1,,,,,,,,0,,,71,96
172663,control_change,103,0,1,,,,,,,,0,64,0,,
172679,note_on,16,0,1,,,,,,,,0,,,71,0
172679,note_on,0,0,1,,,,,,,,0,,,62,0
172679,note_on,0,0,1,,,,,,,,0,,,65,0
172680,note_on,1,0,1,,,,,,,,0,,,59,96
172752,note_on,0,0,4,,,,,,,,3,,,56,0
172752,note_on,0,0,4,,,,,,,,3,,,59,0
172752,note_on,432,0,4,,,,,,,,3,,,43,0
172752,note_on,0,0,4,,,,,,,,3,,,53,0
172752,note_on,0,0,4,,,,,,,,3,,,50,0
172788,note_on,108,0,1,,,,,,,,0,,,59,0
172800,control_change,48,0,4,,,,,,,,3,64,127,,
172800,note_on,0,0,4,,,,,,,,3,,,36,96
172800,note_on,0,0,1,,,,,,,,0,,,72,95
172800,note_on,0,0,1,,,,,,,,0,,,60,95
172800,note_on,0,0,1,,,,,,,,0,,,63,95
172800,control_change,12,0,1,,,,,,,,0,64,127,,
172800,note_on,0,0,4,,,,,,,,3,,,43,96
172800,note_on,0,0,4,,,,,,,,3,,,51,96
172838,note_on,0,0,1,,,,,,,,0,,,60,0
172838,note_on,0,0,1,,,,,,,,0,,,63,0
172838,note_on,38,0,1,,,,,,,,0,,,72,0
172876,note_on,0,0,4,,,,,,,,3,,,43,0
172876,note_on,0,0,4,,,,,,,,3,,,36,0
172876,note_on,76,0,4,,,,,,,,3,,,51,0
173040,note_on,0,0,1,,,,,,,,0,,,79,70
173040,note_on,0,0,1,,,,,,,,0,,,84,70
173040,note_on,202,0,1,,,,,,,,0,,,75,70
173159,note_on,0,0,1,,,,,,,,0,,,84,0
173159,note_on,119,0,1,,,,,,,,0,,,79,0
173159,note_on,0,0,1,,,,,,,,0,,,75,0
173160,note_on,1,0,1,,,,,,,,0,,,87,74
173279,note_on,119,0,1,,,,,,,,0,,,87,0
173280,note_on,0,0,4,,,,,,,,3,,,63,94
173280,note_on,0,0,4,,,,,,,,3,,,60,94
173280,note_on,404,0,4,,,,,,,,3,,,72,94
173280,note_on,0,0,4,,,,,,,,3,,,67,94
173280,note_on,1,0,1,,,,,,,,0,,,87,78
173280,note_on,0,0,1,,,,,,,,0,,,84,78
173280,note_on,0,0,1,,,,,,,,0,,,79,78
173399,note_on,0,0,1,,,,,,,,0,,,84,0
173399,note_on,119,0,1,,,,,,,,0,,,79,0
173399,note_on,0,0,1,,,,,,,,0,,,87,0
173400,note_on,1,0,1,,,,,,,,0,,,91,82
173519,note_on,119,0,1,,,,,,,,0,,,91,0
173520,note_on,1,0,1,,,,,,,,0,,,87,85
173520,note_on,0,0,1,,,,,,,,0,,,84,85
173520,note_on,0,0,1,,,,,,,,0,,,91,85
173639,note_on,119,0,1,,,,,,,,0,,,84,0
173639,note_on,0,0,1,,,,,,,,0,,,87,0
173639,note_on,0,0,1,,,,,,,,0,,,91,0
173640,note_on,1,0,1,,,,,,,,0,,,96,89
173759,note_on,119,0,1,,,,,,,,0,,,96,0
173759,note_on,0,0,4,,,,,,,,3,,,63,0
173759,note_on,0,0,4,,,,,,,,3,,,67,0
173759,note_on,479,0,4,,,,,,,,3,,,60,0
173759,note_on,0,0,4,,,,,,,,3,,,72,0
173760,note_on,1,0,1,,,,,,,,0,,,65,93
173760,note_on,0,0,4,,,,,,,,3,,,56,95
173760,note_on,0,0,1,,,,,,,,0,,,74,93
173760,note_on,0,0,1,,,,,,,,0,,,62,93
173760,note_on,0,0,4,,,,,,,,3,,,46,95
173760,control_change,1,0,4,,,,,,,,3,64,0,,
173760,note_on,0,0,4,,,,,,,,3,,,58,95
173855,note_on,95,0,1,,,,,,,,0,,,74,0
173855,note_on,0,0,1,,,,,,,,0,,,65,0
173855,note_on,0,0,1,,,,,,,,0,,,62,0
173870,control_change,15,0,1,,,,,,,,0,64,0,,
173950,control_change,80,0,1,,,,,,,,0,64,127,,
173951,note_on,191,0,4,,,,,,,,3,,,46,0
173951,note_on,0,0,4,,,,,,,,3,,,56,0
173951,note_on,0,0,4,,,,,,,,3,,,58,0
174000,note_on,0,0,1,,,,,,,,0,,,80,65
174000,note_on,50,0,1,,,,,,,,0,,,77,65
174000,note_on,0,0,1,,,,,,,,0,,,86,65
174119,note_on,119,0,1,,,,,,,,0,,,80,0
174119,note_on,0,0,1,,,,,,,,0,,,86,0
174119,note_on,0,0,1,,,,,,,,0,,,77,0
174120,note_on,1,0,1,,,,,,,,0,,,89,70
174239,note_on,119,0,1,,,,,,,,0,,,89,0
174240,note_on,0,0,4,,,,,,,,3,,,65,96
174240,note_on,0,0,4,,,,,,,,3,,,68,96
174240,note_on,0,0,1,,,,,,,,0,,,86,76
174240,note_on,289,0,4,,,,,,,,3,,,74,96
174240,note_on,0,0,4,,,,,,,,3,,,62,96
174240,note_on,1,0,1,,,,,,,,0,,,89,76
174240,note_on,0,0,1,,,,,,,,0,,,81,76
174359,note_on,119,0,1,,,,,,,,0,,,81,0
174359,note_on,0,0,1,,,,,,,,0,,,86,0
174359,note_on,0,0,1,,,,,,,,0,,,89,0
174360,note_on,1,0,1,,,,,,,,0,,,92,81
174479,note_on,119,0,1,,,,,,,,0,,,92,0
174480,note_on,0,0,1,,,,,,,,0,,,92,86
174480,note_on,0,0,1,,,,,,,,0,,,86,86
174480,note_on,1,0,1,,,,,,,,0,,,89,86
174599,note_on,119,0,1,,,,,,,,0,,,86,0
174599,note_on,0,0,1,,,,,,,,0,,,92,0
174599,note_on,0,0,1,,,,,,,,0,,,89,0
174600,note_on,1,0,1,,,,,,,,0,,,98,91
174672,note_on,0,0,4,,,,,,,,3,,,65,0
174672,note_on,432,0,4,,,,,,,,3,,,62,0
174672,note_on,0,0,4,,,,,,,,3,,,74,0
174672,note_on,0,0,4,,,,,,,,3,,,68,0
174708,note_on,108,0,1,,,,,,,,0,,,98,0
174720,note_on,48,0,4,,,,,,,,3,,,39,95
174720,note_on,0,0,4,,,,,,,,3,,,46,95
174720,note_on,0,0,4,,,,,,,,3,,,55,95
174720,note_on,0,0,1,,,,,,,,0,,,75,97
174720,note_on,0,0,1,,,,,,,,0,,,63,97
174720,note_on,12,0,1,,,,,,,,0,,,67,97
174806,note_on,0,0,4,,,,,,,,3,,,46,0
174806,note_on,86,0,4,,,,,,,,3,,,55,0
174806,note_on,0,0,4,,,,,,,,3,,,39,0
174815,note_on,95,0,1,,,,,,,,0,,,75,0
174815,note_on,0,0,1,,,,,,,,0,,,63,0
174815,note_on,0,0,1,,,,,,,,0,,,67,0
174910,control_change,95,0,1,,,,,,,,0,64,0,,
174960,note_on,0,0,1,,,,,,,,0,,,99,94
174960,note_on,0,0,1,,,,,,,,0,,,94,94
174960,note_on,0,0,2,,,,,,,,1,,,75,69
174960,note_on,50,0,1,,,,,,,,0,,,91,94
174960,note_on,0,0,2,,,,,,,,1,,,79,69
174960,note_on,4608,0,2,,,,,,,,1,,,82,69
175079,note_on,0,0,1,,,,,,,,0,,,91,0
175079,note_on,0,0,1,,,,,,,,0,,,99,0
175079,note_on,119,0,1,,,,,,,,0,,,94,0
175080,note_on,0,0,1,,,,,,,,0,,,87,94
175080,control_change,1,0,1,,,,,,,,0,64,127,,
175133,control_change,173,0,2,,,,,,,,1,64,127,,
175199,note_on,0,0,2,,,,,,,,1,,,82,0
175199,note_on,66,0,2,,,,,,,,1,,,75,0
175199,note_on,0,0,2,,,,,,,,1,,,79,0
175199,note_on,119,0,1,,,,,,,,0,,,87,0
175200,note_on,0,0,2,,,,,,,,1,,,75,78
175200,note_on,0,0,2,,,,,,,,1,,,70,78
175200,note_on,0,0,1,,,,,,,,0,,,91,94
175200,note_on,1,0,1,,,,,,,,0,,,94,94
175200,note_on,0,0,1,,,,,,,,0,,,87,94
175200,note_on,1,0,2,,,,,,,,1,,,79,78
175319,note_on,0,0,1,,,,,,,,0,,,91,0
175319,note_on,119,0,1,,,,,,,,0,,,87,0
175319,note_on,0,0,1,,,,,,,,0,,,94,0
175320,note_on,1,0,1,,,,,,,,0,,,82,94
175439,note_on,119,0,1,,,,,,,,0,,,82,0
175439,note_on,239,0,2,,,,,,,,1,,,70,0
175439,note_on,0,0,2,,,,,,,,1,,,75,0
175439,note_on,0,0,2,,,,,,,,1,,,79,0
175440,note_on,0,0,2,,,,,,,,1,,,67,86
175440,note_on,0,0,2,,,,,,,,1,,,70,86
175440,note_on,1,0,2,,,,,,,,1,,,75,86
175440,note_on,0,0,1,,,,,,,,0,,,82,94
175440,note_on,0,0,1,,,,,,,,0,,,91,94
175440,note_on,1,0,1,,,,,,,,0,,,87,94
175559,note_on,0,0,1,,,,,,,,0,,,87,0
175559,note_on,0,0,1,,,,,,,,0,,,91,0
175559,note_on,119,0,1,,,,,,,,0,,,82,0
175560,note_on,1,0,1,,,,,,,,0,,,79,94
175679,note_on,239,0,2,,,,,,,,1,,,67,0
175679,note_on,0,0,2,,,,,,,,1,,,70,0
175679,note_on,0,0,2,,,,,,,,1,,,75,0
175679,note_on,119,0,1,,,,,,,,0,,,79,0
175680,note_on,0,0,1,,,,,,,,0,,,79,94
175680,note_on,1,0,1,,,,,,,,0,,,82,94
175680,note_on,0,0,1,,,,,,,,0,,,87,94
175680,note_on,0,0,2,,,,,,,,1,,,70,95
175680,note_on,1,0,2,,,,,,,,1,,,63,95
175680,note_on,0,0,2,,,,,,,,1,,,67,95
175799,note_on,0,0,1,,,,,,,,0,,,82,0
175799,note_on,0,0,1,,,,,,,,0,,,79,0
175799,note_on,119,0,1,,,,,,,,0,,,87,0
175800,note_on,1,0,1,,,,,,,,0,,,75,94
175919,note_on,119,0,1,,,,,,,,0,,,75,0
175919,note_on,239,0,2,,,,,,,,1,,,70,0
175919,note_on,0,0,2,,,,,,,,1,,,67,0
175919,note_on,0,0,2,,,,,,,,1,,,63,0
175920,note_on,0,0,1,,,,,,,,0,,,82,94
175920,note_on,1,0,2,,,,,,,,1,,,63,71
175920,note_on,0,0,2,,,,,,,,1,,,67,71
175920,note_on,0,0,2,,,,,,,,1,,,70,71
175920,note_on,0,0,1,,,,,,,,0,,,79,94
175920,note_on,1,0,1,,,,,,,,0,,,87,94
176039,note_on,119,0,1,,,,,,,,0,,,82,0
176039,note_on,0,0,1,,,,,,,,0,,,79,0
176039,note_on,0,0,1,,,,,,,,0,,,87,0
176040,control_change,1,0,1,,,,,,,,0,64,0,,
176040,note_on,0,0,1,,,,,,,,0,,,75,94
176093,control_change,173,0,2,,,,,,,,1,64,0,,
176159,note_on,66,0,2,,,,,,,,1,,,70,0
176159,note_on,0,0,2,,,,,,,,1,,,67,0
176159,note_on,0,0,2,,,,,,,,1,,,63,0
176159,note_on,119,0,1,,,,,,,,0,,,75,0
176160,note_on,1,0,1,,,,,,,,0,,,75,94
176160,note_on,0,0,1,,,,,,,,0,,,82,94
176160,note_on,0,0,1,,,,,,,,0,,,79,94
176160,note_on,1,0,2,,,,,,,,1,,,58,80
176160,note_on,0,0,2,,,,,,,,1,,,63,80
176160,note_on,0,0,2,,,,,,,,1,,,67,80
176279,note_on,0,0,1,,,,,,,,0,,,75,0
176279,note_on,0,0,1,,,,,,,,0,,,82,0
176279,note_on,119,0,1,,,,,,,,0,,,79,0
176280,note_on,1,0,1,,,,,,,,0,,,70,94
176399,note_on,119,0,1,,,,,,,,0,,,70,0
176399,note_on,239,0,2,,,,,,,,1,,,67,0
176399,note_on,0,0,2,,,,,,,,1,,,63,0
176399,note_on,0,0,2,,,,,,,,1,,,58,0
176400,note_on,1,0,2,,,,,,,,1,,,55,88
176400,note_on,0,0,1,,,,,,,,0,,,70,94
176400,note_on,0,0,1,,,,,,,,0,,,75,94
176400,note_on,1,0,1,,,,,,,,0,,,79,94
176400,note_on,0,0,2,,,,,,,,1,,,63,88
176400,note_on,0,0,2,,,,,,,,1,,,58,88
176519,note_on,119,0,1,,,,,,,,0,,,70,0
176519,note_on,0,0,1,,,,,,,,0,,,79,0
176519,note_on,0,0,1,,,,,,,,0,,,75,0
176520,note_on,1,0,1,,,,,,,,0,,,67,94
176616,note_on,216,0,2,,,,,,,,1,,,63,0
176616,note_on,0,0,2,,,,,,,,1,,,58,0
176616,note_on,0,0,2,,,,,,,,1,,,55,0
176628,note_on,108,0,1,,,,,,,,0,,,67,0
176640,control_change,12,0,1,,,,,,,,0,64,127,,
176640,note_on,0,0,1,,,,,,,,0,,,70,96
176640,note_on,0,0,1,,,,,,,,0,,,67,96
176640,note_on,0,0,4,,,,,,,,3,,,51,96
176640,note_on,0,0,4,,,,,,,,3,,,55,96
176640,note_on,0,0,4,,,,,,,,3,,,58,96
176640,control_change,1834,0,4,,,,,,,,3,64,127,,
176640,note_on,0,0,1,,,,,,,,0,,,75,96
176759,note_on,0,0,1,,,,,,,,0,,,70,0
176759,note_on,0,0,1,,,,,,,,0,,,67,0
176759,note_on,119,0,1,,,,,,,,0,,,75,0
176760,note_on,1,0,1,,,,,,,,0,,,63,94
176879,note_on,0,0,4,,,,,,,,3,,,58,0
176879,note_on,0,0,4,,,,,,,,3,,,55,0
176879,note_on,119,0,1,,,,,,,,0,,,63,0
176879,note_on,239,0,4,,,,,,,,3,,,51,0
176880,note_on,1,0,4,,,,,,,,3,,,58,91
176880,note_on,0,0,4,,,,,,,,3,,,51,91
176880,note_on,0,0,4,,,,,,,,3,,,55,91
176880,note_on,1,0,1,,,,,,,,0,,,70,92
176880,note_on,0,0,1,,,,,,,,0,,,75,92
176880,note_on,0,0,1,,,,,,,,0,,,67,92
176999,note_on,0,0,1,,,,,,,,0,,,70,0
176999,note_on,0,0,1,,,,,,,,0,,,75,0
176999,note_on,119,0,1,,,,,,,,0,,,67,0
177000,note_on,1,0,1,,,,,,,,0,,,63,90
177119,note_on,119,0,1,,,,,,,,0,,,63,0
177119,note_on,239,0,4,,,,,,,,3,,,51,0
177119,note_on,0,0,4,,,,,,,,3,,,58,0
177119,note_on,0,0,4,,,,,,,,3,,,55,0
177120,note_on,1,0,4,,,,,,,,3,,,55,85
177120,note_on,0,0,4,,,,,,,,3,,,51,85
177120,note_on,0,0,4,,,,,,,,3,,,46,85
177120,note_on,1,0,1,,,,,,,,0,,,63,87
177120,note_on,0,0,1,,,,,,,,0,,,70,87
177120,note_on,0,0,1,,,,,,,,0,,,67,87
177239,note_on,0,0,1,,,,,,,,0,,,63,0
177239,note_on,0,0,1,,,,,,,,0,,,70,0
177239,note_on,119,0,1,,,,,,,,0,,,67,0
177240,note_on,1,0,1,,,,,,,,0,,,58,85
177359,note_on,119,0,1,,,,,,,,0,,,58,0
177359,note_on,0,0,4,,,,,,,,3,,,55,0
177359,note_on,0,0,4,,,,,,,,3,,,51,0
177359,note_on,239,0,4,,,,,,,,3,,,46,0
177360,note_on,0,0,4,,,,,,,,3,,,43,80
177360,note_on,0,0,4,,,,,,,,3,,,46,80
177360,note_on,1,0,4,,,,,,,,3,,,51,80
177360,note_on,1,0,1,,,,,,,,0,,,67,83
177360,note_on,0,0,1,,,,,,,,0,,,63,83
177360,note_on,0,0,1,,,,,,,,0,,,58,83
177479,note_on,0,0,1,,,,,,,,0,,,67,0
177479,note_on,0,0,1,,,,,,,,0,,,58,0
177479,note_on,119,0,1,,,,,,,,0,,,63,0
177480,note_on,1,0,1,,,,,,,,0,,,55,81
177588,note_on,108,0,1,,,,,,,,0,,,55,0
177599,note_on,239,0,4,,,,,,,,3,,,43,0
177599,note_on,0,0,4,,,,,,,,3,,,46,0
177599,note_on,0,0,4,,,,,,,,3,,,51,0
177600,note_on,0,0,4,,,,,,,,3,,,46,29
177600,note_on,0,0,3,,,,,,,,2,,,55,93
177600,note_on,10584,0,3,,,,,,,,2,,,63,93
177600,note_on,0,0,4,,,,,,,,3,,,43,29
177600,note_on,0,0,3,,,,,,,,2,,,58,93
177600,control_change,1,0,4,,,,,,,,3,64,0,,
177600,control_change,12,0,1,,,,,,,,0,64,0,,
177600,note_on,0,0,4,,,,,,,,3,,,39,29
177719,note_on,119,0,3,,,,,,,,2,,,55,0
177719,note_on,0,0,3,,,,,,,,2,,,58,0
177719,note_on,0,0,3,,,,,,,,2,,,63,0
177720,note_on,1,0,3,,,,,,,,2,,,51,90
177816,note_on,0,0,4,,,,,,,,3,,,39,0
177816,note_on,0,0,4,,,,,,,,3,,,43,0
177816,note_on,216,0,4,,,,,,,,3,,,46,0
177839,note_on,119,0,3,,,,,,,,2,,,51,0
177840,note_on,1,0,3,,,,,,,,2,,,58,87
177959,note_on,119,0,3,,,,,,,,2,,,58,0
177960,note_on,1,0,3,,,,,,,,2,,,46,84
178079,note_on,119,0,3,,,,,,,,2,,,46,0
178080,note_on,1,0,3,,,,,,,,2,,,55,80
178199,note_on,119,0,3,,,,,,,,2,,,55,0
178200,note_on,1,0,3,,,,,,,,2,,,43,77
178319,note_on,119,0,3,,,,,,,,2,,,43,0
178320,note_on,1,0,3,,,,,,,,2,,,51,74
178439,note_on,119,0,3,,,,,,,,2,,,51,0
178440,note_on,1,0,3,,,,,,,,2,,,39,71
178548,note_on,108,0,3,,,,,,,,2,,,39,0
178560,control_change,1944,0,2,,,,,,,,1,64,127,,
178560,note_on,0,0,1,,,,,,,,0,,,62,87
178560,note_on,0,0,4,,,,,,,,3,,,42,30
178560,note_on,0,0,4,,,,,,,,3,,,50,30
178560,control_change,744,0,4,,,,,,,,3,64,127,,
178560,control_change,960,0,1,,,,,,,,0,64,127,,
178560,set_tempo,11083,1,0,,,,,,600000,,,,,,
178655,note_on,0,0,4,,,,,,,,3,,,50,0
178655,note_on,95,0,4,,,,,,,,3,,,42,0
178680,note_on,120,0,1,,,,,,,,0,,,74,92
178800,note_on,0,0,4,,,,,,,,3,,,54,36
178800,note_on,145,0,4,,,,,,,,3,,,60,36
178800,note_on,240,0,2,,,,,,,,1,,,62,60
178895,note_on,95,0,4,,,,,,,,3,,,54,0
178895,note_on,0,0,4,,,,,,,,3,,,60,0
178919,note_on,119,0,2,,,,,,,,1,,,62,0
178920,note_on,1,0,2,,,,,,,,1,,,69,61
179039,note_on,119,0,2,,,,,,,,1,,,69,0
179040,note_on,145,0,4,,,,,,,,3,,,62,43
179040,note_on,1,0,2,,,,,,,,1,,,69,63
179040,note_on,0,0,4,,,,,,,,3,,,60,43
179135,note_on,95,0,4,,,,,,,,3,,,60,0
179135,note_on,0,0,4,,,,,,,,3,,,62,0
179159,note_on,119,0,2,,,,,,,,1,,,69,0
179160,note_on,1,0,2,,,,,,,,1,,,74,65
179211,set_tempo,651,1,0,,,,,,636672,,,,,,
179279,note_on,119,0,2,,,,,,,,1,,,74,0
179280,note_on,1,0,2,,,,,,,,1,,,74,66
179280,note_on,0,0,4,,,,,,,,3,,,62,49
179280,note_on,145,0,4,,,,,,,,3,,,69,49
179375,note_on,0,0,4,,,,,,,,3,,,69,0
179375,note_on,95,0,4,,,,,,,,3,,,62,0
179399,note_on,119,0,2,,,,,,,,1,,,74,0
179400,note_on,1,0,2,,,,,,,,1,,,81,67
179476,set_tempo,265,1,0,,,,,,627090,,,,,,
179519,note_on,119,0,2,,,,,,,,1,,,81,0
179520,note_on,0,0,4,,,,,,,,3,,,62,49
179520,control_change,840,0,1,,,,,,,,0,64,0,,
179520,control_change,145,0,4,,,,,,,,3,64,0,,
179520,note_on,1,0,2,,,,,,,,1,,,81,69
179520,note_on,0,0,4,,,,,,,,3,,,69,49
179615,note_on,95,0,4,,,,,,,,3,,,62,0
179615,note_on,0,0,4,,,,,,,,3,,,69,0
179639,note_on,119,0,2,,,,,,,,1,,,81,0
179640,note_on,1,0,2,,,,,,,,1,,,86,71
179759,note_on,119,0,2,,,,,,,,1,,,86,0
179760,note_on,1,0,2,,,,,,,,1,,,86,72
179760,note_on,145,0,4,,,,,,,,3,,,62,43
179760,note_on,0,0,4,,,,,,,,3,,,60,43
179855,note_on,95,0,4,,,,,,,,3,,,60,0
179855,note_on,0,0,4,,,,,,,,3,,,62,0
179879,note_on,119,0,2,,,,,,,,1,,,86,0
179880,note_on,1,0,2,,,,,,,,1,,,93,74
179999,note_on,119,0,2,,,,,,,,1,,,93,0
180000,note_on,0,0,4,,,,,,,,3,,,54,36
180000,note_on,145,0,4,,,,,,,,3,,,60,36
180000,note_on,1,0,2,,,,,,,,1,,,93,75
180086,note_on,0,0,4,,,,,,,,3,,,60,0
180086,note_on,86,0,4,,,,,,,,3,,,54,0
180119,note_on,119,0,2,,,,,,,,1,,,93,0
180120,note_on,1,0,2,,,,,,,,1,,,98,77
180359,note_on,239,0,2,,,,,,,,1,,,98,0
180360,control_change,1,0,2,,,,,,,,1,64,0,,
180360,note_on,0,0,2,,,,,,,,1,,,57,71
180360,note_on,0,0,2,,,,,,,,1,,,69,71
180468,note_on,0,0,2,,,,,,,,1,,,57,0
180468,note_on,108,0,2,,,,,,,,1,,,69,0
180480,control_change,12,0,2,,,,,,,,1,64,127,,
180480,note_on,0,0,2,,,,,,,,1,,,72,81
180480,note_on,0,0,2,,,,,,,,1,,,60,81
180480,note_on,0,0,4,,,,,,,,3,,,43,34
180480,note_on,960,0,1,,,,,,,,0,,,74,0
180480,note_on,0,0,1,,,,,,,,0,,,62,0
180480,note_on,0,0,4,,,,,,,,3,,,50,34
180480,control_change,394,0,4,,,,,,,,3,64,127,,
180502,set_tempo,1026,1,0,,,,,,597134,,,,,,
180575,note_on,95,0,4,,,,,,,,3,,,43,0
180575,note_on,0,0,4,,,,,,,,3,,,50,0
180583,control_change,103,0,1,,,,,,,,0,64,127,,
180720,note_on,137,0,1,,,,,,,,0,,,62,63
180720,note_on,145,0,4,,,,,,,,3,,,55,39
180815,note_on,95,0,4,,,,,,,,3,,,55,0
180839,note_on,119,0,1,,,,,,,,0,,,62,0
180840,note_on,1,0,1,,,,,,,,0,,,67,65
180959,note_on,0,0,2,,,,,,,,1,,,72,0
180959,note_on,479,0,2,,,,,,,,1,,,60,0
180959,note_on,119,0,1,,,,,,,,0,,,67,0
180960,note_on,1,0,1,,,,,,,,0,,,67,67
180960,note_on,0,0,2,,,,,,,,1,,,71,64
180960,note_on,1,0,2,,,,,,,,1,,,59,64
180960,note_on,145,0,4,,,,,,,,3,,,71,47
180960,note_on,0,0,4,,,,,,,,3,,,59,47
181055,note_on,0,0,4,,,,,,,,3,,,71,0
181055,note_on,95,0,4,,,,,,,,3,,,59,0
181079,note_on,119,0,1,,,,,,,,0,,,67,0
181080,note_on,1,0,1,,,,,,,,0,,,74,68
181199,note_on,119,0,1,,,,,,,,0,,,74,0
181200,note_on,145,0,4,,,,,,,,3,,,67,53
181200,note_on,0,0,4,,,,,,,,3,,,62,53
181200,note_on,1,0,1,,,,,,,,0,,,74,70
181200,note_on,0,0,1,,,,,,,,0,,,71,70
181295,note_on,95,0,4,,,,,,,,3,,,62,0
181295,note_on,0,0,4,,,,,,,,3,,,67,0
181319,note_on,0,0,1,,,,,,,,0,,,74,0
181319,note_on,119,0,1,,,,,,,,0,,,71,0
181320,note_on,1,0,1,,,,,,,,0,,,79,72
181392,note_on,432,0,2,,,,,,,,1,,,71,0
181392,note_on,0,0,2,,,,,,,,1,,,59,0
181439,note_on,119,0,1,,,,,,,,0,,,79,0
181440,note_on,1,0,1,,,,,,,,0,,,74,74
181440,note_on,0,0,1,,,,,,,,0,,,79,74
181440,control_change,48,0,2,,,,,,,,1,64,0,,
181440,note_on,0,0,4,,,,,,,,3,,,62,61
181440,control_change,145,0,4,,,,,,,,3,64,0,,
181440,note_on,0,0,4,,,,,,,,3,,,59,61
181535,note_on,95,0,4,,,,,,,,3,,,59,0
181535,note_on,0,0,4,,,,,,,,3,,,62,0
181559,note_on,0,0,1,,,,,,,,0,,,74,0
181559,note_on,119,0,1,,,,,,,,0,,,79,0
181560,note_on,1,0,1,,,,,,,,0,,,83,76
181679,note_on,119,0,1,,,,,,,,0,,,83,0
181680,note_on,0,0,4,,,,,,,,3,,,62,39
181680,note_on,1,0,1,,,,,,,,0,,,83,77
181680,note_on,0,0,1,,,,,,,,0,,,79,77
181680,note_on,145,0,4,,,,,,,,3,,,67,39
181775,note_on,95,0,4,,,,,,,,3,,,62,0
181775,note_on,0,0,4,,,,,,,,3,,,67,0
181799,note_on,0,0,1,,,,,,,,0,,,83,0
181799,note_on,119,0,1,,,,,,,,0,,,79,0
181800,note_on,1,0,1,,,,,,,,0,,,86,79
181919,note_on,119,0,1,,,,,,,,0,,,86,0
181920,note_on,1,0,1,,,,,,,,0,,,86,81
181920,note_on,0,0,1,,,,,,,,0,,,83,81
181920,note_on,0,0,4,,,,,,,,3,,,59,47
181920,note_on,145,0,4,,,,,,,,3,,,62,47
182015,note_on,0,0,4,,,,,,,,3,,,62,0
182015,note_on,95,0,4,,,,,,,,3,,,59,0
182039,note_on,119,0,1,,,,,,,,0,,,83,0
182039,note_on,0,0,1,,,,,,,,0,,,86,0
182040,note_on,1,0,1,,,,,,,,0,,,91,83
182159,note_on,119,0,1,,,,,,,,0,,,91,0
182160,note_on,1,0,1,,,,,,,,0,,,86,85
182160,note_on,0,0,1,,,,,,,,0,,,91,85
182160,note_on,145,0,4,,,,,,,,3,,,59,54
182160,note_on,0,0,4,,,,,,,,3,,,55,54
182246,control_change,86,0,1,,,,,,,,0,64,0,,
182246,note_on,86,0,4,,,,,,,,3,,,55,0
182246,note_on,0,0,4,,,,,,,,3,,,59,0
182279,note_on,33,0,1,,,,,,,,0,,,91,0
182279,note_on,0,0,1,,,,,,,,0,,,86,0
182280,note_on,1,0,1,,,,,,,,0,,,98,86
182388,note_on,108,0,1,,,,,,,,0,,,98,0
182400,note_on,154,0,4,,,,,,,,3,,,42,62
182434,control_change,34,0,4,,,,,,,,3,64,127,,
182519,note_on,85,0,4,,,,,,,,3,,,42,0
182520,control_change,132,0,1,,,,,,,,0,64,127,,
182640,note_on,0,0,4,,,,,,,,3,,,54,39
182640,note_on,121,0,4,,,,,,,,3,,,60,39
182640,note_on,120,0,1,,,,,,,,0,,,62,65
182759,note_on,0,0,4,,,,,,,,3,,,60,0
182759,note_on,119,0,4,,,,,,,,3,,,54,0
182759,note_on,119,0,1,,,,,,,,0,,,62,0
182760,note_on,1,0,1,,,,,,,,0,,,69,67
182879,note_on,119,0,1,,,,,,,,0,,,69,0
182880,note_on,1,0,1,,,,,,,,0,,,69,69
182880,note_on,121,0,4,,,,,,,,3,,,62,43
182880,note_on,0,0,4,,,,,,,,3,,,60,43
182902,set_tempo,2400,1,0,,,,,,627090,,,,,,
182999,note_on,119,0,1,,,,,,,,0,,,69,0
182999,note_on,119,0,4,,,,,,,,3,,,60,0
182999,note_on,0,0,4,,,,,,,,3,,,62,0
183000,note_on,1,0,1,,,,,,,,0,,,74,70
183119,note_on,119,0,1,,,,,,,,0,,,74,0
183120,note_on,1,0,1,,,,,,,,0,,,74,72
183120,note_on,121,0,4,,,,,,,,3,,,69,46
183120,note_on,0,0,4,,,,,,,,3,,,62,46
183239,note_on,0,0,4,,,,,,,,3,,,69,0
183239,note_on,119,0,1,,,,,,,,0,,,74,0
183239,note_on,119,0,4,,,,,,,,3,,,62,0
183240,note_on,1,0,1,,,,,,,,0,,,81,74
183316,set_tempo,414,1,0,,,,,,663717,,,,,,
183359,note_on,119,0,1,,,,,,,,0,,,81,0
183360,note_on,121,0,4,,,,,,,,3,,,69,50
183360,note_on,0,0,4,,,,,,,,3,,,57,50
183360,note_on,1,0,1,,,,,,,,0,,,81,76
183394,control_change,34,0,4,,,,,,,,3,64,0,,
183479,note_on,0,0,4,,,,,,,,3,,,69,0
183479,note_on,85,0,4,,,,,,,,3,,,57,0
183479,note_on,119,0,1,,,,,,,,0,,,81,0
183480,note_on,1,0,1,,,,,,,,0,,,86,78
183599,note_on,119,0,1,,,,,,,,0,,,86,0
183600,note_on,121,0,4,,,,,,,,3,,,62,54
183600,note_on,0,0,4,,,,,,,,3,,,60,54
183600,note_on,1,0,1,,,,,,,,0,,,86,79
183719,note_on,119,0,4,,,,,,,,3,,,60,0
183719,note_on,0,0,4,,,,,,,,3,,,62,0
183719,note_on,119,0,1,,,,,,,,0,,,86,0
183720,note_on,1,0,1,,,,,,,,0,,,93,81
183839,note_on,119,0,1,,,,,,,,0,,,93,0
183840,note_on,121,0,4,,,,,,,,3,,,60,58
183840,note_on,1,0,1,,,,,,,,0,,,93,83
183840,note_on,0,0,4,,,,,,,,3,,,57,58
183948,note_on,0,0,4,,,,,,,,3,,,60,0
183948,note_on,108,0,4,,,,,,,,3,,,57,0
183959,note_on,119,0,1,,,,,,,,0,,,93,0
183960,note_on,1,0,1,,,,,,,,0,,,98,85
184199,note_on,239,0,1,,,,,,,,0,,,98,0
184200,note_on,1,0,1,,,,,,,,0,,,72,88
184200,note_on,0,0,1,,,,,,,,0,,,84,88
184269,control_change,69,0,1,,,,,,,,0,64,0,,
184308,note_on,39,0,1,,,,,,,,0,,,84,0
184308,note_on,0,0,1,,,,,,,,0,,,72,0
184320,control_change,372,0,4,,,,,,,,3,64,127,,
184320,note_on,12,0,1,,,,,,,,0,,,83,90
184320,note_on,0,0,4,,,,,,,,3,,,55,66
184320,note_on,0,0,1,,,,,,,,0,,,71,90
184320,note_on,0,0,4,,,,,,,,3,,,43,66
184320,note_on,0,0,4,,,,,,,,3,,,50,66
184325,set_tempo,1009,1,0,,,,,,608766,,,,,,
184389,control_change,5841,0,3,,,,,,,,2,64,127,,
184457,control_change,3017,0,2,,,,,,,,1,64,127,,
184560,note_on,0,0,3,,,,,,,,2,,,55,64
184560,note_on,103,0,2,,,,,,,,1,,,62,64
184560,note_on,0,0,2,,,,,,,,1,,,67,64
184560,note_on,171,0,3,,,,,,,,2,,,59,64
184679,note_on,119,0,2,,,,,,,,1,,,67,0
184679,note_on,0,0,2,,,,,,,,1,,,62,0
184679,note_on,0,0,3,,,,,,,,2,,,59,0
184679,note_on,119,0,3,,,,,,,,2,,,55,0
184680,note_on,1,0,2,,,,,,,,1,,,71,63
184799,note_on,119,0,2,,,,,,,,1,,,71,0
184800,note_on,1,0,2,,,,,,,,1,,,71,65
184800,note_on,0,0,2,,,,,,,,1,,,67,65
184800,note_on,121,0,3,,,,,,,,2,,,62,65
184800,note_on,0,0,3,,,,,,,,2,,,59,65
184919,note_on,0,0,2,,,,,,,,1,,,71,0
184919,note_on,119,0,3,,,,,,,,2,,,59,0
184919,note_on,0,0,3,,,,,,,,2,,,62,0
184919,note_on,119,0,2,,,,,,,,1,,,67,0
184920,note_on,1,0,2,,,,,,,,1,,,74,67
185039,note_on,119,0,2,,,,,,,,1,,,74,0
185040,note_on,121,0,3,,,,,,,,2,,,67,69
185040,note_on,0,0,2,,,,,,,,1,,,71,69
185040,note_on,0,0,3,,,,,,,,2,,,62,69
185040,note_on,1,0,2,,,,,,,,1,,,74,69
185159,note_on,0,0,2,,,,,,,,1,,,74,0
185159,note_on,0,0,3,,,,,,,,2,,,67,0
185159,note_on,119,0,3,,,,,,,,2,,,62,0
185159,note_on,119,0,2,,,,,,,,1,,,71,0
185160,note_on,1,0,2,,,,,,,,1,,,79,71
185184,note_on,0,0,4,,,,,,,,3,,,55,0
185184,note_on,0,0,4,,,,,,,,3,,,50,0
185184,note_on,864,0,4,,,,,,,,3,,,43,0
185184,note_on,864,0,1,,,,,,,,0,,,71,0
185184,note_on,0,0,1,,,,,,,,0,,,83,0
185279,note_on,119,0,2,,,,,,,,1,,,79,0
185280,note_on,1,0,2,,,,,,,,1,,,79,74
185280,note_on,121,0,3,,,,,,,,2,,,71,73
185280,control_change,96,0,4,,,,,,,,3,64,0,,
185280,note_on,0,0,3,,,,,,,,2,,,67,73
185280,note_on,0,0,2,,,,,,,,1,,,74,74
185349,control_change,69,0,3,,,,,,,,2,64,0,,
185399,note_on,0,0,2,,,,,,,,1,,,79,0
185399,note_on,50,0,3,,,,,,,,2,,,67,0
185399,note_on,119,0,2,,,,,,,,1,,,74,0
185400,note_on,1,0,2,,,,,,,,1,,,83,76
185417,control_change,17,0,2,,,,,,,,1,64,0,,
185519,note_on,102,0,2,,,,,,,,1,,,83,0
185519,note_on,120,0,3,,,,,,,,2,,,71,0
185520,note_on,0,0,3,,,,,,,,2,,,62,77
185520,note_on,1,0,2,,,,,,,,1,,,83,78
185520,note_on,0,0,2,,,,,,,,1,,,79,78
185520,note_on,1,0,3,,,,,,,,2,,,67,77
185639,note_on,119,0,2,,,,,,,,1,,,79,0
185639,note_on,0,0,2,,,,,,,,1,,,83,0
185639,note_on,119,0,3,,,,,,,,2,,,62,0
185639,note_on,0,0,3,,,,,,,,2,,,67,0
185640,note_on,1,0,2,,,,,,,,1,,,86,80
185759,note_on,119,0,2,,,,,,,,1,,,86,0
185760,note_on,0,0,2,,,,,,,,1,,,83,82
185760,note_on,121,0,3,,,,,,,,2,,,62,81
185760,note_on,0,0,3,,,,,,,,2,,,59,81
185760,note_on,1,0,2,,,,,,,,1,,,86,82
185879,note_on,119,0,2,,,,,,,,1,,,83,0
185879,note_on,0,0,2,,,,,,,,1,,,86,0
185879,note_on,119,0,3,,,,,,,,2,,,59,0
185879,note_on,0,0,3,,,,,,,,2,,,62,0
185880,note_on,1,0,2,,,,,,,,1,,,91,84
185999,note_on,119,0,2,,,,,,,,1,,,91,0
186000,note_on,121,0,3,,,,,,,,2,,,59,85
186000,note_on,0,0,3,,,,,,,,2,,,55,85
186000,note_on,1,0,2,,,,,,,,1,,,91,86
186000,note_on,0,0,2,,,,,,,,1,,,86,86
186108,note_on,0,0,3,,,,,,,,2,,,59,0
186108,note_on,108,0,3,,,,,,,,2,,,55,0
186119,note_on,0,0,2,,,,,,,,1,,,91,0
186119,note_on,119,0,2,,,,,,,,1,,,86,0
186120,note_on,1,0,2,,,,,,,,1,,,98,88
186228,note_on,108,0,2,,,,,,,,1,,,98,0
186240,note_on,960,0,4,,,,,,,,3,,,44,65
186330,control_change,90,0,4,,,,,,,,3,64,127,,
186405,control_change,1221,0,1,,,,,,,,0,64,127,,
186479,note_on,149,0,4,,,,,,,,3,,,44,0
186480,note_on,0,0,1,,,,,,,,0,,,64,63
186480,note_on,75,0,1,,,,,,,,0,,,62,63
186480,note_on,1,0,4,,,,,,,,3,,,59,36
186480,note_on,0,0,4,,,,,,,,3,,,52,36
186599,note_on,0,0,4,,,,,,,,3,,,59,0
186599,note_on,119,0,4,,,,,,,,3,,,52,0
186599,note_on,119,0,1,,,,,,,,0,,,64,0
186599,note_on,0,0,1,,,,,,,,0,,,62,0
186600,note_on,1,0,1,,,,,,,,0,,,71,65
186719,note_on,119,0,1,,,,,,,,0,,,71,0
186720,note_on,121,0,4,,,,,,,,3,,,62,43
186720,note_on,1,0,1,,,,,,,,0,,,71,68
186720,note_on,0,0,1,,,,,,,,0,,,64,68
186720,note_on,0,0,4,,,,,,,,3,,,56,43
186725,set_tempo,2400,1,0,,,,,,594295,,,,,,
186839,note_on,119,0,4,,,,,,,,3,,,56,0
186839,note_on,0,0,4,,,,,,,,3,,,62,0
186839,note_on,0,0,1,,,,,,,,0,,,71,0
186839,note_on,119,0,1,,,,,,,,0,,,64,0
186840,note_on,1,0,1,,,,,,,,0,,,74,70
186930,control_change,702,0,2,,,,,,,,1,64,127,,
186959,note_on,119,0,1,,,,,,,,0,,,74,0
186960,note_on,1,0,1,,,,,,,,0,,,71,72
186960,note_on,0,0,1,,,,,,,,0,,,74,72
186960,note_on,0,0,4,,,,,,,,3,,,56,50
186960,note_on,121,0,4,,,,,,,,3,,,64,50
187079,note_on,119,0,1,,,,,,,,0,,,74,0
187079,note_on,0,0,1,,,,,,,,0,,,71,0
187079,note_on,119,0,4,,,,,,,,3,,,56,0
187079,note_on,0,0,4,,,,,,,,3,,,64,0
187080,note_on,1,0,1,,,,,,,,0,,,79,74
187199,note_on,119,0,1,,,,,,,,0,,,79,0
187200,note_on,0,0,4,,,,,,,,3,,,64,57
187200,note_on,121,0,4,,,,,,,,3,,,71,57
187200,note_on,0,0,1,,,,,,,,0,,,76,76
187200,note_on,1,0,1,,,,,,,,0,,,74,76
187290,control_change,90,0,4,,,,,,,,3,64,0,,
187319,note_on,0,0,4,,,,,,,,3,,,71,0
187319,note_on,0,0,1,,,,,,,,0,,,74,0
187319,note_on,119,0,1,,,,,,,,0,,,76,0
187319,note_on,29,0,4,,,,,,,,3,,,64,0
187320,note_on,1,0,1,,,,,,,,0,,,83,78
187439,note_on,119,0,1,,,,,,,,0,,,83,0
187440,note_on,121,0,4,,,,,,,,3,,,76,64
187440,note_on,0,0,2,,,,,,,,1,,,64,90
187440,note_on,0,0,1,,,,,,,,0,,,83,80
187440,note_on,1,0,1,,,,,,,,0,,,74,80
187440,note_on,510,0,2,,,,,,,,1,,,76,90
187440,note_on,0,0,4,,,,,,,,3,,,64,64
187559,note_on,0,0,1,,,,,,,,0,,,74,0
187559,note_on,119,0,1,,,,,,,,0,,,83,0
187559,note_on,0,0,4,,,,,,,,3,,,76,0
187559,note_on,119,0,4,,,,,,,,3,,,64,0
187560,note_on,1,0,1,,,,,,,,0,,,88,82
187679,note_on,119,0,1,,,,,,,,0,,,88,0
187680,note_on,0,0,4,,,,,,,,3,,,68,71
187680,note_on,121,0,4,,,,,,,,3,,,71,71
187680,note_on,1,0,1,,,,,,,,0,,,88,85
187680,note_on,0,0,1,,,,,,,,0,,,86,85
187799,note_on,0,0,4,,,,,,,,3,,,71,0
187799,note_on,119,0,4,,,,,,,,3,,,68,0
187799,note_on,119,0,1,,,,,,,,0,,,86,0
187799,note_on,0,0,1,,,,,,,,0,,,88,0
187800,note_on,1,0,1,,,,,,,,0,,,95,87
187890,control_change,450,0,2,,,,,,,,1,64,0,,
187919,note_on,119,0,1,,,,,,,,0,,,95,0
187919,note_on,29,0,2,,,,,,,,1,,,64,0
187919,note_on,0,0,2,,,,,,,,1,,,76,0
187920,note_on,0,0,2,,,,,,,,1,,,65,90
187920,note_on,1,0,1,,,,,,,,0,,,86,89
187920,note_on,0,0,1,,,,,,,,0,,,95,89
187920,note_on,1,0,2,,,,,,,,1,,,77,90
187920,note_on,121,0,4,,,,,,,,3,,,77,77
187920,note_on,0,0,4,,,,,,,,3,,,65,77
188025,control_change,105,0,1,,,,,,,,0,64,0,,
188028,note_on,108,0,4,,,,,,,,3,,,65,0
188028,note_on,0,0,4,,,,,,,,3,,,77,0
188039,note_on,0,0,1,,,,,,,,0,,,86,0
188039,note_on,14,0,1,,,,,,,,0,,,95,0
188040,note_on,1,0,1,,,,,,,,0,,,100,91
188136,note_on,0,0,2,,,,,,,,1,,,77,0
188136,note_on,216,0,2,,,,,,,,1,,,65,0
188148,note_on,108,0,1,,,,,,,,0,,,100,0
188160,note_on,132,0,4,,,,,,,,3,,,45,93
188160,control_change,12,0,1,,,,,,,,0,64,127,,
188160,note_on,24,0,2,,,,,,,,1,,,76,90
188160,note_on,0,0,2,,,,,,,,1,,,64,90
188211,control_change,51,0,4,,,,,,,,3,64,127,,
188255,note_on,44,0,4,,,,,,,,3,,,45,0
188400,note_on,0,0,1,,,,,,,,0,,,69,41
188400,note_on,0,0,4,,,,,,,,3,,,52,36
188400,note_on,240,0,1,,,,,,,,0,,,64,41
188400,note_on,145,0,4,,,,,,,,3,,,60,36
188519,note_on,119,0,1,,,,,,,,0,,,69,0
188519,note_on,119,0,4,,,,,,,,3,,,52,0
188519,note_on,0,0,4,,,,,,,,3,,,60,0
188519,note_on,0,0,1,,,,,,,,0,,,64,0
188520,note_on,1,0,1,,,,,,,,0,,,72,42
188639,note_on,119,0,1,,,,,,,,0,,,72,0
188640,note_on,121,0,4,,,,,,,,3,,,64,38
188640,note_on,1,0,1,,,,,,,,0,,,72,44
188640,note_on,0,0,4,,,,,,,,3,,,57,38
188640,note_on,0,0,1,,,,,,,,0,,,69,44
188759,note_on,119,0,1,,,,,,,,0,,,69,0
188759,note_on,0,0,1,,,,,,,,0,,,72,0
188759,note_on,0,0,4,,,,,,,,3,,,64,0
188759,note_on,119,0,4,,,,,,,,3,,,57,0
188760,note_on,1,0,1,,,,,,,,0,,,76,45
188879,note_on,119,0,1,,,,,,,,0,,,76,0
188880,note_on,0,0,1,,,,,,,,0,,,76,46
188880,note_on,0,0,4,,,,,,,,3,,,60,41
188880,note_on,1,0,1,,,,,,,,0,,,72,46
188880,note_on,121,0,4,,,,,,,,3,,,69,41
188999,note_on,0,0,4,,,,,,,,3,,,69,0
188999,note_on,119,0,4,,,,,,,,3,,,60,0
188999,note_on,0,0,1,,,,,,,,0,,,72,0
188999,note_on,119,0,1,,,,,,,,0,,,76,0
189000,note_on,1,0,1,,,,,,,,0,,,81,47
189024,note_on,0,0,2,,,,,,,,1,,,76,0
189024,note_on,864,0,2,,,,,,,,1,,,64,0
189119,note_on,119,0,1,,,,,,,,0,,,81,0
189120,note_on,121,0,4,,,,,,,,3,,,72,43
189120,note_on,0,0,4,,,,,,,,3,,,64,43
189120,note_on,0,0,1,,,,,,,,0,,,76,48
189120,note_on,1,0,1,,,,,,,,0,,,81,48
189171,control_change,51,0,4,,,,,,,,3,64,0,,
189239,note_on,0,0,1,,,,,,,,0,,,81,0
189239,note_on,119,0,1,,,,,,,,0,,,76,0
189239,note_on,0,0,4,,,,,,,,3,,,72,0
189239,note_on,68,0,4,,,,,,,,3,,,64,0
189240,note_on,1,0,1,,,,,,,,0,,,84,49
189359,note_on,119,0,1,,,,,,,,0,,,84,0
189360,note_on,0,0,4,,,,,,,,3,,,69,46
189360,note_on,121,0,4,,,,,,,,3,,,76,46
189360,note_on,1,0,1,,,,,,,,0,,,81,51
189360,note_on,0,0,1,,,,,,,,0,,,84,51
189479,note_on,0,0,4,,,,,,,,3,,,76,0
189479,note_on,119,0,4,,,,,,,,3,,,69,0
189479,note_on,119,0,1,,,,,,,,0,,,84,0
189479,note_on,0,0,1,,,,,,,,0,,,81,0
189480,note_on,1,0,1,,,,,,,,0,,,88,52
189539,set_tempo,2814,1,0,,,,,,580495,,,,,,
189549,control_change,3441,0,3,,,,,,,,2,64,127,,
189599,note_on,119,0,1,,,,,,,,0,,,88,0
189600,note_on,0,0,3,,,,,,,,2,,,62,90
189600,note_on,1,0,1,,,,,,,,0,,,88,53
189600,note_on,0,0,1,,,,,,,,0,,,81,53
189600,note_on,51,0,3,,,,,,,,2,,,74,90
189600,note_on,0,0,4,,,,,,,,3,,,62,49
189600,note_on,121,0,4,,,,,,,,3,,,74,49
189719,note_on,0,0,4,,,,,,,,3,,,74,0
189719,note_on,119,0,4,,,,,,,,3,,,62,0
189719,note_on,0,0,1,,,,,,,,0,,,88,0
189719,note_on,119,0,1,,,,,,,,0,,,81,0
189720,note_on,1,0,1,,,,,,,,0,,,93,54
189839,note_on,119,0,1,,,,,,,,0,,,93,0
189839,note_on,0,0,3,,,,,,,,2,,,74,0
189839,note_on,239,0,3,,,,,,,,2,,,62,0
189840,note_on,121,0,4,,,,,,,,3,,,72,51
189840,note_on,0,0,4,,,,,,,,3,,,60,51
189840,note_on,0,0,3,,,,,,,,2,,,60,87
189840,note_on,1,0,3,,,,,,,,2,,,72,87
189840,note_on,1,0,1,,,,,,,,0,,,93,55
189840,note_on,0,0,1,,,,,,,,0,,,88,55
189943,control_change,103,0,1,,,,,,,,0,64,0,,
189948,note_on,108,0,4,,,,,,,,3,,,60,0
189948,note_on,0,0,4,,,,,,,,3,,,72,0
189959,note_on,16,0,1,,,,,,,,0,,,88,0
189959,note_on,0,0,1,,,,,,,,0,,,93,0
189960,note_on,1,0,1,,,,,,,,0,,,100,56
190056,note_on,0,0,3,,,,,,,,2,,,72,0
190056,note_on,216,0,3,,,,,,,,2,,,60,0
190068,note_on,108,0,1,,,,,,,,0,,,100,0
190080,control_change,132,0,4,,,,,,,,3,64,127,,
190080,note_on,0,0,4,,,,,,,,3,,,50,54
190080,note_on,24,0,3,,,,,,,,2,,,71,83
190080,note_on,0,0,4,,,,,,,,3,,,38,54
190080,note_on,0,0,3,,,,,,,,2,,,59,83
190160,control_change,92,0,1,,,,,,,,0,64,127,,
190175,note_on,0,0,4,,,,,,,,3,,,50,0
190175,note_on,95,0,4,,,,,,,,3,,,38,0
190320,note_on,0,0,1,,,,,,,,0,,,95,60
190320,note_on,160,0,1,,,,,,,,0,,,91,60
190320,note_on,0,0,4,,,,,,,,3,,,50,56
190320,note_on,0,0,4,,,,,,,,3,,,55,56
190320,note_on,145,0,4,,,,,,,,3,,,59,56
190320,note_on,0,0,1,,,,,,,,0,,,86,60
190439,note_on,119,0,1,,,,,,,,0,,,95,0
190439,note_on,0,0,1,,,,,,,,0,,,86,0
190439,note_on,0,0,1,,,,,,,,0,,,91,0
190439,note_on,0,0,4,,,,,,,,3,,,59,0
190439,note_on,0,0,4,,,,,,,,3,,,55,0
190439,note_on,119,0,4,,,,,,,,3,,,50,0
190440,note_on,1,0,1,,,,,,,,0,,,83,61
190509,control_change,429,0,3,,,,,,,,2,64,0,,
190559,note_on,50,0,3,,,,,,,,2,,,59,0
190559,note_on,0,0,3,,,,,,,,2,,,71,0
190559,note_on,119,0,1,,,,,,,,0,,,83,0
190560,note_on,0,0,4,,,,,,,,3,,,55,59
190560,note_on,121,0,4,,,,,,,,3,,,62,59
190560,note_on,0,0,4,,,,,,,,3,,,59,59
190560,note_on,1,0,1,,,,,,,,0,,,91,63
190560,note_on,0,0,1,,,,,,,,0,,,83,63
190560,note_on,0,0,1,,,,,,,,0,,,86,63
190679,note_on,119,0,1,,,,,,,,0,,,86,0
190679,note_on,0,0,4,,,,,,,,3,,,62,0
190679,note_on,0,0,4,,,,,,,,3,,,59,0
190679,note_on,0,0,1,,,,,,,,0,,,83,0
190679,note_on,0,0,1,,,,,,,,0,,,91,0
190679,note_on,119,0,4,,,,,,,,3,,,55,0
190680,note_on,1,0,1,,,,,,,,0,,,79,64
190787,control_change,228,0,3,,,,,,,,2,64,127,,
190799,note_on,119,0,1,,,,,,,,0,,,79,0
190800,note_on,1,0,1,,,,,,,,0,,,79,65
190800,note_on,0,0,1,,,,,,,,0,,,88,65
190800,note_on,0,0,1,,,,,,,,0,,,83,65
190800,note_on,13,0,3,,,,,,,,2,,,71,75
190800,note_on,0,0,4,,,,,,,,3,,,59,61
190800,note_on,121,0,4,,,,,,,,3,,,71,61
190800,note_on,0,0,3,,,,,,,,2,,,59,75
190919,note_on,0,0,1,,,,,,,,0,,,88,0
190919,note_on,0,0,4,,,,,,,,3,,,71,0
190919,note_on,119,0,4,,,,,,,,3,,,59,0
190919,note_on,119,0,1,,,,,,,,0,,,83,0
190919,note_on,0,0,1,,,,,,,,0,,,79,0
190920,note_on,1,0,1,,,,,,,,0,,,76,66
190960,control_change,40,0,1,,,,,,,,0,64,0,,
191027,control_change,67,0,1,,,,,,,,0,64,127,,
191039,note_on,239,0,3,,,,,,,,2,,,59,0
191039,note_on,0,0,3,,,,,,,,2,,,71,0
191039,note_on,12,0,1,,,,,,,,0,,,76,0
191040,note_on,0,0,4,,,,,,,,3,,,74,64
191040,note_on,1,0,3,,,,,,,,2,,,74,76
191040,control_change,121,0,4,,,,,,,,3,64,0,,
191040,note_on,0,0,4,,,,,,,,3,,,62,64
191040,note_on,0,0,3,,,,,,,,2,,,62,76
191040,note_on,1,0,1,,,,,,,,0,,,86,67
191040,note_on,0,0,1,,,,,,,,0,,,79,67
191040,note_on,0,0,1,,,,,,,,0,,,81,67
191159,note_on,0,0,4,,,,,,,,3,,,74,0
191159,note_on,0,0,1,,,,,,,,0,,,81,0
191159,note_on,0,0,1,,,,,,,,0,,,86,0
191159,note_on,119,0,4,,,,,,,,3,,,62,0
191159,note_on,119,0,1,,,,,,,,0,,,79,0
191160,control_change,1,0,4,,,,,,,,3,64,127,,
191160,note_on,1,0,1,,,,,,,,0,,,74,68
191279,note_on,119,0,1,,,,,,,,0,,,74,0
191280,note_on,1,0,1,,,,,,,,0,,,67,70
191280,note_on,120,0,4,,,,,,,,3,,,50,66
191280,note_on,0,0,1,,,,,,,,0,,,69,70
191327,note_on,47,0,4,,,,,,,,3,,,50,0
191399,note_on,0,0,1,,,,,,,,0,,,67,0
191399,note_on,119,0,1,,,,,,,,0,,,69,0
191400,note_on,1,0,1,,,,,,,,0,,,74,71
191519,note_on,0,0,3,,,,,,,,2,,,74,0
191519,note_on,119,0,1,,,,,,,,0,,,74,0
191519,note_on,479,0,3,,,,,,,,2,,,62,0
191520,note_on,0,0,1,,,,,,,,0,,,81,72
191520,note_on,0,0,3,,,,,,,,2,,,62,78
191520,note_on,1,0,3,,,,,,,,2,,,74,78
191520,note_on,193,0,4,,,,,,,,3,,,74,69
191520,note_on,1,0,1,,,,,,,,0,,,86,72
191520,note_on,0,0,1,,,,,,,,0,,,78,72
191520,note_on,0,0,4,,,,,,,,3,,,62,69
191520,note_on,0,0,4,,,,,,,,3,,,60,69
191639,note_on,119,0,1,,,,,,,,0,,,81,0
191639,note_on,0,0,4,,,,,,,,3,,,74,0
191639,note_on,119,0,4,,,,,,,,3,,,60,0
191639,note_on,0,0,4,,,,,,,,3,,,62,0
191639,note_on,0,0,1,,,,,,,,0,,,86,0
191639,note_on,0,0,1,,,,,,,,0,,,78,0
191640,note_on,1,0,1,,,,,,,,0,,,74,73
191747,control_change,227,0,3,,,,,,,,2,64,0,,
191759,note_on,119,0,1,,,,,,,,0,,,74,0
191760,note_on,121,0,4,,,,,,,,3,,,50,71
191760,note_on,1,0,1,,,,,,,,0,,,69,74
191760,note_on,0,0,1,,,,,,,,0,,,66,74
191803,note_on,43,0,4,,,,,,,,3,,,50,0
191879,note_on,0,0,1,,,,,,,,0,,,69,0
191879,note_on,119,0,1,,,,,,,,0,,,66,0
191880,note_on,1,0,1,,,,,,,,0,,,74,75
191939,set_tempo,2400,1,0,,,,,,562219,,,,,,
191952,note_on,0,0,3,,,,,,,,2,,,74,0
191952,note_on,205,0,3,,,,,,,,2,,,62,0
191987,control_change,107,0,1,,,,,,,,0,64,0,,
191988,note_on,1,0,1,,,,,,,,0,,,74,0
192000,note_on,0,0,4,,,,,,,,3,,,52,74
192000,note_on,0,0,4,,,,,,,,3,,,59,74
192000,note_on,197,0,4,,,,,,,,3,,,67,74
192000,note_on,0,0,1,,,,,,,,0,,,71,77
192000,note_on,0,0,3,,,,,,,,2,,,79,95
192000,control_change,48,0,3,,,,,,,,2,64,127,,
192000,note_on,12,0,1,,,,,,,,0,,,79,77
192000,note_on,0,0,1,,,,,,,,0,,,83,77
192000,note_on,0,0,3,,,,,,,,2,,,64,95
192095,note_on,95,0,4,,,,,,,,3,,,52,0
192095,note_on,0,0,4,,,,,,,,3,,,59,0
192095,note_on,0,0,4,,,,,,,,3,,,67,0
192120,control_change,25,0,4,,,,,,,,3,64,0,,
192147,control_change,147,0,1,,,,,,,,0,64,127,,
192213,control_change,93,0,4,,,,,,,,3,64,127,,
192216,note_on,0,0,3,,,,,,,,2,,,79,0
192216,note_on,216,0,3,,,,,,,,2,,,64,0
192239,note_on,92,0,1,,,,,,,,0,,,71,0
192239,note_on,0,0,1,,,,,,,,0,,,83,0
192239,note_on,0,0,1,,,,,,,,0,,,79,0
192240,note_on,0,0,1,,,,,,,,0,,,84,93
192240,note_on,1,0,1,,,,,,,,0,,,93,93
192240,note_on,0,0,4,,,,,,,,3,,,40,76
192240,note_on,27,0,4,,,,,,,,3,,,52,76
192287,note_on,0,0,4,,,,,,,,3,,,52,0
192287,note_on,47,0,4,,,,,,,,3,,,40,0
192359,note_on,0,0,1,,,,,,,,0,,,93,0
192359,note_on,119,0,1,,,,,,,,0,,,84,0
192360,note_on,0,0,1,,,,,,,,0,,,91,91
192360,note_on,1,0,1,,,,,,,,0,,,83,91
192479,note_on,119,0,1,,,,,,,,0,,,91,0
192479,note_on,0,0,1,,,,,,,,0,,,83,0
192480,note_on,0,0,1,,,,,,,,0,,,81,89
192480,note_on,1,0,1,,,,,,,,0,,,90,89
192480,note_on,193,0,4,,,,,,,,3,,,59,79
192480,note_on,0,0,4,,,,,,,,3,,,47,79
192527,note_on,47,0,4,,,,,,,,3,,,47,0
192527,note_on,0,0,4,,,,,,,,3,,,59,0
192599,note_on,119,0,1,,,,,,,,0,,,81,0
192599,note_on,0,0,1,,,,,,,,0,,,90,0
192600,note_on,1,0,1,,,,,,,,0,,,79,86
192600,note_on,0,0,1,,,,,,,,0,,,88,86
192719,note_on,0,0,1,,,,,,,,0,,,79,0
192719,note_on,119,0,1,,,,,,,,0,,,88,0
192720,note_on,0,0,1,,,,,,,,0,,,78,84
192720,note_on,1,0,1,,,,,,,,0,,,86,84
192720,note_on,193,0,4,,,,,,,,3,,,64,82
192720,note_on,0,0,4,,,,,,,,3,,,52,82
192767,note_on,0,0,4,,,,,,,,3,,,64,0
192767,note_on,47,0,4,,,,,,,,3,,,52,0
192839,note_on,0,0,1,,,,,,,,0,,,86,0
192839,note_on,119,0,1,,,,,,,,0,,,78,0
192840,note_on,1,0,1,,,,,,,,0,,,84,82
192840,note_on,0,0,1,,,,,,,,0,,,76,82
192959,note_on,119,0,1,,,,,,,,0,,,76,0
192959,note_on,0,0,1,,,,,,,,0,,,84,0
192960,note_on,1,0,1,,,,,,,,0,,,74,80
192960,note_on,0,0,1,,,,,,,,0,,,83,80
192960,note_on,0,0,4,,,,,,,,3,,,55,84
192960,control_change,744,0,3,,,,,,,,2,64,0,,
192960,note_on,193,0,4,,,,,,,,3,,,67,84
193007,note_on,0,0,4,,,,,,,,3,,,67,0
193007,note_on,47,0,4,,,,,,,,3,,,55,0
193079,note_on,0,0,1,,,,,,,,0,,,74,0
193079,note_on,119,0,1,,,,,,,,0,,,83,0
193080,note_on,0,0,1,,,,,,,,0,,,71,77
193080,note_on,1,0,1,,,,,,,,0,,,79,77
193173,control_change,166,0,4,,,,,,,,3,64,0,,
193199,note_on,119,0,1,,,,,,,,0,,,71,0
193199,note_on,0,0,1,,,,,,,,0,,,79,0
193200,note_on,1,0,1,,,,,,,,0,,,72,75
193200,note_on,0,0,1,,,,,,,,0,,,81,75
193200,note_on,27,0,4,,,,,,,,3,,,64,87
193200,note_on,0,0,4,,,,,,,,3,,,52,87
193247,note_on,0,0,4,,,,,,,,3,,,64,0
193247,note_on,47,0,4,,,,,,,,3,,,52,0
193319,note_on,119,0,1,,,,,,,,0,,,81,0
193319,note_on,0,0,1,,,,,,,,0,,,72,0
193320,note_on,1,0,1,,,,,,,,0,,,79,73
193320,note_on,0,0,1,,,,,,,,0,,,71,73
193439,note_on,0,0,1,,,,,,,,0,,,79,0
193439,note_on,119,0,1,,,,,,,,0,,,71,0
193440,note_on,0,0,4,,,,,,,,3,,,47,89
193440,note_on,0,0,1,,,,,,,,0,,,69,71
193440,note_on,1,0,1,,,,,,,,0,,,78,71
193440,note_on,193,0,4,,,,,,,,3,,,59,89
193487,note_on,47,0,4,,,,,,,,3,,,47,0
193487,note_on,0,0,4,,,,,,,,3,,,59,0
193559,note_on,0,0,1,,,,,,,,0,,,78,0
193559,note_on,119,0,1,,,,,,,,0,,,69,0
193560,note_on,0,0,1,,,,,,,,0,,,76,68
193560,note_on,1,0,1,,,,,,,,0,,,67,68
193679,note_on,119,0,1,,,,,,,,0,,,76,0
193679,note_on,0,0,1,,,,,,,,0,,,67,0
193680,note_on,0,0,4,,,,,,,,3,,,43,92
193680,note_on,0,0,1,,,,,,,,0,,,66,66
193680,note_on,1,0,1,,,,,,,,0,,,74,66
193680,note_on,193,0,4,,,,,,,,3,,,55,92
193723,note_on,43,0,4,,,,,,,,3,,,43,0
193723,note_on,0,0,4,,,,,,,,3,,,55,0
193799,note_on,0,0,1,,,,,,,,0,,,74,0
193799,note_on,119,0,1,,,,,,,,0,,,66,0
193800,note_on,0,0,1,,,,,,,,0,,,72,64
193800,note_on,1,0,1,,,,,,,,0,,,64,64
193827,control_change,27,0,1,,,,,,,,0,64,0,,
193904,set_tempo,1965,1,0,,,,,,567322,,,,,,
193908,note_on,81,0,1,,,,,,,,0,,,72,0
193908,note_on,0,0,1,,,,,,,,0,,,64,0
193920,note_on,0,0,1,,,,,,,,0,,,71,62
193920,note_on,0,0,4,,,,,,,,3,,,38,95
193920,note_on,197,0,4,,,,,,,,3,,,50,95
193920,control_change,12,0,1,,,,,,,,0,64,127,,
193920,note_on,0,0,1,,,,,,,,0,,,67,62
193970,set_tempo,66,1,0,,,,,,569909,,,,,,
194015,note_on,0,0,1,,,,,,,,0,,,67,0
194015,note_on,0,0,4,,,,,,,,3,,,50,0
194015,note_on,95,0,4,,,,,,,,3,,,38,0
194015,note_on,95,0,1,,,,,,,,0,,,71,0
194020,set_tempo,50,1,0,,,,,,572519,,,,,,
194086,set_tempo,66,1,0,,,,,,575153,,,,,,
194133,control_change,118,0,4,,,,,,,,3,64,127,,
194136,set_tempo,50,1,0,,,,,,577812,,,,,,
194160,note_on,0,0,1,,,,,,,,0,,,71,74
194160,note_on,0,0,1,,,,,,,,0,,,67,74
194160,note_on,145,0,1,,,,,,,,0,,,79,74
194160,note_on,27,0,4,,,,,,,,3,,,64,96
194202,set_tempo,66,1,0,,,,,,580495,,,,,,
194252,set_tempo,50,1,0,,,,,,583204,,,,,,
194279,note_on,119,0,4,,,,,,,,3,,,64,0
194280,note_on,1,0,4,,,,,,,,3,,,62,92
194318,set_tempo,66,1,0,,,,,,585938,,,,,,
194368,set_tempo,50,1,0,,,,,,588697,,,,,,
194399,note_on,119,0,4,,,,,,,,3,,,62,0
194400,note_on,1,0,4,,,,,,,,3,,,59,88
194417,set_tempo,49,1,0,,,,,,591483,,,,,,
194484,set_tempo,67,1,0,,,,,,594295,,,,,,
194519,note_on,119,0,4,,,,,,,,3,,,59,0
194520,note_on,1,0,4,,,,,,,,3,,,55,85
194533,set_tempo,49,1,0,,,,,,597134,,,,,,
194599,set_tempo,66,1,0,,,,,,600000,,,,,,
194639,note_on,119,0,4,,,,,,,,3,,,55,0
194639,note_on,0,0,1,,,,,,,,0,,,79,0
194639,note_on,0,0,1,,,,,,,,0,,,67,0
194639,note_on,479,0,1,,,,,,,,0,,,71,0
194640,note_on,1,0,4,,,,,,,,3,,,52,81
194640,note_on,1,0,1,,,,,,,,0,,,62,76
194640,note_on,0,0,1,,,,,,,,0,,,67,76
194640,note_on,0,0,1,,,,,,,,0,,,71,76
194649,set_tempo,50,1,0,,,,,,602894,,,,,,
194715,set_tempo,66,1,0,,,,,,605816,,,,,,
194759,note_on,119,0,4,,,,,,,,3,,,52,0
194760,note_on,1,0,4,,,,,,,,3,,,50,78
194765,set_tempo,50,1,0,,,,,,608766,,,,,,
194787,control_change,5763,0,2,,,,,,,,1,64,127,,
194815,set_tempo,50,1,0,,,,,,611746,,,,,,
194879,note_on,119,0,4,,,,,,,,3,,,50,0
194879,note_on,0,0,1,,,,,,,,0,,,67,0
194879,note_on,239,0,1,,,,,,,,0,,,71,0
194879,note_on,0,0,1,,,,,,,,0,,,62,0
194880,note_on,0,0,1,,,,,,,,0,,,76,76
194880,note_on,93,0,2,,,,,,,,1,,,70,93
194880,note_on,1,0,4,,,,,,,,3,,,49,74
194880,control_change,1,0,1,,,,,,,,0,64,0,,
194881,set_tempo,66,1,0,,,,,,614754,,,,,,
194930,set_tempo,49,1,0,,,,,,617792,,,,,,
194997,set_tempo,67,1,0,,,,,,620861,,,,,,
194999,note_on,119,0,2,,,,,,,,1,,,70,0
195000,note_on,1,0,2,,,,,,,,1,,,67,90
195046,set_tempo,49,1,0,,,,,,623960,,,,,,
195093,control_change,213,0,4,,,,,,,,3,64,0,,
195112,set_tempo,66,1,0,,,,,,627090,,,,,,
195119,note_on,26,0,4,,,,,,,,3,,,49,0
195119,note_on,119,0,2,,,,,,,,1,,,67,0
195120,note_on,1,0,4,,,,,,,,3,,,38,61
195120,note_on,1,0,2,,,,,,,,1,,,64,87
195162,set_tempo,50,1,0,,,,,,630252,,,,,,
195228,set_tempo,66,1,0,,,,,,633446,,,,,,
195239,note_on,119,0,2,,,,,,,,1,,,64,0
195240,note_on,1,0,2,,,,,,,,1,,,58,84
195278,set_tempo,50,1,0,,,,,,636672,,,,,,
195328,set_tempo,50,1,0,,,,,,639932,,,,,,
195359,note_on,119,0,2,,,,,,,,1,,,58,0
195359,note_on,479,0,1,,,,,,,,0,,,76,0
195359,note_on,239,0,4,,,,,,,,3,,,38,0
195360,note_on,1,0,2,,,,,,,,1,,,57,81
195360,note_on,1,0,1,,,,,,,,0,,,63,64
195360,note_on,1,0,4,,,,,,,,3,,,48,61
195394,set_tempo,66,1,0,,,,,,643225,,,,,,
195444,set_tempo,50,1,0,,,,,,646552,,,,,,
195479,note_on,119,0,2,,,,,,,,1,,,57,0
195480,note_on,1,0,2,,,,,,,,1,,,55,78
195510,set_tempo,66,1,0,,,,,,649913,,,,,,
195559,set_tempo,49,1,0,,,,,,653310,,,,,,
195599,note_on,119,0,2,,,,,,,,1,,,55,0
195599,note_on,239,0,4,,,,,,,,3,,,48,0
195600,note_on,1,0,4,,,,,,,,3,,,38,60
195600,note_on,1,0,2,,,,,,,,1,,,51,75
195626,set_tempo,67,1,0,,,,,,656743,,,,,,
195675,set_tempo,49,1,0,,,,,,660211,,,,,,
195719,note_on,119,0,2,,,,,,,,1,,,51,0
195720,note_on,1,0,2,,,,,,,,1,,,57,72
195725,set_tempo,50,1,0,,,,,,663717,,,,,,
195747,control_change,27,0,2,,,,,,,,1,64,0,,
195792,note_on,432,0,1,,,,,,,,0,,,63,0
195816,note_on,216,0,4,,,,,,,,3,,,38,0
195828,note_on,81,0,2,,,,,,,,1,,,57,0
195840,control_change,48,0,1,,,,,,,,0,64,127,,
195840,note_on,0,0,1,,,,,,,,0,,,63,64
195840,control_change,24,0,4,,,,,,,,3,64,127,,
195840,note_on,0,0,1,,,,,,,,0,,,60,64
195840,note_on,0,0,4,,,,,,,,3,,,55,66
195841,set_tempo,116,1,0,,,,,,630252,,,,,,
195959,note_on,119,0,4,,,,,,,,3,,,55,0
195959,note_on,0,0,1,,,,,,,,0,,,60,0
195959,note_on,119,0,1,,,,,,,,0,,,63,0
195960,note_on,1,0,4,,,,,,,,3,,,54,70
195960,note_on,0,0,1,,,,,,,,0,,,62,65
195960,note_on,1,0,1,,,,,,,,0,,,57,65
196079,note_on,119,0,4,,,,,,,,3,,,54,0
196079,note_on,0,0,1,,,,,,,,0,,,57,0
196079,note_on,119,0,1,,,,,,,,0,,,62,0
196080,note_on,1,0,4,,,,,,,,3,,,51,73
196080,note_on,0,0,1,,,,,,,,0,,,60,69
196080,note_on,1,0,1,,,,,,,,0,,,67,69
196199,note_on,119,0,4,,,,,,,,3,,,51,0
196199,note_on,0,0,1,,,,,,,,0,,,67,0
196199,note_on,119,0,1,,,,,,,,0,,,60,0
196200,note_on,1,0,4,,,,,,,,3,,,50,76
196200,note_on,0,0,1,,,,,,,,0,,,66,73
196200,note_on,1,0,1,,,,,,,,0,,,57,73
196319,note_on,119,0,4,,,,,,,,3,,,50,0
196319,note_on,0,0,1,,,,,,,,0,,,57,0
196319,note_on,119,0,1,,,,,,,,0,,,66,0
196320,note_on,1,0,1,,,,,,,,0,,,71,78
196320,note_on,0,0,1,,,,,,,,0,,,63,78
196320,note_on,1,0,4,,,,,,,,3,,,43,81
196439,note_on,119,0,4,,,,,,,,3,,,43,0
196439,note_on,119,0,1,,,,,,,,0,,,63,0
196439,note_on,0,0,1,,,,,,,,0,,,71,0
196440,note_on,1,0,4,,,,,,,,3,,,42,84
196440,note_on,1,0,1,,,,,,,,0,,,60,81
196440,note_on,0,0,1,,,,,,,,0,,,69,81
196559,note_on,119,0,4,,,,,,,,3,,,42,0
196559,note_on,0,0,1,,,,,,,,0,,,60,0
196559,note_on,119,0,1,,,,,,,,0,,,69,0
196560,note_on,1,0,1,,,,,,,,0,,,67,85
196560,note_on,1,0,4,,,,,,,,3,,,39,87
196560,note_on,0,0,1,,,,,,,,0,,,72,85
196679,note_on,119,0,1,,,,,,,,0,,,72,0
196679,note_on,119,0,4,,,,,,,,3,,,39,0
196679,note_on,0,0,1,,,,,,,,0,,,67,0
196680,note_on,0,0,1,,,,,,,,0,,,66,89
196680,note_on,1,0,1,,,,,,,,0,,,69,89
196680,note_on,1,0,4,,,,,,,,3,,,38,91
196799,note_on,119,0,4,,,,,,,,3,,,38,0
196799,note_on,0,0,1,,,,,,,,0,,,69,0
196799,note_on,119,0,1,,,,,,,,0,,,66,0
196800,note_on,0,0,1,,,,,,,,0,,,75,66
196800,control_change,1,0,1,,,,,,,,0,64,0,,
196800,note_on,0,0,4,,,,,,,,3,,,67,69
196800,control_change,1,0,4,,,,,,,,3,64,0,,
196800,note_on,0,0,1,,,,,,,,0,,,72,66
196853,control_change,53,0,1,,,,,,,,0,64,127,,
196867,control_change,67,0,4,,,,,,,,3,64,127,,
196919,note_on,66,0,1,,,,,,,,0,,,72,0
196919,note_on,0,0,1,,,,,,,,0,,,75,0
196919,note_on,52,0,4,,,,,,,,3,,,67,0
196920,note_on,1,0,4,,,,,,,,3,,,66,72
196920,note_on,1,0,1,,,,,,,,0,,,69,70
196920,note_on,0,0,1,,,,,,,,0,,,74,70
197039,note_on,0,0,1,,,,,,,,0,,,69,0
197039,note_on,119,0,1,,,,,,,,0,,,74,0
197039,note_on,119,0,4,,,,,,,,3,,,66,0
197040,note_on,1,0,4,,,,,,,,3,,,63,75
197040,note_on,0,0,1,,,,,,,,0,,,74,73
197040,note_on,1,0,1,,,,,,,,0,,,79,73
197159,note_on,119,0,4,,,,,,,,3,,,63,0
197159,note_on,0,0,1,,,,,,,,0,,,79,0
197159,note_on,119,0,1,,,,,,,,0,,,74,0
197160,note_on,1,0,4,,,,,,,,3,,,62,78
197160,note_on,0,0,1,,,,,,,,0,,,69,77
197160,note_on,1,0,1,,,,,,,,0,,,78,77
197279,note_on,119,0,1,,,,,,,,0,,,69,0
197279,note_on,0,0,1,,,,,,,,0,,,78,0
197279,note_on,119,0,4,,,,,,,,3,,,62,0
197280,note_on,0,0,1,,,,,,,,0,,,83,81
197280,note_on,1,0,1,,,,,,,,0,,,76,81
197280,note_on,1,0,4,,,,,,,,3,,,55,82
197281,set_tempo,1440,1,0,,,,,,620861,,,,,,
197330,set_tempo,49,1,0,,,,,,617792,,,,,,
197364,set_tempo,34,1,0,,,,,,614754,,,,,,
197397,set_tempo,33,1,0,,,,,,611746,,,,,,
197399,note_on,119,0,4,,,,,,,,3,,,55,0
197399,note_on,119,0,1,,,,,,,,0,,,83,0
197399,note_on,0,0,1,,,,,,,,0,,,76,0
197400,note_on,1,0,4,,,,,,,,3,,,54,85
197400,note_on,1,0,1,,,,,,,,0,,,81,85
197400,note_on,0,0,1,,,,,,,,0,,,72,85
197430,set_tempo,33,1,0,,,,,,608766,,,,,,
197479,set_tempo,49,1,0,,,,,,605816,,,,,,
197512,set_tempo,33,1,0,,,,,,602894,,,,,,
197519,note_on,0,0,1,,,,,,,,0,,,81,0
197519,note_on,119,0,1,,,,,,,,0,,,72,0
197519,note_on,119,0,4,,,,,,,,3,,,54,0
197520,note_on,0,0,1,,,,,,,,0,,,84,88
197520,note_on,1,0,1,,,,,,,,0,,,79,88
197520,note_on,1,0,4,,,,,,,,3,,,51,88
197546,set_tempo,34,1,0,,,,,,600000,,,,,,
197579,set_tempo,33,1,0,,,,,,597134,,,,,,
197628,set_tempo,49,1,0,,,,,,594295,,,,,,
197639,note_on,119,0,4,,,,,,,,3,,,51,0
197639,note_on,119,0,1,,,,,,,,0,,,84,0
197639,note_on,0,0,1,,,,,,,,0,,,79,0
197640,note_on,0,0,1,,,,,,,,0,,,78,92
197640,note_on,1,0,4,,,,,,,,3,,,50,91
197640,note_on,1,0,1,,,,,,,,0,,,81,92
197661,set_tempo,33,1,0,,,,,,591483,,,,,,
197695,set_tempo,34,1,0,,,,,,588697,,,,,,
197728,set_tempo,33,1,0,,,,,,585938,,,,,,
197748,note_on,0,0,1,,,,,,,,0,,,81,0
197748,note_on,108,0,1,,,,,,,,0,,,78,0
197748,note_on,108,0,4,,,,,,,,3,,,50,0
197760,control_change,1932,0,2,,,,,,,,1,64,127,,
197760,note_on,0,0,2,,,,,,,,1,,,79,69
197760,note_on,0,0,1,,,,,,,,0,,,84,67
197760,note_on,12,0,1,,,,,,,,0,,,87,67
197777,set_tempo,49,1,0,,,,,,583204,,,,,,
197810,set_tempo,33,1,0,,,,,,580495,,,,,,
197813,control_change,53,0,1,,,,,,,,0,64,0,,
197827,control_change,79,0,4,,,,,,,,3,64,0,,
197840,control_change,27,0,1,,,,,,,,0,64,127,,
197844,set_tempo,34,1,0,,,,,,577812,,,,,,
197877,set_tempo,33,1,0,,,,,,575153,,,,,,
197879,note_on,119,0,2,,,,,,,,1,,,79,0
197879,note_on,39,0,1,,,,,,,,0,,,84,0
197879,note_on,0,0,1,,,,,,,,0,,,87,0
197880,note_on,1,0,1,,,,,,,,0,,,81,71
197880,note_on,0,0,1,,,,,,,,0,,,86,71
197880,note_on,1,0,2,,,,,,,,1,,,78,73
197926,set_tempo,49,1,0,,,,,,572519,,,,,,
197959,set_tempo,33,1,0,,,,,,569909,,,,,,
197992,set_tempo,33,1,0,,,,,,567322,,,,,,
197999,note_on,119,0,1,,,,,,,,0,,,86,0
197999,note_on,0,0,1,,,,,,,,0,,,81,0
197999,note_on,119,0,2,,,,,,,,1,,,78,0
198000,note_on,0,0,1,,,,,,,,0,,,84,74
198000,note_on,1,0,1,,,,,,,,0,,,91,74
198000,note_on,1,0,2,,,,,,,,1,,,75,76
198026,set_tempo,34,1,0,,,,,,564759,,,,,,
198119,note_on,119,0,1,,,,,,,,0,,,84,0
198119,note_on,0,0,1,,,,,,,,0,,,91,0
198119,note_on,119,0,2,,,,,,,,1,,,75,0
198120,note_on,0,0,1,,,,,,,,0,,,90,78
198120,note_on,1,0,1,,,,,,,,0,,,81,78
198120,note_on,1,0,2,,,,,,,,1,,,74,79
198239,note_on,0,0,1,,,,,,,,0,,,81,0
198239,note_on,119,0,1,,,,,,,,0,,,90,0
198239,note_on,119,0,2,,,,,,,,1,,,74,0
198240,note_on,1,0,1,,,,,,,,0,,,95,82
198240,note_on,1,0,2,,,,,,,,1,,,67,83
198240,note_on,0,0,1,,,,,,,,0,,,88,82
198359,note_on,119,0,2,,,,,,,,1,,,67,0
198359,note_on,119,0,1,,,,,,,,0,,,88,0
198359,note_on,0,0,1,,,,,,,,0,,,95,0
198360,note_on,1,0,2,,,,,,,,1,,,66,86
198360,note_on,0,0,1,,,,,,,,0,,,84,86
198360,note_on,1,0,1,,,,,,,,0,,,93,86
198479,note_on,119,0,1,,,,,,,,0,,,84,0
198479,note_on,0,0,1,,,,,,,,0,,,93,0
198479,note_on,119,0,2,,,,,,,,1,,,66,0
198480,note_on,1,0,2,,,,,,,,1,,,63,90
198480,note_on,1,0,1,,,,,,,,0,,,91,89
198480,note_on,0,0,1,,,,,,,,0,,,96,89
198599,note_on,0,0,1,,,,,,,,0,,,91,0
198599,note_on,119,0,2,,,,,,,,1,,,63,0
198599,note_on,119,0,1,,,,,,,,0,,,96,0
198600,note_on,0,0,1,,,,,,,,0,,,90,93
198600,note_on,1,0,2,,,,,,,,1,,,62,93
198600,note_on,1,0,1,,,,,,,,0,,,93,93
198719,note_on,119,0,1,,,,,,,,0,,,90,0
198719,note_on,0,0,1,,,,,,,,0,,,93,0
198719,note_on,119,0,2,,,,,,,,1,,,62,0
198720,note_on,0,0,1,,,,,,,,0,,,99,96
198720,note_on,1,0,1,,,,,,,,0,,,96,96
198720,note_on,1,0,2,,,,,,,,1,,,91,97
198839,note_on,0,0,1,,,,,,,,0,,,96,0
198839,note_on,119,0,1,,,,,,,,0,,,99,0
198839,note_on,119,0,2,,,,,,,,1,,,91,0
198840,note_on,1,0,2,,,,,,,,1,,,90,99
198840,note_on,0,0,1,,,,,,,,0,,,93,96
198840,note_on,1,0,1,,,,,,,,0,,,98,96
198959,note_on,119,0,1,,,,,,,,0,,,93,0
198959,note_on,119,0,2,,,,,,,,1,,,90,0
198959,note_on,0,0,1,,,,,,,,0,,,98,0
198960,note_on,1,0,1,,,,,,,,0,,,99,96
198960,note_on,0,0,1,,,,,,,,0,,,96,96
198960,note_on,1,0,2,,,,,,,,1,,,91,99
199002,set_tempo,976,1,0,,,,,,552283,,,,,,
199079,note_on,0,0,1,,,,,,,,0,,,99,0
199079,note_on,119,0,2,,,,,,,,1,,,91,0
199079,note_on,119,0,1,,,,,,,,0,,,96,0
199080,note_on,1,0,2,,,,,,,,1,,,90,98
199080,note_on,1,0,1,,,,,,,,0,,,93,96
199080,note_on,0,0,1,,,,,,,,0,,,98,96
199199,note_on,119,0,2,,,,,,,,1,,,90,0
199199,note_on,0,0,1,,,,,,,,0,,,93,0
199199,note_on,119,0,1,,,,,,,,0,,,98,0
199200,note_on,1,0,1,,,,,,,,0,,,99,96
199200,note_on,0,0,1,,,,,,,,0,,,96,96
199200,note_on,1,0,2,,,,,,,,1,,,91,97
199319,note_on,119,0,1,,,,,,,,0,,,96,0
199319,note_on,119,0,2,,,,,,,,1,,,91,0
199319,note_on,0,0,1,,,,,,,,0,,,99,0
199320,note_on,1,0,2,,,,,,,,1,,,90,97
199320,note_on,1,0,1,,,,,,,,0,,,93,96
199320,note_on,0,0,1,,,,,,,,0,,,98,96
199439,note_on,0,0,1,,,,,,,,0,,,93,0
199439,note_on,119,0,1,,,,,,,,0,,,98,0
199439,note_on,119,0,2,,,,,,,,1,,,90,0
199440,note_on,0,0,1,,,,,,,,0,,,96,96
199440,note_on,1,0,1,,,,,,,,0,,,99,96
199440,note_on,1,0,2,,,,,,,,1,,,91,96
199559,note_on,0,0,1,,,,,,,,0,,,99,0
199559,note_on,119,0,1,,,,,,,,0,,,96,0
199559,note_on,119,0,2,,,,,,,,1,,,91,0
199560,note_on,1,0,2,,,,,,,,1,,,90,98
199560,note_on,1,0,1,,,,,,,,0,,,98,96
199560,note_on,0,0,1,,,,,,,,0,,,93,96
199668,note_on,108,0,2,,,,,,,,1,,,90,0
199668,note_on,108,0,1,,,,,,,,0,,,93,0
199668,note_on,0,0,1,,,,,,,,0,,,98,0
199680,note_on,12,0,1,,,,,,,,0,,,96,98
199680,note_on,12,0,2,,,,,,,,1,,,91,98
199680,note_on,0,0,1,,,,,,,,0,,,99,98
199799,note_on,119,0,2,,,,,,,,1,,,91,0
199799,note_on,119,0,1,,,,,,,,0,,,99,0
199799,note_on,0,0,1,,,,,,,,0,,,96,0
199800,note_on,1,0,2,,,,,,,,1,,,90,98
199800,note_on,1,0,1,,,,,,,,0,,,98,96
199800,note_on,0,0,1,,,,,,,,0,,,93,96
199867,control_change,6907,0,3,,,,,,,,2,64,127,,
199919,note_on,0,0,1,,,,,,,,0,,,98,0
199919,note_on,119,0,1,,,,,,,,0,,,93,0
199919,note_on,119,0,2,,,,,,,,1,,,90,0
199920,note_on,0,0,1,,,,,,,,0,,,99,95
199920,note_on,1,0,1,,,,,,,,0,,,96,95
199920,note_on,53,0,3,,,,,,,,2,,,87,94
199920,note_on,1,0,2,,,,,,,,1,,,91,98
200039,note_on,119,0,1,,,,,,,,0,,,99,0
200039,note_on,119,0,3,,,,,,,,2,,,87,0
200039,note_on,119,0,2,,,,,,,,1,,,91,0
200039,note_on,0,0,1,,,,,,,,0,,,96,0
200040,note_on,0,0,1,,,,,,,,0,,,93,94
200040,note_on,1,0,2,,,,,,,,1,,,90,97
200040,note_on,1,0,1,,,,,,,,0,,,98,94
200159,note_on,119,0,2,,,,,,,,1,,,90,0
200159,note_on,0,0,1,,,,,,,,0,,,98,0
200159,note_on,119,0,1,,,,,,,,0,,,93,0
200160,note_on,1,0,1,,,,,,,,0,,,99,93
200160,note_on,0,0,1,,,,,,,,0,,,96,93
200160,note_on,1,0,2,,,,,,,,1,,,91,96
200160,note_on,121,0,3,,,,,,,,2,,,84,96
200279,note_on,119,0,2,,,,,,,,1,,,91,0
200279,note_on,119,0,1,,,,,,,,0,,,96,0
200279,note_on,119,0,3,,,,,,,,2,,,84,0
200279,note_on,0,0,1,,,,,,,,0,,,99,0
200280,note_on,0,0,1,,,,,,,,0,,,98,93
200280,note_on,1,0,1,,,,,,,,0,,,93,93
200280,note_on,1,0,2,,,,,,,,1,,,90,95
200399,note_on,119,0,2,,,,,,,,1,,,90,0
200399,note_on,0,0,1,,,,,,,,0,,,93,0
200399,note_on,119,0,1,,,,,,,,0,,,98,0
200400,note_on,121,0,3,,,,,,,,2,,,87,94
200400,note_on,1,0,1,,,,,,,,0,,,99,92
200400,note_on,0,0,1,,,,,,,,0,,,96,92
200400,note_on,1,0,2,,,,,,,,1,,,91,95
200519,note_on,0,0,1,,,,,,,,0,,,99,0
200519,note_on,119,0,3,,,,,,,,2,,,87,0
200519,note_on,119,0,1,,,,,,,,0,,,96,0
200519,note_on,119,0,2,,,,,,,,1,,,91,0
200520,note_on,1,0,2,,,,,,,,1,,,90,94
200520,note_on,0,0,1,,,,,,,,0,,,98,91
200520,note_on,1,0,1,,,,,,,,0,,,93,91
200525,set_tempo,1523,1,0,,,,,,540346,,,,,,
200639,note_on,119,0,1,,,,,,,,0,,,98,0
200639,note_on,0,0,1,,,,,,,,0,,,93,0
200639,note_on,119,0,2,,,,,,,,1,,,90,0
200640,note_on,1,0,2,,,,,,,,1,,,91,93
200640,note_on,1,0,1,,,,,,,,0,,,99,90
200640,note_on,0,0,1,,,,,,,,0,,,96,90
200640,note_on,121,0,3,,,,,,,,2,,,81,93
200759,note_on,119,0,2,,,,,,,,1,,,91,0
200759,note_on,119,0,1,,,,,,,,0,,,96,0
200759,note_on,0,0,1,,,,,,,,0,,,99,0
200759,note_on,119,0,3,,,,,,,,2,,,81,0
200760,note_on,1,0,1,,,,,,,,0,,,98,89
200760,note_on,0,0,1,,,,,,,,0,,,93,89
200760,note_on,1,0,2,,,,,,,,1,,,90,92
200879,note_on,0,0,1,,,,,,,,0,,,98,0
200879,note_on,119,0,2,,,,,,,,1,,,90,0
200879,note_on,119,0,1,,,,,,,,0,,,93,0
200880,note_on,1,0,2,,,,,,,,1,,,91,91
200880,note_on,1,0,1,,,,,,,,0,,,96,89
200880,note_on,121,0,3,,,,,,,,2,,,87,91
200880,note_on,0,0,1,,,,,,,,0,,,99,89
200999,note_on,119,0,1,,,,,,,,0,,,99,0
200999,note_on,119,0,2,,,,,,,,1,,,91,0
200999,note_on,0,0,1,,,,,,,,0,,,96,0
200999,note_on,119,0,3,,,,,,,,2,,,87,0
201000,note_on,1,0,2,,,,,,,,1,,,90,91
201000,note_on,1,0,1,,,,,,,,0,,,98,88
201000,note_on,0,0,1,,,,,,,,0,,,93,88
201119,note_on,119,0,2,,,,,,,,1,,,90,0
201119,note_on,119,0,1,,,,,,,,0,,,93,0
201119,note_on,0,0,1,,,,,,,,0,,,98,0
201120,note_on,1,0,2,,,,,,,,1,,,91,90
201120,note_on,1,0,1,,,,,,,,0,,,96,87
201120,note_on,0,0,1,,,,,,,,0,,,99,87
201120,note_on,121,0,3,,,,,,,,2,,,84,89
201239,note_on,119,0,1,,,,,,,,0,,,99,0
201239,note_on,119,0,3,,,,,,,,2,,,84,0
201239,note_on,119,0,2,,,,,,,,1,,,91,0
201239,note_on,0,0,1,,,,,,,,0,,,96,0
201240,note_on,1,0,1,,,,,,,,0,,,98,86
201240,note_on,1,0,2,,,,,,,,1,,,90,89
201240,note_on,0,0,1,,,,,,,,0,,,93,86
201359,note_on,119,0,2,,,,,,,,1,,,90,0
201359,note_on,0,0,1,,,,,,,,0,,,98,0
201359,note_on,119,0,1,,,,,,,,0,,,93,0
201360,note_on,121,0,3,,,,,,,,2,,,87,88
201360,note_on,1,0,1,,,,,,,,0,,,99,85
201360,note_on,0,0,1,,,,,,,,0,,,96,85
201360,note_on,1,0,2,,,,,,,,1,,,91,88
201468,note_on,108,0,3,,,,,,,,2,,,87,0
201479,note_on,0,0,1,,,,,,,,0,,,99,0
201479,note_on,119,0,1,,,,,,,,0,,,96,0
201479,note_on,119,0,2,,,,,,,,1,,,91,0
201480,note_on,0,0,1,,,,,,,,0,,,98,85
201480,note_on,1,0,1,,,,,,,,0,,,93,85
201480,note_on,1,0,2,,,,,,,,1,,,90,87
201568,set_tempo,1043,1,0,,,,,,526685,,,,,,
201588,note_on,108,0,2,,,,,,,,1,,,90,0
201588,note_on,0,0,1,,,,,,,,0,,,93,0
201588,note_on,108,0,1,,,,,,,,0,,,98,0
201600,note_on,0,0,1,,,,,,,,0,,,96,84
201600,note_on,12,0,1,,,,,,,,0,,,100,84
201600,note_on,12,0,2,,,,,,,,1,,,91,86
201600,note_on,132,0,3,,,,,,,,2,,,74,86
201719,note_on,119,0,2,,,,,,,,1,,,91,0
201719,note_on,119,0,3,,,,,,,,2,,,74,0
201719,note_on,0,0,1,,,,,,,,0,,,100,0
201719,note_on,119,0,1,,,,,,,,0,,,96,0
201720,note_on,0,0,1,,,,,,,,0,,,98,83
201720,note_on,1,0,1,,,,,,,,0,,,93,83
201720,note_on,1,0,2,,,,,,,,1,,,90,86
201839,note_on,119,0,1,,,,,,,,0,,,98,0
201839,note_on,0,0,1,,,,,,,,0,,,93,0
201839,note_on,119,0,2,,,,,,,,1,,,90,0
201840,note_on,1,0,1,,,,,,,,0,,,100,82
201840,note_on,0,0,1,,,,,,,,0,,,96,82
201840,note_on,121,0,3,,,,,,,,2,,,86,84
201840,note_on,1,0,2,,,,,,,,1,,,91,85
201959,note_on,119,0,3,,,,,,,,2,,,86,0
201959,note_on,119,0,1,,,,,,,,0,,,96,0
201959,note_on,0,0,1,,,,,,,,0,,,100,0
201959,note_on,119,0,2,,,,,,,,1,,,91,0
201960,note_on,0,0,1,,,,,,,,0,,,93,81
201960,note_on,1,0,1,,,,,,,,0,,,98,81
201960,note_on,1,0,2,,,,,,,,1,,,90,84
202079,note_on,119,0,2,,,,,,,,1,,,90,0
202079,note_on,119,0,1,,,,,,,,0,,,93,0
202079,note_on,0,0,1,,,,,,,,0,,,98,0
202080,note_on,0,0,1,,,,,,,,0,,,100,80
202080,note_on,121,0,3,,,,,,,,2,,,84,82
202080,note_on,1,0,2,,,,,,,,1,,,91,83
202080,note_on,1,0,1,,,,,,,,0,,,96,80
202199,note_on,119,0,3,,,,,,,,2,,,84,0
202199,note_on,0,0,1,,,,,,,,0,,,96,0
202199,note_on,119,0,1,,,,,,,,0,,,100,0
202199,note_on,119,0,2,,,,,,,,1,,,91,0
202200,note_on,1,0,2,,,,,,,,1,,,90,82
202200,note_on,0,0,1,,,,,,,,0,,,93,80
202200,note_on,1,0,1,,,,,,,,0,,,98,80
202319,note_on,119,0,2,,,,,,,,1,,,90,0
202319,note_on,0,0,1,,,,,,,,0,,,98,0
202319,note_on,119,0,1,,,,,,,,0,,,93,0
202320,note_on,1,0,2,,,,,,,,1,,,91,82
202320,note_on,0,0,1,,,,,,,,0,,,100,79
202320,note_on,1,0,1,,,,,,,,0,,,96,79
202320,note_on,121,0,3,,,,,,,,2,,,86,81
202439,note_on,119,0,2,,,,,,,,1,,,91,0
202439,note_on,119,0,3,,,,,,,,2,,,86,0
202439,note_on,119,0,1,,,,,,,,0,,,100,0
202439,note_on,0,0,1,,,,,,,,0,,,96,0
202440,note_on,1,0,1,,,,,,,,0,,,98,78
202440,note_on,1,0,2,,,,,,,,1,,,90,81
202440,note_on,0,0,1,,,,,,,,0,,,93,78
202559,note_on,119,0,2,,,,,,,,1,,,90,0
202559,note_on,0,0,1,,,,,,,,0,,,98,0
202559,note_on,119,0,1,,,,,,,,0,,,93,0
202560,note_on,1,0,2,,,,,,,,1,,,91,80
202560,note_on,1,0,1,,,,,,,,0,,,100,77
202560,note_on,121,0,3,,,,,,,,2,,,81,79
202560,note_on,0,0,1,,,,,,,,0,,,96,77
202679,note_on,119,0,3,,,,,,,,2,,,81,0
202679,note_on,119,0,1,,,,,,,,0,,,96,0
202679,note_on,0,0,1,,,,,,,,0,,,100,0
202679,note_on,119,0,2,,,,,,,,1,,,91,0
202680,note_on,1,0,1,,,,,,,,0,,,93,77
202680,note_on,0,0,1,,,,,,,,0,,,98,77
202680,note_on,1,0,2,,,,,,,,1,,,90,79
202799,note_on,119,0,2,,,,,,,,1,,,90,0
202799,note_on,0,0,1,,,,,,,,0,,,93,0
202799,note_on,119,0,1,,,,,,,,0,,,98,0
202800,note_on,1,0,2,,,,,,,,1,,,91,78
202800,note_on,1,0,1,,,,,,,,0,,,100,76
202800,note_on,121,0,3,,,,,,,,2,,,86,77
202800,note_on,0,0,1,,,,,,,,0,,,96,76
202919,note_on,0,0,1,,,,,,,,0,,,100,0
202919,note_on,119,0,1,,,,,,,,0,,,96,0
202919,note_on,119,0,2,,,,,,,,1,,,91,0
202919,note_on,119,0,3,,,,,,,,2,,,86,0
202920,note_on,1,0,1,,,,,,,,0,,,93,75
202920,note_on,0,0,1,,,,,,,,0,,,98,75
202920,note_on,1,0,2,,,,,,,,1,,,90,77
203039,note_on,119,0,2,,,,,,,,1,,,90,0
203039,note_on,119,0,1,,,,,,,,0,,,98,0
203039,note_on,0,0,1,,,,,,,,0,,,93,0
203040,note_on,1,0,2,,,,,,,,1,,,91,77
203040,note_on,1,0,1,,,,,,,,0,,,100,74
203040,note_on,0,0,1,,,,,,,,0,,,96,74
203040,note_on,121,0,3,,,,,,,,2,,,78,76
203159,note_on,119,0,2,,,,,,,,1,,,91,0
203159,note_on,119,0,3,,,,,,,,2,,,78,0
203159,note_on,119,0,1,,,,,,,,0,,,96,0
203159,note_on,0,0,1,,,,,,,,0,,,100,0
203160,note_on,0,0,1,,,,,,,,0,,,93,73
203160,note_on,1,0,2,,,,,,,,1,,,90,76
203160,note_on,1,0,1,,,,,,,,0,,,98,73
203279,note_on,119,0,1,,,,,,,,0,,,93,0
203279,note_on,0,0,1,,,,,,,,0,,,98,0
203279,note_on,119,0,2,,,,,,,,1,,,90,0
203280,note_on,1,0,1,,,,,,,,0,,,96,73
203280,note_on,121,0,3,,,,,,,,2,,,86,74
203280,note_on,1,0,2,,,,,,,,1,,,91,75
203280,note_on,0,0,1,,,,,,,,0,,,100,73
203388,note_on,108,0,3,,,,,,,,2,,,86,0
203399,note_on,119,0,2,,,,,,,,1,,,91,0
203399,note_on,0,0,1,,,,,,,,0,,,96,0
203399,note_on,119,0,1,,,,,,,,0,,,100,0
203400,note_on,1,0,1,,,,,,,,0,,,98,72
203400,note_on,0,0,1,,,,,,,,0,,,93,72
203400,note_on,1,0,2,,,,,,,,1,,,90,74
203504,set_tempo,1936,1,0,,,,,,623960,,,,,,
203508,note_on,108,0,1,,,,,,,,0,,,93,0
203508,note_on,108,0,2,,,,,,,,1,,,90,0
203508,note_on,0,0,1,,,,,,,,0,,,98,0
203520,note_on,0,0,1,,,,,,,,0,,,100,71
203520,note_on,12,0,1,,,,,,,,0,,,96,71
203520,note_on,12,0,2,,,,,,,,1,,,91,73
203520,note_on,132,0,3,,,,,,,,2,,,74,72
203639,note_on,119,0,1,,,,,,,,0,,,100,0
203639,note_on,119,0,2,,,,,,,,1,,,91,0
203639,note_on,119,0,3,,,,,,,,2,,,74,0
203639,note_on,0,0,1,,,,,,,,0,,,96,0
203640,note_on,1,0,1,,,,,,,,0,,,98,70
203640,note_on,0,0,1,,,,,,,,0,,,93,70
203640,note_on,1,0,2,,,,,,,,1,,,90,72
203759,note_on,119,0,2,,,,,,,,1,,,90,0
203759,note_on,119,0,1,,,,,,,,0,,,93,0
203759,note_on,0,0,1,,,,,,,,0,,,98,0
203760,note_on,0,0,1,,,,,,,,0,,,96,69
203760,note_on,1,0,2,,,,,,,,1,,,91,72
203760,note_on,121,0,3,,,,,,,,2,,,86,71
203760,note_on,1,0,1,,,,,,,,0,,,100,69
203879,note_on,119,0,3,,,,,,,,2,,,86,0
203879,note_on,119,0,1,,,,,,,,0,,,96,0
203879,note_on,0,0,1,,,,,,,,0,,,100,0
203879,note_on,119,0,2,,,,,,,,1,,,91,0
203880,note_on,1,0,2,,,,,,,,1,,,90,71
203880,note_on,1,0,1,,,,,,,,0,,,93,69
203880,note_on,0,0,1,,,,,,,,0,,,98,69
203999,note_on,0,0,1,,,,,,,,0,,,93,0
203999,note_on,119,0,2,,,,,,,,1,,,90,0
203999,note_on,119,0,1,,,,,,,,0,,,98,0
204000,note_on,1,0,1,,,,,,,,0,,,100,68
204000,note_on,0,0,1,,,,,,,,0,,,96,68
204000,note_on,121,0,3,,,,,,,,2,,,72,69
204000,note_on,1,0,2,,,,,,,,1,,,91,70
204119,note_on,119,0,3,,,,,,,,2,,,72,0
204119,note_on,0,0,1,,,,,,,,0,,,100,0
204119,note_on,119,0,1,,,,,,,,0,,,96,0
204119,note_on,119,0,2,,,,,,,,1,,,91,0
204120,note_on,0,0,1,,,,,,,,0,,,98,67
204120,note_on,1,0,1,,,,,,,,0,,,93,67
204120,note_on,1,0,2,,,,,,,,1,,,90,69
204239,note_on,0,0,1,,,,,,,,0,,,93,0
204239,note_on,119,0,1,,,,,,,,0,,,98,0
204239,note_on,119,0,2,,,,,,,,1,,,90,0
204240,note_on,0,0,1,,,,,,,,0,,,96,66
204240,note_on,121,0,3,,,,,,,,2,,,86,67
204240,note_on,1,0,2,,,,,,,,1,,,91,68
204240,note_on,1,0,1,,,,,,,,0,,,100,66
204359,note_on,119,0,2,,,,,,,,1,,,91,0
204359,note_on,0,0,1,,,,,,,,0,,,100,0
204359,note_on,119,0,1,,,,,,,,0,,,96,0
204359,note_on,119,0,3,,,,,,,,2,,,86,0
204360,note_on,1,0,2,,,,,,,,1,,,90,68
204360,note_on,0,0,1,,,,,,,,0,,,93,65
204360,note_on,1,0,1,,,,,,,,0,,,98,65
204479,note_on,0,0,1,,,,,,,,0,,,98,0
204479,note_on,119,0,2,,,,,,,,1,,,90,0
204479,note_on,119,0,1,,,,,,,,0,,,93,0
204480,note_on,0,0,1,,,,,,,,0,,,100,64
204480,note_on,1,0,1,,,,,,,,0,,,96,64
204480,note_on,1,0,2,,,,,,,,1,,,91,67
204480,note_on,121,0,3,,,,,,,,2,,,69,65
204530,set_tempo,1026,1,0,,,,,,693161,,,,,,
204599,note_on,119,0,3,,,,,,,,2,,,69,0
204599,note_on,119,0,2,,,,,,,,1,,,91,0
204599,note_on,119,0,1,,,,,,,,0,,,100,0
204599,note_on,0,0,1,,,,,,,,0,,,96,0
204600,note_on,1,0,1,,,,,,,,0,,,98,64
204600,note_on,1,0,2,,,,,,,,1,,,90,66
204600,note_on,0,0,1,,,,,,,,0,,,93,64
204719,note_on,119,0,2,,,,,,,,1,,,90,0
204719,note_on,119,0,1,,,,,,,,0,,,93,0
204719,note_on,0,0,1,,,,,,,,0,,,98,0
204720,note_on,1,0,2,,,,,,,,1,,,91,65
204720,note_on,1,0,1,,,,,,,,0,,,96,63
204720,note_on,0,0,1,,,,,,,,0,,,100,63
204720,note_on,121,0,3,,,,,,,,2,,,86,64
204839,note_on,119,0,2,,,,,,,,1,,,91,0
204839,note_on,119,0,1,,,,,,,,0,,,100,0
204839,note_on,0,0,1,,,,,,,,0,,,96,0
204839,note_on,119,0,3,,,,,,,,2,,,86,0
204840,note_on,1,0,2,,,,,,,,1,,,90,64
204840,note_on,1,0,1,,,,,,,,0,,,98,62
204840,note_on,0,0,1,,,,,,,,0,,,93,62
204959,note_on,119,0,2,,,,,,,,1,,,90,0
204959,note_on,119,0,1,,,,,,,,0,,,93,0
204959,note_on,0,0,1,,,,,,,,0,,,98,0
204960,note_on,1,0,1,,,,,,,,0,,,100,61
204960,note_on,1,0,2,,,,,,,,1,,,91,63
204960,note_on,121,0,3,,,,,,,,2,,,62,62
204960,note_on,0,0,1,,,,,,,,0,,,96,61
205079,note_on,119,0,3,,,,,,,,2,,,62,0
205079,note_on,119,0,2,,,,,,,,1,,,91,0
205079,note_on,0,0,1,,,,,,,,0,,,100,0
205079,note_on,119,0,1,,,,,,,,0,,,96,0
205080,note_on,0,0,1,,,,,,,,0,,,98,60
205080,note_on,1,0,1,,,,,,,,0,,,93,60
205080,note_on,1,0,2,,,,,,,,1,,,90,63
205199,note_on,119,0,2,,,,,,,,1,,,90,0
205199,note_on,119,0,1,,,,,,,,0,,,98,0
205199,note_on,0,0,1,,,,,,,,0,,,93,0
205200,note_on,1,0,2,,,,,,,,1,,,91,62
205200,note_on,121,0,3,,,,,,,,2,,,86,60
205200,note_on,1,0,1,,,,,,,,0,,,100,60
205200,note_on,0,0,1,,,,,,,,0,,,96,60
205240,control_change,40,0,3,,,,,,,,2,64,0,,
205253,control_change,53,0,2,,,,,,,,1,64,0,,
205280,control_change,80,0,1,,,,,,,,0,64,0,,
205308,note_on,68,0,3,,,,,,,,2,,,86,0
205319,note_on,66,0,2,,,,,,,,1,,,91,0
205319,note_on,39,0,1,,,,,,,,0,,,96,0
205319,note_on,0,0,1,,,,,,,,0,,,100,0
205320,note_on,0,0,1,,,,,,,,0,,,98,59
205320,note_on,1,0,2,,,,,,,,1,,,90,64
205320,note_on,1,0,1,,,,,,,,0,,,93,59
205358,set_tempo,828,1,0,,,,,,770021,,,,,,
205408,set_tempo,50,1,0,,,,,,774793,,,,,,
205428,note_on,108,0,2,,,,,,,,1,,,90,0
205428,note_on,108,0,1,,,,,,,,0,,,98,0
205428,note_on,0,0,1,,,,,,,,0,,,93,0
205428,end_of_track,0,1,2,,,,,,,,,,,,
205440,control_change,12,0,1,,,,,,,,0,64,127,,
205440,note_on,0,0,1,,,,,,,,0,,,91,58
205440,note_on,0,0,1,,,,,,,,0,,,95,58
205440,note_on,132,0,3,,,,,,,,2,,,67,59
205441,set_tempo,33,1,0,,,,,,620861,,,,,,
205559,note_on,119,0,3,,,,,,,,2,,,67,0
205679,note_on,239,0,1,,,,,,,,0,,,95,0
205679,note_on,0,0,1,,,,,,,,0,,,91,0
205680,note_on,0,0,1,,,,,,,,0,,,71,57
205680,note_on,121,0,3,,,,,,,,2,,,59,58
205680,note_on,1,0,1,,,,,,,,0,,,62,57
205680,note_on,0,0,1,,,,,,,,0,,,67,57
205799,note_on,119,0,3,,,,,,,,2,,,59,0
205920,note_on,0,0,3,,,,,,,,2,,,55,56
205920,note_on,121,0,3,,,,,,,,2,,,50,56
206039,note_on,119,0,3,,,,,,,,2,,,55,0
206039,note_on,0,0,3,,,,,,,,2,,,50,0
206159,note_on,0,0,1,,,,,,,,0,,,71,0
206159,note_on,0,0,1,,,,,,,,0,,,62,0
206159,note_on,479,0,1,,,,,,,,0,,,67,0
206160,note_on,121,0,3,,,,,,,,2,,,59,54
206160,note_on,1,0,1,,,,,,,,0,,,62,45
206160,note_on,0,0,1,,,,,,,,0,,,67,45
206160,note_on,0,0,1,,,,,,,,0,,,71,45
206279,note_on,119,0,3,,,,,,,,2,,,59,0
206399,note_on,0,0,1,,,,,,,,0,,,62,0
206399,note_on,239,0,1,,,,,,,,0,,,71,0
206399,note_on,0,0,1,,,,,,,,0,,,67,0
206400,control_change,1,0,1,,,,,,,,0,64,0,,
206400,note_on,121,0,3,,,,,,,,2,,,47,53
206400,note_on,0,0,1,,,,,,,,0,,,67,52
206400,note_on,0,0,1,,,,,,,,0,,,74,52
206400,note_on,0,0,1,,,,,,,,0,,,62,52
206519,note_on,119,0,3,,,,,,,,2,,,47,0
206640,note_on,121,0,3,,,,,,,,2,,,59,51
206759,note_on,119,0,3,,,,,,,,2,,,59,0
206879,note_on,479,0,1,,,,,,,,0,,,62,0
206879,note_on,0,0,1,,,,,,,,0,,,74,0
206879,note_on,0,0,1,,,,,,,,0,,,67,0
206880,note_on,1,0,1,,,,,,,,0,,,74,48
206880,note_on,0,0,1,,,,,,,,0,,,67,48
206880,note_on,0,0,1,,,,,,,,0,,,62,48
206880,note_on,0,0,3,,,,,,,,2,,,55,49
206880,note_on,121,0,3,,,,,,,,2,,,50,49
206999,note_on,0,0,3,,,,,,,,2,,,50,0
206999,note_on,119,0,3,,,,,,,,2,,,55,0
207120,note_on,121,0,3,,,,,,,,2,,,59,47
207228,note_on,108,0,3,,,,,,,,2,,,59,0
207312,note_on,0,0,1,,,,,,,,0,,,74,0
207312,note_on,432,0,1,,,,,,,,0,,,67,0
207312,note_on,0,0,1,,,,,,,,0,,,62,0
207360,note_on,132,0,3,,,,,,,,2,,,45,45
207360,control_change,48,0,1,,,,,,,,0,64,127,,
207599,note_on,239,0,3,,,,,,,,2,,,45,0
207600,note_on,0,0,1,,,,,,,,0,,,72,44
207600,note_on,1,0,3,,,,,,,,2,,,60,44
207600,note_on,0,0,1,,,,,,,,0,,,62,44
207600,note_on,240,0,1,,,,,,,,0,,,66,44
207839,note_on,239,0,3,,,,,,,,2,,,60,0
207840,note_on,0,0,3,,,,,,,,2,,,54,42
207840,note_on,1,0,3,,,,,,,,2,,,50,42
208079,note_on,0,0,1,,,,,,,,0,,,66,0
208079,note_on,479,0,1,,,,,,,,0,,,72,0
208079,note_on,0,0,1,,,,,,,,0,,,62,0
208079,note_on,239,0,3,,,,,,,,2,,,54,0
208079,note_on,0,0,3,,,,,,,,2,,,50,0
208080,note_on,1,0,3,,,,,,,,2,,,60,40
208080,note_on,1,0,1,,,,,,,,0,,,62,40
208080,note_on,0,0,1,,,,,,,,0,,,72,40
208080,note_on,0,0,1,,,,,,,,0,,,66,40
208319,note_on,0,0,1,,,,,,,,0,,,62,0
208319,note_on,0,0,1,,,,,,,,0,,,72,0
208319,note_on,239,0,3,,,,,,,,2,,,60,0
208319,note_on,239,0,1,,,,,,,,0,,,66,0
208320,note_on,1,0,3,,,,,,,,2,,,38,38
208320,control_change,1,0,1,,,,,,,,0,64,0,,
208320,note_on,0,0,1,,,,,,,,0,,,74,48
208320,note_on,0,0,1,,,,,,,,0,,,62,48
208320,note_on,0,0,1,,,,,,,,0,,,72,48
208320,note_on,0,0,1,,,,,,,,0,,,66,48
208559,note_on,0,0,1,,,,,,,,0,,,62,0
208559,note_on,0,0,1,,,,,,,,0,,,74,0
208559,note_on,239,0,3,,,,,,,,2,,,38,0
208559,note_on,0,0,1,,,,,,,,0,,,72,0
208559,note_on,239,0,1,,,,,,,,0,,,66,0
208560,note_on,1,0,3,,,,,,,,2,,,60,36
208799,note_on,239,0,3,,,,,,,,2,,,60,0
208800,note_on,1,0,3,,,,,,,,2,,,50,34
208800,note_on,0,0,3,,,,,,,,2,,,57,34
208800,note_on,241,0,1,,,,,,,,0,,,72,36
208800,note_on,0,0,1,,,,,,,,0,,,62,36
208800,note_on,0,0,1,,,,,,,,0,,,66,36
208800,note_on,0,0,1,,,,,,,,0,,,74,36
209016,note_on,0,0,1,,,,,,,,0,,,74,0
209016,note_on,0,0,1,,,,,,,,0,,,72,0
209016,note_on,216,0,1,,,,,,,,0,,,62,0
209016,note_on,0,0,1,,,,,,,,0,,,66,0
209039,note_on,0,0,3,,,,,,,,2,,,50,0
209039,note_on,239,0,3,,,,,,,,2,,,57,0
209040,note_on,1,0,3,,,,,,,,2,,,60,33
209256,note_on,216,0,3,,,,,,,,2,,,60,0
209256,end_of_track,0,1,3,,,,,,,,,,,,
209262,set_tempo,3821,1,0,,,,,,614754,,,,,,
209280,note_on,11453,0,4,,,,,,,,3,,,43,31
209361,set_tempo,99,1,0,,,,,,617792,,,,,,
209460,set_tempo,99,1,0,,,,,,620861,,,,,,
209486,control_change,470,0,1,,,,,,,,0,64,127,,
209519,note_on,239,0,4,,,,,,,,3,,,43,0
209520,note_on,34,0,1,,,,,,,,0,,,67,39
209520,note_on,0,0,1,,,,,,,,0,,,71,39
209520,note_on,0,0,1,,,,,,,,0,,,62,39
209520,note_on,1,0,4,,,,,,,,3,,,59,32
209560,set_tempo,100,1,0,,,,,,623960,,,,,,
209659,set_tempo,99,1,0,,,,,,627090,,,,,,
209758,set_tempo,99,1,0,,,,,,630252,,,,,,
209759,note_on,239,0,4,,,,,,,,3,,,59,0
209760,note_on,1,0,4,,,,,,,,3,,,55,32
209760,note_on,0,0,4,,,,,,,,3,,,50,32
209841,set_tempo,83,1,0,,,,,,633446,,,,,,
209940,set_tempo,99,1,0,,,,,,636672,,,,,,
209999,note_on,479,0,1,,,,,,,,0,,,62,0
209999,note_on,0,0,1,,,,,,,,0,,,71,0
209999,note_on,0,0,1,,,,,,,,0,,,67,0
209999,note_on,0,0,4,,,,,,,,3,,,55,0
209999,note_on,239,0,4,,,,,,,,3,,,50,0
210000,note_on,1,0,4,,,,,,,,3,,,59,31
210000,note_on,0,0,1,,,,,,,,0,,,67,39
210000,note_on,0,0,1,,,,,,,,0,,,62,39
210000,note_on,1,0,1,,,,,,,,0,,,71,39
210040,set_tempo,100,1,0,,,,,,639932,,,,,,
210139,set_tempo,99,1,0,,,,,,643225,,,,,,
210238,set_tempo,99,1,0,,,,,,646552,,,,,,
210239,note_on,0,0,1,,,,,,,,0,,,71,0
210239,note_on,239,0,4,,,,,,,,3,,,59,0
210239,note_on,239,0,1,,,,,,,,0,,,67,0
210239,note_on,0,0,1,,,,,,,,0,,,62,0
210240,note_on,0,0,1,,,,,,,,0,,,67,50
210240,note_on,0,0,1,,,,,,,,0,,,79,50
210240,note_on,1,0,1,,,,,,,,0,,,74,50
210240,note_on,1,0,4,,,,,,,,3,,,47,31
210338,set_tempo,100,1,0,,,,,,649913,,,,,,
210420,set_tempo,82,1,0,,,,,,653310,,,,,,
210446,control_change,206,0,1,,,,,,,,0,64,0,,
210479,note_on,239,0,4,,,,,,,,3,,,47,0
210479,note_on,33,0,1,,,,,,,,0,,,67,0
210479,note_on,0,0,1,,,,,,,,0,,,79,0
210479,note_on,0,0,1,,,,,,,,0,,,74,0
210480,note_on,1,0,4,,,,,,,,3,,,59,30
210520,set_tempo,100,1,0,,,,,,656743,,,,,,
210619,set_tempo,99,1,0,,,,,,660211,,,,,,
210718,set_tempo,99,1,0,,,,,,663717,,,,,,
210719,note_on,239,0,4,,,,,,,,3,,,59,0
210720,note_on,0,0,4,,,,,,,,3,,,50,30
210720,note_on,241,0,1,,,,,,,,0,,,79,39
210720,note_on,0,0,1,,,,,,,,0,,,67,39
210720,note_on,0,0,1,,,,,,,,0,,,74,39
210720,note_on,1,0,4,,,,,,,,3,,,55,30
210818,set_tempo,100,1,0,,,,,,667260,,,,,,
210917,set_tempo,99,1,0,,,,,,670841,,,,,,
210936,note_on,0,0,1,,,,,,,,0,,,79,0
210936,note_on,216,0,1,,,,,,,,0,,,74,0
210936,note_on,0,0,1,,,,,,,,0,,,67,0
210959,note_on,239,0,4,,,,,,,,3,,,50,0
210959,note_on,0,0,4,,,,,,,,3,,,55,0
210960,note_on,1,0,4,,,,,,,,3,,,59,30
211000,set_tempo,83,1,0,,,,,,674460,,,,,,
211099,set_tempo,99,1,0,,,,,,678119,,,,,,
211176,note_on,216,0,4,,,,,,,,3,,,59,0
211198,set_tempo,99,1,0,,,,,,681818,,,,,,
211200,control_change,264,0,1,,,,,,,,0,64,127,,
211200,note_on,24,0,4,,,,,,,,3,,,38,29
211298,set_tempo,100,1,0,,,,,,685558,,,,,,
211397,set_tempo,99,1,0,,,,,,689338,,,,,,
211439,note_on,239,0,4,,,,,,,,3,,,38,0
211440,note_on,1,0,4,,,,,,,,3,,,57,29
211440,note_on,0,0,1,,,,,,,,0,,,69,39
211440,note_on,0,0,1,,,,,,,,0,,,66,39
211440,note_on,240,0,1,,,,,,,,0,,,62,39
211496,set_tempo,99,1,0,,,,,,693161,,,,,,
211579,set_tempo,83,1,0,,,,,,697026,,,,,,
211678,set_tempo,99,1,0,,,,,,700935,,,,,,
211679,note_on,239,0,4,,,,,,,,3,,,57,0
211680,note_on,1,0,4,,,,,,,,3,,,54,28
211680,note_on,0,0,4,,,,,,,,3,,,50,28
211778,set_tempo,100,1,0,,,,,,689338,,,,,,
211919,note_on,239,0,4,,,,,,,,3,,,50,0
211919,note_on,0,0,4,,,,,,,,3,,,54,0
211919,note_on,479,0,1,,,,,,,,0,,,69,0
211919,note_on,0,0,1,,,,,,,,0,,,66,0
211919,note_on,0,0,1,,,,,,,,0,,,62,0
211920,note_on,0,0,1,,,,,,,,0,,,69,39
211920,note_on,1,0,4,,,,,,,,3,,,57,28
211920,note_on,0,0,1,,,,,,,,0,,,62,39
211920,note_on,1,0,1,,,,,,,,0,,,66,39
212159,note_on,0,0,1,,,,,,,,0,,,69,0
212159,note_on,239,0,1,,,,,,,,0,,,62,0
212159,note_on,239,0,4,,,,,,,,3,,,57,0
212159,note_on,0,0,1,,,,,,,,0,,,66,0
212160,note_on,1,0,4,,,,,,,,3,,,35,27
212160,note_on,0,0,1,,,,,,,,0,,,66,47
212160,note_on,0,0,1,,,,,,,,0,,,62,47
212160,note_on,0,0,1,,,,,,,,0,,,71,47
212160,control_change,1,0,1,,,,,,,,0,64,0,,
212399,note_on,239,0,1,,,,,,,,0,,,66,0
212399,note_on,239,0,4,,,,,,,,3,,,35,0
212399,note_on,0,0,1,,,,,,,,0,,,71,0
212399,note_on,0,0,1,,,,,,,,0,,,62,0
212400,note_on,1,0,4,,,,,,,,3,,,59,27
212639,note_on,239,0,4,,,,,,,,3,,,59,0
212640,note_on,0,0,4,,,,,,,,3,,,50,27
212640,note_on,1,0,4,,,,,,,,3,,,54,27
212640,note_on,0,0,1,,,,,,,,0,,,71,39
212640,note_on,0,0,1,,,,,,,,0,,,62,39
212640,note_on,241,0,1,,,,,,,,0,,,66,39
212856,note_on,0,0,1,,,,,,,,0,,,66,0
212856,note_on,216,0,1,,,,,,,,0,,,71,0
212856,note_on,0,0,1,,,,,,,,0,,,62,0
212879,note_on,239,0,4,,,,,,,,3,,,50,0
212879,note_on,0,0,4,,,,,,,,3,,,54,0
212880,note_on,1,0,4,,,,,,,,3,,,59,26
213055,set_tempo,1277,1,0,,,,,,693161,,,,,,
213088,set_tempo,33,1,0,,,,,,697026,,,,,,
213096,note_on,216,0,4,,,,,,,,3,,,59,0
213104,set_tempo,16,1,0,,,,,,700935,,,,,,
213120,note_on,24,0,4,,,,,,,,3,,,38,26
213120,control_change,264,0,1,,,,,,,,0,64,127,,
213121,set_tempo,17,1,0,,,,,,704887,,,,,,
213138,set_tempo,17,1,0,,,,,,708885,,,,,,
213154,set_tempo,16,1,0,,,,,,712928,,,,,,
213171,set_tempo,17,1,0,,,,,,717017,,,,,,
213187,set_tempo,16,1,0,,,,,,721154,,,,,,
213204,set_tempo,17,1,0,,,,,,725338,,,,,,
213220,set_tempo,16,1,0,,,,,,729572,,,,,,
213237,set_tempo,17,1,0,,,,,,733855,,,,,,
213253,set_tempo,16,1,0,,,,,,738189,,,,,,
213287,set_tempo,34,1,0,,,,,,742574,,,,,,
213303,set_tempo,16,1,0,,,,,,747012,,,,,,
213320,set_tempo,17,1,0,,,,,,751503,,,,,,
213336,set_tempo,16,1,0,,,,,,756048,,,,,,
213353,set_tempo,17,1,0,,,,,,760649,,,,,,
213359,note_on,239,0,4,,,,,,,,3,,,38,0
213360,note_on,0,0,1,,,,,,,,0,,,69,39
213360,note_on,1,0,4,,,,,,,,3,,,57,25
213360,note_on,240,0,1,,,,,,,,0,,,62,39
213360,note_on,0,0,1,,,,,,,,0,,,66,39
213369,set_tempo,16,1,0,,,,,,765306,,,,,,
213386,set_tempo,17,1,0,,,,,,770021,,,,,,
213402,set_tempo,16,1,0,,,,,,774793,,,,,,
213419,set_tempo,17,1,0,,,,,,779626,,,,,,
213436,set_tempo,17,1,0,,,,,,784519,,,,,,
213452,set_tempo,16,1,0,,,,,,789474,,,,,,
213485,set_tempo,33,1,0,,,,,,794492,,,,,,
213502,set_tempo,17,1,0,,,,,,799574,,,,,,
213518,set_tempo,16,1,0,,,,,,804721,,,,,,
213535,set_tempo,17,1,0,,,,,,809935,,,,,,
213551,set_tempo,16,1,0,,,,,,815217,,,,,,
213568,set_tempo,17,1,0,,,,,,820569,,,,,,
213584,set_tempo,16,1,0,,,,,,825991,,,,,,
213599,note_on,239,0,4,,,,,,,,3,,,57,0
213600,note_on,1,0,4,,,,,,,,3,,,54,25
213600,note_on,0,0,4,,,,,,,,3,,,50,25
213601,set_tempo,17,1,0,,,,,,831486,,,,,,
213618,set_tempo,17,1,0,,,,,,837054,,,,,,
213634,set_tempo,16,1,0,,,,,,842697,,,,,,
213651,set_tempo,17,1,0,,,,,,848416,,,,,,
213684,set_tempo,33,1,0,,,,,,854214,,,,,,
213700,set_tempo,16,1,0,,,,,,860092,,,,,,
213717,set_tempo,17,1,0,,,,,,866051,,,,,,
213733,set_tempo,16,1,0,,,,,,872093,,,,,,
213750,set_tempo,17,1,0,,,,,,878220,,,,,,
213767,set_tempo,17,1,0,,,,,,884434,,,,,,
213783,set_tempo,16,1,0,,,,,,890736,,,,,,
213800,set_tempo,17,1,0,,,,,,897129,,,,,,
213816,set_tempo,16,1,0,,,,,,903614,,,,,,
213833,set_tempo,17,1,0,,,,,,910194,,,,,,
213839,note_on,0,0,4,,,,,,,,3,,,54,0
213839,note_on,479,0,1,,,,,,,,0,,,66,0
213839,note_on,0,0,1,,,,,,,,0,,,69,0
213839,note_on,0,0,1,,,,,,,,0,,,62,0
213839,note_on,239,0,4,,,,,,,,3,,,50,0
213840,note_on,1,0,1,,,,,,,,0,,,62,39
213840,note_on,0,0,1,,,,,,,,0,,,69,39
213840,note_on,0,0,1,,,,,,,,0,,,66,39
213840,note_on,1,0,4,,,,,,,,3,,,57,25
213849,set_tempo,16,1,0,,,,,,916870,,,,,,
213882,set_tempo,33,1,0,,,,,,923645,,,,,,
213899,set_tempo,17,1,0,,,,,,930521,,,,,,
213916,set_tempo,17,1,0,,,,,,937500,,,,,,
213932,set_tempo,16,1,0,,,,,,944584,,,,,,
213949,set_tempo,17,1,0,,,,,,951777,,,,,,
213965,set_tempo,16,1,0,,,,,,959079,,,,,,
213982,set_tempo,17,1,0,,,,,,966495,,,,,,
213998,set_tempo,16,1,0,,,,,,974026,,,,,,
214015,set_tempo,17,1,0,,,,,,981675,,,,,,
214031,set_tempo,16,1,0,,,,,,989446,,,,,,
214048,set_tempo,17,1,0,,,,,,1233553,,,,,,
214079,note_on,0,0,1,,,,,,,,0,,,62,0
214079,note_on,239,0,1,,,,,,,,0,,,69,0
214079,note_on,239,0,4,,,,,,,,3,,,57,0
214079,note_on,0,0,1,,,,,,,,0,,,66,0
214080,note_on,0,0,4,,,,,,,,3,,,50,31
214080,note_on,0,0,4,,,,,,,,3,,,43,31
214080,note_on,0,0,1,,,,,,,,0,,,62,47
214080,note_on,0,0,1,,,,,,,,0,,,71,47
214080,note_on,0,0,1,,,,,,,,0,,,67,47
214080,control_change,1,0,1,,,,,,,,0,64,0,,
214080,note_on,1,0,4,,,,,,,,3,,,59,31
214098,set_tempo,50,1,0,,,,,,1221498,,,,,,
214098,end_of_track,0,1,0,,,,,,,,,,,,
214944,note_on,0,0,4,,,,,,,,3,,,59,0
214944,end_of_track,0,1,1,,,,,,,,,,,,
214944,note_on,0,0,1,,,,,,,,0,,,67,0
214944,note_on,0,0,1,,,,,,,,0,,,71,0
214944,note_on,864,0,1,,,,,,,,0,,,62,0
214944,note_on,864,0,4,,,,,,,,3,,,43,0
214944,note_on,0,0,4,,,,,,,,3,,,50,0
214944,end_of_track,0,1,4,,,,,,,,,,,,
