tick,type,time,meta,track,numerator,denominator,clocks_per_click,notated_32nd_notes_per_beat,key,tempo,program,channel,control,value,note,velocity
0,track_name,0,1,0,,,,,,,,,,,,
0,program_change,0,0,2,,,,,,,0,1,,,,
0,control_change,0,0,2,,,,,,,,1,7,120,,
0,control_change,0,0,2,,,,,,,,1,10,80,,
0,control_change,0,0,2,,,,,,,,1,91,74,,
0,control_change,0,0,2,,,,,,,,1,93,38,,
0,track_name,0,1,3,,,,,,,,,,,,
0,program_change,0,0,3,,,,,,,0,2,,,,
0,program_change,0,0,3,,,,,,,0,2,,,,
0,control_change,0,0,3,,,,,,,,2,7,110,,
0,control_change,0,0,3,,,,,,,,2,10,40,,
0,control_change,0,0,3,,,,,,,,2,11,127,,
0,control_change,0,0,3,,,,,,,,2,91,70,,
0,track_name,0,1,8,,,,,,,,,,,,
0,program_change,0,0,2,,,,,,,0,1,,,,
0,track_name,0,1,4,,,,,,,,,,,,
0,program_change,0,0,4,,,,,,,0,3,,,,
0,control_change,0,0,4,,,,,,,,3,7,100,,
0,control_change,0,0,4,,,,,,,,3,10,20,,
0,control_change,0,0,4,,,,,,,,3,64,127,,
0,control_change,0,0,4,,,,,,,,3,11,127,,
0,control_change,0,0,4,,,,,,,,3,93,36,,
0,note_on,0,0,4,,,,,,,,3,,,24,30
0,track_name,0,1,5,,,,,,,,,,,,
0,end_of_track,0,1,5,,,,,,,,,,,,
0,track_name,0,1,6,,,,,,,,,,,,
0,end_of_track,0,1,6,,,,,,,,,,,,
0,track_name,0,1,7,,,,,,,,,,,,
0,end_of_track,0,1,7,,,,,,,,,,,,
0,program_change,0,0,4,,,,,,,0,3,,,,
0,track_name,0,1,2,,,,,,,,,,,,
0,end_of_track,0,1,8,,,,,,,,,,,,
0,text,0,1,0,,,,,,,,,,,,
0,set_tempo,0,1,0,,,,,,750000,,,,,,
0,track_name,0,1,1,,,,,,,,,,,,
0,program_change,0,0,1,,,,,,,0,0,,,,
0,control_change,0,0,1,,,,,,,,0,7,120,,
0,control_change,0,0,1,,,,,,,,0,10,110,,
0,control_change,0,0,1,,,,,,,,0,11,127,,
0,text,0,1,0,,,,,,,,,,,,
0,key_signature,0,1,0,,,,,C,,,,,,,
0,time_signature,0,1,0,3,4,24,8,,,,,,,,
0,text,0,1,0,,,,,,,,,,,,
0,text,0,1,0,,,,,,,,,,,,
48,control_change,0,0,1,,,,,,,,0,93,38,,
48,control_change,0,0,4,,,,,,,,3,93,0,,
48,control_change,48,0,4,,,,,,,,3,91,70,,
48,control_change,48,0,1,,,,,,,,0,91,74,,
48,control_change,48,0,3,,,,,,,,2,93,0,,
48,control_change,48,0,2,,,,,,,,1,11,127,,
54,note_on,6,0,4,,,,,,,,3,,,24,0
60,note_on,6,0,4,,,,,,,,3,,,36,30
114,note_on,54,0,4,,,,,,,,3,,,36,0
120,note_on,6,0,4,,,,,,,,3,,,24,31
174,note_on,54,0,4,,,,,,,,3,,,24,0
180,note_on,6,0,4,,,,,,,,3,,,36,31
234,note_on,54,0,4,,,,,,,,3,,,36,0
240,note_on,6,0,4,,,,,,,,3,,,24,31
294,note_on,54,0,4,,,,,,,,3,,,24,0
300,note_on,6,0,4,,,,,,,,3,,,36,31
354,note_on,54,0,4,,,,,,,,3,,,36,0
360,note_on,6,0,4,,,,,,,,3,,,24,31
414,note_on,54,0,4,,,,,,,,3,,,24,0
420,note_on,6,0,4,,,,,,,,3,,,36,31
474,note_on,54,0,4,,,,,,,,3,,,36,0
480,control_change,6,0,4,,,,,,,,3,64,0,,
480,note_on,0,0,4,,,,,,,,3,,,24,31
696,note_on,216,0,4,,,,,,,,3,,,24,0
960,note_on,264,0,4,,,,,,,,3,,,24,31
1176,note_on,216,0,4,,,,,,,,3,,,24,0
1440,control_change,264,0,4,,,,,,,,3,64,127,,
1440,control_change,0,0,4,,,,,,,,3,11,126,,
1440,control_change,0,0,4,,,,,,,,3,10,19,,
1440,control_change,0,0,4,,,,,,,,3,93,35,,
1440,control_change,0,0,4,,,,,,,,3,7,99,,
1440,note_on,0,0,4,,,,,,,,3,,,24,32
1488,control_change,48,0,4,,,,,,,,3,91,75,,
1488,control_change,0,0,4,,,,,,,,3,93,34,,
1494,note_on,6,0,4,,,,,,,,3,,,24,0
1500,note_on,6,0,4,,,,,,,,3,,,36,32
1554,note_on,54,0,4,,,,,,,,3,,,36,0
1560,note_on,6,0,4,,,,,,,,3,,,24,32
1614,note_on,54,0,4,,,,,,,,3,,,24,0
1620,note_on,6,0,4,,,,,,,,3,,,36,32
1674,note_on,54,0,4,,,,,,,,3,,,36,0
1680,note_on,6,0,4,,,,,,,,3,,,24,32
1734,note_on,54,0,4,,,,,,,,3,,,24,0
1740,note_on,6,0,4,,,,,,,,3,,,36,32
1794,note_on,54,0,4,,,,,,,,3,,,36,0
1800,note_on,6,0,4,,,,,,,,3,,,24,32
1854,note_on,54,0,4,,,,,,,,3,,,24,0
1860,note_on,6,0,4,,,,,,,,3,,,36,32
1914,note_on,54,0,4,,,,,,,,3,,,36,0
1920,note_on,6,0,4,,,,,,,,3,,,24,32
1989,control_change,69,0,4,,,,,,,,3,64,0,,
2136,note_on,147,0,4,,,,,,,,3,,,24,0
2400,note_on,264,0,4,,,,,,,,3,,,24,32
2616,note_on,216,0,4,,,,,,,,3,,,24,0
2880,control_change,2832,0,1,,,,,,,,0,64,127,,
2880,note_on,0,0,1,,,,,,,,0,,,69,30
2880,note_on,0,0,4,,,,,,,,3,,,24,64
2880,control_change,264,0,4,,,,,,,,3,64,127,,
2933,note_on,53,0,1,,,,,,,,0,,,69,0
2933,note_on,0,0,1,,,,,,,,0,,,72,30
2934,note_on,54,0,4,,,,,,,,3,,,24,0
2940,note_on,6,0,4,,,,,,,,3,,,36,32
2986,note_on,0,0,1,,,,,,,,0,,,75,30
2986,note_on,53,0,1,,,,,,,,0,,,72,0
2994,note_on,54,0,4,,,,,,,,3,,,36,0
3000,note_on,6,0,4,,,,,,,,3,,,24,32
3039,note_on,53,0,1,,,,,,,,0,,,75,0
3040,note_on,1,0,1,,,,,,,,0,,,78,30
3054,note_on,54,0,4,,,,,,,,3,,,24,0
3060,note_on,6,0,4,,,,,,,,3,,,36,32
3093,note_on,53,0,1,,,,,,,,0,,,78,0
3093,note_on,0,0,1,,,,,,,,0,,,81,30
3114,note_on,54,0,4,,,,,,,,3,,,36,0
3120,note_on,6,0,4,,,,,,,,3,,,24,32
3146,note_on,53,0,1,,,,,,,,0,,,81,0
3146,note_on,0,0,1,,,,,,,,0,,,78,30
3174,note_on,54,0,4,,,,,,,,3,,,24,0
3180,note_on,6,0,4,,,,,,,,3,,,36,32
3199,note_on,53,0,1,,,,,,,,0,,,78,0
3200,control_change,3152,0,2,,,,,,,,1,64,127,,
3200,note_on,1,0,1,,,,,,,,0,,,75,30
3234,note_on,54,0,4,,,,,,,,3,,,36,0
3240,note_on,6,0,4,,,,,,,,3,,,24,32
3253,note_on,53,0,1,,,,,,,,0,,,75,0
3253,note_on,0,0,1,,,,,,,,0,,,72,30
3294,note_on,54,0,4,,,,,,,,3,,,24,0
3300,note_on,6,0,4,,,,,,,,3,,,36,32
3306,note_on,0,0,1,,,,,,,,0,,,69,30
3306,note_on,53,0,1,,,,,,,,0,,,72,0
3354,note_on,54,0,4,,,,,,,,3,,,36,0
3359,note_on,53,0,1,,,,,,,,0,,,69,0
3360,note_on,0,0,2,,,,,,,,1,,,69,64
3360,note_on,0,0,2,,,,,,,,1,,,66,64
3360,note_on,6,0,4,,,,,,,,3,,,24,32
3360,note_on,0,0,2,,,,,,,,1,,,63,64
3360,note_on,160,0,2,,,,,,,,1,,,60,64
3376,control_change,16,0,4,,,,,,,,3,64,0,,
3576,note_on,200,0,4,,,,,,,,3,,,24,0
3576,note_on,216,0,2,,,,,,,,1,,,69,0
3576,note_on,0,0,2,,,,,,,,1,,,66,0
3576,note_on,0,0,2,,,,,,,,1,,,60,0
3576,note_on,0,0,2,,,,,,,,1,,,63,0
3600,note_on,24,0,2,,,,,,,,1,,,57,48
3708,note_on,108,0,2,,,,,,,,1,,,57,0
3800,control_change,3752,0,3,,,,,,,,2,64,127,,
3840,note_on,0,0,3,,,,,,,,2,,,48,64
3840,note_on,264,0,4,,,,,,,,3,,,24,32
3840,control_change,481,0,1,,,,,,,,0,64,0,,
3840,note_on,40,0,3,,,,,,,,2,,,57,64
3840,note_on,0,0,3,,,,,,,,2,,,54,64
3840,note_on,0,0,3,,,,,,,,2,,,51,64
3880,note_on,40,0,4,,,,,,,,3,,,27,32
3920,note_on,40,0,4,,,,,,,,3,,,30,32
3960,note_on,40,0,4,,,,,,,,3,,,33,32
4000,note_on,40,0,4,,,,,,,,3,,,37,32
4036,note_on,36,0,4,,,,,,,,3,,,37,0
4040,note_on,4,0,4,,,,,,,,3,,,36,32
4056,note_on,216,0,3,,,,,,,,2,,,48,0
4056,note_on,0,0,3,,,,,,,,2,,,51,0
4056,note_on,0,0,3,,,,,,,,2,,,54,0
4056,note_on,0,0,3,,,,,,,,2,,,57,0
4080,note_on,24,0,3,,,,,,,,2,,,45,47
4148,note_on,0,0,4,,,,,,,,3,,,33,0
4148,note_on,0,0,4,,,,,,,,3,,,24,0
4148,note_on,0,0,4,,,,,,,,3,,,27,0
4148,note_on,0,0,4,,,,,,,,3,,,30,0
4148,note_on,108,0,4,,,,,,,,3,,,36,0
4160,control_change,452,0,2,,,,,,,,1,64,0,,
4188,note_on,108,0,3,,,,,,,,2,,,45,0
4320,note_on,0,0,4,,,,,,,,3,,,24,32
4320,control_change,172,0,4,,,,,,,,3,64,127,,
4320,control_change,480,0,1,,,,,,,,0,64,127,,
4320,note_on,0,0,1,,,,,,,,0,,,69,31
4373,note_on,0,0,1,,,,,,,,0,,,72,31
4373,note_on,53,0,1,,,,,,,,0,,,69,0
4374,note_on,54,0,4,,,,,,,,3,,,24,0
4380,note_on,6,0,4,,,,,,,,3,,,36,32
4426,note_on,0,0,1,,,,,,,,0,,,75,31
4426,note_on,53,0,1,,,,,,,,0,,,72,0
4434,note_on,54,0,4,,,,,,,,3,,,36,0
4440,note_on,6,0,4,,,,,,,,3,,,24,32
4479,note_on,53,0,1,,,,,,,,0,,,75,0
4480,note_on,1,0,1,,,,,,,,0,,,78,31
4494,note_on,54,0,4,,,,,,,,3,,,24,0
4500,note_on,6,0,4,,,,,,,,3,,,36,32
4533,note_on,0,0,1,,,,,,,,0,,,81,31
4533,note_on,53,0,1,,,,,,,,0,,,78,0
4554,note_on,54,0,4,,,,,,,,3,,,36,0
4560,note_on,6,0,4,,,,,,,,3,,,24,32
4586,note_on,0,0,1,,,,,,,,0,,,78,32
4586,note_on,53,0,1,,,,,,,,0,,,81,0
4614,note_on,54,0,4,,,,,,,,3,,,24,0
4620,note_on,6,0,4,,,,,,,,3,,,36,32
4639,note_on,53,0,1,,,,,,,,0,,,78,0
4640,note_on,1,0,1,,,,,,,,0,,,75,32
4664,control_change,504,0,2,,,,,,,,1,64,127,,
4674,note_on,54,0,4,,,,,,,,3,,,36,0
4680,note_on,6,0,4,,,,,,,,3,,,24,32
4693,note_on,53,0,1,,,,,,,,0,,,75,0
4693,note_on,0,0,1,,,,,,,,0,,,72,32
4734,note_on,54,0,4,,,,,,,,3,,,24,0
4740,note_on,6,0,4,,,,,,,,3,,,36,32
4746,note_on,0,0,1,,,,,,,,0,,,69,32
4746,note_on,53,0,1,,,,,,,,0,,,72,0
4760,control_change,572,0,3,,,,,,,,2,64,0,,
4794,note_on,54,0,4,,,,,,,,3,,,36,0
4799,note_on,53,0,1,,,,,,,,0,,,69,0
4800,note_on,136,0,2,,,,,,,,1,,,60,64
4800,note_on,0,0,2,,,,,,,,1,,,63,64
4800,note_on,0,0,2,,,,,,,,1,,,66,64
4800,note_on,0,0,2,,,,,,,,1,,,69,64
4800,note_on,6,0,4,,,,,,,,3,,,24,32
4824,control_change,24,0,4,,,,,,,,3,64,0,,
5016,note_on,0,0,2,,,,,,,,1,,,66,0
5016,note_on,0,0,2,,,,,,,,1,,,63,0
5016,note_on,0,0,2,,,,,,,,1,,,60,0
5016,note_on,216,0,2,,,,,,,,1,,,69,0
5016,note_on,192,0,4,,,,,,,,3,,,24,0
5040,note_on,24,0,2,,,,,,,,1,,,57,48
5148,note_on,108,0,2,,,,,,,,1,,,57,0
5264,control_change,504,0,3,,,,,,,,2,64,127,,
5280,note_on,16,0,3,,,,,,,,2,,,57,64
5280,note_on,0,0,3,,,,,,,,2,,,48,64
5280,note_on,264,0,4,,,,,,,,3,,,24,32
5280,control_change,481,0,1,,,,,,,,0,64,0,,
5280,note_on,0,0,3,,,,,,,,2,,,51,64
5280,note_on,0,0,3,,,,,,,,2,,,54,64
5320,note_on,40,0,4,,,,,,,,3,,,27,32
5360,note_on,40,0,4,,,,,,,,3,,,30,32
5400,note_on,40,0,4,,,,,,,,3,,,33,32
5440,note_on,40,0,4,,,,,,,,3,,,37,32
5476,note_on,36,0,4,,,,,,,,3,,,37,0
5480,note_on,4,0,4,,,,,,,,3,,,36,32
5496,note_on,0,0,3,,,,,,,,2,,,51,0
5496,note_on,0,0,3,,,,,,,,2,,,54,0
5496,note_on,0,0,3,,,,,,,,2,,,57,0
5496,note_on,216,0,3,,,,,,,,2,,,48,0
5520,note_on,24,0,3,,,,,,,,2,,,45,49
5588,note_on,0,0,4,,,,,,,,3,,,33,0
5588,note_on,0,0,4,,,,,,,,3,,,30,0
5588,note_on,108,0,4,,,,,,,,3,,,36,0
5588,note_on,0,0,4,,,,,,,,3,,,27,0
5588,note_on,0,0,4,,,,,,,,3,,,24,0
5624,control_change,476,0,2,,,,,,,,1,64,0,,
5628,note_on,108,0,3,,,,,,,,2,,,45,0
5760,note_on,0,0,4,,,,,,,,3,,,24,32
5760,control_change,136,0,2,,,,,,,,1,64,127,,
5760,control_change,172,0,4,,,,,,,,3,64,127,,
5760,control_change,480,0,1,,,,,,,,0,64,127,,
5760,note_on,0,0,1,,,,,,,,0,,,69,33
5813,note_on,53,0,1,,,,,,,,0,,,69,0
5813,note_on,0,0,1,,,,,,,,0,,,72,33
5814,note_on,54,0,4,,,,,,,,3,,,24,0
5820,note_on,6,0,4,,,,,,,,3,,,36,32
5866,note_on,0,0,1,,,,,,,,0,,,75,33
5866,note_on,53,0,1,,,,,,,,0,,,72,0
5874,note_on,54,0,4,,,,,,,,3,,,36,0
5880,note_on,6,0,4,,,,,,,,3,,,24,32
5919,note_on,53,0,1,,,,,,,,0,,,75,0
5920,note_on,1,0,1,,,,,,,,0,,,78,33
5934,note_on,54,0,4,,,,,,,,3,,,24,0
5940,note_on,6,0,4,,,,,,,,3,,,36,32
5973,note_on,0,0,1,,,,,,,,0,,,81,33
5973,note_on,53,0,1,,,,,,,,0,,,78,0
5994,note_on,54,0,4,,,,,,,,3,,,36,0
6000,note_on,6,0,4,,,,,,,,3,,,24,32
6026,note_on,0,0,1,,,,,,,,0,,,78,33
6026,note_on,53,0,1,,,,,,,,0,,,81,0
6054,note_on,54,0,4,,,,,,,,3,,,24,0
6060,note_on,6,0,4,,,,,,,,3,,,36,32
6079,note_on,53,0,1,,,,,,,,0,,,78,0
6080,note_on,1,0,1,,,,,,,,0,,,75,33
6114,note_on,54,0,4,,,,,,,,3,,,36,0
6120,note_on,6,0,4,,,,,,,,3,,,24,32
6133,note_on,0,0,1,,,,,,,,0,,,72,33
6133,note_on,53,0,1,,,,,,,,0,,,75,0
6174,note_on,54,0,4,,,,,,,,3,,,24,0
6180,note_on,6,0,4,,,,,,,,3,,,36,32
6186,note_on,0,0,1,,,,,,,,0,,,69,33
6186,note_on,53,0,1,,,,,,,,0,,,72,0
6224,control_change,596,0,3,,,,,,,,2,64,0,,
6234,note_on,54,0,4,,,,,,,,3,,,36,0
6239,note_on,53,0,1,,,,,,,,0,,,69,0
6240,note_on,6,0,4,,,,,,,,3,,,24,32
6240,note_on,0,0,2,,,,,,,,1,,,66,64
6240,note_on,0,0,2,,,,,,,,1,,,63,64
6240,note_on,0,0,2,,,,,,,,1,,,69,64
6240,note_on,480,0,2,,,,,,,,1,,,60,64
6248,control_change,8,0,4,,,,,,,,3,64,0,,
6456,note_on,0,0,2,,,,,,,,1,,,66,0
6456,note_on,0,0,2,,,,,,,,1,,,63,0
6456,note_on,0,0,2,,,,,,,,1,,,60,0
6456,note_on,216,0,2,,,,,,,,1,,,69,0
6456,note_on,208,0,4,,,,,,,,3,,,24,0
6480,note_on,24,0,2,,,,,,,,1,,,57,47
6588,note_on,108,0,2,,,,,,,,1,,,57,0
6664,control_change,440,0,3,,,,,,,,2,64,127,,
6720,control_change,132,0,2,,,,,,,,1,64,0,,
6720,control_change,481,0,1,,,,,,,,0,64,0,,
6720,note_on,0,0,3,,,,,,,,2,,,48,64
6720,note_on,0,0,3,,,,,,,,2,,,51,64
6720,note_on,0,0,3,,,,,,,,2,,,54,64
6720,note_on,56,0,3,,,,,,,,2,,,57,64
6720,note_on,264,0,4,,,,,,,,3,,,24,33
6760,note_on,40,0,4,,,,,,,,3,,,27,33
6800,note_on,40,0,4,,,,,,,,3,,,30,33
6840,note_on,40,0,4,,,,,,,,3,,,33,33
6880,note_on,40,0,4,,,,,,,,3,,,37,33
6916,note_on,36,0,4,,,,,,,,3,,,37,0
6920,note_on,4,0,4,,,,,,,,3,,,36,33
6936,note_on,0,0,3,,,,,,,,2,,,54,0
6936,note_on,0,0,3,,,,,,,,2,,,57,0
6936,note_on,216,0,3,,,,,,,,2,,,48,0
6936,note_on,0,0,3,,,,,,,,2,,,51,0
6960,note_on,24,0,3,,,,,,,,2,,,45,47
7028,note_on,0,0,4,,,,,,,,3,,,33,0
7028,note_on,0,0,4,,,,,,,,3,,,24,0
7028,note_on,0,0,4,,,,,,,,3,,,27,0
7028,note_on,0,0,4,,,,,,,,3,,,30,0
7028,note_on,108,0,4,,,,,,,,3,,,36,0
7068,note_on,108,0,3,,,,,,,,2,,,45,0
7200,note_on,172,0,4,,,,,,,,3,,,24,36
7254,note_on,54,0,4,,,,,,,,3,,,24,0
7260,note_on,6,0,4,,,,,,,,3,,,36,41
7286,control_change,26,0,4,,,,,,,,3,64,127,,
7314,note_on,28,0,4,,,,,,,,3,,,36,0
7320,note_on,6,0,4,,,,,,,,3,,,24,46
7374,note_on,54,0,4,,,,,,,,3,,,24,0
7380,note_on,6,0,4,,,,,,,,3,,,36,50
7434,note_on,54,0,4,,,,,,,,3,,,36,0
7440,note_on,6,0,4,,,,,,,,3,,,24,55
7494,note_on,54,0,4,,,,,,,,3,,,24,0
7500,note_on,6,0,4,,,,,,,,3,,,36,59
7554,note_on,54,0,4,,,,,,,,3,,,36,0
7560,note_on,6,0,4,,,,,,,,3,,,24,64
7614,note_on,54,0,4,,,,,,,,3,,,24,0
7620,note_on,6,0,4,,,,,,,,3,,,36,69
7624,control_change,556,0,3,,,,,,,,2,64,0,,
7674,note_on,54,0,4,,,,,,,,3,,,36,0
7680,note_on,6,0,4,,,,,,,,3,,,24,73
7734,note_on,54,0,4,,,,,,,,3,,,24,0
7740,note_on,6,0,4,,,,,,,,3,,,36,78
7794,note_on,54,0,4,,,,,,,,3,,,36,0
7800,note_on,6,0,4,,,,,,,,3,,,24,83
7854,note_on,54,0,4,,,,,,,,3,,,24,0
7860,note_on,6,0,4,,,,,,,,3,,,36,87
7914,note_on,54,0,4,,,,,,,,3,,,36,0
7920,note_on,6,0,4,,,,,,,,3,,,24,92
7974,note_on,54,0,4,,,,,,,,3,,,24,0
7980,note_on,6,0,4,,,,,,,,3,,,36,93
8034,note_on,54,0,4,,,,,,,,3,,,36,0
8040,note_on,6,0,4,,,,,,,,3,,,24,87
8094,note_on,54,0,4,,,,,,,,3,,,24,0
8100,note_on,6,0,4,,,,,,,,3,,,36,81
8154,note_on,54,0,4,,,,,,,,3,,,36,0
8160,note_on,6,0,4,,,,,,,,3,,,24,75
8214,note_on,54,0,4,,,,,,,,3,,,24,0
8220,note_on,6,0,4,,,,,,,,3,,,36,69
8274,note_on,54,0,4,,,,,,,,3,,,36,0
8280,note_on,6,0,4,,,,,,,,3,,,24,63
8334,note_on,54,0,4,,,,,,,,3,,,24,0
8340,note_on,6,0,4,,,,,,,,3,,,36,57
8394,note_on,54,0,4,,,,,,,,3,,,36,0
8400,note_on,6,0,4,,,,,,,,3,,,24,51
8454,note_on,54,0,4,,,,,,,,3,,,24,0
8460,note_on,6,0,4,,,,,,,,3,,,36,45
8514,note_on,54,0,4,,,,,,,,3,,,36,0
8520,note_on,6,0,4,,,,,,,,3,,,24,39
8574,note_on,54,0,4,,,,,,,,3,,,24,0
8580,note_on,6,0,4,,,,,,,,3,,,36,33
8634,note_on,54,0,4,,,,,,,,3,,,36,0
8640,note_on,0,0,4,,,,,,,,3,,,24,27
8640,control_change,6,0,4,,,,,,,,3,64,0,,
8856,note_on,216,0,4,,,,,,,,3,,,24,0
9120,note_on,264,0,4,,,,,,,,3,,,24,64
9336,note_on,216,0,4,,,,,,,,3,,,24,0
9813,control_change,477,0,4,,,,,,,,3,64,127,,
9933,control_change,2309,0,3,,,,,,,,2,64,127,,
9960,note_on,27,0,3,,,,,,,,2,,,48,49
9960,control_change,3240,0,2,,,,,,,,1,64,127,,
9960,note_on,0,0,4,,,,,,,,3,,,39,46
9960,note_on,0,0,2,,,,,,,,1,,,55,46
9960,note_on,147,0,4,,,,,,,,3,,,24,46
10068,note_on,108,0,2,,,,,,,,1,,,55,0
10068,note_on,108,0,4,,,,,,,,3,,,39,0
10068,note_on,0,0,4,,,,,,,,3,,,24,0
10068,note_on,108,0,3,,,,,,,,2,,,48,0
10080,marker,10080,1,0,,,,,,,,,,,,
10080,note_on,0,0,1,,,,,,,,0,,,55,64
10080,note_on,0,0,4,,,,,,,,3,,,39,52
10080,note_on,12,0,4,,,,,,,,3,,,24,52
10080,note_on,12,0,2,,,,,,,,1,,,55,48
10080,control_change,3360,0,1,,,,,,,,0,64,127,,
10080,note_on,12,0,3,,,,,,,,2,,,48,49
10200,control_change,120,0,4,,,,,,,,3,64,0,,
10234,control_change,154,0,2,,,,,,,,1,64,0,,
10251,control_change,171,0,3,,,,,,,,2,64,0,,
10296,note_on,0,0,4,,,,,,,,3,,,24,0
10296,note_on,96,0,4,,,,,,,,3,,,39,0
10296,note_on,45,0,3,,,,,,,,2,,,48,0
10512,note_on,278,0,2,,,,,,,,1,,,55,0
10800,control_change,504,0,3,,,,,,,,2,64,127,,
10919,note_on,839,0,1,,,,,,,,0,,,55,0
10920,note_on,0,0,4,,,,,,,,3,,,39,52
10920,note_on,624,0,4,,,,,,,,3,,,24,52
10920,note_on,1,0,1,,,,,,,,0,,,55,55
10920,note_on,120,0,3,,,,,,,,2,,,48,49
10937,control_change,17,0,4,,,,,,,,3,64,127,,
11028,note_on,108,0,3,,,,,,,,2,,,48,0
11028,note_on,0,0,4,,,,,,,,3,,,24,0
11028,note_on,91,0,4,,,,,,,,3,,,39,0
11039,note_on,119,0,1,,,,,,,,0,,,55,0
11040,note_on,1,0,1,,,,,,,,0,,,55,64
11040,note_on,0,0,4,,,,,,,,3,,,39,52
11040,note_on,12,0,4,,,,,,,,3,,,27,52
11040,note_on,12,0,3,,,,,,,,2,,,48,49
11057,control_change,17,0,1,,,,,,,,0,64,0,,
11091,control_change,51,0,3,,,,,,,,2,64,0,,
11177,control_change,137,0,4,,,,,,,,3,64,0,,
11256,note_on,0,0,4,,,,,,,,3,,,27,0
11256,note_on,79,0,4,,,,,,,,3,,,39,0
11256,note_on,165,0,3,,,,,,,,2,,,48,0
11314,control_change,58,0,4,,,,,,,,3,64,127,,
11383,control_change,127,0,3,,,,,,,,2,64,127,,
11399,note_on,342,0,1,,,,,,,,0,,,55,0
11400,note_on,86,0,4,,,,,,,,3,,,24,51
11400,note_on,1,0,1,,,,,,,,0,,,55,55
11400,note_on,0,0,4,,,,,,,,3,,,39,51
11400,note_on,17,0,3,,,,,,,,2,,,48,50
11508,note_on,108,0,3,,,,,,,,2,,,48,0
11508,note_on,108,0,4,,,,,,,,3,,,39,0
11508,note_on,0,0,4,,,,,,,,3,,,24,0
11508,note_on,108,0,1,,,,,,,,0,,,55,0
11520,note_on,0,0,3,,,,,,,,2,,,38,50
11520,note_on,12,0,3,,,,,,,,2,,,31,50
11520,control_change,1008,0,2,,,,,,,,1,64,127,,
11520,note_on,0,0,2,,,,,,,,1,,,47,48
11520,note_on,0,0,1,,,,,,,,0,,,56,64
11520,control_change,12,0,1,,,,,,,,0,64,127,,
11520,note_on,12,0,4,,,,,,,,3,,,43,51
11520,note_on,0,0,4,,,,,,,,3,,,50,51
11640,control_change,120,0,4,,,,,,,,3,64,0,,
11700,control_change,180,0,2,,,,,,,,1,64,0,,
11715,control_change,195,0,3,,,,,,,,2,64,0,,
11736,note_on,96,0,4,,,,,,,,3,,,50,0
11736,note_on,0,0,3,,,,,,,,2,,,31,0
11736,note_on,36,0,2,,,,,,,,1,,,47,0
11736,note_on,0,0,4,,,,,,,,3,,,43,0
11736,note_on,21,0,3,,,,,,,,2,,,38,0
11759,note_on,239,0,1,,,,,,,,0,,,56,0
11760,note_on,1,0,1,,,,,,,,0,,,55,64
12285,control_change,549,0,3,,,,,,,,2,64,127,,
12285,control_change,549,0,4,,,,,,,,3,64,127,,
12300,control_change,564,0,2,,,,,,,,1,64,127,,
12360,note_on,75,0,4,,,,,,,,3,,,43,47
12360,note_on,75,0,3,,,,,,,,2,,,31,50
12360,note_on,0,0,3,,,,,,,,2,,,38,50
12360,note_on,0,0,4,,,,,,,,3,,,50,47
12360,note_on,60,0,2,,,,,,,,1,,,47,46
12468,note_on,108,0,3,,,,,,,,2,,,38,0
12468,note_on,0,0,4,,,,,,,,3,,,43,0
12468,note_on,108,0,4,,,,,,,,3,,,50,0
12468,note_on,0,0,3,,,,,,,,2,,,31,0
12468,note_on,108,0,2,,,,,,,,1,,,47,0
12480,note_on,0,0,3,,,,,,,,2,,,41,50
12480,note_on,12,0,4,,,,,,,,3,,,53,51
12480,note_on,0,0,4,,,,,,,,3,,,44,51
12480,note_on,12,0,2,,,,,,,,1,,,48,48
12480,note_on,12,0,3,,,,,,,,2,,,32,50
12525,control_change,765,0,1,,,,,,,,0,64,0,,
12600,control_change,120,0,3,,,,,,,,2,64,0,,
12600,control_change,120,0,4,,,,,,,,3,64,0,,
12600,control_change,120,0,2,,,,,,,,1,64,0,,
12696,note_on,96,0,2,,,,,,,,1,,,48,0
12696,note_on,0,0,3,,,,,,,,2,,,32,0
12696,note_on,96,0,3,,,,,,,,2,,,41,0
12696,note_on,0,0,4,,,,,,,,3,,,53,0
12696,note_on,96,0,4,,,,,,,,3,,,44,0
12765,control_change,69,0,2,,,,,,,,1,64,127,,
12780,control_change,84,0,4,,,,,,,,3,64,127,,
12839,note_on,314,0,1,,,,,,,,0,,,55,0
12840,note_on,75,0,2,,,,,,,,1,,,53,48
12840,note_on,0,0,4,,,,,,,,3,,,44,47
12840,note_on,144,0,3,,,,,,,,2,,,29,49
12840,note_on,0,0,3,,,,,,,,2,,,32,49
12840,note_on,1,0,1,,,,,,,,0,,,53,56
12840,note_on,60,0,4,,,,,,,,3,,,41,47
12948,note_on,108,0,2,,,,,,,,1,,,53,0
12948,note_on,0,0,3,,,,,,,,2,,,29,0
12948,note_on,108,0,4,,,,,,,,3,,,44,0
12948,note_on,0,0,4,,,,,,,,3,,,41,0
12948,note_on,108,0,3,,,,,,,,2,,,32,0
12948,note_on,108,0,1,,,,,,,,0,,,53,0
12960,note_on,0,0,4,,,,,,,,3,,,48,47
12960,note_on,12,0,4,,,,,,,,3,,,36,47
12960,note_on,12,0,2,,,,,,,,1,,,53,48
12960,control_change,12,0,1,,,,,,,,0,64,127,,
12960,note_on,0,0,1,,,,,,,,0,,,56,64
13013,control_change,53,0,2,,,,,,,,1,64,0,,
13027,control_change,67,0,4,,,,,,,,3,64,0,,
13176,note_on,163,0,2,,,,,,,,1,,,53,0
13176,note_on,149,0,4,,,,,,,,3,,,48,0
13176,note_on,0,0,4,,,,,,,,3,,,36,0
13693,control_change,517,0,2,,,,,,,,1,64,127,,
13733,control_change,557,0,4,,,,,,,,3,64,127,,
13799,note_on,839,0,1,,,,,,,,0,,,56,0
13800,note_on,107,0,2,,,,,,,,1,,,53,48
13800,note_on,1,0,1,,,,,,,,0,,,56,56
13800,note_on,67,0,4,,,,,,,,3,,,36,48
13800,note_on,0,0,4,,,,,,,,3,,,48,48
13908,note_on,108,0,4,,,,,,,,3,,,48,0
13908,note_on,0,0,4,,,,,,,,3,,,36,0
13908,note_on,108,0,2,,,,,,,,1,,,53,0
13919,note_on,119,0,1,,,,,,,,0,,,56,0
13920,note_on,0,0,4,,,,,,,,3,,,48,48
13920,note_on,12,0,2,,,,,,,,1,,,52,48
13920,note_on,0,0,1,,,,,,,,0,,,55,64
13920,control_change,1,0,1,,,,,,,,0,64,0,,
13920,note_on,12,0,4,,,,,,,,3,,,36,48
13973,control_change,53,0,4,,,,,,,,3,64,0,,
14013,control_change,93,0,2,,,,,,,,1,64,0,,
14136,note_on,0,0,4,,,,,,,,3,,,36,0
14136,note_on,123,0,2,,,,,,,,1,,,52,0
14136,note_on,163,0,4,,,,,,,,3,,,48,0
14240,control_change,104,0,2,,,,,,,,1,64,127,,
14253,control_change,117,0,4,,,,,,,,3,64,127,,
14279,note_on,359,0,1,,,,,,,,0,,,55,0
14280,note_on,0,0,4,,,,,,,,3,,,48,48
14280,note_on,1,0,1,,,,,,,,0,,,58,56
14280,note_on,27,0,4,,,,,,,,3,,,36,48
14280,note_on,0,0,2,,,,,,,,1,,,52,48
14280,note_on,40,0,2,,,,,,,,1,,,55,48
14388,note_on,108,0,1,,,,,,,,0,,,58,0
14388,note_on,0,0,4,,,,,,,,3,,,36,0
14388,note_on,108,0,2,,,,,,,,1,,,52,0
14388,note_on,0,0,2,,,,,,,,1,,,55,0
14388,note_on,108,0,4,,,,,,,,3,,,48,0
14400,note_on,12,0,2,,,,,,,,1,,,53,48
14400,note_on,0,0,4,,,,,,,,3,,,48,49
14400,control_change,12,0,1,,,,,,,,0,64,127,,
14400,note_on,0,0,1,,,,,,,,0,,,56,64
14400,note_on,12,0,4,,,,,,,,3,,,41,49
14480,control_change,80,0,4,,,,,,,,3,64,0,,
14520,control_change,120,0,2,,,,,,,,1,64,0,,
14616,note_on,96,0,2,,,,,,,,1,,,53,0
14616,note_on,136,0,4,,,,,,,,3,,,48,0
14616,note_on,0,0,4,,,,,,,,3,,,41,0
15147,control_change,531,0,4,,,,,,,,3,64,127,,
15240,note_on,93,0,4,,,,,,,,3,,,41,43
15240,note_on,0,0,4,,,,,,,,3,,,48,43
15240,note_on,0,0,4,,,,,,,,3,,,56,43
15348,note_on,0,0,4,,,,,,,,3,,,48,0
15348,note_on,108,0,4,,,,,,,,3,,,56,0
15348,note_on,0,0,4,,,,,,,,3,,,41,0
15360,control_change,960,0,1,,,,,,,,0,64,0,,
15360,note_on,12,0,4,,,,,,,,3,,,44,49
15360,note_on,0,0,4,,,,,,,,3,,,48,49
15360,note_on,0,0,4,,,,,,,,3,,,53,49
15507,control_change,147,0,4,,,,,,,,3,64,0,,
15576,note_on,69,0,4,,,,,,,,3,,,53,0
15576,note_on,0,0,4,,,,,,,,3,,,48,0
15576,note_on,0,0,4,,,,,,,,3,,,44,0
15640,control_change,1024,0,2,,,,,,,,1,64,127,,
15680,control_change,104,0,4,,,,,,,,3,64,127,,
15719,note_on,359,0,1,,,,,,,,0,,,56,0
15720,note_on,80,0,2,,,,,,,,1,,,53,51
15720,note_on,0,0,4,,,,,,,,3,,,48,55
15720,note_on,40,0,4,,,,,,,,3,,,41,55
15720,note_on,1,0,1,,,,,,,,0,,,56,73
15828,note_on,108,0,4,,,,,,,,3,,,48,0
15828,note_on,0,0,4,,,,,,,,3,,,41,0
15828,note_on,108,0,1,,,,,,,,0,,,56,0
15828,note_on,108,0,2,,,,,,,,1,,,53,0
15840,note_on,0,0,1,,,,,,,,0,,,60,76
15840,control_change,12,0,1,,,,,,,,0,64,127,,
15840,note_on,12,0,2,,,,,,,,1,,,53,54
15840,note_on,12,0,4,,,,,,,,3,,,44,57
15840,note_on,0,0,4,,,,,,,,3,,,48,57
15960,control_change,120,0,2,,,,,,,,1,64,0,,
16011,control_change,171,0,4,,,,,,,,3,64,0,,
16056,note_on,45,0,4,,,,,,,,3,,,48,0
16056,note_on,0,0,4,,,,,,,,3,,,44,0
16056,note_on,96,0,2,,,,,,,,1,,,53,0
16509,control_change,453,0,4,,,,,,,,3,64,127,,
16526,control_change,470,0,2,,,,,,,,1,64,127,,
16679,note_on,839,0,1,,,,,,,,0,,,60,0
16680,note_on,154,0,2,,,,,,,,1,,,53,71
16680,note_on,0,0,4,,,,,,,,3,,,48,74
16680,note_on,1,0,1,,,,,,,,0,,,60,85
16680,note_on,171,0,4,,,,,,,,3,,,44,74
16766,control_change,86,0,2,,,,,,,,1,64,0,,
16788,note_on,108,0,4,,,,,,,,3,,,48,0
16788,note_on,0,0,4,,,,,,,,3,,,44,0
16788,note_on,22,0,2,,,,,,,,1,,,53,0
16799,note_on,119,0,1,,,,,,,,0,,,60,0
16800,note_on,0,0,4,,,,,,,,3,,,50,76
16800,note_on,12,0,4,,,,,,,,3,,,41,76
16800,note_on,0,0,1,,,,,,,,0,,,62,87
16800,note_on,12,0,2,,,,,,,,1,,,57,73
16800,control_change,1,0,1,,,,,,,,0,64,0,,
16869,control_change,69,0,4,,,,,,,,3,64,0,,
17016,note_on,216,0,2,,,,,,,,1,,,57,0
17016,note_on,147,0,4,,,,,,,,3,,,50,0
17016,note_on,0,0,4,,,,,,,,3,,,41,0
17091,control_change,75,0,4,,,,,,,,3,64,127,,
17159,note_on,359,0,1,,,,,,,,0,,,62,0
17160,note_on,0,0,4,,,,,,,,3,,,50,84
17160,note_on,1,0,1,,,,,,,,0,,,60,86
17160,note_on,144,0,2,,,,,,,,1,,,53,80
17160,note_on,69,0,4,,,,,,,,3,,,44,84
17268,note_on,108,0,4,,,,,,,,3,,,50,0
17268,note_on,0,0,4,,,,,,,,3,,,44,0
17268,note_on,108,0,1,,,,,,,,0,,,60,0
17268,note_on,108,0,2,,,,,,,,1,,,53,0
17280,control_change,12,0,2,,,,,,,,1,64,127,,
17280,control_change,12,0,1,,,,,,,,0,64,127,,
17280,note_on,0,0,1,,,,,,,,0,,,60,94
17280,note_on,12,0,4,,,,,,,,3,,,51,86
17280,note_on,0,0,4,,,,,,,,3,,,43,86
17280,note_on,0,0,2,,,,,,,,1,,,55,82
17320,control_change,40,0,4,,,,,,,,3,64,0,,
17712,note_on,0,0,4,,,,,,,,3,,,51,0
17712,note_on,392,0,4,,,,,,,,3,,,43,0
17747,control_change,35,0,4,,,,,,,,3,64,127,,
17759,note_on,479,0,1,,,,,,,,0,,,60,0
17760,note_on,13,0,4,,,,,,,,3,,,43,86
17760,note_on,0,0,4,,,,,,,,3,,,50,86
17760,note_on,1,0,1,,,,,,,,0,,,59,96
17897,control_change,137,0,4,,,,,,,,3,64,0,,
17976,note_on,0,0,4,,,,,,,,3,,,43,0
17976,note_on,79,0,4,,,,,,,,3,,,50,0
17976,note_on,696,0,2,,,,,,,,1,,,55,0
18067,control_change,91,0,4,,,,,,,,3,64,127,,
18119,note_on,359,0,1,,,,,,,,0,,,59,0
18120,note_on,0,0,1,,,,,,,,0,,,55,91
18120,note_on,0,0,4,,,,,,,,3,,,50,84
18120,note_on,53,0,4,,,,,,,,3,,,38,84
18120,note_on,0,0,2,,,,,,,,1,,,55,84
18120,note_on,144,0,2,,,,,,,,1,,,58,84
18120,note_on,1,0,1,,,,,,,,0,,,59,91
18228,note_on,0,0,4,,,,,,,,3,,,38,0
18228,note_on,108,0,4,,,,,,,,3,,,50,0
18228,note_on,108,0,2,,,,,,,,1,,,55,0
18228,note_on,0,0,2,,,,,,,,1,,,58,0
18239,note_on,119,0,1,,,,,,,,0,,,55,0
18239,note_on,0,0,1,,,,,,,,0,,,59,0
18240,note_on,0,0,2,,,,,,,,1,,,55,84
18240,control_change,1,0,1,,,,,,,,0,64,0,,
18240,note_on,0,0,1,,,,,,,,0,,,60,96
18240,note_on,12,0,2,,,,,,,,1,,,60,84
18240,note_on,12,0,4,,,,,,,,3,,,51,84
18240,note_on,0,0,4,,,,,,,,3,,,39,84
18240,note_on,0,0,1,,,,,,,,0,,,55,96
18253,control_change,13,0,2,,,,,,,,1,64,0,,
18347,control_change,107,0,4,,,,,,,,3,64,0,,
18456,note_on,109,0,4,,,,,,,,3,,,39,0
18456,note_on,0,0,4,,,,,,,,3,,,51,0
18456,note_on,203,0,2,,,,,,,,1,,,55,0
18456,note_on,0,0,2,,,,,,,,1,,,60,0
18467,control_change,11,0,4,,,,,,,,3,64,127,,
18599,note_on,359,0,1,,,,,,,,0,,,55,0
18599,note_on,0,0,1,,,,,,,,0,,,60,0
18600,note_on,1,0,1,,,,,,,,0,,,60,90
18600,note_on,0,0,2,,,,,,,,1,,,51,84
18600,note_on,144,0,2,,,,,,,,1,,,55,84
18600,note_on,0,0,1,,,,,,,,0,,,55,90
18600,note_on,0,0,4,,,,,,,,3,,,48,84
18600,note_on,0,0,1,,,,,,,,0,,,51,90
18600,note_on,133,0,4,,,,,,,,3,,,36,84
18708,note_on,0,0,1,,,,,,,,0,,,60,0
18708,note_on,0,0,1,,,,,,,,0,,,55,0
18708,note_on,108,0,1,,,,,,,,0,,,51,0
18708,note_on,108,0,2,,,,,,,,1,,,51,0
18708,note_on,0,0,2,,,,,,,,1,,,55,0
18708,note_on,108,0,4,,,,,,,,3,,,48,0
18708,note_on,0,0,4,,,,,,,,3,,,36,0
18720,control_change,12,0,2,,,,,,,,1,64,127,,
18720,note_on,0,0,2,,,,,,,,1,,,51,79
18720,control_change,12,0,1,,,,,,,,0,64,127,,
18720,note_on,12,0,4,,,,,,,,3,,,31,79
18720,note_on,0,0,1,,,,,,,,0,,,63,95
18756,note_on,36,0,2,,,,,,,,1,,,51,0
18760,note_on,40,0,4,,,,,,,,3,,,43,79
18760,note_on,4,0,2,,,,,,,,1,,,55,79
18796,note_on,36,0,2,,,,,,,,1,,,55,0
18800,note_on,40,0,4,,,,,,,,3,,,48,78
18840,note_on,40,0,4,,,,,,,,3,,,39,77
18948,note_on,108,0,4,,,,,,,,3,,,39,0
18948,note_on,0,0,4,,,,,,,,3,,,31,0
18948,note_on,0,0,4,,,,,,,,3,,,43,0
18948,note_on,0,0,4,,,,,,,,3,,,48,0
19011,control_change,63,0,4,,,,,,,,3,64,0,,
19079,note_on,359,0,1,,,,,,,,0,,,63,0
19080,note_on,1,0,1,,,,,,,,0,,,63,84
19199,note_on,119,0,1,,,,,,,,0,,,63,0
19200,note_on,1,0,1,,,,,,,,0,,,63,94
19577,control_change,566,0,4,,,,,,,,3,64,127,,
19640,note_on,844,0,2,,,,,,,,1,,,53,64
19679,note_on,479,0,1,,,,,,,,0,,,63,0
19680,control_change,1,0,1,,,,,,,,0,64,0,,
19680,note_on,0,0,2,,,,,,,,1,,,55,70
19680,control_change,40,0,2,,,,,,,,1,64,0,,
19680,note_on,0,0,1,,,,,,,,0,,,63,79
19680,note_on,103,0,4,,,,,,,,3,,,31,58
19720,note_on,40,0,2,,,,,,,,1,,,63,74
19740,note_on,60,0,4,,,,,,,,3,,,47,56
19828,note_on,0,0,2,,,,,,,,1,,,53,0
19828,note_on,0,0,2,,,,,,,,1,,,55,0
19828,note_on,108,0,2,,,,,,,,1,,,63,0
19908,note_on,168,0,4,,,,,,,,3,,,47,0
19908,note_on,0,0,4,,,,,,,,3,,,31,0
19989,control_change,81,0,4,,,,,,,,3,64,0,,
20039,note_on,359,0,1,,,,,,,,0,,,63,0
20040,note_on,1,0,1,,,,,,,,0,,,62,56
20148,note_on,108,0,1,,,,,,,,0,,,62,0
20160,note_on,0,0,2,,,,,,,,1,,,51,64
20160,control_change,332,0,2,,,,,,,,1,64,127,,
20160,control_change,171,0,4,,,,,,,,3,64,127,,
20160,note_on,0,0,4,,,,,,,,3,,,24,47
20160,control_change,12,0,1,,,,,,,,0,64,127,,
20160,note_on,0,0,1,,,,,,,,0,,,60,64
20160,note_on,0,0,2,,,,,,,,1,,,48,64
20160,note_on,0,0,2,,,,,,,,1,,,55,64
20214,note_on,54,0,4,,,,,,,,3,,,24,0
20220,note_on,6,0,4,,,,,,,,3,,,36,43
20274,note_on,54,0,4,,,,,,,,3,,,36,0
20280,note_on,6,0,4,,,,,,,,3,,,24,43
20334,note_on,54,0,4,,,,,,,,3,,,24,0
20340,note_on,6,0,4,,,,,,,,3,,,36,43
20394,note_on,54,0,4,,,,,,,,3,,,36,0
20400,note_on,6,0,4,,,,,,,,3,,,24,43
20454,note_on,54,0,4,,,,,,,,3,,,24,0
20460,note_on,6,0,4,,,,,,,,3,,,36,43
20514,note_on,54,0,4,,,,,,,,3,,,36,0
20520,note_on,6,0,4,,,,,,,,3,,,24,43
20574,note_on,54,0,4,,,,,,,,3,,,24,0
20580,note_on,6,0,4,,,,,,,,3,,,36,43
20592,note_on,432,0,2,,,,,,,,1,,,48,0
20592,note_on,0,0,2,,,,,,,,1,,,51,0
20592,note_on,0,0,2,,,,,,,,1,,,55,0
20634,note_on,54,0,4,,,,,,,,3,,,36,0
20640,note_on,6,0,4,,,,,,,,3,,,24,43
20760,control_change,120,0,4,,,,,,,,3,64,0,,
20856,note_on,96,0,4,,,,,,,,3,,,24,0
21024,note_on,864,0,1,,,,,,,,0,,,60,0
21120,control_change,96,0,1,,,,,,,,0,64,0,,
21120,control_change,528,0,2,,,,,,,,1,64,0,,
21120,note_on,264,0,4,,,,,,,,3,,,24,43
21336,note_on,216,0,4,,,,,,,,3,,,24,0
21600,control_change,264,0,4,,,,,,,,3,64,127,,
21600,note_on,0,0,4,,,,,,,,3,,,24,43
21654,note_on,54,0,4,,,,,,,,3,,,24,0
21660,note_on,6,0,4,,,,,,,,3,,,36,43
21714,note_on,54,0,4,,,,,,,,3,,,36,0
21720,note_on,6,0,4,,,,,,,,3,,,24,43
21774,note_on,54,0,4,,,,,,,,3,,,24,0
21780,note_on,6,0,4,,,,,,,,3,,,36,43
21834,note_on,54,0,4,,,,,,,,3,,,36,0
21840,note_on,6,0,4,,,,,,,,3,,,24,43
21894,note_on,54,0,4,,,,,,,,3,,,24,0
21900,note_on,6,0,4,,,,,,,,3,,,36,43
21954,note_on,54,0,4,,,,,,,,3,,,36,0
21960,note_on,6,0,4,,,,,,,,3,,,24,43
22014,note_on,54,0,4,,,,,,,,3,,,24,0
22020,note_on,6,0,4,,,,,,,,3,,,36,43
22074,note_on,54,0,4,,,,,,,,3,,,36,0
22080,note_on,6,0,4,,,,,,,,3,,,24,43
22166,control_change,86,0,4,,,,,,,,3,64,0,,
22296,note_on,130,0,4,,,,,,,,3,,,24,0
22560,note_on,264,0,4,,,,,,,,3,,,24,64
22776,note_on,216,0,4,,,,,,,,3,,,24,0
23040,note_on,0,0,4,,,,,,,,3,,,24,35
23040,control_change,264,0,4,,,,,,,,3,64,127,,
23040,marker,12960,1,0,,,,,,,,,,,,
23040,control_change,1920,0,1,,,,,,,,0,64,127,,
23040,note_on,0,0,1,,,,,,,,0,,,69,34
23093,note_on,0,0,1,,,,,,,,0,,,72,34
23093,note_on,53,0,1,,,,,,,,0,,,69,0
23094,note_on,54,0,4,,,,,,,,3,,,24,0
23100,note_on,6,0,4,,,,,,,,3,,,36,35
23146,note_on,53,0,1,,,,,,,,0,,,72,0
23146,note_on,0,0,1,,,,,,,,0,,,75,34
23154,note_on,54,0,4,,,,,,,,3,,,36,0
23160,note_on,6,0,4,,,,,,,,3,,,24,35
23199,note_on,53,0,1,,,,,,,,0,,,75,0
23200,note_on,1,0,1,,,,,,,,0,,,78,34
23214,note_on,54,0,4,,,,,,,,3,,,24,0
23220,note_on,6,0,4,,,,,,,,3,,,36,35
23253,note_on,53,0,1,,,,,,,,0,,,78,0
23253,note_on,0,0,1,,,,,,,,0,,,81,34
23274,note_on,54,0,4,,,,,,,,3,,,36,0
23280,note_on,6,0,4,,,,,,,,3,,,24,35
23306,note_on,0,0,1,,,,,,,,0,,,78,34
23306,note_on,53,0,1,,,,,,,,0,,,81,0
23334,note_on,54,0,4,,,,,,,,3,,,24,0
23340,note_on,6,0,4,,,,,,,,3,,,36,35
23359,note_on,53,0,1,,,,,,,,0,,,78,0
23360,note_on,1,0,1,,,,,,,,0,,,75,34
23394,note_on,54,0,4,,,,,,,,3,,,36,0
23400,note_on,6,0,4,,,,,,,,3,,,24,35
23413,note_on,53,0,1,,,,,,,,0,,,75,0
23413,note_on,0,0,1,,,,,,,,0,,,72,34
23440,control_change,40,0,4,,,,,,,,3,64,0,,
23454,note_on,14,0,4,,,,,,,,3,,,24,0
23456,control_change,2336,0,2,,,,,,,,1,64,127,,
23460,note_on,6,0,4,,,,,,,,3,,,36,35
23466,note_on,53,0,1,,,,,,,,0,,,72,0
23466,note_on,0,0,1,,,,,,,,0,,,69,34
23514,note_on,54,0,4,,,,,,,,3,,,36,0
23519,note_on,53,0,1,,,,,,,,0,,,69,0
23520,note_on,0,0,2,,,,,,,,1,,,66,64
23520,note_on,64,0,2,,,,,,,,1,,,69,64
23520,note_on,6,0,4,,,,,,,,3,,,24,35
23520,note_on,0,0,2,,,,,,,,1,,,63,64
23520,note_on,0,0,2,,,,,,,,1,,,60,64
23736,note_on,0,0,2,,,,,,,,1,,,63,0
23736,note_on,0,0,2,,,,,,,,1,,,69,0
23736,note_on,0,0,2,,,,,,,,1,,,66,0
23736,note_on,216,0,4,,,,,,,,3,,,24,0
23736,note_on,216,0,2,,,,,,,,1,,,60,0
23760,note_on,24,0,2,,,,,,,,1,,,57,49
23768,control_change,10820,0,3,,,,,,,,2,64,127,,
23868,note_on,108,0,2,,,,,,,,1,,,57,0
23904,control_change,168,0,4,,,,,,,,3,64,127,,
24000,note_on,0,0,3,,,,,,,,2,,,54,64
24000,note_on,232,0,3,,,,,,,,2,,,57,64
24000,note_on,0,0,3,,,,,,,,2,,,48,64
24000,control_change,481,0,1,,,,,,,,0,64,0,,
24000,note_on,96,0,4,,,,,,,,3,,,24,35
24000,note_on,0,0,3,,,,,,,,2,,,51,64
24040,note_on,40,0,4,,,,,,,,3,,,27,35
24080,note_on,40,0,4,,,,,,,,3,,,30,35
24120,note_on,40,0,4,,,,,,,,3,,,33,35
24160,note_on,40,0,4,,,,,,,,3,,,37,35
24196,note_on,36,0,4,,,,,,,,3,,,37,0
24200,note_on,4,0,4,,,,,,,,3,,,36,35
24216,note_on,0,0,3,,,,,,,,2,,,54,0
24216,note_on,216,0,3,,,,,,,,2,,,48,0
24216,note_on,0,0,3,,,,,,,,2,,,51,0
24216,note_on,0,0,3,,,,,,,,2,,,57,0
24240,note_on,24,0,3,,,,,,,,2,,,45,50
24308,note_on,0,0,4,,,,,,,,3,,,30,0
24308,note_on,0,0,4,,,,,,,,3,,,27,0
24308,note_on,0,0,4,,,,,,,,3,,,24,0
24308,note_on,0,0,4,,,,,,,,3,,,33,0
24308,note_on,108,0,4,,,,,,,,3,,,36,0
24348,note_on,108,0,3,,,,,,,,2,,,45,0
24408,control_change,100,0,4,,,,,,,,3,64,0,,
24416,control_change,548,0,2,,,,,,,,1,64,0,,
24480,note_on,0,0,1,,,,,,,,0,,,69,34
24480,control_change,480,0,1,,,,,,,,0,64,127,,
24480,note_on,0,0,4,,,,,,,,3,,,24,35
24480,control_change,72,0,4,,,,,,,,3,64,127,,
24533,note_on,53,0,1,,,,,,,,0,,,69,0
24533,note_on,0,0,1,,,,,,,,0,,,72,34
24534,note_on,54,0,4,,,,,,,,3,,,24,0
24540,note_on,6,0,4,,,,,,,,3,,,36,35
24586,note_on,53,0,1,,,,,,,,0,,,72,0
24586,note_on,0,0,1,,,,,,,,0,,,75,34
24594,note_on,54,0,4,,,,,,,,3,,,36,0
24600,note_on,6,0,4,,,,,,,,3,,,24,35
24639,note_on,53,0,1,,,,,,,,0,,,75,0
24640,note_on,1,0,1,,,,,,,,0,,,78,34
24654,note_on,54,0,4,,,,,,,,3,,,24,0
24660,note_on,6,0,4,,,,,,,,3,,,36,35
24680,control_change,264,0,2,,,,,,,,1,64,127,,
24693,note_on,0,0,1,,,,,,,,0,,,81,34
24693,note_on,53,0,1,,,,,,,,0,,,78,0
24714,note_on,54,0,4,,,,,,,,3,,,36,0
24720,note_on,6,0,4,,,,,,,,3,,,24,35
24728,control_change,380,0,3,,,,,,,,2,64,0,,
24746,note_on,0,0,1,,,,,,,,0,,,78,34
24746,note_on,53,0,1,,,,,,,,0,,,81,0
24774,note_on,54,0,4,,,,,,,,3,,,24,0
24780,note_on,6,0,4,,,,,,,,3,,,36,35
24799,note_on,53,0,1,,,,,,,,0,,,78,0
24800,note_on,1,0,1,,,,,,,,0,,,75,34
24834,note_on,54,0,4,,,,,,,,3,,,36,0
24840,note_on,6,0,4,,,,,,,,3,,,24,35
24853,note_on,53,0,1,,,,,,,,0,,,75,0
24853,note_on,0,0,1,,,,,,,,0,,,72,34
24888,control_change,48,0,4,,,,,,,,3,64,0,,
24894,note_on,6,0,4,,,,,,,,3,,,24,0
24900,note_on,6,0,4,,,,,,,,3,,,36,35
24906,note_on,53,0,1,,,,,,,,0,,,72,0
24906,note_on,0,0,1,,,,,,,,0,,,69,34
24954,note_on,54,0,4,,,,,,,,3,,,36,0
24959,note_on,53,0,1,,,,,,,,0,,,69,0
24960,note_on,0,0,2,,,,,,,,1,,,60,64
24960,note_on,0,0,2,,,,,,,,1,,,63,64
24960,note_on,0,0,2,,,,,,,,1,,,66,64
24960,note_on,6,0,4,,,,,,,,3,,,24,35
24960,note_on,280,0,2,,,,,,,,1,,,69,64
25168,control_change,440,0,3,,,,,,,,2,64,127,,
25176,note_on,0,0,2,,,,,,,,1,,,69,0
25176,note_on,0,0,2,,,,,,,,1,,,63,0
25176,note_on,216,0,4,,,,,,,,3,,,24,0
25176,note_on,216,0,2,,,,,,,,1,,,60,0
25176,note_on,0,0,2,,,,,,,,1,,,66,0
25200,note_on,24,0,2,,,,,,,,1,,,57,49
25308,note_on,108,0,2,,,,,,,,1,,,57,0
25360,control_change,184,0,4,,,,,,,,3,64,127,,
25440,note_on,0,0,3,,,,,,,,2,,,54,64
25440,note_on,0,0,3,,,,,,,,2,,,51,64
25440,note_on,0,0,3,,,,,,,,2,,,48,64
25440,control_change,481,0,1,,,,,,,,0,64,0,,
25440,note_on,80,0,4,,,,,,,,3,,,24,35
25440,note_on,272,0,3,,,,,,,,2,,,57,64
25480,note_on,40,0,4,,,,,,,,3,,,27,35
25520,note_on,40,0,4,,,,,,,,3,,,30,35
25560,note_on,40,0,4,,,,,,,,3,,,33,35
25600,note_on,40,0,4,,,,,,,,3,,,37,35
25636,note_on,36,0,4,,,,,,,,3,,,37,0
25640,note_on,4,0,4,,,,,,,,3,,,36,35
25640,control_change,332,0,2,,,,,,,,1,64,0,,
25656,note_on,0,0,3,,,,,,,,2,,,54,0
25656,note_on,0,0,3,,,,,,,,2,,,51,0
25656,note_on,0,0,3,,,,,,,,2,,,57,0
25656,note_on,216,0,3,,,,,,,,2,,,48,0
25680,note_on,24,0,3,,,,,,,,2,,,45,65
25748,note_on,0,0,4,,,,,,,,3,,,24,0
25748,note_on,0,0,4,,,,,,,,3,,,33,0
25748,note_on,0,0,4,,,,,,,,3,,,27,0
25748,note_on,0,0,4,,,,,,,,3,,,30,0
25748,note_on,108,0,4,,,,,,,,3,,,36,0
25788,note_on,108,0,3,,,,,,,,2,,,45,0
25840,control_change,92,0,4,,,,,,,,3,64,0,,
25840,control_change,52,0,3,,,,,,,,2,64,0,,
25860,note_on,0,0,3,,,,,,,,2,,,48,62
25860,note_on,20,0,3,,,,,,,,2,,,60,62
25914,note_on,54,0,3,,,,,,,,2,,,48,0
25914,note_on,0,0,3,,,,,,,,2,,,60,0
25920,note_on,0,0,4,,,,,,,,3,,,48,28
25920,note_on,0,0,1,,,,,,,,0,,,69,27
25920,control_change,80,0,4,,,,,,,,3,64,127,,
25920,note_on,0,0,3,,,,,,,,2,,,48,70
25920,note_on,0,0,3,,,,,,,,2,,,60,70
25920,control_change,480,0,1,,,,,,,,0,64,127,,
25920,control_change,280,0,2,,,,,,,,1,64,127,,
25920,control_change,6,0,3,,,,,,,,2,64,127,,
25973,note_on,53,0,1,,,,,,,,0,,,69,0
25973,note_on,0,0,1,,,,,,,,0,,,72,27
25974,note_on,54,0,4,,,,,,,,3,,,48,0
25980,note_on,0,0,4,,,,,,,,3,,,54,28
25980,note_on,6,0,4,,,,,,,,3,,,57,28
26026,note_on,53,0,1,,,,,,,,0,,,72,0
26026,note_on,0,0,1,,,,,,,,0,,,75,27
26034,note_on,0,0,4,,,,,,,,3,,,57,0
26034,note_on,54,0,4,,,,,,,,3,,,54,0
26040,note_on,6,0,4,,,,,,,,3,,,48,31
26079,note_on,53,0,1,,,,,,,,0,,,75,0
26080,note_on,1,0,1,,,,,,,,0,,,78,27
26094,note_on,54,0,4,,,,,,,,3,,,48,0
26100,note_on,6,0,4,,,,,,,,3,,,57,34
26100,note_on,0,0,4,,,,,,,,3,,,54,34
26133,note_on,53,0,1,,,,,,,,0,,,78,0
26133,note_on,0,0,1,,,,,,,,0,,,81,27
26154,note_on,54,0,4,,,,,,,,3,,,54,0
26154,note_on,0,0,4,,,,,,,,3,,,57,0
26160,note_on,6,0,4,,,,,,,,3,,,48,37
26186,note_on,53,0,1,,,,,,,,0,,,81,0
26186,note_on,0,0,1,,,,,,,,0,,,78,27
26214,note_on,54,0,4,,,,,,,,3,,,48,0
26220,note_on,6,0,4,,,,,,,,3,,,57,40
26220,note_on,0,0,4,,,,,,,,3,,,54,40
26239,note_on,53,0,1,,,,,,,,0,,,78,0
26240,note_on,1,0,1,,,,,,,,0,,,75,27
26274,note_on,0,0,4,,,,,,,,3,,,57,0
26274,note_on,54,0,4,,,,,,,,3,,,54,0
26279,note_on,0,0,3,,,,,,,,2,,,60,0
26279,note_on,359,0,3,,,,,,,,2,,,48,0
26280,note_on,1,0,3,,,,,,,,2,,,60,81
26280,note_on,6,0,4,,,,,,,,3,,,48,44
26280,note_on,0,0,3,,,,,,,,2,,,48,81
26293,note_on,53,0,1,,,,,,,,0,,,75,0
26293,note_on,0,0,1,,,,,,,,0,,,72,27
26334,note_on,54,0,4,,,,,,,,3,,,48,0
26340,note_on,0,0,4,,,,,,,,3,,,54,47
26340,note_on,6,0,4,,,,,,,,3,,,57,47
26346,note_on,0,0,1,,,,,,,,0,,,69,27
26346,note_on,53,0,1,,,,,,,,0,,,72,0
26394,note_on,54,0,4,,,,,,,,3,,,54,0
26394,note_on,0,0,4,,,,,,,,3,,,57,0
26399,note_on,0,0,3,,,,,,,,2,,,60,0
26399,note_on,53,0,1,,,,,,,,0,,,69,0
26399,note_on,119,0,3,,,,,,,,2,,,48,0
26400,note_on,0,0,2,,,,,,,,1,,,54,51
26400,note_on,0,0,2,,,,,,,,1,,,48,51
26400,note_on,480,0,2,,,,,,,,1,,,57,51
26400,note_on,1,0,3,,,,,,,,2,,,51,80
26416,control_change,22,0,4,,,,,,,,3,64,0,,
26440,note_on,40,0,3,,,,,,,,2,,,54,84
26480,note_on,40,0,3,,,,,,,,2,,,57,88
26520,note_on,40,0,3,,,,,,,,2,,,63,93
26616,note_on,0,0,2,,,,,,,,1,,,57,0
26616,note_on,0,0,2,,,,,,,,1,,,54,0
26616,note_on,216,0,2,,,,,,,,1,,,48,0
26639,note_on,0,0,3,,,,,,,,2,,,54,0
26639,note_on,119,0,3,,,,,,,,2,,,57,0
26640,note_on,24,0,2,,,,,,,,1,,,45,51
26664,control_change,248,0,4,,,,,,,,3,64,127,,
26748,note_on,108,0,2,,,,,,,,1,,,45,0
26760,note_on,96,0,4,,,,,,,,3,,,36,40
26768,control_change,129,0,3,,,,,,,,2,64,0,,
26800,note_on,40,0,4,,,,,,,,3,,,39,44
26840,note_on,0,0,4,,,,,,,,3,,,45,47
26840,note_on,40,0,4,,,,,,,,3,,,42,47
26880,control_change,112,0,3,,,,,,,,2,64,127,,
26880,note_on,40,0,4,,,,,,,,3,,,48,51
26880,note_on,0,0,2,,,,,,,,1,,,45,51
26880,note_on,0,0,2,,,,,,,,1,,,42,51
26880,note_on,0,0,2,,,,,,,,1,,,39,51
26880,note_on,0,0,2,,,,,,,,1,,,36,51
26880,control_change,132,0,2,,,,,,,,1,64,0,,
26880,control_change,481,0,1,,,,,,,,0,64,0,,
26988,note_on,0,0,4,,,,,,,,3,,,45,0
26988,note_on,0,0,4,,,,,,,,3,,,42,0
26988,note_on,0,0,4,,,,,,,,3,,,36,0
26988,note_on,0,0,4,,,,,,,,3,,,39,0
26988,note_on,108,0,4,,,,,,,,3,,,48,0
27096,note_on,216,0,2,,,,,,,,1,,,45,0
27096,note_on,0,0,2,,,,,,,,1,,,36,0
27096,note_on,0,0,2,,,,,,,,1,,,39,0
27096,note_on,0,0,2,,,,,,,,1,,,42,0
27120,note_on,24,0,2,,,,,,,,1,,,33,51
27228,note_on,108,0,2,,,,,,,,1,,,33,0
27239,note_on,359,0,3,,,,,,,,2,,,51,0
27239,note_on,0,0,3,,,,,,,,2,,,63,0
27240,note_on,1,0,3,,,,,,,,2,,,62,89
27240,note_on,0,0,3,,,,,,,,2,,,50,89
27272,control_change,284,0,4,,,,,,,,3,64,0,,
27336,control_change,64,0,4,,,,,,,,3,64,127,,
27348,note_on,0,0,3,,,,,,,,2,,,62,0
27348,note_on,108,0,3,,,,,,,,2,,,50,0
27360,note_on,24,0,4,,,,,,,,3,,,50,23
27360,note_on,0,0,3,,,,,,,,2,,,50,94
27360,note_on,12,0,3,,,,,,,,2,,,62,94
27360,control_change,480,0,1,,,,,,,,0,64,127,,
27360,note_on,0,0,1,,,,,,,,0,,,69,53
27413,note_on,53,0,1,,,,,,,,0,,,69,0
27413,note_on,0,0,1,,,,,,,,0,,,72,50
27414,note_on,54,0,4,,,,,,,,3,,,50,0
27420,note_on,6,0,4,,,,,,,,3,,,57,49
27420,note_on,0,0,4,,,,,,,,3,,,54,49
27466,note_on,53,0,1,,,,,,,,0,,,72,0
27466,note_on,0,0,1,,,,,,,,0,,,75,48
27474,note_on,54,0,4,,,,,,,,3,,,54,0
27474,note_on,0,0,4,,,,,,,,3,,,57,0
27480,note_on,6,0,4,,,,,,,,3,,,50,46
27519,note_on,53,0,1,,,,,,,,0,,,75,0
27520,note_on,1,0,1,,,,,,,,0,,,78,44
27534,note_on,54,0,4,,,,,,,,3,,,50,0
27540,note_on,6,0,4,,,,,,,,3,,,57,42
27540,note_on,0,0,4,,,,,,,,3,,,54,42
27573,note_on,0,0,1,,,,,,,,0,,,81,41
27573,note_on,53,0,1,,,,,,,,0,,,78,0
27594,note_on,54,0,4,,,,,,,,3,,,54,0
27594,note_on,0,0,4,,,,,,,,3,,,57,0
27600,note_on,6,0,4,,,,,,,,3,,,50,39
27626,note_on,0,0,1,,,,,,,,0,,,78,38
27626,note_on,53,0,1,,,,,,,,0,,,81,0
27654,note_on,54,0,4,,,,,,,,3,,,50,0
27660,note_on,6,0,4,,,,,,,,3,,,57,35
27660,note_on,0,0,4,,,,,,,,3,,,54,35
27679,note_on,53,0,1,,,,,,,,0,,,78,0
27680,note_on,1,0,1,,,,,,,,0,,,75,35
27714,note_on,54,0,4,,,,,,,,3,,,54,0
27714,note_on,0,0,4,,,,,,,,3,,,57,0
27720,note_on,6,0,4,,,,,,,,3,,,50,32
27733,note_on,0,0,1,,,,,,,,0,,,72,32
27733,note_on,53,0,1,,,,,,,,0,,,75,0
27774,note_on,54,0,4,,,,,,,,3,,,50,0
27780,note_on,0,0,4,,,,,,,,3,,,54,28
27780,note_on,6,0,4,,,,,,,,3,,,57,28
27786,note_on,53,0,1,,,,,,,,0,,,72,0
27786,note_on,0,0,1,,,,,,,,0,,,69,29
27792,note_on,0,0,3,,,,,,,,2,,,62,0
27792,note_on,432,0,3,,,,,,,,2,,,50,0
27834,note_on,54,0,4,,,,,,,,3,,,54,0
27834,note_on,0,0,4,,,,,,,,3,,,57,0
27839,note_on,53,0,1,,,,,,,,0,,,69,0
27840,control_change,48,0,3,,,,,,,,2,64,0,,
27840,note_on,0,0,2,,,,,,,,1,,,63,51
27840,note_on,6,0,4,,,,,,,,3,,,48,24
27840,note_on,612,0,2,,,,,,,,1,,,69,51
27840,note_on,0,0,2,,,,,,,,1,,,66,51
27880,note_on,40,0,4,,,,,,,,3,,,54,40
27920,note_on,40,0,4,,,,,,,,3,,,57,41
27960,note_on,40,0,4,,,,,,,,3,,,60,43
28056,note_on,216,0,2,,,,,,,,1,,,63,0
28056,note_on,0,0,2,,,,,,,,1,,,66,0
28056,note_on,0,0,2,,,,,,,,1,,,69,0
28068,note_on,108,0,4,,,,,,,,3,,,57,0
28068,note_on,0,0,4,,,,,,,,3,,,54,0
28080,note_on,24,0,2,,,,,,,,1,,,57,60
28188,note_on,108,0,2,,,,,,,,1,,,57,0
28224,control_change,384,0,3,,,,,,,,2,64,127,,
28240,control_change,52,0,2,,,,,,,,1,64,127,,
28296,control_change,228,0,4,,,,,,,,3,64,0,,
28320,note_on,0,0,2,,,,,,,,1,,,48,60
28320,note_on,0,0,2,,,,,,,,1,,,54,60
28320,note_on,96,0,3,,,,,,,,2,,,36,82
28320,note_on,80,0,2,,,,,,,,1,,,57,60
28320,control_change,481,0,1,,,,,,,,0,64,0,,
28320,note_on,0,0,2,,,,,,,,1,,,51,60
28360,note_on,40,0,3,,,,,,,,2,,,39,85
28400,note_on,40,0,3,,,,,,,,2,,,42,88
28400,note_on,0,0,3,,,,,,,,2,,,45,88
28440,note_on,40,0,3,,,,,,,,2,,,48,92
28536,note_on,0,0,2,,,,,,,,1,,,51,0
28536,note_on,0,0,2,,,,,,,,1,,,54,0
28536,note_on,0,0,2,,,,,,,,1,,,57,0
28536,note_on,216,0,2,,,,,,,,1,,,48,0
28548,note_on,0,0,3,,,,,,,,2,,,42,0
28548,note_on,0,0,3,,,,,,,,2,,,36,0
28548,note_on,108,0,3,,,,,,,,2,,,48,0
28548,note_on,0,0,3,,,,,,,,2,,,45,0
28548,note_on,0,0,3,,,,,,,,2,,,39,0
28560,note_on,24,0,2,,,,,,,,1,,,45,64
28668,note_on,0,0,4,,,,,,,,3,,,60,0
28668,note_on,372,0,4,,,,,,,,3,,,48,0
28668,note_on,108,0,2,,,,,,,,1,,,45,0
28680,note_on,0,0,4,,,,,,,,3,,,46,51
28680,note_on,12,0,4,,,,,,,,3,,,58,51
28788,note_on,108,0,4,,,,,,,,3,,,46,0
28788,note_on,0,0,4,,,,,,,,3,,,58,0
28800,note_on,252,0,3,,,,,,,,2,,,57,92
28800,note_on,0,0,3,,,,,,,,2,,,45,92
28800,control_change,480,0,1,,,,,,,,0,64,127,,
28800,control_change,12,0,4,,,,,,,,3,64,127,,
28800,note_on,0,0,4,,,,,,,,3,,,45,34
28800,note_on,0,0,1,,,,,,,,0,,,69,34
28853,note_on,53,0,1,,,,,,,,0,,,69,0
28853,note_on,0,0,1,,,,,,,,0,,,72,38
28854,note_on,54,0,4,,,,,,,,3,,,45,0
28860,note_on,6,0,4,,,,,,,,3,,,54,37
28860,note_on,0,0,4,,,,,,,,3,,,51,37
28906,note_on,53,0,1,,,,,,,,0,,,72,0
28906,note_on,0,0,1,,,,,,,,0,,,75,41
28914,note_on,54,0,4,,,,,,,,3,,,51,0
28914,note_on,0,0,4,,,,,,,,3,,,54,0
28920,note_on,6,0,4,,,,,,,,3,,,45,41
28959,note_on,53,0,1,,,,,,,,0,,,75,0
28960,note_on,1,0,1,,,,,,,,0,,,78,46
28974,note_on,54,0,4,,,,,,,,3,,,45,0
28980,note_on,0,0,4,,,,,,,,3,,,51,45
28980,note_on,6,0,4,,,,,,,,3,,,54,45
29013,note_on,53,0,1,,,,,,,,0,,,78,0
29013,note_on,0,0,1,,,,,,,,0,,,81,49
29016,note_on,0,0,3,,,,,,,,2,,,57,0
29016,note_on,216,0,3,,,,,,,,2,,,45,0
29034,note_on,54,0,4,,,,,,,,3,,,51,0
29034,note_on,0,0,4,,,,,,,,3,,,54,0
29040,note_on,6,0,4,,,,,,,,3,,,45,49
29066,note_on,0,0,1,,,,,,,,0,,,78,53
29066,note_on,53,0,1,,,,,,,,0,,,81,0
29094,note_on,54,0,4,,,,,,,,3,,,45,0
29100,note_on,6,0,4,,,,,,,,3,,,54,52
29100,note_on,0,0,4,,,,,,,,3,,,51,52
29119,note_on,53,0,1,,,,,,,,0,,,78,0
29120,note_on,1,0,1,,,,,,,,0,,,75,57
29154,note_on,0,0,4,,,,,,,,3,,,54,0
29154,note_on,54,0,4,,,,,,,,3,,,51,0
29160,note_on,6,0,4,,,,,,,,3,,,57,56
29160,note_on,0,0,4,,,,,,,,3,,,45,56
29173,note_on,53,0,1,,,,,,,,0,,,75,0
29173,note_on,0,0,1,,,,,,,,0,,,72,61
29184,control_change,168,0,3,,,,,,,,2,64,0,,
29200,control_change,532,0,2,,,,,,,,1,64,0,,
29214,note_on,54,0,4,,,,,,,,3,,,45,0
29214,note_on,0,0,4,,,,,,,,3,,,57,0
29220,note_on,0,0,4,,,,,,,,3,,,45,60
29220,note_on,0,0,4,,,,,,,,3,,,51,60
29220,note_on,0,0,4,,,,,,,,3,,,54,60
29220,note_on,6,0,4,,,,,,,,3,,,57,60
29226,note_on,0,0,1,,,,,,,,0,,,69,65
29226,note_on,53,0,1,,,,,,,,0,,,72,0
29274,note_on,0,0,4,,,,,,,,3,,,57,0
29274,note_on,54,0,4,,,,,,,,3,,,45,0
29274,note_on,0,0,4,,,,,,,,3,,,54,0
29274,note_on,0,0,4,,,,,,,,3,,,51,0
29279,note_on,53,0,1,,,,,,,,0,,,69,0
29280,note_on,80,0,2,,,,,,,,1,,,69,86
29280,note_on,6,0,4,,,,,,,,3,,,48,63
29280,note_on,0,0,2,,,,,,,,1,,,63,86
29280,note_on,0,0,2,,,,,,,,1,,,66,86
29320,note_on,40,0,4,,,,,,,,3,,,54,66
29320,note_on,0,0,4,,,,,,,,3,,,51,66
29360,note_on,40,0,4,,,,,,,,3,,,60,64
29496,note_on,216,0,2,,,,,,,,1,,,63,0
29496,note_on,0,0,2,,,,,,,,1,,,69,0
29496,note_on,0,0,2,,,,,,,,1,,,66,0
29520,note_on,24,0,2,,,,,,,,1,,,57,62
29576,control_change,56,0,2,,,,,,,,1,64,127,,
29588,note_on,228,0,4,,,,,,,,3,,,60,0
29588,note_on,0,0,4,,,,,,,,3,,,48,0
29588,note_on,0,0,4,,,,,,,,3,,,54,0
29588,note_on,0,0,4,,,,,,,,3,,,51,0
29628,note_on,52,0,2,,,,,,,,1,,,57,0
29648,control_change,464,0,3,,,,,,,,2,64,127,,
29760,note_on,0,0,2,,,,,,,,1,,,48,77
29760,control_change,481,0,1,,,,,,,,0,64,0,,
29760,control_change,172,0,4,,,,,,,,3,64,0,,
29760,note_on,112,0,3,,,,,,,,2,,,36,58
29760,note_on,0,0,2,,,,,,,,1,,,51,77
29760,note_on,0,0,2,,,,,,,,1,,,54,77
29760,note_on,132,0,2,,,,,,,,1,,,57,77
29800,note_on,40,0,3,,,,,,,,2,,,39,61
29840,note_on,0,0,3,,,,,,,,2,,,45,64
29840,note_on,40,0,3,,,,,,,,2,,,42,64
29880,note_on,40,0,3,,,,,,,,2,,,48,68
29976,note_on,216,0,2,,,,,,,,1,,,48,0
29976,note_on,0,0,2,,,,,,,,1,,,57,0
29976,note_on,0,0,2,,,,,,,,1,,,54,0
29976,note_on,0,0,2,,,,,,,,1,,,51,0
29988,note_on,0,0,3,,,,,,,,2,,,45,0
29988,note_on,0,0,3,,,,,,,,2,,,39,0
29988,note_on,0,0,3,,,,,,,,2,,,42,0
29988,note_on,108,0,3,,,,,,,,2,,,48,0
29988,note_on,0,0,3,,,,,,,,2,,,36,0
30000,note_on,24,0,2,,,,,,,,1,,,45,64
30108,note_on,108,0,2,,,,,,,,1,,,45,0
30120,note_on,360,0,1,,,,,,,,0,,,46,64
30120,note_on,0,0,1,,,,,,,,0,,,58,64
30228,note_on,108,0,1,,,,,,,,0,,,58,0
30228,note_on,0,0,1,,,,,,,,0,,,46,0
30240,note_on,0,0,4,,,,,,,,3,,,45,51
30240,note_on,0,0,1,,,,,,,,0,,,69,28
30240,note_on,252,0,3,,,,,,,,2,,,57,74
30240,note_on,0,0,3,,,,,,,,2,,,45,74
30240,control_change,12,0,1,,,,,,,,0,64,127,,
30240,control_change,480,0,4,,,,,,,,3,64,127,,
30293,note_on,0,0,1,,,,,,,,0,,,72,30
30293,note_on,53,0,1,,,,,,,,0,,,69,0
30294,note_on,54,0,4,,,,,,,,3,,,45,0
30300,note_on,6,0,4,,,,,,,,3,,,54,32
30300,note_on,0,0,4,,,,,,,,3,,,51,32
30346,note_on,0,0,1,,,,,,,,0,,,75,32
30346,note_on,53,0,1,,,,,,,,0,,,72,0
30354,note_on,54,0,4,,,,,,,,3,,,51,0
30354,note_on,0,0,4,,,,,,,,3,,,54,0
30360,note_on,6,0,4,,,,,,,,3,,,45,35
30399,note_on,53,0,1,,,,,,,,0,,,75,0
30400,note_on,1,0,1,,,,,,,,0,,,78,36
30414,note_on,54,0,4,,,,,,,,3,,,45,0
30420,note_on,6,0,4,,,,,,,,3,,,54,37
30420,note_on,0,0,4,,,,,,,,3,,,51,37
30453,note_on,0,0,1,,,,,,,,0,,,81,38
30453,note_on,53,0,1,,,,,,,,0,,,78,0
30474,note_on,54,0,4,,,,,,,,3,,,51,0
30474,note_on,0,0,4,,,,,,,,3,,,54,0
30480,note_on,6,0,4,,,,,,,,3,,,45,40
30506,note_on,53,0,1,,,,,,,,0,,,81,0
30506,note_on,0,0,1,,,,,,,,0,,,78,40
30534,note_on,54,0,4,,,,,,,,3,,,45,0
30536,control_change,428,0,2,,,,,,,,1,64,0,,
30540,note_on,0,0,4,,,,,,,,3,,,51,42
30540,note_on,6,0,4,,,,,,,,3,,,54,42
30559,note_on,53,0,1,,,,,,,,0,,,78,0
30560,note_on,1,0,1,,,,,,,,0,,,75,43
30594,note_on,0,0,4,,,,,,,,3,,,54,0
30594,note_on,54,0,4,,,,,,,,3,,,51,0
30600,note_on,6,0,4,,,,,,,,3,,,45,44
30608,control_change,368,0,3,,,,,,,,2,64,0,,
30613,note_on,0,0,1,,,,,,,,0,,,72,45
30613,note_on,53,0,1,,,,,,,,0,,,75,0
30654,note_on,54,0,4,,,,,,,,3,,,45,0
30660,note_on,6,0,4,,,,,,,,3,,,54,47
30660,note_on,0,0,4,,,,,,,,3,,,51,47
30666,note_on,0,0,1,,,,,,,,0,,,69,48
30666,note_on,53,0,1,,,,,,,,0,,,72,0
30714,note_on,54,0,4,,,,,,,,3,,,51,0
30714,note_on,0,0,4,,,,,,,,3,,,54,0
30719,note_on,53,0,1,,,,,,,,0,,,69,0
30720,note_on,0,0,2,,,,,,,,1,,,63,66
30720,note_on,184,0,2,,,,,,,,1,,,69,66
30720,note_on,6,0,4,,,,,,,,3,,,45,51
30720,note_on,0,0,2,,,,,,,,1,,,66,66
30936,note_on,216,0,2,,,,,,,,1,,,63,0
30936,note_on,0,0,2,,,,,,,,1,,,69,0
30936,note_on,216,0,4,,,,,,,,3,,,45,0
30936,note_on,0,0,2,,,,,,,,1,,,66,0
30960,note_on,24,0,2,,,,,,,,1,,,57,60
31068,note_on,108,0,2,,,,,,,,1,,,57,0
31104,note_on,496,0,3,,,,,,,,2,,,45,0
31104,note_on,0,0,3,,,,,,,,2,,,57,0
31200,note_on,96,0,3,,,,,,,,2,,,36,44
31200,note_on,0,0,2,,,,,,,,1,,,48,53
31200,note_on,0,0,2,,,,,,,,1,,,51,53
31200,note_on,0,0,2,,,,,,,,1,,,54,53
31200,note_on,0,0,4,,,,,,,,3,,,36,36
31200,control_change,264,0,4,,,,,,,,3,64,0,,
31200,note_on,132,0,2,,,,,,,,1,,,57,53
31200,control_change,481,0,1,,,,,,,,0,64,0,,
31236,note_on,36,0,4,,,,,,,,3,,,36,0
31240,note_on,0,0,4,,,,,,,,3,,,42,38
31240,note_on,0,0,3,,,,,,,,2,,,42,46
31240,note_on,40,0,3,,,,,,,,2,,,39,46
31240,note_on,4,0,4,,,,,,,,3,,,39,38
31276,note_on,36,0,4,,,,,,,,3,,,42,0
31276,note_on,0,0,4,,,,,,,,3,,,39,0
31280,note_on,4,0,4,,,,,,,,3,,,45,40
31280,note_on,0,0,4,,,,,,,,3,,,48,40
31280,note_on,40,0,3,,,,,,,,2,,,45,48
31316,note_on,36,0,4,,,,,,,,3,,,48,0
31316,note_on,0,0,4,,,,,,,,3,,,45,0
31320,note_on,0,0,4,,,,,,,,3,,,48,42
31320,note_on,0,0,4,,,,,,,,3,,,45,42
31320,note_on,0,0,4,,,,,,,,3,,,42,42
31320,note_on,0,0,4,,,,,,,,3,,,39,42
31320,note_on,4,0,4,,,,,,,,3,,,36,42
31320,note_on,40,0,3,,,,,,,,2,,,48,49
31320,note_on,0,0,4,,,,,,,,3,,,38,42
31416,note_on,0,0,2,,,,,,,,1,,,57,0
31416,note_on,0,0,2,,,,,,,,1,,,51,0
31416,note_on,0,0,2,,,,,,,,1,,,54,0
31416,note_on,216,0,2,,,,,,,,1,,,48,0
31428,note_on,0,0,4,,,,,,,,3,,,42,0
31428,note_on,0,0,4,,,,,,,,3,,,36,0
31428,note_on,0,0,4,,,,,,,,3,,,45,0
31428,note_on,0,0,4,,,,,,,,3,,,39,0
31428,note_on,0,0,4,,,,,,,,3,,,38,0
31428,note_on,108,0,4,,,,,,,,3,,,48,0
31428,note_on,108,0,3,,,,,,,,2,,,48,0
31428,note_on,0,0,3,,,,,,,,2,,,42,0
31428,note_on,0,0,3,,,,,,,,2,,,36,0
31428,note_on,0,0,3,,,,,,,,2,,,39,0
31428,note_on,0,0,3,,,,,,,,2,,,45,0
31440,note_on,24,0,2,,,,,,,,1,,,45,51
31548,note_on,108,0,2,,,,,,,,1,,,45,0
31560,note_on,0,0,4,,,,,,,,3,,,42,39
31560,note_on,132,0,4,,,,,,,,3,,,54,39
31668,note_on,108,0,4,,,,,,,,3,,,42,0
31668,note_on,0,0,4,,,,,,,,3,,,54,0
31680,note_on,0,0,4,,,,,,,,3,,,42,27
31680,control_change,12,0,4,,,,,,,,3,64,127,,
31680,note_on,252,0,3,,,,,,,,2,,,42,88
31680,control_change,480,0,1,,,,,,,,0,64,127,,
31680,note_on,0,0,1,,,,,,,,0,,,69,26
31680,note_on,0,0,3,,,,,,,,2,,,54,88
31696,control_change,16,0,3,,,,,,,,2,64,127,,
31733,note_on,0,0,1,,,,,,,,0,,,72,26
31733,note_on,53,0,1,,,,,,,,0,,,69,0
31734,note_on,54,0,4,,,,,,,,3,,,42,0
31740,note_on,6,0,4,,,,,,,,3,,,45,28
31740,note_on,0,0,4,,,,,,,,3,,,51,28
31786,note_on,0,0,1,,,,,,,,0,,,75,27
31786,note_on,53,0,1,,,,,,,,0,,,72,0
31794,note_on,0,0,4,,,,,,,,3,,,45,0
31794,note_on,54,0,4,,,,,,,,3,,,51,0
31800,note_on,6,0,4,,,,,,,,3,,,42,28
31839,note_on,53,0,1,,,,,,,,0,,,75,0
31840,note_on,1,0,1,,,,,,,,0,,,78,28
31854,note_on,54,0,4,,,,,,,,3,,,42,0
31860,note_on,6,0,4,,,,,,,,3,,,45,28
31860,note_on,0,0,4,,,,,,,,3,,,51,28
31893,note_on,53,0,1,,,,,,,,0,,,78,0
31893,note_on,0,0,1,,,,,,,,0,,,81,28
31896,note_on,200,0,3,,,,,,,,2,,,54,0
31896,note_on,0,0,3,,,,,,,,2,,,42,0
31914,note_on,0,0,4,,,,,,,,3,,,45,0
31914,note_on,54,0,4,,,,,,,,3,,,51,0
31920,note_on,0,0,4,,,,,,,,3,,,54,28
31920,note_on,6,0,4,,,,,,,,3,,,42,28
31920,note_on,24,0,3,,,,,,,,2,,,42,88
31920,note_on,0,0,3,,,,,,,,2,,,54,88
31946,note_on,53,0,1,,,,,,,,0,,,81,0
31946,note_on,0,0,1,,,,,,,,0,,,78,28
31974,note_on,54,0,4,,,,,,,,3,,,54,0
31974,note_on,0,0,4,,,,,,,,3,,,42,0
31980,note_on,6,0,4,,,,,,,,3,,,45,29
31980,note_on,0,0,4,,,,,,,,3,,,51,29
31999,note_on,53,0,1,,,,,,,,0,,,78,0
32000,note_on,1,0,1,,,,,,,,0,,,75,28
32008,control_change,460,0,2,,,,,,,,1,64,127,,
32028,note_on,108,0,3,,,,,,,,2,,,54,0
32028,note_on,0,0,3,,,,,,,,2,,,42,0
32032,control_change,52,0,4,,,,,,,,3,64,0,,
32034,note_on,2,0,4,,,,,,,,3,,,51,0
32034,note_on,0,0,4,,,,,,,,3,,,45,0
32040,note_on,6,0,4,,,,,,,,3,,,42,30
32040,note_on,12,0,3,,,,,,,,2,,,42,88
32040,note_on,0,0,3,,,,,,,,2,,,54,88
32040,note_on,0,0,4,,,,,,,,3,,,54,30
32053,note_on,53,0,1,,,,,,,,0,,,75,0
32053,note_on,0,0,1,,,,,,,,0,,,72,29
32094,note_on,54,0,4,,,,,,,,3,,,54,0
32094,note_on,0,0,4,,,,,,,,3,,,42,0
32100,note_on,6,0,4,,,,,,,,3,,,45,30
32100,note_on,0,0,4,,,,,,,,3,,,51,30
32106,note_on,0,0,1,,,,,,,,0,,,69,30
32106,note_on,53,0,1,,,,,,,,0,,,72,0
32148,note_on,108,0,3,,,,,,,,2,,,54,0
32148,note_on,0,0,3,,,,,,,,2,,,42,0
32154,note_on,0,0,4,,,,,,,,3,,,45,0
32154,note_on,54,0,4,,,,,,,,3,,,51,0
32159,note_on,53,0,1,,,,,,,,0,,,69,0
32160,note_on,152,0,2,,,,,,,,1,,,69,64
32160,note_on,0,0,2,,,,,,,,1,,,66,64
32160,note_on,0,0,2,,,,,,,,1,,,63,64
32160,note_on,0,0,4,,,,,,,,3,,,41,31
32160,control_change,6,0,4,,,,,,,,3,64,127,,
32196,note_on,36,0,4,,,,,,,,3,,,41,0
32200,note_on,4,0,4,,,,,,,,3,,,44,32
32236,note_on,36,0,4,,,,,,,,3,,,44,0
32240,note_on,4,0,4,,,,,,,,3,,,48,32
32276,note_on,36,0,4,,,,,,,,3,,,48,0
32280,note_on,4,0,4,,,,,,,,3,,,41,32
32280,note_on,0,0,4,,,,,,,,3,,,53,32
32280,note_on,0,0,4,,,,,,,,3,,,44,32
32280,note_on,0,0,4,,,,,,,,3,,,48,32
32304,control_change,24,0,4,,,,,,,,3,64,0,,
32376,note_on,216,0,2,,,,,,,,1,,,63,0
32376,note_on,0,0,2,,,,,,,,1,,,69,0
32376,note_on,0,0,2,,,,,,,,1,,,66,0
32388,note_on,0,0,4,,,,,,,,3,,,41,0
32388,note_on,0,0,4,,,,,,,,3,,,44,0
32388,note_on,84,0,4,,,,,,,,3,,,53,0
32388,note_on,0,0,4,,,,,,,,3,,,48,0
32400,note_on,0,0,4,,,,,,,,3,,,44,33
32400,note_on,0,0,4,,,,,,,,3,,,48,33
32400,note_on,0,0,4,,,,,,,,3,,,53,33
32400,note_on,24,0,2,,,,,,,,1,,,57,64
32400,note_on,12,0,4,,,,,,,,3,,,41,33
32508,note_on,108,0,2,,,,,,,,1,,,57,0
32640,note_on,0,0,2,,,,,,,,1,,,48,64
32640,control_change,481,0,1,,,,,,,,0,64,0,,
32640,note_on,0,0,2,,,,,,,,1,,,51,64
32640,note_on,132,0,2,,,,,,,,1,,,57,64
32640,note_on,0,0,2,,,,,,,,1,,,54,64
32656,control_change,508,0,3,,,,,,,,2,64,0,,
32832,note_on,0,0,4,,,,,,,,3,,,44,0
32832,note_on,0,0,4,,,,,,,,3,,,41,0
32832,note_on,0,0,4,,,,,,,,3,,,48,0
32832,note_on,432,0,4,,,,,,,,3,,,53,0
32856,note_on,216,0,2,,,,,,,,1,,,48,0
32856,note_on,0,0,2,,,,,,,,1,,,57,0
32856,note_on,0,0,2,,,,,,,,1,,,54,0
32856,note_on,0,0,2,,,,,,,,1,,,51,0
32880,note_on,24,0,2,,,,,,,,1,,,45,64
32968,control_change,88,0,2,,,,,,,,1,64,0,,
32988,note_on,20,0,2,,,,,,,,1,,,45,0
33000,note_on,0,0,4,,,,,,,,3,,,41,38
33000,note_on,168,0,4,,,,,,,,3,,,53,38
33108,note_on,0,0,4,,,,,,,,3,,,53,0
33108,note_on,108,0,4,,,,,,,,3,,,41,0
33120,note_on,0,0,3,,,,,,,,2,,,57,91
33120,control_change,464,0,3,,,,,,,,2,64,127,,
33120,control_change,480,0,1,,,,,,,,0,64,127,,
33120,control_change,12,0,4,,,,,,,,3,64,127,,
33120,note_on,0,0,1,,,,,,,,0,,,69,39
33120,note_on,0,0,4,,,,,,,,3,,,45,40
33120,note_on,0,0,3,,,,,,,,2,,,45,91
33173,note_on,53,0,1,,,,,,,,0,,,69,0
33173,note_on,0,0,1,,,,,,,,0,,,72,39
33174,note_on,54,0,4,,,,,,,,3,,,45,0
33180,note_on,0,0,4,,,,,,,,3,,,51,40
33180,note_on,6,0,4,,,,,,,,3,,,54,40
33226,note_on,53,0,1,,,,,,,,0,,,72,0
33226,note_on,0,0,1,,,,,,,,0,,,75,40
33234,note_on,54,0,4,,,,,,,,3,,,51,0
33234,note_on,0,0,4,,,,,,,,3,,,54,0
33240,note_on,6,0,4,,,,,,,,3,,,45,40
33279,note_on,53,0,1,,,,,,,,0,,,75,0
33280,note_on,1,0,1,,,,,,,,0,,,78,40
33294,note_on,54,0,4,,,,,,,,3,,,45,0
33300,note_on,0,0,4,,,,,,,,3,,,51,40
33300,note_on,6,0,4,,,,,,,,3,,,54,40
33333,note_on,53,0,1,,,,,,,,0,,,78,0
33333,note_on,0,0,1,,,,,,,,0,,,81,40
33354,note_on,54,0,4,,,,,,,,3,,,51,0
33354,note_on,0,0,4,,,,,,,,3,,,54,0
33360,note_on,6,0,4,,,,,,,,3,,,45,41
33368,control_change,380,0,2,,,,,,,,1,64,127,,
33386,note_on,53,0,1,,,,,,,,0,,,81,0
33386,note_on,0,0,1,,,,,,,,0,,,78,41
33414,note_on,54,0,4,,,,,,,,3,,,45,0
33420,note_on,6,0,4,,,,,,,,3,,,54,42
33420,note_on,0,0,4,,,,,,,,3,,,51,42
33439,note_on,53,0,1,,,,,,,,0,,,78,0
33440,note_on,1,0,1,,,,,,,,0,,,75,41
33474,note_on,0,0,4,,,,,,,,3,,,54,0
33474,note_on,54,0,4,,,,,,,,3,,,51,0
33480,note_on,6,0,4,,,,,,,,3,,,45,42
33493,note_on,53,0,1,,,,,,,,0,,,75,0
33493,note_on,0,0,1,,,,,,,,0,,,72,42
33512,control_change,32,0,4,,,,,,,,3,64,0,,
33534,note_on,22,0,4,,,,,,,,3,,,45,0
33540,note_on,6,0,4,,,,,,,,3,,,54,43
33540,note_on,0,0,4,,,,,,,,3,,,51,43
33546,note_on,0,0,1,,,,,,,,0,,,69,42
33546,note_on,53,0,1,,,,,,,,0,,,72,0
33552,note_on,432,0,3,,,,,,,,2,,,45,0
33552,note_on,0,0,3,,,,,,,,2,,,57,0
33594,note_on,54,0,4,,,,,,,,3,,,51,0
33594,note_on,0,0,4,,,,,,,,3,,,54,0
33599,note_on,53,0,1,,,,,,,,0,,,69,0
33600,note_on,6,0,4,,,,,,,,3,,,42,44
33600,note_on,232,0,2,,,,,,,,1,,,69,64
33600,note_on,0,0,2,,,,,,,,1,,,66,64
33600,note_on,0,0,2,,,,,,,,1,,,63,64
33640,note_on,40,0,4,,,,,,,,3,,,45,44
33680,note_on,40,0,4,,,,,,,,3,,,51,44
33720,note_on,40,0,4,,,,,,,,3,,,54,44
33816,note_on,0,0,2,,,,,,,,1,,,66,0
33816,note_on,216,0,2,,,,,,,,1,,,63,0
33816,note_on,0,0,2,,,,,,,,1,,,69,0
33828,note_on,108,0,4,,,,,,,,3,,,54,0
33828,note_on,0,0,4,,,,,,,,3,,,45,0
33828,note_on,0,0,4,,,,,,,,3,,,51,0
33828,note_on,0,0,4,,,,,,,,3,,,42,0
33840,note_on,24,0,2,,,,,,,,1,,,57,64
33944,control_change,116,0,4,,,,,,,,3,64,127,,
33948,note_on,108,0,2,,,,,,,,1,,,57,0
34080,note_on,136,0,4,,,,,,,,3,,,36,48
34080,control_change,528,0,3,,,,,,,,2,64,0,,
34080,note_on,0,0,2,,,,,,,,1,,,54,64
34080,note_on,0,0,2,,,,,,,,1,,,48,64
34080,note_on,0,0,2,,,,,,,,1,,,51,64
34080,control_change,481,0,1,,,,,,,,0,64,0,,
34080,note_on,132,0,2,,,,,,,,1,,,57,64
34120,note_on,0,0,4,,,,,,,,3,,,42,48
34120,note_on,40,0,4,,,,,,,,3,,,39,48
34160,note_on,40,0,4,,,,,,,,3,,,45,48
34200,note_on,40,0,4,,,,,,,,3,,,48,48
34296,note_on,0,0,2,,,,,,,,1,,,54,0
34296,note_on,216,0,2,,,,,,,,1,,,48,0
34296,note_on,0,0,2,,,,,,,,1,,,51,0
34296,note_on,0,0,2,,,,,,,,1,,,57,0
34308,note_on,108,0,4,,,,,,,,3,,,48,0
34308,note_on,0,0,4,,,,,,,,3,,,42,0
34308,note_on,0,0,4,,,,,,,,3,,,36,0
34308,note_on,0,0,4,,,,,,,,3,,,39,0
34308,note_on,0,0,4,,,,,,,,3,,,45,0
34320,note_on,24,0,2,,,,,,,,1,,,45,64
34328,control_change,8,0,2,,,,,,,,1,64,0,,
34428,note_on,100,0,2,,,,,,,,1,,,45,0
34440,note_on,132,0,4,,,,,,,,3,,,54,51
34440,note_on,0,0,4,,,,,,,,3,,,42,51
34488,control_change,48,0,4,,,,,,,,3,64,0,,
34548,note_on,0,0,4,,,,,,,,3,,,54,0
34548,note_on,60,0,4,,,,,,,,3,,,42,0
34560,note_on,0,0,4,,,,,,,,3,,,39,65
34560,note_on,0,0,4,,,,,,,,3,,,51,65
34560,control_change,480,0,3,,,,,,,,2,64,127,,
34560,note_on,0,0,1,,,,,,,,0,,,69,65
34560,note_on,0,0,3,,,,,,,,2,,,39,83
34560,note_on,0,0,3,,,,,,,,2,,,51,83
34560,control_change,12,0,4,,,,,,,,3,64,127,,
34560,control_change,480,0,1,,,,,,,,0,64,127,,
34613,note_on,53,0,1,,,,,,,,0,,,69,0
34613,note_on,0,0,1,,,,,,,,0,,,72,65
34614,note_on,54,0,4,,,,,,,,3,,,51,0
34614,note_on,0,0,4,,,,,,,,3,,,39,0
34620,note_on,6,0,4,,,,,,,,3,,,42,66
34620,note_on,0,0,4,,,,,,,,3,,,45,66
34666,note_on,53,0,1,,,,,,,,0,,,72,0
34666,note_on,0,0,1,,,,,,,,0,,,75,66
34674,note_on,54,0,4,,,,,,,,3,,,45,0
34674,note_on,0,0,4,,,,,,,,3,,,42,0
34680,note_on,6,0,4,,,,,,,,3,,,39,66
34719,note_on,53,0,1,,,,,,,,0,,,75,0
34720,note_on,1,0,1,,,,,,,,0,,,78,66
34734,note_on,54,0,4,,,,,,,,3,,,39,0
34740,note_on,0,0,4,,,,,,,,3,,,45,67
34740,note_on,6,0,4,,,,,,,,3,,,42,67
34773,note_on,53,0,1,,,,,,,,0,,,78,0
34773,note_on,0,0,1,,,,,,,,0,,,81,67
34794,note_on,54,0,4,,,,,,,,3,,,45,0
34794,note_on,0,0,4,,,,,,,,3,,,42,0
34800,note_on,6,0,4,,,,,,,,3,,,39,68
34826,note_on,53,0,1,,,,,,,,0,,,81,0
34826,note_on,0,0,1,,,,,,,,0,,,78,67
34854,note_on,54,0,4,,,,,,,,3,,,39,0
34860,note_on,6,0,4,,,,,,,,3,,,42,68
34860,note_on,0,0,4,,,,,,,,3,,,45,68
34864,control_change,436,0,2,,,,,,,,1,64,127,,
34879,note_on,53,0,1,,,,,,,,0,,,78,0
34880,note_on,1,0,1,,,,,,,,0,,,75,68
34914,note_on,0,0,4,,,,,,,,3,,,42,0
34914,note_on,54,0,4,,,,,,,,3,,,45,0
34920,note_on,6,0,4,,,,,,,,3,,,39,69
34933,note_on,0,0,1,,,,,,,,0,,,72,69
34933,note_on,53,0,1,,,,,,,,0,,,75,0
34974,note_on,54,0,4,,,,,,,,3,,,39,0
34976,control_change,416,0,3,,,,,,,,2,64,0,,
34980,note_on,6,0,4,,,,,,,,3,,,42,70
34980,note_on,0,0,4,,,,,,,,3,,,45,70
34986,note_on,0,0,1,,,,,,,,0,,,69,69
34986,note_on,53,0,1,,,,,,,,0,,,72,0
34992,note_on,0,0,3,,,,,,,,2,,,51,0
34992,note_on,16,0,3,,,,,,,,2,,,39,0
35034,note_on,0,0,4,,,,,,,,3,,,42,0
35034,note_on,54,0,4,,,,,,,,3,,,45,0
35039,note_on,53,0,1,,,,,,,,0,,,69,0
35040,note_on,176,0,2,,,,,,,,1,,,69,64
35040,note_on,0,0,2,,,,,,,,1,,,66,64
35040,note_on,0,0,2,,,,,,,,1,,,63,64
35040,note_on,48,0,3,,,,,,,,2,,,39,64
35040,note_on,0,0,3,,,,,,,,2,,,51,64
35040,note_on,0,0,4,,,,,,,,3,,,51,70
35040,note_on,6,0,4,,,,,,,,3,,,39,70
35094,note_on,54,0,4,,,,,,,,3,,,51,0
35094,note_on,0,0,4,,,,,,,,3,,,39,0
35100,note_on,6,0,4,,,,,,,,3,,,42,71
35100,note_on,0,0,4,,,,,,,,3,,,45,71
35154,note_on,54,0,4,,,,,,,,3,,,45,0
35154,note_on,0,0,4,,,,,,,,3,,,42,0
35160,note_on,6,0,4,,,,,,,,3,,,39,72
35214,note_on,54,0,4,,,,,,,,3,,,39,0
35220,note_on,6,0,4,,,,,,,,3,,,42,72
35220,note_on,0,0,4,,,,,,,,3,,,45,72
35256,note_on,0,0,3,,,,,,,,2,,,39,0
35256,note_on,216,0,3,,,,,,,,2,,,51,0
35256,note_on,216,0,2,,,,,,,,1,,,63,0
35256,note_on,0,0,2,,,,,,,,1,,,66,0
35256,note_on,0,0,2,,,,,,,,1,,,69,0
35274,note_on,54,0,4,,,,,,,,3,,,45,0
35274,note_on,0,0,4,,,,,,,,3,,,42,0
35280,note_on,0,0,3,,,,,,,,2,,,51,64
35280,note_on,6,0,4,,,,,,,,3,,,39,73
35280,note_on,0,0,4,,,,,,,,3,,,51,73
35280,note_on,24,0,2,,,,,,,,1,,,57,63
35280,note_on,24,0,3,,,,,,,,2,,,39,64
35334,note_on,0,0,4,,,,,,,,3,,,39,0
35334,note_on,54,0,4,,,,,,,,3,,,51,0
35340,note_on,6,0,4,,,,,,,,3,,,42,74
35340,note_on,0,0,4,,,,,,,,3,,,45,74
35388,note_on,108,0,2,,,,,,,,1,,,57,0
35394,note_on,54,0,4,,,,,,,,3,,,45,0
35394,note_on,0,0,4,,,,,,,,3,,,42,0
35400,note_on,6,0,4,,,,,,,,3,,,39,74
35454,note_on,54,0,4,,,,,,,,3,,,39,0
35460,note_on,0,0,4,,,,,,,,3,,,45,75
35460,note_on,6,0,4,,,,,,,,3,,,42,75
35496,note_on,0,0,3,,,,,,,,2,,,39,0
35496,note_on,216,0,3,,,,,,,,2,,,51,0
35514,note_on,0,0,4,,,,,,,,3,,,42,0
35514,note_on,54,0,4,,,,,,,,3,,,45,0
35520,note_on,0,0,2,,,,,,,,1,,,51,65
35520,note_on,132,0,2,,,,,,,,1,,,57,65
35520,note_on,0,0,2,,,,,,,,1,,,54,65
35520,control_change,481,0,1,,,,,,,,0,64,0,,
35520,note_on,0,0,2,,,,,,,,1,,,48,65
35520,note_on,0,0,4,,,,,,,,3,,,51,76
35520,note_on,6,0,4,,,,,,,,3,,,39,76
35520,note_on,0,0,3,,,,,,,,2,,,51,64
35520,note_on,24,0,3,,,,,,,,2,,,39,64
35574,note_on,0,0,4,,,,,,,,3,,,39,0
35574,note_on,54,0,4,,,,,,,,3,,,51,0
35580,note_on,6,0,4,,,,,,,,3,,,42,76
35580,note_on,0,0,4,,,,,,,,3,,,45,76
35634,note_on,54,0,4,,,,,,,,3,,,45,0
35634,note_on,0,0,4,,,,,,,,3,,,42,0
35640,note_on,6,0,4,,,,,,,,3,,,39,77
35694,note_on,54,0,4,,,,,,,,3,,,39,0
35700,note_on,0,0,4,,,,,,,,3,,,45,78
35700,note_on,6,0,4,,,,,,,,3,,,42,78
35736,note_on,0,0,3,,,,,,,,2,,,39,0
35736,note_on,216,0,3,,,,,,,,2,,,51,0
35736,note_on,216,0,2,,,,,,,,1,,,48,0
35736,note_on,0,0,2,,,,,,,,1,,,54,0
35736,note_on,0,0,2,,,,,,,,1,,,51,0
35736,note_on,0,0,2,,,,,,,,1,,,57,0
35754,note_on,54,0,4,,,,,,,,3,,,45,0
35754,note_on,0,0,4,,,,,,,,3,,,42,0
35760,note_on,24,0,3,,,,,,,,2,,,39,64
35760,note_on,0,0,3,,,,,,,,2,,,51,64
35760,note_on,24,0,2,,,,,,,,1,,,45,67
35760,note_on,0,0,4,,,,,,,,3,,,51,78
35760,note_on,6,0,4,,,,,,,,3,,,39,78
35814,note_on,54,0,4,,,,,,,,3,,,51,0
35814,note_on,0,0,4,,,,,,,,3,,,39,0
35820,note_on,0,0,4,,,,,,,,3,,,45,79
35820,note_on,6,0,4,,,,,,,,3,,,42,79
35824,control_change,64,0,2,,,,,,,,1,64,0,,
35868,note_on,44,0,2,,,,,,,,1,,,45,0
35874,note_on,0,0,4,,,,,,,,3,,,42,0
35874,note_on,54,0,4,,,,,,,,3,,,45,0
35880,note_on,6,0,4,,,,,,,,3,,,39,79
35920,control_change,40,0,4,,,,,,,,3,64,0,,
35934,note_on,14,0,4,,,,,,,,3,,,39,0
35940,note_on,0,0,4,,,,,,,,3,,,45,80
35940,note_on,6,0,4,,,,,,,,3,,,42,80
35976,note_on,0,0,3,,,,,,,,2,,,39,0
35976,note_on,216,0,3,,,,,,,,2,,,51,0
35994,note_on,54,0,4,,,,,,,,3,,,45,0
35994,note_on,0,0,4,,,,,,,,3,,,42,0
36000,control_change,6,0,4,,,,,,,,3,64,127,,
36000,note_on,0,0,4,,,,,,,,3,,,36,81
36000,note_on,0,0,4,,,,,,,,3,,,39,81
36000,note_on,0,0,4,,,,,,,,3,,,42,81
36000,note_on,0,0,4,,,,,,,,3,,,45,81
36000,control_change,480,0,1,,,,,,,,0,64,127,,
36000,note_on,0,0,1,,,,,,,,0,,,69,81
36036,note_on,0,0,1,,,,,,,,0,,,72,81
36036,note_on,36,0,1,,,,,,,,0,,,69,0
36054,note_on,54,0,4,,,,,,,,3,,,45,0
36054,note_on,0,0,4,,,,,,,,3,,,36,0
36054,note_on,0,0,4,,,,,,,,3,,,39,0
36054,note_on,0,0,4,,,,,,,,3,,,42,0
36060,note_on,6,0,4,,,,,,,,3,,,48,81
36072,note_on,36,0,1,,,,,,,,0,,,72,0
36073,note_on,1,0,1,,,,,,,,0,,,75,81
36109,note_on,36,0,1,,,,,,,,0,,,75,0
36110,note_on,1,0,1,,,,,,,,0,,,78,82
36114,note_on,54,0,4,,,,,,,,3,,,48,0
36120,note_on,0,0,4,,,,,,,,3,,,45,82
36120,note_on,6,0,4,,,,,,,,3,,,36,82
36120,note_on,0,0,4,,,,,,,,3,,,39,82
36120,note_on,0,0,4,,,,,,,,3,,,42,82
36146,note_on,36,0,1,,,,,,,,0,,,78,0
36147,note_on,1,0,1,,,,,,,,0,,,81,82
36174,note_on,0,0,4,,,,,,,,3,,,36,0
36174,note_on,0,0,4,,,,,,,,3,,,42,0
36174,note_on,0,0,4,,,,,,,,3,,,39,0
36174,note_on,54,0,4,,,,,,,,3,,,45,0
36180,note_on,6,0,4,,,,,,,,3,,,48,83
36183,note_on,36,0,1,,,,,,,,0,,,81,0
36184,note_on,1,0,1,,,,,,,,0,,,78,83
36220,note_on,36,0,1,,,,,,,,0,,,78,0
36221,note_on,1,0,1,,,,,,,,0,,,75,83
36234,note_on,54,0,4,,,,,,,,3,,,48,0
36240,note_on,0,0,4,,,,,,,,3,,,39,83
36240,note_on,6,0,4,,,,,,,,3,,,36,83
36240,note_on,0,0,4,,,,,,,,3,,,45,83
36240,note_on,0,0,4,,,,,,,,3,,,42,83
36257,note_on,36,0,1,,,,,,,,0,,,75,0
36258,note_on,1,0,1,,,,,,,,0,,,72,83
36288,control_change,420,0,2,,,,,,,,1,64,127,,
36294,note_on,0,0,4,,,,,,,,3,,,36,0
36294,note_on,0,0,4,,,,,,,,3,,,39,0
36294,note_on,0,0,4,,,,,,,,3,,,42,0
36294,note_on,36,0,1,,,,,,,,0,,,72,0
36294,note_on,54,0,4,,,,,,,,3,,,45,0
36295,note_on,1,0,1,,,,,,,,0,,,69,84
36300,note_on,6,0,4,,,,,,,,3,,,48,84
36331,note_on,36,0,1,,,,,,,,0,,,69,0
36332,note_on,1,0,1,,,,,,,,0,,,66,84
36354,note_on,54,0,4,,,,,,,,3,,,48,0
36360,note_on,0,0,4,,,,,,,,3,,,45,85
36360,note_on,0,0,4,,,,,,,,3,,,42,85
36360,note_on,0,0,4,,,,,,,,3,,,39,85
36360,note_on,6,0,4,,,,,,,,3,,,36,85
36368,note_on,36,0,1,,,,,,,,0,,,66,0
36369,note_on,1,0,1,,,,,,,,0,,,63,85
36405,note_on,36,0,1,,,,,,,,0,,,63,0
36406,note_on,1,0,1,,,,,,,,0,,,60,85
36414,note_on,0,0,4,,,,,,,,3,,,36,0
36414,note_on,54,0,4,,,,,,,,3,,,45,0
36414,note_on,0,0,4,,,,,,,,3,,,39,0
36414,note_on,0,0,4,,,,,,,,3,,,42,0
36420,note_on,6,0,4,,,,,,,,3,,,48,85
36442,note_on,36,0,1,,,,,,,,0,,,60,0
36443,note_on,1,0,1,,,,,,,,0,,,57,85
36474,note_on,54,0,4,,,,,,,,3,,,48,0
36479,note_on,36,0,1,,,,,,,,0,,,57,0
36480,note_on,0,0,2,,,,,,,,1,,,66,74
36480,note_on,6,0,4,,,,,,,,3,,,36,86
36480,note_on,0,0,4,,,,,,,,3,,,39,86
36480,note_on,0,0,4,,,,,,,,3,,,42,86
36480,note_on,0,0,4,,,,,,,,3,,,45,86
36480,note_on,0,0,2,,,,,,,,1,,,60,74
36480,note_on,0,0,2,,,,,,,,1,,,63,74
36480,note_on,192,0,2,,,,,,,,1,,,69,74
36534,note_on,0,0,4,,,,,,,,3,,,39,0
36534,note_on,0,0,4,,,,,,,,3,,,42,0
36534,note_on,0,0,4,,,,,,,,3,,,36,0
36534,note_on,54,0,4,,,,,,,,3,,,45,0
36540,note_on,6,0,4,,,,,,,,3,,,48,87
36594,note_on,54,0,4,,,,,,,,3,,,48,0
36600,note_on,0,0,4,,,,,,,,3,,,42,87
36600,note_on,0,0,4,,,,,,,,3,,,45,87
36600,note_on,0,0,4,,,,,,,,3,,,39,87
36600,note_on,6,0,4,,,,,,,,3,,,36,87
36654,note_on,0,0,4,,,,,,,,3,,,42,0
36654,note_on,0,0,4,,,,,,,,3,,,36,0
36654,note_on,54,0,4,,,,,,,,3,,,45,0
36654,note_on,0,0,4,,,,,,,,3,,,39,0
36660,note_on,6,0,4,,,,,,,,3,,,48,88
36696,note_on,0,0,2,,,,,,,,1,,,63,0
36696,note_on,0,0,2,,,,,,,,1,,,69,0
36696,note_on,216,0,2,,,,,,,,1,,,60,0
36696,note_on,0,0,2,,,,,,,,1,,,66,0
36714,note_on,54,0,4,,,,,,,,3,,,48,0
36720,note_on,0,0,4,,,,,,,,3,,,45,89
36720,note_on,0,0,4,,,,,,,,3,,,42,89
36720,note_on,24,0,2,,,,,,,,1,,,57,76
36720,note_on,6,0,4,,,,,,,,3,,,36,89
36720,note_on,0,0,4,,,,,,,,3,,,39,89
36774,note_on,54,0,4,,,,,,,,3,,,45,0
36774,note_on,0,0,4,,,,,,,,3,,,36,0
36774,note_on,0,0,4,,,,,,,,3,,,39,0
36774,note_on,0,0,4,,,,,,,,3,,,42,0
36780,note_on,6,0,4,,,,,,,,3,,,48,89
36828,note_on,108,0,2,,,,,,,,1,,,57,0
36834,note_on,54,0,4,,,,,,,,3,,,48,0
36840,note_on,6,0,4,,,,,,,,3,,,36,90
36840,note_on,0,0,4,,,,,,,,3,,,45,90
36840,note_on,0,0,4,,,,,,,,3,,,42,90
36840,note_on,0,0,4,,,,,,,,3,,,39,90
36894,note_on,0,0,4,,,,,,,,3,,,36,0
36894,note_on,0,0,4,,,,,,,,3,,,39,0
36894,note_on,0,0,4,,,,,,,,3,,,42,0
36894,note_on,54,0,4,,,,,,,,3,,,45,0
36900,note_on,6,0,4,,,,,,,,3,,,48,90
36954,note_on,54,0,4,,,,,,,,3,,,48,0
36960,control_change,481,0,1,,,,,,,,0,64,0,,
36960,note_on,132,0,2,,,,,,,,1,,,57,78
36960,note_on,0,0,2,,,,,,,,1,,,54,78
36960,note_on,0,0,4,,,,,,,,3,,,42,91
36960,note_on,0,0,4,,,,,,,,3,,,39,91
36960,note_on,6,0,4,,,,,,,,3,,,36,91
36960,note_on,0,0,4,,,,,,,,3,,,45,91
37014,note_on,54,0,4,,,,,,,,3,,,45,0
37014,note_on,0,0,4,,,,,,,,3,,,39,0
37014,note_on,0,0,4,,,,,,,,3,,,42,0
37014,note_on,0,0,4,,,,,,,,3,,,36,0
37020,note_on,6,0,4,,,,,,,,3,,,48,92
37074,note_on,54,0,4,,,,,,,,3,,,48,0
37080,note_on,0,0,4,,,,,,,,3,,,45,93
37080,note_on,0,0,4,,,,,,,,3,,,42,93
37080,note_on,6,0,4,,,,,,,,3,,,36,93
37080,note_on,0,0,4,,,,,,,,3,,,39,93
37134,note_on,54,0,4,,,,,,,,3,,,45,0
37134,note_on,0,0,4,,,,,,,,3,,,36,0
37134,note_on,0,0,4,,,,,,,,3,,,39,0
37134,note_on,0,0,4,,,,,,,,3,,,42,0
37140,note_on,6,0,4,,,,,,,,3,,,48,93
37176,note_on,0,0,2,,,,,,,,1,,,57,0
37176,note_on,216,0,2,,,,,,,,1,,,54,0
37194,note_on,54,0,4,,,,,,,,3,,,48,0
37200,note_on,0,0,4,,,,,,,,3,,,42,94
37200,note_on,0,0,4,,,,,,,,3,,,39,94
37200,note_on,24,0,2,,,,,,,,1,,,51,80
37200,note_on,0,0,4,,,,,,,,3,,,45,94
37200,note_on,6,0,4,,,,,,,,3,,,36,94
37248,control_change,48,0,2,,,,,,,,1,64,0,,
37254,note_on,54,0,4,,,,,,,,3,,,45,0
37254,note_on,0,0,4,,,,,,,,3,,,36,0
37254,note_on,0,0,4,,,,,,,,3,,,39,0
37254,note_on,0,0,4,,,,,,,,3,,,42,0
37260,note_on,6,0,4,,,,,,,,3,,,48,94
37308,note_on,60,0,2,,,,,,,,1,,,51,0
37314,note_on,54,0,4,,,,,,,,3,,,48,0
37320,note_on,0,0,4,,,,,,,,3,,,42,95
37320,note_on,0,0,4,,,,,,,,3,,,45,95
37320,note_on,0,0,4,,,,,,,,3,,,39,95
37320,note_on,6,0,4,,,,,,,,3,,,36,95
37374,note_on,0,0,4,,,,,,,,3,,,42,0
37374,note_on,0,0,4,,,,,,,,3,,,39,0
37374,note_on,0,0,4,,,,,,,,3,,,36,0
37374,note_on,54,0,4,,,,,,,,3,,,45,0
37380,note_on,6,0,4,,,,,,,,3,,,48,96
37434,note_on,54,0,4,,,,,,,,3,,,48,0
37440,note_on,0,0,4,,,,,,,,3,,,42,95
37440,note_on,0,0,4,,,,,,,,3,,,36,95
37440,note_on,0,0,4,,,,,,,,3,,,45,95
37440,control_change,6,0,4,,,,,,,,3,64,0,,
37494,note_on,0,0,4,,,,,,,,3,,,36,0
37494,note_on,54,0,4,,,,,,,,3,,,45,0
37494,note_on,0,0,4,,,,,,,,3,,,42,0
37500,note_on,6,0,4,,,,,,,,3,,,48,95
37550,control_change,50,0,4,,,,,,,,3,64,127,,
37554,note_on,4,0,4,,,,,,,,3,,,48,0
37560,note_on,6,0,4,,,,,,,,3,,,35,95
37614,note_on,54,0,4,,,,,,,,3,,,35,0
37620,note_on,6,0,4,,,,,,,,3,,,47,95
37674,note_on,54,0,4,,,,,,,,3,,,47,0
37680,note_on,6,0,4,,,,,,,,3,,,34,95
37734,note_on,54,0,4,,,,,,,,3,,,34,0
37740,note_on,6,0,4,,,,,,,,3,,,46,95
37794,note_on,54,0,4,,,,,,,,3,,,46,0
37800,note_on,6,0,4,,,,,,,,3,,,33,95
37854,note_on,54,0,4,,,,,,,,3,,,33,0
37860,note_on,6,0,4,,,,,,,,3,,,45,95
37914,note_on,54,0,4,,,,,,,,3,,,45,0
37920,note_on,6,0,4,,,,,,,,3,,,32,95
37974,note_on,54,0,4,,,,,,,,3,,,32,0
37980,note_on,6,0,4,,,,,,,,3,,,44,95
38034,note_on,54,0,4,,,,,,,,3,,,44,0
38040,note_on,6,0,4,,,,,,,,3,,,31,95
38094,note_on,54,0,4,,,,,,,,3,,,31,0
38100,note_on,6,0,4,,,,,,,,3,,,43,95
38154,note_on,54,0,4,,,,,,,,3,,,43,0
38160,note_on,6,0,4,,,,,,,,3,,,30,95
38214,note_on,54,0,4,,,,,,,,3,,,30,0
38220,note_on,6,0,4,,,,,,,,3,,,42,95
38274,note_on,54,0,4,,,,,,,,3,,,42,0
38280,note_on,6,0,4,,,,,,,,3,,,29,95
38334,note_on,54,0,4,,,,,,,,3,,,29,0
38340,note_on,6,0,4,,,,,,,,3,,,41,95
38394,note_on,54,0,4,,,,,,,,3,,,41,0
38400,note_on,6,0,4,,,,,,,,3,,,28,96
38454,note_on,54,0,4,,,,,,,,3,,,28,0
38460,note_on,6,0,4,,,,,,,,3,,,40,93
38514,note_on,54,0,4,,,,,,,,3,,,40,0
38520,note_on,6,0,4,,,,,,,,3,,,27,91
38550,control_change,30,0,4,,,,,,,,3,64,0,,
38574,note_on,24,0,4,,,,,,,,3,,,27,0
38580,note_on,6,0,4,,,,,,,,3,,,39,89
38634,note_on,54,0,4,,,,,,,,3,,,39,0
38640,note_on,6,0,4,,,,,,,,3,,,26,87
38694,note_on,54,0,4,,,,,,,,3,,,26,0
38700,note_on,6,0,4,,,,,,,,3,,,38,85
38754,note_on,54,0,4,,,,,,,,3,,,38,0
38760,note_on,6,0,4,,,,,,,,3,,,25,83
38814,note_on,54,0,4,,,,,,,,3,,,25,0
38820,note_on,6,0,4,,,,,,,,3,,,37,80
38874,note_on,54,0,4,,,,,,,,3,,,37,0
38880,note_on,6,0,4,,,,,,,,3,,,24,78
38988,note_on,108,0,4,,,,,,,,3,,,24,0
39000,note_on,12,0,4,,,,,,,,3,,,36,74
39108,note_on,108,0,4,,,,,,,,3,,,36,0
39360,note_on,0,0,4,,,,,,,,3,,,36,61
39360,note_on,252,0,4,,,,,,,,3,,,24,61
39576,note_on,216,0,4,,,,,,,,3,,,36,0
39576,note_on,0,0,4,,,,,,,,3,,,24,0
40260,note_on,0,0,3,,,,,,,,2,,,63,64
40260,note_on,684,0,4,,,,,,,,3,,,36,64
40260,note_on,0,0,4,,,,,,,,3,,,43,64
40260,note_on,0,0,4,,,,,,,,3,,,51,64
40260,note_on,0,0,3,,,,,,,,2,,,55,64
40260,note_on,4284,0,3,,,,,,,,2,,,67,64
40314,note_on,0,0,3,,,,,,,,2,,,63,0
40314,note_on,54,0,3,,,,,,,,2,,,55,0
40314,note_on,0,0,4,,,,,,,,3,,,36,0
40314,note_on,0,0,4,,,,,,,,3,,,43,0
40314,note_on,54,0,4,,,,,,,,3,,,51,0
40314,note_on,0,0,3,,,,,,,,2,,,67,0
40320,note_on,0,0,2,,,,,,,,1,,,55,64
40320,note_on,0,0,4,,,,,,,,3,,,36,64
40320,note_on,0,0,4,,,,,,,,3,,,51,64
40320,note_on,0,0,4,,,,,,,,3,,,43,64
40320,control_change,3012,0,2,,,,,,,,1,64,127,,
40320,note_on,0,0,1,,,,,,,,0,,,63,64
40320,control_change,6,0,4,,,,,,,,3,64,127,,
40320,note_on,0,0,1,,,,,,,,0,,,67,64
40320,control_change,6,0,3,,,,,,,,2,64,127,,
40320,control_change,3360,0,1,,,,,,,,0,64,127,,
40836,note_on,516,0,2,,,,,,,,1,,,55,0
40840,note_on,4,0,2,,,,,,,,1,,,60,55
40876,note_on,36,0,2,,,,,,,,1,,,60,0
40880,note_on,4,0,2,,,,,,,,1,,,63,57
40916,note_on,36,0,2,,,,,,,,1,,,63,0
40920,note_on,4,0,2,,,,,,,,1,,,68,60
40956,note_on,36,0,2,,,,,,,,1,,,68,0
40960,note_on,4,0,2,,,,,,,,1,,,67,63
40996,note_on,36,0,2,,,,,,,,1,,,67,0
41000,note_on,4,0,2,,,,,,,,1,,,72,65
41036,note_on,36,0,2,,,,,,,,1,,,72,0
41040,note_on,4,0,2,,,,,,,,1,,,75,68
41076,note_on,36,0,2,,,,,,,,1,,,75,0
41080,note_on,4,0,2,,,,,,,,1,,,80,70
41116,note_on,36,0,2,,,,,,,,1,,,80,0
41120,note_on,4,0,2,,,,,,,,1,,,79,72
41156,note_on,36,0,2,,,,,,,,1,,,79,0
41160,note_on,4,0,2,,,,,,,,1,,,75,75
41196,note_on,36,0,2,,,,,,,,1,,,75,0
41200,note_on,4,0,2,,,,,,,,1,,,72,76
41220,note_on,0,0,4,,,,,,,,3,,,36,0
41220,note_on,0,0,4,,,,,,,,3,,,51,0
41220,note_on,900,0,1,,,,,,,,0,,,67,0
41220,note_on,900,0,4,,,,,,,,3,,,43,0
41220,note_on,0,0,1,,,,,,,,0,,,63,0
41220,note_on,0,0,1,,,,,,,,0,,,67,64
41220,note_on,0,0,1,,,,,,,,0,,,55,64
41220,note_on,0,0,1,,,,,,,,0,,,60,64
41236,note_on,36,0,2,,,,,,,,1,,,72,0
41240,note_on,4,0,2,,,,,,,,1,,,68,76
41274,note_on,54,0,1,,,,,,,,0,,,67,0
41274,note_on,0,0,1,,,,,,,,0,,,55,0
41274,note_on,0,0,1,,,,,,,,0,,,60,0
41276,note_on,36,0,2,,,,,,,,1,,,68,0
41280,control_change,4,0,2,,,,,,,,1,64,0,,
41280,control_change,6,0,1,,,,,,,,0,64,0,,
41280,note_on,0,0,1,,,,,,,,0,,,60,64
41280,note_on,0,0,1,,,,,,,,0,,,67,64
41280,note_on,0,0,4,,,,,,,,3,,,39,64
41280,note_on,0,0,4,,,,,,,,3,,,51,64
41280,note_on,0,0,2,,,,,,,,1,,,67,76
41280,note_on,0,0,4,,,,,,,,3,,,43,64
41280,control_change,60,0,4,,,,,,,,3,64,0,,
41280,control_change,960,0,3,,,,,,,,2,64,0,,
41280,note_on,0,0,1,,,,,,,,0,,,55,64
41316,note_on,36,0,2,,,,,,,,1,,,67,0
41320,note_on,4,0,2,,,,,,,,1,,,63,76
41356,note_on,36,0,2,,,,,,,,1,,,63,0
41360,note_on,4,0,2,,,,,,,,1,,,60,76
41396,note_on,36,0,2,,,,,,,,1,,,60,0
41400,note_on,4,0,2,,,,,,,,1,,,56,76
41436,note_on,36,0,2,,,,,,,,1,,,56,0
41440,note_on,4,0,2,,,,,,,,1,,,51,76
41476,note_on,36,0,2,,,,,,,,1,,,51,0
41480,note_on,4,0,2,,,,,,,,1,,,43,76
41496,note_on,216,0,1,,,,,,,,0,,,67,0
41496,note_on,0,0,4,,,,,,,,3,,,51,0
41496,note_on,0,0,4,,,,,,,,3,,,43,0
41496,note_on,0,0,1,,,,,,,,0,,,55,0
41496,note_on,0,0,1,,,,,,,,0,,,60,0
41496,note_on,216,0,4,,,,,,,,3,,,39,0
41516,note_on,36,0,2,,,,,,,,1,,,43,0
41520,note_on,4,0,2,,,,,,,,1,,,36,76
41556,note_on,36,0,2,,,,,,,,1,,,36,0
41700,note_on,204,0,1,,,,,,,,0,,,55,64
41700,note_on,0,0,1,,,,,,,,0,,,63,64
41700,note_on,0,0,1,,,,,,,,0,,,67,64
41700,note_on,204,0,4,,,,,,,,3,,,43,57
41700,note_on,0,0,4,,,,,,,,3,,,51,57
41700,note_on,0,0,4,,,,,,,,3,,,36,57
41754,note_on,0,0,4,,,,,,,,3,,,43,0
41754,note_on,0,0,4,,,,,,,,3,,,51,0
41754,note_on,54,0,1,,,,,,,,0,,,67,0
41754,note_on,0,0,1,,,,,,,,0,,,63,0
41754,note_on,0,0,1,,,,,,,,0,,,55,0
41754,note_on,54,0,4,,,,,,,,3,,,36,0
41760,note_on,0,0,4,,,,,,,,3,,,50,64
41760,control_change,6,0,1,,,,,,,,0,64,127,,
41760,note_on,0,0,1,,,,,,,,0,,,56,64
41760,note_on,0,0,1,,,,,,,,0,,,68,64
41760,note_on,6,0,4,,,,,,,,3,,,47,64
41760,note_on,0,0,4,,,,,,,,3,,,43,64
41760,control_change,480,0,3,,,,,,,,2,64,127,,
42192,note_on,432,0,4,,,,,,,,3,,,43,0
42192,note_on,0,0,4,,,,,,,,3,,,50,0
42192,note_on,0,0,4,,,,,,,,3,,,47,0
42192,note_on,432,0,1,,,,,,,,0,,,68,0
42240,note_on,48,0,4,,,,,,,,3,,,55,64
42240,note_on,0,0,4,,,,,,,,3,,,67,64
42276,note_on,84,0,1,,,,,,,,0,,,56,0
42280,note_on,4,0,1,,,,,,,,0,,,59,69
42316,note_on,36,0,1,,,,,,,,0,,,59,0
42320,note_on,4,0,1,,,,,,,,0,,,62,72
42356,note_on,36,0,1,,,,,,,,0,,,62,0
42360,note_on,4,0,1,,,,,,,,0,,,68,74
42396,note_on,36,0,1,,,,,,,,0,,,68,0
42400,note_on,4,0,1,,,,,,,,0,,,71,77
42436,note_on,36,0,1,,,,,,,,0,,,71,0
42440,note_on,4,0,1,,,,,,,,0,,,74,79
42456,note_on,216,0,4,,,,,,,,3,,,67,0
42456,note_on,0,0,4,,,,,,,,3,,,55,0
42476,note_on,36,0,1,,,,,,,,0,,,74,0
42480,note_on,4,0,1,,,,,,,,0,,,80,82
42516,note_on,36,0,1,,,,,,,,0,,,80,0
42520,note_on,4,0,1,,,,,,,,0,,,83,84
42556,note_on,36,0,1,,,,,,,,0,,,83,0
42560,note_on,4,0,1,,,,,,,,0,,,86,87
42596,note_on,36,0,1,,,,,,,,0,,,86,0
42600,note_on,840,0,3,,,,,,,,2,,,67,88
42600,note_on,4,0,1,,,,,,,,0,,,92,89
42636,note_on,36,0,1,,,,,,,,0,,,92,0
42640,note_on,4,0,1,,,,,,,,0,,,91,92
42676,note_on,36,0,1,,,,,,,,0,,,91,0
42680,note_on,4,0,1,,,,,,,,0,,,86,95
42708,note_on,108,0,3,,,,,,,,2,,,67,0
42716,note_on,36,0,1,,,,,,,,0,,,86,0
42720,note_on,0,0,4,,,,,,,,3,,,53,64
42720,control_change,12,0,3,,,,,,,,2,64,0,,
42720,note_on,0,0,3,,,,,,,,2,,,65,95
42720,note_on,0,0,3,,,,,,,,2,,,60,95
42720,note_on,264,0,4,,,,,,,,3,,,44,64
42720,note_on,0,0,1,,,,,,,,0,,,83,95
42720,control_change,4,0,1,,,,,,,,0,64,0,,
42720,note_on,0,0,4,,,,,,,,3,,,48,64
42756,note_on,36,0,1,,,,,,,,0,,,83,0
42760,note_on,4,0,1,,,,,,,,0,,,79,95
42796,note_on,36,0,1,,,,,,,,0,,,79,0
42800,note_on,4,0,1,,,,,,,,0,,,74,95
42836,note_on,36,0,1,,,,,,,,0,,,74,0
42840,note_on,4,0,1,,,,,,,,0,,,71,95
42876,note_on,36,0,1,,,,,,,,0,,,71,0
42880,note_on,4,0,1,,,,,,,,0,,,67,95
42916,note_on,36,0,1,,,,,,,,0,,,67,0
42920,note_on,4,0,1,,,,,,,,0,,,62,95
42936,note_on,0,0,4,,,,,,,,3,,,53,0
42936,note_on,216,0,4,,,,,,,,3,,,48,0
42936,note_on,216,0,3,,,,,,,,2,,,60,0
42936,note_on,0,0,3,,,,,,,,2,,,65,0
42936,note_on,0,0,4,,,,,,,,3,,,44,0
42956,note_on,36,0,1,,,,,,,,0,,,62,0
42960,note_on,4,0,1,,,,,,,,0,,,59,96
42996,note_on,36,0,1,,,,,,,,0,,,59,0
43000,note_on,4,0,1,,,,,,,,0,,,55,96
43036,note_on,36,0,1,,,,,,,,0,,,55,0
43040,note_on,4,0,1,,,,,,,,0,,,50,96
43076,note_on,36,0,1,,,,,,,,0,,,50,0
43080,note_on,4,0,1,,,,,,,,0,,,47,96
43116,note_on,36,0,1,,,,,,,,0,,,47,0
43120,note_on,4,0,1,,,,,,,,0,,,43,96
43140,note_on,0,0,4,,,,,,,,3,,,48,64
43140,note_on,0,0,4,,,,,,,,3,,,53,64
43140,note_on,204,0,4,,,,,,,,3,,,41,64
43140,note_on,204,0,3,,,,,,,,2,,,65,88
43140,note_on,0,0,3,,,,,,,,2,,,60,88
43140,note_on,0,0,3,,,,,,,,2,,,56,88
43156,note_on,36,0,1,,,,,,,,0,,,43,0
43194,note_on,0,0,4,,,,,,,,3,,,53,0
43194,note_on,54,0,4,,,,,,,,3,,,48,0
43194,note_on,54,0,3,,,,,,,,2,,,56,0
43194,note_on,0,0,3,,,,,,,,2,,,60,0
43194,note_on,0,0,3,,,,,,,,2,,,65,0
43194,note_on,0,0,4,,,,,,,,3,,,41,0
43200,control_change,6,0,4,,,,,,,,3,64,127,,
43200,control_change,44,0,1,,,,,,,,0,64,127,,
43200,control_change,6,0,3,,,,,,,,2,64,127,,
43200,note_on,0,0,3,,,,,,,,2,,,48,95
43200,note_on,0,0,4,,,,,,,,3,,,36,64
43200,note_on,0,0,2,,,,,,,,1,,,65,64
43200,note_on,0,0,2,,,,,,,,1,,,68,64
43200,control_change,1644,0,2,,,,,,,,1,64,127,,
43200,note_on,0,0,1,,,,,,,,0,,,56,96
43710,note_on,510,0,1,,,,,,,,0,,,56,0
43710,note_on,510,0,3,,,,,,,,2,,,48,0
43710,note_on,0,0,1,,,,,,,,0,,,60,64
43710,note_on,0,0,3,,,,,,,,2,,,53,66
43740,note_on,0,0,1,,,,,,,,0,,,65,64
43740,note_on,30,0,1,,,,,,,,0,,,60,0
43740,note_on,30,0,3,,,,,,,,2,,,53,0
43740,note_on,0,0,3,,,,,,,,2,,,56,69
43770,note_on,0,0,1,,,,,,,,0,,,68,64
43770,note_on,30,0,3,,,,,,,,2,,,56,0
43770,note_on,0,0,3,,,,,,,,2,,,60,70
43770,note_on,30,0,1,,,,,,,,0,,,65,0
43800,note_on,30,0,3,,,,,,,,2,,,60,0
43800,note_on,0,0,3,,,,,,,,2,,,65,74
43800,note_on,0,0,1,,,,,,,,0,,,72,64
43800,note_on,30,0,1,,,,,,,,0,,,68,0
43830,note_on,30,0,3,,,,,,,,2,,,65,0
43830,note_on,0,0,1,,,,,,,,0,,,77,64
43830,note_on,30,0,1,,,,,,,,0,,,72,0
43830,note_on,0,0,3,,,,,,,,2,,,68,75
43860,note_on,30,0,3,,,,,,,,2,,,68,0
43860,note_on,0,0,1,,,,,,,,0,,,80,64
43860,note_on,0,0,3,,,,,,,,2,,,72,78
43860,note_on,30,0,1,,,,,,,,0,,,77,0
43890,note_on,30,0,1,,,,,,,,0,,,80,0
43890,note_on,0,0,3,,,,,,,,2,,,77,80
43890,note_on,30,0,3,,,,,,,,2,,,72,0
43890,note_on,0,0,1,,,,,,,,0,,,84,64
43920,note_on,0,0,3,,,,,,,,2,,,80,83
43920,note_on,30,0,3,,,,,,,,2,,,77,0
43920,note_on,30,0,1,,,,,,,,0,,,84,0
43920,note_on,0,0,1,,,,,,,,0,,,89,64
43950,note_on,0,0,3,,,,,,,,2,,,85,86
43950,note_on,30,0,3,,,,,,,,2,,,80,0
43950,note_on,30,0,1,,,,,,,,0,,,89,0
43950,note_on,0,0,1,,,,,,,,0,,,92,64
43980,note_on,0,0,3,,,,,,,,2,,,84,88
43980,note_on,30,0,3,,,,,,,,2,,,85,0
43980,note_on,0,0,1,,,,,,,,0,,,97,80
43980,note_on,30,0,1,,,,,,,,0,,,92,0
44010,note_on,0,0,3,,,,,,,,2,,,80,91
44010,note_on,30,0,3,,,,,,,,2,,,84,0
44010,note_on,30,0,1,,,,,,,,0,,,97,0
44010,note_on,0,0,1,,,,,,,,0,,,96,80
44040,note_on,0,0,1,,,,,,,,0,,,92,64
44040,note_on,30,0,1,,,,,,,,0,,,96,0
44040,note_on,30,0,3,,,,,,,,2,,,80,0
44040,note_on,0,0,3,,,,,,,,2,,,77,92
44070,note_on,0,0,1,,,,,,,,0,,,89,64
44070,note_on,30,0,1,,,,,,,,0,,,92,0
44070,note_on,30,0,3,,,,,,,,2,,,77,0
44070,note_on,0,0,3,,,,,,,,2,,,73,96
44100,note_on,0,0,2,,,,,,,,1,,,65,0
44100,note_on,0,0,2,,,,,,,,1,,,65,89
44100,note_on,0,0,2,,,,,,,,1,,,68,89
44100,note_on,30,0,3,,,,,,,,2,,,73,0
44100,note_on,0,0,3,,,,,,,,2,,,72,96
44100,note_on,900,0,2,,,,,,,,1,,,68,0
44100,note_on,30,0,1,,,,,,,,0,,,89,0
44100,note_on,900,0,4,,,,,,,,3,,,36,0
44100,note_on,0,0,4,,,,,,,,3,,,61,64
44100,note_on,0,0,1,,,,,,,,0,,,85,64
44130,note_on,0,0,3,,,,,,,,2,,,68,96
44130,note_on,30,0,3,,,,,,,,2,,,72,0
44130,note_on,0,0,1,,,,,,,,0,,,84,64
44130,note_on,30,0,1,,,,,,,,0,,,85,0
44154,note_on,54,0,2,,,,,,,,1,,,68,0
44154,note_on,0,0,2,,,,,,,,1,,,65,0
44154,note_on,54,0,4,,,,,,,,3,,,61,0
44160,control_change,6,0,2,,,,,,,,1,64,0,,
44160,note_on,0,0,2,,,,,,,,1,,,64,93
44160,note_on,0,0,2,,,,,,,,1,,,67,93
44160,note_on,30,0,1,,,,,,,,0,,,84,0
44160,control_change,0,0,1,,,,,,,,0,64,0,,
44160,note_on,0,0,1,,,,,,,,0,,,80,64
44160,note_on,30,0,3,,,,,,,,2,,,68,0
44160,control_change,0,0,3,,,,,,,,2,64,0,,
44160,note_on,0,0,3,,,,,,,,2,,,65,96
44160,note_on,6,0,4,,,,,,,,3,,,60,84
44190,note_on,0,0,1,,,,,,,,0,,,77,64
44190,note_on,30,0,1,,,,,,,,0,,,80,0
44190,note_on,0,0,3,,,,,,,,2,,,61,96
44190,note_on,30,0,3,,,,,,,,2,,,65,0
44214,note_on,54,0,4,,,,,,,,3,,,60,0
44220,note_on,0,0,3,,,,,,,,2,,,60,96
44220,note_on,0,0,1,,,,,,,,0,,,73,64
44220,note_on,30,0,1,,,,,,,,0,,,77,0
44220,note_on,6,0,4,,,,,,,,3,,,58,84
44220,note_on,30,0,3,,,,,,,,2,,,61,0
44250,note_on,30,0,1,,,,,,,,0,,,73,0
44250,note_on,30,0,3,,,,,,,,2,,,60,0
44250,note_on,0,0,3,,,,,,,,2,,,56,96
44250,note_on,0,0,1,,,,,,,,0,,,72,64
44274,note_on,54,0,4,,,,,,,,3,,,58,0
44280,note_on,6,0,4,,,,,,,,3,,,55,84
44280,note_on,0,0,3,,,,,,,,2,,,53,96
44280,note_on,30,0,3,,,,,,,,2,,,56,0
44280,note_on,30,0,1,,,,,,,,0,,,72,0
44310,note_on,30,0,3,,,,,,,,2,,,53,0
44334,note_on,54,0,4,,,,,,,,3,,,55,0
44340,note_on,6,0,4,,,,,,,,3,,,52,84
44376,note_on,0,0,2,,,,,,,,1,,,64,0
44376,note_on,216,0,2,,,,,,,,1,,,67,0
44394,note_on,54,0,4,,,,,,,,3,,,52,0
44400,note_on,6,0,4,,,,,,,,3,,,49,84
44454,note_on,54,0,4,,,,,,,,3,,,49,0
44460,note_on,6,0,4,,,,,,,,3,,,48,84
44514,note_on,54,0,4,,,,,,,,3,,,48,0
44520,note_on,6,0,4,,,,,,,,3,,,46,84
44574,note_on,54,0,4,,,,,,,,3,,,46,0
44580,note_on,0,0,2,,,,,,,,1,,,70,89
44580,note_on,0,0,2,,,,,,,,1,,,67,89
44580,note_on,0,0,2,,,,,,,,1,,,63,89
44580,note_on,204,0,2,,,,,,,,1,,,60,89
44580,note_on,6,0,4,,,,,,,,3,,,43,84
44592,control_change,12,0,4,,,,,,,,3,64,0,,
44634,note_on,0,0,2,,,,,,,,1,,,67,0
44634,note_on,0,0,2,,,,,,,,1,,,63,0
44634,note_on,0,0,2,,,,,,,,1,,,60,0
44634,note_on,54,0,2,,,,,,,,1,,,70,0
44634,note_on,42,0,4,,,,,,,,3,,,43,0
44640,control_change,6,0,2,,,,,,,,1,64,127,,
44640,note_on,0,0,2,,,,,,,,1,,,68,94
44640,note_on,0,0,2,,,,,,,,1,,,60,94
44640,note_on,0,0,2,,,,,,,,1,,,65,94
44640,note_on,0,0,4,,,,,,,,3,,,41,67
44640,control_change,6,0,4,,,,,,,,3,64,127,,
44694,note_on,54,0,4,,,,,,,,3,,,41,0
44694,note_on,0,0,4,,,,,,,,3,,,44,69
44748,note_on,54,0,4,,,,,,,,3,,,44,0
44749,note_on,1,0,4,,,,,,,,3,,,48,72
44803,note_on,0,0,4,,,,,,,,3,,,53,75
44803,note_on,54,0,4,,,,,,,,3,,,48,0
44857,note_on,54,0,4,,,,,,,,3,,,53,0
44858,note_on,1,0,4,,,,,,,,3,,,56,78
44912,note_on,0,0,4,,,,,,,,3,,,53,80
44912,note_on,54,0,4,,,,,,,,3,,,56,0
44966,note_on,54,0,4,,,,,,,,3,,,53,0
44967,note_on,1,0,4,,,,,,,,3,,,48,83
45021,note_on,54,0,4,,,,,,,,3,,,48,0
45021,note_on,0,0,4,,,,,,,,3,,,44,85
45072,note_on,0,0,2,,,,,,,,1,,,60,0
45072,note_on,0,0,2,,,,,,,,1,,,65,0
45072,note_on,432,0,2,,,,,,,,1,,,68,0
45075,note_on,54,0,4,,,,,,,,3,,,44,0
45076,note_on,1,0,4,,,,,,,,3,,,41,88
45130,note_on,0,0,4,,,,,,,,3,,,36,90
45130,note_on,54,0,4,,,,,,,,3,,,41,0
45184,note_on,54,0,4,,,,,,,,3,,,36,0
45185,note_on,1,0,4,,,,,,,,3,,,32,93
45239,note_on,54,0,4,,,,,,,,3,,,32,0
45240,note_on,1,0,4,,,,,,,,3,,,29,96
45432,note_on,192,0,4,,,,,,,,3,,,29,0
45540,note_on,0,0,4,,,,,,,,3,,,36,64
45540,note_on,468,0,2,,,,,,,,1,,,56,89
45540,note_on,0,0,2,,,,,,,,1,,,60,89
45540,note_on,0,0,2,,,,,,,,1,,,68,89
45540,note_on,0,0,4,,,,,,,,3,,,41,64
45540,note_on,108,0,4,,,,,,,,3,,,29,64
45594,note_on,54,0,2,,,,,,,,1,,,68,0
45594,note_on,0,0,2,,,,,,,,1,,,60,0
45594,note_on,0,0,2,,,,,,,,1,,,56,0
45594,note_on,0,0,4,,,,,,,,3,,,41,0
45594,note_on,0,0,4,,,,,,,,3,,,29,0
45594,note_on,54,0,4,,,,,,,,3,,,36,0
45600,control_change,6,0,2,,,,,,,,1,64,0,,
45600,note_on,0,0,2,,,,,,,,1,,,65,94
45600,note_on,0,0,2,,,,,,,,1,,,60,94
45600,note_on,0,0,4,,,,,,,,3,,,32,64
45600,note_on,0,0,2,,,,,,,,1,,,56,94
45600,control_change,6,0,4,,,,,,,,3,64,0,,
45600,note_on,0,0,4,,,,,,,,3,,,36,64
45600,note_on,0,0,4,,,,,,,,3,,,41,64
45816,note_on,216,0,4,,,,,,,,3,,,32,0
45816,note_on,0,0,4,,,,,,,,3,,,41,0
45816,note_on,0,0,4,,,,,,,,3,,,36,0
45816,note_on,216,0,2,,,,,,,,1,,,65,0
45816,note_on,0,0,2,,,,,,,,1,,,60,0
45816,note_on,0,0,2,,,,,,,,1,,,56,0
46020,note_on,204,0,2,,,,,,,,1,,,56,91
46020,note_on,0,0,2,,,,,,,,1,,,68,91
46020,note_on,0,0,4,,,,,,,,3,,,41,64
46020,note_on,204,0,4,,,,,,,,3,,,36,64
46020,note_on,0,0,2,,,,,,,,1,,,60,91
46020,note_on,0,0,4,,,,,,,,3,,,29,64
46074,note_on,54,0,2,,,,,,,,1,,,68,0
46074,note_on,0,0,2,,,,,,,,1,,,60,0
46074,note_on,0,0,2,,,,,,,,1,,,56,0
46074,note_on,54,0,4,,,,,,,,3,,,29,0
46074,note_on,0,0,4,,,,,,,,3,,,41,0
46074,note_on,0,0,4,,,,,,,,3,,,36,0
46080,control_change,1800,0,1,,,,,,,,0,64,127,,
46080,note_on,0,0,1,,,,,,,,0,,,60,64
46080,control_change,1770,0,3,,,,,,,,2,64,127,,
46080,note_on,6,0,4,,,,,,,,3,,,44,92
46080,note_on,0,0,4,,,,,,,,3,,,48,92
46080,note_on,0,0,4,,,,,,,,3,,,56,92
46080,control_change,0,0,4,,,,,,,,3,64,127,,
46080,note_on,0,0,1,,,,,,,,0,,,72,64
46080,control_change,6,0,2,,,,,,,,1,64,127,,
46080,note_on,0,0,1,,,,,,,,0,,,65,64
46296,note_on,216,0,4,,,,,,,,3,,,56,0
46296,note_on,0,0,4,,,,,,,,3,,,44,0
46296,note_on,0,0,1,,,,,,,,0,,,60,0
46296,note_on,0,0,1,,,,,,,,0,,,65,0
46296,note_on,216,0,1,,,,,,,,0,,,72,0
46296,note_on,0,0,4,,,,,,,,3,,,48,0
46500,note_on,204,0,1,,,,,,,,0,,,60,64
46500,note_on,0,0,1,,,,,,,,0,,,65,64
46500,note_on,0,0,1,,,,,,,,0,,,72,64
46500,note_on,0,0,4,,,,,,,,3,,,56,78
46500,note_on,204,0,4,,,,,,,,3,,,44,78
46500,note_on,0,0,4,,,,,,,,3,,,48,78
46554,note_on,54,0,1,,,,,,,,0,,,72,0
46554,note_on,0,0,1,,,,,,,,0,,,65,0
46554,note_on,0,0,1,,,,,,,,0,,,60,0
46554,note_on,0,0,4,,,,,,,,3,,,44,0
46554,note_on,0,0,4,,,,,,,,3,,,48,0
46554,note_on,54,0,4,,,,,,,,3,,,56,0
46560,note_on,0,0,1,,,,,,,,0,,,73,64
46560,note_on,0,0,4,,,,,,,,3,,,41,85
46560,note_on,0,0,4,,,,,,,,3,,,49,85
46560,note_on,6,0,4,,,,,,,,3,,,56,85
46560,note_on,6,0,1,,,,,,,,0,,,61,64
46560,note_on,0,0,1,,,,,,,,0,,,68,64
46560,note_on,480,0,3,,,,,,,,2,,,56,64
46992,note_on,432,0,1,,,,,,,,0,,,73,0
46992,note_on,0,0,1,,,,,,,,0,,,68,0
46992,note_on,0,0,4,,,,,,,,3,,,56,0
46992,note_on,0,0,4,,,,,,,,3,,,49,0
46992,note_on,432,0,4,,,,,,,,3,,,41,0
47040,control_change,48,0,1,,,,,,,,0,64,0,,
47040,control_change,480,0,3,,,,,,,,2,64,0,,
47040,control_change,48,0,4,,,,,,,,3,64,0,,
47040,control_change,960,0,2,,,,,,,,1,64,0,,
47070,note_on,30,0,3,,,,,,,,2,,,56,0
47070,note_on,0,0,3,,,,,,,,2,,,56,67
47070,note_on,30,0,1,,,,,,,,0,,,61,0
47070,note_on,0,0,1,,,,,,,,0,,,65,64
47100,note_on,30,0,1,,,,,,,,0,,,65,0
47100,note_on,30,0,3,,,,,,,,2,,,56,0
47100,note_on,0,0,1,,,,,,,,0,,,68,67
47100,note_on,0,0,3,,,,,,,,2,,,61,69
47130,note_on,0,0,1,,,,,,,,0,,,73,68
47130,note_on,0,0,3,,,,,,,,2,,,65,70
47130,note_on,30,0,3,,,,,,,,2,,,61,0
47130,note_on,30,0,1,,,,,,,,0,,,68,0
47160,note_on,30,0,1,,,,,,,,0,,,73,0
47160,note_on,30,0,3,,,,,,,,2,,,65,0
47160,note_on,0,0,3,,,,,,,,2,,,68,72
47160,note_on,0,0,1,,,,,,,,0,,,77,71
47190,note_on,30,0,1,,,,,,,,0,,,77,0
47190,note_on,0,0,1,,,,,,,,0,,,80,72
47190,note_on,30,0,3,,,,,,,,2,,,68,0
47190,note_on,0,0,3,,,,,,,,2,,,73,74
47220,note_on,30,0,1,,,,,,,,0,,,80,0
47220,note_on,0,0,1,,,,,,,,0,,,85,74
47220,note_on,30,0,3,,,,,,,,2,,,73,0
47220,note_on,0,0,3,,,,,,,,2,,,77,76
47250,note_on,0,0,3,,,,,,,,2,,,80,77
47250,note_on,30,0,3,,,,,,,,2,,,77,0
47250,note_on,0,0,1,,,,,,,,0,,,89,76
47250,note_on,30,0,1,,,,,,,,0,,,85,0
47280,note_on,30,0,1,,,,,,,,0,,,89,0
47280,note_on,0,0,1,,,,,,,,0,,,92,78
47280,note_on,0,0,3,,,,,,,,2,,,86,79
47280,note_on,30,0,3,,,,,,,,2,,,80,0
47310,note_on,30,0,1,,,,,,,,0,,,92,0
47310,note_on,0,0,1,,,,,,,,0,,,99,81
47310,note_on,0,0,3,,,,,,,,2,,,88,82
47310,note_on,30,0,3,,,,,,,,2,,,86,0
47340,note_on,0,0,3,,,,,,,,2,,,86,83
47340,note_on,30,0,3,,,,,,,,2,,,88,0
47340,note_on,30,0,1,,,,,,,,0,,,99,0
47340,note_on,0,0,1,,,,,,,,0,,,97,82
47370,note_on,0,0,3,,,,,,,,2,,,80,85
47370,note_on,0,0,1,,,,,,,,0,,,89,87
47370,note_on,30,0,1,,,,,,,,0,,,97,0
47370,note_on,30,0,3,,,,,,,,2,,,86,0
47400,note_on,30,0,1,,,,,,,,0,,,89,0
47400,note_on,0,0,1,,,,,,,,0,,,85,84
47400,note_on,30,0,3,,,,,,,,2,,,80,0
47400,note_on,0,0,3,,,,,,,,2,,,77,82
47430,note_on,0,0,1,,,,,,,,0,,,80,78
47430,note_on,0,0,3,,,,,,,,2,,,73,77
47430,note_on,30,0,3,,,,,,,,2,,,77,0
47430,note_on,30,0,1,,,,,,,,0,,,85,0
47460,note_on,420,0,2,,,,,,,,1,,,60,76
47460,note_on,0,0,3,,,,,,,,2,,,68,75
47460,note_on,420,0,4,,,,,,,,3,,,56,64
47460,note_on,0,0,4,,,,,,,,3,,,44,64
47460,note_on,0,0,4,,,,,,,,3,,,53,64
47460,note_on,0,0,1,,,,,,,,0,,,77,74
47460,note_on,30,0,1,,,,,,,,0,,,80,0
47460,note_on,0,0,2,,,,,,,,1,,,72,76
47460,note_on,0,0,2,,,,,,,,1,,,65,76
47460,note_on,30,0,3,,,,,,,,2,,,73,0
47490,note_on,30,0,3,,,,,,,,2,,,68,0
47490,note_on,0,0,3,,,,,,,,2,,,65,69
47490,note_on,30,0,1,,,,,,,,0,,,77,0
47490,note_on,0,0,1,,,,,,,,0,,,73,68
47514,note_on,0,0,2,,,,,,,,1,,,65,0
47514,note_on,54,0,2,,,,,,,,1,,,72,0
47514,note_on,0,0,2,,,,,,,,1,,,60,0
47514,note_on,0,0,4,,,,,,,,3,,,44,0
47514,note_on,0,0,4,,,,,,,,3,,,56,0
47514,note_on,54,0,4,,,,,,,,3,,,53,0
47520,note_on,0,0,2,,,,,,,,1,,,63,90
47520,note_on,30,0,3,,,,,,,,2,,,65,0
47520,note_on,0,0,2,,,,,,,,1,,,72,90
47520,note_on,0,0,4,,,,,,,,3,,,51,64
47520,note_on,0,0,4,,,,,,,,3,,,43,64
47520,control_change,6,0,4,,,,,,,,3,64,127,,
47520,control_change,0,0,3,,,,,,,,2,64,127,,
47520,note_on,30,0,1,,,,,,,,0,,,73,0
47520,control_change,0,0,1,,,,,,,,0,64,127,,
47520,note_on,0,0,3,,,,,,,,2,,,55,64
47520,note_on,0,0,3,,,,,,,,2,,,61,64
47520,note_on,0,0,2,,,,,,,,1,,,60,90
47520,control_change,6,0,2,,,,,,,,1,64,127,,
47550,note_on,30,0,3,,,,,,,,2,,,61,0
47574,note_on,0,0,3,,,,,,,,2,,,60,57
47574,note_on,24,0,3,,,,,,,,2,,,55,0
47628,note_on,54,0,3,,,,,,,,2,,,60,0
47629,note_on,1,0,3,,,,,,,,2,,,63,60
47683,note_on,0,0,3,,,,,,,,2,,,68,64
47683,note_on,54,0,3,,,,,,,,2,,,63,0
47737,note_on,54,0,3,,,,,,,,2,,,68,0
47738,note_on,1,0,3,,,,,,,,2,,,67,67
47792,note_on,0,0,3,,,,,,,,2,,,63,71
47792,note_on,54,0,3,,,,,,,,2,,,67,0
47846,note_on,54,0,3,,,,,,,,2,,,63,0
47847,note_on,1,0,3,,,,,,,,2,,,60,74
47901,note_on,0,0,3,,,,,,,,2,,,56,76
47901,note_on,54,0,3,,,,,,,,2,,,60,0
47952,note_on,432,0,4,,,,,,,,3,,,51,0
47952,note_on,0,0,4,,,,,,,,3,,,43,0
47952,note_on,432,0,2,,,,,,,,1,,,72,0
47952,note_on,0,0,2,,,,,,,,1,,,63,0
47952,note_on,0,0,2,,,,,,,,1,,,60,0
47955,note_on,54,0,3,,,,,,,,2,,,56,0
47956,note_on,1,0,3,,,,,,,,2,,,55,80
48000,note_on,0,0,2,,,,,,,,1,,,71,91
48000,note_on,48,0,4,,,,,,,,3,,,43,62
48000,note_on,48,0,2,,,,,,,,1,,,59,91
48000,note_on,0,0,2,,,,,,,,1,,,62,91
48010,note_on,0,0,3,,,,,,,,2,,,51,83
48010,note_on,54,0,3,,,,,,,,2,,,55,0
48054,note_on,54,0,4,,,,,,,,3,,,43,0
48054,note_on,0,0,4,,,,,,,,3,,,47,64
48064,note_on,54,0,3,,,,,,,,2,,,51,0
48065,note_on,1,0,3,,,,,,,,2,,,48,87
48108,note_on,54,0,4,,,,,,,,3,,,47,0
48109,note_on,1,0,4,,,,,,,,3,,,50,63
48119,note_on,54,0,3,,,,,,,,2,,,48,0
48163,note_on,54,0,4,,,,,,,,3,,,50,0
48163,note_on,0,0,4,,,,,,,,3,,,56,68
48216,note_on,0,0,2,,,,,,,,1,,,59,0
48216,note_on,0,0,2,,,,,,,,1,,,62,0
48216,note_on,216,0,2,,,,,,,,1,,,71,0
48217,note_on,54,0,4,,,,,,,,3,,,56,0
48218,note_on,1,0,4,,,,,,,,3,,,55,73
48272,note_on,0,0,4,,,,,,,,3,,,50,77
48272,note_on,54,0,4,,,,,,,,3,,,55,0
48326,note_on,54,0,4,,,,,,,,3,,,50,0
48327,note_on,1,0,4,,,,,,,,3,,,47,82
48381,note_on,54,0,4,,,,,,,,3,,,47,0
48381,note_on,0,0,4,,,,,,,,3,,,44,86
48420,note_on,204,0,2,,,,,,,,1,,,58,85
48420,note_on,0,0,2,,,,,,,,1,,,67,85
48420,note_on,0,0,2,,,,,,,,1,,,70,85
48435,note_on,54,0,4,,,,,,,,3,,,44,0
48436,note_on,1,0,4,,,,,,,,3,,,43,90
48474,note_on,54,0,2,,,,,,,,1,,,70,0
48474,note_on,0,0,2,,,,,,,,1,,,67,0
48474,note_on,0,0,2,,,,,,,,1,,,58,0
48480,note_on,0,0,2,,,,,,,,1,,,72,94
48480,control_change,960,0,1,,,,,,,,0,64,0,,
48480,control_change,44,0,4,,,,,,,,3,64,0,,
48480,note_on,0,0,3,,,,,,,,2,,,48,64
48480,note_on,0,0,3,,,,,,,,2,,,39,64
48480,control_change,361,0,3,,,,,,,,2,64,0,,
48480,note_on,0,0,2,,,,,,,,1,,,67,94
48480,note_on,0,0,2,,,,,,,,1,,,60,94
48480,control_change,6,0,2,,,,,,,,1,64,0,,
48490,note_on,10,0,4,,,,,,,,3,,,43,0
48490,note_on,0,0,4,,,,,,,,3,,,41,95
48544,note_on,54,0,4,,,,,,,,3,,,41,0
48545,note_on,0,0,4,,,,,,,,3,,,47,64
48545,note_on,1,0,4,,,,,,,,3,,,38,64
48599,note_on,0,0,4,,,,,,,,3,,,38,0
48599,note_on,54,0,4,,,,,,,,3,,,47,0
48696,note_on,0,0,2,,,,,,,,1,,,60,0
48696,note_on,0,0,3,,,,,,,,2,,,39,0
48696,note_on,216,0,3,,,,,,,,2,,,48,0
48696,note_on,216,0,2,,,,,,,,1,,,72,0
48696,note_on,0,0,2,,,,,,,,1,,,67,0
48900,note_on,0,0,3,,,,,,,,2,,,51,64
48900,note_on,204,0,3,,,,,,,,2,,,36,64
48900,note_on,0,0,2,,,,,,,,1,,,75,93
48900,note_on,0,0,2,,,,,,,,1,,,67,93
48900,note_on,204,0,2,,,,,,,,1,,,63,93
48954,note_on,0,0,2,,,,,,,,1,,,63,0
48954,note_on,0,0,2,,,,,,,,1,,,67,0
48954,note_on,54,0,2,,,,,,,,1,,,75,0
48954,note_on,54,0,3,,,,,,,,2,,,51,0
48954,note_on,0,0,3,,,,,,,,2,,,36,0
48960,note_on,0,0,1,,,,,,,,0,,,67,93
48960,note_on,0,0,1,,,,,,,,0,,,72,93
48960,note_on,0,0,1,,,,,,,,0,,,75,93
48960,note_on,0,0,1,,,,,,,,0,,,79,93
48960,control_change,6,0,2,,,,,,,,1,64,127,,
48960,control_change,0,0,4,,,,,,,,3,64,127,,
48960,note_on,361,0,4,,,,,,,,3,,,31,64
48960,control_change,480,0,1,,,,,,,,0,64,127,,
48960,control_change,6,0,3,,,,,,,,2,64,127,,
48960,note_on,0,0,3,,,,,,,,2,,,43,64
49392,note_on,432,0,1,,,,,,,,0,,,67,0
49392,note_on,0,0,1,,,,,,,,0,,,79,0
49392,note_on,0,0,1,,,,,,,,0,,,75,0
49392,note_on,0,0,1,,,,,,,,0,,,72,0
49476,note_on,516,0,4,,,,,,,,3,,,31,0
49476,note_on,516,0,3,,,,,,,,2,,,43,0
49480,note_on,4,0,4,,,,,,,,3,,,36,72
49480,note_on,4,0,3,,,,,,,,2,,,48,73
49516,note_on,36,0,3,,,,,,,,2,,,48,0
49516,note_on,36,0,4,,,,,,,,3,,,36,0
49520,note_on,4,0,3,,,,,,,,2,,,51,75
49520,note_on,4,0,4,,,,,,,,3,,,39,74
49556,note_on,36,0,3,,,,,,,,2,,,51,0
49556,note_on,36,0,4,,,,,,,,3,,,39,0
49560,note_on,4,0,4,,,,,,,,3,,,44,76
49560,note_on,4,0,3,,,,,,,,2,,,56,77
49596,note_on,36,0,4,,,,,,,,3,,,44,0
49596,note_on,36,0,3,,,,,,,,2,,,56,0
49600,note_on,4,0,3,,,,,,,,2,,,55,79
49600,note_on,4,0,4,,,,,,,,3,,,43,78
49636,note_on,36,0,4,,,,,,,,3,,,43,0
49636,note_on,36,0,3,,,,,,,,2,,,55,0
49640,note_on,4,0,4,,,,,,,,3,,,48,80
49640,note_on,4,0,3,,,,,,,,2,,,60,81
49676,note_on,36,0,3,,,,,,,,2,,,60,0
49676,note_on,36,0,4,,,,,,,,3,,,48,0
49680,note_on,4,0,3,,,,,,,,2,,,63,83
49680,note_on,4,0,4,,,,,,,,3,,,51,83
49716,note_on,36,0,4,,,,,,,,3,,,51,0
49716,note_on,36,0,3,,,,,,,,2,,,63,0
49720,note_on,4,0,4,,,,,,,,3,,,56,85
49720,note_on,4,0,3,,,,,,,,2,,,68,85
49756,note_on,36,0,4,,,,,,,,3,,,56,0
49756,note_on,36,0,3,,,,,,,,2,,,68,0
49760,note_on,4,0,4,,,,,,,,3,,,55,87
49760,note_on,4,0,3,,,,,,,,2,,,67,87
49796,note_on,36,0,3,,,,,,,,2,,,67,0
49796,note_on,36,0,4,,,,,,,,3,,,55,0
49800,note_on,4,0,3,,,,,,,,2,,,72,89
49800,note_on,4,0,4,,,,,,,,3,,,60,89
49836,note_on,36,0,4,,,,,,,,3,,,60,0
49836,note_on,36,0,3,,,,,,,,2,,,72,0
49840,note_on,4,0,3,,,,,,,,2,,,75,91
49840,note_on,4,0,4,,,,,,,,3,,,63,91
49876,note_on,36,0,4,,,,,,,,3,,,63,0
49876,note_on,36,0,3,,,,,,,,2,,,75,0
49880,note_on,4,0,4,,,,,,,,3,,,68,93
49880,note_on,4,0,3,,,,,,,,2,,,80,93
49916,note_on,36,0,3,,,,,,,,2,,,80,0
49916,note_on,36,0,4,,,,,,,,3,,,68,0
49920,control_change,960,0,2,,,,,,,,1,64,0,,
49920,note_on,4,0,3,,,,,,,,2,,,79,96
49920,note_on,4,0,4,,,,,,,,3,,,67,64
49920,control_change,528,0,1,,,,,,,,0,64,0,,
49956,note_on,36,0,3,,,,,,,,2,,,79,0
49956,note_on,36,0,4,,,,,,,,3,,,67,0
49960,note_on,4,0,4,,,,,,,,3,,,72,96
49960,note_on,4,0,3,,,,,,,,2,,,84,96
49996,note_on,36,0,3,,,,,,,,2,,,84,0
49996,note_on,36,0,4,,,,,,,,3,,,72,0
50000,note_on,4,0,3,,,,,,,,2,,,87,96
50000,note_on,4,0,4,,,,,,,,3,,,75,96
50036,note_on,36,0,4,,,,,,,,3,,,75,0
50036,note_on,36,0,3,,,,,,,,2,,,87,0
50040,note_on,4,0,3,,,,,,,,2,,,92,95
50040,note_on,4,0,4,,,,,,,,3,,,80,96
50076,note_on,36,0,3,,,,,,,,2,,,92,0
50076,note_on,36,0,4,,,,,,,,3,,,80,0
50080,note_on,4,0,3,,,,,,,,2,,,91,95
50080,note_on,4,0,4,,,,,,,,3,,,79,96
50116,note_on,36,0,3,,,,,,,,2,,,91,0
50116,note_on,36,0,4,,,,,,,,3,,,79,0
50120,note_on,4,0,3,,,,,,,,2,,,99,95
50120,note_on,4,0,4,,,,,,,,3,,,87,96
50156,note_on,36,0,4,,,,,,,,3,,,87,0
50156,note_on,36,0,3,,,,,,,,2,,,99,0
50160,note_on,4,0,4,,,,,,,,3,,,86,96
50160,note_on,4,0,3,,,,,,,,2,,,98,95
50196,note_on,36,0,4,,,,,,,,3,,,86,0
50196,note_on,36,0,3,,,,,,,,2,,,98,0
50200,note_on,4,0,4,,,,,,,,3,,,85,96
50200,note_on,4,0,3,,,,,,,,2,,,97,95
50236,note_on,36,0,4,,,,,,,,3,,,85,0
50236,note_on,36,0,3,,,,,,,,2,,,97,0
50240,note_on,4,0,4,,,,,,,,3,,,84,96
50240,note_on,4,0,3,,,,,,,,2,,,96,95
50276,note_on,36,0,4,,,,,,,,3,,,84,0
50276,note_on,36,0,3,,,,,,,,2,,,96,0
50280,note_on,4,0,4,,,,,,,,3,,,83,96
50280,note_on,4,0,3,,,,,,,,2,,,95,95
50316,note_on,36,0,4,,,,,,,,3,,,83,0
50316,note_on,36,0,3,,,,,,,,2,,,95,0
50320,note_on,4,0,3,,,,,,,,2,,,94,95
50320,note_on,4,0,4,,,,,,,,3,,,82,96
50356,note_on,36,0,4,,,,,,,,3,,,82,0
50356,note_on,36,0,3,,,,,,,,2,,,94,0
50360,note_on,4,0,3,,,,,,,,2,,,93,95
50360,note_on,4,0,4,,,,,,,,3,,,81,96
50396,note_on,36,0,3,,,,,,,,2,,,93,0
50396,note_on,36,0,4,,,,,,,,3,,,81,0
50400,note_on,4,0,4,,,,,,,,3,,,80,96
50400,note_on,4,0,3,,,,,,,,2,,,92,95
50436,note_on,36,0,3,,,,,,,,2,,,92,0
50436,note_on,36,0,4,,,,,,,,3,,,80,0
50440,note_on,4,0,3,,,,,,,,2,,,91,95
50440,note_on,4,0,4,,,,,,,,3,,,79,96
50476,note_on,36,0,3,,,,,,,,2,,,91,0
50476,note_on,36,0,4,,,,,,,,3,,,79,0
50480,note_on,4,0,4,,,,,,,,3,,,78,96
50480,note_on,4,0,3,,,,,,,,2,,,90,95
50516,note_on,36,0,3,,,,,,,,2,,,90,0
50516,note_on,36,0,4,,,,,,,,3,,,78,0
50520,note_on,4,0,4,,,,,,,,3,,,77,96
50520,note_on,4,0,3,,,,,,,,2,,,89,95
50556,note_on,36,0,4,,,,,,,,3,,,77,0
50556,note_on,36,0,3,,,,,,,,2,,,89,0
50560,note_on,4,0,3,,,,,,,,2,,,88,95
50560,note_on,4,0,4,,,,,,,,3,,,76,96
50596,note_on,36,0,4,,,,,,,,3,,,76,0
50596,note_on,36,0,3,,,,,,,,2,,,88,0
50600,note_on,4,0,3,,,,,,,,2,,,87,95
50600,note_on,4,0,4,,,,,,,,3,,,75,96
50636,note_on,36,0,3,,,,,,,,2,,,87,0
50636,note_on,36,0,4,,,,,,,,3,,,75,0
50640,note_on,4,0,3,,,,,,,,2,,,86,95
50640,note_on,4,0,4,,,,,,,,3,,,74,96
50676,note_on,36,0,3,,,,,,,,2,,,86,0
50676,note_on,36,0,4,,,,,,,,3,,,74,0
50680,note_on,4,0,3,,,,,,,,2,,,85,95
50680,note_on,4,0,4,,,,,,,,3,,,73,96
50716,note_on,36,0,3,,,,,,,,2,,,85,0
50716,note_on,36,0,4,,,,,,,,3,,,73,0
50720,note_on,4,0,3,,,,,,,,2,,,84,95
50720,note_on,4,0,4,,,,,,,,3,,,72,96
50756,note_on,36,0,3,,,,,,,,2,,,84,0
50756,note_on,36,0,4,,,,,,,,3,,,72,0
50760,note_on,4,0,3,,,,,,,,2,,,83,95
50760,note_on,4,0,4,,,,,,,,3,,,71,96
50796,note_on,36,0,4,,,,,,,,3,,,71,0
50796,note_on,36,0,3,,,,,,,,2,,,83,0
50800,note_on,4,0,4,,,,,,,,3,,,70,96
50800,note_on,4,0,3,,,,,,,,2,,,82,95
50836,note_on,36,0,4,,,,,,,,3,,,70,0
50836,note_on,36,0,3,,,,,,,,2,,,82,0
50840,note_on,4,0,4,,,,,,,,3,,,69,96
50840,note_on,4,0,3,,,,,,,,2,,,81,95
50876,note_on,36,0,3,,,,,,,,2,,,81,0
50876,note_on,36,0,4,,,,,,,,3,,,69,0
50880,note_on,4,0,3,,,,,,,,2,,,80,94
50880,note_on,4,0,4,,,,,,,,3,,,68,96
50916,note_on,36,0,4,,,,,,,,3,,,68,0
50916,note_on,36,0,3,,,,,,,,2,,,80,0
50920,note_on,4,0,3,,,,,,,,2,,,79,94
50920,note_on,4,0,4,,,,,,,,3,,,67,96
50956,note_on,36,0,4,,,,,,,,3,,,67,0
50956,note_on,36,0,3,,,,,,,,2,,,79,0
50960,note_on,4,0,4,,,,,,,,3,,,66,96
50960,note_on,4,0,3,,,,,,,,2,,,78,94
50996,note_on,36,0,3,,,,,,,,2,,,78,0
50996,note_on,36,0,4,,,,,,,,3,,,66,0
51000,note_on,4,0,4,,,,,,,,3,,,65,96
51000,note_on,4,0,3,,,,,,,,2,,,77,94
51036,note_on,36,0,4,,,,,,,,3,,,65,0
51036,note_on,36,0,3,,,,,,,,2,,,77,0
51040,note_on,4,0,3,,,,,,,,2,,,76,94
51040,note_on,4,0,4,,,,,,,,3,,,64,96
51076,note_on,36,0,3,,,,,,,,2,,,76,0
51076,note_on,36,0,4,,,,,,,,3,,,64,0
51080,note_on,4,0,4,,,,,,,,3,,,63,96
51080,note_on,4,0,3,,,,,,,,2,,,75,94
51116,note_on,36,0,4,,,,,,,,3,,,63,0
51116,note_on,36,0,3,,,,,,,,2,,,75,0
51120,note_on,4,0,4,,,,,,,,3,,,62,96
51120,note_on,4,0,3,,,,,,,,2,,,74,94
51156,note_on,36,0,4,,,,,,,,3,,,62,0
51156,note_on,36,0,3,,,,,,,,2,,,74,0
51160,note_on,4,0,4,,,,,,,,3,,,61,96
51160,note_on,4,0,3,,,,,,,,2,,,73,94
51196,note_on,36,0,4,,,,,,,,3,,,61,0
51196,note_on,36,0,3,,,,,,,,2,,,73,0
51200,note_on,4,0,4,,,,,,,,3,,,60,96
51200,note_on,4,0,3,,,,,,,,2,,,72,94
51236,note_on,36,0,3,,,,,,,,2,,,72,0
51236,note_on,36,0,4,,,,,,,,3,,,60,0
51240,note_on,4,0,3,,,,,,,,2,,,71,94
51240,note_on,4,0,4,,,,,,,,3,,,59,96
51276,note_on,36,0,3,,,,,,,,2,,,71,0
51276,note_on,36,0,4,,,,,,,,3,,,59,0
51280,note_on,4,0,4,,,,,,,,3,,,58,96
51280,note_on,4,0,3,,,,,,,,2,,,70,94
51316,note_on,36,0,4,,,,,,,,3,,,58,0
51316,note_on,36,0,3,,,,,,,,2,,,70,0
51320,note_on,4,0,4,,,,,,,,3,,,57,96
51320,note_on,4,0,3,,,,,,,,2,,,69,94
51356,note_on,36,0,4,,,,,,,,3,,,57,0
51356,note_on,36,0,3,,,,,,,,2,,,69,0
51360,note_on,4,0,4,,,,,,,,3,,,56,96
51360,note_on,4,0,3,,,,,,,,2,,,68,94
51396,note_on,36,0,3,,,,,,,,2,,,68,0
51396,note_on,36,0,4,,,,,,,,3,,,56,0
51400,note_on,4,0,4,,,,,,,,3,,,55,96
51400,note_on,4,0,3,,,,,,,,2,,,67,94
51436,note_on,36,0,4,,,,,,,,3,,,55,0
51436,note_on,36,0,3,,,,,,,,2,,,67,0
51440,note_on,4,0,4,,,,,,,,3,,,54,96
51440,note_on,4,0,3,,,,,,,,2,,,66,94
51476,note_on,36,0,4,,,,,,,,3,,,54,0
51476,note_on,36,0,3,,,,,,,,2,,,66,0
51480,note_on,4,0,4,,,,,,,,3,,,53,96
51480,note_on,4,0,3,,,,,,,,2,,,65,94
51516,note_on,36,0,3,,,,,,,,2,,,65,0
51516,note_on,36,0,4,,,,,,,,3,,,53,0
51520,note_on,4,0,3,,,,,,,,2,,,64,94
51520,note_on,4,0,4,,,,,,,,3,,,52,96
51556,note_on,36,0,3,,,,,,,,2,,,64,0
51556,note_on,36,0,4,,,,,,,,3,,,52,0
51560,note_on,4,0,3,,,,,,,,2,,,63,94
51560,note_on,4,0,4,,,,,,,,3,,,51,96
51596,note_on,36,0,3,,,,,,,,2,,,63,0
51596,note_on,36,0,4,,,,,,,,3,,,51,0
51600,note_on,4,0,3,,,,,,,,2,,,62,94
51600,note_on,4,0,4,,,,,,,,3,,,50,96
51636,note_on,36,0,3,,,,,,,,2,,,62,0
51636,note_on,36,0,4,,,,,,,,3,,,50,0
51640,note_on,4,0,3,,,,,,,,2,,,61,94
51640,note_on,4,0,4,,,,,,,,3,,,49,96
51676,note_on,36,0,4,,,,,,,,3,,,49,0
51676,note_on,36,0,3,,,,,,,,2,,,61,0
51680,note_on,4,0,3,,,,,,,,2,,,60,94
51680,note_on,4,0,4,,,,,,,,3,,,48,96
51696,control_change,16,0,3,,,,,,,,2,64,0,,
51716,note_on,20,0,3,,,,,,,,2,,,60,0
51716,note_on,36,0,4,,,,,,,,3,,,48,0
51720,note_on,4,0,3,,,,,,,,2,,,58,94
51720,note_on,4,0,4,,,,,,,,3,,,46,96
51728,control_change,8,0,4,,,,,,,,3,64,0,,
51774,note_on,54,0,3,,,,,,,,2,,,58,0
51774,note_on,46,0,4,,,,,,,,3,,,46,0
51780,note_on,6,0,4,,,,,,,,3,,,48,96
51780,note_on,6,0,3,,,,,,,,2,,,60,94
51834,note_on,54,0,4,,,,,,,,3,,,48,0
51834,note_on,54,0,3,,,,,,,,2,,,60,0
51840,note_on,1920,0,1,,,,,,,,0,,,59,94
51840,note_on,0,0,4,,,,,,,,3,,,53,96
51840,note_on,0,0,4,,,,,,,,3,,,44,96
51840,note_on,0,0,4,,,,,,,,3,,,47,96
51840,note_on,0,0,1,,,,,,,,0,,,62,94
51840,note_on,0,0,1,,,,,,,,0,,,68,94
51840,note_on,0,0,1,,,,,,,,0,,,71,94
51840,time_signature,28800,1,0,1,4,24,8,,,,,,,,
51840,note_on,6,0,4,,,,,,,,3,,,56,96
52056,note_on,0,0,1,,,,,,,,0,,,62,0
52056,note_on,0,0,4,,,,,,,,3,,,44,0
52056,note_on,0,0,4,,,,,,,,3,,,53,0
52056,note_on,0,0,4,,,,,,,,3,,,56,0
52056,note_on,216,0,4,,,,,,,,3,,,47,0
52056,note_on,0,0,1,,,,,,,,0,,,68,0
52056,note_on,0,0,1,,,,,,,,0,,,59,0
52056,note_on,216,0,1,,,,,,,,0,,,71,0
52260,note_on,204,0,1,,,,,,,,0,,,59,88
52260,note_on,0,0,1,,,,,,,,0,,,62,88
52260,note_on,0,0,1,,,,,,,,0,,,67,88
52260,note_on,0,0,1,,,,,,,,0,,,71,88
52260,note_on,204,0,4,,,,,,,,3,,,55,64
52260,note_on,0,0,4,,,,,,,,3,,,47,64
52260,note_on,0,0,4,,,,,,,,3,,,43,64
52260,note_on,0,0,4,,,,,,,,3,,,53,64
52314,note_on,54,0,4,,,,,,,,3,,,53,0
52314,note_on,0,0,4,,,,,,,,3,,,55,0
52314,note_on,0,0,4,,,,,,,,3,,,47,0
52314,note_on,0,0,4,,,,,,,,3,,,43,0
52314,note_on,0,0,1,,,,,,,,0,,,67,0
52314,note_on,0,0,1,,,,,,,,0,,,62,0
52314,note_on,0,0,1,,,,,,,,0,,,59,0
52314,note_on,54,0,1,,,,,,,,0,,,71,0
52320,note_on,0,0,1,,,,,,,,0,,,51,94
52320,note_on,6,0,1,,,,,,,,0,,,48,94
52320,note_on,0,0,4,,,,,,,,3,,,48,64
52320,note_on,0,0,4,,,,,,,,3,,,43,64
52320,note_on,0,0,1,,,,,,,,0,,,55,94
52320,note_on,0,0,4,,,,,,,,3,,,39,64
52320,note_on,6,0,4,,,,,,,,3,,,36,64
52320,end_of_track,0,1,0,,,,,,,,,,,,
52320,control_change,0,0,4,,,,,,,,3,64,127,,
52320,note_on,0,0,1,,,,,,,,0,,,60,94
52320,time_signature,480,1,0,3,4,24,8,,,,,,,,
52428,note_on,108,0,4,,,,,,,,3,,,43,0
52428,note_on,0,0,4,,,,,,,,3,,,48,0
52428,note_on,0,0,4,,,,,,,,3,,,36,0
52428,note_on,0,0,4,,,,,,,,3,,,39,0
52440,note_on,12,0,4,,,,,,,,3,,,24,89
52494,note_on,54,0,4,,,,,,,,3,,,24,0
52500,note_on,6,0,4,,,,,,,,3,,,36,89
52554,note_on,54,0,4,,,,,,,,3,,,36,0
52560,note_on,6,0,4,,,,,,,,3,,,24,88
52614,note_on,54,0,4,,,,,,,,3,,,24,0
52620,note_on,6,0,4,,,,,,,,3,,,36,87
52674,note_on,54,0,4,,,,,,,,3,,,36,0
52680,note_on,6,0,4,,,,,,,,3,,,24,87
52734,note_on,54,0,4,,,,,,,,3,,,24,0
52740,note_on,6,0,4,,,,,,,,3,,,36,86
52752,note_on,0,0,1,,,,,,,,0,,,55,0
52752,note_on,0,0,1,,,,,,,,0,,,48,0
52752,note_on,432,0,1,,,,,,,,0,,,60,0
52752,note_on,0,0,1,,,,,,,,0,,,51,0
52794,note_on,54,0,4,,,,,,,,3,,,36,0
52800,note_on,6,0,4,,,,,,,,3,,,24,85
52830,control_change,30,0,4,,,,,,,,3,64,0,,
53016,note_on,186,0,4,,,,,,,,3,,,24,0
53280,note_on,264,0,4,,,,,,,,3,,,24,82
53496,note_on,216,0,4,,,,,,,,3,,,24,0
53760,control_change,264,0,4,,,,,,,,3,64,127,,
53760,note_on,0,0,4,,,,,,,,3,,,24,80
53814,note_on,54,0,4,,,,,,,,3,,,24,0
53820,note_on,6,0,4,,,,,,,,3,,,36,79
53874,note_on,54,0,4,,,,,,,,3,,,36,0
53880,note_on,6,0,4,,,,,,,,3,,,24,77
53934,note_on,54,0,4,,,,,,,,3,,,24,0
53940,note_on,6,0,4,,,,,,,,3,,,36,76
53994,note_on,54,0,4,,,,,,,,3,,,36,0
54000,note_on,6,0,4,,,,,,,,3,,,24,75
54054,note_on,54,0,4,,,,,,,,3,,,24,0
54060,note_on,6,0,4,,,,,,,,3,,,36,73
54114,note_on,54,0,4,,,,,,,,3,,,36,0
54120,note_on,6,0,4,,,,,,,,3,,,24,72
54174,note_on,54,0,4,,,,,,,,3,,,24,0
54180,note_on,6,0,4,,,,,,,,3,,,36,71
54234,note_on,54,0,4,,,,,,,,3,,,36,0
54240,note_on,6,0,4,,,,,,,,3,,,24,69
54326,control_change,86,0,4,,,,,,,,3,64,0,,
54456,note_on,130,0,4,,,,,,,,3,,,24,0
54720,note_on,264,0,4,,,,,,,,3,,,24,58
54936,note_on,216,0,4,,,,,,,,3,,,24,0
55200,control_change,264,0,4,,,,,,,,3,64,127,,
55200,note_on,0,0,4,,,,,,,,3,,,24,46
55200,control_change,2448,0,1,,,,,,,,0,64,127,,
55200,note_on,0,0,1,,,,,,,,0,,,69,45
55253,note_on,53,0,1,,,,,,,,0,,,69,0
55253,note_on,0,0,1,,,,,,,,0,,,72,44
55254,note_on,54,0,4,,,,,,,,3,,,24,0
55260,note_on,6,0,4,,,,,,,,3,,,36,45
55306,note_on,53,0,1,,,,,,,,0,,,72,0
55306,note_on,0,0,1,,,,,,,,0,,,75,43
55314,note_on,54,0,4,,,,,,,,3,,,36,0
55320,note_on,6,0,4,,,,,,,,3,,,24,44
55359,note_on,53,0,1,,,,,,,,0,,,75,0
55360,note_on,1,0,1,,,,,,,,0,,,78,42
55374,note_on,54,0,4,,,,,,,,3,,,24,0
55380,note_on,6,0,4,,,,,,,,3,,,36,42
55413,note_on,0,0,1,,,,,,,,0,,,81,40
55413,note_on,53,0,1,,,,,,,,0,,,78,0
55416,control_change,5496,0,2,,,,,,,,1,64,127,,
55434,note_on,54,0,4,,,,,,,,3,,,36,0
55440,note_on,6,0,4,,,,,,,,3,,,24,41
55466,note_on,53,0,1,,,,,,,,0,,,81,0
55466,note_on,0,0,1,,,,,,,,0,,,78,39
55494,note_on,54,0,4,,,,,,,,3,,,24,0
55500,note_on,6,0,4,,,,,,,,3,,,36,40
55519,note_on,53,0,1,,,,,,,,0,,,78,0
55520,note_on,1,0,1,,,,,,,,0,,,75,38
55554,note_on,54,0,4,,,,,,,,3,,,36,0
55560,note_on,6,0,4,,,,,,,,3,,,24,38
55573,note_on,53,0,1,,,,,,,,0,,,75,0
55573,note_on,0,0,1,,,,,,,,0,,,72,37
55614,note_on,54,0,4,,,,,,,,3,,,24,0
55620,note_on,6,0,4,,,,,,,,3,,,36,37
55626,note_on,53,0,1,,,,,,,,0,,,72,0
55626,note_on,0,0,1,,,,,,,,0,,,69,35
55640,control_change,20,0,4,,,,,,,,3,64,0,,
55674,note_on,34,0,4,,,,,,,,3,,,36,0
55679,note_on,53,0,1,,,,,,,,0,,,69,0
55680,note_on,6,0,4,,,,,,,,3,,,24,35
55680,note_on,264,0,2,,,,,,,,1,,,60,64
55680,note_on,0,0,2,,,,,,,,1,,,63,64
55680,note_on,0,0,2,,,,,,,,1,,,66,64
55680,note_on,0,0,2,,,,,,,,1,,,69,64
55896,note_on,0,0,2,,,,,,,,1,,,60,0
55896,note_on,0,0,2,,,,,,,,1,,,66,0
55896,note_on,0,0,2,,,,,,,,1,,,63,0
55896,note_on,216,0,4,,,,,,,,3,,,24,0
55896,note_on,216,0,2,,,,,,,,1,,,69,0
55920,note_on,24,0,2,,,,,,,,1,,,57,50
56024,control_change,4190,0,3,,,,,,,,2,64,127,,
56028,note_on,108,0,2,,,,,,,,1,,,57,0
56160,note_on,264,0,4,,,,,,,,3,,,24,32
56160,control_change,481,0,1,,,,,,,,0,64,0,,
56160,note_on,0,0,3,,,,,,,,2,,,54,47
56160,note_on,0,0,3,,,,,,,,2,,,51,47
56160,note_on,136,0,3,,,,,,,,2,,,48,47
56160,note_on,0,0,3,,,,,,,,2,,,57,47
56200,note_on,40,0,4,,,,,,,,3,,,27,32
56200,note_on,0,0,4,,,,,,,,3,,,30,32
56240,note_on,40,0,4,,,,,,,,3,,,33,32
56280,note_on,40,0,4,,,,,,,,3,,,36,32
56376,note_on,0,0,3,,,,,,,,2,,,54,0
56376,control_change,348,0,2,,,,,,,,1,64,0,,
56376,note_on,0,0,3,,,,,,,,2,,,51,0
56376,note_on,0,0,3,,,,,,,,2,,,48,0
56376,note_on,216,0,3,,,,,,,,2,,,57,0
56388,note_on,108,0,4,,,,,,,,3,,,36,0
56388,note_on,0,0,4,,,,,,,,3,,,30,0
56388,note_on,0,0,4,,,,,,,,3,,,33,0
56388,note_on,0,0,4,,,,,,,,3,,,27,0
56388,note_on,0,0,4,,,,,,,,3,,,24,0
56400,note_on,24,0,3,,,,,,,,2,,,45,42
56508,note_on,108,0,3,,,,,,,,2,,,45,0
56640,note_on,252,0,4,,,,,,,,3,,,24,25
56640,note_on,0,0,1,,,,,,,,0,,,69,24
56640,control_change,480,0,1,,,,,,,,0,64,127,,
56640,control_change,0,0,4,,,,,,,,3,64,127,,
56693,note_on,0,0,1,,,,,,,,0,,,72,24
56693,note_on,53,0,1,,,,,,,,0,,,69,0
56694,note_on,54,0,4,,,,,,,,3,,,24,0
56700,note_on,6,0,4,,,,,,,,3,,,36,25
56746,note_on,0,0,1,,,,,,,,0,,,75,24
56746,note_on,53,0,1,,,,,,,,0,,,72,0
56754,note_on,54,0,4,,,,,,,,3,,,36,0
56760,note_on,6,0,4,,,,,,,,3,,,24,25
56799,note_on,53,0,1,,,,,,,,0,,,75,0
56800,note_on,1,0,1,,,,,,,,0,,,78,24
56814,note_on,54,0,4,,,,,,,,3,,,24,0
56820,note_on,6,0,4,,,,,,,,3,,,36,25
56853,note_on,0,0,1,,,,,,,,0,,,81,25
56853,note_on,53,0,1,,,,,,,,0,,,78,0
56874,note_on,54,0,4,,,,,,,,3,,,36,0
56880,note_on,6,0,4,,,,,,,,3,,,24,25
56906,note_on,0,0,1,,,,,,,,0,,,78,25
56906,note_on,53,0,1,,,,,,,,0,,,81,0
56934,note_on,54,0,4,,,,,,,,3,,,24,0
56940,note_on,6,0,4,,,,,,,,3,,,36,25
56959,note_on,53,0,1,,,,,,,,0,,,78,0
56960,note_on,1,0,1,,,,,,,,0,,,75,25
56984,control_change,476,0,3,,,,,,,,2,64,0,,
56994,note_on,54,0,4,,,,,,,,3,,,36,0
57000,note_on,6,0,4,,,,,,,,3,,,24,25
57013,note_on,0,0,1,,,,,,,,0,,,72,25
57013,note_on,53,0,1,,,,,,,,0,,,75,0
57040,control_change,664,0,2,,,,,,,,1,64,127,,
57054,note_on,54,0,4,,,,,,,,3,,,24,0
57060,note_on,6,0,4,,,,,,,,3,,,36,25
57066,note_on,53,0,1,,,,,,,,0,,,72,0
57066,note_on,0,0,1,,,,,,,,0,,,69,25
57114,note_on,54,0,4,,,,,,,,3,,,36,0
57119,note_on,53,0,1,,,,,,,,0,,,69,0
57120,note_on,0,0,2,,,,,,,,1,,,63,34
57120,note_on,0,0,2,,,,,,,,1,,,66,34
57120,note_on,6,0,4,,,,,,,,3,,,24,25
57120,note_on,0,0,2,,,,,,,,1,,,69,34
57120,note_on,80,0,2,,,,,,,,1,,,60,34
57128,control_change,8,0,4,,,,,,,,3,64,0,,
57336,note_on,208,0,4,,,,,,,,3,,,24,0
57336,note_on,216,0,2,,,,,,,,1,,,69,0
57336,note_on,0,0,2,,,,,,,,1,,,60,0
57336,note_on,0,0,2,,,,,,,,1,,,63,0
57336,note_on,0,0,2,,,,,,,,1,,,66,0
57360,note_on,24,0,2,,,,,,,,1,,,57,29
57468,note_on,108,0,2,,,,,,,,1,,,57,0
57504,control_change,520,0,3,,,,,,,,2,64,127,,
57512,control_change,176,0,4,,,,,,,,3,64,127,,
57600,note_on,0,0,3,,,,,,,,2,,,51,41
57600,note_on,96,0,3,,,,,,,,2,,,48,41
57600,note_on,0,0,3,,,,,,,,2,,,57,41
57600,control_change,481,0,1,,,,,,,,0,64,0,,
57600,end_of_track,0,1,1,,,,,,,,,,,,
57600,note_on,0,0,3,,,,,,,,2,,,54,41
57600,note_on,88,0,4,,,,,,,,3,,,24,32
57640,note_on,40,0,4,,,,,,,,3,,,27,32
57640,note_on,0,0,4,,,,,,,,3,,,30,32
57680,note_on,40,0,4,,,,,,,,3,,,33,32
57720,note_on,40,0,4,,,,,,,,3,,,36,32
57816,note_on,0,0,3,,,,,,,,2,,,51,0
57816,note_on,0,0,3,,,,,,,,2,,,54,0
57816,note_on,0,0,3,,,,,,,,2,,,48,0
57816,note_on,216,0,3,,,,,,,,2,,,57,0
57828,note_on,0,0,4,,,,,,,,3,,,30,0
57828,note_on,0,0,4,,,,,,,,3,,,24,0
57828,note_on,0,0,4,,,,,,,,3,,,27,0
57828,note_on,0,0,4,,,,,,,,3,,,33,0
57828,note_on,108,0,4,,,,,,,,3,,,36,0
57840,note_on,24,0,3,,,,,,,,2,,,45,34
57948,note_on,108,0,3,,,,,,,,2,,,45,0
58000,end_of_track,0,1,2,,,,,,,,,,,,
58000,control_change,532,0,2,,,,,,,,1,64,0,,
58000,control_change,172,0,4,,,,,,,,3,64,0,,
58056,control_change,56,0,4,,,,,,,,3,64,127,,
58080,note_on,24,0,4,,,,,,,,3,,,24,32
58464,end_of_track,0,1,3,,,,,,,,,,,,
58464,control_change,516,0,3,,,,,,,,2,64,0,,
58472,control_change,392,0,4,,,,,,,,3,64,0,,
60816,end_of_track,0,1,4,,,,,,,,,,,,
60816,note_on,2344,0,4,,,,,,,,3,,,24,0
