tick,type,time,meta,track,numerator,denominator,clocks_per_click,notated_32nd_notes_per_beat,key,tempo,program,channel,control,value,note,velocity
0,track_name,0,1,0,,,,,,,,,,,,
0,control_change,0,0,1,,,,,,,,0,7,127,,
0,control_change,0,0,1,,,,,,,,0,10,110,,
0,control_change,0,0,1,,,,,,,,0,64,127,,
0,control_change,0,0,1,,,,,,,,0,11,127,,
0,control_change,0,0,1,,,,,,,,0,93,38,,
0,control_change,0,0,1,,,,,,,,0,91,74,,
0,note_on,0,0,1,,,,,,,,0,,,59,26
0,note_on,0,0,1,,,,,,,,0,,,62,26
0,program_change,0,0,3,,,,,,,0,2,,,,
0,track_name,0,1,2,,,,,,,,,,,,
0,program_change,0,0,2,,,,,,,0,1,,,,
0,control_change,0,0,2,,,,,,,,1,7,127,,
0,control_change,0,0,2,,,,,,,,1,10,80,,
0,control_change,0,0,2,,,,,,,,1,11,125,,
0,control_change,0,0,2,,,,,,,,1,93,38,,
0,control_change,0,0,2,,,,,,,,1,91,74,,
0,note_on,0,0,4,,,,,,,,3,,,31,33
0,control_change,0,0,4,,,,,,,,3,93,0,,
0,control_change,0,0,4,,,,,,,,3,91,70,,
0,control_change,0,0,4,,,,,,,,3,11,127,,
0,control_change,0,0,4,,,,,,,,3,64,127,,
0,control_change,0,0,4,,,,,,,,3,10,20,,
0,control_change,0,0,4,,,,,,,,3,7,122,,
0,program_change,0,0,4,,,,,,,0,3,,,,
0,track_name,0,1,4,,,,,,,,,,,,
0,control_change,0,0,3,,,,,,,,2,93,70,,
0,control_change,0,0,3,,,,,,,,2,11,127,,
0,control_change,0,0,3,,,,,,,,2,10,40,,
0,control_change,0,0,3,,,,,,,,2,7,122,,
0,program_change,0,0,1,,,,,,,0,0,,,,
0,track_name,0,1,1,,,,,,,,,,,,
0,track_name,0,1,3,,,,,,,,,,,,
0,key_signature,0,1,0,,,,,C,,,,,,,
0,set_tempo,0,1,0,,,,,,1090909,,,,,,
0,text,0,1,0,,,,,,,,,,,,
0,text,0,1,0,,,,,,,,,,,,
0,text,0,1,0,,,,,,,,,,,,
0,text,0,1,0,,,,,,,,,,,,
0,time_signature,0,1,0,2,4,24,8,,,,,,,,
48,control_change,48,0,3,,,,,,,,2,91,0,,
59,note_on,59,0,1,,,,,,,,0,,,62,0
59,note_on,59,0,4,,,,,,,,3,,,31,0
59,note_on,0,0,1,,,,,,,,0,,,59,0
60,note_on,1,0,4,,,,,,,,3,,,35,36
60,note_on,1,0,1,,,,,,,,0,,,67,25
119,note_on,59,0,1,,,,,,,,0,,,67,0
119,note_on,59,0,4,,,,,,,,3,,,35,0
120,note_on,1,0,4,,,,,,,,3,,,43,41
120,note_on,1,0,1,,,,,,,,0,,,59,24
120,note_on,0,0,1,,,,,,,,0,,,62,24
179,note_on,59,0,1,,,,,,,,0,,,62,0
179,note_on,0,0,1,,,,,,,,0,,,59,0
179,note_on,59,0,4,,,,,,,,3,,,43,0
180,note_on,1,0,4,,,,,,,,3,,,50,45
180,note_on,1,0,1,,,,,,,,0,,,55,23
234,note_on,54,0,4,,,,,,,,3,,,50,0
239,note_on,59,0,1,,,,,,,,0,,,55,0
240,note_on,0,0,1,,,,,,,,0,,,62,22
240,note_on,1,0,1,,,,,,,,0,,,59,22
299,note_on,59,0,1,,,,,,,,0,,,62,0
299,note_on,0,0,1,,,,,,,,0,,,59,0
300,note_on,1,0,1,,,,,,,,0,,,67,23
359,note_on,59,0,1,,,,,,,,0,,,67,0
360,note_on,1,0,1,,,,,,,,0,,,59,23
360,note_on,0,0,1,,,,,,,,0,,,62,23
419,note_on,59,0,1,,,,,,,,0,,,62,0
419,note_on,0,0,1,,,,,,,,0,,,59,0
420,note_on,1,0,1,,,,,,,,0,,,55,23
479,note_on,59,0,1,,,,,,,,0,,,55,0
480,note_on,1,0,1,,,,,,,,0,,,62,22
480,note_on,0,0,1,,,,,,,,0,,,67,22
539,note_on,59,0,1,,,,,,,,0,,,67,0
539,note_on,0,0,1,,,,,,,,0,,,62,0
540,note_on,1,0,1,,,,,,,,0,,,71,22
599,note_on,59,0,1,,,,,,,,0,,,71,0
600,note_on,1,0,1,,,,,,,,0,,,62,22
600,note_on,0,0,1,,,,,,,,0,,,67,22
659,note_on,59,0,1,,,,,,,,0,,,67,0
659,note_on,0,0,1,,,,,,,,0,,,62,0
660,note_on,1,0,1,,,,,,,,0,,,59,22
719,note_on,59,0,1,,,,,,,,0,,,59,0
720,note_on,1,0,1,,,,,,,,0,,,67,22
720,note_on,0,0,1,,,,,,,,0,,,71,22
779,note_on,0,0,1,,,,,,,,0,,,67,0
779,note_on,59,0,1,,,,,,,,0,,,71,0
780,note_on,1,0,1,,,,,,,,0,,,74,22
839,note_on,59,0,1,,,,,,,,0,,,74,0
840,note_on,0,0,1,,,,,,,,0,,,71,22
840,note_on,1,0,1,,,,,,,,0,,,67,22
899,note_on,0,0,1,,,,,,,,0,,,67,0
899,note_on,59,0,1,,,,,,,,0,,,71,0
900,note_on,1,0,1,,,,,,,,0,,,62,22
954,note_on,54,0,1,,,,,,,,0,,,62,0
960,note_on,0,0,1,,,,,,,,0,,,69,21
960,note_on,0,0,4,,,,,,,,3,,,31,37
960,note_on,0,0,1,,,,,,,,0,,,72,21
960,control_change,0,0,4,,,,,,,,3,64,127,,
960,control_change,726,0,4,,,,,,,,3,64,0,,
960,control_change,6,0,1,,,,,,,,0,64,0,,
1013,control_change,53,0,1,,,,,,,,0,64,127,,
1019,note_on,0,0,1,,,,,,,,0,,,69,0
1019,note_on,59,0,4,,,,,,,,3,,,31,0
1019,note_on,6,0,1,,,,,,,,0,,,72,0
1020,note_on,1,0,4,,,,,,,,3,,,35,39
1020,note_on,1,0,1,,,,,,,,0,,,74,21
1079,note_on,59,0,4,,,,,,,,3,,,35,0
1079,note_on,59,0,1,,,,,,,,0,,,74,0
1080,note_on,0,0,1,,,,,,,,0,,,72,21
1080,note_on,1,0,1,,,,,,,,0,,,69,21
1080,note_on,1,0,4,,,,,,,,3,,,43,44
1139,note_on,0,0,1,,,,,,,,0,,,69,0
1139,note_on,59,0,4,,,,,,,,3,,,43,0
1139,note_on,59,0,1,,,,,,,,0,,,72,0
1140,note_on,1,0,1,,,,,,,,0,,,62,21
1140,note_on,1,0,4,,,,,,,,3,,,50,48
1194,note_on,54,0,4,,,,,,,,3,,,50,0
1199,note_on,59,0,1,,,,,,,,0,,,62,0
1200,note_on,1,0,1,,,,,,,,0,,,69,21
1200,note_on,0,0,1,,,,,,,,0,,,72,21
1259,note_on,59,0,1,,,,,,,,0,,,72,0
1259,note_on,0,0,1,,,,,,,,0,,,69,0
1260,note_on,1,0,1,,,,,,,,0,,,74,21
1319,note_on,59,0,1,,,,,,,,0,,,74,0
1320,note_on,0,0,1,,,,,,,,0,,,72,21
1320,note_on,1,0,1,,,,,,,,0,,,69,21
1379,note_on,59,0,1,,,,,,,,0,,,72,0
1379,note_on,0,0,1,,,,,,,,0,,,69,0
1380,note_on,1,0,1,,,,,,,,0,,,62,20
1439,note_on,59,0,1,,,,,,,,0,,,62,0
1440,note_on,1,0,1,,,,,,,,0,,,66,20
1440,note_on,0,0,1,,,,,,,,0,,,69,20
1499,note_on,59,0,1,,,,,,,,0,,,69,0
1499,note_on,0,0,1,,,,,,,,0,,,66,0
1500,note_on,1,0,1,,,,,,,,0,,,74,20
1559,note_on,59,0,1,,,,,,,,0,,,74,0
1560,note_on,1,0,1,,,,,,,,0,,,66,20
1560,note_on,0,0,1,,,,,,,,0,,,69,20
1619,note_on,59,0,1,,,,,,,,0,,,69,0
1619,note_on,0,0,1,,,,,,,,0,,,66,0
1620,note_on,1,0,1,,,,,,,,0,,,62,20
1679,note_on,59,0,1,,,,,,,,0,,,62,0
1680,note_on,0,0,1,,,,,,,,0,,,66,20
1680,note_on,1,0,1,,,,,,,,0,,,62,20
1739,note_on,0,0,1,,,,,,,,0,,,62,0
1739,note_on,59,0,1,,,,,,,,0,,,66,0
1740,note_on,1,0,1,,,,,,,,0,,,69,20
1799,note_on,59,0,1,,,,,,,,0,,,69,0
1800,note_on,1,0,1,,,,,,,,0,,,62,19
1800,note_on,0,0,1,,,,,,,,0,,,66,19
1859,note_on,59,0,1,,,,,,,,0,,,66,0
1859,note_on,0,0,1,,,,,,,,0,,,62,0
1860,note_on,1,0,1,,,,,,,,0,,,60,19
1914,note_on,54,0,1,,,,,,,,0,,,60,0
1920,control_change,726,0,4,,,,,,,,3,64,0,,
1920,note_on,6,0,1,,,,,,,,0,,,59,19
1920,note_on,0,0,1,,,,,,,,0,,,62,19
1920,note_on,0,0,4,,,,,,,,3,,,31,44
1965,control_change,45,0,4,,,,,,,,3,64,127,,
1973,control_change,53,0,1,,,,,,,,0,64,0,,
1979,note_on,6,0,1,,,,,,,,0,,,62,0
1979,note_on,0,0,1,,,,,,,,0,,,59,0
1979,note_on,14,0,4,,,,,,,,3,,,31,0
1980,note_on,0,0,1,,,,,,,,0,,,67,19
1980,note_on,1,0,4,,,,,,,,3,,,35,45
1980,control_change,1,0,1,,,,,,,,0,64,127,,
2039,note_on,59,0,4,,,,,,,,3,,,35,0
2039,note_on,59,0,1,,,,,,,,0,,,67,0
2040,note_on,1,0,4,,,,,,,,3,,,43,47
2040,note_on,0,0,1,,,,,,,,0,,,62,19
2040,note_on,1,0,1,,,,,,,,0,,,59,19
2099,note_on,0,0,1,,,,,,,,0,,,59,0
2099,note_on,59,0,4,,,,,,,,3,,,43,0
2099,note_on,59,0,1,,,,,,,,0,,,62,0
2100,note_on,1,0,4,,,,,,,,3,,,50,49
2100,note_on,1,0,1,,,,,,,,0,,,55,19
2154,note_on,54,0,4,,,,,,,,3,,,50,0
2159,note_on,59,0,1,,,,,,,,0,,,55,0
2160,note_on,1,0,1,,,,,,,,0,,,59,19
2160,note_on,0,0,1,,,,,,,,0,,,62,19
2219,note_on,0,0,1,,,,,,,,0,,,59,0
2219,note_on,59,0,1,,,,,,,,0,,,62,0
2220,note_on,1,0,1,,,,,,,,0,,,67,19
2279,note_on,59,0,1,,,,,,,,0,,,67,0
2280,note_on,1,0,1,,,,,,,,0,,,59,18
2280,note_on,0,0,1,,,,,,,,0,,,62,18
2339,note_on,59,0,1,,,,,,,,0,,,62,0
2339,note_on,0,0,1,,,,,,,,0,,,59,0
2340,note_on,1,0,1,,,,,,,,0,,,55,18
2399,note_on,59,0,1,,,,,,,,0,,,55,0
2400,note_on,1,0,1,,,,,,,,0,,,62,18
2400,note_on,0,0,1,,,,,,,,0,,,67,18
2459,note_on,0,0,1,,,,,,,,0,,,62,0
2459,note_on,59,0,1,,,,,,,,0,,,67,0
2460,note_on,1,0,1,,,,,,,,0,,,71,18
2519,note_on,59,0,1,,,,,,,,0,,,71,0
2520,note_on,0,0,1,,,,,,,,0,,,67,18
2520,note_on,1,0,1,,,,,,,,0,,,62,18
2579,note_on,0,0,1,,,,,,,,0,,,62,0
2579,note_on,59,0,1,,,,,,,,0,,,67,0
2580,note_on,1,0,1,,,,,,,,0,,,59,18
2639,note_on,59,0,1,,,,,,,,0,,,59,0
2640,note_on,1,0,1,,,,,,,,0,,,67,18
2640,note_on,0,0,1,,,,,,,,0,,,71,18
2699,note_on,59,0,1,,,,,,,,0,,,71,0
2699,note_on,0,0,1,,,,,,,,0,,,67,0
2700,note_on,1,0,1,,,,,,,,0,,,74,18
2759,note_on,59,0,1,,,,,,,,0,,,74,0
2760,note_on,0,0,1,,,,,,,,0,,,71,18
2760,note_on,1,0,1,,,,,,,,0,,,67,18
2819,note_on,59,0,1,,,,,,,,0,,,71,0
2819,note_on,0,0,1,,,,,,,,0,,,67,0
2820,note_on,1,0,1,,,,,,,,0,,,62,18
2874,note_on,54,0,1,,,,,,,,0,,,62,0
2880,note_on,6,0,1,,,,,,,,0,,,69,18
2880,note_on,0,0,1,,,,,,,,0,,,72,18
2880,note_on,726,0,4,,,,,,,,3,,,31,43
2925,control_change,45,0,4,,,,,,,,3,64,0,,
2933,control_change,8,0,4,,,,,,,,3,64,127,,
2939,note_on,6,0,4,,,,,,,,3,,,31,0
2939,note_on,59,0,1,,,,,,,,0,,,72,0
2939,note_on,0,0,1,,,,,,,,0,,,69,0
2940,control_change,1,0,1,,,,,,,,0,64,0,,
2940,note_on,0,0,1,,,,,,,,0,,,74,18
2940,note_on,1,0,4,,,,,,,,3,,,35,45
2999,note_on,59,0,1,,,,,,,,0,,,74,0
2999,note_on,59,0,4,,,,,,,,3,,,35,0
3000,note_on,1,0,1,,,,,,,,0,,,69,18
3000,note_on,0,0,1,,,,,,,,0,,,72,18
3000,note_on,1,0,4,,,,,,,,3,,,43,49
3040,control_change,40,0,1,,,,,,,,0,64,127,,
3059,note_on,59,0,4,,,,,,,,3,,,43,0
3059,note_on,0,0,1,,,,,,,,0,,,69,0
3059,note_on,19,0,1,,,,,,,,0,,,72,0
3060,note_on,1,0,4,,,,,,,,3,,,50,52
3060,note_on,1,0,1,,,,,,,,0,,,62,18
3114,note_on,54,0,4,,,,,,,,3,,,50,0
3119,note_on,59,0,1,,,,,,,,0,,,62,0
3120,note_on,0,0,1,,,,,,,,0,,,72,18
3120,note_on,1,0,1,,,,,,,,0,,,69,18
3179,note_on,0,0,1,,,,,,,,0,,,69,0
3179,note_on,59,0,1,,,,,,,,0,,,72,0
3180,note_on,1,0,1,,,,,,,,0,,,74,18
3239,note_on,59,0,1,,,,,,,,0,,,74,0
3240,note_on,1,0,1,,,,,,,,0,,,69,18
3240,note_on,0,0,1,,,,,,,,0,,,72,18
3299,note_on,59,0,1,,,,,,,,0,,,72,0
3299,note_on,0,0,1,,,,,,,,0,,,69,0
3300,note_on,1,0,1,,,,,,,,0,,,62,18
3359,note_on,59,0,1,,,,,,,,0,,,62,0
3360,note_on,1,0,1,,,,,,,,0,,,66,18
3360,note_on,0,0,1,,,,,,,,0,,,69,18
3419,note_on,59,0,1,,,,,,,,0,,,69,0
3419,note_on,0,0,1,,,,,,,,0,,,66,0
3420,note_on,1,0,1,,,,,,,,0,,,74,18
3479,note_on,59,0,1,,,,,,,,0,,,74,0
3480,note_on,1,0,1,,,,,,,,0,,,66,18
3480,note_on,0,0,1,,,,,,,,0,,,69,18
3539,note_on,0,0,1,,,,,,,,0,,,66,0
3539,note_on,59,0,1,,,,,,,,0,,,69,0
3540,note_on,1,0,1,,,,,,,,0,,,62,18
3599,note_on,59,0,1,,,,,,,,0,,,62,0
3600,note_on,1,0,1,,,,,,,,0,,,62,18
3600,note_on,0,0,1,,,,,,,,0,,,66,18
3659,note_on,59,0,1,,,,,,,,0,,,66,0
3659,note_on,0,0,1,,,,,,,,0,,,62,0
3660,note_on,1,0,1,,,,,,,,0,,,69,18
3719,note_on,59,0,1,,,,,,,,0,,,69,0
3720,note_on,1,0,1,,,,,,,,0,,,62,18
3720,note_on,0,0,1,,,,,,,,0,,,66,18
3779,note_on,0,0,1,,,,,,,,0,,,62,0
3779,note_on,59,0,1,,,,,,,,0,,,66,0
3780,note_on,1,0,1,,,,,,,,0,,,60,18
3800,control_change,20,0,1,,,,,,,,0,64,0,,
3834,note_on,34,0,1,,,,,,,,0,,,60,0
3840,note_on,726,0,4,,,,,,,,3,,,31,45
3840,note_on,0,0,1,,,,,,,,0,,,62,18
3840,note_on,6,0,1,,,,,,,,0,,,59,18
3893,control_change,53,0,4,,,,,,,,3,64,0,,
3899,note_on,0,0,1,,,,,,,,0,,,59,0
3899,note_on,59,0,1,,,,,,,,0,,,62,0
3899,note_on,6,0,4,,,,,,,,3,,,31,0
3900,control_change,1,0,4,,,,,,,,3,64,127,,
3900,note_on,0,0,4,,,,,,,,3,,,35,47
3900,note_on,1,0,1,,,,,,,,0,,,67,18
3930,control_change,30,0,1,,,,,,,,0,64,127,,
3959,note_on,59,0,4,,,,,,,,3,,,35,0
3959,note_on,29,0,1,,,,,,,,0,,,67,0
3960,note_on,1,0,4,,,,,,,,3,,,43,51
3960,note_on,0,0,1,,,,,,,,0,,,62,18
3960,note_on,1,0,1,,,,,,,,0,,,59,18
4019,note_on,59,0,4,,,,,,,,3,,,43,0
4019,note_on,59,0,1,,,,,,,,0,,,62,0
4019,note_on,0,0,1,,,,,,,,0,,,59,0
4020,note_on,1,0,1,,,,,,,,0,,,55,18
4020,note_on,1,0,4,,,,,,,,3,,,50,55
4074,note_on,54,0,4,,,,,,,,3,,,50,0
4079,note_on,59,0,1,,,,,,,,0,,,55,0
4080,note_on,1,0,1,,,,,,,,0,,,59,18
4080,note_on,0,0,1,,,,,,,,0,,,62,18
4139,note_on,59,0,1,,,,,,,,0,,,62,0
4139,note_on,0,0,1,,,,,,,,0,,,59,0
4140,note_on,1,0,1,,,,,,,,0,,,67,18
4199,note_on,59,0,1,,,,,,,,0,,,67,0
4200,note_on,1,0,1,,,,,,,,0,,,59,18
4200,note_on,0,0,1,,,,,,,,0,,,62,18
4259,note_on,59,0,1,,,,,,,,0,,,62,0
4259,note_on,0,0,1,,,,,,,,0,,,59,0
4260,note_on,1,0,1,,,,,,,,0,,,55,18
4319,note_on,59,0,1,,,,,,,,0,,,55,0
4320,note_on,0,0,1,,,,,,,,0,,,62,18
4320,note_on,1,0,1,,,,,,,,0,,,59,18
4379,note_on,59,0,1,,,,,,,,0,,,62,0
4379,note_on,0,0,1,,,,,,,,0,,,59,0
4380,note_on,1,0,1,,,,,,,,0,,,67,18
4439,note_on,59,0,1,,,,,,,,0,,,67,0
4440,note_on,1,0,1,,,,,,,,0,,,59,18
4440,note_on,0,0,1,,,,,,,,0,,,62,18
4499,note_on,59,0,1,,,,,,,,0,,,62,0
4499,note_on,0,0,1,,,,,,,,0,,,59,0
4500,note_on,1,0,1,,,,,,,,0,,,55,18
4559,note_on,59,0,1,,,,,,,,0,,,55,0
4560,note_on,0,0,1,,,,,,,,0,,,62,18
4560,note_on,1,0,1,,,,,,,,0,,,59,18
4619,note_on,0,0,1,,,,,,,,0,,,59,0
4619,note_on,59,0,1,,,,,,,,0,,,62,0
4620,note_on,1,0,1,,,,,,,,0,,,67,18
4679,note_on,59,0,1,,,,,,,,0,,,67,0
4680,note_on,1,0,1,,,,,,,,0,,,59,18
4680,note_on,0,0,1,,,,,,,,0,,,62,18
4739,note_on,0,0,1,,,,,,,,0,,,59,0
4739,note_on,59,0,1,,,,,,,,0,,,62,0
4740,note_on,1,0,1,,,,,,,,0,,,55,18
4755,control_change,4707,0,3,,,,,,,,2,64,127,,
4794,note_on,54,0,1,,,,,,,,0,,,55,0
4800,note_on,6,0,1,,,,,,,,0,,,67,20
4800,note_on,0,0,4,,,,,,,,3,,,50,49
4800,note_on,726,0,4,,,,,,,,3,,,43,49
4800,note_on,45,0,3,,,,,,,,2,,,59,80
4859,note_on,59,0,1,,,,,,,,0,,,67,0
4860,control_change,60,0,4,,,,,,,,3,64,0,,
4860,note_on,1,0,1,,,,,,,,0,,,74,20
4919,note_on,59,0,1,,,,,,,,0,,,74,0
4920,note_on,1,0,1,,,,,,,,0,,,67,21
4979,note_on,59,0,1,,,,,,,,0,,,67,0
4980,note_on,1,0,1,,,,,,,,0,,,62,23
5010,control_change,30,0,1,,,,,,,,0,64,0,,
5039,note_on,239,0,3,,,,,,,,2,,,59,0
5039,note_on,29,0,1,,,,,,,,0,,,62,0
5040,note_on,1,0,1,,,,,,,,0,,,69,24
5040,note_on,1,0,3,,,,,,,,2,,,60,85
5099,note_on,59,0,1,,,,,,,,0,,,69,0
5099,note_on,59,0,3,,,,,,,,2,,,60,0
5100,note_on,1,0,1,,,,,,,,0,,,74,25
5159,note_on,59,0,1,,,,,,,,0,,,74,0
5160,note_on,1,0,1,,,,,,,,0,,,69,26
5160,note_on,61,0,3,,,,,,,,2,,,60,87
5219,note_on,59,0,1,,,,,,,,0,,,69,0
5219,note_on,59,0,3,,,,,,,,2,,,60,0
5220,note_on,1,0,1,,,,,,,,0,,,62,27
5279,note_on,59,0,1,,,,,,,,0,,,62,0
5280,note_on,1,0,1,,,,,,,,0,,,71,29
5280,note_on,61,0,3,,,,,,,,2,,,62,82
5314,control_change,454,0,4,,,,,,,,3,64,127,,
5339,note_on,59,0,1,,,,,,,,0,,,71,0
5340,note_on,1,0,1,,,,,,,,0,,,74,29
5399,note_on,59,0,1,,,,,,,,0,,,74,0
5400,note_on,1,0,1,,,,,,,,0,,,71,28
5459,note_on,59,0,1,,,,,,,,0,,,71,0
5460,note_on,1,0,1,,,,,,,,0,,,62,27
5519,note_on,59,0,1,,,,,,,,0,,,62,0
5519,note_on,239,0,3,,,,,,,,2,,,62,0
5520,note_on,1,0,1,,,,,,,,0,,,67,27
5520,note_on,1,0,3,,,,,,,,2,,,59,80
5579,note_on,59,0,3,,,,,,,,2,,,59,0
5579,note_on,59,0,1,,,,,,,,0,,,67,0
5580,note_on,1,0,1,,,,,,,,0,,,74,26
5639,note_on,0,0,4,,,,,,,,3,,,43,0
5639,note_on,325,0,4,,,,,,,,3,,,50,0
5639,note_on,59,0,1,,,,,,,,0,,,74,0
5640,note_on,61,0,3,,,,,,,,2,,,59,76
5640,note_on,1,0,1,,,,,,,,0,,,67,25
5640,note_on,1,0,4,,,,,,,,3,,,55,49
5694,note_on,54,0,3,,,,,,,,2,,,59,0
5699,note_on,59,0,1,,,,,,,,0,,,67,0
5700,note_on,1,0,1,,,,,,,,0,,,62,24
5715,control_change,21,0,3,,,,,,,,2,64,0,,
5748,note_on,108,0,4,,,,,,,,3,,,55,0
5754,note_on,54,0,1,,,,,,,,0,,,62,0
5760,note_on,12,0,4,,,,,,,,3,,,48,49
5760,note_on,45,0,3,,,,,,,,2,,,64,72
5760,note_on,6,0,1,,,,,,,,0,,,67,24
5813,control_change,53,0,3,,,,,,,,2,64,127,,
5819,note_on,59,0,1,,,,,,,,0,,,67,0
5820,note_on,1,0,1,,,,,,,,0,,,76,23
5879,note_on,59,0,1,,,,,,,,0,,,76,0
5880,note_on,1,0,1,,,,,,,,0,,,67,22
5939,note_on,59,0,1,,,,,,,,0,,,67,0
5940,note_on,1,0,1,,,,,,,,0,,,64,22
5999,note_on,59,0,1,,,,,,,,0,,,64,0
5999,note_on,239,0,4,,,,,,,,3,,,48,0
5999,note_on,186,0,3,,,,,,,,2,,,64,0
6000,note_on,1,0,4,,,,,,,,3,,,52,49
6000,note_on,0,0,1,,,,,,,,0,,,71,21
6000,note_on,1,0,1,,,,,,,,0,,,68,21
6000,note_on,1,0,3,,,,,,,,2,,,62,69
6059,note_on,0,0,1,,,,,,,,0,,,68,0
6059,note_on,59,0,3,,,,,,,,2,,,62,0
6059,note_on,59,0,1,,,,,,,,0,,,71,0
6060,note_on,1,0,1,,,,,,,,0,,,76,20
6119,note_on,59,0,1,,,,,,,,0,,,76,0
6120,note_on,0,0,1,,,,,,,,0,,,71,19
6120,note_on,1,0,1,,,,,,,,0,,,68,19
6120,note_on,61,0,3,,,,,,,,2,,,62,66
6179,note_on,59,0,1,,,,,,,,0,,,71,0
6179,note_on,0,0,1,,,,,,,,0,,,68,0
6179,note_on,59,0,3,,,,,,,,2,,,62,0
6180,note_on,1,0,1,,,,,,,,0,,,64,19
6239,note_on,239,0,4,,,,,,,,3,,,52,0
6239,note_on,59,0,1,,,,,,,,0,,,64,0
6240,note_on,0,0,1,,,,,,,,0,,,72,18
6240,note_on,1,0,4,,,,,,,,3,,,45,49
6240,note_on,1,0,1,,,,,,,,0,,,69,18
6240,note_on,61,0,3,,,,,,,,2,,,60,62
6274,control_change,34,0,4,,,,,,,,3,64,0,,
6299,note_on,0,0,1,,,,,,,,0,,,69,0
6299,note_on,59,0,1,,,,,,,,0,,,72,0
6300,note_on,1,0,1,,,,,,,,0,,,76,18
6359,note_on,59,0,1,,,,,,,,0,,,76,0
6360,note_on,1,0,1,,,,,,,,0,,,69,18
6360,note_on,0,0,1,,,,,,,,0,,,72,18
6419,note_on,0,0,1,,,,,,,,0,,,69,0
6419,note_on,59,0,1,,,,,,,,0,,,72,0
6420,note_on,1,0,1,,,,,,,,0,,,64,18
6456,note_on,216,0,3,,,,,,,,2,,,60,0
6456,note_on,182,0,4,,,,,,,,3,,,45,0
6479,note_on,59,0,1,,,,,,,,0,,,64,0
6480,note_on,1,0,1,,,,,,,,0,,,69,18
6480,note_on,0,0,1,,,,,,,,0,,,72,18
6539,note_on,59,0,1,,,,,,,,0,,,72,0
6539,note_on,0,0,1,,,,,,,,0,,,69,0
6540,note_on,1,0,1,,,,,,,,0,,,76,18
6599,note_on,59,0,1,,,,,,,,0,,,76,0
6600,note_on,0,0,1,,,,,,,,0,,,72,17
6600,note_on,1,0,1,,,,,,,,0,,,69,17
6659,note_on,0,0,1,,,,,,,,0,,,69,0
6659,note_on,59,0,1,,,,,,,,0,,,72,0
6660,note_on,1,0,1,,,,,,,,0,,,64,17
6714,note_on,54,0,1,,,,,,,,0,,,64,0
6720,control_change,264,0,4,,,,,,,,3,64,127,,
6720,note_on,0,0,4,,,,,,,,3,,,57,66
6720,note_on,0,0,4,,,,,,,,3,,,48,66
6720,note_on,6,0,1,,,,,,,,0,,,69,15
6773,control_change,317,0,3,,,,,,,,2,64,0,,
6779,note_on,59,0,1,,,,,,,,0,,,69,0
6780,note_on,1,0,1,,,,,,,,0,,,76,17
6839,note_on,59,0,1,,,,,,,,0,,,76,0
6840,note_on,1,0,1,,,,,,,,0,,,69,19
6899,note_on,59,0,1,,,,,,,,0,,,69,0
6900,note_on,1,0,1,,,,,,,,0,,,64,21
6959,note_on,59,0,1,,,,,,,,0,,,64,0
6959,note_on,0,0,4,,,,,,,,3,,,57,0
6959,note_on,239,0,4,,,,,,,,3,,,48,0
6960,note_on,1,0,4,,,,,,,,3,,,59,74
6960,note_on,1,0,1,,,,,,,,0,,,68,24
6960,note_on,0,0,4,,,,,,,,3,,,52,74
7019,note_on,59,0,1,,,,,,,,0,,,68,0
7020,note_on,1,0,1,,,,,,,,0,,,74,24
7079,note_on,59,0,1,,,,,,,,0,,,74,0
7080,note_on,1,0,1,,,,,,,,0,,,68,23
7139,note_on,59,0,1,,,,,,,,0,,,68,0
7140,note_on,1,0,1,,,,,,,,0,,,64,21
7199,note_on,239,0,4,,,,,,,,3,,,52,0
7199,note_on,0,0,4,,,,,,,,3,,,59,0
7199,note_on,59,0,1,,,,,,,,0,,,64,0
7200,note_on,0,0,4,,,,,,,,3,,,57,65
7200,note_on,1,0,4,,,,,,,,3,,,60,65
7200,note_on,1,0,1,,,,,,,,0,,,69,19
7259,note_on,59,0,1,,,,,,,,0,,,69,0
7260,note_on,1,0,1,,,,,,,,0,,,72,16
7319,note_on,59,0,1,,,,,,,,0,,,72,0
7320,note_on,1,0,1,,,,,,,,0,,,69,16
7379,note_on,59,0,1,,,,,,,,0,,,69,0
7380,note_on,1,0,1,,,,,,,,0,,,64,16
7416,note_on,0,0,4,,,,,,,,3,,,60,0
7416,note_on,216,0,4,,,,,,,,3,,,57,0
7439,note_on,59,0,1,,,,,,,,0,,,64,0
7440,note_on,1,0,1,,,,,,,,0,,,69,16
7499,note_on,59,0,1,,,,,,,,0,,,69,0
7500,note_on,1,0,1,,,,,,,,0,,,72,16
7559,note_on,59,0,1,,,,,,,,0,,,72,0
7560,note_on,1,0,1,,,,,,,,0,,,69,16
7619,note_on,59,0,1,,,,,,,,0,,,69,0
7620,note_on,1,0,1,,,,,,,,0,,,64,16
7674,note_on,54,0,1,,,,,,,,0,,,64,0
7680,control_change,264,0,4,,,,,,,,3,64,0,,
7680,note_on,6,0,1,,,,,,,,0,,,66,18
7680,note_on,0,0,4,,,,,,,,3,,,38,67
7739,note_on,59,0,4,,,,,,,,3,,,38,0
7739,note_on,59,0,1,,,,,,,,0,,,66,0
7740,note_on,1,0,4,,,,,,,,3,,,50,72
7740,note_on,1,0,1,,,,,,,,0,,,74,18
7770,control_change,997,0,3,,,,,,,,2,64,127,,
7799,note_on,59,0,1,,,,,,,,0,,,74,0
7799,note_on,59,0,4,,,,,,,,3,,,50,0
7800,note_on,1,0,1,,,,,,,,0,,,66,19
7800,note_on,1,0,4,,,,,,,,3,,,57,77
7859,note_on,59,0,1,,,,,,,,0,,,66,0
7860,note_on,1,0,1,,,,,,,,0,,,62,20
7919,note_on,59,0,1,,,,,,,,0,,,62,0
7920,note_on,1,0,1,,,,,,,,0,,,67,20
7920,note_on,150,0,3,,,,,,,,2,,,59,84
7979,note_on,59,0,1,,,,,,,,0,,,67,0
7979,note_on,59,0,3,,,,,,,,2,,,59,0
7980,note_on,1,0,1,,,,,,,,0,,,74,21
8039,note_on,59,0,1,,,,,,,,0,,,74,0
8040,note_on,1,0,1,,,,,,,,0,,,67,22
8040,note_on,61,0,3,,,,,,,,2,,,59,84
8099,note_on,59,0,1,,,,,,,,0,,,67,0
8099,note_on,59,0,3,,,,,,,,2,,,59,0
8100,note_on,1,0,1,,,,,,,,0,,,62,22
8140,control_change,340,0,4,,,,,,,,3,64,127,,
8159,note_on,59,0,1,,,,,,,,0,,,62,0
8160,note_on,61,0,3,,,,,,,,2,,,60,84
8160,note_on,1,0,1,,,,,,,,0,,,69,23
8219,note_on,59,0,1,,,,,,,,0,,,69,0
8220,note_on,1,0,1,,,,,,,,0,,,74,23
8279,note_on,59,0,1,,,,,,,,0,,,74,0
8280,note_on,1,0,1,,,,,,,,0,,,69,24
8339,note_on,59,0,1,,,,,,,,0,,,69,0
8340,note_on,1,0,1,,,,,,,,0,,,62,25
8399,note_on,59,0,1,,,,,,,,0,,,62,0
8399,note_on,239,0,3,,,,,,,,2,,,60,0
8400,note_on,1,0,3,,,,,,,,2,,,57,84
8400,note_on,1,0,1,,,,,,,,0,,,66,25
8459,note_on,59,0,1,,,,,,,,0,,,66,0
8459,note_on,59,0,3,,,,,,,,2,,,57,0
8460,note_on,1,0,1,,,,,,,,0,,,74,25
8519,note_on,379,0,4,,,,,,,,3,,,57,0
8519,note_on,59,0,1,,,,,,,,0,,,74,0
8520,note_on,1,0,1,,,,,,,,0,,,66,24
8520,note_on,1,0,4,,,,,,,,3,,,50,49
8520,note_on,61,0,3,,,,,,,,2,,,57,79
8574,note_on,54,0,3,,,,,,,,2,,,57,0
8579,note_on,59,0,1,,,,,,,,0,,,66,0
8580,note_on,1,0,1,,,,,,,,0,,,62,23
8628,note_on,108,0,4,,,,,,,,3,,,50,0
8634,note_on,54,0,1,,,,,,,,0,,,62,0
8640,note_on,66,0,3,,,,,,,,2,,,62,74
8640,note_on,6,0,1,,,,,,,,0,,,67,22
8640,note_on,12,0,4,,,,,,,,3,,,47,64
8699,note_on,59,0,1,,,,,,,,0,,,67,0
8700,note_on,1,0,1,,,,,,,,0,,,74,21
8730,control_change,90,0,3,,,,,,,,2,64,0,,
8759,note_on,59,0,1,,,,,,,,0,,,74,0
8760,note_on,1,0,1,,,,,,,,0,,,67,21
8813,control_change,83,0,3,,,,,,,,2,64,127,,
8819,note_on,59,0,1,,,,,,,,0,,,67,0
8820,note_on,1,0,1,,,,,,,,0,,,62,20
8879,note_on,239,0,4,,,,,,,,3,,,47,0
8879,note_on,66,0,3,,,,,,,,2,,,62,0
8879,note_on,59,0,1,,,,,,,,0,,,62,0
8880,note_on,1,0,1,,,,,,,,0,,,66,19
8880,note_on,0,0,1,,,,,,,,0,,,69,19
8880,note_on,1,0,4,,,,,,,,3,,,50,64
8880,note_on,1,0,3,,,,,,,,2,,,60,84
8939,note_on,0,0,1,,,,,,,,0,,,66,0
8939,note_on,59,0,3,,,,,,,,2,,,60,0
8939,note_on,59,0,1,,,,,,,,0,,,69,0
8940,note_on,1,0,1,,,,,,,,0,,,74,18
8999,note_on,59,0,1,,,,,,,,0,,,74,0
9000,note_on,61,0,3,,,,,,,,2,,,60,79
9000,note_on,0,0,1,,,,,,,,0,,,69,17
9000,note_on,1,0,1,,,,,,,,0,,,66,17
9059,note_on,0,0,1,,,,,,,,0,,,66,0
9059,note_on,59,0,3,,,,,,,,2,,,60,0
9059,note_on,59,0,1,,,,,,,,0,,,69,0
9060,note_on,1,0,1,,,,,,,,0,,,62,16
9100,control_change,220,0,4,,,,,,,,3,64,0,,
9119,note_on,59,0,1,,,,,,,,0,,,62,0
9119,note_on,19,0,4,,,,,,,,3,,,50,0
9120,note_on,0,0,1,,,,,,,,0,,,71,15
9120,note_on,1,0,4,,,,,,,,3,,,55,64
9120,note_on,1,0,1,,,,,,,,0,,,67,15
9120,note_on,61,0,3,,,,,,,,2,,,59,74
9179,note_on,59,0,1,,,,,,,,0,,,71,0
9179,note_on,0,0,1,,,,,,,,0,,,67,0
9180,note_on,1,0,1,,,,,,,,0,,,74,13
9239,note_on,59,0,1,,,,,,,,0,,,74,0
9240,note_on,1,0,1,,,,,,,,0,,,67,13
9240,note_on,0,0,1,,,,,,,,0,,,71,13
9299,note_on,0,0,1,,,,,,,,0,,,67,0
9299,note_on,59,0,1,,,,,,,,0,,,71,0
9300,note_on,1,0,1,,,,,,,,0,,,62,13
9336,note_on,216,0,4,,,,,,,,3,,,55,0
9336,note_on,216,0,3,,,,,,,,2,,,59,0
9359,note_on,59,0,1,,,,,,,,0,,,62,0
9360,note_on,0,0,1,,,,,,,,0,,,71,13
9360,note_on,1,0,1,,,,,,,,0,,,67,13
9419,note_on,0,0,1,,,,,,,,0,,,67,0
9419,note_on,59,0,1,,,,,,,,0,,,71,0
9420,note_on,1,0,1,,,,,,,,0,,,74,13
9479,note_on,59,0,1,,,,,,,,0,,,74,0
9480,note_on,0,0,1,,,,,,,,0,,,71,13
9480,note_on,1,0,1,,,,,,,,0,,,67,13
9539,note_on,59,0,1,,,,,,,,0,,,71,0
9539,note_on,0,0,1,,,,,,,,0,,,67,0
9540,note_on,1,0,1,,,,,,,,0,,,62,12
9594,note_on,54,0,1,,,,,,,,0,,,62,0
9600,note_on,0,0,4,,,,,,,,3,,,55,63
9600,control_change,264,0,4,,,,,,,,3,64,127,,
9600,note_on,0,0,4,,,,,,,,3,,,47,63
9600,note_on,6,0,1,,,,,,,,0,,,67,11
9659,note_on,59,0,1,,,,,,,,0,,,67,0
9660,note_on,1,0,1,,,,,,,,0,,,74,12
9719,note_on,59,0,1,,,,,,,,0,,,74,0
9720,note_on,1,0,1,,,,,,,,0,,,67,14
9773,control_change,437,0,3,,,,,,,,2,64,0,,
9779,note_on,59,0,1,,,,,,,,0,,,67,0
9780,note_on,1,0,1,,,,,,,,0,,,62,16
9839,note_on,0,0,4,,,,,,,,3,,,55,0
9839,note_on,239,0,4,,,,,,,,3,,,47,0
9839,note_on,59,0,1,,,,,,,,0,,,62,0
9840,note_on,1,0,4,,,,,,,,3,,,57,64
9840,note_on,0,0,1,,,,,,,,0,,,72,18
9840,note_on,1,0,1,,,,,,,,0,,,66,18
9840,note_on,0,0,4,,,,,,,,3,,,50,64
9899,note_on,59,0,1,,,,,,,,0,,,72,0
9899,note_on,0,0,1,,,,,,,,0,,,66,0
9900,note_on,1,0,1,,,,,,,,0,,,74,19
9959,note_on,59,0,1,,,,,,,,0,,,74,0
9960,note_on,0,0,1,,,,,,,,0,,,72,21
9960,note_on,1,0,1,,,,,,,,0,,,66,21
10019,note_on,0,0,1,,,,,,,,0,,,66,0
10019,note_on,59,0,1,,,,,,,,0,,,72,0
10020,note_on,1,0,1,,,,,,,,0,,,62,23
10079,note_on,0,0,4,,,,,,,,3,,,57,0
10079,note_on,239,0,4,,,,,,,,3,,,50,0
10079,note_on,59,0,1,,,,,,,,0,,,62,0
10080,note_on,0,0,4,,,,,,,,3,,,55,56
10080,note_on,1,0,4,,,,,,,,3,,,59,56
10080,note_on,0,0,1,,,,,,,,0,,,71,25
10080,note_on,1,0,1,,,,,,,,0,,,67,25
10139,note_on,59,0,1,,,,,,,,0,,,71,0
10139,note_on,0,0,1,,,,,,,,0,,,67,0
10140,note_on,1,0,1,,,,,,,,0,,,74,24
10199,note_on,59,0,1,,,,,,,,0,,,74,0
10200,note_on,1,0,1,,,,,,,,0,,,67,22
10200,note_on,0,0,1,,,,,,,,0,,,71,22
10259,note_on,59,0,1,,,,,,,,0,,,71,0
10259,note_on,0,0,1,,,,,,,,0,,,67,0
10260,note_on,1,0,1,,,,,,,,0,,,62,21
10296,note_on,216,0,4,,,,,,,,3,,,55,0
10296,note_on,0,0,4,,,,,,,,3,,,59,0
10319,note_on,59,0,1,,,,,,,,0,,,62,0
10320,note_on,1,0,1,,,,,,,,0,,,67,19
10320,note_on,0,0,1,,,,,,,,0,,,71,19
10379,note_on,0,0,1,,,,,,,,0,,,67,0
10379,note_on,59,0,1,,,,,,,,0,,,71,0
10380,note_on,1,0,1,,,,,,,,0,,,74,17
10439,note_on,59,0,1,,,,,,,,0,,,74,0
10440,note_on,0,0,1,,,,,,,,0,,,71,16
10440,note_on,1,0,1,,,,,,,,0,,,67,16
10499,note_on,0,0,1,,,,,,,,0,,,67,0
10499,note_on,59,0,1,,,,,,,,0,,,71,0
10500,note_on,1,0,1,,,,,,,,0,,,62,14
10554,note_on,54,0,1,,,,,,,,0,,,62,0
10560,control_change,787,0,3,,,,,,,,2,64,127,,
10560,note_on,0,0,4,,,,,,,,3,,,40,64
10560,control_change,6,0,1,,,,,,,,0,64,127,,
10560,note_on,0,0,1,,,,,,,,0,,,67,12
10560,note_on,0,0,1,,,,,,,,0,,,71,12
10560,control_change,264,0,4,,,,,,,,3,64,0,,
10560,control_change,0,0,4,,,,,,,,3,64,127,,
10600,note_on,40,0,4,,,,,,,,3,,,47,64
10619,note_on,59,0,1,,,,,,,,0,,,71,0
10619,note_on,0,0,1,,,,,,,,0,,,67,0
10620,note_on,1,0,1,,,,,,,,0,,,76,11
10640,note_on,40,0,4,,,,,,,,3,,,52,68
10679,note_on,59,0,1,,,,,,,,0,,,76,0
10680,note_on,0,0,1,,,,,,,,0,,,71,34
10680,note_on,1,0,1,,,,,,,,0,,,67,34
10680,note_on,40,0,4,,,,,,,,3,,,59,73
10739,note_on,0,0,1,,,,,,,,0,,,67,0
10739,note_on,59,0,1,,,,,,,,0,,,71,0
10740,note_on,1,0,1,,,,,,,,0,,,64,36
10799,note_on,59,0,1,,,,,,,,0,,,64,0
10800,note_on,1,0,1,,,,,,,,0,,,67,38
10800,note_on,0,0,1,,,,,,,,0,,,71,38
10800,note_on,240,0,3,,,,,,,,2,,,59,83
10859,note_on,0,0,1,,,,,,,,0,,,67,0
10859,note_on,59,0,1,,,,,,,,0,,,71,0
10860,note_on,1,0,1,,,,,,,,0,,,76,40
10919,note_on,59,0,1,,,,,,,,0,,,76,0
10919,note_on,119,0,3,,,,,,,,2,,,59,0
10920,note_on,1,0,1,,,,,,,,0,,,67,43
10920,note_on,0,0,1,,,,,,,,0,,,71,43
10920,note_on,1,0,3,,,,,,,,2,,,59,83
10979,note_on,59,0,1,,,,,,,,0,,,71,0
10979,note_on,0,0,1,,,,,,,,0,,,67,0
10980,note_on,1,0,1,,,,,,,,0,,,64,45
11039,note_on,59,0,1,,,,,,,,0,,,64,0
11039,note_on,119,0,3,,,,,,,,2,,,59,0
11040,note_on,1,0,3,,,,,,,,2,,,64,75
11040,note_on,1,0,1,,,,,,,,0,,,67,47
11040,note_on,0,0,1,,,,,,,,0,,,71,47
11099,note_on,59,0,1,,,,,,,,0,,,71,0
11099,note_on,0,0,1,,,,,,,,0,,,67,0
11100,note_on,1,0,1,,,,,,,,0,,,76,49
11159,note_on,479,0,4,,,,,,,,3,,,59,0
11159,note_on,0,0,4,,,,,,,,3,,,52,0
11159,note_on,59,0,1,,,,,,,,0,,,76,0
11159,note_on,0,0,4,,,,,,,,3,,,40,0
11159,note_on,0,0,4,,,,,,,,3,,,47,0
11160,note_on,1,0,4,,,,,,,,3,,,52,64
11160,note_on,1,0,1,,,,,,,,0,,,67,52
11160,note_on,0,0,1,,,,,,,,0,,,71,52
11219,note_on,59,0,4,,,,,,,,3,,,52,0
11219,note_on,59,0,1,,,,,,,,0,,,71,0
11219,note_on,0,0,1,,,,,,,,0,,,67,0
11220,note_on,1,0,1,,,,,,,,0,,,64,54
11279,note_on,59,0,1,,,,,,,,0,,,64,0
11279,note_on,239,0,3,,,,,,,,2,,,64,0
11280,note_on,1,0,3,,,,,,,,2,,,59,83
11280,note_on,61,0,4,,,,,,,,3,,,52,64
11280,note_on,1,0,1,,,,,,,,0,,,67,56
11280,note_on,0,0,1,,,,,,,,0,,,71,56
11339,note_on,59,0,4,,,,,,,,3,,,52,0
11339,note_on,59,0,1,,,,,,,,0,,,71,0
11339,note_on,0,0,1,,,,,,,,0,,,67,0
11340,note_on,1,0,1,,,,,,,,0,,,76,58
11399,note_on,59,0,1,,,,,,,,0,,,76,0
11399,note_on,119,0,3,,,,,,,,2,,,59,0
11400,note_on,1,0,1,,,,,,,,0,,,67,61
11400,note_on,0,0,1,,,,,,,,0,,,71,61
11400,note_on,1,0,3,,,,,,,,2,,,59,83
11400,note_on,61,0,4,,,,,,,,3,,,52,64
11454,note_on,54,0,4,,,,,,,,3,,,52,0
11459,note_on,59,0,1,,,,,,,,0,,,71,0
11459,note_on,0,0,1,,,,,,,,0,,,67,0
11460,note_on,1,0,1,,,,,,,,0,,,64,63
11508,note_on,108,0,3,,,,,,,,2,,,59,0
11514,note_on,54,0,1,,,,,,,,0,,,64,0
11520,control_change,12,0,3,,,,,,,,2,64,0,,
11520,control_change,66,0,4,,,,,,,,3,64,0,,
11520,note_on,0,0,1,,,,,,,,0,,,69,24
11520,note_on,0,0,1,,,,,,,,0,,,66,24
11520,control_change,6,0,1,,,,,,,,0,64,0,,
11520,note_on,0,0,4,,,,,,,,3,,,52,64
11520,note_on,0,0,3,,,,,,,,2,,,60,74
11579,note_on,0,0,1,,,,,,,,0,,,66,0
11579,note_on,59,0,1,,,,,,,,0,,,69,0
11580,control_change,1,0,1,,,,,,,,0,64,127,,
11580,note_on,0,0,1,,,,,,,,0,,,76,63
11639,note_on,59,0,1,,,,,,,,0,,,76,0
11640,note_on,1,0,1,,,,,,,,0,,,66,63
11640,note_on,0,0,1,,,,,,,,0,,,69,63
11699,note_on,59,0,1,,,,,,,,0,,,69,0
11699,note_on,0,0,1,,,,,,,,0,,,66,0
11700,note_on,1,0,1,,,,,,,,0,,,64,63
11759,note_on,59,0,1,,,,,,,,0,,,64,0
11759,note_on,239,0,3,,,,,,,,2,,,60,0
11760,note_on,0,0,1,,,,,,,,0,,,69,63
11760,note_on,1,0,3,,,,,,,,2,,,59,83
11760,note_on,1,0,1,,,,,,,,0,,,66,63
11819,note_on,59,0,1,,,,,,,,0,,,69,0
11819,note_on,0,0,1,,,,,,,,0,,,66,0
11819,note_on,59,0,3,,,,,,,,2,,,59,0
11820,note_on,1,0,1,,,,,,,,0,,,76,64
11879,note_on,59,0,1,,,,,,,,0,,,76,0
11880,note_on,61,0,3,,,,,,,,2,,,57,83
11880,note_on,0,0,1,,,,,,,,0,,,69,64
11880,note_on,1,0,1,,,,,,,,0,,,66,64
11939,note_on,0,0,1,,,,,,,,0,,,66,0
11939,note_on,59,0,1,,,,,,,,0,,,69,0
11939,note_on,59,0,3,,,,,,,,2,,,57,0
11940,note_on,1,0,1,,,,,,,,0,,,64,64
11999,note_on,59,0,1,,,,,,,,0,,,64,0
12000,note_on,61,0,3,,,,,,,,2,,,59,74
12000,note_on,1,0,1,,,,,,,,0,,,67,64
12000,note_on,0,0,1,,,,,,,,0,,,71,64
12059,note_on,59,0,1,,,,,,,,0,,,71,0
12059,note_on,0,0,1,,,,,,,,0,,,67,0
12060,note_on,1,0,1,,,,,,,,0,,,76,64
12119,note_on,599,0,4,,,,,,,,3,,,52,0
12119,note_on,59,0,1,,,,,,,,0,,,76,0
12120,note_on,0,0,1,,,,,,,,0,,,71,59
12120,note_on,1,0,4,,,,,,,,3,,,52,85
12120,note_on,1,0,1,,,,,,,,0,,,67,59
12179,note_on,59,0,1,,,,,,,,0,,,71,0
12179,note_on,59,0,4,,,,,,,,3,,,52,0
12179,note_on,0,0,1,,,,,,,,0,,,67,0
12180,note_on,1,0,1,,,,,,,,0,,,64,53
12239,note_on,59,0,1,,,,,,,,0,,,64,0
12240,note_on,0,0,1,,,,,,,,0,,,71,48
12240,note_on,61,0,4,,,,,,,,3,,,52,80
12240,note_on,1,0,1,,,,,,,,0,,,67,48
12299,note_on,59,0,4,,,,,,,,3,,,52,0
12299,note_on,0,0,1,,,,,,,,0,,,67,0
12299,note_on,59,0,1,,,,,,,,0,,,71,0
12300,note_on,1,0,1,,,,,,,,0,,,76,42
12359,note_on,59,0,1,,,,,,,,0,,,76,0
12360,note_on,0,0,1,,,,,,,,0,,,71,37
12360,note_on,1,0,1,,,,,,,,0,,,67,37
12360,note_on,61,0,4,,,,,,,,3,,,52,74
12414,note_on,54,0,4,,,,,,,,3,,,52,0
12419,note_on,0,0,1,,,,,,,,0,,,67,0
12419,note_on,59,0,1,,,,,,,,0,,,71,0
12420,note_on,1,0,1,,,,,,,,0,,,64,31
12432,note_on,432,0,3,,,,,,,,2,,,59,0
12474,note_on,54,0,1,,,,,,,,0,,,64,0
12480,note_on,0,0,4,,,,,,,,3,,,48,69
12480,note_on,0,0,1,,,,,,,,0,,,69,25
12480,control_change,66,0,4,,,,,,,,3,64,127,,
12480,note_on,6,0,1,,,,,,,,0,,,66,25
12539,note_on,59,0,1,,,,,,,,0,,,69,0
12539,note_on,0,0,1,,,,,,,,0,,,66,0
12540,note_on,0,0,1,,,,,,,,0,,,76,24
12540,control_change,1,0,1,,,,,,,,0,64,0,,
12599,note_on,59,0,1,,,,,,,,0,,,76,0
12600,note_on,0,0,1,,,,,,,,0,,,69,24
12600,note_on,1,0,1,,,,,,,,0,,,66,24
12600,note_on,168,0,3,,,,,,,,2,,,48,83
12659,note_on,0,0,1,,,,,,,,0,,,66,0
12659,note_on,59,0,1,,,,,,,,0,,,69,0
12660,note_on,1,0,1,,,,,,,,0,,,64,24
12719,note_on,59,0,1,,,,,,,,0,,,64,0
12719,note_on,239,0,4,,,,,,,,3,,,48,0
12720,note_on,0,0,1,,,,,,,,0,,,72,24
12720,note_on,1,0,1,,,,,,,,0,,,66,24
12720,note_on,1,0,4,,,,,,,,3,,,47,65
12779,note_on,0,0,1,,,,,,,,0,,,66,0
12779,note_on,59,0,1,,,,,,,,0,,,72,0
12780,note_on,1,0,1,,,,,,,,0,,,76,24
12839,note_on,119,0,4,,,,,,,,3,,,47,0
12839,note_on,59,0,1,,,,,,,,0,,,76,0
12840,note_on,1,0,1,,,,,,,,0,,,66,24
12840,note_on,1,0,4,,,,,,,,3,,,45,61
12840,note_on,0,0,1,,,,,,,,0,,,72,24
12899,note_on,0,0,1,,,,,,,,0,,,66,0
12899,note_on,59,0,1,,,,,,,,0,,,72,0
12900,note_on,1,0,1,,,,,,,,0,,,64,24
12959,note_on,59,0,1,,,,,,,,0,,,64,0
12959,note_on,119,0,4,,,,,,,,3,,,45,0
12960,note_on,1,0,4,,,,,,,,3,,,47,57
12960,note_on,0,0,1,,,,,,,,0,,,71,24
12960,note_on,1,0,1,,,,,,,,0,,,67,24
13019,note_on,0,0,1,,,,,,,,0,,,67,0
13019,note_on,59,0,1,,,,,,,,0,,,71,0
13020,control_change,60,0,4,,,,,,,,3,64,0,,
13020,note_on,1,0,1,,,,,,,,0,,,76,24
13079,note_on,59,0,1,,,,,,,,0,,,76,0
13080,note_on,0,0,1,,,,,,,,0,,,71,24
13080,note_on,1,0,1,,,,,,,,0,,,67,24
13139,note_on,0,0,1,,,,,,,,0,,,67,0
13139,note_on,59,0,1,,,,,,,,0,,,71,0
13140,note_on,1,0,1,,,,,,,,0,,,64,24
13199,note_on,59,0,1,,,,,,,,0,,,64,0
13200,note_on,1,0,1,,,,,,,,0,,,67,24
13200,note_on,0,0,1,,,,,,,,0,,,71,24
13259,note_on,59,0,1,,,,,,,,0,,,71,0
13259,note_on,0,0,1,,,,,,,,0,,,67,0
13260,note_on,1,0,1,,,,,,,,0,,,76,24
13319,note_on,59,0,1,,,,,,,,0,,,76,0
13320,note_on,1,0,1,,,,,,,,0,,,67,24
13320,note_on,0,0,1,,,,,,,,0,,,71,24
13379,note_on,0,0,1,,,,,,,,0,,,67,0
13379,note_on,59,0,1,,,,,,,,0,,,71,0
13380,note_on,1,0,1,,,,,,,,0,,,64,24
13392,note_on,372,0,4,,,,,,,,3,,,47,0
13428,note_on,828,0,3,,,,,,,,2,,,48,0
13434,note_on,54,0,1,,,,,,,,0,,,64,0
13440,note_on,0,0,1,,,,,,,,0,,,71,24
13440,note_on,0,0,1,,,,,,,,0,,,67,24
13440,control_change,6,0,1,,,,,,,,0,64,127,,
13440,note_on,0,0,4,,,,,,,,3,,,40,64
13440,control_change,48,0,4,,,,,,,,3,64,127,,
13440,control_change,12,0,3,,,,,,,,2,64,127,,
13480,note_on,40,0,4,,,,,,,,3,,,47,68
13499,note_on,0,0,1,,,,,,,,0,,,67,0
13499,note_on,59,0,1,,,,,,,,0,,,71,0
13500,note_on,1,0,1,,,,,,,,0,,,76,22
13520,note_on,40,0,4,,,,,,,,3,,,59,73
13559,note_on,59,0,1,,,,,,,,0,,,76,0
13560,note_on,1,0,1,,,,,,,,0,,,67,25
13560,note_on,0,0,1,,,,,,,,0,,,71,25
13619,note_on,0,0,1,,,,,,,,0,,,67,0
13619,note_on,59,0,1,,,,,,,,0,,,71,0
13620,note_on,1,0,1,,,,,,,,0,,,64,28
13679,note_on,59,0,1,,,,,,,,0,,,64,0
13680,note_on,240,0,3,,,,,,,,2,,,55,83
13680,note_on,1,0,1,,,,,,,,0,,,67,32
13680,note_on,0,0,1,,,,,,,,0,,,71,32
13739,note_on,59,0,1,,,,,,,,0,,,71,0
13739,note_on,0,0,1,,,,,,,,0,,,67,0
13740,note_on,1,0,1,,,,,,,,0,,,76,35
13799,note_on,59,0,1,,,,,,,,0,,,76,0
13799,note_on,119,0,3,,,,,,,,2,,,55,0
13800,note_on,1,0,3,,,,,,,,2,,,54,83
13800,note_on,1,0,1,,,,,,,,0,,,67,39
13800,note_on,0,0,1,,,,,,,,0,,,71,39
13859,note_on,0,0,1,,,,,,,,0,,,67,0
13859,note_on,59,0,1,,,,,,,,0,,,71,0
13860,note_on,1,0,1,,,,,,,,0,,,64,42
13919,note_on,119,0,3,,,,,,,,2,,,54,0
13919,note_on,59,0,1,,,,,,,,0,,,64,0
13920,note_on,0,0,1,,,,,,,,0,,,71,46
13920,note_on,1,0,1,,,,,,,,0,,,67,46
13920,note_on,1,0,3,,,,,,,,2,,,52,72
13979,note_on,59,0,1,,,,,,,,0,,,71,0
13979,note_on,0,0,1,,,,,,,,0,,,67,0
13980,note_on,1,0,1,,,,,,,,0,,,76,49
14027,control_change,507,0,4,,,,,,,,3,64,0,,
14039,note_on,59,0,1,,,,,,,,0,,,76,0
14040,note_on,1,0,1,,,,,,,,0,,,67,52
14040,note_on,0,0,1,,,,,,,,0,,,71,52
14093,control_change,173,0,3,,,,,,,,2,64,0,,
14099,note_on,59,0,1,,,,,,,,0,,,71,0
14099,note_on,0,0,1,,,,,,,,0,,,67,0
14100,note_on,1,0,1,,,,,,,,0,,,64,56
14147,control_change,54,0,3,,,,,,,,2,64,127,,
14159,note_on,59,0,1,,,,,,,,0,,,64,0
14159,note_on,0,0,4,,,,,,,,3,,,40,0
14159,note_on,0,0,4,,,,,,,,3,,,47,0
14159,note_on,132,0,4,,,,,,,,3,,,59,0
14159,note_on,12,0,3,,,,,,,,2,,,52,0
14160,note_on,1,0,3,,,,,,,,2,,,67,83
14160,note_on,1,0,1,,,,,,,,0,,,67,59
14160,note_on,0,0,1,,,,,,,,0,,,71,59
14160,control_change,1,0,4,,,,,,,,3,64,127,,
14160,note_on,0,0,4,,,,,,,,3,,,52,64
14219,note_on,0,0,1,,,,,,,,0,,,67,0
14219,note_on,59,0,1,,,,,,,,0,,,71,0
14220,note_on,1,0,1,,,,,,,,0,,,76,63
14279,note_on,59,0,1,,,,,,,,0,,,76,0
14279,note_on,119,0,4,,,,,,,,3,,,52,0
14279,note_on,119,0,3,,,,,,,,2,,,67,0
14280,note_on,0,0,1,,,,,,,,0,,,71,66
14280,note_on,1,0,1,,,,,,,,0,,,67,66
14280,note_on,1,0,4,,,,,,,,3,,,52,64
14280,note_on,1,0,3,,,,,,,,2,,,67,83
14339,note_on,0,0,1,,,,,,,,0,,,67,0
14339,note_on,59,0,1,,,,,,,,0,,,71,0
14340,note_on,1,0,1,,,,,,,,0,,,64,70
14388,note_on,108,0,3,,,,,,,,2,,,67,0
14388,note_on,108,0,4,,,,,,,,3,,,52,0
14394,note_on,54,0,1,,,,,,,,0,,,64,0
14400,note_on,12,0,3,,,,,,,,2,,,66,76
14400,note_on,12,0,4,,,,,,,,3,,,52,64
14400,note_on,0,0,1,,,,,,,,0,,,69,73
14400,control_change,6,0,1,,,,,,,,0,64,0,,
14400,note_on,0,0,1,,,,,,,,0,,,72,73
14459,note_on,59,0,1,,,,,,,,0,,,72,0
14459,note_on,0,0,1,,,,,,,,0,,,69,0
14460,note_on,1,0,1,,,,,,,,0,,,75,76
14519,note_on,59,0,1,,,,,,,,0,,,75,0
14520,note_on,1,0,1,,,,,,,,0,,,69,76
14520,note_on,0,0,1,,,,,,,,0,,,72,76
14533,control_change,13,0,1,,,,,,,,0,64,127,,
14579,note_on,0,0,1,,,,,,,,0,,,69,0
14579,note_on,46,0,1,,,,,,,,0,,,72,0
14580,note_on,1,0,1,,,,,,,,0,,,64,72
14639,note_on,59,0,1,,,,,,,,0,,,64,0
14639,note_on,239,0,3,,,,,,,,2,,,66,0
14640,note_on,0,0,1,,,,,,,,0,,,72,69
14640,note_on,1,0,1,,,,,,,,0,,,69,69
14640,note_on,1,0,3,,,,,,,,2,,,63,83
14699,note_on,59,0,1,,,,,,,,0,,,72,0
14699,note_on,0,0,1,,,,,,,,0,,,69,0
14700,note_on,1,0,1,,,,,,,,0,,,75,65
14759,note_on,59,0,1,,,,,,,,0,,,75,0
14760,note_on,1,0,1,,,,,,,,0,,,69,62
14760,note_on,0,0,1,,,,,,,,0,,,72,62
14819,note_on,59,0,1,,,,,,,,0,,,72,0
14819,note_on,0,0,1,,,,,,,,0,,,69,0
14820,note_on,1,0,1,,,,,,,,0,,,64,58
14879,note_on,239,0,3,,,,,,,,2,,,63,0
14879,note_on,59,0,1,,,,,,,,0,,,64,0
14880,note_on,1,0,3,,,,,,,,2,,,64,83
14880,note_on,0,0,1,,,,,,,,0,,,71,54
14880,note_on,1,0,1,,,,,,,,0,,,67,54
14893,control_change,493,0,4,,,,,,,,3,64,0,,
14939,note_on,59,0,1,,,,,,,,0,,,71,0
14939,note_on,0,0,1,,,,,,,,0,,,67,0
14940,note_on,1,0,1,,,,,,,,0,,,76,51
14999,note_on,106,0,4,,,,,,,,3,,,52,0
14999,note_on,59,0,1,,,,,,,,0,,,76,0
15000,note_on,1,0,4,,,,,,,,3,,,52,64
15000,note_on,0,0,1,,,,,,,,0,,,71,47
15000,note_on,1,0,1,,,,,,,,0,,,67,47
15059,note_on,59,0,4,,,,,,,,3,,,52,0
15059,note_on,59,0,1,,,,,,,,0,,,71,0
15059,note_on,0,0,1,,,,,,,,0,,,67,0
15060,note_on,1,0,1,,,,,,,,0,,,64,44
15107,control_change,227,0,3,,,,,,,,2,64,0,,
15119,note_on,59,0,1,,,,,,,,0,,,64,0
15120,note_on,61,0,4,,,,,,,,3,,,52,66
15120,note_on,1,0,1,,,,,,,,0,,,67,40
15120,note_on,0,0,1,,,,,,,,0,,,71,40
15179,note_on,59,0,4,,,,,,,,3,,,52,0
15179,note_on,59,0,1,,,,,,,,0,,,71,0
15179,note_on,0,0,1,,,,,,,,0,,,67,0
15180,note_on,1,0,1,,,,,,,,0,,,76,36
15239,note_on,59,0,1,,,,,,,,0,,,76,0
15240,note_on,0,0,1,,,,,,,,0,,,71,33
15240,note_on,61,0,4,,,,,,,,3,,,52,68
15240,note_on,1,0,1,,,,,,,,0,,,67,33
15294,note_on,54,0,4,,,,,,,,3,,,52,0
15299,note_on,59,0,1,,,,,,,,0,,,71,0
15299,note_on,0,0,1,,,,,,,,0,,,67,0
15300,note_on,1,0,1,,,,,,,,0,,,64,29
15312,note_on,205,0,3,,,,,,,,2,,,64,0
15354,note_on,54,0,1,,,,,,,,0,,,64,0
15360,control_change,66,0,4,,,,,,,,3,64,127,,
15360,note_on,6,0,1,,,,,,,,0,,,66,25
15360,note_on,0,0,4,,,,,,,,3,,,52,70
15360,note_on,0,0,1,,,,,,,,0,,,69,25
15419,note_on,59,0,1,,,,,,,,0,,,69,0
15419,note_on,0,0,1,,,,,,,,0,,,66,0
15420,note_on,1,0,1,,,,,,,,0,,,75,65
15420,note_on,60,0,4,,,,,,,,3,,,60,71
15479,note_on,59,0,1,,,,,,,,0,,,75,0
15480,note_on,1,0,1,,,,,,,,0,,,66,62
15480,note_on,0,0,1,,,,,,,,0,,,69,62
15493,control_change,13,0,1,,,,,,,,0,64,0,,
15539,note_on,46,0,1,,,,,,,,0,,,69,0
15539,note_on,0,0,1,,,,,,,,0,,,66,0
15540,note_on,1,0,1,,,,,,,,0,,,64,60
15599,note_on,179,0,4,,,,,,,,3,,,60,0
15599,note_on,59,0,1,,,,,,,,0,,,64,0
15600,note_on,1,0,4,,,,,,,,3,,,63,74
15600,note_on,0,0,1,,,,,,,,0,,,69,57
15600,note_on,1,0,1,,,,,,,,0,,,66,57
15659,note_on,0,0,1,,,,,,,,0,,,66,0
15659,note_on,59,0,1,,,,,,,,0,,,69,0
15660,note_on,1,0,1,,,,,,,,0,,,75,55
15719,note_on,59,0,1,,,,,,,,0,,,75,0
15720,note_on,1,0,1,,,,,,,,0,,,66,52
15720,note_on,0,0,1,,,,,,,,0,,,69,52
15779,note_on,59,0,1,,,,,,,,0,,,69,0
15779,note_on,0,0,1,,,,,,,,0,,,66,0
15780,note_on,1,0,1,,,,,,,,0,,,64,50
15839,note_on,59,0,1,,,,,,,,0,,,64,0
15839,note_on,239,0,4,,,,,,,,3,,,63,0
15840,note_on,0,0,1,,,,,,,,0,,,71,47
15840,note_on,1,0,4,,,,,,,,3,,,64,78
15840,note_on,1,0,1,,,,,,,,0,,,67,47
15899,note_on,0,0,1,,,,,,,,0,,,67,0
15899,note_on,59,0,1,,,,,,,,0,,,71,0
15900,note_on,1,0,1,,,,,,,,0,,,76,45
15947,control_change,107,0,4,,,,,,,,3,64,0,,
15959,note_on,59,0,1,,,,,,,,0,,,76,0
15960,note_on,0,0,1,,,,,,,,0,,,71,42
15960,note_on,1,0,1,,,,,,,,0,,,67,42
16019,note_on,59,0,1,,,,,,,,0,,,71,0
16019,note_on,0,0,1,,,,,,,,0,,,67,0
16020,note_on,1,0,1,,,,,,,,0,,,64,39
16056,note_on,0,0,4,,,,,,,,3,,,52,0
16056,note_on,109,0,4,,,,,,,,3,,,64,0
16079,note_on,59,0,1,,,,,,,,0,,,64,0
16080,note_on,1,0,1,,,,,,,,0,,,67,37
16080,note_on,0,0,1,,,,,,,,0,,,71,37
16139,note_on,59,0,1,,,,,,,,0,,,71,0
16139,note_on,0,0,1,,,,,,,,0,,,67,0
16140,note_on,1,0,1,,,,,,,,0,,,76,34
16199,note_on,59,0,1,,,,,,,,0,,,76,0
16200,note_on,1,0,1,,,,,,,,0,,,67,32
16200,note_on,0,0,1,,,,,,,,0,,,71,32
16259,note_on,59,0,1,,,,,,,,0,,,71,0
16259,note_on,0,0,1,,,,,,,,0,,,67,0
16260,note_on,1,0,1,,,,,,,,0,,,64,29
16314,note_on,54,0,1,,,,,,,,0,,,64,0
16320,note_on,0,0,4,,,,,,,,3,,,48,67
16320,control_change,6,0,1,,,,,,,,0,64,127,,
16320,note_on,0,0,1,,,,,,,,0,,,67,27
16320,note_on,0,0,1,,,,,,,,0,,,72,27
16320,control_change,264,0,4,,,,,,,,3,64,127,,
16337,control_change,1025,0,3,,,,,,,,2,64,127,,
16360,note_on,40,0,4,,,,,,,,3,,,55,72
16379,note_on,59,0,1,,,,,,,,0,,,72,0
16379,note_on,0,0,1,,,,,,,,0,,,67,0
16380,note_on,1,0,1,,,,,,,,0,,,76,24
16400,note_on,40,0,4,,,,,,,,3,,,64,78
16439,note_on,59,0,1,,,,,,,,0,,,76,0
16440,note_on,1,0,1,,,,,,,,0,,,67,22
16440,note_on,0,0,1,,,,,,,,0,,,72,22
16499,note_on,59,0,1,,,,,,,,0,,,72,0
16499,note_on,0,0,1,,,,,,,,0,,,67,0
16500,note_on,1,0,1,,,,,,,,0,,,64,19
16559,note_on,0,0,4,,,,,,,,3,,,48,0
16559,note_on,0,0,4,,,,,,,,3,,,55,0
16559,note_on,59,0,1,,,,,,,,0,,,64,0
16559,note_on,159,0,4,,,,,,,,3,,,64,0
16560,note_on,223,0,3,,,,,,,,2,,,60,83
16560,note_on,0,0,1,,,,,,,,0,,,72,16
16560,note_on,1,0,1,,,,,,,,0,,,67,16
16560,note_on,0,0,4,,,,,,,,3,,,52,64
16560,note_on,1,0,4,,,,,,,,3,,,55,64
16619,note_on,0,0,4,,,,,,,,3,,,55,0
16619,note_on,59,0,4,,,,,,,,3,,,52,0
16619,note_on,59,0,3,,,,,,,,2,,,60,0
16619,note_on,0,0,1,,,,,,,,0,,,67,0
16619,note_on,59,0,1,,,,,,,,0,,,72,0
16620,note_on,1,0,1,,,,,,,,0,,,76,16
16679,note_on,59,0,1,,,,,,,,0,,,76,0
16680,note_on,61,0,4,,,,,,,,3,,,55,64
16680,note_on,0,0,4,,,,,,,,3,,,52,64
16680,note_on,0,0,1,,,,,,,,0,,,72,16
16680,note_on,1,0,1,,,,,,,,0,,,67,16
16680,note_on,61,0,3,,,,,,,,2,,,60,75
16739,note_on,59,0,1,,,,,,,,0,,,72,0
16739,note_on,59,0,3,,,,,,,,2,,,60,0
16739,note_on,0,0,4,,,,,,,,3,,,55,0
16739,note_on,59,0,4,,,,,,,,3,,,52,0
16739,note_on,0,0,1,,,,,,,,0,,,67,0
16740,note_on,1,0,1,,,,,,,,0,,,64,16
16799,note_on,59,0,1,,,,,,,,0,,,64,0
16800,note_on,0,0,4,,,,,,,,3,,,55,54
16800,note_on,61,0,4,,,,,,,,3,,,48,54
16800,note_on,61,0,3,,,,,,,,2,,,55,68
16800,note_on,0,0,1,,,,,,,,0,,,72,16
16800,note_on,1,0,1,,,,,,,,0,,,67,16
16859,note_on,59,0,1,,,,,,,,0,,,72,0
16859,note_on,0,0,1,,,,,,,,0,,,67,0
16860,note_on,1,0,1,,,,,,,,0,,,76,16
16919,note_on,59,0,1,,,,,,,,0,,,76,0
16920,note_on,1,0,1,,,,,,,,0,,,67,16
16920,note_on,0,0,1,,,,,,,,0,,,72,16
16979,note_on,59,0,1,,,,,,,,0,,,72,0
16979,note_on,0,0,1,,,,,,,,0,,,67,0
16980,note_on,1,0,1,,,,,,,,0,,,64,16
17039,note_on,239,0,3,,,,,,,,2,,,55,0
17039,note_on,59,0,1,,,,,,,,0,,,64,0
17039,note_on,0,0,4,,,,,,,,3,,,48,0
17039,note_on,239,0,4,,,,,,,,3,,,55,0
17040,note_on,1,0,3,,,,,,,,2,,,52,65
17040,note_on,0,0,1,,,,,,,,0,,,72,17
17040,note_on,1,0,4,,,,,,,,3,,,40,64
17040,note_on,1,0,1,,,,,,,,0,,,67,17
17099,note_on,59,0,3,,,,,,,,2,,,52,0
17099,note_on,59,0,1,,,,,,,,0,,,72,0
17099,note_on,0,0,1,,,,,,,,0,,,67,0
17100,note_on,1,0,1,,,,,,,,0,,,76,17
17159,note_on,59,0,1,,,,,,,,0,,,76,0
17160,note_on,1,0,1,,,,,,,,0,,,67,18
17160,note_on,61,0,3,,,,,,,,2,,,53,70
17160,note_on,0,0,1,,,,,,,,0,,,72,18
17214,note_on,54,0,3,,,,,,,,2,,,53,0
17219,note_on,59,0,1,,,,,,,,0,,,72,0
17219,note_on,0,0,1,,,,,,,,0,,,67,0
17220,note_on,1,0,1,,,,,,,,0,,,64,19
17256,note_on,216,0,4,,,,,,,,3,,,40,0
17274,note_on,54,0,1,,,,,,,,0,,,64,0
17280,note_on,66,0,3,,,,,,,,2,,,55,74
17280,note_on,0,0,4,,,,,,,,3,,,48,64
17280,control_change,6,0,1,,,,,,,,0,64,0,,
17280,note_on,0,0,1,,,,,,,,0,,,67,20
17280,control_change,24,0,4,,,,,,,,3,64,0,,
17280,note_on,0,0,4,,,,,,,,3,,,55,64
17280,note_on,0,0,1,,,,,,,,0,,,71,20
17297,control_change,17,0,3,,,,,,,,2,64,0,,
17325,control_change,45,0,1,,,,,,,,0,64,127,,
17325,control_change,45,0,4,,,,,,,,3,64,127,,
17339,note_on,14,0,1,,,,,,,,0,,,71,0
17339,note_on,0,0,1,,,,,,,,0,,,67,0
17340,control_change,43,0,3,,,,,,,,2,64,127,,
17340,note_on,1,0,1,,,,,,,,0,,,74,20
17399,note_on,59,0,3,,,,,,,,2,,,55,0
17399,note_on,59,0,1,,,,,,,,0,,,74,0
17400,note_on,1,0,3,,,,,,,,2,,,62,79
17400,note_on,0,0,1,,,,,,,,0,,,71,21
17400,note_on,1,0,1,,,,,,,,0,,,67,21
17459,note_on,59,0,1,,,,,,,,0,,,71,0
17459,note_on,0,0,1,,,,,,,,0,,,67,0
17460,note_on,1,0,1,,,,,,,,0,,,65,22
17519,note_on,119,0,3,,,,,,,,2,,,62,0
17519,note_on,59,0,1,,,,,,,,0,,,65,0
17520,note_on,1,0,3,,,,,,,,2,,,62,83
17520,note_on,1,0,1,,,,,,,,0,,,67,22
17520,note_on,0,0,1,,,,,,,,0,,,71,22
17579,note_on,59,0,1,,,,,,,,0,,,71,0
17579,note_on,0,0,1,,,,,,,,0,,,67,0
17579,note_on,59,0,3,,,,,,,,2,,,62,0
17580,note_on,1,0,1,,,,,,,,0,,,74,23
17639,note_on,59,0,1,,,,,,,,0,,,74,0
17640,note_on,1,0,1,,,,,,,,0,,,67,24
17640,note_on,0,0,1,,,,,,,,0,,,71,24
17640,note_on,61,0,3,,,,,,,,2,,,59,88
17699,note_on,59,0,3,,,,,,,,2,,,59,0
17699,note_on,0,0,1,,,,,,,,0,,,67,0
17699,note_on,59,0,1,,,,,,,,0,,,71,0
17700,note_on,1,0,1,,,,,,,,0,,,65,25
17759,note_on,59,0,1,,,,,,,,0,,,65,0
17760,note_on,61,0,3,,,,,,,,2,,,60,92
17760,note_on,1,0,1,,,,,,,,0,,,67,25
17760,note_on,0,0,1,,,,,,,,0,,,72,25
17819,note_on,0,0,1,,,,,,,,0,,,67,0
17819,note_on,59,0,1,,,,,,,,0,,,72,0
17820,note_on,1,0,1,,,,,,,,0,,,76,16
17865,control_change,540,0,4,,,,,,,,3,64,0,,
17879,note_on,14,0,4,,,,,,,,3,,,48,0
17879,note_on,0,0,4,,,,,,,,3,,,55,0
17879,note_on,59,0,1,,,,,,,,0,,,76,0
17880,note_on,0,0,1,,,,,,,,0,,,72,16
17880,note_on,1,0,1,,,,,,,,0,,,67,16
17880,note_on,0,0,4,,,,,,,,3,,,48,64
17880,note_on,1,0,4,,,,,,,,3,,,55,64
17939,note_on,59,0,1,,,,,,,,0,,,72,0
17939,note_on,0,0,1,,,,,,,,0,,,67,0
17939,note_on,59,0,4,,,,,,,,3,,,48,0
17939,note_on,0,0,4,,,,,,,,3,,,55,0
17940,note_on,1,0,1,,,,,,,,0,,,64,16
17999,note_on,59,0,1,,,,,,,,0,,,64,0
18000,note_on,0,0,1,,,,,,,,0,,,72,16
18000,note_on,0,0,4,,,,,,,,3,,,48,68
18000,note_on,61,0,4,,,,,,,,3,,,55,68
18000,note_on,1,0,1,,,,,,,,0,,,67,16
18059,note_on,0,0,4,,,,,,,,3,,,55,0
18059,note_on,0,0,1,,,,,,,,0,,,67,0
18059,note_on,59,0,1,,,,,,,,0,,,72,0
18059,note_on,59,0,4,,,,,,,,3,,,48,0
18060,note_on,1,0,1,,,,,,,,0,,,76,16
18119,note_on,59,0,1,,,,,,,,0,,,76,0
18120,note_on,0,0,1,,,,,,,,0,,,72,16
18120,note_on,1,0,1,,,,,,,,0,,,67,16
18120,note_on,0,0,4,,,,,,,,3,,,48,72
18120,note_on,61,0,4,,,,,,,,3,,,55,72
18174,note_on,0,0,4,,,,,,,,3,,,55,0
18174,note_on,54,0,4,,,,,,,,3,,,48,0
18179,note_on,59,0,1,,,,,,,,0,,,72,0
18179,note_on,0,0,1,,,,,,,,0,,,67,0
18180,note_on,1,0,1,,,,,,,,0,,,64,16
18192,note_on,432,0,3,,,,,,,,2,,,60,0
18234,note_on,54,0,1,,,,,,,,0,,,64,0
18240,note_on,66,0,4,,,,,,,,3,,,48,76
18240,note_on,6,0,1,,,,,,,,0,,,67,16
18240,note_on,0,0,1,,,,,,,,0,,,72,16
18280,note_on,40,0,4,,,,,,,,3,,,55,78
18285,control_change,45,0,1,,,,,,,,0,64,0,,
18299,note_on,0,0,1,,,,,,,,0,,,67,0
18299,note_on,14,0,1,,,,,,,,0,,,72,0
18300,control_change,108,0,3,,,,,,,,2,64,0,,
18300,note_on,1,0,1,,,,,,,,0,,,76,16
18309,control_change,9,0,1,,,,,,,,0,64,127,,
18320,note_on,40,0,4,,,,,,,,3,,,64,79
18326,control_change,6,0,4,,,,,,,,3,64,127,,
18359,note_on,50,0,1,,,,,,,,0,,,76,0
18360,note_on,0,0,1,,,,,,,,0,,,72,16
18360,note_on,1,0,1,,,,,,,,0,,,67,16
18394,control_change,94,0,3,,,,,,,,2,64,127,,
18419,note_on,0,0,1,,,,,,,,0,,,67,0
18419,note_on,59,0,1,,,,,,,,0,,,72,0
18420,note_on,1,0,1,,,,,,,,0,,,64,16
18479,note_on,59,0,1,,,,,,,,0,,,64,0
18479,note_on,153,0,4,,,,,,,,3,,,64,0
18479,note_on,0,0,4,,,,,,,,3,,,55,0
18479,note_on,0,0,4,,,,,,,,3,,,48,0
18480,note_on,1,0,1,,,,,,,,0,,,67,16
18480,note_on,1,0,4,,,,,,,,3,,,55,64
18480,note_on,0,0,1,,,,,,,,0,,,72,16
18480,note_on,86,0,3,,,,,,,,2,,,60,92
18480,note_on,0,0,4,,,,,,,,3,,,52,64
18539,note_on,59,0,4,,,,,,,,3,,,52,0
18539,note_on,0,0,4,,,,,,,,3,,,55,0
18539,note_on,59,0,1,,,,,,,,0,,,72,0
18539,note_on,0,0,1,,,,,,,,0,,,67,0
18539,note_on,59,0,3,,,,,,,,2,,,60,0
18540,note_on,1,0,1,,,,,,,,0,,,76,16
18599,note_on,59,0,1,,,,,,,,0,,,76,0
18600,note_on,61,0,4,,,,,,,,3,,,55,64
18600,note_on,0,0,4,,,,,,,,3,,,52,64
18600,note_on,61,0,3,,,,,,,,2,,,60,88
18600,note_on,1,0,1,,,,,,,,0,,,67,16
18600,note_on,0,0,1,,,,,,,,0,,,72,16
18659,note_on,0,0,1,,,,,,,,0,,,67,0
18659,note_on,59,0,1,,,,,,,,0,,,72,0
18659,note_on,59,0,4,,,,,,,,3,,,52,0
18659,note_on,0,0,4,,,,,,,,3,,,55,0
18659,note_on,59,0,3,,,,,,,,2,,,60,0
18660,note_on,1,0,1,,,,,,,,0,,,64,16
18719,note_on,59,0,1,,,,,,,,0,,,64,0
18720,note_on,61,0,3,,,,,,,,2,,,55,67
18720,note_on,61,0,4,,,,,,,,3,,,48,51
18720,note_on,0,0,4,,,,,,,,3,,,55,51
18720,note_on,1,0,1,,,,,,,,0,,,67,16
18720,note_on,0,0,1,,,,,,,,0,,,72,16
18779,note_on,0,0,1,,,,,,,,0,,,67,0
18779,note_on,59,0,1,,,,,,,,0,,,72,0
18780,note_on,1,0,1,,,,,,,,0,,,76,16
18839,note_on,59,0,1,,,,,,,,0,,,76,0
18840,note_on,1,0,1,,,,,,,,0,,,67,16
18840,note_on,0,0,1,,,,,,,,0,,,72,16
18899,note_on,0,0,1,,,,,,,,0,,,67,0
18899,note_on,59,0,1,,,,,,,,0,,,72,0
18900,note_on,1,0,1,,,,,,,,0,,,64,16
18959,note_on,239,0,4,,,,,,,,3,,,55,0
18959,note_on,0,0,4,,,,,,,,3,,,48,0
18959,note_on,239,0,3,,,,,,,,2,,,55,0
18959,note_on,59,0,1,,,,,,,,0,,,64,0
18960,note_on,1,0,1,,,,,,,,0,,,67,19
18960,note_on,0,0,1,,,,,,,,0,,,72,19
18960,note_on,1,0,3,,,,,,,,2,,,52,78
18960,note_on,1,0,4,,,,,,,,3,,,36,64
19019,note_on,59,0,1,,,,,,,,0,,,72,0
19019,note_on,0,0,1,,,,,,,,0,,,67,0
19019,note_on,59,0,3,,,,,,,,2,,,52,0
19020,note_on,1,0,1,,,,,,,,0,,,76,20
19079,note_on,59,0,1,,,,,,,,0,,,76,0
19080,note_on,1,0,1,,,,,,,,0,,,67,21
19080,note_on,0,0,1,,,,,,,,0,,,72,21
19080,note_on,61,0,3,,,,,,,,2,,,53,82
19114,control_change,154,0,4,,,,,,,,3,64,0,,
19131,control_change,51,0,3,,,,,,,,2,64,0,,
19134,note_on,3,0,3,,,,,,,,2,,,53,0
19139,note_on,0,0,1,,,,,,,,0,,,67,0
19139,note_on,59,0,1,,,,,,,,0,,,72,0
19140,note_on,1,0,1,,,,,,,,0,,,64,22
19149,control_change,9,0,1,,,,,,,,0,64,0,,
19176,note_on,62,0,4,,,,,,,,3,,,36,0
19194,note_on,45,0,1,,,,,,,,0,,,64,0
19200,note_on,0,0,4,,,,,,,,3,,,48,64
19200,note_on,0,0,4,,,,,,,,3,,,55,64
19200,control_change,24,0,4,,,,,,,,3,64,127,,
19200,note_on,0,0,3,,,,,,,,2,,,55,85
19200,control_change,66,0,3,,,,,,,,2,64,127,,
19200,note_on,6,0,1,,,,,,,,0,,,67,23
19200,note_on,0,0,1,,,,,,,,0,,,71,23
19259,note_on,59,0,1,,,,,,,,0,,,71,0
19259,note_on,0,0,1,,,,,,,,0,,,67,0
19260,control_change,1,0,1,,,,,,,,0,64,127,,
19260,note_on,0,0,1,,,,,,,,0,,,74,24
19319,note_on,59,0,1,,,,,,,,0,,,74,0
19319,note_on,119,0,3,,,,,,,,2,,,55,0
19320,note_on,1,0,1,,,,,,,,0,,,67,25
19320,note_on,0,0,1,,,,,,,,0,,,71,25
19320,note_on,1,0,3,,,,,,,,2,,,62,89
19379,note_on,0,0,1,,,,,,,,0,,,67,0
19379,note_on,59,0,1,,,,,,,,0,,,71,0
19380,note_on,1,0,1,,,,,,,,0,,,65,26
19439,note_on,59,0,1,,,,,,,,0,,,65,0
19439,note_on,119,0,3,,,,,,,,2,,,62,0
19440,note_on,0,0,1,,,,,,,,0,,,71,16
19440,note_on,1,0,1,,,,,,,,0,,,67,16
19440,note_on,1,0,3,,,,,,,,2,,,62,92
19499,note_on,0,0,1,,,,,,,,0,,,67,0
19499,note_on,59,0,1,,,,,,,,0,,,71,0
19499,note_on,59,0,3,,,,,,,,2,,,62,0
19500,note_on,1,0,1,,,,,,,,0,,,74,16
19559,note_on,59,0,1,,,,,,,,0,,,74,0
19560,note_on,61,0,3,,,,,,,,2,,,59,95
19560,note_on,0,0,1,,,,,,,,0,,,71,16
19560,note_on,1,0,1,,,,,,,,0,,,67,16
19619,note_on,59,0,3,,,,,,,,2,,,59,0
19619,note_on,0,0,1,,,,,,,,0,,,67,0
19619,note_on,59,0,1,,,,,,,,0,,,71,0
19620,note_on,1,0,1,,,,,,,,0,,,65,16
19679,note_on,59,0,1,,,,,,,,0,,,65,0
19680,note_on,1,0,1,,,,,,,,0,,,67,16
19680,note_on,61,0,3,,,,,,,,2,,,60,99
19680,note_on,0,0,1,,,,,,,,0,,,72,16
19739,note_on,59,0,1,,,,,,,,0,,,72,0
19739,note_on,0,0,1,,,,,,,,0,,,67,0
19740,note_on,1,0,1,,,,,,,,0,,,76,16
19799,note_on,0,0,4,,,,,,,,3,,,55,0
19799,note_on,599,0,4,,,,,,,,3,,,48,0
19799,note_on,59,0,1,,,,,,,,0,,,76,0
19800,note_on,1,0,4,,,,,,,,3,,,55,78
19800,note_on,0,0,1,,,,,,,,0,,,72,16
19800,note_on,0,0,4,,,,,,,,3,,,48,78
19800,note_on,1,0,1,,,,,,,,0,,,67,16
19830,control_change,30,0,4,,,,,,,,3,64,0,,
19859,note_on,59,0,1,,,,,,,,0,,,72,0
19859,note_on,0,0,1,,,,,,,,0,,,67,0
19859,note_on,0,0,4,,,,,,,,3,,,55,0
19859,note_on,29,0,4,,,,,,,,3,,,48,0
19860,note_on,1,0,1,,,,,,,,0,,,64,16
19919,note_on,59,0,1,,,,,,,,0,,,64,0
19920,note_on,0,0,1,,,,,,,,0,,,72,16
19920,note_on,1,0,1,,,,,,,,0,,,67,16
19920,note_on,0,0,4,,,,,,,,3,,,48,81
19920,note_on,61,0,4,,,,,,,,3,,,55,81
19979,note_on,59,0,1,,,,,,,,0,,,72,0
19979,note_on,0,0,1,,,,,,,,0,,,67,0
19979,note_on,59,0,4,,,,,,,,3,,,48,0
19979,note_on,0,0,4,,,,,,,,3,,,55,0
19980,note_on,1,0,1,,,,,,,,0,,,76,16
20039,note_on,59,0,1,,,,,,,,0,,,76,0
20040,note_on,1,0,1,,,,,,,,0,,,67,16
20040,note_on,0,0,1,,,,,,,,0,,,72,16
20040,note_on,0,0,4,,,,,,,,3,,,48,83
20040,note_on,61,0,4,,,,,,,,3,,,55,83
20094,note_on,54,0,4,,,,,,,,3,,,48,0
20094,note_on,0,0,4,,,,,,,,3,,,55,0
20099,note_on,59,0,1,,,,,,,,0,,,72,0
20099,note_on,0,0,1,,,,,,,,0,,,67,0
20100,note_on,1,0,1,,,,,,,,0,,,64,16
20112,note_on,432,0,3,,,,,,,,2,,,60,0
20154,note_on,54,0,1,,,,,,,,0,,,64,0
20160,note_on,0,0,3,,,,,,,,2,,,60,80
20160,control_change,48,0,3,,,,,,,,2,64,0,,
20160,note_on,6,0,1,,,,,,,,0,,,67,16
20160,note_on,66,0,4,,,,,,,,3,,,52,86
20219,note_on,59,0,1,,,,,,,,0,,,67,0
20220,note_on,0,0,1,,,,,,,,0,,,72,16
20220,control_change,1,0,1,,,,,,,,0,64,0,,
20279,note_on,59,0,1,,,,,,,,0,,,72,0
20280,note_on,1,0,1,,,,,,,,0,,,67,16
20339,note_on,59,0,1,,,,,,,,0,,,67,0
20340,note_on,1,0,1,,,,,,,,0,,,60,16
20399,note_on,59,0,1,,,,,,,,0,,,60,0
20399,note_on,239,0,3,,,,,,,,2,,,60,0
20399,note_on,239,0,4,,,,,,,,3,,,52,0
20400,note_on,1,0,4,,,,,,,,3,,,50,64
20400,note_on,1,0,1,,,,,,,,0,,,67,20
20400,note_on,1,0,3,,,,,,,,2,,,58,85
20459,note_on,59,0,1,,,,,,,,0,,,67,0
20460,note_on,1,0,1,,,,,,,,0,,,70,21
20519,note_on,59,0,1,,,,,,,,0,,,70,0
20519,note_on,119,0,3,,,,,,,,2,,,58,0
20520,note_on,1,0,3,,,,,,,,2,,,58,87
20520,note_on,1,0,1,,,,,,,,0,,,67,22
20579,note_on,59,0,1,,,,,,,,0,,,67,0
20580,note_on,1,0,1,,,,,,,,0,,,62,23
20639,note_on,239,0,4,,,,,,,,3,,,50,0
20639,note_on,59,0,1,,,,,,,,0,,,62,0
20639,note_on,119,0,3,,,,,,,,2,,,58,0
20640,note_on,1,0,3,,,,,,,,2,,,57,89
20640,note_on,1,0,4,,,,,,,,3,,,49,64
20640,note_on,1,0,1,,,,,,,,0,,,67,24
20699,note_on,59,0,1,,,,,,,,0,,,67,0
20700,note_on,1,0,1,,,,,,,,0,,,69,24
20720,control_change,80,0,3,,,,,,,,2,64,127,,
20759,note_on,39,0,3,,,,,,,,2,,,57,0
20759,note_on,59,0,1,,,,,,,,0,,,69,0
20760,note_on,1,0,1,,,,,,,,0,,,67,25
20760,note_on,1,0,3,,,,,,,,2,,,64,91
20819,note_on,59,0,1,,,,,,,,0,,,67,0
20820,note_on,1,0,1,,,,,,,,0,,,61,26
20879,note_on,119,0,3,,,,,,,,2,,,64,0
20879,note_on,59,0,1,,,,,,,,0,,,61,0
20879,note_on,239,0,4,,,,,,,,3,,,49,0
20880,note_on,1,0,4,,,,,,,,3,,,45,64
20880,note_on,1,0,1,,,,,,,,0,,,67,27
20880,note_on,1,0,3,,,,,,,,2,,,64,94
20939,note_on,59,0,1,,,,,,,,0,,,67,0
20940,note_on,1,0,1,,,,,,,,0,,,73,28
20999,note_on,59,0,1,,,,,,,,0,,,73,0
20999,note_on,119,0,3,,,,,,,,2,,,64,0
21000,note_on,1,0,3,,,,,,,,2,,,61,96
21000,note_on,1,0,1,,,,,,,,0,,,67,29
21059,note_on,59,0,1,,,,,,,,0,,,67,0
21060,note_on,1,0,1,,,,,,,,0,,,64,29
21096,note_on,216,0,4,,,,,,,,3,,,45,0
21108,note_on,108,0,3,,,,,,,,2,,,61,0
21114,note_on,54,0,1,,,,,,,,0,,,64,0
21120,note_on,12,0,3,,,,,,,,2,,,62,95
21120,note_on,6,0,1,,,,,,,,0,,,69,30
21120,note_on,24,0,4,,,,,,,,3,,,57,64
21120,note_on,0,0,4,,,,,,,,3,,,53,64
21179,note_on,59,0,1,,,,,,,,0,,,69,0
21180,note_on,1,0,1,,,,,,,,0,,,74,33
21219,set_tempo,21219,1,0,,,,,,1072194,,,,,,
21239,note_on,59,0,1,,,,,,,,0,,,74,0
21240,note_on,1,0,1,,,,,,,,0,,,69,33
21252,set_tempo,33,1,0,,,,,,1081471,,,,,,
21268,set_tempo,16,1,0,,,,,,1090909,,,,,,
21285,set_tempo,17,1,0,,,,,,1100514,,,,,,
21299,note_on,59,0,1,,,,,,,,0,,,69,0
21300,note_on,1,0,1,,,,,,,,0,,,65,33
21318,set_tempo,33,1,0,,,,,,1110289,,,,,,
21335,set_tempo,17,1,0,,,,,,1120239,,,,,,
21351,set_tempo,16,1,0,,,,,,1130369,,,,,,
21359,note_on,239,0,4,,,,,,,,3,,,53,0
21359,note_on,59,0,1,,,,,,,,0,,,65,0
21359,note_on,0,0,4,,,,,,,,3,,,57,0
21359,note_on,239,0,3,,,,,,,,2,,,62,0
21360,note_on,1,0,3,,,,,,,,2,,,64,84
21360,note_on,1,0,4,,,,,,,,3,,,57,64
21360,note_on,0,0,4,,,,,,,,3,,,49,64
21360,note_on,1,0,1,,,,,,,,0,,,69,33
21384,set_tempo,33,1,0,,,,,,1140684,,,,,,
21401,set_tempo,17,1,0,,,,,,1151190,,,,,,
21417,set_tempo,16,1,0,,,,,,1161890,,,,,,
21419,note_on,59,0,1,,,,,,,,0,,,69,0
21420,note_on,1,0,1,,,,,,,,0,,,76,33
21451,set_tempo,34,1,0,,,,,,1172791,,,,,,
21467,set_tempo,16,1,0,,,,,,1183899,,,,,,
21479,note_on,59,0,1,,,,,,,,0,,,76,0
21479,note_on,119,0,3,,,,,,,,2,,,64,0
21480,note_on,1,0,1,,,,,,,,0,,,69,33
21480,note_on,1,0,3,,,,,,,,2,,,64,90
21484,set_tempo,17,1,0,,,,,,1195219,,,,,,
21517,set_tempo,33,1,0,,,,,,1206758,,,,,,
21533,set_tempo,16,1,0,,,,,,1218522,,,,,,
21539,note_on,59,0,1,,,,,,,,0,,,69,0
21540,note_on,1,0,1,,,,,,,,0,,,67,33
21550,set_tempo,17,1,0,,,,,,1230517,,,,,,
21583,set_tempo,33,1,0,,,,,,1242751,,,,,,
21599,note_on,119,0,3,,,,,,,,2,,,64,0
21599,note_on,59,0,1,,,,,,,,0,,,67,0
21599,note_on,239,0,4,,,,,,,,3,,,49,0
21599,note_on,0,0,4,,,,,,,,3,,,57,0
21600,note_on,1,0,3,,,,,,,,2,,,65,85
21600,set_tempo,17,1,0,,,,,,1255230,,,,,,
21600,note_on,1,0,1,,,,,,,,0,,,69,33
21600,note_on,1,0,4,,,,,,,,3,,,57,64
21600,note_on,0,0,4,,,,,,,,3,,,50,64
21616,set_tempo,16,1,0,,,,,,1267963,,,,,,
21649,set_tempo,33,1,0,,,,,,1280956,,,,,,
21659,note_on,59,0,1,,,,,,,,0,,,69,0
21660,note_on,1,0,1,,,,,,,,0,,,77,33
21666,set_tempo,17,1,0,,,,,,1294219,,,,,,
21680,control_change,80,0,3,,,,,,,,2,64,0,,
21682,set_tempo,16,1,0,,,,,,1307759,,,,,,
21715,set_tempo,33,1,0,,,,,,1321586,,,,,,
21719,note_on,59,0,1,,,,,,,,0,,,77,0
21720,note_on,1,0,1,,,,,,,,0,,,69,33
21732,set_tempo,17,1,0,,,,,,1335708,,,,,,
21748,set_tempo,16,1,0,,,,,,1350135,,,,,,
21765,set_tempo,17,1,0,,,,,,1364877,,,,,,
21779,note_on,59,0,1,,,,,,,,0,,,69,0
21780,note_on,1,0,1,,,,,,,,0,,,65,33
21839,note_on,59,0,1,,,,,,,,0,,,65,0
21840,note_on,1,0,1,,,,,,,,0,,,69,33
21870,control_change,190,0,3,,,,,,,,2,64,127,,
21899,note_on,59,0,1,,,,,,,,0,,,69,0
21900,note_on,1,0,1,,,,,,,,0,,,77,33
21959,note_on,59,0,1,,,,,,,,0,,,77,0
21959,note_on,359,0,4,,,,,,,,3,,,50,0
21959,note_on,0,0,4,,,,,,,,3,,,57,0
21959,note_on,89,0,3,,,,,,,,2,,,65,0
21960,note_on,1,0,1,,,,,,,,0,,,69,33
21960,note_on,1,0,3,,,,,,,,2,,,64,87
21960,note_on,1,0,4,,,,,,,,3,,,48,64
22013,set_tempo,248,1,0,,,,,,1411101,,,,,,
22019,note_on,59,0,1,,,,,,,,0,,,69,0
22020,note_on,1,0,1,,,,,,,,0,,,76,32
22068,note_on,108,0,4,,,,,,,,3,,,48,0
22068,note_on,108,0,3,,,,,,,,2,,,64,0
22074,note_on,54,0,1,,,,,,,,0,,,76,0
22080,note_on,6,0,1,,,,,,,,0,,,69,31
22080,note_on,12,0,3,,,,,,,,2,,,62,85
22080,note_on,0,0,4,,,,,,,,3,,,53,64
22080,control_change,12,0,4,,,,,,,,3,64,127,,
22139,note_on,59,0,1,,,,,,,,0,,,69,0
22140,note_on,1,0,1,,,,,,,,0,,,74,30
22199,note_on,119,0,3,,,,,,,,2,,,62,0
22199,note_on,59,0,1,,,,,,,,0,,,74,0
22200,note_on,1,0,3,,,,,,,,2,,,60,83
22200,note_on,1,0,1,,,,,,,,0,,,69,29
22259,note_on,59,0,1,,,,,,,,0,,,69,0
22260,note_on,1,0,1,,,,,,,,0,,,62,28
22278,set_tempo,265,1,0,,,,,,1427212,,,,,,
22319,note_on,119,0,3,,,,,,,,2,,,60,0
22319,note_on,239,0,4,,,,,,,,3,,,53,0
22319,note_on,59,0,1,,,,,,,,0,,,62,0
22320,note_on,1,0,4,,,,,,,,3,,,54,64
22320,note_on,1,0,1,,,,,,,,0,,,69,27
22320,note_on,1,0,3,,,,,,,,2,,,59,81
22379,note_on,59,0,1,,,,,,,,0,,,69,0
22379,note_on,59,0,3,,,,,,,,2,,,59,0
22380,note_on,1,0,1,,,,,,,,0,,,74,26
22439,note_on,59,0,1,,,,,,,,0,,,74,0
22440,note_on,1,0,1,,,,,,,,0,,,69,25
22440,note_on,61,0,3,,,,,,,,2,,,57,73
22499,note_on,59,0,1,,,,,,,,0,,,69,0
22499,note_on,59,0,3,,,,,,,,2,,,57,0
22500,note_on,1,0,1,,,,,,,,0,,,62,24
22559,note_on,239,0,4,,,,,,,,3,,,54,0
22559,note_on,59,0,1,,,,,,,,0,,,62,0
22560,note_on,1,0,1,,,,,,,,0,,,69,23
22560,set_tempo,282,1,0,,,,,,1172791,,,,,,
22560,note_on,0,0,3,,,,,,,,2,,,57,72
22560,control_change,61,0,3,,,,,,,,2,64,0,,
22560,note_on,1,0,4,,,,,,,,3,,,43,64
22593,set_tempo,33,1,0,,,,,,1161890,,,,,,
22619,note_on,59,0,1,,,,,,,,0,,,69,0
22620,note_on,1,0,1,,,,,,,,0,,,72,22
22626,set_tempo,33,1,0,,,,,,1151190,,,,,,
22659,set_tempo,33,1,0,,,,,,1140684,,,,,,
22679,note_on,59,0,1,,,,,,,,0,,,72,0
22679,note_on,119,0,3,,,,,,,,2,,,57,0
22680,note_on,1,0,3,,,,,,,,2,,,55,75
22680,note_on,1,0,1,,,,,,,,0,,,64,20
22692,set_tempo,33,1,0,,,,,,1130369,,,,,,
22708,set_tempo,16,1,0,,,,,,1120239,,,,,,
22739,note_on,59,0,1,,,,,,,,0,,,64,0
22740,note_on,1,0,1,,,,,,,,0,,,62,20
22742,set_tempo,34,1,0,,,,,,1110289,,,,,,
22775,set_tempo,33,1,0,,,,,,1100514,,,,,,
22799,note_on,119,0,3,,,,,,,,2,,,55,0
22799,note_on,59,0,1,,,,,,,,0,,,62,0
22800,note_on,1,0,1,,,,,,,,0,,,64,18
22800,note_on,1,0,3,,,,,,,,2,,,55,73
22808,set_tempo,33,1,0,,,,,,1090909,,,,,,
22841,set_tempo,33,1,0,,,,,,1081471,,,,,,
22857,set_tempo,16,1,0,,,,,,1072194,,,,,,
22859,note_on,59,0,1,,,,,,,,0,,,64,0
22860,note_on,1,0,1,,,,,,,,0,,,72,17
22891,set_tempo,34,1,0,,,,,,1063076,,,,,,
22919,note_on,59,0,1,,,,,,,,0,,,72,0
22919,note_on,119,0,3,,,,,,,,2,,,55,0
22920,note_on,1,0,1,,,,,,,,0,,,64,16
22920,note_on,1,0,3,,,,,,,,2,,,55,71
22924,set_tempo,33,1,0,,,,,,1054111,,,,,,
22957,set_tempo,33,1,0,,,,,,1045296,,,,,,
22979,note_on,59,0,1,,,,,,,,0,,,64,0
22980,note_on,1,0,1,,,,,,,,0,,,60,15
22990,set_tempo,33,1,0,,,,,,1036628,,,,,,
22992,note_on,432,0,4,,,,,,,,3,,,43,0
23006,set_tempo,16,1,0,,,,,,1028101,,,,,,
23028,note_on,108,0,3,,,,,,,,2,,,55,0
23034,note_on,54,0,1,,,,,,,,0,,,60,0
23040,control_change,48,0,4,,,,,,,,3,64,0,,
23040,note_on,0,0,4,,,,,,,,3,,,43,64
23040,note_on,12,0,3,,,,,,,,2,,,55,64
23040,note_on,6,0,1,,,,,,,,0,,,67,15
23099,note_on,59,0,1,,,,,,,,0,,,67,0
23100,note_on,1,0,1,,,,,,,,0,,,71,15
23159,note_on,59,0,1,,,,,,,,0,,,71,0
23159,note_on,119,0,3,,,,,,,,2,,,55,0
23160,note_on,1,0,3,,,,,,,,2,,,62,71
23160,note_on,1,0,1,,,,,,,,0,,,67,15
23219,note_on,59,0,1,,,,,,,,0,,,67,0
23220,note_on,1,0,1,,,,,,,,0,,,65,15
23279,note_on,59,0,1,,,,,,,,0,,,65,0
23279,note_on,119,0,3,,,,,,,,2,,,62,0
23280,note_on,1,0,1,,,,,,,,0,,,67,15
23280,note_on,1,0,3,,,,,,,,2,,,62,78
23339,note_on,59,0,3,,,,,,,,2,,,62,0
23339,note_on,59,0,1,,,,,,,,0,,,67,0
23340,note_on,1,0,1,,,,,,,,0,,,71,15
23399,note_on,59,0,1,,,,,,,,0,,,71,0
23400,note_on,1,0,1,,,,,,,,0,,,67,15
23400,note_on,61,0,3,,,,,,,,2,,,59,85
23459,note_on,59,0,1,,,,,,,,0,,,67,0
23459,note_on,59,0,3,,,,,,,,2,,,59,0
23460,note_on,1,0,1,,,,,,,,0,,,65,15
23519,note_on,479,0,4,,,,,,,,3,,,43,0
23519,note_on,59,0,1,,,,,,,,0,,,65,0
23520,note_on,1,0,1,,,,,,,,0,,,64,18
23520,note_on,61,0,3,,,,,,,,2,,,60,93
23520,note_on,1,0,4,,,,,,,,3,,,48,65
23579,note_on,59,0,1,,,,,,,,0,,,64,0
23580,note_on,1,0,1,,,,,,,,0,,,72,19
23639,note_on,119,0,4,,,,,,,,3,,,48,0
23639,note_on,59,0,1,,,,,,,,0,,,72,0
23640,note_on,1,0,4,,,,,,,,3,,,50,71
23640,note_on,1,0,1,,,,,,,,0,,,65,20
23699,note_on,59,0,1,,,,,,,,0,,,65,0
23700,note_on,1,0,1,,,,,,,,0,,,72,21
23759,note_on,119,0,4,,,,,,,,3,,,50,0
23759,note_on,59,0,1,,,,,,,,0,,,72,0
23760,note_on,1,0,1,,,,,,,,0,,,67,22
23760,note_on,1,0,4,,,,,,,,3,,,52,77
23819,note_on,59,0,1,,,,,,,,0,,,67,0
23820,note_on,1,0,1,,,,,,,,0,,,72,23
23879,note_on,119,0,4,,,,,,,,3,,,52,0
23879,note_on,59,0,1,,,,,,,,0,,,72,0
23880,note_on,1,0,1,,,,,,,,0,,,65,24
23880,note_on,1,0,4,,,,,,,,3,,,50,83
23939,note_on,59,0,1,,,,,,,,0,,,65,0
23940,note_on,1,0,1,,,,,,,,0,,,72,25
23952,note_on,432,0,3,,,,,,,,2,,,60,0
23988,note_on,108,0,4,,,,,,,,3,,,50,0
23994,note_on,54,0,1,,,,,,,,0,,,72,0
24000,note_on,6,0,1,,,,,,,,0,,,64,26
24000,control_change,48,0,3,,,,,,,,2,64,127,,
24000,note_on,12,0,4,,,,,,,,3,,,48,90
24000,note_on,0,0,3,,,,,,,,2,,,64,79
24059,note_on,59,0,1,,,,,,,,0,,,64,0
24060,note_on,1,0,1,,,,,,,,0,,,72,27
24066,set_tempo,1060,1,0,,,,,,995355,,,,,,
24119,note_on,59,0,1,,,,,,,,0,,,72,0
24120,note_on,1,0,1,,,,,,,,0,,,67,28
24179,note_on,59,0,1,,,,,,,,0,,,67,0
24180,note_on,1,0,1,,,,,,,,0,,,64,29
24239,note_on,239,0,4,,,,,,,,3,,,48,0
24239,note_on,59,0,1,,,,,,,,0,,,64,0
24239,note_on,239,0,3,,,,,,,,2,,,64,0
24240,note_on,1,0,4,,,,,,,,3,,,46,90
24240,note_on,1,0,1,,,,,,,,0,,,67,29
24240,note_on,1,0,3,,,,,,,,2,,,62,81
24299,note_on,59,0,1,,,,,,,,0,,,67,0
24300,note_on,1,0,1,,,,,,,,0,,,74,29
24359,note_on,119,0,3,,,,,,,,2,,,62,0
24359,note_on,59,0,1,,,,,,,,0,,,74,0
24360,note_on,1,0,3,,,,,,,,2,,,62,82
24360,note_on,1,0,1,,,,,,,,0,,,67,29
24419,note_on,59,0,1,,,,,,,,0,,,67,0
24420,note_on,1,0,1,,,,,,,,0,,,62,28
24479,note_on,119,0,3,,,,,,,,2,,,62,0
24479,note_on,59,0,1,,,,,,,,0,,,62,0
24479,note_on,239,0,4,,,,,,,,3,,,46,0
24480,note_on,1,0,3,,,,,,,,2,,,61,83
24480,note_on,1,0,1,,,,,,,,0,,,67,28
24480,note_on,1,0,4,,,,,,,,3,,,45,89
24480,set_tempo,414,1,0,,,,,,972132,,,,,,
24513,set_tempo,33,1,0,,,,,,979752,,,,,,
24529,set_tempo,16,1,0,,,,,,987492,,,,,,
24539,note_on,59,0,1,,,,,,,,0,,,67,0
24540,note_on,1,0,1,,,,,,,,0,,,73,28
24562,set_tempo,33,1,0,,,,,,995355,,,,,,
24579,set_tempo,17,1,0,,,,,,1003344,,,,,,
24599,note_on,59,0,1,,,,,,,,0,,,73,0
24599,note_on,119,0,3,,,,,,,,2,,,61,0
24600,note_on,1,0,1,,,,,,,,0,,,67,28
24600,note_on,1,0,3,,,,,,,,2,,,67,79
24612,set_tempo,33,1,0,,,,,,1011463,,,,,,
24628,set_tempo,16,1,0,,,,,,1019714,,,,,,
24659,note_on,59,0,1,,,,,,,,0,,,67,0
24660,note_on,1,0,1,,,,,,,,0,,,64,27
24662,set_tempo,34,1,0,,,,,,1028101,,,,,,
24678,set_tempo,16,1,0,,,,,,1036628,,,,,,
24695,set_tempo,17,1,0,,,,,,1045296,,,,,,
24719,note_on,119,0,3,,,,,,,,2,,,67,0
24719,note_on,239,0,4,,,,,,,,3,,,45,0
24719,note_on,59,0,1,,,,,,,,0,,,64,0
24720,note_on,1,0,1,,,,,,,,0,,,69,27
24720,note_on,1,0,4,,,,,,,,3,,,57,88
24720,note_on,1,0,3,,,,,,,,2,,,67,82
24728,set_tempo,33,1,0,,,,,,1054111,,,,,,
24744,set_tempo,16,1,0,,,,,,1063076,,,,,,
24777,set_tempo,33,1,0,,,,,,1072194,,,,,,
24779,note_on,59,0,1,,,,,,,,0,,,69,0
24780,note_on,1,0,1,,,,,,,,0,,,73,27
24794,set_tempo,17,1,0,,,,,,1081471,,,,,,
24827,set_tempo,33,1,0,,,,,,1090909,,,,,,
24839,note_on,59,0,1,,,,,,,,0,,,73,0
24839,note_on,119,0,3,,,,,,,,2,,,67,0
24840,note_on,1,0,3,,,,,,,,2,,,61,85
24840,note_on,1,0,1,,,,,,,,0,,,69,15
24844,set_tempo,17,1,0,,,,,,1100514,,,,,,
24860,set_tempo,16,1,0,,,,,,1110289,,,,,,
24893,set_tempo,33,1,0,,,,,,1120239,,,,,,
24899,note_on,59,0,1,,,,,,,,0,,,69,0
24899,note_on,179,0,4,,,,,,,,3,,,57,0
24900,note_on,1,0,1,,,,,,,,0,,,64,15
24900,note_on,1,0,4,,,,,,,,3,,,55,80
24910,set_tempo,17,1,0,,,,,,1130369,,,,,,
24943,set_tempo,33,1,0,,,,,,1140684,,,,,,
24948,note_on,108,0,3,,,,,,,,2,,,61,0
24954,note_on,54,0,4,,,,,,,,3,,,55,0
24954,note_on,54,0,1,,,,,,,,0,,,64,0
24960,control_change,6,0,4,,,,,,,,3,64,127,,
24960,set_tempo,17,1,0,,,,,,1151190,,,,,,
24960,note_on,0,0,4,,,,,,,,3,,,53,88
24960,note_on,0,0,3,,,,,,,,2,,,62,88
24960,control_change,12,0,3,,,,,,,,2,64,0,,
24960,note_on,6,0,1,,,,,,,,0,,,69,21
24993,set_tempo,33,1,0,,,,,,1161890,,,,,,
25009,set_tempo,16,1,0,,,,,,1172791,,,,,,
25019,note_on,59,0,1,,,,,,,,0,,,69,0
25020,note_on,1,0,1,,,,,,,,0,,,74,29
25026,set_tempo,17,1,0,,,,,,1183899,,,,,,
25050,control_change,90,0,3,,,,,,,,2,64,127,,
25079,note_on,59,0,1,,,,,,,,0,,,74,0
25080,note_on,1,0,1,,,,,,,,0,,,69,36
25139,note_on,59,0,1,,,,,,,,0,,,69,0
25140,note_on,1,0,1,,,,,,,,0,,,65,44
25191,set_tempo,165,1,0,,,,,,1395349,,,,,,
25199,note_on,59,0,1,,,,,,,,0,,,65,0
25199,note_on,239,0,4,,,,,,,,3,,,53,0
25199,note_on,149,0,3,,,,,,,,2,,,62,0
25200,note_on,1,0,3,,,,,,,,2,,,64,81
25200,note_on,1,0,4,,,,,,,,3,,,57,87
25200,note_on,0,0,4,,,,,,,,3,,,49,87
25200,note_on,1,0,1,,,,,,,,0,,,69,51
25259,note_on,59,0,1,,,,,,,,0,,,69,0
25260,note_on,1,0,1,,,,,,,,0,,,76,59
25319,note_on,119,0,3,,,,,,,,2,,,64,0
25319,note_on,59,0,1,,,,,,,,0,,,76,0
25320,note_on,1,0,1,,,,,,,,0,,,69,66
25320,note_on,1,0,3,,,,,,,,2,,,64,78
25379,note_on,59,0,1,,,,,,,,0,,,69,0
25380,note_on,1,0,1,,,,,,,,0,,,67,70
25439,note_on,0,0,4,,,,,,,,3,,,57,0
25439,note_on,119,0,3,,,,,,,,2,,,64,0
25439,note_on,239,0,4,,,,,,,,3,,,49,0
25439,note_on,59,0,1,,,,,,,,0,,,67,0
25440,note_on,1,0,1,,,,,,,,0,,,69,71
25440,note_on,1,0,3,,,,,,,,2,,,65,75
25440,note_on,1,0,4,,,,,,,,3,,,57,86
25440,note_on,0,0,4,,,,,,,,3,,,50,86
25499,note_on,59,0,1,,,,,,,,0,,,69,0
25500,note_on,1,0,1,,,,,,,,0,,,77,66
25559,note_on,59,0,1,,,,,,,,0,,,77,0
25560,note_on,1,0,1,,,,,,,,0,,,69,61
25619,note_on,59,0,1,,,,,,,,0,,,69,0
25620,note_on,1,0,1,,,,,,,,0,,,65,57
25679,note_on,59,0,1,,,,,,,,0,,,65,0
25680,note_on,1,0,1,,,,,,,,0,,,69,52
25739,note_on,59,0,1,,,,,,,,0,,,69,0
25740,note_on,1,0,1,,,,,,,,0,,,77,36
25799,note_on,359,0,3,,,,,,,,2,,,65,0
25799,note_on,0,0,4,,,,,,,,3,,,57,0
25799,note_on,59,0,1,,,,,,,,0,,,77,0
25799,note_on,359,0,4,,,,,,,,3,,,50,0
25800,note_on,1,0,4,,,,,,,,3,,,52,85
25800,note_on,1,0,1,,,,,,,,0,,,69,26
25800,note_on,1,0,3,,,,,,,,2,,,64,89
25859,note_on,59,0,1,,,,,,,,0,,,69,0
25860,control_change,60,0,3,,,,,,,,2,64,0,,
25860,note_on,1,0,1,,,,,,,,0,,,76,30
25908,note_on,48,0,3,,,,,,,,2,,,64,0
25908,note_on,108,0,4,,,,,,,,3,,,52,0
25914,note_on,54,0,1,,,,,,,,0,,,76,0
25920,control_change,12,0,4,,,,,,,,3,64,0,,
25920,note_on,0,0,4,,,,,,,,3,,,53,85
25920,note_on,0,0,3,,,,,,,,2,,,62,87
25920,control_change,12,0,3,,,,,,,,2,64,127,,
25920,note_on,6,0,1,,,,,,,,0,,,69,28
25979,note_on,59,0,1,,,,,,,,0,,,69,0
25980,note_on,1,0,1,,,,,,,,0,,,74,27
25987,control_change,67,0,4,,,,,,,,3,64,127,,
26039,note_on,119,0,3,,,,,,,,2,,,62,0
26039,note_on,59,0,1,,,,,,,,0,,,74,0
26040,note_on,1,0,3,,,,,,,,2,,,60,84
26040,note_on,1,0,1,,,,,,,,0,,,69,26
26099,note_on,59,0,1,,,,,,,,0,,,69,0
26100,note_on,1,0,1,,,,,,,,0,,,62,25
26159,note_on,172,0,4,,,,,,,,3,,,53,0
26159,note_on,119,0,3,,,,,,,,2,,,60,0
26159,note_on,59,0,1,,,,,,,,0,,,62,0
26160,note_on,1,0,1,,,,,,,,0,,,63,24
26160,note_on,1,0,4,,,,,,,,3,,,54,84
26160,note_on,1,0,3,,,,,,,,2,,,59,81
26219,note_on,59,0,1,,,,,,,,0,,,63,0
26219,note_on,59,0,3,,,,,,,,2,,,59,0
26220,note_on,1,0,1,,,,,,,,0,,,69,22
26279,note_on,59,0,1,,,,,,,,0,,,69,0
26280,note_on,1,0,1,,,,,,,,0,,,63,21
26280,note_on,61,0,3,,,,,,,,2,,,57,79
26339,note_on,59,0,1,,,,,,,,0,,,63,0
26339,note_on,59,0,3,,,,,,,,2,,,57,0
26340,note_on,1,0,1,,,,,,,,0,,,60,20
26366,set_tempo,1175,1,0,,,,,,1350135,,,,,,
26399,note_on,239,0,4,,,,,,,,3,,,54,0
26399,note_on,59,0,1,,,,,,,,0,,,60,0
26400,note_on,1,0,4,,,,,,,,3,,,43,65
26400,note_on,61,0,3,,,,,,,,2,,,57,80
26400,set_tempo,34,1,0,,,,,,1335708,,,,,,
26400,note_on,1,0,1,,,,,,,,0,,,64,19
26416,set_tempo,16,1,0,,,,,,1321586,,,,,,
26433,set_tempo,17,1,0,,,,,,1307759,,,,,,
26449,set_tempo,16,1,0,,,,,,1294219,,,,,,
26459,note_on,59,0,1,,,,,,,,0,,,64,0
26460,note_on,1,0,1,,,,,,,,0,,,72,14
26466,set_tempo,17,1,0,,,,,,1280956,,,,,,
26482,set_tempo,16,1,0,,,,,,1267963,,,,,,
26499,set_tempo,17,1,0,,,,,,1255230,,,,,,
26507,control_change,107,0,3,,,,,,,,2,64,0,,
26515,set_tempo,16,1,0,,,,,,1242751,,,,,,
26519,note_on,59,0,1,,,,,,,,0,,,72,0
26519,note_on,12,0,3,,,,,,,,2,,,57,0
26520,note_on,1,0,1,,,,,,,,0,,,64,14
26520,note_on,1,0,3,,,,,,,,2,,,55,70
26532,set_tempo,17,1,0,,,,,,1230517,,,,,,
26548,set_tempo,16,1,0,,,,,,1218522,,,,,,
26565,set_tempo,17,1,0,,,,,,1206758,,,,,,
26579,note_on,59,0,1,,,,,,,,0,,,64,0
26580,note_on,1,0,1,,,,,,,,0,,,60,14
26582,set_tempo,17,1,0,,,,,,1195219,,,,,,
26598,set_tempo,16,1,0,,,,,,1183899,,,,,,
26631,set_tempo,33,1,0,,,,,,1172791,,,,,,
26639,note_on,119,0,3,,,,,,,,2,,,55,0
26639,note_on,59,0,1,,,,,,,,0,,,60,0
26640,note_on,1,0,1,,,,,,,,0,,,64,14
26640,note_on,1,0,3,,,,,,,,2,,,55,69
26648,set_tempo,17,1,0,,,,,,1161890,,,,,,
26664,set_tempo,16,1,0,,,,,,1151190,,,,,,
26681,set_tempo,17,1,0,,,,,,1140684,,,,,,
26697,set_tempo,16,1,0,,,,,,1130369,,,,,,
26699,note_on,59,0,1,,,,,,,,0,,,64,0
26700,note_on,1,0,1,,,,,,,,0,,,73,14
26714,set_tempo,17,1,0,,,,,,1120239,,,,,,
26731,set_tempo,17,1,0,,,,,,1110289,,,,,,
26747,set_tempo,16,1,0,,,,,,1100514,,,,,,
26759,note_on,59,0,1,,,,,,,,0,,,73,0
26759,note_on,119,0,3,,,,,,,,2,,,55,0
26760,note_on,1,0,1,,,,,,,,0,,,64,16
26760,note_on,1,0,3,,,,,,,,2,,,55,68
26764,set_tempo,17,1,0,,,,,,1090909,,,,,,
26780,set_tempo,16,1,0,,,,,,1081471,,,,,,
26797,set_tempo,17,1,0,,,,,,1072194,,,,,,
26813,set_tempo,16,1,0,,,,,,1063076,,,,,,
26819,note_on,59,0,1,,,,,,,,0,,,64,0
26820,note_on,1,0,1,,,,,,,,0,,,61,20
26830,set_tempo,17,1,0,,,,,,1054111,,,,,,
26832,note_on,432,0,4,,,,,,,,3,,,43,0
26846,set_tempo,16,1,0,,,,,,1045296,,,,,,
26868,note_on,108,0,3,,,,,,,,2,,,55,0
26874,note_on,54,0,1,,,,,,,,0,,,61,0
26880,note_on,48,0,4,,,,,,,,3,,,43,64
26880,note_on,6,0,1,,,,,,,,0,,,65,23
26880,control_change,12,0,3,,,,,,,,2,64,127,,
26880,note_on,0,0,3,,,,,,,,2,,,55,82
26939,note_on,59,0,1,,,,,,,,0,,,65,0
26940,note_on,1,0,1,,,,,,,,0,,,74,26
26947,control_change,67,0,4,,,,,,,,3,64,0,,
26999,note_on,59,0,1,,,,,,,,0,,,74,0
26999,note_on,119,0,3,,,,,,,,2,,,55,0
27000,note_on,1,0,3,,,,,,,,2,,,62,80
27000,note_on,1,0,1,,,,,,,,0,,,65,29
27059,note_on,59,0,1,,,,,,,,0,,,65,0
27060,note_on,1,0,1,,,,,,,,0,,,62,30
27119,note_on,119,0,3,,,,,,,,2,,,62,0
27119,note_on,59,0,1,,,,,,,,0,,,62,0
27120,note_on,1,0,3,,,,,,,,2,,,62,76
27120,note_on,1,0,1,,,,,,,,0,,,65,26
27179,note_on,59,0,3,,,,,,,,2,,,62,0
27179,note_on,59,0,1,,,,,,,,0,,,65,0
27180,note_on,1,0,1,,,,,,,,0,,,71,23
27239,note_on,59,0,1,,,,,,,,0,,,71,0
27240,note_on,61,0,3,,,,,,,,2,,,59,72
27240,note_on,1,0,1,,,,,,,,0,,,67,20
27299,note_on,59,0,3,,,,,,,,2,,,59,0
27299,note_on,59,0,1,,,,,,,,0,,,67,0
27300,note_on,1,0,1,,,,,,,,0,,,65,17
27359,note_on,59,0,1,,,,,,,,0,,,65,0
27359,note_on,412,0,4,,,,,,,,3,,,43,0
27360,note_on,61,0,3,,,,,,,,2,,,60,68
27360,note_on,1,0,1,,,,,,,,0,,,64,14
27360,note_on,1,0,4,,,,,,,,3,,,48,64
27419,note_on,59,0,1,,,,,,,,0,,,64,0
27420,note_on,1,0,1,,,,,,,,0,,,72,14
27479,note_on,59,0,1,,,,,,,,0,,,72,0
27480,note_on,1,0,1,,,,,,,,0,,,67,14
27539,note_on,59,0,1,,,,,,,,0,,,67,0
27540,note_on,1,0,1,,,,,,,,0,,,64,14
27576,note_on,216,0,4,,,,,,,,3,,,48,0
27599,note_on,59,0,1,,,,,,,,0,,,64,0
27600,note_on,1,0,1,,,,,,,,0,,,67,14
27659,note_on,59,0,1,,,,,,,,0,,,67,0
27660,note_on,1,0,1,,,,,,,,0,,,72,14
27719,note_on,59,0,1,,,,,,,,0,,,72,0
27720,note_on,1,0,1,,,,,,,,0,,,67,14
27779,note_on,59,0,1,,,,,,,,0,,,67,0
27780,note_on,1,0,1,,,,,,,,0,,,64,14
27792,note_on,432,0,3,,,,,,,,2,,,60,0
27834,note_on,54,0,1,,,,,,,,0,,,64,0
27840,control_change,48,0,3,,,,,,,,2,64,0,,
27840,note_on,6,0,1,,,,,,,,0,,,67,18
27840,note_on,0,0,4,,,,,,,,3,,,55,79
27840,control_change,264,0,4,,,,,,,,3,64,127,,
27899,note_on,59,0,1,,,,,,,,0,,,67,0
27900,note_on,1,0,1,,,,,,,,0,,,74,21
27959,note_on,59,0,1,,,,,,,,0,,,74,0
27959,note_on,119,0,4,,,,,,,,3,,,55,0
27960,note_on,1,0,1,,,,,,,,0,,,67,23
27960,note_on,1,0,4,,,,,,,,3,,,65,89
28019,note_on,59,0,1,,,,,,,,0,,,67,0
28020,note_on,1,0,1,,,,,,,,0,,,62,26
28079,note_on,119,0,4,,,,,,,,3,,,65,0
28079,note_on,59,0,1,,,,,,,,0,,,62,0
28080,note_on,1,0,1,,,,,,,,0,,,67,28
28080,note_on,1,0,4,,,,,,,,3,,,65,86
28139,note_on,59,0,1,,,,,,,,0,,,67,0
28140,note_on,1,0,1,,,,,,,,0,,,71,31
28199,note_on,119,0,4,,,,,,,,3,,,65,0
28199,note_on,59,0,1,,,,,,,,0,,,71,0
28200,note_on,0,0,4,,,,,,,,3,,,62,84
28200,control_change,1,0,4,,,,,,,,3,64,0,,
28200,note_on,1,0,1,,,,,,,,0,,,67,33
28259,note_on,59,0,1,,,,,,,,0,,,67,0
28260,note_on,1,0,1,,,,,,,,0,,,59,31
28319,note_on,59,0,1,,,,,,,,0,,,59,0
28319,note_on,119,0,4,,,,,,,,3,,,62,0
28320,note_on,1,0,4,,,,,,,,3,,,64,81
28320,note_on,1,0,1,,,,,,,,0,,,67,28
28379,note_on,59,0,1,,,,,,,,0,,,67,0
28380,note_on,1,0,1,,,,,,,,0,,,72,27
28439,note_on,59,0,1,,,,,,,,0,,,72,0
28440,note_on,1,0,1,,,,,,,,0,,,67,24
28499,note_on,59,0,1,,,,,,,,0,,,67,0
28500,note_on,1,0,1,,,,,,,,0,,,60,22
28559,note_on,59,0,1,,,,,,,,0,,,60,0
28560,note_on,1,0,1,,,,,,,,0,,,67,20
28619,note_on,59,0,1,,,,,,,,0,,,67,0
28620,note_on,1,0,1,,,,,,,,0,,,72,18
28679,note_on,59,0,1,,,,,,,,0,,,72,0
28680,note_on,1,0,1,,,,,,,,0,,,67,16
28739,note_on,59,0,1,,,,,,,,0,,,67,0
28740,note_on,1,0,1,,,,,,,,0,,,60,14
28752,note_on,432,0,4,,,,,,,,3,,,64,0
28794,note_on,54,0,1,,,,,,,,0,,,60,0
28800,note_on,6,0,1,,,,,,,,0,,,67,14
28800,note_on,48,0,4,,,,,,,,3,,,55,70
28845,control_change,45,0,4,,,,,,,,3,64,127,,
28859,note_on,59,0,1,,,,,,,,0,,,67,0
28860,note_on,1,0,1,,,,,,,,0,,,77,16
28919,note_on,59,0,1,,,,,,,,0,,,77,0
28919,note_on,74,0,4,,,,,,,,3,,,55,0
28920,note_on,1,0,1,,,,,,,,0,,,67,18
28920,note_on,1,0,4,,,,,,,,3,,,62,84
28979,note_on,59,0,1,,,,,,,,0,,,67,0
28980,note_on,1,0,1,,,,,,,,0,,,65,20
29039,note_on,59,0,1,,,,,,,,0,,,65,0
29039,note_on,119,0,4,,,,,,,,3,,,62,0
29040,note_on,1,0,1,,,,,,,,0,,,67,21
29040,note_on,1,0,4,,,,,,,,3,,,62,80
29099,note_on,59,0,1,,,,,,,,0,,,67,0
29100,note_on,1,0,1,,,,,,,,0,,,74,23
29159,note_on,119,0,4,,,,,,,,3,,,62,0
29159,note_on,59,0,1,,,,,,,,0,,,74,0
29160,note_on,1,0,4,,,,,,,,3,,,59,76
29160,note_on,1,0,1,,,,,,,,0,,,67,25
29219,note_on,59,0,1,,,,,,,,0,,,67,0
29220,note_on,1,0,1,,,,,,,,0,,,62,27
29279,note_on,59,0,1,,,,,,,,0,,,62,0
29279,note_on,119,0,4,,,,,,,,3,,,59,0
29280,note_on,0,0,4,,,,,,,,3,,,60,73
29280,control_change,1,0,4,,,,,,,,3,64,0,,
29280,note_on,1,0,1,,,,,,,,0,,,67,29
29339,note_on,59,0,1,,,,,,,,0,,,67,0
29340,note_on,1,0,1,,,,,,,,0,,,76,29
29399,note_on,59,0,1,,,,,,,,0,,,76,0
29400,note_on,1,0,1,,,,,,,,0,,,67,26
29459,note_on,59,0,1,,,,,,,,0,,,67,0
29460,note_on,1,0,1,,,,,,,,0,,,64,24
29519,note_on,59,0,1,,,,,,,,0,,,64,0
29520,note_on,1,0,1,,,,,,,,0,,,67,22
29579,note_on,59,0,1,,,,,,,,0,,,67,0
29580,note_on,1,0,1,,,,,,,,0,,,76,19
29639,note_on,59,0,1,,,,,,,,0,,,76,0
29640,note_on,1,0,1,,,,,,,,0,,,67,17
29699,note_on,59,0,1,,,,,,,,0,,,67,0
29700,note_on,1,0,1,,,,,,,,0,,,64,15
29712,note_on,432,0,4,,,,,,,,3,,,60,0
29730,set_tempo,2884,1,0,,,,,,1140684,,,,,,
29754,note_on,54,0,1,,,,,,,,0,,,64,0
29760,control_change,48,0,4,,,,,,,,3,64,127,,
29760,note_on,0,0,4,,,,,,,,3,,,45,64
29760,note_on,6,0,1,,,,,,,,0,,,72,12
29760,note_on,0,0,2,,,,,,,,1,,,64,16
29760,control_change,29760,0,2,,,,,,,,1,64,127,,
29760,note_on,0,0,4,,,,,,,,3,,,33,64
29811,control_change,51,0,1,,,,,,,,0,64,127,,
29819,note_on,59,0,2,,,,,,,,1,,,64,0
29820,note_on,1,0,2,,,,,,,,1,,,67,15
29879,note_on,59,0,2,,,,,,,,1,,,67,0
29880,note_on,1,0,2,,,,,,,,1,,,64,16
29939,note_on,59,0,2,,,,,,,,1,,,64,0
29940,note_on,1,0,2,,,,,,,,1,,,60,17
29999,note_on,59,0,2,,,,,,,,1,,,60,0
30000,note_on,1,0,2,,,,,,,,1,,,64,18
30059,note_on,59,0,2,,,,,,,,1,,,64,0
30060,note_on,1,0,2,,,,,,,,1,,,69,18
30119,note_on,59,0,2,,,,,,,,1,,,69,0
30120,note_on,1,0,2,,,,,,,,1,,,64,19
30179,note_on,59,0,2,,,,,,,,1,,,64,0
30180,note_on,1,0,2,,,,,,,,1,,,60,20
30239,note_on,428,0,1,,,,,,,,0,,,72,0
30239,note_on,59,0,2,,,,,,,,1,,,60,0
30240,note_on,1,0,1,,,,,,,,0,,,72,61
30240,note_on,1,0,2,,,,,,,,1,,,64,21
30299,note_on,59,0,2,,,,,,,,1,,,64,0
30300,note_on,1,0,2,,,,,,,,1,,,69,22
30359,note_on,599,0,4,,,,,,,,3,,,45,0
30359,note_on,0,0,4,,,,,,,,3,,,33,0
30359,note_on,59,0,2,,,,,,,,1,,,69,0
30360,note_on,0,0,4,,,,,,,,3,,,47,53
30360,note_on,1,0,2,,,,,,,,1,,,64,23
30360,note_on,1,0,4,,,,,,,,3,,,35,53
30419,note_on,59,0,2,,,,,,,,1,,,64,0
30419,note_on,0,0,4,,,,,,,,3,,,35,0
30419,note_on,59,0,4,,,,,,,,3,,,47,0
30420,note_on,1,0,2,,,,,,,,1,,,60,24
30463,control_change,44,0,4,,,,,,,,3,64,0,,
30479,note_on,239,0,1,,,,,,,,0,,,72,0
30479,note_on,59,0,2,,,,,,,,1,,,60,0
30480,note_on,1,0,2,,,,,,,,1,,,64,25
30480,note_on,1,0,1,,,,,,,,0,,,72,69
30480,note_on,17,0,4,,,,,,,,3,,,36,56
30480,note_on,0,0,4,,,,,,,,3,,,48,56
30539,note_on,0,0,4,,,,,,,,3,,,36,0
30539,note_on,59,0,2,,,,,,,,1,,,64,0
30539,note_on,59,0,4,,,,,,,,3,,,48,0
30540,note_on,1,0,2,,,,,,,,1,,,69,26
30599,note_on,59,0,2,,,,,,,,1,,,69,0
30600,note_on,1,0,2,,,,,,,,1,,,64,28
30600,note_on,61,0,4,,,,,,,,3,,,38,59
30600,note_on,0,0,4,,,,,,,,3,,,50,59
30654,note_on,0,0,4,,,,,,,,3,,,38,0
30654,note_on,54,0,4,,,,,,,,3,,,50,0
30659,note_on,59,0,2,,,,,,,,1,,,64,0
30660,note_on,1,0,2,,,,,,,,1,,,60,28
30696,note_on,216,0,1,,,,,,,,0,,,72,0
30714,note_on,54,0,2,,,,,,,,1,,,60,0
30720,note_on,0,0,2,,,,,,,,1,,,64,28
30720,control_change,0,0,2,,,,,,,,1,64,127,,
30720,control_change,6,0,2,,,,,,,,1,64,0,,
30720,note_on,24,0,1,,,,,,,,0,,,71,74
30720,note_on,0,0,4,,,,,,,,3,,,40,61
30720,note_on,66,0,4,,,,,,,,3,,,52,61
30747,control_change,27,0,4,,,,,,,,3,64,127,,
30771,control_change,51,0,1,,,,,,,,0,64,0,,
30779,note_on,59,0,2,,,,,,,,1,,,64,0
30780,note_on,1,0,2,,,,,,,,1,,,68,28
30787,control_change,16,0,1,,,,,,,,0,64,127,,
30787,control_change,2947,0,3,,,,,,,,2,64,127,,
30839,note_on,59,0,2,,,,,,,,1,,,68,0
30840,note_on,1,0,2,,,,,,,,1,,,64,28
30899,note_on,59,0,2,,,,,,,,1,,,64,0
30900,note_on,1,0,2,,,,,,,,1,,,59,27
30959,note_on,172,0,1,,,,,,,,0,,,71,0
30959,note_on,59,0,2,,,,,,,,1,,,59,0
30960,note_on,0,0,3,,,,,,,,2,,,80,43
30960,note_on,173,0,3,,,,,,,,2,,,88,43
30960,note_on,0,0,3,,,,,,,,2,,,83,43
30960,note_on,1,0,1,,,,,,,,0,,,76,79
30960,note_on,1,0,2,,,,,,,,1,,,68,27
31019,note_on,59,0,2,,,,,,,,1,,,68,0
31020,note_on,1,0,2,,,,,,,,1,,,71,27
31079,note_on,59,0,2,,,,,,,,1,,,71,0
31080,note_on,1,0,2,,,,,,,,1,,,68,27
31139,note_on,59,0,2,,,,,,,,1,,,68,0
31140,note_on,1,0,2,,,,,,,,1,,,64,26
31199,note_on,239,0,3,,,,,,,,2,,,80,0
31199,note_on,0,0,3,,,,,,,,2,,,83,0
31199,note_on,0,0,3,,,,,,,,2,,,88,0
31199,note_on,59,0,2,,,,,,,,1,,,64,0
31199,note_on,239,0,1,,,,,,,,0,,,76,0
31200,note_on,0,0,3,,,,,,,,2,,,76,33
31200,note_on,0,0,3,,,,,,,,2,,,80,33
31200,note_on,1,0,2,,,,,,,,1,,,64,26
31200,note_on,1,0,1,,,,,,,,0,,,71,83
31200,note_on,1,0,3,,,,,,,,2,,,83,33
31259,note_on,59,0,2,,,,,,,,1,,,64,0
31260,note_on,1,0,2,,,,,,,,1,,,68,26
31319,note_on,59,0,2,,,,,,,,1,,,68,0
31320,note_on,1,0,2,,,,,,,,1,,,64,26
31379,note_on,59,0,2,,,,,,,,1,,,64,0
31380,note_on,1,0,2,,,,,,,,1,,,59,26
31439,note_on,59,0,2,,,,,,,,1,,,59,0
31440,note_on,1,0,2,,,,,,,,1,,,64,25
31499,note_on,59,0,2,,,,,,,,1,,,64,0
31500,note_on,1,0,2,,,,,,,,1,,,68,25
31559,note_on,359,0,1,,,,,,,,0,,,71,0
31559,note_on,59,0,2,,,,,,,,1,,,68,0
31560,note_on,1,0,1,,,,,,,,0,,,71,73
31560,note_on,1,0,2,,,,,,,,1,,,64,25
31584,note_on,0,0,4,,,,,,,,3,,,52,0
31584,note_on,837,0,4,,,,,,,,3,,,40,0
31619,note_on,59,0,2,,,,,,,,1,,,64,0
31620,note_on,1,0,2,,,,,,,,1,,,59,25
31632,note_on,432,0,3,,,,,,,,2,,,76,0
31632,note_on,0,0,3,,,,,,,,2,,,80,0
31632,note_on,0,0,3,,,,,,,,2,,,83,0
31640,control_change,80,0,1,,,,,,,,0,64,0,,
31668,note_on,28,0,1,,,,,,,,0,,,71,0
31674,note_on,54,0,2,,,,,,,,1,,,59,0
31680,control_change,6,0,2,,,,,,,,1,64,0,,
31680,note_on,0,0,2,,,,,,,,1,,,64,25
31680,note_on,12,0,1,,,,,,,,0,,,71,76
31680,control_change,96,0,4,,,,,,,,3,64,127,,
31680,note_on,0,0,4,,,,,,,,3,,,40,64
31680,note_on,0,0,4,,,,,,,,3,,,47,64
31680,note_on,0,0,4,,,,,,,,3,,,55,64
31680,control_change,0,0,2,,,,,,,,1,64,127,,
31707,control_change,27,0,4,,,,,,,,3,64,0,,
31720,control_change,40,0,1,,,,,,,,0,64,127,,
31739,note_on,59,0,2,,,,,,,,1,,,64,0
31740,note_on,1,0,2,,,,,,,,1,,,67,16
31747,control_change,115,0,3,,,,,,,,2,64,0,,
31799,note_on,59,0,2,,,,,,,,1,,,67,0
31800,note_on,1,0,2,,,,,,,,1,,,64,16
31859,note_on,59,0,2,,,,,,,,1,,,64,0
31860,note_on,1,0,2,,,,,,,,1,,,59,16
31919,note_on,59,0,2,,,,,,,,1,,,59,0
31920,note_on,1,0,2,,,,,,,,1,,,64,16
31979,note_on,59,0,2,,,,,,,,1,,,64,0
31980,note_on,1,0,2,,,,,,,,1,,,67,16
32039,note_on,59,0,2,,,,,,,,1,,,67,0
32040,note_on,1,0,2,,,,,,,,1,,,64,16
32099,note_on,59,0,2,,,,,,,,1,,,64,0
32100,note_on,1,0,2,,,,,,,,1,,,59,16
32159,note_on,439,0,1,,,,,,,,0,,,71,0
32159,note_on,59,0,2,,,,,,,,1,,,59,0
32160,note_on,1,0,2,,,,,,,,1,,,64,16
32160,note_on,1,0,1,,,,,,,,0,,,71,86
32219,note_on,59,0,2,,,,,,,,1,,,64,0
32220,note_on,1,0,2,,,,,,,,1,,,67,17
32279,note_on,59,0,2,,,,,,,,1,,,67,0
32280,note_on,1,0,2,,,,,,,,1,,,64,18
32339,note_on,59,0,2,,,,,,,,1,,,64,0
32340,note_on,1,0,2,,,,,,,,1,,,59,19
32399,note_on,692,0,4,,,,,,,,3,,,55,0
32399,note_on,0,0,4,,,,,,,,3,,,47,0
32399,note_on,0,0,4,,,,,,,,3,,,40,0
32399,note_on,239,0,1,,,,,,,,0,,,71,0
32399,note_on,59,0,2,,,,,,,,1,,,59,0
32400,note_on,0,0,4,,,,,,,,3,,,58,64
32400,note_on,0,0,4,,,,,,,,3,,,49,64
32400,note_on,1,0,4,,,,,,,,3,,,43,64
32400,note_on,1,0,2,,,,,,,,1,,,64,20
32400,note_on,1,0,1,,,,,,,,0,,,73,84
32459,note_on,59,0,2,,,,,,,,1,,,64,0
32460,note_on,1,0,2,,,,,,,,1,,,70,21
32519,note_on,59,0,2,,,,,,,,1,,,70,0
32520,note_on,1,0,2,,,,,,,,1,,,64,21
32579,note_on,59,0,2,,,,,,,,1,,,64,0
32580,note_on,1,0,2,,,,,,,,1,,,61,22
32616,note_on,216,0,1,,,,,,,,0,,,73,0
32616,note_on,0,0,4,,,,,,,,3,,,49,0
32616,note_on,0,0,4,,,,,,,,3,,,43,0
32616,note_on,216,0,4,,,,,,,,3,,,58,0
32634,note_on,54,0,2,,,,,,,,1,,,61,0
32640,note_on,24,0,1,,,,,,,,0,,,74,82
32640,control_change,24,0,4,,,,,,,,3,64,0,,
32640,control_change,0,0,4,,,,,,,,3,64,127,,
32640,note_on,0,0,4,,,,,,,,3,,,38,62
32640,note_on,0,0,2,,,,,,,,1,,,67,23
32640,control_change,0,0,2,,,,,,,,1,64,127,,
32640,control_change,6,0,2,,,,,,,,1,64,0,,
32680,note_on,40,0,4,,,,,,,,3,,,50,66
32680,control_change,40,0,1,,,,,,,,0,64,0,,
32693,control_change,13,0,1,,,,,,,,0,64,127,,
32699,note_on,59,0,2,,,,,,,,1,,,67,0
32700,note_on,1,0,2,,,,,,,,1,,,70,24
32720,note_on,40,0,4,,,,,,,,3,,,58,70
32759,note_on,59,0,2,,,,,,,,1,,,70,0
32760,note_on,1,0,2,,,,,,,,1,,,67,25
32819,note_on,59,0,2,,,,,,,,1,,,67,0
32820,note_on,1,0,2,,,,,,,,1,,,62,26
32879,note_on,59,0,2,,,,,,,,1,,,62,0
32880,note_on,1,0,2,,,,,,,,1,,,67,27
32939,note_on,59,0,2,,,,,,,,1,,,67,0
32940,note_on,1,0,2,,,,,,,,1,,,70,28
32999,note_on,59,0,2,,,,,,,,1,,,70,0
33000,note_on,1,0,2,,,,,,,,1,,,67,29
33059,note_on,59,0,2,,,,,,,,1,,,67,0
33060,note_on,1,0,2,,,,,,,,1,,,62,30
33072,note_on,379,0,1,,,,,,,,0,,,74,0
33119,note_on,0,0,4,,,,,,,,3,,,50,0
33119,note_on,59,0,2,,,,,,,,1,,,62,0
33119,note_on,399,0,4,,,,,,,,3,,,58,0
33120,note_on,1,0,4,,,,,,,,3,,,57,64
33120,note_on,1,0,2,,,,,,,,1,,,66,31
33179,note_on,59,0,2,,,,,,,,1,,,66,0
33180,note_on,1,0,2,,,,,,,,1,,,69,31
33239,note_on,59,0,2,,,,,,,,1,,,69,0
33240,note_on,1,0,2,,,,,,,,1,,,66,30
33299,note_on,59,0,2,,,,,,,,1,,,66,0
33300,note_on,1,0,2,,,,,,,,1,,,62,30
33359,note_on,239,0,4,,,,,,,,3,,,57,0
33359,note_on,59,0,2,,,,,,,,1,,,62,0
33360,note_on,1,0,2,,,,,,,,1,,,66,29
33419,note_on,59,0,2,,,,,,,,1,,,66,0
33420,note_on,1,0,2,,,,,,,,1,,,69,28
33453,control_change,33,0,2,,,,,,,,1,64,0,,
33479,note_on,26,0,2,,,,,,,,1,,,69,0
33479,note_on,120,0,4,,,,,,,,3,,,38,0
33480,note_on,1,0,4,,,,,,,,3,,,40,53
33480,note_on,1,0,2,,,,,,,,1,,,66,27
33533,control_change,461,0,1,,,,,,,,0,64,0,,
33539,note_on,59,0,2,,,,,,,,1,,,66,0
33540,note_on,1,0,2,,,,,,,,1,,,62,27
33560,control_change,20,0,2,,,,,,,,1,64,127,,
33588,note_on,108,0,4,,,,,,,,3,,,40,0
33594,note_on,34,0,2,,,,,,,,1,,,62,0
33600,note_on,0,0,4,,,,,,,,3,,,29,64
33600,control_change,67,0,1,,,,,,,,0,64,127,,
33600,note_on,0,0,4,,,,,,,,3,,,41,64
33600,control_change,12,0,4,,,,,,,,3,64,0,,
33600,note_on,0,0,1,,,,,,,,0,,,69,57
33600,note_on,6,0,2,,,,,,,,1,,,60,26
33645,control_change,45,0,4,,,,,,,,3,64,127,,
33659,note_on,59,0,2,,,,,,,,1,,,60,0
33660,note_on,1,0,2,,,,,,,,1,,,65,25
33719,note_on,59,0,2,,,,,,,,1,,,65,0
33720,note_on,1,0,2,,,,,,,,1,,,60,24
33779,note_on,59,0,2,,,,,,,,1,,,60,0
33780,note_on,1,0,2,,,,,,,,1,,,57,24
33839,note_on,59,0,2,,,,,,,,1,,,57,0
33840,note_on,1,0,2,,,,,,,,1,,,60,23
33899,note_on,59,0,2,,,,,,,,1,,,60,0
33900,note_on,1,0,2,,,,,,,,1,,,65,22
33959,note_on,59,0,2,,,,,,,,1,,,65,0
33960,note_on,1,0,2,,,,,,,,1,,,60,21
34019,note_on,59,0,2,,,,,,,,1,,,60,0
34020,note_on,1,0,2,,,,,,,,1,,,57,20
34079,note_on,479,0,1,,,,,,,,0,,,69,0
34079,note_on,59,0,2,,,,,,,,1,,,57,0
34080,note_on,1,0,1,,,,,,,,0,,,69,61
34080,note_on,1,0,2,,,,,,,,1,,,60,20
34139,note_on,59,0,2,,,,,,,,1,,,60,0
34140,note_on,1,0,2,,,,,,,,1,,,65,17
34199,note_on,0,0,4,,,,,,,,3,,,29,0
34199,note_on,59,0,2,,,,,,,,1,,,65,0
34199,note_on,554,0,4,,,,,,,,3,,,41,0
34200,note_on,1,0,2,,,,,,,,1,,,60,17
34200,note_on,1,0,4,,,,,,,,3,,,31,46
34200,note_on,0,0,4,,,,,,,,3,,,43,46
34245,control_change,45,0,4,,,,,,,,3,64,0,,
34259,note_on,59,0,2,,,,,,,,1,,,60,0
34259,note_on,0,0,4,,,,,,,,3,,,31,0
34259,note_on,14,0,4,,,,,,,,3,,,43,0
34260,note_on,1,0,2,,,,,,,,1,,,57,17
34319,note_on,59,0,2,,,,,,,,1,,,57,0
34319,note_on,239,0,1,,,,,,,,0,,,69,0
34320,note_on,61,0,4,,,,,,,,3,,,33,51
34320,note_on,1,0,2,,,,,,,,1,,,60,22
34320,note_on,0,0,4,,,,,,,,3,,,45,51
34320,note_on,1,0,1,,,,,,,,0,,,69,63
34379,note_on,59,0,4,,,,,,,,3,,,45,0
34379,note_on,0,0,4,,,,,,,,3,,,33,0
34379,note_on,59,0,2,,,,,,,,1,,,60,0
34380,note_on,1,0,2,,,,,,,,1,,,65,22
34439,note_on,59,0,2,,,,,,,,1,,,65,0
34440,note_on,0,0,4,,,,,,,,3,,,47,56
34440,note_on,61,0,4,,,,,,,,3,,,35,56
34440,note_on,1,0,2,,,,,,,,1,,,60,22
34494,note_on,0,0,4,,,,,,,,3,,,35,0
34494,note_on,54,0,4,,,,,,,,3,,,47,0
34499,note_on,59,0,2,,,,,,,,1,,,60,0
34500,note_on,1,0,2,,,,,,,,1,,,57,23
34520,control_change,20,0,2,,,,,,,,1,64,0,,
34536,note_on,216,0,1,,,,,,,,0,,,69,0
34554,note_on,34,0,2,,,,,,,,1,,,57,0
34560,note_on,66,0,4,,,,,,,,3,,,36,61
34560,note_on,0,0,1,,,,,,,,0,,,67,64
34560,control_change,24,0,1,,,,,,,,0,64,0,,
34560,note_on,6,0,2,,,,,,,,1,,,60,23
34560,note_on,0,0,4,,,,,,,,3,,,48,61
34611,control_change,51,0,1,,,,,,,,0,64,127,,
34619,note_on,59,0,2,,,,,,,,1,,,60,0
34620,note_on,1,0,2,,,,,,,,1,,,64,24
34646,control_change,26,0,2,,,,,,,,1,64,127,,
34646,control_change,2899,0,3,,,,,,,,2,64,127,,
34663,control_change,103,0,4,,,,,,,,3,64,127,,
34679,note_on,33,0,2,,,,,,,,1,,,64,0
34680,note_on,1,0,2,,,,,,,,1,,,60,24
34739,note_on,59,0,2,,,,,,,,1,,,60,0
34740,note_on,1,0,2,,,,,,,,1,,,55,24
34799,note_on,59,0,2,,,,,,,,1,,,55,0
34799,note_on,188,0,1,,,,,,,,0,,,67,0
34800,note_on,1,0,1,,,,,,,,0,,,72,66
34800,note_on,0,0,3,,,,,,,,2,,,79,38
34800,note_on,1,0,2,,,,,,,,1,,,64,25
34800,note_on,154,0,3,,,,,,,,2,,,84,38
34800,note_on,0,0,3,,,,,,,,2,,,76,38
34859,note_on,59,0,2,,,,,,,,1,,,64,0
34860,note_on,1,0,2,,,,,,,,1,,,67,25
34919,note_on,59,0,2,,,,,,,,1,,,67,0
34920,note_on,1,0,2,,,,,,,,1,,,64,26
34979,note_on,59,0,2,,,,,,,,1,,,64,0
34980,note_on,1,0,2,,,,,,,,1,,,60,26
35039,note_on,239,0,1,,,,,,,,0,,,72,0
35039,note_on,239,0,3,,,,,,,,2,,,76,0
35039,note_on,0,0,3,,,,,,,,2,,,84,0
35039,note_on,59,0,2,,,,,,,,1,,,60,0
35039,note_on,0,0,3,,,,,,,,2,,,79,0
35040,note_on,0,0,3,,,,,,,,2,,,72,33
35040,note_on,1,0,2,,,,,,,,1,,,60,26
35040,note_on,1,0,1,,,,,,,,0,,,67,67
35040,note_on,1,0,3,,,,,,,,2,,,79,33
35040,note_on,0,0,3,,,,,,,,2,,,76,33
35099,note_on,59,0,2,,,,,,,,1,,,60,0
35100,note_on,1,0,2,,,,,,,,1,,,64,27
35159,note_on,59,0,2,,,,,,,,1,,,64,0
35160,note_on,1,0,2,,,,,,,,1,,,60,27
35219,note_on,59,0,2,,,,,,,,1,,,60,0
35220,note_on,1,0,2,,,,,,,,1,,,55,28
35279,note_on,59,0,2,,,,,,,,1,,,55,0
35280,note_on,1,0,2,,,,,,,,1,,,60,28
35314,control_change,274,0,3,,,,,,,,2,64,0,,
35339,note_on,59,0,2,,,,,,,,1,,,60,0
35340,note_on,1,0,2,,,,,,,,1,,,64,28
35399,note_on,359,0,1,,,,,,,,0,,,67,0
35399,note_on,59,0,2,,,,,,,,1,,,64,0
35400,note_on,1,0,1,,,,,,,,0,,,67,64
35400,note_on,1,0,2,,,,,,,,1,,,60,18
35424,note_on,761,0,4,,,,,,,,3,,,48,0
35424,note_on,0,0,4,,,,,,,,3,,,36,0
35459,note_on,59,0,2,,,,,,,,1,,,60,0
35460,note_on,1,0,2,,,,,,,,1,,,55,58
35472,note_on,0,0,3,,,,,,,,2,,,79,0
35472,note_on,0,0,3,,,,,,,,2,,,76,0
35472,note_on,158,0,3,,,,,,,,2,,,72,0
35508,note_on,108,0,1,,,,,,,,0,,,67,0
35514,note_on,54,0,2,,,,,,,,1,,,55,0
35520,note_on,12,0,1,,,,,,,,0,,,67,69
35520,note_on,96,0,4,,,,,,,,3,,,36,64
35520,note_on,6,0,2,,,,,,,,1,,,60,55
35520,note_on,48,0,3,,,,,,,,2,,,52,64
35547,control_change,27,0,3,,,,,,,,2,64,127,,
35579,note_on,59,0,2,,,,,,,,1,,,60,0
35580,note_on,1,0,2,,,,,,,,1,,,64,52
35639,note_on,59,0,2,,,,,,,,1,,,64,0
35640,note_on,1,0,2,,,,,,,,1,,,60,49
35699,note_on,59,0,2,,,,,,,,1,,,60,0
35700,note_on,1,0,2,,,,,,,,1,,,55,47
35759,note_on,59,0,2,,,,,,,,1,,,55,0
35760,note_on,1,0,2,,,,,,,,1,,,60,44
35819,note_on,59,0,2,,,,,,,,1,,,60,0
35820,note_on,1,0,2,,,,,,,,1,,,64,41
35879,note_on,59,0,2,,,,,,,,1,,,64,0
35880,note_on,1,0,2,,,,,,,,1,,,60,39
35939,note_on,59,0,2,,,,,,,,1,,,60,0
35940,note_on,1,0,2,,,,,,,,1,,,55,36
35999,note_on,59,0,2,,,,,,,,1,,,55,0
36000,note_on,1,0,2,,,,,,,,1,,,60,33
36059,note_on,59,0,2,,,,,,,,1,,,60,0
36060,note_on,1,0,2,,,,,,,,1,,,64,30
36119,note_on,59,0,2,,,,,,,,1,,,64,0
36119,note_on,572,0,3,,,,,,,,2,,,52,0
36120,note_on,1,0,2,,,,,,,,1,,,60,28
36120,note_on,1,0,3,,,,,,,,2,,,48,64
36179,note_on,59,0,2,,,,,,,,1,,,60,0
36180,note_on,1,0,2,,,,,,,,1,,,55,25
36239,note_on,119,0,3,,,,,,,,2,,,48,0
36239,note_on,59,0,2,,,,,,,,1,,,55,0
36239,note_on,719,0,4,,,,,,,,3,,,36,0
36239,note_on,719,0,1,,,,,,,,0,,,67,0
36240,note_on,1,0,3,,,,,,,,2,,,40,61
36240,note_on,1,0,4,,,,,,,,3,,,36,64
36240,note_on,1,0,1,,,,,,,,0,,,72,68
36240,note_on,1,0,2,,,,,,,,1,,,60,22
36299,note_on,59,0,2,,,,,,,,1,,,60,0
36300,note_on,1,0,2,,,,,,,,1,,,64,24
36359,note_on,59,0,2,,,,,,,,1,,,64,0
36359,note_on,119,0,3,,,,,,,,2,,,40,0
36360,note_on,1,0,2,,,,,,,,1,,,60,37
36360,note_on,1,0,3,,,,,,,,2,,,42,58
36419,note_on,59,0,2,,,,,,,,1,,,60,0
36420,note_on,1,0,2,,,,,,,,1,,,55,50
36456,note_on,216,0,4,,,,,,,,3,,,36,0
36456,note_on,216,0,1,,,,,,,,0,,,72,0
36458,set_tempo,6728,1,0,,,,,,1307759,,,,,,
36468,note_on,108,0,3,,,,,,,,2,,,42,0
36474,note_on,54,0,2,,,,,,,,1,,,55,0
36480,note_on,24,0,4,,,,,,,,3,,,35,64
36480,note_on,6,0,2,,,,,,,,1,,,64,16
36480,note_on,24,0,1,,,,,,,,0,,,71,76
36480,note_on,12,0,3,,,,,,,,2,,,43,55
36507,control_change,27,0,3,,,,,,,,2,64,0,,
36539,note_on,59,0,2,,,,,,,,1,,,64,0
36540,note_on,1,0,2,,,,,,,,1,,,67,21
36599,note_on,59,0,2,,,,,,,,1,,,67,0
36600,note_on,1,0,2,,,,,,,,1,,,64,27
36659,note_on,59,0,2,,,,,,,,1,,,64,0
36660,note_on,1,0,2,,,,,,,,1,,,59,33
36719,note_on,59,0,2,,,,,,,,1,,,59,0
36720,note_on,1,0,2,,,,,,,,1,,,64,38
36779,note_on,59,0,2,,,,,,,,1,,,64,0
36780,note_on,1,0,2,,,,,,,,1,,,67,44
36839,note_on,59,0,2,,,,,,,,1,,,67,0
36839,note_on,332,0,3,,,,,,,,2,,,43,0
36840,note_on,1,0,3,,,,,,,,2,,,45,64
36840,note_on,1,0,2,,,,,,,,1,,,64,50
36899,note_on,59,0,2,,,,,,,,1,,,64,0
36900,note_on,1,0,2,,,,,,,,1,,,59,56
36904,control_change,424,0,4,,,,,,,,3,64,0,,
36912,note_on,432,0,1,,,,,,,,0,,,71,0
36928,control_change,28,0,2,,,,,,,,1,64,0,,
36952,control_change,40,0,1,,,,,,,,0,64,0,,
36959,note_on,119,0,3,,,,,,,,2,,,45,0
36959,note_on,31,0,2,,,,,,,,1,,,59,0
36960,note_on,1,0,3,,,,,,,,2,,,47,64
36960,note_on,1,0,2,,,,,,,,1,,,63,55
37019,note_on,59,0,2,,,,,,,,1,,,63,0
37020,note_on,1,0,2,,,,,,,,1,,,66,43
37079,note_on,59,0,2,,,,,,,,1,,,66,0
37080,note_on,1,0,2,,,,,,,,1,,,63,30
37139,note_on,59,0,2,,,,,,,,1,,,63,0
37140,note_on,1,0,2,,,,,,,,1,,,59,17
37199,note_on,59,0,2,,,,,,,,1,,,59,0
37200,note_on,1,0,2,,,,,,,,1,,,63,18
37259,note_on,59,0,2,,,,,,,,1,,,63,0
37260,note_on,1,0,2,,,,,,,,1,,,66,18
37319,note_on,59,0,2,,,,,,,,1,,,66,0
37320,note_on,1,0,2,,,,,,,,1,,,63,18
37344,note_on,440,0,4,,,,,,,,3,,,35,0
37379,note_on,59,0,2,,,,,,,,1,,,63,0
37380,note_on,1,0,2,,,,,,,,1,,,59,18
37392,note_on,432,0,3,,,,,,,,2,,,47,0
37434,note_on,54,0,2,,,,,,,,1,,,59,0
37440,control_change,48,0,3,,,,,,,,2,64,127,,
37440,note_on,0,0,3,,,,,,,,2,,,47,20
37440,control_change,6,0,2,,,,,,,,1,64,127,,
37440,note_on,0,0,2,,,,,,,,1,,,75,20
37440,control_change,96,0,4,,,,,,,,3,64,127,,
37440,note_on,0,0,4,,,,,,,,3,,,47,64
37440,note_on,0,0,1,,,,,,,,0,,,75,97
37440,control_change,488,0,1,,,,,,,,0,64,127,,
37451,set_tempo,993,1,0,,,,,,1307759,,,,,,
37484,set_tempo,33,1,0,,,,,,1294219,,,,,,
37499,note_on,59,0,2,,,,,,,,1,,,75,0
37499,note_on,59,0,3,,,,,,,,2,,,47,0
37500,note_on,1,0,2,,,,,,,,1,,,66,24
37500,note_on,1,0,3,,,,,,,,2,,,54,23
37500,set_tempo,16,1,0,,,,,,1280956,,,,,,
37517,set_tempo,17,1,0,,,,,,1267963,,,,,,
37550,set_tempo,33,1,0,,,,,,1255230,,,,,,
37559,note_on,59,0,2,,,,,,,,1,,,66,0
37559,note_on,59,0,3,,,,,,,,2,,,54,0
37560,note_on,1,0,3,,,,,,,,2,,,59,27
37560,note_on,1,0,2,,,,,,,,1,,,63,28
37567,set_tempo,17,1,0,,,,,,1242751,,,,,,
37583,set_tempo,16,1,0,,,,,,1230517,,,,,,
37616,set_tempo,33,1,0,,,,,,1218522,,,,,,
37619,note_on,59,0,3,,,,,,,,2,,,59,0
37619,note_on,59,0,2,,,,,,,,1,,,63,0
37620,note_on,1,0,2,,,,,,,,1,,,66,33
37620,note_on,1,0,3,,,,,,,,2,,,54,31
37633,set_tempo,17,1,0,,,,,,1206758,,,,,,
37649,set_tempo,16,1,0,,,,,,1195219,,,,,,
37679,note_on,239,0,1,,,,,,,,0,,,75,0
37679,note_on,59,0,3,,,,,,,,2,,,54,0
37679,note_on,59,0,2,,,,,,,,1,,,66,0
37680,note_on,1,0,2,,,,,,,,1,,,63,37
37680,note_on,1,0,1,,,,,,,,0,,,73,90
37680,note_on,1,0,3,,,,,,,,2,,,59,35
37682,set_tempo,33,1,0,,,,,,1183899,,,,,,
37699,set_tempo,17,1,0,,,,,,1172791,,,,,,
37716,set_tempo,17,1,0,,,,,,1161890,,,,,,
37739,note_on,59,0,3,,,,,,,,2,,,59,0
37739,note_on,59,0,2,,,,,,,,1,,,63,0
37740,note_on,1,0,2,,,,,,,,1,,,66,41
37740,note_on,1,0,3,,,,,,,,2,,,54,39
37749,set_tempo,33,1,0,,,,,,1151190,,,,,,
37765,set_tempo,16,1,0,,,,,,1140684,,,,,,
37782,set_tempo,17,1,0,,,,,,1130369,,,,,,
37799,note_on,59,0,2,,,,,,,,1,,,66,0
37799,note_on,59,0,3,,,,,,,,2,,,54,0
37799,note_on,119,0,1,,,,,,,,0,,,73,0
37800,note_on,1,0,2,,,,,,,,1,,,63,45
37800,note_on,1,0,3,,,,,,,,2,,,59,42
37800,note_on,1,0,1,,,,,,,,0,,,71,87
37815,set_tempo,33,1,0,,,,,,1120239,,,,,,
37831,set_tempo,16,1,0,,,,,,1110289,,,,,,
37848,set_tempo,17,1,0,,,,,,1100514,,,,,,
37859,note_on,59,0,3,,,,,,,,2,,,59,0
37859,note_on,59,0,2,,,,,,,,1,,,63,0
37860,note_on,1,0,3,,,,,,,,2,,,54,46
37860,note_on,1,0,2,,,,,,,,1,,,66,49
37881,set_tempo,33,1,0,,,,,,1090909,,,,,,
37898,set_tempo,17,1,0,,,,,,1081471,,,,,,
37914,set_tempo,16,1,0,,,,,,1090909,,,,,,
37919,note_on,119,0,1,,,,,,,,0,,,71,0
37919,note_on,59,0,2,,,,,,,,1,,,66,0
37920,note_on,1,0,2,,,,,,,,1,,,71,54
37920,note_on,1,0,1,,,,,,,,0,,,71,84
37947,set_tempo,33,1,0,,,,,,1100514,,,,,,
37964,set_tempo,17,1,0,,,,,,1110289,,,,,,
37979,note_on,119,0,3,,,,,,,,2,,,54,0
37979,note_on,59,0,2,,,,,,,,1,,,71,0
37980,set_tempo,16,1,0,,,,,,1120239,,,,,,
37980,note_on,1,0,2,,,,,,,,1,,,63,58
37980,note_on,1,0,3,,,,,,,,2,,,54,54
38013,set_tempo,33,1,0,,,,,,1130369,,,,,,
38030,set_tempo,17,1,0,,,,,,1140684,,,,,,
38039,note_on,59,0,2,,,,,,,,1,,,63,0
38039,note_on,59,0,3,,,,,,,,2,,,54,0
38040,note_on,1,0,3,,,,,,,,2,,,47,54
38040,note_on,1,0,2,,,,,,,,1,,,59,48
38047,set_tempo,17,1,0,,,,,,1151190,,,,,,
38080,set_tempo,33,1,0,,,,,,1161890,,,,,,
38096,set_tempo,16,1,0,,,,,,1172791,,,,,,
38099,note_on,59,0,3,,,,,,,,2,,,47,0
38099,note_on,59,0,2,,,,,,,,1,,,59,0
38100,note_on,1,0,3,,,,,,,,2,,,54,51
38100,note_on,1,0,2,,,,,,,,1,,,63,60
38113,set_tempo,17,1,0,,,,,,1183899,,,,,,
38129,set_tempo,16,1,0,,,,,,1195219,,,,,,
38159,note_on,59,0,3,,,,,,,,2,,,54,0
38159,note_on,719,0,4,,,,,,,,3,,,47,0
38159,note_on,59,0,2,,,,,,,,1,,,63,0
38159,note_on,239,0,1,,,,,,,,0,,,71,0
38160,note_on,1,0,2,,,,,,,,1,,,59,56
38160,note_on,1,0,4,,,,,,,,3,,,51,64
38160,note_on,1,0,3,,,,,,,,2,,,51,48
38160,note_on,1,0,1,,,,,,,,0,,,66,81
38162,set_tempo,33,1,0,,,,,,1206758,,,,,,
38179,set_tempo,17,1,0,,,,,,1218522,,,,,,
38196,set_tempo,17,1,0,,,,,,1230517,,,,,,
38219,note_on,59,0,3,,,,,,,,2,,,51,0
38219,note_on,59,0,2,,,,,,,,1,,,59,0
38220,note_on,1,0,3,,,,,,,,2,,,54,45
38220,note_on,1,0,2,,,,,,,,1,,,63,51
38229,set_tempo,33,1,0,,,,,,1242751,,,,,,
38245,set_tempo,16,1,0,,,,,,1255230,,,,,,
38262,set_tempo,17,1,0,,,,,,1267963,,,,,,
38278,set_tempo,16,1,0,,,,,,1280956,,,,,,
38279,note_on,59,0,3,,,,,,,,2,,,54,0
38279,note_on,119,0,1,,,,,,,,0,,,66,0
38279,note_on,59,0,2,,,,,,,,1,,,63,0
38280,note_on,1,0,3,,,,,,,,2,,,51,42
38280,note_on,1,0,1,,,,,,,,0,,,71,82
38280,note_on,1,0,2,,,,,,,,1,,,59,47
38339,note_on,59,0,2,,,,,,,,1,,,59,0
38339,note_on,59,0,3,,,,,,,,2,,,51,0
38340,note_on,1,0,2,,,,,,,,1,,,63,42
38340,note_on,1,0,3,,,,,,,,2,,,54,38
38376,note_on,216,0,4,,,,,,,,3,,,51,0
38388,note_on,108,0,1,,,,,,,,0,,,71,0
38394,note_on,54,0,3,,,,,,,,2,,,54,0
38394,note_on,54,0,2,,,,,,,,1,,,63,0
38400,control_change,12,0,1,,,,,,,,0,64,0,,
38400,control_change,6,0,2,,,,,,,,1,64,0,,
38400,note_on,0,0,2,,,,,,,,1,,,59,37
38400,note_on,0,0,4,,,,,,,,3,,,52,64
38400,note_on,0,0,1,,,,,,,,0,,,70,82
38400,note_on,0,0,3,,,,,,,,2,,,52,35
38400,control_change,6,0,3,,,,,,,,2,64,0,,
38400,control_change,24,0,4,,,,,,,,3,64,0,,
38411,set_tempo,133,1,0,,,,,,1242751,,,,,,
38459,note_on,59,0,3,,,,,,,,2,,,52,0
38459,note_on,59,0,2,,,,,,,,1,,,59,0
38460,note_on,1,0,2,,,,,,,,1,,,64,33
38460,note_on,1,0,3,,,,,,,,2,,,56,32
38472,control_change,72,0,1,,,,,,,,0,64,127,,
38519,note_on,47,0,1,,,,,,,,0,,,70,0
38519,note_on,59,0,2,,,,,,,,1,,,64,0
38519,note_on,59,0,3,,,,,,,,2,,,56,0
38520,note_on,1,0,2,,,,,,,,1,,,59,28
38520,note_on,1,0,3,,,,,,,,2,,,52,29
38520,note_on,1,0,1,,,,,,,,0,,,68,78
38579,note_on,59,0,2,,,,,,,,1,,,59,0
38579,note_on,59,0,3,,,,,,,,2,,,52,0
38580,note_on,1,0,2,,,,,,,,1,,,64,24
38580,note_on,1,0,3,,,,,,,,2,,,56,26
38639,note_on,239,0,4,,,,,,,,3,,,52,0
38639,note_on,119,0,1,,,,,,,,0,,,68,0
38639,note_on,59,0,2,,,,,,,,1,,,64,0
38640,note_on,1,0,4,,,,,,,,3,,,51,57
38640,note_on,1,0,1,,,,,,,,0,,,73,82
38640,note_on,1,0,2,,,,,,,,1,,,66,19
38659,set_tempo,248,1,0,,,,,,1172791,,,,,,
38670,note_on,30,0,4,,,,,,,,3,,,55,59
38699,note_on,29,0,4,,,,,,,,3,,,55,0
38699,note_on,59,0,2,,,,,,,,1,,,66,0
38699,note_on,119,0,3,,,,,,,,2,,,56,0
38700,note_on,1,0,3,,,,,,,,2,,,60,20
38700,note_on,1,0,2,,,,,,,,1,,,68,19
38759,note_on,59,0,2,,,,,,,,1,,,68,0
38759,note_on,59,0,3,,,,,,,,2,,,60,0
38759,note_on,119,0,1,,,,,,,,0,,,73,0
38760,note_on,1,0,2,,,,,,,,1,,,66,19
38760,note_on,1,0,3,,,,,,,,2,,,56,20
38760,note_on,1,0,1,,,,,,,,0,,,72,87
38819,note_on,59,0,2,,,,,,,,1,,,66,0
38819,note_on,59,0,3,,,,,,,,2,,,56,0
38820,note_on,1,0,2,,,,,,,,1,,,68,19
38820,note_on,1,0,3,,,,,,,,2,,,60,20
38879,note_on,59,0,2,,,,,,,,1,,,68,0
38879,note_on,119,0,1,,,,,,,,0,,,72,0
38879,note_on,180,0,4,,,,,,,,3,,,51,0
38879,note_on,59,0,3,,,,,,,,2,,,60,0
38880,note_on,1,0,3,,,,,,,,2,,,56,20
38880,note_on,1,0,2,,,,,,,,1,,,64,19
38880,note_on,1,0,1,,,,,,,,0,,,75,91
38880,note_on,1,0,4,,,,,,,,3,,,49,64
38907,set_tempo,248,1,0,,,,,,1100514,,,,,,
38939,note_on,59,0,3,,,,,,,,2,,,56,0
38939,note_on,59,0,2,,,,,,,,1,,,64,0
38940,note_on,1,0,3,,,,,,,,2,,,61,20
38940,note_on,1,0,2,,,,,,,,1,,,68,19
38999,note_on,119,0,1,,,,,,,,0,,,75,0
38999,note_on,59,0,3,,,,,,,,2,,,61,0
38999,note_on,59,0,2,,,,,,,,1,,,68,0
39000,note_on,1,0,2,,,,,,,,1,,,64,19
39000,note_on,1,0,1,,,,,,,,0,,,73,83
39000,note_on,1,0,3,,,,,,,,2,,,56,20
39059,note_on,59,0,2,,,,,,,,1,,,64,0
39059,note_on,59,0,3,,,,,,,,2,,,56,0
39060,note_on,1,0,3,,,,,,,,2,,,61,20
39060,note_on,1,0,2,,,,,,,,1,,,68,19
39073,set_tempo,166,1,0,,,,,,1045296,,,,,,
39108,note_on,108,0,1,,,,,,,,0,,,73,0
39119,note_on,59,0,3,,,,,,,,2,,,61,0
39119,note_on,59,0,2,,,,,,,,1,,,68,0
39120,note_on,1,0,2,,,,,,,,1,,,64,19
39120,note_on,1,0,3,,,,,,,,2,,,56,20
39179,note_on,59,0,2,,,,,,,,1,,,64,0
39179,note_on,59,0,3,,,,,,,,2,,,56,0
39180,note_on,1,0,3,,,,,,,,2,,,61,20
39180,note_on,1,0,2,,,,,,,,1,,,68,19
39216,control_change,108,0,1,,,,,,,,0,64,0,,
39239,note_on,59,0,2,,,,,,,,1,,,68,0
39239,note_on,359,0,4,,,,,,,,3,,,49,0
39239,note_on,59,0,3,,,,,,,,2,,,61,0
39240,note_on,1,0,2,,,,,,,,1,,,64,19
39240,note_on,1,0,4,,,,,,,,3,,,51,64
39240,note_on,1,0,3,,,,,,,,2,,,56,20
39299,note_on,59,0,2,,,,,,,,1,,,64,0
39299,note_on,59,0,3,,,,,,,,2,,,56,0
39300,note_on,1,0,2,,,,,,,,1,,,68,19
39300,note_on,1,0,3,,,,,,,,2,,,61,20
39348,note_on,108,0,4,,,,,,,,3,,,51,0
39354,note_on,54,0,3,,,,,,,,2,,,61,0
39354,note_on,54,0,2,,,,,,,,1,,,68,0
39360,control_change,6,0,2,,,,,,,,1,64,127,,
39360,note_on,0,0,2,,,,,,,,1,,,73,19
39360,control_change,144,0,1,,,,,,,,0,64,127,,
39360,control_change,12,0,4,,,,,,,,3,64,127,,
39360,note_on,0,0,4,,,,,,,,3,,,52,64
39360,note_on,0,0,3,,,,,,,,2,,,52,20
39360,control_change,6,0,3,,,,,,,,2,64,127,,
39360,note_on,0,0,1,,,,,,,,0,,,73,76
39419,note_on,59,0,2,,,,,,,,1,,,73,0
39419,note_on,59,0,3,,,,,,,,2,,,52,0
39420,note_on,1,0,2,,,,,,,,1,,,68,20
39420,note_on,1,0,3,,,,,,,,2,,,56,22
39479,note_on,59,0,2,,,,,,,,1,,,68,0
39479,note_on,59,0,3,,,,,,,,2,,,56,0
39480,note_on,1,0,3,,,,,,,,2,,,61,27
39480,note_on,1,0,2,,,,,,,,1,,,64,26
39539,note_on,59,0,2,,,,,,,,1,,,64,0
39539,note_on,59,0,3,,,,,,,,2,,,61,0
39540,note_on,1,0,3,,,,,,,,2,,,56,31
39540,note_on,1,0,2,,,,,,,,1,,,68,32
39599,note_on,239,0,1,,,,,,,,0,,,73,0
39599,note_on,59,0,3,,,,,,,,2,,,56,0
39599,note_on,59,0,2,,,,,,,,1,,,68,0
39600,note_on,1,0,3,,,,,,,,2,,,61,36
39600,note_on,1,0,2,,,,,,,,1,,,64,38
39600,note_on,1,0,1,,,,,,,,0,,,73,83
39659,note_on,59,0,2,,,,,,,,1,,,64,0
39659,note_on,59,0,3,,,,,,,,2,,,61,0
39660,note_on,1,0,2,,,,,,,,1,,,68,44
39660,note_on,1,0,3,,,,,,,,2,,,56,41
39719,note_on,59,0,3,,,,,,,,2,,,56,0
39719,note_on,119,0,1,,,,,,,,0,,,73,0
39719,note_on,59,0,2,,,,,,,,1,,,68,0
39719,note_on,359,0,4,,,,,,,,3,,,52,0
39720,note_on,1,0,1,,,,,,,,0,,,75,87
39720,note_on,1,0,4,,,,,,,,3,,,48,64
39720,note_on,1,0,3,,,,,,,,2,,,63,46
39720,note_on,1,0,2,,,,,,,,1,,,66,50
39779,note_on,59,0,3,,,,,,,,2,,,63,0
39779,note_on,59,0,2,,,,,,,,1,,,66,0
39780,note_on,1,0,2,,,,,,,,1,,,68,56
39780,note_on,1,0,3,,,,,,,,2,,,56,51
39839,note_on,59,0,3,,,,,,,,2,,,56,0
39839,note_on,119,0,1,,,,,,,,0,,,75,0
39839,note_on,59,0,2,,,,,,,,1,,,68,0
39839,note_on,119,0,4,,,,,,,,3,,,48,0
39840,note_on,1,0,4,,,,,,,,3,,,49,64
39840,note_on,1,0,3,,,,,,,,2,,,49,56
39840,note_on,1,0,1,,,,,,,,0,,,76,90
39840,note_on,1,0,2,,,,,,,,1,,,76,62
39899,note_on,59,0,2,,,,,,,,1,,,76,0
39899,note_on,59,0,3,,,,,,,,2,,,49,0
39900,note_on,1,0,3,,,,,,,,2,,,56,60
39900,note_on,1,0,2,,,,,,,,1,,,68,59
39959,note_on,59,0,2,,,,,,,,1,,,68,0
39959,note_on,59,0,3,,,,,,,,2,,,56,0
39960,note_on,1,0,3,,,,,,,,2,,,64,55
39960,note_on,1,0,2,,,,,,,,1,,,61,55
40019,note_on,59,0,2,,,,,,,,1,,,61,0
40019,note_on,59,0,3,,,,,,,,2,,,64,0
40020,note_on,1,0,3,,,,,,,,2,,,56,51
40020,note_on,1,0,2,,,,,,,,1,,,68,50
40079,note_on,239,0,4,,,,,,,,3,,,49,0
40079,note_on,239,0,1,,,,,,,,0,,,76,0
40079,note_on,59,0,3,,,,,,,,2,,,56,0
40079,note_on,59,0,2,,,,,,,,1,,,68,0
40080,note_on,1,0,2,,,,,,,,1,,,75,45
40080,note_on,1,0,3,,,,,,,,2,,,52,46
40080,note_on,1,0,1,,,,,,,,0,,,75,93
40080,note_on,1,0,4,,,,,,,,3,,,52,64
40139,note_on,59,0,3,,,,,,,,2,,,52,0
40139,note_on,59,0,2,,,,,,,,1,,,75,0
40140,note_on,1,0,3,,,,,,,,2,,,56,42
40140,note_on,1,0,2,,,,,,,,1,,,68,40
40149,set_tempo,1076,1,0,,,,,,1100514,,,,,,
40199,note_on,119,0,1,,,,,,,,0,,,75,0
40199,note_on,59,0,2,,,,,,,,1,,,68,0
40199,note_on,59,0,3,,,,,,,,2,,,56,0
40200,note_on,1,0,1,,,,,,,,0,,,73,90
40200,note_on,1,0,2,,,,,,,,1,,,64,36
40200,note_on,1,0,3,,,,,,,,2,,,61,38
40259,note_on,59,0,2,,,,,,,,1,,,64,0
40259,note_on,59,0,3,,,,,,,,2,,,61,0
40260,note_on,1,0,2,,,,,,,,1,,,68,31
40260,note_on,1,0,3,,,,,,,,2,,,56,33
40296,note_on,216,0,4,,,,,,,,3,,,52,0
40308,note_on,108,0,1,,,,,,,,0,,,73,0
40314,set_tempo,165,1,0,,,,,,1230517,,,,,,
40314,note_on,54,0,2,,,,,,,,1,,,68,0
40314,note_on,54,0,3,,,,,,,,2,,,56,0
40320,control_change,6,0,3,,,,,,,,2,64,0,,
40320,control_change,12,0,1,,,,,,,,0,64,0,,
40320,note_on,0,0,1,,,,,,,,0,,,71,87
40320,note_on,0,0,4,,,,,,,,3,,,42,64
40320,control_change,24,0,4,,,,,,,,3,64,0,,
40320,control_change,6,0,2,,,,,,,,1,64,0,,
40320,note_on,0,0,2,,,,,,,,1,,,71,26
40320,note_on,0,0,3,,,,,,,,2,,,42,21
40379,note_on,59,0,3,,,,,,,,2,,,42,0
40379,note_on,59,0,2,,,,,,,,1,,,71,0
40380,note_on,1,0,2,,,,,,,,1,,,66,24
40380,note_on,1,0,3,,,,,,,,2,,,54,27
40439,note_on,59,0,3,,,,,,,,2,,,54,0
40439,note_on,59,0,2,,,,,,,,1,,,66,0
40440,note_on,1,0,3,,,,,,,,2,,,59,27
40440,note_on,1,0,2,,,,,,,,1,,,63,24
40464,control_change,144,0,1,,,,,,,,0,64,127,,
40499,note_on,59,0,3,,,,,,,,2,,,59,0
40499,note_on,59,0,2,,,,,,,,1,,,63,0
40500,note_on,1,0,2,,,,,,,,1,,,66,24
40500,note_on,1,0,3,,,,,,,,2,,,54,27
40559,note_on,95,0,1,,,,,,,,0,,,71,0
40559,note_on,239,0,4,,,,,,,,3,,,42,0
40559,note_on,59,0,3,,,,,,,,2,,,54,0
40559,note_on,59,0,2,,,,,,,,1,,,66,0
40560,note_on,1,0,4,,,,,,,,3,,,42,64
40560,note_on,1,0,3,,,,,,,,2,,,42,26
40560,note_on,1,0,2,,,,,,,,1,,,73,24
40560,note_on,1,0,1,,,,,,,,0,,,73,86
40619,note_on,59,0,3,,,,,,,,2,,,42,0
40619,note_on,59,0,2,,,,,,,,1,,,73,0
40620,note_on,1,0,2,,,,,,,,1,,,66,24
40620,note_on,1,0,3,,,,,,,,2,,,54,26
40679,note_on,59,0,2,,,,,,,,1,,,66,0
40679,note_on,119,0,1,,,,,,,,0,,,73,0
40679,note_on,59,0,3,,,,,,,,2,,,54,0
40680,note_on,1,0,2,,,,,,,,1,,,61,24
40680,note_on,1,0,1,,,,,,,,0,,,66,80
40680,note_on,1,0,3,,,,,,,,2,,,58,26
40739,note_on,59,0,2,,,,,,,,1,,,61,0
40739,note_on,59,0,3,,,,,,,,2,,,58,0
40740,note_on,1,0,3,,,,,,,,2,,,54,25
40740,note_on,1,0,2,,,,,,,,1,,,64,24
40799,note_on,59,0,3,,,,,,,,2,,,54,0
40799,note_on,239,0,4,,,,,,,,3,,,42,0
40799,note_on,119,0,1,,,,,,,,0,,,66,0
40799,note_on,59,0,2,,,,,,,,1,,,64,0
40800,note_on,1,0,2,,,,,,,,1,,,75,24
40800,note_on,1,0,4,,,,,,,,3,,,47,64
40800,note_on,1,0,1,,,,,,,,0,,,75,93
40800,note_on,1,0,3,,,,,,,,2,,,47,25
40859,note_on,59,0,3,,,,,,,,2,,,47,0
40859,note_on,59,0,2,,,,,,,,1,,,75,0
40860,note_on,1,0,3,,,,,,,,2,,,54,25
40860,note_on,1,0,2,,,,,,,,1,,,66,24
40872,control_change,72,0,1,,,,,,,,0,64,0,,
40919,note_on,59,0,2,,,,,,,,1,,,66,0
40919,note_on,59,0,3,,,,,,,,2,,,54,0
40920,note_on,1,0,3,,,,,,,,2,,,59,24
40920,note_on,1,0,2,,,,,,,,1,,,63,24
40979,note_on,59,0,3,,,,,,,,2,,,59,0
40979,note_on,59,0,2,,,,,,,,1,,,63,0
40980,note_on,1,0,3,,,,,,,,2,,,54,24
40980,note_on,1,0,2,,,,,,,,1,,,66,24
41039,note_on,59,0,3,,,,,,,,2,,,54,0
41039,note_on,59,0,2,,,,,,,,1,,,66,0
41040,note_on,1,0,3,,,,,,,,2,,,59,24
41040,note_on,1,0,2,,,,,,,,1,,,63,24
41099,note_on,59,0,3,,,,,,,,2,,,59,0
41099,note_on,59,0,2,,,,,,,,1,,,63,0
41100,note_on,1,0,2,,,,,,,,1,,,66,24
41100,note_on,1,0,3,,,,,,,,2,,,54,24
41154,note_on,54,0,3,,,,,,,,2,,,54,0
41159,note_on,59,0,2,,,,,,,,1,,,66,0
41159,note_on,359,0,4,,,,,,,,3,,,47,0
41160,note_on,1,0,2,,,,,,,,1,,,63,24
41160,note_on,1,0,4,,,,,,,,3,,,46,60
41199,note_on,39,0,4,,,,,,,,3,,,46,0
41200,note_on,1,0,4,,,,,,,,3,,,47,62
41219,note_on,59,0,2,,,,,,,,1,,,63,0
41220,note_on,1,0,2,,,,,,,,1,,,66,24
41232,note_on,360,0,1,,,,,,,,0,,,75,0
41239,note_on,39,0,4,,,,,,,,3,,,47,0
41240,note_on,1,0,4,,,,,,,,3,,,49,65
41274,set_tempo,960,1,0,,,,,,1183899,,,,,,
41274,note_on,54,0,2,,,,,,,,1,,,66,0
41276,note_on,36,0,4,,,,,,,,3,,,49,0
41280,control_change,126,0,3,,,,,,,,2,64,127,,
41280,note_on,0,0,1,,,,,,,,0,,,75,83
41280,control_change,48,0,1,,,,,,,,0,64,127,,
41280,control_change,6,0,2,,,,,,,,1,64,127,,
41280,note_on,0,0,4,,,,,,,,3,,,39,67
41280,control_change,4,0,4,,,,,,,,3,64,127,,
41280,note_on,0,0,3,,,,,,,,2,,,39,21
41280,note_on,0,0,2,,,,,,,,1,,,75,64
41339,note_on,59,0,2,,,,,,,,1,,,75,0
41339,note_on,59,0,3,,,,,,,,2,,,39,0
41340,note_on,1,0,3,,,,,,,,2,,,51,61
41340,note_on,1,0,2,,,,,,,,1,,,67,60
41399,note_on,59,0,3,,,,,,,,2,,,51,0
41399,note_on,59,0,2,,,,,,,,1,,,67,0
41400,note_on,1,0,2,,,,,,,,1,,,61,56
41400,note_on,1,0,3,,,,,,,,2,,,58,57
41459,note_on,59,0,3,,,,,,,,2,,,58,0
41459,note_on,59,0,2,,,,,,,,1,,,61,0
41460,note_on,1,0,3,,,,,,,,2,,,51,53
41460,note_on,1,0,2,,,,,,,,1,,,67,52
41519,note_on,59,0,3,,,,,,,,2,,,51,0
41519,note_on,239,0,1,,,,,,,,0,,,75,0
41519,note_on,59,0,2,,,,,,,,1,,,67,0
41520,note_on,1,0,3,,,,,,,,2,,,58,49
41520,note_on,1,0,1,,,,,,,,0,,,73,92
41520,note_on,1,0,2,,,,,,,,1,,,61,48
41579,note_on,59,0,3,,,,,,,,2,,,58,0
41579,note_on,59,0,2,,,,,,,,1,,,61,0
41580,note_on,1,0,3,,,,,,,,2,,,51,45
41580,note_on,1,0,2,,,,,,,,1,,,67,44
41639,note_on,59,0,2,,,,,,,,1,,,67,0
41639,note_on,119,0,1,,,,,,,,0,,,73,0
41639,note_on,59,0,3,,,,,,,,2,,,51,0
41640,note_on,0,0,3,,,,,,,,2,,,58,42
41640,control_change,1,0,3,,,,,,,,2,64,0,,
41640,note_on,1,0,2,,,,,,,,1,,,61,40
41640,note_on,1,0,1,,,,,,,,0,,,71,85
41664,control_change,24,0,2,,,,,,,,1,64,0,,
41699,note_on,59,0,3,,,,,,,,2,,,58,0
41699,note_on,35,0,2,,,,,,,,1,,,61,0
41700,note_on,1,0,3,,,,,,,,2,,,51,38
41700,note_on,1,0,2,,,,,,,,1,,,67,36
41736,control_change,36,0,2,,,,,,,,1,64,127,,
41744,control_change,464,0,4,,,,,,,,3,64,0,,
41744,control_change,44,0,3,,,,,,,,2,64,127,,
41744,control_change,104,0,1,,,,,,,,0,64,0,,
41759,note_on,23,0,2,,,,,,,,1,,,67,0
41759,note_on,15,0,4,,,,,,,,3,,,39,0
41759,note_on,15,0,1,,,,,,,,0,,,71,0
41759,note_on,15,0,3,,,,,,,,2,,,51,0
41760,note_on,1,0,3,,,,,,,,2,,,40,21
41760,note_on,1,0,4,,,,,,,,3,,,40,64
41760,note_on,1,0,2,,,,,,,,1,,,70,32
41760,note_on,1,0,1,,,,,,,,0,,,70,65
41776,control_change,16,0,1,,,,,,,,0,64,127,,
41792,control_change,32,0,4,,,,,,,,3,64,127,,
41819,note_on,59,0,3,,,,,,,,2,,,40,0
41819,note_on,59,0,2,,,,,,,,1,,,70,0
41820,note_on,1,0,2,,,,,,,,1,,,64,28
41820,note_on,1,0,3,,,,,,,,2,,,52,21
41879,note_on,59,0,2,,,,,,,,1,,,64,0
41879,note_on,59,0,3,,,,,,,,2,,,52,0
41880,note_on,1,0,2,,,,,,,,1,,,59,24
41880,note_on,1,0,3,,,,,,,,2,,,56,27
41939,note_on,59,0,2,,,,,,,,1,,,59,0
41939,note_on,59,0,3,,,,,,,,2,,,56,0
41940,note_on,1,0,2,,,,,,,,1,,,64,29
41940,note_on,1,0,3,,,,,,,,2,,,52,30
41999,note_on,223,0,1,,,,,,,,0,,,70,0
41999,note_on,59,0,2,,,,,,,,1,,,64,0
41999,note_on,59,0,3,,,,,,,,2,,,52,0
42000,note_on,1,0,3,,,,,,,,2,,,56,37
42000,note_on,1,0,1,,,,,,,,0,,,68,77
42000,note_on,1,0,2,,,,,,,,1,,,68,37
42059,note_on,59,0,2,,,,,,,,1,,,68,0
42059,note_on,59,0,3,,,,,,,,2,,,56,0
42060,note_on,1,0,3,,,,,,,,2,,,52,44
42060,note_on,1,0,2,,,,,,,,1,,,64,45
42119,note_on,59,0,3,,,,,,,,2,,,52,0
42119,note_on,119,0,1,,,,,,,,0,,,68,0
42119,note_on,59,0,2,,,,,,,,1,,,64,0
42120,note_on,1,0,3,,,,,,,,2,,,56,50
42120,note_on,1,0,1,,,,,,,,0,,,71,83
42120,note_on,1,0,2,,,,,,,,1,,,59,53
42179,note_on,59,0,3,,,,,,,,2,,,56,0
42179,note_on,59,0,2,,,,,,,,1,,,59,0
42180,note_on,1,0,3,,,,,,,,2,,,52,57
42180,note_on,1,0,2,,,,,,,,1,,,64,61
42192,note_on,400,0,4,,,,,,,,3,,,40,0
42216,control_change,36,0,3,,,,,,,,2,64,0,,
42228,note_on,108,0,1,,,,,,,,0,,,71,0
42234,note_on,18,0,3,,,,,,,,2,,,52,0
42234,note_on,54,0,2,,,,,,,,1,,,64,0
42240,note_on,0,0,4,,,,,,,,3,,,39,64
42240,control_change,6,0,2,,,,,,,,1,64,0,,
42240,note_on,0,0,2,,,,,,,,1,,,75,62
42240,control_change,48,0,4,,,,,,,,3,64,0,,
42240,note_on,0,0,1,,,,,,,,0,,,75,88
42240,control_change,12,0,1,,,,,,,,0,64,0,,
42240,note_on,6,0,3,,,,,,,,2,,,39,64
42251,set_tempo,977,1,0,,,,,,1140684,,,,,,
42264,control_change,24,0,1,,,,,,,,0,64,127,,
42272,control_change,32,0,4,,,,,,,,3,64,127,,
42280,control_change,40,0,3,,,,,,,,2,64,127,,
42280,control_change,40,0,2,,,,,,,,1,64,127,,
42299,note_on,19,0,2,,,,,,,,1,,,75,0
42299,note_on,19,0,3,,,,,,,,2,,,39,0
42300,note_on,1,0,2,,,,,,,,1,,,67,58
42300,note_on,1,0,3,,,,,,,,2,,,51,60
42359,note_on,59,0,3,,,,,,,,2,,,51,0
42359,note_on,59,0,2,,,,,,,,1,,,67,0
42360,note_on,1,0,2,,,,,,,,1,,,61,54
42360,note_on,1,0,3,,,,,,,,2,,,58,55
42419,note_on,59,0,3,,,,,,,,2,,,58,0
42419,note_on,59,0,2,,,,,,,,1,,,61,0
42420,note_on,1,0,2,,,,,,,,1,,,67,50
42420,note_on,1,0,3,,,,,,,,2,,,51,51
42479,note_on,59,0,2,,,,,,,,1,,,67,0
42479,note_on,59,0,3,,,,,,,,2,,,51,0
42479,note_on,215,0,1,,,,,,,,0,,,75,0
42480,note_on,1,0,1,,,,,,,,0,,,73,93
42480,note_on,1,0,3,,,,,,,,2,,,58,46
42480,note_on,1,0,2,,,,,,,,1,,,61,46
42539,note_on,59,0,3,,,,,,,,2,,,58,0
42539,note_on,59,0,2,,,,,,,,1,,,61,0
42540,note_on,1,0,3,,,,,,,,2,,,51,41
42540,note_on,1,0,2,,,,,,,,1,,,67,42
42599,note_on,119,0,1,,,,,,,,0,,,73,0
42599,note_on,59,0,3,,,,,,,,2,,,51,0
42599,note_on,59,0,2,,,,,,,,1,,,67,0
42600,note_on,1,0,2,,,,,,,,1,,,61,38
42600,note_on,0,0,3,,,,,,,,2,,,58,37
42600,control_change,1,0,3,,,,,,,,2,64,0,,
42600,note_on,1,0,1,,,,,,,,0,,,71,83
42608,control_change,8,0,1,,,,,,,,0,64,0,,
42648,control_change,376,0,4,,,,,,,,3,64,0,,
42656,control_change,56,0,3,,,,,,,,2,64,127,,
42659,note_on,59,0,2,,,,,,,,1,,,61,0
42659,note_on,3,0,3,,,,,,,,2,,,58,0
42660,note_on,1,0,2,,,,,,,,1,,,67,34
42660,note_on,1,0,3,,,,,,,,2,,,51,32
42672,control_change,12,0,2,,,,,,,,1,64,127,,
42688,control_change,80,0,1,,,,,,,,0,64,127,,
42698,set_tempo,447,1,0,,,,,,1242751,,,,,,
42704,control_change,56,0,4,,,,,,,,3,64,127,,
42719,note_on,15,0,4,,,,,,,,3,,,39,0
42719,note_on,31,0,1,,,,,,,,0,,,71,0
42719,note_on,59,0,3,,,,,,,,2,,,51,0
42719,note_on,47,0,2,,,,,,,,1,,,67,0
42720,note_on,1,0,4,,,,,,,,3,,,40,64
42720,note_on,1,0,1,,,,,,,,0,,,70,65
42720,note_on,1,0,2,,,,,,,,1,,,70,30
42720,note_on,1,0,3,,,,,,,,2,,,40,22
42779,note_on,59,0,3,,,,,,,,2,,,40,0
42779,note_on,59,0,2,,,,,,,,1,,,70,0
42780,note_on,1,0,3,,,,,,,,2,,,52,25
42780,note_on,1,0,2,,,,,,,,1,,,64,22
42839,note_on,59,0,3,,,,,,,,2,,,52,0
42839,note_on,59,0,2,,,,,,,,1,,,64,0
42840,note_on,1,0,2,,,,,,,,1,,,59,22
42840,note_on,1,0,3,,,,,,,,2,,,56,25
42899,note_on,59,0,2,,,,,,,,1,,,59,0
42899,note_on,59,0,3,,,,,,,,2,,,56,0
42900,note_on,1,0,2,,,,,,,,1,,,64,22
42900,note_on,1,0,3,,,,,,,,2,,,52,25
42959,note_on,239,0,1,,,,,,,,0,,,70,0
42959,note_on,59,0,2,,,,,,,,1,,,64,0
42959,note_on,59,0,3,,,,,,,,2,,,52,0
42960,note_on,1,0,1,,,,,,,,0,,,68,77
42960,note_on,1,0,2,,,,,,,,1,,,59,22
42960,note_on,1,0,3,,,,,,,,2,,,56,25
43019,note_on,59,0,2,,,,,,,,1,,,59,0
43019,note_on,59,0,3,,,,,,,,2,,,56,0
43020,note_on,1,0,2,,,,,,,,1,,,64,22
43020,note_on,1,0,3,,,,,,,,2,,,52,25
43079,note_on,59,0,2,,,,,,,,1,,,64,0
43079,note_on,59,0,3,,,,,,,,2,,,52,0
43080,note_on,1,0,2,,,,,,,,1,,,59,22
43080,note_on,1,0,3,,,,,,,,2,,,56,25
43139,note_on,59,0,3,,,,,,,,2,,,56,0
43139,note_on,59,0,2,,,,,,,,1,,,59,0
43140,note_on,1,0,3,,,,,,,,2,,,52,25
43140,note_on,1,0,2,,,,,,,,1,,,64,22
43152,control_change,12,0,2,,,,,,,,1,64,0,,
43152,note_on,432,0,4,,,,,,,,3,,,40,0
43176,control_change,24,0,4,,,,,,,,3,64,0,,
43176,control_change,36,0,3,,,,,,,,2,64,0,,
43176,control_change,0,0,1,,,,,,,,0,64,0,,
43176,note_on,216,0,1,,,,,,,,0,,,68,0
43194,note_on,18,0,3,,,,,,,,2,,,52,0
43194,note_on,42,0,2,,,,,,,,1,,,64,0
43200,note_on,6,0,3,,,,,,,,2,,,40,25
43200,note_on,24,0,4,,,,,,,,3,,,40,64
43200,note_on,6,0,2,,,,,,,,1,,,73,22
43200,note_on,24,0,1,,,,,,,,0,,,73,92
43240,control_change,40,0,2,,,,,,,,1,64,0,,
43244,set_tempo,546,1,0,,,,,,1364877,,,,,,
43259,note_on,19,0,2,,,,,,,,1,,,73,0
43259,note_on,59,0,3,,,,,,,,2,,,40,0
43260,note_on,1,0,3,,,,,,,,2,,,52,22
43260,note_on,1,0,2,,,,,,,,1,,,68,24
43319,note_on,59,0,3,,,,,,,,2,,,52,0
43319,note_on,59,0,2,,,,,,,,1,,,68,0
43320,note_on,1,0,2,,,,,,,,1,,,61,30
43320,note_on,1,0,3,,,,,,,,2,,,56,30
43379,note_on,59,0,2,,,,,,,,1,,,61,0
43379,note_on,59,0,3,,,,,,,,2,,,56,0
43380,note_on,1,0,2,,,,,,,,1,,,68,36
43380,note_on,1,0,3,,,,,,,,2,,,52,35
43427,control_change,227,0,1,,,,,,,,0,64,127,,
43439,note_on,59,0,3,,,,,,,,2,,,52,0
43439,note_on,12,0,1,,,,,,,,0,,,73,0
43439,note_on,239,0,4,,,,,,,,3,,,40,0
43439,note_on,59,0,2,,,,,,,,1,,,68,0
43440,note_on,1,0,3,,,,,,,,2,,,36,40
43440,note_on,1,0,1,,,,,,,,0,,,75,79
43440,note_on,1,0,2,,,,,,,,1,,,75,41
43440,note_on,1,0,4,,,,,,,,3,,,36,64
43499,note_on,59,0,2,,,,,,,,1,,,75,0
43499,note_on,59,0,3,,,,,,,,2,,,36,0
43500,note_on,1,0,3,,,,,,,,2,,,48,45
43500,note_on,1,0,2,,,,,,,,1,,,68,47
43559,note_on,59,0,2,,,,,,,,1,,,68,0
43559,note_on,119,0,1,,,,,,,,0,,,75,0
43559,note_on,59,0,3,,,,,,,,2,,,48,0
43560,note_on,1,0,3,,,,,,,,2,,,56,49
43560,note_on,1,0,2,,,,,,,,1,,,63,53
43560,note_on,1,0,1,,,,,,,,0,,,75,86
43619,note_on,59,0,2,,,,,,,,1,,,63,0
43619,note_on,59,0,3,,,,,,,,2,,,56,0
43620,note_on,1,0,2,,,,,,,,1,,,68,59
43620,note_on,1,0,3,,,,,,,,2,,,48,55
43679,note_on,59,0,2,,,,,,,,1,,,68,0
43679,note_on,239,0,4,,,,,,,,3,,,36,0
43679,note_on,119,0,1,,,,,,,,0,,,75,0
43679,note_on,59,0,3,,,,,,,,2,,,48,0
43680,note_on,1,0,3,,,,,,,,2,,,37,60
43680,note_on,1,0,2,,,,,,,,1,,,78,61
43680,note_on,1,0,4,,,,,,,,3,,,37,64
43680,note_on,1,0,1,,,,,,,,0,,,78,93
43739,note_on,59,0,3,,,,,,,,2,,,37,0
43739,note_on,59,0,2,,,,,,,,1,,,78,0
43740,note_on,1,0,2,,,,,,,,1,,,68,61
43740,note_on,1,0,3,,,,,,,,2,,,49,61
43799,note_on,119,0,1,,,,,,,,0,,,78,0
43799,note_on,59,0,2,,,,,,,,1,,,68,0
43799,note_on,59,0,3,,,,,,,,2,,,49,0
43800,note_on,1,0,2,,,,,,,,1,,,64,61
43800,note_on,1,0,3,,,,,,,,2,,,56,61
43800,note_on,1,0,1,,,,,,,,0,,,76,90
43859,note_on,59,0,2,,,,,,,,1,,,64,0
43859,note_on,59,0,3,,,,,,,,2,,,56,0
43860,note_on,1,0,3,,,,,,,,2,,,49,61
43860,note_on,1,0,2,,,,,,,,1,,,68,61
43919,note_on,59,0,2,,,,,,,,1,,,68,0
43919,note_on,239,0,4,,,,,,,,3,,,37,0
43919,note_on,119,0,1,,,,,,,,0,,,76,0
43919,note_on,59,0,3,,,,,,,,2,,,49,0
43920,note_on,1,0,2,,,,,,,,1,,,75,61
43920,note_on,1,0,1,,,,,,,,0,,,75,87
43920,note_on,1,0,3,,,,,,,,2,,,40,61
43920,note_on,1,0,4,,,,,,,,3,,,40,64
43979,note_on,59,0,2,,,,,,,,1,,,75,0
43979,note_on,59,0,3,,,,,,,,2,,,40,0
43980,note_on,1,0,3,,,,,,,,2,,,52,61
43980,note_on,1,0,2,,,,,,,,1,,,68,61
44039,note_on,59,0,3,,,,,,,,2,,,52,0
44039,note_on,119,0,1,,,,,,,,0,,,75,0
44039,note_on,59,0,2,,,,,,,,1,,,68,0
44040,note_on,1,0,2,,,,,,,,1,,,64,61
44040,note_on,1,0,3,,,,,,,,2,,,56,61
44040,note_on,1,0,1,,,,,,,,0,,,73,84
44053,control_change,13,0,1,,,,,,,,0,64,0,,
44099,note_on,59,0,2,,,,,,,,1,,,64,0
44099,note_on,59,0,3,,,,,,,,2,,,56,0
44100,note_on,1,0,2,,,,,,,,1,,,68,62
44100,note_on,1,0,3,,,,,,,,2,,,52,62
44136,note_on,216,0,4,,,,,,,,3,,,40,0
44146,set_tempo,902,1,0,,,,,,1242751,,,,,,
44148,note_on,95,0,1,,,,,,,,0,,,73,0
44154,note_on,54,0,3,,,,,,,,2,,,52,0
44154,note_on,54,0,2,,,,,,,,1,,,68,0
44160,note_on,0,0,4,,,,,,,,3,,,42,64
44160,control_change,24,0,4,,,,,,,,3,64,127,,
44160,note_on,0,0,2,,,,,,,,1,,,71,62
44160,control_change,12,0,1,,,,,,,,0,64,127,,
44160,control_change,6,0,3,,,,,,,,2,64,127,,
44160,note_on,0,0,3,,,,,,,,2,,,42,62
44160,control_change,6,0,2,,,,,,,,1,64,127,,
44160,note_on,0,0,1,,,,,,,,0,,,71,81
44219,note_on,59,0,3,,,,,,,,2,,,42,0
44219,note_on,59,0,2,,,,,,,,1,,,71,0
44220,note_on,1,0,3,,,,,,,,2,,,54,62
44220,note_on,1,0,2,,,,,,,,1,,,66,62
44279,note_on,59,0,3,,,,,,,,2,,,54,0
44279,note_on,59,0,2,,,,,,,,1,,,66,0
44280,note_on,1,0,3,,,,,,,,2,,,59,62
44280,note_on,1,0,2,,,,,,,,1,,,63,62
44339,note_on,59,0,2,,,,,,,,1,,,63,0
44339,note_on,59,0,3,,,,,,,,2,,,59,0
44340,note_on,1,0,2,,,,,,,,1,,,66,62
44340,note_on,1,0,3,,,,,,,,2,,,54,62
44387,control_change,227,0,1,,,,,,,,0,64,0,,
44399,note_on,59,0,2,,,,,,,,1,,,66,0
44399,note_on,12,0,1,,,,,,,,0,,,71,0
44399,note_on,59,0,3,,,,,,,,2,,,54,0
44400,note_on,1,0,2,,,,,,,,1,,,63,62
44400,note_on,1,0,1,,,,,,,,0,,,75,94
44400,note_on,1,0,3,,,,,,,,2,,,59,62
44459,note_on,59,0,2,,,,,,,,1,,,63,0
44459,note_on,59,0,3,,,,,,,,2,,,59,0
44460,note_on,1,0,2,,,,,,,,1,,,66,61
44460,note_on,1,0,3,,,,,,,,2,,,54,61
44519,note_on,59,0,3,,,,,,,,2,,,54,0
44519,note_on,59,0,2,,,,,,,,1,,,66,0
44520,note_on,1,0,3,,,,,,,,2,,,59,58
44520,note_on,1,0,2,,,,,,,,1,,,63,57
44536,control_change,16,0,3,,,,,,,,2,64,0,,
44579,note_on,43,0,3,,,,,,,,2,,,59,0
44579,note_on,59,0,2,,,,,,,,1,,,63,0
44580,note_on,1,0,3,,,,,,,,2,,,54,55
44580,note_on,1,0,2,,,,,,,,1,,,66,53
44584,control_change,4,0,3,,,,,,,,2,64,127,,
44608,control_change,28,0,2,,,,,,,,1,64,0,,
44616,control_change,216,0,1,,,,,,,,0,64,127,,
44624,control_change,464,0,4,,,,,,,,3,64,0,,
44639,note_on,55,0,3,,,,,,,,2,,,54,0
44639,note_on,15,0,4,,,,,,,,3,,,42,0
44639,note_on,31,0,2,,,,,,,,1,,,66,0
44640,note_on,1,0,4,,,,,,,,3,,,42,64
44640,note_on,1,0,2,,,,,,,,1,,,64,49
44640,note_on,1,0,3,,,,,,,,2,,,58,51
44664,control_change,24,0,4,,,,,,,,3,64,127,,
44672,control_change,32,0,2,,,,,,,,1,64,127,,
44699,note_on,59,0,3,,,,,,,,2,,,58,0
44699,note_on,27,0,2,,,,,,,,1,,,64,0
44700,note_on,1,0,3,,,,,,,,2,,,54,48
44700,note_on,1,0,2,,,,,,,,1,,,66,45
44759,note_on,59,0,3,,,,,,,,2,,,54,0
44759,note_on,59,0,2,,,,,,,,1,,,66,0
44760,note_on,1,0,2,,,,,,,,1,,,64,41
44760,note_on,1,0,3,,,,,,,,2,,,58,45
44819,note_on,59,0,3,,,,,,,,2,,,58,0
44819,note_on,59,0,2,,,,,,,,1,,,64,0
44820,note_on,1,0,3,,,,,,,,2,,,54,42
44820,note_on,1,0,2,,,,,,,,1,,,66,37
44879,note_on,59,0,2,,,,,,,,1,,,66,0
44879,note_on,59,0,3,,,,,,,,2,,,54,0
44879,note_on,263,0,1,,,,,,,,0,,,75,0
44880,note_on,1,0,2,,,,,,,,1,,,64,33
44880,note_on,1,0,3,,,,,,,,2,,,58,38
44880,note_on,1,0,1,,,,,,,,0,,,73,94
44939,note_on,59,0,3,,,,,,,,2,,,58,0
44939,note_on,59,0,2,,,,,,,,1,,,64,0
44940,note_on,1,0,2,,,,,,,,1,,,66,29
44940,note_on,1,0,3,,,,,,,,2,,,54,35
44999,note_on,59,0,2,,,,,,,,1,,,66,0
44999,note_on,59,0,3,,,,,,,,2,,,54,0
45000,note_on,1,0,2,,,,,,,,1,,,64,25
45000,note_on,1,0,3,,,,,,,,2,,,58,32
45024,control_change,144,0,1,,,,,,,,0,64,0,,
45059,note_on,59,0,3,,,,,,,,2,,,58,0
45059,note_on,59,0,2,,,,,,,,1,,,64,0
45060,note_on,1,0,3,,,,,,,,2,,,54,28
45060,note_on,1,0,2,,,,,,,,1,,,66,21
45072,note_on,408,0,4,,,,,,,,3,,,42,0
45072,control_change,0,0,4,,,,,,,,3,64,0,,
45080,control_change,20,0,2,,,,,,,,1,64,0,,
45096,note_on,72,0,1,,,,,,,,0,,,73,0
45114,note_on,34,0,2,,,,,,,,1,,,66,0
45114,note_on,54,0,3,,,,,,,,2,,,54,0
45120,note_on,48,0,4,,,,,,,,3,,,47,56
45120,control_change,24,0,1,,,,,,,,0,64,127,,
45120,note_on,6,0,2,,,,,,,,1,,,63,21
45120,control_change,6,0,3,,,,,,,,2,64,0,,
45149,note_on,29,0,2,,,,,,,,1,,,63,0
45150,note_on,1,0,2,,,,,,,,1,,,66,21
45152,control_change,2,0,2,,,,,,,,1,64,127,,
45152,control_change,32,0,4,,,,,,,,3,64,127,,
45160,note_on,8,0,4,,,,,,,,3,,,54,62
45179,note_on,27,0,2,,,,,,,,1,,,66,0
45180,note_on,1,0,2,,,,,,,,1,,,71,21
45180,note_on,60,0,1,,,,,,,,0,,,71,86
45200,note_on,40,0,4,,,,,,,,3,,,59,67
45239,note_on,59,0,2,,,,,,,,1,,,71,0
45240,note_on,1,0,2,,,,,,,,1,,,63,21
45240,note_on,0,0,2,,,,,,,,1,,,66,21
45299,note_on,59,0,2,,,,,,,,1,,,66,0
45299,note_on,0,0,2,,,,,,,,1,,,63,0
45300,note_on,1,0,2,,,,,,,,1,,,59,22
45359,note_on,59,0,2,,,,,,,,1,,,59,0
45360,note_on,0,0,2,,,,,,,,1,,,66,22
45360,note_on,1,0,2,,,,,,,,1,,,63,22
45419,note_on,59,0,2,,,,,,,,1,,,66,0
45419,note_on,0,0,2,,,,,,,,1,,,63,0
45420,note_on,1,0,2,,,,,,,,1,,,71,23
45479,note_on,59,0,2,,,,,,,,1,,,71,0
45480,note_on,1,0,2,,,,,,,,1,,,63,24
45480,note_on,0,0,2,,,,,,,,1,,,66,24
45539,note_on,59,0,2,,,,,,,,1,,,66,0
45539,note_on,0,0,2,,,,,,,,1,,,63,0
45540,note_on,1,0,2,,,,,,,,1,,,59,24
45599,note_on,59,0,2,,,,,,,,1,,,59,0
45600,note_on,0,0,2,,,,,,,,1,,,66,25
45600,note_on,1,0,2,,,,,,,,1,,,63,25
45612,note_on,432,0,1,,,,,,,,0,,,71,0
45659,note_on,59,0,2,,,,,,,,1,,,66,0
45659,note_on,0,0,2,,,,,,,,1,,,63,0
45660,note_on,1,0,2,,,,,,,,1,,,71,26
45719,note_on,59,0,2,,,,,,,,1,,,71,0
45720,note_on,1,0,2,,,,,,,,1,,,63,26
45720,note_on,0,0,2,,,,,,,,1,,,66,26
45779,note_on,59,0,2,,,,,,,,1,,,66,0
45779,note_on,0,0,2,,,,,,,,1,,,63,0
45780,note_on,1,0,2,,,,,,,,1,,,59,27
45839,note_on,59,0,2,,,,,,,,1,,,59,0
45840,note_on,0,0,2,,,,,,,,1,,,66,28
45840,note_on,1,0,2,,,,,,,,1,,,63,28
45899,note_on,0,0,2,,,,,,,,1,,,63,0
45899,note_on,59,0,2,,,,,,,,1,,,66,0
45900,note_on,1,0,2,,,,,,,,1,,,71,28
45959,note_on,59,0,2,,,,,,,,1,,,71,0
45960,note_on,1,0,2,,,,,,,,1,,,63,29
45960,note_on,0,0,2,,,,,,,,1,,,66,29
46000,set_tempo,1854,1,0,,,,,,1183899,,,,,,
46016,set_tempo,16,1,0,,,,,,1242751,,,,,,
46019,note_on,59,0,2,,,,,,,,1,,,66,0
46019,note_on,0,0,2,,,,,,,,1,,,63,0
46020,note_on,1,0,2,,,,,,,,1,,,59,30
46074,note_on,54,0,2,,,,,,,,1,,,59,0
46080,note_on,6,0,2,,,,,,,,1,,,63,30
46080,note_on,0,0,2,,,,,,,,1,,,66,30
46080,control_change,468,0,1,,,,,,,,0,64,0,,
46139,note_on,59,0,2,,,,,,,,1,,,66,0
46139,note_on,0,0,2,,,,,,,,1,,,63,0
46140,note_on,1,0,2,,,,,,,,1,,,71,31
46199,note_on,59,0,2,,,,,,,,1,,,71,0
46200,note_on,1,0,2,,,,,,,,1,,,63,32
46200,note_on,0,0,2,,,,,,,,1,,,66,32
46231,set_tempo,215,1,0,,,,,,1255230,,,,,,
46259,note_on,59,0,2,,,,,,,,1,,,66,0
46259,note_on,0,0,2,,,,,,,,1,,,63,0
46260,note_on,1,0,2,,,,,,,,1,,,59,32
46319,note_on,59,0,2,,,,,,,,1,,,59,0
46319,note_on,1119,0,4,,,,,,,,3,,,59,0
46319,note_on,0,0,4,,,,,,,,3,,,54,0
46319,note_on,0,0,4,,,,,,,,3,,,47,0
46320,note_on,1,0,2,,,,,,,,1,,,63,31
46320,note_on,0,0,2,,,,,,,,1,,,66,31
46320,note_on,1,0,4,,,,,,,,3,,,35,65
46320,note_on,0,0,4,,,,,,,,3,,,47,65
46379,note_on,59,0,2,,,,,,,,1,,,66,0
46379,note_on,0,0,2,,,,,,,,1,,,63,0
46380,note_on,1,0,2,,,,,,,,1,,,71,30
46439,note_on,59,0,2,,,,,,,,1,,,71,0
46439,note_on,119,0,4,,,,,,,,3,,,47,0
46439,note_on,0,0,4,,,,,,,,3,,,35,0
46440,note_on,0,0,2,,,,,,,,1,,,66,29
46440,note_on,1,0,2,,,,,,,,1,,,63,29
46499,note_on,59,0,2,,,,,,,,1,,,66,0
46499,note_on,0,0,2,,,,,,,,1,,,63,0
46500,note_on,1,0,2,,,,,,,,1,,,59,28
46559,note_on,59,0,2,,,,,,,,1,,,59,0
46560,note_on,121,0,4,,,,,,,,3,,,35,62
46560,note_on,1,0,2,,,,,,,,1,,,63,27
46560,note_on,0,0,2,,,,,,,,1,,,66,27
46560,note_on,0,0,4,,,,,,,,3,,,47,62
46619,note_on,59,0,2,,,,,,,,1,,,66,0
46619,note_on,0,0,2,,,,,,,,1,,,63,0
46620,note_on,1,0,2,,,,,,,,1,,,71,26
46679,note_on,59,0,2,,,,,,,,1,,,71,0
46679,note_on,119,0,4,,,,,,,,3,,,47,0
46679,note_on,0,0,4,,,,,,,,3,,,35,0
46680,note_on,0,0,2,,,,,,,,1,,,66,25
46680,note_on,1,0,2,,,,,,,,1,,,63,25
46739,note_on,0,0,2,,,,,,,,1,,,63,0
46739,note_on,59,0,2,,,,,,,,1,,,66,0
46740,note_on,1,0,2,,,,,,,,1,,,59,24
46799,note_on,59,0,2,,,,,,,,1,,,59,0
46800,note_on,121,0,4,,,,,,,,3,,,35,59
46800,note_on,0,0,2,,,,,,,,1,,,66,23
46800,note_on,1,0,2,,,,,,,,1,,,63,23
46800,note_on,0,0,4,,,,,,,,3,,,47,59
46859,note_on,0,0,2,,,,,,,,1,,,63,0
46859,note_on,59,0,2,,,,,,,,1,,,66,0
46860,note_on,1,0,2,,,,,,,,1,,,71,22
46908,note_on,108,0,4,,,,,,,,3,,,47,0
46908,note_on,0,0,4,,,,,,,,3,,,35,0
46919,note_on,59,0,2,,,,,,,,1,,,71,0
46920,note_on,0,0,2,,,,,,,,1,,,66,21
46920,note_on,1,0,2,,,,,,,,1,,,63,21
46976,control_change,56,0,2,,,,,,,,1,64,0,,
46979,note_on,0,0,2,,,,,,,,1,,,63,0
46979,note_on,3,0,2,,,,,,,,1,,,66,0
46980,note_on,1,0,2,,,,,,,,1,,,59,20
46984,control_change,76,0,4,,,,,,,,3,64,0,,
47016,set_tempo,785,1,0,,,,,,1218522,,,,,,
47034,note_on,54,0,2,,,,,,,,1,,,59,0
47040,note_on,0,0,2,,,,,,,,1,,,66,19
47040,note_on,0,0,4,,,,,,,,3,,,33,57
47040,note_on,0,0,4,,,,,,,,3,,,45,57
47040,control_change,56,0,4,,,,,,,,3,64,127,,
47040,control_change,6,0,2,,,,,,,,1,64,127,,
47040,note_on,0,0,2,,,,,,,,1,,,63,19
47099,note_on,0,0,2,,,,,,,,1,,,63,0
47099,note_on,59,0,2,,,,,,,,1,,,66,0
47100,note_on,1,0,2,,,,,,,,1,,,72,61
47159,note_on,59,0,2,,,,,,,,1,,,72,0
47160,note_on,1,0,2,,,,,,,,1,,,63,58
47160,note_on,0,0,2,,,,,,,,1,,,66,58
47219,note_on,0,0,2,,,,,,,,1,,,63,0
47219,note_on,59,0,2,,,,,,,,1,,,66,0
47220,note_on,1,0,2,,,,,,,,1,,,60,56
47279,note_on,59,0,2,,,,,,,,1,,,60,0
47280,note_on,0,0,2,,,,,,,,1,,,66,53
47280,note_on,1,0,2,,,,,,,,1,,,62,53
47339,note_on,59,0,2,,,,,,,,1,,,66,0
47339,note_on,0,0,2,,,,,,,,1,,,62,0
47340,note_on,1,0,2,,,,,,,,1,,,72,51
47399,note_on,59,0,2,,,,,,,,1,,,72,0
47400,note_on,0,0,2,,,,,,,,1,,,66,48
47400,note_on,1,0,2,,,,,,,,1,,,62,48
47459,note_on,0,0,2,,,,,,,,1,,,62,0
47459,note_on,59,0,2,,,,,,,,1,,,66,0
47460,note_on,1,0,2,,,,,,,,1,,,60,46
47519,note_on,0,0,4,,,,,,,,3,,,33,0
47519,note_on,479,0,4,,,,,,,,3,,,45,0
47519,note_on,59,0,2,,,,,,,,1,,,60,0
47520,note_on,1,0,4,,,,,,,,3,,,31,78
47520,note_on,0,0,2,,,,,,,,1,,,67,43
47520,note_on,1,0,2,,,,,,,,1,,,62,43
47520,note_on,0,0,4,,,,,,,,3,,,43,78
47579,note_on,0,0,2,,,,,,,,1,,,62,0
47579,note_on,59,0,2,,,,,,,,1,,,67,0
47580,note_on,1,0,2,,,,,,,,1,,,71,41
47639,note_on,119,0,4,,,,,,,,3,,,43,0
47639,note_on,59,0,2,,,,,,,,1,,,71,0
47639,note_on,0,0,4,,,,,,,,3,,,31,0
47640,control_change,1,0,2,,,,,,,,1,64,0,,
47640,note_on,0,0,4,,,,,,,,3,,,33,75
47640,control_change,1,0,4,,,,,,,,3,64,0,,
47640,note_on,0,0,4,,,,,,,,3,,,45,75
47640,note_on,0,0,2,,,,,,,,1,,,62,38
47640,note_on,0,0,2,,,,,,,,1,,,67,38
47699,note_on,0,0,2,,,,,,,,1,,,62,0
47699,note_on,59,0,2,,,,,,,,1,,,67,0
47700,note_on,1,0,2,,,,,,,,1,,,59,36
47759,note_on,119,0,4,,,,,,,,3,,,45,0
47759,note_on,59,0,2,,,,,,,,1,,,59,0
47759,note_on,0,0,4,,,,,,,,3,,,33,0
47760,note_on,0,0,2,,,,,,,,1,,,67,33
47760,note_on,1,0,2,,,,,,,,1,,,62,33
47760,note_on,0,0,4,,,,,,,,3,,,47,71
47760,note_on,1,0,4,,,,,,,,3,,,35,71
47819,note_on,0,0,2,,,,,,,,1,,,62,0
47819,note_on,59,0,2,,,,,,,,1,,,67,0
47820,note_on,1,0,2,,,,,,,,1,,,71,31
47879,note_on,119,0,4,,,,,,,,3,,,47,0
47879,note_on,0,0,4,,,,,,,,3,,,35,0
47879,note_on,59,0,2,,,,,,,,1,,,71,0
47880,note_on,1,0,4,,,,,,,,3,,,36,67
47880,note_on,0,0,2,,,,,,,,1,,,67,28
47880,note_on,1,0,2,,,,,,,,1,,,62,28
47880,note_on,0,0,4,,,,,,,,3,,,48,67
47939,note_on,0,0,2,,,,,,,,1,,,62,0
47939,note_on,59,0,2,,,,,,,,1,,,67,0
47940,note_on,1,0,2,,,,,,,,1,,,59,26
47988,note_on,108,0,4,,,,,,,,3,,,48,0
47988,note_on,0,0,4,,,,,,,,3,,,36,0
47993,set_tempo,977,1,0,,,,,,1206758,,,,,,
47994,note_on,54,0,2,,,,,,,,1,,,59,0
48000,note_on,0,0,2,,,,,,,,1,,,67,23
48000,note_on,0,0,4,,,,,,,,3,,,38,55
48000,control_change,6,0,2,,,,,,,,1,64,127,,
48000,control_change,12,0,4,,,,,,,,3,64,127,,
48000,note_on,0,0,4,,,,,,,,3,,,50,55
48000,note_on,0,0,2,,,,,,,,1,,,62,23
48059,note_on,59,0,2,,,,,,,,1,,,67,0
48059,note_on,0,0,2,,,,,,,,1,,,62,0
48060,note_on,1,0,2,,,,,,,,1,,,69,27
48119,note_on,59,0,2,,,,,,,,1,,,69,0
48120,note_on,0,0,2,,,,,,,,1,,,67,27
48120,note_on,1,0,2,,,,,,,,1,,,62,27
48179,note_on,59,0,2,,,,,,,,1,,,67,0
48179,note_on,0,0,2,,,,,,,,1,,,62,0
48180,note_on,1,0,2,,,,,,,,1,,,57,27
48239,note_on,59,0,2,,,,,,,,1,,,57,0
48240,note_on,0,0,2,,,,,,,,1,,,67,27
48240,note_on,1,0,2,,,,,,,,1,,,62,27
48299,note_on,0,0,2,,,,,,,,1,,,62,0
48299,note_on,59,0,2,,,,,,,,1,,,67,0
48300,note_on,1,0,2,,,,,,,,1,,,69,27
48359,note_on,59,0,2,,,,,,,,1,,,69,0
48360,note_on,1,0,2,,,,,,,,1,,,62,27
48360,note_on,0,0,2,,,,,,,,1,,,67,27
48419,note_on,0,0,2,,,,,,,,1,,,62,0
48419,note_on,59,0,2,,,,,,,,1,,,67,0
48420,note_on,1,0,2,,,,,,,,1,,,57,27
48479,note_on,59,0,2,,,,,,,,1,,,57,0
48480,note_on,0,0,2,,,,,,,,1,,,66,27
48480,note_on,1,0,2,,,,,,,,1,,,62,27
48533,control_change,53,0,2,,,,,,,,1,64,0,,
48539,note_on,0,0,2,,,,,,,,1,,,62,0
48539,note_on,6,0,2,,,,,,,,1,,,66,0
48540,note_on,1,0,2,,,,,,,,1,,,69,27
48599,note_on,59,0,2,,,,,,,,1,,,69,0
48600,note_on,0,0,2,,,,,,,,1,,,66,27
48600,note_on,1,0,2,,,,,,,,1,,,62,27
48659,note_on,59,0,2,,,,,,,,1,,,66,0
48659,note_on,0,0,2,,,,,,,,1,,,62,0
48660,note_on,1,0,2,,,,,,,,1,,,57,27
48719,note_on,59,0,2,,,,,,,,1,,,57,0
48720,note_on,0,0,2,,,,,,,,1,,,66,27
48720,note_on,1,0,2,,,,,,,,1,,,62,27
48779,note_on,59,0,2,,,,,,,,1,,,66,0
48779,note_on,0,0,2,,,,,,,,1,,,62,0
48780,note_on,1,0,2,,,,,,,,1,,,71,27
48839,note_on,59,0,2,,,,,,,,1,,,71,0
48840,note_on,0,0,2,,,,,,,,1,,,66,27
48840,note_on,1,0,2,,,,,,,,1,,,62,27
48864,note_on,864,0,4,,,,,,,,3,,,50,0
48864,note_on,0,0,4,,,,,,,,3,,,38,0
48880,control_change,16,0,4,,,,,,,,3,64,0,,
48899,note_on,0,0,2,,,,,,,,1,,,62,0
48899,note_on,59,0,2,,,,,,,,1,,,66,0
48900,note_on,1,0,2,,,,,,,,1,,,59,27
48936,set_tempo,943,1,0,,,,,,1161890,,,,,,
48954,note_on,54,0,2,,,,,,,,1,,,59,0
48960,control_change,80,0,4,,,,,,,,3,64,127,,
48960,note_on,0,0,1,,,,,,,,0,,,67,67
48960,note_on,0,0,1,,,,,,,,0,,,83,67
48960,control_change,2880,0,1,,,,,,,,0,64,127,,
48960,note_on,0,0,4,,,,,,,,3,,,43,32
48960,control_change,6,0,2,,,,,,,,1,64,127,,
49019,note_on,59,0,4,,,,,,,,3,,,43,0
49020,note_on,1,0,4,,,,,,,,3,,,50,33
49079,note_on,59,0,4,,,,,,,,3,,,50,0
49080,note_on,1,0,4,,,,,,,,3,,,59,37
49139,note_on,59,0,4,,,,,,,,3,,,59,0
49140,note_on,1,0,4,,,,,,,,3,,,62,41
49199,note_on,59,0,4,,,,,,,,3,,,62,0
49199,note_on,0,0,1,,,,,,,,0,,,83,0
49199,note_on,239,0,1,,,,,,,,0,,,67,0
49200,note_on,0,0,1,,,,,,,,0,,,84,79
49200,note_on,1,0,1,,,,,,,,0,,,69,79
49200,note_on,1,0,4,,,,,,,,3,,,60,46
49259,note_on,59,0,4,,,,,,,,3,,,60,0
49259,note_on,0,0,1,,,,,,,,0,,,69,0
49259,note_on,59,0,1,,,,,,,,0,,,84,0
49260,note_on,1,0,4,,,,,,,,3,,,62,50
49319,note_on,59,0,4,,,,,,,,3,,,62,0
49320,note_on,61,0,1,,,,,,,,0,,,84,85
49320,note_on,1,0,4,,,,,,,,3,,,60,54
49320,note_on,0,0,1,,,,,,,,0,,,69,85
49379,note_on,0,0,1,,,,,,,,0,,,84,0
49379,note_on,59,0,1,,,,,,,,0,,,69,0
49379,note_on,59,0,4,,,,,,,,3,,,60,0
49380,note_on,1,0,4,,,,,,,,3,,,50,58
49439,note_on,59,0,4,,,,,,,,3,,,50,0
49440,note_on,0,0,1,,,,,,,,0,,,71,92
49440,note_on,1,0,4,,,,,,,,3,,,62,63
49440,note_on,61,0,1,,,,,,,,0,,,86,92
49499,note_on,59,0,4,,,,,,,,3,,,62,0
49500,note_on,1,0,4,,,,,,,,3,,,64,60
49559,note_on,59,0,4,,,,,,,,3,,,64,0
49560,note_on,1,0,4,,,,,,,,3,,,62,56
49560,control_change,600,0,2,,,,,,,,1,64,0,,
49605,control_change,45,0,4,,,,,,,,3,64,0,,
49619,note_on,14,0,4,,,,,,,,3,,,62,0
49620,note_on,1,0,4,,,,,,,,3,,,50,51
49679,note_on,0,0,1,,,,,,,,0,,,86,0
49679,note_on,59,0,4,,,,,,,,3,,,50,0
49679,note_on,239,0,1,,,,,,,,0,,,71,0
49680,note_on,1,0,1,,,,,,,,0,,,67,94
49680,note_on,0,0,1,,,,,,,,0,,,86,94
49680,note_on,1,0,4,,,,,,,,3,,,59,46
49739,note_on,59,0,4,,,,,,,,3,,,59,0
49739,note_on,59,0,1,,,,,,,,0,,,86,0
49739,note_on,0,0,1,,,,,,,,0,,,67,0
49740,note_on,1,0,4,,,,,,,,3,,,50,42
49799,note_on,59,0,4,,,,,,,,3,,,50,0
49800,note_on,1,0,4,,,,,,,,3,,,43,37
49800,note_on,61,0,1,,,,,,,,0,,,67,94
49800,note_on,0,0,1,,,,,,,,0,,,86,94
49854,note_on,54,0,1,,,,,,,,0,,,86,0
49854,note_on,0,0,1,,,,,,,,0,,,67,0
49859,note_on,59,0,4,,,,,,,,3,,,43,0
49860,note_on,1,0,4,,,,,,,,3,,,50,33
49914,note_on,54,0,4,,,,,,,,3,,,50,0
49920,note_on,0,0,1,,,,,,,,0,,,72,93
49920,note_on,0,0,1,,,,,,,,0,,,88,93
49920,control_change,66,0,1,,,,,,,,0,64,0,,
49920,note_on,6,0,4,,,,,,,,3,,,55,28
49979,note_on,59,0,4,,,,,,,,3,,,55,0
49980,note_on,1,0,4,,,,,,,,3,,,64,29
50000,control_change,80,0,1,,,,,,,,0,64,127,,
50039,note_on,59,0,4,,,,,,,,3,,,64,0
50040,note_on,1,0,4,,,,,,,,3,,,55,34
50099,note_on,59,0,4,,,,,,,,3,,,55,0
50100,note_on,1,0,4,,,,,,,,3,,,48,39
50159,note_on,59,0,4,,,,,,,,3,,,48,0
50159,note_on,0,0,1,,,,,,,,0,,,88,0
50159,note_on,159,0,1,,,,,,,,0,,,72,0
50160,note_on,1,0,1,,,,,,,,0,,,86,89
50160,note_on,0,0,1,,,,,,,,0,,,71,89
50160,note_on,1,0,4,,,,,,,,3,,,56,43
50219,note_on,59,0,1,,,,,,,,0,,,71,0
50219,note_on,0,0,1,,,,,,,,0,,,86,0
50219,note_on,59,0,4,,,,,,,,3,,,56,0
50220,note_on,1,0,4,,,,,,,,3,,,62,48
50279,note_on,59,0,4,,,,,,,,3,,,62,0
50280,note_on,0,0,1,,,,,,,,0,,,86,86
50280,note_on,61,0,1,,,,,,,,0,,,71,86
50280,note_on,1,0,4,,,,,,,,3,,,56,53
50339,note_on,0,0,1,,,,,,,,0,,,71,0
50339,note_on,59,0,1,,,,,,,,0,,,86,0
50339,note_on,59,0,4,,,,,,,,3,,,56,0
50340,note_on,1,0,4,,,,,,,,3,,,52,57
50399,note_on,59,0,4,,,,,,,,3,,,52,0
50400,note_on,1,0,4,,,,,,,,3,,,57,61
50400,note_on,61,0,1,,,,,,,,0,,,84,73
50400,note_on,0,0,1,,,,,,,,0,,,69,73
50459,note_on,59,0,4,,,,,,,,3,,,57,0
50460,note_on,1,0,4,,,,,,,,3,,,60,57
50519,note_on,59,0,4,,,,,,,,3,,,60,0
50520,note_on,1,0,4,,,,,,,,3,,,57,53
50579,note_on,59,0,4,,,,,,,,3,,,57,0
50580,note_on,1,0,4,,,,,,,,3,,,52,49
50639,note_on,59,0,4,,,,,,,,3,,,52,0
50640,note_on,1,0,4,,,,,,,,3,,,45,45
50687,note_on,47,0,4,,,,,,,,3,,,45,0
50688,note_on,1,0,4,,,,,,,,3,,,52,41
50735,note_on,47,0,4,,,,,,,,3,,,52,0
50736,note_on,1,0,4,,,,,,,,3,,,57,38
50783,note_on,47,0,4,,,,,,,,3,,,57,0
50784,note_on,1,0,4,,,,,,,,3,,,60,34
50831,note_on,47,0,4,,,,,,,,3,,,60,0
50832,note_on,0,0,1,,,,,,,,0,,,84,0
50832,note_on,432,0,1,,,,,,,,0,,,69,0
50832,note_on,1,0,4,,,,,,,,3,,,64,31
50864,note_on,32,0,4,,,,,,,,3,,,64,0
50880,note_on,5760,0,3,,,,,,,,2,,,57,65
50880,note_on,0,0,3,,,,,,,,2,,,48,65
50880,control_change,1320,0,2,,,,,,,,1,64,127,,
50880,note_on,0,0,2,,,,,,,,1,,,69,63
50939,note_on,59,0,2,,,,,,,,1,,,69,0
50940,note_on,1,0,2,,,,,,,,1,,,76,61
50960,control_change,128,0,1,,,,,,,,0,64,0,,
50999,note_on,59,0,2,,,,,,,,1,,,76,0
51000,note_on,1,0,2,,,,,,,,1,,,69,59
51059,note_on,59,0,2,,,,,,,,1,,,69,0
51060,note_on,1,0,2,,,,,,,,1,,,64,57
51119,note_on,59,0,2,,,,,,,,1,,,64,0
51119,note_on,239,0,3,,,,,,,,2,,,48,0
51119,note_on,0,0,3,,,,,,,,2,,,57,0
51120,note_on,1,0,2,,,,,,,,1,,,68,55
51120,note_on,1,0,3,,,,,,,,2,,,59,75
51120,note_on,0,0,3,,,,,,,,2,,,52,75
51179,note_on,59,0,2,,,,,,,,1,,,68,0
51180,note_on,1,0,2,,,,,,,,1,,,74,53
51239,note_on,59,0,2,,,,,,,,1,,,74,0
51240,note_on,1,0,2,,,,,,,,1,,,68,51
51299,note_on,59,0,2,,,,,,,,1,,,68,0
51300,note_on,1,0,2,,,,,,,,1,,,64,49
51359,note_on,0,0,3,,,,,,,,2,,,59,0
51359,note_on,239,0,3,,,,,,,,2,,,52,0
51359,note_on,59,0,2,,,,,,,,1,,,64,0
51360,note_on,0,0,3,,,,,,,,2,,,57,85
51360,note_on,1,0,3,,,,,,,,2,,,60,85
51360,note_on,1,0,2,,,,,,,,1,,,69,47
51419,note_on,59,0,2,,,,,,,,1,,,69,0
51420,note_on,1,0,2,,,,,,,,1,,,72,45
51479,note_on,59,0,2,,,,,,,,1,,,72,0
51480,note_on,1,0,2,,,,,,,,1,,,69,43
51539,note_on,59,0,2,,,,,,,,1,,,69,0
51540,note_on,1,0,2,,,,,,,,1,,,64,41
51576,note_on,216,0,3,,,,,,,,2,,,57,0
51576,note_on,0,0,3,,,,,,,,2,,,60,0
51599,note_on,59,0,2,,,,,,,,1,,,64,0
51600,note_on,1,0,2,,,,,,,,1,,,60,39
51659,note_on,59,0,2,,,,,,,,1,,,60,0
51660,note_on,1,0,2,,,,,,,,1,,,57,37
51719,note_on,59,0,2,,,,,,,,1,,,57,0
51720,note_on,1,0,2,,,,,,,,1,,,52,35
51779,note_on,59,0,2,,,,,,,,1,,,52,0
51780,note_on,1,0,2,,,,,,,,1,,,51,33
51834,note_on,54,0,2,,,,,,,,1,,,51,0
51840,note_on,0,0,1,,,,,,,,0,,,66,71
51840,note_on,0,0,4,,,,,,,,3,,,38,64
51840,control_change,0,0,2,,,,,,,,1,64,127,,
51840,control_change,6,0,2,,,,,,,,1,64,0,,
51840,note_on,0,0,1,,,,,,,,0,,,81,71
51840,control_change,880,0,1,,,,,,,,0,64,127,,
51840,control_change,976,0,4,,,,,,,,3,64,127,,
51899,note_on,59,0,4,,,,,,,,3,,,38,0
51900,note_on,1,0,4,,,,,,,,3,,,50,28
51959,note_on,59,0,4,,,,,,,,3,,,50,0
51960,note_on,1,0,4,,,,,,,,3,,,57,33
52019,note_on,59,0,4,,,,,,,,3,,,57,0
52020,note_on,1,0,4,,,,,,,,3,,,62,37
52079,note_on,0,0,1,,,,,,,,0,,,81,0
52079,note_on,59,0,4,,,,,,,,3,,,62,0
52079,note_on,239,0,1,,,,,,,,0,,,66,0
52080,note_on,1,0,1,,,,,,,,0,,,67,82
52080,note_on,0,0,1,,,,,,,,0,,,83,82
52080,note_on,1,0,4,,,,,,,,3,,,59,42
52139,note_on,59,0,1,,,,,,,,0,,,83,0
52139,note_on,0,0,1,,,,,,,,0,,,67,0
52139,note_on,59,0,4,,,,,,,,3,,,59,0
52140,note_on,1,0,4,,,,,,,,3,,,62,46
52199,note_on,59,0,4,,,,,,,,3,,,62,0
52200,note_on,1,0,4,,,,,,,,3,,,59,50
52200,note_on,0,0,1,,,,,,,,0,,,67,87
52200,note_on,61,0,1,,,,,,,,0,,,83,87
52259,note_on,59,0,4,,,,,,,,3,,,59,0
52259,note_on,0,0,1,,,,,,,,0,,,83,0
52259,note_on,59,0,1,,,,,,,,0,,,67,0
52260,note_on,1,0,4,,,,,,,,3,,,50,55
52319,note_on,59,0,4,,,,,,,,3,,,50,0
52320,note_on,1,0,4,,,,,,,,3,,,60,59
52320,note_on,0,0,1,,,,,,,,0,,,84,95
52320,note_on,61,0,1,,,,,,,,0,,,69,95
52379,note_on,59,0,4,,,,,,,,3,,,60,0
52380,note_on,1,0,4,,,,,,,,3,,,62,61
52439,note_on,59,0,4,,,,,,,,3,,,62,0
52440,note_on,1,0,4,,,,,,,,3,,,60,57
52499,note_on,59,0,4,,,,,,,,3,,,60,0
52500,note_on,1,0,4,,,,,,,,3,,,50,53
52559,note_on,59,0,4,,,,,,,,3,,,50,0
52559,note_on,0,0,1,,,,,,,,0,,,69,0
52559,note_on,239,0,1,,,,,,,,0,,,84,0
52560,note_on,0,0,1,,,,,,,,0,,,66,83
52560,note_on,1,0,1,,,,,,,,0,,,81,83
52560,note_on,1,0,4,,,,,,,,3,,,57,49
52619,note_on,59,0,1,,,,,,,,0,,,66,0
52619,note_on,59,0,4,,,,,,,,3,,,57,0
52619,note_on,0,0,1,,,,,,,,0,,,81,0
52620,note_on,1,0,4,,,,,,,,3,,,62,45
52679,note_on,59,0,4,,,,,,,,3,,,62,0
52680,note_on,61,0,1,,,,,,,,0,,,81,86
52680,note_on,0,0,1,,,,,,,,0,,,66,86
52680,note_on,1,0,4,,,,,,,,3,,,57,40
52734,note_on,54,0,1,,,,,,,,0,,,66,0
52734,note_on,0,0,1,,,,,,,,0,,,81,0
52739,note_on,59,0,4,,,,,,,,3,,,57,0
52740,note_on,1,0,4,,,,,,,,3,,,50,36
52794,note_on,54,0,4,,,,,,,,3,,,50,0
52800,note_on,0,0,4,,,,,,,,3,,,55,32
52800,control_change,66,0,1,,,,,,,,0,64,0,,
52800,note_on,0,0,1,,,,,,,,0,,,71,95
52800,note_on,0,0,1,,,,,,,,0,,,86,95
52800,control_change,6,0,4,,,,,,,,3,64,0,,
52800,control_change,960,0,2,,,,,,,,1,64,0,,
52840,control_change,40,0,2,,,,,,,,1,64,127,,
52853,control_change,53,0,1,,,,,,,,0,64,127,,
52853,control_change,53,0,4,,,,,,,,3,64,127,,
52859,note_on,6,0,4,,,,,,,,3,,,55,0
52860,note_on,1,0,4,,,,,,,,3,,,62,33
52919,note_on,59,0,4,,,,,,,,3,,,62,0
52920,note_on,1,0,4,,,,,,,,3,,,55,37
52979,note_on,59,0,4,,,,,,,,3,,,55,0
52980,note_on,1,0,4,,,,,,,,3,,,47,42
53039,note_on,59,0,4,,,,,,,,3,,,47,0
53040,note_on,1,0,4,,,,,,,,3,,,54,46
53099,note_on,59,0,4,,,,,,,,3,,,54,0
53100,note_on,1,0,4,,,,,,,,3,,,62,51
53147,control_change,47,0,4,,,,,,,,3,64,0,,
53159,note_on,306,0,1,,,,,,,,0,,,86,0
53159,note_on,0,0,1,,,,,,,,0,,,71,0
53159,note_on,12,0,4,,,,,,,,3,,,62,0
53160,note_on,1,0,1,,,,,,,,0,,,84,94
53160,note_on,0,0,1,,,,,,,,0,,,69,94
53160,note_on,1,0,4,,,,,,,,3,,,54,55
53173,control_change,333,0,2,,,,,,,,1,64,0,,
53213,control_change,40,0,2,,,,,,,,1,64,127,,
53219,note_on,59,0,4,,,,,,,,3,,,54,0
53220,note_on,1,0,4,,,,,,,,3,,,50,60
53240,control_change,20,0,4,,,,,,,,3,64,127,,
53279,note_on,0,0,1,,,,,,,,0,,,84,0
53279,note_on,119,0,1,,,,,,,,0,,,69,0
53279,note_on,39,0,4,,,,,,,,3,,,50,0
53280,note_on,1,0,1,,,,,,,,0,,,67,74
53280,note_on,1,0,4,,,,,,,,3,,,55,61
53280,note_on,0,0,1,,,,,,,,0,,,83,74
53339,note_on,59,0,4,,,,,,,,3,,,55,0
53340,note_on,1,0,4,,,,,,,,3,,,59,57
53399,note_on,59,0,4,,,,,,,,3,,,59,0
53400,note_on,1,0,4,,,,,,,,3,,,55,52
53459,note_on,59,0,4,,,,,,,,3,,,55,0
53460,note_on,1,0,4,,,,,,,,3,,,50,47
53507,note_on,47,0,4,,,,,,,,3,,,50,0
53508,note_on,1,0,4,,,,,,,,3,,,43,43
53555,note_on,47,0,4,,,,,,,,3,,,43,0
53556,note_on,1,0,4,,,,,,,,3,,,50,39
53603,note_on,47,0,4,,,,,,,,3,,,50,0
53604,note_on,1,0,4,,,,,,,,3,,,55,35
53640,control_change,427,0,2,,,,,,,,1,64,0,,
53651,note_on,47,0,4,,,,,,,,3,,,55,0
53652,note_on,1,0,4,,,,,,,,3,,,59,31
53693,control_change,41,0,4,,,,,,,,3,64,0,,
53699,note_on,6,0,4,,,,,,,,3,,,59,0
53700,note_on,1,0,4,,,,,,,,3,,,62,29
53712,note_on,0,0,1,,,,,,,,0,,,67,0
53712,note_on,432,0,1,,,,,,,,0,,,83,0
53732,note_on,32,0,4,,,,,,,,3,,,62,0
53760,control_change,120,0,2,,,,,,,,1,64,127,,
53760,note_on,0,0,2,,,,,,,,1,,,67,64
53760,control_change,2184,0,3,,,,,,,,2,64,127,,
53760,note_on,0,0,3,,,,,,,,2,,,55,64
53760,note_on,0,0,3,,,,,,,,2,,,47,64
53800,control_change,68,0,4,,,,,,,,3,64,127,,
53813,control_change,101,0,1,,,,,,,,0,64,0,,
53819,note_on,59,0,2,,,,,,,,1,,,67,0
53820,note_on,1,0,2,,,,,,,,1,,,74,62
53879,note_on,59,0,2,,,,,,,,1,,,74,0
53880,note_on,1,0,2,,,,,,,,1,,,67,60
53939,note_on,59,0,2,,,,,,,,1,,,67,0
53940,note_on,1,0,2,,,,,,,,1,,,62,58
53999,note_on,0,0,3,,,,,,,,2,,,55,0
53999,note_on,59,0,2,,,,,,,,1,,,62,0
53999,note_on,239,0,3,,,,,,,,2,,,47,0
54000,note_on,1,0,3,,,,,,,,2,,,57,76
54000,note_on,0,0,3,,,,,,,,2,,,50,76
54000,note_on,1,0,2,,,,,,,,1,,,66,56
54059,note_on,59,0,2,,,,,,,,1,,,66,0
54060,note_on,1,0,2,,,,,,,,1,,,72,53
54119,note_on,59,0,2,,,,,,,,1,,,72,0
54120,note_on,1,0,2,,,,,,,,1,,,66,51
54173,control_change,53,0,2,,,,,,,,1,64,0,,
54179,note_on,6,0,2,,,,,,,,1,,,66,0
54180,note_on,1,0,2,,,,,,,,1,,,62,49
54213,control_change,413,0,4,,,,,,,,3,64,0,,
54239,note_on,59,0,2,,,,,,,,1,,,62,0
54239,note_on,0,0,3,,,,,,,,2,,,57,0
54239,note_on,239,0,3,,,,,,,,2,,,50,0
54240,note_on,0,0,3,,,,,,,,2,,,55,87
54240,note_on,1,0,3,,,,,,,,2,,,59,87
54240,note_on,1,0,2,,,,,,,,1,,,67,47
54299,note_on,59,0,2,,,,,,,,1,,,67,0
54300,note_on,1,0,2,,,,,,,,1,,,71,45
54359,note_on,59,0,2,,,,,,,,1,,,71,0
54360,note_on,1,0,2,,,,,,,,1,,,67,42
54419,note_on,59,0,2,,,,,,,,1,,,67,0
54420,note_on,1,0,2,,,,,,,,1,,,62,40
54456,note_on,0,0,3,,,,,,,,2,,,59,0
54456,note_on,216,0,3,,,,,,,,2,,,55,0
54479,note_on,59,0,2,,,,,,,,1,,,62,0
54480,note_on,1,0,2,,,,,,,,1,,,59,38
54539,note_on,59,0,2,,,,,,,,1,,,59,0
54540,note_on,1,0,2,,,,,,,,1,,,55,36
54599,note_on,59,0,2,,,,,,,,1,,,55,0
54600,note_on,1,0,2,,,,,,,,1,,,50,33
54659,note_on,59,0,2,,,,,,,,1,,,50,0
54660,note_on,1,0,2,,,,,,,,1,,,47,31
54714,note_on,54,0,2,,,,,,,,1,,,47,0
54720,control_change,507,0,4,,,,,,,,3,64,127,,
54720,note_on,0,0,1,,,,,,,,0,,,67,68
54720,control_change,907,0,1,,,,,,,,0,64,127,,
54720,note_on,0,0,4,,,,,,,,3,,,40,27
54720,control_change,264,0,3,,,,,,,,2,64,0,,
54720,control_change,6,0,2,,,,,,,,1,64,127,,
54760,note_on,40,0,1,,,,,,,,0,,,76,78
54779,note_on,59,0,4,,,,,,,,3,,,40,0
54780,note_on,1,0,4,,,,,,,,3,,,47,37
54800,note_on,40,0,1,,,,,,,,0,,,83,91
54839,note_on,59,0,4,,,,,,,,3,,,47,0
54840,note_on,1,0,4,,,,,,,,3,,,52,41
54899,note_on,59,0,4,,,,,,,,3,,,52,0
54900,note_on,1,0,4,,,,,,,,3,,,59,45
54959,note_on,0,0,1,,,,,,,,0,,,67,0
54959,note_on,0,0,1,,,,,,,,0,,,76,0
54959,note_on,159,0,1,,,,,,,,0,,,83,0
54959,note_on,59,0,4,,,,,,,,3,,,59,0
54960,note_on,1,0,1,,,,,,,,0,,,67,66
54960,note_on,1,0,4,,,,,,,,3,,,64,49
54999,note_on,39,0,1,,,,,,,,0,,,67,0
55000,note_on,1,0,1,,,,,,,,0,,,76,74
55019,note_on,59,0,4,,,,,,,,3,,,64,0
55020,note_on,1,0,4,,,,,,,,3,,,59,53
55039,note_on,39,0,1,,,,,,,,0,,,76,0
55040,note_on,1,0,1,,,,,,,,0,,,83,82
55079,note_on,59,0,4,,,,,,,,3,,,59,0
55079,note_on,39,0,1,,,,,,,,0,,,83,0
55080,note_on,1,0,4,,,,,,,,3,,,52,57
55080,note_on,1,0,1,,,,,,,,0,,,67,73
55119,note_on,39,0,1,,,,,,,,0,,,67,0
55120,note_on,1,0,1,,,,,,,,0,,,76,79
55139,note_on,59,0,4,,,,,,,,3,,,52,0
55140,note_on,1,0,4,,,,,,,,3,,,47,61
55159,note_on,39,0,1,,,,,,,,0,,,76,0
55160,note_on,1,0,1,,,,,,,,0,,,83,86
55199,note_on,59,0,4,,,,,,,,3,,,47,0
55199,note_on,39,0,1,,,,,,,,0,,,83,0
55200,note_on,1,0,4,,,,,,,,3,,,40,65
55200,note_on,1,0,1,,,,,,,,0,,,71,86
55240,note_on,40,0,1,,,,,,,,0,,,79,90
55259,note_on,59,0,4,,,,,,,,3,,,40,0
55260,note_on,1,0,4,,,,,,,,3,,,47,62
55280,note_on,40,0,1,,,,,,,,0,,,88,96
55319,note_on,59,0,4,,,,,,,,3,,,47,0
55320,note_on,1,0,4,,,,,,,,3,,,52,58
55379,note_on,59,0,4,,,,,,,,3,,,52,0
55380,note_on,1,0,4,,,,,,,,3,,,59,55
55439,note_on,0,0,1,,,,,,,,0,,,71,0
55439,note_on,59,0,4,,,,,,,,3,,,59,0
55439,note_on,0,0,1,,,,,,,,0,,,79,0
55439,note_on,159,0,1,,,,,,,,0,,,88,0
55440,note_on,1,0,4,,,,,,,,3,,,64,51
55440,note_on,1,0,1,,,,,,,,0,,,67,81
55480,note_on,40,0,1,,,,,,,,0,,,76,87
55499,note_on,59,0,4,,,,,,,,3,,,64,0
55500,note_on,1,0,4,,,,,,,,3,,,59,47
55520,note_on,40,0,1,,,,,,,,0,,,83,92
55559,note_on,59,0,4,,,,,,,,3,,,59,0
55560,note_on,1,0,4,,,,,,,,3,,,52,43
55590,control_change,30,0,4,,,,,,,,3,64,0,,
55619,note_on,29,0,4,,,,,,,,3,,,52,0
55620,control_change,100,0,1,,,,,,,,0,64,0,,
55620,note_on,1,0,4,,,,,,,,3,,,47,39
55668,note_on,0,0,1,,,,,,,,0,,,76,0
55668,note_on,0,0,1,,,,,,,,0,,,67,0
55668,note_on,48,0,1,,,,,,,,0,,,83,0
55674,note_on,54,0,4,,,,,,,,3,,,47,0
55680,note_on,12,0,1,,,,,,,,0,,,69,96
55680,control_change,960,0,2,,,,,,,,1,64,0,,
55680,control_change,960,0,3,,,,,,,,2,64,127,,
55680,note_on,0,0,4,,,,,,,,3,,,40,36
55680,control_change,6,0,4,,,,,,,,3,64,127,,
55720,note_on,40,0,1,,,,,,,,0,,,76,83
55733,control_change,13,0,1,,,,,,,,0,64,127,,
55739,note_on,59,0,4,,,,,,,,3,,,40,0
55740,note_on,1,0,4,,,,,,,,3,,,48,35
55760,note_on,27,0,1,,,,,,,,0,,,78,88
55799,note_on,59,0,4,,,,,,,,3,,,48,0
55800,note_on,40,0,1,,,,,,,,0,,,84,93
55800,note_on,1,0,4,,,,,,,,3,,,52,39
55859,note_on,59,0,4,,,,,,,,3,,,52,0
55860,note_on,1,0,4,,,,,,,,3,,,60,44
55919,note_on,119,0,1,,,,,,,,0,,,84,0
55919,note_on,0,0,1,,,,,,,,0,,,69,0
55919,note_on,59,0,4,,,,,,,,3,,,60,0
55919,note_on,0,0,1,,,,,,,,0,,,76,0
55919,note_on,0,0,1,,,,,,,,0,,,78,0
55920,note_on,1,0,1,,,,,,,,0,,,66,85
55920,note_on,1,0,4,,,,,,,,3,,,64,48
55960,note_on,40,0,1,,,,,,,,0,,,72,88
55973,control_change,13,0,1,,,,,,,,0,64,0,,
55979,note_on,59,0,4,,,,,,,,3,,,64,0
55980,note_on,1,0,4,,,,,,,,3,,,60,53
56000,note_on,27,0,1,,,,,,,,0,,,76,91
56039,note_on,59,0,4,,,,,,,,3,,,60,0
56040,note_on,40,0,1,,,,,,,,0,,,83,93
56040,note_on,1,0,4,,,,,,,,3,,,52,57
56053,control_change,373,0,2,,,,,,,,1,64,127,,
56053,control_change,13,0,4,,,,,,,,3,64,0,,
56067,control_change,27,0,1,,,,,,,,0,64,127,,
56099,note_on,46,0,4,,,,,,,,3,,,52,0
56100,note_on,47,0,2,,,,,,,,1,,,81,64
56100,note_on,1,0,4,,,,,,,,3,,,48,61
56147,control_change,47,0,4,,,,,,,,3,64,127,,
56154,note_on,54,0,2,,,,,,,,1,,,81,0
56159,note_on,0,0,1,,,,,,,,0,,,76,0
56159,note_on,92,0,1,,,,,,,,0,,,83,0
56159,note_on,0,0,1,,,,,,,,0,,,66,0
56159,note_on,12,0,4,,,,,,,,3,,,48,0
56159,note_on,0,0,1,,,,,,,,0,,,72,0
56160,note_on,1,0,4,,,,,,,,3,,,40,63
56160,note_on,1,0,1,,,,,,,,0,,,67,89
56199,note_on,39,0,1,,,,,,,,0,,,67,0
56200,note_on,1,0,1,,,,,,,,0,,,71,93
56219,note_on,59,0,4,,,,,,,,3,,,40,0
56220,note_on,1,0,4,,,,,,,,3,,,47,60
56239,note_on,39,0,1,,,,,,,,0,,,71,0
56240,note_on,1,0,1,,,,,,,,0,,,83,98
56240,note_on,0,0,1,,,,,,,,0,,,76,98
56276,note_on,0,0,1,,,,,,,,0,,,83,0
56276,note_on,36,0,1,,,,,,,,0,,,76,0
56279,note_on,59,0,4,,,,,,,,3,,,47,0
56280,note_on,1,0,4,,,,,,,,3,,,52,55
56280,note_on,600,0,3,,,,,,,,2,,,52,61
56339,note_on,59,0,4,,,,,,,,3,,,52,0
56340,note_on,1,0,4,,,,,,,,3,,,55,51
56399,note_on,119,0,3,,,,,,,,2,,,52,0
56399,note_on,59,0,4,,,,,,,,3,,,55,0
56400,note_on,1,0,3,,,,,,,,2,,,52,62
56400,note_on,1,0,4,,,,,,,,3,,,59,47
56459,note_on,59,0,4,,,,,,,,3,,,59,0
56460,note_on,1,0,4,,,,,,,,3,,,64,43
56519,note_on,119,0,3,,,,,,,,2,,,52,0
56519,note_on,59,0,4,,,,,,,,3,,,64,0
56520,note_on,1,0,3,,,,,,,,2,,,52,64
56520,note_on,1,0,4,,,,,,,,3,,,67,39
56533,control_change,13,0,4,,,,,,,,3,64,0,,
56547,control_change,27,0,3,,,,,,,,2,64,0,,
56579,note_on,46,0,4,,,,,,,,3,,,67,0
56580,note_on,1,0,4,,,,,,,,3,,,76,34
56628,note_on,81,0,3,,,,,,,,2,,,52,0
56634,note_on,54,0,4,,,,,,,,3,,,76,0
56640,note_on,0,0,4,,,,,,,,3,,,69,64
56640,control_change,6,0,4,,,,,,,,3,64,127,,
56640,control_change,12,0,3,,,,,,,,2,64,127,,
56640,note_on,0,0,3,,,,,,,,2,,,60,66
56640,note_on,0,0,3,,,,,,,,2,,,52,66
56640,note_on,0,0,4,,,,,,,,3,,,66,64
56699,note_on,59,0,4,,,,,,,,3,,,66,0
56699,note_on,0,0,4,,,,,,,,3,,,69,0
56700,note_on,1,0,4,,,,,,,,3,,,76,30
56759,note_on,59,0,4,,,,,,,,3,,,76,0
56760,note_on,0,0,4,,,,,,,,3,,,66,35
56760,note_on,1,0,4,,,,,,,,3,,,69,35
56819,note_on,0,0,4,,,,,,,,3,,,69,0
56819,note_on,59,0,4,,,,,,,,3,,,66,0
56820,note_on,1,0,4,,,,,,,,3,,,64,40
56879,note_on,239,0,3,,,,,,,,2,,,52,0
56879,note_on,0,0,3,,,,,,,,2,,,60,0
56879,note_on,59,0,4,,,,,,,,3,,,64,0
56880,note_on,1,0,4,,,,,,,,3,,,72,44
56880,note_on,0,0,3,,,,,,,,2,,,52,69
56880,note_on,0,0,3,,,,,,,,2,,,59,69
56880,control_change,1,0,3,,,,,,,,2,64,0,,
56880,note_on,0,0,4,,,,,,,,3,,,66,44
56920,control_change,40,0,3,,,,,,,,2,64,127,,
56939,note_on,59,0,4,,,,,,,,3,,,66,0
56939,note_on,0,0,4,,,,,,,,3,,,72,0
56940,note_on,1,0,4,,,,,,,,3,,,76,49
56999,note_on,79,0,3,,,,,,,,2,,,59,0
56999,note_on,59,0,4,,,,,,,,3,,,76,0
57000,note_on,0,0,4,,,,,,,,3,,,66,54
57000,note_on,1,0,3,,,,,,,,2,,,57,70
57000,note_on,1,0,4,,,,,,,,3,,,72,54
57010,control_change,10,0,4,,,,,,,,3,64,0,,
57013,control_change,859,0,2,,,,,,,,1,64,0,,
57027,control_change,751,0,1,,,,,,,,0,64,0,,
57059,note_on,49,0,4,,,,,,,,3,,,66,0
57059,note_on,0,0,4,,,,,,,,3,,,72,0
57060,control_change,1,0,4,,,,,,,,3,64,127,,
57060,note_on,0,0,4,,,,,,,,3,,,64,59
57119,note_on,0,0,3,,,,,,,,2,,,52,0
57119,note_on,119,0,3,,,,,,,,2,,,57,0
57119,note_on,59,0,4,,,,,,,,3,,,64,0
57120,note_on,1,0,3,,,,,,,,2,,,59,72
57120,note_on,0,0,3,,,,,,,,2,,,52,72
57120,note_on,0,0,4,,,,,,,,3,,,67,62
57120,note_on,1,0,4,,,,,,,,3,,,71,62
57137,set_tempo,8201,1,0,,,,,,1151190,,,,,,
57179,note_on,0,0,4,,,,,,,,3,,,71,0
57179,note_on,59,0,4,,,,,,,,3,,,67,0
57180,note_on,1,0,4,,,,,,,,3,,,76,59
57187,set_tempo,50,1,0,,,,,,1161890,,,,,,
57220,set_tempo,33,1,0,,,,,,1172791,,,,,,
57239,note_on,59,0,4,,,,,,,,3,,,76,0
57240,note_on,0,0,4,,,,,,,,3,,,67,55
57240,note_on,1,0,4,,,,,,,,3,,,71,55
57253,set_tempo,33,1,0,,,,,,1183899,,,,,,
57299,note_on,59,0,4,,,,,,,,3,,,67,0
57299,note_on,0,0,4,,,,,,,,3,,,71,0
57300,control_change,180,0,3,,,,,,,,2,64,0,,
57300,note_on,1,0,4,,,,,,,,3,,,64,51
57302,set_tempo,49,1,0,,,,,,1195219,,,,,,
57336,set_tempo,34,1,0,,,,,,1206758,,,,,,
57359,note_on,59,0,4,,,,,,,,3,,,64,0
57360,note_on,1,0,4,,,,,,,,3,,,59,47
57369,set_tempo,33,1,0,,,,,,1218522,,,,,,
57418,set_tempo,49,1,0,,,,,,1230517,,,,,,
57419,note_on,59,0,4,,,,,,,,3,,,59,0
57420,note_on,1,0,4,,,,,,,,3,,,55,43
57451,set_tempo,33,1,0,,,,,,1242751,,,,,,
57479,note_on,59,0,4,,,,,,,,3,,,55,0
57480,note_on,1,0,4,,,,,,,,3,,,52,40
57484,set_tempo,33,1,0,,,,,,1255230,,,,,,
57534,set_tempo,50,1,0,,,,,,1267963,,,,,,
57539,note_on,59,0,4,,,,,,,,3,,,52,0
57540,note_on,1,0,4,,,,,,,,3,,,47,36
57550,control_change,10,0,4,,,,,,,,3,64,0,,
57552,note_on,252,0,3,,,,,,,,2,,,52,0
57552,note_on,0,0,3,,,,,,,,2,,,59,0
57567,set_tempo,33,1,0,,,,,,1280956,,,,,,
57594,note_on,44,0,4,,,,,,,,3,,,47,0
57600,note_on,0,0,1,,,,,,,,0,,,83,77
57600,note_on,0,0,1,,,,,,,,0,,,67,77
57600,note_on,0,0,1,,,,,,,,0,,,76,77
57600,control_change,573,0,1,,,,,,,,0,64,127,,
57600,set_tempo,33,1,0,,,,,,1294219,,,,,,
57600,note_on,6,0,4,,,,,,,,3,,,40,35
57650,set_tempo,50,1,0,,,,,,1307759,,,,,,
57653,control_change,53,0,4,,,,,,,,3,64,127,,
57659,note_on,6,0,4,,,,,,,,3,,,40,0
57660,note_on,1,0,4,,,,,,,,3,,,47,38
57683,set_tempo,33,1,0,,,,,,1321586,,,,,,
57716,set_tempo,33,1,0,,,,,,1335708,,,,,,
57719,note_on,59,0,4,,,,,,,,3,,,47,0
57720,note_on,1,0,4,,,,,,,,3,,,52,42
57779,note_on,59,0,4,,,,,,,,3,,,52,0
57780,note_on,1,0,4,,,,,,,,3,,,59,45
57839,note_on,0,0,1,,,,,,,,0,,,67,0
57839,note_on,59,0,4,,,,,,,,3,,,59,0
57839,note_on,239,0,1,,,,,,,,0,,,83,0
57839,note_on,0,0,1,,,,,,,,0,,,76,0
57840,note_on,1,0,1,,,,,,,,0,,,71,85
57840,note_on,0,0,1,,,,,,,,0,,,67,85
57840,note_on,0,0,1,,,,,,,,0,,,79,85
57840,note_on,1,0,4,,,,,,,,3,,,64,49
57899,note_on,59,0,4,,,,,,,,3,,,64,0
57900,note_on,1,0,4,,,,,,,,3,,,59,52
57959,note_on,119,0,1,,,,,,,,0,,,79,0
57959,note_on,0,0,1,,,,,,,,0,,,71,0
57959,note_on,59,0,4,,,,,,,,3,,,59,0
57959,note_on,0,0,1,,,,,,,,0,,,67,0
57960,note_on,1,0,1,,,,,,,,0,,,69,89
57960,note_on,0,0,1,,,,,,,,0,,,66,89
57960,note_on,0,0,1,,,,,,,,0,,,78,89
57960,note_on,1,0,4,,,,,,,,3,,,52,56
58019,note_on,59,0,4,,,,,,,,3,,,52,0
58020,note_on,1,0,4,,,,,,,,3,,,47,59
58079,note_on,59,0,4,,,,,,,,3,,,47,0
58079,note_on,119,0,1,,,,,,,,0,,,78,0
58079,note_on,0,0,1,,,,,,,,0,,,66,0
58079,note_on,0,0,1,,,,,,,,0,,,69,0
58080,note_on,0,0,1,,,,,,,,0,,,64,93
58080,note_on,1,0,1,,,,,,,,0,,,67,93
58080,note_on,1,0,4,,,,,,,,3,,,40,63
58080,note_on,0,0,1,,,,,,,,0,,,76,93
58139,note_on,59,0,4,,,,,,,,3,,,40,0
58140,note_on,1,0,4,,,,,,,,3,,,47,61
58199,note_on,59,0,4,,,,,,,,3,,,47,0
58200,note_on,1,0,4,,,,,,,,3,,,52,56
58259,note_on,59,0,4,,,,,,,,3,,,52,0
58260,note_on,1,0,4,,,,,,,,3,,,59,51
58319,note_on,0,0,1,,,,,,,,0,,,67,0
58319,note_on,239,0,1,,,,,,,,0,,,76,0
58319,note_on,59,0,4,,,,,,,,3,,,59,0
58319,note_on,0,0,1,,,,,,,,0,,,64,0
58320,note_on,1,0,1,,,,,,,,0,,,83,91
58320,note_on,0,0,4,,,,,,,,3,,,64,46
58320,note_on,1,0,4,,,,,,,,3,,,67,46
58320,note_on,0,0,1,,,,,,,,0,,,91,91
58320,note_on,0,0,1,,,,,,,,0,,,79,91
58379,note_on,0,0,4,,,,,,,,3,,,67,0
58379,note_on,59,0,4,,,,,,,,3,,,64,0
58380,note_on,1,0,4,,,,,,,,3,,,59,41
58439,note_on,119,0,1,,,,,,,,0,,,91,0
58439,note_on,0,0,1,,,,,,,,0,,,79,0
58439,note_on,0,0,1,,,,,,,,0,,,83,0
58439,note_on,59,0,4,,,,,,,,3,,,59,0
58440,note_on,1,0,1,,,,,,,,0,,,91,87
58440,note_on,0,0,1,,,,,,,,0,,,79,87
58440,note_on,1,0,4,,,,,,,,3,,,52,36
58440,note_on,0,0,1,,,,,,,,0,,,83,87
58480,control_change,40,0,1,,,,,,,,0,64,0,,
58493,control_change,53,0,4,,,,,,,,3,64,0,,
58499,note_on,6,0,4,,,,,,,,3,,,52,0
58500,note_on,1,0,4,,,,,,,,3,,,47,31
58548,note_on,0,0,1,,,,,,,,0,,,91,0
58548,note_on,68,0,1,,,,,,,,0,,,83,0
58554,note_on,54,0,4,,,,,,,,3,,,47,0
58560,control_change,6,0,4,,,,,,,,3,64,127,,
58560,note_on,0,0,4,,,,,,,,3,,,40,26
58560,note_on,0,0,1,,,,,,,,0,,,81,82
58560,control_change,12,0,1,,,,,,,,0,64,127,,
58560,note_on,0,0,1,,,,,,,,0,,,90,82
58560,note_on,0,0,1,,,,,,,,0,,,78,82
58619,note_on,59,0,4,,,,,,,,3,,,40,0
58620,note_on,1,0,4,,,,,,,,3,,,48,30
58679,note_on,59,0,4,,,,,,,,3,,,48,0
58680,note_on,1,0,4,,,,,,,,3,,,51,35
58739,note_on,59,0,4,,,,,,,,3,,,51,0
58740,note_on,1,0,4,,,,,,,,3,,,57,40
58799,note_on,0,0,1,,,,,,,,0,,,78,0
58799,note_on,0,0,1,,,,,,,,0,,,90,0
58799,note_on,239,0,1,,,,,,,,0,,,81,0
58799,note_on,59,0,4,,,,,,,,3,,,57,0
58800,note_on,0,0,1,,,,,,,,0,,,78,73
58800,note_on,0,0,1,,,,,,,,0,,,75,73
58800,note_on,1,0,1,,,,,,,,0,,,87,73
58800,note_on,0,0,4,,,,,,,,3,,,60,45
58800,note_on,1,0,4,,,,,,,,3,,,63,45
58827,control_change,1275,0,3,,,,,,,,2,64,127,,
58859,note_on,59,0,4,,,,,,,,3,,,60,0
58859,note_on,0,0,4,,,,,,,,3,,,63,0
58860,note_on,1,0,4,,,,,,,,3,,,57,50
58893,control_change,93,0,1,,,,,,,,0,64,0,,
58919,note_on,59,0,4,,,,,,,,3,,,57,0
58920,note_on,27,0,1,,,,,,,,0,,,79,0
58920,note_on,0,0,4,,,,,,,,3,,,51,55
58920,control_change,1,0,4,,,,,,,,3,64,0,,
58933,control_change,13,0,1,,,,,,,,0,64,127,,
58973,control_change,53,0,4,,,,,,,,3,64,127,,
58979,note_on,6,0,4,,,,,,,,3,,,51,0
58980,note_on,1,0,4,,,,,,,,3,,,48,60
59039,note_on,0,0,1,,,,,,,,0,,,75,0
59039,note_on,106,0,1,,,,,,,,0,,,87,0
59039,note_on,59,0,4,,,,,,,,3,,,48,0
59039,note_on,0,0,1,,,,,,,,0,,,78,0
59040,note_on,1,0,1,,,,,,,,0,,,88,64
59040,note_on,0,0,1,,,,,,,,0,,,76,64
59040,note_on,0,0,1,,,,,,,,0,,,79,64
59040,note_on,1,0,4,,,,,,,,3,,,40,61
59099,note_on,59,0,4,,,,,,,,3,,,40,0
59100,note_on,1,0,4,,,,,,,,3,,,47,58
59148,note_on,0,0,1,,,,,,,,0,,,88,0
59148,note_on,0,0,1,,,,,,,,0,,,76,0
59148,note_on,108,0,1,,,,,,,,0,,,79,0
59159,note_on,59,0,4,,,,,,,,3,,,47,0
59160,note_on,333,0,3,,,,,,,,2,,,52,82
59160,note_on,1,0,4,,,,,,,,3,,,52,54
59219,note_on,59,0,4,,,,,,,,3,,,52,0
59220,note_on,1,0,4,,,,,,,,3,,,55,50
59279,note_on,119,0,3,,,,,,,,2,,,52,0
59279,note_on,59,0,4,,,,,,,,3,,,55,0
59280,note_on,1,0,3,,,,,,,,2,,,52,94
59280,note_on,1,0,4,,,,,,,,3,,,59,46
59339,note_on,59,0,4,,,,,,,,3,,,59,0
59340,note_on,1,0,4,,,,,,,,3,,,64,43
59399,note_on,59,0,4,,,,,,,,3,,,64,0
59399,note_on,119,0,3,,,,,,,,2,,,52,0
59400,note_on,1,0,3,,,,,,,,2,,,52,94
59400,note_on,1,0,4,,,,,,,,3,,,67,39
59427,control_change,27,0,3,,,,,,,,2,64,0,,
59453,control_change,53,0,4,,,,,,,,3,64,0,,
59459,note_on,6,0,4,,,,,,,,3,,,67,0
59460,note_on,1,0,4,,,,,,,,3,,,76,35
59508,note_on,81,0,3,,,,,,,,2,,,52,0
59514,note_on,54,0,4,,,,,,,,3,,,76,0
59520,note_on,0,0,2,,,,,,,,1,,,69,65
59520,control_change,2507,0,2,,,,,,,,1,64,127,,
59520,note_on,0,0,3,,,,,,,,2,,,60,93
59520,note_on,0,0,3,,,,,,,,2,,,52,93
59520,control_change,12,0,3,,,,,,,,2,64,127,,
59579,note_on,59,0,2,,,,,,,,1,,,69,0
59580,note_on,1,0,2,,,,,,,,1,,,72,63
59639,note_on,59,0,2,,,,,,,,1,,,72,0
59640,note_on,1,0,2,,,,,,,,1,,,69,61
59699,note_on,59,0,2,,,,,,,,1,,,69,0
59700,note_on,1,0,2,,,,,,,,1,,,64,59
59759,note_on,59,0,2,,,,,,,,1,,,64,0
59759,note_on,239,0,3,,,,,,,,2,,,60,0
59760,note_on,1,0,2,,,,,,,,1,,,69,57
59760,note_on,1,0,3,,,,,,,,2,,,63,95
59819,note_on,59,0,2,,,,,,,,1,,,69,0
59820,note_on,1,0,2,,,,,,,,1,,,72,55
59853,control_change,33,0,2,,,,,,,,1,64,0,,
59879,note_on,26,0,2,,,,,,,,1,,,72,0
59880,note_on,1,0,2,,,,,,,,1,,,69,53
59893,control_change,745,0,1,,,,,,,,0,64,0,,
59933,control_change,53,0,2,,,,,,,,1,64,127,,
59939,note_on,6,0,2,,,,,,,,1,,,69,0
59940,note_on,1,0,2,,,,,,,,1,,,66,51
59999,note_on,59,0,2,,,,,,,,1,,,66,0
59999,note_on,239,0,3,,,,,,,,2,,,63,0
60000,note_on,1,0,3,,,,,,,,2,,,64,95
60000,note_on,0,0,2,,,,,,,,1,,,71,49
60000,note_on,1,0,2,,,,,,,,1,,,67,49
60059,note_on,0,0,2,,,,,,,,1,,,67,0
60059,note_on,59,0,2,,,,,,,,1,,,71,0
60060,note_on,1,0,2,,,,,,,,1,,,76,46
60119,note_on,59,0,2,,,,,,,,1,,,76,0
60120,note_on,1,0,2,,,,,,,,1,,,67,44
60120,note_on,0,0,2,,,,,,,,1,,,71,44
60179,note_on,59,0,2,,,,,,,,1,,,71,0
60179,note_on,0,0,2,,,,,,,,1,,,67,0
60180,note_on,1,0,2,,,,,,,,1,,,64,42
60216,note_on,0,0,3,,,,,,,,2,,,52,0
60216,note_on,216,0,3,,,,,,,,2,,,64,0
60227,control_change,11,0,3,,,,,,,,2,64,0,,
60239,note_on,59,0,2,,,,,,,,1,,,64,0
60240,note_on,1,0,2,,,,,,,,1,,,59,40
60299,note_on,59,0,2,,,,,,,,1,,,59,0
60300,note_on,1,0,2,,,,,,,,1,,,55,38
60359,note_on,59,0,2,,,,,,,,1,,,55,0
60360,note_on,1,0,2,,,,,,,,1,,,52,36
60419,note_on,59,0,2,,,,,,,,1,,,52,0
60420,note_on,1,0,2,,,,,,,,1,,,47,34
60474,note_on,54,0,2,,,,,,,,1,,,47,0
60480,set_tempo,2764,1,0,,,,,,1653804,,,,,,
60480,control_change,966,0,4,,,,,,,,3,64,127,,
60480,note_on,0,0,4,,,,,,,,3,,,36,29
60480,control_change,587,0,1,,,,,,,,0,64,127,,
60480,note_on,0,0,1,,,,,,,,0,,,79,67
60480,note_on,0,0,1,,,,,,,,0,,,72,67
60480,note_on,0,0,1,,,,,,,,0,,,88,67
60495,control_change,21,0,2,,,,,,,,1,64,0,,
60539,note_on,59,0,4,,,,,,,,3,,,36,0
60540,control_change,45,0,2,,,,,,,,1,64,127,,
60540,note_on,1,0,4,,,,,,,,3,,,43,32
60599,note_on,59,0,4,,,,,,,,3,,,43,0
60600,note_on,1,0,4,,,,,,,,3,,,52,36
60659,note_on,59,0,4,,,,,,,,3,,,52,0
60660,note_on,1,0,4,,,,,,,,3,,,55,39
60719,note_on,59,0,4,,,,,,,,3,,,55,0
60720,note_on,1,0,4,,,,,,,,3,,,64,42
60779,note_on,59,0,4,,,,,,,,3,,,64,0
60780,note_on,1,0,4,,,,,,,,3,,,55,46
60839,note_on,59,0,4,,,,,,,,3,,,55,0
60840,note_on,1,0,4,,,,,,,,3,,,52,49
60899,note_on,59,0,4,,,,,,,,3,,,52,0
60900,note_on,1,0,4,,,,,,,,3,,,43,52
60959,note_on,0,0,1,,,,,,,,0,,,79,0
60959,note_on,0,0,1,,,,,,,,0,,,72,0
60959,note_on,479,0,1,,,,,,,,0,,,88,0
60959,note_on,59,0,4,,,,,,,,3,,,43,0
60960,note_on,1,0,1,,,,,,,,0,,,76,81
60960,note_on,0,0,1,,,,,,,,0,,,86,81
60960,note_on,0,0,1,,,,,,,,0,,,67,81
60960,note_on,1,0,4,,,,,,,,3,,,36,56
61019,note_on,59,0,4,,,,,,,,3,,,36,0
61020,note_on,1,0,4,,,,,,,,3,,,43,51
61079,note_on,119,0,1,,,,,,,,0,,,86,0
61079,note_on,0,0,1,,,,,,,,0,,,67,0
61079,note_on,0,0,1,,,,,,,,0,,,76,0
61079,note_on,59,0,4,,,,,,,,3,,,43,0
61080,note_on,1,0,4,,,,,,,,3,,,52,48
61139,note_on,59,0,4,,,,,,,,3,,,52,0
61140,note_on,1,0,4,,,,,,,,3,,,55,44
61199,note_on,59,0,4,,,,,,,,3,,,55,0
61200,note_on,1,0,4,,,,,,,,3,,,64,40
61200,note_on,0,0,1,,,,,,,,0,,,84,81
61200,note_on,121,0,1,,,,,,,,0,,,76,81
61200,note_on,0,0,1,,,,,,,,0,,,67,81
61259,note_on,59,0,4,,,,,,,,3,,,64,0
61260,note_on,1,0,4,,,,,,,,3,,,55,37
61308,note_on,0,0,1,,,,,,,,0,,,67,0
61308,note_on,0,0,1,,,,,,,,0,,,76,0
61308,note_on,108,0,1,,,,,,,,0,,,84,0
61319,note_on,59,0,4,,,,,,,,3,,,55,0
61320,note_on,1,0,4,,,,,,,,3,,,52,33
61320,control_change,12,0,1,,,,,,,,0,64,0,,
61379,note_on,59,0,4,,,,,,,,3,,,52,0
61380,note_on,0,0,4,,,,,,,,3,,,43,29
61380,control_change,1,0,4,,,,,,,,3,64,0,,
61434,note_on,54,0,4,,,,,,,,3,,,43,0
61440,note_on,0,0,1,,,,,,,,0,,,74,66
61440,control_change,120,0,1,,,,,,,,0,64,127,,
61440,note_on,0,0,1,,,,,,,,0,,,83,66
61440,note_on,0,0,1,,,,,,,,0,,,67,66
61440,note_on,6,0,4,,,,,,,,3,,,31,25
61499,note_on,59,0,4,,,,,,,,3,,,31,0
61500,note_on,1,0,4,,,,,,,,3,,,43,28
61500,control_change,960,0,2,,,,,,,,1,64,0,,
61530,control_change,30,0,4,,,,,,,,3,64,127,,
61559,note_on,0,0,1,,,,,,,,0,,,74,0
61559,note_on,0,0,1,,,,,,,,0,,,67,0
61559,note_on,119,0,1,,,,,,,,0,,,83,0
61559,note_on,29,0,4,,,,,,,,3,,,43,0
61560,note_on,1,0,4,,,,,,,,3,,,50,31
61619,note_on,59,0,4,,,,,,,,3,,,50,0
61620,note_on,1,0,4,,,,,,,,3,,,59,34
61679,note_on,59,0,4,,,,,,,,3,,,59,0
61680,note_on,1,0,4,,,,,,,,3,,,67,38
61680,note_on,121,0,1,,,,,,,,0,,,83,81
61680,note_on,0,0,1,,,,,,,,0,,,74,81
61680,note_on,0,0,1,,,,,,,,0,,,91,81
61739,note_on,59,0,4,,,,,,,,3,,,67,0
61740,note_on,1,0,4,,,,,,,,3,,,59,41
61799,note_on,0,0,1,,,,,,,,0,,,83,0
61799,note_on,0,0,1,,,,,,,,0,,,74,0
61799,note_on,59,0,4,,,,,,,,3,,,59,0
61799,note_on,119,0,1,,,,,,,,0,,,91,0
61800,control_change,1,0,1,,,,,,,,0,64,0,,
61800,note_on,1,0,4,,,,,,,,3,,,50,44
61815,control_change,15,0,4,,,,,,,,3,64,0,,
61845,control_change,45,0,1,,,,,,,,0,64,127,,
61859,note_on,44,0,4,,,,,,,,3,,,50,0
61860,note_on,1,0,4,,,,,,,,3,,,43,48
61890,control_change,30,0,4,,,,,,,,3,64,127,,
61919,note_on,29,0,4,,,,,,,,3,,,43,0
61920,note_on,0,0,1,,,,,,,,0,,,72,67
61920,note_on,75,0,1,,,,,,,,0,,,88,67
61920,note_on,1,0,4,,,,,,,,3,,,36,49
61920,note_on,0,0,1,,,,,,,,0,,,79,67
61979,note_on,59,0,4,,,,,,,,3,,,36,0
61980,note_on,1,0,4,,,,,,,,3,,,43,46
62039,note_on,119,0,1,,,,,,,,0,,,79,0
62039,note_on,59,0,4,,,,,,,,3,,,43,0
62039,note_on,0,0,1,,,,,,,,0,,,88,0
62039,note_on,0,0,1,,,,,,,,0,,,72,0
62040,note_on,1,0,4,,,,,,,,3,,,52,43
62099,note_on,59,0,4,,,,,,,,3,,,52,0
62100,note_on,1,0,4,,,,,,,,3,,,55,40
62159,note_on,59,0,4,,,,,,,,3,,,55,0
62160,note_on,0,0,1,,,,,,,,0,,,67,62
62160,note_on,0,0,1,,,,,,,,0,,,76,62
62160,note_on,1,0,4,,,,,,,,3,,,64,37
62160,note_on,121,0,1,,,,,,,,0,,,84,62
62219,note_on,59,0,4,,,,,,,,3,,,64,0
62220,note_on,1,0,4,,,,,,,,3,,,55,34
62268,note_on,108,0,1,,,,,,,,0,,,76,0
62268,note_on,0,0,1,,,,,,,,0,,,67,0
62268,note_on,0,0,1,,,,,,,,0,,,84,0
62279,note_on,59,0,4,,,,,,,,3,,,55,0
62280,control_change,12,0,1,,,,,,,,0,64,0,,
62280,note_on,1,0,4,,,,,,,,3,,,52,31
62325,control_change,45,0,4,,,,,,,,3,64,0,,
62339,note_on,14,0,4,,,,,,,,3,,,52,0
62340,note_on,1,0,4,,,,,,,,3,,,43,28
62394,note_on,54,0,4,,,,,,,,3,,,43,0
62400,note_on,0,0,1,,,,,,,,0,,,83,58
62400,note_on,0,0,4,,,,,,,,3,,,38,21
62400,control_change,6,0,4,,,,,,,,3,64,127,,
62400,control_change,120,0,1,,,,,,,,0,64,127,,
62400,note_on,0,0,1,,,,,,,,0,,,67,58
62400,note_on,0,0,1,,,,,,,,0,,,74,58
62459,note_on,59,0,4,,,,,,,,3,,,38,0
62460,note_on,1,0,4,,,,,,,,3,,,47,25
62519,note_on,59,0,4,,,,,,,,3,,,47,0
62520,note_on,1,0,4,,,,,,,,3,,,55,27
62579,note_on,59,0,4,,,,,,,,3,,,55,0
62580,note_on,1,0,4,,,,,,,,3,,,62,31
62639,note_on,59,0,4,,,,,,,,3,,,62,0
62640,note_on,1,0,4,,,,,,,,3,,,71,34
62699,note_on,59,0,4,,,,,,,,3,,,71,0
62700,note_on,1,0,4,,,,,,,,3,,,62,38
62759,note_on,59,0,4,,,,,,,,3,,,62,0
62760,note_on,0,0,4,,,,,,,,3,,,55,41
62760,control_change,1,0,4,,,,,,,,3,64,0,,
62819,note_on,59,0,4,,,,,,,,3,,,55,0
62820,note_on,1,0,4,,,,,,,,3,,,47,44
62827,control_change,427,0,1,,,,,,,,0,64,0,,
62879,note_on,59,0,4,,,,,,,,3,,,47,0
62879,note_on,0,0,1,,,,,,,,0,,,83,0
62879,note_on,0,0,1,,,,,,,,0,,,67,0
62879,note_on,52,0,1,,,,,,,,0,,,74,0
62880,control_change,1,0,1,,,,,,,,0,64,127,,
62880,note_on,1,0,4,,,,,,,,3,,,40,48
62880,note_on,0,0,1,,,,,,,,0,,,83,81
62880,note_on,0,0,1,,,,,,,,0,,,67,81
62880,note_on,0,0,1,,,,,,,,0,,,73,81
62893,control_change,13,0,4,,,,,,,,3,64,127,,
62939,note_on,46,0,4,,,,,,,,3,,,40,0
62940,note_on,1,0,4,,,,,,,,3,,,47,48
62999,note_on,59,0,4,,,,,,,,3,,,47,0
63000,note_on,1,0,4,,,,,,,,3,,,52,45
63059,note_on,59,0,4,,,,,,,,3,,,52,0
63060,note_on,1,0,4,,,,,,,,3,,,61,41
63119,note_on,59,0,4,,,,,,,,3,,,61,0
63120,note_on,1,0,4,,,,,,,,3,,,71,37
63179,note_on,59,0,4,,,,,,,,3,,,71,0
63180,note_on,1,0,4,,,,,,,,3,,,61,34
63239,note_on,59,0,4,,,,,,,,3,,,61,0
63240,note_on,1,0,4,,,,,,,,3,,,52,30
63280,control_change,400,0,1,,,,,,,,0,64,0,,
63293,control_change,53,0,4,,,,,,,,3,64,0,,
63299,note_on,6,0,4,,,,,,,,3,,,52,0
63300,note_on,1,0,4,,,,,,,,3,,,47,27
63312,note_on,0,0,1,,,,,,,,0,,,83,0
63312,note_on,0,0,1,,,,,,,,0,,,67,0
63312,note_on,32,0,1,,,,,,,,0,,,73,0
63354,note_on,54,0,4,,,,,,,,3,,,47,0
63360,control_change,48,0,1,,,,,,,,0,64,127,,
63360,note_on,0,0,4,,,,,,,,3,,,38,22
63360,control_change,6,0,4,,,,,,,,3,64,127,,
63360,control_change,1860,0,2,,,,,,,,1,64,127,,
63360,note_on,0,0,2,,,,,,,,1,,,74,40
63360,note_on,0,0,2,,,,,,,,1,,,67,40
63360,note_on,0,0,1,,,,,,,,0,,,83,81
63419,note_on,59,0,4,,,,,,,,3,,,38,0
63420,note_on,1,0,4,,,,,,,,3,,,47,25
63479,note_on,59,0,4,,,,,,,,3,,,47,0
63480,note_on,1,0,4,,,,,,,,3,,,55,28
63539,note_on,59,0,4,,,,,,,,3,,,55,0
63540,note_on,1,0,4,,,,,,,,3,,,62,31
63599,note_on,59,0,4,,,,,,,,3,,,62,0
63600,note_on,1,0,4,,,,,,,,3,,,71,36
63659,note_on,59,0,4,,,,,,,,3,,,71,0
63660,note_on,1,0,4,,,,,,,,3,,,62,39
63690,control_change,330,0,1,,,,,,,,0,64,0,,
63719,note_on,59,0,4,,,,,,,,3,,,62,0
63720,note_on,1,0,4,,,,,,,,3,,,55,42
63765,control_change,75,0,1,,,,,,,,0,64,127,,
63779,note_on,59,0,4,,,,,,,,3,,,55,0
63779,note_on,14,0,1,,,,,,,,0,,,83,0
63780,note_on,1,0,1,,,,,,,,0,,,81,69
63780,note_on,1,0,4,,,,,,,,3,,,47,45
63825,control_change,45,0,4,,,,,,,,3,64,0,,
63839,note_on,0,0,2,,,,,,,,1,,,74,0
63839,note_on,59,0,1,,,,,,,,0,,,81,0
63839,note_on,479,0,2,,,,,,,,1,,,67,0
63839,note_on,14,0,4,,,,,,,,3,,,47,0
63840,note_on,1,0,2,,,,,,,,1,,,74,38
63840,note_on,0,0,2,,,,,,,,1,,,66,38
63840,note_on,0,0,2,,,,,,,,1,,,72,38
63840,note_on,1,0,1,,,,,,,,0,,,81,81
63840,note_on,1,0,4,,,,,,,,3,,,38,47
63899,note_on,59,0,4,,,,,,,,3,,,38,0
63900,note_on,1,0,4,,,,,,,,3,,,50,45
63945,control_change,45,0,4,,,,,,,,3,64,127,,
63959,note_on,14,0,4,,,,,,,,3,,,50,0
63960,note_on,1,0,4,,,,,,,,3,,,54,41
64019,note_on,59,0,4,,,,,,,,3,,,54,0
64020,note_on,1,0,4,,,,,,,,3,,,62,38
64079,note_on,59,0,4,,,,,,,,3,,,62,0
64080,note_on,1,0,4,,,,,,,,3,,,69,35
64125,control_change,285,0,2,,,,,,,,1,64,0,,
64139,note_on,59,0,4,,,,,,,,3,,,69,0
64140,note_on,1,0,4,,,,,,,,3,,,62,33
64199,note_on,59,0,4,,,,,,,,3,,,62,0
64200,note_on,1,0,4,,,,,,,,3,,,54,29
64230,control_change,30,0,4,,,,,,,,3,64,0,,
64259,note_on,419,0,1,,,,,,,,0,,,81,0
64259,note_on,29,0,4,,,,,,,,3,,,54,0
64260,note_on,1,0,4,,,,,,,,3,,,50,34
64260,note_on,1,0,1,,,,,,,,0,,,79,56
64272,note_on,147,0,2,,,,,,,,1,,,66,0
64272,note_on,0,0,2,,,,,,,,1,,,74,0
64272,note_on,0,0,2,,,,,,,,1,,,72,0
64314,note_on,54,0,4,,,,,,,,3,,,50,0
64314,note_on,54,0,1,,,,,,,,0,,,79,0
64320,note_on,6,0,4,,,,,,,,3,,,31,27
64320,note_on,0,0,1,,,,,,,,0,,,62,61
64320,note_on,0,0,1,,,,,,,,0,,,71,61
64320,set_tempo,3840,1,0,,,,,,1161890,,,,,,
64320,note_on,6,0,1,,,,,,,,0,,,79,61
64337,control_change,17,0,4,,,,,,,,3,64,127,,
64354,control_change,34,0,1,,,,,,,,0,64,0,,
64379,note_on,42,0,4,,,,,,,,3,,,31,0
64380,note_on,1,0,4,,,,,,,,3,,,43,32
64423,control_change,151,0,2,,,,,,,,1,64,127,,
64439,note_on,59,0,4,,,,,,,,3,,,43,0
64440,note_on,1,0,4,,,,,,,,3,,,47,38
64499,note_on,59,0,4,,,,,,,,3,,,47,0
64500,note_on,1,0,4,,,,,,,,3,,,55,44
64554,note_on,54,0,4,,,,,,,,3,,,55,0
64560,note_on,0,0,2,,,,,,,,1,,,62,31
64560,note_on,137,0,2,,,,,,,,1,,,59,31
64619,note_on,59,0,2,,,,,,,,1,,,62,0
64619,note_on,0,0,2,,,,,,,,1,,,59,0
64620,note_on,1,0,2,,,,,,,,1,,,67,31
64679,note_on,59,0,2,,,,,,,,1,,,67,0
64680,note_on,1,0,2,,,,,,,,1,,,59,31
64680,note_on,0,0,2,,,,,,,,1,,,62,31
64739,note_on,59,0,2,,,,,,,,1,,,62,0
64739,note_on,0,0,2,,,,,,,,1,,,59,0
64740,note_on,1,0,2,,,,,,,,1,,,55,30
64799,note_on,59,0,2,,,,,,,,1,,,55,0
64800,note_on,0,0,2,,,,,,,,1,,,67,30
64800,note_on,1,0,2,,,,,,,,1,,,62,30
64859,note_on,0,0,2,,,,,,,,1,,,62,0
64859,note_on,59,0,2,,,,,,,,1,,,67,0
64860,note_on,1,0,2,,,,,,,,1,,,71,30
64919,note_on,59,0,2,,,,,,,,1,,,71,0
64920,note_on,1,0,2,,,,,,,,1,,,62,30
64920,note_on,0,0,2,,,,,,,,1,,,67,30
64979,note_on,59,0,2,,,,,,,,1,,,67,0
64979,note_on,0,0,2,,,,,,,,1,,,62,0
64980,note_on,1,0,2,,,,,,,,1,,,55,29
65039,note_on,59,0,2,,,,,,,,1,,,55,0
65040,note_on,1,0,2,,,,,,,,1,,,67,29
65040,note_on,0,0,2,,,,,,,,1,,,71,29
65099,note_on,59,0,2,,,,,,,,1,,,71,0
65099,note_on,0,0,2,,,,,,,,1,,,67,0
65100,note_on,1,0,2,,,,,,,,1,,,74,29
65159,note_on,59,0,2,,,,,,,,1,,,74,0
65160,note_on,1,0,2,,,,,,,,1,,,67,29
65160,note_on,0,0,2,,,,,,,,1,,,71,29
65184,note_on,0,0,1,,,,,,,,0,,,79,0
65184,note_on,830,0,1,,,,,,,,0,,,62,0
65184,note_on,0,0,1,,,,,,,,0,,,71,0
65194,control_change,34,0,2,,,,,,,,1,64,0,,
65219,note_on,25,0,2,,,,,,,,1,,,71,0
65219,note_on,0,0,2,,,,,,,,1,,,67,0
65220,note_on,1,0,2,,,,,,,,1,,,62,28
65274,note_on,54,0,2,,,,,,,,1,,,62,0
65280,control_change,6,0,2,,,,,,,,1,64,127,,
65280,note_on,726,0,4,,,,,,,,3,,,43,48
65280,control_change,96,0,1,,,,,,,,0,64,127,,
65280,note_on,0,0,4,,,,,,,,3,,,50,48
65280,note_on,0,0,2,,,,,,,,1,,,69,28
65280,note_on,0,0,2,,,,,,,,1,,,72,28
65297,control_change,17,0,4,,,,,,,,3,64,0,,
65333,control_change,36,0,4,,,,,,,,3,64,127,,
65339,note_on,59,0,2,,,,,,,,1,,,72,0
65339,note_on,0,0,2,,,,,,,,1,,,69,0
65340,note_on,1,0,2,,,,,,,,1,,,74,28
65399,note_on,59,0,2,,,,,,,,1,,,74,0
65400,note_on,1,0,2,,,,,,,,1,,,69,27
65400,note_on,0,0,2,,,,,,,,1,,,72,27
65459,note_on,59,0,2,,,,,,,,1,,,72,0
65459,note_on,0,0,2,,,,,,,,1,,,69,0
65460,note_on,1,0,2,,,,,,,,1,,,62,27
65519,note_on,59,0,2,,,,,,,,1,,,62,0
65520,note_on,1,0,2,,,,,,,,1,,,69,27
65520,note_on,0,0,2,,,,,,,,1,,,72,27
65579,note_on,0,0,2,,,,,,,,1,,,69,0
65579,note_on,59,0,2,,,,,,,,1,,,72,0
65580,note_on,1,0,2,,,,,,,,1,,,74,27
65639,note_on,59,0,2,,,,,,,,1,,,74,0
65640,note_on,1,0,2,,,,,,,,1,,,69,26
65640,note_on,0,0,2,,,,,,,,1,,,72,26
65699,note_on,59,0,2,,,,,,,,1,,,72,0
65699,note_on,0,0,2,,,,,,,,1,,,69,0
65700,note_on,1,0,2,,,,,,,,1,,,62,26
65759,note_on,59,0,2,,,,,,,,1,,,62,0
65760,note_on,0,0,1,,,,,,,,0,,,74,56
65760,note_on,1,0,2,,,,,,,,1,,,66,26
65760,note_on,0,0,2,,,,,,,,1,,,69,26
65760,note_on,480,0,1,,,,,,,,0,,,86,56
65819,note_on,0,0,2,,,,,,,,1,,,66,0
65819,note_on,59,0,2,,,,,,,,1,,,69,0
65820,note_on,1,0,2,,,,,,,,1,,,74,26
65879,note_on,59,0,2,,,,,,,,1,,,74,0
65880,note_on,1,0,2,,,,,,,,1,,,66,25
65880,note_on,0,0,2,,,,,,,,1,,,69,25
65939,note_on,59,0,2,,,,,,,,1,,,69,0
65939,note_on,0,0,2,,,,,,,,1,,,66,0
65940,note_on,1,0,2,,,,,,,,1,,,62,25
65999,note_on,59,0,2,,,,,,,,1,,,62,0
66000,note_on,0,0,2,,,,,,,,1,,,66,25
66000,note_on,1,0,2,,,,,,,,1,,,62,25
66059,note_on,0,0,2,,,,,,,,1,,,62,0
66059,note_on,59,0,2,,,,,,,,1,,,66,0
66060,note_on,1,0,2,,,,,,,,1,,,69,24
66119,note_on,59,0,2,,,,,,,,1,,,69,0
66120,note_on,0,0,2,,,,,,,,1,,,66,24
66120,note_on,1,0,2,,,,,,,,1,,,62,24
66144,note_on,811,0,4,,,,,,,,3,,,50,0
66144,note_on,0,0,4,,,,,,,,3,,,43,0
66179,note_on,59,0,2,,,,,,,,1,,,66,0
66179,note_on,0,0,2,,,,,,,,1,,,62,0
66180,note_on,1,0,2,,,,,,,,1,,,60,24
66192,note_on,0,0,1,,,,,,,,0,,,86,0
66192,note_on,432,0,1,,,,,,,,0,,,74,0
66234,note_on,54,0,2,,,,,,,,1,,,60,0
66240,control_change,48,0,1,,,,,,,,0,64,0,,
66240,note_on,0,0,4,,,,,,,,3,,,43,46
66240,note_on,0,0,4,,,,,,,,3,,,38,46
66240,note_on,96,0,4,,,,,,,,3,,,31,46
66240,note_on,0,0,2,,,,,,,,1,,,62,23
66240,note_on,0,0,2,,,,,,,,1,,,59,23
66240,control_change,6,0,2,,,,,,,,1,64,0,,
66293,control_change,53,0,2,,,,,,,,1,64,127,,
66293,control_change,53,0,4,,,,,,,,3,64,0,,
66299,note_on,6,0,2,,,,,,,,1,,,62,0
66299,note_on,0,0,2,,,,,,,,1,,,59,0
66300,note_on,1,0,2,,,,,,,,1,,,67,23
66359,note_on,59,0,2,,,,,,,,1,,,67,0
66360,note_on,1,0,2,,,,,,,,1,,,59,23
66360,note_on,0,0,2,,,,,,,,1,,,62,23
66387,control_change,147,0,1,,,,,,,,0,64,127,,
66419,note_on,0,0,2,,,,,,,,1,,,59,0
66419,note_on,59,0,2,,,,,,,,1,,,62,0
66420,note_on,1,0,2,,,,,,,,1,,,55,23
66479,note_on,59,0,2,,,,,,,,1,,,55,0
66480,note_on,1,0,2,,,,,,,,1,,,59,22
66480,note_on,0,0,2,,,,,,,,1,,,62,22
66539,note_on,59,0,2,,,,,,,,1,,,62,0
66539,note_on,0,0,2,,,,,,,,1,,,59,0
66540,note_on,1,0,2,,,,,,,,1,,,67,22
66599,note_on,59,0,2,,,,,,,,1,,,67,0
66600,note_on,1,0,2,,,,,,,,1,,,59,22
66600,note_on,0,0,2,,,,,,,,1,,,62,22
66659,note_on,59,0,2,,,,,,,,1,,,62,0
66659,note_on,0,0,2,,,,,,,,1,,,59,0
66660,note_on,1,0,2,,,,,,,,1,,,55,22
66719,note_on,59,0,2,,,,,,,,1,,,55,0
66720,note_on,0,0,1,,,,,,,,0,,,74,65
66720,note_on,333,0,1,,,,,,,,0,,,62,65
66720,note_on,1,0,2,,,,,,,,1,,,67,21
66779,note_on,59,0,2,,,,,,,,1,,,67,0
66780,note_on,1,0,2,,,,,,,,1,,,71,21
66839,note_on,59,0,2,,,,,,,,1,,,71,0
66840,note_on,0,0,2,,,,,,,,1,,,67,21
66840,note_on,1,0,2,,,,,,,,1,,,62,21
66899,note_on,0,0,2,,,,,,,,1,,,62,0
66899,note_on,59,0,2,,,,,,,,1,,,67,0
66900,note_on,1,0,2,,,,,,,,1,,,59,20
66959,note_on,59,0,2,,,,,,,,1,,,59,0
66960,note_on,1,0,2,,,,,,,,1,,,67,20
66960,note_on,0,0,2,,,,,,,,1,,,71,20
67019,note_on,59,0,2,,,,,,,,1,,,71,0
67019,note_on,0,0,2,,,,,,,,1,,,67,0
67020,note_on,1,0,2,,,,,,,,1,,,74,20
67079,note_on,59,0,2,,,,,,,,1,,,74,0
67080,note_on,1,0,2,,,,,,,,1,,,68,20
67080,note_on,0,0,2,,,,,,,,1,,,71,20
67104,note_on,0,0,4,,,,,,,,3,,,38,0
67104,note_on,0,0,4,,,,,,,,3,,,31,0
67104,note_on,811,0,4,,,,,,,,3,,,43,0
67139,note_on,59,0,2,,,,,,,,1,,,71,0
67139,note_on,0,0,2,,,,,,,,1,,,68,0
67140,note_on,1,0,2,,,,,,,,1,,,62,19
67152,note_on,432,0,1,,,,,,,,0,,,74,0
67152,note_on,0,0,1,,,,,,,,0,,,62,0
67194,note_on,54,0,2,,,,,,,,1,,,62,0
67200,note_on,6,0,2,,,,,,,,1,,,69,19
67200,note_on,0,0,4,,,,,,,,3,,,50,44
67200,note_on,0,0,4,,,,,,,,3,,,43,44
67200,control_change,96,0,4,,,,,,,,3,64,127,,
67200,note_on,0,0,2,,,,,,,,1,,,72,19
67240,control_change,40,0,2,,,,,,,,1,64,127,,
67253,control_change,13,0,2,,,,,,,,1,64,0,,
67259,note_on,6,0,2,,,,,,,,1,,,72,0
67259,note_on,0,0,2,,,,,,,,1,,,69,0
67260,note_on,1,0,2,,,,,,,,1,,,74,19
67319,note_on,59,0,2,,,,,,,,1,,,74,0
67320,note_on,1,0,2,,,,,,,,1,,,69,17
67320,note_on,0,0,2,,,,,,,,1,,,72,17
67347,control_change,195,0,1,,,,,,,,0,64,0,,
67379,note_on,59,0,2,,,,,,,,1,,,72,0
67379,note_on,0,0,2,,,,,,,,1,,,69,0
67380,note_on,1,0,2,,,,,,,,1,,,62,17
67439,note_on,59,0,2,,,,,,,,1,,,62,0
67440,note_on,1,0,2,,,,,,,,1,,,69,17
67440,note_on,0,0,2,,,,,,,,1,,,72,17
67453,control_change,106,0,1,,,,,,,,0,64,127,,
67499,note_on,59,0,2,,,,,,,,1,,,72,0
67499,note_on,0,0,2,,,,,,,,1,,,69,0
67500,note_on,1,0,2,,,,,,,,1,,,74,17
67559,note_on,59,0,2,,,,,,,,1,,,74,0
67560,note_on,1,0,2,,,,,,,,1,,,69,17
67560,note_on,0,0,2,,,,,,,,1,,,72,17
67619,note_on,59,0,2,,,,,,,,1,,,72,0
67619,note_on,0,0,2,,,,,,,,1,,,69,0
67620,note_on,1,0,2,,,,,,,,1,,,62,17
67679,note_on,59,0,2,,,,,,,,1,,,62,0
67680,note_on,1,0,2,,,,,,,,1,,,66,17
67680,note_on,0,0,2,,,,,,,,1,,,69,17
67680,note_on,0,0,1,,,,,,,,0,,,74,53
67680,note_on,227,0,1,,,,,,,,0,,,86,53
67739,note_on,59,0,2,,,,,,,,1,,,69,0
67739,note_on,0,0,2,,,,,,,,1,,,66,0
67740,note_on,1,0,2,,,,,,,,1,,,74,17
67799,note_on,59,0,2,,,,,,,,1,,,74,0
67800,note_on,1,0,2,,,,,,,,1,,,66,16
67800,note_on,0,0,2,,,,,,,,1,,,69,16
67859,note_on,0,0,2,,,,,,,,1,,,66,0
67859,note_on,59,0,2,,,,,,,,1,,,69,0
67860,note_on,1,0,2,,,,,,,,1,,,62,16
67919,note_on,59,0,2,,,,,,,,1,,,62,0
67920,note_on,1,0,2,,,,,,,,1,,,62,16
67920,note_on,0,0,2,,,,,,,,1,,,66,16
67979,note_on,0,0,2,,,,,,,,1,,,62,0
67979,note_on,59,0,2,,,,,,,,1,,,66,0
67980,note_on,1,0,2,,,,,,,,1,,,69,16
68039,note_on,59,0,2,,,,,,,,1,,,69,0
68040,note_on,1,0,2,,,,,,,,1,,,62,16
68040,note_on,0,0,2,,,,,,,,1,,,66,16
68064,note_on,0,0,4,,,,,,,,3,,,43,0
68064,note_on,864,0,4,,,,,,,,3,,,50,0
68099,note_on,0,0,2,,,,,,,,1,,,62,0
68099,note_on,59,0,2,,,,,,,,1,,,66,0
68100,note_on,1,0,2,,,,,,,,1,,,60,16
68112,note_on,0,0,1,,,,,,,,0,,,86,0
68112,note_on,432,0,1,,,,,,,,0,,,74,0
68154,note_on,54,0,2,,,,,,,,1,,,60,0
68160,note_on,6,0,2,,,,,,,,1,,,59,16
68160,note_on,0,0,2,,,,,,,,1,,,62,16
68160,note_on,0,0,4,,,,,,,,3,,,43,41
68160,control_change,96,0,4,,,,,,,,3,64,0,,
68160,note_on,0,0,4,,,,,,,,3,,,31,41
68160,note_on,0,0,4,,,,,,,,3,,,38,41
68163,set_tempo,3843,1,0,,,,,,1130369,,,,,,
68200,control_change,40,0,2,,,,,,,,1,64,127,,
68200,control_change,0,0,2,,,,,,,,1,64,0,,
68213,control_change,53,0,4,,,,,,,,3,64,127,,
68219,note_on,19,0,2,,,,,,,,1,,,62,0
68219,note_on,0,0,2,,,,,,,,1,,,59,0
68220,note_on,1,0,2,,,,,,,,1,,,67,16
68279,note_on,59,0,2,,,,,,,,1,,,67,0
68280,note_on,0,0,2,,,,,,,,1,,,62,15
68280,note_on,1,0,2,,,,,,,,1,,,59,15
68339,note_on,59,0,2,,,,,,,,1,,,62,0
68339,note_on,0,0,2,,,,,,,,1,,,59,0
68340,note_on,1,0,2,,,,,,,,1,,,55,15
68399,note_on,59,0,2,,,,,,,,1,,,55,0
68400,note_on,1,0,2,,,,,,,,1,,,60,15
68400,note_on,0,0,2,,,,,,,,1,,,64,15
68413,control_change,301,0,1,,,,,,,,0,64,0,,
68459,note_on,0,0,2,,,,,,,,1,,,60,0
68459,note_on,59,0,2,,,,,,,,1,,,64,0
68460,note_on,1,0,2,,,,,,,,1,,,67,15
68519,note_on,59,0,2,,,,,,,,1,,,67,0
68520,note_on,1,0,2,,,,,,,,1,,,60,15
68520,note_on,0,0,2,,,,,,,,1,,,64,15
68547,control_change,134,0,1,,,,,,,,0,64,127,,
68579,note_on,59,0,2,,,,,,,,1,,,64,0
68579,note_on,0,0,2,,,,,,,,1,,,60,0
68580,note_on,1,0,2,,,,,,,,1,,,55,15
68639,note_on,59,0,2,,,,,,,,1,,,55,0
68640,note_on,1,0,2,,,,,,,,1,,,59,15
68640,note_on,0,0,2,,,,,,,,1,,,62,15
68640,note_on,0,0,1,,,,,,,,0,,,86,53
68640,note_on,93,0,1,,,,,,,,0,,,74,53
68699,note_on,59,0,2,,,,,,,,1,,,62,0
68699,note_on,0,0,2,,,,,,,,1,,,59,0
68700,note_on,1,0,2,,,,,,,,1,,,67,15
68759,note_on,59,0,2,,,,,,,,1,,,67,0
68760,note_on,1,0,2,,,,,,,,1,,,59,14
68760,note_on,0,0,2,,,,,,,,1,,,62,14
68819,note_on,59,0,2,,,,,,,,1,,,62,0
68819,note_on,0,0,2,,,,,,,,1,,,59,0
68820,note_on,1,0,2,,,,,,,,1,,,55,14
68879,note_on,59,0,2,,,,,,,,1,,,55,0
68880,note_on,0,0,2,,,,,,,,1,,,60,14
68880,note_on,1,0,2,,,,,,,,1,,,57,14
68939,note_on,59,0,2,,,,,,,,1,,,60,0
68939,note_on,0,0,2,,,,,,,,1,,,57,0
68940,note_on,1,0,2,,,,,,,,1,,,66,14
68999,note_on,59,0,2,,,,,,,,1,,,66,0
69000,note_on,1,0,2,,,,,,,,1,,,57,14
69000,note_on,0,0,2,,,,,,,,1,,,60,14
69024,note_on,0,0,4,,,,,,,,3,,,31,0
69024,note_on,0,0,4,,,,,,,,3,,,38,0
69024,note_on,811,0,4,,,,,,,,3,,,43,0
69059,note_on,0,0,2,,,,,,,,1,,,57,0
69059,note_on,59,0,2,,,,,,,,1,,,60,0
69060,note_on,1,0,2,,,,,,,,1,,,55,14
69072,note_on,0,0,1,,,,,,,,0,,,74,0
69072,note_on,432,0,1,,,,,,,,0,,,86,0
69090,end_of_track,0,1,0,,,,,,,,,,,,
69090,set_tempo,927,1,0,,,,,,1100514,,,,,,
69114,note_on,54,0,2,,,,,,,,1,,,55,0
69120,note_on,96,0,4,,,,,,,,3,,,31,39
69120,note_on,0,0,4,,,,,,,,3,,,38,39
69120,note_on,6,0,2,,,,,,,,1,,,59,14
69120,note_on,0,0,2,,,,,,,,1,,,62,14
69120,note_on,0,0,4,,,,,,,,3,,,43,39
69147,control_change,27,0,2,,,,,,,,1,64,127,,
69160,control_change,13,0,2,,,,,,,,1,64,0,,
69160,control_change,40,0,4,,,,,,,,3,64,127,,
69173,control_change,13,0,4,,,,,,,,3,64,0,,
69179,note_on,0,0,2,,,,,,,,1,,,59,0
69179,note_on,19,0,2,,,,,,,,1,,,62,0
69180,note_on,1,0,2,,,,,,,,1,,,67,14
69239,note_on,59,0,2,,,,,,,,1,,,67,0
69240,note_on,0,0,2,,,,,,,,1,,,62,13
69240,note_on,1,0,2,,,,,,,,1,,,59,13
69299,note_on,59,0,2,,,,,,,,1,,,62,0
69299,note_on,0,0,2,,,,,,,,1,,,59,0
69300,note_on,1,0,2,,,,,,,,1,,,55,13
69359,note_on,59,0,2,,,,,,,,1,,,55,0
69360,note_on,1,0,2,,,,,,,,1,,,60,13
69360,note_on,0,0,2,,,,,,,,1,,,64,13
69419,note_on,59,0,2,,,,,,,,1,,,64,0
69419,note_on,0,0,2,,,,,,,,1,,,60,0
69420,note_on,1,0,2,,,,,,,,1,,,67,13
69479,note_on,59,0,2,,,,,,,,1,,,67,0
69480,note_on,0,0,2,,,,,,,,1,,,64,13
69480,note_on,1,0,2,,,,,,,,1,,,60,13
69507,control_change,435,0,1,,,,,,,,0,64,0,,
69539,note_on,59,0,2,,,,,,,,1,,,64,0
69539,note_on,0,0,2,,,,,,,,1,,,60,0
69540,note_on,1,0,2,,,,,,,,1,,,55,13
69599,note_on,59,0,2,,,,,,,,1,,,55,0
69600,note_on,0,0,2,,,,,,,,1,,,62,13
69600,note_on,1,0,2,,,,,,,,1,,,59,13
69600,note_on,0,0,1,,,,,,,,0,,,62,50
69600,note_on,0,0,1,,,,,,,,0,,,74,50
69600,control_change,93,0,1,,,,,,,,0,64,127,,
69659,note_on,59,0,2,,,,,,,,1,,,62,0
69659,note_on,0,0,2,,,,,,,,1,,,59,0
69660,note_on,1,0,2,,,,,,,,1,,,67,13
69719,note_on,59,0,2,,,,,,,,1,,,67,0
69720,note_on,1,0,2,,,,,,,,1,,,59,12
69720,note_on,0,0,2,,,,,,,,1,,,62,12
69779,note_on,0,0,2,,,,,,,,1,,,59,0
69779,note_on,59,0,2,,,,,,,,1,,,62,0
69780,note_on,1,0,2,,,,,,,,1,,,55,12
69839,note_on,59,0,2,,,,,,,,1,,,55,0
69840,note_on,1,0,2,,,,,,,,1,,,57,12
69840,note_on,0,0,2,,,,,,,,1,,,60,12
69899,note_on,0,0,2,,,,,,,,1,,,57,0
69899,note_on,59,0,2,,,,,,,,1,,,60,0
69900,note_on,1,0,2,,,,,,,,1,,,66,12
69959,note_on,59,0,2,,,,,,,,1,,,66,0
69960,note_on,1,0,2,,,,,,,,1,,,57,12
69960,note_on,0,0,2,,,,,,,,1,,,60,12
69984,note_on,811,0,4,,,,,,,,3,,,43,0
69984,note_on,0,0,4,,,,,,,,3,,,31,0
69984,note_on,0,0,4,,,,,,,,3,,,38,0
70019,note_on,59,0,2,,,,,,,,1,,,60,0
70019,note_on,0,0,2,,,,,,,,1,,,57,0
70020,note_on,1,0,2,,,,,,,,1,,,55,12
70032,note_on,0,0,1,,,,,,,,0,,,74,0
70032,note_on,432,0,1,,,,,,,,0,,,62,0
70074,note_on,54,0,2,,,,,,,,1,,,55,0
70080,note_on,6,0,2,,,,,,,,1,,,59,12
70080,note_on,96,0,4,,,,,,,,3,,,31,30
70080,note_on,0,0,4,,,,,,,,3,,,38,30
70080,note_on,0,0,4,,,,,,,,3,,,43,30
70080,note_on,0,0,2,,,,,,,,1,,,62,12
70107,control_change,27,0,2,,,,,,,,1,64,0,,
70120,control_change,40,0,4,,,,,,,,3,64,0,,
70139,note_on,32,0,2,,,,,,,,1,,,62,0
70139,note_on,0,0,2,,,,,,,,1,,,59,0
70140,note_on,1,0,2,,,,,,,,1,,,67,12
70149,control_change,9,0,2,,,,,,,,1,64,127,,
70149,control_change,29,0,4,,,,,,,,3,64,127,,
70199,note_on,50,0,2,,,,,,,,1,,,67,0
70200,note_on,1,0,2,,,,,,,,1,,,59,11
70200,note_on,0,0,2,,,,,,,,1,,,62,11
70259,note_on,0,0,2,,,,,,,,1,,,59,0
70259,note_on,59,0,2,,,,,,,,1,,,62,0
70260,note_on,1,0,2,,,,,,,,1,,,55,11
70319,note_on,59,0,2,,,,,,,,1,,,55,0
70320,note_on,1,0,2,,,,,,,,1,,,59,11
70320,note_on,0,0,2,,,,,,,,1,,,62,11
70379,note_on,0,0,2,,,,,,,,1,,,59,0
70379,note_on,59,0,2,,,,,,,,1,,,62,0
70380,note_on,1,0,2,,,,,,,,1,,,67,11
70439,note_on,59,0,2,,,,,,,,1,,,67,0
70440,note_on,0,0,2,,,,,,,,1,,,62,11
70440,note_on,1,0,2,,,,,,,,1,,,59,11
70499,note_on,0,0,2,,,,,,,,1,,,59,0
70499,note_on,59,0,2,,,,,,,,1,,,62,0
70500,note_on,1,0,2,,,,,,,,1,,,55,11
70559,note_on,59,0,2,,,,,,,,1,,,55,0
70560,note_on,0,0,2,,,,,,,,1,,,62,11
70560,note_on,1,0,2,,,,,,,,1,,,59,11
70560,note_on,528,0,1,,,,,,,,0,,,86,53
70560,note_on,0,0,1,,,,,,,,0,,,74,53
70619,note_on,59,0,2,,,,,,,,1,,,62,0
70619,note_on,0,0,2,,,,,,,,1,,,59,0
70620,note_on,1,0,2,,,,,,,,1,,,67,11
70679,note_on,59,0,2,,,,,,,,1,,,67,0
70680,note_on,0,0,2,,,,,,,,1,,,62,10
70680,note_on,1,0,2,,,,,,,,1,,,59,10
70739,note_on,0,0,2,,,,,,,,1,,,59,0
70739,note_on,59,0,2,,,,,,,,1,,,62,0
70740,note_on,1,0,2,,,,,,,,1,,,55,10
70799,note_on,59,0,2,,,,,,,,1,,,55,0
70800,note_on,1,0,2,,,,,,,,1,,,59,10
70800,note_on,0,0,2,,,,,,,,1,,,62,10
70859,note_on,0,0,2,,,,,,,,1,,,59,0
70859,note_on,59,0,2,,,,,,,,1,,,62,0
70860,note_on,1,0,2,,,,,,,,1,,,67,10
70919,note_on,59,0,2,,,,,,,,1,,,67,0
70920,note_on,0,0,2,,,,,,,,1,,,62,10
70920,note_on,1,0,2,,,,,,,,1,,,59,10
70944,note_on,0,0,4,,,,,,,,3,,,38,0
70944,note_on,0,0,4,,,,,,,,3,,,31,0
70944,note_on,795,0,4,,,,,,,,3,,,43,0
70979,note_on,59,0,2,,,,,,,,1,,,62,0
70979,note_on,0,0,2,,,,,,,,1,,,59,0
70980,note_on,1,0,2,,,,,,,,1,,,55,10
70992,note_on,432,0,1,,,,,,,,0,,,74,0
70992,note_on,0,0,1,,,,,,,,0,,,86,0
71034,note_on,54,0,2,,,,,,,,1,,,55,0
71040,note_on,48,0,1,,,,,,,,0,,,79,45
71040,note_on,0,0,1,,,,,,,,0,,,91,45
71040,note_on,6,0,2,,,,,,,,1,,,59,10
71040,note_on,0,0,2,,,,,,,,1,,,62,10
71099,note_on,0,0,2,,,,,,,,1,,,59,0
71099,note_on,59,0,2,,,,,,,,1,,,62,0
71100,note_on,1,0,2,,,,,,,,1,,,67,10
71109,control_change,9,0,2,,,,,,,,1,64,0,,
71159,note_on,50,0,2,,,,,,,,1,,,67,0
71160,note_on,1,0,2,,,,,,,,1,,,59,9
71160,note_on,0,0,2,,,,,,,,1,,,62,9
71219,note_on,59,0,2,,,,,,,,1,,,62,0
71219,note_on,0,0,2,,,,,,,,1,,,59,0
71220,note_on,1,0,2,,,,,,,,1,,,55,9
71279,note_on,59,0,2,,,,,,,,1,,,55,0
71280,note_on,0,0,2,,,,,,,,1,,,62,9
71280,note_on,1,0,2,,,,,,,,1,,,59,9
71339,note_on,59,0,2,,,,,,,,1,,,62,0
71339,note_on,0,0,2,,,,,,,,1,,,59,0
71340,note_on,1,0,2,,,,,,,,1,,,67,9
71399,note_on,59,0,2,,,,,,,,1,,,67,0
71400,note_on,1,0,2,,,,,,,,1,,,59,9
71400,note_on,0,0,2,,,,,,,,1,,,62,9
71459,note_on,0,0,2,,,,,,,,1,,,59,0
71459,note_on,59,0,2,,,,,,,,1,,,62,0
71460,note_on,1,0,2,,,,,,,,1,,,55,9
71472,note_on,0,0,1,,,,,,,,0,,,79,0
71472,note_on,432,0,1,,,,,,,,0,,,91,0
71519,note_on,59,0,2,,,,,,,,1,,,55,0
71520,note_on,0,0,2,,,,,,,,1,,,62,9
71520,note_on,576,0,4,,,,,,,,3,,,38,27
71520,note_on,1,0,2,,,,,,,,1,,,59,9
71579,note_on,0,0,2,,,,,,,,1,,,59,0
71579,note_on,59,0,2,,,,,,,,1,,,62,0
71580,note_on,1,0,2,,,,,,,,1,,,67,9
71639,note_on,59,0,2,,,,,,,,1,,,67,0
71640,note_on,1,0,2,,,,,,,,1,,,59,8
71640,note_on,0,0,2,,,,,,,,1,,,62,8
71699,note_on,59,0,2,,,,,,,,1,,,62,0
71699,note_on,0,0,2,,,,,,,,1,,,59,0
71700,note_on,1,0,2,,,,,,,,1,,,55,8
71759,note_on,59,0,2,,,,,,,,1,,,55,0
71760,note_on,1,0,2,,,,,,,,1,,,59,8
71760,note_on,0,0,2,,,,,,,,1,,,62,8
71819,note_on,0,0,2,,,,,,,,1,,,59,0
71819,note_on,59,0,2,,,,,,,,1,,,62,0
71820,note_on,1,0,2,,,,,,,,1,,,67,8
71879,note_on,59,0,2,,,,,,,,1,,,67,0
71880,note_on,1,0,2,,,,,,,,1,,,59,8
71880,note_on,0,0,2,,,,,,,,1,,,62,8
71939,note_on,59,0,2,,,,,,,,1,,,62,0
71939,note_on,0,0,2,,,,,,,,1,,,59,0
71940,note_on,1,0,2,,,,,,,,1,,,55,8
71952,note_on,432,0,4,,,,,,,,3,,,38,0
71994,note_on,54,0,2,,,,,,,,1,,,55,0
72000,note_on,48,0,4,,,,,,,,3,,,31,13
72000,control_change,11773,0,3,,,,,,,,2,64,127,,
72059,note_on,59,0,4,,,,,,,,3,,,31,0
72060,note_on,1,0,4,,,,,,,,3,,,38,15
72119,note_on,59,0,4,,,,,,,,3,,,38,0
72120,note_on,1,0,4,,,,,,,,3,,,43,17
72179,note_on,59,0,4,,,,,,,,3,,,43,0
72180,note_on,1,0,4,,,,,,,,3,,,47,20
72234,note_on,54,0,4,,,,,,,,3,,,47,0
72240,note_on,240,0,3,,,,,,,,2,,,50,23
72299,note_on,59,0,3,,,,,,,,2,,,50,0
72300,note_on,1,0,3,,,,,,,,2,,,55,25
72309,control_change,315,0,2,,,,,,,,1,64,127,,
72359,note_on,59,0,3,,,,,,,,2,,,55,0
72360,note_on,1,0,3,,,,,,,,2,,,59,27
72419,note_on,59,0,3,,,,,,,,2,,,59,0
72420,note_on,1,0,3,,,,,,,,2,,,64,29
72474,note_on,54,0,3,,,,,,,,2,,,64,0
72480,note_on,171,0,2,,,,,,,,1,,,62,31
72540,note_on,60,0,2,,,,,,,,1,,,67,33
72600,note_on,60,0,2,,,,,,,,1,,,71,35
72660,note_on,60,0,2,,,,,,,,1,,,74,38
72720,note_on,1248,0,1,,,,,,,,0,,,79,41
72780,note_on,60,0,1,,,,,,,,0,,,83,43
72840,note_on,60,0,1,,,,,,,,0,,,86,47
72900,note_on,60,0,1,,,,,,,,0,,,91,51
73440,control_change,540,0,1,,,,,,,,0,64,0,,
73440,control_change,780,0,2,,,,,,,,1,64,0,,
73560,end_of_track,0,1,4,,,,,,,,,,,,
73560,control_change,1326,0,4,,,,,,,,3,64,0,,
73560,end_of_track,0,1,3,,,,,,,,,,,,
73560,control_change,1086,0,3,,,,,,,,2,64,0,,
73824,note_on,0,0,1,,,,,,,,0,,,79,0
73824,note_on,0,0,1,,,,,,,,0,,,83,0
73824,note_on,0,0,1,,,,,,,,0,,,86,0
73824,end_of_track,0,1,1,,,,,,,,,,,,
73824,note_on,0,0,2,,,,,,,,1,,,71,0
73824,note_on,0,0,2,,,,,,,,1,,,67,0
73824,note_on,0,0,2,,,,,,,,1,,,62,0
73824,note_on,384,0,2,,,,,,,,1,,,74,0
73824,note_on,384,0,1,,,,,,,,0,,,91,0
73824,end_of_track,0,1,2,,,,,,,,,,,,
