tick,type,time,meta,track,numerator,denominator,clocks_per_click,notated_32nd_notes_per_beat,key,tempo,program,channel,control,value,note,velocity
0,track_name,0,1,0,,,,,,,,,,,,
0,control_change,0,0,1,,,,,,,,0,7,127,,
0,control_change,0,0,1,,,,,,,,0,10,120,,
0,control_change,0,0,1,,,,,,,,0,11,127,,
0,control_change,0,0,1,,,,,,,,0,93,38,,
0,control_change,0,0,1,,,,,,,,0,91,74,,
0,note_on,0,0,1,,,,,,,,0,,,63,64
0,track_name,0,1,2,,,,,,,,,,,,
0,program_change,0,0,2,,,,,,,0,1,,,,
0,control_change,0,0,2,,,,,,,,1,7,127,,
0,control_change,0,0,2,,,,,,,,1,10,80,,
0,control_change,0,0,2,,,,,,,,1,11,127,,
0,control_change,0,0,2,,,,,,,,1,93,38,,
0,control_change,0,0,2,,,,,,,,1,91,74,,
0,track_name,0,1,6,,,,,,,,,,,,
0,program_change,0,0,1,,,,,,,0,0,,,,
0,track_name,0,1,3,,,,,,,,,,,,
0,control_change,0,0,3,,,,,,,,2,7,125,,
0,control_change,0,0,3,,,,,,,,2,10,40,,
0,control_change,0,0,3,,,,,,,,2,11,127,,
0,control_change,0,0,3,,,,,,,,2,93,0,,
0,track_name,0,1,4,,,,,,,,,,,,
0,program_change,0,0,4,,,,,,,0,3,,,,
0,control_change,0,0,4,,,,,,,,3,7,125,,
0,control_change,0,0,4,,,,,,,,3,10,20,,
0,control_change,0,0,4,,,,,,,,3,11,127,,
0,control_change,0,0,4,,,,,,,,3,91,70,,
0,control_change,0,0,4,,,,,,,,3,93,0,,
0,note_on,0,0,4,,,,,,,,3,,,39,64
0,track_name,0,1,5,,,,,,,,,,,,
0,end_of_track,0,1,5,,,,,,,,,,,,
0,program_change,0,0,3,,,,,,,0,2,,,,
0,track_name,0,1,1,,,,,,,,,,,,
0,end_of_track,0,1,6,,,,,,,,,,,,
0,text,0,1,0,,,,,,,,,,,,
0,set_tempo,0,1,0,,,,,,375000,,,,,,
0,key_signature,0,1,0,,,,,C,,,,,,,
0,time_signature,0,1,0,4,4,24,8,,,,,,,,
0,text,0,1,0,,,,,,,,,,,,
0,text,0,1,0,,,,,,,,,,,,
0,text,0,1,0,,,,,,,,,,,,
48,control_change,48,0,3,,,,,,,,2,91,70,,
95,note_on,95,0,1,,,,,,,,0,,,63,0
191,note_on,191,0,4,,,,,,,,3,,,39,0
240,note_on,0,0,1,,,,,,,,0,,,58,64
240,note_on,145,0,1,,,,,,,,0,,,55,64
335,note_on,0,0,1,,,,,,,,0,,,55,0
335,note_on,95,0,1,,,,,,,,0,,,58,0
480,note_on,145,0,1,,,,,,,,0,,,67,64
480,note_on,0,0,4,,,,,,,,3,,,46,64
480,note_on,289,0,4,,,,,,,,3,,,51,64
575,note_on,95,0,1,,,,,,,,0,,,67,0
671,note_on,191,0,4,,,,,,,,3,,,46,0
671,note_on,0,0,4,,,,,,,,3,,,51,0
720,note_on,0,0,1,,,,,,,,0,,,58,64
720,note_on,145,0,1,,,,,,,,0,,,55,64
815,note_on,0,0,1,,,,,,,,0,,,55,0
815,note_on,95,0,1,,,,,,,,0,,,58,0
960,note_on,289,0,4,,,,,,,,3,,,39,64
960,note_on,145,0,1,,,,,,,,0,,,63,64
1055,note_on,95,0,1,,,,,,,,0,,,63,0
1151,note_on,191,0,4,,,,,,,,3,,,39,0
1200,note_on,0,0,1,,,,,,,,0,,,58,64
1200,note_on,145,0,1,,,,,,,,0,,,55,64
1295,note_on,0,0,1,,,,,,,,0,,,55,0
1295,note_on,95,0,1,,,,,,,,0,,,58,0
1440,note_on,0,0,4,,,,,,,,3,,,46,64
1440,note_on,289,0,4,,,,,,,,3,,,51,64
1440,note_on,145,0,1,,,,,,,,0,,,67,64
1526,note_on,86,0,4,,,,,,,,3,,,46,0
1526,note_on,0,0,4,,,,,,,,3,,,51,0
1535,note_on,95,0,1,,,,,,,,0,,,67,0
1680,note_on,0,0,1,,,,,,,,0,,,58,64
1680,note_on,145,0,1,,,,,,,,0,,,55,64
1766,note_on,0,0,1,,,,,,,,0,,,55,0
1766,note_on,86,0,1,,,,,,,,0,,,58,0
1920,note_on,394,0,4,,,,,,,,3,,,39,64
1920,note_on,154,0,1,,,,,,,,0,,,63,64
2015,note_on,95,0,1,,,,,,,,0,,,63,0
2111,note_on,191,0,4,,,,,,,,3,,,39,0
2160,note_on,145,0,1,,,,,,,,0,,,55,64
2160,note_on,0,0,1,,,,,,,,0,,,58,64
2255,note_on,95,0,1,,,,,,,,0,,,58,0
2255,note_on,0,0,1,,,,,,,,0,,,55,0
2400,note_on,289,0,4,,,,,,,,3,,,51,64
2400,note_on,0,0,4,,,,,,,,3,,,46,64
2400,note_on,145,0,1,,,,,,,,0,,,67,64
2495,note_on,95,0,1,,,,,,,,0,,,67,0
2640,note_on,0,0,1,,,,,,,,0,,,58,64
2640,note_on,145,0,1,,,,,,,,0,,,55,64
2735,note_on,0,0,1,,,,,,,,0,,,55,0
2735,note_on,95,0,1,,,,,,,,0,,,58,0
2783,note_on,383,0,4,,,,,,,,3,,,46,0
2783,note_on,0,0,4,,,,,,,,3,,,51,0
2880,note_on,145,0,1,,,,,,,,0,,,55,64
2880,note_on,0,0,1,,,,,,,,0,,,58,64
2880,note_on,0,0,1,,,,,,,,0,,,65,64
2975,note_on,95,0,1,,,,,,,,0,,,65,0
2975,note_on,0,0,1,,,,,,,,0,,,58,0
2975,note_on,0,0,1,,,,,,,,0,,,55,0
3120,note_on,145,0,1,,,,,,,,0,,,55,64
3120,note_on,0,0,1,,,,,,,,0,,,58,64
3120,note_on,0,0,1,,,,,,,,0,,,63,64
3215,note_on,95,0,1,,,,,,,,0,,,63,0
3215,note_on,0,0,1,,,,,,,,0,,,58,0
3215,note_on,0,0,1,,,,,,,,0,,,55,0
3360,note_on,0,0,1,,,,,,,,0,,,58,64
3360,note_on,145,0,1,,,,,,,,0,,,55,64
3360,note_on,577,0,4,,,,,,,,3,,,39,64
3360,note_on,0,0,1,,,,,,,,0,,,62,64
3455,note_on,0,0,1,,,,,,,,0,,,58,0
3455,note_on,0,0,1,,,,,,,,0,,,55,0
3455,note_on,95,0,1,,,,,,,,0,,,62,0
3455,note_on,95,0,4,,,,,,,,3,,,39,0
3600,note_on,0,0,1,,,,,,,,0,,,58,64
3600,note_on,145,0,1,,,,,,,,0,,,55,64
3600,note_on,145,0,4,,,,,,,,3,,,39,64
3600,note_on,0,0,1,,,,,,,,0,,,63,64
3686,note_on,86,0,4,,,,,,,,3,,,39,0
3686,note_on,0,0,1,,,,,,,,0,,,55,0
3686,note_on,0,0,1,,,,,,,,0,,,58,0
3686,note_on,86,0,1,,,,,,,,0,,,63,0
3840,note_on,154,0,4,,,,,,,,3,,,33,64
3840,note_on,154,0,1,,,,,,,,0,,,65,64
3935,note_on,95,0,1,,,,,,,,0,,,65,0
4031,note_on,191,0,4,,,,,,,,3,,,33,0
4080,note_on,145,0,1,,,,,,,,0,,,56,64
4080,note_on,0,0,1,,,,,,,,0,,,60,64
4175,note_on,95,0,1,,,,,,,,0,,,60,0
4175,note_on,0,0,1,,,,,,,,0,,,56,0
4320,note_on,0,0,4,,,,,,,,3,,,48,64
4320,note_on,289,0,4,,,,,,,,3,,,53,64
4320,note_on,145,0,1,,,,,,,,0,,,68,64
4415,note_on,95,0,1,,,,,,,,0,,,68,0
4511,note_on,0,0,4,,,,,,,,3,,,53,0
4511,note_on,191,0,4,,,,,,,,3,,,48,0
4560,note_on,145,0,1,,,,,,,,0,,,56,64
4560,note_on,0,0,1,,,,,,,,0,,,60,64
4655,note_on,95,0,1,,,,,,,,0,,,60,0
4655,note_on,0,0,1,,,,,,,,0,,,56,0
4800,note_on,289,0,4,,,,,,,,3,,,33,64
4800,note_on,145,0,1,,,,,,,,0,,,65,64
4895,note_on,95,0,1,,,,,,,,0,,,65,0
4991,note_on,191,0,4,,,,,,,,3,,,33,0
5040,note_on,0,0,1,,,,,,,,0,,,60,64
5040,note_on,145,0,1,,,,,,,,0,,,56,64
5135,note_on,95,0,1,,,,,,,,0,,,60,0
5135,note_on,0,0,1,,,,,,,,0,,,56,0
5280,note_on,145,0,1,,,,,,,,0,,,65,84
5280,note_on,0,0,1,,,,,,,,0,,,72,84
5280,note_on,0,0,1,,,,,,,,0,,,77,84
5280,note_on,0,0,4,,,,,,,,3,,,44,84
5280,note_on,289,0,4,,,,,,,,3,,,32,84
5375,note_on,95,0,1,,,,,,,,0,,,77,0
5375,note_on,0,0,1,,,,,,,,0,,,72,0
5375,note_on,0,0,1,,,,,,,,0,,,65,0
5375,note_on,95,0,4,,,,,,,,3,,,44,0
5375,note_on,0,0,4,,,,,,,,3,,,32,0
5520,note_on,145,0,4,,,,,,,,3,,,33,67
5520,note_on,0,0,4,,,,,,,,3,,,45,67
5520,note_on,0,0,1,,,,,,,,0,,,75,78
5520,note_on,0,0,1,,,,,,,,0,,,72,78
5520,note_on,145,0,1,,,,,,,,0,,,65,78
5606,note_on,0,0,4,,,,,,,,3,,,33,0
5606,note_on,0,0,1,,,,,,,,0,,,65,0
5606,note_on,0,0,1,,,,,,,,0,,,72,0
5606,note_on,86,0,4,,,,,,,,3,,,45,0
5606,note_on,86,0,1,,,,,,,,0,,,75,0
5760,note_on,0,0,4,,,,,,,,3,,,46,51
5760,note_on,154,0,4,,,,,,,,3,,,34,51
5760,note_on,154,0,1,,,,,,,,0,,,74,51
5855,note_on,95,0,1,,,,,,,,0,,,74,0
5951,note_on,191,0,4,,,,,,,,3,,,46,0
5951,note_on,0,0,4,,,,,,,,3,,,34,0
6000,note_on,0,0,1,,,,,,,,0,,,70,51
6000,note_on,145,0,1,,,,,,,,0,,,65,51
6095,note_on,95,0,1,,,,,,,,0,,,70,0
6095,note_on,0,0,1,,,,,,,,0,,,65,0
6240,note_on,145,0,1,,,,,,,,0,,,72,51
6240,note_on,289,0,4,,,,,,,,3,,,58,51
6335,note_on,95,0,1,,,,,,,,0,,,72,0
6431,note_on,191,0,4,,,,,,,,3,,,58,0
6480,note_on,145,0,1,,,,,,,,0,,,63,51
6480,note_on,0,0,1,,,,,,,,0,,,68,51
6575,note_on,95,0,1,,,,,,,,0,,,68,0
6575,note_on,0,0,1,,,,,,,,0,,,63,0
6720,note_on,289,0,4,,,,,,,,3,,,34,51
6720,note_on,145,0,1,,,,,,,,0,,,70,51
6815,note_on,95,0,1,,,,,,,,0,,,70,0
6911,note_on,191,0,4,,,,,,,,3,,,34,0
6960,note_on,145,0,1,,,,,,,,0,,,62,51
6960,note_on,0,0,1,,,,,,,,0,,,65,51
7055,note_on,95,0,1,,,,,,,,0,,,65,0
7055,note_on,0,0,1,,,,,,,,0,,,62,0
7200,note_on,289,0,4,,,,,,,,3,,,34,62
7200,note_on,145,0,1,,,,,,,,0,,,68,51
7295,note_on,95,0,4,,,,,,,,3,,,34,0
7295,note_on,95,0,1,,,,,,,,0,,,68,0
7440,note_on,145,0,1,,,,,,,,0,,,58,51
7440,note_on,0,0,1,,,,,,,,0,,,65,51
7440,note_on,145,0,4,,,,,,,,3,,,34,60
7440,note_on,0,0,1,,,,,,,,0,,,62,51
7526,note_on,86,0,1,,,,,,,,0,,,65,0
7526,note_on,0,0,1,,,,,,,,0,,,62,0
7526,note_on,0,0,1,,,,,,,,0,,,58,0
7526,note_on,86,0,4,,,,,,,,3,,,34,0
7680,note_on,154,0,1,,,,,,,,0,,,63,51
7680,note_on,154,0,4,,,,,,,,3,,,39,56
7775,note_on,95,0,1,,,,,,,,0,,,63,0
7871,note_on,191,0,4,,,,,,,,3,,,39,0
7920,note_on,145,0,1,,,,,,,,0,,,55,51
7920,note_on,0,0,1,,,,,,,,0,,,58,51
8015,note_on,95,0,1,,,,,,,,0,,,58,0
8015,note_on,0,0,1,,,,,,,,0,,,55,0
8160,note_on,0,0,4,,,,,,,,3,,,46,51
8160,note_on,289,0,4,,,,,,,,3,,,51,51
8160,note_on,145,0,1,,,,,,,,0,,,67,51
8255,note_on,95,0,1,,,,,,,,0,,,67,0
8351,note_on,0,0,4,,,,,,,,3,,,51,0
8351,note_on,191,0,4,,,,,,,,3,,,46,0
8400,note_on,145,0,1,,,,,,,,0,,,55,51
8400,note_on,0,0,1,,,,,,,,0,,,58,51
8495,note_on,0,0,1,,,,,,,,0,,,55,0
8495,note_on,95,0,1,,,,,,,,0,,,58,0
8640,note_on,145,0,1,,,,,,,,0,,,63,51
8640,note_on,289,0,4,,,,,,,,3,,,39,51
8735,note_on,95,0,1,,,,,,,,0,,,63,0
8831,note_on,191,0,4,,,,,,,,3,,,39,0
8880,note_on,145,0,1,,,,,,,,0,,,55,51
8880,note_on,0,0,1,,,,,,,,0,,,58,51
8975,note_on,0,0,1,,,,,,,,0,,,55,0
8975,note_on,95,0,1,,,,,,,,0,,,58,0
9120,note_on,145,0,1,,,,,,,,0,,,67,51
9120,note_on,0,0,4,,,,,,,,3,,,46,51
9120,note_on,289,0,4,,,,,,,,3,,,51,51
9206,note_on,0,0,4,,,,,,,,3,,,51,0
9206,note_on,86,0,4,,,,,,,,3,,,46,0
9215,note_on,95,0,1,,,,,,,,0,,,67,0
9360,note_on,145,0,1,,,,,,,,0,,,55,51
9360,note_on,0,0,1,,,,,,,,0,,,58,51
9446,note_on,0,0,1,,,,,,,,0,,,55,0
9446,note_on,86,0,1,,,,,,,,0,,,58,0
9600,note_on,154,0,1,,,,,,,,0,,,63,51
9600,note_on,394,0,4,,,,,,,,3,,,39,51
9695,note_on,95,0,1,,,,,,,,0,,,63,0
9791,note_on,191,0,4,,,,,,,,3,,,39,0
9840,note_on,145,0,1,,,,,,,,0,,,55,51
9840,note_on,0,0,1,,,,,,,,0,,,58,51
9935,note_on,0,0,1,,,,,,,,0,,,55,0
9935,note_on,95,0,1,,,,,,,,0,,,58,0
10080,note_on,145,0,1,,,,,,,,0,,,67,51
10080,note_on,289,0,4,,,,,,,,3,,,51,51
10080,note_on,0,0,4,,,,,,,,3,,,46,51
10175,note_on,95,0,1,,,,,,,,0,,,67,0
10320,note_on,145,0,1,,,,,,,,0,,,55,51
10320,note_on,0,0,1,,,,,,,,0,,,58,51
10415,note_on,95,0,1,,,,,,,,0,,,58,0
10415,note_on,0,0,1,,,,,,,,0,,,55,0
10463,note_on,0,0,4,,,,,,,,3,,,51,0
10463,note_on,383,0,4,,,,,,,,3,,,46,0
10560,note_on,0,0,1,,,,,,,,0,,,58,51
10560,note_on,145,0,1,,,,,,,,0,,,55,51
10560,note_on,0,0,1,,,,,,,,0,,,65,51
10655,note_on,0,0,1,,,,,,,,0,,,55,0
10655,note_on,0,0,1,,,,,,,,0,,,58,0
10655,note_on,95,0,1,,,,,,,,0,,,65,0
10800,note_on,145,0,1,,,,,,,,0,,,55,51
10800,note_on,0,0,1,,,,,,,,0,,,58,51
10800,note_on,0,0,1,,,,,,,,0,,,64,51
10895,note_on,0,0,1,,,,,,,,0,,,55,0
10895,note_on,95,0,1,,,,,,,,0,,,64,0
10895,note_on,0,0,1,,,,,,,,0,,,58,0
11040,note_on,0,0,1,,,,,,,,0,,,58,51
11040,note_on,145,0,1,,,,,,,,0,,,55,51
11040,note_on,0,0,1,,,,,,,,0,,,62,51
11040,note_on,577,0,4,,,,,,,,3,,,36,60
11135,note_on,95,0,4,,,,,,,,3,,,36,0
11135,note_on,95,0,1,,,,,,,,0,,,62,0
11135,note_on,0,0,1,,,,,,,,0,,,58,0
11135,note_on,0,0,1,,,,,,,,0,,,55,0
11280,note_on,145,0,4,,,,,,,,3,,,36,55
11280,note_on,145,0,1,,,,,,,,0,,,55,51
11280,note_on,0,0,1,,,,,,,,0,,,58,51
11280,note_on,0,0,1,,,,,,,,0,,,64,51
11366,note_on,86,0,1,,,,,,,,0,,,64,0
11366,note_on,0,0,1,,,,,,,,0,,,58,0
11366,note_on,0,0,1,,,,,,,,0,,,55,0
11366,note_on,86,0,4,,,,,,,,3,,,36,0
11520,note_on,154,0,4,,,,,,,,3,,,29,49
11520,note_on,154,0,1,,,,,,,,0,,,65,51
11615,note_on,95,0,1,,,,,,,,0,,,65,0
11711,note_on,191,0,4,,,,,,,,3,,,29,0
11760,note_on,145,0,1,,,,,,,,0,,,56,51
11760,note_on,0,0,1,,,,,,,,0,,,60,51
11855,note_on,95,0,1,,,,,,,,0,,,60,0
11855,note_on,0,0,1,,,,,,,,0,,,56,0
12000,note_on,0,0,4,,,,,,,,3,,,48,51
12000,note_on,289,0,4,,,,,,,,3,,,53,51
12000,note_on,145,0,1,,,,,,,,0,,,68,51
12095,note_on,95,0,1,,,,,,,,0,,,68,0
12191,note_on,0,0,4,,,,,,,,3,,,53,0
12191,note_on,191,0,4,,,,,,,,3,,,48,0
12240,note_on,0,0,1,,,,,,,,0,,,60,51
12240,note_on,145,0,1,,,,,,,,0,,,56,51
12335,note_on,95,0,1,,,,,,,,0,,,60,0
12335,note_on,0,0,1,,,,,,,,0,,,56,0
12480,note_on,145,0,1,,,,,,,,0,,,65,51
12480,note_on,289,0,4,,,,,,,,3,,,29,51
12575,note_on,95,0,1,,,,,,,,0,,,65,0
12671,note_on,191,0,4,,,,,,,,3,,,29,0
12720,note_on,145,0,1,,,,,,,,0,,,56,51
12720,note_on,0,0,1,,,,,,,,0,,,60,51
12815,note_on,95,0,1,,,,,,,,0,,,60,0
12815,note_on,0,0,1,,,,,,,,0,,,56,0
12960,note_on,0,0,1,,,,,,,,0,,,80,61
12960,note_on,289,0,4,,,,,,,,3,,,29,71
12960,note_on,0,0,4,,,,,,,,3,,,41,71
12960,note_on,145,0,1,,,,,,,,0,,,68,61
12960,note_on,0,0,1,,,,,,,,0,,,72,61
13055,note_on,0,0,1,,,,,,,,0,,,68,0
13055,note_on,0,0,4,,,,,,,,3,,,29,0
13055,note_on,95,0,4,,,,,,,,3,,,41,0
13055,note_on,95,0,1,,,,,,,,0,,,80,0
13055,note_on,0,0,1,,,,,,,,0,,,72,0
13200,note_on,0,0,1,,,,,,,,0,,,77,62
13200,note_on,0,0,1,,,,,,,,0,,,72,62
13200,note_on,145,0,1,,,,,,,,0,,,68,62
13200,note_on,0,0,4,,,,,,,,3,,,44,67
13200,note_on,145,0,4,,,,,,,,3,,,32,67
13286,note_on,0,0,4,,,,,,,,3,,,32,0
13286,note_on,86,0,1,,,,,,,,0,,,77,0
13286,note_on,0,0,1,,,,,,,,0,,,72,0
13286,note_on,0,0,1,,,,,,,,0,,,68,0
13286,note_on,86,0,4,,,,,,,,3,,,44,0
13440,note_on,154,0,4,,,,,,,,3,,,34,62
13440,note_on,154,0,1,,,,,,,,0,,,75,64
13440,note_on,0,0,4,,,,,,,,3,,,46,62
13535,note_on,95,0,1,,,,,,,,0,,,75,0
13631,note_on,0,0,4,,,,,,,,3,,,34,0
13631,note_on,191,0,4,,,,,,,,3,,,46,0
13680,note_on,145,0,1,,,,,,,,0,,,68,64
13680,note_on,0,0,1,,,,,,,,0,,,65,64
13775,note_on,0,0,1,,,,,,,,0,,,68,0
13775,note_on,95,0,1,,,,,,,,0,,,65,0
13920,note_on,145,0,1,,,,,,,,0,,,74,64
13920,note_on,289,0,4,,,,,,,,3,,,58,64
13920,note_on,0,0,4,,,,,,,,3,,,46,64
14015,note_on,95,0,1,,,,,,,,0,,,74,0
14111,note_on,0,0,4,,,,,,,,3,,,58,0
14111,note_on,191,0,4,,,,,,,,3,,,46,0
14160,note_on,0,0,1,,,,,,,,0,,,65,64
14160,note_on,145,0,1,,,,,,,,0,,,68,64
14255,note_on,0,0,1,,,,,,,,0,,,68,0
14255,note_on,95,0,1,,,,,,,,0,,,65,0
14400,note_on,289,0,4,,,,,,,,3,,,70,64
14400,note_on,0,0,4,,,,,,,,3,,,58,64
14400,note_on,145,0,1,,,,,,,,0,,,72,64
14495,note_on,95,0,1,,,,,,,,0,,,72,0
14591,note_on,0,0,4,,,,,,,,3,,,70,0
14591,note_on,191,0,4,,,,,,,,3,,,58,0
14640,note_on,0,0,1,,,,,,,,0,,,68,64
14640,note_on,145,0,1,,,,,,,,0,,,65,64
14735,note_on,0,0,1,,,,,,,,0,,,65,0
14735,note_on,95,0,1,,,,,,,,0,,,68,0
14880,note_on,0,0,4,,,,,,,,3,,,70,64
14880,note_on,289,0,4,,,,,,,,3,,,82,64
14880,note_on,145,0,1,,,,,,,,0,,,74,64
14966,note_on,86,0,4,,,,,,,,3,,,70,0
14966,note_on,0,0,4,,,,,,,,3,,,82,0
14975,note_on,95,0,1,,,,,,,,0,,,74,0
15080,control_change,15080,0,2,,,,,,,,1,64,127,,
15120,note_on,0,0,1,,,,,,,,0,,,68,64
15120,note_on,40,0,2,,,,,,,,1,,,58,88
15120,note_on,145,0,1,,,,,,,,0,,,65,64
15206,note_on,86,0,1,,,,,,,,0,,,68,0
15206,note_on,0,0,1,,,,,,,,0,,,65,0
15336,note_on,216,0,2,,,,,,,,1,,,58,0
15360,note_on,154,0,1,,,,,,,,0,,,75,64
15360,note_on,24,0,2,,,,,,,,1,,,63,91
15455,note_on,95,0,1,,,,,,,,0,,,75,0
15600,note_on,145,0,1,,,,,,,,0,,,67,64
15600,note_on,0,0,1,,,,,,,,0,,,70,64
15695,note_on,95,0,1,,,,,,,,0,,,70,0
15695,note_on,0,0,1,,,,,,,,0,,,67,0
15840,note_on,874,0,4,,,,,,,,3,,,51,64
15840,note_on,145,0,1,,,,,,,,0,,,70,64
15935,note_on,95,0,1,,,,,,,,0,,,70,0
16040,control_change,680,0,2,,,,,,,,1,64,0,,
16080,note_on,145,0,1,,,,,,,,0,,,63,64
16080,note_on,0,0,1,,,,,,,,0,,,67,64
16175,note_on,95,0,1,,,,,,,,0,,,67,0
16175,note_on,0,0,1,,,,,,,,0,,,63,0
16223,note_on,383,0,4,,,,,,,,3,,,51,0
16320,note_on,145,0,1,,,,,,,,0,,,67,64
16415,note_on,95,0,1,,,,,,,,0,,,67,0
16560,note_on,0,0,1,,,,,,,,0,,,63,64
16560,note_on,145,0,1,,,,,,,,0,,,58,64
16655,note_on,0,0,1,,,,,,,,0,,,58,0
16655,note_on,95,0,1,,,,,,,,0,,,63,0
16800,note_on,145,0,1,,,,,,,,0,,,63,64
16800,note_on,577,0,4,,,,,,,,3,,,39,63
16895,note_on,95,0,4,,,,,,,,3,,,39,0
16895,note_on,95,0,1,,,,,,,,0,,,63,0
17039,note_on,999,0,2,,,,,,,,1,,,63,0
17040,note_on,145,0,1,,,,,,,,0,,,58,64
17040,note_on,1,0,2,,,,,,,,1,,,55,83
17040,note_on,145,0,4,,,,,,,,3,,,39,56
17126,note_on,86,0,1,,,,,,,,0,,,58,0
17126,note_on,86,0,4,,,,,,,,3,,,39,0
17256,note_on,216,0,2,,,,,,,,1,,,55,0
17280,control_change,24,0,2,,,,,,,,1,64,127,,
17280,note_on,0,0,2,,,,,,,,1,,,55,91
17280,note_on,154,0,4,,,,,,,,3,,,39,49
17280,note_on,154,0,1,,,,,,,,0,,,63,51
17375,note_on,95,0,1,,,,,,,,0,,,63,0
17471,note_on,191,0,4,,,,,,,,3,,,39,0
17520,note_on,145,0,1,,,,,,,,0,,,58,51
17615,note_on,95,0,1,,,,,,,,0,,,58,0
17759,note_on,479,0,2,,,,,,,,1,,,55,0
17760,note_on,145,0,1,,,,,,,,0,,,63,51
17760,note_on,289,0,4,,,,,,,,3,,,51,51
17760,note_on,1,0,2,,,,,,,,1,,,53,87
17855,note_on,95,0,1,,,,,,,,0,,,63,0
17951,note_on,191,0,4,,,,,,,,3,,,51,0
17999,note_on,239,0,2,,,,,,,,1,,,53,0
18000,note_on,1,0,2,,,,,,,,1,,,55,91
18000,note_on,145,0,1,,,,,,,,0,,,58,51
18000,note_on,0,0,1,,,,,,,,0,,,61,51
18095,note_on,95,0,1,,,,,,,,0,,,61,0
18095,note_on,0,0,1,,,,,,,,0,,,58,0
18239,note_on,239,0,2,,,,,,,,1,,,55,0
18240,note_on,289,0,4,,,,,,,,3,,,39,51
18240,control_change,1,0,2,,,,,,,,1,64,0,,
18240,note_on,0,0,2,,,,,,,,1,,,56,96
18240,note_on,145,0,1,,,,,,,,0,,,63,51
18335,note_on,95,0,1,,,,,,,,0,,,63,0
18431,note_on,191,0,4,,,,,,,,3,,,39,0
18480,note_on,145,0,1,,,,,,,,0,,,60,51
18575,note_on,95,0,1,,,,,,,,0,,,60,0
18719,note_on,479,0,2,,,,,,,,1,,,56,0
18720,note_on,145,0,1,,,,,,,,0,,,63,51
18720,note_on,289,0,4,,,,,,,,3,,,51,51
18720,note_on,1,0,2,,,,,,,,1,,,58,98
18806,note_on,86,0,4,,,,,,,,3,,,51,0
18815,note_on,95,0,1,,,,,,,,0,,,63,0
18959,note_on,239,0,2,,,,,,,,1,,,58,0
18960,note_on,145,0,1,,,,,,,,0,,,53,51
18960,note_on,0,0,1,,,,,,,,0,,,56,51
18960,note_on,1,0,2,,,,,,,,1,,,60,91
19046,note_on,86,0,1,,,,,,,,0,,,56,0
19046,note_on,0,0,1,,,,,,,,0,,,53,0
19176,note_on,216,0,2,,,,,,,,1,,,60,0
19200,note_on,154,0,1,,,,,,,,0,,,63,51
19200,note_on,394,0,4,,,,,,,,3,,,39,51
19200,control_change,24,0,2,,,,,,,,1,64,127,,
19200,note_on,0,0,2,,,,,,,,1,,,58,91
19295,note_on,95,0,1,,,,,,,,0,,,63,0
19391,note_on,191,0,4,,,,,,,,3,,,39,0
19440,note_on,145,0,1,,,,,,,,0,,,55,53
19535,note_on,95,0,1,,,,,,,,0,,,55,0
19680,note_on,145,0,1,,,,,,,,0,,,67,56
19680,note_on,289,0,4,,,,,,,,3,,,51,56
19775,note_on,95,0,1,,,,,,,,0,,,67,0
19920,note_on,0,0,1,,,,,,,,0,,,63,58
19920,note_on,145,0,1,,,,,,,,0,,,58,58
20015,note_on,0,0,1,,,,,,,,0,,,58,0
20015,note_on,95,0,1,,,,,,,,0,,,63,0
20063,note_on,383,0,4,,,,,,,,3,,,51,0
20160,control_change,960,0,2,,,,,,,,1,64,0,,
20160,note_on,145,0,1,,,,,,,,0,,,70,60
20255,note_on,95,0,1,,,,,,,,0,,,70,0
20400,note_on,0,0,1,,,,,,,,0,,,67,64
20400,note_on,145,0,1,,,,,,,,0,,,63,64
20495,note_on,0,0,1,,,,,,,,0,,,63,0
20495,note_on,95,0,1,,,,,,,,0,,,67,0
20640,note_on,145,0,1,,,,,,,,0,,,75,66
20640,note_on,577,0,4,,,,,,,,3,,,46,66
20735,note_on,95,0,1,,,,,,,,0,,,75,0
20735,note_on,95,0,4,,,,,,,,3,,,46,0
20879,note_on,719,0,2,,,,,,,,1,,,58,0
20880,note_on,145,0,1,,,,,,,,0,,,67,68
20880,note_on,1,0,2,,,,,,,,1,,,55,89
20880,note_on,145,0,4,,,,,,,,3,,,46,68
20880,note_on,0,0,1,,,,,,,,0,,,70,68
20966,note_on,86,0,1,,,,,,,,0,,,70,0
20966,note_on,86,0,4,,,,,,,,3,,,46,0
20966,note_on,0,0,1,,,,,,,,0,,,67,0
21096,note_on,216,0,2,,,,,,,,1,,,55,0
21120,note_on,154,0,1,,,,,,,,0,,,79,71
21120,note_on,0,0,2,,,,,,,,1,,,58,96
21120,control_change,24,0,2,,,,,,,,1,64,127,,
21120,note_on,154,0,4,,,,,,,,3,,,46,71
21215,note_on,95,0,1,,,,,,,,0,,,79,0
21311,note_on,191,0,4,,,,,,,,3,,,46,0
21360,note_on,145,0,1,,,,,,,,0,,,75,68
21360,note_on,0,0,1,,,,,,,,0,,,68,68
21455,note_on,95,0,1,,,,,,,,0,,,68,0
21455,note_on,0,0,1,,,,,,,,0,,,75,0
21600,note_on,289,0,4,,,,,,,,3,,,34,66
21600,note_on,145,0,1,,,,,,,,0,,,75,66
21695,note_on,95,0,1,,,,,,,,0,,,75,0
21791,note_on,191,0,4,,,,,,,,3,,,34,0
21840,note_on,145,0,1,,,,,,,,0,,,68,64
21840,note_on,0,0,1,,,,,,,,0,,,65,64
21935,note_on,0,0,1,,,,,,,,0,,,68,0
21935,note_on,95,0,1,,,,,,,,0,,,65,0
22080,note_on,145,0,1,,,,,,,,0,,,77,60
22080,control_change,960,0,2,,,,,,,,1,64,0,,
22080,note_on,289,0,4,,,,,,,,3,,,46,60
22175,note_on,95,0,1,,,,,,,,0,,,77,0
22271,note_on,191,0,4,,,,,,,,3,,,46,0
22320,note_on,0,0,1,,,,,,,,0,,,68,58
22320,note_on,145,0,1,,,,,,,,0,,,72,58
22415,note_on,0,0,1,,,,,,,,0,,,72,0
22415,note_on,95,0,1,,,,,,,,0,,,68,0
22560,note_on,145,0,1,,,,,,,,0,,,74,56
22560,note_on,289,0,4,,,,,,,,3,,,34,56
22646,note_on,86,0,4,,,,,,,,3,,,34,0
22655,note_on,95,0,1,,,,,,,,0,,,74,0
22800,note_on,0,0,1,,,,,,,,0,,,65,53
22800,note_on,145,0,1,,,,,,,,0,,,70,53
22886,note_on,86,0,1,,,,,,,,0,,,65,0
22886,note_on,0,0,1,,,,,,,,0,,,70,0
23040,note_on,394,0,4,,,,,,,,3,,,39,51
23040,control_change,960,0,2,,,,,,,,1,64,127,,
23040,note_on,154,0,1,,,,,,,,0,,,75,51
23135,note_on,95,0,1,,,,,,,,0,,,75,0
23231,note_on,191,0,4,,,,,,,,3,,,39,0
23280,note_on,0,0,1,,,,,,,,0,,,70,51
23280,note_on,145,0,1,,,,,,,,0,,,67,51
23375,note_on,0,0,1,,,,,,,,0,,,67,0
23375,note_on,95,0,1,,,,,,,,0,,,70,0
23520,note_on,0,0,4,,,,,,,,3,,,55,51
23520,note_on,145,0,1,,,,,,,,0,,,70,51
23520,note_on,289,0,4,,,,,,,,3,,,63,51
23520,note_on,0,0,4,,,,,,,,3,,,51,51
23615,note_on,95,0,1,,,,,,,,0,,,70,0
23760,note_on,0,0,1,,,,,,,,0,,,67,51
23760,note_on,145,0,1,,,,,,,,0,,,63,51
23855,note_on,0,0,1,,,,,,,,0,,,63,0
23855,note_on,95,0,1,,,,,,,,0,,,67,0
23903,note_on,0,0,4,,,,,,,,3,,,63,0
23903,note_on,0,0,4,,,,,,,,3,,,55,0
23903,note_on,383,0,4,,,,,,,,3,,,51,0
24000,control_change,960,0,2,,,,,,,,1,64,0,,
24000,note_on,145,0,1,,,,,,,,0,,,67,51
24095,note_on,95,0,1,,,,,,,,0,,,67,0
24240,note_on,145,0,1,,,,,,,,0,,,58,51
24240,note_on,0,0,1,,,,,,,,0,,,63,51
24335,note_on,95,0,1,,,,,,,,0,,,63,0
24335,note_on,0,0,1,,,,,,,,0,,,58,0
24479,note_on,479,0,2,,,,,,,,1,,,58,0
24480,note_on,145,0,1,,,,,,,,0,,,63,51
24480,note_on,577,0,4,,,,,,,,3,,,34,64
24480,note_on,1,0,2,,,,,,,,1,,,63,91
24575,note_on,95,0,4,,,,,,,,3,,,34,0
24575,note_on,95,0,1,,,,,,,,0,,,63,0
24720,note_on,145,0,1,,,,,,,,0,,,55,51
24720,note_on,145,0,4,,,,,,,,3,,,34,58
24720,note_on,0,0,1,,,,,,,,0,,,58,51
24806,note_on,0,0,1,,,,,,,,0,,,55,0
24806,note_on,86,0,4,,,,,,,,3,,,34,0
24806,note_on,86,0,1,,,,,,,,0,,,58,0
24912,note_on,432,0,2,,,,,,,,1,,,63,0
24960,note_on,154,0,1,,,,,,,,0,,,65,51
24960,note_on,0,0,2,,,,,,,,1,,,62,91
24960,control_change,48,0,2,,,,,,,,1,64,127,,
24960,note_on,154,0,4,,,,,,,,3,,,34,52
25055,note_on,95,0,1,,,,,,,,0,,,65,0
25151,note_on,191,0,4,,,,,,,,3,,,34,0
25200,note_on,145,0,1,,,,,,,,0,,,56,51
25200,note_on,0,0,1,,,,,,,,0,,,58,51
25295,note_on,95,0,1,,,,,,,,0,,,58,0
25295,note_on,0,0,1,,,,,,,,0,,,56,0
25439,note_on,479,0,2,,,,,,,,1,,,62,0
25440,note_on,289,0,4,,,,,,,,3,,,46,51
25440,note_on,1,0,2,,,,,,,,1,,,70,98
25440,note_on,145,0,1,,,,,,,,0,,,62,51
25440,note_on,0,0,1,,,,,,,,0,,,70,51
25535,note_on,95,0,1,,,,,,,,0,,,70,0
25535,note_on,0,0,1,,,,,,,,0,,,62,0
25631,note_on,191,0,4,,,,,,,,3,,,46,0
25679,note_on,239,0,2,,,,,,,,1,,,70,0
25680,note_on,0,0,1,,,,,,,,0,,,62,51
25680,note_on,145,0,1,,,,,,,,0,,,58,51
25680,note_on,1,0,2,,,,,,,,1,,,70,97
25680,note_on,0,0,1,,,,,,,,0,,,70,51
25775,note_on,95,0,1,,,,,,,,0,,,70,0
25775,note_on,0,0,1,,,,,,,,0,,,62,0
25775,note_on,0,0,1,,,,,,,,0,,,58,0
25919,note_on,239,0,2,,,,,,,,1,,,70,0
25920,note_on,289,0,4,,,,,,,,3,,,34,51
25920,note_on,0,0,2,,,,,,,,1,,,62,94
25920,note_on,145,0,1,,,,,,,,0,,,65,51
25920,control_change,1,0,2,,,,,,,,1,64,0,,
26006,note_on,86,0,4,,,,,,,,3,,,34,0
26015,note_on,95,0,1,,,,,,,,0,,,65,0
26160,note_on,0,0,1,,,,,,,,0,,,58,51
26160,note_on,145,0,1,,,,,,,,0,,,56,51
26255,note_on,0,0,1,,,,,,,,0,,,56,0
26255,note_on,95,0,1,,,,,,,,0,,,58,0
26399,note_on,479,0,2,,,,,,,,1,,,62,0
26400,note_on,1,0,2,,,,,,,,1,,,70,96
26400,note_on,0,0,1,,,,,,,,0,,,70,51
26400,note_on,145,0,1,,,,,,,,0,,,62,51
26495,note_on,95,0,1,,,,,,,,0,,,70,0
26495,note_on,0,0,1,,,,,,,,0,,,62,0
26639,note_on,239,0,2,,,,,,,,1,,,70,0
26640,note_on,0,0,1,,,,,,,,0,,,70,51
26640,note_on,0,0,1,,,,,,,,0,,,62,51
26640,note_on,145,0,1,,,,,,,,0,,,56,51
26640,note_on,1,0,2,,,,,,,,1,,,70,93
26726,note_on,86,0,1,,,,,,,,0,,,70,0
26726,note_on,0,0,1,,,,,,,,0,,,62,0
26726,note_on,0,0,1,,,,,,,,0,,,56,0
26856,note_on,216,0,2,,,,,,,,1,,,70,0
26880,control_change,874,0,4,,,,,,,,3,64,127,,
26880,note_on,154,0,1,,,,,,,,0,,,67,51
26880,note_on,0,0,4,,,,,,,,3,,,34,51
26880,note_on,26832,0,3,,,,,,,,2,,,51,91
26975,note_on,95,0,1,,,,,,,,0,,,67,0
27071,note_on,191,0,4,,,,,,,,3,,,34,0
27120,note_on,0,0,1,,,,,,,,0,,,58,51
27120,note_on,145,0,1,,,,,,,,0,,,55,51
27215,note_on,0,0,1,,,,,,,,0,,,55,0
27215,note_on,95,0,1,,,,,,,,0,,,58,0
27359,note_on,479,0,3,,,,,,,,2,,,51,0
27360,note_on,0,0,4,,,,,,,,3,,,46,51
27360,note_on,289,0,4,,,,,,,,3,,,55,51
27360,note_on,1,0,3,,,,,,,,2,,,63,100
27360,note_on,145,0,1,,,,,,,,0,,,75,51
27455,note_on,95,0,1,,,,,,,,0,,,75,0
27551,note_on,0,0,4,,,,,,,,3,,,55,0
27551,note_on,191,0,4,,,,,,,,3,,,46,0
27599,note_on,239,0,3,,,,,,,,2,,,63,0
27600,note_on,0,0,1,,,,,,,,0,,,75,51
27600,note_on,145,0,1,,,,,,,,0,,,67,51
27600,note_on,1,0,3,,,,,,,,2,,,63,96
27695,note_on,95,0,1,,,,,,,,0,,,75,0
27695,note_on,0,0,1,,,,,,,,0,,,67,0
27839,note_on,239,0,3,,,,,,,,2,,,63,0
27840,note_on,145,0,1,,,,,,,,0,,,67,51
27840,control_change,289,0,4,,,,,,,,3,64,0,,
27840,note_on,0,0,4,,,,,,,,3,,,34,51
27840,note_on,0,0,1,,,,,,,,0,,,70,51
27840,note_on,1,0,3,,,,,,,,2,,,58,92
27935,note_on,95,0,1,,,,,,,,0,,,70,0
27935,note_on,0,0,1,,,,,,,,0,,,67,0
28031,note_on,191,0,4,,,,,,,,3,,,34,0
28080,note_on,145,0,1,,,,,,,,0,,,55,51
28080,note_on,0,0,1,,,,,,,,0,,,63,51
28175,note_on,0,0,1,,,,,,,,0,,,55,0
28175,note_on,95,0,1,,,,,,,,0,,,63,0
28320,note_on,145,0,1,,,,,,,,0,,,67,51
28320,note_on,289,0,4,,,,,,,,3,,,46,51
28406,note_on,86,0,4,,,,,,,,3,,,46,0
28415,note_on,95,0,1,,,,,,,,0,,,67,0
28559,note_on,719,0,3,,,,,,,,2,,,58,0
28560,note_on,0,0,1,,,,,,,,0,,,70,51
28560,note_on,145,0,1,,,,,,,,0,,,63,51
28560,note_on,0,0,3,,,,,,,,2,,,55,91
28560,note_on,1,0,3,,,,,,,,2,,,58,91
28646,note_on,86,0,1,,,,,,,,0,,,70,0
28646,note_on,0,0,1,,,,,,,,0,,,63,0
28776,note_on,0,0,3,,,,,,,,2,,,58,0
28776,note_on,216,0,3,,,,,,,,2,,,55,0
28800,note_on,0,0,1,,,,,,,,0,,,72,51
28800,note_on,24,0,3,,,,,,,,2,,,60,91
28800,note_on,154,0,1,,,,,,,,0,,,68,51
28800,note_on,394,0,4,,,,,,,,3,,,34,51
28895,note_on,0,0,1,,,,,,,,0,,,68,0
28895,note_on,95,0,1,,,,,,,,0,,,72,0
28943,note_on,143,0,4,,,,,,,,3,,,34,0
29040,note_on,0,0,1,,,,,,,,0,,,65,51
29040,note_on,145,0,1,,,,,,,,0,,,56,51
29135,note_on,95,0,1,,,,,,,,0,,,65,0
29135,note_on,0,0,1,,,,,,,,0,,,56,0
29160,note_on,217,0,4,,,,,,,,3,,,46,43
29207,note_on,47,0,4,,,,,,,,3,,,46,0
29279,note_on,479,0,3,,,,,,,,2,,,60,0
29280,note_on,73,0,4,,,,,,,,3,,,60,51
29280,note_on,1,0,3,,,,,,,,2,,,65,97
29280,note_on,0,0,1,,,,,,,,0,,,77,51
29280,note_on,145,0,1,,,,,,,,0,,,68,51
29375,note_on,95,0,1,,,,,,,,0,,,77,0
29375,note_on,95,0,4,,,,,,,,3,,,60,0
29375,note_on,0,0,1,,,,,,,,0,,,68,0
29519,note_on,239,0,3,,,,,,,,2,,,65,0
29520,note_on,1,0,3,,,,,,,,2,,,60,94
29520,note_on,145,0,4,,,,,,,,3,,,56,51
29520,note_on,0,0,1,,,,,,,,0,,,72,51
29520,note_on,145,0,1,,,,,,,,0,,,65,51
29615,note_on,0,0,1,,,,,,,,0,,,65,0
29615,note_on,95,0,4,,,,,,,,3,,,56,0
29615,note_on,95,0,1,,,,,,,,0,,,72,0
29759,note_on,239,0,3,,,,,,,,2,,,60,0
29760,note_on,145,0,1,,,,,,,,0,,,67,51
29760,note_on,1,0,3,,,,,,,,2,,,58,92
29760,note_on,0,0,1,,,,,,,,0,,,70,51
29760,note_on,145,0,4,,,,,,,,3,,,34,51
29855,note_on,95,0,1,,,,,,,,0,,,70,0
29855,note_on,0,0,1,,,,,,,,0,,,67,0
29903,note_on,143,0,4,,,,,,,,3,,,34,0
30000,note_on,0,0,1,,,,,,,,0,,,63,51
30000,note_on,145,0,1,,,,,,,,0,,,55,51
30095,note_on,95,0,1,,,,,,,,0,,,63,0
30095,note_on,0,0,1,,,,,,,,0,,,55,0
30120,note_on,217,0,4,,,,,,,,3,,,46,44
30167,note_on,47,0,4,,,,,,,,3,,,46,0
30239,note_on,479,0,3,,,,,,,,2,,,58,0
30240,note_on,1,0,3,,,,,,,,2,,,63,97
30240,note_on,145,0,1,,,,,,,,0,,,67,51
30240,note_on,73,0,4,,,,,,,,3,,,58,51
30240,note_on,0,0,1,,,,,,,,0,,,75,51
30335,note_on,95,0,4,,,,,,,,3,,,58,0
30335,note_on,95,0,1,,,,,,,,0,,,75,0
30335,note_on,0,0,1,,,,,,,,0,,,67,0
30479,note_on,239,0,3,,,,,,,,2,,,63,0
30480,note_on,1,0,3,,,,,,,,2,,,58,94
30480,note_on,145,0,4,,,,,,,,3,,,55,51
30480,note_on,0,0,1,,,,,,,,0,,,70,51
30480,note_on,145,0,1,,,,,,,,0,,,63,51
30566,note_on,86,0,1,,,,,,,,0,,,70,0
30566,note_on,0,0,1,,,,,,,,0,,,63,0
30566,note_on,86,0,4,,,,,,,,3,,,55,0
30696,note_on,216,0,3,,,,,,,,2,,,58,0
30720,note_on,0,0,1,,,,,,,,0,,,68,51
30720,note_on,0,0,4,,,,,,,,3,,,34,51
30720,note_on,24,0,3,,,,,,,,2,,,56,91
30720,note_on,154,0,1,,,,,,,,0,,,65,51
30720,control_change,154,0,4,,,,,,,,3,64,127,,
30815,note_on,95,0,1,,,,,,,,0,,,68,0
30815,note_on,0,0,1,,,,,,,,0,,,65,0
30863,note_on,143,0,4,,,,,,,,3,,,34,0
30960,note_on,145,0,1,,,,,,,,0,,,58,51
30960,note_on,0,0,1,,,,,,,,0,,,62,51
31055,note_on,95,0,1,,,,,,,,0,,,62,0
31055,note_on,0,0,1,,,,,,,,0,,,58,0
31080,note_on,217,0,4,,,,,,,,3,,,46,46
31127,note_on,47,0,4,,,,,,,,3,,,46,0
31199,note_on,479,0,3,,,,,,,,2,,,56,0
31200,note_on,73,0,4,,,,,,,,3,,,56,51
31200,note_on,0,0,1,,,,,,,,0,,,72,51
31200,note_on,145,0,1,,,,,,,,0,,,65,51
31200,note_on,1,0,3,,,,,,,,2,,,60,94
31295,note_on,95,0,4,,,,,,,,3,,,56,0
31295,note_on,0,0,1,,,,,,,,0,,,65,0
31295,note_on,95,0,1,,,,,,,,0,,,72,0
31439,note_on,239,0,3,,,,,,,,2,,,60,0
31440,note_on,1,0,3,,,,,,,,2,,,58,91
31440,note_on,0,0,1,,,,,,,,0,,,70,51
31440,note_on,145,0,4,,,,,,,,3,,,56,51
31440,note_on,145,0,1,,,,,,,,0,,,62,51
31535,note_on,95,0,4,,,,,,,,3,,,56,0
31535,note_on,0,0,1,,,,,,,,0,,,62,0
31535,note_on,95,0,1,,,,,,,,0,,,70,0
31679,note_on,239,0,3,,,,,,,,2,,,58,0
31680,note_on,145,0,1,,,,,,,,0,,,67,51
31680,control_change,145,0,4,,,,,,,,3,64,0,,
31680,note_on,1,0,3,,,,,,,,2,,,55,88
31680,note_on,0,0,4,,,,,,,,3,,,39,51
31775,note_on,95,0,1,,,,,,,,0,,,67,0
31871,note_on,191,0,4,,,,,,,,3,,,39,0
31920,note_on,0,0,1,,,,,,,,0,,,58,51
31920,note_on,145,0,1,,,,,,,,0,,,55,51
32015,note_on,0,0,1,,,,,,,,0,,,55,0
32015,note_on,95,0,1,,,,,,,,0,,,58,0
32160,note_on,289,0,4,,,,,,,,3,,,34,51
32160,note_on,145,0,1,,,,,,,,0,,,67,51
32255,note_on,95,0,4,,,,,,,,3,,,34,0
32255,note_on,95,0,1,,,,,,,,0,,,67,0
32399,note_on,719,0,3,,,,,,,,2,,,55,0
32400,note_on,1,0,3,,,,,,,,2,,,51,91
32400,note_on,145,0,4,,,,,,,,3,,,34,51
32400,note_on,145,0,1,,,,,,,,0,,,55,51
32400,note_on,0,0,1,,,,,,,,0,,,63,51
32486,note_on,86,0,1,,,,,,,,0,,,63,0
32486,note_on,86,0,4,,,,,,,,3,,,34,0
32486,note_on,0,0,1,,,,,,,,0,,,55,0
32616,note_on,216,0,3,,,,,,,,2,,,51,0
32640,note_on,0,0,4,,,,,,,,3,,,34,51
32640,note_on,24,0,3,,,,,,,,2,,,50,91
32640,note_on,154,0,1,,,,,,,,0,,,65,51
32640,control_change,154,0,4,,,,,,,,3,64,127,,
32735,note_on,95,0,1,,,,,,,,0,,,65,0
32831,note_on,191,0,4,,,,,,,,3,,,34,0
32880,note_on,0,0,1,,,,,,,,0,,,58,51
32880,note_on,145,0,1,,,,,,,,0,,,56,51
32975,note_on,0,0,1,,,,,,,,0,,,56,0
32975,note_on,95,0,1,,,,,,,,0,,,58,0
33119,note_on,479,0,3,,,,,,,,2,,,50,0
33120,note_on,0,0,1,,,,,,,,0,,,70,51
33120,note_on,1,0,3,,,,,,,,2,,,58,95
33120,note_on,289,0,4,,,,,,,,3,,,46,51
33120,note_on,145,0,1,,,,,,,,0,,,62,51
33215,note_on,0,0,1,,,,,,,,0,,,62,0
33215,note_on,95,0,1,,,,,,,,0,,,70,0
33311,note_on,191,0,4,,,,,,,,3,,,46,0
33359,note_on,239,0,3,,,,,,,,2,,,58,0
33360,note_on,0,0,1,,,,,,,,0,,,58,51
33360,note_on,145,0,1,,,,,,,,0,,,56,51
33360,note_on,1,0,3,,,,,,,,2,,,58,92
33360,note_on,0,0,1,,,,,,,,0,,,70,51
33455,note_on,0,0,1,,,,,,,,0,,,56,0
33455,note_on,0,0,1,,,,,,,,0,,,58,0
33455,note_on,95,0,1,,,,,,,,0,,,70,0
33599,note_on,239,0,3,,,,,,,,2,,,58,0
33600,control_change,289,0,4,,,,,,,,3,64,0,,
33600,note_on,1,0,3,,,,,,,,2,,,50,89
33600,note_on,145,0,1,,,,,,,,0,,,65,51
33600,note_on,0,0,4,,,,,,,,3,,,34,51
33695,note_on,95,0,1,,,,,,,,0,,,65,0
33791,note_on,191,0,4,,,,,,,,3,,,34,0
33840,note_on,145,0,1,,,,,,,,0,,,56,51
33840,note_on,0,0,1,,,,,,,,0,,,58,51
33935,note_on,0,0,1,,,,,,,,0,,,56,0
33935,note_on,95,0,1,,,,,,,,0,,,58,0
34079,note_on,479,0,3,,,,,,,,2,,,50,0
34080,note_on,289,0,4,,,,,,,,3,,,46,51
34080,note_on,145,0,1,,,,,,,,0,,,62,51
34080,note_on,1,0,3,,,,,,,,2,,,58,95
34080,note_on,0,0,1,,,,,,,,0,,,70,51
34166,note_on,86,0,4,,,,,,,,3,,,46,0
34175,note_on,95,0,1,,,,,,,,0,,,70,0
34175,note_on,0,0,1,,,,,,,,0,,,62,0
34319,note_on,239,0,3,,,,,,,,2,,,58,0
34320,note_on,145,0,1,,,,,,,,0,,,56,51
34320,note_on,0,0,1,,,,,,,,0,,,58,51
34320,note_on,0,0,1,,,,,,,,0,,,70,51
34320,note_on,1,0,3,,,,,,,,2,,,58,93
34406,note_on,0,0,1,,,,,,,,0,,,58,0
34406,note_on,0,0,1,,,,,,,,0,,,56,0
34406,note_on,86,0,1,,,,,,,,0,,,70,0
34536,note_on,216,0,3,,,,,,,,2,,,58,0
34560,note_on,24,0,3,,,,,,,,2,,,51,90
34560,note_on,154,0,1,,,,,,,,0,,,67,51
34560,note_on,394,0,4,,,,,,,,3,,,39,51
34655,note_on,95,0,1,,,,,,,,0,,,67,0
34751,note_on,191,0,4,,,,,,,,3,,,39,0
34800,note_on,0,0,1,,,,,,,,0,,,58,51
34800,note_on,145,0,1,,,,,,,,0,,,55,51
34895,note_on,0,0,1,,,,,,,,0,,,55,0
34895,note_on,95,0,1,,,,,,,,0,,,58,0
35039,note_on,479,0,3,,,,,,,,2,,,51,0
35040,note_on,1,0,3,,,,,,,,2,,,63,98
35040,note_on,0,0,4,,,,,,,,3,,,46,51
35040,note_on,289,0,4,,,,,,,,3,,,55,51
35040,note_on,145,0,1,,,,,,,,0,,,75,51
35135,note_on,95,0,1,,,,,,,,0,,,75,0
35231,note_on,191,0,4,,,,,,,,3,,,46,0
35231,note_on,0,0,4,,,,,,,,3,,,55,0
35279,note_on,239,0,3,,,,,,,,2,,,63,0
35280,note_on,1,0,3,,,,,,,,2,,,63,94
35280,note_on,145,0,1,,,,,,,,0,,,67,51
35280,note_on,0,0,1,,,,,,,,0,,,75,51
35375,note_on,0,0,1,,,,,,,,0,,,67,0
35375,note_on,95,0,1,,,,,,,,0,,,75,0
35519,note_on,239,0,3,,,,,,,,2,,,63,0
35520,note_on,0,0,1,,,,,,,,0,,,70,51
35520,note_on,145,0,1,,,,,,,,0,,,67,51
35520,note_on,1,0,3,,,,,,,,2,,,58,91
35520,note_on,289,0,4,,,,,,,,3,,,39,51
35615,note_on,95,0,1,,,,,,,,0,,,70,0
35615,note_on,0,0,1,,,,,,,,0,,,67,0
35711,note_on,191,0,4,,,,,,,,3,,,39,0
35760,note_on,145,0,1,,,,,,,,0,,,55,51
35760,note_on,0,0,1,,,,,,,,0,,,63,51
35855,note_on,95,0,1,,,,,,,,0,,,63,0
35855,note_on,0,0,1,,,,,,,,0,,,55,0
36000,note_on,0,0,4,,,,,,,,3,,,46,51
36000,note_on,0,0,4,,,,,,,,3,,,51,51
36000,note_on,0,0,1,,,,,,,,0,,,67,51
36000,note_on,145,0,1,,,,,,,,0,,,63,51
36000,note_on,289,0,4,,,,,,,,3,,,58,51
36086,note_on,86,0,4,,,,,,,,3,,,46,0
36086,note_on,0,0,4,,,,,,,,3,,,51,0
36086,note_on,0,0,4,,,,,,,,3,,,58,0
36095,note_on,0,0,1,,,,,,,,0,,,63,0
36095,note_on,95,0,1,,,,,,,,0,,,67,0
36239,note_on,719,0,3,,,,,,,,2,,,58,0
36240,note_on,1,0,3,,,,,,,,2,,,63,91
36240,note_on,0,0,1,,,,,,,,0,,,75,51
36240,note_on,145,0,1,,,,,,,,0,,,67,51
36326,note_on,0,0,1,,,,,,,,0,,,67,0
36326,note_on,86,0,1,,,,,,,,0,,,75,0
36456,note_on,216,0,3,,,,,,,,2,,,63,0
36480,note_on,0,0,1,,,,,,,,0,,,75,51
36480,control_change,154,0,1,,,,,,,,0,64,127,,
36480,note_on,0,0,1,,,,,,,,0,,,79,51
36480,control_change,394,0,4,,,,,,,,3,64,127,,
36480,note_on,0,0,3,,,,,,,,2,,,67,95
36480,control_change,24,0,3,,,,,,,,2,64,127,,
36480,note_on,0,0,4,,,,,,,,3,,,36,51
36575,note_on,0,0,1,,,,,,,,0,,,79,0
36575,note_on,95,0,1,,,,,,,,0,,,75,0
36671,note_on,191,0,4,,,,,,,,3,,,36,0
36720,note_on,0,0,1,,,,,,,,0,,,63,51
36720,note_on,145,0,1,,,,,,,,0,,,70,51
36815,note_on,0,0,1,,,,,,,,0,,,70,0
36815,note_on,95,0,1,,,,,,,,0,,,63,0
36960,note_on,289,0,4,,,,,,,,3,,,48,52
36960,note_on,145,0,1,,,,,,,,0,,,75,51
36960,note_on,0,0,1,,,,,,,,0,,,67,51
37000,note_on,40,0,4,,,,,,,,3,,,55,53
37040,note_on,40,0,4,,,,,,,,3,,,63,56
37055,note_on,0,0,1,,,,,,,,0,,,75,0
37055,note_on,95,0,1,,,,,,,,0,,,67,0
37199,note_on,719,0,3,,,,,,,,2,,,67,0
37200,note_on,1,0,3,,,,,,,,2,,,63,91
37200,note_on,145,0,1,,,,,,,,0,,,75,51
37200,note_on,0,0,1,,,,,,,,0,,,63,51
37295,note_on,0,0,4,,,,,,,,3,,,55,0
37295,note_on,255,0,4,,,,,,,,3,,,63,0
37295,note_on,0,0,1,,,,,,,,0,,,75,0
37295,note_on,0,0,4,,,,,,,,3,,,48,0
37295,note_on,95,0,1,,,,,,,,0,,,63,0
37439,note_on,239,0,3,,,,,,,,2,,,63,0
37440,note_on,0,0,1,,,,,,,,0,,,65,51
37440,note_on,0,0,3,,,,,,,,2,,,62,91
37440,control_change,1,0,3,,,,,,,,2,64,0,,
37440,note_on,0,0,1,,,,,,,,0,,,74,51
37440,note_on,0,0,4,,,,,,,,3,,,31,51
37440,control_change,145,0,1,,,,,,,,0,64,0,,
37440,control_change,145,0,4,,,,,,,,3,64,0,,
37535,note_on,95,0,1,,,,,,,,0,,,74,0
37535,note_on,0,0,1,,,,,,,,0,,,65,0
37631,note_on,191,0,4,,,,,,,,3,,,31,0
37680,note_on,145,0,1,,,,,,,,0,,,59,51
37680,note_on,0,0,1,,,,,,,,0,,,67,51
37775,note_on,0,0,1,,,,,,,,0,,,59,0
37775,note_on,95,0,1,,,,,,,,0,,,67,0
37920,note_on,0,0,1,,,,,,,,0,,,71,51
37920,note_on,145,0,1,,,,,,,,0,,,62,51
37920,note_on,289,0,4,,,,,,,,3,,,43,50
37920,note_on,0,0,1,,,,,,,,0,,,65,51
37960,note_on,40,0,4,,,,,,,,3,,,50,51
38000,note_on,40,0,4,,,,,,,,3,,,53,54
38015,note_on,0,0,1,,,,,,,,0,,,62,0
38015,note_on,0,0,1,,,,,,,,0,,,65,0
38015,note_on,95,0,1,,,,,,,,0,,,71,0
38040,note_on,40,0,4,,,,,,,,3,,,59,55
38083,note_on,0,0,4,,,,,,,,3,,,53,0
38083,note_on,0,0,4,,,,,,,,3,,,50,0
38083,note_on,43,0,4,,,,,,,,3,,,59,0
38083,note_on,0,0,4,,,,,,,,3,,,43,0
38159,note_on,719,0,3,,,,,,,,2,,,62,0
38160,note_on,145,0,1,,,,,,,,0,,,59,51
38160,note_on,0,0,1,,,,,,,,0,,,71,51
38160,note_on,1,0,3,,,,,,,,2,,,59,91
38246,note_on,86,0,1,,,,,,,,0,,,71,0
38246,note_on,0,0,1,,,,,,,,0,,,59,0
38349,control_change,189,0,3,,,,,,,,2,64,127,,
38376,note_on,27,0,3,,,,,,,,2,,,59,0
38400,note_on,24,0,3,,,,,,,,2,,,63,95
38400,note_on,0,0,1,,,,,,,,0,,,75,51
38400,note_on,317,0,4,,,,,,,,3,,,36,51
38400,note_on,154,0,1,,,,,,,,0,,,67,51
38495,note_on,0,0,1,,,,,,,,0,,,67,0
38495,note_on,95,0,1,,,,,,,,0,,,75,0
38591,note_on,191,0,4,,,,,,,,3,,,36,0
38640,note_on,0,0,1,,,,,,,,0,,,63,51
38640,note_on,145,0,1,,,,,,,,0,,,55,51
38735,note_on,0,0,1,,,,,,,,0,,,55,0
38735,note_on,95,0,1,,,,,,,,0,,,63,0
38879,note_on,479,0,3,,,,,,,,2,,,63,0
38880,note_on,1,0,3,,,,,,,,2,,,60,96
38880,note_on,0,0,1,,,,,,,,0,,,72,51
38880,note_on,145,0,1,,,,,,,,0,,,63,51
38880,note_on,289,0,4,,,,,,,,3,,,55,51
38880,note_on,0,0,4,,,,,,,,3,,,48,51
38975,note_on,95,0,1,,,,,,,,0,,,72,0
38975,note_on,95,0,4,,,,,,,,3,,,48,0
38975,note_on,0,0,4,,,,,,,,3,,,55,0
38975,note_on,0,0,1,,,,,,,,0,,,63,0
39119,note_on,239,0,3,,,,,,,,2,,,60,0
39120,note_on,145,0,4,,,,,,,,3,,,55,51
39120,note_on,0,0,4,,,,,,,,3,,,48,51
39120,note_on,145,0,1,,,,,,,,0,,,63,51
39120,note_on,1,0,3,,,,,,,,2,,,60,94
39120,note_on,0,0,1,,,,,,,,0,,,72,51
39215,note_on,0,0,4,,,,,,,,3,,,55,0
39215,note_on,95,0,4,,,,,,,,3,,,48,0
39215,note_on,95,0,1,,,,,,,,0,,,72,0
39215,note_on,0,0,1,,,,,,,,0,,,63,0
39309,control_change,189,0,3,,,,,,,,2,64,0,,
39359,note_on,50,0,3,,,,,,,,2,,,60,0
39360,note_on,1,0,3,,,,,,,,2,,,55,92
39360,note_on,145,0,4,,,,,,,,3,,,55,51
39360,note_on,0,0,1,,,,,,,,0,,,67,51
39360,note_on,0,0,4,,,,,,,,3,,,48,51
39360,note_on,145,0,1,,,,,,,,0,,,63,51
39446,note_on,0,0,4,,,,,,,,3,,,55,0
39446,note_on,86,0,4,,,,,,,,3,,,48,0
39455,note_on,95,0,1,,,,,,,,0,,,67,0
39455,note_on,0,0,1,,,,,,,,0,,,63,0
39600,note_on,145,0,1,,,,,,,,0,,,55,51
39600,note_on,0,0,1,,,,,,,,0,,,60,51
39695,note_on,95,0,1,,,,,,,,0,,,60,0
39695,note_on,0,0,1,,,,,,,,0,,,55,0
39840,note_on,145,0,1,,,,,,,,0,,,60,51
39840,note_on,0,0,1,,,,,,,,0,,,63,51
39935,note_on,95,0,1,,,,,,,,0,,,63,0
39935,note_on,0,0,1,,,,,,,,0,,,60,0
40079,note_on,719,0,3,,,,,,,,2,,,55,0
40080,note_on,1,0,3,,,,,,,,2,,,60,91
40080,note_on,145,0,1,,,,,,,,0,,,72,51
40166,note_on,86,0,1,,,,,,,,0,,,72,0
40296,note_on,216,0,3,,,,,,,,2,,,60,0
40320,control_change,874,0,4,,,,,,,,3,64,127,,
40320,note_on,0,0,4,,,,,,,,3,,,36,51
40320,control_change,154,0,1,,,,,,,,0,64,127,,
40320,control_change,24,0,3,,,,,,,,2,64,127,,
40320,note_on,0,0,3,,,,,,,,2,,,63,91
40320,note_on,0,0,1,,,,,,,,0,,,75,51
40320,note_on,0,0,1,,,,,,,,0,,,72,51
40415,note_on,95,0,1,,,,,,,,0,,,75,0
40415,note_on,0,0,1,,,,,,,,0,,,72,0
40511,note_on,191,0,4,,,,,,,,3,,,36,0
40560,note_on,145,0,1,,,,,,,,0,,,60,51
40560,note_on,0,0,1,,,,,,,,0,,,68,51
40655,note_on,95,0,1,,,,,,,,0,,,68,0
40655,note_on,0,0,1,,,,,,,,0,,,60,0
40799,note_on,479,0,3,,,,,,,,2,,,63,0
40800,note_on,289,0,4,,,,,,,,3,,,51,51
40800,note_on,0,0,4,,,,,,,,3,,,44,51
40800,note_on,1,0,3,,,,,,,,2,,,60,99
40800,note_on,145,0,1,,,,,,,,0,,,63,51
40800,note_on,0,0,1,,,,,,,,0,,,72,51
40895,note_on,0,0,1,,,,,,,,0,,,63,0
40895,note_on,95,0,1,,,,,,,,0,,,72,0
40991,note_on,0,0,4,,,,,,,,3,,,51,0
40991,note_on,191,0,4,,,,,,,,3,,,44,0
41039,note_on,239,0,3,,,,,,,,2,,,60,0
41040,note_on,1,0,3,,,,,,,,2,,,60,96
41040,note_on,0,0,1,,,,,,,,0,,,72,51
41040,note_on,145,0,1,,,,,,,,0,,,60,51
41135,note_on,0,0,1,,,,,,,,0,,,60,0
41135,note_on,95,0,1,,,,,,,,0,,,72,0
41279,note_on,239,0,3,,,,,,,,2,,,60,0
41280,control_change,289,0,4,,,,,,,,3,64,0,,
41280,note_on,0,0,3,,,,,,,,2,,,58,92
41280,control_change,1,0,3,,,,,,,,2,64,0,,
41280,control_change,145,0,1,,,,,,,,0,64,0,,
41280,note_on,0,0,1,,,,,,,,0,,,61,51
41280,note_on,0,0,1,,,,,,,,0,,,70,51
41280,note_on,0,0,4,,,,,,,,3,,,39,51
41375,note_on,95,0,1,,,,,,,,0,,,70,0
41375,note_on,0,0,1,,,,,,,,0,,,61,0
41471,note_on,191,0,4,,,,,,,,3,,,39,0
41520,note_on,0,0,1,,,,,,,,0,,,63,51
41520,note_on,145,0,1,,,,,,,,0,,,55,51
41615,note_on,95,0,1,,,,,,,,0,,,63,0
41615,note_on,0,0,1,,,,,,,,0,,,55,0
41759,note_on,479,0,3,,,,,,,,2,,,58,0
41760,note_on,145,0,1,,,,,,,,0,,,58,51
41760,note_on,0,0,1,,,,,,,,0,,,67,51
41760,note_on,0,0,4,,,,,,,,3,,,49,51
41760,note_on,289,0,4,,,,,,,,3,,,51,51
41760,note_on,1,0,3,,,,,,,,2,,,55,99
41846,note_on,0,0,4,,,,,,,,3,,,51,0
41846,note_on,86,0,4,,,,,,,,3,,,49,0
41855,note_on,95,0,1,,,,,,,,0,,,67,0
41855,note_on,0,0,1,,,,,,,,0,,,58,0
41999,note_on,239,0,3,,,,,,,,2,,,55,0
42000,note_on,1,0,3,,,,,,,,2,,,55,96
42000,note_on,0,0,1,,,,,,,,0,,,67,51
42000,note_on,145,0,1,,,,,,,,0,,,55,51
42086,note_on,0,0,1,,,,,,,,0,,,55,0
42086,note_on,86,0,1,,,,,,,,0,,,67,0
42216,note_on,216,0,3,,,,,,,,2,,,55,0
42240,note_on,394,0,4,,,,,,,,3,,,32,51
42240,control_change,24,0,3,,,,,,,,2,64,127,,
42240,note_on,0,0,3,,,,,,,,2,,,60,93
42240,note_on,0,0,1,,,,,,,,0,,,72,51
42240,note_on,154,0,1,,,,,,,,0,,,63,51
42335,note_on,0,0,1,,,,,,,,0,,,63,0
42335,note_on,95,0,1,,,,,,,,0,,,72,0
42431,note_on,191,0,4,,,,,,,,3,,,32,0
42480,note_on,0,0,1,,,,,,,,0,,,60,51
42480,note_on,145,0,1,,,,,,,,0,,,56,51
42575,note_on,0,0,1,,,,,,,,0,,,56,0
42575,note_on,95,0,1,,,,,,,,0,,,60,0
42719,note_on,479,0,3,,,,,,,,2,,,60,0
42720,note_on,0,0,4,,,,,,,,3,,,51,51
42720,note_on,289,0,4,,,,,,,,3,,,44,51
42720,note_on,145,0,1,,,,,,,,0,,,60,51
42720,note_on,1,0,3,,,,,,,,2,,,56,97
42720,note_on,0,0,1,,,,,,,,0,,,68,51
42815,note_on,0,0,1,,,,,,,,0,,,60,0
42815,note_on,95,0,1,,,,,,,,0,,,68,0
42815,note_on,95,0,4,,,,,,,,3,,,51,0
42815,note_on,0,0,4,,,,,,,,3,,,44,0
42959,note_on,239,0,3,,,,,,,,2,,,56,0
42960,note_on,1,0,3,,,,,,,,2,,,56,93
42960,note_on,0,0,1,,,,,,,,0,,,68,51
42960,note_on,145,0,1,,,,,,,,0,,,60,51
42960,note_on,145,0,4,,,,,,,,3,,,44,51
42960,note_on,0,0,4,,,,,,,,3,,,51,51
43055,note_on,95,0,1,,,,,,,,0,,,68,0
43055,note_on,0,0,1,,,,,,,,0,,,60,0
43055,note_on,95,0,4,,,,,,,,3,,,51,0
43055,note_on,0,0,4,,,,,,,,3,,,44,0
43199,note_on,239,0,3,,,,,,,,2,,,56,0
43200,note_on,145,0,1,,,,,,,,0,,,63,51
43200,note_on,0,0,3,,,,,,,,2,,,51,90
43200,control_change,1,0,3,,,,,,,,2,64,0,,
43200,note_on,145,0,4,,,,,,,,3,,,51,51
43200,note_on,0,0,4,,,,,,,,3,,,44,51
43286,note_on,86,0,4,,,,,,,,3,,,44,0
43286,note_on,0,0,4,,,,,,,,3,,,51,0
43295,note_on,95,0,1,,,,,,,,0,,,63,0
43440,note_on,145,0,1,,,,,,,,0,,,56,51
43440,note_on,0,0,1,,,,,,,,0,,,60,51
43535,note_on,0,0,1,,,,,,,,0,,,56,0
43535,note_on,95,0,1,,,,,,,,0,,,60,0
43680,note_on,145,0,1,,,,,,,,0,,,68,51
43775,note_on,95,0,1,,,,,,,,0,,,68,0
43919,note_on,719,0,3,,,,,,,,2,,,51,0
43920,note_on,145,0,1,,,,,,,,0,,,60,51
43920,note_on,0,0,1,,,,,,,,0,,,63,51
43920,note_on,1,0,3,,,,,,,,2,,,56,91
44006,note_on,0,0,1,,,,,,,,0,,,60,0
44006,note_on,86,0,1,,,,,,,,0,,,63,0
44136,note_on,216,0,3,,,,,,,,2,,,56,0
44160,note_on,154,0,1,,,,,,,,0,,,72,51
44160,note_on,0,0,3,,,,,,,,2,,,60,91
44160,control_change,24,0,3,,,,,,,,2,64,127,,
44160,note_on,0,0,4,,,,,,,,3,,,41,51
44160,note_on,0,0,4,,,,,,,,3,,,48,51
44160,control_change,874,0,4,,,,,,,,3,64,127,,
44255,note_on,95,0,1,,,,,,,,0,,,72,0
44351,note_on,191,0,4,,,,,,,,3,,,48,0
44351,note_on,0,0,4,,,,,,,,3,,,41,0
44400,note_on,145,0,1,,,,,,,,0,,,65,51
44400,note_on,0,0,1,,,,,,,,0,,,56,51
44495,note_on,95,0,1,,,,,,,,0,,,56,0
44495,note_on,0,0,1,,,,,,,,0,,,65,0
44640,note_on,145,0,1,,,,,,,,0,,,64,52
44640,note_on,0,0,4,,,,,,,,3,,,48,52
44640,note_on,0,0,4,,,,,,,,3,,,43,52
44640,note_on,289,0,4,,,,,,,,3,,,36,52
44735,note_on,95,0,1,,,,,,,,0,,,64,0
44735,note_on,0,0,4,,,,,,,,3,,,43,0
44735,note_on,0,0,4,,,,,,,,3,,,36,0
44735,note_on,95,0,4,,,,,,,,3,,,48,0
44880,note_on,0,0,4,,,,,,,,3,,,48,54
44880,note_on,0,0,4,,,,,,,,3,,,43,54
44880,note_on,145,0,4,,,,,,,,3,,,36,54
44880,note_on,0,0,1,,,,,,,,0,,,55,54
44880,note_on,145,0,1,,,,,,,,0,,,60,54
44975,note_on,95,0,4,,,,,,,,3,,,48,0
44975,note_on,0,0,4,,,,,,,,3,,,36,0
44975,note_on,0,0,1,,,,,,,,0,,,60,0
44975,note_on,95,0,1,,,,,,,,0,,,55,0
44975,note_on,0,0,4,,,,,,,,3,,,43,0
45120,control_change,960,0,3,,,,,,,,2,64,0,,
45120,note_on,145,0,1,,,,,,,,0,,,65,55
45120,control_change,145,0,4,,,,,,,,3,64,0,,
45120,note_on,0,0,4,,,,,,,,3,,,41,55
45120,note_on,0,0,4,,,,,,,,3,,,44,55
45120,note_on,0,0,4,,,,,,,,3,,,48,55
45215,note_on,95,0,1,,,,,,,,0,,,65,0
45311,note_on,191,0,4,,,,,,,,3,,,48,0
45311,note_on,0,0,4,,,,,,,,3,,,44,0
45311,note_on,0,0,4,,,,,,,,3,,,41,0
45360,note_on,145,0,1,,,,,,,,0,,,56,56
45360,note_on,0,0,1,,,,,,,,0,,,60,56
45455,note_on,95,0,1,,,,,,,,0,,,60,0
45455,note_on,0,0,1,,,,,,,,0,,,56,0
45600,note_on,0,0,4,,,,,,,,3,,,48,57
45600,note_on,289,0,4,,,,,,,,3,,,55,57
45600,note_on,145,0,1,,,,,,,,0,,,67,57
45600,note_on,0,0,4,,,,,,,,3,,,52,57
45695,note_on,95,0,4,,,,,,,,3,,,48,0
45695,note_on,95,0,1,,,,,,,,0,,,67,0
45695,note_on,0,0,4,,,,,,,,3,,,52,0
45695,note_on,0,0,4,,,,,,,,3,,,55,0
45839,note_on,719,0,3,,,,,,,,2,,,60,0
45840,note_on,0,0,4,,,,,,,,3,,,52,59
45840,note_on,0,0,4,,,,,,,,3,,,48,59
45840,note_on,1,0,3,,,,,,,,2,,,60,96
45840,note_on,0,0,1,,,,,,,,0,,,72,59
45840,note_on,145,0,4,,,,,,,,3,,,55,59
45840,note_on,145,0,1,,,,,,,,0,,,64,59
45926,note_on,86,0,1,,,,,,,,0,,,72,0
45926,note_on,0,0,1,,,,,,,,0,,,64,0
45926,note_on,0,0,4,,,,,,,,3,,,52,0
45926,note_on,0,0,4,,,,,,,,3,,,55,0
45926,note_on,86,0,4,,,,,,,,3,,,48,0
46056,note_on,216,0,3,,,,,,,,2,,,60,0
46080,control_change,154,0,4,,,,,,,,3,64,127,,
46080,note_on,0,0,1,,,,,,,,0,,,72,60
46080,control_change,154,0,1,,,,,,,,0,64,127,,
46080,note_on,0,0,4,,,,,,,,3,,,56,60
46080,note_on,0,0,4,,,,,,,,3,,,53,60
46080,note_on,0,0,3,,,,,,,,2,,,60,98
46080,control_change,24,0,3,,,,,,,,2,64,127,,
46175,note_on,95,0,1,,,,,,,,0,,,72,0
46271,note_on,0,0,4,,,,,,,,3,,,56,0
46271,note_on,191,0,4,,,,,,,,3,,,53,0
46320,note_on,145,0,1,,,,,,,,0,,,68,62
46320,note_on,0,0,1,,,,,,,,0,,,65,62
46415,note_on,95,0,1,,,,,,,,0,,,65,0
46415,note_on,0,0,1,,,,,,,,0,,,68,0
46559,note_on,479,0,3,,,,,,,,2,,,60,0
46560,note_on,289,0,4,,,,,,,,3,,,52,63
46560,note_on,145,0,1,,,,,,,,0,,,67,63
46560,note_on,0,0,1,,,,,,,,0,,,64,63
46560,note_on,1,0,3,,,,,,,,2,,,55,103
46560,note_on,0,0,4,,,,,,,,3,,,48,63
46655,note_on,95,0,1,,,,,,,,0,,,64,0
46655,note_on,0,0,4,,,,,,,,3,,,52,0
46655,note_on,95,0,4,,,,,,,,3,,,48,0
46655,note_on,0,0,1,,,,,,,,0,,,67,0
46799,note_on,239,0,3,,,,,,,,2,,,55,0
46800,note_on,0,0,4,,,,,,,,3,,,48,64
46800,note_on,145,0,4,,,,,,,,3,,,52,64
46800,note_on,1,0,3,,,,,,,,2,,,55,105
46800,note_on,0,0,1,,,,,,,,0,,,60,64
46800,note_on,145,0,1,,,,,,,,0,,,72,64
46895,note_on,95,0,4,,,,,,,,3,,,48,0
46895,note_on,0,0,1,,,,,,,,0,,,72,0
46895,note_on,95,0,1,,,,,,,,0,,,60,0
46895,note_on,0,0,4,,,,,,,,3,,,52,0
47039,note_on,239,0,3,,,,,,,,2,,,55,0
47040,note_on,0,0,4,,,,,,,,3,,,53,65
47040,control_change,1,0,3,,,,,,,,2,64,0,,
47040,control_change,145,0,4,,,,,,,,3,64,0,,
47040,control_change,145,0,1,,,,,,,,0,64,0,,
47040,note_on,0,0,1,,,,,,,,0,,,60,65
47040,note_on,0,0,1,,,,,,,,0,,,72,65
47040,note_on,0,0,3,,,,,,,,2,,,56,108
47135,note_on,95,0,1,,,,,,,,0,,,72,0
47135,note_on,0,0,1,,,,,,,,0,,,60,0
47231,note_on,191,0,4,,,,,,,,3,,,53,0
47280,note_on,0,0,1,,,,,,,,0,,,68,67
47280,note_on,145,0,1,,,,,,,,0,,,65,67
47375,note_on,0,0,1,,,,,,,,0,,,65,0
47375,note_on,95,0,1,,,,,,,,0,,,68,0
47519,note_on,479,0,3,,,,,,,,2,,,56,0
47520,note_on,0,0,1,,,,,,,,0,,,72,68
47520,note_on,145,0,1,,,,,,,,0,,,67,68
47520,note_on,1,0,3,,,,,,,,2,,,60,112
47520,note_on,0,0,4,,,,,,,,3,,,48,63
47520,note_on,0,0,4,,,,,,,,3,,,52,63
47520,note_on,289,0,4,,,,,,,,3,,,55,63
47615,note_on,0,0,1,,,,,,,,0,,,67,0
47615,note_on,95,0,1,,,,,,,,0,,,72,0
47615,note_on,0,0,4,,,,,,,,3,,,55,0
47615,note_on,0,0,4,,,,,,,,3,,,52,0
47615,note_on,95,0,4,,,,,,,,3,,,48,0
47759,note_on,239,0,3,,,,,,,,2,,,60,0
47760,note_on,1,0,3,,,,,,,,2,,,60,111
47760,note_on,0,0,1,,,,,,,,0,,,72,69
47760,note_on,145,0,4,,,,,,,,3,,,55,68
47760,note_on,0,0,4,,,,,,,,3,,,52,68
47760,note_on,0,0,4,,,,,,,,3,,,48,68
47760,note_on,145,0,1,,,,,,,,0,,,64,69
47760,note_on,0,0,1,,,,,,,,0,,,76,69
47846,note_on,86,0,4,,,,,,,,3,,,48,0
47846,note_on,0,0,4,,,,,,,,3,,,52,0
47846,note_on,0,0,4,,,,,,,,3,,,55,0
47846,note_on,86,0,1,,,,,,,,0,,,76,0
47846,note_on,0,0,1,,,,,,,,0,,,72,0
47846,note_on,0,0,1,,,,,,,,0,,,64,0
47976,note_on,216,0,3,,,,,,,,2,,,60,0
48000,control_change,24,0,3,,,,,,,,2,64,127,,
48000,note_on,0,0,1,,,,,,,,0,,,72,66
48000,note_on,0,0,3,,,,,,,,2,,,60,110
48000,note_on,0,0,4,,,,,,,,3,,,56,73
48000,control_change,154,0,4,,,,,,,,3,64,127,,
48000,note_on,154,0,1,,,,,,,,0,,,77,66
48000,note_on,0,0,4,,,,,,,,3,,,53,73
48020,control_change,20,0,1,,,,,,,,0,64,127,,
48095,note_on,0,0,1,,,,,,,,0,,,77,0
48095,note_on,75,0,1,,,,,,,,0,,,72,0
48191,note_on,191,0,4,,,,,,,,3,,,53,0
48191,note_on,0,0,4,,,,,,,,3,,,56,0
48240,note_on,0,0,1,,,,,,,,0,,,65,64
48240,note_on,145,0,1,,,,,,,,0,,,68,64
48335,note_on,95,0,1,,,,,,,,0,,,65,0
48335,note_on,0,0,1,,,,,,,,0,,,68,0
48480,note_on,0,0,4,,,,,,,,3,,,48,63
48480,note_on,0,0,1,,,,,,,,0,,,72,63
48480,note_on,0,0,4,,,,,,,,3,,,52,63
48480,note_on,289,0,4,,,,,,,,3,,,55,63
48480,note_on,145,0,1,,,,,,,,0,,,76,63
48575,note_on,0,0,1,,,,,,,,0,,,76,0
48575,note_on,95,0,1,,,,,,,,0,,,72,0
48575,note_on,0,0,4,,,,,,,,3,,,55,0
48575,note_on,0,0,4,,,,,,,,3,,,52,0
48575,note_on,95,0,4,,,,,,,,3,,,48,0
48720,note_on,145,0,4,,,,,,,,3,,,55,61
48720,note_on,0,0,4,,,,,,,,3,,,52,61
48720,note_on,0,0,4,,,,,,,,3,,,48,61
48720,note_on,0,0,1,,,,,,,,0,,,64,61
48720,note_on,145,0,1,,,,,,,,0,,,67,61
48815,note_on,0,0,4,,,,,,,,3,,,55,0
48815,note_on,95,0,1,,,,,,,,0,,,64,0
48815,note_on,0,0,1,,,,,,,,0,,,67,0
48815,note_on,95,0,4,,,,,,,,3,,,48,0
48815,note_on,0,0,4,,,,,,,,3,,,52,0
48960,control_change,960,0,3,,,,,,,,2,64,0,,
48960,note_on,145,0,1,,,,,,,,0,,,77,60
48960,note_on,0,0,1,,,,,,,,0,,,72,60
48960,control_change,145,0,4,,,,,,,,3,64,0,,
48960,note_on,0,0,4,,,,,,,,3,,,53,60
48960,note_on,0,0,4,,,,,,,,3,,,56,60
48980,control_change,20,0,1,,,,,,,,0,64,0,,
49055,note_on,75,0,1,,,,,,,,0,,,72,0
49055,note_on,0,0,1,,,,,,,,0,,,77,0
49151,note_on,191,0,4,,,,,,,,3,,,53,0
49151,note_on,0,0,4,,,,,,,,3,,,56,0
49200,note_on,145,0,1,,,,,,,,0,,,68,58
49200,note_on,0,0,1,,,,,,,,0,,,65,58
49295,note_on,95,0,1,,,,,,,,0,,,65,0
49295,note_on,0,0,1,,,,,,,,0,,,68,0
49439,note_on,479,0,3,,,,,,,,2,,,60,0
49440,note_on,145,0,1,,,,,,,,0,,,79,56
49440,note_on,0,0,1,,,,,,,,0,,,74,56
49440,note_on,289,0,4,,,,,,,,3,,,56,56
49440,note_on,0,0,4,,,,,,,,3,,,46,56
49440,note_on,1,0,3,,,,,,,,2,,,62,90
49440,note_on,0,0,4,,,,,,,,3,,,53,56
49535,note_on,0,0,4,,,,,,,,3,,,53,0
49535,note_on,0,0,4,,,,,,,,3,,,56,0
49535,note_on,0,0,1,,,,,,,,0,,,79,0
49535,note_on,95,0,1,,,,,,,,0,,,74,0
49535,note_on,95,0,4,,,,,,,,3,,,46,0
49680,note_on,145,0,4,,,,,,,,3,,,56,55
49680,note_on,0,0,4,,,,,,,,3,,,53,55
49680,note_on,0,0,1,,,,,,,,0,,,68,55
49680,note_on,145,0,1,,,,,,,,0,,,70,55
49680,note_on,0,0,4,,,,,,,,3,,,46,55
49766,note_on,86,0,4,,,,,,,,3,,,46,0
49766,note_on,0,0,4,,,,,,,,3,,,56,0
49766,note_on,0,0,4,,,,,,,,3,,,53,0
49766,note_on,0,0,1,,,,,,,,0,,,70,0
49766,note_on,86,0,1,,,,,,,,0,,,68,0
49872,note_on,432,0,3,,,,,,,,2,,,62,0
49920,control_change,154,0,4,,,,,,,,3,64,127,,
49920,note_on,0,0,4,,,,,,,,3,,,55,67
49920,note_on,0,0,4,,,,,,,,3,,,51,67
49920,control_change,48,0,3,,,,,,,,2,64,127,,
49920,note_on,0,0,3,,,,,,,,2,,,63,99
49920,note_on,154,0,1,,,,,,,,0,,,75,77
50015,note_on,95,0,1,,,,,,,,0,,,75,0
50111,note_on,0,0,4,,,,,,,,3,,,55,0
50111,note_on,191,0,4,,,,,,,,3,,,51,0
50160,note_on,145,0,1,,,,,,,,0,,,67,72
50160,note_on,0,0,1,,,,,,,,0,,,70,72
50255,note_on,95,0,1,,,,,,,,0,,,70,0
50255,note_on,0,0,1,,,,,,,,0,,,67,0
50400,note_on,289,0,4,,,,,,,,3,,,55,63
50400,note_on,0,0,4,,,,,,,,3,,,51,63
50400,note_on,145,0,1,,,,,,,,0,,,70,68
50495,note_on,95,0,1,,,,,,,,0,,,70,0
50640,note_on,145,0,1,,,,,,,,0,,,63,64
50640,note_on,0,0,1,,,,,,,,0,,,67,64
50735,note_on,0,0,1,,,,,,,,0,,,63,0
50735,note_on,95,0,1,,,,,,,,0,,,67,0
50783,note_on,0,0,4,,,,,,,,3,,,55,0
50783,note_on,383,0,4,,,,,,,,3,,,51,0
50880,note_on,145,0,1,,,,,,,,0,,,67,59
50880,control_change,960,0,3,,,,,,,,2,64,0,,
50880,control_change,97,0,4,,,,,,,,3,64,0,,
50975,note_on,95,0,1,,,,,,,,0,,,67,0
51120,note_on,0,0,1,,,,,,,,0,,,63,55
51120,note_on,145,0,1,,,,,,,,0,,,58,55
51215,note_on,0,0,1,,,,,,,,0,,,58,0
51215,note_on,95,0,1,,,,,,,,0,,,63,0
51216,note_on,336,0,3,,,,,,,,2,,,63,0
51360,note_on,480,0,4,,,,,,,,3,,,39,44
51360,note_on,145,0,1,,,,,,,,0,,,63,55
51455,note_on,95,0,1,,,,,,,,0,,,63,0
51455,note_on,95,0,4,,,,,,,,3,,,39,0
51600,note_on,145,0,4,,,,,,,,3,,,39,42
51600,note_on,145,0,1,,,,,,,,0,,,55,53
51600,note_on,0,0,1,,,,,,,,0,,,58,53
51686,note_on,86,0,4,,,,,,,,3,,,39,0
51686,note_on,86,0,1,,,,,,,,0,,,58,0
51686,note_on,0,0,1,,,,,,,,0,,,55,0
51840,note_on,154,0,4,,,,,,,,3,,,39,51
51840,note_on,154,0,1,,,,,,,,0,,,63,64
51935,note_on,95,0,1,,,,,,,,0,,,63,0
52031,note_on,191,0,4,,,,,,,,3,,,39,0
52080,note_on,0,0,1,,,,,,,,0,,,58,64
52080,note_on,145,0,1,,,,,,,,0,,,55,64
52175,note_on,95,0,1,,,,,,,,0,,,58,0
52175,note_on,0,0,1,,,,,,,,0,,,55,0
52320,note_on,0,0,4,,,,,,,,3,,,46,51
52320,note_on,145,0,1,,,,,,,,0,,,67,64
52320,note_on,289,0,4,,,,,,,,3,,,51,51
52415,note_on,95,0,1,,,,,,,,0,,,67,0
52511,note_on,191,0,4,,,,,,,,3,,,46,0
52511,note_on,0,0,4,,,,,,,,3,,,51,0
52560,note_on,0,0,1,,,,,,,,0,,,58,64
52560,note_on,145,0,1,,,,,,,,0,,,55,64
52655,note_on,95,0,1,,,,,,,,0,,,58,0
52655,note_on,0,0,1,,,,,,,,0,,,55,0
52800,note_on,289,0,4,,,,,,,,3,,,39,51
52800,note_on,145,0,1,,,,,,,,0,,,63,64
52895,note_on,95,0,1,,,,,,,,0,,,63,0
52991,note_on,191,0,4,,,,,,,,3,,,39,0
53040,note_on,145,0,1,,,,,,,,0,,,55,64
53040,note_on,0,0,1,,,,,,,,0,,,58,64
53135,note_on,95,0,1,,,,,,,,0,,,58,0
53135,note_on,0,0,1,,,,,,,,0,,,55,0
53280,note_on,145,0,1,,,,,,,,0,,,67,64
53280,note_on,0,0,4,,,,,,,,3,,,46,51
53280,note_on,289,0,4,,,,,,,,3,,,51,51
53366,note_on,86,0,4,,,,,,,,3,,,46,0
53366,note_on,0,0,4,,,,,,,,3,,,51,0
53375,note_on,95,0,1,,,,,,,,0,,,67,0
53520,note_on,0,0,1,,,,,,,,0,,,58,64
53520,note_on,145,0,1,,,,,,,,0,,,55,64
53606,note_on,86,0,1,,,,,,,,0,,,58,0
53606,note_on,0,0,1,,,,,,,,0,,,55,0
53760,note_on,154,0,1,,,,,,,,0,,,63,64
53760,note_on,394,0,4,,,,,,,,3,,,39,51
53855,note_on,95,0,1,,,,,,,,0,,,63,0
53951,note_on,191,0,4,,,,,,,,3,,,39,0
54000,note_on,0,0,1,,,,,,,,0,,,58,64
54000,note_on,145,0,1,,,,,,,,0,,,55,64
54095,note_on,95,0,1,,,,,,,,0,,,58,0
54095,note_on,0,0,1,,,,,,,,0,,,55,0
54240,note_on,145,0,1,,,,,,,,0,,,67,64
54240,note_on,0,0,4,,,,,,,,3,,,46,51
54240,note_on,289,0,4,,,,,,,,3,,,51,51
54335,note_on,95,0,1,,,,,,,,0,,,67,0
54480,note_on,145,0,1,,,,,,,,0,,,55,64
54480,note_on,0,0,1,,,,,,,,0,,,58,64
54575,note_on,95,0,1,,,,,,,,0,,,58,0
54575,note_on,0,0,1,,,,,,,,0,,,55,0
54623,note_on,383,0,4,,,,,,,,3,,,46,0
54623,note_on,0,0,4,,,,,,,,3,,,51,0
54720,note_on,145,0,1,,,,,,,,0,,,55,64
54720,note_on,0,0,1,,,,,,,,0,,,58,64
54720,note_on,0,0,1,,,,,,,,0,,,65,64
54815,note_on,95,0,1,,,,,,,,0,,,65,0
54815,note_on,0,0,1,,,,,,,,0,,,58,0
54815,note_on,0,0,1,,,,,,,,0,,,55,0
54960,note_on,145,0,1,,,,,,,,0,,,55,64
54960,note_on,0,0,1,,,,,,,,0,,,58,64
54960,note_on,0,0,1,,,,,,,,0,,,63,64
55055,note_on,0,0,1,,,,,,,,0,,,55,0
55055,note_on,0,0,1,,,,,,,,0,,,58,0
55055,note_on,95,0,1,,,,,,,,0,,,63,0
55200,note_on,0,0,1,,,,,,,,0,,,58,64
55200,note_on,145,0,1,,,,,,,,0,,,55,64
55200,note_on,0,0,1,,,,,,,,0,,,62,64
55200,note_on,577,0,4,,,,,,,,3,,,39,51
55295,note_on,95,0,4,,,,,,,,3,,,39,0
55295,note_on,0,0,1,,,,,,,,0,,,58,0
55295,note_on,95,0,1,,,,,,,,0,,,62,0
55295,note_on,0,0,1,,,,,,,,0,,,55,0
55440,note_on,145,0,4,,,,,,,,3,,,39,51
55440,note_on,145,0,1,,,,,,,,0,,,55,64
55440,note_on,0,0,1,,,,,,,,0,,,58,64
55440,note_on,0,0,1,,,,,,,,0,,,63,64
55526,note_on,86,0,4,,,,,,,,3,,,39,0
55526,note_on,86,0,1,,,,,,,,0,,,63,0
55526,note_on,0,0,1,,,,,,,,0,,,58,0
55526,note_on,0,0,1,,,,,,,,0,,,55,0
55680,note_on,154,0,1,,,,,,,,0,,,65,64
55680,note_on,154,0,4,,,,,,,,3,,,32,51
55775,note_on,95,0,1,,,,,,,,0,,,65,0
55871,note_on,191,0,4,,,,,,,,3,,,32,0
55920,note_on,0,0,1,,,,,,,,0,,,60,64
55920,note_on,145,0,1,,,,,,,,0,,,56,64
56015,note_on,0,0,1,,,,,,,,0,,,56,0
56015,note_on,95,0,1,,,,,,,,0,,,60,0
56160,note_on,145,0,1,,,,,,,,0,,,68,64
56160,note_on,289,0,4,,,,,,,,3,,,53,51
56160,note_on,0,0,4,,,,,,,,3,,,48,51
56255,note_on,95,0,1,,,,,,,,0,,,68,0
56351,note_on,0,0,4,,,,,,,,3,,,53,0
56351,note_on,191,0,4,,,,,,,,3,,,48,0
56400,note_on,145,0,1,,,,,,,,0,,,56,64
56400,note_on,0,0,1,,,,,,,,0,,,60,64
56495,note_on,0,0,1,,,,,,,,0,,,56,0
56495,note_on,95,0,1,,,,,,,,0,,,60,0
56640,note_on,289,0,4,,,,,,,,3,,,32,51
56640,note_on,145,0,1,,,,,,,,0,,,65,64
56735,note_on,95,0,1,,,,,,,,0,,,65,0
56831,note_on,191,0,4,,,,,,,,3,,,32,0
56880,note_on,145,0,1,,,,,,,,0,,,56,64
56880,note_on,0,0,1,,,,,,,,0,,,60,64
56975,note_on,95,0,1,,,,,,,,0,,,60,0
56975,note_on,0,0,1,,,,,,,,0,,,56,0
57120,note_on,289,0,4,,,,,,,,3,,,32,63
57120,note_on,145,0,1,,,,,,,,0,,,65,64
57120,note_on,0,0,1,,,,,,,,0,,,70,64
57120,note_on,0,0,1,,,,,,,,0,,,77,64
57120,note_on,0,0,4,,,,,,,,3,,,44,63
57215,note_on,0,0,1,,,,,,,,0,,,70,0
57215,note_on,95,0,1,,,,,,,,0,,,77,0
57215,note_on,0,0,4,,,,,,,,3,,,32,0
57215,note_on,95,0,4,,,,,,,,3,,,44,0
57215,note_on,0,0,1,,,,,,,,0,,,65,0
57360,note_on,0,0,1,,,,,,,,0,,,72,83
57360,note_on,0,0,1,,,,,,,,0,,,75,83
57360,note_on,0,0,4,,,,,,,,3,,,45,66
57360,note_on,145,0,4,,,,,,,,3,,,33,66
57360,note_on,145,0,1,,,,,,,,0,,,65,83
57446,note_on,86,0,1,,,,,,,,0,,,75,0
57446,note_on,0,0,1,,,,,,,,0,,,72,0
57446,note_on,0,0,1,,,,,,,,0,,,65,0
57446,note_on,86,0,4,,,,,,,,3,,,45,0
57446,note_on,0,0,4,,,,,,,,3,,,33,0
57600,note_on,154,0,1,,,,,,,,0,,,74,85
57600,note_on,0,0,4,,,,,,,,3,,,46,51
57600,note_on,154,0,4,,,,,,,,3,,,34,51
57695,note_on,95,0,1,,,,,,,,0,,,74,0
57791,note_on,0,0,4,,,,,,,,3,,,34,0
57791,note_on,191,0,4,,,,,,,,3,,,46,0
57840,note_on,0,0,1,,,,,,,,0,,,70,62
57840,note_on,145,0,1,,,,,,,,0,,,65,62
57935,note_on,95,0,1,,,,,,,,0,,,70,0
57935,note_on,0,0,1,,,,,,,,0,,,65,0
58080,note_on,289,0,4,,,,,,,,3,,,58,51
58080,note_on,145,0,1,,,,,,,,0,,,72,64
58175,note_on,95,0,1,,,,,,,,0,,,72,0
58271,note_on,191,0,4,,,,,,,,3,,,58,0
58320,note_on,145,0,1,,,,,,,,0,,,63,64
58320,note_on,0,0,1,,,,,,,,0,,,68,64
58415,note_on,0,0,1,,,,,,,,0,,,63,0
58415,note_on,95,0,1,,,,,,,,0,,,68,0
58560,note_on,145,0,1,,,,,,,,0,,,70,64
58560,note_on,289,0,4,,,,,,,,3,,,34,51
58655,note_on,95,0,1,,,,,,,,0,,,70,0
58751,note_on,191,0,4,,,,,,,,3,,,34,0
58800,note_on,145,0,1,,,,,,,,0,,,62,64
58800,note_on,0,0,1,,,,,,,,0,,,65,64
58895,note_on,95,0,1,,,,,,,,0,,,65,0
58895,note_on,0,0,1,,,,,,,,0,,,62,0
59040,note_on,289,0,4,,,,,,,,3,,,34,58
59040,note_on,145,0,1,,,,,,,,0,,,68,64
59135,note_on,95,0,4,,,,,,,,3,,,34,0
59135,note_on,95,0,1,,,,,,,,0,,,68,0
59280,note_on,0,0,1,,,,,,,,0,,,65,64
59280,note_on,0,0,1,,,,,,,,0,,,62,64
59280,note_on,145,0,4,,,,,,,,3,,,34,60
59280,note_on,145,0,1,,,,,,,,0,,,56,64
59366,note_on,0,0,1,,,,,,,,0,,,56,0
59366,note_on,86,0,1,,,,,,,,0,,,65,0
59366,note_on,86,0,4,,,,,,,,3,,,34,0
59366,note_on,0,0,1,,,,,,,,0,,,62,0
59520,note_on,154,0,1,,,,,,,,0,,,63,64
59520,note_on,154,0,4,,,,,,,,3,,,39,51
59615,note_on,95,0,1,,,,,,,,0,,,63,0
59711,note_on,191,0,4,,,,,,,,3,,,39,0
59760,note_on,145,0,1,,,,,,,,0,,,55,64
59760,note_on,0,0,1,,,,,,,,0,,,58,64
59855,note_on,95,0,1,,,,,,,,0,,,58,0
59855,note_on,0,0,1,,,,,,,,0,,,55,0
60000,note_on,0,0,4,,,,,,,,3,,,46,51
60000,note_on,289,0,4,,,,,,,,3,,,51,51
60000,note_on,145,0,1,,,,,,,,0,,,67,64
60095,note_on,95,0,1,,,,,,,,0,,,67,0
60191,note_on,0,0,4,,,,,,,,3,,,51,0
60191,note_on,191,0,4,,,,,,,,3,,,46,0
60240,note_on,0,0,1,,,,,,,,0,,,58,64
60240,note_on,145,0,1,,,,,,,,0,,,55,64
60335,note_on,95,0,1,,,,,,,,0,,,58,0
60335,note_on,0,0,1,,,,,,,,0,,,55,0
60480,note_on,145,0,1,,,,,,,,0,,,63,64
60480,note_on,289,0,4,,,,,,,,3,,,39,51
60575,note_on,95,0,1,,,,,,,,0,,,63,0
60671,note_on,191,0,4,,,,,,,,3,,,39,0
60720,note_on,0,0,1,,,,,,,,0,,,58,64
60720,note_on,145,0,1,,,,,,,,0,,,55,64
60815,note_on,95,0,1,,,,,,,,0,,,58,0
60815,note_on,0,0,1,,,,,,,,0,,,55,0
60960,note_on,145,0,1,,,,,,,,0,,,67,64
60960,note_on,289,0,4,,,,,,,,3,,,51,51
60960,note_on,0,0,4,,,,,,,,3,,,46,51
61046,note_on,86,0,4,,,,,,,,3,,,46,0
61046,note_on,0,0,4,,,,,,,,3,,,51,0
61055,note_on,95,0,1,,,,,,,,0,,,67,0
61200,note_on,145,0,1,,,,,,,,0,,,55,64
61200,note_on,0,0,1,,,,,,,,0,,,58,64
61286,note_on,86,0,1,,,,,,,,0,,,58,0
61286,note_on,0,0,1,,,,,,,,0,,,55,0
61440,note_on,394,0,4,,,,,,,,3,,,39,51
61440,note_on,154,0,1,,,,,,,,0,,,63,64
61535,note_on,95,0,1,,,,,,,,0,,,63,0
61631,note_on,191,0,4,,,,,,,,3,,,39,0
61680,note_on,0,0,1,,,,,,,,0,,,58,64
61680,note_on,145,0,1,,,,,,,,0,,,55,64
61775,note_on,95,0,1,,,,,,,,0,,,58,0
61775,note_on,0,0,1,,,,,,,,0,,,55,0
61920,note_on,145,0,1,,,,,,,,0,,,67,64
61920,note_on,289,0,4,,,,,,,,3,,,51,51
61920,note_on,0,0,4,,,,,,,,3,,,46,51
62015,note_on,95,0,1,,,,,,,,0,,,67,0
62160,note_on,145,0,1,,,,,,,,0,,,55,64
62160,note_on,0,0,1,,,,,,,,0,,,58,64
62255,note_on,0,0,1,,,,,,,,0,,,55,0
62255,note_on,95,0,1,,,,,,,,0,,,58,0
62303,note_on,0,0,4,,,,,,,,3,,,51,0
62303,note_on,383,0,4,,,,,,,,3,,,46,0
62400,note_on,0,0,1,,,,,,,,0,,,58,64
62400,note_on,145,0,1,,,,,,,,0,,,55,64
62400,note_on,0,0,1,,,,,,,,0,,,65,64
62495,note_on,95,0,1,,,,,,,,0,,,65,0
62495,note_on,0,0,1,,,,,,,,0,,,58,0
62495,note_on,0,0,1,,,,,,,,0,,,55,0
62640,note_on,145,0,1,,,,,,,,0,,,55,64
62640,note_on,0,0,1,,,,,,,,0,,,58,64
62640,note_on,0,0,1,,,,,,,,0,,,64,64
62735,note_on,0,0,1,,,,,,,,0,,,55,0
62735,note_on,0,0,1,,,,,,,,0,,,58,0
62735,note_on,95,0,1,,,,,,,,0,,,64,0
62880,note_on,577,0,4,,,,,,,,3,,,36,51
62880,note_on,0,0,1,,,,,,,,0,,,62,64
62880,note_on,0,0,1,,,,,,,,0,,,58,64
62880,note_on,145,0,1,,,,,,,,0,,,55,64
62975,note_on,95,0,4,,,,,,,,3,,,36,0
62975,note_on,0,0,1,,,,,,,,0,,,55,0
62975,note_on,0,0,1,,,,,,,,0,,,58,0
62975,note_on,95,0,1,,,,,,,,0,,,62,0
63120,note_on,0,0,1,,,,,,,,0,,,64,64
63120,note_on,0,0,1,,,,,,,,0,,,58,64
63120,note_on,145,0,1,,,,,,,,0,,,55,64
63120,note_on,145,0,4,,,,,,,,3,,,36,58
63206,note_on,0,0,1,,,,,,,,0,,,55,0
63206,note_on,0,0,1,,,,,,,,0,,,58,0
63206,note_on,86,0,1,,,,,,,,0,,,64,0
63206,note_on,86,0,4,,,,,,,,3,,,36,0
63360,note_on,154,0,1,,,,,,,,0,,,65,64
63360,note_on,154,0,4,,,,,,,,3,,,37,51
63455,note_on,95,0,1,,,,,,,,0,,,65,0
63551,note_on,191,0,4,,,,,,,,3,,,37,0
63600,note_on,0,0,1,,,,,,,,0,,,56,64
63600,note_on,145,0,1,,,,,,,,0,,,53,64
63695,note_on,0,0,1,,,,,,,,0,,,53,0
63695,note_on,95,0,1,,,,,,,,0,,,56,0
63840,note_on,145,0,1,,,,,,,,0,,,68,64
63840,note_on,289,0,4,,,,,,,,3,,,49,51
63935,note_on,95,0,1,,,,,,,,0,,,68,0
64031,note_on,191,0,4,,,,,,,,3,,,49,0
64080,note_on,0,0,1,,,,,,,,0,,,65,64
64080,note_on,145,0,1,,,,,,,,0,,,56,64
64175,note_on,0,0,1,,,,,,,,0,,,56,0
64175,note_on,95,0,1,,,,,,,,0,,,65,0
64320,note_on,289,0,4,,,,,,,,3,,,37,51
64320,note_on,145,0,1,,,,,,,,0,,,73,64
64415,note_on,95,0,1,,,,,,,,0,,,73,0
64511,note_on,191,0,4,,,,,,,,3,,,37,0
64560,note_on,0,0,1,,,,,,,,0,,,65,64
64560,note_on,145,0,1,,,,,,,,0,,,68,64
64655,note_on,0,0,1,,,,,,,,0,,,68,0
64655,note_on,95,0,1,,,,,,,,0,,,65,0
64800,note_on,289,0,4,,,,,,,,3,,,61,51
64800,note_on,0,0,1,,,,,,,,0,,,73,64
64800,note_on,0,0,1,,,,,,,,0,,,68,64
64800,note_on,0,0,4,,,,,,,,3,,,49,51
64800,note_on,0,0,4,,,,,,,,3,,,56,51
64800,note_on,145,0,1,,,,,,,,0,,,77,64
64895,note_on,95,0,1,,,,,,,,0,,,68,0
64895,note_on,0,0,1,,,,,,,,0,,,73,0
64895,note_on,0,0,1,,,,,,,,0,,,77,0
64895,note_on,0,0,4,,,,,,,,3,,,61,0
64895,note_on,95,0,4,,,,,,,,3,,,49,0
64895,note_on,0,0,4,,,,,,,,3,,,56,0
65040,note_on,0,0,1,,,,,,,,0,,,68,64
65040,note_on,0,0,1,,,,,,,,0,,,73,64
65040,note_on,145,0,1,,,,,,,,0,,,80,64
65040,note_on,145,0,4,,,,,,,,3,,,61,51
65040,note_on,0,0,4,,,,,,,,3,,,53,51
65040,note_on,0,0,4,,,,,,,,3,,,56,51
65126,note_on,0,0,4,,,,,,,,3,,,56,0
65126,note_on,0,0,4,,,,,,,,3,,,61,0
65126,note_on,0,0,1,,,,,,,,0,,,73,0
65126,note_on,86,0,1,,,,,,,,0,,,68,0
65126,note_on,86,0,4,,,,,,,,3,,,53,0
65126,note_on,0,0,1,,,,,,,,0,,,80,0
65198,set_tempo,65198,1,0,,,,,,376128,,,,,,
65247,set_tempo,49,1,0,,,,,,377264,,,,,,
65280,note_on,0,0,1,,,,,,,,0,,,75,64
65280,note_on,0,0,4,,,,,,,,3,,,56,64
65280,note_on,0,0,4,,,,,,,,3,,,51,64
65280,note_on,0,0,4,,,,,,,,3,,,60,64
65280,control_change,154,0,4,,,,,,,,3,64,127,,
65280,note_on,154,0,1,,,,,,,,0,,,72,64
65297,set_tempo,50,1,0,,,,,,378406,,,,,,
65333,control_change,53,0,1,,,,,,,,0,64,127,,
65347,set_tempo,50,1,0,,,,,,379555,,,,,,
65375,note_on,0,0,1,,,,,,,,0,,,72,0
65375,note_on,42,0,1,,,,,,,,0,,,75,0
65396,set_tempo,49,1,0,,,,,,380711,,,,,,
65446,set_tempo,50,1,0,,,,,,381874,,,,,,
65471,note_on,0,0,4,,,,,,,,3,,,60,0
65471,note_on,191,0,4,,,,,,,,3,,,51,0
65471,note_on,0,0,4,,,,,,,,3,,,56,0
65496,set_tempo,50,1,0,,,,,,383044,,,,,,
65520,note_on,145,0,1,,,,,,,,0,,,63,64
65545,set_tempo,49,1,0,,,,,,384221,,,,,,
65595,set_tempo,50,1,0,,,,,,385406,,,,,,
65615,note_on,95,0,1,,,,,,,,0,,,63,0
65645,set_tempo,50,1,0,,,,,,386598,,,,,,
65694,set_tempo,49,1,0,,,,,,387797,,,,,,
65744,set_tempo,50,1,0,,,,,,389004,,,,,,
65760,note_on,0,0,4,,,,,,,,3,,,51,64
65760,note_on,289,0,4,,,,,,,,3,,,61,64
65760,note_on,0,0,4,,,,,,,,3,,,58,64
65760,note_on,0,0,1,,,,,,,,0,,,73,64
65760,note_on,145,0,1,,,,,,,,0,,,70,64
65794,set_tempo,50,1,0,,,,,,390219,,,,,,
65843,set_tempo,49,1,0,,,,,,391441,,,,,,
65855,note_on,95,0,1,,,,,,,,0,,,73,0
65855,note_on,0,0,1,,,,,,,,0,,,70,0
65893,set_tempo,50,1,0,,,,,,392670,,,,,,
65943,set_tempo,50,1,0,,,,,,393908,,,,,,
65951,note_on,191,0,4,,,,,,,,3,,,51,0
65951,note_on,0,0,4,,,,,,,,3,,,58,0
65951,note_on,0,0,4,,,,,,,,3,,,61,0
65992,set_tempo,49,1,0,,,,,,395153,,,,,,
66000,note_on,145,0,1,,,,,,,,0,,,63,64
66042,set_tempo,50,1,0,,,,,,396406,,,,,,
66092,set_tempo,50,1,0,,,,,,397667,,,,,,
66095,note_on,95,0,1,,,,,,,,0,,,63,0
66141,set_tempo,49,1,0,,,,,,398936,,,,,,
66191,set_tempo,50,1,0,,,,,,400213,,,,,,
66240,note_on,0,0,1,,,,,,,,0,,,72,64
66240,note_on,145,0,1,,,,,,,,0,,,68,64
66240,note_on,0,0,4,,,,,,,,3,,,51,64
66240,note_on,0,0,4,,,,,,,,3,,,56,64
66240,note_on,0,0,4,,,,,,,,3,,,60,64
66240,control_change,289,0,4,,,,,,,,3,64,0,,
66241,set_tempo,50,1,0,,,,,,401499,,,,,,
66290,set_tempo,49,1,0,,,,,,402793,,,,,,
66293,control_change,53,0,1,,,,,,,,0,64,0,,
66335,note_on,42,0,1,,,,,,,,0,,,72,0
66335,note_on,0,0,1,,,,,,,,0,,,68,0
66340,set_tempo,50,1,0,,,,,,404095,,,,,,
66390,set_tempo,50,1,0,,,,,,405405,,,,,,
66431,note_on,0,0,4,,,,,,,,3,,,56,0
66431,note_on,0,0,4,,,,,,,,3,,,60,0
66431,note_on,191,0,4,,,,,,,,3,,,51,0
66439,set_tempo,49,1,0,,,,,,406725,,,,,,
66480,note_on,145,0,1,,,,,,,,0,,,63,64
66489,set_tempo,50,1,0,,,,,,408052,,,,,,
66539,set_tempo,50,1,0,,,,,,409389,,,,,,
66575,note_on,95,0,1,,,,,,,,0,,,63,0
66588,set_tempo,49,1,0,,,,,,410734,,,,,,
66638,set_tempo,50,1,0,,,,,,412088,,,,,,
66687,set_tempo,49,1,0,,,,,,413451,,,,,,
66720,note_on,0,0,1,,,,,,,,0,,,70,64
66720,note_on,0,0,4,,,,,,,,3,,,55,64
66720,note_on,145,0,1,,,,,,,,0,,,67,64
66720,note_on,0,0,4,,,,,,,,3,,,51,64
66720,note_on,289,0,4,,,,,,,,3,,,58,64
66737,set_tempo,50,1,0,,,,,,414823,,,,,,
66787,set_tempo,50,1,0,,,,,,416204,,,,,,
66815,note_on,95,0,4,,,,,,,,3,,,51,0
66815,note_on,0,0,4,,,,,,,,3,,,55,0
66815,note_on,0,0,4,,,,,,,,3,,,58,0
66815,note_on,0,0,1,,,,,,,,0,,,67,0
66815,note_on,95,0,1,,,,,,,,0,,,70,0
66836,set_tempo,49,1,0,,,,,,417595,,,,,,
66886,set_tempo,50,1,0,,,,,,418994,,,,,,
66936,set_tempo,50,1,0,,,,,,420404,,,,,,
66960,note_on,145,0,4,,,,,,,,3,,,51,64
66960,note_on,145,0,1,,,,,,,,0,,,63,64
66985,set_tempo,49,1,0,,,,,,421822,,,,,,
67035,set_tempo,50,1,0,,,,,,423251,,,,,,
67046,note_on,86,0,4,,,,,,,,3,,,51,0
67046,note_on,86,0,1,,,,,,,,0,,,63,0
67085,set_tempo,50,1,0,,,,,,424689,,,,,,
67134,set_tempo,49,1,0,,,,,,426136,,,,,,
67167,set_tempo,33,1,0,,,,,,427594,,,,,,
67200,note_on,0,0,2,,,,,,,,1,,,72,51
67200,note_on,0,0,4,,,,,,,,3,,,44,40
67200,note_on,154,0,4,,,,,,,,3,,,51,40
67200,control_change,154,0,1,,,,,,,,0,64,127,,
67200,note_on,0,0,1,,,,,,,,0,,,72,64
67200,set_tempo,33,1,0,,,,,,428571,,,,,,
67200,control_change,40344,0,2,,,,,,,,1,64,127,,
67439,note_on,239,0,2,,,,,,,,1,,,72,0
67440,note_on,1,0,2,,,,,,,,1,,,60,40
67440,note_on,0,0,2,,,,,,,,1,,,63,40
67679,note_on,479,0,4,,,,,,,,3,,,44,0
67679,note_on,0,0,4,,,,,,,,3,,,51,0
67680,note_on,0,0,4,,,,,,,,3,,,60,40
67680,note_on,1,0,4,,,,,,,,3,,,68,40
67919,note_on,0,0,2,,,,,,,,1,,,60,0
67919,note_on,479,0,2,,,,,,,,1,,,63,0
67920,note_on,1,0,2,,,,,,,,1,,,60,40
67920,note_on,0,0,2,,,,,,,,1,,,63,40
68159,note_on,479,0,4,,,,,,,,3,,,60,0
68159,note_on,0,0,4,,,,,,,,3,,,68,0
68160,control_change,960,0,1,,,,,,,,0,64,0,,
68160,note_on,1,0,4,,,,,,,,3,,,72,40
68160,note_on,0,0,4,,,,,,,,3,,,63,40
68160,control_change,240,0,2,,,,,,,,1,64,0,,
68399,note_on,239,0,2,,,,,,,,1,,,63,0
68399,note_on,0,0,2,,,,,,,,1,,,60,0
68400,note_on,1,0,2,,,,,,,,1,,,60,40
68400,note_on,0,0,2,,,,,,,,1,,,63,40
68639,note_on,0,0,2,,,,,,,,1,,,60,0
68639,note_on,239,0,2,,,,,,,,1,,,63,0
68639,note_on,0,0,4,,,,,,,,3,,,72,0
68639,note_on,479,0,4,,,,,,,,3,,,63,0
68640,note_on,0,0,4,,,,,,,,3,,,51,40
68640,note_on,1,0,4,,,,,,,,3,,,44,40
68640,note_on,1,0,2,,,,,,,,1,,,72,40
68879,note_on,719,0,1,,,,,,,,0,,,72,0
68879,note_on,239,0,2,,,,,,,,1,,,72,0
68879,note_on,239,0,4,,,,,,,,3,,,51,0
68879,note_on,0,0,4,,,,,,,,3,,,44,0
68880,note_on,0,0,2,,,,,,,,1,,,63,40
68880,note_on,1,0,4,,,,,,,,3,,,44,40
68880,note_on,1,0,2,,,,,,,,1,,,60,40
68880,note_on,17664,0,3,,,,,,,,2,,,51,55
68880,note_on,1,0,1,,,,,,,,0,,,63,64
68987,control_change,107,0,3,,,,,,,,2,64,127,,
69096,note_on,109,0,3,,,,,,,,2,,,51,0
69096,note_on,216,0,1,,,,,,,,0,,,63,0
69096,note_on,216,0,4,,,,,,,,3,,,44,0
69096,note_on,216,0,2,,,,,,,,1,,,63,0
69096,note_on,0,0,2,,,,,,,,1,,,60,0
69120,note_on,0,0,2,,,,,,,,1,,,72,40
69120,note_on,0,0,1,,,,,,,,0,,,72,64
69120,control_change,24,0,1,,,,,,,,0,64,127,,
69120,note_on,24,0,3,,,,,,,,2,,,51,51
69120,control_change,24,0,2,,,,,,,,1,64,127,,
69120,note_on,24,0,4,,,,,,,,3,,,44,40
69311,note_on,191,0,4,,,,,,,,3,,,44,0
69359,note_on,239,0,2,,,,,,,,1,,,72,0
69360,note_on,0,0,2,,,,,,,,1,,,63,40
69360,note_on,1,0,2,,,,,,,,1,,,60,40
69599,note_on,479,0,1,,,,,,,,0,,,72,0
69599,note_on,0,0,2,,,,,,,,1,,,60,0
69599,note_on,479,0,3,,,,,,,,2,,,51,0
69599,note_on,239,0,2,,,,,,,,1,,,63,0
69600,note_on,289,0,4,,,,,,,,3,,,51,40
69600,note_on,1,0,2,,,,,,,,1,,,70,40
69600,note_on,1,0,3,,,,,,,,2,,,55,58
69600,note_on,1,0,1,,,,,,,,0,,,70,69
69791,note_on,191,0,4,,,,,,,,3,,,51,0
69839,note_on,239,0,2,,,,,,,,1,,,70,0
69839,note_on,239,0,1,,,,,,,,0,,,70,0
69839,note_on,239,0,3,,,,,,,,2,,,55,0
69840,note_on,1,0,3,,,,,,,,2,,,56,52
69840,note_on,1,0,1,,,,,,,,0,,,68,66
69840,note_on,1,0,2,,,,,,,,1,,,60,40
69840,note_on,0,0,2,,,,,,,,1,,,68,40
69840,note_on,0,0,2,,,,,,,,1,,,63,40
69947,control_change,107,0,3,,,,,,,,2,64,0,,
70079,note_on,0,0,2,,,,,,,,1,,,63,0
70079,note_on,132,0,3,,,,,,,,2,,,56,0
70079,note_on,239,0,1,,,,,,,,0,,,68,0
70079,note_on,0,0,2,,,,,,,,1,,,60,0
70079,note_on,239,0,2,,,,,,,,1,,,68,0
70080,control_change,1,0,1,,,,,,,,0,64,0,,
70080,note_on,0,0,1,,,,,,,,0,,,70,63
70080,note_on,1,0,3,,,,,,,,2,,,55,57
70080,control_change,1,0,2,,,,,,,,1,64,0,,
70080,note_on,0,0,2,,,,,,,,1,,,70,40
70080,note_on,289,0,4,,,,,,,,3,,,44,40
70271,note_on,191,0,4,,,,,,,,3,,,44,0
70319,note_on,239,0,2,,,,,,,,1,,,70,0
70320,note_on,0,0,2,,,,,,,,1,,,63,40
70320,note_on,1,0,2,,,,,,,,1,,,61,40
70559,note_on,479,0,3,,,,,,,,2,,,55,0
70559,note_on,479,0,1,,,,,,,,0,,,70,0
70559,note_on,0,0,2,,,,,,,,1,,,61,0
70559,note_on,239,0,2,,,,,,,,1,,,63,0
70560,note_on,1,0,1,,,,,,,,0,,,68,66
70560,note_on,289,0,4,,,,,,,,3,,,51,40
70560,note_on,1,0,2,,,,,,,,1,,,68,40
70560,note_on,1,0,3,,,,,,,,2,,,56,56
70646,note_on,86,0,4,,,,,,,,3,,,51,0
70799,note_on,239,0,1,,,,,,,,0,,,68,0
70799,note_on,239,0,2,,,,,,,,1,,,68,0
70799,note_on,239,0,3,,,,,,,,2,,,56,0
70800,note_on,0,0,2,,,,,,,,1,,,67,40
70800,note_on,1,0,2,,,,,,,,1,,,61,40
70800,note_on,1,0,3,,,,,,,,2,,,58,50
70800,note_on,0,0,2,,,,,,,,1,,,63,40
70800,note_on,1,0,1,,,,,,,,0,,,67,64
71016,note_on,216,0,3,,,,,,,,2,,,58,0
71016,note_on,216,0,1,,,,,,,,0,,,67,0
71016,note_on,216,0,2,,,,,,,,1,,,67,0
71016,note_on,0,0,2,,,,,,,,1,,,63,0
71016,note_on,0,0,2,,,,,,,,1,,,61,0
71040,note_on,394,0,4,,,,,,,,3,,,44,40
71040,note_on,24,0,3,,,,,,,,2,,,60,54
71040,note_on,0,0,1,,,,,,,,0,,,68,61
71040,control_change,24,0,1,,,,,,,,0,64,127,,
71040,note_on,24,0,2,,,,,,,,1,,,68,40
71279,note_on,239,0,2,,,,,,,,1,,,68,0
71280,note_on,1,0,2,,,,,,,,1,,,60,40
71280,note_on,0,0,2,,,,,,,,1,,,63,40
71472,note_on,432,0,3,,,,,,,,2,,,60,0
71519,note_on,239,0,2,,,,,,,,1,,,63,0
71519,note_on,0,0,2,,,,,,,,1,,,60,0
71520,note_on,1,0,2,,,,,,,,1,,,63,40
71520,note_on,0,0,2,,,,,,,,1,,,72,40
71680,control_change,160,0,2,,,,,,,,1,64,127,,
71759,note_on,0,0,2,,,,,,,,1,,,63,0
71759,note_on,79,0,2,,,,,,,,1,,,72,0
71760,note_on,1,0,2,,,,,,,,1,,,60,40
71760,note_on,0,0,2,,,,,,,,1,,,63,40
71893,control_change,853,0,4,,,,,,,,3,64,127,,
71999,note_on,239,0,2,,,,,,,,1,,,63,0
71999,note_on,0,0,2,,,,,,,,1,,,60,0
72000,note_on,0,0,2,,,,,,,,1,,,68,40
72000,control_change,960,0,1,,,,,,,,0,64,0,,
72000,note_on,1,0,2,,,,,,,,1,,,60,40
72239,note_on,239,0,2,,,,,,,,1,,,68,0
72239,note_on,0,0,2,,,,,,,,1,,,60,0
72240,note_on,0,0,2,,,,,,,,1,,,63,40
72240,note_on,1,0,2,,,,,,,,1,,,60,40
72479,note_on,239,0,2,,,,,,,,1,,,63,0
72479,note_on,0,0,2,,,,,,,,1,,,60,0
72479,note_on,586,0,4,,,,,,,,3,,,44,0
72479,note_on,479,0,1,,,,,,,,0,,,68,0
72480,note_on,0,0,4,,,,,,,,3,,,51,40
72480,note_on,1,0,4,,,,,,,,3,,,44,40
72480,note_on,1,0,2,,,,,,,,1,,,72,40
72480,note_on,1,0,1,,,,,,,,0,,,72,64
72719,note_on,0,0,4,,,,,,,,3,,,44,0
72719,note_on,239,0,4,,,,,,,,3,,,51,0
72719,note_on,239,0,2,,,,,,,,1,,,72,0
72720,note_on,0,0,2,,,,,,,,1,,,63,40
72720,note_on,1,0,2,,,,,,,,1,,,60,40
72720,note_on,1,0,4,,,,,,,,3,,,44,40
72720,note_on,0,0,4,,,,,,,,3,,,51,40
72912,note_on,432,0,1,,,,,,,,0,,,72,0
72936,note_on,216,0,2,,,,,,,,1,,,63,0
72936,note_on,0,0,2,,,,,,,,1,,,60,0
72936,note_on,0,0,4,,,,,,,,3,,,44,0
72936,note_on,216,0,4,,,,,,,,3,,,51,0
72960,note_on,0,0,1,,,,,,,,0,,,75,64
72960,control_change,48,0,1,,,,,,,,0,64,127,,
72960,note_on,0,0,4,,,,,,,,3,,,44,40
72960,note_on,24,0,4,,,,,,,,3,,,51,40
73200,note_on,0,0,2,,,,,,,,1,,,63,40
73200,note_on,264,0,2,,,,,,,,1,,,60,40
73439,note_on,239,0,2,,,,,,,,1,,,63,0
73439,note_on,479,0,4,,,,,,,,3,,,44,0
73439,note_on,0,0,4,,,,,,,,3,,,51,0
73439,note_on,0,0,2,,,,,,,,1,,,60,0
73440,note_on,0,0,4,,,,,,,,3,,,51,40
73440,note_on,0,0,4,,,,,,,,3,,,60,40
73440,note_on,1,0,2,,,,,,,,1,,,68,40
73440,note_on,1,0,4,,,,,,,,3,,,63,40
73584,control_change,144,0,4,,,,,,,,3,64,0,,
73648,control_change,208,0,2,,,,,,,,1,64,0,,
73679,note_on,31,0,2,,,,,,,,1,,,68,0
73680,note_on,1,0,2,,,,,,,,1,,,60,40
73680,note_on,0,0,2,,,,,,,,1,,,63,40
73919,note_on,239,0,2,,,,,,,,1,,,63,0
73919,note_on,0,0,2,,,,,,,,1,,,60,0
73919,note_on,335,0,4,,,,,,,,3,,,51,0
73919,note_on,0,0,4,,,,,,,,3,,,60,0
73919,note_on,0,0,4,,,,,,,,3,,,63,0
73920,note_on,1,0,2,,,,,,,,1,,,67,40
73920,control_change,960,0,1,,,,,,,,0,64,0,,
73920,note_on,1,0,4,,,,,,,,3,,,58,40
73920,note_on,0,0,4,,,,,,,,3,,,44,40
74159,note_on,239,0,2,,,,,,,,1,,,67,0
74160,note_on,0,0,2,,,,,,,,1,,,63,40
74160,note_on,1,0,2,,,,,,,,1,,,61,40
74399,note_on,239,0,2,,,,,,,,1,,,63,0
74399,note_on,479,0,4,,,,,,,,3,,,44,0
74399,note_on,0,0,4,,,,,,,,3,,,58,0
74399,note_on,0,0,2,,,,,,,,1,,,61,0
74400,note_on,0,0,4,,,,,,,,3,,,51,40
74400,note_on,0,0,4,,,,,,,,3,,,55,40
74400,note_on,1,0,4,,,,,,,,3,,,63,40
74400,note_on,1,0,2,,,,,,,,1,,,70,40
74616,note_on,216,0,4,,,,,,,,3,,,51,0
74616,note_on,0,0,4,,,,,,,,3,,,55,0
74616,note_on,0,0,4,,,,,,,,3,,,63,0
74639,note_on,239,0,2,,,,,,,,1,,,70,0
74640,note_on,0,0,2,,,,,,,,1,,,63,40
74640,note_on,1,0,2,,,,,,,,1,,,61,40
74688,note_on,768,0,1,,,,,,,,0,,,75,0
74856,note_on,216,0,2,,,,,,,,1,,,63,0
74856,note_on,0,0,2,,,,,,,,1,,,61,0
74880,note_on,0,0,2,,,,,,,,1,,,68,40
74880,control_change,24,0,2,,,,,,,,1,64,127,,
74880,note_on,264,0,4,,,,,,,,3,,,44,40
75119,note_on,239,0,2,,,,,,,,1,,,68,0
75120,note_on,1,0,2,,,,,,,,1,,,60,40
75120,note_on,0,0,2,,,,,,,,1,,,63,40
75359,note_on,239,0,2,,,,,,,,1,,,63,0
75359,note_on,0,0,2,,,,,,,,1,,,60,0
75359,note_on,479,0,4,,,,,,,,3,,,44,0
75360,note_on,1,0,2,,,,,,,,1,,,72,40
75360,note_on,0,0,4,,,,,,,,3,,,51,40
75360,note_on,0,0,4,,,,,,,,3,,,56,40
75360,note_on,1,0,4,,,,,,,,3,,,63,40
75576,note_on,0,0,4,,,,,,,,3,,,63,0
75576,note_on,0,0,4,,,,,,,,3,,,56,0
75576,note_on,216,0,4,,,,,,,,3,,,51,0
75599,note_on,239,0,2,,,,,,,,1,,,72,0
75600,note_on,1,0,2,,,,,,,,1,,,60,40
75600,note_on,0,0,2,,,,,,,,1,,,63,40
75627,control_change,939,0,1,,,,,,,,0,64,127,,
75839,note_on,239,0,2,,,,,,,,1,,,63,0
75839,note_on,0,0,2,,,,,,,,1,,,60,0
75840,note_on,0,0,2,,,,,,,,1,,,68,40
75840,control_change,1,0,2,,,,,,,,1,64,0,,
76079,note_on,239,0,2,,,,,,,,1,,,68,0
76080,note_on,1,0,2,,,,,,,,1,,,60,40
76080,note_on,0,0,2,,,,,,,,1,,,63,40
76320,note_on,0,0,1,,,,,,,,0,,,68,51
76320,note_on,693,0,1,,,,,,,,0,,,56,51
76559,note_on,0,0,2,,,,,,,,1,,,60,0
76559,note_on,479,0,2,,,,,,,,1,,,63,0
76560,note_on,0,0,2,,,,,,,,1,,,63,40
76560,note_on,1,0,2,,,,,,,,1,,,60,40
76587,control_change,267,0,1,,,,,,,,0,64,0,,
76752,note_on,0,0,1,,,,,,,,0,,,56,0
76752,note_on,165,0,1,,,,,,,,0,,,68,0
76776,note_on,0,0,2,,,,,,,,1,,,60,0
76776,note_on,216,0,2,,,,,,,,1,,,63,0
76800,note_on,0,0,4,,,,,,,,3,,,63,40
76800,note_on,0,0,4,,,,,,,,3,,,51,40
76800,control_change,48,0,1,,,,,,,,0,64,127,,
76800,note_on,0,0,2,,,,,,,,1,,,58,40
76800,note_on,0,0,2,,,,,,,,1,,,55,40
76800,control_change,24,0,2,,,,,,,,1,64,127,,
76800,control_change,1224,0,4,,,,,,,,3,64,127,,
76800,note_on,0,0,1,,,,,,,,0,,,67,51
77039,note_on,0,0,2,,,,,,,,1,,,55,0
77039,note_on,239,0,2,,,,,,,,1,,,58,0
77040,note_on,1,0,2,,,,,,,,1,,,58,40
77040,note_on,0,0,2,,,,,,,,1,,,61,40
77279,note_on,0,0,4,,,,,,,,3,,,63,0
77279,note_on,479,0,4,,,,,,,,3,,,51,0
77280,note_on,1,0,4,,,,,,,,3,,,70,40
77280,note_on,0,0,4,,,,,,,,3,,,61,40
77280,note_on,0,0,4,,,,,,,,3,,,58,40
77471,note_on,0,0,4,,,,,,,,3,,,70,0
77471,note_on,0,0,4,,,,,,,,3,,,61,0
77471,note_on,191,0,4,,,,,,,,3,,,58,0
77519,note_on,479,0,2,,,,,,,,1,,,61,0
77519,note_on,0,0,2,,,,,,,,1,,,58,0
77520,note_on,0,0,2,,,,,,,,1,,,70,40
77520,note_on,1,0,2,,,,,,,,1,,,61,40
77520,note_on,0,0,2,,,,,,,,1,,,63,40
77615,note_on,0,0,2,,,,,,,,1,,,63,0
77615,note_on,0,0,2,,,,,,,,1,,,61,0
77615,note_on,95,0,2,,,,,,,,1,,,70,0
77759,note_on,959,0,1,,,,,,,,0,,,67,0
77760,note_on,0,0,2,,,,,,,,1,,,55,40
77760,control_change,1,0,1,,,,,,,,0,64,0,,
77760,note_on,0,0,1,,,,,,,,0,,,67,51
77760,note_on,0,0,4,,,,,,,,3,,,39,40
77760,note_on,0,0,4,,,,,,,,3,,,51,40
77760,note_on,0,0,2,,,,,,,,1,,,58,40
77760,control_change,289,0,4,,,,,,,,3,64,0,,
77760,control_change,145,0,2,,,,,,,,1,64,0,,
77999,note_on,0,0,2,,,,,,,,1,,,55,0
77999,note_on,239,0,2,,,,,,,,1,,,58,0
78000,note_on,1,0,2,,,,,,,,1,,,58,40
78000,note_on,0,0,2,,,,,,,,1,,,61,40
78192,note_on,432,0,1,,,,,,,,0,,,67,0
78239,note_on,479,0,4,,,,,,,,3,,,39,0
78239,note_on,0,0,4,,,,,,,,3,,,51,0
78240,note_on,0,0,4,,,,,,,,3,,,55,40
78240,note_on,0,0,4,,,,,,,,3,,,51,40
78240,note_on,1,0,4,,,,,,,,3,,,63,40
78326,note_on,86,0,4,,,,,,,,3,,,51,0
78326,note_on,0,0,4,,,,,,,,3,,,55,0
78326,note_on,0,0,4,,,,,,,,3,,,63,0
78479,note_on,0,0,2,,,,,,,,1,,,58,0
78479,note_on,479,0,2,,,,,,,,1,,,61,0
78480,note_on,1,0,2,,,,,,,,1,,,55,40
78480,note_on,0,0,2,,,,,,,,1,,,61,40
78480,note_on,0,0,2,,,,,,,,1,,,63,40
78566,note_on,86,0,2,,,,,,,,1,,,63,0
78566,note_on,0,0,2,,,,,,,,1,,,61,0
78566,note_on,0,0,2,,,,,,,,1,,,55,0
78720,note_on,0,0,4,,,,,,,,3,,,44,40
78720,note_on,0,0,4,,,,,,,,3,,,32,40
78720,control_change,394,0,4,,,,,,,,3,64,127,,
78720,control_change,154,0,2,,,,,,,,1,64,127,,
78720,note_on,0,0,2,,,,,,,,1,,,56,40
78720,note_on,0,0,2,,,,,,,,1,,,60,40
78720,control_change,528,0,1,,,,,,,,0,64,127,,
78720,note_on,0,0,1,,,,,,,,0,,,68,51
78959,note_on,239,0,2,,,,,,,,1,,,60,0
78959,note_on,0,0,2,,,,,,,,1,,,56,0
78960,note_on,1,0,2,,,,,,,,1,,,60,38
78960,note_on,0,0,2,,,,,,,,1,,,63,38
79199,note_on,0,0,4,,,,,,,,3,,,32,0
79199,note_on,479,0,4,,,,,,,,3,,,44,0
79200,note_on,0,0,4,,,,,,,,3,,,60,42
79200,note_on,0,0,4,,,,,,,,3,,,63,42
79200,note_on,1,0,4,,,,,,,,3,,,72,42
79391,note_on,0,0,4,,,,,,,,3,,,72,0
79391,note_on,0,0,4,,,,,,,,3,,,63,0
79391,note_on,191,0,4,,,,,,,,3,,,60,0
79439,note_on,0,0,2,,,,,,,,1,,,60,0
79439,note_on,479,0,2,,,,,,,,1,,,63,0
79440,note_on,0,0,2,,,,,,,,1,,,68,41
79440,note_on,1,0,2,,,,,,,,1,,,63,41
79440,note_on,0,0,2,,,,,,,,1,,,75,41
79535,note_on,95,0,2,,,,,,,,1,,,75,0
79535,note_on,0,0,2,,,,,,,,1,,,68,0
79535,note_on,0,0,2,,,,,,,,1,,,63,0
79679,note_on,959,0,1,,,,,,,,0,,,68,0
79680,note_on,0,0,2,,,,,,,,1,,,60,43
79680,control_change,145,0,2,,,,,,,,1,64,0,,
79680,note_on,0,0,1,,,,,,,,0,,,72,55
79680,control_change,1,0,1,,,,,,,,0,64,0,,
79680,note_on,0,0,4,,,,,,,,3,,,44,44
79680,control_change,289,0,4,,,,,,,,3,64,0,,
79680,note_on,0,0,2,,,,,,,,1,,,63,43
79919,note_on,239,0,2,,,,,,,,1,,,63,0
79919,note_on,0,0,2,,,,,,,,1,,,60,0
79920,note_on,0,0,2,,,,,,,,1,,,68,44
79920,note_on,1,0,2,,,,,,,,1,,,63,44
80112,note_on,432,0,1,,,,,,,,0,,,72,0
80159,note_on,479,0,4,,,,,,,,3,,,44,0
80160,note_on,1,0,4,,,,,,,,3,,,68,46
80160,note_on,0,0,4,,,,,,,,3,,,60,46
80160,note_on,0,0,4,,,,,,,,3,,,56,46
80246,note_on,86,0,4,,,,,,,,3,,,56,0
80246,note_on,0,0,4,,,,,,,,3,,,60,0
80246,note_on,0,0,4,,,,,,,,3,,,68,0
80399,note_on,479,0,2,,,,,,,,1,,,68,0
80399,note_on,0,0,2,,,,,,,,1,,,63,0
80400,note_on,1,0,2,,,,,,,,1,,,60,48
80400,note_on,0,0,2,,,,,,,,1,,,68,48
80400,note_on,0,0,2,,,,,,,,1,,,63,48
80486,note_on,0,0,2,,,,,,,,1,,,60,0
80486,note_on,0,0,2,,,,,,,,1,,,63,0
80486,note_on,86,0,2,,,,,,,,1,,,68,0
80640,note_on,0,0,2,,,,,,,,1,,,65,49
80640,note_on,0,0,2,,,,,,,,1,,,61,49
80640,control_change,528,0,1,,,,,,,,0,64,127,,
80640,note_on,0,0,1,,,,,,,,0,,,73,51
80640,control_change,154,0,2,,,,,,,,1,64,127,,
80640,note_on,394,0,4,,,,,,,,3,,,44,48
80660,control_change,20,0,4,,,,,,,,3,64,127,,
80879,note_on,239,0,2,,,,,,,,1,,,65,0
80879,note_on,0,0,2,,,,,,,,1,,,61,0
80880,note_on,0,0,2,,,,,,,,1,,,68,51
80880,note_on,1,0,2,,,,,,,,1,,,65,51
81072,note_on,432,0,1,,,,,,,,0,,,73,0
81119,note_on,459,0,4,,,,,,,,3,,,44,0
81119,note_on,0,0,2,,,,,,,,1,,,65,0
81119,note_on,239,0,2,,,,,,,,1,,,68,0
81120,note_on,0,0,2,,,,,,,,1,,,61,52
81120,note_on,0,0,2,,,,,,,,1,,,65,52
81120,note_on,1,0,2,,,,,,,,1,,,56,52
81120,note_on,0,0,4,,,,,,,,3,,,56,51
81120,note_on,0,0,4,,,,,,,,3,,,65,51
81120,note_on,1,0,4,,,,,,,,3,,,68,51
81311,note_on,0,0,4,,,,,,,,3,,,68,0
81311,note_on,0,0,4,,,,,,,,3,,,65,0
81311,note_on,191,0,4,,,,,,,,3,,,56,0
81359,note_on,239,0,2,,,,,,,,1,,,65,0
81359,note_on,0,0,2,,,,,,,,1,,,61,0
81359,note_on,0,0,2,,,,,,,,1,,,56,0
81360,note_on,0,0,2,,,,,,,,1,,,68,54
81360,note_on,0,0,2,,,,,,,,1,,,65,54
81360,note_on,1,0,2,,,,,,,,1,,,61,54
81455,note_on,0,0,2,,,,,,,,1,,,61,0
81455,note_on,0,0,2,,,,,,,,1,,,65,0
81455,note_on,95,0,2,,,,,,,,1,,,68,0
81600,note_on,0,0,2,,,,,,,,1,,,61,56
81600,note_on,0,0,2,,,,,,,,1,,,53,56
81600,control_change,145,0,2,,,,,,,,1,64,0,,
81600,control_change,528,0,1,,,,,,,,0,64,0,,
81600,note_on,0,0,4,,,,,,,,3,,,44,51
81600,note_on,289,0,4,,,,,,,,3,,,32,51
81600,note_on,0,0,2,,,,,,,,1,,,65,56
81620,control_change,20,0,4,,,,,,,,3,64,0,,
81839,note_on,0,0,2,,,,,,,,1,,,53,0
81839,note_on,0,0,2,,,,,,,,1,,,61,0
81839,note_on,239,0,2,,,,,,,,1,,,65,0
81840,note_on,0,0,2,,,,,,,,1,,,65,57
81840,note_on,0,0,2,,,,,,,,1,,,68,57
81840,note_on,1,0,2,,,,,,,,1,,,56,57
82079,note_on,459,0,4,,,,,,,,3,,,44,0
82079,note_on,239,0,2,,,,,,,,1,,,68,0
82079,note_on,0,0,2,,,,,,,,1,,,65,0
82079,note_on,0,0,2,,,,,,,,1,,,56,0
82079,note_on,0,0,4,,,,,,,,3,,,32,0
82080,note_on,1,0,4,,,,,,,,3,,,73,51
82080,note_on,1,0,2,,,,,,,,1,,,61,59
82080,note_on,0,0,2,,,,,,,,1,,,65,59
82080,note_on,0,0,2,,,,,,,,1,,,73,59
82080,note_on,0,0,4,,,,,,,,3,,,65,51
82080,note_on,0,0,4,,,,,,,,3,,,61,51
82166,note_on,0,0,4,,,,,,,,3,,,73,0
82166,note_on,0,0,4,,,,,,,,3,,,65,0
82166,note_on,86,0,4,,,,,,,,3,,,61,0
82319,note_on,239,0,2,,,,,,,,1,,,73,0
82319,note_on,0,0,2,,,,,,,,1,,,65,0
82319,note_on,0,0,2,,,,,,,,1,,,61,0
82320,note_on,1,0,2,,,,,,,,1,,,65,60
82320,note_on,0,0,2,,,,,,,,1,,,68,60
82320,note_on,0,0,2,,,,,,,,1,,,77,60
82406,note_on,86,0,2,,,,,,,,1,,,77,0
82406,note_on,0,0,2,,,,,,,,1,,,68,0
82406,note_on,0,0,2,,,,,,,,1,,,65,0
82560,note_on,0,0,2,,,,,,,,1,,,63,62
82560,note_on,0,0,2,,,,,,,,1,,,72,62
82560,control_change,154,0,2,,,,,,,,1,64,127,,
82560,note_on,0,0,4,,,,,,,,3,,,44,51
82560,control_change,394,0,4,,,,,,,,3,64,127,,
82560,note_on,0,0,1,,,,,,,,0,,,75,64
82560,control_change,960,0,1,,,,,,,,0,64,127,,
82799,note_on,239,0,2,,,,,,,,1,,,72,0
82799,note_on,0,0,2,,,,,,,,1,,,63,0
82800,note_on,0,0,2,,,,,,,,1,,,68,51
82800,note_on,1,0,2,,,,,,,,1,,,60,51
83039,note_on,0,0,2,,,,,,,,1,,,60,0
83039,note_on,239,0,2,,,,,,,,1,,,68,0
83040,note_on,1,0,2,,,,,,,,1,,,56,51
83040,note_on,0,0,2,,,,,,,,1,,,72,51
83040,note_on,0,0,2,,,,,,,,1,,,63,51
83135,note_on,95,0,2,,,,,,,,1,,,72,0
83135,note_on,0,0,2,,,,,,,,1,,,63,0
83135,note_on,0,0,2,,,,,,,,1,,,56,0
83280,note_on,145,0,2,,,,,,,,1,,,60,51
83280,note_on,0,0,2,,,,,,,,1,,,63,51
83280,note_on,0,0,2,,,,,,,,1,,,72,51
83375,note_on,0,0,2,,,,,,,,1,,,63,0
83375,note_on,0,0,2,,,,,,,,1,,,60,0
83375,note_on,95,0,2,,,,,,,,1,,,72,0
83519,note_on,959,0,1,,,,,,,,0,,,75,0
83519,note_on,959,0,4,,,,,,,,3,,,44,0
83520,control_change,145,0,2,,,,,,,,1,64,0,,
83520,note_on,0,0,2,,,,,,,,1,,,60,51
83520,note_on,0,0,2,,,,,,,,1,,,63,51
83520,control_change,1,0,1,,,,,,,,0,64,0,,
83520,control_change,1,0,4,,,,,,,,3,64,0,,
83520,note_on,0,0,4,,,,,,,,3,,,32,51
83520,note_on,0,0,4,,,,,,,,3,,,44,51
83520,note_on,0,0,1,,,,,,,,0,,,68,64
83736,note_on,216,0,4,,,,,,,,3,,,44,0
83736,note_on,0,0,4,,,,,,,,3,,,32,0
83759,note_on,239,0,2,,,,,,,,1,,,63,0
83759,note_on,0,0,2,,,,,,,,1,,,60,0
83760,note_on,1,0,2,,,,,,,,1,,,56,51
83760,note_on,0,0,2,,,,,,,,1,,,60,51
83952,note_on,432,0,1,,,,,,,,0,,,68,0
83999,note_on,0,0,2,,,,,,,,1,,,56,0
83999,note_on,239,0,2,,,,,,,,1,,,60,0
84000,note_on,1,0,2,,,,,,,,1,,,51,51
84040,note_on,40,0,2,,,,,,,,1,,,60,51
84080,note_on,40,0,2,,,,,,,,1,,,63,51
84239,note_on,0,0,2,,,,,,,,1,,,60,0
84239,note_on,159,0,2,,,,,,,,1,,,63,0
84239,note_on,0,0,2,,,,,,,,1,,,51,0
84240,note_on,1,0,2,,,,,,,,1,,,56,51
84240,note_on,0,0,2,,,,,,,,1,,,66,51
84240,note_on,0,0,2,,,,,,,,1,,,60,51
84326,note_on,86,0,2,,,,,,,,1,,,66,0
84326,note_on,0,0,2,,,,,,,,1,,,60,0
84326,note_on,0,0,2,,,,,,,,1,,,56,0
84480,note_on,0,0,2,,,,,,,,1,,,58,51
84480,control_change,744,0,4,,,,,,,,3,64,127,,
84480,note_on,528,0,1,,,,,,,,0,,,70,64
84480,note_on,0,0,2,,,,,,,,1,,,55,51
84480,control_change,154,0,2,,,,,,,,1,64,127,,
84480,note_on,0,0,4,,,,,,,,3,,,51,51
84480,note_on,0,0,4,,,,,,,,3,,,39,51
84560,control_change,80,0,1,,,,,,,,0,64,127,,
84719,note_on,0,0,2,,,,,,,,1,,,55,0
84719,note_on,239,0,2,,,,,,,,1,,,58,0
84720,note_on,0,0,2,,,,,,,,1,,,61,51
84720,note_on,1,0,2,,,,,,,,1,,,58,51
84959,note_on,239,0,2,,,,,,,,1,,,61,0
84959,note_on,0,0,2,,,,,,,,1,,,58,0
84960,note_on,0,0,2,,,,,,,,1,,,70,51
84960,note_on,0,0,2,,,,,,,,1,,,61,51
84960,note_on,1,0,2,,,,,,,,1,,,58,51
85199,note_on,0,0,2,,,,,,,,1,,,58,0
85199,note_on,0,0,2,,,,,,,,1,,,61,0
85199,note_on,239,0,2,,,,,,,,1,,,70,0
85200,note_on,0,0,2,,,,,,,,1,,,70,51
85200,note_on,1,0,2,,,,,,,,1,,,58,51
85200,note_on,0,0,2,,,,,,,,1,,,61,51
85439,note_on,239,0,2,,,,,,,,1,,,70,0
85439,note_on,0,0,2,,,,,,,,1,,,58,0
85439,note_on,879,0,1,,,,,,,,0,,,70,0
85439,note_on,0,0,2,,,,,,,,1,,,61,0
85439,note_on,959,0,4,,,,,,,,3,,,39,0
85439,note_on,0,0,4,,,,,,,,3,,,51,0
85440,note_on,0,0,2,,,,,,,,1,,,55,51
85440,control_change,1,0,4,,,,,,,,3,64,0,,
85440,note_on,0,0,4,,,,,,,,3,,,51,51
85440,note_on,0,0,4,,,,,,,,3,,,39,51
85440,note_on,0,0,2,,,,,,,,1,,,58,51
85440,note_on,1,0,1,,,,,,,,0,,,67,64
85440,control_change,1,0,2,,,,,,,,1,64,0,,
85520,control_change,80,0,1,,,,,,,,0,64,0,,
85656,note_on,0,0,4,,,,,,,,3,,,51,0
85656,note_on,216,0,4,,,,,,,,3,,,39,0
85679,note_on,0,0,2,,,,,,,,1,,,55,0
85679,note_on,239,0,2,,,,,,,,1,,,58,0
85680,note_on,1,0,2,,,,,,,,1,,,58,51
85680,note_on,0,0,2,,,,,,,,1,,,61,51
85872,note_on,352,0,1,,,,,,,,0,,,67,0
85919,note_on,239,0,2,,,,,,,,1,,,61,0
85919,note_on,0,0,2,,,,,,,,1,,,58,0
85920,note_on,0,0,2,,,,,,,,1,,,55,51
85920,note_on,1,0,2,,,,,,,,1,,,51,51
85920,note_on,0,0,2,,,,,,,,1,,,63,51
86159,note_on,239,0,2,,,,,,,,1,,,63,0
86159,note_on,0,0,2,,,,,,,,1,,,55,0
86159,note_on,0,0,2,,,,,,,,1,,,51,0
86160,note_on,1,0,2,,,,,,,,1,,,55,51
86160,note_on,0,0,2,,,,,,,,1,,,61,51
86160,note_on,0,0,2,,,,,,,,1,,,63,51
86376,note_on,216,0,2,,,,,,,,1,,,63,0
86376,note_on,0,0,2,,,,,,,,1,,,61,0
86376,note_on,0,0,2,,,,,,,,1,,,55,0
86400,note_on,528,0,1,,,,,,,,0,,,68,64
86400,note_on,0,0,2,,,,,,,,1,,,60,51
86400,note_on,0,0,2,,,,,,,,1,,,56,51
86400,control_change,744,0,4,,,,,,,,3,64,127,,
86400,note_on,0,0,4,,,,,,,,3,,,44,51
86400,note_on,0,0,4,,,,,,,,3,,,32,51
86400,control_change,24,0,2,,,,,,,,1,64,127,,
86453,control_change,53,0,1,,,,,,,,0,64,127,,
86639,note_on,239,0,2,,,,,,,,1,,,60,0
86639,note_on,0,0,2,,,,,,,,1,,,56,0
86640,note_on,1,0,2,,,,,,,,1,,,60,52
86640,note_on,0,0,2,,,,,,,,1,,,63,52
86879,note_on,239,0,2,,,,,,,,1,,,63,0
86879,note_on,0,0,2,,,,,,,,1,,,60,0
86880,note_on,1,0,2,,,,,,,,1,,,60,53
86880,note_on,0,0,2,,,,,,,,1,,,63,53
86880,note_on,0,0,2,,,,,,,,1,,,72,53
87119,note_on,0,0,2,,,,,,,,1,,,63,0
87119,note_on,0,0,2,,,,,,,,1,,,60,0
87119,note_on,239,0,2,,,,,,,,1,,,72,0
87120,note_on,1,0,2,,,,,,,,1,,,63,54
87120,note_on,0,0,2,,,,,,,,1,,,68,54
87120,note_on,0,0,2,,,,,,,,1,,,75,54
87359,note_on,906,0,1,,,,,,,,0,,,68,0
87359,note_on,0,0,2,,,,,,,,1,,,68,0
87359,note_on,239,0,2,,,,,,,,1,,,75,0
87359,note_on,0,0,2,,,,,,,,1,,,63,0
87359,note_on,959,0,4,,,,,,,,3,,,44,0
87359,note_on,0,0,4,,,,,,,,3,,,32,0
87360,note_on,0,0,2,,,,,,,,1,,,60,56
87360,note_on,0,0,2,,,,,,,,1,,,63,56
87360,control_change,1,0,2,,,,,,,,1,64,0,,
87360,control_change,1,0,4,,,,,,,,3,64,0,,
87360,note_on,0,0,4,,,,,,,,3,,,44,56
87360,note_on,1,0,1,,,,,,,,0,,,72,70
87413,control_change,53,0,1,,,,,,,,0,64,0,,
87576,note_on,216,0,4,,,,,,,,3,,,44,0
87599,note_on,0,0,2,,,,,,,,1,,,60,0
87599,note_on,239,0,2,,,,,,,,1,,,63,0
87600,note_on,0,0,2,,,,,,,,1,,,68,56
87600,note_on,1,0,2,,,,,,,,1,,,63,56
87792,note_on,379,0,1,,,,,,,,0,,,72,0
87839,note_on,239,0,2,,,,,,,,1,,,68,0
87839,note_on,0,0,2,,,,,,,,1,,,63,0
87840,note_on,0,0,2,,,,,,,,1,,,68,58
87840,note_on,0,0,2,,,,,,,,1,,,60,58
87840,note_on,1,0,2,,,,,,,,1,,,56,58
88079,note_on,0,0,2,,,,,,,,1,,,56,0
88079,note_on,0,0,2,,,,,,,,1,,,60,0
88079,note_on,239,0,2,,,,,,,,1,,,68,0
88080,note_on,1,0,2,,,,,,,,1,,,60,57
88080,note_on,0,0,2,,,,,,,,1,,,63,57
88080,note_on,0,0,2,,,,,,,,1,,,72,57
88296,note_on,0,0,2,,,,,,,,1,,,60,0
88296,note_on,216,0,2,,,,,,,,1,,,72,0
88296,note_on,0,0,2,,,,,,,,1,,,63,0
88320,control_change,744,0,4,,,,,,,,3,64,127,,
88320,note_on,0,0,4,,,,,,,,3,,,53,51
88320,note_on,0,0,4,,,,,,,,3,,,41,51
88320,control_change,24,0,2,,,,,,,,1,64,127,,
88320,note_on,0,0,2,,,,,,,,1,,,72,56
88320,note_on,0,0,2,,,,,,,,1,,,68,56
88320,note_on,528,0,1,,,,,,,,0,,,80,64
88373,control_change,53,0,1,,,,,,,,0,64,127,,
88559,note_on,0,0,2,,,,,,,,1,,,68,0
88559,note_on,239,0,2,,,,,,,,1,,,72,0
88560,note_on,0,0,2,,,,,,,,1,,,68,55
88560,note_on,1,0,2,,,,,,,,1,,,65,55
88799,note_on,0,0,2,,,,,,,,1,,,65,0
88799,note_on,426,0,1,,,,,,,,0,,,80,0
88799,note_on,239,0,2,,,,,,,,1,,,68,0
88800,note_on,0,0,2,,,,,,,,1,,,72,54
88800,note_on,1,0,1,,,,,,,,0,,,77,72
88800,note_on,1,0,2,,,,,,,,1,,,68,54
89039,note_on,0,0,2,,,,,,,,1,,,68,0
89039,note_on,239,0,2,,,,,,,,1,,,72,0
89039,note_on,239,0,1,,,,,,,,0,,,77,0
89040,note_on,1,0,1,,,,,,,,0,,,77,68
89040,note_on,0,0,2,,,,,,,,1,,,68,53
89040,note_on,1,0,2,,,,,,,,1,,,65,53
89279,note_on,0,0,2,,,,,,,,1,,,65,0
89279,note_on,239,0,2,,,,,,,,1,,,68,0
89279,note_on,239,0,1,,,,,,,,0,,,77,0
89279,note_on,959,0,4,,,,,,,,3,,,41,0
89279,note_on,0,0,4,,,,,,,,3,,,53,0
89280,note_on,0,0,2,,,,,,,,1,,,67,52
89280,note_on,0,0,2,,,,,,,,1,,,64,52
89280,control_change,1,0,2,,,,,,,,1,64,0,,
89280,control_change,1,0,4,,,,,,,,3,64,0,,
89280,note_on,0,0,4,,,,,,,,3,,,36,51
89280,note_on,0,0,4,,,,,,,,3,,,48,51
89280,note_on,1,0,1,,,,,,,,0,,,76,63
89333,control_change,53,0,1,,,,,,,,0,64,0,,
89496,note_on,216,0,4,,,,,,,,3,,,48,0
89496,note_on,0,0,4,,,,,,,,3,,,36,0
89519,note_on,0,0,2,,,,,,,,1,,,64,0
89519,note_on,239,0,2,,,,,,,,1,,,67,0
89520,note_on,0,0,2,,,,,,,,1,,,64,51
89520,note_on,1,0,2,,,,,,,,1,,,60,51
89759,note_on,0,0,2,,,,,,,,1,,,60,0
89759,note_on,426,0,1,,,,,,,,0,,,76,0
89759,note_on,239,0,2,,,,,,,,1,,,64,0
89760,note_on,1,0,1,,,,,,,,0,,,72,68
89760,note_on,1,0,2,,,,,,,,1,,,64,50
89760,note_on,0,0,2,,,,,,,,1,,,67,50
89999,note_on,239,0,2,,,,,,,,1,,,67,0
89999,note_on,239,0,1,,,,,,,,0,,,72,0
89999,note_on,0,0,2,,,,,,,,1,,,64,0
90000,note_on,1,0,2,,,,,,,,1,,,60,49
90000,note_on,0,0,2,,,,,,,,1,,,64,49
90000,note_on,1,0,1,,,,,,,,0,,,72,65
90216,note_on,216,0,2,,,,,,,,1,,,64,0
90216,note_on,0,0,2,,,,,,,,1,,,60,0
90216,note_on,216,0,1,,,,,,,,0,,,72,0
90240,note_on,0,0,2,,,,,,,,1,,,68,48
90240,note_on,0,0,2,,,,,,,,1,,,65,48
90240,note_on,0,0,4,,,,,,,,3,,,56,51
90240,note_on,0,0,4,,,,,,,,3,,,48,51
90240,control_change,24,0,2,,,,,,,,1,64,127,,
90240,control_change,24,0,1,,,,,,,,0,64,127,,
90240,note_on,0,0,1,,,,,,,,0,,,77,61
90240,control_change,744,0,4,,,,,,,,3,64,127,,
90240,note_on,0,0,4,,,,,,,,3,,,41,51
90456,note_on,0,0,4,,,,,,,,3,,,48,0
90456,note_on,0,0,4,,,,,,,,3,,,41,0
90456,note_on,216,0,4,,,,,,,,3,,,56,0
90479,note_on,239,0,2,,,,,,,,1,,,68,0
90479,note_on,0,0,2,,,,,,,,1,,,65,0
90480,note_on,1,0,2,,,,,,,,1,,,60,47
90480,note_on,0,0,2,,,,,,,,1,,,68,47
90672,note_on,432,0,1,,,,,,,,0,,,77,0
90719,note_on,239,0,2,,,,,,,,1,,,68,0
90719,note_on,0,0,2,,,,,,,,1,,,60,0
90720,note_on,0,0,2,,,,,,,,1,,,68,52
90720,note_on,0,0,2,,,,,,,,1,,,72,52
90720,note_on,1,0,2,,,,,,,,1,,,65,52
90959,note_on,239,0,2,,,,,,,,1,,,72,0
90959,note_on,0,0,2,,,,,,,,1,,,68,0
90959,note_on,0,0,2,,,,,,,,1,,,65,0
90960,note_on,1,0,2,,,,,,,,1,,,60,45
90960,note_on,0,0,2,,,,,,,,1,,,65,45
90960,note_on,0,0,2,,,,,,,,1,,,68,45
91199,note_on,239,0,2,,,,,,,,1,,,68,0
91199,note_on,0,0,2,,,,,,,,1,,,60,0
91199,note_on,0,0,2,,,,,,,,1,,,65,0
91200,control_change,528,0,1,,,,,,,,0,64,0,,
91200,note_on,0,0,2,,,,,,,,1,,,56,47
91200,control_change,1,0,2,,,,,,,,1,64,0,,
91200,note_on,0,0,2,,,,,,,,1,,,60,47
91200,control_change,744,0,4,,,,,,,,3,64,0,,
91200,note_on,0,0,2,,,,,,,,1,,,65,47
91439,note_on,0,0,2,,,,,,,,1,,,56,0
91439,note_on,0,0,2,,,,,,,,1,,,60,0
91439,note_on,239,0,2,,,,,,,,1,,,65,0
91440,note_on,0,0,2,,,,,,,,1,,,60,47
91440,note_on,1,0,2,,,,,,,,1,,,56,47
91679,note_on,0,0,2,,,,,,,,1,,,56,0
91679,note_on,239,0,2,,,,,,,,1,,,60,0
91680,note_on,0,0,2,,,,,,,,1,,,56,49
91680,note_on,1,0,2,,,,,,,,1,,,53,49
91919,note_on,0,0,2,,,,,,,,1,,,53,0
91919,note_on,239,0,2,,,,,,,,1,,,56,0
91920,note_on,0,0,2,,,,,,,,1,,,72,49
91920,note_on,1,0,2,,,,,,,,1,,,60,49
92136,note_on,0,0,2,,,,,,,,1,,,60,0
92136,note_on,216,0,2,,,,,,,,1,,,72,0
92160,note_on,24,0,2,,,,,,,,1,,,65,51
92160,control_change,960,0,4,,,,,,,,3,64,127,,
92160,note_on,0,0,2,,,,,,,,1,,,68,51
92160,note_on,0,0,4,,,,,,,,3,,,37,56
92160,note_on,0,0,4,,,,,,,,3,,,49,56
92160,control_change,960,0,1,,,,,,,,0,64,127,,
92160,note_on,0,0,1,,,,,,,,0,,,77,70
92399,note_on,0,0,2,,,,,,,,1,,,65,0
92399,note_on,239,0,2,,,,,,,,1,,,68,0
92400,note_on,1,0,2,,,,,,,,1,,,61,51
92400,note_on,0,0,2,,,,,,,,1,,,65,51
92639,note_on,479,0,1,,,,,,,,0,,,77,0
92639,note_on,0,0,2,,,,,,,,1,,,61,0
92639,note_on,239,0,2,,,,,,,,1,,,65,0
92639,note_on,0,0,4,,,,,,,,3,,,37,0
92639,note_on,479,0,4,,,,,,,,3,,,49,0
92640,note_on,0,0,2,,,,,,,,1,,,68,53
92640,note_on,1,0,2,,,,,,,,1,,,65,53
92640,note_on,0,0,4,,,,,,,,3,,,53,56
92640,note_on,0,0,4,,,,,,,,3,,,56,56
92640,note_on,1,0,4,,,,,,,,3,,,61,56
92640,note_on,1,0,1,,,,,,,,0,,,73,76
92879,note_on,0,0,2,,,,,,,,1,,,65,0
92879,note_on,239,0,2,,,,,,,,1,,,68,0
92879,note_on,239,0,1,,,,,,,,0,,,73,0
92880,note_on,1,0,2,,,,,,,,1,,,61,53
92880,note_on,0,0,2,,,,,,,,1,,,65,53
92880,note_on,1,0,1,,,,,,,,0,,,73,73
93119,note_on,0,0,4,,,,,,,,3,,,56,0
93119,note_on,0,0,4,,,,,,,,3,,,61,0
93119,note_on,239,0,2,,,,,,,,1,,,65,0
93119,note_on,239,0,1,,,,,,,,0,,,73,0
93119,note_on,0,0,2,,,,,,,,1,,,61,0
93119,note_on,479,0,4,,,,,,,,3,,,53,0
93120,control_change,1,0,1,,,,,,,,0,64,0,,
93120,note_on,0,0,1,,,,,,,,0,,,72,68
93120,note_on,0,0,2,,,,,,,,1,,,63,55
93120,note_on,1,0,2,,,,,,,,1,,,60,55
93120,control_change,1,0,4,,,,,,,,3,64,0,,
93120,note_on,0,0,4,,,,,,,,3,,,32,58
93120,note_on,0,0,4,,,,,,,,3,,,44,58
93359,note_on,239,0,2,,,,,,,,1,,,63,0
93359,note_on,0,0,2,,,,,,,,1,,,60,0
93360,note_on,1,0,2,,,,,,,,1,,,56,55
93360,note_on,0,0,2,,,,,,,,1,,,60,55
93599,note_on,239,0,2,,,,,,,,1,,,60,0
93599,note_on,0,0,2,,,,,,,,1,,,56,0
93599,note_on,0,0,4,,,,,,,,3,,,32,0
93599,note_on,479,0,4,,,,,,,,3,,,44,0
93599,note_on,479,0,1,,,,,,,,0,,,72,0
93600,note_on,0,0,4,,,,,,,,3,,,51,59
93600,note_on,0,0,4,,,,,,,,3,,,48,59
93600,note_on,1,0,2,,,,,,,,1,,,60,57
93600,note_on,1,0,4,,,,,,,,3,,,54,59
93600,note_on,1,0,1,,,,,,,,0,,,68,82
93600,note_on,0,0,2,,,,,,,,1,,,63,57
93816,note_on,0,0,4,,,,,,,,3,,,54,0
93816,note_on,0,0,4,,,,,,,,3,,,51,0
93816,note_on,216,0,4,,,,,,,,3,,,48,0
93839,note_on,239,0,1,,,,,,,,0,,,68,0
93839,note_on,239,0,2,,,,,,,,1,,,63,0
93839,note_on,0,0,2,,,,,,,,1,,,60,0
93840,note_on,1,0,1,,,,,,,,0,,,68,78
93840,note_on,1,0,2,,,,,,,,1,,,56,57
93840,note_on,0,0,2,,,,,,,,1,,,60,57
94056,note_on,0,0,2,,,,,,,,1,,,56,0
94056,note_on,216,0,2,,,,,,,,1,,,60,0
94056,note_on,216,0,1,,,,,,,,0,,,68,0
94080,note_on,0,0,2,,,,,,,,1,,,65,59
94080,note_on,0,0,2,,,,,,,,1,,,61,59
94080,control_change,24,0,2,,,,,,,,1,64,127,,
94080,note_on,24,0,1,,,,,,,,0,,,73,74
94080,note_on,264,0,4,,,,,,,,3,,,37,60
94080,note_on,0,0,4,,,,,,,,3,,,44,60
94080,note_on,0,0,4,,,,,,,,3,,,53,60
94088,set_tempo,26888,1,0,,,,,,424689,,,,,,
94171,set_tempo,83,1,0,,,,,,423251,,,,,,
94200,control_change,120,0,1,,,,,,,,0,64,127,,
94237,set_tempo,66,1,0,,,,,,421822,,,,,,
94296,note_on,0,0,4,,,,,,,,3,,,37,0
94296,note_on,0,0,4,,,,,,,,3,,,44,0
94296,note_on,216,0,4,,,,,,,,3,,,53,0
94319,note_on,0,0,2,,,,,,,,1,,,61,0
94319,note_on,239,0,2,,,,,,,,1,,,65,0
94320,note_on,0,0,2,,,,,,,,1,,,65,59
94320,note_on,1,0,2,,,,,,,,1,,,56,59
94320,set_tempo,83,1,0,,,,,,420404,,,,,,
94386,set_tempo,66,1,0,,,,,,418994,,,,,,
94452,set_tempo,66,1,0,,,,,,417595,,,,,,
94535,set_tempo,83,1,0,,,,,,416204,,,,,,
94559,note_on,239,0,2,,,,,,,,1,,,65,0
94559,note_on,0,0,2,,,,,,,,1,,,56,0
94560,note_on,1,0,2,,,,,,,,1,,,61,61
94560,note_on,0,0,2,,,,,,,,1,,,68,61
94560,note_on,0,0,2,,,,,,,,1,,,65,61
94601,set_tempo,66,1,0,,,,,,414823,,,,,,
94684,set_tempo,83,1,0,,,,,,413451,,,,,,
94750,set_tempo,66,1,0,,,,,,412088,,,,,,
94799,note_on,239,0,2,,,,,,,,1,,,68,0
94799,note_on,0,0,2,,,,,,,,1,,,65,0
94799,note_on,0,0,2,,,,,,,,1,,,61,0
94800,note_on,0,0,2,,,,,,,,1,,,61,62
94800,note_on,1,0,2,,,,,,,,1,,,56,62
94800,note_on,0,0,2,,,,,,,,1,,,65,62
94816,set_tempo,66,1,0,,,,,,410734,,,,,,
94899,set_tempo,83,1,0,,,,,,409389,,,,,,
94965,set_tempo,66,1,0,,,,,,408052,,,,,,
95031,set_tempo,66,1,0,,,,,,406725,,,,,,
95039,note_on,239,0,2,,,,,,,,1,,,65,0
95039,note_on,0,0,2,,,,,,,,1,,,56,0
95039,note_on,0,0,2,,,,,,,,1,,,61,0
95040,note_on,0,0,2,,,,,,,,1,,,56,64
95040,note_on,0,0,2,,,,,,,,1,,,61,64
95040,note_on,0,0,2,,,,,,,,1,,,53,64
95040,control_change,1,0,2,,,,,,,,1,64,0,,
95114,set_tempo,83,1,0,,,,,,405405,,,,,,
95160,control_change,960,0,1,,,,,,,,0,64,0,,
95180,set_tempo,66,1,0,,,,,,404095,,,,,,
95263,set_tempo,83,1,0,,,,,,402793,,,,,,
95279,note_on,239,0,2,,,,,,,,1,,,61,0
95279,note_on,0,0,2,,,,,,,,1,,,53,0
95279,note_on,0,0,2,,,,,,,,1,,,56,0
95280,note_on,1,0,2,,,,,,,,1,,,53,64
95280,note_on,0,0,2,,,,,,,,1,,,56,64
95329,set_tempo,66,1,0,,,,,,401499,,,,,,
95395,set_tempo,66,1,0,,,,,,400213,,,,,,
95478,set_tempo,83,1,0,,,,,,398936,,,,,,
95519,note_on,239,0,2,,,,,,,,1,,,56,0
95519,note_on,0,0,2,,,,,,,,1,,,53,0
95520,note_on,1,0,2,,,,,,,,1,,,49,64
95520,note_on,0,0,2,,,,,,,,1,,,53,64
95544,set_tempo,66,1,0,,,,,,397667,,,,,,
95627,set_tempo,83,1,0,,,,,,396406,,,,,,
95693,set_tempo,66,1,0,,,,,,395153,,,,,,
95736,note_on,216,0,2,,,,,,,,1,,,53,0
95736,note_on,0,0,2,,,,,,,,1,,,49,0
95759,note_on,599,0,1,,,,,,,,0,,,73,0
95760,note_on,1,0,1,,,,,,,,0,,,73,81
95760,set_tempo,67,1,0,,,,,,393908,,,,,,
95760,note_on,0,0,1,,,,,,,,0,,,61,81
95842,set_tempo,82,1,0,,,,,,392670,,,,,,
95909,set_tempo,67,1,0,,,,,,391441,,,,,,
95940,control_change,180,0,1,,,,,,,,0,64,127,,
95975,set_tempo,66,1,0,,,,,,390219,,,,,,
95976,note_on,0,0,1,,,,,,,,0,,,73,0
95976,note_on,36,0,1,,,,,,,,0,,,61,0
96000,note_on,264,0,2,,,,,,,,1,,,65,66
96000,note_on,0,0,4,,,,,,,,3,,,49,66
96000,note_on,0,0,1,,,,,,,,0,,,65,83
96000,note_on,1704,0,4,,,,,,,,3,,,53,66
96000,note_on,0,0,4,,,,,,,,3,,,46,66
96000,note_on,24,0,1,,,,,,,,0,,,77,83
96239,note_on,239,0,2,,,,,,,,1,,,65,0
96240,note_on,0,0,2,,,,,,,,1,,,70,66
96240,note_on,1,0,2,,,,,,,,1,,,61,66
96479,note_on,0,0,4,,,,,,,,3,,,53,0
96479,note_on,479,0,4,,,,,,,,3,,,46,0
96479,note_on,239,0,2,,,,,,,,1,,,70,0
96479,note_on,0,0,4,,,,,,,,3,,,49,0
96479,note_on,0,0,2,,,,,,,,1,,,61,0
96480,note_on,1,0,2,,,,,,,,1,,,65,67
96480,note_on,0,0,4,,,,,,,,3,,,53,67
96480,note_on,1,0,4,,,,,,,,3,,,41,67
96480,note_on,0,0,4,,,,,,,,3,,,45,67
96480,note_on,0,0,4,,,,,,,,3,,,48,67
96719,note_on,0,0,4,,,,,,,,3,,,48,0
96719,note_on,0,0,4,,,,,,,,3,,,41,0
96719,note_on,239,0,4,,,,,,,,3,,,53,0
96719,note_on,0,0,4,,,,,,,,3,,,45,0
96719,note_on,239,0,2,,,,,,,,1,,,65,0
96720,note_on,0,0,2,,,,,,,,1,,,69,68
96720,note_on,1,0,2,,,,,,,,1,,,60,68
96720,note_on,1,0,4,,,,,,,,3,,,41,68
96720,note_on,0,0,4,,,,,,,,3,,,45,68
96720,note_on,0,0,4,,,,,,,,3,,,48,68
96720,note_on,0,0,4,,,,,,,,3,,,53,68
96900,control_change,900,0,1,,,,,,,,0,64,0,,
96959,note_on,239,0,2,,,,,,,,1,,,69,0
96959,note_on,239,0,4,,,,,,,,3,,,53,0
96959,note_on,0,0,4,,,,,,,,3,,,41,0
96959,note_on,0,0,4,,,,,,,,3,,,45,0
96959,note_on,0,0,4,,,,,,,,3,,,48,0
96959,note_on,0,0,2,,,,,,,,1,,,60,0
96960,note_on,1,0,4,,,,,,,,3,,,53,68
96960,note_on,0,0,4,,,,,,,,3,,,46,68
96960,note_on,0,0,4,,,,,,,,3,,,49,68
96960,note_on,1,0,2,,,,,,,,1,,,65,68
97199,note_on,239,0,2,,,,,,,,1,,,65,0
97200,note_on,1,0,2,,,,,,,,1,,,61,69
97200,note_on,0,0,2,,,,,,,,1,,,70,69
97439,note_on,239,0,2,,,,,,,,1,,,70,0
97439,note_on,0,0,2,,,,,,,,1,,,61,0
97439,note_on,0,0,4,,,,,,,,3,,,53,0
97439,note_on,0,0,4,,,,,,,,3,,,49,0
97439,note_on,479,0,4,,,,,,,,3,,,46,0
97440,note_on,1,0,2,,,,,,,,1,,,65,69
97440,note_on,0,0,4,,,,,,,,3,,,56,69
97440,note_on,0,0,4,,,,,,,,3,,,48,69
97440,note_on,1,0,4,,,,,,,,3,,,41,69
97679,note_on,0,0,4,,,,,,,,3,,,41,0
97679,note_on,0,0,4,,,,,,,,3,,,48,0
97679,note_on,239,0,2,,,,,,,,1,,,65,0
97679,note_on,0,0,1,,,,,,,,0,,,77,0
97679,note_on,779,0,1,,,,,,,,0,,,65,0
97679,note_on,239,0,4,,,,,,,,3,,,56,0
97680,note_on,0,0,4,,,,,,,,3,,,56,70
97680,note_on,0,0,4,,,,,,,,3,,,48,70
97680,note_on,1,0,4,,,,,,,,3,,,41,70
97680,note_on,1,0,1,,,,,,,,0,,,77,88
97680,note_on,0,0,2,,,,,,,,1,,,72,70
97680,note_on,1,0,2,,,,,,,,1,,,68,70
97896,note_on,216,0,1,,,,,,,,0,,,77,0
97896,note_on,216,0,4,,,,,,,,3,,,56,0
97896,note_on,0,0,4,,,,,,,,3,,,41,0
97896,note_on,0,0,4,,,,,,,,3,,,48,0
97896,note_on,216,0,2,,,,,,,,1,,,72,0
97896,note_on,0,0,2,,,,,,,,1,,,68,0
97920,note_on,24,0,4,,,,,,,,3,,,58,71
97920,note_on,0,0,4,,,,,,,,3,,,49,71
97920,note_on,0,0,1,,,,,,,,0,,,77,89
97920,control_change,24,0,1,,,,,,,,0,64,127,,
97920,note_on,24,0,2,,,,,,,,1,,,65,71
97920,note_on,0,0,2,,,,,,,,1,,,73,71
97920,note_on,0,0,4,,,,,,,,3,,,46,71
98159,note_on,239,0,2,,,,,,,,1,,,73,0
98159,note_on,0,0,2,,,,,,,,1,,,65,0
98160,note_on,1,0,2,,,,,,,,1,,,70,72
98399,note_on,479,0,4,,,,,,,,3,,,46,0
98399,note_on,0,0,4,,,,,,,,3,,,49,0
98399,note_on,0,0,4,,,,,,,,3,,,58,0
98399,note_on,239,0,2,,,,,,,,1,,,70,0
98399,note_on,479,0,1,,,,,,,,0,,,77,0
98400,note_on,0,0,4,,,,,,,,3,,,57,72
98400,note_on,0,0,4,,,,,,,,3,,,53,72
98400,note_on,1,0,1,,,,,,,,0,,,72,90
98400,note_on,1,0,4,,,,,,,,3,,,60,72
98400,note_on,1,0,2,,,,,,,,1,,,65,72
98639,note_on,239,0,2,,,,,,,,1,,,65,0
98639,note_on,0,0,4,,,,,,,,3,,,57,0
98639,note_on,239,0,1,,,,,,,,0,,,72,0
98639,note_on,0,0,4,,,,,,,,3,,,60,0
98639,note_on,239,0,4,,,,,,,,3,,,53,0
98640,note_on,1,0,4,,,,,,,,3,,,60,72
98640,note_on,0,0,4,,,,,,,,3,,,57,72
98640,note_on,0,0,4,,,,,,,,3,,,53,72
98640,note_on,1,0,1,,,,,,,,0,,,72,91
98640,note_on,1,0,2,,,,,,,,1,,,69,72
98640,note_on,0,0,2,,,,,,,,1,,,77,72
98879,note_on,0,0,2,,,,,,,,1,,,69,0
98879,note_on,239,0,4,,,,,,,,3,,,53,0
98879,note_on,0,0,4,,,,,,,,3,,,60,0
98879,note_on,239,0,2,,,,,,,,1,,,77,0
98879,note_on,0,0,4,,,,,,,,3,,,57,0
98880,note_on,1,0,4,,,,,,,,3,,,61,73
98880,control_change,240,0,1,,,,,,,,0,64,0,,
98880,note_on,0,0,2,,,,,,,,1,,,65,73
98880,note_on,1,0,2,,,,,,,,1,,,73,73
98880,note_on,0,0,4,,,,,,,,3,,,58,73
99119,note_on,0,0,2,,,,,,,,1,,,73,0
99119,note_on,239,0,2,,,,,,,,1,,,65,0
99120,note_on,0,0,2,,,,,,,,1,,,70,74
99120,note_on,1,0,2,,,,,,,,1,,,77,74
99359,note_on,479,0,1,,,,,,,,0,,,72,0
99359,note_on,0,0,2,,,,,,,,1,,,77,0
99359,note_on,239,0,2,,,,,,,,1,,,70,0
99359,note_on,0,0,4,,,,,,,,3,,,61,0
99359,note_on,479,0,4,,,,,,,,3,,,58,0
99360,note_on,1,0,4,,,,,,,,3,,,65,75
99360,note_on,1,0,2,,,,,,,,1,,,69,75
99360,note_on,0,0,4,,,,,,,,3,,,53,75
99360,note_on,0,0,4,,,,,,,,3,,,57,75
99360,note_on,1,0,1,,,,,,,,0,,,77,95
99360,note_on,0,0,4,,,,,,,,3,,,60,75
99599,note_on,239,0,2,,,,,,,,1,,,69,0
99599,note_on,239,0,1,,,,,,,,0,,,77,0
99599,note_on,239,0,4,,,,,,,,3,,,53,0
99599,note_on,0,0,4,,,,,,,,3,,,65,0
99599,note_on,0,0,4,,,,,,,,3,,,60,0
99599,note_on,0,0,4,,,,,,,,3,,,57,0
99600,note_on,1,0,1,,,,,,,,0,,,77,91
99600,note_on,0,0,2,,,,,,,,1,,,72,75
99600,note_on,1,0,2,,,,,,,,1,,,81,75
99600,note_on,1,0,4,,,,,,,,3,,,65,75
99600,note_on,0,0,4,,,,,,,,3,,,60,75
99600,note_on,0,0,4,,,,,,,,3,,,57,75
99600,note_on,0,0,4,,,,,,,,3,,,53,75
99816,note_on,216,0,1,,,,,,,,0,,,77,0
99816,note_on,216,0,4,,,,,,,,3,,,53,0
99816,note_on,0,0,4,,,,,,,,3,,,65,0
99816,note_on,0,0,4,,,,,,,,3,,,60,0
99816,note_on,0,0,4,,,,,,,,3,,,57,0
99816,note_on,216,0,2,,,,,,,,1,,,72,0
99816,note_on,0,0,2,,,,,,,,1,,,81,0
99840,note_on,24,0,2,,,,,,,,1,,,70,76
99840,note_on,0,0,4,,,,,,,,3,,,58,76
99840,note_on,24,0,4,,,,,,,,3,,,65,76
99840,note_on,0,0,4,,,,,,,,3,,,61,76
99840,control_change,24,0,1,,,,,,,,0,64,127,,
99840,note_on,0,0,1,,,,,,,,0,,,77,87
100079,note_on,239,0,2,,,,,,,,1,,,70,0
100080,note_on,1,0,2,,,,,,,,1,,,82,76
100080,note_on,0,0,2,,,,,,,,1,,,73,76
100319,note_on,0,0,4,,,,,,,,3,,,65,0
100319,note_on,239,0,2,,,,,,,,1,,,73,0
100319,note_on,0,0,2,,,,,,,,1,,,82,0
100319,note_on,479,0,4,,,,,,,,3,,,58,0
100319,note_on,0,0,4,,,,,,,,3,,,61,0
100320,note_on,1,0,2,,,,,,,,1,,,77,77
100320,note_on,0,0,2,,,,,,,,1,,,69,77
100320,note_on,0,0,4,,,,,,,,3,,,53,77
100320,note_on,1,0,4,,,,,,,,3,,,65,77
100320,note_on,0,0,4,,,,,,,,3,,,60,77
100320,note_on,0,0,4,,,,,,,,3,,,57,77
100559,note_on,239,0,2,,,,,,,,1,,,69,0
100559,note_on,0,0,2,,,,,,,,1,,,77,0
100559,note_on,239,0,4,,,,,,,,3,,,53,0
100559,note_on,0,0,4,,,,,,,,3,,,65,0
100559,note_on,0,0,4,,,,,,,,3,,,60,0
100559,note_on,0,0,4,,,,,,,,3,,,57,0
100560,note_on,0,0,4,,,,,,,,3,,,60,77
100560,note_on,0,0,4,,,,,,,,3,,,57,77
100560,note_on,0,0,4,,,,,,,,3,,,53,77
100560,note_on,1,0,4,,,,,,,,3,,,65,77
100560,note_on,1,0,2,,,,,,,,1,,,81,77
100560,note_on,0,0,2,,,,,,,,1,,,72,77
100799,note_on,0,0,4,,,,,,,,3,,,65,0
100799,note_on,0,0,2,,,,,,,,1,,,81,0
100799,note_on,0,0,4,,,,,,,,3,,,60,0
100799,note_on,0,0,4,,,,,,,,3,,,57,0
100799,note_on,239,0,2,,,,,,,,1,,,72,0
100799,note_on,239,0,4,,,,,,,,3,,,53,0
100800,note_on,0,0,2,,,,,,,,1,,,70,79
100800,control_change,960,0,1,,,,,,,,0,64,0,,
100800,note_on,1,0,2,,,,,,,,1,,,77,79
100800,note_on,1,0,4,,,,,,,,3,,,65,79
100800,note_on,0,0,4,,,,,,,,3,,,61,79
100800,note_on,0,0,4,,,,,,,,3,,,58,79
101039,note_on,239,0,2,,,,,,,,1,,,70,0
101039,note_on,0,0,2,,,,,,,,1,,,77,0
101040,note_on,1,0,2,,,,,,,,1,,,82,79
101040,note_on,0,0,2,,,,,,,,1,,,73,79
101279,note_on,479,0,4,,,,,,,,3,,,58,0
101279,note_on,0,0,4,,,,,,,,3,,,61,0
101279,note_on,239,0,2,,,,,,,,1,,,73,0
101279,note_on,0,0,2,,,,,,,,1,,,82,0
101279,note_on,0,0,4,,,,,,,,3,,,65,0
101280,note_on,0,0,4,,,,,,,,3,,,51,80
101280,note_on,0,0,4,,,,,,,,3,,,58,80
101280,note_on,1,0,4,,,,,,,,3,,,61,80
101280,note_on,1,0,2,,,,,,,,1,,,79,80
101280,note_on,0,0,2,,,,,,,,1,,,73,80
101519,note_on,239,0,2,,,,,,,,1,,,73,0
101519,note_on,719,0,1,,,,,,,,0,,,77,0
101519,note_on,0,0,4,,,,,,,,3,,,61,0
101519,note_on,0,0,4,,,,,,,,3,,,58,0
101519,note_on,239,0,4,,,,,,,,3,,,51,0
101519,note_on,0,0,2,,,,,,,,1,,,79,0
101520,note_on,0,0,4,,,,,,,,3,,,51,80
101520,note_on,0,0,4,,,,,,,,3,,,58,80
101520,note_on,1,0,4,,,,,,,,3,,,61,80
101520,note_on,0,0,2,,,,,,,,1,,,75,77
101520,note_on,1,0,2,,,,,,,,1,,,84,77
101520,note_on,1,0,1,,,,,,,,0,,,67,101
101680,control_change,160,0,1,,,,,,,,0,64,127,,
101736,note_on,56,0,1,,,,,,,,0,,,67,0
101736,note_on,0,0,4,,,,,,,,3,,,58,0
101736,note_on,0,0,4,,,,,,,,3,,,61,0
101736,note_on,216,0,4,,,,,,,,3,,,51,0
101736,note_on,216,0,2,,,,,,,,1,,,75,0
101736,note_on,0,0,2,,,,,,,,1,,,84,0
101759,set_tempo,5784,1,0,,,,,,391441,,,,,,
101760,control_change,24,0,4,,,,,,,,3,64,127,,
101760,note_on,0,0,4,,,,,,,,3,,,60,51
101760,note_on,0,0,4,,,,,,,,3,,,56,51
101760,control_change,24,0,2,,,,,,,,1,64,127,,
101760,note_on,0,0,2,,,,,,,,1,,,80,73
101760,note_on,24,0,1,,,,,,,,0,,,68,88
101875,set_tempo,116,1,0,,,,,,392670,,,,,,
101974,set_tempo,99,1,0,,,,,,393908,,,,,,
101999,note_on,239,0,2,,,,,,,,1,,,80,0
102000,note_on,0,0,2,,,,,,,,1,,,72,70
102000,note_on,1,0,2,,,,,,,,1,,,75,70
102090,set_tempo,116,1,0,,,,,,395153,,,,,,
102190,set_tempo,100,1,0,,,,,,396406,,,,,,
102239,note_on,0,0,2,,,,,,,,1,,,75,0
102239,note_on,479,0,4,,,,,,,,3,,,56,0
102239,note_on,0,0,4,,,,,,,,3,,,60,0
102239,note_on,239,0,2,,,,,,,,1,,,72,0
102240,note_on,1,0,4,,,,,,,,3,,,60,62
102240,note_on,0,0,4,,,,,,,,3,,,56,62
102240,note_on,1,0,2,,,,,,,,1,,,75,66
102305,set_tempo,115,1,0,,,,,,397667,,,,,,
102405,set_tempo,100,1,0,,,,,,398936,,,,,,
102456,note_on,216,0,4,,,,,,,,3,,,56,0
102456,note_on,0,0,4,,,,,,,,3,,,60,0
102479,note_on,239,0,2,,,,,,,,1,,,75,0
102480,note_on,1,0,2,,,,,,,,1,,,72,63
102480,note_on,0,0,2,,,,,,,,1,,,68,63
102521,set_tempo,116,1,0,,,,,,400213,,,,,,
102620,set_tempo,99,1,0,,,,,,401499,,,,,,
102624,note_on,864,0,1,,,,,,,,0,,,68,0
102640,control_change,16,0,1,,,,,,,,0,64,0,,
102719,set_tempo,99,1,0,,,,,,402793,,,,,,
102719,note_on,239,0,2,,,,,,,,1,,,68,0
102719,note_on,0,0,2,,,,,,,,1,,,72,0
102720,note_on,1,0,2,,,,,,,,1,,,72,59
102720,control_change,264,0,4,,,,,,,,3,64,0,,
102835,set_tempo,116,1,0,,,,,,404095,,,,,,
102934,set_tempo,99,1,0,,,,,,405405,,,,,,
102959,note_on,239,0,2,,,,,,,,1,,,72,0
102960,note_on,1,0,2,,,,,,,,1,,,63,56
102960,note_on,0,0,2,,,,,,,,1,,,68,56
103050,set_tempo,116,1,0,,,,,,406725,,,,,,
103150,set_tempo,100,1,0,,,,,,408052,,,,,,
103199,note_on,239,0,2,,,,,,,,1,,,68,0
103199,note_on,0,0,2,,,,,,,,1,,,63,0
103200,note_on,1,0,2,,,,,,,,1,,,68,52
103265,set_tempo,115,1,0,,,,,,409389,,,,,,
103365,set_tempo,100,1,0,,,,,,410734,,,,,,
103439,note_on,239,0,2,,,,,,,,1,,,68,0
103440,note_on,1,0,2,,,,,,,,1,,,60,49
103440,note_on,0,0,2,,,,,,,,1,,,63,49
103481,set_tempo,116,1,0,,,,,,412088,,,,,,
103580,set_tempo,99,1,0,,,,,,413451,,,,,,
103656,note_on,216,0,2,,,,,,,,1,,,63,0
103656,note_on,0,0,2,,,,,,,,1,,,60,0
103679,set_tempo,99,1,0,,,,,,414823,,,,,,
103680,control_change,960,0,4,,,,,,,,3,64,127,,
103680,note_on,0,0,4,,,,,,,,3,,,44,64
103680,note_on,0,0,1,,,,,,,,0,,,68,64
103680,control_change,1040,0,1,,,,,,,,0,64,127,,
103775,note_on,95,0,1,,,,,,,,0,,,68,0
103840,control_change,184,0,2,,,,,,,,1,64,0,,
103920,note_on,145,0,1,,,,,,,,0,,,60,51
103920,note_on,0,0,1,,,,,,,,0,,,63,51
104015,note_on,95,0,1,,,,,,,,0,,,63,0
104015,note_on,0,0,1,,,,,,,,0,,,60,0
104159,note_on,479,0,4,,,,,,,,3,,,44,0
104160,note_on,145,0,1,,,,,,,,0,,,72,51
104160,note_on,1,0,4,,,,,,,,3,,,60,51
104160,note_on,0,0,4,,,,,,,,3,,,56,51
104160,note_on,0,0,4,,,,,,,,3,,,51,51
104255,note_on,95,0,1,,,,,,,,0,,,72,0
104400,note_on,145,0,1,,,,,,,,0,,,60,51
104400,note_on,0,0,1,,,,,,,,0,,,63,51
104427,control_change,267,0,4,,,,,,,,3,64,0,,
104495,note_on,0,0,1,,,,,,,,0,,,60,0
104495,note_on,95,0,1,,,,,,,,0,,,63,0
104613,control_change,186,0,4,,,,,,,,3,64,127,,
104639,note_on,26,0,4,,,,,,,,3,,,51,0
104639,note_on,0,0,4,,,,,,,,3,,,56,0
104639,note_on,0,0,4,,,,,,,,3,,,60,0
104640,control_change,145,0,1,,,,,,,,0,64,0,,
104640,note_on,0,0,1,,,,,,,,0,,,68,51
104640,note_on,1,0,4,,,,,,,,3,,,44,51
104735,note_on,95,0,1,,,,,,,,0,,,68,0
104880,note_on,145,0,1,,,,,,,,0,,,60,51
104880,note_on,0,0,1,,,,,,,,0,,,63,51
104975,note_on,95,0,1,,,,,,,,0,,,63,0
104975,note_on,0,0,1,,,,,,,,0,,,60,0
105119,note_on,479,0,4,,,,,,,,3,,,44,0
105120,note_on,0,0,4,,,,,,,,3,,,51,51
105120,note_on,1,0,4,,,,,,,,3,,,60,51
105120,note_on,0,0,4,,,,,,,,3,,,56,51
105120,note_on,145,0,1,,,,,,,,0,,,72,51
105215,note_on,95,0,1,,,,,,,,0,,,72,0
105336,note_on,0,0,4,,,,,,,,3,,,56,0
105336,note_on,0,0,4,,,,,,,,3,,,60,0
105336,note_on,216,0,4,,,,,,,,3,,,51,0
105360,note_on,145,0,1,,,,,,,,0,,,60,51
105360,note_on,0,0,1,,,,,,,,0,,,63,51
105446,note_on,86,0,1,,,,,,,,0,,,63,0
105446,note_on,0,0,1,,,,,,,,0,,,60,0
105467,control_change,131,0,4,,,,,,,,3,64,0,,
105600,note_on,154,0,1,,,,,,,,0,,,68,51
105600,note_on,0,0,4,,,,,,,,3,,,44,51
105600,control_change,133,0,4,,,,,,,,3,64,127,,
105695,note_on,95,0,1,,,,,,,,0,,,68,0
105840,note_on,145,0,1,,,,,,,,0,,,60,51
105840,note_on,0,0,1,,,,,,,,0,,,63,51
105935,note_on,95,0,1,,,,,,,,0,,,63,0
105935,note_on,0,0,1,,,,,,,,0,,,60,0
106079,note_on,479,0,4,,,,,,,,3,,,44,0
106080,note_on,1,0,4,,,,,,,,3,,,60,51
106080,note_on,0,0,4,,,,,,,,3,,,56,51
106080,note_on,0,0,4,,,,,,,,3,,,51,51
106080,note_on,145,0,1,,,,,,,,0,,,72,51
106175,note_on,95,0,1,,,,,,,,0,,,72,0
106320,note_on,0,0,1,,,,,,,,0,,,63,51
106320,note_on,145,0,1,,,,,,,,0,,,60,51
106415,note_on,0,0,1,,,,,,,,0,,,60,0
106415,note_on,95,0,1,,,,,,,,0,,,63,0
106560,note_on,0,0,1,,,,,,,,0,,,63,51
106560,note_on,0,0,1,,,,,,,,0,,,70,51
106560,control_change,480,0,4,,,,,,,,3,64,0,,
106560,note_on,145,0,1,,,,,,,,0,,,60,51
106655,note_on,95,0,1,,,,,,,,0,,,70,0
106655,note_on,0,0,1,,,,,,,,0,,,60,0
106655,note_on,0,0,1,,,,,,,,0,,,63,0
106800,note_on,0,0,1,,,,,,,,0,,,68,51
106800,note_on,0,0,1,,,,,,,,0,,,63,51
106800,note_on,145,0,1,,,,,,,,0,,,60,51
106895,note_on,0,0,1,,,,,,,,0,,,60,0
106895,note_on,0,0,1,,,,,,,,0,,,63,0
106895,note_on,95,0,1,,,,,,,,0,,,68,0
107039,note_on,0,0,4,,,,,,,,3,,,56,0
107039,note_on,0,0,4,,,,,,,,3,,,60,0
107039,note_on,479,0,4,,,,,,,,3,,,51,0
107040,note_on,1,0,4,,,,,,,,3,,,44,51
107040,note_on,145,0,1,,,,,,,,0,,,60,51
107040,note_on,0,0,1,,,,,,,,0,,,63,51
107040,note_on,0,0,1,,,,,,,,0,,,67,51
107135,note_on,95,0,1,,,,,,,,0,,,67,0
107135,note_on,0,0,1,,,,,,,,0,,,63,0
107135,note_on,0,0,1,,,,,,,,0,,,60,0
107279,note_on,239,0,4,,,,,,,,3,,,44,0
107280,note_on,1,0,4,,,,,,,,3,,,44,51
107280,note_on,0,0,1,,,,,,,,0,,,68,51
107280,note_on,0,0,1,,,,,,,,0,,,63,51
107280,note_on,145,0,1,,,,,,,,0,,,60,51
107366,note_on,0,0,1,,,,,,,,0,,,60,0
107366,note_on,0,0,1,,,,,,,,0,,,63,0
107366,note_on,86,0,1,,,,,,,,0,,,68,0
107496,note_on,216,0,4,,,,,,,,3,,,44,0
107520,note_on,24,0,4,,,,,,,,3,,,41,51
107520,note_on,154,0,1,,,,,,,,0,,,68,51
107759,note_on,239,0,1,,,,,,,,0,,,68,0
107760,note_on,0,0,1,,,,,,,,0,,,65,51
107760,note_on,1,0,1,,,,,,,,0,,,60,51
107999,note_on,479,0,4,,,,,,,,3,,,41,0
107999,note_on,0,0,1,,,,,,,,0,,,60,0
107999,note_on,239,0,1,,,,,,,,0,,,65,0
108000,note_on,1,0,1,,,,,,,,0,,,72,51
108000,note_on,0,0,4,,,,,,,,3,,,53,51
108000,note_on,0,0,4,,,,,,,,3,,,48,51
108000,note_on,1,0,4,,,,,,,,3,,,56,51
108239,note_on,239,0,1,,,,,,,,0,,,72,0
108240,note_on,1,0,1,,,,,,,,0,,,60,51
108240,note_on,0,0,1,,,,,,,,0,,,65,51
108479,note_on,479,0,4,,,,,,,,3,,,48,0
108479,note_on,0,0,4,,,,,,,,3,,,53,0
108479,note_on,239,0,1,,,,,,,,0,,,65,0
108479,note_on,0,0,1,,,,,,,,0,,,60,0
108479,note_on,0,0,4,,,,,,,,3,,,56,0
108480,note_on,1,0,4,,,,,,,,3,,,41,51
108480,note_on,1,0,1,,,,,,,,0,,,68,51
108719,note_on,239,0,1,,,,,,,,0,,,68,0
108720,note_on,0,0,1,,,,,,,,0,,,65,51
108720,note_on,1,0,1,,,,,,,,0,,,60,51
108959,note_on,239,0,1,,,,,,,,0,,,65,0
108959,note_on,479,0,4,,,,,,,,3,,,41,0
108959,note_on,0,0,1,,,,,,,,0,,,60,0
108960,note_on,0,0,4,,,,,,,,3,,,41,66
108960,note_on,1,0,1,,,,,,,,0,,,68,66
108960,note_on,0,0,1,,,,,,,,0,,,72,66
108960,note_on,0,0,1,,,,,,,,0,,,80,66
108960,note_on,1,0,4,,,,,,,,3,,,29,66
109199,note_on,239,0,1,,,,,,,,0,,,80,0
109199,note_on,0,0,1,,,,,,,,0,,,72,0
109199,note_on,0,0,1,,,,,,,,0,,,68,0
109199,note_on,0,0,4,,,,,,,,3,,,29,0
109199,note_on,239,0,4,,,,,,,,3,,,41,0
109200,note_on,1,0,1,,,,,,,,0,,,68,66
109200,note_on,0,0,1,,,,,,,,0,,,72,66
109200,note_on,0,0,1,,,,,,,,0,,,77,66
109200,note_on,0,0,4,,,,,,,,3,,,44,66
109200,note_on,1,0,4,,,,,,,,3,,,32,66
109416,note_on,216,0,4,,,,,,,,3,,,44,0
109416,note_on,216,0,1,,,,,,,,0,,,77,0
109416,note_on,0,0,1,,,,,,,,0,,,68,0
109416,note_on,0,0,1,,,,,,,,0,,,72,0
109416,note_on,0,0,4,,,,,,,,3,,,32,0
109440,note_on,24,0,4,,,,,,,,3,,,34,64
109440,note_on,24,0,1,,,,,,,,0,,,75,53
109679,note_on,239,0,1,,,,,,,,0,,,75,0
109680,note_on,0,0,1,,,,,,,,0,,,65,53
109680,note_on,1,0,1,,,,,,,,0,,,68,53
109919,note_on,479,0,4,,,,,,,,3,,,34,0
109919,note_on,239,0,1,,,,,,,,0,,,65,0
109919,note_on,0,0,1,,,,,,,,0,,,68,0
109920,note_on,1,0,4,,,,,,,,3,,,46,64
109920,note_on,1,0,1,,,,,,,,0,,,74,53
110159,note_on,239,0,1,,,,,,,,0,,,74,0
110160,note_on,0,0,1,,,,,,,,0,,,65,52
110160,note_on,1,0,1,,,,,,,,0,,,68,52
110399,note_on,239,0,1,,,,,,,,0,,,65,0
110399,note_on,0,0,1,,,,,,,,0,,,68,0
110399,note_on,479,0,4,,,,,,,,3,,,46,0
110400,note_on,1,0,4,,,,,,,,3,,,58,64
110400,note_on,1,0,1,,,,,,,,0,,,72,52
110639,note_on,239,0,1,,,,,,,,0,,,72,0
110640,note_on,1,0,1,,,,,,,,0,,,65,52
110640,note_on,0,0,1,,,,,,,,0,,,68,52
110777,control_change,377,0,4,,,,,,,,3,64,127,,
110879,note_on,102,0,4,,,,,,,,3,,,58,0
110880,note_on,1,0,4,,,,,,,,3,,,58,60
110920,note_on,40,0,4,,,,,,,,3,,,65,62
110960,note_on,40,0,4,,,,,,,,3,,,68,66
111000,note_on,40,0,4,,,,,,,,3,,,74,68
111000,note_on,0,0,4,,,,,,,,3,,,64,68
111108,note_on,108,0,4,,,,,,,,3,,,64,0
111108,note_on,0,0,4,,,,,,,,3,,,68,0
111108,note_on,0,0,4,,,,,,,,3,,,58,0
111108,note_on,0,0,4,,,,,,,,3,,,65,0
111108,note_on,0,0,4,,,,,,,,3,,,74,0
111119,note_on,0,0,1,,,,,,,,0,,,65,0
111119,note_on,479,0,1,,,,,,,,0,,,68,0
111120,note_on,1,0,1,,,,,,,,0,,,82,64
111120,note_on,0,0,1,,,,,,,,0,,,70,64
111206,control_change,98,0,4,,,,,,,,3,64,0,,
111336,note_on,216,0,1,,,,,,,,0,,,70,0
111336,note_on,0,0,1,,,,,,,,0,,,82,0
111360,control_change,24,0,1,,,,,,,,0,64,127,,
111360,note_on,0,0,1,,,,,,,,0,,,75,64
111360,note_on,0,0,1,,,,,,,,0,,,79,64
111360,note_on,0,0,4,,,,,,,,3,,,39,64
111360,note_on,0,0,4,,,,,,,,3,,,46,64
111360,note_on,0,0,4,,,,,,,,3,,,51,64
111360,control_change,154,0,4,,,,,,,,3,64,127,,
111360,note_on,0,0,1,,,,,,,,0,,,87,64
111364,set_tempo,7685,1,0,,,,,,416204,,,,,,
111430,set_tempo,66,1,0,,,,,,417595,,,,,,
111455,note_on,0,0,4,,,,,,,,3,,,46,0
111455,note_on,95,0,4,,,,,,,,3,,,39,0
111455,note_on,0,0,4,,,,,,,,3,,,51,0
111480,set_tempo,50,1,0,,,,,,418994,,,,,,
111530,set_tempo,50,1,0,,,,,,420404,,,,,,
111579,set_tempo,49,1,0,,,,,,421822,,,,,,
111600,note_on,0,0,4,,,,,,,,3,,,63,64
111600,note_on,0,0,4,,,,,,,,3,,,67,64
111600,note_on,145,0,4,,,,,,,,3,,,70,64
111600,control_change,7760,0,2,,,,,,,,1,64,127,,
111629,set_tempo,50,1,0,,,,,,423251,,,,,,
111679,set_tempo,50,1,0,,,,,,424689,,,,,,
111728,set_tempo,49,1,0,,,,,,426136,,,,,,
111791,note_on,0,0,4,,,,,,,,3,,,67,0
111791,note_on,191,0,4,,,,,,,,3,,,63,0
111791,note_on,0,0,4,,,,,,,,3,,,70,0
111795,set_tempo,67,1,0,,,,,,427594,,,,,,
111840,note_on,0,0,2,,,,,,,,1,,,70,64
111840,note_on,240,0,2,,,,,,,,1,,,63,64
111840,note_on,0,0,2,,,,,,,,1,,,67,64
111844,set_tempo,49,1,0,,,,,,429062,,,,,,
111894,set_tempo,50,1,0,,,,,,430540,,,,,,
111944,set_tempo,50,1,0,,,,,,432028,,,,,,
111993,set_tempo,49,1,0,,,,,,433526,,,,,,
112031,note_on,0,0,2,,,,,,,,1,,,63,0
112031,note_on,0,0,2,,,,,,,,1,,,67,0
112031,note_on,191,0,2,,,,,,,,1,,,70,0
112043,set_tempo,50,1,0,,,,,,435035,,,,,,
112080,note_on,0,0,4,,,,,,,,3,,,63,64
112080,note_on,289,0,4,,,,,,,,3,,,67,64
112080,note_on,0,0,4,,,,,,,,3,,,58,64
112092,set_tempo,49,1,0,,,,,,436554,,,,,,
112159,set_tempo,67,1,0,,,,,,438084,,,,,,
112208,set_tempo,49,1,0,,,,,,439625,,,,,,
112258,set_tempo,50,1,0,,,,,,441176,,,,,,
112271,note_on,0,0,4,,,,,,,,3,,,67,0
112271,note_on,191,0,4,,,,,,,,3,,,58,0
112271,note_on,0,0,4,,,,,,,,3,,,63,0
112308,set_tempo,50,1,0,,,,,,442739,,,,,,
112320,control_change,49,0,4,,,,,,,,3,64,0,,
112320,note_on,289,0,2,,,,,,,,1,,,58,64
112320,note_on,0,0,2,,,,,,,,1,,,63,64
112320,note_on,0,0,2,,,,,,,,1,,,67,64
112320,control_change,960,0,1,,,,,,,,0,64,0,,
112357,set_tempo,49,1,0,,,,,,444313,,,,,,
112407,set_tempo,50,1,0,,,,,,445898,,,,,,
112457,set_tempo,50,1,0,,,,,,447494,,,,,,
112506,set_tempo,49,1,0,,,,,,449102,,,,,,
112511,note_on,0,0,2,,,,,,,,1,,,63,0
112511,note_on,191,0,2,,,,,,,,1,,,67,0
112511,note_on,0,0,2,,,,,,,,1,,,58,0
112560,note_on,0,0,4,,,,,,,,3,,,58,64
112560,note_on,0,0,4,,,,,,,,3,,,55,64
112560,note_on,240,0,4,,,,,,,,3,,,63,64
112560,control_change,49,0,2,,,,,,,,1,64,0,,
112572,set_tempo,66,1,0,,,,,,450721,,,,,,
112622,set_tempo,50,1,0,,,,,,452352,,,,,,
112672,set_tempo,50,1,0,,,,,,453995,,,,,,
112721,set_tempo,49,1,0,,,,,,455650,,,,,,
112751,note_on,0,0,4,,,,,,,,3,,,58,0
112751,note_on,0,0,4,,,,,,,,3,,,63,0
112751,note_on,191,0,4,,,,,,,,3,,,55,0
112771,set_tempo,50,1,0,,,,,,457317,,,,,,
112800,note_on,240,0,2,,,,,,,,1,,,55,64
112800,note_on,0,0,2,,,,,,,,1,,,58,64
112800,note_on,0,0,2,,,,,,,,1,,,63,64
112821,set_tempo,50,1,0,,,,,,458996,,,,,,
112870,set_tempo,49,1,0,,,,,,460688,,,,,,
112886,note_on,86,0,2,,,,,,,,1,,,63,0
112886,note_on,0,0,2,,,,,,,,1,,,58,0
112886,note_on,0,0,2,,,,,,,,1,,,55,0
112937,set_tempo,67,1,0,,,,,,462392,,,,,,
112986,set_tempo,49,1,0,,,,,,464109,,,,,,
113036,set_tempo,50,1,0,,,,,,465839,,,,,,
113040,note_on,0,0,4,,,,,,,,3,,,51,64
113040,note_on,289,0,4,,,,,,,,3,,,58,64
113086,set_tempo,50,1,0,,,,,,467581,,,,,,
113126,note_on,0,0,4,,,,,,,,3,,,58,0
113126,note_on,86,0,4,,,,,,,,3,,,51,0
113135,set_tempo,49,1,0,,,,,,469337,,,,,,
113159,note_on,0,0,1,,,,,,,,0,,,87,0
113159,note_on,839,0,1,,,,,,,,0,,,75,0
113159,note_on,0,0,1,,,,,,,,0,,,79,0
113160,note_on,1,0,1,,,,,,,,0,,,79,64
113160,note_on,0,0,1,,,,,,,,0,,,67,64
113185,set_tempo,50,1,0,,,,,,471106,,,,,,
113235,set_tempo,50,1,0,,,,,,472888,,,,,,
113268,note_on,108,0,1,,,,,,,,0,,,67,0
113268,note_on,0,0,1,,,,,,,,0,,,79,0
113280,control_change,12,0,1,,,,,,,,0,64,127,,
113280,note_on,0,0,1,,,,,,,,0,,,67,64
113280,note_on,0,0,1,,,,,,,,0,,,79,64
113284,set_tempo,49,1,0,,,,,,474684,,,,,,
113301,set_tempo,17,1,0,,,,,,476493,,,,,,
113307,control_change,181,0,4,,,,,,,,3,64,127,,
113387,control_change,501,0,2,,,,,,,,1,64,127,,
113417,set_tempo,116,1,0,,,,,,474684,,,,,,
113516,set_tempo,99,1,0,,,,,,472888,,,,,,
113520,note_on,213,0,4,,,,,,,,3,,,39,51
113520,note_on,133,0,2,,,,,,,,1,,,63,64
113615,note_on,95,0,4,,,,,,,,3,,,39,0
113632,set_tempo,116,1,0,,,,,,471106,,,,,,
113731,set_tempo,99,1,0,,,,,,469337,,,,,,
113759,note_on,479,0,1,,,,,,,,0,,,67,0
113759,note_on,0,0,1,,,,,,,,0,,,79,0
113760,note_on,0,0,1,,,,,,,,0,,,65,61
113760,note_on,1,0,1,,,,,,,,0,,,77,61
113760,note_on,145,0,4,,,,,,,,3,,,58,51
113760,note_on,0,0,4,,,,,,,,3,,,55,51
113830,set_tempo,99,1,0,,,,,,467581,,,,,,
113855,note_on,95,0,4,,,,,,,,3,,,55,0
113855,note_on,0,0,4,,,,,,,,3,,,58,0
113903,note_on,383,0,2,,,,,,,,1,,,63,0
113946,set_tempo,116,1,0,,,,,,465839,,,,,,
113999,note_on,0,0,1,,,,,,,,0,,,77,0
113999,note_on,239,0,1,,,,,,,,0,,,65,0
114000,note_on,1,0,1,,,,,,,,0,,,79,65
114000,note_on,0,0,1,,,,,,,,0,,,67,65
114000,note_on,145,0,4,,,,,,,,3,,,51,51
114046,set_tempo,100,1,0,,,,,,464109,,,,,,
114095,note_on,95,0,4,,,,,,,,3,,,51,0
114161,set_tempo,115,1,0,,,,,,462392,,,,,,
114239,note_on,239,0,1,,,,,,,,0,,,67,0
114239,note_on,0,0,1,,,,,,,,0,,,79,0
114240,note_on,0,0,4,,,,,,,,3,,,58,51
114240,control_change,1,0,1,,,,,,,,0,64,0,,
114240,note_on,0,0,1,,,,,,,,0,,,80,70
114240,note_on,0,0,1,,,,,,,,0,,,68,70
114240,note_on,145,0,4,,,,,,,,3,,,61,51
114261,set_tempo,100,1,0,,,,,,460688,,,,,,
114267,control_change,27,0,4,,,,,,,,3,64,0,,
114335,note_on,68,0,4,,,,,,,,3,,,58,0
114335,note_on,0,0,4,,,,,,,,3,,,61,0
114347,control_change,444,0,2,,,,,,,,1,64,0,,
114360,set_tempo,99,1,0,,,,,,458996,,,,,,
114476,set_tempo,116,1,0,,,,,,457317,,,,,,
114480,note_on,133,0,2,,,,,,,,1,,,63,64
114480,note_on,145,0,4,,,,,,,,3,,,39,51
114566,note_on,86,0,2,,,,,,,,1,,,63,0
114575,note_on,95,0,4,,,,,,,,3,,,39,0
114575,set_tempo,99,1,0,,,,,,455650,,,,,,
114691,set_tempo,116,1,0,,,,,,453995,,,,,,
114719,note_on,0,0,1,,,,,,,,0,,,80,0
114719,note_on,479,0,1,,,,,,,,0,,,68,0
114720,note_on,0,0,1,,,,,,,,0,,,70,74
114720,note_on,1,0,1,,,,,,,,0,,,82,74
114720,note_on,145,0,4,,,,,,,,3,,,60,51
114720,note_on,0,0,4,,,,,,,,3,,,56,51
114790,set_tempo,99,1,0,,,,,,452352,,,,,,
114815,note_on,95,0,4,,,,,,,,3,,,56,0
114815,note_on,0,0,4,,,,,,,,3,,,60,0
114890,set_tempo,100,1,0,,,,,,450721,,,,,,
114959,note_on,239,0,1,,,,,,,,0,,,70,0
114959,note_on,0,0,1,,,,,,,,0,,,82,0
114960,note_on,1,0,1,,,,,,,,0,,,84,71
114960,note_on,0,0,1,,,,,,,,0,,,72,71
114960,note_on,145,0,4,,,,,,,,3,,,51,51
115006,set_tempo,116,1,0,,,,,,449102,,,,,,
115046,note_on,86,0,4,,,,,,,,3,,,51,0
115105,set_tempo,99,1,0,,,,,,447494,,,,,,
115176,note_on,0,0,1,,,,,,,,0,,,84,0
115176,note_on,216,0,1,,,,,,,,0,,,72,0
115200,note_on,0,0,4,,,,,,,,3,,,53,51
115200,note_on,0,0,4,,,,,,,,3,,,56,51
115200,note_on,0,0,1,,,,,,,,0,,,70,68
115200,note_on,0,0,1,,,,,,,,0,,,82,68
115200,control_change,24,0,1,,,,,,,,0,64,127,,
115200,note_on,154,0,4,,,,,,,,3,,,63,51
115204,set_tempo,99,1,0,,,,,,445898,,,,,,
115295,note_on,0,0,4,,,,,,,,3,,,63,0
115295,note_on,95,0,4,,,,,,,,3,,,53,0
115295,note_on,0,0,4,,,,,,,,3,,,56,0
115440,note_on,145,0,4,,,,,,,,3,,,39,51
115535,note_on,95,0,4,,,,,,,,3,,,39,0
115587,control_change,1021,0,2,,,,,,,,1,64,127,,
115680,note_on,145,0,4,,,,,,,,3,,,63,51
115680,note_on,0,0,4,,,,,,,,3,,,58,51
115680,note_on,0,0,4,,,,,,,,3,,,55,51
115680,note_on,0,0,2,,,,,,,,1,,,63,51
115680,note_on,0,0,2,,,,,,,,1,,,58,51
115680,note_on,93,0,2,,,,,,,,1,,,55,51
115775,note_on,0,0,4,,,,,,,,3,,,63,0
115775,note_on,0,0,4,,,,,,,,3,,,58,0
115775,note_on,95,0,4,,,,,,,,3,,,55,0
115871,note_on,0,0,2,,,,,,,,1,,,55,0
115871,note_on,0,0,2,,,,,,,,1,,,58,0
115871,note_on,191,0,2,,,,,,,,1,,,63,0
115920,note_on,0,0,4,,,,,,,,3,,,58,51
115920,note_on,0,0,4,,,,,,,,3,,,63,51
115920,note_on,145,0,4,,,,,,,,3,,,67,51
116015,note_on,0,0,4,,,,,,,,3,,,67,0
116015,note_on,0,0,4,,,,,,,,3,,,63,0
116015,note_on,95,0,4,,,,,,,,3,,,58,0
116160,note_on,145,0,4,,,,,,,,3,,,67,51
116160,note_on,0,0,4,,,,,,,,3,,,58,51
116160,note_on,0,0,4,,,,,,,,3,,,63,51
116160,note_on,0,0,2,,,,,,,,1,,,67,51
116160,note_on,289,0,2,,,,,,,,1,,,58,51
116160,note_on,0,0,2,,,,,,,,1,,,63,51
116160,control_change,960,0,1,,,,,,,,0,64,0,,
116255,note_on,0,0,4,,,,,,,,3,,,63,0
116255,note_on,0,0,4,,,,,,,,3,,,67,0
116255,note_on,95,0,4,,,,,,,,3,,,58,0
116351,note_on,0,0,2,,,,,,,,1,,,58,0
116351,note_on,0,0,2,,,,,,,,1,,,63,0
116351,note_on,191,0,2,,,,,,,,1,,,67,0
116400,note_on,145,0,4,,,,,,,,3,,,70,51
116400,note_on,0,0,4,,,,,,,,3,,,63,51
116400,note_on,0,0,4,,,,,,,,3,,,67,51
116495,note_on,0,0,4,,,,,,,,3,,,70,0
116495,note_on,0,0,4,,,,,,,,3,,,67,0
116495,note_on,95,0,4,,,,,,,,3,,,63,0
116547,control_change,196,0,2,,,,,,,,1,64,0,,
116640,note_on,0,0,4,,,,,,,,3,,,67,51
116640,note_on,145,0,4,,,,,,,,3,,,70,51
116640,note_on,0,0,2,,,,,,,,1,,,70,51
116640,note_on,0,0,4,,,,,,,,3,,,63,51
116640,note_on,93,0,2,,,,,,,,1,,,63,51
116640,note_on,0,0,2,,,,,,,,1,,,67,51
116726,note_on,0,0,2,,,,,,,,1,,,67,0
116726,note_on,86,0,2,,,,,,,,1,,,70,0
116726,note_on,0,0,2,,,,,,,,1,,,63,0
116735,note_on,0,0,4,,,,,,,,3,,,70,0
116735,note_on,95,0,4,,,,,,,,3,,,63,0
116735,note_on,0,0,4,,,,,,,,3,,,67,0
116880,note_on,145,0,4,,,,,,,,3,,,46,51
116880,note_on,0,0,4,,,,,,,,3,,,34,51
116966,note_on,86,0,4,,,,,,,,3,,,34,0
116966,note_on,0,0,4,,,,,,,,3,,,46,0
116999,note_on,839,0,1,,,,,,,,0,,,70,0
116999,note_on,0,0,1,,,,,,,,0,,,82,0
117000,note_on,0,0,1,,,,,,,,0,,,67,64
117000,note_on,0,0,1,,,,,,,,0,,,75,64
117000,note_on,1,0,1,,,,,,,,0,,,79,64
117094,set_tempo,1890,1,0,,,,,,445898,,,,,,
117108,note_on,108,0,1,,,,,,,,0,,,67,0
117108,note_on,0,0,1,,,,,,,,0,,,75,0
117108,note_on,0,0,1,,,,,,,,0,,,79,0
117120,note_on,0,0,2,,,,,,,,1,,,70,64
117120,note_on,0,0,2,,,,,,,,1,,,79,64
117120,note_on,0,0,1,,,,,,,,0,,,82,64
117120,control_change,12,0,1,,,,,,,,0,64,127,,
117120,control_change,394,0,2,,,,,,,,1,64,127,,
117120,control_change,154,0,4,,,,,,,,3,64,127,,
117120,note_on,0,0,4,,,,,,,,3,,,34,64
117120,note_on,0,0,4,,,,,,,,3,,,46,64
117193,set_tempo,99,1,0,,,,,,444313,,,,,,
117215,note_on,0,0,2,,,,,,,,1,,,79,0
117215,note_on,95,0,2,,,,,,,,1,,,70,0
117293,set_tempo,100,1,0,,,,,,442739,,,,,,
117311,note_on,191,0,4,,,,,,,,3,,,46,0
117311,note_on,0,0,4,,,,,,,,3,,,34,0
117360,note_on,0,0,2,,,,,,,,1,,,67,64
117360,note_on,145,0,2,,,,,,,,1,,,75,64
117392,set_tempo,99,1,0,,,,,,441176,,,,,,
117491,set_tempo,99,1,0,,,,,,439625,,,,,,
117551,note_on,191,0,2,,,,,,,,1,,,67,0
117551,note_on,0,0,2,,,,,,,,1,,,75,0
117591,set_tempo,100,1,0,,,,,,438084,,,,,,
117600,note_on,0,0,4,,,,,,,,3,,,75,64
117600,note_on,289,0,4,,,,,,,,3,,,79,64
117600,note_on,0,0,4,,,,,,,,3,,,70,64
117690,set_tempo,99,1,0,,,,,,436554,,,,,,
117789,set_tempo,99,1,0,,,,,,435035,,,,,,
117791,note_on,0,0,4,,,,,,,,3,,,75,0
117791,note_on,0,0,4,,,,,,,,3,,,79,0
117791,note_on,191,0,4,,,,,,,,3,,,70,0
117840,note_on,289,0,2,,,,,,,,1,,,75,64
117840,note_on,0,0,2,,,,,,,,1,,,67,64
117840,note_on,0,0,2,,,,,,,,1,,,70,64
117867,control_change,27,0,2,,,,,,,,1,64,0,,
117889,set_tempo,100,1,0,,,,,,433526,,,,,,
117935,note_on,68,0,2,,,,,,,,1,,,67,0
117935,note_on,0,0,2,,,,,,,,1,,,75,0
117935,note_on,0,0,2,,,,,,,,1,,,70,0
117973,control_change,182,0,4,,,,,,,,3,64,0,,
117988,set_tempo,99,1,0,,,,,,432028,,,,,,
118053,control_change,118,0,2,,,,,,,,1,64,127,,
118071,set_tempo,83,1,0,,,,,,430540,,,,,,
118080,note_on,27,0,2,,,,,,,,1,,,77,64
118080,note_on,0,0,2,,,,,,,,1,,,68,64
118080,note_on,107,0,4,,,,,,,,3,,,34,64
118080,note_on,0,0,2,,,,,,,,1,,,72,64
118080,note_on,0,0,4,,,,,,,,3,,,46,64
118080,control_change,960,0,1,,,,,,,,0,64,0,,
118170,set_tempo,99,1,0,,,,,,429062,,,,,,
118175,note_on,95,0,2,,,,,,,,1,,,68,0
118175,note_on,0,0,2,,,,,,,,1,,,72,0
118175,note_on,0,0,2,,,,,,,,1,,,77,0
118187,control_change,107,0,4,,,,,,,,3,64,127,,
118269,set_tempo,99,1,0,,,,,,427594,,,,,,
118271,note_on,0,0,4,,,,,,,,3,,,34,0
118271,note_on,84,0,4,,,,,,,,3,,,46,0
118320,note_on,0,0,2,,,,,,,,1,,,65,64
118320,note_on,145,0,2,,,,,,,,1,,,72,64
118320,note_on,0,0,2,,,,,,,,1,,,68,64
118369,set_tempo,100,1,0,,,,,,426136,,,,,,
118468,set_tempo,99,1,0,,,,,,424689,,,,,,
118511,note_on,191,0,2,,,,,,,,1,,,65,0
118511,note_on,0,0,2,,,,,,,,1,,,68,0
118511,note_on,0,0,2,,,,,,,,1,,,72,0
118560,note_on,0,0,4,,,,,,,,3,,,65,64
118560,note_on,289,0,4,,,,,,,,3,,,74,64
118560,note_on,0,0,4,,,,,,,,3,,,68,64
118567,set_tempo,99,1,0,,,,,,423251,,,,,,
118646,note_on,86,0,4,,,,,,,,3,,,65,0
118646,note_on,0,0,4,,,,,,,,3,,,68,0
118646,note_on,0,0,4,,,,,,,,3,,,74,0
118666,set_tempo,99,1,0,,,,,,421822,,,,,,
118766,set_tempo,100,1,0,,,,,,420404,,,,,,
118800,note_on,0,0,2,,,,,,,,1,,,70,64
118800,note_on,289,0,2,,,,,,,,1,,,65,64
118800,note_on,0,0,2,,,,,,,,1,,,68,64
118848,note_on,768,0,1,,,,,,,,0,,,82,0
118865,set_tempo,99,1,0,,,,,,418994,,,,,,
118886,note_on,86,0,2,,,,,,,,1,,,70,0
118886,note_on,0,0,2,,,,,,,,1,,,68,0
118886,note_on,0,0,2,,,,,,,,1,,,65,0
118964,set_tempo,99,1,0,,,,,,417595,,,,,,
119013,control_change,127,0,2,,,,,,,,1,64,0,,
119040,note_on,27,0,2,,,,,,,,1,,,67,64
119040,note_on,394,0,4,,,,,,,,3,,,51,64
119040,note_on,0,0,2,,,,,,,,1,,,70,64
119040,note_on,0,0,2,,,,,,,,1,,,75,64
119040,note_on,0,0,4,,,,,,,,3,,,39,64
119047,set_tempo,83,1,0,,,,,,416204,,,,,,
119064,set_tempo,17,1,0,,,,,,416204,,,,,,
119135,note_on,0,0,2,,,,,,,,1,,,70,0
119135,note_on,0,0,2,,,,,,,,1,,,67,0
119135,note_on,95,0,2,,,,,,,,1,,,75,0
119147,control_change,107,0,4,,,,,,,,3,64,0,,
119229,set_tempo,165,1,0,,,,,,417595,,,,,,
119231,note_on,84,0,4,,,,,,,,3,,,39,0
119231,note_on,0,0,4,,,,,,,,3,,,51,0
119280,note_on,0,0,2,,,,,,,,1,,,70,64
119280,note_on,0,0,2,,,,,,,,1,,,67,64
119280,note_on,145,0,2,,,,,,,,1,,,63,64
119378,set_tempo,149,1,0,,,,,,418994,,,,,,
119471,note_on,0,0,2,,,,,,,,1,,,67,0
119471,note_on,0,0,2,,,,,,,,1,,,63,0
119471,note_on,191,0,2,,,,,,,,1,,,70,0
119520,note_on,289,0,4,,,,,,,,3,,,70,64
119520,note_on,0,0,4,,,,,,,,3,,,67,64
119520,note_on,0,0,4,,,,,,,,3,,,63,64
119527,set_tempo,149,1,0,,,,,,420404,,,,,,
119676,set_tempo,149,1,0,,,,,,421822,,,,,,
119711,note_on,191,0,4,,,,,,,,3,,,63,0
119711,note_on,0,0,4,,,,,,,,3,,,70,0
119711,note_on,0,0,4,,,,,,,,3,,,67,0
119760,note_on,289,0,2,,,,,,,,1,,,58,64
119760,note_on,0,0,2,,,,,,,,1,,,63,64
119760,note_on,0,0,2,,,,,,,,1,,,67,64
119825,set_tempo,149,1,0,,,,,,423251,,,,,,
119951,note_on,0,0,2,,,,,,,,1,,,58,0
119951,note_on,191,0,2,,,,,,,,1,,,67,0
119951,note_on,0,0,2,,,,,,,,1,,,63,0
119974,set_tempo,149,1,0,,,,,,424689,,,,,,
120000,note_on,0,0,4,,,,,,,,3,,,58,64
120000,note_on,0,0,4,,,,,,,,3,,,63,64
120000,note_on,289,0,4,,,,,,,,3,,,67,64
120123,set_tempo,149,1,0,,,,,,426136,,,,,,
120191,note_on,0,0,4,,,,,,,,3,,,67,0
120191,note_on,0,0,4,,,,,,,,3,,,63,0
120191,note_on,191,0,4,,,,,,,,3,,,58,0
120240,note_on,0,0,2,,,,,,,,1,,,58,64
120240,note_on,0,0,2,,,,,,,,1,,,63,64
120240,note_on,289,0,2,,,,,,,,1,,,55,64
120272,set_tempo,149,1,0,,,,,,427594,,,,,,
120326,note_on,0,0,2,,,,,,,,1,,,58,0
120326,note_on,0,0,2,,,,,,,,1,,,55,0
120326,note_on,86,0,2,,,,,,,,1,,,63,0
120421,set_tempo,149,1,0,,,,,,429062,,,,,,
120480,note_on,0,0,4,,,,,,,,3,,,55,64
120480,note_on,289,0,4,,,,,,,,3,,,63,64
120480,note_on,0,0,4,,,,,,,,3,,,58,64
120570,set_tempo,149,1,0,,,,,,430540,,,,,,
120575,note_on,0,0,4,,,,,,,,3,,,63,0
120575,note_on,0,0,4,,,,,,,,3,,,58,0
120575,note_on,95,0,4,,,,,,,,3,,,55,0
120719,set_tempo,149,1,0,,,,,,432028,,,,,,
120720,note_on,0,0,1,,,,,,,,0,,,75,64
120720,note_on,0,0,4,,,,,,,,3,,,51,64
120720,note_on,145,0,4,,,,,,,,3,,,58,64
120720,note_on,0,0,1,,,,,,,,0,,,67,64
120720,note_on,1872,0,1,,,,,,,,0,,,63,64
120806,note_on,0,0,4,,,,,,,,3,,,58,0
120806,note_on,86,0,4,,,,,,,,3,,,51,0
120936,note_on,216,0,1,,,,,,,,0,,,75,0
120936,note_on,0,0,1,,,,,,,,0,,,67,0
120936,note_on,0,0,1,,,,,,,,0,,,63,0
120960,note_on,0,0,2,,,,,,,,1,,,65,40
120960,control_change,634,0,2,,,,,,,,1,64,127,,
120960,control_change,154,0,4,,,,,,,,3,64,127,,
120960,note_on,0,0,1,,,,,,,,0,,,62,64
120960,note_on,24,0,1,,,,,,,,0,,,74,64
120960,note_on,0,0,4,,,,,,,,3,,,34,40
120987,control_change,27,0,1,,,,,,,,0,64,127,,
121199,note_on,239,0,4,,,,,,,,3,,,34,0
121199,note_on,239,0,2,,,,,,,,1,,,65,0
121200,note_on,0,0,2,,,,,,,,1,,,70,40
121200,note_on,1,0,4,,,,,,,,3,,,62,40
121200,note_on,0,0,4,,,,,,,,3,,,58,40
121200,note_on,0,0,4,,,,,,,,3,,,56,40
121200,note_on,1,0,2,,,,,,,,1,,,65,40
121439,note_on,0,0,1,,,,,,,,0,,,74,0
121439,note_on,452,0,1,,,,,,,,0,,,62,0
121439,note_on,239,0,2,,,,,,,,1,,,70,0
121439,note_on,0,0,4,,,,,,,,3,,,62,0
121439,note_on,239,0,4,,,,,,,,3,,,56,0
121439,note_on,0,0,2,,,,,,,,1,,,65,0
121439,note_on,0,0,4,,,,,,,,3,,,58,0
121440,note_on,0,0,2,,,,,,,,1,,,70,40
121440,note_on,1,0,2,,,,,,,,1,,,68,40
121440,note_on,1,0,4,,,,,,,,3,,,46,40
121440,note_on,1,0,1,,,,,,,,0,,,82,84
121535,note_on,95,0,1,,,,,,,,0,,,82,0
121679,note_on,0,0,2,,,,,,,,1,,,68,0
121679,note_on,239,0,2,,,,,,,,1,,,70,0
121679,note_on,239,0,4,,,,,,,,3,,,46,0
121680,note_on,1,0,2,,,,,,,,1,,,74,40
121680,note_on,145,0,1,,,,,,,,0,,,82,83
121680,note_on,1,0,4,,,,,,,,3,,,65,40
121680,note_on,0,0,4,,,,,,,,3,,,58,40
121680,note_on,0,0,4,,,,,,,,3,,,56,40
121775,note_on,95,0,1,,,,,,,,0,,,82,0
121919,note_on,0,0,4,,,,,,,,3,,,58,0
121919,note_on,0,0,4,,,,,,,,3,,,65,0
121919,note_on,239,0,2,,,,,,,,1,,,74,0
121919,note_on,239,0,4,,,,,,,,3,,,56,0
121920,note_on,0,0,1,,,,,,,,0,,,62,64
121920,note_on,0,0,2,,,,,,,,1,,,65,40
121920,control_change,1,0,2,,,,,,,,1,64,0,,
121920,note_on,145,0,1,,,,,,,,0,,,74,64
121920,control_change,1,0,4,,,,,,,,3,64,0,,
121920,note_on,0,0,4,,,,,,,,3,,,34,40
121947,control_change,27,0,1,,,,,,,,0,64,0,,
122159,note_on,239,0,4,,,,,,,,3,,,34,0
122159,note_on,239,0,2,,,,,,,,1,,,65,0
122160,note_on,0,0,4,,,,,,,,3,,,58,40
122160,note_on,0,0,4,,,,,,,,3,,,56,40
122160,note_on,1,0,4,,,,,,,,3,,,62,40
122160,note_on,1,0,2,,,,,,,,1,,,65,40
122160,note_on,0,0,2,,,,,,,,1,,,70,40
122399,note_on,239,0,4,,,,,,,,3,,,56,0
122399,note_on,0,0,1,,,,,,,,0,,,74,0
122399,note_on,452,0,1,,,,,,,,0,,,62,0
122399,note_on,239,0,2,,,,,,,,1,,,70,0
122399,note_on,0,0,4,,,,,,,,3,,,62,0
122399,note_on,0,0,4,,,,,,,,3,,,58,0
122399,note_on,0,0,2,,,,,,,,1,,,65,0
122400,note_on,1,0,2,,,,,,,,1,,,68,40
122400,note_on,0,0,2,,,,,,,,1,,,70,40
122400,note_on,1,0,4,,,,,,,,3,,,46,40
122400,note_on,1,0,1,,,,,,,,0,,,82,82
122495,note_on,95,0,1,,,,,,,,0,,,82,0
122639,note_on,239,0,2,,,,,,,,1,,,70,0
122639,note_on,0,0,2,,,,,,,,1,,,68,0
122639,note_on,239,0,4,,,,,,,,3,,,46,0
122640,note_on,1,0,2,,,,,,,,1,,,74,40
122640,note_on,0,0,4,,,,,,,,3,,,56,40
122640,note_on,0,0,4,,,,,,,,3,,,58,40
122640,note_on,1,0,4,,,,,,,,3,,,65,40
122640,note_on,145,0,1,,,,,,,,0,,,82,82
122726,note_on,86,0,1,,,,,,,,0,,,82,0
122856,note_on,216,0,2,,,,,,,,1,,,74,0
122856,note_on,216,0,4,,,,,,,,3,,,56,0
122856,note_on,0,0,4,,,,,,,,3,,,58,0
122856,note_on,0,0,4,,,,,,,,3,,,65,0
122880,note_on,0,0,4,,,,,,,,3,,,34,40
122880,note_on,0,0,2,,,,,,,,1,,,63,40
122880,control_change,154,0,1,,,,,,,,0,64,127,,
122880,note_on,0,0,1,,,,,,,,0,,,75,64
122880,control_change,24,0,2,,,,,,,,1,64,127,,
122880,note_on,0,0,2,,,,,,,,1,,,67,40
122880,control_change,24,0,4,,,,,,,,3,64,127,,
123119,note_on,239,0,4,,,,,,,,3,,,34,0
123119,note_on,0,0,2,,,,,,,,1,,,67,0
123119,note_on,239,0,2,,,,,,,,1,,,63,0
123120,note_on,1,0,4,,,,,,,,3,,,63,40
123120,note_on,0,0,4,,,,,,,,3,,,58,40
123120,note_on,1,0,2,,,,,,,,1,,,70,40
123120,note_on,0,0,4,,,,,,,,3,,,55,40
123120,note_on,0,0,2,,,,,,,,1,,,67,40
123359,note_on,479,0,1,,,,,,,,0,,,75,0
123359,note_on,0,0,2,,,,,,,,1,,,70,0
123359,note_on,239,0,4,,,,,,,,3,,,55,0
123359,note_on,0,0,4,,,,,,,,3,,,58,0
123359,note_on,0,0,4,,,,,,,,3,,,63,0
123359,note_on,239,0,2,,,,,,,,1,,,67,0
123360,note_on,1,0,4,,,,,,,,3,,,46,40
123360,note_on,1,0,1,,,,,,,,0,,,87,79
123360,note_on,1,0,2,,,,,,,,1,,,75,40
123455,note_on,95,0,1,,,,,,,,0,,,87,0
123599,note_on,239,0,4,,,,,,,,3,,,46,0
123599,note_on,239,0,2,,,,,,,,1,,,75,0
123600,note_on,0,0,4,,,,,,,,3,,,58,40
123600,note_on,0,0,4,,,,,,,,3,,,63,40
123600,note_on,1,0,2,,,,,,,,1,,,79,40
123600,note_on,1,0,4,,,,,,,,3,,,67,40
123600,note_on,145,0,1,,,,,,,,0,,,87,79
123695,note_on,95,0,1,,,,,,,,0,,,87,0
123839,note_on,239,0,4,,,,,,,,3,,,58,0
123839,note_on,0,0,4,,,,,,,,3,,,67,0
123839,note_on,0,0,4,,,,,,,,3,,,63,0
123839,note_on,239,0,2,,,,,,,,1,,,79,0
123840,note_on,0,0,1,,,,,,,,0,,,82,64
123840,control_change,145,0,1,,,,,,,,0,64,0,,
123840,control_change,1,0,2,,,,,,,,1,64,0,,
123840,note_on,0,0,2,,,,,,,,1,,,75,40
123840,note_on,0,0,2,,,,,,,,1,,,67,40
123840,note_on,0,0,4,,,,,,,,3,,,46,40
123840,control_change,1,0,4,,,,,,,,3,64,0,,
124079,note_on,239,0,4,,,,,,,,3,,,46,0
124079,note_on,239,0,2,,,,,,,,1,,,67,0
124079,note_on,0,0,2,,,,,,,,1,,,75,0
124080,note_on,1,0,2,,,,,,,,1,,,70,40
124080,note_on,1,0,4,,,,,,,,3,,,63,40
124080,note_on,0,0,4,,,,,,,,3,,,55,40
124080,note_on,0,0,4,,,,,,,,3,,,58,40
124319,note_on,239,0,2,,,,,,,,1,,,70,0
124319,note_on,239,0,4,,,,,,,,3,,,55,0
124319,note_on,0,0,4,,,,,,,,3,,,58,0
124319,note_on,0,0,4,,,,,,,,3,,,63,0
124320,note_on,1,0,2,,,,,,,,1,,,79,40
124320,note_on,0,0,2,,,,,,,,1,,,75,40
124320,note_on,1,0,4,,,,,,,,3,,,46,40
124559,note_on,0,0,2,,,,,,,,1,,,79,0
124559,note_on,719,0,1,,,,,,,,0,,,82,0
124559,note_on,239,0,4,,,,,,,,3,,,46,0
124559,note_on,239,0,2,,,,,,,,1,,,75,0
124560,note_on,1,0,4,,,,,,,,3,,,58,40
124560,note_on,0,0,4,,,,,,,,3,,,55,40
124560,note_on,1,0,2,,,,,,,,1,,,70,40
124560,note_on,1,0,1,,,,,,,,0,,,82,64
124776,note_on,216,0,2,,,,,,,,1,,,70,0
124776,note_on,216,0,1,,,,,,,,0,,,82,0
124776,note_on,216,0,4,,,,,,,,3,,,55,0
124776,note_on,0,0,4,,,,,,,,3,,,58,0
124800,control_change,24,0,2,,,,,,,,1,64,127,,
124800,note_on,0,0,2,,,,,,,,1,,,77,40
124800,note_on,0,0,1,,,,,,,,0,,,84,64
124800,note_on,0,0,2,,,,,,,,1,,,68,40
124800,control_change,24,0,1,,,,,,,,0,64,127,,
124800,control_change,24,0,4,,,,,,,,3,64,127,,
124800,note_on,0,0,4,,,,,,,,3,,,46,40
125039,note_on,239,0,4,,,,,,,,3,,,46,0
125039,note_on,0,0,2,,,,,,,,1,,,77,0
125039,note_on,239,0,2,,,,,,,,1,,,68,0
125040,note_on,1,0,4,,,,,,,,3,,,60,40
125040,note_on,0,0,4,,,,,,,,3,,,56,40
125040,note_on,1,0,2,,,,,,,,1,,,72,40
125279,note_on,479,0,1,,,,,,,,0,,,84,0
125279,note_on,239,0,4,,,,,,,,3,,,56,0
125279,note_on,0,0,4,,,,,,,,3,,,60,0
125279,note_on,239,0,2,,,,,,,,1,,,72,0
125280,note_on,0,0,2,,,,,,,,1,,,77,40
125280,note_on,1,0,2,,,,,,,,1,,,80,40
125280,note_on,1,0,1,,,,,,,,0,,,89,79
125280,note_on,1,0,4,,,,,,,,3,,,46,40
125519,note_on,239,0,2,,,,,,,,1,,,77,0
125519,note_on,239,0,4,,,,,,,,3,,,46,0
125519,note_on,239,0,1,,,,,,,,0,,,89,0
125519,note_on,0,0,2,,,,,,,,1,,,80,0
125520,note_on,1,0,2,,,,,,,,1,,,80,40
125520,note_on,0,0,4,,,,,,,,3,,,56,40
125520,note_on,1,0,4,,,,,,,,3,,,65,40
125520,note_on,0,0,4,,,,,,,,3,,,60,40
125520,note_on,1,0,1,,,,,,,,0,,,84,79
125540,control_change,20,0,2,,,,,,,,1,64,0,,
125580,control_change,60,0,1,,,,,,,,0,64,0,,
125600,control_change,80,0,4,,,,,,,,3,64,0,,
125660,control_change,120,0,2,,,,,,,,1,64,127,,
125759,note_on,179,0,1,,,,,,,,0,,,84,0
125759,note_on,159,0,4,,,,,,,,3,,,56,0
125759,note_on,0,0,4,,,,,,,,3,,,65,0
125759,note_on,0,0,4,,,,,,,,3,,,60,0
125759,note_on,99,0,2,,,,,,,,1,,,80,0
125760,note_on,1,0,2,,,,,,,,1,,,75,40
125760,note_on,0,0,1,,,,,,,,0,,,82,64
125760,control_change,1,0,1,,,,,,,,0,64,127,,
125760,note_on,0,0,2,,,,,,,,1,,,67,40
125760,note_on,1,0,4,,,,,,,,3,,,46,40
125800,control_change,40,0,4,,,,,,,,3,64,127,,
125999,note_on,199,0,4,,,,,,,,3,,,46,0
125999,note_on,0,0,2,,,,,,,,1,,,75,0
125999,note_on,239,0,2,,,,,,,,1,,,67,0
126000,note_on,0,0,4,,,,,,,,3,,,55,40
126000,note_on,1,0,2,,,,,,,,1,,,70,40
126000,note_on,1,0,4,,,,,,,,3,,,58,40
126239,note_on,0,0,4,,,,,,,,3,,,58,0
126239,note_on,239,0,4,,,,,,,,3,,,55,0
126239,note_on,239,0,2,,,,,,,,1,,,70,0
126239,note_on,479,0,1,,,,,,,,0,,,82,0
126240,note_on,1,0,4,,,,,,,,3,,,46,40
126240,note_on,0,0,2,,,,,,,,1,,,75,40
126240,note_on,1,0,2,,,,,,,,1,,,79,40
126240,note_on,1,0,1,,,,,,,,0,,,87,79
126479,note_on,239,0,4,,,,,,,,3,,,46,0
126479,note_on,0,0,2,,,,,,,,1,,,79,0
126479,note_on,239,0,2,,,,,,,,1,,,75,0
126479,note_on,239,0,1,,,,,,,,0,,,87,0
126480,note_on,0,0,4,,,,,,,,3,,,55,40
126480,note_on,1,0,2,,,,,,,,1,,,79,40
126480,note_on,0,0,4,,,,,,,,3,,,58,40
126480,note_on,1,0,1,,,,,,,,0,,,82,80
126480,note_on,1,0,4,,,,,,,,3,,,63,40
126620,control_change,140,0,2,,,,,,,,1,64,0,,
126640,control_change,160,0,1,,,,,,,,0,64,0,,
126696,note_on,0,0,4,,,,,,,,3,,,63,0
126696,note_on,56,0,1,,,,,,,,0,,,82,0
126696,note_on,0,0,4,,,,,,,,3,,,58,0
126696,note_on,216,0,4,,,,,,,,3,,,55,0
126696,note_on,76,0,2,,,,,,,,1,,,79,0
126720,control_change,24,0,1,,,,,,,,0,64,127,,
126720,note_on,0,0,1,,,,,,,,0,,,80,64
126720,control_change,24,0,2,,,,,,,,1,64,127,,
126720,note_on,0,0,2,,,,,,,,1,,,65,40
126720,note_on,24,0,4,,,,,,,,3,,,34,40
126720,note_on,0,0,2,,,,,,,,1,,,74,40
126760,control_change,40,0,4,,,,,,,,3,64,0,,
126827,control_change,67,0,4,,,,,,,,3,64,127,,
126959,note_on,132,0,4,,,,,,,,3,,,34,0
126959,note_on,239,0,2,,,,,,,,1,,,65,0
126959,note_on,0,0,2,,,,,,,,1,,,74,0
126960,note_on,1,0,2,,,,,,,,1,,,68,40
126960,note_on,0,0,4,,,,,,,,3,,,62,40
126960,note_on,0,0,4,,,,,,,,3,,,58,40
126960,note_on,1,0,4,,,,,,,,3,,,53,40
127199,note_on,239,0,2,,,,,,,,1,,,68,0
127199,note_on,0,0,4,,,,,,,,3,,,53,0
127199,note_on,0,0,4,,,,,,,,3,,,58,0
127199,note_on,239,0,4,,,,,,,,3,,,62,0
127199,note_on,479,0,1,,,,,,,,0,,,80,0
127200,note_on,1,0,2,,,,,,,,1,,,77,40
127200,note_on,0,0,2,,,,,,,,1,,,74,40
127200,note_on,1,0,4,,,,,,,,3,,,46,40
127200,note_on,1,0,1,,,,,,,,0,,,84,78
127439,note_on,239,0,1,,,,,,,,0,,,84,0
127439,note_on,239,0,4,,,,,,,,3,,,46,0
127439,note_on,239,0,2,,,,,,,,1,,,74,0
127439,note_on,0,0,2,,,,,,,,1,,,77,0
127440,note_on,0,0,2,,,,,,,,1,,,74,40
127440,note_on,0,0,4,,,,,,,,3,,,58,40
127440,note_on,1,0,4,,,,,,,,3,,,56,40
127440,note_on,1,0,1,,,,,,,,0,,,82,79
127440,note_on,1,0,2,,,,,,,,1,,,77,40
127679,note_on,239,0,4,,,,,,,,3,,,58,0
127679,note_on,239,0,1,,,,,,,,0,,,82,0
127679,note_on,0,0,4,,,,,,,,3,,,56,0
127679,note_on,0,0,2,,,,,,,,1,,,77,0
127679,note_on,239,0,2,,,,,,,,1,,,74,0
127680,note_on,1,0,4,,,,,,,,3,,,39,40
127680,control_change,1,0,1,,,,,,,,0,64,0,,
127680,control_change,1,0,2,,,,,,,,1,64,0,,
127680,note_on,0,0,2,,,,,,,,1,,,67,40
127680,note_on,0,0,2,,,,,,,,1,,,75,40
127680,note_on,0,0,1,,,,,,,,0,,,79,64
127787,control_change,107,0,4,,,,,,,,3,64,0,,
127919,note_on,132,0,4,,,,,,,,3,,,39,0
127919,note_on,239,0,2,,,,,,,,1,,,75,0
127919,note_on,0,0,2,,,,,,,,1,,,67,0
127920,note_on,0,0,2,,,,,,,,1,,,70,40
127920,note_on,0,0,4,,,,,,,,3,,,58,40
127920,note_on,1,0,2,,,,,,,,1,,,67,40
127920,note_on,1,0,4,,,,,,,,3,,,55,40
128159,note_on,239,0,4,,,,,,,,3,,,58,0
128159,note_on,0,0,2,,,,,,,,1,,,67,0
128159,note_on,239,0,2,,,,,,,,1,,,70,0
128159,note_on,0,0,4,,,,,,,,3,,,55,0
128160,note_on,1,0,4,,,,,,,,3,,,46,40
128160,note_on,0,0,2,,,,,,,,1,,,67,40
128160,note_on,1,0,2,,,,,,,,1,,,63,40
128399,note_on,239,0,4,,,,,,,,3,,,46,0
128399,note_on,239,0,2,,,,,,,,1,,,67,0
128399,note_on,0,0,2,,,,,,,,1,,,63,0
128399,note_on,719,0,1,,,,,,,,0,,,79,0
128400,note_on,1,0,1,,,,,,,,0,,,75,74
128400,note_on,1,0,4,,,,,,,,3,,,55,40
128400,note_on,0,0,4,,,,,,,,3,,,58,40
128400,note_on,0,0,2,,,,,,,,1,,,67,40
128400,note_on,1,0,2,,,,,,,,1,,,63,40
128608,set_tempo,7889,1,0,,,,,,436554,,,,,,
128616,note_on,216,0,4,,,,,,,,3,,,58,0
128616,note_on,0,0,4,,,,,,,,3,,,55,0
128616,note_on,216,0,1,,,,,,,,0,,,75,0
128616,note_on,0,0,2,,,,,,,,1,,,63,0
128616,note_on,216,0,2,,,,,,,,1,,,67,0
128640,note_on,0,0,2,,,,,,,,1,,,62,40
128640,control_change,24,0,2,,,,,,,,1,64,127,,
128640,note_on,0,0,2,,,,,,,,1,,,65,40
128640,note_on,0,0,1,,,,,,,,0,,,74,74
128640,note_on,24,0,4,,,,,,,,3,,,34,40
128640,control_change,24,0,1,,,,,,,,0,64,127,,
128667,control_change,27,0,4,,,,,,,,3,64,127,,
128757,set_tempo,149,1,0,,,,,,435035,,,,,,
128879,note_on,212,0,4,,,,,,,,3,,,34,0
128879,note_on,0,0,2,,,,,,,,1,,,62,0
128879,note_on,239,0,2,,,,,,,,1,,,65,0
128880,note_on,0,0,4,,,,,,,,3,,,62,40
128880,note_on,1,0,4,,,,,,,,3,,,56,40
128880,note_on,0,0,4,,,,,,,,3,,,58,40
128880,note_on,0,0,2,,,,,,,,1,,,70,40
128880,note_on,1,0,2,,,,,,,,1,,,65,40
128890,set_tempo,133,1,0,,,,,,433526,,,,,,
129039,set_tempo,149,1,0,,,,,,432028,,,,,,
129119,note_on,239,0,2,,,,,,,,1,,,70,0
129119,note_on,0,0,4,,,,,,,,3,,,56,0
129119,note_on,239,0,4,,,,,,,,3,,,62,0
129119,note_on,0,0,2,,,,,,,,1,,,65,0
129119,note_on,0,0,4,,,,,,,,3,,,58,0
129119,note_on,479,0,1,,,,,,,,0,,,74,0
129120,note_on,1,0,1,,,,,,,,0,,,82,76
129120,note_on,1,0,4,,,,,,,,3,,,46,41
129120,note_on,0,0,2,,,,,,,,1,,,70,41
129120,note_on,1,0,2,,,,,,,,1,,,68,41
129171,set_tempo,132,1,0,,,,,,430540,,,,,,
129215,note_on,95,0,1,,,,,,,,0,,,82,0
129304,set_tempo,133,1,0,,,,,,429062,,,,,,
129359,note_on,239,0,4,,,,,,,,3,,,46,0
129359,note_on,0,0,2,,,,,,,,1,,,68,0
129359,note_on,239,0,2,,,,,,,,1,,,70,0
129360,note_on,145,0,1,,,,,,,,0,,,82,76
129360,note_on,1,0,2,,,,,,,,1,,,74,41
129360,note_on,1,0,4,,,,,,,,3,,,56,41
129360,note_on,0,0,4,,,,,,,,3,,,58,41
129360,note_on,0,0,4,,,,,,,,3,,,62,41
129453,set_tempo,149,1,0,,,,,,427594,,,,,,
129455,note_on,95,0,1,,,,,,,,0,,,82,0
129585,set_tempo,132,1,0,,,,,,426136,,,,,,
129599,note_on,0,0,4,,,,,,,,3,,,56,0
129599,note_on,239,0,2,,,,,,,,1,,,74,0
129599,note_on,239,0,4,,,,,,,,3,,,62,0
129599,note_on,0,0,4,,,,,,,,3,,,58,0
129600,note_on,0,0,1,,,,,,,,0,,,74,66
129600,note_on,1,0,4,,,,,,,,3,,,34,41
129600,control_change,145,0,1,,,,,,,,0,64,0,,
129600,note_on,0,0,2,,,,,,,,1,,,65,41
129600,note_on,0,0,2,,,,,,,,1,,,62,41
129600,control_change,1,0,2,,,,,,,,1,64,0,,
129627,control_change,27,0,4,,,,,,,,3,64,0,,
129717,set_tempo,132,1,0,,,,,,424689,,,,,,
129839,note_on,212,0,4,,,,,,,,3,,,34,0
129839,note_on,0,0,2,,,,,,,,1,,,62,0
129839,note_on,239,0,2,,,,,,,,1,,,65,0
129840,note_on,0,0,4,,,,,,,,3,,,58,42
129840,note_on,0,0,4,,,,,,,,3,,,62,42
129840,note_on,0,0,2,,,,,,,,1,,,70,42
129840,note_on,1,0,2,,,,,,,,1,,,65,42
129840,note_on,1,0,4,,,,,,,,3,,,56,42
129866,set_tempo,149,1,0,,,,,,423251,,,,,,
129999,set_tempo,133,1,0,,,,,,421822,,,,,,
130079,note_on,479,0,1,,,,,,,,0,,,74,0
130079,note_on,0,0,2,,,,,,,,1,,,65,0
130079,note_on,239,0,2,,,,,,,,1,,,70,0
130079,note_on,239,0,4,,,,,,,,3,,,62,0
130079,note_on,0,0,4,,,,,,,,3,,,58,0
130079,note_on,0,0,4,,,,,,,,3,,,56,0
130080,note_on,0,0,2,,,,,,,,1,,,70,43
130080,note_on,1,0,2,,,,,,,,1,,,68,43
130080,note_on,1,0,4,,,,,,,,3,,,46,43
130080,note_on,1,0,1,,,,,,,,0,,,82,79
130131,set_tempo,132,1,0,,,,,,420404,,,,,,
130175,note_on,95,0,1,,,,,,,,0,,,82,0
130280,set_tempo,149,1,0,,,,,,418994,,,,,,
130319,note_on,0,0,2,,,,,,,,1,,,68,0
130319,note_on,239,0,4,,,,,,,,3,,,46,0
130319,note_on,239,0,2,,,,,,,,1,,,70,0
130320,note_on,145,0,1,,,,,,,,0,,,82,79
130320,note_on,0,0,4,,,,,,,,3,,,58,44
130320,note_on,1,0,4,,,,,,,,3,,,56,44
130320,note_on,0,0,4,,,,,,,,3,,,62,44
130320,note_on,1,0,2,,,,,,,,1,,,74,44
130406,note_on,86,0,1,,,,,,,,0,,,82,0
130413,set_tempo,133,1,0,,,,,,417595,,,,,,
130536,note_on,0,0,4,,,,,,,,3,,,58,0
130536,note_on,216,0,4,,,,,,,,3,,,62,0
130536,note_on,216,0,2,,,,,,,,1,,,74,0
130536,note_on,0,0,4,,,,,,,,3,,,56,0
130545,set_tempo,132,1,0,,,,,,416204,,,,,,
130560,note_on,0,0,2,,,,,,,,1,,,67,44
130560,control_change,24,0,2,,,,,,,,1,64,127,,
130560,note_on,0,0,1,,,,,,,,0,,,75,69
130560,control_change,154,0,1,,,,,,,,0,64,127,,
130560,control_change,24,0,4,,,,,,,,3,64,127,,
130560,note_on,0,0,4,,,,,,,,3,,,39,44
130560,note_on,0,0,2,,,,,,,,1,,,63,44
130799,note_on,239,0,4,,,,,,,,3,,,39,0
130799,note_on,0,0,2,,,,,,,,1,,,67,0
130799,note_on,239,0,2,,,,,,,,1,,,63,0
130800,note_on,1,0,2,,,,,,,,1,,,70,44
130800,note_on,0,0,2,,,,,,,,1,,,67,44
130800,note_on,0,0,4,,,,,,,,3,,,55,44
130800,note_on,1,0,4,,,,,,,,3,,,63,44
130800,note_on,0,0,4,,,,,,,,3,,,58,44
131039,note_on,239,0,2,,,,,,,,1,,,67,0
131039,note_on,0,0,4,,,,,,,,3,,,58,0
131039,note_on,239,0,4,,,,,,,,3,,,55,0
131039,note_on,0,0,4,,,,,,,,3,,,63,0
131039,note_on,0,0,2,,,,,,,,1,,,70,0
131039,note_on,479,0,1,,,,,,,,0,,,75,0
131040,note_on,1,0,4,,,,,,,,3,,,46,44
131040,note_on,1,0,1,,,,,,,,0,,,91,84
131040,note_on,1,0,2,,,,,,,,1,,,75,44
131135,note_on,95,0,1,,,,,,,,0,,,91,0
131279,note_on,239,0,2,,,,,,,,1,,,75,0
131279,note_on,239,0,4,,,,,,,,3,,,46,0
131280,note_on,1,0,4,,,,,,,,3,,,67,45
131280,note_on,0,0,4,,,,,,,,3,,,63,45
131280,note_on,0,0,4,,,,,,,,3,,,58,45
131280,note_on,1,0,2,,,,,,,,1,,,79,45
131280,note_on,145,0,1,,,,,,,,0,,,91,84
131375,note_on,95,0,1,,,,,,,,0,,,91,0
131519,note_on,0,0,4,,,,,,,,3,,,63,0
131519,note_on,239,0,4,,,,,,,,3,,,58,0
131519,note_on,239,0,2,,,,,,,,1,,,79,0
131519,note_on,0,0,4,,,,,,,,3,,,67,0
131520,note_on,0,0,1,,,,,,,,0,,,82,72
131520,note_on,0,0,4,,,,,,,,3,,,39,45
131520,note_on,0,0,2,,,,,,,,1,,,67,45
131520,note_on,0,0,2,,,,,,,,1,,,75,45
131520,control_change,1,0,2,,,,,,,,1,64,0,,
131520,control_change,145,0,1,,,,,,,,0,64,0,,
131520,control_change,1,0,4,,,,,,,,3,64,0,,
131759,note_on,239,0,4,,,,,,,,3,,,39,0
131759,note_on,0,0,2,,,,,,,,1,,,75,0
131759,note_on,239,0,2,,,,,,,,1,,,67,0
131760,note_on,1,0,2,,,,,,,,1,,,79,47
131760,note_on,0,0,2,,,,,,,,1,,,70,47
131760,note_on,1,0,4,,,,,,,,3,,,58,47
131760,note_on,0,0,4,,,,,,,,3,,,55,47
131999,note_on,239,0,2,,,,,,,,1,,,70,0
131999,note_on,0,0,2,,,,,,,,1,,,79,0
131999,note_on,0,0,4,,,,,,,,3,,,58,0
131999,note_on,239,0,4,,,,,,,,3,,,55,0
132000,note_on,1,0,2,,,,,,,,1,,,82,47
132000,note_on,0,0,2,,,,,,,,1,,,75,47
132000,note_on,1,0,4,,,,,,,,3,,,46,47
132239,note_on,239,0,2,,,,,,,,1,,,75,0
132239,note_on,0,0,2,,,,,,,,1,,,82,0
132239,note_on,719,0,1,,,,,,,,0,,,82,0
132239,note_on,239,0,4,,,,,,,,3,,,46,0
132240,note_on,0,0,4,,,,,,,,3,,,58,48
132240,note_on,0,0,4,,,,,,,,3,,,55,48
132240,note_on,1,0,1,,,,,,,,0,,,87,75
132240,note_on,1,0,2,,,,,,,,1,,,79,47
132240,note_on,1,0,4,,,,,,,,3,,,63,48
132456,note_on,216,0,1,,,,,,,,0,,,87,0
132456,note_on,0,0,4,,,,,,,,3,,,58,0
132456,note_on,0,0,4,,,,,,,,3,,,63,0
132456,note_on,216,0,2,,,,,,,,1,,,79,0
132456,note_on,216,0,4,,,,,,,,3,,,55,0
132480,note_on,0,0,1,,,,,,,,0,,,91,76
132480,control_change,24,0,1,,,,,,,,0,64,127,,
132480,note_on,0,0,2,,,,,,,,1,,,79,49
132480,control_change,24,0,2,,,,,,,,1,64,127,,
132480,note_on,0,0,1,,,,,,,,0,,,79,76
132480,note_on,0,0,4,,,,,,,,3,,,36,48
132480,note_on,0,0,4,,,,,,,,3,,,48,48
132480,control_change,24,0,4,,,,,,,,3,64,127,,
132719,note_on,239,0,4,,,,,,,,3,,,36,0
132719,note_on,239,0,2,,,,,,,,1,,,79,0
132719,note_on,0,0,4,,,,,,,,3,,,48,0
132720,note_on,0,0,4,,,,,,,,3,,,63,48
132720,note_on,0,0,2,,,,,,,,1,,,72,50
132720,note_on,1,0,4,,,,,,,,3,,,67,48
132720,note_on,1,0,2,,,,,,,,1,,,75,50
132959,note_on,239,0,2,,,,,,,,1,,,72,0
132959,note_on,0,0,1,,,,,,,,0,,,91,0
132959,note_on,0,0,4,,,,,,,,3,,,67,0
132959,note_on,239,0,4,,,,,,,,3,,,63,0
132959,note_on,479,0,1,,,,,,,,0,,,79,0
132959,note_on,0,0,2,,,,,,,,1,,,75,0
132960,note_on,1,0,1,,,,,,,,0,,,87,78
132960,note_on,0,0,1,,,,,,,,0,,,75,78
132960,note_on,0,0,4,,,,,,,,3,,,39,49
132960,note_on,1,0,4,,,,,,,,3,,,51,49
132960,note_on,1,0,2,,,,,,,,1,,,75,52
133199,note_on,0,0,4,,,,,,,,3,,,51,0
133199,note_on,239,0,4,,,,,,,,3,,,39,0
133199,note_on,239,0,2,,,,,,,,1,,,75,0
133200,note_on,1,0,2,,,,,,,,1,,,72,53
133200,note_on,1,0,4,,,,,,,,3,,,63,49
133200,note_on,0,0,4,,,,,,,,3,,,60,49
133200,note_on,0,0,2,,,,,,,,1,,,67,53
133320,control_change,360,0,1,,,,,,,,0,64,0,,
133340,control_change,140,0,4,,,,,,,,3,64,0,,
133360,control_change,160,0,2,,,,,,,,1,64,0,,
133420,control_change,80,0,4,,,,,,,,3,64,127,,
133420,control_change,100,0,1,,,,,,,,0,64,127,,
133439,note_on,0,0,2,,,,,,,,1,,,72,0
133439,note_on,19,0,4,,,,,,,,3,,,60,0
133439,note_on,0,0,4,,,,,,,,3,,,63,0
133439,note_on,19,0,1,,,,,,,,0,,,75,0
133439,note_on,0,0,1,,,,,,,,0,,,87,0
133439,note_on,79,0,2,,,,,,,,1,,,67,0
133440,note_on,1,0,1,,,,,,,,0,,,86,79
133440,note_on,1,0,2,,,,,,,,1,,,74,55
133440,note_on,0,0,1,,,,,,,,0,,,74,79
133440,note_on,1,0,4,,,,,,,,3,,,55,50
133440,note_on,0,0,4,,,,,,,,3,,,43,50
133480,control_change,40,0,2,,,,,,,,1,64,127,,
133679,note_on,239,0,4,,,,,,,,3,,,43,0
133679,note_on,0,0,4,,,,,,,,3,,,55,0
133679,note_on,199,0,2,,,,,,,,1,,,74,0
133680,note_on,1,0,2,,,,,,,,1,,,65,57
133680,note_on,0,0,2,,,,,,,,1,,,68,57
133680,note_on,0,0,4,,,,,,,,3,,,59,51
133680,note_on,1,0,4,,,,,,,,3,,,62,51
133919,note_on,239,0,4,,,,,,,,3,,,59,0
133919,note_on,0,0,2,,,,,,,,1,,,65,0
133919,note_on,0,0,1,,,,,,,,0,,,86,0
133919,note_on,239,0,2,,,,,,,,1,,,68,0
133919,note_on,479,0,1,,,,,,,,0,,,74,0
133919,note_on,0,0,4,,,,,,,,3,,,62,0
133920,note_on,1,0,2,,,,,,,,1,,,71,58
133920,note_on,0,0,1,,,,,,,,0,,,71,81
133920,note_on,1,0,1,,,,,,,,0,,,83,81
133920,note_on,0,0,4,,,,,,,,3,,,43,51
133920,note_on,1,0,4,,,,,,,,3,,,55,51
134159,note_on,239,0,2,,,,,,,,1,,,71,0
134159,note_on,239,0,4,,,,,,,,3,,,43,0
134159,note_on,0,0,4,,,,,,,,3,,,55,0
134160,note_on,1,0,4,,,,,,,,3,,,59,51
134160,note_on,0,0,4,,,,,,,,3,,,50,51
134160,note_on,0,0,2,,,,,,,,1,,,67,60
134160,note_on,1,0,2,,,,,,,,1,,,65,60
134352,note_on,432,0,1,,,,,,,,0,,,71,0
134352,note_on,0,0,1,,,,,,,,0,,,83,0
134376,note_on,0,0,4,,,,,,,,3,,,59,0
134376,note_on,216,0,2,,,,,,,,1,,,67,0
134376,note_on,216,0,4,,,,,,,,3,,,50,0
134376,note_on,0,0,2,,,,,,,,1,,,65,0
134380,control_change,28,0,1,,,,,,,,0,64,0,,
134380,control_change,4,0,4,,,,,,,,3,64,0,,
134400,note_on,20,0,1,,,,,,,,0,,,87,64
134400,note_on,20,0,4,,,,,,,,3,,,48,49
134400,note_on,0,0,1,,,,,,,,0,,,75,64
134400,note_on,24,0,2,,,,,,,,1,,,75,61
134400,note_on,0,0,4,,,,,,,,3,,,36,49
134440,control_change,40,0,2,,,,,,,,1,64,0,,
134507,control_change,107,0,4,,,,,,,,3,64,127,,
134560,control_change,120,0,2,,,,,,,,1,64,127,,
134587,control_change,187,0,1,,,,,,,,0,64,127,,
134639,note_on,79,0,2,,,,,,,,1,,,75,0
134639,note_on,0,0,4,,,,,,,,3,,,48,0
134639,note_on,132,0,4,,,,,,,,3,,,36,0
134640,note_on,1,0,2,,,,,,,,1,,,63,63
134640,note_on,0,0,2,,,,,,,,1,,,67,63
134640,note_on,0,0,4,,,,,,,,3,,,48,52
134640,note_on,1,0,4,,,,,,,,3,,,60,52
134735,note_on,0,0,4,,,,,,,,3,,,60,0
134735,note_on,95,0,4,,,,,,,,3,,,48,0
134856,note_on,0,0,2,,,,,,,,1,,,63,0
134856,note_on,216,0,2,,,,,,,,1,,,67,0
134879,note_on,0,0,1,,,,,,,,0,,,87,0
134879,note_on,292,0,1,,,,,,,,0,,,75,0
134880,note_on,0,0,1,,,,,,,,0,,,72,83
134880,note_on,1,0,1,,,,,,,,0,,,84,83
134880,note_on,0,0,1,,,,,,,,0,,,75,83
134880,note_on,145,0,4,,,,,,,,3,,,67,52
134880,note_on,0,0,4,,,,,,,,3,,,63,52
134880,note_on,0,0,4,,,,,,,,3,,,60,52
134975,note_on,95,0,4,,,,,,,,3,,,60,0
134975,note_on,0,0,4,,,,,,,,3,,,63,0
134975,note_on,0,0,4,,,,,,,,3,,,67,0
135119,note_on,239,0,1,,,,,,,,0,,,72,0
135119,note_on,0,0,1,,,,,,,,0,,,75,0
135119,note_on,0,0,1,,,,,,,,0,,,84,0
135120,note_on,0,0,4,,,,,,,,3,,,60,52
135120,note_on,145,0,4,,,,,,,,3,,,63,52
135120,note_on,0,0,4,,,,,,,,3,,,55,52
135120,note_on,0,0,1,,,,,,,,0,,,72,83
135120,note_on,0,0,1,,,,,,,,0,,,75,83
135120,note_on,1,0,1,,,,,,,,0,,,84,83
135215,note_on,0,0,4,,,,,,,,3,,,63,0
135215,note_on,0,0,4,,,,,,,,3,,,60,0
135215,note_on,95,0,4,,,,,,,,3,,,55,0
135359,note_on,0,0,1,,,,,,,,0,,,84,0
135359,note_on,239,0,1,,,,,,,,0,,,72,0
135359,note_on,0,0,1,,,,,,,,0,,,75,0
135360,note_on,0,0,4,,,,,,,,3,,,51,66
135360,note_on,0,0,4,,,,,,,,3,,,55,66
135360,note_on,0,0,1,,,,,,,,0,,,75,77
135360,note_on,0,0,1,,,,,,,,0,,,67,77
135360,note_on,1,0,1,,,,,,,,0,,,79,77
135360,note_on,145,0,4,,,,,,,,3,,,60,66
135455,note_on,0,0,4,,,,,,,,3,,,60,0
135455,note_on,0,0,4,,,,,,,,3,,,55,0
135455,note_on,95,0,4,,,,,,,,3,,,51,0
135467,control_change,12,0,4,,,,,,,,3,64,0,,
135520,control_change,664,0,2,,,,,,,,1,64,0,,
135547,control_change,187,0,1,,,,,,,,0,64,0,,
135600,note_on,133,0,4,,,,,,,,3,,,55,66
135600,note_on,0,0,4,,,,,,,,3,,,51,66
135600,note_on,0,0,4,,,,,,,,3,,,48,66
135695,note_on,95,0,4,,,,,,,,3,,,48,0
135695,note_on,0,0,4,,,,,,,,3,,,55,0
135695,note_on,0,0,4,,,,,,,,3,,,51,0
135840,note_on,145,0,4,,,,,,,,3,,,51,66
135840,note_on,0,0,4,,,,,,,,3,,,48,66
135840,note_on,0,0,4,,,,,,,,3,,,43,66
135935,note_on,95,0,4,,,,,,,,3,,,43,0
135935,note_on,0,0,4,,,,,,,,3,,,48,0
135935,note_on,0,0,4,,,,,,,,3,,,51,0
136079,note_on,0,0,1,,,,,,,,0,,,79,0
136079,note_on,0,0,1,,,,,,,,0,,,75,0
136079,note_on,532,0,1,,,,,,,,0,,,67,0
136080,note_on,0,0,1,,,,,,,,0,,,72,83
136080,note_on,1,0,1,,,,,,,,0,,,84,83
136080,note_on,145,0,4,,,,,,,,3,,,48,66
136080,note_on,0,0,4,,,,,,,,3,,,39,66
136080,note_on,0,0,4,,,,,,,,3,,,43,66
136166,note_on,0,0,4,,,,,,,,3,,,48,0
136166,note_on,0,0,4,,,,,,,,3,,,43,0
136166,note_on,86,0,4,,,,,,,,3,,,39,0
136296,note_on,0,0,1,,,,,,,,0,,,84,0
136296,note_on,216,0,1,,,,,,,,0,,,72,0
136320,note_on,0,0,4,,,,,,,,3,,,44,52
136320,note_on,0,0,4,,,,,,,,3,,,32,52
136320,control_change,24,0,1,,,,,,,,0,64,127,,
136320,note_on,0,0,1,,,,,,,,0,,,87,83
136320,note_on,0,0,1,,,,,,,,0,,,75,83
136320,note_on,0,0,2,,,,,,,,1,,,75,52
136320,control_change,800,0,2,,,,,,,,1,64,127,,
136320,control_change,154,0,4,,,,,,,,3,64,127,,
136559,note_on,239,0,2,,,,,,,,1,,,75,0
136559,note_on,0,0,4,,,,,,,,3,,,32,0
136559,note_on,239,0,4,,,,,,,,3,,,44,0
136560,note_on,0,0,2,,,,,,,,1,,,68,63
136560,note_on,0,0,4,,,,,,,,3,,,63,52
136560,note_on,1,0,4,,,,,,,,3,,,60,52
136560,note_on,1,0,2,,,,,,,,1,,,72,63
136799,note_on,239,0,2,,,,,,,,1,,,68,0
136799,note_on,479,0,1,,,,,,,,0,,,75,0
136799,note_on,0,0,2,,,,,,,,1,,,72,0
136799,note_on,0,0,1,,,,,,,,0,,,87,0
136799,note_on,239,0,4,,,,,,,,3,,,63,0
136799,note_on,0,0,4,,,,,,,,3,,,60,0
136800,note_on,1,0,2,,,,,,,,1,,,72,61
136800,note_on,0,0,1,,,,,,,,0,,,72,83
136800,note_on,0,0,4,,,,,,,,3,,,48,52
136800,note_on,1,0,1,,,,,,,,0,,,84,83
136800,note_on,1,0,4,,,,,,,,3,,,36,52
137039,note_on,239,0,4,,,,,,,,3,,,48,0
137039,note_on,239,0,2,,,,,,,,1,,,72,0
137039,note_on,0,0,4,,,,,,,,3,,,36,0
137040,note_on,0,0,2,,,,,,,,1,,,63,60
137040,note_on,1,0,4,,,,,,,,3,,,56,52
137040,note_on,1,0,2,,,,,,,,1,,,68,60
137040,note_on,0,0,4,,,,,,,,3,,,60,52
137152,control_change,112,0,2,,,,,,,,1,64,0,,
137168,control_change,368,0,1,,,,,,,,0,64,0,,
137184,control_change,144,0,4,,,,,,,,3,64,0,,
137232,control_change,48,0,4,,,,,,,,3,64,127,,
137248,control_change,80,0,1,,,,,,,,0,64,127,,
137248,control_change,96,0,2,,,,,,,,1,64,127,,
137279,note_on,31,0,2,,,,,,,,1,,,63,0
137279,note_on,47,0,4,,,,,,,,3,,,60,0
137279,note_on,0,0,4,,,,,,,,3,,,56,0
137279,note_on,0,0,2,,,,,,,,1,,,68,0
137279,note_on,31,0,1,,,,,,,,0,,,72,0
137279,note_on,0,0,1,,,,,,,,0,,,84,0
137280,note_on,1,0,4,,,,,,,,3,,,51,52
137280,note_on,0,0,4,,,,,,,,3,,,39,52
137280,note_on,1,0,1,,,,,,,,0,,,82,83
137280,note_on,1,0,2,,,,,,,,1,,,70,59
137280,note_on,0,0,1,,,,,,,,0,,,70,83
137519,note_on,239,0,2,,,,,,,,1,,,70,0
137519,note_on,239,0,4,,,,,,,,3,,,39,0
137519,note_on,0,0,4,,,,,,,,3,,,51,0
137520,note_on,0,0,4,,,,,,,,3,,,55,52
137520,note_on,0,0,2,,,,,,,,1,,,64,58
137520,note_on,1,0,4,,,,,,,,3,,,58,52
137520,note_on,1,0,2,,,,,,,,1,,,61,58
137759,note_on,239,0,2,,,,,,,,1,,,64,0
137759,note_on,0,0,2,,,,,,,,1,,,61,0
137759,note_on,0,0,4,,,,,,,,3,,,58,0
137759,note_on,0,0,1,,,,,,,,0,,,82,0
137759,note_on,479,0,1,,,,,,,,0,,,70,0
137759,note_on,239,0,4,,,,,,,,3,,,55,0
137760,note_on,1,0,2,,,,,,,,1,,,67,57
137760,note_on,0,0,4,,,,,,,,3,,,39,52
137760,note_on,1,0,4,,,,,,,,3,,,51,52
137760,note_on,0,0,1,,,,,,,,0,,,67,83
137760,note_on,1,0,1,,,,,,,,0,,,79,83
137999,note_on,239,0,2,,,,,,,,1,,,67,0
137999,note_on,239,0,4,,,,,,,,3,,,39,0
137999,note_on,0,0,4,,,,,,,,3,,,51,0
138000,note_on,1,0,4,,,,,,,,3,,,55,52
138000,note_on,0,0,2,,,,,,,,1,,,63,55
138000,note_on,1,0,2,,,,,,,,1,,,61,55
138000,note_on,0,0,4,,,,,,,,3,,,46,52
138192,note_on,432,0,1,,,,,,,,0,,,67,0
138192,note_on,0,0,1,,,,,,,,0,,,79,0
138192,control_change,192,0,4,,,,,,,,3,64,0,,
138208,control_change,208,0,2,,,,,,,,1,64,0,,
138208,control_change,16,0,1,,,,,,,,0,64,0,,
138216,note_on,0,0,2,,,,,,,,1,,,61,0
138216,note_on,8,0,2,,,,,,,,1,,,63,0
138216,note_on,24,0,4,,,,,,,,3,,,46,0
138216,note_on,0,0,4,,,,,,,,3,,,55,0
138240,note_on,24,0,2,,,,,,,,1,,,72,54
138240,note_on,0,0,1,,,,,,,,0,,,72,83
138240,note_on,32,0,1,,,,,,,,0,,,84,83
138240,note_on,0,0,4,,,,,,,,3,,,32,52
138240,note_on,24,0,4,,,,,,,,3,,,44,52
138320,control_change,80,0,4,,,,,,,,3,64,127,,
138320,control_change,80,0,1,,,,,,,,0,64,127,,
138320,control_change,80,0,2,,,,,,,,1,64,127,,
138479,note_on,159,0,4,,,,,,,,3,,,32,0
138479,note_on,0,0,4,,,,,,,,3,,,44,0
138479,note_on,159,0,2,,,,,,,,1,,,72,0
138480,note_on,0,0,2,,,,,,,,1,,,63,53
138480,note_on,1,0,2,,,,,,,,1,,,60,53
138480,note_on,1,0,4,,,,,,,,3,,,56,52
138480,note_on,0,0,4,,,,,,,,3,,,48,52
138696,note_on,216,0,2,,,,,,,,1,,,63,0
138696,note_on,0,0,2,,,,,,,,1,,,60,0
138719,note_on,0,0,4,,,,,,,,3,,,56,0
138719,note_on,0,0,1,,,,,,,,0,,,84,0
138719,note_on,399,0,1,,,,,,,,0,,,72,0
138719,note_on,239,0,4,,,,,,,,3,,,48,0
138720,note_on,1,0,1,,,,,,,,0,,,80,83
138720,note_on,0,0,1,,,,,,,,0,,,68,83
138720,note_on,1,0,4,,,,,,,,3,,,65,52
138720,note_on,0,0,4,,,,,,,,3,,,60,52
138720,note_on,0,0,4,,,,,,,,3,,,56,52
138720,note_on,0,0,1,,,,,,,,0,,,72,83
138815,note_on,95,0,4,,,,,,,,3,,,56,0
138815,note_on,0,0,4,,,,,,,,3,,,60,0
138815,note_on,0,0,4,,,,,,,,3,,,65,0
138959,note_on,0,0,1,,,,,,,,0,,,72,0
138959,note_on,0,0,1,,,,,,,,0,,,80,0
138959,note_on,239,0,1,,,,,,,,0,,,68,0
138960,note_on,0,0,4,,,,,,,,3,,,51,52
138960,note_on,1,0,1,,,,,,,,0,,,80,83
138960,note_on,145,0,4,,,,,,,,3,,,60,52
138960,note_on,0,0,4,,,,,,,,3,,,56,52
138960,note_on,0,0,1,,,,,,,,0,,,72,83
138960,note_on,0,0,1,,,,,,,,0,,,68,83
139055,note_on,0,0,4,,,,,,,,3,,,60,0
139055,note_on,95,0,4,,,,,,,,3,,,51,0
139055,note_on,0,0,4,,,,,,,,3,,,56,0
139199,note_on,0,0,1,,,,,,,,0,,,72,0
139199,note_on,0,0,1,,,,,,,,0,,,80,0
139199,note_on,239,0,1,,,,,,,,0,,,68,0
139200,note_on,145,0,4,,,,,,,,3,,,48,66
139200,note_on,0,0,4,,,,,,,,3,,,51,66
139200,note_on,0,0,4,,,,,,,,3,,,56,66
139200,note_on,1,0,1,,,,,,,,0,,,75,74
139200,note_on,0,0,1,,,,,,,,0,,,72,74
139200,note_on,0,0,1,,,,,,,,0,,,63,74
139280,control_change,584,0,2,,,,,,,,1,64,0,,
139280,control_change,80,0,4,,,,,,,,3,64,0,,
139280,control_change,80,0,1,,,,,,,,0,64,0,,
139295,note_on,0,0,4,,,,,,,,3,,,48,0
139295,note_on,0,0,4,,,,,,,,3,,,51,0
139295,note_on,15,0,4,,,,,,,,3,,,56,0
139440,note_on,145,0,4,,,,,,,,3,,,44,66
139440,note_on,0,0,4,,,,,,,,3,,,48,66
139440,note_on,0,0,4,,,,,,,,3,,,51,66
139535,note_on,95,0,4,,,,,,,,3,,,51,0
139535,note_on,0,0,4,,,,,,,,3,,,48,0
139535,note_on,0,0,4,,,,,,,,3,,,44,0
139679,note_on,0,0,1,,,,,,,,0,,,72,0
139679,note_on,0,0,1,,,,,,,,0,,,75,0
139679,note_on,399,0,1,,,,,,,,0,,,63,0
139680,note_on,1,0,1,,,,,,,,0,,,56,83
139680,note_on,0,0,1,,,,,,,,0,,,68,83
139680,note_on,0,0,4,,,,,,,,3,,,48,66
139680,note_on,0,0,4,,,,,,,,3,,,44,66
139680,note_on,145,0,4,,,,,,,,3,,,39,66
139775,note_on,95,0,4,,,,,,,,3,,,48,0
139775,note_on,0,0,4,,,,,,,,3,,,39,0
139775,note_on,0,0,4,,,,,,,,3,,,44,0
139919,note_on,239,0,1,,,,,,,,0,,,68,0
139919,note_on,0,0,1,,,,,,,,0,,,56,0
139920,note_on,145,0,4,,,,,,,,3,,,36,66
139920,note_on,0,0,4,,,,,,,,3,,,44,66
139920,note_on,1,0,1,,,,,,,,0,,,68,83
139920,note_on,0,0,4,,,,,,,,3,,,39,66
140006,note_on,0,0,4,,,,,,,,3,,,36,0
140006,note_on,86,0,4,,,,,,,,3,,,44,0
140006,note_on,0,0,4,,,,,,,,3,,,39,0
140136,note_on,216,0,1,,,,,,,,0,,,68,0
140160,note_on,0,0,4,,,,,,,,3,,,41,52
140160,control_change,24,0,1,,,,,,,,0,64,127,,
140160,note_on,880,0,2,,,,,,,,1,,,60,52
140160,note_on,154,0,4,,,,,,,,3,,,38,52
140160,note_on,0,0,1,,,,,,,,0,,,60,77
140160,note_on,0,0,4,,,,,,,,3,,,44,52
140160,note_on,0,0,1,,,,,,,,0,,,72,77
140399,note_on,239,0,2,,,,,,,,1,,,60,0
140399,note_on,0,0,4,,,,,,,,3,,,38,0
140399,note_on,0,0,4,,,,,,,,3,,,41,0
140399,note_on,239,0,4,,,,,,,,3,,,44,0
140400,note_on,1,0,4,,,,,,,,3,,,29,52
140400,note_on,1,0,2,,,,,,,,1,,,60,52
140400,note_on,0,0,2,,,,,,,,1,,,68,52
140427,control_change,27,0,2,,,,,,,,1,64,127,,
140621,set_tempo,10076,1,0,,,,,,416204,,,,,,
140639,note_on,212,0,2,,,,,,,,1,,,68,0
140639,note_on,239,0,4,,,,,,,,3,,,29,0
140639,note_on,0,0,2,,,,,,,,1,,,60,0
140640,note_on,0,0,4,,,,,,,,3,,,48,52
140640,note_on,0,0,4,,,,,,,,3,,,43,52
140640,note_on,1,0,4,,,,,,,,3,,,40,52
140640,note_on,1,0,2,,,,,,,,1,,,60,52
140879,note_on,0,0,4,,,,,,,,3,,,40,0
140879,note_on,0,0,4,,,,,,,,3,,,43,0
140879,note_on,239,0,2,,,,,,,,1,,,60,0
140879,note_on,239,0,4,,,,,,,,3,,,48,0
140880,note_on,0,0,2,,,,,,,,1,,,67,52
140880,note_on,1,0,2,,,,,,,,1,,,58,52
140880,note_on,1,0,4,,,,,,,,3,,,36,52
140919,set_tempo,298,1,0,,,,,,414823,,,,,,
141119,note_on,239,0,4,,,,,,,,3,,,36,0
141119,note_on,0,0,2,,,,,,,,1,,,58,0
141119,note_on,239,0,2,,,,,,,,1,,,67,0
141120,note_on,0,0,4,,,,,,,,3,,,44,52
141120,note_on,1,0,4,,,,,,,,3,,,41,52
141120,control_change,960,0,1,,,,,,,,0,64,0,,
141120,note_on,0,0,4,,,,,,,,3,,,48,52
141120,note_on,1,0,2,,,,,,,,1,,,60,52
141217,set_tempo,298,1,0,,,,,,413451,,,,,,
141359,note_on,239,0,4,,,,,,,,3,,,48,0
141359,note_on,239,0,2,,,,,,,,1,,,60,0
141359,note_on,0,0,4,,,,,,,,3,,,41,0
141359,note_on,0,0,4,,,,,,,,3,,,44,0
141360,note_on,0,0,2,,,,,,,,1,,,65,52
141360,note_on,1,0,2,,,,,,,,1,,,56,52
141360,note_on,1,0,4,,,,,,,,3,,,29,52
141387,control_change,27,0,2,,,,,,,,1,64,0,,
141515,set_tempo,298,1,0,,,,,,412088,,,,,,
141599,note_on,239,0,4,,,,,,,,3,,,29,0
141599,note_on,212,0,2,,,,,,,,1,,,65,0
141599,note_on,0,0,2,,,,,,,,1,,,56,0
141600,note_on,1,0,2,,,,,,,,1,,,60,52
141600,note_on,1,0,4,,,,,,,,3,,,43,52
141600,note_on,0,0,4,,,,,,,,3,,,48,52
141600,note_on,0,0,4,,,,,,,,3,,,52,52
141813,set_tempo,298,1,0,,,,,,410734,,,,,,
141839,note_on,0,0,4,,,,,,,,3,,,48,0
141839,note_on,239,0,2,,,,,,,,1,,,60,0
141839,note_on,239,0,4,,,,,,,,3,,,52,0
141839,note_on,719,0,1,,,,,,,,0,,,60,0
141839,note_on,0,0,1,,,,,,,,0,,,72,0
141839,note_on,0,0,4,,,,,,,,3,,,43,0
141840,note_on,0,0,2,,,,,,,,1,,,67,52
141840,note_on,1,0,2,,,,,,,,1,,,63,52
141840,note_on,1,0,1,,,,,,,,0,,,72,83
141840,note_on,1,0,4,,,,,,,,3,,,36,52
142056,note_on,216,0,4,,,,,,,,3,,,36,0
142056,note_on,216,0,2,,,,,,,,1,,,67,0
142056,note_on,216,0,1,,,,,,,,0,,,72,0
142056,note_on,0,0,2,,,,,,,,1,,,63,0
142080,note_on,0,0,4,,,,,,,,3,,,48,52
142080,note_on,0,0,4,,,,,,,,3,,,53,52
142080,note_on,24,0,4,,,,,,,,3,,,44,52
142080,control_change,24,0,2,,,,,,,,1,64,127,,
142080,control_change,24,0,1,,,,,,,,0,64,127,,
142080,note_on,0,0,1,,,,,,,,0,,,72,83
142080,note_on,0,0,2,,,,,,,,1,,,56,51
142111,set_tempo,298,1,0,,,,,,409389,,,,,,
142319,note_on,239,0,4,,,,,,,,3,,,53,0
142319,note_on,0,0,4,,,,,,,,3,,,48,0
142319,note_on,0,0,4,,,,,,,,3,,,44,0
142319,note_on,239,0,2,,,,,,,,1,,,56,0
142320,note_on,1,0,2,,,,,,,,1,,,65,52
142320,note_on,0,0,2,,,,,,,,1,,,68,52
142320,note_on,1,0,4,,,,,,,,3,,,41,52
142392,set_tempo,281,1,0,,,,,,408052,,,,,,
142559,note_on,239,0,4,,,,,,,,3,,,41,0
142559,note_on,479,0,1,,,,,,,,0,,,72,0
142559,note_on,239,0,2,,,,,,,,1,,,68,0
142559,note_on,0,0,2,,,,,,,,1,,,65,0
142560,note_on,1,0,1,,,,,,,,0,,,67,84
142560,note_on,1,0,4,,,,,,,,3,,,48,52
142560,note_on,0,0,4,,,,,,,,3,,,52,52
142560,note_on,0,0,4,,,,,,,,3,,,55,52
142560,note_on,1,0,2,,,,,,,,1,,,64,53
142690,set_tempo,298,1,0,,,,,,406725,,,,,,
142799,note_on,239,0,1,,,,,,,,0,,,67,0
142799,note_on,0,0,4,,,,,,,,3,,,48,0
142799,note_on,239,0,2,,,,,,,,1,,,64,0
142799,note_on,0,0,4,,,,,,,,3,,,52,0
142799,note_on,239,0,4,,,,,,,,3,,,55,0
142800,note_on,1,0,4,,,,,,,,3,,,36,52
142800,note_on,1,0,2,,,,,,,,1,,,76,54
142800,note_on,0,0,2,,,,,,,,1,,,79,54
142800,note_on,1,0,1,,,,,,,,0,,,67,80
142988,set_tempo,298,1,0,,,,,,405405,,,,,,
143016,note_on,216,0,1,,,,,,,,0,,,67,0
143039,note_on,239,0,2,,,,,,,,1,,,79,0
143039,note_on,0,0,2,,,,,,,,1,,,76,0
143039,note_on,239,0,4,,,,,,,,3,,,36,0
143040,note_on,0,0,4,,,,,,,,3,,,53,52
143040,note_on,0,0,4,,,,,,,,3,,,56,52
143040,control_change,24,0,1,,,,,,,,0,64,0,,
143040,note_on,0,0,1,,,,,,,,0,,,68,77
143040,note_on,1,0,4,,,,,,,,3,,,48,52
143040,note_on,0,0,2,,,,,,,,1,,,65,55
143040,control_change,1,0,2,,,,,,,,1,64,0,,
143279,note_on,239,0,2,,,,,,,,1,,,65,0
143279,note_on,239,0,4,,,,,,,,3,,,56,0
143279,note_on,0,0,4,,,,,,,,3,,,53,0
143279,note_on,0,0,4,,,,,,,,3,,,48,0
143280,note_on,0,0,2,,,,,,,,1,,,77,56
143280,note_on,1,0,4,,,,,,,,3,,,41,52
143280,note_on,1,0,2,,,,,,,,1,,,80,56
143286,set_tempo,298,1,0,,,,,,404095,,,,,,
143472,note_on,432,0,1,,,,,,,,0,,,68,0
143519,note_on,0,0,2,,,,,,,,1,,,80,0
143519,note_on,239,0,2,,,,,,,,1,,,77,0
143519,note_on,239,0,4,,,,,,,,3,,,41,0
143520,note_on,1,0,4,,,,,,,,3,,,52,52
143520,note_on,0,0,4,,,,,,,,3,,,55,52
143520,note_on,0,0,4,,,,,,,,3,,,60,52
143520,note_on,1,0,2,,,,,,,,1,,,67,57
143520,note_on,48,0,1,,,,,,,,0,,,72,87
143584,set_tempo,298,1,0,,,,,,402793,,,,,,
143736,note_on,216,0,1,,,,,,,,0,,,72,0
143759,note_on,239,0,4,,,,,,,,3,,,60,0
143759,note_on,0,0,4,,,,,,,,3,,,55,0
143759,note_on,0,0,4,,,,,,,,3,,,52,0
143759,note_on,239,0,2,,,,,,,,1,,,67,0
143760,note_on,0,0,2,,,,,,,,1,,,79,58
143760,note_on,24,0,1,,,,,,,,0,,,72,84
143760,note_on,1,0,4,,,,,,,,3,,,36,52
143760,note_on,1,0,2,,,,,,,,1,,,84,58
143882,set_tempo,298,1,0,,,,,,401499,,,,,,
143976,note_on,216,0,1,,,,,,,,0,,,72,0
143976,note_on,216,0,2,,,,,,,,1,,,79,0
143976,note_on,0,0,2,,,,,,,,1,,,84,0
143976,note_on,216,0,4,,,,,,,,3,,,36,0
144000,note_on,0,0,1,,,,,,,,0,,,72,80
144000,control_change,24,0,1,,,,,,,,0,64,127,,
144000,note_on,24,0,2,,,,,,,,1,,,68,59
144000,note_on,0,0,4,,,,,,,,3,,,53,52
144000,note_on,0,0,4,,,,,,,,3,,,56,52
144000,note_on,24,0,4,,,,,,,,3,,,60,52
144163,set_tempo,281,1,0,,,,,,400213,,,,,,
144239,note_on,0,0,4,,,,,,,,3,,,56,0
144239,note_on,239,0,4,,,,,,,,3,,,53,0
144239,note_on,0,0,4,,,,,,,,3,,,60,0
144239,note_on,239,0,2,,,,,,,,1,,,68,0
144240,note_on,1,0,4,,,,,,,,3,,,41,52
144240,note_on,1,0,2,,,,,,,,1,,,84,60
144240,note_on,0,0,2,,,,,,,,1,,,80,60
144461,set_tempo,298,1,0,,,,,,398936,,,,,,
144479,note_on,239,0,2,,,,,,,,1,,,80,0
144479,note_on,0,0,2,,,,,,,,1,,,84,0
144479,note_on,239,0,4,,,,,,,,3,,,41,0
144480,note_on,0,0,4,,,,,,,,3,,,52,52
144480,note_on,1,0,4,,,,,,,,3,,,60,52
144480,note_on,0,0,4,,,,,,,,3,,,55,52
144480,note_on,0,0,2,,,,,,,,1,,,67,61
144480,note_on,1,0,2,,,,,,,,1,,,76,61
144719,note_on,0,0,2,,,,,,,,1,,,76,0
144719,note_on,239,0,2,,,,,,,,1,,,67,0
144719,note_on,239,0,4,,,,,,,,3,,,52,0
144719,note_on,0,0,4,,,,,,,,3,,,55,0
144719,note_on,0,0,4,,,,,,,,3,,,60,0
144720,note_on,1,0,4,,,,,,,,3,,,48,52
144720,note_on,1,0,2,,,,,,,,1,,,88,63
144720,note_on,0,0,2,,,,,,,,1,,,79,63
144759,set_tempo,298,1,0,,,,,,397667,,,,,,
144959,note_on,0,0,2,,,,,,,,1,,,88,0
144959,note_on,239,0,2,,,,,,,,1,,,79,0
144959,note_on,239,0,4,,,,,,,,3,,,48,0
144960,note_on,1,0,4,,,,,,,,3,,,60,52
144960,note_on,0,0,4,,,,,,,,3,,,56,52
144960,control_change,960,0,1,,,,,,,,0,64,0,,
144960,note_on,0,0,2,,,,,,,,1,,,68,52
144960,note_on,1,0,2,,,,,,,,1,,,77,52
144960,note_on,0,0,4,,,,,,,,3,,,53,52
145057,set_tempo,298,1,0,,,,,,396406,,,,,,
145199,note_on,239,0,4,,,,,,,,3,,,53,0
145199,note_on,0,0,4,,,,,,,,3,,,56,0
145199,note_on,0,0,4,,,,,,,,3,,,60,0
145199,note_on,0,0,2,,,,,,,,1,,,77,0
145199,note_on,239,0,2,,,,,,,,1,,,68,0
145200,note_on,1,0,4,,,,,,,,3,,,41,52
145200,note_on,0,0,2,,,,,,,,1,,,80,52
145200,note_on,1,0,2,,,,,,,,1,,,89,66
145355,set_tempo,298,1,0,,,,,,395153,,,,,,
145439,note_on,239,0,4,,,,,,,,3,,,41,0
145439,note_on,0,0,2,,,,,,,,1,,,89,0
145439,note_on,239,0,2,,,,,,,,1,,,80,0
145439,note_on,479,0,1,,,,,,,,0,,,72,0
145440,note_on,1,0,4,,,,,,,,3,,,56,52
145440,note_on,0,0,4,,,,,,,,3,,,53,52
145440,note_on,0,0,2,,,,,,,,1,,,70,52
145440,note_on,1,0,1,,,,,,,,0,,,74,83
145440,note_on,1,0,2,,,,,,,,1,,,79,52
145653,set_tempo,298,1,0,,,,,,393908,,,,,,
145679,note_on,0,0,4,,,,,,,,3,,,56,0
145679,note_on,239,0,4,,,,,,,,3,,,53,0
145679,note_on,239,0,2,,,,,,,,1,,,70,0
145679,note_on,0,0,2,,,,,,,,1,,,79,0
145680,note_on,1,0,4,,,,,,,,3,,,46,52
145680,note_on,0,0,2,,,,,,,,1,,,82,52
145680,note_on,1,0,2,,,,,,,,1,,,91,66
145849,set_tempo,196,1,0,,,,,,392670,,,,,,
145872,note_on,432,0,1,,,,,,,,0,,,74,0
145896,note_on,216,0,4,,,,,,,,3,,,46,0
145896,note_on,0,0,2,,,,,,,,1,,,91,0
145896,note_on,216,0,2,,,,,,,,1,,,82,0
145920,note_on,0,0,2,,,,,,,,1,,,75,66
145920,note_on,0,0,2,,,,,,,,1,,,79,66
145920,note_on,0,0,2,,,,,,,,1,,,87,66
145920,control_change,24,0,2,,,,,,,,1,64,127,,
145920,control_change,24,0,4,,,,,,,,3,64,127,,
145920,note_on,0,0,4,,,,,,,,3,,,63,77
145920,note_on,0,0,4,,,,,,,,3,,,55,77
145920,note_on,0,0,4,,,,,,,,3,,,51,77
145949,set_tempo,100,1,0,,,,,,391441,,,,,,
146048,set_tempo,99,1,0,,,,,,390219,,,,,,
146147,set_tempo,99,1,0,,,,,,389004,,,,,,
146159,note_on,0,0,4,,,,,,,,3,,,63,0
146159,note_on,0,0,4,,,,,,,,3,,,55,0
146159,note_on,239,0,4,,,,,,,,3,,,51,0
146159,note_on,239,0,2,,,,,,,,1,,,75,0
146159,note_on,0,0,2,,,,,,,,1,,,79,0
146159,note_on,0,0,2,,,,,,,,1,,,87,0
146160,note_on,1,0,4,,,,,,,,3,,,58,75
146160,note_on,1,0,2,,,,,,,,1,,,79,66
146160,note_on,0,0,2,,,,,,,,1,,,75,66
146160,note_on,0,0,4,,,,,,,,3,,,55,75
146246,set_tempo,99,1,0,,,,,,387797,,,,,,
146346,set_tempo,100,1,0,,,,,,386598,,,,,,
146399,note_on,239,0,4,,,,,,,,3,,,55,0
146399,note_on,239,0,2,,,,,,,,1,,,75,0
146399,note_on,0,0,2,,,,,,,,1,,,79,0
146399,note_on,0,0,4,,,,,,,,3,,,58,0
146400,note_on,0,0,2,,,,,,,,1,,,79,66
146400,note_on,1,0,4,,,,,,,,3,,,55,72
146400,note_on,0,0,4,,,,,,,,3,,,51,72
146400,note_on,1,0,2,,,,,,,,1,,,82,66
146445,set_tempo,99,1,0,,,,,,385406,,,,,,
146544,set_tempo,99,1,0,,,,,,384221,,,,,,
146639,note_on,239,0,2,,,,,,,,1,,,79,0
146639,note_on,0,0,2,,,,,,,,1,,,82,0
146639,note_on,0,0,4,,,,,,,,3,,,55,0
146639,note_on,239,0,4,,,,,,,,3,,,51,0
146640,note_on,0,0,4,,,,,,,,3,,,51,70
146640,note_on,1,0,4,,,,,,,,3,,,55,70
146640,note_on,1,0,2,,,,,,,,1,,,75,66
146640,note_on,0,0,2,,,,,,,,1,,,70,66
146644,set_tempo,100,1,0,,,,,,383044,,,,,,
146743,set_tempo,99,1,0,,,,,,381874,,,,,,
146842,set_tempo,99,1,0,,,,,,380711,,,,,,
146879,note_on,239,0,2,,,,,,,,1,,,70,0
146879,note_on,0,0,2,,,,,,,,1,,,75,0
146879,note_on,239,0,4,,,,,,,,3,,,51,0
146879,note_on,0,0,4,,,,,,,,3,,,55,0
146880,control_change,1,0,2,,,,,,,,1,64,0,,
146880,note_on,0,0,2,,,,,,,,1,,,79,66
146880,note_on,0,0,2,,,,,,,,1,,,75,66
146880,note_on,0,0,4,,,,,,,,3,,,51,68
146880,note_on,1,0,4,,,,,,,,3,,,46,68
146942,set_tempo,100,1,0,,,,,,379555,,,,,,
147041,set_tempo,99,1,0,,,,,,378406,,,,,,
147119,note_on,239,0,4,,,,,,,,3,,,51,0
147119,note_on,239,0,2,,,,,,,,1,,,75,0
147119,note_on,0,0,4,,,,,,,,3,,,46,0
147119,note_on,0,0,2,,,,,,,,1,,,79,0
147120,note_on,1,0,4,,,,,,,,3,,,46,66
147120,note_on,0,0,4,,,,,,,,3,,,51,66
147120,note_on,0,0,2,,,,,,,,1,,,67,66
147120,note_on,1,0,2,,,,,,,,1,,,70,66
147140,set_tempo,99,1,0,,,,,,377264,,,,,,
147223,set_tempo,83,1,0,,,,,,376128,,,,,,
147322,set_tempo,99,1,0,,,,,,375000,,,,,,
147359,note_on,0,0,2,,,,,,,,1,,,70,0
147359,note_on,239,0,2,,,,,,,,1,,,67,0
147359,note_on,239,0,4,,,,,,,,3,,,51,0
147359,note_on,0,0,4,,,,,,,,3,,,46,0
147360,note_on,0,0,4,,,,,,,,3,,,46,63
147360,note_on,1,0,2,,,,,,,,1,,,75,66
147360,note_on,0,0,2,,,,,,,,1,,,70,66
147360,note_on,1,0,4,,,,,,,,3,,,43,63
147422,set_tempo,100,1,0,,,,,,373878,,,,,,
147521,set_tempo,99,1,0,,,,,,372763,,,,,,
147599,note_on,239,0,4,,,,,,,,3,,,46,0
147599,note_on,0,0,4,,,,,,,,3,,,43,0
147599,note_on,239,0,2,,,,,,,,1,,,70,0
147599,note_on,0,0,2,,,,,,,,1,,,75,0
147600,note_on,1,0,2,,,,,,,,1,,,67,66
147600,note_on,0,0,2,,,,,,,,1,,,63,66
147600,note_on,1,0,4,,,,,,,,3,,,43,61
147600,note_on,0,0,4,,,,,,,,3,,,46,61
147620,set_tempo,99,1,0,,,,,,371655,,,,,,
147680,control_change,80,0,4,,,,,,,,3,64,0,,
147720,set_tempo,100,1,0,,,,,,370553,,,,,,
147816,note_on,216,0,2,,,,,,,,1,,,63,0
147816,note_on,136,0,4,,,,,,,,3,,,46,0
147816,note_on,0,0,4,,,,,,,,3,,,43,0
147816,note_on,0,0,2,,,,,,,,1,,,67,0
147819,set_tempo,99,1,0,,,,,,369458,,,,,,
147840,note_on,24,0,4,,,,,,,,3,,,55,59
147840,note_on,0,0,4,,,,,,,,3,,,51,59
147840,note_on,0,0,2,,,,,,,,1,,,70,66
147840,note_on,0,0,2,,,,,,,,1,,,67,66
147840,control_change,24,0,2,,,,,,,,1,64,127,,
147918,set_tempo,99,1,0,,,,,,368369,,,,,,
148018,set_tempo,100,1,0,,,,,,367287,,,,,,
148079,note_on,239,0,4,,,,,,,,3,,,51,0
148079,note_on,0,0,4,,,,,,,,3,,,55,0
148079,note_on,0,0,2,,,,,,,,1,,,67,0
148079,note_on,239,0,2,,,,,,,,1,,,70,0
148080,note_on,1,0,2,,,,,,,,1,,,58,51
148080,note_on,0,0,2,,,,,,,,1,,,63,51
148080,note_on,1,0,4,,,,,,,,3,,,55,57
148080,note_on,0,0,4,,,,,,,,3,,,51,57
148117,set_tempo,99,1,0,,,,,,366211,,,,,,
148216,set_tempo,99,1,0,,,,,,365141,,,,,,
148315,set_tempo,99,1,0,,,,,,364078,,,,,,
148319,note_on,0,0,4,,,,,,,,3,,,55,0
148319,note_on,239,0,2,,,,,,,,1,,,63,0
148319,note_on,0,0,2,,,,,,,,1,,,58,0
148319,note_on,239,0,4,,,,,,,,3,,,51,0
148320,note_on,1,0,4,,,,,,,,3,,,51,51
148320,note_on,0,0,4,,,,,,,,3,,,46,51
148320,note_on,1,0,2,,,,,,,,1,,,63,51
148320,note_on,0,0,2,,,,,,,,1,,,67,51
148415,set_tempo,100,1,0,,,,,,363020,,,,,,
148498,set_tempo,83,1,0,,,,,,361969,,,,,,
148559,note_on,239,0,4,,,,,,,,3,,,46,0
148559,note_on,0,0,4,,,,,,,,3,,,51,0
148559,note_on,0,0,2,,,,,,,,1,,,63,0
148559,note_on,239,0,2,,,,,,,,1,,,67,0
148560,note_on,1,0,4,,,,,,,,3,,,51,51
148560,note_on,0,0,4,,,,,,,,3,,,46,51
148560,note_on,0,0,2,,,,,,,,1,,,62,51
148560,note_on,1,0,2,,,,,,,,1,,,58,51
148597,set_tempo,99,1,0,,,,,,360924,,,,,,
148696,set_tempo,99,1,0,,,,,,359885,,,,,,
148795,set_tempo,99,1,0,,,,,,358852,,,,,,
148799,note_on,0,0,2,,,,,,,,1,,,58,0
148799,note_on,239,0,2,,,,,,,,1,,,62,0
148799,note_on,239,0,4,,,,,,,,3,,,46,0
148799,note_on,0,0,4,,,,,,,,3,,,51,0
148800,note_on,1,0,4,,,,,,,,3,,,39,51
148800,note_on,0,0,2,,,,,,,,1,,,63,51
148800,control_change,1,0,2,,,,,,,,1,64,0,,
148895,note_on,95,0,2,,,,,,,,1,,,63,0
148895,set_tempo,100,1,0,,,,,,357824,,,,,,
148991,note_on,191,0,4,,,,,,,,3,,,39,0
148994,set_tempo,99,1,0,,,,,,356803,,,,,,
149040,note_on,0,0,2,,,,,,,,1,,,58,51
149040,note_on,145,0,2,,,,,,,,1,,,55,51
149093,set_tempo,99,1,0,,,,,,355787,,,,,,
149135,note_on,95,0,2,,,,,,,,1,,,58,0
149135,note_on,0,0,2,,,,,,,,1,,,55,0
149193,set_tempo,100,1,0,,,,,,354778,,,,,,
149280,note_on,0,0,4,,,,,,,,3,,,46,51
149280,note_on,289,0,4,,,,,,,,3,,,51,51
149280,note_on,145,0,2,,,,,,,,1,,,67,51
149292,set_tempo,99,1,0,,,,,,353774,,,,,,
149366,note_on,0,0,4,,,,,,,,3,,,51,0
149366,note_on,86,0,4,,,,,,,,3,,,46,0
149375,note_on,95,0,2,,,,,,,,1,,,67,0
149391,set_tempo,99,1,0,,,,,,352775,,,,,,
149491,set_tempo,100,1,0,,,,,,351782,,,,,,
149520,note_on,0,0,2,,,,,,,,1,,,58,51
149520,note_on,145,0,2,,,,,,,,1,,,55,51
149590,set_tempo,99,1,0,,,,,,350795,,,,,,
149606,note_on,86,0,2,,,,,,,,1,,,58,0
149606,note_on,0,0,2,,,,,,,,1,,,55,0
149689,set_tempo,99,1,0,,,,,,349813,,,,,,
149760,note_on,154,0,2,,,,,,,,1,,,63,64
149760,note_on,394,0,4,,,,,,,,3,,,39,51
149772,set_tempo,83,1,0,,,,,,348837,,,,,,
149855,note_on,95,0,2,,,,,,,,1,,,63,0
149951,note_on,191,0,4,,,,,,,,3,,,39,0
150000,note_on,0,0,2,,,,,,,,1,,,58,64
150000,note_on,145,0,2,,,,,,,,1,,,55,64
150095,note_on,0,0,2,,,,,,,,1,,,55,0
150095,note_on,95,0,2,,,,,,,,1,,,58,0
150240,note_on,0,0,4,,,,,,,,3,,,46,51
150240,note_on,145,0,2,,,,,,,,1,,,67,64
150240,note_on,289,0,4,,,,,,,,3,,,51,51
150335,note_on,95,0,2,,,,,,,,1,,,67,0
150480,note_on,145,0,2,,,,,,,,1,,,55,64
150480,note_on,0,0,2,,,,,,,,1,,,58,64
150575,note_on,0,0,2,,,,,,,,1,,,55,0
150575,note_on,95,0,2,,,,,,,,1,,,58,0
150623,note_on,383,0,4,,,,,,,,3,,,46,0
150623,note_on,0,0,4,,,,,,,,3,,,51,0
150720,note_on,0,0,2,,,,,,,,1,,,65,64
150720,note_on,0,0,2,,,,,,,,1,,,58,64
150720,note_on,145,0,2,,,,,,,,1,,,55,64
150815,note_on,95,0,2,,,,,,,,1,,,65,0
150815,note_on,0,0,2,,,,,,,,1,,,55,0
150815,note_on,0,0,2,,,,,,,,1,,,58,0
150960,note_on,0,0,2,,,,,,,,1,,,63,64
150960,note_on,0,0,2,,,,,,,,1,,,58,64
150960,note_on,145,0,2,,,,,,,,1,,,55,64
151055,note_on,0,0,2,,,,,,,,1,,,58,0
151055,note_on,95,0,2,,,,,,,,1,,,63,0
151055,note_on,0,0,2,,,,,,,,1,,,55,0
151200,note_on,0,0,2,,,,,,,,1,,,62,64
151200,note_on,577,0,4,,,,,,,,3,,,39,51
151200,note_on,145,0,2,,,,,,,,1,,,55,64
151200,note_on,0,0,2,,,,,,,,1,,,58,64
151295,note_on,95,0,2,,,,,,,,1,,,62,0
151295,note_on,0,0,2,,,,,,,,1,,,58,0
151295,note_on,95,0,4,,,,,,,,3,,,39,0
151295,note_on,0,0,2,,,,,,,,1,,,55,0
151440,note_on,145,0,2,,,,,,,,1,,,55,64
151440,note_on,0,0,2,,,,,,,,1,,,58,64
151440,note_on,0,0,2,,,,,,,,1,,,63,64
151440,note_on,145,0,4,,,,,,,,3,,,39,51
151526,note_on,86,0,2,,,,,,,,1,,,63,0
151526,note_on,0,0,2,,,,,,,,1,,,58,0
151526,note_on,0,0,2,,,,,,,,1,,,55,0
151526,note_on,86,0,4,,,,,,,,3,,,39,0
151680,note_on,154,0,4,,,,,,,,3,,,32,51
151680,note_on,154,0,2,,,,,,,,1,,,65,64
151775,note_on,95,0,2,,,,,,,,1,,,65,0
151871,note_on,191,0,4,,,,,,,,3,,,32,0
151920,note_on,0,0,2,,,,,,,,1,,,60,64
151920,note_on,145,0,2,,,,,,,,1,,,56,64
152015,note_on,0,0,2,,,,,,,,1,,,56,0
152015,note_on,95,0,2,,,,,,,,1,,,60,0
152160,note_on,289,0,4,,,,,,,,3,,,53,51
152160,note_on,0,0,4,,,,,,,,3,,,48,51
152160,note_on,145,0,2,,,,,,,,1,,,68,64
152255,note_on,95,0,2,,,,,,,,1,,,68,0
152351,note_on,191,0,4,,,,,,,,3,,,48,0
152351,note_on,0,0,4,,,,,,,,3,,,53,0
152400,note_on,145,0,2,,,,,,,,1,,,56,64
152400,note_on,0,0,2,,,,,,,,1,,,60,64
152495,note_on,95,0,2,,,,,,,,1,,,60,0
152495,note_on,0,0,2,,,,,,,,1,,,56,0
152640,note_on,145,0,2,,,,,,,,1,,,65,64
152640,note_on,289,0,4,,,,,,,,3,,,32,51
152735,note_on,95,0,2,,,,,,,,1,,,65,0
152831,note_on,191,0,4,,,,,,,,3,,,32,0
152880,note_on,145,0,2,,,,,,,,1,,,56,64
152880,note_on,0,0,2,,,,,,,,1,,,60,64
152975,note_on,95,0,2,,,,,,,,1,,,60,0
152975,note_on,0,0,2,,,,,,,,1,,,56,0
153120,note_on,0,0,4,,,,,,,,3,,,44,51
153120,note_on,145,0,2,,,,,,,,1,,,65,83
153120,note_on,0,0,2,,,,,,,,1,,,72,83
153120,note_on,0,0,2,,,,,,,,1,,,77,83
153120,note_on,289,0,4,,,,,,,,3,,,32,51
153215,note_on,0,0,4,,,,,,,,3,,,32,0
153215,note_on,95,0,4,,,,,,,,3,,,44,0
153215,note_on,0,0,2,,,,,,,,1,,,65,0
153215,note_on,0,0,2,,,,,,,,1,,,72,0
153215,note_on,95,0,2,,,,,,,,1,,,77,0
153360,note_on,0,0,2,,,,,,,,1,,,72,83
153360,note_on,0,0,2,,,,,,,,1,,,75,83
153360,note_on,0,0,4,,,,,,,,3,,,45,51
153360,note_on,145,0,4,,,,,,,,3,,,33,51
153360,note_on,145,0,2,,,,,,,,1,,,65,83
153446,note_on,86,0,4,,,,,,,,3,,,45,0
153446,note_on,0,0,4,,,,,,,,3,,,33,0
153446,note_on,0,0,2,,,,,,,,1,,,65,0
153446,note_on,86,0,2,,,,,,,,1,,,75,0
153446,note_on,0,0,2,,,,,,,,1,,,72,0
153600,note_on,154,0,2,,,,,,,,1,,,74,64
153600,note_on,0,0,4,,,,,,,,3,,,46,51
153600,note_on,154,0,4,,,,,,,,3,,,34,51
153695,note_on,95,0,2,,,,,,,,1,,,74,0
153791,note_on,0,0,4,,,,,,,,3,,,34,0
153791,note_on,191,0,4,,,,,,,,3,,,46,0
153840,note_on,145,0,2,,,,,,,,1,,,65,64
153840,note_on,0,0,2,,,,,,,,1,,,70,64
153935,note_on,95,0,2,,,,,,,,1,,,70,0
153935,note_on,0,0,2,,,,,,,,1,,,65,0
154080,note_on,145,0,2,,,,,,,,1,,,72,64
154080,note_on,289,0,4,,,,,,,,3,,,58,51
154175,note_on,95,0,2,,,,,,,,1,,,72,0
154271,note_on,191,0,4,,,,,,,,3,,,58,0
154320,note_on,0,0,2,,,,,,,,1,,,68,64
154320,note_on,145,0,2,,,,,,,,1,,,63,64
154415,note_on,95,0,2,,,,,,,,1,,,68,0
154415,note_on,0,0,2,,,,,,,,1,,,63,0
154560,note_on,289,0,4,,,,,,,,3,,,34,51
154560,note_on,145,0,2,,,,,,,,1,,,70,64
154655,note_on,95,0,2,,,,,,,,1,,,70,0
154751,note_on,191,0,4,,,,,,,,3,,,34,0
154800,note_on,0,0,2,,,,,,,,1,,,65,64
154800,note_on,145,0,2,,,,,,,,1,,,62,64
154895,note_on,95,0,2,,,,,,,,1,,,65,0
154895,note_on,0,0,2,,,,,,,,1,,,62,0
155040,note_on,289,0,4,,,,,,,,3,,,34,51
155040,note_on,145,0,2,,,,,,,,1,,,68,64
155135,note_on,95,0,2,,,,,,,,1,,,68,0
155135,note_on,95,0,4,,,,,,,,3,,,34,0
155280,note_on,145,0,2,,,,,,,,1,,,56,64
155280,note_on,0,0,2,,,,,,,,1,,,62,64
155280,note_on,0,0,2,,,,,,,,1,,,65,64
155280,note_on,145,0,4,,,,,,,,3,,,34,51
155366,note_on,86,0,4,,,,,,,,3,,,34,0
155366,note_on,0,0,2,,,,,,,,1,,,62,0
155366,note_on,0,0,2,,,,,,,,1,,,56,0
155366,note_on,86,0,2,,,,,,,,1,,,65,0
155520,note_on,154,0,2,,,,,,,,1,,,63,64
155520,note_on,154,0,4,,,,,,,,3,,,39,51
155615,note_on,95,0,2,,,,,,,,1,,,63,0
155711,note_on,191,0,4,,,,,,,,3,,,39,0
155760,note_on,0,0,2,,,,,,,,1,,,58,64
155760,note_on,145,0,2,,,,,,,,1,,,55,64
155855,note_on,0,0,2,,,,,,,,1,,,55,0
155855,note_on,95,0,2,,,,,,,,1,,,58,0
156000,note_on,0,0,4,,,,,,,,3,,,46,51
156000,note_on,289,0,4,,,,,,,,3,,,51,51
156000,note_on,145,0,2,,,,,,,,1,,,67,64
156095,note_on,95,0,2,,,,,,,,1,,,67,0
156191,note_on,0,0,4,,,,,,,,3,,,51,0
156191,note_on,191,0,4,,,,,,,,3,,,46,0
156240,note_on,145,0,2,,,,,,,,1,,,55,64
156240,note_on,0,0,2,,,,,,,,1,,,58,64
156335,note_on,95,0,2,,,,,,,,1,,,58,0
156335,note_on,0,0,2,,,,,,,,1,,,55,0
156480,note_on,289,0,4,,,,,,,,3,,,39,51
156480,note_on,145,0,2,,,,,,,,1,,,63,64
156575,note_on,95,0,2,,,,,,,,1,,,63,0
156671,note_on,191,0,4,,,,,,,,3,,,39,0
156720,note_on,145,0,2,,,,,,,,1,,,55,64
156720,note_on,0,0,2,,,,,,,,1,,,58,64
156815,note_on,95,0,2,,,,,,,,1,,,58,0
156815,note_on,0,0,2,,,,,,,,1,,,55,0
156960,note_on,145,0,2,,,,,,,,1,,,67,64
156960,note_on,289,0,4,,,,,,,,3,,,51,51
156960,note_on,0,0,4,,,,,,,,3,,,46,51
157046,note_on,86,0,4,,,,,,,,3,,,46,0
157046,note_on,0,0,4,,,,,,,,3,,,51,0
157055,note_on,95,0,2,,,,,,,,1,,,67,0
157200,note_on,145,0,2,,,,,,,,1,,,55,64
157200,note_on,0,0,2,,,,,,,,1,,,58,64
157286,note_on,0,0,2,,,,,,,,1,,,55,0
157286,note_on,86,0,2,,,,,,,,1,,,58,0
157440,note_on,154,0,2,,,,,,,,1,,,63,64
157440,note_on,394,0,4,,,,,,,,3,,,39,51
157535,note_on,95,0,2,,,,,,,,1,,,63,0
157631,note_on,191,0,4,,,,,,,,3,,,39,0
157680,note_on,145,0,2,,,,,,,,1,,,55,64
157680,note_on,0,0,2,,,,,,,,1,,,58,64
157775,note_on,95,0,2,,,,,,,,1,,,58,0
157775,note_on,0,0,2,,,,,,,,1,,,55,0
157920,note_on,145,0,2,,,,,,,,1,,,67,64
157920,note_on,289,0,4,,,,,,,,3,,,51,51
157920,note_on,0,0,4,,,,,,,,3,,,46,51
158015,note_on,95,0,2,,,,,,,,1,,,67,0
158160,note_on,0,0,2,,,,,,,,1,,,58,64
158160,note_on,145,0,2,,,,,,,,1,,,55,64
158255,note_on,0,0,2,,,,,,,,1,,,55,0
158255,note_on,95,0,2,,,,,,,,1,,,58,0
158303,note_on,383,0,4,,,,,,,,3,,,46,0
158303,note_on,0,0,4,,,,,,,,3,,,51,0
158400,note_on,145,0,2,,,,,,,,1,,,55,64
158400,note_on,0,0,2,,,,,,,,1,,,58,64
158400,note_on,0,0,2,,,,,,,,1,,,65,64
158495,note_on,95,0,2,,,,,,,,1,,,65,0
158495,note_on,0,0,2,,,,,,,,1,,,58,0
158495,note_on,0,0,2,,,,,,,,1,,,55,0
158640,note_on,145,0,2,,,,,,,,1,,,55,64
158640,note_on,0,0,2,,,,,,,,1,,,58,64
158640,note_on,0,0,2,,,,,,,,1,,,64,64
158735,note_on,95,0,2,,,,,,,,1,,,64,0
158735,note_on,0,0,2,,,,,,,,1,,,58,0
158735,note_on,0,0,2,,,,,,,,1,,,55,0
158880,note_on,577,0,4,,,,,,,,3,,,36,51
158880,note_on,145,0,2,,,,,,,,1,,,55,64
158880,note_on,0,0,2,,,,,,,,1,,,58,64
158880,note_on,0,0,2,,,,,,,,1,,,62,64
158975,note_on,95,0,2,,,,,,,,1,,,62,0
158975,note_on,0,0,2,,,,,,,,1,,,58,0
158975,note_on,0,0,2,,,,,,,,1,,,55,0
158975,note_on,95,0,4,,,,,,,,3,,,36,0
159120,note_on,145,0,2,,,,,,,,1,,,55,64
159120,note_on,0,0,2,,,,,,,,1,,,58,64
159120,note_on,0,0,2,,,,,,,,1,,,64,64
159120,note_on,145,0,4,,,,,,,,3,,,36,51
159206,note_on,0,0,2,,,,,,,,1,,,58,0
159206,note_on,0,0,2,,,,,,,,1,,,55,0
159206,note_on,86,0,4,,,,,,,,3,,,36,0
159206,note_on,86,0,2,,,,,,,,1,,,64,0
159360,note_on,154,0,2,,,,,,,,1,,,65,64
159360,note_on,154,0,4,,,,,,,,3,,,37,51
159455,note_on,95,0,2,,,,,,,,1,,,65,0
159551,note_on,191,0,4,,,,,,,,3,,,37,0
159600,note_on,145,0,2,,,,,,,,1,,,53,64
159600,note_on,0,0,2,,,,,,,,1,,,56,64
159695,note_on,95,0,2,,,,,,,,1,,,56,0
159695,note_on,0,0,2,,,,,,,,1,,,53,0
159840,note_on,289,0,4,,,,,,,,3,,,49,51
159840,note_on,145,0,2,,,,,,,,1,,,68,64
159935,note_on,95,0,2,,,,,,,,1,,,68,0
160031,note_on,191,0,4,,,,,,,,3,,,49,0
160080,note_on,145,0,2,,,,,,,,1,,,56,64
160080,note_on,0,0,2,,,,,,,,1,,,65,64
160175,note_on,0,0,2,,,,,,,,1,,,56,0
160175,note_on,95,0,2,,,,,,,,1,,,65,0
160320,note_on,145,0,2,,,,,,,,1,,,73,64
160320,note_on,289,0,4,,,,,,,,3,,,37,51
160415,note_on,95,0,2,,,,,,,,1,,,73,0
160511,note_on,191,0,4,,,,,,,,3,,,37,0
160560,note_on,145,0,2,,,,,,,,1,,,68,64
160560,note_on,0,0,2,,,,,,,,1,,,65,64
160655,note_on,95,0,2,,,,,,,,1,,,65,0
160655,note_on,0,0,2,,,,,,,,1,,,68,0
160800,note_on,145,0,2,,,,,,,,1,,,77,77
160800,note_on,0,0,4,,,,,,,,3,,,49,51
160800,note_on,0,0,2,,,,,,,,1,,,68,77
160800,note_on,0,0,4,,,,,,,,3,,,56,51
160800,note_on,289,0,4,,,,,,,,3,,,61,51
160800,note_on,0,0,2,,,,,,,,1,,,73,77
160895,note_on,0,0,4,,,,,,,,3,,,56,0
160895,note_on,95,0,4,,,,,,,,3,,,49,0
160895,note_on,0,0,2,,,,,,,,1,,,77,0
160895,note_on,0,0,4,,,,,,,,3,,,61,0
160895,note_on,95,0,2,,,,,,,,1,,,68,0
160895,note_on,0,0,2,,,,,,,,1,,,73,0
161040,note_on,145,0,2,,,,,,,,1,,,80,75
161040,note_on,0,0,2,,,,,,,,1,,,73,75
161040,note_on,0,0,2,,,,,,,,1,,,68,75
161040,note_on,145,0,4,,,,,,,,3,,,61,51
161040,note_on,0,0,4,,,,,,,,3,,,49,51
161040,note_on,0,0,4,,,,,,,,3,,,56,51
161126,note_on,86,0,2,,,,,,,,1,,,68,0
161126,note_on,0,0,4,,,,,,,,3,,,61,0
161126,note_on,86,0,4,,,,,,,,3,,,49,0
161126,note_on,0,0,4,,,,,,,,3,,,56,0
161126,note_on,0,0,2,,,,,,,,1,,,80,0
161126,note_on,0,0,2,,,,,,,,1,,,73,0
161268,set_tempo,11496,1,0,,,,,,347866,,,,,,
161280,note_on,154,0,4,,,,,,,,3,,,60,51
161280,note_on,0,0,4,,,,,,,,3,,,51,51
161280,note_on,0,0,2,,,,,,,,1,,,75,65
161280,note_on,154,0,2,,,,,,,,1,,,72,65
161280,note_on,0,0,4,,,,,,,,3,,,56,51
161317,set_tempo,49,1,0,,,,,,348837,,,,,,
161351,set_tempo,34,1,0,,,,,,349813,,,,,,
161375,note_on,95,0,2,,,,,,,,1,,,75,0
161375,note_on,0,0,2,,,,,,,,1,,,72,0
161384,set_tempo,33,1,0,,,,,,350795,,,,,,
161417,set_tempo,33,1,0,,,,,,351782,,,,,,
161450,set_tempo,33,1,0,,,,,,352775,,,,,,
161471,note_on,0,0,4,,,,,,,,3,,,56,0
161471,note_on,191,0,4,,,,,,,,3,,,51,0
161471,note_on,0,0,4,,,,,,,,3,,,60,0
161483,set_tempo,33,1,0,,,,,,353774,,,,,,
161516,set_tempo,33,1,0,,,,,,354778,,,,,,
161520,note_on,145,0,2,,,,,,,,1,,,63,66
161549,set_tempo,33,1,0,,,,,,355787,,,,,,
161582,set_tempo,33,1,0,,,,,,356803,,,,,,
161615,note_on,95,0,2,,,,,,,,1,,,63,0
161615,set_tempo,33,1,0,,,,,,357824,,,,,,
161649,set_tempo,34,1,0,,,,,,358852,,,,,,
161682,set_tempo,33,1,0,,,,,,359885,,,,,,
161715,set_tempo,33,1,0,,,,,,360924,,,,,,
161748,set_tempo,33,1,0,,,,,,361969,,,,,,
161760,note_on,0,0,4,,,,,,,,3,,,51,51
161760,note_on,289,0,4,,,,,,,,3,,,61,51
161760,note_on,0,0,4,,,,,,,,3,,,58,51
161760,note_on,0,0,2,,,,,,,,1,,,73,64
161760,note_on,145,0,2,,,,,,,,1,,,70,64
161797,set_tempo,49,1,0,,,,,,363020,,,,,,
161831,set_tempo,34,1,0,,,,,,364078,,,,,,
161855,note_on,0,0,2,,,,,,,,1,,,70,0
161855,note_on,95,0,2,,,,,,,,1,,,73,0
161864,set_tempo,33,1,0,,,,,,365141,,,,,,
161897,set_tempo,33,1,0,,,,,,366211,,,,,,
161930,set_tempo,33,1,0,,,,,,367287,,,,,,
161951,note_on,191,0,4,,,,,,,,3,,,51,0
161951,note_on,0,0,4,,,,,,,,3,,,58,0
161951,note_on,0,0,4,,,,,,,,3,,,61,0
161963,set_tempo,33,1,0,,,,,,368369,,,,,,
161996,set_tempo,33,1,0,,,,,,369458,,,,,,
162000,note_on,145,0,2,,,,,,,,1,,,63,64
162029,set_tempo,33,1,0,,,,,,370553,,,,,,
162062,set_tempo,33,1,0,,,,,,371655,,,,,,
162095,note_on,95,0,2,,,,,,,,1,,,63,0
162095,set_tempo,33,1,0,,,,,,372763,,,,,,
162129,set_tempo,34,1,0,,,,,,373878,,,,,,
162162,set_tempo,33,1,0,,,,,,375000,,,,,,
162195,set_tempo,33,1,0,,,,,,376128,,,,,,
162228,set_tempo,33,1,0,,,,,,377264,,,,,,
162240,note_on,145,0,2,,,,,,,,1,,,68,64
162240,note_on,0,0,2,,,,,,,,1,,,72,64
162240,note_on,0,0,4,,,,,,,,3,,,51,51
162240,note_on,0,0,4,,,,,,,,3,,,56,51
162240,note_on,289,0,4,,,,,,,,3,,,60,51
162277,set_tempo,49,1,0,,,,,,378406,,,,,,
162311,set_tempo,34,1,0,,,,,,379555,,,,,,
162335,note_on,95,0,2,,,,,,,,1,,,72,0
162335,note_on,0,0,2,,,,,,,,1,,,68,0
162344,set_tempo,33,1,0,,,,,,380711,,,,,,
162377,set_tempo,33,1,0,,,,,,381874,,,,,,
162410,set_tempo,33,1,0,,,,,,383044,,,,,,
162431,note_on,0,0,4,,,,,,,,3,,,56,0
162431,note_on,0,0,4,,,,,,,,3,,,60,0
162431,note_on,191,0,4,,,,,,,,3,,,51,0
162443,set_tempo,33,1,0,,,,,,384221,,,,,,
162476,set_tempo,33,1,0,,,,,,385406,,,,,,
162480,note_on,145,0,2,,,,,,,,1,,,63,64
162509,set_tempo,33,1,0,,,,,,386598,,,,,,
162542,set_tempo,33,1,0,,,,,,387797,,,,,,
162575,set_tempo,33,1,0,,,,,,389004,,,,,,
162575,note_on,95,0,2,,,,,,,,1,,,63,0
162609,set_tempo,34,1,0,,,,,,390219,,,,,,
162642,set_tempo,33,1,0,,,,,,391441,,,,,,
162675,set_tempo,33,1,0,,,,,,392670,,,,,,
162708,set_tempo,33,1,0,,,,,,393908,,,,,,
162720,note_on,145,0,2,,,,,,,,1,,,67,64
162720,note_on,289,0,4,,,,,,,,3,,,58,51
162720,note_on,0,0,4,,,,,,,,3,,,55,51
162720,note_on,0,0,4,,,,,,,,3,,,51,51
162720,note_on,0,0,2,,,,,,,,1,,,70,64
162757,set_tempo,49,1,0,,,,,,395153,,,,,,
162791,set_tempo,34,1,0,,,,,,396406,,,,,,
162806,note_on,0,0,4,,,,,,,,3,,,55,0
162806,note_on,0,0,4,,,,,,,,3,,,58,0
162806,note_on,86,0,4,,,,,,,,3,,,51,0
162815,note_on,0,0,2,,,,,,,,1,,,67,0
162815,note_on,95,0,2,,,,,,,,1,,,70,0
162824,set_tempo,33,1,0,,,,,,397667,,,,,,
162857,set_tempo,33,1,0,,,,,,398936,,,,,,
162890,set_tempo,33,1,0,,,,,,400213,,,,,,
162923,set_tempo,33,1,0,,,,,,401499,,,,,,
162956,set_tempo,33,1,0,,,,,,402793,,,,,,
162960,note_on,0,0,2,,,,,,,,1,,,75,64
162960,note_on,145,0,2,,,,,,,,1,,,63,64
162989,set_tempo,33,1,0,,,,,,404095,,,,,,
163022,set_tempo,33,1,0,,,,,,405405,,,,,,
163046,note_on,0,0,2,,,,,,,,1,,,63,0
163046,note_on,86,0,2,,,,,,,,1,,,75,0
163055,set_tempo,33,1,0,,,,,,406725,,,,,,
163089,set_tempo,34,1,0,,,,,,408052,,,,,,
163122,set_tempo,33,1,0,,,,,,409389,,,,,,
163155,set_tempo,33,1,0,,,,,,410734,,,,,,
163171,set_tempo,16,1,0,,,,,,413451,,,,,,
163200,control_change,154,0,2,,,,,,,,1,64,127,,
163200,control_change,17328,0,1,,,,,,,,0,64,127,,
163200,note_on,0,0,1,,,,,,,,0,,,68,60
163200,note_on,0,0,4,,,,,,,,3,,,51,40
163200,note_on,0,0,4,,,,,,,,3,,,60,40
163200,control_change,394,0,4,,,,,,,,3,64,127,,
163200,note_on,0,0,4,,,,,,,,3,,,44,40
163221,set_tempo,50,1,0,,,,,,414823,,,,,,
163271,set_tempo,50,1,0,,,,,,416204,,,,,,
163320,set_tempo,49,1,0,,,,,,417595,,,,,,
163320,note_on,120,0,1,,,,,,,,0,,,75,65
163353,set_tempo,33,1,0,,,,,,418994,,,,,,
163403,set_tempo,50,1,0,,,,,,420404,,,,,,
163439,note_on,0,0,4,,,,,,,,3,,,51,0
163439,note_on,0,0,4,,,,,,,,3,,,60,0
163439,note_on,239,0,4,,,,,,,,3,,,44,0
163440,note_on,120,0,1,,,,,,,,0,,,84,71
163440,note_on,1,0,4,,,,,,,,3,,,51,40
163440,note_on,0,0,4,,,,,,,,3,,,48,40
163453,set_tempo,50,1,0,,,,,,421822,,,,,,
163502,set_tempo,49,1,0,,,,,,423251,,,,,,
163535,set_tempo,33,1,0,,,,,,424689,,,,,,
163535,note_on,95,0,4,,,,,,,,3,,,48,0
163535,note_on,0,0,4,,,,,,,,3,,,51,0
163585,set_tempo,50,1,0,,,,,,426136,,,,,,
163635,set_tempo,50,1,0,,,,,,427594,,,,,,
163680,note_on,145,0,4,,,,,,,,3,,,60,40
163684,set_tempo,49,1,0,,,,,,429062,,,,,,
163717,set_tempo,33,1,0,,,,,,430540,,,,,,
163767,set_tempo,50,1,0,,,,,,432028,,,,,,
163775,note_on,95,0,4,,,,,,,,3,,,60,0
163817,set_tempo,50,1,0,,,,,,433526,,,,,,
163866,set_tempo,49,1,0,,,,,,435035,,,,,,
163900,set_tempo,34,1,0,,,,,,436554,,,,,,
163920,note_on,145,0,4,,,,,,,,3,,,51,40
163920,note_on,0,0,4,,,,,,,,3,,,48,40
163949,set_tempo,49,1,0,,,,,,438084,,,,,,
163999,set_tempo,50,1,0,,,,,,439625,,,,,,
164049,set_tempo,50,1,0,,,,,,441176,,,,,,
164082,set_tempo,33,1,0,,,,,,442739,,,,,,
164112,note_on,672,0,1,,,,,,,,0,,,84,0
164112,note_on,0,0,1,,,,,,,,0,,,75,0
164112,note_on,0,0,1,,,,,,,,0,,,68,0
164131,set_tempo,49,1,0,,,,,,444313,,,,,,
164160,note_on,960,0,2,,,,,,,,1,,,68,38
164160,control_change,48,0,1,,,,,,,,0,64,0,,
164164,set_tempo,33,1,0,,,,,,444313,,,,,,
164207,note_on,287,0,4,,,,,,,,3,,,48,0
164207,note_on,0,0,4,,,,,,,,3,,,51,0
164255,note_on,95,0,2,,,,,,,,1,,,68,0
164400,note_on,145,0,2,,,,,,,,1,,,60,38
164400,note_on,0,0,2,,,,,,,,1,,,63,38
164495,note_on,95,0,2,,,,,,,,1,,,63,0
164495,note_on,0,0,2,,,,,,,,1,,,60,0
164640,note_on,433,0,4,,,,,,,,3,,,44,39
164640,note_on,0,0,4,,,,,,,,3,,,51,39
164640,note_on,145,0,2,,,,,,,,1,,,72,38
164661,set_tempo,497,1,0,,,,,,445898,,,,,,
164735,note_on,0,0,4,,,,,,,,3,,,44,0
164735,note_on,95,0,4,,,,,,,,3,,,51,0
164735,note_on,95,0,2,,,,,,,,1,,,72,0
164880,note_on,145,0,4,,,,,,,,3,,,44,43
164880,note_on,145,0,2,,,,,,,,1,,,60,38
164880,note_on,0,0,2,,,,,,,,1,,,63,38
164880,note_on,93408,0,3,,,,,,,,2,,,51,51
164966,note_on,86,0,2,,,,,,,,1,,,63,0
164966,note_on,0,0,2,,,,,,,,1,,,60,0
164966,note_on,86,0,4,,,,,,,,3,,,44,0
165096,note_on,216,0,3,,,,,,,,2,,,51,0
165120,control_change,24,0,3,,,,,,,,2,64,127,,
165120,note_on,0,0,4,,,,,,,,3,,,44,47
165120,control_change,154,0,4,,,,,,,,3,64,0,,
165120,note_on,0,0,3,,,,,,,,2,,,51,51
165120,note_on,0,0,2,,,,,,,,1,,,72,38
165120,control_change,154,0,2,,,,,,,,1,64,0,,
165120,control_change,960,0,1,,,,,,,,0,64,127,,
165120,note_on,0,0,1,,,,,,,,0,,,72,64
165157,set_tempo,496,1,0,,,,,,447494,,,,,,
165215,note_on,95,0,2,,,,,,,,1,,,72,0
165311,note_on,191,0,4,,,,,,,,3,,,44,0
165360,note_on,0,0,2,,,,,,,,1,,,63,37
165360,note_on,145,0,2,,,,,,,,1,,,60,37
165455,note_on,95,0,2,,,,,,,,1,,,63,0
165455,note_on,0,0,2,,,,,,,,1,,,60,0
165599,note_on,479,0,3,,,,,,,,2,,,51,0
165599,note_on,479,0,1,,,,,,,,0,,,72,0
165600,note_on,145,0,2,,,,,,,,1,,,70,37
165600,note_on,1,0,1,,,,,,,,0,,,70,73
165600,note_on,289,0,4,,,,,,,,3,,,55,40
165600,note_on,1,0,3,,,,,,,,2,,,55,62
165695,note_on,95,0,2,,,,,,,,1,,,70,0
165791,note_on,191,0,4,,,,,,,,3,,,55,0
165839,note_on,239,0,3,,,,,,,,2,,,55,0
165839,note_on,239,0,1,,,,,,,,0,,,70,0
165840,note_on,0,0,2,,,,,,,,1,,,63,37
165840,note_on,1,0,3,,,,,,,,2,,,56,54
165840,note_on,1,0,1,,,,,,,,0,,,68,71
165840,note_on,0,0,2,,,,,,,,1,,,68,37
165840,note_on,145,0,2,,,,,,,,1,,,60,37
165935,note_on,0,0,2,,,,,,,,1,,,60,0
165935,note_on,0,0,2,,,,,,,,1,,,63,0
165935,note_on,95,0,2,,,,,,,,1,,,68,0
166032,control_change,97,0,2,,,,,,,,1,64,127,,
166079,note_on,239,0,1,,,,,,,,0,,,68,0
166079,note_on,239,0,3,,,,,,,,2,,,56,0
166080,control_change,1,0,3,,,,,,,,2,64,0,,
166080,note_on,0,0,3,,,,,,,,2,,,55,60
166080,control_change,1,0,1,,,,,,,,0,64,0,,
166080,note_on,0,0,1,,,,,,,,0,,,70,68
166080,note_on,48,0,2,,,,,,,,1,,,67,37
166080,note_on,289,0,4,,,,,,,,3,,,44,40
166175,note_on,95,0,2,,,,,,,,1,,,67,0
166271,note_on,191,0,4,,,,,,,,3,,,44,0
166320,note_on,145,0,2,,,,,,,,1,,,61,36
166320,note_on,0,0,2,,,,,,,,1,,,63,36
166415,note_on,0,0,2,,,,,,,,1,,,61,0
166415,note_on,95,0,2,,,,,,,,1,,,63,0
166559,note_on,479,0,1,,,,,,,,0,,,70,0
166559,note_on,479,0,3,,,,,,,,2,,,55,0
166560,note_on,1,0,1,,,,,,,,0,,,68,68
166560,note_on,289,0,4,,,,,,,,3,,,51,40
166560,note_on,1,0,3,,,,,,,,2,,,56,60
166560,note_on,145,0,2,,,,,,,,1,,,68,36
166646,note_on,86,0,4,,,,,,,,3,,,51,0
166655,note_on,95,0,2,,,,,,,,1,,,68,0
166799,note_on,239,0,1,,,,,,,,0,,,68,0
166799,note_on,239,0,3,,,,,,,,2,,,56,0
166800,note_on,145,0,2,,,,,,,,1,,,61,36
166800,note_on,0,0,2,,,,,,,,1,,,63,36
166800,note_on,0,0,2,,,,,,,,1,,,67,36
166800,note_on,1,0,1,,,,,,,,0,,,67,72
166800,note_on,1,0,3,,,,,,,,2,,,58,55
166886,note_on,0,0,2,,,,,,,,1,,,63,0
166886,note_on,0,0,2,,,,,,,,1,,,61,0
166886,note_on,86,0,2,,,,,,,,1,,,67,0
166992,control_change,106,0,2,,,,,,,,1,64,0,,
167016,note_on,216,0,3,,,,,,,,2,,,58,0
167016,note_on,216,0,1,,,,,,,,0,,,67,0
167040,note_on,394,0,4,,,,,,,,3,,,44,40
167040,note_on,48,0,2,,,,,,,,1,,,68,36
167040,note_on,0,0,1,,,,,,,,0,,,68,76
167040,control_change,24,0,1,,,,,,,,0,64,127,,
167040,control_change,24,0,3,,,,,,,,2,64,127,,
167040,note_on,0,0,3,,,,,,,,2,,,60,60
167279,note_on,239,0,2,,,,,,,,1,,,68,0
167280,note_on,0,0,2,,,,,,,,1,,,63,36
167280,note_on,1,0,2,,,,,,,,1,,,60,36
167472,note_on,432,0,3,,,,,,,,2,,,60,0
167519,note_on,239,0,2,,,,,,,,1,,,63,0
167519,note_on,0,0,2,,,,,,,,1,,,60,0
167520,note_on,1,0,2,,,,,,,,1,,,63,35
167520,note_on,0,0,2,,,,,,,,1,,,72,35
167759,note_on,0,0,2,,,,,,,,1,,,63,0
167759,note_on,239,0,2,,,,,,,,1,,,72,0
167760,note_on,1,0,2,,,,,,,,1,,,60,35
167760,note_on,0,0,2,,,,,,,,1,,,63,35
167999,note_on,239,0,2,,,,,,,,1,,,63,0
167999,note_on,0,0,2,,,,,,,,1,,,60,0
168000,control_change,960,0,1,,,,,,,,0,64,0,,
168000,control_change,528,0,3,,,,,,,,2,64,0,,
168000,note_on,1,0,2,,,,,,,,1,,,60,35
168000,note_on,0,0,2,,,,,,,,1,,,68,35
168239,note_on,239,0,2,,,,,,,,1,,,68,0
168239,note_on,0,0,2,,,,,,,,1,,,60,0
168240,note_on,1,0,2,,,,,,,,1,,,60,35
168240,note_on,0,0,2,,,,,,,,1,,,63,35
168479,note_on,239,0,2,,,,,,,,1,,,63,0
168479,note_on,0,0,2,,,,,,,,1,,,60,0
168479,note_on,1439,0,4,,,,,,,,3,,,44,0
168480,note_on,1,0,2,,,,,,,,1,,,72,35
168480,note_on,1,0,4,,,,,,,,3,,,36,40
168696,note_on,216,0,2,,,,,,,,1,,,72,0
168719,note_on,239,0,4,,,,,,,,3,,,36,0
168719,note_on,719,0,1,,,,,,,,0,,,68,0
168720,note_on,0,0,1,,,,,,,,0,,,72,64
168720,note_on,0,0,1,,,,,,,,0,,,75,64
168720,note_on,1,0,1,,,,,,,,0,,,84,64
168720,note_on,1,0,4,,,,,,,,3,,,36,46
168936,note_on,0,0,1,,,,,,,,0,,,84,0
168936,note_on,0,0,1,,,,,,,,0,,,75,0
168936,note_on,216,0,1,,,,,,,,0,,,72,0
168936,note_on,216,0,4,,,,,,,,3,,,36,0
168946,set_tempo,3789,1,0,,,,,,450721,,,,,,
168960,note_on,0,0,4,,,,,,,,3,,,51,52
168960,note_on,0,0,4,,,,,,,,3,,,44,52
168960,control_change,264,0,2,,,,,,,,1,64,127,,
168960,note_on,0,0,1,,,,,,,,0,,,87,64
168960,control_change,24,0,1,,,,,,,,0,64,127,,
168960,note_on,0,0,2,,,,,,,,1,,,72,40
168960,control_change,24,0,4,,,,,,,,3,64,127,,
168960,note_on,0,0,2,,,,,,,,1,,,80,40
169045,set_tempo,99,1,0,,,,,,449102,,,,,,
169128,set_tempo,83,1,0,,,,,,447494,,,,,,
169199,note_on,239,0,2,,,,,,,,1,,,72,0
169199,note_on,0,0,2,,,,,,,,1,,,80,0
169200,note_on,1,0,2,,,,,,,,1,,,63,40
169200,note_on,0,0,2,,,,,,,,1,,,60,40
169227,set_tempo,99,1,0,,,,,,445898,,,,,,
169310,set_tempo,83,1,0,,,,,,444313,,,,,,
169393,set_tempo,83,1,0,,,,,,442739,,,,,,
169439,note_on,239,0,2,,,,,,,,1,,,60,0
169439,note_on,479,0,4,,,,,,,,3,,,44,0
169439,note_on,0,0,4,,,,,,,,3,,,51,0
169439,note_on,0,0,2,,,,,,,,1,,,63,0
169440,note_on,1,0,2,,,,,,,,1,,,72,40
169440,note_on,1,0,4,,,,,,,,3,,,63,40
169440,note_on,0,0,4,,,,,,,,3,,,56,40
169440,note_on,0,0,4,,,,,,,,3,,,51,40
169492,set_tempo,99,1,0,,,,,,441176,,,,,,
169575,set_tempo,83,1,0,,,,,,439625,,,,,,
169674,set_tempo,99,1,0,,,,,,438084,,,,,,
169679,note_on,239,0,2,,,,,,,,1,,,72,0
169680,note_on,0,0,2,,,,,,,,1,,,60,40
169680,note_on,1,0,2,,,,,,,,1,,,63,40
169757,set_tempo,83,1,0,,,,,,436554,,,,,,
169840,set_tempo,83,1,0,,,,,,435035,,,,,,
169919,note_on,479,0,4,,,,,,,,3,,,51,0
169919,note_on,0,0,4,,,,,,,,3,,,56,0
169919,note_on,239,0,2,,,,,,,,1,,,60,0
169919,note_on,0,0,2,,,,,,,,1,,,63,0
169919,note_on,0,0,4,,,,,,,,3,,,63,0
169920,control_change,1,0,4,,,,,,,,3,64,0,,
169920,note_on,0,0,4,,,,,,,,3,,,58,40
169920,note_on,0,0,4,,,,,,,,3,,,44,40
169920,control_change,1,0,2,,,,,,,,1,64,0,,
169920,control_change,960,0,1,,,,,,,,0,64,0,,
169920,note_on,0,0,2,,,,,,,,1,,,67,40
169939,set_tempo,99,1,0,,,,,,433526,,,,,,
170022,set_tempo,83,1,0,,,,,,432028,,,,,,
170104,set_tempo,82,1,0,,,,,,430540,,,,,,
170159,note_on,239,0,2,,,,,,,,1,,,67,0
170160,note_on,0,0,2,,,,,,,,1,,,63,40
170160,note_on,1,0,2,,,,,,,,1,,,61,40
170204,set_tempo,100,1,0,,,,,,429062,,,,,,
170286,set_tempo,82,1,0,,,,,,427594,,,,,,
170386,set_tempo,100,1,0,,,,,,426136,,,,,,
170399,note_on,479,0,4,,,,,,,,3,,,44,0
170399,note_on,0,0,4,,,,,,,,3,,,58,0
170399,note_on,239,0,2,,,,,,,,1,,,63,0
170399,note_on,0,0,2,,,,,,,,1,,,61,0
170400,note_on,0,0,4,,,,,,,,3,,,51,40
170400,note_on,0,0,4,,,,,,,,3,,,55,40
170400,note_on,1,0,4,,,,,,,,3,,,63,40
170400,note_on,1,0,2,,,,,,,,1,,,70,40
170469,set_tempo,83,1,0,,,,,,424689,,,,,,
170551,set_tempo,82,1,0,,,,,,423251,,,,,,
170616,note_on,0,0,4,,,,,,,,3,,,63,0
170616,note_on,0,0,4,,,,,,,,3,,,55,0
170616,note_on,216,0,4,,,,,,,,3,,,51,0
170639,note_on,239,0,2,,,,,,,,1,,,70,0
170640,note_on,1,0,2,,,,,,,,1,,,61,40
170640,note_on,0,0,2,,,,,,,,1,,,63,40
170651,set_tempo,100,1,0,,,,,,421822,,,,,,
170688,note_on,768,0,1,,,,,,,,0,,,87,0
170733,set_tempo,82,1,0,,,,,,420404,,,,,,
170816,set_tempo,83,1,0,,,,,,418994,,,,,,
170856,note_on,216,0,2,,,,,,,,1,,,63,0
170856,note_on,0,0,2,,,,,,,,1,,,61,0
170880,control_change,24,0,2,,,,,,,,1,64,127,,
170880,note_on,0,0,2,,,,,,,,1,,,68,40
170880,note_on,0,0,4,,,,,,,,3,,,44,40
170880,note_on,264,0,4,,,,,,,,3,,,60,40
171119,note_on,239,0,2,,,,,,,,1,,,68,0
171120,note_on,0,0,2,,,,,,,,1,,,63,40
171120,note_on,1,0,2,,,,,,,,1,,,60,40
171359,note_on,239,0,2,,,,,,,,1,,,63,0
171359,note_on,0,0,2,,,,,,,,1,,,60,0
171360,note_on,0,0,2,,,,,,,,1,,,72,40
171360,note_on,1,0,2,,,,,,,,1,,,63,40
171599,note_on,239,0,2,,,,,,,,1,,,72,0
171599,note_on,0,0,2,,,,,,,,1,,,63,0
171600,note_on,0,0,2,,,,,,,,1,,,63,40
171600,note_on,1,0,2,,,,,,,,1,,,60,40
171839,note_on,239,0,2,,,,,,,,1,,,63,0
171839,note_on,0,0,2,,,,,,,,1,,,60,0
171840,control_change,1,0,2,,,,,,,,1,64,0,,
171840,note_on,0,0,2,,,,,,,,1,,,60,40
171840,note_on,0,0,2,,,,,,,,1,,,68,40
172079,note_on,0,0,2,,,,,,,,1,,,60,0
172079,note_on,239,0,2,,,,,,,,1,,,68,0
172080,control_change,1392,0,1,,,,,,,,0,64,127,,
172080,note_on,0,0,2,,,,,,,,1,,,63,40
172080,note_on,1,0,2,,,,,,,,1,,,60,40
172319,note_on,0,0,2,,,,,,,,1,,,60,0
172319,note_on,239,0,2,,,,,,,,1,,,63,0
172319,note_on,1439,0,4,,,,,,,,3,,,44,0
172319,note_on,0,0,4,,,,,,,,3,,,60,0
172320,note_on,1,0,4,,,,,,,,3,,,44,52
172320,note_on,0,0,4,,,,,,,,3,,,51,52
172320,note_on,0,0,2,,,,,,,,1,,,60,40
172320,note_on,1,0,2,,,,,,,,1,,,56,40
172320,note_on,240,0,1,,,,,,,,0,,,68,64
172559,note_on,0,0,2,,,,,,,,1,,,56,0
172559,note_on,239,0,4,,,,,,,,3,,,51,0
172559,note_on,239,0,2,,,,,,,,1,,,60,0
172559,note_on,0,0,4,,,,,,,,3,,,44,0
172560,note_on,0,0,2,,,,,,,,1,,,63,40
172560,note_on,0,0,4,,,,,,,,3,,,51,48
172560,note_on,1,0,2,,,,,,,,1,,,60,40
172560,note_on,1,0,4,,,,,,,,3,,,44,48
172752,note_on,432,0,1,,,,,,,,0,,,68,0
172776,note_on,0,0,2,,,,,,,,1,,,60,0
172776,note_on,216,0,2,,,,,,,,1,,,63,0
172776,note_on,216,0,4,,,,,,,,3,,,51,0
172776,note_on,0,0,4,,,,,,,,3,,,44,0
172800,note_on,24,0,4,,,,,,,,3,,,39,43
172800,note_on,0,0,3,,,,,,,,2,,,55,73
172800,note_on,0,0,3,,,,,,,,2,,,46,73
172800,control_change,4800,0,3,,,,,,,,2,64,127,,
172800,note_on,24,0,2,,,,,,,,1,,,67,58
172895,note_on,95,0,2,,,,,,,,1,,,67,0
172991,note_on,191,0,3,,,,,,,,2,,,46,0
172991,note_on,0,0,3,,,,,,,,2,,,55,0
173040,note_on,0,0,2,,,,,,,,1,,,63,36
173040,note_on,145,0,2,,,,,,,,1,,,61,36
173040,control_change,288,0,1,,,,,,,,0,64,0,,
173135,note_on,95,0,2,,,,,,,,1,,,63,0
173135,note_on,0,0,2,,,,,,,,1,,,61,0
173280,note_on,145,0,2,,,,,,,,1,,,70,63
173280,note_on,289,0,3,,,,,,,,2,,,58,64
173280,note_on,0,0,3,,,,,,,,2,,,49,64
173375,note_on,95,0,3,,,,,,,,2,,,49,0
173375,note_on,95,0,2,,,,,,,,1,,,70,0
173375,note_on,0,0,3,,,,,,,,2,,,58,0
173520,note_on,0,0,2,,,,,,,,1,,,63,40
173520,note_on,145,0,3,,,,,,,,2,,,58,67
173520,note_on,0,0,3,,,,,,,,2,,,49,67
173520,note_on,145,0,2,,,,,,,,1,,,61,40
173615,note_on,95,0,2,,,,,,,,1,,,63,0
173615,note_on,0,0,3,,,,,,,,2,,,58,0
173615,note_on,0,0,2,,,,,,,,1,,,61,0
173615,note_on,95,0,3,,,,,,,,2,,,49,0
173759,note_on,959,0,4,,,,,,,,3,,,39,0
173760,note_on,0,0,3,,,,,,,,2,,,55,71
173760,note_on,0,0,3,,,,,,,,2,,,46,71
173760,control_change,145,0,3,,,,,,,,2,64,0,,
173760,note_on,1,0,4,,,,,,,,3,,,39,51
173760,control_change,145,0,2,,,,,,,,1,64,127,,
173760,note_on,0,0,2,,,,,,,,1,,,77,74
173855,note_on,95,0,2,,,,,,,,1,,,77,0
173951,note_on,0,0,3,,,,,,,,2,,,55,0
173951,note_on,191,0,3,,,,,,,,2,,,46,0
174000,note_on,145,0,2,,,,,,,,1,,,61,40
174000,note_on,0,0,2,,,,,,,,1,,,63,40
174095,note_on,0,0,2,,,,,,,,1,,,61,0
174095,note_on,95,0,2,,,,,,,,1,,,63,0
174192,note_on,432,0,4,,,,,,,,3,,,39,0
174240,note_on,0,0,3,,,,,,,,2,,,51,70
174240,note_on,289,0,3,,,,,,,,2,,,43,70
174240,note_on,145,0,2,,,,,,,,1,,,75,61
174335,note_on,95,0,3,,,,,,,,2,,,51,0
174335,note_on,95,0,2,,,,,,,,1,,,75,0
174335,note_on,0,0,3,,,,,,,,2,,,43,0
174480,note_on,145,0,3,,,,,,,,2,,,43,73
174480,note_on,145,0,2,,,,,,,,1,,,61,40
174480,note_on,0,0,2,,,,,,,,1,,,63,40
174480,note_on,0,0,3,,,,,,,,2,,,51,73
174566,note_on,86,0,2,,,,,,,,1,,,63,0
174566,note_on,0,0,2,,,,,,,,1,,,61,0
174566,note_on,86,0,3,,,,,,,,2,,,51,0
174566,note_on,0,0,3,,,,,,,,2,,,43,0
174720,note_on,528,0,4,,,,,,,,3,,,44,40
174720,control_change,154,0,2,,,,,,,,1,64,0,,
174720,note_on,0,0,2,,,,,,,,1,,,75,70
174720,control_change,154,0,3,,,,,,,,2,64,127,,
174720,note_on,0,0,3,,,,,,,,2,,,56,76
174720,note_on,0,0,3,,,,,,,,2,,,48,76
174815,note_on,95,0,2,,,,,,,,1,,,75,0
174827,control_change,12,0,2,,,,,,,,1,64,127,,
174960,note_on,0,0,2,,,,,,,,1,,,60,40
174960,note_on,133,0,2,,,,,,,,1,,,68,40
175055,note_on,95,0,2,,,,,,,,1,,,60,0
175055,note_on,0,0,2,,,,,,,,1,,,68,0
175199,note_on,0,0,3,,,,,,,,2,,,56,0
175199,note_on,479,0,3,,,,,,,,2,,,48,0
175199,note_on,479,0,4,,,,,,,,3,,,44,0
175200,note_on,0,0,3,,,,,,,,2,,,51,66
175200,note_on,1,0,4,,,,,,,,3,,,51,40
175200,note_on,1,0,3,,,,,,,,2,,,60,66
175200,note_on,145,0,2,,,,,,,,1,,,80,61
175295,note_on,95,0,2,,,,,,,,1,,,80,0
175439,note_on,239,0,3,,,,,,,,2,,,51,0
175439,note_on,0,0,3,,,,,,,,2,,,60,0
175440,note_on,0,0,2,,,,,,,,1,,,68,33
175440,note_on,1,0,3,,,,,,,,2,,,63,71
175440,note_on,0,0,3,,,,,,,,2,,,56,71
175440,note_on,145,0,2,,,,,,,,1,,,75,33
175535,note_on,0,0,2,,,,,,,,1,,,75,0
175535,note_on,95,0,2,,,,,,,,1,,,68,0
175679,note_on,479,0,4,,,,,,,,3,,,51,0
175679,note_on,239,0,3,,,,,,,,2,,,56,0
175679,note_on,0,0,3,,,,,,,,2,,,63,0
175680,note_on,145,0,2,,,,,,,,1,,,87,64
175680,note_on,0,0,3,,,,,,,,2,,,51,76
175680,note_on,0,0,3,,,,,,,,2,,,60,76
175680,control_change,1,0,3,,,,,,,,2,64,0,,
175680,note_on,1,0,4,,,,,,,,3,,,44,40
175775,note_on,95,0,2,,,,,,,,1,,,87,0
175920,note_on,0,0,2,,,,,,,,1,,,68,36
175920,note_on,145,0,2,,,,,,,,1,,,75,36
176015,note_on,0,0,2,,,,,,,,1,,,75,0
176015,note_on,95,0,2,,,,,,,,1,,,68,0
176159,note_on,479,0,4,,,,,,,,3,,,44,0
176160,note_on,145,0,2,,,,,,,,1,,,89,36
176160,note_on,1,0,4,,,,,,,,3,,,51,40
176255,note_on,95,0,2,,,,,,,,1,,,89,0
176376,note_on,216,0,4,,,,,,,,3,,,51,0
176399,note_on,0,0,3,,,,,,,,2,,,60,0
176399,note_on,719,0,3,,,,,,,,2,,,51,0
176400,note_on,145,0,2,,,,,,,,1,,,80,40
176400,note_on,0,0,3,,,,,,,,2,,,56,80
176400,note_on,0,0,3,,,,,,,,2,,,51,80
176400,note_on,0,0,2,,,,,,,,1,,,72,40
176400,note_on,1,0,3,,,,,,,,2,,,60,80
176427,control_change,27,0,2,,,,,,,,1,64,0,,
176486,note_on,59,0,2,,,,,,,,1,,,72,0
176486,note_on,0,0,2,,,,,,,,1,,,80,0
176602,set_tempo,5786,1,0,,,,,,418994,,,,,,
176616,note_on,216,0,3,,,,,,,,2,,,51,0
176616,note_on,0,0,3,,,,,,,,2,,,56,0
176616,note_on,0,0,3,,,,,,,,2,,,60,0
176640,note_on,0,0,4,,,,,,,,3,,,44,40
176640,control_change,264,0,4,,,,,,,,3,64,127,,
176640,control_change,154,0,2,,,,,,,,1,64,127,,
176640,note_on,0,0,2,,,,,,,,1,,,87,61
176640,note_on,0,0,3,,,,,,,,2,,,53,85
176640,note_on,0,0,3,,,,,,,,2,,,44,85
176640,note_on,0,0,3,,,,,,,,2,,,61,85
176640,control_change,24,0,3,,,,,,,,2,64,127,,
176735,note_on,95,0,2,,,,,,,,1,,,87,0
176880,note_on,0,0,2,,,,,,,,1,,,68,40
176880,note_on,145,0,2,,,,,,,,1,,,77,40
176975,note_on,0,0,2,,,,,,,,1,,,77,0
176975,note_on,95,0,2,,,,,,,,1,,,68,0
177119,note_on,0,0,3,,,,,,,,2,,,61,0
177119,note_on,0,0,3,,,,,,,,2,,,53,0
177119,note_on,479,0,3,,,,,,,,2,,,44,0
177120,note_on,0,0,3,,,,,,,,2,,,49,86
177120,note_on,1,0,3,,,,,,,,2,,,56,86
177120,note_on,0,0,3,,,,,,,,2,,,53,86
177120,note_on,145,0,2,,,,,,,,1,,,92,61
177215,note_on,95,0,2,,,,,,,,1,,,92,0
177359,note_on,239,0,3,,,,,,,,2,,,49,0
177359,note_on,0,0,3,,,,,,,,2,,,53,0
177359,note_on,0,0,3,,,,,,,,2,,,56,0
177360,note_on,145,0,2,,,,,,,,1,,,85,61
177360,note_on,0,0,2,,,,,,,,1,,,77,51
177360,note_on,1,0,3,,,,,,,,2,,,56,88
177360,note_on,0,0,3,,,,,,,,2,,,53,88
177360,note_on,0,0,3,,,,,,,,2,,,49,88
177455,note_on,95,0,2,,,,,,,,1,,,77,0
177455,note_on,0,0,2,,,,,,,,1,,,85,0
177529,set_tempo,927,1,0,,,,,,417595,,,,,,
177599,note_on,0,0,3,,,,,,,,2,,,53,0
177599,note_on,239,0,3,,,,,,,,2,,,49,0
177599,note_on,0,0,3,,,,,,,,2,,,56,0
177600,note_on,1,0,3,,,,,,,,2,,,53,90
177600,note_on,0,0,3,,,,,,,,2,,,49,90
177600,note_on,0,0,3,,,,,,,,2,,,44,90
177600,note_on,145,0,2,,,,,,,,1,,,89,61
177695,note_on,95,0,2,,,,,,,,1,,,89,0
177839,note_on,239,0,3,,,,,,,,2,,,44,0
177839,note_on,0,0,3,,,,,,,,2,,,49,0
177839,note_on,0,0,3,,,,,,,,2,,,53,0
177840,note_on,0,0,3,,,,,,,,2,,,49,92
177840,note_on,0,0,2,,,,,,,,1,,,73,40
177840,note_on,145,0,2,,,,,,,,1,,,80,51
177840,note_on,1,0,3,,,,,,,,2,,,56,92
177840,note_on,0,0,3,,,,,,,,2,,,53,92
177935,note_on,0,0,2,,,,,,,,1,,,80,0
177935,note_on,95,0,2,,,,,,,,1,,,73,0
178079,note_on,239,0,3,,,,,,,,2,,,49,0
178079,note_on,0,0,3,,,,,,,,2,,,53,0
178079,note_on,1439,0,4,,,,,,,,3,,,44,0
178079,note_on,0,0,3,,,,,,,,2,,,56,0
178080,note_on,145,0,2,,,,,,,,1,,,87,61
178080,note_on,0,0,4,,,,,,,,3,,,51,40
178080,note_on,1,0,4,,,,,,,,3,,,44,40
178080,note_on,0,0,3,,,,,,,,2,,,56,94
178080,note_on,1,0,3,,,,,,,,2,,,61,94
178080,note_on,0,0,3,,,,,,,,2,,,53,94
178175,note_on,95,0,2,,,,,,,,1,,,87,0
178319,note_on,239,0,3,,,,,,,,2,,,53,0
178319,note_on,0,0,3,,,,,,,,2,,,56,0
178319,note_on,239,0,4,,,,,,,,3,,,51,0
178319,note_on,0,0,4,,,,,,,,3,,,44,0
178319,note_on,0,0,3,,,,,,,,2,,,61,0
178320,note_on,1,0,3,,,,,,,,2,,,65,93
178320,note_on,0,0,3,,,,,,,,2,,,61,93
178320,note_on,0,0,3,,,,,,,,2,,,56,93
178320,note_on,0,0,2,,,,,,,,1,,,72,40
178320,note_on,1,0,4,,,,,,,,3,,,44,40
178320,note_on,0,0,4,,,,,,,,3,,,51,40
178320,note_on,145,0,2,,,,,,,,1,,,80,40
178360,control_change,40,0,4,,,,,,,,3,64,0,,
178400,control_change,80,0,2,,,,,,,,1,64,0,,
178406,note_on,0,0,2,,,,,,,,1,,,80,0
178406,note_on,6,0,2,,,,,,,,1,,,72,0
178420,control_change,100,0,3,,,,,,,,2,64,0,,
178456,set_tempo,927,1,0,,,,,,416204,,,,,,
178536,note_on,176,0,4,,,,,,,,3,,,51,0
178536,note_on,0,0,4,,,,,,,,3,,,44,0
178536,note_on,0,0,3,,,,,,,,2,,,61,0
178536,note_on,0,0,3,,,,,,,,2,,,65,0
178536,note_on,116,0,3,,,,,,,,2,,,56,0
178560,note_on,0,0,3,,,,,,,,2,,,56,89
178560,note_on,0,0,3,,,,,,,,2,,,60,89
178560,note_on,0,0,3,,,,,,,,2,,,63,89
178560,control_change,24,0,3,,,,,,,,2,64,127,,
178560,control_change,154,0,2,,,,,,,,1,64,127,,
178560,note_on,0,0,2,,,,,,,,1,,,96,61
178655,note_on,95,0,2,,,,,,,,1,,,96,0
178693,control_change,157,0,4,,,,,,,,3,64,127,,
178800,note_on,145,0,2,,,,,,,,1,,,87,51
178800,note_on,0,0,2,,,,,,,,1,,,80,40
178895,note_on,95,0,2,,,,,,,,1,,,80,0
178895,note_on,0,0,2,,,,,,,,1,,,87,0
179039,note_on,0,0,3,,,,,,,,2,,,63,0
179039,note_on,479,0,3,,,,,,,,2,,,56,0
179039,note_on,0,0,3,,,,,,,,2,,,60,0
179040,note_on,0,0,3,,,,,,,,2,,,56,85
179040,note_on,0,0,3,,,,,,,,2,,,51,85
179040,note_on,145,0,2,,,,,,,,1,,,92,61
179040,note_on,1,0,3,,,,,,,,2,,,60,85
179135,note_on,95,0,2,,,,,,,,1,,,92,0
179279,note_on,0,0,3,,,,,,,,2,,,60,0
179279,note_on,0,0,3,,,,,,,,2,,,56,0
179279,note_on,239,0,3,,,,,,,,2,,,51,0
179280,note_on,145,0,2,,,,,,,,1,,,84,40
179280,note_on,0,0,2,,,,,,,,1,,,75,40
179280,note_on,0,0,3,,,,,,,,2,,,51,82
179280,note_on,0,0,3,,,,,,,,2,,,56,82
179280,note_on,1,0,3,,,,,,,,2,,,60,82
179366,set_tempo,910,1,0,,,,,,414823,,,,,,
179375,note_on,95,0,2,,,,,,,,1,,,75,0
179375,note_on,0,0,2,,,,,,,,1,,,84,0
179519,note_on,0,0,3,,,,,,,,2,,,60,0
179519,note_on,239,0,3,,,,,,,,2,,,51,0
179519,note_on,0,0,3,,,,,,,,2,,,56,0
179520,note_on,0,0,3,,,,,,,,2,,,48,78
179520,note_on,0,0,3,,,,,,,,2,,,56,78
179520,control_change,1,0,3,,,,,,,,2,64,0,,
179520,note_on,827,0,4,,,,,,,,3,,,44,40
179520,note_on,145,0,2,,,,,,,,1,,,87,61
179615,note_on,95,0,2,,,,,,,,1,,,87,0
179760,note_on,145,0,2,,,,,,,,1,,,80,40
179760,note_on,0,0,2,,,,,,,,1,,,72,40
179855,note_on,95,0,2,,,,,,,,1,,,72,0
179855,note_on,0,0,2,,,,,,,,1,,,80,0
179952,note_on,432,0,4,,,,,,,,3,,,44,0
180000,note_on,145,0,2,,,,,,,,1,,,87,61
180095,note_on,95,0,2,,,,,,,,1,,,87,0
180160,control_change,208,0,4,,,,,,,,3,64,0,,
180239,note_on,719,0,3,,,,,,,,2,,,48,0
180239,note_on,0,0,3,,,,,,,,2,,,56,0
180240,note_on,0,0,2,,,,,,,,1,,,70,40
180240,note_on,1,0,3,,,,,,,,2,,,56,73
180240,note_on,0,0,3,,,,,,,,2,,,51,73
180240,note_on,0,0,3,,,,,,,,2,,,48,73
180240,note_on,145,0,2,,,,,,,,1,,,79,40
180267,control_change,27,0,2,,,,,,,,1,64,0,,
180326,note_on,0,0,2,,,,,,,,1,,,79,0
180326,note_on,59,0,2,,,,,,,,1,,,70,0
180456,note_on,216,0,3,,,,,,,,2,,,48,0
180456,note_on,0,0,3,,,,,,,,2,,,51,0
180456,note_on,0,0,3,,,,,,,,2,,,56,0
180480,note_on,0,0,3,,,,,,,,2,,,39,73
180480,note_on,0,0,3,,,,,,,,2,,,46,73
180480,control_change,24,0,3,,,,,,,,2,64,127,,
180480,note_on,0,0,3,,,,,,,,2,,,55,73
180480,note_on,0,0,2,,,,,,,,1,,,88,61
180480,control_change,154,0,2,,,,,,,,1,64,127,,
180575,note_on,95,0,2,,,,,,,,1,,,88,0
180720,note_on,145,0,2,,,,,,,,1,,,82,40
180720,note_on,0,0,2,,,,,,,,1,,,73,40
180815,note_on,95,0,2,,,,,,,,1,,,73,0
180815,note_on,0,0,2,,,,,,,,1,,,82,0
180959,note_on,0,0,3,,,,,,,,2,,,39,0
180959,note_on,479,0,3,,,,,,,,2,,,55,0
180959,note_on,0,0,3,,,,,,,,2,,,46,0
180960,note_on,145,0,2,,,,,,,,1,,,89,61
180960,note_on,0,0,3,,,,,,,,2,,,49,88
180960,note_on,1,0,3,,,,,,,,2,,,58,88
181055,note_on,95,0,2,,,,,,,,1,,,89,0
181199,note_on,0,0,3,,,,,,,,2,,,58,0
181199,note_on,239,0,3,,,,,,,,2,,,49,0
181200,note_on,0,0,2,,,,,,,,1,,,70,40
181200,note_on,145,0,2,,,,,,,,1,,,79,40
181200,note_on,0,0,3,,,,,,,,2,,,49,85
181200,note_on,1,0,3,,,,,,,,2,,,58,85
181295,note_on,95,0,2,,,,,,,,1,,,70,0
181295,note_on,0,0,2,,,,,,,,1,,,79,0
181439,note_on,239,0,3,,,,,,,,2,,,49,0
181439,note_on,0,0,3,,,,,,,,2,,,58,0
181440,control_change,1,0,3,,,,,,,,2,64,0,,
181440,note_on,0,0,3,,,,,,,,2,,,39,81
181440,note_on,0,0,3,,,,,,,,2,,,46,81
181440,note_on,0,0,3,,,,,,,,2,,,55,81
181440,note_on,145,0,2,,,,,,,,1,,,87,62
181535,note_on,95,0,2,,,,,,,,1,,,87,0
181680,note_on,0,0,2,,,,,,,,1,,,73,41
181680,note_on,145,0,2,,,,,,,,1,,,82,41
181775,note_on,0,0,2,,,,,,,,1,,,82,0
181775,note_on,95,0,2,,,,,,,,1,,,73,0
181919,note_on,0,0,3,,,,,,,,2,,,46,0
181919,note_on,479,0,3,,,,,,,,2,,,55,0
181919,note_on,0,0,3,,,,,,,,2,,,39,0
181920,note_on,1,0,3,,,,,,,,2,,,43,70
181920,note_on,145,0,2,,,,,,,,1,,,87,62
181920,note_on,0,0,3,,,,,,,,2,,,51,70
182015,note_on,95,0,2,,,,,,,,1,,,87,0
182133,control_change,118,0,2,,,,,,,,1,64,0,,
182159,note_on,239,0,3,,,,,,,,2,,,51,0
182159,note_on,0,0,3,,,,,,,,2,,,43,0
182160,note_on,1,0,3,,,,,,,,2,,,43,77
182160,note_on,0,0,3,,,,,,,,2,,,51,77
182160,note_on,27,0,2,,,,,,,,1,,,80,42
182160,note_on,0,0,2,,,,,,,,1,,,72,42
182246,note_on,86,0,2,,,,,,,,1,,,72,0
182246,note_on,0,0,2,,,,,,,,1,,,80,0
182376,note_on,216,0,3,,,,,,,,2,,,51,0
182376,note_on,0,0,3,,,,,,,,2,,,43,0
182400,control_change,154,0,2,,,,,,,,1,64,127,,
182400,note_on,2240,0,4,,,,,,,,3,,,44,42
182400,note_on,0,0,2,,,,,,,,1,,,92,75
182400,note_on,24,0,3,,,,,,,,2,,,56,84
182400,note_on,0,0,3,,,,,,,,2,,,48,84
182427,control_change,27,0,3,,,,,,,,2,64,127,,
182495,note_on,95,0,2,,,,,,,,1,,,92,0
182640,note_on,0,0,2,,,,,,,,1,,,75,42
182640,note_on,145,0,2,,,,,,,,1,,,84,42
182735,note_on,95,0,2,,,,,,,,1,,,75,0
182735,note_on,0,0,2,,,,,,,,1,,,84,0
182879,note_on,0,0,3,,,,,,,,2,,,56,0
182879,note_on,452,0,3,,,,,,,,2,,,48,0
182880,note_on,0,0,3,,,,,,,,2,,,51,76
182880,note_on,1,0,3,,,,,,,,2,,,60,76
182880,note_on,145,0,2,,,,,,,,1,,,96,64
182975,note_on,95,0,2,,,,,,,,1,,,96,0
183119,note_on,239,0,3,,,,,,,,2,,,51,0
183119,note_on,0,0,3,,,,,,,,2,,,60,0
183120,note_on,1,0,3,,,,,,,,2,,,63,81
183120,note_on,145,0,2,,,,,,,,1,,,87,43
183120,note_on,0,0,2,,,,,,,,1,,,80,43
183120,note_on,0,0,3,,,,,,,,2,,,56,81
183215,note_on,95,0,2,,,,,,,,1,,,80,0
183215,note_on,0,0,2,,,,,,,,1,,,87,0
183359,note_on,239,0,3,,,,,,,,2,,,56,0
183359,note_on,959,0,4,,,,,,,,3,,,44,0
183359,note_on,0,0,3,,,,,,,,2,,,63,0
183360,note_on,1,0,4,,,,,,,,3,,,44,43
183360,note_on,145,0,2,,,,,,,,1,,,96,65
183360,note_on,1,0,3,,,,,,,,2,,,60,85
183360,note_on,0,0,3,,,,,,,,2,,,51,85
183387,control_change,27,0,3,,,,,,,,2,64,0,,
183455,note_on,95,0,2,,,,,,,,1,,,96,0
183600,note_on,0,0,2,,,,,,,,1,,,84,44
183600,note_on,145,0,2,,,,,,,,1,,,92,52
183695,note_on,95,0,2,,,,,,,,1,,,84,0
183695,note_on,0,0,2,,,,,,,,1,,,92,0
183792,note_on,432,0,4,,,,,,,,3,,,44,0
183839,note_on,0,0,3,,,,,,,,2,,,60,0
183839,note_on,452,0,3,,,,,,,,2,,,51,0
183840,note_on,145,0,2,,,,,,,,1,,,96,65
183840,note_on,1,0,3,,,,,,,,2,,,60,78
183935,note_on,95,0,2,,,,,,,,1,,,96,0
184079,note_on,239,0,3,,,,,,,,2,,,60,0
184080,note_on,0,0,2,,,,,,,,1,,,89,44
184080,note_on,1,0,3,,,,,,,,2,,,60,79
184080,note_on,0,0,2,,,,,,,,1,,,80,44
184080,control_change,145,0,2,,,,,,,,1,64,0,,
184166,note_on,86,0,2,,,,,,,,1,,,80,0
184166,note_on,0,0,2,,,,,,,,1,,,89,0
184296,note_on,216,0,3,,,,,,,,2,,,60,0
184320,note_on,0,0,3,,,,,,,,2,,,60,63
184320,note_on,0,0,3,,,,,,,,2,,,67,63
184320,control_change,24,0,3,,,,,,,,2,64,127,,
184320,set_tempo,4954,1,0,,,,,,428571,,,,,,
184320,note_on,528,0,4,,,,,,,,3,,,53,44
184320,note_on,0,0,2,,,,,,,,1,,,101,66
184320,control_change,154,0,2,,,,,,,,1,64,127,,
184373,control_change,53,0,4,,,,,,,,3,64,127,,
184415,note_on,95,0,2,,,,,,,,1,,,101,0
184560,note_on,0,0,2,,,,,,,,1,,,84,44
184560,note_on,145,0,2,,,,,,,,1,,,92,53
184655,note_on,95,0,2,,,,,,,,1,,,84,0
184655,note_on,0,0,2,,,,,,,,1,,,92,0
184799,note_on,479,0,3,,,,,,,,2,,,60,0
184799,note_on,0,0,3,,,,,,,,2,,,67,0
184800,note_on,0,0,3,,,,,,,,2,,,60,76
184800,note_on,145,0,2,,,,,,,,1,,,100,67
184800,note_on,0,0,3,,,,,,,,2,,,56,76
184800,note_on,1,0,3,,,,,,,,2,,,65,76
184895,note_on,95,0,2,,,,,,,,1,,,100,0
185039,note_on,0,0,3,,,,,,,,2,,,65,0
185039,note_on,0,0,3,,,,,,,,2,,,60,0
185039,note_on,239,0,3,,,,,,,,2,,,56,0
185040,note_on,1,0,3,,,,,,,,2,,,65,74
185040,note_on,145,0,2,,,,,,,,1,,,91,44
185040,note_on,0,0,2,,,,,,,,1,,,84,44
185040,note_on,0,0,3,,,,,,,,2,,,56,74
185040,note_on,0,0,3,,,,,,,,2,,,60,74
185135,note_on,0,0,2,,,,,,,,1,,,91,0
185135,note_on,95,0,2,,,,,,,,1,,,84,0
185173,control_change,800,0,4,,,,,,,,3,64,0,,
185279,note_on,239,0,3,,,,,,,,2,,,56,0
185279,note_on,0,0,3,,,,,,,,2,,,60,0
185279,note_on,106,0,4,,,,,,,,3,,,53,0
185279,note_on,0,0,3,,,,,,,,2,,,65,0
185280,control_change,1,0,3,,,,,,,,2,64,0,,
185280,note_on,0,0,3,,,,,,,,2,,,64,71
185280,note_on,0,0,3,,,,,,,,2,,,58,71
185280,note_on,0,0,3,,,,,,,,2,,,55,71
185280,note_on,0,0,2,,,,,,,,1,,,96,68
185280,control_change,145,0,2,,,,,,,,1,64,0,,
185280,control_change,1,0,4,,,,,,,,3,64,127,,
185280,note_on,0,0,4,,,,,,,,3,,,48,45
185360,control_change,80,0,2,,,,,,,,1,64,127,,
185375,note_on,15,0,2,,,,,,,,1,,,96,0
185387,control_change,107,0,3,,,,,,,,2,64,127,,
185520,note_on,145,0,2,,,,,,,,1,,,88,45
185520,note_on,0,0,2,,,,,,,,1,,,79,45
185615,note_on,95,0,2,,,,,,,,1,,,79,0
185615,note_on,0,0,2,,,,,,,,1,,,88,0
185712,note_on,432,0,4,,,,,,,,3,,,48,0
185759,note_on,0,0,3,,,,,,,,2,,,64,0
185759,note_on,0,0,3,,,,,,,,2,,,58,0
185759,note_on,372,0,3,,,,,,,,2,,,55,0
185760,note_on,1,0,3,,,,,,,,2,,,60,65
185760,note_on,0,0,3,,,,,,,,2,,,52,65
185760,note_on,145,0,2,,,,,,,,1,,,101,68
185760,note_on,0,0,3,,,,,,,,2,,,55,65
185855,note_on,95,0,2,,,,,,,,1,,,101,0
186000,note_on,145,0,2,,,,,,,,1,,,92,46
186000,note_on,0,0,2,,,,,,,,1,,,84,46
186086,note_on,86,0,2,,,,,,,,1,,,84,0
186086,note_on,0,0,2,,,,,,,,1,,,92,0
186192,note_on,0,0,3,,,,,,,,2,,,55,0
186192,note_on,0,0,3,,,,,,,,2,,,60,0
186192,note_on,432,0,3,,,,,,,,2,,,52,0
186240,note_on,0,0,2,,,,,,,,1,,,96,86
186240,control_change,154,0,2,,,,,,,,1,64,0,,
186240,note_on,0,0,4,,,,,,,,3,,,53,57
186240,control_change,528,0,4,,,,,,,,3,64,0,,
186240,note_on,0,0,3,,,,,,,,2,,,56,82
186240,note_on,48,0,3,,,,,,,,2,,,65,82
186320,control_change,80,0,2,,,,,,,,1,64,127,,
186335,note_on,15,0,2,,,,,,,,1,,,96,0
186347,control_change,107,0,3,,,,,,,,2,64,0,,
186480,note_on,0,0,2,,,,,,,,1,,,80,58
186480,note_on,145,0,2,,,,,,,,1,,,89,58
186507,control_change,267,0,4,,,,,,,,3,64,127,,
186575,note_on,95,0,2,,,,,,,,1,,,80,0
186575,note_on,0,0,2,,,,,,,,1,,,89,0
186613,control_change,266,0,3,,,,,,,,2,64,127,,
186719,note_on,106,0,3,,,,,,,,2,,,56,0
186719,note_on,0,0,3,,,,,,,,2,,,65,0
186720,note_on,1,0,3,,,,,,,,2,,,60,84
186720,note_on,145,0,2,,,,,,,,1,,,92,88
186720,note_on,0,0,3,,,,,,,,2,,,53,84
186720,note_on,0,0,3,,,,,,,,2,,,56,84
186815,note_on,95,0,2,,,,,,,,1,,,92,0
186959,note_on,0,0,3,,,,,,,,2,,,56,0
186959,note_on,239,0,3,,,,,,,,2,,,53,0
186959,note_on,0,0,3,,,,,,,,2,,,60,0
186960,note_on,0,0,2,,,,,,,,1,,,77,59
186960,note_on,1,0,3,,,,,,,,2,,,56,80
186960,note_on,145,0,2,,,,,,,,1,,,84,59
186960,note_on,0,0,3,,,,,,,,2,,,48,80
186960,note_on,0,0,3,,,,,,,,2,,,53,80
187055,note_on,95,0,2,,,,,,,,1,,,77,0
187055,note_on,0,0,2,,,,,,,,1,,,84,0
187199,note_on,692,0,4,,,,,,,,3,,,53,0
187199,note_on,0,0,3,,,,,,,,2,,,56,0
187199,note_on,0,0,3,,,,,,,,2,,,53,0
187199,note_on,239,0,3,,,,,,,,2,,,48,0
187200,note_on,1,0,4,,,,,,,,3,,,41,59
187200,note_on,0,0,3,,,,,,,,2,,,44,75
187200,note_on,145,0,2,,,,,,,,1,,,92,74
187200,note_on,1,0,3,,,,,,,,2,,,53,75
187295,note_on,95,0,2,,,,,,,,1,,,92,0
187440,note_on,145,0,2,,,,,,,,1,,,89,60
187440,note_on,0,0,2,,,,,,,,1,,,80,60
187467,control_change,267,0,4,,,,,,,,3,64,0,,
187535,note_on,95,0,2,,,,,,,,1,,,80,0
187535,note_on,0,0,2,,,,,,,,1,,,89,0
187573,control_change,373,0,3,,,,,,,,2,64,0,,
187632,note_on,165,0,4,,,,,,,,3,,,41,0
187680,note_on,145,0,2,,,,,,,,1,,,92,82
187775,note_on,95,0,2,,,,,,,,1,,,92,0
187919,note_on,346,0,3,,,,,,,,2,,,44,0
187919,note_on,0,0,3,,,,,,,,2,,,53,0
187920,note_on,1,0,3,,,,,,,,2,,,56,86
187920,note_on,0,0,2,,,,,,,,1,,,80,60
187920,note_on,145,0,2,,,,,,,,1,,,89,60
187973,control_change,53,0,2,,,,,,,,1,64,0,,
188006,note_on,0,0,2,,,,,,,,1,,,89,0
188006,note_on,33,0,2,,,,,,,,1,,,80,0
188136,note_on,216,0,3,,,,,,,,2,,,56,0
188149,set_tempo,3829,1,0,,,,,,413451,,,,,,
188160,note_on,0,0,4,,,,,,,,3,,,49,60
188160,control_change,24,0,3,,,,,,,,2,64,127,,
188160,note_on,0,0,3,,,,,,,,2,,,65,87
188160,control_change,154,0,2,,,,,,,,1,64,127,,
188160,note_on,0,0,3,,,,,,,,2,,,56,87
188160,control_change,528,0,4,,,,,,,,3,64,127,,
188160,note_on,0,0,2,,,,,,,,1,,,92,83
188255,note_on,95,0,2,,,,,,,,1,,,92,0
188400,note_on,0,0,2,,,,,,,,1,,,77,60
188400,note_on,145,0,2,,,,,,,,1,,,85,60
188495,note_on,95,0,2,,,,,,,,1,,,77,0
188495,note_on,0,0,2,,,,,,,,1,,,85,0
188639,note_on,0,0,3,,,,,,,,2,,,65,0
188639,note_on,479,0,3,,,,,,,,2,,,56,0
188640,note_on,1,0,3,,,,,,,,2,,,61,87
188640,note_on,0,0,3,,,,,,,,2,,,56,87
188640,note_on,0,0,3,,,,,,,,2,,,53,87
188640,note_on,145,0,2,,,,,,,,1,,,103,82
188735,note_on,95,0,2,,,,,,,,1,,,103,0
188879,note_on,0,0,3,,,,,,,,2,,,61,0
188879,note_on,0,0,3,,,,,,,,2,,,56,0
188879,note_on,239,0,3,,,,,,,,2,,,53,0
188880,note_on,0,0,3,,,,,,,,2,,,53,83
188880,note_on,0,0,3,,,,,,,,2,,,56,83
188880,note_on,1,0,3,,,,,,,,2,,,61,83
188880,note_on,145,0,2,,,,,,,,1,,,92,60
188880,note_on,0,0,2,,,,,,,,1,,,85,60
188900,control_change,20,0,2,,,,,,,,1,64,0,,
188975,note_on,0,0,2,,,,,,,,1,,,92,0
188975,note_on,75,0,2,,,,,,,,1,,,85,0
189000,control_change,120,0,3,,,,,,,,2,64,0,,
189020,control_change,45,0,2,,,,,,,,1,64,127,,
189060,control_change,900,0,4,,,,,,,,3,64,0,,
189060,control_change,60,0,3,,,,,,,,2,64,127,,
189119,note_on,59,0,4,,,,,,,,3,,,49,0
189119,note_on,59,0,3,,,,,,,,2,,,53,0
189119,note_on,0,0,3,,,,,,,,2,,,56,0
189119,note_on,0,0,3,,,,,,,,2,,,61,0
189120,note_on,0,0,3,,,,,,,,2,,,54,79
189120,note_on,0,0,3,,,,,,,,2,,,51,79
189120,note_on,100,0,2,,,,,,,,1,,,106,82
189120,note_on,1,0,4,,,,,,,,3,,,44,60
189120,note_on,1,0,3,,,,,,,,2,,,60,79
189160,control_change,40,0,4,,,,,,,,3,64,127,,
189215,note_on,95,0,2,,,,,,,,1,,,106,0
189360,note_on,145,0,2,,,,,,,,1,,,92,60
189360,note_on,0,0,2,,,,,,,,1,,,84,60
189455,note_on,95,0,2,,,,,,,,1,,,84,0
189455,note_on,0,0,2,,,,,,,,1,,,92,0
189552,note_on,392,0,4,,,,,,,,3,,,44,0
189599,note_on,479,0,3,,,,,,,,2,,,51,0
189599,note_on,0,0,3,,,,,,,,2,,,60,0
189599,note_on,0,0,3,,,,,,,,2,,,54,0
189600,note_on,0,0,3,,,,,,,,2,,,51,87
189600,note_on,1,0,3,,,,,,,,2,,,56,87
189600,note_on,145,0,2,,,,,,,,1,,,96,85
189600,note_on,0,0,3,,,,,,,,2,,,48,87
189695,note_on,95,0,2,,,,,,,,1,,,96,0
189840,note_on,0,0,2,,,,,,,,1,,,80,60
189840,note_on,145,0,2,,,,,,,,1,,,90,60
189926,note_on,86,0,2,,,,,,,,1,,,80,0
189926,note_on,0,0,2,,,,,,,,1,,,90,0
189980,control_change,54,0,2,,,,,,,,1,64,0,,
190020,control_change,420,0,3,,,,,,,,2,64,0,,
190032,note_on,0,0,3,,,,,,,,2,,,56,0
190032,note_on,12,0,3,,,,,,,,2,,,48,0
190032,note_on,0,0,3,,,,,,,,2,,,51,0
190080,note_on,0,0,3,,,,,,,,2,,,53,87
190080,note_on,48,0,3,,,,,,,,2,,,61,87
190080,note_on,0,0,3,,,,,,,,2,,,49,87
190080,note_on,0,0,2,,,,,,,,1,,,97,87
190080,control_change,100,0,2,,,,,,,,1,64,127,,
190120,control_change,568,0,4,,,,,,,,3,64,0,,
190175,note_on,95,0,2,,,,,,,,1,,,97,0
190240,control_change,160,0,3,,,,,,,,2,64,127,,
190320,note_on,0,0,2,,,,,,,,1,,,80,60
190320,note_on,145,0,2,,,,,,,,1,,,89,60
190415,note_on,95,0,2,,,,,,,,1,,,80,0
190415,note_on,0,0,2,,,,,,,,1,,,89,0
190559,note_on,0,0,3,,,,,,,,2,,,61,0
190559,note_on,0,0,3,,,,,,,,2,,,53,0
190559,note_on,319,0,3,,,,,,,,2,,,49,0
190560,note_on,1,0,3,,,,,,,,2,,,56,88
190560,note_on,0,0,3,,,,,,,,2,,,49,88
190560,note_on,145,0,2,,,,,,,,1,,,92,87
190560,note_on,0,0,3,,,,,,,,2,,,53,88
190620,control_change,500,0,4,,,,,,,,3,64,127,,
190655,note_on,95,0,2,,,,,,,,1,,,92,0
190799,note_on,0,0,3,,,,,,,,2,,,53,0
190799,note_on,0,0,3,,,,,,,,2,,,56,0
190799,note_on,239,0,3,,,,,,,,2,,,49,0
190800,note_on,145,0,2,,,,,,,,1,,,85,60
190800,note_on,0,0,2,,,,,,,,1,,,77,60
190800,note_on,1,0,3,,,,,,,,2,,,53,81
190800,note_on,0,0,3,,,,,,,,2,,,49,81
190800,note_on,0,0,3,,,,,,,,2,,,44,81
190895,note_on,0,0,2,,,,,,,,1,,,85,0
190895,note_on,95,0,2,,,,,,,,1,,,77,0
191039,note_on,0,0,3,,,,,,,,2,,,53,0
191039,note_on,239,0,3,,,,,,,,2,,,44,0
191039,note_on,0,0,3,,,,,,,,2,,,49,0
191040,note_on,1,0,3,,,,,,,,2,,,41,74
191040,note_on,145,0,2,,,,,,,,1,,,89,90
191040,note_on,0,0,3,,,,,,,,2,,,49,74
191040,note_on,420,0,4,,,,,,,,3,,,37,60
191135,note_on,95,0,2,,,,,,,,1,,,89,0
191200,control_change,160,0,3,,,,,,,,2,64,0,,
191280,note_on,145,0,2,,,,,,,,1,,,80,60
191280,note_on,0,0,2,,,,,,,,1,,,73,60
191375,note_on,0,0,2,,,,,,,,1,,,80,0
191375,note_on,95,0,2,,,,,,,,1,,,73,0
191472,note_on,432,0,4,,,,,,,,3,,,37,0
191520,note_on,145,0,2,,,,,,,,1,,,89,90
191580,control_change,108,0,4,,,,,,,,3,64,0,,
191615,note_on,95,0,2,,,,,,,,1,,,89,0
191759,note_on,0,0,3,,,,,,,,2,,,41,0
191759,note_on,559,0,3,,,,,,,,2,,,49,0
191760,note_on,0,0,3,,,,,,,,2,,,49,72
191760,note_on,1,0,3,,,,,,,,2,,,61,72
191760,note_on,0,0,2,,,,,,,,1,,,77,60
191760,note_on,145,0,2,,,,,,,,1,,,85,60
191840,control_change,80,0,2,,,,,,,,1,64,0,,
191846,note_on,0,0,2,,,,,,,,1,,,85,0
191846,note_on,6,0,2,,,,,,,,1,,,77,0
191900,control_change,140,0,3,,,,,,,,2,64,127,,
191976,note_on,76,0,3,,,,,,,,2,,,49,0
191976,note_on,0,0,3,,,,,,,,2,,,61,0
192000,note_on,154,0,2,,,,,,,,1,,,89,76
192000,note_on,24,0,3,,,,,,,,2,,,65,72
192000,note_on,0,0,3,,,,,,,,2,,,53,72
192000,set_tempo,3851,1,0,,,,,,400000,,,,,,
192095,note_on,95,0,2,,,,,,,,1,,,89,0
192240,note_on,0,0,2,,,,,,,,1,,,82,76
192240,note_on,0,0,2,,,,,,,,1,,,77,76
192240,note_on,145,0,2,,,,,,,,1,,,85,76
192335,note_on,95,0,2,,,,,,,,1,,,77,0
192335,note_on,0,0,2,,,,,,,,1,,,82,0
192335,note_on,0,0,2,,,,,,,,1,,,85,0
192480,note_on,900,0,4,,,,,,,,3,,,41,68
192480,note_on,0,0,4,,,,,,,,3,,,45,68
192480,note_on,0,0,4,,,,,,,,3,,,48,68
192480,note_on,0,0,4,,,,,,,,3,,,53,68
192480,note_on,145,0,2,,,,,,,,1,,,77,76
192575,note_on,95,0,2,,,,,,,,1,,,77,0
192719,note_on,0,0,4,,,,,,,,3,,,45,0
192719,note_on,239,0,4,,,,,,,,3,,,53,0
192719,note_on,0,0,4,,,,,,,,3,,,41,0
192719,note_on,0,0,4,,,,,,,,3,,,48,0
192720,note_on,0,0,2,,,,,,,,1,,,69,76
192720,note_on,0,0,2,,,,,,,,1,,,65,76
192720,note_on,145,0,2,,,,,,,,1,,,72,76
192720,note_on,1,0,4,,,,,,,,3,,,41,64
192720,note_on,0,0,4,,,,,,,,3,,,45,64
192720,note_on,0,0,4,,,,,,,,3,,,48,64
192720,note_on,0,0,4,,,,,,,,3,,,53,64
192815,note_on,95,0,2,,,,,,,,1,,,65,0
192815,note_on,0,0,2,,,,,,,,1,,,69,0
192815,note_on,0,0,2,,,,,,,,1,,,72,0
192860,control_change,860,0,3,,,,,,,,2,64,0,,
192864,note_on,4,0,3,,,,,,,,2,,,53,0
192864,note_on,0,0,3,,,,,,,,2,,,65,0
192959,note_on,0,0,4,,,,,,,,3,,,41,0
192959,note_on,0,0,4,,,,,,,,3,,,45,0
192959,note_on,0,0,4,,,,,,,,3,,,48,0
192959,note_on,239,0,4,,,,,,,,3,,,53,0
192960,note_on,1,0,4,,,,,,,,3,,,53,59
192960,note_on,0,0,4,,,,,,,,3,,,49,59
192960,note_on,145,0,2,,,,,,,,1,,,65,76
192960,note_on,0,0,4,,,,,,,,3,,,46,59
193055,note_on,95,0,2,,,,,,,,1,,,65,0
193200,note_on,145,0,2,,,,,,,,1,,,53,76
193200,note_on,0,0,2,,,,,,,,1,,,56,76
193200,note_on,0,0,2,,,,,,,,1,,,61,76
193295,note_on,95,0,2,,,,,,,,1,,,61,0
193295,note_on,0,0,2,,,,,,,,1,,,56,0
193295,note_on,0,0,2,,,,,,,,1,,,53,0
193439,note_on,0,0,4,,,,,,,,3,,,49,0
193439,note_on,479,0,4,,,,,,,,3,,,46,0
193439,note_on,0,0,4,,,,,,,,3,,,53,0
193440,note_on,1,0,4,,,,,,,,3,,,41,58
193440,note_on,0,0,4,,,,,,,,3,,,48,58
193440,note_on,0,0,4,,,,,,,,3,,,57,58
193440,note_on,145,0,2,,,,,,,,1,,,65,76
193535,note_on,95,0,2,,,,,,,,1,,,65,0
193679,note_on,0,0,4,,,,,,,,3,,,41,0
193679,note_on,239,0,4,,,,,,,,3,,,57,0
193679,note_on,0,0,4,,,,,,,,3,,,48,0
193680,note_on,145,0,2,,,,,,,,1,,,65,76
193680,note_on,0,0,2,,,,,,,,1,,,69,76
193680,note_on,0,0,2,,,,,,,,1,,,72,76
193680,note_on,0,0,4,,,,,,,,3,,,57,62
193680,note_on,0,0,4,,,,,,,,3,,,48,62
193680,note_on,1,0,4,,,,,,,,3,,,41,62
193766,note_on,0,0,2,,,,,,,,1,,,69,0
193766,note_on,86,0,2,,,,,,,,1,,,72,0
193766,note_on,0,0,2,,,,,,,,1,,,65,0
193896,note_on,0,0,4,,,,,,,,3,,,48,0
193896,note_on,216,0,4,,,,,,,,3,,,57,0
193896,note_on,0,0,4,,,,,,,,3,,,41,0
193920,note_on,0,0,4,,,,,,,,3,,,49,76
193920,note_on,0,0,4,,,,,,,,3,,,46,76
193920,note_on,154,0,2,,,,,,,,1,,,77,76
193920,note_on,24,0,4,,,,,,,,3,,,58,76
194015,note_on,95,0,2,,,,,,,,1,,,77,0
194160,note_on,145,0,2,,,,,,,,1,,,85,76
194160,note_on,0,0,2,,,,,,,,1,,,82,76
194160,note_on,0,0,2,,,,,,,,1,,,77,76
194255,note_on,0,0,2,,,,,,,,1,,,85,0
194255,note_on,0,0,2,,,,,,,,1,,,82,0
194255,note_on,95,0,2,,,,,,,,1,,,77,0
194399,note_on,0,0,4,,,,,,,,3,,,58,0
194399,note_on,0,0,4,,,,,,,,3,,,49,0
194399,note_on,479,0,4,,,,,,,,3,,,46,0
194400,note_on,145,0,2,,,,,,,,1,,,89,76
194400,note_on,0,0,4,,,,,,,,3,,,53,77
194400,note_on,0,0,4,,,,,,,,3,,,57,77
194400,note_on,1,0,4,,,,,,,,3,,,60,77
194495,note_on,95,0,2,,,,,,,,1,,,89,0
194639,note_on,0,0,4,,,,,,,,3,,,60,0
194639,note_on,239,0,4,,,,,,,,3,,,53,0
194639,note_on,0,0,4,,,,,,,,3,,,57,0
194640,note_on,145,0,2,,,,,,,,1,,,96,76
194640,note_on,1,0,4,,,,,,,,3,,,60,74
194640,note_on,0,0,4,,,,,,,,3,,,57,74
194640,note_on,0,0,4,,,,,,,,3,,,53,74
194640,note_on,0,0,2,,,,,,,,1,,,89,76
194640,note_on,0,0,2,,,,,,,,1,,,93,76
194735,note_on,0,0,2,,,,,,,,1,,,93,0
194735,note_on,0,0,2,,,,,,,,1,,,96,0
194735,note_on,95,0,2,,,,,,,,1,,,89,0
194879,note_on,239,0,4,,,,,,,,3,,,53,0
194879,note_on,0,0,4,,,,,,,,3,,,57,0
194879,note_on,0,0,4,,,,,,,,3,,,60,0
194880,note_on,145,0,2,,,,,,,,1,,,101,76
194880,note_on,1,0,4,,,,,,,,3,,,61,71
194880,note_on,0,0,4,,,,,,,,3,,,58,71
194975,note_on,95,0,2,,,,,,,,1,,,101,0
195120,note_on,0,0,2,,,,,,,,1,,,89,76
195120,note_on,0,0,2,,,,,,,,1,,,94,76
195120,note_on,145,0,2,,,,,,,,1,,,97,76
195215,note_on,0,0,2,,,,,,,,1,,,97,0
195215,note_on,0,0,2,,,,,,,,1,,,94,0
195215,note_on,95,0,2,,,,,,,,1,,,89,0
195359,note_on,0,0,4,,,,,,,,3,,,61,0
195359,note_on,479,0,4,,,,,,,,3,,,58,0
195360,note_on,1,0,4,,,,,,,,3,,,65,69
195360,note_on,0,0,4,,,,,,,,3,,,60,69
195360,note_on,0,0,4,,,,,,,,3,,,57,69
195360,note_on,0,0,4,,,,,,,,3,,,53,69
195360,note_on,145,0,2,,,,,,,,1,,,89,76
195455,note_on,95,0,2,,,,,,,,1,,,89,0
195599,note_on,239,0,4,,,,,,,,3,,,53,0
195599,note_on,0,0,4,,,,,,,,3,,,57,0
195599,note_on,0,0,4,,,,,,,,3,,,60,0
195599,note_on,0,0,4,,,,,,,,3,,,65,0
195600,note_on,0,0,2,,,,,,,,1,,,77,76
195600,note_on,0,0,4,,,,,,,,3,,,53,73
195600,note_on,1,0,4,,,,,,,,3,,,65,73
195600,note_on,0,0,2,,,,,,,,1,,,81,76
195600,note_on,145,0,2,,,,,,,,1,,,84,76
195600,note_on,0,0,4,,,,,,,,3,,,57,73
195600,note_on,0,0,4,,,,,,,,3,,,60,73
195686,note_on,0,0,2,,,,,,,,1,,,84,0
195686,note_on,0,0,2,,,,,,,,1,,,81,0
195686,note_on,86,0,2,,,,,,,,1,,,77,0
195816,note_on,216,0,4,,,,,,,,3,,,53,0
195816,note_on,0,0,4,,,,,,,,3,,,65,0
195816,note_on,0,0,4,,,,,,,,3,,,60,0
195816,note_on,0,0,4,,,,,,,,3,,,57,0
195840,note_on,2976,0,3,,,,,,,,2,,,65,91
195840,note_on,0,0,4,,,,,,,,3,,,58,78
195840,note_on,24,0,4,,,,,,,,3,,,61,78
195840,note_on,154,0,2,,,,,,,,1,,,101,76
195867,control_change,27,0,3,,,,,,,,2,64,127,,
195935,note_on,95,0,2,,,,,,,,1,,,101,0
196080,note_on,145,0,2,,,,,,,,1,,,97,76
196080,note_on,0,0,2,,,,,,,,1,,,94,76
196080,note_on,0,0,2,,,,,,,,1,,,89,76
196175,note_on,95,0,2,,,,,,,,1,,,89,0
196175,note_on,0,0,2,,,,,,,,1,,,94,0
196175,note_on,0,0,2,,,,,,,,1,,,97,0
196319,note_on,0,0,4,,,,,,,,3,,,61,0
196319,note_on,479,0,4,,,,,,,,3,,,58,0
196320,note_on,145,0,2,,,,,,,,1,,,89,76
196320,note_on,1,0,4,,,,,,,,3,,,60,78
196320,note_on,0,0,4,,,,,,,,3,,,57,78
196320,note_on,0,0,4,,,,,,,,3,,,53,78
196415,note_on,95,0,2,,,,,,,,1,,,89,0
196559,note_on,0,0,4,,,,,,,,3,,,57,0
196559,note_on,239,0,4,,,,,,,,3,,,53,0
196559,note_on,0,0,4,,,,,,,,3,,,60,0
196560,note_on,0,0,4,,,,,,,,3,,,57,76
196560,note_on,0,0,4,,,,,,,,3,,,53,76
196560,note_on,1,0,4,,,,,,,,3,,,60,76
196560,note_on,0,0,2,,,,,,,,1,,,77,76
196560,note_on,145,0,2,,,,,,,,1,,,84,76
196560,note_on,0,0,2,,,,,,,,1,,,81,76
196655,note_on,95,0,2,,,,,,,,1,,,77,0
196655,note_on,0,0,2,,,,,,,,1,,,81,0
196655,note_on,0,0,2,,,,,,,,1,,,84,0
196799,note_on,239,0,4,,,,,,,,3,,,53,0
196799,note_on,0,0,4,,,,,,,,3,,,57,0
196799,note_on,0,0,4,,,,,,,,3,,,60,0
196800,note_on,145,0,2,,,,,,,,1,,,89,76
196800,note_on,1,0,4,,,,,,,,3,,,61,73
196800,note_on,0,0,4,,,,,,,,3,,,58,73
196827,control_change,960,0,3,,,,,,,,2,64,0,,
196895,note_on,95,0,2,,,,,,,,1,,,89,0
196987,control_change,160,0,3,,,,,,,,2,64,127,,
197040,note_on,0,0,2,,,,,,,,1,,,82,76
197040,note_on,145,0,2,,,,,,,,1,,,85,76
197040,note_on,0,0,2,,,,,,,,1,,,77,76
197135,note_on,95,0,2,,,,,,,,1,,,77,0
197135,note_on,0,0,2,,,,,,,,1,,,82,0
197135,note_on,0,0,2,,,,,,,,1,,,85,0
197200,control_change,400,0,4,,,,,,,,3,64,127,,
197279,note_on,292,0,3,,,,,,,,2,,,65,0
197279,note_on,0,0,4,,,,,,,,3,,,61,0
197279,note_on,79,0,4,,,,,,,,3,,,58,0
197280,note_on,145,0,2,,,,,,,,1,,,91,88
197280,note_on,0,0,4,,,,,,,,3,,,51,76
197280,note_on,0,0,4,,,,,,,,3,,,58,76
197280,note_on,1,0,3,,,,,,,,2,,,67,91
197280,note_on,1,0,4,,,,,,,,3,,,61,76
197375,note_on,95,0,2,,,,,,,,1,,,91,0
197413,control_change,38,0,2,,,,,,,,1,64,127,,
197520,note_on,0,0,2,,,,,,,,1,,,75,76
197520,note_on,107,0,2,,,,,,,,1,,,82,76
197606,note_on,86,0,2,,,,,,,,1,,,75,0
197606,note_on,0,0,2,,,,,,,,1,,,82,0
197712,note_on,0,0,4,,,,,,,,3,,,58,0
197712,note_on,432,0,4,,,,,,,,3,,,51,0
197712,note_on,0,0,4,,,,,,,,3,,,61,0
197712,note_on,432,0,3,,,,,,,,2,,,67,0
197760,note_on,0,0,4,,,,,,,,3,,,56,76
197760,note_on,48,0,3,,,,,,,,2,,,68,91
197760,note_on,48,0,4,,,,,,,,3,,,60,76
197760,note_on,154,0,2,,,,,,,,1,,,92,89
197855,note_on,95,0,2,,,,,,,,1,,,92,0
197947,control_change,187,0,3,,,,,,,,2,64,0,,
197976,note_on,29,0,3,,,,,,,,2,,,68,0
197999,note_on,0,0,4,,,,,,,,3,,,60,0
197999,note_on,239,0,4,,,,,,,,3,,,56,0
198000,note_on,0,0,4,,,,,,,,3,,,72,80
198000,note_on,1,0,4,,,,,,,,3,,,75,80
198000,note_on,145,0,2,,,,,,,,1,,,84,76
198000,note_on,0,0,2,,,,,,,,1,,,80,76
198095,note_on,95,0,2,,,,,,,,1,,,80,0
198095,note_on,0,0,2,,,,,,,,1,,,84,0
198160,control_change,160,0,4,,,,,,,,3,64,0,,
198239,note_on,0,0,4,,,,,,,,3,,,75,0
198239,note_on,79,0,4,,,,,,,,3,,,72,0
198240,note_on,1,0,4,,,,,,,,3,,,68,78
198240,note_on,145,0,2,,,,,,,,1,,,87,76
198320,control_change,80,0,4,,,,,,,,3,64,127,,
198335,note_on,95,0,2,,,,,,,,1,,,87,0
198479,note_on,159,0,4,,,,,,,,3,,,68,0
198480,note_on,1,0,4,,,,,,,,3,,,72,76
198480,note_on,145,0,2,,,,,,,,1,,,80,76
198480,note_on,0,0,4,,,,,,,,3,,,68,76
198480,note_on,0,0,2,,,,,,,,1,,,75,76
198575,note_on,0,0,2,,,,,,,,1,,,80,0
198575,note_on,95,0,2,,,,,,,,1,,,75,0
198719,note_on,239,0,4,,,,,,,,3,,,68,0
198719,note_on,0,0,4,,,,,,,,3,,,72,0
198720,note_on,1,0,4,,,,,,,,3,,,63,74
198720,note_on,145,0,2,,,,,,,,1,,,84,76
198815,note_on,95,0,2,,,,,,,,1,,,84,0
198959,note_on,239,0,4,,,,,,,,3,,,63,0
198960,note_on,145,0,2,,,,,,,,1,,,75,76
198960,note_on,0,0,4,,,,,,,,3,,,63,72
198960,note_on,1,0,4,,,,,,,,3,,,68,72
198960,note_on,0,0,2,,,,,,,,1,,,72,76
199055,note_on,95,0,2,,,,,,,,1,,,72,0
199055,note_on,0,0,2,,,,,,,,1,,,75,0
199199,note_on,0,0,4,,,,,,,,3,,,68,0
199199,note_on,239,0,4,,,,,,,,3,,,63,0
199200,note_on,1,0,4,,,,,,,,3,,,60,70
199200,note_on,145,0,2,,,,,,,,1,,,80,76
199295,note_on,95,0,2,,,,,,,,1,,,80,0
199439,note_on,239,0,4,,,,,,,,3,,,60,0
199440,note_on,0,0,4,,,,,,,,3,,,60,68
199440,note_on,1,0,4,,,,,,,,3,,,63,68
199440,note_on,145,0,2,,,,,,,,1,,,72,76
199440,note_on,0,0,2,,,,,,,,1,,,68,76
199526,note_on,0,0,2,,,,,,,,1,,,72,0
199526,note_on,86,0,2,,,,,,,,1,,,68,0
199656,note_on,216,0,4,,,,,,,,3,,,60,0
199656,note_on,0,0,4,,,,,,,,3,,,63,0
199680,set_tempo,7680,1,0,,,,,,375000,,,,,,
199680,note_on,24,0,4,,,,,,,,3,,,56,64
199680,note_on,154,0,2,,,,,,,,1,,,75,64
199775,note_on,95,0,2,,,,,,,,1,,,75,0
199919,note_on,239,0,4,,,,,,,,3,,,56,0
199920,note_on,0,0,2,,,,,,,,1,,,68,64
199920,note_on,1,0,4,,,,,,,,3,,,60,64
199920,note_on,0,0,4,,,,,,,,3,,,56,64
199920,note_on,145,0,2,,,,,,,,1,,,63,64
200015,note_on,0,0,2,,,,,,,,1,,,63,0
200015,note_on,95,0,2,,,,,,,,1,,,68,0
200159,note_on,239,0,4,,,,,,,,3,,,56,0
200159,note_on,0,0,4,,,,,,,,3,,,60,0
200160,note_on,145,0,2,,,,,,,,1,,,72,64
200160,note_on,1,0,4,,,,,,,,3,,,51,64
200255,note_on,95,0,2,,,,,,,,1,,,72,0
200399,note_on,239,0,4,,,,,,,,3,,,51,0
200400,note_on,0,0,2,,,,,,,,1,,,63,64
200400,note_on,145,0,2,,,,,,,,1,,,60,64
200400,note_on,0,0,4,,,,,,,,3,,,51,64
200400,note_on,1,0,4,,,,,,,,3,,,56,64
200495,note_on,95,0,2,,,,,,,,1,,,63,0
200495,note_on,0,0,2,,,,,,,,1,,,60,0
200639,note_on,0,0,4,,,,,,,,3,,,56,0
200639,note_on,239,0,4,,,,,,,,3,,,51,0
200640,note_on,1,0,4,,,,,,,,3,,,44,64
200640,note_on,145,0,2,,,,,,,,1,,,68,64
200735,note_on,95,0,2,,,,,,,,1,,,68,0
200880,note_on,0,0,2,,,,,,,,1,,,63,64
200880,note_on,145,0,2,,,,,,,,1,,,60,64
200975,note_on,95,0,2,,,,,,,,1,,,63,0
200975,note_on,0,0,2,,,,,,,,1,,,60,0
201119,note_on,479,0,4,,,,,,,,3,,,44,0
201120,note_on,145,0,2,,,,,,,,1,,,72,64
201120,note_on,1,0,4,,,,,,,,3,,,56,64
201120,note_on,0,0,4,,,,,,,,3,,,51,64
201215,note_on,95,0,2,,,,,,,,1,,,72,0
201336,note_on,216,0,4,,,,,,,,3,,,51,0
201336,note_on,0,0,4,,,,,,,,3,,,56,0
201360,note_on,0,0,2,,,,,,,,1,,,63,64
201360,note_on,145,0,2,,,,,,,,1,,,60,64
201446,note_on,0,0,2,,,,,,,,1,,,60,0
201446,note_on,86,0,2,,,,,,,,1,,,63,0
201600,note_on,154,0,2,,,,,,,,1,,,68,64
201600,set_tempo,1920,1,0,,,,,,400000,,,,,,
201600,note_on,264,0,4,,,,,,,,3,,,44,64
201695,note_on,95,0,2,,,,,,,,1,,,68,0
201840,note_on,145,0,2,,,,,,,,1,,,60,64
201840,note_on,0,0,2,,,,,,,,1,,,63,64
201840,control_change,240,0,4,,,,,,,,3,64,0,,
201920,control_change,80,0,2,,,,,,,,1,64,0,,
201935,note_on,15,0,2,,,,,,,,1,,,63,0
201935,note_on,0,0,2,,,,,,,,1,,,60,0
202079,note_on,239,0,4,,,,,,,,3,,,44,0
202080,note_on,145,0,2,,,,,,,,1,,,72,64
202080,note_on,1,0,4,,,,,,,,3,,,56,64
202080,note_on,0,0,4,,,,,,,,3,,,51,64
202175,note_on,95,0,2,,,,,,,,1,,,72,0
202320,note_on,145,0,2,,,,,,,,1,,,60,64
202320,note_on,0,0,2,,,,,,,,1,,,63,64
202415,note_on,0,0,2,,,,,,,,1,,,60,0
202415,note_on,95,0,2,,,,,,,,1,,,63,0
202560,note_on,0,0,2,,,,,,,,1,,,63,64
202560,note_on,0,0,2,,,,,,,,1,,,70,64
202560,note_on,145,0,2,,,,,,,,1,,,60,64
202655,note_on,95,0,2,,,,,,,,1,,,70,0
202655,note_on,0,0,2,,,,,,,,1,,,63,0
202655,note_on,0,0,2,,,,,,,,1,,,60,0
202800,note_on,145,0,2,,,,,,,,1,,,60,64
202800,note_on,0,0,2,,,,,,,,1,,,63,64
202800,note_on,0,0,2,,,,,,,,1,,,68,64
202895,note_on,0,0,2,,,,,,,,1,,,63,0
202895,note_on,95,0,2,,,,,,,,1,,,68,0
202895,note_on,0,0,2,,,,,,,,1,,,60,0
203039,note_on,0,0,4,,,,,,,,3,,,56,0
203039,note_on,959,0,4,,,,,,,,3,,,51,0
203040,note_on,145,0,2,,,,,,,,1,,,60,64
203040,note_on,0,0,2,,,,,,,,1,,,63,64
203040,note_on,0,0,2,,,,,,,,1,,,67,64
203040,note_on,1,0,4,,,,,,,,3,,,44,72
203135,note_on,0,0,2,,,,,,,,1,,,63,0
203135,note_on,95,0,2,,,,,,,,1,,,67,0
203135,note_on,0,0,2,,,,,,,,1,,,60,0
203279,note_on,239,0,4,,,,,,,,3,,,44,0
203280,note_on,145,0,2,,,,,,,,1,,,60,64
203280,note_on,0,0,2,,,,,,,,1,,,63,64
203280,note_on,0,0,2,,,,,,,,1,,,68,64
203280,note_on,1,0,4,,,,,,,,3,,,44,68
203366,note_on,86,0,2,,,,,,,,1,,,68,0
203366,note_on,0,0,2,,,,,,,,1,,,63,0
203366,note_on,0,0,2,,,,,,,,1,,,60,0
203496,note_on,216,0,4,,,,,,,,3,,,44,0
203520,note_on,24,0,4,,,,,,,,3,,,41,63
203520,set_tempo,1920,1,0,,,,,,428571,,,,,,
203520,note_on,154,0,2,,,,,,,,1,,,68,64
203615,note_on,95,0,2,,,,,,,,1,,,68,0
203760,note_on,145,0,2,,,,,,,,1,,,60,64
203760,note_on,0,0,2,,,,,,,,1,,,65,64
203855,note_on,0,0,2,,,,,,,,1,,,60,0
203855,note_on,95,0,2,,,,,,,,1,,,65,0
203999,note_on,479,0,4,,,,,,,,3,,,41,0
204000,note_on,145,0,2,,,,,,,,1,,,72,64
204000,note_on,0,0,4,,,,,,,,3,,,48,64
204000,note_on,1,0,4,,,,,,,,3,,,56,64
204095,note_on,95,0,2,,,,,,,,1,,,72,0
204240,note_on,145,0,2,,,,,,,,1,,,60,64
204240,note_on,0,0,2,,,,,,,,1,,,65,64
204335,note_on,0,0,2,,,,,,,,1,,,60,0
204335,note_on,95,0,2,,,,,,,,1,,,65,0
204479,note_on,0,0,4,,,,,,,,3,,,56,0
204479,note_on,479,0,4,,,,,,,,3,,,48,0
204480,note_on,145,0,2,,,,,,,,1,,,68,64
204480,note_on,1,0,4,,,,,,,,3,,,41,64
204575,note_on,95,0,2,,,,,,,,1,,,68,0
204720,note_on,0,0,2,,,,,,,,1,,,65,64
204720,note_on,145,0,2,,,,,,,,1,,,60,64
204815,note_on,0,0,2,,,,,,,,1,,,60,0
204815,note_on,95,0,2,,,,,,,,1,,,65,0
204959,note_on,479,0,4,,,,,,,,3,,,41,0
204960,note_on,0,0,4,,,,,,,,3,,,41,74
204960,note_on,0,0,2,,,,,,,,1,,,80,76
204960,note_on,0,0,2,,,,,,,,1,,,72,76
204960,note_on,145,0,2,,,,,,,,1,,,68,76
204960,note_on,1,0,4,,,,,,,,3,,,29,74
205055,note_on,0,0,2,,,,,,,,1,,,68,0
205055,note_on,0,0,2,,,,,,,,1,,,72,0
205055,note_on,95,0,2,,,,,,,,1,,,80,0
205199,note_on,239,0,4,,,,,,,,3,,,41,0
205199,note_on,0,0,4,,,,,,,,3,,,29,0
205200,note_on,1,0,4,,,,,,,,3,,,32,69
205200,note_on,0,0,4,,,,,,,,3,,,44,69
205200,note_on,145,0,2,,,,,,,,1,,,68,76
205200,note_on,0,0,2,,,,,,,,1,,,72,76
205200,note_on,0,0,2,,,,,,,,1,,,77,76
205286,note_on,86,0,2,,,,,,,,1,,,77,0
205286,note_on,0,0,2,,,,,,,,1,,,72,0
205286,note_on,0,0,2,,,,,,,,1,,,68,0
205416,note_on,216,0,4,,,,,,,,3,,,44,0
205416,note_on,0,0,4,,,,,,,,3,,,32,0
205440,note_on,24,0,4,,,,,,,,3,,,34,64
205440,set_tempo,1920,1,0,,,,,,461538,,,,,,
205440,note_on,154,0,2,,,,,,,,1,,,75,64
205535,note_on,95,0,2,,,,,,,,1,,,75,0
205631,note_on,191,0,4,,,,,,,,3,,,34,0
205680,note_on,0,0,2,,,,,,,,1,,,65,64
205680,note_on,145,0,2,,,,,,,,1,,,68,64
205775,note_on,95,0,2,,,,,,,,1,,,65,0
205775,note_on,0,0,2,,,,,,,,1,,,68,0
205920,note_on,289,0,4,,,,,,,,3,,,46,64
205920,note_on,145,0,2,,,,,,,,1,,,74,64
206015,note_on,95,0,2,,,,,,,,1,,,74,0
206111,note_on,191,0,4,,,,,,,,3,,,46,0
206160,note_on,0,0,2,,,,,,,,1,,,65,62
206160,note_on,145,0,2,,,,,,,,1,,,68,62
206255,note_on,95,0,2,,,,,,,,1,,,65,0
206255,note_on,0,0,2,,,,,,,,1,,,68,0
206400,note_on,289,0,4,,,,,,,,3,,,58,64
206400,note_on,145,0,2,,,,,,,,1,,,72,60
206495,note_on,95,0,2,,,,,,,,1,,,72,0
206591,note_on,191,0,4,,,,,,,,3,,,58,0
206640,note_on,145,0,2,,,,,,,,1,,,65,57
206640,note_on,0,0,2,,,,,,,,1,,,68,57
206726,note_on,86,0,2,,,,,,,,1,,,68,0
206726,note_on,0,0,2,,,,,,,,1,,,65,0
206880,note_on,289,0,4,,,,,,,,3,,,58,66
206920,note_on,40,0,4,,,,,,,,3,,,65,67
206960,note_on,40,0,4,,,,,,,,3,,,68,70
207000,note_on,40,0,4,,,,,,,,3,,,74,71
207108,note_on,0,0,4,,,,,,,,3,,,65,0
207108,note_on,0,0,4,,,,,,,,3,,,58,0
207108,note_on,108,0,4,,,,,,,,3,,,74,0
207108,note_on,0,0,4,,,,,,,,3,,,68,0
207120,note_on,34080,0,1,,,,,,,,0,,,82,64
207120,note_on,0,0,1,,,,,,,,0,,,70,64
207336,note_on,0,0,1,,,,,,,,0,,,82,0
207336,note_on,216,0,1,,,,,,,,0,,,70,0
207360,note_on,0,0,4,,,,,,,,3,,,39,51
207360,control_change,24,0,1,,,,,,,,0,64,127,,
207360,note_on,0,0,1,,,,,,,,0,,,87,67
207360,control_change,252,0,4,,,,,,,,3,64,127,,
207360,note_on,0,0,4,,,,,,,,3,,,51,51
207360,control_change,634,0,2,,,,,,,,1,64,127,,
207360,note_on,0,0,1,,,,,,,,0,,,75,67
207520,note_on,160,0,2,,,,,,,,1,,,63,51
207520,note_on,0,0,2,,,,,,,,1,,,67,51
207520,note_on,0,0,2,,,,,,,,1,,,70,51
207679,note_on,159,0,2,,,,,,,,1,,,70,0
207679,note_on,0,0,2,,,,,,,,1,,,67,0
207679,note_on,0,0,2,,,,,,,,1,,,63,0
207680,note_on,1,0,2,,,,,,,,1,,,63,51
207680,note_on,0,0,2,,,,,,,,1,,,67,51
207680,note_on,0,0,2,,,,,,,,1,,,70,51
207792,note_on,0,0,4,,,,,,,,3,,,51,0
207792,note_on,432,0,4,,,,,,,,3,,,39,0
207839,note_on,159,0,2,,,,,,,,1,,,70,0
207839,note_on,0,0,2,,,,,,,,1,,,67,0
207839,note_on,0,0,2,,,,,,,,1,,,63,0
207840,note_on,0,0,2,,,,,,,,1,,,70,51
207840,note_on,1,0,2,,,,,,,,1,,,63,51
207840,note_on,0,0,2,,,,,,,,1,,,67,51
207999,note_on,0,0,2,,,,,,,,1,,,67,0
207999,note_on,159,0,2,,,,,,,,1,,,70,0
207999,note_on,0,0,2,,,,,,,,1,,,63,0
208000,note_on,0,0,2,,,,,,,,1,,,67,51
208000,note_on,0,0,2,,,,,,,,1,,,63,51
208000,note_on,1,0,2,,,,,,,,1,,,58,51
208159,note_on,0,0,2,,,,,,,,1,,,58,0
208159,note_on,0,0,2,,,,,,,,1,,,63,0
208159,note_on,159,0,2,,,,,,,,1,,,67,0
208160,note_on,0,0,2,,,,,,,,1,,,63,51
208160,note_on,1,0,2,,,,,,,,1,,,58,51
208160,note_on,0,0,2,,,,,,,,1,,,67,51
208319,note_on,159,0,2,,,,,,,,1,,,67,0
208319,note_on,0,0,2,,,,,,,,1,,,63,0
208319,note_on,0,0,2,,,,,,,,1,,,58,0
208320,note_on,1,0,2,,,,,,,,1,,,58,51
208320,note_on,0,0,2,,,,,,,,1,,,63,51
208320,note_on,0,0,2,,,,,,,,1,,,67,51
208320,control_change,528,0,4,,,,,,,,3,64,0,,
208479,note_on,159,0,2,,,,,,,,1,,,67,0
208479,note_on,0,0,2,,,,,,,,1,,,63,0
208479,note_on,0,0,2,,,,,,,,1,,,58,0
208480,note_on,1,0,2,,,,,,,,1,,,55,51
208480,note_on,0,0,2,,,,,,,,1,,,58,51
208480,note_on,0,0,2,,,,,,,,1,,,63,51
208639,note_on,159,0,2,,,,,,,,1,,,63,0
208639,note_on,0,0,2,,,,,,,,1,,,58,0
208639,note_on,0,0,2,,,,,,,,1,,,55,0
208640,note_on,0,0,2,,,,,,,,1,,,63,50
208640,note_on,0,0,2,,,,,,,,1,,,58,50
208640,note_on,1,0,2,,,,,,,,1,,,55,50
208799,note_on,0,0,2,,,,,,,,1,,,58,0
208799,note_on,159,0,2,,,,,,,,1,,,63,0
208799,note_on,0,0,2,,,,,,,,1,,,55,0
208800,note_on,0,0,2,,,,,,,,1,,,58,49
208800,note_on,0,0,2,,,,,,,,1,,,63,49
208800,note_on,1,0,2,,,,,,,,1,,,55,49
208959,note_on,0,0,2,,,,,,,,1,,,55,0
208959,note_on,159,0,2,,,,,,,,1,,,63,0
208959,note_on,0,0,2,,,,,,,,1,,,58,0
208960,note_on,0,0,2,,,,,,,,1,,,58,48
208960,note_on,1,0,2,,,,,,,,1,,,55,48
209039,note_on,0,0,1,,,,,,,,0,,,87,0
209039,note_on,1679,0,1,,,,,,,,0,,,75,0
209040,note_on,1,0,1,,,,,,,,0,,,70,83
209119,note_on,0,0,2,,,,,,,,1,,,55,0
209119,note_on,159,0,2,,,,,,,,1,,,58,0
209120,note_on,0,0,2,,,,,,,,1,,,58,47
209120,note_on,1,0,2,,,,,,,,1,,,55,47
209160,control_change,40,0,2,,,,,,,,1,64,0,,
209177,control_change,137,0,1,,,,,,,,0,64,0,,
209256,note_on,79,0,1,,,,,,,,0,,,70,0
209264,note_on,104,0,2,,,,,,,,1,,,58,0
209264,note_on,0,0,2,,,,,,,,1,,,55,0
209280,note_on,0,0,4,,,,,,,,3,,,39,40
209280,note_on,0,0,4,,,,,,,,3,,,51,40
209280,control_change,24,0,1,,,,,,,,0,64,127,,
209280,note_on,0,0,2,,,,,,,,1,,,58,46
209280,control_change,960,0,4,,,,,,,,3,64,127,,
209280,note_on,16,0,2,,,,,,,,1,,,55,46
209280,note_on,0,0,1,,,,,,,,0,,,70,91
209439,note_on,0,0,2,,,,,,,,1,,,55,0
209439,note_on,159,0,2,,,,,,,,1,,,58,0
209440,note_on,1,0,2,,,,,,,,1,,,58,45
209440,note_on,0,0,2,,,,,,,,1,,,63,45
209599,note_on,159,0,2,,,,,,,,1,,,63,0
209599,note_on,0,0,2,,,,,,,,1,,,58,0
209600,note_on,1,0,2,,,,,,,,1,,,58,45
209600,note_on,0,0,2,,,,,,,,1,,,63,45
209759,note_on,0,0,2,,,,,,,,1,,,58,0
209759,note_on,159,0,2,,,,,,,,1,,,63,0
209759,note_on,479,0,1,,,,,,,,0,,,70,0
209760,note_on,1,0,2,,,,,,,,1,,,55,44
209760,note_on,0,0,2,,,,,,,,1,,,58,44
209760,note_on,1,0,1,,,,,,,,0,,,67,83
209919,note_on,159,0,2,,,,,,,,1,,,58,0
209919,note_on,0,0,2,,,,,,,,1,,,55,0
209920,note_on,1,0,2,,,,,,,,1,,,58,43
209920,note_on,0,0,2,,,,,,,,1,,,61,43
209920,note_on,0,0,2,,,,,,,,1,,,67,43
209999,note_on,239,0,1,,,,,,,,0,,,67,0
210000,note_on,1,0,1,,,,,,,,0,,,68,91
210079,note_on,0,0,2,,,,,,,,1,,,58,0
210079,note_on,159,0,2,,,,,,,,1,,,67,0
210079,note_on,0,0,2,,,,,,,,1,,,61,0
210080,note_on,0,0,2,,,,,,,,1,,,61,42
210080,note_on,1,0,2,,,,,,,,1,,,58,42
210239,note_on,0,0,2,,,,,,,,1,,,58,0
210239,note_on,0,0,4,,,,,,,,3,,,51,0
210239,note_on,959,0,4,,,,,,,,3,,,39,0
210239,note_on,159,0,2,,,,,,,,1,,,61,0
210240,note_on,0,0,4,,,,,,,,3,,,39,67
210240,note_on,0,0,4,,,,,,,,3,,,51,67
210240,control_change,1,0,4,,,,,,,,3,64,0,,
210240,note_on,1,0,2,,,,,,,,1,,,56,40
210240,note_on,0,0,2,,,,,,,,1,,,60,40
210399,note_on,159,0,2,,,,,,,,1,,,60,0
210399,note_on,0,0,2,,,,,,,,1,,,56,0
210400,note_on,1,0,2,,,,,,,,1,,,60,40
210400,note_on,0,0,2,,,,,,,,1,,,63,40
210456,note_on,0,0,4,,,,,,,,3,,,51,0
210456,note_on,216,0,4,,,,,,,,3,,,39,0
210559,note_on,0,0,2,,,,,,,,1,,,60,0
210559,note_on,159,0,2,,,,,,,,1,,,63,0
210560,note_on,0,0,2,,,,,,,,1,,,63,40
210560,note_on,1,0,2,,,,,,,,1,,,60,40
210613,control_change,613,0,1,,,,,,,,0,64,0,,
210667,control_change,54,0,1,,,,,,,,0,64,127,,
210719,note_on,159,0,2,,,,,,,,1,,,63,0
210719,note_on,0,0,2,,,,,,,,1,,,60,0
210719,note_on,52,0,1,,,,,,,,0,,,68,0
210720,note_on,1,0,2,,,,,,,,1,,,63,40
210720,note_on,0,0,2,,,,,,,,1,,,68,40
210720,note_on,0,0,2,,,,,,,,1,,,70,40
210720,note_on,1,0,1,,,,,,,,0,,,72,91
210879,note_on,0,0,2,,,,,,,,1,,,63,0
210879,note_on,0,0,2,,,,,,,,1,,,68,0
210879,note_on,159,0,2,,,,,,,,1,,,70,0
210880,note_on,1,0,2,,,,,,,,1,,,63,40
210880,note_on,0,0,2,,,,,,,,1,,,68,40
210880,note_on,0,0,2,,,,,,,,1,,,72,40
210936,note_on,216,0,1,,,,,,,,0,,,72,0
211039,note_on,0,0,2,,,,,,,,1,,,63,0
211039,note_on,159,0,2,,,,,,,,1,,,72,0
211039,note_on,0,0,2,,,,,,,,1,,,68,0
211040,note_on,0,0,2,,,,,,,,1,,,72,40
211040,note_on,1,0,2,,,,,,,,1,,,63,40
211040,note_on,0,0,2,,,,,,,,1,,,68,40
211184,note_on,0,0,2,,,,,,,,1,,,63,0
211184,note_on,0,0,2,,,,,,,,1,,,68,0
211184,note_on,144,0,2,,,,,,,,1,,,72,0
211200,note_on,0,0,4,,,,,,,,3,,,39,40
211200,note_on,744,0,4,,,,,,,,3,,,51,40
211200,control_change,16,0,2,,,,,,,,1,64,127,,
211200,note_on,0,0,2,,,,,,,,1,,,63,40
211200,note_on,0,0,2,,,,,,,,1,,,67,40
211200,note_on,264,0,1,,,,,,,,0,,,70,84
211359,note_on,159,0,2,,,,,,,,1,,,67,0
211359,note_on,0,0,2,,,,,,,,1,,,63,0
211360,note_on,1,0,2,,,,,,,,1,,,58,40
211360,note_on,0,0,2,,,,,,,,1,,,63,40
211360,note_on,0,0,2,,,,,,,,1,,,67,40
211416,note_on,216,0,4,,,,,,,,3,,,39,0
211416,note_on,0,0,4,,,,,,,,3,,,51,0
211519,note_on,0,0,2,,,,,,,,1,,,63,0
211519,note_on,159,0,2,,,,,,,,1,,,67,0
211519,note_on,0,0,2,,,,,,,,1,,,58,0
211520,note_on,1,0,2,,,,,,,,1,,,58,40
211520,note_on,0,0,2,,,,,,,,1,,,63,40
211520,note_on,0,0,2,,,,,,,,1,,,67,40
211627,control_change,427,0,1,,,,,,,,0,64,0,,
211679,note_on,0,0,2,,,,,,,,1,,,63,0
211679,note_on,159,0,2,,,,,,,,1,,,67,0
211679,note_on,0,0,2,,,,,,,,1,,,58,0
211680,note_on,1,0,2,,,,,,,,1,,,58,40
211680,note_on,0,0,2,,,,,,,,1,,,63,40
211680,note_on,0,0,2,,,,,,,,1,,,67,40
211839,note_on,0,0,2,,,,,,,,1,,,58,0
211839,note_on,0,0,2,,,,,,,,1,,,63,0
211839,note_on,159,0,2,,,,,,,,1,,,67,0
211840,note_on,0,0,2,,,,,,,,1,,,70,40
211840,note_on,0,0,2,,,,,,,,1,,,67,40
211840,note_on,1,0,2,,,,,,,,1,,,63,40
211999,note_on,0,0,2,,,,,,,,1,,,67,0
211999,note_on,0,0,2,,,,,,,,1,,,63,0
211999,note_on,159,0,2,,,,,,,,1,,,70,0
212000,note_on,1,0,2,,,,,,,,1,,,63,40
212000,note_on,0,0,2,,,,,,,,1,,,67,40
212000,note_on,0,0,2,,,,,,,,1,,,70,40
212159,note_on,0,0,2,,,,,,,,1,,,63,0
212159,note_on,0,0,2,,,,,,,,1,,,67,0
212159,note_on,159,0,2,,,,,,,,1,,,70,0
212160,note_on,0,0,2,,,,,,,,1,,,70,40
212160,note_on,0,0,2,,,,,,,,1,,,67,40
212160,note_on,0,0,2,,,,,,,,1,,,63,40
212160,control_change,1,0,2,,,,,,,,1,64,0,,
212319,note_on,0,0,2,,,,,,,,1,,,67,0
212319,note_on,159,0,2,,,,,,,,1,,,70,0
212319,note_on,0,0,2,,,,,,,,1,,,63,0
212320,note_on,1,0,2,,,,,,,,1,,,67,40
212320,note_on,0,0,2,,,,,,,,1,,,70,40
212320,note_on,0,0,2,,,,,,,,1,,,75,40
212479,note_on,159,0,2,,,,,,,,1,,,75,0
212479,note_on,0,0,2,,,,,,,,1,,,70,0
212479,note_on,0,0,2,,,,,,,,1,,,67,0
212480,note_on,0,0,2,,,,,,,,1,,,75,40
212480,note_on,1,0,2,,,,,,,,1,,,67,40
212480,note_on,0,0,2,,,,,,,,1,,,70,40
212573,control_change,946,0,1,,,,,,,,0,64,127,,
212639,note_on,0,0,2,,,,,,,,1,,,67,0
212639,note_on,0,0,2,,,,,,,,1,,,70,0
212639,note_on,159,0,2,,,,,,,,1,,,75,0
212640,note_on,0,0,2,,,,,,,,1,,,70,40
212640,note_on,1,0,2,,,,,,,,1,,,75,40
212640,note_on,0,0,2,,,,,,,,1,,,67,40
212799,note_on,0,0,2,,,,,,,,1,,,75,0
212799,note_on,159,0,2,,,,,,,,1,,,67,0
212799,note_on,0,0,2,,,,,,,,1,,,70,0
212800,note_on,0,0,2,,,,,,,,1,,,75,40
212800,note_on,1,0,2,,,,,,,,1,,,79,40
212800,note_on,0,0,2,,,,,,,,1,,,70,40
212879,note_on,306,0,1,,,,,,,,0,,,70,0
212880,note_on,1,0,1,,,,,,,,0,,,79,83
212959,note_on,159,0,2,,,,,,,,1,,,70,0
212959,note_on,0,0,2,,,,,,,,1,,,75,0
212959,note_on,0,0,2,,,,,,,,1,,,79,0
212960,note_on,1,0,2,,,,,,,,1,,,79,40
212960,note_on,0,0,2,,,,,,,,1,,,75,40
212960,note_on,0,0,2,,,,,,,,1,,,70,40
213096,note_on,216,0,1,,,,,,,,0,,,79,0
213104,note_on,144,0,2,,,,,,,,1,,,70,0
213104,note_on,0,0,2,,,,,,,,1,,,79,0
213104,note_on,0,0,2,,,,,,,,1,,,75,0
213120,note_on,0,0,4,,,,,,,,3,,,46,40
213120,note_on,0,0,4,,,,,,,,3,,,34,40
213120,control_change,1704,0,4,,,,,,,,3,64,127,,
213120,note_on,0,0,2,,,,,,,,1,,,70,40
213120,note_on,24,0,1,,,,,,,,0,,,82,91
213120,note_on,0,0,2,,,,,,,,1,,,79,40
213120,control_change,16,0,2,,,,,,,,1,64,127,,
213279,note_on,159,0,2,,,,,,,,1,,,70,0
213279,note_on,0,0,2,,,,,,,,1,,,79,0
213280,note_on,1,0,2,,,,,,,,1,,,75,40
213280,note_on,0,0,2,,,,,,,,1,,,70,40
213280,note_on,0,0,2,,,,,,,,1,,,67,40
213439,note_on,159,0,2,,,,,,,,1,,,67,0
213439,note_on,0,0,2,,,,,,,,1,,,70,0
213439,note_on,0,0,2,,,,,,,,1,,,75,0
213440,note_on,0,0,2,,,,,,,,1,,,70,40
213440,note_on,0,0,2,,,,,,,,1,,,67,40
213440,note_on,1,0,2,,,,,,,,1,,,75,40
213533,control_change,413,0,1,,,,,,,,0,64,0,,
213599,note_on,159,0,2,,,,,,,,1,,,67,0
213599,note_on,0,0,2,,,,,,,,1,,,70,0
213599,note_on,0,0,2,,,,,,,,1,,,75,0
213600,note_on,1,0,2,,,,,,,,1,,,79,40
213600,note_on,0,0,2,,,,,,,,1,,,75,40
213600,note_on,0,0,2,,,,,,,,1,,,70,40
213759,note_on,0,0,2,,,,,,,,1,,,79,0
213759,note_on,0,0,2,,,,,,,,1,,,75,0
213759,note_on,159,0,2,,,,,,,,1,,,70,0
213760,note_on,0,0,2,,,,,,,,1,,,70,40
213760,note_on,1,0,2,,,,,,,,1,,,75,40
213760,note_on,0,0,2,,,,,,,,1,,,67,40
213919,note_on,159,0,2,,,,,,,,1,,,67,0
213919,note_on,0,0,2,,,,,,,,1,,,70,0
213919,note_on,0,0,2,,,,,,,,1,,,75,0
213920,note_on,0,0,2,,,,,,,,1,,,70,40
213920,note_on,0,0,2,,,,,,,,1,,,67,40
213920,note_on,1,0,2,,,,,,,,1,,,75,40
214079,note_on,159,0,2,,,,,,,,1,,,67,0
214079,note_on,0,0,2,,,,,,,,1,,,70,0
214079,note_on,959,0,4,,,,,,,,3,,,46,0
214079,note_on,0,0,4,,,,,,,,3,,,34,0
214079,note_on,0,0,2,,,,,,,,1,,,75,0
214080,control_change,1,0,4,,,,,,,,3,64,0,,
214080,note_on,0,0,4,,,,,,,,3,,,34,40
214080,note_on,0,0,4,,,,,,,,3,,,46,40
214080,note_on,0,0,2,,,,,,,,1,,,77,40
214080,control_change,1,0,2,,,,,,,,1,64,0,,
214080,note_on,0,0,2,,,,,,,,1,,,72,40
214080,note_on,0,0,2,,,,,,,,1,,,68,40
214239,note_on,159,0,2,,,,,,,,1,,,68,0
214239,note_on,0,0,2,,,,,,,,1,,,72,0
214239,note_on,0,0,2,,,,,,,,1,,,77,0
214240,note_on,1,0,2,,,,,,,,1,,,72,40
214240,note_on,0,0,2,,,,,,,,1,,,68,40
214240,note_on,0,0,2,,,,,,,,1,,,65,40
214296,note_on,216,0,4,,,,,,,,3,,,46,0
214296,note_on,0,0,4,,,,,,,,3,,,34,0
214399,note_on,0,0,2,,,,,,,,1,,,68,0
214399,note_on,0,0,2,,,,,,,,1,,,72,0
214399,note_on,159,0,2,,,,,,,,1,,,65,0
214400,note_on,1,0,2,,,,,,,,1,,,72,41
214400,note_on,0,0,2,,,,,,,,1,,,68,41
214400,note_on,0,0,2,,,,,,,,1,,,65,41
214559,note_on,0,0,2,,,,,,,,1,,,72,0
214559,note_on,0,0,2,,,,,,,,1,,,68,0
214559,note_on,159,0,2,,,,,,,,1,,,65,0
214560,note_on,0,0,2,,,,,,,,1,,,74,43
214560,note_on,0,0,2,,,,,,,,1,,,68,43
214560,note_on,1,0,2,,,,,,,,1,,,65,43
214719,note_on,0,0,2,,,,,,,,1,,,65,0
214719,note_on,0,0,2,,,,,,,,1,,,68,0
214719,note_on,159,0,2,,,,,,,,1,,,74,0
214720,note_on,1,0,2,,,,,,,,1,,,65,45
214720,note_on,0,0,2,,,,,,,,1,,,68,45
214720,note_on,0,0,2,,,,,,,,1,,,70,45
214848,note_on,1315,0,1,,,,,,,,0,,,82,0
214879,note_on,159,0,2,,,,,,,,1,,,70,0
214879,note_on,0,0,2,,,,,,,,1,,,68,0
214879,note_on,0,0,2,,,,,,,,1,,,65,0
214880,note_on,1,0,2,,,,,,,,1,,,65,47
214880,note_on,0,0,2,,,,,,,,1,,,70,47
214880,note_on,0,0,2,,,,,,,,1,,,68,47
215024,note_on,144,0,2,,,,,,,,1,,,70,0
215024,note_on,0,0,2,,,,,,,,1,,,65,0
215024,note_on,0,0,2,,,,,,,,1,,,68,0
215040,note_on,0,0,4,,,,,,,,3,,,39,51
215040,note_on,16,0,2,,,,,,,,1,,,67,49
215040,note_on,0,0,2,,,,,,,,1,,,70,49
215040,note_on,0,0,2,,,,,,,,1,,,75,49
215040,note_on,744,0,4,,,,,,,,3,,,51,51
215199,note_on,159,0,2,,,,,,,,1,,,75,0
215199,note_on,0,0,2,,,,,,,,1,,,70,0
215199,note_on,0,0,2,,,,,,,,1,,,67,0
215200,note_on,0,0,2,,,,,,,,1,,,70,51
215200,note_on,1,0,2,,,,,,,,1,,,63,51
215200,note_on,0,0,2,,,,,,,,1,,,67,51
215359,note_on,159,0,2,,,,,,,,1,,,70,0
215359,note_on,0,0,2,,,,,,,,1,,,67,0
215359,note_on,0,0,2,,,,,,,,1,,,63,0
215360,note_on,1,0,2,,,,,,,,1,,,63,51
215360,note_on,0,0,2,,,,,,,,1,,,67,51
215360,note_on,0,0,2,,,,,,,,1,,,70,51
215519,note_on,159,0,2,,,,,,,,1,,,70,0
215519,note_on,0,0,2,,,,,,,,1,,,63,0
215519,note_on,0,0,2,,,,,,,,1,,,67,0
215520,note_on,0,0,2,,,,,,,,1,,,70,51
215520,note_on,1,0,2,,,,,,,,1,,,63,51
215520,note_on,0,0,2,,,,,,,,1,,,67,51
215679,note_on,159,0,2,,,,,,,,1,,,70,0
215679,note_on,0,0,2,,,,,,,,1,,,67,0
215679,note_on,0,0,2,,,,,,,,1,,,63,0
215680,note_on,0,0,2,,,,,,,,1,,,63,51
215680,note_on,1,0,2,,,,,,,,1,,,58,51
215680,note_on,0,0,2,,,,,,,,1,,,67,51
215839,note_on,159,0,2,,,,,,,,1,,,67,0
215839,note_on,0,0,2,,,,,,,,1,,,63,0
215839,note_on,0,0,2,,,,,,,,1,,,58,0
215840,note_on,1,0,2,,,,,,,,1,,,58,51
215840,note_on,0,0,2,,,,,,,,1,,,63,51
215840,note_on,0,0,2,,,,,,,,1,,,67,51
215999,note_on,0,0,2,,,,,,,,1,,,58,0
215999,note_on,0,0,2,,,,,,,,1,,,63,0
215999,note_on,159,0,2,,,,,,,,1,,,67,0
216000,note_on,0,0,2,,,,,,,,1,,,67,51
216000,note_on,0,0,2,,,,,,,,1,,,63,51
216000,note_on,1,0,2,,,,,,,,1,,,58,51
216159,note_on,0,0,2,,,,,,,,1,,,58,0
216159,note_on,0,0,2,,,,,,,,1,,,63,0
216159,note_on,159,0,2,,,,,,,,1,,,67,0
216160,note_on,0,0,2,,,,,,,,1,,,63,51
216160,note_on,0,0,2,,,,,,,,1,,,58,51
216160,note_on,1,0,2,,,,,,,,1,,,55,51
216319,note_on,0,0,2,,,,,,,,1,,,55,0
216319,note_on,0,0,2,,,,,,,,1,,,58,0
216319,note_on,159,0,2,,,,,,,,1,,,63,0
216320,note_on,0,0,2,,,,,,,,1,,,63,51
216320,note_on,0,0,2,,,,,,,,1,,,58,51
216320,note_on,1,0,2,,,,,,,,1,,,55,51
216479,note_on,159,0,2,,,,,,,,1,,,63,0
216479,note_on,0,0,2,,,,,,,,1,,,55,0
216479,note_on,0,0,4,,,,,,,,3,,,51,0
216479,note_on,1439,0,4,,,,,,,,3,,,39,0
216479,note_on,0,0,2,,,,,,,,1,,,58,0
216480,note_on,0,0,4,,,,,,,,3,,,46,51
216480,note_on,1632,0,1,,,,,,,,0,,,63,91
216480,note_on,1,0,2,,,,,,,,1,,,55,51
216480,note_on,0,0,2,,,,,,,,1,,,58,51
216480,note_on,1,0,4,,,,,,,,3,,,34,51
216639,note_on,159,0,2,,,,,,,,1,,,58,0
216639,note_on,0,0,2,,,,,,,,1,,,55,0
216640,note_on,0,0,2,,,,,,,,1,,,55,51
216640,note_on,1,0,2,,,,,,,,1,,,51,51
216719,note_on,239,0,4,,,,,,,,3,,,46,0
216719,note_on,0,0,4,,,,,,,,3,,,34,0
216720,note_on,1,0,4,,,,,,,,3,,,34,45
216720,note_on,0,0,4,,,,,,,,3,,,46,45
216799,note_on,159,0,2,,,,,,,,1,,,55,0
216799,note_on,0,0,2,,,,,,,,1,,,51,0
216800,note_on,0,0,2,,,,,,,,1,,,55,48
216800,note_on,1,0,2,,,,,,,,1,,,51,48
216912,note_on,432,0,1,,,,,,,,0,,,63,0
216936,note_on,216,0,4,,,,,,,,3,,,46,0
216936,note_on,0,0,4,,,,,,,,3,,,34,0
216944,note_on,0,0,2,,,,,,,,1,,,51,0
216944,note_on,144,0,2,,,,,,,,1,,,55,0
216960,note_on,0,0,1,,,,,,,,0,,,62,81
216960,control_change,24,0,4,,,,,,,,3,64,127,,
216960,note_on,0,0,4,,,,,,,,3,,,34,40
216960,control_change,16,0,2,,,,,,,,1,64,127,,
216960,control_change,48,0,1,,,,,,,,0,64,127,,
216960,note_on,0,0,4,,,,,,,,3,,,46,40
216960,note_on,0,0,2,,,,,,,,1,,,60,47
216960,note_on,0,0,2,,,,,,,,1,,,56,47
217119,note_on,159,0,2,,,,,,,,1,,,60,0
217119,note_on,0,0,2,,,,,,,,1,,,56,0
217120,note_on,1,0,2,,,,,,,,1,,,56,47
217120,note_on,0,0,2,,,,,,,,1,,,58,47
217279,note_on,0,0,2,,,,,,,,1,,,56,0
217279,note_on,159,0,2,,,,,,,,1,,,58,0
217280,note_on,0,0,2,,,,,,,,1,,,58,46
217280,note_on,1,0,2,,,,,,,,1,,,56,46
217439,note_on,0,0,2,,,,,,,,1,,,56,0
217439,note_on,159,0,2,,,,,,,,1,,,58,0
217440,note_on,0,0,2,,,,,,,,1,,,70,45
217440,note_on,0,0,2,,,,,,,,1,,,68,45
217440,note_on,1,0,2,,,,,,,,1,,,62,45
217599,note_on,0,0,2,,,,,,,,1,,,68,0
217599,note_on,0,0,2,,,,,,,,1,,,62,0
217599,note_on,159,0,2,,,,,,,,1,,,70,0
217600,note_on,0,0,2,,,,,,,,1,,,70,44
217600,note_on,1,0,2,,,,,,,,1,,,62,44
217600,note_on,0,0,2,,,,,,,,1,,,65,44
217759,note_on,159,0,2,,,,,,,,1,,,70,0
217759,note_on,0,0,2,,,,,,,,1,,,65,0
217759,note_on,0,0,2,,,,,,,,1,,,62,0
217759,note_on,799,0,1,,,,,,,,0,,,62,0
217760,note_on,1,0,1,,,,,,,,0,,,70,85
217760,note_on,1,0,2,,,,,,,,1,,,62,44
217760,note_on,0,0,2,,,,,,,,1,,,65,44
217919,note_on,959,0,4,,,,,,,,3,,,46,0
217919,note_on,0,0,4,,,,,,,,3,,,34,0
217919,note_on,0,0,2,,,,,,,,1,,,62,0
217919,note_on,159,0,2,,,,,,,,1,,,65,0
217919,note_on,159,0,1,,,,,,,,0,,,70,0
217920,note_on,1,0,1,,,,,,,,0,,,62,91
217920,note_on,1,0,2,,,,,,,,1,,,53,43
217920,note_on,1,0,4,,,,,,,,3,,,34,40
217920,note_on,0,0,4,,,,,,,,3,,,46,40
217920,note_on,0,0,2,,,,,,,,1,,,56,43
218079,note_on,159,0,2,,,,,,,,1,,,56,0
218079,note_on,0,0,2,,,,,,,,1,,,53,0
218080,note_on,0,0,2,,,,,,,,1,,,58,40
218080,note_on,1,0,2,,,,,,,,1,,,56,40
218136,note_on,216,0,4,,,,,,,,3,,,46,0
218136,note_on,0,0,4,,,,,,,,3,,,34,0
218239,note_on,0,0,2,,,,,,,,1,,,56,0
218239,note_on,159,0,2,,,,,,,,1,,,58,0
218240,note_on,0,0,2,,,,,,,,1,,,58,40
218240,note_on,1,0,2,,,,,,,,1,,,56,40
218399,note_on,159,0,2,,,,,,,,1,,,58,0
218399,note_on,0,0,2,,,,,,,,1,,,56,0
218400,note_on,1,0,2,,,,,,,,1,,,62,40
218400,note_on,0,0,2,,,,,,,,1,,,70,40
218400,note_on,0,0,2,,,,,,,,1,,,68,40
218559,note_on,159,0,2,,,,,,,,1,,,70,0
218559,note_on,0,0,2,,,,,,,,1,,,68,0
218559,note_on,0,0,2,,,,,,,,1,,,62,0
218560,note_on,1,0,2,,,,,,,,1,,,62,40
218560,note_on,0,0,2,,,,,,,,1,,,65,40
218560,note_on,0,0,2,,,,,,,,1,,,70,40
218680,control_change,544,0,4,,,,,,,,3,64,0,,
218719,note_on,799,0,1,,,,,,,,0,,,62,0
218719,note_on,159,0,2,,,,,,,,1,,,70,0
218719,note_on,0,0,2,,,,,,,,1,,,65,0
218719,note_on,0,0,2,,,,,,,,1,,,62,0
218720,note_on,1,0,1,,,,,,,,0,,,70,81
218720,note_on,0,0,2,,,,,,,,1,,,65,40
218720,note_on,1,0,2,,,,,,,,1,,,62,40
218747,control_change,27,0,1,,,,,,,,0,64,0,,
218760,control_change,40,0,2,,,,,,,,1,64,0,,
218864,note_on,104,0,2,,,,,,,,1,,,65,0
218864,note_on,0,0,2,,,,,,,,1,,,62,0
218864,note_on,117,0,1,,,,,,,,0,,,70,0
218880,control_change,200,0,4,,,,,,,,3,64,127,,
218880,note_on,0,0,4,,,,,,,,3,,,34,40
218880,note_on,0,0,2,,,,,,,,1,,,55,40
218880,note_on,0,0,2,,,,,,,,1,,,58,40
218880,control_change,16,0,2,,,,,,,,1,64,127,,
218880,note_on,16,0,1,,,,,,,,0,,,63,91
218880,note_on,0,0,4,,,,,,,,3,,,46,40
218893,control_change,13,0,1,,,,,,,,0,64,127,,
219039,note_on,0,0,2,,,,,,,,1,,,55,0
219039,note_on,159,0,2,,,,,,,,1,,,58,0
219040,note_on,1,0,2,,,,,,,,1,,,55,40
219040,note_on,0,0,2,,,,,,,,1,,,58,40
219199,note_on,0,0,2,,,,,,,,1,,,55,0
219199,note_on,159,0,2,,,,,,,,1,,,58,0
219200,note_on,1,0,2,,,,,,,,1,,,55,40
219200,note_on,0,0,2,,,,,,,,1,,,58,40
219359,note_on,159,0,2,,,,,,,,1,,,58,0
219359,note_on,0,0,2,,,,,,,,1,,,55,0
219360,note_on,0,0,2,,,,,,,,1,,,75,40
219360,note_on,0,0,2,,,,,,,,1,,,70,40
219360,note_on,1,0,2,,,,,,,,1,,,67,40
219519,note_on,0,0,2,,,,,,,,1,,,67,0
219519,note_on,0,0,2,,,,,,,,1,,,70,0
219519,note_on,159,0,2,,,,,,,,1,,,75,0
219520,note_on,0,0,2,,,,,,,,1,,,75,40
219520,note_on,0,0,2,,,,,,,,1,,,67,40
219520,note_on,1,0,2,,,,,,,,1,,,63,40
219599,note_on,706,0,1,,,,,,,,0,,,63,0
219600,note_on,1,0,1,,,,,,,,0,,,75,84
219679,note_on,159,0,2,,,,,,,,1,,,75,0
219679,note_on,0,0,2,,,,,,,,1,,,67,0
219679,note_on,0,0,2,,,,,,,,1,,,63,0
219680,note_on,0,0,2,,,,,,,,1,,,67,40
219680,note_on,1,0,2,,,,,,,,1,,,63,40
219839,note_on,239,0,1,,,,,,,,0,,,75,0
219839,note_on,959,0,4,,,,,,,,3,,,46,0
219839,note_on,0,0,4,,,,,,,,3,,,34,0
219839,note_on,0,0,2,,,,,,,,1,,,63,0
219839,note_on,159,0,2,,,,,,,,1,,,67,0
219840,note_on,0,0,2,,,,,,,,1,,,67,40
219840,note_on,0,0,2,,,,,,,,1,,,63,40
219840,note_on,1,0,1,,,,,,,,0,,,70,91
219840,note_on,1,0,4,,,,,,,,3,,,34,40
219840,note_on,0,0,4,,,,,,,,3,,,46,40
219840,control_change,1,0,2,,,,,,,,1,64,0,,
219999,note_on,159,0,2,,,,,,,,1,,,67,0
219999,note_on,0,0,2,,,,,,,,1,,,63,0
220000,note_on,0,0,2,,,,,,,,1,,,63,40
220000,note_on,1,0,2,,,,,,,,1,,,58,40
220056,note_on,0,0,4,,,,,,,,3,,,34,0
220056,note_on,216,0,4,,,,,,,,3,,,46,0
220159,note_on,0,0,2,,,,,,,,1,,,58,0
220159,note_on,159,0,2,,,,,,,,1,,,63,0
220160,note_on,0,0,2,,,,,,,,1,,,63,40
220160,note_on,1,0,2,,,,,,,,1,,,58,40
220319,note_on,159,0,2,,,,,,,,1,,,63,0
220319,note_on,0,0,2,,,,,,,,1,,,58,0
220320,note_on,1,0,2,,,,,,,,1,,,63,40
220320,note_on,0,0,2,,,,,,,,1,,,67,40
220479,note_on,159,0,2,,,,,,,,1,,,67,0
220479,note_on,0,0,2,,,,,,,,1,,,63,0
220480,note_on,1,0,2,,,,,,,,1,,,63,40
220480,note_on,0,0,2,,,,,,,,1,,,67,40
220480,note_on,0,0,2,,,,,,,,1,,,70,40
220639,note_on,0,0,2,,,,,,,,1,,,67,0
220639,note_on,0,0,2,,,,,,,,1,,,63,0
220639,note_on,159,0,2,,,,,,,,1,,,70,0
220639,note_on,799,0,1,,,,,,,,0,,,70,0
220640,note_on,1,0,1,,,,,,,,0,,,70,84
220640,note_on,0,0,2,,,,,,,,1,,,67,40
220640,note_on,1,0,2,,,,,,,,1,,,63,40
220680,control_change,40,0,1,,,,,,,,0,64,0,,
220693,control_change,637,0,4,,,,,,,,3,64,0,,
220784,note_on,104,0,1,,,,,,,,0,,,70,0
220784,note_on,0,0,2,,,,,,,,1,,,63,0
220784,note_on,144,0,2,,,,,,,,1,,,67,0
220800,note_on,0,0,1,,,,,,,,0,,,72,91
220800,control_change,107,0,4,,,,,,,,3,64,127,,
220800,note_on,0,0,4,,,,,,,,3,,,34,40
220800,note_on,0,0,4,,,,,,,,3,,,46,40
220800,control_change,16,0,2,,,,,,,,1,64,127,,
220800,note_on,0,0,2,,,,,,,,1,,,65,40
220800,note_on,0,0,2,,,,,,,,1,,,68,40
220800,control_change,16,0,1,,,,,,,,0,64,127,,
220959,note_on,159,0,2,,,,,,,,1,,,68,0
220959,note_on,0,0,2,,,,,,,,1,,,65,0
220960,note_on,1,0,2,,,,,,,,1,,,60,40
220960,note_on,0,0,2,,,,,,,,1,,,65,40
220960,note_on,0,0,2,,,,,,,,1,,,68,40
221119,note_on,159,0,2,,,,,,,,1,,,68,0
221119,note_on,0,0,2,,,,,,,,1,,,65,0
221119,note_on,0,0,2,,,,,,,,1,,,60,0
221120,note_on,1,0,2,,,,,,,,1,,,60,40
221120,note_on,0,0,2,,,,,,,,1,,,65,40
221120,note_on,0,0,2,,,,,,,,1,,,68,40
221279,note_on,159,0,2,,,,,,,,1,,,68,0
221279,note_on,0,0,2,,,,,,,,1,,,65,0
221279,note_on,0,0,2,,,,,,,,1,,,60,0
221280,note_on,1,0,2,,,,,,,,1,,,68,40
221280,note_on,0,0,2,,,,,,,,1,,,72,40
221280,note_on,0,0,2,,,,,,,,1,,,77,40
221439,note_on,159,0,2,,,,,,,,1,,,77,0
221439,note_on,0,0,2,,,,,,,,1,,,72,0
221439,note_on,0,0,2,,,,,,,,1,,,68,0
221440,note_on,1,0,2,,,,,,,,1,,,65,40
221440,note_on,0,0,2,,,,,,,,1,,,72,40
221440,note_on,0,0,2,,,,,,,,1,,,68,40
221599,note_on,0,0,2,,,,,,,,1,,,68,0
221599,note_on,159,0,2,,,,,,,,1,,,72,0
221599,note_on,0,0,2,,,,,,,,1,,,65,0
221599,note_on,799,0,1,,,,,,,,0,,,72,0
221600,note_on,1,0,2,,,,,,,,1,,,65,40
221600,note_on,0,0,2,,,,,,,,1,,,68,40
221600,note_on,1,0,1,,,,,,,,0,,,72,81
221680,control_change,80,0,2,,,,,,,,1,64,0,,
221680,control_change,880,0,4,,,,,,,,3,64,0,,
221690,control_change,90,0,1,,,,,,,,0,64,0,,
221740,control_change,50,0,1,,,,,,,,0,64,127,,
221740,control_change,60,0,4,,,,,,,,3,64,127,,
221759,note_on,0,0,2,,,,,,,,1,,,65,0
221759,note_on,79,0,2,,,,,,,,1,,,68,0
221759,note_on,19,0,4,,,,,,,,3,,,46,0
221759,note_on,0,0,4,,,,,,,,3,,,34,0
221759,note_on,19,0,1,,,,,,,,0,,,72,0
221760,note_on,1,0,4,,,,,,,,3,,,34,40
221760,note_on,0,0,4,,,,,,,,3,,,46,40
221760,note_on,1,0,1,,,,,,,,0,,,70,91
221760,note_on,1,0,2,,,,,,,,1,,,63,40
221760,note_on,0,0,2,,,,,,,,1,,,67,40
221770,control_change,10,0,2,,,,,,,,1,64,127,,
221919,note_on,149,0,2,,,,,,,,1,,,67,0
221919,note_on,0,0,2,,,,,,,,1,,,63,0
221920,note_on,1,0,2,,,,,,,,1,,,58,40
221920,note_on,0,0,2,,,,,,,,1,,,63,40
221920,note_on,0,0,2,,,,,,,,1,,,67,40
221976,note_on,0,0,4,,,,,,,,3,,,34,0
221976,note_on,216,0,4,,,,,,,,3,,,46,0
222079,note_on,159,0,2,,,,,,,,1,,,67,0
222079,note_on,0,0,2,,,,,,,,1,,,63,0
222079,note_on,0,0,2,,,,,,,,1,,,58,0
222080,note_on,1,0,2,,,,,,,,1,,,58,40
222080,note_on,0,0,2,,,,,,,,1,,,63,40
222080,note_on,0,0,2,,,,,,,,1,,,67,40
222239,note_on,159,0,2,,,,,,,,1,,,67,0
222239,note_on,0,0,2,,,,,,,,1,,,63,0
222239,note_on,0,0,2,,,,,,,,1,,,58,0
222240,note_on,0,0,2,,,,,,,,1,,,75,40
222240,note_on,0,0,2,,,,,,,,1,,,70,40
222240,note_on,1,0,2,,,,,,,,1,,,67,40
222399,note_on,0,0,2,,,,,,,,1,,,67,0
222399,note_on,0,0,2,,,,,,,,1,,,70,0
222399,note_on,159,0,2,,,,,,,,1,,,75,0
222400,note_on,0,0,2,,,,,,,,1,,,70,40
222400,note_on,0,0,2,,,,,,,,1,,,67,40
222400,note_on,1,0,2,,,,,,,,1,,,63,40
222559,note_on,799,0,1,,,,,,,,0,,,70,0
222559,note_on,0,0,2,,,,,,,,1,,,63,0
222559,note_on,0,0,2,,,,,,,,1,,,67,0
222559,note_on,159,0,2,,,,,,,,1,,,70,0
222560,note_on,1,0,1,,,,,,,,0,,,70,91
222560,note_on,1,0,2,,,,,,,,1,,,63,40
222560,note_on,0,0,2,,,,,,,,1,,,67,40
222700,control_change,140,0,1,,,,,,,,0,64,0,,
222700,control_change,724,0,4,,,,,,,,3,64,0,,
222704,note_on,144,0,2,,,,,,,,1,,,67,0
222704,note_on,0,0,2,,,,,,,,1,,,63,0
222704,note_on,4,0,1,,,,,,,,0,,,70,0
222720,note_on,0,0,4,,,,,,,,3,,,46,40
222720,note_on,16,0,2,,,,,,,,1,,,62,40
222720,note_on,0,0,2,,,,,,,,1,,,65,40
222720,note_on,0,0,2,,,,,,,,1,,,68,40
222720,note_on,20,0,4,,,,,,,,3,,,34,40
222720,note_on,16,0,1,,,,,,,,0,,,68,77
222730,control_change,10,0,2,,,,,,,,1,64,0,,
222750,control_change,30,0,4,,,,,,,,3,64,127,,
222750,control_change,20,0,2,,,,,,,,1,64,127,,
222750,control_change,30,0,1,,,,,,,,0,64,127,,
222879,note_on,0,0,2,,,,,,,,1,,,62,0
222879,note_on,0,0,2,,,,,,,,1,,,65,0
222879,note_on,129,0,2,,,,,,,,1,,,68,0
222880,note_on,0,0,2,,,,,,,,1,,,62,40
222880,note_on,1,0,2,,,,,,,,1,,,58,40
223039,note_on,0,0,2,,,,,,,,1,,,58,0
223039,note_on,159,0,2,,,,,,,,1,,,62,0
223040,note_on,0,0,2,,,,,,,,1,,,62,40
223040,note_on,1,0,2,,,,,,,,1,,,58,40
223199,note_on,0,0,2,,,,,,,,1,,,58,0
223199,note_on,159,0,2,,,,,,,,1,,,62,0
223200,note_on,1,0,2,,,,,,,,1,,,65,40
223200,note_on,0,0,2,,,,,,,,1,,,68,40
223200,note_on,0,0,2,,,,,,,,1,,,72,40
223359,note_on,0,0,2,,,,,,,,1,,,68,0
223359,note_on,0,0,2,,,,,,,,1,,,65,0
223359,note_on,159,0,2,,,,,,,,1,,,72,0
223360,note_on,1,0,2,,,,,,,,1,,,62,40
223360,note_on,0,0,2,,,,,,,,1,,,65,40
223360,note_on,0,0,2,,,,,,,,1,,,70,40
223519,note_on,0,0,2,,,,,,,,1,,,62,0
223519,note_on,769,0,1,,,,,,,,0,,,68,0
223519,note_on,159,0,2,,,,,,,,1,,,70,0
223519,note_on,0,0,2,,,,,,,,1,,,65,0
223520,note_on,1,0,1,,,,,,,,0,,,70,85
223520,note_on,0,0,2,,,,,,,,1,,,65,40
223520,note_on,1,0,2,,,,,,,,1,,,62,40
223679,note_on,929,0,4,,,,,,,,3,,,46,0
223679,note_on,0,0,4,,,,,,,,3,,,34,0
223679,note_on,159,0,2,,,,,,,,1,,,65,0
223679,note_on,0,0,2,,,,,,,,1,,,62,0
223679,note_on,159,0,1,,,,,,,,0,,,70,0
223680,note_on,1,0,4,,,,,,,,3,,,34,40
223680,note_on,1,0,1,,,,,,,,0,,,67,91
223680,note_on,0,0,2,,,,,,,,1,,,63,40
223680,note_on,1,0,2,,,,,,,,1,,,58,40
223680,note_on,0,0,4,,,,,,,,3,,,46,40
223710,control_change,30,0,2,,,,,,,,1,64,0,,
223710,control_change,30,0,4,,,,,,,,3,64,0,,
223710,control_change,30,0,1,,,,,,,,0,64,0,,
223839,note_on,0,0,2,,,,,,,,1,,,58,0
223839,note_on,129,0,2,,,,,,,,1,,,63,0
223840,note_on,0,0,2,,,,,,,,1,,,58,40
223840,note_on,1,0,2,,,,,,,,1,,,55,40
223840,note_on,0,0,2,,,,,,,,1,,,63,40
223896,note_on,0,0,4,,,,,,,,3,,,34,0
223896,note_on,186,0,4,,,,,,,,3,,,46,0
223999,note_on,159,0,2,,,,,,,,1,,,63,0
223999,note_on,0,0,2,,,,,,,,1,,,58,0
223999,note_on,0,0,2,,,,,,,,1,,,55,0
224000,note_on,1,0,2,,,,,,,,1,,,55,40
224000,note_on,0,0,2,,,,,,,,1,,,58,40
224000,note_on,0,0,2,,,,,,,,1,,,63,40
224020,control_change,310,0,1,,,,,,,,0,64,127,,
224159,note_on,159,0,2,,,,,,,,1,,,63,0
224159,note_on,0,0,2,,,,,,,,1,,,55,0
224159,note_on,0,0,2,,,,,,,,1,,,58,0
224160,note_on,0,0,2,,,,,,,,1,,,63,40
224160,note_on,0,0,2,,,,,,,,1,,,58,40
224160,note_on,1,0,2,,,,,,,,1,,,55,40
224319,note_on,0,0,2,,,,,,,,1,,,55,0
224319,note_on,0,0,2,,,,,,,,1,,,58,0
224319,note_on,159,0,2,,,,,,,,1,,,63,0
224320,note_on,0,0,2,,,,,,,,1,,,58,40
224320,note_on,1,0,2,,,,,,,,1,,,55,40
224479,note_on,0,0,2,,,,,,,,1,,,55,0
224479,note_on,159,0,2,,,,,,,,1,,,58,0
224479,note_on,459,0,1,,,,,,,,0,,,67,0
224480,note_on,1,0,1,,,,,,,,0,,,63,84
224480,note_on,1,0,2,,,,,,,,1,,,55,40
224480,note_on,0,0,2,,,,,,,,1,,,58,40
224624,note_on,144,0,1,,,,,,,,0,,,63,0
224624,note_on,0,0,2,,,,,,,,1,,,55,0
224624,note_on,144,0,2,,,,,,,,1,,,58,0
224640,note_on,0,0,2,,,,,,,,1,,,53,40
224640,note_on,0,0,2,,,,,,,,1,,,56,40
224640,control_change,16,0,2,,,,,,,,1,64,127,,
224640,control_change,0,0,1,,,,,,,,0,64,127,,
224640,note_on,0,0,1,,,,,,,,0,,,62,91
224640,note_on,0,0,4,,,,,,,,3,,,34,40
224640,control_change,16,0,1,,,,,,,,0,64,0,,
224640,note_on,0,0,4,,,,,,,,3,,,46,40
224640,control_change,744,0,4,,,,,,,,3,64,127,,
224799,note_on,0,0,2,,,,,,,,1,,,53,0
224799,note_on,159,0,2,,,,,,,,1,,,56,0
224800,note_on,1,0,2,,,,,,,,1,,,56,40
224800,note_on,0,0,2,,,,,,,,1,,,58,40
224959,note_on,0,0,2,,,,,,,,1,,,56,0
224959,note_on,159,0,2,,,,,,,,1,,,58,0
224960,note_on,1,0,2,,,,,,,,1,,,56,40
224960,note_on,0,0,2,,,,,,,,1,,,58,40
225119,note_on,159,0,2,,,,,,,,1,,,58,0
225119,note_on,0,0,2,,,,,,,,1,,,56,0
225119,note_on,479,0,4,,,,,,,,3,,,46,0
225119,note_on,0,0,4,,,,,,,,3,,,34,0
225120,note_on,1,0,2,,,,,,,,1,,,62,39
225120,note_on,0,0,2,,,,,,,,1,,,68,39
225120,note_on,0,0,4,,,,,,,,3,,,62,40
225120,note_on,0,0,4,,,,,,,,3,,,68,40
225120,note_on,1,0,4,,,,,,,,3,,,70,40
225120,note_on,0,0,2,,,,,,,,1,,,70,39
225279,note_on,0,0,2,,,,,,,,1,,,62,0
225279,note_on,0,0,2,,,,,,,,1,,,68,0
225279,note_on,159,0,2,,,,,,,,1,,,70,0
225280,note_on,0,0,2,,,,,,,,1,,,70,39
225280,note_on,0,0,2,,,,,,,,1,,,65,39
225280,note_on,1,0,2,,,,,,,,1,,,62,39
225359,note_on,719,0,1,,,,,,,,0,,,62,0
225360,note_on,1,0,1,,,,,,,,0,,,70,83
225439,note_on,0,0,2,,,,,,,,1,,,65,0
225439,note_on,159,0,2,,,,,,,,1,,,70,0
225439,note_on,0,0,2,,,,,,,,1,,,62,0
225440,note_on,1,0,2,,,,,,,,1,,,62,39
225440,note_on,0,0,2,,,,,,,,1,,,65,39
225599,note_on,479,0,4,,,,,,,,3,,,62,0
225599,note_on,159,0,2,,,,,,,,1,,,65,0
225599,note_on,0,0,2,,,,,,,,1,,,62,0
225599,note_on,0,0,4,,,,,,,,3,,,68,0
225599,note_on,0,0,4,,,,,,,,3,,,70,0
225599,note_on,239,0,1,,,,,,,,0,,,70,0
225600,note_on,1,0,1,,,,,,,,0,,,62,91
225600,note_on,1,0,4,,,,,,,,3,,,58,40
225600,note_on,0,0,4,,,,,,,,3,,,46,40
225600,control_change,1,0,2,,,,,,,,1,64,0,,
225600,note_on,0,0,2,,,,,,,,1,,,53,38
225600,note_on,0,0,2,,,,,,,,1,,,56,38
225759,note_on,0,0,2,,,,,,,,1,,,53,0
225759,note_on,159,0,2,,,,,,,,1,,,56,0
225760,note_on,0,0,2,,,,,,,,1,,,58,38
225760,note_on,1,0,2,,,,,,,,1,,,56,38
225800,control_change,40,0,2,,,,,,,,1,64,127,,
225919,note_on,0,0,2,,,,,,,,1,,,56,0
225919,note_on,119,0,2,,,,,,,,1,,,58,0
225920,note_on,1,0,2,,,,,,,,1,,,56,38
225920,note_on,0,0,2,,,,,,,,1,,,58,38
226079,note_on,0,0,4,,,,,,,,3,,,58,0
226079,note_on,479,0,4,,,,,,,,3,,,46,0
226079,note_on,0,0,2,,,,,,,,1,,,56,0
226079,note_on,159,0,2,,,,,,,,1,,,58,0
226080,note_on,1,0,2,,,,,,,,1,,,62,37
226080,note_on,0,0,4,,,,,,,,3,,,62,40
226080,note_on,0,0,2,,,,,,,,1,,,68,37
226080,note_on,0,0,2,,,,,,,,1,,,70,37
226080,note_on,0,0,4,,,,,,,,3,,,68,40
226080,note_on,1,0,4,,,,,,,,3,,,70,40
226239,note_on,159,0,2,,,,,,,,1,,,70,0
226239,note_on,0,0,2,,,,,,,,1,,,62,0
226239,note_on,0,0,2,,,,,,,,1,,,68,0
226240,note_on,0,0,2,,,,,,,,1,,,70,37
226240,note_on,0,0,2,,,,,,,,1,,,65,37
226240,note_on,1,0,2,,,,,,,,1,,,62,37
226296,note_on,216,0,4,,,,,,,,3,,,62,0
226296,note_on,0,0,4,,,,,,,,3,,,68,0
226296,note_on,0,0,4,,,,,,,,3,,,70,0
226319,note_on,719,0,1,,,,,,,,0,,,62,0
226320,note_on,1,0,1,,,,,,,,0,,,70,83
226399,note_on,0,0,2,,,,,,,,1,,,62,0
226399,note_on,0,0,2,,,,,,,,1,,,65,0
226399,note_on,159,0,2,,,,,,,,1,,,70,0
226400,note_on,1,0,2,,,,,,,,1,,,62,37
226400,note_on,0,0,2,,,,,,,,1,,,65,37
226430,control_change,134,0,4,,,,,,,,3,64,0,,
226470,control_change,150,0,1,,,,,,,,0,64,0,,
226490,control_change,90,0,2,,,,,,,,1,64,0,,
226536,note_on,66,0,1,,,,,,,,0,,,70,0
226544,note_on,54,0,2,,,,,,,,1,,,65,0
226544,note_on,0,0,2,,,,,,,,1,,,62,0
226560,note_on,24,0,1,,,,,,,,0,,,63,91
226560,note_on,0,0,4,,,,,,,,3,,,51,40
226560,note_on,0,0,4,,,,,,,,3,,,46,40
226560,note_on,0,0,4,,,,,,,,3,,,39,40
226560,control_change,130,0,4,,,,,,,,3,64,127,,
226560,note_on,16,0,2,,,,,,,,1,,,55,36
226560,note_on,0,0,2,,,,,,,,1,,,58,36
226573,control_change,13,0,1,,,,,,,,0,64,127,,
226573,control_change,13,0,2,,,,,,,,1,64,127,,
226719,note_on,146,0,2,,,,,,,,1,,,58,0
226719,note_on,0,0,2,,,,,,,,1,,,55,0
226720,note_on,1,0,2,,,,,,,,1,,,55,36
226720,note_on,0,0,2,,,,,,,,1,,,58,36
226879,note_on,0,0,2,,,,,,,,1,,,55,0
226879,note_on,159,0,2,,,,,,,,1,,,58,0
226880,note_on,1,0,2,,,,,,,,1,,,55,36
226880,note_on,0,0,2,,,,,,,,1,,,58,36
227039,note_on,0,0,4,,,,,,,,3,,,39,0
227039,note_on,159,0,2,,,,,,,,1,,,58,0
227039,note_on,0,0,2,,,,,,,,1,,,55,0
227039,note_on,479,0,4,,,,,,,,3,,,51,0
227039,note_on,0,0,4,,,,,,,,3,,,46,0
227040,note_on,0,0,2,,,,,,,,1,,,75,35
227040,note_on,0,0,4,,,,,,,,3,,,70,40
227040,note_on,1,0,4,,,,,,,,3,,,75,40
227040,note_on,0,0,4,,,,,,,,3,,,67,40
227040,note_on,0,0,2,,,,,,,,1,,,70,35
227040,note_on,1,0,2,,,,,,,,1,,,67,35
227199,note_on,0,0,2,,,,,,,,1,,,67,0
227199,note_on,0,0,2,,,,,,,,1,,,70,0
227199,note_on,159,0,2,,,,,,,,1,,,75,0
227200,note_on,0,0,2,,,,,,,,1,,,67,35
227200,note_on,0,0,2,,,,,,,,1,,,75,35
227200,note_on,1,0,2,,,,,,,,1,,,63,35
227359,note_on,159,0,2,,,,,,,,1,,,75,0
227359,note_on,0,0,2,,,,,,,,1,,,67,0
227359,note_on,0,0,2,,,,,,,,1,,,63,0
227360,note_on,1,0,2,,,,,,,,1,,,63,35
227360,note_on,0,0,2,,,,,,,,1,,,67,35
227360,note_on,0,0,2,,,,,,,,1,,,75,35
227519,note_on,0,0,2,,,,,,,,1,,,63,0
227519,note_on,946,0,1,,,,,,,,0,,,63,0
227519,note_on,0,0,4,,,,,,,,3,,,75,0
227519,note_on,0,0,4,,,,,,,,3,,,70,0
227519,note_on,479,0,4,,,,,,,,3,,,67,0
227519,note_on,159,0,2,,,,,,,,1,,,75,0
227519,note_on,0,0,2,,,,,,,,1,,,67,0
227520,note_on,1,0,1,,,,,,,,0,,,70,91
227520,note_on,1,0,2,,,,,,,,1,,,63,34
227520,note_on,0,0,4,,,,,,,,3,,,46,40
227520,note_on,0,0,2,,,,,,,,1,,,67,34
227520,note_on,1,0,4,,,,,,,,3,,,39,40
227520,note_on,0,0,4,,,,,,,,3,,,55,40
227679,note_on,159,0,2,,,,,,,,1,,,67,0
227679,note_on,0,0,2,,,,,,,,1,,,63,0
227680,note_on,0,0,2,,,,,,,,1,,,63,34
227680,note_on,1,0,2,,,,,,,,1,,,58,34
227839,note_on,0,0,2,,,,,,,,1,,,58,0
227839,note_on,159,0,2,,,,,,,,1,,,63,0
227840,note_on,0,0,2,,,,,,,,1,,,63,34
227840,note_on,1,0,2,,,,,,,,1,,,58,34
227952,note_on,432,0,1,,,,,,,,0,,,70,0
227999,note_on,0,0,2,,,,,,,,1,,,58,0
227999,note_on,159,0,2,,,,,,,,1,,,63,0
227999,note_on,0,0,4,,,,,,,,3,,,39,0
227999,note_on,0,0,4,,,,,,,,3,,,46,0
227999,note_on,479,0,4,,,,,,,,3,,,55,0
228000,note_on,0,0,4,,,,,,,,3,,,63,40
228000,note_on,1,0,4,,,,,,,,3,,,67,40
228000,note_on,0,0,2,,,,,,,,1,,,67,33
228000,note_on,0,0,2,,,,,,,,1,,,63,33
228000,note_on,1,0,2,,,,,,,,1,,,58,33
228000,note_on,0,0,4,,,,,,,,3,,,58,40
228159,note_on,0,0,2,,,,,,,,1,,,63,0
228159,note_on,159,0,2,,,,,,,,1,,,67,0
228159,note_on,0,0,2,,,,,,,,1,,,58,0
228160,note_on,0,0,2,,,,,,,,1,,,67,33
228160,note_on,0,0,2,,,,,,,,1,,,70,33
228160,note_on,1,0,2,,,,,,,,1,,,63,33
228216,note_on,0,0,4,,,,,,,,3,,,67,0
228216,note_on,216,0,4,,,,,,,,3,,,58,0
228216,note_on,0,0,4,,,,,,,,3,,,63,0
228319,note_on,159,0,2,,,,,,,,1,,,70,0
228319,note_on,0,0,2,,,,,,,,1,,,67,0
228319,note_on,0,0,2,,,,,,,,1,,,63,0
228320,control_change,1,0,2,,,,,,,,1,64,0,,
228320,note_on,0,0,2,,,,,,,,1,,,67,33
228320,note_on,0,0,2,,,,,,,,1,,,70,33
228320,note_on,0,0,2,,,,,,,,1,,,75,33
228360,control_change,144,0,4,,,,,,,,3,64,0,,
228360,control_change,408,0,1,,,,,,,,0,64,0,,
228427,control_change,67,0,1,,,,,,,,0,64,127,,
228464,note_on,0,0,2,,,,,,,,1,,,70,0
228464,note_on,144,0,2,,,,,,,,1,,,75,0
228464,note_on,0,0,2,,,,,,,,1,,,67,0
228480,note_on,53,0,1,,,,,,,,0,,,79,91
228480,note_on,0,0,1,,,,,,,,0,,,67,91
228480,control_change,16,0,2,,,,,,,,1,64,127,,
228480,note_on,0,0,4,,,,,,,,3,,,36,40
228480,control_change,120,0,4,,,,,,,,3,64,127,,
228480,note_on,0,0,2,,,,,,,,1,,,67,32
228575,note_on,95,0,4,,,,,,,,3,,,36,0
228639,note_on,159,0,2,,,,,,,,1,,,67,0
228640,note_on,0,0,2,,,,,,,,1,,,72,32
228640,note_on,1,0,2,,,,,,,,1,,,75,32
228720,note_on,145,0,4,,,,,,,,3,,,48,40
228720,note_on,0,0,4,,,,,,,,3,,,51,40
228799,note_on,0,0,2,,,,,,,,1,,,75,0
228799,note_on,159,0,2,,,,,,,,1,,,72,0
228800,note_on,1,0,2,,,,,,,,1,,,75,32
228800,note_on,0,0,2,,,,,,,,1,,,72,32
228815,note_on,95,0,4,,,,,,,,3,,,51,0
228815,note_on,0,0,4,,,,,,,,3,,,48,0
228959,note_on,479,0,1,,,,,,,,0,,,67,0
228959,note_on,0,0,1,,,,,,,,0,,,79,0
228959,note_on,0,0,2,,,,,,,,1,,,75,0
228959,note_on,159,0,2,,,,,,,,1,,,72,0
228960,note_on,1,0,1,,,,,,,,0,,,75,91
228960,note_on,0,0,1,,,,,,,,0,,,63,91
228960,note_on,1,0,2,,,,,,,,1,,,63,32
228960,note_on,145,0,4,,,,,,,,3,,,39,40
229055,note_on,95,0,4,,,,,,,,3,,,39,0
229119,note_on,159,0,2,,,,,,,,1,,,63,0
229120,note_on,1,0,2,,,,,,,,1,,,67,31
229120,note_on,0,0,2,,,,,,,,1,,,72,31
229200,note_on,0,0,4,,,,,,,,3,,,55,40
229200,note_on,145,0,4,,,,,,,,3,,,51,40
229279,note_on,0,0,2,,,,,,,,1,,,67,0
229279,note_on,159,0,2,,,,,,,,1,,,72,0
229280,note_on,0,0,2,,,,,,,,1,,,72,31
229280,note_on,1,0,2,,,,,,,,1,,,67,31
229295,note_on,0,0,4,,,,,,,,3,,,51,0
229295,note_on,95,0,4,,,,,,,,3,,,55,0
229387,control_change,427,0,1,,,,,,,,0,64,0,,
229427,control_change,40,0,1,,,,,,,,0,64,127,,
229439,note_on,0,0,2,,,,,,,,1,,,67,0
229439,note_on,159,0,2,,,,,,,,1,,,72,0
229439,note_on,0,0,1,,,,,,,,0,,,75,0
229439,note_on,12,0,1,,,,,,,,0,,,63,0
229440,control_change,145,0,4,,,,,,,,3,64,0,,
229440,control_change,1,0,2,,,,,,,,1,64,0,,
229440,note_on,0,0,2,,,,,,,,1,,,62,31
229440,note_on,0,0,1,,,,,,,,0,,,62,91
229440,note_on,1,0,1,,,,,,,,0,,,74,91
229440,note_on,0,0,4,,,,,,,,3,,,44,40
229480,control_change,40,0,2,,,,,,,,1,64,127,,
229480,control_change,40,0,4,,,,,,,,3,64,127,,
229535,note_on,55,0,4,,,,,,,,3,,,44,0
229599,note_on,119,0,2,,,,,,,,1,,,62,0
229600,note_on,0,0,2,,,,,,,,1,,,71,30
229600,note_on,1,0,2,,,,,,,,1,,,65,30
229680,note_on,0,0,4,,,,,,,,3,,,53,40
229680,note_on,0,0,4,,,,,,,,3,,,50,40
229680,note_on,145,0,4,,,,,,,,3,,,59,40
229759,note_on,0,0,2,,,,,,,,1,,,65,0
229759,note_on,159,0,2,,,,,,,,1,,,71,0
229760,note_on,0,0,2,,,,,,,,1,,,71,30
229760,note_on,1,0,2,,,,,,,,1,,,65,30
229775,note_on,95,0,4,,,,,,,,3,,,50,0
229775,note_on,0,0,4,,,,,,,,3,,,53,0
229775,note_on,0,0,4,,,,,,,,3,,,59,0
229919,note_on,0,0,1,,,,,,,,0,,,74,0
229919,note_on,0,0,2,,,,,,,,1,,,65,0
229919,note_on,159,0,2,,,,,,,,1,,,71,0
229919,note_on,479,0,1,,,,,,,,0,,,62,0
229920,note_on,145,0,4,,,,,,,,3,,,43,40
229920,note_on,1,0,1,,,,,,,,0,,,59,91
229920,note_on,0,0,1,,,,,,,,0,,,71,91
229920,note_on,1,0,2,,,,,,,,1,,,59,30
230015,note_on,95,0,4,,,,,,,,3,,,43,0
230079,note_on,159,0,2,,,,,,,,1,,,59,0
230080,note_on,1,0,2,,,,,,,,1,,,62,29
230080,note_on,0,0,2,,,,,,,,1,,,67,29
230160,note_on,0,0,4,,,,,,,,3,,,50,40
230160,note_on,0,0,4,,,,,,,,3,,,53,40
230160,note_on,145,0,4,,,,,,,,3,,,55,40
230239,note_on,159,0,2,,,,,,,,1,,,67,0
230239,note_on,0,0,2,,,,,,,,1,,,62,0
230240,note_on,1,0,2,,,,,,,,1,,,62,29
230240,note_on,0,0,2,,,,,,,,1,,,67,29
230246,note_on,0,0,4,,,,,,,,3,,,53,0
230246,note_on,86,0,4,,,,,,,,3,,,50,0
230246,note_on,0,0,4,,,,,,,,3,,,55,0
230352,note_on,432,0,1,,,,,,,,0,,,71,0
230352,note_on,0,0,1,,,,,,,,0,,,59,0
230384,note_on,144,0,2,,,,,,,,1,,,67,0
230384,note_on,0,0,2,,,,,,,,1,,,62,0
230387,control_change,35,0,1,,,,,,,,0,64,0,,
230400,note_on,0,0,4,,,,,,,,3,,,51,64
230400,note_on,13,0,1,,,,,,,,0,,,63,77
230400,note_on,0,0,1,,,,,,,,0,,,67,77
230400,note_on,0,0,1,,,,,,,,0,,,75,77
230400,note_on,0,0,4,,,,,,,,3,,,48,64
230400,note_on,154,0,4,,,,,,,,3,,,60,64
230440,control_change,56,0,2,,,,,,,,1,64,0,,
230440,control_change,40,0,4,,,,,,,,3,64,0,,
230453,control_change,13,0,4,,,,,,,,3,64,127,,
230453,control_change,53,0,1,,,,,,,,0,64,127,,
230559,note_on,106,0,1,,,,,,,,0,,,75,0
230559,note_on,0,0,1,,,,,,,,0,,,67,0
230559,note_on,0,0,1,,,,,,,,0,,,63,0
230560,note_on,0,0,1,,,,,,,,0,,,72,76
230560,note_on,1,0,1,,,,,,,,0,,,63,76
230560,note_on,0,0,1,,,,,,,,0,,,67,76
230719,note_on,159,0,1,,,,,,,,0,,,72,0
230719,note_on,0,0,1,,,,,,,,0,,,67,0
230719,note_on,0,0,1,,,,,,,,0,,,63,0
230720,note_on,1,0,1,,,,,,,,0,,,63,74
230720,note_on,0,0,1,,,,,,,,0,,,72,74
230720,note_on,0,0,1,,,,,,,,0,,,67,74
230879,note_on,0,0,4,,,,,,,,3,,,60,0
230879,note_on,0,0,4,,,,,,,,3,,,51,0
230879,note_on,426,0,4,,,,,,,,3,,,48,0
230879,note_on,0,0,1,,,,,,,,0,,,63,0
230879,note_on,0,0,1,,,,,,,,0,,,67,0
230879,note_on,159,0,1,,,,,,,,0,,,72,0
230880,note_on,1,0,4,,,,,,,,3,,,36,64
230880,note_on,0,0,4,,,,,,,,3,,,43,64
230880,note_on,0,0,1,,,,,,,,0,,,67,73
230880,note_on,0,0,1,,,,,,,,0,,,72,73
230880,note_on,1,0,1,,,,,,,,0,,,63,73
231039,note_on,0,0,1,,,,,,,,0,,,63,0
231039,note_on,0,0,1,,,,,,,,0,,,67,0
231039,note_on,159,0,1,,,,,,,,0,,,72,0
231040,note_on,0,0,1,,,,,,,,0,,,63,72
231040,note_on,1,0,1,,,,,,,,0,,,60,72
231040,note_on,0,0,1,,,,,,,,0,,,67,72
231119,note_on,239,0,4,,,,,,,,3,,,43,0
231119,note_on,0,0,4,,,,,,,,3,,,36,0
231120,note_on,0,0,4,,,,,,,,3,,,43,64
231120,note_on,1,0,4,,,,,,,,3,,,36,64
231199,note_on,0,0,1,,,,,,,,0,,,63,0
231199,note_on,159,0,1,,,,,,,,0,,,67,0
231199,note_on,0,0,1,,,,,,,,0,,,60,0
231200,note_on,0,0,1,,,,,,,,0,,,63,70
231200,note_on,0,0,1,,,,,,,,0,,,67,70
231200,note_on,1,0,1,,,,,,,,0,,,60,70
231359,note_on,0,0,1,,,,,,,,0,,,63,0
231359,note_on,159,0,1,,,,,,,,0,,,67,0
231359,note_on,0,0,4,,,,,,,,3,,,36,0
231359,note_on,239,0,4,,,,,,,,3,,,43,0
231359,note_on,0,0,1,,,,,,,,0,,,60,0
231360,note_on,0,0,1,,,,,,,,0,,,63,69
231360,note_on,0,0,1,,,,,,,,0,,,67,69
231360,note_on,0,0,4,,,,,,,,3,,,43,64
231360,note_on,1,0,4,,,,,,,,3,,,36,64
231360,note_on,1,0,1,,,,,,,,0,,,60,69
231519,note_on,159,0,1,,,,,,,,0,,,67,0
231519,note_on,0,0,1,,,,,,,,0,,,63,0
231519,note_on,0,0,1,,,,,,,,0,,,60,0
231520,note_on,0,0,1,,,,,,,,0,,,63,68
231520,note_on,1,0,1,,,,,,,,0,,,55,68
231520,note_on,0,0,1,,,,,,,,0,,,60,68
231576,note_on,0,0,4,,,,,,,,3,,,36,0
231576,note_on,216,0,4,,,,,,,,3,,,43,0
231679,note_on,159,0,1,,,,,,,,0,,,63,0
231679,note_on,0,0,1,,,,,,,,0,,,60,0
231679,note_on,0,0,1,,,,,,,,0,,,55,0
231680,note_on,1,0,1,,,,,,,,0,,,55,66
231680,note_on,0,0,1,,,,,,,,0,,,60,66
231680,note_on,0,0,1,,,,,,,,0,,,63,66
231839,note_on,159,0,1,,,,,,,,0,,,63,0
231839,note_on,0,0,1,,,,,,,,0,,,60,0
231839,note_on,0,0,1,,,,,,,,0,,,55,0
231840,note_on,0,0,1,,,,,,,,0,,,60,65
231840,note_on,1,0,1,,,,,,,,0,,,55,65
231840,note_on,0,0,1,,,,,,,,0,,,63,65
231999,note_on,0,0,1,,,,,,,,0,,,60,0
231999,note_on,159,0,1,,,,,,,,0,,,63,0
231999,note_on,0,0,1,,,,,,,,0,,,55,0
232000,note_on,0,0,1,,,,,,,,0,,,67,64
232000,note_on,0,0,1,,,,,,,,0,,,63,64
232000,note_on,1,0,1,,,,,,,,0,,,60,64
232159,note_on,0,0,1,,,,,,,,0,,,60,0
232159,note_on,0,0,1,,,,,,,,0,,,63,0
232159,note_on,159,0,1,,,,,,,,0,,,67,0
232160,note_on,0,0,1,,,,,,,,0,,,72,64
232160,note_on,0,0,1,,,,,,,,0,,,67,64
232160,note_on,1,0,1,,,,,,,,0,,,63,64
232173,control_change,597,0,4,,,,,,,,3,64,0,,
232227,control_change,67,0,1,,,,,,,,0,64,0,,
232304,note_on,77,0,1,,,,,,,,0,,,72,0
232304,note_on,0,0,1,,,,,,,,0,,,63,0
232304,note_on,0,0,1,,,,,,,,0,,,67,0
232320,control_change,16,0,1,,,,,,,,0,64,127,,
232320,note_on,0,0,1,,,,,,,,0,,,75,64
232320,note_on,0,0,1,,,,,,,,0,,,63,64
232320,note_on,0,0,2,,,,,,,,1,,,63,37
232320,control_change,1880,0,2,,,,,,,,1,64,127,,
232320,note_on,0,0,4,,,,,,,,3,,,32,51
232320,control_change,147,0,4,,,,,,,,3,64,127,,
232415,note_on,95,0,4,,,,,,,,3,,,32,0
232479,note_on,159,0,2,,,,,,,,1,,,63,0
232480,note_on,0,0,2,,,,,,,,1,,,72,37
232480,note_on,1,0,2,,,,,,,,1,,,68,37
232560,note_on,0,0,4,,,,,,,,3,,,48,40
232560,note_on,145,0,4,,,,,,,,3,,,44,40
232639,note_on,159,0,2,,,,,,,,1,,,72,0
232639,note_on,0,0,2,,,,,,,,1,,,68,0
232640,note_on,1,0,2,,,,,,,,1,,,68,36
232640,note_on,0,0,2,,,,,,,,1,,,72,36
232655,note_on,0,0,4,,,,,,,,3,,,44,0
232655,note_on,95,0,4,,,,,,,,3,,,48,0
232799,note_on,0,0,1,,,,,,,,0,,,75,0
232799,note_on,479,0,1,,,,,,,,0,,,63,0
232799,note_on,159,0,2,,,,,,,,1,,,72,0
232799,note_on,0,0,2,,,,,,,,1,,,68,0
232800,note_on,0,0,1,,,,,,,,0,,,60,64
232800,note_on,1,0,1,,,,,,,,0,,,72,64
232800,note_on,1,0,2,,,,,,,,1,,,60,36
232800,note_on,145,0,4,,,,,,,,3,,,36,40
232895,note_on,95,0,4,,,,,,,,3,,,36,0
232959,note_on,159,0,2,,,,,,,,1,,,60,0
232960,note_on,0,0,2,,,,,,,,1,,,68,35
232960,note_on,1,0,2,,,,,,,,1,,,63,35
233040,note_on,145,0,4,,,,,,,,3,,,48,40
233040,note_on,0,0,4,,,,,,,,3,,,51,40
233119,note_on,159,0,2,,,,,,,,1,,,68,0
233119,note_on,0,0,2,,,,,,,,1,,,63,0
233120,note_on,1,0,2,,,,,,,,1,,,63,35
233120,note_on,0,0,2,,,,,,,,1,,,68,35
233135,note_on,0,0,4,,,,,,,,3,,,48,0
233135,note_on,95,0,4,,,,,,,,3,,,51,0
233279,note_on,159,0,2,,,,,,,,1,,,68,0
233279,note_on,0,0,2,,,,,,,,1,,,63,0
233279,note_on,0,0,1,,,,,,,,0,,,72,0
233279,note_on,479,0,1,,,,,,,,0,,,60,0
233280,control_change,145,0,4,,,,,,,,3,64,0,,
233280,control_change,1,0,1,,,,,,,,0,64,0,,
233280,note_on,0,0,1,,,,,,,,0,,,58,64
233280,note_on,0,0,1,,,,,,,,0,,,70,64
233280,note_on,0,0,2,,,,,,,,1,,,58,34
233280,control_change,1,0,2,,,,,,,,1,64,0,,
233280,note_on,0,0,4,,,,,,,,3,,,40,40
233320,control_change,40,0,2,,,,,,,,1,64,127,,
233320,control_change,40,0,1,,,,,,,,0,64,127,,
233320,control_change,40,0,4,,,,,,,,3,64,127,,
233375,note_on,55,0,4,,,,,,,,3,,,40,0
233439,note_on,119,0,2,,,,,,,,1,,,58,0
233440,note_on,0,0,2,,,,,,,,1,,,67,33
233440,note_on,1,0,2,,,,,,,,1,,,61,33
233520,note_on,0,0,4,,,,,,,,3,,,49,40
233520,note_on,145,0,4,,,,,,,,3,,,46,40
233520,note_on,0,0,4,,,,,,,,3,,,55,40
233599,note_on,0,0,2,,,,,,,,1,,,61,0
233599,note_on,159,0,2,,,,,,,,1,,,67,0
233600,note_on,1,0,2,,,,,,,,1,,,61,33
233600,note_on,0,0,2,,,,,,,,1,,,67,33
233615,note_on,0,0,4,,,,,,,,3,,,46,0
233615,note_on,0,0,4,,,,,,,,3,,,49,0
233615,note_on,95,0,4,,,,,,,,3,,,55,0
233759,note_on,439,0,1,,,,,,,,0,,,70,0
233759,note_on,159,0,2,,,,,,,,1,,,67,0
233759,note_on,0,0,2,,,,,,,,1,,,61,0
233759,note_on,0,0,1,,,,,,,,0,,,58,0
233760,note_on,145,0,4,,,,,,,,3,,,39,40
233760,note_on,1,0,2,,,,,,,,1,,,55,32
233760,note_on,1,0,1,,,,,,,,0,,,55,64
233760,note_on,0,0,1,,,,,,,,0,,,67,64
233855,note_on,95,0,4,,,,,,,,3,,,39,0
233919,note_on,159,0,2,,,,,,,,1,,,55,0
233920,note_on,0,0,2,,,,,,,,1,,,63,32
233920,note_on,1,0,2,,,,,,,,1,,,58,32
234000,note_on,145,0,4,,,,,,,,3,,,49,40
234000,note_on,0,0,4,,,,,,,,3,,,51,40
234079,note_on,159,0,2,,,,,,,,1,,,63,0
234079,note_on,0,0,2,,,,,,,,1,,,58,0
234080,note_on,0,0,2,,,,,,,,1,,,63,31
234080,note_on,1,0,2,,,,,,,,1,,,58,31
234086,note_on,86,0,4,,,,,,,,3,,,51,0
234086,note_on,0,0,4,,,,,,,,3,,,49,0
234192,note_on,0,0,1,,,,,,,,0,,,55,0
234192,note_on,432,0,1,,,,,,,,0,,,67,0
234224,note_on,144,0,2,,,,,,,,1,,,63,0
234224,note_on,0,0,2,,,,,,,,1,,,58,0
234240,note_on,0,0,4,,,,,,,,3,,,56,64
234240,note_on,0,0,4,,,,,,,,3,,,48,64
234240,note_on,0,0,1,,,,,,,,0,,,72,77
234240,note_on,0,0,1,,,,,,,,0,,,63,77
234240,note_on,48,0,1,,,,,,,,0,,,60,77
234240,note_on,154,0,4,,,,,,,,3,,,44,64
234280,control_change,40,0,1,,,,,,,,0,64,0,,
234280,control_change,56,0,2,,,,,,,,1,64,0,,
234280,control_change,40,0,4,,,,,,,,3,64,0,,
234293,control_change,13,0,1,,,,,,,,0,64,127,,
234293,control_change,13,0,4,,,,,,,,3,64,127,,
234399,note_on,0,0,1,,,,,,,,0,,,60,0
234399,note_on,0,0,1,,,,,,,,0,,,63,0
234399,note_on,106,0,1,,,,,,,,0,,,72,0
234400,note_on,0,0,1,,,,,,,,0,,,68,76
234400,note_on,0,0,1,,,,,,,,0,,,63,76
234400,note_on,1,0,1,,,,,,,,0,,,60,76
234559,note_on,159,0,1,,,,,,,,0,,,68,0
234559,note_on,0,0,1,,,,,,,,0,,,63,0
234559,note_on,0,0,1,,,,,,,,0,,,60,0
234560,note_on,0,0,1,,,,,,,,0,,,68,75
234560,note_on,0,0,1,,,,,,,,0,,,63,75
234560,note_on,1,0,1,,,,,,,,0,,,60,75
234719,note_on,159,0,1,,,,,,,,0,,,68,0
234719,note_on,426,0,4,,,,,,,,3,,,56,0
234719,note_on,0,0,4,,,,,,,,3,,,48,0
234719,note_on,0,0,4,,,,,,,,3,,,44,0
234719,note_on,0,0,1,,,,,,,,0,,,60,0
234719,note_on,0,0,1,,,,,,,,0,,,63,0
234720,note_on,0,0,1,,,,,,,,0,,,68,73
234720,note_on,0,0,1,,,,,,,,0,,,63,73
234720,note_on,1,0,1,,,,,,,,0,,,60,73
234720,note_on,1,0,4,,,,,,,,3,,,32,64
234720,note_on,0,0,4,,,,,,,,3,,,39,64
234879,note_on,159,0,1,,,,,,,,0,,,68,0
234879,note_on,0,0,1,,,,,,,,0,,,63,0
234879,note_on,0,0,1,,,,,,,,0,,,60,0
234880,note_on,1,0,1,,,,,,,,0,,,56,72
234880,note_on,0,0,1,,,,,,,,0,,,60,72
234880,note_on,0,0,1,,,,,,,,0,,,63,72
234959,note_on,0,0,4,,,,,,,,3,,,32,0
234959,note_on,239,0,4,,,,,,,,3,,,39,0
234960,note_on,0,0,4,,,,,,,,3,,,39,64
234960,note_on,1,0,4,,,,,,,,3,,,32,64
235039,note_on,0,0,1,,,,,,,,0,,,60,0
235039,note_on,0,0,1,,,,,,,,0,,,56,0
235039,note_on,159,0,1,,,,,,,,0,,,63,0
235040,note_on,1,0,1,,,,,,,,0,,,56,71
235040,note_on,0,0,1,,,,,,,,0,,,60,71
235040,note_on,0,0,1,,,,,,,,0,,,63,71
235138,set_tempo,29698,1,0,,,,,,457317,,,,,,
235199,note_on,239,0,4,,,,,,,,3,,,39,0
235199,note_on,0,0,1,,,,,,,,0,,,60,0
235199,note_on,0,0,1,,,,,,,,0,,,56,0
235199,note_on,0,0,4,,,,,,,,3,,,32,0
235199,note_on,159,0,1,,,,,,,,0,,,63,0
235200,note_on,1,0,1,,,,,,,,0,,,56,70
235200,note_on,0,0,1,,,,,,,,0,,,60,70
235200,note_on,0,0,1,,,,,,,,0,,,63,70
235200,note_on,1,0,4,,,,,,,,3,,,32,64
235200,note_on,0,0,4,,,,,,,,3,,,39,64
235221,set_tempo,83,1,0,,,,,,455650,,,,,,
235253,control_change,53,0,4,,,,,,,,3,64,0,,
235304,set_tempo,83,1,0,,,,,,453995,,,,,,
235359,note_on,0,0,1,,,,,,,,0,,,56,0
235359,note_on,159,0,1,,,,,,,,0,,,63,0
235359,note_on,0,0,1,,,,,,,,0,,,60,0
235360,note_on,0,0,1,,,,,,,,0,,,60,69
235360,note_on,0,0,1,,,,,,,,0,,,56,69
235360,note_on,1,0,1,,,,,,,,0,,,51,69
235386,set_tempo,82,1,0,,,,,,452352,,,,,,
235416,note_on,0,0,4,,,,,,,,3,,,32,0
235416,note_on,163,0,4,,,,,,,,3,,,39,0
235469,set_tempo,83,1,0,,,,,,450721,,,,,,
235519,note_on,0,0,1,,,,,,,,0,,,56,0
235519,note_on,159,0,1,,,,,,,,0,,,60,0
235519,note_on,0,0,1,,,,,,,,0,,,51,0
235520,note_on,1,0,1,,,,,,,,0,,,51,68
235520,note_on,0,0,1,,,,,,,,0,,,60,68
235520,note_on,0,0,1,,,,,,,,0,,,56,68
235535,set_tempo,66,1,0,,,,,,449102,,,,,,
235618,set_tempo,83,1,0,,,,,,447494,,,,,,
235679,note_on,0,0,1,,,,,,,,0,,,56,0
235679,note_on,159,0,1,,,,,,,,0,,,60,0
235679,note_on,0,0,1,,,,,,,,0,,,51,0
235680,note_on,0,0,1,,,,,,,,0,,,56,67
235680,note_on,0,0,1,,,,,,,,0,,,60,67
235680,note_on,1,0,1,,,,,,,,0,,,51,67
235701,set_tempo,83,1,0,,,,,,445898,,,,,,
235784,set_tempo,83,1,0,,,,,,444313,,,,,,
235839,note_on,0,0,1,,,,,,,,0,,,56,0
235839,note_on,0,0,1,,,,,,,,0,,,51,0
235839,note_on,159,0,1,,,,,,,,0,,,60,0
235840,note_on,0,0,1,,,,,,,,0,,,63,65
235840,note_on,0,0,1,,,,,,,,0,,,60,65
235840,note_on,1,0,1,,,,,,,,0,,,56,65
235866,set_tempo,82,1,0,,,,,,442739,,,,,,
235933,set_tempo,67,1,0,,,,,,441176,,,,,,
235999,note_on,159,0,1,,,,,,,,0,,,63,0
235999,note_on,0,0,1,,,,,,,,0,,,56,0
235999,note_on,0,0,1,,,,,,,,0,,,60,0
236000,note_on,0,0,1,,,,,,,,0,,,63,64
236000,note_on,1,0,1,,,,,,,,0,,,60,64
236000,note_on,0,0,1,,,,,,,,0,,,68,64
236015,set_tempo,82,1,0,,,,,,439625,,,,,,
236040,control_change,40,0,1,,,,,,,,0,64,0,,
236098,set_tempo,83,1,0,,,,,,438084,,,,,,
236144,note_on,104,0,1,,,,,,,,0,,,68,0
236144,note_on,0,0,1,,,,,,,,0,,,63,0
236144,note_on,0,0,1,,,,,,,,0,,,60,0
236160,note_on,0,0,1,,,,,,,,0,,,60,63
236160,note_on,744,0,4,,,,,,,,3,,,41,64
236160,note_on,16,0,1,,,,,,,,0,,,72,63
236160,note_on,0,0,4,,,,,,,,3,,,48,64
236160,note_on,0,0,4,,,,,,,,3,,,56,64
236181,set_tempo,83,1,0,,,,,,436554,,,,,,
236264,set_tempo,83,1,0,,,,,,435035,,,,,,
236320,note_on,0,0,2,,,,,,,,1,,,65,64
236320,note_on,2040,0,2,,,,,,,,1,,,56,64
236330,set_tempo,66,1,0,,,,,,433526,,,,,,
236413,set_tempo,83,1,0,,,,,,432028,,,,,,
236479,note_on,0,0,2,,,,,,,,1,,,56,0
236479,note_on,159,0,2,,,,,,,,1,,,65,0
236480,note_on,0,0,2,,,,,,,,1,,,65,65
236480,note_on,1,0,2,,,,,,,,1,,,56,65
236495,set_tempo,82,1,0,,,,,,430540,,,,,,
236578,set_tempo,83,1,0,,,,,,429062,,,,,,
236639,note_on,0,0,4,,,,,,,,3,,,48,0
236639,note_on,0,0,4,,,,,,,,3,,,41,0
236639,note_on,479,0,4,,,,,,,,3,,,56,0
236640,note_on,1,0,4,,,,,,,,3,,,36,67
236640,note_on,0,0,4,,,,,,,,3,,,43,67
236640,note_on,0,0,4,,,,,,,,3,,,52,67
236644,set_tempo,66,1,0,,,,,,427594,,,,,,
236727,set_tempo,83,1,0,,,,,,426136,,,,,,
236799,note_on,319,0,2,,,,,,,,1,,,65,0
236799,note_on,0,0,2,,,,,,,,1,,,56,0
236800,note_on,0,0,2,,,,,,,,1,,,64,68
236800,note_on,1,0,2,,,,,,,,1,,,55,68
236800,note_on,0,0,2,,,,,,,,1,,,60,68
236810,set_tempo,83,1,0,,,,,,424689,,,,,,
236879,note_on,239,0,4,,,,,,,,3,,,52,0
236879,note_on,0,0,4,,,,,,,,3,,,43,0
236879,note_on,0,0,4,,,,,,,,3,,,36,0
236880,note_on,0,0,4,,,,,,,,3,,,52,69
236880,note_on,0,0,4,,,,,,,,3,,,43,69
236880,note_on,1,0,4,,,,,,,,3,,,36,69
236893,set_tempo,83,1,0,,,,,,423251,,,,,,
236959,note_on,159,0,2,,,,,,,,1,,,64,0
236959,note_on,0,0,2,,,,,,,,1,,,60,0
236959,note_on,0,0,2,,,,,,,,1,,,55,0
236960,note_on,1,0,2,,,,,,,,1,,,55,69
236960,note_on,0,0,2,,,,,,,,1,,,60,69
236960,note_on,0,0,2,,,,,,,,1,,,64,69
236975,set_tempo,82,1,0,,,,,,421822,,,,,,
237024,note_on,864,0,1,,,,,,,,0,,,60,0
237024,note_on,0,0,1,,,,,,,,0,,,72,0
237042,set_tempo,67,1,0,,,,,,420404,,,,,,
237119,note_on,0,0,4,,,,,,,,3,,,43,0
237119,note_on,239,0,4,,,,,,,,3,,,52,0
237119,note_on,0,0,4,,,,,,,,3,,,36,0
237120,note_on,0,0,4,,,,,,,,3,,,53,71
237120,note_on,0,0,4,,,,,,,,3,,,44,71
237120,note_on,1,0,4,,,,,,,,3,,,41,71
237124,set_tempo,82,1,0,,,,,,418994,,,,,,
237207,set_tempo,83,1,0,,,,,,417595,,,,,,
237279,note_on,319,0,2,,,,,,,,1,,,64,0
237279,note_on,0,0,2,,,,,,,,1,,,55,0
237279,note_on,0,0,2,,,,,,,,1,,,60,0
237280,note_on,1,0,2,,,,,,,,1,,,56,72
237280,note_on,0,0,2,,,,,,,,1,,,65,72
237280,note_on,0,0,2,,,,,,,,1,,,60,72
237290,set_tempo,83,1,0,,,,,,416204,,,,,,
237373,set_tempo,83,1,0,,,,,,414823,,,,,,
237439,set_tempo,66,1,0,,,,,,413451,,,,,,
237439,note_on,0,0,2,,,,,,,,1,,,56,0
237439,note_on,0,0,2,,,,,,,,1,,,60,0
237439,note_on,159,0,2,,,,,,,,1,,,65,0
237440,note_on,0,0,2,,,,,,,,1,,,65,73
237440,note_on,0,0,2,,,,,,,,1,,,60,73
237440,note_on,1,0,2,,,,,,,,1,,,56,73
237522,set_tempo,83,1,0,,,,,,412088,,,,,,
237599,note_on,0,0,4,,,,,,,,3,,,44,0
237599,note_on,0,0,4,,,,,,,,3,,,41,0
237599,note_on,479,0,4,,,,,,,,3,,,53,0
237600,note_on,0,0,4,,,,,,,,3,,,52,74
237600,note_on,0,0,4,,,,,,,,3,,,48,74
237600,note_on,1,0,4,,,,,,,,3,,,55,74
237604,set_tempo,82,1,0,,,,,,410734,,,,,,
237687,set_tempo,83,1,0,,,,,,409389,,,,,,
237759,note_on,0,0,2,,,,,,,,1,,,56,0
237759,note_on,0,0,2,,,,,,,,1,,,60,0
237759,note_on,319,0,2,,,,,,,,1,,,65,0
237760,note_on,0,0,2,,,,,,,,1,,,67,75
237760,note_on,0,0,2,,,,,,,,1,,,64,75
237760,note_on,1,0,2,,,,,,,,1,,,60,75
237770,set_tempo,83,1,0,,,,,,408052,,,,,,
237836,set_tempo,66,1,0,,,,,,406725,,,,,,
237839,note_on,0,0,4,,,,,,,,3,,,52,0
237839,note_on,0,0,4,,,,,,,,3,,,55,0
237839,note_on,239,0,4,,,,,,,,3,,,48,0
237840,note_on,0,0,4,,,,,,,,3,,,48,76
237840,note_on,0,0,4,,,,,,,,3,,,52,76
237840,note_on,1,0,4,,,,,,,,3,,,55,76
237919,set_tempo,83,1,0,,,,,,405405,,,,,,
237919,note_on,0,0,2,,,,,,,,1,,,60,0
237919,note_on,159,0,2,,,,,,,,1,,,67,0
237919,note_on,0,0,2,,,,,,,,1,,,64,0
237920,note_on,1,0,2,,,,,,,,1,,,60,76
237920,note_on,0,0,2,,,,,,,,1,,,67,76
237920,note_on,0,0,2,,,,,,,,1,,,72,76
237920,note_on,0,0,2,,,,,,,,1,,,64,76
238002,set_tempo,83,1,0,,,,,,404095,,,,,,
238056,note_on,216,0,4,,,,,,,,3,,,48,0
238056,note_on,0,0,4,,,,,,,,3,,,52,0
238056,note_on,0,0,4,,,,,,,,3,,,55,0
238064,note_on,144,0,2,,,,,,,,1,,,72,0
238064,note_on,0,0,2,,,,,,,,1,,,60,0
238064,note_on,0,0,2,,,,,,,,1,,,64,0
238064,note_on,0,0,2,,,,,,,,1,,,67,0
238080,note_on,0,0,4,,,,,,,,3,,,53,78
238080,note_on,24,0,4,,,,,,,,3,,,56,78
238084,set_tempo,82,1,0,,,,,,402793,,,,,,
238151,set_tempo,67,1,0,,,,,,401499,,,,,,
238233,set_tempo,82,1,0,,,,,,400213,,,,,,
238240,note_on,0,0,2,,,,,,,,1,,,72,79
238240,note_on,0,0,2,,,,,,,,1,,,68,79
238240,note_on,0,0,2,,,,,,,,1,,,65,79
238240,note_on,176,0,2,,,,,,,,1,,,60,79
238316,set_tempo,83,1,0,,,,,,398936,,,,,,
238399,note_on,0,0,2,,,,,,,,1,,,68,0
238399,note_on,0,0,2,,,,,,,,1,,,60,0
238399,note_on,159,0,2,,,,,,,,1,,,72,0
238399,set_tempo,83,1,0,,,,,,397667,,,,,,
238399,note_on,0,0,2,,,,,,,,1,,,65,0
238400,note_on,0,0,2,,,,,,,,1,,,68,80
238400,note_on,0,0,2,,,,,,,,1,,,72,80
238400,note_on,1,0,2,,,,,,,,1,,,60,80
238400,note_on,0,0,2,,,,,,,,1,,,65,80
238482,set_tempo,83,1,0,,,,,,396406,,,,,,
238548,set_tempo,66,1,0,,,,,,395153,,,,,,
238559,note_on,0,0,4,,,,,,,,3,,,56,0
238559,note_on,479,0,4,,,,,,,,3,,,53,0
238560,note_on,0,0,4,,,,,,,,3,,,48,81
238560,note_on,1,0,4,,,,,,,,3,,,60,81
238560,note_on,0,0,4,,,,,,,,3,,,55,81
238560,note_on,0,0,4,,,,,,,,3,,,52,81
238631,set_tempo,83,1,0,,,,,,393908,,,,,,
238713,set_tempo,82,1,0,,,,,,392670,,,,,,
238719,note_on,0,0,2,,,,,,,,1,,,60,0
238719,note_on,319,0,2,,,,,,,,1,,,72,0
238719,note_on,0,0,2,,,,,,,,1,,,65,0
238719,note_on,0,0,2,,,,,,,,1,,,68,0
238720,note_on,1,0,2,,,,,,,,1,,,64,83
238720,note_on,0,0,2,,,,,,,,1,,,67,83
238720,note_on,0,0,2,,,,,,,,1,,,72,83
238720,note_on,0,0,2,,,,,,,,1,,,76,83
238796,set_tempo,83,1,0,,,,,,391441,,,,,,
238799,note_on,239,0,4,,,,,,,,3,,,48,0
238799,note_on,0,0,4,,,,,,,,3,,,52,0
238799,note_on,0,0,4,,,,,,,,3,,,55,0
238799,note_on,0,0,4,,,,,,,,3,,,60,0
238800,note_on,0,0,4,,,,,,,,3,,,48,83
238800,note_on,0,0,4,,,,,,,,3,,,52,83
238800,note_on,0,0,4,,,,,,,,3,,,55,83
238800,note_on,1,0,4,,,,,,,,3,,,60,83
238879,set_tempo,83,1,0,,,,,,390219,,,,,,
238879,note_on,159,0,2,,,,,,,,1,,,76,0
238879,note_on,0,0,2,,,,,,,,1,,,72,0
238879,note_on,0,0,2,,,,,,,,1,,,67,0
238879,note_on,0,0,2,,,,,,,,1,,,64,0
238880,note_on,1,0,2,,,,,,,,1,,,64,84
238880,note_on,0,0,2,,,,,,,,1,,,67,84
238880,note_on,0,0,2,,,,,,,,1,,,72,84
238880,note_on,0,0,2,,,,,,,,1,,,76,84
238945,set_tempo,66,1,0,,,,,,389004,,,,,,
239028,set_tempo,83,1,0,,,,,,387797,,,,,,
239039,note_on,239,0,4,,,,,,,,3,,,48,0
239039,note_on,0,0,4,,,,,,,,3,,,60,0
239039,note_on,0,0,4,,,,,,,,3,,,55,0
239039,note_on,0,0,4,,,,,,,,3,,,52,0
239040,note_on,0,0,4,,,,,,,,3,,,56,85
239040,note_on,1,0,4,,,,,,,,3,,,60,85
239040,note_on,0,0,4,,,,,,,,3,,,53,85
239111,set_tempo,83,1,0,,,,,,386598,,,,,,
239193,set_tempo,82,1,0,,,,,,385406,,,,,,
239199,note_on,319,0,2,,,,,,,,1,,,76,0
239199,note_on,0,0,2,,,,,,,,1,,,64,0
239199,note_on,0,0,2,,,,,,,,1,,,67,0
239199,note_on,0,0,2,,,,,,,,1,,,72,0
239200,note_on,0,0,2,,,,,,,,1,,,65,87
239200,note_on,0,0,2,,,,,,,,1,,,72,87
239200,note_on,1,0,2,,,,,,,,1,,,77,87
239200,note_on,0,0,2,,,,,,,,1,,,68,87
239260,set_tempo,67,1,0,,,,,,384221,,,,,,
239342,set_tempo,82,1,0,,,,,,383044,,,,,,
239359,note_on,0,0,2,,,,,,,,1,,,72,0
239359,note_on,0,0,2,,,,,,,,1,,,68,0
239359,note_on,159,0,2,,,,,,,,1,,,65,0
239359,note_on,0,0,2,,,,,,,,1,,,77,0
239360,note_on,0,0,2,,,,,,,,1,,,68,88
239360,note_on,0,0,2,,,,,,,,1,,,72,88
239360,note_on,1,0,2,,,,,,,,1,,,77,88
239360,note_on,0,0,2,,,,,,,,1,,,65,88
239425,set_tempo,83,1,0,,,,,,381874,,,,,,
239508,set_tempo,83,1,0,,,,,,380711,,,,,,
239519,note_on,0,0,4,,,,,,,,3,,,56,0
239519,note_on,479,0,4,,,,,,,,3,,,53,0
239519,note_on,0,0,4,,,,,,,,3,,,60,0
239520,note_on,1,0,4,,,,,,,,3,,,60,89
239520,note_on,0,0,4,,,,,,,,3,,,55,89
239520,note_on,0,0,4,,,,,,,,3,,,52,89
239520,note_on,0,0,4,,,,,,,,3,,,48,89
239591,set_tempo,83,1,0,,,,,,379555,,,,,,
239657,set_tempo,66,1,0,,,,,,378406,,,,,,
239679,note_on,0,0,2,,,,,,,,1,,,68,0
239679,note_on,0,0,2,,,,,,,,1,,,72,0
239679,note_on,0,0,2,,,,,,,,1,,,77,0
239679,note_on,319,0,2,,,,,,,,1,,,65,0
239680,note_on,0,0,2,,,,,,,,1,,,67,90
239680,note_on,0,0,2,,,,,,,,1,,,76,90
239680,note_on,0,0,2,,,,,,,,1,,,72,90
239680,note_on,1,0,2,,,,,,,,1,,,79,90
239740,set_tempo,83,1,0,,,,,,377264,,,,,,
239759,note_on,239,0,4,,,,,,,,3,,,48,0
239759,note_on,0,0,4,,,,,,,,3,,,60,0
239759,note_on,0,0,4,,,,,,,,3,,,52,0
239759,note_on,0,0,4,,,,,,,,3,,,55,0
239760,note_on,1,0,4,,,,,,,,3,,,60,91
239760,note_on,0,0,4,,,,,,,,3,,,55,91
239760,note_on,0,0,4,,,,,,,,3,,,52,91
239760,note_on,0,0,4,,,,,,,,3,,,48,91
239822,set_tempo,82,1,0,,,,,,376128,,,,,,
239839,note_on,159,0,2,,,,,,,,1,,,67,0
239839,note_on,0,0,2,,,,,,,,1,,,72,0
239839,note_on,0,0,2,,,,,,,,1,,,76,0
239839,note_on,0,0,2,,,,,,,,1,,,79,0
239840,note_on,0,0,2,,,,,,,,1,,,67,92
239840,note_on,0,0,2,,,,,,,,1,,,72,92
239840,note_on,0,0,2,,,,,,,,1,,,76,92
239840,note_on,1,0,2,,,,,,,,1,,,79,92
239905,set_tempo,83,1,0,,,,,,375000,,,,,,
239976,note_on,0,0,4,,,,,,,,3,,,52,0
239976,note_on,0,0,4,,,,,,,,3,,,55,0
239976,note_on,0,0,4,,,,,,,,3,,,60,0
239976,note_on,216,0,4,,,,,,,,3,,,48,0
239984,note_on,144,0,2,,,,,,,,1,,,67,0
239984,note_on,0,0,2,,,,,,,,1,,,79,0
239984,note_on,0,0,2,,,,,,,,1,,,72,0
239984,note_on,0,0,2,,,,,,,,1,,,76,0
239988,set_tempo,83,1,0,,,,,,373878,,,,,,
240000,note_on,0,0,4,,,,,,,,3,,,56,93
240000,note_on,24,0,4,,,,,,,,3,,,60,93
240000,note_on,0,0,4,,,,,,,,3,,,53,93
240054,set_tempo,66,1,0,,,,,,372763,,,,,,
240137,set_tempo,83,1,0,,,,,,371655,,,,,,
240160,note_on,0,0,2,,,,,,,,1,,,68,94
240160,note_on,0,0,2,,,,,,,,1,,,77,94
240160,note_on,0,0,2,,,,,,,,1,,,72,94
240160,note_on,176,0,2,,,,,,,,1,,,80,94
240220,set_tempo,83,1,0,,,,,,370553,,,,,,
240302,set_tempo,82,1,0,,,,,,369458,,,,,,
240319,note_on,159,0,2,,,,,,,,1,,,68,0
240319,note_on,0,0,2,,,,,,,,1,,,80,0
240319,note_on,0,0,2,,,,,,,,1,,,77,0
240319,note_on,0,0,2,,,,,,,,1,,,72,0
240320,note_on,0,0,2,,,,,,,,1,,,72,93
240320,note_on,0,0,2,,,,,,,,1,,,77,93
240320,note_on,1,0,2,,,,,,,,1,,,80,93
240320,note_on,0,0,2,,,,,,,,1,,,68,93
240385,set_tempo,83,1,0,,,,,,368369,,,,,,
240451,set_tempo,66,1,0,,,,,,367287,,,,,,
240479,note_on,0,0,4,,,,,,,,3,,,56,0
240479,note_on,0,0,4,,,,,,,,3,,,60,0
240479,note_on,479,0,4,,,,,,,,3,,,53,0
240480,note_on,0,0,4,,,,,,,,3,,,48,97
240480,note_on,0,0,4,,,,,,,,3,,,55,97
240480,note_on,1,0,4,,,,,,,,3,,,64,97
240534,set_tempo,83,1,0,,,,,,366211,,,,,,
240617,set_tempo,83,1,0,,,,,,365141,,,,,,
240639,note_on,0,0,2,,,,,,,,1,,,72,0
240639,note_on,319,0,2,,,,,,,,1,,,68,0
240639,note_on,0,0,2,,,,,,,,1,,,80,0
240639,note_on,0,0,2,,,,,,,,1,,,77,0
240640,note_on,1,0,2,,,,,,,,1,,,84,93
240640,note_on,0,0,2,,,,,,,,1,,,82,93
240640,note_on,0,0,2,,,,,,,,1,,,79,93
240640,note_on,0,0,2,,,,,,,,1,,,72,93
240640,note_on,0,0,2,,,,,,,,1,,,76,93
240700,set_tempo,83,1,0,,,,,,364078,,,,,,
240766,set_tempo,66,1,0,,,,,,363020,,,,,,
240799,note_on,0,0,2,,,,,,,,1,,,79,0
240799,note_on,0,0,2,,,,,,,,1,,,82,0
240799,note_on,0,0,2,,,,,,,,1,,,76,0
240799,note_on,159,0,2,,,,,,,,1,,,72,0
240799,note_on,0,0,2,,,,,,,,1,,,84,0
240800,note_on,0,0,2,,,,,,,,1,,,79,93
240800,note_on,0,0,2,,,,,,,,1,,,76,93
240800,note_on,1,0,2,,,,,,,,1,,,84,93
240800,note_on,0,0,2,,,,,,,,1,,,72,93
240849,set_tempo,83,1,0,,,,,,361969,,,,,,
240931,set_tempo,82,1,0,,,,,,360924,,,,,,
240959,note_on,0,0,4,,,,,,,,3,,,55,0
240959,note_on,0,0,4,,,,,,,,3,,,64,0
240959,note_on,479,0,4,,,,,,,,3,,,48,0
240960,note_on,0,0,4,,,,,,,,3,,,53,101
240960,note_on,1,0,4,,,,,,,,3,,,65,101
240960,note_on,0,0,4,,,,,,,,3,,,56,101
241014,set_tempo,83,1,0,,,,,,359885,,,,,,
241097,set_tempo,83,1,0,,,,,,358852,,,,,,
241119,note_on,319,0,2,,,,,,,,1,,,72,0
241119,note_on,0,0,2,,,,,,,,1,,,84,0
241119,note_on,0,0,2,,,,,,,,1,,,79,0
241119,note_on,0,0,2,,,,,,,,1,,,76,0
241120,note_on,1,0,2,,,,,,,,1,,,84,93
241120,note_on,0,0,2,,,,,,,,1,,,77,93
241120,note_on,0,0,2,,,,,,,,1,,,80,93
241120,note_on,0,0,2,,,,,,,,1,,,72,93
241163,set_tempo,66,1,0,,,,,,357824,,,,,,
241246,set_tempo,83,1,0,,,,,,356803,,,,,,
241279,note_on,0,0,2,,,,,,,,1,,,80,0
241279,note_on,0,0,2,,,,,,,,1,,,77,0
241279,note_on,159,0,2,,,,,,,,1,,,72,0
241279,note_on,0,0,2,,,,,,,,1,,,84,0
241280,note_on,0,0,2,,,,,,,,1,,,77,93
241280,note_on,1,0,2,,,,,,,,1,,,84,93
241280,note_on,0,0,2,,,,,,,,1,,,72,93
241280,note_on,0,0,2,,,,,,,,1,,,80,93
241329,set_tempo,83,1,0,,,,,,355787,,,,,,
241411,set_tempo,82,1,0,,,,,,354778,,,,,,
241439,note_on,0,0,4,,,,,,,,3,,,65,0
241439,note_on,0,0,4,,,,,,,,3,,,56,0
241439,note_on,479,0,4,,,,,,,,3,,,53,0
241440,note_on,1,0,4,,,,,,,,3,,,46,103
241480,note_on,40,0,4,,,,,,,,3,,,58,105
241494,set_tempo,83,1,0,,,,,,353774,,,,,,
241520,note_on,40,0,4,,,,,,,,3,,,67,109
241560,set_tempo,66,1,0,,,,,,352775,,,,,,
241599,note_on,0,0,2,,,,,,,,1,,,77,0
241599,note_on,0,0,2,,,,,,,,1,,,80,0
241599,note_on,319,0,2,,,,,,,,1,,,72,0
241599,note_on,0,0,2,,,,,,,,1,,,84,0
241600,note_on,0,0,2,,,,,,,,1,,,80,93
241600,note_on,0,0,2,,,,,,,,1,,,77,93
241600,note_on,0,0,2,,,,,,,,1,,,82,93
241600,note_on,1,0,2,,,,,,,,1,,,86,93
241600,note_on,0,0,2,,,,,,,,1,,,74,93
241643,set_tempo,83,1,0,,,,,,351782,,,,,,
241668,note_on,0,0,4,,,,,,,,3,,,58,0
241668,note_on,148,0,4,,,,,,,,3,,,67,0
241668,note_on,0,0,4,,,,,,,,3,,,46,0
241726,set_tempo,83,1,0,,,,,,350795,,,,,,
241759,note_on,159,0,2,,,,,,,,1,,,74,0
241759,note_on,0,0,2,,,,,,,,1,,,82,0
241759,note_on,0,0,2,,,,,,,,1,,,86,0
241759,note_on,0,0,2,,,,,,,,1,,,80,0
241759,note_on,0,0,2,,,,,,,,1,,,77,0
241760,note_on,1,0,2,,,,,,,,1,,,86,93
241760,note_on,0,0,2,,,,,,,,1,,,74,93
241760,note_on,0,0,2,,,,,,,,1,,,82,93
241760,note_on,0,0,2,,,,,,,,1,,,80,93
241760,note_on,0,0,2,,,,,,,,1,,,77,93
241809,set_tempo,83,1,0,,,,,,349813,,,,,,
241875,set_tempo,66,1,0,,,,,,348837,,,,,,
241904,note_on,144,0,2,,,,,,,,1,,,74,0
241904,note_on,0,0,2,,,,,,,,1,,,77,0
241904,note_on,0,0,2,,,,,,,,1,,,86,0
241904,note_on,0,0,2,,,,,,,,1,,,82,0
241904,note_on,0,0,2,,,,,,,,1,,,80,0
241920,note_on,0,0,1,,,,,,,,0,,,87,108
241920,control_change,4896,0,1,,,,,,,,0,64,127,,
241920,note_on,0,0,1,,,,,,,,0,,,75,108
241920,control_change,252,0,4,,,,,,,,3,64,127,,
241920,note_on,0,0,4,,,,,,,,3,,,51,108
241920,note_on,0,0,4,,,,,,,,3,,,55,108
241920,note_on,0,0,4,,,,,,,,3,,,63,108
241920,note_on,0,0,1,,,,,,,,0,,,79,108
242079,note_on,0,0,1,,,,,,,,0,,,79,0
242079,note_on,0,0,1,,,,,,,,0,,,87,0
242079,note_on,159,0,1,,,,,,,,0,,,75,0
242079,note_on,0,0,4,,,,,,,,3,,,63,0
242079,note_on,0,0,4,,,,,,,,3,,,55,0
242079,note_on,159,0,4,,,,,,,,3,,,51,0
242080,note_on,1,0,1,,,,,,,,0,,,82,108
242080,note_on,0,0,4,,,,,,,,3,,,67,108
242080,note_on,0,0,1,,,,,,,,0,,,75,108
242080,note_on,0,0,1,,,,,,,,0,,,79,108
242080,note_on,1,0,4,,,,,,,,3,,,70,108
242239,note_on,159,0,4,,,,,,,,3,,,67,0
242239,note_on,0,0,4,,,,,,,,3,,,70,0
242239,note_on,159,0,1,,,,,,,,0,,,75,0
242239,note_on,0,0,1,,,,,,,,0,,,79,0
242239,note_on,0,0,1,,,,,,,,0,,,82,0
242240,note_on,0,0,4,,,,,,,,3,,,67,108
242240,note_on,1,0,4,,,,,,,,3,,,70,108
242240,note_on,1,0,1,,,,,,,,0,,,82,108
242240,note_on,0,0,1,,,,,,,,0,,,79,108
242240,note_on,0,0,1,,,,,,,,0,,,75,108
242399,note_on,159,0,4,,,,,,,,3,,,67,0
242399,note_on,159,0,1,,,,,,,,0,,,75,0
242399,note_on,0,0,1,,,,,,,,0,,,82,0
242399,note_on,0,0,1,,,,,,,,0,,,79,0
242399,note_on,0,0,4,,,,,,,,3,,,70,0
242400,note_on,0,0,1,,,,,,,,0,,,75,108
242400,note_on,1,0,1,,,,,,,,0,,,82,108
242400,note_on,0,0,1,,,,,,,,0,,,79,108
242400,note_on,1,0,4,,,,,,,,3,,,70,108
242400,note_on,0,0,4,,,,,,,,3,,,67,108
242559,note_on,159,0,1,,,,,,,,0,,,75,0
242559,note_on,0,0,1,,,,,,,,0,,,79,0
242559,note_on,0,0,1,,,,,,,,0,,,82,0
242559,note_on,159,0,4,,,,,,,,3,,,67,0
242559,note_on,0,0,4,,,,,,,,3,,,70,0
242560,note_on,1,0,1,,,,,,,,0,,,79,108
242560,note_on,0,0,1,,,,,,,,0,,,75,108
242560,note_on,0,0,1,,,,,,,,0,,,70,108
242560,note_on,0,0,4,,,,,,,,3,,,63,108
242560,note_on,1,0,4,,,,,,,,3,,,67,108
242719,note_on,0,0,1,,,,,,,,0,,,75,0
242719,note_on,0,0,1,,,,,,,,0,,,79,0
242719,note_on,0,0,4,,,,,,,,3,,,67,0
242719,note_on,159,0,1,,,,,,,,0,,,70,0
242719,note_on,159,0,4,,,,,,,,3,,,63,0
242720,note_on,0,0,4,,,,,,,,3,,,63,108
242720,note_on,1,0,4,,,,,,,,3,,,67,108
242720,note_on,0,0,1,,,,,,,,0,,,75,108
242720,note_on,0,0,1,,,,,,,,0,,,70,108
242720,note_on,1,0,1,,,,,,,,0,,,79,108
242879,note_on,159,0,1,,,,,,,,0,,,70,0
242879,note_on,0,0,1,,,,,,,,0,,,75,0
242879,note_on,0,0,1,,,,,,,,0,,,79,0
242879,note_on,159,0,4,,,,,,,,3,,,63,0
242879,note_on,0,0,4,,,,,,,,3,,,67,0
242880,note_on,0,0,4,,,,,,,,3,,,63,108
242880,note_on,1,0,1,,,,,,,,0,,,79,108
242880,note_on,0,0,1,,,,,,,,0,,,75,108
242880,note_on,0,0,1,,,,,,,,0,,,70,108
242880,note_on,1,0,4,,,,,,,,3,,,67,108
243039,note_on,159,0,1,,,,,,,,0,,,70,0
243039,note_on,0,0,1,,,,,,,,0,,,75,0
243039,note_on,159,0,4,,,,,,,,3,,,63,0
243039,note_on,0,0,1,,,,,,,,0,,,79,0
243039,note_on,0,0,4,,,,,,,,3,,,67,0
243040,note_on,1,0,4,,,,,,,,3,,,63,108
243040,note_on,0,0,4,,,,,,,,3,,,58,108
243040,note_on,0,0,1,,,,,,,,0,,,67,108
243040,note_on,0,0,1,,,,,,,,0,,,70,108
243040,note_on,1,0,1,,,,,,,,0,,,75,108
243199,note_on,0,0,1,,,,,,,,0,,,70,0
243199,note_on,159,0,1,,,,,,,,0,,,67,0
243199,note_on,0,0,1,,,,,,,,0,,,75,0
243199,note_on,159,0,4,,,,,,,,3,,,58,0
243199,note_on,0,0,4,,,,,,,,3,,,63,0
243200,note_on,0,0,1,,,,,,,,0,,,67,108
243200,note_on,0,0,1,,,,,,,,0,,,70,108
243200,note_on,1,0,1,,,,,,,,0,,,75,108
243200,note_on,1,0,4,,,,,,,,3,,,63,108
243200,note_on,0,0,4,,,,,,,,3,,,58,108
243359,note_on,0,0,1,,,,,,,,0,,,70,0
243359,note_on,0,0,1,,,,,,,,0,,,75,0
243359,note_on,159,0,1,,,,,,,,0,,,67,0
243359,note_on,0,0,4,,,,,,,,3,,,63,0
243359,note_on,159,0,4,,,,,,,,3,,,58,0
243360,note_on,0,0,1,,,,,,,,0,,,70,108
243360,note_on,1,0,1,,,,,,,,0,,,67,108
243360,note_on,1,0,4,,,,,,,,3,,,63,108
243360,note_on,0,0,4,,,,,,,,3,,,58,108
243360,note_on,0,0,1,,,,,,,,0,,,75,108
243519,note_on,159,0,4,,,,,,,,3,,,58,0
243519,note_on,0,0,1,,,,,,,,0,,,67,0
243519,note_on,0,0,4,,,,,,,,3,,,63,0
243519,note_on,0,0,1,,,,,,,,0,,,70,0
243519,note_on,159,0,1,,,,,,,,0,,,75,0
243520,note_on,1,0,1,,,,,,,,0,,,63,108
243520,note_on,0,0,4,,,,,,,,3,,,55,108
243520,note_on,1,0,4,,,,,,,,3,,,58,108
243520,note_on,0,0,1,,,,,,,,0,,,67,108
243520,note_on,0,0,1,,,,,,,,0,,,70,108
243679,note_on,0,0,4,,,,,,,,3,,,58,0
243679,note_on,159,0,4,,,,,,,,3,,,55,0
243679,note_on,0,0,1,,,,,,,,0,,,63,0
243679,note_on,159,0,1,,,,,,,,0,,,70,0
243679,note_on,0,0,1,,,,,,,,0,,,67,0
243680,note_on,0,0,1,,,,,,,,0,,,70,108
243680,note_on,0,0,4,,,,,,,,3,,,55,108
243680,note_on,1,0,4,,,,,,,,3,,,58,108
243680,note_on,0,0,1,,,,,,,,0,,,67,108
243680,note_on,1,0,1,,,,,,,,0,,,63,108
243824,note_on,0,0,1,,,,,,,,0,,,63,0
243824,note_on,0,0,1,,,,,,,,0,,,67,0
243824,note_on,144,0,4,,,,,,,,3,,,55,0
243824,note_on,0,0,4,,,,,,,,3,,,58,0
243824,note_on,144,0,1,,,,,,,,0,,,70,0
243840,note_on,0,0,4,,,,,,,,3,,,55,102
243840,note_on,16,0,1,,,,,,,,0,,,63,102
243840,note_on,0,0,1,,,,,,,,0,,,67,102
243840,note_on,0,0,1,,,,,,,,0,,,70,102
243840,note_on,16,0,4,,,,,,,,3,,,58,102
243999,note_on,0,0,1,,,,,,,,0,,,67,0
243999,note_on,0,0,1,,,,,,,,0,,,63,0
243999,note_on,0,0,4,,,,,,,,3,,,58,0
243999,note_on,159,0,4,,,,,,,,3,,,55,0
243999,note_on,159,0,1,,,,,,,,0,,,70,0
244000,note_on,1,0,1,,,,,,,,0,,,58,99
244000,note_on,0,0,1,,,,,,,,0,,,63,99
244000,note_on,0,0,1,,,,,,,,0,,,67,99
244000,note_on,0,0,4,,,,,,,,3,,,51,99
244000,note_on,1,0,4,,,,,,,,3,,,55,99
244159,note_on,159,0,1,,,,,,,,0,,,67,0
244159,note_on,0,0,1,,,,,,,,0,,,63,0
244159,note_on,0,0,4,,,,,,,,3,,,55,0
244159,note_on,159,0,4,,,,,,,,3,,,51,0
244159,note_on,0,0,1,,,,,,,,0,,,58,0
244160,note_on,0,0,1,,,,,,,,0,,,63,96
244160,note_on,1,0,1,,,,,,,,0,,,58,96
244160,note_on,0,0,1,,,,,,,,0,,,67,96
244160,note_on,0,0,4,,,,,,,,3,,,51,96
244160,note_on,1,0,4,,,,,,,,3,,,55,96
244319,note_on,159,0,1,,,,,,,,0,,,67,0
244319,note_on,0,0,1,,,,,,,,0,,,63,0
244319,note_on,0,0,1,,,,,,,,0,,,58,0
244319,note_on,0,0,4,,,,,,,,3,,,55,0
244319,note_on,159,0,4,,,,,,,,3,,,51,0
244320,note_on,0,0,4,,,,,,,,3,,,51,93
244320,note_on,0,0,1,,,,,,,,0,,,67,93
244320,note_on,0,0,1,,,,,,,,0,,,63,93
244320,note_on,1,0,1,,,,,,,,0,,,58,93
244320,note_on,1,0,4,,,,,,,,3,,,55,93
244479,note_on,0,0,1,,,,,,,,0,,,58,0
244479,note_on,0,0,4,,,,,,,,3,,,55,0
244479,note_on,159,0,4,,,,,,,,3,,,51,0
244479,note_on,159,0,1,,,,,,,,0,,,67,0
244479,note_on,0,0,1,,,,,,,,0,,,63,0
244480,note_on,1,0,1,,,,,,,,0,,,55,90
244480,note_on,0,0,4,,,,,,,,3,,,46,90
244480,note_on,0,0,1,,,,,,,,0,,,63,90
244480,note_on,1,0,4,,,,,,,,3,,,51,90
244480,note_on,0,0,1,,,,,,,,0,,,58,90
244639,note_on,159,0,1,,,,,,,,0,,,63,0
244639,note_on,0,0,1,,,,,,,,0,,,58,0
244639,note_on,0,0,1,,,,,,,,0,,,55,0
244639,note_on,159,0,4,,,,,,,,3,,,46,0
244639,note_on,0,0,4,,,,,,,,3,,,51,0
244640,note_on,1,0,4,,,,,,,,3,,,51,87
244640,note_on,0,0,1,,,,,,,,0,,,63,87
244640,note_on,0,0,1,,,,,,,,0,,,58,87
244640,note_on,1,0,1,,,,,,,,0,,,55,87
244640,note_on,0,0,4,,,,,,,,3,,,46,87
244799,note_on,159,0,1,,,,,,,,0,,,63,0
244799,note_on,0,0,1,,,,,,,,0,,,55,0
244799,note_on,0,0,1,,,,,,,,0,,,58,0
244799,note_on,159,0,4,,,,,,,,3,,,46,0
244799,note_on,0,0,4,,,,,,,,3,,,51,0
244800,note_on,1,0,1,,,,,,,,0,,,63,83
244800,note_on,1,0,4,,,,,,,,3,,,39,83
244959,note_on,159,0,4,,,,,,,,3,,,39,0
244960,note_on,1,0,4,,,,,,,,3,,,46,80
245039,note_on,239,0,1,,,,,,,,0,,,63,0
245040,note_on,0,0,1,,,,,,,,0,,,58,79
245040,note_on,1,0,1,,,,,,,,0,,,55,79
245119,note_on,159,0,4,,,,,,,,3,,,46,0
245120,note_on,1,0,4,,,,,,,,3,,,46,77
245279,note_on,159,0,4,,,,,,,,3,,,46,0
245279,note_on,0,0,1,,,,,,,,0,,,55,0
245279,note_on,239,0,1,,,,,,,,0,,,58,0
245280,note_on,1,0,1,,,,,,,,0,,,67,74
245280,note_on,1,0,4,,,,,,,,3,,,51,74
245439,note_on,159,0,4,,,,,,,,3,,,51,0
245440,note_on,1,0,4,,,,,,,,3,,,46,71
245519,note_on,239,0,1,,,,,,,,0,,,67,0
245520,note_on,0,0,1,,,,,,,,0,,,58,69
245520,note_on,1,0,1,,,,,,,,0,,,55,69
245599,note_on,159,0,4,,,,,,,,3,,,46,0
245600,note_on,1,0,4,,,,,,,,3,,,46,68
245736,note_on,216,0,1,,,,,,,,0,,,58,0
245736,note_on,0,0,1,,,,,,,,0,,,55,0
245744,note_on,144,0,4,,,,,,,,3,,,46,0
245760,note_on,24,0,1,,,,,,,,0,,,63,65
245760,note_on,16,0,4,,,,,,,,3,,,39,41
245919,note_on,159,0,4,,,,,,,,3,,,39,0
245920,note_on,1,0,4,,,,,,,,3,,,46,40
245999,note_on,239,0,1,,,,,,,,0,,,63,0
246000,note_on,1,0,1,,,,,,,,0,,,55,64
246000,note_on,0,0,1,,,,,,,,0,,,58,64
246079,note_on,159,0,4,,,,,,,,3,,,46,0
246080,note_on,1,0,4,,,,,,,,3,,,46,40
246239,note_on,239,0,1,,,,,,,,0,,,58,0
246239,note_on,0,0,1,,,,,,,,0,,,55,0
246239,note_on,159,0,4,,,,,,,,3,,,46,0
246240,note_on,1,0,1,,,,,,,,0,,,67,64
246240,note_on,1,0,4,,,,,,,,3,,,51,40
246399,note_on,159,0,4,,,,,,,,3,,,51,0
246400,note_on,1,0,4,,,,,,,,3,,,46,40
246479,note_on,239,0,1,,,,,,,,0,,,67,0
246480,note_on,0,0,1,,,,,,,,0,,,58,64
246480,note_on,1,0,1,,,,,,,,0,,,55,64
246547,control_change,147,0,4,,,,,,,,3,64,0,,
246559,note_on,12,0,4,,,,,,,,3,,,46,0
246560,note_on,1,0,4,,,,,,,,3,,,46,40
246587,control_change,107,0,1,,,,,,,,0,64,0,,
246719,note_on,132,0,1,,,,,,,,0,,,58,0
246719,note_on,0,0,1,,,,,,,,0,,,55,0
246720,note_on,1,0,1,,,,,,,,0,,,55,64
246720,note_on,0,0,1,,,,,,,,0,,,58,64
246720,note_on,0,0,1,,,,,,,,0,,,65,64
246879,note_on,319,0,4,,,,,,,,3,,,46,0
246880,note_on,1,0,4,,,,,,,,3,,,39,40
246880,note_on,0,0,4,,,,,,,,3,,,46,40
246959,note_on,0,0,1,,,,,,,,0,,,58,0
246959,note_on,239,0,1,,,,,,,,0,,,65,0
246959,note_on,0,0,1,,,,,,,,0,,,55,0
246960,note_on,0,0,1,,,,,,,,0,,,58,64
246960,note_on,0,0,1,,,,,,,,0,,,63,64
246960,note_on,1,0,1,,,,,,,,0,,,55,64
247039,note_on,159,0,4,,,,,,,,3,,,46,0
247039,note_on,0,0,4,,,,,,,,3,,,39,0
247040,note_on,1,0,4,,,,,,,,3,,,39,40
247040,note_on,0,0,4,,,,,,,,3,,,46,40
247199,note_on,159,0,4,,,,,,,,3,,,46,0
247199,note_on,0,0,4,,,,,,,,3,,,39,0
247199,note_on,0,0,1,,,,,,,,0,,,55,0
247199,note_on,239,0,1,,,,,,,,0,,,63,0
247199,note_on,0,0,1,,,,,,,,0,,,58,0
247200,note_on,1,0,1,,,,,,,,0,,,55,64
247200,note_on,0,0,1,,,,,,,,0,,,58,64
247200,note_on,0,0,1,,,,,,,,0,,,62,64
247200,note_on,1,0,4,,,,,,,,3,,,39,40
247200,note_on,0,0,4,,,,,,,,3,,,46,40
247359,note_on,159,0,4,,,,,,,,3,,,46,0
247359,note_on,0,0,4,,,,,,,,3,,,39,0
247360,note_on,1,0,4,,,,,,,,3,,,39,40
247360,note_on,0,0,4,,,,,,,,3,,,46,40
247439,note_on,0,0,1,,,,,,,,0,,,58,0
247439,note_on,0,0,1,,,,,,,,0,,,55,0
247439,note_on,239,0,1,,,,,,,,0,,,62,0
247440,note_on,0,0,1,,,,,,,,0,,,63,64
247440,note_on,0,0,1,,,,,,,,0,,,58,64
247440,note_on,1,0,1,,,,,,,,0,,,55,64
247519,note_on,159,0,4,,,,,,,,3,,,46,0
247519,note_on,0,0,4,,,,,,,,3,,,39,0
247520,note_on,1,0,4,,,,,,,,3,,,39,40
247520,note_on,0,0,4,,,,,,,,3,,,46,40
247656,note_on,0,0,1,,,,,,,,0,,,55,0
247656,note_on,216,0,1,,,,,,,,0,,,63,0
247656,note_on,0,0,1,,,,,,,,0,,,58,0
247664,note_on,0,0,4,,,,,,,,3,,,39,0
247664,note_on,144,0,4,,,,,,,,3,,,46,0
247680,note_on,16,0,4,,,,,,,,3,,,39,40
247680,control_change,24,0,1,,,,,,,,0,64,127,,
247680,note_on,0,0,1,,,,,,,,0,,,63,64
247707,control_change,27,0,4,,,,,,,,3,64,127,,
247839,note_on,132,0,4,,,,,,,,3,,,39,0
247840,note_on,1,0,4,,,,,,,,3,,,46,40
247919,note_on,239,0,1,,,,,,,,0,,,63,0
247920,note_on,0,0,1,,,,,,,,0,,,58,64
247920,note_on,1,0,1,,,,,,,,0,,,54,64
247999,note_on,159,0,4,,,,,,,,3,,,46,0
248000,note_on,1,0,4,,,,,,,,3,,,46,40
248159,note_on,159,0,4,,,,,,,,3,,,46,0
248159,note_on,0,0,1,,,,,,,,0,,,54,0
248159,note_on,239,0,1,,,,,,,,0,,,58,0
248160,note_on,1,0,4,,,,,,,,3,,,51,40
248160,note_on,1,0,1,,,,,,,,0,,,66,64
248319,note_on,159,0,4,,,,,,,,3,,,51,0
248320,note_on,1,0,4,,,,,,,,3,,,46,40
248399,note_on,239,0,1,,,,,,,,0,,,66,0
248400,note_on,1,0,1,,,,,,,,0,,,54,64
248400,note_on,0,0,1,,,,,,,,0,,,58,64
248479,note_on,159,0,4,,,,,,,,3,,,46,0
248480,note_on,1,0,4,,,,,,,,3,,,46,40
248639,note_on,159,0,4,,,,,,,,3,,,46,0
248639,note_on,239,0,1,,,,,,,,0,,,58,0
248639,note_on,0,0,1,,,,,,,,0,,,54,0
248640,note_on,1,0,4,,,,,,,,3,,,39,40
248640,note_on,1,0,1,,,,,,,,0,,,63,64
248799,note_on,159,0,4,,,,,,,,3,,,39,0
248800,note_on,1,0,4,,,,,,,,3,,,46,40
248879,note_on,239,0,1,,,,,,,,0,,,63,0
248880,note_on,0,0,1,,,,,,,,0,,,58,64
248880,note_on,1,0,1,,,,,,,,0,,,54,64
248959,note_on,159,0,4,,,,,,,,3,,,46,0
248960,note_on,1,0,4,,,,,,,,3,,,46,40
249119,note_on,159,0,4,,,,,,,,3,,,46,0
249119,note_on,0,0,1,,,,,,,,0,,,54,0
249119,note_on,239,0,1,,,,,,,,0,,,58,0
249120,note_on,1,0,4,,,,,,,,3,,,51,40
249120,note_on,1,0,1,,,,,,,,0,,,66,64
249279,note_on,159,0,4,,,,,,,,3,,,51,0
249280,note_on,1,0,4,,,,,,,,3,,,46,40
249359,note_on,239,0,1,,,,,,,,0,,,66,0
249360,note_on,1,0,1,,,,,,,,0,,,54,64
249360,note_on,0,0,1,,,,,,,,0,,,58,64
249439,note_on,159,0,4,,,,,,,,3,,,46,0
249440,note_on,1,0,4,,,,,,,,3,,,46,40
249576,note_on,216,0,1,,,,,,,,0,,,58,0
249576,note_on,0,0,1,,,,,,,,0,,,54,0
249584,note_on,144,0,4,,,,,,,,3,,,46,0
249600,note_on,16,0,4,,,,,,,,3,,,39,40
249600,note_on,24,0,1,,,,,,,,0,,,63,64
249759,note_on,159,0,4,,,,,,,,3,,,39,0
249760,note_on,1,0,4,,,,,,,,3,,,46,40
249839,note_on,239,0,1,,,,,,,,0,,,63,0
249840,note_on,1,0,1,,,,,,,,0,,,54,64
249840,note_on,0,0,1,,,,,,,,0,,,58,64
249919,note_on,159,0,4,,,,,,,,3,,,46,0
249920,note_on,1,0,4,,,,,,,,3,,,46,40
250079,note_on,239,0,1,,,,,,,,0,,,58,0
250079,note_on,0,0,1,,,,,,,,0,,,54,0
250079,note_on,159,0,4,,,,,,,,3,,,46,0
250080,note_on,1,0,1,,,,,,,,0,,,66,64
250080,note_on,1,0,4,,,,,,,,3,,,51,40
250239,note_on,159,0,4,,,,,,,,3,,,51,0
250240,note_on,1,0,4,,,,,,,,3,,,46,40
250319,note_on,239,0,1,,,,,,,,0,,,66,0
250320,note_on,1,0,1,,,,,,,,0,,,54,64
250320,note_on,0,0,1,,,,,,,,0,,,58,64
250399,note_on,159,0,4,,,,,,,,3,,,46,0
250400,note_on,1,0,4,,,,,,,,3,,,46,40
250559,note_on,0,0,1,,,,,,,,0,,,54,0
250559,note_on,239,0,1,,,,,,,,0,,,58,0
250560,note_on,0,0,1,,,,,,,,0,,,65,64
250560,note_on,1,0,1,,,,,,,,0,,,54,64
250560,note_on,0,0,1,,,,,,,,0,,,58,64
250719,note_on,319,0,4,,,,,,,,3,,,46,0
250720,note_on,0,0,4,,,,,,,,3,,,46,40
250720,note_on,1,0,4,,,,,,,,3,,,39,40
250799,note_on,0,0,1,,,,,,,,0,,,54,0
250799,note_on,0,0,1,,,,,,,,0,,,58,0
250799,note_on,239,0,1,,,,,,,,0,,,65,0
250800,note_on,0,0,1,,,,,,,,0,,,63,64
250800,note_on,0,0,1,,,,,,,,0,,,58,64
250800,note_on,1,0,1,,,,,,,,0,,,54,64
250879,note_on,0,0,4,,,,,,,,3,,,39,0
250879,note_on,159,0,4,,,,,,,,3,,,46,0
250880,note_on,0,0,4,,,,,,,,3,,,46,40
250880,note_on,1,0,4,,,,,,,,3,,,39,40
251039,note_on,239,0,1,,,,,,,,0,,,63,0
251039,note_on,0,0,1,,,,,,,,0,,,58,0
251039,note_on,159,0,4,,,,,,,,3,,,46,0
251039,note_on,0,0,4,,,,,,,,3,,,39,0
251039,note_on,0,0,1,,,,,,,,0,,,54,0
251040,note_on,1,0,1,,,,,,,,0,,,54,64
251040,note_on,1,0,4,,,,,,,,3,,,39,40
251040,note_on,0,0,4,,,,,,,,3,,,46,40
251040,note_on,0,0,1,,,,,,,,0,,,58,64
251040,note_on,0,0,1,,,,,,,,0,,,62,64
251199,note_on,0,0,4,,,,,,,,3,,,39,0
251199,note_on,159,0,4,,,,,,,,3,,,46,0
251200,note_on,0,0,4,,,,,,,,3,,,46,40
251200,note_on,1,0,4,,,,,,,,3,,,39,40
251279,note_on,0,0,1,,,,,,,,0,,,58,0
251279,note_on,239,0,1,,,,,,,,0,,,62,0
251279,note_on,0,0,1,,,,,,,,0,,,54,0
251280,note_on,1,0,1,,,,,,,,0,,,54,64
251280,note_on,0,0,1,,,,,,,,0,,,63,64
251280,note_on,0,0,1,,,,,,,,0,,,58,64
251320,control_change,40,0,1,,,,,,,,0,64,0,,
251359,note_on,0,0,4,,,,,,,,3,,,39,0
251359,note_on,159,0,4,,,,,,,,3,,,46,0
251360,note_on,1,0,4,,,,,,,,3,,,39,40
251360,note_on,0,0,4,,,,,,,,3,,,46,40
251400,control_change,40,0,4,,,,,,,,3,64,0,,
251496,note_on,176,0,1,,,,,,,,0,,,63,0
251496,note_on,0,0,1,,,,,,,,0,,,58,0
251496,note_on,0,0,1,,,,,,,,0,,,54,0
251504,note_on,104,0,4,,,,,,,,3,,,46,0
251504,note_on,0,0,4,,,,,,,,3,,,39,0
251520,note_on,0,0,4,,,,,,,,3,,,35,40
251520,control_change,16,0,4,,,,,,,,3,64,127,,
251520,control_change,24,0,1,,,,,,,,0,64,127,,
251520,note_on,0,0,1,,,,,,,,0,,,63,64
251679,note_on,159,0,4,,,,,,,,3,,,35,0
251680,note_on,1,0,4,,,,,,,,3,,,42,40
251759,note_on,239,0,1,,,,,,,,0,,,63,0
251760,note_on,1,0,1,,,,,,,,0,,,59,64
251760,note_on,0,0,1,,,,,,,,0,,,54,64
251839,note_on,159,0,4,,,,,,,,3,,,42,0
251840,note_on,1,0,4,,,,,,,,3,,,42,40
251999,note_on,239,0,1,,,,,,,,0,,,54,0
251999,note_on,0,0,1,,,,,,,,0,,,59,0
251999,note_on,159,0,4,,,,,,,,3,,,42,0
252000,note_on,1,0,1,,,,,,,,0,,,66,63
252000,note_on,1,0,4,,,,,,,,3,,,51,40
252159,note_on,159,0,4,,,,,,,,3,,,51,0
252160,note_on,1,0,4,,,,,,,,3,,,42,40
252239,note_on,239,0,1,,,,,,,,0,,,66,0
252240,note_on,1,0,1,,,,,,,,0,,,59,63
252240,note_on,0,0,1,,,,,,,,0,,,54,63
252319,note_on,159,0,4,,,,,,,,3,,,42,0
252320,note_on,1,0,4,,,,,,,,3,,,42,40
252479,note_on,0,0,1,,,,,,,,0,,,59,0
252479,note_on,239,0,1,,,,,,,,0,,,54,0
252479,note_on,159,0,4,,,,,,,,3,,,42,0
252480,note_on,1,0,1,,,,,,,,0,,,63,62
252480,note_on,1,0,4,,,,,,,,3,,,35,40
252639,note_on,159,0,4,,,,,,,,3,,,35,0
252640,note_on,1,0,4,,,,,,,,3,,,42,40
252719,note_on,239,0,1,,,,,,,,0,,,63,0
252720,note_on,1,0,1,,,,,,,,0,,,54,61
252720,note_on,0,0,1,,,,,,,,0,,,59,61
252799,note_on,159,0,4,,,,,,,,3,,,42,0
252800,note_on,1,0,4,,,,,,,,3,,,42,40
252959,note_on,0,0,1,,,,,,,,0,,,54,0
252959,note_on,239,0,1,,,,,,,,0,,,59,0
252959,note_on,159,0,4,,,,,,,,3,,,42,0
252960,note_on,1,0,1,,,,,,,,0,,,66,60
252960,note_on,1,0,4,,,,,,,,3,,,51,40
253119,note_on,159,0,4,,,,,,,,3,,,51,0
253120,note_on,1,0,4,,,,,,,,3,,,42,40
253199,note_on,239,0,1,,,,,,,,0,,,66,0
253200,note_on,1,0,1,,,,,,,,0,,,54,60
253200,note_on,0,0,1,,,,,,,,0,,,59,60
253279,note_on,159,0,4,,,,,,,,3,,,42,0
253280,note_on,1,0,4,,,,,,,,3,,,42,40
253416,note_on,0,0,1,,,,,,,,0,,,54,0
253416,note_on,216,0,1,,,,,,,,0,,,59,0
253424,note_on,144,0,4,,,,,,,,3,,,42,0
253440,note_on,16,0,4,,,,,,,,3,,,35,40
253440,note_on,24,0,1,,,,,,,,0,,,63,59
253599,note_on,159,0,4,,,,,,,,3,,,35,0
253600,note_on,1,0,4,,,,,,,,3,,,42,40
253679,note_on,239,0,1,,,,,,,,0,,,63,0
253680,note_on,0,0,1,,,,,,,,0,,,54,58
253680,note_on,1,0,1,,,,,,,,0,,,59,58
253759,note_on,159,0,4,,,,,,,,3,,,42,0
253760,note_on,1,0,4,,,,,,,,3,,,42,40
253919,note_on,159,0,4,,,,,,,,3,,,42,0
253919,note_on,239,0,1,,,,,,,,0,,,54,0
253919,note_on,0,0,1,,,,,,,,0,,,59,0
253920,note_on,1,0,4,,,,,,,,3,,,51,40
253920,note_on,1,0,1,,,,,,,,0,,,66,57
254079,note_on,159,0,4,,,,,,,,3,,,51,0
254080,note_on,1,0,4,,,,,,,,3,,,42,40
254159,note_on,239,0,1,,,,,,,,0,,,66,0
254160,note_on,0,0,1,,,,,,,,0,,,54,57
254160,note_on,1,0,1,,,,,,,,0,,,59,57
254239,note_on,159,0,4,,,,,,,,3,,,42,0
254240,note_on,1,0,4,,,,,,,,3,,,42,40
254399,note_on,159,0,4,,,,,,,,3,,,42,0
254399,note_on,0,0,1,,,,,,,,0,,,59,0
254399,note_on,239,0,1,,,,,,,,0,,,54,0
254400,note_on,1,0,1,,,,,,,,0,,,63,56
254400,note_on,1,0,4,,,,,,,,3,,,35,40
254559,note_on,159,0,4,,,,,,,,3,,,35,0
254560,note_on,1,0,4,,,,,,,,3,,,42,40
254639,note_on,239,0,1,,,,,,,,0,,,63,0
254640,note_on,0,0,1,,,,,,,,0,,,54,55
254640,note_on,1,0,1,,,,,,,,0,,,59,55
254719,note_on,159,0,4,,,,,,,,3,,,42,0
254720,note_on,1,0,4,,,,,,,,3,,,42,40
254879,note_on,159,0,4,,,,,,,,3,,,42,0
254879,note_on,0,0,1,,,,,,,,0,,,59,0
254879,note_on,239,0,1,,,,,,,,0,,,54,0
254880,note_on,1,0,4,,,,,,,,3,,,51,40
254880,note_on,1,0,1,,,,,,,,0,,,66,54
255039,note_on,159,0,4,,,,,,,,3,,,51,0
255040,note_on,1,0,4,,,,,,,,3,,,42,40
255119,note_on,239,0,1,,,,,,,,0,,,66,0
255120,note_on,0,0,1,,,,,,,,0,,,83,54
255120,note_on,1,0,1,,,,,,,,0,,,71,54
255120,note_on,0,0,1,,,,,,,,0,,,75,54
255199,note_on,159,0,4,,,,,,,,3,,,42,0
255200,note_on,1,0,4,,,,,,,,3,,,42,40
255336,note_on,0,0,1,,,,,,,,0,,,83,0
255336,note_on,0,0,1,,,,,,,,0,,,71,0
255336,note_on,216,0,1,,,,,,,,0,,,75,0
255344,note_on,144,0,4,,,,,,,,3,,,42,0
255360,note_on,0,0,1,,,,,,,,0,,,75,76
255360,note_on,16,0,4,,,,,,,,3,,,35,32
255360,note_on,0,0,1,,,,,,,,0,,,78,76
255360,note_on,24,0,1,,,,,,,,0,,,87,76
255399,set_tempo,13524,1,0,,,,,,391441,,,,,,
255519,note_on,159,0,4,,,,,,,,3,,,35,0
255520,note_on,1,0,4,,,,,,,,3,,,42,32
255679,note_on,159,0,4,,,,,,,,3,,,42,0
255680,note_on,1,0,4,,,,,,,,3,,,42,32
255730,set_tempo,331,1,0,,,,,,390219,,,,,,
255813,set_tempo,83,1,0,,,,,,391441,,,,,,
255839,note_on,159,0,4,,,,,,,,3,,,42,0
255840,note_on,1,0,4,,,,,,,,3,,,51,32
255999,note_on,159,0,4,,,,,,,,3,,,51,0
256000,note_on,1,0,4,,,,,,,,3,,,42,32
256159,note_on,159,0,4,,,,,,,,3,,,42,0
256160,note_on,1,0,4,,,,,,,,3,,,42,32
256319,note_on,159,0,4,,,,,,,,3,,,42,0
256320,note_on,1,0,4,,,,,,,,3,,,35,32
256479,note_on,159,0,4,,,,,,,,3,,,35,0
256480,note_on,1,0,4,,,,,,,,3,,,42,32
256639,note_on,159,0,4,,,,,,,,3,,,42,0
256640,note_on,1,0,4,,,,,,,,3,,,42,32
256690,set_tempo,877,1,0,,,,,,445898,,,,,,
256799,note_on,159,0,4,,,,,,,,3,,,42,0
256800,note_on,1,0,4,,,,,,,,3,,,51,32
256959,note_on,159,0,4,,,,,,,,3,,,51,0
256960,note_on,1,0,4,,,,,,,,3,,,42,32
257039,note_on,1679,0,1,,,,,,,,0,,,78,0
257039,note_on,0,0,1,,,,,,,,0,,,75,0
257039,note_on,0,0,1,,,,,,,,0,,,87,0
257040,note_on,1,0,1,,,,,,,,0,,,75,69
257040,note_on,0,0,1,,,,,,,,0,,,71,69
257040,note_on,0,0,1,,,,,,,,0,,,83,69
257119,note_on,159,0,4,,,,,,,,3,,,42,0
257120,note_on,1,0,4,,,,,,,,3,,,42,32
257256,note_on,216,0,1,,,,,,,,0,,,83,0
257256,note_on,0,0,1,,,,,,,,0,,,71,0
257256,note_on,0,0,1,,,,,,,,0,,,75,0
257264,note_on,144,0,4,,,,,,,,3,,,42,0
257280,note_on,0,0,1,,,,,,,,0,,,71,76
257280,note_on,0,0,1,,,,,,,,0,,,83,76
257280,note_on,24,0,1,,,,,,,,0,,,75,76
257280,note_on,16,0,4,,,,,,,,3,,,35,39
257439,note_on,159,0,4,,,,,,,,3,,,35,0
257440,note_on,1,0,4,,,,,,,,3,,,42,39
257599,note_on,159,0,4,,,,,,,,3,,,42,0
257600,note_on,1,0,4,,,,,,,,3,,,51,39
257759,note_on,0,0,1,,,,,,,,0,,,83,0
257759,note_on,479,0,1,,,,,,,,0,,,71,0
257759,note_on,0,0,1,,,,,,,,0,,,75,0
257759,note_on,159,0,4,,,,,,,,3,,,51,0
257760,note_on,0,0,1,,,,,,,,0,,,85,77
257760,note_on,0,0,1,,,,,,,,0,,,73,77
257760,note_on,1,0,4,,,,,,,,3,,,54,39
257760,note_on,1,0,1,,,,,,,,0,,,76,77
257766,set_tempo,1076,1,0,,,,,,522284,,,,,,
257855,note_on,0,0,1,,,,,,,,0,,,85,0
257855,note_on,95,0,1,,,,,,,,0,,,73,0
257855,note_on,0,0,1,,,,,,,,0,,,76,0
257893,control_change,38,0,1,,,,,,,,0,64,0,,
257919,note_on,159,0,4,,,,,,,,3,,,54,0
257920,note_on,1,0,4,,,,,,,,3,,,63,39
257933,control_change,40,0,1,,,,,,,,0,64,127,,
257947,control_change,27,0,4,,,,,,,,3,64,0,,
258000,note_on,0,0,1,,,,,,,,0,,,75,74
258000,note_on,0,0,1,,,,,,,,0,,,78,74
258000,control_change,53,0,4,,,,,,,,3,64,127,,
258000,note_on,67,0,1,,,,,,,,0,,,87,74
258047,set_tempo,281,1,0,,,,,,524476,,,,,,
258064,set_tempo,17,1,0,,,,,,517956,,,,,,
258079,note_on,79,0,4,,,,,,,,3,,,63,0
258080,note_on,1,0,4,,,,,,,,3,,,54,39
258095,note_on,0,0,1,,,,,,,,0,,,87,0
258095,note_on,95,0,1,,,,,,,,0,,,78,0
258095,note_on,0,0,1,,,,,,,,0,,,75,0
258097,set_tempo,33,1,0,,,,,,389004,,,,,,
258130,set_tempo,33,1,0,,,,,,390219,,,,,,
258163,set_tempo,33,1,0,,,,,,391441,,,,,,
258196,set_tempo,33,1,0,,,,,,392670,,,,,,
258229,set_tempo,33,1,0,,,,,,393908,,,,,,
258239,note_on,159,0,4,,,,,,,,3,,,54,0
258240,note_on,0,0,1,,,,,,,,0,,,76,71
258240,note_on,0,0,1,,,,,,,,0,,,73,71
258240,note_on,145,0,1,,,,,,,,0,,,85,71
258240,note_on,1,0,4,,,,,,,,3,,,35,39
258262,set_tempo,33,1,0,,,,,,395153,,,,,,
258295,set_tempo,33,1,0,,,,,,396406,,,,,,
258329,set_tempo,34,1,0,,,,,,397667,,,,,,
258362,set_tempo,33,1,0,,,,,,398936,,,,,,
258395,set_tempo,33,1,0,,,,,,400213,,,,,,
258399,note_on,159,0,4,,,,,,,,3,,,35,0
258400,note_on,1,0,4,,,,,,,,3,,,42,38
258428,set_tempo,33,1,0,,,,,,401499,,,,,,
258461,set_tempo,33,1,0,,,,,,402793,,,,,,
258494,set_tempo,33,1,0,,,,,,404095,,,,,,
258527,set_tempo,33,1,0,,,,,,405405,,,,,,
258559,note_on,159,0,4,,,,,,,,3,,,42,0
258560,set_tempo,33,1,0,,,,,,406725,,,,,,
258560,note_on,1,0,4,,,,,,,,3,,,52,38
258593,set_tempo,33,1,0,,,,,,408052,,,,,,
258626,set_tempo,33,1,0,,,,,,409389,,,,,,
258660,set_tempo,34,1,0,,,,,,410734,,,,,,
258693,set_tempo,33,1,0,,,,,,412088,,,,,,
258719,note_on,0,0,1,,,,,,,,0,,,85,0
258719,note_on,0,0,1,,,,,,,,0,,,73,0
258719,note_on,479,0,1,,,,,,,,0,,,76,0
258719,note_on,159,0,4,,,,,,,,3,,,52,0
258720,note_on,0,0,1,,,,,,,,0,,,71,70
258720,note_on,0,0,1,,,,,,,,0,,,83,70
258720,note_on,1,0,1,,,,,,,,0,,,75,70
258720,note_on,1,0,4,,,,,,,,3,,,54,38
258726,set_tempo,33,1,0,,,,,,413451,,,,,,
258742,set_tempo,16,1,0,,,,,,412088,,,,,,
258815,note_on,0,0,1,,,,,,,,0,,,75,0
258815,note_on,95,0,1,,,,,,,,0,,,83,0
258815,note_on,0,0,1,,,,,,,,0,,,71,0
258825,set_tempo,83,1,0,,,,,,418994,,,,,,
258842,set_tempo,17,1,0,,,,,,423251,,,,,,
258858,set_tempo,16,1,0,,,,,,429062,,,,,,
258875,set_tempo,17,1,0,,,,,,433526,,,,,,
258879,note_on,159,0,4,,,,,,,,3,,,54,0
258880,note_on,1,0,4,,,,,,,,3,,,66,38
258891,set_tempo,16,1,0,,,,,,439625,,,,,,
258893,control_change,78,0,1,,,,,,,,0,64,0,,
258908,set_tempo,17,1,0,,,,,,444313,,,,,,
258924,set_tempo,16,1,0,,,,,,449102,,,,,,
258941,set_tempo,17,1,0,,,,,,455650,,,,,,
258958,set_tempo,17,1,0,,,,,,460688,,,,,,
258960,note_on,0,0,1,,,,,,,,0,,,70,72
258960,note_on,0,0,1,,,,,,,,0,,,82,72
258960,note_on,67,0,1,,,,,,,,0,,,73,72
258960,control_change,80,0,4,,,,,,,,3,64,0,,
258974,set_tempo,16,1,0,,,,,,467581,,,,,,
258991,set_tempo,17,1,0,,,,,,472888,,,,,,
259007,set_tempo,16,1,0,,,,,,480154,,,,,,
259024,set_tempo,17,1,0,,,,,,485751,,,,,,
259039,note_on,79,0,4,,,,,,,,3,,,66,0
259040,note_on,1,0,4,,,,,,,,3,,,54,38
259040,set_tempo,16,1,0,,,,,,491481,,,,,,
259046,note_on,0,0,1,,,,,,,,0,,,82,0
259046,note_on,86,0,1,,,,,,,,0,,,70,0
259046,note_on,0,0,1,,,,,,,,0,,,73,0
259057,set_tempo,17,1,0,,,,,,499334,,,,,,
259073,set_tempo,16,1,0,,,,,,505391,,,,,,
259090,set_tempo,17,1,0,,,,,,513699,,,,,,
259106,set_tempo,16,1,0,,,,,,520111,,,,,,
259123,set_tempo,17,1,0,,,,,,526685,,,,,,
259140,set_tempo,17,1,0,,,,,,535714,,,,,,
259156,set_tempo,16,1,0,,,,,,542692,,,,,,
259173,set_tempo,17,1,0,,,,,,552283,,,,,,
259184,note_on,144,0,4,,,,,,,,3,,,54,0
259189,set_tempo,16,1,0,,,,,,559701,,,,,,
259200,note_on,0,0,4,,,,,,,,3,,,35,38
259200,control_change,16,0,4,,,,,,,,3,64,127,,
259200,note_on,0,0,1,,,,,,,,0,,,83,75
259200,note_on,0,0,1,,,,,,,,0,,,75,75
259200,control_change,154,0,1,,,,,,,,0,64,127,,
259200,control_change,17296,0,2,,,,,,,,1,64,127,,
259200,note_on,0,0,1,,,,,,,,0,,,71,75
259206,set_tempo,17,1,0,,,,,,482005,,,,,,
259359,note_on,159,0,4,,,,,,,,3,,,35,0
259360,note_on,1,0,4,,,,,,,,3,,,42,37
259440,note_on,240,0,2,,,,,,,,1,,,54,64
259440,note_on,0,0,2,,,,,,,,1,,,59,64
259519,note_on,159,0,4,,,,,,,,3,,,42,0
259520,note_on,1,0,4,,,,,,,,3,,,42,37
259526,note_on,86,0,2,,,,,,,,1,,,59,0
259526,note_on,0,0,2,,,,,,,,1,,,54,0
259537,set_tempo,331,1,0,,,,,,480154,,,,,,
259553,set_tempo,16,1,0,,,,,,474684,,,,,,
259570,set_tempo,17,1,0,,,,,,480154,,,,,,
259586,set_tempo,16,1,0,,,,,,485751,,,,,,
259603,set_tempo,17,1,0,,,,,,491481,,,,,,
259620,set_tempo,17,1,0,,,,,,495376,,,,,,
259636,set_tempo,16,1,0,,,,,,501337,,,,,,
259653,set_tempo,17,1,0,,,,,,507442,,,,,,
259669,set_tempo,16,1,0,,,,,,513699,,,,,,
259679,note_on,159,0,4,,,,,,,,3,,,42,0
259680,note_on,1,0,4,,,,,,,,3,,,51,37
259680,note_on,154,0,2,,,,,,,,1,,,66,64
259686,set_tempo,17,1,0,,,,,,520111,,,,,,
259702,set_tempo,16,1,0,,,,,,524476,,,,,,
259719,set_tempo,17,1,0,,,,,,531161,,,,,,
259735,set_tempo,16,1,0,,,,,,538020,,,,,,
259752,set_tempo,17,1,0,,,,,,545058,,,,,,
259766,note_on,86,0,2,,,,,,,,1,,,66,0
259769,set_tempo,17,1,0,,,,,,552283,,,,,,
259785,set_tempo,16,1,0,,,,,,557207,,,,,,
259802,set_tempo,17,1,0,,,,,,564759,,,,,,
259818,set_tempo,16,1,0,,,,,,572519,,,,,,
259835,set_tempo,17,1,0,,,,,,580495,,,,,,
259839,note_on,159,0,4,,,,,,,,3,,,51,0
259840,note_on,1,0,4,,,,,,,,3,,,42,37
259851,set_tempo,16,1,0,,,,,,585938,,,,,,
259868,set_tempo,17,1,0,,,,,,594295,,,,,,
259884,set_tempo,16,1,0,,,,,,602894,,,,,,
259901,set_tempo,17,1,0,,,,,,611746,,,,,,
259918,set_tempo,17,1,0,,,,,,620861,,,,,,
259920,note_on,0,0,2,,,,,,,,1,,,59,64
259920,note_on,154,0,2,,,,,,,,1,,,54,64
259934,set_tempo,16,1,0,,,,,,623960,,,,,,
259999,note_on,159,0,4,,,,,,,,3,,,42,0
260000,note_on,1,0,4,,,,,,,,3,,,42,37
260006,note_on,0,0,2,,,,,,,,1,,,54,0
260006,note_on,86,0,2,,,,,,,,1,,,59,0
260159,note_on,159,0,4,,,,,,,,3,,,42,0
260160,control_change,960,0,1,,,,,,,,0,64,0,,
260160,control_change,154,0,2,,,,,,,,1,64,0,,
260160,control_change,1,0,4,,,,,,,,3,64,0,,
260160,note_on,0,0,4,,,,,,,,3,,,35,37
260160,note_on,0,0,2,,,,,,,,1,,,63,64
260166,set_tempo,232,1,0,,,,,,614754,,,,,,
260199,set_tempo,33,1,0,,,,,,611746,,,,,,
260200,control_change,40,0,2,,,,,,,,1,64,127,,
260220,control_change,60,0,4,,,,,,,,3,64,127,,
260232,set_tempo,33,1,0,,,,,,608766,,,,,,
260246,note_on,46,0,2,,,,,,,,1,,,63,0
260265,set_tempo,33,1,0,,,,,,605816,,,,,,
260298,set_tempo,33,1,0,,,,,,602894,,,,,,
260315,set_tempo,17,1,0,,,,,,600000,,,,,,
260319,note_on,99,0,4,,,,,,,,3,,,35,0
260320,note_on,1,0,4,,,,,,,,3,,,42,36
260348,set_tempo,33,1,0,,,,,,597134,,,,,,
260360,control_change,200,0,1,,,,,,,,0,64,127,,
260381,set_tempo,33,1,0,,,,,,594295,,,,,,
260400,note_on,154,0,2,,,,,,,,1,,,54,64
260400,note_on,0,0,2,,,,,,,,1,,,59,64
260414,set_tempo,33,1,0,,,,,,591483,,,,,,
260431,set_tempo,17,1,0,,,,,,588697,,,,,,
260464,set_tempo,33,1,0,,,,,,585938,,,,,,
260479,note_on,159,0,4,,,,,,,,3,,,42,0
260480,note_on,1,0,4,,,,,,,,3,,,42,36
260486,note_on,0,0,2,,,,,,,,1,,,54,0
260486,note_on,86,0,2,,,,,,,,1,,,59,0
260497,set_tempo,33,1,0,,,,,,583204,,,,,,
260530,set_tempo,33,1,0,,,,,,580495,,,,,,
260546,set_tempo,16,1,0,,,,,,577812,,,,,,
260580,set_tempo,34,1,0,,,,,,575153,,,,,,
260613,set_tempo,33,1,0,,,,,,572519,,,,,,
260639,note_on,159,0,4,,,,,,,,3,,,42,0
260640,note_on,1,0,4,,,,,,,,3,,,51,36
260640,note_on,154,0,2,,,,,,,,1,,,66,64
260646,set_tempo,33,1,0,,,,,,569909,,,,,,
260662,set_tempo,16,1,0,,,,,,567322,,,,,,
260726,note_on,86,0,2,,,,,,,,1,,,66,0
260799,note_on,159,0,4,,,,,,,,3,,,51,0
260800,note_on,1,0,4,,,,,,,,3,,,42,36
260959,note_on,159,0,4,,,,,,,,3,,,42,0
260960,note_on,1,0,4,,,,,,,,3,,,42,36
260999,note_on,0,0,1,,,,,,,,0,,,75,0
260999,note_on,639,0,1,,,,,,,,0,,,83,0
260999,note_on,0,0,1,,,,,,,,0,,,71,0
261000,note_on,0,0,1,,,,,,,,0,,,78,72
261000,note_on,1,0,1,,,,,,,,0,,,87,72
261000,note_on,0,0,1,,,,,,,,0,,,75,72
261026,set_tempo,364,1,0,,,,,,515818,,,,,,
261076,set_tempo,50,1,0,,,,,,517956,,,,,,
261104,note_on,144,0,4,,,,,,,,3,,,42,0
261108,note_on,108,0,1,,,,,,,,0,,,78,0
261108,note_on,0,0,1,,,,,,,,0,,,75,0
261108,note_on,0,0,1,,,,,,,,0,,,87,0
261120,note_on,394,0,2,,,,,,,,1,,,83,75
261120,note_on,16,0,4,,,,,,,,3,,,35,36
261120,note_on,12,0,1,,,,,,,,0,,,90,76
261120,note_on,0,0,2,,,,,,,,1,,,75,75
261126,set_tempo,50,1,0,,,,,,520111,,,,,,
261175,set_tempo,49,1,0,,,,,,522284,,,,,,
261279,note_on,159,0,4,,,,,,,,3,,,35,0
261280,note_on,1,0,4,,,,,,,,3,,,42,36
261439,note_on,159,0,4,,,,,,,,3,,,42,0
261440,note_on,1,0,4,,,,,,,,3,,,51,35
261440,set_tempo,265,1,0,,,,,,522284,,,,,,
261503,note_on,0,0,2,,,,,,,,1,,,83,0
261503,note_on,383,0,2,,,,,,,,1,,,75,0
261599,note_on,159,0,4,,,,,,,,3,,,51,0
261600,note_on,1,0,4,,,,,,,,3,,,54,35
261640,control_change,137,0,2,,,,,,,,1,64,0,,
261707,control_change,587,0,1,,,,,,,,0,64,0,,
261755,set_tempo,315,1,0,,,,,,524476,,,,,,
261759,note_on,159,0,4,,,,,,,,3,,,54,0
261760,note_on,1,0,4,,,,,,,,3,,,63,35
261773,control_change,13,0,4,,,,,,,,3,64,0,,
261827,control_change,187,0,2,,,,,,,,1,64,127,,
261919,note_on,146,0,4,,,,,,,,3,,,63,0
261920,note_on,1,0,4,,,,,,,,3,,,54,35
261933,control_change,13,0,4,,,,,,,,3,64,127,,
262079,note_on,146,0,4,,,,,,,,3,,,54,0
262080,note_on,253,0,2,,,,,,,,1,,,85,70
262080,note_on,0,0,2,,,,,,,,1,,,82,70
262080,note_on,1,0,4,,,,,,,,3,,,35,35
262080,note_on,0,0,2,,,,,,,,1,,,76,70
262239,note_on,159,0,4,,,,,,,,3,,,35,0
262240,note_on,1,0,4,,,,,,,,3,,,42,35
262252,note_on,0,0,2,,,,,,,,1,,,85,0
262252,note_on,172,0,2,,,,,,,,1,,,76,0
262252,note_on,0,0,2,,,,,,,,1,,,82,0
262399,note_on,159,0,4,,,,,,,,3,,,42,0
262400,note_on,1,0,4,,,,,,,,3,,,52,34
262559,note_on,159,0,4,,,,,,,,3,,,52,0
262560,note_on,1,0,4,,,,,,,,3,,,54,34
262719,note_on,159,0,4,,,,,,,,3,,,54,0
262720,note_on,1,0,4,,,,,,,,3,,,66,34
262787,control_change,535,0,2,,,,,,,,1,64,0,,
262879,note_on,159,0,4,,,,,,,,3,,,66,0
262880,note_on,1,0,4,,,,,,,,3,,,54,34
262893,control_change,13,0,4,,,,,,,,3,64,0,,
262963,set_tempo,1208,1,0,,,,,,569909,,,,,,
263024,note_on,131,0,4,,,,,,,,3,,,54,0
263040,note_on,0,0,2,,,,,,,,1,,,75,64
263040,note_on,0,0,2,,,,,,,,1,,,83,64
263040,control_change,253,0,2,,,,,,,,1,64,127,,
263040,control_change,16,0,4,,,,,,,,3,64,127,,
263040,note_on,0,0,4,,,,,,,,3,,,35,34
263040,control_change,1333,0,1,,,,,,,,0,64,127,,
263199,note_on,159,0,4,,,,,,,,3,,,35,0
263200,note_on,1,0,4,,,,,,,,3,,,42,34
263359,note_on,159,0,4,,,,,,,,3,,,42,0
263360,note_on,1,0,4,,,,,,,,3,,,51,33
263476,set_tempo,513,1,0,,,,,,480154,,,,,,
263519,note_on,159,0,4,,,,,,,,3,,,51,0
263520,note_on,1,0,4,,,,,,,,3,,,54,33
263609,set_tempo,133,1,0,,,,,,478316,,,,,,
263615,note_on,575,0,2,,,,,,,,1,,,75,0
263615,note_on,0,0,2,,,,,,,,1,,,83,0
263679,note_on,159,0,4,,,,,,,,3,,,54,0
263680,note_on,1,0,4,,,,,,,,3,,,63,33
263724,set_tempo,115,1,0,,,,,,476493,,,,,,
263839,note_on,159,0,4,,,,,,,,3,,,63,0
263840,note_on,1,0,4,,,,,,,,3,,,54,33
263999,note_on,159,0,4,,,,,,,,3,,,54,0
264000,note_on,1,0,4,,,,,,,,3,,,35,33
264000,control_change,385,0,2,,,,,,,,1,64,0,,
264000,control_change,960,0,1,,,,,,,,0,64,0,,
264159,note_on,159,0,4,,,,,,,,3,,,35,0
264160,note_on,1,0,4,,,,,,,,3,,,42,33
264319,note_on,159,0,4,,,,,,,,3,,,42,0
264320,note_on,1,0,4,,,,,,,,3,,,50,33
264360,control_change,40,0,4,,,,,,,,3,64,0,,
264479,note_on,479,0,1,,,,,,,,0,,,90,0
264479,note_on,119,0,4,,,,,,,,3,,,50,0
264480,note_on,480,0,2,,,,,,,,1,,,71,64
264480,note_on,1,0,1,,,,,,,,0,,,71,76
264480,note_on,1,0,4,,,,,,,,3,,,51,42
264599,note_on,119,0,4,,,,,,,,3,,,51,0
264600,note_on,1,0,4,,,,,,,,3,,,52,46
264719,note_on,119,0,4,,,,,,,,3,,,52,0
264719,note_on,239,0,2,,,,,,,,1,,,71,0
264720,note_on,1,0,2,,,,,,,,1,,,59,64
264720,note_on,0,0,2,,,,,,,,1,,,63,64
264720,note_on,1,0,4,,,,,,,,3,,,53,51
264839,note_on,119,0,4,,,,,,,,3,,,53,0
264840,note_on,1,0,4,,,,,,,,3,,,54,57
264912,note_on,432,0,1,,,,,,,,0,,,71,0
264933,set_tempo,1209,1,0,,,,,,485751,,,,,,
264936,note_on,0,0,2,,,,,,,,1,,,59,0
264936,note_on,216,0,2,,,,,,,,1,,,63,0
264948,note_on,108,0,4,,,,,,,,3,,,54,0
264960,control_change,48,0,1,,,,,,,,0,64,127,,
264960,note_on,0,0,1,,,,,,,,0,,,70,76
264960,note_on,12,0,4,,,,,,,,3,,,55,62
264960,note_on,24,0,2,,,,,,,,1,,,70,64
264999,set_tempo,66,1,0,,,,,,487646,,,,,,
265065,set_tempo,66,1,0,,,,,,489556,,,,,,
265115,set_tempo,50,1,0,,,,,,491481,,,,,,
265119,note_on,159,0,4,,,,,,,,3,,,55,0
265120,note_on,1,0,4,,,,,,,,3,,,55,64
265181,set_tempo,66,1,0,,,,,,493421,,,,,,
265199,note_on,239,0,2,,,,,,,,1,,,70,0
265200,note_on,0,0,2,,,,,,,,1,,,64,64
265200,note_on,1,0,2,,,,,,,,1,,,61,64
265231,set_tempo,50,1,0,,,,,,495376,,,,,,
265279,note_on,159,0,4,,,,,,,,3,,,55,0
265280,note_on,1,0,4,,,,,,,,3,,,55,64
265297,set_tempo,66,1,0,,,,,,497347,,,,,,
265346,set_tempo,49,1,0,,,,,,499334,,,,,,
265413,set_tempo,67,1,0,,,,,,501337,,,,,,
265439,note_on,159,0,4,,,,,,,,3,,,55,0
265439,note_on,479,0,1,,,,,,,,0,,,70,0
265439,note_on,0,0,2,,,,,,,,1,,,61,0
265439,note_on,239,0,2,,,,,,,,1,,,64,0
265440,note_on,1,0,1,,,,,,,,0,,,73,76
265440,note_on,1,0,4,,,,,,,,3,,,54,64
265440,note_on,1,0,2,,,,,,,,1,,,70,64
265462,set_tempo,49,1,0,,,,,,503356,,,,,,
265529,set_tempo,67,1,0,,,,,,505391,,,,,,
265535,note_on,95,0,1,,,,,,,,0,,,73,0
265578,set_tempo,49,1,0,,,,,,507442,,,,,,
265599,note_on,159,0,4,,,,,,,,3,,,54,0
265600,note_on,1,0,4,,,,,,,,3,,,54,64
265644,set_tempo,66,1,0,,,,,,509511,,,,,,
265679,note_on,239,0,2,,,,,,,,1,,,70,0
265680,note_on,145,0,1,,,,,,,,0,,,73,76
265680,note_on,1,0,2,,,,,,,,1,,,65,64
265711,set_tempo,67,1,0,,,,,,511596,,,,,,
265759,note_on,159,0,4,,,,,,,,3,,,54,0
265760,set_tempo,49,1,0,,,,,,513699,,,,,,
265760,note_on,1,0,4,,,,,,,,3,,,54,64
265775,note_on,95,0,1,,,,,,,,0,,,73,0
265826,set_tempo,66,1,0,,,,,,515818,,,,,,
265876,set_tempo,50,1,0,,,,,,517956,,,,,,
265919,note_on,159,0,4,,,,,,,,3,,,54,0
265919,note_on,239,0,2,,,,,,,,1,,,65,0
265920,note_on,1,0,2,,,,,,,,1,,,61,64
265920,control_change,145,0,1,,,,,,,,0,64,0,,
265920,note_on,0,0,1,,,,,,,,0,,,70,69
265920,note_on,1,0,4,,,,,,,,3,,,53,64
265942,set_tempo,66,1,0,,,,,,520111,,,,,,
265992,set_tempo,50,1,0,,,,,,522284,,,,,,
266058,set_tempo,66,1,0,,,,,,524476,,,,,,
266079,note_on,159,0,4,,,,,,,,3,,,53,0
266080,note_on,1,0,4,,,,,,,,3,,,53,64
266108,set_tempo,50,1,0,,,,,,526685,,,,,,
266159,note_on,239,0,2,,,,,,,,1,,,61,0
266160,note_on,1,0,2,,,,,,,,1,,,58,64
266174,set_tempo,66,1,0,,,,,,528914,,,,,,
266224,set_tempo,50,1,0,,,,,,531161,,,,,,
266239,note_on,159,0,4,,,,,,,,3,,,53,0
266240,note_on,1,0,4,,,,,,,,3,,,53,64
266290,set_tempo,66,1,0,,,,,,533428,,,,,,
266356,set_tempo,66,1,0,,,,,,535714,,,,,,
266399,note_on,479,0,1,,,,,,,,0,,,70,0
266399,note_on,159,0,4,,,,,,,,3,,,53,0
266399,note_on,239,0,2,,,,,,,,1,,,58,0
266400,note_on,1,0,1,,,,,,,,0,,,66,76
266400,note_on,1,0,4,,,,,,,,3,,,52,67
266400,note_on,1,0,2,,,,,,,,1,,,66,64
266406,set_tempo,50,1,0,,,,,,538020,,,,,,
266472,set_tempo,66,1,0,,,,,,540346,,,,,,
266495,note_on,95,0,1,,,,,,,,0,,,66,0
266522,set_tempo,50,1,0,,,,,,542692,,,,,,
266559,note_on,159,0,4,,,,,,,,3,,,52,0
266560,note_on,1,0,4,,,,,,,,3,,,52,64
266588,set_tempo,66,1,0,,,,,,545058,,,,,,
266638,set_tempo,50,1,0,,,,,,547445,,,,,,
266639,note_on,239,0,2,,,,,,,,1,,,66,0
266640,note_on,1,0,2,,,,,,,,1,,,58,64
266640,note_on,145,0,1,,,,,,,,0,,,66,76
266640,note_on,0,0,2,,,,,,,,1,,,61,64
266704,set_tempo,66,1,0,,,,,,549853,,,,,,
266719,note_on,159,0,4,,,,,,,,3,,,52,0
266720,note_on,1,0,4,,,,,,,,3,,,52,62
266726,note_on,86,0,1,,,,,,,,0,,,66,0
266753,set_tempo,49,1,0,,,,,,552283,,,,,,
266820,set_tempo,67,1,0,,,,,,554734,,,,,,
266856,note_on,216,0,2,,,,,,,,1,,,61,0
266856,note_on,0,0,2,,,,,,,,1,,,58,0
266864,note_on,144,0,4,,,,,,,,3,,,52,0
266869,set_tempo,49,1,0,,,,,,564759,,,,,,
266880,note_on,24,0,2,,,,,,,,1,,,71,65
266880,control_change,154,0,1,,,,,,,,0,64,127,,
266880,note_on,16,0,4,,,,,,,,3,,,51,59
266880,note_on,0,0,1,,,,,,,,0,,,71,69
266935,set_tempo,66,1,0,,,,,,562219,,,,,,
266985,set_tempo,50,1,0,,,,,,559701,,,,,,
267035,set_tempo,50,1,0,,,,,,557207,,,,,,
267039,note_on,159,0,4,,,,,,,,3,,,51,0
267040,note_on,1,0,4,,,,,,,,3,,,51,57
267084,set_tempo,49,1,0,,,,,,554734,,,,,,
267119,note_on,239,0,2,,,,,,,,1,,,71,0
267120,note_on,1,0,2,,,,,,,,1,,,59,63
267120,note_on,0,0,2,,,,,,,,1,,,63,63
267134,set_tempo,50,1,0,,,,,,552283,,,,,,
267184,set_tempo,50,1,0,,,,,,549853,,,,,,
267199,note_on,159,0,4,,,,,,,,3,,,51,0
267200,note_on,1,0,4,,,,,,,,3,,,54,54
267233,set_tempo,49,1,0,,,,,,547445,,,,,,
267283,set_tempo,50,1,0,,,,,,545058,,,,,,
267333,set_tempo,50,1,0,,,,,,542692,,,,,,
267359,note_on,159,0,4,,,,,,,,3,,,54,0
267359,note_on,0,0,2,,,,,,,,1,,,59,0
267359,note_on,239,0,2,,,,,,,,1,,,63,0
267359,note_on,479,0,1,,,,,,,,0,,,71,0
267360,note_on,1,0,1,,,,,,,,0,,,75,76
267360,note_on,1,0,4,,,,,,,,3,,,47,51
267360,note_on,0,0,2,,,,,,,,1,,,66,61
267360,note_on,1,0,2,,,,,,,,1,,,63,61
267399,set_tempo,66,1,0,,,,,,540346,,,,,,
267449,set_tempo,50,1,0,,,,,,538020,,,,,,
267455,note_on,95,0,1,,,,,,,,0,,,75,0
267498,set_tempo,49,1,0,,,,,,535714,,,,,,
267519,note_on,159,0,4,,,,,,,,3,,,47,0
267520,note_on,1,0,4,,,,,,,,3,,,47,51
267548,set_tempo,50,1,0,,,,,,533428,,,,,,
267598,set_tempo,50,1,0,,,,,,531161,,,,,,
267599,note_on,239,0,2,,,,,,,,1,,,66,0
267599,note_on,0,0,2,,,,,,,,1,,,63,0
267600,note_on,145,0,1,,,,,,,,0,,,78,76
267600,note_on,1,0,2,,,,,,,,1,,,66,59
267600,note_on,0,0,2,,,,,,,,1,,,71,59
267647,set_tempo,49,1,0,,,,,,528914,,,,,,
267679,note_on,159,0,4,,,,,,,,3,,,47,0
267680,note_on,1,0,4,,,,,,,,3,,,51,51
267695,note_on,95,0,1,,,,,,,,0,,,78,0
267697,set_tempo,50,1,0,,,,,,526685,,,,,,
267746,set_tempo,49,1,0,,,,,,524476,,,,,,
267796,set_tempo,50,1,0,,,,,,522284,,,,,,
267839,note_on,0,0,2,,,,,,,,1,,,66,0
267839,note_on,159,0,4,,,,,,,,3,,,51,0
267839,note_on,239,0,2,,,,,,,,1,,,71,0
267840,note_on,1,0,2,,,,,,,,1,,,75,57
267840,note_on,1,0,4,,,,,,,,3,,,42,51
267840,control_change,145,0,1,,,,,,,,0,64,0,,
267840,note_on,0,0,1,,,,,,,,0,,,75,69
267862,set_tempo,66,1,0,,,,,,520111,,,,,,
267912,set_tempo,50,1,0,,,,,,517956,,,,,,
267962,set_tempo,50,1,0,,,,,,515818,,,,,,
267999,note_on,159,0,4,,,,,,,,3,,,42,0
268000,note_on,1,0,4,,,,,,,,3,,,42,51
268011,set_tempo,49,1,0,,,,,,513699,,,,,,
268061,set_tempo,50,1,0,,,,,,511596,,,,,,
268079,note_on,239,0,2,,,,,,,,1,,,75,0
268080,note_on,1,0,2,,,,,,,,1,,,63,55
268080,note_on,0,0,2,,,,,,,,1,,,66,55
268111,set_tempo,50,1,0,,,,,,509511,,,,,,
268159,note_on,159,0,4,,,,,,,,3,,,42,0
268160,set_tempo,49,1,0,,,,,,507442,,,,,,
268160,note_on,1,0,4,,,,,,,,3,,,47,51
268210,set_tempo,50,1,0,,,,,,505391,,,,,,
268260,set_tempo,50,1,0,,,,,,503356,,,,,,
268319,note_on,239,0,2,,,,,,,,1,,,66,0
268319,note_on,0,0,2,,,,,,,,1,,,63,0
268319,note_on,159,0,4,,,,,,,,3,,,47,0
268320,note_on,1,0,2,,,,,,,,1,,,71,53
268320,note_on,1,0,4,,,,,,,,3,,,39,51
268326,set_tempo,66,1,0,,,,,,501337,,,,,,
268375,set_tempo,49,1,0,,,,,,499334,,,,,,
268425,set_tempo,50,1,0,,,,,,497347,,,,,,
268475,set_tempo,50,1,0,,,,,,495376,,,,,,
268479,note_on,159,0,4,,,,,,,,3,,,39,0
268480,note_on,1,0,4,,,,,,,,3,,,39,49
268524,set_tempo,49,1,0,,,,,,493421,,,,,,
268559,note_on,719,0,1,,,,,,,,0,,,75,0
268559,note_on,239,0,2,,,,,,,,1,,,71,0
268560,note_on,1,0,1,,,,,,,,0,,,75,76
268560,note_on,0,0,2,,,,,,,,1,,,66,51
268560,note_on,1,0,2,,,,,,,,1,,,63,51
268574,set_tempo,50,1,0,,,,,,491481,,,,,,
268624,set_tempo,50,1,0,,,,,,489556,,,,,,
268639,note_on,159,0,4,,,,,,,,3,,,39,0
268640,note_on,1,0,4,,,,,,,,3,,,47,47
268673,set_tempo,49,1,0,,,,,,487646,,,,,,
268723,set_tempo,50,1,0,,,,,,485751,,,,,,
268773,set_tempo,50,1,0,,,,,,483871,,,,,,
268776,note_on,0,0,2,,,,,,,,1,,,63,0
268776,note_on,216,0,2,,,,,,,,1,,,66,0
268776,note_on,216,0,1,,,,,,,,0,,,75,0
268784,note_on,144,0,4,,,,,,,,3,,,47,0
268800,note_on,0,0,4,,,,,,,,3,,,35,40
268800,note_on,24,0,2,,,,,,,,1,,,76,49
268800,control_change,16,0,4,,,,,,,,3,64,127,,
268800,control_change,24,0,1,,,,,,,,0,64,127,,
268800,note_on,0,0,1,,,,,,,,0,,,76,71
268867,control_change,67,0,2,,,,,,,,1,64,127,,
268895,note_on,28,0,2,,,,,,,,1,,,76,0
268959,note_on,159,0,4,,,,,,,,3,,,35,0
268960,note_on,1,0,4,,,,,,,,3,,,44,40
268991,note_on,191,0,1,,,,,,,,0,,,76,0
269040,note_on,145,0,2,,,,,,,,1,,,64,47
269040,note_on,0,0,2,,,,,,,,1,,,68,47
269119,note_on,159,0,4,,,,,,,,3,,,44,0
269120,note_on,1,0,4,,,,,,,,3,,,47,40
269135,note_on,0,0,2,,,,,,,,1,,,64,0
269135,note_on,95,0,2,,,,,,,,1,,,68,0
269279,note_on,159,0,4,,,,,,,,3,,,47,0
269280,note_on,289,0,1,,,,,,,,0,,,71,83
269280,note_on,145,0,2,,,,,,,,1,,,71,40
269280,note_on,1,0,4,,,,,,,,3,,,52,40
269375,note_on,95,0,2,,,,,,,,1,,,71,0
269375,note_on,95,0,1,,,,,,,,0,,,71,0
269439,note_on,159,0,4,,,,,,,,3,,,52,0
269440,note_on,1,0,4,,,,,,,,3,,,59,40
269520,note_on,145,0,2,,,,,,,,1,,,64,40
269520,note_on,0,0,2,,,,,,,,1,,,68,40
269520,note_on,145,0,1,,,,,,,,0,,,71,82
269599,note_on,159,0,4,,,,,,,,3,,,59,0
269600,note_on,1,0,4,,,,,,,,3,,,56,40
269615,note_on,95,0,1,,,,,,,,0,,,71,0
269615,note_on,95,0,2,,,,,,,,1,,,68,0
269615,note_on,0,0,2,,,,,,,,1,,,64,0
269759,note_on,159,0,4,,,,,,,,3,,,56,0
269760,note_on,1,0,4,,,,,,,,3,,,35,40
269760,note_on,145,0,2,,,,,,,,1,,,71,38
269760,note_on,0,0,2,,,,,,,,1,,,76,38
269760,note_on,145,0,1,,,,,,,,0,,,80,80
269855,note_on,0,0,2,,,,,,,,1,,,71,0
269855,note_on,95,0,2,,,,,,,,1,,,76,0
269855,note_on,95,0,1,,,,,,,,0,,,80,0
269919,note_on,159,0,4,,,,,,,,3,,,35,0
269920,note_on,1,0,4,,,,,,,,3,,,44,39
270000,note_on,145,0,2,,,,,,,,1,,,68,42
270000,note_on,145,0,1,,,,,,,,0,,,76,78
270000,note_on,0,0,2,,,,,,,,1,,,71,42
270079,note_on,159,0,4,,,,,,,,3,,,44,0
270080,note_on,1,0,4,,,,,,,,3,,,47,38
270095,note_on,95,0,1,,,,,,,,0,,,76,0
270095,note_on,95,0,2,,,,,,,,1,,,71,0
270095,note_on,0,0,2,,,,,,,,1,,,68,0
270239,note_on,159,0,4,,,,,,,,3,,,47,0
270240,note_on,0,0,2,,,,,,,,1,,,68,47
270240,note_on,145,0,2,,,,,,,,1,,,64,47
270240,note_on,1,0,4,,,,,,,,3,,,52,38
270240,note_on,145,0,1,,,,,,,,0,,,71,76
270335,note_on,0,0,2,,,,,,,,1,,,64,0
270335,note_on,95,0,2,,,,,,,,1,,,68,0
270335,note_on,95,0,1,,,,,,,,0,,,71,0
270399,note_on,159,0,4,,,,,,,,3,,,52,0
270400,note_on,1,0,4,,,,,,,,3,,,59,37
270480,note_on,145,0,2,,,,,,,,1,,,59,51
270480,note_on,0,0,2,,,,,,,,1,,,64,51
270480,note_on,145,0,1,,,,,,,,0,,,68,74
270547,control_change,67,0,2,,,,,,,,1,64,0,,
270547,control_change,147,0,4,,,,,,,,3,64,0,,
270559,note_on,12,0,4,,,,,,,,3,,,59,0
270560,note_on,1,0,4,,,,,,,,3,,,56,36
270566,note_on,86,0,1,,,,,,,,0,,,68,0
270566,note_on,0,0,2,,,,,,,,1,,,59,0
270566,note_on,19,0,2,,,,,,,,1,,,64,0
270573,control_change,7,0,1,,,,,,,,0,64,0,,
270704,note_on,144,0,4,,,,,,,,3,,,56,0
270720,control_change,16,0,4,,,,,,,,3,64,127,,
270720,note_on,0,0,4,,,,,,,,3,,,35,35
270720,note_on,0,0,2,,,,,,,,1,,,66,55
270720,control_change,154,0,2,,,,,,,,1,64,127,,
270720,note_on,0,0,1,,,,,,,,0,,,66,72
270720,control_change,147,0,1,,,,,,,,0,64,127,,
270726,set_tempo,1953,1,0,,,,,,447494,,,,,,
270879,note_on,159,0,4,,,,,,,,3,,,35,0
270880,note_on,1,0,4,,,,,,,,3,,,42,35
270959,note_on,239,0,2,,,,,,,,1,,,66,0
270960,note_on,0,0,2,,,,,,,,1,,,63,59
270960,note_on,1,0,2,,,,,,,,1,,,59,59
271039,note_on,159,0,4,,,,,,,,3,,,42,0
271040,note_on,1,0,4,,,,,,,,3,,,47,32
271199,note_on,159,0,4,,,,,,,,3,,,47,0
271199,note_on,239,0,2,,,,,,,,1,,,63,0
271199,note_on,0,0,2,,,,,,,,1,,,59,0
271199,note_on,479,0,1,,,,,,,,0,,,66,0
271200,note_on,1,0,1,,,,,,,,0,,,71,76
271200,note_on,0,0,2,,,,,,,,1,,,66,58
271200,note_on,1,0,2,,,,,,,,1,,,63,58
271200,note_on,1,0,4,,,,,,,,3,,,51,32
271359,note_on,159,0,4,,,,,,,,3,,,51,0
271360,note_on,1,0,4,,,,,,,,3,,,59,32
271439,note_on,239,0,1,,,,,,,,0,,,71,0
271439,note_on,239,0,2,,,,,,,,1,,,66,0
271439,note_on,0,0,2,,,,,,,,1,,,63,0
271440,note_on,1,0,2,,,,,,,,1,,,66,53
271440,note_on,1,0,1,,,,,,,,0,,,75,76
271519,note_on,159,0,4,,,,,,,,3,,,59,0
271520,note_on,1,0,4,,,,,,,,3,,,54,32
271679,note_on,239,0,2,,,,,,,,1,,,66,0
271679,note_on,159,0,4,,,,,,,,3,,,54,0
271679,note_on,239,0,1,,,,,,,,0,,,75,0
271680,note_on,1,0,2,,,,,,,,1,,,71,47
271680,note_on,1,0,1,,,,,,,,0,,,71,76
271680,note_on,1,0,4,,,,,,,,3,,,35,32
271839,note_on,159,0,4,,,,,,,,3,,,35,0
271840,note_on,1,0,4,,,,,,,,3,,,42,32
271919,note_on,239,0,2,,,,,,,,1,,,71,0
271920,note_on,0,0,2,,,,,,,,1,,,66,42
271920,note_on,1,0,2,,,,,,,,1,,,63,42
271999,note_on,159,0,4,,,,,,,,3,,,42,0
272000,note_on,1,0,4,,,,,,,,3,,,51,32
272159,note_on,239,0,2,,,,,,,,1,,,66,0
272159,note_on,479,0,1,,,,,,,,0,,,71,0
272159,note_on,0,0,2,,,,,,,,1,,,63,0
272159,note_on,159,0,4,,,,,,,,3,,,51,0
272160,note_on,1,0,2,,,,,,,,1,,,75,49
272160,note_on,1,0,4,,,,,,,,3,,,54,32
272160,note_on,1,0,1,,,,,,,,0,,,87,76
272319,note_on,159,0,4,,,,,,,,3,,,54,0
272320,note_on,1,0,4,,,,,,,,3,,,63,32
272399,note_on,239,0,2,,,,,,,,1,,,75,0
272400,note_on,0,0,2,,,,,,,,1,,,66,60
272400,note_on,1,0,2,,,,,,,,1,,,59,60
272479,note_on,159,0,4,,,,,,,,3,,,63,0
272480,note_on,1,0,4,,,,,,,,3,,,59,32
272493,control_change,333,0,1,,,,,,,,0,64,0,,
272520,control_change,120,0,2,,,,,,,,1,64,0,,
272533,control_change,53,0,4,,,,,,,,3,64,0,,
272592,note_on,99,0,1,,,,,,,,0,,,87,0
272616,note_on,96,0,2,,,,,,,,1,,,66,0
272616,note_on,0,0,2,,,,,,,,1,,,59,0
272624,note_on,91,0,4,,,,,,,,3,,,59,0
272640,control_change,48,0,1,,,,,,,,0,64,127,,
272640,note_on,16,0,4,,,,,,,,3,,,35,32
272640,note_on,24,0,2,,,,,,,,1,,,88,57
272640,note_on,0,0,1,,,,,,,,0,,,88,76
272693,control_change,53,0,4,,,,,,,,3,64,127,,
272760,control_change,120,0,2,,,,,,,,1,64,127,,
272799,note_on,106,0,4,,,,,,,,3,,,35,0
272800,note_on,1,0,4,,,,,,,,3,,,44,32
272879,note_on,119,0,2,,,,,,,,1,,,88,0
272880,note_on,0,0,2,,,,,,,,1,,,71,50
272880,note_on,1,0,2,,,,,,,,1,,,80,50
272959,note_on,159,0,4,,,,,,,,3,,,44,0
272960,note_on,1,0,4,,,,,,,,3,,,52,32
273119,note_on,239,0,2,,,,,,,,1,,,71,0
273119,note_on,479,0,1,,,,,,,,0,,,88,0
273119,note_on,0,0,2,,,,,,,,1,,,80,0
273119,note_on,159,0,4,,,,,,,,3,,,52,0
273120,note_on,1,0,1,,,,,,,,0,,,83,75
273120,note_on,1,0,2,,,,,,,,1,,,76,41
273120,note_on,1,0,4,,,,,,,,3,,,56,32
273279,note_on,159,0,4,,,,,,,,3,,,56,0
273280,note_on,1,0,4,,,,,,,,3,,,64,32
273359,note_on,239,0,2,,,,,,,,1,,,76,0
273359,note_on,239,0,1,,,,,,,,0,,,83,0
273360,note_on,1,0,2,,,,,,,,1,,,76,40
273360,note_on,0,0,2,,,,,,,,1,,,68,40
273360,note_on,1,0,1,,,,,,,,0,,,83,73
273439,note_on,159,0,4,,,,,,,,3,,,64,0
273440,note_on,1,0,4,,,,,,,,3,,,59,32
273599,note_on,239,0,2,,,,,,,,1,,,68,0
273599,note_on,0,0,2,,,,,,,,1,,,76,0
273599,note_on,159,0,4,,,,,,,,3,,,59,0
273599,note_on,239,0,1,,,,,,,,0,,,83,0
273600,note_on,0,0,2,,,,,,,,1,,,88,66
273600,note_on,1,0,2,,,,,,,,1,,,91,66
273600,note_on,0,0,1,,,,,,,,0,,,83,71
273600,note_on,0,0,1,,,,,,,,0,,,91,71
273600,note_on,1,0,1,,,,,,,,0,,,88,71
273600,note_on,1,0,4,,,,,,,,3,,,35,32
273600,note_on,0,0,2,,,,,,,,1,,,83,66
273759,note_on,159,0,4,,,,,,,,3,,,35,0
273760,note_on,1,0,4,,,,,,,,3,,,44,32
273839,note_on,0,0,1,,,,,,,,0,,,91,0
273839,note_on,239,0,2,,,,,,,,1,,,83,0
273839,note_on,0,0,2,,,,,,,,1,,,88,0
273839,note_on,0,0,2,,,,,,,,1,,,91,0
273839,note_on,239,0,1,,,,,,,,0,,,83,0
273839,note_on,0,0,1,,,,,,,,0,,,88,0
273840,note_on,1,0,1,,,,,,,,0,,,83,69
273840,note_on,0,0,1,,,,,,,,0,,,88,69
273840,note_on,0,0,2,,,,,,,,1,,,80,62
273840,note_on,1,0,2,,,,,,,,1,,,88,62
273840,note_on,0,0,2,,,,,,,,1,,,83,62
273840,note_on,0,0,1,,,,,,,,0,,,80,69
273919,note_on,159,0,4,,,,,,,,3,,,44,0
273920,note_on,1,0,4,,,,,,,,3,,,52,32
274079,note_on,0,0,1,,,,,,,,0,,,88,0
274079,note_on,239,0,1,,,,,,,,0,,,80,0
274079,note_on,239,0,2,,,,,,,,1,,,80,0
274079,note_on,159,0,4,,,,,,,,3,,,52,0
274079,note_on,0,0,2,,,,,,,,1,,,88,0
274079,note_on,0,0,2,,,,,,,,1,,,83,0
274079,note_on,0,0,1,,,,,,,,0,,,83,0
274080,note_on,1,0,1,,,,,,,,0,,,83,66
274080,note_on,0,0,2,,,,,,,,1,,,76,56
274080,note_on,0,0,2,,,,,,,,1,,,80,56
274080,note_on,1,0,2,,,,,,,,1,,,83,56
274080,note_on,0,0,1,,,,,,,,0,,,80,66
274080,note_on,0,0,1,,,,,,,,0,,,76,66
274080,note_on,1,0,4,,,,,,,,3,,,56,32
274239,note_on,159,0,4,,,,,,,,3,,,56,0
274240,note_on,1,0,4,,,,,,,,3,,,64,32
274319,note_on,0,0,1,,,,,,,,0,,,83,0
274319,note_on,0,0,2,,,,,,,,1,,,83,0
274319,note_on,0,0,2,,,,,,,,1,,,80,0
274319,note_on,239,0,2,,,,,,,,1,,,76,0
274319,note_on,239,0,1,,,,,,,,0,,,80,0
274319,note_on,0,0,1,,,,,,,,0,,,76,0
274320,note_on,0,0,2,,,,,,,,1,,,71,52
274320,note_on,1,0,2,,,,,,,,1,,,80,52
274320,note_on,0,0,2,,,,,,,,1,,,76,52
274320,note_on,1,0,1,,,,,,,,0,,,80,64
274320,note_on,0,0,1,,,,,,,,0,,,71,64
274320,note_on,0,0,1,,,,,,,,0,,,76,64
274399,note_on,159,0,4,,,,,,,,3,,,64,0
274400,note_on,1,0,4,,,,,,,,3,,,59,32
274400,control_change,80,0,1,,,,,,,,0,64,0,,
274507,control_change,187,0,2,,,,,,,,1,64,0,,
274536,note_on,0,0,2,,,,,,,,1,,,76,0
274536,note_on,136,0,1,,,,,,,,0,,,76,0
274536,note_on,0,0,1,,,,,,,,0,,,71,0
274536,note_on,29,0,2,,,,,,,,1,,,71,0
274536,note_on,0,0,2,,,,,,,,1,,,80,0
274536,note_on,0,0,1,,,,,,,,0,,,80,0
274537,set_tempo,3811,1,0,,,,,,478316,,,,,,
274544,note_on,144,0,4,,,,,,,,3,,,59,0
274560,control_change,24,0,1,,,,,,,,0,64,127,,
274560,note_on,0,0,1,,,,,,,,0,,,78,62
274560,control_change,24,0,2,,,,,,,,1,64,127,,
274560,note_on,0,0,1,,,,,,,,0,,,75,62
274560,control_change,16,0,4,,,,,,,,3,64,0,,
274560,control_change,0,0,4,,,,,,,,3,64,127,,
274560,note_on,0,0,4,,,,,,,,3,,,35,51
274719,note_on,159,0,4,,,,,,,,3,,,35,0
274720,note_on,1,0,4,,,,,,,,3,,,42,51
274800,note_on,240,0,2,,,,,,,,1,,,66,64
274879,note_on,159,0,4,,,,,,,,3,,,42,0
274880,note_on,1,0,4,,,,,,,,3,,,51,51
275039,note_on,239,0,2,,,,,,,,1,,,66,0
275039,note_on,159,0,4,,,,,,,,3,,,51,0
275039,note_on,0,0,1,,,,,,,,0,,,75,0
275039,note_on,479,0,1,,,,,,,,0,,,78,0
275040,note_on,1,0,1,,,,,,,,0,,,83,76
275040,note_on,1,0,2,,,,,,,,1,,,75,64
275040,note_on,1,0,4,,,,,,,,3,,,54,40
275040,note_on,0,0,2,,,,,,,,1,,,71,64
275199,note_on,159,0,4,,,,,,,,3,,,54,0
275200,note_on,1,0,4,,,,,,,,3,,,63,40
275279,note_on,239,0,1,,,,,,,,0,,,83,0
275279,note_on,239,0,2,,,,,,,,1,,,71,0
275279,note_on,0,0,2,,,,,,,,1,,,75,0
275280,note_on,1,0,1,,,,,,,,0,,,87,76
275280,note_on,1,0,2,,,,,,,,1,,,78,64
275280,note_on,0,0,2,,,,,,,,1,,,75,64
275359,note_on,159,0,4,,,,,,,,3,,,63,0
275360,note_on,1,0,4,,,,,,,,3,,,59,40
275519,note_on,239,0,1,,,,,,,,0,,,87,0
275519,note_on,159,0,4,,,,,,,,3,,,59,0
275520,note_on,1,0,4,,,,,,,,3,,,35,40
275520,note_on,1,0,1,,,,,,,,0,,,83,76
275679,note_on,159,0,4,,,,,,,,3,,,35,0
275680,note_on,1,0,4,,,,,,,,3,,,42,40
275759,note_on,0,0,2,,,,,,,,1,,,78,0
275759,note_on,479,0,2,,,,,,,,1,,,75,0
275760,note_on,1,0,2,,,,,,,,1,,,75,64
275760,note_on,0,0,2,,,,,,,,1,,,71,64
275839,note_on,159,0,4,,,,,,,,3,,,42,0
275840,note_on,1,0,4,,,,,,,,3,,,47,40
275911,set_tempo,1374,1,0,,,,,,480154,,,,,,
275944,set_tempo,33,1,0,,,,,,478316,,,,,,
275977,set_tempo,33,1,0,,,,,,476493,,,,,,
275999,note_on,479,0,1,,,,,,,,0,,,83,0
275999,note_on,239,0,2,,,,,,,,1,,,71,0
275999,note_on,0,0,2,,,,,,,,1,,,75,0
275999,note_on,159,0,4,,,,,,,,3,,,47,0
276000,note_on,1,0,4,,,,,,,,3,,,48,40
276000,note_on,1,0,2,,,,,,,,1,,,63,64
276000,note_on,1,0,1,,,,,,,,0,,,75,76
276010,set_tempo,33,1,0,,,,,,474684,,,,,,
276027,control_change,27,0,2,,,,,,,,1,64,0,,
276043,set_tempo,33,1,0,,,,,,472888,,,,,,
276060,set_tempo,17,1,0,,,,,,471106,,,,,,
276093,control_change,93,0,4,,,,,,,,3,64,0,,
276093,set_tempo,33,1,0,,,,,,469337,,,,,,
276126,set_tempo,33,1,0,,,,,,467581,,,,,,
276159,note_on,66,0,4,,,,,,,,3,,,48,0
276159,note_on,132,0,2,,,,,,,,1,,,63,0
276159,set_tempo,33,1,0,,,,,,465839,,,,,,
276160,note_on,1,0,2,,,,,,,,1,,,66,69
276160,note_on,0,0,2,,,,,,,,1,,,71,69
276160,note_on,1,0,4,,,,,,,,3,,,49,40
276192,set_tempo,33,1,0,,,,,,464109,,,,,,
276209,set_tempo,17,1,0,,,,,,462392,,,,,,
276239,note_on,239,0,1,,,,,,,,0,,,75,0
276240,note_on,1,0,1,,,,,,,,0,,,75,76
276242,set_tempo,33,1,0,,,,,,460688,,,,,,
276275,set_tempo,33,1,0,,,,,,458996,,,,,,
276308,set_tempo,33,1,0,,,,,,457317,,,,,,
276319,note_on,159,0,2,,,,,,,,1,,,71,0
276319,note_on,159,0,4,,,,,,,,3,,,49,0
276319,note_on,0,0,2,,,,,,,,1,,,66,0
276320,note_on,1,0,2,,,,,,,,1,,,63,73
276320,note_on,1,0,4,,,,,,,,3,,,50,40
276341,set_tempo,33,1,0,,,,,,455650,,,,,,
276358,set_tempo,17,1,0,,,,,,453995,,,,,,
276360,control_change,120,0,1,,,,,,,,0,64,0,,
276391,set_tempo,33,1,0,,,,,,452352,,,,,,
276424,set_tempo,33,1,0,,,,,,450721,,,,,,
276440,control_change,120,0,2,,,,,,,,1,64,127,,
276440,control_change,80,0,1,,,,,,,,0,64,127,,
276456,note_on,16,0,1,,,,,,,,0,,,75,0
276457,set_tempo,33,1,0,,,,,,449102,,,,,,
276464,note_on,144,0,4,,,,,,,,3,,,50,0
276464,note_on,24,0,2,,,,,,,,1,,,63,0
276480,control_change,16,0,4,,,,,,,,3,64,127,,
276480,note_on,0,0,4,,,,,,,,3,,,63,40
276480,note_on,0,0,4,,,,,,,,3,,,51,40
276480,note_on,16,0,2,,,,,,,,1,,,63,79
276480,note_on,24,0,1,,,,,,,,0,,,75,76
276480,note_on,0,0,1,,,,,,,,0,,,63,76
276480,note_on,0,0,2,,,,,,,,1,,,75,79
276490,set_tempo,33,1,0,,,,,,447494,,,,,,
276507,set_tempo,17,1,0,,,,,,445898,,,,,,
276639,note_on,0,0,2,,,,,,,,1,,,63,0
276639,note_on,159,0,2,,,,,,,,1,,,75,0
276640,note_on,0,0,2,,,,,,,,1,,,73,51
276640,note_on,1,0,2,,,,,,,,1,,,67,51
276799,note_on,159,0,2,,,,,,,,1,,,73,0
276799,note_on,0,0,2,,,,,,,,1,,,67,0
276800,note_on,1,0,2,,,,,,,,1,,,63,51
276954,set_tempo,447,1,0,,,,,,414823,,,,,,
276959,note_on,0,0,4,,,,,,,,3,,,63,0
276959,note_on,479,0,4,,,,,,,,3,,,51,0
276959,note_on,159,0,2,,,,,,,,1,,,63,0
276960,note_on,0,0,4,,,,,,,,3,,,58,40
276960,note_on,0,0,4,,,,,,,,3,,,61,40
276960,note_on,1,0,4,,,,,,,,3,,,67,40
276960,note_on,1,0,2,,,,,,,,1,,,63,51
277119,note_on,159,0,2,,,,,,,,1,,,63,0
277120,note_on,1,0,2,,,,,,,,1,,,63,51
277199,note_on,239,0,4,,,,,,,,3,,,58,0
277199,note_on,0,0,4,,,,,,,,3,,,61,0
277199,note_on,0,0,4,,,,,,,,3,,,67,0
277200,note_on,1,0,4,,,,,,,,3,,,67,40
277200,note_on,0,0,4,,,,,,,,3,,,58,40
277200,note_on,0,0,4,,,,,,,,3,,,61,40
277279,note_on,159,0,2,,,,,,,,1,,,63,0
277280,note_on,1,0,2,,,,,,,,1,,,64,51
277401,set_tempo,447,1,0,,,,,,390219,,,,,,
277439,note_on,0,0,4,,,,,,,,3,,,61,0
277439,note_on,159,0,2,,,,,,,,1,,,64,0
277439,note_on,0,0,4,,,,,,,,3,,,67,0
277439,note_on,239,0,4,,,,,,,,3,,,58,0
277440,note_on,1,0,2,,,,,,,,1,,,63,51
277440,note_on,0,0,4,,,,,,,,3,,,58,40
277440,note_on,0,0,4,,,,,,,,3,,,61,40
277440,note_on,1,0,4,,,,,,,,3,,,67,40
277599,note_on,159,0,2,,,,,,,,1,,,63,0
277600,note_on,1,0,2,,,,,,,,1,,,63,51
277759,note_on,159,0,2,,,,,,,,1,,,63,0
277760,note_on,1,0,2,,,,,,,,1,,,67,51
277760,note_on,0,0,2,,,,,,,,1,,,73,51
277765,set_tempo,364,1,0,,,,,,389004,,,,,,
277897,set_tempo,132,1,0,,,,,,367287,,,,,,
277919,note_on,159,0,2,,,,,,,,1,,,73,0
277919,note_on,0,0,2,,,,,,,,1,,,67,0
277919,note_on,0,0,4,,,,,,,,3,,,67,0
277919,note_on,479,0,4,,,,,,,,3,,,58,0
277919,note_on,1439,0,1,,,,,,,,0,,,63,0
277919,note_on,0,0,1,,,,,,,,0,,,75,0
277919,note_on,0,0,4,,,,,,,,3,,,61,0
277920,note_on,0,0,4,,,,,,,,3,,,55,40
277920,note_on,1,0,1,,,,,,,,0,,,63,76
277920,note_on,1,0,2,,,,,,,,1,,,63,51
277920,note_on,0,0,2,,,,,,,,1,,,75,51
277920,note_on,0,0,1,,,,,,,,0,,,75,76
277920,note_on,1,0,4,,,,,,,,3,,,39,40
277920,note_on,0,0,4,,,,,,,,3,,,46,40
277930,set_tempo,33,1,0,,,,,,368369,,,,,,
277963,set_tempo,33,1,0,,,,,,369458,,,,,,
277980,set_tempo,17,1,0,,,,,,370553,,,,,,
278013,set_tempo,33,1,0,,,,,,371655,,,,,,
278046,set_tempo,33,1,0,,,,,,372763,,,,,,
278063,set_tempo,17,1,0,,,,,,373878,,,,,,
278079,note_on,159,0,2,,,,,,,,1,,,75,0
278079,note_on,0,0,2,,,,,,,,1,,,63,0
278080,note_on,1,0,2,,,,,,,,1,,,67,51
278080,note_on,0,0,2,,,,,,,,1,,,73,51
278096,set_tempo,33,1,0,,,,,,375000,,,,,,
278129,set_tempo,33,1,0,,,,,,376128,,,,,,
278145,set_tempo,16,1,0,,,,,,377264,,,,,,
278159,note_on,239,0,4,,,,,,,,3,,,55,0
278159,note_on,0,0,1,,,,,,,,0,,,63,0
278159,note_on,239,0,1,,,,,,,,0,,,75,0
278159,note_on,0,0,4,,,,,,,,3,,,39,0
278159,note_on,0,0,4,,,,,,,,3,,,46,0
278160,note_on,1,0,1,,,,,,,,0,,,76,76
278160,note_on,0,0,1,,,,,,,,0,,,64,76
278160,note_on,0,0,4,,,,,,,,3,,,55,40
278160,note_on,1,0,4,,,,,,,,3,,,39,40
278160,note_on,0,0,4,,,,,,,,3,,,46,40
278178,set_tempo,33,1,0,,,,,,378406,,,,,,
278195,set_tempo,17,1,0,,,,,,379555,,,,,,
278228,set_tempo,33,1,0,,,,,,380711,,,,,,
278239,note_on,0,0,2,,,,,,,,1,,,67,0
278239,note_on,159,0,2,,,,,,,,1,,,73,0
278240,control_change,80,0,1,,,,,,,,0,64,0,,
278240,note_on,1,0,2,,,,,,,,1,,,64,51
278240,note_on,0,0,2,,,,,,,,1,,,76,51
278261,set_tempo,33,1,0,,,,,,381874,,,,,,
278267,control_change,27,0,2,,,,,,,,1,64,0,,
278278,set_tempo,17,1,0,,,,,,383044,,,,,,
278280,control_change,120,0,4,,,,,,,,3,64,0,,
278311,set_tempo,33,1,0,,,,,,384221,,,,,,
278344,set_tempo,33,1,0,,,,,,385406,,,,,,
278361,set_tempo,17,1,0,,,,,,386598,,,,,,
278376,note_on,136,0,1,,,,,,,,0,,,64,0
278376,note_on,0,0,4,,,,,,,,3,,,39,0
278376,note_on,0,0,1,,,,,,,,0,,,76,0
278376,note_on,0,0,4,,,,,,,,3,,,46,0
278376,note_on,96,0,4,,,,,,,,3,,,55,0
278384,note_on,0,0,2,,,,,,,,1,,,64,0
278384,note_on,117,0,2,,,,,,,,1,,,76,0
278394,set_tempo,33,1,0,,,,,,387797,,,,,,
278400,control_change,24,0,1,,,,,,,,0,64,127,,
278400,note_on,0,0,1,,,,,,,,0,,,63,76
278400,note_on,0,0,1,,,,,,,,0,,,75,76
278400,note_on,0,0,2,,,,,,,,1,,,63,51
278400,control_change,16,0,2,,,,,,,,1,64,127,,
278400,control_change,24,0,4,,,,,,,,3,64,127,,
278400,note_on,0,0,4,,,,,,,,3,,,47,40
278400,note_on,0,0,4,,,,,,,,3,,,56,40
278400,note_on,0,0,4,,,,,,,,3,,,44,40
278410,set_tempo,16,1,0,,,,,,389004,,,,,,
278559,note_on,159,0,2,,,,,,,,1,,,63,0
278560,note_on,0,0,2,,,,,,,,1,,,71,51
278560,note_on,1,0,2,,,,,,,,1,,,68,51
278692,set_tempo,282,1,0,,,,,,367287,,,,,,
278719,note_on,0,0,2,,,,,,,,1,,,68,0
278719,note_on,159,0,2,,,,,,,,1,,,71,0
278720,note_on,1,0,2,,,,,,,,1,,,63,51
278879,note_on,479,0,4,,,,,,,,3,,,56,0
278879,note_on,0,0,4,,,,,,,,3,,,47,0
278879,note_on,0,0,4,,,,,,,,3,,,44,0
278879,note_on,159,0,2,,,,,,,,1,,,63,0
278880,note_on,0,0,4,,,,,,,,3,,,59,40
278880,note_on,1,0,4,,,,,,,,3,,,68,40
278880,note_on,1,0,2,,,,,,,,1,,,63,51
279039,note_on,159,0,2,,,,,,,,1,,,63,0
279040,note_on,1,0,2,,,,,,,,1,,,63,51
279056,set_tempo,364,1,0,,,,,,368369,,,,,,
279119,note_on,0,0,4,,,,,,,,3,,,68,0
279119,note_on,239,0,4,,,,,,,,3,,,59,0
279120,note_on,1,0,4,,,,,,,,3,,,68,40
279120,note_on,0,0,4,,,,,,,,3,,,59,40
279199,note_on,159,0,2,,,,,,,,1,,,63,0
279200,note_on,1,0,2,,,,,,,,1,,,64,51
279359,note_on,239,0,4,,,,,,,,3,,,59,0
279359,note_on,0,0,4,,,,,,,,3,,,68,0
279359,note_on,159,0,2,,,,,,,,1,,,64,0
279360,note_on,1,0,2,,,,,,,,1,,,63,51
279360,note_on,1,0,4,,,,,,,,3,,,68,40
279360,note_on,0,0,4,,,,,,,,3,,,59,40
279519,note_on,159,0,2,,,,,,,,1,,,63,0
279520,note_on,1,0,2,,,,,,,,1,,,63,51
279679,note_on,159,0,2,,,,,,,,1,,,63,0
279680,note_on,0,0,2,,,,,,,,1,,,71,51
279680,note_on,1,0,2,,,,,,,,1,,,68,51
279839,note_on,0,0,4,,,,,,,,3,,,68,0
279839,note_on,479,0,4,,,,,,,,3,,,59,0
279839,note_on,0,0,1,,,,,,,,0,,,63,0
279839,note_on,1439,0,1,,,,,,,,0,,,75,0
279839,note_on,159,0,2,,,,,,,,1,,,71,0
279839,note_on,0,0,2,,,,,,,,1,,,68,0
279840,note_on,0,0,4,,,,,,,,3,,,51,40
279840,note_on,1,0,2,,,,,,,,1,,,63,51
279840,note_on,1,0,1,,,,,,,,0,,,75,76
279840,note_on,0,0,4,,,,,,,,3,,,44,40
279840,note_on,1,0,4,,,,,,,,3,,,59,40
279840,note_on,0,0,1,,,,,,,,0,,,63,76
279999,note_on,159,0,2,,,,,,,,1,,,63,0
280000,note_on,0,0,2,,,,,,,,1,,,71,51
280000,note_on,1,0,2,,,,,,,,1,,,68,51
280079,note_on,239,0,4,,,,,,,,3,,,44,0
280079,note_on,0,0,4,,,,,,,,3,,,51,0
280079,note_on,0,0,4,,,,,,,,3,,,59,0
280080,note_on,1,0,4,,,,,,,,3,,,59,40
280080,note_on,0,0,4,,,,,,,,3,,,51,40
280080,note_on,0,0,4,,,,,,,,3,,,44,40
280159,note_on,0,0,1,,,,,,,,0,,,75,0
280159,note_on,319,0,1,,,,,,,,0,,,63,0
280159,note_on,159,0,2,,,,,,,,1,,,71,0
280159,note_on,0,0,2,,,,,,,,1,,,68,0
280160,note_on,1,0,1,,,,,,,,0,,,63,76
280160,note_on,1,0,2,,,,,,,,1,,,63,51
280160,note_on,0,0,1,,,,,,,,0,,,75,76
280213,control_change,53,0,1,,,,,,,,0,64,0,,
280213,control_change,133,0,4,,,,,,,,3,64,0,,
280296,note_on,0,0,4,,,,,,,,3,,,59,0
280296,note_on,83,0,4,,,,,,,,3,,,44,0
280296,note_on,0,0,4,,,,,,,,3,,,51,0
280304,note_on,91,0,1,,,,,,,,0,,,75,0
280304,note_on,0,0,1,,,,,,,,0,,,63,0
280304,note_on,144,0,2,,,,,,,,1,,,63,0
280320,control_change,16,0,1,,,,,,,,0,64,127,,
280320,note_on,0,0,1,,,,,,,,0,,,74,64
280320,note_on,0,0,1,,,,,,,,0,,,62,64
280320,note_on,0,0,4,,,,,,,,3,,,58,51
280320,control_change,24,0,4,,,,,,,,3,64,127,,
280320,note_on,0,0,4,,,,,,,,3,,,46,51
280320,control_change,16,0,2,,,,,,,,1,64,0,,
280320,control_change,0,0,2,,,,,,,,1,64,127,,
280320,note_on,0,0,2,,,,,,,,1,,,62,51
280320,note_on,0,0,4,,,,,,,,3,,,53,51
280479,note_on,159,0,2,,,,,,,,1,,,62,0
280480,note_on,1,0,2,,,,,,,,1,,,68,52
280480,note_on,0,0,2,,,,,,,,1,,,70,52
280639,note_on,159,0,2,,,,,,,,1,,,70,0
280639,note_on,0,0,2,,,,,,,,1,,,68,0
280640,note_on,1,0,2,,,,,,,,1,,,62,52
280799,note_on,0,0,4,,,,,,,,3,,,58,0
280799,note_on,159,0,2,,,,,,,,1,,,62,0
280799,note_on,0,0,4,,,,,,,,3,,,53,0
280799,note_on,479,0,4,,,,,,,,3,,,46,0
280800,note_on,1,0,4,,,,,,,,3,,,77,54
280800,note_on,0,0,4,,,,,,,,3,,,65,54
280800,note_on,0,0,2,,,,,,,,1,,,70,54
280800,note_on,1,0,2,,,,,,,,1,,,68,54
280959,note_on,0,0,2,,,,,,,,1,,,68,0
280959,note_on,159,0,2,,,,,,,,1,,,70,0
280960,note_on,1,0,2,,,,,,,,1,,,71,55
281119,note_on,159,0,2,,,,,,,,1,,,71,0
281120,note_on,1,0,2,,,,,,,,1,,,70,56
281279,note_on,159,0,2,,,,,,,,1,,,70,0
281279,note_on,959,0,1,,,,,,,,0,,,62,0
281279,note_on,479,0,4,,,,,,,,3,,,65,0
281279,note_on,0,0,4,,,,,,,,3,,,77,0
281279,note_on,0,0,1,,,,,,,,0,,,74,0
281280,control_change,1,0,1,,,,,,,,0,64,0,,
281280,note_on,0,0,1,,,,,,,,0,,,62,72
281280,note_on,0,0,1,,,,,,,,0,,,74,72
281280,note_on,0,0,4,,,,,,,,3,,,58,57
281280,note_on,1,0,2,,,,,,,,1,,,68,57
281280,note_on,0,0,4,,,,,,,,3,,,46,57
281280,control_change,1,0,4,,,,,,,,3,64,0,,
281439,note_on,159,0,2,,,,,,,,1,,,68,0
281440,note_on,1,0,2,,,,,,,,1,,,71,59
281599,note_on,159,0,2,,,,,,,,1,,,71,0
281600,note_on,1,0,2,,,,,,,,1,,,70,60
281712,note_on,0,0,1,,,,,,,,0,,,62,0
281712,note_on,432,0,1,,,,,,,,0,,,74,0
281759,note_on,0,0,4,,,,,,,,3,,,58,0
281759,note_on,479,0,4,,,,,,,,3,,,46,0
281759,note_on,159,0,2,,,,,,,,1,,,70,0
281760,note_on,1,0,4,,,,,,,,3,,,70,62
281760,note_on,0,0,4,,,,,,,,3,,,58,62
281760,note_on,1,0,2,,,,,,,,1,,,62,62
281760,note_on,0,0,2,,,,,,,,1,,,68,62
281919,note_on,0,0,2,,,,,,,,1,,,62,0
281919,note_on,159,0,2,,,,,,,,1,,,68,0
281920,note_on,1,0,2,,,,,,,,1,,,71,63
281999,note_on,239,0,4,,,,,,,,3,,,58,0
281999,note_on,0,0,4,,,,,,,,3,,,70,0
282000,note_on,1,0,4,,,,,,,,3,,,70,64
282000,note_on,0,0,4,,,,,,,,3,,,58,64
282067,control_change,147,0,2,,,,,,,,1,64,0,,
282079,note_on,12,0,2,,,,,,,,1,,,71,0
282080,note_on,0,0,2,,,,,,,,1,,,68,64
282080,note_on,1,0,2,,,,,,,,1,,,62,64
282216,note_on,0,0,4,,,,,,,,3,,,70,0
282216,note_on,216,0,4,,,,,,,,3,,,58,0
282224,note_on,0,0,2,,,,,,,,1,,,62,0
282224,note_on,144,0,2,,,,,,,,1,,,68,0
282240,note_on,0,0,4,,,,,,,,3,,,39,65
282240,note_on,0,0,1,,,,,,,,0,,,75,82
282240,note_on,528,0,1,,,,,,,,0,,,63,82
282240,note_on,16,0,2,,,,,,,,1,,,66,65
282240,note_on,24,0,4,,,,,,,,3,,,51,65
282399,note_on,159,0,2,,,,,,,,1,,,66,0
282400,note_on,1,0,2,,,,,,,,1,,,71,67
282559,note_on,159,0,2,,,,,,,,1,,,71,0
282560,note_on,1,0,2,,,,,,,,1,,,70,68
282719,note_on,0,0,4,,,,,,,,3,,,51,0
282719,note_on,0,0,1,,,,,,,,0,,,63,0
282719,note_on,479,0,1,,,,,,,,0,,,75,0
282719,note_on,479,0,4,,,,,,,,3,,,39,0
282719,note_on,159,0,2,,,,,,,,1,,,70,0
282720,note_on,1,0,4,,,,,,,,3,,,58,69
282720,note_on,0,0,1,,,,,,,,0,,,78,87
282720,note_on,1,0,1,,,,,,,,0,,,66,87
282720,note_on,1,0,2,,,,,,,,1,,,66,69
282879,note_on,159,0,4,,,,,,,,3,,,58,0
282879,note_on,159,0,2,,,,,,,,1,,,66,0
282880,note_on,1,0,4,,,,,,,,3,,,59,70
282880,note_on,1,0,2,,,,,,,,1,,,71,70
283039,note_on,159,0,4,,,,,,,,3,,,59,0
283039,note_on,159,0,2,,,,,,,,1,,,71,0
283040,note_on,1,0,4,,,,,,,,3,,,58,72
283040,note_on,1,0,2,,,,,,,,1,,,70,72
283199,note_on,159,0,4,,,,,,,,3,,,58,0
283199,note_on,479,0,1,,,,,,,,0,,,78,0
283199,note_on,159,0,2,,,,,,,,1,,,70,0
283199,note_on,0,0,1,,,,,,,,0,,,66,0
283200,note_on,1,0,2,,,,,,,,1,,,66,73
283200,note_on,1,0,1,,,,,,,,0,,,75,92
283200,note_on,1,0,4,,,,,,,,3,,,54,73
283200,note_on,0,0,1,,,,,,,,0,,,63,92
283359,note_on,159,0,4,,,,,,,,3,,,54,0
283359,note_on,159,0,2,,,,,,,,1,,,66,0
283360,note_on,1,0,4,,,,,,,,3,,,59,75
283360,note_on,1,0,2,,,,,,,,1,,,71,75
283519,note_on,159,0,2,,,,,,,,1,,,71,0
283519,note_on,159,0,4,,,,,,,,3,,,59,0
283520,note_on,1,0,4,,,,,,,,3,,,58,76
283520,note_on,1,0,2,,,,,,,,1,,,70,76
283664,note_on,144,0,2,,,,,,,,1,,,70,0
283671,set_tempo,4615,1,0,,,,,,368369,,,,,,
283679,note_on,159,0,4,,,,,,,,3,,,58,0
283680,note_on,1,0,4,,,,,,,,3,,,51,77
283704,set_tempo,33,1,0,,,,,,369458,,,,,,
283737,set_tempo,33,1,0,,,,,,370553,,,,,,
283753,set_tempo,16,1,0,,,,,,371655,,,,,,
283786,set_tempo,33,1,0,,,,,,372763,,,,,,
283820,set_tempo,34,1,0,,,,,,373878,,,,,,
283836,set_tempo,16,1,0,,,,,,375000,,,,,,
283839,note_on,159,0,4,,,,,,,,3,,,51,0
283840,note_on,1,0,4,,,,,,,,3,,,59,78
283869,set_tempo,33,1,0,,,,,,376128,,,,,,
283902,set_tempo,33,1,0,,,,,,377264,,,,,,
283919,set_tempo,17,1,0,,,,,,378406,,,,,,
283952,set_tempo,33,1,0,,,,,,379555,,,,,,
283985,set_tempo,33,1,0,,,,,,380711,,,,,,
283999,note_on,799,0,1,,,,,,,,0,,,63,0
283999,note_on,0,0,1,,,,,,,,0,,,75,0
284000,note_on,160,0,4,,,,,,,,3,,,63,80
284000,note_on,0,0,1,,,,,,,,0,,,75,100
284000,note_on,1,0,1,,,,,,,,0,,,87,100
284002,set_tempo,17,1,0,,,,,,381874,,,,,,
284035,set_tempo,33,1,0,,,,,,383044,,,,,,
284068,set_tempo,33,1,0,,,,,,384221,,,,,,
284084,set_tempo,16,1,0,,,,,,385406,,,,,,
284118,set_tempo,34,1,0,,,,,,386598,,,,,,
284134,set_tempo,16,1,0,,,,,,387797,,,,,,
284144,note_on,144,0,1,,,,,,,,0,,,75,0
284144,note_on,0,0,1,,,,,,,,0,,,87,0
284160,control_change,160,0,4,,,,,,,,3,64,127,,
284160,control_change,496,0,2,,,,,,,,1,64,127,,
284160,note_on,0,0,2,,,,,,,,1,,,79,77
284160,note_on,0,0,1,,,,,,,,0,,,79,102
284160,control_change,16,0,1,,,,,,,,0,64,127,,
284160,note_on,0,0,1,,,,,,,,0,,,91,102
284160,note_on,0,0,4,,,,,,,,3,,,67,64
284319,note_on,159,0,2,,,,,,,,1,,,79,0
284320,note_on,0,0,2,,,,,,,,1,,,82,76
284320,note_on,1,0,2,,,,,,,,1,,,87,76
284399,note_on,239,0,4,,,,,,,,3,,,67,0
284399,note_on,0,0,4,,,,,,,,3,,,59,0
284399,note_on,0,0,4,,,,,,,,3,,,63,0
284400,note_on,1,0,4,,,,,,,,3,,,39,64
284479,note_on,0,0,2,,,,,,,,1,,,87,0
284479,note_on,159,0,2,,,,,,,,1,,,82,0
284480,note_on,0,0,2,,,,,,,,1,,,82,76
284480,note_on,1,0,2,,,,,,,,1,,,87,76
284639,note_on,239,0,4,,,,,,,,3,,,39,0
284639,note_on,159,0,2,,,,,,,,1,,,82,0
284639,note_on,0,0,1,,,,,,,,0,,,79,0
284639,note_on,479,0,1,,,,,,,,0,,,91,0
284639,note_on,0,0,2,,,,,,,,1,,,87,0
284640,note_on,1,0,4,,,,,,,,3,,,63,64
284640,note_on,0,0,4,,,,,,,,3,,,58,64
284640,note_on,0,0,4,,,,,,,,3,,,55,64
284640,note_on,0,0,1,,,,,,,,0,,,87,102
284640,note_on,1,0,1,,,,,,,,0,,,75,102
284640,note_on,1,0,2,,,,,,,,1,,,75,75
284799,note_on,159,0,2,,,,,,,,1,,,75,0
284800,note_on,1,0,2,,,,,,,,1,,,82,74
284800,note_on,0,0,2,,,,,,,,1,,,79,74
284879,note_on,0,0,4,,,,,,,,3,,,63,0
284879,note_on,0,0,4,,,,,,,,3,,,58,0
284879,note_on,239,0,4,,,,,,,,3,,,55,0
284880,note_on,1,0,4,,,,,,,,3,,,43,64
284959,note_on,159,0,2,,,,,,,,1,,,79,0
284959,note_on,0,0,2,,,,,,,,1,,,82,0
284960,note_on,1,0,2,,,,,,,,1,,,82,73
284960,note_on,0,0,2,,,,,,,,1,,,79,73
285119,note_on,159,0,2,,,,,,,,1,,,79,0
285119,note_on,0,0,2,,,,,,,,1,,,82,0
285119,note_on,239,0,4,,,,,,,,3,,,43,0
285119,note_on,479,0,1,,,,,,,,0,,,87,0
285119,note_on,0,0,1,,,,,,,,0,,,75,0
285120,note_on,0,0,4,,,,,,,,3,,,59,64
285120,note_on,0,0,4,,,,,,,,3,,,62,64
285120,control_change,1,0,4,,,,,,,,3,64,0,,
285120,note_on,0,0,1,,,,,,,,0,,,86,102
285120,note_on,0,0,1,,,,,,,,0,,,74,102
285120,note_on,0,0,4,,,,,,,,3,,,53,64
285120,note_on,0,0,2,,,,,,,,1,,,74,72
285120,control_change,1,0,2,,,,,,,,1,64,0,,
285120,control_change,1,0,1,,,,,,,,0,64,0,,
285160,control_change,40,0,1,,,,,,,,0,64,127,,
285173,control_change,53,0,2,,,,,,,,1,64,127,,
285173,control_change,53,0,4,,,,,,,,3,64,127,,
285279,note_on,106,0,2,,,,,,,,1,,,74,0
285280,note_on,0,0,2,,,,,,,,1,,,77,71
285280,note_on,1,0,2,,,,,,,,1,,,83,71
285359,note_on,186,0,4,,,,,,,,3,,,53,0
285359,note_on,0,0,4,,,,,,,,3,,,59,0
285359,note_on,0,0,4,,,,,,,,3,,,62,0
285360,note_on,1,0,4,,,,,,,,3,,,44,64
285439,note_on,0,0,2,,,,,,,,1,,,83,0
285439,note_on,159,0,2,,,,,,,,1,,,77,0
285440,note_on,0,0,2,,,,,,,,1,,,77,70
285440,note_on,1,0,2,,,,,,,,1,,,83,70
285599,note_on,439,0,1,,,,,,,,0,,,86,0
285599,note_on,239,0,4,,,,,,,,3,,,44,0
285599,note_on,0,0,2,,,,,,,,1,,,83,0
285599,note_on,159,0,2,,,,,,,,1,,,77,0
285599,note_on,0,0,1,,,,,,,,0,,,74,0
285600,note_on,0,0,1,,,,,,,,0,,,83,102
285600,note_on,1,0,2,,,,,,,,1,,,71,70
285600,note_on,0,0,4,,,,,,,,3,,,53,64
285600,note_on,1,0,1,,,,,,,,0,,,71,102
285600,note_on,1,0,4,,,,,,,,3,,,59,64
285600,note_on,0,0,4,,,,,,,,3,,,50,64
285759,note_on,159,0,2,,,,,,,,1,,,71,0
285760,note_on,1,0,2,,,,,,,,1,,,79,69
285760,note_on,0,0,2,,,,,,,,1,,,74,69
285839,note_on,239,0,4,,,,,,,,3,,,50,0
285839,note_on,0,0,4,,,,,,,,3,,,59,0
285839,note_on,0,0,4,,,,,,,,3,,,53,0
285840,note_on,1,0,4,,,,,,,,3,,,43,64
285919,note_on,0,0,2,,,,,,,,1,,,79,0
285919,note_on,159,0,2,,,,,,,,1,,,74,0
285920,note_on,1,0,2,,,,,,,,1,,,79,68
285920,note_on,0,0,2,,,,,,,,1,,,74,68
286032,note_on,0,0,1,,,,,,,,0,,,71,0
286032,note_on,432,0,1,,,,,,,,0,,,83,0
286056,note_on,216,0,4,,,,,,,,3,,,43,0
286064,note_on,144,0,2,,,,,,,,1,,,74,0
286064,note_on,0,0,2,,,,,,,,1,,,79,0
286080,note_on,0,0,4,,,,,,,,3,,,55,102
286080,note_on,0,0,4,,,,,,,,3,,,48,102
286080,note_on,24,0,4,,,,,,,,3,,,63,102
286080,note_on,0,0,1,,,,,,,,0,,,75,94
286080,note_on,0,0,1,,,,,,,,0,,,87,94
286080,note_on,48,0,1,,,,,,,,0,,,79,94
286120,control_change,40,0,1,,,,,,,,0,64,0,,
286133,control_change,69,0,2,,,,,,,,1,64,0,,
286133,control_change,53,0,4,,,,,,,,3,64,0,,
286147,control_change,27,0,1,,,,,,,,0,64,127,,
286160,control_change,27,0,4,,,,,,,,3,64,127,,
286239,note_on,92,0,1,,,,,,,,0,,,75,0
286239,note_on,0,0,1,,,,,,,,0,,,87,0
286239,note_on,0,0,1,,,,,,,,0,,,79,0
286240,note_on,0,0,1,,,,,,,,0,,,84,92
286240,note_on,0,0,1,,,,,,,,0,,,72,92
286240,note_on,1,0,1,,,,,,,,0,,,75,92
286399,note_on,159,0,1,,,,,,,,0,,,72,0
286399,note_on,0,0,1,,,,,,,,0,,,84,0
286399,note_on,0,0,1,,,,,,,,0,,,75,0
286400,note_on,1,0,1,,,,,,,,0,,,84,91
286400,note_on,0,0,1,,,,,,,,0,,,72,91
286400,note_on,0,0,1,,,,,,,,0,,,75,91
286559,note_on,0,0,4,,,,,,,,3,,,63,0
286559,note_on,0,0,4,,,,,,,,3,,,55,0
286559,note_on,399,0,4,,,,,,,,3,,,48,0
286559,note_on,0,0,1,,,,,,,,0,,,72,0
286559,note_on,0,0,1,,,,,,,,0,,,84,0
286559,note_on,159,0,1,,,,,,,,0,,,75,0
286560,note_on,1,0,4,,,,,,,,3,,,36,98
286560,note_on,0,0,4,,,,,,,,3,,,43,98
286560,note_on,0,0,1,,,,,,,,0,,,75,89
286560,note_on,0,0,1,,,,,,,,0,,,72,89
286560,note_on,1,0,1,,,,,,,,0,,,84,89
286560,note_on,0,0,4,,,,,,,,3,,,48,98
286719,note_on,159,0,4,,,,,,,,3,,,48,0
286719,note_on,159,0,1,,,,,,,,0,,,75,0
286719,note_on,0,0,1,,,,,,,,0,,,72,0
286719,note_on,0,0,1,,,,,,,,0,,,84,0
286719,note_on,0,0,4,,,,,,,,3,,,43,0
286719,note_on,0,0,4,,,,,,,,3,,,36,0
286720,note_on,0,0,4,,,,,,,,3,,,43,97
286720,note_on,1,0,4,,,,,,,,3,,,36,97
286720,note_on,0,0,4,,,,,,,,3,,,48,97
286720,note_on,0,0,1,,,,,,,,0,,,67,87
286720,note_on,1,0,1,,,,,,,,0,,,75,87
286720,note_on,0,0,1,,,,,,,,0,,,79,87
286879,note_on,159,0,4,,,,,,,,3,,,48,0
286879,note_on,0,0,4,,,,,,,,3,,,43,0
286879,note_on,159,0,1,,,,,,,,0,,,79,0
286879,note_on,0,0,4,,,,,,,,3,,,36,0
286879,note_on,0,0,1,,,,,,,,0,,,75,0
286879,note_on,0,0,1,,,,,,,,0,,,67,0
286880,note_on,1,0,1,,,,,,,,0,,,75,85
286880,note_on,0,0,4,,,,,,,,3,,,48,96
286880,note_on,0,0,1,,,,,,,,0,,,79,85
286880,note_on,0,0,4,,,,,,,,3,,,43,96
286880,note_on,1,0,4,,,,,,,,3,,,36,96
286880,note_on,0,0,1,,,,,,,,0,,,67,85
287039,note_on,0,0,1,,,,,,,,0,,,79,0
287039,note_on,0,0,1,,,,,,,,0,,,75,0
287039,note_on,159,0,1,,,,,,,,0,,,67,0
287039,note_on,0,0,4,,,,,,,,3,,,36,0
287039,note_on,159,0,4,,,,,,,,3,,,48,0
287039,note_on,0,0,4,,,,,,,,3,,,43,0
287040,note_on,0,0,1,,,,,,,,0,,,79,83
287040,note_on,1,0,1,,,,,,,,0,,,75,83
287040,note_on,0,0,1,,,,,,,,0,,,67,83
287040,note_on,0,0,4,,,,,,,,3,,,48,94
287040,note_on,1,0,4,,,,,,,,3,,,36,94
287040,note_on,0,0,4,,,,,,,,3,,,43,94
287199,note_on,159,0,1,,,,,,,,0,,,67,0
287199,note_on,0,0,4,,,,,,,,3,,,43,0
287199,note_on,0,0,4,,,,,,,,3,,,36,0
287199,note_on,0,0,1,,,,,,,,0,,,79,0
287199,note_on,159,0,4,,,,,,,,3,,,48,0
287199,note_on,0,0,1,,,,,,,,0,,,75,0
287200,note_on,1,0,1,,,,,,,,0,,,75,82
287200,note_on,1,0,4,,,,,,,,3,,,48,93
287200,note_on,0,0,1,,,,,,,,0,,,67,82
287200,note_on,0,0,1,,,,,,,,0,,,63,82
287200,note_on,0,0,4,,,,,,,,3,,,55,93
287200,note_on,0,0,4,,,,,,,,3,,,60,93
287359,note_on,0,0,1,,,,,,,,0,,,75,0
287359,note_on,159,0,4,,,,,,,,3,,,60,0
287359,note_on,0,0,4,,,,,,,,3,,,55,0
287359,note_on,0,0,4,,,,,,,,3,,,48,0
287359,note_on,159,0,1,,,,,,,,0,,,67,0
287359,note_on,0,0,1,,,,,,,,0,,,63,0
287360,note_on,1,0,4,,,,,,,,3,,,48,92
287360,note_on,0,0,4,,,,,,,,3,,,55,92
287360,note_on,0,0,4,,,,,,,,3,,,60,92
287360,note_on,0,0,1,,,,,,,,0,,,63,80
287360,note_on,1,0,1,,,,,,,,0,,,75,80
287360,note_on,0,0,1,,,,,,,,0,,,67,80
287519,note_on,159,0,1,,,,,,,,0,,,67,0
287519,note_on,0,0,1,,,,,,,,0,,,63,0
287519,note_on,159,0,4,,,,,,,,3,,,60,0
287519,note_on,0,0,4,,,,,,,,3,,,55,0
287519,note_on,0,0,4,,,,,,,,3,,,48,0
287519,note_on,0,0,1,,,,,,,,0,,,75,0
287520,note_on,0,0,1,,,,,,,,0,,,63,78
287520,note_on,1,0,1,,,,,,,,0,,,67,78
287520,note_on,0,0,4,,,,,,,,3,,,48,91
287520,note_on,0,0,4,,,,,,,,3,,,55,91
287520,note_on,1,0,4,,,,,,,,3,,,60,91
287520,note_on,0,0,1,,,,,,,,0,,,75,78
287577,note_on,0,0,4,,,,,,,,3,,,60,0
287577,note_on,0,0,4,,,,,,,,3,,,55,0
287577,note_on,57,0,4,,,,,,,,3,,,48,0
287663,note_on,143,0,1,,,,,,,,0,,,63,0
287663,note_on,0,0,1,,,,,,,,0,,,75,0
287663,note_on,0,0,1,,,,,,,,0,,,67,0
287867,control_change,204,0,1,,,,,,,,0,64,0,,
287880,note_on,303,0,4,,,,,,,,3,,,60,92
287880,note_on,0,0,1,,,,,,,,0,,,84,93
287880,note_on,13,0,1,,,,,,,,0,,,72,93
287907,control_change,27,0,4,,,,,,,,3,64,0,,
287988,note_on,0,0,1,,,,,,,,0,,,72,0
287988,note_on,108,0,1,,,,,,,,0,,,84,0
287988,note_on,81,0,4,,,,,,,,3,,,60,0
288000,note_on,0,0,1,,,,,,,,0,,,75,102
288000,note_on,0,0,4,,,,,,,,3,,,60,64
288000,note_on,0,0,4,,,,,,,,3,,,63,64
288000,control_change,12,0,4,,,,,,,,3,64,127,,
288000,note_on,0,0,4,,,,,,,,3,,,56,64
288000,note_on,0,0,2,,,,,,,,1,,,75,76
288000,note_on,0,0,1,,,,,,,,0,,,87,102
288000,control_change,12,0,1,,,,,,,,0,64,127,,
288000,control_change,1867,0,2,,,,,,,,1,64,127,,
288159,note_on,159,0,2,,,,,,,,1,,,75,0
288160,note_on,0,0,2,,,,,,,,1,,,84,75
288160,note_on,1,0,2,,,,,,,,1,,,87,75
288239,note_on,0,0,4,,,,,,,,3,,,63,0
288239,note_on,0,0,4,,,,,,,,3,,,60,0
288239,note_on,239,0,4,,,,,,,,3,,,56,0
288240,note_on,1,0,4,,,,,,,,3,,,44,64
288319,note_on,159,0,2,,,,,,,,1,,,84,0
288319,note_on,0,0,2,,,,,,,,1,,,87,0
288320,note_on,1,0,2,,,,,,,,1,,,87,74
288320,note_on,0,0,2,,,,,,,,1,,,84,74
288479,note_on,0,0,2,,,,,,,,1,,,87,0
288479,note_on,159,0,2,,,,,,,,1,,,84,0
288479,note_on,239,0,4,,,,,,,,3,,,44,0
288479,note_on,0,0,1,,,,,,,,0,,,75,0
288479,note_on,479,0,1,,,,,,,,0,,,87,0
288480,note_on,1,0,1,,,,,,,,0,,,84,102
288480,note_on,0,0,1,,,,,,,,0,,,72,102
288480,note_on,0,0,4,,,,,,,,3,,,56,64
288480,note_on,1,0,4,,,,,,,,3,,,60,64
288480,note_on,1,0,2,,,,,,,,1,,,72,73
288480,note_on,0,0,4,,,,,,,,3,,,51,64
288639,note_on,159,0,2,,,,,,,,1,,,72,0
288640,note_on,0,0,2,,,,,,,,1,,,75,72
288640,note_on,1,0,2,,,,,,,,1,,,80,72
288719,note_on,239,0,4,,,,,,,,3,,,51,0
288719,note_on,0,0,4,,,,,,,,3,,,56,0
288719,note_on,0,0,4,,,,,,,,3,,,60,0
288720,note_on,1,0,4,,,,,,,,3,,,36,64
288773,control_change,53,0,4,,,,,,,,3,64,0,,
288799,note_on,0,0,2,,,,,,,,1,,,80,0
288799,note_on,159,0,2,,,,,,,,1,,,75,0
288800,note_on,0,0,2,,,,,,,,1,,,75,71
288800,note_on,1,0,2,,,,,,,,1,,,80,71
288840,control_change,360,0,1,,,,,,,,0,64,0,,
288853,control_change,53,0,2,,,,,,,,1,64,0,,
288853,control_change,80,0,4,,,,,,,,3,64,127,,
288893,control_change,53,0,1,,,,,,,,0,64,127,,
288907,control_change,54,0,2,,,,,,,,1,64,127,,
288959,note_on,66,0,1,,,,,,,,0,,,72,0
288959,note_on,0,0,2,,,,,,,,1,,,80,0
288959,note_on,52,0,2,,,,,,,,1,,,75,0
288959,note_on,106,0,4,,,,,,,,3,,,36,0
288959,note_on,0,0,1,,,,,,,,0,,,84,0
288960,note_on,1,0,1,,,,,,,,0,,,82,102
288960,note_on,1,0,4,,,,,,,,3,,,49,64
288960,note_on,0,0,4,,,,,,,,3,,,55,64
288960,note_on,0,0,4,,,,,,,,3,,,58,64
288960,note_on,0,0,1,,,,,,,,0,,,70,102
288960,note_on,1,0,2,,,,,,,,1,,,70,70
289119,note_on,159,0,2,,,,,,,,1,,,70,0
289120,note_on,1,0,2,,,,,,,,1,,,79,69
289120,note_on,0,0,2,,,,,,,,1,,,73,69
289199,note_on,239,0,4,,,,,,,,3,,,58,0
289199,note_on,0,0,4,,,,,,,,3,,,55,0
289199,note_on,0,0,4,,,,,,,,3,,,49,0
289200,note_on,1,0,4,,,,,,,,3,,,40,64
289279,note_on,159,0,2,,,,,,,,1,,,73,0
289279,note_on,0,0,2,,,,,,,,1,,,79,0
289280,note_on,1,0,2,,,,,,,,1,,,79,68
289280,note_on,0,0,2,,,,,,,,1,,,73,68
289439,note_on,479,0,1,,,,,,,,0,,,70,0
289439,note_on,0,0,1,,,,,,,,0,,,82,0
289439,note_on,0,0,2,,,,,,,,1,,,79,0
289439,note_on,159,0,2,,,,,,,,1,,,73,0
289439,note_on,239,0,4,,,,,,,,3,,,40,0
289440,note_on,1,0,4,,,,,,,,3,,,46,64
289440,note_on,1,0,1,,,,,,,,0,,,67,102
289440,note_on,0,0,1,,,,,,,,0,,,79,102
289440,note_on,1,0,2,,,,,,,,1,,,67,67
289440,note_on,0,0,4,,,,,,,,3,,,55,64
289440,note_on,0,0,4,,,,,,,,3,,,49,64
289599,note_on,159,0,2,,,,,,,,1,,,67,0
289600,note_on,1,0,2,,,,,,,,1,,,75,66
289600,note_on,0,0,2,,,,,,,,1,,,70,66
289679,note_on,239,0,4,,,,,,,,3,,,55,0
289679,note_on,0,0,4,,,,,,,,3,,,46,0
289679,note_on,0,0,4,,,,,,,,3,,,49,0
289680,note_on,1,0,4,,,,,,,,3,,,39,64
289759,note_on,0,0,2,,,,,,,,1,,,75,0
289759,note_on,159,0,2,,,,,,,,1,,,70,0
289760,note_on,0,0,2,,,,,,,,1,,,70,65
289760,note_on,1,0,2,,,,,,,,1,,,75,65
289813,control_change,133,0,4,,,,,,,,3,64,0,,
289853,control_change,413,0,1,,,,,,,,0,64,0,,
289867,control_change,107,0,2,,,,,,,,1,64,0,,
289872,note_on,0,0,1,,,,,,,,0,,,67,0
289872,note_on,19,0,1,,,,,,,,0,,,79,0
289896,note_on,83,0,4,,,,,,,,3,,,39,0
289904,note_on,37,0,2,,,,,,,,1,,,70,0
289904,note_on,0,0,2,,,,,,,,1,,,75,0
289920,note_on,0,0,1,,,,,,,,0,,,84,95
289920,note_on,0,0,1,,,,,,,,0,,,72,95
289920,note_on,0,0,4,,,,,,,,3,,,44,99
289920,note_on,0,0,4,,,,,,,,3,,,51,99
289920,note_on,24,0,4,,,,,,,,3,,,60,99
289920,note_on,48,0,1,,,,,,,,0,,,75,95
289933,control_change,13,0,4,,,,,,,,3,64,127,,
289960,control_change,40,0,1,,,,,,,,0,64,127,,
290079,note_on,0,0,1,,,,,,,,0,,,84,0
290079,note_on,119,0,1,,,,,,,,0,,,72,0
290079,note_on,0,0,1,,,,,,,,0,,,75,0
290080,note_on,1,0,1,,,,,,,,0,,,72,93
290080,note_on,0,0,1,,,,,,,,0,,,80,93
290080,note_on,0,0,1,,,,,,,,0,,,68,93
290239,note_on,159,0,1,,,,,,,,0,,,68,0
290239,note_on,0,0,1,,,,,,,,0,,,80,0
290239,note_on,0,0,1,,,,,,,,0,,,72,0
290240,note_on,0,0,1,,,,,,,,0,,,68,91
290240,note_on,1,0,1,,,,,,,,0,,,80,91
290240,note_on,0,0,1,,,,,,,,0,,,72,91
290399,note_on,466,0,4,,,,,,,,3,,,44,0
290399,note_on,0,0,4,,,,,,,,3,,,51,0
290399,note_on,0,0,4,,,,,,,,3,,,60,0
290399,note_on,159,0,1,,,,,,,,0,,,72,0
290399,note_on,0,0,1,,,,,,,,0,,,68,0
290399,note_on,0,0,1,,,,,,,,0,,,80,0
290400,note_on,0,0,4,,,,,,,,3,,,39,96
290400,note_on,0,0,4,,,,,,,,3,,,44,96
290400,note_on,1,0,1,,,,,,,,0,,,80,89
290400,note_on,1,0,4,,,,,,,,3,,,32,96
290400,note_on,0,0,1,,,,,,,,0,,,72,89
290400,note_on,0,0,1,,,,,,,,0,,,68,89
290559,note_on,0,0,1,,,,,,,,0,,,68,0
290559,note_on,0,0,1,,,,,,,,0,,,80,0
290559,note_on,159,0,4,,,,,,,,3,,,44,0
290559,note_on,0,0,4,,,,,,,,3,,,39,0
290559,note_on,0,0,4,,,,,,,,3,,,32,0
290559,note_on,159,0,1,,,,,,,,0,,,72,0
290560,note_on,1,0,4,,,,,,,,3,,,32,95
290560,note_on,0,0,4,,,,,,,,3,,,39,95
290560,note_on,0,0,1,,,,,,,,0,,,75,87
290560,note_on,0,0,1,,,,,,,,0,,,63,87
290560,note_on,1,0,1,,,,,,,,0,,,72,87
290560,note_on,0,0,4,,,,,,,,3,,,44,95
290719,note_on,159,0,4,,,,,,,,3,,,44,0
290719,note_on,0,0,4,,,,,,,,3,,,39,0
290719,note_on,0,0,4,,,,,,,,3,,,32,0
290719,note_on,0,0,1,,,,,,,,0,,,63,0
290719,note_on,159,0,1,,,,,,,,0,,,75,0
290719,note_on,0,0,1,,,,,,,,0,,,72,0
290720,note_on,1,0,4,,,,,,,,3,,,32,94
290720,note_on,0,0,1,,,,,,,,0,,,63,86
290720,note_on,0,0,1,,,,,,,,0,,,75,86
290720,note_on,1,0,1,,,,,,,,0,,,72,86
290720,note_on,0,0,4,,,,,,,,3,,,39,94
290720,note_on,0,0,4,,,,,,,,3,,,44,94
290879,note_on,159,0,4,,,,,,,,3,,,44,0
290879,note_on,0,0,4,,,,,,,,3,,,39,0
290879,note_on,0,0,4,,,,,,,,3,,,32,0
290879,note_on,0,0,1,,,,,,,,0,,,72,0
290879,note_on,0,0,1,,,,,,,,0,,,75,0
290879,note_on,159,0,1,,,,,,,,0,,,63,0
290880,note_on,0,0,1,,,,,,,,0,,,63,84
290880,note_on,0,0,4,,,,,,,,3,,,39,92
290880,note_on,0,0,4,,,,,,,,3,,,44,92
290880,note_on,1,0,1,,,,,,,,0,,,72,84
290880,note_on,0,0,1,,,,,,,,0,,,75,84
290880,note_on,1,0,4,,,,,,,,3,,,32,92
291039,note_on,159,0,1,,,,,,,,0,,,75,0
291039,note_on,0,0,1,,,,,,,,0,,,63,0
291039,note_on,0,0,1,,,,,,,,0,,,72,0
291039,note_on,159,0,4,,,,,,,,3,,,44,0
291039,note_on,0,0,4,,,,,,,,3,,,32,0
291039,note_on,0,0,4,,,,,,,,3,,,39,0
291040,note_on,0,0,1,,,,,,,,0,,,72,82
291040,note_on,1,0,1,,,,,,,,0,,,60,82
291040,note_on,0,0,4,,,,,,,,3,,,51,91
291040,note_on,1,0,4,,,,,,,,3,,,44,91
291040,note_on,0,0,4,,,,,,,,3,,,56,91
291040,note_on,0,0,1,,,,,,,,0,,,63,82
291199,note_on,0,0,4,,,,,,,,3,,,51,0
291199,note_on,0,0,4,,,,,,,,3,,,44,0
291199,note_on,0,0,1,,,,,,,,0,,,60,0
291199,note_on,0,0,1,,,,,,,,0,,,72,0
291199,note_on,159,0,1,,,,,,,,0,,,63,0
291199,note_on,159,0,4,,,,,,,,3,,,56,0
291200,note_on,1,0,4,,,,,,,,3,,,44,90
291200,note_on,0,0,1,,,,,,,,0,,,63,80
291200,note_on,0,0,1,,,,,,,,0,,,72,80
291200,note_on,0,0,4,,,,,,,,3,,,51,90
291200,note_on,0,0,4,,,,,,,,3,,,56,90
291200,note_on,1,0,1,,,,,,,,0,,,60,80
291359,note_on,0,0,1,,,,,,,,0,,,60,0
291359,note_on,0,0,1,,,,,,,,0,,,72,0
291359,note_on,159,0,1,,,,,,,,0,,,63,0
291359,note_on,159,0,4,,,,,,,,3,,,56,0
291359,note_on,0,0,4,,,,,,,,3,,,51,0
291359,note_on,0,0,4,,,,,,,,3,,,44,0
291360,note_on,0,0,1,,,,,,,,0,,,60,78
291360,note_on,0,0,1,,,,,,,,0,,,72,78
291360,note_on,0,0,4,,,,,,,,3,,,51,89
291360,note_on,1,0,4,,,,,,,,3,,,56,89
291360,note_on,1,0,1,,,,,,,,0,,,63,78
291360,note_on,0,0,4,,,,,,,,3,,,44,89
291503,note_on,0,0,1,,,,,,,,0,,,72,0
291503,note_on,143,0,1,,,,,,,,0,,,60,0
291503,note_on,0,0,4,,,,,,,,3,,,56,0
291503,note_on,0,0,4,,,,,,,,3,,,51,0
291503,note_on,143,0,4,,,,,,,,3,,,44,0
291503,note_on,0,0,1,,,,,,,,0,,,63,0
291667,control_change,164,0,1,,,,,,,,0,64,0,,
291693,control_change,190,0,4,,,,,,,,3,64,0,,
291720,note_on,53,0,1,,,,,,,,0,,,68,102
291720,note_on,27,0,4,,,,,,,,3,,,44,93
291720,note_on,0,0,1,,,,,,,,0,,,80,102
291823,set_tempo,7689,1,0,,,,,,345941,,,,,,
291823,end_of_track,0,1,0,,,,,,,,,,,,
291828,note_on,108,0,1,,,,,,,,0,,,80,0
291828,note_on,0,0,1,,,,,,,,0,,,68,0
291828,note_on,108,0,4,,,,,,,,3,,,44,0
291840,control_change,12,0,4,,,,,,,,3,64,127,,
291840,control_change,93864,0,3,,,,,,,,2,64,127,,
291840,note_on,0,0,1,,,,,,,,0,,,84,102
291840,note_on,0,0,1,,,,,,,,0,,,72,102
291840,control_change,12,0,1,,,,,,,,0,64,127,,
291840,control_change,1936,0,2,,,,,,,,1,64,127,,
291840,note_on,0,0,3,,,,,,,,2,,,60,102
292160,note_on,0,0,2,,,,,,,,1,,,56,102
292160,note_on,320,0,2,,,,,,,,1,,,53,102
292319,note_on,0,0,2,,,,,,,,1,,,53,0
292319,note_on,159,0,2,,,,,,,,1,,,56,0
292320,note_on,480,0,4,,,,,,,,3,,,36,102
292320,note_on,0,0,4,,,,,,,,3,,,40,102
292320,note_on,0,0,4,,,,,,,,3,,,43,102
292320,note_on,1,0,2,,,,,,,,1,,,48,102
292479,note_on,159,0,2,,,,,,,,1,,,48,0
292480,note_on,0,0,2,,,,,,,,1,,,60,102
292480,note_on,1,0,2,,,,,,,,1,,,52,102
292480,note_on,0,0,2,,,,,,,,1,,,55,102
292559,note_on,239,0,4,,,,,,,,3,,,43,0
292559,note_on,0,0,4,,,,,,,,3,,,40,0
292559,note_on,0,0,4,,,,,,,,3,,,36,0
292560,note_on,0,0,4,,,,,,,,3,,,43,102
292560,note_on,0,0,4,,,,,,,,3,,,40,102
292560,note_on,1,0,4,,,,,,,,3,,,36,102
292560,note_on,0,0,4,,,,,,,,3,,,48,102
292639,note_on,159,0,2,,,,,,,,1,,,60,0
292639,note_on,0,0,2,,,,,,,,1,,,55,0
292639,note_on,0,0,2,,,,,,,,1,,,52,0
292640,note_on,1,0,2,,,,,,,,1,,,60,102
292704,note_on,0,0,1,,,,,,,,0,,,72,0
292704,note_on,864,0,3,,,,,,,,2,,,60,0
292704,note_on,864,0,1,,,,,,,,0,,,84,0
292799,note_on,239,0,4,,,,,,,,3,,,48,0
292799,note_on,0,0,4,,,,,,,,3,,,40,0
292799,note_on,0,0,4,,,,,,,,3,,,43,0
292799,note_on,159,0,2,,,,,,,,1,,,60,0
292799,note_on,0,0,4,,,,,,,,3,,,36,0
292800,control_change,1,0,4,,,,,,,,3,64,0,,
292800,control_change,96,0,1,,,,,,,,0,64,0,,
292800,note_on,0,0,4,,,,,,,,3,,,44,102
292800,note_on,0,0,4,,,,,,,,3,,,41,102
292800,control_change,96,0,3,,,,,,,,2,64,0,,
292800,note_on,0,0,2,,,,,,,,1,,,72,102
292800,note_on,0,0,2,,,,,,,,1,,,68,102
292800,note_on,0,0,2,,,,,,,,1,,,65,102
292800,control_change,1,0,2,,,,,,,,1,64,0,,
292800,note_on,0,0,4,,,,,,,,3,,,48,102
292959,note_on,0,0,2,,,,,,,,1,,,68,0
292959,note_on,159,0,2,,,,,,,,1,,,72,0
292959,note_on,0,0,2,,,,,,,,1,,,65,0
292960,note_on,1,0,2,,,,,,,,1,,,60,102
293119,note_on,159,0,2,,,,,,,,1,,,60,0
293120,note_on,0,0,2,,,,,,,,1,,,56,81
293120,note_on,1,0,2,,,,,,,,1,,,53,81
293279,note_on,479,0,4,,,,,,,,3,,,48,0
293279,note_on,0,0,2,,,,,,,,1,,,53,0
293279,note_on,159,0,2,,,,,,,,1,,,56,0
293279,note_on,0,0,4,,,,,,,,3,,,44,0
293279,note_on,0,0,4,,,,,,,,3,,,41,0
293280,note_on,1,0,2,,,,,,,,1,,,60,81
293280,note_on,0,0,4,,,,,,,,3,,,43,81
293280,note_on,1,0,4,,,,,,,,3,,,37,81
293280,note_on,0,0,4,,,,,,,,3,,,52,81
293439,note_on,159,0,2,,,,,,,,1,,,60,0
293440,note_on,0,0,2,,,,,,,,1,,,72,81
293440,note_on,0,0,2,,,,,,,,1,,,67,81
293440,note_on,1,0,2,,,,,,,,1,,,64,81
293519,note_on,239,0,4,,,,,,,,3,,,52,0
293519,note_on,0,0,4,,,,,,,,3,,,43,0
293519,note_on,0,0,4,,,,,,,,3,,,37,0
293520,note_on,1,0,4,,,,,,,,3,,,37,81
293520,note_on,0,0,4,,,,,,,,3,,,52,81
293520,note_on,0,0,4,,,,,,,,3,,,49,81
293520,note_on,0,0,4,,,,,,,,3,,,43,81
293599,note_on,0,0,2,,,,,,,,1,,,64,0
293599,note_on,159,0,2,,,,,,,,1,,,72,0
293599,note_on,0,0,2,,,,,,,,1,,,67,0
293600,note_on,1,0,2,,,,,,,,1,,,72,81
293736,note_on,216,0,4,,,,,,,,3,,,52,0
293736,note_on,0,0,4,,,,,,,,3,,,37,0
293736,note_on,0,0,4,,,,,,,,3,,,43,0
293736,note_on,0,0,4,,,,,,,,3,,,49,0
293744,note_on,144,0,2,,,,,,,,1,,,72,0
293760,note_on,0,0,4,,,,,,,,3,,,53,81
293760,note_on,0,0,2,,,,,,,,1,,,77,81
293760,note_on,0,0,2,,,,,,,,1,,,80,81
293760,note_on,16,0,2,,,,,,,,1,,,84,81
293760,note_on,0,0,4,,,,,,,,3,,,44,81
293760,note_on,24,0,4,,,,,,,,3,,,41,81
293919,note_on,159,0,2,,,,,,,,1,,,77,0
293919,note_on,0,0,2,,,,,,,,1,,,84,0
293919,note_on,0,0,2,,,,,,,,1,,,80,0
293920,note_on,1,0,2,,,,,,,,1,,,72,81
294079,note_on,159,0,2,,,,,,,,1,,,72,0
294080,note_on,0,0,2,,,,,,,,1,,,65,81
294080,note_on,1,0,2,,,,,,,,1,,,68,81
294239,note_on,0,0,4,,,,,,,,3,,,44,0
294239,note_on,479,0,4,,,,,,,,3,,,53,0
294239,note_on,0,0,2,,,,,,,,1,,,68,0
294239,note_on,159,0,2,,,,,,,,1,,,65,0
294239,note_on,0,0,4,,,,,,,,3,,,41,0
294240,note_on,1,0,4,,,,,,,,3,,,55,102
294240,note_on,1,0,2,,,,,,,,1,,,60,102
294240,note_on,0,0,4,,,,,,,,3,,,52,102
294240,note_on,0,0,4,,,,,,,,3,,,48,102
294399,note_on,159,0,2,,,,,,,,1,,,60,0
294400,note_on,0,0,2,,,,,,,,1,,,67,102
294400,note_on,0,0,2,,,,,,,,1,,,72,102
294400,note_on,1,0,2,,,,,,,,1,,,64,102
294479,note_on,0,0,4,,,,,,,,3,,,55,0
294479,note_on,0,0,4,,,,,,,,3,,,52,0
294479,note_on,239,0,4,,,,,,,,3,,,48,0
294480,note_on,0,0,4,,,,,,,,3,,,48,102
294480,note_on,0,0,4,,,,,,,,3,,,52,102
294480,note_on,1,0,4,,,,,,,,3,,,55,102
294559,note_on,0,0,2,,,,,,,,1,,,64,0
294559,note_on,0,0,2,,,,,,,,1,,,67,0
294559,note_on,159,0,2,,,,,,,,1,,,72,0
294560,note_on,1,0,2,,,,,,,,1,,,72,102
294719,note_on,0,0,4,,,,,,,,3,,,52,0
294719,note_on,0,0,4,,,,,,,,3,,,55,0
294719,note_on,159,0,2,,,,,,,,1,,,72,0
294719,note_on,239,0,4,,,,,,,,3,,,48,0
294720,note_on,1,0,4,,,,,,,,3,,,56,102
294720,note_on,1,0,2,,,,,,,,1,,,84,102
294720,note_on,0,0,2,,,,,,,,1,,,80,102
294720,note_on,0,0,2,,,,,,,,1,,,77,102
294720,note_on,0,0,4,,,,,,,,3,,,53,102
294879,note_on,0,0,2,,,,,,,,1,,,80,0
294879,note_on,159,0,2,,,,,,,,1,,,77,0
294879,note_on,0,0,2,,,,,,,,1,,,84,0
294880,note_on,1,0,2,,,,,,,,1,,,84,102
295039,note_on,159,0,2,,,,,,,,1,,,84,0
295040,note_on,1,0,2,,,,,,,,1,,,96,102
295040,note_on,0,0,2,,,,,,,,1,,,92,102
295040,note_on,0,0,2,,,,,,,,1,,,89,102
295199,note_on,0,0,4,,,,,,,,3,,,56,0
295199,note_on,479,0,4,,,,,,,,3,,,53,0
295199,note_on,159,0,2,,,,,,,,1,,,89,0
295199,note_on,0,0,2,,,,,,,,1,,,92,0
295199,note_on,0,0,2,,,,,,,,1,,,96,0
295200,note_on,1,0,4,,,,,,,,3,,,60,102
295200,note_on,0,0,4,,,,,,,,3,,,48,102
295200,note_on,0,0,4,,,,,,,,3,,,51,102
295200,note_on,0,0,4,,,,,,,,3,,,55,102
295200,note_on,1,0,2,,,,,,,,1,,,84,102
295359,note_on,159,0,2,,,,,,,,1,,,84,0
295360,note_on,1,0,2,,,,,,,,1,,,96,102
295360,note_on,0,0,2,,,,,,,,1,,,91,102
295360,note_on,0,0,2,,,,,,,,1,,,88,102
295439,note_on,239,0,4,,,,,,,,3,,,48,0
295439,note_on,0,0,4,,,,,,,,3,,,60,0
295439,note_on,0,0,4,,,,,,,,3,,,55,0
295439,note_on,0,0,4,,,,,,,,3,,,51,0
295440,note_on,1,0,4,,,,,,,,3,,,60,102
295440,note_on,0,0,4,,,,,,,,3,,,55,102
295440,note_on,0,0,4,,,,,,,,3,,,51,102
295440,note_on,0,0,4,,,,,,,,3,,,48,102
295519,note_on,0,0,2,,,,,,,,1,,,96,0
295519,note_on,0,0,2,,,,,,,,1,,,91,0
295519,note_on,159,0,2,,,,,,,,1,,,88,0
295520,note_on,1,0,2,,,,,,,,1,,,84,102
295656,note_on,216,0,4,,,,,,,,3,,,48,0
295656,note_on,0,0,4,,,,,,,,3,,,51,0
295656,note_on,0,0,4,,,,,,,,3,,,60,0
295656,note_on,0,0,4,,,,,,,,3,,,55,0
295664,note_on,144,0,2,,,,,,,,1,,,84,0
295680,note_on,0,0,4,,,,,,,,3,,,53,102
295680,note_on,24,0,4,,,,,,,,3,,,60,102
295680,note_on,16,0,2,,,,,,,,1,,,96,102
295680,note_on,0,0,2,,,,,,,,1,,,92,102
295680,note_on,0,0,2,,,,,,,,1,,,89,102
295680,note_on,0,0,4,,,,,,,,3,,,56,102
295839,note_on,0,0,2,,,,,,,,1,,,92,0
295839,note_on,0,0,2,,,,,,,,1,,,96,0
295839,note_on,159,0,2,,,,,,,,1,,,89,0
295840,note_on,1,0,2,,,,,,,,1,,,84,102
295999,note_on,159,0,2,,,,,,,,1,,,84,0
296000,note_on,0,0,2,,,,,,,,1,,,89,102
296000,note_on,1,0,2,,,,,,,,1,,,96,102
296000,note_on,0,0,2,,,,,,,,1,,,92,102
296159,note_on,0,0,2,,,,,,,,1,,,92,0
296159,note_on,159,0,2,,,,,,,,1,,,89,0
296159,note_on,0,0,4,,,,,,,,3,,,56,0
296159,note_on,479,0,4,,,,,,,,3,,,53,0
296159,note_on,0,0,4,,,,,,,,3,,,60,0
296159,note_on,0,0,2,,,,,,,,1,,,96,0
296160,note_on,1,0,2,,,,,,,,1,,,88,102
296160,note_on,1,0,4,,,,,,,,3,,,64,102
296160,note_on,0,0,4,,,,,,,,3,,,55,102
296160,note_on,0,0,4,,,,,,,,3,,,48,102
296319,note_on,159,0,2,,,,,,,,1,,,88,0
296320,note_on,0,0,2,,,,,,,,1,,,91,102
296320,note_on,1,0,2,,,,,,,,1,,,100,102
296320,note_on,0,0,2,,,,,,,,1,,,96,102
296479,note_on,0,0,2,,,,,,,,1,,,100,0
296479,note_on,159,0,2,,,,,,,,1,,,91,0
296479,note_on,0,0,2,,,,,,,,1,,,96,0
296480,note_on,1,0,2,,,,,,,,1,,,88,102
296639,note_on,159,0,2,,,,,,,,1,,,88,0
296639,note_on,479,0,4,,,,,,,,3,,,48,0
296639,note_on,0,0,4,,,,,,,,3,,,55,0
296639,note_on,0,0,4,,,,,,,,3,,,64,0
296640,note_on,1,0,4,,,,,,,,3,,,65,102
296640,note_on,0,0,4,,,,,,,,3,,,53,102
296640,note_on,0,0,4,,,,,,,,3,,,56,102
296640,note_on,1,0,2,,,,,,,,1,,,101,102
296640,note_on,0,0,2,,,,,,,,1,,,96,102
296640,note_on,0,0,2,,,,,,,,1,,,92,102
296799,note_on,159,0,2,,,,,,,,1,,,92,0
296799,note_on,0,0,2,,,,,,,,1,,,96,0
296799,note_on,0,0,2,,,,,,,,1,,,101,0
296800,note_on,1,0,2,,,,,,,,1,,,89,102
296959,note_on,159,0,2,,,,,,,,1,,,89,0
296960,note_on,1,0,2,,,,,,,,1,,,101,102
296960,note_on,0,0,2,,,,,,,,1,,,92,102
296960,note_on,0,0,2,,,,,,,,1,,,96,102
297119,note_on,0,0,4,,,,,,,,3,,,65,0
297119,note_on,0,0,4,,,,,,,,3,,,56,0
297119,note_on,0,0,2,,,,,,,,1,,,96,0
297119,note_on,479,0,4,,,,,,,,3,,,53,0
297119,note_on,0,0,2,,,,,,,,1,,,101,0
297119,note_on,159,0,2,,,,,,,,1,,,92,0
297120,note_on,0,0,4,,,,,,,,3,,,46,102
297120,note_on,0,0,4,,,,,,,,3,,,56,102
297120,note_on,1,0,4,,,,,,,,3,,,67,102
297120,note_on,0,0,4,,,,,,,,3,,,62,102
297120,note_on,1,0,2,,,,,,,,1,,,91,102
297279,note_on,159,0,2,,,,,,,,1,,,91,0
297280,note_on,0,0,2,,,,,,,,1,,,94,102
297280,note_on,1,0,2,,,,,,,,1,,,103,102
297280,note_on,0,0,2,,,,,,,,1,,,98,102
297336,note_on,0,0,4,,,,,,,,3,,,56,0
297336,note_on,0,0,4,,,,,,,,3,,,62,0
297336,note_on,0,0,4,,,,,,,,3,,,67,0
297336,note_on,216,0,4,,,,,,,,3,,,46,0
297439,note_on,0,0,2,,,,,,,,1,,,103,0
297439,note_on,0,0,2,,,,,,,,1,,,98,0
297439,note_on,159,0,2,,,,,,,,1,,,94,0
297440,note_on,1,0,2,,,,,,,,1,,,91,102
297584,note_on,144,0,2,,,,,,,,1,,,91,0
297600,note_on,264,0,4,,,,,,,,3,,,63,102
297600,note_on,0,0,4,,,,,,,,3,,,55,102
297600,control_change,16,0,2,,,,,,,,1,64,127,,
297600,note_on,0,0,2,,,,,,,,1,,,91,102
297600,note_on,0,0,2,,,,,,,,1,,,94,102
297600,note_on,0,0,2,,,,,,,,1,,,99,102
297600,note_on,0,0,4,,,,,,,,3,,,51,102
297627,control_change,27,0,4,,,,,,,,3,64,127,,
297759,note_on,0,0,2,,,,,,,,1,,,94,0
297759,note_on,0,0,2,,,,,,,,1,,,99,0
297759,note_on,159,0,2,,,,,,,,1,,,91,0
297760,note_on,1,0,2,,,,,,,,1,,,87,99
297919,note_on,159,0,2,,,,,,,,1,,,87,0
297919,note_on,292,0,4,,,,,,,,3,,,51,0
297919,note_on,0,0,4,,,,,,,,3,,,55,0
297919,note_on,0,0,4,,,,,,,,3,,,63,0
297920,note_on,0,0,4,,,,,,,,3,,,75,96
297920,note_on,1,0,4,,,,,,,,3,,,79,96
297920,note_on,1,0,2,,,,,,,,1,,,94,96
297920,note_on,0,0,2,,,,,,,,1,,,91,96
297920,note_on,0,0,2,,,,,,,,1,,,87,96
298079,note_on,159,0,2,,,,,,,,1,,,87,0
298079,note_on,0,0,2,,,,,,,,1,,,91,0
298079,note_on,159,0,4,,,,,,,,3,,,75,0
298079,note_on,0,0,4,,,,,,,,3,,,79,0
298079,note_on,0,0,2,,,,,,,,1,,,94,0
298080,note_on,1,0,2,,,,,,,,1,,,82,92
298080,note_on,1,0,4,,,,,,,,3,,,70,92
298239,note_on,159,0,2,,,,,,,,1,,,82,0
298239,note_on,159,0,4,,,,,,,,3,,,70,0
298240,note_on,0,0,2,,,,,,,,1,,,87,89
298240,note_on,0,0,2,,,,,,,,1,,,82,89
298240,note_on,0,0,4,,,,,,,,3,,,70,89
298240,note_on,1,0,4,,,,,,,,3,,,75,89
298240,note_on,1,0,2,,,,,,,,1,,,91,89
298399,note_on,0,0,4,,,,,,,,3,,,75,0
298399,note_on,159,0,4,,,,,,,,3,,,70,0
298399,note_on,159,0,2,,,,,,,,1,,,82,0
298399,note_on,0,0,2,,,,,,,,1,,,91,0
298399,note_on,0,0,2,,,,,,,,1,,,87,0
298400,note_on,1,0,2,,,,,,,,1,,,79,86
298400,note_on,1,0,4,,,,,,,,3,,,67,86
298559,note_on,159,0,2,,,,,,,,1,,,79,0
298559,note_on,159,0,4,,,,,,,,3,,,67,0
298560,note_on,1,0,4,,,,,,,,3,,,70,83
298560,note_on,0,0,2,,,,,,,,1,,,70,83
298560,note_on,1,0,2,,,,,,,,1,,,67,83
298560,note_on,0,0,4,,,,,,,,3,,,67,83
298560,note_on,0,0,2,,,,,,,,1,,,75,83
298719,note_on,159,0,2,,,,,,,,1,,,75,0
298719,note_on,0,0,2,,,,,,,,1,,,70,0
298719,note_on,0,0,4,,,,,,,,3,,,70,0
298719,note_on,0,0,2,,,,,,,,1,,,67,0
298719,note_on,159,0,4,,,,,,,,3,,,67,0
298720,note_on,1,0,4,,,,,,,,3,,,63,80
298720,note_on,1,0,2,,,,,,,,1,,,63,80
298879,note_on,159,0,4,,,,,,,,3,,,63,0
298879,note_on,159,0,2,,,,,,,,1,,,63,0
298880,note_on,1,0,4,,,,,,,,3,,,67,76
298880,note_on,0,0,4,,,,,,,,3,,,63,76
298880,note_on,1,0,2,,,,,,,,1,,,63,76
298880,note_on,0,0,2,,,,,,,,1,,,67,76
298880,note_on,0,0,2,,,,,,,,1,,,70,76
299039,note_on,0,0,4,,,,,,,,3,,,67,0
299039,note_on,159,0,4,,,,,,,,3,,,63,0
299039,note_on,159,0,2,,,,,,,,1,,,70,0
299039,note_on,0,0,2,,,,,,,,1,,,67,0
299039,note_on,0,0,2,,,,,,,,1,,,63,0
299040,note_on,1,0,4,,,,,,,,3,,,58,73
299040,note_on,1,0,2,,,,,,,,1,,,58,73
299199,note_on,159,0,2,,,,,,,,1,,,58,0
299199,note_on,159,0,4,,,,,,,,3,,,58,0
299200,note_on,0,0,4,,,,,,,,3,,,58,70
299200,note_on,1,0,2,,,,,,,,1,,,58,70
299200,note_on,0,0,2,,,,,,,,1,,,63,70
299200,note_on,1,0,4,,,,,,,,3,,,63,70
299200,note_on,0,0,2,,,,,,,,1,,,67,70
299359,note_on,159,0,2,,,,,,,,1,,,67,0
299359,note_on,0,0,2,,,,,,,,1,,,63,0
299359,note_on,0,0,2,,,,,,,,1,,,58,0
299359,note_on,0,0,4,,,,,,,,3,,,63,0
299359,note_on,159,0,4,,,,,,,,3,,,58,0
299360,note_on,1,0,4,,,,,,,,3,,,55,67
299360,note_on,1,0,2,,,,,,,,1,,,55,67
299504,note_on,144,0,4,,,,,,,,3,,,55,0
299504,note_on,144,0,2,,,,,,,,1,,,55,0
299520,note_on,16,0,2,,,,,,,,1,,,67,64
299520,note_on,0,0,2,,,,,,,,1,,,75,64
299520,note_on,0,0,4,,,,,,,,3,,,55,64
299520,note_on,0,0,2,,,,,,,,1,,,70,64
299520,note_on,16,0,4,,,,,,,,3,,,58,64
299679,note_on,159,0,4,,,,,,,,3,,,55,0
299679,note_on,0,0,4,,,,,,,,3,,,58,0
299679,note_on,0,0,2,,,,,,,,1,,,67,0
299679,note_on,159,0,2,,,,,,,,1,,,75,0
299679,note_on,0,0,2,,,,,,,,1,,,70,0
299680,note_on,1,0,4,,,,,,,,3,,,51,64
299680,note_on,1,0,2,,,,,,,,1,,,63,64
299839,note_on,159,0,4,,,,,,,,3,,,51,0
299839,note_on,159,0,2,,,,,,,,1,,,63,0
299840,note_on,1,0,4,,,,,,,,3,,,55,64
299840,note_on,1,0,2,,,,,,,,1,,,63,64
299840,note_on,0,0,2,,,,,,,,1,,,67,64
299840,note_on,0,0,4,,,,,,,,3,,,51,64
299840,note_on,0,0,2,,,,,,,,1,,,70,64
299999,note_on,159,0,2,,,,,,,,1,,,70,0
299999,note_on,0,0,2,,,,,,,,1,,,67,0
299999,note_on,0,0,2,,,,,,,,1,,,63,0
299999,note_on,159,0,4,,,,,,,,3,,,51,0
299999,note_on,0,0,4,,,,,,,,3,,,55,0
300000,note_on,1,0,2,,,,,,,,1,,,58,64
300000,note_on,1,0,4,,,,,,,,3,,,46,64
300159,note_on,159,0,2,,,,,,,,1,,,58,0
300159,note_on,159,0,4,,,,,,,,3,,,46,0
300160,note_on,0,0,2,,,,,,,,1,,,63,64
300160,note_on,0,0,2,,,,,,,,1,,,67,64
300160,note_on,1,0,4,,,,,,,,3,,,46,64
300160,note_on,1,0,2,,,,,,,,1,,,58,64
300160,note_on,0,0,4,,,,,,,,3,,,51,64
300319,note_on,159,0,4,,,,,,,,3,,,51,0
300319,note_on,0,0,2,,,,,,,,1,,,58,0
300319,note_on,0,0,2,,,,,,,,1,,,63,0
300319,note_on,159,0,2,,,,,,,,1,,,67,0
300319,note_on,0,0,4,,,,,,,,3,,,46,0
300320,note_on,1,0,4,,,,,,,,3,,,43,63
300320,note_on,1,0,2,,,,,,,,1,,,55,64
300479,note_on,159,0,4,,,,,,,,3,,,43,0
300479,note_on,159,0,2,,,,,,,,1,,,55,0
300480,note_on,1,0,4,,,,,,,,3,,,39,62
300480,note_on,1,0,2,,,,,,,,1,,,63,64
300575,note_on,95,0,2,,,,,,,,1,,,63,0
300639,note_on,159,0,4,,,,,,,,3,,,39,0
300640,note_on,1,0,4,,,,,,,,3,,,46,61
300720,note_on,0,0,2,,,,,,,,1,,,58,64
300720,note_on,145,0,2,,,,,,,,1,,,55,64
300799,note_on,159,0,4,,,,,,,,3,,,46,0
300800,note_on,1,0,4,,,,,,,,3,,,46,59
300815,note_on,95,0,2,,,,,,,,1,,,58,0
300815,note_on,0,0,2,,,,,,,,1,,,55,0
300959,note_on,159,0,4,,,,,,,,3,,,46,0
300960,note_on,145,0,2,,,,,,,,1,,,67,64
300960,note_on,1,0,4,,,,,,,,3,,,51,58
301055,note_on,95,0,2,,,,,,,,1,,,67,0
301119,note_on,159,0,4,,,,,,,,3,,,51,0
301120,note_on,1,0,4,,,,,,,,3,,,46,57
301200,note_on,145,0,2,,,,,,,,1,,,55,64
301200,note_on,0,0,2,,,,,,,,1,,,58,64
301279,note_on,159,0,4,,,,,,,,3,,,46,0
301280,note_on,1,0,4,,,,,,,,3,,,46,51
301286,note_on,0,0,2,,,,,,,,1,,,55,0
301286,note_on,86,0,2,,,,,,,,1,,,58,0
301424,note_on,144,0,4,,,,,,,,3,,,46,0
301440,note_on,16,0,4,,,,,,,,3,,,39,51
301440,note_on,154,0,2,,,,,,,,1,,,63,63
301535,note_on,95,0,2,,,,,,,,1,,,63,0
301599,note_on,159,0,4,,,,,,,,3,,,39,0
301600,note_on,1,0,4,,,,,,,,3,,,46,51
301680,note_on,0,0,2,,,,,,,,1,,,58,63
301680,note_on,145,0,2,,,,,,,,1,,,55,63
301759,note_on,159,0,4,,,,,,,,3,,,46,0
301760,note_on,1,0,4,,,,,,,,3,,,46,51
301775,note_on,95,0,2,,,,,,,,1,,,58,0
301775,note_on,0,0,2,,,,,,,,1,,,55,0
301919,note_on,159,0,4,,,,,,,,3,,,46,0
301920,note_on,145,0,2,,,,,,,,1,,,67,63
301920,note_on,1,0,4,,,,,,,,3,,,51,50
302015,note_on,95,0,2,,,,,,,,1,,,67,0
302079,note_on,159,0,4,,,,,,,,3,,,51,0
302080,note_on,1,0,4,,,,,,,,3,,,46,50
302147,control_change,132,0,2,,,,,,,,1,64,0,,
302160,note_on,0,0,2,,,,,,,,1,,,58,62
302160,note_on,13,0,2,,,,,,,,1,,,55,62
302239,note_on,159,0,4,,,,,,,,3,,,46,0
302240,note_on,1,0,4,,,,,,,,3,,,46,50
302255,note_on,0,0,2,,,,,,,,1,,,55,0
302255,note_on,95,0,2,,,,,,,,1,,,58,0
302333,control_change,93,0,4,,,,,,,,3,64,0,,
302400,note_on,145,0,2,,,,,,,,1,,,55,62
302400,note_on,0,0,2,,,,,,,,1,,,58,62
302400,note_on,0,0,2,,,,,,,,1,,,65,62
302495,note_on,95,0,2,,,,,,,,1,,,65,0
302495,note_on,0,0,2,,,,,,,,1,,,58,0
302495,note_on,0,0,2,,,,,,,,1,,,55,0
302559,note_on,226,0,4,,,,,,,,3,,,46,0
302560,note_on,1,0,4,,,,,,,,3,,,39,49
302640,note_on,145,0,2,,,,,,,,1,,,55,62
302640,note_on,0,0,2,,,,,,,,1,,,58,62
302640,note_on,0,0,2,,,,,,,,1,,,63,62
302719,note_on,159,0,4,,,,,,,,3,,,39,0
302720,note_on,1,0,4,,,,,,,,3,,,46,49
302735,note_on,0,0,2,,,,,,,,1,,,58,0
302735,note_on,0,0,2,,,,,,,,1,,,55,0
302735,note_on,95,0,2,,,,,,,,1,,,63,0
302879,note_on,159,0,4,,,,,,,,3,,,46,0
302880,note_on,1,0,4,,,,,,,,3,,,39,49
302880,note_on,0,0,2,,,,,,,,1,,,58,62
302880,note_on,0,0,2,,,,,,,,1,,,62,62
302880,note_on,145,0,2,,,,,,,,1,,,55,62
302975,note_on,95,0,2,,,,,,,,1,,,62,0
302975,note_on,0,0,2,,,,,,,,1,,,58,0
302975,note_on,0,0,2,,,,,,,,1,,,55,0
303039,note_on,159,0,4,,,,,,,,3,,,39,0
303040,note_on,1,0,4,,,,,,,,3,,,46,48
303120,note_on,0,0,2,,,,,,,,1,,,63,61
303120,note_on,0,0,2,,,,,,,,1,,,58,61
303120,note_on,145,0,2,,,,,,,,1,,,55,61
303199,note_on,159,0,4,,,,,,,,3,,,46,0
303200,note_on,1,0,4,,,,,,,,3,,,39,48
303206,note_on,0,0,2,,,,,,,,1,,,55,0
303206,note_on,0,0,2,,,,,,,,1,,,58,0
303206,note_on,86,0,2,,,,,,,,1,,,63,0
303344,note_on,144,0,4,,,,,,,,3,,,39,0
303360,note_on,0,0,2,,,,,,,,1,,,65,61
303360,control_change,154,0,2,,,,,,,,1,64,127,,
303360,note_on,0,0,4,,,,,,,,3,,,34,48
303360,control_change,16,0,4,,,,,,,,3,64,127,,
303455,note_on,95,0,2,,,,,,,,1,,,65,0
303519,note_on,159,0,4,,,,,,,,3,,,34,0
303520,note_on,1,0,4,,,,,,,,3,,,46,48
303600,note_on,0,0,2,,,,,,,,1,,,62,61
303600,note_on,145,0,2,,,,,,,,1,,,56,61
303679,note_on,159,0,4,,,,,,,,3,,,46,0
303680,note_on,1,0,4,,,,,,,,3,,,46,47
303695,note_on,0,0,2,,,,,,,,1,,,56,0
303695,note_on,95,0,2,,,,,,,,1,,,62,0
303839,note_on,159,0,4,,,,,,,,3,,,46,0
303840,note_on,145,0,2,,,,,,,,1,,,70,60
303840,note_on,1,0,4,,,,,,,,3,,,53,47
303935,note_on,95,0,2,,,,,,,,1,,,70,0
303999,note_on,159,0,4,,,,,,,,3,,,53,0
304000,note_on,1,0,4,,,,,,,,3,,,46,47
304080,note_on,145,0,2,,,,,,,,1,,,56,60
304080,note_on,0,0,2,,,,,,,,1,,,62,60
304159,note_on,159,0,4,,,,,,,,3,,,46,0
304160,note_on,1,0,4,,,,,,,,3,,,46,47
304175,note_on,95,0,2,,,,,,,,1,,,62,0
304175,note_on,0,0,2,,,,,,,,1,,,56,0
304319,note_on,159,0,4,,,,,,,,3,,,46,0
304320,note_on,1,0,4,,,,,,,,3,,,34,46
304320,note_on,145,0,2,,,,,,,,1,,,65,60
304415,note_on,95,0,2,,,,,,,,1,,,65,0
304479,note_on,159,0,4,,,,,,,,3,,,34,0
304480,note_on,1,0,4,,,,,,,,3,,,46,46
304560,note_on,0,0,2,,,,,,,,1,,,62,59
304560,note_on,145,0,2,,,,,,,,1,,,56,59
304639,note_on,159,0,4,,,,,,,,3,,,46,0
304640,note_on,1,0,4,,,,,,,,3,,,46,46
304655,note_on,0,0,2,,,,,,,,1,,,56,0
304655,note_on,95,0,2,,,,,,,,1,,,62,0
304799,note_on,159,0,4,,,,,,,,3,,,46,0
304800,note_on,1,0,4,,,,,,,,3,,,53,46
304800,note_on,145,0,2,,,,,,,,1,,,70,59
304895,note_on,95,0,2,,,,,,,,1,,,70,0
304959,note_on,159,0,4,,,,,,,,3,,,53,0
304960,note_on,1,0,4,,,,,,,,3,,,46,45
305040,note_on,0,0,2,,,,,,,,1,,,62,59
305040,note_on,145,0,2,,,,,,,,1,,,56,59
305119,note_on,159,0,4,,,,,,,,3,,,46,0
305120,note_on,1,0,4,,,,,,,,3,,,46,45
305126,note_on,0,0,2,,,,,,,,1,,,56,0
305126,note_on,86,0,2,,,,,,,,1,,,62,0
305173,control_change,47,0,2,,,,,,,,1,64,0,,
305200,control_change,80,0,4,,,,,,,,3,64,0,,
305264,note_on,64,0,4,,,,,,,,3,,,46,0
305280,note_on,0,0,2,,,,,,,,1,,,65,59
305280,control_change,107,0,2,,,,,,,,1,64,127,,
305280,note_on,0,0,4,,,,,,,,3,,,34,45
305280,control_change,16,0,4,,,,,,,,3,64,127,,
305375,note_on,95,0,2,,,,,,,,1,,,65,0
305439,note_on,159,0,4,,,,,,,,3,,,34,0
305440,note_on,1,0,4,,,,,,,,3,,,46,44
305520,note_on,0,0,2,,,,,,,,1,,,62,58
305520,note_on,145,0,2,,,,,,,,1,,,56,58
305599,note_on,159,0,4,,,,,,,,3,,,46,0
305600,note_on,1,0,4,,,,,,,,3,,,46,44
305615,note_on,95,0,2,,,,,,,,1,,,62,0
305615,note_on,0,0,2,,,,,,,,1,,,56,0
305759,note_on,159,0,4,,,,,,,,3,,,46,0
305760,note_on,1,0,4,,,,,,,,3,,,53,44
305760,note_on,145,0,2,,,,,,,,1,,,70,58
305855,note_on,95,0,2,,,,,,,,1,,,70,0
305919,note_on,159,0,4,,,,,,,,3,,,53,0
305920,note_on,1,0,4,,,,,,,,3,,,46,44
306000,note_on,0,0,2,,,,,,,,1,,,62,58
306000,note_on,145,0,2,,,,,,,,1,,,56,58
306079,note_on,159,0,4,,,,,,,,3,,,46,0
306080,note_on,1,0,4,,,,,,,,3,,,46,43
306095,note_on,0,0,2,,,,,,,,1,,,56,0
306095,note_on,95,0,2,,,,,,,,1,,,62,0
306240,note_on,145,0,2,,,,,,,,1,,,56,57
306240,note_on,0,0,2,,,,,,,,1,,,62,57
306240,note_on,0,0,2,,,,,,,,1,,,68,57
306335,note_on,0,0,2,,,,,,,,1,,,56,0
306335,note_on,0,0,2,,,,,,,,1,,,62,0
306335,note_on,95,0,2,,,,,,,,1,,,68,0
306399,note_on,319,0,4,,,,,,,,3,,,46,0
306400,note_on,1,0,4,,,,,,,,3,,,34,43
306480,note_on,0,0,2,,,,,,,,1,,,62,57
306480,note_on,145,0,2,,,,,,,,1,,,56,57
306480,note_on,0,0,2,,,,,,,,1,,,67,57
306559,note_on,159,0,4,,,,,,,,3,,,34,0
306560,note_on,1,0,4,,,,,,,,3,,,46,43
306575,note_on,95,0,2,,,,,,,,1,,,67,0
306575,note_on,0,0,2,,,,,,,,1,,,62,0
306575,note_on,0,0,2,,,,,,,,1,,,56,0
306719,note_on,159,0,4,,,,,,,,3,,,46,0
306720,note_on,1,0,4,,,,,,,,3,,,34,42
306720,note_on,145,0,2,,,,,,,,1,,,56,57
306720,note_on,0,0,2,,,,,,,,1,,,62,57
306720,note_on,0,0,2,,,,,,,,1,,,65,57
306815,note_on,0,0,2,,,,,,,,1,,,62,0
306815,note_on,95,0,2,,,,,,,,1,,,65,0
306815,note_on,0,0,2,,,,,,,,1,,,56,0
306879,note_on,159,0,4,,,,,,,,3,,,34,0
306880,note_on,1,0,4,,,,,,,,3,,,46,42
306960,note_on,145,0,2,,,,,,,,1,,,56,57
306960,note_on,0,0,2,,,,,,,,1,,,62,57
306960,note_on,0,0,2,,,,,,,,1,,,67,57
307039,note_on,159,0,4,,,,,,,,3,,,46,0
307040,note_on,1,0,4,,,,,,,,3,,,34,42
307046,note_on,0,0,2,,,,,,,,1,,,62,0
307046,note_on,0,0,2,,,,,,,,1,,,56,0
307046,note_on,86,0,2,,,,,,,,1,,,67,0
307184,note_on,144,0,4,,,,,,,,3,,,34,0
307200,note_on,154,0,2,,,,,,,,1,,,63,56
307200,note_on,16,0,4,,,,,,,,3,,,39,41
307295,note_on,95,0,2,,,,,,,,1,,,63,0
307359,note_on,159,0,4,,,,,,,,3,,,39,0
307360,note_on,1,0,4,,,,,,,,3,,,46,40
307440,note_on,145,0,2,,,,,,,,1,,,55,56
307440,note_on,0,0,2,,,,,,,,1,,,58,56
307519,note_on,159,0,4,,,,,,,,3,,,46,0
307520,note_on,1,0,4,,,,,,,,3,,,46,40
307535,note_on,95,0,2,,,,,,,,1,,,58,0
307535,note_on,0,0,2,,,,,,,,1,,,55,0
307679,note_on,159,0,4,,,,,,,,3,,,46,0
307680,note_on,145,0,2,,,,,,,,1,,,67,56
307680,note_on,1,0,4,,,,,,,,3,,,51,40
307775,note_on,95,0,2,,,,,,,,1,,,67,0
307839,note_on,159,0,4,,,,,,,,3,,,51,0
307840,note_on,1,0,4,,,,,,,,3,,,46,40
307920,note_on,0,0,2,,,,,,,,1,,,58,55
307920,note_on,145,0,2,,,,,,,,1,,,55,55
307999,note_on,159,0,4,,,,,,,,3,,,46,0
308000,note_on,1,0,4,,,,,,,,3,,,46,40
308015,note_on,0,0,2,,,,,,,,1,,,55,0
308015,note_on,95,0,2,,,,,,,,1,,,58,0
308159,note_on,159,0,4,,,,,,,,3,,,46,0
308160,note_on,145,0,2,,,,,,,,1,,,63,55
308160,note_on,1,0,4,,,,,,,,3,,,39,40
308255,note_on,95,0,2,,,,,,,,1,,,63,0
308319,note_on,159,0,4,,,,,,,,3,,,39,0
308320,note_on,1,0,4,,,,,,,,3,,,46,40
308400,note_on,145,0,2,,,,,,,,1,,,55,55
308400,note_on,0,0,2,,,,,,,,1,,,58,55
308479,note_on,159,0,4,,,,,,,,3,,,46,0
308480,note_on,1,0,4,,,,,,,,3,,,46,40
308495,note_on,95,0,2,,,,,,,,1,,,58,0
308495,note_on,0,0,2,,,,,,,,1,,,55,0
308639,note_on,159,0,4,,,,,,,,3,,,46,0
308640,note_on,1,0,4,,,,,,,,3,,,51,40
308640,note_on,145,0,2,,,,,,,,1,,,67,54
308735,note_on,95,0,2,,,,,,,,1,,,67,0
308799,note_on,159,0,4,,,,,,,,3,,,51,0
308800,note_on,1,0,4,,,,,,,,3,,,46,40
308880,note_on,0,0,2,,,,,,,,1,,,58,54
308880,note_on,145,0,2,,,,,,,,1,,,55,54
308947,control_change,67,0,2,,,,,,,,1,64,0,,
308959,note_on,159,0,4,,,,,,,,3,,,46,0
308960,note_on,1,0,4,,,,,,,,3,,,46,40
308966,note_on,19,0,2,,,,,,,,1,,,58,0
308966,note_on,0,0,2,,,,,,,,1,,,55,0
308987,control_change,27,0,4,,,,,,,,3,64,0,,
309104,note_on,117,0,4,,,,,,,,3,,,46,0
309120,control_change,154,0,2,,,,,,,,1,64,127,,
309120,note_on,0,0,2,,,,,,,,1,,,63,54
309120,note_on,16,0,4,,,,,,,,3,,,39,51
309133,control_change,13,0,4,,,,,,,,3,64,127,,
309215,note_on,95,0,2,,,,,,,,1,,,63,0
309279,note_on,146,0,4,,,,,,,,3,,,39,0
309280,note_on,1,0,4,,,,,,,,3,,,46,51
309360,note_on,0,0,2,,,,,,,,1,,,58,54
309360,note_on,145,0,2,,,,,,,,1,,,55,54
309439,note_on,159,0,4,,,,,,,,3,,,46,0
309440,note_on,1,0,4,,,,,,,,3,,,46,51
309455,note_on,95,0,2,,,,,,,,1,,,58,0
309455,note_on,0,0,2,,,,,,,,1,,,55,0
309599,note_on,159,0,4,,,,,,,,3,,,46,0
309600,note_on,1,0,4,,,,,,,,3,,,51,51
309600,note_on,145,0,2,,,,,,,,1,,,67,53
309695,note_on,95,0,2,,,,,,,,1,,,67,0
309759,note_on,159,0,4,,,,,,,,3,,,51,0
309760,note_on,1,0,4,,,,,,,,3,,,46,51
309840,note_on,145,0,2,,,,,,,,1,,,55,53
309840,note_on,0,0,2,,,,,,,,1,,,58,53
309919,note_on,159,0,4,,,,,,,,3,,,46,0
309920,note_on,1,0,4,,,,,,,,3,,,46,51
309935,note_on,0,0,2,,,,,,,,1,,,55,0
309935,note_on,95,0,2,,,,,,,,1,,,58,0
310080,note_on,0,0,2,,,,,,,,1,,,58,53
310080,note_on,0,0,2,,,,,,,,1,,,65,53
310080,note_on,145,0,2,,,,,,,,1,,,55,53
310175,note_on,95,0,2,,,,,,,,1,,,65,0
310175,note_on,0,0,2,,,,,,,,1,,,58,0
310175,note_on,0,0,2,,,,,,,,1,,,55,0
310239,note_on,319,0,4,,,,,,,,3,,,46,0
310240,note_on,1,0,4,,,,,,,,3,,,39,51
310320,note_on,0,0,2,,,,,,,,1,,,58,52
310320,note_on,145,0,2,,,,,,,,1,,,55,52
310320,note_on,0,0,2,,,,,,,,1,,,63,52
310399,note_on,159,0,4,,,,,,,,3,,,39,0
310400,note_on,1,0,4,,,,,,,,3,,,46,51
310415,note_on,0,0,2,,,,,,,,1,,,55,0
310415,note_on,0,0,2,,,,,,,,1,,,58,0
310415,note_on,95,0,2,,,,,,,,1,,,63,0
310559,note_on,159,0,4,,,,,,,,3,,,46,0
310560,note_on,1,0,4,,,,,,,,3,,,39,51
310560,note_on,0,0,2,,,,,,,,1,,,62,52
310560,note_on,0,0,2,,,,,,,,1,,,58,52
310560,note_on,145,0,2,,,,,,,,1,,,55,52
310655,note_on,0,0,2,,,,,,,,1,,,55,0
310655,note_on,0,0,2,,,,,,,,1,,,58,0
310655,note_on,95,0,2,,,,,,,,1,,,62,0
310719,note_on,159,0,4,,,,,,,,3,,,39,0
310720,note_on,1,0,4,,,,,,,,3,,,46,51
310800,note_on,0,0,2,,,,,,,,1,,,63,52
310800,note_on,145,0,2,,,,,,,,1,,,55,52
310800,note_on,0,0,2,,,,,,,,1,,,58,52
310879,note_on,159,0,4,,,,,,,,3,,,46,0
310880,note_on,1,0,4,,,,,,,,3,,,39,51
310886,note_on,0,0,2,,,,,,,,1,,,55,0
310886,note_on,86,0,2,,,,,,,,1,,,63,0
310886,note_on,0,0,2,,,,,,,,1,,,58,0
311024,note_on,144,0,4,,,,,,,,3,,,39,0
311040,note_on,16,0,4,,,,,,,,3,,,34,40
311040,note_on,154,0,2,,,,,,,,1,,,65,51
311135,note_on,95,0,2,,,,,,,,1,,,65,0
311199,note_on,159,0,4,,,,,,,,3,,,34,0
311200,note_on,1,0,4,,,,,,,,3,,,46,38
311280,note_on,0,0,2,,,,,,,,1,,,62,51
311280,note_on,145,0,2,,,,,,,,1,,,56,51
311359,note_on,159,0,4,,,,,,,,3,,,46,0
311360,note_on,1,0,4,,,,,,,,3,,,46,38
311375,note_on,95,0,2,,,,,,,,1,,,62,0
311375,note_on,0,0,2,,,,,,,,1,,,56,0
311519,note_on,159,0,4,,,,,,,,3,,,46,0
311520,note_on,1,0,4,,,,,,,,3,,,53,38
311520,note_on,145,0,2,,,,,,,,1,,,70,50
311615,note_on,95,0,2,,,,,,,,1,,,70,0
311679,note_on,159,0,4,,,,,,,,3,,,53,0
311680,note_on,1,0,4,,,,,,,,3,,,46,37
311760,note_on,145,0,2,,,,,,,,1,,,56,50
311760,note_on,0,0,2,,,,,,,,1,,,62,50
311839,note_on,159,0,4,,,,,,,,3,,,46,0
311840,note_on,1,0,4,,,,,,,,3,,,46,37
311855,note_on,95,0,2,,,,,,,,1,,,62,0
311855,note_on,0,0,2,,,,,,,,1,,,56,0
311999,note_on,159,0,4,,,,,,,,3,,,46,0
312000,note_on,145,0,2,,,,,,,,1,,,65,49
312000,note_on,1,0,4,,,,,,,,3,,,34,37
312095,note_on,95,0,2,,,,,,,,1,,,65,0
312159,note_on,159,0,4,,,,,,,,3,,,34,0
312160,note_on,1,0,4,,,,,,,,3,,,46,37
312240,note_on,0,0,2,,,,,,,,1,,,62,48
312240,note_on,145,0,2,,,,,,,,1,,,56,48
312319,note_on,159,0,4,,,,,,,,3,,,46,0
312320,note_on,1,0,4,,,,,,,,3,,,46,36
312335,note_on,95,0,2,,,,,,,,1,,,62,0
312335,note_on,0,0,2,,,,,,,,1,,,56,0
312360,control_change,40,0,4,,,,,,,,3,64,0,,
312413,control_change,78,0,2,,,,,,,,1,64,0,,
312479,note_on,119,0,4,,,,,,,,3,,,46,0
312480,note_on,67,0,2,,,,,,,,1,,,70,47
312480,note_on,1,0,4,,,,,,,,3,,,53,36
312575,note_on,95,0,2,,,,,,,,1,,,70,0
312639,note_on,159,0,4,,,,,,,,3,,,53,0
312640,note_on,1,0,4,,,,,,,,3,,,46,36
312720,note_on,0,0,2,,,,,,,,1,,,62,46
312720,note_on,145,0,2,,,,,,,,1,,,56,46
312799,note_on,159,0,4,,,,,,,,3,,,46,0
312800,note_on,1,0,4,,,,,,,,3,,,46,35
312806,note_on,0,0,2,,,,,,,,1,,,56,0
312806,note_on,86,0,2,,,,,,,,1,,,62,0
312944,note_on,144,0,4,,,,,,,,3,,,46,0
312960,note_on,16,0,4,,,,,,,,3,,,34,35
312960,note_on,154,0,2,,,,,,,,1,,,65,45
312987,control_change,27,0,2,,,,,,,,1,64,127,,
313040,control_change,80,0,4,,,,,,,,3,64,127,,
313055,note_on,68,0,2,,,,,,,,1,,,65,0
313119,note_on,79,0,4,,,,,,,,3,,,34,0
313120,note_on,1,0,4,,,,,,,,3,,,46,35
313200,note_on,0,0,2,,,,,,,,1,,,62,45
313200,note_on,145,0,2,,,,,,,,1,,,56,45
313279,note_on,159,0,4,,,,,,,,3,,,46,0
313280,note_on,1,0,4,,,,,,,,3,,,46,34
313295,note_on,0,0,2,,,,,,,,1,,,56,0
313295,note_on,95,0,2,,,,,,,,1,,,62,0
313439,note_on,159,0,4,,,,,,,,3,,,46,0
313440,note_on,145,0,2,,,,,,,,1,,,70,44
313440,note_on,1,0,4,,,,,,,,3,,,53,34
313535,note_on,95,0,2,,,,,,,,1,,,70,0
313599,note_on,159,0,4,,,,,,,,3,,,53,0
313600,note_on,1,0,4,,,,,,,,3,,,46,34
313680,note_on,0,0,2,,,,,,,,1,,,62,43
313680,note_on,145,0,2,,,,,,,,1,,,56,43
313759,note_on,159,0,4,,,,,,,,3,,,46,0
313760,note_on,1,0,4,,,,,,,,3,,,46,34
313775,note_on,95,0,2,,,,,,,,1,,,62,0
313775,note_on,0,0,2,,,,,,,,1,,,56,0
313920,note_on,0,0,2,,,,,,,,1,,,68,42
313920,note_on,0,0,2,,,,,,,,1,,,62,42
313920,note_on,145,0,2,,,,,,,,1,,,56,42
313947,control_change,27,0,2,,,,,,,,1,64,0,,
314015,note_on,68,0,2,,,,,,,,1,,,68,0
314015,note_on,0,0,2,,,,,,,,1,,,62,0
314015,note_on,0,0,2,,,,,,,,1,,,56,0
314079,note_on,319,0,4,,,,,,,,3,,,46,0
314080,note_on,1,0,4,,,,,,,,3,,,34,33
314160,note_on,145,0,2,,,,,,,,1,,,56,41
314160,note_on,0,0,2,,,,,,,,1,,,62,41
314160,note_on,0,0,2,,,,,,,,1,,,67,41
314239,note_on,159,0,4,,,,,,,,3,,,34,0
314240,note_on,1,0,4,,,,,,,,3,,,46,33
314255,note_on,95,0,2,,,,,,,,1,,,67,0
314255,note_on,0,0,2,,,,,,,,1,,,62,0
314255,note_on,0,0,2,,,,,,,,1,,,56,0
314399,note_on,159,0,4,,,,,,,,3,,,46,0
314400,note_on,0,0,2,,,,,,,,1,,,65,40
314400,note_on,0,0,2,,,,,,,,1,,,62,40
314400,note_on,145,0,2,,,,,,,,1,,,56,40
314400,note_on,1,0,4,,,,,,,,3,,,34,32
314495,note_on,0,0,2,,,,,,,,1,,,62,0
314495,note_on,95,0,2,,,,,,,,1,,,65,0
314495,note_on,0,0,2,,,,,,,,1,,,56,0
314559,note_on,159,0,4,,,,,,,,3,,,34,0
314560,note_on,1,0,4,,,,,,,,3,,,46,32
314640,note_on,0,0,2,,,,,,,,1,,,67,40
314640,note_on,0,0,2,,,,,,,,1,,,62,40
314640,note_on,145,0,2,,,,,,,,1,,,56,40
314719,note_on,159,0,4,,,,,,,,3,,,46,0
314720,note_on,1,0,4,,,,,,,,3,,,34,32
314726,note_on,86,0,2,,,,,,,,1,,,67,0
314726,note_on,0,0,2,,,,,,,,1,,,56,0
314726,note_on,0,0,2,,,,,,,,1,,,62,0
314864,note_on,144,0,4,,,,,,,,3,,,34,0
314880,note_on,16,0,4,,,,,,,,3,,,39,31
314880,note_on,154,0,2,,,,,,,,1,,,63,39
314975,note_on,95,0,2,,,,,,,,1,,,63,0
315039,note_on,159,0,4,,,,,,,,3,,,39,0
315040,note_on,1,0,4,,,,,,,,3,,,39,31
315120,note_on,0,0,2,,,,,,,,1,,,55,38
315120,note_on,145,0,2,,,,,,,,1,,,51,38
315199,note_on,159,0,4,,,,,,,,3,,,39,0
315200,note_on,1,0,4,,,,,,,,3,,,46,31
315215,note_on,0,0,2,,,,,,,,1,,,51,0
315215,note_on,95,0,2,,,,,,,,1,,,55,0
315360,note_on,145,0,2,,,,,,,,1,,,58,37
315455,note_on,95,0,2,,,,,,,,1,,,58,0
315600,note_on,145,0,2,,,,,,,,1,,,51,36
315600,note_on,0,0,2,,,,,,,,1,,,55,36
315695,note_on,95,0,2,,,,,,,,1,,,55,0
315695,note_on,0,0,2,,,,,,,,1,,,51,0
315839,note_on,639,0,4,,,,,,,,3,,,46,0
315840,note_on,1,0,4,,,,,,,,3,,,39,40
315840,note_on,145,0,2,,,,,,,,1,,,63,36
315935,note_on,95,0,2,,,,,,,,1,,,63,0
315999,note_on,159,0,4,,,,,,,,3,,,39,0
316000,note_on,1,0,4,,,,,,,,3,,,39,40
316080,note_on,145,0,2,,,,,,,,1,,,51,35
316080,note_on,0,0,2,,,,,,,,1,,,55,35
316159,note_on,159,0,4,,,,,,,,3,,,39,0
316160,note_on,1,0,4,,,,,,,,3,,,46,40
316175,note_on,95,0,2,,,,,,,,1,,,55,0
316175,note_on,0,0,2,,,,,,,,1,,,51,0
316304,note_on,144,0,4,,,,,,,,3,,,46,0
316320,note_on,145,0,2,,,,,,,,1,,,58,34
316415,note_on,95,0,2,,,,,,,,1,,,58,0
316560,note_on,145,0,2,,,,,,,,1,,,51,33
316560,note_on,0,0,2,,,,,,,,1,,,55,33
316646,note_on,86,0,2,,,,,,,,1,,,55,0
316646,note_on,0,0,2,,,,,,,,1,,,51,0
316800,note_on,496,0,4,,,,,,,,3,,,39,48
316840,note_on,40,0,4,,,,,,,,3,,,46,50
316880,note_on,40,0,4,,,,,,,,3,,,51,53
316920,note_on,40,0,4,,,,,,,,3,,,55,55
316960,note_on,40,0,4,,,,,,,,3,,,63,58
317108,note_on,0,0,4,,,,,,,,3,,,39,0
317108,note_on,0,0,4,,,,,,,,3,,,51,0
317108,note_on,148,0,4,,,,,,,,3,,,63,0
317108,note_on,0,0,4,,,,,,,,3,,,55,0
317108,note_on,0,0,4,,,,,,,,3,,,46,0
317760,note_on,1114,0,2,,,,,,,,1,,,87,55
317760,note_on,0,0,2,,,,,,,,1,,,79,55
317760,note_on,0,0,2,,,,,,,,1,,,75,55
317760,note_on,0,0,3,,,,,,,,2,,,51,51
317760,note_on,24960,0,3,,,,,,,,2,,,39,51
317760,note_on,0,0,3,,,,,,,,2,,,46,51
318192,note_on,0,0,3,,,,,,,,2,,,39,0
318192,note_on,0,0,3,,,,,,,,2,,,46,0
318192,note_on,432,0,3,,,,,,,,2,,,51,0
318192,end_of_track,0,1,3,,,,,,,,,,,,
318192,note_on,0,0,2,,,,,,,,1,,,87,0
318192,note_on,0,0,2,,,,,,,,1,,,79,0
318192,note_on,432,0,2,,,,,,,,1,,,75,0
318192,end_of_track,0,1,2,,,,,,,,,,,,
318720,note_on,1612,0,4,,,,,,,,3,,,39,51
318720,note_on,0,0,1,,,,,,,,0,,,75,51
318720,note_on,0,0,4,,,,,,,,3,,,46,51
318720,note_on,25920,0,1,,,,,,,,0,,,84,51
318720,note_on,0,0,1,,,,,,,,0,,,72,51
319488,end_of_track,0,1,1,,,,,,,,,,,,
319488,note_on,768,0,1,,,,,,,,0,,,75,0
319488,note_on,0,0,1,,,,,,,,0,,,72,0
319488,note_on,0,0,1,,,,,,,,0,,,84,0
319560,control_change,840,0,4,,,,,,,,3,64,0,,
319584,note_on,24,0,4,,,,,,,,3,,,46,0
319584,note_on,0,0,4,,,,,,,,3,,,39,0
319584,end_of_track,0,1,4,,,,,,,,,,,,
