tick,type,numerator,denominator,clocks_per_click,notated_32nd_notes_per_beat,time,meta,track,data,tempo,control,value,channel,program,key,note,velocity
0,time_signature,6,8,96,8,0,1,0,,,,,,,,,
0,control_change,,,,,0,0,2,,,10,51,1,,,,
0,program_change,,,,,0,0,2,,,,,1,40,,,
0,key_signature,,,,,0,1,2,,,,,,,C,,
0,note_on,,,,,0,0,2,,,,,1,,,63,106
0,note_on,,,,,0,0,2,,,,,1,,,55,106
0,track_name,,,,,0,1,3,,,,,,,,,
0,control_change,,,,,0,0,3,,,0,0,2,,,,
0,control_change,,,,,0,0,3,,,10,75,2,,,,
0,program_change,,,,,0,0,3,,,,,2,41,,,
0,key_signature,,,,,0,1,3,,,,,,,C,,
0,note_on,,,,,0,0,3,,,,,2,,,58,93
0,control_change,,,,,0,0,2,,,0,0,1,,,,
0,key_signature,,,,,0,1,6,,,,,,,C,,
0,control_change,,,,,0,0,4,,,0,0,3,,,,
0,control_change,,,,,0,0,4,,,10,105,3,,,,
0,program_change,,,,,0,0,4,,,,,3,42,,,
0,key_signature,,,,,0,1,4,,,,,,,C,,
0,note_on,,,,,0,0,4,,,,,3,,,51,90
0,track_name,,,,,0,1,5,,,,,,,,,
0,control_change,,,,,0,0,5,,,0,0,4,,,,
0,control_change,,,,,0,0,5,,,10,75,4,,,,
0,control_change,,,,,0,0,5,,,7,127,4,,,,
0,program_change,,,,,0,0,5,,,,,4,45,,,
0,key_signature,,,,,0,1,5,,,,,,,C,,
0,track_name,,,,,0,1,4,,,,,,,,,
0,track_name,,,,,0,1,2,,,,,,,,,
0,end_of_track,,,,,0,1,6,,,,,,,,,
0,key_signature,,,,,0,1,1,,,,,,,Eb,,
0,note_on,,,,,0,0,1,,,,,0,,,63,115
0,note_on,,,,,0,0,1,,,,,0,,,55,115
0,program_change,,,,,0,0,1,,,,,0,40,,,
0,control_change,,,,,0,0,1,,,10,42,0,,,,
0,sequencer_specific,,,,,0,1,0,"(0, 0, 65)",,,,,,,,
0,set_tempo,,,,,0,1,0,,909090,,,,,,,
0,end_of_track,,,,,0,1,0,,,,,,,,,
0,track_name,,,,,0,1,1,,,,,,,,,
0,control_change,,,,,0,0,1,,,0,0,0,,,,
576,note_on,,,,,0,0,1,,,,,0,,,58,115
576,note_off,,,,,0,0,1,,,,,0,,,63,0
576,note_off,,,,,576,0,1,,,,,0,,,55,0
576,note_off,,,,,576,0,4,,,,,3,,,51,0
576,note_on,,,,,0,0,4,,,,,3,,,46,90
576,note_on,,,,,0,0,1,,,,,0,,,65,115
576,note_on,,,,,0,0,2,,,,,1,,,58,106
576,note_off,,,,,0,0,2,,,,,1,,,55,0
576,note_off,,,,,576,0,2,,,,,1,,,63,0
576,note_on,,,,,0,0,2,,,,,1,,,62,106
768,note_off,,,,,192,0,2,,,,,1,,,58,0
768,note_off,,,,,0,0,2,,,,,1,,,62,0
768,note_off,,,,,768,0,3,,,,,2,,,58,0
768,note_off,,,,,0,0,1,,,,,0,,,65,0
768,note_off,,,,,192,0,1,,,,,0,,,58,0
768,note_off,,,,,192,0,4,,,,,3,,,46,0
1152,note_on,,,,,384,0,1,,,,,0,,,58,115
1152,note_on,,,,,0,0,1,,,,,0,,,65,115
1152,note_on,,,,,384,0,3,,,,,2,,,58,93
1152,note_on,,,,,384,0,2,,,,,1,,,62,106
1152,note_on,,,,,384,0,4,,,,,3,,,46,90
1728,note_off,,,,,576,0,3,,,,,2,,,58,0
1728,note_off,,,,,0,0,1,,,,,0,,,65,0
1728,note_off,,,,,576,0,2,,,,,1,,,62,0
1728,note_on,,,,,0,0,2,,,,,1,,,63,106
1728,note_on,,,,,0,0,3,,,,,2,,,63,93
1728,note_off,,,,,576,0,1,,,,,0,,,58,0
1728,note_off,,,,,576,0,4,,,,,3,,,46,0
1728,note_on,,,,,0,0,4,,,,,3,,,39,90
1728,note_on,,,,,0,0,1,,,,,0,,,67,115
1728,note_on,,,,,0,0,1,,,,,0,,,58,115
1920,note_off,,,,,192,0,1,,,,,0,,,67,0
1920,note_off,,,,,0,0,1,,,,,0,,,58,0
1920,note_off,,,,,192,0,2,,,,,1,,,63,0
1920,note_off,,,,,192,0,4,,,,,3,,,39,0
1920,note_off,,,,,192,0,3,,,,,2,,,63,0
2304,note_on,,,,,384,0,3,,,,,2,,,63,93
2304,note_on,,,,,384,0,2,,,,,1,,,63,106
2304,note_on,,,,,384,0,4,,,,,3,,,51,90
2304,note_on,,,,,384,0,1,,,,,0,,,63,115
2688,note_off,,,,,384,0,3,,,,,2,,,63,0
2688,note_on,,,,,0,0,3,,,,,2,,,61,93
2880,note_on,,,,,0,0,3,,,,,2,,,60,93
2880,note_off,,,,,192,0,3,,,,,2,,,61,0
3072,note_on,,,,,0,0,1,,,,,0,,,68,115
3072,note_off,,,,,768,0,1,,,,,0,,,63,0
3264,note_off,,,,,192,0,1,,,,,0,,,68,0
3264,note_on,,,,,0,0,3,,,,,2,,,56,93
3264,note_on,,,,,0,0,1,,,,,0,,,72,115
3264,note_off,,,,,384,0,3,,,,,2,,,60,0
3456,note_off,,,,,192,0,3,,,,,2,,,56,0
3456,note_on,,,,,0,0,3,,,,,2,,,55,93
3456,note_off,,,,,192,0,1,,,,,0,,,72,0
3456,note_on,,,,,0,0,1,,,,,0,,,70,115
3648,note_off,,,,,192,0,3,,,,,2,,,55,0
3648,note_on,,,,,0,0,3,,,,,2,,,58,93
3840,note_on,,,,,0,0,3,,,,,2,,,63,93
3840,note_off,,,,,192,0,3,,,,,2,,,58,0
4032,note_off,,,,,192,0,3,,,,,2,,,63,0
4032,note_on,,,,,0,0,3,,,,,2,,,55,93
4224,note_off,,,,,192,0,3,,,,,2,,,55,0
4224,note_off,,,,,768,0,1,,,,,0,,,70,0
4224,note_on,,,,,0,0,1,,,,,0,,,75,115
4224,note_on,,,,,0,0,3,,,,,2,,,58,93
4416,note_off,,,,,192,0,3,,,,,2,,,58,0
4416,note_on,,,,,0,0,3,,,,,2,,,63,93
4416,note_off,,,,,192,0,1,,,,,0,,,75,0
4416,note_on,,,,,0,0,1,,,,,0,,,67,115
4608,note_on,,,,,0,0,2,,,,,1,,,60,106
4608,note_on,,,,,0,0,1,,,,,0,,,65,115
4608,note_on,,,,,0,0,4,,,,,3,,,44,90
4608,note_off,,,,,2304,0,4,,,,,3,,,51,0
4608,note_on,,,,,0,0,3,,,,,2,,,56,93
4608,note_off,,,,,2304,0,2,,,,,1,,,63,0
4608,note_off,,,,,192,0,1,,,,,0,,,67,0
4608,note_off,,,,,192,0,3,,,,,2,,,63,0
4800,note_off,,,,,192,0,3,,,,,2,,,56,0
4800,note_on,,,,,0,0,3,,,,,2,,,60,93
4896,note_off,,,,,288,0,1,,,,,0,,,65,0
4896,note_on,,,,,0,0,1,,,,,0,,,67,115
4992,note_off,,,,,96,0,1,,,,,0,,,67,0
4992,note_on,,,,,0,0,1,,,,,0,,,68,115
4992,note_on,,,,,0,0,3,,,,,2,,,65,93
4992,note_off,,,,,192,0,3,,,,,2,,,60,0
5136,note_off,,,,,144,0,1,,,,,0,,,68,0
5136,note_on,,,,,0,0,1,,,,,0,,,70,115
5184,note_off,,,,,192,0,3,,,,,2,,,65,0
5184,note_on,,,,,0,0,3,,,,,2,,,56,93
5184,note_off,,,,,48,0,1,,,,,0,,,70,0
5184,note_on,,,,,0,0,1,,,,,0,,,72,115
5376,note_on,,,,,0,0,3,,,,,2,,,60,93
5376,note_off,,,,,192,0,3,,,,,2,,,56,0
5376,note_on,,,,,0,0,1,,,,,0,,,68,115
5376,note_off,,,,,192,0,1,,,,,0,,,72,0
5568,note_off,,,,,192,0,1,,,,,0,,,68,0
5568,note_on,,,,,0,0,3,,,,,2,,,56,93
5568,note_off,,,,,192,0,3,,,,,2,,,60,0
5568,note_on,,,,,0,0,1,,,,,0,,,65,115
5568,note_on,,,,,0,0,2,,,,,1,,,60,106
5568,note_off,,,,,960,0,2,,,,,1,,,60,0
5760,note_off,,,,,1152,0,4,,,,,3,,,44,0
5760,note_on,,,,,0,0,1,,,,,0,,,63,115
5760,note_on,,,,,0,0,4,,,,,3,,,46,90
5760,note_off,,,,,192,0,1,,,,,0,,,65,0
5760,note_off,,,,,192,0,3,,,,,2,,,56,0
5760,note_on,,,,,0,0,3,,,,,2,,,55,93
5760,note_on,,,,,0,0,2,,,,,1,,,58,106
5760,note_off,,,,,192,0,2,,,,,1,,,60,0
6144,note_off,,,,,384,0,1,,,,,0,,,63,0
6144,note_off,,,,,384,0,3,,,,,2,,,55,0
6144,note_on,,,,,0,0,3,,,,,2,,,56,93
6144,note_on,,,,,0,0,1,,,,,0,,,65,115
6336,note_off,,,,,192,0,3,,,,,2,,,56,0
6336,note_off,,,,,192,0,1,,,,,0,,,65,0
6336,note_on,,,,,0,0,1,,,,,0,,,62,115
6336,note_on,,,,,0,0,3,,,,,2,,,53,93
6528,note_off,,,,,768,0,4,,,,,3,,,46,0
6720,note_off,,,,,384,0,1,,,,,0,,,62,0
6720,note_off,,,,,384,0,3,,,,,2,,,53,0
6720,note_off,,,,,960,0,2,,,,,1,,,58,0
6912,note_on,,,,,192,0,1,,,,,0,,,63,115
6912,note_on,,,,,0,0,1,,,,,0,,,55,115
6912,note_on,,,,,192,0,2,,,,,1,,,63,106
6912,note_on,,,,,0,0,2,,,,,1,,,55,106
6912,note_on,,,,,384,0,4,,,,,3,,,51,90
6912,note_on,,,,,192,0,3,,,,,2,,,58,93
7488,note_off,,,,,0,0,1,,,,,0,,,55,0
7488,note_off,,,,,576,0,2,,,,,1,,,63,0
7488,note_off,,,,,0,0,2,,,,,1,,,55,0
7488,note_on,,,,,0,0,2,,,,,1,,,58,106
7488,note_on,,,,,0,0,2,,,,,1,,,62,106
7488,note_on,,,,,0,0,4,,,,,3,,,46,90
7488,note_off,,,,,576,0,4,,,,,3,,,51,0
7488,note_on,,,,,0,0,1,,,,,0,,,58,115
7488,note_on,,,,,0,0,1,,,,,0,,,65,115
7488,note_off,,,,,576,0,1,,,,,0,,,63,0
7680,note_off,,,,,0,0,2,,,,,1,,,62,0
7680,note_off,,,,,192,0,2,,,,,1,,,58,0
7680,note_off,,,,,192,0,1,,,,,0,,,58,0
7680,note_off,,,,,0,0,1,,,,,0,,,65,0
7680,note_off,,,,,192,0,4,,,,,3,,,46,0
7680,note_off,,,,,768,0,3,,,,,2,,,58,0
8064,note_on,,,,,384,0,1,,,,,0,,,58,115
8064,note_on,,,,,0,0,1,,,,,0,,,65,115
8064,note_on,,,,,384,0,2,,,,,1,,,62,106
8064,note_on,,,,,384,0,3,,,,,2,,,58,93
8064,note_on,,,,,384,0,4,,,,,3,,,46,90
8640,note_off,,,,,576,0,1,,,,,0,,,58,0
8640,note_on,,,,,0,0,1,,,,,0,,,58,115
8640,note_on,,,,,0,0,1,,,,,0,,,67,115
8640,note_on,,,,,0,0,2,,,,,1,,,63,106
8640,note_off,,,,,576,0,2,,,,,1,,,62,0
8640,note_off,,,,,576,0,4,,,,,3,,,46,0
8640,note_on,,,,,0,0,4,,,,,3,,,39,90
8640,note_off,,,,,0,0,1,,,,,0,,,65,0
8640,note_on,,,,,0,0,3,,,,,2,,,63,93
8640,note_off,,,,,576,0,3,,,,,2,,,58,0
8832,note_off,,,,,192,0,1,,,,,0,,,58,0
8832,note_off,,,,,0,0,1,,,,,0,,,67,0
8832,note_off,,,,,192,0,2,,,,,1,,,63,0
8832,note_off,,,,,192,0,4,,,,,3,,,39,0
8832,note_off,,,,,192,0,3,,,,,2,,,63,0
9216,note_on,,,,,384,0,4,,,,,3,,,55,90
9216,note_on,,,,,384,0,1,,,,,0,,,73,115
9216,note_on,,,,,384,0,2,,,,,1,,,63,106
9216,note_on,,,,,384,0,3,,,,,2,,,58,93
9408,note_on,,,,,0,0,3,,,,,2,,,61,93
9408,note_off,,,,,192,0,3,,,,,2,,,58,0
9600,note_off,,,,,192,0,3,,,,,2,,,61,0
9600,note_on,,,,,0,0,3,,,,,2,,,63,93
9792,note_off,,,,,192,0,3,,,,,2,,,63,0
9792,note_off,,,,,576,0,4,,,,,3,,,55,0
9792,note_on,,,,,0,0,3,,,,,2,,,55,93
9792,note_on,,,,,0,0,4,,,,,3,,,51,90
9984,note_on,,,,,0,0,3,,,,,2,,,58,93
9984,note_on,,,,,0,0,1,,,,,0,,,70,115
9984,note_off,,,,,768,0,1,,,,,0,,,73,0
9984,note_off,,,,,192,0,3,,,,,2,,,55,0
10176,note_off,,,,,192,0,1,,,,,0,,,70,0
10176,note_on,,,,,0,0,3,,,,,2,,,61,93
10176,note_on,,,,,0,0,1,,,,,0,,,67,115
10176,note_off,,,,,192,0,3,,,,,2,,,58,0
10368,note_on,,,,,0,0,3,,,,,2,,,60,93
10368,note_off,,,,,576,0,4,,,,,3,,,51,0
10368,note_on,,,,,0,0,4,,,,,3,,,44,90
10368,note_on,,,,,0,0,1,,,,,0,,,68,115
10368,note_off,,,,,192,0,1,,,,,0,,,67,0
10368,note_off,,,,,192,0,3,,,,,2,,,61,0
10560,note_off,,,,,192,0,3,,,,,2,,,60,0
10560,note_on,,,,,0,0,3,,,,,2,,,56,93
10752,note_on,,,,,0,0,2,,,,,1,,,64,106
10752,note_off,,,,,1536,0,2,,,,,1,,,63,0
10752,note_off,,,,,192,0,3,,,,,2,,,56,0
10752,note_on,,,,,0,0,3,,,,,2,,,60,93
10944,note_off,,,,,192,0,2,,,,,1,,,64,0
10944,note_on,,,,,0,0,2,,,,,1,,,65,106
10944,note_on,,,,,0,0,3,,,,,2,,,65,93
10944,note_off,,,,,192,0,3,,,,,2,,,60,0
11136,note_off,,,,,768,0,1,,,,,0,,,68,0
11136,note_on,,,,,0,0,1,,,,,0,,,72,115
11136,note_on,,,,,0,0,3,,,,,2,,,68,93
11136,note_off,,,,,192,0,3,,,,,2,,,65,0
11328,note_off,,,,,384,0,2,,,,,1,,,65,0
11328,note_on,,,,,0,0,2,,,,,1,,,60,106
11328,note_on,,,,,0,0,3,,,,,2,,,56,93
11328,note_off,,,,,192,0,1,,,,,0,,,72,0
11328,note_off,,,,,192,0,3,,,,,2,,,68,0
11328,note_on,,,,,0,0,1,,,,,0,,,65,115
11520,note_off,,,,,192,0,3,,,,,2,,,56,0
11520,note_on,,,,,0,0,4,,,,,3,,,46,90
11520,note_on,,,,,0,0,1,,,,,0,,,63,115
11520,note_off,,,,,192,0,1,,,,,0,,,65,0
11520,note_off,,,,,1152,0,4,,,,,3,,,44,0
11520,note_on,,,,,0,0,2,,,,,1,,,58,106
11520,note_off,,,,,192,0,2,,,,,1,,,60,0
11520,note_on,,,,,0,0,3,,,,,2,,,55,93
11712,note_on,,,,,0,0,3,,,,,2,,,58,93
11712,note_off,,,,,192,0,3,,,,,2,,,55,0
11808,note_off,,,,,288,0,1,,,,,0,,,63,0
11808,note_on,,,,,0,0,1,,,,,0,,,65,115
11904,note_on,,,,,0,0,1,,,,,0,,,67,115
11904,note_off,,,,,96,0,1,,,,,0,,,65,0
11904,note_off,,,,,192,0,3,,,,,2,,,58,0
11904,note_on,,,,,0,0,3,,,,,2,,,63,93
12048,note_on,,,,,0,0,1,,,,,0,,,68,115
12048,note_off,,,,,144,0,1,,,,,0,,,67,0
12096,note_off,,,,,48,0,1,,,,,0,,,68,0
12096,note_off,,,,,192,0,3,,,,,2,,,63,0
12096,note_on,,,,,0,0,3,,,,,2,,,55,93
12096,note_on,,,,,0,0,1,,,,,0,,,70,115
12288,note_on,,,,,0,0,1,,,,,0,,,67,115
12288,note_on,,,,,0,0,3,,,,,2,,,58,93
12288,note_off,,,,,192,0,1,,,,,0,,,70,0
12288,note_off,,,,,192,0,3,,,,,2,,,55,0
12480,note_on,,,,,0,0,3,,,,,2,,,63,93
12480,note_off,,,,,192,0,3,,,,,2,,,58,0
12480,note_off,,,,,192,0,1,,,,,0,,,67,0
12480,note_on,,,,,0,0,1,,,,,0,,,63,115
12672,note_off,,,,,192,0,3,,,,,2,,,63,0
12672,note_off,,,,,1152,0,4,,,,,3,,,46,0
12672,note_on,,,,,0,0,4,,,,,3,,,46,90
12672,note_off,,,,,192,0,1,,,,,0,,,63,0
12672,note_on,,,,,0,0,1,,,,,0,,,58,115
12672,note_on,,,,,0,0,3,,,,,2,,,55,93
12864,note_off,,,,,192,0,3,,,,,2,,,55,0
12864,note_on,,,,,0,0,3,,,,,2,,,54,93
13056,note_off,,,,,1536,0,2,,,,,1,,,58,0
13056,note_on,,,,,0,0,3,,,,,2,,,53,93
13056,note_off,,,,,192,0,3,,,,,2,,,54,0
13056,note_on,,,,,0,0,1,,,,,0,,,60,115
13056,note_off,,,,,384,0,1,,,,,0,,,58,0
13056,note_on,,,,,0,0,2,,,,,1,,,57,106
13152,note_on,,,,,0,0,2,,,,,1,,,56,106
13152,note_on,,,,,0,0,1,,,,,0,,,62,115
13152,note_off,,,,,96,0,1,,,,,0,,,60,0
13152,note_off,,,,,96,0,2,,,,,1,,,57,0
13248,note_off,,,,,576,0,4,,,,,3,,,46,0
13248,note_on,,,,,0,0,4,,,,,3,,,51,90
13248,note_on,,,,,0,0,2,,,,,1,,,55,106
13248,note_off,,,,,96,0,2,,,,,1,,,56,0
13248,note_off,,,,,192,0,3,,,,,2,,,53,0
13248,note_off,,,,,96,0,1,,,,,0,,,62,0
13248,note_on,,,,,0,0,1,,,,,0,,,63,115
13248,note_on,,,,,0,0,3,,,,,2,,,51,93
13440,note_off,,,,,192,0,4,,,,,3,,,51,0
13632,note_off,,,,,384,0,1,,,,,0,,,63,0
13632,note_off,,,,,384,0,2,,,,,1,,,55,0
13632,note_off,,,,,384,0,3,,,,,2,,,51,0
13824,note_on,,,,,192,0,2,,,,,1,,,62,106
13824,note_on,,,,,192,0,1,,,,,0,,,65,115
13824,note_on,,,,,384,0,4,,,,,3,,,46,90
13824,note_on,,,,,192,0,3,,,,,2,,,58,93
14016,note_off,,,,,192,0,3,,,,,2,,,58,0
14016,note_off,,,,,192,0,2,,,,,1,,,62,0
14016,note_off,,,,,192,0,1,,,,,0,,,65,0
14016,note_off,,,,,192,0,4,,,,,3,,,46,0
14208,note_on,,,,,192,0,2,,,,,1,,,62,106
14208,note_on,,,,,192,0,4,,,,,3,,,46,90
14208,note_on,,,,,192,0,1,,,,,0,,,65,115
14208,note_on,,,,,192,0,3,,,,,2,,,58,93
14304,note_off,,,,,96,0,2,,,,,1,,,62,0
14304,note_off,,,,,96,0,3,,,,,2,,,58,0
14304,note_off,,,,,96,0,1,,,,,0,,,65,0
14304,note_off,,,,,96,0,4,,,,,3,,,46,0
14400,note_on,,,,,96,0,3,,,,,2,,,58,93
14400,note_on,,,,,96,0,1,,,,,0,,,65,115
14400,note_on,,,,,96,0,4,,,,,3,,,46,90
14400,note_on,,,,,96,0,2,,,,,1,,,62,106
14592,note_off,,,,,192,0,3,,,,,2,,,58,0
14784,note_on,,,,,0,0,1,,,,,0,,,67,115
14784,note_on,,,,,0,0,4,,,,,3,,,43,90
14784,note_on,,,,,192,0,3,,,,,2,,,58,93
14784,note_on,,,,,0,0,2,,,,,1,,,64,106
14784,note_off,,,,,384,0,1,,,,,0,,,65,0
14784,note_off,,,,,384,0,4,,,,,3,,,46,0
14784,note_off,,,,,384,0,2,,,,,1,,,62,0
14880,note_off,,,,,96,0,3,,,,,2,,,58,0
14976,note_on,,,,,96,0,3,,,,,2,,,60,93
14976,note_off,,,,,192,0,1,,,,,0,,,67,0
14976,note_on,,,,,0,0,4,,,,,3,,,41,90
14976,note_on,,,,,0,0,1,,,,,0,,,68,115
14976,note_on,,,,,0,0,2,,,,,1,,,65,106
14976,note_off,,,,,192,0,2,,,,,1,,,64,0
14976,note_off,,,,,192,0,4,,,,,3,,,43,0
15360,note_on,,,,,0,0,3,,,,,2,,,58,93
15360,note_off,,,,,384,0,2,,,,,1,,,65,0
15360,note_off,,,,,384,0,3,,,,,2,,,60,0
15360,note_on,,,,,0,0,2,,,,,1,,,64,106
15360,note_off,,,,,384,0,1,,,,,0,,,68,0
15360,note_on,,,,,0,0,4,,,,,3,,,48,90
15360,note_on,,,,,0,0,1,,,,,0,,,72,115
15360,note_off,,,,,384,0,4,,,,,3,,,41,0
15552,note_off,,,,,192,0,4,,,,,3,,,48,0
15552,note_on,,,,,0,0,4,,,,,3,,,53,90
15552,note_off,,,,,192,0,2,,,,,1,,,64,0
15552,note_on,,,,,0,0,3,,,,,2,,,56,93
15552,note_on,,,,,0,0,2,,,,,1,,,65,106
15552,note_on,,,,,0,0,1,,,,,0,,,65,115
15552,note_off,,,,,192,0,1,,,,,0,,,72,0
15552,note_off,,,,,192,0,3,,,,,2,,,58,0
15936,note_off,,,,,384,0,3,,,,,2,,,56,0
15936,note_off,,,,,384,0,4,,,,,3,,,53,0
15936,note_off,,,,,384,0,1,,,,,0,,,65,0
15936,note_off,,,,,384,0,2,,,,,1,,,65,0
16128,note_on,,,,,192,0,3,,,,,2,,,56,93
16128,note_on,,,,,192,0,1,,,,,0,,,63,115
16128,note_on,,,,,192,0,2,,,,,1,,,60,106
16128,note_on,,,,,192,0,4,,,,,3,,,44,90
16320,note_off,,,,,192,0,1,,,,,0,,,63,0
16320,note_off,,,,,192,0,2,,,,,1,,,60,0
16320,note_off,,,,,192,0,4,,,,,3,,,44,0
16320,note_off,,,,,192,0,3,,,,,2,,,56,0
16512,note_on,,,,,192,0,2,,,,,1,,,60,106
16512,note_on,,,,,192,0,4,,,,,3,,,44,90
16512,note_on,,,,,192,0,1,,,,,0,,,63,115
16512,note_on,,,,,192,0,3,,,,,2,,,56,93
16608,note_off,,,,,96,0,4,,,,,3,,,44,0
16608,note_off,,,,,96,0,2,,,,,1,,,60,0
16608,note_off,,,,,96,0,1,,,,,0,,,63,0
16608,note_off,,,,,96,0,3,,,,,2,,,56,0
16704,note_on,,,,,96,0,4,,,,,3,,,44,90
16704,note_on,,,,,96,0,2,,,,,1,,,60,106
16704,note_on,,,,,96,0,1,,,,,0,,,63,115
16704,note_on,,,,,96,0,3,,,,,2,,,56,93
16896,note_off,,,,,192,0,3,,,,,2,,,56,0
17088,note_off,,,,,384,0,1,,,,,0,,,63,0
17088,note_on,,,,,0,0,1,,,,,0,,,65,115
17088,note_on,,,,,192,0,3,,,,,2,,,56,93
17088,note_off,,,,,384,0,2,,,,,1,,,60,0
17088,note_on,,,,,0,0,2,,,,,1,,,62,106
17088,note_off,,,,,384,0,4,,,,,3,,,44,0
17088,note_on,,,,,0,0,4,,,,,3,,,41,90
17184,note_off,,,,,96,0,3,,,,,2,,,56,0
17280,note_off,,,,,192,0,1,,,,,0,,,65,0
17280,note_on,,,,,0,0,2,,,,,1,,,63,106
17280,note_off,,,,,192,0,2,,,,,1,,,62,0
17280,note_off,,,,,192,0,4,,,,,3,,,41,0
17280,note_on,,,,,0,0,4,,,,,3,,,39,90
17280,note_on,,,,,96,0,3,,,,,2,,,58,93
17280,note_on,,,,,0,0,1,,,,,0,,,67,115
17664,note_on,,,,,0,0,3,,,,,2,,,56,93
17664,note_off,,,,,384,0,3,,,,,2,,,58,0
17664,note_on,,,,,0,0,4,,,,,3,,,46,90
17664,note_off,,,,,384,0,2,,,,,1,,,63,0
17664,note_off,,,,,384,0,1,,,,,0,,,67,0
17664,note_on,,,,,0,0,2,,,,,1,,,62,106
17664,note_off,,,,,384,0,4,,,,,3,,,39,0
17664,note_on,,,,,0,0,1,,,,,0,,,70,115
17856,note_off,,,,,192,0,3,,,,,2,,,56,0
17856,note_on,,,,,0,0,3,,,,,2,,,55,93
17856,note_on,,,,,0,0,1,,,,,0,,,63,115
17856,note_off,,,,,192,0,1,,,,,0,,,70,0
17856,note_on,,,,,0,0,2,,,,,1,,,63,106
17856,note_off,,,,,192,0,2,,,,,1,,,62,0
17856,note_off,,,,,192,0,4,,,,,3,,,46,0
17856,note_on,,,,,0,0,4,,,,,3,,,51,90
18048,note_on,,,,,0,0,3,,,,,2,,,51,93
18048,note_off,,,,,192,0,3,,,,,2,,,55,0
18144,note_off,,,,,96,0,3,,,,,2,,,51,0
18240,note_off,,,,,384,0,1,,,,,0,,,63,0
18240,note_off,,,,,384,0,4,,,,,3,,,51,0
18240,note_on,,,,,96,0,3,,,,,2,,,51,93
18240,note_off,,,,,384,0,2,,,,,1,,,63,0
18336,note_off,,,,,96,0,3,,,,,2,,,51,0
18432,note_on,,,,,192,0,4,,,,,3,,,51,90
18432,note_on,,,,,96,0,3,,,,,2,,,51,93
18432,note_on,,,,,192,0,1,,,,,0,,,63,115
18432,note_on,,,,,192,0,2,,,,,1,,,63,106
18624,note_off,,,,,192,0,3,,,,,2,,,51,0
18624,note_on,,,,,0,0,3,,,,,2,,,63,93
18816,note_on,,,,,0,0,3,,,,,2,,,61,93
18816,note_off,,,,,192,0,3,,,,,2,,,63,0
19008,note_on,,,,,0,0,3,,,,,2,,,60,93
19008,note_off,,,,,192,0,3,,,,,2,,,61,0
19200,note_on,,,,,0,0,1,,,,,0,,,68,115
19200,note_off,,,,,768,0,1,,,,,0,,,63,0
19392,note_off,,,,,192,0,1,,,,,0,,,68,0
19392,note_on,,,,,0,0,1,,,,,0,,,72,115
19392,note_off,,,,,384,0,3,,,,,2,,,60,0
19392,note_on,,,,,0,0,3,,,,,2,,,56,93
19584,note_off,,,,,192,0,1,,,,,0,,,72,0
19584,note_on,,,,,0,0,1,,,,,0,,,70,115
19584,note_off,,,,,192,0,3,,,,,2,,,56,0
19584,note_on,,,,,0,0,3,,,,,2,,,55,93
19776,note_on,,,,,0,0,3,,,,,2,,,58,93
19776,note_off,,,,,192,0,3,,,,,2,,,55,0
19968,note_on,,,,,0,0,3,,,,,2,,,63,93
19968,note_off,,,,,192,0,3,,,,,2,,,58,0
20160,note_off,,,,,192,0,3,,,,,2,,,63,0
20160,note_on,,,,,0,0,3,,,,,2,,,55,93
20352,note_off,,,,,192,0,3,,,,,2,,,55,0
20352,note_on,,,,,0,0,3,,,,,2,,,58,93
20352,note_off,,,,,768,0,1,,,,,0,,,70,0
20352,note_on,,,,,0,0,1,,,,,0,,,75,115
20544,note_off,,,,,192,0,3,,,,,2,,,58,0
20544,note_on,,,,,0,0,3,,,,,2,,,63,93
20544,note_on,,,,,0,0,1,,,,,0,,,67,115
20544,note_off,,,,,192,0,1,,,,,0,,,75,0
20736,note_on,,,,,0,0,2,,,,,1,,,60,106
20736,note_off,,,,,2304,0,2,,,,,1,,,63,0
20736,note_on,,,,,0,0,1,,,,,0,,,65,115
20736,note_off,,,,,192,0,1,,,,,0,,,67,0
20736,note_off,,,,,2304,0,4,,,,,3,,,51,0
20736,note_off,,,,,192,0,3,,,,,2,,,63,0
20736,note_on,,,,,0,0,3,,,,,2,,,56,93
20736,note_on,,,,,0,0,4,,,,,3,,,44,90
20928,note_off,,,,,192,0,3,,,,,2,,,56,0
20928,note_on,,,,,0,0,3,,,,,2,,,60,93
21024,note_on,,,,,0,0,1,,,,,0,,,67,115
21024,note_off,,,,,288,0,1,,,,,0,,,65,0
21120,note_on,,,,,0,0,1,,,,,0,,,68,115
21120,note_off,,,,,192,0,3,,,,,2,,,60,0
21120,note_on,,,,,0,0,3,,,,,2,,,65,93
21120,note_off,,,,,96,0,1,,,,,0,,,67,0
21264,note_off,,,,,144,0,1,,,,,0,,,68,0
21264,note_on,,,,,0,0,1,,,,,0,,,70,115
21312,note_off,,,,,48,0,1,,,,,0,,,70,0
21312,note_on,,,,,0,0,1,,,,,0,,,72,115
21312,note_off,,,,,192,0,3,,,,,2,,,65,0
21312,note_on,,,,,0,0,3,,,,,2,,,56,93
21504,note_off,,,,,192,0,3,,,,,2,,,56,0
21504,note_on,,,,,0,0,3,,,,,2,,,60,93
21696,note_on,,,,,0,0,2,,,,,1,,,65,106
21696,note_off,,,,,960,0,2,,,,,1,,,60,0
21696,note_off,,,,,384,0,1,,,,,0,,,72,0
21696,note_on,,,,,0,0,1,,,,,0,,,77,115
21696,note_on,,,,,0,0,3,,,,,2,,,60,93
21696,note_off,,,,,192,0,3,,,,,2,,,60,0
21888,note_on,,,,,0,0,1,,,,,0,,,65,115
21888,note_on,,,,,0,0,1,,,,,0,,,74,115
21888,note_on,,,,,0,0,4,,,,,3,,,56,90
21888,note_off,,,,,1152,0,4,,,,,3,,,44,0
21888,note_on,,,,,0,0,3,,,,,2,,,59,93
21888,note_off,,,,,192,0,1,,,,,0,,,77,0
21888,note_off,,,,,192,0,3,,,,,2,,,60,0
21888,note_off,,,,,192,0,2,,,,,1,,,65,0
21888,note_on,,,,,0,0,2,,,,,1,,,62,106
21888,note_on,,,,,0,0,2,,,,,1,,,71,106
22464,note_off,,,,,576,0,3,,,,,2,,,59,0
22464,note_on,,,,,0,0,2,,,,,1,,,70,106
22464,note_off,,,,,0,0,2,,,,,1,,,71,0
22464,note_on,,,,,0,0,2,,,,,1,,,62,106
22464,note_on,,,,,0,0,3,,,,,2,,,58,93
22464,note_off,,,,,576,0,2,,,,,1,,,62,0
22656,note_off,,,,,0,0,2,,,,,1,,,62,0
22656,note_off,,,,,192,0,3,,,,,2,,,58,0
22656,note_off,,,,,192,0,2,,,,,1,,,70,0
22656,note_off,,,,,768,0,1,,,,,0,,,65,0
22656,note_off,,,,,0,0,1,,,,,0,,,74,0
22656,note_off,,,,,768,0,4,,,,,3,,,56,0
22848,note_on,,,,,192,0,1,,,,,0,,,70,115
22848,note_on,,,,,192,0,3,,,,,2,,,58,93
22848,note_on,,,,,192,0,4,,,,,3,,,44,90
22848,note_on,,,,,192,0,2,,,,,1,,,62,106
23040,note_on,,,,,0,0,1,,,,,0,,,75,115
23040,note_on,,,,,0,0,2,,,,,1,,,63,106
23040,note_off,,,,,192,0,4,,,,,3,,,44,0
23040,note_on,,,,,0,0,4,,,,,3,,,43,90
23040,note_off,,,,,192,0,1,,,,,0,,,70,0
23040,note_off,,,,,192,0,2,,,,,1,,,62,0
23040,note_on,,,,,0,0,3,,,,,2,,,63,93
23040,note_off,,,,,192,0,3,,,,,2,,,58,0
23424,note_off,,,,,384,0,3,,,,,2,,,63,0
23424,note_on,,,,,0,0,3,,,,,2,,,61,93
23616,note_off,,,,,576,0,4,,,,,3,,,43,0
23616,note_on,,,,,0,0,4,,,,,3,,,44,90
23616,note_on,,,,,0,0,3,,,,,2,,,60,93
23616,note_off,,,,,192,0,3,,,,,2,,,61,0
23712,note_off,,,,,672,0,1,,,,,0,,,75,0
23712,note_on,,,,,0,0,1,,,,,0,,,71,115
23808,note_off,,,,,192,0,3,,,,,2,,,60,0
23808,note_off,,,,,192,0,4,,,,,3,,,44,0
23808,note_off,,,,,96,0,1,,,,,0,,,71,0
23808,note_on,,,,,0,0,1,,,,,0,,,74,115
23808,note_off,,,,,768,0,2,,,,,1,,,63,0
23904,note_off,,,,,96,0,1,,,,,0,,,74,0
23904,note_on,,,,,0,0,1,,,,,0,,,72,115
24000,note_off,,,,,96,0,1,,,,,0,,,72,0
24000,note_on,,,,,192,0,2,,,,,1,,,60,106
24000,note_on,,,,,0,0,1,,,,,0,,,68,115
24000,note_on,,,,,192,0,4,,,,,3,,,44,90
24000,note_on,,,,,192,0,3,,,,,2,,,56,93
24096,note_off,,,,,96,0,1,,,,,0,,,68,0
24096,note_on,,,,,0,0,1,,,,,0,,,65,115
24192,note_off,,,,,192,0,2,,,,,1,,,60,0
24192,note_on,,,,,0,0,2,,,,,1,,,58,106
24192,note_off,,,,,192,0,3,,,,,2,,,56,0
24192,note_on,,,,,0,0,3,,,,,2,,,55,93
24192,note_on,,,,,0,0,1,,,,,0,,,63,115
24192,note_off,,,,,192,0,4,,,,,3,,,44,0
24192,note_on,,,,,0,0,4,,,,,3,,,46,90
24192,note_off,,,,,96,0,1,,,,,0,,,65,0
24576,note_off,,,,,384,0,2,,,,,1,,,58,0
24576,note_on,,,,,0,0,2,,,,,1,,,57,106
24576,note_on,,,,,0,0,3,,,,,2,,,54,93
24576,note_off,,,,,384,0,3,,,,,2,,,55,0
24768,note_on,,,,,0,0,2,,,,,1,,,56,106
24768,note_on,,,,,0,0,3,,,,,2,,,53,93
24768,note_off,,,,,192,0,3,,,,,2,,,54,0
24768,note_off,,,,,192,0,2,,,,,1,,,57,0
24960,note_on,,,,,0,0,1,,,,,0,,,65,115
24960,note_off,,,,,768,0,1,,,,,0,,,63,0
25152,note_off,,,,,192,0,1,,,,,0,,,65,0
25152,note_on,,,,,0,0,1,,,,,0,,,62,115
25344,note_off,,,,,576,0,2,,,,,1,,,56,0
25344,note_on,,,,,0,0,1,,,,,0,,,63,115
25344,note_on,,,,,0,0,2,,,,,1,,,55,106
25344,note_on,,,,,0,0,4,,,,,3,,,39,90
25344,note_off,,,,,1152,0,4,,,,,3,,,46,0
25344,note_off,,,,,192,0,1,,,,,0,,,62,0
25344,note_off,,,,,576,0,3,,,,,2,,,53,0
25344,note_on,,,,,0,0,3,,,,,2,,,51,93
25728,note_on,,,,,0,0,2,,,,,1,,,67,106
25728,note_off,,,,,384,0,3,,,,,2,,,51,0
25728,note_on,,,,,0,0,3,,,,,2,,,63,93
25728,note_off,,,,,384,0,2,,,,,1,,,55,0
25728,note_off,,,,,384,0,1,,,,,0,,,63,0
25728,note_off,,,,,384,0,4,,,,,3,,,39,0
25920,note_off,,,,,192,0,2,,,,,1,,,67,0
25920,note_on,,,,,0,0,2,,,,,1,,,67,106
25920,note_off,,,,,192,0,3,,,,,2,,,63,0
25920,note_on,,,,,0,0,3,,,,,2,,,63,93
26112,note_off,,,,,192,0,3,,,,,2,,,63,0
26112,note_on,,,,,0,0,3,,,,,2,,,62,93
26112,note_off,,,,,192,0,2,,,,,1,,,67,0
26112,note_on,,,,,0,0,2,,,,,1,,,65,106
26304,note_off,,,,,192,0,3,,,,,2,,,62,0
26304,note_off,,,,,192,0,2,,,,,1,,,65,0
26304,note_on,,,,,0,0,2,,,,,1,,,63,106
26304,note_on,,,,,0,0,3,,,,,2,,,60,93
26496,note_off,,,,,192,0,3,,,,,2,,,60,0
26496,note_on,,,,,0,0,3,,,,,2,,,58,93
26496,note_on,,,,,768,0,4,,,,,3,,,46,90
26496,note_on,,,,,0,0,2,,,,,1,,,62,106
26496,note_off,,,,,192,0,2,,,,,1,,,63,0
26496,note_on,,,,,768,0,1,,,,,0,,,82,115
26544,note_off,,,,,48,0,3,,,,,2,,,58,0
26544,note_off,,,,,48,0,2,,,,,1,,,62,0
26544,note_off,,,,,48,0,4,,,,,3,,,46,0
26592,note_on,,,,,48,0,2,,,,,1,,,62,106
26592,note_on,,,,,48,0,3,,,,,2,,,53,93
26592,note_on,,,,,48,0,4,,,,,3,,,46,90
26640,note_off,,,,,48,0,2,,,,,1,,,62,0
26640,note_off,,,,,48,0,3,,,,,2,,,53,0
26640,note_off,,,,,48,0,4,,,,,3,,,46,0
26688,note_on,,,,,48,0,2,,,,,1,,,62,106
26688,note_on,,,,,48,0,4,,,,,3,,,46,90
26688,note_on,,,,,48,0,3,,,,,2,,,53,93
26736,note_off,,,,,48,0,3,,,,,2,,,53,0
26736,note_off,,,,,48,0,4,,,,,3,,,46,0
26736,note_off,,,,,48,0,2,,,,,1,,,62,0
26784,note_on,,,,,48,0,3,,,,,2,,,53,93
26784,note_on,,,,,48,0,2,,,,,1,,,62,106
26784,note_on,,,,,48,0,4,,,,,3,,,46,90
26832,note_off,,,,,48,0,2,,,,,1,,,62,0
26832,note_off,,,,,48,0,4,,,,,3,,,46,0
26832,note_off,,,,,48,0,3,,,,,2,,,53,0
26880,note_on,,,,,48,0,4,,,,,3,,,46,90
26880,note_on,,,,,48,0,2,,,,,1,,,62,106
26880,note_on,,,,,48,0,3,,,,,2,,,53,93
26928,note_off,,,,,48,0,4,,,,,3,,,46,0
26928,note_off,,,,,48,0,3,,,,,2,,,53,0
26928,note_off,,,,,48,0,2,,,,,1,,,62,0
26976,note_on,,,,,48,0,3,,,,,2,,,53,93
26976,note_on,,,,,48,0,2,,,,,1,,,62,106
26976,note_on,,,,,48,0,4,,,,,3,,,46,90
27024,note_off,,,,,48,0,3,,,,,2,,,53,0
27024,note_off,,,,,48,0,2,,,,,1,,,62,0
27024,note_off,,,,,48,0,4,,,,,3,,,46,0
27072,note_on,,,,,48,0,2,,,,,1,,,62,106
27072,note_on,,,,,48,0,4,,,,,3,,,46,90
27072,note_on,,,,,48,0,3,,,,,2,,,53,93
27264,note_off,,,,,192,0,4,,,,,3,,,46,0
27264,note_off,,,,,192,0,3,,,,,2,,,53,0
27264,note_on,,,,,0,0,1,,,,,0,,,77,115
27264,note_off,,,,,192,0,2,,,,,1,,,62,0
27264,note_off,,,,,768,0,1,,,,,0,,,82,0
27456,note_on,,,,,0,0,1,,,,,0,,,86,115
27456,note_off,,,,,192,0,1,,,,,0,,,77,0
27648,note_on,,,,,384,0,3,,,,,2,,,53,93
27648,note_on,,,,,384,0,4,,,,,3,,,50,90
27648,note_off,,,,,192,0,1,,,,,0,,,86,0
27648,note_on,,,,,0,0,1,,,,,0,,,82,115
27648,note_on,,,,,384,0,2,,,,,1,,,58,106
27696,note_off,,,,,48,0,3,,,,,2,,,53,0
27696,note_off,,,,,48,0,2,,,,,1,,,58,0
27696,note_off,,,,,48,0,4,,,,,3,,,50,0
27744,note_on,,,,,48,0,4,,,,,3,,,50,90
27744,note_on,,,,,48,0,3,,,,,2,,,53,93
27744,note_on,,,,,48,0,2,,,,,1,,,58,106
27792,note_off,,,,,48,0,3,,,,,2,,,53,0
27792,note_off,,,,,48,0,2,,,,,1,,,58,0
27792,note_off,,,,,48,0,4,,,,,3,,,50,0
27840,note_on,,,,,48,0,3,,,,,2,,,53,93
27840,note_on,,,,,48,0,2,,,,,1,,,58,106
27840,note_on,,,,,48,0,4,,,,,3,,,50,90
27888,note_off,,,,,48,0,4,,,,,3,,,50,0
27888,note_off,,,,,48,0,2,,,,,1,,,58,0
27888,note_off,,,,,48,0,3,,,,,2,,,53,0
27936,note_on,,,,,48,0,4,,,,,3,,,50,90
27936,note_on,,,,,48,0,2,,,,,1,,,58,106
27936,note_on,,,,,48,0,3,,,,,2,,,53,93
27984,note_off,,,,,48,0,4,,,,,3,,,50,0
27984,note_off,,,,,48,0,3,,,,,2,,,53,0
27984,note_off,,,,,48,0,2,,,,,1,,,58,0
28032,note_on,,,,,48,0,4,,,,,3,,,50,90
28032,note_on,,,,,48,0,3,,,,,2,,,53,93
28032,note_on,,,,,48,0,2,,,,,1,,,58,106
28080,note_off,,,,,48,0,2,,,,,1,,,58,0
28080,note_off,,,,,48,0,3,,,,,2,,,53,0
28080,note_off,,,,,48,0,4,,,,,3,,,50,0
28128,note_on,,,,,48,0,3,,,,,2,,,53,93
28128,note_on,,,,,48,0,2,,,,,1,,,58,106
28128,note_on,,,,,48,0,4,,,,,3,,,50,90
28176,note_off,,,,,48,0,2,,,,,1,,,58,0
28176,note_off,,,,,48,0,3,,,,,2,,,53,0
28176,note_off,,,,,48,0,4,,,,,3,,,50,0
28224,note_on,,,,,48,0,3,,,,,2,,,53,93
28224,note_on,,,,,48,0,4,,,,,3,,,50,90
28224,note_on,,,,,48,0,2,,,,,1,,,58,106
28416,note_off,,,,,192,0,2,,,,,1,,,58,0
28416,note_off,,,,,192,0,3,,,,,2,,,53,0
28416,note_off,,,,,192,0,4,,,,,3,,,50,0
28416,note_off,,,,,768,0,1,,,,,0,,,82,0
28416,note_on,,,,,0,0,1,,,,,0,,,77,115
28608,note_off,,,,,192,0,1,,,,,0,,,77,0
28608,note_on,,,,,0,0,1,,,,,0,,,74,115
28800,note_on,,,,,384,0,3,,,,,2,,,55,93
28800,note_off,,,,,192,0,1,,,,,0,,,74,0
28800,note_on,,,,,0,0,1,,,,,0,,,72,115
28800,note_on,,,,,384,0,4,,,,,3,,,51,90
28800,note_on,,,,,384,0,2,,,,,1,,,60,106
28848,note_off,,,,,48,0,4,,,,,3,,,51,0
28848,note_off,,,,,48,0,3,,,,,2,,,55,0
28848,note_off,,,,,48,0,2,,,,,1,,,60,0
28896,note_on,,,,,48,0,4,,,,,3,,,51,90
28896,note_on,,,,,48,0,3,,,,,2,,,55,93
28896,note_on,,,,,48,0,2,,,,,1,,,60,106
28944,note_off,,,,,48,0,4,,,,,3,,,51,0
28944,note_off,,,,,48,0,3,,,,,2,,,55,0
28944,note_off,,,,,48,0,2,,,,,1,,,60,0
28992,note_on,,,,,48,0,4,,,,,3,,,51,90
28992,note_on,,,,,48,0,3,,,,,2,,,55,93
28992,note_on,,,,,48,0,2,,,,,1,,,60,106
29040,note_off,,,,,48,0,2,,,,,1,,,60,0
29040,note_off,,,,,48,0,3,,,,,2,,,55,0
29040,note_off,,,,,48,0,4,,,,,3,,,51,0
29088,note_on,,,,,48,0,2,,,,,1,,,60,106
29088,note_on,,,,,48,0,3,,,,,2,,,55,93
29088,note_on,,,,,48,0,4,,,,,3,,,51,90
29136,note_off,,,,,48,0,2,,,,,1,,,60,0
29136,note_off,,,,,48,0,4,,,,,3,,,51,0
29136,note_off,,,,,48,0,3,,,,,2,,,55,0
29184,note_on,,,,,48,0,4,,,,,3,,,51,90
29184,note_on,,,,,48,0,2,,,,,1,,,60,106
29184,note_on,,,,,48,0,3,,,,,2,,,55,93
29232,note_off,,,,,48,0,4,,,,,3,,,51,0
29232,note_off,,,,,48,0,2,,,,,1,,,60,0
29232,note_off,,,,,48,0,3,,,,,2,,,55,0
29280,note_on,,,,,48,0,3,,,,,2,,,55,93
29280,note_on,,,,,48,0,4,,,,,3,,,51,90
29280,note_on,,,,,48,0,2,,,,,1,,,60,106
29328,note_off,,,,,48,0,2,,,,,1,,,60,0
29328,note_off,,,,,48,0,3,,,,,2,,,55,0
29328,note_off,,,,,48,0,4,,,,,3,,,51,0
29376,note_on,,,,,48,0,2,,,,,1,,,60,106
29376,note_on,,,,,48,0,4,,,,,3,,,51,90
29376,note_on,,,,,48,0,3,,,,,2,,,55,93
29568,note_off,,,,,192,0,2,,,,,1,,,60,0
29568,note_off,,,,,192,0,3,,,,,2,,,55,0
29568,note_off,,,,,192,0,4,,,,,3,,,51,0
29568,note_off,,,,,768,0,1,,,,,0,,,72,0
29568,note_on,,,,,0,0,1,,,,,0,,,75,115
29760,note_off,,,,,192,0,1,,,,,0,,,75,0
29760,note_on,,,,,0,0,1,,,,,0,,,79,115
29952,note_on,,,,,384,0,2,,,,,1,,,60,106
29952,note_off,,,,,192,0,1,,,,,0,,,79,0
29952,note_on,,,,,0,0,1,,,,,0,,,77,115
29952,note_on,,,,,384,0,3,,,,,2,,,57,93
29952,note_on,,,,,384,0,4,,,,,3,,,53,90
30000,note_off,,,,,48,0,3,,,,,2,,,57,0
30000,note_off,,,,,48,0,4,,,,,3,,,53,0
30000,note_off,,,,,48,0,2,,,,,1,,,60,0
30048,note_on,,,,,48,0,4,,,,,3,,,53,90
30048,note_on,,,,,48,0,2,,,,,1,,,60,106
30048,note_on,,,,,48,0,3,,,,,2,,,57,93
30096,note_off,,,,,48,0,3,,,,,2,,,57,0
30096,note_off,,,,,48,0,4,,,,,3,,,53,0
30096,note_off,,,,,48,0,2,,,,,1,,,60,0
30144,note_on,,,,,48,0,4,,,,,3,,,53,90
30144,note_on,,,,,48,0,2,,,,,1,,,60,106
30144,note_on,,,,,48,0,3,,,,,2,,,57,93
30192,note_off,,,,,48,0,4,,,,,3,,,53,0
30192,note_off,,,,,48,0,2,,,,,1,,,60,0
30192,note_off,,,,,48,0,3,,,,,2,,,57,0
30240,note_on,,,,,48,0,2,,,,,1,,,60,106
30240,note_on,,,,,48,0,4,,,,,3,,,53,90
30240,note_on,,,,,48,0,3,,,,,2,,,57,93
30288,note_off,,,,,48,0,3,,,,,2,,,57,0
30288,note_off,,,,,48,0,2,,,,,1,,,60,0
30288,note_off,,,,,48,0,4,,,,,3,,,53,0
30336,note_on,,,,,48,0,3,,,,,2,,,57,93
30336,note_on,,,,,48,0,2,,,,,1,,,60,106
30336,note_on,,,,,48,0,4,,,,,3,,,53,90
30384,note_off,,,,,48,0,4,,,,,3,,,53,0
30384,note_off,,,,,48,0,2,,,,,1,,,60,0
30384,note_off,,,,,48,0,3,,,,,2,,,57,0
30432,note_on,,,,,48,0,4,,,,,3,,,53,90
30432,note_on,,,,,48,0,3,,,,,2,,,57,93
30432,note_on,,,,,48,0,2,,,,,1,,,60,106
30480,note_off,,,,,48,0,2,,,,,1,,,60,0
30480,note_off,,,,,48,0,4,,,,,3,,,53,0
30480,note_off,,,,,48,0,3,,,,,2,,,57,0
30528,note_on,,,,,48,0,2,,,,,1,,,60,106
30528,note_on,,,,,48,0,3,,,,,2,,,57,93
30528,note_on,,,,,48,0,4,,,,,3,,,53,90
30720,note_off,,,,,192,0,3,,,,,2,,,57,0
30720,note_off,,,,,192,0,2,,,,,1,,,60,0
30720,note_on,,,,,0,0,1,,,,,0,,,79,115
30720,note_off,,,,,768,0,1,,,,,0,,,77,0
30720,note_off,,,,,192,0,4,,,,,3,,,53,0
30912,note_on,,,,,0,0,1,,,,,0,,,75,115
30912,note_off,,,,,192,0,1,,,,,0,,,79,0
31104,note_on,,,,,0,0,1,,,,,0,,,74,115
31104,note_on,,,,,384,0,3,,,,,2,,,58,93
31104,note_off,,,,,192,0,1,,,,,0,,,75,0
31104,note_on,,,,,384,0,2,,,,,1,,,62,106
31104,note_on,,,,,384,0,4,,,,,3,,,46,90
31152,note_off,,,,,48,0,4,,,,,3,,,46,0
31200,note_on,,,,,48,0,4,,,,,3,,,46,90
31248,note_off,,,,,48,0,4,,,,,3,,,46,0
31296,note_off,,,,,192,0,1,,,,,0,,,74,0
31296,note_off,,,,,192,0,3,,,,,2,,,58,0
31296,note_on,,,,,0,0,3,,,,,2,,,53,93
31296,note_on,,,,,48,0,4,,,,,3,,,46,90
31344,note_off,,,,,48,0,4,,,,,3,,,46,0
31392,note_on,,,,,48,0,4,,,,,3,,,46,90
31440,note_off,,,,,48,0,4,,,,,3,,,46,0
31488,note_on,,,,,48,0,4,,,,,3,,,46,90
31488,note_on,,,,,0,0,3,,,,,2,,,58,93
31488,note_off,,,,,192,0,3,,,,,2,,,53,0
31536,note_off,,,,,48,0,4,,,,,3,,,46,0
31584,note_on,,,,,48,0,4,,,,,3,,,46,90
31632,note_off,,,,,48,0,4,,,,,3,,,46,0
31680,note_on,,,,,0,0,3,,,,,2,,,57,93
31680,note_on,,,,,0,0,2,,,,,1,,,63,106
31680,note_off,,,,,576,0,2,,,,,1,,,62,0
31680,note_on,,,,,384,0,1,,,,,0,,,77,115
31680,note_off,,,,,192,0,3,,,,,2,,,58,0
31680,note_on,,,,,48,0,4,,,,,3,,,46,90
31728,note_off,,,,,48,0,1,,,,,0,,,77,0
31776,note_on,,,,,48,0,1,,,,,0,,,77,115
31824,note_off,,,,,48,0,1,,,,,0,,,77,0
31872,note_on,,,,,0,0,3,,,,,2,,,53,93
31872,note_off,,,,,192,0,3,,,,,2,,,57,0
31872,note_on,,,,,48,0,1,,,,,0,,,77,115
31920,note_off,,,,,48,0,1,,,,,0,,,77,0
31968,note_on,,,,,48,0,1,,,,,0,,,77,115
32016,note_off,,,,,48,0,1,,,,,0,,,77,0
32064,note_on,,,,,48,0,1,,,,,0,,,77,115
32064,note_off,,,,,192,0,3,,,,,2,,,53,0
32064,note_on,,,,,0,0,3,,,,,2,,,57,93
32112,note_off,,,,,48,0,1,,,,,0,,,77,0
32160,note_on,,,,,48,0,1,,,,,0,,,77,115
32208,note_off,,,,,48,0,1,,,,,0,,,77,0
32256,note_off,,,,,576,0,2,,,,,1,,,63,0
32256,note_on,,,,,0,0,2,,,,,1,,,62,106
32256,note_off,,,,,192,0,3,,,,,2,,,57,0
32256,note_on,,,,,48,0,1,,,,,0,,,77,115
32256,note_on,,,,,0,0,3,,,,,2,,,58,93
32352,note_on,,,,,0,0,4,,,,,3,,,46,90
32352,note_off,,,,,672,0,4,,,,,3,,,46,0
32400,note_off,,,,,48,0,4,,,,,3,,,46,0
32448,note_on,,,,,0,0,3,,,,,2,,,53,93
32448,note_off,,,,,192,0,1,,,,,0,,,77,0
32448,note_off,,,,,192,0,3,,,,,2,,,58,0
32448,note_on,,,,,48,0,4,,,,,3,,,46,90
32496,note_off,,,,,48,0,4,,,,,3,,,46,0
32544,note_on,,,,,48,0,4,,,,,3,,,46,90
32592,note_off,,,,,48,0,4,,,,,3,,,46,0
32640,note_on,,,,,48,0,4,,,,,3,,,46,90
32640,note_on,,,,,0,0,3,,,,,2,,,58,93
32640,note_off,,,,,192,0,3,,,,,2,,,53,0
32688,note_off,,,,,48,0,4,,,,,3,,,46,0
32736,note_on,,,,,48,0,4,,,,,3,,,46,90
32784,note_off,,,,,48,0,4,,,,,3,,,46,0
32832,note_on,,,,,0,0,2,,,,,1,,,63,106
32832,note_on,,,,,0,0,3,,,,,2,,,57,93
32832,note_on,,,,,48,0,4,,,,,3,,,46,90
32832,note_on,,,,,384,0,1,,,,,0,,,77,115
32832,note_off,,,,,192,0,3,,,,,2,,,58,0
32832,note_off,,,,,576,0,2,,,,,1,,,62,0
32880,note_off,,,,,48,0,1,,,,,0,,,77,0
32928,note_on,,,,,48,0,1,,,,,0,,,77,115
32976,note_off,,,,,48,0,1,,,,,0,,,77,0
33024,note_on,,,,,48,0,1,,,,,0,,,77,115
33024,note_on,,,,,0,0,3,,,,,2,,,53,93
33024,note_off,,,,,192,0,3,,,,,2,,,57,0
33072,note_off,,,,,48,0,1,,,,,0,,,77,0
33120,note_on,,,,,48,0,1,,,,,0,,,77,115
33168,note_off,,,,,48,0,1,,,,,0,,,77,0
33216,note_on,,,,,0,0,3,,,,,2,,,57,93
33216,note_off,,,,,192,0,3,,,,,2,,,53,0
33216,note_on,,,,,48,0,1,,,,,0,,,77,115
33264,note_off,,,,,48,0,1,,,,,0,,,77,0
33312,note_on,,,,,48,0,1,,,,,0,,,77,115
33360,note_off,,,,,48,0,1,,,,,0,,,77,0
33408,note_on,,,,,0,0,2,,,,,1,,,62,106
33408,note_off,,,,,576,0,2,,,,,1,,,63,0
33408,note_on,,,,,48,0,1,,,,,0,,,77,115
33408,note_off,,,,,192,0,3,,,,,2,,,57,0
33408,note_on,,,,,0,0,3,,,,,2,,,58,93
33504,note_off,,,,,672,0,4,,,,,3,,,46,0
33504,note_on,,,,,0,0,4,,,,,3,,,46,90
33552,note_off,,,,,48,0,4,,,,,3,,,46,0
33600,note_off,,,,,192,0,3,,,,,2,,,58,0
33600,note_on,,,,,0,0,3,,,,,2,,,53,93
33600,note_on,,,,,48,0,4,,,,,3,,,46,90
33648,note_off,,,,,48,0,4,,,,,3,,,46,0
33696,note_on,,,,,48,0,4,,,,,3,,,46,90
33744,note_off,,,,,48,0,4,,,,,3,,,46,0
33792,note_off,,,,,192,0,3,,,,,2,,,53,0
33792,note_on,,,,,48,0,4,,,,,3,,,46,90
33792,note_on,,,,,0,0,3,,,,,2,,,58,93
33840,note_off,,,,,48,0,4,,,,,3,,,46,0
33888,note_on,,,,,48,0,4,,,,,3,,,46,90
33936,note_off,,,,,48,0,4,,,,,3,,,46,0
33984,note_on,,,,,48,0,4,,,,,3,,,46,90
33984,note_off,,,,,576,0,2,,,,,1,,,62,0
33984,note_off,,,,,192,0,3,,,,,2,,,58,0
33984,note_on,,,,,0,0,3,,,,,2,,,62,93
33984,note_on,,,,,0,0,2,,,,,1,,,65,106
34176,note_off,,,,,192,0,3,,,,,2,,,62,0
34176,note_on,,,,,0,0,3,,,,,2,,,58,93
34368,note_off,,,,,192,0,3,,,,,2,,,58,0
34368,note_off,,,,,384,0,4,,,,,3,,,46,0
34368,note_on,,,,,0,0,4,,,,,3,,,39,90
34368,note_off,,,,,384,0,2,,,,,1,,,65,0
34368,note_on,,,,,0,0,2,,,,,1,,,67,106
34368,note_off,,,,,960,0,1,,,,,0,,,77,0
34368,note_on,,,,,0,0,1,,,,,0,,,79,115
34368,note_on,,,,,0,0,3,,,,,2,,,63,93
34560,note_on,,,,,0,0,4,,,,,3,,,41,90
34560,note_off,,,,,192,0,2,,,,,1,,,67,0
34560,note_off,,,,,192,0,4,,,,,3,,,39,0
34560,note_on,,,,,0,0,2,,,,,1,,,60,106
34560,note_on,,,,,0,0,3,,,,,2,,,57,93
34560,note_on,,,,,0,0,1,,,,,0,,,72,115
34560,note_off,,,,,192,0,3,,,,,2,,,63,0
34560,note_off,,,,,192,0,1,,,,,0,,,79,0
34752,note_on,,,,,0,0,2,,,,,1,,,57,106
34752,note_off,,,,,192,0,3,,,,,2,,,57,0
34752,note_on,,,,,0,0,3,,,,,2,,,53,93
34752,note_off,,,,,192,0,2,,,,,1,,,60,0
34848,note_off,,,,,288,0,1,,,,,0,,,72,0
34848,note_on,,,,,0,0,1,,,,,0,,,74,115
34944,note_on,,,,,0,0,3,,,,,2,,,57,93
34944,note_off,,,,,192,0,2,,,,,1,,,57,0
34944,note_on,,,,,0,0,2,,,,,1,,,60,106
34944,note_off,,,,,192,0,3,,,,,2,,,53,0
34944,note_off,,,,,96,0,1,,,,,0,,,74,0
34944,note_on,,,,,0,0,1,,,,,0,,,75,115
35088,note_off,,,,,144,0,1,,,,,0,,,75,0
35088,note_on,,,,,0,0,1,,,,,0,,,77,115
35136,note_on,,,,,0,0,1,,,,,0,,,74,115
35136,note_off,,,,,576,0,4,,,,,3,,,41,0
35136,note_on,,,,,0,0,3,,,,,2,,,58,93
35136,note_off,,,,,192,0,3,,,,,2,,,57,0
35136,note_on,,,,,0,0,2,,,,,1,,,62,106
35136,note_off,,,,,192,0,2,,,,,1,,,60,0
35136,note_off,,,,,48,0,1,,,,,0,,,77,0
35136,note_on,,,,,0,0,4,,,,,3,,,46,90
35328,note_on,,,,,0,0,3,,,,,2,,,62,93
35328,note_on,,,,,0,0,2,,,,,1,,,58,106
35328,note_off,,,,,192,0,2,,,,,1,,,62,0
35328,note_off,,,,,192,0,3,,,,,2,,,58,0
35520,note_on,,,,,0,0,2,,,,,1,,,62,106
35520,note_off,,,,,192,0,2,,,,,1,,,58,0
35520,note_off,,,,,192,0,3,,,,,2,,,62,0
35520,note_off,,,,,384,0,1,,,,,0,,,74,0
35520,note_on,,,,,0,0,1,,,,,0,,,82,115
35520,note_off,,,,,384,0,4,,,,,3,,,46,0
35520,note_on,,,,,0,0,3,,,,,2,,,58,93
35712,note_off,,,,,192,0,1,,,,,0,,,82,0
35712,note_on,,,,,0,0,1,,,,,0,,,77,115
35712,note_on,,,,,192,0,4,,,,,3,,,46,90
35712,note_on,,,,,0,0,3,,,,,2,,,62,93
35712,note_off,,,,,192,0,3,,,,,2,,,58,0
35712,note_on,,,,,0,0,2,,,,,1,,,65,106
35712,note_off,,,,,192,0,2,,,,,1,,,62,0
35904,note_on,,,,,0,0,3,,,,,2,,,58,93
35904,note_on,,,,,0,0,2,,,,,1,,,62,106
35904,note_off,,,,,192,0,2,,,,,1,,,65,0
35904,note_off,,,,,192,0,3,,,,,2,,,62,0
36096,note_off,,,,,192,0,3,,,,,2,,,58,0
36096,note_on,,,,,0,0,3,,,,,2,,,62,93
36096,note_on,,,,,0,0,3,,,,,2,,,60,93
36096,note_off,,,,,192,0,2,,,,,1,,,62,0
36096,note_on,,,,,0,0,2,,,,,1,,,65,106
36096,note_off,,,,,384,0,4,,,,,3,,,46,0
36096,note_on,,,,,0,0,4,,,,,3,,,44,90
36288,note_on,,,,,0,0,3,,,,,2,,,59,93
36288,note_off,,,,,192,0,3,,,,,2,,,62,0
36288,note_on,,,,,0,0,4,,,,,3,,,43,90
36288,note_off,,,,,192,0,2,,,,,1,,,65,0
36288,note_on,,,,,0,0,2,,,,,1,,,65,106
36288,note_off,,,,,0,0,3,,,,,2,,,60,0
36288,note_on,,,,,0,0,3,,,,,2,,,62,93
36288,note_off,,,,,192,0,4,,,,,3,,,44,0
36480,note_on,,,,,0,0,1,,,,,0,,,78,115
36480,note_off,,,,,768,0,1,,,,,0,,,77,0
36480,note_off,,,,,192,0,2,,,,,1,,,65,0
36480,note_on,,,,,0,0,2,,,,,1,,,62,106
36672,note_on,,,,,0,0,1,,,,,0,,,79,115
36672,note_off,,,,,192,0,1,,,,,0,,,78,0
36672,note_on,,,,,0,0,4,,,,,3,,,39,90
36672,note_off,,,,,384,0,4,,,,,3,,,43,0
36672,note_on,,,,,0,0,2,,,,,1,,,63,106
36672,note_off,,,,,384,0,3,,,,,2,,,62,0
36672,note_on,,,,,0,0,3,,,,,2,,,58,93
36672,note_on,,,,,0,0,3,,,,,2,,,63,93
36672,note_off,,,,,192,0,2,,,,,1,,,62,0
36672,note_off,,,,,0,0,3,,,,,2,,,59,0
36864,note_off,,,,,192,0,3,,,,,2,,,58,0
36864,note_off,,,,,0,0,3,,,,,2,,,63,0
36864,note_on,,,,,0,0,3,,,,,2,,,57,93
36864,note_off,,,,,192,0,4,,,,,3,,,39,0
36864,note_on,,,,,0,0,4,,,,,3,,,41,90
36864,note_on,,,,,0,0,1,,,,,0,,,72,115
36864,note_off,,,,,192,0,1,,,,,0,,,79,0
36864,note_on,,,,,0,0,2,,,,,1,,,60,106
36864,note_off,,,,,192,0,2,,,,,1,,,63,0
37056,note_on,,,,,0,0,2,,,,,1,,,57,106
37056,note_off,,,,,192,0,3,,,,,2,,,57,0
37056,note_on,,,,,0,0,3,,,,,2,,,53,93
37056,note_off,,,,,192,0,2,,,,,1,,,60,0
37152,note_off,,,,,288,0,1,,,,,0,,,72,0
37152,note_on,,,,,0,0,1,,,,,0,,,74,115
37248,note_on,,,,,0,0,2,,,,,1,,,60,106
37248,note_on,,,,,0,0,3,,,,,2,,,57,93
37248,note_off,,,,,192,0,2,,,,,1,,,57,0
37248,note_off,,,,,192,0,3,,,,,2,,,53,0
37248,note_on,,,,,0,0,1,,,,,0,,,75,115
37248,note_off,,,,,96,0,1,,,,,0,,,74,0
37392,note_off,,,,,144,0,1,,,,,0,,,75,0
37392,note_on,,,,,0,0,1,,,,,0,,,77,115
37440,note_on,,,,,0,0,4,,,,,3,,,46,90
37440,note_off,,,,,192,0,2,,,,,1,,,60,0
37440,note_on,,,,,0,0,2,,,,,1,,,62,106
37440,note_off,,,,,576,0,4,,,,,3,,,41,0
37440,note_on,,,,,0,0,3,,,,,2,,,58,93
37440,note_on,,,,,0,0,1,,,,,0,,,74,115
37440,note_off,,,,,192,0,3,,,,,2,,,57,0
37440,note_off,,,,,48,0,1,,,,,0,,,77,0
37632,note_on,,,,,0,0,3,,,,,2,,,62,93
37632,note_on,,,,,0,0,2,,,,,1,,,65,106
37632,note_off,,,,,192,0,2,,,,,1,,,62,0
37632,note_off,,,,,192,0,1,,,,,0,,,74,0
37632,note_off,,,,,192,0,3,,,,,2,,,58,0
37824,note_on,,,,,0,0,3,,,,,2,,,58,93
37824,note_on,,,,,0,0,2,,,,,1,,,62,106
37824,note_off,,,,,384,0,4,,,,,3,,,46,0
37824,note_off,,,,,192,0,2,,,,,1,,,65,0
37824,note_off,,,,,192,0,3,,,,,2,,,62,0
38016,note_on,,,,,0,0,3,,,,,2,,,57,93
38016,note_off,,,,,192,0,3,,,,,2,,,58,0
38016,note_on,,,,,0,0,2,,,,,1,,,63,106
38016,note_off,,,,,192,0,2,,,,,1,,,62,0
38016,note_on,,,,,384,0,1,,,,,0,,,77,115
38064,note_off,,,,,48,0,1,,,,,0,,,77,0
38112,note_on,,,,,48,0,1,,,,,0,,,77,115
38160,note_off,,,,,48,0,1,,,,,0,,,77,0
38208,note_on,,,,,48,0,1,,,,,0,,,77,115
38208,note_off,,,,,192,0,3,,,,,2,,,57,0
38208,note_on,,,,,0,0,3,,,,,2,,,53,93
38256,note_off,,,,,48,0,1,,,,,0,,,77,0
38304,note_on,,,,,48,0,1,,,,,0,,,77,115
38352,note_off,,,,,48,0,1,,,,,0,,,77,0
38400,note_on,,,,,48,0,1,,,,,0,,,77,115
38400,note_off,,,,,192,0,3,,,,,2,,,53,0
38400,note_on,,,,,0,0,3,,,,,2,,,57,93
38448,note_off,,,,,48,0,1,,,,,0,,,77,0
38496,note_on,,,,,48,0,1,,,,,0,,,77,115
38544,note_off,,,,,48,0,1,,,,,0,,,77,0
38592,note_on,,,,,48,0,1,,,,,0,,,77,115
38592,note_on,,,,,0,0,2,,,,,1,,,62,106
38592,note_on,,,,,768,0,4,,,,,3,,,46,90
38592,note_on,,,,,0,0,3,,,,,2,,,58,93
38592,note_off,,,,,576,0,2,,,,,1,,,63,0
38592,note_off,,,,,192,0,3,,,,,2,,,57,0
38640,note_off,,,,,48,0,4,,,,,3,,,46,0
38688,note_on,,,,,48,0,4,,,,,3,,,46,90
38736,note_off,,,,,48,0,4,,,,,3,,,46,0
38784,note_on,,,,,0,0,3,,,,,2,,,53,93
38784,note_off,,,,,192,0,3,,,,,2,,,58,0
38784,note_on,,,,,48,0,4,,,,,3,,,46,90
38832,note_off,,,,,48,0,4,,,,,3,,,46,0
38880,note_on,,,,,48,0,4,,,,,3,,,46,90
38928,note_off,,,,,48,0,4,,,,,3,,,46,0
38976,note_off,,,,,192,0,3,,,,,2,,,53,0
38976,note_on,,,,,0,0,3,,,,,2,,,58,93
38976,note_on,,,,,48,0,4,,,,,3,,,46,90
38976,note_on,,,,,0,0,1,,,,,0,,,82,115
38976,note_off,,,,,384,0,1,,,,,0,,,77,0
39024,note_off,,,,,48,0,4,,,,,3,,,46,0
39072,note_on,,,,,48,0,4,,,,,3,,,46,90
39120,note_off,,,,,48,0,4,,,,,3,,,46,0
39168,note_off,,,,,576,0,2,,,,,1,,,62,0
39168,note_on,,,,,48,0,4,,,,,3,,,46,90
39168,note_on,,,,,0,0,3,,,,,2,,,57,93
39168,note_on,,,,,0,0,1,,,,,0,,,77,115
39168,note_off,,,,,192,0,1,,,,,0,,,82,0
39168,note_off,,,,,192,0,3,,,,,2,,,58,0
39168,note_on,,,,,0,0,2,,,,,1,,,63,106
39216,note_off,,,,,48,0,1,,,,,0,,,77,0
39264,note_on,,,,,48,0,1,,,,,0,,,77,115
39312,note_off,,,,,48,0,1,,,,,0,,,77,0
39360,note_on,,,,,0,0,3,,,,,2,,,53,93
39360,note_off,,,,,192,0,3,,,,,2,,,57,0
39360,note_on,,,,,48,0,1,,,,,0,,,77,115
39408,note_off,,,,,48,0,1,,,,,0,,,77,0
39456,note_on,,,,,48,0,1,,,,,0,,,77,115
39504,note_off,,,,,48,0,1,,,,,0,,,77,0
39552,note_on,,,,,0,0,3,,,,,2,,,57,93
39552,note_on,,,,,48,0,1,,,,,0,,,77,115
39552,note_off,,,,,192,0,3,,,,,2,,,53,0
39600,note_off,,,,,48,0,1,,,,,0,,,77,0
39648,note_on,,,,,48,0,1,,,,,0,,,77,115
39696,note_off,,,,,48,0,1,,,,,0,,,77,0
39744,note_off,,,,,576,0,2,,,,,1,,,63,0
39744,note_off,,,,,192,0,3,,,,,2,,,57,0
39744,note_on,,,,,0,0,3,,,,,2,,,58,93
39744,note_on,,,,,48,0,1,,,,,0,,,77,115
39744,note_on,,,,,0,0,2,,,,,1,,,62,106
39840,note_off,,,,,672,0,4,,,,,3,,,46,0
39840,note_on,,,,,0,0,4,,,,,3,,,46,90
39888,note_off,,,,,48,0,4,,,,,3,,,46,0
39936,note_off,,,,,192,0,1,,,,,0,,,77,0
39936,note_on,,,,,48,0,4,,,,,3,,,46,90
39936,note_off,,,,,192,0,3,,,,,2,,,58,0
39936,note_on,,,,,0,0,3,,,,,2,,,53,93
39984,note_off,,,,,48,0,4,,,,,3,,,46,0
40032,note_on,,,,,48,0,4,,,,,3,,,46,90
40080,note_off,,,,,48,0,4,,,,,3,,,46,0
40128,note_on,,,,,48,0,4,,,,,3,,,46,90
40128,note_on,,,,,0,0,3,,,,,2,,,58,93
40128,note_off,,,,,192,0,3,,,,,2,,,53,0
40176,note_off,,,,,48,0,4,,,,,3,,,46,0
40224,note_on,,,,,48,0,4,,,,,3,,,46,90
40272,note_off,,,,,48,0,4,,,,,3,,,46,0
40320,note_on,,,,,0,0,2,,,,,1,,,62,106
40320,note_on,,,,,384,0,1,,,,,0,,,74,1
40320,note_on,,,,,0,0,1,,,,,0,,,65,1
40320,note_on,,,,,48,0,4,,,,,3,,,46,90
40320,note_on,,,,,0,0,5,,,,,4,,,65,84
40320,note_off,,,,,576,0,2,,,,,1,,,62,0
40320,note_on,,,,,40320,0,5,,,,,4,,,74,84
40320,note_off,,,,,192,0,3,,,,,2,,,58,0
40320,note_on,,,,,0,0,3,,,,,2,,,58,93
40512,note_off,,,,,192,0,5,,,,,4,,,74,0
40512,note_off,,,,,0,0,5,,,,,4,,,65,0
40512,note_off,,,,,192,0,3,,,,,2,,,58,0
40512,note_on,,,,,0,0,3,,,,,2,,,53,93
40512,note_off,,,,,192,0,1,,,,,0,,,74,0
40512,note_off,,,,,0,0,1,,,,,0,,,65,0
40704,note_off,,,,,192,0,3,,,,,2,,,53,0
40704,note_on,,,,,0,0,3,,,,,2,,,58,93
40896,note_on,,,,,0,0,5,,,,,4,,,70,84
40896,note_on,,,,,384,0,1,,,,,0,,,62,1
40896,note_on,,,,,0,0,3,,,,,2,,,58,93
40896,note_off,,,,,192,0,3,,,,,2,,,58,0
40896,note_on,,,,,384,0,5,,,,,4,,,62,84
40896,note_on,,,,,0,0,1,,,,,0,,,70,1
41088,note_off,,,,,192,0,1,,,,,0,,,62,0
41088,note_off,,,,,192,0,5,,,,,4,,,62,0
41088,note_off,,,,,192,0,3,,,,,2,,,58,0
41088,note_on,,,,,0,0,3,,,,,2,,,53,93
41088,note_off,,,,,0,0,5,,,,,4,,,70,0
41088,note_off,,,,,0,0,1,,,,,0,,,70,0
41280,note_off,,,,,192,0,3,,,,,2,,,53,0
41280,note_on,,,,,0,0,3,,,,,2,,,58,93
41472,note_on,,,,,384,0,1,,,,,0,,,58,115
41472,note_on,,,,,0,0,2,,,,,1,,,62,106
41472,note_off,,,,,1152,0,2,,,,,1,,,62,0
41472,note_off,,,,,192,0,3,,,,,2,,,58,0
41472,note_on,,,,,0,0,3,,,,,2,,,53,93
42624,note_off,,,,,1152,0,3,,,,,2,,,53,0
42624,note_off,,,,,1152,0,1,,,,,0,,,58,0
42624,note_off,,,,,2304,0,4,,,,,3,,,46,0
42624,note_off,,,,,1152,0,2,,,,,1,,,62,0
42624,note_on,,,,,0,0,3,,,,,2,,,58,93
42720,note_on,,,,,0,0,3,,,,,2,,,58,93
42720,note_off,,,,,96,0,3,,,,,2,,,58,0
42816,note_on,,,,,0,0,3,,,,,2,,,58,93
42816,note_off,,,,,96,0,3,,,,,2,,,58,0
42912,note_on,,,,,0,0,3,,,,,2,,,58,93
42912,note_off,,,,,96,0,3,,,,,2,,,58,0
43008,note_on,,,,,0,0,3,,,,,2,,,58,93
43008,note_off,,,,,96,0,3,,,,,2,,,58,0
43104,note_on,,,,,0,0,3,,,,,2,,,58,93
43104,note_off,,,,,96,0,3,,,,,2,,,58,0
43200,note_on,,,,,0,0,3,,,,,2,,,58,93
43200,note_off,,,,,96,0,3,,,,,2,,,58,0
43296,note_off,,,,,96,0,3,,,,,2,,,58,0
43296,note_on,,,,,0,0,3,,,,,2,,,58,93
43392,note_off,,,,,96,0,3,,,,,2,,,58,0
43392,note_on,,,,,0,0,3,,,,,2,,,58,93
43488,note_off,,,,,96,0,3,,,,,2,,,58,0
43488,note_on,,,,,0,0,3,,,,,2,,,58,93
43584,note_off,,,,,96,0,3,,,,,2,,,58,0
43584,note_on,,,,,0,0,3,,,,,2,,,58,93
43680,note_off,,,,,96,0,3,,,,,2,,,58,0
43680,note_on,,,,,0,0,3,,,,,2,,,58,93
43776,note_off,,,,,96,0,3,,,,,2,,,58,0
43776,note_on,,,,,0,0,3,,,,,2,,,58,93
43776,note_on,,,,,1152,0,1,,,,,0,,,77,115
43776,note_on,,,,,1152,0,2,,,,,1,,,62,106
43776,note_on,,,,,1152,0,4,,,,,3,,,56,90
43872,note_off,,,,,96,0,3,,,,,2,,,58,0
43872,note_on,,,,,0,0,3,,,,,2,,,58,93
43968,note_off,,,,,96,0,3,,,,,2,,,58,0
43968,note_on,,,,,0,0,3,,,,,2,,,58,93
44064,note_on,,,,,0,0,3,,,,,2,,,58,93
44064,note_off,,,,,96,0,3,,,,,2,,,58,0
44160,note_off,,,,,96,0,3,,,,,2,,,58,0
44160,note_on,,,,,0,0,3,,,,,2,,,58,93
44256,note_off,,,,,96,0,3,,,,,2,,,58,0
44256,note_on,,,,,0,0,3,,,,,2,,,58,93
44352,note_off,,,,,576,0,2,,,,,1,,,62,0
44352,note_on,,,,,0,0,1,,,,,0,,,75,115
44352,note_off,,,,,576,0,4,,,,,3,,,56,0
44352,note_on,,,,,0,0,4,,,,,3,,,55,90
44352,note_on,,,,,0,0,3,,,,,2,,,58,93
44352,note_off,,,,,96,0,3,,,,,2,,,58,0
44352,note_on,,,,,0,0,2,,,,,1,,,63,106
44352,note_off,,,,,576,0,1,,,,,0,,,77,0
44448,note_on,,,,,0,0,3,,,,,2,,,58,93
44448,note_off,,,,,96,0,3,,,,,2,,,58,0
44544,note_off,,,,,192,0,4,,,,,3,,,55,0
44544,note_off,,,,,192,0,1,,,,,0,,,75,0
44544,note_on,,,,,0,0,3,,,,,2,,,58,93
44544,note_off,,,,,96,0,3,,,,,2,,,58,0
44544,note_off,,,,,192,0,2,,,,,1,,,63,0
44640,note_on,,,,,0,0,3,,,,,2,,,58,93
44640,note_off,,,,,96,0,3,,,,,2,,,58,0
44736,note_on,,,,,0,0,3,,,,,2,,,58,93
44736,note_off,,,,,96,0,3,,,,,2,,,58,0
44832,note_off,,,,,96,0,3,,,,,2,,,58,0
44832,note_on,,,,,0,0,3,,,,,2,,,58,93
44928,note_on,,,,,384,0,4,,,,,3,,,56,90
44928,note_off,,,,,96,0,3,,,,,2,,,58,0
44928,note_on,,,,,384,0,2,,,,,1,,,62,106
44928,note_on,,,,,384,0,1,,,,,0,,,77,115
44928,note_on,,,,,0,0,3,,,,,2,,,58,93
45024,note_off,,,,,96,0,3,,,,,2,,,58,0
45024,note_on,,,,,0,0,3,,,,,2,,,58,93
45120,note_off,,,,,96,0,3,,,,,2,,,58,0
45120,note_on,,,,,0,0,3,,,,,2,,,58,93
45216,note_off,,,,,96,0,3,,,,,2,,,58,0
45216,note_on,,,,,0,0,3,,,,,2,,,58,93
45312,note_on,,,,,0,0,1,,,,,0,,,79,115
45312,note_off,,,,,384,0,1,,,,,0,,,77,0
45312,note_off,,,,,96,0,3,,,,,2,,,58,0
45312,note_on,,,,,0,0,3,,,,,2,,,58,93
45408,note_on,,,,,0,0,3,,,,,2,,,58,93
45408,note_off,,,,,96,0,3,,,,,2,,,58,0
45504,note_off,,,,,192,0,1,,,,,0,,,79,0
45504,note_on,,,,,0,0,4,,,,,3,,,55,90
45504,note_on,,,,,0,0,3,,,,,2,,,58,93
45504,note_on,,,,,0,0,1,,,,,0,,,75,115
45504,note_off,,,,,576,0,2,,,,,1,,,62,0
45504,note_on,,,,,0,0,2,,,,,1,,,63,106
45504,note_off,,,,,96,0,3,,,,,2,,,58,0
45504,note_off,,,,,576,0,4,,,,,3,,,56,0
45600,note_on,,,,,0,0,3,,,,,2,,,58,93
45600,note_off,,,,,96,0,3,,,,,2,,,58,0
45696,note_on,,,,,0,0,3,,,,,2,,,58,93
45696,note_off,,,,,192,0,4,,,,,3,,,55,0
45696,note_off,,,,,96,0,3,,,,,2,,,58,0
45792,note_off,,,,,96,0,3,,,,,2,,,58,0
45792,note_on,,,,,0,0,3,,,,,2,,,58,93
45888,note_on,,,,,0,0,1,,,,,0,,,74,115
45888,note_on,,,,,0,0,2,,,,,1,,,62,106
45888,note_off,,,,,384,0,2,,,,,1,,,63,0
45888,note_off,,,,,384,0,1,,,,,0,,,75,0
45888,note_off,,,,,96,0,3,,,,,2,,,58,0
45888,note_on,,,,,192,0,4,,,,,3,,,53,90
45888,note_on,,,,,0,0,3,,,,,2,,,58,93
45984,note_on,,,,,0,0,3,,,,,2,,,58,93
45984,note_off,,,,,96,0,3,,,,,2,,,58,0
46080,note_off,,,,,96,0,3,,,,,2,,,58,0
46080,note_on,,,,,0,0,1,,,,,0,,,72,115
46080,note_on,,,,,0,0,3,,,,,2,,,57,93
46080,note_off,,,,,192,0,1,,,,,0,,,74,0
46080,note_off,,,,,192,0,2,,,,,1,,,62,0
46080,note_on,,,,,0,0,2,,,,,1,,,60,106
46080,note_off,,,,,192,0,4,,,,,3,,,53,0
46080,note_on,,,,,0,0,4,,,,,3,,,51,90
46368,note_on,,,,,0,0,2,,,,,1,,,63,106
46368,note_off,,,,,288,0,2,,,,,1,,,60,0
46368,note_off,,,,,288,0,1,,,,,0,,,72,0
46368,note_on,,,,,0,0,1,,,,,0,,,75,115
46464,note_off,,,,,96,0,2,,,,,1,,,63,0
46464,note_on,,,,,0,0,1,,,,,0,,,79,115
46464,note_on,,,,,0,0,2,,,,,1,,,67,106
46464,note_off,,,,,96,0,1,,,,,0,,,75,0
46656,note_on,,,,,0,0,2,,,,,1,,,65,106
46656,note_on,,,,,0,0,3,,,,,2,,,58,93
46656,note_on,,,,,0,0,4,,,,,3,,,50,90
46656,note_off,,,,,576,0,4,,,,,3,,,51,0
46656,note_off,,,,,192,0,1,,,,,0,,,79,0
46656,note_on,,,,,0,0,1,,,,,0,,,77,115
46656,note_off,,,,,576,0,3,,,,,2,,,57,0
46656,note_off,,,,,192,0,2,,,,,1,,,67,0
46752,note_off,,,,,96,0,3,,,,,2,,,58,0
46752,note_on,,,,,0,0,3,,,,,2,,,53,93
46800,note_off,,,,,48,0,3,,,,,2,,,53,0
46848,note_off,,,,,192,0,1,,,,,0,,,77,0
46848,note_off,,,,,192,0,4,,,,,3,,,50,0
46848,note_on,,,,,48,0,3,,,,,2,,,53,93
46848,note_off,,,,,192,0,2,,,,,1,,,65,0
46896,note_off,,,,,48,0,3,,,,,2,,,53,0
46944,note_on,,,,,48,0,3,,,,,2,,,53,93
46992,note_off,,,,,48,0,3,,,,,2,,,53,0
47040,note_on,,,,,48,0,3,,,,,2,,,53,93
47088,note_off,,,,,48,0,3,,,,,2,,,53,0
47136,note_on,,,,,48,0,3,,,,,2,,,53,93
47184,note_off,,,,,48,0,3,,,,,2,,,53,0
47232,note_on,,,,,384,0,2,,,,,1,,,57,106
47232,note_on,,,,,48,0,3,,,,,2,,,53,93
47232,note_on,,,,,384,0,1,,,,,0,,,72,115
47232,note_on,,,,,384,0,4,,,,,3,,,51,90
47328,note_off,,,,,96,0,3,,,,,2,,,53,0
47328,note_on,,,,,0,0,3,,,,,2,,,53,93
47424,note_off,,,,,96,0,3,,,,,2,,,53,0
47424,note_on,,,,,0,0,3,,,,,2,,,53,93
47520,note_on,,,,,0,0,3,,,,,2,,,53,93
47520,note_off,,,,,96,0,3,,,,,2,,,53,0
47616,note_off,,,,,96,0,3,,,,,2,,,53,0
47616,note_on,,,,,0,0,3,,,,,2,,,53,93
47712,note_on,,,,,0,0,3,,,,,2,,,53,93
47712,note_off,,,,,96,0,3,,,,,2,,,53,0
47808,note_on,,,,,0,0,3,,,,,2,,,53,93
47808,note_off,,,,,96,0,3,,,,,2,,,53,0
47808,note_on,,,,,0,0,2,,,,,1,,,58,106
47808,note_on,,,,,0,0,1,,,,,0,,,70,115
47808,note_off,,,,,576,0,4,,,,,3,,,51,0
47808,note_on,,,,,0,0,4,,,,,3,,,50,90
47808,note_off,,,,,576,0,2,,,,,1,,,57,0
47808,note_off,,,,,576,0,1,,,,,0,,,72,0
47904,note_off,,,,,96,0,3,,,,,2,,,53,0
47904,note_on,,,,,0,0,3,,,,,2,,,53,93
48000,note_off,,,,,96,0,3,,,,,2,,,53,0
48000,note_off,,,,,192,0,1,,,,,0,,,70,0
48000,note_off,,,,,192,0,4,,,,,3,,,50,0
48000,note_off,,,,,192,0,2,,,,,1,,,58,0
48000,note_on,,,,,0,0,3,,,,,2,,,53,93
48096,note_on,,,,,0,0,3,,,,,2,,,53,93
48096,note_off,,,,,96,0,3,,,,,2,,,53,0
48192,note_on,,,,,0,0,3,,,,,2,,,53,93
48192,note_off,,,,,96,0,3,,,,,2,,,53,0
48288,note_off,,,,,96,0,3,,,,,2,,,53,0
48288,note_on,,,,,0,0,3,,,,,2,,,53,93
48384,note_off,,,,,96,0,3,,,,,2,,,53,0
48384,note_on,,,,,0,0,3,,,,,2,,,53,93
48384,note_on,,,,,384,0,1,,,,,0,,,72,115
48384,note_on,,,,,384,0,4,,,,,3,,,51,90
48384,note_on,,,,,384,0,2,,,,,1,,,57,106
48480,note_off,,,,,96,0,3,,,,,2,,,53,0
48480,note_on,,,,,0,0,3,,,,,2,,,53,93
48576,note_off,,,,,96,0,3,,,,,2,,,53,0
48576,note_on,,,,,0,0,3,,,,,2,,,53,93
48672,note_off,,,,,96,0,3,,,,,2,,,53,0
48672,note_on,,,,,0,0,3,,,,,2,,,53,93
48768,note_off,,,,,96,0,3,,,,,2,,,53,0
48768,note_on,,,,,0,0,3,,,,,2,,,53,93
48768,note_on,,,,,0,0,1,,,,,0,,,74,115
48768,note_off,,,,,384,0,1,,,,,0,,,72,0
48864,note_off,,,,,96,0,3,,,,,2,,,53,0
48864,note_on,,,,,0,0,3,,,,,2,,,53,93
48960,note_on,,,,,0,0,4,,,,,3,,,50,90
48960,note_on,,,,,0,0,2,,,,,1,,,58,106
48960,note_off,,,,,576,0,2,,,,,1,,,57,0
48960,note_on,,,,,0,0,1,,,,,0,,,70,115
48960,note_off,,,,,192,0,1,,,,,0,,,74,0
48960,note_off,,,,,96,0,3,,,,,2,,,53,0
48960,note_off,,,,,576,0,4,,,,,3,,,51,0
48960,note_on,,,,,0,0,3,,,,,2,,,53,93
49056,note_off,,,,,96,0,3,,,,,2,,,53,0
49056,note_on,,,,,0,0,3,,,,,2,,,53,93
49152,note_on,,,,,0,0,3,,,,,2,,,53,93
49152,note_off,,,,,192,0,2,,,,,1,,,58,0
49152,note_off,,,,,96,0,3,,,,,2,,,53,0
49152,note_off,,,,,192,0,1,,,,,0,,,70,0
49152,note_off,,,,,192,0,4,,,,,3,,,50,0
49248,note_off,,,,,96,0,3,,,,,2,,,53,0
49248,note_on,,,,,0,0,3,,,,,2,,,53,93
49344,note_on,,,,,192,0,2,,,,,1,,,65,106
49344,note_on,,,,,192,0,1,,,,,0,,,77,115
49344,note_off,,,,,96,0,3,,,,,2,,,53,0
49344,note_on,,,,,0,0,3,,,,,2,,,53,93
49344,note_on,,,,,192,0,4,,,,,3,,,50,90
49440,note_on,,,,,0,0,3,,,,,2,,,53,93
49440,note_off,,,,,96,0,3,,,,,2,,,53,0
49536,note_off,,,,,96,0,3,,,,,2,,,53,0
49536,note_off,,,,,192,0,4,,,,,3,,,50,0
49536,note_on,,,,,0,0,4,,,,,3,,,45,90
49536,note_off,,,,,192,0,2,,,,,1,,,65,0
49536,note_on,,,,,0,0,3,,,,,2,,,53,93
49536,note_off,,,,,192,0,1,,,,,0,,,77,0
49536,note_on,,,,,0,0,1,,,,,0,,,77,115
49536,note_on,,,,,0,0,2,,,,,1,,,65,106
49632,note_off,,,,,96,0,3,,,,,2,,,53,0
49632,note_on,,,,,0,0,3,,,,,2,,,53,93
49728,note_off,,,,,96,0,3,,,,,2,,,53,0
49728,note_off,,,,,192,0,1,,,,,0,,,77,0
49728,note_on,,,,,0,0,1,,,,,0,,,76,115
49728,note_on,,,,,0,0,3,,,,,2,,,53,93
49728,note_on,,,,,0,0,2,,,,,1,,,64,106
49728,note_off,,,,,192,0,2,,,,,1,,,65,0
49824,note_off,,,,,96,0,3,,,,,2,,,53,0
49824,note_on,,,,,0,0,3,,,,,2,,,53,93
49920,note_off,,,,,192,0,2,,,,,1,,,64,0
49920,note_on,,,,,0,0,1,,,,,0,,,75,115
49920,note_off,,,,,192,0,1,,,,,0,,,76,0
49920,note_on,,,,,0,0,2,,,,,1,,,63,106
49920,note_on,,,,,0,0,3,,,,,2,,,53,93
49920,note_off,,,,,96,0,3,,,,,2,,,53,0
50016,note_off,,,,,96,0,1,,,,,0,,,75,0
50016,note_on,,,,,0,0,3,,,,,2,,,53,93
50016,note_off,,,,,96,0,3,,,,,2,,,53,0
50016,note_off,,,,,96,0,2,,,,,1,,,63,0
50112,note_on,,,,,96,0,1,,,,,0,,,75,115
50112,note_on,,,,,0,0,3,,,,,2,,,53,93
50112,note_off,,,,,96,0,3,,,,,2,,,53,0
50112,note_on,,,,,0,0,4,,,,,3,,,46,90
50112,note_off,,,,,576,0,4,,,,,3,,,45,0
50112,note_on,,,,,96,0,2,,,,,1,,,63,106
50208,note_on,,,,,0,0,3,,,,,2,,,53,93
50208,note_off,,,,,96,0,3,,,,,2,,,53,0
50304,note_on,,,,,0,0,3,,,,,2,,,53,93
50304,note_off,,,,,96,0,3,,,,,2,,,53,0
50304,note_off,,,,,192,0,1,,,,,0,,,75,0
50304,note_on,,,,,0,0,1,,,,,0,,,74,115
50304,note_on,,,,,0,0,2,,,,,1,,,62,106
50304,note_off,,,,,192,0,2,,,,,1,,,63,0
50400,note_off,,,,,96,0,3,,,,,2,,,53,0
50400,note_on,,,,,0,0,3,,,,,2,,,53,93
50496,note_off,,,,,192,0,1,,,,,0,,,74,0
50496,note_on,,,,,0,0,1,,,,,0,,,74,115
50496,note_off,,,,,96,0,3,,,,,2,,,53,0
50496,note_on,,,,,0,0,3,,,,,2,,,53,93
50496,note_on,,,,,0,0,2,,,,,1,,,62,106
50496,note_off,,,,,192,0,2,,,,,1,,,62,0
50592,note_off,,,,,96,0,3,,,,,2,,,53,0
50592,note_on,,,,,0,0,3,,,,,2,,,53,93
50592,note_off,,,,,96,0,2,,,,,1,,,62,0
50592,note_off,,,,,96,0,1,,,,,0,,,74,0
50688,note_on,,,,,0,0,3,,,,,2,,,53,93
50688,note_off,,,,,576,0,4,,,,,3,,,46,0
50688,note_on,,,,,0,0,4,,,,,3,,,51,90
50688,note_on,,,,,96,0,1,,,,,0,,,72,115
50688,note_on,,,,,96,0,2,,,,,1,,,60,106
50688,note_off,,,,,96,0,3,,,,,2,,,53,0
50784,note_off,,,,,96,0,3,,,,,2,,,53,0
50784,note_off,,,,,96,0,1,,,,,0,,,72,0
50784,note_on,,,,,0,0,1,,,,,0,,,71,115
50784,note_off,,,,,96,0,2,,,,,1,,,60,0
50784,note_on,,,,,0,0,3,,,,,2,,,53,93
50784,note_on,,,,,0,0,2,,,,,1,,,59,106
50880,note_off,,,,,96,0,3,,,,,2,,,53,0
50880,note_off,,,,,96,0,2,,,,,1,,,59,0
50880,note_on,,,,,0,0,3,,,,,2,,,53,93
50880,note_on,,,,,0,0,2,,,,,1,,,60,106
50880,note_off,,,,,96,0,1,,,,,0,,,71,0
50880,note_on,,,,,0,0,1,,,,,0,,,72,115
50976,note_off,,,,,96,0,2,,,,,1,,,60,0
50976,note_on,,,,,0,0,2,,,,,1,,,62,106
50976,note_off,,,,,96,0,1,,,,,0,,,72,0
50976,note_on,,,,,0,0,3,,,,,2,,,53,93
50976,note_off,,,,,96,0,3,,,,,2,,,53,0
50976,note_on,,,,,0,0,1,,,,,0,,,74,115
51072,note_off,,,,,96,0,1,,,,,0,,,74,0
51072,note_on,,,,,0,0,1,,,,,0,,,75,115
51072,note_off,,,,,96,0,3,,,,,2,,,53,0
51072,note_on,,,,,0,0,3,,,,,2,,,53,93
51072,note_off,,,,,96,0,2,,,,,1,,,62,0
51072,note_on,,,,,0,0,4,,,,,3,,,53,90
51072,note_on,,,,,0,0,2,,,,,1,,,63,106
51072,note_off,,,,,384,0,4,,,,,3,,,51,0
51168,note_off,,,,,96,0,1,,,,,0,,,75,0
51168,note_on,,,,,0,0,1,,,,,0,,,72,115
51168,note_on,,,,,0,0,2,,,,,1,,,60,106
51168,note_off,,,,,96,0,2,,,,,1,,,63,0
51168,note_off,,,,,96,0,3,,,,,2,,,53,0
51168,note_on,,,,,0,0,3,,,,,2,,,53,93
51264,note_on,,,,,0,0,1,,,,,0,,,70,115
51264,note_on,,,,,0,0,2,,,,,1,,,58,106
51264,note_off,,,,,96,0,2,,,,,1,,,60,0
51264,note_off,,,,,96,0,1,,,,,0,,,72,0
51264,note_off,,,,,96,0,3,,,,,2,,,53,0
51264,note_off,,,,,192,0,4,,,,,3,,,53,0
51264,note_on,,,,,0,0,3,,,,,2,,,53,93
51264,note_on,,,,,0,0,4,,,,,3,,,50,90
51360,note_off,,,,,96,0,3,,,,,2,,,53,0
51360,note_on,,,,,0,0,3,,,,,2,,,53,93
51456,note_off,,,,,96,0,3,,,,,2,,,53,0
51456,note_on,,,,,0,0,3,,,,,2,,,53,93
51456,note_on,,,,,0,0,1,,,,,0,,,74,115
51456,note_off,,,,,192,0,2,,,,,1,,,58,0
51456,note_on,,,,,0,0,2,,,,,1,,,62,106
51456,note_off,,,,,192,0,1,,,,,0,,,70,0
51552,note_off,,,,,96,0,3,,,,,2,,,53,0
51552,note_on,,,,,0,0,3,,,,,2,,,53,93
51648,note_on,,,,,0,0,4,,,,,3,,,50,90
51648,note_off,,,,,192,0,1,,,,,0,,,74,0
51648,note_on,,,,,0,0,1,,,,,0,,,77,115
51648,note_off,,,,,192,0,2,,,,,1,,,62,0
51648,note_on,,,,,0,0,2,,,,,1,,,65,106
51648,note_off,,,,,96,0,3,,,,,2,,,53,0
51648,note_on,,,,,0,0,3,,,,,2,,,53,93
51648,note_off,,,,,384,0,4,,,,,3,,,50,0
51744,note_on,,,,,0,0,3,,,,,2,,,53,93
51744,note_off,,,,,96,0,3,,,,,2,,,53,0
51840,note_off,,,,,192,0,1,,,,,0,,,77,0
51840,note_on,,,,,0,0,2,,,,,1,,,65,106
51840,note_off,,,,,192,0,2,,,,,1,,,65,0
51840,note_on,,,,,0,0,4,,,,,3,,,45,90
51840,note_on,,,,,0,0,3,,,,,2,,,53,93
51840,note_off,,,,,96,0,3,,,,,2,,,53,0
51840,note_on,,,,,0,0,1,,,,,0,,,77,115
51840,note_off,,,,,192,0,4,,,,,3,,,50,0
51936,note_on,,,,,0,0,3,,,,,2,,,53,93
51936,note_off,,,,,96,0,3,,,,,2,,,53,0
52032,note_off,,,,,192,0,1,,,,,0,,,77,0
52032,note_off,,,,,192,0,2,,,,,1,,,65,0
52032,note_on,,,,,0,0,2,,,,,1,,,64,106
52032,note_off,,,,,96,0,3,,,,,2,,,53,0
52032,note_on,,,,,0,0,3,,,,,2,,,53,93
52032,note_on,,,,,0,0,1,,,,,0,,,76,115
52128,note_on,,,,,0,0,3,,,,,2,,,53,93
52128,note_off,,,,,96,0,3,,,,,2,,,53,0
52224,note_off,,,,,192,0,2,,,,,1,,,64,0
52224,note_on,,,,,0,0,2,,,,,1,,,63,106
52224,note_on,,,,,0,0,3,,,,,2,,,53,93
52224,note_off,,,,,96,0,3,,,,,2,,,53,0
52224,note_on,,,,,0,0,1,,,,,0,,,75,115
52224,note_off,,,,,192,0,1,,,,,0,,,76,0
52320,note_off,,,,,96,0,3,,,,,2,,,53,0
52320,note_on,,,,,0,0,3,,,,,2,,,53,93
52320,note_off,,,,,96,0,1,,,,,0,,,75,0
52320,note_off,,,,,96,0,2,,,,,1,,,63,0
52416,note_on,,,,,96,0,2,,,,,1,,,63,106
52416,note_on,,,,,0,0,3,,,,,2,,,53,93
52416,note_on,,,,,96,0,1,,,,,0,,,75,115
52416,note_on,,,,,0,0,4,,,,,3,,,46,90
52416,note_off,,,,,576,0,4,,,,,3,,,45,0
52416,note_off,,,,,96,0,3,,,,,2,,,53,0
52512,note_off,,,,,96,0,3,,,,,2,,,53,0
52512,note_on,,,,,0,0,3,,,,,2,,,53,93
52608,note_off,,,,,192,0,1,,,,,0,,,75,0
52608,note_on,,,,,0,0,1,,,,,0,,,74,115
52608,note_off,,,,,96,0,3,,,,,2,,,53,0
52608,note_off,,,,,192,0,2,,,,,1,,,63,0
52608,note_on,,,,,0,0,2,,,,,1,,,62,106
52608,note_on,,,,,0,0,3,,,,,2,,,53,93
52704,note_off,,,,,96,0,3,,,,,2,,,53,0
52704,note_on,,,,,0,0,3,,,,,2,,,53,93
52800,note_off,,,,,192,0,2,,,,,1,,,62,0
52800,note_on,,,,,0,0,2,,,,,1,,,62,106
52800,note_on,,,,,0,0,1,,,,,0,,,74,115
52800,note_off,,,,,192,0,1,,,,,0,,,74,0
52800,note_off,,,,,96,0,3,,,,,2,,,53,0
52800,note_on,,,,,0,0,3,,,,,2,,,53,93
52896,note_off,,,,,96,0,2,,,,,1,,,62,0
52896,note_off,,,,,96,0,3,,,,,2,,,53,0
52896,note_on,,,,,0,0,3,,,,,2,,,53,93
52896,note_off,,,,,96,0,1,,,,,0,,,74,0
52944,note_on,,,,,48,0,1,,,,,0,,,74,115
52944,note_on,,,,,48,0,2,,,,,1,,,62,106
52992,note_off,,,,,96,0,3,,,,,2,,,53,0
52992,note_on,,,,,0,0,4,,,,,3,,,51,90
52992,note_off,,,,,576,0,4,,,,,3,,,46,0
52992,note_on,,,,,0,0,3,,,,,2,,,53,93
52992,note_off,,,,,48,0,2,,,,,1,,,62,0
52992,note_on,,,,,0,0,1,,,,,0,,,72,115
52992,note_off,,,,,48,0,1,,,,,0,,,74,0
52992,note_on,,,,,0,0,2,,,,,1,,,60,106
53088,note_off,,,,,96,0,2,,,,,1,,,60,0
53088,note_off,,,,,96,0,3,,,,,2,,,53,0
53088,note_on,,,,,0,0,3,,,,,2,,,53,93
53088,note_off,,,,,96,0,1,,,,,0,,,72,0
53088,note_on,,,,,0,0,1,,,,,0,,,71,115
53088,note_on,,,,,0,0,2,,,,,1,,,59,106
53184,note_off,,,,,96,0,1,,,,,0,,,71,0
53184,note_off,,,,,96,0,3,,,,,2,,,53,0
53184,note_on,,,,,0,0,3,,,,,2,,,53,93
53184,note_on,,,,,0,0,2,,,,,1,,,60,106
53184,note_off,,,,,96,0,2,,,,,1,,,59,0
53184,note_on,,,,,0,0,1,,,,,0,,,72,115
53280,note_off,,,,,96,0,2,,,,,1,,,60,0
53280,note_on,,,,,0,0,2,,,,,1,,,62,106
53280,note_on,,,,,0,0,3,,,,,2,,,53,93
53280,note_off,,,,,96,0,1,,,,,0,,,72,0
53280,note_on,,,,,0,0,1,,,,,0,,,74,115
53280,note_off,,,,,96,0,3,,,,,2,,,53,0
53376,note_on,,,,,0,0,3,,,,,2,,,53,93
53376,note_off,,,,,96,0,3,,,,,2,,,53,0
53376,note_off,,,,,96,0,2,,,,,1,,,62,0
53376,note_on,,,,,0,0,2,,,,,1,,,63,106
53376,note_off,,,,,96,0,1,,,,,0,,,74,0
53376,note_on,,,,,0,0,1,,,,,0,,,75,115
53376,note_off,,,,,384,0,4,,,,,3,,,51,0
53376,note_on,,,,,0,0,4,,,,,3,,,53,90
53472,note_off,,,,,96,0,1,,,,,0,,,75,0
53472,note_off,,,,,96,0,3,,,,,2,,,53,0
53472,note_on,,,,,0,0,1,,,,,0,,,72,115
53472,note_on,,,,,0,0,3,,,,,2,,,53,93
53472,note_off,,,,,96,0,2,,,,,1,,,63,0
53472,note_on,,,,,0,0,2,,,,,1,,,60,106
53568,note_off,,,,,192,0,4,,,,,3,,,53,0
53568,note_off,,,,,96,0,1,,,,,0,,,72,0
53568,note_on,,,,,0,0,1,,,,,0,,,70,115
53568,note_off,,,,,96,0,3,,,,,2,,,53,0
53568,note_off,,,,,96,0,2,,,,,1,,,60,0
53568,note_on,,,,,0,0,3,,,,,2,,,53,93
53568,note_on,,,,,0,0,4,,,,,3,,,50,90
53568,note_on,,,,,0,0,2,,,,,1,,,58,106
53664,note_off,,,,,96,0,3,,,,,2,,,53,0
53664,note_on,,,,,0,0,3,,,,,2,,,53,93
53760,note_on,,,,,0,0,3,,,,,2,,,53,93
53760,note_off,,,,,96,0,3,,,,,2,,,53,0
53856,note_off,,,,,96,0,3,,,,,2,,,53,0
53856,note_on,,,,,0,0,3,,,,,2,,,53,93
53952,note_on,,,,,0,0,2,,,,,1,,,59,106
53952,note_off,,,,,384,0,1,,,,,0,,,70,0
53952,note_off,,,,,96,0,3,,,,,2,,,53,0
53952,note_on,,,,,0,0,3,,,,,2,,,53,93
53952,note_off,,,,,384,0,2,,,,,1,,,58,0
53952,note_off,,,,,384,0,4,,,,,3,,,50,0
53952,note_on,,,,,0,0,1,,,,,0,,,71,115
53952,note_on,,,,,0,0,4,,,,,3,,,50,90
54048,note_off,,,,,96,0,2,,,,,1,,,59,0
54048,note_off,,,,,96,0,3,,,,,2,,,53,0
54048,note_on,,,,,0,0,3,,,,,2,,,53,93
54048,note_off,,,,,96,0,1,,,,,0,,,71,0
54096,note_on,,,,,48,0,2,,,,,1,,,62,106
54096,note_on,,,,,48,0,1,,,,,0,,,74,115
54144,note_off,,,,,192,0,4,,,,,3,,,50,0
54144,note_on,,,,,0,0,1,,,,,0,,,72,115
54144,note_on,,,,,0,0,4,,,,,3,,,51,90
54144,note_off,,,,,48,0,1,,,,,0,,,74,0
54144,note_on,,,,,0,0,2,,,,,1,,,60,106
54144,note_off,,,,,48,0,2,,,,,1,,,62,0
54144,note_on,,,,,0,0,3,,,,,2,,,53,93
54144,note_off,,,,,96,0,3,,,,,2,,,53,0
54240,note_on,,,,,0,0,3,,,,,2,,,53,93
54240,note_off,,,,,96,0,2,,,,,1,,,60,0
54240,note_on,,,,,0,0,2,,,,,1,,,59,106
54240,note_off,,,,,96,0,1,,,,,0,,,72,0
54240,note_on,,,,,0,0,1,,,,,0,,,71,115
54240,note_off,,,,,96,0,3,,,,,2,,,53,0
54336,note_on,,,,,0,0,1,,,,,0,,,72,115
54336,note_off,,,,,96,0,1,,,,,0,,,71,0
54336,note_off,,,,,96,0,2,,,,,1,,,59,0
54336,note_on,,,,,0,0,2,,,,,1,,,60,106
54336,note_off,,,,,96,0,3,,,,,2,,,53,0
54336,note_on,,,,,0,0,3,,,,,2,,,53,93
54432,note_on,,,,,0,0,3,,,,,2,,,53,93
54432,note_off,,,,,96,0,2,,,,,1,,,60,0
54432,note_off,,,,,96,0,3,,,,,2,,,53,0
54432,note_on,,,,,0,0,1,,,,,0,,,74,115
54432,note_off,,,,,96,0,1,,,,,0,,,72,0
54432,note_on,,,,,0,0,2,,,,,1,,,62,106
54528,note_on,,,,,0,0,3,,,,,2,,,53,93
54528,note_off,,,,,96,0,3,,,,,2,,,53,0
54528,note_off,,,,,96,0,2,,,,,1,,,62,0
54528,note_on,,,,,0,0,2,,,,,1,,,63,106
54528,note_off,,,,,96,0,1,,,,,0,,,74,0
54528,note_on,,,,,0,0,4,,,,,3,,,53,90
54528,note_off,,,,,384,0,4,,,,,3,,,51,0
54528,note_on,,,,,0,0,1,,,,,0,,,75,115
54624,note_off,,,,,96,0,3,,,,,2,,,53,0
54624,note_off,,,,,96,0,2,,,,,1,,,63,0
54624,note_off,,,,,96,0,1,,,,,0,,,75,0
54624,note_on,,,,,0,0,1,,,,,0,,,72,115
54624,note_on,,,,,0,0,2,,,,,1,,,60,106
54624,note_on,,,,,0,0,3,,,,,2,,,53,93
54720,note_on,,,,,0,0,4,,,,,3,,,50,90
54720,note_off,,,,,96,0,1,,,,,0,,,72,0
54720,note_on,,,,,0,0,1,,,,,0,,,70,115
54720,note_on,,,,,0,0,3,,,,,2,,,53,93
54720,note_off,,,,,96,0,3,,,,,2,,,53,0
54720,note_off,,,,,96,0,2,,,,,1,,,60,0
54720,note_on,,,,,0,0,2,,,,,1,,,58,106
54720,note_off,,,,,192,0,4,,,,,3,,,53,0
54816,note_on,,,,,0,0,3,,,,,2,,,53,93
54816,note_off,,,,,96,0,3,,,,,2,,,53,0
54912,note_on,,,,,0,0,3,,,,,2,,,53,93
54912,note_off,,,,,96,0,3,,,,,2,,,53,0
54912,note_on,,,,,0,0,2,,,,,1,,,62,106
54912,note_off,,,,,192,0,2,,,,,1,,,58,0
54912,note_on,,,,,0,0,1,,,,,0,,,74,115
54912,note_off,,,,,192,0,1,,,,,0,,,70,0
55008,note_off,,,,,96,0,3,,,,,2,,,53,0
55008,note_on,,,,,0,0,3,,,,,2,,,53,93
55104,note_off,,,,,384,0,4,,,,,3,,,50,0
55104,note_on,,,,,0,0,4,,,,,3,,,53,90
55104,note_on,,,,,0,0,2,,,,,1,,,65,106
55104,note_off,,,,,192,0,2,,,,,1,,,62,0
55104,note_on,,,,,0,0,1,,,,,0,,,77,115
55104,note_off,,,,,192,0,1,,,,,0,,,74,0
55104,note_off,,,,,96,0,3,,,,,2,,,53,0
55104,note_on,,,,,0,0,3,,,,,2,,,53,93
55200,note_off,,,,,96,0,2,,,,,1,,,65,0
55200,note_off,,,,,96,0,1,,,,,0,,,77,0
55200,note_on,,,,,0,0,3,,,,,2,,,53,93
55200,note_off,,,,,96,0,3,,,,,2,,,53,0
55248,note_on,,,,,48,0,2,,,,,1,,,62,106
55248,note_on,,,,,48,0,1,,,,,0,,,74,115
55296,note_off,,,,,48,0,2,,,,,1,,,62,0
55296,note_off,,,,,96,0,3,,,,,2,,,53,0
55296,note_on,,,,,0,0,3,,,,,2,,,53,93
55296,note_on,,,,,0,0,2,,,,,1,,,60,106
55296,note_on,,,,,0,0,1,,,,,0,,,72,115
55296,note_off,,,,,192,0,4,,,,,3,,,53,0
55296,note_on,,,,,0,0,4,,,,,3,,,51,90
55296,note_off,,,,,48,0,1,,,,,0,,,74,0
55392,note_off,,,,,96,0,2,,,,,1,,,60,0
55392,note_off,,,,,96,0,1,,,,,0,,,72,0
55392,note_on,,,,,0,0,1,,,,,0,,,71,115
55392,note_off,,,,,96,0,3,,,,,2,,,53,0
55392,note_on,,,,,0,0,2,,,,,1,,,59,106
55392,note_on,,,,,0,0,3,,,,,2,,,53,93
55488,note_on,,,,,0,0,2,,,,,1,,,60,106
55488,note_on,,,,,0,0,1,,,,,0,,,72,115
55488,note_on,,,,,0,0,3,,,,,2,,,53,93
55488,note_off,,,,,96,0,1,,,,,0,,,71,0
55488,note_off,,,,,96,0,3,,,,,2,,,53,0
55488,note_off,,,,,96,0,2,,,,,1,,,59,0
55584,note_on,,,,,0,0,2,,,,,1,,,62,106
55584,note_off,,,,,96,0,3,,,,,2,,,53,0
55584,note_on,,,,,0,0,3,,,,,2,,,53,93
55584,note_off,,,,,96,0,2,,,,,1,,,60,0
55584,note_off,,,,,96,0,1,,,,,0,,,72,0
55584,note_on,,,,,0,0,1,,,,,0,,,74,115
55680,note_on,,,,,0,0,1,,,,,0,,,75,115
55680,note_off,,,,,96,0,2,,,,,1,,,62,0
55680,note_on,,,,,0,0,2,,,,,1,,,63,106
55680,note_on,,,,,0,0,3,,,,,2,,,53,93
55680,note_off,,,,,96,0,3,,,,,2,,,53,0
55680,note_off,,,,,384,0,4,,,,,3,,,51,0
55680,note_on,,,,,0,0,4,,,,,3,,,53,90
55680,note_off,,,,,96,0,1,,,,,0,,,74,0
55776,note_off,,,,,96,0,3,,,,,2,,,53,0
55776,note_on,,,,,0,0,3,,,,,2,,,53,93
55776,note_on,,,,,0,0,2,,,,,1,,,60,106
55776,note_off,,,,,96,0,2,,,,,1,,,63,0
55776,note_off,,,,,96,0,1,,,,,0,,,75,0
55776,note_on,,,,,0,0,1,,,,,0,,,72,115
55872,note_on,,,,,0,0,2,,,,,1,,,58,106
55872,note_on,,,,,0,0,3,,,,,2,,,53,93
55872,note_on,,,,,0,0,1,,,,,0,,,70,115
55872,note_off,,,,,96,0,1,,,,,0,,,72,0
55872,note_off,,,,,96,0,2,,,,,1,,,60,0
55872,note_off,,,,,96,0,3,,,,,2,,,53,0
55872,note_off,,,,,192,0,4,,,,,3,,,53,0
55872,note_on,,,,,0,0,4,,,,,3,,,50,90
55968,note_off,,,,,96,0,3,,,,,2,,,53,0
55968,note_on,,,,,0,0,3,,,,,2,,,53,93
56064,note_off,,,,,96,0,3,,,,,2,,,53,0
56064,note_on,,,,,0,0,3,,,,,2,,,53,93
56160,note_off,,,,,96,0,3,,,,,2,,,53,0
56160,note_on,,,,,0,0,3,,,,,2,,,53,93
56256,note_off,,,,,384,0,1,,,,,0,,,70,0
56256,note_on,,,,,0,0,3,,,,,2,,,53,93
56256,note_off,,,,,384,0,2,,,,,1,,,58,0
56256,note_off,,,,,384,0,4,,,,,3,,,50,0
56256,note_off,,,,,96,0,3,,,,,2,,,53,0
56352,note_off,,,,,96,0,3,,,,,2,,,53,0
56352,note_on,,,,,0,0,3,,,,,2,,,53,93
56448,note_on,,,,,192,0,1,,,,,0,,,77,115
56448,note_on,,,,,192,0,2,,,,,1,,,70,106
56448,note_on,,,,,192,0,4,,,,,3,,,46,90
56448,note_off,,,,,96,0,3,,,,,2,,,53,0
56448,note_on,,,,,0,0,3,,,,,2,,,68,93
56832,note_on,,,,,0,0,1,,,,,0,,,75,115
56832,note_on,,,,,0,0,3,,,,,2,,,67,93
56832,note_off,,,,,384,0,1,,,,,0,,,77,0
56832,note_off,,,,,384,0,3,,,,,2,,,68,0
57024,note_on,,,,,0,0,1,,,,,0,,,74,115
57024,note_off,,,,,192,0,1,,,,,0,,,75,0
57024,note_off,,,,,192,0,3,,,,,2,,,67,0
57024,note_on,,,,,0,0,3,,,,,2,,,65,93
57216,note_off,,,,,768,0,2,,,,,1,,,70,0
57216,note_on,,,,,0,0,2,,,,,1,,,69,106
57216,note_on,,,,,0,0,3,,,,,2,,,63,93
57216,note_off,,,,,192,0,3,,,,,2,,,65,0
57216,note_off,,,,,192,0,1,,,,,0,,,74,0
57216,note_on,,,,,0,0,1,,,,,0,,,72,115
57408,note_off,,,,,192,0,1,,,,,0,,,72,0
57408,note_off,,,,,192,0,2,,,,,1,,,69,0
57408,note_on,,,,,0,0,2,,,,,1,,,70,106
57408,note_on,,,,,0,0,3,,,,,2,,,62,93
57408,note_off,,,,,192,0,3,,,,,2,,,63,0
57408,note_on,,,,,0,0,1,,,,,0,,,70,115
57600,note_off,,,,,192,0,2,,,,,1,,,70,0
57600,note_on,,,,,0,0,2,,,,,1,,,63,106
57600,note_on,,,,,0,0,1,,,,,0,,,69,115
57600,note_on,,,,,0,0,3,,,,,2,,,60,93
57600,note_off,,,,,192,0,3,,,,,2,,,62,0
57600,note_off,,,,,192,0,1,,,,,0,,,70,0
58176,note_off,,,,,576,0,3,,,,,2,,,60,0
58176,note_off,,,,,576,0,1,,,,,0,,,69,0
58176,note_on,,,,,0,0,1,,,,,0,,,68,115
58176,note_off,,,,,576,0,2,,,,,1,,,63,0
58176,note_on,,,,,0,0,2,,,,,1,,,65,106
58176,note_on,,,,,0,0,3,,,,,2,,,62,93
58752,note_off,,,,,576,0,2,,,,,1,,,65,0
58752,note_on,,,,,0,0,2,,,,,1,,,63,106
58752,note_on,,,,,0,0,3,,,,,2,,,63,93
58752,note_off,,,,,576,0,3,,,,,2,,,62,0
58752,note_off,,,,,576,0,1,,,,,0,,,68,0
58752,note_on,,,,,0,0,1,,,,,0,,,67,115
59136,note_off,,,,,384,0,3,,,,,2,,,63,0
59136,note_on,,,,,0,0,3,,,,,2,,,58,93
59328,note_on,,,,,0,0,2,,,,,1,,,62,106
59328,note_off,,,,,576,0,2,,,,,1,,,63,0
59328,note_on,,,,,0,0,3,,,,,2,,,56,93
59328,note_on,,,,,0,0,1,,,,,0,,,65,115
59328,note_off,,,,,576,0,1,,,,,0,,,67,0
59328,note_off,,,,,192,0,3,,,,,2,,,58,0
59904,note_off,,,,,576,0,1,,,,,0,,,65,0
59904,note_off,,,,,3456,0,4,,,,,3,,,46,0
59904,note_off,,,,,576,0,3,,,,,2,,,56,0
59904,note_off,,,,,576,0,2,,,,,1,,,62,0
61056,note_on,,,,,1152,0,1,,,,,0,,,63,115
61056,note_on,,,,,0,0,2,,,,,1,,,55,106
61056,note_on,,,,,1152,0,4,,,,,3,,,51,90
61056,note_on,,,,,1152,0,3,,,,,2,,,58,93
61056,note_on,,,,,1152,0,2,,,,,1,,,63,106
61056,note_on,,,,,0,0,1,,,,,0,,,55,115
61632,note_on,,,,,0,0,2,,,,,1,,,58,106
61632,note_off,,,,,576,0,4,,,,,3,,,51,0
61632,note_on,,,,,0,0,4,,,,,3,,,46,90
61632,note_off,,,,,0,0,2,,,,,1,,,55,0
61632,note_on,,,,,0,0,1,,,,,0,,,65,115
61632,note_on,,,,,0,0,2,,,,,1,,,62,106
61632,note_off,,,,,576,0,2,,,,,1,,,63,0
61632,note_on,,,,,0,0,1,,,,,0,,,58,115
61632,note_off,,,,,0,0,1,,,,,0,,,55,0
61632,note_off,,,,,576,0,1,,,,,0,,,63,0
61824,note_off,,,,,192,0,4,,,,,3,,,46,0
61824,note_off,,,,,192,0,2,,,,,1,,,58,0
61824,note_off,,,,,0,0,1,,,,,0,,,65,0
61824,note_off,,,,,768,0,3,,,,,2,,,58,0
61824,note_off,,,,,192,0,1,,,,,0,,,58,0
61824,note_off,,,,,0,0,2,,,,,1,,,62,0
62208,note_on,,,,,384,0,2,,,,,1,,,62,106
62208,note_on,,,,,384,0,4,,,,,3,,,46,90
62208,note_on,,,,,384,0,1,,,,,0,,,58,115
62208,note_on,,,,,384,0,3,,,,,2,,,58,93
62208,note_on,,,,,0,0,1,,,,,0,,,65,115
62784,note_off,,,,,576,0,4,,,,,3,,,46,0
62784,note_on,,,,,0,0,1,,,,,0,,,67,115
62784,note_on,,,,,0,0,1,,,,,0,,,58,115
62784,note_off,,,,,576,0,3,,,,,2,,,58,0
62784,note_on,,,,,0,0,3,,,,,2,,,63,93
62784,note_on,,,,,0,0,2,,,,,1,,,63,106
62784,note_off,,,,,576,0,2,,,,,1,,,62,0
62784,note_on,,,,,0,0,4,,,,,3,,,39,90
62784,note_off,,,,,576,0,1,,,,,0,,,58,0
62784,note_off,,,,,0,0,1,,,,,0,,,65,0
62976,note_off,,,,,192,0,3,,,,,2,,,63,0
62976,note_off,,,,,192,0,1,,,,,0,,,58,0
62976,note_off,,,,,192,0,4,,,,,3,,,39,0
62976,note_off,,,,,0,0,1,,,,,0,,,67,0
62976,note_off,,,,,192,0,2,,,,,1,,,63,0
63360,note_on,,,,,384,0,1,,,,,0,,,63,115
63360,note_on,,,,,384,0,2,,,,,1,,,63,106
63360,note_on,,,,,384,0,3,,,,,2,,,63,93
63360,note_on,,,,,384,0,4,,,,,3,,,51,90
63744,note_on,,,,,0,0,3,,,,,2,,,61,93
63744,note_off,,,,,384,0,3,,,,,2,,,63,0
63936,note_on,,,,,0,0,3,,,,,2,,,60,93
63936,note_off,,,,,192,0,3,,,,,2,,,61,0
64128,note_on,,,,,0,0,1,,,,,0,,,68,115
64128,note_off,,,,,768,0,1,,,,,0,,,63,0
64320,note_off,,,,,384,0,3,,,,,2,,,60,0
64320,note_on,,,,,0,0,3,,,,,2,,,56,93
64320,note_off,,,,,192,0,1,,,,,0,,,68,0
64320,note_on,,,,,0,0,1,,,,,0,,,72,115
64512,note_off,,,,,192,0,1,,,,,0,,,72,0
64512,note_off,,,,,192,0,3,,,,,2,,,56,0
64512,note_on,,,,,0,0,3,,,,,2,,,55,93
64512,note_on,,,,,0,0,1,,,,,0,,,70,115
64704,note_off,,,,,192,0,3,,,,,2,,,55,0
64704,note_on,,,,,0,0,3,,,,,2,,,58,93
64896,note_off,,,,,192,0,3,,,,,2,,,58,0
64896,note_on,,,,,0,0,3,,,,,2,,,63,93
65088,note_on,,,,,0,0,3,,,,,2,,,55,93
65088,note_off,,,,,192,0,3,,,,,2,,,63,0
65280,note_on,,,,,0,0,1,,,,,0,,,75,115
65280,note_on,,,,,0,0,3,,,,,2,,,58,93
65280,note_off,,,,,192,0,3,,,,,2,,,55,0
65280,note_off,,,,,768,0,1,,,,,0,,,70,0
65472,note_on,,,,,0,0,3,,,,,2,,,63,93
65472,note_off,,,,,192,0,3,,,,,2,,,58,0
65472,note_on,,,,,0,0,1,,,,,0,,,67,115
65472,note_off,,,,,192,0,1,,,,,0,,,75,0
65664,note_on,,,,,0,0,3,,,,,2,,,56,93
65664,note_off,,,,,192,0,3,,,,,2,,,63,0
65664,note_off,,,,,2304,0,4,,,,,3,,,51,0
65664,note_off,,,,,192,0,1,,,,,0,,,67,0
65664,note_on,,,,,0,0,1,,,,,0,,,65,115
65664,note_on,,,,,0,0,4,,,,,3,,,44,90
65664,note_on,,,,,0,0,2,,,,,1,,,60,106
65664,note_off,,,,,2304,0,2,,,,,1,,,63,0
65856,note_off,,,,,192,0,3,,,,,2,,,56,0
65856,note_on,,,,,0,0,3,,,,,2,,,60,93
65952,note_off,,,,,288,0,1,,,,,0,,,65,0
65952,note_on,,,,,0,0,1,,,,,0,,,67,115
66048,note_off,,,,,192,0,3,,,,,2,,,60,0
66048,note_on,,,,,0,0,3,,,,,2,,,65,93
66048,note_on,,,,,0,0,1,,,,,0,,,68,115
66048,note_off,,,,,96,0,1,,,,,0,,,67,0
66192,note_on,,,,,0,0,1,,,,,0,,,70,115
66192,note_off,,,,,144,0,1,,,,,0,,,68,0
66240,note_off,,,,,192,0,3,,,,,2,,,65,0
66240,note_on,,,,,0,0,3,,,,,2,,,56,93
66240,note_on,,,,,0,0,1,,,,,0,,,72,115
66240,note_off,,,,,48,0,1,,,,,0,,,70,0
66432,note_off,,,,,192,0,3,,,,,2,,,56,0
66432,note_on,,,,,0,0,3,,,,,2,,,60,93
66432,note_on,,,,,0,0,1,,,,,0,,,68,115
66432,note_off,,,,,192,0,1,,,,,0,,,72,0
66624,note_off,,,,,192,0,1,,,,,0,,,68,0
66624,note_on,,,,,0,0,1,,,,,0,,,65,115
66624,note_on,,,,,0,0,3,,,,,2,,,56,93
66624,note_off,,,,,960,0,2,,,,,1,,,60,0
66624,note_on,,,,,0,0,2,,,,,1,,,60,106
66624,note_off,,,,,192,0,3,,,,,2,,,60,0
66816,note_on,,,,,0,0,3,,,,,2,,,55,93
66816,note_off,,,,,192,0,2,,,,,1,,,60,0
66816,note_on,,,,,0,0,2,,,,,1,,,58,106
66816,note_off,,,,,192,0,3,,,,,2,,,56,0
66816,note_off,,,,,192,0,1,,,,,0,,,65,0
66816,note_on,,,,,0,0,4,,,,,3,,,46,90
66816,note_off,,,,,1152,0,4,,,,,3,,,44,0
66816,note_on,,,,,0,0,1,,,,,0,,,63,115
67200,note_off,,,,,384,0,1,,,,,0,,,63,0
67200,note_on,,,,,0,0,1,,,,,0,,,65,115
67200,note_on,,,,,0,0,3,,,,,2,,,56,93
67200,note_off,,,,,384,0,3,,,,,2,,,55,0
67392,note_off,,,,,192,0,1,,,,,0,,,65,0
67392,note_on,,,,,0,0,1,,,,,0,,,62,115
67392,note_off,,,,,192,0,3,,,,,2,,,56,0
67392,note_on,,,,,0,0,3,,,,,2,,,53,93
67584,note_off,,,,,768,0,4,,,,,3,,,46,0
67776,note_off,,,,,960,0,2,,,,,1,,,58,0
67776,note_off,,,,,384,0,3,,,,,2,,,53,0
67776,note_off,,,,,384,0,1,,,,,0,,,62,0
67968,note_on,,,,,0,0,1,,,,,0,,,63,115
67968,note_on,,,,,192,0,1,,,,,0,,,55,115
67968,note_on,,,,,384,0,4,,,,,3,,,51,90
67968,note_on,,,,,192,0,2,,,,,1,,,55,106
67968,note_on,,,,,0,0,2,,,,,1,,,63,106
67968,note_on,,,,,192,0,3,,,,,2,,,58,93
68544,note_off,,,,,576,0,4,,,,,3,,,51,0
68544,note_off,,,,,576,0,2,,,,,1,,,55,0
68544,note_off,,,,,0,0,2,,,,,1,,,63,0
68544,note_on,,,,,0,0,2,,,,,1,,,58,106
68544,note_on,,,,,0,0,2,,,,,1,,,62,106
68544,note_on,,,,,0,0,4,,,,,3,,,46,90
68544,note_off,,,,,0,0,1,,,,,0,,,63,0
68544,note_on,,,,,0,0,1,,,,,0,,,58,115
68544,note_off,,,,,576,0,1,,,,,0,,,55,0
68544,note_on,,,,,0,0,1,,,,,0,,,65,115
68736,note_off,,,,,192,0,1,,,,,0,,,58,0
68736,note_off,,,,,0,0,2,,,,,1,,,62,0
68736,note_off,,,,,192,0,2,,,,,1,,,58,0
68736,note_off,,,,,768,0,3,,,,,2,,,58,0
68736,note_off,,,,,0,0,1,,,,,0,,,65,0
68736,note_off,,,,,192,0,4,,,,,3,,,46,0
69120,note_on,,,,,384,0,1,,,,,0,,,58,115
69120,note_on,,,,,384,0,4,,,,,3,,,46,90
69120,note_on,,,,,384,0,3,,,,,2,,,58,93
69120,note_on,,,,,0,0,1,,,,,0,,,65,115
69120,note_on,,,,,384,0,2,,,,,1,,,62,106
69696,note_off,,,,,576,0,1,,,,,0,,,58,0
69696,note_off,,,,,576,0,3,,,,,2,,,58,0
69696,note_on,,,,,0,0,1,,,,,0,,,58,115
69696,note_on,,,,,0,0,1,,,,,0,,,67,115
69696,note_on,,,,,0,0,3,,,,,2,,,63,93
69696,note_off,,,,,0,0,1,,,,,0,,,65,0
69696,note_on,,,,,0,0,4,,,,,3,,,39,90
69696,note_off,,,,,576,0,2,,,,,1,,,62,0
69696,note_on,,,,,0,0,2,,,,,1,,,63,106
69696,note_off,,,,,576,0,4,,,,,3,,,46,0
69888,note_off,,,,,192,0,4,,,,,3,,,39,0
69888,note_off,,,,,192,0,3,,,,,2,,,63,0
69888,note_off,,,,,192,0,2,,,,,1,,,63,0
69888,note_off,,,,,0,0,1,,,,,0,,,67,0
69888,note_off,,,,,192,0,1,,,,,0,,,58,0
70272,note_on,,,,,384,0,4,,,,,3,,,55,90
70272,note_on,,,,,384,0,3,,,,,2,,,58,93
70272,note_on,,,,,384,0,2,,,,,1,,,63,106
70272,note_on,,,,,384,0,1,,,,,0,,,73,115
70464,note_on,,,,,0,0,3,,,,,2,,,61,93
70464,note_off,,,,,192,0,3,,,,,2,,,58,0
70656,note_on,,,,,0,0,3,,,,,2,,,63,93
70656,note_off,,,,,192,0,3,,,,,2,,,61,0
70848,note_off,,,,,192,0,3,,,,,2,,,63,0
70848,note_on,,,,,0,0,3,,,,,2,,,55,93
70848,note_on,,,,,0,0,4,,,,,3,,,51,90
70848,note_off,,,,,576,0,4,,,,,3,,,55,0
71040,note_off,,,,,192,0,3,,,,,2,,,55,0
71040,note_on,,,,,0,0,1,,,,,0,,,70,115
71040,note_off,,,,,768,0,1,,,,,0,,,73,0
71040,note_on,,,,,0,0,3,,,,,2,,,58,93
71232,note_off,,,,,192,0,1,,,,,0,,,70,0
71232,note_on,,,,,0,0,1,,,,,0,,,67,115
71232,note_on,,,,,0,0,3,,,,,2,,,61,93
71232,note_off,,,,,192,0,3,,,,,2,,,58,0
71424,note_on,,,,,0,0,4,,,,,3,,,44,90
71424,note_off,,,,,192,0,1,,,,,0,,,67,0
71424,note_off,,,,,576,0,4,,,,,3,,,51,0
71424,note_on,,,,,0,0,1,,,,,0,,,68,115
71424,note_on,,,,,0,0,3,,,,,2,,,60,93
71424,note_off,,,,,192,0,3,,,,,2,,,61,0
71616,note_off,,,,,192,0,3,,,,,2,,,60,0
71616,note_on,,,,,0,0,3,,,,,2,,,56,93
71808,note_off,,,,,192,0,3,,,,,2,,,56,0
71808,note_on,,,,,0,0,3,,,,,2,,,60,93
71808,note_on,,,,,0,0,2,,,,,1,,,64,106
71808,note_off,,,,,1536,0,2,,,,,1,,,63,0
72000,note_on,,,,,0,0,3,,,,,2,,,65,93
72000,note_on,,,,,0,0,2,,,,,1,,,65,106
72000,note_off,,,,,192,0,2,,,,,1,,,64,0
72000,note_off,,,,,192,0,3,,,,,2,,,60,0
72192,note_off,,,,,192,0,3,,,,,2,,,65,0
72192,note_on,,,,,0,0,3,,,,,2,,,68,93
72192,note_on,,,,,0,0,1,,,,,0,,,72,115
72192,note_off,,,,,768,0,1,,,,,0,,,68,0
72384,note_off,,,,,192,0,3,,,,,2,,,68,0
72384,note_on,,,,,0,0,3,,,,,2,,,56,93
72384,note_on,,,,,0,0,2,,,,,1,,,60,106
72384,note_on,,,,,0,0,1,,,,,0,,,65,115
72384,note_off,,,,,192,0,1,,,,,0,,,72,0
72384,note_off,,,,,384,0,2,,,,,1,,,65,0
72576,note_on,,,,,0,0,3,,,,,2,,,55,93
72576,note_on,,,,,0,0,1,,,,,0,,,63,115
72576,note_off,,,,,192,0,1,,,,,0,,,65,0
72576,note_on,,,,,0,0,4,,,,,3,,,46,90
72576,note_off,,,,,1152,0,4,,,,,3,,,44,0
72576,note_off,,,,,192,0,3,,,,,2,,,56,0
72576,note_on,,,,,0,0,2,,,,,1,,,58,106
72576,note_off,,,,,192,0,2,,,,,1,,,60,0
72768,note_off,,,,,192,0,3,,,,,2,,,55,0
72768,note_on,,,,,0,0,3,,,,,2,,,58,93
72864,note_on,,,,,0,0,1,,,,,0,,,65,115
72864,note_off,,,,,288,0,1,,,,,0,,,63,0
72960,note_on,,,,,0,0,1,,,,,0,,,67,115
72960,note_off,,,,,96,0,1,,,,,0,,,65,0
72960,note_off,,,,,192,0,3,,,,,2,,,58,0
72960,note_on,,,,,0,0,3,,,,,2,,,63,93
73104,note_on,,,,,0,0,1,,,,,0,,,68,115
73104,note_off,,,,,144,0,1,,,,,0,,,67,0
73152,note_off,,,,,192,0,3,,,,,2,,,63,0
73152,note_on,,,,,0,0,3,,,,,2,,,55,93
73152,note_on,,,,,0,0,1,,,,,0,,,70,115
73152,note_off,,,,,48,0,1,,,,,0,,,68,0
73344,note_on,,,,,0,0,1,,,,,0,,,67,115
73344,note_off,,,,,192,0,1,,,,,0,,,70,0
73344,note_on,,,,,0,0,3,,,,,2,,,58,93
73344,note_off,,,,,192,0,3,,,,,2,,,55,0
73536,note_off,,,,,192,0,1,,,,,0,,,67,0
73536,note_on,,,,,0,0,1,,,,,0,,,63,115
73536,note_on,,,,,0,0,3,,,,,2,,,63,93
73536,note_off,,,,,192,0,3,,,,,2,,,58,0
73728,note_off,,,,,192,0,3,,,,,2,,,63,0
73728,note_on,,,,,0,0,1,,,,,0,,,58,115
73728,note_off,,,,,192,0,1,,,,,0,,,63,0
73728,note_on,,,,,0,0,4,,,,,3,,,46,90
73728,note_off,,,,,1152,0,4,,,,,3,,,46,0
73728,note_on,,,,,0,0,3,,,,,2,,,55,93
73920,note_on,,,,,0,0,3,,,,,2,,,54,93
73920,note_off,,,,,192,0,3,,,,,2,,,55,0
74112,note_off,,,,,192,0,3,,,,,2,,,54,0
74112,note_on,,,,,0,0,3,,,,,2,,,53,93
74112,note_off,,,,,1536,0,2,,,,,1,,,58,0
74112,note_off,,,,,384,0,1,,,,,0,,,58,0
74112,note_on,,,,,0,0,1,,,,,0,,,60,115
74112,note_on,,,,,0,0,2,,,,,1,,,57,106
74208,note_on,,,,,0,0,2,,,,,1,,,56,106
74208,note_off,,,,,96,0,2,,,,,1,,,57,0
74208,note_off,,,,,96,0,1,,,,,0,,,60,0
74208,note_on,,,,,0,0,1,,,,,0,,,62,115
74304,note_on,,,,,0,0,1,,,,,0,,,63,115
74304,note_on,,,,,0,0,3,,,,,2,,,51,93
74304,note_off,,,,,96,0,2,,,,,1,,,56,0
74304,note_off,,,,,192,0,3,,,,,2,,,53,0
74304,note_off,,,,,576,0,4,,,,,3,,,46,0
74304,note_on,,,,,0,0,4,,,,,3,,,39,90
74304,note_on,,,,,0,0,2,,,,,1,,,55,106
74304,note_off,,,,,96,0,1,,,,,0,,,62,0
74688,note_off,,,,,384,0,1,,,,,0,,,63,0
74688,note_off,,,,,384,0,3,,,,,2,,,51,0
74688,note_off,,,,,384,0,4,,,,,3,,,39,0
74688,note_off,,,,,384,0,2,,,,,1,,,55,0
74880,note_on,,,,,192,0,2,,,,,1,,,62,106
74880,note_on,,,,,192,0,1,,,,,0,,,65,115
74880,note_on,,,,,192,0,4,,,,,3,,,46,90
74880,note_on,,,,,192,0,3,,,,,2,,,58,93
75072,note_off,,,,,192,0,4,,,,,3,,,46,0
75072,note_off,,,,,192,0,2,,,,,1,,,62,0
75072,note_off,,,,,192,0,3,,,,,2,,,58,0
75072,note_off,,,,,192,0,1,,,,,0,,,65,0
75264,note_on,,,,,192,0,2,,,,,1,,,62,106
75264,note_on,,,,,192,0,3,,,,,2,,,58,93
75264,note_on,,,,,192,0,1,,,,,0,,,65,115
75264,note_on,,,,,192,0,4,,,,,3,,,46,90
75360,note_off,,,,,96,0,3,,,,,2,,,58,0
75360,note_off,,,,,96,0,1,,,,,0,,,65,0
75360,note_off,,,,,96,0,2,,,,,1,,,62,0
75360,note_off,,,,,96,0,4,,,,,3,,,46,0
75456,note_on,,,,,96,0,1,,,,,0,,,65,115
75456,note_on,,,,,96,0,3,,,,,2,,,58,93
75456,note_on,,,,,96,0,4,,,,,3,,,46,90
75456,note_on,,,,,96,0,2,,,,,1,,,62,106
75648,note_off,,,,,192,0,3,,,,,2,,,58,0
75840,note_on,,,,,0,0,2,,,,,1,,,64,106
75840,note_on,,,,,192,0,3,,,,,2,,,58,93
75840,note_on,,,,,0,0,1,,,,,0,,,67,115
75840,note_off,,,,,384,0,4,,,,,3,,,46,0
75840,note_off,,,,,384,0,1,,,,,0,,,65,0
75840,note_on,,,,,0,0,4,,,,,3,,,43,90
75840,note_off,,,,,384,0,2,,,,,1,,,62,0
75936,note_off,,,,,96,0,3,,,,,2,,,58,0
76032,note_on,,,,,96,0,3,,,,,2,,,60,93
76032,note_on,,,,,0,0,2,,,,,1,,,65,106
76032,note_off,,,,,192,0,1,,,,,0,,,67,0
76032,note_off,,,,,192,0,2,,,,,1,,,64,0
76032,note_on,,,,,0,0,1,,,,,0,,,68,115
76032,note_off,,,,,192,0,4,,,,,3,,,43,0
76032,note_on,,,,,0,0,4,,,,,3,,,41,90
76416,note_off,,,,,384,0,4,,,,,3,,,41,0
76416,note_on,,,,,0,0,4,,,,,3,,,48,90
76416,note_on,,,,,0,0,1,,,,,0,,,72,115
76416,note_on,,,,,0,0,3,,,,,2,,,58,93
76416,note_off,,,,,384,0,2,,,,,1,,,65,0
76416,note_off,,,,,384,0,1,,,,,0,,,68,0
76416,note_on,,,,,0,0,2,,,,,1,,,64,106
76416,note_off,,,,,384,0,3,,,,,2,,,60,0
76608,note_on,,,,,0,0,3,,,,,2,,,56,93
76608,note_on,,,,,0,0,4,,,,,3,,,53,90
76608,note_on,,,,,0,0,2,,,,,1,,,65,106
76608,note_off,,,,,192,0,2,,,,,1,,,64,0
76608,note_off,,,,,192,0,4,,,,,3,,,48,0
76608,note_off,,,,,192,0,3,,,,,2,,,58,0
76608,note_off,,,,,192,0,1,,,,,0,,,72,0
76608,note_on,,,,,0,0,1,,,,,0,,,65,115
76992,note_off,,,,,384,0,4,,,,,3,,,53,0
76992,note_off,,,,,384,0,2,,,,,1,,,65,0
76992,note_off,,,,,384,0,3,,,,,2,,,56,0
76992,note_off,,,,,384,0,1,,,,,0,,,65,0
77184,note_on,,,,,192,0,3,,,,,2,,,56,93
77184,note_on,,,,,192,0,4,,,,,3,,,44,90
77184,note_on,,,,,192,0,2,,,,,1,,,60,106
77184,note_on,,,,,192,0,1,,,,,0,,,63,115
77376,note_off,,,,,192,0,2,,,,,1,,,60,0
77376,note_off,,,,,192,0,4,,,,,3,,,44,0
77376,note_off,,,,,192,0,3,,,,,2,,,56,0
77376,note_off,,,,,192,0,1,,,,,0,,,63,0
77568,note_on,,,,,192,0,1,,,,,0,,,63,115
77568,note_on,,,,,192,0,4,,,,,3,,,44,90
77568,note_on,,,,,192,0,2,,,,,1,,,60,106
77568,note_on,,,,,192,0,3,,,,,2,,,56,93
77664,note_off,,,,,96,0,4,,,,,3,,,44,0
77664,note_off,,,,,96,0,1,,,,,0,,,63,0
77664,note_off,,,,,96,0,3,,,,,2,,,56,0
77664,note_off,,,,,96,0,2,,,,,1,,,60,0
77760,note_on,,,,,96,0,3,,,,,2,,,56,93
77760,note_on,,,,,96,0,4,,,,,3,,,44,90
77760,note_on,,,,,96,0,2,,,,,1,,,60,106
77760,note_on,,,,,96,0,1,,,,,0,,,63,115
77952,note_off,,,,,192,0,3,,,,,2,,,56,0
78144,note_off,,,,,384,0,2,,,,,1,,,60,0
78144,note_on,,,,,0,0,2,,,,,1,,,62,106
78144,note_off,,,,,384,0,1,,,,,0,,,63,0
78144,note_on,,,,,0,0,4,,,,,3,,,41,90
78144,note_on,,,,,192,0,3,,,,,2,,,56,93
78144,note_off,,,,,384,0,4,,,,,3,,,44,0
78144,note_on,,,,,0,0,1,,,,,0,,,65,115
78240,note_off,,,,,96,0,3,,,,,2,,,56,0
78336,note_on,,,,,96,0,3,,,,,2,,,58,93
78336,note_off,,,,,192,0,4,,,,,3,,,41,0
78336,note_on,,,,,0,0,2,,,,,1,,,63,106
78336,note_on,,,,,0,0,1,,,,,0,,,67,115
78336,note_off,,,,,192,0,1,,,,,0,,,65,0
78336,note_off,,,,,192,0,2,,,,,1,,,62,0
78336,note_on,,,,,0,0,4,,,,,3,,,39,90
78720,note_off,,,,,384,0,1,,,,,0,,,67,0
78720,note_off,,,,,384,0,3,,,,,2,,,58,0
78720,note_on,,,,,0,0,3,,,,,2,,,56,93
78720,note_on,,,,,0,0,1,,,,,0,,,70,115
78720,note_off,,,,,384,0,4,,,,,3,,,39,0
78720,note_on,,,,,0,0,2,,,,,1,,,62,106
78720,note_on,,,,,0,0,4,,,,,3,,,46,90
78720,note_off,,,,,384,0,2,,,,,1,,,63,0
78912,note_on,,,,,0,0,1,,,,,0,,,63,115
78912,note_off,,,,,192,0,1,,,,,0,,,70,0
78912,note_off,,,,,192,0,2,,,,,1,,,62,0
78912,note_on,,,,,0,0,3,,,,,2,,,55,93
78912,note_off,,,,,192,0,3,,,,,2,,,56,0
78912,note_off,,,,,192,0,4,,,,,3,,,46,0
78912,note_on,,,,,0,0,4,,,,,3,,,51,90
78912,note_on,,,,,0,0,2,,,,,1,,,63,106
79104,note_off,,,,,192,0,3,,,,,2,,,55,0
79104,note_on,,,,,0,0,3,,,,,2,,,51,93
79200,note_off,,,,,96,0,3,,,,,2,,,51,0
79296,note_off,,,,,384,0,1,,,,,0,,,63,0
79296,note_off,,,,,384,0,4,,,,,3,,,51,0
79296,note_off,,,,,384,0,2,,,,,1,,,63,0
79296,note_on,,,,,96,0,3,,,,,2,,,51,93
79392,note_off,,,,,96,0,3,,,,,2,,,51,0
79488,note_on,,,,,192,0,1,,,,,0,,,63,115
79488,note_on,,,,,192,0,4,,,,,3,,,51,90
79488,note_on,,,,,192,0,2,,,,,1,,,63,106
79488,note_on,,,,,96,0,3,,,,,2,,,51,93
79680,note_on,,,,,0,0,3,,,,,2,,,63,93
79680,note_off,,,,,192,0,3,,,,,2,,,51,0
79872,note_on,,,,,0,0,3,,,,,2,,,61,93
79872,note_off,,,,,192,0,3,,,,,2,,,63,0
80064,note_on,,,,,0,0,3,,,,,2,,,60,93
80064,note_off,,,,,192,0,3,,,,,2,,,61,0
80256,note_on,,,,,0,0,1,,,,,0,,,68,115
80256,note_off,,,,,768,0,1,,,,,0,,,63,0
80448,note_off,,,,,384,0,3,,,,,2,,,60,0
80448,note_off,,,,,192,0,1,,,,,0,,,68,0
80448,note_on,,,,,0,0,1,,,,,0,,,72,115
80448,note_on,,,,,0,0,3,,,,,2,,,56,93
80640,note_off,,,,,192,0,3,,,,,2,,,56,0
80640,note_off,,,,,192,0,1,,,,,0,,,72,0
80640,note_on,,,,,0,0,1,,,,,0,,,70,115
80640,note_on,,,,,0,0,3,,,,,2,,,55,93
80832,note_off,,,,,192,0,3,,,,,2,,,55,0
80832,note_on,,,,,0,0,3,,,,,2,,,58,93
81024,note_on,,,,,0,0,3,,,,,2,,,63,93
81024,note_off,,,,,192,0,3,,,,,2,,,58,0
81216,note_off,,,,,192,0,3,,,,,2,,,63,0
81216,note_on,,,,,0,0,3,,,,,2,,,55,93
81408,note_off,,,,,768,0,1,,,,,0,,,70,0
81408,note_on,,,,,0,0,1,,,,,0,,,75,115
81408,note_off,,,,,192,0,3,,,,,2,,,55,0
81408,note_on,,,,,0,0,3,,,,,2,,,58,93
81600,note_off,,,,,192,0,3,,,,,2,,,58,0
81600,note_on,,,,,0,0,3,,,,,2,,,63,93
81600,note_off,,,,,192,0,1,,,,,0,,,75,0
81600,note_on,,,,,0,0,1,,,,,0,,,67,115
81792,note_on,,,,,0,0,4,,,,,3,,,44,90
81792,note_on,,,,,0,0,3,,,,,2,,,56,93
81792,note_off,,,,,192,0,3,,,,,2,,,63,0
81792,note_off,,,,,2304,0,4,,,,,3,,,51,0
81792,note_off,,,,,2304,0,2,,,,,1,,,63,0
81792,note_on,,,,,0,0,2,,,,,1,,,60,106
81792,note_on,,,,,0,0,1,,,,,0,,,65,115
81792,note_off,,,,,192,0,1,,,,,0,,,67,0
81984,note_off,,,,,192,0,3,,,,,2,,,56,0
81984,note_on,,,,,0,0,3,,,,,2,,,60,93
82080,note_off,,,,,288,0,1,,,,,0,,,65,0
82080,note_on,,,,,0,0,1,,,,,0,,,67,115
82176,note_on,,,,,0,0,3,,,,,2,,,65,93
82176,note_off,,,,,96,0,1,,,,,0,,,67,0
82176,note_on,,,,,0,0,1,,,,,0,,,68,115
82176,note_off,,,,,192,0,3,,,,,2,,,60,0
82320,note_off,,,,,144,0,1,,,,,0,,,68,0
82320,note_on,,,,,0,0,1,,,,,0,,,70,115
82368,note_off,,,,,192,0,3,,,,,2,,,65,0
82368,note_on,,,,,0,0,3,,,,,2,,,56,93
82368,note_off,,,,,48,0,1,,,,,0,,,70,0
82368,note_on,,,,,0,0,1,,,,,0,,,72,115
82560,note_off,,,,,192,0,3,,,,,2,,,56,0
82560,note_on,,,,,0,0,3,,,,,2,,,60,93
82752,note_on,,,,,0,0,3,,,,,2,,,60,93
82752,note_off,,,,,384,0,1,,,,,0,,,72,0
82752,note_on,,,,,0,0,1,,,,,0,,,77,115
82752,note_off,,,,,960,0,2,,,,,1,,,60,0
82752,note_on,,,,,0,0,2,,,,,1,,,65,106
82752,note_off,,,,,192,0,3,,,,,2,,,60,0
82944,note_off,,,,,1152,0,4,,,,,3,,,44,0
82944,note_on,,,,,0,0,4,,,,,3,,,56,90
82944,note_on,,,,,0,0,1,,,,,0,,,65,115
82944,note_off,,,,,192,0,1,,,,,0,,,77,0
82944,note_off,,,,,192,0,3,,,,,2,,,60,0
82944,note_on,,,,,0,0,3,,,,,2,,,59,93
82944,note_on,,,,,0,0,2,,,,,1,,,62,106
82944,note_on,,,,,0,0,1,,,,,0,,,74,115
82944,note_off,,,,,192,0,2,,,,,1,,,65,0
82944,note_on,,,,,0,0,2,,,,,1,,,71,106
83520,note_off,,,,,576,0,2,,,,,1,,,71,0
83520,note_on,,,,,0,0,3,,,,,2,,,58,93
83520,note_off,,,,,0,0,2,,,,,1,,,62,0
83520,note_off,,,,,576,0,3,,,,,2,,,59,0
83520,note_on,,,,,0,0,2,,,,,1,,,70,106
83520,note_on,,,,,0,0,2,,,,,1,,,62,106
83712,note_off,,,,,0,0,1,,,,,0,,,74,0
83712,note_off,,,,,768,0,1,,,,,0,,,65,0
83712,note_off,,,,,192,0,3,,,,,2,,,58,0
83712,note_off,,,,,0,0,2,,,,,1,,,70,0
83712,note_off,,,,,192,0,2,,,,,1,,,62,0
83712,note_off,,,,,768,0,4,,,,,3,,,56,0
83904,note_on,,,,,192,0,1,,,,,0,,,70,115
83904,note_on,,,,,192,0,4,,,,,3,,,44,90
83904,note_on,,,,,192,0,3,,,,,2,,,58,93
83904,note_on,,,,,192,0,2,,,,,1,,,62,106
84096,note_on,,,,,0,0,3,,,,,2,,,63,93
84096,note_off,,,,,192,0,4,,,,,3,,,44,0
84096,note_on,,,,,0,0,4,,,,,3,,,43,90
84096,note_off,,,,,192,0,3,,,,,2,,,58,0
84096,note_on,,,,,0,0,2,,,,,1,,,63,106
84096,note_off,,,,,192,0,1,,,,,0,,,70,0
84096,note_on,,,,,0,0,1,,,,,0,,,75,115
84096,note_off,,,,,192,0,2,,,,,1,,,62,0
84480,note_off,,,,,384,0,3,,,,,2,,,63,0
84480,note_on,,,,,0,0,3,,,,,2,,,61,93
84672,note_on,,,,,0,0,3,,,,,2,,,60,93
84672,note_on,,,,,0,0,4,,,,,3,,,44,90
84672,note_off,,,,,192,0,3,,,,,2,,,61,0
84672,note_off,,,,,576,0,4,,,,,3,,,43,0
84768,note_off,,,,,672,0,1,,,,,0,,,75,0
84768,note_on,,,,,0,0,1,,,,,0,,,71,115
84864,note_off,,,,,96,0,1,,,,,0,,,71,0
84864,note_on,,,,,0,0,1,,,,,0,,,74,115
84864,note_off,,,,,768,0,2,,,,,1,,,63,0
84864,note_off,,,,,192,0,3,,,,,2,,,60,0
84864,note_off,,,,,192,0,4,,,,,3,,,44,0
84960,note_on,,,,,0,0,1,,,,,0,,,72,115
84960,note_off,,,,,96,0,1,,,,,0,,,74,0
85056,note_on,,,,,0,0,1,,,,,0,,,68,115
85056,note_off,,,,,96,0,1,,,,,0,,,72,0
85056,note_on,,,,,192,0,3,,,,,2,,,56,93
85056,note_on,,,,,192,0,2,,,,,1,,,60,106
85056,note_on,,,,,192,0,4,,,,,3,,,44,90
85152,note_on,,,,,0,0,1,,,,,0,,,65,115
85152,note_off,,,,,96,0,1,,,,,0,,,68,0
85248,note_on,,,,,0,0,4,,,,,3,,,46,90
85248,note_off,,,,,192,0,4,,,,,3,,,44,0
85248,note_off,,,,,192,0,3,,,,,2,,,56,0
85248,note_on,,,,,0,0,2,,,,,1,,,58,106
85248,note_off,,,,,192,0,2,,,,,1,,,60,0
85248,note_on,,,,,0,0,3,,,,,2,,,55,93
85248,note_on,,,,,0,0,1,,,,,0,,,63,115
85248,note_off,,,,,96,0,1,,,,,0,,,65,0
85632,note_on,,,,,0,0,2,,,,,1,,,57,106
85632,note_off,,,,,384,0,2,,,,,1,,,58,0
85632,note_on,,,,,0,0,3,,,,,2,,,54,93
85632,note_off,,,,,384,0,3,,,,,2,,,55,0
85824,note_off,,,,,192,0,3,,,,,2,,,54,0
85824,note_on,,,,,0,0,2,,,,,1,,,56,106
85824,note_off,,,,,192,0,2,,,,,1,,,57,0
85824,note_on,,,,,0,0,3,,,,,2,,,53,93
86016,note_off,,,,,768,0,1,,,,,0,,,63,0
86016,note_on,,,,,0,0,1,,,,,0,,,65,115
86208,note_on,,,,,0,0,1,,,,,0,,,62,115
86208,note_off,,,,,192,0,1,,,,,0,,,65,0
86400,note_on,,,,,0,0,4,,,,,3,,,39,90
86400,note_off,,,,,192,0,1,,,,,0,,,62,0
86400,note_on,,,,,0,0,1,,,,,0,,,63,115
86400,note_off,,,,,1152,0,4,,,,,3,,,46,0
86400,note_on,,,,,0,0,3,,,,,2,,,51,93
86400,note_on,,,,,0,0,2,,,,,1,,,55,106
86400,note_off,,,,,576,0,2,,,,,1,,,56,0
86400,note_off,,,,,576,0,3,,,,,2,,,53,0
86592,note_on,,,,,0,0,2,,,,,1,,,58,106
86592,note_off,,,,,192,0,2,,,,,1,,,55,0
86784,note_on,,,,,0,0,2,,,,,1,,,61,106
86784,note_off,,,,,192,0,2,,,,,1,,,58,0
86976,note_on,,,,,0,0,2,,,,,1,,,60,106
86976,note_off,,,,,192,0,2,,,,,1,,,61,0
87360,note_on,,,,,0,0,1,,,,,0,,,68,115
87360,note_off,,,,,960,0,3,,,,,2,,,51,0
87360,note_on,,,,,0,0,3,,,,,2,,,63,93
87360,note_off,,,,,960,0,1,,,,,0,,,63,0
87360,note_off,,,,,384,0,2,,,,,1,,,60,0
87360,note_on,,,,,0,0,2,,,,,1,,,59,106
87552,note_off,,,,,192,0,3,,,,,2,,,63,0
87552,note_on,,,,,0,0,3,,,,,2,,,63,93
87552,note_on,,,,,0,0,2,,,,,1,,,58,106
87552,note_off,,,,,192,0,2,,,,,1,,,59,0
87552,note_off,,,,,192,0,1,,,,,0,,,68,0
87552,note_on,,,,,0,0,1,,,,,0,,,67,115
87936,note_on,,,,,0,0,1,,,,,0,,,70,115
87936,note_on,,,,,0,0,2,,,,,1,,,55,106
87936,note_off,,,,,384,0,2,,,,,1,,,58,0
87936,note_off,,,,,384,0,1,,,,,0,,,67,0
88128,note_on,,,,,0,0,3,,,,,2,,,58,93
88128,note_off,,,,,576,0,3,,,,,2,,,63,0
88128,note_on,,,,,0,0,2,,,,,1,,,58,106
88128,note_off,,,,,192,0,2,,,,,1,,,55,0
88128,note_on,,,,,0,0,1,,,,,0,,,62,115
88128,note_off,,,,,192,0,1,,,,,0,,,70,0
88512,note_on,,,,,0,0,1,,,,,0,,,65,115
88512,note_on,,,,,0,0,3,,,,,2,,,62,93
88512,note_off,,,,,384,0,1,,,,,0,,,62,0
88512,note_off,,,,,384,0,2,,,,,1,,,58,0
88512,note_on,,,,,0,0,2,,,,,1,,,56,106
88512,note_off,,,,,384,0,3,,,,,2,,,58,0
88704,note_off,,,,,192,0,2,,,,,1,,,56,0
88704,note_off,,,,,192,0,1,,,,,0,,,65,0
88704,note_on,,,,,0,0,3,,,,,2,,,63,93
88704,note_on,,,,,0,0,2,,,,,1,,,55,106
88704,note_on,,,,,0,0,1,,,,,0,,,63,115
88704,note_off,,,,,192,0,3,,,,,2,,,62,0
88896,note_on,,,,,0,0,2,,,,,1,,,58,106
88896,note_off,,,,,192,0,2,,,,,1,,,55,0
89088,note_off,,,,,384,0,3,,,,,2,,,63,0
89088,note_off,,,,,192,0,2,,,,,1,,,58,0
89088,note_on,,,,,0,0,2,,,,,1,,,61,106
89088,note_on,,,,,0,0,3,,,,,2,,,51,93
89280,note_on,,,,,0,0,3,,,,,2,,,51,93
89280,note_off,,,,,192,0,2,,,,,1,,,61,0
89280,note_off,,,,,192,0,3,,,,,2,,,51,0
89280,note_on,,,,,0,0,2,,,,,1,,,60,106
89664,note_off,,,,,960,0,1,,,,,0,,,63,0
89664,note_on,,,,,0,0,1,,,,,0,,,68,115
89664,note_on,,,,,0,0,2,,,,,1,,,59,106
89664,note_on,,,,,0,0,3,,,,,2,,,63,93
89664,note_off,,,,,384,0,2,,,,,1,,,60,0
89664,note_off,,,,,384,0,3,,,,,2,,,51,0
89856,note_off,,,,,192,0,3,,,,,2,,,63,0
89856,note_on,,,,,0,0,3,,,,,2,,,63,93
89856,note_off,,,,,192,0,2,,,,,1,,,59,0
89856,note_on,,,,,0,0,2,,,,,1,,,58,106
89856,note_off,,,,,192,0,1,,,,,0,,,68,0
89856,note_on,,,,,0,0,1,,,,,0,,,67,115
90240,note_off,,,,,384,0,2,,,,,1,,,58,0
90240,note_on,,,,,0,0,2,,,,,1,,,55,106
90240,note_off,,,,,384,0,1,,,,,0,,,67,0
90240,note_on,,,,,0,0,1,,,,,0,,,70,115
90432,note_off,,,,,192,0,2,,,,,1,,,55,0
90432,note_on,,,,,0,0,2,,,,,1,,,58,106
90432,note_off,,,,,192,0,1,,,,,0,,,70,0
90432,note_on,,,,,0,0,1,,,,,0,,,62,115
90432,note_off,,,,,576,0,3,,,,,2,,,63,0
90432,note_on,,,,,0,0,3,,,,,2,,,58,93
90816,note_off,,,,,384,0,3,,,,,2,,,58,0
90816,note_on,,,,,0,0,3,,,,,2,,,62,93
90816,note_off,,,,,384,0,2,,,,,1,,,58,0
90816,note_on,,,,,0,0,2,,,,,1,,,56,106
90816,note_on,,,,,0,0,1,,,,,0,,,65,115
90816,note_off,,,,,384,0,1,,,,,0,,,62,0
91008,note_off,,,,,192,0,3,,,,,2,,,62,0
91008,note_off,,,,,192,0,2,,,,,1,,,56,0
91008,note_off,,,,,4608,0,4,,,,,3,,,39,0
91008,note_on,,,,,0,0,4,,,,,3,,,51,90
91008,note_on,,,,,0,0,1,,,,,0,,,63,115
91008,note_on,,,,,0,0,2,,,,,1,,,55,106
91008,note_on,,,,,0,0,3,,,,,2,,,63,93
91008,note_off,,,,,192,0,1,,,,,0,,,65,0
91056,note_off,,,,,48,0,4,,,,,3,,,51,0
91104,note_on,,,,,48,0,4,,,,,3,,,51,90
91152,note_off,,,,,48,0,4,,,,,3,,,51,0
91200,note_on,,,,,48,0,4,,,,,3,,,51,90
91200,note_on,,,,,0,0,2,,,,,1,,,58,106
91200,note_off,,,,,192,0,2,,,,,1,,,55,0
91200,note_off,,,,,192,0,1,,,,,0,,,63,0
91200,note_off,,,,,192,0,3,,,,,2,,,63,0
91200,note_on,,,,,0,0,3,,,,,2,,,58,93
91248,note_off,,,,,48,0,4,,,,,3,,,51,0
91296,note_on,,,,,48,0,4,,,,,3,,,51,90
91344,note_off,,,,,48,0,4,,,,,3,,,51,0
91392,note_on,,,,,48,0,4,,,,,3,,,51,90
91392,note_on,,,,,0,0,3,,,,,2,,,55,93
91392,note_on,,,,,0,0,2,,,,,1,,,63,106
91392,note_off,,,,,192,0,2,,,,,1,,,58,0
91392,note_off,,,,,192,0,3,,,,,2,,,58,0
91440,note_off,,,,,48,0,4,,,,,3,,,51,0
91488,note_on,,,,,48,0,4,,,,,3,,,51,90
91536,note_off,,,,,48,0,4,,,,,3,,,51,0
91584,note_on,,,,,0,0,3,,,,,2,,,56,93
91584,note_off,,,,,192,0,2,,,,,1,,,63,0
91584,note_on,,,,,0,0,2,,,,,1,,,62,106
91584,note_on,,,,,48,0,4,,,,,3,,,51,90
91584,note_on,,,,,384,0,1,,,,,0,,,82,115
91584,note_off,,,,,192,0,3,,,,,2,,,55,0
91632,note_off,,,,,48,0,1,,,,,0,,,82,0
91680,note_on,,,,,48,0,1,,,,,0,,,82,115
91728,note_off,,,,,48,0,1,,,,,0,,,82,0
91776,note_off,,,,,192,0,2,,,,,1,,,62,0
91776,note_on,,,,,48,0,1,,,,,0,,,82,115
91776,note_on,,,,,0,0,2,,,,,1,,,58,106
91824,note_off,,,,,48,0,1,,,,,0,,,82,0
91872,note_on,,,,,48,0,1,,,,,0,,,82,115
91920,note_off,,,,,48,0,1,,,,,0,,,82,0
91968,note_on,,,,,48,0,1,,,,,0,,,82,115
91968,note_on,,,,,0,0,2,,,,,1,,,62,106
91968,note_off,,,,,192,0,2,,,,,1,,,58,0
92016,note_off,,,,,48,0,1,,,,,0,,,82,0
92064,note_on,,,,,48,0,1,,,,,0,,,82,115
92112,note_off,,,,,48,0,1,,,,,0,,,82,0
92160,note_on,,,,,48,0,1,,,,,0,,,82,115
92160,note_on,,,,,0,0,2,,,,,1,,,63,106
92160,note_off,,,,,192,0,2,,,,,1,,,62,0
92160,note_on,,,,,0,0,3,,,,,2,,,55,93
92160,note_off,,,,,576,0,3,,,,,2,,,56,0
92256,note_on,,,,,0,0,4,,,,,3,,,51,90
92256,note_off,,,,,672,0,4,,,,,3,,,51,0
92304,note_off,,,,,48,0,4,,,,,3,,,51,0
92352,note_on,,,,,0,0,2,,,,,1,,,58,106
92352,note_on,,,,,48,0,4,,,,,3,,,51,90
92352,note_off,,,,,192,0,2,,,,,1,,,63,0
92400,note_off,,,,,48,0,4,,,,,3,,,51,0
92448,note_on,,,,,48,0,4,,,,,3,,,51,90
92496,note_off,,,,,48,0,4,,,,,3,,,51,0
92544,note_on,,,,,0,0,2,,,,,1,,,63,106
92544,note_off,,,,,192,0,2,,,,,1,,,58,0
92544,note_on,,,,,48,0,4,,,,,3,,,51,90
92544,note_off,,,,,384,0,1,,,,,0,,,82,0
92592,note_off,,,,,48,0,4,,,,,3,,,51,0
92640,note_on,,,,,48,0,4,,,,,3,,,51,90
92688,note_off,,,,,48,0,4,,,,,3,,,51,0
92736,note_off,,,,,192,0,2,,,,,1,,,63,0
92736,note_on,,,,,48,0,4,,,,,3,,,51,90
92736,note_on,,,,,0,0,2,,,,,1,,,62,106
92736,note_on,,,,,0,0,3,,,,,2,,,56,93
92736,note_on,,,,,192,0,1,,,,,0,,,70,115
92736,note_off,,,,,576,0,3,,,,,2,,,55,0
92784,note_off,,,,,48,0,1,,,,,0,,,70,0
92832,note_on,,,,,48,0,1,,,,,0,,,70,115
92880,note_off,,,,,48,0,1,,,,,0,,,70,0
92928,note_off,,,,,192,0,2,,,,,1,,,62,0
92928,note_on,,,,,0,0,2,,,,,1,,,58,106
92928,note_on,,,,,48,0,1,,,,,0,,,70,115
92976,note_off,,,,,48,0,1,,,,,0,,,70,0
93024,note_on,,,,,48,0,1,,,,,0,,,70,115
93072,note_off,,,,,48,0,1,,,,,0,,,70,0
93120,note_on,,,,,48,0,1,,,,,0,,,70,115
93120,note_off,,,,,192,0,2,,,,,1,,,58,0
93120,note_on,,,,,0,0,2,,,,,1,,,62,106
93168,note_off,,,,,48,0,1,,,,,0,,,70,0
93216,note_on,,,,,48,0,1,,,,,0,,,70,115
93264,note_off,,,,,48,0,1,,,,,0,,,70,0
93312,note_on,,,,,0,0,2,,,,,1,,,63,106
93312,note_on,,,,,0,0,3,,,,,2,,,55,93
93312,note_off,,,,,192,0,2,,,,,1,,,62,0
93312,note_off,,,,,576,0,3,,,,,2,,,56,0
93312,note_on,,,,,48,0,1,,,,,0,,,70,115
93408,note_on,,,,,0,0,4,,,,,3,,,51,90
93408,note_off,,,,,672,0,4,,,,,3,,,51,0
93456,note_off,,,,,48,0,4,,,,,3,,,51,0
93504,note_on,,,,,0,0,2,,,,,1,,,58,106
93504,note_off,,,,,192,0,2,,,,,1,,,63,0
93504,note_on,,,,,48,0,4,,,,,3,,,51,90
93552,note_off,,,,,48,0,4,,,,,3,,,51,0
93600,note_on,,,,,48,0,4,,,,,3,,,51,90
93648,note_off,,,,,48,0,4,,,,,3,,,51,0
93696,note_on,,,,,0,0,2,,,,,1,,,63,106
93696,note_off,,,,,192,0,2,,,,,1,,,58,0
93696,note_on,,,,,48,0,4,,,,,3,,,51,90
93744,note_off,,,,,48,0,4,,,,,3,,,51,0
93792,note_on,,,,,48,0,4,,,,,3,,,51,90
93840,note_off,,,,,48,0,4,,,,,3,,,51,0
93888,note_on,,,,,48,0,4,,,,,3,,,51,90
93888,note_on,,,,,0,0,2,,,,,1,,,58,106
93888,note_off,,,,,192,0,2,,,,,1,,,63,0
94080,note_on,,,,,0,0,2,,,,,1,,,55,106
94080,note_on,,,,,0,0,3,,,,,2,,,51,93
94080,note_off,,,,,192,0,2,,,,,1,,,58,0
94080,note_off,,,,,768,0,3,,,,,2,,,55,0
94272,note_off,,,,,192,0,3,,,,,2,,,51,0
94272,note_on,,,,,0,0,3,,,,,2,,,56,93
94272,note_off,,,,,960,0,1,,,,,0,,,70,0
94272,note_on,,,,,0,0,2,,,,,1,,,60,106
94272,note_off,,,,,192,0,2,,,,,1,,,55,0
94272,note_off,,,,,384,0,4,,,,,3,,,51,0
94272,note_on,,,,,0,0,4,,,,,3,,,44,90
94272,note_on,,,,,0,0,1,,,,,0,,,72,115
94464,note_off,,,,,192,0,1,,,,,0,,,72,0
94464,note_off,,,,,192,0,4,,,,,3,,,44,0
94464,note_off,,,,,192,0,2,,,,,1,,,60,0
94464,note_on,,,,,0,0,2,,,,,1,,,62,106
94464,note_on,,,,,0,0,3,,,,,2,,,53,93
94464,note_off,,,,,192,0,3,,,,,2,,,56,0
94464,note_on,,,,,0,0,4,,,,,3,,,43,90
94464,note_on,,,,,0,0,1,,,,,0,,,65,115
94656,note_off,,,,,192,0,2,,,,,1,,,62,0
94656,note_on,,,,,0,0,2,,,,,1,,,58,106
94656,note_on,,,,,0,0,3,,,,,2,,,58,93
94656,note_off,,,,,192,0,3,,,,,2,,,53,0
94752,note_on,,,,,0,0,1,,,,,0,,,67,115
94752,note_off,,,,,288,0,1,,,,,0,,,65,0
94848,note_on,,,,,0,0,1,,,,,0,,,68,115
94848,note_off,,,,,96,0,1,,,,,0,,,67,0
94848,note_on,,,,,0,0,3,,,,,2,,,53,93
94848,note_off,,,,,192,0,3,,,,,2,,,58,0
94848,note_off,,,,,192,0,2,,,,,1,,,58,0
94848,note_on,,,,,0,0,2,,,,,1,,,62,106
94992,note_off,,,,,144,0,1,,,,,0,,,68,0
94992,note_on,,,,,0,0,1,,,,,0,,,70,115
95040,note_off,,,,,576,0,4,,,,,3,,,43,0
95040,note_on,,,,,0,0,4,,,,,3,,,51,90
95040,note_off,,,,,192,0,3,,,,,2,,,53,0
95040,note_off,,,,,48,0,1,,,,,0,,,70,0
95040,note_off,,,,,192,0,2,,,,,1,,,62,0
95040,note_on,,,,,0,0,2,,,,,1,,,63,106
95040,note_on,,,,,0,0,1,,,,,0,,,67,115
95040,note_on,,,,,0,0,3,,,,,2,,,55,93
95232,note_off,,,,,192,0,2,,,,,1,,,63,0
95232,note_on,,,,,0,0,2,,,,,1,,,58,106
95232,note_on,,,,,0,0,3,,,,,2,,,58,93
95232,note_off,,,,,192,0,3,,,,,2,,,55,0
95424,note_off,,,,,192,0,2,,,,,1,,,58,0
95424,note_on,,,,,0,0,3,,,,,2,,,63,93
95424,note_on,,,,,0,0,2,,,,,1,,,55,106
95424,note_off,,,,,384,0,4,,,,,3,,,51,0
95424,note_off,,,,,384,0,1,,,,,0,,,67,0
95424,note_on,,,,,0,0,1,,,,,0,,,75,115
95424,note_off,,,,,192,0,3,,,,,2,,,58,0
95616,note_on,,,,,192,0,4,,,,,3,,,51,90
95616,note_off,,,,,192,0,3,,,,,2,,,63,0
95616,note_off,,,,,192,0,1,,,,,0,,,75,0
95616,note_on,,,,,0,0,1,,,,,0,,,70,115
95616,note_on,,,,,0,0,3,,,,,2,,,55,93
95616,note_off,,,,,192,0,2,,,,,1,,,55,0
95616,note_on,,,,,0,0,2,,,,,1,,,58,106
95808,note_on,,,,,0,0,3,,,,,2,,,51,93
95808,note_off,,,,,192,0,3,,,,,2,,,55,0
95808,note_off,,,,,192,0,2,,,,,1,,,58,0
95808,note_on,,,,,0,0,2,,,,,1,,,55,106
96000,note_off,,,,,384,0,4,,,,,3,,,51,0
96000,note_off,,,,,192,0,2,,,,,1,,,55,0
96000,note_on,,,,,0,0,2,,,,,1,,,58,106
96000,note_on,,,,,0,0,3,,,,,2,,,55,93
96000,note_on,,,,,0,0,4,,,,,3,,,49,90
96000,note_off,,,,,192,0,3,,,,,2,,,51,0
96000,note_on,,,,,0,0,3,,,,,2,,,53,93
96192,note_off,,,,,192,0,2,,,,,1,,,58,0
96192,note_on,,,,,0,0,2,,,,,1,,,58,106
96192,note_on,,,,,0,0,3,,,,,2,,,55,93
96192,note_on,,,,,0,0,4,,,,,3,,,48,90
96192,note_off,,,,,192,0,4,,,,,3,,,49,0
96192,note_off,,,,,192,0,3,,,,,2,,,53,0
96192,note_off,,,,,0,0,3,,,,,2,,,55,0
96192,note_on,,,,,0,0,3,,,,,2,,,52,93
96384,note_off,,,,,0,0,3,,,,,2,,,55,0
96384,note_on,,,,,0,0,3,,,,,2,,,52,93
96384,note_off,,,,,768,0,1,,,,,0,,,70,0
96384,note_on,,,,,0,0,1,,,,,0,,,71,115
96384,note_on,,,,,0,0,2,,,,,1,,,55,106
96384,note_off,,,,,192,0,2,,,,,1,,,58,0
96384,note_off,,,,,192,0,3,,,,,2,,,52,0
96576,note_on,,,,,0,0,3,,,,,2,,,51,93
96576,note_on,,,,,0,0,2,,,,,1,,,56,106
96576,note_off,,,,,192,0,3,,,,,2,,,52,0
96576,note_off,,,,,192,0,2,,,,,1,,,55,0
96576,note_on,,,,,0,0,4,,,,,3,,,44,90
96576,note_off,,,,,384,0,4,,,,,3,,,48,0
96576,note_off,,,,,192,0,1,,,,,0,,,71,0
96576,note_on,,,,,0,0,1,,,,,0,,,72,115
96768,note_off,,,,,192,0,4,,,,,3,,,44,0
96768,note_off,,,,,192,0,2,,,,,1,,,56,0
96768,note_on,,,,,0,0,2,,,,,1,,,62,106
96768,note_on,,,,,0,0,3,,,,,2,,,53,93
96768,note_off,,,,,192,0,3,,,,,2,,,51,0
96768,note_on,,,,,0,0,4,,,,,3,,,46,90
96768,note_on,,,,,0,0,1,,,,,0,,,65,115
96768,note_off,,,,,192,0,1,,,,,0,,,72,0
96960,note_off,,,,,192,0,3,,,,,2,,,53,0
96960,note_off,,,,,192,0,2,,,,,1,,,62,0
96960,note_on,,,,,0,0,2,,,,,1,,,58,106
96960,note_on,,,,,0,0,3,,,,,2,,,58,93
97056,note_on,,,,,0,0,1,,,,,0,,,67,115
97056,note_off,,,,,288,0,1,,,,,0,,,65,0
97152,note_off,,,,,96,0,1,,,,,0,,,67,0
97152,note_on,,,,,0,0,2,,,,,1,,,62,106
97152,note_off,,,,,192,0,2,,,,,1,,,58,0
97152,note_on,,,,,0,0,3,,,,,2,,,53,93
97152,note_on,,,,,0,0,1,,,,,0,,,68,115
97152,note_off,,,,,192,0,3,,,,,2,,,58,0
97296,note_on,,,,,0,0,1,,,,,0,,,70,115
97296,note_off,,,,,144,0,1,,,,,0,,,68,0
97344,note_off,,,,,192,0,2,,,,,1,,,62,0
97344,note_off,,,,,576,0,4,,,,,3,,,46,0
97344,note_on,,,,,0,0,4,,,,,3,,,39,90
97344,note_off,,,,,48,0,1,,,,,0,,,70,0
97344,note_off,,,,,192,0,3,,,,,2,,,53,0
97344,note_on,,,,,0,0,3,,,,,2,,,55,93
97344,note_on,,,,,0,0,1,,,,,0,,,67,115
97344,note_on,,,,,0,0,2,,,,,1,,,63,106
97536,note_off,,,,,192,0,3,,,,,2,,,55,0
97536,note_off,,,,,192,0,1,,,,,0,,,67,0
97536,note_on,,,,,0,0,2,,,,,1,,,58,106
97536,note_on,,,,,0,0,3,,,,,2,,,58,93
97536,note_off,,,,,192,0,2,,,,,1,,,63,0
97728,note_off,,,,,192,0,2,,,,,1,,,58,0
97728,note_on,,,,,0,0,3,,,,,2,,,55,93
97728,note_off,,,,,192,0,3,,,,,2,,,58,0
97728,note_off,,,,,384,0,4,,,,,3,,,39,0
97728,note_on,,,,,0,0,2,,,,,1,,,63,106
97920,note_off,,,,,192,0,2,,,,,1,,,63,0
97920,note_on,,,,,0,0,2,,,,,1,,,62,106
97920,note_off,,,,,192,0,3,,,,,2,,,55,0
97920,note_on,,,,,384,0,1,,,,,0,,,70,115
97920,note_on,,,,,0,0,3,,,,,2,,,56,93
97968,note_off,,,,,48,0,1,,,,,0,,,70,0
98016,note_on,,,,,48,0,1,,,,,0,,,70,115
98064,note_off,,,,,48,0,1,,,,,0,,,70,0
98112,note_on,,,,,48,0,1,,,,,0,,,70,115
98112,note_off,,,,,192,0,2,,,,,1,,,62,0
98112,note_on,,,,,0,0,2,,,,,1,,,58,106
98160,note_off,,,,,48,0,1,,,,,0,,,70,0
98208,note_on,,,,,48,0,1,,,,,0,,,70,115
98256,note_off,,,,,48,0,1,,,,,0,,,70,0
98304,note_on,,,,,48,0,1,,,,,0,,,70,115
98304,note_on,,,,,0,0,2,,,,,1,,,62,106
98304,note_off,,,,,192,0,2,,,,,1,,,58,0
98352,note_off,,,,,48,0,1,,,,,0,,,70,0
98400,note_on,,,,,48,0,1,,,,,0,,,70,115
98448,note_off,,,,,48,0,1,,,,,0,,,70,0
98496,note_on,,,,,768,0,4,,,,,3,,,39,90
98496,note_off,,,,,576,0,3,,,,,2,,,56,0
98496,note_on,,,,,0,0,3,,,,,2,,,55,93
98496,note_off,,,,,192,0,2,,,,,1,,,62,0
98496,note_on,,,,,0,0,2,,,,,1,,,63,106
98496,note_on,,,,,48,0,1,,,,,0,,,70,115
98544,note_off,,,,,48,0,4,,,,,3,,,39,0
98592,note_on,,,,,48,0,4,,,,,3,,,39,90
98640,note_off,,,,,48,0,4,,,,,3,,,39,0
98688,note_on,,,,,0,0,2,,,,,1,,,58,106
98688,note_on,,,,,48,0,4,,,,,3,,,39,90
98688,note_off,,,,,192,0,3,,,,,2,,,55,0
98688,note_on,,,,,0,0,3,,,,,2,,,58,93
98688,note_off,,,,,192,0,2,,,,,1,,,63,0
98736,note_off,,,,,48,0,4,,,,,3,,,39,0
98784,note_on,,,,,48,0,4,,,,,3,,,39,90
98832,note_off,,,,,48,0,4,,,,,3,,,39,0
98880,note_off,,,,,192,0,2,,,,,1,,,58,0
98880,note_on,,,,,0,0,2,,,,,1,,,55,106
98880,note_on,,,,,0,0,1,,,,,0,,,75,115
98880,note_off,,,,,384,0,1,,,,,0,,,70,0
98880,note_on,,,,,48,0,4,,,,,3,,,39,90
98880,note_on,,,,,0,0,3,,,,,2,,,63,93
98880,note_off,,,,,192,0,3,,,,,2,,,58,0
98928,note_off,,,,,48,0,4,,,,,3,,,39,0
98976,note_on,,,,,48,0,4,,,,,3,,,39,90
99024,note_off,,,,,48,0,4,,,,,3,,,39,0
99072,note_off,,,,,192,0,3,,,,,2,,,63,0
99072,note_on,,,,,0,0,3,,,,,2,,,62,93
99072,note_on,,,,,0,0,1,,,,,0,,,70,115
99072,note_on,,,,,48,0,4,,,,,3,,,39,90
99072,note_off,,,,,192,0,1,,,,,0,,,75,0
99072,note_on,,,,,0,0,2,,,,,1,,,56,106
99072,note_off,,,,,192,0,2,,,,,1,,,55,0
99120,note_off,,,,,48,0,1,,,,,0,,,70,0
99168,note_on,,,,,48,0,1,,,,,0,,,70,115
99216,note_off,,,,,48,0,1,,,,,0,,,70,0
99264,note_off,,,,,192,0,3,,,,,2,,,62,0
99264,note_on,,,,,48,0,1,,,,,0,,,70,115
99264,note_on,,,,,0,0,3,,,,,2,,,58,93
99312,note_off,,,,,48,0,1,,,,,0,,,70,0
99360,note_on,,,,,48,0,1,,,,,0,,,70,115
99408,note_off,,,,,48,0,1,,,,,0,,,70,0
99456,note_on,,,,,48,0,1,,,,,0,,,70,115
99456,note_off,,,,,192,0,3,,,,,2,,,58,0
99456,note_on,,,,,0,0,3,,,,,2,,,62,93
99504,note_off,,,,,48,0,1,,,,,0,,,70,0
99552,note_on,,,,,48,0,1,,,,,0,,,70,115
99600,note_off,,,,,48,0,1,,,,,0,,,70,0
99648,note_on,,,,,0,0,2,,,,,1,,,55,106
99648,note_off,,,,,576,0,2,,,,,1,,,56,0
99648,note_off,,,,,576,0,4,,,,,3,,,39,0
99648,note_on,,,,,48,0,1,,,,,0,,,67,115
99648,note_on,,,,,0,0,4,,,,,3,,,39,90
99648,note_off,,,,,192,0,3,,,,,2,,,62,0
99648,note_on,,,,,0,0,3,,,,,2,,,63,93
99696,note_off,,,,,48,0,4,,,,,3,,,39,0
99744,note_on,,,,,48,0,4,,,,,3,,,39,90
99792,note_off,,,,,48,0,4,,,,,3,,,39,0
99840,note_on,,,,,48,0,4,,,,,3,,,39,90
99840,note_on,,,,,0,0,3,,,,,2,,,58,93
99840,note_off,,,,,192,0,3,,,,,2,,,63,0
99840,note_off,,,,,192,0,1,,,,,0,,,67,0
99888,note_off,,,,,48,0,4,,,,,3,,,39,0
99936,note_on,,,,,48,0,4,,,,,3,,,39,90
99984,note_off,,,,,48,0,4,,,,,3,,,39,0
100032,note_on,,,,,48,0,4,,,,,3,,,39,90
100032,note_on,,,,,0,0,3,,,,,2,,,55,93
100032,note_off,,,,,192,0,3,,,,,2,,,58,0
100080,note_off,,,,,48,0,4,,,,,3,,,39,0
100128,note_on,,,,,48,0,4,,,,,3,,,39,90
100176,note_off,,,,,48,0,4,,,,,3,,,39,0
100224,note_off,,,,,192,0,3,,,,,2,,,55,0
100224,note_on,,,,,0,0,3,,,,,2,,,55,93
100224,note_on,,,,,59136,0,5,,,,,4,,,67,84
100224,note_on,,,,,0,0,1,,,,,0,,,70,1
100224,note_on,,,,,384,0,1,,,,,0,,,67,1
100224,note_on,,,,,48,0,4,,,,,3,,,39,90
100224,note_on,,,,,0,0,2,,,,,1,,,58,106
100224,note_off,,,,,576,0,2,,,,,1,,,55,0
100224,note_on,,,,,0,0,5,,,,,4,,,70,84
100416,note_off,,,,,192,0,5,,,,,4,,,67,0
100416,note_off,,,,,0,0,5,,,,,4,,,70,0
100416,note_off,,,,,0,0,1,,,,,0,,,70,0
100416,note_off,,,,,192,0,3,,,,,2,,,55,0
100416,note_on,,,,,0,0,3,,,,,2,,,58,93
100416,note_on,,,,,0,0,2,,,,,1,,,55,106
100416,note_off,,,,,192,0,2,,,,,1,,,58,0
100416,note_off,,,,,192,0,1,,,,,0,,,67,0
100608,note_off,,,,,192,0,3,,,,,2,,,58,0
100608,note_on,,,,,0,0,3,,,,,2,,,55,93
100608,note_on,,,,,0,0,2,,,,,1,,,58,106
100608,note_off,,,,,192,0,2,,,,,1,,,55,0
100800,note_on,,,,,0,0,5,,,,,4,,,67,84
100800,note_on,,,,,384,0,5,,,,,4,,,58,84
100800,note_on,,,,,0,0,1,,,,,0,,,67,1
100800,note_on,,,,,0,0,2,,,,,1,,,58,106
100800,note_off,,,,,192,0,2,,,,,1,,,58,0
100800,note_on,,,,,384,0,1,,,,,0,,,58,1
100800,note_off,,,,,192,0,3,,,,,2,,,55,0
100800,note_on,,,,,0,0,3,,,,,2,,,55,93
100992,note_off,,,,,192,0,2,,,,,1,,,58,0
100992,end_of_track,,,,,0,1,5,,,,,,,,,
100992,note_off,,,,,0,0,5,,,,,4,,,67,0
100992,note_off,,,,,192,0,5,,,,,4,,,58,0
100992,note_off,,,,,0,0,1,,,,,0,,,67,0
100992,note_on,,,,,0,0,3,,,,,2,,,58,93
100992,note_off,,,,,192,0,1,,,,,0,,,58,0
100992,note_on,,,,,0,0,2,,,,,1,,,55,106
100992,note_off,,,,,192,0,3,,,,,2,,,55,0
101184,note_on,,,,,0,0,2,,,,,1,,,58,106
101184,note_off,,,,,192,0,3,,,,,2,,,58,0
101184,note_on,,,,,0,0,3,,,,,2,,,55,93
101184,note_off,,,,,192,0,2,,,,,1,,,55,0
101376,note_off,,,,,192,0,2,,,,,1,,,58,0
101376,note_on,,,,,0,0,2,,,,,1,,,58,106
101376,note_on,,,,,384,0,1,,,,,0,,,55,115
101376,note_on,,,,,0,0,1,,,,,0,,,63,115
101376,note_on,,,,,0,0,3,,,,,2,,,55,93
101376,note_off,,,,,192,0,3,,,,,2,,,55,0
102528,end_of_track,,,,,0,1,1,,,,,,,,,
102528,end_of_track,,,,,0,1,2,,,,,,,,,
102528,note_off,,,,,1152,0,2,,,,,1,,,58,0
102528,note_off,,,,,1152,0,1,,,,,0,,,55,0
102528,end_of_track,,,,,0,1,4,,,,,,,,,
102528,note_off,,,,,2304,0,4,,,,,3,,,39,0
102528,end_of_track,,,,,0,1,3,,,,,,,,,
102528,note_off,,,,,0,0,1,,,,,0,,,63,0
102528,note_off,,,,,1152,0,3,,,,,2,,,55,0
