tick,type,numerator,denominator,clocks_per_click,notated_32nd_notes_per_beat,time,meta,track,data,tempo,control,value,channel,program,key,note,velocity
0,time_signature,4,4,96,8,0,1,0,,,,,,,,,
0,control_change,,,,,0,0,2,,,10,42,1,,,,
0,program_change,,,,,0,0,2,,,,,1,40,,,
0,key_signature,,,,,0,1,2,,,,,,,C,,
0,note_on,,,,,0,0,2,,,,,1,,,56,100
0,note_on,,,,,0,0,2,,,,,1,,,64,100
0,key_signature,,,,,0,1,6,,,,,,,C,,
0,track_name,,,,,0,1,3,,,,,,,,,
0,control_change,,,,,0,0,3,,,0,0,2,,,,
0,control_change,,,,,0,0,3,,,10,80,2,,,,
0,program_change,,,,,0,0,3,,,,,2,41,,,
0,key_signature,,,,,0,1,3,,,,,,,C,,
0,note_on,,,,,0,0,3,,,,,2,,,59,100
0,track_name,,,,,0,1,4,,,,,,,,,
0,control_change,,,,,0,0,4,,,0,0,3,,,,
0,control_change,,,,,0,0,4,,,10,94,3,,,,
0,program_change,,,,,0,0,4,,,,,3,42,,,
0,key_signature,,,,,0,1,4,,,,,,,C,,
0,note_on,,,,,0,0,4,,,,,3,,,52,100
0,track_name,,,,,0,1,5,,,,,,,,,
0,key_signature,,,,,0,1,5,,,,,,,C,,
0,end_of_track,,,,,0,1,5,,,,,,,,,
0,control_change,,,,,0,0,2,,,0,0,1,,,,
0,track_name,,,,,0,1,2,,,,,,,,,
0,end_of_track,,,,,0,1,6,,,,,,,,,
0,end_of_track,,,,,0,1,0,,,,,,,,,
0,note_on,,,,,0,0,1,,,,,0,,,64,100
0,key_signature,,,,,0,1,1,,,,,,,C,,
0,program_change,,,,,0,0,1,,,,,0,40,,,
0,control_change,,,,,0,0,1,,,7,127,0,,,,
0,control_change,,,,,0,0,1,,,10,37,0,,,,
0,control_change,,,,,0,0,1,,,0,0,0,,,,
0,track_name,,,,,0,1,1,,,,,,,,,
0,sequencer_specific,,,,,0,1,0,"(0, 0, 65)",,,,,,,,
0,set_tempo,,,,,0,1,0,,405405,,,,,,,
672,note_on,,,,,0,0,1,,,,,0,,,76,100
672,note_off,,,,,672,0,1,,,,,0,,,64,0
768,note_on,,,,,0,0,1,,,,,0,,,76,100
768,note_on,,,,,0,0,4,,,,,3,,,52,100
768,note_off,,,,,768,0,4,,,,,3,,,52,0
768,note_off,,,,,768,0,2,,,,,1,,,56,0
768,note_off,,,,,0,0,2,,,,,1,,,64,0
768,note_on,,,,,0,0,3,,,,,2,,,56,100
768,note_on,,,,,0,0,2,,,,,1,,,68,100
768,note_off,,,,,96,0,1,,,,,0,,,76,0
768,note_off,,,,,768,0,3,,,,,2,,,59,0
768,note_on,,,,,0,0,3,,,,,2,,,64,100
768,note_on,,,,,0,0,2,,,,,1,,,59,100
1440,note_off,,,,,672,0,1,,,,,0,,,76,0
1440,note_on,,,,,0,0,1,,,,,0,,,88,100
1536,note_on,,,,,0,0,3,,,,,2,,,68,100
1536,note_off,,,,,768,0,4,,,,,3,,,52,0
1536,note_on,,,,,0,0,4,,,,,3,,,49,100
1536,note_on,,,,,0,0,3,,,,,2,,,61,100
1536,note_on,,,,,0,0,2,,,,,1,,,64,100
1536,note_off,,,,,0,0,3,,,,,2,,,56,0
1536,note_off,,,,,768,0,3,,,,,2,,,64,0
1536,note_on,,,,,0,0,2,,,,,1,,,73,100
1536,note_off,,,,,0,0,2,,,,,1,,,68,0
1536,note_off,,,,,768,0,2,,,,,1,,,59,0
1536,note_off,,,,,96,0,1,,,,,0,,,88,0
1536,note_on,,,,,0,0,1,,,,,0,,,88,100
1728,note_off,,,,,192,0,3,,,,,2,,,61,0
1728,note_off,,,,,0,0,3,,,,,2,,,68,0
1728,note_off,,,,,192,0,2,,,,,1,,,73,0
1728,note_off,,,,,192,0,4,,,,,3,,,49,0
1728,note_off,,,,,0,0,2,,,,,1,,,64,0
1728,note_off,,,,,192,0,1,,,,,0,,,88,0
1920,note_on,,,,,0,0,3,,,,,2,,,68,100
1920,note_on,,,,,192,0,2,,,,,1,,,73,100
1920,note_on,,,,,192,0,4,,,,,3,,,49,100
1920,note_on,,,,,192,0,3,,,,,2,,,61,100
1920,note_on,,,,,192,0,1,,,,,0,,,76,100
1920,note_on,,,,,0,0,2,,,,,1,,,64,100
2112,note_off,,,,,192,0,2,,,,,1,,,73,0
2112,note_off,,,,,0,0,2,,,,,1,,,64,0
2112,note_off,,,,,192,0,1,,,,,0,,,76,0
2112,note_off,,,,,192,0,3,,,,,2,,,61,0
2112,note_off,,,,,192,0,4,,,,,3,,,49,0
2112,note_off,,,,,0,0,3,,,,,2,,,68,0
3072,note_on,,,,,960,0,2,,,,,1,,,63,100
3072,note_on,,,,,960,0,1,,,,,0,,,66,100
3072,note_on,,,,,960,0,3,,,,,2,,,59,100
3072,note_on,,,,,960,0,4,,,,,3,,,47,100
3840,note_off,,,,,768,0,4,,,,,3,,,47,0
3840,note_on,,,,,0,0,4,,,,,3,,,44,100
3840,note_on,,,,,0,0,1,,,,,0,,,68,100
3840,note_off,,,,,768,0,1,,,,,0,,,66,0
3840,note_off,,,,,768,0,2,,,,,1,,,63,0
3840,note_on,,,,,0,0,2,,,,,1,,,65,100
4608,note_off,,,,,768,0,4,,,,,3,,,44,0
4608,note_on,,,,,0,0,4,,,,,3,,,42,100
4608,note_off,,,,,768,0,2,,,,,1,,,65,0
4608,note_on,,,,,0,0,2,,,,,1,,,66,100
4608,note_off,,,,,1536,0,3,,,,,2,,,59,0
4608,note_on,,,,,0,0,3,,,,,2,,,61,100
4608,note_off,,,,,768,0,1,,,,,0,,,68,0
4608,note_on,,,,,0,0,1,,,,,0,,,71,100
4992,note_on,,,,,0,0,1,,,,,0,,,69,100
4992,note_off,,,,,384,0,1,,,,,0,,,71,0
5760,note_off,,,,,1152,0,4,,,,,3,,,42,0
5760,note_on,,,,,0,0,1,,,,,0,,,68,100
5760,note_off,,,,,768,0,1,,,,,0,,,69,0
5760,note_off,,,,,1152,0,3,,,,,2,,,61,0
5760,note_on,,,,,0,0,3,,,,,2,,,57,100
5760,note_off,,,,,1152,0,2,,,,,1,,,66,0
5760,note_on,,,,,0,0,2,,,,,1,,,63,100
5760,note_on,,,,,0,0,4,,,,,3,,,47,100
5952,note_on,,,,,0,0,1,,,,,0,,,66,100
5952,note_off,,,,,192,0,1,,,,,0,,,68,0
6144,note_off,,,,,384,0,2,,,,,1,,,63,0
6144,note_on,,,,,0,0,2,,,,,1,,,64,100
6144,note_on,,,,,0,0,2,,,,,1,,,56,100
6144,note_on,,,,,0,0,1,,,,,0,,,64,100
6144,note_on,,,,,0,0,3,,,,,2,,,56,100
6144,note_on,,,,,0,0,3,,,,,2,,,59,100
6144,note_off,,,,,384,0,3,,,,,2,,,57,0
6144,note_on,,,,,0,0,4,,,,,3,,,52,100
6144,note_off,,,,,384,0,4,,,,,3,,,47,0
6144,note_off,,,,,192,0,1,,,,,0,,,66,0
6816,note_off,,,,,672,0,1,,,,,0,,,64,0
6816,note_on,,,,,0,0,1,,,,,0,,,76,100
6912,note_on,,,,,0,0,3,,,,,2,,,56,100
6912,note_off,,,,,0,0,3,,,,,2,,,56,0
6912,note_off,,,,,768,0,3,,,,,2,,,59,0
6912,note_off,,,,,96,0,1,,,,,0,,,76,0
6912,note_on,,,,,0,0,1,,,,,0,,,76,100
6912,note_off,,,,,768,0,4,,,,,3,,,52,0
6912,note_on,,,,,0,0,3,,,,,2,,,64,100
6912,note_on,,,,,0,0,4,,,,,3,,,49,100
6912,note_off,,,,,0,0,2,,,,,1,,,56,0
6912,note_on,,,,,0,0,2,,,,,1,,,64,100
6912,note_on,,,,,0,0,2,,,,,1,,,73,100
6912,note_off,,,,,768,0,2,,,,,1,,,64,0
7584,note_off,,,,,672,0,1,,,,,0,,,76,0
7584,note_on,,,,,0,0,1,,,,,0,,,88,100
7680,note_on,,,,,0,0,2,,,,,1,,,73,100
7680,note_on,,,,,0,0,2,,,,,1,,,64,100
7680,note_off,,,,,0,0,2,,,,,1,,,64,0
7680,note_off,,,,,768,0,2,,,,,1,,,73,0
7680,note_off,,,,,0,0,3,,,,,2,,,64,0
7680,note_on,,,,,0,0,3,,,,,2,,,57,100
7680,note_on,,,,,0,0,3,,,,,2,,,64,100
7680,note_off,,,,,96,0,1,,,,,0,,,88,0
7680,note_on,,,,,0,0,1,,,,,0,,,88,100
7680,note_on,,,,,0,0,4,,,,,3,,,45,100
7680,note_off,,,,,768,0,4,,,,,3,,,49,0
7680,note_off,,,,,768,0,3,,,,,2,,,56,0
7872,note_off,,,,,192,0,1,,,,,0,,,88,0
7872,note_off,,,,,192,0,4,,,,,3,,,45,0
7872,note_off,,,,,0,0,3,,,,,2,,,64,0
7872,note_off,,,,,0,0,2,,,,,1,,,64,0
7872,note_off,,,,,192,0,2,,,,,1,,,73,0
7872,note_off,,,,,192,0,3,,,,,2,,,57,0
8064,note_on,,,,,192,0,2,,,,,1,,,73,100
8064,note_on,,,,,192,0,4,,,,,3,,,45,100
8064,note_on,,,,,192,0,3,,,,,2,,,64,100
8064,note_on,,,,,0,0,3,,,,,2,,,57,100
8064,note_on,,,,,192,0,1,,,,,0,,,76,100
8064,note_on,,,,,0,0,2,,,,,1,,,64,100
8256,note_off,,,,,192,0,4,,,,,3,,,45,0
8256,note_off,,,,,0,0,2,,,,,1,,,64,0
8256,note_off,,,,,192,0,1,,,,,0,,,76,0
8256,note_off,,,,,192,0,2,,,,,1,,,73,0
8256,note_off,,,,,192,0,3,,,,,2,,,64,0
8256,note_off,,,,,0,0,3,,,,,2,,,57,0
9216,note_on,,,,,960,0,4,,,,,3,,,45,100
9216,note_on,,,,,960,0,1,,,,,0,,,66,100
9216,note_on,,,,,960,0,2,,,,,1,,,63,100
9216,note_on,,,,,960,0,3,,,,,2,,,59,100
9984,note_on,,,,,0,0,1,,,,,0,,,68,100
9984,note_off,,,,,768,0,4,,,,,3,,,45,0
9984,note_off,,,,,768,0,2,,,,,1,,,63,0
9984,note_on,,,,,0,0,2,,,,,1,,,65,100
9984,note_off,,,,,768,0,1,,,,,0,,,66,0
9984,note_on,,,,,0,0,4,,,,,3,,,44,100
10752,note_on,,,,,0,0,1,,,,,0,,,71,100
10752,note_off,,,,,768,0,1,,,,,0,,,68,0
10752,note_off,,,,,1536,0,3,,,,,2,,,59,0
10752,note_on,,,,,0,0,3,,,,,2,,,61,100
10752,note_on,,,,,0,0,2,,,,,1,,,66,100
10752,note_off,,,,,768,0,2,,,,,1,,,65,0
10752,note_off,,,,,768,0,4,,,,,3,,,44,0
10752,note_on,,,,,0,0,4,,,,,3,,,42,100
11136,note_on,,,,,0,0,1,,,,,0,,,69,100
11136,note_off,,,,,384,0,1,,,,,0,,,71,0
11520,note_off,,,,,768,0,4,,,,,3,,,42,0
11520,note_on,,,,,0,0,2,,,,,1,,,63,100
11520,note_off,,,,,768,0,2,,,,,1,,,66,0
11520,note_on,,,,,0,0,3,,,,,2,,,59,100
11520,note_off,,,,,768,0,3,,,,,2,,,61,0
11520,note_on,,,,,0,0,4,,,,,3,,,47,100
11904,note_on,,,,,0,0,4,,,,,3,,,45,100
11904,note_on,,,,,0,0,1,,,,,0,,,68,100
11904,note_off,,,,,384,0,4,,,,,3,,,47,0
11904,note_off,,,,,768,0,1,,,,,0,,,69,0
12096,note_off,,,,,192,0,1,,,,,0,,,68,0
12096,note_on,,,,,0,0,1,,,,,0,,,66,100
12288,note_on,,,,,0,0,2,,,,,1,,,64,100
12288,note_off,,,,,768,0,3,,,,,2,,,59,0
12288,note_on,,,,,0,0,3,,,,,2,,,59,100
12288,note_off,,,,,768,0,2,,,,,1,,,63,0
12288,note_on,,,,,0,0,4,,,,,3,,,44,100
12288,note_off,,,,,192,0,1,,,,,0,,,66,0
12288,note_on,,,,,0,0,1,,,,,0,,,73,100
12288,note_off,,,,,384,0,4,,,,,3,,,45,0
12672,note_off,,,,,384,0,3,,,,,2,,,59,0
12672,note_on,,,,,0,0,3,,,,,2,,,62,100
12672,note_off,,,,,384,0,1,,,,,0,,,73,0
12672,note_on,,,,,0,0,1,,,,,0,,,71,100
13056,note_on,,,,,0,0,4,,,,,3,,,49,100
13056,note_off,,,,,768,0,2,,,,,1,,,64,0
13056,note_on,,,,,0,0,2,,,,,1,,,65,100
13056,note_off,,,,,768,0,4,,,,,3,,,44,0
13056,note_off,,,,,384,0,3,,,,,2,,,62,0
13056,note_on,,,,,0,0,3,,,,,2,,,61,100
13440,note_off,,,,,768,0,1,,,,,0,,,71,0
13440,note_on,,,,,0,0,4,,,,,3,,,47,100
13440,note_off,,,,,384,0,4,,,,,3,,,49,0
13440,note_on,,,,,0,0,1,,,,,0,,,69,100
13632,note_off,,,,,192,0,1,,,,,0,,,69,0
13632,note_on,,,,,0,0,1,,,,,0,,,68,100
13824,note_on,,,,,0,0,4,,,,,3,,,45,100
13824,note_on,,,,,0,0,3,,,,,2,,,61,100
13824,note_off,,,,,192,0,1,,,,,0,,,68,0
13824,note_on,,,,,0,0,1,,,,,0,,,74,100
13824,note_on,,,,,0,0,2,,,,,1,,,66,100
13824,note_off,,,,,768,0,2,,,,,1,,,65,0
13824,note_off,,,,,384,0,4,,,,,3,,,47,0
13824,note_off,,,,,768,0,3,,,,,2,,,61,0
14208,note_off,,,,,384,0,1,,,,,0,,,74,0
14208,note_on,,,,,0,0,1,,,,,0,,,73,100
14592,note_on,,,,,0,0,1,,,,,0,,,80,100
14592,note_off,,,,,384,0,1,,,,,0,,,73,0
14784,note_off,,,,,192,0,1,,,,,0,,,80,0
14784,note_on,,,,,0,0,1,,,,,0,,,78,100
14976,note_off,,,,,192,0,1,,,,,0,,,78,0
14976,note_on,,,,,0,0,1,,,,,0,,,76,100
14976,note_on,,,,,0,0,3,,,,,2,,,60,100
14976,note_off,,,,,1152,0,3,,,,,2,,,61,0
15360,note_off,,,,,384,0,3,,,,,2,,,60,0
15360,note_off,,,,,1536,0,2,,,,,1,,,66,0
15360,note_off,,,,,384,0,1,,,,,0,,,76,0
15360,note_on,,,,,0,0,1,,,,,0,,,75,100
15360,note_on,,,,,0,0,2,,,,,1,,,71,100
15360,note_on,,,,,0,0,3,,,,,2,,,66,100
15360,note_on,,,,,0,0,3,,,,,2,,,59,100
15360,note_off,,,,,1536,0,4,,,,,3,,,45,0
15360,note_on,,,,,0,0,4,,,,,3,,,57,100
15360,note_on,,,,,0,0,2,,,,,1,,,63,100
15936,note_off,,,,,576,0,1,,,,,0,,,75,0
15936,note_on,,,,,0,0,1,,,,,0,,,78,100
16128,note_on,,,,,0,0,1,,,,,0,,,83,100
16128,note_off,,,,,192,0,1,,,,,0,,,78,0
16512,note_on,,,,,0,0,1,,,,,0,,,87,100
16512,note_off,,,,,384,0,1,,,,,0,,,83,0
16704,note_off,,,,,192,0,1,,,,,0,,,87,0
16704,note_on,,,,,0,0,1,,,,,0,,,90,100
16896,note_off,,,,,192,0,1,,,,,0,,,90,0
16896,note_on,,,,,0,0,1,,,,,0,,,95,100
17088,note_off,,,,,192,0,1,,,,,0,,,95,0
17280,note_off,,,,,1920,0,4,,,,,3,,,57,0
17280,note_off,,,,,1920,0,2,,,,,1,,,63,0
17280,note_off,,,,,1920,0,3,,,,,2,,,59,0
17280,note_off,,,,,0,0,3,,,,,2,,,66,0
17280,note_off,,,,,0,0,2,,,,,1,,,71,0
18432,note_on,,,,,1152,0,2,,,,,1,,,80,100
18432,note_on,,,,,1344,0,1,,,,,0,,,92,100
18816,note_off,,,,,384,0,1,,,,,0,,,92,0
18816,note_on,,,,,0,0,2,,,,,1,,,76,100
18816,note_off,,,,,384,0,2,,,,,1,,,80,0
18816,note_on,,,,,1536,0,3,,,,,2,,,64,100
18816,note_on,,,,,0,0,1,,,,,0,,,88,100
18816,note_on,,,,,1536,0,4,,,,,3,,,56,100
19008,note_off,,,,,192,0,2,,,,,1,,,76,0
19008,note_off,,,,,192,0,4,,,,,3,,,56,0
19008,note_off,,,,,192,0,3,,,,,2,,,64,0
19008,note_off,,,,,192,0,1,,,,,0,,,88,0
19200,note_on,,,,,192,0,2,,,,,1,,,76,100
19200,note_on,,,,,192,0,1,,,,,0,,,88,100
19584,note_on,,,,,576,0,4,,,,,3,,,57,100
19584,note_on,,,,,0,0,2,,,,,1,,,73,100
19584,note_off,,,,,384,0,2,,,,,1,,,76,0
19584,note_on,,,,,576,0,3,,,,,2,,,64,100
19584,note_off,,,,,384,0,1,,,,,0,,,88,0
19584,note_on,,,,,0,0,1,,,,,0,,,85,100
19776,note_off,,,,,192,0,2,,,,,1,,,73,0
19776,note_off,,,,,192,0,4,,,,,3,,,57,0
19776,note_off,,,,,192,0,1,,,,,0,,,85,0
19776,note_off,,,,,192,0,3,,,,,2,,,64,0
19968,note_on,,,,,192,0,2,,,,,1,,,71,100
19968,note_on,,,,,192,0,1,,,,,0,,,83,100
20352,note_off,,,,,384,0,2,,,,,1,,,71,0
20352,note_on,,,,,0,0,2,,,,,1,,,68,100
20352,note_off,,,,,384,0,1,,,,,0,,,83,0
20352,note_on,,,,,576,0,4,,,,,3,,,59,100
20352,note_on,,,,,576,0,3,,,,,2,,,56,100
20352,note_on,,,,,0,0,3,,,,,2,,,64,100
20352,note_on,,,,,0,0,1,,,,,0,,,80,100
20544,note_off,,,,,192,0,4,,,,,3,,,59,0
20544,note_off,,,,,192,0,3,,,,,2,,,56,0
20544,note_off,,,,,0,0,3,,,,,2,,,64,0
20544,note_off,,,,,192,0,1,,,,,0,,,80,0
20544,note_off,,,,,192,0,2,,,,,1,,,68,0
20736,note_on,,,,,192,0,2,,,,,1,,,69,100
20736,note_on,,,,,192,0,1,,,,,0,,,81,100
21120,note_on,,,,,576,0,3,,,,,2,,,66,100
21120,note_on,,,,,0,0,3,,,,,2,,,57,100
21120,note_on,,,,,576,0,4,,,,,3,,,47,100
21120,note_on,,,,,0,0,2,,,,,1,,,63,100
21120,note_off,,,,,384,0,2,,,,,1,,,69,0
21120,note_off,,,,,384,0,1,,,,,0,,,81,0
21120,note_on,,,,,0,0,1,,,,,0,,,75,100
21312,note_off,,,,,0,0,3,,,,,2,,,57,0
21312,note_off,,,,,192,0,3,,,,,2,,,66,0
21312,note_off,,,,,192,0,2,,,,,1,,,63,0
21312,note_off,,,,,192,0,1,,,,,0,,,75,0
21312,note_off,,,,,192,0,4,,,,,3,,,47,0
21504,note_on,,,,,192,0,4,,,,,3,,,49,100
21504,note_on,,,,,192,0,3,,,,,2,,,64,100
21504,note_on,,,,,192,0,2,,,,,1,,,68,100
21504,note_on,,,,,192,0,1,,,,,0,,,76,100
21696,note_on,,,,,0,0,2,,,,,1,,,76,100
21696,note_off,,,,,192,0,2,,,,,1,,,68,0
21696,note_on,,,,,0,0,1,,,,,0,,,80,100
21696,note_off,,,,,192,0,1,,,,,0,,,76,0
21888,note_off,,,,,192,0,1,,,,,0,,,80,0
21888,note_off,,,,,192,0,2,,,,,1,,,76,0
21888,note_on,,,,,0,0,2,,,,,1,,,76,100
21888,note_on,,,,,0,0,1,,,,,0,,,80,100
22080,note_off,,,,,192,0,1,,,,,0,,,80,0
22080,note_off,,,,,192,0,2,,,,,1,,,76,0
22080,note_on,,,,,0,0,2,,,,,1,,,68,100
22080,note_on,,,,,0,0,1,,,,,0,,,76,100
22272,note_on,,,,,0,0,1,,,,,0,,,73,100
22272,note_on,,,,,0,0,2,,,,,1,,,69,100
22272,note_off,,,,,192,0,1,,,,,0,,,76,0
22272,note_on,,,,,0,0,4,,,,,3,,,45,100
22272,note_off,,,,,192,0,2,,,,,1,,,68,0
22272,note_off,,,,,768,0,4,,,,,3,,,49,0
22464,note_off,,,,,192,0,1,,,,,0,,,73,0
22464,note_on,,,,,0,0,1,,,,,0,,,76,100
22464,note_off,,,,,192,0,2,,,,,1,,,69,0
22464,note_on,,,,,0,0,2,,,,,1,,,73,100
22656,note_on,,,,,0,0,2,,,,,1,,,73,100
22656,note_off,,,,,192,0,2,,,,,1,,,73,0
22656,note_off,,,,,192,0,1,,,,,0,,,76,0
22656,note_on,,,,,0,0,1,,,,,0,,,76,100
22848,note_on,,,,,0,0,2,,,,,1,,,69,100
22848,note_off,,,,,192,0,2,,,,,1,,,73,0
22848,note_off,,,,,192,0,1,,,,,0,,,76,0
22848,note_on,,,,,0,0,1,,,,,0,,,73,100
23040,note_off,,,,,1536,0,3,,,,,2,,,64,0
23040,note_on,,,,,0,0,2,,,,,1,,,64,100
23040,note_off,,,,,192,0,2,,,,,1,,,69,0
23040,note_on,,,,,0,0,4,,,,,3,,,47,100
23040,note_on,,,,,0,0,3,,,,,2,,,59,100
23040,note_off,,,,,768,0,4,,,,,3,,,45,0
23040,note_on,,,,,0,0,1,,,,,0,,,68,100
23040,note_off,,,,,192,0,1,,,,,0,,,73,0
23232,note_off,,,,,192,0,2,,,,,1,,,64,0
23232,note_on,,,,,0,0,1,,,,,0,,,71,100
23232,note_on,,,,,0,0,2,,,,,1,,,68,100
23232,note_off,,,,,192,0,1,,,,,0,,,68,0
23424,note_on,,,,,0,0,1,,,,,0,,,71,100
23424,note_on,,,,,0,0,2,,,,,1,,,68,100
23424,note_off,,,,,192,0,2,,,,,1,,,68,0
23424,note_off,,,,,192,0,1,,,,,0,,,71,0
23616,note_on,,,,,0,0,1,,,,,0,,,68,100
23616,note_on,,,,,0,0,2,,,,,1,,,64,100
23616,note_off,,,,,192,0,2,,,,,1,,,68,0
23616,note_off,,,,,192,0,1,,,,,0,,,71,0
23808,note_off,,,,,192,0,1,,,,,0,,,68,0
23808,note_on,,,,,0,0,1,,,,,0,,,66,100
23808,note_on,,,,,0,0,2,,,,,1,,,63,100
23808,note_on,,,,,0,0,3,,,,,2,,,57,100
23808,note_off,,,,,768,0,3,,,,,2,,,59,0
23808,note_off,,,,,192,0,2,,,,,1,,,64,0
24000,note_off,,,,,192,0,1,,,,,0,,,66,0
24000,note_on,,,,,0,0,1,,,,,0,,,69,100
24000,note_off,,,,,192,0,2,,,,,1,,,63,0
24000,note_on,,,,,0,0,2,,,,,1,,,66,100
24192,note_off,,,,,192,0,2,,,,,1,,,66,0
24192,note_on,,,,,0,0,1,,,,,0,,,69,100
24192,note_off,,,,,192,0,1,,,,,0,,,69,0
24192,note_on,,,,,0,0,2,,,,,1,,,66,100
24384,note_on,,,,,0,0,2,,,,,1,,,63,100
24384,note_on,,,,,0,0,1,,,,,0,,,66,100
24384,note_off,,,,,192,0,1,,,,,0,,,69,0
24384,note_off,,,,,192,0,2,,,,,1,,,66,0
24576,note_off,,,,,192,0,1,,,,,0,,,66,0
24576,note_off,,,,,1536,0,4,,,,,3,,,47,0
24576,note_off,,,,,768,0,3,,,,,2,,,57,0
24576,note_on,,,,,0,0,3,,,,,2,,,56,100
24576,note_on,,,,,0,0,4,,,,,3,,,40,100
24576,note_on,,,,,0,0,1,,,,,0,,,64,100
24576,note_on,,,,,0,0,2,,,,,1,,,64,100
24576,note_on,,,,,0,0,2,,,,,1,,,56,100
24576,note_off,,,,,192,0,2,,,,,1,,,63,0
24960,note_on,,,,,0,0,3,,,,,2,,,59,100
24960,note_off,,,,,384,0,3,,,,,2,,,56,0
25344,note_off,,,,,384,0,3,,,,,2,,,59,0
25344,note_on,,,,,0,0,3,,,,,2,,,64,100
25728,note_on,,,,,0,0,1,,,,,0,,,75,100
25728,note_off,,,,,0,0,2,,,,,1,,,64,0
25728,note_off,,,,,1152,0,2,,,,,1,,,56,0
25728,note_off,,,,,1152,0,1,,,,,0,,,64,0
25728,note_on,,,,,0,0,3,,,,,2,,,56,100
25728,note_off,,,,,384,0,3,,,,,2,,,64,0
25920,note_on,,,,,0,0,1,,,,,0,,,76,100
25920,note_off,,,,,192,0,1,,,,,0,,,75,0
26112,note_on,,,,,0,0,3,,,,,2,,,57,100
26112,note_off,,,,,192,0,1,,,,,0,,,76,0
26112,note_off,,,,,384,0,3,,,,,2,,,56,0
26112,note_on,,,,,0,0,1,,,,,0,,,80,100
26304,note_off,,,,,192,0,1,,,,,0,,,80,0
26304,note_on,,,,,0,0,1,,,,,0,,,78,100
26496,note_on,,,,,0,0,1,,,,,0,,,76,100
26496,note_off,,,,,192,0,1,,,,,0,,,78,0
26496,note_on,,,,,0,0,3,,,,,2,,,59,100
26496,note_off,,,,,384,0,3,,,,,2,,,57,0
26688,note_off,,,,,192,0,1,,,,,0,,,76,0
26688,note_on,,,,,0,0,1,,,,,0,,,75,100
26880,note_off,,,,,384,0,3,,,,,2,,,59,0
26880,note_off,,,,,192,0,1,,,,,0,,,75,0
26880,note_on,,,,,0,0,1,,,,,0,,,73,100
26880,note_on,,,,,0,0,3,,,,,2,,,63,100
27072,note_on,,,,,0,0,1,,,,,0,,,71,100
27072,note_off,,,,,192,0,1,,,,,0,,,73,0
27264,note_off,,,,,192,0,1,,,,,0,,,71,0
27264,note_on,,,,,0,0,1,,,,,0,,,70,100
27264,note_on,,,,,1536,0,2,,,,,1,,,61,100
27264,note_on,,,,,0,0,3,,,,,2,,,57,100
27264,note_off,,,,,384,0,3,,,,,2,,,63,0
27456,note_off,,,,,192,0,2,,,,,1,,,61,0
27456,note_on,,,,,0,0,2,,,,,1,,,59,100
27456,note_on,,,,,0,0,1,,,,,0,,,71,100
27456,note_off,,,,,192,0,1,,,,,0,,,70,0
27648,note_off,,,,,384,0,3,,,,,2,,,57,0
27648,note_on,,,,,0,0,3,,,,,2,,,56,100
27648,note_off,,,,,192,0,1,,,,,0,,,71,0
27648,note_on,,,,,0,0,2,,,,,1,,,73,100
27648,note_off,,,,,192,0,2,,,,,1,,,59,0
27648,note_on,,,,,0,0,1,,,,,0,,,78,100
27840,note_off,,,,,192,0,2,,,,,1,,,73,0
27840,note_on,,,,,0,0,2,,,,,1,,,71,100
28032,note_on,,,,,0,0,3,,,,,2,,,59,100
28032,note_off,,,,,384,0,3,,,,,2,,,56,0
28032,note_on,,,,,0,0,2,,,,,1,,,76,100
28032,note_off,,,,,192,0,2,,,,,1,,,71,0
28032,note_off,,,,,384,0,1,,,,,0,,,78,0
28032,note_on,,,,,0,0,1,,,,,0,,,76,100
28224,note_on,,,,,0,0,2,,,,,1,,,75,100
28224,note_off,,,,,192,0,2,,,,,1,,,76,0
28416,note_on,,,,,0,0,2,,,,,1,,,73,100
28416,note_off,,,,,192,0,2,,,,,1,,,75,0
28416,note_off,,,,,384,0,3,,,,,2,,,59,0
28416,note_on,,,,,0,0,3,,,,,2,,,64,100
28416,note_off,,,,,384,0,1,,,,,0,,,76,0
28608,note_on,,,,,0,0,2,,,,,1,,,71,100
28608,note_off,,,,,192,0,2,,,,,1,,,73,0
28800,note_off,,,,,192,0,2,,,,,1,,,71,0
28800,note_on,,,,,0,0,2,,,,,1,,,69,100
28800,note_off,,,,,384,0,3,,,,,2,,,64,0
28800,note_on,,,,,0,0,3,,,,,2,,,59,100
28800,note_on,,,,,384,0,1,,,,,0,,,75,100
28992,note_on,,,,,0,0,1,,,,,0,,,76,100
28992,note_off,,,,,192,0,1,,,,,0,,,75,0
28992,note_off,,,,,192,0,2,,,,,1,,,69,0
28992,note_on,,,,,0,0,2,,,,,1,,,68,100
29184,note_off,,,,,192,0,2,,,,,1,,,68,0
29184,note_on,,,,,0,0,3,,,,,2,,,57,100
29184,note_on,,,,,0,0,2,,,,,1,,,71,100
29184,note_off,,,,,384,0,3,,,,,2,,,59,0
29184,note_off,,,,,192,0,1,,,,,0,,,76,0
29184,note_on,,,,,0,0,1,,,,,0,,,80,100
29376,note_on,,,,,0,0,1,,,,,0,,,78,100
29376,note_off,,,,,192,0,1,,,,,0,,,80,0
29376,note_off,,,,,192,0,2,,,,,1,,,71,0
29376,note_on,,,,,0,0,2,,,,,1,,,70,100
29568,note_on,,,,,0,0,1,,,,,0,,,76,100
29568,note_off,,,,,192,0,1,,,,,0,,,78,0
29568,note_off,,,,,192,0,2,,,,,1,,,70,0
29568,note_on,,,,,0,0,2,,,,,1,,,69,100
29568,note_off,,,,,384,0,3,,,,,2,,,57,0
29568,note_on,,,,,0,0,3,,,,,2,,,59,100
29760,note_off,,,,,192,0,1,,,,,0,,,76,0
29760,note_on,,,,,0,0,1,,,,,0,,,75,100
29952,note_off,,,,,192,0,1,,,,,0,,,75,0
29952,note_on,,,,,0,0,1,,,,,0,,,73,100
29952,note_off,,,,,384,0,2,,,,,1,,,69,0
29952,note_off,,,,,384,0,3,,,,,2,,,59,0
29952,note_on,,,,,0,0,3,,,,,2,,,63,100
30144,note_off,,,,,192,0,1,,,,,0,,,73,0
30144,note_on,,,,,0,0,1,,,,,0,,,71,100
30336,note_on,,,,,0,0,3,,,,,2,,,57,100
30336,note_on,,,,,384,0,2,,,,,1,,,61,100
30336,note_off,,,,,192,0,1,,,,,0,,,71,0
30336,note_on,,,,,0,0,1,,,,,0,,,70,100
30336,note_off,,,,,384,0,3,,,,,2,,,63,0
30528,note_on,,,,,0,0,1,,,,,0,,,71,100
30528,note_on,,,,,0,0,2,,,,,1,,,59,100
30528,note_off,,,,,192,0,2,,,,,1,,,61,0
30528,note_off,,,,,192,0,1,,,,,0,,,70,0
30720,note_off,,,,,384,0,3,,,,,2,,,57,0
30720,note_on,,,,,0,0,3,,,,,2,,,56,100
30720,note_on,,,,,0,0,2,,,,,1,,,73,100
30720,note_off,,,,,192,0,2,,,,,1,,,59,0
30720,note_on,,,,,0,0,1,,,,,0,,,78,100
30720,note_off,,,,,192,0,1,,,,,0,,,71,0
30912,note_off,,,,,192,0,2,,,,,1,,,73,0
30912,note_on,,,,,0,0,2,,,,,1,,,71,100
31104,note_off,,,,,384,0,3,,,,,2,,,56,0
31104,note_on,,,,,0,0,3,,,,,2,,,59,100
31104,note_on,,,,,0,0,1,,,,,0,,,76,100
31104,note_on,,,,,0,0,2,,,,,1,,,76,100
31104,note_off,,,,,384,0,1,,,,,0,,,78,0
31104,note_off,,,,,192,0,2,,,,,1,,,71,0
31296,note_on,,,,,0,0,2,,,,,1,,,75,100
31296,note_off,,,,,192,0,2,,,,,1,,,76,0
31488,note_off,,,,,192,0,2,,,,,1,,,75,0
31488,note_on,,,,,0,0,2,,,,,1,,,73,100
31488,note_off,,,,,384,0,3,,,,,2,,,59,0
31488,note_on,,,,,0,0,3,,,,,2,,,64,100
31488,note_off,,,,,384,0,1,,,,,0,,,76,0
31680,note_off,,,,,192,0,2,,,,,1,,,73,0
31680,note_on,,,,,0,0,2,,,,,1,,,71,100
31872,note_off,,,,,7296,0,4,,,,,3,,,40,0
31872,note_on,,,,,384,0,1,,,,,0,,,75,100
31872,note_off,,,,,384,0,3,,,,,2,,,64,0
31872,note_off,,,,,192,0,2,,,,,1,,,71,0
31872,note_on,,,,,0,0,2,,,,,1,,,69,100
31872,note_on,,,,,0,0,3,,,,,2,,,60,100
32064,note_on,,,,,0,0,3,,,,,2,,,61,100
32064,note_off,,,,,192,0,3,,,,,2,,,60,0
32064,note_on,,,,,0,0,1,,,,,0,,,76,100
32064,note_off,,,,,192,0,1,,,,,0,,,75,0
32064,note_on,,,,,0,0,2,,,,,1,,,68,100
32064,note_off,,,,,192,0,2,,,,,1,,,69,0
32256,note_off,,,,,192,0,1,,,,,0,,,76,0
32256,note_off,,,,,192,0,3,,,,,2,,,61,0
32256,note_on,,,,,0,0,3,,,,,2,,,72,100
32256,note_on,,,,,0,0,1,,,,,0,,,78,100
32256,note_on,,,,,384,0,4,,,,,3,,,61,100
32256,note_on,,,,,0,0,2,,,,,1,,,75,100
32256,note_off,,,,,192,0,2,,,,,1,,,68,0
32448,note_on,,,,,0,0,3,,,,,2,,,73,100
32448,note_off,,,,,192,0,3,,,,,2,,,72,0
32448,note_on,,,,,0,0,2,,,,,1,,,73,100
32448,note_off,,,,,192,0,2,,,,,1,,,75,0
32448,note_off,,,,,192,0,1,,,,,0,,,78,0
32448,note_on,,,,,0,0,1,,,,,0,,,76,100
32640,note_on,,,,,0,0,2,,,,,1,,,78,100
32640,note_on,,,,,0,0,3,,,,,2,,,75,100
32640,note_off,,,,,192,0,3,,,,,2,,,73,0
32640,note_off,,,,,192,0,2,,,,,1,,,73,0
32640,note_off,,,,,192,0,1,,,,,0,,,76,0
32640,note_on,,,,,0,0,1,,,,,0,,,81,100
32832,note_off,,,,,192,0,2,,,,,1,,,78,0
32832,note_on,,,,,0,0,2,,,,,1,,,76,100
32832,note_off,,,,,192,0,1,,,,,0,,,81,0
32832,note_on,,,,,0,0,1,,,,,0,,,80,100
32832,note_off,,,,,192,0,3,,,,,2,,,75,0
32832,note_on,,,,,0,0,3,,,,,2,,,76,100
33024,note_on,,,,,0,0,2,,,,,1,,,75,100
33024,note_off,,,,,192,0,1,,,,,0,,,80,0
33024,note_on,,,,,0,0,1,,,,,0,,,87,100
33024,note_off,,,,,192,0,2,,,,,1,,,76,0
33024,note_off,,,,,192,0,3,,,,,2,,,76,0
33024,note_on,,,,,0,0,3,,,,,2,,,69,100
33216,note_on,,,,,0,0,1,,,,,0,,,85,100
33216,note_on,,,,,0,0,3,,,,,2,,,68,100
33216,note_off,,,,,192,0,3,,,,,2,,,69,0
33216,note_on,,,,,0,0,2,,,,,1,,,76,100
33216,note_off,,,,,192,0,2,,,,,1,,,75,0
33216,note_off,,,,,192,0,1,,,,,0,,,87,0
33408,note_off,,,,,192,0,1,,,,,0,,,85,0
33408,note_on,,,,,0,0,1,,,,,0,,,90,100
33408,note_on,,,,,0,0,4,,,,,3,,,49,100
33408,note_on,,,,,0,0,3,,,,,2,,,63,100
33408,note_off,,,,,1152,0,4,,,,,3,,,61,0
33408,note_on,,,,,0,0,2,,,,,1,,,81,100
33408,note_off,,,,,192,0,2,,,,,1,,,76,0
33408,note_off,,,,,192,0,3,,,,,2,,,68,0
33600,note_on,,,,,0,0,1,,,,,0,,,88,100
33600,note_off,,,,,192,0,1,,,,,0,,,90,0
33600,note_off,,,,,192,0,3,,,,,2,,,63,0
33600,note_on,,,,,0,0,2,,,,,1,,,80,100
33600,note_off,,,,,192,0,2,,,,,1,,,81,0
33600,note_on,,,,,0,0,3,,,,,2,,,64,100
33792,note_on,,,,,0,0,3,,,,,2,,,64,100
33792,note_off,,,,,192,0,3,,,,,2,,,64,0
33792,note_on,,,,,0,0,4,,,,,3,,,47,100
33792,note_off,,,,,384,0,4,,,,,3,,,49,0
33792,note_off,,,,,192,0,2,,,,,1,,,80,0
33792,note_on,,,,,0,0,2,,,,,1,,,71,100
33792,note_off,,,,,192,0,1,,,,,0,,,88,0
33792,note_on,,,,,0,0,1,,,,,0,,,80,100
33984,note_off,,,,,192,0,4,,,,,3,,,47,0
33984,note_off,,,,,192,0,2,,,,,1,,,71,0
33984,note_off,,,,,192,0,3,,,,,2,,,64,0
33984,note_off,,,,,192,0,1,,,,,0,,,80,0
34176,note_on,,,,,192,0,4,,,,,3,,,59,100
34176,note_on,,,,,192,0,2,,,,,1,,,76,100
34176,note_on,,,,,192,0,3,,,,,2,,,68,100
34176,note_on,,,,,192,0,1,,,,,0,,,83,100
34560,note_on,,,,,0,0,3,,,,,2,,,69,100
34560,note_on,,,,,0,0,2,,,,,1,,,75,100
34560,note_off,,,,,384,0,2,,,,,1,,,76,0
34560,note_off,,,,,384,0,3,,,,,2,,,68,0
34752,note_on,,,,,0,0,1,,,,,0,,,81,100
34752,note_off,,,,,576,0,1,,,,,0,,,83,0
34944,note_off,,,,,192,0,1,,,,,0,,,81,0
34944,note_on,,,,,0,0,1,,,,,0,,,78,100
35136,note_off,,,,,192,0,1,,,,,0,,,78,0
35136,note_on,,,,,0,0,1,,,,,0,,,80,100
35328,note_on,,,,,0,0,4,,,,,3,,,52,100
35328,note_off,,,,,768,0,2,,,,,1,,,75,0
35328,note_on,,,,,0,0,2,,,,,1,,,76,100
35328,note_off,,,,,1152,0,4,,,,,3,,,59,0
35328,note_on,,,,,0,0,3,,,,,2,,,68,100
35328,note_off,,,,,768,0,3,,,,,2,,,69,0
35328,note_off,,,,,192,0,1,,,,,0,,,80,0
35328,note_on,,,,,0,0,1,,,,,0,,,76,100
35520,note_off,,,,,192,0,4,,,,,3,,,52,0
35520,note_off,,,,,192,0,2,,,,,1,,,76,0
35520,note_off,,,,,192,0,3,,,,,2,,,68,0
35520,note_off,,,,,192,0,1,,,,,0,,,76,0
35712,note_on,,,,,192,0,3,,,,,2,,,56,100
35712,note_on,,,,,192,0,2,,,,,1,,,64,100
35712,note_on,,,,,192,0,4,,,,,3,,,47,100
35712,note_on,,,,,192,0,1,,,,,0,,,71,100
36096,note_on,,,,,0,0,2,,,,,1,,,63,100
36096,note_on,,,,,0,0,3,,,,,2,,,57,100
36096,note_off,,,,,384,0,3,,,,,2,,,56,0
36096,note_off,,,,,384,0,2,,,,,1,,,64,0
36288,note_on,,,,,0,0,1,,,,,0,,,69,100
36288,note_off,,,,,576,0,1,,,,,0,,,71,0
36480,note_on,,,,,0,0,1,,,,,0,,,66,100
36480,note_off,,,,,192,0,1,,,,,0,,,69,0
36672,note_on,,,,,0,0,1,,,,,0,,,68,100
36672,note_off,,,,,192,0,1,,,,,0,,,66,0
36864,note_on,,,,,0,0,2,,,,,1,,,64,100
36864,note_off,,,,,768,0,3,,,,,2,,,57,0
36864,note_on,,,,,0,0,3,,,,,2,,,56,100
36864,note_off,,,,,768,0,2,,,,,1,,,63,0
36864,note_on,,,,,0,0,1,,,,,0,,,64,100
36864,note_off,,,,,192,0,1,,,,,0,,,68,0
36864,note_on,,,,,0,0,4,,,,,3,,,40,100
36864,note_off,,,,,1152,0,4,,,,,3,,,47,0
37056,note_off,,,,,192,0,4,,,,,3,,,40,0
37056,note_off,,,,,192,0,2,,,,,1,,,64,0
37056,note_off,,,,,192,0,1,,,,,0,,,64,0
37056,note_off,,,,,192,0,3,,,,,2,,,56,0
37248,note_on,,,,,192,0,4,,,,,3,,,56,100
37248,note_on,,,,,192,0,2,,,,,1,,,73,100
37248,note_on,,,,,192,0,1,,,,,0,,,80,100
37248,note_on,,,,,192,0,3,,,,,2,,,64,100
37632,note_on,,,,,0,0,2,,,,,1,,,72,100
37632,note_off,,,,,384,0,2,,,,,1,,,73,0
37632,note_off,,,,,384,0,3,,,,,2,,,64,0
37632,note_on,,,,,0,0,3,,,,,2,,,66,100
37824,note_on,,,,,0,0,1,,,,,0,,,78,100
37824,note_off,,,,,576,0,1,,,,,0,,,80,0
38016,note_on,,,,,0,0,1,,,,,0,,,75,100
38016,note_off,,,,,192,0,1,,,,,0,,,78,0
38208,note_off,,,,,192,0,1,,,,,0,,,75,0
38208,note_on,,,,,0,0,1,,,,,0,,,76,100
38400,note_on,,,,,0,0,1,,,,,0,,,73,100
38400,note_off,,,,,768,0,3,,,,,2,,,66,0
38400,note_off,,,,,768,0,2,,,,,1,,,72,0
38400,note_on,,,,,0,0,2,,,,,1,,,73,100
38400,note_on,,,,,0,0,3,,,,,2,,,64,100
38400,note_off,,,,,1152,0,4,,,,,3,,,56,0
38400,note_on,,,,,0,0,4,,,,,3,,,49,100
38400,note_off,,,,,192,0,1,,,,,0,,,76,0
38592,note_off,,,,,192,0,3,,,,,2,,,64,0
38592,note_off,,,,,192,0,1,,,,,0,,,73,0
38592,note_off,,,,,192,0,2,,,,,1,,,73,0
38592,note_off,,,,,192,0,4,,,,,3,,,49,0
38784,note_on,,,,,192,0,4,,,,,3,,,44,100
38784,note_on,,,,,192,0,3,,,,,2,,,52,100
38784,note_on,,,,,192,0,2,,,,,1,,,61,100
38784,note_on,,,,,192,0,1,,,,,0,,,68,100
39168,note_on,,,,,0,0,2,,,,,1,,,60,100
39168,note_on,,,,,0,0,3,,,,,2,,,54,100
39168,note_off,,,,,384,0,2,,,,,1,,,61,0
39168,note_off,,,,,384,0,3,,,,,2,,,52,0
39360,note_on,,,,,0,0,1,,,,,0,,,66,100
39360,note_off,,,,,576,0,1,,,,,0,,,68,0
39552,note_off,,,,,192,0,1,,,,,0,,,66,0
39552,note_on,,,,,0,0,1,,,,,0,,,63,100
39744,note_off,,,,,192,0,1,,,,,0,,,63,0
39744,note_on,,,,,0,0,1,,,,,0,,,64,100
39936,note_off,,,,,192,0,1,,,,,0,,,64,0
39936,note_on,,,,,0,0,1,,,,,0,,,61,100
39936,note_off,,,,,768,0,3,,,,,2,,,54,0
39936,note_on,,,,,0,0,3,,,,,2,,,52,100
39936,note_off,,,,,1152,0,4,,,,,3,,,44,0
39936,note_on,,,,,0,0,4,,,,,3,,,37,100
39936,note_off,,,,,768,0,2,,,,,1,,,60,0
39936,note_on,,,,,0,0,2,,,,,1,,,61,100
40128,note_off,,,,,192,0,2,,,,,1,,,61,0
40128,note_off,,,,,192,0,3,,,,,2,,,52,0
40128,note_off,,,,,192,0,1,,,,,0,,,61,0
40128,note_off,,,,,192,0,4,,,,,3,,,37,0
40320,note_on,,,,,192,0,3,,,,,2,,,66,100
40320,note_on,,,,,192,0,1,,,,,0,,,75,100
40320,note_on,,,,,192,0,2,,,,,1,,,71,100
40704,note_off,,,,,384,0,2,,,,,1,,,71,0
40704,note_on,,,,,0,0,2,,,,,1,,,70,100
40704,note_off,,,,,384,0,1,,,,,0,,,75,0
40704,note_on,,,,,0,0,1,,,,,0,,,76,100
40896,note_off,,,,,576,0,3,,,,,2,,,66,0
40896,note_on,,,,,0,0,3,,,,,2,,,64,100
41088,note_off,,,,,384,0,1,,,,,0,,,76,0
41088,note_on,,,,,0,0,1,,,,,0,,,70,100
41088,note_off,,,,,192,0,3,,,,,2,,,64,0
41088,note_on,,,,,0,0,3,,,,,2,,,61,100
41088,note_off,,,,,384,0,2,,,,,1,,,70,0
41088,note_on,,,,,0,0,2,,,,,1,,,64,100
41280,note_off,,,,,192,0,3,,,,,2,,,61,0
41280,note_on,,,,,0,0,3,,,,,2,,,63,100
41472,note_off,,,,,384,0,1,,,,,0,,,70,0
41472,note_on,,,,,0,0,1,,,,,0,,,71,100
41472,note_off,,,,,192,0,3,,,,,2,,,63,0
41472,note_on,,,,,0,0,3,,,,,2,,,59,100
41472,note_off,,,,,384,0,2,,,,,1,,,64,0
41472,note_on,,,,,0,0,2,,,,,1,,,63,100
41664,note_off,,,,,192,0,3,,,,,2,,,59,0
41664,note_off,,,,,192,0,2,,,,,1,,,63,0
41664,note_off,,,,,192,0,1,,,,,0,,,71,0
41856,note_on,,,,,192,0,3,,,,,2,,,71,100
41856,note_on,,,,,1728,0,4,,,,,3,,,54,100
41856,note_on,,,,,192,0,2,,,,,1,,,75,100
41856,note_on,,,,,192,0,1,,,,,0,,,87,100
42240,note_on,,,,,0,0,2,,,,,1,,,76,100
42240,note_on,,,,,0,0,1,,,,,0,,,90,100
42240,note_off,,,,,384,0,1,,,,,0,,,87,0
42240,note_on,,,,,0,0,3,,,,,2,,,70,100
42240,note_off,,,,,384,0,3,,,,,2,,,71,0
42240,note_off,,,,,384,0,2,,,,,1,,,75,0
42432,note_off,,,,,576,0,4,,,,,3,,,54,0
42432,note_on,,,,,0,0,4,,,,,3,,,52,100
42624,note_on,,,,,0,0,4,,,,,3,,,49,100
42624,note_on,,,,,0,0,2,,,,,1,,,70,100
42624,note_off,,,,,384,0,2,,,,,1,,,76,0
42624,note_off,,,,,384,0,1,,,,,0,,,90,0
42624,note_off,,,,,384,0,3,,,,,2,,,70,0
42624,note_on,,,,,0,0,3,,,,,2,,,64,100
42624,note_off,,,,,192,0,4,,,,,3,,,52,0
42624,note_on,,,,,0,0,1,,,,,0,,,82,100
42816,note_off,,,,,192,0,4,,,,,3,,,49,0
42816,note_on,,,,,0,0,4,,,,,3,,,51,100
43008,note_off,,,,,192,0,4,,,,,3,,,51,0
43008,note_on,,,,,0,0,1,,,,,0,,,83,100
43008,note_off,,,,,384,0,2,,,,,1,,,70,0
43008,note_on,,,,,0,0,2,,,,,1,,,71,100
43008,note_off,,,,,384,0,3,,,,,2,,,64,0
43008,note_on,,,,,0,0,3,,,,,2,,,63,100
43008,note_off,,,,,384,0,1,,,,,0,,,82,0
43008,note_on,,,,,0,0,4,,,,,3,,,47,100
43200,note_off,,,,,192,0,1,,,,,0,,,83,0
43200,note_off,,,,,192,0,4,,,,,3,,,47,0
43200,note_off,,,,,192,0,2,,,,,1,,,71,0
43200,note_off,,,,,192,0,3,,,,,2,,,63,0
43392,note_on,,,,,192,0,4,,,,,3,,,54,100
43392,note_on,,,,,192,0,3,,,,,2,,,63,100
43392,note_on,,,,,192,0,2,,,,,1,,,71,100
43392,note_on,,,,,192,0,1,,,,,0,,,78,100
44160,note_on,,,,,0,0,2,,,,,1,,,66,100
44160,note_off,,,,,768,0,2,,,,,1,,,71,0
44160,note_off,,,,,768,0,3,,,,,2,,,63,0
44160,note_on,,,,,0,0,3,,,,,2,,,62,100
44544,note_on,,,,,0,0,3,,,,,2,,,61,100
44544,note_on,,,,,0,0,2,,,,,1,,,68,100
44544,note_off,,,,,384,0,2,,,,,1,,,66,0
44544,note_off,,,,,384,0,3,,,,,2,,,62,0
44928,note_off,,,,,1536,0,1,,,,,0,,,78,0
44928,note_on,,,,,0,0,1,,,,,0,,,76,100
45312,note_off,,,,,384,0,1,,,,,0,,,76,0
45312,note_on,,,,,0,0,1,,,,,0,,,73,100
45312,note_off,,,,,768,0,2,,,,,1,,,68,0
45312,note_on,,,,,0,0,3,,,,,2,,,66,100
45312,note_off,,,,,768,0,3,,,,,2,,,61,0
45312,note_on,,,,,0,0,2,,,,,1,,,70,100
45696,note_on,,,,,0,0,1,,,,,0,,,75,100
45696,note_off,,,,,384,0,1,,,,,0,,,73,0
46080,note_off,,,,,2688,0,4,,,,,3,,,54,0
46080,note_on,,,,,0,0,4,,,,,3,,,59,100
46080,note_on,,,,,0,0,3,,,,,2,,,63,100
46080,note_off,,,,,384,0,1,,,,,0,,,75,0
46080,note_on,,,,,0,0,1,,,,,0,,,71,100
46080,note_off,,,,,768,0,2,,,,,1,,,70,0
46080,note_on,,,,,0,0,2,,,,,1,,,71,100
46080,note_off,,,,,768,0,3,,,,,2,,,66,0
46176,note_off,,,,,96,0,4,,,,,3,,,59,0
46176,note_off,,,,,96,0,3,,,,,2,,,63,0
46272,note_on,,,,,96,0,4,,,,,3,,,63,100
46272,note_on,,,,,96,0,3,,,,,2,,,66,100
46368,note_off,,,,,96,0,4,,,,,3,,,63,0
46368,note_off,,,,,96,0,3,,,,,2,,,66,0
46464,note_on,,,,,96,0,3,,,,,2,,,66,100
46464,note_on,,,,,96,0,4,,,,,3,,,63,100
46560,note_off,,,,,96,0,4,,,,,3,,,63,0
46560,note_off,,,,,96,0,3,,,,,2,,,66,0
46848,note_on,,,,,288,0,3,,,,,2,,,63,100
46848,note_off,,,,,768,0,1,,,,,0,,,71,0
46848,note_on,,,,,288,0,4,,,,,3,,,59,100
46944,note_off,,,,,96,0,3,,,,,2,,,63,0
46944,note_off,,,,,96,0,4,,,,,3,,,59,0
47040,note_on,,,,,96,0,3,,,,,2,,,66,100
47040,note_on,,,,,96,0,4,,,,,3,,,63,100
47136,note_off,,,,,96,0,3,,,,,2,,,66,0
47136,note_off,,,,,96,0,4,,,,,3,,,63,0
47232,note_on,,,,,96,0,3,,,,,2,,,66,100
47232,note_on,,,,,0,0,2,,,,,1,,,73,100
47232,note_off,,,,,1152,0,2,,,,,1,,,71,0
47232,note_on,,,,,96,0,4,,,,,3,,,63,100
47328,note_off,,,,,96,0,3,,,,,2,,,66,0
47328,note_off,,,,,96,0,4,,,,,3,,,63,0
47424,note_on,,,,,0,0,2,,,,,1,,,71,100
47424,note_off,,,,,192,0,2,,,,,1,,,73,0
47616,note_on,,,,,288,0,3,,,,,2,,,63,100
47616,note_on,,,,,288,0,4,,,,,3,,,59,100
47616,note_on,,,,,0,0,2,,,,,1,,,71,100
47616,note_off,,,,,192,0,2,,,,,1,,,71,0
47712,note_off,,,,,96,0,4,,,,,3,,,59,0
47712,note_off,,,,,96,0,3,,,,,2,,,63,0
47808,note_on,,,,,96,0,3,,,,,2,,,66,100
47808,note_off,,,,,192,0,2,,,,,1,,,71,0
47808,note_on,,,,,96,0,4,,,,,3,,,63,100
47904,note_off,,,,,96,0,4,,,,,3,,,63,0
47904,note_off,,,,,96,0,3,,,,,2,,,66,0
48000,note_on,,,,,96,0,4,,,,,3,,,63,100
48000,note_on,,,,,96,0,3,,,,,2,,,66,100
48000,note_on,,,,,192,0,2,,,,,1,,,73,100
48096,note_off,,,,,96,0,4,,,,,3,,,63,0
48096,note_off,,,,,96,0,3,,,,,2,,,66,0
48192,note_off,,,,,192,0,2,,,,,1,,,73,0
48192,note_on,,,,,0,0,2,,,,,1,,,71,100
48384,note_on,,,,,288,0,3,,,,,2,,,63,100
48384,note_off,,,,,192,0,2,,,,,1,,,71,0
48384,note_on,,,,,0,0,2,,,,,1,,,71,100
48384,note_on,,,,,288,0,4,,,,,3,,,59,100
48480,note_off,,,,,96,0,3,,,,,2,,,63,0
48480,note_off,,,,,96,0,4,,,,,3,,,59,0
48576,note_on,,,,,96,0,3,,,,,2,,,66,100
48576,note_off,,,,,192,0,2,,,,,1,,,71,0
48576,note_on,,,,,96,0,4,,,,,3,,,63,100
48672,note_off,,,,,96,0,3,,,,,2,,,66,0
48672,note_off,,,,,96,0,4,,,,,3,,,63,0
48768,note_on,,,,,96,0,4,,,,,3,,,63,100
48768,note_on,,,,,192,0,2,,,,,1,,,75,100
48768,note_on,,,,,96,0,3,,,,,2,,,66,100
48864,note_off,,,,,96,0,4,,,,,3,,,63,0
48864,note_off,,,,,96,0,3,,,,,2,,,66,0
48960,note_on,,,,,0,0,2,,,,,1,,,73,100
48960,note_off,,,,,192,0,2,,,,,1,,,75,0
49152,note_off,,,,,192,0,2,,,,,1,,,73,0
49152,note_on,,,,,288,0,3,,,,,2,,,64,100
49152,note_on,,,,,288,0,4,,,,,3,,,54,100
49152,note_on,,,,,0,0,2,,,,,1,,,73,100
49248,note_off,,,,,96,0,3,,,,,2,,,64,0
49248,note_off,,,,,96,0,4,,,,,3,,,54,0
49344,note_on,,,,,96,0,4,,,,,3,,,64,100
49344,note_on,,,,,96,0,3,,,,,2,,,66,100
49344,note_off,,,,,192,0,2,,,,,1,,,73,0
49440,note_off,,,,,96,0,3,,,,,2,,,66,0
49440,note_off,,,,,96,0,4,,,,,3,,,64,0
49536,note_on,,,,,96,0,4,,,,,3,,,64,100
49536,note_on,,,,,96,0,3,,,,,2,,,66,100
49536,note_on,,,,,192,0,2,,,,,1,,,73,100
49632,note_off,,,,,96,0,4,,,,,3,,,64,0
49632,note_off,,,,,96,0,3,,,,,2,,,66,0
49920,note_on,,,,,288,0,3,,,,,2,,,64,100
49920,note_on,,,,,288,0,4,,,,,3,,,54,100
50016,note_off,,,,,96,0,4,,,,,3,,,54,0
50016,note_off,,,,,96,0,3,,,,,2,,,64,0
50112,note_on,,,,,0,0,2,,,,,1,,,71,100
50112,note_off,,,,,576,0,2,,,,,1,,,73,0
50112,note_on,,,,,96,0,4,,,,,3,,,64,100
50112,note_on,,,,,96,0,3,,,,,2,,,66,100
50208,note_off,,,,,96,0,3,,,,,2,,,66,0
50208,note_off,,,,,96,0,4,,,,,3,,,64,0
50304,note_on,,,,,0,0,2,,,,,1,,,70,100
50304,note_on,,,,,96,0,4,,,,,3,,,64,100
50304,note_off,,,,,192,0,2,,,,,1,,,71,0
50304,note_on,,,,,96,0,3,,,,,2,,,66,100
50400,note_off,,,,,96,0,3,,,,,2,,,66,0
50400,note_off,,,,,96,0,4,,,,,3,,,64,0
50496,note_on,,,,,0,0,2,,,,,1,,,68,100
50496,note_off,,,,,192,0,2,,,,,1,,,70,0
50688,note_off,,,,,192,0,2,,,,,1,,,68,0
50688,note_on,,,,,288,0,4,,,,,3,,,54,100
50688,note_on,,,,,288,0,3,,,,,2,,,64,100
50688,note_on,,,,,0,0,2,,,,,1,,,66,100
50784,note_off,,,,,96,0,3,,,,,2,,,64,0
50784,note_off,,,,,96,0,4,,,,,3,,,54,0
50880,note_on,,,,,96,0,3,,,,,2,,,66,100
50880,note_on,,,,,96,0,4,,,,,3,,,64,100
50976,note_off,,,,,96,0,3,,,,,2,,,66,0
50976,note_off,,,,,96,0,4,,,,,3,,,64,0
51072,note_on,,,,,96,0,4,,,,,3,,,64,100
51072,note_on,,,,,96,0,3,,,,,2,,,66,100
51072,note_on,,,,,4224,0,1,,,,,0,,,78,100
51072,note_off,,,,,384,0,2,,,,,1,,,66,0
51072,note_on,,,,,0,0,2,,,,,1,,,66,100
51168,note_off,,,,,96,0,4,,,,,3,,,64,0
51168,note_off,,,,,96,0,3,,,,,2,,,66,0
51264,note_off,,,,,192,0,2,,,,,1,,,66,0
51264,note_on,,,,,0,0,2,,,,,1,,,70,100
51456,note_on,,,,,288,0,4,,,,,3,,,54,100
51456,note_off,,,,,384,0,1,,,,,0,,,78,0
51456,note_on,,,,,0,0,1,,,,,0,,,80,100
51456,note_on,,,,,288,0,3,,,,,2,,,64,100
51456,note_off,,,,,192,0,2,,,,,1,,,70,0
51456,note_on,,,,,0,0,2,,,,,1,,,68,100
51552,note_off,,,,,96,0,3,,,,,2,,,64,0
51552,note_off,,,,,96,0,4,,,,,3,,,54,0
51648,note_on,,,,,96,0,4,,,,,3,,,64,100
51648,note_on,,,,,0,0,2,,,,,1,,,71,100
51648,note_off,,,,,192,0,2,,,,,1,,,68,0
51648,note_on,,,,,96,0,3,,,,,2,,,66,100
51744,note_off,,,,,96,0,3,,,,,2,,,66,0
51744,note_off,,,,,96,0,4,,,,,3,,,64,0
51840,note_on,,,,,96,0,4,,,,,3,,,64,100
51840,note_on,,,,,0,0,2,,,,,1,,,70,100
51840,note_off,,,,,192,0,2,,,,,1,,,71,0
51840,note_off,,,,,384,0,1,,,,,0,,,80,0
51840,note_on,,,,,96,0,3,,,,,2,,,66,100
51840,note_on,,,,,0,0,1,,,,,0,,,82,100
51936,note_off,,,,,96,0,3,,,,,2,,,66,0
51936,note_off,,,,,96,0,4,,,,,3,,,64,0
52032,note_off,,,,,192,0,2,,,,,1,,,70,0
52032,note_on,,,,,0,0,2,,,,,1,,,73,100
52224,note_on,,,,,288,0,4,,,,,3,,,59,100
52224,note_on,,,,,0,0,2,,,,,1,,,71,100
52224,note_off,,,,,192,0,2,,,,,1,,,73,0
52224,note_on,,,,,288,0,3,,,,,2,,,63,100
52224,note_on,,,,,0,0,1,,,,,0,,,83,100
52224,note_off,,,,,384,0,1,,,,,0,,,82,0
52320,note_off,,,,,96,0,3,,,,,2,,,63,0
52320,note_off,,,,,96,0,4,,,,,3,,,59,0
52416,note_on,,,,,96,0,4,,,,,3,,,63,100
52416,note_on,,,,,96,0,3,,,,,2,,,66,100
52512,note_off,,,,,96,0,4,,,,,3,,,63,0
52512,note_off,,,,,96,0,3,,,,,2,,,66,0
52608,note_on,,,,,96,0,4,,,,,3,,,63,100
52704,note_off,,,,,96,0,4,,,,,3,,,63,0
52800,note_on,,,,,288,0,3,,,,,2,,,63,100
52896,note_off,,,,,96,0,3,,,,,2,,,63,0
52992,note_on,,,,,288,0,4,,,,,3,,,59,100
52992,note_on,,,,,96,0,3,,,,,2,,,66,100
53088,note_off,,,,,96,0,4,,,,,3,,,59,0
53088,note_off,,,,,96,0,3,,,,,2,,,66,0
53184,note_on,,,,,96,0,4,,,,,3,,,63,100
53184,note_on,,,,,96,0,3,,,,,2,,,66,100
53280,note_off,,,,,96,0,3,,,,,2,,,66,0
53280,note_off,,,,,96,0,4,,,,,3,,,63,0
53376,note_off,,,,,1152,0,1,,,,,0,,,83,0
53376,note_on,,,,,0,0,1,,,,,0,,,85,100
53376,note_off,,,,,1152,0,2,,,,,1,,,71,0
53376,note_on,,,,,0,0,2,,,,,1,,,73,100
53376,note_on,,,,,96,0,4,,,,,3,,,63,100
53472,note_off,,,,,96,0,4,,,,,3,,,63,0
53568,note_off,,,,,192,0,1,,,,,0,,,85,0
53568,note_on,,,,,0,0,1,,,,,0,,,83,100
53568,note_off,,,,,192,0,2,,,,,1,,,73,0
53568,note_on,,,,,0,0,2,,,,,1,,,71,100
53568,note_on,,,,,288,0,3,,,,,2,,,63,100
53664,note_off,,,,,96,0,3,,,,,2,,,63,0
53760,note_on,,,,,96,0,3,,,,,2,,,63,100
53760,note_off,,,,,192,0,2,,,,,1,,,71,0
53760,note_on,,,,,0,0,2,,,,,1,,,71,100
53760,note_on,,,,,288,0,4,,,,,3,,,59,100
53760,note_on,,,,,0,0,1,,,,,0,,,83,100
53760,note_off,,,,,192,0,1,,,,,0,,,83,0
53856,note_off,,,,,96,0,4,,,,,3,,,59,0
53856,note_off,,,,,96,0,3,,,,,2,,,63,0
53952,note_on,,,,,96,0,4,,,,,3,,,63,100
53952,note_off,,,,,192,0,2,,,,,1,,,71,0
53952,note_on,,,,,96,0,3,,,,,2,,,66,100
53952,note_off,,,,,192,0,1,,,,,0,,,83,0
54048,note_off,,,,,96,0,4,,,,,3,,,63,0
54048,note_off,,,,,96,0,3,,,,,2,,,66,0
54144,note_on,,,,,96,0,3,,,,,2,,,66,100
54144,note_on,,,,,192,0,2,,,,,1,,,73,100
54144,note_on,,,,,96,0,4,,,,,3,,,63,100
54144,note_on,,,,,192,0,1,,,,,0,,,85,100
54240,note_off,,,,,96,0,4,,,,,3,,,63,0
54240,note_off,,,,,96,0,3,,,,,2,,,66,0
54336,note_off,,,,,192,0,1,,,,,0,,,85,0
54336,note_off,,,,,192,0,2,,,,,1,,,73,0
54336,note_on,,,,,0,0,1,,,,,0,,,83,100
54336,note_on,,,,,0,0,2,,,,,1,,,71,100
54528,note_on,,,,,288,0,3,,,,,2,,,63,100
54528,note_on,,,,,288,0,4,,,,,3,,,59,100
54528,note_off,,,,,192,0,2,,,,,1,,,71,0
54528,note_on,,,,,0,0,2,,,,,1,,,71,100
54528,note_off,,,,,192,0,1,,,,,0,,,83,0
54528,note_on,,,,,0,0,1,,,,,0,,,83,100
54624,note_off,,,,,96,0,4,,,,,3,,,59,0
54624,note_off,,,,,96,0,3,,,,,2,,,63,0
54720,note_on,,,,,96,0,4,,,,,3,,,63,100
54720,note_off,,,,,192,0,1,,,,,0,,,83,0
54720,note_on,,,,,96,0,3,,,,,2,,,66,100
54720,note_off,,,,,192,0,2,,,,,1,,,71,0
54816,note_off,,,,,96,0,4,,,,,3,,,63,0
54816,note_off,,,,,96,0,3,,,,,2,,,66,0
54912,note_on,,,,,96,0,4,,,,,3,,,63,100
54912,note_on,,,,,192,0,1,,,,,0,,,87,100
54912,note_on,,,,,96,0,3,,,,,2,,,66,100
54912,note_on,,,,,192,0,2,,,,,1,,,75,100
55008,note_off,,,,,96,0,4,,,,,3,,,63,0
55008,note_off,,,,,96,0,3,,,,,2,,,66,0
55104,note_off,,,,,192,0,2,,,,,1,,,75,0
55104,note_off,,,,,192,0,1,,,,,0,,,87,0
55104,note_on,,,,,0,0,1,,,,,0,,,85,100
55104,note_on,,,,,0,0,2,,,,,1,,,73,100
55296,note_on,,,,,288,0,4,,,,,3,,,54,100
55296,note_off,,,,,192,0,1,,,,,0,,,85,0
55296,note_on,,,,,288,0,3,,,,,2,,,64,100
55296,note_off,,,,,192,0,2,,,,,1,,,73,0
55296,note_on,,,,,0,0,1,,,,,0,,,85,100
55296,note_on,,,,,0,0,2,,,,,1,,,73,100
55392,note_off,,,,,96,0,3,,,,,2,,,64,0
55392,note_off,,,,,96,0,4,,,,,3,,,54,0
55488,note_off,,,,,192,0,2,,,,,1,,,73,0
55488,note_on,,,,,96,0,4,,,,,3,,,64,100
55488,note_on,,,,,96,0,3,,,,,2,,,66,100
55488,note_off,,,,,192,0,1,,,,,0,,,85,0
55584,note_off,,,,,96,0,3,,,,,2,,,66,0
55584,note_off,,,,,96,0,4,,,,,3,,,64,0
55680,note_on,,,,,192,0,2,,,,,1,,,73,100
55680,note_on,,,,,96,0,4,,,,,3,,,64,100
55680,note_on,,,,,96,0,3,,,,,2,,,66,100
55680,note_on,,,,,192,0,1,,,,,0,,,85,100
55776,note_off,,,,,96,0,4,,,,,3,,,64,0
55776,note_off,,,,,96,0,3,,,,,2,,,66,0
56064,note_on,,,,,288,0,3,,,,,2,,,64,100
56064,note_on,,,,,288,0,4,,,,,3,,,54,100
56160,note_off,,,,,96,0,4,,,,,3,,,54,0
56160,note_off,,,,,96,0,3,,,,,2,,,64,0
56256,note_on,,,,,96,0,4,,,,,3,,,64,100
56256,note_off,,,,,576,0,2,,,,,1,,,73,0
56256,note_on,,,,,0,0,2,,,,,1,,,71,100
56256,note_off,,,,,576,0,1,,,,,0,,,85,0
56256,note_on,,,,,0,0,1,,,,,0,,,83,100
56256,note_on,,,,,96,0,3,,,,,2,,,66,100
56352,note_off,,,,,96,0,4,,,,,3,,,64,0
56352,note_off,,,,,96,0,3,,,,,2,,,66,0
56448,note_off,,,,,192,0,2,,,,,1,,,71,0
56448,note_on,,,,,0,0,2,,,,,1,,,70,100
56448,note_off,,,,,192,0,1,,,,,0,,,83,0
56448,note_on,,,,,0,0,1,,,,,0,,,82,100
56448,note_on,,,,,96,0,4,,,,,3,,,64,100
56448,note_on,,,,,96,0,3,,,,,2,,,66,100
56544,note_off,,,,,96,0,3,,,,,2,,,66,0
56544,note_off,,,,,96,0,4,,,,,3,,,64,0
56640,note_off,,,,,192,0,1,,,,,0,,,82,0
56640,note_off,,,,,192,0,2,,,,,1,,,70,0
56640,note_on,,,,,0,0,1,,,,,0,,,80,100
56640,note_on,,,,,0,0,2,,,,,1,,,68,100
56832,note_on,,,,,288,0,3,,,,,2,,,64,100
56832,note_off,,,,,192,0,1,,,,,0,,,80,0
56832,note_on,,,,,0,0,1,,,,,0,,,78,100
56832,note_on,,,,,288,0,4,,,,,3,,,54,100
56832,note_on,,,,,0,0,2,,,,,1,,,66,100
56832,note_off,,,,,192,0,2,,,,,1,,,68,0
56928,note_off,,,,,96,0,3,,,,,2,,,64,0
56928,note_off,,,,,96,0,4,,,,,3,,,54,0
57024,note_on,,,,,96,0,3,,,,,2,,,66,100
57024,note_off,,,,,192,0,2,,,,,1,,,66,0
57024,note_on,,,,,96,0,4,,,,,3,,,64,100
57024,note_off,,,,,192,0,1,,,,,0,,,78,0
57120,note_off,,,,,96,0,3,,,,,2,,,66,0
57120,note_off,,,,,96,0,4,,,,,3,,,64,0
57216,note_on,,,,,192,0,1,,,,,0,,,78,100
57216,note_on,,,,,96,0,4,,,,,3,,,64,100
57216,note_on,,,,,192,0,2,,,,,1,,,66,100
57216,note_on,,,,,96,0,3,,,,,2,,,66,100
57312,note_off,,,,,96,0,4,,,,,3,,,64,0
57312,note_off,,,,,96,0,3,,,,,2,,,66,0
57504,note_on,,,,,0,0,2,,,,,1,,,70,100
57504,note_on,,,,,0,0,1,,,,,0,,,82,100
57504,note_off,,,,,288,0,2,,,,,1,,,66,0
57504,note_off,,,,,288,0,1,,,,,0,,,78,0
57600,note_off,,,,,96,0,2,,,,,1,,,70,0
57600,note_on,,,,,0,0,2,,,,,1,,,68,100
57600,note_on,,,,,288,0,3,,,,,2,,,64,100
57600,note_on,,,,,288,0,4,,,,,3,,,54,100
57600,note_off,,,,,96,0,1,,,,,0,,,82,0
57600,note_on,,,,,0,0,1,,,,,0,,,80,100
57696,note_off,,,,,96,0,4,,,,,3,,,54,0
57696,note_off,,,,,96,0,3,,,,,2,,,64,0
57792,note_on,,,,,96,0,3,,,,,2,,,66,100
57792,note_on,,,,,96,0,4,,,,,3,,,64,100
57888,note_off,,,,,96,0,3,,,,,2,,,66,0
57888,note_off,,,,,96,0,4,,,,,3,,,64,0
57984,note_on,,,,,96,0,4,,,,,3,,,64,100
57984,note_on,,,,,0,0,2,,,,,1,,,66,100
57984,note_off,,,,,384,0,2,,,,,1,,,68,0
57984,note_on,,,,,96,0,3,,,,,2,,,66,100
57984,note_off,,,,,384,0,1,,,,,0,,,80,0
57984,note_on,,,,,0,0,1,,,,,0,,,78,100
58080,note_off,,,,,96,0,4,,,,,3,,,64,0
58080,note_off,,,,,96,0,3,,,,,2,,,66,0
58368,note_on,,,,,0,0,2,,,,,1,,,66,100
58368,note_off,,,,,384,0,1,,,,,0,,,78,0
58368,note_on,,,,,0,0,1,,,,,0,,,76,100
58368,note_off,,,,,384,0,2,,,,,1,,,66,0
58368,note_on,,,,,288,0,4,,,,,3,,,49,100
58464,note_off,,,,,96,0,1,,,,,0,,,76,0
58464,note_off,,,,,96,0,2,,,,,1,,,66,0
58560,note_off,,,,,192,0,4,,,,,3,,,49,0
58560,note_on,,,,,96,0,1,,,,,0,,,78,100
58560,note_on,,,,,96,0,2,,,,,1,,,76,100
58656,note_off,,,,,96,0,1,,,,,0,,,78,0
58656,note_off,,,,,96,0,2,,,,,1,,,76,0
58752,note_on,,,,,192,0,4,,,,,3,,,49,100
58752,note_on,,,,,96,0,2,,,,,1,,,76,100
58752,note_on,,,,,96,0,1,,,,,0,,,78,100
58848,note_off,,,,,96,0,1,,,,,0,,,78,0
58848,note_off,,,,,96,0,2,,,,,1,,,76,0
59136,note_on,,,,,288,0,2,,,,,1,,,66,100
59136,note_on,,,,,288,0,1,,,,,0,,,76,100
59232,note_off,,,,,96,0,2,,,,,1,,,66,0
59232,note_off,,,,,96,0,1,,,,,0,,,76,0
59328,note_on,,,,,0,0,4,,,,,3,,,47,100
59328,note_on,,,,,96,0,1,,,,,0,,,78,100
59328,note_off,,,,,576,0,4,,,,,3,,,49,0
59328,note_on,,,,,96,0,2,,,,,1,,,76,100
59424,note_off,,,,,96,0,2,,,,,1,,,76,0
59424,note_off,,,,,96,0,1,,,,,0,,,78,0
59520,note_on,,,,,0,0,4,,,,,3,,,46,100
59520,note_on,,,,,96,0,2,,,,,1,,,76,100
59520,note_on,,,,,96,0,1,,,,,0,,,78,100
59520,note_off,,,,,192,0,4,,,,,3,,,47,0
59616,note_off,,,,,96,0,1,,,,,0,,,78,0
59616,note_off,,,,,96,0,2,,,,,1,,,76,0
59712,note_off,,,,,192,0,4,,,,,3,,,46,0
59712,note_on,,,,,0,0,4,,,,,3,,,44,100
59904,note_on,,,,,288,0,1,,,,,0,,,76,100
59904,note_on,,,,,288,0,2,,,,,1,,,70,100
59904,note_on,,,,,1824,0,3,,,,,2,,,61,100
59904,note_off,,,,,192,0,4,,,,,3,,,44,0
59904,note_on,,,,,0,0,4,,,,,3,,,42,100
60000,note_off,,,,,96,0,2,,,,,1,,,70,0
60000,note_off,,,,,96,0,1,,,,,0,,,76,0
60096,note_on,,,,,96,0,1,,,,,0,,,78,100
60096,note_off,,,,,192,0,3,,,,,2,,,61,0
60096,note_on,,,,,96,0,2,,,,,1,,,76,100
60192,note_off,,,,,96,0,1,,,,,0,,,78,0
60192,note_off,,,,,96,0,2,,,,,1,,,76,0
60288,note_off,,,,,384,0,4,,,,,3,,,42,0
60288,note_on,,,,,96,0,1,,,,,0,,,78,100
60288,note_on,,,,,192,0,3,,,,,2,,,61,100
60288,note_on,,,,,96,0,2,,,,,1,,,76,100
60384,note_off,,,,,96,0,2,,,,,1,,,76,0
60384,note_off,,,,,96,0,1,,,,,0,,,78,0
60672,note_on,,,,,288,0,2,,,,,1,,,70,100
60672,note_on,,,,,288,0,1,,,,,0,,,76,100
60768,note_off,,,,,96,0,2,,,,,1,,,70,0
60768,note_off,,,,,96,0,1,,,,,0,,,76,0
60864,note_on,,,,,96,0,2,,,,,1,,,76,100
60864,note_on,,,,,0,0,3,,,,,2,,,59,100
60864,note_on,,,,,96,0,1,,,,,0,,,78,100
60864,note_off,,,,,576,0,3,,,,,2,,,61,0
60960,note_off,,,,,96,0,2,,,,,1,,,76,0
60960,note_off,,,,,96,0,1,,,,,0,,,78,0
61056,note_off,,,,,192,0,3,,,,,2,,,59,0
61056,note_on,,,,,0,0,3,,,,,2,,,58,100
61056,note_on,,,,,96,0,2,,,,,1,,,76,100
61056,note_on,,,,,96,0,1,,,,,0,,,78,100
61152,note_off,,,,,96,0,1,,,,,0,,,78,0
61152,note_off,,,,,96,0,2,,,,,1,,,76,0
61248,note_off,,,,,192,0,3,,,,,2,,,58,0
61248,note_on,,,,,0,0,3,,,,,2,,,56,100
61440,note_on,,,,,288,0,2,,,,,1,,,66,100
61440,note_on,,,,,1152,0,4,,,,,3,,,49,100
61440,note_on,,,,,288,0,1,,,,,0,,,76,100
61440,note_off,,,,,192,0,3,,,,,2,,,56,0
61440,note_on,,,,,0,0,3,,,,,2,,,54,100
61536,note_off,,,,,96,0,2,,,,,1,,,66,0
61536,note_off,,,,,96,0,1,,,,,0,,,76,0
61632,note_off,,,,,192,0,4,,,,,3,,,49,0
61632,note_on,,,,,96,0,2,,,,,1,,,76,100
61632,note_on,,,,,96,0,1,,,,,0,,,78,100
61728,note_off,,,,,96,0,2,,,,,1,,,76,0
61728,note_off,,,,,96,0,1,,,,,0,,,78,0
61824,note_off,,,,,384,0,3,,,,,2,,,54,0
61824,note_on,,,,,192,0,4,,,,,3,,,49,100
61824,note_on,,,,,96,0,2,,,,,1,,,76,100
61824,note_on,,,,,96,0,1,,,,,0,,,78,100
61920,note_off,,,,,96,0,1,,,,,0,,,78,0
61920,note_off,,,,,96,0,2,,,,,1,,,76,0
62208,note_on,,,,,288,0,2,,,,,1,,,66,100
62208,note_on,,,,,288,0,1,,,,,0,,,76,100
62304,note_off,,,,,96,0,2,,,,,1,,,66,0
62304,note_off,,,,,96,0,1,,,,,0,,,76,0
62400,note_on,,,,,96,0,1,,,,,0,,,78,100
62400,note_on,,,,,0,0,4,,,,,3,,,47,100
62400,note_on,,,,,96,0,2,,,,,1,,,76,100
62400,note_off,,,,,576,0,4,,,,,3,,,49,0
62496,note_off,,,,,96,0,2,,,,,1,,,76,0
62496,note_off,,,,,96,0,1,,,,,0,,,78,0
62592,note_off,,,,,192,0,4,,,,,3,,,47,0
62592,note_on,,,,,96,0,2,,,,,1,,,76,100
62592,note_on,,,,,96,0,1,,,,,0,,,78,100
62592,note_on,,,,,0,0,4,,,,,3,,,46,100
62688,note_off,,,,,96,0,1,,,,,0,,,78,0
62688,note_off,,,,,96,0,2,,,,,1,,,76,0
62784,note_off,,,,,192,0,4,,,,,3,,,46,0
62784,note_on,,,,,0,0,4,,,,,3,,,44,100
62976,note_off,,,,,192,0,4,,,,,3,,,44,0
62976,note_on,,,,,0,0,4,,,,,3,,,42,100
62976,note_on,,,,,288,0,1,,,,,0,,,76,100
62976,note_on,,,,,1152,0,3,,,,,2,,,61,100
62976,note_on,,,,,288,0,2,,,,,1,,,70,100
63072,note_off,,,,,96,0,1,,,,,0,,,76,0
63072,note_off,,,,,96,0,2,,,,,1,,,70,0
63168,note_on,,,,,96,0,1,,,,,0,,,78,100
63168,note_off,,,,,192,0,3,,,,,2,,,61,0
63168,note_on,,,,,96,0,2,,,,,1,,,76,100
63264,note_off,,,,,96,0,2,,,,,1,,,76,0
63264,note_off,,,,,96,0,1,,,,,0,,,78,0
63360,note_on,,,,,96,0,2,,,,,1,,,76,100
63360,note_off,,,,,384,0,4,,,,,3,,,42,0
63360,note_on,,,,,192,0,3,,,,,2,,,61,100
63360,note_on,,,,,96,0,1,,,,,0,,,78,100
63456,note_off,,,,,96,0,2,,,,,1,,,76,0
63456,note_off,,,,,96,0,1,,,,,0,,,78,0
63744,note_on,,,,,288,0,2,,,,,1,,,70,100
63744,note_on,,,,,288,0,1,,,,,0,,,76,100
63840,note_off,,,,,96,0,2,,,,,1,,,70,0
63840,note_off,,,,,96,0,1,,,,,0,,,76,0
63936,note_on,,,,,0,0,3,,,,,2,,,59,100
63936,note_off,,,,,576,0,3,,,,,2,,,61,0
63936,note_on,,,,,96,0,2,,,,,1,,,76,100
63936,note_on,,,,,96,0,1,,,,,0,,,78,100
64032,note_off,,,,,96,0,1,,,,,0,,,78,0
64032,note_off,,,,,96,0,2,,,,,1,,,76,0
64128,note_on,,,,,96,0,2,,,,,1,,,76,100
64128,note_on,,,,,0,0,3,,,,,2,,,58,100
64128,note_off,,,,,192,0,3,,,,,2,,,59,0
64128,note_on,,,,,96,0,1,,,,,0,,,78,100
64224,note_off,,,,,96,0,1,,,,,0,,,78,0
64224,note_off,,,,,96,0,2,,,,,1,,,76,0
64320,note_on,,,,,0,0,3,,,,,2,,,56,100
64320,note_off,,,,,192,0,3,,,,,2,,,58,0
64512,note_on,,,,,0,0,3,,,,,2,,,54,100
64512,note_off,,,,,192,0,3,,,,,2,,,56,0
64512,note_on,,,,,288,0,2,,,,,1,,,70,100
64512,note_on,,,,,288,0,1,,,,,0,,,76,100
64608,note_off,,,,,96,0,1,,,,,0,,,76,0
64608,note_off,,,,,96,0,2,,,,,1,,,70,0
64704,note_on,,,,,96,0,1,,,,,0,,,82,100
64704,note_on,,,,,96,0,2,,,,,1,,,76,100
64800,note_off,,,,,96,0,1,,,,,0,,,82,0
64800,note_off,,,,,96,0,2,,,,,1,,,76,0
64896,note_off,,,,,384,0,3,,,,,2,,,54,0
64896,note_on,,,,,96,0,2,,,,,1,,,76,100
64896,note_on,,,,,96,0,1,,,,,0,,,82,100
64992,note_off,,,,,96,0,1,,,,,0,,,82,0
64992,note_off,,,,,96,0,2,,,,,1,,,76,0
65280,note_on,,,,,288,0,1,,,,,0,,,76,100
65280,note_on,,,,,288,0,2,,,,,1,,,70,100
65280,note_on,,,,,1920,0,4,,,,,3,,,43,100
65376,note_off,,,,,96,0,1,,,,,0,,,76,0
65376,note_off,,,,,96,0,2,,,,,1,,,70,0
65472,note_on,,,,,96,0,1,,,,,0,,,82,100
65472,note_on,,,,,96,0,2,,,,,1,,,76,100
65568,note_off,,,,,96,0,1,,,,,0,,,82,0
65568,note_off,,,,,96,0,2,,,,,1,,,76,0
65664,note_on,,,,,96,0,1,,,,,0,,,82,100
65664,note_on,,,,,96,0,2,,,,,1,,,76,100
65760,note_off,,,,,96,0,2,,,,,1,,,76,0
65760,note_off,,,,,96,0,1,,,,,0,,,82,0
66048,note_on,,,,,1152,0,3,,,,,2,,,67,100
66048,note_on,,,,,288,0,2,,,,,1,,,71,100
66048,note_on,,,,,288,0,1,,,,,0,,,77,100
66144,note_off,,,,,96,0,1,,,,,0,,,77,0
66144,note_off,,,,,96,0,2,,,,,1,,,71,0
66240,note_off,,,,,192,0,3,,,,,2,,,67,0
66240,note_on,,,,,96,0,2,,,,,1,,,77,100
66240,note_on,,,,,96,0,1,,,,,0,,,83,100
66336,note_off,,,,,96,0,2,,,,,1,,,77,0
66336,note_off,,,,,96,0,1,,,,,0,,,83,0
66432,note_on,,,,,96,0,2,,,,,1,,,77,100
66432,note_on,,,,,192,0,3,,,,,2,,,67,100
66432,note_on,,,,,96,0,1,,,,,0,,,83,100
66528,note_off,,,,,96,0,2,,,,,1,,,77,0
66528,note_off,,,,,96,0,1,,,,,0,,,83,0
66816,note_on,,,,,288,0,2,,,,,1,,,71,100
66816,note_on,,,,,288,0,1,,,,,0,,,77,100
66912,note_off,,,,,96,0,2,,,,,1,,,71,0
66912,note_off,,,,,96,0,1,,,,,0,,,77,0
67008,note_on,,,,,0,0,3,,,,,2,,,65,100
67008,note_on,,,,,96,0,1,,,,,0,,,83,100
67008,note_off,,,,,576,0,3,,,,,2,,,67,0
67008,note_on,,,,,96,0,2,,,,,1,,,77,100
67104,note_off,,,,,96,0,2,,,,,1,,,77,0
67104,note_off,,,,,96,0,1,,,,,0,,,83,0
67200,note_on,,,,,96,0,1,,,,,0,,,83,100
67200,note_on,,,,,96,0,2,,,,,1,,,77,100
67200,note_off,,,,,192,0,3,,,,,2,,,65,0
67200,note_on,,,,,0,0,3,,,,,2,,,64,100
67296,note_off,,,,,96,0,2,,,,,1,,,77,0
67296,note_off,,,,,96,0,1,,,,,0,,,83,0
67392,note_off,,,,,192,0,3,,,,,2,,,64,0
67392,note_on,,,,,0,0,3,,,,,2,,,62,100
67584,note_on,,,,,0,0,3,,,,,2,,,60,100
67584,note_off,,,,,192,0,3,,,,,2,,,62,0
67584,note_on,,,,,288,0,2,,,,,1,,,76,100
67584,note_on,,,,,0,0,4,,,,,3,,,36,100
67584,note_on,,,,,288,0,1,,,,,0,,,84,100
67584,note_off,,,,,2304,0,4,,,,,3,,,43,0
67584,note_on,,,,,0,0,2,,,,,1,,,72,100
67776,note_off,,,,,192,0,2,,,,,1,,,76,0
67776,note_off,,,,,192,0,4,,,,,3,,,36,0
67776,note_off,,,,,192,0,3,,,,,2,,,60,0
67776,note_off,,,,,0,0,2,,,,,1,,,72,0
67776,note_off,,,,,192,0,1,,,,,0,,,84,0
67968,note_on,,,,,192,0,4,,,,,3,,,48,100
67968,note_on,,,,,192,0,1,,,,,0,,,84,100
67968,note_on,,,,,192,0,2,,,,,1,,,72,100
67968,note_on,,,,,192,0,3,,,,,2,,,52,100
68544,note_off,,,,,576,0,2,,,,,1,,,72,0
68544,note_off,,,,,576,0,1,,,,,0,,,84,0
68544,note_on,,,,,0,0,1,,,,,0,,,83,100
68544,note_on,,,,,0,0,2,,,,,1,,,71,100
68736,note_on,,,,,0,0,2,,,,,1,,,69,100
68736,note_off,,,,,768,0,3,,,,,2,,,52,0
68736,note_on,,,,,0,0,3,,,,,2,,,53,100
68736,note_off,,,,,192,0,2,,,,,1,,,71,0
68736,note_on,,,,,0,0,4,,,,,3,,,50,100
68736,note_on,,,,,0,0,1,,,,,0,,,81,100
68736,note_off,,,,,768,0,4,,,,,3,,,48,0
68736,note_off,,,,,192,0,1,,,,,0,,,83,0
68928,note_off,,,,,192,0,1,,,,,0,,,81,0
68928,note_off,,,,,192,0,2,,,,,1,,,69,0
68928,note_on,,,,,0,0,2,,,,,1,,,67,100
68928,note_on,,,,,0,0,1,,,,,0,,,79,100
68928,note_on,,,,,0,0,4,,,,,3,,,52,100
68928,note_off,,,,,192,0,3,,,,,2,,,53,0
68928,note_on,,,,,0,0,3,,,,,2,,,55,100
68928,note_off,,,,,192,0,4,,,,,3,,,50,0
69120,note_off,,,,,192,0,3,,,,,2,,,55,0
69120,note_on,,,,,0,0,1,,,,,0,,,77,100
69120,note_off,,,,,192,0,1,,,,,0,,,79,0
69120,note_off,,,,,192,0,4,,,,,3,,,52,0
69120,note_on,,,,,0,0,4,,,,,3,,,43,100
69120,note_off,,,,,192,0,2,,,,,1,,,67,0
69120,note_on,,,,,0,0,2,,,,,1,,,65,100
69120,note_on,,,,,0,0,3,,,,,2,,,59,100
69216,note_off,,,,,96,0,1,,,,,0,,,77,0
69312,note_off,,,,,192,0,4,,,,,3,,,43,0
69312,note_off,,,,,192,0,2,,,,,1,,,65,0
69312,note_on,,,,,96,0,1,,,,,0,,,89,100
69312,note_off,,,,,192,0,3,,,,,2,,,59,0
69408,note_off,,,,,96,0,1,,,,,0,,,89,0
69504,note_on,,,,,96,0,1,,,,,0,,,86,100
69504,note_on,,,,,192,0,2,,,,,1,,,67,100
69504,note_on,,,,,0,0,2,,,,,1,,,55,100
69504,note_on,,,,,192,0,4,,,,,3,,,55,100
69504,note_on,,,,,192,0,3,,,,,2,,,59,100
69600,note_off,,,,,96,0,1,,,,,0,,,86,0
69696,note_on,,,,,96,0,1,,,,,0,,,83,100
69792,note_off,,,,,96,0,1,,,,,0,,,83,0
69888,note_on,,,,,96,0,1,,,,,0,,,79,100
69984,note_off,,,,,96,0,1,,,,,0,,,79,0
70080,note_on,,,,,96,0,1,,,,,0,,,86,100
70176,note_off,,,,,96,0,1,,,,,0,,,86,0
70272,note_off,,,,,768,0,4,,,,,3,,,55,0
70272,note_on,,,,,0,0,3,,,,,2,,,60,100
70272,note_off,,,,,768,0,3,,,,,2,,,59,0
70272,note_on,,,,,0,0,2,,,,,1,,,67,100
70272,note_on,,,,,0,0,2,,,,,1,,,55,100
70272,note_on,,,,,96,0,1,,,,,0,,,83,100
70272,note_off,,,,,0,0,2,,,,,1,,,55,0
70272,note_off,,,,,768,0,2,,,,,1,,,67,0
70272,note_on,,,,,0,0,4,,,,,3,,,57,100
70368,note_off,,,,,96,0,1,,,,,0,,,83,0
70464,note_on,,,,,0,0,4,,,,,3,,,59,100
70464,note_on,,,,,96,0,1,,,,,0,,,77,100
70464,note_off,,,,,192,0,3,,,,,2,,,60,0
70464,note_on,,,,,0,0,3,,,,,2,,,62,100
70464,note_off,,,,,192,0,4,,,,,3,,,57,0
70560,note_off,,,,,96,0,1,,,,,0,,,77,0
70608,note_on,,,,,48,0,1,,,,,0,,,76,100
70656,note_off,,,,,48,0,1,,,,,0,,,76,0
70656,note_on,,,,,0,0,1,,,,,0,,,84,100
70656,note_off,,,,,192,0,3,,,,,2,,,62,0
70656,note_on,,,,,0,0,3,,,,,2,,,64,100
70656,note_on,,,,,0,0,2,,,,,1,,,55,100
70656,note_off,,,,,192,0,4,,,,,3,,,59,0
70656,note_on,,,,,0,0,4,,,,,3,,,60,100
70656,note_on,,,,,0,0,2,,,,,1,,,67,100
70656,note_off,,,,,0,0,2,,,,,1,,,67,0
70656,note_off,,,,,384,0,2,,,,,1,,,55,0
70848,note_off,,,,,192,0,4,,,,,3,,,60,0
70848,note_off,,,,,0,0,2,,,,,1,,,67,0
70848,note_off,,,,,192,0,2,,,,,1,,,55,0
70848,note_off,,,,,192,0,1,,,,,0,,,84,0
70848,note_off,,,,,192,0,3,,,,,2,,,64,0
71040,note_on,,,,,192,0,4,,,,,3,,,48,100
71040,note_on,,,,,192,0,2,,,,,1,,,72,100
71040,note_on,,,,,192,0,3,,,,,2,,,52,100
71040,note_on,,,,,192,0,1,,,,,0,,,84,100
71616,note_off,,,,,576,0,2,,,,,1,,,72,0
71616,note_on,,,,,0,0,2,,,,,1,,,71,100
71616,note_off,,,,,576,0,1,,,,,0,,,84,0
71616,note_on,,,,,0,0,1,,,,,0,,,83,100
71808,note_off,,,,,192,0,2,,,,,1,,,71,0
71808,note_on,,,,,0,0,2,,,,,1,,,69,100
71808,note_off,,,,,768,0,3,,,,,2,,,52,0
71808,note_on,,,,,0,0,4,,,,,3,,,50,100
71808,note_off,,,,,768,0,4,,,,,3,,,48,0
71808,note_on,,,,,0,0,1,,,,,0,,,81,100
71808,note_on,,,,,0,0,3,,,,,2,,,53,100
71808,note_off,,,,,192,0,1,,,,,0,,,83,0
72000,note_off,,,,,192,0,3,,,,,2,,,53,0
72000,note_on,,,,,0,0,3,,,,,2,,,55,100
72000,note_off,,,,,192,0,2,,,,,1,,,69,0
72000,note_on,,,,,0,0,2,,,,,1,,,67,100
72000,note_on,,,,,0,0,4,,,,,3,,,52,100
72000,note_off,,,,,192,0,4,,,,,3,,,50,0
72000,note_off,,,,,192,0,1,,,,,0,,,81,0
72000,note_on,,,,,0,0,1,,,,,0,,,79,100
72192,note_off,,,,,192,0,3,,,,,2,,,55,0
72192,note_off,,,,,192,0,2,,,,,1,,,67,0
72192,note_on,,,,,0,0,2,,,,,1,,,65,100
72192,note_on,,,,,0,0,3,,,,,2,,,59,100
72192,note_on,,,,,0,0,4,,,,,3,,,43,100
72192,note_off,,,,,192,0,1,,,,,0,,,79,0
72192,note_on,,,,,0,0,1,,,,,0,,,77,100
72192,note_off,,,,,192,0,4,,,,,3,,,52,0
72288,note_off,,,,,96,0,1,,,,,0,,,77,0
72384,note_on,,,,,96,0,1,,,,,0,,,89,100
72384,note_off,,,,,192,0,2,,,,,1,,,65,0
72384,note_off,,,,,192,0,4,,,,,3,,,43,0
72384,note_off,,,,,192,0,3,,,,,2,,,59,0
72480,note_off,,,,,96,0,1,,,,,0,,,89,0
72576,note_on,,,,,96,0,1,,,,,0,,,86,100
72576,note_on,,,,,192,0,2,,,,,1,,,55,100
72576,note_on,,,,,0,0,2,,,,,1,,,67,100
72576,note_on,,,,,192,0,3,,,,,2,,,59,100
72576,note_on,,,,,192,0,4,,,,,3,,,55,100
72672,note_off,,,,,96,0,1,,,,,0,,,86,0
72768,note_on,,,,,96,0,1,,,,,0,,,83,100
72864,note_off,,,,,96,0,1,,,,,0,,,83,0
72960,note_on,,,,,96,0,1,,,,,0,,,79,100
73056,note_off,,,,,96,0,1,,,,,0,,,79,0
73152,note_on,,,,,96,0,1,,,,,0,,,86,100
73248,note_off,,,,,96,0,1,,,,,0,,,86,0
73344,note_off,,,,,768,0,3,,,,,2,,,59,0
73344,note_off,,,,,768,0,4,,,,,3,,,55,0
73344,note_on,,,,,96,0,1,,,,,0,,,83,100
73344,note_on,,,,,0,0,2,,,,,1,,,55,100
73344,note_on,,,,,0,0,2,,,,,1,,,67,100
73344,note_off,,,,,0,0,2,,,,,1,,,67,0
73344,note_off,,,,,768,0,2,,,,,1,,,55,0
73344,note_on,,,,,0,0,4,,,,,3,,,57,100
73344,note_on,,,,,0,0,3,,,,,2,,,60,100
73440,note_off,,,,,96,0,1,,,,,0,,,83,0
73536,note_on,,,,,96,0,1,,,,,0,,,77,100
73536,note_off,,,,,192,0,4,,,,,3,,,57,0
73536,note_on,,,,,0,0,3,,,,,2,,,62,100
73536,note_on,,,,,0,0,4,,,,,3,,,59,100
73536,note_off,,,,,192,0,3,,,,,2,,,60,0
73632,note_off,,,,,96,0,1,,,,,0,,,77,0
73728,note_off,,,,,384,0,2,,,,,1,,,67,0
73728,note_off,,,,,0,0,2,,,,,1,,,55,0
73728,note_on,,,,,96,0,1,,,,,0,,,76,100
73728,note_on,,,,,0,0,2,,,,,1,,,76,100
73728,note_off,,,,,192,0,4,,,,,3,,,59,0
73728,note_on,,,,,0,0,4,,,,,3,,,52,100
73728,note_on,,,,,0,0,3,,,,,2,,,56,100
73728,note_off,,,,,192,0,3,,,,,2,,,62,0
73824,note_off,,,,,96,0,2,,,,,1,,,76,0
73824,note_off,,,,,96,0,1,,,,,0,,,76,0
73920,note_on,,,,,96,0,1,,,,,0,,,88,100
73920,note_on,,,,,96,0,2,,,,,1,,,64,100
74016,note_off,,,,,96,0,1,,,,,0,,,88,0
74016,note_off,,,,,96,0,2,,,,,1,,,64,0
74112,note_on,,,,,0,0,3,,,,,2,,,57,100
74112,note_off,,,,,384,0,3,,,,,2,,,56,0
74112,note_on,,,,,96,0,2,,,,,1,,,68,100
74112,note_off,,,,,384,0,4,,,,,3,,,52,0
74112,note_on,,,,,0,0,4,,,,,3,,,54,100
74112,note_on,,,,,96,0,1,,,,,0,,,83,100
74208,note_off,,,,,96,0,1,,,,,0,,,83,0
74208,note_off,,,,,96,0,2,,,,,1,,,68,0
74304,note_on,,,,,96,0,2,,,,,1,,,71,100
74304,note_off,,,,,192,0,4,,,,,3,,,54,0
74304,note_on,,,,,0,0,3,,,,,2,,,59,100
74304,note_off,,,,,192,0,3,,,,,2,,,57,0
74304,note_on,,,,,96,0,1,,,,,0,,,80,100
74304,note_on,,,,,0,0,4,,,,,3,,,56,100
74400,note_off,,,,,96,0,1,,,,,0,,,80,0
74400,note_off,,,,,96,0,2,,,,,1,,,71,0
74496,note_off,,,,,192,0,3,,,,,2,,,59,0
74496,note_off,,,,,192,0,4,,,,,3,,,56,0
74496,note_on,,,,,0,0,4,,,,,3,,,57,100
74496,note_on,,,,,96,0,2,,,,,1,,,76,100
74496,note_on,,,,,0,0,3,,,,,2,,,60,100
74496,note_on,,,,,96,0,1,,,,,0,,,76,100
74592,note_off,,,,,96,0,1,,,,,0,,,76,0
74592,note_off,,,,,96,0,2,,,,,1,,,76,0
74688,note_on,,,,,96,0,1,,,,,0,,,88,100
74688,note_on,,,,,96,0,2,,,,,1,,,64,100
74784,note_off,,,,,96,0,2,,,,,1,,,64,0
74784,note_off,,,,,96,0,1,,,,,0,,,88,0
74880,note_on,,,,,96,0,1,,,,,0,,,84,100
74880,note_on,,,,,0,0,4,,,,,3,,,59,100
74880,note_on,,,,,96,0,2,,,,,1,,,69,100
74880,note_on,,,,,0,0,3,,,,,2,,,62,100
74880,note_off,,,,,384,0,3,,,,,2,,,60,0
74880,note_off,,,,,384,0,4,,,,,3,,,57,0
74976,note_off,,,,,96,0,2,,,,,1,,,69,0
74976,note_off,,,,,96,0,1,,,,,0,,,84,0
75072,note_on,,,,,96,0,2,,,,,1,,,72,100
75072,note_off,,,,,192,0,4,,,,,3,,,59,0
75072,note_on,,,,,0,0,4,,,,,3,,,60,100
75072,note_on,,,,,96,0,1,,,,,0,,,81,100
75072,note_on,,,,,0,0,3,,,,,2,,,64,100
75072,note_off,,,,,192,0,3,,,,,2,,,62,0
75168,note_off,,,,,96,0,2,,,,,1,,,72,0
75168,note_off,,,,,96,0,1,,,,,0,,,81,0
75264,note_off,,,,,192,0,4,,,,,3,,,60,0
75264,note_on,,,,,0,0,4,,,,,3,,,50,100
75264,note_on,,,,,0,0,3,,,,,2,,,54,100
75264,note_off,,,,,192,0,3,,,,,2,,,64,0
75264,note_on,,,,,96,0,2,,,,,1,,,74,100
75264,note_on,,,,,96,0,1,,,,,0,,,74,100
75360,note_off,,,,,96,0,2,,,,,1,,,74,0
75360,note_off,,,,,96,0,1,,,,,0,,,74,0
75456,note_on,,,,,96,0,1,,,,,0,,,86,100
75456,note_on,,,,,96,0,2,,,,,1,,,62,100
75552,note_off,,,,,96,0,2,,,,,1,,,62,0
75552,note_off,,,,,96,0,1,,,,,0,,,86,0
75648,note_on,,,,,0,0,4,,,,,3,,,52,100
75648,note_off,,,,,384,0,4,,,,,3,,,50,0
75648,note_on,,,,,96,0,2,,,,,1,,,66,100
75648,note_off,,,,,384,0,3,,,,,2,,,54,0
75648,note_on,,,,,0,0,3,,,,,2,,,55,100
75648,note_on,,,,,96,0,1,,,,,0,,,81,100
75744,note_off,,,,,96,0,1,,,,,0,,,81,0
75744,note_off,,,,,96,0,2,,,,,1,,,66,0
75840,note_on,,,,,96,0,2,,,,,1,,,69,100
75840,note_off,,,,,192,0,4,,,,,3,,,52,0
75840,note_on,,,,,0,0,4,,,,,3,,,54,100
75840,note_on,,,,,96,0,1,,,,,0,,,78,100
75840,note_off,,,,,192,0,3,,,,,2,,,55,0
75840,note_on,,,,,0,0,3,,,,,2,,,57,100
75936,note_off,,,,,96,0,2,,,,,1,,,69,0
75936,note_off,,,,,96,0,1,,,,,0,,,78,0
76032,note_off,,,,,192,0,4,,,,,3,,,54,0
76032,note_on,,,,,96,0,1,,,,,0,,,74,100
76032,note_on,,,,,0,0,4,,,,,3,,,55,100
76032,note_on,,,,,96,0,2,,,,,1,,,74,100
76032,note_on,,,,,0,0,3,,,,,2,,,59,100
76032,note_off,,,,,192,0,3,,,,,2,,,57,0
76128,note_off,,,,,96,0,2,,,,,1,,,74,0
76128,note_off,,,,,96,0,1,,,,,0,,,74,0
76224,note_on,,,,,96,0,1,,,,,0,,,86,100
76224,note_on,,,,,96,0,2,,,,,1,,,62,100
76320,note_off,,,,,96,0,1,,,,,0,,,86,0
76320,note_off,,,,,96,0,2,,,,,1,,,62,0
76416,note_on,,,,,96,0,1,,,,,0,,,83,100
76416,note_on,,,,,0,0,3,,,,,2,,,60,100
76416,note_on,,,,,0,0,4,,,,,3,,,57,100
76416,note_on,,,,,96,0,2,,,,,1,,,67,100
76416,note_off,,,,,384,0,3,,,,,2,,,59,0
76416,note_off,,,,,384,0,4,,,,,3,,,55,0
76512,note_off,,,,,96,0,2,,,,,1,,,67,0
76512,note_off,,,,,96,0,1,,,,,0,,,83,0
76608,note_off,,,,,192,0,3,,,,,2,,,60,0
76608,note_on,,,,,96,0,2,,,,,1,,,71,100
76608,note_on,,,,,96,0,1,,,,,0,,,79,100
76608,note_on,,,,,0,0,4,,,,,3,,,59,100
76608,note_off,,,,,192,0,4,,,,,3,,,57,0
76608,note_on,,,,,0,0,3,,,,,2,,,62,100
76704,note_off,,,,,96,0,1,,,,,0,,,79,0
76704,note_off,,,,,96,0,2,,,,,1,,,71,0
76800,note_on,,,,,96,0,2,,,,,1,,,72,100
76800,note_off,,,,,192,0,3,,,,,2,,,62,0
76800,note_on,,,,,0,0,3,,,,,2,,,52,100
76800,note_on,,,,,96,0,1,,,,,0,,,72,100
76800,note_on,,,,,0,0,4,,,,,3,,,48,100
76800,note_off,,,,,192,0,4,,,,,3,,,59,0
76896,note_off,,,,,96,0,1,,,,,0,,,72,0
76896,note_off,,,,,96,0,2,,,,,1,,,72,0
76992,note_on,,,,,96,0,1,,,,,0,,,84,100
76992,note_on,,,,,96,0,2,,,,,1,,,60,100
77088,note_off,,,,,96,0,1,,,,,0,,,84,0
77088,note_off,,,,,96,0,2,,,,,1,,,60,0
77184,note_on,,,,,0,0,4,,,,,3,,,50,100
77184,note_off,,,,,384,0,4,,,,,3,,,48,0
77184,note_off,,,,,384,0,3,,,,,2,,,52,0
77184,note_on,,,,,0,0,3,,,,,2,,,54,100
77184,note_on,,,,,96,0,1,,,,,0,,,79,100
77184,note_on,,,,,96,0,2,,,,,1,,,64,100
77280,note_off,,,,,96,0,2,,,,,1,,,64,0
77280,note_off,,,,,96,0,1,,,,,0,,,79,0
77376,note_on,,,,,0,0,4,,,,,3,,,52,100
77376,note_on,,,,,0,0,3,,,,,2,,,55,100
77376,note_off,,,,,192,0,3,,,,,2,,,54,0
77376,note_on,,,,,96,0,1,,,,,0,,,76,100
77376,note_on,,,,,96,0,2,,,,,1,,,67,100
77376,note_off,,,,,192,0,4,,,,,3,,,50,0
77472,note_off,,,,,96,0,1,,,,,0,,,76,0
77472,note_off,,,,,96,0,2,,,,,1,,,67,0
77568,note_on,,,,,96,0,1,,,,,0,,,72,100
77568,note_off,,,,,192,0,3,,,,,2,,,55,0
77568,note_on,,,,,0,0,3,,,,,2,,,57,100
77568,note_on,,,,,96,0,2,,,,,1,,,72,100
77568,note_off,,,,,192,0,4,,,,,3,,,52,0
77568,note_on,,,,,0,0,4,,,,,3,,,54,100
77664,note_off,,,,,96,0,2,,,,,1,,,72,0
77664,note_off,,,,,96,0,1,,,,,0,,,72,0
77760,note_on,,,,,96,0,1,,,,,0,,,84,100
77760,note_on,,,,,96,0,2,,,,,1,,,60,100
77856,note_off,,,,,96,0,2,,,,,1,,,60,0
77856,note_off,,,,,96,0,1,,,,,0,,,84,0
77952,note_on,,,,,0,0,3,,,,,2,,,59,100
77952,note_off,,,,,384,0,3,,,,,2,,,57,0
77952,note_on,,,,,96,0,2,,,,,1,,,66,100
77952,note_on,,,,,0,0,4,,,,,3,,,55,100
77952,note_on,,,,,96,0,1,,,,,0,,,81,100
77952,note_off,,,,,384,0,4,,,,,3,,,54,0
78048,note_off,,,,,96,0,1,,,,,0,,,81,0
78048,note_off,,,,,96,0,2,,,,,1,,,66,0
78144,note_off,,,,,192,0,4,,,,,3,,,55,0
78144,note_on,,,,,96,0,1,,,,,0,,,78,100
78144,note_on,,,,,0,0,3,,,,,2,,,60,100
78144,note_on,,,,,96,0,2,,,,,1,,,69,100
78144,note_off,,,,,192,0,3,,,,,2,,,59,0
78144,note_on,,,,,0,0,4,,,,,3,,,57,100
78240,note_off,,,,,96,0,1,,,,,0,,,78,0
78240,note_off,,,,,96,0,2,,,,,1,,,69,0
78336,note_off,,,,,192,0,3,,,,,2,,,60,0
78336,note_off,,,,,192,0,4,,,,,3,,,57,0
78336,note_on,,,,,0,0,3,,,,,2,,,51,100
78336,note_on,,,,,0,0,4,,,,,3,,,47,100
78336,note_on,,,,,96,0,2,,,,,1,,,71,100
78336,note_on,,,,,96,0,1,,,,,0,,,71,100
78432,note_off,,,,,96,0,1,,,,,0,,,71,0
78432,note_off,,,,,96,0,2,,,,,1,,,71,0
78528,note_on,,,,,96,0,2,,,,,1,,,59,100
78528,note_on,,,,,96,0,1,,,,,0,,,83,100
78624,note_off,,,,,96,0,2,,,,,1,,,59,0
78624,note_off,,,,,96,0,1,,,,,0,,,83,0
78720,note_on,,,,,0,0,3,,,,,2,,,52,100
78720,note_on,,,,,96,0,1,,,,,0,,,78,100
78720,note_on,,,,,96,0,2,,,,,1,,,63,100
78720,note_off,,,,,384,0,3,,,,,2,,,51,0
78720,note_off,,,,,384,0,4,,,,,3,,,47,0
78720,note_on,,,,,0,0,4,,,,,3,,,49,100
78816,note_off,,,,,96,0,2,,,,,1,,,63,0
78816,note_off,,,,,96,0,1,,,,,0,,,78,0
78912,note_off,,,,,192,0,4,,,,,3,,,49,0
78912,note_on,,,,,0,0,3,,,,,2,,,54,100
78912,note_off,,,,,192,0,3,,,,,2,,,52,0
78912,note_on,,,,,96,0,2,,,,,1,,,66,100
78912,note_on,,,,,0,0,4,,,,,3,,,51,100
78912,note_on,,,,,96,0,1,,,,,0,,,75,100
79008,note_off,,,,,96,0,1,,,,,0,,,75,0
79008,note_off,,,,,96,0,2,,,,,1,,,66,0
79104,note_on,,,,,96,0,1,,,,,0,,,71,100
79104,note_on,,,,,96,0,2,,,,,1,,,71,100
79104,note_on,,,,,0,0,4,,,,,3,,,52,100
79104,note_off,,,,,192,0,4,,,,,3,,,51,0
79104,note_off,,,,,192,0,3,,,,,2,,,54,0
79104,note_on,,,,,0,0,3,,,,,2,,,55,100
79200,note_off,,,,,96,0,2,,,,,1,,,71,0
79200,note_off,,,,,96,0,1,,,,,0,,,71,0
79296,note_on,,,,,96,0,1,,,,,0,,,83,100
79296,note_on,,,,,96,0,2,,,,,1,,,59,100
79392,note_off,,,,,96,0,2,,,,,1,,,59,0
79392,note_off,,,,,96,0,1,,,,,0,,,83,0
79488,note_on,,,,,0,0,3,,,,,2,,,57,100
79488,note_off,,,,,384,0,3,,,,,2,,,55,0
79488,note_on,,,,,96,0,2,,,,,1,,,64,100
79488,note_on,,,,,0,0,4,,,,,3,,,54,100
79488,note_on,,,,,96,0,1,,,,,0,,,79,100
79488,note_off,,,,,384,0,4,,,,,3,,,52,0
79584,note_off,,,,,96,0,1,,,,,0,,,79,0
79584,note_off,,,,,96,0,2,,,,,1,,,64,0
79680,note_on,,,,,0,0,3,,,,,2,,,59,100
79680,note_on,,,,,96,0,1,,,,,0,,,76,100
79680,note_on,,,,,96,0,2,,,,,1,,,67,100
79680,note_on,,,,,0,0,4,,,,,3,,,55,100
79680,note_off,,,,,192,0,4,,,,,3,,,54,0
79680,note_off,,,,,192,0,3,,,,,2,,,57,0
79776,note_off,,,,,96,0,1,,,,,0,,,76,0
79776,note_off,,,,,96,0,2,,,,,1,,,67,0
79872,note_off,,,,,192,0,3,,,,,2,,,59,0
79872,note_on,,,,,96,0,2,,,,,1,,,70,100
79872,note_off,,,,,192,0,4,,,,,3,,,55,0
79872,note_on,,,,,0,0,4,,,,,3,,,42,100
79872,note_on,,,,,0,0,3,,,,,2,,,54,100
79872,note_on,,,,,96,0,1,,,,,0,,,70,100
79968,note_off,,,,,96,0,2,,,,,1,,,70,0
79968,note_off,,,,,96,0,3,,,,,2,,,54,0
80064,note_on,,,,,96,0,3,,,,,2,,,52,100
80064,note_off,,,,,192,0,4,,,,,3,,,42,0
80064,note_on,,,,,96,0,2,,,,,1,,,58,100
80160,note_off,,,,,96,0,2,,,,,1,,,58,0
80160,note_off,,,,,96,0,3,,,,,2,,,52,0
80256,note_on,,,,,96,0,2,,,,,1,,,61,100
80256,note_on,,,,,0,0,1,,,,,0,,,82,100
80256,note_off,,,,,384,0,1,,,,,0,,,70,0
80256,note_on,,,,,96,0,3,,,,,2,,,58,100
80256,note_on,,,,,192,0,4,,,,,3,,,54,100
80352,note_off,,,,,96,0,2,,,,,1,,,61,0
80352,note_off,,,,,96,0,3,,,,,2,,,58,0
80448,note_on,,,,,96,0,2,,,,,1,,,64,100
80448,note_on,,,,,96,0,3,,,,,2,,,61,100
80544,note_off,,,,,96,0,2,,,,,1,,,64,0
80544,note_off,,,,,96,0,3,,,,,2,,,61,0
80640,note_on,,,,,96,0,2,,,,,1,,,70,100
80640,note_on,,,,,96,0,3,,,,,2,,,64,100
80736,note_off,,,,,96,0,3,,,,,2,,,64,0
80736,note_off,,,,,96,0,2,,,,,1,,,70,0
80832,note_on,,,,,96,0,3,,,,,2,,,61,100
80832,note_on,,,,,96,0,2,,,,,1,,,58,100
80928,note_off,,,,,96,0,2,,,,,1,,,58,0
80928,note_off,,,,,96,0,3,,,,,2,,,61,0
81024,note_on,,,,,96,0,3,,,,,2,,,59,100
81024,note_on,,,,,96,0,2,,,,,1,,,61,100
81024,note_off,,,,,768,0,4,,,,,3,,,54,0
81024,note_off,,,,,768,0,1,,,,,0,,,82,0
81024,note_on,,,,,0,0,1,,,,,0,,,85,100
81024,note_on,,,,,0,0,4,,,,,3,,,55,100
81120,note_off,,,,,96,0,3,,,,,2,,,59,0
81120,note_off,,,,,96,0,2,,,,,1,,,61,0
81216,note_on,,,,,96,0,2,,,,,1,,,64,100
81216,note_on,,,,,96,0,3,,,,,2,,,61,100
81216,note_on,,,,,0,0,1,,,,,0,,,83,100
81216,note_off,,,,,192,0,1,,,,,0,,,85,0
81312,note_off,,,,,96,0,3,,,,,2,,,61,0
81312,note_off,,,,,96,0,2,,,,,1,,,64,0
81408,note_off,,,,,384,0,4,,,,,3,,,55,0
81408,note_on,,,,,96,0,3,,,,,2,,,64,100
81408,note_off,,,,,192,0,1,,,,,0,,,83,0
81408,note_on,,,,,96,0,2,,,,,1,,,70,100
81408,note_on,,,,,0,0,1,,,,,0,,,82,100
81408,note_on,,,,,0,0,4,,,,,3,,,54,100
81504,note_off,,,,,96,0,2,,,,,1,,,70,0
81504,note_off,,,,,96,0,3,,,,,2,,,64,0
81600,note_off,,,,,192,0,1,,,,,0,,,82,0
81600,note_off,,,,,192,0,4,,,,,3,,,54,0
81600,note_on,,,,,96,0,3,,,,,2,,,61,100
81600,note_on,,,,,96,0,2,,,,,1,,,58,100
81696,note_off,,,,,96,0,2,,,,,1,,,58,0
81696,note_off,,,,,96,0,3,,,,,2,,,61,0
81792,note_on,,,,,192,0,1,,,,,0,,,82,100
81792,note_on,,,,,192,0,4,,,,,3,,,42,100
81792,note_on,,,,,96,0,3,,,,,2,,,58,100
81792,note_on,,,,,96,0,2,,,,,1,,,61,100
81888,note_off,,,,,96,0,3,,,,,2,,,58,0
81888,note_off,,,,,96,0,2,,,,,1,,,61,0
81984,note_on,,,,,96,0,2,,,,,1,,,64,100
81984,note_on,,,,,96,0,3,,,,,2,,,61,100
82080,note_off,,,,,96,0,2,,,,,1,,,64,0
82080,note_off,,,,,96,0,3,,,,,2,,,61,0
82176,note_on,,,,,96,0,3,,,,,2,,,64,100
82176,note_on,,,,,96,0,2,,,,,1,,,70,100
82272,note_off,,,,,96,0,3,,,,,2,,,64,0
82272,note_off,,,,,96,0,2,,,,,1,,,70,0
82368,note_on,,,,,96,0,3,,,,,2,,,61,100
82368,note_on,,,,,96,0,2,,,,,1,,,58,100
82464,note_off,,,,,96,0,2,,,,,1,,,58,0
82464,note_off,,,,,96,0,3,,,,,2,,,61,0
82560,note_on,,,,,0,0,4,,,,,3,,,43,100
82560,note_off,,,,,768,0,4,,,,,3,,,42,0
82560,note_on,,,,,96,0,3,,,,,2,,,59,100
82560,note_on,,,,,96,0,2,,,,,1,,,61,100
82560,note_off,,,,,768,0,1,,,,,0,,,82,0
82560,note_on,,,,,0,0,1,,,,,0,,,85,100
82656,note_off,,,,,96,0,2,,,,,1,,,61,0
82752,note_off,,,,,192,0,3,,,,,2,,,59,0
82752,note_on,,,,,96,0,2,,,,,1,,,64,100
82752,note_off,,,,,192,0,1,,,,,0,,,85,0
82752,note_on,,,,,0,0,1,,,,,0,,,83,100
82752,note_on,,,,,0,0,3,,,,,2,,,61,100
82848,note_off,,,,,96,0,2,,,,,1,,,64,0
82944,note_off,,,,,384,0,4,,,,,3,,,43,0
82944,note_on,,,,,0,0,4,,,,,3,,,42,100
82944,note_on,,,,,0,0,3,,,,,2,,,64,100
82944,note_off,,,,,192,0,3,,,,,2,,,61,0
82944,note_on,,,,,96,0,2,,,,,1,,,70,100
82944,note_on,,,,,0,0,1,,,,,0,,,82,100
82944,note_off,,,,,192,0,1,,,,,0,,,83,0
83040,note_off,,,,,96,0,3,,,,,2,,,64,0
83040,note_off,,,,,96,0,2,,,,,1,,,70,0
83136,note_on,,,,,96,0,3,,,,,2,,,61,100
83136,note_on,,,,,96,0,2,,,,,1,,,58,100
83136,note_off,,,,,192,0,4,,,,,3,,,42,0
83136,note_off,,,,,192,0,1,,,,,0,,,82,0
83232,note_off,,,,,96,0,3,,,,,2,,,61,0
83232,note_off,,,,,96,0,2,,,,,1,,,58,0
83328,note_on,,,,,192,0,1,,,,,0,,,82,100
83328,note_on,,,,,96,0,2,,,,,1,,,61,100
83328,note_on,,,,,192,0,4,,,,,3,,,54,100
83328,note_on,,,,,96,0,3,,,,,2,,,58,100
83424,note_off,,,,,96,0,3,,,,,2,,,58,0
83424,note_off,,,,,96,0,2,,,,,1,,,61,0
83520,note_on,,,,,96,0,3,,,,,2,,,61,100
83520,note_on,,,,,96,0,2,,,,,1,,,64,100
83616,note_off,,,,,96,0,3,,,,,2,,,61,0
83616,note_off,,,,,96,0,2,,,,,1,,,64,0
83712,note_on,,,,,96,0,2,,,,,1,,,70,100
83712,note_on,,,,,96,0,3,,,,,2,,,64,100
83808,note_off,,,,,96,0,2,,,,,1,,,70,0
83808,note_off,,,,,96,0,3,,,,,2,,,64,0
83904,note_on,,,,,96,0,3,,,,,2,,,61,100
83904,note_on,,,,,96,0,2,,,,,1,,,61,100
84000,note_off,,,,,96,0,3,,,,,2,,,61,0
84000,note_off,,,,,96,0,2,,,,,1,,,61,0
84096,note_on,,,,,96,0,3,,,,,2,,,56,100
84096,note_on,,,,,0,0,4,,,,,3,,,53,100
84096,note_off,,,,,768,0,4,,,,,3,,,54,0
84096,note_on,,,,,0,0,1,,,,,0,,,83,100
84096,note_on,,,,,96,0,2,,,,,1,,,62,100
84096,note_off,,,,,768,0,1,,,,,0,,,82,0
84192,note_off,,,,,96,0,2,,,,,1,,,62,0
84288,note_off,,,,,192,0,1,,,,,0,,,83,0
84288,note_on,,,,,96,0,2,,,,,1,,,59,100
84288,note_on,,,,,0,0,1,,,,,0,,,80,100
84288,note_on,,,,,0,0,3,,,,,2,,,59,100
84288,note_off,,,,,192,0,3,,,,,2,,,56,0
84384,note_off,,,,,96,0,2,,,,,1,,,59,0
84480,note_on,,,,,0,0,3,,,,,2,,,54,100
84480,note_off,,,,,192,0,3,,,,,2,,,59,0
84480,note_on,,,,,0,0,1,,,,,0,,,78,100
84480,note_off,,,,,192,0,1,,,,,0,,,80,0
84480,note_off,,,,,384,0,4,,,,,3,,,53,0
84480,note_on,,,,,0,0,4,,,,,3,,,54,100
84480,note_on,,,,,96,0,2,,,,,1,,,63,100
84576,note_off,,,,,96,0,3,,,,,2,,,54,0
84576,note_off,,,,,96,0,2,,,,,1,,,63,0
84672,note_off,,,,,192,0,4,,,,,3,,,54,0
84672,note_on,,,,,96,0,3,,,,,2,,,63,100
84672,note_off,,,,,192,0,1,,,,,0,,,78,0
84672,note_on,,,,,96,0,2,,,,,1,,,59,100
84768,note_off,,,,,96,0,2,,,,,1,,,59,0
84768,note_off,,,,,96,0,3,,,,,2,,,63,0
84864,note_on,,,,,96,0,2,,,,,1,,,63,100
84864,note_on,,,,,96,0,3,,,,,2,,,59,100
84864,note_on,,,,,192,0,4,,,,,3,,,42,100
84864,note_on,,,,,192,0,1,,,,,0,,,75,100
84960,note_off,,,,,96,0,2,,,,,1,,,63,0
84960,note_off,,,,,96,0,3,,,,,2,,,59,0
85056,note_on,,,,,96,0,2,,,,,1,,,64,100
85056,note_on,,,,,96,0,3,,,,,2,,,61,100
85152,note_off,,,,,96,0,2,,,,,1,,,64,0
85152,note_off,,,,,96,0,3,,,,,2,,,61,0
85248,note_on,,,,,96,0,2,,,,,1,,,66,100
85248,note_on,,,,,96,0,3,,,,,2,,,63,100
85344,note_off,,,,,96,0,2,,,,,1,,,66,0
85344,note_off,,,,,96,0,3,,,,,2,,,63,0
85440,note_on,,,,,96,0,3,,,,,2,,,59,100
85440,note_on,,,,,96,0,2,,,,,1,,,63,100
85536,note_off,,,,,96,0,3,,,,,2,,,59,0
85536,note_off,,,,,96,0,2,,,,,1,,,63,0
85632,note_off,,,,,768,0,1,,,,,0,,,75,0
85632,note_on,,,,,0,0,1,,,,,0,,,76,100
85632,note_on,,,,,96,0,2,,,,,1,,,61,100
85632,note_on,,,,,96,0,3,,,,,2,,,58,100
85728,note_off,,,,,96,0,3,,,,,2,,,58,0
85728,note_off,,,,,96,0,2,,,,,1,,,61,0
85824,note_on,,,,,0,0,1,,,,,0,,,73,100
85824,note_off,,,,,192,0,1,,,,,0,,,76,0
85824,note_on,,,,,96,0,2,,,,,1,,,64,100
85824,note_on,,,,,96,0,3,,,,,2,,,66,100
85920,note_off,,,,,96,0,2,,,,,1,,,64,0
85920,note_off,,,,,96,0,3,,,,,2,,,66,0
86016,note_on,,,,,96,0,2,,,,,1,,,63,100
86016,note_off,,,,,192,0,1,,,,,0,,,73,0
86016,note_on,,,,,0,0,1,,,,,0,,,71,100
86016,note_on,,,,,96,0,3,,,,,2,,,59,100
86016,note_off,,,,,1152,0,4,,,,,3,,,42,0
86016,note_on,,,,,0,0,4,,,,,3,,,47,100
86112,note_off,,,,,96,0,4,,,,,3,,,47,0
86208,note_off,,,,,192,0,3,,,,,2,,,59,0
86208,note_on,,,,,96,0,4,,,,,3,,,42,100
86208,note_off,,,,,192,0,2,,,,,1,,,63,0
86208,note_off,,,,,192,0,1,,,,,0,,,71,0
86304,note_off,,,,,96,0,4,,,,,3,,,42,0
86400,note_on,,,,,192,0,1,,,,,0,,,78,100
86400,note_on,,,,,96,0,4,,,,,3,,,47,100
86400,note_on,,,,,192,0,3,,,,,2,,,75,100
86400,note_on,,,,,192,0,2,,,,,1,,,78,100
86496,note_off,,,,,96,0,4,,,,,3,,,47,0
86592,note_on,,,,,96,0,4,,,,,3,,,51,100
86688,note_off,,,,,96,0,4,,,,,3,,,51,0
86784,note_on,,,,,96,0,4,,,,,3,,,54,100
87168,note_on,,,,,0,0,3,,,,,2,,,73,100
87168,note_off,,,,,768,0,3,,,,,2,,,75,0
87168,note_on,,,,,0,0,2,,,,,1,,,76,100
87168,note_off,,,,,768,0,2,,,,,1,,,78,0
87360,note_on,,,,,0,0,2,,,,,1,,,75,100
87360,note_off,,,,,192,0,3,,,,,2,,,73,0
87360,note_on,,,,,0,0,3,,,,,2,,,72,100
87360,note_off,,,,,192,0,2,,,,,1,,,76,0
87552,note_off,,,,,192,0,2,,,,,1,,,75,0
87552,note_on,,,,,0,0,3,,,,,2,,,73,100
87552,note_on,,,,,0,0,2,,,,,1,,,76,100
87552,note_off,,,,,1152,0,1,,,,,0,,,78,0
87552,note_off,,,,,192,0,3,,,,,2,,,72,0
87744,note_off,,,,,192,0,3,,,,,2,,,73,0
87744,note_off,,,,,192,0,2,,,,,1,,,76,0
87744,note_on,,,,,192,0,1,,,,,0,,,78,100
87840,note_off,,,,,96,0,1,,,,,0,,,78,0
87936,note_on,,,,,192,0,2,,,,,1,,,76,100
87936,note_on,,,,,96,0,1,,,,,0,,,82,100
87936,note_on,,,,,192,0,3,,,,,2,,,73,100
88032,note_off,,,,,96,0,1,,,,,0,,,82,0
88128,note_on,,,,,96,0,1,,,,,0,,,85,100
88224,note_off,,,,,96,0,1,,,,,0,,,85,0
88320,note_on,,,,,96,0,1,,,,,0,,,90,100
88704,note_on,,,,,0,0,2,,,,,1,,,75,100
88704,note_off,,,,,768,0,2,,,,,1,,,76,0
88704,note_off,,,,,768,0,3,,,,,2,,,73,0
88704,note_on,,,,,0,0,3,,,,,2,,,71,100
88896,note_off,,,,,192,0,3,,,,,2,,,71,0
88896,note_on,,,,,0,0,2,,,,,1,,,73,100
88896,note_off,,,,,192,0,2,,,,,1,,,75,0
88896,note_on,,,,,0,0,3,,,,,2,,,70,100
89088,note_off,,,,,192,0,3,,,,,2,,,70,0
89088,note_on,,,,,0,0,4,,,,,3,,,47,100
89088,note_off,,,,,2304,0,4,,,,,3,,,54,0
89088,note_on,,,,,0,0,3,,,,,2,,,71,100
89088,note_on,,,,,0,0,2,,,,,1,,,75,100
89088,note_off,,,,,768,0,1,,,,,0,,,90,0
89088,note_off,,,,,192,0,2,,,,,1,,,73,0
89184,note_off,,,,,96,0,4,,,,,3,,,47,0
89280,note_on,,,,,96,0,4,,,,,3,,,42,100
89280,note_off,,,,,192,0,3,,,,,2,,,71,0
89280,note_off,,,,,192,0,2,,,,,1,,,75,0
89376,note_off,,,,,96,0,4,,,,,3,,,42,0
89472,note_on,,,,,192,0,2,,,,,1,,,78,100
89472,note_on,,,,,192,0,3,,,,,2,,,66,100
89472,note_on,,,,,96,0,4,,,,,3,,,47,100
89472,note_on,,,,,384,0,1,,,,,0,,,87,100
89568,note_off,,,,,96,0,4,,,,,3,,,47,0
89664,note_on,,,,,96,0,4,,,,,3,,,51,100
89760,note_off,,,,,96,0,4,,,,,3,,,51,0
89856,note_on,,,,,96,0,4,,,,,3,,,54,100
90240,note_off,,,,,768,0,1,,,,,0,,,87,0
90240,note_off,,,,,768,0,2,,,,,1,,,78,0
90240,note_on,,,,,0,0,2,,,,,1,,,76,100
90240,note_on,,,,,0,0,1,,,,,0,,,85,100
90432,note_on,,,,,0,0,2,,,,,1,,,75,100
90432,note_off,,,,,192,0,1,,,,,0,,,85,0
90432,note_on,,,,,0,0,1,,,,,0,,,83,100
90432,note_off,,,,,192,0,2,,,,,1,,,76,0
90624,note_on,,,,,0,0,2,,,,,1,,,76,100
90624,note_off,,,,,192,0,2,,,,,1,,,75,0
90624,note_off,,,,,192,0,1,,,,,0,,,83,0
90624,note_on,,,,,0,0,1,,,,,0,,,85,100
90624,note_off,,,,,1152,0,3,,,,,2,,,66,0
90816,note_off,,,,,192,0,2,,,,,1,,,76,0
90816,note_on,,,,,192,0,3,,,,,2,,,54,100
90816,note_off,,,,,192,0,1,,,,,0,,,85,0
90912,note_off,,,,,96,0,3,,,,,2,,,54,0
91008,note_on,,,,,192,0,1,,,,,0,,,85,100
91008,note_on,,,,,96,0,3,,,,,2,,,58,100
91008,note_on,,,,,192,0,2,,,,,1,,,76,100
91104,note_off,,,,,96,0,3,,,,,2,,,58,0
91200,note_on,,,,,96,0,3,,,,,2,,,61,100
91296,note_off,,,,,96,0,3,,,,,2,,,61,0
91392,note_on,,,,,96,0,3,,,,,2,,,66,100
91776,note_off,,,,,768,0,1,,,,,0,,,85,0
91776,note_on,,,,,0,0,1,,,,,0,,,83,100
91776,note_off,,,,,768,0,2,,,,,1,,,76,0
91776,note_on,,,,,0,0,2,,,,,1,,,75,100
91968,note_off,,,,,192,0,2,,,,,1,,,75,0
91968,note_off,,,,,192,0,1,,,,,0,,,83,0
91968,note_on,,,,,0,0,1,,,,,0,,,82,100
91968,note_on,,,,,0,0,2,,,,,1,,,73,100
92160,note_off,,,,,192,0,2,,,,,1,,,73,0
92160,note_off,,,,,2304,0,4,,,,,3,,,54,0
92160,note_on,,,,,0,0,4,,,,,3,,,47,100
92160,note_off,,,,,192,0,1,,,,,0,,,82,0
92160,note_on,,,,,0,0,1,,,,,0,,,83,100
92160,note_off,,,,,768,0,3,,,,,2,,,66,0
92160,note_on,,,,,0,0,2,,,,,1,,,75,100
92256,note_off,,,,,96,0,4,,,,,3,,,47,0
92352,note_off,,,,,192,0,2,,,,,1,,,75,0
92352,note_off,,,,,192,0,1,,,,,0,,,83,0
92352,note_on,,,,,96,0,4,,,,,3,,,42,100
92448,note_off,,,,,96,0,4,,,,,3,,,42,0
92544,note_on,,,,,192,0,2,,,,,1,,,78,100
92544,note_on,,,,,384,0,3,,,,,2,,,75,100
92544,note_on,,,,,192,0,1,,,,,0,,,78,100
92544,note_on,,,,,96,0,4,,,,,3,,,47,100
92640,note_off,,,,,96,0,4,,,,,3,,,47,0
92736,note_on,,,,,96,0,4,,,,,3,,,51,100
92832,note_off,,,,,96,0,4,,,,,3,,,51,0
92928,note_on,,,,,96,0,4,,,,,3,,,54,100
93312,note_on,,,,,0,0,3,,,,,2,,,73,100
93312,note_off,,,,,768,0,3,,,,,2,,,75,0
93312,note_off,,,,,768,0,2,,,,,1,,,78,0
93312,note_on,,,,,0,0,2,,,,,1,,,76,100
93504,note_off,,,,,192,0,3,,,,,2,,,73,0
93504,note_off,,,,,192,0,2,,,,,1,,,76,0
93504,note_on,,,,,0,0,2,,,,,1,,,75,100
93504,note_on,,,,,0,0,3,,,,,2,,,72,100
93696,note_off,,,,,192,0,3,,,,,2,,,72,0
93696,note_off,,,,,1152,0,1,,,,,0,,,78,0
93696,note_off,,,,,192,0,2,,,,,1,,,75,0
93696,note_on,,,,,0,0,2,,,,,1,,,76,100
93696,note_on,,,,,0,0,3,,,,,2,,,73,100
93888,note_off,,,,,192,0,2,,,,,1,,,76,0
93888,note_on,,,,,192,0,1,,,,,0,,,78,100
93888,note_off,,,,,192,0,3,,,,,2,,,73,0
93984,note_off,,,,,96,0,1,,,,,0,,,78,0
94080,note_on,,,,,96,0,1,,,,,0,,,82,100
94080,note_on,,,,,192,0,2,,,,,1,,,76,100
94080,note_on,,,,,192,0,3,,,,,2,,,73,100
94176,note_off,,,,,96,0,1,,,,,0,,,82,0
94272,note_on,,,,,96,0,1,,,,,0,,,85,100
94368,note_off,,,,,96,0,1,,,,,0,,,85,0
94464,note_on,,,,,96,0,1,,,,,0,,,90,100
94848,note_on,,,,,0,0,2,,,,,1,,,75,100
94848,note_off,,,,,768,0,3,,,,,2,,,73,0
94848,note_on,,,,,0,0,3,,,,,2,,,71,100
94848,note_off,,,,,768,0,2,,,,,1,,,76,0
95040,note_on,,,,,0,0,3,,,,,2,,,70,100
95040,note_off,,,,,192,0,3,,,,,2,,,71,0
95040,note_off,,,,,192,0,2,,,,,1,,,75,0
95040,note_on,,,,,0,0,2,,,,,1,,,73,100
95232,note_off,,,,,768,0,1,,,,,0,,,90,0
95232,note_on,,,,,0,0,3,,,,,2,,,71,100
95232,note_off,,,,,192,0,3,,,,,2,,,70,0
95232,note_off,,,,,192,0,2,,,,,1,,,73,0
95232,note_off,,,,,2304,0,4,,,,,3,,,54,0
95232,note_on,,,,,0,0,4,,,,,3,,,47,100
95232,note_on,,,,,0,0,2,,,,,1,,,75,100
95328,note_off,,,,,96,0,4,,,,,3,,,47,0
95424,note_off,,,,,192,0,2,,,,,1,,,75,0
95424,note_on,,,,,96,0,4,,,,,3,,,42,100
95424,note_off,,,,,192,0,3,,,,,2,,,71,0
95520,note_off,,,,,96,0,4,,,,,3,,,42,0
95616,note_on,,,,,192,0,2,,,,,1,,,78,100
95616,note_on,,,,,384,0,1,,,,,0,,,87,100
95616,note_on,,,,,96,0,4,,,,,3,,,47,100
95616,note_on,,,,,192,0,3,,,,,2,,,66,100
95712,note_off,,,,,96,0,4,,,,,3,,,47,0
95808,note_on,,,,,96,0,4,,,,,3,,,51,100
95904,note_off,,,,,96,0,4,,,,,3,,,51,0
96000,note_on,,,,,96,0,4,,,,,3,,,54,100
96384,note_off,,,,,768,0,1,,,,,0,,,87,0
96384,note_on,,,,,0,0,1,,,,,0,,,85,100
96384,note_on,,,,,0,0,2,,,,,1,,,76,100
96384,note_off,,,,,768,0,2,,,,,1,,,78,0
96576,note_off,,,,,192,0,2,,,,,1,,,76,0
96576,note_on,,,,,0,0,2,,,,,1,,,75,100
96576,note_on,,,,,0,0,1,,,,,0,,,84,100
96576,note_off,,,,,192,0,1,,,,,0,,,85,0
96768,note_off,,,,,192,0,2,,,,,1,,,75,0
96768,note_off,,,,,1152,0,3,,,,,2,,,66,0
96768,note_on,,,,,0,0,2,,,,,1,,,76,100
96768,note_off,,,,,192,0,1,,,,,0,,,84,0
96768,note_on,,,,,0,0,1,,,,,0,,,85,100
96960,note_off,,,,,192,0,2,,,,,1,,,76,0
96960,note_on,,,,,192,0,3,,,,,2,,,54,100
96960,note_off,,,,,192,0,1,,,,,0,,,85,0
97056,note_off,,,,,96,0,3,,,,,2,,,54,0
97152,note_on,,,,,192,0,2,,,,,1,,,76,100
97152,note_on,,,,,96,0,3,,,,,2,,,58,100
97152,note_on,,,,,192,0,1,,,,,0,,,85,100
97248,note_off,,,,,96,0,3,,,,,2,,,58,0
97344,note_on,,,,,96,0,3,,,,,2,,,61,100
97440,note_off,,,,,96,0,3,,,,,2,,,61,0
97536,note_on,,,,,96,0,3,,,,,2,,,66,100
97920,note_on,,,,,0,0,1,,,,,0,,,83,100
97920,note_off,,,,,768,0,2,,,,,1,,,76,0
97920,note_on,,,,,0,0,2,,,,,1,,,75,100
97920,note_off,,,,,768,0,1,,,,,0,,,85,0
98112,note_off,,,,,192,0,1,,,,,0,,,83,0
98112,note_off,,,,,192,0,2,,,,,1,,,75,0
98112,note_on,,,,,0,0,2,,,,,1,,,73,100
98112,note_on,,,,,0,0,1,,,,,0,,,82,100
98304,note_off,,,,,768,0,3,,,,,2,,,66,0
98304,note_on,,,,,0,0,3,,,,,2,,,59,100
98304,note_on,,,,,0,0,4,,,,,3,,,47,100
98304,note_off,,,,,2304,0,4,,,,,3,,,54,0
98304,note_off,,,,,192,0,2,,,,,1,,,73,0
98304,note_on,,,,,0,0,1,,,,,0,,,83,100
98304,note_off,,,,,192,0,1,,,,,0,,,82,0
98304,note_on,,,,,0,0,2,,,,,1,,,71,100
98400,note_off,,,,,96,0,1,,,,,0,,,83,0
98496,note_on,,,,,96,0,1,,,,,0,,,83,100
98592,note_off,,,,,96,0,1,,,,,0,,,83,0
98688,note_off,,,,,384,0,4,,,,,3,,,47,0
98688,note_on,,,,,96,0,1,,,,,0,,,87,100
98688,note_off,,,,,384,0,3,,,,,2,,,59,0
98688,note_off,,,,,384,0,2,,,,,1,,,71,0
98784,note_off,,,,,96,0,1,,,,,0,,,87,0
98880,note_on,,,,,96,0,1,,,,,0,,,90,100
98976,note_off,,,,,96,0,1,,,,,0,,,90,0
99072,note_on,,,,,0,0,2,,,,,1,,,71,100
99072,note_on,,,,,384,0,3,,,,,2,,,59,100
99072,note_on,,,,,384,0,4,,,,,3,,,51,100
99072,note_on,,,,,384,0,2,,,,,1,,,78,100
99072,note_on,,,,,96,0,1,,,,,0,,,95,100
99072,note_on,,,,,0,0,3,,,,,2,,,66,100
99168,note_off,,,,,96,0,1,,,,,0,,,95,0
99264,note_on,,,,,96,0,1,,,,,0,,,83,100
99360,note_off,,,,,96,0,1,,,,,0,,,83,0
99456,note_on,,,,,96,0,1,,,,,0,,,87,100
99456,note_off,,,,,384,0,4,,,,,3,,,51,0
99456,note_off,,,,,384,0,2,,,,,1,,,78,0
99456,note_off,,,,,0,0,2,,,,,1,,,71,0
99456,note_off,,,,,384,0,3,,,,,2,,,59,0
99456,note_off,,,,,0,0,3,,,,,2,,,66,0
99552,note_off,,,,,96,0,1,,,,,0,,,87,0
99648,note_on,,,,,96,0,1,,,,,0,,,90,100
99744,note_off,,,,,96,0,1,,,,,0,,,90,0
99840,note_on,,,,,0,0,3,,,,,2,,,59,100
99840,note_on,,,,,384,0,2,,,,,1,,,80,100
99840,note_on,,,,,0,0,2,,,,,1,,,71,100
99840,note_on,,,,,96,0,1,,,,,0,,,92,100
99840,note_on,,,,,384,0,4,,,,,3,,,52,100
99840,note_on,,,,,384,0,3,,,,,2,,,68,100
99936,note_off,,,,,96,0,1,,,,,0,,,92,0
100032,note_on,,,,,96,0,1,,,,,0,,,80,100
100128,note_off,,,,,96,0,1,,,,,0,,,80,0
100224,note_on,,,,,96,0,1,,,,,0,,,83,100
100224,note_off,,,,,0,0,2,,,,,1,,,71,0
100224,note_off,,,,,384,0,2,,,,,1,,,80,0
100224,note_off,,,,,384,0,3,,,,,2,,,68,0
100224,note_off,,,,,0,0,3,,,,,2,,,59,0
100224,note_off,,,,,384,0,4,,,,,3,,,52,0
100320,note_off,,,,,96,0,1,,,,,0,,,83,0
100416,note_on,,,,,96,0,1,,,,,0,,,88,100
100512,note_off,,,,,96,0,1,,,,,0,,,88,0
100608,note_on,,,,,0,0,3,,,,,2,,,64,100
100608,note_on,,,,,0,0,2,,,,,1,,,61,100
100608,note_on,,,,,384,0,3,,,,,2,,,61,100
100608,note_on,,,,,96,0,1,,,,,0,,,85,100
100608,note_on,,,,,384,0,4,,,,,3,,,54,100
100608,note_on,,,,,384,0,2,,,,,1,,,70,100
100704,note_off,,,,,96,0,1,,,,,0,,,85,0
100800,note_on,,,,,96,0,1,,,,,0,,,82,100
100896,note_off,,,,,96,0,1,,,,,0,,,82,0
100992,note_on,,,,,96,0,1,,,,,0,,,85,100
100992,note_off,,,,,384,0,2,,,,,1,,,70,0
100992,note_off,,,,,0,0,2,,,,,1,,,61,0
100992,note_off,,,,,384,0,3,,,,,2,,,61,0
100992,note_off,,,,,0,0,3,,,,,2,,,64,0
100992,note_off,,,,,384,0,4,,,,,3,,,54,0
101088,note_off,,,,,96,0,1,,,,,0,,,85,0
101184,note_on,,,,,96,0,1,,,,,0,,,90,100
101280,note_off,,,,,96,0,1,,,,,0,,,90,0
101376,note_on,,,,,384,0,4,,,,,3,,,59,100
101376,note_on,,,,,384,0,3,,,,,2,,,63,100
101376,note_on,,,,,0,0,2,,,,,1,,,71,100
101376,note_on,,,,,384,0,2,,,,,1,,,63,100
101376,note_on,,,,,96,0,1,,,,,0,,,87,100
101472,note_off,,,,,96,0,1,,,,,0,,,87,0
101568,note_on,,,,,96,0,1,,,,,0,,,83,100
101664,note_off,,,,,96,0,1,,,,,0,,,83,0
101760,note_on,,,,,96,0,1,,,,,0,,,87,100
101760,note_off,,,,,384,0,2,,,,,1,,,63,0
101760,note_off,,,,,0,0,2,,,,,1,,,71,0
101760,note_off,,,,,384,0,4,,,,,3,,,59,0
101760,note_off,,,,,384,0,3,,,,,2,,,63,0
101856,note_off,,,,,96,0,1,,,,,0,,,87,0
101952,note_on,,,,,96,0,1,,,,,0,,,90,100
102048,note_off,,,,,96,0,1,,,,,0,,,90,0
102144,note_on,,,,,384,0,3,,,,,2,,,59,100
102144,note_on,,,,,96,0,1,,,,,0,,,95,100
102144,note_on,,,,,384,0,2,,,,,1,,,78,100
102144,note_on,,,,,384,0,4,,,,,3,,,51,100
102144,note_on,,,,,0,0,3,,,,,2,,,66,100
102144,note_on,,,,,0,0,2,,,,,1,,,71,100
102240,note_off,,,,,0,0,2,,,,,1,,,71,0
102240,note_off,,,,,0,0,3,,,,,2,,,66,0
102240,note_off,,,,,96,0,2,,,,,1,,,78,0
102240,note_off,,,,,96,0,1,,,,,0,,,95,0
102240,note_off,,,,,96,0,3,,,,,2,,,59,0
102240,note_off,,,,,96,0,4,,,,,3,,,51,0
102336,note_on,,,,,0,0,2,,,,,1,,,71,100
102336,note_on,,,,,96,0,3,,,,,2,,,66,100
102336,note_on,,,,,0,0,3,,,,,2,,,59,100
102336,note_on,,,,,96,0,2,,,,,1,,,78,100
102336,note_on,,,,,96,0,1,,,,,0,,,83,100
102336,note_on,,,,,96,0,4,,,,,3,,,51,100
102432,note_off,,,,,96,0,3,,,,,2,,,66,0
102432,note_off,,,,,0,0,3,,,,,2,,,59,0
102432,note_off,,,,,96,0,2,,,,,1,,,78,0
102432,note_off,,,,,0,0,2,,,,,1,,,71,0
102432,note_off,,,,,96,0,1,,,,,0,,,83,0
102432,note_off,,,,,96,0,4,,,,,3,,,51,0
102528,note_on,,,,,96,0,1,,,,,0,,,87,100
102528,note_on,,,,,96,0,3,,,,,2,,,59,100
102528,note_on,,,,,96,0,4,,,,,3,,,51,100
102528,note_on,,,,,96,0,2,,,,,1,,,71,100
102528,note_on,,,,,0,0,2,,,,,1,,,78,100
102528,note_on,,,,,0,0,3,,,,,2,,,66,100
102624,note_off,,,,,96,0,3,,,,,2,,,59,0
102624,note_off,,,,,0,0,3,,,,,2,,,66,0
102624,note_off,,,,,0,0,2,,,,,1,,,78,0
102624,note_off,,,,,96,0,2,,,,,1,,,71,0
102624,note_off,,,,,96,0,1,,,,,0,,,87,0
102624,note_off,,,,,96,0,4,,,,,3,,,51,0
102720,note_on,,,,,96,0,1,,,,,0,,,90,100
102816,note_off,,,,,96,0,1,,,,,0,,,90,0
102912,note_on,,,,,288,0,4,,,,,3,,,52,100
102912,note_on,,,,,96,0,1,,,,,0,,,92,100
102912,note_on,,,,,288,0,2,,,,,1,,,80,100
102912,note_on,,,,,0,0,2,,,,,1,,,71,100
102912,note_on,,,,,288,0,3,,,,,2,,,59,100
102912,note_on,,,,,0,0,3,,,,,2,,,68,100
103008,note_off,,,,,96,0,1,,,,,0,,,92,0
103008,note_off,,,,,96,0,3,,,,,2,,,59,0
103008,note_off,,,,,0,0,3,,,,,2,,,68,0
103008,note_off,,,,,0,0,2,,,,,1,,,71,0
103008,note_off,,,,,96,0,2,,,,,1,,,80,0
103008,note_off,,,,,96,0,4,,,,,3,,,52,0
103104,note_on,,,,,96,0,2,,,,,1,,,80,100
103104,note_on,,,,,96,0,1,,,,,0,,,80,100
103104,note_on,,,,,96,0,4,,,,,3,,,52,100
103104,note_on,,,,,0,0,3,,,,,2,,,68,100
103104,note_on,,,,,96,0,3,,,,,2,,,59,100
103104,note_on,,,,,0,0,2,,,,,1,,,71,100
103200,note_off,,,,,96,0,1,,,,,0,,,80,0
103200,note_off,,,,,0,0,2,,,,,1,,,71,0
103200,note_off,,,,,96,0,4,,,,,3,,,52,0
103200,note_off,,,,,96,0,2,,,,,1,,,80,0
103200,note_off,,,,,96,0,3,,,,,2,,,59,0
103200,note_off,,,,,0,0,3,,,,,2,,,68,0
103296,note_on,,,,,96,0,1,,,,,0,,,83,100
103296,note_on,,,,,0,0,3,,,,,2,,,68,100
103296,note_on,,,,,96,0,2,,,,,1,,,80,100
103296,note_on,,,,,96,0,3,,,,,2,,,59,100
103296,note_on,,,,,0,0,2,,,,,1,,,71,100
103296,note_on,,,,,96,0,4,,,,,3,,,52,100
103392,note_off,,,,,0,0,2,,,,,1,,,71,0
103392,note_off,,,,,96,0,1,,,,,0,,,83,0
103392,note_off,,,,,0,0,3,,,,,2,,,68,0
103392,note_off,,,,,96,0,2,,,,,1,,,80,0
103392,note_off,,,,,96,0,4,,,,,3,,,52,0
103392,note_off,,,,,96,0,3,,,,,2,,,59,0
103488,note_on,,,,,96,0,1,,,,,0,,,88,100
103584,note_off,,,,,96,0,1,,,,,0,,,88,0
103680,note_on,,,,,96,0,1,,,,,0,,,85,100
103680,note_on,,,,,0,0,3,,,,,2,,,64,100
103680,note_on,,,,,288,0,3,,,,,2,,,61,100
103680,note_on,,,,,288,0,4,,,,,3,,,54,100
103680,note_on,,,,,288,0,2,,,,,1,,,61,100
103680,note_on,,,,,0,0,2,,,,,1,,,70,100
103776,note_off,,,,,96,0,4,,,,,3,,,54,0
103776,note_off,,,,,96,0,2,,,,,1,,,61,0
103776,note_off,,,,,0,0,2,,,,,1,,,70,0
103776,note_off,,,,,96,0,3,,,,,2,,,61,0
103776,note_off,,,,,0,0,3,,,,,2,,,64,0
103776,note_off,,,,,96,0,1,,,,,0,,,85,0
103872,note_on,,,,,96,0,4,,,,,3,,,54,100
103872,note_on,,,,,96,0,1,,,,,0,,,82,100
103872,note_on,,,,,96,0,3,,,,,2,,,61,100
103872,note_on,,,,,96,0,2,,,,,1,,,61,100
103872,note_on,,,,,0,0,2,,,,,1,,,70,100
103872,note_on,,,,,0,0,3,,,,,2,,,64,100
103968,note_off,,,,,0,0,3,,,,,2,,,64,0
103968,note_off,,,,,96,0,2,,,,,1,,,61,0
103968,note_off,,,,,96,0,4,,,,,3,,,54,0
103968,note_off,,,,,0,0,2,,,,,1,,,70,0
103968,note_off,,,,,96,0,1,,,,,0,,,82,0
103968,note_off,,,,,96,0,3,,,,,2,,,61,0
104064,note_on,,,,,96,0,3,,,,,2,,,61,100
104064,note_on,,,,,0,0,3,,,,,2,,,64,100
104064,note_on,,,,,96,0,2,,,,,1,,,61,100
104064,note_on,,,,,96,0,4,,,,,3,,,54,100
104064,note_on,,,,,0,0,2,,,,,1,,,70,100
104064,note_on,,,,,96,0,1,,,,,0,,,85,100
104160,note_off,,,,,96,0,4,,,,,3,,,54,0
104160,note_off,,,,,0,0,2,,,,,1,,,70,0
104160,note_off,,,,,0,0,3,,,,,2,,,64,0
104160,note_off,,,,,96,0,3,,,,,2,,,61,0
104160,note_off,,,,,96,0,1,,,,,0,,,85,0
104160,note_off,,,,,96,0,2,,,,,1,,,61,0
104256,note_on,,,,,96,0,1,,,,,0,,,90,100
104352,note_off,,,,,96,0,1,,,,,0,,,90,0
104448,note_on,,,,,96,0,1,,,,,0,,,85,100
104544,note_off,,,,,96,0,1,,,,,0,,,85,0
104640,note_on,,,,,96,0,1,,,,,0,,,82,100
104736,note_off,,,,,96,0,1,,,,,0,,,82,0
104832,note_on,,,,,96,0,1,,,,,0,,,85,100
104928,note_off,,,,,96,0,1,,,,,0,,,85,0
105024,note_on,,,,,96,0,1,,,,,0,,,90,100
105120,note_off,,,,,96,0,1,,,,,0,,,90,0
105216,note_on,,,,,96,0,1,,,,,0,,,85,100
105312,note_off,,,,,96,0,1,,,,,0,,,85,0
105408,note_on,,,,,96,0,1,,,,,0,,,82,100
105504,note_off,,,,,96,0,1,,,,,0,,,82,0
105600,note_on,,,,,96,0,1,,,,,0,,,85,100
105696,note_off,,,,,96,0,1,,,,,0,,,85,0
105792,note_on,,,,,96,0,1,,,,,0,,,90,100
105888,note_off,,,,,96,0,1,,,,,0,,,90,0
105984,note_on,,,,,96,0,1,,,,,0,,,85,100
106080,note_off,,,,,96,0,1,,,,,0,,,85,0
106176,note_on,,,,,96,0,1,,,,,0,,,82,100
106272,note_off,,,,,96,0,1,,,,,0,,,82,0
106368,note_on,,,,,96,0,1,,,,,0,,,85,100
106464,note_off,,,,,96,0,1,,,,,0,,,85,0
106560,note_on,,,,,96,0,1,,,,,0,,,90,100
106656,note_off,,,,,96,0,1,,,,,0,,,90,0
106752,note_on,,,,,96,0,1,,,,,0,,,85,100
106848,note_off,,,,,96,0,1,,,,,0,,,85,0
106944,note_on,,,,,96,0,1,,,,,0,,,82,100
107040,note_off,,,,,96,0,1,,,,,0,,,82,0
107136,note_on,,,,,96,0,1,,,,,0,,,85,100
107232,note_off,,,,,96,0,1,,,,,0,,,85,0
107328,note_on,,,,,96,0,1,,,,,0,,,90,100
107424,note_off,,,,,96,0,1,,,,,0,,,90,0
107520,note_on,,,,,96,0,1,,,,,0,,,85,100
107616,note_off,,,,,96,0,1,,,,,0,,,85,0
107712,note_on,,,,,96,0,1,,,,,0,,,82,100
107808,note_off,,,,,96,0,1,,,,,0,,,82,0
107904,note_on,,,,,96,0,1,,,,,0,,,85,100
107904,note_on,,,,,3744,0,4,,,,,3,,,61,100
107904,note_on,,,,,3744,0,3,,,,,2,,,64,100
108000,note_off,,,,,96,0,1,,,,,0,,,85,0
108096,note_on,,,,,96,0,1,,,,,0,,,90,100
108192,note_off,,,,,96,0,1,,,,,0,,,90,0
108288,note_on,,,,,96,0,1,,,,,0,,,85,100
108384,note_off,,,,,96,0,1,,,,,0,,,85,0
108480,note_off,,,,,576,0,3,,,,,2,,,64,0
108480,note_on,,,,,0,0,3,,,,,2,,,63,100
108480,note_off,,,,,576,0,4,,,,,3,,,61,0
108480,note_on,,,,,0,0,4,,,,,3,,,59,100
108480,note_on,,,,,96,0,1,,,,,0,,,78,100
108576,note_off,,,,,96,0,1,,,,,0,,,78,0
108672,note_on,,,,,96,0,1,,,,,0,,,85,100
108672,note_off,,,,,192,0,3,,,,,2,,,63,0
108672,note_on,,,,,0,0,3,,,,,2,,,61,100
108672,note_on,,,,,0,0,4,,,,,3,,,54,100
108672,note_off,,,,,192,0,4,,,,,3,,,59,0
108768,note_off,,,,,96,0,1,,,,,0,,,85,0
108864,note_off,,,,,192,0,3,,,,,2,,,61,0
108864,note_on,,,,,0,0,3,,,,,2,,,63,100
108864,note_on,,,,,0,0,4,,,,,3,,,59,100
108864,note_off,,,,,192,0,4,,,,,3,,,54,0
108864,note_on,,,,,96,0,1,,,,,0,,,90,100
108960,note_off,,,,,96,0,1,,,,,0,,,90,0
109056,note_off,,,,,192,0,4,,,,,3,,,59,0
109056,note_on,,,,,96,0,1,,,,,0,,,85,100
109056,note_off,,,,,192,0,3,,,,,2,,,63,0
109056,note_on,,,,,0,0,3,,,,,2,,,64,100
109056,note_on,,,,,0,0,4,,,,,3,,,61,100
109152,note_off,,,,,96,0,1,,,,,0,,,85,0
109248,note_on,,,,,96,0,1,,,,,0,,,82,100
109344,note_off,,,,,96,0,1,,,,,0,,,82,0
109440,note_on,,,,,96,0,1,,,,,0,,,85,100
109440,note_off,,,,,384,0,4,,,,,3,,,61,0
109440,note_on,,,,,0,0,3,,,,,2,,,73,100
109440,note_off,,,,,384,0,3,,,,,2,,,64,0
109440,note_on,,,,,5280,0,2,,,,,1,,,76,100
109536,note_off,,,,,96,0,1,,,,,0,,,85,0
109632,note_on,,,,,96,0,1,,,,,0,,,90,100
109728,note_off,,,,,96,0,1,,,,,0,,,90,0
109824,note_on,,,,,96,0,1,,,,,0,,,85,100
109920,note_off,,,,,96,0,1,,,,,0,,,85,0
110016,note_on,,,,,0,0,2,,,,,1,,,75,100
110016,note_on,,,,,0,0,3,,,,,2,,,71,100
110016,note_on,,,,,96,0,1,,,,,0,,,78,100
110016,note_off,,,,,576,0,2,,,,,1,,,76,0
110016,note_off,,,,,576,0,3,,,,,2,,,73,0
110112,note_off,,,,,96,0,1,,,,,0,,,78,0
110208,note_on,,,,,96,0,1,,,,,0,,,85,100
110208,note_off,,,,,192,0,2,,,,,1,,,75,0
110208,note_on,,,,,0,0,2,,,,,1,,,73,100
110208,note_off,,,,,192,0,3,,,,,2,,,71,0
110208,note_on,,,,,0,0,3,,,,,2,,,66,100
110304,note_off,,,,,96,0,1,,,,,0,,,85,0
110400,note_off,,,,,192,0,2,,,,,1,,,73,0
110400,note_off,,,,,192,0,3,,,,,2,,,66,0
110400,note_on,,,,,0,0,3,,,,,2,,,71,100
110400,note_on,,,,,0,0,2,,,,,1,,,75,100
110400,note_on,,,,,96,0,1,,,,,0,,,90,100
110496,note_off,,,,,96,0,1,,,,,0,,,90,0
110592,note_off,,,,,192,0,2,,,,,1,,,75,0
110592,note_on,,,,,0,0,3,,,,,2,,,73,100
110592,note_off,,,,,192,0,3,,,,,2,,,71,0
110592,note_on,,,,,96,0,1,,,,,0,,,85,100
110592,note_on,,,,,0,0,2,,,,,1,,,76,100
110688,note_off,,,,,96,0,1,,,,,0,,,85,0
110784,note_on,,,,,96,0,1,,,,,0,,,82,100
110880,note_off,,,,,96,0,1,,,,,0,,,82,0
110976,note_on,,,,,96,0,1,,,,,0,,,85,100
111072,note_off,,,,,96,0,1,,,,,0,,,85,0
111168,note_on,,,,,96,0,1,,,,,0,,,90,100
111264,note_off,,,,,96,0,1,,,,,0,,,90,0
111360,note_on,,,,,1920,0,4,,,,,3,,,64,100
111360,note_off,,,,,768,0,2,,,,,1,,,76,0
111360,note_on,,,,,96,0,1,,,,,0,,,85,100
111360,note_on,,,,,0,0,2,,,,,1,,,70,100
111456,note_off,,,,,96,0,1,,,,,0,,,85,0
111552,note_on,,,,,96,0,1,,,,,0,,,82,100
111648,note_off,,,,,96,0,1,,,,,0,,,82,0
111744,note_on,,,,,96,0,1,,,,,0,,,85,100
111840,note_off,,,,,96,0,1,,,,,0,,,85,0
111936,note_on,,,,,96,0,1,,,,,0,,,90,100
112032,note_off,,,,,96,0,1,,,,,0,,,90,0
112128,note_on,,,,,0,0,2,,,,,1,,,71,100
112128,note_off,,,,,768,0,4,,,,,3,,,64,0
112128,note_on,,,,,0,0,4,,,,,3,,,63,100
112128,note_off,,,,,768,0,2,,,,,1,,,70,0
112128,note_on,,,,,96,0,1,,,,,0,,,87,100
112128,note_on,,,,,0,0,3,,,,,2,,,71,100
112128,note_off,,,,,1536,0,3,,,,,2,,,73,0
112224,note_off,,,,,96,0,1,,,,,0,,,87,0
112320,note_on,,,,,96,0,1,,,,,0,,,83,100
112416,note_off,,,,,96,0,1,,,,,0,,,83,0
112512,note_on,,,,,96,0,1,,,,,0,,,87,100
112608,note_off,,,,,96,0,1,,,,,0,,,87,0
112704,note_on,,,,,96,0,1,,,,,0,,,90,100
112800,note_off,,,,,96,0,1,,,,,0,,,90,0
112896,note_off,,,,,768,0,2,,,,,1,,,71,0
112896,note_off,,,,,768,0,4,,,,,3,,,63,0
112896,note_on,,,,,0,0,4,,,,,3,,,66,100
112896,note_off,,,,,768,0,3,,,,,2,,,71,0
112896,note_on,,,,,96,0,1,,,,,0,,,88,100
112896,note_on,,,,,0,0,3,,,,,2,,,64,100
112896,note_on,,,,,0,0,2,,,,,1,,,70,100
112992,note_off,,,,,96,0,1,,,,,0,,,88,0
113088,note_on,,,,,96,0,1,,,,,0,,,85,100
113184,note_off,,,,,96,0,1,,,,,0,,,85,0
113280,note_on,,,,,96,0,1,,,,,0,,,88,100
113376,note_off,,,,,96,0,1,,,,,0,,,88,0
113472,note_on,,,,,96,0,1,,,,,0,,,90,100
113568,note_off,,,,,96,0,1,,,,,0,,,90,0
113664,note_on,,,,,96,0,1,,,,,0,,,83,100
113664,note_on,,,,,0,0,2,,,,,1,,,71,100
113664,note_on,,,,,0,0,3,,,,,2,,,63,100
113664,note_off,,,,,768,0,3,,,,,2,,,64,0
113664,note_off,,,,,768,0,4,,,,,3,,,66,0
113664,note_on,,,,,0,0,4,,,,,3,,,59,100
113664,note_off,,,,,768,0,2,,,,,1,,,70,0
113760,note_off,,,,,96,0,3,,,,,2,,,63,0
113760,note_off,,,,,96,0,2,,,,,1,,,71,0
113856,note_on,,,,,96,0,3,,,,,2,,,59,100
113856,note_off,,,,,192,0,4,,,,,3,,,59,0
113856,note_off,,,,,192,0,1,,,,,0,,,83,0
113856,note_on,,,,,96,0,2,,,,,1,,,63,100
113952,note_off,,,,,96,0,3,,,,,2,,,59,0
113952,note_off,,,,,96,0,2,,,,,1,,,63,0
114048,note_on,,,,,96,0,2,,,,,1,,,66,100
114048,note_on,,,,,192,0,1,,,,,0,,,87,100
114048,note_on,,,,,96,0,3,,,,,2,,,63,100
114048,note_on,,,,,192,0,4,,,,,3,,,47,100
114144,note_off,,,,,96,0,2,,,,,1,,,66,0
114144,note_off,,,,,96,0,3,,,,,2,,,63,0
114240,note_on,,,,,96,0,3,,,,,2,,,66,100
114240,note_on,,,,,96,0,2,,,,,1,,,71,100
114336,note_off,,,,,96,0,2,,,,,1,,,71,0
114336,note_off,,,,,96,0,3,,,,,2,,,66,0
114432,note_on,,,,,96,0,2,,,,,1,,,66,100
114432,note_on,,,,,96,0,3,,,,,2,,,63,100
114528,note_off,,,,,96,0,3,,,,,2,,,63,0
114528,note_off,,,,,96,0,2,,,,,1,,,66,0
114624,note_on,,,,,96,0,3,,,,,2,,,59,100
114624,note_on,,,,,0,0,1,,,,,0,,,83,100
114624,note_off,,,,,576,0,1,,,,,0,,,87,0
114624,note_on,,,,,96,0,2,,,,,1,,,63,100
114720,note_off,,,,,96,0,2,,,,,1,,,63,0
114720,note_off,,,,,96,0,3,,,,,2,,,59,0
114816,note_on,,,,,96,0,2,,,,,1,,,66,100
114816,note_on,,,,,0,0,4,,,,,3,,,51,100
114816,note_on,,,,,0,0,1,,,,,0,,,75,100
114816,note_on,,,,,96,0,3,,,,,2,,,63,100
114816,note_off,,,,,768,0,4,,,,,3,,,47,0
114816,note_off,,,,,192,0,1,,,,,0,,,83,0
114912,note_off,,,,,96,0,3,,,,,2,,,63,0
114912,note_off,,,,,96,0,2,,,,,1,,,66,0
115008,note_off,,,,,192,0,1,,,,,0,,,75,0
115008,note_on,,,,,0,0,1,,,,,0,,,76,100
115008,note_on,,,,,96,0,3,,,,,2,,,66,100
115008,note_on,,,,,96,0,2,,,,,1,,,71,100
115104,note_off,,,,,96,0,3,,,,,2,,,66,0
115104,note_off,,,,,96,0,2,,,,,1,,,71,0
115200,note_off,,,,,192,0,1,,,,,0,,,76,0
115200,note_on,,,,,96,0,3,,,,,2,,,64,100
115200,note_on,,,,,0,0,4,,,,,3,,,42,100
115200,note_on,,,,,0,0,1,,,,,0,,,78,100
115200,note_off,,,,,384,0,4,,,,,3,,,51,0
115200,note_on,,,,,96,0,2,,,,,1,,,66,100
115296,note_off,,,,,96,0,3,,,,,2,,,64,0
115296,note_off,,,,,96,0,2,,,,,1,,,66,0
115392,note_off,,,,,192,0,4,,,,,3,,,42,0
115392,note_off,,,,,192,0,1,,,,,0,,,78,0
115392,note_on,,,,,96,0,3,,,,,2,,,61,100
115392,note_on,,,,,96,0,2,,,,,1,,,64,100
115488,note_off,,,,,96,0,3,,,,,2,,,61,0
115488,note_off,,,,,96,0,2,,,,,1,,,64,0
115584,note_on,,,,,192,0,1,,,,,0,,,90,100
115584,note_on,,,,,96,0,3,,,,,2,,,64,100
115584,note_on,,,,,96,0,2,,,,,1,,,66,100
115584,note_on,,,,,192,0,4,,,,,3,,,58,100
115680,note_off,,,,,96,0,3,,,,,2,,,64,0
115680,note_off,,,,,96,0,2,,,,,1,,,66,0
115776,note_on,,,,,0,0,4,,,,,3,,,61,100
115776,note_on,,,,,96,0,2,,,,,1,,,70,100
115776,note_on,,,,,96,0,3,,,,,2,,,66,100
115776,note_off,,,,,192,0,4,,,,,3,,,58,0
115872,note_off,,,,,96,0,2,,,,,1,,,70,0
115872,note_off,,,,,96,0,3,,,,,2,,,66,0
115968,note_on,,,,,96,0,3,,,,,2,,,64,100
115968,note_off,,,,,192,0,4,,,,,3,,,61,0
115968,note_on,,,,,0,0,4,,,,,3,,,64,100
115968,note_on,,,,,96,0,2,,,,,1,,,66,100
116064,note_off,,,,,96,0,3,,,,,2,,,64,0
116064,note_off,,,,,96,0,2,,,,,1,,,66,0
116160,note_on,,,,,96,0,2,,,,,1,,,64,100
116160,note_on,,,,,96,0,3,,,,,2,,,61,100
116256,note_off,,,,,96,0,3,,,,,2,,,61,0
116256,note_off,,,,,96,0,2,,,,,1,,,64,0
116352,note_off,,,,,768,0,1,,,,,0,,,90,0
116352,note_on,,,,,0,0,4,,,,,3,,,54,100
116352,note_off,,,,,384,0,4,,,,,3,,,64,0
116352,note_on,,,,,0,0,1,,,,,0,,,82,100
116352,note_on,,,,,96,0,2,,,,,1,,,66,100
116352,note_on,,,,,96,0,3,,,,,2,,,64,100
116448,note_off,,,,,96,0,2,,,,,1,,,66,0
116448,note_off,,,,,96,0,3,,,,,2,,,64,0
116544,note_off,,,,,192,0,4,,,,,3,,,54,0
116544,note_on,,,,,96,0,3,,,,,2,,,66,100
116544,note_on,,,,,96,0,2,,,,,1,,,70,100
116640,note_off,,,,,96,0,2,,,,,1,,,70,0
116640,note_off,,,,,96,0,3,,,,,2,,,66,0
116736,note_on,,,,,96,0,3,,,,,2,,,63,100
116736,note_off,,,,,384,0,1,,,,,0,,,82,0
116736,note_on,,,,,96,0,2,,,,,1,,,66,100
116736,note_on,,,,,192,0,4,,,,,3,,,59,100
116736,note_on,,,,,0,0,1,,,,,0,,,83,100
116832,note_off,,,,,96,0,2,,,,,1,,,66,0
116832,note_off,,,,,96,0,3,,,,,2,,,63,0
116928,note_on,,,,,96,0,2,,,,,1,,,63,100
116928,note_off,,,,,192,0,1,,,,,0,,,83,0
116928,note_off,,,,,192,0,4,,,,,3,,,59,0
116928,note_on,,,,,96,0,3,,,,,2,,,59,100
117024,note_off,,,,,96,0,3,,,,,2,,,59,0
117024,note_off,,,,,96,0,2,,,,,1,,,63,0
117120,note_on,,,,,96,0,3,,,,,2,,,63,100
117120,note_on,,,,,96,0,2,,,,,1,,,66,100
117120,note_on,,,,,192,0,4,,,,,3,,,47,100
117120,note_on,,,,,192,0,1,,,,,0,,,87,100
117216,note_off,,,,,96,0,3,,,,,2,,,63,0
117216,note_off,,,,,96,0,2,,,,,1,,,66,0
117312,note_on,,,,,96,0,3,,,,,2,,,66,100
117312,note_on,,,,,96,0,2,,,,,1,,,71,100
117408,note_off,,,,,96,0,3,,,,,2,,,66,0
117408,note_off,,,,,96,0,2,,,,,1,,,71,0
117504,note_on,,,,,96,0,3,,,,,2,,,63,100
117504,note_on,,,,,96,0,2,,,,,1,,,66,100
117600,note_off,,,,,96,0,3,,,,,2,,,63,0
117600,note_off,,,,,96,0,2,,,,,1,,,66,0
117696,note_on,,,,,96,0,2,,,,,1,,,63,100
117696,note_off,,,,,576,0,1,,,,,0,,,87,0
117696,note_on,,,,,0,0,1,,,,,0,,,83,100
117696,note_on,,,,,96,0,3,,,,,2,,,59,100
117792,note_off,,,,,96,0,3,,,,,2,,,59,0
117792,note_off,,,,,96,0,2,,,,,1,,,63,0
117888,note_on,,,,,96,0,3,,,,,2,,,63,100
117888,note_on,,,,,0,0,4,,,,,3,,,51,100
117888,note_off,,,,,768,0,4,,,,,3,,,47,0
117888,note_on,,,,,96,0,2,,,,,1,,,66,100
117888,note_on,,,,,0,0,1,,,,,0,,,75,100
117888,note_off,,,,,192,0,1,,,,,0,,,83,0
117984,note_off,,,,,96,0,3,,,,,2,,,63,0
117984,note_off,,,,,96,0,2,,,,,1,,,66,0
118080,note_off,,,,,192,0,1,,,,,0,,,75,0
118080,note_on,,,,,0,0,1,,,,,0,,,76,100
118080,note_on,,,,,96,0,3,,,,,2,,,66,100
118080,note_on,,,,,96,0,2,,,,,1,,,71,100
118176,note_off,,,,,96,0,3,,,,,2,,,66,0
118176,note_off,,,,,96,0,2,,,,,1,,,71,0
118272,note_on,,,,,0,0,4,,,,,3,,,42,100
118272,note_off,,,,,384,0,4,,,,,3,,,51,0
118272,note_on,,,,,96,0,3,,,,,2,,,64,100
118272,note_on,,,,,0,0,1,,,,,0,,,78,100
118272,note_off,,,,,192,0,1,,,,,0,,,76,0
118272,note_on,,,,,96,0,2,,,,,1,,,66,100
118368,note_off,,,,,96,0,3,,,,,2,,,64,0
118368,note_off,,,,,96,0,2,,,,,1,,,66,0
118464,note_on,,,,,96,0,2,,,,,1,,,64,100
118464,note_off,,,,,192,0,4,,,,,3,,,42,0
118464,note_off,,,,,192,0,1,,,,,0,,,78,0
118464,note_on,,,,,96,0,3,,,,,2,,,61,100
118560,note_off,,,,,96,0,3,,,,,2,,,61,0
118560,note_off,,,,,96,0,2,,,,,1,,,64,0
118656,note_on,,,,,192,0,1,,,,,0,,,90,100
118656,note_on,,,,,192,0,4,,,,,3,,,58,100
118656,note_on,,,,,96,0,2,,,,,1,,,66,100
118656,note_on,,,,,96,0,3,,,,,2,,,64,100
118752,note_off,,,,,96,0,2,,,,,1,,,66,0
118752,note_off,,,,,96,0,3,,,,,2,,,64,0
118848,note_on,,,,,96,0,3,,,,,2,,,66,100
118848,note_on,,,,,0,0,4,,,,,3,,,61,100
118848,note_off,,,,,192,0,4,,,,,3,,,58,0
118848,note_on,,,,,96,0,2,,,,,1,,,70,100
118944,note_off,,,,,96,0,2,,,,,1,,,70,0
118944,note_off,,,,,96,0,3,,,,,2,,,66,0
119040,note_on,,,,,0,0,4,,,,,3,,,64,100
119040,note_on,,,,,96,0,3,,,,,2,,,64,100
119040,note_on,,,,,96,0,2,,,,,1,,,66,100
119040,note_off,,,,,192,0,4,,,,,3,,,61,0
119136,note_off,,,,,96,0,2,,,,,1,,,66,0
119136,note_off,,,,,96,0,3,,,,,2,,,64,0
119232,note_on,,,,,96,0,2,,,,,1,,,64,100
119232,note_on,,,,,96,0,3,,,,,2,,,61,100
119328,note_off,,,,,96,0,3,,,,,2,,,61,0
119328,note_off,,,,,96,0,2,,,,,1,,,64,0
119424,note_on,,,,,0,0,1,,,,,0,,,82,100
119424,note_off,,,,,384,0,4,,,,,3,,,64,0
119424,note_on,,,,,0,0,4,,,,,3,,,54,100
119424,note_on,,,,,96,0,3,,,,,2,,,64,100
119424,note_on,,,,,96,0,2,,,,,1,,,66,100
119424,note_off,,,,,768,0,1,,,,,0,,,90,0
119520,note_off,,,,,96,0,3,,,,,2,,,64,0
119520,note_off,,,,,96,0,2,,,,,1,,,66,0
119616,note_off,,,,,192,0,4,,,,,3,,,54,0
119616,note_on,,,,,96,0,2,,,,,1,,,70,100
119616,note_on,,,,,96,0,3,,,,,2,,,66,100
119712,note_off,,,,,96,0,2,,,,,1,,,70,0
119712,note_off,,,,,96,0,3,,,,,2,,,66,0
119808,note_on,,,,,96,0,2,,,,,1,,,66,100
119808,note_on,,,,,96,0,3,,,,,2,,,64,100
119808,note_off,,,,,384,0,1,,,,,0,,,82,0
119904,note_off,,,,,96,0,3,,,,,2,,,64,0
119904,note_off,,,,,96,0,2,,,,,1,,,66,0
120000,note_on,,,,,96,0,2,,,,,1,,,64,100
120000,note_on,,,,,96,0,3,,,,,2,,,61,100
120096,note_off,,,,,96,0,2,,,,,1,,,64,0
120096,note_off,,,,,96,0,3,,,,,2,,,61,0
120192,note_on,,,,,96,0,3,,,,,2,,,64,100
120192,note_on,,,,,576,0,4,,,,,3,,,58,100
120192,note_on,,,,,384,0,1,,,,,0,,,90,100
120192,note_on,,,,,96,0,2,,,,,1,,,66,100
120288,note_off,,,,,96,0,3,,,,,2,,,64,0
120288,note_off,,,,,96,0,2,,,,,1,,,66,0
120384,note_off,,,,,192,0,4,,,,,3,,,58,0
120384,note_on,,,,,96,0,2,,,,,1,,,70,100
120384,note_on,,,,,96,0,3,,,,,2,,,66,100
120384,note_on,,,,,0,0,4,,,,,3,,,61,100
120480,note_off,,,,,96,0,2,,,,,1,,,70,0
120480,note_off,,,,,96,0,3,,,,,2,,,66,0
120576,note_on,,,,,0,0,4,,,,,3,,,64,100
120576,note_on,,,,,96,0,2,,,,,1,,,66,100
120576,note_on,,,,,96,0,3,,,,,2,,,64,100
120576,note_off,,,,,192,0,4,,,,,3,,,61,0
120672,note_off,,,,,96,0,2,,,,,1,,,66,0
120672,note_off,,,,,96,0,3,,,,,2,,,64,0
120768,note_on,,,,,96,0,3,,,,,2,,,61,100
120768,note_on,,,,,96,0,2,,,,,1,,,64,100
120864,note_off,,,,,96,0,3,,,,,2,,,61,0
120864,note_off,,,,,96,0,2,,,,,1,,,64,0
120960,note_on,,,,,0,0,1,,,,,0,,,82,100
120960,note_on,,,,,96,0,2,,,,,1,,,66,100
120960,note_off,,,,,384,0,4,,,,,3,,,64,0
120960,note_on,,,,,0,0,4,,,,,3,,,54,100
120960,note_off,,,,,768,0,1,,,,,0,,,90,0
120960,note_on,,,,,96,0,3,,,,,2,,,64,100
121056,note_off,,,,,96,0,2,,,,,1,,,66,0
121056,note_off,,,,,96,0,3,,,,,2,,,64,0
121152,note_off,,,,,192,0,4,,,,,3,,,54,0
121152,note_on,,,,,96,0,3,,,,,2,,,66,100
121152,note_on,,,,,96,0,2,,,,,1,,,70,100
121248,note_off,,,,,96,0,2,,,,,1,,,70,0
121248,note_off,,,,,96,0,3,,,,,2,,,66,0
121344,note_on,,,,,96,0,2,,,,,1,,,66,100
121344,note_off,,,,,384,0,1,,,,,0,,,82,0
121344,note_on,,,,,96,0,3,,,,,2,,,64,100
121440,note_off,,,,,96,0,3,,,,,2,,,64,0
121440,note_off,,,,,96,0,2,,,,,1,,,66,0
121536,note_on,,,,,96,0,2,,,,,1,,,64,100
121536,note_on,,,,,96,0,3,,,,,2,,,61,100
121632,note_off,,,,,96,0,2,,,,,1,,,64,0
121632,note_off,,,,,96,0,3,,,,,2,,,61,0
121728,note_on,,,,,384,0,1,,,,,0,,,90,100
121728,note_on,,,,,96,0,3,,,,,2,,,64,100
121728,note_on,,,,,576,0,4,,,,,3,,,58,100
121728,note_on,,,,,96,0,2,,,,,1,,,66,100
121824,note_off,,,,,96,0,3,,,,,2,,,64,0
121824,note_off,,,,,96,0,2,,,,,1,,,66,0
121920,note_off,,,,,192,0,4,,,,,3,,,58,0
121920,note_on,,,,,96,0,2,,,,,1,,,70,100
121920,note_on,,,,,96,0,3,,,,,2,,,66,100
121920,note_on,,,,,0,0,4,,,,,3,,,61,100
122016,note_off,,,,,96,0,3,,,,,2,,,66,0
122016,note_off,,,,,96,0,2,,,,,1,,,70,0
122112,note_on,,,,,96,0,2,,,,,1,,,66,100
122112,note_on,,,,,96,0,3,,,,,2,,,64,100
122112,note_off,,,,,192,0,4,,,,,3,,,61,0
122112,note_on,,,,,0,0,4,,,,,3,,,64,100
122208,note_off,,,,,96,0,3,,,,,2,,,64,0
122208,note_off,,,,,96,0,2,,,,,1,,,66,0
122304,note_on,,,,,96,0,3,,,,,2,,,61,100
122304,note_on,,,,,96,0,2,,,,,1,,,64,100
122400,note_off,,,,,96,0,2,,,,,1,,,64,0
122400,note_off,,,,,96,0,3,,,,,2,,,61,0
122496,note_on,,,,,96,0,3,,,,,2,,,66,100
122496,note_on,,,,,96,0,2,,,,,1,,,66,100
122496,note_on,,,,,0,0,1,,,,,0,,,82,100
122496,note_off,,,,,384,0,4,,,,,3,,,64,0
122496,note_on,,,,,0,0,4,,,,,3,,,54,100
122496,note_off,,,,,768,0,1,,,,,0,,,90,0
122592,note_off,,,,,96,0,2,,,,,1,,,66,0
122592,note_off,,,,,96,0,3,,,,,2,,,66,0
122688,note_on,,,,,96,0,3,,,,,2,,,64,100
122688,note_off,,,,,192,0,4,,,,,3,,,54,0
122688,note_on,,,,,96,0,2,,,,,1,,,73,100
122784,note_off,,,,,96,0,2,,,,,1,,,73,0
122784,note_off,,,,,96,0,3,,,,,2,,,64,0
122880,note_on,,,,,96,0,3,,,,,2,,,63,100
122880,note_off,,,,,384,0,1,,,,,0,,,82,0
122880,note_on,,,,,0,0,1,,,,,0,,,83,100
122880,note_on,,,,,192,0,4,,,,,3,,,59,100
122880,note_on,,,,,96,0,2,,,,,1,,,71,100
123264,note_off,,,,,384,0,3,,,,,2,,,63,0
123264,note_off,,,,,384,0,1,,,,,0,,,83,0
123264,note_off,,,,,384,0,2,,,,,1,,,71,0
123264,note_off,,,,,384,0,4,,,,,3,,,59,0
123648,note_on,,,,,384,0,3,,,,,2,,,54,100
123648,note_on,,,,,384,0,1,,,,,0,,,75,100
123648,note_on,,,,,384,0,2,,,,,1,,,66,100
123648,note_on,,,,,384,0,4,,,,,3,,,47,100
124032,note_on,,,,,0,0,3,,,,,2,,,56,100
124032,note_off,,,,,384,0,3,,,,,2,,,54,0
124224,note_off,,,,,192,0,3,,,,,2,,,56,0
124224,note_on,,,,,0,0,3,,,,,2,,,58,100
124416,note_on,,,,,0,0,1,,,,,0,,,71,100
124416,note_on,,,,,0,0,2,,,,,1,,,63,100
124416,note_off,,,,,768,0,1,,,,,0,,,75,0
124416,note_on,,,,,0,0,3,,,,,2,,,59,100
124416,note_off,,,,,192,0,3,,,,,2,,,58,0
124416,note_off,,,,,768,0,2,,,,,1,,,66,0
124800,note_off,,,,,1152,0,4,,,,,3,,,47,0
124800,note_off,,,,,384,0,3,,,,,2,,,59,0
124800,note_off,,,,,384,0,2,,,,,1,,,63,0
124800,note_off,,,,,384,0,1,,,,,0,,,71,0
125952,note_on,,,,,1152,0,3,,,,,2,,,59,100
125952,note_on,,,,,1152,0,2,,,,,1,,,56,100
125952,note_on,,,,,0,0,2,,,,,1,,,64,100
125952,note_on,,,,,1152,0,4,,,,,3,,,52,100
125952,note_on,,,,,1152,0,1,,,,,0,,,64,100
126624,note_on,,,,,0,0,1,,,,,0,,,76,100
126624,note_off,,,,,672,0,1,,,,,0,,,64,0
126720,note_off,,,,,768,0,2,,,,,1,,,56,0
126720,note_off,,,,,0,0,2,,,,,1,,,64,0
126720,note_on,,,,,0,0,2,,,,,1,,,59,100
126720,note_on,,,,,0,0,2,,,,,1,,,68,100
126720,note_on,,,,,0,0,1,,,,,0,,,76,100
126720,note_off,,,,,96,0,1,,,,,0,,,76,0
126720,note_on,,,,,0,0,4,,,,,3,,,52,100
126720,note_off,,,,,768,0,3,,,,,2,,,59,0
126720,note_on,,,,,0,0,3,,,,,2,,,64,100
126720,note_on,,,,,0,0,3,,,,,2,,,56,100
126720,note_off,,,,,768,0,4,,,,,3,,,52,0
127392,note_off,,,,,672,0,1,,,,,0,,,76,0
127392,note_on,,,,,0,0,1,,,,,0,,,88,100
127488,note_on,,,,,0,0,1,,,,,0,,,88,100
127488,note_off,,,,,96,0,1,,,,,0,,,88,0
127488,note_off,,,,,768,0,3,,,,,2,,,64,0
127488,note_off,,,,,0,0,3,,,,,2,,,56,0
127488,note_off,,,,,0,0,2,,,,,1,,,68,0
127488,note_on,,,,,0,0,2,,,,,1,,,73,100
127488,note_on,,,,,0,0,2,,,,,1,,,64,100
127488,note_on,,,,,0,0,3,,,,,2,,,61,100
127488,note_on,,,,,0,0,3,,,,,2,,,68,100
127488,note_on,,,,,0,0,4,,,,,3,,,49,100
127488,note_off,,,,,768,0,2,,,,,1,,,59,0
127488,note_off,,,,,768,0,4,,,,,3,,,52,0
127680,note_off,,,,,192,0,4,,,,,3,,,49,0
127680,note_off,,,,,0,0,3,,,,,2,,,68,0
127680,note_off,,,,,192,0,2,,,,,1,,,73,0
127680,note_off,,,,,192,0,3,,,,,2,,,61,0
127680,note_off,,,,,0,0,2,,,,,1,,,64,0
127680,note_off,,,,,192,0,1,,,,,0,,,88,0
127872,note_on,,,,,192,0,1,,,,,0,,,76,100
127872,note_on,,,,,192,0,4,,,,,3,,,49,100
127872,note_on,,,,,0,0,3,,,,,2,,,68,100
127872,note_on,,,,,192,0,3,,,,,2,,,61,100
127872,note_on,,,,,0,0,2,,,,,1,,,64,100
127872,note_on,,,,,192,0,2,,,,,1,,,73,100
128064,note_off,,,,,0,0,2,,,,,1,,,64,0
128064,note_off,,,,,192,0,2,,,,,1,,,73,0
128064,note_off,,,,,192,0,1,,,,,0,,,76,0
128064,note_off,,,,,192,0,4,,,,,3,,,49,0
128064,note_off,,,,,0,0,3,,,,,2,,,68,0
128064,note_off,,,,,192,0,3,,,,,2,,,61,0
129024,note_on,,,,,960,0,1,,,,,0,,,66,100
129024,note_on,,,,,960,0,3,,,,,2,,,59,100
129024,note_on,,,,,960,0,2,,,,,1,,,63,100
129024,note_on,,,,,960,0,4,,,,,3,,,47,100
129792,note_off,,,,,768,0,4,,,,,3,,,47,0
129792,note_off,,,,,768,0,1,,,,,0,,,66,0
129792,note_on,,,,,0,0,1,,,,,0,,,68,100
129792,note_on,,,,,0,0,2,,,,,1,,,65,100
129792,note_off,,,,,768,0,2,,,,,1,,,63,0
129792,note_on,,,,,0,0,4,,,,,3,,,44,100
130560,note_off,,,,,768,0,4,,,,,3,,,44,0
130560,note_on,,,,,0,0,4,,,,,3,,,42,100
130560,note_off,,,,,768,0,1,,,,,0,,,68,0
130560,note_on,,,,,0,0,1,,,,,0,,,71,100
130560,note_on,,,,,0,0,3,,,,,2,,,61,100
130560,note_off,,,,,1536,0,3,,,,,2,,,59,0
130560,note_off,,,,,768,0,2,,,,,1,,,65,0
130560,note_on,,,,,0,0,2,,,,,1,,,66,100
130944,note_off,,,,,384,0,1,,,,,0,,,71,0
130944,note_on,,,,,0,0,1,,,,,0,,,69,100
131712,note_on,,,,,0,0,3,,,,,2,,,57,100
131712,note_off,,,,,1152,0,3,,,,,2,,,61,0
131712,note_off,,,,,1152,0,4,,,,,3,,,42,0
131712,note_on,,,,,0,0,4,,,,,3,,,47,100
131712,note_on,,,,,0,0,2,,,,,1,,,63,100
131712,note_on,,,,,0,0,1,,,,,0,,,68,100
131712,note_off,,,,,768,0,1,,,,,0,,,69,0
131712,note_off,,,,,1152,0,2,,,,,1,,,66,0
131904,note_on,,,,,0,0,1,,,,,0,,,66,100
131904,note_off,,,,,192,0,1,,,,,0,,,68,0
132096,note_on,,,,,0,0,3,,,,,2,,,59,100
132096,note_on,,,,,0,0,4,,,,,3,,,52,100
132096,note_off,,,,,384,0,4,,,,,3,,,47,0
132096,note_on,,,,,0,0,2,,,,,1,,,56,100
132096,note_off,,,,,384,0,3,,,,,2,,,57,0
132096,note_on,,,,,0,0,3,,,,,2,,,56,100
132096,note_off,,,,,384,0,2,,,,,1,,,63,0
132096,note_off,,,,,192,0,1,,,,,0,,,66,0
132096,note_on,,,,,0,0,2,,,,,1,,,64,100
132096,note_on,,,,,0,0,1,,,,,0,,,64,100
132768,note_off,,,,,672,0,1,,,,,0,,,64,0
132768,note_on,,,,,0,0,1,,,,,0,,,76,100
132864,note_off,,,,,0,0,3,,,,,2,,,56,0
132864,note_off,,,,,768,0,2,,,,,1,,,64,0
132864,note_off,,,,,0,0,2,,,,,1,,,56,0
132864,note_on,,,,,0,0,2,,,,,1,,,73,100
132864,note_on,,,,,0,0,2,,,,,1,,,64,100
132864,note_off,,,,,96,0,1,,,,,0,,,76,0
132864,note_on,,,,,0,0,4,,,,,3,,,49,100
132864,note_off,,,,,768,0,4,,,,,3,,,52,0
132864,note_on,,,,,0,0,1,,,,,0,,,76,100
132864,note_off,,,,,768,0,3,,,,,2,,,59,0
132864,note_on,,,,,0,0,3,,,,,2,,,56,100
132864,note_on,,,,,0,0,3,,,,,2,,,64,100
133536,note_off,,,,,672,0,1,,,,,0,,,76,0
133536,note_on,,,,,0,0,1,,,,,0,,,88,100
133632,note_off,,,,,768,0,4,,,,,3,,,49,0
133632,note_off,,,,,96,0,1,,,,,0,,,88,0
133632,note_on,,,,,0,0,1,,,,,0,,,88,100
133632,note_on,,,,,0,0,3,,,,,2,,,64,100
133632,note_on,,,,,0,0,3,,,,,2,,,57,100
133632,note_off,,,,,0,0,3,,,,,2,,,64,0
133632,note_off,,,,,768,0,3,,,,,2,,,56,0
133632,note_on,,,,,0,0,4,,,,,3,,,45,100
133632,note_off,,,,,0,0,2,,,,,1,,,64,0
133632,note_on,,,,,0,0,2,,,,,1,,,73,100
133632,note_on,,,,,0,0,2,,,,,1,,,64,100
133632,note_off,,,,,768,0,2,,,,,1,,,73,0
133824,note_off,,,,,192,0,4,,,,,3,,,45,0
133824,note_off,,,,,0,0,3,,,,,2,,,64,0
133824,note_off,,,,,192,0,3,,,,,2,,,57,0
133824,note_off,,,,,0,0,2,,,,,1,,,64,0
133824,note_off,,,,,192,0,2,,,,,1,,,73,0
133824,note_off,,,,,192,0,1,,,,,0,,,88,0
134016,note_on,,,,,192,0,3,,,,,2,,,64,100
134016,note_on,,,,,192,0,4,,,,,3,,,45,100
134016,note_on,,,,,0,0,3,,,,,2,,,57,100
134016,note_on,,,,,192,0,1,,,,,0,,,76,100
134016,note_on,,,,,0,0,2,,,,,1,,,64,100
134016,note_on,,,,,192,0,2,,,,,1,,,73,100
134208,note_off,,,,,0,0,2,,,,,1,,,64,0
134208,note_off,,,,,192,0,3,,,,,2,,,64,0
134208,note_off,,,,,192,0,2,,,,,1,,,73,0
134208,note_off,,,,,192,0,4,,,,,3,,,45,0
134208,note_off,,,,,0,0,3,,,,,2,,,57,0
134208,note_off,,,,,192,0,1,,,,,0,,,76,0
135168,note_on,,,,,960,0,1,,,,,0,,,66,100
135168,note_on,,,,,960,0,3,,,,,2,,,59,100
135168,note_on,,,,,960,0,4,,,,,3,,,45,100
135168,note_on,,,,,960,0,2,,,,,1,,,63,100
135936,note_off,,,,,768,0,1,,,,,0,,,66,0
135936,note_on,,,,,0,0,1,,,,,0,,,68,100
135936,note_on,,,,,0,0,4,,,,,3,,,44,100
135936,note_off,,,,,768,0,4,,,,,3,,,45,0
135936,note_off,,,,,768,0,2,,,,,1,,,63,0
135936,note_on,,,,,0,0,2,,,,,1,,,65,100
136704,note_on,,,,,0,0,3,,,,,2,,,61,100
136704,note_off,,,,,768,0,4,,,,,3,,,44,0
136704,note_on,,,,,0,0,4,,,,,3,,,42,100
136704,note_off,,,,,768,0,1,,,,,0,,,68,0
136704,note_on,,,,,0,0,1,,,,,0,,,71,100
136704,note_on,,,,,0,0,2,,,,,1,,,66,100
136704,note_off,,,,,768,0,2,,,,,1,,,65,0
136704,note_off,,,,,1536,0,3,,,,,2,,,59,0
137088,note_off,,,,,384,0,1,,,,,0,,,71,0
137088,note_on,,,,,0,0,1,,,,,0,,,69,100
137472,note_off,,,,,768,0,2,,,,,1,,,66,0
137472,note_on,,,,,0,0,2,,,,,1,,,63,100
137472,note_off,,,,,768,0,3,,,,,2,,,61,0
137472,note_on,,,,,0,0,4,,,,,3,,,47,100
137472,note_off,,,,,768,0,4,,,,,3,,,42,0
137472,note_on,,,,,0,0,3,,,,,2,,,59,100
137856,note_on,,,,,0,0,4,,,,,3,,,45,100
137856,note_off,,,,,768,0,1,,,,,0,,,69,0
137856,note_on,,,,,0,0,1,,,,,0,,,68,100
137856,note_off,,,,,384,0,4,,,,,3,,,47,0
138048,note_off,,,,,192,0,1,,,,,0,,,68,0
138048,note_on,,,,,0,0,1,,,,,0,,,66,100
138240,note_off,,,,,384,0,4,,,,,3,,,45,0
138240,note_on,,,,,0,0,4,,,,,3,,,44,100
138240,note_on,,,,,0,0,1,,,,,0,,,73,100
138240,note_off,,,,,192,0,1,,,,,0,,,66,0
138240,note_off,,,,,768,0,2,,,,,1,,,63,0
138240,note_on,,,,,0,0,2,,,,,1,,,64,100
138240,note_on,,,,,0,0,3,,,,,2,,,59,100
138240,note_off,,,,,768,0,3,,,,,2,,,59,0
138624,note_on,,,,,0,0,3,,,,,2,,,62,100
138624,note_off,,,,,384,0,1,,,,,0,,,73,0
138624,note_on,,,,,0,0,1,,,,,0,,,71,100
138624,note_off,,,,,384,0,3,,,,,2,,,59,0
139008,note_on,,,,,0,0,2,,,,,1,,,65,100
139008,note_on,,,,,0,0,4,,,,,3,,,49,100
139008,note_off,,,,,768,0,4,,,,,3,,,44,0
139008,note_on,,,,,0,0,3,,,,,2,,,61,100
139008,note_off,,,,,384,0,3,,,,,2,,,62,0
139008,note_off,,,,,768,0,2,,,,,1,,,64,0
139392,note_off,,,,,384,0,4,,,,,3,,,49,0
139392,note_on,,,,,0,0,4,,,,,3,,,47,100
139392,note_on,,,,,0,0,1,,,,,0,,,69,100
139392,note_off,,,,,768,0,1,,,,,0,,,71,0
139584,note_on,,,,,0,0,1,,,,,0,,,68,100
139584,note_off,,,,,192,0,1,,,,,0,,,69,0
139776,note_on,,,,,0,0,1,,,,,0,,,74,100
139776,note_off,,,,,192,0,1,,,,,0,,,68,0
139776,note_off,,,,,768,0,2,,,,,1,,,65,0
139776,note_off,,,,,768,0,3,,,,,2,,,61,0
139776,note_on,,,,,0,0,3,,,,,2,,,61,100
139776,note_on,,,,,0,0,2,,,,,1,,,66,100
139776,note_on,,,,,0,0,4,,,,,3,,,45,100
139776,note_off,,,,,384,0,4,,,,,3,,,47,0
140160,note_off,,,,,384,0,1,,,,,0,,,74,0
140160,note_on,,,,,0,0,1,,,,,0,,,73,100
140544,note_on,,,,,0,0,1,,,,,0,,,80,100
140544,note_off,,,,,384,0,1,,,,,0,,,73,0
140736,note_on,,,,,0,0,1,,,,,0,,,78,100
140736,note_off,,,,,192,0,1,,,,,0,,,80,0
140928,note_on,,,,,0,0,1,,,,,0,,,76,100
140928,note_off,,,,,192,0,1,,,,,0,,,78,0
140928,note_on,,,,,0,0,3,,,,,2,,,60,100
140928,note_off,,,,,1152,0,3,,,,,2,,,61,0
141312,note_on,,,,,0,0,3,,,,,2,,,66,100
141312,note_off,,,,,384,0,1,,,,,0,,,76,0
141312,note_off,,,,,1536,0,2,,,,,1,,,66,0
141312,note_on,,,,,0,0,2,,,,,1,,,71,100
141312,note_on,,,,,0,0,2,,,,,1,,,63,100
141312,note_on,,,,,0,0,3,,,,,2,,,59,100
141312,note_on,,,,,0,0,1,,,,,0,,,75,100
141312,note_off,,,,,384,0,3,,,,,2,,,60,0
141312,note_off,,,,,1536,0,4,,,,,3,,,45,0
141312,note_on,,,,,0,0,4,,,,,3,,,57,100
141888,note_off,,,,,576,0,1,,,,,0,,,75,0
141888,note_on,,,,,0,0,1,,,,,0,,,78,100
142080,note_off,,,,,192,0,1,,,,,0,,,78,0
142080,note_on,,,,,0,0,1,,,,,0,,,83,100
142464,note_off,,,,,384,0,1,,,,,0,,,83,0
142464,note_on,,,,,0,0,1,,,,,0,,,87,100
142656,note_off,,,,,192,0,1,,,,,0,,,87,0
142656,note_on,,,,,0,0,1,,,,,0,,,90,100
142848,note_off,,,,,192,0,1,,,,,0,,,90,0
142848,note_on,,,,,0,0,1,,,,,0,,,95,100
143040,note_off,,,,,192,0,1,,,,,0,,,95,0
143232,note_off,,,,,1920,0,3,,,,,2,,,59,0
143232,note_off,,,,,1920,0,4,,,,,3,,,57,0
143232,note_off,,,,,0,0,3,,,,,2,,,66,0
143232,note_off,,,,,0,0,2,,,,,1,,,71,0
143232,note_off,,,,,1920,0,2,,,,,1,,,63,0
144384,note_on,,,,,1344,0,1,,,,,0,,,92,100
144384,note_on,,,,,1152,0,2,,,,,1,,,80,100
144768,note_on,,,,,0,0,1,,,,,0,,,88,100
144768,note_off,,,,,384,0,2,,,,,1,,,80,0
144768,note_on,,,,,0,0,2,,,,,1,,,76,100
144768,note_on,,,,,1536,0,4,,,,,3,,,56,100
144768,note_on,,,,,1536,0,3,,,,,2,,,64,100
144768,note_off,,,,,384,0,1,,,,,0,,,92,0
144960,note_off,,,,,192,0,1,,,,,0,,,88,0
144960,note_off,,,,,192,0,4,,,,,3,,,56,0
144960,note_off,,,,,192,0,2,,,,,1,,,76,0
144960,note_off,,,,,192,0,3,,,,,2,,,64,0
145152,note_on,,,,,192,0,2,,,,,1,,,76,100
145152,note_on,,,,,192,0,1,,,,,0,,,88,100
145536,note_on,,,,,576,0,3,,,,,2,,,64,100
145536,note_on,,,,,0,0,2,,,,,1,,,73,100
145536,note_off,,,,,384,0,2,,,,,1,,,76,0
145536,note_on,,,,,576,0,4,,,,,3,,,57,100
145536,note_off,,,,,384,0,1,,,,,0,,,88,0
145536,note_on,,,,,0,0,1,,,,,0,,,85,100
145728,note_off,,,,,192,0,3,,,,,2,,,64,0
145728,note_off,,,,,192,0,4,,,,,3,,,57,0
145728,note_off,,,,,192,0,1,,,,,0,,,85,0
145728,note_off,,,,,192,0,2,,,,,1,,,73,0
145920,note_on,,,,,192,0,1,,,,,0,,,83,100
145920,note_on,,,,,192,0,2,,,,,1,,,71,100
146304,note_on,,,,,0,0,1,,,,,0,,,80,100
146304,note_off,,,,,384,0,1,,,,,0,,,83,0
146304,note_on,,,,,576,0,3,,,,,2,,,56,100
146304,note_on,,,,,0,0,3,,,,,2,,,64,100
146304,note_on,,,,,576,0,4,,,,,3,,,59,100
146304,note_on,,,,,0,0,2,,,,,1,,,68,100
146304,note_off,,,,,384,0,2,,,,,1,,,71,0
146496,note_off,,,,,192,0,4,,,,,3,,,59,0
146496,note_off,,,,,192,0,3,,,,,2,,,56,0
146496,note_off,,,,,0,0,3,,,,,2,,,64,0
146496,note_off,,,,,192,0,1,,,,,0,,,80,0
146496,note_off,,,,,192,0,2,,,,,1,,,68,0
146688,note_on,,,,,192,0,1,,,,,0,,,81,100
146688,note_on,,,,,192,0,2,,,,,1,,,69,100
147072,note_on,,,,,0,0,2,,,,,1,,,63,100
147072,note_off,,,,,384,0,2,,,,,1,,,69,0
147072,note_on,,,,,576,0,4,,,,,3,,,47,100
147072,note_on,,,,,0,0,3,,,,,2,,,57,100
147072,note_off,,,,,384,0,1,,,,,0,,,81,0
147072,note_on,,,,,0,0,1,,,,,0,,,75,100
147072,note_on,,,,,576,0,3,,,,,2,,,66,100
147264,note_off,,,,,0,0,3,,,,,2,,,57,0
147264,note_off,,,,,192,0,3,,,,,2,,,66,0
147264,note_off,,,,,192,0,2,,,,,1,,,63,0
147264,note_off,,,,,192,0,1,,,,,0,,,75,0
147264,note_off,,,,,192,0,4,,,,,3,,,47,0
147456,note_on,,,,,192,0,3,,,,,2,,,64,100
147456,note_on,,,,,192,0,1,,,,,0,,,76,100
147456,note_on,,,,,192,0,2,,,,,1,,,68,100
147456,note_on,,,,,192,0,4,,,,,3,,,49,100
147648,note_on,,,,,0,0,2,,,,,1,,,76,100
147648,note_off,,,,,192,0,2,,,,,1,,,68,0
147648,note_on,,,,,0,0,1,,,,,0,,,80,100
147648,note_off,,,,,192,0,1,,,,,0,,,76,0
147840,note_on,,,,,0,0,1,,,,,0,,,80,100
147840,note_off,,,,,192,0,1,,,,,0,,,80,0
147840,note_off,,,,,192,0,2,,,,,1,,,76,0
147840,note_on,,,,,0,0,2,,,,,1,,,76,100
148032,note_off,,,,,192,0,1,,,,,0,,,80,0
148032,note_on,,,,,0,0,1,,,,,0,,,76,100
148032,note_off,,,,,192,0,2,,,,,1,,,76,0
148032,note_on,,,,,0,0,2,,,,,1,,,68,100
148224,note_on,,,,,0,0,2,,,,,1,,,69,100
148224,note_on,,,,,0,0,1,,,,,0,,,73,100
148224,note_on,,,,,0,0,4,,,,,3,,,45,100
148224,note_off,,,,,192,0,1,,,,,0,,,76,0
148224,note_off,,,,,768,0,4,,,,,3,,,49,0
148224,note_off,,,,,192,0,2,,,,,1,,,68,0
148416,note_off,,,,,192,0,1,,,,,0,,,73,0
148416,note_on,,,,,0,0,1,,,,,0,,,76,100
148416,note_on,,,,,0,0,2,,,,,1,,,73,100
148416,note_off,,,,,192,0,2,,,,,1,,,69,0
148608,note_off,,,,,192,0,1,,,,,0,,,76,0
148608,note_on,,,,,0,0,2,,,,,1,,,73,100
148608,note_off,,,,,192,0,2,,,,,1,,,73,0
148608,note_on,,,,,0,0,1,,,,,0,,,76,100
148800,note_on,,,,,0,0,1,,,,,0,,,73,100
148800,note_off,,,,,192,0,2,,,,,1,,,73,0
148800,note_on,,,,,0,0,2,,,,,1,,,69,100
148800,note_off,,,,,192,0,1,,,,,0,,,76,0
148992,note_off,,,,,1536,0,3,,,,,2,,,64,0
148992,note_on,,,,,0,0,4,,,,,3,,,47,100
148992,note_off,,,,,192,0,2,,,,,1,,,69,0
148992,note_on,,,,,0,0,1,,,,,0,,,68,100
148992,note_off,,,,,192,0,1,,,,,0,,,73,0
148992,note_on,,,,,0,0,3,,,,,2,,,59,100
148992,note_on,,,,,0,0,2,,,,,1,,,64,100
148992,note_off,,,,,768,0,4,,,,,3,,,45,0
149184,note_off,,,,,192,0,1,,,,,0,,,68,0
149184,note_on,,,,,0,0,2,,,,,1,,,68,100
149184,note_on,,,,,0,0,1,,,,,0,,,71,100
149184,note_off,,,,,192,0,2,,,,,1,,,64,0
149376,note_on,,,,,0,0,2,,,,,1,,,68,100
149376,note_off,,,,,192,0,2,,,,,1,,,68,0
149376,note_on,,,,,0,0,1,,,,,0,,,71,100
149376,note_off,,,,,192,0,1,,,,,0,,,71,0
149568,note_on,,,,,0,0,1,,,,,0,,,68,100
149568,note_off,,,,,192,0,1,,,,,0,,,71,0
149568,note_off,,,,,192,0,2,,,,,1,,,68,0
149568,note_on,,,,,0,0,2,,,,,1,,,64,100
149760,note_on,,,,,0,0,3,,,,,2,,,57,100
149760,note_off,,,,,192,0,2,,,,,1,,,64,0
149760,note_off,,,,,768,0,3,,,,,2,,,59,0
149760,note_on,,,,,0,0,2,,,,,1,,,63,100
149760,note_off,,,,,192,0,1,,,,,0,,,68,0
149760,note_on,,,,,0,0,1,,,,,0,,,66,100
149952,note_off,,,,,192,0,2,,,,,1,,,63,0
149952,note_off,,,,,192,0,1,,,,,0,,,66,0
149952,note_on,,,,,0,0,2,,,,,1,,,66,100
149952,note_on,,,,,0,0,1,,,,,0,,,69,100
150144,note_off,,,,,192,0,1,,,,,0,,,69,0
150144,note_on,,,,,0,0,1,,,,,0,,,69,100
150144,note_off,,,,,192,0,2,,,,,1,,,66,0
150144,note_on,,,,,0,0,2,,,,,1,,,66,100
150336,note_off,,,,,192,0,1,,,,,0,,,69,0
150336,note_off,,,,,192,0,2,,,,,1,,,66,0
150336,note_on,,,,,0,0,2,,,,,1,,,63,100
150336,note_on,,,,,0,0,1,,,,,0,,,66,100
150528,note_off,,,,,192,0,2,,,,,1,,,63,0
150528,note_on,,,,,0,0,2,,,,,1,,,56,100
150528,note_on,,,,,0,0,2,,,,,1,,,64,100
150528,note_on,,,,,0,0,4,,,,,3,,,40,100
150528,note_off,,,,,1536,0,4,,,,,3,,,47,0
150528,note_on,,,,,0,0,1,,,,,0,,,64,100
150528,note_off,,,,,192,0,1,,,,,0,,,66,0
150528,note_on,,,,,0,0,3,,,,,2,,,56,100
150528,note_off,,,,,768,0,3,,,,,2,,,57,0
150912,note_on,,,,,0,0,3,,,,,2,,,59,100
150912,note_off,,,,,384,0,3,,,,,2,,,56,0
151296,note_on,,,,,0,0,3,,,,,2,,,64,100
151296,note_off,,,,,384,0,3,,,,,2,,,59,0
151680,note_off,,,,,1152,0,1,,,,,0,,,64,0
151680,note_on,,,,,0,0,3,,,,,2,,,56,100
151680,note_off,,,,,384,0,3,,,,,2,,,64,0
151680,note_off,,,,,1152,0,2,,,,,1,,,56,0
151680,note_on,,,,,0,0,1,,,,,0,,,75,100
151680,note_off,,,,,0,0,2,,,,,1,,,64,0
151872,note_on,,,,,0,0,1,,,,,0,,,76,100
151872,note_off,,,,,192,0,1,,,,,0,,,75,0
152064,note_off,,,,,192,0,1,,,,,0,,,76,0
152064,note_off,,,,,384,0,3,,,,,2,,,56,0
152064,note_on,,,,,0,0,3,,,,,2,,,57,100
152064,note_on,,,,,0,0,1,,,,,0,,,80,100
152256,note_on,,,,,0,0,1,,,,,0,,,78,100
152256,note_off,,,,,192,0,1,,,,,0,,,80,0
152448,note_on,,,,,0,0,1,,,,,0,,,76,100
152448,note_off,,,,,192,0,1,,,,,0,,,78,0
152448,note_off,,,,,384,0,3,,,,,2,,,57,0
152448,note_on,,,,,0,0,3,,,,,2,,,59,100
152640,note_on,,,,,0,0,1,,,,,0,,,75,100
152640,note_off,,,,,192,0,1,,,,,0,,,76,0
152832,note_off,,,,,384,0,3,,,,,2,,,59,0
152832,note_on,,,,,0,0,3,,,,,2,,,63,100
152832,note_off,,,,,192,0,1,,,,,0,,,75,0
152832,note_on,,,,,0,0,1,,,,,0,,,73,100
153024,note_off,,,,,192,0,1,,,,,0,,,73,0
153024,note_on,,,,,0,0,1,,,,,0,,,71,100
153216,note_off,,,,,384,0,3,,,,,2,,,63,0
153216,note_on,,,,,0,0,3,,,,,2,,,57,100
153216,note_on,,,,,0,0,1,,,,,0,,,70,100
153216,note_off,,,,,192,0,1,,,,,0,,,71,0
153216,note_on,,,,,1536,0,2,,,,,1,,,61,100
153408,note_on,,,,,0,0,1,,,,,0,,,71,100
153408,note_off,,,,,192,0,1,,,,,0,,,70,0
153408,note_on,,,,,0,0,2,,,,,1,,,59,100
153408,note_off,,,,,192,0,2,,,,,1,,,61,0
153600,note_on,,,,,0,0,1,,,,,0,,,78,100
153600,note_off,,,,,192,0,1,,,,,0,,,71,0
153600,note_off,,,,,384,0,3,,,,,2,,,57,0
153600,note_off,,,,,192,0,2,,,,,1,,,59,0
153600,note_on,,,,,0,0,2,,,,,1,,,73,100
153600,note_on,,,,,0,0,3,,,,,2,,,56,100
153792,note_on,,,,,0,0,2,,,,,1,,,71,100
153792,note_off,,,,,192,0,2,,,,,1,,,73,0
153984,note_on,,,,,0,0,3,,,,,2,,,59,100
153984,note_on,,,,,0,0,1,,,,,0,,,76,100
153984,note_off,,,,,384,0,3,,,,,2,,,56,0
153984,note_off,,,,,192,0,2,,,,,1,,,71,0
153984,note_off,,,,,384,0,1,,,,,0,,,78,0
153984,note_on,,,,,0,0,2,,,,,1,,,76,100
154176,note_off,,,,,192,0,2,,,,,1,,,76,0
154176,note_on,,,,,0,0,2,,,,,1,,,75,100
154368,note_off,,,,,384,0,3,,,,,2,,,59,0
154368,note_off,,,,,192,0,2,,,,,1,,,75,0
154368,note_on,,,,,0,0,2,,,,,1,,,73,100
154368,note_off,,,,,384,0,1,,,,,0,,,76,0
154368,note_on,,,,,0,0,3,,,,,2,,,64,100
154560,note_on,,,,,0,0,2,,,,,1,,,71,100
154560,note_off,,,,,192,0,2,,,,,1,,,73,0
154752,note_off,,,,,192,0,2,,,,,1,,,71,0
154752,note_on,,,,,0,0,3,,,,,2,,,59,100
154752,note_on,,,,,384,0,1,,,,,0,,,75,100
154752,note_on,,,,,0,0,2,,,,,1,,,69,100
154752,note_off,,,,,384,0,3,,,,,2,,,64,0
154944,note_on,,,,,0,0,2,,,,,1,,,68,100
154944,note_off,,,,,192,0,2,,,,,1,,,69,0
154944,note_off,,,,,192,0,1,,,,,0,,,75,0
154944,note_on,,,,,0,0,1,,,,,0,,,76,100
155136,note_off,,,,,192,0,2,,,,,1,,,68,0
155136,note_on,,,,,0,0,2,,,,,1,,,71,100
155136,note_on,,,,,0,0,3,,,,,2,,,57,100
155136,note_off,,,,,384,0,3,,,,,2,,,59,0
155136,note_off,,,,,192,0,1,,,,,0,,,76,0
155136,note_on,,,,,0,0,1,,,,,0,,,80,100
155328,note_off,,,,,192,0,2,,,,,1,,,71,0
155328,note_on,,,,,0,0,2,,,,,1,,,70,100
155328,note_off,,,,,192,0,1,,,,,0,,,80,0
155328,note_on,,,,,0,0,1,,,,,0,,,78,100
155520,note_off,,,,,192,0,1,,,,,0,,,78,0
155520,note_on,,,,,0,0,2,,,,,1,,,69,100
155520,note_on,,,,,0,0,3,,,,,2,,,59,100
155520,note_off,,,,,384,0,3,,,,,2,,,57,0
155520,note_off,,,,,192,0,2,,,,,1,,,70,0
155520,note_on,,,,,0,0,1,,,,,0,,,76,100
155712,note_on,,,,,0,0,1,,,,,0,,,75,100
155712,note_off,,,,,192,0,1,,,,,0,,,76,0
155904,note_off,,,,,192,0,1,,,,,0,,,75,0
155904,note_off,,,,,384,0,2,,,,,1,,,69,0
155904,note_on,,,,,0,0,3,,,,,2,,,63,100
155904,note_off,,,,,384,0,3,,,,,2,,,59,0
155904,note_on,,,,,0,0,1,,,,,0,,,73,100
156096,note_on,,,,,0,0,1,,,,,0,,,71,100
156096,note_off,,,,,192,0,1,,,,,0,,,73,0
156288,note_on,,,,,384,0,2,,,,,1,,,61,100
156288,note_off,,,,,192,0,1,,,,,0,,,71,0
156288,note_off,,,,,384,0,3,,,,,2,,,63,0
156288,note_on,,,,,0,0,3,,,,,2,,,57,100
156288,note_on,,,,,0,0,1,,,,,0,,,70,100
156480,note_off,,,,,192,0,2,,,,,1,,,61,0
156480,note_on,,,,,0,0,2,,,,,1,,,59,100
156480,note_on,,,,,0,0,1,,,,,0,,,71,100
156480,note_off,,,,,192,0,1,,,,,0,,,70,0
156672,note_off,,,,,384,0,3,,,,,2,,,57,0
156672,note_on,,,,,0,0,3,,,,,2,,,56,100
156672,note_off,,,,,192,0,1,,,,,0,,,71,0
156672,note_on,,,,,0,0,1,,,,,0,,,78,100
156672,note_off,,,,,192,0,2,,,,,1,,,59,0
156672,note_on,,,,,0,0,2,,,,,1,,,73,100
156864,note_off,,,,,192,0,2,,,,,1,,,73,0
156864,note_on,,,,,0,0,2,,,,,1,,,71,100
157056,note_on,,,,,0,0,2,,,,,1,,,76,100
157056,note_off,,,,,384,0,1,,,,,0,,,78,0
157056,note_on,,,,,0,0,1,,,,,0,,,76,100
157056,note_off,,,,,192,0,2,,,,,1,,,71,0
157056,note_off,,,,,384,0,3,,,,,2,,,56,0
157056,note_on,,,,,0,0,3,,,,,2,,,59,100
157248,note_off,,,,,192,0,2,,,,,1,,,76,0
157248,note_on,,,,,0,0,2,,,,,1,,,75,100
157440,note_off,,,,,192,0,2,,,,,1,,,75,0
157440,note_on,,,,,0,0,3,,,,,2,,,64,100
157440,note_off,,,,,384,0,3,,,,,2,,,59,0
157440,note_on,,,,,0,0,2,,,,,1,,,73,100
157440,note_off,,,,,384,0,1,,,,,0,,,76,0
157632,note_on,,,,,0,0,2,,,,,1,,,71,100
157632,note_off,,,,,192,0,2,,,,,1,,,73,0
157824,note_on,,,,,0,0,2,,,,,1,,,69,100
157824,note_on,,,,,0,0,3,,,,,2,,,60,100
157824,note_off,,,,,384,0,3,,,,,2,,,64,0
157824,note_off,,,,,7296,0,4,,,,,3,,,40,0
157824,note_off,,,,,192,0,2,,,,,1,,,71,0
157824,note_on,,,,,384,0,1,,,,,0,,,75,100
158016,note_off,,,,,192,0,1,,,,,0,,,75,0
158016,note_on,,,,,0,0,2,,,,,1,,,68,100
158016,note_on,,,,,0,0,3,,,,,2,,,61,100
158016,note_off,,,,,192,0,2,,,,,1,,,69,0
158016,note_off,,,,,192,0,3,,,,,2,,,60,0
158016,note_on,,,,,0,0,1,,,,,0,,,76,100
158208,note_off,,,,,192,0,2,,,,,1,,,68,0
158208,note_on,,,,,384,0,4,,,,,3,,,61,100
158208,note_off,,,,,192,0,3,,,,,2,,,61,0
158208,note_on,,,,,0,0,3,,,,,2,,,72,100
158208,note_on,,,,,0,0,1,,,,,0,,,78,100
158208,note_off,,,,,192,0,1,,,,,0,,,76,0
158208,note_on,,,,,0,0,2,,,,,1,,,75,100
158400,note_on,,,,,0,0,2,,,,,1,,,73,100
158400,note_off,,,,,192,0,2,,,,,1,,,75,0
158400,note_on,,,,,0,0,1,,,,,0,,,76,100
158400,note_on,,,,,0,0,3,,,,,2,,,73,100
158400,note_off,,,,,192,0,3,,,,,2,,,72,0
158400,note_off,,,,,192,0,1,,,,,0,,,78,0
158592,note_on,,,,,0,0,1,,,,,0,,,81,100
158592,note_off,,,,,192,0,3,,,,,2,,,73,0
158592,note_off,,,,,192,0,2,,,,,1,,,73,0
158592,note_on,,,,,0,0,2,,,,,1,,,78,100
158592,note_off,,,,,192,0,1,,,,,0,,,76,0
158592,note_on,,,,,0,0,3,,,,,2,,,75,100
158784,note_off,,,,,192,0,2,,,,,1,,,78,0
158784,note_on,,,,,0,0,2,,,,,1,,,76,100
158784,note_on,,,,,0,0,3,,,,,2,,,76,100
158784,note_off,,,,,192,0,3,,,,,2,,,75,0
158784,note_off,,,,,192,0,1,,,,,0,,,81,0
158784,note_on,,,,,0,0,1,,,,,0,,,80,100
158976,note_off,,,,,192,0,2,,,,,1,,,76,0
158976,note_on,,,,,0,0,3,,,,,2,,,69,100
158976,note_off,,,,,192,0,3,,,,,2,,,76,0
158976,note_on,,,,,0,0,2,,,,,1,,,75,100
158976,note_off,,,,,192,0,1,,,,,0,,,80,0
158976,note_on,,,,,0,0,1,,,,,0,,,87,100
159168,note_off,,,,,192,0,3,,,,,2,,,69,0
159168,note_on,,,,,0,0,2,,,,,1,,,76,100
159168,note_on,,,,,0,0,3,,,,,2,,,68,100
159168,note_on,,,,,0,0,1,,,,,0,,,85,100
159168,note_off,,,,,192,0,2,,,,,1,,,75,0
159168,note_off,,,,,192,0,1,,,,,0,,,87,0
159360,note_off,,,,,192,0,2,,,,,1,,,76,0
159360,note_on,,,,,0,0,2,,,,,1,,,81,100
159360,note_off,,,,,192,0,3,,,,,2,,,68,0
159360,note_off,,,,,1152,0,4,,,,,3,,,61,0
159360,note_on,,,,,0,0,1,,,,,0,,,90,100
159360,note_off,,,,,192,0,1,,,,,0,,,85,0
159360,note_on,,,,,0,0,4,,,,,3,,,49,100
159360,note_on,,,,,0,0,3,,,,,2,,,63,100
159552,note_on,,,,,0,0,1,,,,,0,,,88,100
159552,note_off,,,,,192,0,3,,,,,2,,,63,0
159552,note_on,,,,,0,0,3,,,,,2,,,64,100
159552,note_off,,,,,192,0,1,,,,,0,,,90,0
159552,note_on,,,,,0,0,2,,,,,1,,,80,100
159552,note_off,,,,,192,0,2,,,,,1,,,81,0
159744,note_off,,,,,192,0,1,,,,,0,,,88,0
159744,note_on,,,,,0,0,1,,,,,0,,,80,100
159744,note_off,,,,,192,0,3,,,,,2,,,64,0
159744,note_on,,,,,0,0,2,,,,,1,,,71,100
159744,note_off,,,,,384,0,4,,,,,3,,,49,0
159744,note_on,,,,,0,0,4,,,,,3,,,47,100
159744,note_on,,,,,0,0,3,,,,,2,,,64,100
159744,note_off,,,,,192,0,2,,,,,1,,,80,0
159936,note_off,,,,,192,0,2,,,,,1,,,71,0
159936,note_off,,,,,192,0,3,,,,,2,,,64,0
159936,note_off,,,,,192,0,4,,,,,3,,,47,0
159936,note_off,,,,,192,0,1,,,,,0,,,80,0
160128,note_on,,,,,192,0,2,,,,,1,,,76,100
160128,note_on,,,,,192,0,3,,,,,2,,,68,100
160128,note_on,,,,,192,0,4,,,,,3,,,59,100
160128,note_on,,,,,192,0,1,,,,,0,,,83,100
160512,note_off,,,,,384,0,3,,,,,2,,,68,0
160512,note_on,,,,,0,0,3,,,,,2,,,69,100
160512,note_off,,,,,384,0,2,,,,,1,,,76,0
160512,note_on,,,,,0,0,2,,,,,1,,,75,100
160704,note_on,,,,,0,0,1,,,,,0,,,81,100
160704,note_off,,,,,576,0,1,,,,,0,,,83,0
160896,note_on,,,,,0,0,1,,,,,0,,,78,100
160896,note_off,,,,,192,0,1,,,,,0,,,81,0
161088,note_on,,,,,0,0,1,,,,,0,,,80,100
161088,note_off,,,,,192,0,1,,,,,0,,,78,0
161280,note_off,,,,,1152,0,4,,,,,3,,,59,0
161280,note_off,,,,,192,0,1,,,,,0,,,80,0
161280,note_off,,,,,768,0,2,,,,,1,,,75,0
161280,note_on,,,,,0,0,4,,,,,3,,,52,100
161280,note_on,,,,,0,0,3,,,,,2,,,68,100
161280,note_off,,,,,768,0,3,,,,,2,,,69,0
161280,note_on,,,,,0,0,1,,,,,0,,,76,100
161280,note_on,,,,,0,0,2,,,,,1,,,76,100
161472,note_off,,,,,192,0,1,,,,,0,,,76,0
161472,note_off,,,,,192,0,2,,,,,1,,,76,0
161472,note_off,,,,,192,0,3,,,,,2,,,68,0
161472,note_off,,,,,192,0,4,,,,,3,,,52,0
161664,note_on,,,,,192,0,4,,,,,3,,,47,100
161664,note_on,,,,,192,0,3,,,,,2,,,56,100
161664,note_on,,,,,192,0,2,,,,,1,,,64,100
161664,note_on,,,,,192,0,1,,,,,0,,,71,100
162048,note_on,,,,,0,0,2,,,,,1,,,63,100
162048,note_off,,,,,384,0,3,,,,,2,,,56,0
162048,note_on,,,,,0,0,3,,,,,2,,,57,100
162048,note_off,,,,,384,0,2,,,,,1,,,64,0
162240,note_off,,,,,576,0,1,,,,,0,,,71,0
162240,note_on,,,,,0,0,1,,,,,0,,,69,100
162432,note_off,,,,,192,0,1,,,,,0,,,69,0
162432,note_on,,,,,0,0,1,,,,,0,,,66,100
162624,note_off,,,,,192,0,1,,,,,0,,,66,0
162624,note_on,,,,,0,0,1,,,,,0,,,68,100
162816,note_off,,,,,768,0,3,,,,,2,,,57,0
162816,note_on,,,,,0,0,3,,,,,2,,,56,100
162816,note_off,,,,,768,0,2,,,,,1,,,63,0
162816,note_on,,,,,0,0,4,,,,,3,,,40,100
162816,note_off,,,,,1152,0,4,,,,,3,,,47,0
162816,note_off,,,,,192,0,1,,,,,0,,,68,0
162816,note_on,,,,,0,0,1,,,,,0,,,64,100
162816,note_on,,,,,0,0,2,,,,,1,,,64,100
163008,note_off,,,,,192,0,3,,,,,2,,,56,0
163008,note_off,,,,,192,0,2,,,,,1,,,64,0
163008,note_off,,,,,192,0,1,,,,,0,,,64,0
163008,note_off,,,,,192,0,4,,,,,3,,,40,0
163200,note_on,,,,,192,0,2,,,,,1,,,73,100
163200,note_on,,,,,192,0,3,,,,,2,,,64,100
163200,note_on,,,,,192,0,4,,,,,3,,,56,100
163200,note_on,,,,,192,0,1,,,,,0,,,80,100
163584,note_off,,,,,384,0,3,,,,,2,,,64,0
163584,note_on,,,,,0,0,3,,,,,2,,,66,100
163584,note_off,,,,,384,0,2,,,,,1,,,73,0
163584,note_on,,,,,0,0,2,,,,,1,,,72,100
163776,note_on,,,,,0,0,1,,,,,0,,,78,100
163776,note_off,,,,,576,0,1,,,,,0,,,80,0
163968,note_off,,,,,192,0,1,,,,,0,,,78,0
163968,note_on,,,,,0,0,1,,,,,0,,,75,100
164160,note_off,,,,,192,0,1,,,,,0,,,75,0
164160,note_on,,,,,0,0,1,,,,,0,,,76,100
164352,note_on,,,,,0,0,1,,,,,0,,,73,100
164352,note_on,,,,,0,0,2,,,,,1,,,73,100
164352,note_off,,,,,768,0,2,,,,,1,,,72,0
164352,note_off,,,,,192,0,1,,,,,0,,,76,0
164352,note_on,,,,,0,0,4,,,,,3,,,49,100
164352,note_off,,,,,1152,0,4,,,,,3,,,56,0
164352,note_off,,,,,768,0,3,,,,,2,,,66,0
164352,note_on,,,,,0,0,3,,,,,2,,,64,100
164544,note_off,,,,,192,0,4,,,,,3,,,49,0
164544,note_off,,,,,192,0,2,,,,,1,,,73,0
164544,note_off,,,,,192,0,1,,,,,0,,,73,0
164544,note_off,,,,,192,0,3,,,,,2,,,64,0
164736,note_on,,,,,192,0,1,,,,,0,,,68,100
164736,note_on,,,,,192,0,4,,,,,3,,,44,100
164736,note_on,,,,,192,0,2,,,,,1,,,61,100
164736,note_on,,,,,192,0,3,,,,,2,,,52,100
165120,note_on,,,,,0,0,3,,,,,2,,,54,100
165120,note_off,,,,,384,0,2,,,,,1,,,61,0
165120,note_on,,,,,0,0,2,,,,,1,,,60,100
165120,note_off,,,,,384,0,3,,,,,2,,,52,0
165312,note_on,,,,,0,0,1,,,,,0,,,66,100
165312,note_off,,,,,576,0,1,,,,,0,,,68,0
165504,note_off,,,,,192,0,1,,,,,0,,,66,0
165504,note_on,,,,,0,0,1,,,,,0,,,63,100
165696,note_on,,,,,0,0,1,,,,,0,,,64,100
165696,note_off,,,,,192,0,1,,,,,0,,,63,0
165888,note_off,,,,,768,0,2,,,,,1,,,60,0
165888,note_on,,,,,0,0,2,,,,,1,,,61,100
165888,note_off,,,,,1152,0,4,,,,,3,,,44,0
165888,note_off,,,,,192,0,1,,,,,0,,,64,0
165888,note_on,,,,,0,0,1,,,,,0,,,61,100
165888,note_off,,,,,768,0,3,,,,,2,,,54,0
165888,note_on,,,,,0,0,3,,,,,2,,,52,100
165888,note_on,,,,,0,0,4,,,,,3,,,37,100
166080,note_off,,,,,192,0,3,,,,,2,,,52,0
166080,note_off,,,,,192,0,1,,,,,0,,,61,0
166080,note_off,,,,,192,0,4,,,,,3,,,37,0
166080,note_off,,,,,192,0,2,,,,,1,,,61,0
166272,note_on,,,,,192,0,1,,,,,0,,,75,100
166272,note_on,,,,,192,0,2,,,,,1,,,71,100
166272,note_on,,,,,192,0,3,,,,,2,,,66,100
166656,note_off,,,,,384,0,2,,,,,1,,,71,0
166656,note_on,,,,,0,0,2,,,,,1,,,70,100
166656,note_off,,,,,384,0,1,,,,,0,,,75,0
166656,note_on,,,,,0,0,1,,,,,0,,,76,100
166848,note_off,,,,,576,0,3,,,,,2,,,66,0
166848,note_on,,,,,0,0,3,,,,,2,,,64,100
167040,note_off,,,,,384,0,2,,,,,1,,,70,0
167040,note_off,,,,,192,0,3,,,,,2,,,64,0
167040,note_on,,,,,0,0,1,,,,,0,,,70,100
167040,note_off,,,,,384,0,1,,,,,0,,,76,0
167040,note_on,,,,,0,0,2,,,,,1,,,64,100
167040,note_on,,,,,0,0,3,,,,,2,,,61,100
167232,note_off,,,,,192,0,3,,,,,2,,,61,0
167232,note_on,,,,,0,0,3,,,,,2,,,63,100
167424,note_off,,,,,384,0,1,,,,,0,,,70,0
167424,note_off,,,,,384,0,2,,,,,1,,,64,0
167424,note_on,,,,,0,0,2,,,,,1,,,63,100
167424,note_on,,,,,0,0,3,,,,,2,,,59,100
167424,note_off,,,,,192,0,3,,,,,2,,,63,0
167424,note_on,,,,,0,0,1,,,,,0,,,71,100
167616,note_off,,,,,192,0,3,,,,,2,,,59,0
167616,note_off,,,,,192,0,2,,,,,1,,,63,0
167616,note_off,,,,,192,0,1,,,,,0,,,71,0
167808,note_on,,,,,192,0,2,,,,,1,,,75,100
167808,note_on,,,,,1728,0,4,,,,,3,,,54,100
167808,note_on,,,,,192,0,1,,,,,0,,,87,100
167808,note_on,,,,,192,0,3,,,,,2,,,71,100
168192,note_on,,,,,0,0,2,,,,,1,,,76,100
168192,note_off,,,,,384,0,2,,,,,1,,,75,0
168192,note_off,,,,,384,0,1,,,,,0,,,87,0
168192,note_on,,,,,0,0,3,,,,,2,,,70,100
168192,note_off,,,,,384,0,3,,,,,2,,,71,0
168192,note_on,,,,,0,0,1,,,,,0,,,90,100
168384,note_off,,,,,576,0,4,,,,,3,,,54,0
168384,note_on,,,,,0,0,4,,,,,3,,,52,100
168576,note_off,,,,,192,0,4,,,,,3,,,52,0
168576,note_off,,,,,384,0,1,,,,,0,,,90,0
168576,note_on,,,,,0,0,1,,,,,0,,,82,100
168576,note_off,,,,,384,0,2,,,,,1,,,76,0
168576,note_on,,,,,0,0,2,,,,,1,,,70,100
168576,note_off,,,,,384,0,3,,,,,2,,,70,0
168576,note_on,,,,,0,0,4,,,,,3,,,49,100
168576,note_on,,,,,0,0,3,,,,,2,,,64,100
168768,note_on,,,,,0,0,4,,,,,3,,,51,100
168768,note_off,,,,,192,0,4,,,,,3,,,49,0
168960,note_off,,,,,384,0,3,,,,,2,,,64,0
168960,note_on,,,,,0,0,3,,,,,2,,,63,100
168960,note_on,,,,,0,0,2,,,,,1,,,71,100
168960,note_off,,,,,192,0,4,,,,,3,,,51,0
168960,note_on,,,,,0,0,4,,,,,3,,,47,100
168960,note_on,,,,,0,0,1,,,,,0,,,83,100
168960,note_off,,,,,384,0,1,,,,,0,,,82,0
168960,note_off,,,,,384,0,2,,,,,1,,,70,0
169152,note_off,,,,,192,0,2,,,,,1,,,71,0
169152,note_off,,,,,192,0,3,,,,,2,,,63,0
169152,note_off,,,,,192,0,4,,,,,3,,,47,0
169152,note_off,,,,,192,0,1,,,,,0,,,83,0
169344,note_on,,,,,192,0,3,,,,,2,,,63,100
169344,note_on,,,,,192,0,4,,,,,3,,,54,100
169344,note_on,,,,,192,0,2,,,,,1,,,71,100
169344,note_on,,,,,192,0,1,,,,,0,,,78,100
170112,note_off,,,,,768,0,2,,,,,1,,,71,0
170112,note_on,,,,,0,0,2,,,,,1,,,66,100
170112,note_off,,,,,768,0,3,,,,,2,,,63,0
170112,note_on,,,,,0,0,3,,,,,2,,,62,100
170496,note_on,,,,,0,0,3,,,,,2,,,61,100
170496,note_off,,,,,384,0,3,,,,,2,,,62,0
170496,note_off,,,,,384,0,2,,,,,1,,,66,0
170496,note_on,,,,,0,0,2,,,,,1,,,68,100
170880,note_off,,,,,1536,0,1,,,,,0,,,78,0
170880,note_on,,,,,0,0,1,,,,,0,,,76,100
171264,note_off,,,,,768,0,2,,,,,1,,,68,0
171264,note_on,,,,,0,0,3,,,,,2,,,66,100
171264,note_off,,,,,768,0,3,,,,,2,,,61,0
171264,note_on,,,,,0,0,1,,,,,0,,,73,100
171264,note_on,,,,,0,0,2,,,,,1,,,70,100
171264,note_off,,,,,384,0,1,,,,,0,,,76,0
171648,note_off,,,,,384,0,1,,,,,0,,,73,0
171648,note_on,,,,,0,0,1,,,,,0,,,75,100
172032,note_off,,,,,768,0,2,,,,,1,,,70,0
172032,note_off,,,,,384,0,1,,,,,0,,,75,0
172032,note_on,,,,,0,0,2,,,,,1,,,71,100
172032,note_off,,,,,2688,0,4,,,,,3,,,54,0
172032,note_on,,,,,0,0,4,,,,,3,,,59,100
172032,note_on,,,,,0,0,1,,,,,0,,,71,100
172032,note_on,,,,,0,0,3,,,,,2,,,63,100
172032,note_off,,,,,768,0,3,,,,,2,,,66,0
172128,note_off,,,,,96,0,4,,,,,3,,,59,0
172128,note_off,,,,,96,0,3,,,,,2,,,63,0
172224,note_on,,,,,96,0,3,,,,,2,,,66,100
172224,note_on,,,,,96,0,4,,,,,3,,,63,100
172320,note_off,,,,,96,0,4,,,,,3,,,63,0
172320,note_off,,,,,96,0,3,,,,,2,,,66,0
172416,note_on,,,,,96,0,3,,,,,2,,,66,100
172416,note_on,,,,,96,0,4,,,,,3,,,63,100
172512,note_off,,,,,96,0,4,,,,,3,,,63,0
172512,note_off,,,,,96,0,3,,,,,2,,,66,0
172800,note_on,,,,,288,0,4,,,,,3,,,59,100
172800,note_off,,,,,768,0,1,,,,,0,,,71,0
172800,note_on,,,,,288,0,3,,,,,2,,,63,100
172896,note_off,,,,,96,0,3,,,,,2,,,63,0
172896,note_off,,,,,96,0,4,,,,,3,,,59,0
172992,note_on,,,,,96,0,4,,,,,3,,,63,100
172992,note_on,,,,,96,0,3,,,,,2,,,66,100
173088,note_off,,,,,96,0,4,,,,,3,,,63,0
173088,note_off,,,,,96,0,3,,,,,2,,,66,0
173184,note_on,,,,,0,0,2,,,,,1,,,73,100
173184,note_on,,,,,96,0,3,,,,,2,,,66,100
173184,note_on,,,,,96,0,4,,,,,3,,,63,100
173184,note_off,,,,,1152,0,2,,,,,1,,,71,0
173280,note_off,,,,,96,0,3,,,,,2,,,66,0
173280,note_off,,,,,96,0,4,,,,,3,,,63,0
173376,note_off,,,,,192,0,2,,,,,1,,,73,0
173376,note_on,,,,,0,0,2,,,,,1,,,71,100
173568,note_on,,,,,288,0,4,,,,,3,,,59,100
173568,note_on,,,,,288,0,3,,,,,2,,,63,100
173568,note_off,,,,,192,0,2,,,,,1,,,71,0
173568,note_on,,,,,0,0,2,,,,,1,,,71,100
173664,note_off,,,,,96,0,4,,,,,3,,,59,0
173664,note_off,,,,,96,0,3,,,,,2,,,63,0
173760,note_on,,,,,96,0,3,,,,,2,,,66,100
173760,note_on,,,,,96,0,4,,,,,3,,,63,100
173760,note_off,,,,,192,0,2,,,,,1,,,71,0
173856,note_off,,,,,96,0,3,,,,,2,,,66,0
173856,note_off,,,,,96,0,4,,,,,3,,,63,0
173952,note_on,,,,,192,0,2,,,,,1,,,73,100
173952,note_on,,,,,96,0,4,,,,,3,,,63,100
173952,note_on,,,,,96,0,3,,,,,2,,,66,100
174048,note_off,,,,,96,0,4,,,,,3,,,63,0
174048,note_off,,,,,96,0,3,,,,,2,,,66,0
174144,note_on,,,,,0,0,2,,,,,1,,,71,100
174144,note_off,,,,,192,0,2,,,,,1,,,73,0
174336,note_on,,,,,0,0,2,,,,,1,,,71,100
174336,note_off,,,,,192,0,2,,,,,1,,,71,0
174336,note_on,,,,,288,0,4,,,,,3,,,59,100
174336,note_on,,,,,288,0,3,,,,,2,,,63,100
174432,note_off,,,,,96,0,3,,,,,2,,,63,0
174432,note_off,,,,,96,0,4,,,,,3,,,59,0
174528,note_on,,,,,96,0,4,,,,,3,,,63,100
174528,note_on,,,,,96,0,3,,,,,2,,,66,100
174528,note_off,,,,,192,0,2,,,,,1,,,71,0
174624,note_off,,,,,96,0,4,,,,,3,,,63,0
174624,note_off,,,,,96,0,3,,,,,2,,,66,0
174720,note_on,,,,,96,0,4,,,,,3,,,63,100
174720,note_on,,,,,96,0,3,,,,,2,,,66,100
174720,note_on,,,,,192,0,2,,,,,1,,,75,100
174816,note_off,,,,,96,0,4,,,,,3,,,63,0
174816,note_off,,,,,96,0,3,,,,,2,,,66,0
174912,note_on,,,,,0,0,2,,,,,1,,,73,100
174912,note_off,,,,,192,0,2,,,,,1,,,75,0
175104,note_on,,,,,0,0,2,,,,,1,,,73,100
175104,note_off,,,,,192,0,2,,,,,1,,,73,0
175104,note_on,,,,,288,0,3,,,,,2,,,64,100
175104,note_on,,,,,288,0,4,,,,,3,,,54,100
175200,note_off,,,,,96,0,3,,,,,2,,,64,0
175200,note_off,,,,,96,0,4,,,,,3,,,54,0
175296,note_on,,,,,96,0,4,,,,,3,,,64,100
175296,note_off,,,,,192,0,2,,,,,1,,,73,0
175296,note_on,,,,,96,0,3,,,,,2,,,66,100
175392,note_off,,,,,96,0,4,,,,,3,,,64,0
175392,note_off,,,,,96,0,3,,,,,2,,,66,0
175488,note_on,,,,,192,0,2,,,,,1,,,73,100
175488,note_on,,,,,96,0,4,,,,,3,,,64,100
175488,note_on,,,,,96,0,3,,,,,2,,,66,100
175584,note_off,,,,,96,0,4,,,,,3,,,64,0
175584,note_off,,,,,96,0,3,,,,,2,,,66,0
175872,note_on,,,,,288,0,3,,,,,2,,,64,100
175872,note_on,,,,,288,0,4,,,,,3,,,54,100
175968,note_off,,,,,96,0,3,,,,,2,,,64,0
175968,note_off,,,,,96,0,4,,,,,3,,,54,0
176064,note_on,,,,,0,0,2,,,,,1,,,71,100
176064,note_on,,,,,96,0,3,,,,,2,,,66,100
176064,note_off,,,,,576,0,2,,,,,1,,,73,0
176064,note_on,,,,,96,0,4,,,,,3,,,64,100
176160,note_off,,,,,96,0,3,,,,,2,,,66,0
176160,note_off,,,,,96,0,4,,,,,3,,,64,0
176256,note_on,,,,,96,0,3,,,,,2,,,66,100
176256,note_on,,,,,96,0,4,,,,,3,,,64,100
176256,note_off,,,,,192,0,2,,,,,1,,,71,0
176256,note_on,,,,,0,0,2,,,,,1,,,70,100
176352,note_off,,,,,96,0,4,,,,,3,,,64,0
176352,note_off,,,,,96,0,3,,,,,2,,,66,0
176448,note_on,,,,,0,0,2,,,,,1,,,68,100
176448,note_off,,,,,192,0,2,,,,,1,,,70,0
176640,note_on,,,,,288,0,3,,,,,2,,,64,100
176640,note_off,,,,,192,0,2,,,,,1,,,68,0
176640,note_on,,,,,0,0,2,,,,,1,,,66,100
176640,note_on,,,,,288,0,4,,,,,3,,,54,100
176736,note_off,,,,,96,0,3,,,,,2,,,64,0
176736,note_off,,,,,96,0,4,,,,,3,,,54,0
176832,note_on,,,,,96,0,3,,,,,2,,,66,100
176832,note_on,,,,,96,0,4,,,,,3,,,64,100
176928,note_off,,,,,96,0,4,,,,,3,,,64,0
176928,note_off,,,,,96,0,3,,,,,2,,,66,0
177024,note_on,,,,,96,0,3,,,,,2,,,66,100
177024,note_on,,,,,4224,0,1,,,,,0,,,78,100
177024,note_on,,,,,96,0,4,,,,,3,,,64,100
177024,note_off,,,,,384,0,2,,,,,1,,,66,0
177024,note_on,,,,,0,0,2,,,,,1,,,66,100
177120,note_off,,,,,96,0,3,,,,,2,,,66,0
177120,note_off,,,,,96,0,4,,,,,3,,,64,0
177216,note_on,,,,,0,0,2,,,,,1,,,70,100
177216,note_off,,,,,192,0,2,,,,,1,,,66,0
177408,note_on,,,,,288,0,4,,,,,3,,,54,100
177408,note_on,,,,,288,0,3,,,,,2,,,64,100
177408,note_off,,,,,384,0,1,,,,,0,,,78,0
177408,note_on,,,,,0,0,1,,,,,0,,,80,100
177408,note_on,,,,,0,0,2,,,,,1,,,68,100
177408,note_off,,,,,192,0,2,,,,,1,,,70,0
177504,note_off,,,,,96,0,4,,,,,3,,,54,0
177504,note_off,,,,,96,0,3,,,,,2,,,64,0
177600,note_on,,,,,0,0,2,,,,,1,,,71,100
177600,note_off,,,,,192,0,2,,,,,1,,,68,0
177600,note_on,,,,,96,0,3,,,,,2,,,66,100
177600,note_on,,,,,96,0,4,,,,,3,,,64,100
177696,note_off,,,,,96,0,3,,,,,2,,,66,0
177696,note_off,,,,,96,0,4,,,,,3,,,64,0
177792,note_off,,,,,384,0,1,,,,,0,,,80,0
177792,note_on,,,,,96,0,4,,,,,3,,,64,100
177792,note_on,,,,,0,0,1,,,,,0,,,82,100
177792,note_on,,,,,96,0,3,,,,,2,,,66,100
177792,note_off,,,,,192,0,2,,,,,1,,,71,0
177792,note_on,,,,,0,0,2,,,,,1,,,70,100
177888,note_off,,,,,96,0,3,,,,,2,,,66,0
177888,note_off,,,,,96,0,4,,,,,3,,,64,0
177984,note_off,,,,,192,0,2,,,,,1,,,70,0
177984,note_on,,,,,0,0,2,,,,,1,,,73,100
178176,note_off,,,,,384,0,1,,,,,0,,,82,0
178176,note_on,,,,,288,0,3,,,,,2,,,63,100
178176,note_on,,,,,0,0,1,,,,,0,,,83,100
178176,note_on,,,,,288,0,4,,,,,3,,,59,100
178176,note_on,,,,,0,0,2,,,,,1,,,71,100
178176,note_off,,,,,192,0,2,,,,,1,,,73,0
178272,note_off,,,,,96,0,3,,,,,2,,,63,0
178272,note_off,,,,,96,0,4,,,,,3,,,59,0
178368,note_on,,,,,96,0,4,,,,,3,,,63,100
178368,note_on,,,,,96,0,3,,,,,2,,,66,100
178464,note_off,,,,,96,0,3,,,,,2,,,66,0
178464,note_off,,,,,96,0,4,,,,,3,,,63,0
178560,note_on,,,,,96,0,4,,,,,3,,,63,100
178656,note_off,,,,,96,0,4,,,,,3,,,63,0
178752,note_on,,,,,288,0,3,,,,,2,,,63,100
178848,note_off,,,,,96,0,3,,,,,2,,,63,0
178944,note_on,,,,,288,0,4,,,,,3,,,59,100
178944,note_on,,,,,96,0,3,,,,,2,,,66,100
179040,note_off,,,,,96,0,4,,,,,3,,,59,0
179040,note_off,,,,,96,0,3,,,,,2,,,66,0
179136,note_on,,,,,96,0,3,,,,,2,,,66,100
179136,note_on,,,,,96,0,4,,,,,3,,,63,100
179232,note_off,,,,,96,0,3,,,,,2,,,66,0
179232,note_off,,,,,96,0,4,,,,,3,,,63,0
179328,note_on,,,,,0,0,1,,,,,0,,,85,100
179328,note_off,,,,,1152,0,1,,,,,0,,,83,0
179328,note_on,,,,,0,0,2,,,,,1,,,73,100
179328,note_off,,,,,1152,0,2,,,,,1,,,71,0
179328,note_on,,,,,96,0,4,,,,,3,,,63,100
179424,note_off,,,,,96,0,4,,,,,3,,,63,0
179520,note_on,,,,,288,0,3,,,,,2,,,63,100
179520,note_on,,,,,0,0,1,,,,,0,,,83,100
179520,note_off,,,,,192,0,2,,,,,1,,,73,0
179520,note_off,,,,,192,0,1,,,,,0,,,85,0
179520,note_on,,,,,0,0,2,,,,,1,,,71,100
179616,note_off,,,,,96,0,3,,,,,2,,,63,0
179712,note_off,,,,,192,0,1,,,,,0,,,83,0
179712,note_on,,,,,0,0,1,,,,,0,,,83,100
179712,note_on,,,,,288,0,4,,,,,3,,,59,100
179712,note_on,,,,,96,0,3,,,,,2,,,63,100
179712,note_off,,,,,192,0,2,,,,,1,,,71,0
179712,note_on,,,,,0,0,2,,,,,1,,,71,100
179808,note_off,,,,,96,0,4,,,,,3,,,59,0
179808,note_off,,,,,96,0,3,,,,,2,,,63,0
179904,note_off,,,,,192,0,2,,,,,1,,,71,0
179904,note_off,,,,,192,0,1,,,,,0,,,83,0
179904,note_on,,,,,96,0,4,,,,,3,,,63,100
179904,note_on,,,,,96,0,3,,,,,2,,,66,100
180000,note_off,,,,,96,0,4,,,,,3,,,63,0
180000,note_off,,,,,96,0,3,,,,,2,,,66,0
180096,note_on,,,,,192,0,1,,,,,0,,,85,100
180096,note_on,,,,,96,0,3,,,,,2,,,66,100
180096,note_on,,,,,96,0,4,,,,,3,,,63,100
180096,note_on,,,,,192,0,2,,,,,1,,,73,100
180192,note_off,,,,,96,0,4,,,,,3,,,63,0
180192,note_off,,,,,96,0,3,,,,,2,,,66,0
180288,note_off,,,,,192,0,2,,,,,1,,,73,0
180288,note_on,,,,,0,0,1,,,,,0,,,83,100
180288,note_off,,,,,192,0,1,,,,,0,,,85,0
180288,note_on,,,,,0,0,2,,,,,1,,,71,100
180480,note_off,,,,,192,0,1,,,,,0,,,83,0
180480,note_on,,,,,0,0,1,,,,,0,,,83,100
180480,note_off,,,,,192,0,2,,,,,1,,,71,0
180480,note_on,,,,,0,0,2,,,,,1,,,71,100
180480,note_on,,,,,288,0,3,,,,,2,,,63,100
180480,note_on,,,,,288,0,4,,,,,3,,,59,100
180576,note_off,,,,,96,0,4,,,,,3,,,59,0
180576,note_off,,,,,96,0,3,,,,,2,,,63,0
180672,note_on,,,,,96,0,4,,,,,3,,,63,100
180672,note_off,,,,,192,0,2,,,,,1,,,71,0
180672,note_off,,,,,192,0,1,,,,,0,,,83,0
180672,note_on,,,,,96,0,3,,,,,2,,,66,100
180768,note_off,,,,,96,0,3,,,,,2,,,66,0
180768,note_off,,,,,96,0,4,,,,,3,,,63,0
180864,note_on,,,,,96,0,4,,,,,3,,,63,100
180864,note_on,,,,,192,0,2,,,,,1,,,75,100
180864,note_on,,,,,192,0,1,,,,,0,,,87,100
180864,note_on,,,,,96,0,3,,,,,2,,,66,100
180960,note_off,,,,,96,0,3,,,,,2,,,66,0
180960,note_off,,,,,96,0,4,,,,,3,,,63,0
181056,note_on,,,,,0,0,2,,,,,1,,,73,100
181056,note_off,,,,,192,0,2,,,,,1,,,75,0
181056,note_off,,,,,192,0,1,,,,,0,,,87,0
181056,note_on,,,,,0,0,1,,,,,0,,,85,100
181248,note_on,,,,,288,0,4,,,,,3,,,54,100
181248,note_on,,,,,0,0,2,,,,,1,,,73,100
181248,note_off,,,,,192,0,2,,,,,1,,,73,0
181248,note_on,,,,,288,0,3,,,,,2,,,64,100
181248,note_off,,,,,192,0,1,,,,,0,,,85,0
181248,note_on,,,,,0,0,1,,,,,0,,,85,100
181344,note_off,,,,,96,0,4,,,,,3,,,54,0
181344,note_off,,,,,96,0,3,,,,,2,,,64,0
181440,note_off,,,,,192,0,1,,,,,0,,,85,0
181440,note_on,,,,,96,0,4,,,,,3,,,64,100
181440,note_off,,,,,192,0,2,,,,,1,,,73,0
181440,note_on,,,,,96,0,3,,,,,2,,,66,100
181536,note_off,,,,,96,0,4,,,,,3,,,64,0
181536,note_off,,,,,96,0,3,,,,,2,,,66,0
181632,note_on,,,,,192,0,2,,,,,1,,,73,100
181632,note_on,,,,,96,0,3,,,,,2,,,66,100
181632,note_on,,,,,96,0,4,,,,,3,,,64,100
181632,note_on,,,,,192,0,1,,,,,0,,,85,100
181728,note_off,,,,,96,0,4,,,,,3,,,64,0
181728,note_off,,,,,96,0,3,,,,,2,,,66,0
182016,note_on,,,,,288,0,3,,,,,2,,,64,100
182016,note_on,,,,,288,0,4,,,,,3,,,54,100
182112,note_off,,,,,96,0,3,,,,,2,,,64,0
182112,note_off,,,,,96,0,4,,,,,3,,,54,0
182208,note_on,,,,,0,0,2,,,,,1,,,71,100
182208,note_off,,,,,576,0,2,,,,,1,,,73,0
182208,note_on,,,,,96,0,3,,,,,2,,,66,100
182208,note_off,,,,,576,0,1,,,,,0,,,85,0
182208,note_on,,,,,0,0,1,,,,,0,,,83,100
182208,note_on,,,,,96,0,4,,,,,3,,,64,100
182304,note_off,,,,,96,0,4,,,,,3,,,64,0
182304,note_off,,,,,96,0,3,,,,,2,,,66,0
182400,note_on,,,,,96,0,4,,,,,3,,,64,100
182400,note_on,,,,,0,0,1,,,,,0,,,82,100
182400,note_off,,,,,192,0,1,,,,,0,,,83,0
182400,note_on,,,,,96,0,3,,,,,2,,,66,100
182400,note_on,,,,,0,0,2,,,,,1,,,70,100
182400,note_off,,,,,192,0,2,,,,,1,,,71,0
182496,note_off,,,,,96,0,3,,,,,2,,,66,0
182496,note_off,,,,,96,0,4,,,,,3,,,64,0
182592,note_on,,,,,0,0,2,,,,,1,,,68,100
182592,note_on,,,,,0,0,1,,,,,0,,,80,100
182592,note_off,,,,,192,0,2,,,,,1,,,70,0
182592,note_off,,,,,192,0,1,,,,,0,,,82,0
182784,note_on,,,,,288,0,4,,,,,3,,,54,100
182784,note_off,,,,,192,0,2,,,,,1,,,68,0
182784,note_off,,,,,192,0,1,,,,,0,,,80,0
182784,note_on,,,,,0,0,2,,,,,1,,,66,100
182784,note_on,,,,,0,0,1,,,,,0,,,78,100
182784,note_on,,,,,288,0,3,,,,,2,,,64,100
182880,note_off,,,,,96,0,3,,,,,2,,,64,0
182880,note_off,,,,,96,0,4,,,,,3,,,54,0
182976,note_on,,,,,96,0,4,,,,,3,,,64,100
182976,note_off,,,,,192,0,1,,,,,0,,,78,0
182976,note_on,,,,,96,0,3,,,,,2,,,66,100
182976,note_off,,,,,192,0,2,,,,,1,,,66,0
183072,note_off,,,,,96,0,3,,,,,2,,,66,0
183072,note_off,,,,,96,0,4,,,,,3,,,64,0
183168,note_on,,,,,96,0,3,,,,,2,,,66,100
183168,note_on,,,,,96,0,4,,,,,3,,,64,100
183168,note_on,,,,,192,0,2,,,,,1,,,66,100
183168,note_on,,,,,192,0,1,,,,,0,,,78,100
183264,note_off,,,,,96,0,3,,,,,2,,,66,0
183264,note_off,,,,,96,0,4,,,,,3,,,64,0
183456,note_on,,,,,0,0,1,,,,,0,,,82,100
183456,note_on,,,,,0,0,2,,,,,1,,,70,100
183456,note_off,,,,,288,0,2,,,,,1,,,66,0
183456,note_off,,,,,288,0,1,,,,,0,,,78,0
183552,note_on,,,,,288,0,4,,,,,3,,,54,100
183552,note_off,,,,,96,0,2,,,,,1,,,70,0
183552,note_on,,,,,288,0,3,,,,,2,,,64,100
183552,note_off,,,,,96,0,1,,,,,0,,,82,0
183552,note_on,,,,,0,0,1,,,,,0,,,80,100
183552,note_on,,,,,0,0,2,,,,,1,,,68,100
183648,note_off,,,,,96,0,4,,,,,3,,,54,0
183648,note_off,,,,,96,0,3,,,,,2,,,64,0
183744,note_on,,,,,96,0,3,,,,,2,,,66,100
183744,note_on,,,,,96,0,4,,,,,3,,,64,100
183840,note_off,,,,,96,0,3,,,,,2,,,66,0
183840,note_off,,,,,96,0,4,,,,,3,,,64,0
183936,note_off,,,,,384,0,2,,,,,1,,,68,0
183936,note_on,,,,,96,0,4,,,,,3,,,64,100
183936,note_on,,,,,96,0,3,,,,,2,,,66,100
183936,note_off,,,,,384,0,1,,,,,0,,,80,0
183936,note_on,,,,,0,0,1,,,,,0,,,78,100
183936,note_on,,,,,0,0,2,,,,,1,,,66,100
184032,note_off,,,,,96,0,3,,,,,2,,,66,0
184032,note_off,,,,,96,0,4,,,,,3,,,64,0
184320,note_on,,,,,288,0,4,,,,,3,,,49,100
184320,note_on,,,,,0,0,1,,,,,0,,,76,100
184320,note_off,,,,,384,0,1,,,,,0,,,78,0
184320,note_on,,,,,0,0,2,,,,,1,,,66,100
184320,note_off,,,,,384,0,2,,,,,1,,,66,0
184416,note_off,,,,,96,0,2,,,,,1,,,66,0
184416,note_off,,,,,96,0,1,,,,,0,,,76,0
184512,note_on,,,,,96,0,2,,,,,1,,,76,100
184512,note_off,,,,,192,0,4,,,,,3,,,49,0
184512,note_on,,,,,96,0,1,,,,,0,,,78,100
184608,note_off,,,,,96,0,1,,,,,0,,,78,0
184608,note_off,,,,,96,0,2,,,,,1,,,76,0
184704,note_on,,,,,96,0,2,,,,,1,,,76,100
184704,note_on,,,,,96,0,1,,,,,0,,,78,100
184704,note_on,,,,,192,0,4,,,,,3,,,49,100
184800,note_off,,,,,96,0,2,,,,,1,,,76,0
184800,note_off,,,,,96,0,1,,,,,0,,,78,0
185088,note_on,,,,,288,0,1,,,,,0,,,76,100
185088,note_on,,,,,288,0,2,,,,,1,,,66,100
185184,note_off,,,,,96,0,1,,,,,0,,,76,0
185184,note_off,,,,,96,0,2,,,,,1,,,66,0
185280,note_on,,,,,96,0,1,,,,,0,,,78,100
185280,note_off,,,,,576,0,4,,,,,3,,,49,0
185280,note_on,,,,,0,0,4,,,,,3,,,47,100
185280,note_on,,,,,96,0,2,,,,,1,,,76,100
185376,note_off,,,,,96,0,1,,,,,0,,,78,0
185376,note_off,,,,,96,0,2,,,,,1,,,76,0
185472,note_on,,,,,96,0,1,,,,,0,,,78,100
185472,note_on,,,,,96,0,2,,,,,1,,,76,100
185472,note_off,,,,,192,0,4,,,,,3,,,47,0
185472,note_on,,,,,0,0,4,,,,,3,,,46,100
185568,note_off,,,,,96,0,1,,,,,0,,,78,0
185568,note_off,,,,,96,0,2,,,,,1,,,76,0
185664,note_off,,,,,192,0,4,,,,,3,,,46,0
185664,note_on,,,,,0,0,4,,,,,3,,,44,100
185856,note_on,,,,,0,0,4,,,,,3,,,42,100
185856,note_on,,,,,1824,0,3,,,,,2,,,61,100
185856,note_on,,,,,288,0,2,,,,,1,,,70,100
185856,note_off,,,,,192,0,4,,,,,3,,,44,0
185856,note_on,,,,,288,0,1,,,,,0,,,76,100
185952,note_off,,,,,96,0,2,,,,,1,,,70,0
185952,note_off,,,,,96,0,1,,,,,0,,,76,0
186048,note_off,,,,,192,0,3,,,,,2,,,61,0
186048,note_on,,,,,96,0,2,,,,,1,,,76,100
186048,note_on,,,,,96,0,1,,,,,0,,,78,100
186144,note_off,,,,,96,0,2,,,,,1,,,76,0
186144,note_off,,,,,96,0,1,,,,,0,,,78,0
186240,note_on,,,,,192,0,3,,,,,2,,,61,100
186240,note_off,,,,,384,0,4,,,,,3,,,42,0
186240,note_on,,,,,96,0,2,,,,,1,,,76,100
186240,note_on,,,,,96,0,1,,,,,0,,,78,100
186336,note_off,,,,,96,0,2,,,,,1,,,76,0
186336,note_off,,,,,96,0,1,,,,,0,,,78,0
186624,note_on,,,,,288,0,1,,,,,0,,,76,100
186624,note_on,,,,,288,0,2,,,,,1,,,70,100
186720,note_off,,,,,96,0,1,,,,,0,,,76,0
186720,note_off,,,,,96,0,2,,,,,1,,,70,0
186816,note_on,,,,,96,0,1,,,,,0,,,78,100
186816,note_on,,,,,96,0,2,,,,,1,,,76,100
186816,note_off,,,,,576,0,3,,,,,2,,,61,0
186816,note_on,,,,,0,0,3,,,,,2,,,59,100
186912,note_off,,,,,96,0,1,,,,,0,,,78,0
186912,note_off,,,,,96,0,2,,,,,1,,,76,0
187008,note_off,,,,,192,0,3,,,,,2,,,59,0
187008,note_on,,,,,0,0,3,,,,,2,,,58,100
187008,note_on,,,,,96,0,2,,,,,1,,,76,100
187008,note_on,,,,,96,0,1,,,,,0,,,78,100
187104,note_off,,,,,96,0,2,,,,,1,,,76,0
187104,note_off,,,,,96,0,1,,,,,0,,,78,0
187200,note_on,,,,,0,0,3,,,,,2,,,56,100
187200,note_off,,,,,192,0,3,,,,,2,,,58,0
187392,note_on,,,,,1152,0,4,,,,,3,,,49,100
187392,note_on,,,,,288,0,2,,,,,1,,,66,100
187392,note_off,,,,,192,0,3,,,,,2,,,56,0
187392,note_on,,,,,0,0,3,,,,,2,,,54,100
187392,note_on,,,,,288,0,1,,,,,0,,,76,100
187488,note_off,,,,,96,0,1,,,,,0,,,76,0
187488,note_off,,,,,96,0,2,,,,,1,,,66,0
187584,note_on,,,,,96,0,2,,,,,1,,,76,100
187584,note_on,,,,,96,0,1,,,,,0,,,78,100
187584,note_off,,,,,192,0,4,,,,,3,,,49,0
187680,note_off,,,,,96,0,1,,,,,0,,,78,0
187680,note_off,,,,,96,0,2,,,,,1,,,76,0
187776,note_on,,,,,96,0,2,,,,,1,,,76,100
187776,note_off,,,,,384,0,3,,,,,2,,,54,0
187776,note_on,,,,,96,0,1,,,,,0,,,78,100
187776,note_on,,,,,192,0,4,,,,,3,,,49,100
187872,note_off,,,,,96,0,2,,,,,1,,,76,0
187872,note_off,,,,,96,0,1,,,,,0,,,78,0
188160,note_on,,,,,288,0,1,,,,,0,,,76,100
188160,note_on,,,,,288,0,2,,,,,1,,,66,100
188256,note_off,,,,,96,0,1,,,,,0,,,76,0
188256,note_off,,,,,96,0,2,,,,,1,,,66,0
188352,note_on,,,,,0,0,4,,,,,3,,,47,100
188352,note_off,,,,,576,0,4,,,,,3,,,49,0
188352,note_on,,,,,96,0,2,,,,,1,,,76,100
188352,note_on,,,,,96,0,1,,,,,0,,,78,100
188448,note_off,,,,,96,0,2,,,,,1,,,76,0
188448,note_off,,,,,96,0,1,,,,,0,,,78,0
188544,note_on,,,,,96,0,2,,,,,1,,,76,100
188544,note_on,,,,,0,0,4,,,,,3,,,46,100
188544,note_on,,,,,96,0,1,,,,,0,,,78,100
188544,note_off,,,,,192,0,4,,,,,3,,,47,0
188640,note_off,,,,,96,0,1,,,,,0,,,78,0
188640,note_off,,,,,96,0,2,,,,,1,,,76,0
188736,note_off,,,,,192,0,4,,,,,3,,,46,0
188736,note_on,,,,,0,0,4,,,,,3,,,44,100
188928,note_off,,,,,192,0,4,,,,,3,,,44,0
188928,note_on,,,,,0,0,4,,,,,3,,,42,100
188928,note_on,,,,,288,0,2,,,,,1,,,70,100
188928,note_on,,,,,288,0,1,,,,,0,,,76,100
188928,note_on,,,,,1152,0,3,,,,,2,,,61,100
189024,note_off,,,,,96,0,1,,,,,0,,,76,0
189024,note_off,,,,,96,0,2,,,,,1,,,70,0
189120,note_off,,,,,192,0,3,,,,,2,,,61,0
189120,note_on,,,,,96,0,2,,,,,1,,,76,100
189120,note_on,,,,,96,0,1,,,,,0,,,78,100
189216,note_off,,,,,96,0,2,,,,,1,,,76,0
189216,note_off,,,,,96,0,1,,,,,0,,,78,0
189312,note_on,,,,,96,0,2,,,,,1,,,76,100
189312,note_on,,,,,192,0,3,,,,,2,,,61,100
189312,note_off,,,,,384,0,4,,,,,3,,,42,0
189312,note_on,,,,,96,0,1,,,,,0,,,78,100
189408,note_off,,,,,96,0,1,,,,,0,,,78,0
189408,note_off,,,,,96,0,2,,,,,1,,,76,0
189696,note_on,,,,,288,0,1,,,,,0,,,76,100
189696,note_on,,,,,288,0,2,,,,,1,,,70,100
189792,note_off,,,,,96,0,1,,,,,0,,,76,0
189792,note_off,,,,,96,0,2,,,,,1,,,70,0
189888,note_off,,,,,576,0,3,,,,,2,,,61,0
189888,note_on,,,,,96,0,2,,,,,1,,,76,100
189888,note_on,,,,,96,0,1,,,,,0,,,78,100
189888,note_on,,,,,0,0,3,,,,,2,,,59,100
189984,note_off,,,,,96,0,1,,,,,0,,,78,0
189984,note_off,,,,,96,0,2,,,,,1,,,76,0
190080,note_on,,,,,96,0,1,,,,,0,,,78,100
190080,note_on,,,,,96,0,2,,,,,1,,,76,100
190080,note_on,,,,,0,0,3,,,,,2,,,58,100
190080,note_off,,,,,192,0,3,,,,,2,,,59,0
190176,note_off,,,,,96,0,2,,,,,1,,,76,0
190176,note_off,,,,,96,0,1,,,,,0,,,78,0
190272,note_off,,,,,192,0,3,,,,,2,,,58,0
190272,note_on,,,,,0,0,3,,,,,2,,,56,100
190464,note_off,,,,,192,0,3,,,,,2,,,56,0
190464,note_on,,,,,0,0,3,,,,,2,,,54,100
190464,note_on,,,,,288,0,2,,,,,1,,,70,100
190464,note_on,,,,,288,0,1,,,,,0,,,76,100
190560,note_off,,,,,96,0,2,,,,,1,,,70,0
190560,note_off,,,,,96,0,1,,,,,0,,,76,0
190656,note_on,,,,,96,0,2,,,,,1,,,76,100
190656,note_on,,,,,96,0,1,,,,,0,,,82,100
190752,note_off,,,,,96,0,2,,,,,1,,,76,0
190752,note_off,,,,,96,0,1,,,,,0,,,82,0
190848,note_off,,,,,384,0,3,,,,,2,,,54,0
190848,note_on,,,,,96,0,1,,,,,0,,,82,100
190848,note_on,,,,,96,0,2,,,,,1,,,76,100
190944,note_off,,,,,96,0,1,,,,,0,,,82,0
190944,note_off,,,,,96,0,2,,,,,1,,,76,0
191232,note_on,,,,,288,0,2,,,,,1,,,70,100
191232,note_on,,,,,288,0,1,,,,,0,,,76,100
191232,note_on,,,,,1920,0,4,,,,,3,,,43,100
191328,note_off,,,,,96,0,1,,,,,0,,,76,0
191328,note_off,,,,,96,0,2,,,,,1,,,70,0
191424,note_on,,,,,96,0,1,,,,,0,,,82,100
191424,note_on,,,,,96,0,2,,,,,1,,,76,100
191520,note_off,,,,,96,0,1,,,,,0,,,82,0
191520,note_off,,,,,96,0,2,,,,,1,,,76,0
191616,note_on,,,,,96,0,1,,,,,0,,,82,100
191616,note_on,,,,,96,0,2,,,,,1,,,76,100
191712,note_off,,,,,96,0,1,,,,,0,,,82,0
191712,note_off,,,,,96,0,2,,,,,1,,,76,0
192000,note_on,,,,,288,0,1,,,,,0,,,77,100
192000,note_on,,,,,1152,0,3,,,,,2,,,67,100
192000,note_on,,,,,288,0,2,,,,,1,,,71,100
192096,note_off,,,,,96,0,1,,,,,0,,,77,0
192096,note_off,,,,,96,0,2,,,,,1,,,71,0
192192,note_on,,,,,96,0,2,,,,,1,,,77,100
192192,note_off,,,,,192,0,3,,,,,2,,,67,0
192192,note_on,,,,,96,0,1,,,,,0,,,83,100
192288,note_off,,,,,96,0,2,,,,,1,,,77,0
192288,note_off,,,,,96,0,1,,,,,0,,,83,0
192384,note_on,,,,,96,0,2,,,,,1,,,77,100
192384,note_on,,,,,192,0,3,,,,,2,,,67,100
192384,note_on,,,,,96,0,1,,,,,0,,,83,100
192480,note_off,,,,,96,0,2,,,,,1,,,77,0
192480,note_off,,,,,96,0,1,,,,,0,,,83,0
192768,note_on,,,,,288,0,2,,,,,1,,,71,100
192768,note_on,,,,,288,0,1,,,,,0,,,77,100
192864,note_off,,,,,96,0,1,,,,,0,,,77,0
192864,note_off,,,,,96,0,2,,,,,1,,,71,0
192960,note_on,,,,,96,0,1,,,,,0,,,83,100
192960,note_on,,,,,96,0,2,,,,,1,,,77,100
192960,note_off,,,,,576,0,3,,,,,2,,,67,0
192960,note_on,,,,,0,0,3,,,,,2,,,65,100
193056,note_off,,,,,96,0,1,,,,,0,,,83,0
193056,note_off,,,,,96,0,2,,,,,1,,,77,0
193152,note_on,,,,,96,0,2,,,,,1,,,77,100
193152,note_off,,,,,192,0,3,,,,,2,,,65,0
193152,note_on,,,,,0,0,3,,,,,2,,,64,100
193152,note_on,,,,,96,0,1,,,,,0,,,83,100
193248,note_off,,,,,96,0,2,,,,,1,,,77,0
193248,note_off,,,,,96,0,1,,,,,0,,,83,0
193344,note_off,,,,,192,0,3,,,,,2,,,64,0
193344,note_on,,,,,0,0,3,,,,,2,,,62,100
193536,note_on,,,,,288,0,2,,,,,1,,,76,100
193536,note_on,,,,,0,0,4,,,,,3,,,36,100
193536,note_on,,,,,0,0,2,,,,,1,,,72,100
193536,note_off,,,,,2304,0,4,,,,,3,,,43,0
193536,note_off,,,,,192,0,3,,,,,2,,,62,0
193536,note_on,,,,,288,0,1,,,,,0,,,84,100
193536,note_on,,,,,0,0,3,,,,,2,,,60,100
193728,note_off,,,,,192,0,4,,,,,3,,,36,0
193728,note_off,,,,,0,0,2,,,,,1,,,72,0
193728,note_off,,,,,192,0,1,,,,,0,,,84,0
193728,note_off,,,,,192,0,3,,,,,2,,,60,0
193728,note_off,,,,,192,0,2,,,,,1,,,76,0
193920,note_on,,,,,192,0,3,,,,,2,,,52,100
193920,note_on,,,,,192,0,4,,,,,3,,,48,100
193920,note_on,,,,,192,0,1,,,,,0,,,84,100
193920,note_on,,,,,192,0,2,,,,,1,,,72,100
194496,note_on,,,,,0,0,1,,,,,0,,,83,100
194496,note_off,,,,,576,0,1,,,,,0,,,84,0
194496,note_off,,,,,576,0,2,,,,,1,,,72,0
194496,note_on,,,,,0,0,2,,,,,1,,,71,100
194688,note_on,,,,,0,0,1,,,,,0,,,81,100
194688,note_on,,,,,0,0,4,,,,,3,,,50,100
194688,note_off,,,,,768,0,4,,,,,3,,,48,0
194688,note_off,,,,,192,0,2,,,,,1,,,71,0
194688,note_off,,,,,768,0,3,,,,,2,,,52,0
194688,note_on,,,,,0,0,3,,,,,2,,,53,100
194688,note_off,,,,,192,0,1,,,,,0,,,83,0
194688,note_on,,,,,0,0,2,,,,,1,,,69,100
194880,note_off,,,,,192,0,2,,,,,1,,,69,0
194880,note_on,,,,,0,0,2,,,,,1,,,67,100
194880,note_on,,,,,0,0,3,,,,,2,,,55,100
194880,note_off,,,,,192,0,3,,,,,2,,,53,0
194880,note_on,,,,,0,0,1,,,,,0,,,79,100
194880,note_off,,,,,192,0,1,,,,,0,,,81,0
194880,note_off,,,,,192,0,4,,,,,3,,,50,0
194880,note_on,,,,,0,0,4,,,,,3,,,52,100
195072,note_on,,,,,0,0,1,,,,,0,,,77,100
195072,note_on,,,,,0,0,3,,,,,2,,,59,100
195072,note_on,,,,,0,0,2,,,,,1,,,65,100
195072,note_off,,,,,192,0,2,,,,,1,,,67,0
195072,note_off,,,,,192,0,1,,,,,0,,,79,0
195072,note_on,,,,,0,0,4,,,,,3,,,43,100
195072,note_off,,,,,192,0,4,,,,,3,,,52,0
195072,note_off,,,,,192,0,3,,,,,2,,,55,0
195168,note_off,,,,,96,0,1,,,,,0,,,77,0
195264,note_off,,,,,192,0,2,,,,,1,,,65,0
195264,note_off,,,,,192,0,3,,,,,2,,,59,0
195264,note_on,,,,,96,0,1,,,,,0,,,89,100
195264,note_off,,,,,192,0,4,,,,,3,,,43,0
195360,note_off,,,,,96,0,1,,,,,0,,,89,0
195456,note_on,,,,,0,0,2,,,,,1,,,55,100
195456,note_on,,,,,192,0,4,,,,,3,,,55,100
195456,note_on,,,,,192,0,3,,,,,2,,,59,100
195456,note_on,,,,,96,0,1,,,,,0,,,86,100
195456,note_on,,,,,192,0,2,,,,,1,,,67,100
195552,note_off,,,,,96,0,1,,,,,0,,,86,0
195648,note_on,,,,,96,0,1,,,,,0,,,83,100
195744,note_off,,,,,96,0,1,,,,,0,,,83,0
195840,note_on,,,,,96,0,1,,,,,0,,,79,100
195936,note_off,,,,,96,0,1,,,,,0,,,79,0
196032,note_on,,,,,96,0,1,,,,,0,,,86,100
196128,note_off,,,,,96,0,1,,,,,0,,,86,0
196224,note_on,,,,,0,0,2,,,,,1,,,67,100
196224,note_on,,,,,0,0,3,,,,,2,,,60,100
196224,note_off,,,,,768,0,3,,,,,2,,,59,0
196224,note_on,,,,,96,0,1,,,,,0,,,83,100
196224,note_off,,,,,768,0,4,,,,,3,,,55,0
196224,note_off,,,,,768,0,2,,,,,1,,,67,0
196224,note_off,,,,,0,0,2,,,,,1,,,55,0
196224,note_on,,,,,0,0,2,,,,,1,,,55,100
196224,note_on,,,,,0,0,4,,,,,3,,,57,100
196320,note_off,,,,,96,0,1,,,,,0,,,83,0
196416,note_on,,,,,0,0,3,,,,,2,,,62,100
196416,note_off,,,,,192,0,3,,,,,2,,,60,0
196416,note_off,,,,,192,0,4,,,,,3,,,57,0
196416,note_on,,,,,0,0,4,,,,,3,,,59,100
196416,note_on,,,,,96,0,1,,,,,0,,,77,100
196512,note_off,,,,,96,0,1,,,,,0,,,77,0
196560,note_on,,,,,48,0,1,,,,,0,,,76,100
196608,note_off,,,,,192,0,3,,,,,2,,,62,0
196608,note_off,,,,,48,0,1,,,,,0,,,76,0
196608,note_on,,,,,0,0,3,,,,,2,,,64,100
196608,note_on,,,,,0,0,2,,,,,1,,,67,100
196608,note_on,,,,,0,0,2,,,,,1,,,55,100
196608,note_off,,,,,0,0,2,,,,,1,,,67,0
196608,note_off,,,,,384,0,2,,,,,1,,,55,0
196608,note_on,,,,,0,0,1,,,,,0,,,84,100
196608,note_on,,,,,0,0,4,,,,,3,,,60,100
196608,note_off,,,,,192,0,4,,,,,3,,,59,0
196800,note_off,,,,,192,0,4,,,,,3,,,60,0
196800,note_off,,,,,192,0,3,,,,,2,,,64,0
196800,note_off,,,,,192,0,2,,,,,1,,,55,0
196800,note_off,,,,,192,0,1,,,,,0,,,84,0
196800,note_off,,,,,0,0,2,,,,,1,,,67,0
196992,note_on,,,,,192,0,4,,,,,3,,,48,100
196992,note_on,,,,,192,0,3,,,,,2,,,52,100
196992,note_on,,,,,192,0,2,,,,,1,,,72,100
196992,note_on,,,,,192,0,1,,,,,0,,,84,100
197568,note_on,,,,,0,0,1,,,,,0,,,83,100
197568,note_on,,,,,0,0,2,,,,,1,,,71,100
197568,note_off,,,,,576,0,1,,,,,0,,,84,0
197568,note_off,,,,,576,0,2,,,,,1,,,72,0
197760,note_off,,,,,192,0,2,,,,,1,,,71,0
197760,note_on,,,,,0,0,2,,,,,1,,,69,100
197760,note_off,,,,,192,0,1,,,,,0,,,83,0
197760,note_on,,,,,0,0,4,,,,,3,,,50,100
197760,note_on,,,,,0,0,1,,,,,0,,,81,100
197760,note_on,,,,,0,0,3,,,,,2,,,53,100
197760,note_off,,,,,768,0,3,,,,,2,,,52,0
197760,note_off,,,,,768,0,4,,,,,3,,,48,0
197952,note_on,,,,,0,0,3,,,,,2,,,55,100
197952,note_off,,,,,192,0,3,,,,,2,,,53,0
197952,note_off,,,,,192,0,4,,,,,3,,,50,0
197952,note_on,,,,,0,0,4,,,,,3,,,52,100
197952,note_on,,,,,0,0,2,,,,,1,,,67,100
197952,note_off,,,,,192,0,2,,,,,1,,,69,0
197952,note_on,,,,,0,0,1,,,,,0,,,79,100
197952,note_off,,,,,192,0,1,,,,,0,,,81,0
198144,note_off,,,,,192,0,3,,,,,2,,,55,0
198144,note_off,,,,,192,0,2,,,,,1,,,67,0
198144,note_on,,,,,0,0,3,,,,,2,,,59,100
198144,note_on,,,,,0,0,2,,,,,1,,,65,100
198144,note_off,,,,,192,0,1,,,,,0,,,79,0
198144,note_on,,,,,0,0,1,,,,,0,,,77,100
198144,note_off,,,,,192,0,4,,,,,3,,,52,0
198144,note_on,,,,,0,0,4,,,,,3,,,43,100
198240,note_off,,,,,96,0,1,,,,,0,,,77,0
198336,note_on,,,,,96,0,1,,,,,0,,,89,100
198336,note_off,,,,,192,0,2,,,,,1,,,65,0
198336,note_off,,,,,192,0,4,,,,,3,,,43,0
198336,note_off,,,,,192,0,3,,,,,2,,,59,0
198432,note_off,,,,,96,0,1,,,,,0,,,89,0
198528,note_on,,,,,192,0,3,,,,,2,,,59,100
198528,note_on,,,,,0,0,2,,,,,1,,,67,100
198528,note_on,,,,,192,0,2,,,,,1,,,55,100
198528,note_on,,,,,192,0,4,,,,,3,,,55,100
198528,note_on,,,,,96,0,1,,,,,0,,,86,100
198624,note_off,,,,,96,0,1,,,,,0,,,86,0
198720,note_on,,,,,96,0,1,,,,,0,,,83,100
198816,note_off,,,,,96,0,1,,,,,0,,,83,0
198912,note_on,,,,,96,0,1,,,,,0,,,79,100
199008,note_off,,,,,96,0,1,,,,,0,,,79,0
199104,note_on,,,,,96,0,1,,,,,0,,,86,100
199200,note_off,,,,,96,0,1,,,,,0,,,86,0
199296,note_on,,,,,0,0,2,,,,,1,,,55,100
199296,note_on,,,,,0,0,4,,,,,3,,,57,100
199296,note_off,,,,,768,0,4,,,,,3,,,55,0
199296,note_on,,,,,0,0,3,,,,,2,,,60,100
199296,note_on,,,,,96,0,1,,,,,0,,,83,100
199296,note_off,,,,,0,0,2,,,,,1,,,67,0
199296,note_on,,,,,0,0,2,,,,,1,,,67,100
199296,note_off,,,,,768,0,3,,,,,2,,,59,0
199296,note_off,,,,,768,0,2,,,,,1,,,55,0
199392,note_off,,,,,96,0,1,,,,,0,,,83,0
199488,note_on,,,,,96,0,1,,,,,0,,,77,100
199488,note_on,,,,,0,0,3,,,,,2,,,62,100
199488,note_off,,,,,192,0,3,,,,,2,,,60,0
199488,note_off,,,,,192,0,4,,,,,3,,,57,0
199488,note_on,,,,,0,0,4,,,,,3,,,59,100
199584,note_off,,,,,96,0,1,,,,,0,,,77,0
199680,note_on,,,,,0,0,3,,,,,2,,,56,100
199680,note_off,,,,,192,0,3,,,,,2,,,62,0
199680,note_on,,,,,96,0,1,,,,,0,,,76,100
199680,note_off,,,,,0,0,2,,,,,1,,,55,0
199680,note_on,,,,,0,0,2,,,,,1,,,76,100
199680,note_off,,,,,384,0,2,,,,,1,,,67,0
199680,note_on,,,,,0,0,4,,,,,3,,,52,100
199680,note_off,,,,,192,0,4,,,,,3,,,59,0
199776,note_off,,,,,96,0,1,,,,,0,,,76,0
199776,note_off,,,,,96,0,2,,,,,1,,,76,0
199872,note_on,,,,,96,0,1,,,,,0,,,88,100
199872,note_on,,,,,96,0,2,,,,,1,,,64,100
199968,note_off,,,,,96,0,1,,,,,0,,,88,0
199968,note_off,,,,,96,0,2,,,,,1,,,64,0
200064,note_off,,,,,384,0,3,,,,,2,,,56,0
200064,note_on,,,,,0,0,3,,,,,2,,,57,100
200064,note_off,,,,,384,0,4,,,,,3,,,52,0
200064,note_on,,,,,96,0,2,,,,,1,,,68,100
200064,note_on,,,,,0,0,4,,,,,3,,,54,100
200064,note_on,,,,,96,0,1,,,,,0,,,83,100
200160,note_off,,,,,96,0,1,,,,,0,,,83,0
200160,note_off,,,,,96,0,2,,,,,1,,,68,0
200256,note_off,,,,,192,0,4,,,,,3,,,54,0
200256,note_on,,,,,0,0,4,,,,,3,,,56,100
200256,note_off,,,,,192,0,3,,,,,2,,,57,0
200256,note_on,,,,,0,0,3,,,,,2,,,59,100
200256,note_on,,,,,96,0,1,,,,,0,,,80,100
200256,note_on,,,,,96,0,2,,,,,1,,,71,100
200352,note_off,,,,,96,0,1,,,,,0,,,80,0
200352,note_off,,,,,96,0,2,,,,,1,,,71,0
200448,note_on,,,,,96,0,2,,,,,1,,,76,100
200448,note_on,,,,,96,0,1,,,,,0,,,76,100
200448,note_on,,,,,0,0,4,,,,,3,,,57,100
200448,note_off,,,,,192,0,4,,,,,3,,,56,0
200448,note_on,,,,,0,0,3,,,,,2,,,60,100
200448,note_off,,,,,192,0,3,,,,,2,,,59,0
200544,note_off,,,,,96,0,1,,,,,0,,,76,0
200544,note_off,,,,,96,0,2,,,,,1,,,76,0
200640,note_on,,,,,96,0,2,,,,,1,,,64,100
200640,note_on,,,,,96,0,1,,,,,0,,,88,100
200736,note_off,,,,,96,0,2,,,,,1,,,64,0
200736,note_off,,,,,96,0,1,,,,,0,,,88,0
200832,note_on,,,,,96,0,2,,,,,1,,,69,100
200832,note_on,,,,,0,0,3,,,,,2,,,62,100
200832,note_off,,,,,384,0,3,,,,,2,,,60,0
200832,note_on,,,,,96,0,1,,,,,0,,,84,100
200832,note_off,,,,,384,0,4,,,,,3,,,57,0
200832,note_on,,,,,0,0,4,,,,,3,,,59,100
200928,note_off,,,,,96,0,1,,,,,0,,,84,0
200928,note_off,,,,,96,0,2,,,,,1,,,69,0
201024,note_on,,,,,96,0,1,,,,,0,,,81,100
201024,note_on,,,,,96,0,2,,,,,1,,,72,100
201024,note_on,,,,,0,0,3,,,,,2,,,64,100
201024,note_off,,,,,192,0,3,,,,,2,,,62,0
201024,note_off,,,,,192,0,4,,,,,3,,,59,0
201024,note_on,,,,,0,0,4,,,,,3,,,60,100
201120,note_off,,,,,96,0,2,,,,,1,,,72,0
201120,note_off,,,,,96,0,1,,,,,0,,,81,0
201216,note_off,,,,,192,0,3,,,,,2,,,64,0
201216,note_on,,,,,0,0,3,,,,,2,,,54,100
201216,note_on,,,,,96,0,2,,,,,1,,,74,100
201216,note_on,,,,,96,0,1,,,,,0,,,74,100
201216,note_on,,,,,0,0,4,,,,,3,,,50,100
201216,note_off,,,,,192,0,4,,,,,3,,,60,0
201312,note_off,,,,,96,0,2,,,,,1,,,74,0
201312,note_off,,,,,96,0,1,,,,,0,,,74,0
201408,note_on,,,,,96,0,1,,,,,0,,,86,100
201408,note_on,,,,,96,0,2,,,,,1,,,62,100
201504,note_off,,,,,96,0,2,,,,,1,,,62,0
201504,note_off,,,,,96,0,1,,,,,0,,,86,0
201600,note_on,,,,,0,0,3,,,,,2,,,55,100
201600,note_off,,,,,384,0,4,,,,,3,,,50,0
201600,note_off,,,,,384,0,3,,,,,2,,,54,0
201600,note_on,,,,,96,0,1,,,,,0,,,81,100
201600,note_on,,,,,96,0,2,,,,,1,,,66,100
201600,note_on,,,,,0,0,4,,,,,3,,,52,100
201696,note_off,,,,,96,0,2,,,,,1,,,66,0
201696,note_off,,,,,96,0,1,,,,,0,,,81,0
201792,note_on,,,,,96,0,2,,,,,1,,,69,100
201792,note_off,,,,,192,0,4,,,,,3,,,52,0
201792,note_on,,,,,96,0,1,,,,,0,,,78,100
201792,note_on,,,,,0,0,3,,,,,2,,,57,100
201792,note_off,,,,,192,0,3,,,,,2,,,55,0
201792,note_on,,,,,0,0,4,,,,,3,,,54,100
201888,note_off,,,,,96,0,1,,,,,0,,,78,0
201888,note_off,,,,,96,0,2,,,,,1,,,69,0
201984,note_on,,,,,0,0,3,,,,,2,,,59,100
201984,note_off,,,,,192,0,3,,,,,2,,,57,0
201984,note_off,,,,,192,0,4,,,,,3,,,54,0
201984,note_on,,,,,96,0,1,,,,,0,,,74,100
201984,note_on,,,,,96,0,2,,,,,1,,,74,100
201984,note_on,,,,,0,0,4,,,,,3,,,55,100
202080,note_off,,,,,96,0,2,,,,,1,,,74,0
202080,note_off,,,,,96,0,1,,,,,0,,,74,0
202176,note_on,,,,,96,0,2,,,,,1,,,62,100
202176,note_on,,,,,96,0,1,,,,,0,,,86,100
202272,note_off,,,,,96,0,2,,,,,1,,,62,0
202272,note_off,,,,,96,0,1,,,,,0,,,86,0
202368,note_off,,,,,384,0,3,,,,,2,,,59,0
202368,note_off,,,,,384,0,4,,,,,3,,,55,0
202368,note_on,,,,,0,0,4,,,,,3,,,57,100
202368,note_on,,,,,96,0,1,,,,,0,,,83,100
202368,note_on,,,,,96,0,2,,,,,1,,,67,100
202368,note_on,,,,,0,0,3,,,,,2,,,60,100
202464,note_off,,,,,96,0,2,,,,,1,,,67,0
202464,note_off,,,,,96,0,1,,,,,0,,,83,0
202560,note_off,,,,,192,0,4,,,,,3,,,57,0
202560,note_on,,,,,0,0,4,,,,,3,,,59,100
202560,note_on,,,,,96,0,2,,,,,1,,,71,100
202560,note_on,,,,,96,0,1,,,,,0,,,79,100
202560,note_on,,,,,0,0,3,,,,,2,,,62,100
202560,note_off,,,,,192,0,3,,,,,2,,,60,0
202656,note_off,,,,,96,0,2,,,,,1,,,71,0
202656,note_off,,,,,96,0,1,,,,,0,,,79,0
202752,note_on,,,,,96,0,1,,,,,0,,,72,100
202752,note_on,,,,,0,0,3,,,,,2,,,52,100
202752,note_on,,,,,0,0,4,,,,,3,,,48,100
202752,note_off,,,,,192,0,4,,,,,3,,,59,0
202752,note_off,,,,,192,0,3,,,,,2,,,62,0
202752,note_on,,,,,96,0,2,,,,,1,,,72,100
202848,note_off,,,,,96,0,2,,,,,1,,,72,0
202848,note_off,,,,,96,0,1,,,,,0,,,72,0
202944,note_on,,,,,96,0,1,,,,,0,,,84,100
202944,note_on,,,,,96,0,2,,,,,1,,,60,100
203040,note_off,,,,,96,0,1,,,,,0,,,84,0
203040,note_off,,,,,96,0,2,,,,,1,,,60,0
203136,note_off,,,,,384,0,3,,,,,2,,,52,0
203136,note_on,,,,,96,0,2,,,,,1,,,64,100
203136,note_on,,,,,96,0,1,,,,,0,,,79,100
203136,note_on,,,,,0,0,3,,,,,2,,,54,100
203136,note_off,,,,,384,0,4,,,,,3,,,48,0
203136,note_on,,,,,0,0,4,,,,,3,,,50,100
203232,note_off,,,,,96,0,2,,,,,1,,,64,0
203232,note_off,,,,,96,0,1,,,,,0,,,79,0
203328,note_on,,,,,96,0,1,,,,,0,,,76,100
203328,note_off,,,,,192,0,4,,,,,3,,,50,0
203328,note_on,,,,,0,0,4,,,,,3,,,52,100
203328,note_on,,,,,96,0,2,,,,,1,,,67,100
203328,note_on,,,,,0,0,3,,,,,2,,,55,100
203328,note_off,,,,,192,0,3,,,,,2,,,54,0
203424,note_off,,,,,96,0,2,,,,,1,,,67,0
203424,note_off,,,,,96,0,1,,,,,0,,,76,0
203520,note_on,,,,,0,0,4,,,,,3,,,54,100
203520,note_on,,,,,96,0,2,,,,,1,,,72,100
203520,note_off,,,,,192,0,4,,,,,3,,,52,0
203520,note_on,,,,,96,0,1,,,,,0,,,72,100
203520,note_on,,,,,0,0,3,,,,,2,,,57,100
203520,note_off,,,,,192,0,3,,,,,2,,,55,0
203616,note_off,,,,,96,0,2,,,,,1,,,72,0
203616,note_off,,,,,96,0,1,,,,,0,,,72,0
203712,note_on,,,,,96,0,2,,,,,1,,,60,100
203712,note_on,,,,,96,0,1,,,,,0,,,84,100
203808,note_off,,,,,96,0,2,,,,,1,,,60,0
203808,note_off,,,,,96,0,1,,,,,0,,,84,0
203904,note_off,,,,,384,0,4,,,,,3,,,54,0
203904,note_on,,,,,96,0,1,,,,,0,,,81,100
203904,note_on,,,,,0,0,3,,,,,2,,,59,100
203904,note_off,,,,,384,0,3,,,,,2,,,57,0
203904,note_on,,,,,96,0,2,,,,,1,,,66,100
203904,note_on,,,,,0,0,4,,,,,3,,,55,100
204000,note_off,,,,,96,0,2,,,,,1,,,66,0
204000,note_off,,,,,96,0,1,,,,,0,,,81,0
204096,note_on,,,,,96,0,2,,,,,1,,,69,100
204096,note_off,,,,,192,0,4,,,,,3,,,55,0
204096,note_on,,,,,0,0,4,,,,,3,,,57,100
204096,note_on,,,,,0,0,3,,,,,2,,,60,100
204096,note_off,,,,,192,0,3,,,,,2,,,59,0
204096,note_on,,,,,96,0,1,,,,,0,,,78,100
204192,note_off,,,,,96,0,1,,,,,0,,,78,0
204192,note_off,,,,,96,0,2,,,,,1,,,69,0
204288,note_on,,,,,0,0,4,,,,,3,,,47,100
204288,note_on,,,,,96,0,1,,,,,0,,,71,100
204288,note_on,,,,,96,0,2,,,,,1,,,71,100
204288,note_off,,,,,192,0,4,,,,,3,,,57,0
204288,note_off,,,,,192,0,3,,,,,2,,,60,0
204288,note_on,,,,,0,0,3,,,,,2,,,51,100
204384,note_off,,,,,96,0,1,,,,,0,,,71,0
204384,note_off,,,,,96,0,2,,,,,1,,,71,0
204480,note_on,,,,,96,0,1,,,,,0,,,83,100
204480,note_on,,,,,96,0,2,,,,,1,,,59,100
204576,note_off,,,,,96,0,1,,,,,0,,,83,0
204576,note_off,,,,,96,0,2,,,,,1,,,59,0
204672,note_on,,,,,0,0,3,,,,,2,,,52,100
204672,note_on,,,,,96,0,2,,,,,1,,,63,100
204672,note_on,,,,,96,0,1,,,,,0,,,78,100
204672,note_on,,,,,0,0,4,,,,,3,,,49,100
204672,note_off,,,,,384,0,4,,,,,3,,,47,0
204672,note_off,,,,,384,0,3,,,,,2,,,51,0
204768,note_off,,,,,96,0,2,,,,,1,,,63,0
204768,note_off,,,,,96,0,1,,,,,0,,,78,0
204864,note_on,,,,,96,0,2,,,,,1,,,66,100
204864,note_off,,,,,192,0,3,,,,,2,,,52,0
204864,note_on,,,,,0,0,3,,,,,2,,,54,100
204864,note_on,,,,,96,0,1,,,,,0,,,75,100
204864,note_on,,,,,0,0,4,,,,,3,,,51,100
204864,note_off,,,,,192,0,4,,,,,3,,,49,0
204960,note_off,,,,,96,0,1,,,,,0,,,75,0
204960,note_off,,,,,96,0,2,,,,,1,,,66,0
205056,note_off,,,,,192,0,4,,,,,3,,,51,0
205056,note_on,,,,,96,0,2,,,,,1,,,71,100
205056,note_on,,,,,0,0,3,,,,,2,,,55,100
205056,note_off,,,,,192,0,3,,,,,2,,,54,0
205056,note_on,,,,,96,0,1,,,,,0,,,71,100
205056,note_on,,,,,0,0,4,,,,,3,,,52,100
205152,note_off,,,,,96,0,2,,,,,1,,,71,0
205152,note_off,,,,,96,0,1,,,,,0,,,71,0
205248,note_on,,,,,96,0,2,,,,,1,,,59,100
205248,note_on,,,,,96,0,1,,,,,0,,,83,100
205344,note_off,,,,,96,0,2,,,,,1,,,59,0
205344,note_off,,,,,96,0,1,,,,,0,,,83,0
205440,note_on,,,,,96,0,2,,,,,1,,,64,100
205440,note_off,,,,,384,0,3,,,,,2,,,55,0
205440,note_off,,,,,384,0,4,,,,,3,,,52,0
205440,note_on,,,,,0,0,4,,,,,3,,,54,100
205440,note_on,,,,,96,0,1,,,,,0,,,79,100
205440,note_on,,,,,0,0,3,,,,,2,,,57,100
205536,note_off,,,,,96,0,1,,,,,0,,,79,0
205536,note_off,,,,,96,0,2,,,,,1,,,64,0
205632,note_on,,,,,96,0,1,,,,,0,,,76,100
205632,note_on,,,,,0,0,3,,,,,2,,,59,100
205632,note_off,,,,,192,0,3,,,,,2,,,57,0
205632,note_on,,,,,96,0,2,,,,,1,,,67,100
205632,note_off,,,,,192,0,4,,,,,3,,,54,0
205632,note_on,,,,,0,0,4,,,,,3,,,55,100
205728,note_off,,,,,96,0,2,,,,,1,,,67,0
205728,note_off,,,,,96,0,1,,,,,0,,,76,0
205824,note_on,,,,,96,0,1,,,,,0,,,70,100
205824,note_off,,,,,192,0,3,,,,,2,,,59,0
205824,note_on,,,,,0,0,3,,,,,2,,,54,100
205824,note_on,,,,,0,0,4,,,,,3,,,42,100
205824,note_off,,,,,192,0,4,,,,,3,,,55,0
205824,note_on,,,,,96,0,2,,,,,1,,,70,100
205920,note_off,,,,,96,0,3,,,,,2,,,54,0
205920,note_off,,,,,96,0,2,,,,,1,,,70,0
206016,note_on,,,,,96,0,3,,,,,2,,,52,100
206016,note_on,,,,,96,0,2,,,,,1,,,58,100
206016,note_off,,,,,192,0,4,,,,,3,,,42,0
206112,note_off,,,,,96,0,2,,,,,1,,,58,0
206112,note_off,,,,,96,0,3,,,,,2,,,52,0
206208,note_on,,,,,192,0,4,,,,,3,,,54,100
206208,note_on,,,,,0,0,1,,,,,0,,,82,100
206208,note_off,,,,,384,0,1,,,,,0,,,70,0
206208,note_on,,,,,96,0,2,,,,,1,,,61,100
206208,note_on,,,,,96,0,3,,,,,2,,,58,100
206304,note_off,,,,,96,0,2,,,,,1,,,61,0
206304,note_off,,,,,96,0,3,,,,,2,,,58,0
206400,note_on,,,,,96,0,2,,,,,1,,,64,100
206400,note_on,,,,,96,0,3,,,,,2,,,61,100
206496,note_off,,,,,96,0,2,,,,,1,,,64,0
206496,note_off,,,,,96,0,3,,,,,2,,,61,0
206592,note_on,,,,,96,0,2,,,,,1,,,70,100
206592,note_on,,,,,96,0,3,,,,,2,,,64,100
206688,note_off,,,,,96,0,2,,,,,1,,,70,0
206688,note_off,,,,,96,0,3,,,,,2,,,64,0
206784,note_on,,,,,96,0,2,,,,,1,,,58,100
206784,note_on,,,,,96,0,3,,,,,2,,,61,100
206880,note_off,,,,,96,0,3,,,,,2,,,61,0
206880,note_off,,,,,96,0,2,,,,,1,,,58,0
206976,note_off,,,,,768,0,1,,,,,0,,,82,0
206976,note_on,,,,,0,0,1,,,,,0,,,85,100
206976,note_on,,,,,0,0,4,,,,,3,,,55,100
206976,note_on,,,,,96,0,2,,,,,1,,,61,100
206976,note_off,,,,,768,0,4,,,,,3,,,54,0
206976,note_on,,,,,96,0,3,,,,,2,,,59,100
207072,note_off,,,,,96,0,3,,,,,2,,,59,0
207072,note_off,,,,,96,0,2,,,,,1,,,61,0
207168,note_on,,,,,96,0,3,,,,,2,,,61,100
207168,note_off,,,,,192,0,1,,,,,0,,,85,0
207168,note_on,,,,,0,0,1,,,,,0,,,83,100
207168,note_on,,,,,96,0,2,,,,,1,,,64,100
207264,note_off,,,,,96,0,2,,,,,1,,,64,0
207264,note_off,,,,,96,0,3,,,,,2,,,61,0
207360,note_off,,,,,384,0,4,,,,,3,,,55,0
207360,note_on,,,,,96,0,2,,,,,1,,,70,100
207360,note_off,,,,,192,0,1,,,,,0,,,83,0
207360,note_on,,,,,0,0,1,,,,,0,,,82,100
207360,note_on,,,,,0,0,4,,,,,3,,,54,100
207360,note_on,,,,,96,0,3,,,,,2,,,64,100
207456,note_off,,,,,96,0,2,,,,,1,,,70,0
207456,note_off,,,,,96,0,3,,,,,2,,,64,0
207552,note_off,,,,,192,0,4,,,,,3,,,54,0
207552,note_off,,,,,192,0,1,,,,,0,,,82,0
207552,note_on,,,,,96,0,3,,,,,2,,,61,100
207552,note_on,,,,,96,0,2,,,,,1,,,58,100
207648,note_off,,,,,96,0,2,,,,,1,,,58,0
207648,note_off,,,,,96,0,3,,,,,2,,,61,0
207744,note_on,,,,,96,0,2,,,,,1,,,61,100
207744,note_on,,,,,192,0,4,,,,,3,,,42,100
207744,note_on,,,,,96,0,3,,,,,2,,,58,100
207744,note_on,,,,,192,0,1,,,,,0,,,82,100
207840,note_off,,,,,96,0,3,,,,,2,,,58,0
207840,note_off,,,,,96,0,2,,,,,1,,,61,0
207936,note_on,,,,,96,0,3,,,,,2,,,61,100
207936,note_on,,,,,96,0,2,,,,,1,,,64,100
208032,note_off,,,,,96,0,3,,,,,2,,,61,0
208032,note_off,,,,,96,0,2,,,,,1,,,64,0
208128,note_on,,,,,96,0,3,,,,,2,,,64,100
208128,note_on,,,,,96,0,2,,,,,1,,,70,100
208224,note_off,,,,,96,0,2,,,,,1,,,70,0
208224,note_off,,,,,96,0,3,,,,,2,,,64,0
208320,note_on,,,,,96,0,3,,,,,2,,,61,100
208320,note_on,,,,,96,0,2,,,,,1,,,58,100
208416,note_off,,,,,96,0,2,,,,,1,,,58,0
208416,note_off,,,,,96,0,3,,,,,2,,,61,0
208512,note_off,,,,,768,0,4,,,,,3,,,42,0
208512,note_on,,,,,96,0,3,,,,,2,,,59,100
208512,note_on,,,,,96,0,2,,,,,1,,,61,100
208512,note_on,,,,,0,0,4,,,,,3,,,43,100
208512,note_off,,,,,768,0,1,,,,,0,,,82,0
208512,note_on,,,,,0,0,1,,,,,0,,,85,100
208608,note_off,,,,,96,0,2,,,,,1,,,61,0
208704,note_off,,,,,192,0,1,,,,,0,,,85,0
208704,note_off,,,,,192,0,3,,,,,2,,,59,0
208704,note_on,,,,,0,0,3,,,,,2,,,61,100
208704,note_on,,,,,96,0,2,,,,,1,,,64,100
208704,note_on,,,,,0,0,1,,,,,0,,,83,100
208800,note_off,,,,,96,0,2,,,,,1,,,64,0
208896,note_on,,,,,0,0,4,,,,,3,,,42,100
208896,note_off,,,,,384,0,4,,,,,3,,,43,0
208896,note_off,,,,,192,0,3,,,,,2,,,61,0
208896,note_on,,,,,0,0,3,,,,,2,,,64,100
208896,note_on,,,,,0,0,1,,,,,0,,,82,100
208896,note_off,,,,,192,0,1,,,,,0,,,83,0
208896,note_on,,,,,96,0,2,,,,,1,,,70,100
208992,note_off,,,,,96,0,3,,,,,2,,,64,0
208992,note_off,,,,,96,0,2,,,,,1,,,70,0
209088,note_off,,,,,192,0,1,,,,,0,,,82,0
209088,note_off,,,,,192,0,4,,,,,3,,,42,0
209088,note_on,,,,,96,0,3,,,,,2,,,61,100
209088,note_on,,,,,96,0,2,,,,,1,,,58,100
209184,note_off,,,,,96,0,3,,,,,2,,,61,0
209184,note_off,,,,,96,0,2,,,,,1,,,58,0
209280,note_on,,,,,96,0,2,,,,,1,,,61,100
209280,note_on,,,,,192,0,1,,,,,0,,,82,100
209280,note_on,,,,,192,0,4,,,,,3,,,54,100
209280,note_on,,,,,96,0,3,,,,,2,,,58,100
209376,note_off,,,,,96,0,2,,,,,1,,,61,0
209376,note_off,,,,,96,0,3,,,,,2,,,58,0
209472,note_on,,,,,96,0,2,,,,,1,,,64,100
209472,note_on,,,,,96,0,3,,,,,2,,,61,100
209568,note_off,,,,,96,0,3,,,,,2,,,61,0
209568,note_off,,,,,96,0,2,,,,,1,,,64,0
209664,note_on,,,,,96,0,2,,,,,1,,,70,100
209664,note_on,,,,,96,0,3,,,,,2,,,64,100
209760,note_off,,,,,96,0,3,,,,,2,,,64,0
209760,note_off,,,,,96,0,2,,,,,1,,,70,0
209856,note_on,,,,,96,0,3,,,,,2,,,61,100
209856,note_on,,,,,96,0,2,,,,,1,,,61,100
209952,note_off,,,,,96,0,3,,,,,2,,,61,0
209952,note_off,,,,,96,0,2,,,,,1,,,61,0
210048,note_on,,,,,0,0,1,,,,,0,,,83,100
210048,note_on,,,,,96,0,3,,,,,2,,,56,100
210048,note_on,,,,,96,0,2,,,,,1,,,62,100
210048,note_off,,,,,768,0,1,,,,,0,,,82,0
210048,note_off,,,,,768,0,4,,,,,3,,,54,0
210048,note_on,,,,,0,0,4,,,,,3,,,53,100
210144,note_off,,,,,96,0,2,,,,,1,,,62,0
210240,note_on,,,,,0,0,3,,,,,2,,,59,100
210240,note_off,,,,,192,0,3,,,,,2,,,56,0
210240,note_off,,,,,192,0,1,,,,,0,,,83,0
210240,note_on,,,,,0,0,1,,,,,0,,,80,100
210240,note_on,,,,,96,0,2,,,,,1,,,59,100
210336,note_off,,,,,96,0,2,,,,,1,,,59,0
210432,note_on,,,,,0,0,4,,,,,3,,,54,100
210432,note_on,,,,,0,0,3,,,,,2,,,54,100
210432,note_off,,,,,192,0,1,,,,,0,,,80,0
210432,note_on,,,,,0,0,1,,,,,0,,,78,100
210432,note_on,,,,,96,0,2,,,,,1,,,63,100
210432,note_off,,,,,384,0,4,,,,,3,,,53,0
210432,note_off,,,,,192,0,3,,,,,2,,,59,0
210528,note_off,,,,,96,0,3,,,,,2,,,54,0
210528,note_off,,,,,96,0,2,,,,,1,,,63,0
210624,note_off,,,,,192,0,4,,,,,3,,,54,0
210624,note_on,,,,,96,0,2,,,,,1,,,59,100
210624,note_off,,,,,192,0,1,,,,,0,,,78,0
210624,note_on,,,,,96,0,3,,,,,2,,,63,100
210720,note_off,,,,,96,0,3,,,,,2,,,63,0
210720,note_off,,,,,96,0,2,,,,,1,,,59,0
210816,note_on,,,,,192,0,1,,,,,0,,,75,100
210816,note_on,,,,,96,0,2,,,,,1,,,63,100
210816,note_on,,,,,192,0,4,,,,,3,,,42,100
210816,note_on,,,,,96,0,3,,,,,2,,,59,100
210912,note_off,,,,,96,0,3,,,,,2,,,59,0
210912,note_off,,,,,96,0,2,,,,,1,,,63,0
211008,note_on,,,,,96,0,3,,,,,2,,,61,100
211008,note_on,,,,,96,0,2,,,,,1,,,64,100
211104,note_off,,,,,96,0,2,,,,,1,,,64,0
211104,note_off,,,,,96,0,3,,,,,2,,,61,0
211200,note_on,,,,,96,0,3,,,,,2,,,63,100
211200,note_on,,,,,96,0,2,,,,,1,,,66,100
211296,note_off,,,,,96,0,2,,,,,1,,,66,0
211296,note_off,,,,,96,0,3,,,,,2,,,63,0
211392,note_on,,,,,96,0,3,,,,,2,,,59,100
211392,note_on,,,,,96,0,2,,,,,1,,,63,100
211488,note_off,,,,,96,0,3,,,,,2,,,59,0
211488,note_off,,,,,96,0,2,,,,,1,,,63,0
211584,note_on,,,,,96,0,2,,,,,1,,,61,100
211584,note_on,,,,,96,0,3,,,,,2,,,58,100
211584,note_on,,,,,0,0,1,,,,,0,,,76,100
211584,note_off,,,,,768,0,1,,,,,0,,,75,0
211680,note_off,,,,,96,0,2,,,,,1,,,61,0
211680,note_off,,,,,96,0,3,,,,,2,,,58,0
211776,note_on,,,,,0,0,1,,,,,0,,,73,100
211776,note_off,,,,,192,0,1,,,,,0,,,76,0
211776,note_on,,,,,96,0,2,,,,,1,,,64,100
211776,note_on,,,,,96,0,3,,,,,2,,,66,100
211872,note_off,,,,,96,0,2,,,,,1,,,64,0
211872,note_off,,,,,96,0,3,,,,,2,,,66,0
211968,note_off,,,,,192,0,1,,,,,0,,,73,0
211968,note_on,,,,,96,0,3,,,,,2,,,59,100
211968,note_on,,,,,0,0,4,,,,,3,,,47,100
211968,note_on,,,,,96,0,2,,,,,1,,,63,100
211968,note_on,,,,,0,0,1,,,,,0,,,71,100
211968,note_off,,,,,1152,0,4,,,,,3,,,42,0
212064,note_off,,,,,96,0,4,,,,,3,,,47,0
212160,note_off,,,,,192,0,2,,,,,1,,,63,0
212160,note_off,,,,,192,0,3,,,,,2,,,59,0
212160,note_off,,,,,192,0,1,,,,,0,,,71,0
212160,note_on,,,,,96,0,4,,,,,3,,,42,100
212256,note_off,,,,,96,0,4,,,,,3,,,42,0
212352,note_on,,,,,192,0,3,,,,,2,,,75,100
212352,note_on,,,,,192,0,2,,,,,1,,,78,100
212352,note_on,,,,,192,0,1,,,,,0,,,78,100
212352,note_on,,,,,96,0,4,,,,,3,,,47,100
212448,note_off,,,,,96,0,4,,,,,3,,,47,0
212544,note_on,,,,,96,0,4,,,,,3,,,51,100
212640,note_off,,,,,96,0,4,,,,,3,,,51,0
212736,note_on,,,,,96,0,4,,,,,3,,,54,100
213120,note_on,,,,,0,0,2,,,,,1,,,76,100
213120,note_off,,,,,768,0,2,,,,,1,,,78,0
213120,note_off,,,,,768,0,3,,,,,2,,,75,0
213120,note_on,,,,,0,0,3,,,,,2,,,73,100
213312,note_on,,,,,0,0,2,,,,,1,,,75,100
213312,note_off,,,,,192,0,2,,,,,1,,,76,0
213312,note_on,,,,,0,0,3,,,,,2,,,72,100
213312,note_off,,,,,192,0,3,,,,,2,,,73,0
213504,note_off,,,,,1152,0,1,,,,,0,,,78,0
213504,note_off,,,,,192,0,2,,,,,1,,,75,0
213504,note_on,,,,,0,0,3,,,,,2,,,73,100
213504,note_off,,,,,192,0,3,,,,,2,,,72,0
213504,note_on,,,,,0,0,2,,,,,1,,,76,100
213696,note_off,,,,,192,0,2,,,,,1,,,76,0
213696,note_on,,,,,192,0,1,,,,,0,,,78,100
213696,note_off,,,,,192,0,3,,,,,2,,,73,0
213792,note_off,,,,,96,0,1,,,,,0,,,78,0
213888,note_on,,,,,96,0,1,,,,,0,,,82,100
213888,note_on,,,,,192,0,2,,,,,1,,,76,100
213888,note_on,,,,,192,0,3,,,,,2,,,73,100
213984,note_off,,,,,96,0,1,,,,,0,,,82,0
214080,note_on,,,,,96,0,1,,,,,0,,,85,100
214176,note_off,,,,,96,0,1,,,,,0,,,85,0
214272,note_on,,,,,96,0,1,,,,,0,,,90,100
214656,note_off,,,,,768,0,3,,,,,2,,,73,0
214656,note_on,,,,,0,0,2,,,,,1,,,75,100
214656,note_off,,,,,768,0,2,,,,,1,,,76,0
214656,note_on,,,,,0,0,3,,,,,2,,,71,100
214848,note_off,,,,,192,0,3,,,,,2,,,71,0
214848,note_on,,,,,0,0,3,,,,,2,,,70,100
214848,note_off,,,,,192,0,2,,,,,1,,,75,0
214848,note_on,,,,,0,0,2,,,,,1,,,73,100
215040,note_on,,,,,0,0,4,,,,,3,,,47,100
215040,note_off,,,,,192,0,2,,,,,1,,,73,0
215040,note_on,,,,,0,0,2,,,,,1,,,75,100
215040,note_off,,,,,2304,0,4,,,,,3,,,54,0
215040,note_off,,,,,768,0,1,,,,,0,,,90,0
215040,note_on,,,,,0,0,3,,,,,2,,,71,100
215040,note_off,,,,,192,0,3,,,,,2,,,70,0
215136,note_off,,,,,96,0,4,,,,,3,,,47,0
215232,note_on,,,,,96,0,4,,,,,3,,,42,100
215232,note_off,,,,,192,0,3,,,,,2,,,71,0
215232,note_off,,,,,192,0,2,,,,,1,,,75,0
215328,note_off,,,,,96,0,4,,,,,3,,,42,0
215424,note_on,,,,,384,0,1,,,,,0,,,87,100
215424,note_on,,,,,192,0,3,,,,,2,,,66,100
215424,note_on,,,,,192,0,2,,,,,1,,,78,100
215424,note_on,,,,,96,0,4,,,,,3,,,47,100
215520,note_off,,,,,96,0,4,,,,,3,,,47,0
215616,note_on,,,,,96,0,4,,,,,3,,,51,100
215712,note_off,,,,,96,0,4,,,,,3,,,51,0
215808,note_on,,,,,96,0,4,,,,,3,,,54,100
216192,note_off,,,,,768,0,2,,,,,1,,,78,0
216192,note_on,,,,,0,0,1,,,,,0,,,85,100
216192,note_off,,,,,768,0,1,,,,,0,,,87,0
216192,note_on,,,,,0,0,2,,,,,1,,,76,100
216384,note_on,,,,,0,0,2,,,,,1,,,75,100
216384,note_off,,,,,192,0,2,,,,,1,,,76,0
216384,note_off,,,,,192,0,1,,,,,0,,,85,0
216384,note_on,,,,,0,0,1,,,,,0,,,83,100
216576,note_off,,,,,192,0,1,,,,,0,,,83,0
216576,note_off,,,,,192,0,2,,,,,1,,,75,0
216576,note_on,,,,,0,0,2,,,,,1,,,76,100
216576,note_on,,,,,0,0,1,,,,,0,,,85,100
216576,note_off,,,,,1152,0,3,,,,,2,,,66,0
216768,note_off,,,,,192,0,2,,,,,1,,,76,0
216768,note_off,,,,,192,0,1,,,,,0,,,85,0
216768,note_on,,,,,192,0,3,,,,,2,,,54,100
216864,note_off,,,,,96,0,3,,,,,2,,,54,0
216960,note_on,,,,,192,0,1,,,,,0,,,85,100
216960,note_on,,,,,96,0,3,,,,,2,,,58,100
216960,note_on,,,,,192,0,2,,,,,1,,,76,100
217056,note_off,,,,,96,0,3,,,,,2,,,58,0
217152,note_on,,,,,96,0,3,,,,,2,,,61,100
217248,note_off,,,,,96,0,3,,,,,2,,,61,0
217344,note_on,,,,,96,0,3,,,,,2,,,66,100
217728,note_on,,,,,0,0,2,,,,,1,,,75,100
217728,note_off,,,,,768,0,2,,,,,1,,,76,0
217728,note_off,,,,,768,0,1,,,,,0,,,85,0
217728,note_on,,,,,0,0,1,,,,,0,,,83,100
217920,note_off,,,,,192,0,1,,,,,0,,,83,0
217920,note_on,,,,,0,0,1,,,,,0,,,82,100
217920,note_on,,,,,0,0,2,,,,,1,,,73,100
217920,note_off,,,,,192,0,2,,,,,1,,,75,0
218112,note_off,,,,,192,0,1,,,,,0,,,82,0
218112,note_off,,,,,2304,0,4,,,,,3,,,54,0
218112,note_on,,,,,0,0,4,,,,,3,,,47,100
218112,note_on,,,,,0,0,2,,,,,1,,,75,100
218112,note_off,,,,,192,0,2,,,,,1,,,73,0
218112,note_off,,,,,768,0,3,,,,,2,,,66,0
218112,note_on,,,,,0,0,1,,,,,0,,,83,100
218208,note_off,,,,,96,0,4,,,,,3,,,47,0
218304,note_on,,,,,96,0,4,,,,,3,,,42,100
218304,note_off,,,,,192,0,2,,,,,1,,,75,0
218304,note_off,,,,,192,0,1,,,,,0,,,83,0
218400,note_off,,,,,96,0,4,,,,,3,,,42,0
218496,note_on,,,,,192,0,2,,,,,1,,,78,100
218496,note_on,,,,,192,0,1,,,,,0,,,78,100
218496,note_on,,,,,384,0,3,,,,,2,,,75,100
218496,note_on,,,,,96,0,4,,,,,3,,,47,100
218592,note_off,,,,,96,0,4,,,,,3,,,47,0
218688,note_on,,,,,96,0,4,,,,,3,,,51,100
218784,note_off,,,,,96,0,4,,,,,3,,,51,0
218880,note_on,,,,,96,0,4,,,,,3,,,54,100
219264,note_off,,,,,768,0,3,,,,,2,,,75,0
219264,note_on,,,,,0,0,2,,,,,1,,,76,100
219264,note_off,,,,,768,0,2,,,,,1,,,78,0
219264,note_on,,,,,0,0,3,,,,,2,,,73,100
219456,note_off,,,,,192,0,3,,,,,2,,,73,0
219456,note_on,,,,,0,0,3,,,,,2,,,72,100
219456,note_off,,,,,192,0,2,,,,,1,,,76,0
219456,note_on,,,,,0,0,2,,,,,1,,,75,100
219648,note_on,,,,,0,0,3,,,,,2,,,73,100
219648,note_off,,,,,1152,0,1,,,,,0,,,78,0
219648,note_off,,,,,192,0,2,,,,,1,,,75,0
219648,note_on,,,,,0,0,2,,,,,1,,,76,100
219648,note_off,,,,,192,0,3,,,,,2,,,72,0
219840,note_off,,,,,192,0,3,,,,,2,,,73,0
219840,note_on,,,,,192,0,1,,,,,0,,,78,100
219840,note_off,,,,,192,0,2,,,,,1,,,76,0
219936,note_off,,,,,96,0,1,,,,,0,,,78,0
220032,note_on,,,,,192,0,3,,,,,2,,,73,100
220032,note_on,,,,,192,0,2,,,,,1,,,76,100
220032,note_on,,,,,96,0,1,,,,,0,,,82,100
220128,note_off,,,,,96,0,1,,,,,0,,,82,0
220224,note_on,,,,,96,0,1,,,,,0,,,85,100
220320,note_off,,,,,96,0,1,,,,,0,,,85,0
220416,note_on,,,,,96,0,1,,,,,0,,,90,100
220800,note_on,,,,,0,0,2,,,,,1,,,75,100
220800,note_off,,,,,768,0,2,,,,,1,,,76,0
220800,note_off,,,,,768,0,3,,,,,2,,,73,0
220800,note_on,,,,,0,0,3,,,,,2,,,71,100
220992,note_on,,,,,0,0,3,,,,,2,,,70,100
220992,note_on,,,,,0,0,2,,,,,1,,,73,100
220992,note_off,,,,,192,0,2,,,,,1,,,75,0
220992,note_off,,,,,192,0,3,,,,,2,,,71,0
221184,note_off,,,,,768,0,1,,,,,0,,,90,0
221184,note_off,,,,,192,0,2,,,,,1,,,73,0
221184,note_off,,,,,192,0,3,,,,,2,,,70,0
221184,note_on,,,,,0,0,3,,,,,2,,,71,100
221184,note_on,,,,,0,0,4,,,,,3,,,47,100
221184,note_off,,,,,2304,0,4,,,,,3,,,54,0
221184,note_on,,,,,0,0,2,,,,,1,,,75,100
221280,note_off,,,,,96,0,4,,,,,3,,,47,0
221376,note_off,,,,,192,0,3,,,,,2,,,71,0
221376,note_off,,,,,192,0,2,,,,,1,,,75,0
221376,note_on,,,,,96,0,4,,,,,3,,,42,100
221472,note_off,,,,,96,0,4,,,,,3,,,42,0
221568,note_on,,,,,192,0,2,,,,,1,,,78,100
221568,note_on,,,,,96,0,4,,,,,3,,,47,100
221568,note_on,,,,,192,0,3,,,,,2,,,66,100
221568,note_on,,,,,384,0,1,,,,,0,,,87,100
221664,note_off,,,,,96,0,4,,,,,3,,,47,0
221760,note_on,,,,,96,0,4,,,,,3,,,51,100
221856,note_off,,,,,96,0,4,,,,,3,,,51,0
221952,note_on,,,,,96,0,4,,,,,3,,,54,100
222336,note_on,,,,,0,0,1,,,,,0,,,85,100
222336,note_off,,,,,768,0,1,,,,,0,,,87,0
222336,note_on,,,,,0,0,2,,,,,1,,,76,100
222336,note_off,,,,,768,0,2,,,,,1,,,78,0
222528,note_off,,,,,192,0,1,,,,,0,,,85,0
222528,note_on,,,,,0,0,1,,,,,0,,,84,100
222528,note_on,,,,,0,0,2,,,,,1,,,75,100
222528,note_off,,,,,192,0,2,,,,,1,,,76,0
222720,note_off,,,,,192,0,1,,,,,0,,,84,0
222720,note_on,,,,,0,0,1,,,,,0,,,85,100
222720,note_on,,,,,0,0,2,,,,,1,,,76,100
222720,note_off,,,,,1152,0,3,,,,,2,,,66,0
222720,note_off,,,,,192,0,2,,,,,1,,,75,0
222912,note_on,,,,,192,0,3,,,,,2,,,54,100
222912,note_off,,,,,192,0,1,,,,,0,,,85,0
222912,note_off,,,,,192,0,2,,,,,1,,,76,0
223008,note_off,,,,,96,0,3,,,,,2,,,54,0
223104,note_on,,,,,96,0,3,,,,,2,,,58,100
223104,note_on,,,,,192,0,1,,,,,0,,,85,100
223104,note_on,,,,,192,0,2,,,,,1,,,76,100
223200,note_off,,,,,96,0,3,,,,,2,,,58,0
223296,note_on,,,,,96,0,3,,,,,2,,,61,100
223392,note_off,,,,,96,0,3,,,,,2,,,61,0
223488,note_on,,,,,96,0,3,,,,,2,,,66,100
223872,note_on,,,,,0,0,2,,,,,1,,,75,100
223872,note_off,,,,,768,0,1,,,,,0,,,85,0
223872,note_on,,,,,0,0,1,,,,,0,,,83,100
223872,note_off,,,,,768,0,2,,,,,1,,,76,0
224064,note_off,,,,,192,0,1,,,,,0,,,83,0
224064,note_on,,,,,0,0,1,,,,,0,,,82,100
224064,note_off,,,,,192,0,2,,,,,1,,,75,0
224064,note_on,,,,,0,0,2,,,,,1,,,73,100
224256,note_on,,,,,0,0,1,,,,,0,,,83,100
224256,note_on,,,,,0,0,2,,,,,1,,,71,100
224256,note_off,,,,,192,0,2,,,,,1,,,73,0
224256,note_on,,,,,0,0,4,,,,,3,,,47,100
224256,note_on,,,,,0,0,3,,,,,2,,,59,100
224256,note_off,,,,,768,0,3,,,,,2,,,66,0
224256,note_off,,,,,192,0,1,,,,,0,,,82,0
224256,note_off,,,,,2304,0,4,,,,,3,,,54,0
224352,note_off,,,,,96,0,1,,,,,0,,,83,0
224448,note_on,,,,,96,0,1,,,,,0,,,83,100
224544,note_off,,,,,96,0,1,,,,,0,,,83,0
224640,note_off,,,,,384,0,2,,,,,1,,,71,0
224640,note_off,,,,,384,0,3,,,,,2,,,59,0
224640,note_on,,,,,96,0,1,,,,,0,,,87,100
224640,note_off,,,,,384,0,4,,,,,3,,,47,0
224736,note_off,,,,,96,0,1,,,,,0,,,87,0
224832,note_on,,,,,96,0,1,,,,,0,,,90,100
224928,note_off,,,,,96,0,1,,,,,0,,,90,0
225024,note_on,,,,,384,0,4,,,,,3,,,51,100
225024,note_on,,,,,0,0,2,,,,,1,,,71,100
225024,note_on,,,,,96,0,1,,,,,0,,,95,100
225024,note_on,,,,,384,0,3,,,,,2,,,59,100
225024,note_on,,,,,0,0,3,,,,,2,,,66,100
225024,note_on,,,,,384,0,2,,,,,1,,,78,100
225120,note_off,,,,,96,0,1,,,,,0,,,95,0
225216,note_on,,,,,96,0,1,,,,,0,,,83,100
225312,note_off,,,,,96,0,1,,,,,0,,,83,0
225408,note_off,,,,,0,0,2,,,,,1,,,71,0
225408,note_off,,,,,384,0,2,,,,,1,,,78,0
225408,note_on,,,,,96,0,1,,,,,0,,,87,100
225408,note_off,,,,,384,0,3,,,,,2,,,59,0
225408,note_off,,,,,0,0,3,,,,,2,,,66,0
225408,note_off,,,,,384,0,4,,,,,3,,,51,0
225504,note_off,,,,,96,0,1,,,,,0,,,87,0
225600,note_on,,,,,96,0,1,,,,,0,,,90,100
225696,note_off,,,,,96,0,1,,,,,0,,,90,0
225792,note_on,,,,,384,0,3,,,,,2,,,68,100
225792,note_on,,,,,384,0,4,,,,,3,,,52,100
225792,note_on,,,,,0,0,3,,,,,2,,,59,100
225792,note_on,,,,,96,0,1,,,,,0,,,92,100
225792,note_on,,,,,384,0,2,,,,,1,,,80,100
225792,note_on,,,,,0,0,2,,,,,1,,,71,100
225888,note_off,,,,,96,0,1,,,,,0,,,92,0
225984,note_on,,,,,96,0,1,,,,,0,,,80,100
226080,note_off,,,,,96,0,1,,,,,0,,,80,0
226176,note_off,,,,,0,0,2,,,,,1,,,71,0
226176,note_off,,,,,384,0,3,,,,,2,,,68,0
226176,note_off,,,,,0,0,3,,,,,2,,,59,0
226176,note_on,,,,,96,0,1,,,,,0,,,83,100
226176,note_off,,,,,384,0,2,,,,,1,,,80,0
226176,note_off,,,,,384,0,4,,,,,3,,,52,0
226272,note_off,,,,,96,0,1,,,,,0,,,83,0
226368,note_on,,,,,96,0,1,,,,,0,,,88,100
226464,note_off,,,,,96,0,1,,,,,0,,,88,0
226560,note_on,,,,,384,0,3,,,,,2,,,61,100
226560,note_on,,,,,0,0,3,,,,,2,,,64,100
226560,note_on,,,,,384,0,4,,,,,3,,,54,100
226560,note_on,,,,,384,0,2,,,,,1,,,70,100
226560,note_on,,,,,0,0,2,,,,,1,,,61,100
226560,note_on,,,,,96,0,1,,,,,0,,,85,100
226656,note_off,,,,,96,0,1,,,,,0,,,85,0
226752,note_on,,,,,96,0,1,,,,,0,,,82,100
226848,note_off,,,,,96,0,1,,,,,0,,,82,0
226944,note_off,,,,,0,0,3,,,,,2,,,64,0
226944,note_off,,,,,384,0,3,,,,,2,,,61,0
226944,note_off,,,,,0,0,2,,,,,1,,,61,0
226944,note_off,,,,,384,0,4,,,,,3,,,54,0
226944,note_on,,,,,96,0,1,,,,,0,,,85,100
226944,note_off,,,,,384,0,2,,,,,1,,,70,0
227040,note_off,,,,,96,0,1,,,,,0,,,85,0
227136,note_on,,,,,96,0,1,,,,,0,,,90,100
227232,note_off,,,,,96,0,1,,,,,0,,,90,0
227328,note_on,,,,,384,0,2,,,,,1,,,63,100
227328,note_on,,,,,384,0,3,,,,,2,,,63,100
227328,note_on,,,,,0,0,2,,,,,1,,,71,100
227328,note_on,,,,,384,0,4,,,,,3,,,59,100
227328,note_on,,,,,96,0,1,,,,,0,,,87,100
227424,note_off,,,,,96,0,1,,,,,0,,,87,0
227520,note_on,,,,,96,0,1,,,,,0,,,83,100
227616,note_off,,,,,96,0,1,,,,,0,,,83,0
227712,note_off,,,,,384,0,2,,,,,1,,,63,0
227712,note_on,,,,,96,0,1,,,,,0,,,87,100
227712,note_off,,,,,384,0,3,,,,,2,,,63,0
227712,note_off,,,,,0,0,2,,,,,1,,,71,0
227712,note_off,,,,,384,0,4,,,,,3,,,59,0
227808,note_off,,,,,96,0,1,,,,,0,,,87,0
227904,note_on,,,,,96,0,1,,,,,0,,,90,100
228000,note_off,,,,,96,0,1,,,,,0,,,90,0
228096,note_on,,,,,384,0,4,,,,,3,,,51,100
228096,note_on,,,,,96,0,1,,,,,0,,,95,100
228096,note_on,,,,,0,0,2,,,,,1,,,71,100
228096,note_on,,,,,384,0,3,,,,,2,,,59,100
228096,note_on,,,,,0,0,3,,,,,2,,,66,100
228096,note_on,,,,,384,0,2,,,,,1,,,78,100
228192,note_off,,,,,0,0,3,,,,,2,,,66,0
228192,note_off,,,,,96,0,3,,,,,2,,,59,0
228192,note_off,,,,,96,0,1,,,,,0,,,95,0
228192,note_off,,,,,96,0,2,,,,,1,,,78,0
228192,note_off,,,,,96,0,4,,,,,3,,,51,0
228192,note_off,,,,,0,0,2,,,,,1,,,71,0
228288,note_on,,,,,96,0,3,,,,,2,,,66,100
228288,note_on,,,,,96,0,4,,,,,3,,,51,100
228288,note_on,,,,,96,0,1,,,,,0,,,83,100
228288,note_on,,,,,0,0,3,,,,,2,,,59,100
228288,note_on,,,,,96,0,2,,,,,1,,,78,100
228288,note_on,,,,,0,0,2,,,,,1,,,71,100
228384,note_off,,,,,96,0,2,,,,,1,,,78,0
228384,note_off,,,,,0,0,2,,,,,1,,,71,0
228384,note_off,,,,,96,0,4,,,,,3,,,51,0
228384,note_off,,,,,0,0,3,,,,,2,,,59,0
228384,note_off,,,,,96,0,3,,,,,2,,,66,0
228384,note_off,,,,,96,0,1,,,,,0,,,83,0
228480,note_on,,,,,96,0,3,,,,,2,,,59,100
228480,note_on,,,,,0,0,2,,,,,1,,,78,100
228480,note_on,,,,,96,0,4,,,,,3,,,51,100
228480,note_on,,,,,0,0,3,,,,,2,,,66,100
228480,note_on,,,,,96,0,2,,,,,1,,,71,100
228480,note_on,,,,,96,0,1,,,,,0,,,87,100
228576,note_off,,,,,96,0,2,,,,,1,,,71,0
228576,note_off,,,,,96,0,4,,,,,3,,,51,0
228576,note_off,,,,,96,0,1,,,,,0,,,87,0
228576,note_off,,,,,96,0,3,,,,,2,,,59,0
228576,note_off,,,,,0,0,3,,,,,2,,,66,0
228576,note_off,,,,,0,0,2,,,,,1,,,78,0
228672,note_on,,,,,96,0,1,,,,,0,,,90,100
228768,note_off,,,,,96,0,1,,,,,0,,,90,0
228864,note_on,,,,,96,0,1,,,,,0,,,92,100
228864,note_on,,,,,0,0,3,,,,,2,,,68,100
228864,note_on,,,,,288,0,3,,,,,2,,,59,100
228864,note_on,,,,,0,0,2,,,,,1,,,71,100
228864,note_on,,,,,288,0,2,,,,,1,,,80,100
228864,note_on,,,,,288,0,4,,,,,3,,,52,100
228960,note_off,,,,,96,0,1,,,,,0,,,92,0
228960,note_off,,,,,96,0,3,,,,,2,,,59,0
228960,note_off,,,,,96,0,4,,,,,3,,,52,0
228960,note_off,,,,,0,0,3,,,,,2,,,68,0
228960,note_off,,,,,96,0,2,,,,,1,,,80,0
228960,note_off,,,,,0,0,2,,,,,1,,,71,0
229056,note_on,,,,,96,0,3,,,,,2,,,59,100
229056,note_on,,,,,96,0,1,,,,,0,,,80,100
229056,note_on,,,,,0,0,3,,,,,2,,,68,100
229056,note_on,,,,,0,0,2,,,,,1,,,71,100
229056,note_on,,,,,96,0,4,,,,,3,,,52,100
229056,note_on,,,,,96,0,2,,,,,1,,,80,100
229152,note_off,,,,,96,0,1,,,,,0,,,80,0
229152,note_off,,,,,96,0,3,,,,,2,,,59,0
229152,note_off,,,,,96,0,2,,,,,1,,,80,0
229152,note_off,,,,,0,0,3,,,,,2,,,68,0
229152,note_off,,,,,0,0,2,,,,,1,,,71,0
229152,note_off,,,,,96,0,4,,,,,3,,,52,0
229248,note_on,,,,,96,0,2,,,,,1,,,80,100
229248,note_on,,,,,96,0,3,,,,,2,,,59,100
229248,note_on,,,,,96,0,4,,,,,3,,,52,100
229248,note_on,,,,,0,0,3,,,,,2,,,68,100
229248,note_on,,,,,96,0,1,,,,,0,,,83,100
229248,note_on,,,,,0,0,2,,,,,1,,,71,100
229344,note_off,,,,,96,0,2,,,,,1,,,80,0
229344,note_off,,,,,0,0,2,,,,,1,,,71,0
229344,note_off,,,,,96,0,4,,,,,3,,,52,0
229344,note_off,,,,,0,0,3,,,,,2,,,68,0
229344,note_off,,,,,96,0,3,,,,,2,,,59,0
229344,note_off,,,,,96,0,1,,,,,0,,,83,0
229440,note_on,,,,,96,0,1,,,,,0,,,88,100
229536,note_off,,,,,96,0,1,,,,,0,,,88,0
229632,note_on,,,,,0,0,2,,,,,1,,,70,100
229632,note_on,,,,,96,0,1,,,,,0,,,85,100
229632,note_on,,,,,288,0,4,,,,,3,,,54,100
229632,note_on,,,,,288,0,3,,,,,2,,,61,100
229632,note_on,,,,,0,0,3,,,,,2,,,64,100
229632,note_on,,,,,288,0,2,,,,,1,,,61,100
229728,note_off,,,,,96,0,2,,,,,1,,,61,0
229728,note_off,,,,,0,0,3,,,,,2,,,64,0
229728,note_off,,,,,96,0,4,,,,,3,,,54,0
229728,note_off,,,,,96,0,3,,,,,2,,,61,0
229728,note_off,,,,,0,0,2,,,,,1,,,70,0
229728,note_off,,,,,96,0,1,,,,,0,,,85,0
229824,note_on,,,,,96,0,2,,,,,1,,,61,100
229824,note_on,,,,,96,0,1,,,,,0,,,82,100
229824,note_on,,,,,96,0,4,,,,,3,,,54,100
229824,note_on,,,,,96,0,3,,,,,2,,,61,100
229824,note_on,,,,,0,0,3,,,,,2,,,64,100
229824,note_on,,,,,0,0,2,,,,,1,,,70,100
229920,note_off,,,,,96,0,1,,,,,0,,,82,0
229920,note_off,,,,,96,0,4,,,,,3,,,54,0
229920,note_off,,,,,96,0,3,,,,,2,,,61,0
229920,note_off,,,,,0,0,3,,,,,2,,,64,0
229920,note_off,,,,,96,0,2,,,,,1,,,61,0
229920,note_off,,,,,0,0,2,,,,,1,,,70,0
230016,note_on,,,,,96,0,4,,,,,3,,,54,100
230016,note_on,,,,,0,0,3,,,,,2,,,64,100
230016,note_on,,,,,96,0,2,,,,,1,,,61,100
230016,note_on,,,,,96,0,3,,,,,2,,,61,100
230016,note_on,,,,,96,0,1,,,,,0,,,85,100
230016,note_on,,,,,0,0,2,,,,,1,,,70,100
230112,note_off,,,,,96,0,2,,,,,1,,,61,0
230112,note_off,,,,,96,0,1,,,,,0,,,85,0
230112,note_off,,,,,96,0,4,,,,,3,,,54,0
230112,note_off,,,,,0,0,3,,,,,2,,,64,0
230112,note_off,,,,,96,0,3,,,,,2,,,61,0
230112,note_off,,,,,0,0,2,,,,,1,,,70,0
230208,note_on,,,,,96,0,1,,,,,0,,,90,100
230304,note_off,,,,,96,0,1,,,,,0,,,90,0
230400,note_on,,,,,96,0,1,,,,,0,,,85,100
230496,note_off,,,,,96,0,1,,,,,0,,,85,0
230592,note_on,,,,,96,0,1,,,,,0,,,82,100
230688,note_off,,,,,96,0,1,,,,,0,,,82,0
230784,note_on,,,,,96,0,1,,,,,0,,,85,100
230880,note_off,,,,,96,0,1,,,,,0,,,85,0
230976,note_on,,,,,96,0,1,,,,,0,,,90,100
231072,note_off,,,,,96,0,1,,,,,0,,,90,0
231168,note_on,,,,,96,0,1,,,,,0,,,85,100
231264,note_off,,,,,96,0,1,,,,,0,,,85,0
231360,note_on,,,,,96,0,1,,,,,0,,,82,100
231456,note_off,,,,,96,0,1,,,,,0,,,82,0
231552,note_on,,,,,96,0,1,,,,,0,,,85,100
231648,note_off,,,,,96,0,1,,,,,0,,,85,0
231744,note_on,,,,,96,0,1,,,,,0,,,90,100
231840,note_off,,,,,96,0,1,,,,,0,,,90,0
231936,note_on,,,,,96,0,1,,,,,0,,,85,100
232032,note_off,,,,,96,0,1,,,,,0,,,85,0
232128,note_on,,,,,96,0,1,,,,,0,,,82,100
232224,note_off,,,,,96,0,1,,,,,0,,,82,0
232320,note_on,,,,,96,0,1,,,,,0,,,85,100
232416,note_off,,,,,96,0,1,,,,,0,,,85,0
232512,note_on,,,,,96,0,1,,,,,0,,,90,100
232608,note_off,,,,,96,0,1,,,,,0,,,90,0
232704,note_on,,,,,96,0,1,,,,,0,,,85,100
232800,note_off,,,,,96,0,1,,,,,0,,,85,0
232896,note_on,,,,,96,0,1,,,,,0,,,82,100
232992,note_off,,,,,96,0,1,,,,,0,,,82,0
233088,note_on,,,,,96,0,1,,,,,0,,,85,100
233184,note_off,,,,,96,0,1,,,,,0,,,85,0
233280,note_on,,,,,96,0,1,,,,,0,,,90,100
233376,note_off,,,,,96,0,1,,,,,0,,,90,0
233472,note_on,,,,,96,0,1,,,,,0,,,85,100
233568,note_off,,,,,96,0,1,,,,,0,,,85,0
233664,note_on,,,,,96,0,1,,,,,0,,,82,100
233760,note_off,,,,,96,0,1,,,,,0,,,82,0
233856,note_on,,,,,96,0,1,,,,,0,,,85,100
233856,note_on,,,,,3744,0,4,,,,,3,,,61,100
233856,note_on,,,,,3744,0,3,,,,,2,,,64,100
233952,note_off,,,,,96,0,1,,,,,0,,,85,0
234048,note_on,,,,,96,0,1,,,,,0,,,90,100
234144,note_off,,,,,96,0,1,,,,,0,,,90,0
234240,note_on,,,,,96,0,1,,,,,0,,,85,100
234336,note_off,,,,,96,0,1,,,,,0,,,85,0
234432,note_on,,,,,0,0,3,,,,,2,,,63,100
234432,note_off,,,,,576,0,4,,,,,3,,,61,0
234432,note_on,,,,,0,0,4,,,,,3,,,59,100
234432,note_on,,,,,96,0,1,,,,,0,,,78,100
234432,note_off,,,,,576,0,3,,,,,2,,,64,0
234528,note_off,,,,,96,0,1,,,,,0,,,78,0
234624,note_on,,,,,0,0,4,,,,,3,,,54,100
234624,note_on,,,,,96,0,1,,,,,0,,,85,100
234624,note_on,,,,,0,0,3,,,,,2,,,61,100
234624,note_off,,,,,192,0,3,,,,,2,,,63,0
234624,note_off,,,,,192,0,4,,,,,3,,,59,0
234720,note_off,,,,,96,0,1,,,,,0,,,85,0
234816,note_on,,,,,96,0,1,,,,,0,,,90,100
234816,note_on,,,,,0,0,3,,,,,2,,,63,100
234816,note_on,,,,,0,0,4,,,,,3,,,59,100
234816,note_off,,,,,192,0,4,,,,,3,,,54,0
234816,note_off,,,,,192,0,3,,,,,2,,,61,0
234912,note_off,,,,,96,0,1,,,,,0,,,90,0
235008,note_on,,,,,96,0,1,,,,,0,,,85,100
235008,note_off,,,,,192,0,4,,,,,3,,,59,0
235008,note_on,,,,,0,0,4,,,,,3,,,61,100
235008,note_off,,,,,192,0,3,,,,,2,,,63,0
235008,note_on,,,,,0,0,3,,,,,2,,,64,100
235104,note_off,,,,,96,0,1,,,,,0,,,85,0
235200,note_on,,,,,96,0,1,,,,,0,,,82,100
235296,note_off,,,,,96,0,1,,,,,0,,,82,0
235392,note_off,,,,,384,0,3,,,,,2,,,64,0
235392,note_on,,,,,96,0,1,,,,,0,,,85,100
235392,note_on,,,,,0,0,3,,,,,2,,,73,100
235392,note_on,,,,,5280,0,2,,,,,1,,,76,100
235392,note_off,,,,,384,0,4,,,,,3,,,61,0
235488,note_off,,,,,96,0,1,,,,,0,,,85,0
235584,note_on,,,,,96,0,1,,,,,0,,,90,100
235680,note_off,,,,,96,0,1,,,,,0,,,90,0
235776,note_on,,,,,96,0,1,,,,,0,,,85,100
235872,note_off,,,,,96,0,1,,,,,0,,,85,0
235968,note_on,,,,,0,0,2,,,,,1,,,75,100
235968,note_off,,,,,576,0,3,,,,,2,,,73,0
235968,note_on,,,,,96,0,1,,,,,0,,,78,100
235968,note_on,,,,,0,0,3,,,,,2,,,71,100
235968,note_off,,,,,576,0,2,,,,,1,,,76,0
236064,note_off,,,,,96,0,1,,,,,0,,,78,0
236160,note_on,,,,,0,0,2,,,,,1,,,73,100
236160,note_off,,,,,192,0,2,,,,,1,,,75,0
236160,note_on,,,,,0,0,3,,,,,2,,,66,100
236160,note_off,,,,,192,0,3,,,,,2,,,71,0
236160,note_on,,,,,96,0,1,,,,,0,,,85,100
236256,note_off,,,,,96,0,1,,,,,0,,,85,0
236352,note_off,,,,,192,0,3,,,,,2,,,66,0
236352,note_on,,,,,96,0,1,,,,,0,,,90,100
236352,note_off,,,,,192,0,2,,,,,1,,,73,0
236352,note_on,,,,,0,0,2,,,,,1,,,75,100
236352,note_on,,,,,0,0,3,,,,,2,,,71,100
236448,note_off,,,,,96,0,1,,,,,0,,,90,0
236544,note_on,,,,,96,0,1,,,,,0,,,85,100
236544,note_off,,,,,192,0,2,,,,,1,,,75,0
236544,note_on,,,,,0,0,3,,,,,2,,,73,100
236544,note_off,,,,,192,0,3,,,,,2,,,71,0
236544,note_on,,,,,0,0,2,,,,,1,,,76,100
236640,note_off,,,,,96,0,1,,,,,0,,,85,0
236736,note_on,,,,,96,0,1,,,,,0,,,82,100
236832,note_off,,,,,96,0,1,,,,,0,,,82,0
236928,note_on,,,,,96,0,1,,,,,0,,,85,100
237024,note_off,,,,,96,0,1,,,,,0,,,85,0
237120,note_on,,,,,96,0,1,,,,,0,,,90,100
237216,note_off,,,,,96,0,1,,,,,0,,,90,0
237312,note_off,,,,,768,0,2,,,,,1,,,76,0
237312,note_on,,,,,0,0,2,,,,,1,,,70,100
237312,note_on,,,,,1920,0,4,,,,,3,,,64,100
237312,note_on,,,,,96,0,1,,,,,0,,,85,100
237408,note_off,,,,,96,0,1,,,,,0,,,85,0
237504,note_on,,,,,96,0,1,,,,,0,,,82,100
237600,note_off,,,,,96,0,1,,,,,0,,,82,0
237696,note_on,,,,,96,0,1,,,,,0,,,85,100
237792,note_off,,,,,96,0,1,,,,,0,,,85,0
237888,note_on,,,,,96,0,1,,,,,0,,,90,100
237984,note_off,,,,,96,0,1,,,,,0,,,90,0
238080,note_off,,,,,1536,0,3,,,,,2,,,73,0
238080,note_on,,,,,0,0,2,,,,,1,,,71,100
238080,note_off,,,,,768,0,2,,,,,1,,,70,0
238080,note_on,,,,,96,0,1,,,,,0,,,87,100
238080,note_on,,,,,0,0,3,,,,,2,,,71,100
238080,note_on,,,,,0,0,4,,,,,3,,,63,100
238080,note_off,,,,,768,0,4,,,,,3,,,64,0
238176,note_off,,,,,96,0,1,,,,,0,,,87,0
238272,note_on,,,,,96,0,1,,,,,0,,,83,100
238368,note_off,,,,,96,0,1,,,,,0,,,83,0
238464,note_on,,,,,96,0,1,,,,,0,,,87,100
238560,note_off,,,,,96,0,1,,,,,0,,,87,0
238656,note_on,,,,,96,0,1,,,,,0,,,90,100
238752,note_off,,,,,96,0,1,,,,,0,,,90,0
238848,note_on,,,,,0,0,3,,,,,2,,,64,100
238848,note_off,,,,,768,0,3,,,,,2,,,71,0
238848,note_off,,,,,768,0,2,,,,,1,,,71,0
238848,note_on,,,,,0,0,2,,,,,1,,,70,100
238848,note_on,,,,,96,0,1,,,,,0,,,88,100
238848,note_on,,,,,0,0,4,,,,,3,,,66,100
238848,note_off,,,,,768,0,4,,,,,3,,,63,0
238944,note_off,,,,,96,0,1,,,,,0,,,88,0
239040,note_on,,,,,96,0,1,,,,,0,,,85,100
239136,note_off,,,,,96,0,1,,,,,0,,,85,0
239232,note_on,,,,,96,0,1,,,,,0,,,88,100
239328,note_off,,,,,96,0,1,,,,,0,,,88,0
239424,note_on,,,,,96,0,1,,,,,0,,,90,100
239520,note_off,,,,,96,0,1,,,,,0,,,90,0
239616,note_on,,,,,0,0,2,,,,,1,,,71,100
239616,note_off,,,,,768,0,4,,,,,3,,,66,0
239616,note_on,,,,,0,0,4,,,,,3,,,59,100
239616,note_off,,,,,768,0,2,,,,,1,,,70,0
239616,note_on,,,,,96,0,1,,,,,0,,,83,100
239616,note_off,,,,,768,0,3,,,,,2,,,64,0
239616,note_on,,,,,0,0,3,,,,,2,,,63,100
239712,note_off,,,,,96,0,2,,,,,1,,,71,0
239712,note_off,,,,,96,0,3,,,,,2,,,63,0
239808,note_on,,,,,96,0,2,,,,,1,,,63,100
239808,note_off,,,,,192,0,4,,,,,3,,,59,0
239808,note_on,,,,,96,0,3,,,,,2,,,59,100
239808,note_off,,,,,192,0,1,,,,,0,,,83,0
239904,note_off,,,,,96,0,2,,,,,1,,,63,0
239904,note_off,,,,,96,0,3,,,,,2,,,59,0
240000,note_on,,,,,96,0,3,,,,,2,,,63,100
240000,note_on,,,,,192,0,1,,,,,0,,,87,100
240000,note_on,,,,,192,0,4,,,,,3,,,47,100
240000,note_on,,,,,96,0,2,,,,,1,,,66,100
240096,note_off,,,,,96,0,2,,,,,1,,,66,0
240096,note_off,,,,,96,0,3,,,,,2,,,63,0
240192,note_on,,,,,96,0,3,,,,,2,,,66,100
240192,note_on,,,,,96,0,2,,,,,1,,,71,100
240288,note_off,,,,,96,0,3,,,,,2,,,66,0
240288,note_off,,,,,96,0,2,,,,,1,,,71,0
240384,note_on,,,,,96,0,3,,,,,2,,,63,100
240384,note_on,,,,,96,0,2,,,,,1,,,66,100
240480,note_off,,,,,96,0,2,,,,,1,,,66,0
240480,note_off,,,,,96,0,3,,,,,2,,,63,0
240576,note_on,,,,,96,0,2,,,,,1,,,63,100
240576,note_on,,,,,0,0,1,,,,,0,,,83,100
240576,note_off,,,,,576,0,1,,,,,0,,,87,0
240576,note_on,,,,,96,0,3,,,,,2,,,59,100
240672,note_off,,,,,96,0,2,,,,,1,,,63,0
240672,note_off,,,,,96,0,3,,,,,2,,,59,0
240768,note_off,,,,,192,0,1,,,,,0,,,83,0
240768,note_on,,,,,96,0,3,,,,,2,,,63,100
240768,note_on,,,,,0,0,1,,,,,0,,,75,100
240768,note_on,,,,,96,0,2,,,,,1,,,66,100
240768,note_off,,,,,768,0,4,,,,,3,,,47,0
240768,note_on,,,,,0,0,4,,,,,3,,,51,100
240864,note_off,,,,,96,0,3,,,,,2,,,63,0
240864,note_off,,,,,96,0,2,,,,,1,,,66,0
240960,note_on,,,,,96,0,2,,,,,1,,,71,100
240960,note_on,,,,,96,0,3,,,,,2,,,66,100
240960,note_on,,,,,0,0,1,,,,,0,,,76,100
240960,note_off,,,,,192,0,1,,,,,0,,,75,0
241056,note_off,,,,,96,0,2,,,,,1,,,71,0
241056,note_off,,,,,96,0,3,,,,,2,,,66,0
241152,note_on,,,,,96,0,2,,,,,1,,,66,100
241152,note_on,,,,,96,0,3,,,,,2,,,64,100
241152,note_off,,,,,384,0,4,,,,,3,,,51,0
241152,note_on,,,,,0,0,4,,,,,3,,,42,100
241152,note_on,,,,,0,0,1,,,,,0,,,78,100
241152,note_off,,,,,192,0,1,,,,,0,,,76,0
241248,note_off,,,,,96,0,3,,,,,2,,,64,0
241248,note_off,,,,,96,0,2,,,,,1,,,66,0
241344,note_on,,,,,96,0,3,,,,,2,,,61,100
241344,note_off,,,,,192,0,4,,,,,3,,,42,0
241344,note_on,,,,,96,0,2,,,,,1,,,64,100
241344,note_off,,,,,192,0,1,,,,,0,,,78,0
241440,note_off,,,,,96,0,3,,,,,2,,,61,0
241440,note_off,,,,,96,0,2,,,,,1,,,64,0
241536,note_on,,,,,96,0,2,,,,,1,,,66,100
241536,note_on,,,,,192,0,4,,,,,3,,,58,100
241536,note_on,,,,,96,0,3,,,,,2,,,64,100
241536,note_on,,,,,192,0,1,,,,,0,,,90,100
241632,note_off,,,,,96,0,3,,,,,2,,,64,0
241632,note_off,,,,,96,0,2,,,,,1,,,66,0
241728,note_on,,,,,96,0,3,,,,,2,,,66,100
241728,note_on,,,,,0,0,4,,,,,3,,,61,100
241728,note_off,,,,,192,0,4,,,,,3,,,58,0
241728,note_on,,,,,96,0,2,,,,,1,,,70,100
241824,note_off,,,,,96,0,2,,,,,1,,,70,0
241824,note_off,,,,,96,0,3,,,,,2,,,66,0
241920,note_on,,,,,96,0,3,,,,,2,,,64,100
241920,note_on,,,,,96,0,2,,,,,1,,,66,100
241920,note_on,,,,,0,0,4,,,,,3,,,64,100
241920,note_off,,,,,192,0,4,,,,,3,,,61,0
242016,note_off,,,,,96,0,3,,,,,2,,,64,0
242016,note_off,,,,,96,0,2,,,,,1,,,66,0
242112,note_on,,,,,96,0,2,,,,,1,,,64,100
242112,note_on,,,,,96,0,3,,,,,2,,,61,100
242208,note_off,,,,,96,0,3,,,,,2,,,61,0
242208,note_off,,,,,96,0,2,,,,,1,,,64,0
242304,note_off,,,,,384,0,4,,,,,3,,,64,0
242304,note_on,,,,,0,0,4,,,,,3,,,54,100
242304,note_off,,,,,768,0,1,,,,,0,,,90,0
242304,note_on,,,,,0,0,1,,,,,0,,,82,100
242304,note_on,,,,,96,0,2,,,,,1,,,66,100
242304,note_on,,,,,96,0,3,,,,,2,,,64,100
242400,note_off,,,,,96,0,2,,,,,1,,,66,0
242400,note_off,,,,,96,0,3,,,,,2,,,64,0
242496,note_on,,,,,96,0,3,,,,,2,,,66,100
242496,note_off,,,,,192,0,4,,,,,3,,,54,0
242496,note_on,,,,,96,0,2,,,,,1,,,70,100
242592,note_off,,,,,96,0,2,,,,,1,,,70,0
242592,note_off,,,,,96,0,3,,,,,2,,,66,0
242688,note_on,,,,,0,0,1,,,,,0,,,83,100
242688,note_on,,,,,96,0,3,,,,,2,,,63,100
242688,note_off,,,,,384,0,1,,,,,0,,,82,0
242688,note_on,,,,,96,0,2,,,,,1,,,66,100
242688,note_on,,,,,192,0,4,,,,,3,,,59,100
242784,note_off,,,,,96,0,3,,,,,2,,,63,0
242784,note_off,,,,,96,0,2,,,,,1,,,66,0
242880,note_on,,,,,96,0,3,,,,,2,,,59,100
242880,note_off,,,,,192,0,1,,,,,0,,,83,0
242880,note_off,,,,,192,0,4,,,,,3,,,59,0
242880,note_on,,,,,96,0,2,,,,,1,,,63,100
242976,note_off,,,,,96,0,2,,,,,1,,,63,0
242976,note_off,,,,,96,0,3,,,,,2,,,59,0
243072,note_on,,,,,192,0,4,,,,,3,,,47,100
243072,note_on,,,,,96,0,2,,,,,1,,,66,100
243072,note_on,,,,,192,0,1,,,,,0,,,87,100
243072,note_on,,,,,96,0,3,,,,,2,,,63,100
243168,note_off,,,,,96,0,2,,,,,1,,,66,0
243168,note_off,,,,,96,0,3,,,,,2,,,63,0
243264,note_on,,,,,96,0,2,,,,,1,,,71,100
243264,note_on,,,,,96,0,3,,,,,2,,,66,100
243360,note_off,,,,,96,0,2,,,,,1,,,71,0
243360,note_off,,,,,96,0,3,,,,,2,,,66,0
243456,note_on,,,,,96,0,3,,,,,2,,,63,100
243456,note_on,,,,,96,0,2,,,,,1,,,66,100
243552,note_off,,,,,96,0,3,,,,,2,,,63,0
243552,note_off,,,,,96,0,2,,,,,1,,,66,0
243648,note_on,,,,,96,0,3,,,,,2,,,59,100
243648,note_on,,,,,96,0,2,,,,,1,,,63,100
243648,note_on,,,,,0,0,1,,,,,0,,,83,100
243648,note_off,,,,,576,0,1,,,,,0,,,87,0
243744,note_off,,,,,96,0,3,,,,,2,,,59,0
243744,note_off,,,,,96,0,2,,,,,1,,,63,0
243840,note_on,,,,,0,0,4,,,,,3,,,51,100
243840,note_off,,,,,768,0,4,,,,,3,,,47,0
243840,note_off,,,,,192,0,1,,,,,0,,,83,0
243840,note_on,,,,,96,0,3,,,,,2,,,63,100
243840,note_on,,,,,0,0,1,,,,,0,,,75,100
243840,note_on,,,,,96,0,2,,,,,1,,,66,100
243936,note_off,,,,,96,0,3,,,,,2,,,63,0
243936,note_off,,,,,96,0,2,,,,,1,,,66,0
244032,note_on,,,,,96,0,3,,,,,2,,,66,100
244032,note_off,,,,,192,0,1,,,,,0,,,75,0
244032,note_on,,,,,96,0,2,,,,,1,,,71,100
244032,note_on,,,,,0,0,1,,,,,0,,,76,100
244128,note_off,,,,,96,0,3,,,,,2,,,66,0
244128,note_off,,,,,96,0,2,,,,,1,,,71,0
244224,note_off,,,,,192,0,1,,,,,0,,,76,0
244224,note_off,,,,,384,0,4,,,,,3,,,51,0
244224,note_on,,,,,0,0,4,,,,,3,,,42,100
244224,note_on,,,,,96,0,2,,,,,1,,,66,100
244224,note_on,,,,,96,0,3,,,,,2,,,64,100
244224,note_on,,,,,0,0,1,,,,,0,,,78,100
244320,note_off,,,,,96,0,3,,,,,2,,,64,0
244320,note_off,,,,,96,0,2,,,,,1,,,66,0
244416,note_off,,,,,192,0,4,,,,,3,,,42,0
244416,note_off,,,,,192,0,1,,,,,0,,,78,0
244416,note_on,,,,,96,0,2,,,,,1,,,64,100
244416,note_on,,,,,96,0,3,,,,,2,,,61,100
244512,note_off,,,,,96,0,2,,,,,1,,,64,0
244512,note_off,,,,,96,0,3,,,,,2,,,61,0
244608,note_on,,,,,96,0,3,,,,,2,,,64,100
244608,note_on,,,,,192,0,4,,,,,3,,,58,100
244608,note_on,,,,,96,0,2,,,,,1,,,66,100
244608,note_on,,,,,192,0,1,,,,,0,,,90,100
244704,note_off,,,,,96,0,3,,,,,2,,,64,0
244704,note_off,,,,,96,0,2,,,,,1,,,66,0
244800,note_on,,,,,0,0,4,,,,,3,,,61,100
244800,note_off,,,,,192,0,4,,,,,3,,,58,0
244800,note_on,,,,,96,0,3,,,,,2,,,66,100
244800,note_on,,,,,96,0,2,,,,,1,,,70,100
244896,note_off,,,,,96,0,3,,,,,2,,,66,0
244896,note_off,,,,,96,0,2,,,,,1,,,70,0
244992,note_on,,,,,0,0,4,,,,,3,,,64,100
244992,note_on,,,,,96,0,2,,,,,1,,,66,100
244992,note_on,,,,,96,0,3,,,,,2,,,64,100
244992,note_off,,,,,192,0,4,,,,,3,,,61,0
245088,note_off,,,,,96,0,2,,,,,1,,,66,0
245088,note_off,,,,,96,0,3,,,,,2,,,64,0
245184,note_on,,,,,96,0,2,,,,,1,,,64,100
245184,note_on,,,,,96,0,3,,,,,2,,,61,100
245280,note_off,,,,,96,0,3,,,,,2,,,61,0
245280,note_off,,,,,96,0,2,,,,,1,,,64,0
245376,note_on,,,,,96,0,2,,,,,1,,,66,100
245376,note_on,,,,,96,0,3,,,,,2,,,64,100
245376,note_on,,,,,0,0,4,,,,,3,,,54,100
245376,note_off,,,,,384,0,4,,,,,3,,,64,0
245376,note_off,,,,,768,0,1,,,,,0,,,90,0
245376,note_on,,,,,0,0,1,,,,,0,,,82,100
245472,note_off,,,,,96,0,2,,,,,1,,,66,0
245472,note_off,,,,,96,0,3,,,,,2,,,64,0
245568,note_on,,,,,96,0,3,,,,,2,,,66,100
245568,note_off,,,,,192,0,4,,,,,3,,,54,0
245568,note_on,,,,,96,0,2,,,,,1,,,70,100
245664,note_off,,,,,96,0,2,,,,,1,,,70,0
245664,note_off,,,,,96,0,3,,,,,2,,,66,0
245760,note_off,,,,,384,0,1,,,,,0,,,82,0
245760,note_on,,,,,96,0,3,,,,,2,,,64,100
245760,note_on,,,,,96,0,2,,,,,1,,,66,100
245856,note_off,,,,,96,0,3,,,,,2,,,64,0
245856,note_off,,,,,96,0,2,,,,,1,,,66,0
245952,note_on,,,,,96,0,2,,,,,1,,,64,100
245952,note_on,,,,,96,0,3,,,,,2,,,61,100
246048,note_off,,,,,96,0,2,,,,,1,,,64,0
246048,note_off,,,,,96,0,3,,,,,2,,,61,0
246144,note_on,,,,,576,0,4,,,,,3,,,58,100
246144,note_on,,,,,96,0,3,,,,,2,,,64,100
246144,note_on,,,,,96,0,2,,,,,1,,,66,100
246144,note_on,,,,,384,0,1,,,,,0,,,90,100
246240,note_off,,,,,96,0,2,,,,,1,,,66,0
246240,note_off,,,,,96,0,3,,,,,2,,,64,0
246336,note_on,,,,,96,0,2,,,,,1,,,70,100
246336,note_off,,,,,192,0,4,,,,,3,,,58,0
246336,note_on,,,,,0,0,4,,,,,3,,,61,100
246336,note_on,,,,,96,0,3,,,,,2,,,66,100
246432,note_off,,,,,96,0,2,,,,,1,,,70,0
246432,note_off,,,,,96,0,3,,,,,2,,,66,0
246528,note_on,,,,,96,0,2,,,,,1,,,66,100
246528,note_on,,,,,96,0,3,,,,,2,,,64,100
246528,note_off,,,,,192,0,4,,,,,3,,,61,0
246528,note_on,,,,,0,0,4,,,,,3,,,64,100
246624,note_off,,,,,96,0,2,,,,,1,,,66,0
246624,note_off,,,,,96,0,3,,,,,2,,,64,0
246720,note_on,,,,,96,0,2,,,,,1,,,64,100
246720,note_on,,,,,96,0,3,,,,,2,,,61,100
246816,note_off,,,,,96,0,3,,,,,2,,,61,0
246816,note_off,,,,,96,0,2,,,,,1,,,64,0
246912,note_on,,,,,96,0,2,,,,,1,,,66,100
246912,note_on,,,,,96,0,3,,,,,2,,,64,100
246912,note_on,,,,,0,0,4,,,,,3,,,54,100
246912,note_off,,,,,384,0,4,,,,,3,,,64,0
246912,note_off,,,,,768,0,1,,,,,0,,,90,0
246912,note_on,,,,,0,0,1,,,,,0,,,82,100
247008,note_off,,,,,96,0,2,,,,,1,,,66,0
247008,note_off,,,,,96,0,3,,,,,2,,,64,0
247104,note_on,,,,,96,0,3,,,,,2,,,66,100
247104,note_off,,,,,192,0,4,,,,,3,,,54,0
247104,note_on,,,,,96,0,2,,,,,1,,,70,100
247200,note_off,,,,,96,0,3,,,,,2,,,66,0
247200,note_off,,,,,96,0,2,,,,,1,,,70,0
247296,note_on,,,,,96,0,2,,,,,1,,,66,100
247296,note_off,,,,,384,0,1,,,,,0,,,82,0
247296,note_on,,,,,96,0,3,,,,,2,,,64,100
247392,note_off,,,,,96,0,3,,,,,2,,,64,0
247392,note_off,,,,,96,0,2,,,,,1,,,66,0
247488,note_on,,,,,96,0,2,,,,,1,,,64,100
247488,note_on,,,,,96,0,3,,,,,2,,,61,100
247584,note_off,,,,,96,0,3,,,,,2,,,61,0
247584,note_off,,,,,96,0,2,,,,,1,,,64,0
247680,note_on,,,,,96,0,3,,,,,2,,,64,100
247680,note_on,,,,,96,0,2,,,,,1,,,66,100
247680,note_on,,,,,576,0,4,,,,,3,,,58,100
247680,note_on,,,,,384,0,1,,,,,0,,,90,100
247776,note_off,,,,,96,0,2,,,,,1,,,66,0
247776,note_off,,,,,96,0,3,,,,,2,,,64,0
247872,note_on,,,,,96,0,3,,,,,2,,,66,100
247872,note_on,,,,,96,0,2,,,,,1,,,70,100
247872,note_on,,,,,0,0,4,,,,,3,,,61,100
247872,note_off,,,,,192,0,4,,,,,3,,,58,0
247968,note_off,,,,,96,0,2,,,,,1,,,70,0
247968,note_off,,,,,96,0,3,,,,,2,,,66,0
248064,note_on,,,,,0,0,4,,,,,3,,,64,100
248064,note_on,,,,,96,0,2,,,,,1,,,66,100
248064,note_off,,,,,192,0,4,,,,,3,,,61,0
248064,note_on,,,,,96,0,3,,,,,2,,,64,100
248160,note_off,,,,,96,0,2,,,,,1,,,66,0
248160,note_off,,,,,96,0,3,,,,,2,,,64,0
248256,note_on,,,,,96,0,3,,,,,2,,,61,100
248256,note_on,,,,,96,0,2,,,,,1,,,64,100
248352,note_off,,,,,96,0,3,,,,,2,,,61,0
248352,note_off,,,,,96,0,2,,,,,1,,,64,0
248448,note_off,,,,,384,0,4,,,,,3,,,64,0
248448,note_on,,,,,96,0,2,,,,,1,,,66,100
248448,note_off,,,,,768,0,1,,,,,0,,,90,0
248448,note_on,,,,,0,0,1,,,,,0,,,82,100
248448,note_on,,,,,96,0,3,,,,,2,,,66,100
248448,note_on,,,,,0,0,4,,,,,3,,,54,100
248544,note_off,,,,,96,0,2,,,,,1,,,66,0
248544,note_off,,,,,96,0,3,,,,,2,,,66,0
248640,note_on,,,,,96,0,2,,,,,1,,,73,100
248640,note_on,,,,,96,0,3,,,,,2,,,64,100
248640,note_off,,,,,192,0,4,,,,,3,,,54,0
248736,note_off,,,,,96,0,2,,,,,1,,,73,0
248736,note_off,,,,,96,0,3,,,,,2,,,64,0
248832,note_on,,,,,96,0,2,,,,,1,,,71,100
248832,note_off,,,,,384,0,1,,,,,0,,,82,0
248832,note_on,,,,,96,0,3,,,,,2,,,63,100
248832,note_on,,,,,0,0,1,,,,,0,,,83,100
248832,note_on,,,,,192,0,4,,,,,3,,,59,100
249216,note_off,,,,,384,0,3,,,,,2,,,63,0
249216,note_off,,,,,384,0,2,,,,,1,,,71,0
249216,note_off,,,,,384,0,4,,,,,3,,,59,0
249216,note_off,,,,,384,0,1,,,,,0,,,83,0
249600,note_on,,,,,384,0,4,,,,,3,,,47,100
249600,note_on,,,,,384,0,3,,,,,2,,,54,100
249600,note_on,,,,,384,0,2,,,,,1,,,66,100
249600,note_on,,,,,384,0,1,,,,,0,,,75,100
249984,note_off,,,,,384,0,3,,,,,2,,,54,0
249984,note_on,,,,,0,0,3,,,,,2,,,56,100
250176,note_off,,,,,192,0,3,,,,,2,,,56,0
250176,note_on,,,,,0,0,3,,,,,2,,,58,100
250368,note_on,,,,,0,0,3,,,,,2,,,59,100
250368,note_off,,,,,192,0,3,,,,,2,,,58,0
250368,note_off,,,,,768,0,2,,,,,1,,,66,0
250368,note_on,,,,,0,0,2,,,,,1,,,63,100
250368,note_on,,,,,0,0,1,,,,,0,,,71,100
250368,note_off,,,,,768,0,1,,,,,0,,,75,0
250752,note_off,,,,,1152,0,4,,,,,3,,,47,0
250752,note_off,,,,,384,0,2,,,,,1,,,63,0
250752,note_off,,,,,384,0,3,,,,,2,,,59,0
250752,note_off,,,,,384,0,1,,,,,0,,,71,0
251904,note_on,,,,,1152,0,3,,,,,2,,,72,100
251904,note_on,,,,,1152,0,1,,,,,0,,,72,100
251904,note_on,,,,,1152,0,4,,,,,3,,,60,100
251904,note_on,,,,,1152,0,2,,,,,1,,,72,100
252096,note_off,,,,,192,0,1,,,,,0,,,72,0
252096,note_off,,,,,192,0,4,,,,,3,,,60,0
252096,note_off,,,,,192,0,2,,,,,1,,,72,0
252096,note_off,,,,,192,0,3,,,,,2,,,72,0
252288,note_on,,,,,192,0,3,,,,,2,,,72,100
252288,note_on,,,,,192,0,2,,,,,1,,,72,100
252288,note_on,,,,,192,0,4,,,,,3,,,60,100
252288,note_on,,,,,192,0,1,,,,,0,,,72,100
252864,note_off,,,,,576,0,2,,,,,1,,,72,0
252864,note_on,,,,,0,0,2,,,,,1,,,71,100
252864,note_off,,,,,576,0,3,,,,,2,,,72,0
252864,note_on,,,,,0,0,3,,,,,2,,,71,100
252864,note_on,,,,,0,0,1,,,,,0,,,71,100
252864,note_off,,,,,576,0,4,,,,,3,,,60,0
252864,note_on,,,,,0,0,4,,,,,3,,,59,100
252864,note_off,,,,,576,0,1,,,,,0,,,72,0
252960,note_off,,,,,96,0,3,,,,,2,,,71,0
252960,note_off,,,,,96,0,2,,,,,1,,,71,0
252960,note_off,,,,,96,0,1,,,,,0,,,71,0
252960,note_off,,,,,96,0,4,,,,,3,,,59,0
253056,note_on,,,,,96,0,3,,,,,2,,,69,100
253056,note_on,,,,,96,0,2,,,,,1,,,69,100
253056,note_on,,,,,96,0,1,,,,,0,,,69,100
253056,note_on,,,,,96,0,4,,,,,3,,,57,100
253152,note_off,,,,,96,0,1,,,,,0,,,69,0
253152,note_off,,,,,96,0,4,,,,,3,,,57,0
253152,note_off,,,,,96,0,3,,,,,2,,,69,0
253152,note_off,,,,,96,0,2,,,,,1,,,69,0
253248,note_on,,,,,96,0,2,,,,,1,,,67,100
253248,note_on,,,,,96,0,4,,,,,3,,,55,100
253248,note_on,,,,,96,0,3,,,,,2,,,67,100
253248,note_on,,,,,96,0,1,,,,,0,,,67,100
253344,note_off,,,,,96,0,2,,,,,1,,,67,0
253344,note_off,,,,,96,0,4,,,,,3,,,55,0
253344,note_off,,,,,96,0,1,,,,,0,,,67,0
253344,note_off,,,,,96,0,3,,,,,2,,,67,0
253440,note_on,,,,,96,0,2,,,,,1,,,66,100
253440,note_on,,,,,96,0,4,,,,,3,,,54,100
253440,note_on,,,,,96,0,3,,,,,2,,,66,100
253440,note_on,,,,,96,0,1,,,,,0,,,66,100
253824,note_off,,,,,384,0,2,,,,,1,,,66,0
253824,note_on,,,,,0,0,2,,,,,1,,,64,100
253824,note_off,,,,,384,0,1,,,,,0,,,66,0
253824,note_on,,,,,0,0,1,,,,,0,,,64,100
253824,note_on,,,,,0,0,3,,,,,2,,,64,100
253824,note_on,,,,,0,0,4,,,,,3,,,52,100
253824,note_off,,,,,384,0,3,,,,,2,,,66,0
253824,note_off,,,,,384,0,4,,,,,3,,,54,0
254208,note_off,,,,,384,0,4,,,,,3,,,52,0
254208,note_on,,,,,0,0,4,,,,,3,,,50,100
254208,note_off,,,,,384,0,2,,,,,1,,,64,0
254208,note_off,,,,,384,0,1,,,,,0,,,64,0
254208,note_off,,,,,384,0,3,,,,,2,,,64,0
254208,note_on,,,,,0,0,3,,,,,2,,,62,100
254208,note_on,,,,,0,0,2,,,,,1,,,62,100
254208,note_on,,,,,0,0,1,,,,,0,,,62,100
254592,note_off,,,,,384,0,4,,,,,3,,,50,0
254592,note_on,,,,,0,0,4,,,,,3,,,48,100
254592,note_off,,,,,384,0,3,,,,,2,,,62,0
254592,note_on,,,,,0,0,3,,,,,2,,,60,100
254592,note_on,,,,,0,0,2,,,,,1,,,60,100
254592,note_off,,,,,384,0,2,,,,,1,,,62,0
254592,note_off,,,,,384,0,1,,,,,0,,,62,0
254592,note_on,,,,,0,0,1,,,,,0,,,60,100
254976,note_off,,,,,384,0,2,,,,,1,,,60,0
254976,note_on,,,,,0,0,2,,,,,1,,,59,100
254976,note_off,,,,,384,0,3,,,,,2,,,60,0
254976,note_off,,,,,384,0,4,,,,,3,,,48,0
254976,note_on,,,,,0,0,4,,,,,3,,,47,100
254976,note_off,,,,,384,0,1,,,,,0,,,60,0
254976,note_on,,,,,0,0,1,,,,,0,,,59,100
254976,note_on,,,,,0,0,3,,,,,2,,,59,100
255360,note_off,,,,,384,0,1,,,,,0,,,59,0
255360,note_off,,,,,384,0,2,,,,,1,,,59,0
255360,note_off,,,,,384,0,4,,,,,3,,,47,0
255360,note_off,,,,,384,0,3,,,,,2,,,59,0
255744,note_on,,,,,384,0,4,,,,,3,,,47,100
255744,note_on,,,,,384,0,1,,,,,0,,,74,100
255744,note_on,,,,,384,0,3,,,,,2,,,65,100
255744,note_on,,,,,384,0,2,,,,,1,,,67,100
256512,note_off,,,,,768,0,3,,,,,2,,,65,0
256512,note_on,,,,,0,0,3,,,,,2,,,64,100
256512,note_off,,,,,768,0,1,,,,,0,,,74,0
256512,note_on,,,,,0,0,4,,,,,3,,,48,100
256512,note_off,,,,,768,0,4,,,,,3,,,47,0
256512,note_on,,,,,0,0,1,,,,,0,,,76,100
256896,note_off,,,,,1152,0,2,,,,,1,,,67,0
256896,note_off,,,,,384,0,3,,,,,2,,,64,0
256896,note_on,,,,,0,0,3,,,,,2,,,60,100
256896,note_on,,,,,0,0,2,,,,,1,,,64,100
257280,note_off,,,,,768,0,4,,,,,3,,,48,0
257280,note_off,,,,,768,0,1,,,,,0,,,76,0
257280,note_on,,,,,0,0,4,,,,,3,,,50,100
257280,note_on,,,,,0,0,1,,,,,0,,,66,100
257664,note_on,,,,,0,0,3,,,,,2,,,57,100
257664,note_off,,,,,768,0,3,,,,,2,,,60,0
257664,note_off,,,,,768,0,2,,,,,1,,,64,0
257664,note_on,,,,,0,0,2,,,,,1,,,60,100
258048,note_off,,,,,384,0,3,,,,,2,,,57,0
258048,note_on,,,,,0,0,3,,,,,2,,,59,100
258048,note_off,,,,,768,0,4,,,,,3,,,50,0
258048,note_on,,,,,0,0,4,,,,,3,,,43,100
258048,note_off,,,,,768,0,1,,,,,0,,,66,0
258048,note_on,,,,,0,0,1,,,,,0,,,67,100
258048,note_on,,,,,0,0,2,,,,,1,,,59,100
258048,note_off,,,,,384,0,2,,,,,1,,,60,0
258240,note_off,,,,,192,0,1,,,,,0,,,67,0
258432,note_off,,,,,384,0,2,,,,,1,,,59,0
258432,note_off,,,,,384,0,3,,,,,2,,,59,0
258432,note_on,,,,,0,0,3,,,,,2,,,62,100
258432,note_on,,,,,192,0,1,,,,,0,,,79,100
258816,note_off,,,,,384,0,3,,,,,2,,,62,0
258816,note_on,,,,,0,0,3,,,,,2,,,67,100
259200,note_off,,,,,768,0,1,,,,,0,,,79,0
259200,note_off,,,,,384,0,3,,,,,2,,,67,0
259200,note_on,,,,,0,0,3,,,,,2,,,59,100
259200,note_on,,,,,0,0,1,,,,,0,,,78,100
259392,note_off,,,,,192,0,1,,,,,0,,,78,0
259392,note_on,,,,,0,0,1,,,,,0,,,79,100
259584,note_on,,,,,0,0,3,,,,,2,,,60,100
259584,note_off,,,,,192,0,1,,,,,0,,,79,0
259584,note_on,,,,,0,0,1,,,,,0,,,83,100
259584,note_off,,,,,384,0,3,,,,,2,,,59,0
259776,note_on,,,,,0,0,1,,,,,0,,,81,100
259776,note_off,,,,,192,0,1,,,,,0,,,83,0
259968,note_off,,,,,384,0,3,,,,,2,,,60,0
259968,note_off,,,,,192,0,1,,,,,0,,,81,0
259968,note_on,,,,,0,0,1,,,,,0,,,79,100
259968,note_on,,,,,0,0,3,,,,,2,,,62,100
260160,note_off,,,,,192,0,1,,,,,0,,,79,0
260160,note_on,,,,,0,0,1,,,,,0,,,78,100
260352,note_on,,,,,0,0,3,,,,,2,,,66,100
260352,note_off,,,,,192,0,1,,,,,0,,,78,0
260352,note_on,,,,,0,0,1,,,,,0,,,76,100
260352,note_off,,,,,384,0,3,,,,,2,,,62,0
260544,note_off,,,,,192,0,1,,,,,0,,,76,0
260544,note_on,,,,,0,0,1,,,,,0,,,74,100
260736,note_off,,,,,192,0,1,,,,,0,,,74,0
260736,note_on,,,,,0,0,1,,,,,0,,,73,100
260736,note_off,,,,,384,0,3,,,,,2,,,66,0
260736,note_on,,,,,0,0,3,,,,,2,,,60,100
260736,note_on,,,,,2304,0,2,,,,,1,,,64,100
260928,note_on,,,,,0,0,2,,,,,1,,,62,100
260928,note_off,,,,,192,0,1,,,,,0,,,73,0
260928,note_off,,,,,192,0,2,,,,,1,,,64,0
260928,note_on,,,,,0,0,1,,,,,0,,,74,100
261120,note_off,,,,,192,0,1,,,,,0,,,74,0
261120,note_on,,,,,0,0,1,,,,,0,,,81,100
261120,note_on,,,,,0,0,2,,,,,1,,,76,100
261120,note_off,,,,,192,0,2,,,,,1,,,62,0
261120,note_off,,,,,384,0,3,,,,,2,,,60,0
261120,note_on,,,,,0,0,3,,,,,2,,,59,100
261312,note_off,,,,,192,0,2,,,,,1,,,76,0
261312,note_on,,,,,0,0,2,,,,,1,,,74,100
261504,note_off,,,,,192,0,2,,,,,1,,,74,0
261504,note_on,,,,,0,0,2,,,,,1,,,79,100
261504,note_off,,,,,384,0,1,,,,,0,,,81,0
261504,note_off,,,,,384,0,3,,,,,2,,,59,0
261504,note_on,,,,,0,0,3,,,,,2,,,62,100
261504,note_on,,,,,0,0,1,,,,,0,,,79,100
261696,note_off,,,,,192,0,2,,,,,1,,,79,0
261696,note_on,,,,,0,0,2,,,,,1,,,78,100
261888,note_off,,,,,192,0,2,,,,,1,,,78,0
261888,note_on,,,,,0,0,2,,,,,1,,,76,100
261888,note_off,,,,,384,0,3,,,,,2,,,62,0
261888,note_on,,,,,0,0,3,,,,,2,,,67,100
262080,note_off,,,,,192,0,2,,,,,1,,,76,0
262080,note_on,,,,,0,0,2,,,,,1,,,74,100
262272,note_off,,,,,192,0,2,,,,,1,,,74,0
262272,note_on,,,,,0,0,3,,,,,2,,,59,100
262272,note_on,,,,,0,0,2,,,,,1,,,72,100
262272,note_off,,,,,384,0,3,,,,,2,,,67,0
262272,note_off,,,,,768,0,1,,,,,0,,,79,0
262272,note_on,,,,,0,0,1,,,,,0,,,78,100
262464,note_on,,,,,0,0,1,,,,,0,,,79,100
262464,note_off,,,,,192,0,1,,,,,0,,,78,0
262464,note_off,,,,,192,0,2,,,,,1,,,72,0
262464,note_on,,,,,0,0,2,,,,,1,,,71,100
262656,note_off,,,,,192,0,1,,,,,0,,,79,0
262656,note_on,,,,,0,0,3,,,,,2,,,60,100
262656,note_on,,,,,0,0,1,,,,,0,,,83,100
262656,note_off,,,,,384,0,3,,,,,2,,,59,0
262656,note_off,,,,,192,0,2,,,,,1,,,71,0
262656,note_on,,,,,0,0,2,,,,,1,,,74,100
262848,note_on,,,,,0,0,2,,,,,1,,,73,100
262848,note_off,,,,,192,0,2,,,,,1,,,74,0
262848,note_on,,,,,0,0,1,,,,,0,,,81,100
262848,note_off,,,,,192,0,1,,,,,0,,,83,0
263040,note_off,,,,,192,0,2,,,,,1,,,73,0
263040,note_on,,,,,0,0,2,,,,,1,,,72,100
263040,note_on,,,,,0,0,1,,,,,0,,,79,100
263040,note_off,,,,,192,0,1,,,,,0,,,81,0
263040,note_on,,,,,0,0,3,,,,,2,,,62,100
263040,note_off,,,,,384,0,3,,,,,2,,,60,0
263232,note_off,,,,,192,0,1,,,,,0,,,79,0
263232,note_on,,,,,0,0,1,,,,,0,,,78,100
263424,note_off,,,,,384,0,2,,,,,1,,,72,0
263424,note_off,,,,,192,0,1,,,,,0,,,78,0
263424,note_on,,,,,0,0,1,,,,,0,,,76,100
263424,note_off,,,,,384,0,3,,,,,2,,,62,0
263424,note_on,,,,,0,0,3,,,,,2,,,66,100
263616,note_off,,,,,192,0,1,,,,,0,,,76,0
263616,note_on,,,,,0,0,1,,,,,0,,,74,100
263808,note_off,,,,,192,0,1,,,,,0,,,74,0
263808,note_on,,,,,0,0,1,,,,,0,,,73,100
263808,note_on,,,,,384,0,2,,,,,1,,,64,100
263808,note_on,,,,,0,0,3,,,,,2,,,60,100
263808,note_off,,,,,384,0,3,,,,,2,,,66,0
264000,note_off,,,,,192,0,1,,,,,0,,,73,0
264000,note_on,,,,,0,0,1,,,,,0,,,74,100
264000,note_on,,,,,0,0,2,,,,,1,,,62,100
264000,note_off,,,,,192,0,2,,,,,1,,,64,0
264192,note_off,,,,,384,0,3,,,,,2,,,60,0
264192,note_off,,,,,192,0,1,,,,,0,,,74,0
264192,note_on,,,,,0,0,1,,,,,0,,,81,100
264192,note_on,,,,,0,0,2,,,,,1,,,76,100
264192,note_on,,,,,0,0,3,,,,,2,,,59,100
264192,note_off,,,,,192,0,2,,,,,1,,,62,0
264384,note_off,,,,,192,0,2,,,,,1,,,76,0
264384,note_on,,,,,0,0,2,,,,,1,,,74,100
264576,note_on,,,,,0,0,3,,,,,2,,,62,100
264576,note_off,,,,,384,0,3,,,,,2,,,59,0
264576,note_on,,,,,0,0,2,,,,,1,,,79,100
264576,note_off,,,,,192,0,2,,,,,1,,,74,0
264576,note_off,,,,,384,0,1,,,,,0,,,81,0
264576,note_on,,,,,0,0,1,,,,,0,,,79,100
264768,note_on,,,,,0,0,2,,,,,1,,,78,100
264768,note_off,,,,,192,0,2,,,,,1,,,79,0
264960,note_off,,,,,192,0,2,,,,,1,,,78,0
264960,note_on,,,,,0,0,2,,,,,1,,,76,100
264960,note_on,,,,,0,0,3,,,,,2,,,67,100
264960,note_off,,,,,384,0,3,,,,,2,,,62,0
265152,note_on,,,,,0,0,2,,,,,1,,,74,100
265152,note_off,,,,,192,0,2,,,,,1,,,76,0
265344,note_on,,,,,0,0,1,,,,,0,,,78,100
265344,note_off,,,,,768,0,1,,,,,0,,,79,0
265344,note_off,,,,,384,0,3,,,,,2,,,67,0
265344,note_on,,,,,0,0,2,,,,,1,,,72,100
265344,note_off,,,,,192,0,2,,,,,1,,,74,0
265536,note_on,,,,,0,0,1,,,,,0,,,79,100
265536,note_on,,,,,0,0,2,,,,,1,,,71,100
265536,note_off,,,,,192,0,2,,,,,1,,,72,0
265536,note_off,,,,,192,0,1,,,,,0,,,78,0
265728,note_on,,,,,0,0,2,,,,,1,,,67,100
265728,note_off,,,,,192,0,2,,,,,1,,,71,0
265728,note_off,,,,,7680,0,4,,,,,3,,,43,0
265728,note_off,,,,,192,0,1,,,,,0,,,79,0
265728,note_on,,,,,0,0,1,,,,,0,,,83,100
265920,note_off,,,,,192,0,2,,,,,1,,,67,0
265920,note_on,,,,,0,0,2,,,,,1,,,66,100
265920,note_on,,,,,0,0,1,,,,,0,,,81,100
265920,note_off,,,,,192,0,1,,,,,0,,,83,0
266112,note_off,,,,,192,0,1,,,,,0,,,81,0
266112,note_on,,,,,0,0,1,,,,,0,,,79,100
266112,note_on,,,,,384,0,4,,,,,3,,,59,100
266112,note_on,,,,,768,0,3,,,,,2,,,64,100
266112,note_off,,,,,192,0,2,,,,,1,,,66,0
266112,note_on,,,,,0,0,2,,,,,1,,,67,100
266304,note_on,,,,,0,0,2,,,,,1,,,69,100
266304,note_off,,,,,192,0,2,,,,,1,,,67,0
266304,note_off,,,,,192,0,1,,,,,0,,,79,0
266304,note_on,,,,,0,0,1,,,,,0,,,78,100
266304,note_off,,,,,192,0,3,,,,,2,,,64,0
266304,note_on,,,,,0,0,3,,,,,2,,,66,100
266496,note_off,,,,,192,0,2,,,,,1,,,69,0
266496,note_on,,,,,0,0,2,,,,,1,,,72,100
266496,note_off,,,,,192,0,3,,,,,2,,,66,0
266496,note_on,,,,,0,0,3,,,,,2,,,67,100
266496,note_on,,,,,0,0,1,,,,,0,,,76,100
266496,note_off,,,,,192,0,1,,,,,0,,,78,0
266688,note_on,,,,,0,0,1,,,,,0,,,75,100
266688,note_off,,,,,192,0,3,,,,,2,,,67,0
266688,note_on,,,,,0,0,3,,,,,2,,,69,100
266688,note_off,,,,,192,0,1,,,,,0,,,76,0
266688,note_off,,,,,192,0,2,,,,,1,,,72,0
266688,note_on,,,,,0,0,2,,,,,1,,,71,100
266880,note_off,,,,,192,0,1,,,,,0,,,75,0
266880,note_on,,,,,0,0,3,,,,,2,,,66,100
266880,note_off,,,,,192,0,2,,,,,1,,,71,0
266880,note_on,,,,,0,0,1,,,,,0,,,78,100
266880,note_off,,,,,192,0,3,,,,,2,,,69,0
266880,note_off,,,,,768,0,4,,,,,3,,,59,0
266880,note_on,,,,,0,0,4,,,,,3,,,59,100
266880,note_on,,,,,0,0,2,,,,,1,,,69,100
267072,note_off,,,,,192,0,2,,,,,1,,,69,0
267072,note_on,,,,,0,0,2,,,,,1,,,67,100
267072,note_off,,,,,192,0,1,,,,,0,,,78,0
267072,note_on,,,,,0,0,3,,,,,2,,,64,100
267072,note_off,,,,,192,0,3,,,,,2,,,66,0
267072,note_on,,,,,0,0,1,,,,,0,,,81,100
267264,note_off,,,,,192,0,1,,,,,0,,,81,0
267264,note_on,,,,,0,0,3,,,,,2,,,63,100
267264,note_off,,,,,192,0,3,,,,,2,,,64,0
267264,note_off,,,,,384,0,4,,,,,3,,,59,0
267264,note_on,,,,,0,0,4,,,,,3,,,52,100
267264,note_on,,,,,0,0,1,,,,,0,,,84,100
267264,note_on,,,,,0,0,2,,,,,1,,,66,100
267264,note_off,,,,,192,0,2,,,,,1,,,67,0
267456,note_on,,,,,0,0,1,,,,,0,,,83,100
267456,note_off,,,,,192,0,1,,,,,0,,,84,0
267456,note_on,,,,,0,0,3,,,,,2,,,64,100
267456,note_off,,,,,192,0,4,,,,,3,,,52,0
267456,note_on,,,,,0,0,2,,,,,1,,,67,100
267456,note_off,,,,,192,0,2,,,,,1,,,66,0
267456,note_off,,,,,192,0,3,,,,,2,,,63,0
267648,note_off,,,,,192,0,2,,,,,1,,,67,0
267648,note_off,,,,,192,0,1,,,,,0,,,83,0
267648,note_on,,,,,0,0,3,,,,,2,,,66,100
267648,note_on,,,,,0,0,1,,,,,0,,,81,100
267648,note_on,,,,,0,0,2,,,,,1,,,69,100
267648,note_off,,,,,192,0,3,,,,,2,,,64,0
267648,note_on,,,,,192,0,4,,,,,3,,,61,100
267840,note_off,,,,,192,0,1,,,,,0,,,81,0
267840,note_off,,,,,192,0,2,,,,,1,,,69,0
267840,note_on,,,,,0,0,2,,,,,1,,,71,100
267840,note_off,,,,,192,0,3,,,,,2,,,66,0
267840,note_on,,,,,0,0,3,,,,,2,,,68,100
267840,note_on,,,,,0,0,1,,,,,0,,,80,100
268032,note_on,,,,,0,0,2,,,,,1,,,73,100
268032,note_off,,,,,192,0,2,,,,,1,,,71,0
268032,note_on,,,,,0,0,1,,,,,0,,,78,100
268032,note_off,,,,,192,0,1,,,,,0,,,80,0
268032,note_off,,,,,192,0,3,,,,,2,,,68,0
268032,note_on,,,,,0,0,3,,,,,2,,,69,100
268224,note_off,,,,,192,0,2,,,,,1,,,73,0
268224,note_on,,,,,0,0,3,,,,,2,,,71,100
268224,note_off,,,,,192,0,1,,,,,0,,,78,0
268224,note_on,,,,,0,0,1,,,,,0,,,77,100
268224,note_off,,,,,192,0,3,,,,,2,,,69,0
268224,note_on,,,,,0,0,2,,,,,1,,,74,100
268416,note_off,,,,,192,0,1,,,,,0,,,77,0
268416,note_off,,,,,192,0,3,,,,,2,,,71,0
268416,note_on,,,,,0,0,2,,,,,1,,,71,100
268416,note_on,,,,,0,0,1,,,,,0,,,80,100
268416,note_on,,,,,0,0,3,,,,,2,,,68,100
268416,note_off,,,,,768,0,4,,,,,3,,,61,0
268416,note_on,,,,,0,0,4,,,,,3,,,61,100
268416,note_off,,,,,192,0,2,,,,,1,,,74,0
268608,note_on,,,,,0,0,3,,,,,2,,,66,100
268608,note_off,,,,,192,0,3,,,,,2,,,68,0
268608,note_on,,,,,0,0,1,,,,,0,,,83,100
268608,note_off,,,,,192,0,1,,,,,0,,,80,0
268608,note_on,,,,,0,0,2,,,,,1,,,69,100
268608,note_off,,,,,192,0,2,,,,,1,,,71,0
268800,note_on,,,,,0,0,1,,,,,0,,,86,100
268800,note_on,,,,,0,0,4,,,,,3,,,52,100
268800,note_off,,,,,384,0,4,,,,,3,,,61,0
268800,note_on,,,,,0,0,2,,,,,1,,,68,100
268800,note_off,,,,,192,0,3,,,,,2,,,66,0
268800,note_off,,,,,192,0,2,,,,,1,,,69,0
268800,note_off,,,,,192,0,1,,,,,0,,,83,0
268800,note_on,,,,,0,0,3,,,,,2,,,65,100
268992,note_on,,,,,0,0,3,,,,,2,,,66,100
268992,note_off,,,,,192,0,4,,,,,3,,,52,0
268992,note_on,,,,,0,0,1,,,,,0,,,85,100
268992,note_off,,,,,192,0,2,,,,,1,,,68,0
268992,note_off,,,,,192,0,1,,,,,0,,,86,0
268992,note_on,,,,,0,0,2,,,,,1,,,69,100
268992,note_off,,,,,192,0,3,,,,,2,,,65,0
269184,note_off,,,,,192,0,1,,,,,0,,,85,0
269184,note_off,,,,,192,0,2,,,,,1,,,69,0
269184,note_on,,,,,0,0,2,,,,,1,,,71,100
269184,note_on,,,,,0,0,3,,,,,2,,,68,100
269184,note_off,,,,,192,0,3,,,,,2,,,66,0
269184,note_on,,,,,192,0,4,,,,,3,,,64,100
269184,note_on,,,,,0,0,1,,,,,0,,,83,100
269376,note_off,,,,,192,0,1,,,,,0,,,83,0
269376,note_on,,,,,0,0,3,,,,,2,,,69,100
269376,note_on,,,,,0,0,1,,,,,0,,,81,100
269376,note_off,,,,,192,0,2,,,,,1,,,71,0
269376,note_on,,,,,0,0,2,,,,,1,,,73,100
269376,note_off,,,,,192,0,3,,,,,2,,,68,0
269568,note_off,,,,,192,0,3,,,,,2,,,69,0
269568,note_on,,,,,0,0,3,,,,,2,,,73,100
269568,note_off,,,,,192,0,2,,,,,1,,,73,0
269568,note_on,,,,,0,0,2,,,,,1,,,76,100
269568,note_off,,,,,192,0,1,,,,,0,,,81,0
269568,note_on,,,,,0,0,1,,,,,0,,,81,100
269760,note_on,,,,,0,0,2,,,,,1,,,74,100
269760,note_on,,,,,0,0,3,,,,,2,,,71,100
269760,note_off,,,,,192,0,1,,,,,0,,,81,0
269760,note_on,,,,,0,0,1,,,,,0,,,80,100
269760,note_off,,,,,192,0,2,,,,,1,,,76,0
269760,note_off,,,,,192,0,3,,,,,2,,,73,0
269952,note_on,,,,,0,0,3,,,,,2,,,69,100
269952,note_off,,,,,192,0,3,,,,,2,,,71,0
269952,note_on,,,,,0,0,4,,,,,3,,,64,100
269952,note_off,,,,,192,0,1,,,,,0,,,80,0
269952,note_on,,,,,0,0,1,,,,,0,,,81,100
269952,note_on,,,,,0,0,2,,,,,1,,,73,100
269952,note_off,,,,,192,0,2,,,,,1,,,74,0
269952,note_off,,,,,768,0,4,,,,,3,,,64,0
270144,note_off,,,,,192,0,3,,,,,2,,,69,0
270144,note_on,,,,,0,0,3,,,,,2,,,68,100
270144,note_off,,,,,192,0,2,,,,,1,,,73,0
270144,note_off,,,,,192,0,1,,,,,0,,,81,0
270144,note_on,,,,,0,0,1,,,,,0,,,83,100
270144,note_on,,,,,0,0,2,,,,,1,,,71,100
270336,note_off,,,,,192,0,3,,,,,2,,,68,0
270336,note_on,,,,,0,0,1,,,,,0,,,86,100
270336,note_on,,,,,0,0,3,,,,,2,,,65,100
270336,note_on,,,,,0,0,2,,,,,1,,,68,100
270336,note_off,,,,,192,0,2,,,,,1,,,71,0
270336,note_off,,,,,192,0,1,,,,,0,,,83,0
270336,note_on,,,,,0,0,4,,,,,3,,,52,100
270336,note_off,,,,,384,0,4,,,,,3,,,64,0
270528,note_off,,,,,192,0,3,,,,,2,,,65,0
270528,note_on,,,,,0,0,3,,,,,2,,,66,100
270528,note_off,,,,,192,0,1,,,,,0,,,86,0
270528,note_on,,,,,0,0,1,,,,,0,,,85,100
270528,note_on,,,,,0,0,2,,,,,1,,,69,100
270528,note_off,,,,,192,0,2,,,,,1,,,68,0
270528,note_off,,,,,192,0,4,,,,,3,,,52,0
270720,note_off,,,,,192,0,2,,,,,1,,,69,0
270720,note_off,,,,,192,0,3,,,,,2,,,66,0
270720,note_on,,,,,0,0,1,,,,,0,,,83,100
270720,note_off,,,,,192,0,1,,,,,0,,,85,0
270720,note_on,,,,,0,0,3,,,,,2,,,68,100
270720,note_on,,,,,192,0,4,,,,,3,,,64,100
270720,note_on,,,,,0,0,2,,,,,1,,,71,100
270912,note_off,,,,,192,0,2,,,,,1,,,71,0
270912,note_on,,,,,0,0,2,,,,,1,,,73,100
270912,note_on,,,,,0,0,1,,,,,0,,,81,100
270912,note_off,,,,,192,0,1,,,,,0,,,83,0
270912,note_off,,,,,192,0,3,,,,,2,,,68,0
270912,note_on,,,,,0,0,3,,,,,2,,,69,100
271104,note_off,,,,,192,0,2,,,,,1,,,73,0
271104,note_off,,,,,192,0,3,,,,,2,,,69,0
271104,note_on,,,,,0,0,3,,,,,2,,,73,100
271104,note_off,,,,,192,0,1,,,,,0,,,81,0
271104,note_on,,,,,0,0,1,,,,,0,,,81,100
271104,note_on,,,,,0,0,2,,,,,1,,,76,100
271296,note_off,,,,,192,0,3,,,,,2,,,73,0
271296,note_on,,,,,0,0,3,,,,,2,,,71,100
271296,note_off,,,,,192,0,2,,,,,1,,,76,0
271296,note_on,,,,,0,0,2,,,,,1,,,74,100
271296,note_off,,,,,192,0,1,,,,,0,,,81,0
271296,note_on,,,,,0,0,1,,,,,0,,,80,100
271488,note_on,,,,,0,0,1,,,,,0,,,73,100
271488,note_on,,,,,0,0,4,,,,,3,,,64,100
271488,note_off,,,,,768,0,4,,,,,3,,,64,0
271488,note_off,,,,,192,0,2,,,,,1,,,74,0
271488,note_on,,,,,0,0,2,,,,,1,,,73,100
271488,note_off,,,,,192,0,3,,,,,2,,,71,0
271488,note_off,,,,,192,0,1,,,,,0,,,80,0
271488,note_on,,,,,0,0,3,,,,,2,,,69,100
271680,note_on,,,,,0,0,3,,,,,2,,,68,100
271680,note_off,,,,,192,0,3,,,,,2,,,69,0
271680,note_on,,,,,0,0,2,,,,,1,,,71,100
271680,note_off,,,,,192,0,2,,,,,1,,,73,0
271680,note_on,,,,,0,0,1,,,,,0,,,74,100
271680,note_off,,,,,192,0,1,,,,,0,,,73,0
271872,note_on,,,,,0,0,2,,,,,1,,,69,100
271872,note_off,,,,,192,0,2,,,,,1,,,71,0
271872,note_on,,,,,0,0,1,,,,,0,,,78,100
271872,note_off,,,,,192,0,1,,,,,0,,,74,0
271872,note_off,,,,,384,0,4,,,,,3,,,64,0
271872,note_on,,,,,0,0,4,,,,,3,,,52,100
271872,note_on,,,,,0,0,3,,,,,2,,,69,100
271872,note_off,,,,,192,0,3,,,,,2,,,68,0
272064,note_on,,,,,0,0,1,,,,,0,,,76,100
272064,note_off,,,,,192,0,1,,,,,0,,,78,0
272064,note_off,,,,,192,0,3,,,,,2,,,69,0
272064,note_on,,,,,0,0,3,,,,,2,,,71,100
272064,note_off,,,,,192,0,4,,,,,3,,,52,0
272064,note_on,,,,,0,0,2,,,,,1,,,68,100
272064,note_off,,,,,192,0,2,,,,,1,,,69,0
272256,note_off,,,,,192,0,1,,,,,0,,,76,0
272256,note_on,,,,,192,0,4,,,,,3,,,52,100
272256,note_off,,,,,192,0,3,,,,,2,,,71,0
272256,note_on,,,,,0,0,3,,,,,2,,,59,100
272256,note_on,,,,,0,0,2,,,,,1,,,62,100
272256,note_off,,,,,192,0,2,,,,,1,,,68,0
272256,note_on,,,,,0,0,1,,,,,0,,,74,100
272448,note_off,,,,,192,0,1,,,,,0,,,74,0
272448,note_off,,,,,192,0,3,,,,,2,,,59,0
272448,note_on,,,,,0,0,1,,,,,0,,,73,100
272448,note_on,,,,,0,0,2,,,,,1,,,64,100
272448,note_on,,,,,0,0,3,,,,,2,,,61,100
272448,note_off,,,,,192,0,2,,,,,1,,,62,0
272640,note_off,,,,,192,0,2,,,,,1,,,64,0
272640,note_on,,,,,0,0,2,,,,,1,,,67,100
272640,note_on,,,,,0,0,3,,,,,2,,,62,100
272640,note_off,,,,,192,0,3,,,,,2,,,61,0
272640,note_off,,,,,192,0,1,,,,,0,,,73,0
272640,note_on,,,,,0,0,1,,,,,0,,,73,100
272832,note_on,,,,,0,0,1,,,,,0,,,71,100
272832,note_off,,,,,192,0,2,,,,,1,,,67,0
272832,note_on,,,,,0,0,2,,,,,1,,,66,100
272832,note_off,,,,,192,0,3,,,,,2,,,62,0
272832,note_off,,,,,192,0,1,,,,,0,,,73,0
272832,note_on,,,,,0,0,3,,,,,2,,,60,100
273024,note_off,,,,,192,0,3,,,,,2,,,60,0
273024,note_on,,,,,0,0,3,,,,,2,,,59,100
273024,note_on,,,,,0,0,4,,,,,3,,,52,100
273024,note_off,,,,,192,0,1,,,,,0,,,71,0
273024,note_off,,,,,768,0,4,,,,,3,,,52,0
273024,note_on,,,,,0,0,2,,,,,1,,,64,100
273024,note_off,,,,,192,0,2,,,,,1,,,66,0
273024,note_on,,,,,0,0,1,,,,,0,,,73,100
273216,note_off,,,,,192,0,1,,,,,0,,,73,0
273216,note_off,,,,,192,0,2,,,,,1,,,64,0
273216,note_on,,,,,0,0,3,,,,,2,,,57,100
273216,note_on,,,,,0,0,1,,,,,0,,,74,100
273216,note_on,,,,,0,0,2,,,,,1,,,62,100
273216,note_off,,,,,192,0,3,,,,,2,,,59,0
273408,note_on,,,,,0,0,4,,,,,3,,,40,100
273408,note_on,,,,,0,0,2,,,,,1,,,61,100
273408,note_off,,,,,192,0,2,,,,,1,,,62,0
273408,note_off,,,,,384,0,4,,,,,3,,,52,0
273408,note_on,,,,,0,0,1,,,,,0,,,78,100
273408,note_on,,,,,0,0,3,,,,,2,,,56,100
273408,note_off,,,,,192,0,1,,,,,0,,,74,0
273408,note_off,,,,,192,0,3,,,,,2,,,57,0
273600,note_off,,,,,192,0,4,,,,,3,,,40,0
273600,note_off,,,,,192,0,3,,,,,2,,,56,0
273600,note_on,,,,,0,0,3,,,,,2,,,54,100
273600,note_on,,,,,0,0,2,,,,,1,,,59,100
273600,note_off,,,,,192,0,2,,,,,1,,,61,0
273600,note_on,,,,,0,0,1,,,,,0,,,76,100
273600,note_off,,,,,192,0,1,,,,,0,,,78,0
273792,note_off,,,,,192,0,1,,,,,0,,,76,0
273792,note_on,,,,,192,0,4,,,,,3,,,52,100
273792,note_on,,,,,0,0,3,,,,,2,,,59,100
273792,note_off,,,,,192,0,3,,,,,2,,,54,0
273792,note_on,,,,,0,0,2,,,,,1,,,62,100
273792,note_off,,,,,192,0,2,,,,,1,,,59,0
273792,note_on,,,,,0,0,1,,,,,0,,,74,100
273984,note_off,,,,,192,0,3,,,,,2,,,59,0
273984,note_on,,,,,0,0,2,,,,,1,,,64,100
273984,note_on,,,,,0,0,3,,,,,2,,,61,100
273984,note_on,,,,,0,0,1,,,,,0,,,73,100
273984,note_off,,,,,192,0,1,,,,,0,,,74,0
273984,note_off,,,,,192,0,2,,,,,1,,,62,0
274176,note_off,,,,,192,0,1,,,,,0,,,73,0
274176,note_on,,,,,0,0,1,,,,,0,,,73,100
274176,note_on,,,,,0,0,2,,,,,1,,,67,100
274176,note_off,,,,,192,0,2,,,,,1,,,64,0
274176,note_off,,,,,192,0,3,,,,,2,,,61,0
274176,note_on,,,,,0,0,3,,,,,2,,,64,100
274368,note_off,,,,,192,0,3,,,,,2,,,64,0
274368,note_off,,,,,192,0,2,,,,,1,,,67,0
274368,note_on,,,,,0,0,1,,,,,0,,,71,100
274368,note_off,,,,,192,0,1,,,,,0,,,73,0
274368,note_on,,,,,0,0,3,,,,,2,,,62,100
274368,note_on,,,,,0,0,2,,,,,1,,,66,100
274560,note_off,,,,,192,0,1,,,,,0,,,71,0
274560,note_on,,,,,0,0,3,,,,,2,,,61,100
274560,note_off,,,,,192,0,3,,,,,2,,,62,0
274560,note_on,,,,,0,0,4,,,,,3,,,52,100
274560,note_off,,,,,768,0,4,,,,,3,,,52,0
274560,note_on,,,,,0,0,2,,,,,1,,,64,100
274560,note_off,,,,,192,0,2,,,,,1,,,66,0
274560,note_on,,,,,0,0,1,,,,,0,,,73,100
274752,note_on,,,,,0,0,3,,,,,2,,,59,100
274752,note_off,,,,,192,0,3,,,,,2,,,61,0
274752,note_off,,,,,192,0,2,,,,,1,,,64,0
274752,note_on,,,,,0,0,2,,,,,1,,,62,100
274752,note_off,,,,,192,0,1,,,,,0,,,73,0
274752,note_on,,,,,0,0,1,,,,,0,,,74,100
274944,note_on,,,,,0,0,4,,,,,3,,,40,100
274944,note_off,,,,,192,0,3,,,,,2,,,59,0
274944,note_off,,,,,192,0,1,,,,,0,,,74,0
274944,note_on,,,,,0,0,1,,,,,0,,,78,100
274944,note_off,,,,,192,0,2,,,,,1,,,62,0
274944,note_on,,,,,0,0,2,,,,,1,,,61,100
274944,note_off,,,,,384,0,4,,,,,3,,,52,0
274944,note_on,,,,,0,0,3,,,,,2,,,57,100
275136,note_off,,,,,192,0,2,,,,,1,,,61,0
275136,note_on,,,,,0,0,2,,,,,1,,,59,100
275136,note_off,,,,,192,0,3,,,,,2,,,57,0
275136,note_on,,,,,0,0,1,,,,,0,,,76,100
275136,note_off,,,,,192,0,1,,,,,0,,,78,0
275136,note_on,,,,,0,0,3,,,,,2,,,56,100
275328,note_on,,,,,0,0,2,,,,,1,,,59,100
275328,note_off,,,,,192,0,2,,,,,1,,,59,0
275328,note_on,,,,,0,0,1,,,,,0,,,74,100
275328,note_off,,,,,192,0,1,,,,,0,,,76,0
275328,note_off,,,,,192,0,3,,,,,2,,,56,0
275328,note_on,,,,,0,0,3,,,,,2,,,56,100
275520,note_on,,,,,0,0,1,,,,,0,,,73,100
275520,note_off,,,,,192,0,1,,,,,0,,,74,0
275520,note_off,,,,,192,0,3,,,,,2,,,56,0
275520,note_on,,,,,0,0,3,,,,,2,,,57,100
275520,note_on,,,,,0,0,2,,,,,1,,,61,100
275520,note_off,,,,,192,0,2,,,,,1,,,59,0
275712,note_off,,,,,192,0,3,,,,,2,,,57,0
275712,note_on,,,,,0,0,3,,,,,2,,,58,100
275712,note_off,,,,,192,0,1,,,,,0,,,73,0
275712,note_on,,,,,0,0,2,,,,,1,,,66,100
275712,note_off,,,,,192,0,2,,,,,1,,,61,0
275712,note_on,,,,,0,0,1,,,,,0,,,76,100
275904,note_off,,,,,192,0,3,,,,,2,,,58,0
275904,note_on,,,,,0,0,3,,,,,2,,,59,100
275904,note_off,,,,,192,0,1,,,,,0,,,76,0
275904,note_off,,,,,192,0,2,,,,,1,,,66,0
275904,note_on,,,,,0,0,2,,,,,1,,,59,100
275904,note_on,,,,,0,0,1,,,,,0,,,74,100
276096,note_off,,,,,192,0,3,,,,,2,,,59,0
276096,note_on,,,,,0,0,3,,,,,2,,,54,100
276096,note_off,,,,,192,0,2,,,,,1,,,59,0
276096,note_on,,,,,0,0,2,,,,,1,,,57,100
276096,note_off,,,,,192,0,1,,,,,0,,,74,0
276096,note_on,,,,,0,0,1,,,,,0,,,73,100
276288,note_off,,,,,192,0,1,,,,,0,,,73,0
276288,note_off,,,,,192,0,2,,,,,1,,,57,0
276288,note_on,,,,,0,0,2,,,,,1,,,59,100
276288,note_on,,,,,0,0,3,,,,,2,,,55,100
276288,note_on,,,,,0,0,1,,,,,0,,,71,100
276288,note_off,,,,,192,0,3,,,,,2,,,54,0
276480,note_off,,,,,192,0,1,,,,,0,,,71,0
276480,note_on,,,,,0,0,1,,,,,0,,,74,100
276480,note_off,,,,,1536,0,4,,,,,3,,,40,0
276480,note_off,,,,,192,0,3,,,,,2,,,55,0
276480,note_on,,,,,0,0,3,,,,,2,,,56,100
276480,note_on,,,,,0,0,4,,,,,3,,,40,100
276480,note_off,,,,,192,0,2,,,,,1,,,59,0
276480,note_on,,,,,0,0,2,,,,,1,,,64,100
276672,note_off,,,,,192,0,3,,,,,2,,,56,0
276672,note_on,,,,,0,0,3,,,,,2,,,57,100
276672,note_on,,,,,0,0,1,,,,,0,,,73,100
276672,note_off,,,,,192,0,1,,,,,0,,,74,0
276672,note_off,,,,,192,0,2,,,,,1,,,64,0
276672,note_on,,,,,0,0,2,,,,,1,,,57,100
276864,note_off,,,,,192,0,2,,,,,1,,,57,0
276864,note_on,,,,,0,0,1,,,,,0,,,71,100
276864,note_off,,,,,192,0,3,,,,,2,,,57,0
276864,note_on,,,,,0,0,3,,,,,2,,,52,100
276864,note_off,,,,,192,0,1,,,,,0,,,73,0
276864,note_on,,,,,0,0,2,,,,,1,,,56,100
277056,note_off,,,,,192,0,1,,,,,0,,,71,0
277056,note_on,,,,,0,0,1,,,,,0,,,69,100
277056,note_on,,,,,0,0,3,,,,,2,,,53,100
277056,note_off,,,,,192,0,3,,,,,2,,,52,0
277056,note_off,,,,,192,0,2,,,,,1,,,56,0
277056,note_on,,,,,0,0,2,,,,,1,,,57,100
277248,note_on,,,,,0,0,1,,,,,0,,,73,100
277248,note_off,,,,,192,0,1,,,,,0,,,69,0
277248,note_on,,,,,0,0,3,,,,,2,,,54,100
277248,note_off,,,,,192,0,3,,,,,2,,,53,0
277248,note_on,,,,,0,0,2,,,,,1,,,62,100
277248,note_off,,,,,192,0,2,,,,,1,,,57,0
277440,note_on,,,,,0,0,3,,,,,2,,,56,100
277440,note_off,,,,,192,0,3,,,,,2,,,54,0
277440,note_off,,,,,192,0,1,,,,,0,,,73,0
277440,note_on,,,,,0,0,1,,,,,0,,,71,100
277440,note_off,,,,,192,0,2,,,,,1,,,62,0
277440,note_on,,,,,0,0,2,,,,,1,,,56,100
277632,note_off,,,,,192,0,1,,,,,0,,,71,0
277632,note_off,,,,,192,0,2,,,,,1,,,56,0
277632,note_on,,,,,0,0,2,,,,,1,,,64,100
277632,note_off,,,,,192,0,3,,,,,2,,,56,0
277632,note_on,,,,,0,0,3,,,,,2,,,61,100
277632,note_on,,,,,0,0,1,,,,,0,,,69,100
277824,note_on,,,,,0,0,3,,,,,2,,,59,100
277824,note_off,,,,,192,0,3,,,,,2,,,61,0
277824,note_on,,,,,0,0,2,,,,,1,,,62,100
277824,note_off,,,,,192,0,1,,,,,0,,,69,0
277824,note_off,,,,,192,0,2,,,,,1,,,64,0
277824,note_on,,,,,0,0,1,,,,,0,,,68,100
278016,note_on,,,,,0,0,2,,,,,1,,,61,100
278016,note_off,,,,,192,0,2,,,,,1,,,62,0
278016,note_off,,,,,192,0,1,,,,,0,,,68,0
278016,note_on,,,,,0,0,1,,,,,0,,,69,100
278016,note_off,,,,,192,0,3,,,,,2,,,59,0
278016,note_on,,,,,0,0,3,,,,,2,,,57,100
278016,note_off,,,,,1536,0,4,,,,,3,,,40,0
278016,note_on,,,,,0,0,4,,,,,3,,,57,100
278112,note_off,,,,,96,0,4,,,,,3,,,57,0
278112,note_off,,,,,96,0,3,,,,,2,,,57,0
278208,note_off,,,,,192,0,2,,,,,1,,,61,0
278208,note_on,,,,,96,0,3,,,,,2,,,64,100
278208,note_on,,,,,96,0,4,,,,,3,,,61,100
278304,note_off,,,,,96,0,3,,,,,2,,,64,0
278304,note_off,,,,,96,0,4,,,,,3,,,61,0
278400,note_off,,,,,384,0,1,,,,,0,,,69,0
278400,note_on,,,,,192,0,2,,,,,1,,,69,100
278400,note_on,,,,,96,0,3,,,,,2,,,64,100
278400,note_on,,,,,96,0,4,,,,,3,,,61,100
278496,note_off,,,,,96,0,3,,,,,2,,,64,0
278496,note_off,,,,,96,0,4,,,,,3,,,61,0
278784,note_on,,,,,288,0,3,,,,,2,,,61,100
278784,note_on,,,,,288,0,4,,,,,3,,,57,100
278880,note_off,,,,,96,0,4,,,,,3,,,57,0
278880,note_off,,,,,96,0,3,,,,,2,,,61,0
278976,note_on,,,,,96,0,3,,,,,2,,,64,100
278976,note_on,,,,,96,0,4,,,,,3,,,61,100
279072,note_off,,,,,96,0,3,,,,,2,,,64,0
279072,note_off,,,,,96,0,4,,,,,3,,,61,0
279168,note_on,,,,,96,0,3,,,,,2,,,64,100
279168,note_on,,,,,0,0,2,,,,,1,,,71,100
279168,note_off,,,,,768,0,2,,,,,1,,,69,0
279168,note_on,,,,,96,0,4,,,,,3,,,61,100
279264,note_off,,,,,96,0,3,,,,,2,,,64,0
279264,note_off,,,,,96,0,4,,,,,3,,,61,0
279360,note_on,,,,,0,0,2,,,,,1,,,69,100
279360,note_off,,,,,192,0,2,,,,,1,,,71,0
279552,note_on,,,,,288,0,4,,,,,3,,,57,100
279552,note_off,,,,,192,0,2,,,,,1,,,69,0
279552,note_on,,,,,0,0,2,,,,,1,,,69,100
279552,note_on,,,,,288,0,3,,,,,2,,,61,100
279648,note_off,,,,,96,0,4,,,,,3,,,57,0
279648,note_off,,,,,96,0,3,,,,,2,,,61,0
279744,note_off,,,,,192,0,2,,,,,1,,,69,0
279744,note_on,,,,,96,0,4,,,,,3,,,61,100
279744,note_on,,,,,96,0,3,,,,,2,,,64,100
279840,note_off,,,,,96,0,3,,,,,2,,,64,0
279840,note_off,,,,,96,0,4,,,,,3,,,61,0
279936,note_on,,,,,96,0,3,,,,,2,,,64,100
279936,note_on,,,,,192,0,2,,,,,1,,,71,100
279936,note_on,,,,,96,0,4,,,,,3,,,61,100
280032,note_off,,,,,96,0,4,,,,,3,,,61,0
280032,note_off,,,,,96,0,3,,,,,2,,,64,0
280128,note_off,,,,,192,0,2,,,,,1,,,71,0
280128,note_on,,,,,0,0,2,,,,,1,,,69,100
280320,note_on,,,,,0,0,2,,,,,1,,,69,100
280320,note_on,,,,,288,0,3,,,,,2,,,61,100
280320,note_on,,,,,288,0,4,,,,,3,,,57,100
280320,note_off,,,,,192,0,2,,,,,1,,,69,0
280416,note_off,,,,,96,0,3,,,,,2,,,61,0
280416,note_off,,,,,96,0,4,,,,,3,,,57,0
280512,note_on,,,,,96,0,4,,,,,3,,,61,100
280512,note_on,,,,,96,0,3,,,,,2,,,64,100
280512,note_off,,,,,192,0,2,,,,,1,,,69,0
280608,note_off,,,,,96,0,3,,,,,2,,,64,0
280608,note_off,,,,,96,0,4,,,,,3,,,61,0
280704,note_on,,,,,96,0,3,,,,,2,,,64,100
280704,note_on,,,,,96,0,4,,,,,3,,,61,100
280704,note_on,,,,,192,0,2,,,,,1,,,73,100
280800,note_off,,,,,96,0,3,,,,,2,,,64,0
280800,note_off,,,,,96,0,4,,,,,3,,,61,0
280896,note_on,,,,,0,0,2,,,,,1,,,71,100
280896,note_off,,,,,192,0,2,,,,,1,,,73,0
281088,note_off,,,,,192,0,2,,,,,1,,,71,0
281088,note_on,,,,,0,0,2,,,,,1,,,71,100
281088,note_on,,,,,288,0,4,,,,,3,,,52,100
281088,note_on,,,,,288,0,3,,,,,2,,,62,100
281184,note_off,,,,,96,0,4,,,,,3,,,52,0
281184,note_off,,,,,96,0,3,,,,,2,,,62,0
281280,note_off,,,,,192,0,2,,,,,1,,,71,0
281280,note_on,,,,,96,0,4,,,,,3,,,62,100
281280,note_on,,,,,96,0,3,,,,,2,,,64,100
281376,note_off,,,,,96,0,4,,,,,3,,,62,0
281376,note_off,,,,,96,0,3,,,,,2,,,64,0
281472,note_on,,,,,192,0,2,,,,,1,,,71,100
281472,note_on,,,,,96,0,4,,,,,3,,,62,100
281472,note_on,,,,,96,0,3,,,,,2,,,64,100
281568,note_off,,,,,96,0,3,,,,,2,,,64,0
281568,note_off,,,,,96,0,4,,,,,3,,,62,0
281856,note_on,,,,,288,0,3,,,,,2,,,62,100
281856,note_on,,,,,288,0,4,,,,,3,,,52,100
281952,note_off,,,,,96,0,3,,,,,2,,,62,0
281952,note_off,,,,,96,0,4,,,,,3,,,52,0
282048,note_on,,,,,96,0,4,,,,,3,,,62,100
282048,note_on,,,,,96,0,3,,,,,2,,,64,100
282048,note_on,,,,,0,0,2,,,,,1,,,69,100
282048,note_off,,,,,576,0,2,,,,,1,,,71,0
282144,note_off,,,,,96,0,4,,,,,3,,,62,0
282144,note_off,,,,,96,0,3,,,,,2,,,64,0
282240,note_off,,,,,192,0,2,,,,,1,,,69,0
282240,note_on,,,,,0,0,2,,,,,1,,,68,100
282240,note_on,,,,,96,0,4,,,,,3,,,62,100
282240,note_on,,,,,96,0,3,,,,,2,,,64,100
282336,note_off,,,,,96,0,4,,,,,3,,,62,0
282336,note_off,,,,,96,0,3,,,,,2,,,64,0
282432,note_on,,,,,0,0,2,,,,,1,,,66,100
282432,note_off,,,,,192,0,2,,,,,1,,,68,0
282624,note_on,,,,,288,0,4,,,,,3,,,52,100
282624,note_on,,,,,0,0,2,,,,,1,,,64,100
282624,note_off,,,,,192,0,2,,,,,1,,,66,0
282624,note_on,,,,,288,0,3,,,,,2,,,62,100
282720,note_off,,,,,96,0,4,,,,,3,,,52,0
282720,note_off,,,,,96,0,3,,,,,2,,,62,0
282816,note_on,,,,,96,0,3,,,,,2,,,64,100
282816,note_on,,,,,96,0,4,,,,,3,,,62,100
282816,note_off,,,,,192,0,2,,,,,1,,,64,0
282912,note_off,,,,,96,0,3,,,,,2,,,64,0
282912,note_off,,,,,96,0,4,,,,,3,,,62,0
283008,note_on,,,,,96,0,3,,,,,2,,,64,100
283008,note_on,,,,,96,0,4,,,,,3,,,62,100
283008,note_on,,,,,4608,0,1,,,,,0,,,76,100
283008,note_on,,,,,192,0,2,,,,,1,,,64,100
283104,note_off,,,,,96,0,3,,,,,2,,,64,0
283104,note_off,,,,,96,0,4,,,,,3,,,62,0
283200,note_on,,,,,0,0,2,,,,,1,,,68,100
283200,note_off,,,,,192,0,2,,,,,1,,,64,0
283392,note_on,,,,,0,0,2,,,,,1,,,66,100
283392,note_off,,,,,384,0,1,,,,,0,,,76,0
283392,note_off,,,,,192,0,2,,,,,1,,,68,0
283392,note_on,,,,,288,0,3,,,,,2,,,62,100
283392,note_on,,,,,0,0,1,,,,,0,,,78,100
283392,note_on,,,,,288,0,4,,,,,3,,,52,100
283488,note_off,,,,,96,0,3,,,,,2,,,62,0
283488,note_off,,,,,96,0,4,,,,,3,,,52,0
283584,note_on,,,,,96,0,3,,,,,2,,,64,100
283584,note_off,,,,,192,0,2,,,,,1,,,66,0
283584,note_on,,,,,96,0,4,,,,,3,,,62,100
283584,note_on,,,,,0,0,2,,,,,1,,,69,100
283680,note_off,,,,,96,0,4,,,,,3,,,62,0
283680,note_off,,,,,96,0,3,,,,,2,,,64,0
283776,note_on,,,,,96,0,4,,,,,3,,,62,100
283776,note_on,,,,,0,0,2,,,,,1,,,68,100
283776,note_off,,,,,384,0,1,,,,,0,,,78,0
283776,note_on,,,,,0,0,1,,,,,0,,,80,100
283776,note_on,,,,,96,0,3,,,,,2,,,64,100
283776,note_off,,,,,192,0,2,,,,,1,,,69,0
283872,note_off,,,,,96,0,3,,,,,2,,,64,0
283872,note_off,,,,,96,0,4,,,,,3,,,62,0
283968,note_off,,,,,192,0,2,,,,,1,,,68,0
283968,note_on,,,,,0,0,2,,,,,1,,,71,100
284160,note_off,,,,,192,0,2,,,,,1,,,71,0
284160,note_on,,,,,0,0,2,,,,,1,,,69,100
284160,note_on,,,,,288,0,3,,,,,2,,,61,100
284160,note_on,,,,,288,0,4,,,,,3,,,57,100
284160,note_on,,,,,0,0,1,,,,,0,,,81,100
284160,note_off,,,,,384,0,1,,,,,0,,,80,0
284256,note_off,,,,,96,0,4,,,,,3,,,57,0
284256,note_off,,,,,96,0,3,,,,,2,,,61,0
284352,note_off,,,,,192,0,2,,,,,1,,,69,0
284352,note_off,,,,,192,0,1,,,,,0,,,81,0
284352,note_on,,,,,96,0,4,,,,,3,,,61,100
284352,note_on,,,,,96,0,3,,,,,2,,,64,100
284448,note_off,,,,,96,0,4,,,,,3,,,61,0
284448,note_off,,,,,96,0,3,,,,,2,,,64,0
284544,note_on,,,,,192,0,2,,,,,1,,,69,100
284544,note_on,,,,,96,0,4,,,,,3,,,61,100
284544,note_on,,,,,192,0,1,,,,,0,,,81,100
284544,note_on,,,,,96,0,3,,,,,2,,,64,100
284640,note_off,,,,,96,0,4,,,,,3,,,61,0
284640,note_off,,,,,96,0,3,,,,,2,,,64,0
284928,note_on,,,,,288,0,4,,,,,3,,,57,100
284928,note_on,,,,,288,0,3,,,,,2,,,61,100
285024,note_off,,,,,96,0,3,,,,,2,,,61,0
285024,note_off,,,,,96,0,4,,,,,3,,,57,0
285120,note_on,,,,,96,0,4,,,,,3,,,61,100
285120,note_on,,,,,96,0,3,,,,,2,,,64,100
285216,note_off,,,,,96,0,4,,,,,3,,,61,0
285216,note_off,,,,,96,0,3,,,,,2,,,64,0
285312,note_on,,,,,0,0,2,,,,,1,,,71,100
285312,note_on,,,,,96,0,4,,,,,3,,,61,100
285312,note_on,,,,,0,0,1,,,,,0,,,83,100
285312,note_on,,,,,96,0,3,,,,,2,,,64,100
285312,note_off,,,,,768,0,2,,,,,1,,,69,0
285312,note_off,,,,,768,0,1,,,,,0,,,81,0
285408,note_off,,,,,96,0,3,,,,,2,,,64,0
285408,note_off,,,,,96,0,4,,,,,3,,,61,0
285504,note_off,,,,,192,0,1,,,,,0,,,83,0
285504,note_off,,,,,192,0,2,,,,,1,,,71,0
285504,note_on,,,,,0,0,2,,,,,1,,,69,100
285504,note_on,,,,,0,0,1,,,,,0,,,81,100
285696,note_off,,,,,192,0,1,,,,,0,,,81,0
285696,note_on,,,,,288,0,4,,,,,3,,,57,100
285696,note_on,,,,,288,0,3,,,,,2,,,61,100
285696,note_off,,,,,192,0,2,,,,,1,,,69,0
285696,note_on,,,,,0,0,2,,,,,1,,,69,100
285696,note_on,,,,,0,0,1,,,,,0,,,81,100
285792,note_off,,,,,96,0,4,,,,,3,,,57,0
285792,note_off,,,,,96,0,3,,,,,2,,,61,0
285888,note_on,,,,,96,0,3,,,,,2,,,64,100
285888,note_off,,,,,192,0,1,,,,,0,,,81,0
285888,note_on,,,,,96,0,4,,,,,3,,,61,100
285888,note_off,,,,,192,0,2,,,,,1,,,69,0
285984,note_off,,,,,96,0,3,,,,,2,,,64,0
285984,note_off,,,,,96,0,4,,,,,3,,,61,0
286080,note_on,,,,,96,0,3,,,,,2,,,64,100
286080,note_on,,,,,192,0,1,,,,,0,,,83,100
286080,note_on,,,,,96,0,4,,,,,3,,,61,100
286080,note_on,,,,,192,0,2,,,,,1,,,71,100
286176,note_off,,,,,96,0,3,,,,,2,,,64,0
286176,note_off,,,,,96,0,4,,,,,3,,,61,0
286272,note_on,,,,,0,0,1,,,,,0,,,81,100
286272,note_off,,,,,192,0,1,,,,,0,,,83,0
286272,note_off,,,,,192,0,2,,,,,1,,,71,0
286272,note_on,,,,,0,0,2,,,,,1,,,69,100
286464,note_on,,,,,288,0,3,,,,,2,,,61,100
286464,note_on,,,,,0,0,1,,,,,0,,,81,100
286464,note_off,,,,,192,0,1,,,,,0,,,81,0
286464,note_on,,,,,288,0,4,,,,,3,,,57,100
286464,note_off,,,,,192,0,2,,,,,1,,,69,0
286464,note_on,,,,,0,0,2,,,,,1,,,69,100
286560,note_off,,,,,96,0,3,,,,,2,,,61,0
286560,note_off,,,,,96,0,4,,,,,3,,,57,0
286656,note_off,,,,,192,0,2,,,,,1,,,69,0
286656,note_off,,,,,192,0,1,,,,,0,,,81,0
286656,note_on,,,,,96,0,3,,,,,2,,,64,100
286656,note_on,,,,,96,0,4,,,,,3,,,61,100
286752,note_off,,,,,96,0,4,,,,,3,,,61,0
286752,note_off,,,,,96,0,3,,,,,2,,,64,0
286848,note_on,,,,,96,0,3,,,,,2,,,64,100
286848,note_on,,,,,192,0,2,,,,,1,,,73,100
286848,note_on,,,,,96,0,4,,,,,3,,,61,100
286848,note_on,,,,,192,0,1,,,,,0,,,85,100
286944,note_off,,,,,96,0,4,,,,,3,,,61,0
286944,note_off,,,,,96,0,3,,,,,2,,,64,0
287040,note_off,,,,,192,0,2,,,,,1,,,73,0
287040,note_on,,,,,0,0,2,,,,,1,,,71,100
287040,note_off,,,,,192,0,1,,,,,0,,,85,0
287040,note_on,,,,,0,0,1,,,,,0,,,83,100
287232,note_off,,,,,192,0,2,,,,,1,,,71,0
287232,note_on,,,,,0,0,2,,,,,1,,,71,100
287232,note_off,,,,,192,0,1,,,,,0,,,83,0
287232,note_on,,,,,0,0,1,,,,,0,,,83,100
287232,note_on,,,,,288,0,4,,,,,3,,,52,100
287232,note_on,,,,,288,0,3,,,,,2,,,62,100
287328,note_off,,,,,96,0,3,,,,,2,,,62,0
287328,note_off,,,,,96,0,4,,,,,3,,,52,0
287424,note_on,,,,,96,0,4,,,,,3,,,62,100
287424,note_off,,,,,192,0,2,,,,,1,,,71,0
287424,note_on,,,,,96,0,3,,,,,2,,,64,100
287424,note_off,,,,,192,0,1,,,,,0,,,83,0
287520,note_off,,,,,96,0,3,,,,,2,,,64,0
287520,note_off,,,,,96,0,4,,,,,3,,,62,0
287616,note_on,,,,,96,0,3,,,,,2,,,64,100
287616,note_on,,,,,192,0,2,,,,,1,,,71,100
287616,note_on,,,,,96,0,4,,,,,3,,,62,100
287616,note_on,,,,,192,0,1,,,,,0,,,83,100
287712,note_off,,,,,96,0,3,,,,,2,,,64,0
287712,note_off,,,,,96,0,4,,,,,3,,,62,0
288000,note_on,,,,,288,0,3,,,,,2,,,62,100
288000,note_on,,,,,288,0,4,,,,,3,,,52,100
288096,note_off,,,,,96,0,3,,,,,2,,,62,0
288096,note_off,,,,,96,0,4,,,,,3,,,52,0
288192,note_off,,,,,576,0,1,,,,,0,,,83,0
288192,note_off,,,,,576,0,2,,,,,1,,,71,0
288192,note_on,,,,,0,0,2,,,,,1,,,69,100
288192,note_on,,,,,96,0,4,,,,,3,,,62,100
288192,note_on,,,,,96,0,3,,,,,2,,,64,100
288192,note_on,,,,,0,0,1,,,,,0,,,81,100
288288,note_off,,,,,96,0,3,,,,,2,,,64,0
288288,note_off,,,,,96,0,4,,,,,3,,,62,0
288384,note_on,,,,,96,0,4,,,,,3,,,62,100
288384,note_on,,,,,0,0,2,,,,,1,,,68,100
288384,note_off,,,,,192,0,2,,,,,1,,,69,0
288384,note_on,,,,,96,0,3,,,,,2,,,64,100
288384,note_on,,,,,0,0,1,,,,,0,,,80,100
288384,note_off,,,,,192,0,1,,,,,0,,,81,0
288480,note_off,,,,,96,0,3,,,,,2,,,64,0
288480,note_off,,,,,96,0,4,,,,,3,,,62,0
288576,note_on,,,,,0,0,1,,,,,0,,,78,100
288576,note_off,,,,,192,0,2,,,,,1,,,68,0
288576,note_off,,,,,192,0,1,,,,,0,,,80,0
288576,note_on,,,,,0,0,2,,,,,1,,,66,100
288768,note_on,,,,,288,0,4,,,,,3,,,52,100
288768,note_off,,,,,192,0,1,,,,,0,,,78,0
288768,note_off,,,,,192,0,2,,,,,1,,,66,0
288768,note_on,,,,,0,0,2,,,,,1,,,64,100
288768,note_on,,,,,288,0,3,,,,,2,,,62,100
288768,note_on,,,,,0,0,1,,,,,0,,,76,100
288864,note_off,,,,,96,0,4,,,,,3,,,52,0
288864,note_off,,,,,96,0,3,,,,,2,,,62,0
288960,note_on,,,,,96,0,3,,,,,2,,,64,100
288960,note_on,,,,,96,0,4,,,,,3,,,62,100
288960,note_off,,,,,192,0,2,,,,,1,,,64,0
288960,note_off,,,,,192,0,1,,,,,0,,,76,0
289056,note_off,,,,,96,0,4,,,,,3,,,62,0
289056,note_off,,,,,96,0,3,,,,,2,,,64,0
289152,note_on,,,,,96,0,3,,,,,2,,,64,100
289152,note_on,,,,,192,0,2,,,,,1,,,64,100
289152,note_on,,,,,96,0,4,,,,,3,,,62,100
289152,note_on,,,,,192,0,1,,,,,0,,,76,100
289248,note_off,,,,,96,0,3,,,,,2,,,64,0
289248,note_off,,,,,96,0,4,,,,,3,,,62,0
289440,note_off,,,,,288,0,2,,,,,1,,,64,0
289440,note_off,,,,,288,0,1,,,,,0,,,76,0
289440,note_on,,,,,0,0,1,,,,,0,,,79,100
289440,note_on,,,,,0,0,2,,,,,1,,,67,100
289536,note_on,,,,,288,0,4,,,,,3,,,52,100
289536,note_on,,,,,0,0,1,,,,,0,,,77,100
289536,note_on,,,,,288,0,3,,,,,2,,,62,100
289536,note_off,,,,,96,0,2,,,,,1,,,67,0
289536,note_on,,,,,0,0,2,,,,,1,,,65,100
289536,note_off,,,,,96,0,1,,,,,0,,,79,0
289632,note_off,,,,,96,0,3,,,,,2,,,62,0
289632,note_off,,,,,96,0,4,,,,,3,,,52,0
289728,note_on,,,,,96,0,3,,,,,2,,,64,100
289728,note_on,,,,,96,0,4,,,,,3,,,62,100
289824,note_off,,,,,96,0,4,,,,,3,,,62,0
289824,note_off,,,,,96,0,3,,,,,2,,,64,0
289920,note_on,,,,,96,0,3,,,,,2,,,64,100
289920,note_on,,,,,0,0,2,,,,,1,,,64,100
289920,note_on,,,,,0,0,1,,,,,0,,,76,100
289920,note_off,,,,,384,0,1,,,,,0,,,77,0
289920,note_off,,,,,384,0,2,,,,,1,,,65,0
289920,note_on,,,,,96,0,4,,,,,3,,,62,100
290016,note_off,,,,,96,0,3,,,,,2,,,64,0
290016,note_off,,,,,96,0,4,,,,,3,,,62,0
290304,note_on,,,,,0,0,2,,,,,1,,,64,100
290304,note_off,,,,,384,0,2,,,,,1,,,64,0
290304,note_on,,,,,0,0,1,,,,,0,,,72,100
290304,note_on,,,,,288,0,3,,,,,2,,,57,100
290304,note_on,,,,,288,0,4,,,,,3,,,57,100
290304,note_off,,,,,384,0,1,,,,,0,,,76,0
290400,note_off,,,,,96,0,1,,,,,0,,,72,0
290400,note_off,,,,,96,0,2,,,,,1,,,64,0
290496,note_off,,,,,192,0,4,,,,,3,,,57,0
290496,note_on,,,,,96,0,2,,,,,1,,,72,100
290496,note_on,,,,,96,0,1,,,,,0,,,76,100
290496,note_off,,,,,192,0,3,,,,,2,,,57,0
290592,note_off,,,,,96,0,1,,,,,0,,,76,0
290592,note_off,,,,,96,0,2,,,,,1,,,72,0
290688,note_on,,,,,96,0,1,,,,,0,,,76,100
290688,note_on,,,,,96,0,2,,,,,1,,,72,100
290688,note_on,,,,,192,0,4,,,,,3,,,57,100
290784,note_off,,,,,96,0,2,,,,,1,,,72,0
290784,note_off,,,,,96,0,1,,,,,0,,,76,0
291072,note_on,,,,,288,0,1,,,,,0,,,72,100
291072,note_on,,,,,288,0,2,,,,,1,,,64,100
291168,note_off,,,,,96,0,1,,,,,0,,,72,0
291168,note_off,,,,,96,0,2,,,,,1,,,64,0
291264,note_on,,,,,96,0,1,,,,,0,,,76,100
291264,note_on,,,,,96,0,2,,,,,1,,,72,100
291360,note_off,,,,,96,0,2,,,,,1,,,72,0
291360,note_off,,,,,96,0,1,,,,,0,,,76,0
291456,note_on,,,,,96,0,2,,,,,1,,,72,100
291456,note_on,,,,,96,0,1,,,,,0,,,76,100
291456,note_off,,,,,768,0,4,,,,,3,,,57,0
291456,note_on,,,,,0,0,4,,,,,3,,,59,100
291552,note_off,,,,,96,0,1,,,,,0,,,76,0
291552,note_off,,,,,96,0,2,,,,,1,,,72,0
291648,note_on,,,,,0,0,4,,,,,3,,,57,100
291648,note_off,,,,,192,0,4,,,,,3,,,59,0
291840,note_on,,,,,288,0,1,,,,,0,,,72,100
291840,note_off,,,,,192,0,4,,,,,3,,,57,0
291840,note_on,,,,,288,0,2,,,,,1,,,64,100
291840,note_on,,,,,0,0,4,,,,,3,,,57,100
291936,note_off,,,,,96,0,2,,,,,1,,,64,0
291936,note_off,,,,,96,0,1,,,,,0,,,72,0
292032,note_on,,,,,96,0,2,,,,,1,,,72,100
292032,note_off,,,,,192,0,4,,,,,3,,,57,0
292032,note_on,,,,,96,0,1,,,,,0,,,76,100
292128,note_off,,,,,96,0,2,,,,,1,,,72,0
292128,note_off,,,,,96,0,1,,,,,0,,,76,0
292224,note_on,,,,,192,0,4,,,,,3,,,59,100
292224,note_on,,,,,96,0,2,,,,,1,,,72,100
292224,note_on,,,,,96,0,1,,,,,0,,,76,100
292320,note_off,,,,,96,0,2,,,,,1,,,72,0
292320,note_off,,,,,96,0,1,,,,,0,,,76,0
292416,note_off,,,,,192,0,4,,,,,3,,,59,0
292416,note_on,,,,,0,0,4,,,,,3,,,57,100
292608,note_on,,,,,288,0,2,,,,,1,,,64,100
292608,note_on,,,,,288,0,1,,,,,0,,,72,100
292608,note_off,,,,,192,0,4,,,,,3,,,57,0
292608,note_on,,,,,0,0,4,,,,,3,,,57,100
292704,note_off,,,,,96,0,1,,,,,0,,,72,0
292704,note_off,,,,,96,0,2,,,,,1,,,64,0
292800,note_on,,,,,96,0,2,,,,,1,,,72,100
292800,note_off,,,,,192,0,4,,,,,3,,,57,0
292800,note_on,,,,,96,0,1,,,,,0,,,76,100
292896,note_off,,,,,96,0,1,,,,,0,,,76,0
292896,note_off,,,,,96,0,2,,,,,1,,,72,0
292992,note_on,,,,,96,0,1,,,,,0,,,76,100
292992,note_on,,,,,96,0,2,,,,,1,,,72,100
292992,note_on,,,,,192,0,4,,,,,3,,,57,100
293088,note_off,,,,,96,0,1,,,,,0,,,76,0
293088,note_off,,,,,96,0,2,,,,,1,,,72,0
293184,note_off,,,,,192,0,4,,,,,3,,,57,0
293184,note_on,,,,,0,0,4,,,,,3,,,55,100
293376,note_on,,,,,288,0,1,,,,,0,,,70,100
293376,note_on,,,,,288,0,2,,,,,1,,,64,100
293376,note_on,,,,,0,0,4,,,,,3,,,55,100
293376,note_off,,,,,192,0,4,,,,,3,,,55,0
293472,note_off,,,,,96,0,1,,,,,0,,,70,0
293472,note_off,,,,,96,0,2,,,,,1,,,64,0
293568,note_off,,,,,192,0,4,,,,,3,,,55,0
293568,note_on,,,,,96,0,1,,,,,0,,,76,100
293568,note_on,,,,,96,0,2,,,,,1,,,70,100
293664,note_off,,,,,96,0,1,,,,,0,,,76,0
293664,note_off,,,,,96,0,2,,,,,1,,,70,0
293760,note_on,,,,,96,0,2,,,,,1,,,70,100
293760,note_on,,,,,96,0,1,,,,,0,,,76,100
293760,note_on,,,,,192,0,4,,,,,3,,,55,100
293856,note_off,,,,,96,0,1,,,,,0,,,76,0
293856,note_off,,,,,96,0,2,,,,,1,,,70,0
294144,note_on,,,,,288,0,2,,,,,1,,,64,100
294144,note_on,,,,,288,0,1,,,,,0,,,70,100
294240,note_off,,,,,96,0,2,,,,,1,,,64,0
294240,note_off,,,,,96,0,1,,,,,0,,,70,0
294336,note_on,,,,,96,0,2,,,,,1,,,70,100
294336,note_on,,,,,96,0,1,,,,,0,,,76,100
294336,note_off,,,,,576,0,4,,,,,3,,,55,0
294336,note_on,,,,,0,0,4,,,,,3,,,53,100
294432,note_off,,,,,96,0,2,,,,,1,,,70,0
294432,note_off,,,,,96,0,1,,,,,0,,,76,0
294528,note_on,,,,,96,0,2,,,,,1,,,70,100
294528,note_on,,,,,96,0,1,,,,,0,,,76,100
294528,note_off,,,,,192,0,4,,,,,3,,,53,0
294528,note_on,,,,,0,0,4,,,,,3,,,52,100
294624,note_off,,,,,96,0,1,,,,,0,,,76,0
294624,note_off,,,,,96,0,2,,,,,1,,,70,0
294720,note_off,,,,,192,0,4,,,,,3,,,52,0
294720,note_on,,,,,0,0,4,,,,,3,,,50,100
294912,note_on,,,,,288,0,2,,,,,1,,,64,100
294912,note_on,,,,,0,0,4,,,,,3,,,48,100
294912,note_off,,,,,192,0,4,,,,,3,,,50,0
294912,note_on,,,,,4416,0,3,,,,,2,,,72,100
294912,note_on,,,,,288,0,1,,,,,0,,,70,100
295008,note_off,,,,,96,0,2,,,,,1,,,64,0
295008,note_off,,,,,96,0,1,,,,,0,,,70,0
295104,note_on,,,,,96,0,2,,,,,1,,,70,100
295104,note_off,,,,,192,0,3,,,,,2,,,72,0
295104,note_on,,,,,96,0,1,,,,,0,,,76,100
295200,note_off,,,,,96,0,2,,,,,1,,,70,0
295200,note_off,,,,,96,0,1,,,,,0,,,76,0
295296,note_on,,,,,96,0,2,,,,,1,,,70,100
295296,note_on,,,,,192,0,3,,,,,2,,,72,100
295296,note_on,,,,,96,0,1,,,,,0,,,76,100
295392,note_off,,,,,96,0,1,,,,,0,,,76,0
295392,note_off,,,,,96,0,2,,,,,1,,,70,0
295680,note_on,,,,,288,0,1,,,,,0,,,70,100
295680,note_off,,,,,768,0,4,,,,,3,,,48,0
295680,note_on,,,,,288,0,2,,,,,1,,,64,100
295776,note_off,,,,,96,0,2,,,,,1,,,64,0
295776,note_off,,,,,96,0,1,,,,,0,,,70,0
295872,note_off,,,,,576,0,3,,,,,2,,,72,0
295872,note_on,,,,,0,0,3,,,,,2,,,70,100
295872,note_on,,,,,96,0,2,,,,,1,,,70,100
295872,note_on,,,,,96,0,1,,,,,0,,,76,100
295968,note_off,,,,,96,0,1,,,,,0,,,76,0
295968,note_off,,,,,96,0,2,,,,,1,,,70,0
296064,note_on,,,,,0,0,3,,,,,2,,,69,100
296064,note_on,,,,,96,0,1,,,,,0,,,76,100
296064,note_on,,,,,96,0,2,,,,,1,,,70,100
296064,note_off,,,,,192,0,3,,,,,2,,,70,0
296160,note_off,,,,,96,0,2,,,,,1,,,70,0
296160,note_off,,,,,96,0,1,,,,,0,,,76,0
296256,note_off,,,,,192,0,3,,,,,2,,,69,0
296256,note_on,,,,,0,0,3,,,,,2,,,67,100
296448,note_on,,,,,288,0,2,,,,,1,,,69,100
296448,note_on,,,,,288,0,1,,,,,0,,,77,100
296448,note_on,,,,,0,0,3,,,,,2,,,65,100
296448,note_off,,,,,192,0,3,,,,,2,,,67,0
296448,note_on,,,,,768,0,4,,,,,3,,,53,100
296640,note_off,,,,,192,0,2,,,,,1,,,69,0
296640,note_off,,,,,192,0,3,,,,,2,,,65,0
296640,note_off,,,,,192,0,1,,,,,0,,,77,0
296640,note_off,,,,,192,0,4,,,,,3,,,53,0
296832,note_on,,,,,192,0,4,,,,,3,,,65,100
296832,note_on,,,,,192,0,3,,,,,2,,,69,100
296832,note_on,,,,,192,0,1,,,,,0,,,77,100
296832,note_on,,,,,192,0,2,,,,,1,,,72,100
297600,note_on,,,,,0,0,2,,,,,1,,,71,100
297600,note_off,,,,,768,0,2,,,,,1,,,72,0
297600,note_off,,,,,768,0,3,,,,,2,,,69,0
297600,note_on,,,,,0,0,3,,,,,2,,,68,100
297600,note_on,,,,,0,0,1,,,,,0,,,79,100
297600,note_off,,,,,768,0,1,,,,,0,,,77,0
297792,note_off,,,,,192,0,1,,,,,0,,,79,0
297792,note_on,,,,,0,0,1,,,,,0,,,77,100
297792,note_on,,,,,0,0,2,,,,,1,,,72,100
297792,note_off,,,,,192,0,2,,,,,1,,,71,0
297792,note_on,,,,,0,0,3,,,,,2,,,69,100
297792,note_off,,,,,192,0,3,,,,,2,,,68,0
297984,note_off,,,,,192,0,1,,,,,0,,,77,0
297984,note_off,,,,,192,0,3,,,,,2,,,69,0
297984,note_on,,,,,0,0,3,,,,,2,,,69,100
297984,note_on,,,,,0,0,2,,,,,1,,,72,100
297984,note_off,,,,,192,0,2,,,,,1,,,72,0
297984,note_off,,,,,1152,0,4,,,,,3,,,65,0
297984,note_on,,,,,0,0,1,,,,,0,,,77,100
297984,note_on,,,,,0,0,4,,,,,3,,,65,100
298176,note_off,,,,,192,0,1,,,,,0,,,77,0
298176,note_off,,,,,192,0,3,,,,,2,,,69,0
298176,note_off,,,,,192,0,2,,,,,1,,,72,0
298368,note_on,,,,,192,0,1,,,,,0,,,79,100
298368,note_on,,,,,192,0,3,,,,,2,,,68,100
298368,note_on,,,,,192,0,2,,,,,1,,,71,100
298560,note_off,,,,,192,0,1,,,,,0,,,79,0
298560,note_on,,,,,0,0,2,,,,,1,,,72,100
298560,note_off,,,,,192,0,2,,,,,1,,,71,0
298560,note_on,,,,,0,0,1,,,,,0,,,77,100
298560,note_off,,,,,192,0,3,,,,,2,,,68,0
298560,note_on,,,,,0,0,3,,,,,2,,,69,100
298752,note_on,,,,,0,0,3,,,,,2,,,69,100
298752,note_off,,,,,192,0,3,,,,,2,,,69,0
298752,note_on,,,,,0,0,1,,,,,0,,,77,100
298752,note_off,,,,,192,0,2,,,,,1,,,72,0
298752,note_on,,,,,0,0,2,,,,,1,,,72,100
298752,note_on,,,,,0,0,4,,,,,3,,,65,100
298752,note_off,,,,,768,0,4,,,,,3,,,65,0
298752,note_off,,,,,192,0,1,,,,,0,,,77,0
298944,note_off,,,,,192,0,3,,,,,2,,,69,0
298944,note_off,,,,,192,0,2,,,,,1,,,72,0
298944,note_off,,,,,192,0,1,,,,,0,,,77,0
299136,note_on,,,,,192,0,1,,,,,0,,,79,100
299136,note_on,,,,,192,0,3,,,,,2,,,68,100
299136,note_on,,,,,192,0,2,,,,,1,,,71,100
299328,note_off,,,,,192,0,1,,,,,0,,,79,0
299328,note_on,,,,,0,0,1,,,,,0,,,77,100
299328,note_off,,,,,192,0,2,,,,,1,,,71,0
299328,note_on,,,,,0,0,2,,,,,1,,,72,100
299328,note_off,,,,,192,0,3,,,,,2,,,68,0
299328,note_on,,,,,0,0,3,,,,,2,,,69,100
299520,note_off,,,,,192,0,2,,,,,1,,,72,0
299520,note_off,,,,,192,0,1,,,,,0,,,77,0
299520,note_off,,,,,192,0,3,,,,,2,,,69,0
299520,note_on,,,,,0,0,2,,,,,1,,,72,100
299520,note_on,,,,,0,0,1,,,,,0,,,77,100
299520,note_on,,,,,0,0,3,,,,,2,,,69,100
299520,note_off,,,,,768,0,4,,,,,3,,,65,0
299520,note_on,,,,,0,0,4,,,,,3,,,65,100
299712,note_off,,,,,192,0,4,,,,,3,,,65,0
299712,note_off,,,,,192,0,1,,,,,0,,,77,0
299712,note_off,,,,,192,0,2,,,,,1,,,72,0
299712,note_off,,,,,192,0,3,,,,,2,,,69,0
299904,note_on,,,,,192,0,3,,,,,2,,,72,100
299904,note_on,,,,,192,0,4,,,,,3,,,65,100
299904,note_on,,,,,192,0,2,,,,,1,,,77,100
299904,note_on,,,,,192,0,1,,,,,0,,,81,100
300672,note_on,,,,,0,0,4,,,,,3,,,64,100
300672,note_off,,,,,768,0,1,,,,,0,,,81,0
300672,note_off,,,,,768,0,4,,,,,3,,,65,0
300672,note_on,,,,,0,0,1,,,,,0,,,82,100
300672,note_on,,,,,0,0,2,,,,,1,,,79,100
300672,note_off,,,,,768,0,2,,,,,1,,,77,0
300672,note_off,,,,,768,0,3,,,,,2,,,72,0
300672,note_on,,,,,0,0,3,,,,,2,,,73,100
300864,note_off,,,,,192,0,1,,,,,0,,,82,0
300864,note_on,,,,,0,0,1,,,,,0,,,81,100
300864,note_on,,,,,0,0,3,,,,,2,,,72,100
300864,note_off,,,,,192,0,4,,,,,3,,,64,0
300864,note_off,,,,,192,0,3,,,,,2,,,73,0
300864,note_off,,,,,192,0,2,,,,,1,,,79,0
300864,note_on,,,,,0,0,2,,,,,1,,,77,100
300864,note_on,,,,,0,0,4,,,,,3,,,65,100
301056,note_on,,,,,0,0,3,,,,,2,,,72,100
301056,note_on,,,,,0,0,4,,,,,3,,,65,100
301056,note_off,,,,,192,0,4,,,,,3,,,65,0
301056,note_off,,,,,192,0,3,,,,,2,,,72,0
301056,note_on,,,,,0,0,2,,,,,1,,,77,100
301056,note_off,,,,,192,0,1,,,,,0,,,81,0
301056,note_on,,,,,0,0,1,,,,,0,,,81,100
301056,note_off,,,,,192,0,2,,,,,1,,,77,0
301248,note_off,,,,,192,0,4,,,,,3,,,65,0
301248,note_off,,,,,192,0,3,,,,,2,,,72,0
301248,note_off,,,,,192,0,1,,,,,0,,,81,0
301248,note_off,,,,,192,0,2,,,,,1,,,77,0
301440,note_on,,,,,192,0,4,,,,,3,,,64,100
301440,note_on,,,,,192,0,3,,,,,2,,,73,100
301440,note_on,,,,,192,0,1,,,,,0,,,82,100
301440,note_on,,,,,192,0,2,,,,,1,,,79,100
301632,note_on,,,,,0,0,1,,,,,0,,,81,100
301632,note_off,,,,,192,0,1,,,,,0,,,82,0
301632,note_on,,,,,0,0,2,,,,,1,,,77,100
301632,note_off,,,,,192,0,2,,,,,1,,,79,0
301632,note_on,,,,,0,0,4,,,,,3,,,65,100
301632,note_on,,,,,0,0,3,,,,,2,,,72,100
301632,note_off,,,,,192,0,3,,,,,2,,,73,0
301632,note_off,,,,,192,0,4,,,,,3,,,64,0
301824,note_off,,,,,192,0,2,,,,,1,,,77,0
301824,note_on,,,,,0,0,4,,,,,3,,,65,100
301824,note_on,,,,,0,0,3,,,,,2,,,72,100
301824,note_off,,,,,192,0,4,,,,,3,,,65,0
301824,note_off,,,,,192,0,3,,,,,2,,,72,0
301824,note_on,,,,,0,0,2,,,,,1,,,77,100
301824,note_on,,,,,0,0,1,,,,,0,,,81,100
301824,note_off,,,,,192,0,1,,,,,0,,,81,0
302016,note_off,,,,,192,0,3,,,,,2,,,72,0
302016,note_off,,,,,192,0,1,,,,,0,,,81,0
302016,note_off,,,,,192,0,2,,,,,1,,,77,0
302016,note_off,,,,,192,0,4,,,,,3,,,65,0
302208,note_on,,,,,192,0,2,,,,,1,,,79,100
302208,note_on,,,,,192,0,4,,,,,3,,,64,100
302208,note_on,,,,,192,0,1,,,,,0,,,82,100
302208,note_on,,,,,192,0,3,,,,,2,,,73,100
302400,note_off,,,,,192,0,2,,,,,1,,,79,0
302400,note_on,,,,,0,0,2,,,,,1,,,77,100
302400,note_off,,,,,192,0,3,,,,,2,,,73,0
302400,note_on,,,,,0,0,3,,,,,2,,,72,100
302400,note_on,,,,,0,0,1,,,,,0,,,81,100
302400,note_off,,,,,192,0,1,,,,,0,,,82,0
302400,note_off,,,,,192,0,4,,,,,3,,,64,0
302400,note_on,,,,,0,0,4,,,,,3,,,65,100
302592,note_off,,,,,192,0,4,,,,,3,,,65,0
302592,note_off,,,,,192,0,1,,,,,0,,,81,0
302592,note_on,,,,,0,0,1,,,,,0,,,81,100
302592,note_on,,,,,0,0,4,,,,,3,,,65,100
302592,note_on,,,,,0,0,2,,,,,1,,,77,100
302592,note_off,,,,,192,0,2,,,,,1,,,77,0
302592,note_off,,,,,192,0,3,,,,,2,,,72,0
302592,note_on,,,,,0,0,3,,,,,2,,,72,100
302784,note_off,,,,,192,0,3,,,,,2,,,72,0
302784,note_off,,,,,192,0,2,,,,,1,,,77,0
302784,note_off,,,,,192,0,4,,,,,3,,,65,0
302784,note_off,,,,,192,0,1,,,,,0,,,81,0
302976,note_on,,,,,192,0,3,,,,,2,,,72,100
302976,note_on,,,,,192,0,4,,,,,3,,,65,100
302976,note_on,,,,,192,0,1,,,,,0,,,81,100
302976,note_on,,,,,192,0,2,,,,,1,,,77,100
303744,note_off,,,,,768,0,1,,,,,0,,,81,0
303744,note_on,,,,,0,0,1,,,,,0,,,83,100
303744,note_off,,,,,768,0,3,,,,,2,,,72,0
303744,note_off,,,,,768,0,2,,,,,1,,,77,0
303744,note_on,,,,,0,0,3,,,,,2,,,74,100
303744,note_on,,,,,0,0,2,,,,,1,,,80,100
303936,note_on,,,,,0,0,3,,,,,2,,,75,100
303936,note_on,,,,,0,0,1,,,,,0,,,84,100
303936,note_off,,,,,192,0,1,,,,,0,,,83,0
303936,note_off,,,,,192,0,2,,,,,1,,,80,0
303936,note_off,,,,,192,0,3,,,,,2,,,74,0
303936,note_on,,,,,0,0,2,,,,,1,,,81,100
304128,note_off,,,,,1152,0,4,,,,,3,,,65,0
304128,note_off,,,,,192,0,2,,,,,1,,,81,0
304128,note_off,,,,,192,0,3,,,,,2,,,75,0
304128,note_on,,,,,0,0,3,,,,,2,,,75,100
304128,note_on,,,,,0,0,1,,,,,0,,,84,100
304128,note_off,,,,,192,0,1,,,,,0,,,84,0
304128,note_on,,,,,0,0,2,,,,,1,,,81,100
304512,note_on,,,,,384,0,4,,,,,3,,,65,100
304704,note_on,,,,,0,0,4,,,,,3,,,66,100
304704,note_off,,,,,192,0,4,,,,,3,,,65,0
304896,note_off,,,,,192,0,4,,,,,3,,,66,0
304896,note_on,,,,,0,0,4,,,,,3,,,66,100
305280,note_off,,,,,1152,0,1,,,,,0,,,84,0
305280,note_on,,,,,0,0,1,,,,,0,,,83,100
305280,note_on,,,,,0,0,2,,,,,1,,,80,100
305280,note_off,,,,,1152,0,2,,,,,1,,,81,0
305280,note_off,,,,,1152,0,3,,,,,2,,,75,0
305280,note_on,,,,,0,0,3,,,,,2,,,74,100
305472,note_on,,,,,0,0,1,,,,,0,,,84,100
305472,note_on,,,,,0,0,2,,,,,1,,,81,100
305472,note_off,,,,,192,0,2,,,,,1,,,80,0
305472,note_off,,,,,192,0,1,,,,,0,,,83,0
305472,note_on,,,,,0,0,3,,,,,2,,,75,100
305472,note_off,,,,,192,0,3,,,,,2,,,74,0
305664,note_off,,,,,192,0,1,,,,,0,,,84,0
305664,note_on,,,,,0,0,2,,,,,1,,,81,100
305664,note_off,,,,,192,0,2,,,,,1,,,81,0
305664,note_on,,,,,0,0,3,,,,,2,,,75,100
305664,note_on,,,,,0,0,1,,,,,0,,,84,100
305664,note_off,,,,,192,0,3,,,,,2,,,75,0
306048,note_off,,,,,1152,0,4,,,,,3,,,66,0
306048,note_on,,,,,0,0,4,,,,,3,,,65,100
306240,note_on,,,,,0,0,4,,,,,3,,,66,100
306240,note_off,,,,,192,0,4,,,,,3,,,65,0
306432,note_off,,,,,192,0,4,,,,,3,,,66,0
306432,note_on,,,,,0,0,4,,,,,3,,,66,100
306816,note_off,,,,,1152,0,3,,,,,2,,,75,0
306816,note_on,,,,,0,0,1,,,,,0,,,83,100
306816,note_off,,,,,1152,0,2,,,,,1,,,81,0
306816,note_on,,,,,0,0,2,,,,,1,,,81,100
306816,note_on,,,,,0,0,3,,,,,2,,,75,100
306816,note_off,,,,,1152,0,1,,,,,0,,,84,0
307008,note_off,,,,,192,0,2,,,,,1,,,81,0
307008,note_on,,,,,0,0,2,,,,,1,,,82,100
307008,note_off,,,,,192,0,1,,,,,0,,,83,0
307008,note_on,,,,,0,0,1,,,,,0,,,84,100
307008,note_off,,,,,192,0,3,,,,,2,,,75,0
307008,note_on,,,,,0,0,3,,,,,2,,,76,100
307200,note_on,,,,,0,0,2,,,,,1,,,82,100
307200,note_on,,,,,0,0,3,,,,,2,,,76,100
307200,note_off,,,,,192,0,3,,,,,2,,,76,0
307200,note_off,,,,,192,0,2,,,,,1,,,82,0
307200,note_off,,,,,192,0,1,,,,,0,,,84,0
307200,note_on,,,,,0,0,1,,,,,0,,,84,100
307584,note_off,,,,,1152,0,4,,,,,3,,,66,0
307584,note_on,,,,,0,0,4,,,,,3,,,66,100
307776,note_off,,,,,192,0,4,,,,,3,,,66,0
307776,note_on,,,,,0,0,4,,,,,3,,,67,100
307968,note_off,,,,,192,0,4,,,,,3,,,67,0
307968,note_on,,,,,0,0,4,,,,,3,,,67,100
308352,note_off,,,,,1152,0,2,,,,,1,,,82,0
308352,note_on,,,,,0,0,2,,,,,1,,,81,100
308352,note_on,,,,,0,0,3,,,,,2,,,75,100
308352,note_off,,,,,1152,0,3,,,,,2,,,76,0
308352,note_on,,,,,0,0,1,,,,,0,,,84,100
308352,note_off,,,,,1152,0,1,,,,,0,,,84,0
308544,note_off,,,,,192,0,1,,,,,0,,,84,0
308544,note_on,,,,,0,0,3,,,,,2,,,76,100
308544,note_on,,,,,0,0,1,,,,,0,,,85,100
308544,note_off,,,,,192,0,3,,,,,2,,,75,0
308544,note_off,,,,,192,0,2,,,,,1,,,81,0
308544,note_on,,,,,0,0,2,,,,,1,,,82,100
308736,note_off,,,,,192,0,2,,,,,1,,,82,0
308736,note_on,,,,,0,0,2,,,,,1,,,82,100
308736,note_off,,,,,192,0,3,,,,,2,,,76,0
308736,note_on,,,,,0,0,3,,,,,2,,,76,100
308736,note_on,,,,,0,0,1,,,,,0,,,85,100
308736,note_off,,,,,192,0,1,,,,,0,,,85,0
309120,note_on,,,,,0,0,4,,,,,3,,,66,100
309120,note_off,,,,,1152,0,4,,,,,3,,,67,0
309312,note_off,,,,,192,0,4,,,,,3,,,66,0
309312,note_on,,,,,0,0,4,,,,,3,,,67,100
309504,note_on,,,,,0,0,4,,,,,3,,,67,100
309504,note_off,,,,,192,0,4,,,,,3,,,67,0
309888,note_off,,,,,1152,0,3,,,,,2,,,76,0
309888,note_on,,,,,0,0,2,,,,,1,,,82,100
309888,note_off,,,,,1152,0,1,,,,,0,,,85,0
309888,note_on,,,,,0,0,1,,,,,0,,,85,100
309888,note_on,,,,,0,0,3,,,,,2,,,76,100
309888,note_off,,,,,1152,0,2,,,,,1,,,82,0
310080,note_on,,,,,0,0,2,,,,,1,,,83,100
310080,note_off,,,,,192,0,1,,,,,0,,,85,0
310080,note_on,,,,,0,0,1,,,,,0,,,86,100
310080,note_on,,,,,0,0,3,,,,,2,,,77,100
310080,note_off,,,,,192,0,3,,,,,2,,,76,0
310080,note_off,,,,,192,0,2,,,,,1,,,82,0
310272,note_on,,,,,0,0,2,,,,,1,,,83,100
310272,note_off,,,,,192,0,1,,,,,0,,,86,0
310272,note_on,,,,,0,0,1,,,,,0,,,86,100
310272,note_off,,,,,192,0,2,,,,,1,,,83,0
310272,note_on,,,,,0,0,3,,,,,2,,,77,100
310272,note_off,,,,,192,0,3,,,,,2,,,77,0
310656,note_on,,,,,0,0,4,,,,,3,,,67,100
310656,note_off,,,,,1152,0,4,,,,,3,,,67,0
310848,note_on,,,,,0,0,4,,,,,3,,,68,100
310848,note_off,,,,,192,0,4,,,,,3,,,67,0
311040,note_off,,,,,192,0,4,,,,,3,,,68,0
311040,note_on,,,,,0,0,4,,,,,3,,,68,100
311424,note_on,,,,,0,0,2,,,,,1,,,82,100
311424,note_on,,,,,0,0,3,,,,,2,,,76,100
311424,note_off,,,,,1152,0,3,,,,,2,,,77,0
311424,note_off,,,,,1152,0,1,,,,,0,,,86,0
311424,note_on,,,,,0,0,1,,,,,0,,,85,100
311424,note_off,,,,,1152,0,2,,,,,1,,,83,0
311616,note_off,,,,,192,0,3,,,,,2,,,76,0
311616,note_on,,,,,0,0,1,,,,,0,,,86,100
311616,note_off,,,,,192,0,1,,,,,0,,,85,0
311616,note_off,,,,,192,0,2,,,,,1,,,82,0
311616,note_on,,,,,0,0,2,,,,,1,,,83,100
311616,note_on,,,,,0,0,3,,,,,2,,,77,100
311808,note_on,,,,,0,0,1,,,,,0,,,86,100
311808,note_off,,,,,192,0,1,,,,,0,,,86,0
311808,note_on,,,,,0,0,3,,,,,2,,,77,100
311808,note_off,,,,,192,0,2,,,,,1,,,83,0
311808,note_off,,,,,192,0,3,,,,,2,,,77,0
311808,note_on,,,,,0,0,2,,,,,1,,,83,100
312192,note_off,,,,,1152,0,4,,,,,3,,,68,0
312192,note_on,,,,,0,0,4,,,,,3,,,67,100
312384,note_on,,,,,0,0,4,,,,,3,,,68,100
312384,note_off,,,,,192,0,4,,,,,3,,,67,0
312576,note_off,,,,,192,0,4,,,,,3,,,68,0
312576,note_on,,,,,0,0,4,,,,,3,,,68,100
312960,note_on,,,,,0,0,2,,,,,1,,,83,100
312960,note_on,,,,,0,0,1,,,,,0,,,85,100
312960,note_off,,,,,1152,0,3,,,,,2,,,77,0
312960,note_on,,,,,0,0,3,,,,,2,,,77,100
312960,note_off,,,,,1152,0,2,,,,,1,,,83,0
312960,note_off,,,,,1152,0,1,,,,,0,,,86,0
313152,note_off,,,,,192,0,3,,,,,2,,,77,0
313152,note_off,,,,,192,0,1,,,,,0,,,85,0
313152,note_on,,,,,0,0,3,,,,,2,,,78,100
313152,note_on,,,,,0,0,1,,,,,0,,,86,100
313344,note_on,,,,,0,0,1,,,,,0,,,86,100
313344,note_off,,,,,192,0,3,,,,,2,,,78,0
313344,note_on,,,,,0,0,3,,,,,2,,,78,100
313344,note_off,,,,,384,0,2,,,,,1,,,83,0
313344,note_on,,,,,0,0,2,,,,,1,,,83,100
313344,note_on,,,,,0,0,4,,,,,3,,,66,100
313344,note_off,,,,,768,0,4,,,,,3,,,68,0
313344,note_off,,,,,192,0,1,,,,,0,,,86,0
313536,note_off,,,,,192,0,2,,,,,1,,,83,0
313536,note_on,,,,,0,0,2,,,,,1,,,86,100
313536,note_off,,,,,192,0,1,,,,,0,,,86,0
313536,note_on,,,,,0,0,1,,,,,0,,,90,100
313728,note_off,,,,,384,0,3,,,,,2,,,78,0
313728,note_on,,,,,0,0,3,,,,,2,,,71,100
313728,note_on,,,,,0,0,3,,,,,2,,,62,100
313728,note_off,,,,,192,0,1,,,,,0,,,90,0
313728,note_on,,,,,0,0,1,,,,,0,,,90,100
313728,note_off,,,,,192,0,2,,,,,1,,,86,0
313728,note_on,,,,,0,0,4,,,,,3,,,54,100
313728,note_off,,,,,384,0,4,,,,,3,,,66,0
313728,note_on,,,,,0,0,2,,,,,1,,,86,100
313920,note_on,,,,,0,0,2,,,,,1,,,83,100
313920,note_off,,,,,192,0,2,,,,,1,,,86,0
313920,note_off,,,,,0,0,3,,,,,2,,,71,0
313920,note_off,,,,,192,0,4,,,,,3,,,54,0
313920,note_off,,,,,192,0,3,,,,,2,,,62,0
313920,note_on,,,,,0,0,1,,,,,0,,,86,100
313920,note_off,,,,,192,0,1,,,,,0,,,90,0
314112,note_on,,,,,192,0,4,,,,,3,,,54,100
314112,note_on,,,,,192,0,3,,,,,2,,,71,100
314112,note_on,,,,,0,0,3,,,,,2,,,62,100
314112,note_on,,,,,0,0,2,,,,,1,,,83,100
314112,note_off,,,,,192,0,2,,,,,1,,,83,0
314112,note_on,,,,,0,0,1,,,,,0,,,86,100
314112,note_off,,,,,192,0,1,,,,,0,,,86,0
314304,note_off,,,,,192,0,4,,,,,3,,,54,0
314304,note_off,,,,,192,0,1,,,,,0,,,86,0
314304,note_off,,,,,192,0,3,,,,,2,,,71,0
314304,note_off,,,,,0,0,3,,,,,2,,,62,0
314304,note_on,,,,,0,0,1,,,,,0,,,83,100
314304,note_off,,,,,192,0,2,,,,,1,,,83,0
314304,note_on,,,,,0,0,2,,,,,1,,,78,100
314496,note_on,,,,,0,0,3,,,,,2,,,62,100
314496,note_on,,,,,192,0,4,,,,,3,,,54,100
314496,note_off,,,,,192,0,2,,,,,1,,,78,0
314496,note_on,,,,,0,0,1,,,,,0,,,83,100
314496,note_off,,,,,192,0,1,,,,,0,,,83,0
314496,note_on,,,,,0,0,2,,,,,1,,,78,100
314496,note_on,,,,,192,0,3,,,,,2,,,71,100
314688,note_off,,,,,192,0,2,,,,,1,,,78,0
314688,note_on,,,,,0,0,2,,,,,1,,,74,100
314688,note_off,,,,,192,0,4,,,,,3,,,54,0
314688,note_on,,,,,0,0,1,,,,,0,,,78,100
314688,note_off,,,,,192,0,3,,,,,2,,,71,0
314688,note_off,,,,,0,0,3,,,,,2,,,62,0
314688,note_off,,,,,192,0,1,,,,,0,,,83,0
314880,note_on,,,,,192,0,4,,,,,3,,,54,100
314880,note_on,,,,,192,0,3,,,,,2,,,62,100
314880,note_on,,,,,0,0,3,,,,,2,,,71,100
314880,note_on,,,,,0,0,2,,,,,1,,,74,100
314880,note_off,,,,,192,0,2,,,,,1,,,74,0
314880,note_off,,,,,192,0,1,,,,,0,,,78,0
314880,note_on,,,,,0,0,1,,,,,0,,,78,100
315072,note_on,,,,,0,0,2,,,,,1,,,71,100
315072,note_off,,,,,192,0,2,,,,,1,,,74,0
315072,note_off,,,,,192,0,1,,,,,0,,,78,0
315072,note_off,,,,,192,0,4,,,,,3,,,54,0
315072,note_off,,,,,0,0,3,,,,,2,,,71,0
315072,note_off,,,,,192,0,3,,,,,2,,,62,0
315072,note_on,,,,,0,0,1,,,,,0,,,74,100
315264,note_on,,,,,0,0,3,,,,,2,,,62,100
315264,note_on,,,,,192,0,3,,,,,2,,,71,100
315264,note_on,,,,,192,0,4,,,,,3,,,54,100
315264,note_off,,,,,192,0,2,,,,,1,,,71,0
315264,note_on,,,,,0,0,2,,,,,1,,,71,100
315264,note_on,,,,,0,0,1,,,,,0,,,74,100
315264,note_off,,,,,192,0,1,,,,,0,,,74,0
315456,note_on,,,,,0,0,1,,,,,0,,,71,100
315456,note_off,,,,,192,0,1,,,,,0,,,74,0
315456,note_off,,,,,192,0,2,,,,,1,,,71,0
315456,note_on,,,,,0,0,2,,,,,1,,,66,100
315456,note_off,,,,,192,0,3,,,,,2,,,71,0
315456,note_off,,,,,192,0,4,,,,,3,,,54,0
315456,note_off,,,,,0,0,3,,,,,2,,,62,0
315648,note_on,,,,,192,0,3,,,,,2,,,71,100
315648,note_on,,,,,0,0,1,,,,,0,,,71,100
315648,note_off,,,,,192,0,1,,,,,0,,,71,0
315648,note_off,,,,,192,0,2,,,,,1,,,66,0
315648,note_on,,,,,0,0,2,,,,,1,,,66,100
315648,note_on,,,,,192,0,4,,,,,3,,,54,100
315648,note_on,,,,,0,0,3,,,,,2,,,62,100
315840,note_off,,,,,192,0,3,,,,,2,,,71,0
315840,note_off,,,,,0,0,3,,,,,2,,,62,0
315840,note_off,,,,,192,0,1,,,,,0,,,71,0
315840,note_on,,,,,0,0,1,,,,,0,,,66,100
315840,note_off,,,,,192,0,2,,,,,1,,,66,0
315840,note_off,,,,,192,0,4,,,,,3,,,54,0
315840,note_on,,,,,0,0,2,,,,,1,,,62,100
316032,note_on,,,,,192,0,4,,,,,3,,,54,100
316032,note_on,,,,,0,0,1,,,,,0,,,66,100
316032,note_on,,,,,192,0,3,,,,,2,,,62,100
316032,note_on,,,,,0,0,3,,,,,2,,,71,100
316032,note_off,,,,,192,0,1,,,,,0,,,66,0
316032,note_on,,,,,0,0,2,,,,,1,,,62,100
316032,note_off,,,,,192,0,2,,,,,1,,,62,0
316224,note_off,,,,,192,0,3,,,,,2,,,62,0
316224,note_on,,,,,0,0,2,,,,,1,,,59,100
316224,note_off,,,,,192,0,2,,,,,1,,,62,0
316224,note_off,,,,,0,0,3,,,,,2,,,71,0
316224,note_off,,,,,192,0,4,,,,,3,,,54,0
316224,note_on,,,,,0,0,1,,,,,0,,,62,100
316224,note_off,,,,,192,0,1,,,,,0,,,66,0
316416,note_on,,,,,192,0,3,,,,,2,,,61,100
316416,note_on,,,,,0,0,1,,,,,0,,,85,100
316416,note_off,,,,,192,0,1,,,,,0,,,62,0
316416,note_off,,,,,192,0,2,,,,,1,,,59,0
316416,note_on,,,,,0,0,2,,,,,1,,,82,100
316416,note_on,,,,,192,0,4,,,,,3,,,54,100
316416,note_on,,,,,0,0,3,,,,,2,,,64,100
316608,note_off,,,,,192,0,1,,,,,0,,,85,0
316608,note_on,,,,,0,0,1,,,,,0,,,88,100
316608,note_off,,,,,192,0,2,,,,,1,,,82,0
316608,note_off,,,,,192,0,4,,,,,3,,,54,0
316608,note_on,,,,,0,0,2,,,,,1,,,85,100
316608,note_off,,,,,192,0,3,,,,,2,,,61,0
316608,note_off,,,,,0,0,3,,,,,2,,,64,0
316800,note_on,,,,,192,0,3,,,,,2,,,61,100
316800,note_on,,,,,0,0,2,,,,,1,,,85,100
316800,note_on,,,,,192,0,4,,,,,3,,,54,100
316800,note_on,,,,,0,0,1,,,,,0,,,88,100
316800,note_off,,,,,192,0,1,,,,,0,,,88,0
316800,note_on,,,,,0,0,3,,,,,2,,,64,100
316800,note_off,,,,,192,0,2,,,,,1,,,85,0
316992,note_off,,,,,192,0,4,,,,,3,,,54,0
316992,note_on,,,,,0,0,2,,,,,1,,,82,100
316992,note_off,,,,,192,0,2,,,,,1,,,85,0
316992,note_off,,,,,192,0,3,,,,,2,,,61,0
316992,note_on,,,,,0,0,1,,,,,0,,,85,100
316992,note_off,,,,,0,0,3,,,,,2,,,64,0
316992,note_off,,,,,192,0,1,,,,,0,,,88,0
317184,note_off,,,,,192,0,1,,,,,0,,,85,0
317184,note_on,,,,,0,0,1,,,,,0,,,85,100
317184,note_on,,,,,192,0,4,,,,,3,,,54,100
317184,note_on,,,,,0,0,2,,,,,1,,,82,100
317184,note_off,,,,,192,0,2,,,,,1,,,82,0
317184,note_on,,,,,0,0,3,,,,,2,,,64,100
317184,note_on,,,,,192,0,3,,,,,2,,,61,100
317376,note_off,,,,,192,0,4,,,,,3,,,54,0
317376,note_on,,,,,0,0,2,,,,,1,,,79,100
317376,note_off,,,,,192,0,3,,,,,2,,,61,0
317376,note_off,,,,,0,0,3,,,,,2,,,64,0
317376,note_on,,,,,0,0,1,,,,,0,,,82,100
317376,note_off,,,,,192,0,2,,,,,1,,,82,0
317376,note_off,,,,,192,0,1,,,,,0,,,85,0
317568,note_on,,,,,192,0,3,,,,,2,,,61,100
317568,note_on,,,,,0,0,3,,,,,2,,,64,100
317568,note_on,,,,,0,0,1,,,,,0,,,82,100
317568,note_off,,,,,192,0,1,,,,,0,,,82,0
317568,note_off,,,,,192,0,2,,,,,1,,,79,0
317568,note_on,,,,,192,0,4,,,,,3,,,54,100
317568,note_on,,,,,0,0,2,,,,,1,,,79,100
317760,note_off,,,,,192,0,4,,,,,3,,,54,0
317760,note_off,,,,,192,0,3,,,,,2,,,61,0
317760,note_off,,,,,0,0,3,,,,,2,,,64,0
317760,note_off,,,,,192,0,2,,,,,1,,,79,0
317760,note_off,,,,,192,0,1,,,,,0,,,82,0
317760,note_on,,,,,0,0,2,,,,,1,,,76,100
317760,note_on,,,,,0,0,1,,,,,0,,,79,100
317952,note_on,,,,,0,0,1,,,,,0,,,79,100
317952,note_on,,,,,192,0,3,,,,,2,,,61,100
317952,note_on,,,,,0,0,3,,,,,2,,,64,100
317952,note_on,,,,,0,0,2,,,,,1,,,76,100
317952,note_on,,,,,192,0,4,,,,,3,,,54,100
317952,note_off,,,,,192,0,2,,,,,1,,,76,0
317952,note_off,,,,,192,0,1,,,,,0,,,79,0
318144,note_off,,,,,192,0,3,,,,,2,,,61,0
318144,note_off,,,,,0,0,3,,,,,2,,,64,0
318144,note_off,,,,,192,0,2,,,,,1,,,76,0
318144,note_off,,,,,192,0,4,,,,,3,,,54,0
318144,note_off,,,,,192,0,1,,,,,0,,,79,0
318144,note_on,,,,,0,0,1,,,,,0,,,76,100
318144,note_on,,,,,0,0,2,,,,,1,,,73,100
318336,note_on,,,,,0,0,3,,,,,2,,,61,100
318336,note_on,,,,,192,0,4,,,,,3,,,54,100
318336,note_off,,,,,192,0,1,,,,,0,,,76,0
318336,note_on,,,,,0,0,1,,,,,0,,,76,100
318336,note_on,,,,,0,0,2,,,,,1,,,73,100
318336,note_off,,,,,192,0,2,,,,,1,,,73,0
318336,note_on,,,,,192,0,3,,,,,2,,,64,100
318528,note_on,,,,,0,0,1,,,,,0,,,73,100
318528,note_on,,,,,0,0,2,,,,,1,,,70,100
318528,note_off,,,,,192,0,2,,,,,1,,,73,0
318528,note_off,,,,,192,0,4,,,,,3,,,54,0
318528,note_off,,,,,192,0,1,,,,,0,,,76,0
318528,note_off,,,,,192,0,3,,,,,2,,,64,0
318528,note_off,,,,,0,0,3,,,,,2,,,61,0
318720,note_on,,,,,192,0,3,,,,,2,,,64,100
318720,note_on,,,,,0,0,3,,,,,2,,,61,100
318720,note_on,,,,,0,0,1,,,,,0,,,73,100
318720,note_off,,,,,192,0,2,,,,,1,,,70,0
318720,note_on,,,,,0,0,2,,,,,1,,,70,100
318720,note_off,,,,,192,0,1,,,,,0,,,73,0
318720,note_on,,,,,192,0,4,,,,,3,,,54,100
318912,note_off,,,,,192,0,2,,,,,1,,,70,0
318912,note_on,,,,,0,0,1,,,,,0,,,70,100
318912,note_off,,,,,192,0,1,,,,,0,,,73,0
318912,note_on,,,,,0,0,2,,,,,1,,,67,100
318912,note_off,,,,,0,0,3,,,,,2,,,61,0
318912,note_off,,,,,192,0,3,,,,,2,,,64,0
318912,note_off,,,,,192,0,4,,,,,3,,,54,0
319104,note_off,,,,,192,0,1,,,,,0,,,70,0
319104,note_on,,,,,0,0,2,,,,,1,,,67,100
319104,note_on,,,,,0,0,1,,,,,0,,,70,100
319104,note_off,,,,,192,0,2,,,,,1,,,67,0
319104,note_on,,,,,0,0,3,,,,,2,,,70,100
319104,note_on,,,,,192,0,3,,,,,2,,,61,100
319104,note_on,,,,,192,0,4,,,,,3,,,54,100
319296,note_off,,,,,192,0,2,,,,,1,,,67,0
319296,note_on,,,,,0,0,2,,,,,1,,,64,100
319296,note_off,,,,,192,0,4,,,,,3,,,54,0
319296,note_on,,,,,0,0,1,,,,,0,,,73,100
319296,note_off,,,,,0,0,3,,,,,2,,,70,0
319296,note_off,,,,,192,0,3,,,,,2,,,61,0
319296,note_off,,,,,192,0,1,,,,,0,,,70,0
319488,note_off,,,,,192,0,1,,,,,0,,,73,0
319488,note_on,,,,,0,0,1,,,,,0,,,71,100
319488,note_off,,,,,192,0,2,,,,,1,,,64,0
319488,note_on,,,,,0,0,2,,,,,1,,,63,100
319488,note_on,,,,,192,0,3,,,,,2,,,71,100
319488,note_on,,,,,192,0,4,,,,,3,,,47,100
319680,note_on,,,,,0,0,2,,,,,1,,,69,100
319680,note_off,,,,,192,0,2,,,,,1,,,63,0
319680,note_off,,,,,192,0,1,,,,,0,,,71,0
319680,note_off,,,,,192,0,3,,,,,2,,,71,0
319680,note_on,,,,,0,0,3,,,,,2,,,66,100
319872,note_off,,,,,192,0,2,,,,,1,,,69,0
319872,note_on,,,,,0,0,2,,,,,1,,,66,100
319872,note_on,,,,,192,0,1,,,,,0,,,84,100
319872,note_off,,,,,192,0,3,,,,,2,,,66,0
319872,note_on,,,,,0,0,3,,,,,2,,,63,100
320064,note_on,,,,,0,0,3,,,,,2,,,66,100
320064,note_off,,,,,192,0,3,,,,,2,,,63,0
320064,note_off,,,,,192,0,1,,,,,0,,,84,0
320064,note_on,,,,,0,0,2,,,,,1,,,69,100
320064,note_off,,,,,192,0,2,,,,,1,,,66,0
320064,note_on,,,,,0,0,1,,,,,0,,,83,100
320256,note_on,,,,,0,0,2,,,,,1,,,66,100
320256,note_off,,,,,192,0,2,,,,,1,,,69,0
320256,note_on,,,,,0,0,1,,,,,0,,,83,100
320256,note_on,,,,,0,0,3,,,,,2,,,63,100
320256,note_off,,,,,192,0,3,,,,,2,,,66,0
320256,note_off,,,,,192,0,1,,,,,0,,,83,0
320448,note_on,,,,,0,0,3,,,,,2,,,66,100
320448,note_off,,,,,192,0,2,,,,,1,,,66,0
320448,note_on,,,,,0,0,2,,,,,1,,,69,100
320448,note_off,,,,,192,0,3,,,,,2,,,63,0
320640,note_off,,,,,192,0,3,,,,,2,,,66,0
320640,note_off,,,,,192,0,2,,,,,1,,,69,0
320640,note_on,,,,,0,0,3,,,,,2,,,63,100
320640,note_on,,,,,0,0,2,,,,,1,,,66,100
320640,note_on,,,,,0,0,4,,,,,3,,,58,100
320640,note_off,,,,,1152,0,4,,,,,3,,,47,0
320832,note_off,,,,,192,0,4,,,,,3,,,58,0
320832,note_on,,,,,0,0,4,,,,,3,,,59,100
320832,note_off,,,,,192,0,3,,,,,2,,,63,0
320832,note_on,,,,,0,0,3,,,,,2,,,66,100
320832,note_on,,,,,0,0,2,,,,,1,,,69,100
320832,note_off,,,,,192,0,2,,,,,1,,,66,0
321024,note_off,,,,,192,0,2,,,,,1,,,69,0
321024,note_off,,,,,192,0,4,,,,,3,,,59,0
321024,note_on,,,,,0,0,4,,,,,3,,,59,100
321024,note_on,,,,,0,0,3,,,,,2,,,63,100
321024,note_off,,,,,192,0,3,,,,,2,,,66,0
321024,note_on,,,,,0,0,2,,,,,1,,,66,100
321216,note_off,,,,,192,0,3,,,,,2,,,63,0
321216,note_on,,,,,0,0,3,,,,,2,,,66,100
321216,note_on,,,,,0,0,2,,,,,1,,,69,100
321216,note_off,,,,,192,0,2,,,,,1,,,66,0
321408,note_off,,,,,192,0,2,,,,,1,,,69,0
321408,note_off,,,,,1152,0,1,,,,,0,,,83,0
321408,note_off,,,,,192,0,3,,,,,2,,,66,0
321408,note_on,,,,,0,0,1,,,,,0,,,84,100
321408,note_on,,,,,0,0,2,,,,,1,,,66,100
321408,note_on,,,,,0,0,3,,,,,2,,,63,100
321600,note_off,,,,,192,0,2,,,,,1,,,66,0
321600,note_on,,,,,0,0,3,,,,,2,,,66,100
321600,note_on,,,,,0,0,2,,,,,1,,,69,100
321600,note_on,,,,,0,0,1,,,,,0,,,83,100
321600,note_off,,,,,192,0,1,,,,,0,,,84,0
321600,note_off,,,,,192,0,3,,,,,2,,,63,0
321792,note_off,,,,,192,0,3,,,,,2,,,66,0
321792,note_on,,,,,0,0,3,,,,,2,,,63,100
321792,note_on,,,,,0,0,2,,,,,1,,,66,100
321792,note_off,,,,,192,0,2,,,,,1,,,69,0
321792,note_on,,,,,0,0,1,,,,,0,,,83,100
321792,note_off,,,,,192,0,1,,,,,0,,,83,0
321984,note_off,,,,,192,0,2,,,,,1,,,66,0
321984,note_on,,,,,0,0,2,,,,,1,,,69,100
321984,note_on,,,,,0,0,3,,,,,2,,,66,100
321984,note_off,,,,,192,0,3,,,,,2,,,63,0
322176,note_on,,,,,0,0,2,,,,,1,,,66,100
322176,note_on,,,,,0,0,4,,,,,3,,,46,100
322176,note_off,,,,,1152,0,4,,,,,3,,,59,0
322176,note_on,,,,,0,0,3,,,,,2,,,63,100
322176,note_off,,,,,192,0,3,,,,,2,,,66,0
322176,note_off,,,,,192,0,2,,,,,1,,,69,0
322368,note_on,,,,,0,0,4,,,,,3,,,47,100
322368,note_off,,,,,192,0,4,,,,,3,,,46,0
322368,note_on,,,,,0,0,3,,,,,2,,,66,100
322368,note_off,,,,,192,0,3,,,,,2,,,63,0
322368,note_off,,,,,192,0,2,,,,,1,,,66,0
322368,note_on,,,,,0,0,2,,,,,1,,,69,100
322560,note_on,,,,,0,0,4,,,,,3,,,47,100
322560,note_off,,,,,192,0,4,,,,,3,,,47,0
322560,note_on,,,,,0,0,3,,,,,2,,,63,100
322560,note_off,,,,,192,0,3,,,,,2,,,66,0
322560,note_on,,,,,0,0,2,,,,,1,,,66,100
322560,note_off,,,,,192,0,2,,,,,1,,,69,0
322752,note_off,,,,,192,0,2,,,,,1,,,66,0
322752,note_on,,,,,0,0,2,,,,,1,,,69,100
322752,note_off,,,,,192,0,3,,,,,2,,,63,0
322752,note_on,,,,,0,0,3,,,,,2,,,66,100
322944,note_off,,,,,1152,0,1,,,,,0,,,83,0
322944,note_off,,,,,192,0,2,,,,,1,,,69,0
322944,note_on,,,,,0,0,2,,,,,1,,,66,100
322944,note_on,,,,,0,0,1,,,,,0,,,83,100
322944,note_on,,,,,0,0,3,,,,,2,,,63,100
322944,note_off,,,,,192,0,3,,,,,2,,,66,0
323136,note_on,,,,,0,0,3,,,,,2,,,66,100
323136,note_off,,,,,192,0,3,,,,,2,,,63,0
323136,note_off,,,,,192,0,1,,,,,0,,,83,0
323136,note_on,,,,,0,0,1,,,,,0,,,81,100
323136,note_on,,,,,0,0,2,,,,,1,,,69,100
323136,note_off,,,,,192,0,2,,,,,1,,,66,0
323328,note_off,,,,,192,0,3,,,,,2,,,66,0
323328,note_on,,,,,0,0,1,,,,,0,,,81,100
323328,note_off,,,,,192,0,1,,,,,0,,,81,0
323328,note_off,,,,,192,0,2,,,,,1,,,69,0
323328,note_on,,,,,0,0,2,,,,,1,,,66,100
323328,note_on,,,,,0,0,3,,,,,2,,,63,100
323520,note_on,,,,,0,0,2,,,,,1,,,69,100
323520,note_off,,,,,192,0,2,,,,,1,,,66,0
323520,note_on,,,,,0,0,3,,,,,2,,,66,100
323520,note_off,,,,,192,0,3,,,,,2,,,63,0
323712,note_on,,,,,0,0,3,,,,,2,,,63,100
323712,note_on,,,,,0,0,4,,,,,3,,,46,100
323712,note_off,,,,,192,0,2,,,,,1,,,69,0
323712,note_on,,,,,0,0,2,,,,,1,,,66,100
323712,note_off,,,,,1152,0,4,,,,,3,,,47,0
323712,note_off,,,,,192,0,3,,,,,2,,,66,0
323904,note_on,,,,,0,0,2,,,,,1,,,69,100
323904,note_off,,,,,192,0,4,,,,,3,,,46,0
323904,note_off,,,,,192,0,3,,,,,2,,,63,0
323904,note_on,,,,,0,0,3,,,,,2,,,66,100
323904,note_off,,,,,192,0,2,,,,,1,,,66,0
323904,note_on,,,,,0,0,4,,,,,3,,,47,100
324096,note_on,,,,,0,0,2,,,,,1,,,66,100
324096,note_on,,,,,0,0,3,,,,,2,,,63,100
324096,note_off,,,,,192,0,2,,,,,1,,,69,0
324096,note_off,,,,,192,0,3,,,,,2,,,66,0
324096,note_on,,,,,0,0,4,,,,,3,,,47,100
324096,note_off,,,,,192,0,4,,,,,3,,,47,0
324288,note_on,,,,,0,0,3,,,,,2,,,66,100
324288,note_off,,,,,192,0,3,,,,,2,,,63,0
324288,note_on,,,,,0,0,2,,,,,1,,,69,100
324288,note_off,,,,,192,0,2,,,,,1,,,66,0
324480,note_on,,,,,0,0,3,,,,,2,,,63,100
324480,note_off,,,,,192,0,3,,,,,2,,,66,0
324480,note_off,,,,,1152,0,1,,,,,0,,,81,0
324480,note_on,,,,,0,0,1,,,,,0,,,83,100
324480,note_off,,,,,192,0,2,,,,,1,,,69,0
324480,note_on,,,,,0,0,2,,,,,1,,,66,100
324672,note_on,,,,,0,0,1,,,,,0,,,81,100
324672,note_on,,,,,0,0,3,,,,,2,,,66,100
324672,note_off,,,,,192,0,3,,,,,2,,,63,0
324672,note_off,,,,,192,0,2,,,,,1,,,66,0
324672,note_off,,,,,192,0,1,,,,,0,,,83,0
324672,note_on,,,,,0,0,2,,,,,1,,,69,100
324864,note_on,,,,,0,0,2,,,,,1,,,66,100
324864,note_off,,,,,192,0,2,,,,,1,,,69,0
324864,note_off,,,,,192,0,3,,,,,2,,,66,0
324864,note_on,,,,,0,0,3,,,,,2,,,63,100
324864,note_off,,,,,192,0,1,,,,,0,,,81,0
324864,note_on,,,,,0,0,1,,,,,0,,,81,100
325056,note_off,,,,,192,0,2,,,,,1,,,66,0
325056,note_on,,,,,0,0,2,,,,,1,,,69,100
325056,note_off,,,,,192,0,3,,,,,2,,,63,0
325056,note_on,,,,,0,0,3,,,,,2,,,66,100
325248,note_off,,,,,192,0,3,,,,,2,,,66,0
325248,note_on,,,,,0,0,3,,,,,2,,,63,100
325248,note_off,,,,,192,0,2,,,,,1,,,69,0
325248,note_on,,,,,0,0,2,,,,,1,,,66,100
325248,note_on,,,,,0,0,4,,,,,3,,,46,100
325248,note_off,,,,,1152,0,4,,,,,3,,,47,0
325440,note_off,,,,,192,0,3,,,,,2,,,63,0
325440,note_on,,,,,0,0,4,,,,,3,,,47,100
325440,note_off,,,,,192,0,4,,,,,3,,,46,0
325440,note_off,,,,,192,0,2,,,,,1,,,66,0
325440,note_on,,,,,0,0,2,,,,,1,,,69,100
325440,note_on,,,,,0,0,3,,,,,2,,,66,100
325632,note_on,,,,,0,0,3,,,,,2,,,54,100
325632,note_off,,,,,192,0,3,,,,,2,,,66,0
325632,note_on,,,,,0,0,4,,,,,3,,,47,100
325632,note_off,,,,,192,0,4,,,,,3,,,47,0
325632,note_off,,,,,192,0,2,,,,,1,,,69,0
325632,note_on,,,,,0,0,2,,,,,1,,,63,100
325824,note_off,,,,,192,0,3,,,,,2,,,54,0
325824,note_on,,,,,0,0,3,,,,,2,,,57,100
325824,note_on,,,,,0,0,2,,,,,1,,,66,100
325824,note_off,,,,,192,0,2,,,,,1,,,63,0
326016,note_on,,,,,0,0,2,,,,,1,,,63,100
326016,note_off,,,,,1152,0,1,,,,,0,,,81,0
326016,note_on,,,,,0,0,1,,,,,0,,,78,100
326016,note_on,,,,,0,0,3,,,,,2,,,54,100
326016,note_off,,,,,192,0,3,,,,,2,,,57,0
326016,note_off,,,,,192,0,2,,,,,1,,,66,0
326208,note_on,,,,,0,0,2,,,,,1,,,66,100
326208,note_off,,,,,192,0,2,,,,,1,,,63,0
326208,note_on,,,,,0,0,3,,,,,2,,,57,100
326208,note_off,,,,,192,0,3,,,,,2,,,54,0
326400,note_on,,,,,0,0,3,,,,,2,,,54,100
326400,note_off,,,,,192,0,3,,,,,2,,,57,0
326400,note_off,,,,,192,0,2,,,,,1,,,66,0
326400,note_on,,,,,0,0,1,,,,,0,,,75,100
326400,note_off,,,,,384,0,1,,,,,0,,,78,0
326400,note_on,,,,,0,0,2,,,,,1,,,63,100
326592,note_on,,,,,0,0,2,,,,,1,,,66,100
326592,note_off,,,,,192,0,3,,,,,2,,,54,0
326592,note_on,,,,,0,0,3,,,,,2,,,57,100
326592,note_off,,,,,192,0,2,,,,,1,,,63,0
326784,note_off,,,,,192,0,2,,,,,1,,,66,0
326784,note_on,,,,,0,0,2,,,,,1,,,63,100
326784,note_on,,,,,0,0,3,,,,,2,,,54,100
326784,note_off,,,,,192,0,3,,,,,2,,,57,0
326784,note_off,,,,,384,0,1,,,,,0,,,75,0
326784,note_on,,,,,0,0,1,,,,,0,,,71,100
326976,note_on,,,,,0,0,3,,,,,2,,,57,100
326976,note_on,,,,,0,0,2,,,,,1,,,66,100
326976,note_off,,,,,192,0,3,,,,,2,,,54,0
326976,note_off,,,,,192,0,2,,,,,1,,,63,0
327168,note_off,,,,,192,0,2,,,,,1,,,66,0
327168,note_on,,,,,0,0,2,,,,,1,,,63,100
327168,note_off,,,,,192,0,3,,,,,2,,,57,0
327168,note_on,,,,,0,0,3,,,,,2,,,54,100
327168,note_on,,,,,0,0,1,,,,,0,,,69,100
327168,note_off,,,,,384,0,1,,,,,0,,,71,0
327360,note_off,,,,,192,0,3,,,,,2,,,54,0
327360,note_on,,,,,0,0,2,,,,,1,,,66,100
327360,note_off,,,,,192,0,2,,,,,1,,,63,0
327360,note_on,,,,,0,0,3,,,,,2,,,57,100
327552,note_off,,,,,192,0,3,,,,,2,,,57,0
327552,note_on,,,,,0,0,3,,,,,2,,,54,100
327552,note_on,,,,,0,0,2,,,,,1,,,63,100
327552,note_off,,,,,192,0,2,,,,,1,,,66,0
327552,note_off,,,,,384,0,1,,,,,0,,,69,0
327552,note_on,,,,,0,0,1,,,,,0,,,66,100
327744,note_on,,,,,0,0,3,,,,,2,,,57,100
327744,note_off,,,,,192,0,3,,,,,2,,,54,0
327744,note_on,,,,,0,0,2,,,,,1,,,66,100
327744,note_off,,,,,192,0,2,,,,,1,,,63,0
327936,note_on,,,,,0,0,2,,,,,1,,,63,100
327936,note_off,,,,,192,0,3,,,,,2,,,57,0
327936,note_off,,,,,384,0,1,,,,,0,,,66,0
327936,note_on,,,,,0,0,1,,,,,0,,,63,100
327936,note_off,,,,,192,0,2,,,,,1,,,66,0
327936,note_on,,,,,0,0,3,,,,,2,,,54,100
328128,note_off,,,,,192,0,2,,,,,1,,,63,0
328128,note_on,,,,,0,0,2,,,,,1,,,66,100
328128,note_off,,,,,192,0,3,,,,,2,,,54,0
328128,note_on,,,,,0,0,3,,,,,2,,,57,100
328320,note_on,,,,,0,0,2,,,,,1,,,63,100
328320,note_off,,,,,192,0,2,,,,,1,,,66,0
328320,note_on,,,,,0,0,1,,,,,0,,,59,100
328320,note_off,,,,,192,0,3,,,,,2,,,57,0
328320,note_on,,,,,0,0,3,,,,,2,,,54,100
328320,note_off,,,,,384,0,1,,,,,0,,,63,0
328512,note_on,,,,,0,0,2,,,,,1,,,66,100
328512,note_off,,,,,192,0,2,,,,,1,,,63,0
328512,note_on,,,,,0,0,3,,,,,2,,,57,100
328512,note_off,,,,,192,0,3,,,,,2,,,54,0
328704,note_off,,,,,384,0,1,,,,,0,,,59,0
328704,note_off,,,,,192,0,2,,,,,1,,,66,0
328704,note_off,,,,,3072,0,4,,,,,3,,,47,0
328704,note_on,,,,,0,0,4,,,,,3,,,52,100
328704,note_on,,,,,0,0,3,,,,,2,,,56,100
328704,note_on,,,,,0,0,3,,,,,2,,,59,100
328704,note_on,,,,,0,0,2,,,,,1,,,56,100
328704,note_on,,,,,0,0,2,,,,,1,,,64,100
328704,note_on,,,,,0,0,1,,,,,0,,,64,100
328704,note_off,,,,,192,0,3,,,,,2,,,57,0
329376,note_off,,,,,672,0,1,,,,,0,,,64,0
329376,note_on,,,,,0,0,1,,,,,0,,,76,100
329472,note_off,,,,,768,0,3,,,,,2,,,56,0
329472,note_off,,,,,0,0,2,,,,,1,,,56,0
329472,note_off,,,,,0,0,3,,,,,2,,,59,0
329472,note_on,,,,,0,0,3,,,,,2,,,56,100
329472,note_on,,,,,0,0,3,,,,,2,,,64,100
329472,note_on,,,,,0,0,2,,,,,1,,,59,100
329472,note_on,,,,,0,0,2,,,,,1,,,68,100
329472,note_on,,,,,0,0,1,,,,,0,,,76,100
329472,note_off,,,,,768,0,2,,,,,1,,,64,0
329472,note_off,,,,,96,0,1,,,,,0,,,76,0
329472,note_off,,,,,768,0,4,,,,,3,,,52,0
329472,note_on,,,,,0,0,4,,,,,3,,,52,100
330144,note_off,,,,,672,0,1,,,,,0,,,76,0
330144,note_on,,,,,0,0,1,,,,,0,,,88,100
330240,note_off,,,,,768,0,4,,,,,3,,,52,0
330240,note_on,,,,,0,0,3,,,,,2,,,64,100
330240,note_on,,,,,0,0,3,,,,,2,,,61,100
330240,note_off,,,,,0,0,3,,,,,2,,,56,0
330240,note_on,,,,,0,0,2,,,,,1,,,76,100
330240,note_off,,,,,768,0,3,,,,,2,,,64,0
330240,note_on,,,,,0,0,1,,,,,0,,,88,100
330240,note_on,,,,,0,0,2,,,,,1,,,68,100
330240,note_off,,,,,0,0,2,,,,,1,,,59,0
330240,note_off,,,,,768,0,2,,,,,1,,,68,0
330240,note_on,,,,,0,0,4,,,,,3,,,49,100
330240,note_off,,,,,96,0,1,,,,,0,,,88,0
330432,note_off,,,,,0,0,3,,,,,2,,,64,0
330432,note_off,,,,,192,0,3,,,,,2,,,61,0
330432,note_off,,,,,0,0,2,,,,,1,,,68,0
330432,note_off,,,,,192,0,4,,,,,3,,,49,0
330432,note_off,,,,,192,0,1,,,,,0,,,88,0
330432,note_off,,,,,192,0,2,,,,,1,,,76,0
330624,note_on,,,,,192,0,3,,,,,2,,,61,100
330624,note_on,,,,,192,0,2,,,,,1,,,76,100
330624,note_on,,,,,0,0,2,,,,,1,,,68,100
330624,note_on,,,,,192,0,4,,,,,3,,,49,100
330624,note_on,,,,,192,0,1,,,,,0,,,76,100
330624,note_on,,,,,0,0,3,,,,,2,,,64,100
330816,note_off,,,,,0,0,2,,,,,1,,,68,0
330816,note_off,,,,,192,0,2,,,,,1,,,76,0
330816,note_off,,,,,0,0,3,,,,,2,,,64,0
330816,note_off,,,,,192,0,4,,,,,3,,,49,0
330816,note_off,,,,,192,0,3,,,,,2,,,61,0
330816,note_off,,,,,192,0,1,,,,,0,,,76,0
331776,note_on,,,,,960,0,3,,,,,2,,,59,100
331776,note_on,,,,,960,0,1,,,,,0,,,66,100
331776,note_on,,,,,960,0,4,,,,,3,,,47,100
331776,note_on,,,,,960,0,2,,,,,1,,,63,100
332544,note_off,,,,,768,0,2,,,,,1,,,63,0
332544,note_off,,,,,768,0,4,,,,,3,,,47,0
332544,note_on,,,,,0,0,4,,,,,3,,,44,100
332544,note_off,,,,,768,0,1,,,,,0,,,66,0
332544,note_on,,,,,0,0,1,,,,,0,,,68,100
332544,note_on,,,,,0,0,2,,,,,1,,,65,100
333312,note_off,,,,,768,0,4,,,,,3,,,44,0
333312,note_on,,,,,0,0,4,,,,,3,,,42,100
333312,note_off,,,,,768,0,1,,,,,0,,,68,0
333312,note_on,,,,,0,0,1,,,,,0,,,71,100
333312,note_off,,,,,768,0,2,,,,,1,,,65,0
333312,note_off,,,,,1536,0,3,,,,,2,,,59,0
333312,note_on,,,,,0,0,3,,,,,2,,,61,100
333312,note_on,,,,,0,0,2,,,,,1,,,66,100
333696,note_off,,,,,384,0,1,,,,,0,,,71,0
333696,note_on,,,,,0,0,1,,,,,0,,,69,100
334464,note_off,,,,,1152,0,3,,,,,2,,,61,0
334464,note_on,,,,,0,0,3,,,,,2,,,57,100
334464,note_off,,,,,1152,0,4,,,,,3,,,42,0
334464,note_on,,,,,0,0,2,,,,,1,,,61,100
334464,note_off,,,,,768,0,1,,,,,0,,,69,0
334464,note_on,,,,,0,0,1,,,,,0,,,66,100
334464,note_off,,,,,1152,0,2,,,,,1,,,66,0
334464,note_on,,,,,0,0,4,,,,,3,,,45,100
334848,note_on,,,,,0,0,3,,,,,2,,,54,100
334848,note_off,,,,,384,0,4,,,,,3,,,45,0
334848,note_on,,,,,0,0,1,,,,,0,,,64,100
334848,note_off,,,,,384,0,1,,,,,0,,,66,0
334848,note_on,,,,,0,0,2,,,,,1,,,57,100
334848,note_off,,,,,384,0,2,,,,,1,,,61,0
334848,note_on,,,,,0,0,4,,,,,3,,,47,100
334848,note_off,,,,,384,0,3,,,,,2,,,57,0
335232,note_on,,,,,0,0,1,,,,,0,,,63,100
335232,note_off,,,,,384,0,1,,,,,0,,,64,0
335616,note_on,,,,,0,0,1,,,,,0,,,61,100
335616,note_off,,,,,384,0,1,,,,,0,,,63,0
336000,note_on,,,,,0,0,1,,,,,0,,,59,100
336000,note_off,,,,,384,0,1,,,,,0,,,61,0
336384,note_off,,,,,384,0,1,,,,,0,,,59,0
336384,note_on,,,,,0,0,1,,,,,0,,,58,100
336768,note_off,,,,,384,0,1,,,,,0,,,58,0
336768,note_on,,,,,0,0,1,,,,,0,,,59,100
337152,note_on,,,,,0,0,1,,,,,0,,,61,100
337152,note_off,,,,,384,0,1,,,,,0,,,59,0
337536,note_on,,,,,0,0,1,,,,,0,,,63,100
337536,note_off,,,,,384,0,1,,,,,0,,,61,0
337920,note_on,,,,,0,0,1,,,,,0,,,64,100
337920,note_off,,,,,384,0,1,,,,,0,,,63,0
337920,note_on,,,,,0,0,4,,,,,3,,,52,100
337920,note_off,,,,,3072,0,4,,,,,3,,,47,0
337920,note_on,,,,,0,0,2,,,,,1,,,56,100
337920,note_on,,,,,0,0,3,,,,,2,,,59,100
337920,note_on,,,,,0,0,3,,,,,2,,,56,100
337920,note_off,,,,,3072,0,3,,,,,2,,,54,0
337920,note_off,,,,,3072,0,2,,,,,1,,,57,0
337920,note_on,,,,,0,0,2,,,,,1,,,64,100
338592,note_on,,,,,0,0,1,,,,,0,,,76,100
338592,note_off,,,,,672,0,1,,,,,0,,,64,0
338688,note_off,,,,,0,0,2,,,,,1,,,56,0
338688,note_on,,,,,0,0,1,,,,,0,,,76,100
338688,note_off,,,,,96,0,1,,,,,0,,,76,0
338688,note_on,,,,,0,0,2,,,,,1,,,64,100
338688,note_on,,,,,0,0,2,,,,,1,,,73,100
338688,note_on,,,,,0,0,3,,,,,2,,,64,100
338688,note_on,,,,,0,0,3,,,,,2,,,56,100
338688,note_on,,,,,0,0,4,,,,,3,,,49,100
338688,note_off,,,,,768,0,4,,,,,3,,,52,0
338688,note_off,,,,,768,0,2,,,,,1,,,64,0
338688,note_off,,,,,768,0,3,,,,,2,,,56,0
338688,note_off,,,,,0,0,3,,,,,2,,,59,0
339360,note_off,,,,,672,0,1,,,,,0,,,76,0
339360,note_on,,,,,0,0,1,,,,,0,,,88,100
339456,note_off,,,,,0,0,2,,,,,1,,,73,0
339456,note_on,,,,,0,0,2,,,,,1,,,64,100
339456,note_on,,,,,0,0,2,,,,,1,,,73,100
339456,note_off,,,,,768,0,3,,,,,2,,,64,0
339456,note_off,,,,,768,0,2,,,,,1,,,64,0
339456,note_on,,,,,0,0,3,,,,,2,,,57,100
339456,note_off,,,,,768,0,4,,,,,3,,,49,0
339456,note_on,,,,,0,0,4,,,,,3,,,45,100
339456,note_off,,,,,0,0,3,,,,,2,,,56,0
339456,note_on,,,,,0,0,3,,,,,2,,,64,100
339456,note_on,,,,,0,0,1,,,,,0,,,88,100
339456,note_off,,,,,96,0,1,,,,,0,,,88,0
339648,note_off,,,,,192,0,4,,,,,3,,,45,0
339648,note_off,,,,,192,0,1,,,,,0,,,88,0
339648,note_off,,,,,192,0,2,,,,,1,,,64,0
339648,note_off,,,,,0,0,2,,,,,1,,,73,0
339648,note_off,,,,,0,0,3,,,,,2,,,57,0
339648,note_off,,,,,192,0,3,,,,,2,,,64,0
339840,note_on,,,,,192,0,4,,,,,3,,,45,100
339840,note_on,,,,,192,0,1,,,,,0,,,76,100
339840,note_on,,,,,192,0,2,,,,,1,,,73,100
339840,note_on,,,,,0,0,2,,,,,1,,,64,100
339840,note_on,,,,,0,0,3,,,,,2,,,57,100
339840,note_on,,,,,192,0,3,,,,,2,,,64,100
340032,note_off,,,,,192,0,1,,,,,0,,,76,0
340032,note_off,,,,,0,0,2,,,,,1,,,64,0
340032,note_off,,,,,192,0,3,,,,,2,,,64,0
340032,note_off,,,,,0,0,3,,,,,2,,,57,0
340032,note_off,,,,,192,0,2,,,,,1,,,73,0
340032,note_off,,,,,192,0,4,,,,,3,,,45,0
340992,note_on,,,,,960,0,1,,,,,0,,,66,100
340992,note_on,,,,,960,0,4,,,,,3,,,45,100
340992,note_on,,,,,960,0,2,,,,,1,,,63,100
340992,note_on,,,,,960,0,3,,,,,2,,,59,100
341760,note_off,,,,,768,0,2,,,,,1,,,63,0
341760,note_off,,,,,768,0,4,,,,,3,,,45,0
341760,note_on,,,,,0,0,4,,,,,3,,,44,100
341760,note_off,,,,,768,0,1,,,,,0,,,66,0
341760,note_on,,,,,0,0,1,,,,,0,,,68,100
341760,note_on,,,,,0,0,2,,,,,1,,,64,100
342528,note_off,,,,,768,0,2,,,,,1,,,64,0
342528,note_on,,,,,0,0,2,,,,,1,,,66,100
342528,note_off,,,,,768,0,1,,,,,0,,,68,0
342528,note_off,,,,,768,0,4,,,,,3,,,44,0
342528,note_on,,,,,0,0,4,,,,,3,,,42,100
342528,note_on,,,,,0,0,1,,,,,0,,,71,100
342528,note_on,,,,,0,0,3,,,,,2,,,61,100
342528,note_off,,,,,1536,0,3,,,,,2,,,59,0
342912,note_on,,,,,0,0,1,,,,,0,,,69,100
342912,note_off,,,,,384,0,1,,,,,0,,,71,0
343296,note_off,,,,,768,0,3,,,,,2,,,61,0
343296,note_on,,,,,0,0,3,,,,,2,,,59,100
343296,note_on,,,,,0,0,4,,,,,3,,,47,100
343296,note_off,,,,,768,0,4,,,,,3,,,42,0
343296,note_off,,,,,768,0,2,,,,,1,,,66,0
343296,note_on,,,,,0,0,2,,,,,1,,,63,100
343680,note_off,,,,,768,0,1,,,,,0,,,69,0
343680,note_off,,,,,384,0,4,,,,,3,,,47,0
343680,note_on,,,,,0,0,1,,,,,0,,,66,100
343680,note_on,,,,,0,0,4,,,,,3,,,45,100
344064,note_off,,,,,768,0,3,,,,,2,,,59,0
344064,note_on,,,,,0,0,3,,,,,2,,,59,100
344064,note_on,,,,,0,0,2,,,,,1,,,64,100
344064,note_off,,,,,768,0,2,,,,,1,,,63,0
344064,note_on,,,,,0,0,4,,,,,3,,,44,100
344064,note_off,,,,,384,0,1,,,,,0,,,66,0
344064,note_on,,,,,0,0,1,,,,,0,,,73,100
344064,note_off,,,,,384,0,4,,,,,3,,,45,0
344448,note_on,,,,,0,0,1,,,,,0,,,71,100
344448,note_off,,,,,384,0,1,,,,,0,,,73,0
344832,note_on,,,,,0,0,4,,,,,3,,,49,100
344832,note_off,,,,,768,0,4,,,,,3,,,44,0
344832,note_off,,,,,768,0,3,,,,,2,,,59,0
344832,note_off,,,,,768,0,2,,,,,1,,,64,0
344832,note_on,,,,,0,0,2,,,,,1,,,65,100
344832,note_on,,,,,0,0,3,,,,,2,,,61,100
345216,note_off,,,,,384,0,4,,,,,3,,,49,0
345216,note_on,,,,,0,0,1,,,,,0,,,68,100
345216,note_off,,,,,768,0,1,,,,,0,,,71,0
345216,note_on,,,,,0,0,4,,,,,3,,,47,100
345600,note_on,,,,,0,0,3,,,,,2,,,61,100
345600,note_off,,,,,768,0,3,,,,,2,,,61,0
345600,note_off,,,,,768,0,2,,,,,1,,,65,0
345600,note_on,,,,,0,0,1,,,,,0,,,74,100
345600,note_on,,,,,0,0,2,,,,,1,,,66,100
345600,note_off,,,,,384,0,4,,,,,3,,,47,0
345600,note_on,,,,,0,0,4,,,,,3,,,45,100
345600,note_off,,,,,384,0,1,,,,,0,,,68,0
345984,note_on,,,,,0,0,1,,,,,0,,,73,100
345984,note_off,,,,,384,0,1,,,,,0,,,74,0
346368,note_off,,,,,384,0,1,,,,,0,,,73,0
346368,note_on,,,,,0,0,1,,,,,0,,,80,100
346560,note_off,,,,,192,0,1,,,,,0,,,80,0
346560,note_on,,,,,0,0,1,,,,,0,,,78,100
346752,note_off,,,,,192,0,1,,,,,0,,,78,0
346752,note_on,,,,,0,0,1,,,,,0,,,76,100
346752,note_on,,,,,0,0,3,,,,,2,,,60,100
346752,note_off,,,,,1152,0,3,,,,,2,,,61,0
347136,note_on,,,,,0,0,3,,,,,2,,,66,100
347136,note_on,,,,,0,0,3,,,,,2,,,59,100
347136,note_off,,,,,384,0,3,,,,,2,,,60,0
347136,note_off,,,,,1536,0,2,,,,,1,,,66,0
347136,note_on,,,,,0,0,2,,,,,1,,,71,100
347136,note_on,,,,,0,0,2,,,,,1,,,63,100
347136,note_on,,,,,0,0,4,,,,,3,,,57,100
347136,note_on,,,,,0,0,1,,,,,0,,,75,100
347136,note_off,,,,,384,0,1,,,,,0,,,76,0
347136,note_off,,,,,1536,0,4,,,,,3,,,45,0
347712,note_on,,,,,0,0,1,,,,,0,,,78,100
347712,note_off,,,,,576,0,1,,,,,0,,,75,0
347904,note_on,,,,,0,0,1,,,,,0,,,83,100
347904,note_off,,,,,192,0,1,,,,,0,,,78,0
348288,note_on,,,,,0,0,1,,,,,0,,,87,100
348288,note_off,,,,,384,0,1,,,,,0,,,83,0
348480,note_off,,,,,192,0,1,,,,,0,,,87,0
348480,note_on,,,,,0,0,1,,,,,0,,,90,100
348672,note_on,,,,,0,0,1,,,,,0,,,95,100
348672,note_off,,,,,192,0,1,,,,,0,,,90,0
348864,note_off,,,,,192,0,1,,,,,0,,,95,0
349056,note_off,,,,,1920,0,2,,,,,1,,,63,0
349056,note_off,,,,,1920,0,3,,,,,2,,,59,0
349056,note_off,,,,,0,0,3,,,,,2,,,66,0
349056,note_off,,,,,1920,0,4,,,,,3,,,57,0
349056,note_off,,,,,0,0,2,,,,,1,,,71,0
350208,note_on,,,,,1344,0,1,,,,,0,,,92,100
350208,note_on,,,,,1152,0,2,,,,,1,,,80,100
350592,note_on,,,,,0,0,2,,,,,1,,,76,100
350592,note_on,,,,,0,0,1,,,,,0,,,88,100
350592,note_off,,,,,384,0,1,,,,,0,,,92,0
350592,note_on,,,,,1536,0,3,,,,,2,,,64,100
350592,note_off,,,,,384,0,2,,,,,1,,,80,0
350592,note_on,,,,,1536,0,4,,,,,3,,,56,100
350784,note_off,,,,,192,0,1,,,,,0,,,88,0
350784,note_off,,,,,192,0,3,,,,,2,,,64,0
350784,note_off,,,,,192,0,4,,,,,3,,,56,0
350784,note_off,,,,,192,0,2,,,,,1,,,76,0
350976,note_on,,,,,192,0,2,,,,,1,,,76,100
350976,note_on,,,,,192,0,1,,,,,0,,,88,100
351360,note_on,,,,,576,0,4,,,,,3,,,57,100
351360,note_on,,,,,0,0,2,,,,,1,,,73,100
351360,note_off,,,,,384,0,2,,,,,1,,,76,0
351360,note_on,,,,,0,0,1,,,,,0,,,85,100
351360,note_off,,,,,384,0,1,,,,,0,,,88,0
351360,note_on,,,,,576,0,3,,,,,2,,,64,100
351552,note_off,,,,,192,0,4,,,,,3,,,57,0
351552,note_off,,,,,192,0,3,,,,,2,,,64,0
351552,note_off,,,,,192,0,2,,,,,1,,,73,0
351552,note_off,,,,,192,0,1,,,,,0,,,85,0
351744,note_on,,,,,192,0,1,,,,,0,,,83,100
351744,note_on,,,,,192,0,2,,,,,1,,,71,100
352128,note_on,,,,,0,0,3,,,,,2,,,59,100
352128,note_on,,,,,576,0,3,,,,,2,,,64,100
352128,note_on,,,,,576,0,4,,,,,3,,,59,100
352128,note_off,,,,,384,0,2,,,,,1,,,71,0
352128,note_on,,,,,0,0,2,,,,,1,,,68,100
352128,note_off,,,,,384,0,1,,,,,0,,,83,0
352128,note_on,,,,,0,0,1,,,,,0,,,80,100
352320,note_off,,,,,192,0,4,,,,,3,,,59,0
352320,note_off,,,,,0,0,3,,,,,2,,,59,0
352320,note_off,,,,,192,0,3,,,,,2,,,64,0
352320,note_off,,,,,192,0,2,,,,,1,,,68,0
352320,note_off,,,,,192,0,1,,,,,0,,,80,0
352512,note_on,,,,,192,0,2,,,,,1,,,69,100
352512,note_on,,,,,192,0,1,,,,,0,,,81,100
352896,note_off,,,,,384,0,2,,,,,1,,,69,0
352896,note_on,,,,,0,0,1,,,,,0,,,75,100
352896,note_off,,,,,384,0,1,,,,,0,,,81,0
352896,note_on,,,,,576,0,4,,,,,3,,,47,100
352896,note_on,,,,,0,0,2,,,,,1,,,63,100
352896,note_on,,,,,0,0,3,,,,,2,,,66,100
352896,note_on,,,,,576,0,3,,,,,2,,,69,100
353088,note_off,,,,,192,0,2,,,,,1,,,63,0
353088,note_off,,,,,192,0,1,,,,,0,,,75,0
353088,note_off,,,,,192,0,4,,,,,3,,,47,0
353088,note_off,,,,,192,0,3,,,,,2,,,69,0
353088,note_off,,,,,0,0,3,,,,,2,,,66,0
353280,note_on,,,,,192,0,2,,,,,1,,,68,100
353280,note_on,,,,,192,0,1,,,,,0,,,76,100
353280,note_on,,,,,192,0,4,,,,,3,,,49,100
353280,note_on,,,,,192,0,3,,,,,2,,,64,100
353472,note_off,,,,,192,0,2,,,,,1,,,68,0
353472,note_off,,,,,192,0,1,,,,,0,,,76,0
353472,note_on,,,,,0,0,1,,,,,0,,,80,100
353472,note_on,,,,,0,0,2,,,,,1,,,76,100
353664,note_off,,,,,192,0,1,,,,,0,,,80,0
353664,note_on,,,,,0,0,1,,,,,0,,,80,100
353664,note_on,,,,,0,0,2,,,,,1,,,76,100
353664,note_off,,,,,192,0,2,,,,,1,,,76,0
353856,note_on,,,,,0,0,1,,,,,0,,,76,100
353856,note_off,,,,,192,0,1,,,,,0,,,80,0
353856,note_on,,,,,0,0,2,,,,,1,,,68,100
353856,note_off,,,,,192,0,2,,,,,1,,,76,0
354048,note_off,,,,,192,0,1,,,,,0,,,76,0
354048,note_on,,,,,0,0,1,,,,,0,,,73,100
354048,note_off,,,,,768,0,4,,,,,3,,,49,0
354048,note_off,,,,,192,0,2,,,,,1,,,68,0
354048,note_on,,,,,0,0,2,,,,,1,,,69,100
354048,note_on,,,,,0,0,4,,,,,3,,,45,100
354240,note_off,,,,,192,0,1,,,,,0,,,73,0
354240,note_off,,,,,192,0,2,,,,,1,,,69,0
354240,note_on,,,,,0,0,2,,,,,1,,,73,100
354240,note_on,,,,,0,0,1,,,,,0,,,76,100
354432,note_off,,,,,192,0,1,,,,,0,,,76,0
354432,note_on,,,,,0,0,1,,,,,0,,,76,100
354432,note_off,,,,,192,0,2,,,,,1,,,73,0
354432,note_on,,,,,0,0,2,,,,,1,,,73,100
354624,note_on,,,,,0,0,1,,,,,0,,,73,100
354624,note_off,,,,,192,0,2,,,,,1,,,73,0
354624,note_on,,,,,0,0,2,,,,,1,,,69,100
354624,note_off,,,,,192,0,1,,,,,0,,,76,0
354816,note_off,,,,,1536,0,3,,,,,2,,,64,0
354816,note_on,,,,,0,0,1,,,,,0,,,68,100
354816,note_on,,,,,0,0,2,,,,,1,,,64,100
354816,note_off,,,,,192,0,1,,,,,0,,,73,0
354816,note_off,,,,,768,0,4,,,,,3,,,45,0
354816,note_on,,,,,0,0,3,,,,,2,,,59,100
354816,note_off,,,,,192,0,2,,,,,1,,,69,0
354816,note_on,,,,,0,0,4,,,,,3,,,47,100
355008,note_on,,,,,0,0,2,,,,,1,,,68,100
355008,note_on,,,,,0,0,1,,,,,0,,,71,100
355008,note_off,,,,,192,0,1,,,,,0,,,68,0
355008,note_off,,,,,192,0,2,,,,,1,,,64,0
355200,note_on,,,,,0,0,1,,,,,0,,,71,100
355200,note_off,,,,,192,0,1,,,,,0,,,71,0
355200,note_on,,,,,0,0,2,,,,,1,,,68,100
355200,note_off,,,,,192,0,2,,,,,1,,,68,0
355392,note_off,,,,,192,0,1,,,,,0,,,71,0
355392,note_on,,,,,0,0,2,,,,,1,,,64,100
355392,note_off,,,,,192,0,2,,,,,1,,,68,0
355392,note_on,,,,,0,0,1,,,,,0,,,68,100
355584,note_off,,,,,192,0,1,,,,,0,,,68,0
355584,note_on,,,,,0,0,1,,,,,0,,,66,100
355584,note_on,,,,,0,0,2,,,,,1,,,63,100
355584,note_off,,,,,192,0,2,,,,,1,,,64,0
355776,note_on,,,,,0,0,2,,,,,1,,,66,100
355776,note_off,,,,,192,0,1,,,,,0,,,66,0
355776,note_off,,,,,192,0,2,,,,,1,,,63,0
355776,note_on,,,,,0,0,1,,,,,0,,,69,100
355968,note_off,,,,,192,0,2,,,,,1,,,66,0
355968,note_on,,,,,0,0,2,,,,,1,,,66,100
355968,note_off,,,,,192,0,1,,,,,0,,,69,0
355968,note_on,,,,,0,0,1,,,,,0,,,69,100
356160,note_on,,,,,0,0,1,,,,,0,,,66,100
356160,note_off,,,,,192,0,2,,,,,1,,,66,0
356160,note_off,,,,,192,0,1,,,,,0,,,69,0
356160,note_on,,,,,0,0,2,,,,,1,,,63,100
356352,note_off,,,,,192,0,1,,,,,0,,,66,0
356352,note_on,,,,,0,0,2,,,,,1,,,64,100
356352,note_on,,,,,0,0,2,,,,,1,,,56,100
356352,note_off,,,,,192,0,2,,,,,1,,,63,0
356352,note_on,,,,,0,0,4,,,,,3,,,40,100
356352,note_off,,,,,1536,0,4,,,,,3,,,47,0
356352,note_on,,,,,0,0,1,,,,,0,,,64,100
356352,note_on,,,,,0,0,3,,,,,2,,,56,100
356352,note_off,,,,,1536,0,3,,,,,2,,,59,0
356736,note_on,,,,,0,0,3,,,,,2,,,59,100
356736,note_off,,,,,384,0,3,,,,,2,,,56,0
357120,note_off,,,,,384,0,3,,,,,2,,,59,0
357120,note_on,,,,,0,0,3,,,,,2,,,64,100
357120,note_off,,,,,768,0,2,,,,,1,,,56,0
357120,note_off,,,,,0,0,2,,,,,1,,,64,0
357504,note_off,,,,,1152,0,1,,,,,0,,,64,0
357504,note_on,,,,,0,0,1,,,,,0,,,75,100
357504,note_off,,,,,384,0,3,,,,,2,,,64,0
357504,note_on,,,,,0,0,3,,,,,2,,,56,100
357696,note_off,,,,,192,0,1,,,,,0,,,75,0
357696,note_on,,,,,0,0,1,,,,,0,,,76,100
357888,note_on,,,,,0,0,3,,,,,2,,,57,100
357888,note_off,,,,,384,0,3,,,,,2,,,56,0
357888,note_off,,,,,192,0,1,,,,,0,,,76,0
357888,note_on,,,,,0,0,1,,,,,0,,,80,100
358080,note_off,,,,,192,0,1,,,,,0,,,80,0
358080,note_on,,,,,0,0,1,,,,,0,,,78,100
358272,note_off,,,,,384,0,3,,,,,2,,,57,0
358272,note_on,,,,,0,0,1,,,,,0,,,76,100
358272,note_on,,,,,0,0,3,,,,,2,,,59,100
358272,note_off,,,,,192,0,1,,,,,0,,,78,0
358464,note_off,,,,,192,0,1,,,,,0,,,76,0
358464,note_on,,,,,0,0,1,,,,,0,,,75,100
358656,note_on,,,,,0,0,3,,,,,2,,,63,100
358656,note_off,,,,,384,0,3,,,,,2,,,59,0
358656,note_off,,,,,192,0,1,,,,,0,,,75,0
358656,note_on,,,,,0,0,1,,,,,0,,,73,100
358848,note_off,,,,,192,0,1,,,,,0,,,73,0
358848,note_on,,,,,0,0,1,,,,,0,,,71,100
359040,note_on,,,,,1920,0,2,,,,,1,,,61,100
359040,note_on,,,,,0,0,1,,,,,0,,,70,100
359040,note_on,,,,,0,0,3,,,,,2,,,57,100
359040,note_off,,,,,384,0,3,,,,,2,,,63,0
359040,note_off,,,,,192,0,1,,,,,0,,,71,0
359232,note_on,,,,,0,0,2,,,,,1,,,59,100
359232,note_off,,,,,192,0,1,,,,,0,,,70,0
359232,note_on,,,,,0,0,1,,,,,0,,,71,100
359232,note_off,,,,,192,0,2,,,,,1,,,61,0
359424,note_off,,,,,192,0,1,,,,,0,,,71,0
359424,note_on,,,,,0,0,1,,,,,0,,,78,100
359424,note_on,,,,,0,0,2,,,,,1,,,73,100
359424,note_off,,,,,192,0,2,,,,,1,,,59,0
359424,note_on,,,,,0,0,3,,,,,2,,,56,100
359424,note_off,,,,,384,0,3,,,,,2,,,57,0
359616,note_on,,,,,0,0,2,,,,,1,,,71,100
359616,note_off,,,,,192,0,2,,,,,1,,,73,0
359808,note_on,,,,,0,0,2,,,,,1,,,76,100
359808,note_off,,,,,384,0,3,,,,,2,,,56,0
359808,note_on,,,,,0,0,3,,,,,2,,,59,100
359808,note_off,,,,,192,0,2,,,,,1,,,71,0
359808,note_off,,,,,384,0,1,,,,,0,,,78,0
359808,note_on,,,,,0,0,1,,,,,0,,,76,100
360000,note_off,,,,,192,0,2,,,,,1,,,76,0
360000,note_on,,,,,0,0,2,,,,,1,,,75,100
360192,note_on,,,,,0,0,3,,,,,2,,,64,100
360192,note_off,,,,,384,0,3,,,,,2,,,59,0
360192,note_on,,,,,0,0,2,,,,,1,,,73,100
360192,note_off,,,,,384,0,1,,,,,0,,,76,0
360192,note_off,,,,,192,0,2,,,,,1,,,75,0
360384,note_on,,,,,0,0,2,,,,,1,,,71,100
360384,note_off,,,,,192,0,2,,,,,1,,,73,0
360576,note_on,,,,,384,0,1,,,,,0,,,75,100
360576,note_off,,,,,384,0,3,,,,,2,,,64,0
360576,note_on,,,,,0,0,3,,,,,2,,,59,100
360576,note_off,,,,,192,0,2,,,,,1,,,71,0
360576,note_on,,,,,0,0,2,,,,,1,,,69,100
360768,note_off,,,,,192,0,1,,,,,0,,,75,0
360768,note_off,,,,,192,0,2,,,,,1,,,69,0
360768,note_on,,,,,0,0,2,,,,,1,,,68,100
360768,note_on,,,,,0,0,1,,,,,0,,,76,100
360960,note_on,,,,,0,0,3,,,,,2,,,57,100
360960,note_off,,,,,192,0,2,,,,,1,,,68,0
360960,note_off,,,,,192,0,1,,,,,0,,,76,0
360960,note_on,,,,,0,0,1,,,,,0,,,80,100
360960,note_on,,,,,0,0,2,,,,,1,,,71,100
360960,note_off,,,,,384,0,3,,,,,2,,,59,0
361152,note_on,,,,,0,0,1,,,,,0,,,78,100
361152,note_off,,,,,192,0,1,,,,,0,,,80,0
361152,note_off,,,,,192,0,2,,,,,1,,,71,0
361152,note_on,,,,,0,0,2,,,,,1,,,70,100
361344,note_on,,,,,0,0,1,,,,,0,,,76,100
361344,note_off,,,,,192,0,1,,,,,0,,,78,0
361344,note_on,,,,,0,0,2,,,,,1,,,69,100
361344,note_on,,,,,0,0,3,,,,,2,,,59,100
361344,note_off,,,,,192,0,2,,,,,1,,,70,0
361344,note_off,,,,,384,0,3,,,,,2,,,57,0
361536,note_off,,,,,192,0,1,,,,,0,,,76,0
361536,note_on,,,,,0,0,1,,,,,0,,,75,100
361728,note_on,,,,,0,0,3,,,,,2,,,63,100
361728,note_off,,,,,384,0,3,,,,,2,,,59,0
361728,note_off,,,,,192,0,1,,,,,0,,,75,0
361728,note_on,,,,,0,0,1,,,,,0,,,73,100
361728,note_off,,,,,384,0,2,,,,,1,,,69,0
361920,note_off,,,,,192,0,1,,,,,0,,,73,0
361920,note_on,,,,,0,0,1,,,,,0,,,71,100
362112,note_off,,,,,384,0,3,,,,,2,,,63,0
362112,note_on,,,,,0,0,3,,,,,2,,,57,100
362112,note_on,,,,,384,0,2,,,,,1,,,61,100
362112,note_off,,,,,192,0,1,,,,,0,,,71,0
362112,note_on,,,,,0,0,1,,,,,0,,,70,100
362304,note_off,,,,,192,0,1,,,,,0,,,70,0
362304,note_off,,,,,192,0,2,,,,,1,,,61,0
362304,note_on,,,,,0,0,2,,,,,1,,,59,100
362304,note_on,,,,,0,0,1,,,,,0,,,71,100
362496,note_off,,,,,192,0,2,,,,,1,,,59,0
362496,note_on,,,,,0,0,2,,,,,1,,,73,100
362496,note_off,,,,,384,0,3,,,,,2,,,57,0
362496,note_on,,,,,0,0,3,,,,,2,,,56,100
362496,note_off,,,,,192,0,1,,,,,0,,,71,0
362496,note_on,,,,,0,0,1,,,,,0,,,78,100
362688,note_off,,,,,192,0,2,,,,,1,,,73,0
362688,note_on,,,,,0,0,2,,,,,1,,,71,100
362880,note_off,,,,,192,0,2,,,,,1,,,71,0
362880,note_on,,,,,0,0,2,,,,,1,,,76,100
362880,note_on,,,,,0,0,3,,,,,2,,,59,100
362880,note_off,,,,,384,0,3,,,,,2,,,56,0
362880,note_off,,,,,384,0,1,,,,,0,,,78,0
362880,note_on,,,,,0,0,1,,,,,0,,,76,100
363072,note_off,,,,,192,0,2,,,,,1,,,76,0
363072,note_on,,,,,0,0,2,,,,,1,,,75,100
363264,note_on,,,,,0,0,2,,,,,1,,,73,100
363264,note_off,,,,,192,0,2,,,,,1,,,75,0
363264,note_off,,,,,384,0,1,,,,,0,,,76,0
363264,note_off,,,,,384,0,3,,,,,2,,,59,0
363264,note_on,,,,,0,0,3,,,,,2,,,64,100
363456,note_off,,,,,192,0,2,,,,,1,,,73,0
363456,note_on,,,,,0,0,2,,,,,1,,,71,100
363648,note_off,,,,,7296,0,4,,,,,3,,,40,0
363648,note_off,,,,,384,0,3,,,,,2,,,64,0
363648,note_on,,,,,0,0,3,,,,,2,,,60,100
363648,note_off,,,,,192,0,2,,,,,1,,,71,0
363648,note_on,,,,,384,0,1,,,,,0,,,75,100
363648,note_on,,,,,0,0,2,,,,,1,,,69,100
363840,note_on,,,,,0,0,2,,,,,1,,,68,100
363840,note_off,,,,,192,0,2,,,,,1,,,69,0
363840,note_on,,,,,0,0,3,,,,,2,,,61,100
363840,note_off,,,,,192,0,3,,,,,2,,,60,0
363840,note_off,,,,,192,0,1,,,,,0,,,75,0
363840,note_on,,,,,0,0,1,,,,,0,,,76,100
364032,note_on,,,,,0,0,1,,,,,0,,,78,100
364032,note_off,,,,,192,0,2,,,,,1,,,68,0
364032,note_off,,,,,192,0,3,,,,,2,,,61,0
364032,note_on,,,,,0,0,3,,,,,2,,,72,100
364032,note_off,,,,,192,0,1,,,,,0,,,76,0
364032,note_on,,,,,0,0,2,,,,,1,,,75,100
364032,note_on,,,,,384,0,4,,,,,3,,,61,100
364224,note_on,,,,,0,0,2,,,,,1,,,73,100
364224,note_on,,,,,0,0,1,,,,,0,,,76,100
364224,note_off,,,,,192,0,1,,,,,0,,,78,0
364224,note_off,,,,,192,0,2,,,,,1,,,75,0
364224,note_on,,,,,0,0,3,,,,,2,,,73,100
364224,note_off,,,,,192,0,3,,,,,2,,,72,0
364416,note_on,,,,,0,0,2,,,,,1,,,78,100
364416,note_on,,,,,0,0,3,,,,,2,,,75,100
364416,note_off,,,,,192,0,2,,,,,1,,,73,0
364416,note_off,,,,,192,0,3,,,,,2,,,73,0
364416,note_off,,,,,192,0,1,,,,,0,,,76,0
364416,note_on,,,,,0,0,1,,,,,0,,,81,100
364608,note_off,,,,,192,0,3,,,,,2,,,75,0
364608,note_on,,,,,0,0,3,,,,,2,,,76,100
364608,note_on,,,,,0,0,2,,,,,1,,,76,100
364608,note_off,,,,,192,0,2,,,,,1,,,78,0
364608,note_on,,,,,0,0,1,,,,,0,,,80,100
364608,note_off,,,,,192,0,1,,,,,0,,,81,0
364800,note_off,,,,,192,0,3,,,,,2,,,76,0
364800,note_on,,,,,0,0,3,,,,,2,,,69,100
364800,note_off,,,,,192,0,2,,,,,1,,,76,0
364800,note_on,,,,,0,0,2,,,,,1,,,75,100
364800,note_on,,,,,0,0,1,,,,,0,,,87,100
364800,note_off,,,,,192,0,1,,,,,0,,,80,0
364992,note_on,,,,,0,0,1,,,,,0,,,85,100
364992,note_off,,,,,192,0,1,,,,,0,,,87,0
364992,note_on,,,,,0,0,3,,,,,2,,,68,100
364992,note_off,,,,,192,0,3,,,,,2,,,69,0
364992,note_on,,,,,0,0,2,,,,,1,,,76,100
364992,note_off,,,,,192,0,2,,,,,1,,,75,0
365184,note_on,,,,,0,0,4,,,,,3,,,49,100
365184,note_on,,,,,0,0,2,,,,,1,,,81,100
365184,note_off,,,,,192,0,2,,,,,1,,,76,0
365184,note_off,,,,,192,0,1,,,,,0,,,85,0
365184,note_on,,,,,0,0,1,,,,,0,,,90,100
365184,note_on,,,,,0,0,3,,,,,2,,,63,100
365184,note_off,,,,,192,0,3,,,,,2,,,68,0
365184,note_off,,,,,1152,0,4,,,,,3,,,61,0
365376,note_on,,,,,0,0,1,,,,,0,,,88,100
365376,note_off,,,,,192,0,4,,,,,3,,,49,0
365376,note_off,,,,,192,0,1,,,,,0,,,90,0
365376,note_on,,,,,0,0,3,,,,,2,,,64,100
365376,note_on,,,,,0,0,2,,,,,1,,,80,100
365376,note_off,,,,,192,0,3,,,,,2,,,63,0
365376,note_off,,,,,192,0,2,,,,,1,,,81,0
365568,note_off,,,,,192,0,2,,,,,1,,,80,0
365568,note_off,,,,,192,0,1,,,,,0,,,88,0
365568,note_on,,,,,0,0,1,,,,,0,,,80,100
365568,note_on,,,,,0,0,2,,,,,1,,,71,100
365568,note_off,,,,,192,0,3,,,,,2,,,64,0
365568,note_on,,,,,0,0,3,,,,,2,,,64,100
365568,note_on,,,,,192,0,4,,,,,3,,,47,100
365760,note_off,,,,,192,0,1,,,,,0,,,80,0
365760,note_off,,,,,192,0,2,,,,,1,,,71,0
365760,note_off,,,,,192,0,3,,,,,2,,,64,0
365760,note_off,,,,,192,0,4,,,,,3,,,47,0
365952,note_on,,,,,192,0,4,,,,,3,,,59,100
365952,note_on,,,,,192,0,1,,,,,0,,,83,100
365952,note_on,,,,,192,0,2,,,,,1,,,76,100
365952,note_on,,,,,192,0,3,,,,,2,,,68,100
366336,note_off,,,,,384,0,2,,,,,1,,,76,0
366336,note_off,,,,,384,0,3,,,,,2,,,68,0
366336,note_on,,,,,0,0,3,,,,,2,,,69,100
366336,note_on,,,,,0,0,2,,,,,1,,,75,100
366528,note_on,,,,,0,0,1,,,,,0,,,81,100
366528,note_off,,,,,576,0,1,,,,,0,,,83,0
366720,note_off,,,,,192,0,1,,,,,0,,,81,0
366720,note_on,,,,,0,0,1,,,,,0,,,78,100
366912,note_off,,,,,192,0,1,,,,,0,,,78,0
366912,note_on,,,,,0,0,1,,,,,0,,,80,100
367104,note_on,,,,,0,0,2,,,,,1,,,76,100
367104,note_off,,,,,192,0,1,,,,,0,,,80,0
367104,note_on,,,,,0,0,1,,,,,0,,,76,100
367104,note_off,,,,,1152,0,4,,,,,3,,,59,0
367104,note_on,,,,,0,0,4,,,,,3,,,52,100
367104,note_on,,,,,0,0,3,,,,,2,,,68,100
367104,note_off,,,,,768,0,3,,,,,2,,,69,0
367104,note_off,,,,,768,0,2,,,,,1,,,75,0
367296,note_off,,,,,192,0,2,,,,,1,,,76,0
367296,note_off,,,,,192,0,4,,,,,3,,,52,0
367296,note_off,,,,,192,0,3,,,,,2,,,68,0
367296,note_off,,,,,192,0,1,,,,,0,,,76,0
367488,note_on,,,,,192,0,2,,,,,1,,,64,100
367488,note_on,,,,,192,0,4,,,,,3,,,47,100
367488,note_on,,,,,192,0,3,,,,,2,,,56,100
367488,note_on,,,,,192,0,1,,,,,0,,,71,100
367872,note_on,,,,,0,0,3,,,,,2,,,57,100
367872,note_off,,,,,384,0,3,,,,,2,,,56,0
367872,note_on,,,,,0,0,2,,,,,1,,,63,100
367872,note_off,,,,,384,0,2,,,,,1,,,64,0
368064,note_off,,,,,576,0,1,,,,,0,,,71,0
368064,note_on,,,,,0,0,1,,,,,0,,,69,100
368256,note_off,,,,,192,0,1,,,,,0,,,69,0
368256,note_on,,,,,0,0,1,,,,,0,,,66,100
368448,note_off,,,,,192,0,1,,,,,0,,,66,0
368448,note_on,,,,,0,0,1,,,,,0,,,68,100
368640,note_on,,,,,0,0,4,,,,,3,,,52,100
368640,note_on,,,,,0,0,3,,,,,2,,,56,100
368640,note_off,,,,,768,0,3,,,,,2,,,57,0
368640,note_off,,,,,1152,0,4,,,,,3,,,47,0
368640,note_on,,,,,0,0,2,,,,,1,,,64,100
368640,note_off,,,,,768,0,2,,,,,1,,,63,0
368640,note_off,,,,,192,0,1,,,,,0,,,68,0
368640,note_on,,,,,0,0,1,,,,,0,,,64,100
368832,note_off,,,,,192,0,2,,,,,1,,,64,0
368832,note_off,,,,,192,0,3,,,,,2,,,56,0
368832,note_off,,,,,192,0,4,,,,,3,,,52,0
368832,note_off,,,,,192,0,1,,,,,0,,,64,0
369024,note_on,,,,,192,0,1,,,,,0,,,85,100
369024,note_on,,,,,192,0,3,,,,,2,,,69,100
369024,note_on,,,,,192,0,4,,,,,3,,,61,100
369024,note_on,,,,,192,0,2,,,,,1,,,78,100
369408,note_off,,,,,384,0,3,,,,,2,,,69,0
369408,note_on,,,,,0,0,2,,,,,1,,,77,100
369408,note_off,,,,,384,0,2,,,,,1,,,78,0
369408,note_on,,,,,0,0,3,,,,,2,,,71,100
369600,note_on,,,,,0,0,1,,,,,0,,,83,100
369600,note_off,,,,,576,0,1,,,,,0,,,85,0
369792,note_on,,,,,0,0,1,,,,,0,,,80,100
369792,note_off,,,,,192,0,1,,,,,0,,,83,0
369984,note_off,,,,,192,0,1,,,,,0,,,80,0
369984,note_on,,,,,0,0,1,,,,,0,,,81,100
370176,note_off,,,,,1152,0,4,,,,,3,,,61,0
370176,note_on,,,,,0,0,4,,,,,3,,,54,100
370176,note_off,,,,,768,0,3,,,,,2,,,71,0
370176,note_off,,,,,768,0,2,,,,,1,,,77,0
370176,note_on,,,,,0,0,1,,,,,0,,,78,100
370176,note_off,,,,,192,0,1,,,,,0,,,81,0
370176,note_on,,,,,0,0,2,,,,,1,,,78,100
370176,note_on,,,,,0,0,3,,,,,2,,,69,100
370368,note_off,,,,,192,0,3,,,,,2,,,69,0
370368,note_off,,,,,192,0,1,,,,,0,,,78,0
370368,note_off,,,,,192,0,2,,,,,1,,,78,0
370368,note_off,,,,,192,0,4,,,,,3,,,54,0
370560,note_on,,,,,192,0,1,,,,,0,,,73,100
370560,note_on,,,,,192,0,4,,,,,3,,,49,100
370560,note_on,,,,,192,0,2,,,,,1,,,66,100
370560,note_on,,,,,192,0,3,,,,,2,,,57,100
370944,note_on,,,,,0,0,3,,,,,2,,,59,100
370944,note_off,,,,,384,0,3,,,,,2,,,57,0
370944,note_off,,,,,384,0,2,,,,,1,,,66,0
370944,note_on,,,,,0,0,2,,,,,1,,,65,100
371136,note_on,,,,,0,0,1,,,,,0,,,71,100
371136,note_off,,,,,576,0,1,,,,,0,,,73,0
371328,note_off,,,,,192,0,1,,,,,0,,,71,0
371328,note_on,,,,,0,0,1,,,,,0,,,68,100
371520,note_off,,,,,192,0,1,,,,,0,,,68,0
371520,note_on,,,,,0,0,1,,,,,0,,,69,100
371712,note_on,,,,,0,0,4,,,,,3,,,42,100
371712,note_off,,,,,192,0,1,,,,,0,,,69,0
371712,note_on,,,,,0,0,1,,,,,0,,,66,100
371712,note_off,,,,,1152,0,4,,,,,3,,,49,0
371712,note_on,,,,,0,0,3,,,,,2,,,57,100
371712,note_off,,,,,768,0,3,,,,,2,,,59,0
371712,note_on,,,,,0,0,2,,,,,1,,,66,100
371712,note_off,,,,,768,0,2,,,,,1,,,65,0
371904,note_off,,,,,192,0,3,,,,,2,,,57,0
371904,note_off,,,,,192,0,4,,,,,3,,,42,0
371904,note_off,,,,,192,0,2,,,,,1,,,66,0
371904,note_off,,,,,192,0,1,,,,,0,,,66,0
372096,note_on,,,,,192,0,1,,,,,0,,,71,100
372096,note_on,,,,,192,0,3,,,,,2,,,62,100
372096,note_on,,,,,192,0,2,,,,,1,,,67,100
372480,note_off,,,,,384,0,1,,,,,0,,,71,0
372480,note_on,,,,,0,0,1,,,,,0,,,72,100
372480,note_on,,,,,0,0,2,,,,,1,,,66,100
372480,note_off,,,,,384,0,2,,,,,1,,,67,0
372672,note_on,,,,,0,0,3,,,,,2,,,60,100
372672,note_off,,,,,576,0,3,,,,,2,,,62,0
372864,note_on,,,,,0,0,3,,,,,2,,,57,100
372864,note_off,,,,,192,0,3,,,,,2,,,60,0
372864,note_off,,,,,384,0,2,,,,,1,,,66,0
372864,note_on,,,,,0,0,2,,,,,1,,,72,100
372864,note_off,,,,,384,0,1,,,,,0,,,72,0
372864,note_on,,,,,0,0,1,,,,,0,,,66,100
373056,note_on,,,,,0,0,3,,,,,2,,,59,100
373056,note_off,,,,,192,0,3,,,,,2,,,57,0
373248,note_on,,,,,0,0,2,,,,,1,,,71,100
373248,note_on,,,,,0,0,3,,,,,2,,,55,100
373248,note_off,,,,,384,0,1,,,,,0,,,66,0
373248,note_on,,,,,0,0,1,,,,,0,,,67,100
373248,note_off,,,,,384,0,2,,,,,1,,,72,0
373248,note_off,,,,,192,0,3,,,,,2,,,59,0
373440,note_off,,,,,192,0,2,,,,,1,,,71,0
373440,note_off,,,,,192,0,1,,,,,0,,,67,0
373440,note_off,,,,,192,0,3,,,,,2,,,55,0
373632,note_on,,,,,192,0,2,,,,,1,,,71,100
373632,note_on,,,,,192,0,3,,,,,2,,,67,100
373632,note_on,,,,,192,0,1,,,,,0,,,83,100
373632,note_on,,,,,1728,0,4,,,,,3,,,50,100
374016,note_off,,,,,384,0,1,,,,,0,,,83,0
374016,note_off,,,,,384,0,3,,,,,2,,,67,0
374016,note_on,,,,,0,0,3,,,,,2,,,66,100
374016,note_on,,,,,0,0,2,,,,,1,,,72,100
374016,note_off,,,,,384,0,2,,,,,1,,,71,0
374016,note_on,,,,,0,0,1,,,,,0,,,84,100
374208,note_off,,,,,576,0,4,,,,,3,,,50,0
374208,note_on,,,,,0,0,4,,,,,3,,,48,100
374400,note_off,,,,,384,0,2,,,,,1,,,72,0
374400,note_on,,,,,0,0,2,,,,,1,,,66,100
374400,note_on,,,,,0,0,4,,,,,3,,,45,100
374400,note_off,,,,,384,0,3,,,,,2,,,66,0
374400,note_on,,,,,0,0,1,,,,,0,,,78,100
374400,note_off,,,,,384,0,1,,,,,0,,,84,0
374400,note_on,,,,,0,0,3,,,,,2,,,60,100
374400,note_off,,,,,192,0,4,,,,,3,,,48,0
374592,note_on,,,,,0,0,4,,,,,3,,,47,100
374592,note_off,,,,,192,0,4,,,,,3,,,45,0
374784,note_on,,,,,0,0,4,,,,,3,,,43,100
374784,note_off,,,,,192,0,4,,,,,3,,,47,0
374784,note_off,,,,,384,0,1,,,,,0,,,78,0
374784,note_on,,,,,0,0,1,,,,,0,,,79,100
374784,note_on,,,,,0,0,2,,,,,1,,,67,100
374784,note_off,,,,,384,0,2,,,,,1,,,66,0
374784,note_on,,,,,0,0,3,,,,,2,,,59,100
374784,note_off,,,,,384,0,3,,,,,2,,,60,0
374976,note_off,,,,,192,0,2,,,,,1,,,67,0
374976,note_off,,,,,192,0,3,,,,,2,,,59,0
374976,note_off,,,,,192,0,1,,,,,0,,,79,0
374976,note_off,,,,,192,0,4,,,,,3,,,43,0
375168,note_on,,,,,192,0,4,,,,,3,,,50,100
375168,note_on,,,,,192,0,2,,,,,1,,,67,100
375168,note_on,,,,,192,0,3,,,,,2,,,59,100
375168,note_on,,,,,192,0,1,,,,,0,,,74,100
375936,note_off,,,,,768,0,2,,,,,1,,,67,0
375936,note_on,,,,,0,0,2,,,,,1,,,62,100
375936,note_off,,,,,768,0,3,,,,,2,,,59,0
375936,note_on,,,,,0,0,3,,,,,2,,,58,100
376320,note_on,,,,,0,0,3,,,,,2,,,57,100
376320,note_off,,,,,384,0,3,,,,,2,,,58,0
376320,note_on,,,,,0,0,2,,,,,1,,,64,100
376320,note_off,,,,,384,0,2,,,,,1,,,62,0
376704,note_off,,,,,1536,0,1,,,,,0,,,74,0
376704,note_on,,,,,0,0,1,,,,,0,,,72,100
377088,note_on,,,,,0,0,2,,,,,1,,,66,100
377088,note_on,,,,,0,0,3,,,,,2,,,62,100
377088,note_off,,,,,768,0,3,,,,,2,,,57,0
377088,note_off,,,,,384,0,1,,,,,0,,,72,0
377088,note_on,,,,,0,0,1,,,,,0,,,69,100
377088,note_off,,,,,768,0,2,,,,,1,,,64,0
377472,note_off,,,,,384,0,1,,,,,0,,,69,0
377472,note_on,,,,,0,0,1,,,,,0,,,71,100
377856,note_off,,,,,768,0,2,,,,,1,,,66,0
377856,note_on,,,,,0,0,2,,,,,1,,,67,100
377856,note_off,,,,,768,0,3,,,,,2,,,62,0
377856,note_off,,,,,2688,0,4,,,,,3,,,50,0
377856,note_on,,,,,0,0,3,,,,,2,,,59,100
377856,note_on,,,,,0,0,4,,,,,3,,,55,100
377856,note_on,,,,,0,0,1,,,,,0,,,67,100
377856,note_off,,,,,384,0,1,,,,,0,,,71,0
377952,note_off,,,,,96,0,4,,,,,3,,,55,0
377952,note_off,,,,,96,0,3,,,,,2,,,59,0
378048,note_on,,,,,96,0,4,,,,,3,,,59,100
378048,note_on,,,,,96,0,3,,,,,2,,,62,100
378144,note_off,,,,,96,0,4,,,,,3,,,59,0
378144,note_off,,,,,96,0,3,,,,,2,,,62,0
378240,note_on,,,,,96,0,3,,,,,2,,,62,100
378240,note_on,,,,,96,0,4,,,,,3,,,59,100
378240,note_off,,,,,384,0,1,,,,,0,,,67,0
378336,note_off,,,,,96,0,3,,,,,2,,,62,0
378336,note_off,,,,,96,0,4,,,,,3,,,59,0
378624,note_on,,,,,288,0,3,,,,,2,,,59,100
378624,note_on,,,,,288,0,4,,,,,3,,,55,100
378720,note_off,,,,,96,0,3,,,,,2,,,59,0
378720,note_off,,,,,96,0,4,,,,,3,,,55,0
378816,note_on,,,,,96,0,3,,,,,2,,,62,100
378816,note_on,,,,,96,0,4,,,,,3,,,59,100
378912,note_off,,,,,96,0,4,,,,,3,,,59,0
378912,note_off,,,,,96,0,3,,,,,2,,,62,0
379008,note_on,,,,,96,0,3,,,,,2,,,62,100
379008,note_off,,,,,1152,0,2,,,,,1,,,67,0
379008,note_on,,,,,96,0,4,,,,,3,,,59,100
379008,note_on,,,,,0,0,2,,,,,1,,,69,100
379104,note_off,,,,,96,0,4,,,,,3,,,59,0
379104,note_off,,,,,96,0,3,,,,,2,,,62,0
379200,note_off,,,,,192,0,2,,,,,1,,,69,0
379200,note_on,,,,,0,0,2,,,,,1,,,67,100
379392,note_on,,,,,0,0,2,,,,,1,,,67,100
379392,note_off,,,,,192,0,2,,,,,1,,,67,0
379392,note_on,,,,,288,0,4,,,,,3,,,55,100
379392,note_on,,,,,288,0,3,,,,,2,,,59,100
379488,note_off,,,,,96,0,3,,,,,2,,,59,0
379488,note_off,,,,,96,0,4,,,,,3,,,55,0
379584,note_on,,,,,96,0,3,,,,,2,,,62,100
379584,note_off,,,,,192,0,2,,,,,1,,,67,0
379584,note_on,,,,,96,0,4,,,,,3,,,59,100
379680,note_off,,,,,96,0,4,,,,,3,,,59,0
379680,note_off,,,,,96,0,3,,,,,2,,,62,0
379776,note_on,,,,,96,0,3,,,,,2,,,62,100
379776,note_on,,,,,192,0,2,,,,,1,,,69,100
379776,note_on,,,,,96,0,4,,,,,3,,,59,100
379872,note_off,,,,,96,0,4,,,,,3,,,59,0
379872,note_off,,,,,96,0,3,,,,,2,,,62,0
379968,note_on,,,,,0,0,2,,,,,1,,,67,100
379968,note_off,,,,,192,0,2,,,,,1,,,69,0
380160,note_on,,,,,288,0,4,,,,,3,,,55,100
380160,note_off,,,,,192,0,2,,,,,1,,,67,0
380160,note_on,,,,,288,0,3,,,,,2,,,59,100
380160,note_on,,,,,0,0,2,,,,,1,,,67,100
380256,note_off,,,,,96,0,4,,,,,3,,,55,0
380256,note_off,,,,,96,0,3,,,,,2,,,59,0
380352,note_on,,,,,96,0,4,,,,,3,,,59,100
380352,note_off,,,,,192,0,2,,,,,1,,,67,0
380352,note_on,,,,,96,0,3,,,,,2,,,62,100
380448,note_off,,,,,96,0,4,,,,,3,,,59,0
380448,note_off,,,,,96,0,3,,,,,2,,,62,0
380544,note_on,,,,,192,0,2,,,,,1,,,71,100
380544,note_on,,,,,96,0,3,,,,,2,,,62,100
380544,note_on,,,,,96,0,4,,,,,3,,,59,100
380640,note_off,,,,,96,0,4,,,,,3,,,59,0
380640,note_off,,,,,96,0,3,,,,,2,,,62,0
380736,note_off,,,,,192,0,2,,,,,1,,,71,0
380736,note_on,,,,,0,0,2,,,,,1,,,69,100
380928,note_on,,,,,288,0,3,,,,,2,,,60,100
380928,note_on,,,,,288,0,4,,,,,3,,,50,100
380928,note_off,,,,,192,0,2,,,,,1,,,69,0
380928,note_on,,,,,0,0,2,,,,,1,,,69,100
381024,note_off,,,,,96,0,4,,,,,3,,,50,0
381024,note_off,,,,,96,0,3,,,,,2,,,60,0
381120,note_on,,,,,96,0,4,,,,,3,,,60,100
381120,note_off,,,,,192,0,2,,,,,1,,,69,0
381120,note_on,,,,,96,0,3,,,,,2,,,62,100
381216,note_off,,,,,96,0,4,,,,,3,,,60,0
381216,note_off,,,,,96,0,3,,,,,2,,,62,0
381312,note_on,,,,,192,0,2,,,,,1,,,69,100
381312,note_on,,,,,96,0,4,,,,,3,,,60,100
381312,note_on,,,,,96,0,3,,,,,2,,,62,100
381408,note_off,,,,,96,0,4,,,,,3,,,60,0
381408,note_off,,,,,96,0,3,,,,,2,,,62,0
381696,note_on,,,,,288,0,4,,,,,3,,,50,100
381696,note_on,,,,,288,0,3,,,,,2,,,60,100
381792,note_off,,,,,96,0,4,,,,,3,,,50,0
381792,note_off,,,,,96,0,3,,,,,2,,,60,0
381888,note_on,,,,,96,0,4,,,,,3,,,60,100
381888,note_on,,,,,0,0,2,,,,,1,,,67,100
381888,note_off,,,,,576,0,2,,,,,1,,,69,0
381888,note_on,,,,,96,0,3,,,,,2,,,62,100
381984,note_off,,,,,96,0,3,,,,,2,,,62,0
381984,note_off,,,,,96,0,4,,,,,3,,,60,0
382080,note_on,,,,,96,0,4,,,,,3,,,60,100
382080,note_off,,,,,192,0,2,,,,,1,,,67,0
382080,note_on,,,,,0,0,2,,,,,1,,,66,100
382080,note_on,,,,,96,0,3,,,,,2,,,62,100
382176,note_off,,,,,96,0,3,,,,,2,,,62,0
382176,note_off,,,,,96,0,4,,,,,3,,,60,0
382272,note_on,,,,,0,0,2,,,,,1,,,64,100
382272,note_off,,,,,192,0,2,,,,,1,,,66,0
382464,note_on,,,,,288,0,4,,,,,3,,,50,100
382464,note_off,,,,,192,0,2,,,,,1,,,64,0
382464,note_on,,,,,288,0,3,,,,,2,,,60,100
382464,note_on,,,,,0,0,2,,,,,1,,,62,100
382560,note_off,,,,,96,0,4,,,,,3,,,50,0
382560,note_off,,,,,96,0,3,,,,,2,,,60,0
382656,note_on,,,,,96,0,4,,,,,3,,,60,100
382656,note_on,,,,,96,0,3,,,,,2,,,62,100
382656,note_off,,,,,192,0,2,,,,,1,,,62,0
382752,note_off,,,,,96,0,3,,,,,2,,,62,0
382752,note_off,,,,,96,0,4,,,,,3,,,60,0
382848,note_on,,,,,4608,0,1,,,,,0,,,74,100
382848,note_on,,,,,96,0,4,,,,,3,,,60,100
382848,note_on,,,,,192,0,2,,,,,1,,,62,100
382848,note_on,,,,,96,0,3,,,,,2,,,62,100
382944,note_off,,,,,96,0,4,,,,,3,,,60,0
382944,note_off,,,,,96,0,3,,,,,2,,,62,0
383040,note_off,,,,,192,0,2,,,,,1,,,62,0
383040,note_on,,,,,0,0,2,,,,,1,,,66,100
383232,note_on,,,,,288,0,3,,,,,2,,,60,100
383232,note_off,,,,,384,0,1,,,,,0,,,74,0
383232,note_off,,,,,192,0,2,,,,,1,,,66,0
383232,note_on,,,,,0,0,2,,,,,1,,,64,100
383232,note_on,,,,,288,0,4,,,,,3,,,50,100
383232,note_on,,,,,0,0,1,,,,,0,,,76,100
383328,note_off,,,,,96,0,3,,,,,2,,,60,0
383328,note_off,,,,,96,0,4,,,,,3,,,50,0
383424,note_off,,,,,192,0,2,,,,,1,,,64,0
383424,note_on,,,,,0,0,2,,,,,1,,,67,100
383424,note_on,,,,,96,0,4,,,,,3,,,60,100
383424,note_on,,,,,96,0,3,,,,,2,,,62,100
383520,note_off,,,,,96,0,3,,,,,2,,,62,0
383520,note_off,,,,,96,0,4,,,,,3,,,60,0
383616,note_on,,,,,96,0,3,,,,,2,,,62,100
383616,note_on,,,,,0,0,2,,,,,1,,,66,100
383616,note_off,,,,,192,0,2,,,,,1,,,67,0
383616,note_on,,,,,96,0,4,,,,,3,,,60,100
383616,note_off,,,,,384,0,1,,,,,0,,,76,0
383616,note_on,,,,,0,0,1,,,,,0,,,78,100
383712,note_off,,,,,96,0,4,,,,,3,,,60,0
383712,note_off,,,,,96,0,3,,,,,2,,,62,0
383808,note_on,,,,,0,0,2,,,,,1,,,69,100
383808,note_off,,,,,192,0,2,,,,,1,,,66,0
384000,note_on,,,,,0,0,2,,,,,1,,,67,100
384000,note_off,,,,,192,0,2,,,,,1,,,69,0
384000,note_on,,,,,288,0,3,,,,,2,,,59,100
384000,note_on,,,,,288,0,4,,,,,3,,,55,100
384000,note_off,,,,,384,0,1,,,,,0,,,78,0
384000,note_on,,,,,0,0,1,,,,,0,,,79,100
384096,note_off,,,,,96,0,4,,,,,3,,,55,0
384096,note_off,,,,,96,0,3,,,,,2,,,59,0
384192,note_on,,,,,96,0,4,,,,,3,,,59,100
384192,note_on,,,,,96,0,3,,,,,2,,,62,100
384288,note_off,,,,,96,0,4,,,,,3,,,59,0
384288,note_off,,,,,96,0,3,,,,,2,,,62,0
384384,note_on,,,,,96,0,4,,,,,3,,,59,100
384384,note_on,,,,,96,0,3,,,,,2,,,62,100
384480,note_off,,,,,96,0,4,,,,,3,,,59,0
384480,note_off,,,,,96,0,3,,,,,2,,,62,0
384768,note_on,,,,,288,0,4,,,,,3,,,55,100
384768,note_on,,,,,288,0,3,,,,,2,,,59,100
384864,note_off,,,,,96,0,3,,,,,2,,,59,0
384864,note_off,,,,,96,0,4,,,,,3,,,55,0
384960,note_on,,,,,96,0,3,,,,,2,,,62,100
384960,note_on,,,,,96,0,4,,,,,3,,,59,100
385056,note_off,,,,,96,0,3,,,,,2,,,62,0
385056,note_off,,,,,96,0,4,,,,,3,,,59,0
385152,note_on,,,,,96,0,3,,,,,2,,,62,100
385152,note_off,,,,,1152,0,2,,,,,1,,,67,0
385152,note_on,,,,,0,0,2,,,,,1,,,69,100
385152,note_on,,,,,0,0,1,,,,,0,,,81,100
385152,note_on,,,,,96,0,4,,,,,3,,,59,100
385152,note_off,,,,,1152,0,1,,,,,0,,,79,0
385248,note_off,,,,,96,0,4,,,,,3,,,59,0
385248,note_off,,,,,96,0,3,,,,,2,,,62,0
385344,note_on,,,,,0,0,2,,,,,1,,,67,100
385344,note_on,,,,,0,0,1,,,,,0,,,79,100
385344,note_off,,,,,192,0,1,,,,,0,,,81,0
385344,note_off,,,,,192,0,2,,,,,1,,,69,0
385536,note_on,,,,,288,0,4,,,,,3,,,55,100
385536,note_on,,,,,0,0,2,,,,,1,,,67,100
385536,note_on,,,,,0,0,1,,,,,0,,,79,100
385536,note_off,,,,,192,0,1,,,,,0,,,79,0
385536,note_on,,,,,288,0,3,,,,,2,,,59,100
385536,note_off,,,,,192,0,2,,,,,1,,,67,0
385632,note_off,,,,,96,0,4,,,,,3,,,55,0
385632,note_off,,,,,96,0,3,,,,,2,,,59,0
385728,note_on,,,,,96,0,4,,,,,3,,,59,100
385728,note_off,,,,,192,0,2,,,,,1,,,67,0
385728,note_on,,,,,96,0,3,,,,,2,,,62,100
385728,note_off,,,,,192,0,1,,,,,0,,,79,0
385824,note_off,,,,,96,0,4,,,,,3,,,59,0
385824,note_off,,,,,96,0,3,,,,,2,,,62,0
385920,note_on,,,,,192,0,2,,,,,1,,,69,100
385920,note_on,,,,,96,0,3,,,,,2,,,62,100
385920,note_on,,,,,192,0,1,,,,,0,,,81,100
385920,note_on,,,,,96,0,4,,,,,3,,,59,100
386016,note_off,,,,,96,0,3,,,,,2,,,62,0
386016,note_off,,,,,96,0,4,,,,,3,,,59,0
386112,note_off,,,,,192,0,1,,,,,0,,,81,0
386112,note_on,,,,,0,0,1,,,,,0,,,79,100
386112,note_on,,,,,0,0,2,,,,,1,,,67,100
386112,note_off,,,,,192,0,2,,,,,1,,,69,0
386304,note_on,,,,,288,0,3,,,,,2,,,59,100
386304,note_off,,,,,192,0,2,,,,,1,,,67,0
386304,note_on,,,,,0,0,2,,,,,1,,,67,100
386304,note_off,,,,,192,0,1,,,,,0,,,79,0
386304,note_on,,,,,0,0,1,,,,,0,,,79,100
386304,note_on,,,,,288,0,4,,,,,3,,,55,100
386400,note_off,,,,,96,0,3,,,,,2,,,59,0
386400,note_off,,,,,96,0,4,,,,,3,,,55,0
386496,note_off,,,,,192,0,1,,,,,0,,,79,0
386496,note_on,,,,,96,0,3,,,,,2,,,62,100
386496,note_off,,,,,192,0,2,,,,,1,,,67,0
386496,note_on,,,,,96,0,4,,,,,3,,,59,100
386592,note_off,,,,,96,0,3,,,,,2,,,62,0
386592,note_off,,,,,96,0,4,,,,,3,,,59,0
386688,note_on,,,,,192,0,1,,,,,0,,,83,100
386688,note_on,,,,,96,0,4,,,,,3,,,59,100
386688,note_on,,,,,96,0,3,,,,,2,,,62,100
386688,note_on,,,,,192,0,2,,,,,1,,,71,100
386784,note_off,,,,,96,0,4,,,,,3,,,59,0
386784,note_off,,,,,96,0,3,,,,,2,,,62,0
386880,note_on,,,,,0,0,1,,,,,0,,,81,100
386880,note_off,,,,,192,0,2,,,,,1,,,71,0
386880,note_on,,,,,0,0,2,,,,,1,,,69,100
386880,note_off,,,,,192,0,1,,,,,0,,,83,0
387072,note_on,,,,,0,0,1,,,,,0,,,81,100
387072,note_off,,,,,192,0,1,,,,,0,,,81,0
387072,note_on,,,,,288,0,4,,,,,3,,,50,100
387072,note_on,,,,,0,0,2,,,,,1,,,69,100
387072,note_off,,,,,192,0,2,,,,,1,,,69,0
387072,note_on,,,,,288,0,3,,,,,2,,,60,100
387168,note_off,,,,,96,0,4,,,,,3,,,50,0
387168,note_off,,,,,96,0,3,,,,,2,,,60,0
387264,note_off,,,,,192,0,1,,,,,0,,,81,0
387264,note_on,,,,,96,0,3,,,,,2,,,62,100
387264,note_off,,,,,192,0,2,,,,,1,,,69,0
387264,note_on,,,,,96,0,4,,,,,3,,,60,100
387360,note_off,,,,,96,0,4,,,,,3,,,60,0
387360,note_off,,,,,96,0,3,,,,,2,,,62,0
387456,note_on,,,,,192,0,2,,,,,1,,,69,100
387456,note_on,,,,,96,0,3,,,,,2,,,62,100
387456,note_on,,,,,96,0,4,,,,,3,,,60,100
387456,note_on,,,,,192,0,1,,,,,0,,,81,100
387552,note_off,,,,,96,0,3,,,,,2,,,62,0
387552,note_off,,,,,96,0,4,,,,,3,,,60,0
387840,note_on,,,,,288,0,4,,,,,3,,,50,100
387840,note_on,,,,,288,0,3,,,,,2,,,60,100
387936,note_off,,,,,96,0,4,,,,,3,,,50,0
387936,note_off,,,,,96,0,3,,,,,2,,,60,0
388032,note_on,,,,,96,0,3,,,,,2,,,62,100
388032,note_off,,,,,576,0,1,,,,,0,,,81,0
388032,note_on,,,,,0,0,1,,,,,0,,,79,100
388032,note_on,,,,,96,0,4,,,,,3,,,60,100
388032,note_off,,,,,576,0,2,,,,,1,,,69,0
388032,note_on,,,,,0,0,2,,,,,1,,,67,100
388128,note_off,,,,,96,0,3,,,,,2,,,62,0
388128,note_off,,,,,96,0,4,,,,,3,,,60,0
388224,note_on,,,,,96,0,3,,,,,2,,,62,100
388224,note_on,,,,,96,0,4,,,,,3,,,60,100
388224,note_on,,,,,0,0,2,,,,,1,,,66,100
388224,note_off,,,,,192,0,2,,,,,1,,,67,0
388224,note_off,,,,,192,0,1,,,,,0,,,79,0
388224,note_on,,,,,0,0,1,,,,,0,,,78,100
388320,note_off,,,,,96,0,3,,,,,2,,,62,0
388320,note_off,,,,,96,0,4,,,,,3,,,60,0
388416,note_off,,,,,192,0,1,,,,,0,,,78,0
388416,note_on,,,,,0,0,2,,,,,1,,,64,100
388416,note_off,,,,,192,0,2,,,,,1,,,66,0
388416,note_on,,,,,0,0,1,,,,,0,,,76,100
388608,note_on,,,,,0,0,2,,,,,1,,,62,100
388608,note_on,,,,,288,0,4,,,,,3,,,50,100
388608,note_off,,,,,192,0,2,,,,,1,,,64,0
388608,note_on,,,,,0,0,1,,,,,0,,,74,100
388608,note_off,,,,,192,0,1,,,,,0,,,76,0
388608,note_on,,,,,288,0,3,,,,,2,,,60,100
388704,note_off,,,,,96,0,4,,,,,3,,,50,0
388704,note_off,,,,,96,0,3,,,,,2,,,60,0
388800,note_off,,,,,192,0,2,,,,,1,,,62,0
388800,note_off,,,,,192,0,1,,,,,0,,,74,0
388800,note_on,,,,,96,0,3,,,,,2,,,62,100
388800,note_on,,,,,96,0,4,,,,,3,,,60,100
388896,note_off,,,,,96,0,4,,,,,3,,,60,0
388896,note_off,,,,,96,0,3,,,,,2,,,62,0
388992,note_on,,,,,96,0,4,,,,,3,,,60,100
388992,note_on,,,,,192,0,1,,,,,0,,,74,100
388992,note_on,,,,,192,0,2,,,,,1,,,62,100
388992,note_on,,,,,96,0,3,,,,,2,,,62,100
389088,note_off,,,,,96,0,3,,,,,2,,,62,0
389088,note_off,,,,,96,0,4,,,,,3,,,60,0
389280,note_on,,,,,0,0,1,,,,,0,,,78,100
389280,note_off,,,,,288,0,1,,,,,0,,,74,0
389280,note_off,,,,,288,0,2,,,,,1,,,62,0
389280,note_on,,,,,0,0,2,,,,,1,,,66,100
389376,note_on,,,,,288,0,4,,,,,3,,,50,100
389376,note_on,,,,,0,0,1,,,,,0,,,76,100
389376,note_off,,,,,96,0,1,,,,,0,,,78,0
389376,note_on,,,,,288,0,3,,,,,2,,,60,100
389376,note_off,,,,,96,0,2,,,,,1,,,66,0
389376,note_on,,,,,0,0,2,,,,,1,,,64,100
389472,note_off,,,,,96,0,3,,,,,2,,,60,0
389472,note_off,,,,,96,0,4,,,,,3,,,50,0
389568,note_on,,,,,96,0,3,,,,,2,,,62,100
389568,note_on,,,,,96,0,4,,,,,3,,,60,100
389664,note_off,,,,,96,0,4,,,,,3,,,60,0
389664,note_off,,,,,96,0,3,,,,,2,,,62,0
389760,note_on,,,,,0,0,1,,,,,0,,,74,100
389760,note_on,,,,,96,0,4,,,,,3,,,60,100
389760,note_off,,,,,384,0,1,,,,,0,,,76,0
389760,note_on,,,,,96,0,3,,,,,2,,,62,100
389760,note_off,,,,,384,0,2,,,,,1,,,64,0
389760,note_on,,,,,0,0,2,,,,,1,,,62,100
389856,note_off,,,,,96,0,4,,,,,3,,,60,0
389856,note_off,,,,,96,0,3,,,,,2,,,62,0
390144,note_on,,,,,288,0,4,,,,,3,,,45,100
390144,note_off,,,,,384,0,2,,,,,1,,,62,0
390144,note_on,,,,,0,0,2,,,,,1,,,62,100
390144,note_on,,,,,0,0,1,,,,,0,,,72,100
390144,note_off,,,,,384,0,1,,,,,0,,,74,0
390144,note_on,,,,,288,0,3,,,,,2,,,50,100
390240,note_off,,,,,96,0,1,,,,,0,,,72,0
390240,note_off,,,,,96,0,2,,,,,1,,,62,0
390336,note_off,,,,,192,0,4,,,,,3,,,45,0
390336,note_on,,,,,96,0,1,,,,,0,,,74,100
390336,note_off,,,,,192,0,3,,,,,2,,,50,0
390336,note_on,,,,,96,0,2,,,,,1,,,72,100
390432,note_off,,,,,96,0,1,,,,,0,,,74,0
390432,note_off,,,,,96,0,2,,,,,1,,,72,0
390528,note_on,,,,,96,0,2,,,,,1,,,72,100
390528,note_on,,,,,96,0,1,,,,,0,,,74,100
390528,note_on,,,,,192,0,4,,,,,3,,,45,100
390624,note_off,,,,,96,0,2,,,,,1,,,72,0
390624,note_off,,,,,96,0,1,,,,,0,,,74,0
390912,note_on,,,,,288,0,1,,,,,0,,,72,100
390912,note_on,,,,,288,0,2,,,,,1,,,62,100
391008,note_off,,,,,96,0,1,,,,,0,,,72,0
391008,note_off,,,,,96,0,2,,,,,1,,,62,0
391104,note_on,,,,,0,0,4,,,,,3,,,43,100
391104,note_off,,,,,576,0,4,,,,,3,,,45,0
391104,note_on,,,,,96,0,2,,,,,1,,,72,100
391104,note_on,,,,,96,0,1,,,,,0,,,74,100
391200,note_off,,,,,96,0,1,,,,,0,,,74,0
391200,note_off,,,,,96,0,2,,,,,1,,,72,0
391296,note_on,,,,,0,0,4,,,,,3,,,42,100
391296,note_off,,,,,192,0,4,,,,,3,,,43,0
391296,note_on,,,,,96,0,1,,,,,0,,,74,100
391296,note_on,,,,,96,0,2,,,,,1,,,72,100
391392,note_off,,,,,96,0,2,,,,,1,,,72,0
391392,note_off,,,,,96,0,1,,,,,0,,,74,0
391488,note_off,,,,,192,0,4,,,,,3,,,42,0
391488,note_on,,,,,0,0,4,,,,,3,,,40,100
391680,note_on,,,,,1344,0,3,,,,,2,,,57,100
391680,note_on,,,,,288,0,1,,,,,0,,,72,100
391680,note_on,,,,,0,0,4,,,,,3,,,38,100
391680,note_on,,,,,288,0,2,,,,,1,,,62,100
391680,note_off,,,,,192,0,4,,,,,3,,,40,0
391776,note_off,,,,,96,0,1,,,,,0,,,72,0
391776,note_off,,,,,96,0,2,,,,,1,,,62,0
391872,note_on,,,,,96,0,2,,,,,1,,,72,100
391872,note_off,,,,,192,0,3,,,,,2,,,57,0
391872,note_off,,,,,192,0,4,,,,,3,,,38,0
391872,note_on,,,,,96,0,1,,,,,0,,,74,100
391968,note_off,,,,,96,0,2,,,,,1,,,72,0
391968,note_off,,,,,96,0,1,,,,,0,,,74,0
392064,note_on,,,,,96,0,1,,,,,0,,,74,100
392064,note_on,,,,,192,0,3,,,,,2,,,57,100
392064,note_on,,,,,96,0,2,,,,,1,,,72,100
392160,note_off,,,,,96,0,2,,,,,1,,,72,0
392160,note_off,,,,,96,0,1,,,,,0,,,74,0
392448,note_on,,,,,288,0,2,,,,,1,,,62,100
392448,note_on,,,,,288,0,1,,,,,0,,,72,100
392544,note_off,,,,,96,0,2,,,,,1,,,62,0
392544,note_off,,,,,96,0,1,,,,,0,,,72,0
392640,note_on,,,,,96,0,2,,,,,1,,,72,100
392640,note_off,,,,,576,0,3,,,,,2,,,57,0
392640,note_on,,,,,96,0,1,,,,,0,,,74,100
392640,note_on,,,,,0,0,3,,,,,2,,,55,100
392736,note_off,,,,,96,0,1,,,,,0,,,74,0
392736,note_off,,,,,96,0,2,,,,,1,,,72,0
392832,note_on,,,,,96,0,1,,,,,0,,,74,100
392832,note_off,,,,,192,0,3,,,,,2,,,55,0
392832,note_on,,,,,96,0,2,,,,,1,,,72,100
392832,note_on,,,,,0,0,3,,,,,2,,,54,100
392928,note_off,,,,,96,0,1,,,,,0,,,74,0
392928,note_off,,,,,96,0,2,,,,,1,,,72,0
393024,note_on,,,,,0,0,3,,,,,2,,,52,100
393024,note_off,,,,,192,0,3,,,,,2,,,54,0
393216,note_on,,,,,1344,0,4,,,,,3,,,45,100
393216,note_on,,,,,0,0,3,,,,,2,,,50,100
393216,note_off,,,,,192,0,3,,,,,2,,,52,0
393216,note_on,,,,,288,0,2,,,,,1,,,62,100
393216,note_on,,,,,288,0,1,,,,,0,,,72,100
393312,note_off,,,,,96,0,2,,,,,1,,,62,0
393312,note_off,,,,,96,0,1,,,,,0,,,72,0
393408,note_off,,,,,192,0,3,,,,,2,,,50,0
393408,note_off,,,,,192,0,4,,,,,3,,,45,0
393408,note_on,,,,,96,0,1,,,,,0,,,74,100
393408,note_on,,,,,96,0,2,,,,,1,,,72,100
393504,note_off,,,,,96,0,1,,,,,0,,,74,0
393504,note_off,,,,,96,0,2,,,,,1,,,72,0
393600,note_on,,,,,96,0,1,,,,,0,,,74,100
393600,note_on,,,,,192,0,4,,,,,3,,,45,100
393600,note_on,,,,,96,0,2,,,,,1,,,72,100
393696,note_off,,,,,96,0,2,,,,,1,,,72,0
393696,note_off,,,,,96,0,1,,,,,0,,,74,0
393984,note_on,,,,,288,0,2,,,,,1,,,62,100
393984,note_on,,,,,288,0,1,,,,,0,,,72,100
394080,note_off,,,,,96,0,1,,,,,0,,,72,0
394080,note_off,,,,,96,0,2,,,,,1,,,62,0
394176,note_on,,,,,96,0,1,,,,,0,,,74,100
394176,note_on,,,,,96,0,2,,,,,1,,,72,100
394176,note_on,,,,,0,0,4,,,,,3,,,43,100
394176,note_off,,,,,576,0,4,,,,,3,,,45,0
394272,note_off,,,,,96,0,1,,,,,0,,,74,0
394272,note_off,,,,,96,0,2,,,,,1,,,72,0
394368,note_on,,,,,96,0,1,,,,,0,,,74,100
394368,note_on,,,,,96,0,2,,,,,1,,,72,100
394368,note_on,,,,,0,0,4,,,,,3,,,42,100
394368,note_off,,,,,192,0,4,,,,,3,,,43,0
394464,note_off,,,,,96,0,1,,,,,0,,,74,0
394464,note_off,,,,,96,0,2,,,,,1,,,72,0
394560,note_on,,,,,0,0,4,,,,,3,,,40,100
394560,note_off,,,,,192,0,4,,,,,3,,,42,0
394752,note_on,,,,,288,0,2,,,,,1,,,62,100
394752,note_off,,,,,192,0,4,,,,,3,,,40,0
394752,note_on,,,,,288,0,1,,,,,0,,,72,100
394752,note_on,,,,,1344,0,3,,,,,2,,,57,100
394752,note_on,,,,,0,0,4,,,,,3,,,38,100
394848,note_off,,,,,96,0,2,,,,,1,,,62,0
394848,note_off,,,,,96,0,1,,,,,0,,,72,0
394944,note_on,,,,,96,0,2,,,,,1,,,72,100
394944,note_off,,,,,192,0,3,,,,,2,,,57,0
394944,note_off,,,,,192,0,4,,,,,3,,,38,0
394944,note_on,,,,,96,0,1,,,,,0,,,74,100
395040,note_off,,,,,96,0,1,,,,,0,,,74,0
395040,note_off,,,,,96,0,2,,,,,1,,,72,0
395136,note_on,,,,,96,0,1,,,,,0,,,74,100
395136,note_on,,,,,192,0,3,,,,,2,,,57,100
395136,note_on,,,,,96,0,2,,,,,1,,,72,100
395232,note_off,,,,,96,0,2,,,,,1,,,72,0
395232,note_off,,,,,96,0,1,,,,,0,,,74,0
395520,note_on,,,,,288,0,1,,,,,0,,,72,100
395520,note_on,,,,,288,0,2,,,,,1,,,62,100
395616,note_off,,,,,96,0,1,,,,,0,,,72,0
395616,note_off,,,,,96,0,2,,,,,1,,,62,0
395712,note_on,,,,,96,0,1,,,,,0,,,74,100
395712,note_on,,,,,0,0,3,,,,,2,,,55,100
395712,note_on,,,,,96,0,2,,,,,1,,,72,100
395712,note_off,,,,,576,0,3,,,,,2,,,57,0
395808,note_off,,,,,96,0,1,,,,,0,,,74,0
395808,note_off,,,,,96,0,2,,,,,1,,,72,0
395904,note_on,,,,,96,0,1,,,,,0,,,74,100
395904,note_on,,,,,0,0,3,,,,,2,,,54,100
395904,note_on,,,,,96,0,2,,,,,1,,,72,100
395904,note_off,,,,,192,0,3,,,,,2,,,55,0
396000,note_off,,,,,96,0,2,,,,,1,,,72,0
396000,note_off,,,,,96,0,1,,,,,0,,,74,0
396096,note_off,,,,,192,0,3,,,,,2,,,54,0
396096,note_on,,,,,0,0,3,,,,,2,,,52,100
396288,note_on,,,,,288,0,2,,,,,1,,,66,100
396288,note_off,,,,,192,0,3,,,,,2,,,52,0
396288,note_on,,,,,0,0,3,,,,,2,,,50,100
396288,note_on,,,,,288,0,1,,,,,0,,,72,100
396384,note_off,,,,,96,0,2,,,,,1,,,66,0
396384,note_off,,,,,96,0,1,,,,,0,,,72,0
396480,note_on,,,,,96,0,1,,,,,0,,,78,100
396480,note_on,,,,,96,0,2,,,,,1,,,72,100
396576,note_off,,,,,96,0,2,,,,,1,,,72,0
396576,note_off,,,,,96,0,1,,,,,0,,,78,0
396672,note_on,,,,,96,0,2,,,,,1,,,72,100
396672,note_off,,,,,384,0,3,,,,,2,,,50,0
396672,note_on,,,,,96,0,1,,,,,0,,,78,100
396768,note_off,,,,,96,0,2,,,,,1,,,72,0
396768,note_off,,,,,96,0,1,,,,,0,,,78,0
397056,note_on,,,,,288,0,2,,,,,1,,,66,100
397056,note_on,,,,,2112,0,4,,,,,3,,,39,100
397056,note_on,,,,,288,0,1,,,,,0,,,72,100
397152,note_off,,,,,96,0,2,,,,,1,,,66,0
397152,note_off,,,,,96,0,1,,,,,0,,,72,0
397248,note_on,,,,,96,0,2,,,,,1,,,72,100
397248,note_on,,,,,96,0,1,,,,,0,,,78,100
397344,note_off,,,,,96,0,2,,,,,1,,,72,0
397344,note_off,,,,,96,0,1,,,,,0,,,78,0
397440,note_on,,,,,96,0,2,,,,,1,,,72,100
397440,note_on,,,,,96,0,1,,,,,0,,,78,100
397536,note_off,,,,,96,0,2,,,,,1,,,72,0
397536,note_off,,,,,96,0,1,,,,,0,,,78,0
397824,note_on,,,,,288,0,1,,,,,0,,,73,100
397824,note_on,,,,,1152,0,3,,,,,2,,,63,100
397824,note_on,,,,,288,0,2,,,,,1,,,67,100
397920,note_off,,,,,96,0,1,,,,,0,,,73,0
397920,note_off,,,,,96,0,2,,,,,1,,,67,0
398016,note_on,,,,,96,0,2,,,,,1,,,73,100
398016,note_on,,,,,96,0,1,,,,,0,,,79,100
398016,note_off,,,,,192,0,3,,,,,2,,,63,0
398112,note_off,,,,,96,0,2,,,,,1,,,73,0
398112,note_off,,,,,96,0,1,,,,,0,,,79,0
398208,note_on,,,,,96,0,2,,,,,1,,,73,100
398208,note_on,,,,,192,0,3,,,,,2,,,63,100
398208,note_on,,,,,96,0,1,,,,,0,,,79,100
398304,note_off,,,,,96,0,2,,,,,1,,,73,0
398304,note_off,,,,,96,0,1,,,,,0,,,79,0
398592,note_on,,,,,288,0,1,,,,,0,,,73,100
398592,note_on,,,,,288,0,2,,,,,1,,,67,100
398688,note_off,,,,,96,0,2,,,,,1,,,67,0
398688,note_off,,,,,96,0,1,,,,,0,,,73,0
398784,note_on,,,,,96,0,1,,,,,0,,,79,100
398784,note_off,,,,,576,0,3,,,,,2,,,63,0
398784,note_on,,,,,96,0,2,,,,,1,,,73,100
398784,note_on,,,,,0,0,3,,,,,2,,,61,100
398880,note_off,,,,,96,0,2,,,,,1,,,73,0
398880,note_off,,,,,96,0,1,,,,,0,,,79,0
398976,note_on,,,,,96,0,1,,,,,0,,,79,100
398976,note_on,,,,,0,0,3,,,,,2,,,60,100
398976,note_off,,,,,192,0,3,,,,,2,,,61,0
398976,note_on,,,,,96,0,2,,,,,1,,,73,100
399072,note_off,,,,,96,0,2,,,,,1,,,73,0
399072,note_off,,,,,96,0,1,,,,,0,,,79,0
399168,note_on,,,,,0,0,3,,,,,2,,,58,100
399168,note_off,,,,,192,0,3,,,,,2,,,60,0
399360,note_off,,,,,192,0,3,,,,,2,,,58,0
399360,note_on,,,,,0,0,3,,,,,2,,,56,100
399360,note_on,,,,,288,0,1,,,,,0,,,71,100
399360,note_on,,,,,288,0,2,,,,,1,,,68,100
399456,note_off,,,,,96,0,2,,,,,1,,,68,0
399456,note_off,,,,,96,0,1,,,,,0,,,71,0
399552,note_on,,,,,96,0,2,,,,,1,,,71,100
399552,note_on,,,,,96,0,1,,,,,0,,,80,100
399648,note_off,,,,,96,0,1,,,,,0,,,80,0
399648,note_off,,,,,96,0,2,,,,,1,,,71,0
399744,note_off,,,,,2688,0,4,,,,,3,,,39,0
399744,note_off,,,,,384,0,3,,,,,2,,,56,0
399744,note_on,,,,,96,0,1,,,,,0,,,80,100
399744,note_on,,,,,96,0,2,,,,,1,,,71,100
399840,note_off,,,,,96,0,1,,,,,0,,,80,0
399840,note_off,,,,,96,0,2,,,,,1,,,71,0
400128,note_on,,,,,288,0,2,,,,,1,,,68,100
400128,note_on,,,,,384,0,4,,,,,3,,,40,100
400128,note_on,,,,,288,0,1,,,,,0,,,71,100
400224,note_off,,,,,96,0,2,,,,,1,,,68,0
400224,note_off,,,,,96,0,1,,,,,0,,,71,0
400320,note_on,,,,,96,0,2,,,,,1,,,71,100
400320,note_on,,,,,96,0,1,,,,,0,,,80,100
400416,note_off,,,,,96,0,2,,,,,1,,,71,0
400416,note_off,,,,,96,0,1,,,,,0,,,80,0
400512,note_on,,,,,96,0,1,,,,,0,,,80,100
400512,note_on,,,,,96,0,2,,,,,1,,,71,100
400608,note_off,,,,,96,0,1,,,,,0,,,80,0
400608,note_off,,,,,96,0,2,,,,,1,,,71,0
400896,note_on,,,,,288,0,2,,,,,1,,,68,100
400896,note_on,,,,,288,0,1,,,,,0,,,74,100
400896,note_on,,,,,1152,0,3,,,,,2,,,64,100
400992,note_off,,,,,96,0,1,,,,,0,,,74,0
400992,note_off,,,,,96,0,2,,,,,1,,,68,0
401088,note_on,,,,,96,0,2,,,,,1,,,74,100
401088,note_off,,,,,192,0,3,,,,,2,,,64,0
401088,note_on,,,,,96,0,1,,,,,0,,,80,100
401184,note_off,,,,,96,0,2,,,,,1,,,74,0
401184,note_off,,,,,96,0,1,,,,,0,,,80,0
401280,note_on,,,,,96,0,1,,,,,0,,,80,100
401280,note_on,,,,,192,0,3,,,,,2,,,64,100
401280,note_on,,,,,96,0,2,,,,,1,,,74,100
401376,note_off,,,,,96,0,1,,,,,0,,,80,0
401376,note_off,,,,,96,0,2,,,,,1,,,74,0
401664,note_on,,,,,288,0,2,,,,,1,,,68,100
401664,note_on,,,,,288,0,1,,,,,0,,,74,100
401760,note_off,,,,,96,0,2,,,,,1,,,68,0
401760,note_off,,,,,96,0,1,,,,,0,,,74,0
401856,note_on,,,,,96,0,1,,,,,0,,,80,100
401856,note_on,,,,,96,0,2,,,,,1,,,74,100
401856,note_on,,,,,0,0,3,,,,,2,,,62,100
401856,note_off,,,,,576,0,3,,,,,2,,,64,0
401952,note_off,,,,,96,0,1,,,,,0,,,80,0
401952,note_off,,,,,96,0,2,,,,,1,,,74,0
402048,note_on,,,,,0,0,3,,,,,2,,,60,100
402048,note_off,,,,,192,0,3,,,,,2,,,62,0
402048,note_on,,,,,96,0,2,,,,,1,,,74,100
402048,note_on,,,,,96,0,1,,,,,0,,,80,100
402144,note_off,,,,,96,0,2,,,,,1,,,74,0
402144,note_off,,,,,96,0,1,,,,,0,,,80,0
402240,note_on,,,,,0,0,3,,,,,2,,,59,100
402240,note_off,,,,,192,0,3,,,,,2,,,60,0
402432,note_off,,,,,2304,0,4,,,,,3,,,40,0
402432,note_on,,,,,288,0,2,,,,,1,,,72,100
402432,note_on,,,,,0,0,4,,,,,3,,,41,100
402432,note_on,,,,,0,0,3,,,,,2,,,57,100
402432,note_off,,,,,192,0,3,,,,,2,,,59,0
402432,note_on,,,,,288,0,1,,,,,0,,,81,100
402624,note_off,,,,,192,0,2,,,,,1,,,72,0
402624,note_off,,,,,192,0,3,,,,,2,,,57,0
402624,note_off,,,,,192,0,1,,,,,0,,,81,0
402624,note_off,,,,,192,0,4,,,,,3,,,41,0
402816,note_on,,,,,192,0,4,,,,,3,,,53,100
402816,note_on,,,,,192,0,2,,,,,1,,,77,100
402816,note_on,,,,,192,0,3,,,,,2,,,57,100
402816,note_on,,,,,192,0,1,,,,,0,,,89,100
403392,note_on,,,,,0,0,2,,,,,1,,,76,100
403392,note_off,,,,,576,0,2,,,,,1,,,77,0
403392,note_off,,,,,576,0,1,,,,,0,,,89,0
403392,note_on,,,,,0,0,1,,,,,0,,,88,100
403584,note_off,,,,,768,0,4,,,,,3,,,53,0
403584,note_on,,,,,0,0,4,,,,,3,,,55,100
403584,note_off,,,,,768,0,3,,,,,2,,,57,0
403584,note_on,,,,,0,0,3,,,,,2,,,58,100
403584,note_on,,,,,0,0,1,,,,,0,,,86,100
403584,note_on,,,,,0,0,2,,,,,1,,,74,100
403584,note_off,,,,,192,0,2,,,,,1,,,76,0
403584,note_off,,,,,192,0,1,,,,,0,,,88,0
403776,note_on,,,,,0,0,3,,,,,2,,,60,100
403776,note_on,,,,,0,0,4,,,,,3,,,57,100
403776,note_on,,,,,0,0,2,,,,,1,,,72,100
403776,note_off,,,,,192,0,2,,,,,1,,,74,0
403776,note_off,,,,,192,0,1,,,,,0,,,86,0
403776,note_on,,,,,0,0,1,,,,,0,,,84,100
403776,note_off,,,,,192,0,4,,,,,3,,,55,0
403776,note_off,,,,,192,0,3,,,,,2,,,58,0
403968,note_on,,,,,0,0,2,,,,,1,,,70,100
403968,note_off,,,,,192,0,2,,,,,1,,,72,0
403968,note_on,,,,,0,0,3,,,,,2,,,52,100
403968,note_off,,,,,192,0,3,,,,,2,,,60,0
403968,note_on,,,,,0,0,1,,,,,0,,,82,100
403968,note_off,,,,,192,0,1,,,,,0,,,84,0
403968,note_on,,,,,0,0,4,,,,,3,,,48,100
403968,note_off,,,,,192,0,4,,,,,3,,,57,0
404064,note_off,,,,,96,0,1,,,,,0,,,82,0
404160,note_off,,,,,192,0,4,,,,,3,,,48,0
404160,note_off,,,,,192,0,2,,,,,1,,,70,0
404160,note_off,,,,,192,0,3,,,,,2,,,52,0
404160,note_on,,,,,96,0,1,,,,,0,,,79,100
404256,note_off,,,,,96,0,1,,,,,0,,,79,0
404352,note_on,,,,,192,0,2,,,,,1,,,60,100
404352,note_on,,,,,192,0,3,,,,,2,,,52,100
404352,note_on,,,,,192,0,4,,,,,3,,,48,100
404352,note_on,,,,,96,0,1,,,,,0,,,76,100
404448,note_off,,,,,96,0,1,,,,,0,,,76,0
404544,note_on,,,,,96,0,1,,,,,0,,,72,100
404640,note_off,,,,,96,0,1,,,,,0,,,72,0
404736,note_on,,,,,96,0,1,,,,,0,,,70,100
404832,note_off,,,,,96,0,1,,,,,0,,,70,0
404928,note_on,,,,,96,0,1,,,,,0,,,79,100
405024,note_off,,,,,96,0,1,,,,,0,,,79,0
405120,note_on,,,,,96,0,1,,,,,0,,,76,100
405120,note_on,,,,,0,0,3,,,,,2,,,53,100
405120,note_off,,,,,768,0,2,,,,,1,,,60,0
405120,note_on,,,,,0,0,2,,,,,1,,,60,100
405120,note_off,,,,,768,0,3,,,,,2,,,52,0
405120,note_on,,,,,0,0,4,,,,,3,,,50,100
405120,note_off,,,,,768,0,4,,,,,3,,,48,0
405216,note_off,,,,,96,0,1,,,,,0,,,76,0
405312,note_on,,,,,0,0,4,,,,,3,,,52,100
405312,note_on,,,,,96,0,1,,,,,0,,,70,100
405312,note_off,,,,,192,0,4,,,,,3,,,50,0
405312,note_on,,,,,0,0,3,,,,,2,,,55,100
405312,note_off,,,,,192,0,3,,,,,2,,,53,0
405408,note_off,,,,,96,0,1,,,,,0,,,70,0
405456,note_on,,,,,48,0,1,,,,,0,,,69,100
405504,note_on,,,,,0,0,1,,,,,0,,,77,100
405504,note_off,,,,,48,0,1,,,,,0,,,69,0
405504,note_on,,,,,0,0,3,,,,,2,,,57,100
405504,note_off,,,,,192,0,3,,,,,2,,,55,0
405504,note_on,,,,,0,0,2,,,,,1,,,60,100
405504,note_off,,,,,384,0,2,,,,,1,,,60,0
405504,note_on,,,,,0,0,4,,,,,3,,,53,100
405504,note_off,,,,,192,0,4,,,,,3,,,52,0
405696,note_off,,,,,192,0,2,,,,,1,,,60,0
405696,note_off,,,,,192,0,1,,,,,0,,,77,0
405696,note_off,,,,,192,0,4,,,,,3,,,53,0
405696,note_off,,,,,192,0,3,,,,,2,,,57,0
405888,note_on,,,,,192,0,4,,,,,3,,,53,100
405888,note_on,,,,,192,0,2,,,,,1,,,77,100
405888,note_on,,,,,192,0,3,,,,,2,,,57,100
405888,note_on,,,,,192,0,1,,,,,0,,,89,100
406464,note_on,,,,,0,0,1,,,,,0,,,88,100
406464,note_off,,,,,576,0,2,,,,,1,,,77,0
406464,note_off,,,,,576,0,1,,,,,0,,,89,0
406464,note_on,,,,,0,0,2,,,,,1,,,76,100
406656,note_on,,,,,0,0,1,,,,,0,,,86,100
406656,note_on,,,,,0,0,3,,,,,2,,,58,100
406656,note_off,,,,,192,0,1,,,,,0,,,88,0
406656,note_off,,,,,768,0,3,,,,,2,,,57,0
406656,note_off,,,,,768,0,4,,,,,3,,,53,0
406656,note_on,,,,,0,0,4,,,,,3,,,55,100
406656,note_on,,,,,0,0,2,,,,,1,,,74,100
406656,note_off,,,,,192,0,2,,,,,1,,,76,0
406848,note_off,,,,,192,0,3,,,,,2,,,58,0
406848,note_on,,,,,0,0,2,,,,,1,,,72,100
406848,note_off,,,,,192,0,2,,,,,1,,,74,0
406848,note_off,,,,,192,0,4,,,,,3,,,55,0
406848,note_on,,,,,0,0,3,,,,,2,,,60,100
406848,note_on,,,,,0,0,4,,,,,3,,,57,100
406848,note_on,,,,,0,0,1,,,,,0,,,84,100
406848,note_off,,,,,192,0,1,,,,,0,,,86,0
407040,note_on,,,,,0,0,3,,,,,2,,,52,100
407040,note_on,,,,,0,0,1,,,,,0,,,82,100
407040,note_off,,,,,192,0,1,,,,,0,,,84,0
407040,note_off,,,,,192,0,2,,,,,1,,,72,0
407040,note_on,,,,,0,0,4,,,,,3,,,48,100
407040,note_off,,,,,192,0,4,,,,,3,,,57,0
407040,note_off,,,,,192,0,3,,,,,2,,,60,0
407040,note_on,,,,,0,0,2,,,,,1,,,70,100
407136,note_off,,,,,96,0,1,,,,,0,,,82,0
407232,note_off,,,,,192,0,2,,,,,1,,,70,0
407232,note_off,,,,,192,0,3,,,,,2,,,52,0
407232,note_off,,,,,192,0,4,,,,,3,,,48,0
407232,note_on,,,,,96,0,1,,,,,0,,,79,100
407328,note_off,,,,,96,0,1,,,,,0,,,79,0
407424,note_on,,,,,192,0,3,,,,,2,,,52,100
407424,note_on,,,,,192,0,4,,,,,3,,,48,100
407424,note_on,,,,,192,0,2,,,,,1,,,60,100
407424,note_on,,,,,96,0,1,,,,,0,,,76,100
407520,note_off,,,,,96,0,1,,,,,0,,,76,0
407616,note_on,,,,,96,0,1,,,,,0,,,72,100
407712,note_off,,,,,96,0,1,,,,,0,,,72,0
407808,note_on,,,,,96,0,1,,,,,0,,,70,100
407904,note_off,,,,,96,0,1,,,,,0,,,70,0
408000,note_on,,,,,96,0,1,,,,,0,,,79,100
408096,note_off,,,,,96,0,1,,,,,0,,,79,0
408192,note_on,,,,,96,0,1,,,,,0,,,76,100
408192,note_on,,,,,0,0,2,,,,,1,,,60,100
408192,note_off,,,,,768,0,2,,,,,1,,,60,0
408192,note_on,,,,,0,0,4,,,,,3,,,50,100
408192,note_off,,,,,768,0,4,,,,,3,,,48,0
408192,note_off,,,,,768,0,3,,,,,2,,,52,0
408192,note_on,,,,,0,0,3,,,,,2,,,53,100
408288,note_off,,,,,96,0,1,,,,,0,,,76,0
408384,note_off,,,,,192,0,3,,,,,2,,,53,0
408384,note_on,,,,,0,0,4,,,,,3,,,52,100
408384,note_on,,,,,96,0,1,,,,,0,,,70,100
408384,note_off,,,,,192,0,4,,,,,3,,,50,0
408384,note_on,,,,,0,0,3,,,,,2,,,55,100
408480,note_off,,,,,96,0,1,,,,,0,,,70,0
408576,note_on,,,,,0,0,2,,,,,1,,,69,100
408576,note_off,,,,,384,0,2,,,,,1,,,60,0
408576,note_on,,,,,96,0,1,,,,,0,,,69,100
408576,note_on,,,,,0,0,4,,,,,3,,,45,100
408576,note_off,,,,,192,0,3,,,,,2,,,55,0
408576,note_on,,,,,0,0,3,,,,,2,,,61,100
408576,note_off,,,,,192,0,4,,,,,3,,,52,0
408672,note_off,,,,,96,0,1,,,,,0,,,69,0
408672,note_off,,,,,96,0,2,,,,,1,,,69,0
408768,note_on,,,,,96,0,1,,,,,0,,,81,100
408768,note_on,,,,,96,0,2,,,,,1,,,57,100
408864,note_off,,,,,96,0,1,,,,,0,,,81,0
408864,note_off,,,,,96,0,2,,,,,1,,,57,0
408960,note_off,,,,,384,0,3,,,,,2,,,61,0
408960,note_on,,,,,0,0,3,,,,,2,,,62,100
408960,note_on,,,,,96,0,2,,,,,1,,,61,100
408960,note_on,,,,,0,0,4,,,,,3,,,47,100
408960,note_off,,,,,384,0,4,,,,,3,,,45,0
408960,note_on,,,,,96,0,1,,,,,0,,,76,100
409056,note_off,,,,,96,0,1,,,,,0,,,76,0
409056,note_off,,,,,96,0,2,,,,,1,,,61,0
409152,note_on,,,,,0,0,4,,,,,3,,,49,100
409152,note_on,,,,,96,0,1,,,,,0,,,73,100
409152,note_off,,,,,192,0,4,,,,,3,,,47,0
409152,note_on,,,,,96,0,2,,,,,1,,,64,100
409152,note_on,,,,,0,0,3,,,,,2,,,64,100
409152,note_off,,,,,192,0,3,,,,,2,,,62,0
409248,note_off,,,,,96,0,2,,,,,1,,,64,0
409248,note_off,,,,,96,0,1,,,,,0,,,73,0
409344,note_off,,,,,192,0,4,,,,,3,,,49,0
409344,note_on,,,,,96,0,2,,,,,1,,,69,100
409344,note_on,,,,,96,0,1,,,,,0,,,69,100
409344,note_off,,,,,192,0,3,,,,,2,,,64,0
409344,note_on,,,,,0,0,3,,,,,2,,,65,100
409344,note_on,,,,,0,0,4,,,,,3,,,50,100
409440,note_off,,,,,96,0,1,,,,,0,,,69,0
409440,note_off,,,,,96,0,2,,,,,1,,,69,0
409536,note_on,,,,,96,0,1,,,,,0,,,81,100
409536,note_on,,,,,96,0,2,,,,,1,,,57,100
409632,note_off,,,,,96,0,1,,,,,0,,,81,0
409632,note_off,,,,,96,0,2,,,,,1,,,57,0
409728,note_on,,,,,96,0,1,,,,,0,,,77,100
409728,note_off,,,,,384,0,4,,,,,3,,,50,0
409728,note_on,,,,,0,0,4,,,,,3,,,52,100
409728,note_on,,,,,0,0,3,,,,,2,,,67,100
409728,note_off,,,,,384,0,3,,,,,2,,,65,0
409728,note_on,,,,,96,0,2,,,,,1,,,62,100
409824,note_off,,,,,96,0,2,,,,,1,,,62,0
409824,note_off,,,,,96,0,1,,,,,0,,,77,0
409920,note_on,,,,,96,0,2,,,,,1,,,65,100
409920,note_on,,,,,0,0,4,,,,,3,,,53,100
409920,note_off,,,,,192,0,4,,,,,3,,,52,0
409920,note_off,,,,,192,0,3,,,,,2,,,67,0
409920,note_on,,,,,0,0,3,,,,,2,,,69,100
409920,note_on,,,,,96,0,1,,,,,0,,,74,100
410016,note_off,,,,,96,0,2,,,,,1,,,65,0
410016,note_off,,,,,96,0,1,,,,,0,,,74,0
410112,note_on,,,,,96,0,2,,,,,1,,,67,100
410112,note_on,,,,,96,0,1,,,,,0,,,67,100
410112,note_off,,,,,192,0,4,,,,,3,,,53,0
410112,note_on,,,,,0,0,4,,,,,3,,,43,100
410112,note_on,,,,,0,0,3,,,,,2,,,59,100
410112,note_off,,,,,192,0,3,,,,,2,,,69,0
410208,note_off,,,,,96,0,1,,,,,0,,,67,0
410208,note_off,,,,,96,0,2,,,,,1,,,67,0
410304,note_on,,,,,96,0,2,,,,,1,,,55,100
410304,note_on,,,,,96,0,1,,,,,0,,,79,100
410400,note_off,,,,,96,0,2,,,,,1,,,55,0
410400,note_off,,,,,96,0,1,,,,,0,,,79,0
410496,note_on,,,,,96,0,1,,,,,0,,,74,100
410496,note_on,,,,,0,0,3,,,,,2,,,60,100
410496,note_off,,,,,384,0,3,,,,,2,,,59,0
410496,note_on,,,,,0,0,4,,,,,3,,,45,100
410496,note_off,,,,,384,0,4,,,,,3,,,43,0
410496,note_on,,,,,96,0,2,,,,,1,,,59,100
410592,note_off,,,,,96,0,1,,,,,0,,,74,0
410592,note_off,,,,,96,0,2,,,,,1,,,59,0
410688,note_on,,,,,0,0,3,,,,,2,,,62,100
410688,note_off,,,,,192,0,3,,,,,2,,,60,0
410688,note_on,,,,,0,0,4,,,,,3,,,47,100
410688,note_off,,,,,192,0,4,,,,,3,,,45,0
410688,note_on,,,,,96,0,2,,,,,1,,,62,100
410688,note_on,,,,,96,0,1,,,,,0,,,71,100
410784,note_off,,,,,96,0,1,,,,,0,,,71,0
410784,note_off,,,,,96,0,2,,,,,1,,,62,0
410880,note_on,,,,,96,0,2,,,,,1,,,67,100
410880,note_on,,,,,0,0,3,,,,,2,,,64,100
410880,note_off,,,,,192,0,3,,,,,2,,,62,0
410880,note_on,,,,,96,0,1,,,,,0,,,67,100
410880,note_off,,,,,192,0,4,,,,,3,,,47,0
410880,note_on,,,,,0,0,4,,,,,3,,,48,100
410976,note_off,,,,,96,0,1,,,,,0,,,67,0
410976,note_off,,,,,96,0,2,,,,,1,,,67,0
411072,note_on,,,,,96,0,1,,,,,0,,,79,100
411072,note_on,,,,,96,0,2,,,,,1,,,55,100
411168,note_off,,,,,96,0,2,,,,,1,,,55,0
411168,note_off,,,,,96,0,1,,,,,0,,,79,0
411264,note_off,,,,,384,0,4,,,,,3,,,48,0
411264,note_on,,,,,96,0,2,,,,,1,,,60,100
411264,note_on,,,,,0,0,3,,,,,2,,,65,100
411264,note_off,,,,,384,0,3,,,,,2,,,64,0
411264,note_on,,,,,0,0,4,,,,,3,,,50,100
411264,note_on,,,,,96,0,1,,,,,0,,,76,100
411360,note_off,,,,,96,0,1,,,,,0,,,76,0
411360,note_off,,,,,96,0,2,,,,,1,,,60,0
411456,note_on,,,,,0,0,3,,,,,2,,,67,100
411456,note_on,,,,,0,0,4,,,,,3,,,52,100
411456,note_off,,,,,192,0,4,,,,,3,,,50,0
411456,note_off,,,,,192,0,3,,,,,2,,,65,0
411456,note_on,,,,,96,0,2,,,,,1,,,64,100
411456,note_on,,,,,96,0,1,,,,,0,,,72,100
411552,note_off,,,,,96,0,2,,,,,1,,,64,0
411552,note_off,,,,,96,0,1,,,,,0,,,72,0
411648,note_on,,,,,96,0,1,,,,,0,,,65,100
411648,note_on,,,,,96,0,2,,,,,1,,,77,100
411648,note_on,,,,,0,0,4,,,,,3,,,41,100
411648,note_off,,,,,192,0,4,,,,,3,,,52,0
411648,note_on,,,,,0,0,3,,,,,2,,,57,100
411648,note_off,,,,,192,0,3,,,,,2,,,67,0
411744,note_off,,,,,96,0,2,,,,,1,,,77,0
411744,note_off,,,,,96,0,1,,,,,0,,,65,0
411840,note_on,,,,,96,0,2,,,,,1,,,65,100
411840,note_on,,,,,96,0,1,,,,,0,,,77,100
411936,note_off,,,,,96,0,2,,,,,1,,,65,0
411936,note_off,,,,,96,0,1,,,,,0,,,77,0
412032,note_off,,,,,384,0,4,,,,,3,,,41,0
412032,note_on,,,,,0,0,3,,,,,2,,,59,100
412032,note_off,,,,,384,0,3,,,,,2,,,57,0
412032,note_on,,,,,96,0,1,,,,,0,,,72,100
412032,note_on,,,,,96,0,2,,,,,1,,,69,100
412032,note_on,,,,,0,0,4,,,,,3,,,43,100
412128,note_off,,,,,96,0,1,,,,,0,,,72,0
412128,note_off,,,,,96,0,2,,,,,1,,,69,0
412224,note_off,,,,,192,0,4,,,,,3,,,43,0
412224,note_on,,,,,0,0,4,,,,,3,,,45,100
412224,note_on,,,,,96,0,1,,,,,0,,,69,100
412224,note_on,,,,,0,0,3,,,,,2,,,60,100
412224,note_off,,,,,192,0,3,,,,,2,,,59,0
412224,note_on,,,,,96,0,2,,,,,1,,,72,100
412320,note_off,,,,,96,0,1,,,,,0,,,69,0
412320,note_off,,,,,96,0,2,,,,,1,,,72,0
412416,note_on,,,,,0,0,3,,,,,2,,,62,100
412416,note_on,,,,,0,0,4,,,,,3,,,47,100
412416,note_off,,,,,192,0,4,,,,,3,,,45,0
412416,note_off,,,,,192,0,3,,,,,2,,,60,0
412416,note_on,,,,,96,0,2,,,,,1,,,77,100
412416,note_on,,,,,96,0,1,,,,,0,,,65,100
412512,note_off,,,,,96,0,1,,,,,0,,,65,0
412512,note_off,,,,,96,0,2,,,,,1,,,77,0
412608,note_on,,,,,96,0,2,,,,,1,,,65,100
412608,note_on,,,,,96,0,1,,,,,0,,,77,100
412704,note_off,,,,,96,0,2,,,,,1,,,65,0
412704,note_off,,,,,96,0,1,,,,,0,,,77,0
412800,note_on,,,,,96,0,2,,,,,1,,,71,100
412800,note_on,,,,,0,0,4,,,,,3,,,48,100
412800,note_off,,,,,384,0,4,,,,,3,,,47,0
412800,note_off,,,,,384,0,3,,,,,2,,,62,0
412800,note_on,,,,,0,0,3,,,,,2,,,64,100
412800,note_on,,,,,96,0,1,,,,,0,,,74,100
412896,note_off,,,,,96,0,2,,,,,1,,,71,0
412896,note_off,,,,,96,0,1,,,,,0,,,74,0
412992,note_on,,,,,96,0,2,,,,,1,,,74,100
412992,note_off,,,,,192,0,3,,,,,2,,,64,0
412992,note_off,,,,,192,0,4,,,,,3,,,48,0
412992,note_on,,,,,0,0,4,,,,,3,,,50,100
412992,note_on,,,,,96,0,1,,,,,0,,,71,100
412992,note_on,,,,,0,0,3,,,,,2,,,65,100
413088,note_off,,,,,96,0,1,,,,,0,,,71,0
413088,note_off,,,,,96,0,2,,,,,1,,,74,0
413184,note_on,,,,,96,0,1,,,,,0,,,64,100
413184,note_on,,,,,96,0,2,,,,,1,,,76,100
413184,note_off,,,,,192,0,4,,,,,3,,,50,0
413184,note_on,,,,,0,0,4,,,,,3,,,40,100
413184,note_off,,,,,192,0,3,,,,,2,,,65,0
413184,note_on,,,,,0,0,3,,,,,2,,,56,100
413280,note_off,,,,,96,0,1,,,,,0,,,64,0
413280,note_off,,,,,96,0,2,,,,,1,,,76,0
413376,note_on,,,,,96,0,2,,,,,1,,,64,100
413376,note_on,,,,,96,0,1,,,,,0,,,76,100
413472,note_off,,,,,96,0,2,,,,,1,,,64,0
413472,note_off,,,,,96,0,1,,,,,0,,,76,0
413568,note_on,,,,,0,0,4,,,,,3,,,42,100
413568,note_on,,,,,96,0,2,,,,,1,,,68,100
413568,note_off,,,,,384,0,4,,,,,3,,,40,0
413568,note_on,,,,,96,0,1,,,,,0,,,71,100
413568,note_on,,,,,0,0,3,,,,,2,,,57,100
413568,note_off,,,,,384,0,3,,,,,2,,,56,0
413664,note_off,,,,,96,0,2,,,,,1,,,68,0
413664,note_off,,,,,96,0,1,,,,,0,,,71,0
413760,note_on,,,,,96,0,2,,,,,1,,,71,100
413760,note_off,,,,,192,0,3,,,,,2,,,57,0
413760,note_on,,,,,0,0,4,,,,,3,,,44,100
413760,note_off,,,,,192,0,4,,,,,3,,,42,0
413760,note_on,,,,,0,0,3,,,,,2,,,59,100
413760,note_on,,,,,96,0,1,,,,,0,,,68,100
413856,note_off,,,,,96,0,1,,,,,0,,,68,0
413856,note_off,,,,,96,0,2,,,,,1,,,71,0
413952,note_off,,,,,192,0,3,,,,,2,,,59,0
413952,note_on,,,,,0,0,3,,,,,2,,,60,100
413952,note_off,,,,,192,0,4,,,,,3,,,44,0
413952,note_on,,,,,96,0,2,,,,,1,,,76,100
413952,note_on,,,,,0,0,4,,,,,3,,,45,100
413952,note_on,,,,,96,0,1,,,,,0,,,64,100
414048,note_off,,,,,96,0,2,,,,,1,,,76,0
414048,note_off,,,,,96,0,1,,,,,0,,,64,0
414144,note_on,,,,,96,0,1,,,,,0,,,76,100
414144,note_on,,,,,96,0,2,,,,,1,,,64,100
414240,note_off,,,,,96,0,2,,,,,1,,,64,0
414240,note_off,,,,,96,0,1,,,,,0,,,76,0
414336,note_on,,,,,96,0,2,,,,,1,,,69,100
414336,note_on,,,,,0,0,3,,,,,2,,,62,100
414336,note_off,,,,,384,0,4,,,,,3,,,45,0
414336,note_on,,,,,0,0,4,,,,,3,,,47,100
414336,note_off,,,,,384,0,3,,,,,2,,,60,0
414336,note_on,,,,,96,0,1,,,,,0,,,72,100
414432,note_off,,,,,96,0,2,,,,,1,,,69,0
414432,note_off,,,,,96,0,1,,,,,0,,,72,0
414528,note_on,,,,,0,0,4,,,,,3,,,48,100
414528,note_off,,,,,192,0,4,,,,,3,,,47,0
414528,note_on,,,,,96,0,2,,,,,1,,,72,100
414528,note_on,,,,,96,0,1,,,,,0,,,69,100
414528,note_on,,,,,0,0,3,,,,,2,,,64,100
414528,note_off,,,,,192,0,3,,,,,2,,,62,0
414624,note_off,,,,,96,0,2,,,,,1,,,72,0
414624,note_off,,,,,96,0,1,,,,,0,,,69,0
414720,note_off,,,,,192,0,3,,,,,2,,,64,0
414720,note_on,,,,,0,0,4,,,,,3,,,47,100
414720,note_off,,,,,192,0,4,,,,,3,,,48,0
414720,note_on,,,,,96,0,2,,,,,1,,,75,100
414720,note_on,,,,,96,0,1,,,,,0,,,63,100
414720,note_on,,,,,0,0,3,,,,,2,,,69,100
414816,note_off,,,,,96,0,2,,,,,1,,,75,0
414816,note_off,,,,,96,0,1,,,,,0,,,63,0
414816,note_off,,,,,96,0,3,,,,,2,,,69,0
414912,note_off,,,,,192,0,4,,,,,3,,,47,0
414912,note_on,,,,,96,0,3,,,,,2,,,57,100
414912,note_on,,,,,96,0,2,,,,,1,,,63,100
415008,note_off,,,,,96,0,2,,,,,1,,,63,0
415008,note_off,,,,,96,0,3,,,,,2,,,57,0
415104,note_on,,,,,288,0,1,,,,,0,,,75,100
415104,note_on,,,,,192,0,4,,,,,3,,,59,100
415104,note_on,,,,,96,0,2,,,,,1,,,66,100
415104,note_on,,,,,96,0,3,,,,,2,,,63,100
415200,note_off,,,,,96,0,2,,,,,1,,,66,0
415200,note_off,,,,,96,0,3,,,,,2,,,63,0
415296,note_on,,,,,96,0,3,,,,,2,,,66,100
415296,note_on,,,,,96,0,2,,,,,1,,,69,100
415392,note_off,,,,,96,0,3,,,,,2,,,66,0
415392,note_off,,,,,96,0,2,,,,,1,,,69,0
415488,note_on,,,,,96,0,2,,,,,1,,,75,100
415488,note_on,,,,,96,0,3,,,,,2,,,69,100
415584,note_off,,,,,96,0,2,,,,,1,,,75,0
415584,note_off,,,,,96,0,3,,,,,2,,,69,0
415680,note_on,,,,,96,0,3,,,,,2,,,57,100
415680,note_on,,,,,96,0,2,,,,,1,,,63,100
415776,note_off,,,,,96,0,3,,,,,2,,,57,0
415776,note_off,,,,,96,0,2,,,,,1,,,63,0
415872,note_on,,,,,0,0,1,,,,,0,,,78,100
415872,note_off,,,,,768,0,4,,,,,3,,,59,0
415872,note_off,,,,,768,0,1,,,,,0,,,75,0
415872,note_on,,,,,96,0,2,,,,,1,,,66,100
415872,note_on,,,,,0,0,4,,,,,3,,,60,100
415872,note_on,,,,,96,0,3,,,,,2,,,64,100
415968,note_off,,,,,96,0,3,,,,,2,,,64,0
415968,note_off,,,,,96,0,2,,,,,1,,,66,0
416064,note_on,,,,,96,0,2,,,,,1,,,69,100
416064,note_off,,,,,192,0,1,,,,,0,,,78,0
416064,note_on,,,,,96,0,3,,,,,2,,,66,100
416064,note_on,,,,,0,0,1,,,,,0,,,76,100
416160,note_off,,,,,96,0,3,,,,,2,,,66,0
416160,note_off,,,,,96,0,2,,,,,1,,,69,0
416256,note_off,,,,,384,0,4,,,,,3,,,60,0
416256,note_on,,,,,96,0,3,,,,,2,,,69,100
416256,note_on,,,,,0,0,1,,,,,0,,,75,100
416256,note_off,,,,,192,0,1,,,,,0,,,76,0
416256,note_on,,,,,96,0,2,,,,,1,,,75,100
416256,note_on,,,,,0,0,4,,,,,3,,,59,100
416352,note_off,,,,,96,0,2,,,,,1,,,75,0
416352,note_off,,,,,96,0,3,,,,,2,,,69,0
416448,note_on,,,,,96,0,2,,,,,1,,,63,100
416448,note_off,,,,,192,0,4,,,,,3,,,59,0
416448,note_off,,,,,192,0,1,,,,,0,,,75,0
416448,note_on,,,,,96,0,3,,,,,2,,,57,100
416544,note_off,,,,,96,0,2,,,,,1,,,63,0
416544,note_off,,,,,96,0,3,,,,,2,,,57,0
416640,note_on,,,,,192,0,4,,,,,3,,,47,100
416640,note_on,,,,,96,0,2,,,,,1,,,66,100
416640,note_on,,,,,192,0,1,,,,,0,,,87,100
416640,note_on,,,,,96,0,3,,,,,2,,,63,100
416736,note_off,,,,,96,0,2,,,,,1,,,66,0
416736,note_off,,,,,96,0,3,,,,,2,,,63,0
416832,note_on,,,,,96,0,2,,,,,1,,,69,100
416832,note_on,,,,,96,0,3,,,,,2,,,66,100
416928,note_off,,,,,96,0,3,,,,,2,,,66,0
416928,note_off,,,,,96,0,2,,,,,1,,,69,0
417024,note_on,,,,,96,0,3,,,,,2,,,69,100
417024,note_on,,,,,96,0,2,,,,,1,,,75,100
417120,note_off,,,,,96,0,2,,,,,1,,,75,0
417120,note_off,,,,,96,0,3,,,,,2,,,69,0
417216,note_on,,,,,96,0,2,,,,,1,,,63,100
417216,note_on,,,,,96,0,3,,,,,2,,,57,100
417312,note_off,,,,,96,0,3,,,,,2,,,57,0
417312,note_off,,,,,96,0,2,,,,,1,,,63,0
417408,note_on,,,,,96,0,2,,,,,1,,,66,100
417408,note_off,,,,,768,0,1,,,,,0,,,87,0
417408,note_on,,,,,0,0,1,,,,,0,,,90,100
417408,note_on,,,,,0,0,4,,,,,3,,,48,100
417408,note_off,,,,,768,0,4,,,,,3,,,47,0
417408,note_on,,,,,96,0,3,,,,,2,,,64,100
417504,note_off,,,,,96,0,2,,,,,1,,,66,0
417504,note_off,,,,,96,0,3,,,,,2,,,64,0
417600,note_on,,,,,96,0,3,,,,,2,,,66,100
417600,note_on,,,,,0,0,1,,,,,0,,,88,100
417600,note_off,,,,,192,0,1,,,,,0,,,90,0
417600,note_on,,,,,96,0,2,,,,,1,,,69,100
417696,note_off,,,,,96,0,2,,,,,1,,,69,0
417696,note_off,,,,,96,0,3,,,,,2,,,66,0
417792,note_on,,,,,96,0,3,,,,,2,,,69,100
417792,note_on,,,,,96,0,2,,,,,1,,,75,100
417792,note_off,,,,,192,0,1,,,,,0,,,88,0
417792,note_off,,,,,384,0,4,,,,,3,,,48,0
417792,note_on,,,,,0,0,4,,,,,3,,,47,100
417792,note_on,,,,,0,0,1,,,,,0,,,87,100
417888,note_off,,,,,96,0,2,,,,,1,,,75,0
417888,note_off,,,,,96,0,3,,,,,2,,,69,0
417984,note_off,,,,,192,0,1,,,,,0,,,87,0
417984,note_on,,,,,96,0,3,,,,,2,,,57,100
417984,note_on,,,,,96,0,2,,,,,1,,,63,100
417984,note_off,,,,,192,0,4,,,,,3,,,47,0
418080,note_off,,,,,96,0,2,,,,,1,,,63,0
418080,note_off,,,,,96,0,3,,,,,2,,,57,0
418176,note_on,,,,,192,0,1,,,,,0,,,87,100
418176,note_on,,,,,96,0,3,,,,,2,,,63,100
418176,note_on,,,,,192,0,4,,,,,3,,,59,100
418176,note_on,,,,,96,0,2,,,,,1,,,66,100
418272,note_off,,,,,96,0,3,,,,,2,,,63,0
418272,note_off,,,,,96,0,2,,,,,1,,,66,0
418368,note_on,,,,,96,0,2,,,,,1,,,71,100
418368,note_on,,,,,96,0,3,,,,,2,,,66,100
418464,note_off,,,,,96,0,2,,,,,1,,,71,0
418464,note_off,,,,,96,0,3,,,,,2,,,66,0
418560,note_on,,,,,96,0,2,,,,,1,,,75,100
418560,note_on,,,,,96,0,3,,,,,2,,,69,100
418656,note_off,,,,,96,0,2,,,,,1,,,75,0
418656,note_off,,,,,96,0,3,,,,,2,,,69,0
418752,note_on,,,,,96,0,2,,,,,1,,,66,100
418752,note_on,,,,,96,0,3,,,,,2,,,66,100
418848,note_off,,,,,96,0,3,,,,,2,,,66,0
418848,note_off,,,,,96,0,2,,,,,1,,,66,0
418944,note_on,,,,,96,0,2,,,,,1,,,67,100
418944,note_on,,,,,0,0,4,,,,,3,,,58,100
418944,note_off,,,,,768,0,4,,,,,3,,,59,0
418944,note_on,,,,,0,0,1,,,,,0,,,88,100
418944,note_off,,,,,768,0,1,,,,,0,,,87,0
418944,note_on,,,,,96,0,3,,,,,2,,,61,100
419040,note_off,,,,,96,0,3,,,,,2,,,61,0
419040,note_off,,,,,96,0,2,,,,,1,,,67,0
419136,note_on,,,,,96,0,3,,,,,2,,,64,100
419136,note_on,,,,,96,0,2,,,,,1,,,64,100
419136,note_on,,,,,0,0,1,,,,,0,,,85,100
419136,note_off,,,,,192,0,1,,,,,0,,,88,0
419232,note_off,,,,,96,0,2,,,,,1,,,64,0
419232,note_off,,,,,96,0,3,,,,,2,,,64,0
419328,note_on,,,,,96,0,3,,,,,2,,,59,100
419328,note_on,,,,,96,0,2,,,,,1,,,68,100
419328,note_off,,,,,192,0,1,,,,,0,,,85,0
419328,note_on,,,,,0,0,1,,,,,0,,,83,100
419328,note_off,,,,,384,0,4,,,,,3,,,58,0
419328,note_on,,,,,0,0,4,,,,,3,,,59,100
419424,note_off,,,,,96,0,2,,,,,1,,,68,0
419424,note_off,,,,,96,0,3,,,,,2,,,59,0
419520,note_on,,,,,96,0,2,,,,,1,,,64,100
419520,note_off,,,,,192,0,1,,,,,0,,,83,0
419520,note_on,,,,,96,0,3,,,,,2,,,68,100
419520,note_off,,,,,192,0,4,,,,,3,,,59,0
419616,note_off,,,,,96,0,2,,,,,1,,,64,0
419616,note_off,,,,,96,0,3,,,,,2,,,68,0
419712,note_on,,,,,192,0,1,,,,,0,,,83,100
419712,note_on,,,,,96,0,3,,,,,2,,,64,100
419712,note_on,,,,,96,0,2,,,,,1,,,68,100
419712,note_on,,,,,192,0,4,,,,,3,,,47,100
419808,note_off,,,,,96,0,2,,,,,1,,,68,0
419808,note_off,,,,,96,0,3,,,,,2,,,64,0
419904,note_on,,,,,96,0,2,,,,,1,,,69,100
419904,note_on,,,,,96,0,3,,,,,2,,,66,100
420000,note_off,,,,,96,0,3,,,,,2,,,66,0
420000,note_off,,,,,96,0,2,,,,,1,,,69,0
420096,note_on,,,,,96,0,3,,,,,2,,,68,100
420096,note_on,,,,,96,0,2,,,,,1,,,71,100
420192,note_off,,,,,96,0,3,,,,,2,,,68,0
420192,note_off,,,,,96,0,2,,,,,1,,,71,0
420288,note_on,,,,,96,0,2,,,,,1,,,68,100
420288,note_on,,,,,96,0,3,,,,,2,,,64,100
420384,note_off,,,,,96,0,2,,,,,1,,,68,0
420384,note_off,,,,,96,0,3,,,,,2,,,64,0
420480,note_on,,,,,0,0,1,,,,,0,,,81,100
420480,note_off,,,,,768,0,1,,,,,0,,,83,0
420480,note_on,,,,,96,0,2,,,,,1,,,66,100
420480,note_on,,,,,96,0,3,,,,,2,,,63,100
420576,note_off,,,,,96,0,2,,,,,1,,,66,0
420576,note_off,,,,,96,0,3,,,,,2,,,63,0
420672,note_off,,,,,192,0,1,,,,,0,,,81,0
420672,note_on,,,,,96,0,3,,,,,2,,,59,100
420672,note_on,,,,,96,0,2,,,,,1,,,69,100
420672,note_on,,,,,0,0,1,,,,,0,,,78,100
420768,note_off,,,,,96,0,2,,,,,1,,,69,0
420768,note_off,,,,,96,0,3,,,,,2,,,59,0
420864,note_on,,,,,96,0,2,,,,,1,,,68,100
420864,note_on,,,,,96,0,3,,,,,2,,,64,100
420864,note_on,,,,,0,0,1,,,,,0,,,76,100
420864,note_off,,,,,192,0,1,,,,,0,,,78,0
420864,note_off,,,,,1152,0,4,,,,,3,,,47,0
420864,note_on,,,,,0,0,4,,,,,3,,,52,100
420960,note_off,,,,,96,0,4,,,,,3,,,52,0
421056,note_on,,,,,96,0,4,,,,,3,,,47,100
421056,note_off,,,,,192,0,1,,,,,0,,,76,0
421056,note_off,,,,,192,0,3,,,,,2,,,64,0
421056,note_off,,,,,192,0,2,,,,,1,,,68,0
421152,note_off,,,,,96,0,4,,,,,3,,,47,0
421248,note_on,,,,,96,0,4,,,,,3,,,52,100
421248,note_on,,,,,192,0,3,,,,,2,,,71,100
421248,note_on,,,,,192,0,2,,,,,1,,,80,100
421248,note_on,,,,,192,0,1,,,,,0,,,83,100
421344,note_off,,,,,96,0,4,,,,,3,,,52,0
421440,note_on,,,,,96,0,4,,,,,3,,,56,100
421536,note_off,,,,,96,0,4,,,,,3,,,56,0
421632,note_on,,,,,96,0,4,,,,,3,,,59,100
422016,note_off,,,,,768,0,3,,,,,2,,,71,0
422016,note_on,,,,,0,0,3,,,,,2,,,69,100
422016,note_off,,,,,768,0,2,,,,,1,,,80,0
422016,note_on,,,,,0,0,2,,,,,1,,,78,100
422208,note_on,,,,,0,0,3,,,,,2,,,68,100
422208,note_on,,,,,0,0,2,,,,,1,,,77,100
422208,note_off,,,,,192,0,3,,,,,2,,,69,0
422208,note_off,,,,,192,0,2,,,,,1,,,78,0
422400,note_on,,,,,0,0,3,,,,,2,,,69,100
422400,note_on,,,,,0,0,2,,,,,1,,,78,100
422400,note_off,,,,,192,0,2,,,,,1,,,77,0
422400,note_off,,,,,192,0,3,,,,,2,,,68,0
422592,note_off,,,,,1344,0,1,,,,,0,,,83,0
422592,note_off,,,,,192,0,2,,,,,1,,,78,0
422592,note_on,,,,,0,0,1,,,,,0,,,83,100
422592,note_off,,,,,192,0,3,,,,,2,,,69,0
422688,note_off,,,,,96,0,1,,,,,0,,,83,0
422784,note_on,,,,,96,0,1,,,,,0,,,87,100
422784,note_on,,,,,192,0,3,,,,,2,,,69,100
422784,note_on,,,,,192,0,2,,,,,1,,,78,100
422880,note_off,,,,,96,0,1,,,,,0,,,87,0
422976,note_on,,,,,96,0,1,,,,,0,,,90,100
423072,note_off,,,,,96,0,1,,,,,0,,,90,0
423168,note_on,,,,,96,0,1,,,,,0,,,95,100
423552,note_off,,,,,768,0,3,,,,,2,,,69,0
423552,note_on,,,,,0,0,3,,,,,2,,,68,100
423552,note_on,,,,,0,0,2,,,,,1,,,76,100
423552,note_off,,,,,768,0,2,,,,,1,,,78,0
423744,note_off,,,,,192,0,3,,,,,2,,,68,0
423744,note_on,,,,,0,0,3,,,,,2,,,66,100
423744,note_on,,,,,0,0,2,,,,,1,,,75,100
423744,note_off,,,,,192,0,2,,,,,1,,,76,0
423936,note_on,,,,,0,0,4,,,,,3,,,52,100
423936,note_off,,,,,192,0,2,,,,,1,,,75,0
423936,note_off,,,,,192,0,3,,,,,2,,,66,0
423936,note_off,,,,,2304,0,4,,,,,3,,,59,0
423936,note_off,,,,,768,0,1,,,,,0,,,95,0
423936,note_on,,,,,0,0,3,,,,,2,,,68,100
423936,note_on,,,,,0,0,2,,,,,1,,,76,100
424032,note_off,,,,,96,0,4,,,,,3,,,52,0
424128,note_on,,,,,96,0,4,,,,,3,,,47,100
424128,note_off,,,,,192,0,3,,,,,2,,,68,0
424128,note_off,,,,,192,0,2,,,,,1,,,76,0
424224,note_off,,,,,96,0,4,,,,,3,,,47,0
424320,note_on,,,,,192,0,3,,,,,2,,,71,100
424320,note_on,,,,,192,0,2,,,,,1,,,83,100
424320,note_on,,,,,96,0,4,,,,,3,,,52,100
424320,note_on,,,,,384,0,1,,,,,0,,,92,100
424416,note_off,,,,,96,0,4,,,,,3,,,52,0
424512,note_on,,,,,96,0,4,,,,,3,,,56,100
424608,note_off,,,,,96,0,4,,,,,3,,,56,0
424704,note_on,,,,,96,0,4,,,,,3,,,59,100
425088,note_on,,,,,0,0,1,,,,,0,,,90,100
425088,note_on,,,,,0,0,2,,,,,1,,,81,100
425088,note_off,,,,,768,0,1,,,,,0,,,92,0
425088,note_off,,,,,768,0,2,,,,,1,,,83,0
425280,note_on,,,,,0,0,1,,,,,0,,,89,100
425280,note_off,,,,,192,0,1,,,,,0,,,90,0
425280,note_off,,,,,192,0,2,,,,,1,,,81,0
425280,note_on,,,,,0,0,2,,,,,1,,,80,100
425472,note_off,,,,,1152,0,3,,,,,2,,,71,0
425472,note_off,,,,,192,0,2,,,,,1,,,80,0
425472,note_on,,,,,0,0,2,,,,,1,,,81,100
425472,note_off,,,,,192,0,1,,,,,0,,,89,0
425472,note_on,,,,,0,0,1,,,,,0,,,90,100
425664,note_off,,,,,192,0,2,,,,,1,,,81,0
425664,note_off,,,,,192,0,1,,,,,0,,,90,0
425664,note_on,,,,,192,0,3,,,,,2,,,59,100
425760,note_off,,,,,96,0,3,,,,,2,,,59,0
425856,note_on,,,,,192,0,2,,,,,1,,,81,100
425856,note_on,,,,,192,0,1,,,,,0,,,90,100
425856,note_on,,,,,96,0,3,,,,,2,,,63,100
425952,note_off,,,,,96,0,3,,,,,2,,,63,0
426048,note_on,,,,,96,0,3,,,,,2,,,66,100
426144,note_off,,,,,96,0,3,,,,,2,,,66,0
426240,note_on,,,,,96,0,3,,,,,2,,,69,100
426624,note_off,,,,,768,0,1,,,,,0,,,90,0
426624,note_on,,,,,0,0,2,,,,,1,,,80,100
426624,note_on,,,,,0,0,1,,,,,0,,,88,100
426624,note_off,,,,,768,0,2,,,,,1,,,81,0
426816,note_on,,,,,0,0,1,,,,,0,,,87,100
426816,note_off,,,,,192,0,2,,,,,1,,,80,0
426816,note_on,,,,,0,0,2,,,,,1,,,78,100
426816,note_off,,,,,192,0,1,,,,,0,,,88,0
427008,note_off,,,,,192,0,2,,,,,1,,,78,0
427008,note_on,,,,,0,0,2,,,,,1,,,80,100
427008,note_off,,,,,768,0,3,,,,,2,,,69,0
427008,note_off,,,,,2304,0,4,,,,,3,,,59,0
427008,note_off,,,,,192,0,1,,,,,0,,,87,0
427008,note_on,,,,,0,0,1,,,,,0,,,88,100
427008,note_on,,,,,0,0,4,,,,,3,,,52,100
427104,note_off,,,,,96,0,4,,,,,3,,,52,0
427200,note_on,,,,,96,0,4,,,,,3,,,47,100
427200,note_off,,,,,192,0,2,,,,,1,,,80,0
427200,note_off,,,,,192,0,1,,,,,0,,,88,0
427296,note_off,,,,,96,0,4,,,,,3,,,47,0
427392,note_on,,,,,192,0,2,,,,,1,,,80,100
427392,note_on,,,,,192,0,1,,,,,0,,,83,100
427392,note_on,,,,,96,0,4,,,,,3,,,52,100
427392,note_on,,,,,384,0,3,,,,,2,,,71,100
427488,note_off,,,,,96,0,4,,,,,3,,,52,0
427584,note_on,,,,,96,0,4,,,,,3,,,56,100
427680,note_off,,,,,96,0,4,,,,,3,,,56,0
427776,note_on,,,,,96,0,4,,,,,3,,,59,100
428160,note_off,,,,,768,0,2,,,,,1,,,80,0
428160,note_on,,,,,0,0,2,,,,,1,,,78,100
428160,note_off,,,,,768,0,3,,,,,2,,,71,0
428160,note_on,,,,,0,0,3,,,,,2,,,69,100
428352,note_on,,,,,0,0,2,,,,,1,,,77,100
428352,note_off,,,,,192,0,2,,,,,1,,,78,0
428352,note_off,,,,,192,0,3,,,,,2,,,69,0
428352,note_on,,,,,0,0,3,,,,,2,,,68,100
428544,note_on,,,,,0,0,2,,,,,1,,,78,100
428544,note_off,,,,,192,0,2,,,,,1,,,77,0
428544,note_on,,,,,0,0,3,,,,,2,,,69,100
428544,note_off,,,,,192,0,3,,,,,2,,,68,0
428544,note_off,,,,,1152,0,1,,,,,0,,,83,0
428736,note_off,,,,,192,0,3,,,,,2,,,69,0
428736,note_off,,,,,192,0,2,,,,,1,,,78,0
428736,note_on,,,,,192,0,1,,,,,0,,,83,100
428832,note_off,,,,,96,0,1,,,,,0,,,83,0
428928,note_on,,,,,192,0,3,,,,,2,,,69,100
428928,note_on,,,,,192,0,2,,,,,1,,,78,100
428928,note_on,,,,,96,0,1,,,,,0,,,87,100
429024,note_off,,,,,96,0,1,,,,,0,,,87,0
429120,note_on,,,,,96,0,1,,,,,0,,,90,100
429216,note_off,,,,,96,0,1,,,,,0,,,90,0
429312,note_on,,,,,96,0,1,,,,,0,,,95,100
429696,note_on,,,,,0,0,3,,,,,2,,,68,100
429696,note_off,,,,,768,0,3,,,,,2,,,69,0
429696,note_on,,,,,0,0,2,,,,,1,,,76,100
429696,note_off,,,,,768,0,2,,,,,1,,,78,0
429888,note_off,,,,,192,0,3,,,,,2,,,68,0
429888,note_off,,,,,192,0,2,,,,,1,,,76,0
429888,note_on,,,,,0,0,2,,,,,1,,,75,100
429888,note_on,,,,,0,0,3,,,,,2,,,66,100
430080,note_on,,,,,0,0,3,,,,,2,,,68,100
430080,note_off,,,,,192,0,3,,,,,2,,,66,0
430080,note_off,,,,,768,0,1,,,,,0,,,95,0
430080,note_off,,,,,2304,0,4,,,,,3,,,59,0
430080,note_on,,,,,0,0,2,,,,,1,,,76,100
430080,note_off,,,,,192,0,2,,,,,1,,,75,0
430080,note_on,,,,,0,0,4,,,,,3,,,52,100
430176,note_off,,,,,96,0,4,,,,,3,,,52,0
430272,note_off,,,,,192,0,2,,,,,1,,,76,0
430272,note_off,,,,,192,0,3,,,,,2,,,68,0
430272,note_on,,,,,96,0,4,,,,,3,,,47,100
430368,note_off,,,,,96,0,4,,,,,3,,,47,0
430464,note_on,,,,,384,0,1,,,,,0,,,92,100
430464,note_on,,,,,192,0,3,,,,,2,,,71,100
430464,note_on,,,,,96,0,4,,,,,3,,,52,100
430464,note_on,,,,,192,0,2,,,,,1,,,83,100
430560,note_off,,,,,96,0,4,,,,,3,,,52,0
430656,note_on,,,,,96,0,4,,,,,3,,,56,100
430752,note_off,,,,,96,0,4,,,,,3,,,56,0
430848,note_on,,,,,96,0,4,,,,,3,,,59,100
431232,note_off,,,,,768,0,1,,,,,0,,,92,0
431232,note_off,,,,,768,0,2,,,,,1,,,83,0
431232,note_on,,,,,0,0,2,,,,,1,,,81,100
431232,note_on,,,,,0,0,1,,,,,0,,,90,100
431424,note_on,,,,,0,0,2,,,,,1,,,80,100
431424,note_off,,,,,192,0,2,,,,,1,,,81,0
431424,note_on,,,,,0,0,1,,,,,0,,,88,100
431424,note_off,,,,,192,0,1,,,,,0,,,90,0
431616,note_on,,,,,0,0,2,,,,,1,,,81,100
431616,note_off,,,,,192,0,2,,,,,1,,,80,0
431616,note_off,,,,,1152,0,3,,,,,2,,,71,0
431616,note_on,,,,,0,0,1,,,,,0,,,90,100
431616,note_off,,,,,192,0,1,,,,,0,,,88,0
431808,note_off,,,,,192,0,2,,,,,1,,,81,0
431808,note_off,,,,,192,0,1,,,,,0,,,90,0
431808,note_on,,,,,192,0,3,,,,,2,,,59,100
431904,note_off,,,,,96,0,3,,,,,2,,,59,0
432000,note_on,,,,,192,0,2,,,,,1,,,81,100
432000,note_on,,,,,96,0,3,,,,,2,,,63,100
432000,note_on,,,,,192,0,1,,,,,0,,,90,100
432096,note_off,,,,,96,0,3,,,,,2,,,63,0
432192,note_on,,,,,96,0,3,,,,,2,,,66,100
432288,note_off,,,,,96,0,3,,,,,2,,,66,0
432384,note_on,,,,,96,0,3,,,,,2,,,71,100
432768,note_off,,,,,768,0,1,,,,,0,,,90,0
432768,note_off,,,,,768,0,2,,,,,1,,,81,0
432768,note_on,,,,,0,0,2,,,,,1,,,80,100
432768,note_on,,,,,0,0,1,,,,,0,,,88,100
432960,note_on,,,,,0,0,1,,,,,0,,,87,100
432960,note_off,,,,,192,0,2,,,,,1,,,80,0
432960,note_on,,,,,0,0,2,,,,,1,,,78,100
432960,note_off,,,,,192,0,1,,,,,0,,,88,0
433152,note_off,,,,,192,0,2,,,,,1,,,78,0
433152,note_off,,,,,2304,0,4,,,,,3,,,59,0
433152,note_off,,,,,192,0,1,,,,,0,,,87,0
433152,note_on,,,,,0,0,1,,,,,0,,,88,100
433152,note_on,,,,,0,0,4,,,,,3,,,52,100
433152,note_on,,,,,0,0,3,,,,,2,,,64,100
433152,note_on,,,,,0,0,2,,,,,1,,,80,100
433152,note_off,,,,,768,0,3,,,,,2,,,71,0
433248,note_off,,,,,96,0,1,,,,,0,,,88,0
433344,note_on,,,,,96,0,1,,,,,0,,,76,100
433440,note_off,,,,,96,0,1,,,,,0,,,76,0
433536,note_off,,,,,384,0,4,,,,,3,,,52,0
433536,note_on,,,,,96,0,1,,,,,0,,,80,100
433536,note_off,,,,,384,0,2,,,,,1,,,80,0
433536,note_off,,,,,384,0,3,,,,,2,,,64,0
433632,note_off,,,,,96,0,1,,,,,0,,,80,0
433728,note_on,,,,,96,0,1,,,,,0,,,83,100
433824,note_off,,,,,96,0,1,,,,,0,,,83,0
433920,note_on,,,,,0,0,3,,,,,2,,,64,100
433920,note_on,,,,,384,0,4,,,,,3,,,56,100
433920,note_on,,,,,0,0,2,,,,,1,,,64,100
433920,note_on,,,,,384,0,2,,,,,1,,,71,100
433920,note_on,,,,,96,0,1,,,,,0,,,88,100
433920,note_on,,,,,384,0,3,,,,,2,,,56,100
434016,note_off,,,,,96,0,1,,,,,0,,,88,0
434112,note_on,,,,,96,0,1,,,,,0,,,76,100
434208,note_off,,,,,96,0,1,,,,,0,,,76,0
434304,note_off,,,,,384,0,4,,,,,3,,,56,0
434304,note_off,,,,,384,0,2,,,,,1,,,71,0
434304,note_off,,,,,0,0,2,,,,,1,,,64,0
434304,note_off,,,,,384,0,3,,,,,2,,,56,0
434304,note_off,,,,,0,0,3,,,,,2,,,64,0
434304,note_on,,,,,96,0,1,,,,,0,,,80,100
434400,note_off,,,,,96,0,1,,,,,0,,,80,0
434496,note_on,,,,,96,0,1,,,,,0,,,83,100
434592,note_off,,,,,96,0,1,,,,,0,,,83,0
434688,note_on,,,,,384,0,2,,,,,1,,,73,100
434688,note_on,,,,,384,0,4,,,,,3,,,57,100
434688,note_on,,,,,384,0,3,,,,,2,,,64,100
434688,note_on,,,,,0,0,3,,,,,2,,,57,100
434688,note_on,,,,,0,0,2,,,,,1,,,64,100
434688,note_on,,,,,96,0,1,,,,,0,,,85,100
434784,note_off,,,,,96,0,1,,,,,0,,,85,0
434880,note_on,,,,,96,0,1,,,,,0,,,73,100
434976,note_off,,,,,96,0,1,,,,,0,,,73,0
435072,note_off,,,,,384,0,3,,,,,2,,,64,0
435072,note_off,,,,,0,0,3,,,,,2,,,57,0
435072,note_off,,,,,384,0,4,,,,,3,,,57,0
435072,note_off,,,,,0,0,2,,,,,1,,,64,0
435072,note_off,,,,,384,0,2,,,,,1,,,73,0
435072,note_on,,,,,96,0,1,,,,,0,,,76,100
435168,note_off,,,,,96,0,1,,,,,0,,,76,0
435264,note_on,,,,,96,0,1,,,,,0,,,81,100
435360,note_off,,,,,96,0,1,,,,,0,,,81,0
435456,note_on,,,,,0,0,2,,,,,1,,,57,100
435456,note_on,,,,,384,0,2,,,,,1,,,63,100
435456,note_on,,,,,384,0,4,,,,,3,,,59,100
435456,note_on,,,,,384,0,3,,,,,2,,,54,100
435456,note_on,,,,,0,0,3,,,,,2,,,57,100
435456,note_on,,,,,96,0,1,,,,,0,,,78,100
435552,note_off,,,,,96,0,1,,,,,0,,,78,0
435648,note_on,,,,,96,0,1,,,,,0,,,75,100
435744,note_off,,,,,96,0,1,,,,,0,,,75,0
435840,note_off,,,,,384,0,2,,,,,1,,,63,0
435840,note_off,,,,,384,0,3,,,,,2,,,54,0
435840,note_off,,,,,0,0,3,,,,,2,,,57,0
435840,note_off,,,,,0,0,2,,,,,1,,,57,0
435840,note_on,,,,,96,0,1,,,,,0,,,78,100
435840,note_off,,,,,384,0,4,,,,,3,,,59,0
435936,note_off,,,,,96,0,1,,,,,0,,,78,0
436032,note_on,,,,,96,0,1,,,,,0,,,83,100
436128,note_off,,,,,96,0,1,,,,,0,,,83,0
436224,note_on,,,,,96,0,1,,,,,0,,,80,100
436224,note_on,,,,,384,0,4,,,,,3,,,52,100
436224,note_on,,,,,0,0,2,,,,,1,,,64,100
436224,note_on,,,,,0,0,3,,,,,2,,,52,100
436224,note_on,,,,,384,0,2,,,,,1,,,56,100
436224,note_on,,,,,384,0,3,,,,,2,,,59,100
436320,note_off,,,,,96,0,1,,,,,0,,,80,0
436416,note_on,,,,,96,0,1,,,,,0,,,76,100
436512,note_off,,,,,96,0,1,,,,,0,,,76,0
436608,note_off,,,,,384,0,3,,,,,2,,,59,0
436608,note_off,,,,,0,0,3,,,,,2,,,52,0
436608,note_off,,,,,384,0,2,,,,,1,,,56,0
436608,note_on,,,,,96,0,1,,,,,0,,,80,100
436608,note_off,,,,,0,0,2,,,,,1,,,64,0
436608,note_off,,,,,384,0,4,,,,,3,,,52,0
436704,note_off,,,,,96,0,1,,,,,0,,,80,0
436800,note_on,,,,,96,0,1,,,,,0,,,83,100
436896,note_off,,,,,96,0,1,,,,,0,,,83,0
436992,note_on,,,,,384,0,3,,,,,2,,,64,100
436992,note_on,,,,,0,0,2,,,,,1,,,71,100
436992,note_on,,,,,384,0,4,,,,,3,,,56,100
436992,note_on,,,,,96,0,1,,,,,0,,,88,100
436992,note_on,,,,,384,0,2,,,,,1,,,64,100
436992,note_on,,,,,0,0,3,,,,,2,,,56,100
437088,note_off,,,,,96,0,2,,,,,1,,,64,0
437088,note_off,,,,,0,0,2,,,,,1,,,71,0
437088,note_off,,,,,96,0,4,,,,,3,,,56,0
437088,note_off,,,,,96,0,1,,,,,0,,,88,0
437088,note_off,,,,,0,0,3,,,,,2,,,56,0
437088,note_off,,,,,96,0,3,,,,,2,,,64,0
437184,note_on,,,,,96,0,2,,,,,1,,,64,100
437184,note_on,,,,,0,0,2,,,,,1,,,71,100
437184,note_on,,,,,96,0,1,,,,,0,,,76,100
437184,note_on,,,,,96,0,4,,,,,3,,,56,100
437184,note_on,,,,,96,0,3,,,,,2,,,56,100
437184,note_on,,,,,0,0,3,,,,,2,,,64,100
437280,note_off,,,,,96,0,3,,,,,2,,,56,0
437280,note_off,,,,,0,0,3,,,,,2,,,64,0
437280,note_off,,,,,96,0,2,,,,,1,,,64,0
437280,note_off,,,,,96,0,1,,,,,0,,,76,0
437280,note_off,,,,,96,0,4,,,,,3,,,56,0
437280,note_off,,,,,0,0,2,,,,,1,,,71,0
437376,note_on,,,,,96,0,2,,,,,1,,,64,100
437376,note_on,,,,,0,0,2,,,,,1,,,71,100
437376,note_on,,,,,96,0,1,,,,,0,,,80,100
437376,note_on,,,,,96,0,4,,,,,3,,,56,100
437376,note_on,,,,,96,0,3,,,,,2,,,56,100
437376,note_on,,,,,0,0,3,,,,,2,,,64,100
437472,note_off,,,,,96,0,4,,,,,3,,,56,0
437472,note_off,,,,,96,0,1,,,,,0,,,80,0
437472,note_off,,,,,0,0,3,,,,,2,,,64,0
437472,note_off,,,,,0,0,2,,,,,1,,,71,0
437472,note_off,,,,,96,0,2,,,,,1,,,64,0
437472,note_off,,,,,96,0,3,,,,,2,,,56,0
437568,note_on,,,,,96,0,1,,,,,0,,,83,100
437664,note_off,,,,,96,0,1,,,,,0,,,83,0
437760,note_on,,,,,96,0,1,,,,,0,,,85,100
437760,note_on,,,,,0,0,2,,,,,1,,,64,100
437760,note_on,,,,,288,0,2,,,,,1,,,73,100
437760,note_on,,,,,288,0,4,,,,,3,,,57,100
437760,note_on,,,,,0,0,3,,,,,2,,,57,100
437760,note_on,,,,,288,0,3,,,,,2,,,64,100
437856,note_off,,,,,96,0,4,,,,,3,,,57,0
437856,note_off,,,,,96,0,1,,,,,0,,,85,0
437856,note_off,,,,,0,0,2,,,,,1,,,64,0
437856,note_off,,,,,96,0,3,,,,,2,,,64,0
437856,note_off,,,,,0,0,3,,,,,2,,,57,0
437856,note_off,,,,,96,0,2,,,,,1,,,73,0
437952,note_on,,,,,0,0,2,,,,,1,,,64,100
437952,note_on,,,,,96,0,2,,,,,1,,,73,100
437952,note_on,,,,,96,0,4,,,,,3,,,57,100
437952,note_on,,,,,96,0,3,,,,,2,,,57,100
437952,note_on,,,,,0,0,3,,,,,2,,,64,100
437952,note_on,,,,,96,0,1,,,,,0,,,73,100
438048,note_off,,,,,96,0,3,,,,,2,,,57,0
438048,note_off,,,,,96,0,2,,,,,1,,,73,0
438048,note_off,,,,,96,0,4,,,,,3,,,57,0
438048,note_off,,,,,0,0,2,,,,,1,,,64,0
438048,note_off,,,,,0,0,3,,,,,2,,,64,0
438048,note_off,,,,,96,0,1,,,,,0,,,73,0
438144,note_on,,,,,0,0,3,,,,,2,,,64,100
438144,note_on,,,,,96,0,4,,,,,3,,,57,100
438144,note_on,,,,,96,0,1,,,,,0,,,76,100
438144,note_on,,,,,96,0,3,,,,,2,,,57,100
438144,note_on,,,,,96,0,2,,,,,1,,,73,100
438144,note_on,,,,,0,0,2,,,,,1,,,64,100
438240,note_off,,,,,0,0,3,,,,,2,,,64,0
438240,note_off,,,,,96,0,4,,,,,3,,,57,0
438240,note_off,,,,,96,0,2,,,,,1,,,73,0
438240,note_off,,,,,0,0,2,,,,,1,,,64,0
438240,note_off,,,,,96,0,3,,,,,2,,,57,0
438240,note_off,,,,,96,0,1,,,,,0,,,76,0
438336,note_on,,,,,96,0,1,,,,,0,,,81,100
438432,note_off,,,,,96,0,1,,,,,0,,,81,0
438528,note_on,,,,,96,0,1,,,,,0,,,78,100
438528,note_on,,,,,288,0,3,,,,,2,,,54,100
438528,note_on,,,,,288,0,2,,,,,1,,,57,100
438528,note_on,,,,,0,0,2,,,,,1,,,63,100
438528,note_on,,,,,288,0,4,,,,,3,,,47,100
438624,note_off,,,,,96,0,2,,,,,1,,,57,0
438624,note_off,,,,,0,0,2,,,,,1,,,63,0
438624,note_off,,,,,96,0,1,,,,,0,,,78,0
438624,note_off,,,,,96,0,3,,,,,2,,,54,0
438624,note_off,,,,,96,0,4,,,,,3,,,47,0
438720,note_on,,,,,96,0,1,,,,,0,,,75,100
438720,note_on,,,,,96,0,3,,,,,2,,,54,100
438720,note_on,,,,,96,0,2,,,,,1,,,63,100
438720,note_on,,,,,96,0,4,,,,,3,,,47,100
438720,note_on,,,,,0,0,2,,,,,1,,,57,100
438816,note_off,,,,,96,0,1,,,,,0,,,75,0
438816,note_off,,,,,96,0,3,,,,,2,,,54,0
438816,note_off,,,,,0,0,2,,,,,1,,,57,0
438816,note_off,,,,,96,0,2,,,,,1,,,63,0
438816,note_off,,,,,96,0,4,,,,,3,,,47,0
438912,note_on,,,,,96,0,4,,,,,3,,,47,100
438912,note_on,,,,,96,0,3,,,,,2,,,54,100
438912,note_on,,,,,96,0,1,,,,,0,,,78,100
438912,note_on,,,,,0,0,2,,,,,1,,,63,100
438912,note_on,,,,,96,0,2,,,,,1,,,57,100
439008,note_off,,,,,96,0,1,,,,,0,,,78,0
439008,note_off,,,,,96,0,3,,,,,2,,,54,0
439008,note_off,,,,,96,0,2,,,,,1,,,57,0
439008,note_off,,,,,96,0,4,,,,,3,,,47,0
439008,note_off,,,,,0,0,2,,,,,1,,,63,0
439104,note_on,,,,,96,0,1,,,,,0,,,83,100
439200,note_off,,,,,96,0,1,,,,,0,,,83,0
439296,note_on,,,,,96,0,1,,,,,0,,,78,100
439392,note_off,,,,,96,0,1,,,,,0,,,78,0
439488,note_on,,,,,96,0,1,,,,,0,,,75,100
439584,note_off,,,,,96,0,1,,,,,0,,,75,0
439680,note_on,,,,,96,0,1,,,,,0,,,78,100
439776,note_off,,,,,96,0,1,,,,,0,,,78,0
439872,note_on,,,,,96,0,1,,,,,0,,,83,100
439968,note_off,,,,,96,0,1,,,,,0,,,83,0
440064,note_on,,,,,96,0,1,,,,,0,,,78,100
440160,note_off,,,,,96,0,1,,,,,0,,,78,0
440256,note_on,,,,,96,0,1,,,,,0,,,75,100
440352,note_off,,,,,96,0,1,,,,,0,,,75,0
440448,note_on,,,,,96,0,1,,,,,0,,,78,100
440544,note_off,,,,,96,0,1,,,,,0,,,78,0
440640,note_on,,,,,96,0,1,,,,,0,,,83,100
440736,note_off,,,,,96,0,1,,,,,0,,,83,0
440832,note_on,,,,,96,0,1,,,,,0,,,83,100
440928,note_off,,,,,96,0,1,,,,,0,,,83,0
441024,note_on,,,,,96,0,1,,,,,0,,,78,100
441120,note_off,,,,,96,0,1,,,,,0,,,78,0
441216,note_on,,,,,96,0,1,,,,,0,,,83,100
441312,note_off,,,,,96,0,1,,,,,0,,,83,0
441408,note_on,,,,,96,0,1,,,,,0,,,87,100
441504,note_off,,,,,96,0,1,,,,,0,,,87,0
441600,note_on,,,,,96,0,1,,,,,0,,,87,100
441696,note_off,,,,,96,0,1,,,,,0,,,87,0
441792,note_on,,,,,96,0,1,,,,,0,,,83,100
441888,note_off,,,,,96,0,1,,,,,0,,,83,0
441984,note_on,,,,,96,0,1,,,,,0,,,87,100
442080,note_off,,,,,96,0,1,,,,,0,,,87,0
442176,note_on,,,,,96,0,1,,,,,0,,,90,100
442272,note_off,,,,,96,0,1,,,,,0,,,90,0
442368,note_on,,,,,96,0,1,,,,,0,,,90,100
442464,note_off,,,,,96,0,1,,,,,0,,,90,0
442560,note_on,,,,,96,0,1,,,,,0,,,87,100
442656,note_off,,,,,96,0,1,,,,,0,,,87,0
442752,note_on,,,,,3744,0,3,,,,,2,,,57,100
442752,note_on,,,,,96,0,1,,,,,0,,,90,100
442752,note_on,,,,,3744,0,4,,,,,3,,,54,100
442848,note_off,,,,,96,0,1,,,,,0,,,90,0
442896,note_off,,,,,144,0,4,,,,,3,,,54,0
442944,note_on,,,,,96,0,1,,,,,0,,,95,100
443040,note_off,,,,,96,0,1,,,,,0,,,95,0
443136,note_on,,,,,96,0,1,,,,,0,,,90,100
443232,note_off,,,,,96,0,1,,,,,0,,,90,0
443328,note_on,,,,,0,0,3,,,,,2,,,56,100
443328,note_on,,,,,432,0,4,,,,,3,,,52,100
443328,note_on,,,,,96,0,1,,,,,0,,,83,100
443328,note_off,,,,,576,0,3,,,,,2,,,57,0
443424,note_off,,,,,96,0,1,,,,,0,,,83,0
443424,note_off,,,,,96,0,4,,,,,3,,,52,0
443520,note_on,,,,,96,0,4,,,,,3,,,47,100
443520,note_on,,,,,0,0,3,,,,,2,,,54,100
443520,note_off,,,,,192,0,3,,,,,2,,,56,0
443520,note_on,,,,,96,0,1,,,,,0,,,90,100
443616,note_off,,,,,96,0,4,,,,,3,,,47,0
443616,note_off,,,,,96,0,1,,,,,0,,,90,0
443712,note_on,,,,,96,0,1,,,,,0,,,95,100
443712,note_on,,,,,96,0,4,,,,,3,,,52,100
443712,note_on,,,,,0,0,3,,,,,2,,,56,100
443712,note_off,,,,,192,0,3,,,,,2,,,54,0
443808,note_off,,,,,96,0,4,,,,,3,,,52,0
443808,note_off,,,,,96,0,1,,,,,0,,,95,0
443904,note_on,,,,,96,0,1,,,,,0,,,90,100
443904,note_off,,,,,192,0,3,,,,,2,,,56,0
443904,note_on,,,,,96,0,4,,,,,3,,,54,100
443904,note_on,,,,,0,0,3,,,,,2,,,57,100
444000,note_off,,,,,96,0,4,,,,,3,,,54,0
444000,note_off,,,,,96,0,1,,,,,0,,,90,0
444096,note_on,,,,,96,0,1,,,,,0,,,87,100
444096,note_off,,,,,192,0,3,,,,,2,,,57,0
444192,note_off,,,,,96,0,1,,,,,0,,,87,0
444288,note_on,,,,,5280,0,2,,,,,1,,,69,100
444288,note_on,,,,,192,0,3,,,,,2,,,66,100
444288,note_on,,,,,96,0,1,,,,,0,,,90,100
444384,note_off,,,,,96,0,1,,,,,0,,,90,0
444480,note_on,,,,,96,0,1,,,,,0,,,95,100
444576,note_off,,,,,96,0,1,,,,,0,,,95,0
444672,note_on,,,,,96,0,1,,,,,0,,,90,100
444768,note_off,,,,,96,0,1,,,,,0,,,90,0
444864,note_off,,,,,576,0,3,,,,,2,,,66,0
444864,note_on,,,,,0,0,2,,,,,1,,,68,100
444864,note_off,,,,,576,0,2,,,,,1,,,69,0
444864,note_on,,,,,0,0,3,,,,,2,,,64,100
444864,note_on,,,,,96,0,1,,,,,0,,,83,100
444960,note_off,,,,,96,0,1,,,,,0,,,83,0
445056,note_on,,,,,0,0,3,,,,,2,,,59,100
445056,note_on,,,,,96,0,1,,,,,0,,,90,100
445056,note_off,,,,,192,0,2,,,,,1,,,68,0
445056,note_off,,,,,192,0,3,,,,,2,,,64,0
445056,note_on,,,,,0,0,2,,,,,1,,,66,100
445152,note_off,,,,,96,0,1,,,,,0,,,90,0
445248,note_on,,,,,96,0,1,,,,,0,,,95,100
445248,note_on,,,,,0,0,3,,,,,2,,,64,100
445248,note_off,,,,,192,0,3,,,,,2,,,59,0
445248,note_off,,,,,192,0,2,,,,,1,,,66,0
445248,note_on,,,,,0,0,2,,,,,1,,,68,100
445344,note_off,,,,,96,0,1,,,,,0,,,95,0
445440,note_on,,,,,0,0,2,,,,,1,,,69,100
445440,note_off,,,,,192,0,2,,,,,1,,,68,0
445440,note_on,,,,,96,0,1,,,,,0,,,90,100
445440,note_off,,,,,192,0,3,,,,,2,,,64,0
445440,note_on,,,,,0,0,3,,,,,2,,,66,100
445536,note_off,,,,,96,0,1,,,,,0,,,90,0
445632,note_on,,,,,96,0,1,,,,,0,,,87,100
445728,note_off,,,,,96,0,1,,,,,0,,,87,0
445824,note_on,,,,,96,0,1,,,,,0,,,90,100
445920,note_off,,,,,96,0,1,,,,,0,,,90,0
446016,note_on,,,,,96,0,1,,,,,0,,,95,100
446112,note_off,,,,,96,0,1,,,,,0,,,95,0
446208,note_on,,,,,96,0,1,,,,,0,,,90,100
446208,note_on,,,,,2208,0,4,,,,,3,,,57,100
446208,note_off,,,,,768,0,2,,,,,1,,,69,0
446208,note_on,,,,,0,0,2,,,,,1,,,63,100
446304,note_off,,,,,96,0,1,,,,,0,,,90,0
446304,note_off,,,,,96,0,4,,,,,3,,,57,0
446400,note_on,,,,,96,0,1,,,,,0,,,87,100
446496,note_off,,,,,96,0,1,,,,,0,,,87,0
446592,note_on,,,,,96,0,1,,,,,0,,,90,100
446688,note_off,,,,,96,0,1,,,,,0,,,90,0
446784,note_on,,,,,96,0,1,,,,,0,,,95,100
446880,note_off,,,,,96,0,1,,,,,0,,,95,0
446976,note_on,,,,,0,0,3,,,,,2,,,64,100
446976,note_off,,,,,768,0,2,,,,,1,,,63,0
446976,note_on,,,,,0,0,2,,,,,1,,,64,100
446976,note_off,,,,,1536,0,3,,,,,2,,,66,0
446976,note_on,,,,,672,0,4,,,,,3,,,56,100
446976,note_on,,,,,96,0,1,,,,,0,,,92,100
447072,note_off,,,,,96,0,4,,,,,3,,,56,0
447072,note_off,,,,,96,0,1,,,,,0,,,92,0
447168,note_on,,,,,96,0,1,,,,,0,,,88,100
447264,note_off,,,,,96,0,1,,,,,0,,,88,0
447360,note_on,,,,,96,0,1,,,,,0,,,92,100
447456,note_off,,,,,96,0,1,,,,,0,,,92,0
447552,note_on,,,,,96,0,1,,,,,0,,,95,100
447648,note_off,,,,,96,0,1,,,,,0,,,95,0
447744,note_off,,,,,768,0,2,,,,,1,,,64,0
447744,note_on,,,,,0,0,3,,,,,2,,,63,100
447744,note_off,,,,,768,0,3,,,,,2,,,64,0
447744,note_on,,,,,0,0,2,,,,,1,,,66,100
447744,note_on,,,,,672,0,4,,,,,3,,,59,100
447744,note_on,,,,,96,0,1,,,,,0,,,93,100
447840,note_off,,,,,96,0,4,,,,,3,,,59,0
447840,note_off,,,,,96,0,1,,,,,0,,,93,0
447936,note_on,,,,,96,0,1,,,,,0,,,90,100
448032,note_off,,,,,96,0,1,,,,,0,,,90,0
448128,note_on,,,,,96,0,1,,,,,0,,,93,100
448224,note_off,,,,,96,0,1,,,,,0,,,93,0
448320,note_on,,,,,96,0,1,,,,,0,,,95,100
448416,note_off,,,,,96,0,1,,,,,0,,,95,0
448512,note_off,,,,,768,0,2,,,,,1,,,66,0
448512,note_on,,,,,96,0,1,,,,,0,,,88,100
448512,note_on,,,,,0,0,2,,,,,1,,,64,100
448512,note_on,,,,,672,0,4,,,,,3,,,52,100
448512,note_off,,,,,768,0,3,,,,,2,,,63,0
448512,note_on,,,,,0,0,3,,,,,2,,,64,100
448608,note_off,,,,,96,0,3,,,,,2,,,64,0
448608,note_off,,,,,96,0,2,,,,,1,,,64,0
448608,note_off,,,,,96,0,4,,,,,3,,,52,0
448704,note_on,,,,,96,0,3,,,,,2,,,52,100
448704,note_on,,,,,96,0,2,,,,,1,,,56,100
448704,note_off,,,,,192,0,1,,,,,0,,,88,0
448800,note_off,,,,,96,0,3,,,,,2,,,52,0
448800,note_off,,,,,96,0,2,,,,,1,,,56,0
448896,note_on,,,,,96,0,2,,,,,1,,,59,100
448896,note_on,,,,,288,0,4,,,,,3,,,52,100
448896,note_on,,,,,192,0,1,,,,,0,,,80,100
448896,note_on,,,,,96,0,3,,,,,2,,,56,100
448992,note_off,,,,,96,0,3,,,,,2,,,56,0
448992,note_off,,,,,96,0,2,,,,,1,,,59,0
448992,note_off,,,,,96,0,4,,,,,3,,,52,0
449088,note_on,,,,,96,0,2,,,,,1,,,64,100
449088,note_on,,,,,96,0,3,,,,,2,,,59,100
449184,note_off,,,,,96,0,3,,,,,2,,,59,0
449184,note_off,,,,,96,0,2,,,,,1,,,64,0
449280,note_on,,,,,96,0,3,,,,,2,,,56,100
449280,note_on,,,,,96,0,2,,,,,1,,,59,100
449376,note_off,,,,,96,0,2,,,,,1,,,59,0
449376,note_off,,,,,96,0,3,,,,,2,,,56,0
449472,note_on,,,,,96,0,2,,,,,1,,,56,100
449472,note_on,,,,,0,0,1,,,,,0,,,76,100
449472,note_on,,,,,96,0,3,,,,,2,,,52,100
449472,note_off,,,,,576,0,1,,,,,0,,,80,0
449568,note_off,,,,,96,0,3,,,,,2,,,52,0
449568,note_off,,,,,96,0,2,,,,,1,,,56,0
449664,note_on,,,,,672,0,4,,,,,3,,,56,100
449664,note_on,,,,,96,0,3,,,,,2,,,56,100
449664,note_on,,,,,96,0,2,,,,,1,,,59,100
449664,note_off,,,,,192,0,1,,,,,0,,,76,0
449664,note_on,,,,,0,0,1,,,,,0,,,68,100
449760,note_off,,,,,96,0,3,,,,,2,,,56,0
449760,note_off,,,,,96,0,2,,,,,1,,,59,0
449760,note_off,,,,,96,0,4,,,,,3,,,56,0
449856,note_on,,,,,96,0,3,,,,,2,,,59,100
449856,note_on,,,,,96,0,2,,,,,1,,,64,100
449856,note_off,,,,,192,0,1,,,,,0,,,68,0
449856,note_on,,,,,0,0,1,,,,,0,,,69,100
449952,note_off,,,,,96,0,2,,,,,1,,,64,0
449952,note_off,,,,,96,0,3,,,,,2,,,59,0
450048,note_on,,,,,0,0,1,,,,,0,,,71,100
450048,note_on,,,,,96,0,2,,,,,1,,,59,100
450048,note_on,,,,,96,0,3,,,,,2,,,57,100
450048,note_off,,,,,192,0,1,,,,,0,,,69,0
450048,note_on,,,,,288,0,4,,,,,3,,,47,100
450144,note_off,,,,,96,0,4,,,,,3,,,47,0
450144,note_off,,,,,96,0,3,,,,,2,,,57,0
450144,note_off,,,,,96,0,2,,,,,1,,,59,0
450240,note_on,,,,,96,0,3,,,,,2,,,54,100
450240,note_on,,,,,96,0,2,,,,,1,,,57,100
450240,note_off,,,,,192,0,1,,,,,0,,,71,0
450336,note_off,,,,,96,0,2,,,,,1,,,57,0
450336,note_off,,,,,96,0,3,,,,,2,,,54,0
450432,note_on,,,,,96,0,2,,,,,1,,,59,100
450432,note_on,,,,,192,0,1,,,,,0,,,83,100
450432,note_on,,,,,288,0,4,,,,,3,,,51,100
450432,note_on,,,,,96,0,3,,,,,2,,,57,100
450528,note_off,,,,,96,0,4,,,,,3,,,51,0
450528,note_off,,,,,96,0,3,,,,,2,,,57,0
450528,note_off,,,,,96,0,2,,,,,1,,,59,0
450624,note_on,,,,,96,0,4,,,,,3,,,54,100
450624,note_on,,,,,96,0,3,,,,,2,,,59,100
450624,note_on,,,,,96,0,2,,,,,1,,,63,100
450720,note_off,,,,,96,0,2,,,,,1,,,63,0
450720,note_off,,,,,96,0,3,,,,,2,,,59,0
450720,note_off,,,,,96,0,4,,,,,3,,,54,0
450816,note_on,,,,,96,0,4,,,,,3,,,57,100
450816,note_on,,,,,96,0,2,,,,,1,,,59,100
450816,note_on,,,,,96,0,3,,,,,2,,,57,100
450912,note_off,,,,,96,0,2,,,,,1,,,59,0
450912,note_off,,,,,96,0,3,,,,,2,,,57,0
450912,note_off,,,,,96,0,4,,,,,3,,,57,0
451008,note_on,,,,,96,0,2,,,,,1,,,57,100
451008,note_on,,,,,96,0,3,,,,,2,,,54,100
451104,note_off,,,,,96,0,2,,,,,1,,,57,0
451104,note_off,,,,,96,0,3,,,,,2,,,54,0
451200,note_off,,,,,768,0,1,,,,,0,,,83,0
451200,note_on,,,,,96,0,2,,,,,1,,,59,100
451200,note_on,,,,,288,0,4,,,,,3,,,47,100
451200,note_on,,,,,96,0,3,,,,,2,,,57,100
451200,note_on,,,,,0,0,1,,,,,0,,,75,100
451296,note_off,,,,,96,0,2,,,,,1,,,59,0
451296,note_off,,,,,96,0,4,,,,,3,,,47,0
451296,note_off,,,,,96,0,3,,,,,2,,,57,0
451392,note_on,,,,,96,0,3,,,,,2,,,59,100
451392,note_on,,,,,96,0,2,,,,,1,,,63,100
451488,note_off,,,,,96,0,3,,,,,2,,,59,0
451488,note_off,,,,,96,0,2,,,,,1,,,63,0
451584,note_off,,,,,384,0,1,,,,,0,,,75,0
451584,note_on,,,,,96,0,2,,,,,1,,,59,100
451584,note_on,,,,,0,0,1,,,,,0,,,76,100
451584,note_on,,,,,96,0,3,,,,,2,,,56,100
451584,note_on,,,,,288,0,4,,,,,3,,,40,100
451680,note_off,,,,,96,0,2,,,,,1,,,59,0
451680,note_off,,,,,96,0,3,,,,,2,,,56,0
451680,note_off,,,,,96,0,4,,,,,3,,,40,0
451776,note_off,,,,,192,0,1,,,,,0,,,76,0
451776,note_on,,,,,96,0,3,,,,,2,,,52,100
451776,note_on,,,,,96,0,2,,,,,1,,,56,100
451872,note_off,,,,,96,0,3,,,,,2,,,52,0
451872,note_off,,,,,96,0,2,,,,,1,,,56,0
451968,note_on,,,,,96,0,3,,,,,2,,,56,100
451968,note_on,,,,,96,0,2,,,,,1,,,59,100
451968,note_on,,,,,288,0,4,,,,,3,,,52,100
451968,note_on,,,,,192,0,1,,,,,0,,,80,100
452064,note_off,,,,,96,0,3,,,,,2,,,56,0
452064,note_off,,,,,96,0,2,,,,,1,,,59,0
452064,note_off,,,,,96,0,4,,,,,3,,,52,0
452160,note_on,,,,,96,0,3,,,,,2,,,59,100
452160,note_on,,,,,96,0,2,,,,,1,,,64,100
452256,note_off,,,,,96,0,2,,,,,1,,,64,0
452256,note_off,,,,,96,0,3,,,,,2,,,59,0
452352,note_on,,,,,96,0,3,,,,,2,,,56,100
452352,note_on,,,,,96,0,2,,,,,1,,,59,100
452448,note_off,,,,,96,0,2,,,,,1,,,59,0
452448,note_off,,,,,96,0,3,,,,,2,,,56,0
452544,note_off,,,,,576,0,1,,,,,0,,,80,0
452544,note_on,,,,,96,0,3,,,,,2,,,52,100
452544,note_on,,,,,96,0,2,,,,,1,,,56,100
452544,note_on,,,,,0,0,1,,,,,0,,,76,100
452640,note_off,,,,,96,0,3,,,,,2,,,52,0
452640,note_off,,,,,96,0,2,,,,,1,,,56,0
452736,note_on,,,,,0,0,1,,,,,0,,,68,100
452736,note_on,,,,,672,0,4,,,,,3,,,56,100
452736,note_on,,,,,96,0,3,,,,,2,,,56,100
452736,note_on,,,,,96,0,2,,,,,1,,,59,100
452736,note_off,,,,,192,0,1,,,,,0,,,76,0
452832,note_off,,,,,96,0,4,,,,,3,,,56,0
452832,note_off,,,,,96,0,3,,,,,2,,,56,0
452832,note_off,,,,,96,0,2,,,,,1,,,59,0
452928,note_off,,,,,192,0,1,,,,,0,,,68,0
452928,note_on,,,,,0,0,1,,,,,0,,,69,100
452928,note_on,,,,,96,0,3,,,,,2,,,59,100
452928,note_on,,,,,96,0,2,,,,,1,,,64,100
453024,note_off,,,,,96,0,3,,,,,2,,,59,0
453024,note_off,,,,,96,0,2,,,,,1,,,64,0
453120,note_on,,,,,0,0,1,,,,,0,,,71,100
453120,note_on,,,,,288,0,4,,,,,3,,,47,100
453120,note_on,,,,,96,0,2,,,,,1,,,59,100
453120,note_on,,,,,96,0,3,,,,,2,,,57,100
453120,note_off,,,,,192,0,1,,,,,0,,,69,0
453216,note_off,,,,,96,0,4,,,,,3,,,47,0
453216,note_off,,,,,96,0,3,,,,,2,,,57,0
453216,note_off,,,,,96,0,2,,,,,1,,,59,0
453312,note_off,,,,,192,0,1,,,,,0,,,71,0
453312,note_on,,,,,96,0,3,,,,,2,,,54,100
453312,note_on,,,,,96,0,2,,,,,1,,,57,100
453408,note_off,,,,,96,0,3,,,,,2,,,54,0
453408,note_off,,,,,96,0,2,,,,,1,,,57,0
453504,note_on,,,,,96,0,2,,,,,1,,,59,100
453504,note_on,,,,,288,0,4,,,,,3,,,51,100
453504,note_on,,,,,192,0,1,,,,,0,,,83,100
453504,note_on,,,,,96,0,3,,,,,2,,,57,100
453600,note_off,,,,,96,0,2,,,,,1,,,59,0
453600,note_off,,,,,96,0,4,,,,,3,,,51,0
453600,note_off,,,,,96,0,3,,,,,2,,,57,0
453696,note_on,,,,,96,0,2,,,,,1,,,63,100
453696,note_on,,,,,96,0,4,,,,,3,,,54,100
453696,note_on,,,,,96,0,3,,,,,2,,,59,100
453792,note_off,,,,,96,0,3,,,,,2,,,59,0
453792,note_off,,,,,96,0,4,,,,,3,,,54,0
453792,note_off,,,,,96,0,2,,,,,1,,,63,0
453888,note_on,,,,,96,0,2,,,,,1,,,59,100
453888,note_on,,,,,96,0,4,,,,,3,,,57,100
453888,note_on,,,,,96,0,3,,,,,2,,,57,100
453984,note_off,,,,,96,0,3,,,,,2,,,57,0
453984,note_off,,,,,96,0,2,,,,,1,,,59,0
453984,note_off,,,,,96,0,4,,,,,3,,,57,0
454080,note_on,,,,,96,0,3,,,,,2,,,54,100
454080,note_on,,,,,96,0,2,,,,,1,,,57,100
454176,note_off,,,,,96,0,3,,,,,2,,,54,0
454176,note_off,,,,,96,0,2,,,,,1,,,57,0
454272,note_on,,,,,96,0,2,,,,,1,,,59,100
454272,note_on,,,,,288,0,4,,,,,3,,,47,100
454272,note_on,,,,,0,0,1,,,,,0,,,75,100
454272,note_off,,,,,768,0,1,,,,,0,,,83,0
454272,note_on,,,,,96,0,3,,,,,2,,,57,100
454368,note_off,,,,,96,0,4,,,,,3,,,47,0
454368,note_off,,,,,96,0,3,,,,,2,,,57,0
454368,note_off,,,,,96,0,2,,,,,1,,,59,0
454464,note_on,,,,,96,0,3,,,,,2,,,59,100
454464,note_on,,,,,96,0,2,,,,,1,,,63,100
454560,note_off,,,,,96,0,2,,,,,1,,,63,0
454560,note_off,,,,,96,0,3,,,,,2,,,59,0
454656,note_on,,,,,96,0,3,,,,,2,,,57,100
454656,note_off,,,,,384,0,1,,,,,0,,,75,0
454656,note_on,,,,,96,0,2,,,,,1,,,59,100
454752,note_off,,,,,96,0,3,,,,,2,,,57,0
454752,note_off,,,,,96,0,2,,,,,1,,,59,0
454848,note_on,,,,,96,0,3,,,,,2,,,54,100
454848,note_on,,,,,96,0,2,,,,,1,,,57,100
454944,note_off,,,,,96,0,2,,,,,1,,,57,0
454944,note_off,,,,,96,0,3,,,,,2,,,54,0
455040,note_on,,,,,96,0,2,,,,,1,,,59,100
455040,note_on,,,,,672,0,4,,,,,3,,,51,100
455040,note_on,,,,,384,0,1,,,,,0,,,83,100
455040,note_on,,,,,96,0,3,,,,,2,,,57,100
455136,note_off,,,,,96,0,4,,,,,3,,,51,0
455136,note_off,,,,,96,0,3,,,,,2,,,57,0
455136,note_off,,,,,96,0,2,,,,,1,,,59,0
455232,note_on,,,,,96,0,3,,,,,2,,,59,100
455232,note_on,,,,,96,0,4,,,,,3,,,54,100
455232,note_on,,,,,96,0,2,,,,,1,,,63,100
455328,note_off,,,,,96,0,3,,,,,2,,,59,0
455328,note_off,,,,,96,0,4,,,,,3,,,54,0
455328,note_off,,,,,96,0,2,,,,,1,,,63,0
455424,note_on,,,,,96,0,4,,,,,3,,,57,100
455424,note_on,,,,,96,0,3,,,,,2,,,57,100
455424,note_on,,,,,96,0,2,,,,,1,,,59,100
455520,note_off,,,,,96,0,2,,,,,1,,,59,0
455520,note_off,,,,,96,0,4,,,,,3,,,57,0
455520,note_off,,,,,96,0,3,,,,,2,,,57,0
455616,note_on,,,,,96,0,2,,,,,1,,,57,100
455616,note_on,,,,,96,0,3,,,,,2,,,54,100
455712,note_off,,,,,96,0,2,,,,,1,,,57,0
455712,note_off,,,,,96,0,3,,,,,2,,,54,0
455808,note_on,,,,,96,0,3,,,,,2,,,57,100
455808,note_off,,,,,768,0,1,,,,,0,,,83,0
455808,note_on,,,,,0,0,1,,,,,0,,,75,100
455808,note_on,,,,,96,0,2,,,,,1,,,59,100
455808,note_on,,,,,288,0,4,,,,,3,,,47,100
455904,note_off,,,,,96,0,3,,,,,2,,,57,0
455904,note_off,,,,,96,0,4,,,,,3,,,47,0
455904,note_off,,,,,96,0,2,,,,,1,,,59,0
456000,note_on,,,,,96,0,3,,,,,2,,,59,100
456000,note_on,,,,,96,0,2,,,,,1,,,63,100
456096,note_off,,,,,96,0,3,,,,,2,,,59,0
456096,note_off,,,,,96,0,2,,,,,1,,,63,0
456192,note_on,,,,,96,0,3,,,,,2,,,57,100
456192,note_on,,,,,96,0,2,,,,,1,,,59,100
456192,note_off,,,,,384,0,1,,,,,0,,,75,0
456288,note_off,,,,,96,0,3,,,,,2,,,57,0
456288,note_off,,,,,96,0,2,,,,,1,,,59,0
456384,note_on,,,,,96,0,2,,,,,1,,,57,100
456384,note_on,,,,,96,0,3,,,,,2,,,54,100
456480,note_off,,,,,96,0,3,,,,,2,,,54,0
456480,note_off,,,,,96,0,2,,,,,1,,,57,0
456576,note_on,,,,,96,0,3,,,,,2,,,57,100
456576,note_on,,,,,672,0,4,,,,,3,,,51,100
456576,note_on,,,,,384,0,1,,,,,0,,,83,100
456576,note_on,,,,,96,0,2,,,,,1,,,59,100
456672,note_off,,,,,96,0,4,,,,,3,,,51,0
456672,note_off,,,,,96,0,2,,,,,1,,,59,0
456672,note_off,,,,,96,0,3,,,,,2,,,57,0
456768,note_on,,,,,96,0,4,,,,,3,,,54,100
456768,note_on,,,,,96,0,2,,,,,1,,,63,100
456768,note_on,,,,,96,0,3,,,,,2,,,59,100
456864,note_off,,,,,96,0,4,,,,,3,,,54,0
456864,note_off,,,,,96,0,2,,,,,1,,,63,0
456864,note_off,,,,,96,0,3,,,,,2,,,59,0
456960,note_on,,,,,96,0,2,,,,,1,,,59,100
456960,note_on,,,,,96,0,4,,,,,3,,,57,100
456960,note_on,,,,,96,0,3,,,,,2,,,57,100
457056,note_off,,,,,96,0,2,,,,,1,,,59,0
457056,note_off,,,,,96,0,4,,,,,3,,,57,0
457056,note_off,,,,,96,0,3,,,,,2,,,57,0
457152,note_on,,,,,96,0,3,,,,,2,,,54,100
457152,note_on,,,,,96,0,2,,,,,1,,,57,100
457248,note_off,,,,,96,0,2,,,,,1,,,57,0
457248,note_off,,,,,96,0,3,,,,,2,,,54,0
457344,note_on,,,,,96,0,2,,,,,1,,,59,100
457344,note_on,,,,,0,0,1,,,,,0,,,75,100
457344,note_on,,,,,288,0,4,,,,,3,,,47,100
457344,note_on,,,,,96,0,3,,,,,2,,,57,100
457344,note_off,,,,,768,0,1,,,,,0,,,83,0
457440,note_off,,,,,96,0,4,,,,,3,,,47,0
457440,note_off,,,,,96,0,2,,,,,1,,,59,0
457440,note_off,,,,,96,0,3,,,,,2,,,57,0
457536,note_on,,,,,96,0,2,,,,,1,,,63,100
457536,note_on,,,,,96,0,3,,,,,2,,,59,100
457632,note_off,,,,,96,0,2,,,,,1,,,63,0
457632,note_off,,,,,96,0,3,,,,,2,,,59,0
457728,note_on,,,,,0,0,2,,,,,1,,,64,100
457728,note_on,,,,,288,0,4,,,,,3,,,52,100
457728,note_on,,,,,96,0,3,,,,,2,,,59,100
457728,note_on,,,,,0,0,3,,,,,2,,,52,100
457728,note_on,,,,,0,0,1,,,,,0,,,64,100
457728,note_off,,,,,384,0,1,,,,,0,,,75,0
457728,note_on,,,,,96,0,2,,,,,1,,,56,100
458400,note_on,,,,,0,0,1,,,,,0,,,76,100
458400,note_off,,,,,672,0,1,,,,,0,,,64,0
458496,note_off,,,,,0,0,3,,,,,2,,,52,0
458496,note_on,,,,,0,0,3,,,,,2,,,59,100
458496,note_on,,,,,0,0,3,,,,,2,,,52,100
458496,note_on,,,,,0,0,2,,,,,1,,,56,100
458496,note_off,,,,,768,0,3,,,,,2,,,59,0
458496,note_off,,,,,96,0,1,,,,,0,,,76,0
458496,note_on,,,,,0,0,2,,,,,1,,,64,100
458496,note_on,,,,,0,0,1,,,,,0,,,76,100
458496,note_off,,,,,768,0,2,,,,,1,,,56,0
458496,note_off,,,,,768,0,4,,,,,3,,,52,0
458496,note_on,,,,,0,0,4,,,,,3,,,52,100
458496,note_off,,,,,0,0,2,,,,,1,,,64,0
459168,note_off,,,,,672,0,1,,,,,0,,,76,0
459168,note_on,,,,,0,0,1,,,,,0,,,88,100
459264,note_off,,,,,768,0,2,,,,,1,,,64,0
459264,note_off,,,,,0,0,2,,,,,1,,,56,0
459264,note_off,,,,,768,0,4,,,,,3,,,52,0
459264,note_on,,,,,0,0,4,,,,,3,,,52,100
459264,note_on,,,,,0,0,2,,,,,1,,,56,100
459264,note_on,,,,,0,0,2,,,,,1,,,64,100
459264,note_off,,,,,0,0,3,,,,,2,,,52,0
459264,note_on,,,,,0,0,3,,,,,2,,,52,100
459264,note_on,,,,,0,0,1,,,,,0,,,88,100
459264,note_off,,,,,96,0,1,,,,,0,,,88,0
459264,note_on,,,,,0,0,3,,,,,2,,,59,100
459264,note_off,,,,,768,0,3,,,,,2,,,59,0
459456,note_off,,,,,0,0,2,,,,,1,,,64,0
459456,note_off,,,,,192,0,1,,,,,0,,,88,0
459456,note_off,,,,,0,0,3,,,,,2,,,59,0
459456,note_off,,,,,192,0,3,,,,,2,,,52,0
459456,note_off,,,,,192,0,4,,,,,3,,,52,0
459456,note_off,,,,,192,0,2,,,,,1,,,56,0
459648,note_on,,,,,0,0,3,,,,,2,,,52,100
459648,note_on,,,,,192,0,4,,,,,3,,,52,100
459648,note_on,,,,,192,0,3,,,,,2,,,59,100
459648,note_on,,,,,192,0,2,,,,,1,,,64,100
459648,note_on,,,,,0,0,2,,,,,1,,,56,100
459648,note_on,,,,,192,0,1,,,,,0,,,76,100
459840,note_off,,,,,192,0,2,,,,,1,,,64,0
459840,note_off,,,,,0,0,2,,,,,1,,,56,0
459840,note_off,,,,,192,0,3,,,,,2,,,59,0
459840,note_off,,,,,0,0,3,,,,,2,,,52,0
459840,note_off,,,,,192,0,4,,,,,3,,,52,0
459840,note_off,,,,,192,0,1,,,,,0,,,76,0
460800,note_on,,,,,960,0,3,,,,,2,,,61,100
460800,note_on,,,,,960,0,2,,,,,1,,,56,100
460800,note_on,,,,,0,0,2,,,,,1,,,64,100
460800,note_on,,,,,960,0,4,,,,,3,,,49,100
460800,note_on,,,,,960,0,1,,,,,0,,,64,100
461472,note_off,,,,,672,0,1,,,,,0,,,64,0
461472,note_on,,,,,0,0,1,,,,,0,,,76,100
461568,note_off,,,,,96,0,1,,,,,0,,,76,0
461568,note_on,,,,,0,0,1,,,,,0,,,76,100
461568,note_on,,,,,0,0,2,,,,,1,,,56,100
461568,note_on,,,,,0,0,3,,,,,2,,,61,100
461568,note_off,,,,,768,0,3,,,,,2,,,61,0
461568,note_off,,,,,768,0,4,,,,,3,,,49,0
461568,note_on,,,,,0,0,2,,,,,1,,,64,100
461568,note_off,,,,,0,0,2,,,,,1,,,64,0
461568,note_off,,,,,768,0,2,,,,,1,,,56,0
461568,note_on,,,,,0,0,4,,,,,3,,,49,100
462240,note_off,,,,,672,0,1,,,,,0,,,76,0
462240,note_on,,,,,0,0,1,,,,,0,,,88,100
462336,note_off,,,,,768,0,4,,,,,3,,,49,0
462336,note_off,,,,,96,0,1,,,,,0,,,88,0
462336,note_off,,,,,768,0,3,,,,,2,,,61,0
462336,note_on,,,,,0,0,3,,,,,2,,,61,100
462336,note_on,,,,,0,0,2,,,,,1,,,64,100
462336,note_on,,,,,0,0,2,,,,,1,,,56,100
462336,note_off,,,,,0,0,2,,,,,1,,,56,0
462336,note_off,,,,,768,0,2,,,,,1,,,64,0
462336,note_on,,,,,0,0,4,,,,,3,,,49,100
462336,note_on,,,,,0,0,1,,,,,0,,,88,100
462528,note_off,,,,,192,0,4,,,,,3,,,49,0
462528,note_off,,,,,192,0,1,,,,,0,,,88,0
462528,note_off,,,,,192,0,3,,,,,2,,,61,0
462528,note_off,,,,,0,0,2,,,,,1,,,64,0
462528,note_off,,,,,192,0,2,,,,,1,,,56,0
462720,note_on,,,,,192,0,4,,,,,3,,,49,100
462720,note_on,,,,,192,0,3,,,,,2,,,61,100
462720,note_on,,,,,192,0,1,,,,,0,,,76,100
462720,note_on,,,,,0,0,2,,,,,1,,,56,100
462720,note_on,,,,,192,0,2,,,,,1,,,64,100
462912,note_off,,,,,192,0,1,,,,,0,,,76,0
462912,note_off,,,,,0,0,2,,,,,1,,,56,0
462912,note_off,,,,,192,0,2,,,,,1,,,64,0
462912,note_off,,,,,192,0,4,,,,,3,,,49,0
462912,note_off,,,,,192,0,3,,,,,2,,,61,0
463872,note_on,,,,,960,0,4,,,,,3,,,46,100
463872,note_on,,,,,960,0,2,,,,,1,,,61,100
463872,note_on,,,,,960,0,3,,,,,2,,,66,100
463872,note_on,,,,,960,0,1,,,,,0,,,66,100
463872,note_on,,,,,0,0,3,,,,,2,,,58,100
463872,note_on,,,,,0,0,2,,,,,1,,,64,100
464544,note_on,,,,,0,0,1,,,,,0,,,78,100
464544,note_off,,,,,672,0,1,,,,,0,,,66,0
464640,note_off,,,,,768,0,3,,,,,2,,,66,0
464640,note_off,,,,,0,0,3,,,,,2,,,58,0
464640,note_on,,,,,0,0,3,,,,,2,,,66,100
464640,note_on,,,,,0,0,3,,,,,2,,,58,100
464640,note_off,,,,,0,0,2,,,,,1,,,64,0
464640,note_on,,,,,0,0,2,,,,,1,,,61,100
464640,note_on,,,,,0,0,4,,,,,3,,,46,100
464640,note_off,,,,,768,0,4,,,,,3,,,46,0
464640,note_on,,,,,0,0,2,,,,,1,,,64,100
464640,note_off,,,,,768,0,2,,,,,1,,,61,0
464640,note_on,,,,,0,0,1,,,,,0,,,78,100
464640,note_off,,,,,96,0,1,,,,,0,,,78,0
465312,note_on,,,,,0,0,1,,,,,0,,,90,100
465312,note_off,,,,,672,0,1,,,,,0,,,78,0
465408,note_on,,,,,0,0,3,,,,,2,,,66,100
465408,note_on,,,,,0,0,3,,,,,2,,,58,100
465408,note_off,,,,,0,0,3,,,,,2,,,58,0
465408,note_off,,,,,768,0,3,,,,,2,,,66,0
465408,note_on,,,,,0,0,2,,,,,1,,,64,100
465408,note_off,,,,,0,0,2,,,,,1,,,64,0
465408,note_off,,,,,768,0,2,,,,,1,,,61,0
465408,note_on,,,,,0,0,2,,,,,1,,,61,100
465408,note_off,,,,,96,0,1,,,,,0,,,90,0
465408,note_on,,,,,0,0,1,,,,,0,,,90,100
465408,note_on,,,,,0,0,4,,,,,3,,,46,100
465408,note_off,,,,,768,0,4,,,,,3,,,46,0
465600,note_off,,,,,192,0,2,,,,,1,,,61,0
465600,note_off,,,,,192,0,4,,,,,3,,,46,0
465600,note_off,,,,,192,0,3,,,,,2,,,58,0
465600,note_off,,,,,0,0,3,,,,,2,,,66,0
465600,note_off,,,,,0,0,2,,,,,1,,,64,0
465600,note_off,,,,,192,0,1,,,,,0,,,90,0
465792,note_on,,,,,0,0,3,,,,,2,,,58,100
465792,note_on,,,,,192,0,3,,,,,2,,,66,100
465792,note_on,,,,,192,0,4,,,,,3,,,46,100
465792,note_on,,,,,192,0,1,,,,,0,,,78,100
465792,note_on,,,,,0,0,2,,,,,1,,,64,100
465792,note_on,,,,,192,0,2,,,,,1,,,61,100
465984,note_off,,,,,0,0,3,,,,,2,,,58,0
465984,note_off,,,,,192,0,3,,,,,2,,,66,0
465984,note_off,,,,,192,0,1,,,,,0,,,78,0
465984,note_off,,,,,192,0,4,,,,,3,,,46,0
465984,note_off,,,,,0,0,2,,,,,1,,,64,0
465984,note_off,,,,,192,0,2,,,,,1,,,61,0
466944,note_on,,,,,960,0,3,,,,,2,,,49,100
466944,note_on,,,,,960,0,4,,,,,3,,,46,100
466944,note_on,,,,,960,0,2,,,,,1,,,76,100
466944,note_on,,,,,960,0,1,,,,,0,,,78,100
467136,note_off,,,,,192,0,3,,,,,2,,,49,0
467136,note_off,,,,,192,0,4,,,,,3,,,46,0
467136,note_off,,,,,192,0,1,,,,,0,,,78,0
467136,note_off,,,,,192,0,2,,,,,1,,,76,0
467328,note_on,,,,,192,0,1,,,,,0,,,66,100
467328,note_on,,,,,192,0,4,,,,,3,,,58,100
467328,note_on,,,,,192,0,3,,,,,2,,,61,100
467328,note_on,,,,,192,0,2,,,,,1,,,64,100
467520,note_off,,,,,192,0,2,,,,,1,,,64,0
467520,note_off,,,,,192,0,3,,,,,2,,,61,0
467520,note_off,,,,,192,0,1,,,,,0,,,66,0
467520,note_off,,,,,192,0,4,,,,,3,,,58,0
470016,note_on,,,,,2496,0,4,,,,,3,,,47,100
470016,note_on,,,,,2496,0,1,,,,,0,,,71,100
470016,note_on,,,,,2496,0,3,,,,,2,,,56,100
470016,note_on,,,,,2496,0,2,,,,,1,,,64,100
470784,note_off,,,,,768,0,3,,,,,2,,,56,0
470784,note_on,,,,,0,0,3,,,,,2,,,55,100
470784,note_off,,,,,768,0,2,,,,,1,,,64,0
470784,note_on,,,,,0,0,2,,,,,1,,,59,100
471552,note_off,,,,,768,0,2,,,,,1,,,59,0
471552,note_on,,,,,0,0,2,,,,,1,,,61,100
471552,note_off,,,,,768,0,3,,,,,2,,,55,0
471552,note_on,,,,,0,0,3,,,,,2,,,54,100
471936,note_off,,,,,1920,0,1,,,,,0,,,71,0
471936,note_on,,,,,0,0,1,,,,,0,,,69,100
472320,note_off,,,,,768,0,2,,,,,1,,,61,0
472320,note_off,,,,,768,0,3,,,,,2,,,54,0
472320,note_on,,,,,0,0,3,,,,,2,,,59,100
472320,note_off,,,,,384,0,1,,,,,0,,,69,0
472320,note_on,,,,,0,0,1,,,,,0,,,66,100
472320,note_on,,,,,0,0,2,,,,,1,,,63,100
472704,note_on,,,,,0,0,1,,,,,0,,,68,100
472704,note_off,,,,,384,0,1,,,,,0,,,66,0
473088,note_on,,,,,0,0,1,,,,,0,,,64,100
473088,note_off,,,,,768,0,2,,,,,1,,,63,0
473088,note_on,,,,,0,0,2,,,,,1,,,64,100
473088,note_off,,,,,768,0,3,,,,,2,,,59,0
473088,note_off,,,,,3072,0,4,,,,,3,,,47,0
473088,note_on,,,,,0,0,4,,,,,3,,,52,100
473088,note_on,,,,,0,0,3,,,,,2,,,56,100
473088,note_off,,,,,384,0,1,,,,,0,,,68,0
473280,note_off,,,,,192,0,1,,,,,0,,,64,0
473280,note_off,,,,,192,0,2,,,,,1,,,64,0
473472,note_off,,,,,384,0,3,,,,,2,,,56,0
473472,note_off,,,,,384,0,4,,,,,3,,,52,0
473472,note_on,,,,,192,0,1,,,,,0,,,75,100
473472,note_on,,,,,192,0,2,,,,,1,,,63,100
473856,note_off,,,,,384,0,2,,,,,1,,,63,0
473856,note_on,,,,,0,0,2,,,,,1,,,64,100
473856,note_on,,,,,0,0,1,,,,,0,,,76,100
473856,note_off,,,,,384,0,1,,,,,0,,,75,0
474240,note_on,,,,,0,0,1,,,,,0,,,80,100
474240,note_off,,,,,384,0,1,,,,,0,,,76,0
474240,note_off,,,,,384,0,2,,,,,1,,,64,0
474240,note_on,,,,,0,0,2,,,,,1,,,68,100
474624,note_off,,,,,384,0,1,,,,,0,,,80,0
474624,note_on,,,,,0,0,1,,,,,0,,,78,100
474624,note_on,,,,,0,0,2,,,,,1,,,66,100
474624,note_off,,,,,384,0,2,,,,,1,,,68,0
475008,note_off,,,,,384,0,1,,,,,0,,,78,0
475008,note_on,,,,,0,0,1,,,,,0,,,76,100
475008,note_on,,,,,0,0,2,,,,,1,,,64,100
475008,note_off,,,,,384,0,2,,,,,1,,,66,0
475392,note_on,,,,,0,0,2,,,,,1,,,63,100
475392,note_off,,,,,384,0,2,,,,,1,,,64,0
475392,note_off,,,,,384,0,1,,,,,0,,,76,0
475392,note_on,,,,,0,0,1,,,,,0,,,75,100
475776,note_on,,,,,2304,0,4,,,,,3,,,46,100
475776,note_off,,,,,384,0,1,,,,,0,,,75,0
475776,note_on,,,,,2304,0,3,,,,,2,,,54,100
475776,note_on,,,,,0,0,1,,,,,0,,,73,100
475776,note_on,,,,,0,0,2,,,,,1,,,61,100
475776,note_off,,,,,384,0,2,,,,,1,,,63,0
476160,note_on,,,,,0,0,1,,,,,0,,,71,100
476160,note_off,,,,,384,0,1,,,,,0,,,73,0
476160,note_off,,,,,384,0,2,,,,,1,,,61,0
476160,note_off,,,,,384,0,3,,,,,2,,,54,0
476160,note_on,,,,,0,0,4,,,,,3,,,47,100
476160,note_on,,,,,0,0,3,,,,,2,,,56,100
476160,note_off,,,,,384,0,4,,,,,3,,,46,0
476160,note_on,,,,,0,0,2,,,,,1,,,59,100
476544,note_off,,,,,384,0,2,,,,,1,,,59,0
476544,note_on,,,,,0,0,2,,,,,1,,,64,100
476928,note_off,,,,,384,0,2,,,,,1,,,64,0
476928,note_on,,,,,0,0,2,,,,,1,,,59,100
476928,note_on,,,,,0,0,3,,,,,2,,,55,100
476928,note_off,,,,,768,0,3,,,,,2,,,56,0
477696,note_on,,,,,0,0,3,,,,,2,,,54,100
477696,note_off,,,,,768,0,3,,,,,2,,,55,0
477696,note_off,,,,,768,0,2,,,,,1,,,59,0
477696,note_on,,,,,0,0,2,,,,,1,,,61,100
478080,note_off,,,,,1920,0,1,,,,,0,,,71,0
478080,note_on,,,,,0,0,1,,,,,0,,,69,100
478464,note_off,,,,,768,0,3,,,,,2,,,54,0
478464,note_on,,,,,0,0,3,,,,,2,,,59,100
478464,note_on,,,,,0,0,2,,,,,1,,,63,100
478464,note_off,,,,,768,0,2,,,,,1,,,61,0
478464,note_off,,,,,384,0,1,,,,,0,,,69,0
478464,note_on,,,,,0,0,1,,,,,0,,,66,100
478848,note_on,,,,,0,0,1,,,,,0,,,68,100
478848,note_off,,,,,384,0,1,,,,,0,,,66,0
479232,note_off,,,,,384,0,1,,,,,0,,,68,0
479232,note_on,,,,,0,0,4,,,,,3,,,52,100
479232,note_off,,,,,3072,0,4,,,,,3,,,47,0
479232,note_off,,,,,768,0,3,,,,,2,,,59,0
479232,note_on,,,,,0,0,3,,,,,2,,,56,100
479232,note_on,,,,,0,0,2,,,,,1,,,64,100
479232,note_off,,,,,768,0,2,,,,,1,,,63,0
479232,note_on,,,,,0,0,1,,,,,0,,,64,100
479424,note_off,,,,,192,0,4,,,,,3,,,52,0
479616,note_off,,,,,384,0,1,,,,,0,,,64,0
479616,note_off,,,,,384,0,3,,,,,2,,,56,0
479616,note_off,,,,,384,0,2,,,,,1,,,64,0
480000,note_on,,,,,0,0,3,,,,,2,,,71,100
480000,note_on,,,,,0,0,3,,,,,2,,,66,100
480000,note_on,,,,,384,0,3,,,,,2,,,59,100
480000,note_on,,,,,0,0,2,,,,,1,,,66,100
480000,note_on,,,,,0,0,2,,,,,1,,,75,100
480000,note_on,,,,,384,0,2,,,,,1,,,59,100
480000,note_on,,,,,576,0,4,,,,,3,,,47,100
480000,note_on,,,,,0,0,1,,,,,0,,,75,100
480000,note_on,,,,,384,0,1,,,,,0,,,83,100
480192,note_off,,,,,192,0,4,,,,,3,,,47,0
480384,note_off,,,,,0,0,2,,,,,1,,,75,0
480384,note_off,,,,,0,0,1,,,,,0,,,75,0
480384,note_off,,,,,384,0,1,,,,,0,,,83,0
480384,note_off,,,,,384,0,2,,,,,1,,,59,0
480384,note_off,,,,,0,0,3,,,,,2,,,66,0
480384,note_off,,,,,0,0,3,,,,,2,,,71,0
480384,note_off,,,,,384,0,3,,,,,2,,,59,0
480384,note_off,,,,,0,0,2,,,,,1,,,66,0
480768,note_on,,,,,576,0,4,,,,,3,,,40,100
480768,note_on,,,,,0,0,3,,,,,2,,,64,100
480768,note_on,,,,,0,0,3,,,,,2,,,59,100
480768,note_on,,,,,0,0,2,,,,,1,,,68,100
480768,note_on,,,,,384,0,2,,,,,1,,,59,100
480768,note_on,,,,,384,0,1,,,,,0,,,76,100
480768,note_on,,,,,0,0,1,,,,,0,,,88,100
480768,note_on,,,,,0,0,2,,,,,1,,,76,100
480768,note_on,,,,,384,0,3,,,,,2,,,52,100
480960,note_off,,,,,192,0,4,,,,,3,,,40,0
480960,end_of_track,,,,,0,1,4,,,,,,,,,
481152,note_off,,,,,384,0,2,,,,,1,,,59,0
481152,note_off,,,,,0,0,2,,,,,1,,,68,0
481152,end_of_track,,,,,0,1,2,,,,,,,,,
481152,note_off,,,,,384,0,3,,,,,2,,,52,0
481152,note_off,,,,,0,0,3,,,,,2,,,59,0
481152,note_off,,,,,0,0,3,,,,,2,,,64,0
481152,note_off,,,,,384,0,1,,,,,0,,,76,0
481152,note_off,,,,,0,0,1,,,,,0,,,88,0
481152,end_of_track,,,,,0,1,1,,,,,,,,,
481152,end_of_track,,,,,0,1,3,,,,,,,,,
481152,note_off,,,,,0,0,2,,,,,1,,,76,0
