tick,type,numerator,denominator,clocks_per_click,notated_32nd_notes_per_beat,time,meta,track,data,tempo,control,value,channel,program,key,note,velocity
0,time_signature,3,4,96,8,0,1,0,,,,,,,,,
0,control_change,,,,,0,0,2,,,10,51,1,,,,
0,program_change,,,,,0,0,2,,,,,1,40,,,
0,key_signature,,,,,0,1,2,,,,,,,C,,
0,key_signature,,,,,0,1,6,,,,,,,C,,
0,track_name,,,,,0,1,3,,,,,,,,,
0,control_change,,,,,0,0,3,,,0,0,2,,,,
0,control_change,,,,,0,0,3,,,10,84,2,,,,
0,program_change,,,,,0,0,3,,,,,2,41,,,
0,key_signature,,,,,0,1,3,,,,,,,C,,
0,track_name,,,,,0,1,4,,,,,,,,,
0,control_change,,,,,0,0,4,,,0,0,3,,,,
0,control_change,,,,,0,0,4,,,10,102,3,,,,
0,program_change,,,,,0,0,4,,,,,3,42,,,
0,key_signature,,,,,0,1,4,,,,,,,C,,
0,track_name,,,,,0,1,5,,,,,,,,,
0,key_signature,,,,,0,1,5,,,,,,,C,,
0,end_of_track,,,,,0,1,5,,,,,,,,,
0,control_change,,,,,0,0,2,,,0,0,1,,,,
0,track_name,,,,,0,1,2,,,,,,,,,
0,end_of_track,,,,,0,1,6,,,,,,,,,
0,sequencer_specific,,,,,0,1,0,"(0, 0, 65)",,,,,,,,
0,key_signature,,,,,0,1,1,,,,,,,C,,
0,program_change,,,,,0,0,1,,,,,0,40,,,
0,control_change,,,,,0,0,1,,,10,37,0,,,,
0,control_change,,,,,0,0,1,,,0,0,0,,,,
0,track_name,,,,,0,1,1,,,,,,,,,
0,set_tempo,,,,,0,1,0,,340909,,,,,,,
0,end_of_track,,,,,0,1,0,,,,,,,,,
672,note_on,,,,,672,0,3,,,,,2,,,74,90
672,note_on,,,,,672,0,2,,,,,1,,,74,96
672,note_on,,,,,672,0,1,,,,,0,,,74,106
768,note_on,,,,,0,0,2,,,,,1,,,75,96
768,note_on,,,,,0,0,1,,,,,0,,,75,106
768,note_on,,,,,0,0,3,,,,,2,,,75,90
768,note_off,,,,,96,0,3,,,,,2,,,74,0
768,note_off,,,,,96,0,2,,,,,1,,,74,0
768,note_off,,,,,96,0,1,,,,,0,,,74,0
960,note_off,,,,,192,0,2,,,,,1,,,75,0
960,note_off,,,,,192,0,3,,,,,2,,,75,0
960,note_off,,,,,192,0,1,,,,,0,,,75,0
1152,note_on,,,,,192,0,3,,,,,2,,,63,90
1152,note_on,,,,,1152,0,4,,,,,3,,,55,81
1152,note_on,,,,,192,0,1,,,,,0,,,63,106
1152,note_on,,,,,192,0,2,,,,,1,,,58,96
2304,note_off,,,,,1152,0,4,,,,,3,,,55,0
2304,note_off,,,,,1152,0,2,,,,,1,,,58,0
2304,note_on,,,,,0,0,1,,,,,0,,,65,106
2304,note_on,,,,,0,0,4,,,,,3,,,56,81
2304,note_off,,,,,1152,0,1,,,,,0,,,63,0
2304,note_on,,,,,0,0,2,,,,,1,,,60,96
2688,note_off,,,,,384,0,2,,,,,1,,,60,0
2688,note_off,,,,,384,0,1,,,,,0,,,65,0
2688,note_off,,,,,384,0,4,,,,,3,,,56,0
2688,note_off,,,,,1536,0,3,,,,,2,,,63,57
2976,note_on,,,,,288,0,2,,,,,1,,,74,96
2976,note_on,,,,,288,0,1,,,,,0,,,74,106
2976,note_on,,,,,288,0,3,,,,,2,,,74,90
3072,note_off,,,,,96,0,1,,,,,0,,,74,0
3072,note_off,,,,,96,0,2,,,,,1,,,74,0
3072,note_on,,,,,0,0,2,,,,,1,,,75,96
3072,note_on,,,,,0,0,1,,,,,0,,,75,106
3072,note_on,,,,,0,0,3,,,,,2,,,75,90
3072,note_off,,,,,96,0,3,,,,,2,,,74,0
3264,note_off,,,,,192,0,2,,,,,1,,,75,0
3264,note_off,,,,,192,0,1,,,,,0,,,75,0
3264,note_off,,,,,192,0,3,,,,,2,,,75,0
3456,note_on,,,,,192,0,3,,,,,2,,,60,90
3456,note_on,,,,,768,0,4,,,,,3,,,57,81
3456,note_on,,,,,192,0,2,,,,,1,,,63,96
3456,note_on,,,,,192,0,1,,,,,0,,,65,106
4608,note_off,,,,,1152,0,4,,,,,3,,,57,0
4608,note_on,,,,,0,0,4,,,,,3,,,58,81
4608,note_off,,,,,1152,0,3,,,,,2,,,60,0
4608,note_on,,,,,0,0,3,,,,,2,,,58,90
4608,note_on,,,,,0,0,1,,,,,0,,,67,106
4608,note_off,,,,,1152,0,1,,,,,0,,,65,0
4992,note_off,,,,,384,0,4,,,,,3,,,58,0
4992,note_off,,,,,384,0,1,,,,,0,,,67,0
4992,note_off,,,,,1536,0,2,,,,,1,,,63,61
4992,note_off,,,,,384,0,3,,,,,2,,,58,0
5280,note_on,,,,,288,0,2,,,,,1,,,74,96
5280,note_on,,,,,288,0,3,,,,,2,,,74,90
5280,note_on,,,,,288,0,1,,,,,0,,,74,106
5376,note_off,,,,,96,0,2,,,,,1,,,74,0
5376,note_on,,,,,0,0,2,,,,,1,,,75,96
5376,note_on,,,,,0,0,3,,,,,2,,,75,90
5376,note_on,,,,,0,0,1,,,,,0,,,75,106
5376,note_off,,,,,96,0,3,,,,,2,,,74,0
5376,note_off,,,,,96,0,1,,,,,0,,,74,0
5568,note_off,,,,,192,0,1,,,,,0,,,75,0
5568,note_off,,,,,192,0,2,,,,,1,,,75,0
5568,note_off,,,,,192,0,3,,,,,2,,,75,0
5760,note_on,,,,,192,0,1,,,,,0,,,63,106
5760,note_on,,,,,768,0,4,,,,,3,,,51,81
5760,note_on,,,,,192,0,3,,,,,2,,,63,90
5760,note_on,,,,,192,0,2,,,,,1,,,63,96
5952,note_off,,,,,192,0,3,,,,,2,,,63,0
5952,note_off,,,,,192,0,2,,,,,1,,,63,0
5952,note_off,,,,,192,0,1,,,,,0,,,63,0
5952,note_off,,,,,192,0,4,,,,,3,,,51,0
6144,note_on,,,,,192,0,2,,,,,1,,,63,96
6144,note_on,,,,,192,0,3,,,,,2,,,63,90
6144,note_on,,,,,192,0,4,,,,,3,,,50,81
6144,note_on,,,,,192,0,1,,,,,0,,,65,106
6336,note_off,,,,,192,0,3,,,,,2,,,63,0
6336,note_off,,,,,192,0,2,,,,,1,,,63,0
6336,note_off,,,,,192,0,1,,,,,0,,,65,0
6336,note_off,,,,,192,0,4,,,,,3,,,50,0
6528,note_on,,,,,192,0,2,,,,,1,,,63,96
6528,note_on,,,,,192,0,1,,,,,0,,,67,106
6528,note_on,,,,,192,0,4,,,,,3,,,49,81
6528,note_on,,,,,192,0,3,,,,,2,,,63,90
6720,note_off,,,,,192,0,2,,,,,1,,,63,0
6720,note_off,,,,,192,0,3,,,,,2,,,63,0
6720,note_off,,,,,192,0,1,,,,,0,,,67,0
6720,note_off,,,,,192,0,4,,,,,3,,,49,0
6912,note_on,,,,,192,0,3,,,,,2,,,63,90
6912,note_on,,,,,192,0,2,,,,,1,,,63,96
6912,note_on,,,,,192,0,1,,,,,0,,,68,106
6912,note_on,,,,,192,0,4,,,,,3,,,48,81
7104,note_off,,,,,192,0,2,,,,,1,,,63,0
7104,note_off,,,,,192,0,3,,,,,2,,,63,0
7104,note_off,,,,,192,0,1,,,,,0,,,68,0
7104,note_off,,,,,192,0,4,,,,,3,,,48,0
7296,note_on,,,,,192,0,4,,,,,3,,,46,81
7296,note_on,,,,,192,0,2,,,,,1,,,67,96
7296,note_on,,,,,192,0,3,,,,,2,,,63,90
7296,note_on,,,,,192,0,1,,,,,0,,,70,106
7488,note_off,,,,,192,0,4,,,,,3,,,46,0
7488,note_off,,,,,192,0,2,,,,,1,,,67,0
7488,note_off,,,,,192,0,3,,,,,2,,,63,0
7488,note_off,,,,,192,0,1,,,,,0,,,70,0
7680,note_on,,,,,192,0,4,,,,,3,,,44,81
7680,note_on,,,,,192,0,3,,,,,2,,,63,90
7680,note_on,,,,,192,0,1,,,,,0,,,72,106
7680,note_on,,,,,192,0,2,,,,,1,,,68,96
7872,note_off,,,,,192,0,1,,,,,0,,,72,0
7872,note_off,,,,,192,0,2,,,,,1,,,68,0
7872,note_off,,,,,192,0,3,,,,,2,,,63,0
7872,note_off,,,,,192,0,4,,,,,3,,,44,0
8064,note_on,,,,,0,0,2,,,,,1,,,68,96
8064,note_on,,,,,192,0,2,,,,,1,,,58,96
8064,note_on,,,,,192,0,4,,,,,3,,,46,81
8064,note_on,,,,,192,0,1,,,,,0,,,70,106
8064,note_on,,,,,192,0,3,,,,,2,,,65,90
8064,note_on,,,,,0,0,3,,,,,2,,,58,90
8256,note_off,,,,,192,0,2,,,,,1,,,58,0
8256,note_off,,,,,192,0,3,,,,,2,,,65,0
8256,note_off,,,,,0,0,3,,,,,2,,,58,0
8256,note_off,,,,,192,0,1,,,,,0,,,70,0
8256,note_off,,,,,192,0,4,,,,,3,,,46,0
8256,note_off,,,,,0,0,2,,,,,1,,,68,0
8448,note_on,,,,,0,0,3,,,,,2,,,65,90
8448,note_on,,,,,192,0,3,,,,,2,,,58,90
8448,note_on,,,,,192,0,4,,,,,3,,,58,81
8448,note_on,,,,,192,0,2,,,,,1,,,58,96
8448,note_on,,,,,0,0,2,,,,,1,,,68,96
8448,note_on,,,,,192,0,1,,,,,0,,,72,106
8640,note_off,,,,,192,0,1,,,,,0,,,72,0
8640,note_off,,,,,192,0,2,,,,,1,,,58,0
8640,note_off,,,,,0,0,2,,,,,1,,,68,0
8640,note_off,,,,,0,0,3,,,,,2,,,65,0
8640,note_off,,,,,192,0,3,,,,,2,,,58,0
8640,note_off,,,,,192,0,4,,,,,3,,,58,0
8832,note_on,,,,,0,0,3,,,,,2,,,65,90
8832,note_on,,,,,192,0,3,,,,,2,,,58,90
8832,note_on,,,,,192,0,1,,,,,0,,,74,106
8832,note_on,,,,,0,0,2,,,,,1,,,68,96
8832,note_on,,,,,192,0,2,,,,,1,,,58,96
8832,note_on,,,,,192,0,4,,,,,3,,,58,81
9024,note_off,,,,,192,0,3,,,,,2,,,58,0
9024,note_off,,,,,0,0,2,,,,,1,,,68,0
9024,note_off,,,,,192,0,2,,,,,1,,,58,0
9024,note_off,,,,,192,0,1,,,,,0,,,74,0
9024,note_off,,,,,0,0,3,,,,,2,,,65,0
9024,note_off,,,,,192,0,4,,,,,3,,,58,0
9216,note_on,,,,,192,0,4,,,,,3,,,51,81
9216,note_on,,,,,0,0,2,,,,,1,,,67,96
9216,note_on,,,,,192,0,1,,,,,0,,,75,106
9216,note_on,,,,,192,0,3,,,,,2,,,63,90
9216,note_on,,,,,192,0,2,,,,,1,,,58,96
9216,note_on,,,,,0,0,3,,,,,2,,,55,90
9408,note_off,,,,,192,0,2,,,,,1,,,58,0
9408,note_off,,,,,0,0,2,,,,,1,,,67,0
9600,note_off,,,,,384,0,3,,,,,2,,,63,0
9600,note_off,,,,,0,0,3,,,,,2,,,55,0
9600,note_off,,,,,384,0,1,,,,,0,,,75,0
9600,note_off,,,,,384,0,4,,,,,3,,,51,0
9888,note_on,,,,,288,0,1,,,,,0,,,74,106
9888,note_on,,,,,288,0,3,,,,,2,,,74,90
9888,note_on,,,,,480,0,2,,,,,1,,,74,96
9984,note_off,,,,,96,0,2,,,,,1,,,74,0
9984,note_on,,,,,0,0,2,,,,,1,,,75,96
9984,note_on,,,,,0,0,3,,,,,2,,,75,90
9984,note_on,,,,,0,0,1,,,,,0,,,75,106
9984,note_off,,,,,96,0,3,,,,,2,,,74,0
9984,note_off,,,,,96,0,1,,,,,0,,,74,0
10176,note_off,,,,,192,0,3,,,,,2,,,75,0
10176,note_off,,,,,192,0,2,,,,,1,,,75,0
10176,note_off,,,,,192,0,1,,,,,0,,,75,0
10368,note_on,,,,,192,0,2,,,,,1,,,58,96
10368,note_on,,,,,768,0,4,,,,,3,,,55,81
10368,note_on,,,,,192,0,3,,,,,2,,,63,90
10368,note_on,,,,,192,0,1,,,,,0,,,63,106
11520,note_on,,,,,0,0,2,,,,,1,,,60,96
11520,note_off,,,,,1152,0,1,,,,,0,,,63,0
11520,note_off,,,,,1152,0,4,,,,,3,,,55,0
11520,note_on,,,,,0,0,4,,,,,3,,,56,81
11520,note_off,,,,,1152,0,2,,,,,1,,,58,0
11520,note_on,,,,,0,0,1,,,,,0,,,65,106
11904,note_off,,,,,384,0,2,,,,,1,,,60,0
11904,note_off,,,,,1536,0,3,,,,,2,,,63,57
11904,note_off,,,,,384,0,4,,,,,3,,,56,0
11904,note_off,,,,,384,0,1,,,,,0,,,65,0
12192,note_on,,,,,288,0,3,,,,,2,,,74,90
12192,note_on,,,,,288,0,2,,,,,1,,,74,96
12192,note_on,,,,,288,0,1,,,,,0,,,74,106
12288,note_off,,,,,96,0,3,,,,,2,,,74,0
12288,note_on,,,,,0,0,3,,,,,2,,,75,90
12288,note_on,,,,,0,0,2,,,,,1,,,75,96
12288,note_off,,,,,96,0,2,,,,,1,,,74,0
12288,note_off,,,,,96,0,1,,,,,0,,,74,0
12288,note_on,,,,,0,0,1,,,,,0,,,75,106
12480,note_off,,,,,192,0,2,,,,,1,,,75,0
12480,note_off,,,,,192,0,1,,,,,0,,,75,0
12480,note_off,,,,,192,0,3,,,,,2,,,75,0
12672,note_on,,,,,192,0,2,,,,,1,,,63,96
12672,note_on,,,,,192,0,1,,,,,0,,,65,106
12672,note_on,,,,,768,0,4,,,,,3,,,57,81
12672,note_on,,,,,192,0,3,,,,,2,,,60,90
13824,note_off,,,,,1152,0,3,,,,,2,,,60,0
13824,note_on,,,,,0,0,3,,,,,2,,,58,90
13824,note_on,,,,,0,0,4,,,,,3,,,58,81
13824,note_on,,,,,0,0,1,,,,,0,,,67,106
13824,note_off,,,,,1152,0,1,,,,,0,,,65,0
13824,note_off,,,,,1152,0,4,,,,,3,,,57,0
14208,note_off,,,,,384,0,3,,,,,2,,,58,0
14208,note_off,,,,,1536,0,2,,,,,1,,,63,61
14208,note_off,,,,,384,0,4,,,,,3,,,58,0
14208,note_off,,,,,384,0,1,,,,,0,,,67,0
14496,note_on,,,,,288,0,2,,,,,1,,,74,96
14496,note_on,,,,,288,0,1,,,,,0,,,74,106
14496,note_on,,,,,288,0,3,,,,,2,,,74,90
14592,note_off,,,,,96,0,3,,,,,2,,,74,0
14592,note_on,,,,,0,0,2,,,,,1,,,75,96
14592,note_off,,,,,96,0,2,,,,,1,,,74,0
14592,note_off,,,,,96,0,1,,,,,0,,,74,0
14592,note_on,,,,,0,0,1,,,,,0,,,75,106
14592,note_on,,,,,0,0,3,,,,,2,,,75,90
14784,note_off,,,,,192,0,2,,,,,1,,,75,0
14784,note_off,,,,,192,0,1,,,,,0,,,75,0
14784,note_off,,,,,192,0,3,,,,,2,,,75,0
14976,note_on,,,,,192,0,2,,,,,1,,,63,96
14976,note_on,,,,,192,0,1,,,,,0,,,63,106
14976,note_on,,,,,768,0,4,,,,,3,,,51,81
14976,note_on,,,,,192,0,3,,,,,2,,,63,90
15168,note_off,,,,,192,0,4,,,,,3,,,51,0
15168,note_off,,,,,192,0,1,,,,,0,,,63,0
15168,note_off,,,,,192,0,2,,,,,1,,,63,0
15168,note_off,,,,,192,0,3,,,,,2,,,63,0
15360,note_on,,,,,192,0,4,,,,,3,,,50,81
15360,note_on,,,,,192,0,2,,,,,1,,,63,96
15360,note_on,,,,,192,0,1,,,,,0,,,65,106
15360,note_on,,,,,192,0,3,,,,,2,,,63,90
15552,note_off,,,,,192,0,1,,,,,0,,,65,0
15552,note_off,,,,,192,0,3,,,,,2,,,63,0
15552,note_off,,,,,192,0,4,,,,,3,,,50,0
15552,note_off,,,,,192,0,2,,,,,1,,,63,0
15744,note_on,,,,,192,0,3,,,,,2,,,63,90
15744,note_on,,,,,192,0,2,,,,,1,,,63,96
15744,note_on,,,,,192,0,4,,,,,3,,,49,81
15744,note_on,,,,,192,0,1,,,,,0,,,67,106
15936,note_off,,,,,192,0,2,,,,,1,,,63,0
15936,note_off,,,,,192,0,3,,,,,2,,,63,0
15936,note_off,,,,,192,0,1,,,,,0,,,67,0
15936,note_off,,,,,192,0,4,,,,,3,,,49,0
16128,note_on,,,,,192,0,3,,,,,2,,,63,90
16128,note_on,,,,,192,0,2,,,,,1,,,63,96
16128,note_on,,,,,192,0,1,,,,,0,,,68,106
16128,note_on,,,,,192,0,4,,,,,3,,,48,81
16320,note_off,,,,,192,0,4,,,,,3,,,48,0
16320,note_off,,,,,192,0,1,,,,,0,,,68,0
16320,note_off,,,,,192,0,3,,,,,2,,,63,0
16320,note_off,,,,,192,0,2,,,,,1,,,63,0
16512,note_on,,,,,192,0,2,,,,,1,,,67,96
16512,note_on,,,,,192,0,3,,,,,2,,,63,90
16512,note_on,,,,,192,0,4,,,,,3,,,46,81
16512,note_on,,,,,192,0,1,,,,,0,,,70,106
16704,note_off,,,,,192,0,4,,,,,3,,,46,0
16704,note_off,,,,,192,0,1,,,,,0,,,70,0
16704,note_off,,,,,192,0,2,,,,,1,,,67,0
16704,note_off,,,,,192,0,3,,,,,2,,,63,0
16896,note_on,,,,,192,0,1,,,,,0,,,72,106
16896,note_on,,,,,192,0,4,,,,,3,,,44,81
16896,note_on,,,,,192,0,3,,,,,2,,,63,90
16896,note_on,,,,,192,0,2,,,,,1,,,68,96
17088,note_off,,,,,192,0,2,,,,,1,,,68,0
17088,note_off,,,,,192,0,4,,,,,3,,,44,0
17088,note_off,,,,,192,0,1,,,,,0,,,72,0
17088,note_off,,,,,192,0,3,,,,,2,,,63,0
17280,note_on,,,,,0,0,2,,,,,1,,,68,96
17280,note_on,,,,,192,0,2,,,,,1,,,58,96
17280,note_on,,,,,192,0,4,,,,,3,,,46,81
17280,note_on,,,,,192,0,1,,,,,0,,,70,106
17280,note_on,,,,,0,0,3,,,,,2,,,58,90
17280,note_on,,,,,192,0,3,,,,,2,,,65,90
17472,note_off,,,,,192,0,3,,,,,2,,,65,0
17472,note_off,,,,,192,0,4,,,,,3,,,46,0
17472,note_off,,,,,0,0,3,,,,,2,,,58,0
17472,note_off,,,,,192,0,2,,,,,1,,,58,0
17472,note_off,,,,,192,0,1,,,,,0,,,70,0
17472,note_off,,,,,0,0,2,,,,,1,,,68,0
17664,note_on,,,,,192,0,3,,,,,2,,,58,90
17664,note_on,,,,,0,0,2,,,,,1,,,68,96
17664,note_on,,,,,192,0,2,,,,,1,,,58,96
17664,note_on,,,,,192,0,4,,,,,3,,,58,81
17664,note_on,,,,,192,0,1,,,,,0,,,72,106
17664,note_on,,,,,0,0,3,,,,,2,,,65,90
17856,note_off,,,,,192,0,1,,,,,0,,,72,0
17856,note_off,,,,,192,0,3,,,,,2,,,58,0
17856,note_off,,,,,0,0,3,,,,,2,,,65,0
17856,note_off,,,,,0,0,2,,,,,1,,,68,0
17856,note_off,,,,,192,0,4,,,,,3,,,58,0
17856,note_off,,,,,192,0,2,,,,,1,,,58,0
18048,note_on,,,,,192,0,2,,,,,1,,,58,96
18048,note_on,,,,,192,0,4,,,,,3,,,58,81
18048,note_on,,,,,192,0,1,,,,,0,,,74,106
18048,note_on,,,,,0,0,2,,,,,1,,,68,96
18048,note_on,,,,,0,0,3,,,,,2,,,65,90
18048,note_on,,,,,192,0,3,,,,,2,,,58,90
18240,note_off,,,,,192,0,1,,,,,0,,,74,0
18240,note_off,,,,,0,0,3,,,,,2,,,65,0
18240,note_off,,,,,192,0,3,,,,,2,,,58,0
18240,note_off,,,,,192,0,2,,,,,1,,,58,0
18240,note_off,,,,,0,0,2,,,,,1,,,68,0
18240,note_off,,,,,192,0,4,,,,,3,,,58,0
18432,note_on,,,,,192,0,1,,,,,0,,,75,106
18432,note_on,,,,,192,0,3,,,,,2,,,63,90
18432,note_on,,,,,0,0,2,,,,,1,,,67,96
18432,note_on,,,,,192,0,2,,,,,1,,,58,96
18432,note_on,,,,,0,0,3,,,,,2,,,55,90
18432,note_on,,,,,192,0,4,,,,,3,,,51,81
18624,note_off,,,,,192,0,2,,,,,1,,,58,0
18624,note_off,,,,,0,0,2,,,,,1,,,67,0
18816,note_off,,,,,384,0,4,,,,,3,,,51,0
18816,note_off,,,,,384,0,3,,,,,2,,,63,0
18816,note_off,,,,,0,0,3,,,,,2,,,55,0
18816,note_off,,,,,384,0,1,,,,,0,,,75,0
19104,note_on,,,,,288,0,3,,,,,2,,,66,90
19104,note_on,,,,,288,0,1,,,,,0,,,78,106
19104,note_on,,,,,480,0,2,,,,,1,,,78,96
19200,note_on,,,,,0,0,3,,,,,2,,,67,90
19200,note_off,,,,,96,0,1,,,,,0,,,78,0
19200,note_on,,,,,0,0,2,,,,,1,,,79,96
19200,note_on,,,,,0,0,1,,,,,0,,,79,106
19200,note_off,,,,,96,0,2,,,,,1,,,78,0
19200,note_off,,,,,96,0,3,,,,,2,,,66,0
19392,note_off,,,,,192,0,1,,,,,0,,,79,0
19392,note_off,,,,,192,0,3,,,,,2,,,67,0
19392,note_off,,,,,192,0,2,,,,,1,,,79,0
19584,note_on,,,,,192,0,3,,,,,2,,,55,90
19584,note_on,,,,,0,0,3,,,,,2,,,65,90
19584,note_on,,,,,0,0,2,,,,,1,,,67,96
19584,note_on,,,,,768,0,4,,,,,3,,,59,81
19584,note_on,,,,,192,0,1,,,,,0,,,67,106
19584,note_on,,,,,192,0,2,,,,,1,,,55,96
20736,note_on,,,,,0,0,4,,,,,3,,,60,81
20736,note_off,,,,,1152,0,4,,,,,3,,,59,0
20736,note_off,,,,,0,0,3,,,,,2,,,65,0
20736,note_on,,,,,0,0,1,,,,,0,,,68,106
20736,note_on,,,,,0,0,3,,,,,2,,,55,90
20736,note_on,,,,,0,0,3,,,,,2,,,63,90
20736,note_off,,,,,1152,0,3,,,,,2,,,55,0
20736,note_off,,,,,1152,0,1,,,,,0,,,67,0
21120,note_off,,,,,0,0,3,,,,,2,,,55,0
21120,note_off,,,,,384,0,3,,,,,2,,,63,0
21120,note_off,,,,,1536,0,2,,,,,1,,,55,61
21120,note_off,,,,,384,0,4,,,,,3,,,60,0
21120,note_off,,,,,384,0,1,,,,,0,,,68,0
21120,note_off,,,,,0,0,2,,,,,1,,,67,61
21408,note_on,,,,,288,0,2,,,,,1,,,78,96
21408,note_on,,,,,288,0,1,,,,,0,,,78,106
21408,note_on,,,,,288,0,3,,,,,2,,,66,90
21504,note_off,,,,,96,0,2,,,,,1,,,78,0
21504,note_on,,,,,0,0,2,,,,,1,,,79,96
21504,note_on,,,,,0,0,3,,,,,2,,,67,90
21504,note_off,,,,,96,0,3,,,,,2,,,66,0
21504,note_off,,,,,96,0,1,,,,,0,,,78,0
21504,note_on,,,,,0,0,1,,,,,0,,,79,106
21696,note_off,,,,,192,0,3,,,,,2,,,67,0
21696,note_off,,,,,192,0,2,,,,,1,,,79,0
21696,note_off,,,,,192,0,1,,,,,0,,,79,0
21888,note_on,,,,,192,0,1,,,,,0,,,68,106
21888,note_on,,,,,768,0,4,,,,,3,,,60,81
21888,note_on,,,,,192,0,2,,,,,1,,,55,96
21888,note_on,,,,,0,0,2,,,,,1,,,67,96
21888,note_on,,,,,192,0,3,,,,,2,,,55,90
21888,note_on,,,,,0,0,3,,,,,2,,,63,90
23040,note_on,,,,,0,0,4,,,,,3,,,62,81
23040,note_off,,,,,1152,0,4,,,,,3,,,60,0
23040,note_off,,,,,1152,0,3,,,,,2,,,55,0
23040,note_on,,,,,0,0,3,,,,,2,,,65,90
23040,note_off,,,,,0,0,3,,,,,2,,,63,0
23040,note_off,,,,,1152,0,1,,,,,0,,,68,0
23040,note_on,,,,,0,0,1,,,,,0,,,71,106
23040,note_on,,,,,0,0,3,,,,,2,,,55,90
23424,note_off,,,,,0,0,3,,,,,2,,,65,0
23424,note_off,,,,,384,0,3,,,,,2,,,55,0
23424,note_off,,,,,1536,0,2,,,,,1,,,55,61
23424,note_off,,,,,0,0,2,,,,,1,,,67,61
23424,note_off,,,,,384,0,1,,,,,0,,,71,0
23424,note_off,,,,,384,0,4,,,,,3,,,62,0
23712,note_on,,,,,288,0,3,,,,,2,,,66,90
23712,note_on,,,,,288,0,2,,,,,1,,,78,96
23712,note_on,,,,,288,0,1,,,,,0,,,78,106
23808,note_on,,,,,0,0,3,,,,,2,,,67,90
23808,note_on,,,,,0,0,2,,,,,1,,,79,96
23808,note_off,,,,,96,0,3,,,,,2,,,66,0
23808,note_off,,,,,96,0,2,,,,,1,,,78,0
23808,note_on,,,,,0,0,1,,,,,0,,,79,106
23808,note_off,,,,,96,0,1,,,,,0,,,78,0
24000,note_off,,,,,192,0,2,,,,,1,,,79,0
24000,note_off,,,,,192,0,3,,,,,2,,,67,0
24000,note_off,,,,,192,0,1,,,,,0,,,79,0
24192,note_on,,,,,192,0,1,,,,,0,,,71,106
24192,note_on,,,,,192,0,2,,,,,1,,,55,96
24192,note_on,,,,,0,0,2,,,,,1,,,67,96
24192,note_on,,,,,768,0,4,,,,,3,,,62,81
24192,note_on,,,,,0,0,3,,,,,2,,,65,90
24192,note_on,,,,,192,0,3,,,,,2,,,55,90
24864,note_off,,,,,672,0,3,,,,,2,,,55,0
24864,note_off,,,,,0,0,2,,,,,1,,,67,0
24864,note_off,,,,,672,0,1,,,,,0,,,71,0
24864,note_on,,,,,0,0,1,,,,,0,,,78,106
24864,note_off,,,,,672,0,2,,,,,1,,,55,0
24864,note_off,,,,,0,0,3,,,,,2,,,65,0
24864,note_on,,,,,0,0,3,,,,,2,,,66,90
24864,note_on,,,,,0,0,2,,,,,1,,,78,96
24960,note_off,,,,,96,0,2,,,,,1,,,78,0
24960,note_on,,,,,0,0,3,,,,,2,,,67,90
24960,note_off,,,,,96,0,3,,,,,2,,,66,0
24960,note_on,,,,,0,0,2,,,,,1,,,79,96
24960,note_on,,,,,0,0,1,,,,,0,,,79,106
24960,note_off,,,,,96,0,1,,,,,0,,,78,0
24960,note_off,,,,,768,0,4,,,,,3,,,62,0
25152,note_off,,,,,192,0,3,,,,,2,,,67,0
25152,note_off,,,,,192,0,2,,,,,1,,,79,0
25152,note_off,,,,,192,0,1,,,,,0,,,79,0
25344,note_on,,,,,0,0,3,,,,,2,,,67,90
25344,note_on,,,,,192,0,2,,,,,1,,,55,96
25344,note_on,,,,,0,0,2,,,,,1,,,67,96
25344,note_on,,,,,192,0,1,,,,,0,,,72,106
25344,note_on,,,,,384,0,4,,,,,3,,,63,81
25344,note_on,,,,,192,0,3,,,,,2,,,55,90
26016,note_off,,,,,672,0,2,,,,,1,,,55,0
26016,note_on,,,,,0,0,2,,,,,1,,,78,96
26016,note_off,,,,,672,0,1,,,,,0,,,72,0
26016,note_on,,,,,0,0,1,,,,,0,,,78,106
26016,note_off,,,,,0,0,2,,,,,1,,,67,0
26016,note_off,,,,,0,0,3,,,,,2,,,67,0
26016,note_on,,,,,0,0,3,,,,,2,,,66,90
26016,note_off,,,,,672,0,3,,,,,2,,,55,0
26112,note_off,,,,,768,0,4,,,,,3,,,63,0
26112,note_on,,,,,0,0,1,,,,,0,,,79,106
26112,note_off,,,,,96,0,2,,,,,1,,,78,0
26112,note_on,,,,,0,0,2,,,,,1,,,79,96
26112,note_on,,,,,0,0,3,,,,,2,,,67,90
26112,note_off,,,,,96,0,3,,,,,2,,,66,0
26112,note_off,,,,,96,0,1,,,,,0,,,78,0
26304,note_off,,,,,192,0,3,,,,,2,,,67,0
26304,note_off,,,,,192,0,1,,,,,0,,,79,0
26304,note_off,,,,,192,0,2,,,,,1,,,79,0
26496,note_on,,,,,192,0,2,,,,,1,,,67,96
26496,note_on,,,,,192,0,3,,,,,2,,,55,90
26496,note_on,,,,,192,0,1,,,,,0,,,73,106
26496,note_on,,,,,384,0,4,,,,,3,,,51,81
27648,note_off,,,,,1152,0,1,,,,,0,,,73,0
27648,note_on,,,,,0,0,1,,,,,0,,,74,106
27648,note_on,,,,,0,0,2,,,,,1,,,66,96
27648,note_on,,,,,0,0,4,,,,,3,,,50,81
27648,note_off,,,,,1152,0,4,,,,,3,,,51,0
27648,note_on,,,,,0,0,3,,,,,2,,,57,90
27648,note_off,,,,,1152,0,3,,,,,2,,,55,0
27648,note_off,,,,,1152,0,2,,,,,1,,,67,0
28032,note_off,,,,,384,0,2,,,,,1,,,66,0
28032,note_off,,,,,384,0,1,,,,,0,,,74,0
28032,note_off,,,,,384,0,4,,,,,3,,,50,0
28032,note_off,,,,,384,0,3,,,,,2,,,57,0
28320,note_on,,,,,288,0,2,,,,,1,,,73,96
28320,note_on,,,,,288,0,1,,,,,0,,,85,106
28320,note_on,,,,,288,0,3,,,,,2,,,73,90
28416,note_on,,,,,0,0,2,,,,,1,,,74,96
28416,note_off,,,,,96,0,1,,,,,0,,,85,0
28416,note_off,,,,,96,0,3,,,,,2,,,73,0
28416,note_off,,,,,96,0,2,,,,,1,,,73,0
28416,note_on,,,,,0,0,3,,,,,2,,,74,90
28416,note_on,,,,,0,0,1,,,,,0,,,86,106
28608,note_off,,,,,192,0,1,,,,,0,,,86,0
28608,note_off,,,,,192,0,3,,,,,2,,,74,0
28608,note_off,,,,,192,0,2,,,,,1,,,74,0
28800,note_on,,,,,0,0,2,,,,,1,,,69,96
28800,note_on,,,,,192,0,3,,,,,2,,,66,90
28800,note_on,,,,,768,0,4,,,,,3,,,50,81
28800,note_on,,,,,192,0,1,,,,,0,,,74,106
28800,note_on,,,,,192,0,2,,,,,1,,,62,96
28992,note_off,,,,,0,0,2,,,,,1,,,69,0
28992,note_on,,,,,0,0,2,,,,,1,,,69,96
28992,note_on,,,,,0,0,2,,,,,1,,,62,96
28992,note_off,,,,,192,0,4,,,,,3,,,50,0
28992,note_on,,,,,0,0,3,,,,,2,,,66,90
28992,note_off,,,,,192,0,3,,,,,2,,,66,0
28992,note_off,,,,,192,0,2,,,,,1,,,62,0
29184,note_on,,,,,192,0,4,,,,,3,,,54,81
29376,note_off,,,,,384,0,2,,,,,1,,,69,0
29376,note_off,,,,,0,0,2,,,,,1,,,62,0
29376,note_on,,,,,0,0,2,,,,,1,,,69,96
29376,note_on,,,,,0,0,2,,,,,1,,,62,96
29376,note_off,,,,,192,0,4,,,,,3,,,54,0
29376,note_on,,,,,0,0,3,,,,,2,,,66,90
29376,note_off,,,,,384,0,3,,,,,2,,,66,0
29472,note_on,,,,,0,0,1,,,,,0,,,85,106
29472,note_off,,,,,672,0,1,,,,,0,,,74,0
29568,note_on,,,,,0,0,1,,,,,0,,,86,106
29568,note_off,,,,,96,0,1,,,,,0,,,85,0
29568,note_on,,,,,192,0,4,,,,,3,,,57,81
29760,note_on,,,,,0,0,2,,,,,1,,,69,96
29760,note_on,,,,,0,0,2,,,,,1,,,62,96
29760,note_off,,,,,192,0,4,,,,,3,,,57,0
29760,note_off,,,,,384,0,2,,,,,1,,,69,0
29760,note_off,,,,,384,0,3,,,,,2,,,66,0
29760,note_on,,,,,0,0,3,,,,,2,,,66,90
29760,note_off,,,,,192,0,1,,,,,0,,,86,0
29760,note_off,,,,,0,0,2,,,,,1,,,62,0
29952,note_off,,,,,0,0,2,,,,,1,,,69,0
29952,note_off,,,,,192,0,2,,,,,1,,,62,0
29952,note_on,,,,,0,0,2,,,,,1,,,62,96
29952,note_on,,,,,0,0,3,,,,,2,,,67,90
29952,note_on,,,,,192,0,1,,,,,0,,,74,106
29952,note_on,,,,,192,0,4,,,,,3,,,50,81
29952,note_on,,,,,0,0,2,,,,,1,,,70,96
29952,note_off,,,,,192,0,3,,,,,2,,,66,0
30144,note_off,,,,,192,0,3,,,,,2,,,67,0
30144,note_off,,,,,192,0,4,,,,,3,,,50,0
30144,note_on,,,,,0,0,2,,,,,1,,,62,96
30144,note_on,,,,,0,0,2,,,,,1,,,70,96
30144,note_off,,,,,0,0,2,,,,,1,,,62,0
30144,note_off,,,,,192,0,2,,,,,1,,,70,0
30144,note_on,,,,,0,0,3,,,,,2,,,67,90
30336,note_on,,,,,192,0,4,,,,,3,,,55,81
30528,note_off,,,,,0,0,2,,,,,1,,,62,0
30528,note_off,,,,,384,0,2,,,,,1,,,70,0
30528,note_off,,,,,384,0,3,,,,,2,,,67,0
30528,note_on,,,,,0,0,3,,,,,2,,,67,90
30528,note_on,,,,,0,0,2,,,,,1,,,70,96
30528,note_on,,,,,0,0,2,,,,,1,,,62,96
30528,note_off,,,,,192,0,4,,,,,3,,,55,0
30624,note_on,,,,,0,0,1,,,,,0,,,85,106
30624,note_off,,,,,672,0,1,,,,,0,,,74,0
30720,note_on,,,,,192,0,4,,,,,3,,,58,81
30720,note_on,,,,,0,0,1,,,,,0,,,86,106
30720,note_off,,,,,96,0,1,,,,,0,,,85,0
30912,note_off,,,,,384,0,3,,,,,2,,,67,0
30912,note_off,,,,,192,0,4,,,,,3,,,58,0
30912,note_on,,,,,0,0,2,,,,,1,,,62,96
30912,note_on,,,,,0,0,2,,,,,1,,,70,96
30912,note_off,,,,,0,0,2,,,,,1,,,62,0
30912,note_off,,,,,192,0,1,,,,,0,,,86,0
30912,note_on,,,,,0,0,3,,,,,2,,,67,90
30912,note_off,,,,,384,0,2,,,,,1,,,70,0
31104,note_on,,,,,192,0,4,,,,,3,,,50,81
31104,note_on,,,,,192,0,1,,,,,0,,,74,106
31104,note_on,,,,,0,0,2,,,,,1,,,62,96
31104,note_off,,,,,192,0,3,,,,,2,,,67,0
31104,note_on,,,,,0,0,3,,,,,2,,,66,90
31104,note_off,,,,,0,0,2,,,,,1,,,62,0
31104,note_on,,,,,0,0,2,,,,,1,,,69,96
31104,note_off,,,,,192,0,2,,,,,1,,,70,0
31296,note_off,,,,,0,0,2,,,,,1,,,62,0
31296,note_on,,,,,0,0,2,,,,,1,,,69,96
31296,note_on,,,,,0,0,2,,,,,1,,,62,96
31296,note_on,,,,,0,0,3,,,,,2,,,66,90
31296,note_off,,,,,192,0,4,,,,,3,,,50,0
31296,note_off,,,,,192,0,2,,,,,1,,,69,0
31296,note_off,,,,,192,0,3,,,,,2,,,66,0
31488,note_on,,,,,192,0,4,,,,,3,,,54,81
31680,note_off,,,,,0,0,2,,,,,1,,,62,0
31680,note_on,,,,,0,0,2,,,,,1,,,69,96
31680,note_on,,,,,0,0,2,,,,,1,,,62,96
31680,note_off,,,,,384,0,2,,,,,1,,,69,0
31680,note_off,,,,,192,0,4,,,,,3,,,54,0
31680,note_on,,,,,0,0,3,,,,,2,,,66,90
31680,note_off,,,,,384,0,3,,,,,2,,,66,0
31776,note_off,,,,,672,0,1,,,,,0,,,74,0
31776,note_on,,,,,0,0,1,,,,,0,,,85,106
31872,note_on,,,,,192,0,4,,,,,3,,,57,81
31872,note_off,,,,,96,0,1,,,,,0,,,85,0
31872,note_on,,,,,0,0,1,,,,,0,,,86,106
32064,note_off,,,,,192,0,4,,,,,3,,,57,0
32064,note_on,,,,,0,0,2,,,,,1,,,62,96
32064,note_on,,,,,0,0,2,,,,,1,,,69,96
32064,note_off,,,,,0,0,2,,,,,1,,,69,0
32064,note_on,,,,,0,0,3,,,,,2,,,66,90
32064,note_off,,,,,384,0,3,,,,,2,,,66,0
32064,note_off,,,,,384,0,2,,,,,1,,,62,0
32064,note_off,,,,,192,0,1,,,,,0,,,86,0
32256,note_on,,,,,192,0,4,,,,,3,,,50,81
32256,note_off,,,,,192,0,2,,,,,1,,,69,0
32256,note_off,,,,,0,0,2,,,,,1,,,62,0
32256,note_on,,,,,0,0,2,,,,,1,,,70,96
32256,note_on,,,,,0,0,2,,,,,1,,,62,96
32256,note_off,,,,,192,0,3,,,,,2,,,66,0
32256,note_on,,,,,0,0,3,,,,,2,,,67,90
32256,note_on,,,,,192,0,1,,,,,0,,,74,106
32448,note_off,,,,,192,0,4,,,,,3,,,50,0
32448,note_on,,,,,0,0,2,,,,,1,,,70,96
32448,note_on,,,,,0,0,2,,,,,1,,,62,96
32448,note_off,,,,,0,0,2,,,,,1,,,62,0
32448,note_off,,,,,192,0,3,,,,,2,,,67,0
32448,note_on,,,,,0,0,3,,,,,2,,,67,90
32448,note_off,,,,,192,0,2,,,,,1,,,70,0
32640,note_on,,,,,192,0,4,,,,,3,,,55,81
32832,note_on,,,,,0,0,3,,,,,2,,,67,90
32832,note_off,,,,,384,0,3,,,,,2,,,67,0
32832,note_off,,,,,192,0,4,,,,,3,,,55,0
32832,note_on,,,,,0,0,2,,,,,1,,,70,96
32832,note_on,,,,,0,0,2,,,,,1,,,62,96
32832,note_off,,,,,384,0,2,,,,,1,,,62,0
32832,note_off,,,,,0,0,2,,,,,1,,,70,0
32928,note_on,,,,,0,0,1,,,,,0,,,85,106
32928,note_off,,,,,672,0,1,,,,,0,,,74,0
33024,note_on,,,,,0,0,1,,,,,0,,,86,106
33024,note_off,,,,,96,0,1,,,,,0,,,85,0
33024,note_on,,,,,192,0,4,,,,,3,,,58,81
33216,note_off,,,,,384,0,3,,,,,2,,,67,0
33216,note_on,,,,,0,0,3,,,,,2,,,67,90
33216,note_off,,,,,192,0,4,,,,,3,,,58,0
33216,note_off,,,,,384,0,2,,,,,1,,,70,0
33216,note_off,,,,,0,0,2,,,,,1,,,62,0
33216,note_on,,,,,0,0,2,,,,,1,,,62,96
33216,note_on,,,,,0,0,2,,,,,1,,,70,96
33216,note_off,,,,,192,0,1,,,,,0,,,86,0
33408,note_on,,,,,192,0,1,,,,,0,,,74,106
33408,note_on,,,,,0,0,3,,,,,2,,,66,90
33408,note_off,,,,,192,0,3,,,,,2,,,67,0
33408,note_on,,,,,192,0,4,,,,,3,,,50,81
33408,note_on,,,,,0,0,2,,,,,1,,,62,96
33408,note_on,,,,,0,0,2,,,,,1,,,69,96
33408,note_off,,,,,0,0,2,,,,,1,,,70,0
33408,note_off,,,,,192,0,2,,,,,1,,,62,0
34080,note_off,,,,,0,0,2,,,,,1,,,62,0
34080,note_on,,,,,0,0,1,,,,,0,,,85,106
34080,note_on,,,,,0,0,2,,,,,1,,,73,96
34080,note_off,,,,,672,0,1,,,,,0,,,74,0
34080,note_off,,,,,672,0,2,,,,,1,,,69,0
34176,note_off,,,,,96,0,1,,,,,0,,,85,0
34176,note_on,,,,,0,0,2,,,,,1,,,74,96
34176,note_off,,,,,96,0,2,,,,,1,,,73,0
34176,note_off,,,,,768,0,4,,,,,3,,,50,0
34176,note_on,,,,,0,0,1,,,,,0,,,86,106
34176,note_off,,,,,768,0,3,,,,,2,,,66,0
34368,note_off,,,,,192,0,1,,,,,0,,,86,0
34368,note_off,,,,,192,0,2,,,,,1,,,74,0
34560,note_on,,,,,192,0,1,,,,,0,,,74,106
34560,note_on,,,,,192,0,2,,,,,1,,,62,96
35232,note_off,,,,,672,0,2,,,,,1,,,62,0
35232,note_off,,,,,672,0,1,,,,,0,,,74,0
35232,note_on,,,,,0,0,1,,,,,0,,,73,106
35232,note_on,,,,,0,0,2,,,,,1,,,73,96
35232,note_on,,,,,1056,0,3,,,,,2,,,61,90
35232,note_on,,,,,1056,0,4,,,,,3,,,49,81
35328,note_off,,,,,96,0,3,,,,,2,,,61,0
35328,note_on,,,,,0,0,3,,,,,2,,,62,90
35328,note_on,,,,,0,0,1,,,,,0,,,74,106
35328,note_off,,,,,96,0,1,,,,,0,,,73,0
35328,note_off,,,,,96,0,2,,,,,1,,,73,0
35328,note_on,,,,,0,0,4,,,,,3,,,50,81
35328,note_off,,,,,96,0,4,,,,,3,,,49,0
35328,note_on,,,,,0,0,2,,,,,1,,,74,96
35520,note_off,,,,,192,0,4,,,,,3,,,50,0
35520,note_off,,,,,192,0,1,,,,,0,,,74,0
35520,note_off,,,,,192,0,3,,,,,2,,,62,0
35520,note_off,,,,,192,0,2,,,,,1,,,74,0
35712,note_on,,,,,192,0,1,,,,,0,,,62,106
35712,note_on,,,,,192,0,2,,,,,1,,,62,96
35712,note_on,,,,,192,0,3,,,,,2,,,50,90
35712,note_on,,,,,192,0,4,,,,,3,,,38,81
36384,note_on,,,,,0,0,1,,,,,0,,,73,106
36384,note_off,,,,,672,0,1,,,,,0,,,62,0
36384,note_on,,,,,0,0,2,,,,,1,,,73,96
36384,note_off,,,,,672,0,2,,,,,1,,,62,0
36384,note_on,,,,,0,0,3,,,,,2,,,61,90
36384,note_off,,,,,672,0,3,,,,,2,,,50,0
36480,note_on,,,,,0,0,3,,,,,2,,,62,90
36480,note_off,,,,,96,0,2,,,,,1,,,73,0
36480,note_on,,,,,0,0,2,,,,,1,,,74,96
36480,note_off,,,,,96,0,3,,,,,2,,,61,0
36480,note_on,,,,,0,0,1,,,,,0,,,74,106
36480,note_off,,,,,96,0,1,,,,,0,,,73,0
36672,note_off,,,,,192,0,1,,,,,0,,,74,0
36672,note_off,,,,,192,0,2,,,,,1,,,74,0
36672,note_off,,,,,192,0,3,,,,,2,,,62,0
36864,note_on,,,,,192,0,1,,,,,0,,,62,106
36864,note_on,,,,,192,0,2,,,,,1,,,62,96
36864,note_on,,,,,192,0,3,,,,,2,,,50,90
37248,note_off,,,,,1536,0,4,,,,,3,,,38,51
37536,note_on,,,,,0,0,1,,,,,0,,,70,106
37536,note_off,,,,,672,0,1,,,,,0,,,62,0
37632,note_on,,,,,0,0,1,,,,,0,,,71,106
37632,note_off,,,,,96,0,1,,,,,0,,,70,0
37632,note_off,,,,,768,0,2,,,,,1,,,62,0
37632,note_off,,,,,768,0,3,,,,,2,,,50,0
37824,note_off,,,,,192,0,1,,,,,0,,,71,0
38016,note_on,,,,,768,0,4,,,,,3,,,58,81
38016,note_on,,,,,192,0,1,,,,,0,,,74,106
38016,note_on,,,,,384,0,3,,,,,2,,,65,90
38016,note_on,,,,,384,0,2,,,,,1,,,68,96
38208,note_off,,,,,192,0,1,,,,,0,,,74,0
38400,note_on,,,,,192,0,1,,,,,0,,,75,106
38592,note_off,,,,,192,0,1,,,,,0,,,75,0
38784,note_on,,,,,192,0,1,,,,,0,,,76,106
38976,note_off,,,,,192,0,1,,,,,0,,,76,0
39168,note_on,,,,,192,0,1,,,,,0,,,77,106
39168,note_off,,,,,1152,0,3,,,,,2,,,65,0
39168,note_on,,,,,0,0,3,,,,,2,,,62,90
39360,note_off,,,,,192,0,1,,,,,0,,,77,0
39552,note_off,,,,,1536,0,4,,,,,3,,,58,51
39552,note_off,,,,,384,0,3,,,,,2,,,62,0
39552,note_off,,,,,1536,0,2,,,,,1,,,68,61
39840,note_on,,,,,480,0,1,,,,,0,,,73,106
39936,note_off,,,,,96,0,1,,,,,0,,,73,0
39936,note_on,,,,,0,0,1,,,,,0,,,74,106
40128,note_off,,,,,192,0,1,,,,,0,,,74,0
40320,note_on,,,,,768,0,2,,,,,1,,,68,96
40320,note_on,,,,,768,0,3,,,,,2,,,62,90
40320,note_on,,,,,768,0,4,,,,,3,,,46,81
40320,note_on,,,,,192,0,1,,,,,0,,,77,106
40512,note_off,,,,,192,0,1,,,,,0,,,77,0
40704,note_on,,,,,192,0,1,,,,,0,,,78,106
40896,note_off,,,,,192,0,1,,,,,0,,,78,0
41088,note_on,,,,,192,0,1,,,,,0,,,79,106
41088,note_on,,,,,0,0,2,,,,,1,,,67,96
41088,note_off,,,,,768,0,2,,,,,1,,,68,0
41280,note_off,,,,,192,0,1,,,,,0,,,79,0
41472,note_on,,,,,0,0,2,,,,,1,,,65,96
41472,note_off,,,,,384,0,2,,,,,1,,,67,0
41472,note_on,,,,,192,0,1,,,,,0,,,80,106
41664,note_off,,,,,192,0,1,,,,,0,,,80,0
41856,note_off,,,,,1536,0,3,,,,,2,,,62,57
41856,note_off,,,,,1536,0,4,,,,,3,,,46,51
41856,note_off,,,,,384,0,2,,,,,1,,,65,0
42528,note_on,,,,,864,0,1,,,,,0,,,81,106
42624,note_off,,,,,96,0,1,,,,,0,,,81,0
42624,note_on,,,,,0,0,1,,,,,0,,,82,106
42816,note_off,,,,,192,0,1,,,,,0,,,82,0
44448,note_on,,,,,2592,0,3,,,,,2,,,74,90
44448,note_on,,,,,1632,0,1,,,,,0,,,74,106
44448,note_on,,,,,2592,0,2,,,,,1,,,74,96
44544,note_off,,,,,96,0,3,,,,,2,,,74,0
44544,note_on,,,,,0,0,2,,,,,1,,,75,96
44544,note_off,,,,,96,0,1,,,,,0,,,74,0
44544,note_on,,,,,0,0,1,,,,,0,,,75,106
44544,note_off,,,,,96,0,2,,,,,1,,,74,0
44544,note_on,,,,,0,0,3,,,,,2,,,75,90
44736,note_off,,,,,192,0,1,,,,,0,,,75,0
44736,note_off,,,,,192,0,2,,,,,1,,,75,0
44736,note_off,,,,,192,0,3,,,,,2,,,75,0
44928,note_on,,,,,192,0,1,,,,,0,,,63,106
44928,note_on,,,,,3072,0,4,,,,,3,,,55,81
44928,note_on,,,,,192,0,3,,,,,2,,,58,90
44928,note_on,,,,,192,0,2,,,,,1,,,63,96
46080,note_on,,,,,0,0,1,,,,,0,,,65,106
46080,note_off,,,,,1152,0,4,,,,,3,,,55,0
46080,note_on,,,,,0,0,4,,,,,3,,,56,81
46080,note_off,,,,,1152,0,3,,,,,2,,,58,0
46080,note_on,,,,,0,0,3,,,,,2,,,60,90
46080,note_off,,,,,1152,0,1,,,,,0,,,63,0
46464,note_off,,,,,384,0,4,,,,,3,,,56,0
46464,note_off,,,,,384,0,1,,,,,0,,,65,0
46464,note_off,,,,,384,0,3,,,,,2,,,60,0
46464,note_off,,,,,1536,0,2,,,,,1,,,63,61
46752,note_on,,,,,288,0,2,,,,,1,,,74,96
46752,note_on,,,,,288,0,1,,,,,0,,,74,106
46752,note_on,,,,,288,0,3,,,,,2,,,74,90
46848,note_off,,,,,96,0,3,,,,,2,,,74,0
46848,note_on,,,,,0,0,2,,,,,1,,,75,96
46848,note_off,,,,,96,0,2,,,,,1,,,74,0
46848,note_on,,,,,0,0,1,,,,,0,,,75,106
46848,note_off,,,,,96,0,1,,,,,0,,,74,0
46848,note_on,,,,,0,0,3,,,,,2,,,75,90
47040,note_off,,,,,192,0,1,,,,,0,,,75,0
47040,note_off,,,,,192,0,3,,,,,2,,,75,0
47040,note_off,,,,,192,0,2,,,,,1,,,75,0
47232,note_on,,,,,192,0,3,,,,,2,,,60,90
47232,note_on,,,,,768,0,4,,,,,3,,,57,81
47232,note_on,,,,,192,0,2,,,,,1,,,63,96
47232,note_on,,,,,192,0,1,,,,,0,,,65,106
48384,note_on,,,,,0,0,3,,,,,2,,,58,90
48384,note_off,,,,,1152,0,3,,,,,2,,,60,0
48384,note_on,,,,,0,0,4,,,,,3,,,58,81
48384,note_on,,,,,0,0,1,,,,,0,,,67,106
48384,note_off,,,,,1152,0,1,,,,,0,,,65,0
48384,note_off,,,,,1152,0,4,,,,,3,,,57,0
48768,note_off,,,,,384,0,1,,,,,0,,,67,0
48768,note_off,,,,,1536,0,2,,,,,1,,,63,61
48768,note_off,,,,,384,0,3,,,,,2,,,58,0
48768,note_off,,,,,384,0,4,,,,,3,,,58,0
49056,note_on,,,,,288,0,1,,,,,0,,,74,106
49056,note_on,,,,,288,0,3,,,,,2,,,74,90
49056,note_on,,,,,288,0,2,,,,,1,,,74,96
49152,note_off,,,,,96,0,2,,,,,1,,,74,0
49152,note_on,,,,,0,0,1,,,,,0,,,75,106
49152,note_off,,,,,96,0,1,,,,,0,,,74,0
49152,note_on,,,,,0,0,2,,,,,1,,,75,96
49152,note_on,,,,,0,0,3,,,,,2,,,75,90
49152,note_off,,,,,96,0,3,,,,,2,,,74,0
49344,note_off,,,,,192,0,3,,,,,2,,,75,0
49344,note_off,,,,,192,0,1,,,,,0,,,75,0
49344,note_off,,,,,192,0,2,,,,,1,,,75,0
49536,note_on,,,,,192,0,1,,,,,0,,,63,106
49536,note_on,,,,,192,0,2,,,,,1,,,63,96
49536,note_on,,,,,768,0,4,,,,,3,,,51,81
49536,note_on,,,,,192,0,3,,,,,2,,,63,90
49728,note_off,,,,,192,0,3,,,,,2,,,63,0
49728,note_off,,,,,192,0,1,,,,,0,,,63,0
49728,note_off,,,,,192,0,4,,,,,3,,,51,0
49728,note_off,,,,,192,0,2,,,,,1,,,63,0
49920,note_on,,,,,192,0,3,,,,,2,,,63,90
49920,note_on,,,,,192,0,1,,,,,0,,,65,106
49920,note_on,,,,,192,0,2,,,,,1,,,63,96
49920,note_on,,,,,192,0,4,,,,,3,,,50,81
50112,note_off,,,,,192,0,4,,,,,3,,,50,0
50112,note_off,,,,,192,0,3,,,,,2,,,63,0
50112,note_off,,,,,192,0,1,,,,,0,,,65,0
50112,note_off,,,,,192,0,2,,,,,1,,,63,0
50304,note_on,,,,,192,0,4,,,,,3,,,49,81
50304,note_on,,,,,192,0,3,,,,,2,,,63,90
50304,note_on,,,,,192,0,1,,,,,0,,,67,106
50304,note_on,,,,,192,0,2,,,,,1,,,63,96
50496,note_off,,,,,192,0,3,,,,,2,,,63,0
50496,note_off,,,,,192,0,2,,,,,1,,,63,0
50496,note_off,,,,,192,0,4,,,,,3,,,49,0
50496,note_off,,,,,192,0,1,,,,,0,,,67,0
50688,note_on,,,,,192,0,1,,,,,0,,,68,106
50688,note_on,,,,,192,0,4,,,,,3,,,48,81
50688,note_on,,,,,192,0,2,,,,,1,,,63,96
50688,note_on,,,,,192,0,3,,,,,2,,,63,90
50880,note_off,,,,,192,0,4,,,,,3,,,48,0
50880,note_off,,,,,192,0,2,,,,,1,,,63,0
50880,note_off,,,,,192,0,1,,,,,0,,,68,0
50880,note_off,,,,,192,0,3,,,,,2,,,63,0
51072,note_on,,,,,192,0,2,,,,,1,,,67,96
51072,note_on,,,,,192,0,4,,,,,3,,,46,81
51072,note_on,,,,,192,0,1,,,,,0,,,70,106
51072,note_on,,,,,192,0,3,,,,,2,,,63,90
51264,note_off,,,,,192,0,2,,,,,1,,,67,0
51264,note_off,,,,,192,0,4,,,,,3,,,46,0
51264,note_off,,,,,192,0,1,,,,,0,,,70,0
51264,note_off,,,,,192,0,3,,,,,2,,,63,0
51456,note_on,,,,,192,0,1,,,,,0,,,72,106
51456,note_on,,,,,192,0,2,,,,,1,,,68,96
51456,note_on,,,,,192,0,4,,,,,3,,,44,81
51456,note_on,,,,,192,0,3,,,,,2,,,60,90
51648,note_off,,,,,192,0,3,,,,,2,,,60,0
51648,note_off,,,,,192,0,4,,,,,3,,,44,0
51648,note_off,,,,,192,0,2,,,,,1,,,68,0
51648,note_off,,,,,192,0,1,,,,,0,,,72,0
51840,note_on,,,,,192,0,4,,,,,3,,,46,81
51840,note_on,,,,,192,0,3,,,,,2,,,58,90
51840,note_on,,,,,0,0,3,,,,,2,,,65,90
51840,note_on,,,,,192,0,1,,,,,0,,,70,106
51840,note_on,,,,,0,0,2,,,,,1,,,58,96
51840,note_on,,,,,192,0,2,,,,,1,,,68,96
52032,note_off,,,,,192,0,1,,,,,0,,,70,0
52032,note_off,,,,,192,0,4,,,,,3,,,46,0
52032,note_off,,,,,0,0,3,,,,,2,,,65,0
52032,note_off,,,,,0,0,2,,,,,1,,,58,0
52032,note_off,,,,,192,0,2,,,,,1,,,68,0
52032,note_off,,,,,192,0,3,,,,,2,,,58,0
52224,note_on,,,,,192,0,3,,,,,2,,,58,90
52224,note_on,,,,,192,0,1,,,,,0,,,80,106
52224,note_on,,,,,192,0,4,,,,,3,,,58,81
52224,note_on,,,,,0,0,2,,,,,1,,,58,96
52224,note_on,,,,,192,0,2,,,,,1,,,68,96
52224,note_on,,,,,0,0,3,,,,,2,,,65,90
52416,note_off,,,,,192,0,2,,,,,1,,,68,0
52416,note_off,,,,,192,0,1,,,,,0,,,80,0
52416,note_off,,,,,192,0,3,,,,,2,,,58,0
52416,note_off,,,,,0,0,3,,,,,2,,,65,0
52416,note_off,,,,,192,0,4,,,,,3,,,58,0
52416,note_off,,,,,0,0,2,,,,,1,,,58,0
52608,note_on,,,,,192,0,4,,,,,3,,,58,81
52608,note_on,,,,,192,0,1,,,,,0,,,74,106
52608,note_on,,,,,192,0,3,,,,,2,,,58,90
52608,note_on,,,,,0,0,3,,,,,2,,,65,90
52608,note_on,,,,,192,0,2,,,,,1,,,58,96
52608,note_on,,,,,0,0,2,,,,,1,,,68,96
52800,note_off,,,,,0,0,3,,,,,2,,,65,0
52800,note_off,,,,,192,0,2,,,,,1,,,58,0
52800,note_off,,,,,192,0,4,,,,,3,,,58,0
52800,note_off,,,,,192,0,1,,,,,0,,,74,0
52800,note_off,,,,,0,0,2,,,,,1,,,68,0
52800,note_off,,,,,192,0,3,,,,,2,,,58,0
52992,note_on,,,,,0,0,2,,,,,1,,,67,96
52992,note_on,,,,,192,0,1,,,,,0,,,75,106
52992,note_on,,,,,192,0,2,,,,,1,,,58,96
52992,note_on,,,,,192,0,3,,,,,2,,,63,90
52992,note_on,,,,,192,0,4,,,,,3,,,51,81
52992,note_on,,,,,0,0,3,,,,,2,,,55,90
53664,note_on,,,,,672,0,3,,,,,2,,,66,90
53664,note_on,,,,,672,0,2,,,,,1,,,78,96
53664,note_on,,,,,672,0,1,,,,,0,,,78,106
53760,note_on,,,,,0,0,1,,,,,0,,,79,106
53760,note_off,,,,,0,0,1,,,,,0,,,78,0
53760,note_off,,,,,96,0,1,,,,,0,,,75,0
53760,note_on,,,,,0,0,3,,,,,2,,,67,90
53760,note_off,,,,,0,0,3,,,,,2,,,66,0
53760,note_off,,,,,0,0,3,,,,,2,,,55,0
53760,note_off,,,,,96,0,3,,,,,2,,,63,0
53760,note_off,,,,,768,0,4,,,,,3,,,51,0
53760,note_on,,,,,0,0,2,,,,,1,,,79,96
53760,note_off,,,,,0,0,2,,,,,1,,,78,0
53760,note_off,,,,,0,0,2,,,,,1,,,67,0
53760,note_off,,,,,96,0,2,,,,,1,,,58,0
53952,note_off,,,,,192,0,2,,,,,1,,,79,0
53952,note_off,,,,,192,0,3,,,,,2,,,67,0
53952,note_off,,,,,192,0,1,,,,,0,,,79,0
54144,note_on,,,,,192,0,2,,,,,1,,,55,96
54144,note_on,,,,,0,0,3,,,,,2,,,65,90
54144,note_on,,,,,384,0,4,,,,,3,,,59,81
54144,note_on,,,,,192,0,1,,,,,0,,,67,106
54144,note_on,,,,,0,0,2,,,,,1,,,67,96
54144,note_on,,,,,192,0,3,,,,,2,,,55,90
55296,note_off,,,,,1152,0,1,,,,,0,,,67,0
55296,note_on,,,,,0,0,4,,,,,3,,,60,81
55296,note_on,,,,,0,0,3,,,,,2,,,55,90
55296,note_on,,,,,0,0,3,,,,,2,,,63,90
55296,note_off,,,,,0,0,3,,,,,2,,,65,0
55296,note_off,,,,,1152,0,3,,,,,2,,,55,0
55296,note_on,,,,,0,0,1,,,,,0,,,68,106
55296,note_off,,,,,1152,0,4,,,,,3,,,59,0
55680,note_off,,,,,384,0,1,,,,,0,,,68,0
55680,note_off,,,,,384,0,4,,,,,3,,,60,0
55680,note_off,,,,,0,0,3,,,,,2,,,55,0
55680,note_off,,,,,0,0,2,,,,,1,,,67,61
55680,note_off,,,,,1536,0,2,,,,,1,,,55,61
55680,note_off,,,,,384,0,3,,,,,2,,,63,0
55968,note_on,,,,,288,0,3,,,,,2,,,66,90
55968,note_on,,,,,288,0,2,,,,,1,,,78,96
55968,note_on,,,,,288,0,1,,,,,0,,,78,106
56064,note_on,,,,,0,0,2,,,,,1,,,79,96
56064,note_on,,,,,0,0,1,,,,,0,,,79,106
56064,note_off,,,,,96,0,3,,,,,2,,,66,0
56064,note_on,,,,,0,0,3,,,,,2,,,67,90
56064,note_off,,,,,96,0,1,,,,,0,,,78,0
56064,note_off,,,,,96,0,2,,,,,1,,,78,0
56256,note_off,,,,,192,0,2,,,,,1,,,79,0
56256,note_off,,,,,192,0,1,,,,,0,,,79,0
56256,note_off,,,,,192,0,3,,,,,2,,,67,0
56448,note_on,,,,,0,0,3,,,,,2,,,63,90
56448,note_on,,,,,768,0,4,,,,,3,,,60,81
56448,note_on,,,,,192,0,1,,,,,0,,,68,106
56448,note_on,,,,,0,0,2,,,,,1,,,67,96
56448,note_on,,,,,192,0,2,,,,,1,,,55,96
56448,note_on,,,,,192,0,3,,,,,2,,,55,90
57600,note_off,,,,,0,0,3,,,,,2,,,63,0
57600,note_on,,,,,0,0,3,,,,,2,,,55,90
57600,note_off,,,,,1152,0,1,,,,,0,,,68,0
57600,note_on,,,,,0,0,1,,,,,0,,,71,106
57600,note_off,,,,,1152,0,3,,,,,2,,,55,0
57600,note_off,,,,,1152,0,4,,,,,3,,,60,0
57600,note_on,,,,,0,0,3,,,,,2,,,65,90
57600,note_on,,,,,0,0,4,,,,,3,,,62,81
57984,note_off,,,,,1536,0,2,,,,,1,,,55,61
57984,note_off,,,,,0,0,2,,,,,1,,,67,61
57984,note_off,,,,,384,0,4,,,,,3,,,62,0
57984,note_off,,,,,0,0,3,,,,,2,,,65,0
57984,note_off,,,,,384,0,1,,,,,0,,,71,0
57984,note_off,,,,,384,0,3,,,,,2,,,55,0
58272,note_on,,,,,288,0,1,,,,,0,,,78,106
58272,note_on,,,,,288,0,2,,,,,1,,,78,96
58272,note_on,,,,,288,0,3,,,,,2,,,66,90
58368,note_off,,,,,96,0,1,,,,,0,,,78,0
58368,note_on,,,,,0,0,1,,,,,0,,,79,106
58368,note_on,,,,,0,0,3,,,,,2,,,67,90
58368,note_off,,,,,96,0,3,,,,,2,,,66,0
58368,note_off,,,,,96,0,2,,,,,1,,,78,0
58368,note_on,,,,,0,0,2,,,,,1,,,79,96
58560,note_off,,,,,192,0,1,,,,,0,,,79,0
58560,note_off,,,,,192,0,2,,,,,1,,,79,0
58560,note_off,,,,,192,0,3,,,,,2,,,67,0
58752,note_on,,,,,192,0,1,,,,,0,,,71,106
58752,note_on,,,,,192,0,2,,,,,1,,,55,96
58752,note_on,,,,,768,0,4,,,,,3,,,62,81
58752,note_on,,,,,0,0,2,,,,,1,,,67,96
58752,note_on,,,,,0,0,3,,,,,2,,,65,90
58752,note_on,,,,,192,0,3,,,,,2,,,55,90
59424,note_on,,,,,0,0,3,,,,,2,,,66,90
59424,note_off,,,,,0,0,3,,,,,2,,,65,0
59424,note_off,,,,,672,0,2,,,,,1,,,55,0
59424,note_off,,,,,0,0,2,,,,,1,,,67,0
59424,note_on,,,,,0,0,2,,,,,1,,,78,96
59424,note_off,,,,,672,0,3,,,,,2,,,55,0
59424,note_off,,,,,672,0,1,,,,,0,,,71,0
59424,note_on,,,,,0,0,1,,,,,0,,,78,106
59520,note_on,,,,,0,0,3,,,,,2,,,67,90
59520,note_off,,,,,96,0,1,,,,,0,,,78,0
59520,note_on,,,,,0,0,1,,,,,0,,,79,106
59520,note_off,,,,,768,0,4,,,,,3,,,62,0
59520,note_on,,,,,0,0,2,,,,,1,,,79,96
59520,note_off,,,,,96,0,2,,,,,1,,,78,0
59520,note_off,,,,,96,0,3,,,,,2,,,66,0
59712,note_off,,,,,192,0,2,,,,,1,,,79,0
59712,note_off,,,,,192,0,3,,,,,2,,,67,0
59712,note_off,,,,,192,0,1,,,,,0,,,79,0
59904,note_on,,,,,192,0,1,,,,,0,,,72,106
59904,note_on,,,,,0,0,2,,,,,1,,,67,96
59904,note_on,,,,,192,0,2,,,,,1,,,55,96
59904,note_on,,,,,0,0,3,,,,,2,,,67,90
59904,note_on,,,,,192,0,3,,,,,2,,,55,90
59904,note_on,,,,,384,0,4,,,,,3,,,63,81
60576,note_off,,,,,672,0,1,,,,,0,,,72,0
60576,note_on,,,,,0,0,1,,,,,0,,,78,106
60576,note_off,,,,,0,0,3,,,,,2,,,67,0
60576,note_on,,,,,0,0,3,,,,,2,,,66,90
60576,note_on,,,,,0,0,2,,,,,1,,,78,96
60576,note_off,,,,,0,0,2,,,,,1,,,67,0
60576,note_off,,,,,672,0,2,,,,,1,,,55,0
60576,note_off,,,,,672,0,3,,,,,2,,,55,0
60672,note_off,,,,,96,0,3,,,,,2,,,66,0
60672,note_on,,,,,0,0,3,,,,,2,,,67,90
60672,note_on,,,,,0,0,2,,,,,1,,,79,96
60672,note_off,,,,,96,0,2,,,,,1,,,78,0
60672,note_on,,,,,0,0,1,,,,,0,,,79,106
60672,note_off,,,,,768,0,4,,,,,3,,,63,0
60672,note_off,,,,,96,0,1,,,,,0,,,78,0
60864,note_off,,,,,192,0,3,,,,,2,,,67,0
60864,note_off,,,,,192,0,1,,,,,0,,,79,0
60864,note_off,,,,,192,0,2,,,,,1,,,79,0
61056,note_on,,,,,192,0,3,,,,,2,,,55,90
61056,note_on,,,,,192,0,2,,,,,1,,,67,96
61056,note_on,,,,,384,0,4,,,,,3,,,51,81
61056,note_on,,,,,192,0,1,,,,,0,,,73,106
62208,note_on,,,,,0,0,1,,,,,0,,,74,106
62208,note_off,,,,,1152,0,3,,,,,2,,,55,0
62208,note_on,,,,,0,0,3,,,,,2,,,57,90
62208,note_on,,,,,0,0,2,,,,,1,,,66,96
62208,note_off,,,,,1152,0,2,,,,,1,,,67,0
62208,note_off,,,,,1152,0,1,,,,,0,,,73,0
62208,note_off,,,,,1152,0,4,,,,,3,,,51,0
62208,note_on,,,,,0,0,4,,,,,3,,,50,81
62592,note_off,,,,,384,0,2,,,,,1,,,66,0
62592,note_off,,,,,384,0,4,,,,,3,,,50,0
62592,note_off,,,,,384,0,3,,,,,2,,,57,0
62592,note_off,,,,,384,0,1,,,,,0,,,74,0
62880,note_on,,,,,288,0,1,,,,,0,,,85,106
62880,note_on,,,,,288,0,3,,,,,2,,,73,90
62880,note_on,,,,,288,0,2,,,,,1,,,73,96
62976,note_on,,,,,0,0,2,,,,,1,,,74,96
62976,note_off,,,,,96,0,1,,,,,0,,,85,0
62976,note_on,,,,,0,0,3,,,,,2,,,74,90
62976,note_off,,,,,96,0,3,,,,,2,,,73,0
62976,note_on,,,,,0,0,1,,,,,0,,,86,106
62976,note_off,,,,,96,0,2,,,,,1,,,73,0
63168,note_off,,,,,192,0,3,,,,,2,,,74,0
63168,note_off,,,,,192,0,1,,,,,0,,,86,0
63168,note_off,,,,,192,0,2,,,,,1,,,74,0
63360,note_on,,,,,192,0,2,,,,,1,,,62,96
63360,note_on,,,,,0,0,2,,,,,1,,,69,96
63360,note_on,,,,,192,0,1,,,,,0,,,74,106
63360,note_on,,,,,192,0,3,,,,,2,,,66,90
63360,note_on,,,,,768,0,4,,,,,3,,,50,81
63552,note_on,,,,,0,0,2,,,,,1,,,62,96
63552,note_off,,,,,0,0,2,,,,,1,,,69,0
63552,note_off,,,,,192,0,2,,,,,1,,,62,0
63552,note_off,,,,,192,0,4,,,,,3,,,50,0
63552,note_on,,,,,0,0,3,,,,,2,,,66,90
63552,note_off,,,,,192,0,3,,,,,2,,,66,0
63552,note_on,,,,,0,0,2,,,,,1,,,69,96
63744,note_on,,,,,192,0,4,,,,,3,,,54,81
63936,note_off,,,,,0,0,2,,,,,1,,,62,0
63936,note_off,,,,,192,0,4,,,,,3,,,54,0
63936,note_on,,,,,0,0,2,,,,,1,,,62,96
63936,note_on,,,,,0,0,2,,,,,1,,,69,96
63936,note_off,,,,,384,0,2,,,,,1,,,69,0
63936,note_off,,,,,384,0,3,,,,,2,,,66,0
63936,note_on,,,,,0,0,3,,,,,2,,,66,90
64032,note_off,,,,,672,0,1,,,,,0,,,74,0
64032,note_on,,,,,0,0,1,,,,,0,,,85,106
64128,note_on,,,,,192,0,4,,,,,3,,,57,81
64128,note_on,,,,,0,0,1,,,,,0,,,86,106
64128,note_off,,,,,96,0,1,,,,,0,,,85,0
64320,note_off,,,,,192,0,1,,,,,0,,,86,0
64320,note_off,,,,,192,0,4,,,,,3,,,57,0
64320,note_off,,,,,384,0,3,,,,,2,,,66,0
64320,note_off,,,,,0,0,2,,,,,1,,,62,0
64320,note_on,,,,,0,0,2,,,,,1,,,62,96
64320,note_on,,,,,0,0,2,,,,,1,,,69,96
64320,note_on,,,,,0,0,3,,,,,2,,,66,90
64320,note_off,,,,,384,0,2,,,,,1,,,69,0
64512,note_off,,,,,192,0,2,,,,,1,,,62,0
64512,note_off,,,,,0,0,2,,,,,1,,,69,0
64512,note_on,,,,,192,0,1,,,,,0,,,74,106
64512,note_on,,,,,0,0,2,,,,,1,,,70,96
64512,note_on,,,,,0,0,2,,,,,1,,,62,96
64512,note_off,,,,,192,0,3,,,,,2,,,66,0
64512,note_on,,,,,192,0,4,,,,,3,,,50,81
64512,note_on,,,,,0,0,3,,,,,2,,,67,90
64704,note_off,,,,,0,0,2,,,,,1,,,62,0
64704,note_on,,,,,0,0,2,,,,,1,,,62,96
64704,note_on,,,,,0,0,2,,,,,1,,,70,96
64704,note_off,,,,,192,0,2,,,,,1,,,70,0
64704,note_off,,,,,192,0,3,,,,,2,,,67,0
64704,note_on,,,,,0,0,3,,,,,2,,,67,90
64704,note_off,,,,,192,0,4,,,,,3,,,50,0
64896,note_on,,,,,192,0,4,,,,,3,,,55,81
65088,note_on,,,,,0,0,2,,,,,1,,,70,96
65088,note_on,,,,,0,0,2,,,,,1,,,62,96
65088,note_off,,,,,384,0,3,,,,,2,,,67,0
65088,note_on,,,,,0,0,3,,,,,2,,,67,90
65088,note_off,,,,,384,0,2,,,,,1,,,70,0
65088,note_off,,,,,192,0,4,,,,,3,,,55,0
65088,note_off,,,,,0,0,2,,,,,1,,,62,0
65184,note_off,,,,,672,0,1,,,,,0,,,74,0
65184,note_on,,,,,0,0,1,,,,,0,,,85,106
65280,note_off,,,,,96,0,1,,,,,0,,,85,0
65280,note_on,,,,,192,0,4,,,,,3,,,58,81
65280,note_on,,,,,0,0,1,,,,,0,,,86,106
65472,note_off,,,,,384,0,2,,,,,1,,,70,0
65472,note_off,,,,,0,0,2,,,,,1,,,62,0
65472,note_on,,,,,0,0,2,,,,,1,,,70,96
65472,note_on,,,,,0,0,2,,,,,1,,,62,96
65472,note_off,,,,,384,0,3,,,,,2,,,67,0
65472,note_on,,,,,0,0,3,,,,,2,,,67,90
65472,note_off,,,,,192,0,1,,,,,0,,,86,0
65472,note_off,,,,,192,0,4,,,,,3,,,58,0
65664,note_on,,,,,0,0,2,,,,,1,,,62,96
65664,note_on,,,,,192,0,4,,,,,3,,,50,81
65664,note_off,,,,,192,0,2,,,,,1,,,70,0
65664,note_off,,,,,0,0,2,,,,,1,,,62,0
65664,note_on,,,,,0,0,2,,,,,1,,,69,96
65664,note_on,,,,,0,0,3,,,,,2,,,66,90
65664,note_off,,,,,192,0,3,,,,,2,,,67,0
65664,note_on,,,,,192,0,1,,,,,0,,,74,106
65856,note_off,,,,,192,0,2,,,,,1,,,69,0
65856,note_off,,,,,0,0,2,,,,,1,,,62,0
65856,note_on,,,,,0,0,2,,,,,1,,,69,96
65856,note_off,,,,,192,0,4,,,,,3,,,50,0
65856,note_on,,,,,0,0,2,,,,,1,,,62,96
65856,note_on,,,,,0,0,3,,,,,2,,,66,90
65856,note_off,,,,,192,0,3,,,,,2,,,66,0
66048,note_on,,,,,192,0,4,,,,,3,,,54,81
66240,note_off,,,,,192,0,4,,,,,3,,,54,0
66240,note_on,,,,,0,0,3,,,,,2,,,66,90
66240,note_off,,,,,384,0,3,,,,,2,,,66,0
66240,note_off,,,,,384,0,2,,,,,1,,,69,0
66240,note_on,,,,,0,0,2,,,,,1,,,62,96
66240,note_on,,,,,0,0,2,,,,,1,,,69,96
66240,note_off,,,,,0,0,2,,,,,1,,,62,0
66336,note_off,,,,,672,0,1,,,,,0,,,74,0
66336,note_on,,,,,0,0,1,,,,,0,,,85,106
66432,note_on,,,,,0,0,1,,,,,0,,,86,106
66432,note_off,,,,,96,0,1,,,,,0,,,85,0
66432,note_on,,,,,192,0,4,,,,,3,,,57,81
66624,note_off,,,,,0,0,2,,,,,1,,,69,0
66624,note_off,,,,,192,0,1,,,,,0,,,86,0
66624,note_off,,,,,192,0,4,,,,,3,,,57,0
66624,note_on,,,,,0,0,2,,,,,1,,,69,96
66624,note_on,,,,,0,0,2,,,,,1,,,62,96
66624,note_on,,,,,0,0,3,,,,,2,,,66,90
66624,note_off,,,,,384,0,3,,,,,2,,,66,0
66624,note_off,,,,,384,0,2,,,,,1,,,62,0
66816,note_on,,,,,192,0,4,,,,,3,,,50,81
66816,note_on,,,,,0,0,2,,,,,1,,,70,96
66816,note_on,,,,,0,0,3,,,,,2,,,67,90
66816,note_on,,,,,0,0,2,,,,,1,,,62,96
66816,note_off,,,,,0,0,2,,,,,1,,,62,0
66816,note_on,,,,,192,0,1,,,,,0,,,74,106
66816,note_off,,,,,192,0,3,,,,,2,,,66,0
66816,note_off,,,,,192,0,2,,,,,1,,,69,0
67008,note_off,,,,,192,0,3,,,,,2,,,67,0
67008,note_on,,,,,0,0,3,,,,,2,,,67,90
67008,note_on,,,,,0,0,2,,,,,1,,,70,96
67008,note_on,,,,,0,0,2,,,,,1,,,62,96
67008,note_off,,,,,0,0,2,,,,,1,,,62,0
67008,note_off,,,,,192,0,4,,,,,3,,,50,0
67008,note_off,,,,,192,0,2,,,,,1,,,70,0
67200,note_on,,,,,192,0,4,,,,,3,,,55,81
67392,note_off,,,,,192,0,4,,,,,3,,,55,0
67392,note_on,,,,,0,0,2,,,,,1,,,62,96
67392,note_on,,,,,0,0,3,,,,,2,,,67,90
67392,note_on,,,,,0,0,2,,,,,1,,,70,96
67392,note_off,,,,,0,0,2,,,,,1,,,70,0
67392,note_off,,,,,384,0,2,,,,,1,,,62,0
67392,note_off,,,,,384,0,3,,,,,2,,,67,0
67488,note_on,,,,,0,0,1,,,,,0,,,85,106
67488,note_off,,,,,672,0,1,,,,,0,,,74,0
67584,note_off,,,,,96,0,1,,,,,0,,,85,0
67584,note_on,,,,,192,0,4,,,,,3,,,58,81
67584,note_on,,,,,0,0,1,,,,,0,,,86,106
67776,note_off,,,,,384,0,2,,,,,1,,,70,0
67776,note_off,,,,,192,0,4,,,,,3,,,58,0
67776,note_off,,,,,192,0,1,,,,,0,,,86,0
67776,note_off,,,,,0,0,2,,,,,1,,,62,0
67776,note_on,,,,,0,0,2,,,,,1,,,62,96
67776,note_on,,,,,0,0,2,,,,,1,,,70,96
67776,note_off,,,,,384,0,3,,,,,2,,,67,0
67776,note_on,,,,,0,0,3,,,,,2,,,67,90
67968,note_on,,,,,192,0,1,,,,,0,,,74,106
67968,note_off,,,,,192,0,2,,,,,1,,,62,0
67968,note_on,,,,,192,0,4,,,,,3,,,50,81
67968,note_off,,,,,192,0,3,,,,,2,,,67,0
67968,note_on,,,,,0,0,3,,,,,2,,,66,90
67968,note_off,,,,,0,0,2,,,,,1,,,70,0
67968,note_on,,,,,0,0,2,,,,,1,,,62,96
67968,note_on,,,,,0,0,2,,,,,1,,,69,96
68640,note_on,,,,,0,0,1,,,,,0,,,85,106
68640,note_off,,,,,672,0,1,,,,,0,,,74,0
68640,note_off,,,,,672,0,2,,,,,1,,,69,0
68640,note_off,,,,,0,0,2,,,,,1,,,62,0
68640,note_on,,,,,0,0,2,,,,,1,,,73,96
68736,note_off,,,,,768,0,4,,,,,3,,,50,0
68736,note_off,,,,,96,0,2,,,,,1,,,73,0
68736,note_on,,,,,0,0,2,,,,,1,,,74,96
68736,note_off,,,,,96,0,1,,,,,0,,,85,0
68736,note_on,,,,,0,0,1,,,,,0,,,86,106
68736,note_off,,,,,768,0,3,,,,,2,,,66,0
68928,note_off,,,,,192,0,2,,,,,1,,,74,0
68928,note_off,,,,,192,0,1,,,,,0,,,86,0
69120,note_on,,,,,192,0,1,,,,,0,,,74,106
69120,note_on,,,,,192,0,2,,,,,1,,,62,96
69792,note_on,,,,,1056,0,4,,,,,3,,,49,81
69792,note_off,,,,,672,0,1,,,,,0,,,74,0
69792,note_on,,,,,0,0,1,,,,,0,,,73,106
69792,note_on,,,,,1056,0,3,,,,,2,,,61,90
69792,note_off,,,,,672,0,2,,,,,1,,,62,0
69792,note_on,,,,,0,0,2,,,,,1,,,73,96
69888,note_on,,,,,0,0,4,,,,,3,,,50,81
69888,note_off,,,,,96,0,4,,,,,3,,,49,0
69888,note_off,,,,,96,0,2,,,,,1,,,73,0
69888,note_on,,,,,0,0,2,,,,,1,,,74,96
69888,note_off,,,,,96,0,3,,,,,2,,,61,0
69888,note_off,,,,,96,0,1,,,,,0,,,73,0
69888,note_on,,,,,0,0,1,,,,,0,,,74,106
69888,note_on,,,,,0,0,3,,,,,2,,,62,90
70080,note_off,,,,,192,0,1,,,,,0,,,74,0
70080,note_off,,,,,192,0,3,,,,,2,,,62,0
70080,note_off,,,,,192,0,2,,,,,1,,,74,0
70080,note_off,,,,,192,0,4,,,,,3,,,50,0
70272,note_on,,,,,192,0,2,,,,,1,,,62,96
70272,note_on,,,,,192,0,1,,,,,0,,,62,106
70272,note_on,,,,,192,0,3,,,,,2,,,50,90
70272,note_on,,,,,192,0,4,,,,,3,,,38,81
70944,note_off,,,,,672,0,2,,,,,1,,,62,0
70944,note_on,,,,,0,0,2,,,,,1,,,73,96
70944,note_on,,,,,0,0,3,,,,,2,,,61,90
70944,note_off,,,,,672,0,3,,,,,2,,,50,0
70944,note_off,,,,,672,0,1,,,,,0,,,62,0
70944,note_on,,,,,0,0,1,,,,,0,,,73,106
71040,note_on,,,,,0,0,1,,,,,0,,,74,106
71040,note_off,,,,,96,0,3,,,,,2,,,61,0
71040,note_on,,,,,0,0,3,,,,,2,,,62,90
71040,note_off,,,,,96,0,1,,,,,0,,,73,0
71040,note_on,,,,,0,0,2,,,,,1,,,74,96
71040,note_off,,,,,96,0,2,,,,,1,,,73,0
71232,note_off,,,,,192,0,3,,,,,2,,,62,0
71232,note_off,,,,,192,0,1,,,,,0,,,74,0
71232,note_off,,,,,192,0,2,,,,,1,,,74,0
71424,note_on,,,,,192,0,1,,,,,0,,,62,106
71424,note_on,,,,,192,0,2,,,,,1,,,62,96
71424,note_on,,,,,192,0,3,,,,,2,,,50,90
71808,note_off,,,,,1536,0,4,,,,,3,,,38,51
72096,note_on,,,,,0,0,1,,,,,0,,,70,106
72096,note_off,,,,,672,0,1,,,,,0,,,62,0
72192,note_off,,,,,768,0,2,,,,,1,,,62,0
72192,note_off,,,,,768,0,3,,,,,2,,,50,0
72192,note_on,,,,,0,0,1,,,,,0,,,71,106
72192,note_off,,,,,96,0,1,,,,,0,,,70,0
72384,note_off,,,,,192,0,1,,,,,0,,,71,0
72576,note_on,,,,,384,0,2,,,,,1,,,68,96
72576,note_on,,,,,384,0,3,,,,,2,,,65,90
72576,note_on,,,,,192,0,1,,,,,0,,,74,106
72576,note_on,,,,,768,0,4,,,,,3,,,58,81
72768,note_off,,,,,192,0,1,,,,,0,,,74,0
72960,note_on,,,,,192,0,1,,,,,0,,,75,106
73152,note_off,,,,,192,0,1,,,,,0,,,75,0
73344,note_on,,,,,192,0,1,,,,,0,,,76,106
73536,note_off,,,,,192,0,1,,,,,0,,,76,0
73728,note_on,,,,,192,0,1,,,,,0,,,77,106
73728,note_on,,,,,0,0,3,,,,,2,,,62,90
73728,note_off,,,,,1152,0,3,,,,,2,,,65,0
73920,note_off,,,,,192,0,1,,,,,0,,,77,0
74112,note_off,,,,,1536,0,2,,,,,1,,,68,61
74112,note_off,,,,,384,0,3,,,,,2,,,62,0
74112,note_off,,,,,1536,0,4,,,,,3,,,58,51
74400,note_on,,,,,480,0,1,,,,,0,,,73,106
74496,note_on,,,,,0,0,1,,,,,0,,,74,106
74496,note_off,,,,,96,0,1,,,,,0,,,73,0
74688,note_off,,,,,192,0,1,,,,,0,,,74,0
74880,note_on,,,,,768,0,3,,,,,2,,,62,90
74880,note_on,,,,,768,0,2,,,,,1,,,68,96
74880,note_on,,,,,768,0,4,,,,,3,,,46,81
74880,note_on,,,,,192,0,1,,,,,0,,,77,106
75072,note_off,,,,,192,0,1,,,,,0,,,77,0
75264,note_on,,,,,192,0,1,,,,,0,,,78,106
75456,note_off,,,,,192,0,1,,,,,0,,,78,0
75648,note_on,,,,,192,0,1,,,,,0,,,79,106
75648,note_off,,,,,768,0,2,,,,,1,,,68,0
75648,note_on,,,,,0,0,2,,,,,1,,,67,96
75840,note_off,,,,,192,0,1,,,,,0,,,79,0
76032,note_on,,,,,192,0,1,,,,,0,,,80,106
76032,note_on,,,,,0,0,2,,,,,1,,,65,96
76032,note_off,,,,,384,0,2,,,,,1,,,67,0
76224,note_off,,,,,192,0,1,,,,,0,,,80,0
76416,note_off,,,,,1536,0,3,,,,,2,,,62,57
76416,note_off,,,,,1536,0,4,,,,,3,,,46,51
76416,note_off,,,,,384,0,2,,,,,1,,,65,0
77088,note_on,,,,,864,0,1,,,,,0,,,81,106
77184,note_off,,,,,96,0,1,,,,,0,,,81,0
77184,note_on,,,,,0,0,1,,,,,0,,,82,106
77376,note_off,,,,,192,0,1,,,,,0,,,82,0
79008,note_on,,,,,2592,0,2,,,,,1,,,74,96
79008,note_on,,,,,2592,0,3,,,,,2,,,74,90
79008,note_on,,,,,1632,0,1,,,,,0,,,74,106
79104,note_on,,,,,0,0,3,,,,,2,,,75,90
79104,note_on,,,,,0,0,2,,,,,1,,,75,96
79104,note_off,,,,,96,0,3,,,,,2,,,74,0
79104,note_on,,,,,0,0,1,,,,,0,,,75,106
79104,note_off,,,,,96,0,1,,,,,0,,,74,0
79104,note_off,,,,,96,0,2,,,,,1,,,74,0
79296,note_off,,,,,192,0,3,,,,,2,,,75,0
79296,note_off,,,,,192,0,2,,,,,1,,,75,0
79296,note_off,,,,,192,0,1,,,,,0,,,75,0
79488,note_on,,,,,192,0,1,,,,,0,,,63,106
79488,note_on,,,,,3072,0,4,,,,,3,,,55,81
79488,note_on,,,,,192,0,3,,,,,2,,,58,90
79488,note_on,,,,,192,0,2,,,,,1,,,63,96
80640,note_off,,,,,1152,0,3,,,,,2,,,58,0
80640,note_on,,,,,0,0,1,,,,,0,,,65,106
80640,note_off,,,,,1152,0,4,,,,,3,,,55,0
80640,note_on,,,,,0,0,3,,,,,2,,,60,90
80640,note_on,,,,,0,0,4,,,,,3,,,56,81
80640,note_off,,,,,1152,0,1,,,,,0,,,63,0
81024,note_off,,,,,384,0,4,,,,,3,,,56,0
81024,note_off,,,,,384,0,1,,,,,0,,,65,0
81024,note_off,,,,,384,0,3,,,,,2,,,60,0
81024,note_off,,,,,1536,0,2,,,,,1,,,63,61
81312,note_on,,,,,288,0,1,,,,,0,,,74,106
81312,note_on,,,,,288,0,2,,,,,1,,,74,96
81312,note_on,,,,,288,0,3,,,,,2,,,74,90
81408,note_off,,,,,96,0,1,,,,,0,,,74,0
81408,note_on,,,,,0,0,1,,,,,0,,,75,106
81408,note_on,,,,,0,0,2,,,,,1,,,75,96
81408,note_off,,,,,96,0,2,,,,,1,,,74,0
81408,note_on,,,,,0,0,3,,,,,2,,,75,90
81408,note_off,,,,,96,0,3,,,,,2,,,74,0
81600,note_off,,,,,192,0,1,,,,,0,,,75,0
81600,note_off,,,,,192,0,3,,,,,2,,,75,0
81600,note_off,,,,,192,0,2,,,,,1,,,75,0
81792,note_on,,,,,192,0,3,,,,,2,,,60,90
81792,note_on,,,,,192,0,1,,,,,0,,,65,106
81792,note_on,,,,,768,0,4,,,,,3,,,57,81
81792,note_on,,,,,192,0,2,,,,,1,,,63,96
82944,note_off,,,,,1152,0,4,,,,,3,,,57,0
82944,note_on,,,,,0,0,4,,,,,3,,,58,81
82944,note_off,,,,,1152,0,3,,,,,2,,,60,0
82944,note_on,,,,,0,0,3,,,,,2,,,58,90
82944,note_on,,,,,0,0,1,,,,,0,,,67,106
82944,note_off,,,,,1152,0,1,,,,,0,,,65,0
83328,note_off,,,,,384,0,1,,,,,0,,,67,0
83328,note_off,,,,,384,0,4,,,,,3,,,58,0
83328,note_off,,,,,1536,0,2,,,,,1,,,63,61
83328,note_off,,,,,384,0,3,,,,,2,,,58,0
83616,note_on,,,,,288,0,1,,,,,0,,,74,106
83616,note_on,,,,,288,0,2,,,,,1,,,74,96
83616,note_on,,,,,288,0,3,,,,,2,,,74,90
83712,note_on,,,,,0,0,1,,,,,0,,,75,106
83712,note_off,,,,,96,0,2,,,,,1,,,74,0
83712,note_on,,,,,0,0,2,,,,,1,,,75,96
83712,note_off,,,,,96,0,3,,,,,2,,,74,0
83712,note_off,,,,,96,0,1,,,,,0,,,74,0
83712,note_on,,,,,0,0,3,,,,,2,,,75,90
83904,note_off,,,,,192,0,3,,,,,2,,,75,0
83904,note_off,,,,,192,0,2,,,,,1,,,75,0
83904,note_off,,,,,192,0,1,,,,,0,,,75,0
84096,note_on,,,,,768,0,4,,,,,3,,,51,81
84096,note_on,,,,,192,0,2,,,,,1,,,63,96
84096,note_on,,,,,192,0,3,,,,,2,,,63,90
84096,note_on,,,,,192,0,1,,,,,0,,,63,106
84288,note_off,,,,,192,0,4,,,,,3,,,51,0
84288,note_off,,,,,192,0,2,,,,,1,,,63,0
84288,note_off,,,,,192,0,1,,,,,0,,,63,0
84288,note_off,,,,,192,0,3,,,,,2,,,63,0
84480,note_on,,,,,192,0,3,,,,,2,,,63,90
84480,note_on,,,,,192,0,1,,,,,0,,,65,106
84480,note_on,,,,,192,0,4,,,,,3,,,50,81
84480,note_on,,,,,192,0,2,,,,,1,,,63,96
84672,note_off,,,,,192,0,1,,,,,0,,,65,0
84672,note_off,,,,,192,0,4,,,,,3,,,50,0
84672,note_off,,,,,192,0,3,,,,,2,,,63,0
84672,note_off,,,,,192,0,2,,,,,1,,,63,0
84864,note_on,,,,,192,0,3,,,,,2,,,63,90
84864,note_on,,,,,192,0,1,,,,,0,,,67,106
84864,note_on,,,,,192,0,2,,,,,1,,,63,96
84864,note_on,,,,,192,0,4,,,,,3,,,49,81
85056,note_off,,,,,192,0,4,,,,,3,,,49,0
85056,note_off,,,,,192,0,3,,,,,2,,,63,0
85056,note_off,,,,,192,0,2,,,,,1,,,63,0
85056,note_off,,,,,192,0,1,,,,,0,,,67,0
85248,note_on,,,,,192,0,2,,,,,1,,,63,96
85248,note_on,,,,,192,0,1,,,,,0,,,68,106
85248,note_on,,,,,192,0,4,,,,,3,,,48,81
85248,note_on,,,,,192,0,3,,,,,2,,,63,90
85440,note_off,,,,,192,0,4,,,,,3,,,48,0
85440,note_off,,,,,192,0,2,,,,,1,,,63,0
85440,note_off,,,,,192,0,3,,,,,2,,,63,0
85440,note_off,,,,,192,0,1,,,,,0,,,68,0
85632,note_on,,,,,192,0,4,,,,,3,,,46,81
85632,note_on,,,,,192,0,3,,,,,2,,,63,90
85632,note_on,,,,,192,0,1,,,,,0,,,70,106
85632,note_on,,,,,192,0,2,,,,,1,,,67,96
85824,note_off,,,,,192,0,1,,,,,0,,,70,0
85824,note_off,,,,,192,0,3,,,,,2,,,63,0
85824,note_off,,,,,192,0,4,,,,,3,,,46,0
85824,note_off,,,,,192,0,2,,,,,1,,,67,0
86016,note_on,,,,,192,0,3,,,,,2,,,60,90
86016,note_on,,,,,192,0,4,,,,,3,,,44,81
86016,note_on,,,,,192,0,1,,,,,0,,,72,106
86016,note_on,,,,,192,0,2,,,,,1,,,68,96
86208,note_off,,,,,192,0,2,,,,,1,,,68,0
86208,note_off,,,,,192,0,4,,,,,3,,,44,0
86208,note_off,,,,,192,0,1,,,,,0,,,72,0
86208,note_off,,,,,192,0,3,,,,,2,,,60,0
86400,note_on,,,,,192,0,1,,,,,0,,,70,106
86400,note_on,,,,,192,0,4,,,,,3,,,46,81
86400,note_on,,,,,0,0,3,,,,,2,,,65,90
86400,note_on,,,,,192,0,3,,,,,2,,,58,90
86400,note_on,,,,,192,0,2,,,,,1,,,68,96
86400,note_on,,,,,0,0,2,,,,,1,,,58,96
86592,note_off,,,,,192,0,4,,,,,3,,,46,0
86592,note_off,,,,,192,0,3,,,,,2,,,58,0
86592,note_off,,,,,192,0,1,,,,,0,,,70,0
86592,note_off,,,,,192,0,2,,,,,1,,,68,0
86592,note_off,,,,,0,0,3,,,,,2,,,65,0
86592,note_off,,,,,0,0,2,,,,,1,,,58,0
86784,note_on,,,,,192,0,2,,,,,1,,,68,96
86784,note_on,,,,,192,0,4,,,,,3,,,58,81
86784,note_on,,,,,0,0,3,,,,,2,,,65,90
86784,note_on,,,,,192,0,1,,,,,0,,,80,106
86784,note_on,,,,,192,0,3,,,,,2,,,58,90
86784,note_on,,,,,0,0,2,,,,,1,,,58,96
86976,note_off,,,,,192,0,1,,,,,0,,,80,0
86976,note_off,,,,,192,0,2,,,,,1,,,68,0
86976,note_off,,,,,192,0,3,,,,,2,,,58,0
86976,note_off,,,,,192,0,4,,,,,3,,,58,0
86976,note_off,,,,,0,0,2,,,,,1,,,58,0
86976,note_off,,,,,0,0,3,,,,,2,,,65,0
87168,note_on,,,,,192,0,1,,,,,0,,,74,106
87168,note_on,,,,,0,0,3,,,,,2,,,65,90
87168,note_on,,,,,192,0,3,,,,,2,,,58,90
87168,note_on,,,,,192,0,2,,,,,1,,,58,96
87168,note_on,,,,,0,0,2,,,,,1,,,68,96
87168,note_on,,,,,192,0,4,,,,,3,,,58,81
87360,note_off,,,,,192,0,1,,,,,0,,,74,0
87360,note_off,,,,,192,0,4,,,,,3,,,58,0
87360,note_off,,,,,192,0,2,,,,,1,,,58,0
87360,note_off,,,,,0,0,2,,,,,1,,,68,0
87360,note_off,,,,,0,0,3,,,,,2,,,65,0
87360,note_off,,,,,192,0,3,,,,,2,,,58,0
87552,note_on,,,,,192,0,4,,,,,3,,,51,81
87552,note_on,,,,,192,0,3,,,,,2,,,55,90
87552,note_on,,,,,0,0,3,,,,,2,,,63,90
87552,note_on,,,,,192,0,1,,,,,0,,,75,106
87552,note_on,,,,,192,0,2,,,,,1,,,58,96
87552,note_on,,,,,0,0,2,,,,,1,,,67,96
88320,note_off,,,,,768,0,1,,,,,0,,,75,0
88320,note_off,,,,,768,0,2,,,,,1,,,58,0
88320,note_off,,,,,768,0,4,,,,,3,,,51,0
88320,note_off,,,,,768,0,3,,,,,2,,,55,0
88320,note_off,,,,,0,0,2,,,,,1,,,67,0
88320,note_off,,,,,0,0,3,,,,,2,,,63,0
88704,note_on,,,,,384,0,2,,,,,1,,,67,96
88704,note_on,,,,,384,0,1,,,,,0,,,79,106
88704,note_on,,,,,0,0,4,,,,,3,,,36,81
88704,note_on,,,,,384,0,4,,,,,3,,,43,81
88704,note_on,,,,,384,0,3,,,,,2,,,51,90
89088,note_on,,,,,0,0,3,,,,,2,,,55,90
89088,note_on,,,,,0,0,1,,,,,0,,,79,106
89088,note_off,,,,,384,0,3,,,,,2,,,51,0
89088,note_off,,,,,384,0,1,,,,,0,,,79,0
89088,note_on,,,,,0,0,2,,,,,1,,,67,96
89088,note_off,,,,,384,0,2,,,,,1,,,67,0
89280,note_off,,,,,192,0,1,,,,,0,,,79,0
89280,note_off,,,,,192,0,2,,,,,1,,,67,0
89280,note_on,,,,,0,0,2,,,,,1,,,65,96
89280,note_on,,,,,0,0,1,,,,,0,,,77,106
89472,note_off,,,,,384,0,3,,,,,2,,,55,0
89472,note_on,,,,,0,0,3,,,,,2,,,60,90
89472,note_off,,,,,192,0,1,,,,,0,,,77,0
89472,note_off,,,,,192,0,2,,,,,1,,,65,0
89472,note_on,,,,,0,0,2,,,,,1,,,63,96
89472,note_on,,,,,0,0,1,,,,,0,,,75,106
89664,note_off,,,,,192,0,2,,,,,1,,,63,0
89664,note_on,,,,,0,0,2,,,,,1,,,62,96
89664,note_off,,,,,192,0,1,,,,,0,,,75,0
89664,note_on,,,,,0,0,1,,,,,0,,,74,106
89856,note_on,,,,,0,0,1,,,,,0,,,72,106
89856,note_off,,,,,192,0,1,,,,,0,,,74,0
89856,note_on,,,,,0,0,2,,,,,1,,,60,96
89856,note_off,,,,,192,0,2,,,,,1,,,62,0
89856,note_on,,,,,0,0,3,,,,,2,,,51,90
89856,note_off,,,,,384,0,3,,,,,2,,,60,0
90240,note_on,,,,,0,0,3,,,,,2,,,55,90
90240,note_off,,,,,384,0,3,,,,,2,,,51,0
90624,note_on,,,,,0,0,2,,,,,1,,,55,96
90624,note_off,,,,,768,0,2,,,,,1,,,60,0
90624,note_on,,,,,0,0,1,,,,,0,,,67,106
90624,note_on,,,,,0,0,3,,,,,2,,,60,90
90624,note_off,,,,,384,0,3,,,,,2,,,55,0
90624,note_off,,,,,768,0,1,,,,,0,,,72,0
91008,note_off,,,,,384,0,2,,,,,1,,,55,0
91008,note_on,,,,,0,0,2,,,,,1,,,60,96
91008,note_off,,,,,384,0,1,,,,,0,,,67,0
91008,note_off,,,,,384,0,3,,,,,2,,,60,0
91008,note_on,,,,,0,0,3,,,,,2,,,51,90
91008,note_on,,,,,0,0,1,,,,,0,,,72,106
91200,note_off,,,,,192,0,1,,,,,0,,,72,0
91200,note_off,,,,,192,0,2,,,,,1,,,60,0
91200,note_on,,,,,0,0,2,,,,,1,,,59,96
91200,note_on,,,,,0,0,1,,,,,0,,,71,106
91392,note_off,,,,,192,0,2,,,,,1,,,59,0
91392,note_off,,,,,384,0,3,,,,,2,,,51,0
91392,note_off,,,,,192,0,1,,,,,0,,,71,0
91392,note_on,,,,,0,0,1,,,,,0,,,72,106
91392,note_on,,,,,0,0,2,,,,,1,,,60,96
91392,note_on,,,,,0,0,3,,,,,2,,,55,90
91584,note_on,,,,,0,0,2,,,,,1,,,62,96
91584,note_off,,,,,192,0,2,,,,,1,,,60,0
91584,note_off,,,,,192,0,1,,,,,0,,,72,0
91584,note_on,,,,,0,0,1,,,,,0,,,74,106
91776,note_on,,,,,0,0,2,,,,,1,,,63,96
91776,note_off,,,,,384,0,3,,,,,2,,,55,0
91776,note_on,,,,,0,0,1,,,,,0,,,75,106
91776,note_on,,,,,0,0,3,,,,,2,,,60,90
91776,note_off,,,,,192,0,2,,,,,1,,,62,0
91776,note_off,,,,,192,0,1,,,,,0,,,74,0
91968,note_off,,,,,192,0,2,,,,,1,,,63,0
91968,note_off,,,,,192,0,1,,,,,0,,,75,0
91968,note_on,,,,,0,0,1,,,,,0,,,77,106
91968,note_on,,,,,0,0,2,,,,,1,,,65,96
92160,note_on,,,,,0,0,1,,,,,0,,,79,106
92160,note_on,,,,,0,0,2,,,,,1,,,67,96
92160,note_on,,,,,0,0,3,,,,,2,,,53,90
92160,note_off,,,,,192,0,2,,,,,1,,,65,0
92160,note_off,,,,,384,0,3,,,,,2,,,60,0
92160,note_off,,,,,192,0,1,,,,,0,,,77,0
92352,note_on,,,,,0,0,2,,,,,1,,,69,96
92352,note_off,,,,,192,0,2,,,,,1,,,67,0
92352,note_on,,,,,0,0,1,,,,,0,,,81,106
92352,note_off,,,,,192,0,1,,,,,0,,,79,0
92544,note_off,,,,,192,0,2,,,,,1,,,69,0
92544,note_off,,,,,192,0,1,,,,,0,,,81,0
92544,note_on,,,,,0,0,1,,,,,0,,,83,106
92544,note_off,,,,,384,0,3,,,,,2,,,53,0
92544,note_on,,,,,0,0,2,,,,,1,,,71,96
92544,note_on,,,,,0,0,3,,,,,2,,,55,90
92736,note_off,,,,,192,0,1,,,,,0,,,83,0
92736,note_on,,,,,0,0,1,,,,,0,,,84,106
92736,note_on,,,,,0,0,2,,,,,1,,,72,96
92736,note_off,,,,,192,0,2,,,,,1,,,71,0
92928,note_on,,,,,0,0,2,,,,,1,,,74,96
92928,note_off,,,,,192,0,2,,,,,1,,,72,0
92928,note_on,,,,,0,0,3,,,,,2,,,59,90
92928,note_off,,,,,384,0,3,,,,,2,,,55,0
92928,note_off,,,,,192,0,1,,,,,0,,,84,0
92928,note_on,,,,,0,0,1,,,,,0,,,86,106
93312,note_on,,,,,0,0,2,,,,,1,,,67,96
93312,note_off,,,,,384,0,1,,,,,0,,,86,0
93312,note_on,,,,,0,0,1,,,,,0,,,79,106
93312,note_off,,,,,384,0,3,,,,,2,,,59,0
93312,note_on,,,,,0,0,3,,,,,2,,,51,90
93312,note_off,,,,,384,0,2,,,,,1,,,74,0
93696,note_off,,,,,384,0,3,,,,,2,,,51,0
93696,note_on,,,,,0,0,3,,,,,2,,,55,90
93696,note_on,,,,,0,0,2,,,,,1,,,67,96
93696,note_off,,,,,384,0,2,,,,,1,,,67,0
93696,note_on,,,,,0,0,1,,,,,0,,,79,106
93696,note_off,,,,,384,0,1,,,,,0,,,79,0
93888,note_on,,,,,0,0,1,,,,,0,,,77,106
93888,note_off,,,,,192,0,1,,,,,0,,,79,0
93888,note_on,,,,,0,0,2,,,,,1,,,65,96
93888,note_off,,,,,192,0,2,,,,,1,,,67,0
94080,note_off,,,,,192,0,2,,,,,1,,,65,0
94080,note_on,,,,,0,0,2,,,,,1,,,63,96
94080,note_on,,,,,0,0,3,,,,,2,,,60,90
94080,note_on,,,,,0,0,1,,,,,0,,,75,106
94080,note_off,,,,,384,0,3,,,,,2,,,55,0
94080,note_off,,,,,192,0,1,,,,,0,,,77,0
94272,note_off,,,,,192,0,2,,,,,1,,,63,0
94272,note_on,,,,,0,0,2,,,,,1,,,62,96
94272,note_on,,,,,0,0,1,,,,,0,,,74,106
94272,note_off,,,,,192,0,1,,,,,0,,,75,0
94464,note_on,,,,,0,0,2,,,,,1,,,60,96
94464,note_on,,,,,0,0,1,,,,,0,,,72,106
94464,note_off,,,,,192,0,1,,,,,0,,,74,0
94464,note_off,,,,,192,0,2,,,,,1,,,62,0
94464,note_on,,,,,0,0,3,,,,,2,,,51,90
94464,note_off,,,,,384,0,3,,,,,2,,,60,0
94848,note_on,,,,,0,0,3,,,,,2,,,55,90
94848,note_off,,,,,384,0,3,,,,,2,,,51,0
95232,note_off,,,,,768,0,2,,,,,1,,,60,0
95232,note_off,,,,,384,0,3,,,,,2,,,55,0
95232,note_off,,,,,768,0,1,,,,,0,,,72,0
95232,note_on,,,,,0,0,1,,,,,0,,,67,106
95232,note_on,,,,,0,0,2,,,,,1,,,55,96
95232,note_on,,,,,0,0,3,,,,,2,,,60,90
95616,note_off,,,,,384,0,3,,,,,2,,,60,0
95616,note_on,,,,,0,0,3,,,,,2,,,53,90
95616,note_off,,,,,384,0,2,,,,,1,,,55,0
95616,note_on,,,,,0,0,2,,,,,1,,,56,96
95616,note_off,,,,,384,0,1,,,,,0,,,67,0
95616,note_on,,,,,0,0,1,,,,,0,,,68,106
95808,note_off,,,,,192,0,1,,,,,0,,,68,0
95808,note_on,,,,,0,0,1,,,,,0,,,67,106
95808,note_on,,,,,0,0,2,,,,,1,,,55,96
95808,note_off,,,,,192,0,2,,,,,1,,,56,0
96000,note_off,,,,,384,0,3,,,,,2,,,53,0
96000,note_on,,,,,0,0,2,,,,,1,,,65,96
96000,note_off,,,,,192,0,2,,,,,1,,,55,0
96000,note_on,,,,,0,0,3,,,,,2,,,55,90
96000,note_on,,,,,0,0,1,,,,,0,,,65,106
96000,note_off,,,,,192,0,1,,,,,0,,,67,0
96192,note_off,,,,,192,0,1,,,,,0,,,65,0
96192,note_off,,,,,192,0,2,,,,,1,,,65,0
96192,note_on,,,,,0,0,2,,,,,1,,,63,96
96192,note_on,,,,,0,0,1,,,,,0,,,63,106
96384,note_on,,,,,0,0,2,,,,,1,,,62,96
96384,note_off,,,,,192,0,1,,,,,0,,,63,0
96384,note_on,,,,,0,0,1,,,,,0,,,62,106
96384,note_on,,,,,0,0,3,,,,,2,,,59,90
96384,note_off,,,,,384,0,3,,,,,2,,,55,0
96384,note_off,,,,,192,0,2,,,,,1,,,63,0
96576,note_on,,,,,0,0,2,,,,,1,,,63,96
96576,note_off,,,,,192,0,1,,,,,0,,,62,0
96576,note_on,,,,,0,0,1,,,,,0,,,63,106
96576,note_off,,,,,192,0,2,,,,,1,,,62,0
96768,note_off,,,,,384,0,3,,,,,2,,,59,0
96768,note_on,,,,,0,0,3,,,,,2,,,51,90
96768,note_off,,,,,192,0,1,,,,,0,,,63,0
96768,note_on,,,,,0,0,1,,,,,0,,,60,106
96768,note_on,,,,,0,0,2,,,,,1,,,60,96
96768,note_off,,,,,192,0,2,,,,,1,,,63,0
97152,note_off,,,,,384,0,3,,,,,2,,,51,0
97152,note_on,,,,,0,0,3,,,,,2,,,55,90
97536,note_off,,,,,384,0,3,,,,,2,,,55,0
97536,note_on,,,,,0,0,3,,,,,2,,,60,90
97536,note_off,,,,,768,0,1,,,,,0,,,60,0
97536,note_off,,,,,0,0,4,,,,,3,,,43,51
97536,note_off,,,,,8832,0,4,,,,,3,,,36,51
97536,note_off,,,,,768,0,2,,,,,1,,,60,0
97920,note_off,,,,,384,0,3,,,,,2,,,60,0
97920,note_on,,,,,0,0,3,,,,,2,,,51,90
97920,note_on,,,,,384,0,2,,,,,1,,,67,96
97920,note_on,,,,,384,0,1,,,,,0,,,79,106
97920,note_on,,,,,384,0,4,,,,,3,,,43,81
97920,note_on,,,,,0,0,4,,,,,3,,,36,81
98304,note_off,,,,,384,0,2,,,,,1,,,67,0
98304,note_off,,,,,384,0,3,,,,,2,,,51,0
98304,note_on,,,,,0,0,3,,,,,2,,,55,90
98304,note_on,,,,,0,0,2,,,,,1,,,67,96
98304,note_on,,,,,0,0,1,,,,,0,,,79,106
98304,note_off,,,,,384,0,1,,,,,0,,,79,0
98496,note_off,,,,,192,0,1,,,,,0,,,79,0
98496,note_on,,,,,0,0,1,,,,,0,,,77,106
98496,note_off,,,,,192,0,2,,,,,1,,,67,0
98496,note_on,,,,,0,0,2,,,,,1,,,65,96
98688,note_off,,,,,384,0,3,,,,,2,,,55,0
98688,note_on,,,,,0,0,3,,,,,2,,,60,90
98688,note_on,,,,,0,0,2,,,,,1,,,63,96
98688,note_off,,,,,192,0,2,,,,,1,,,65,0
98688,note_on,,,,,0,0,1,,,,,0,,,75,106
98688,note_off,,,,,192,0,1,,,,,0,,,77,0
98880,note_off,,,,,192,0,2,,,,,1,,,63,0
98880,note_on,,,,,0,0,2,,,,,1,,,62,96
98880,note_off,,,,,192,0,1,,,,,0,,,75,0
98880,note_on,,,,,0,0,1,,,,,0,,,74,106
99072,note_on,,,,,0,0,1,,,,,0,,,72,106
99072,note_on,,,,,0,0,3,,,,,2,,,51,90
99072,note_off,,,,,384,0,3,,,,,2,,,60,0
99072,note_off,,,,,192,0,2,,,,,1,,,62,0
99072,note_off,,,,,192,0,1,,,,,0,,,74,0
99072,note_on,,,,,0,0,2,,,,,1,,,60,96
99456,note_on,,,,,0,0,3,,,,,2,,,55,90
99456,note_off,,,,,384,0,3,,,,,2,,,51,0
99840,note_off,,,,,768,0,1,,,,,0,,,72,0
99840,note_off,,,,,384,0,3,,,,,2,,,55,0
99840,note_on,,,,,0,0,1,,,,,0,,,67,106
99840,note_on,,,,,0,0,3,,,,,2,,,60,90
99840,note_off,,,,,768,0,2,,,,,1,,,60,0
99840,note_on,,,,,0,0,2,,,,,1,,,55,96
100224,note_on,,,,,0,0,1,,,,,0,,,72,106
100224,note_off,,,,,384,0,1,,,,,0,,,67,0
100224,note_on,,,,,0,0,2,,,,,1,,,60,96
100224,note_on,,,,,0,0,3,,,,,2,,,51,90
100224,note_off,,,,,384,0,3,,,,,2,,,60,0
100224,note_off,,,,,384,0,2,,,,,1,,,55,0
100416,note_on,,,,,0,0,2,,,,,1,,,59,96
100416,note_off,,,,,192,0,1,,,,,0,,,72,0
100416,note_on,,,,,0,0,1,,,,,0,,,71,106
100416,note_off,,,,,192,0,2,,,,,1,,,60,0
100608,note_on,,,,,0,0,1,,,,,0,,,72,106
100608,note_on,,,,,0,0,3,,,,,2,,,55,90
100608,note_off,,,,,384,0,3,,,,,2,,,51,0
100608,note_off,,,,,192,0,1,,,,,0,,,71,0
100608,note_off,,,,,192,0,2,,,,,1,,,59,0
100608,note_on,,,,,0,0,2,,,,,1,,,60,96
100800,note_off,,,,,192,0,2,,,,,1,,,60,0
100800,note_on,,,,,0,0,2,,,,,1,,,62,96
100800,note_off,,,,,192,0,1,,,,,0,,,72,0
100800,note_on,,,,,0,0,1,,,,,0,,,74,106
100992,note_off,,,,,192,0,2,,,,,1,,,62,0
100992,note_off,,,,,384,0,3,,,,,2,,,55,0
100992,note_on,,,,,0,0,3,,,,,2,,,60,90
100992,note_off,,,,,192,0,1,,,,,0,,,74,0
100992,note_on,,,,,0,0,1,,,,,0,,,75,106
100992,note_on,,,,,0,0,2,,,,,1,,,63,96
101184,note_on,,,,,0,0,1,,,,,0,,,77,106
101184,note_on,,,,,0,0,2,,,,,1,,,65,96
101184,note_off,,,,,192,0,2,,,,,1,,,63,0
101184,note_off,,,,,192,0,1,,,,,0,,,75,0
101376,note_on,,,,,0,0,3,,,,,2,,,53,90
101376,note_off,,,,,384,0,3,,,,,2,,,60,0
101376,note_off,,,,,192,0,1,,,,,0,,,77,0
101376,note_on,,,,,0,0,1,,,,,0,,,79,106
101376,note_off,,,,,192,0,2,,,,,1,,,65,0
101376,note_on,,,,,0,0,2,,,,,1,,,67,96
101568,note_off,,,,,192,0,1,,,,,0,,,79,0
101568,note_on,,,,,0,0,1,,,,,0,,,81,106
101568,note_on,,,,,0,0,2,,,,,1,,,69,96
101568,note_off,,,,,192,0,2,,,,,1,,,67,0
101760,note_off,,,,,384,0,3,,,,,2,,,53,0
101760,note_on,,,,,0,0,3,,,,,2,,,55,90
101760,note_off,,,,,192,0,1,,,,,0,,,81,0
101760,note_on,,,,,0,0,2,,,,,1,,,71,96
101760,note_off,,,,,192,0,2,,,,,1,,,69,0
101760,note_on,,,,,0,0,1,,,,,0,,,83,106
101952,note_on,,,,,0,0,2,,,,,1,,,72,96
101952,note_on,,,,,0,0,1,,,,,0,,,84,106
101952,note_off,,,,,192,0,2,,,,,1,,,71,0
101952,note_off,,,,,192,0,1,,,,,0,,,83,0
102144,note_on,,,,,0,0,3,,,,,2,,,59,90
102144,note_off,,,,,384,0,3,,,,,2,,,55,0
102144,note_on,,,,,0,0,1,,,,,0,,,86,106
102144,note_on,,,,,0,0,2,,,,,1,,,74,96
102144,note_off,,,,,192,0,2,,,,,1,,,72,0
102144,note_off,,,,,192,0,1,,,,,0,,,84,0
102528,note_off,,,,,384,0,3,,,,,2,,,59,0
102528,note_on,,,,,0,0,1,,,,,0,,,79,106
102528,note_off,,,,,384,0,1,,,,,0,,,86,0
102528,note_on,,,,,0,0,3,,,,,2,,,51,90
102528,note_on,,,,,0,0,2,,,,,1,,,67,96
102528,note_off,,,,,384,0,2,,,,,1,,,74,0
102912,note_on,,,,,0,0,3,,,,,2,,,55,90
102912,note_off,,,,,384,0,1,,,,,0,,,79,0
102912,note_on,,,,,0,0,1,,,,,0,,,79,106
102912,note_on,,,,,0,0,2,,,,,1,,,67,96
102912,note_off,,,,,384,0,3,,,,,2,,,51,0
102912,note_off,,,,,384,0,2,,,,,1,,,67,0
103104,note_on,,,,,0,0,2,,,,,1,,,65,96
103104,note_off,,,,,192,0,2,,,,,1,,,67,0
103104,note_off,,,,,192,0,1,,,,,0,,,79,0
103104,note_on,,,,,0,0,1,,,,,0,,,77,106
103296,note_on,,,,,0,0,2,,,,,1,,,63,96
103296,note_off,,,,,192,0,1,,,,,0,,,77,0
103296,note_off,,,,,384,0,3,,,,,2,,,55,0
103296,note_on,,,,,0,0,3,,,,,2,,,60,90
103296,note_on,,,,,0,0,1,,,,,0,,,75,106
103296,note_off,,,,,192,0,2,,,,,1,,,65,0
103488,note_off,,,,,192,0,2,,,,,1,,,63,0
103488,note_on,,,,,0,0,1,,,,,0,,,74,106
103488,note_off,,,,,192,0,1,,,,,0,,,75,0
103488,note_on,,,,,0,0,2,,,,,1,,,62,96
103680,note_on,,,,,0,0,1,,,,,0,,,72,106
103680,note_off,,,,,192,0,1,,,,,0,,,74,0
103680,note_off,,,,,192,0,2,,,,,1,,,62,0
103680,note_on,,,,,0,0,2,,,,,1,,,60,96
103680,note_off,,,,,384,0,3,,,,,2,,,60,0
103680,note_on,,,,,0,0,3,,,,,2,,,51,90
104064,note_off,,,,,384,0,3,,,,,2,,,51,0
104064,note_on,,,,,0,0,3,,,,,2,,,55,90
104448,note_off,,,,,384,0,3,,,,,2,,,55,0
104448,note_on,,,,,0,0,3,,,,,2,,,60,90
104448,note_off,,,,,768,0,1,,,,,0,,,72,0
104448,note_off,,,,,768,0,2,,,,,1,,,60,0
104448,note_on,,,,,0,0,1,,,,,0,,,67,106
104448,note_on,,,,,0,0,2,,,,,1,,,55,96
104832,note_off,,,,,384,0,2,,,,,1,,,55,0
104832,note_on,,,,,0,0,2,,,,,1,,,56,96
104832,note_on,,,,,0,0,1,,,,,0,,,68,106
104832,note_off,,,,,384,0,1,,,,,0,,,67,0
104832,note_on,,,,,0,0,3,,,,,2,,,53,90
104832,note_off,,,,,384,0,3,,,,,2,,,60,0
105024,note_on,,,,,0,0,1,,,,,0,,,67,106
105024,note_off,,,,,192,0,1,,,,,0,,,68,0
105024,note_on,,,,,0,0,2,,,,,1,,,55,96
105024,note_off,,,,,192,0,2,,,,,1,,,56,0
105216,note_on,,,,,0,0,3,,,,,2,,,55,90
105216,note_off,,,,,384,0,3,,,,,2,,,53,0
105216,note_on,,,,,0,0,2,,,,,1,,,65,96
105216,note_off,,,,,192,0,2,,,,,1,,,55,0
105216,note_off,,,,,192,0,1,,,,,0,,,67,0
105216,note_on,,,,,0,0,1,,,,,0,,,65,106
105408,note_on,,,,,0,0,2,,,,,1,,,63,96
105408,note_off,,,,,192,0,1,,,,,0,,,65,0
105408,note_on,,,,,0,0,1,,,,,0,,,63,106
105408,note_off,,,,,192,0,2,,,,,1,,,65,0
105600,note_off,,,,,192,0,2,,,,,1,,,63,0
105600,note_on,,,,,0,0,3,,,,,2,,,59,90
105600,note_off,,,,,192,0,1,,,,,0,,,63,0
105600,note_on,,,,,0,0,1,,,,,0,,,62,106
105600,note_off,,,,,384,0,3,,,,,2,,,55,0
105600,note_on,,,,,0,0,2,,,,,1,,,62,96
105792,note_on,,,,,0,0,2,,,,,1,,,63,96
105792,note_on,,,,,0,0,1,,,,,0,,,63,106
105792,note_off,,,,,192,0,1,,,,,0,,,62,0
105792,note_off,,,,,192,0,2,,,,,1,,,62,0
105984,note_on,,,,,0,0,1,,,,,0,,,60,106
105984,note_off,,,,,192,0,2,,,,,1,,,63,0
105984,note_on,,,,,0,0,2,,,,,1,,,60,96
105984,note_off,,,,,384,0,3,,,,,2,,,59,0
105984,note_on,,,,,0,0,3,,,,,2,,,51,90
105984,note_off,,,,,192,0,1,,,,,0,,,63,0
106368,note_on,,,,,0,0,3,,,,,2,,,55,90
106368,note_off,,,,,384,0,3,,,,,2,,,51,0
106752,note_off,,,,,8832,0,4,,,,,3,,,36,51
106752,note_on,,,,,0,0,3,,,,,2,,,60,90
106752,note_off,,,,,768,0,2,,,,,1,,,60,0
106752,note_off,,,,,0,0,4,,,,,3,,,43,51
106752,note_off,,,,,768,0,1,,,,,0,,,60,0
106752,note_off,,,,,384,0,3,,,,,2,,,55,0
107136,note_on,,,,,384,0,2,,,,,1,,,65,96
107136,note_on,,,,,384,0,1,,,,,0,,,82,106
107136,note_on,,,,,0,0,3,,,,,2,,,58,90
107136,note_off,,,,,384,0,3,,,,,2,,,60,0
107520,note_off,,,,,384,0,1,,,,,0,,,82,0
107520,note_on,,,,,0,0,1,,,,,0,,,82,106
107712,note_off,,,,,192,0,1,,,,,0,,,82,0
107712,note_on,,,,,0,0,1,,,,,0,,,80,106
107904,note_off,,,,,192,0,1,,,,,0,,,80,0
107904,note_on,,,,,0,0,1,,,,,0,,,79,106
108096,note_off,,,,,192,0,1,,,,,0,,,79,0
108096,note_on,,,,,0,0,1,,,,,0,,,77,106
108288,note_off,,,,,1152,0,3,,,,,2,,,58,0
108288,note_on,,,,,0,0,2,,,,,1,,,67,96
108288,note_on,,,,,0,0,1,,,,,0,,,75,106
108288,note_off,,,,,192,0,1,,,,,0,,,77,0
108288,note_off,,,,,1152,0,2,,,,,1,,,65,0
108288,note_on,,,,,0,0,3,,,,,2,,,63,90
108672,note_off,,,,,384,0,3,,,,,2,,,63,0
108672,note_on,,,,,0,0,1,,,,,0,,,82,106
108672,note_off,,,,,384,0,1,,,,,0,,,75,0
108672,note_off,,,,,384,0,2,,,,,1,,,67,0
109056,note_off,,,,,384,0,1,,,,,0,,,82,0
109056,note_on,,,,,0,0,1,,,,,0,,,70,106
109440,note_off,,,,,384,0,1,,,,,0,,,70,0
109440,note_on,,,,,0,0,1,,,,,0,,,74,106
109440,note_on,,,,,768,0,3,,,,,2,,,58,90
109440,note_on,,,,,768,0,2,,,,,1,,,65,96
109824,note_off,,,,,384,0,1,,,,,0,,,74,0
109824,note_on,,,,,0,0,1,,,,,0,,,77,106
110208,note_off,,,,,384,0,1,,,,,0,,,77,0
110208,note_on,,,,,0,0,1,,,,,0,,,70,106
110592,note_off,,,,,384,0,1,,,,,0,,,70,0
110592,note_on,,,,,0,0,1,,,,,0,,,75,106
110592,note_off,,,,,1152,0,3,,,,,2,,,58,0
110592,note_on,,,,,0,0,3,,,,,2,,,55,90
110592,note_off,,,,,1152,0,2,,,,,1,,,65,0
110592,note_on,,,,,0,0,2,,,,,1,,,63,96
110784,note_on,,,,,0,0,1,,,,,0,,,74,106
110784,note_off,,,,,192,0,1,,,,,0,,,75,0
110976,note_off,,,,,192,0,1,,,,,0,,,74,0
110976,note_on,,,,,0,0,1,,,,,0,,,72,106
110976,note_off,,,,,384,0,2,,,,,1,,,63,0
110976,note_off,,,,,384,0,3,,,,,2,,,55,0
111072,note_off,,,,,96,0,1,,,,,0,,,72,0
111168,note_on,,,,,96,0,1,,,,,0,,,70,106
111264,note_off,,,,,96,0,1,,,,,0,,,70,0
111360,note_on,,,,,96,0,1,,,,,0,,,70,106
111744,note_on,,,,,768,0,3,,,,,2,,,58,90
111744,note_off,,,,,384,0,1,,,,,0,,,70,0
111744,note_on,,,,,0,0,1,,,,,0,,,82,106
111744,note_on,,,,,768,0,2,,,,,1,,,65,96
111936,note_on,,,,,0,0,1,,,,,0,,,84,106
111936,note_off,,,,,192,0,1,,,,,0,,,82,0
112128,note_off,,,,,192,0,1,,,,,0,,,84,0
112128,note_on,,,,,0,0,1,,,,,0,,,82,106
112320,note_on,,,,,0,0,1,,,,,0,,,80,106
112320,note_off,,,,,192,0,1,,,,,0,,,82,0
112512,note_off,,,,,192,0,1,,,,,0,,,80,0
112512,note_on,,,,,0,0,1,,,,,0,,,79,106
112704,note_off,,,,,192,0,1,,,,,0,,,79,0
112704,note_on,,,,,0,0,1,,,,,0,,,77,106
112896,note_off,,,,,1152,0,2,,,,,1,,,65,0
112896,note_on,,,,,0,0,3,,,,,2,,,63,90
112896,note_off,,,,,192,0,1,,,,,0,,,77,0
112896,note_on,,,,,0,0,2,,,,,1,,,67,96
112896,note_off,,,,,1152,0,3,,,,,2,,,58,0
112896,note_on,,,,,0,0,1,,,,,0,,,75,106
113280,note_off,,,,,384,0,3,,,,,2,,,63,0
113280,note_on,,,,,0,0,1,,,,,0,,,79,106
113280,note_off,,,,,384,0,2,,,,,1,,,67,0
113280,note_off,,,,,384,0,1,,,,,0,,,75,0
113664,note_off,,,,,384,0,1,,,,,0,,,79,0
113664,note_on,,,,,0,0,1,,,,,0,,,70,106
114048,note_on,,,,,768,0,2,,,,,1,,,65,96
114048,note_on,,,,,0,0,1,,,,,0,,,74,106
114048,note_off,,,,,384,0,1,,,,,0,,,70,0
114048,note_on,,,,,768,0,3,,,,,2,,,58,90
114432,note_off,,,,,384,0,1,,,,,0,,,74,0
114432,note_on,,,,,0,0,1,,,,,0,,,77,106
114816,note_off,,,,,384,0,1,,,,,0,,,77,0
114816,note_on,,,,,0,0,1,,,,,0,,,70,106
115200,note_off,,,,,1152,0,3,,,,,2,,,58,0
115200,note_off,,,,,384,0,1,,,,,0,,,70,0
115200,note_on,,,,,0,0,1,,,,,0,,,75,106
115200,note_on,,,,,0,0,2,,,,,1,,,63,96
115200,note_off,,,,,1152,0,2,,,,,1,,,65,0
115200,note_on,,,,,0,0,3,,,,,2,,,55,90
115392,note_off,,,,,192,0,1,,,,,0,,,75,0
115392,note_on,,,,,0,0,1,,,,,0,,,74,106
115584,note_off,,,,,384,0,2,,,,,1,,,63,0
115584,note_off,,,,,384,0,3,,,,,2,,,55,0
115584,note_off,,,,,192,0,1,,,,,0,,,74,0
115584,note_on,,,,,0,0,1,,,,,0,,,72,106
115776,note_off,,,,,192,0,1,,,,,0,,,72,0
115776,note_on,,,,,0,0,1,,,,,0,,,74,106
115968,note_off,,,,,192,0,1,,,,,0,,,74,0
115968,note_on,,,,,0,0,1,,,,,0,,,75,106
116160,note_off,,,,,192,0,1,,,,,0,,,75,0
116160,note_on,,,,,0,0,1,,,,,0,,,77,106
116352,note_on,,,,,768,0,2,,,,,1,,,67,96
116352,note_on,,,,,768,0,3,,,,,2,,,51,90
116352,note_on,,,,,0,0,1,,,,,0,,,79,106
116352,note_on,,,,,0,0,4,,,,,3,,,36,81
116352,note_on,,,,,9600,0,4,,,,,3,,,43,81
116352,note_off,,,,,192,0,1,,,,,0,,,77,0
116736,note_off,,,,,384,0,1,,,,,0,,,79,0
116736,note_on,,,,,0,0,1,,,,,0,,,79,106
116736,note_off,,,,,384,0,2,,,,,1,,,67,0
116736,note_on,,,,,0,0,2,,,,,1,,,67,96
116736,note_off,,,,,384,0,3,,,,,2,,,51,0
116736,note_on,,,,,0,0,3,,,,,2,,,55,90
116928,note_off,,,,,192,0,2,,,,,1,,,67,0
116928,note_on,,,,,0,0,2,,,,,1,,,65,96
116928,note_off,,,,,192,0,1,,,,,0,,,79,0
116928,note_on,,,,,0,0,1,,,,,0,,,77,106
117120,note_off,,,,,192,0,2,,,,,1,,,65,0
117120,note_on,,,,,0,0,2,,,,,1,,,63,96
117120,note_off,,,,,384,0,3,,,,,2,,,55,0
117120,note_on,,,,,0,0,3,,,,,2,,,60,90
117120,note_off,,,,,192,0,1,,,,,0,,,77,0
117120,note_on,,,,,0,0,1,,,,,0,,,75,106
117312,note_off,,,,,192,0,2,,,,,1,,,63,0
117312,note_on,,,,,0,0,1,,,,,0,,,74,106
117312,note_off,,,,,192,0,1,,,,,0,,,75,0
117312,note_on,,,,,0,0,2,,,,,1,,,62,96
117504,note_off,,,,,192,0,2,,,,,1,,,62,0
117504,note_off,,,,,384,0,3,,,,,2,,,60,0
117504,note_on,,,,,0,0,2,,,,,1,,,60,96
117504,note_on,,,,,0,0,1,,,,,0,,,72,106
117504,note_off,,,,,192,0,1,,,,,0,,,74,0
117504,note_on,,,,,0,0,3,,,,,2,,,51,90
117888,note_off,,,,,384,0,3,,,,,2,,,51,0
117888,note_on,,,,,0,0,3,,,,,2,,,55,90
118272,note_on,,,,,0,0,1,,,,,0,,,84,106
118272,note_off,,,,,384,0,3,,,,,2,,,55,0
118272,note_off,,,,,768,0,1,,,,,0,,,72,0
118272,note_off,,,,,768,0,2,,,,,1,,,60,0
118272,note_on,,,,,0,0,3,,,,,2,,,60,90
118272,note_on,,,,,0,0,2,,,,,1,,,72,96
118656,note_off,,,,,384,0,2,,,,,1,,,72,0
118656,note_on,,,,,0,0,2,,,,,1,,,68,96
118656,note_on,,,,,0,0,1,,,,,0,,,80,106
118656,note_off,,,,,384,0,1,,,,,0,,,84,0
118656,note_off,,,,,384,0,3,,,,,2,,,60,0
118656,note_on,,,,,0,0,3,,,,,2,,,53,90
118848,note_off,,,,,192,0,2,,,,,1,,,68,0
118848,note_on,,,,,0,0,2,,,,,1,,,67,96
118848,note_on,,,,,0,0,1,,,,,0,,,79,106
118848,note_off,,,,,192,0,1,,,,,0,,,80,0
119040,note_on,,,,,0,0,1,,,,,0,,,77,106
119040,note_off,,,,,192,0,1,,,,,0,,,79,0
119040,note_on,,,,,0,0,2,,,,,1,,,65,96
119040,note_on,,,,,0,0,3,,,,,2,,,55,90
119040,note_off,,,,,192,0,2,,,,,1,,,67,0
119040,note_off,,,,,384,0,3,,,,,2,,,53,0
119232,note_off,,,,,192,0,2,,,,,1,,,65,0
119232,note_on,,,,,0,0,2,,,,,1,,,63,96
119232,note_off,,,,,192,0,1,,,,,0,,,77,0
119232,note_on,,,,,0,0,1,,,,,0,,,75,106
119424,note_off,,,,,192,0,1,,,,,0,,,75,0
119424,note_on,,,,,0,0,1,,,,,0,,,74,106
119424,note_off,,,,,384,0,3,,,,,2,,,55,0
119424,note_on,,,,,0,0,2,,,,,1,,,62,96
119424,note_off,,,,,192,0,2,,,,,1,,,63,0
119424,note_on,,,,,0,0,3,,,,,2,,,59,90
119616,note_off,,,,,192,0,1,,,,,0,,,74,0
119616,note_on,,,,,0,0,2,,,,,1,,,63,96
119616,note_off,,,,,192,0,2,,,,,1,,,62,0
119616,note_on,,,,,0,0,1,,,,,0,,,75,106
119808,note_on,,,,,0,0,3,,,,,2,,,51,90
119808,note_off,,,,,192,0,1,,,,,0,,,75,0
119808,note_off,,,,,384,0,3,,,,,2,,,59,0
119808,note_on,,,,,0,0,1,,,,,0,,,72,106
119808,note_on,,,,,0,0,2,,,,,1,,,60,96
119808,note_off,,,,,192,0,2,,,,,1,,,63,0
120192,note_on,,,,,0,0,3,,,,,2,,,55,90
120192,note_off,,,,,384,0,3,,,,,2,,,51,0
120576,note_on,,,,,0,0,3,,,,,2,,,60,90
120576,note_off,,,,,384,0,3,,,,,2,,,55,0
120576,note_off,,,,,768,0,1,,,,,0,,,72,0
120576,note_off,,,,,4224,0,4,,,,,3,,,36,51
120576,note_off,,,,,768,0,2,,,,,1,,,60,0
120576,note_off,,,,,0,0,4,,,,,3,,,43,51
120960,note_on,,,,,384,0,2,,,,,1,,,65,96
120960,note_on,,,,,384,0,1,,,,,0,,,82,106
120960,note_off,,,,,384,0,3,,,,,2,,,60,0
120960,note_on,,,,,0,0,3,,,,,2,,,58,90
121344,note_on,,,,,0,0,1,,,,,0,,,82,106
121344,note_off,,,,,384,0,1,,,,,0,,,82,0
121536,note_on,,,,,0,0,1,,,,,0,,,80,106
121536,note_off,,,,,192,0,1,,,,,0,,,82,0
121728,note_on,,,,,0,0,1,,,,,0,,,79,106
121728,note_off,,,,,192,0,1,,,,,0,,,80,0
121920,note_off,,,,,192,0,1,,,,,0,,,79,0
121920,note_on,,,,,0,0,1,,,,,0,,,77,106
122112,note_off,,,,,1152,0,2,,,,,1,,,65,0
122112,note_off,,,,,192,0,1,,,,,0,,,77,0
122112,note_on,,,,,0,0,2,,,,,1,,,67,96
122112,note_on,,,,,0,0,3,,,,,2,,,63,90
122112,note_off,,,,,1152,0,3,,,,,2,,,58,0
122112,note_on,,,,,0,0,1,,,,,0,,,75,106
122496,note_on,,,,,0,0,1,,,,,0,,,82,106
122496,note_off,,,,,384,0,2,,,,,1,,,67,0
122496,note_off,,,,,384,0,1,,,,,0,,,75,0
122496,note_off,,,,,384,0,3,,,,,2,,,63,0
122880,note_off,,,,,384,0,1,,,,,0,,,82,0
122880,note_on,,,,,0,0,1,,,,,0,,,70,106
123264,note_on,,,,,768,0,2,,,,,1,,,65,96
123264,note_on,,,,,768,0,3,,,,,2,,,58,90
123264,note_on,,,,,0,0,1,,,,,0,,,74,106
123264,note_off,,,,,384,0,1,,,,,0,,,70,0
123648,note_on,,,,,0,0,1,,,,,0,,,77,106
123648,note_off,,,,,384,0,1,,,,,0,,,74,0
124032,note_off,,,,,384,0,1,,,,,0,,,77,0
124032,note_on,,,,,0,0,1,,,,,0,,,70,106
124416,note_off,,,,,1152,0,2,,,,,1,,,65,0
124416,note_on,,,,,0,0,2,,,,,1,,,63,96
124416,note_off,,,,,1152,0,3,,,,,2,,,58,0
124416,note_on,,,,,0,0,3,,,,,2,,,55,90
124416,note_off,,,,,384,0,1,,,,,0,,,70,0
124416,note_on,,,,,0,0,1,,,,,0,,,75,106
124608,note_on,,,,,0,0,1,,,,,0,,,74,106
124608,note_off,,,,,192,0,1,,,,,0,,,75,0
124800,note_off,,,,,384,0,2,,,,,1,,,63,0
124800,note_off,,,,,192,0,1,,,,,0,,,74,0
124800,note_on,,,,,0,0,1,,,,,0,,,72,106
124800,note_off,,,,,384,0,3,,,,,2,,,55,0
124896,note_off,,,,,96,0,1,,,,,0,,,72,0
124992,note_on,,,,,96,0,1,,,,,0,,,70,106
125088,note_off,,,,,96,0,1,,,,,0,,,70,0
125184,note_on,,,,,96,0,1,,,,,0,,,70,106
125568,note_on,,,,,768,0,2,,,,,1,,,65,96
125568,note_off,,,,,384,0,1,,,,,0,,,70,0
125568,note_on,,,,,0,0,1,,,,,0,,,82,106
125568,note_on,,,,,768,0,3,,,,,2,,,58,90
125760,note_off,,,,,192,0,1,,,,,0,,,82,0
125760,note_on,,,,,0,0,1,,,,,0,,,84,106
125952,note_off,,,,,192,0,1,,,,,0,,,84,0
125952,note_on,,,,,0,0,1,,,,,0,,,82,106
126144,note_on,,,,,0,0,1,,,,,0,,,80,106
126144,note_off,,,,,192,0,1,,,,,0,,,82,0
126336,note_off,,,,,192,0,1,,,,,0,,,80,0
126336,note_on,,,,,0,0,1,,,,,0,,,79,106
126528,note_on,,,,,0,0,1,,,,,0,,,77,106
126528,note_off,,,,,192,0,1,,,,,0,,,79,0
126720,note_on,,,,,0,0,2,,,,,1,,,67,96
126720,note_off,,,,,192,0,1,,,,,0,,,77,0
126720,note_on,,,,,0,0,1,,,,,0,,,75,106
126720,note_on,,,,,0,0,3,,,,,2,,,63,90
126720,note_off,,,,,1152,0,3,,,,,2,,,58,0
126720,note_off,,,,,1152,0,2,,,,,1,,,65,0
127104,note_off,,,,,384,0,3,,,,,2,,,63,0
127104,note_off,,,,,384,0,1,,,,,0,,,75,0
127104,note_on,,,,,0,0,1,,,,,0,,,79,106
127104,note_off,,,,,384,0,2,,,,,1,,,67,0
127488,note_off,,,,,384,0,1,,,,,0,,,79,0
127488,note_on,,,,,0,0,1,,,,,0,,,70,106
127872,note_on,,,,,768,0,2,,,,,1,,,65,96
127872,note_off,,,,,384,0,1,,,,,0,,,70,0
127872,note_on,,,,,0,0,1,,,,,0,,,74,106
127872,note_on,,,,,768,0,3,,,,,2,,,58,90
128256,note_off,,,,,384,0,1,,,,,0,,,74,0
128256,note_on,,,,,0,0,1,,,,,0,,,77,106
128640,note_off,,,,,384,0,1,,,,,0,,,77,0
128640,note_on,,,,,0,0,1,,,,,0,,,70,106
129024,note_off,,,,,1152,0,2,,,,,1,,,65,0
129024,note_on,,,,,0,0,2,,,,,1,,,63,96
129024,note_on,,,,,0,0,1,,,,,0,,,75,106
129024,note_off,,,,,384,0,1,,,,,0,,,70,0
129024,note_off,,,,,1152,0,3,,,,,2,,,58,0
129024,note_on,,,,,0,0,3,,,,,2,,,55,90
129216,note_off,,,,,192,0,1,,,,,0,,,75,0
129216,note_on,,,,,0,0,1,,,,,0,,,74,106
129408,note_off,,,,,384,0,2,,,,,1,,,63,0
129408,note_off,,,,,384,0,3,,,,,2,,,55,0
129408,note_off,,,,,192,0,1,,,,,0,,,74,0
129408,note_on,,,,,0,0,1,,,,,0,,,72,106
129600,note_off,,,,,192,0,1,,,,,0,,,72,0
129600,note_on,,,,,0,0,1,,,,,0,,,74,106
129792,note_off,,,,,192,0,1,,,,,0,,,74,0
129792,note_on,,,,,0,0,1,,,,,0,,,75,106
129984,note_off,,,,,192,0,1,,,,,0,,,75,0
129984,note_on,,,,,0,0,1,,,,,0,,,77,106
130176,note_off,,,,,192,0,1,,,,,0,,,77,0
130176,note_on,,,,,0,0,1,,,,,0,,,79,106
130176,note_on,,,,,768,0,2,,,,,1,,,67,96
130176,note_on,,,,,0,0,4,,,,,3,,,36,81
130176,note_on,,,,,9600,0,4,,,,,3,,,43,81
130176,note_on,,,,,768,0,3,,,,,2,,,51,90
130560,note_off,,,,,384,0,2,,,,,1,,,67,0
130560,note_on,,,,,0,0,2,,,,,1,,,67,96
130560,note_on,,,,,0,0,3,,,,,2,,,55,90
130560,note_off,,,,,384,0,3,,,,,2,,,51,0
130560,note_off,,,,,384,0,1,,,,,0,,,79,0
130560,note_on,,,,,0,0,1,,,,,0,,,79,106
130752,note_off,,,,,192,0,1,,,,,0,,,79,0
130752,note_on,,,,,0,0,1,,,,,0,,,77,106
130752,note_off,,,,,192,0,2,,,,,1,,,67,0
130752,note_on,,,,,0,0,2,,,,,1,,,65,96
130944,note_off,,,,,192,0,1,,,,,0,,,77,0
130944,note_on,,,,,0,0,1,,,,,0,,,75,106
130944,note_off,,,,,192,0,2,,,,,1,,,65,0
130944,note_on,,,,,0,0,2,,,,,1,,,63,96
130944,note_off,,,,,384,0,3,,,,,2,,,55,0
130944,note_on,,,,,0,0,3,,,,,2,,,60,90
131136,note_off,,,,,192,0,2,,,,,1,,,63,0
131136,note_on,,,,,0,0,2,,,,,1,,,62,96
131136,note_on,,,,,0,0,1,,,,,0,,,74,106
131136,note_off,,,,,192,0,1,,,,,0,,,75,0
131328,note_off,,,,,384,0,3,,,,,2,,,60,0
131328,note_on,,,,,0,0,2,,,,,1,,,60,96
131328,note_off,,,,,192,0,2,,,,,1,,,62,0
131328,note_off,,,,,192,0,1,,,,,0,,,74,0
131328,note_on,,,,,0,0,3,,,,,2,,,51,90
131328,note_on,,,,,0,0,1,,,,,0,,,72,106
131712,note_off,,,,,384,0,3,,,,,2,,,51,0
131712,note_on,,,,,0,0,3,,,,,2,,,55,90
132096,note_on,,,,,0,0,1,,,,,0,,,84,106
132096,note_off,,,,,768,0,2,,,,,1,,,60,0
132096,note_on,,,,,0,0,2,,,,,1,,,72,96
132096,note_on,,,,,0,0,3,,,,,2,,,60,90
132096,note_off,,,,,384,0,3,,,,,2,,,55,0
132096,note_off,,,,,768,0,1,,,,,0,,,72,0
132480,note_on,,,,,0,0,1,,,,,0,,,80,106
132480,note_on,,,,,0,0,2,,,,,1,,,68,96
132480,note_off,,,,,384,0,2,,,,,1,,,72,0
132480,note_on,,,,,0,0,3,,,,,2,,,53,90
132480,note_off,,,,,384,0,3,,,,,2,,,60,0
132480,note_off,,,,,384,0,1,,,,,0,,,84,0
132672,note_on,,,,,0,0,2,,,,,1,,,67,96
132672,note_off,,,,,192,0,2,,,,,1,,,68,0
132672,note_off,,,,,192,0,1,,,,,0,,,80,0
132672,note_on,,,,,0,0,1,,,,,0,,,79,106
132864,note_on,,,,,0,0,3,,,,,2,,,55,90
132864,note_on,,,,,0,0,1,,,,,0,,,77,106
132864,note_off,,,,,192,0,1,,,,,0,,,79,0
132864,note_on,,,,,0,0,2,,,,,1,,,65,96
132864,note_off,,,,,384,0,3,,,,,2,,,53,0
132864,note_off,,,,,192,0,2,,,,,1,,,67,0
133056,note_off,,,,,192,0,2,,,,,1,,,65,0
133056,note_on,,,,,0,0,2,,,,,1,,,63,96
133056,note_off,,,,,192,0,1,,,,,0,,,77,0
133056,note_on,,,,,0,0,1,,,,,0,,,75,106
133248,note_on,,,,,0,0,2,,,,,1,,,62,96
133248,note_off,,,,,384,0,3,,,,,2,,,55,0
133248,note_on,,,,,0,0,3,,,,,2,,,59,90
133248,note_off,,,,,192,0,2,,,,,1,,,63,0
133248,note_on,,,,,0,0,1,,,,,0,,,74,106
133248,note_off,,,,,192,0,1,,,,,0,,,75,0
133440,note_on,,,,,0,0,1,,,,,0,,,75,106
133440,note_off,,,,,192,0,1,,,,,0,,,74,0
133440,note_on,,,,,0,0,2,,,,,1,,,63,96
133440,note_off,,,,,192,0,2,,,,,1,,,62,0
133632,note_off,,,,,192,0,2,,,,,1,,,63,0
133632,note_off,,,,,384,0,3,,,,,2,,,59,0
133632,note_on,,,,,0,0,4,,,,,3,,,36,81
133632,note_on,,,,,0,0,3,,,,,2,,,60,90
133632,note_on,,,,,0,0,1,,,,,0,,,72,106
133632,note_off,,,,,192,0,1,,,,,0,,,75,0
133632,note_on,,,,,0,0,2,,,,,1,,,60,96
133632,note_on,,,,,3456,0,4,,,,,3,,,43,81
134304,note_on,,,,,672,0,3,,,,,2,,,74,90
134304,note_on,,,,,672,0,1,,,,,0,,,74,106
134304,note_on,,,,,672,0,2,,,,,1,,,74,96
134400,note_off,,,,,96,0,2,,,,,1,,,60,0
134400,note_off,,,,,0,0,2,,,,,1,,,74,0
134400,note_off,,,,,96,0,1,,,,,0,,,72,0
134400,note_on,,,,,0,0,2,,,,,1,,,75,96
134400,note_on,,,,,0,0,1,,,,,0,,,75,106
134400,note_off,,,,,0,0,1,,,,,0,,,74,0
134400,note_off,,,,,0,0,4,,,,,3,,,36,0
134400,note_off,,,,,0,0,4,,,,,3,,,43,0
134400,note_off,,,,,0,0,4,,,,,3,,,43,51
134400,note_off,,,,,768,0,4,,,,,3,,,36,51
134400,note_on,,,,,0,0,3,,,,,2,,,75,90
134400,note_off,,,,,0,0,3,,,,,2,,,74,0
134400,note_off,,,,,96,0,3,,,,,2,,,60,0
134592,note_off,,,,,192,0,3,,,,,2,,,75,0
134592,note_off,,,,,192,0,1,,,,,0,,,75,0
134592,note_off,,,,,192,0,2,,,,,1,,,75,0
134784,note_on,,,,,192,0,2,,,,,1,,,58,96
134784,note_on,,,,,192,0,1,,,,,0,,,63,106
134784,note_on,,,,,384,0,4,,,,,3,,,55,81
134784,note_on,,,,,192,0,3,,,,,2,,,63,90
135936,note_off,,,,,1152,0,2,,,,,1,,,58,0
135936,note_off,,,,,1152,0,4,,,,,3,,,55,0
135936,note_on,,,,,0,0,4,,,,,3,,,56,81
135936,note_on,,,,,0,0,2,,,,,1,,,60,96
135936,note_on,,,,,0,0,1,,,,,0,,,65,106
135936,note_off,,,,,1152,0,1,,,,,0,,,63,0
136320,note_off,,,,,384,0,2,,,,,1,,,60,0
136320,note_off,,,,,384,0,1,,,,,0,,,65,0
136320,note_off,,,,,384,0,4,,,,,3,,,56,0
136320,note_off,,,,,1536,0,3,,,,,2,,,63,57
136608,note_on,,,,,288,0,2,,,,,1,,,74,96
136608,note_on,,,,,288,0,3,,,,,2,,,74,90
136608,note_on,,,,,288,0,1,,,,,0,,,74,106
136704,note_off,,,,,96,0,1,,,,,0,,,74,0
136704,note_off,,,,,96,0,3,,,,,2,,,74,0
136704,note_on,,,,,0,0,1,,,,,0,,,75,106
136704,note_on,,,,,0,0,3,,,,,2,,,75,90
136704,note_on,,,,,0,0,2,,,,,1,,,75,96
136704,note_off,,,,,96,0,2,,,,,1,,,74,0
136896,note_off,,,,,192,0,2,,,,,1,,,75,0
136896,note_off,,,,,192,0,3,,,,,2,,,75,0
136896,note_off,,,,,192,0,1,,,,,0,,,75,0
137088,note_on,,,,,192,0,2,,,,,1,,,63,96
137088,note_on,,,,,192,0,1,,,,,0,,,65,106
137088,note_on,,,,,192,0,3,,,,,2,,,60,90
137088,note_on,,,,,768,0,4,,,,,3,,,57,81
138240,note_on,,,,,0,0,1,,,,,0,,,67,106
138240,note_on,,,,,0,0,4,,,,,3,,,58,81
138240,note_off,,,,,1152,0,1,,,,,0,,,65,0
138240,note_off,,,,,1152,0,3,,,,,2,,,60,0
138240,note_on,,,,,0,0,3,,,,,2,,,58,90
138240,note_off,,,,,1152,0,4,,,,,3,,,57,0
138624,note_off,,,,,384,0,3,,,,,2,,,58,0
138624,note_off,,,,,384,0,4,,,,,3,,,58,0
138624,note_off,,,,,1536,0,2,,,,,1,,,63,61
138624,note_off,,,,,384,0,1,,,,,0,,,67,0
138912,note_on,,,,,288,0,2,,,,,1,,,74,96
138912,note_on,,,,,288,0,3,,,,,2,,,74,90
138912,note_on,,,,,288,0,1,,,,,0,,,74,106
139008,note_on,,,,,0,0,2,,,,,1,,,75,96
139008,note_off,,,,,96,0,3,,,,,2,,,74,0
139008,note_off,,,,,96,0,1,,,,,0,,,74,0
139008,note_on,,,,,0,0,1,,,,,0,,,75,106
139008,note_off,,,,,96,0,2,,,,,1,,,74,0
139008,note_on,,,,,0,0,3,,,,,2,,,75,90
139200,note_off,,,,,192,0,2,,,,,1,,,75,0
139200,note_off,,,,,192,0,1,,,,,0,,,75,0
139200,note_off,,,,,192,0,3,,,,,2,,,75,0
139392,note_on,,,,,192,0,1,,,,,0,,,63,106
139392,note_on,,,,,192,0,2,,,,,1,,,63,96
139392,note_on,,,,,768,0,4,,,,,3,,,51,81
139392,note_on,,,,,192,0,3,,,,,2,,,63,90
139584,note_off,,,,,192,0,2,,,,,1,,,63,0
139584,note_off,,,,,192,0,1,,,,,0,,,63,0
139584,note_off,,,,,192,0,4,,,,,3,,,51,0
139584,note_off,,,,,192,0,3,,,,,2,,,63,0
139776,note_on,,,,,192,0,4,,,,,3,,,50,81
139776,note_on,,,,,192,0,1,,,,,0,,,65,106
139776,note_on,,,,,192,0,2,,,,,1,,,63,96
139776,note_on,,,,,192,0,3,,,,,2,,,63,90
139968,note_off,,,,,192,0,4,,,,,3,,,50,0
139968,note_off,,,,,192,0,3,,,,,2,,,63,0
139968,note_off,,,,,192,0,2,,,,,1,,,63,0
139968,note_off,,,,,192,0,1,,,,,0,,,65,0
140160,note_on,,,,,192,0,1,,,,,0,,,67,106
140160,note_on,,,,,192,0,4,,,,,3,,,49,81
140160,note_on,,,,,192,0,3,,,,,2,,,63,90
140160,note_on,,,,,192,0,2,,,,,1,,,63,96
140352,note_off,,,,,192,0,4,,,,,3,,,49,0
140352,note_off,,,,,192,0,3,,,,,2,,,63,0
140352,note_off,,,,,192,0,2,,,,,1,,,63,0
140352,note_off,,,,,192,0,1,,,,,0,,,67,0
140544,note_on,,,,,192,0,4,,,,,3,,,48,81
140544,note_on,,,,,192,0,1,,,,,0,,,68,106
140544,note_on,,,,,192,0,2,,,,,1,,,63,96
140544,note_on,,,,,192,0,3,,,,,2,,,63,90
140736,note_off,,,,,192,0,2,,,,,1,,,63,0
140736,note_off,,,,,192,0,1,,,,,0,,,68,0
140736,note_off,,,,,192,0,4,,,,,3,,,48,0
140736,note_off,,,,,192,0,3,,,,,2,,,63,0
140928,note_on,,,,,192,0,4,,,,,3,,,46,81
140928,note_on,,,,,192,0,1,,,,,0,,,70,106
140928,note_on,,,,,192,0,2,,,,,1,,,67,96
140928,note_on,,,,,192,0,3,,,,,2,,,63,90
141120,note_off,,,,,192,0,3,,,,,2,,,63,0
141120,note_off,,,,,192,0,1,,,,,0,,,70,0
141120,note_off,,,,,192,0,4,,,,,3,,,46,0
141120,note_off,,,,,192,0,2,,,,,1,,,67,0
141312,note_on,,,,,192,0,4,,,,,3,,,44,81
141312,note_on,,,,,192,0,1,,,,,0,,,72,106
141312,note_on,,,,,192,0,2,,,,,1,,,68,96
141312,note_on,,,,,192,0,3,,,,,2,,,63,90
141504,note_off,,,,,192,0,3,,,,,2,,,63,0
141504,note_off,,,,,192,0,4,,,,,3,,,44,0
141504,note_off,,,,,192,0,1,,,,,0,,,72,0
141504,note_off,,,,,192,0,2,,,,,1,,,68,0
141696,note_on,,,,,192,0,4,,,,,3,,,46,81
141696,note_on,,,,,0,0,3,,,,,2,,,58,90
141696,note_on,,,,,192,0,3,,,,,2,,,65,90
141696,note_on,,,,,192,0,2,,,,,1,,,58,96
141696,note_on,,,,,0,0,2,,,,,1,,,68,96
141696,note_on,,,,,192,0,1,,,,,0,,,70,106
141888,note_off,,,,,0,0,3,,,,,2,,,58,0
141888,note_off,,,,,192,0,4,,,,,3,,,46,0
141888,note_off,,,,,0,0,2,,,,,1,,,68,0
141888,note_off,,,,,192,0,3,,,,,2,,,65,0
141888,note_off,,,,,192,0,1,,,,,0,,,70,0
141888,note_off,,,,,192,0,2,,,,,1,,,58,0
142080,note_on,,,,,192,0,4,,,,,3,,,58,81
142080,note_on,,,,,192,0,2,,,,,1,,,58,96
142080,note_on,,,,,0,0,2,,,,,1,,,68,96
142080,note_on,,,,,192,0,1,,,,,0,,,72,106
142080,note_on,,,,,192,0,3,,,,,2,,,58,90
142080,note_on,,,,,0,0,3,,,,,2,,,65,90
142272,note_off,,,,,0,0,3,,,,,2,,,65,0
142272,note_off,,,,,192,0,4,,,,,3,,,58,0
142272,note_off,,,,,0,0,2,,,,,1,,,68,0
142272,note_off,,,,,192,0,2,,,,,1,,,58,0
142272,note_off,,,,,192,0,1,,,,,0,,,72,0
142272,note_off,,,,,192,0,3,,,,,2,,,58,0
142464,note_on,,,,,0,0,3,,,,,2,,,65,90
142464,note_on,,,,,192,0,4,,,,,3,,,58,81
142464,note_on,,,,,192,0,3,,,,,2,,,58,90
142464,note_on,,,,,192,0,1,,,,,0,,,74,106
142464,note_on,,,,,192,0,2,,,,,1,,,58,96
142464,note_on,,,,,0,0,2,,,,,1,,,68,96
142656,note_off,,,,,192,0,1,,,,,0,,,74,0
142656,note_off,,,,,192,0,4,,,,,3,,,58,0
142656,note_off,,,,,0,0,2,,,,,1,,,68,0
142656,note_off,,,,,192,0,3,,,,,2,,,58,0
142656,note_off,,,,,0,0,3,,,,,2,,,65,0
142656,note_off,,,,,192,0,2,,,,,1,,,58,0
142848,note_on,,,,,192,0,1,,,,,0,,,75,106
142848,note_on,,,,,0,0,2,,,,,1,,,67,96
142848,note_on,,,,,192,0,2,,,,,1,,,58,96
142848,note_on,,,,,192,0,4,,,,,3,,,51,81
142848,note_on,,,,,192,0,3,,,,,2,,,63,90
142848,note_on,,,,,0,0,3,,,,,2,,,55,90
143040,note_off,,,,,0,0,2,,,,,1,,,67,0
143040,note_off,,,,,192,0,2,,,,,1,,,58,0
143232,note_off,,,,,384,0,1,,,,,0,,,75,0
143232,note_off,,,,,384,0,3,,,,,2,,,63,0
143232,note_off,,,,,0,0,3,,,,,2,,,55,0
143232,note_off,,,,,384,0,4,,,,,3,,,51,0
143520,note_on,,,,,288,0,3,,,,,2,,,74,90
143520,note_on,,,,,288,0,1,,,,,0,,,74,106
143520,note_on,,,,,480,0,2,,,,,1,,,74,96
143616,note_off,,,,,96,0,3,,,,,2,,,74,0
143616,note_on,,,,,0,0,3,,,,,2,,,75,90
143616,note_on,,,,,0,0,1,,,,,0,,,75,106
143616,note_off,,,,,96,0,1,,,,,0,,,74,0
143616,note_on,,,,,0,0,2,,,,,1,,,75,96
143616,note_off,,,,,96,0,2,,,,,1,,,74,0
143808,note_off,,,,,192,0,1,,,,,0,,,75,0
143808,note_off,,,,,192,0,2,,,,,1,,,75,0
143808,note_off,,,,,192,0,3,,,,,2,,,75,0
144000,note_on,,,,,192,0,2,,,,,1,,,58,96
144000,note_on,,,,,192,0,3,,,,,2,,,63,90
144000,note_on,,,,,192,0,1,,,,,0,,,63,106
144000,note_on,,,,,768,0,4,,,,,3,,,55,81
145152,note_on,,,,,0,0,4,,,,,3,,,56,81
145152,note_off,,,,,1152,0,2,,,,,1,,,58,0
145152,note_on,,,,,0,0,2,,,,,1,,,60,96
145152,note_off,,,,,1152,0,1,,,,,0,,,63,0
145152,note_on,,,,,0,0,1,,,,,0,,,65,106
145152,note_off,,,,,1152,0,4,,,,,3,,,55,0
145536,note_off,,,,,1536,0,3,,,,,2,,,63,57
145536,note_off,,,,,384,0,1,,,,,0,,,65,0
145536,note_off,,,,,384,0,2,,,,,1,,,60,0
145536,note_off,,,,,384,0,4,,,,,3,,,56,0
145824,note_on,,,,,288,0,2,,,,,1,,,74,96
145824,note_on,,,,,288,0,1,,,,,0,,,74,106
145824,note_on,,,,,288,0,3,,,,,2,,,74,90
145920,note_off,,,,,96,0,2,,,,,1,,,74,0
145920,note_on,,,,,0,0,1,,,,,0,,,75,106
145920,note_off,,,,,96,0,1,,,,,0,,,74,0
145920,note_off,,,,,96,0,3,,,,,2,,,74,0
145920,note_on,,,,,0,0,2,,,,,1,,,75,96
145920,note_on,,,,,0,0,3,,,,,2,,,75,90
146112,note_off,,,,,192,0,3,,,,,2,,,75,0
146112,note_off,,,,,192,0,2,,,,,1,,,75,0
146112,note_off,,,,,192,0,1,,,,,0,,,75,0
146304,note_on,,,,,192,0,1,,,,,0,,,65,106
146304,note_on,,,,,192,0,2,,,,,1,,,63,96
146304,note_on,,,,,192,0,3,,,,,2,,,60,90
146304,note_on,,,,,768,0,4,,,,,3,,,57,81
147456,note_off,,,,,1152,0,1,,,,,0,,,65,0
147456,note_on,,,,,0,0,3,,,,,2,,,58,90
147456,note_off,,,,,1152,0,3,,,,,2,,,60,0
147456,note_on,,,,,0,0,4,,,,,3,,,58,81
147456,note_off,,,,,1152,0,4,,,,,3,,,57,0
147456,note_on,,,,,0,0,1,,,,,0,,,67,106
147840,note_off,,,,,1536,0,2,,,,,1,,,63,61
147840,note_off,,,,,384,0,3,,,,,2,,,58,0
147840,note_off,,,,,384,0,4,,,,,3,,,58,0
147840,note_off,,,,,384,0,1,,,,,0,,,67,0
148128,note_on,,,,,288,0,2,,,,,1,,,74,96
148128,note_on,,,,,288,0,3,,,,,2,,,74,90
148128,note_on,,,,,288,0,1,,,,,0,,,74,106
148224,note_off,,,,,96,0,1,,,,,0,,,74,0
148224,note_on,,,,,0,0,1,,,,,0,,,75,106
148224,note_off,,,,,96,0,2,,,,,1,,,74,0
148224,note_on,,,,,0,0,2,,,,,1,,,75,96
148224,note_off,,,,,96,0,3,,,,,2,,,74,0
148224,note_on,,,,,0,0,3,,,,,2,,,75,90
148416,note_off,,,,,192,0,1,,,,,0,,,75,0
148416,note_off,,,,,192,0,2,,,,,1,,,75,0
148416,note_off,,,,,192,0,3,,,,,2,,,75,0
148608,note_on,,,,,192,0,2,,,,,1,,,63,96
148608,note_on,,,,,192,0,3,,,,,2,,,63,90
148608,note_on,,,,,192,0,1,,,,,0,,,63,106
148608,note_on,,,,,768,0,4,,,,,3,,,51,81
148800,note_off,,,,,192,0,2,,,,,1,,,63,0
148800,note_off,,,,,192,0,1,,,,,0,,,63,0
148800,note_off,,,,,192,0,4,,,,,3,,,51,0
148800,note_off,,,,,192,0,3,,,,,2,,,63,0
148992,note_on,,,,,192,0,3,,,,,2,,,63,90
148992,note_on,,,,,192,0,1,,,,,0,,,65,106
148992,note_on,,,,,192,0,2,,,,,1,,,63,96
148992,note_on,,,,,192,0,4,,,,,3,,,50,81
149184,note_off,,,,,192,0,2,,,,,1,,,63,0
149184,note_off,,,,,192,0,1,,,,,0,,,65,0
149184,note_off,,,,,192,0,3,,,,,2,,,63,0
149184,note_off,,,,,192,0,4,,,,,3,,,50,0
149376,note_on,,,,,192,0,4,,,,,3,,,49,81
149376,note_on,,,,,192,0,1,,,,,0,,,67,106
149376,note_on,,,,,192,0,3,,,,,2,,,63,90
149376,note_on,,,,,192,0,2,,,,,1,,,63,96
149568,note_off,,,,,192,0,2,,,,,1,,,63,0
149568,note_off,,,,,192,0,3,,,,,2,,,63,0
149568,note_off,,,,,192,0,1,,,,,0,,,67,0
149568,note_off,,,,,192,0,4,,,,,3,,,49,0
149760,note_on,,,,,192,0,3,,,,,2,,,63,90
149760,note_on,,,,,192,0,2,,,,,1,,,63,96
149760,note_on,,,,,192,0,1,,,,,0,,,68,106
149760,note_on,,,,,192,0,4,,,,,3,,,48,81
149952,note_off,,,,,192,0,4,,,,,3,,,48,0
149952,note_off,,,,,192,0,1,,,,,0,,,68,0
149952,note_off,,,,,192,0,2,,,,,1,,,63,0
149952,note_off,,,,,192,0,3,,,,,2,,,63,0
150144,note_on,,,,,192,0,4,,,,,3,,,46,81
150144,note_on,,,,,192,0,3,,,,,2,,,63,90
150144,note_on,,,,,192,0,2,,,,,1,,,67,96
150144,note_on,,,,,192,0,1,,,,,0,,,70,106
150336,note_off,,,,,192,0,4,,,,,3,,,46,0
150336,note_off,,,,,192,0,3,,,,,2,,,63,0
150336,note_off,,,,,192,0,1,,,,,0,,,70,0
150336,note_off,,,,,192,0,2,,,,,1,,,67,0
150528,note_on,,,,,192,0,3,,,,,2,,,63,90
150528,note_on,,,,,192,0,1,,,,,0,,,72,106
150528,note_on,,,,,192,0,4,,,,,3,,,44,81
150528,note_on,,,,,192,0,2,,,,,1,,,68,96
150720,note_off,,,,,192,0,4,,,,,3,,,44,0
150720,note_off,,,,,192,0,1,,,,,0,,,72,0
150720,note_off,,,,,192,0,3,,,,,2,,,63,0
150720,note_off,,,,,192,0,2,,,,,1,,,68,0
150912,note_on,,,,,0,0,3,,,,,2,,,58,90
150912,note_on,,,,,192,0,1,,,,,0,,,70,106
150912,note_on,,,,,192,0,2,,,,,1,,,58,96
150912,note_on,,,,,0,0,2,,,,,1,,,68,96
150912,note_on,,,,,192,0,4,,,,,3,,,46,81
150912,note_on,,,,,192,0,3,,,,,2,,,65,90
151104,note_off,,,,,192,0,3,,,,,2,,,65,0
151104,note_off,,,,,0,0,3,,,,,2,,,58,0
151104,note_off,,,,,192,0,1,,,,,0,,,70,0
151104,note_off,,,,,0,0,2,,,,,1,,,68,0
151104,note_off,,,,,192,0,2,,,,,1,,,58,0
151104,note_off,,,,,192,0,4,,,,,3,,,46,0
151296,note_on,,,,,192,0,1,,,,,0,,,72,106
151296,note_on,,,,,192,0,2,,,,,1,,,58,96
151296,note_on,,,,,0,0,2,,,,,1,,,68,96
151296,note_on,,,,,192,0,3,,,,,2,,,58,90
151296,note_on,,,,,0,0,3,,,,,2,,,65,90
151296,note_on,,,,,192,0,4,,,,,3,,,58,81
151488,note_off,,,,,192,0,1,,,,,0,,,72,0
151488,note_off,,,,,192,0,3,,,,,2,,,58,0
151488,note_off,,,,,192,0,4,,,,,3,,,58,0
151488,note_off,,,,,0,0,3,,,,,2,,,65,0
151488,note_off,,,,,192,0,2,,,,,1,,,58,0
151488,note_off,,,,,0,0,2,,,,,1,,,68,0
151680,note_on,,,,,192,0,3,,,,,2,,,58,90
151680,note_on,,,,,192,0,1,,,,,0,,,74,106
151680,note_on,,,,,192,0,2,,,,,1,,,58,96
151680,note_on,,,,,0,0,2,,,,,1,,,68,96
151680,note_on,,,,,192,0,4,,,,,3,,,58,81
151680,note_on,,,,,0,0,3,,,,,2,,,65,90
151872,note_off,,,,,192,0,2,,,,,1,,,58,0
151872,note_off,,,,,0,0,2,,,,,1,,,68,0
151872,note_off,,,,,192,0,1,,,,,0,,,74,0
151872,note_off,,,,,192,0,4,,,,,3,,,58,0
151872,note_off,,,,,192,0,3,,,,,2,,,58,0
151872,note_off,,,,,0,0,3,,,,,2,,,65,0
152064,note_on,,,,,0,0,3,,,,,2,,,55,90
152064,note_on,,,,,192,0,2,,,,,1,,,58,96
152064,note_on,,,,,0,0,2,,,,,1,,,67,96
152064,note_on,,,,,192,0,3,,,,,2,,,63,90
152064,note_on,,,,,192,0,1,,,,,0,,,75,106
152064,note_on,,,,,192,0,4,,,,,3,,,51,81
152256,note_off,,,,,0,0,2,,,,,1,,,67,0
152256,note_off,,,,,192,0,2,,,,,1,,,58,0
152448,note_off,,,,,384,0,3,,,,,2,,,63,0
152448,note_off,,,,,384,0,4,,,,,3,,,51,0
152448,note_off,,,,,384,0,1,,,,,0,,,75,0
152448,note_off,,,,,0,0,3,,,,,2,,,55,0
152736,note_on,,,,,288,0,3,,,,,2,,,66,90
152736,note_on,,,,,480,0,2,,,,,1,,,78,96
152736,note_on,,,,,288,0,1,,,,,0,,,78,106
152832,note_on,,,,,0,0,1,,,,,0,,,79,106
152832,note_on,,,,,0,0,2,,,,,1,,,79,96
152832,note_off,,,,,96,0,2,,,,,1,,,78,0
152832,note_off,,,,,96,0,1,,,,,0,,,78,0
152832,note_off,,,,,96,0,3,,,,,2,,,66,0
152832,note_on,,,,,0,0,3,,,,,2,,,67,90
153024,note_off,,,,,192,0,1,,,,,0,,,79,0
153024,note_off,,,,,192,0,3,,,,,2,,,67,0
153024,note_off,,,,,192,0,2,,,,,1,,,79,0
153216,note_on,,,,,192,0,3,,,,,2,,,55,90
153216,note_on,,,,,0,0,3,,,,,2,,,65,90
153216,note_on,,,,,192,0,2,,,,,1,,,55,96
153216,note_on,,,,,0,0,2,,,,,1,,,67,96
153216,note_on,,,,,768,0,4,,,,,3,,,59,81
153216,note_on,,,,,192,0,1,,,,,0,,,67,106
154368,note_on,,,,,0,0,1,,,,,0,,,68,106
154368,note_on,,,,,0,0,4,,,,,3,,,60,81
154368,note_off,,,,,1152,0,4,,,,,3,,,59,0
154368,note_on,,,,,0,0,3,,,,,2,,,63,90
154368,note_off,,,,,0,0,3,,,,,2,,,65,0
154368,note_off,,,,,1152,0,3,,,,,2,,,55,0
154368,note_on,,,,,0,0,3,,,,,2,,,55,90
154368,note_off,,,,,1152,0,1,,,,,0,,,67,0
154752,note_off,,,,,1536,0,2,,,,,1,,,55,61
154752,note_off,,,,,384,0,1,,,,,0,,,68,0
154752,note_off,,,,,384,0,4,,,,,3,,,60,0
154752,note_off,,,,,0,0,2,,,,,1,,,67,61
154752,note_off,,,,,0,0,3,,,,,2,,,55,0
154752,note_off,,,,,384,0,3,,,,,2,,,63,0
155040,note_on,,,,,288,0,1,,,,,0,,,78,106
155040,note_on,,,,,288,0,2,,,,,1,,,78,96
155040,note_on,,,,,288,0,3,,,,,2,,,66,90
155136,note_on,,,,,0,0,1,,,,,0,,,79,106
155136,note_off,,,,,96,0,1,,,,,0,,,78,0
155136,note_off,,,,,96,0,2,,,,,1,,,78,0
155136,note_on,,,,,0,0,2,,,,,1,,,79,96
155136,note_on,,,,,0,0,3,,,,,2,,,67,90
155136,note_off,,,,,96,0,3,,,,,2,,,66,0
155328,note_off,,,,,192,0,1,,,,,0,,,79,0
155328,note_off,,,,,192,0,2,,,,,1,,,79,0
155328,note_off,,,,,192,0,3,,,,,2,,,67,0
155520,note_on,,,,,192,0,1,,,,,0,,,68,106
155520,note_on,,,,,192,0,3,,,,,2,,,55,90
155520,note_on,,,,,0,0,3,,,,,2,,,63,90
155520,note_on,,,,,192,0,2,,,,,1,,,55,96
155520,note_on,,,,,0,0,2,,,,,1,,,67,96
155520,note_on,,,,,768,0,4,,,,,3,,,60,81
156672,note_off,,,,,0,0,3,,,,,2,,,63,0
156672,note_on,,,,,0,0,3,,,,,2,,,55,90
156672,note_on,,,,,0,0,3,,,,,2,,,65,90
156672,note_off,,,,,1152,0,3,,,,,2,,,55,0
156672,note_on,,,,,0,0,1,,,,,0,,,71,106
156672,note_on,,,,,0,0,4,,,,,3,,,62,81
156672,note_off,,,,,1152,0,4,,,,,3,,,60,0
156672,note_off,,,,,1152,0,1,,,,,0,,,68,0
157056,note_off,,,,,1536,0,2,,,,,1,,,55,61
157056,note_off,,,,,384,0,1,,,,,0,,,71,0
157056,note_off,,,,,0,0,3,,,,,2,,,65,0
157056,note_off,,,,,384,0,3,,,,,2,,,55,0
157056,note_off,,,,,384,0,4,,,,,3,,,62,0
157056,note_off,,,,,0,0,2,,,,,1,,,67,61
157344,note_on,,,,,288,0,1,,,,,0,,,78,106
157344,note_on,,,,,288,0,3,,,,,2,,,66,90
157344,note_on,,,,,288,0,2,,,,,1,,,78,96
157440,note_on,,,,,0,0,2,,,,,1,,,79,96
157440,note_off,,,,,96,0,2,,,,,1,,,78,0
157440,note_off,,,,,96,0,1,,,,,0,,,78,0
157440,note_on,,,,,0,0,1,,,,,0,,,79,106
157440,note_on,,,,,0,0,3,,,,,2,,,67,90
157440,note_off,,,,,96,0,3,,,,,2,,,66,0
157632,note_off,,,,,192,0,2,,,,,1,,,79,0
157632,note_off,,,,,192,0,3,,,,,2,,,67,0
157632,note_off,,,,,192,0,1,,,,,0,,,79,0
157824,note_on,,,,,192,0,1,,,,,0,,,71,106
157824,note_on,,,,,0,0,3,,,,,2,,,65,90
157824,note_on,,,,,192,0,3,,,,,2,,,55,90
157824,note_on,,,,,0,0,2,,,,,1,,,67,96
157824,note_on,,,,,768,0,4,,,,,3,,,62,81
157824,note_on,,,,,192,0,2,,,,,1,,,55,96
158496,note_on,,,,,0,0,2,,,,,1,,,78,96
158496,note_off,,,,,0,0,2,,,,,1,,,67,0
158496,note_off,,,,,672,0,3,,,,,2,,,55,0
158496,note_off,,,,,0,0,3,,,,,2,,,65,0
158496,note_on,,,,,0,0,3,,,,,2,,,66,90
158496,note_off,,,,,672,0,1,,,,,0,,,71,0
158496,note_off,,,,,672,0,2,,,,,1,,,55,0
158496,note_on,,,,,0,0,1,,,,,0,,,78,106
158592,note_off,,,,,96,0,1,,,,,0,,,78,0
158592,note_on,,,,,0,0,3,,,,,2,,,67,90
158592,note_off,,,,,96,0,3,,,,,2,,,66,0
158592,note_on,,,,,0,0,1,,,,,0,,,79,106
158592,note_off,,,,,768,0,4,,,,,3,,,62,0
158592,note_off,,,,,96,0,2,,,,,1,,,78,0
158592,note_on,,,,,0,0,2,,,,,1,,,79,96
158784,note_off,,,,,192,0,1,,,,,0,,,79,0
158784,note_off,,,,,192,0,2,,,,,1,,,79,0
158784,note_off,,,,,192,0,3,,,,,2,,,67,0
158976,note_on,,,,,0,0,3,,,,,2,,,67,90
158976,note_on,,,,,0,0,2,,,,,1,,,67,96
158976,note_on,,,,,384,0,4,,,,,3,,,63,81
158976,note_on,,,,,192,0,2,,,,,1,,,55,96
158976,note_on,,,,,192,0,3,,,,,2,,,55,90
158976,note_on,,,,,192,0,1,,,,,0,,,72,106
159648,note_off,,,,,0,0,2,,,,,1,,,67,0
159648,note_on,,,,,0,0,2,,,,,1,,,78,96
159648,note_on,,,,,0,0,3,,,,,2,,,66,90
159648,note_off,,,,,0,0,3,,,,,2,,,67,0
159648,note_off,,,,,672,0,3,,,,,2,,,55,0
159648,note_off,,,,,672,0,2,,,,,1,,,55,0
159648,note_off,,,,,672,0,1,,,,,0,,,72,0
159648,note_on,,,,,0,0,1,,,,,0,,,78,106
159744,note_off,,,,,768,0,4,,,,,3,,,63,0
159744,note_on,,,,,0,0,1,,,,,0,,,79,106
159744,note_off,,,,,96,0,1,,,,,0,,,78,0
159744,note_on,,,,,0,0,2,,,,,1,,,79,96
159744,note_off,,,,,96,0,2,,,,,1,,,78,0
159744,note_off,,,,,96,0,3,,,,,2,,,66,0
159744,note_on,,,,,0,0,3,,,,,2,,,67,90
159936,note_off,,,,,192,0,1,,,,,0,,,79,0
159936,note_off,,,,,192,0,2,,,,,1,,,79,0
159936,note_off,,,,,192,0,3,,,,,2,,,67,0
160128,note_on,,,,,192,0,1,,,,,0,,,73,106
160128,note_on,,,,,192,0,2,,,,,1,,,67,96
160128,note_on,,,,,192,0,3,,,,,2,,,55,90
160128,note_on,,,,,384,0,4,,,,,3,,,51,81
161280,note_off,,,,,1152,0,4,,,,,3,,,51,0
161280,note_on,,,,,0,0,3,,,,,2,,,57,90
161280,note_off,,,,,1152,0,3,,,,,2,,,55,0
161280,note_on,,,,,0,0,4,,,,,3,,,50,81
161280,note_off,,,,,1152,0,2,,,,,1,,,67,0
161280,note_off,,,,,1152,0,1,,,,,0,,,73,0
161280,note_on,,,,,0,0,1,,,,,0,,,74,106
161280,note_on,,,,,0,0,2,,,,,1,,,66,96
161664,note_off,,,,,384,0,3,,,,,2,,,57,0
161664,note_off,,,,,384,0,2,,,,,1,,,66,0
161664,note_off,,,,,384,0,4,,,,,3,,,50,0
161664,note_off,,,,,384,0,1,,,,,0,,,74,0
161952,note_on,,,,,288,0,3,,,,,2,,,73,90
161952,note_on,,,,,288,0,1,,,,,0,,,85,106
161952,note_on,,,,,288,0,2,,,,,1,,,73,96
162048,note_off,,,,,96,0,1,,,,,0,,,85,0
162048,note_on,,,,,0,0,1,,,,,0,,,86,106
162048,note_off,,,,,96,0,2,,,,,1,,,73,0
162048,note_on,,,,,0,0,2,,,,,1,,,74,96
162048,note_on,,,,,0,0,3,,,,,2,,,74,90
162048,note_off,,,,,96,0,3,,,,,2,,,73,0
162240,note_off,,,,,192,0,2,,,,,1,,,74,0
162240,note_off,,,,,192,0,3,,,,,2,,,74,0
162240,note_off,,,,,192,0,1,,,,,0,,,86,0
162432,note_on,,,,,192,0,2,,,,,1,,,62,96
162432,note_on,,,,,192,0,1,,,,,0,,,74,106
162432,note_on,,,,,0,0,2,,,,,1,,,69,96
162432,note_on,,,,,768,0,4,,,,,3,,,50,81
162432,note_on,,,,,192,0,3,,,,,2,,,66,90
162624,note_off,,,,,192,0,2,,,,,1,,,62,0
162624,note_off,,,,,0,0,2,,,,,1,,,69,0
162624,note_on,,,,,0,0,2,,,,,1,,,69,96
162624,note_on,,,,,0,0,2,,,,,1,,,62,96
162624,note_off,,,,,192,0,3,,,,,2,,,66,0
162624,note_off,,,,,192,0,4,,,,,3,,,50,0
162624,note_on,,,,,0,0,3,,,,,2,,,66,90
162816,note_on,,,,,192,0,4,,,,,3,,,54,81
163008,note_on,,,,,0,0,2,,,,,1,,,62,96
163008,note_on,,,,,0,0,2,,,,,1,,,69,96
163008,note_off,,,,,0,0,2,,,,,1,,,62,0
163008,note_off,,,,,384,0,2,,,,,1,,,69,0
163008,note_off,,,,,384,0,3,,,,,2,,,66,0
163008,note_off,,,,,192,0,4,,,,,3,,,54,0
163008,note_on,,,,,0,0,3,,,,,2,,,66,90
163104,note_on,,,,,0,0,1,,,,,0,,,85,106
163104,note_off,,,,,672,0,1,,,,,0,,,74,0
163200,note_on,,,,,0,0,1,,,,,0,,,86,106
163200,note_off,,,,,96,0,1,,,,,0,,,85,0
163200,note_on,,,,,192,0,4,,,,,3,,,57,81
163392,note_on,,,,,0,0,3,,,,,2,,,66,90
163392,note_off,,,,,192,0,4,,,,,3,,,57,0
163392,note_on,,,,,0,0,2,,,,,1,,,62,96
163392,note_off,,,,,384,0,2,,,,,1,,,69,0
163392,note_off,,,,,0,0,2,,,,,1,,,62,0
163392,note_off,,,,,384,0,3,,,,,2,,,66,0
163392,note_on,,,,,0,0,2,,,,,1,,,69,96
163392,note_off,,,,,192,0,1,,,,,0,,,86,0
163584,note_off,,,,,192,0,2,,,,,1,,,62,0
163584,note_on,,,,,192,0,4,,,,,3,,,50,81
163584,note_on,,,,,0,0,3,,,,,2,,,67,90
163584,note_off,,,,,192,0,3,,,,,2,,,66,0
163584,note_on,,,,,192,0,1,,,,,0,,,74,106
163584,note_off,,,,,0,0,2,,,,,1,,,69,0
163584,note_on,,,,,0,0,2,,,,,1,,,70,96
163584,note_on,,,,,0,0,2,,,,,1,,,62,96
163776,note_on,,,,,0,0,3,,,,,2,,,67,90
163776,note_on,,,,,0,0,2,,,,,1,,,70,96
163776,note_off,,,,,0,0,2,,,,,1,,,62,0
163776,note_off,,,,,192,0,2,,,,,1,,,70,0
163776,note_off,,,,,192,0,3,,,,,2,,,67,0
163776,note_on,,,,,0,0,2,,,,,1,,,62,96
163776,note_off,,,,,192,0,4,,,,,3,,,50,0
163968,note_on,,,,,192,0,4,,,,,3,,,55,81
164160,note_on,,,,,0,0,3,,,,,2,,,67,90
164160,note_off,,,,,384,0,3,,,,,2,,,67,0
164160,note_off,,,,,192,0,4,,,,,3,,,55,0
164160,note_off,,,,,384,0,2,,,,,1,,,70,0
164160,note_on,,,,,0,0,2,,,,,1,,,62,96
164160,note_on,,,,,0,0,2,,,,,1,,,70,96
164160,note_off,,,,,0,0,2,,,,,1,,,62,0
164256,note_off,,,,,672,0,1,,,,,0,,,74,0
164256,note_on,,,,,0,0,1,,,,,0,,,85,106
164352,note_on,,,,,0,0,1,,,,,0,,,86,106
164352,note_off,,,,,96,0,1,,,,,0,,,85,0
164352,note_on,,,,,192,0,4,,,,,3,,,58,81
164544,note_on,,,,,0,0,3,,,,,2,,,67,90
164544,note_off,,,,,384,0,3,,,,,2,,,67,0
164544,note_off,,,,,192,0,1,,,,,0,,,86,0
164544,note_off,,,,,192,0,4,,,,,3,,,58,0
164544,note_off,,,,,384,0,2,,,,,1,,,70,0
164544,note_off,,,,,0,0,2,,,,,1,,,62,0
164544,note_on,,,,,0,0,2,,,,,1,,,70,96
164544,note_on,,,,,0,0,2,,,,,1,,,62,96
164736,note_off,,,,,192,0,2,,,,,1,,,70,0
164736,note_on,,,,,192,0,1,,,,,0,,,74,106
164736,note_on,,,,,0,0,3,,,,,2,,,66,90
164736,note_off,,,,,0,0,2,,,,,1,,,62,0
164736,note_on,,,,,0,0,2,,,,,1,,,69,96
164736,note_on,,,,,192,0,4,,,,,3,,,50,81
164736,note_off,,,,,192,0,3,,,,,2,,,67,0
164736,note_on,,,,,0,0,2,,,,,1,,,62,96
164928,note_off,,,,,192,0,4,,,,,3,,,50,0
164928,note_on,,,,,0,0,3,,,,,2,,,66,90
164928,note_off,,,,,192,0,3,,,,,2,,,66,0
164928,note_on,,,,,0,0,2,,,,,1,,,62,96
164928,note_on,,,,,0,0,2,,,,,1,,,69,96
164928,note_off,,,,,0,0,2,,,,,1,,,62,0
164928,note_off,,,,,192,0,2,,,,,1,,,69,0
165120,note_on,,,,,192,0,4,,,,,3,,,54,81
165312,note_on,,,,,0,0,2,,,,,1,,,69,96
165312,note_on,,,,,0,0,2,,,,,1,,,62,96
165312,note_off,,,,,0,0,2,,,,,1,,,62,0
165312,note_on,,,,,0,0,3,,,,,2,,,66,90
165312,note_off,,,,,192,0,4,,,,,3,,,54,0
165312,note_off,,,,,384,0,2,,,,,1,,,69,0
165312,note_off,,,,,384,0,3,,,,,2,,,66,0
165408,note_on,,,,,0,0,1,,,,,0,,,85,106
165408,note_off,,,,,672,0,1,,,,,0,,,74,0
165504,note_off,,,,,96,0,1,,,,,0,,,85,0
165504,note_on,,,,,192,0,4,,,,,3,,,57,81
165504,note_on,,,,,0,0,1,,,,,0,,,86,106
165696,note_off,,,,,192,0,4,,,,,3,,,57,0
165696,note_on,,,,,0,0,2,,,,,1,,,62,96
165696,note_off,,,,,0,0,2,,,,,1,,,69,0
165696,note_off,,,,,384,0,2,,,,,1,,,62,0
165696,note_on,,,,,0,0,2,,,,,1,,,69,96
165696,note_off,,,,,192,0,1,,,,,0,,,86,0
165696,note_off,,,,,384,0,3,,,,,2,,,66,0
165696,note_on,,,,,0,0,3,,,,,2,,,66,90
165888,note_on,,,,,192,0,4,,,,,3,,,50,81
165888,note_on,,,,,192,0,1,,,,,0,,,74,106
165888,note_on,,,,,0,0,3,,,,,2,,,67,90
165888,note_off,,,,,192,0,3,,,,,2,,,66,0
165888,note_off,,,,,192,0,2,,,,,1,,,69,0
165888,note_off,,,,,0,0,2,,,,,1,,,62,0
165888,note_on,,,,,0,0,2,,,,,1,,,70,96
165888,note_on,,,,,0,0,2,,,,,1,,,62,96
166080,note_on,,,,,0,0,2,,,,,1,,,70,96
166080,note_on,,,,,0,0,2,,,,,1,,,62,96
166080,note_off,,,,,0,0,2,,,,,1,,,62,0
166080,note_off,,,,,192,0,4,,,,,3,,,50,0
166080,note_off,,,,,192,0,2,,,,,1,,,70,0
166080,note_on,,,,,0,0,3,,,,,2,,,67,90
166080,note_off,,,,,192,0,3,,,,,2,,,67,0
166272,note_on,,,,,192,0,4,,,,,3,,,55,81
166464,note_off,,,,,384,0,3,,,,,2,,,67,0
166464,note_on,,,,,0,0,3,,,,,2,,,67,90
166464,note_off,,,,,384,0,2,,,,,1,,,62,0
166464,note_off,,,,,0,0,2,,,,,1,,,70,0
166464,note_on,,,,,0,0,2,,,,,1,,,70,96
166464,note_on,,,,,0,0,2,,,,,1,,,62,96
166464,note_off,,,,,192,0,4,,,,,3,,,55,0
166560,note_on,,,,,0,0,1,,,,,0,,,85,106
166560,note_off,,,,,672,0,1,,,,,0,,,74,0
166656,note_on,,,,,0,0,1,,,,,0,,,86,106
166656,note_off,,,,,96,0,1,,,,,0,,,85,0
166656,note_on,,,,,192,0,4,,,,,3,,,58,81
166848,note_off,,,,,384,0,2,,,,,1,,,70,0
166848,note_off,,,,,0,0,2,,,,,1,,,62,0
166848,note_off,,,,,192,0,4,,,,,3,,,58,0
166848,note_off,,,,,384,0,3,,,,,2,,,67,0
166848,note_on,,,,,0,0,3,,,,,2,,,67,90
166848,note_off,,,,,192,0,1,,,,,0,,,86,0
166848,note_on,,,,,0,0,2,,,,,1,,,62,96
166848,note_on,,,,,0,0,2,,,,,1,,,70,96
167040,note_on,,,,,0,0,3,,,,,2,,,66,90
167040,note_on,,,,,0,0,2,,,,,1,,,62,96
167040,note_on,,,,,0,0,2,,,,,1,,,69,96
167040,note_off,,,,,192,0,2,,,,,1,,,62,0
167040,note_off,,,,,0,0,2,,,,,1,,,70,0
167040,note_on,,,,,192,0,4,,,,,3,,,50,81
167040,note_on,,,,,192,0,1,,,,,0,,,74,106
167040,note_off,,,,,192,0,3,,,,,2,,,67,0
167712,note_on,,,,,0,0,1,,,,,0,,,85,106
167712,note_off,,,,,672,0,2,,,,,1,,,69,0
167712,note_off,,,,,0,0,2,,,,,1,,,62,0
167712,note_on,,,,,0,0,2,,,,,1,,,73,96
167712,note_off,,,,,672,0,1,,,,,0,,,74,0
167808,note_on,,,,,0,0,1,,,,,0,,,86,106
167808,note_off,,,,,768,0,3,,,,,2,,,66,0
167808,note_on,,,,,0,0,2,,,,,1,,,74,96
167808,note_off,,,,,96,0,2,,,,,1,,,73,0
167808,note_off,,,,,96,0,1,,,,,0,,,85,0
167808,note_off,,,,,768,0,4,,,,,3,,,50,0
168000,note_off,,,,,192,0,1,,,,,0,,,86,0
168000,note_off,,,,,192,0,2,,,,,1,,,74,0
168192,note_on,,,,,192,0,1,,,,,0,,,74,106
168192,note_on,,,,,192,0,2,,,,,1,,,62,96
168864,note_off,,,,,672,0,2,,,,,1,,,62,0
168864,note_on,,,,,0,0,2,,,,,1,,,73,96
168864,note_on,,,,,1056,0,4,,,,,3,,,49,81
168864,note_off,,,,,672,0,1,,,,,0,,,74,0
168864,note_on,,,,,1056,0,3,,,,,2,,,61,90
168864,note_on,,,,,0,0,1,,,,,0,,,73,106
168960,note_on,,,,,0,0,3,,,,,2,,,62,90
168960,note_off,,,,,96,0,3,,,,,2,,,61,0
168960,note_off,,,,,96,0,2,,,,,1,,,73,0
168960,note_on,,,,,0,0,4,,,,,3,,,50,81
168960,note_on,,,,,0,0,2,,,,,1,,,74,96
168960,note_on,,,,,0,0,1,,,,,0,,,74,106
168960,note_off,,,,,96,0,4,,,,,3,,,49,0
168960,note_off,,,,,96,0,1,,,,,0,,,73,0
169152,note_off,,,,,192,0,1,,,,,0,,,74,0
169152,note_off,,,,,192,0,3,,,,,2,,,62,0
169152,note_off,,,,,192,0,4,,,,,3,,,50,0
169152,note_off,,,,,192,0,2,,,,,1,,,74,0
169344,note_on,,,,,192,0,1,,,,,0,,,62,106
169344,note_on,,,,,192,0,3,,,,,2,,,50,90
169344,note_on,,,,,192,0,4,,,,,3,,,38,81
169344,note_on,,,,,192,0,2,,,,,1,,,62,96
170016,note_on,,,,,0,0,1,,,,,0,,,73,106
170016,note_off,,,,,672,0,1,,,,,0,,,62,0
170016,note_off,,,,,672,0,3,,,,,2,,,50,0
170016,note_on,,,,,0,0,3,,,,,2,,,61,90
170016,note_on,,,,,0,0,2,,,,,1,,,73,96
170016,note_off,,,,,672,0,2,,,,,1,,,62,0
170112,note_on,,,,,0,0,1,,,,,0,,,74,106
170112,note_on,,,,,0,0,3,,,,,2,,,62,90
170112,note_off,,,,,96,0,3,,,,,2,,,61,0
170112,note_off,,,,,96,0,2,,,,,1,,,73,0
170112,note_on,,,,,0,0,2,,,,,1,,,74,96
170112,note_off,,,,,96,0,1,,,,,0,,,73,0
170304,note_off,,,,,192,0,2,,,,,1,,,74,0
170304,note_off,,,,,192,0,3,,,,,2,,,62,0
170304,note_off,,,,,192,0,1,,,,,0,,,74,0
170496,note_on,,,,,192,0,1,,,,,0,,,62,106
170496,note_on,,,,,192,0,2,,,,,1,,,62,96
170496,note_on,,,,,192,0,3,,,,,2,,,50,90
170880,note_off,,,,,1536,0,4,,,,,3,,,38,51
171168,note_on,,,,,0,0,1,,,,,0,,,70,106
171168,note_off,,,,,672,0,1,,,,,0,,,62,0
171264,note_off,,,,,768,0,3,,,,,2,,,50,0
171264,note_off,,,,,768,0,2,,,,,1,,,62,0
171264,note_on,,,,,0,0,1,,,,,0,,,71,106
171264,note_off,,,,,96,0,1,,,,,0,,,70,0
171456,note_off,,,,,192,0,1,,,,,0,,,71,0
171648,note_on,,,,,384,0,3,,,,,2,,,65,90
171648,note_on,,,,,384,0,2,,,,,1,,,68,96
171648,note_on,,,,,768,0,4,,,,,3,,,58,81
171648,note_on,,,,,192,0,1,,,,,0,,,74,106
171840,note_off,,,,,192,0,1,,,,,0,,,74,0
172032,note_on,,,,,192,0,1,,,,,0,,,75,106
172224,note_off,,,,,192,0,1,,,,,0,,,75,0
172416,note_on,,,,,192,0,1,,,,,0,,,76,106
172608,note_off,,,,,192,0,1,,,,,0,,,76,0
172800,note_on,,,,,192,0,1,,,,,0,,,77,106
172800,note_off,,,,,1152,0,3,,,,,2,,,65,0
172800,note_on,,,,,0,0,3,,,,,2,,,62,90
172992,note_off,,,,,192,0,1,,,,,0,,,77,0
173184,note_off,,,,,384,0,3,,,,,2,,,62,0
173184,note_off,,,,,1536,0,4,,,,,3,,,58,51
173184,note_off,,,,,1536,0,2,,,,,1,,,68,61
173472,note_on,,,,,480,0,1,,,,,0,,,73,106
173568,note_off,,,,,96,0,1,,,,,0,,,73,0
173568,note_on,,,,,0,0,1,,,,,0,,,74,106
173760,note_off,,,,,192,0,1,,,,,0,,,74,0
173952,note_on,,,,,768,0,2,,,,,1,,,68,96
173952,note_on,,,,,192,0,1,,,,,0,,,77,106
173952,note_on,,,,,768,0,4,,,,,3,,,46,81
173952,note_on,,,,,768,0,3,,,,,2,,,62,90
174144,note_off,,,,,192,0,1,,,,,0,,,77,0
174336,note_on,,,,,192,0,1,,,,,0,,,78,106
174528,note_off,,,,,192,0,1,,,,,0,,,78,0
174720,note_off,,,,,768,0,2,,,,,1,,,68,0
174720,note_on,,,,,0,0,2,,,,,1,,,67,96
174720,note_on,,,,,192,0,1,,,,,0,,,79,106
174912,note_off,,,,,192,0,1,,,,,0,,,79,0
175104,note_on,,,,,192,0,1,,,,,0,,,80,106
175104,note_on,,,,,0,0,2,,,,,1,,,65,96
175104,note_off,,,,,384,0,2,,,,,1,,,67,0
175296,note_off,,,,,192,0,1,,,,,0,,,80,0
175488,note_off,,,,,1536,0,3,,,,,2,,,62,57
175488,note_off,,,,,384,0,2,,,,,1,,,65,0
175488,note_off,,,,,1536,0,4,,,,,3,,,46,51
176160,note_on,,,,,864,0,1,,,,,0,,,81,106
176256,note_on,,,,,0,0,1,,,,,0,,,82,106
176256,note_off,,,,,96,0,1,,,,,0,,,81,0
176448,note_off,,,,,192,0,1,,,,,0,,,82,0
178080,note_on,,,,,1632,0,1,,,,,0,,,74,106
178080,note_on,,,,,2592,0,3,,,,,2,,,74,90
178080,note_on,,,,,2592,0,2,,,,,1,,,74,96
178176,note_off,,,,,96,0,1,,,,,0,,,74,0
178176,note_on,,,,,0,0,1,,,,,0,,,75,106
178176,note_on,,,,,0,0,2,,,,,1,,,75,96
178176,note_off,,,,,96,0,2,,,,,1,,,74,0
178176,note_off,,,,,96,0,3,,,,,2,,,74,0
178176,note_on,,,,,0,0,3,,,,,2,,,75,90
178368,note_off,,,,,192,0,1,,,,,0,,,75,0
178368,note_off,,,,,192,0,3,,,,,2,,,75,0
178368,note_off,,,,,192,0,2,,,,,1,,,75,0
178560,note_on,,,,,192,0,1,,,,,0,,,63,106
178560,note_on,,,,,3072,0,4,,,,,3,,,55,81
178560,note_on,,,,,192,0,2,,,,,1,,,63,96
178560,note_on,,,,,192,0,3,,,,,2,,,58,90
179712,note_off,,,,,1152,0,3,,,,,2,,,58,0
179712,note_off,,,,,1152,0,1,,,,,0,,,63,0
179712,note_on,,,,,0,0,3,,,,,2,,,60,90
179712,note_off,,,,,1152,0,4,,,,,3,,,55,0
179712,note_on,,,,,0,0,4,,,,,3,,,56,81
179712,note_on,,,,,0,0,1,,,,,0,,,65,106
180096,note_off,,,,,384,0,4,,,,,3,,,56,0
180096,note_off,,,,,1536,0,2,,,,,1,,,63,61
180096,note_off,,,,,384,0,3,,,,,2,,,60,0
180096,note_off,,,,,384,0,1,,,,,0,,,65,0
180384,note_on,,,,,288,0,1,,,,,0,,,74,106
180384,note_on,,,,,288,0,3,,,,,2,,,74,90
180384,note_on,,,,,288,0,2,,,,,1,,,74,96
180480,note_off,,,,,96,0,1,,,,,0,,,74,0
180480,note_on,,,,,0,0,3,,,,,2,,,75,90
180480,note_off,,,,,96,0,3,,,,,2,,,74,0
180480,note_off,,,,,96,0,2,,,,,1,,,74,0
180480,note_on,,,,,0,0,2,,,,,1,,,75,96
180480,note_on,,,,,0,0,1,,,,,0,,,75,106
180672,note_off,,,,,192,0,2,,,,,1,,,75,0
180672,note_off,,,,,192,0,1,,,,,0,,,75,0
180672,note_off,,,,,192,0,3,,,,,2,,,75,0
180864,note_on,,,,,192,0,1,,,,,0,,,65,106
180864,note_on,,,,,768,0,4,,,,,3,,,57,81
180864,note_on,,,,,192,0,3,,,,,2,,,60,90
180864,note_on,,,,,192,0,2,,,,,1,,,63,96
182016,note_on,,,,,0,0,1,,,,,0,,,67,106
182016,note_off,,,,,1152,0,3,,,,,2,,,60,0
182016,note_on,,,,,0,0,3,,,,,2,,,58,90
182016,note_off,,,,,1152,0,1,,,,,0,,,65,0
182016,note_off,,,,,1152,0,4,,,,,3,,,57,0
182016,note_on,,,,,0,0,4,,,,,3,,,58,81
182400,note_off,,,,,384,0,1,,,,,0,,,67,0
182400,note_off,,,,,384,0,3,,,,,2,,,58,0
182400,note_off,,,,,1536,0,2,,,,,1,,,63,61
182400,note_off,,,,,384,0,4,,,,,3,,,58,0
182688,note_on,,,,,288,0,3,,,,,2,,,74,90
182688,note_on,,,,,288,0,1,,,,,0,,,74,106
182688,note_on,,,,,288,0,2,,,,,1,,,74,96
182784,note_on,,,,,0,0,1,,,,,0,,,75,106
182784,note_off,,,,,96,0,1,,,,,0,,,74,0
182784,note_on,,,,,0,0,3,,,,,2,,,75,90
182784,note_off,,,,,96,0,3,,,,,2,,,74,0
182784,note_on,,,,,0,0,2,,,,,1,,,75,96
182784,note_off,,,,,96,0,2,,,,,1,,,74,0
182976,note_off,,,,,192,0,1,,,,,0,,,75,0
182976,note_off,,,,,192,0,3,,,,,2,,,75,0
182976,note_off,,,,,192,0,2,,,,,1,,,75,0
183168,note_on,,,,,192,0,3,,,,,2,,,63,90
183168,note_on,,,,,192,0,1,,,,,0,,,63,106
183168,note_on,,,,,768,0,4,,,,,3,,,51,81
183168,note_on,,,,,192,0,2,,,,,1,,,63,96
183360,note_off,,,,,192,0,1,,,,,0,,,63,0
183360,note_off,,,,,192,0,3,,,,,2,,,63,0
183360,note_off,,,,,192,0,2,,,,,1,,,63,0
183360,note_off,,,,,192,0,4,,,,,3,,,51,0
183552,note_on,,,,,192,0,2,,,,,1,,,63,96
183552,note_on,,,,,192,0,1,,,,,0,,,65,106
183552,note_on,,,,,192,0,4,,,,,3,,,50,81
183552,note_on,,,,,192,0,3,,,,,2,,,63,90
183744,note_off,,,,,192,0,2,,,,,1,,,63,0
183744,note_off,,,,,192,0,1,,,,,0,,,65,0
183744,note_off,,,,,192,0,4,,,,,3,,,50,0
183744,note_off,,,,,192,0,3,,,,,2,,,63,0
183936,note_on,,,,,192,0,2,,,,,1,,,63,96
183936,note_on,,,,,192,0,1,,,,,0,,,67,106
183936,note_on,,,,,192,0,4,,,,,3,,,49,81
183936,note_on,,,,,192,0,3,,,,,2,,,63,90
184128,note_off,,,,,192,0,3,,,,,2,,,63,0
184128,note_off,,,,,192,0,1,,,,,0,,,67,0
184128,note_off,,,,,192,0,2,,,,,1,,,63,0
184128,note_off,,,,,192,0,4,,,,,3,,,49,0
184320,note_on,,,,,192,0,2,,,,,1,,,63,96
184320,note_on,,,,,192,0,4,,,,,3,,,48,81
184320,note_on,,,,,192,0,3,,,,,2,,,63,90
184320,note_on,,,,,192,0,1,,,,,0,,,68,106
184512,note_off,,,,,192,0,2,,,,,1,,,63,0
184512,note_off,,,,,192,0,3,,,,,2,,,63,0
184512,note_off,,,,,192,0,1,,,,,0,,,68,0
184512,note_off,,,,,192,0,4,,,,,3,,,48,0
184704,note_on,,,,,192,0,4,,,,,3,,,46,81
184704,note_on,,,,,192,0,2,,,,,1,,,67,96
184704,note_on,,,,,192,0,3,,,,,2,,,63,90
184704,note_on,,,,,192,0,1,,,,,0,,,70,106
184896,note_off,,,,,192,0,3,,,,,2,,,63,0
184896,note_off,,,,,192,0,1,,,,,0,,,70,0
184896,note_off,,,,,192,0,4,,,,,3,,,46,0
184896,note_off,,,,,192,0,2,,,,,1,,,67,0
185088,note_on,,,,,192,0,3,,,,,2,,,60,90
185088,note_on,,,,,192,0,4,,,,,3,,,44,81
185088,note_on,,,,,192,0,1,,,,,0,,,72,106
185088,note_on,,,,,192,0,2,,,,,1,,,68,96
185280,note_off,,,,,192,0,4,,,,,3,,,44,0
185280,note_off,,,,,192,0,2,,,,,1,,,68,0
185280,note_off,,,,,192,0,1,,,,,0,,,72,0
185280,note_off,,,,,192,0,3,,,,,2,,,60,0
185472,note_on,,,,,192,0,4,,,,,3,,,46,81
185472,note_on,,,,,0,0,3,,,,,2,,,65,90
185472,note_on,,,,,192,0,3,,,,,2,,,58,90
185472,note_on,,,,,192,0,2,,,,,1,,,68,96
185472,note_on,,,,,0,0,2,,,,,1,,,58,96
185472,note_on,,,,,192,0,1,,,,,0,,,70,106
185664,note_off,,,,,192,0,4,,,,,3,,,46,0
185664,note_off,,,,,192,0,1,,,,,0,,,70,0
185664,note_off,,,,,192,0,3,,,,,2,,,58,0
185664,note_off,,,,,0,0,3,,,,,2,,,65,0
185664,note_off,,,,,192,0,2,,,,,1,,,68,0
185664,note_off,,,,,0,0,2,,,,,1,,,58,0
185856,note_on,,,,,192,0,1,,,,,0,,,80,106
185856,note_on,,,,,0,0,3,,,,,2,,,65,90
185856,note_on,,,,,192,0,3,,,,,2,,,58,90
185856,note_on,,,,,192,0,2,,,,,1,,,68,96
185856,note_on,,,,,0,0,2,,,,,1,,,58,96
185856,note_on,,,,,192,0,4,,,,,3,,,58,81
186048,note_off,,,,,0,0,3,,,,,2,,,65,0
186048,note_off,,,,,0,0,2,,,,,1,,,58,0
186048,note_off,,,,,192,0,2,,,,,1,,,68,0
186048,note_off,,,,,192,0,1,,,,,0,,,80,0
186048,note_off,,,,,192,0,4,,,,,3,,,58,0
186048,note_off,,,,,192,0,3,,,,,2,,,58,0
186240,note_on,,,,,192,0,1,,,,,0,,,74,106
186240,note_on,,,,,192,0,4,,,,,3,,,58,81
186240,note_on,,,,,0,0,3,,,,,2,,,65,90
186240,note_on,,,,,192,0,3,,,,,2,,,58,90
186240,note_on,,,,,0,0,2,,,,,1,,,68,96
186240,note_on,,,,,192,0,2,,,,,1,,,58,96
186432,note_off,,,,,192,0,2,,,,,1,,,58,0
186432,note_off,,,,,192,0,3,,,,,2,,,58,0
186432,note_off,,,,,0,0,3,,,,,2,,,65,0
186432,note_off,,,,,0,0,2,,,,,1,,,68,0
186432,note_off,,,,,192,0,1,,,,,0,,,74,0
186432,note_off,,,,,192,0,4,,,,,3,,,58,0
186624,note_on,,,,,192,0,4,,,,,3,,,51,81
186624,note_on,,,,,192,0,1,,,,,0,,,75,106
186624,note_on,,,,,192,0,3,,,,,2,,,63,90
186624,note_on,,,,,0,0,3,,,,,2,,,55,90
186624,note_on,,,,,0,0,2,,,,,1,,,67,96
186624,note_on,,,,,192,0,2,,,,,1,,,58,96
187296,note_on,,,,,672,0,2,,,,,1,,,78,96
187296,note_on,,,,,672,0,1,,,,,0,,,78,106
187296,note_on,,,,,672,0,3,,,,,2,,,66,90
187392,note_on,,,,,0,0,3,,,,,2,,,67,90
187392,note_off,,,,,96,0,2,,,,,1,,,58,0
187392,note_off,,,,,0,0,2,,,,,1,,,67,0
187392,note_off,,,,,0,0,2,,,,,1,,,78,0
187392,note_off,,,,,768,0,4,,,,,3,,,51,0
187392,note_on,,,,,0,0,1,,,,,0,,,79,106
187392,note_on,,,,,0,0,2,,,,,1,,,79,96
187392,note_off,,,,,0,0,1,,,,,0,,,78,0
187392,note_off,,,,,96,0,1,,,,,0,,,75,0
187392,note_off,,,,,0,0,3,,,,,2,,,66,0
187392,note_off,,,,,96,0,3,,,,,2,,,63,0
187392,note_off,,,,,0,0,3,,,,,2,,,55,0
187584,note_off,,,,,192,0,3,,,,,2,,,67,0
187584,note_off,,,,,192,0,1,,,,,0,,,79,0
187584,note_off,,,,,192,0,2,,,,,1,,,79,0
187776,note_on,,,,,0,0,2,,,,,1,,,67,96
187776,note_on,,,,,192,0,3,,,,,2,,,55,90
187776,note_on,,,,,0,0,3,,,,,2,,,65,90
187776,note_on,,,,,192,0,2,,,,,1,,,55,96
187776,note_on,,,,,384,0,4,,,,,3,,,59,81
187776,note_on,,,,,192,0,1,,,,,0,,,67,106
188928,note_off,,,,,1152,0,3,,,,,2,,,55,0
188928,note_off,,,,,0,0,3,,,,,2,,,65,0
188928,note_on,,,,,0,0,1,,,,,0,,,68,106
188928,note_off,,,,,1152,0,1,,,,,0,,,67,0
188928,note_on,,,,,0,0,4,,,,,3,,,60,81
188928,note_off,,,,,1152,0,4,,,,,3,,,59,0
188928,note_on,,,,,0,0,3,,,,,2,,,63,90
188928,note_on,,,,,0,0,3,,,,,2,,,55,90
189312,note_off,,,,,0,0,3,,,,,2,,,55,0
189312,note_off,,,,,384,0,3,,,,,2,,,63,0
189312,note_off,,,,,384,0,4,,,,,3,,,60,0
189312,note_off,,,,,1536,0,2,,,,,1,,,55,61
189312,note_off,,,,,0,0,2,,,,,1,,,67,61
189312,note_off,,,,,384,0,1,,,,,0,,,68,0
189600,note_on,,,,,288,0,3,,,,,2,,,66,90
189600,note_on,,,,,288,0,1,,,,,0,,,78,106
189600,note_on,,,,,288,0,2,,,,,1,,,78,96
189696,note_off,,,,,96,0,3,,,,,2,,,66,0
189696,note_on,,,,,0,0,1,,,,,0,,,79,106
189696,note_off,,,,,96,0,2,,,,,1,,,78,0
189696,note_off,,,,,96,0,1,,,,,0,,,78,0
189696,note_on,,,,,0,0,2,,,,,1,,,79,96
189696,note_on,,,,,0,0,3,,,,,2,,,67,90
189888,note_off,,,,,192,0,2,,,,,1,,,79,0
189888,note_off,,,,,192,0,1,,,,,0,,,79,0
189888,note_off,,,,,192,0,3,,,,,2,,,67,0
190080,note_on,,,,,0,0,2,,,,,1,,,67,96
190080,note_on,,,,,768,0,4,,,,,3,,,60,81
190080,note_on,,,,,192,0,3,,,,,2,,,55,90
190080,note_on,,,,,0,0,3,,,,,2,,,63,90
190080,note_on,,,,,192,0,1,,,,,0,,,68,106
190080,note_on,,,,,192,0,2,,,,,1,,,55,96
191232,note_off,,,,,1152,0,3,,,,,2,,,55,0
191232,note_off,,,,,0,0,3,,,,,2,,,63,0
191232,note_on,,,,,0,0,3,,,,,2,,,65,90
191232,note_on,,,,,0,0,1,,,,,0,,,71,106
191232,note_off,,,,,1152,0,1,,,,,0,,,68,0
191232,note_on,,,,,0,0,3,,,,,2,,,55,90
191232,note_off,,,,,1152,0,4,,,,,3,,,60,0
191232,note_on,,,,,0,0,4,,,,,3,,,62,81
191616,note_off,,,,,0,0,2,,,,,1,,,67,61
191616,note_off,,,,,384,0,4,,,,,3,,,62,0
191616,note_off,,,,,1536,0,2,,,,,1,,,55,61
191616,note_off,,,,,384,0,3,,,,,2,,,55,0
191616,note_off,,,,,0,0,3,,,,,2,,,65,0
191616,note_off,,,,,384,0,1,,,,,0,,,71,0
191904,note_on,,,,,288,0,3,,,,,2,,,66,90
191904,note_on,,,,,288,0,1,,,,,0,,,78,106
191904,note_on,,,,,288,0,2,,,,,1,,,78,96
192000,note_on,,,,,0,0,2,,,,,1,,,79,96
192000,note_off,,,,,96,0,3,,,,,2,,,66,0
192000,note_on,,,,,0,0,3,,,,,2,,,67,90
192000,note_on,,,,,0,0,1,,,,,0,,,79,106
192000,note_off,,,,,96,0,1,,,,,0,,,78,0
192000,note_off,,,,,96,0,2,,,,,1,,,78,0
192192,note_off,,,,,192,0,1,,,,,0,,,79,0
192192,note_off,,,,,192,0,2,,,,,1,,,79,0
192192,note_off,,,,,192,0,3,,,,,2,,,67,0
192384,note_on,,,,,0,0,3,,,,,2,,,65,90
192384,note_on,,,,,192,0,3,,,,,2,,,55,90
192384,note_on,,,,,192,0,2,,,,,1,,,55,96
192384,note_on,,,,,0,0,2,,,,,1,,,67,96
192384,note_on,,,,,192,0,1,,,,,0,,,71,106
192384,note_on,,,,,768,0,4,,,,,3,,,62,81
193056,note_off,,,,,672,0,1,,,,,0,,,71,0
193056,note_on,,,,,0,0,1,,,,,0,,,78,106
193056,note_off,,,,,0,0,2,,,,,1,,,67,0
193056,note_off,,,,,672,0,2,,,,,1,,,55,0
193056,note_off,,,,,672,0,3,,,,,2,,,55,0
193056,note_off,,,,,0,0,3,,,,,2,,,65,0
193056,note_on,,,,,0,0,3,,,,,2,,,66,90
193056,note_on,,,,,0,0,2,,,,,1,,,78,96
193152,note_on,,,,,0,0,1,,,,,0,,,79,106
193152,note_off,,,,,96,0,2,,,,,1,,,78,0
193152,note_off,,,,,96,0,1,,,,,0,,,78,0
193152,note_off,,,,,768,0,4,,,,,3,,,62,0
193152,note_on,,,,,0,0,2,,,,,1,,,79,96
193152,note_on,,,,,0,0,3,,,,,2,,,67,90
193152,note_off,,,,,96,0,3,,,,,2,,,66,0
193344,note_off,,,,,192,0,1,,,,,0,,,79,0
193344,note_off,,,,,192,0,2,,,,,1,,,79,0
193344,note_off,,,,,192,0,3,,,,,2,,,67,0
193536,note_on,,,,,192,0,3,,,,,2,,,55,90
193536,note_on,,,,,0,0,2,,,,,1,,,67,96
193536,note_on,,,,,192,0,2,,,,,1,,,55,96
193536,note_on,,,,,192,0,1,,,,,0,,,72,106
193536,note_on,,,,,384,0,4,,,,,3,,,63,81
193536,note_on,,,,,0,0,3,,,,,2,,,67,90
194208,note_off,,,,,672,0,1,,,,,0,,,72,0
194208,note_on,,,,,0,0,1,,,,,0,,,78,106
194208,note_on,,,,,0,0,3,,,,,2,,,66,90
194208,note_on,,,,,0,0,2,,,,,1,,,78,96
194208,note_off,,,,,0,0,2,,,,,1,,,67,0
194208,note_off,,,,,672,0,2,,,,,1,,,55,0
194208,note_off,,,,,0,0,3,,,,,2,,,67,0
194208,note_off,,,,,672,0,3,,,,,2,,,55,0
194304,note_on,,,,,0,0,2,,,,,1,,,79,96
194304,note_off,,,,,96,0,2,,,,,1,,,78,0
194304,note_off,,,,,96,0,3,,,,,2,,,66,0
194304,note_on,,,,,0,0,3,,,,,2,,,67,90
194304,note_off,,,,,768,0,4,,,,,3,,,63,0
194304,note_on,,,,,0,0,1,,,,,0,,,79,106
194304,note_off,,,,,96,0,1,,,,,0,,,78,0
194496,note_off,,,,,192,0,2,,,,,1,,,79,0
194496,note_off,,,,,192,0,1,,,,,0,,,79,0
194496,note_off,,,,,192,0,3,,,,,2,,,67,0
194688,note_on,,,,,192,0,3,,,,,2,,,55,90
194688,note_on,,,,,192,0,1,,,,,0,,,73,106
194688,note_on,,,,,192,0,2,,,,,1,,,67,96
194688,note_on,,,,,384,0,4,,,,,3,,,51,81
195840,note_on,,,,,0,0,1,,,,,0,,,74,106
195840,note_off,,,,,1152,0,1,,,,,0,,,73,0
195840,note_on,,,,,0,0,2,,,,,1,,,66,96
195840,note_off,,,,,1152,0,2,,,,,1,,,67,0
195840,note_on,,,,,0,0,4,,,,,3,,,50,81
195840,note_off,,,,,1152,0,3,,,,,2,,,55,0
195840,note_off,,,,,1152,0,4,,,,,3,,,51,0
195840,note_on,,,,,0,0,3,,,,,2,,,57,90
196224,note_off,,,,,384,0,4,,,,,3,,,50,0
196224,note_off,,,,,384,0,2,,,,,1,,,66,0
196224,note_off,,,,,384,0,3,,,,,2,,,57,0
196224,note_off,,,,,384,0,1,,,,,0,,,74,0
196512,note_on,,,,,288,0,3,,,,,2,,,73,90
196512,note_on,,,,,288,0,2,,,,,1,,,73,96
196512,note_on,,,,,288,0,1,,,,,0,,,85,106
196608,note_on,,,,,0,0,3,,,,,2,,,74,90
196608,note_off,,,,,96,0,3,,,,,2,,,73,0
196608,note_off,,,,,96,0,1,,,,,0,,,85,0
196608,note_off,,,,,96,0,2,,,,,1,,,73,0
196608,note_on,,,,,0,0,2,,,,,1,,,74,96
196608,note_on,,,,,0,0,1,,,,,0,,,86,106
196800,note_off,,,,,192,0,3,,,,,2,,,74,0
196800,note_off,,,,,192,0,2,,,,,1,,,74,0
196800,note_off,,,,,192,0,1,,,,,0,,,86,0
196992,note_on,,,,,768,0,4,,,,,3,,,50,81
196992,note_on,,,,,192,0,1,,,,,0,,,74,106
196992,note_on,,,,,192,0,2,,,,,1,,,62,96
196992,note_on,,,,,0,0,2,,,,,1,,,69,96
196992,note_on,,,,,192,0,3,,,,,2,,,66,90
197184,note_off,,,,,192,0,3,,,,,2,,,66,0
197184,note_off,,,,,0,0,2,,,,,1,,,69,0
197184,note_on,,,,,0,0,2,,,,,1,,,69,96
197184,note_off,,,,,192,0,4,,,,,3,,,50,0
197184,note_on,,,,,0,0,2,,,,,1,,,62,96
197184,note_off,,,,,192,0,2,,,,,1,,,62,0
197184,note_on,,,,,0,0,3,,,,,2,,,66,90
197376,note_on,,,,,192,0,4,,,,,3,,,54,81
197568,note_off,,,,,192,0,4,,,,,3,,,54,0
197568,note_on,,,,,0,0,2,,,,,1,,,62,96
197568,note_on,,,,,0,0,2,,,,,1,,,69,96
197568,note_off,,,,,0,0,2,,,,,1,,,62,0
197568,note_off,,,,,384,0,2,,,,,1,,,69,0
197568,note_off,,,,,384,0,3,,,,,2,,,66,0
197568,note_on,,,,,0,0,3,,,,,2,,,66,90
197664,note_on,,,,,0,0,1,,,,,0,,,85,106
197664,note_off,,,,,672,0,1,,,,,0,,,74,0
197760,note_on,,,,,192,0,4,,,,,3,,,57,81
197760,note_on,,,,,0,0,1,,,,,0,,,86,106
197760,note_off,,,,,96,0,1,,,,,0,,,85,0
197952,note_off,,,,,0,0,2,,,,,1,,,62,0
197952,note_off,,,,,384,0,3,,,,,2,,,66,0
197952,note_on,,,,,0,0,2,,,,,1,,,69,96
197952,note_off,,,,,192,0,4,,,,,3,,,57,0
197952,note_off,,,,,192,0,1,,,,,0,,,86,0
197952,note_off,,,,,384,0,2,,,,,1,,,69,0
197952,note_on,,,,,0,0,3,,,,,2,,,66,90
197952,note_on,,,,,0,0,2,,,,,1,,,62,96
198144,note_on,,,,,0,0,2,,,,,1,,,70,96
198144,note_on,,,,,0,0,2,,,,,1,,,62,96
198144,note_on,,,,,192,0,4,,,,,3,,,50,81
198144,note_off,,,,,0,0,2,,,,,1,,,69,0
198144,note_off,,,,,192,0,2,,,,,1,,,62,0
198144,note_on,,,,,192,0,1,,,,,0,,,74,106
198144,note_on,,,,,0,0,3,,,,,2,,,67,90
198144,note_off,,,,,192,0,3,,,,,2,,,66,0
198336,note_off,,,,,192,0,3,,,,,2,,,67,0
198336,note_on,,,,,0,0,2,,,,,1,,,70,96
198336,note_on,,,,,0,0,2,,,,,1,,,62,96
198336,note_off,,,,,0,0,2,,,,,1,,,62,0
198336,note_on,,,,,0,0,3,,,,,2,,,67,90
198336,note_off,,,,,192,0,2,,,,,1,,,70,0
198336,note_off,,,,,192,0,4,,,,,3,,,50,0
198528,note_on,,,,,192,0,4,,,,,3,,,55,81
198720,note_on,,,,,0,0,2,,,,,1,,,62,96
198720,note_off,,,,,384,0,3,,,,,2,,,67,0
198720,note_on,,,,,0,0,2,,,,,1,,,70,96
198720,note_off,,,,,192,0,4,,,,,3,,,55,0
198720,note_off,,,,,0,0,2,,,,,1,,,62,0
198720,note_on,,,,,0,0,3,,,,,2,,,67,90
198720,note_off,,,,,384,0,2,,,,,1,,,70,0
198816,note_off,,,,,672,0,1,,,,,0,,,74,0
198816,note_on,,,,,0,0,1,,,,,0,,,85,106
198912,note_off,,,,,96,0,1,,,,,0,,,85,0
198912,note_on,,,,,0,0,1,,,,,0,,,86,106
198912,note_on,,,,,192,0,4,,,,,3,,,58,81
199104,note_off,,,,,384,0,2,,,,,1,,,70,0
199104,note_off,,,,,0,0,2,,,,,1,,,62,0
199104,note_off,,,,,384,0,3,,,,,2,,,67,0
199104,note_off,,,,,192,0,1,,,,,0,,,86,0
199104,note_off,,,,,192,0,4,,,,,3,,,58,0
199104,note_on,,,,,0,0,2,,,,,1,,,70,96
199104,note_on,,,,,0,0,3,,,,,2,,,67,90
199104,note_on,,,,,0,0,2,,,,,1,,,62,96
199296,note_off,,,,,192,0,2,,,,,1,,,70,0
199296,note_off,,,,,0,0,2,,,,,1,,,62,0
199296,note_on,,,,,0,0,2,,,,,1,,,69,96
199296,note_on,,,,,192,0,4,,,,,3,,,50,81
199296,note_on,,,,,0,0,2,,,,,1,,,62,96
199296,note_off,,,,,192,0,3,,,,,2,,,67,0
199296,note_on,,,,,0,0,3,,,,,2,,,66,90
199296,note_on,,,,,192,0,1,,,,,0,,,74,106
199488,note_off,,,,,192,0,2,,,,,1,,,69,0
199488,note_off,,,,,0,0,2,,,,,1,,,62,0
199488,note_on,,,,,0,0,2,,,,,1,,,69,96
199488,note_on,,,,,0,0,2,,,,,1,,,62,96
199488,note_on,,,,,0,0,3,,,,,2,,,66,90
199488,note_off,,,,,192,0,3,,,,,2,,,66,0
199488,note_off,,,,,192,0,4,,,,,3,,,50,0
199680,note_on,,,,,192,0,4,,,,,3,,,54,81
199872,note_off,,,,,384,0,2,,,,,1,,,69,0
199872,note_off,,,,,0,0,2,,,,,1,,,62,0
199872,note_on,,,,,0,0,2,,,,,1,,,62,96
199872,note_on,,,,,0,0,2,,,,,1,,,69,96
199872,note_off,,,,,192,0,4,,,,,3,,,54,0
199872,note_on,,,,,0,0,3,,,,,2,,,66,90
199872,note_off,,,,,384,0,3,,,,,2,,,66,0
199968,note_on,,,,,0,0,1,,,,,0,,,85,106
199968,note_off,,,,,672,0,1,,,,,0,,,74,0
200064,note_on,,,,,0,0,1,,,,,0,,,86,106
200064,note_on,,,,,192,0,4,,,,,3,,,57,81
200064,note_off,,,,,96,0,1,,,,,0,,,85,0
200256,note_on,,,,,0,0,3,,,,,2,,,66,90
200256,note_on,,,,,0,0,2,,,,,1,,,62,96
200256,note_on,,,,,0,0,2,,,,,1,,,69,96
200256,note_off,,,,,0,0,2,,,,,1,,,69,0
200256,note_off,,,,,384,0,2,,,,,1,,,62,0
200256,note_off,,,,,192,0,1,,,,,0,,,86,0
200256,note_off,,,,,384,0,3,,,,,2,,,66,0
200256,note_off,,,,,192,0,4,,,,,3,,,57,0
200448,note_on,,,,,192,0,1,,,,,0,,,74,106
200448,note_off,,,,,0,0,2,,,,,1,,,62,0
200448,note_off,,,,,192,0,3,,,,,2,,,66,0
200448,note_on,,,,,0,0,2,,,,,1,,,70,96
200448,note_on,,,,,0,0,2,,,,,1,,,62,96
200448,note_on,,,,,192,0,4,,,,,3,,,50,81
200448,note_off,,,,,192,0,2,,,,,1,,,69,0
200448,note_on,,,,,0,0,3,,,,,2,,,67,90
200640,note_off,,,,,192,0,3,,,,,2,,,67,0
200640,note_on,,,,,0,0,3,,,,,2,,,67,90
200640,note_on,,,,,0,0,2,,,,,1,,,62,96
200640,note_off,,,,,0,0,2,,,,,1,,,62,0
200640,note_on,,,,,0,0,2,,,,,1,,,70,96
200640,note_off,,,,,192,0,2,,,,,1,,,70,0
200640,note_off,,,,,192,0,4,,,,,3,,,50,0
200832,note_on,,,,,192,0,4,,,,,3,,,55,81
201024,note_off,,,,,384,0,2,,,,,1,,,62,0
201024,note_off,,,,,0,0,2,,,,,1,,,70,0
201024,note_on,,,,,0,0,2,,,,,1,,,70,96
201024,note_on,,,,,0,0,2,,,,,1,,,62,96
201024,note_on,,,,,0,0,3,,,,,2,,,67,90
201024,note_off,,,,,384,0,3,,,,,2,,,67,0
201024,note_off,,,,,192,0,4,,,,,3,,,55,0
201120,note_on,,,,,0,0,1,,,,,0,,,85,106
201120,note_off,,,,,672,0,1,,,,,0,,,74,0
201216,note_off,,,,,96,0,1,,,,,0,,,85,0
201216,note_on,,,,,192,0,4,,,,,3,,,58,81
201216,note_on,,,,,0,0,1,,,,,0,,,86,106
201408,note_off,,,,,192,0,4,,,,,3,,,58,0
201408,note_off,,,,,192,0,1,,,,,0,,,86,0
201408,note_on,,,,,0,0,3,,,,,2,,,67,90
201408,note_off,,,,,384,0,3,,,,,2,,,67,0
201408,note_on,,,,,0,0,2,,,,,1,,,70,96
201408,note_on,,,,,0,0,2,,,,,1,,,62,96
201408,note_off,,,,,0,0,2,,,,,1,,,62,0
201408,note_off,,,,,384,0,2,,,,,1,,,70,0
201600,note_off,,,,,192,0,2,,,,,1,,,62,0
201600,note_off,,,,,192,0,3,,,,,2,,,67,0
201600,note_on,,,,,0,0,3,,,,,2,,,66,90
201600,note_off,,,,,0,0,2,,,,,1,,,70,0
201600,note_on,,,,,192,0,1,,,,,0,,,74,106
201600,note_on,,,,,0,0,2,,,,,1,,,69,96
201600,note_on,,,,,0,0,2,,,,,1,,,62,96
201600,note_on,,,,,192,0,4,,,,,3,,,50,81
202272,note_on,,,,,0,0,1,,,,,0,,,85,106
202272,note_off,,,,,672,0,1,,,,,0,,,74,0
202272,note_off,,,,,672,0,2,,,,,1,,,69,0
202272,note_on,,,,,0,0,2,,,,,1,,,73,96
202272,note_off,,,,,0,0,2,,,,,1,,,62,0
202368,note_off,,,,,96,0,1,,,,,0,,,85,0
202368,note_off,,,,,96,0,2,,,,,1,,,73,0
202368,note_off,,,,,768,0,3,,,,,2,,,66,0
202368,note_off,,,,,768,0,4,,,,,3,,,50,0
202368,note_on,,,,,0,0,1,,,,,0,,,86,106
202368,note_on,,,,,0,0,2,,,,,1,,,74,96
202560,note_off,,,,,192,0,2,,,,,1,,,74,0
202560,note_off,,,,,192,0,1,,,,,0,,,86,0
202752,note_on,,,,,192,0,2,,,,,1,,,62,96
202752,note_on,,,,,192,0,1,,,,,0,,,74,106
203424,note_off,,,,,672,0,1,,,,,0,,,74,0
203424,note_on,,,,,0,0,1,,,,,0,,,73,106
203424,note_on,,,,,0,0,2,,,,,1,,,73,96
203424,note_on,,,,,1056,0,4,,,,,3,,,49,81
203424,note_on,,,,,1056,0,3,,,,,2,,,61,90
203424,note_off,,,,,672,0,2,,,,,1,,,62,0
203520,note_off,,,,,96,0,4,,,,,3,,,49,0
203520,note_off,,,,,96,0,1,,,,,0,,,73,0
203520,note_on,,,,,0,0,1,,,,,0,,,74,106
203520,note_on,,,,,0,0,4,,,,,3,,,50,81
203520,note_off,,,,,96,0,2,,,,,1,,,73,0
203520,note_on,,,,,0,0,2,,,,,1,,,74,96
203520,note_off,,,,,96,0,3,,,,,2,,,61,0
203520,note_on,,,,,0,0,3,,,,,2,,,62,90
203712,note_off,,,,,192,0,1,,,,,0,,,74,0
203712,note_off,,,,,192,0,2,,,,,1,,,74,0
203712,note_off,,,,,192,0,4,,,,,3,,,50,0
203712,note_off,,,,,192,0,3,,,,,2,,,62,0
203904,note_on,,,,,192,0,4,,,,,3,,,38,81
203904,note_on,,,,,192,0,1,,,,,0,,,62,106
203904,note_on,,,,,192,0,2,,,,,1,,,62,96
203904,note_on,,,,,192,0,3,,,,,2,,,50,90
204576,note_off,,,,,672,0,1,,,,,0,,,62,0
204576,note_off,,,,,672,0,2,,,,,1,,,62,0
204576,note_on,,,,,0,0,2,,,,,1,,,73,96
204576,note_off,,,,,672,0,3,,,,,2,,,50,0
204576,note_on,,,,,0,0,3,,,,,2,,,61,90
204576,note_on,,,,,0,0,1,,,,,0,,,73,106
204672,note_on,,,,,0,0,2,,,,,1,,,74,96
204672,note_off,,,,,96,0,2,,,,,1,,,73,0
204672,note_on,,,,,0,0,1,,,,,0,,,74,106
204672,note_off,,,,,96,0,3,,,,,2,,,61,0
204672,note_off,,,,,96,0,1,,,,,0,,,73,0
204672,note_on,,,,,0,0,3,,,,,2,,,62,90
204864,note_off,,,,,192,0,3,,,,,2,,,62,0
204864,note_off,,,,,192,0,1,,,,,0,,,74,0
204864,note_off,,,,,192,0,2,,,,,1,,,74,0
205056,note_on,,,,,192,0,1,,,,,0,,,62,106
205056,note_on,,,,,192,0,2,,,,,1,,,62,96
205056,note_on,,,,,192,0,3,,,,,2,,,50,90
205440,note_off,,,,,1536,0,4,,,,,3,,,38,51
205728,note_on,,,,,0,0,1,,,,,0,,,70,106
205728,note_off,,,,,672,0,1,,,,,0,,,62,0
205824,note_off,,,,,768,0,2,,,,,1,,,62,0
205824,note_off,,,,,768,0,3,,,,,2,,,50,0
205824,note_off,,,,,96,0,1,,,,,0,,,70,0
205824,note_on,,,,,0,0,1,,,,,0,,,71,106
206016,note_off,,,,,192,0,1,,,,,0,,,71,0
206208,note_on,,,,,384,0,3,,,,,2,,,65,90
206208,note_on,,,,,384,0,2,,,,,1,,,68,96
206208,note_on,,,,,192,0,1,,,,,0,,,74,106
206208,note_on,,,,,768,0,4,,,,,3,,,58,81
206400,note_off,,,,,192,0,1,,,,,0,,,74,0
206592,note_on,,,,,192,0,1,,,,,0,,,75,106
206784,note_off,,,,,192,0,1,,,,,0,,,75,0
206976,note_on,,,,,192,0,1,,,,,0,,,76,106
207168,note_off,,,,,192,0,1,,,,,0,,,76,0
207360,note_off,,,,,1152,0,3,,,,,2,,,65,0
207360,note_on,,,,,192,0,1,,,,,0,,,77,106
207360,note_on,,,,,0,0,3,,,,,2,,,62,90
207552,note_off,,,,,192,0,1,,,,,0,,,77,0
207744,note_off,,,,,1536,0,4,,,,,3,,,58,51
207744,note_off,,,,,1536,0,2,,,,,1,,,68,61
207744,note_off,,,,,384,0,3,,,,,2,,,62,0
208032,note_on,,,,,480,0,1,,,,,0,,,73,106
208128,note_off,,,,,96,0,1,,,,,0,,,73,0
208128,note_on,,,,,0,0,1,,,,,0,,,74,106
208320,note_off,,,,,192,0,1,,,,,0,,,74,0
208512,note_on,,,,,768,0,4,,,,,3,,,46,81
208512,note_on,,,,,768,0,2,,,,,1,,,68,96
208512,note_on,,,,,192,0,1,,,,,0,,,77,106
208512,note_on,,,,,768,0,3,,,,,2,,,62,90
208704,note_off,,,,,192,0,1,,,,,0,,,77,0
208896,note_on,,,,,192,0,1,,,,,0,,,78,106
209088,note_off,,,,,192,0,1,,,,,0,,,78,0
209280,note_on,,,,,0,0,2,,,,,1,,,67,96
209280,note_off,,,,,768,0,2,,,,,1,,,68,0
209280,note_on,,,,,192,0,1,,,,,0,,,79,106
209472,note_off,,,,,192,0,1,,,,,0,,,79,0
209664,note_off,,,,,384,0,2,,,,,1,,,67,0
209664,note_on,,,,,192,0,1,,,,,0,,,80,106
209664,note_on,,,,,0,0,2,,,,,1,,,65,96
209856,note_off,,,,,192,0,1,,,,,0,,,80,0
210048,note_off,,,,,1536,0,4,,,,,3,,,46,51
210048,note_off,,,,,384,0,2,,,,,1,,,65,0
210048,note_off,,,,,1536,0,3,,,,,2,,,62,57
210720,note_on,,,,,864,0,1,,,,,0,,,81,106
210816,note_off,,,,,96,0,1,,,,,0,,,81,0
210816,note_on,,,,,0,0,1,,,,,0,,,82,106
211008,note_off,,,,,192,0,1,,,,,0,,,82,0
212640,note_on,,,,,2592,0,2,,,,,1,,,74,96
212640,note_on,,,,,2592,0,3,,,,,2,,,74,90
212640,note_on,,,,,1632,0,1,,,,,0,,,74,106
212736,note_on,,,,,0,0,3,,,,,2,,,75,90
212736,note_on,,,,,0,0,1,,,,,0,,,75,106
212736,note_off,,,,,96,0,1,,,,,0,,,74,0
212736,note_on,,,,,0,0,2,,,,,1,,,75,96
212736,note_off,,,,,96,0,2,,,,,1,,,74,0
212736,note_off,,,,,96,0,3,,,,,2,,,74,0
212928,note_off,,,,,192,0,1,,,,,0,,,75,0
212928,note_off,,,,,192,0,2,,,,,1,,,75,0
212928,note_off,,,,,192,0,3,,,,,2,,,75,0
213120,note_on,,,,,192,0,3,,,,,2,,,58,90
213120,note_on,,,,,192,0,1,,,,,0,,,63,106
213120,note_on,,,,,3072,0,4,,,,,3,,,55,81
213120,note_on,,,,,192,0,2,,,,,1,,,63,96
214272,note_off,,,,,1152,0,1,,,,,0,,,63,0
214272,note_off,,,,,1152,0,3,,,,,2,,,58,0
214272,note_off,,,,,1152,0,4,,,,,3,,,55,0
214272,note_on,,,,,0,0,3,,,,,2,,,60,90
214272,note_on,,,,,0,0,1,,,,,0,,,65,106
214272,note_on,,,,,0,0,4,,,,,3,,,56,81
214656,note_off,,,,,384,0,3,,,,,2,,,60,0
214656,note_off,,,,,384,0,1,,,,,0,,,65,0
214656,note_off,,,,,1536,0,2,,,,,1,,,63,61
214656,note_off,,,,,384,0,4,,,,,3,,,56,0
214944,note_on,,,,,288,0,1,,,,,0,,,74,106
214944,note_on,,,,,288,0,3,,,,,2,,,74,90
214944,note_on,,,,,288,0,2,,,,,1,,,74,96
215040,note_on,,,,,0,0,3,,,,,2,,,75,90
215040,note_off,,,,,96,0,1,,,,,0,,,74,0
215040,note_on,,,,,0,0,1,,,,,0,,,75,106
215040,note_off,,,,,96,0,2,,,,,1,,,74,0
215040,note_off,,,,,96,0,3,,,,,2,,,74,0
215040,note_on,,,,,0,0,2,,,,,1,,,75,96
215232,note_off,,,,,192,0,2,,,,,1,,,75,0
215232,note_off,,,,,192,0,3,,,,,2,,,75,0
215232,note_off,,,,,192,0,1,,,,,0,,,75,0
215424,note_on,,,,,192,0,1,,,,,0,,,65,106
215424,note_on,,,,,192,0,3,,,,,2,,,60,90
215424,note_on,,,,,192,0,2,,,,,1,,,63,96
215424,note_on,,,,,768,0,4,,,,,3,,,57,81
216576,note_off,,,,,1152,0,3,,,,,2,,,60,0
216576,note_off,,,,,1152,0,4,,,,,3,,,57,0
216576,note_off,,,,,1152,0,1,,,,,0,,,65,0
216576,note_on,,,,,0,0,1,,,,,0,,,67,106
216576,note_on,,,,,0,0,4,,,,,3,,,58,81
216576,note_on,,,,,0,0,3,,,,,2,,,58,90
216960,note_off,,,,,384,0,3,,,,,2,,,58,0
216960,note_off,,,,,384,0,1,,,,,0,,,67,0
216960,note_off,,,,,384,0,4,,,,,3,,,58,0
216960,note_off,,,,,1536,0,2,,,,,1,,,63,61
217248,note_on,,,,,288,0,1,,,,,0,,,74,106
217248,note_on,,,,,288,0,3,,,,,2,,,74,90
217248,note_on,,,,,288,0,2,,,,,1,,,74,96
217344,note_on,,,,,0,0,1,,,,,0,,,75,106
217344,note_on,,,,,0,0,3,,,,,2,,,75,90
217344,note_off,,,,,96,0,3,,,,,2,,,74,0
217344,note_on,,,,,0,0,2,,,,,1,,,75,96
217344,note_off,,,,,96,0,2,,,,,1,,,74,0
217344,note_off,,,,,96,0,1,,,,,0,,,74,0
217536,note_off,,,,,192,0,3,,,,,2,,,75,0
217536,note_off,,,,,192,0,2,,,,,1,,,75,0
217536,note_off,,,,,192,0,1,,,,,0,,,75,0
217728,note_on,,,,,768,0,4,,,,,3,,,51,81
217728,note_on,,,,,192,0,1,,,,,0,,,63,106
217728,note_on,,,,,192,0,3,,,,,2,,,63,90
217728,note_on,,,,,192,0,2,,,,,1,,,63,96
217920,note_off,,,,,192,0,3,,,,,2,,,63,0
217920,note_off,,,,,192,0,2,,,,,1,,,63,0
217920,note_off,,,,,192,0,4,,,,,3,,,51,0
217920,note_off,,,,,192,0,1,,,,,0,,,63,0
218112,note_on,,,,,192,0,4,,,,,3,,,50,81
218112,note_on,,,,,192,0,1,,,,,0,,,65,106
218112,note_on,,,,,192,0,3,,,,,2,,,63,90
218112,note_on,,,,,192,0,2,,,,,1,,,63,96
218304,note_off,,,,,192,0,3,,,,,2,,,63,0
218304,note_off,,,,,192,0,4,,,,,3,,,50,0
218304,note_off,,,,,192,0,1,,,,,0,,,65,0
218304,note_off,,,,,192,0,2,,,,,1,,,63,0
218496,note_on,,,,,192,0,4,,,,,3,,,49,81
218496,note_on,,,,,192,0,1,,,,,0,,,67,106
218496,note_on,,,,,192,0,3,,,,,2,,,63,90
218496,note_on,,,,,192,0,2,,,,,1,,,63,96
218688,note_off,,,,,192,0,1,,,,,0,,,67,0
218688,note_off,,,,,192,0,3,,,,,2,,,63,0
218688,note_off,,,,,192,0,4,,,,,3,,,49,0
218688,note_off,,,,,192,0,2,,,,,1,,,63,0
218880,note_on,,,,,192,0,2,,,,,1,,,63,96
218880,note_on,,,,,192,0,4,,,,,3,,,48,81
218880,note_on,,,,,192,0,3,,,,,2,,,63,90
218880,note_on,,,,,192,0,1,,,,,0,,,68,106
219072,note_off,,,,,192,0,4,,,,,3,,,48,0
219072,note_off,,,,,192,0,2,,,,,1,,,63,0
219072,note_off,,,,,192,0,3,,,,,2,,,63,0
219072,note_off,,,,,192,0,1,,,,,0,,,68,0
219264,note_on,,,,,192,0,4,,,,,3,,,46,81
219264,note_on,,,,,192,0,2,,,,,1,,,67,96
219264,note_on,,,,,192,0,3,,,,,2,,,63,90
219264,note_on,,,,,192,0,1,,,,,0,,,70,106
219456,note_off,,,,,192,0,3,,,,,2,,,63,0
219456,note_off,,,,,192,0,2,,,,,1,,,67,0
219456,note_off,,,,,192,0,1,,,,,0,,,70,0
219456,note_off,,,,,192,0,4,,,,,3,,,46,0
219648,note_on,,,,,192,0,4,,,,,3,,,44,81
219648,note_on,,,,,192,0,2,,,,,1,,,68,96
219648,note_on,,,,,192,0,3,,,,,2,,,60,90
219648,note_on,,,,,192,0,1,,,,,0,,,72,106
219840,note_off,,,,,192,0,1,,,,,0,,,72,0
219840,note_off,,,,,192,0,2,,,,,1,,,68,0
219840,note_off,,,,,192,0,4,,,,,3,,,44,0
219840,note_off,,,,,192,0,3,,,,,2,,,60,0
220032,note_on,,,,,192,0,3,,,,,2,,,58,90
220032,note_on,,,,,0,0,3,,,,,2,,,65,90
220032,note_on,,,,,192,0,4,,,,,3,,,46,81
220032,note_on,,,,,192,0,2,,,,,1,,,68,96
220032,note_on,,,,,192,0,1,,,,,0,,,70,106
220032,note_on,,,,,0,0,2,,,,,1,,,58,96
220224,note_off,,,,,0,0,3,,,,,2,,,65,0
220224,note_off,,,,,192,0,4,,,,,3,,,46,0
220224,note_off,,,,,192,0,3,,,,,2,,,58,0
220224,note_off,,,,,192,0,1,,,,,0,,,70,0
220224,note_off,,,,,192,0,2,,,,,1,,,68,0
220224,note_off,,,,,0,0,2,,,,,1,,,58,0
220416,note_on,,,,,192,0,3,,,,,2,,,58,90
220416,note_on,,,,,192,0,2,,,,,1,,,68,96
220416,note_on,,,,,192,0,4,,,,,3,,,58,81
220416,note_on,,,,,0,0,2,,,,,1,,,58,96
220416,note_on,,,,,0,0,3,,,,,2,,,65,90
220416,note_on,,,,,192,0,1,,,,,0,,,80,106
220608,note_off,,,,,0,0,2,,,,,1,,,58,0
220608,note_off,,,,,192,0,1,,,,,0,,,80,0
220608,note_off,,,,,192,0,2,,,,,1,,,68,0
220608,note_off,,,,,0,0,3,,,,,2,,,65,0
220608,note_off,,,,,192,0,3,,,,,2,,,58,0
220608,note_off,,,,,192,0,4,,,,,3,,,58,0
220800,note_on,,,,,192,0,2,,,,,1,,,58,96
220800,note_on,,,,,0,0,2,,,,,1,,,68,96
220800,note_on,,,,,0,0,3,,,,,2,,,65,90
220800,note_on,,,,,192,0,3,,,,,2,,,58,90
220800,note_on,,,,,192,0,4,,,,,3,,,58,81
220800,note_on,,,,,192,0,1,,,,,0,,,74,106
220992,note_off,,,,,192,0,4,,,,,3,,,58,0
220992,note_off,,,,,0,0,2,,,,,1,,,68,0
220992,note_off,,,,,192,0,2,,,,,1,,,58,0
220992,note_off,,,,,192,0,1,,,,,0,,,74,0
220992,note_off,,,,,192,0,3,,,,,2,,,58,0
220992,note_off,,,,,0,0,3,,,,,2,,,65,0
221184,note_on,,,,,192,0,2,,,,,1,,,58,96
221184,note_on,,,,,192,0,4,,,,,3,,,51,81
221184,note_on,,,,,0,0,2,,,,,1,,,67,96
221184,note_on,,,,,192,0,3,,,,,2,,,63,90
221184,note_on,,,,,192,0,1,,,,,0,,,75,106
221184,note_on,,,,,0,0,3,,,,,2,,,55,90
221952,note_off,,,,,768,0,3,,,,,2,,,63,0
221952,note_off,,,,,0,0,3,,,,,2,,,55,0
221952,end_of_track,,,,,0,1,3,,,,,,,,,
221952,end_of_track,,,,,0,1,2,,,,,,,,,
221952,note_off,,,,,768,0,4,,,,,3,,,51,0
221952,end_of_track,,,,,0,1,4,,,,,,,,,
221952,note_off,,,,,768,0,1,,,,,0,,,75,0
221952,end_of_track,,,,,0,1,1,,,,,,,,,
221952,note_off,,,,,768,0,2,,,,,1,,,58,0
221952,note_off,,,,,0,0,2,,,,,1,,,67,0
