tick,type,numerator,denominator,clocks_per_click,notated_32nd_notes_per_beat,time,meta,track,data,tempo,control,value,channel,program,key,note,velocity
0,time_signature,2,4,96,8,0,1,0,,,,,,,,,
0,control_change,,,,,0,0,2,,,10,52,1,,,,
0,control_change,,,,,0,0,2,,,7,127,1,,,,
0,program_change,,,,,0,0,2,,,,,1,40,,,
0,key_signature,,,,,0,1,2,,,,,,,C,,
0,key_signature,,,,,0,1,6,,,,,,,C,,
0,track_name,,,,,0,1,3,,,,,,,,,
0,control_change,,,,,0,0,3,,,0,0,2,,,,
0,control_change,,,,,0,0,3,,,10,81,2,,,,
0,control_change,,,,,0,0,3,,,7,127,2,,,,
0,program_change,,,,,0,0,3,,,,,2,41,,,
0,key_signature,,,,,0,1,3,,,,,,,C,,
0,track_name,,,,,0,1,4,,,,,,,,,
0,control_change,,,,,0,0,4,,,0,0,3,,,,
0,control_change,,,,,0,0,4,,,10,94,3,,,,
0,control_change,,,,,0,0,4,,,7,127,3,,,,
0,program_change,,,,,0,0,4,,,,,3,42,,,
0,key_signature,,,,,0,1,4,,,,,,,C,,
0,key_signature,,,,,0,1,5,,,,,,,C,,
0,end_of_track,,,,,0,1,5,,,,,,,,,
0,control_change,,,,,0,0,2,,,0,0,1,,,,
0,track_name,,,,,0,1,2,,,,,,,,,
0,end_of_track,,,,,0,1,6,,,,,,,,,
0,control_change,,,,,0,0,1,,,10,42,0,,,,
0,key_signature,,,,,0,1,1,,,,,,,C,,
0,set_tempo,,,,,0,1,0,,384615,,,,,,,
0,sequencer_specific,,,,,0,1,0,"(0, 0, 65)",,,,,,,,
0,program_change,,,,,0,0,1,,,,,0,40,,,
0,control_change,,,,,0,0,1,,,7,127,0,,,,
0,control_change,,,,,0,0,1,,,0,0,0,,,,
0,track_name,,,,,0,1,1,,,,,,,,,
0,end_of_track,,,,,0,1,0,,,,,,,,,
576,note_on,,,,,576,0,1,,,,,0,,,80,103
672,note_on,,,,,0,0,1,,,,,0,,,81,103
672,note_off,,,,,96,0,1,,,,,0,,,80,0
768,note_on,,,,,768,0,2,,,,,1,,,68,96
768,note_on,,,,,0,0,1,,,,,0,,,83,103
768,note_on,,,,,768,0,3,,,,,2,,,64,87
768,note_off,,,,,96,0,1,,,,,0,,,81,0
768,note_on,,,,,768,0,4,,,,,3,,,52,78
864,note_off,,,,,96,0,1,,,,,0,,,83,0
864,note_on,,,,,0,0,1,,,,,0,,,81,103
960,note_on,,,,,0,0,2,,,,,1,,,69,96
960,note_off,,,,,192,0,2,,,,,1,,,68,0
960,note_on,,,,,0,0,3,,,,,2,,,66,87
960,note_off,,,,,192,0,3,,,,,2,,,64,0
960,note_on,,,,,0,0,1,,,,,0,,,80,103
960,note_off,,,,,96,0,1,,,,,0,,,81,0
1056,note_on,,,,,0,0,1,,,,,0,,,78,103
1056,note_off,,,,,96,0,1,,,,,0,,,80,0
1152,note_off,,,,,192,0,2,,,,,1,,,69,0
1152,note_off,,,,,384,0,4,,,,,3,,,52,0
1152,note_off,,,,,192,0,3,,,,,2,,,66,0
1152,note_on,,,,,0,0,2,,,,,1,,,71,96
1152,note_on,,,,,0,0,3,,,,,2,,,68,87
1152,note_off,,,,,96,0,1,,,,,0,,,78,0
1152,note_on,,,,,0,0,1,,,,,0,,,76,103
1248,note_off,,,,,96,0,1,,,,,0,,,76,0
1248,note_on,,,,,0,0,1,,,,,0,,,78,103
1344,note_off,,,,,96,0,1,,,,,0,,,78,0
1344,note_on,,,,,0,0,1,,,,,0,,,76,103
1344,note_off,,,,,192,0,2,,,,,1,,,71,0
1344,note_off,,,,,192,0,3,,,,,2,,,68,0
1440,note_off,,,,,96,0,1,,,,,0,,,76,0
1440,note_on,,,,,0,0,1,,,,,0,,,75,103
1536,note_on,,,,,384,0,4,,,,,3,,,45,78
1536,note_on,,,,,192,0,2,,,,,1,,,61,96
1536,note_on,,,,,192,0,3,,,,,2,,,61,87
1536,note_on,,,,,0,0,1,,,,,0,,,73,103
1536,note_off,,,,,96,0,1,,,,,0,,,75,0
1632,note_off,,,,,96,0,1,,,,,0,,,73,0
1632,note_off,,,,,96,0,4,,,,,3,,,45,0
1632,note_off,,,,,96,0,3,,,,,2,,,61,0
1632,note_on,,,,,0,0,2,,,,,1,,,63,96
1632,note_off,,,,,96,0,2,,,,,1,,,61,0
1728,note_on,,,,,96,0,3,,,,,2,,,61,87
1728,note_on,,,,,0,0,2,,,,,1,,,64,96
1728,note_off,,,,,96,0,2,,,,,1,,,63,0
1728,note_on,,,,,96,0,1,,,,,0,,,78,103
1728,note_on,,,,,96,0,4,,,,,3,,,57,78
1824,note_on,,,,,0,0,2,,,,,1,,,65,96
1824,note_off,,,,,96,0,2,,,,,1,,,64,0
1920,note_on,,,,,0,0,2,,,,,1,,,66,96
1920,note_off,,,,,96,0,2,,,,,1,,,65,0
2016,note_off,,,,,288,0,3,,,,,2,,,61,0
2016,note_on,,,,,0,0,3,,,,,2,,,64,87
2112,note_on,,,,,0,0,3,,,,,2,,,63,87
2112,note_off,,,,,384,0,4,,,,,3,,,57,0
2112,note_on,,,,,0,0,4,,,,,3,,,58,78
2112,note_off,,,,,384,0,1,,,,,0,,,78,0
2112,note_off,,,,,96,0,3,,,,,2,,,64,0
2112,note_on,,,,,0,0,1,,,,,0,,,76,103
2208,note_on,,,,,0,0,3,,,,,2,,,61,87
2208,note_off,,,,,96,0,3,,,,,2,,,63,0
2304,note_on,,,,,0,0,1,,,,,0,,,75,103
2304,note_off,,,,,192,0,4,,,,,3,,,58,0
2304,note_on,,,,,0,0,3,,,,,2,,,59,87
2304,note_off,,,,,96,0,3,,,,,2,,,61,0
2304,note_on,,,,,0,0,4,,,,,3,,,59,78
2304,note_off,,,,,192,0,1,,,,,0,,,76,0
2400,note_on,,,,,0,0,1,,,,,0,,,76,103
2400,note_off,,,,,96,0,1,,,,,0,,,75,0
2496,note_off,,,,,96,0,1,,,,,0,,,76,0
2496,note_on,,,,,0,0,1,,,,,0,,,78,103
2496,note_on,,,,,0,0,3,,,,,2,,,66,87
2496,note_off,,,,,576,0,2,,,,,1,,,66,0
2496,note_on,,,,,0,0,2,,,,,1,,,69,96
2496,note_off,,,,,192,0,3,,,,,2,,,59,0
2592,note_off,,,,,96,0,1,,,,,0,,,78,0
2592,note_on,,,,,0,0,1,,,,,0,,,75,103
2688,note_off,,,,,192,0,3,,,,,2,,,66,0
2688,note_off,,,,,192,0,2,,,,,1,,,69,0
2688,note_off,,,,,96,0,1,,,,,0,,,75,0
2688,note_on,,,,,0,0,1,,,,,0,,,76,103
2688,note_on,,,,,0,0,2,,,,,1,,,68,96
2688,note_on,,,,,0,0,3,,,,,2,,,64,87
2784,note_on,,,,,0,0,1,,,,,0,,,78,103
2784,note_off,,,,,96,0,1,,,,,0,,,76,0
2880,note_on,,,,,0,0,3,,,,,2,,,68,87
2880,note_off,,,,,192,0,3,,,,,2,,,64,0
2880,note_on,,,,,0,0,1,,,,,0,,,80,103
2880,note_off,,,,,192,0,2,,,,,1,,,68,0
2880,note_on,,,,,0,0,2,,,,,1,,,64,96
2880,note_off,,,,,96,0,1,,,,,0,,,78,0
2976,note_off,,,,,96,0,1,,,,,0,,,80,0
2976,note_on,,,,,0,0,1,,,,,0,,,76,103
3072,note_off,,,,,192,0,3,,,,,2,,,68,0
3072,note_on,,,,,0,0,2,,,,,1,,,63,96
3072,note_off,,,,,192,0,2,,,,,1,,,64,0
3072,note_on,,,,,0,0,1,,,,,0,,,83,103
3072,note_off,,,,,96,0,1,,,,,0,,,76,0
3072,note_on,,,,,0,0,3,,,,,2,,,66,87
3168,note_on,,,,,0,0,1,,,,,0,,,82,103
3168,note_off,,,,,96,0,1,,,,,0,,,83,0
3168,note_off,,,,,96,0,3,,,,,2,,,66,0
3168,note_off,,,,,96,0,2,,,,,1,,,63,0
3264,note_on,,,,,96,0,2,,,,,1,,,64,96
3264,note_on,,,,,96,0,3,,,,,2,,,61,87
3264,note_on,,,,,0,0,4,,,,,3,,,54,78
3264,note_off,,,,,960,0,4,,,,,3,,,59,0
3264,note_off,,,,,96,0,1,,,,,0,,,82,0
3264,note_on,,,,,0,0,1,,,,,0,,,85,103
3360,note_off,,,,,96,0,3,,,,,2,,,61,0
3360,note_off,,,,,96,0,4,,,,,3,,,54,0
3360,note_off,,,,,96,0,2,,,,,1,,,64,0
3360,note_off,,,,,96,0,1,,,,,0,,,85,0
3360,note_on,,,,,0,0,1,,,,,0,,,82,103
3456,note_on,,,,,96,0,3,,,,,2,,,59,87
3456,note_off,,,,,96,0,1,,,,,0,,,82,0
3456,note_on,,,,,0,0,1,,,,,0,,,83,103
3456,note_on,,,,,96,0,2,,,,,1,,,63,96
3456,note_on,,,,,96,0,4,,,,,3,,,47,78
3552,note_off,,,,,96,0,1,,,,,0,,,83,0
3552,note_off,,,,,96,0,3,,,,,2,,,59,0
3552,note_off,,,,,96,0,2,,,,,1,,,63,0
3552,note_off,,,,,96,0,4,,,,,3,,,47,0
3648,note_on,,,,,96,0,1,,,,,0,,,80,103
3744,note_off,,,,,96,0,1,,,,,0,,,80,0
3744,note_on,,,,,0,0,1,,,,,0,,,81,103
3840,note_off,,,,,96,0,1,,,,,0,,,81,0
3840,note_on,,,,,0,0,1,,,,,0,,,83,103
3840,note_on,,,,,288,0,3,,,,,2,,,56,87
3840,note_on,,,,,288,0,4,,,,,3,,,52,78
3936,note_on,,,,,0,0,1,,,,,0,,,81,103
3936,note_off,,,,,96,0,1,,,,,0,,,83,0
4032,note_on,,,,,0,0,3,,,,,2,,,57,87
4032,note_on,,,,,0,0,4,,,,,3,,,54,78
4032,note_off,,,,,192,0,4,,,,,3,,,52,0
4032,note_off,,,,,192,0,3,,,,,2,,,56,0
4032,note_off,,,,,96,0,1,,,,,0,,,81,0
4032,note_on,,,,,0,0,1,,,,,0,,,80,103
4128,note_off,,,,,96,0,1,,,,,0,,,80,0
4128,note_on,,,,,0,0,1,,,,,0,,,78,103
4224,note_off,,,,,96,0,1,,,,,0,,,78,0
4224,note_on,,,,,0,0,3,,,,,2,,,59,87
4224,note_off,,,,,192,0,3,,,,,2,,,57,0
4224,note_on,,,,,0,0,4,,,,,3,,,56,78
4224,note_off,,,,,192,0,4,,,,,3,,,54,0
4224,note_on,,,,,0,0,1,,,,,0,,,76,103
4320,note_off,,,,,96,0,1,,,,,0,,,76,0
4320,note_on,,,,,0,0,1,,,,,0,,,78,103
4416,note_off,,,,,192,0,3,,,,,2,,,59,0
4416,note_on,,,,,0,0,3,,,,,2,,,56,87
4416,note_off,,,,,192,0,4,,,,,3,,,56,0
4416,note_on,,,,,0,0,4,,,,,3,,,52,78
4416,note_off,,,,,96,0,1,,,,,0,,,78,0
4416,note_on,,,,,0,0,1,,,,,0,,,76,103
4512,note_off,,,,,96,0,1,,,,,0,,,76,0
4512,note_on,,,,,0,0,1,,,,,0,,,75,103
4608,note_off,,,,,192,0,3,,,,,2,,,56,0
4608,note_on,,,,,0,0,1,,,,,0,,,73,103
4608,note_off,,,,,96,0,1,,,,,0,,,75,0
4608,note_off,,,,,192,0,4,,,,,3,,,52,0
4608,note_on,,,,,0,0,3,,,,,2,,,58,87
4608,note_on,,,,,0,0,4,,,,,3,,,54,78
4704,note_off,,,,,96,0,1,,,,,0,,,73,0
4800,note_off,,,,,192,0,3,,,,,2,,,58,0
4800,note_on,,,,,0,0,3,,,,,2,,,59,87
4800,note_off,,,,,192,0,4,,,,,3,,,54,0
4800,note_on,,,,,1248,0,2,,,,,1,,,68,96
4800,note_on,,,,,96,0,1,,,,,0,,,80,103
4800,note_on,,,,,0,0,4,,,,,3,,,56,78
4992,note_on,,,,,0,0,3,,,,,2,,,61,87
4992,note_on,,,,,0,0,4,,,,,3,,,58,78
4992,note_off,,,,,192,0,3,,,,,2,,,59,0
4992,note_off,,,,,192,0,4,,,,,3,,,56,0
5184,note_off,,,,,192,0,4,,,,,3,,,58,0
5184,note_on,,,,,0,0,4,,,,,3,,,54,78
5184,note_on,,,,,0,0,3,,,,,2,,,58,87
5184,note_off,,,,,192,0,3,,,,,2,,,61,0
5184,note_on,,,,,0,0,2,,,,,1,,,66,96
5184,note_on,,,,,0,0,1,,,,,0,,,78,103
5184,note_off,,,,,384,0,1,,,,,0,,,80,0
5184,note_off,,,,,384,0,2,,,,,1,,,68,0
5280,note_on,,,,,0,0,1,,,,,0,,,76,103
5280,note_off,,,,,96,0,1,,,,,0,,,78,0
5280,note_on,,,,,0,0,2,,,,,1,,,64,96
5280,note_off,,,,,96,0,2,,,,,1,,,66,0
5376,note_off,,,,,96,0,2,,,,,1,,,64,0
5376,note_on,,,,,0,0,3,,,,,2,,,59,87
5376,note_off,,,,,192,0,3,,,,,2,,,58,0
5376,note_on,,,,,0,0,2,,,,,1,,,63,96
5376,note_on,,,,,0,0,4,,,,,3,,,59,78
5376,note_off,,,,,192,0,4,,,,,3,,,54,0
5376,note_on,,,,,0,0,1,,,,,0,,,75,103
5376,note_off,,,,,96,0,1,,,,,0,,,76,0
5472,note_off,,,,,96,0,1,,,,,0,,,75,0
5472,note_on,,,,,0,0,1,,,,,0,,,76,103
5568,note_on,,,,,0,0,2,,,,,1,,,71,96
5568,note_off,,,,,192,0,2,,,,,1,,,63,0
5568,note_on,,,,,0,0,1,,,,,0,,,78,103
5568,note_off,,,,,96,0,1,,,,,0,,,76,0
5568,note_on,,,,,0,0,3,,,,,2,,,66,87
5568,note_off,,,,,192,0,3,,,,,2,,,59,0
5664,note_off,,,,,96,0,1,,,,,0,,,78,0
5664,note_on,,,,,0,0,1,,,,,0,,,75,103
5760,note_on,,,,,0,0,4,,,,,3,,,54,78
5760,note_off,,,,,384,0,4,,,,,3,,,59,0
5760,note_off,,,,,96,0,1,,,,,0,,,75,0
5760,note_on,,,,,0,0,3,,,,,2,,,64,87
5760,note_on,,,,,0,0,2,,,,,1,,,70,96
5760,note_off,,,,,192,0,2,,,,,1,,,71,0
5760,note_on,,,,,0,0,1,,,,,0,,,73,103
5760,note_off,,,,,192,0,3,,,,,2,,,66,0
5856,note_off,,,,,96,0,1,,,,,0,,,73,0
5856,note_on,,,,,0,0,1,,,,,0,,,75,103
5952,note_off,,,,,192,0,2,,,,,1,,,70,0
5952,note_on,,,,,0,0,2,,,,,1,,,64,96
5952,note_on,,,,,0,0,3,,,,,2,,,61,87
5952,note_on,,,,,0,0,1,,,,,0,,,76,103
5952,note_off,,,,,96,0,1,,,,,0,,,75,0
5952,note_off,,,,,192,0,3,,,,,2,,,64,0
6048,note_on,,,,,0,0,1,,,,,0,,,73,103
6048,note_off,,,,,96,0,1,,,,,0,,,76,0
6144,note_off,,,,,96,0,1,,,,,0,,,73,0
6144,note_on,,,,,0,0,1,,,,,0,,,71,103
6144,note_on,,,,,0,0,3,,,,,2,,,59,87
6144,note_on,,,,,0,0,4,,,,,3,,,47,78
6144,note_off,,,,,192,0,3,,,,,2,,,61,0
6144,note_on,,,,,0,0,2,,,,,1,,,63,96
6144,note_off,,,,,384,0,4,,,,,3,,,54,0
6144,note_off,,,,,192,0,2,,,,,1,,,64,0
6240,note_off,,,,,96,0,1,,,,,0,,,71,0
6240,note_off,,,,,96,0,2,,,,,1,,,63,0
6240,note_off,,,,,96,0,4,,,,,3,,,47,0
6240,note_off,,,,,96,0,3,,,,,2,,,59,0
6336,note_on,,,,,96,0,4,,,,,3,,,47,78
6336,note_on,,,,,96,0,3,,,,,2,,,63,87
6336,note_on,,,,,96,0,1,,,,,0,,,83,103
6336,note_on,,,,,96,0,2,,,,,1,,,66,96
6432,note_off,,,,,96,0,4,,,,,3,,,47,0
6432,note_off,,,,,96,0,3,,,,,2,,,63,0
6432,note_off,,,,,96,0,1,,,,,0,,,83,0
6432,note_off,,,,,96,0,2,,,,,1,,,66,0
6528,note_on,,,,,96,0,4,,,,,3,,,47,78
6528,note_on,,,,,96,0,3,,,,,2,,,59,87
6528,note_on,,,,,96,0,2,,,,,1,,,63,96
6624,note_off,,,,,96,0,3,,,,,2,,,59,0
6624,note_off,,,,,96,0,4,,,,,3,,,47,0
6624,note_off,,,,,96,0,2,,,,,1,,,63,0
6720,note_on,,,,,288,0,1,,,,,0,,,80,103
6816,note_off,,,,,96,0,1,,,,,0,,,80,0
6816,note_on,,,,,0,0,1,,,,,0,,,81,103
6912,note_on,,,,,288,0,2,,,,,1,,,68,96
6912,note_on,,,,,288,0,3,,,,,2,,,64,87
6912,note_on,,,,,288,0,4,,,,,3,,,52,78
6912,note_off,,,,,96,0,1,,,,,0,,,81,0
6912,note_on,,,,,0,0,1,,,,,0,,,83,103
7008,note_off,,,,,96,0,1,,,,,0,,,83,0
7008,note_on,,,,,0,0,1,,,,,0,,,81,103
7104,note_on,,,,,0,0,3,,,,,2,,,66,87
7104,note_off,,,,,96,0,1,,,,,0,,,81,0
7104,note_on,,,,,0,0,2,,,,,1,,,69,96
7104,note_off,,,,,192,0,2,,,,,1,,,68,0
7104,note_on,,,,,0,0,1,,,,,0,,,80,103
7104,note_off,,,,,192,0,3,,,,,2,,,64,0
7200,note_off,,,,,96,0,1,,,,,0,,,80,0
7200,note_on,,,,,0,0,1,,,,,0,,,78,103
7296,note_on,,,,,0,0,1,,,,,0,,,76,103
7296,note_off,,,,,192,0,2,,,,,1,,,69,0
7296,note_on,,,,,0,0,3,,,,,2,,,68,87
7296,note_off,,,,,192,0,3,,,,,2,,,66,0
7296,note_off,,,,,384,0,4,,,,,3,,,52,0
7296,note_off,,,,,96,0,1,,,,,0,,,78,0
7296,note_on,,,,,0,0,2,,,,,1,,,71,96
7392,note_off,,,,,96,0,1,,,,,0,,,76,0
7392,note_on,,,,,0,0,1,,,,,0,,,78,103
7488,note_off,,,,,192,0,3,,,,,2,,,68,0
7488,note_on,,,,,0,0,1,,,,,0,,,76,103
7488,note_off,,,,,192,0,2,,,,,1,,,71,0
7488,note_off,,,,,96,0,1,,,,,0,,,78,0
7584,note_on,,,,,0,0,1,,,,,0,,,75,103
7584,note_off,,,,,96,0,1,,,,,0,,,76,0
7680,note_off,,,,,96,0,1,,,,,0,,,75,0
7680,note_on,,,,,0,0,1,,,,,0,,,73,103
7680,note_on,,,,,192,0,3,,,,,2,,,61,87
7680,note_on,,,,,192,0,2,,,,,1,,,61,96
7680,note_on,,,,,384,0,4,,,,,3,,,45,78
7776,note_off,,,,,96,0,4,,,,,3,,,45,0
7776,note_on,,,,,0,0,2,,,,,1,,,63,96
7776,note_off,,,,,96,0,2,,,,,1,,,61,0
7776,note_off,,,,,96,0,3,,,,,2,,,61,0
7776,note_off,,,,,96,0,1,,,,,0,,,73,0
7872,note_on,,,,,96,0,4,,,,,3,,,57,78
7872,note_on,,,,,0,0,2,,,,,1,,,64,96
7872,note_off,,,,,96,0,2,,,,,1,,,63,0
7872,note_on,,,,,96,0,3,,,,,2,,,61,87
7872,note_on,,,,,96,0,1,,,,,0,,,78,103
7968,note_off,,,,,96,0,2,,,,,1,,,64,0
7968,note_on,,,,,0,0,2,,,,,1,,,65,96
8064,note_off,,,,,96,0,2,,,,,1,,,65,0
8064,note_on,,,,,0,0,2,,,,,1,,,66,96
8160,note_off,,,,,288,0,3,,,,,2,,,61,0
8160,note_on,,,,,0,0,3,,,,,2,,,64,87
8256,note_off,,,,,96,0,3,,,,,2,,,64,0
8256,note_off,,,,,384,0,4,,,,,3,,,57,0
8256,note_on,,,,,0,0,4,,,,,3,,,58,78
8256,note_on,,,,,0,0,1,,,,,0,,,76,103
8256,note_off,,,,,384,0,1,,,,,0,,,78,0
8256,note_on,,,,,0,0,3,,,,,2,,,63,87
8352,note_off,,,,,96,0,3,,,,,2,,,63,0
8352,note_on,,,,,0,0,3,,,,,2,,,61,87
8448,note_off,,,,,192,0,1,,,,,0,,,76,0
8448,note_on,,,,,0,0,4,,,,,3,,,59,78
8448,note_off,,,,,192,0,4,,,,,3,,,58,0
8448,note_on,,,,,0,0,1,,,,,0,,,75,103
8448,note_off,,,,,96,0,3,,,,,2,,,61,0
8448,note_on,,,,,0,0,3,,,,,2,,,59,87
8544,note_on,,,,,0,0,1,,,,,0,,,76,103
8544,note_off,,,,,96,0,1,,,,,0,,,75,0
8640,note_off,,,,,192,0,3,,,,,2,,,59,0
8640,note_on,,,,,0,0,1,,,,,0,,,78,103
8640,note_off,,,,,576,0,2,,,,,1,,,66,0
8640,note_on,,,,,0,0,2,,,,,1,,,69,96
8640,note_on,,,,,0,0,3,,,,,2,,,66,87
8640,note_off,,,,,96,0,1,,,,,0,,,76,0
8736,note_on,,,,,0,0,1,,,,,0,,,75,103
8736,note_off,,,,,96,0,1,,,,,0,,,78,0
8832,note_off,,,,,96,0,1,,,,,0,,,75,0
8832,note_off,,,,,192,0,3,,,,,2,,,66,0
8832,note_on,,,,,0,0,2,,,,,1,,,68,96
8832,note_off,,,,,192,0,2,,,,,1,,,69,0
8832,note_on,,,,,0,0,1,,,,,0,,,76,103
8832,note_on,,,,,0,0,3,,,,,2,,,64,87
8928,note_on,,,,,0,0,1,,,,,0,,,78,103
8928,note_off,,,,,96,0,1,,,,,0,,,76,0
9024,note_on,,,,,0,0,1,,,,,0,,,80,103
9024,note_on,,,,,0,0,2,,,,,1,,,64,96
9024,note_off,,,,,192,0,2,,,,,1,,,68,0
9024,note_off,,,,,96,0,1,,,,,0,,,78,0
9024,note_off,,,,,192,0,3,,,,,2,,,64,0
9024,note_on,,,,,0,0,3,,,,,2,,,68,87
9120,note_off,,,,,96,0,1,,,,,0,,,80,0
9120,note_on,,,,,0,0,1,,,,,0,,,76,103
9216,note_off,,,,,96,0,1,,,,,0,,,76,0
9216,note_off,,,,,192,0,2,,,,,1,,,64,0
9216,note_on,,,,,0,0,2,,,,,1,,,63,96
9216,note_on,,,,,0,0,1,,,,,0,,,83,103
9216,note_off,,,,,192,0,3,,,,,2,,,68,0
9216,note_on,,,,,0,0,3,,,,,2,,,66,87
9312,note_off,,,,,96,0,2,,,,,1,,,63,0
9312,note_off,,,,,96,0,1,,,,,0,,,83,0
9312,note_on,,,,,0,0,1,,,,,0,,,82,103
9312,note_off,,,,,96,0,3,,,,,2,,,66,0
9408,note_on,,,,,96,0,3,,,,,2,,,61,87
9408,note_on,,,,,0,0,4,,,,,3,,,54,78
9408,note_on,,,,,0,0,1,,,,,0,,,85,103
9408,note_off,,,,,96,0,1,,,,,0,,,82,0
9408,note_on,,,,,96,0,2,,,,,1,,,64,96
9408,note_off,,,,,960,0,4,,,,,3,,,59,0
9504,note_off,,,,,96,0,3,,,,,2,,,61,0
9504,note_on,,,,,0,0,1,,,,,0,,,82,103
9504,note_off,,,,,96,0,1,,,,,0,,,85,0
9504,note_off,,,,,96,0,4,,,,,3,,,54,0
9504,note_off,,,,,96,0,2,,,,,1,,,64,0
9600,note_off,,,,,96,0,1,,,,,0,,,82,0
9600,note_on,,,,,0,0,1,,,,,0,,,83,103
9600,note_on,,,,,96,0,2,,,,,1,,,63,96
9600,note_on,,,,,96,0,4,,,,,3,,,47,78
9600,note_on,,,,,96,0,3,,,,,2,,,59,87
9696,note_off,,,,,96,0,4,,,,,3,,,47,0
9696,note_off,,,,,96,0,3,,,,,2,,,59,0
9696,note_off,,,,,96,0,2,,,,,1,,,63,0
9696,note_off,,,,,96,0,1,,,,,0,,,83,0
9792,note_on,,,,,96,0,1,,,,,0,,,80,103
9888,note_on,,,,,0,0,1,,,,,0,,,81,103
9888,note_off,,,,,96,0,1,,,,,0,,,80,0
9984,note_off,,,,,96,0,1,,,,,0,,,81,0
9984,note_on,,,,,288,0,3,,,,,2,,,56,87
9984,note_on,,,,,288,0,4,,,,,3,,,52,78
9984,note_on,,,,,0,0,1,,,,,0,,,83,103
10080,note_off,,,,,96,0,1,,,,,0,,,83,0
10080,note_on,,,,,0,0,1,,,,,0,,,81,103
10176,note_off,,,,,192,0,3,,,,,2,,,56,0
10176,note_on,,,,,0,0,3,,,,,2,,,57,87
10176,note_off,,,,,192,0,4,,,,,3,,,52,0
10176,note_on,,,,,0,0,4,,,,,3,,,54,78
10176,note_on,,,,,0,0,1,,,,,0,,,80,103
10176,note_off,,,,,96,0,1,,,,,0,,,81,0
10272,note_on,,,,,0,0,1,,,,,0,,,78,103
10272,note_off,,,,,96,0,1,,,,,0,,,80,0
10368,note_off,,,,,192,0,4,,,,,3,,,54,0
10368,note_on,,,,,0,0,1,,,,,0,,,76,103
10368,note_on,,,,,0,0,3,,,,,2,,,59,87
10368,note_off,,,,,192,0,3,,,,,2,,,57,0
10368,note_off,,,,,96,0,1,,,,,0,,,78,0
10368,note_on,,,,,0,0,4,,,,,3,,,56,78
10464,note_on,,,,,0,0,1,,,,,0,,,78,103
10464,note_off,,,,,96,0,1,,,,,0,,,76,0
10560,note_on,,,,,0,0,1,,,,,0,,,76,103
10560,note_off,,,,,96,0,1,,,,,0,,,78,0
10560,note_off,,,,,192,0,3,,,,,2,,,59,0
10560,note_on,,,,,0,0,4,,,,,3,,,52,78
10560,note_off,,,,,192,0,4,,,,,3,,,56,0
10560,note_on,,,,,0,0,3,,,,,2,,,56,87
10656,note_off,,,,,96,0,1,,,,,0,,,76,0
10656,note_on,,,,,0,0,1,,,,,0,,,75,103
10752,note_off,,,,,192,0,3,,,,,2,,,56,0
10752,note_on,,,,,0,0,3,,,,,2,,,58,87
10752,note_off,,,,,96,0,1,,,,,0,,,75,0
10752,note_on,,,,,0,0,1,,,,,0,,,73,103
10752,note_on,,,,,0,0,4,,,,,3,,,54,78
10752,note_off,,,,,192,0,4,,,,,3,,,52,0
10848,note_off,,,,,96,0,1,,,,,0,,,73,0
10944,note_on,,,,,96,0,1,,,,,0,,,80,103
10944,note_off,,,,,192,0,3,,,,,2,,,58,0
10944,note_off,,,,,192,0,4,,,,,3,,,54,0
10944,note_on,,,,,0,0,4,,,,,3,,,56,78
10944,note_on,,,,,0,0,3,,,,,2,,,59,87
10944,note_on,,,,,1248,0,2,,,,,1,,,68,96
11136,note_on,,,,,0,0,4,,,,,3,,,58,78
11136,note_off,,,,,192,0,3,,,,,2,,,59,0
11136,note_on,,,,,0,0,3,,,,,2,,,61,87
11136,note_off,,,,,192,0,4,,,,,3,,,56,0
11328,note_on,,,,,0,0,3,,,,,2,,,58,87
11328,note_off,,,,,384,0,1,,,,,0,,,80,0
11328,note_on,,,,,0,0,4,,,,,3,,,54,78
11328,note_on,,,,,0,0,2,,,,,1,,,66,96
11328,note_off,,,,,384,0,2,,,,,1,,,68,0
11328,note_on,,,,,0,0,1,,,,,0,,,78,103
11328,note_off,,,,,192,0,3,,,,,2,,,61,0
11328,note_off,,,,,192,0,4,,,,,3,,,58,0
11424,note_on,,,,,0,0,1,,,,,0,,,76,103
11424,note_off,,,,,96,0,1,,,,,0,,,78,0
11424,note_on,,,,,0,0,2,,,,,1,,,64,96
11424,note_off,,,,,96,0,2,,,,,1,,,66,0
11520,note_on,,,,,0,0,4,,,,,3,,,59,78
11520,note_off,,,,,192,0,4,,,,,3,,,54,0
11520,note_off,,,,,96,0,2,,,,,1,,,64,0
11520,note_on,,,,,0,0,2,,,,,1,,,63,96
11520,note_off,,,,,192,0,3,,,,,2,,,58,0
11520,note_on,,,,,0,0,3,,,,,2,,,59,87
11520,note_on,,,,,0,0,1,,,,,0,,,75,103
11520,note_off,,,,,96,0,1,,,,,0,,,76,0
11616,note_on,,,,,0,0,1,,,,,0,,,76,103
11616,note_off,,,,,96,0,1,,,,,0,,,75,0
11712,note_off,,,,,192,0,3,,,,,2,,,59,0
11712,note_off,,,,,192,0,2,,,,,1,,,63,0
11712,note_on,,,,,0,0,2,,,,,1,,,71,96
11712,note_on,,,,,0,0,1,,,,,0,,,78,103
11712,note_off,,,,,96,0,1,,,,,0,,,76,0
11712,note_on,,,,,0,0,3,,,,,2,,,66,87
11808,note_off,,,,,96,0,1,,,,,0,,,78,0
11808,note_on,,,,,0,0,1,,,,,0,,,75,103
11904,note_on,,,,,0,0,3,,,,,2,,,64,87
11904,note_on,,,,,0,0,4,,,,,3,,,54,78
11904,note_on,,,,,0,0,2,,,,,1,,,70,96
11904,note_off,,,,,192,0,2,,,,,1,,,71,0
11904,note_off,,,,,384,0,4,,,,,3,,,59,0
11904,note_off,,,,,192,0,3,,,,,2,,,66,0
11904,note_on,,,,,0,0,1,,,,,0,,,73,103
11904,note_off,,,,,96,0,1,,,,,0,,,75,0
12000,note_on,,,,,0,0,1,,,,,0,,,75,103
12000,note_off,,,,,96,0,1,,,,,0,,,73,0
12096,note_on,,,,,0,0,2,,,,,1,,,64,96
12096,note_off,,,,,192,0,2,,,,,1,,,70,0
12096,note_off,,,,,96,0,1,,,,,0,,,75,0
12096,note_on,,,,,0,0,1,,,,,0,,,76,103
12096,note_on,,,,,0,0,3,,,,,2,,,61,87
12096,note_off,,,,,192,0,3,,,,,2,,,64,0
12192,note_on,,,,,0,0,1,,,,,0,,,73,103
12192,note_off,,,,,96,0,1,,,,,0,,,76,0
12288,note_on,,,,,0,0,2,,,,,1,,,63,96
12288,note_off,,,,,192,0,2,,,,,1,,,64,0
12288,note_on,,,,,0,0,1,,,,,0,,,71,103
12288,note_off,,,,,96,0,1,,,,,0,,,73,0
12288,note_on,,,,,0,0,3,,,,,2,,,59,87
12288,note_off,,,,,192,0,3,,,,,2,,,61,0
12288,note_off,,,,,384,0,4,,,,,3,,,54,0
12288,note_on,,,,,0,0,4,,,,,3,,,47,78
12384,note_off,,,,,96,0,4,,,,,3,,,47,0
12384,note_off,,,,,96,0,2,,,,,1,,,63,0
12384,note_off,,,,,96,0,3,,,,,2,,,59,0
12384,note_off,,,,,96,0,1,,,,,0,,,71,0
12480,note_on,,,,,96,0,2,,,,,1,,,66,96
12480,note_on,,,,,96,0,3,,,,,2,,,63,87
12480,note_on,,,,,96,0,1,,,,,0,,,83,103
12480,note_on,,,,,96,0,4,,,,,3,,,47,78
12576,note_off,,,,,96,0,4,,,,,3,,,47,0
12576,note_off,,,,,96,0,2,,,,,1,,,66,0
12576,note_off,,,,,96,0,3,,,,,2,,,63,0
12576,note_off,,,,,96,0,1,,,,,0,,,83,0
12672,note_on,,,,,96,0,4,,,,,3,,,47,78
12672,note_on,,,,,96,0,3,,,,,2,,,59,87
12672,note_on,,,,,96,0,2,,,,,1,,,63,96
12768,note_off,,,,,96,0,2,,,,,1,,,63,0
12768,note_off,,,,,96,0,4,,,,,3,,,47,0
12768,note_off,,,,,96,0,3,,,,,2,,,59,0
12864,note_on,,,,,288,0,1,,,,,0,,,81,103
12864,note_on,,,,,96,0,3,,,,,2,,,66,87
12960,note_on,,,,,0,0,1,,,,,0,,,83,103
12960,note_off,,,,,96,0,1,,,,,0,,,81,0
12960,note_off,,,,,96,0,3,,,,,2,,,66,0
12960,note_on,,,,,0,0,3,,,,,2,,,68,87
13056,note_off,,,,,96,0,3,,,,,2,,,68,0
13056,note_on,,,,,0,0,1,,,,,0,,,85,103
13056,note_off,,,,,96,0,1,,,,,0,,,83,0
13056,note_on,,,,,0,0,3,,,,,2,,,69,87
13152,note_on,,,,,0,0,1,,,,,0,,,83,103
13152,note_off,,,,,96,0,1,,,,,0,,,85,0
13152,note_on,,,,,0,0,3,,,,,2,,,68,87
13152,note_off,,,,,96,0,3,,,,,2,,,69,0
13248,note_off,,,,,96,0,1,,,,,0,,,83,0
13248,note_on,,,,,0,0,1,,,,,0,,,81,103
13248,note_off,,,,,96,0,3,,,,,2,,,68,0
13248,note_on,,,,,0,0,3,,,,,2,,,66,87
13344,note_off,,,,,96,0,1,,,,,0,,,81,0
13344,note_on,,,,,0,0,1,,,,,0,,,80,103
13344,note_on,,,,,0,0,3,,,,,2,,,64,87
13344,note_off,,,,,96,0,3,,,,,2,,,66,0
13440,note_on,,,,,0,0,3,,,,,2,,,63,87
13440,note_off,,,,,96,0,3,,,,,2,,,64,0
13440,note_on,,,,,0,0,1,,,,,0,,,78,103
13440,note_off,,,,,96,0,1,,,,,0,,,80,0
13536,note_on,,,,,0,0,1,,,,,0,,,80,103
13536,note_off,,,,,96,0,1,,,,,0,,,78,0
13536,note_off,,,,,96,0,3,,,,,2,,,63,0
13536,note_on,,,,,0,0,3,,,,,2,,,64,87
13632,note_on,,,,,0,0,1,,,,,0,,,78,103
13632,note_on,,,,,864,0,4,,,,,3,,,54,78
13632,note_off,,,,,96,0,3,,,,,2,,,64,0
13632,note_on,,,,,0,0,3,,,,,2,,,63,87
13632,note_on,,,,,864,0,2,,,,,1,,,69,96
13632,note_off,,,,,96,0,1,,,,,0,,,80,0
13728,note_off,,,,,96,0,2,,,,,1,,,69,0
13728,note_off,,,,,96,0,3,,,,,2,,,63,0
13728,note_on,,,,,0,0,3,,,,,2,,,61,87
13728,note_on,,,,,0,0,2,,,,,1,,,71,96
13728,note_on,,,,,0,0,1,,,,,0,,,76,103
13728,note_off,,,,,96,0,1,,,,,0,,,78,0
13728,note_on,,,,,0,0,4,,,,,3,,,56,78
13728,note_off,,,,,96,0,4,,,,,3,,,54,0
13824,note_on,,,,,0,0,4,,,,,3,,,57,78
13824,note_off,,,,,96,0,4,,,,,3,,,56,0
13824,note_off,,,,,96,0,2,,,,,1,,,71,0
13824,note_on,,,,,0,0,1,,,,,0,,,75,103
13824,note_on,,,,,0,0,2,,,,,1,,,73,96
13824,note_off,,,,,96,0,3,,,,,2,,,61,0
13824,note_on,,,,,0,0,3,,,,,2,,,59,87
13824,note_off,,,,,96,0,1,,,,,0,,,76,0
13920,note_on,,,,,0,0,2,,,,,1,,,71,96
13920,note_off,,,,,96,0,1,,,,,0,,,75,0
13920,note_off,,,,,96,0,4,,,,,3,,,57,0
13920,note_on,,,,,0,0,4,,,,,3,,,56,78
13920,note_off,,,,,96,0,2,,,,,1,,,73,0
13920,note_off,,,,,96,0,3,,,,,2,,,59,0
14016,note_off,,,,,96,0,2,,,,,1,,,71,0
14016,note_on,,,,,96,0,1,,,,,0,,,83,103
14016,note_on,,,,,0,0,2,,,,,1,,,69,96
14016,note_off,,,,,96,0,4,,,,,3,,,56,0
14016,note_on,,,,,0,0,4,,,,,3,,,54,78
14016,note_on,,,,,96,0,3,,,,,2,,,59,87
14112,note_off,,,,,96,0,4,,,,,3,,,54,0
14112,note_on,,,,,0,0,4,,,,,3,,,52,78
14112,note_off,,,,,96,0,2,,,,,1,,,69,0
14112,note_on,,,,,0,0,2,,,,,1,,,68,96
14208,note_on,,,,,0,0,4,,,,,3,,,51,78
14208,note_on,,,,,0,0,2,,,,,1,,,66,96
14208,note_off,,,,,96,0,2,,,,,1,,,68,0
14208,note_off,,,,,96,0,4,,,,,3,,,52,0
14304,note_off,,,,,96,0,4,,,,,3,,,51,0
14304,note_on,,,,,0,0,2,,,,,1,,,68,96
14304,note_off,,,,,96,0,2,,,,,1,,,66,0
14304,note_on,,,,,0,0,4,,,,,3,,,52,78
14400,note_off,,,,,96,0,4,,,,,3,,,52,0
14400,note_on,,,,,0,0,4,,,,,3,,,51,78
14400,note_off,,,,,384,0,1,,,,,0,,,83,0
14400,note_on,,,,,0,0,2,,,,,1,,,66,96
14400,note_on,,,,,0,0,3,,,,,2,,,66,87
14400,note_off,,,,,384,0,3,,,,,2,,,59,0
14400,note_on,,,,,0,0,1,,,,,0,,,81,103
14400,note_off,,,,,96,0,2,,,,,1,,,68,0
14496,note_off,,,,,96,0,2,,,,,1,,,66,0
14496,note_on,,,,,0,0,2,,,,,1,,,64,96
14496,note_off,,,,,96,0,4,,,,,3,,,51,0
14496,note_on,,,,,0,0,4,,,,,3,,,49,78
14496,note_on,,,,,0,0,3,,,,,2,,,68,87
14496,note_off,,,,,96,0,3,,,,,2,,,66,0
14496,note_on,,,,,0,0,1,,,,,0,,,83,103
14496,note_off,,,,,96,0,1,,,,,0,,,81,0
14592,note_on,,,,,0,0,1,,,,,0,,,85,103
14592,note_off,,,,,96,0,2,,,,,1,,,64,0
14592,note_on,,,,,0,0,2,,,,,1,,,63,96
14592,note_off,,,,,96,0,1,,,,,0,,,83,0
14592,note_off,,,,,96,0,4,,,,,3,,,49,0
14592,note_on,,,,,0,0,3,,,,,2,,,69,87
14592,note_off,,,,,96,0,3,,,,,2,,,68,0
14592,note_on,,,,,0,0,4,,,,,3,,,47,78
14688,note_off,,,,,96,0,4,,,,,3,,,47,0
14688,note_on,,,,,0,0,1,,,,,0,,,83,103
14688,note_off,,,,,96,0,3,,,,,2,,,69,0
14688,note_off,,,,,96,0,1,,,,,0,,,85,0
14688,note_off,,,,,96,0,2,,,,,1,,,63,0
14688,note_on,,,,,0,0,3,,,,,2,,,68,87
14784,note_off,,,,,96,0,1,,,,,0,,,83,0
14784,note_off,,,,,96,0,3,,,,,2,,,68,0
14784,note_on,,,,,0,0,3,,,,,2,,,66,87
14784,note_on,,,,,96,0,2,,,,,1,,,71,96
14784,note_on,,,,,96,0,4,,,,,3,,,47,78
14784,note_on,,,,,0,0,1,,,,,0,,,81,103
14880,note_off,,,,,96,0,3,,,,,2,,,66,0
14880,note_on,,,,,0,0,3,,,,,2,,,64,87
14880,note_off,,,,,96,0,1,,,,,0,,,81,0
14880,note_on,,,,,0,0,1,,,,,0,,,80,103
14976,note_off,,,,,96,0,3,,,,,2,,,64,0
14976,note_on,,,,,0,0,3,,,,,2,,,63,87
14976,note_off,,,,,96,0,1,,,,,0,,,80,0
14976,note_on,,,,,0,0,1,,,,,0,,,78,103
15072,note_off,,,,,96,0,3,,,,,2,,,63,0
15072,note_on,,,,,0,0,3,,,,,2,,,64,87
15072,note_off,,,,,96,0,1,,,,,0,,,78,0
15072,note_on,,,,,0,0,1,,,,,0,,,80,103
15168,note_off,,,,,96,0,3,,,,,2,,,64,0
15168,note_on,,,,,0,0,3,,,,,2,,,63,87
15168,note_on,,,,,0,0,2,,,,,1,,,69,96
15168,note_off,,,,,96,0,1,,,,,0,,,80,0
15168,note_on,,,,,0,0,1,,,,,0,,,78,103
15168,note_off,,,,,384,0,2,,,,,1,,,71,0
15168,note_on,,,,,0,0,4,,,,,3,,,54,78
15168,note_off,,,,,384,0,4,,,,,3,,,47,0
15264,note_off,,,,,96,0,1,,,,,0,,,78,0
15264,note_off,,,,,96,0,2,,,,,1,,,69,0
15264,note_on,,,,,0,0,1,,,,,0,,,76,103
15264,note_on,,,,,0,0,2,,,,,1,,,71,96
15264,note_off,,,,,96,0,3,,,,,2,,,63,0
15264,note_on,,,,,0,0,3,,,,,2,,,61,87
15264,note_off,,,,,96,0,4,,,,,3,,,54,0
15264,note_on,,,,,0,0,4,,,,,3,,,56,78
15360,note_off,,,,,96,0,3,,,,,2,,,61,0
15360,note_on,,,,,0,0,3,,,,,2,,,59,87
15360,note_on,,,,,0,0,2,,,,,1,,,73,96
15360,note_off,,,,,96,0,4,,,,,3,,,56,0
15360,note_on,,,,,0,0,4,,,,,3,,,57,78
15360,note_off,,,,,96,0,2,,,,,1,,,71,0
15360,note_off,,,,,96,0,1,,,,,0,,,76,0
15360,note_on,,,,,0,0,1,,,,,0,,,75,103
15456,note_on,,,,,0,0,2,,,,,1,,,71,96
15456,note_off,,,,,96,0,2,,,,,1,,,73,0
15456,note_off,,,,,96,0,1,,,,,0,,,75,0
15456,note_on,,,,,0,0,4,,,,,3,,,56,78
15456,note_off,,,,,96,0,4,,,,,3,,,57,0
15456,note_off,,,,,96,0,3,,,,,2,,,59,0
15552,note_off,,,,,96,0,4,,,,,3,,,56,0
15552,note_on,,,,,0,0,2,,,,,1,,,69,96
15552,note_on,,,,,96,0,1,,,,,0,,,83,103
15552,note_on,,,,,96,0,3,,,,,2,,,59,87
15552,note_off,,,,,96,0,2,,,,,1,,,71,0
15552,note_on,,,,,0,0,4,,,,,3,,,54,78
15648,note_off,,,,,96,0,2,,,,,1,,,69,0
15648,note_on,,,,,0,0,2,,,,,1,,,68,96
15648,note_off,,,,,96,0,4,,,,,3,,,54,0
15648,note_on,,,,,0,0,4,,,,,3,,,52,78
15744,note_off,,,,,96,0,2,,,,,1,,,68,0
15744,note_on,,,,,0,0,2,,,,,1,,,66,96
15744,note_off,,,,,96,0,4,,,,,3,,,52,0
15744,note_on,,,,,0,0,4,,,,,3,,,51,78
15840,note_off,,,,,96,0,2,,,,,1,,,66,0
15840,note_on,,,,,0,0,2,,,,,1,,,68,96
15840,note_off,,,,,96,0,4,,,,,3,,,51,0
15840,note_on,,,,,0,0,4,,,,,3,,,52,78
15936,note_on,,,,,0,0,1,,,,,0,,,78,103
15936,note_off,,,,,384,0,1,,,,,0,,,83,0
15936,note_off,,,,,384,0,3,,,,,2,,,59,0
15936,note_off,,,,,96,0,4,,,,,3,,,52,0
15936,note_on,,,,,0,0,4,,,,,3,,,51,78
15936,note_on,,,,,0,0,2,,,,,1,,,66,96
15936,note_off,,,,,96,0,2,,,,,1,,,68,0
16032,note_on,,,,,0,0,4,,,,,3,,,49,78
16032,note_on,,,,,0,0,2,,,,,1,,,64,96
16032,note_on,,,,,0,0,1,,,,,0,,,82,103
16032,note_off,,,,,96,0,2,,,,,1,,,66,0
16032,note_off,,,,,96,0,1,,,,,0,,,78,0
16032,note_off,,,,,96,0,4,,,,,3,,,51,0
16128,note_off,,,,,96,0,1,,,,,0,,,82,0
16128,note_on,,,,,0,0,2,,,,,1,,,63,96
16128,note_off,,,,,96,0,4,,,,,3,,,49,0
16128,note_on,,,,,192,0,3,,,,,2,,,71,87
16128,note_on,,,,,0,0,1,,,,,0,,,83,103
16128,note_off,,,,,96,0,2,,,,,1,,,64,0
16128,note_on,,,,,0,0,4,,,,,3,,,47,78
16224,note_off,,,,,96,0,1,,,,,0,,,83,0
16224,note_off,,,,,96,0,3,,,,,2,,,71,0
16224,note_off,,,,,96,0,2,,,,,1,,,63,0
16224,note_off,,,,,96,0,4,,,,,3,,,47,0
16224,note_on,,,,,0,0,1,,,,,0,,,85,103
16320,note_on,,,,,96,0,4,,,,,3,,,47,78
16320,note_on,,,,,96,0,2,,,,,1,,,71,96
16320,note_on,,,,,0,0,1,,,,,0,,,83,103
16320,note_off,,,,,96,0,1,,,,,0,,,85,0
16320,note_on,,,,,96,0,3,,,,,2,,,56,87
16416,note_on,,,,,0,0,1,,,,,0,,,81,103
16416,note_off,,,,,96,0,1,,,,,0,,,83,0
16512,note_on,,,,,0,0,3,,,,,2,,,59,87
16512,note_on,,,,,0,0,2,,,,,1,,,74,96
16512,note_off,,,,,192,0,2,,,,,1,,,71,0
16512,note_on,,,,,0,0,1,,,,,0,,,80,103
16512,note_off,,,,,96,0,1,,,,,0,,,81,0
16512,note_off,,,,,192,0,3,,,,,2,,,56,0
16608,note_off,,,,,96,0,1,,,,,0,,,80,0
16608,note_on,,,,,0,0,1,,,,,0,,,81,103
16704,note_off,,,,,192,0,2,,,,,1,,,74,0
16704,note_off,,,,,192,0,3,,,,,2,,,59,0
16704,note_on,,,,,0,0,3,,,,,2,,,62,87
16704,note_off,,,,,96,0,1,,,,,0,,,81,0
16704,note_on,,,,,0,0,1,,,,,0,,,83,103
16704,note_on,,,,,0,0,2,,,,,1,,,65,96
16800,note_on,,,,,0,0,1,,,,,0,,,80,103
16800,note_off,,,,,96,0,1,,,,,0,,,83,0
16896,note_on,,,,,0,0,2,,,,,1,,,66,96
16896,note_off,,,,,192,0,2,,,,,1,,,65,0
16896,note_on,,,,,0,0,1,,,,,0,,,81,103
16896,note_off,,,,,96,0,1,,,,,0,,,80,0
16896,note_on,,,,,0,0,3,,,,,2,,,61,87
16896,note_off,,,,,192,0,3,,,,,2,,,62,0
16896,note_on,,,,,0,0,4,,,,,3,,,47,78
16896,note_off,,,,,576,0,4,,,,,3,,,47,0
16992,note_off,,,,,96,0,2,,,,,1,,,66,0
16992,note_on,,,,,0,0,1,,,,,0,,,83,103
16992,note_off,,,,,96,0,3,,,,,2,,,61,0
16992,note_off,,,,,96,0,4,,,,,3,,,47,0
16992,note_off,,,,,96,0,1,,,,,0,,,81,0
17088,note_on,,,,,96,0,4,,,,,3,,,47,78
17088,note_on,,,,,96,0,3,,,,,2,,,54,87
17088,note_on,,,,,96,0,2,,,,,1,,,69,96
17088,note_off,,,,,96,0,1,,,,,0,,,83,0
17088,note_on,,,,,0,0,1,,,,,0,,,81,103
17184,note_off,,,,,96,0,1,,,,,0,,,81,0
17184,note_on,,,,,0,0,1,,,,,0,,,80,103
17280,note_on,,,,,0,0,1,,,,,0,,,78,103
17280,note_on,,,,,0,0,3,,,,,2,,,57,87
17280,note_off,,,,,192,0,3,,,,,2,,,54,0
17280,note_off,,,,,96,0,1,,,,,0,,,80,0
17280,note_on,,,,,0,0,2,,,,,1,,,72,96
17280,note_off,,,,,192,0,2,,,,,1,,,69,0
17376,note_on,,,,,0,0,1,,,,,0,,,80,103
17376,note_off,,,,,96,0,1,,,,,0,,,78,0
17472,note_on,,,,,0,0,2,,,,,1,,,63,96
17472,note_on,,,,,0,0,1,,,,,0,,,81,103
17472,note_off,,,,,96,0,1,,,,,0,,,80,0
17472,note_off,,,,,192,0,3,,,,,2,,,57,0
17472,note_on,,,,,0,0,3,,,,,2,,,60,87
17472,note_off,,,,,192,0,2,,,,,1,,,72,0
17568,note_off,,,,,96,0,1,,,,,0,,,81,0
17568,note_on,,,,,0,0,1,,,,,0,,,78,103
17664,note_off,,,,,192,0,2,,,,,1,,,63,0
17664,note_off,,,,,192,0,3,,,,,2,,,60,0
17664,note_off,,,,,576,0,4,,,,,3,,,47,0
17664,note_on,,,,,0,0,4,,,,,3,,,47,78
17664,note_off,,,,,96,0,1,,,,,0,,,78,0
17664,note_on,,,,,0,0,3,,,,,2,,,59,87
17664,note_on,,,,,0,0,2,,,,,1,,,64,96
17664,note_on,,,,,0,0,1,,,,,0,,,80,103
17760,note_off,,,,,96,0,4,,,,,3,,,47,0
17760,note_off,,,,,96,0,2,,,,,1,,,64,0
17760,note_off,,,,,96,0,3,,,,,2,,,59,0
17760,note_on,,,,,0,0,1,,,,,0,,,81,103
17760,note_off,,,,,96,0,1,,,,,0,,,80,0
17856,note_on,,,,,96,0,2,,,,,1,,,64,96
17856,note_on,,,,,0,0,1,,,,,0,,,80,103
17856,note_off,,,,,96,0,1,,,,,0,,,81,0
17856,note_on,,,,,96,0,3,,,,,2,,,52,87
17856,note_on,,,,,96,0,4,,,,,3,,,47,78
17952,note_on,,,,,0,0,1,,,,,0,,,78,103
17952,note_off,,,,,96,0,1,,,,,0,,,80,0
18048,note_off,,,,,96,0,1,,,,,0,,,78,0
18048,note_off,,,,,192,0,3,,,,,2,,,52,0
18048,note_on,,,,,0,0,3,,,,,2,,,49,87
18048,note_off,,,,,192,0,2,,,,,1,,,64,0
18048,note_on,,,,,0,0,2,,,,,1,,,70,96
18048,note_on,,,,,0,0,1,,,,,0,,,76,103
18144,note_on,,,,,0,0,1,,,,,0,,,78,103
18144,note_off,,,,,96,0,1,,,,,0,,,76,0
18240,note_off,,,,,192,0,2,,,,,1,,,70,0
18240,note_on,,,,,0,0,2,,,,,1,,,61,96
18240,note_on,,,,,0,0,3,,,,,2,,,58,87
18240,note_off,,,,,192,0,3,,,,,2,,,49,0
18240,note_on,,,,,0,0,1,,,,,0,,,80,103
18240,note_off,,,,,96,0,1,,,,,0,,,78,0
18336,note_on,,,,,0,0,1,,,,,0,,,76,103
18336,note_off,,,,,96,0,1,,,,,0,,,80,0
18432,note_off,,,,,96,0,1,,,,,0,,,76,0
18432,note_off,,,,,576,0,4,,,,,3,,,47,0
18432,note_on,,,,,0,0,2,,,,,1,,,59,96
18432,note_off,,,,,192,0,3,,,,,2,,,58,0
18432,note_on,,,,,0,0,3,,,,,2,,,59,87
18432,note_off,,,,,192,0,2,,,,,1,,,61,0
18432,note_on,,,,,0,0,4,,,,,3,,,47,78
18432,note_on,,,,,0,0,1,,,,,0,,,75,103
18528,note_off,,,,,96,0,1,,,,,0,,,75,0
18528,note_on,,,,,0,0,1,,,,,0,,,76,103
18528,note_off,,,,,96,0,3,,,,,2,,,59,0
18528,note_off,,,,,96,0,4,,,,,3,,,47,0
18528,note_off,,,,,96,0,2,,,,,1,,,59,0
18624,note_on,,,,,96,0,3,,,,,2,,,58,87
18624,note_on,,,,,96,0,4,,,,,3,,,54,78
18624,note_on,,,,,96,0,2,,,,,1,,,64,96
18624,note_off,,,,,96,0,1,,,,,0,,,76,0
18624,note_on,,,,,0,0,1,,,,,0,,,73,103
18720,note_off,,,,,96,0,3,,,,,2,,,58,0
18720,note_off,,,,,96,0,4,,,,,3,,,54,0
18720,note_off,,,,,96,0,2,,,,,1,,,64,0
18720,note_on,,,,,0,0,1,,,,,0,,,75,103
18720,note_off,,,,,96,0,1,,,,,0,,,73,0
18816,note_on,,,,,96,0,3,,,,,2,,,59,87
18816,note_on,,,,,96,0,4,,,,,3,,,59,78
18816,note_on,,,,,96,0,2,,,,,1,,,63,96
18816,note_off,,,,,96,0,1,,,,,0,,,75,0
18816,note_on,,,,,0,0,1,,,,,0,,,71,103
18912,note_off,,,,,96,0,3,,,,,2,,,59,0
18912,note_off,,,,,96,0,4,,,,,3,,,59,0
18912,note_off,,,,,96,0,2,,,,,1,,,63,0
19008,note_on,,,,,0,0,1,,,,,0,,,80,103
19008,note_off,,,,,192,0,1,,,,,0,,,71,0
19008,note_on,,,,,96,0,2,,,,,1,,,68,96
19104,note_off,,,,,96,0,1,,,,,0,,,80,0
19104,note_off,,,,,96,0,2,,,,,1,,,68,0
19104,note_on,,,,,0,0,2,,,,,1,,,69,96
19104,note_on,,,,,0,0,1,,,,,0,,,81,103
19200,note_off,,,,,96,0,2,,,,,1,,,69,0
19200,note_off,,,,,96,0,1,,,,,0,,,81,0
19200,note_on,,,,,288,0,3,,,,,2,,,56,87
19200,note_on,,,,,0,0,2,,,,,1,,,71,96
19200,note_on,,,,,0,0,1,,,,,0,,,83,103
19200,note_on,,,,,288,0,4,,,,,3,,,52,78
19296,note_on,,,,,0,0,2,,,,,1,,,69,96
19296,note_on,,,,,0,0,1,,,,,0,,,81,103
19296,note_off,,,,,96,0,2,,,,,1,,,71,0
19296,note_off,,,,,96,0,1,,,,,0,,,83,0
19392,note_on,,,,,0,0,2,,,,,1,,,68,96
19392,note_off,,,,,96,0,1,,,,,0,,,81,0
19392,note_on,,,,,0,0,1,,,,,0,,,80,103
19392,note_on,,,,,0,0,3,,,,,2,,,57,87
19392,note_off,,,,,192,0,3,,,,,2,,,56,0
19392,note_off,,,,,96,0,2,,,,,1,,,69,0
19392,note_off,,,,,192,0,4,,,,,3,,,52,0
19392,note_on,,,,,0,0,4,,,,,3,,,54,78
19488,note_off,,,,,96,0,1,,,,,0,,,80,0
19488,note_on,,,,,0,0,1,,,,,0,,,78,103
19488,note_on,,,,,0,0,2,,,,,1,,,66,96
19488,note_off,,,,,96,0,2,,,,,1,,,68,0
19584,note_off,,,,,192,0,4,,,,,3,,,54,0
19584,note_off,,,,,96,0,2,,,,,1,,,66,0
19584,note_on,,,,,0,0,2,,,,,1,,,64,96
19584,note_off,,,,,96,0,1,,,,,0,,,78,0
19584,note_off,,,,,192,0,3,,,,,2,,,57,0
19584,note_on,,,,,0,0,3,,,,,2,,,59,87
19584,note_on,,,,,0,0,1,,,,,0,,,76,103
19584,note_on,,,,,0,0,4,,,,,3,,,56,78
19680,note_off,,,,,96,0,1,,,,,0,,,76,0
19680,note_on,,,,,0,0,1,,,,,0,,,78,103
19680,note_off,,,,,96,0,2,,,,,1,,,64,0
19680,note_on,,,,,0,0,2,,,,,1,,,66,96
19776,note_off,,,,,96,0,2,,,,,1,,,66,0
19776,note_on,,,,,0,0,2,,,,,1,,,64,96
19776,note_off,,,,,96,0,1,,,,,0,,,78,0
19776,note_on,,,,,0,0,1,,,,,0,,,76,103
19776,note_off,,,,,192,0,3,,,,,2,,,59,0
19776,note_off,,,,,192,0,4,,,,,3,,,56,0
19872,note_off,,,,,96,0,1,,,,,0,,,76,0
19872,note_on,,,,,0,0,2,,,,,1,,,63,96
19872,note_off,,,,,96,0,2,,,,,1,,,64,0
19872,note_on,,,,,0,0,1,,,,,0,,,75,103
19968,note_on,,,,,192,0,3,,,,,2,,,61,87
19968,note_off,,,,,96,0,1,,,,,0,,,75,0
19968,note_on,,,,,0,0,1,,,,,0,,,73,103
19968,note_on,,,,,0,0,2,,,,,1,,,61,96
19968,note_off,,,,,96,0,2,,,,,1,,,63,0
19968,note_on,,,,,192,0,4,,,,,3,,,57,78
20064,note_off,,,,,96,0,2,,,,,1,,,61,0
20064,note_off,,,,,96,0,1,,,,,0,,,73,0
20160,note_on,,,,,0,0,4,,,,,3,,,59,78
20160,note_off,,,,,192,0,4,,,,,3,,,57,0
20160,note_on,,,,,96,0,1,,,,,0,,,78,103
20160,note_off,,,,,192,0,3,,,,,2,,,61,0
20160,note_on,,,,,0,0,3,,,,,2,,,63,87
20160,note_on,,,,,96,0,2,,,,,1,,,66,96
20256,note_off,,,,,96,0,3,,,,,2,,,63,0
20256,note_on,,,,,0,0,3,,,,,2,,,64,87
20256,note_off,,,,,96,0,4,,,,,3,,,59,0
20256,note_on,,,,,0,0,4,,,,,3,,,61,78
20352,note_off,,,,,96,0,3,,,,,2,,,64,0
20352,note_on,,,,,0,0,3,,,,,2,,,66,87
20352,note_off,,,,,96,0,4,,,,,3,,,61,0
20352,note_on,,,,,0,0,4,,,,,3,,,63,78
20544,note_off,,,,,192,0,4,,,,,3,,,63,0
20544,note_on,,,,,0,0,4,,,,,3,,,59,78
20544,note_off,,,,,384,0,2,,,,,1,,,66,0
20544,note_on,,,,,0,0,1,,,,,0,,,75,103
20544,note_off,,,,,192,0,3,,,,,2,,,66,0
20544,note_off,,,,,384,0,1,,,,,0,,,78,0
20544,note_on,,,,,0,0,3,,,,,2,,,66,87
20544,note_on,,,,,0,0,2,,,,,1,,,63,96
20640,note_off,,,,,96,0,3,,,,,2,,,66,0
20640,note_off,,,,,96,0,4,,,,,3,,,59,0
20736,note_on,,,,,96,0,3,,,,,2,,,64,87
20736,note_off,,,,,192,0,2,,,,,1,,,63,0
20736,note_on,,,,,0,0,1,,,,,0,,,76,103
20736,note_off,,,,,192,0,1,,,,,0,,,75,0
20736,note_on,,,,,0,0,2,,,,,1,,,64,96
20736,note_on,,,,,96,0,4,,,,,3,,,61,78
20832,note_off,,,,,96,0,2,,,,,1,,,64,0
20832,note_off,,,,,96,0,1,,,,,0,,,76,0
20928,note_off,,,,,192,0,3,,,,,2,,,64,0
20928,note_on,,,,,0,0,3,,,,,2,,,66,87
20928,note_on,,,,,96,0,1,,,,,0,,,81,103
20928,note_on,,,,,0,0,4,,,,,3,,,63,78
20928,note_on,,,,,96,0,2,,,,,1,,,69,96
20928,note_off,,,,,192,0,4,,,,,3,,,61,0
21024,note_off,,,,,96,0,4,,,,,3,,,63,0
21024,note_on,,,,,0,0,3,,,,,2,,,68,87
21024,note_off,,,,,96,0,3,,,,,2,,,66,0
21024,note_on,,,,,0,0,4,,,,,3,,,64,78
21120,note_on,,,,,0,0,3,,,,,2,,,69,87
21120,note_off,,,,,96,0,3,,,,,2,,,68,0
21120,note_off,,,,,96,0,4,,,,,3,,,64,0
21120,note_on,,,,,0,0,4,,,,,3,,,66,78
21312,note_off,,,,,384,0,1,,,,,0,,,81,0
21312,note_on,,,,,0,0,3,,,,,2,,,69,87
21312,note_off,,,,,192,0,3,,,,,2,,,69,0
21312,note_off,,,,,192,0,4,,,,,3,,,66,0
21312,note_on,,,,,0,0,4,,,,,3,,,63,78
21312,note_on,,,,,0,0,1,,,,,0,,,78,103
21312,note_off,,,,,384,0,2,,,,,1,,,69,0
21312,note_on,,,,,0,0,2,,,,,1,,,66,96
21408,note_off,,,,,96,0,3,,,,,2,,,69,0
21408,note_off,,,,,96,0,4,,,,,3,,,63,0
21504,note_on,,,,,0,0,2,,,,,1,,,68,96
21504,note_on,,,,,96,0,3,,,,,2,,,68,87
21504,note_off,,,,,192,0,2,,,,,1,,,66,0
21504,note_on,,,,,96,0,4,,,,,3,,,64,78
21504,note_on,,,,,0,0,1,,,,,0,,,80,103
21504,note_off,,,,,192,0,1,,,,,0,,,78,0
21600,note_off,,,,,96,0,2,,,,,1,,,68,0
21600,note_off,,,,,96,0,1,,,,,0,,,80,0
21696,note_on,,,,,0,0,3,,,,,2,,,64,87
21696,note_on,,,,,96,0,2,,,,,1,,,73,96
21696,note_on,,,,,0,0,4,,,,,3,,,61,78
21696,note_off,,,,,192,0,4,,,,,3,,,64,0
21696,note_off,,,,,192,0,3,,,,,2,,,68,0
21696,note_on,,,,,96,0,1,,,,,0,,,85,103
21792,note_off,,,,,96,0,3,,,,,2,,,64,0
21792,note_on,,,,,0,0,3,,,,,2,,,63,87
21792,note_off,,,,,96,0,4,,,,,3,,,61,0
21792,note_on,,,,,0,0,4,,,,,3,,,59,78
21888,note_on,,,,,0,0,3,,,,,2,,,61,87
21888,note_off,,,,,96,0,3,,,,,2,,,63,0
21888,note_on,,,,,0,0,4,,,,,3,,,57,78
21888,note_off,,,,,96,0,4,,,,,3,,,59,0
22080,note_off,,,,,384,0,1,,,,,0,,,85,0
22080,note_on,,,,,0,0,1,,,,,0,,,82,103
22080,note_on,,,,,0,0,2,,,,,1,,,70,96
22080,note_on,,,,,0,0,3,,,,,2,,,64,87
22080,note_off,,,,,384,0,2,,,,,1,,,73,0
22080,note_off,,,,,192,0,4,,,,,3,,,57,0
22080,note_on,,,,,0,0,4,,,,,3,,,60,78
22080,note_off,,,,,192,0,3,,,,,2,,,61,0
22176,note_off,,,,,96,0,3,,,,,2,,,64,0
22176,note_off,,,,,96,0,4,,,,,3,,,60,0
22272,note_on,,,,,96,0,3,,,,,2,,,68,87
22272,note_on,,,,,96,0,4,,,,,3,,,59,78
22272,note_off,,,,,192,0,1,,,,,0,,,82,0
22272,note_on,,,,,0,0,1,,,,,0,,,82,103
22272,note_on,,,,,0,0,2,,,,,1,,,71,96
22272,note_off,,,,,192,0,2,,,,,1,,,70,0
22368,note_off,,,,,96,0,1,,,,,0,,,82,0
22368,note_on,,,,,0,0,1,,,,,0,,,83,103
22464,note_off,,,,,192,0,2,,,,,1,,,71,0
22464,note_on,,,,,0,0,1,,,,,0,,,81,103
22464,note_off,,,,,96,0,1,,,,,0,,,83,0
22464,note_on,,,,,0,0,3,,,,,2,,,71,87
22464,note_on,,,,,0,0,2,,,,,1,,,76,96
22464,note_off,,,,,192,0,3,,,,,2,,,68,0
22560,note_on,,,,,0,0,1,,,,,0,,,80,103
22560,note_off,,,,,96,0,1,,,,,0,,,81,0
22656,note_on,,,,,0,0,3,,,,,2,,,69,87
22656,note_off,,,,,192,0,3,,,,,2,,,71,0
22656,note_on,,,,,0,0,1,,,,,0,,,78,103
22656,note_on,,,,,0,0,2,,,,,1,,,75,96
22656,note_off,,,,,96,0,1,,,,,0,,,80,0
22656,note_off,,,,,192,0,2,,,,,1,,,76,0
22752,note_off,,,,,96,0,1,,,,,0,,,78,0
22752,note_on,,,,,0,0,1,,,,,0,,,80,103
22848,note_on,,,,,0,0,3,,,,,2,,,63,87
22848,note_off,,,,,192,0,3,,,,,2,,,69,0
22848,note_on,,,,,0,0,2,,,,,1,,,69,96
22848,note_off,,,,,192,0,2,,,,,1,,,75,0
22848,note_off,,,,,96,0,1,,,,,0,,,80,0
22848,note_on,,,,,0,0,1,,,,,0,,,81,103
22944,note_on,,,,,0,0,1,,,,,0,,,78,103
22944,note_off,,,,,96,0,1,,,,,0,,,81,0
23040,note_off,,,,,192,0,3,,,,,2,,,63,0
23040,note_off,,,,,96,0,1,,,,,0,,,78,0
23040,note_off,,,,,768,0,4,,,,,3,,,59,0
23040,note_on,,,,,0,0,4,,,,,3,,,52,78
23040,note_on,,,,,0,0,3,,,,,2,,,64,87
23040,note_on,,,,,0,0,1,,,,,0,,,76,103
23040,note_off,,,,,192,0,2,,,,,1,,,69,0
23040,note_on,,,,,0,0,2,,,,,1,,,68,96
23136,note_off,,,,,96,0,1,,,,,0,,,76,0
23136,note_off,,,,,96,0,3,,,,,2,,,64,0
23136,note_off,,,,,96,0,4,,,,,3,,,52,0
23136,note_off,,,,,96,0,2,,,,,1,,,68,0
23232,note_on,,,,,96,0,4,,,,,3,,,52,78
23232,note_on,,,,,96,0,1,,,,,0,,,88,103
23232,note_on,,,,,96,0,3,,,,,2,,,68,87
23232,note_on,,,,,96,0,2,,,,,1,,,71,96
23328,note_off,,,,,96,0,3,,,,,2,,,68,0
23328,note_off,,,,,96,0,2,,,,,1,,,71,0
23328,note_off,,,,,96,0,4,,,,,3,,,52,0
23328,note_off,,,,,96,0,1,,,,,0,,,88,0
23424,note_on,,,,,96,0,3,,,,,2,,,64,87
23424,note_on,,,,,96,0,2,,,,,1,,,68,96
23424,note_on,,,,,96,0,4,,,,,3,,,52,78
23520,note_off,,,,,96,0,4,,,,,3,,,52,0
23520,note_off,,,,,96,0,3,,,,,2,,,64,0
23520,note_off,,,,,96,0,2,,,,,1,,,68,0
23616,note_on,,,,,96,0,3,,,,,2,,,66,87
23616,note_on,,,,,288,0,1,,,,,0,,,81,103
23712,note_off,,,,,96,0,1,,,,,0,,,81,0
23712,note_on,,,,,0,0,1,,,,,0,,,83,103
23712,note_off,,,,,96,0,3,,,,,2,,,66,0
23712,note_on,,,,,0,0,3,,,,,2,,,68,87
23808,note_on,,,,,0,0,3,,,,,2,,,69,87
23808,note_on,,,,,0,0,1,,,,,0,,,85,103
23808,note_off,,,,,96,0,1,,,,,0,,,83,0
23808,note_off,,,,,96,0,3,,,,,2,,,68,0
23904,note_off,,,,,96,0,3,,,,,2,,,69,0
23904,note_on,,,,,0,0,3,,,,,2,,,68,87
23904,note_on,,,,,0,0,1,,,,,0,,,83,103
23904,note_off,,,,,96,0,1,,,,,0,,,85,0
24000,note_off,,,,,96,0,3,,,,,2,,,68,0
24000,note_on,,,,,0,0,3,,,,,2,,,66,87
24000,note_on,,,,,0,0,1,,,,,0,,,81,103
24000,note_off,,,,,96,0,1,,,,,0,,,83,0
24096,note_off,,,,,96,0,1,,,,,0,,,81,0
24096,note_off,,,,,96,0,3,,,,,2,,,66,0
24096,note_on,,,,,0,0,3,,,,,2,,,64,87
24096,note_on,,,,,0,0,1,,,,,0,,,80,103
24192,note_on,,,,,0,0,1,,,,,0,,,78,103
24192,note_off,,,,,96,0,3,,,,,2,,,64,0
24192,note_on,,,,,0,0,3,,,,,2,,,63,87
24192,note_off,,,,,96,0,1,,,,,0,,,80,0
24288,note_off,,,,,96,0,1,,,,,0,,,78,0
24288,note_on,,,,,0,0,1,,,,,0,,,80,103
24288,note_off,,,,,96,0,3,,,,,2,,,63,0
24288,note_on,,,,,0,0,3,,,,,2,,,64,87
24384,note_on,,,,,0,0,1,,,,,0,,,78,103
24384,note_off,,,,,96,0,3,,,,,2,,,64,0
24384,note_on,,,,,0,0,3,,,,,2,,,63,87
24384,note_off,,,,,96,0,1,,,,,0,,,80,0
24384,note_on,,,,,864,0,4,,,,,3,,,54,78
24384,note_on,,,,,864,0,2,,,,,1,,,69,96
24480,note_off,,,,,96,0,4,,,,,3,,,54,0
24480,note_on,,,,,0,0,4,,,,,3,,,56,78
24480,note_on,,,,,0,0,2,,,,,1,,,71,96
24480,note_off,,,,,96,0,2,,,,,1,,,69,0
24480,note_off,,,,,96,0,1,,,,,0,,,78,0
24480,note_on,,,,,0,0,1,,,,,0,,,76,103
24480,note_on,,,,,0,0,3,,,,,2,,,61,87
24480,note_off,,,,,96,0,3,,,,,2,,,63,0
24576,note_off,,,,,96,0,3,,,,,2,,,61,0
24576,note_on,,,,,0,0,3,,,,,2,,,59,87
24576,note_on,,,,,0,0,4,,,,,3,,,57,78
24576,note_off,,,,,96,0,1,,,,,0,,,76,0
24576,note_on,,,,,0,0,1,,,,,0,,,75,103
24576,note_off,,,,,96,0,4,,,,,3,,,56,0
24576,note_on,,,,,0,0,2,,,,,1,,,73,96
24576,note_off,,,,,96,0,2,,,,,1,,,71,0
24672,note_off,,,,,96,0,4,,,,,3,,,57,0
24672,note_off,,,,,96,0,3,,,,,2,,,59,0
24672,note_off,,,,,96,0,1,,,,,0,,,75,0
24672,note_on,,,,,0,0,2,,,,,1,,,71,96
24672,note_off,,,,,96,0,2,,,,,1,,,73,0
24672,note_on,,,,,0,0,4,,,,,3,,,56,78
24768,note_on,,,,,96,0,3,,,,,2,,,59,87
24768,note_on,,,,,96,0,1,,,,,0,,,83,103
24768,note_off,,,,,96,0,2,,,,,1,,,71,0
24768,note_on,,,,,0,0,2,,,,,1,,,69,96
24768,note_off,,,,,96,0,4,,,,,3,,,56,0
24768,note_on,,,,,0,0,4,,,,,3,,,54,78
24864,note_off,,,,,96,0,4,,,,,3,,,54,0
24864,note_off,,,,,96,0,2,,,,,1,,,69,0
24864,note_on,,,,,0,0,2,,,,,1,,,68,96
24864,note_on,,,,,0,0,4,,,,,3,,,52,78
24960,note_on,,,,,0,0,4,,,,,3,,,51,78
24960,note_off,,,,,96,0,4,,,,,3,,,52,0
24960,note_on,,,,,0,0,2,,,,,1,,,66,96
24960,note_off,,,,,96,0,2,,,,,1,,,68,0
25056,note_off,,,,,96,0,2,,,,,1,,,66,0
25056,note_on,,,,,0,0,2,,,,,1,,,68,96
25056,note_on,,,,,0,0,4,,,,,3,,,52,78
25056,note_off,,,,,96,0,4,,,,,3,,,51,0
25152,note_on,,,,,0,0,4,,,,,3,,,51,78
25152,note_off,,,,,96,0,2,,,,,1,,,68,0
25152,note_on,,,,,0,0,2,,,,,1,,,66,96
25152,note_off,,,,,384,0,3,,,,,2,,,59,0
25152,note_on,,,,,0,0,3,,,,,2,,,66,87
25152,note_off,,,,,96,0,4,,,,,3,,,52,0
25152,note_on,,,,,0,0,1,,,,,0,,,81,103
25152,note_off,,,,,384,0,1,,,,,0,,,83,0
25248,note_on,,,,,0,0,3,,,,,2,,,68,87
25248,note_on,,,,,0,0,1,,,,,0,,,83,103
25248,note_off,,,,,96,0,1,,,,,0,,,81,0
25248,note_on,,,,,0,0,2,,,,,1,,,64,96
25248,note_off,,,,,96,0,2,,,,,1,,,66,0
25248,note_off,,,,,96,0,3,,,,,2,,,66,0
25248,note_on,,,,,0,0,4,,,,,3,,,49,78
25248,note_off,,,,,96,0,4,,,,,3,,,51,0
25344,note_on,,,,,0,0,1,,,,,0,,,85,103
25344,note_off,,,,,96,0,1,,,,,0,,,83,0
25344,note_off,,,,,96,0,4,,,,,3,,,49,0
25344,note_on,,,,,0,0,4,,,,,3,,,47,78
25344,note_on,,,,,0,0,3,,,,,2,,,69,87
25344,note_off,,,,,96,0,3,,,,,2,,,68,0
25344,note_off,,,,,96,0,2,,,,,1,,,64,0
25344,note_on,,,,,0,0,2,,,,,1,,,63,96
25440,note_off,,,,,96,0,1,,,,,0,,,85,0
25440,note_on,,,,,0,0,3,,,,,2,,,68,87
25440,note_off,,,,,96,0,4,,,,,3,,,47,0
25440,note_on,,,,,0,0,1,,,,,0,,,83,103
25440,note_off,,,,,96,0,3,,,,,2,,,69,0
25440,note_off,,,,,96,0,2,,,,,1,,,63,0
25536,note_on,,,,,0,0,1,,,,,0,,,81,103
25536,note_off,,,,,96,0,1,,,,,0,,,83,0
25536,note_on,,,,,0,0,3,,,,,2,,,66,87
25536,note_on,,,,,96,0,2,,,,,1,,,71,96
25536,note_off,,,,,96,0,3,,,,,2,,,68,0
25536,note_on,,,,,96,0,4,,,,,3,,,47,78
25632,note_on,,,,,0,0,3,,,,,2,,,64,87
25632,note_off,,,,,96,0,1,,,,,0,,,81,0
25632,note_on,,,,,0,0,1,,,,,0,,,80,103
25632,note_off,,,,,96,0,3,,,,,2,,,66,0
25728,note_off,,,,,96,0,3,,,,,2,,,64,0
25728,note_off,,,,,96,0,1,,,,,0,,,80,0
25728,note_on,,,,,0,0,1,,,,,0,,,78,103
25728,note_on,,,,,0,0,3,,,,,2,,,63,87
25824,note_off,,,,,96,0,3,,,,,2,,,63,0
25824,note_off,,,,,96,0,1,,,,,0,,,78,0
25824,note_on,,,,,0,0,1,,,,,0,,,80,103
25824,note_on,,,,,0,0,3,,,,,2,,,64,87
25920,note_off,,,,,384,0,4,,,,,3,,,47,0
25920,note_on,,,,,0,0,4,,,,,3,,,54,78
25920,note_off,,,,,96,0,3,,,,,2,,,64,0
25920,note_on,,,,,0,0,3,,,,,2,,,63,87
25920,note_off,,,,,384,0,2,,,,,1,,,71,0
25920,note_on,,,,,0,0,2,,,,,1,,,69,96
25920,note_off,,,,,96,0,1,,,,,0,,,80,0
25920,note_on,,,,,0,0,1,,,,,0,,,78,103
26016,note_off,,,,,96,0,4,,,,,3,,,54,0
26016,note_off,,,,,96,0,2,,,,,1,,,69,0
26016,note_on,,,,,0,0,2,,,,,1,,,71,96
26016,note_on,,,,,0,0,1,,,,,0,,,76,103
26016,note_on,,,,,0,0,4,,,,,3,,,56,78
26016,note_off,,,,,96,0,1,,,,,0,,,78,0
26016,note_on,,,,,0,0,3,,,,,2,,,61,87
26016,note_off,,,,,96,0,3,,,,,2,,,63,0
26112,note_on,,,,,0,0,4,,,,,3,,,57,78
26112,note_off,,,,,96,0,1,,,,,0,,,76,0
26112,note_on,,,,,0,0,1,,,,,0,,,75,103
26112,note_off,,,,,96,0,2,,,,,1,,,71,0
26112,note_on,,,,,0,0,3,,,,,2,,,59,87
26112,note_off,,,,,96,0,3,,,,,2,,,61,0
26112,note_on,,,,,0,0,2,,,,,1,,,73,96
26112,note_off,,,,,96,0,4,,,,,3,,,56,0
26208,note_off,,,,,96,0,3,,,,,2,,,59,0
26208,note_on,,,,,0,0,4,,,,,3,,,56,78
26208,note_off,,,,,96,0,1,,,,,0,,,75,0
26208,note_on,,,,,0,0,2,,,,,1,,,71,96
26208,note_off,,,,,96,0,4,,,,,3,,,57,0
26208,note_off,,,,,96,0,2,,,,,1,,,73,0
26304,note_off,,,,,96,0,2,,,,,1,,,71,0
26304,note_on,,,,,0,0,2,,,,,1,,,69,96
26304,note_off,,,,,96,0,4,,,,,3,,,56,0
26304,note_on,,,,,0,0,4,,,,,3,,,54,78
26304,note_on,,,,,96,0,1,,,,,0,,,83,103
26304,note_on,,,,,96,0,3,,,,,2,,,59,87
26400,note_on,,,,,0,0,2,,,,,1,,,68,96
26400,note_on,,,,,0,0,4,,,,,3,,,52,78
26400,note_off,,,,,96,0,4,,,,,3,,,54,0
26400,note_off,,,,,96,0,2,,,,,1,,,69,0
26496,note_off,,,,,96,0,4,,,,,3,,,52,0
26496,note_on,,,,,0,0,2,,,,,1,,,66,96
26496,note_on,,,,,0,0,4,,,,,3,,,51,78
26496,note_off,,,,,96,0,2,,,,,1,,,68,0
26592,note_off,,,,,96,0,2,,,,,1,,,66,0
26592,note_off,,,,,96,0,4,,,,,3,,,51,0
26592,note_on,,,,,0,0,2,,,,,1,,,68,96
26592,note_on,,,,,0,0,4,,,,,3,,,52,78
26688,note_off,,,,,384,0,3,,,,,2,,,59,0
26688,note_off,,,,,96,0,4,,,,,3,,,52,0
26688,note_on,,,,,0,0,4,,,,,3,,,51,78
26688,note_off,,,,,96,0,2,,,,,1,,,68,0
26688,note_off,,,,,384,0,1,,,,,0,,,83,0
26688,note_on,,,,,0,0,1,,,,,0,,,78,103
26688,note_on,,,,,0,0,2,,,,,1,,,66,96
26784,note_off,,,,,96,0,2,,,,,1,,,66,0
26784,note_on,,,,,0,0,2,,,,,1,,,64,96
26784,note_on,,,,,0,0,1,,,,,0,,,82,103
26784,note_off,,,,,96,0,1,,,,,0,,,78,0
26784,note_off,,,,,96,0,4,,,,,3,,,51,0
26784,note_on,,,,,0,0,4,,,,,3,,,49,78
26880,note_on,,,,,0,0,2,,,,,1,,,63,96
26880,note_on,,,,,192,0,3,,,,,2,,,71,87
26880,note_on,,,,,0,0,4,,,,,3,,,47,78
26880,note_off,,,,,96,0,2,,,,,1,,,64,0
26880,note_off,,,,,96,0,4,,,,,3,,,49,0
26880,note_off,,,,,96,0,1,,,,,0,,,82,0
26880,note_on,,,,,0,0,1,,,,,0,,,83,103
26976,note_off,,,,,96,0,4,,,,,3,,,47,0
26976,note_off,,,,,96,0,3,,,,,2,,,71,0
26976,note_off,,,,,96,0,1,,,,,0,,,83,0
26976,note_on,,,,,0,0,1,,,,,0,,,85,103
26976,note_off,,,,,96,0,2,,,,,1,,,63,0
27072,note_on,,,,,96,0,3,,,,,2,,,56,87
27072,note_off,,,,,96,0,1,,,,,0,,,85,0
27072,note_on,,,,,96,0,2,,,,,1,,,71,96
27072,note_on,,,,,96,0,4,,,,,3,,,47,78
27072,note_on,,,,,0,0,1,,,,,0,,,83,103
27168,note_on,,,,,0,0,1,,,,,0,,,81,103
27168,note_off,,,,,96,0,1,,,,,0,,,83,0
27264,note_off,,,,,192,0,2,,,,,1,,,71,0
27264,note_on,,,,,0,0,2,,,,,1,,,74,96
27264,note_off,,,,,96,0,1,,,,,0,,,81,0
27264,note_on,,,,,0,0,1,,,,,0,,,80,103
27264,note_on,,,,,0,0,3,,,,,2,,,59,87
27264,note_off,,,,,192,0,3,,,,,2,,,56,0
27360,note_on,,,,,0,0,1,,,,,0,,,81,103
27360,note_off,,,,,96,0,1,,,,,0,,,80,0
27456,note_off,,,,,96,0,1,,,,,0,,,81,0
27456,note_off,,,,,192,0,2,,,,,1,,,74,0
27456,note_off,,,,,192,0,3,,,,,2,,,59,0
27456,note_on,,,,,0,0,3,,,,,2,,,62,87
27456,note_on,,,,,0,0,1,,,,,0,,,83,103
27456,note_on,,,,,0,0,2,,,,,1,,,65,96
27552,note_off,,,,,96,0,1,,,,,0,,,83,0
27552,note_on,,,,,0,0,1,,,,,0,,,80,103
27648,note_on,,,,,0,0,2,,,,,1,,,66,96
27648,note_on,,,,,0,0,3,,,,,2,,,61,87
27648,note_off,,,,,576,0,4,,,,,3,,,47,0
27648,note_on,,,,,0,0,4,,,,,3,,,47,78
27648,note_off,,,,,192,0,2,,,,,1,,,65,0
27648,note_off,,,,,192,0,3,,,,,2,,,62,0
27648,note_off,,,,,96,0,1,,,,,0,,,80,0
27648,note_on,,,,,0,0,1,,,,,0,,,81,103
27744,note_off,,,,,96,0,2,,,,,1,,,66,0
27744,note_off,,,,,96,0,1,,,,,0,,,81,0
27744,note_on,,,,,0,0,1,,,,,0,,,83,103
27744,note_off,,,,,96,0,3,,,,,2,,,61,0
27744,note_off,,,,,96,0,4,,,,,3,,,47,0
27840,note_on,,,,,96,0,4,,,,,3,,,47,78
27840,note_on,,,,,96,0,3,,,,,2,,,54,87
27840,note_on,,,,,0,0,1,,,,,0,,,81,103
27840,note_on,,,,,96,0,2,,,,,1,,,69,96
27840,note_off,,,,,96,0,1,,,,,0,,,83,0
27936,note_off,,,,,96,0,1,,,,,0,,,81,0
27936,note_on,,,,,0,0,1,,,,,0,,,80,103
28032,note_on,,,,,0,0,3,,,,,2,,,57,87
28032,note_off,,,,,192,0,2,,,,,1,,,69,0
28032,note_on,,,,,0,0,1,,,,,0,,,78,103
28032,note_on,,,,,0,0,2,,,,,1,,,72,96
28032,note_off,,,,,96,0,1,,,,,0,,,80,0
28032,note_off,,,,,192,0,3,,,,,2,,,54,0
28128,note_off,,,,,96,0,1,,,,,0,,,78,0
28128,note_on,,,,,0,0,1,,,,,0,,,80,103
28224,note_off,,,,,192,0,3,,,,,2,,,57,0
28224,note_on,,,,,0,0,3,,,,,2,,,60,87
28224,note_off,,,,,96,0,1,,,,,0,,,80,0
28224,note_on,,,,,0,0,1,,,,,0,,,81,103
28224,note_on,,,,,0,0,2,,,,,1,,,63,96
28224,note_off,,,,,192,0,2,,,,,1,,,72,0
28320,note_on,,,,,0,0,1,,,,,0,,,78,103
28320,note_off,,,,,96,0,1,,,,,0,,,81,0
28416,note_on,,,,,0,0,1,,,,,0,,,80,103
28416,note_on,,,,,0,0,4,,,,,3,,,47,78
28416,note_off,,,,,576,0,4,,,,,3,,,47,0
28416,note_off,,,,,192,0,2,,,,,1,,,63,0
28416,note_on,,,,,0,0,2,,,,,1,,,64,96
28416,note_on,,,,,0,0,3,,,,,2,,,59,87
28416,note_off,,,,,192,0,3,,,,,2,,,60,0
28416,note_off,,,,,96,0,1,,,,,0,,,78,0
28512,note_off,,,,,96,0,2,,,,,1,,,64,0
28512,note_off,,,,,96,0,3,,,,,2,,,59,0
28512,note_off,,,,,96,0,4,,,,,3,,,47,0
28512,note_off,,,,,96,0,1,,,,,0,,,80,0
28512,note_on,,,,,0,0,1,,,,,0,,,81,103
28608,note_on,,,,,96,0,4,,,,,3,,,47,78
28608,note_on,,,,,96,0,3,,,,,2,,,52,87
28608,note_off,,,,,96,0,1,,,,,0,,,81,0
28608,note_on,,,,,0,0,1,,,,,0,,,80,103
28608,note_on,,,,,96,0,2,,,,,1,,,64,96
28704,note_off,,,,,96,0,1,,,,,0,,,80,0
28704,note_on,,,,,0,0,1,,,,,0,,,78,103
28800,note_on,,,,,0,0,2,,,,,1,,,70,96
28800,note_off,,,,,192,0,2,,,,,1,,,64,0
28800,note_off,,,,,96,0,1,,,,,0,,,78,0
28800,note_on,,,,,0,0,1,,,,,0,,,76,103
28800,note_off,,,,,192,0,3,,,,,2,,,52,0
28800,note_on,,,,,0,0,3,,,,,2,,,49,87
28896,note_off,,,,,96,0,1,,,,,0,,,76,0
28896,note_on,,,,,0,0,1,,,,,0,,,78,103
28992,note_on,,,,,0,0,3,,,,,2,,,58,87
28992,note_off,,,,,96,0,1,,,,,0,,,78,0
28992,note_off,,,,,192,0,2,,,,,1,,,70,0
28992,note_on,,,,,0,0,2,,,,,1,,,61,96
28992,note_on,,,,,0,0,1,,,,,0,,,80,103
28992,note_off,,,,,192,0,3,,,,,2,,,49,0
29088,note_off,,,,,96,0,1,,,,,0,,,80,0
29088,note_on,,,,,0,0,1,,,,,0,,,76,103
29184,note_off,,,,,576,0,4,,,,,3,,,47,0
29184,note_off,,,,,192,0,3,,,,,2,,,58,0
29184,note_off,,,,,96,0,1,,,,,0,,,76,0
29184,note_on,,,,,0,0,1,,,,,0,,,75,103
29184,note_on,,,,,0,0,3,,,,,2,,,59,87
29184,note_on,,,,,0,0,4,,,,,3,,,47,78
29184,note_on,,,,,0,0,2,,,,,1,,,59,96
29184,note_off,,,,,192,0,2,,,,,1,,,61,0
29280,note_off,,,,,96,0,3,,,,,2,,,59,0
29280,note_off,,,,,96,0,4,,,,,3,,,47,0
29280,note_off,,,,,96,0,1,,,,,0,,,75,0
29280,note_off,,,,,96,0,2,,,,,1,,,59,0
29280,note_on,,,,,0,0,1,,,,,0,,,76,103
29376,note_on,,,,,96,0,4,,,,,3,,,54,78
29376,note_off,,,,,96,0,1,,,,,0,,,76,0
29376,note_on,,,,,0,0,1,,,,,0,,,73,103
29376,note_on,,,,,96,0,2,,,,,1,,,64,96
29376,note_on,,,,,96,0,3,,,,,2,,,58,87
29472,note_off,,,,,96,0,2,,,,,1,,,64,0
29472,note_off,,,,,96,0,4,,,,,3,,,54,0
29472,note_off,,,,,96,0,1,,,,,0,,,73,0
29472,note_on,,,,,0,0,1,,,,,0,,,75,103
29472,note_off,,,,,96,0,3,,,,,2,,,58,0
29568,note_off,,,,,96,0,1,,,,,0,,,75,0
29568,note_on,,,,,0,0,1,,,,,0,,,71,103
29568,note_on,,,,,96,0,3,,,,,2,,,59,87
29568,note_on,,,,,96,0,2,,,,,1,,,63,96
29568,note_on,,,,,96,0,4,,,,,3,,,59,78
29664,note_off,,,,,96,0,2,,,,,1,,,63,0
29664,note_off,,,,,96,0,4,,,,,3,,,59,0
29664,note_off,,,,,96,0,3,,,,,2,,,59,0
29760,note_on,,,,,0,0,1,,,,,0,,,80,103
29760,note_off,,,,,192,0,1,,,,,0,,,71,0
29760,note_on,,,,,96,0,2,,,,,1,,,68,96
29856,note_on,,,,,0,0,1,,,,,0,,,81,103
29856,note_off,,,,,96,0,1,,,,,0,,,80,0
29856,note_off,,,,,96,0,2,,,,,1,,,68,0
29856,note_on,,,,,0,0,2,,,,,1,,,69,96
29952,note_on,,,,,288,0,3,,,,,2,,,56,87
29952,note_on,,,,,0,0,1,,,,,0,,,83,103
29952,note_off,,,,,96,0,2,,,,,1,,,69,0
29952,note_on,,,,,0,0,2,,,,,1,,,71,96
29952,note_off,,,,,96,0,1,,,,,0,,,81,0
29952,note_on,,,,,288,0,4,,,,,3,,,52,78
30048,note_off,,,,,96,0,1,,,,,0,,,83,0
30048,note_on,,,,,0,0,1,,,,,0,,,81,103
30048,note_off,,,,,96,0,2,,,,,1,,,71,0
30048,note_on,,,,,0,0,2,,,,,1,,,69,96
30144,note_on,,,,,0,0,3,,,,,2,,,57,87
30144,note_on,,,,,0,0,4,,,,,3,,,54,78
30144,note_off,,,,,192,0,3,,,,,2,,,56,0
30144,note_on,,,,,0,0,1,,,,,0,,,80,103
30144,note_off,,,,,96,0,1,,,,,0,,,81,0
30144,note_off,,,,,192,0,4,,,,,3,,,52,0
30144,note_off,,,,,96,0,2,,,,,1,,,69,0
30144,note_on,,,,,0,0,2,,,,,1,,,68,96
30240,note_on,,,,,0,0,2,,,,,1,,,66,96
30240,note_off,,,,,96,0,2,,,,,1,,,68,0
30240,note_on,,,,,0,0,1,,,,,0,,,78,103
30240,note_off,,,,,96,0,1,,,,,0,,,80,0
30336,note_on,,,,,0,0,2,,,,,1,,,64,96
30336,note_on,,,,,0,0,3,,,,,2,,,59,87
30336,note_on,,,,,0,0,1,,,,,0,,,76,103
30336,note_off,,,,,96,0,1,,,,,0,,,78,0
30336,note_on,,,,,0,0,4,,,,,3,,,56,78
30336,note_off,,,,,192,0,4,,,,,3,,,54,0
30336,note_off,,,,,96,0,2,,,,,1,,,66,0
30336,note_off,,,,,192,0,3,,,,,2,,,57,0
30432,note_on,,,,,0,0,2,,,,,1,,,66,96
30432,note_off,,,,,96,0,2,,,,,1,,,64,0
30432,note_on,,,,,0,0,1,,,,,0,,,78,103
30432,note_off,,,,,96,0,1,,,,,0,,,76,0
30528,note_off,,,,,192,0,3,,,,,2,,,59,0
30528,note_on,,,,,0,0,1,,,,,0,,,76,103
30528,note_off,,,,,96,0,1,,,,,0,,,78,0
30528,note_off,,,,,192,0,4,,,,,3,,,56,0
30528,note_off,,,,,96,0,2,,,,,1,,,66,0
30528,note_on,,,,,0,0,2,,,,,1,,,64,96
30624,note_off,,,,,96,0,2,,,,,1,,,64,0
30624,note_on,,,,,0,0,1,,,,,0,,,75,103
30624,note_off,,,,,96,0,1,,,,,0,,,76,0
30624,note_on,,,,,0,0,2,,,,,1,,,63,96
30720,note_on,,,,,192,0,4,,,,,3,,,57,78
30720,note_off,,,,,96,0,2,,,,,1,,,63,0
30720,note_on,,,,,0,0,2,,,,,1,,,61,96
30720,note_on,,,,,0,0,1,,,,,0,,,73,103
30720,note_on,,,,,192,0,3,,,,,2,,,61,87
30720,note_off,,,,,96,0,1,,,,,0,,,75,0
30816,note_off,,,,,96,0,2,,,,,1,,,61,0
30816,note_off,,,,,96,0,1,,,,,0,,,73,0
30912,note_on,,,,,0,0,4,,,,,3,,,59,78
30912,note_on,,,,,96,0,2,,,,,1,,,66,96
30912,note_on,,,,,96,0,1,,,,,0,,,78,103
30912,note_off,,,,,192,0,4,,,,,3,,,57,0
30912,note_on,,,,,0,0,3,,,,,2,,,63,87
30912,note_off,,,,,192,0,3,,,,,2,,,61,0
31008,note_on,,,,,0,0,4,,,,,3,,,61,78
31008,note_off,,,,,96,0,4,,,,,3,,,59,0
31008,note_on,,,,,0,0,3,,,,,2,,,64,87
31008,note_off,,,,,96,0,3,,,,,2,,,63,0
31104,note_on,,,,,0,0,4,,,,,3,,,63,78
31104,note_on,,,,,0,0,3,,,,,2,,,66,87
31104,note_off,,,,,96,0,3,,,,,2,,,64,0
31104,note_off,,,,,96,0,4,,,,,3,,,61,0
31296,note_off,,,,,192,0,4,,,,,3,,,63,0
31296,note_on,,,,,0,0,1,,,,,0,,,75,103
31296,note_off,,,,,384,0,1,,,,,0,,,78,0
31296,note_off,,,,,384,0,2,,,,,1,,,66,0
31296,note_on,,,,,0,0,3,,,,,2,,,66,87
31296,note_off,,,,,192,0,3,,,,,2,,,66,0
31296,note_on,,,,,0,0,4,,,,,3,,,59,78
31296,note_on,,,,,0,0,2,,,,,1,,,63,96
31392,note_off,,,,,96,0,4,,,,,3,,,59,0
31392,note_off,,,,,96,0,3,,,,,2,,,66,0
31488,note_off,,,,,192,0,2,,,,,1,,,63,0
31488,note_on,,,,,96,0,3,,,,,2,,,64,87
31488,note_on,,,,,96,0,4,,,,,3,,,61,78
31488,note_on,,,,,0,0,1,,,,,0,,,76,103
31488,note_off,,,,,192,0,1,,,,,0,,,75,0
31488,note_on,,,,,0,0,2,,,,,1,,,64,96
31584,note_off,,,,,96,0,1,,,,,0,,,76,0
31584,note_off,,,,,96,0,2,,,,,1,,,64,0
31680,note_on,,,,,0,0,4,,,,,3,,,63,78
31680,note_off,,,,,192,0,4,,,,,3,,,61,0
31680,note_on,,,,,96,0,2,,,,,1,,,69,96
31680,note_on,,,,,0,0,3,,,,,2,,,66,87
31680,note_on,,,,,96,0,1,,,,,0,,,81,103
31680,note_off,,,,,192,0,3,,,,,2,,,64,0
31776,note_on,,,,,0,0,3,,,,,2,,,68,87
31776,note_off,,,,,96,0,3,,,,,2,,,66,0
31776,note_off,,,,,96,0,4,,,,,3,,,63,0
31776,note_on,,,,,0,0,4,,,,,3,,,64,78
31872,note_off,,,,,96,0,3,,,,,2,,,68,0
31872,note_on,,,,,0,0,3,,,,,2,,,69,87
31872,note_off,,,,,96,0,4,,,,,3,,,64,0
31872,note_on,,,,,0,0,4,,,,,3,,,66,78
32064,note_off,,,,,192,0,4,,,,,3,,,66,0
32064,note_off,,,,,384,0,1,,,,,0,,,81,0
32064,note_on,,,,,0,0,1,,,,,0,,,78,103
32064,note_off,,,,,192,0,3,,,,,2,,,69,0
32064,note_on,,,,,0,0,3,,,,,2,,,69,87
32064,note_off,,,,,384,0,2,,,,,1,,,69,0
32064,note_on,,,,,0,0,4,,,,,3,,,63,78
32064,note_on,,,,,0,0,2,,,,,1,,,66,96
32160,note_off,,,,,96,0,4,,,,,3,,,63,0
32160,note_off,,,,,96,0,3,,,,,2,,,69,0
32256,note_on,,,,,96,0,3,,,,,2,,,68,87
32256,note_on,,,,,96,0,4,,,,,3,,,64,78
32256,note_on,,,,,0,0,1,,,,,0,,,80,103
32256,note_off,,,,,192,0,1,,,,,0,,,78,0
32256,note_on,,,,,0,0,2,,,,,1,,,68,96
32256,note_off,,,,,192,0,2,,,,,1,,,66,0
32352,note_off,,,,,96,0,2,,,,,1,,,68,0
32352,note_off,,,,,96,0,1,,,,,0,,,80,0
32448,note_on,,,,,0,0,4,,,,,3,,,61,78
32448,note_off,,,,,192,0,4,,,,,3,,,64,0
32448,note_off,,,,,192,0,3,,,,,2,,,68,0
32448,note_on,,,,,0,0,3,,,,,2,,,64,87
32448,note_on,,,,,96,0,2,,,,,1,,,73,96
32448,note_on,,,,,96,0,1,,,,,0,,,85,103
32544,note_on,,,,,0,0,4,,,,,3,,,59,78
32544,note_off,,,,,96,0,4,,,,,3,,,61,0
32544,note_on,,,,,0,0,3,,,,,2,,,63,87
32544,note_off,,,,,96,0,3,,,,,2,,,64,0
32640,note_off,,,,,96,0,4,,,,,3,,,59,0
32640,note_on,,,,,0,0,4,,,,,3,,,57,78
32640,note_off,,,,,96,0,3,,,,,2,,,63,0
32640,note_on,,,,,0,0,3,,,,,2,,,61,87
32832,note_off,,,,,192,0,3,,,,,2,,,61,0
32832,note_on,,,,,0,0,3,,,,,2,,,64,87
32832,note_off,,,,,384,0,1,,,,,0,,,85,0
32832,note_on,,,,,0,0,1,,,,,0,,,82,103
32832,note_off,,,,,384,0,2,,,,,1,,,73,0
32832,note_on,,,,,0,0,2,,,,,1,,,70,96
32832,note_off,,,,,192,0,4,,,,,3,,,57,0
32832,note_on,,,,,0,0,4,,,,,3,,,60,78
32928,note_off,,,,,96,0,4,,,,,3,,,60,0
32928,note_off,,,,,96,0,3,,,,,2,,,64,0
33024,note_on,,,,,96,0,4,,,,,3,,,59,78
33024,note_off,,,,,192,0,2,,,,,1,,,70,0
33024,note_on,,,,,0,0,2,,,,,1,,,71,96
33024,note_on,,,,,0,0,1,,,,,0,,,82,103
33024,note_off,,,,,192,0,1,,,,,0,,,82,0
33024,note_on,,,,,96,0,3,,,,,2,,,68,87
33120,note_off,,,,,96,0,1,,,,,0,,,82,0
33120,note_on,,,,,0,0,1,,,,,0,,,83,103
33216,note_off,,,,,192,0,2,,,,,1,,,71,0
33216,note_off,,,,,192,0,3,,,,,2,,,68,0
33216,note_on,,,,,0,0,3,,,,,2,,,71,87
33216,note_on,,,,,0,0,1,,,,,0,,,81,103
33216,note_off,,,,,96,0,1,,,,,0,,,83,0
33216,note_on,,,,,0,0,2,,,,,1,,,76,96
33312,note_off,,,,,96,0,1,,,,,0,,,81,0
33312,note_on,,,,,0,0,1,,,,,0,,,80,103
33408,note_off,,,,,192,0,3,,,,,2,,,71,0
33408,note_on,,,,,0,0,3,,,,,2,,,69,87
33408,note_on,,,,,0,0,2,,,,,1,,,75,96
33408,note_off,,,,,192,0,2,,,,,1,,,76,0
33408,note_off,,,,,96,0,1,,,,,0,,,80,0
33408,note_on,,,,,0,0,1,,,,,0,,,78,103
33504,note_on,,,,,0,0,1,,,,,0,,,80,103
33504,note_off,,,,,96,0,1,,,,,0,,,78,0
33600,note_off,,,,,192,0,3,,,,,2,,,69,0
33600,note_off,,,,,96,0,1,,,,,0,,,80,0
33600,note_on,,,,,0,0,1,,,,,0,,,81,103
33600,note_on,,,,,0,0,3,,,,,2,,,63,87
33600,note_on,,,,,0,0,2,,,,,1,,,69,96
33600,note_off,,,,,192,0,2,,,,,1,,,75,0
33696,note_off,,,,,96,0,1,,,,,0,,,81,0
33696,note_on,,,,,0,0,1,,,,,0,,,78,103
33792,note_on,,,,,0,0,2,,,,,1,,,68,96
33792,note_off,,,,,192,0,2,,,,,1,,,69,0
33792,note_on,,,,,0,0,3,,,,,2,,,64,87
33792,note_off,,,,,192,0,3,,,,,2,,,63,0
33792,note_on,,,,,0,0,4,,,,,3,,,52,78
33792,note_off,,,,,768,0,4,,,,,3,,,59,0
33792,note_on,,,,,0,0,1,,,,,0,,,76,103
33792,note_off,,,,,96,0,1,,,,,0,,,78,0
33888,note_off,,,,,96,0,1,,,,,0,,,76,0
33888,note_off,,,,,96,0,4,,,,,3,,,52,0
33888,note_off,,,,,96,0,3,,,,,2,,,64,0
33888,note_off,,,,,96,0,2,,,,,1,,,68,0
33984,note_on,,,,,96,0,4,,,,,3,,,52,78
33984,note_on,,,,,96,0,3,,,,,2,,,68,87
33984,note_on,,,,,96,0,1,,,,,0,,,88,103
33984,note_on,,,,,96,0,2,,,,,1,,,71,96
34080,note_off,,,,,96,0,1,,,,,0,,,88,0
34080,note_off,,,,,96,0,2,,,,,1,,,71,0
34080,note_off,,,,,96,0,4,,,,,3,,,52,0
34080,note_off,,,,,96,0,3,,,,,2,,,68,0
34176,note_on,,,,,96,0,4,,,,,3,,,52,78
34176,note_on,,,,,96,0,2,,,,,1,,,68,96
34176,note_on,,,,,96,0,3,,,,,2,,,64,87
34272,note_off,,,,,96,0,4,,,,,3,,,52,0
34272,note_off,,,,,96,0,2,,,,,1,,,68,0
34272,note_off,,,,,96,0,3,,,,,2,,,64,0
34368,note_on,,,,,96,0,4,,,,,3,,,52,78
34368,note_on,,,,,96,0,2,,,,,1,,,64,96
34368,note_on,,,,,96,0,3,,,,,2,,,64,87
34368,note_on,,,,,288,0,1,,,,,0,,,64,103
34464,note_on,,,,,0,0,1,,,,,0,,,66,103
34464,note_off,,,,,96,0,1,,,,,0,,,64,0
34464,note_on,,,,,0,0,4,,,,,3,,,54,78
34464,note_off,,,,,96,0,3,,,,,2,,,64,0
34464,note_off,,,,,96,0,4,,,,,3,,,52,0
34464,note_off,,,,,96,0,2,,,,,1,,,64,0
34464,note_on,,,,,0,0,2,,,,,1,,,66,96
34464,note_on,,,,,0,0,3,,,,,2,,,66,87
34560,note_off,,,,,96,0,1,,,,,0,,,66,0
34560,note_off,,,,,96,0,3,,,,,2,,,66,0
34560,note_on,,,,,0,0,3,,,,,2,,,68,87
34560,note_off,,,,,96,0,2,,,,,1,,,66,0
34560,note_on,,,,,0,0,2,,,,,1,,,68,96
34560,note_on,,,,,0,0,1,,,,,0,,,68,103
34560,note_on,,,,,0,0,4,,,,,3,,,56,78
34560,note_off,,,,,96,0,4,,,,,3,,,54,0
34656,note_on,,,,,0,0,2,,,,,1,,,66,96
34656,note_off,,,,,96,0,2,,,,,1,,,68,0
34656,note_on,,,,,0,0,1,,,,,0,,,66,103
34656,note_off,,,,,96,0,3,,,,,2,,,68,0
34656,note_on,,,,,0,0,3,,,,,2,,,66,87
34656,note_off,,,,,96,0,1,,,,,0,,,68,0
34656,note_off,,,,,96,0,4,,,,,3,,,56,0
34656,note_on,,,,,0,0,4,,,,,3,,,54,78
34752,note_on,,,,,0,0,2,,,,,1,,,64,96
34752,note_on,,,,,0,0,3,,,,,2,,,64,87
34752,note_off,,,,,96,0,3,,,,,2,,,66,0
34752,note_off,,,,,96,0,2,,,,,1,,,66,0
34752,note_on,,,,,0,0,4,,,,,3,,,52,78
34752,note_off,,,,,96,0,1,,,,,0,,,66,0
34752,note_on,,,,,0,0,1,,,,,0,,,64,103
34752,note_off,,,,,96,0,4,,,,,3,,,54,0
34848,note_off,,,,,96,0,2,,,,,1,,,64,0
34848,note_on,,,,,0,0,2,,,,,1,,,63,96
34848,note_off,,,,,96,0,1,,,,,0,,,64,0
34848,note_off,,,,,96,0,4,,,,,3,,,52,0
34848,note_on,,,,,0,0,4,,,,,3,,,51,78
34848,note_off,,,,,96,0,3,,,,,2,,,64,0
34848,note_on,,,,,0,0,3,,,,,2,,,63,87
34848,note_on,,,,,0,0,1,,,,,0,,,63,103
34944,note_off,,,,,96,0,1,,,,,0,,,63,0
34944,note_on,,,,,0,0,1,,,,,0,,,61,103
34944,note_on,,,,,0,0,3,,,,,2,,,61,87
34944,note_off,,,,,96,0,2,,,,,1,,,63,0
34944,note_off,,,,,96,0,3,,,,,2,,,63,0
34944,note_on,,,,,0,0,2,,,,,1,,,61,96
34944,note_off,,,,,96,0,4,,,,,3,,,51,0
34944,note_on,,,,,0,0,4,,,,,3,,,49,78
35040,note_off,,,,,96,0,4,,,,,3,,,49,0
35040,note_on,,,,,0,0,4,,,,,3,,,51,78
35040,note_off,,,,,96,0,2,,,,,1,,,61,0
35040,note_on,,,,,0,0,2,,,,,1,,,63,96
35040,note_on,,,,,0,0,1,,,,,0,,,63,103
35040,note_off,,,,,96,0,3,,,,,2,,,61,0
35040,note_on,,,,,0,0,3,,,,,2,,,63,87
35040,note_off,,,,,96,0,1,,,,,0,,,61,0
35136,note_off,,,,,96,0,4,,,,,3,,,51,0
35136,note_on,,,,,0,0,4,,,,,3,,,49,78
35136,note_off,,,,,96,0,3,,,,,2,,,63,0
35136,note_on,,,,,0,0,3,,,,,2,,,61,87
35136,note_off,,,,,96,0,1,,,,,0,,,63,0
35136,note_on,,,,,0,0,2,,,,,1,,,61,96
35136,note_off,,,,,96,0,2,,,,,1,,,63,0
35136,note_on,,,,,0,0,1,,,,,0,,,61,103
35232,note_on,,,,,0,0,3,,,,,2,,,59,87
35232,note_on,,,,,0,0,2,,,,,1,,,59,96
35232,note_off,,,,,96,0,2,,,,,1,,,61,0
35232,note_on,,,,,0,0,4,,,,,3,,,47,78
35232,note_off,,,,,96,0,4,,,,,3,,,49,0
35232,note_off,,,,,96,0,1,,,,,0,,,61,0
35232,note_on,,,,,0,0,1,,,,,0,,,59,103
35232,note_off,,,,,96,0,3,,,,,2,,,61,0
35328,note_off,,,,,96,0,3,,,,,2,,,59,0
35328,note_off,,,,,96,0,4,,,,,3,,,47,0
35328,note_on,,,,,0,0,4,,,,,3,,,46,78
35328,note_on,,,,,0,0,1,,,,,0,,,58,103
35328,note_off,,,,,96,0,1,,,,,0,,,59,0
35328,note_on,,,,,0,0,2,,,,,1,,,58,96
35328,note_off,,,,,96,0,2,,,,,1,,,59,0
35328,note_on,,,,,0,0,3,,,,,2,,,58,87
35360,note_off,,,,,32,0,1,,,,,0,,,58,0
35424,note_off,,,,,96,0,4,,,,,3,,,46,0
35424,note_off,,,,,96,0,3,,,,,2,,,58,0
35424,note_off,,,,,96,0,2,,,,,1,,,58,0
35424,note_on,,,,,64,0,1,,,,,0,,,61,103
35456,note_off,,,,,32,0,1,,,,,0,,,61,0
35520,note_on,,,,,0,0,2,,,,,1,,,66,96
35520,note_on,,,,,96,0,2,,,,,1,,,61,96
35520,note_on,,,,,96,0,3,,,,,2,,,64,87
35520,note_on,,,,,0,0,3,,,,,2,,,61,87
35520,note_on,,,,,64,0,1,,,,,0,,,66,103
35520,note_on,,,,,96,0,4,,,,,3,,,58,78
35552,note_off,,,,,32,0,1,,,,,0,,,66,0
35616,note_on,,,,,64,0,1,,,,,0,,,70,103
35648,note_off,,,,,32,0,1,,,,,0,,,70,0
35712,note_on,,,,,64,0,1,,,,,0,,,78,103
35808,note_off,,,,,96,0,1,,,,,0,,,78,0
35904,note_off,,,,,0,0,3,,,,,2,,,61,0
35904,note_on,,,,,96,0,1,,,,,0,,,76,103
35904,note_off,,,,,384,0,3,,,,,2,,,64,0
35904,note_off,,,,,384,0,2,,,,,1,,,61,0
35904,note_off,,,,,0,0,2,,,,,1,,,66,0
35904,note_on,,,,,0,0,2,,,,,1,,,64,96
35904,note_off,,,,,384,0,4,,,,,3,,,58,0
36000,note_off,,,,,96,0,1,,,,,0,,,76,0
36000,note_on,,,,,0,0,2,,,,,1,,,66,96
36000,note_off,,,,,96,0,2,,,,,1,,,64,0
36000,note_on,,,,,0,0,1,,,,,0,,,78,103
36096,note_on,,,,,0,0,2,,,,,1,,,68,96
36096,note_off,,,,,96,0,2,,,,,1,,,66,0
36096,note_on,,,,,0,0,1,,,,,0,,,80,103
36096,note_off,,,,,96,0,1,,,,,0,,,78,0
36192,note_on,,,,,0,0,2,,,,,1,,,66,96
36192,note_off,,,,,96,0,2,,,,,1,,,68,0
36192,note_on,,,,,0,0,1,,,,,0,,,78,103
36192,note_off,,,,,96,0,1,,,,,0,,,80,0
36288,note_on,,,,,0,0,1,,,,,0,,,76,103
36288,note_off,,,,,96,0,1,,,,,0,,,78,0
36288,note_on,,,,,0,0,2,,,,,1,,,64,96
36288,note_off,,,,,96,0,2,,,,,1,,,66,0
36384,note_on,,,,,0,0,2,,,,,1,,,63,96
36384,note_off,,,,,96,0,2,,,,,1,,,64,0
36384,note_on,,,,,0,0,1,,,,,0,,,75,103
36384,note_off,,,,,96,0,1,,,,,0,,,76,0
36480,note_on,,,,,0,0,2,,,,,1,,,61,96
36480,note_off,,,,,96,0,2,,,,,1,,,63,0
36480,note_on,,,,,0,0,1,,,,,0,,,73,103
36480,note_off,,,,,96,0,1,,,,,0,,,75,0
36576,note_on,,,,,0,0,2,,,,,1,,,63,96
36576,note_off,,,,,96,0,2,,,,,1,,,61,0
36576,note_on,,,,,0,0,1,,,,,0,,,75,103
36576,note_off,,,,,96,0,1,,,,,0,,,73,0
36672,note_on,,,,,0,0,2,,,,,1,,,61,96
36672,note_on,,,,,0,0,1,,,,,0,,,73,103
36672,note_off,,,,,96,0,2,,,,,1,,,63,0
36672,note_off,,,,,96,0,1,,,,,0,,,75,0
36768,note_off,,,,,96,0,1,,,,,0,,,73,0
36768,note_on,,,,,0,0,1,,,,,0,,,71,103
36768,note_off,,,,,96,0,2,,,,,1,,,61,0
36768,note_on,,,,,0,0,2,,,,,1,,,59,96
36864,note_off,,,,,96,0,1,,,,,0,,,71,0
36864,note_on,,,,,0,0,1,,,,,0,,,70,103
36864,note_off,,,,,96,0,2,,,,,1,,,59,0
36864,note_on,,,,,0,0,2,,,,,1,,,58,96
36912,note_off,,,,,48,0,1,,,,,0,,,70,0
36960,note_off,,,,,96,0,2,,,,,1,,,58,0
36960,note_on,,,,,48,0,1,,,,,0,,,78,103
37008,note_off,,,,,48,0,1,,,,,0,,,78,0
37056,note_on,,,,,96,0,2,,,,,1,,,73,96
37056,note_on,,,,,0,0,3,,,,,2,,,66,87
37056,note_on,,,,,0,0,2,,,,,1,,,76,96
37056,note_on,,,,,1152,0,3,,,,,2,,,58,87
37056,note_on,,,,,1152,0,4,,,,,3,,,58,78
37056,note_on,,,,,48,0,1,,,,,0,,,82,103
37104,note_off,,,,,48,0,1,,,,,0,,,82,0
37152,note_on,,,,,48,0,1,,,,,0,,,85,103
37200,note_off,,,,,48,0,1,,,,,0,,,85,0
37248,note_on,,,,,48,0,1,,,,,0,,,90,103
37344,note_off,,,,,0,0,2,,,,,1,,,76,0
37344,note_on,,,,,0,0,2,,,,,1,,,66,96
37344,note_off,,,,,288,0,2,,,,,1,,,73,0
37392,note_off,,,,,48,0,2,,,,,1,,,66,0
37440,note_off,,,,,0,0,3,,,,,2,,,66,0
37440,note_on,,,,,48,0,2,,,,,1,,,70,96
37440,note_off,,,,,384,0,4,,,,,3,,,58,0
37440,note_off,,,,,384,0,3,,,,,2,,,58,0
37488,note_off,,,,,48,0,2,,,,,1,,,70,0
37536,note_on,,,,,48,0,2,,,,,1,,,73,96
37584,note_off,,,,,48,0,2,,,,,1,,,73,0
37632,note_on,,,,,48,0,2,,,,,1,,,76,96
37632,note_on,,,,,0,0,3,,,,,2,,,61,87
37632,note_on,,,,,192,0,3,,,,,2,,,70,87
37728,note_on,,,,,288,0,4,,,,,3,,,54,78
37776,note_off,,,,,48,0,4,,,,,3,,,54,0
37824,note_on,,,,,48,0,4,,,,,3,,,58,78
37824,note_off,,,,,192,0,3,,,,,2,,,70,0
37824,note_off,,,,,0,0,3,,,,,2,,,61,0
37824,note_on,,,,,0,0,3,,,,,2,,,70,87
37824,note_on,,,,,0,0,3,,,,,2,,,61,87
37824,note_off,,,,,192,0,2,,,,,1,,,76,0
37872,note_off,,,,,48,0,4,,,,,3,,,58,0
37920,note_on,,,,,48,0,4,,,,,3,,,61,78
37968,note_off,,,,,48,0,4,,,,,3,,,61,0
38016,note_on,,,,,48,0,4,,,,,3,,,64,78
38112,note_on,,,,,288,0,2,,,,,1,,,64,96
38160,note_off,,,,,48,0,2,,,,,1,,,64,0
38208,note_off,,,,,384,0,3,,,,,2,,,70,0
38208,note_off,,,,,0,0,3,,,,,2,,,61,0
38208,note_on,,,,,0,0,3,,,,,2,,,61,87
38208,note_on,,,,,0,0,3,,,,,2,,,70,87
38208,note_off,,,,,192,0,4,,,,,3,,,64,0
38208,note_on,,,,,48,0,2,,,,,1,,,66,96
38256,note_off,,,,,48,0,2,,,,,1,,,66,0
38304,note_on,,,,,48,0,2,,,,,1,,,70,96
38352,note_off,,,,,48,0,2,,,,,1,,,70,0
38400,note_on,,,,,48,0,2,,,,,1,,,76,96
38496,note_on,,,,,288,0,4,,,,,3,,,54,78
38544,note_off,,,,,48,0,4,,,,,3,,,54,0
38592,note_off,,,,,0,0,3,,,,,2,,,70,0
38592,note_on,,,,,0,0,3,,,,,2,,,70,87
38592,note_on,,,,,0,0,3,,,,,2,,,61,87
38592,note_off,,,,,192,0,2,,,,,1,,,76,0
38592,note_off,,,,,384,0,3,,,,,2,,,61,0
38592,note_on,,,,,48,0,4,,,,,3,,,58,78
38640,note_off,,,,,48,0,4,,,,,3,,,58,0
38688,note_on,,,,,48,0,4,,,,,3,,,61,78
38736,note_off,,,,,48,0,4,,,,,3,,,61,0
38784,note_on,,,,,48,0,4,,,,,3,,,64,78
38880,note_on,,,,,288,0,2,,,,,1,,,64,96
38928,note_off,,,,,48,0,2,,,,,1,,,64,0
38976,note_off,,,,,384,0,3,,,,,2,,,70,0
38976,note_off,,,,,0,0,3,,,,,2,,,61,0
38976,note_on,,,,,0,0,3,,,,,2,,,70,87
38976,note_on,,,,,0,0,3,,,,,2,,,61,87
38976,note_off,,,,,1728,0,1,,,,,0,,,90,0
38976,note_on,,,,,48,0,2,,,,,1,,,66,96
38976,note_off,,,,,192,0,4,,,,,3,,,64,0
38976,note_on,,,,,0,0,1,,,,,0,,,90,103
39024,note_off,,,,,48,0,2,,,,,1,,,66,0
39072,note_on,,,,,48,0,2,,,,,1,,,70,96
39120,note_off,,,,,48,0,2,,,,,1,,,70,0
39168,note_on,,,,,48,0,2,,,,,1,,,73,96
39168,note_on,,,,,192,0,4,,,,,3,,,54,78
39168,note_on,,,,,0,0,3,,,,,2,,,64,87
39168,note_on,,,,,0,0,3,,,,,2,,,70,87
39168,note_off,,,,,0,0,3,,,,,2,,,61,0
39168,note_off,,,,,192,0,3,,,,,2,,,70,0
39360,note_off,,,,,192,0,4,,,,,3,,,54,0
39360,note_on,,,,,0,0,1,,,,,0,,,88,103
39360,note_off,,,,,192,0,2,,,,,1,,,73,0
39360,note_off,,,,,384,0,1,,,,,0,,,90,0
39360,note_off,,,,,0,0,3,,,,,2,,,64,0
39360,note_off,,,,,192,0,3,,,,,2,,,70,0
39456,note_off,,,,,96,0,1,,,,,0,,,88,0
39552,note_on,,,,,96,0,1,,,,,0,,,88,103
39552,note_on,,,,,192,0,4,,,,,3,,,56,78
39552,note_on,,,,,192,0,2,,,,,1,,,71,96
39552,note_on,,,,,192,0,3,,,,,2,,,71,87
39552,note_on,,,,,0,0,3,,,,,2,,,63,87
39744,note_off,,,,,0,0,3,,,,,2,,,63,0
39744,note_off,,,,,192,0,2,,,,,1,,,71,0
39744,note_off,,,,,192,0,3,,,,,2,,,71,0
39744,note_off,,,,,192,0,4,,,,,3,,,56,0
39744,note_on,,,,,0,0,1,,,,,0,,,87,103
39744,note_off,,,,,192,0,1,,,,,0,,,88,0
39840,note_off,,,,,96,0,1,,,,,0,,,87,0
39936,note_on,,,,,192,0,3,,,,,2,,,64,87
39936,note_on,,,,,96,0,1,,,,,0,,,87,103
39936,note_on,,,,,192,0,4,,,,,3,,,52,78
39936,note_on,,,,,192,0,2,,,,,1,,,68,96
40128,note_on,,,,,0,0,1,,,,,0,,,85,103
40128,note_off,,,,,192,0,1,,,,,0,,,87,0
40128,note_off,,,,,192,0,3,,,,,2,,,64,0
40128,note_off,,,,,192,0,2,,,,,1,,,68,0
40128,note_off,,,,,192,0,4,,,,,3,,,52,0
40224,note_off,,,,,96,0,1,,,,,0,,,85,0
40320,note_on,,,,,192,0,4,,,,,3,,,54,78
40320,note_on,,,,,192,0,3,,,,,2,,,61,87
40320,note_on,,,,,192,0,2,,,,,1,,,64,96
40320,note_on,,,,,96,0,1,,,,,0,,,85,103
40512,note_off,,,,,192,0,1,,,,,0,,,85,0
40512,note_on,,,,,0,0,1,,,,,0,,,82,103
40512,note_off,,,,,192,0,3,,,,,2,,,61,0
40512,note_off,,,,,192,0,2,,,,,1,,,64,0
40512,note_off,,,,,192,0,4,,,,,3,,,54,0
40608,note_off,,,,,96,0,1,,,,,0,,,82,0
40704,note_on,,,,,96,0,1,,,,,0,,,83,103
40704,note_on,,,,,192,0,2,,,,,1,,,63,96
40704,note_on,,,,,192,0,4,,,,,3,,,47,78
40704,note_on,,,,,192,0,3,,,,,2,,,59,87
40800,note_on,,,,,0,0,2,,,,,1,,,64,96
40800,note_off,,,,,96,0,3,,,,,2,,,59,0
40800,note_on,,,,,0,0,3,,,,,2,,,61,87
40800,note_off,,,,,96,0,2,,,,,1,,,63,0
40896,note_on,,,,,0,0,3,,,,,2,,,59,87
40896,note_off,,,,,96,0,2,,,,,1,,,64,0
40896,note_on,,,,,0,0,2,,,,,1,,,63,96
40896,note_off,,,,,96,0,3,,,,,2,,,61,0
40992,note_off,,,,,96,0,2,,,,,1,,,63,0
40992,note_on,,,,,0,0,2,,,,,1,,,61,96
40992,note_on,,,,,0,0,3,,,,,2,,,58,87
40992,note_off,,,,,96,0,3,,,,,2,,,59,0
41088,note_off,,,,,384,0,1,,,,,0,,,83,0
41088,note_off,,,,,384,0,4,,,,,3,,,47,0
41088,note_off,,,,,96,0,3,,,,,2,,,58,0
41088,note_on,,,,,0,0,3,,,,,2,,,59,87
41088,note_off,,,,,96,0,2,,,,,1,,,61,0
41088,note_on,,,,,0,0,2,,,,,1,,,63,96
41184,note_off,,,,,96,0,3,,,,,2,,,59,0
41184,note_on,,,,,0,0,3,,,,,2,,,61,87
41184,note_off,,,,,96,0,2,,,,,1,,,63,0
41184,note_on,,,,,0,0,2,,,,,1,,,64,96
41280,note_off,,,,,96,0,3,,,,,2,,,61,0
41280,note_on,,,,,0,0,3,,,,,2,,,59,87
41280,note_on,,,,,0,0,2,,,,,1,,,63,96
41280,note_off,,,,,96,0,2,,,,,1,,,64,0
41376,note_on,,,,,0,0,2,,,,,1,,,64,96
41376,note_on,,,,,0,0,3,,,,,2,,,61,87
41376,note_off,,,,,96,0,3,,,,,2,,,59,0
41376,note_off,,,,,96,0,2,,,,,1,,,63,0
41472,note_on,,,,,0,0,3,,,,,2,,,63,87
41472,note_off,,,,,96,0,3,,,,,2,,,61,0
41472,note_on,,,,,0,0,2,,,,,1,,,66,96
41472,note_off,,,,,96,0,2,,,,,1,,,64,0
41568,note_off,,,,,96,0,3,,,,,2,,,63,0
41568,note_off,,,,,96,0,2,,,,,1,,,66,0
41568,note_on,,,,,0,0,2,,,,,1,,,65,96
41568,note_on,,,,,0,0,3,,,,,2,,,62,87
41664,note_on,,,,,0,0,3,,,,,2,,,63,87
41664,note_off,,,,,96,0,2,,,,,1,,,65,0
41664,note_on,,,,,0,0,2,,,,,1,,,66,96
41664,note_off,,,,,96,0,3,,,,,2,,,62,0
41760,note_off,,,,,96,0,3,,,,,2,,,63,0
41760,note_on,,,,,0,0,3,,,,,2,,,61,87
41760,note_off,,,,,96,0,2,,,,,1,,,66,0
41760,note_on,,,,,0,0,2,,,,,1,,,64,96
41856,note_off,,,,,96,0,2,,,,,1,,,64,0
41856,note_on,,,,,0,0,2,,,,,1,,,63,96
41856,note_on,,,,,0,0,3,,,,,2,,,59,87
41856,note_off,,,,,96,0,3,,,,,2,,,61,0
41952,note_off,,,,,96,0,2,,,,,1,,,63,0
41952,note_on,,,,,0,0,2,,,,,1,,,61,96
41952,note_off,,,,,96,0,3,,,,,2,,,59,0
41952,note_on,,,,,0,0,3,,,,,2,,,58,87
42048,note_on,,,,,0,0,2,,,,,1,,,63,96
42048,note_off,,,,,96,0,3,,,,,2,,,58,0
42048,note_on,,,,,0,0,3,,,,,2,,,59,87
42048,note_off,,,,,96,0,2,,,,,1,,,61,0
42144,note_on,,,,,0,0,2,,,,,1,,,59,96
42144,note_off,,,,,96,0,2,,,,,1,,,63,0
42144,note_on,,,,,0,0,3,,,,,2,,,56,87
42144,note_off,,,,,96,0,3,,,,,2,,,59,0
42240,note_on,,,,,0,0,3,,,,,2,,,54,87
42240,note_on,,,,,1152,0,1,,,,,0,,,78,103
42240,note_off,,,,,96,0,2,,,,,1,,,59,0
42240,note_on,,,,,0,0,2,,,,,1,,,58,96
42240,note_off,,,,,96,0,3,,,,,2,,,56,0
42288,note_off,,,,,48,0,3,,,,,2,,,54,0
42288,note_off,,,,,48,0,2,,,,,1,,,58,0
42336,note_on,,,,,48,0,3,,,,,2,,,56,87
42336,note_on,,,,,48,0,2,,,,,1,,,59,96
42384,note_off,,,,,48,0,3,,,,,2,,,56,0
42384,note_off,,,,,48,0,2,,,,,1,,,59,0
42432,note_on,,,,,48,0,2,,,,,1,,,58,96
42432,note_on,,,,,48,0,3,,,,,2,,,54,87
42480,note_off,,,,,48,0,3,,,,,2,,,54,0
42480,note_off,,,,,48,0,2,,,,,1,,,58,0
42528,note_on,,,,,48,0,3,,,,,2,,,56,87
42528,note_on,,,,,48,0,2,,,,,1,,,59,96
42576,note_off,,,,,48,0,2,,,,,1,,,59,0
42576,note_off,,,,,48,0,3,,,,,2,,,56,0
42624,note_on,,,,,48,0,2,,,,,1,,,61,96
42624,note_on,,,,,48,0,3,,,,,2,,,58,87
42720,note_off,,,,,96,0,2,,,,,1,,,61,0
42720,note_off,,,,,96,0,3,,,,,2,,,58,0
42720,note_on,,,,,0,0,1,,,,,0,,,80,103
42720,note_off,,,,,480,0,1,,,,,0,,,78,0
42816,note_off,,,,,96,0,1,,,,,0,,,80,0
42816,note_on,,,,,0,0,1,,,,,0,,,76,103
42912,note_on,,,,,0,0,1,,,,,0,,,75,103
42912,note_off,,,,,96,0,1,,,,,0,,,76,0
43008,note_on,,,,,288,0,3,,,,,2,,,54,87
43008,note_off,,,,,96,0,1,,,,,0,,,75,0
43008,note_on,,,,,0,0,1,,,,,0,,,73,103
43008,note_on,,,,,288,0,2,,,,,1,,,58,96
43056,note_off,,,,,48,0,2,,,,,1,,,58,0
43056,note_off,,,,,48,0,3,,,,,2,,,54,0
43104,note_on,,,,,48,0,2,,,,,1,,,59,96
43104,note_on,,,,,48,0,3,,,,,2,,,56,87
43152,note_off,,,,,48,0,3,,,,,2,,,56,0
43152,note_off,,,,,48,0,2,,,,,1,,,59,0
43200,note_on,,,,,48,0,2,,,,,1,,,58,96
43200,note_on,,,,,48,0,3,,,,,2,,,54,87
43248,note_off,,,,,48,0,3,,,,,2,,,54,0
43248,note_off,,,,,48,0,2,,,,,1,,,58,0
43296,note_on,,,,,48,0,3,,,,,2,,,56,87
43296,note_on,,,,,48,0,2,,,,,1,,,59,96
43344,note_off,,,,,48,0,2,,,,,1,,,59,0
43344,note_off,,,,,48,0,3,,,,,2,,,56,0
43392,note_on,,,,,48,0,3,,,,,2,,,58,87
43392,note_on,,,,,48,0,2,,,,,1,,,61,96
43488,note_off,,,,,96,0,2,,,,,1,,,61,0
43488,note_off,,,,,96,0,3,,,,,2,,,58,0
43488,note_off,,,,,480,0,1,,,,,0,,,73,0
43488,note_on,,,,,0,0,1,,,,,0,,,75,103
43584,note_off,,,,,96,0,1,,,,,0,,,75,0
43584,note_on,,,,,0,0,1,,,,,0,,,76,103
43680,note_off,,,,,96,0,1,,,,,0,,,76,0
43680,note_on,,,,,0,0,1,,,,,0,,,80,103
43776,note_off,,,,,96,0,1,,,,,0,,,80,0
43776,note_on,,,,,288,0,2,,,,,1,,,63,96
43776,note_on,,,,,0,0,1,,,,,0,,,78,103
43776,note_on,,,,,288,0,3,,,,,2,,,59,87
43824,note_off,,,,,48,0,2,,,,,1,,,63,0
43824,note_off,,,,,48,0,3,,,,,2,,,59,0
43872,note_on,,,,,48,0,2,,,,,1,,,64,96
43872,note_on,,,,,48,0,3,,,,,2,,,61,87
43920,note_off,,,,,48,0,2,,,,,1,,,64,0
43920,note_off,,,,,48,0,3,,,,,2,,,61,0
43968,note_on,,,,,48,0,2,,,,,1,,,63,96
43968,note_on,,,,,48,0,3,,,,,2,,,59,87
44016,note_off,,,,,48,0,3,,,,,2,,,59,0
44016,note_off,,,,,48,0,2,,,,,1,,,63,0
44064,note_on,,,,,48,0,3,,,,,2,,,61,87
44064,note_on,,,,,48,0,2,,,,,1,,,64,96
44112,note_off,,,,,48,0,2,,,,,1,,,64,0
44112,note_off,,,,,48,0,3,,,,,2,,,61,0
44160,note_on,,,,,48,0,2,,,,,1,,,66,96
44160,note_on,,,,,48,0,3,,,,,2,,,63,87
44256,note_off,,,,,96,0,3,,,,,2,,,63,0
44256,note_off,,,,,480,0,1,,,,,0,,,78,0
44256,note_on,,,,,0,0,1,,,,,0,,,83,103
44256,note_off,,,,,96,0,2,,,,,1,,,66,0
44352,note_off,,,,,96,0,1,,,,,0,,,83,0
44352,note_on,,,,,0,0,1,,,,,0,,,78,103
44448,note_off,,,,,96,0,1,,,,,0,,,78,0
44448,note_on,,,,,0,0,1,,,,,0,,,75,103
44544,note_on,,,,,288,0,3,,,,,2,,,59,87
44544,note_on,,,,,288,0,2,,,,,1,,,63,96
44544,note_off,,,,,96,0,1,,,,,0,,,75,0
44544,note_on,,,,,0,0,1,,,,,0,,,71,103
44592,note_off,,,,,48,0,3,,,,,2,,,59,0
44592,note_off,,,,,48,0,2,,,,,1,,,63,0
44640,note_on,,,,,48,0,2,,,,,1,,,64,96
44640,note_on,,,,,48,0,3,,,,,2,,,61,87
44688,note_off,,,,,48,0,3,,,,,2,,,61,0
44688,note_off,,,,,48,0,2,,,,,1,,,64,0
44736,note_on,,,,,48,0,2,,,,,1,,,63,96
44736,note_on,,,,,48,0,3,,,,,2,,,59,87
44784,note_off,,,,,48,0,3,,,,,2,,,59,0
44784,note_off,,,,,48,0,2,,,,,1,,,63,0
44832,note_on,,,,,48,0,2,,,,,1,,,64,96
44832,note_on,,,,,48,0,3,,,,,2,,,61,87
44880,note_off,,,,,48,0,2,,,,,1,,,64,0
44880,note_off,,,,,48,0,3,,,,,2,,,61,0
44928,note_on,,,,,48,0,3,,,,,2,,,63,87
44928,note_on,,,,,48,0,2,,,,,1,,,66,96
44976,note_off,,,,,48,0,2,,,,,1,,,66,0
45024,note_on,,,,,0,0,1,,,,,0,,,75,103
45024,note_off,,,,,480,0,1,,,,,0,,,71,0
45024,note_off,,,,,96,0,3,,,,,2,,,63,0
45120,note_on,,,,,0,0,1,,,,,0,,,80,103
45120,note_off,,,,,96,0,1,,,,,0,,,75,0
45216,note_on,,,,,0,0,1,,,,,0,,,77,103
45216,note_off,,,,,96,0,1,,,,,0,,,80,0
45312,note_on,,,,,0,0,1,,,,,0,,,78,103
45312,note_off,,,,,96,0,1,,,,,0,,,77,0
45312,note_on,,,,,288,0,3,,,,,2,,,54,87
45312,note_on,,,,,336,0,2,,,,,1,,,58,96
45360,note_off,,,,,48,0,3,,,,,2,,,54,0
45360,note_off,,,,,48,0,2,,,,,1,,,58,0
45408,note_on,,,,,48,0,3,,,,,2,,,56,87
45408,note_on,,,,,48,0,2,,,,,1,,,59,96
45456,note_off,,,,,48,0,2,,,,,1,,,59,0
45456,note_off,,,,,48,0,3,,,,,2,,,56,0
45504,note_on,,,,,48,0,3,,,,,2,,,54,87
45504,note_on,,,,,48,0,2,,,,,1,,,58,96
45552,note_off,,,,,48,0,3,,,,,2,,,54,0
45552,note_off,,,,,48,0,2,,,,,1,,,58,0
45600,note_on,,,,,48,0,2,,,,,1,,,59,96
45600,note_on,,,,,48,0,3,,,,,2,,,56,87
45648,note_off,,,,,48,0,2,,,,,1,,,59,0
45648,note_off,,,,,48,0,3,,,,,2,,,56,0
45696,note_on,,,,,48,0,2,,,,,1,,,61,96
45696,note_on,,,,,48,0,3,,,,,2,,,58,87
45792,note_off,,,,,96,0,2,,,,,1,,,61,0
45792,note_off,,,,,96,0,3,,,,,2,,,58,0
45792,note_off,,,,,480,0,1,,,,,0,,,78,0
45792,note_on,,,,,0,0,1,,,,,0,,,80,103
45888,note_off,,,,,96,0,1,,,,,0,,,80,0
45888,note_on,,,,,0,0,1,,,,,0,,,76,103
45984,note_on,,,,,0,0,1,,,,,0,,,75,103
45984,note_off,,,,,96,0,1,,,,,0,,,76,0
46080,note_on,,,,,288,0,2,,,,,1,,,58,96
46080,note_on,,,,,288,0,3,,,,,2,,,54,87
46080,note_on,,,,,4992,0,4,,,,,3,,,66,78
46080,note_on,,,,,0,0,1,,,,,0,,,73,103
46080,note_off,,,,,96,0,1,,,,,0,,,75,0
46128,note_off,,,,,48,0,2,,,,,1,,,58,0
46128,note_off,,,,,48,0,3,,,,,2,,,54,0
46176,note_on,,,,,48,0,2,,,,,1,,,59,96
46176,note_on,,,,,48,0,3,,,,,2,,,56,87
46224,note_off,,,,,48,0,2,,,,,1,,,59,0
46224,note_off,,,,,48,0,3,,,,,2,,,56,0
46272,note_on,,,,,48,0,3,,,,,2,,,54,87
46272,note_on,,,,,48,0,2,,,,,1,,,58,96
46320,note_off,,,,,48,0,3,,,,,2,,,54,0
46320,note_off,,,,,48,0,2,,,,,1,,,58,0
46368,note_on,,,,,48,0,3,,,,,2,,,56,87
46368,note_on,,,,,48,0,2,,,,,1,,,59,96
46416,note_off,,,,,48,0,3,,,,,2,,,56,0
46416,note_off,,,,,48,0,2,,,,,1,,,59,0
46464,note_on,,,,,48,0,2,,,,,1,,,61,96
46464,note_on,,,,,48,0,3,,,,,2,,,58,87
46560,note_off,,,,,96,0,3,,,,,2,,,58,0
46560,note_off,,,,,96,0,2,,,,,1,,,61,0
46560,note_on,,,,,0,0,4,,,,,3,,,68,78
46560,note_off,,,,,480,0,1,,,,,0,,,73,0
46560,note_on,,,,,0,0,1,,,,,0,,,75,103
46560,note_off,,,,,480,0,4,,,,,3,,,66,0
46656,note_off,,,,,96,0,4,,,,,3,,,68,0
46656,note_on,,,,,0,0,4,,,,,3,,,64,78
46656,note_off,,,,,96,0,1,,,,,0,,,75,0
46656,note_on,,,,,0,0,1,,,,,0,,,76,103
46752,note_on,,,,,0,0,4,,,,,3,,,62,78
46752,note_off,,,,,96,0,4,,,,,3,,,64,0
46752,note_off,,,,,96,0,1,,,,,0,,,76,0
46752,note_on,,,,,0,0,1,,,,,0,,,77,103
46848,note_off,,,,,96,0,1,,,,,0,,,77,0
46848,note_on,,,,,0,0,1,,,,,0,,,78,103
46848,note_off,,,,,96,0,4,,,,,3,,,62,0
46848,note_on,,,,,0,0,4,,,,,3,,,61,78
46848,note_on,,,,,288,0,3,,,,,2,,,54,87
46848,note_on,,,,,288,0,2,,,,,1,,,58,96
46896,note_off,,,,,48,0,3,,,,,2,,,54,0
46896,note_off,,,,,48,0,2,,,,,1,,,58,0
46944,note_on,,,,,48,0,3,,,,,2,,,56,87
46944,note_on,,,,,48,0,2,,,,,1,,,59,96
46992,note_off,,,,,48,0,3,,,,,2,,,56,0
46992,note_off,,,,,48,0,2,,,,,1,,,59,0
47040,note_on,,,,,48,0,3,,,,,2,,,54,87
47040,note_on,,,,,48,0,2,,,,,1,,,58,96
47088,note_off,,,,,48,0,2,,,,,1,,,58,0
47088,note_off,,,,,48,0,3,,,,,2,,,54,0
47136,note_on,,,,,48,0,2,,,,,1,,,59,96
47136,note_on,,,,,48,0,3,,,,,2,,,56,87
47184,note_off,,,,,48,0,2,,,,,1,,,59,0
47184,note_off,,,,,48,0,3,,,,,2,,,56,0
47232,note_on,,,,,48,0,3,,,,,2,,,58,87
47232,note_on,,,,,48,0,2,,,,,1,,,61,96
47328,note_off,,,,,96,0,3,,,,,2,,,58,0
47328,note_off,,,,,480,0,4,,,,,3,,,61,0
47328,note_on,,,,,0,0,4,,,,,3,,,63,78
47328,note_off,,,,,480,0,1,,,,,0,,,78,0
47328,note_on,,,,,0,0,1,,,,,0,,,80,103
47328,note_off,,,,,96,0,2,,,,,1,,,61,0
47424,note_on,,,,,0,0,4,,,,,3,,,64,78
47424,note_off,,,,,96,0,1,,,,,0,,,80,0
47424,note_on,,,,,0,0,1,,,,,0,,,76,103
47424,note_off,,,,,96,0,4,,,,,3,,,63,0
47520,note_off,,,,,96,0,4,,,,,3,,,64,0
47520,note_on,,,,,0,0,4,,,,,3,,,65,78
47520,note_off,,,,,96,0,1,,,,,0,,,76,0
47520,note_on,,,,,0,0,1,,,,,0,,,74,103
47616,note_on,,,,,0,0,1,,,,,0,,,73,103
47616,note_on,,,,,288,0,2,,,,,1,,,58,96
47616,note_off,,,,,96,0,1,,,,,0,,,74,0
47616,note_on,,,,,288,0,3,,,,,2,,,54,87
47616,note_off,,,,,96,0,4,,,,,3,,,65,0
47616,note_on,,,,,0,0,4,,,,,3,,,66,78
47664,note_off,,,,,48,0,2,,,,,1,,,58,0
47664,note_off,,,,,48,0,3,,,,,2,,,54,0
47712,note_on,,,,,48,0,2,,,,,1,,,59,96
47712,note_on,,,,,48,0,3,,,,,2,,,56,87
47760,note_off,,,,,48,0,3,,,,,2,,,56,0
47760,note_off,,,,,48,0,2,,,,,1,,,59,0
47808,note_on,,,,,48,0,2,,,,,1,,,58,96
47808,note_on,,,,,48,0,3,,,,,2,,,54,87
47856,note_off,,,,,48,0,2,,,,,1,,,58,0
47856,note_off,,,,,48,0,3,,,,,2,,,54,0
47904,note_on,,,,,48,0,3,,,,,2,,,56,87
47904,note_on,,,,,48,0,2,,,,,1,,,59,96
47952,note_off,,,,,48,0,3,,,,,2,,,56,0
47952,note_off,,,,,48,0,2,,,,,1,,,59,0
48000,note_on,,,,,48,0,3,,,,,2,,,58,87
48000,note_on,,,,,48,0,2,,,,,1,,,61,96
48096,note_off,,,,,96,0,2,,,,,1,,,61,0
48096,note_on,,,,,0,0,4,,,,,3,,,68,78
48096,note_off,,,,,96,0,3,,,,,2,,,58,0
48096,note_off,,,,,480,0,4,,,,,3,,,66,0
48096,note_on,,,,,0,0,1,,,,,0,,,75,103
48096,note_off,,,,,480,0,1,,,,,0,,,73,0
48192,note_off,,,,,96,0,1,,,,,0,,,75,0
48192,note_on,,,,,0,0,1,,,,,0,,,76,103
48192,note_off,,,,,96,0,4,,,,,3,,,68,0
48192,note_on,,,,,0,0,4,,,,,3,,,64,78
48288,note_off,,,,,96,0,1,,,,,0,,,76,0
48288,note_on,,,,,0,0,1,,,,,0,,,77,103
48288,note_off,,,,,96,0,4,,,,,3,,,64,0
48288,note_on,,,,,0,0,4,,,,,3,,,62,78
48384,note_off,,,,,96,0,4,,,,,3,,,62,0
48384,note_on,,,,,0,0,4,,,,,3,,,61,78
48384,note_on,,,,,0,0,1,,,,,0,,,78,103
48384,note_off,,,,,96,0,1,,,,,0,,,77,0
48576,note_on,,,,,0,0,4,,,,,3,,,66,78
48576,note_off,,,,,192,0,4,,,,,3,,,61,0
48576,note_on,,,,,480,0,2,,,,,1,,,73,96
48576,note_on,,,,,480,0,3,,,,,2,,,70,87
48768,note_off,,,,,192,0,4,,,,,3,,,66,0
48768,note_off,,,,,192,0,3,,,,,2,,,70,0
48768,note_off,,,,,384,0,1,,,,,0,,,78,0
48768,note_on,,,,,0,0,4,,,,,3,,,65,78
48768,note_off,,,,,192,0,2,,,,,1,,,73,0
48768,note_on,,,,,0,0,1,,,,,0,,,80,103
48960,note_on,,,,,192,0,2,,,,,1,,,73,96
48960,note_on,,,,,192,0,3,,,,,2,,,71,87
49152,note_off,,,,,384,0,4,,,,,3,,,65,0
49152,note_off,,,,,192,0,3,,,,,2,,,71,0
49152,note_off,,,,,384,0,1,,,,,0,,,80,0
49152,note_on,,,,,0,0,1,,,,,0,,,82,103
49152,note_off,,,,,192,0,2,,,,,1,,,73,0
49152,note_on,,,,,0,0,4,,,,,3,,,64,78
49344,note_on,,,,,192,0,2,,,,,1,,,73,96
49344,note_on,,,,,192,0,3,,,,,2,,,66,87
49536,note_off,,,,,384,0,4,,,,,3,,,64,0
49536,note_on,,,,,0,0,4,,,,,3,,,63,78
49536,note_off,,,,,192,0,3,,,,,2,,,66,0
49536,note_off,,,,,192,0,2,,,,,1,,,73,0
49536,note_off,,,,,384,0,1,,,,,0,,,82,0
49536,note_on,,,,,0,0,1,,,,,0,,,83,103
49728,note_on,,,,,192,0,3,,,,,2,,,66,87
49728,note_on,,,,,192,0,2,,,,,1,,,71,96
49920,note_off,,,,,384,0,4,,,,,3,,,63,0
49920,note_on,,,,,0,0,4,,,,,3,,,58,78
49920,note_off,,,,,192,0,3,,,,,2,,,66,0
49920,note_on,,,,,0,0,3,,,,,2,,,66,87
49920,note_off,,,,,192,0,2,,,,,1,,,71,0
49920,note_on,,,,,0,0,2,,,,,1,,,76,96
49920,note_off,,,,,384,0,1,,,,,0,,,83,0
49920,note_on,,,,,0,0,1,,,,,0,,,85,103
50688,note_off,,,,,768,0,3,,,,,2,,,66,0
50688,note_on,,,,,0,0,1,,,,,0,,,83,103
50688,note_off,,,,,768,0,2,,,,,1,,,76,0
50688,note_off,,,,,768,0,1,,,,,0,,,85,0
50688,note_off,,,,,768,0,4,,,,,3,,,58,0
50880,note_on,,,,,192,0,4,,,,,3,,,57,78
50880,note_on,,,,,192,0,2,,,,,1,,,63,96
50880,note_on,,,,,192,0,3,,,,,2,,,59,87
51072,note_off,,,,,192,0,2,,,,,1,,,63,0
51072,note_on,,,,,0,0,2,,,,,1,,,64,96
51072,note_on,,,,,0,0,4,,,,,3,,,56,78
51072,note_off,,,,,192,0,4,,,,,3,,,57,0
51264,note_off,,,,,576,0,1,,,,,0,,,83,0
51264,note_on,,,,,0,0,1,,,,,0,,,82,103
51264,note_off,,,,,384,0,3,,,,,2,,,59,0
51264,note_off,,,,,192,0,2,,,,,1,,,64,0
51264,note_on,,,,,0,0,4,,,,,3,,,52,78
51264,note_off,,,,,192,0,4,,,,,3,,,56,0
51360,note_on,,,,,0,0,1,,,,,0,,,80,103
51360,note_off,,,,,96,0,1,,,,,0,,,82,0
51456,note_off,,,,,96,0,1,,,,,0,,,80,0
51456,note_on,,,,,0,0,1,,,,,0,,,80,103
51456,note_on,,,,,192,0,2,,,,,1,,,59,96
51456,note_off,,,,,192,0,4,,,,,3,,,52,0
51456,note_on,,,,,0,0,4,,,,,3,,,54,78
51456,note_on,,,,,192,0,3,,,,,2,,,54,87
51552,note_on,,,,,0,0,3,,,,,2,,,59,87
51552,note_off,,,,,96,0,1,,,,,0,,,80,0
51552,note_on,,,,,0,0,2,,,,,1,,,63,96
51552,note_off,,,,,96,0,2,,,,,1,,,59,0
51552,note_off,,,,,96,0,3,,,,,2,,,54,0
51552,note_on,,,,,0,0,1,,,,,0,,,78,103
51648,note_off,,,,,96,0,3,,,,,2,,,59,0
51648,note_on,,,,,0,0,3,,,,,2,,,59,87
51648,note_off,,,,,192,0,4,,,,,3,,,54,0
51648,note_on,,,,,0,0,1,,,,,0,,,78,103
51648,note_off,,,,,96,0,1,,,,,0,,,78,0
51648,note_off,,,,,96,0,2,,,,,1,,,63,0
51648,note_on,,,,,0,0,2,,,,,1,,,63,96
51744,note_off,,,,,96,0,1,,,,,0,,,78,0
51744,note_on,,,,,0,0,1,,,,,0,,,75,103
51744,note_on,,,,,0,0,2,,,,,1,,,66,96
51744,note_on,,,,,0,0,3,,,,,2,,,63,87
51744,note_off,,,,,96,0,3,,,,,2,,,59,0
51744,note_off,,,,,96,0,2,,,,,1,,,63,0
51840,note_off,,,,,96,0,1,,,,,0,,,75,0
51840,note_on,,,,,0,0,1,,,,,0,,,78,103
51840,note_on,,,,,192,0,4,,,,,3,,,54,78
51840,note_on,,,,,0,0,2,,,,,1,,,58,96
51840,note_off,,,,,96,0,2,,,,,1,,,66,0
51840,note_off,,,,,96,0,3,,,,,2,,,63,0
51840,note_on,,,,,0,0,3,,,,,2,,,54,87
51936,note_on,,,,,0,0,1,,,,,0,,,76,103
51936,note_off,,,,,96,0,1,,,,,0,,,78,0
51936,note_off,,,,,96,0,2,,,,,1,,,58,0
51936,note_off,,,,,96,0,3,,,,,2,,,54,0
51936,note_on,,,,,0,0,3,,,,,2,,,58,87
51936,note_on,,,,,0,0,2,,,,,1,,,61,96
52032,note_off,,,,,96,0,2,,,,,1,,,61,0
52032,note_on,,,,,0,0,2,,,,,1,,,61,96
52032,note_on,,,,,0,0,3,,,,,2,,,58,87
52032,note_off,,,,,192,0,4,,,,,3,,,54,0
52032,note_off,,,,,96,0,1,,,,,0,,,76,0
52032,note_off,,,,,96,0,3,,,,,2,,,58,0
52032,note_on,,,,,0,0,1,,,,,0,,,76,103
52128,note_off,,,,,96,0,2,,,,,1,,,61,0
52128,note_off,,,,,96,0,1,,,,,0,,,76,0
52128,note_on,,,,,0,0,2,,,,,1,,,64,96
52128,note_on,,,,,0,0,1,,,,,0,,,73,103
52128,note_off,,,,,96,0,3,,,,,2,,,58,0
52128,note_on,,,,,0,0,3,,,,,2,,,61,87
52224,note_on,,,,,192,0,4,,,,,3,,,47,78
52224,note_off,,,,,96,0,3,,,,,2,,,61,0
52224,note_on,,,,,0,0,3,,,,,2,,,59,87
52224,note_on,,,,,0,0,1,,,,,0,,,83,103
52224,note_off,,,,,96,0,1,,,,,0,,,73,0
52224,note_off,,,,,96,0,2,,,,,1,,,64,0
52224,note_on,,,,,0,0,2,,,,,1,,,63,96
52320,note_off,,,,,96,0,2,,,,,1,,,63,0
52320,note_off,,,,,96,0,4,,,,,3,,,47,0
52320,note_off,,,,,96,0,3,,,,,2,,,59,0
52416,note_on,,,,,96,0,4,,,,,3,,,57,78
52416,note_on,,,,,96,0,3,,,,,2,,,59,87
52416,note_on,,,,,96,0,2,,,,,1,,,63,96
52608,note_off,,,,,192,0,2,,,,,1,,,63,0
52608,note_off,,,,,192,0,4,,,,,3,,,57,0
52608,note_on,,,,,0,0,4,,,,,3,,,56,78
52608,note_on,,,,,0,0,2,,,,,1,,,64,96
52800,note_off,,,,,192,0,2,,,,,1,,,64,0
52800,note_on,,,,,0,0,4,,,,,3,,,52,78
52800,note_on,,,,,0,0,1,,,,,0,,,82,103
52800,note_off,,,,,576,0,1,,,,,0,,,83,0
52800,note_off,,,,,192,0,4,,,,,3,,,56,0
52896,note_off,,,,,96,0,1,,,,,0,,,82,0
52896,note_on,,,,,0,0,1,,,,,0,,,80,103
52992,note_on,,,,,192,0,2,,,,,1,,,59,96
52992,note_on,,,,,0,0,4,,,,,3,,,54,78
52992,note_on,,,,,0,0,1,,,,,0,,,80,103
52992,note_off,,,,,192,0,4,,,,,3,,,52,0
52992,note_on,,,,,0,0,3,,,,,2,,,54,87
52992,note_off,,,,,576,0,3,,,,,2,,,59,0
52992,note_off,,,,,96,0,1,,,,,0,,,80,0
53088,note_on,,,,,0,0,1,,,,,0,,,78,103
53088,note_off,,,,,96,0,4,,,,,3,,,54,0
53088,note_on,,,,,0,0,3,,,,,2,,,59,87
53088,note_off,,,,,96,0,3,,,,,2,,,54,0
53088,note_off,,,,,96,0,1,,,,,0,,,80,0
53088,note_off,,,,,96,0,2,,,,,1,,,59,0
53088,note_on,,,,,0,0,2,,,,,1,,,63,96
53184,note_on,,,,,96,0,4,,,,,3,,,54,78
53184,note_off,,,,,96,0,1,,,,,0,,,78,0
53184,note_off,,,,,96,0,2,,,,,1,,,63,0
53184,note_on,,,,,0,0,1,,,,,0,,,78,103
53184,note_off,,,,,96,0,3,,,,,2,,,59,0
53184,note_on,,,,,0,0,2,,,,,1,,,63,96
53184,note_on,,,,,0,0,3,,,,,2,,,59,87
53280,note_on,,,,,0,0,2,,,,,1,,,66,96
53280,note_off,,,,,96,0,2,,,,,1,,,63,0
53280,note_on,,,,,0,0,3,,,,,2,,,63,87
53280,note_off,,,,,96,0,1,,,,,0,,,78,0
53280,note_on,,,,,0,0,1,,,,,0,,,75,103
53280,note_off,,,,,96,0,3,,,,,2,,,59,0
53376,note_on,,,,,0,0,2,,,,,1,,,58,96
53376,note_off,,,,,96,0,2,,,,,1,,,66,0
53376,note_on,,,,,0,0,3,,,,,2,,,54,87
53376,note_off,,,,,96,0,3,,,,,2,,,63,0
53376,note_off,,,,,96,0,1,,,,,0,,,75,0
53376,note_on,,,,,0,0,1,,,,,0,,,78,103
53472,note_off,,,,,96,0,1,,,,,0,,,78,0
53472,note_on,,,,,0,0,1,,,,,0,,,76,103
53472,note_off,,,,,96,0,2,,,,,1,,,58,0
53472,note_on,,,,,0,0,2,,,,,1,,,61,96
53472,note_off,,,,,96,0,3,,,,,2,,,54,0
53472,note_on,,,,,0,0,3,,,,,2,,,58,87
53568,note_on,,,,,0,0,1,,,,,0,,,76,103
53568,note_on,,,,,0,0,4,,,,,3,,,54,78
53568,note_off,,,,,96,0,3,,,,,2,,,58,0
53568,note_on,,,,,0,0,3,,,,,2,,,58,87
53568,note_off,,,,,384,0,4,,,,,3,,,54,0
53568,note_on,,,,,0,0,2,,,,,1,,,61,96
53568,note_off,,,,,96,0,2,,,,,1,,,61,0
53568,note_off,,,,,96,0,1,,,,,0,,,76,0
53664,note_on,,,,,0,0,3,,,,,2,,,61,87
53664,note_off,,,,,96,0,3,,,,,2,,,58,0
53664,note_off,,,,,96,0,2,,,,,1,,,61,0
53664,note_off,,,,,96,0,1,,,,,0,,,76,0
53664,note_on,,,,,0,0,1,,,,,0,,,73,103
53664,note_on,,,,,0,0,2,,,,,1,,,64,96
53760,note_off,,,,,96,0,2,,,,,1,,,64,0
53760,note_on,,,,,0,0,2,,,,,1,,,59,96
53760,note_off,,,,,96,0,1,,,,,0,,,73,0
53760,note_on,,,,,0,0,1,,,,,0,,,80,103
53760,note_off,,,,,96,0,3,,,,,2,,,61,0
53760,note_on,,,,,0,0,3,,,,,2,,,54,87
53856,note_off,,,,,96,0,1,,,,,0,,,80,0
53856,note_on,,,,,0,0,1,,,,,0,,,78,103
53856,note_off,,,,,96,0,3,,,,,2,,,54,0
53856,note_on,,,,,0,0,3,,,,,2,,,59,87
53856,note_off,,,,,96,0,2,,,,,1,,,59,0
53856,note_on,,,,,0,0,2,,,,,1,,,63,96
53952,note_on,,,,,0,0,3,,,,,2,,,59,87
53952,note_off,,,,,384,0,4,,,,,3,,,54,0
53952,note_on,,,,,0,0,4,,,,,3,,,54,78
53952,note_off,,,,,96,0,2,,,,,1,,,63,0
53952,note_on,,,,,0,0,2,,,,,1,,,63,96
53952,note_off,,,,,96,0,1,,,,,0,,,78,0
53952,note_on,,,,,0,0,1,,,,,0,,,78,103
53952,note_off,,,,,96,0,3,,,,,2,,,59,0
54048,note_off,,,,,96,0,2,,,,,1,,,63,0
54048,note_on,,,,,0,0,2,,,,,1,,,66,96
54048,note_off,,,,,96,0,1,,,,,0,,,78,0
54048,note_off,,,,,96,0,3,,,,,2,,,59,0
54048,note_on,,,,,0,0,1,,,,,0,,,75,103
54048,note_on,,,,,0,0,3,,,,,2,,,63,87
54144,note_off,,,,,96,0,3,,,,,2,,,63,0
54144,note_on,,,,,0,0,2,,,,,1,,,58,96
54144,note_off,,,,,96,0,1,,,,,0,,,75,0
54144,note_on,,,,,0,0,3,,,,,2,,,54,87
54144,note_off,,,,,96,0,2,,,,,1,,,66,0
54144,note_on,,,,,0,0,1,,,,,0,,,78,103
54240,note_on,,,,,0,0,3,,,,,2,,,58,87
54240,note_on,,,,,0,0,1,,,,,0,,,76,103
54240,note_on,,,,,0,0,2,,,,,1,,,61,96
54240,note_off,,,,,96,0,2,,,,,1,,,58,0
54240,note_off,,,,,96,0,3,,,,,2,,,54,0
54240,note_off,,,,,96,0,1,,,,,0,,,78,0
54336,note_on,,,,,0,0,2,,,,,1,,,61,96
54336,note_off,,,,,96,0,2,,,,,1,,,61,0
54336,note_off,,,,,96,0,1,,,,,0,,,76,0
54336,note_off,,,,,96,0,3,,,,,2,,,58,0
54336,note_off,,,,,384,0,4,,,,,3,,,54,0
54336,note_on,,,,,0,0,1,,,,,0,,,76,103
54336,note_on,,,,,0,0,3,,,,,2,,,58,87
54336,note_on,,,,,0,0,4,,,,,3,,,54,78
54432,note_off,,,,,96,0,1,,,,,0,,,76,0
54432,note_on,,,,,0,0,2,,,,,1,,,64,96
54432,note_off,,,,,96,0,2,,,,,1,,,61,0
54432,note_on,,,,,0,0,3,,,,,2,,,61,87
54432,note_on,,,,,0,0,1,,,,,0,,,73,103
54432,note_off,,,,,96,0,3,,,,,2,,,58,0
54528,note_on,,,,,0,0,2,,,,,1,,,59,96
54528,note_off,,,,,96,0,2,,,,,1,,,64,0
54528,note_on,,,,,0,0,3,,,,,2,,,54,87
54528,note_off,,,,,96,0,1,,,,,0,,,73,0
54528,note_on,,,,,0,0,1,,,,,0,,,80,103
54528,note_off,,,,,96,0,3,,,,,2,,,61,0
54624,note_off,,,,,96,0,2,,,,,1,,,59,0
54624,note_off,,,,,96,0,3,,,,,2,,,54,0
54624,note_on,,,,,0,0,3,,,,,2,,,59,87
54624,note_on,,,,,0,0,2,,,,,1,,,63,96
54624,note_off,,,,,96,0,1,,,,,0,,,80,0
54624,note_on,,,,,0,0,1,,,,,0,,,78,103
54720,note_on,,,,,0,0,4,,,,,3,,,54,78
54720,note_off,,,,,96,0,2,,,,,1,,,63,0
54720,note_off,,,,,96,0,1,,,,,0,,,78,0
54720,note_on,,,,,0,0,1,,,,,0,,,78,103
54720,note_off,,,,,384,0,4,,,,,3,,,54,0
54720,note_on,,,,,0,0,2,,,,,1,,,63,96
54720,note_off,,,,,96,0,3,,,,,2,,,59,0
54720,note_on,,,,,0,0,3,,,,,2,,,59,87
54816,note_off,,,,,96,0,1,,,,,0,,,78,0
54816,note_on,,,,,0,0,2,,,,,1,,,66,96
54816,note_off,,,,,96,0,2,,,,,1,,,63,0
54816,note_off,,,,,96,0,3,,,,,2,,,59,0
54816,note_on,,,,,0,0,1,,,,,0,,,75,103
54816,note_on,,,,,0,0,3,,,,,2,,,63,87
54912,note_off,,,,,192,0,4,,,,,3,,,54,0
54912,note_on,,,,,0,0,4,,,,,3,,,54,78
54912,note_off,,,,,96,0,3,,,,,2,,,63,0
54912,note_on,,,,,0,0,3,,,,,2,,,54,87
54912,note_off,,,,,96,0,2,,,,,1,,,66,0
54912,note_on,,,,,0,0,2,,,,,1,,,58,96
54912,note_off,,,,,96,0,1,,,,,0,,,75,0
54912,note_on,,,,,0,0,1,,,,,0,,,78,103
55008,note_on,,,,,0,0,2,,,,,1,,,61,96
55008,note_off,,,,,96,0,1,,,,,0,,,78,0
55008,note_on,,,,,0,0,1,,,,,0,,,76,103
55008,note_off,,,,,96,0,2,,,,,1,,,58,0
55008,note_off,,,,,96,0,3,,,,,2,,,54,0
55008,note_on,,,,,0,0,3,,,,,2,,,58,87
55104,note_off,,,,,96,0,2,,,,,1,,,61,0
55104,note_on,,,,,0,0,2,,,,,1,,,61,96
55104,note_on,,,,,0,0,4,,,,,3,,,54,78
55104,note_off,,,,,96,0,1,,,,,0,,,76,0
55104,note_on,,,,,0,0,1,,,,,0,,,76,103
55104,note_on,,,,,0,0,3,,,,,2,,,58,87
55104,note_off,,,,,96,0,3,,,,,2,,,58,0
55104,note_off,,,,,192,0,4,,,,,3,,,54,0
55200,note_off,,,,,96,0,1,,,,,0,,,76,0
55200,note_on,,,,,0,0,1,,,,,0,,,73,103
55200,note_on,,,,,0,0,3,,,,,2,,,61,87
55200,note_off,,,,,96,0,3,,,,,2,,,58,0
55200,note_on,,,,,0,0,2,,,,,1,,,64,96
55200,note_off,,,,,96,0,2,,,,,1,,,61,0
55296,note_off,,,,,192,0,4,,,,,3,,,54,0
55296,note_on,,,,,0,0,2,,,,,1,,,63,96
55296,note_off,,,,,96,0,2,,,,,1,,,64,0
55296,note_on,,,,,0,0,3,,,,,2,,,71,87
55296,note_off,,,,,96,0,3,,,,,2,,,61,0
55296,note_on,,,,,0,0,4,,,,,3,,,59,78
55296,note_off,,,,,96,0,1,,,,,0,,,73,0
55296,note_on,,,,,0,0,1,,,,,0,,,71,103
55392,note_on,,,,,0,0,1,,,,,0,,,83,103
55392,note_off,,,,,96,0,3,,,,,2,,,71,0
55392,note_on,,,,,0,0,3,,,,,2,,,69,87
55392,note_off,,,,,96,0,1,,,,,0,,,71,0
55392,note_off,,,,,96,0,4,,,,,3,,,59,0
55392,note_on,,,,,0,0,4,,,,,3,,,57,78
55392,note_off,,,,,96,0,2,,,,,1,,,63,0
55392,note_on,,,,,0,0,2,,,,,1,,,59,96
55392,note_on,,,,,0,0,1,,,,,0,,,71,103
55488,note_off,,,,,96,0,4,,,,,3,,,57,0
55488,note_on,,,,,0,0,4,,,,,3,,,57,78
55488,note_on,,,,,0,0,3,,,,,2,,,69,87
55488,note_off,,,,,96,0,3,,,,,2,,,69,0
55584,note_off,,,,,96,0,3,,,,,2,,,69,0
55584,note_off,,,,,192,0,2,,,,,1,,,59,0
55584,note_on,,,,,0,0,2,,,,,1,,,59,96
55584,note_on,,,,,0,0,3,,,,,2,,,66,87
55584,note_off,,,,,192,0,1,,,,,0,,,83,0
55584,note_off,,,,,0,0,1,,,,,0,,,71,0
55584,note_on,,,,,0,0,1,,,,,0,,,71,103
55584,note_on,,,,,0,0,1,,,,,0,,,83,103
55584,note_on,,,,,0,0,4,,,,,3,,,54,78
55584,note_off,,,,,96,0,4,,,,,3,,,57,0
55680,note_on,,,,,0,0,4,,,,,3,,,57,78
55680,note_off,,,,,96,0,4,,,,,3,,,54,0
55680,note_off,,,,,96,0,3,,,,,2,,,66,0
55680,note_on,,,,,0,0,3,,,,,2,,,69,87
55776,note_on,,,,,0,0,4,,,,,3,,,55,78
55776,note_on,,,,,0,0,2,,,,,1,,,59,96
55776,note_off,,,,,192,0,2,,,,,1,,,59,0
55776,note_off,,,,,192,0,1,,,,,0,,,71,0
55776,note_off,,,,,0,0,1,,,,,0,,,83,0
55776,note_on,,,,,0,0,1,,,,,0,,,71,103
55776,note_on,,,,,0,0,3,,,,,2,,,67,87
55776,note_off,,,,,96,0,3,,,,,2,,,69,0
55776,note_on,,,,,0,0,1,,,,,0,,,83,103
55776,note_off,,,,,96,0,4,,,,,3,,,57,0
55872,note_off,,,,,96,0,3,,,,,2,,,67,0
55872,note_on,,,,,0,0,3,,,,,2,,,67,87
55872,note_off,,,,,96,0,4,,,,,3,,,55,0
55872,note_on,,,,,0,0,4,,,,,3,,,55,78
55968,note_off,,,,,96,0,3,,,,,2,,,67,0
55968,note_on,,,,,0,0,3,,,,,2,,,64,87
55968,note_off,,,,,0,0,1,,,,,0,,,83,0
55968,note_on,,,,,0,0,1,,,,,0,,,71,103
55968,note_on,,,,,0,0,1,,,,,0,,,83,103
55968,note_on,,,,,0,0,4,,,,,3,,,52,78
55968,note_off,,,,,96,0,4,,,,,3,,,55,0
55968,note_off,,,,,192,0,2,,,,,1,,,59,0
55968,note_on,,,,,0,0,2,,,,,1,,,59,96
55968,note_off,,,,,192,0,1,,,,,0,,,71,0
56064,note_on,,,,,0,0,4,,,,,3,,,55,78
56064,note_off,,,,,96,0,3,,,,,2,,,64,0
56064,note_on,,,,,0,0,3,,,,,2,,,67,87
56064,note_off,,,,,96,0,4,,,,,3,,,52,0
56160,note_on,,,,,0,0,3,,,,,2,,,66,87
56160,note_off,,,,,96,0,3,,,,,2,,,67,0
56160,note_off,,,,,96,0,4,,,,,3,,,55,0
56160,note_off,,,,,192,0,2,,,,,1,,,59,0
56160,note_on,,,,,0,0,1,,,,,0,,,83,103
56160,note_off,,,,,0,0,1,,,,,0,,,83,0
56160,note_off,,,,,192,0,1,,,,,0,,,71,0
56160,note_on,,,,,0,0,1,,,,,0,,,71,103
56160,note_on,,,,,0,0,2,,,,,1,,,59,96
56160,note_on,,,,,0,0,4,,,,,3,,,54,78
56256,note_off,,,,,96,0,4,,,,,3,,,54,0
56256,note_on,,,,,0,0,4,,,,,3,,,54,78
56256,note_on,,,,,0,0,3,,,,,2,,,66,87
56256,note_off,,,,,96,0,3,,,,,2,,,66,0
56352,note_off,,,,,96,0,4,,,,,3,,,54,0
56352,note_off,,,,,192,0,1,,,,,0,,,71,0
56352,note_on,,,,,0,0,1,,,,,0,,,71,103
56352,note_on,,,,,0,0,1,,,,,0,,,83,103
56352,note_on,,,,,0,0,4,,,,,3,,,51,78
56352,note_on,,,,,0,0,2,,,,,1,,,59,96
56352,note_off,,,,,96,0,3,,,,,2,,,66,0
56352,note_on,,,,,0,0,3,,,,,2,,,63,87
56352,note_off,,,,,192,0,2,,,,,1,,,59,0
56352,note_off,,,,,0,0,1,,,,,0,,,83,0
56448,note_on,,,,,0,0,3,,,,,2,,,66,87
56448,note_off,,,,,96,0,3,,,,,2,,,63,0
56448,note_off,,,,,96,0,4,,,,,3,,,51,0
56448,note_on,,,,,0,0,4,,,,,3,,,54,78
56544,note_on,,,,,0,0,3,,,,,2,,,64,87
56544,note_off,,,,,96,0,3,,,,,2,,,66,0
56544,note_off,,,,,192,0,2,,,,,1,,,59,0
56544,note_on,,,,,0,0,1,,,,,0,,,83,103
56544,note_off,,,,,0,0,1,,,,,0,,,83,0
56544,note_off,,,,,192,0,1,,,,,0,,,71,0
56544,note_off,,,,,96,0,4,,,,,3,,,54,0
56544,note_on,,,,,0,0,4,,,,,3,,,52,78
56544,note_on,,,,,0,0,1,,,,,0,,,71,103
56544,note_on,,,,,0,0,2,,,,,1,,,59,96
56640,note_off,,,,,96,0,3,,,,,2,,,64,0
56640,note_on,,,,,0,0,3,,,,,2,,,64,87
56640,note_on,,,,,0,0,4,,,,,3,,,52,78
56640,note_off,,,,,96,0,4,,,,,3,,,52,0
56736,note_off,,,,,192,0,1,,,,,0,,,83,0
56736,note_on,,,,,0,0,1,,,,,0,,,83,103
56736,note_on,,,,,0,0,1,,,,,0,,,71,103
56736,note_off,,,,,96,0,4,,,,,3,,,52,0
56736,note_off,,,,,192,0,2,,,,,1,,,59,0
56736,note_on,,,,,0,0,3,,,,,2,,,61,87
56736,note_off,,,,,96,0,3,,,,,2,,,64,0
56736,note_off,,,,,0,0,1,,,,,0,,,71,0
56736,note_on,,,,,0,0,4,,,,,3,,,49,78
56736,note_on,,,,,0,0,2,,,,,1,,,59,96
56832,note_on,,,,,0,0,4,,,,,3,,,47,78
56832,note_on,,,,,0,0,2,,,,,1,,,71,96
56832,note_off,,,,,96,0,1,,,,,0,,,83,0
56832,note_on,,,,,0,0,1,,,,,0,,,83,103
56832,note_off,,,,,96,0,2,,,,,1,,,59,0
56832,note_off,,,,,0,0,1,,,,,0,,,71,0
56832,note_off,,,,,96,0,4,,,,,3,,,49,0
56832,note_off,,,,,96,0,3,,,,,2,,,61,0
56832,note_on,,,,,0,0,3,,,,,2,,,59,87
56928,note_off,,,,,96,0,1,,,,,0,,,83,0
56928,note_on,,,,,0,0,1,,,,,0,,,81,103
56928,note_off,,,,,96,0,2,,,,,1,,,71,0
56928,note_on,,,,,0,0,2,,,,,1,,,69,96
56928,note_off,,,,,96,0,4,,,,,3,,,47,0
56928,note_on,,,,,0,0,3,,,,,2,,,59,87
56928,note_on,,,,,0,0,4,,,,,3,,,47,78
56928,note_off,,,,,96,0,3,,,,,2,,,59,0
57024,note_on,,,,,0,0,1,,,,,0,,,81,103
57024,note_off,,,,,96,0,1,,,,,0,,,81,0
57024,note_on,,,,,0,0,2,,,,,1,,,69,96
57024,note_off,,,,,96,0,2,,,,,1,,,69,0
57120,note_on,,,,,0,0,4,,,,,3,,,47,78
57120,note_off,,,,,192,0,4,,,,,3,,,47,0
57120,note_off,,,,,192,0,3,,,,,2,,,59,0
57120,note_on,,,,,0,0,3,,,,,2,,,59,87
57120,note_on,,,,,0,0,1,,,,,0,,,78,103
57120,note_off,,,,,96,0,1,,,,,0,,,81,0
57120,note_on,,,,,0,0,2,,,,,1,,,66,96
57120,note_off,,,,,96,0,2,,,,,1,,,69,0
57216,note_on,,,,,0,0,1,,,,,0,,,81,103
57216,note_off,,,,,96,0,1,,,,,0,,,78,0
57216,note_on,,,,,0,0,2,,,,,1,,,69,96
57216,note_off,,,,,96,0,2,,,,,1,,,66,0
57312,note_off,,,,,96,0,1,,,,,0,,,81,0
57312,note_off,,,,,192,0,4,,,,,3,,,47,0
57312,note_on,,,,,0,0,4,,,,,3,,,47,78
57312,note_on,,,,,0,0,1,,,,,0,,,79,103
57312,note_on,,,,,0,0,3,,,,,2,,,59,87
57312,note_off,,,,,192,0,3,,,,,2,,,59,0
57312,note_off,,,,,96,0,2,,,,,1,,,69,0
57312,note_on,,,,,0,0,2,,,,,1,,,67,96
57408,note_off,,,,,96,0,1,,,,,0,,,79,0
57408,note_on,,,,,0,0,1,,,,,0,,,79,103
57408,note_on,,,,,0,0,2,,,,,1,,,67,96
57408,note_off,,,,,96,0,2,,,,,1,,,67,0
57504,note_on,,,,,0,0,2,,,,,1,,,64,96
57504,note_off,,,,,192,0,4,,,,,3,,,47,0
57504,note_on,,,,,0,0,1,,,,,0,,,76,103
57504,note_off,,,,,96,0,1,,,,,0,,,79,0
57504,note_off,,,,,96,0,2,,,,,1,,,67,0
57504,note_on,,,,,0,0,3,,,,,2,,,59,87
57504,note_on,,,,,0,0,4,,,,,3,,,47,78
57504,note_off,,,,,192,0,3,,,,,2,,,59,0
57600,note_off,,,,,96,0,1,,,,,0,,,76,0
57600,note_on,,,,,0,0,1,,,,,0,,,79,103
57600,note_on,,,,,0,0,2,,,,,1,,,67,96
57600,note_off,,,,,96,0,2,,,,,1,,,64,0
57696,note_off,,,,,192,0,3,,,,,2,,,59,0
57696,note_on,,,,,0,0,3,,,,,2,,,59,87
57696,note_off,,,,,192,0,4,,,,,3,,,47,0
57696,note_off,,,,,96,0,1,,,,,0,,,79,0
57696,note_on,,,,,0,0,1,,,,,0,,,78,103
57696,note_on,,,,,0,0,2,,,,,1,,,66,96
57696,note_off,,,,,96,0,2,,,,,1,,,67,0
57696,note_on,,,,,0,0,4,,,,,3,,,47,78
57792,note_off,,,,,96,0,2,,,,,1,,,66,0
57792,note_off,,,,,96,0,1,,,,,0,,,78,0
57792,note_on,,,,,0,0,1,,,,,0,,,78,103
57792,note_on,,,,,0,0,2,,,,,1,,,66,96
57888,note_on,,,,,0,0,2,,,,,1,,,63,96
57888,note_on,,,,,0,0,1,,,,,0,,,75,103
57888,note_off,,,,,96,0,1,,,,,0,,,78,0
57888,note_off,,,,,192,0,3,,,,,2,,,59,0
57888,note_on,,,,,0,0,3,,,,,2,,,59,87
57888,note_off,,,,,192,0,4,,,,,3,,,47,0
57888,note_on,,,,,0,0,4,,,,,3,,,47,78
57888,note_off,,,,,96,0,2,,,,,1,,,66,0
57984,note_on,,,,,0,0,2,,,,,1,,,66,96
57984,note_off,,,,,96,0,2,,,,,1,,,63,0
57984,note_on,,,,,0,0,1,,,,,0,,,78,103
57984,note_off,,,,,96,0,1,,,,,0,,,75,0
58080,note_off,,,,,96,0,2,,,,,1,,,66,0
58080,note_on,,,,,0,0,2,,,,,1,,,64,96
58080,note_on,,,,,0,0,1,,,,,0,,,76,103
58080,note_off,,,,,192,0,4,,,,,3,,,47,0
58080,note_off,,,,,96,0,1,,,,,0,,,78,0
58080,note_off,,,,,192,0,3,,,,,2,,,59,0
58080,note_on,,,,,0,0,3,,,,,2,,,59,87
58080,note_on,,,,,0,0,4,,,,,3,,,47,78
58176,note_on,,,,,0,0,1,,,,,0,,,76,103
58176,note_off,,,,,96,0,1,,,,,0,,,76,0
58176,note_off,,,,,96,0,2,,,,,1,,,64,0
58176,note_on,,,,,0,0,2,,,,,1,,,64,96
58272,note_on,,,,,0,0,2,,,,,1,,,61,96
58272,note_off,,,,,192,0,4,,,,,3,,,47,0
58272,note_on,,,,,0,0,4,,,,,3,,,47,78
58272,note_off,,,,,192,0,3,,,,,2,,,59,0
58272,note_on,,,,,0,0,3,,,,,2,,,59,87
58272,note_off,,,,,96,0,1,,,,,0,,,76,0
58272,note_off,,,,,96,0,2,,,,,1,,,64,0
58272,note_on,,,,,0,0,1,,,,,0,,,73,103
58368,note_off,,,,,96,0,4,,,,,3,,,47,0
58368,note_on,,,,,0,0,4,,,,,3,,,47,78
58368,note_on,,,,,0,0,3,,,,,2,,,71,87
58368,note_off,,,,,96,0,3,,,,,2,,,59,0
58368,note_on,,,,,0,0,2,,,,,1,,,59,96
58368,note_off,,,,,96,0,2,,,,,1,,,61,0
58368,note_off,,,,,96,0,1,,,,,0,,,73,0
58368,note_on,,,,,0,0,1,,,,,0,,,71,103
58464,note_off,,,,,96,0,3,,,,,2,,,71,0
58464,note_on,,,,,0,0,3,,,,,2,,,69,87
58560,note_off,,,,,96,0,3,,,,,2,,,69,0
58560,note_on,,,,,0,0,3,,,,,2,,,69,87
58560,note_on,,,,,0,0,1,,,,,0,,,75,103
58560,note_off,,,,,192,0,1,,,,,0,,,71,0
58656,note_on,,,,,0,0,3,,,,,2,,,66,87
58656,note_off,,,,,96,0,3,,,,,2,,,69,0
58752,note_on,,,,,0,0,3,,,,,2,,,69,87
58752,note_off,,,,,384,0,4,,,,,3,,,47,0
58752,note_off,,,,,96,0,3,,,,,2,,,66,0
58848,note_off,,,,,96,0,3,,,,,2,,,69,0
58848,note_on,,,,,0,0,3,,,,,2,,,67,87
58944,note_on,,,,,0,0,1,,,,,0,,,76,103
58944,note_off,,,,,384,0,1,,,,,0,,,75,0
58944,note_on,,,,,0,0,3,,,,,2,,,67,87
58944,note_off,,,,,96,0,3,,,,,2,,,67,0
59040,note_on,,,,,0,0,3,,,,,2,,,64,87
59040,note_off,,,,,96,0,3,,,,,2,,,67,0
59136,note_off,,,,,96,0,3,,,,,2,,,64,0
59136,note_on,,,,,0,0,3,,,,,2,,,67,87
59232,note_off,,,,,96,0,3,,,,,2,,,67,0
59232,note_on,,,,,0,0,3,,,,,2,,,66,87
59328,note_off,,,,,96,0,3,,,,,2,,,66,0
59328,note_on,,,,,0,0,3,,,,,2,,,66,87
59328,note_on,,,,,0,0,1,,,,,0,,,79,103
59328,note_off,,,,,384,0,1,,,,,0,,,76,0
59424,note_off,,,,,96,0,3,,,,,2,,,66,0
59424,note_on,,,,,0,0,3,,,,,2,,,63,87
59520,note_off,,,,,96,0,3,,,,,2,,,63,0
59520,note_on,,,,,0,0,3,,,,,2,,,66,87
59616,note_off,,,,,96,0,3,,,,,2,,,66,0
59616,note_on,,,,,0,0,3,,,,,2,,,64,87
59712,note_on,,,,,0,0,1,,,,,0,,,82,103
59712,note_off,,,,,384,0,1,,,,,0,,,79,0
59712,note_on,,,,,0,0,3,,,,,2,,,64,87
59712,note_off,,,,,96,0,3,,,,,2,,,64,0
59808,note_off,,,,,96,0,3,,,,,2,,,64,0
59808,note_on,,,,,0,0,3,,,,,2,,,61,87
59904,note_off,,,,,96,0,3,,,,,2,,,61,0
59904,note_on,,,,,0,0,3,,,,,2,,,59,87
59904,note_on,,,,,0,0,1,,,,,0,,,83,103
59904,note_off,,,,,1536,0,2,,,,,1,,,59,0
59904,note_on,,,,,0,0,2,,,,,1,,,71,96
59904,note_on,,,,,1152,0,4,,,,,3,,,59,78
59904,note_off,,,,,192,0,1,,,,,0,,,82,0
60000,note_off,,,,,96,0,4,,,,,3,,,59,0
60000,note_on,,,,,0,0,4,,,,,3,,,57,78
60096,note_on,,,,,0,0,4,,,,,3,,,57,78
60096,note_off,,,,,96,0,4,,,,,3,,,57,0
60096,note_on,,,,,0,0,1,,,,,0,,,87,103
60096,note_off,,,,,192,0,1,,,,,0,,,83,0
60096,note_off,,,,,192,0,2,,,,,1,,,71,0
60096,note_on,,,,,0,0,2,,,,,1,,,75,96
60192,note_off,,,,,96,0,4,,,,,3,,,57,0
60192,note_on,,,,,0,0,4,,,,,3,,,54,78
60288,note_off,,,,,96,0,4,,,,,3,,,54,0
60288,note_on,,,,,0,0,4,,,,,3,,,57,78
60384,note_off,,,,,96,0,4,,,,,3,,,57,0
60384,note_on,,,,,0,0,4,,,,,3,,,55,78
60480,note_off,,,,,384,0,1,,,,,0,,,87,0
60480,note_off,,,,,384,0,2,,,,,1,,,75,0
60480,note_on,,,,,0,0,2,,,,,1,,,76,96
60480,note_on,,,,,0,0,1,,,,,0,,,88,103
60480,note_on,,,,,0,0,4,,,,,3,,,55,78
60480,note_off,,,,,96,0,4,,,,,3,,,55,0
60576,note_on,,,,,0,0,4,,,,,3,,,52,78
60576,note_off,,,,,96,0,4,,,,,3,,,55,0
60672,note_off,,,,,96,0,4,,,,,3,,,52,0
60672,note_on,,,,,0,0,4,,,,,3,,,55,78
60768,note_off,,,,,96,0,4,,,,,3,,,55,0
60768,note_on,,,,,0,0,4,,,,,3,,,54,78
60864,note_on,,,,,0,0,2,,,,,1,,,79,96
60864,note_off,,,,,384,0,2,,,,,1,,,76,0
60864,note_off,,,,,384,0,1,,,,,0,,,88,0
60864,note_on,,,,,0,0,1,,,,,0,,,91,103
60864,note_off,,,,,96,0,4,,,,,3,,,54,0
60864,note_on,,,,,0,0,4,,,,,3,,,54,78
60960,note_on,,,,,0,0,4,,,,,3,,,51,78
60960,note_off,,,,,96,0,4,,,,,3,,,54,0
61056,note_off,,,,,96,0,4,,,,,3,,,51,0
61056,note_on,,,,,0,0,4,,,,,3,,,54,78
61152,note_off,,,,,96,0,4,,,,,3,,,54,0
61152,note_on,,,,,0,0,4,,,,,3,,,52,78
61248,note_off,,,,,384,0,2,,,,,1,,,79,0
61248,note_on,,,,,0,0,2,,,,,1,,,82,96
61248,note_off,,,,,384,0,1,,,,,0,,,91,0
61248,note_on,,,,,0,0,1,,,,,0,,,94,103
61248,note_on,,,,,0,0,4,,,,,3,,,52,78
61248,note_off,,,,,96,0,4,,,,,3,,,52,0
61344,note_off,,,,,96,0,4,,,,,3,,,52,0
61344,note_on,,,,,0,0,4,,,,,3,,,49,78
61440,note_off,,,,,192,0,1,,,,,0,,,94,0
61440,note_on,,,,,0,0,1,,,,,0,,,95,103
61440,note_off,,,,,96,0,4,,,,,3,,,49,0
61440,note_on,,,,,0,0,2,,,,,1,,,83,96
61440,note_on,,,,,0,0,4,,,,,3,,,47,78
61440,note_off,,,,,192,0,2,,,,,1,,,82,0
61824,note_on,,,,,0,0,4,,,,,3,,,54,78
61824,note_off,,,,,384,0,4,,,,,3,,,47,0
61920,note_on,,,,,0,0,4,,,,,3,,,52,78
61920,note_off,,,,,96,0,4,,,,,3,,,54,0
62016,note_on,,,,,0,0,4,,,,,3,,,52,78
62016,note_off,,,,,576,0,2,,,,,1,,,83,0
62016,note_on,,,,,0,0,1,,,,,0,,,94,103
62016,note_off,,,,,576,0,1,,,,,0,,,95,0
62016,note_on,,,,,0,0,2,,,,,1,,,82,96
62016,note_off,,,,,96,0,4,,,,,3,,,52,0
62112,note_off,,,,,96,0,4,,,,,3,,,52,0
62112,note_on,,,,,0,0,4,,,,,3,,,49,78
62208,note_on,,,,,0,0,4,,,,,3,,,47,78
62208,note_off,,,,,96,0,4,,,,,3,,,49,0
62208,note_off,,,,,192,0,1,,,,,0,,,94,0
62208,note_off,,,,,192,0,2,,,,,1,,,82,0
62208,note_on,,,,,0,0,2,,,,,1,,,83,96
62208,note_on,,,,,0,0,1,,,,,0,,,95,103
62592,note_on,,,,,0,0,4,,,,,3,,,54,78
62592,note_off,,,,,384,0,4,,,,,3,,,47,0
62688,note_on,,,,,0,0,4,,,,,3,,,52,78
62688,note_off,,,,,96,0,4,,,,,3,,,54,0
62784,note_off,,,,,96,0,4,,,,,3,,,52,0
62784,note_off,,,,,576,0,2,,,,,1,,,83,0
62784,note_on,,,,,0,0,2,,,,,1,,,82,96
62784,note_on,,,,,0,0,4,,,,,3,,,52,78
62784,note_on,,,,,0,0,1,,,,,0,,,94,103
62784,note_off,,,,,576,0,1,,,,,0,,,95,0
62880,note_on,,,,,0,0,4,,,,,3,,,49,78
62880,note_off,,,,,96,0,4,,,,,3,,,52,0
62976,note_off,,,,,96,0,4,,,,,3,,,49,0
62976,note_on,,,,,0,0,1,,,,,0,,,95,103
62976,note_on,,,,,0,0,4,,,,,3,,,47,78
62976,note_off,,,,,192,0,1,,,,,0,,,94,0
62976,note_on,,,,,0,0,2,,,,,1,,,83,96
62976,note_off,,,,,192,0,2,,,,,1,,,82,0
64128,note_off,,,,,1152,0,4,,,,,3,,,47,0
64128,note_off,,,,,1152,0,2,,,,,1,,,83,0
64128,note_off,,,,,1152,0,1,,,,,0,,,95,0
64128,note_off,,,,,4224,0,3,,,,,2,,,59,0
64320,note_on,,,,,192,0,1,,,,,0,,,83,103
64416,note_off,,,,,96,0,1,,,,,0,,,83,0
64416,note_on,,,,,0,0,1,,,,,0,,,84,103
64512,note_on,,,,,384,0,2,,,,,1,,,74,96
64512,note_on,,,,,384,0,3,,,,,2,,,71,87
64512,note_off,,,,,96,0,1,,,,,0,,,84,0
64512,note_on,,,,,0,0,1,,,,,0,,,86,103
64512,note_on,,,,,384,0,4,,,,,3,,,67,78
64560,note_off,,,,,48,0,3,,,,,2,,,71,0
64560,note_off,,,,,48,0,4,,,,,3,,,67,0
64560,note_off,,,,,48,0,2,,,,,1,,,74,0
64608,note_on,,,,,48,0,3,,,,,2,,,71,87
64608,note_on,,,,,48,0,4,,,,,3,,,67,78
64608,note_on,,,,,0,0,1,,,,,0,,,84,103
64608,note_on,,,,,48,0,2,,,,,1,,,74,96
64608,note_off,,,,,96,0,1,,,,,0,,,86,0
64656,note_off,,,,,48,0,3,,,,,2,,,71,0
64656,note_off,,,,,48,0,4,,,,,3,,,67,0
64656,note_off,,,,,48,0,2,,,,,1,,,74,0
64704,note_on,,,,,48,0,4,,,,,3,,,67,78
64704,note_on,,,,,0,0,1,,,,,0,,,83,103
64704,note_on,,,,,48,0,2,,,,,1,,,74,96
64704,note_on,,,,,48,0,3,,,,,2,,,71,87
64704,note_off,,,,,96,0,1,,,,,0,,,84,0
64752,note_off,,,,,48,0,4,,,,,3,,,67,0
64752,note_off,,,,,48,0,3,,,,,2,,,71,0
64752,note_off,,,,,48,0,2,,,,,1,,,74,0
64800,note_on,,,,,48,0,2,,,,,1,,,74,96
64800,note_on,,,,,0,0,1,,,,,0,,,81,103
64800,note_off,,,,,96,0,1,,,,,0,,,83,0
64800,note_on,,,,,48,0,4,,,,,3,,,67,78
64800,note_on,,,,,48,0,3,,,,,2,,,71,87
64848,note_off,,,,,48,0,4,,,,,3,,,67,0
64848,note_off,,,,,48,0,2,,,,,1,,,74,0
64848,note_off,,,,,48,0,3,,,,,2,,,71,0
64896,note_on,,,,,0,0,1,,,,,0,,,79,103
64896,note_on,,,,,48,0,2,,,,,1,,,74,96
64896,note_off,,,,,96,0,1,,,,,0,,,81,0
64896,note_on,,,,,48,0,4,,,,,3,,,67,78
64896,note_on,,,,,48,0,3,,,,,2,,,71,87
64944,note_off,,,,,48,0,2,,,,,1,,,74,0
64944,note_off,,,,,48,0,3,,,,,2,,,71,0
64944,note_off,,,,,48,0,4,,,,,3,,,67,0
64992,note_on,,,,,48,0,3,,,,,2,,,71,87
64992,note_on,,,,,48,0,4,,,,,3,,,67,78
64992,note_on,,,,,0,0,1,,,,,0,,,81,103
64992,note_off,,,,,96,0,1,,,,,0,,,79,0
64992,note_on,,,,,48,0,2,,,,,1,,,74,96
65040,note_off,,,,,48,0,3,,,,,2,,,71,0
65040,note_off,,,,,48,0,2,,,,,1,,,74,0
65040,note_off,,,,,48,0,4,,,,,3,,,67,0
65088,note_on,,,,,0,0,1,,,,,0,,,79,103
65088,note_off,,,,,96,0,1,,,,,0,,,81,0
65088,note_on,,,,,48,0,2,,,,,1,,,74,96
65088,note_on,,,,,48,0,4,,,,,3,,,67,78
65088,note_on,,,,,48,0,3,,,,,2,,,71,87
65136,note_off,,,,,48,0,3,,,,,2,,,71,0
65136,note_off,,,,,48,0,4,,,,,3,,,67,0
65136,note_off,,,,,48,0,2,,,,,1,,,74,0
65184,note_on,,,,,48,0,3,,,,,2,,,71,87
65184,note_off,,,,,96,0,1,,,,,0,,,79,0
65184,note_on,,,,,48,0,2,,,,,1,,,74,96
65184,note_on,,,,,0,0,1,,,,,0,,,77,103
65184,note_on,,,,,48,0,4,,,,,3,,,67,78
65232,note_off,,,,,48,0,4,,,,,3,,,67,0
65232,note_off,,,,,48,0,2,,,,,1,,,74,0
65232,note_off,,,,,48,0,3,,,,,2,,,71,0
65280,note_on,,,,,48,0,4,,,,,3,,,67,78
65280,note_on,,,,,48,0,2,,,,,1,,,76,96
65280,note_on,,,,,48,0,3,,,,,2,,,72,87
65280,note_off,,,,,96,0,1,,,,,0,,,77,0
65280,note_on,,,,,0,0,1,,,,,0,,,76,103
65328,note_off,,,,,48,0,2,,,,,1,,,76,0
65328,note_off,,,,,48,0,3,,,,,2,,,72,0
65376,note_off,,,,,96,0,1,,,,,0,,,76,0
65376,note_off,,,,,96,0,4,,,,,3,,,67,0
65376,note_on,,,,,48,0,2,,,,,1,,,76,96
65376,note_on,,,,,0,0,4,,,,,3,,,67,78
65376,note_on,,,,,48,0,3,,,,,2,,,72,87
65424,note_off,,,,,48,0,2,,,,,1,,,76,0
65424,note_off,,,,,48,0,3,,,,,2,,,72,0
65472,note_off,,,,,96,0,4,,,,,3,,,67,0
65472,note_on,,,,,48,0,3,,,,,2,,,72,87
65472,note_on,,,,,0,0,4,,,,,3,,,67,78
65472,note_on,,,,,48,0,2,,,,,1,,,76,96
65472,note_on,,,,,96,0,1,,,,,0,,,81,103
65520,note_off,,,,,48,0,3,,,,,2,,,72,0
65520,note_off,,,,,48,0,2,,,,,1,,,76,0
65568,note_on,,,,,48,0,3,,,,,2,,,72,87
65568,note_off,,,,,96,0,4,,,,,3,,,67,0
65568,note_on,,,,,0,0,4,,,,,3,,,67,78
65568,note_on,,,,,48,0,2,,,,,1,,,76,96
65616,note_off,,,,,48,0,2,,,,,1,,,76,0
65616,note_off,,,,,48,0,3,,,,,2,,,72,0
65664,note_on,,,,,48,0,3,,,,,2,,,72,87
65664,note_on,,,,,48,0,2,,,,,1,,,76,96
65664,note_on,,,,,0,0,4,,,,,3,,,67,78
65664,note_off,,,,,96,0,4,,,,,3,,,67,0
65712,note_off,,,,,48,0,3,,,,,2,,,72,0
65712,note_off,,,,,48,0,2,,,,,1,,,76,0
65760,note_on,,,,,0,0,4,,,,,3,,,67,78
65760,note_off,,,,,96,0,4,,,,,3,,,67,0
65760,note_on,,,,,48,0,3,,,,,2,,,72,87
65760,note_on,,,,,48,0,2,,,,,1,,,76,96
65808,note_off,,,,,48,0,2,,,,,1,,,76,0
65808,note_off,,,,,48,0,3,,,,,2,,,72,0
65856,note_on,,,,,0,0,4,,,,,3,,,67,78
65856,note_on,,,,,48,0,3,,,,,2,,,72,87
65856,note_off,,,,,96,0,4,,,,,3,,,67,0
65856,note_on,,,,,48,0,2,,,,,1,,,75,96
65856,note_on,,,,,0,0,1,,,,,0,,,79,103
65856,note_off,,,,,384,0,1,,,,,0,,,81,0
65904,note_off,,,,,48,0,3,,,,,2,,,72,0
65904,note_off,,,,,48,0,2,,,,,1,,,75,0
65952,note_off,,,,,96,0,4,,,,,3,,,67,0
65952,note_on,,,,,48,0,3,,,,,2,,,72,87
65952,note_on,,,,,48,0,2,,,,,1,,,75,96
65952,note_on,,,,,0,0,4,,,,,3,,,67,78
66000,note_off,,,,,48,0,3,,,,,2,,,72,0
66000,note_off,,,,,48,0,2,,,,,1,,,75,0
66048,note_on,,,,,48,0,2,,,,,1,,,74,96
66048,note_off,,,,,96,0,4,,,,,3,,,67,0
66048,note_on,,,,,0,0,4,,,,,3,,,67,78
66048,note_off,,,,,192,0,1,,,,,0,,,79,0
66048,note_on,,,,,0,0,1,,,,,0,,,78,103
66048,note_on,,,,,48,0,3,,,,,2,,,72,87
66096,note_off,,,,,48,0,3,,,,,2,,,72,0
66096,note_off,,,,,48,0,2,,,,,1,,,74,0
66144,note_on,,,,,48,0,2,,,,,1,,,74,96
66144,note_off,,,,,96,0,1,,,,,0,,,78,0
66144,note_off,,,,,96,0,4,,,,,3,,,67,0
66144,note_on,,,,,0,0,1,,,,,0,,,79,103
66144,note_on,,,,,48,0,3,,,,,2,,,72,87
66144,note_on,,,,,0,0,4,,,,,3,,,67,78
66192,note_off,,,,,48,0,3,,,,,2,,,72,0
66192,note_off,,,,,48,0,2,,,,,1,,,74,0
66240,note_on,,,,,0,0,1,,,,,0,,,81,103
66240,note_on,,,,,48,0,3,,,,,2,,,72,87
66240,note_off,,,,,96,0,4,,,,,3,,,67,0
66240,note_on,,,,,0,0,4,,,,,3,,,67,78
66240,note_off,,,,,96,0,1,,,,,0,,,79,0
66240,note_on,,,,,48,0,2,,,,,1,,,74,96
66288,note_off,,,,,48,0,2,,,,,1,,,74,0
66288,note_off,,,,,48,0,3,,,,,2,,,72,0
66336,note_on,,,,,48,0,2,,,,,1,,,74,96
66336,note_off,,,,,96,0,4,,,,,3,,,67,0
66336,note_on,,,,,48,0,3,,,,,2,,,72,87
66336,note_on,,,,,0,0,1,,,,,0,,,78,103
66336,note_off,,,,,96,0,1,,,,,0,,,81,0
66336,note_on,,,,,0,0,4,,,,,3,,,67,78
66384,note_off,,,,,48,0,3,,,,,2,,,72,0
66384,note_off,,,,,48,0,2,,,,,1,,,74,0
66432,note_on,,,,,48,0,3,,,,,2,,,71,87
66432,note_off,,,,,96,0,4,,,,,3,,,67,0
66432,note_on,,,,,48,0,2,,,,,1,,,74,96
66432,note_on,,,,,0,0,4,,,,,3,,,67,78
66432,note_on,,,,,0,0,1,,,,,0,,,79,103
66432,note_off,,,,,96,0,1,,,,,0,,,78,0
66480,note_off,,,,,48,0,3,,,,,2,,,71,0
66480,note_off,,,,,48,0,2,,,,,1,,,74,0
66528,note_off,,,,,96,0,4,,,,,3,,,67,0
66528,note_on,,,,,0,0,4,,,,,3,,,67,78
66528,note_on,,,,,48,0,3,,,,,2,,,71,87
66528,note_on,,,,,48,0,2,,,,,1,,,74,96
66528,note_on,,,,,0,0,1,,,,,0,,,81,103
66528,note_off,,,,,96,0,1,,,,,0,,,79,0
66576,note_off,,,,,48,0,3,,,,,2,,,71,0
66576,note_off,,,,,48,0,2,,,,,1,,,74,0
66624,note_on,,,,,48,0,3,,,,,2,,,71,87
66624,note_off,,,,,96,0,1,,,,,0,,,81,0
66624,note_on,,,,,48,0,2,,,,,1,,,74,96
66624,note_on,,,,,0,0,4,,,,,3,,,67,78
66624,note_off,,,,,96,0,4,,,,,3,,,67,0
66624,note_on,,,,,0,0,1,,,,,0,,,83,103
66672,note_off,,,,,48,0,3,,,,,2,,,71,0
66672,note_off,,,,,48,0,2,,,,,1,,,74,0
66720,note_on,,,,,0,0,4,,,,,3,,,67,78
66720,note_on,,,,,48,0,3,,,,,2,,,71,87
66720,note_on,,,,,48,0,2,,,,,1,,,74,96
66720,note_on,,,,,0,0,1,,,,,0,,,79,103
66720,note_off,,,,,96,0,4,,,,,3,,,67,0
66720,note_off,,,,,96,0,1,,,,,0,,,83,0
66768,note_off,,,,,48,0,3,,,,,2,,,71,0
66768,note_off,,,,,48,0,2,,,,,1,,,74,0
66816,note_off,,,,,96,0,4,,,,,3,,,67,0
66816,note_on,,,,,48,0,3,,,,,2,,,66,87
66816,note_on,,,,,0,0,1,,,,,0,,,86,103
66816,note_off,,,,,96,0,1,,,,,0,,,79,0
66816,note_on,,,,,48,0,2,,,,,1,,,74,96
66816,note_on,,,,,0,0,4,,,,,3,,,62,78
66864,note_off,,,,,48,0,2,,,,,1,,,74,0
66864,note_off,,,,,48,0,3,,,,,2,,,66,0
66912,note_on,,,,,0,0,1,,,,,0,,,85,103
66912,note_on,,,,,0,0,4,,,,,3,,,62,78
66912,note_on,,,,,48,0,2,,,,,1,,,74,96
66912,note_on,,,,,48,0,3,,,,,2,,,66,87
66912,note_off,,,,,96,0,4,,,,,3,,,62,0
66912,note_off,,,,,96,0,1,,,,,0,,,86,0
66960,note_off,,,,,48,0,3,,,,,2,,,66,0
66960,note_off,,,,,48,0,2,,,,,1,,,74,0
67008,note_on,,,,,0,0,4,,,,,3,,,57,78
67008,note_off,,,,,96,0,4,,,,,3,,,62,0
67008,note_on,,,,,48,0,3,,,,,2,,,67,87
67008,note_on,,,,,48,0,2,,,,,1,,,73,96
67008,note_on,,,,,0,0,1,,,,,0,,,88,103
67008,note_off,,,,,96,0,1,,,,,0,,,85,0
67056,note_off,,,,,48,0,3,,,,,2,,,67,0
67056,note_off,,,,,48,0,2,,,,,1,,,73,0
67104,note_on,,,,,48,0,3,,,,,2,,,67,87
67104,note_on,,,,,0,0,1,,,,,0,,,85,103
67104,note_off,,,,,96,0,1,,,,,0,,,88,0
67104,note_on,,,,,0,0,4,,,,,3,,,57,78
67104,note_on,,,,,48,0,2,,,,,1,,,73,96
67104,note_off,,,,,96,0,4,,,,,3,,,57,0
67152,note_off,,,,,48,0,2,,,,,1,,,73,0
67152,note_off,,,,,48,0,3,,,,,2,,,67,0
67200,note_on,,,,,48,0,2,,,,,1,,,74,96
67200,note_off,,,,,96,0,1,,,,,0,,,85,0
67200,note_on,,,,,0,0,1,,,,,0,,,86,103
67200,note_on,,,,,48,0,3,,,,,2,,,66,87
67200,note_on,,,,,0,0,4,,,,,3,,,62,78
67200,note_off,,,,,96,0,4,,,,,3,,,57,0
67248,note_off,,,,,48,0,3,,,,,2,,,66,0
67248,note_off,,,,,48,0,2,,,,,1,,,74,0
67296,note_on,,,,,48,0,2,,,,,1,,,72,96
67296,note_on,,,,,48,0,3,,,,,2,,,66,87
67344,note_off,,,,,48,0,2,,,,,1,,,72,0
67344,note_off,,,,,48,0,3,,,,,2,,,66,0
67392,note_on,,,,,0,0,1,,,,,0,,,83,103
67392,note_off,,,,,192,0,1,,,,,0,,,86,0
67392,note_on,,,,,48,0,2,,,,,1,,,71,96
67392,note_off,,,,,192,0,4,,,,,3,,,62,0
67392,note_on,,,,,48,0,3,,,,,2,,,67,87
67440,note_off,,,,,48,0,2,,,,,1,,,71,0
67440,note_off,,,,,48,0,3,,,,,2,,,67,0
67488,note_on,,,,,0,0,1,,,,,0,,,84,103
67488,note_off,,,,,96,0,1,,,,,0,,,83,0
67488,note_on,,,,,48,0,2,,,,,1,,,72,96
67488,note_on,,,,,48,0,3,,,,,2,,,69,87
67536,note_off,,,,,48,0,2,,,,,1,,,72,0
67536,note_off,,,,,48,0,3,,,,,2,,,69,0
67584,note_off,,,,,96,0,1,,,,,0,,,84,0
67584,note_on,,,,,0,0,1,,,,,0,,,86,103
67584,note_on,,,,,48,0,2,,,,,1,,,74,96
67584,note_on,,,,,48,0,3,,,,,2,,,71,87
67584,note_on,,,,,192,0,4,,,,,3,,,67,78
67680,note_off,,,,,96,0,2,,,,,1,,,74,0
67680,note_on,,,,,0,0,4,,,,,3,,,67,78
67680,note_off,,,,,96,0,1,,,,,0,,,86,0
67680,note_on,,,,,0,0,1,,,,,0,,,84,103
67680,note_on,,,,,0,0,3,,,,,2,,,71,87
67680,note_off,,,,,96,0,3,,,,,2,,,71,0
67680,note_off,,,,,96,0,4,,,,,3,,,67,0
67680,note_on,,,,,0,0,2,,,,,1,,,74,96
67776,note_off,,,,,96,0,4,,,,,3,,,67,0
67776,note_on,,,,,0,0,4,,,,,3,,,67,78
67776,note_off,,,,,96,0,1,,,,,0,,,84,0
67776,note_on,,,,,0,0,2,,,,,1,,,74,96
67776,note_off,,,,,96,0,2,,,,,1,,,74,0
67776,note_on,,,,,0,0,1,,,,,0,,,83,103
67776,note_on,,,,,0,0,3,,,,,2,,,71,87
67776,note_off,,,,,96,0,3,,,,,2,,,71,0
67872,note_off,,,,,96,0,1,,,,,0,,,83,0
67872,note_on,,,,,0,0,3,,,,,2,,,71,87
67872,note_on,,,,,0,0,4,,,,,3,,,67,78
67872,note_off,,,,,96,0,4,,,,,3,,,67,0
67872,note_on,,,,,0,0,2,,,,,1,,,74,96
67872,note_off,,,,,96,0,2,,,,,1,,,74,0
67872,note_on,,,,,0,0,1,,,,,0,,,81,103
67872,note_off,,,,,96,0,3,,,,,2,,,71,0
67968,note_on,,,,,0,0,1,,,,,0,,,79,103
67968,note_off,,,,,96,0,3,,,,,2,,,71,0
67968,note_off,,,,,96,0,4,,,,,3,,,67,0
67968,note_on,,,,,0,0,4,,,,,3,,,67,78
67968,note_on,,,,,0,0,3,,,,,2,,,71,87
67968,note_off,,,,,96,0,2,,,,,1,,,74,0
67968,note_off,,,,,96,0,1,,,,,0,,,81,0
67968,note_on,,,,,0,0,2,,,,,1,,,74,96
68064,note_on,,,,,0,0,3,,,,,2,,,71,87
68064,note_off,,,,,96,0,2,,,,,1,,,74,0
68064,note_off,,,,,96,0,3,,,,,2,,,71,0
68064,note_on,,,,,0,0,4,,,,,3,,,67,78
68064,note_on,,,,,0,0,1,,,,,0,,,81,103
68064,note_off,,,,,96,0,4,,,,,3,,,67,0
68064,note_on,,,,,0,0,2,,,,,1,,,74,96
68064,note_off,,,,,96,0,1,,,,,0,,,79,0
68160,note_on,,,,,0,0,4,,,,,3,,,67,78
68160,note_off,,,,,96,0,4,,,,,3,,,67,0
68160,note_off,,,,,96,0,3,,,,,2,,,71,0
68160,note_off,,,,,96,0,2,,,,,1,,,74,0
68160,note_on,,,,,0,0,2,,,,,1,,,74,96
68160,note_off,,,,,96,0,1,,,,,0,,,81,0
68160,note_on,,,,,0,0,1,,,,,0,,,79,103
68160,note_on,,,,,0,0,3,,,,,2,,,71,87
68256,note_off,,,,,96,0,1,,,,,0,,,79,0
68256,note_on,,,,,0,0,1,,,,,0,,,78,103
68256,note_off,,,,,96,0,4,,,,,3,,,67,0
68256,note_on,,,,,0,0,4,,,,,3,,,67,78
68256,note_off,,,,,96,0,3,,,,,2,,,71,0
68256,note_off,,,,,96,0,2,,,,,1,,,74,0
68256,note_on,,,,,0,0,2,,,,,1,,,74,96
68256,note_on,,,,,0,0,3,,,,,2,,,71,87
68352,note_on,,,,,0,0,4,,,,,3,,,67,78
68352,note_on,,,,,0,0,2,,,,,1,,,73,96
68352,note_off,,,,,96,0,2,,,,,1,,,74,0
68352,note_on,,,,,0,0,3,,,,,2,,,69,87
68352,note_off,,,,,96,0,3,,,,,2,,,71,0
68352,note_off,,,,,96,0,1,,,,,0,,,78,0
68352,note_on,,,,,0,0,1,,,,,0,,,76,103
68352,note_off,,,,,96,0,4,,,,,3,,,67,0
68448,note_on,,,,,0,0,4,,,,,3,,,67,78
68448,note_on,,,,,0,0,2,,,,,1,,,73,96
68448,note_off,,,,,96,0,4,,,,,3,,,67,0
68448,note_off,,,,,96,0,2,,,,,1,,,73,0
68448,note_off,,,,,96,0,1,,,,,0,,,76,0
68448,note_off,,,,,96,0,3,,,,,2,,,69,0
68448,note_on,,,,,0,0,3,,,,,2,,,69,87
68544,note_off,,,,,96,0,3,,,,,2,,,69,0
68544,note_on,,,,,0,0,3,,,,,2,,,69,87
68544,note_off,,,,,96,0,4,,,,,3,,,67,0
68544,note_on,,,,,0,0,4,,,,,3,,,67,78
68544,note_off,,,,,96,0,2,,,,,1,,,73,0
68544,note_on,,,,,0,0,2,,,,,1,,,73,96
68544,note_on,,,,,96,0,1,,,,,0,,,83,103
68640,note_off,,,,,96,0,3,,,,,2,,,69,0
68640,note_on,,,,,0,0,3,,,,,2,,,69,87
68640,note_off,,,,,96,0,2,,,,,1,,,73,0
68640,note_on,,,,,0,0,2,,,,,1,,,73,96
68640,note_off,,,,,96,0,4,,,,,3,,,67,0
68640,note_on,,,,,0,0,4,,,,,3,,,67,78
68736,note_off,,,,,96,0,4,,,,,3,,,67,0
68736,note_off,,,,,96,0,3,,,,,2,,,69,0
68736,note_on,,,,,0,0,3,,,,,2,,,69,87
68736,note_on,,,,,0,0,4,,,,,3,,,61,78
68736,note_off,,,,,96,0,2,,,,,1,,,73,0
68736,note_on,,,,,0,0,2,,,,,1,,,76,96
68832,note_off,,,,,96,0,3,,,,,2,,,69,0
68832,note_on,,,,,0,0,3,,,,,2,,,69,87
68832,note_on,,,,,0,0,2,,,,,1,,,76,96
68832,note_off,,,,,96,0,2,,,,,1,,,76,0
68832,note_on,,,,,0,0,4,,,,,3,,,61,78
68832,note_off,,,,,96,0,4,,,,,3,,,61,0
68928,note_on,,,,,0,0,4,,,,,3,,,61,78
68928,note_off,,,,,96,0,3,,,,,2,,,69,0
68928,note_on,,,,,0,0,3,,,,,2,,,69,87
68928,note_off,,,,,96,0,4,,,,,3,,,61,0
68928,note_off,,,,,96,0,2,,,,,1,,,76,0
68928,note_off,,,,,384,0,1,,,,,0,,,83,0
68928,note_on,,,,,0,0,1,,,,,0,,,81,103
68928,note_on,,,,,0,0,2,,,,,1,,,76,96
69024,note_off,,,,,96,0,4,,,,,3,,,61,0
69024,note_on,,,,,0,0,4,,,,,3,,,61,78
69024,note_off,,,,,96,0,1,,,,,0,,,81,0
69024,note_on,,,,,0,0,3,,,,,2,,,69,87
69024,note_on,,,,,0,0,2,,,,,1,,,76,96
69024,note_on,,,,,0,0,1,,,,,0,,,79,103
69024,note_off,,,,,96,0,3,,,,,2,,,69,0
69024,note_off,,,,,96,0,2,,,,,1,,,76,0
69120,note_on,,,,,0,0,3,,,,,2,,,69,87
69120,note_off,,,,,96,0,1,,,,,0,,,79,0
69120,note_on,,,,,0,0,1,,,,,0,,,78,103
69120,note_on,,,,,0,0,4,,,,,3,,,62,78
69120,note_off,,,,,96,0,2,,,,,1,,,76,0
69120,note_off,,,,,96,0,3,,,,,2,,,69,0
69120,note_on,,,,,0,0,2,,,,,1,,,74,96
69120,note_off,,,,,96,0,4,,,,,3,,,61,0
69216,note_off,,,,,96,0,4,,,,,3,,,62,0
69216,note_off,,,,,96,0,1,,,,,0,,,78,0
69216,note_off,,,,,96,0,2,,,,,1,,,74,0
69216,note_on,,,,,0,0,1,,,,,0,,,79,103
69216,note_off,,,,,96,0,3,,,,,2,,,69,0
69216,note_on,,,,,0,0,3,,,,,2,,,69,87
69216,note_on,,,,,0,0,2,,,,,1,,,74,96
69216,note_on,,,,,0,0,4,,,,,3,,,62,78
69312,note_on,,,,,0,0,2,,,,,1,,,74,96
69312,note_off,,,,,96,0,2,,,,,1,,,74,0
69312,note_off,,,,,96,0,4,,,,,3,,,62,0
69312,note_off,,,,,96,0,3,,,,,2,,,69,0
69312,note_on,,,,,0,0,3,,,,,2,,,69,87
69312,note_on,,,,,0,0,4,,,,,3,,,62,78
69312,note_on,,,,,0,0,1,,,,,0,,,81,103
69312,note_off,,,,,96,0,1,,,,,0,,,79,0
69408,note_on,,,,,0,0,4,,,,,3,,,62,78
69408,note_on,,,,,0,0,2,,,,,1,,,74,96
69408,note_off,,,,,96,0,2,,,,,1,,,74,0
69408,note_off,,,,,96,0,4,,,,,3,,,62,0
69408,note_on,,,,,0,0,3,,,,,2,,,69,87
69408,note_off,,,,,96,0,1,,,,,0,,,81,0
69408,note_on,,,,,0,0,1,,,,,0,,,78,103
69408,note_off,,,,,96,0,3,,,,,2,,,69,0
69504,note_off,,,,,96,0,2,,,,,1,,,74,0
69504,note_on,,,,,0,0,4,,,,,3,,,57,78
69504,note_off,,,,,96,0,4,,,,,3,,,62,0
69504,note_off,,,,,96,0,3,,,,,2,,,69,0
69504,note_on,,,,,0,0,3,,,,,2,,,67,87
69504,note_off,,,,,96,0,1,,,,,0,,,78,0
69504,note_on,,,,,0,0,1,,,,,0,,,76,103
69504,note_on,,,,,0,0,2,,,,,1,,,73,96
69600,note_on,,,,,0,0,2,,,,,1,,,73,96
69600,note_off,,,,,96,0,3,,,,,2,,,67,0
69600,note_on,,,,,0,0,3,,,,,2,,,67,87
69600,note_off,,,,,96,0,4,,,,,3,,,57,0
69600,note_on,,,,,0,0,4,,,,,3,,,57,78
69600,note_off,,,,,96,0,1,,,,,0,,,76,0
69600,note_on,,,,,0,0,1,,,,,0,,,78,103
69600,note_off,,,,,96,0,2,,,,,1,,,73,0
69696,note_on,,,,,0,0,1,,,,,0,,,79,103
69696,note_off,,,,,96,0,2,,,,,1,,,73,0
69696,note_on,,,,,0,0,2,,,,,1,,,73,96
69696,note_off,,,,,96,0,1,,,,,0,,,78,0
69696,note_on,,,,,0,0,3,,,,,2,,,67,87
69696,note_off,,,,,96,0,3,,,,,2,,,67,0
69696,note_on,,,,,0,0,4,,,,,3,,,57,78
69696,note_off,,,,,96,0,4,,,,,3,,,57,0
69792,note_off,,,,,96,0,4,,,,,3,,,57,0
69792,note_on,,,,,0,0,3,,,,,2,,,67,87
69792,note_off,,,,,96,0,3,,,,,2,,,67,0
69792,note_off,,,,,96,0,2,,,,,1,,,73,0
69792,note_off,,,,,96,0,1,,,,,0,,,79,0
69792,note_on,,,,,0,0,1,,,,,0,,,76,103
69792,note_on,,,,,0,0,4,,,,,3,,,57,78
69792,note_on,,,,,0,0,2,,,,,1,,,73,96
69888,note_off,,,,,96,0,4,,,,,3,,,57,0
69888,note_on,,,,,0,0,1,,,,,0,,,74,103
69888,note_off,,,,,96,0,1,,,,,0,,,76,0
69888,note_off,,,,,96,0,2,,,,,1,,,73,0
69888,note_on,,,,,0,0,2,,,,,1,,,74,96
69888,note_on,,,,,0,0,3,,,,,2,,,66,87
69888,note_on,,,,,0,0,4,,,,,3,,,62,78
69888,note_off,,,,,96,0,3,,,,,2,,,67,0
69984,note_on,,,,,0,0,3,,,,,2,,,66,87
69984,note_on,,,,,0,0,2,,,,,1,,,74,96
69984,note_off,,,,,96,0,3,,,,,2,,,66,0
69984,note_on,,,,,0,0,4,,,,,3,,,62,78
69984,note_off,,,,,96,0,4,,,,,3,,,62,0
69984,note_off,,,,,96,0,2,,,,,1,,,74,0
69984,note_off,,,,,96,0,1,,,,,0,,,74,0
70080,note_off,,,,,96,0,2,,,,,1,,,74,0
70080,note_on,,,,,96,0,1,,,,,0,,,86,103
70080,note_off,,,,,96,0,3,,,,,2,,,66,0
70080,note_on,,,,,0,0,3,,,,,2,,,66,87
70080,note_off,,,,,96,0,4,,,,,3,,,62,0
70080,note_on,,,,,0,0,4,,,,,3,,,62,78
70080,note_on,,,,,0,0,2,,,,,1,,,74,96
70176,note_on,,,,,0,0,2,,,,,1,,,74,96
70176,note_off,,,,,96,0,1,,,,,0,,,86,0
70176,note_off,,,,,96,0,4,,,,,3,,,62,0
70176,note_on,,,,,0,0,3,,,,,2,,,66,87
70176,note_off,,,,,96,0,3,,,,,2,,,66,0
70176,note_on,,,,,0,0,4,,,,,3,,,62,78
70176,note_off,,,,,96,0,2,,,,,1,,,74,0
70272,note_on,,,,,0,0,4,,,,,3,,,62,78
70272,note_off,,,,,96,0,4,,,,,3,,,62,0
70272,note_off,,,,,96,0,3,,,,,2,,,66,0
70272,note_on,,,,,0,0,2,,,,,1,,,74,96
70272,note_on,,,,,0,0,3,,,,,2,,,66,87
70272,note_off,,,,,96,0,2,,,,,1,,,74,0
70368,note_off,,,,,96,0,2,,,,,1,,,74,0
70368,note_off,,,,,96,0,3,,,,,2,,,66,0
70368,note_off,,,,,96,0,4,,,,,3,,,62,0
70464,note_on,,,,,96,0,4,,,,,3,,,55,78
70464,note_on,,,,,96,0,3,,,,,2,,,59,87
70512,note_off,,,,,48,0,4,,,,,3,,,55,0
70512,note_off,,,,,48,0,3,,,,,2,,,59,0
70560,note_on,,,,,48,0,3,,,,,2,,,60,87
70560,note_on,,,,,48,0,4,,,,,3,,,57,78
70608,note_off,,,,,48,0,3,,,,,2,,,60,0
70608,note_off,,,,,48,0,4,,,,,3,,,57,0
70656,note_on,,,,,48,0,3,,,,,2,,,62,87
70656,note_on,,,,,48,0,4,,,,,3,,,59,78
70704,note_off,,,,,48,0,4,,,,,3,,,59,0
70704,note_off,,,,,48,0,3,,,,,2,,,62,0
70752,note_on,,,,,576,0,1,,,,,0,,,67,103
70752,note_on,,,,,48,0,3,,,,,2,,,60,87
70752,note_on,,,,,48,0,4,,,,,3,,,57,78
70800,note_off,,,,,48,0,1,,,,,0,,,67,0
70800,note_off,,,,,48,0,4,,,,,3,,,57,0
70800,note_off,,,,,48,0,3,,,,,2,,,60,0
70848,note_on,,,,,48,0,3,,,,,2,,,59,87
70848,note_on,,,,,48,0,1,,,,,0,,,79,103
70848,note_on,,,,,48,0,4,,,,,3,,,55,78
70896,note_off,,,,,48,0,3,,,,,2,,,59,0
70896,note_off,,,,,48,0,4,,,,,3,,,55,0
70896,note_off,,,,,48,0,1,,,,,0,,,79,0
70944,note_on,,,,,48,0,3,,,,,2,,,57,87
70944,note_on,,,,,48,0,4,,,,,3,,,54,78
70944,note_on,,,,,48,0,1,,,,,0,,,67,103
70992,note_off,,,,,48,0,4,,,,,3,,,54,0
70992,note_off,,,,,48,0,3,,,,,2,,,57,0
70992,note_off,,,,,48,0,1,,,,,0,,,67,0
71040,note_on,,,,,48,0,1,,,,,0,,,79,103
71040,note_on,,,,,48,0,3,,,,,2,,,55,87
71040,note_on,,,,,48,0,4,,,,,3,,,52,78
71088,note_off,,,,,48,0,4,,,,,3,,,52,0
71088,note_off,,,,,48,0,3,,,,,2,,,55,0
71136,note_on,,,,,48,0,4,,,,,3,,,54,78
71136,note_on,,,,,48,0,3,,,,,2,,,57,87
71136,note_on,,,,,768,0,2,,,,,1,,,55,96
71184,note_off,,,,,48,0,4,,,,,3,,,54,0
71184,note_off,,,,,48,0,3,,,,,2,,,57,0
71232,note_off,,,,,96,0,2,,,,,1,,,55,0
71232,note_on,,,,,0,0,2,,,,,1,,,67,96
71232,note_on,,,,,48,0,4,,,,,3,,,52,78
71232,note_off,,,,,192,0,1,,,,,0,,,79,0
71232,note_on,,,,,48,0,3,,,,,2,,,55,87
71280,note_off,,,,,48,0,3,,,,,2,,,55,0
71280,note_off,,,,,48,0,4,,,,,3,,,52,0
71328,note_on,,,,,48,0,3,,,,,2,,,54,87
71328,note_on,,,,,0,0,2,,,,,1,,,55,96
71328,note_off,,,,,96,0,2,,,,,1,,,67,0
71328,note_on,,,,,48,0,4,,,,,3,,,50,78
71376,note_off,,,,,48,0,3,,,,,2,,,54,0
71376,note_off,,,,,48,0,4,,,,,3,,,50,0
71424,note_on,,,,,0,0,2,,,,,1,,,64,96
71424,note_on,,,,,48,0,3,,,,,2,,,52,87
71424,note_on,,,,,48,0,4,,,,,3,,,48,78
71424,note_off,,,,,96,0,2,,,,,1,,,55,0
71520,note_on,,,,,288,0,1,,,,,0,,,76,103
71520,note_off,,,,,96,0,4,,,,,3,,,48,0
71520,note_off,,,,,96,0,3,,,,,2,,,52,0
71568,note_off,,,,,48,0,1,,,,,0,,,76,0
71616,note_on,,,,,96,0,4,,,,,3,,,48,78
71616,note_on,,,,,48,0,1,,,,,0,,,88,103
71616,note_on,,,,,96,0,3,,,,,2,,,57,87
71616,note_off,,,,,192,0,2,,,,,1,,,64,0
71664,note_off,,,,,48,0,1,,,,,0,,,88,0
71712,note_on,,,,,48,0,1,,,,,0,,,76,103
71760,note_off,,,,,48,0,1,,,,,0,,,76,0
71808,note_on,,,,,48,0,1,,,,,0,,,88,103
71904,note_on,,,,,288,0,2,,,,,1,,,64,96
71952,note_off,,,,,48,0,2,,,,,1,,,64,0
72000,note_on,,,,,48,0,2,,,,,1,,,76,96
72000,note_off,,,,,192,0,1,,,,,0,,,88,0
72000,note_on,,,,,0,0,3,,,,,2,,,55,87
72000,note_off,,,,,384,0,3,,,,,2,,,57,0
72000,note_on,,,,,0,0,4,,,,,3,,,49,78
72000,note_off,,,,,384,0,4,,,,,3,,,48,0
72048,note_off,,,,,48,0,2,,,,,1,,,76,0
72096,note_on,,,,,48,0,2,,,,,1,,,64,96
72144,note_off,,,,,48,0,2,,,,,1,,,64,0
72192,note_on,,,,,48,0,2,,,,,1,,,62,96
72192,note_on,,,,,0,0,3,,,,,2,,,54,87
72192,note_off,,,,,192,0,3,,,,,2,,,55,0
72192,note_on,,,,,0,0,4,,,,,3,,,50,78
72192,note_off,,,,,192,0,4,,,,,3,,,49,0
72240,note_off,,,,,48,0,4,,,,,3,,,50,0
72240,note_off,,,,,48,0,3,,,,,2,,,54,0
72288,note_on,,,,,48,0,3,,,,,2,,,55,87
72288,note_on,,,,,288,0,1,,,,,0,,,74,103
72288,note_on,,,,,48,0,4,,,,,3,,,49,78
72336,note_off,,,,,48,0,3,,,,,2,,,55,0
72336,note_off,,,,,48,0,4,,,,,3,,,49,0
72336,note_off,,,,,48,0,1,,,,,0,,,74,0
72384,note_on,,,,,48,0,4,,,,,3,,,50,78
72384,note_on,,,,,48,0,1,,,,,0,,,86,103
72384,note_on,,,,,48,0,3,,,,,2,,,57,87
72384,note_off,,,,,192,0,2,,,,,1,,,62,0
72432,note_off,,,,,48,0,1,,,,,0,,,86,0
72432,note_off,,,,,48,0,3,,,,,2,,,57,0
72432,note_off,,,,,48,0,4,,,,,3,,,50,0
72480,note_on,,,,,48,0,3,,,,,2,,,54,87
72480,note_on,,,,,48,0,1,,,,,0,,,74,103
72480,note_on,,,,,48,0,4,,,,,3,,,48,78
72528,note_off,,,,,48,0,4,,,,,3,,,48,0
72528,note_off,,,,,48,0,1,,,,,0,,,74,0
72528,note_off,,,,,48,0,3,,,,,2,,,54,0
72576,note_on,,,,,48,0,4,,,,,3,,,47,78
72576,note_on,,,,,48,0,1,,,,,0,,,86,103
72576,note_on,,,,,48,0,3,,,,,2,,,55,87
72624,note_off,,,,,48,0,3,,,,,2,,,55,0
72624,note_off,,,,,48,0,1,,,,,0,,,86,0
72624,note_off,,,,,48,0,4,,,,,3,,,47,0
72672,note_on,,,,,48,0,3,,,,,2,,,57,87
72672,note_on,,,,,288,0,2,,,,,1,,,62,96
72672,note_on,,,,,48,0,4,,,,,3,,,42,78
72672,note_on,,,,,48,0,1,,,,,0,,,74,103
72720,note_off,,,,,48,0,3,,,,,2,,,57,0
72720,note_off,,,,,48,0,2,,,,,1,,,62,0
72720,note_off,,,,,48,0,1,,,,,0,,,74,0
72720,note_off,,,,,48,0,4,,,,,3,,,42,0
72768,note_on,,,,,48,0,1,,,,,0,,,86,103
72768,note_on,,,,,48,0,3,,,,,2,,,59,87
72768,note_on,,,,,48,0,2,,,,,1,,,74,96
72768,note_on,,,,,48,0,4,,,,,3,,,43,78
72816,note_off,,,,,48,0,2,,,,,1,,,74,0
72816,note_off,,,,,48,0,1,,,,,0,,,86,0
72816,note_off,,,,,48,0,3,,,,,2,,,59,0
72816,note_off,,,,,48,0,4,,,,,3,,,43,0
72864,note_on,,,,,48,0,2,,,,,1,,,62,96
72864,note_on,,,,,48,0,1,,,,,0,,,74,103
72864,note_on,,,,,48,0,3,,,,,2,,,55,87
72864,note_on,,,,,48,0,4,,,,,3,,,47,78
72912,note_off,,,,,48,0,1,,,,,0,,,74,0
72912,note_off,,,,,48,0,4,,,,,3,,,47,0
72912,note_off,,,,,48,0,2,,,,,1,,,62,0
72912,note_off,,,,,48,0,3,,,,,2,,,55,0
72960,note_on,,,,,48,0,3,,,,,2,,,54,87
72960,note_on,,,,,48,0,2,,,,,1,,,69,96
72960,note_on,,,,,48,0,4,,,,,3,,,50,78
73008,note_off,,,,,48,0,2,,,,,1,,,69,0
73008,note_off,,,,,48,0,4,,,,,3,,,50,0
73008,note_off,,,,,48,0,3,,,,,2,,,54,0
73056,note_on,,,,,48,0,2,,,,,1,,,57,96
73056,note_on,,,,,144,0,1,,,,,0,,,69,103
73056,note_on,,,,,48,0,4,,,,,3,,,49,78
73056,note_on,,,,,48,0,3,,,,,2,,,52,87
73104,note_off,,,,,48,0,1,,,,,0,,,69,0
73104,note_off,,,,,48,0,2,,,,,1,,,57,0
73104,note_off,,,,,48,0,4,,,,,3,,,49,0
73104,note_off,,,,,48,0,3,,,,,2,,,52,0
73152,note_on,,,,,48,0,2,,,,,1,,,69,96
73152,note_on,,,,,48,0,4,,,,,3,,,52,78
73152,note_on,,,,,48,0,1,,,,,0,,,81,103
73152,note_on,,,,,48,0,3,,,,,2,,,55,87
73200,note_off,,,,,48,0,3,,,,,2,,,55,0
73200,note_off,,,,,48,0,4,,,,,3,,,52,0
73200,note_off,,,,,48,0,1,,,,,0,,,81,0
73200,note_off,,,,,48,0,2,,,,,1,,,69,0
73248,note_on,,,,,48,0,3,,,,,2,,,52,87
73248,note_on,,,,,48,0,4,,,,,3,,,49,78
73248,note_on,,,,,48,0,1,,,,,0,,,69,103
73248,note_on,,,,,48,0,2,,,,,1,,,57,96
73296,note_off,,,,,48,0,2,,,,,1,,,57,0
73296,note_off,,,,,48,0,4,,,,,3,,,49,0
73296,note_off,,,,,48,0,3,,,,,2,,,52,0
73296,note_off,,,,,48,0,1,,,,,0,,,69,0
73344,note_on,,,,,48,0,4,,,,,3,,,50,78
73344,note_on,,,,,48,0,2,,,,,1,,,62,96
73344,note_on,,,,,48,0,3,,,,,2,,,54,87
73344,note_on,,,,,48,0,1,,,,,0,,,74,103
73536,note_off,,,,,192,0,4,,,,,3,,,50,0
73536,note_off,,,,,192,0,1,,,,,0,,,74,0
73536,note_off,,,,,192,0,2,,,,,1,,,62,0
73536,note_on,,,,,0,0,4,,,,,3,,,55,78
73536,note_on,,,,,0,0,3,,,,,2,,,59,87
73536,note_off,,,,,192,0,3,,,,,2,,,54,0
73584,note_off,,,,,48,0,4,,,,,3,,,55,0
73584,note_off,,,,,48,0,3,,,,,2,,,59,0
73632,note_on,,,,,48,0,4,,,,,3,,,57,78
73632,note_on,,,,,48,0,3,,,,,2,,,60,87
73680,note_off,,,,,48,0,3,,,,,2,,,60,0
73680,note_off,,,,,48,0,4,,,,,3,,,57,0
73728,note_on,,,,,48,0,4,,,,,3,,,59,78
73728,note_on,,,,,48,0,3,,,,,2,,,62,87
73776,note_off,,,,,48,0,3,,,,,2,,,62,0
73776,note_off,,,,,48,0,4,,,,,3,,,59,0
73824,note_on,,,,,48,0,4,,,,,3,,,57,78
73824,note_on,,,,,48,0,3,,,,,2,,,60,87
73824,note_on,,,,,288,0,1,,,,,0,,,67,103
73872,note_off,,,,,48,0,4,,,,,3,,,57,0
73872,note_off,,,,,48,0,1,,,,,0,,,67,0
73872,note_off,,,,,48,0,3,,,,,2,,,60,0
73920,note_on,,,,,48,0,4,,,,,3,,,55,78
73920,note_on,,,,,48,0,1,,,,,0,,,79,103
73920,note_on,,,,,48,0,3,,,,,2,,,59,87
73968,note_off,,,,,48,0,1,,,,,0,,,79,0
73968,note_off,,,,,48,0,3,,,,,2,,,59,0
73968,note_off,,,,,48,0,4,,,,,3,,,55,0
74016,note_on,,,,,48,0,4,,,,,3,,,54,78
74016,note_on,,,,,48,0,1,,,,,0,,,67,103
74016,note_on,,,,,48,0,3,,,,,2,,,57,87
74064,note_off,,,,,48,0,3,,,,,2,,,57,0
74064,note_off,,,,,48,0,4,,,,,3,,,54,0
74064,note_off,,,,,48,0,1,,,,,0,,,67,0
74112,note_on,,,,,48,0,4,,,,,3,,,52,78
74112,note_on,,,,,48,0,3,,,,,2,,,55,87
74112,note_on,,,,,48,0,1,,,,,0,,,79,103
74160,note_off,,,,,48,0,4,,,,,3,,,52,0
74160,note_off,,,,,48,0,3,,,,,2,,,55,0
74208,note_on,,,,,48,0,4,,,,,3,,,54,78
74208,note_on,,,,,48,0,3,,,,,2,,,57,87
74208,note_on,,,,,672,0,2,,,,,1,,,55,96
74256,note_off,,,,,48,0,4,,,,,3,,,54,0
74256,note_off,,,,,48,0,3,,,,,2,,,57,0
74256,note_off,,,,,48,0,2,,,,,1,,,55,0
74304,note_off,,,,,192,0,1,,,,,0,,,79,0
74304,note_on,,,,,48,0,3,,,,,2,,,55,87
74304,note_on,,,,,48,0,4,,,,,3,,,52,78
74304,note_on,,,,,48,0,2,,,,,1,,,67,96
74352,note_off,,,,,48,0,4,,,,,3,,,52,0
74352,note_off,,,,,48,0,2,,,,,1,,,67,0
74352,note_off,,,,,48,0,3,,,,,2,,,55,0
74400,note_on,,,,,48,0,4,,,,,3,,,50,78
74400,note_on,,,,,48,0,2,,,,,1,,,55,96
74400,note_on,,,,,48,0,3,,,,,2,,,54,87
74448,note_off,,,,,48,0,2,,,,,1,,,55,0
74448,note_off,,,,,48,0,3,,,,,2,,,54,0
74448,note_off,,,,,48,0,4,,,,,3,,,50,0
74496,note_on,,,,,48,0,3,,,,,2,,,52,87
74496,note_on,,,,,48,0,2,,,,,1,,,64,96
74496,note_on,,,,,48,0,4,,,,,3,,,48,78
74592,note_on,,,,,288,0,1,,,,,0,,,76,103
74592,note_off,,,,,96,0,4,,,,,3,,,48,0
74592,note_off,,,,,96,0,3,,,,,2,,,52,0
74640,note_off,,,,,48,0,1,,,,,0,,,76,0
74688,note_on,,,,,48,0,1,,,,,0,,,88,103
74688,note_on,,,,,96,0,4,,,,,3,,,48,78
74688,note_on,,,,,96,0,3,,,,,2,,,58,87
74688,note_off,,,,,192,0,2,,,,,1,,,64,0
74736,note_off,,,,,48,0,1,,,,,0,,,88,0
74784,note_on,,,,,48,0,1,,,,,0,,,76,103
74832,note_off,,,,,48,0,1,,,,,0,,,76,0
74880,note_off,,,,,192,0,4,,,,,3,,,48,0
74880,note_on,,,,,0,0,4,,,,,3,,,49,78
74880,note_on,,,,,48,0,1,,,,,0,,,88,103
74976,note_on,,,,,288,0,2,,,,,1,,,64,96
75024,note_off,,,,,48,0,2,,,,,1,,,64,0
75072,note_on,,,,,0,0,3,,,,,2,,,57,87
75072,note_off,,,,,384,0,3,,,,,2,,,58,0
75072,note_on,,,,,48,0,2,,,,,1,,,76,96
75072,note_off,,,,,192,0,1,,,,,0,,,88,0
75120,note_off,,,,,48,0,2,,,,,1,,,76,0
75168,note_on,,,,,48,0,2,,,,,1,,,64,96
75168,note_on,,,,,0,0,3,,,,,2,,,55,87
75168,note_off,,,,,96,0,3,,,,,2,,,57,0
75216,note_off,,,,,48,0,2,,,,,1,,,64,0
75264,note_on,,,,,48,0,2,,,,,1,,,69,96
75264,note_on,,,,,0,0,3,,,,,2,,,54,87
75264,note_off,,,,,384,0,4,,,,,3,,,49,0
75264,note_on,,,,,0,0,4,,,,,3,,,50,78
75264,note_off,,,,,96,0,3,,,,,2,,,55,0
75312,note_off,,,,,48,0,3,,,,,2,,,54,0
75312,note_off,,,,,48,0,4,,,,,3,,,50,0
75360,note_on,,,,,48,0,3,,,,,2,,,55,87
75360,note_on,,,,,48,0,4,,,,,3,,,52,78
75360,note_on,,,,,288,0,1,,,,,0,,,81,103
75408,note_off,,,,,48,0,1,,,,,0,,,81,0
75408,note_off,,,,,48,0,3,,,,,2,,,55,0
75408,note_off,,,,,48,0,4,,,,,3,,,52,0
75456,note_on,,,,,48,0,1,,,,,0,,,93,103
75456,note_on,,,,,48,0,3,,,,,2,,,57,87
75456,note_off,,,,,192,0,2,,,,,1,,,69,0
75456,note_on,,,,,48,0,4,,,,,3,,,54,78
75504,note_off,,,,,48,0,1,,,,,0,,,93,0
75504,note_off,,,,,48,0,4,,,,,3,,,54,0
75504,note_off,,,,,48,0,3,,,,,2,,,57,0
75552,note_on,,,,,48,0,3,,,,,2,,,54,87
75552,note_on,,,,,48,0,4,,,,,3,,,50,78
75552,note_on,,,,,48,0,1,,,,,0,,,81,103
75600,note_off,,,,,48,0,4,,,,,3,,,50,0
75600,note_off,,,,,48,0,3,,,,,2,,,54,0
75600,note_off,,,,,48,0,1,,,,,0,,,81,0
75648,note_on,,,,,48,0,3,,,,,2,,,52,87
75648,note_on,,,,,48,0,1,,,,,0,,,93,103
75648,note_on,,,,,48,0,4,,,,,3,,,49,78
75696,note_off,,,,,48,0,1,,,,,0,,,93,0
75696,note_off,,,,,48,0,4,,,,,3,,,49,0
75696,note_off,,,,,48,0,3,,,,,2,,,52,0
75744,note_on,,,,,48,0,3,,,,,2,,,54,87
75744,note_on,,,,,288,0,2,,,,,1,,,69,96
75744,note_on,,,,,48,0,1,,,,,0,,,81,103
75744,note_on,,,,,48,0,4,,,,,3,,,50,78
75792,note_off,,,,,48,0,4,,,,,3,,,50,0
75792,note_off,,,,,48,0,2,,,,,1,,,69,0
75792,note_off,,,,,48,0,1,,,,,0,,,81,0
75792,note_off,,,,,48,0,3,,,,,2,,,54,0
75840,note_on,,,,,48,0,4,,,,,3,,,52,78
75840,note_on,,,,,48,0,1,,,,,0,,,93,103
75840,note_on,,,,,48,0,2,,,,,1,,,81,96
75840,note_on,,,,,48,0,3,,,,,2,,,55,87
75888,note_off,,,,,48,0,1,,,,,0,,,93,0
75888,note_off,,,,,48,0,2,,,,,1,,,81,0
75888,note_off,,,,,48,0,3,,,,,2,,,55,0
75888,note_off,,,,,48,0,4,,,,,3,,,52,0
75936,note_on,,,,,48,0,2,,,,,1,,,69,96
75936,note_on,,,,,48,0,3,,,,,2,,,52,87
75936,note_on,,,,,48,0,4,,,,,3,,,49,78
75936,note_on,,,,,48,0,1,,,,,0,,,81,103
75984,note_off,,,,,48,0,2,,,,,1,,,69,0
75984,note_off,,,,,48,0,4,,,,,3,,,49,0
75984,note_off,,,,,48,0,3,,,,,2,,,52,0
75984,note_off,,,,,48,0,1,,,,,0,,,81,0
76032,note_on,,,,,48,0,3,,,,,2,,,54,87
76032,note_on,,,,,48,0,2,,,,,1,,,74,96
76032,note_on,,,,,48,0,4,,,,,3,,,50,78
76080,note_off,,,,,48,0,2,,,,,1,,,74,0
76128,note_off,,,,,96,0,3,,,,,2,,,54,0
76128,note_on,,,,,48,0,2,,,,,1,,,62,96
76128,note_off,,,,,96,0,4,,,,,3,,,50,0
76128,note_on,,,,,144,0,1,,,,,0,,,74,103
76176,note_off,,,,,48,0,1,,,,,0,,,74,0
76176,note_off,,,,,48,0,2,,,,,1,,,62,0
76224,note_on,,,,,0,0,3,,,,,2,,,57,87
76224,note_on,,,,,48,0,2,,,,,1,,,74,96
76224,note_on,,,,,96,0,4,,,,,3,,,38,78
76224,note_on,,,,,48,0,1,,,,,0,,,86,103
76224,note_on,,,,,96,0,3,,,,,2,,,66,87
76272,note_off,,,,,48,0,2,,,,,1,,,74,0
76272,note_off,,,,,48,0,1,,,,,0,,,86,0
76320,note_on,,,,,48,0,1,,,,,0,,,74,103
76320,note_off,,,,,96,0,4,,,,,3,,,38,0
76320,note_on,,,,,48,0,2,,,,,1,,,62,96
76320,note_off,,,,,96,0,3,,,,,2,,,66,0
76320,note_off,,,,,0,0,3,,,,,2,,,57,0
76368,note_off,,,,,48,0,2,,,,,1,,,62,0
76368,note_off,,,,,48,0,1,,,,,0,,,74,0
76416,note_on,,,,,48,0,2,,,,,1,,,74,96
76416,note_on,,,,,48,0,1,,,,,0,,,86,103
76608,note_on,,,,,0,0,1,,,,,0,,,84,103
76608,note_off,,,,,192,0,2,,,,,1,,,74,0
76608,note_off,,,,,192,0,1,,,,,0,,,86,0
76704,note_on,,,,,0,0,1,,,,,0,,,86,103
76704,note_off,,,,,96,0,1,,,,,0,,,84,0
76800,note_on,,,,,0,0,1,,,,,0,,,88,103
76800,note_on,,,,,192,0,2,,,,,1,,,69,96
76800,note_on,,,,,480,0,3,,,,,2,,,66,87
76800,note_on,,,,,480,0,4,,,,,3,,,62,78
76800,note_off,,,,,96,0,1,,,,,0,,,86,0
76848,note_off,,,,,48,0,4,,,,,3,,,62,0
76848,note_off,,,,,48,0,3,,,,,2,,,66,0
76848,note_off,,,,,48,0,2,,,,,1,,,69,0
76896,note_on,,,,,48,0,2,,,,,1,,,69,96
76896,note_off,,,,,96,0,1,,,,,0,,,88,0
76896,note_on,,,,,0,0,1,,,,,0,,,86,103
76896,note_on,,,,,48,0,4,,,,,3,,,62,78
76896,note_on,,,,,48,0,3,,,,,2,,,66,87
76944,note_off,,,,,48,0,2,,,,,1,,,69,0
76944,note_off,,,,,48,0,4,,,,,3,,,62,0
76944,note_off,,,,,48,0,3,,,,,2,,,66,0
76992,note_on,,,,,48,0,2,,,,,1,,,69,96
76992,note_on,,,,,0,0,1,,,,,0,,,84,103
76992,note_off,,,,,96,0,1,,,,,0,,,86,0
76992,note_on,,,,,48,0,4,,,,,3,,,62,78
76992,note_on,,,,,48,0,3,,,,,2,,,66,87
77040,note_off,,,,,48,0,3,,,,,2,,,66,0
77040,note_off,,,,,48,0,2,,,,,1,,,69,0
77040,note_off,,,,,48,0,4,,,,,3,,,62,0
77088,note_off,,,,,96,0,1,,,,,0,,,84,0
77088,note_on,,,,,48,0,2,,,,,1,,,69,96
77088,note_on,,,,,48,0,3,,,,,2,,,66,87
77088,note_on,,,,,0,0,1,,,,,0,,,83,103
77088,note_on,,,,,48,0,4,,,,,3,,,62,78
77136,note_off,,,,,48,0,2,,,,,1,,,69,0
77136,note_off,,,,,48,0,3,,,,,2,,,66,0
77136,note_off,,,,,48,0,4,,,,,3,,,62,0
77184,note_on,,,,,48,0,2,,,,,1,,,69,96
77184,note_off,,,,,96,0,1,,,,,0,,,83,0
77184,note_on,,,,,0,0,1,,,,,0,,,81,103
77184,note_on,,,,,48,0,4,,,,,3,,,62,78
77184,note_on,,,,,48,0,3,,,,,2,,,66,87
77232,note_off,,,,,48,0,4,,,,,3,,,62,0
77232,note_off,,,,,48,0,2,,,,,1,,,69,0
77232,note_off,,,,,48,0,3,,,,,2,,,66,0
77280,note_on,,,,,48,0,3,,,,,2,,,66,87
77280,note_on,,,,,0,0,1,,,,,0,,,83,103
77280,note_off,,,,,96,0,1,,,,,0,,,81,0
77280,note_on,,,,,48,0,2,,,,,1,,,69,96
77280,note_on,,,,,48,0,4,,,,,3,,,62,78
77328,note_off,,,,,48,0,4,,,,,3,,,62,0
77328,note_off,,,,,48,0,3,,,,,2,,,66,0
77328,note_off,,,,,48,0,2,,,,,1,,,69,0
77376,note_on,,,,,48,0,4,,,,,3,,,62,78
77376,note_off,,,,,96,0,1,,,,,0,,,83,0
77376,note_on,,,,,48,0,3,,,,,2,,,69,87
77376,note_on,,,,,0,0,1,,,,,0,,,81,103
77376,note_on,,,,,48,0,2,,,,,1,,,72,96
77424,note_off,,,,,48,0,4,,,,,3,,,62,0
77424,note_off,,,,,48,0,3,,,,,2,,,69,0
77424,note_off,,,,,48,0,2,,,,,1,,,72,0
77472,note_on,,,,,48,0,3,,,,,2,,,71,87
77472,note_on,,,,,48,0,2,,,,,1,,,74,96
77472,note_on,,,,,48,0,4,,,,,3,,,62,78
77472,note_on,,,,,0,0,1,,,,,0,,,79,103
77472,note_off,,,,,96,0,1,,,,,0,,,81,0
77520,note_off,,,,,48,0,2,,,,,1,,,74,0
77520,note_off,,,,,48,0,4,,,,,3,,,62,0
77520,note_off,,,,,48,0,3,,,,,2,,,71,0
77568,note_off,,,,,96,0,1,,,,,0,,,79,0
77568,note_on,,,,,0,0,1,,,,,0,,,78,103
77568,note_on,,,,,48,0,4,,,,,3,,,62,78
77568,note_on,,,,,48,0,3,,,,,2,,,72,87
77568,note_on,,,,,48,0,2,,,,,1,,,76,96
77616,note_off,,,,,48,0,4,,,,,3,,,62,0
77616,note_off,,,,,48,0,2,,,,,1,,,76,0
77616,note_off,,,,,48,0,3,,,,,2,,,72,0
77664,note_on,,,,,48,0,3,,,,,2,,,71,87
77664,note_off,,,,,96,0,1,,,,,0,,,78,0
77664,note_on,,,,,48,0,2,,,,,1,,,74,96
77664,note_on,,,,,48,0,4,,,,,3,,,62,78
77712,note_off,,,,,48,0,2,,,,,1,,,74,0
77712,note_off,,,,,48,0,3,,,,,2,,,71,0
77712,note_off,,,,,48,0,4,,,,,3,,,62,0
77760,note_on,,,,,48,0,3,,,,,2,,,69,87
77760,note_on,,,,,96,0,1,,,,,0,,,86,103
77760,note_on,,,,,48,0,2,,,,,1,,,72,96
77760,note_on,,,,,48,0,4,,,,,3,,,62,78
77808,note_off,,,,,48,0,2,,,,,1,,,72,0
77808,note_off,,,,,48,0,4,,,,,3,,,62,0
77808,note_off,,,,,48,0,3,,,,,2,,,69,0
77856,note_on,,,,,48,0,2,,,,,1,,,71,96
77856,note_on,,,,,48,0,3,,,,,2,,,67,87
77856,note_on,,,,,48,0,4,,,,,3,,,62,78
77904,note_off,,,,,48,0,3,,,,,2,,,67,0
77904,note_off,,,,,48,0,4,,,,,3,,,62,0
77904,note_off,,,,,48,0,2,,,,,1,,,71,0
77952,note_on,,,,,48,0,3,,,,,2,,,66,87
77952,note_on,,,,,48,0,4,,,,,3,,,62,78
77952,note_on,,,,,48,0,2,,,,,1,,,69,96
78000,note_off,,,,,48,0,2,,,,,1,,,69,0
78000,note_off,,,,,48,0,4,,,,,3,,,62,0
78000,note_off,,,,,48,0,3,,,,,2,,,66,0
78048,note_on,,,,,48,0,4,,,,,3,,,62,78
78048,note_on,,,,,48,0,2,,,,,1,,,71,96
78048,note_on,,,,,48,0,3,,,,,2,,,67,87
78096,note_off,,,,,48,0,4,,,,,3,,,62,0
78096,note_off,,,,,48,0,3,,,,,2,,,67,0
78096,note_off,,,,,48,0,2,,,,,1,,,71,0
78144,note_on,,,,,48,0,2,,,,,1,,,69,96
78144,note_off,,,,,384,0,1,,,,,0,,,86,0
78144,note_on,,,,,48,0,3,,,,,2,,,66,87
78144,note_on,,,,,48,0,4,,,,,3,,,62,78
78144,note_on,,,,,0,0,1,,,,,0,,,84,103
78192,note_off,,,,,48,0,2,,,,,1,,,69,0
78192,note_off,,,,,48,0,4,,,,,3,,,62,0
78192,note_off,,,,,48,0,3,,,,,2,,,66,0
78240,note_on,,,,,48,0,4,,,,,3,,,62,78
78240,note_off,,,,,96,0,1,,,,,0,,,84,0
78240,note_on,,,,,0,0,1,,,,,0,,,86,103
78240,note_on,,,,,48,0,2,,,,,1,,,67,96
78240,note_on,,,,,48,0,3,,,,,2,,,64,87
78288,note_off,,,,,48,0,3,,,,,2,,,64,0
78288,note_off,,,,,48,0,2,,,,,1,,,67,0
78288,note_off,,,,,48,0,4,,,,,3,,,62,0
78336,note_on,,,,,0,0,1,,,,,0,,,88,103
78336,note_on,,,,,48,0,3,,,,,2,,,62,87
78336,note_on,,,,,48,0,2,,,,,1,,,66,96
78336,note_off,,,,,96,0,1,,,,,0,,,86,0
78336,note_on,,,,,48,0,4,,,,,3,,,62,78
78384,note_off,,,,,48,0,2,,,,,1,,,66,0
78384,note_off,,,,,48,0,3,,,,,2,,,62,0
78384,note_off,,,,,48,0,4,,,,,3,,,62,0
78432,note_on,,,,,0,0,1,,,,,0,,,86,103
78432,note_off,,,,,96,0,1,,,,,0,,,88,0
78432,note_on,,,,,48,0,2,,,,,1,,,69,96
78432,note_on,,,,,48,0,4,,,,,3,,,62,78
78432,note_on,,,,,48,0,3,,,,,2,,,66,87
78480,note_off,,,,,48,0,4,,,,,3,,,62,0
78480,note_off,,,,,48,0,2,,,,,1,,,69,0
78480,note_off,,,,,48,0,3,,,,,2,,,66,0
78528,note_on,,,,,0,0,1,,,,,0,,,84,103
78528,note_off,,,,,96,0,1,,,,,0,,,86,0
78528,note_on,,,,,48,0,3,,,,,2,,,66,87
78528,note_on,,,,,48,0,2,,,,,1,,,69,96
78528,note_on,,,,,48,0,4,,,,,3,,,62,78
78576,note_off,,,,,48,0,4,,,,,3,,,62,0
78576,note_off,,,,,48,0,2,,,,,1,,,69,0
78576,note_off,,,,,48,0,3,,,,,2,,,66,0
78624,note_on,,,,,48,0,3,,,,,2,,,66,87
78624,note_on,,,,,48,0,4,,,,,3,,,62,78
78624,note_off,,,,,96,0,1,,,,,0,,,84,0
78624,note_on,,,,,0,0,1,,,,,0,,,83,103
78624,note_on,,,,,48,0,2,,,,,1,,,69,96
78672,note_off,,,,,48,0,3,,,,,2,,,66,0
78672,note_off,,,,,48,0,2,,,,,1,,,69,0
78672,note_off,,,,,48,0,4,,,,,3,,,62,0
78720,note_on,,,,,48,0,2,,,,,1,,,69,96
78720,note_on,,,,,48,0,4,,,,,3,,,62,78
78720,note_off,,,,,96,0,1,,,,,0,,,83,0
78720,note_on,,,,,0,0,1,,,,,0,,,81,103
78720,note_on,,,,,48,0,3,,,,,2,,,66,87
78768,note_off,,,,,48,0,3,,,,,2,,,66,0
78768,note_off,,,,,48,0,2,,,,,1,,,69,0
78768,note_off,,,,,48,0,4,,,,,3,,,62,0
78816,note_on,,,,,48,0,4,,,,,3,,,62,78
78816,note_on,,,,,48,0,3,,,,,2,,,66,87
78816,note_on,,,,,48,0,2,,,,,1,,,69,96
78816,note_on,,,,,0,0,1,,,,,0,,,83,103
78816,note_off,,,,,96,0,1,,,,,0,,,81,0
78864,note_off,,,,,48,0,4,,,,,3,,,62,0
78864,note_off,,,,,48,0,3,,,,,2,,,66,0
78864,note_off,,,,,48,0,2,,,,,1,,,69,0
78912,note_off,,,,,96,0,1,,,,,0,,,83,0
78912,note_on,,,,,48,0,3,,,,,2,,,69,87
78912,note_on,,,,,48,0,4,,,,,3,,,62,78
78912,note_on,,,,,0,0,1,,,,,0,,,81,103
78912,note_on,,,,,48,0,2,,,,,1,,,72,96
78960,note_off,,,,,48,0,2,,,,,1,,,72,0
78960,note_off,,,,,48,0,4,,,,,3,,,62,0
78960,note_off,,,,,48,0,3,,,,,2,,,69,0
79008,note_on,,,,,48,0,2,,,,,1,,,74,96
79008,note_off,,,,,96,0,1,,,,,0,,,81,0
79008,note_on,,,,,48,0,3,,,,,2,,,71,87
79008,note_on,,,,,0,0,1,,,,,0,,,79,103
79008,note_on,,,,,48,0,4,,,,,3,,,62,78
79056,note_off,,,,,48,0,2,,,,,1,,,74,0
79056,note_off,,,,,48,0,4,,,,,3,,,62,0
79056,note_off,,,,,48,0,3,,,,,2,,,71,0
79104,note_on,,,,,48,0,4,,,,,3,,,62,78
79104,note_off,,,,,96,0,1,,,,,0,,,79,0
79104,note_on,,,,,0,0,1,,,,,0,,,78,103
79104,note_on,,,,,48,0,2,,,,,1,,,76,96
79104,note_on,,,,,48,0,3,,,,,2,,,72,87
79152,note_off,,,,,48,0,2,,,,,1,,,76,0
79152,note_off,,,,,48,0,4,,,,,3,,,62,0
79152,note_off,,,,,48,0,3,,,,,2,,,72,0
79200,note_on,,,,,48,0,3,,,,,2,,,71,87
79200,note_on,,,,,48,0,4,,,,,3,,,62,78
79200,note_on,,,,,48,0,2,,,,,1,,,74,96
79200,note_off,,,,,96,0,1,,,,,0,,,78,0
79248,note_off,,,,,48,0,4,,,,,3,,,62,0
79248,note_off,,,,,48,0,2,,,,,1,,,74,0
79248,note_off,,,,,48,0,3,,,,,2,,,71,0
79296,note_on,,,,,48,0,2,,,,,1,,,72,96
79296,note_on,,,,,48,0,3,,,,,2,,,69,87
79296,note_on,,,,,48,0,4,,,,,3,,,62,78
79296,note_on,,,,,96,0,1,,,,,0,,,86,103
79344,note_off,,,,,48,0,3,,,,,2,,,69,0
79344,note_off,,,,,48,0,2,,,,,1,,,72,0
79344,note_off,,,,,48,0,4,,,,,3,,,62,0
79392,note_on,,,,,48,0,2,,,,,1,,,71,96
79392,note_on,,,,,48,0,3,,,,,2,,,67,87
79392,note_on,,,,,48,0,4,,,,,3,,,62,78
79440,note_off,,,,,48,0,2,,,,,1,,,71,0
79440,note_off,,,,,48,0,3,,,,,2,,,67,0
79440,note_off,,,,,48,0,4,,,,,3,,,62,0
79488,note_on,,,,,48,0,4,,,,,3,,,62,78
79488,note_on,,,,,48,0,3,,,,,2,,,66,87
79488,note_on,,,,,48,0,2,,,,,1,,,69,96
79584,note_off,,,,,96,0,4,,,,,3,,,62,0
79584,note_off,,,,,96,0,3,,,,,2,,,66,0
79584,note_off,,,,,96,0,2,,,,,1,,,69,0
79680,note_on,,,,,96,0,3,,,,,2,,,60,87
79680,note_on,,,,,96,0,4,,,,,3,,,57,78
79680,note_off,,,,,384,0,1,,,,,0,,,86,0
79728,note_off,,,,,48,0,4,,,,,3,,,57,0
79728,note_off,,,,,48,0,3,,,,,2,,,60,0
79776,note_on,,,,,48,0,3,,,,,2,,,62,87
79776,note_on,,,,,48,0,4,,,,,3,,,59,78
79824,note_off,,,,,48,0,3,,,,,2,,,62,0
79824,note_off,,,,,48,0,4,,,,,3,,,59,0
79872,note_on,,,,,48,0,3,,,,,2,,,64,87
79872,note_on,,,,,48,0,4,,,,,3,,,60,78
79920,note_off,,,,,48,0,3,,,,,2,,,64,0
79920,note_off,,,,,48,0,4,,,,,3,,,60,0
79968,note_on,,,,,48,0,3,,,,,2,,,62,87
79968,note_on,,,,,48,0,4,,,,,3,,,59,78
80016,note_off,,,,,48,0,3,,,,,2,,,62,0
80016,note_off,,,,,48,0,4,,,,,3,,,59,0
80064,note_on,,,,,48,0,3,,,,,2,,,60,87
80064,note_on,,,,,48,0,4,,,,,3,,,57,78
80112,note_off,,,,,48,0,3,,,,,2,,,60,0
80112,note_off,,,,,48,0,4,,,,,3,,,57,0
80160,note_on,,,,,48,0,3,,,,,2,,,59,87
80160,note_on,,,,,48,0,4,,,,,3,,,55,78
80208,note_off,,,,,48,0,4,,,,,3,,,55,0
80208,note_off,,,,,48,0,3,,,,,2,,,59,0
80256,note_on,,,,,48,0,4,,,,,3,,,54,78
80256,note_on,,,,,48,0,3,,,,,2,,,57,87
80304,note_off,,,,,48,0,4,,,,,3,,,54,0
80304,note_off,,,,,48,0,3,,,,,2,,,57,0
80352,note_on,,,,,48,0,4,,,,,3,,,55,78
80352,note_on,,,,,48,0,3,,,,,2,,,59,87
80400,note_off,,,,,48,0,3,,,,,2,,,59,0
80400,note_off,,,,,48,0,4,,,,,3,,,55,0
80448,note_on,,,,,768,0,1,,,,,0,,,84,103
80448,note_on,,,,,48,0,3,,,,,2,,,57,87
80448,note_on,,,,,864,0,2,,,,,1,,,69,96
80448,note_on,,,,,48,0,4,,,,,3,,,54,78
80496,note_off,,,,,48,0,3,,,,,2,,,57,0
80496,note_off,,,,,48,0,2,,,,,1,,,69,0
80496,note_off,,,,,48,0,4,,,,,3,,,54,0
80496,note_off,,,,,48,0,1,,,,,0,,,84,0
80544,note_on,,,,,48,0,3,,,,,2,,,55,87
80544,note_on,,,,,48,0,4,,,,,3,,,52,78
80544,note_on,,,,,48,0,2,,,,,1,,,71,96
80544,note_on,,,,,48,0,1,,,,,0,,,86,103
80592,note_off,,,,,48,0,2,,,,,1,,,71,0
80592,note_off,,,,,48,0,4,,,,,3,,,52,0
80592,note_off,,,,,48,0,3,,,,,2,,,55,0
80592,note_off,,,,,48,0,1,,,,,0,,,86,0
80640,note_on,,,,,48,0,2,,,,,1,,,72,96
80640,note_on,,,,,48,0,4,,,,,3,,,50,78
80640,note_on,,,,,48,0,3,,,,,2,,,54,87
80640,note_on,,,,,48,0,1,,,,,0,,,88,103
80688,note_off,,,,,48,0,2,,,,,1,,,72,0
80688,note_off,,,,,48,0,1,,,,,0,,,88,0
80736,note_on,,,,,48,0,1,,,,,0,,,86,103
80736,note_off,,,,,96,0,3,,,,,2,,,54,0
80736,note_off,,,,,96,0,4,,,,,3,,,50,0
80736,note_on,,,,,48,0,2,,,,,1,,,71,96
80784,note_off,,,,,48,0,1,,,,,0,,,86,0
80784,note_off,,,,,48,0,2,,,,,1,,,71,0
80832,note_on,,,,,96,0,4,,,,,3,,,38,78
80832,note_on,,,,,96,0,3,,,,,2,,,62,87
80832,note_on,,,,,48,0,2,,,,,1,,,69,96
80832,note_on,,,,,48,0,1,,,,,0,,,84,103
80880,note_off,,,,,48,0,2,,,,,1,,,69,0
80880,note_off,,,,,48,0,1,,,,,0,,,84,0
80928,note_on,,,,,48,0,2,,,,,1,,,67,96
80928,note_on,,,,,48,0,1,,,,,0,,,83,103
80976,note_off,,,,,48,0,1,,,,,0,,,83,0
80976,note_off,,,,,48,0,2,,,,,1,,,67,0
81024,note_on,,,,,48,0,2,,,,,1,,,66,96
81024,note_on,,,,,48,0,1,,,,,0,,,81,103
81072,note_off,,,,,48,0,1,,,,,0,,,81,0
81072,note_off,,,,,48,0,2,,,,,1,,,66,0
81120,note_on,,,,,48,0,1,,,,,0,,,83,103
81120,note_on,,,,,48,0,2,,,,,1,,,67,96
81168,note_off,,,,,48,0,2,,,,,1,,,67,0
81168,note_off,,,,,48,0,1,,,,,0,,,83,0
81216,note_on,,,,,0,0,4,,,,,3,,,57,78
81216,note_on,,,,,48,0,1,,,,,0,,,81,103
81216,note_off,,,,,384,0,4,,,,,3,,,38,0
81216,note_on,,,,,0,0,3,,,,,2,,,60,87
81216,note_on,,,,,48,0,2,,,,,1,,,66,96
81216,note_off,,,,,384,0,3,,,,,2,,,62,0
81264,note_off,,,,,48,0,3,,,,,2,,,60,0
81264,note_off,,,,,48,0,4,,,,,3,,,57,0
81264,note_off,,,,,48,0,2,,,,,1,,,66,0
81264,note_off,,,,,48,0,1,,,,,0,,,81,0
81312,note_on,,,,,48,0,1,,,,,0,,,79,103
81312,note_on,,,,,48,0,3,,,,,2,,,62,87
81312,note_on,,,,,48,0,2,,,,,1,,,64,96
81312,note_on,,,,,48,0,4,,,,,3,,,59,78
81360,note_off,,,,,48,0,4,,,,,3,,,59,0
81360,note_off,,,,,48,0,2,,,,,1,,,64,0
81360,note_off,,,,,48,0,1,,,,,0,,,79,0
81360,note_off,,,,,48,0,3,,,,,2,,,62,0
81408,note_on,,,,,48,0,4,,,,,3,,,60,78
81408,note_on,,,,,48,0,2,,,,,1,,,62,96
81408,note_on,,,,,48,0,1,,,,,0,,,78,103
81408,note_on,,,,,48,0,3,,,,,2,,,64,87
81456,note_off,,,,,48,0,4,,,,,3,,,60,0
81456,note_off,,,,,48,0,3,,,,,2,,,64,0
81504,note_on,,,,,48,0,3,,,,,2,,,62,87
81504,note_off,,,,,96,0,2,,,,,1,,,62,0
81504,note_off,,,,,96,0,1,,,,,0,,,78,0
81504,note_on,,,,,48,0,4,,,,,3,,,59,78
81552,note_off,,,,,48,0,3,,,,,2,,,62,0
81552,note_off,,,,,48,0,4,,,,,3,,,59,0
81600,note_on,,,,,96,0,1,,,,,0,,,86,103
81600,note_on,,,,,96,0,2,,,,,1,,,74,96
81600,note_on,,,,,48,0,3,,,,,2,,,60,87
81600,note_on,,,,,48,0,4,,,,,3,,,57,78
81648,note_off,,,,,48,0,3,,,,,2,,,60,0
81648,note_off,,,,,48,0,4,,,,,3,,,57,0
81696,note_on,,,,,48,0,3,,,,,2,,,59,87
81696,note_on,,,,,48,0,4,,,,,3,,,55,78
81744,note_off,,,,,48,0,4,,,,,3,,,55,0
81744,note_off,,,,,48,0,3,,,,,2,,,59,0
81792,note_on,,,,,48,0,3,,,,,2,,,57,87
81792,note_on,,,,,48,0,4,,,,,3,,,54,78
81840,note_off,,,,,48,0,3,,,,,2,,,57,0
81840,note_off,,,,,48,0,4,,,,,3,,,54,0
81888,note_on,,,,,48,0,4,,,,,3,,,55,78
81888,note_on,,,,,48,0,3,,,,,2,,,59,87
81936,note_off,,,,,48,0,3,,,,,2,,,59,0
81936,note_off,,,,,48,0,4,,,,,3,,,55,0
81984,note_off,,,,,384,0,2,,,,,1,,,74,0
81984,note_on,,,,,0,0,1,,,,,0,,,84,103
81984,note_off,,,,,384,0,1,,,,,0,,,86,0
81984,note_on,,,,,48,0,3,,,,,2,,,57,87
81984,note_on,,,,,48,0,4,,,,,3,,,54,78
81984,note_on,,,,,0,0,2,,,,,1,,,69,96
82032,note_off,,,,,48,0,4,,,,,3,,,54,0
82032,note_off,,,,,48,0,1,,,,,0,,,84,0
82032,note_off,,,,,48,0,2,,,,,1,,,69,0
82032,note_off,,,,,48,0,3,,,,,2,,,57,0
82080,note_on,,,,,48,0,3,,,,,2,,,55,87
82080,note_on,,,,,48,0,4,,,,,3,,,52,78
82080,note_on,,,,,48,0,2,,,,,1,,,71,96
82080,note_on,,,,,48,0,1,,,,,0,,,86,103
82128,note_off,,,,,48,0,1,,,,,0,,,86,0
82128,note_off,,,,,48,0,4,,,,,3,,,52,0
82128,note_off,,,,,48,0,3,,,,,2,,,55,0
82128,note_off,,,,,48,0,2,,,,,1,,,71,0
82176,note_on,,,,,48,0,1,,,,,0,,,88,103
82176,note_on,,,,,48,0,4,,,,,3,,,50,78
82176,note_on,,,,,48,0,2,,,,,1,,,72,96
82176,note_on,,,,,48,0,3,,,,,2,,,54,87
82224,note_off,,,,,48,0,1,,,,,0,,,88,0
82224,note_off,,,,,48,0,2,,,,,1,,,72,0
82272,note_on,,,,,48,0,1,,,,,0,,,86,103
82272,note_on,,,,,48,0,2,,,,,1,,,71,96
82272,note_off,,,,,96,0,3,,,,,2,,,54,0
82272,note_off,,,,,96,0,4,,,,,3,,,50,0
82320,note_off,,,,,48,0,1,,,,,0,,,86,0
82320,note_off,,,,,48,0,2,,,,,1,,,71,0
82368,note_on,,,,,48,0,1,,,,,0,,,84,103
82368,note_on,,,,,96,0,4,,,,,3,,,38,78
82368,note_on,,,,,96,0,3,,,,,2,,,62,87
82368,note_on,,,,,48,0,2,,,,,1,,,69,96
82416,note_off,,,,,48,0,1,,,,,0,,,84,0
82416,note_off,,,,,48,0,2,,,,,1,,,69,0
82464,note_on,,,,,48,0,1,,,,,0,,,83,103
82464,note_on,,,,,48,0,2,,,,,1,,,67,96
82512,note_off,,,,,48,0,1,,,,,0,,,83,0
82512,note_off,,,,,48,0,2,,,,,1,,,67,0
82560,note_on,,,,,48,0,2,,,,,1,,,66,96
82560,note_on,,,,,48,0,1,,,,,0,,,81,103
82608,note_off,,,,,48,0,2,,,,,1,,,66,0
82608,note_off,,,,,48,0,1,,,,,0,,,81,0
82656,note_on,,,,,48,0,2,,,,,1,,,67,96
82656,note_on,,,,,48,0,1,,,,,0,,,83,103
82704,note_off,,,,,48,0,2,,,,,1,,,67,0
82704,note_off,,,,,48,0,1,,,,,0,,,83,0
82752,note_on,,,,,48,0,1,,,,,0,,,81,103
82752,note_off,,,,,384,0,3,,,,,2,,,62,0
82752,note_off,,,,,384,0,4,,,,,3,,,38,0
82752,note_on,,,,,48,0,2,,,,,1,,,66,96
82752,note_on,,,,,0,0,3,,,,,2,,,57,87
82800,note_off,,,,,48,0,1,,,,,0,,,81,0
82800,note_off,,,,,48,0,2,,,,,1,,,66,0
82800,note_off,,,,,48,0,3,,,,,2,,,57,0
82848,note_on,,,,,48,0,1,,,,,0,,,79,103
82848,note_on,,,,,48,0,2,,,,,1,,,64,96
82848,note_on,,,,,48,0,3,,,,,2,,,61,87
82896,note_off,,,,,48,0,1,,,,,0,,,79,0
82896,note_off,,,,,48,0,2,,,,,1,,,64,0
82896,note_off,,,,,48,0,3,,,,,2,,,61,0
82944,note_on,,,,,48,0,3,,,,,2,,,62,87
82944,note_on,,,,,192,0,4,,,,,3,,,38,78
82944,note_on,,,,,48,0,2,,,,,1,,,62,96
82944,note_on,,,,,48,0,1,,,,,0,,,78,103
82992,note_off,,,,,48,0,1,,,,,0,,,78,0
82992,note_off,,,,,48,0,3,,,,,2,,,62,0
83040,note_on,,,,,48,0,3,,,,,2,,,64,87
83040,note_off,,,,,96,0,2,,,,,1,,,62,0
83040,note_off,,,,,96,0,4,,,,,3,,,38,0
83088,note_off,,,,,48,0,3,,,,,2,,,64,0
83136,note_on,,,,,96,0,2,,,,,1,,,68,96
83136,note_on,,,,,96,0,4,,,,,3,,,38,78
83136,note_on,,,,,144,0,1,,,,,0,,,86,103
83136,note_on,,,,,48,0,3,,,,,2,,,62,87
83184,note_off,,,,,48,0,3,,,,,2,,,62,0
83232,note_on,,,,,48,0,3,,,,,2,,,60,87
83280,note_off,,,,,48,0,3,,,,,2,,,60,0
83328,note_off,,,,,192,0,2,,,,,1,,,68,0
83328,note_on,,,,,48,0,3,,,,,2,,,59,87
83328,note_off,,,,,192,0,1,,,,,0,,,86,0
83328,note_on,,,,,0,0,2,,,,,1,,,71,96
83328,note_on,,,,,0,0,1,,,,,0,,,89,103
83376,note_off,,,,,48,0,3,,,,,2,,,59,0
83424,note_on,,,,,48,0,3,,,,,2,,,60,87
83472,note_off,,,,,48,0,3,,,,,2,,,60,0
83520,note_off,,,,,192,0,2,,,,,1,,,71,0
83520,note_on,,,,,0,0,2,,,,,1,,,74,96
83520,note_on,,,,,0,0,1,,,,,0,,,80,103
83520,note_off,,,,,192,0,1,,,,,0,,,89,0
83520,note_on,,,,,48,0,3,,,,,2,,,62,87
83568,note_off,,,,,48,0,3,,,,,2,,,62,0
83616,note_on,,,,,48,0,3,,,,,2,,,59,87
83664,note_off,,,,,48,0,3,,,,,2,,,59,0
83712,note_on,,,,,48,0,3,,,,,2,,,60,87
83712,note_on,,,,,0,0,2,,,,,1,,,72,96
83712,note_off,,,,,192,0,2,,,,,1,,,74,0
83712,note_off,,,,,576,0,4,,,,,3,,,38,0
83712,note_on,,,,,0,0,4,,,,,3,,,38,78
83712,note_off,,,,,192,0,1,,,,,0,,,80,0
83712,note_on,,,,,0,0,1,,,,,0,,,81,103
83760,note_off,,,,,48,0,3,,,,,2,,,60,0
83808,note_off,,,,,96,0,2,,,,,1,,,72,0
83808,note_off,,,,,96,0,4,,,,,3,,,38,0
83808,note_off,,,,,96,0,1,,,,,0,,,81,0
83808,note_on,,,,,48,0,3,,,,,2,,,62,87
83856,note_off,,,,,48,0,3,,,,,2,,,62,0
83904,note_on,,,,,96,0,4,,,,,3,,,38,78
83904,note_on,,,,,96,0,1,,,,,0,,,84,103
83904,note_on,,,,,48,0,3,,,,,2,,,60,87
83904,note_on,,,,,96,0,2,,,,,1,,,66,96
83952,note_off,,,,,48,0,3,,,,,2,,,60,0
84000,note_on,,,,,48,0,3,,,,,2,,,59,87
84048,note_off,,,,,48,0,3,,,,,2,,,59,0
84096,note_on,,,,,0,0,1,,,,,0,,,87,103
84096,note_off,,,,,192,0,2,,,,,1,,,66,0
84096,note_on,,,,,0,0,2,,,,,1,,,69,96
84096,note_off,,,,,192,0,1,,,,,0,,,84,0
84096,note_on,,,,,48,0,3,,,,,2,,,57,87
84144,note_off,,,,,48,0,3,,,,,2,,,57,0
84192,note_on,,,,,48,0,3,,,,,2,,,59,87
84240,note_off,,,,,48,0,3,,,,,2,,,59,0
84288,note_on,,,,,0,0,2,,,,,1,,,72,96
84288,note_off,,,,,192,0,1,,,,,0,,,87,0
84288,note_on,,,,,48,0,3,,,,,2,,,60,87
84288,note_off,,,,,192,0,2,,,,,1,,,69,0
84288,note_on,,,,,0,0,1,,,,,0,,,78,103
84336,note_off,,,,,48,0,3,,,,,2,,,60,0
84384,note_on,,,,,48,0,3,,,,,2,,,57,87
84432,note_off,,,,,48,0,3,,,,,2,,,57,0
84480,note_on,,,,,0,0,4,,,,,3,,,38,78
84480,note_on,,,,,48,0,3,,,,,2,,,59,87
84480,note_off,,,,,576,0,4,,,,,3,,,38,0
84480,note_on,,,,,0,0,2,,,,,1,,,71,96
84480,note_off,,,,,192,0,2,,,,,1,,,72,0
84480,note_on,,,,,0,0,1,,,,,0,,,79,103
84480,note_off,,,,,192,0,1,,,,,0,,,78,0
84528,note_off,,,,,48,0,3,,,,,2,,,59,0
84576,note_off,,,,,96,0,4,,,,,3,,,38,0
84576,note_off,,,,,96,0,2,,,,,1,,,71,0
84576,note_on,,,,,48,0,3,,,,,2,,,60,87
84576,note_off,,,,,96,0,1,,,,,0,,,79,0
84624,note_off,,,,,48,0,3,,,,,2,,,60,0
84672,note_on,,,,,48,0,3,,,,,2,,,59,87
84672,note_on,,,,,96,0,1,,,,,0,,,79,103
84672,note_on,,,,,96,0,2,,,,,1,,,64,96
84672,note_on,,,,,96,0,4,,,,,3,,,38,78
84720,note_off,,,,,48,0,3,,,,,2,,,59,0
84768,note_on,,,,,48,0,3,,,,,2,,,57,87
84816,note_off,,,,,48,0,3,,,,,2,,,57,0
84864,note_on,,,,,0,0,2,,,,,1,,,67,96
84864,note_off,,,,,192,0,2,,,,,1,,,64,0
84864,note_off,,,,,192,0,1,,,,,0,,,79,0
84864,note_on,,,,,0,0,1,,,,,0,,,85,103
84864,note_on,,,,,48,0,3,,,,,2,,,55,87
84912,note_off,,,,,48,0,3,,,,,2,,,55,0
84960,note_on,,,,,48,0,3,,,,,2,,,57,87
85008,note_off,,,,,48,0,3,,,,,2,,,57,0
85056,note_off,,,,,192,0,1,,,,,0,,,85,0
85056,note_on,,,,,0,0,1,,,,,0,,,76,103
85056,note_off,,,,,192,0,2,,,,,1,,,67,0
85056,note_on,,,,,0,0,2,,,,,1,,,73,96
85056,note_on,,,,,48,0,3,,,,,2,,,58,87
85104,note_off,,,,,48,0,3,,,,,2,,,58,0
85152,note_on,,,,,48,0,3,,,,,2,,,55,87
85200,note_off,,,,,48,0,3,,,,,2,,,55,0
85248,note_on,,,,,0,0,2,,,,,1,,,74,96
85248,note_off,,,,,192,0,2,,,,,1,,,73,0
85248,note_on,,,,,0,0,1,,,,,0,,,74,103
85248,note_off,,,,,192,0,1,,,,,0,,,76,0
85248,note_on,,,,,48,0,3,,,,,2,,,54,87
85248,note_on,,,,,0,0,4,,,,,3,,,38,78
85248,note_off,,,,,576,0,4,,,,,3,,,38,0
85296,note_off,,,,,48,0,3,,,,,2,,,54,0
85344,note_on,,,,,48,0,3,,,,,2,,,55,87
85344,note_off,,,,,96,0,4,,,,,3,,,38,0
85392,note_off,,,,,48,0,3,,,,,2,,,55,0
85440,note_off,,,,,192,0,2,,,,,1,,,74,0
85440,note_on,,,,,0,0,1,,,,,0,,,79,103
85440,note_off,,,,,192,0,1,,,,,0,,,74,0
85440,note_on,,,,,96,0,4,,,,,3,,,45,78
85440,note_on,,,,,48,0,3,,,,,2,,,52,87
85440,note_on,,,,,0,0,2,,,,,1,,,73,96
85488,note_off,,,,,48,0,3,,,,,2,,,52,0
85536,note_off,,,,,96,0,4,,,,,3,,,45,0
85536,note_on,,,,,48,0,3,,,,,2,,,54,87
85584,note_off,,,,,48,0,3,,,,,2,,,54,0
85632,note_on,,,,,48,0,3,,,,,2,,,50,87
85632,note_on,,,,,0,0,1,,,,,0,,,78,103
85632,note_on,,,,,0,0,2,,,,,1,,,74,96
85632,note_off,,,,,192,0,1,,,,,0,,,79,0
85632,note_on,,,,,96,0,4,,,,,3,,,50,78
85632,note_off,,,,,192,0,2,,,,,1,,,73,0
85728,note_off,,,,,96,0,3,,,,,2,,,50,0
85728,note_off,,,,,96,0,4,,,,,3,,,50,0
85824,note_on,,,,,0,0,1,,,,,0,,,83,103
85824,note_off,,,,,192,0,1,,,,,0,,,78,0
85824,note_off,,,,,192,0,2,,,,,1,,,74,0
85920,note_on,,,,,0,0,1,,,,,0,,,84,103
85920,note_off,,,,,96,0,1,,,,,0,,,83,0
86016,note_off,,,,,96,0,1,,,,,0,,,84,0
86016,note_on,,,,,288,0,3,,,,,2,,,71,87
86016,note_on,,,,,0,0,1,,,,,0,,,86,103
86016,note_on,,,,,192,0,2,,,,,1,,,74,96
86016,note_on,,,,,288,0,4,,,,,3,,,55,78
86064,note_off,,,,,48,0,3,,,,,2,,,71,0
86064,note_off,,,,,48,0,2,,,,,1,,,74,0
86112,note_off,,,,,96,0,1,,,,,0,,,86,0
86112,note_on,,,,,0,0,1,,,,,0,,,84,103
86112,note_on,,,,,0,0,4,,,,,3,,,55,78
86112,note_off,,,,,96,0,4,,,,,3,,,55,0
86112,note_on,,,,,48,0,3,,,,,2,,,71,87
86112,note_on,,,,,48,0,2,,,,,1,,,74,96
86160,note_off,,,,,48,0,2,,,,,1,,,74,0
86160,note_off,,,,,48,0,3,,,,,2,,,71,0
86208,note_on,,,,,0,0,1,,,,,0,,,83,103
86208,note_off,,,,,96,0,1,,,,,0,,,84,0
86208,note_on,,,,,0,0,4,,,,,3,,,55,78
86208,note_off,,,,,96,0,4,,,,,3,,,55,0
86208,note_on,,,,,48,0,3,,,,,2,,,71,87
86208,note_on,,,,,48,0,2,,,,,1,,,74,96
86256,note_off,,,,,48,0,2,,,,,1,,,74,0
86256,note_off,,,,,48,0,3,,,,,2,,,71,0
86304,note_off,,,,,96,0,1,,,,,0,,,83,0
86304,note_on,,,,,0,0,4,,,,,3,,,55,78
86304,note_off,,,,,96,0,4,,,,,3,,,55,0
86304,note_on,,,,,0,0,1,,,,,0,,,81,103
86304,note_on,,,,,48,0,2,,,,,1,,,74,96
86304,note_on,,,,,48,0,3,,,,,2,,,71,87
86352,note_off,,,,,48,0,2,,,,,1,,,74,0
86352,note_off,,,,,48,0,3,,,,,2,,,71,0
86400,note_off,,,,,96,0,4,,,,,3,,,55,0
86400,note_off,,,,,96,0,1,,,,,0,,,81,0
86400,note_on,,,,,0,0,1,,,,,0,,,79,103
86400,note_on,,,,,48,0,2,,,,,1,,,74,96
86400,note_on,,,,,48,0,3,,,,,2,,,71,87
86400,note_on,,,,,0,0,4,,,,,3,,,55,78
86448,note_off,,,,,48,0,2,,,,,1,,,74,0
86448,note_off,,,,,48,0,3,,,,,2,,,71,0
86496,note_off,,,,,96,0,1,,,,,0,,,79,0
86496,note_on,,,,,0,0,1,,,,,0,,,81,103
86496,note_on,,,,,0,0,4,,,,,3,,,55,78
86496,note_on,,,,,48,0,3,,,,,2,,,71,87
86496,note_on,,,,,48,0,2,,,,,1,,,74,96
86496,note_off,,,,,96,0,4,,,,,3,,,55,0
86544,note_off,,,,,48,0,2,,,,,1,,,74,0
86544,note_off,,,,,48,0,3,,,,,2,,,71,0
86592,note_off,,,,,96,0,4,,,,,3,,,55,0
86592,note_on,,,,,0,0,1,,,,,0,,,79,103
86592,note_on,,,,,48,0,2,,,,,1,,,75,96
86592,note_on,,,,,0,0,4,,,,,3,,,55,78
86592,note_off,,,,,96,0,1,,,,,0,,,81,0
86592,note_on,,,,,48,0,3,,,,,2,,,71,87
86640,note_off,,,,,48,0,2,,,,,1,,,75,0
86640,note_off,,,,,48,0,3,,,,,2,,,71,0
86688,note_on,,,,,48,0,3,,,,,2,,,71,87
86688,note_off,,,,,96,0,4,,,,,3,,,55,0
86688,note_on,,,,,0,0,4,,,,,3,,,55,78
86688,note_on,,,,,0,0,1,,,,,0,,,78,103
86688,note_off,,,,,96,0,1,,,,,0,,,79,0
86688,note_on,,,,,48,0,2,,,,,1,,,75,96
86736,note_off,,,,,48,0,3,,,,,2,,,71,0
86736,note_off,,,,,48,0,2,,,,,1,,,75,0
86784,note_on,,,,,48,0,3,,,,,2,,,72,87
86784,note_on,,,,,0,0,4,,,,,3,,,60,78
86784,note_off,,,,,96,0,4,,,,,3,,,55,0
86784,note_off,,,,,96,0,1,,,,,0,,,78,0
86784,note_on,,,,,0,0,1,,,,,0,,,76,103
86784,note_on,,,,,48,0,2,,,,,1,,,76,96
86832,note_off,,,,,48,0,3,,,,,2,,,72,0
86832,note_off,,,,,48,0,2,,,,,1,,,76,0
86880,note_on,,,,,48,0,3,,,,,2,,,60,87
86880,note_on,,,,,48,0,2,,,,,1,,,64,96
86880,note_off,,,,,96,0,1,,,,,0,,,76,0
86928,note_off,,,,,48,0,2,,,,,1,,,64,0
86928,note_off,,,,,48,0,3,,,,,2,,,60,0
86976,note_on,,,,,48,0,2,,,,,1,,,66,96
86976,note_on,,,,,96,0,1,,,,,0,,,81,103
86976,note_on,,,,,48,0,3,,,,,2,,,62,87
87024,note_off,,,,,48,0,2,,,,,1,,,66,0
87024,note_off,,,,,48,0,3,,,,,2,,,62,0
87072,note_on,,,,,48,0,3,,,,,2,,,64,87
87072,note_on,,,,,48,0,2,,,,,1,,,67,96
87120,note_off,,,,,48,0,3,,,,,2,,,64,0
87120,note_off,,,,,48,0,2,,,,,1,,,67,0
87168,note_off,,,,,384,0,4,,,,,3,,,60,0
87168,note_on,,,,,48,0,3,,,,,2,,,66,87
87168,note_on,,,,,48,0,2,,,,,1,,,69,96
87216,note_off,,,,,48,0,2,,,,,1,,,69,0
87264,note_on,,,,,0,0,3,,,,,2,,,66,87
87264,note_on,,,,,48,0,2,,,,,1,,,69,96
87264,note_off,,,,,96,0,3,,,,,2,,,66,0
87312,note_off,,,,,48,0,2,,,,,1,,,69,0
87360,note_on,,,,,0,0,1,,,,,0,,,78,103
87360,note_off,,,,,384,0,1,,,,,0,,,81,0
87360,note_on,,,,,0,0,3,,,,,2,,,66,87
87360,note_off,,,,,96,0,3,,,,,2,,,66,0
87360,note_on,,,,,192,0,4,,,,,3,,,62,78
87360,note_on,,,,,48,0,2,,,,,1,,,69,96
87408,note_off,,,,,48,0,2,,,,,1,,,69,0
87456,note_on,,,,,48,0,2,,,,,1,,,69,96
87456,note_on,,,,,0,0,3,,,,,2,,,66,87
87456,note_off,,,,,96,0,3,,,,,2,,,66,0
87504,note_off,,,,,48,0,2,,,,,1,,,69,0
87552,note_on,,,,,48,0,2,,,,,1,,,67,96
87552,note_on,,,,,0,0,4,,,,,3,,,64,78
87552,note_off,,,,,96,0,3,,,,,2,,,66,0
87552,note_on,,,,,0,0,3,,,,,2,,,64,87
87552,note_on,,,,,0,0,1,,,,,0,,,79,103
87552,note_off,,,,,192,0,1,,,,,0,,,78,0
87552,note_off,,,,,192,0,4,,,,,3,,,62,0
87600,note_off,,,,,48,0,3,,,,,2,,,64,0
87600,note_off,,,,,48,0,2,,,,,1,,,67,0
87648,note_on,,,,,48,0,3,,,,,2,,,64,87
87648,note_on,,,,,48,0,2,,,,,1,,,67,96
87648,note_off,,,,,96,0,1,,,,,0,,,79,0
87696,note_off,,,,,48,0,3,,,,,2,,,64,0
87696,note_off,,,,,48,0,2,,,,,1,,,67,0
87744,note_on,,,,,96,0,1,,,,,0,,,84,103
87744,note_on,,,,,48,0,3,,,,,2,,,66,87
87744,note_on,,,,,48,0,2,,,,,1,,,69,96
87792,note_off,,,,,48,0,3,,,,,2,,,66,0
87792,note_off,,,,,48,0,2,,,,,1,,,69,0
87840,note_on,,,,,48,0,3,,,,,2,,,67,87
87840,note_on,,,,,48,0,2,,,,,1,,,71,96
87888,note_off,,,,,48,0,2,,,,,1,,,71,0
87888,note_off,,,,,48,0,3,,,,,2,,,67,0
87936,note_on,,,,,48,0,3,,,,,2,,,69,87
87936,note_off,,,,,384,0,4,,,,,3,,,64,0
87936,note_on,,,,,48,0,2,,,,,1,,,72,96
87984,note_off,,,,,48,0,2,,,,,1,,,72,0
88032,note_off,,,,,96,0,3,,,,,2,,,69,0
88032,note_on,,,,,48,0,2,,,,,1,,,72,96
88032,note_on,,,,,0,0,3,,,,,2,,,69,87
88080,note_off,,,,,48,0,2,,,,,1,,,72,0
88128,note_on,,,,,48,0,2,,,,,1,,,72,96
88128,note_on,,,,,0,0,1,,,,,0,,,81,103
88128,note_off,,,,,96,0,3,,,,,2,,,69,0
88128,note_on,,,,,0,0,3,,,,,2,,,69,87
88128,note_on,,,,,192,0,4,,,,,3,,,66,78
88128,note_off,,,,,384,0,1,,,,,0,,,84,0
88176,note_off,,,,,48,0,2,,,,,1,,,72,0
88224,note_on,,,,,48,0,2,,,,,1,,,72,96
88224,note_off,,,,,96,0,3,,,,,2,,,69,0
88224,note_on,,,,,0,0,3,,,,,2,,,69,87
88272,note_off,,,,,48,0,2,,,,,1,,,72,0
88320,note_off,,,,,96,0,3,,,,,2,,,69,0
88320,note_on,,,,,0,0,3,,,,,2,,,67,87
88320,note_on,,,,,0,0,1,,,,,0,,,83,103
88320,note_on,,,,,48,0,2,,,,,1,,,71,96
88320,note_off,,,,,192,0,1,,,,,0,,,81,0
88320,note_off,,,,,192,0,4,,,,,3,,,66,0
88320,note_on,,,,,0,0,4,,,,,3,,,67,78
88368,note_off,,,,,48,0,2,,,,,1,,,71,0
88416,note_off,,,,,96,0,3,,,,,2,,,67,0
88416,note_on,,,,,0,0,3,,,,,2,,,67,87
88416,note_off,,,,,96,0,1,,,,,0,,,83,0
88416,note_on,,,,,48,0,2,,,,,1,,,71,96
88464,note_off,,,,,48,0,2,,,,,1,,,71,0
88512,note_on,,,,,48,0,2,,,,,1,,,72,96
88512,note_on,,,,,0,0,3,,,,,2,,,69,87
88512,note_off,,,,,96,0,3,,,,,2,,,67,0
88512,note_on,,,,,96,0,1,,,,,0,,,88,103
88560,note_off,,,,,48,0,2,,,,,1,,,72,0
88608,note_on,,,,,48,0,2,,,,,1,,,74,96
88608,note_off,,,,,96,0,3,,,,,2,,,69,0
88608,note_on,,,,,0,0,3,,,,,2,,,71,87
88656,note_off,,,,,48,0,2,,,,,1,,,74,0
88704,note_on,,,,,48,0,2,,,,,1,,,76,96
88704,note_off,,,,,384,0,4,,,,,3,,,67,0
88704,note_off,,,,,96,0,3,,,,,2,,,71,0
88704,note_on,,,,,0,0,3,,,,,2,,,72,87
88704,note_on,,,,,0,0,4,,,,,3,,,60,78
88752,note_off,,,,,48,0,2,,,,,1,,,76,0
88800,note_off,,,,,96,0,3,,,,,2,,,72,0
88800,note_on,,,,,0,0,3,,,,,2,,,72,87
88800,note_on,,,,,48,0,2,,,,,1,,,76,96
88848,note_off,,,,,48,0,2,,,,,1,,,76,0
88896,note_on,,,,,48,0,2,,,,,1,,,79,96
88896,note_on,,,,,0,0,4,,,,,3,,,63,78
88896,note_on,,,,,0,0,3,,,,,2,,,70,87
88896,note_off,,,,,96,0,3,,,,,2,,,72,0
88896,note_on,,,,,0,0,1,,,,,0,,,85,103
88896,note_off,,,,,384,0,1,,,,,0,,,88,0
88896,note_off,,,,,192,0,4,,,,,3,,,60,0
88944,note_off,,,,,48,0,2,,,,,1,,,79,0
88992,note_off,,,,,96,0,3,,,,,2,,,70,0
88992,note_on,,,,,0,0,3,,,,,2,,,70,87
88992,note_on,,,,,48,0,2,,,,,1,,,79,96
89040,note_off,,,,,48,0,2,,,,,1,,,79,0
89088,note_off,,,,,96,0,3,,,,,2,,,70,0
89088,note_on,,,,,0,0,4,,,,,3,,,62,78
89088,note_off,,,,,192,0,4,,,,,3,,,63,0
89088,note_on,,,,,48,0,2,,,,,1,,,74,96
89088,note_on,,,,,0,0,1,,,,,0,,,85,103
89088,note_off,,,,,192,0,1,,,,,0,,,85,0
89088,note_on,,,,,0,0,3,,,,,2,,,71,87
89136,note_off,,,,,48,0,2,,,,,1,,,74,0
89184,note_on,,,,,0,0,3,,,,,2,,,71,87
89184,note_off,,,,,96,0,4,,,,,3,,,62,0
89184,note_off,,,,,96,0,3,,,,,2,,,71,0
89184,note_on,,,,,0,0,4,,,,,3,,,62,78
89184,note_on,,,,,48,0,2,,,,,1,,,74,96
89184,note_on,,,,,0,0,1,,,,,0,,,86,103
89184,note_off,,,,,96,0,1,,,,,0,,,85,0
89232,note_off,,,,,48,0,2,,,,,1,,,74,0
89280,note_on,,,,,0,0,4,,,,,3,,,62,78
89280,note_on,,,,,48,0,2,,,,,1,,,74,96
89280,note_off,,,,,96,0,1,,,,,0,,,86,0
89280,note_on,,,,,0,0,1,,,,,0,,,84,103
89280,note_on,,,,,0,0,3,,,,,2,,,71,87
89280,note_off,,,,,96,0,3,,,,,2,,,71,0
89280,note_off,,,,,96,0,4,,,,,3,,,62,0
89328,note_off,,,,,48,0,2,,,,,1,,,74,0
89376,note_on,,,,,0,0,1,,,,,0,,,83,103
89376,note_off,,,,,96,0,3,,,,,2,,,71,0
89376,note_off,,,,,96,0,1,,,,,0,,,84,0
89376,note_on,,,,,0,0,3,,,,,2,,,71,87
89376,note_off,,,,,96,0,4,,,,,3,,,62,0
89376,note_on,,,,,0,0,4,,,,,3,,,62,78
89376,note_on,,,,,48,0,2,,,,,1,,,74,96
89424,note_off,,,,,48,0,2,,,,,1,,,74,0
89472,note_on,,,,,0,0,4,,,,,3,,,62,78
89472,note_off,,,,,96,0,3,,,,,2,,,71,0
89472,note_on,,,,,0,0,3,,,,,2,,,66,87
89472,note_on,,,,,0,0,1,,,,,0,,,81,103
89472,note_off,,,,,96,0,1,,,,,0,,,83,0
89472,note_on,,,,,48,0,2,,,,,1,,,72,96
89472,note_off,,,,,96,0,4,,,,,3,,,62,0
89520,note_off,,,,,48,0,2,,,,,1,,,72,0
89568,note_off,,,,,96,0,4,,,,,3,,,62,0
89568,note_on,,,,,0,0,1,,,,,0,,,83,103
89568,note_on,,,,,48,0,2,,,,,1,,,72,96
89568,note_on,,,,,0,0,3,,,,,2,,,66,87
89568,note_off,,,,,96,0,3,,,,,2,,,66,0
89568,note_off,,,,,96,0,1,,,,,0,,,81,0
89568,note_on,,,,,0,0,4,,,,,3,,,62,78
89616,note_off,,,,,48,0,2,,,,,1,,,72,0
89664,note_on,,,,,0,0,4,,,,,3,,,62,78
89664,note_off,,,,,96,0,4,,,,,3,,,62,0
89664,note_on,,,,,0,0,3,,,,,2,,,66,87
89664,note_off,,,,,96,0,3,,,,,2,,,66,0
89664,note_on,,,,,48,0,2,,,,,1,,,72,96
89664,note_off,,,,,96,0,1,,,,,0,,,83,0
89664,note_on,,,,,0,0,1,,,,,0,,,84,103
89712,note_off,,,,,48,0,2,,,,,1,,,72,0
89760,note_off,,,,,96,0,3,,,,,2,,,66,0
89760,note_on,,,,,48,0,2,,,,,1,,,72,96
89760,note_on,,,,,0,0,4,,,,,3,,,62,78
89760,note_off,,,,,96,0,4,,,,,3,,,62,0
89760,note_on,,,,,0,0,3,,,,,2,,,66,87
89760,note_off,,,,,96,0,1,,,,,0,,,84,0
89760,note_on,,,,,0,0,1,,,,,0,,,81,103
89808,note_off,,,,,48,0,2,,,,,1,,,72,0
89856,note_on,,,,,48,0,2,,,,,1,,,71,96
89856,note_on,,,,,0,0,1,,,,,0,,,79,103
89856,note_off,,,,,96,0,4,,,,,3,,,62,0
89856,note_on,,,,,0,0,4,,,,,3,,,55,78
89856,note_off,,,,,96,0,1,,,,,0,,,81,0
89856,note_off,,,,,96,0,3,,,,,2,,,66,0
89856,note_on,,,,,0,0,3,,,,,2,,,67,87
89904,note_off,,,,,48,0,2,,,,,1,,,71,0
89952,note_off,,,,,96,0,4,,,,,3,,,55,0
89952,note_on,,,,,0,0,4,,,,,3,,,55,78
89952,note_on,,,,,48,0,2,,,,,1,,,71,96
89952,note_off,,,,,96,0,1,,,,,0,,,79,0
89952,note_on,,,,,0,0,3,,,,,2,,,67,87
89952,note_off,,,,,96,0,3,,,,,2,,,67,0
90000,note_off,,,,,48,0,2,,,,,1,,,71,0
90048,note_on,,,,,0,0,3,,,,,2,,,67,87
90048,note_off,,,,,96,0,4,,,,,3,,,55,0
90048,note_on,,,,,0,0,4,,,,,3,,,55,78
90048,note_on,,,,,48,0,2,,,,,1,,,71,96
90048,note_on,,,,,96,0,1,,,,,0,,,91,103
90048,note_off,,,,,96,0,3,,,,,2,,,67,0
90096,note_off,,,,,48,0,2,,,,,1,,,71,0
90144,note_off,,,,,96,0,4,,,,,3,,,55,0
90144,note_on,,,,,48,0,2,,,,,1,,,71,96
90144,note_on,,,,,0,0,3,,,,,2,,,67,87
90144,note_on,,,,,0,0,4,,,,,3,,,55,78
90144,note_off,,,,,96,0,3,,,,,2,,,67,0
90144,note_off,,,,,96,0,1,,,,,0,,,91,0
90192,note_off,,,,,48,0,2,,,,,1,,,71,0
90240,note_on,,,,,48,0,2,,,,,1,,,71,96
90240,note_off,,,,,96,0,3,,,,,2,,,67,0
90240,note_off,,,,,96,0,4,,,,,3,,,55,0
90240,note_on,,,,,0,0,4,,,,,3,,,55,78
90240,note_on,,,,,0,0,3,,,,,2,,,67,87
90336,note_off,,,,,96,0,2,,,,,1,,,71,0
90336,note_off,,,,,96,0,3,,,,,2,,,67,0
90336,note_off,,,,,96,0,4,,,,,3,,,55,0
90432,note_on,,,,,96,0,3,,,,,2,,,59,87
90432,note_on,,,,,96,0,4,,,,,3,,,55,78
90480,note_off,,,,,48,0,3,,,,,2,,,59,0
90480,note_off,,,,,48,0,4,,,,,3,,,55,0
90528,note_on,,,,,48,0,3,,,,,2,,,60,87
90528,note_on,,,,,48,0,4,,,,,3,,,57,78
90576,note_off,,,,,48,0,4,,,,,3,,,57,0
90576,note_off,,,,,48,0,3,,,,,2,,,60,0
90624,note_on,,,,,48,0,4,,,,,3,,,59,78
90624,note_on,,,,,48,0,3,,,,,2,,,62,87
90672,note_off,,,,,48,0,4,,,,,3,,,59,0
90672,note_off,,,,,48,0,3,,,,,2,,,62,0
90720,note_on,,,,,48,0,3,,,,,2,,,60,87
90720,note_on,,,,,48,0,4,,,,,3,,,57,78
90768,note_off,,,,,48,0,4,,,,,3,,,57,0
90768,note_off,,,,,48,0,3,,,,,2,,,60,0
90816,note_on,,,,,48,0,3,,,,,2,,,59,87
90816,note_on,,,,,48,0,4,,,,,3,,,55,78
90864,note_off,,,,,48,0,3,,,,,2,,,59,0
90864,note_off,,,,,48,0,4,,,,,3,,,55,0
90912,note_on,,,,,48,0,4,,,,,3,,,54,78
90912,note_on,,,,,48,0,3,,,,,2,,,57,87
90960,note_off,,,,,48,0,4,,,,,3,,,54,0
90960,note_off,,,,,48,0,3,,,,,2,,,57,0
91008,note_on,,,,,48,0,3,,,,,2,,,55,87
91008,note_on,,,,,48,0,4,,,,,3,,,52,78
91056,note_off,,,,,48,0,3,,,,,2,,,55,0
91056,note_off,,,,,48,0,4,,,,,3,,,52,0
91104,note_on,,,,,48,0,3,,,,,2,,,57,87
91104,note_on,,,,,48,0,4,,,,,3,,,54,78
91152,note_off,,,,,48,0,4,,,,,3,,,54,0
91152,note_off,,,,,48,0,3,,,,,2,,,57,0
91200,note_on,,,,,864,0,2,,,,,1,,,72,96
91200,note_on,,,,,48,0,3,,,,,2,,,55,87
91200,note_on,,,,,1056,0,1,,,,,0,,,76,103
91200,note_on,,,,,48,0,4,,,,,3,,,52,78
91248,note_off,,,,,48,0,1,,,,,0,,,76,0
91248,note_off,,,,,48,0,4,,,,,3,,,52,0
91248,note_off,,,,,48,0,2,,,,,1,,,72,0
91248,note_off,,,,,48,0,3,,,,,2,,,55,0
91296,note_on,,,,,48,0,4,,,,,3,,,50,78
91296,note_on,,,,,48,0,2,,,,,1,,,74,96
91296,note_on,,,,,48,0,1,,,,,0,,,78,103
91296,note_on,,,,,48,0,3,,,,,2,,,54,87
91344,note_off,,,,,48,0,4,,,,,3,,,50,0
91344,note_off,,,,,48,0,1,,,,,0,,,78,0
91344,note_off,,,,,48,0,3,,,,,2,,,54,0
91344,note_off,,,,,48,0,2,,,,,1,,,74,0
91392,note_on,,,,,48,0,2,,,,,1,,,76,96
91392,note_on,,,,,48,0,3,,,,,2,,,52,87
91392,note_on,,,,,48,0,1,,,,,0,,,79,103
91392,note_on,,,,,48,0,4,,,,,3,,,48,78
91440,note_off,,,,,48,0,1,,,,,0,,,79,0
91440,note_off,,,,,48,0,2,,,,,1,,,76,0
91488,note_on,,,,,48,0,2,,,,,1,,,74,96
91488,note_off,,,,,96,0,4,,,,,3,,,48,0
91488,note_off,,,,,96,0,3,,,,,2,,,52,0
91488,note_on,,,,,48,0,1,,,,,0,,,78,103
91536,note_off,,,,,48,0,2,,,,,1,,,74,0
91536,note_off,,,,,48,0,1,,,,,0,,,78,0
91584,note_on,,,,,48,0,1,,,,,0,,,76,103
91584,note_on,,,,,96,0,3,,,,,2,,,64,87
91584,note_on,,,,,96,0,4,,,,,3,,,60,78
91584,note_on,,,,,48,0,2,,,,,1,,,72,96
91632,note_off,,,,,48,0,2,,,,,1,,,72,0
91632,note_off,,,,,48,0,1,,,,,0,,,76,0
91680,note_on,,,,,48,0,2,,,,,1,,,71,96
91680,note_on,,,,,48,0,1,,,,,0,,,74,103
91728,note_off,,,,,48,0,2,,,,,1,,,71,0
91728,note_off,,,,,48,0,1,,,,,0,,,74,0
91776,note_on,,,,,48,0,2,,,,,1,,,69,96
91776,note_on,,,,,48,0,1,,,,,0,,,72,103
91824,note_off,,,,,48,0,2,,,,,1,,,69,0
91824,note_off,,,,,48,0,1,,,,,0,,,72,0
91872,note_on,,,,,48,0,2,,,,,1,,,71,96
91872,note_on,,,,,48,0,1,,,,,0,,,74,103
91920,note_off,,,,,48,0,2,,,,,1,,,71,0
91920,note_off,,,,,48,0,1,,,,,0,,,74,0
91968,note_off,,,,,384,0,3,,,,,2,,,64,0
91968,note_on,,,,,48,0,1,,,,,0,,,72,103
91968,note_on,,,,,48,0,2,,,,,1,,,69,96
91968,note_on,,,,,0,0,3,,,,,2,,,57,87
91968,note_on,,,,,0,0,4,,,,,3,,,54,78
91968,note_off,,,,,384,0,4,,,,,3,,,60,0
92016,note_off,,,,,48,0,3,,,,,2,,,57,0
92016,note_off,,,,,48,0,1,,,,,0,,,72,0
92016,note_off,,,,,48,0,2,,,,,1,,,69,0
92016,note_off,,,,,48,0,4,,,,,3,,,54,0
92064,note_on,,,,,48,0,1,,,,,0,,,71,103
92064,note_on,,,,,48,0,2,,,,,1,,,67,96
92064,note_on,,,,,48,0,3,,,,,2,,,59,87
92064,note_on,,,,,48,0,4,,,,,3,,,55,78
92112,note_off,,,,,48,0,4,,,,,3,,,55,0
92112,note_off,,,,,48,0,1,,,,,0,,,71,0
92112,note_off,,,,,48,0,2,,,,,1,,,67,0
92112,note_off,,,,,48,0,3,,,,,2,,,59,0
92160,note_on,,,,,48,0,1,,,,,0,,,69,103
92160,note_on,,,,,48,0,3,,,,,2,,,60,87
92160,note_on,,,,,48,0,2,,,,,1,,,66,96
92160,note_on,,,,,48,0,4,,,,,3,,,57,78
92208,note_off,,,,,48,0,4,,,,,3,,,57,0
92208,note_off,,,,,48,0,3,,,,,2,,,60,0
92256,note_on,,,,,48,0,3,,,,,2,,,59,87
92256,note_off,,,,,96,0,1,,,,,0,,,69,0
92256,note_off,,,,,96,0,2,,,,,1,,,66,0
92256,note_on,,,,,48,0,4,,,,,3,,,55,78
92304,note_off,,,,,48,0,4,,,,,3,,,55,0
92304,note_off,,,,,48,0,3,,,,,2,,,59,0
92352,note_on,,,,,48,0,4,,,,,3,,,54,78
92352,note_on,,,,,48,0,3,,,,,2,,,57,87
92352,note_on,,,,,96,0,1,,,,,0,,,81,103
92352,note_on,,,,,96,0,2,,,,,1,,,78,96
92400,note_off,,,,,48,0,4,,,,,3,,,54,0
92400,note_off,,,,,48,0,3,,,,,2,,,57,0
92448,note_on,,,,,48,0,4,,,,,3,,,52,78
92448,note_on,,,,,48,0,3,,,,,2,,,55,87
92496,note_off,,,,,48,0,4,,,,,3,,,52,0
92496,note_off,,,,,48,0,3,,,,,2,,,55,0
92544,note_on,,,,,48,0,4,,,,,3,,,50,78
92544,note_on,,,,,48,0,3,,,,,2,,,54,87
92592,note_off,,,,,48,0,4,,,,,3,,,50,0
92592,note_off,,,,,48,0,3,,,,,2,,,54,0
92640,note_on,,,,,48,0,3,,,,,2,,,55,87
92640,note_on,,,,,48,0,4,,,,,3,,,52,78
92688,note_off,,,,,48,0,3,,,,,2,,,55,0
92688,note_off,,,,,48,0,4,,,,,3,,,52,0
92736,note_on,,,,,0,0,1,,,,,0,,,74,103
92736,note_off,,,,,384,0,1,,,,,0,,,81,0
92736,note_off,,,,,384,0,2,,,,,1,,,78,0
92736,note_on,,,,,0,0,2,,,,,1,,,71,96
92736,note_on,,,,,48,0,3,,,,,2,,,54,87
92736,note_on,,,,,48,0,4,,,,,3,,,50,78
92784,note_off,,,,,48,0,1,,,,,0,,,74,0
92784,note_off,,,,,48,0,2,,,,,1,,,71,0
92784,note_off,,,,,48,0,4,,,,,3,,,50,0
92784,note_off,,,,,48,0,3,,,,,2,,,54,0
92832,note_on,,,,,48,0,4,,,,,3,,,48,78
92832,note_on,,,,,48,0,1,,,,,0,,,76,103
92832,note_on,,,,,48,0,3,,,,,2,,,52,87
92832,note_on,,,,,48,0,2,,,,,1,,,72,96
92880,note_off,,,,,48,0,4,,,,,3,,,48,0
92880,note_off,,,,,48,0,2,,,,,1,,,72,0
92880,note_off,,,,,48,0,3,,,,,2,,,52,0
92880,note_off,,,,,48,0,1,,,,,0,,,76,0
92928,note_on,,,,,48,0,2,,,,,1,,,74,96
92928,note_on,,,,,48,0,4,,,,,3,,,47,78
92928,note_on,,,,,48,0,3,,,,,2,,,50,87
92928,note_on,,,,,48,0,1,,,,,0,,,78,103
92976,note_off,,,,,48,0,2,,,,,1,,,74,0
92976,note_off,,,,,48,0,1,,,,,0,,,78,0
93024,note_off,,,,,96,0,3,,,,,2,,,50,0
93024,note_on,,,,,48,0,1,,,,,0,,,76,103
93024,note_on,,,,,48,0,2,,,,,1,,,72,96
93024,note_off,,,,,96,0,4,,,,,3,,,47,0
93072,note_off,,,,,48,0,2,,,,,1,,,72,0
93072,note_off,,,,,48,0,1,,,,,0,,,76,0
93120,note_on,,,,,48,0,2,,,,,1,,,71,96
93120,note_on,,,,,96,0,3,,,,,2,,,62,87
93120,note_on,,,,,96,0,4,,,,,3,,,59,78
93120,note_on,,,,,48,0,1,,,,,0,,,74,103
93168,note_off,,,,,48,0,1,,,,,0,,,74,0
93168,note_off,,,,,48,0,2,,,,,1,,,71,0
93216,note_on,,,,,48,0,2,,,,,1,,,69,96
93216,note_on,,,,,48,0,1,,,,,0,,,72,103
93264,note_off,,,,,48,0,2,,,,,1,,,69,0
93264,note_off,,,,,48,0,1,,,,,0,,,72,0
93312,note_on,,,,,48,0,1,,,,,0,,,71,103
93312,note_on,,,,,48,0,2,,,,,1,,,67,96
93360,note_off,,,,,48,0,2,,,,,1,,,67,0
93360,note_off,,,,,48,0,1,,,,,0,,,71,0
93408,note_on,,,,,48,0,2,,,,,1,,,69,96
93408,note_on,,,,,48,0,1,,,,,0,,,72,103
93456,note_off,,,,,48,0,2,,,,,1,,,69,0
93456,note_off,,,,,48,0,1,,,,,0,,,72,0
93504,note_on,,,,,0,0,3,,,,,2,,,55,87
93504,note_on,,,,,48,0,1,,,,,0,,,71,103
93504,note_on,,,,,48,0,2,,,,,1,,,67,96
93504,note_off,,,,,384,0,3,,,,,2,,,62,0
93504,note_on,,,,,0,0,4,,,,,3,,,52,78
93504,note_off,,,,,384,0,4,,,,,3,,,59,0
93552,note_off,,,,,48,0,2,,,,,1,,,67,0
93552,note_off,,,,,48,0,3,,,,,2,,,55,0
93552,note_off,,,,,48,0,4,,,,,3,,,52,0
93552,note_off,,,,,48,0,1,,,,,0,,,71,0
93600,note_on,,,,,48,0,2,,,,,1,,,66,96
93600,note_on,,,,,48,0,3,,,,,2,,,57,87
93600,note_on,,,,,48,0,4,,,,,3,,,54,78
93600,note_on,,,,,48,0,1,,,,,0,,,69,103
93648,note_off,,,,,48,0,2,,,,,1,,,66,0
93648,note_off,,,,,48,0,3,,,,,2,,,57,0
93648,note_off,,,,,48,0,1,,,,,0,,,69,0
93648,note_off,,,,,48,0,4,,,,,3,,,54,0
93696,note_on,,,,,48,0,3,,,,,2,,,59,87
93696,note_on,,,,,48,0,1,,,,,0,,,67,103
93696,note_on,,,,,48,0,4,,,,,3,,,55,78
93696,note_on,,,,,48,0,2,,,,,1,,,64,96
93744,note_off,,,,,48,0,3,,,,,2,,,59,0
93744,note_off,,,,,48,0,4,,,,,3,,,55,0
93792,note_on,,,,,48,0,3,,,,,2,,,57,87
93792,note_on,,,,,48,0,4,,,,,3,,,54,78
93792,note_off,,,,,96,0,1,,,,,0,,,67,0
93792,note_off,,,,,96,0,2,,,,,1,,,64,0
93840,note_off,,,,,48,0,3,,,,,2,,,57,0
93840,note_off,,,,,48,0,4,,,,,3,,,54,0
93888,note_on,,,,,48,0,3,,,,,2,,,55,87
93888,note_on,,,,,96,0,1,,,,,0,,,79,103
93888,note_on,,,,,96,0,2,,,,,1,,,76,96
93888,note_on,,,,,48,0,4,,,,,3,,,52,78
93936,note_off,,,,,48,0,4,,,,,3,,,52,0
93936,note_off,,,,,48,0,3,,,,,2,,,55,0
93984,note_on,,,,,48,0,3,,,,,2,,,54,87
93984,note_on,,,,,48,0,4,,,,,3,,,50,78
94032,note_off,,,,,48,0,3,,,,,2,,,54,0
94032,note_off,,,,,48,0,4,,,,,3,,,50,0
94080,note_on,,,,,48,0,4,,,,,3,,,49,78
94080,note_on,,,,,48,0,3,,,,,2,,,52,87
94128,note_off,,,,,48,0,3,,,,,2,,,52,0
94128,note_off,,,,,48,0,4,,,,,3,,,49,0
94176,note_on,,,,,48,0,3,,,,,2,,,54,87
94176,note_on,,,,,48,0,4,,,,,3,,,50,78
94224,note_off,,,,,48,0,3,,,,,2,,,54,0
94224,note_off,,,,,48,0,4,,,,,3,,,50,0
94272,note_off,,,,,384,0,1,,,,,0,,,79,0
94272,note_on,,,,,0,0,2,,,,,1,,,69,96
94272,note_off,,,,,384,0,2,,,,,1,,,76,0
94272,note_on,,,,,48,0,4,,,,,3,,,49,78
94272,note_on,,,,,48,0,3,,,,,2,,,52,87
94272,note_on,,,,,0,0,1,,,,,0,,,73,103
94320,note_off,,,,,48,0,1,,,,,0,,,73,0
94320,note_off,,,,,48,0,2,,,,,1,,,69,0
94320,note_off,,,,,48,0,4,,,,,3,,,49,0
94320,note_off,,,,,48,0,3,,,,,2,,,52,0
94368,note_on,,,,,48,0,3,,,,,2,,,50,87
94368,note_on,,,,,48,0,2,,,,,1,,,71,96
94368,note_on,,,,,48,0,1,,,,,0,,,74,103
94368,note_on,,,,,48,0,4,,,,,3,,,47,78
94416,note_off,,,,,48,0,3,,,,,2,,,50,0
94416,note_off,,,,,48,0,1,,,,,0,,,74,0
94416,note_off,,,,,48,0,2,,,,,1,,,71,0
94416,note_off,,,,,48,0,4,,,,,3,,,47,0
94464,note_on,,,,,48,0,1,,,,,0,,,76,103
94464,note_on,,,,,48,0,3,,,,,2,,,49,87
94464,note_on,,,,,48,0,4,,,,,3,,,45,78
94464,note_on,,,,,48,0,2,,,,,1,,,73,96
94512,note_off,,,,,48,0,1,,,,,0,,,76,0
94512,note_off,,,,,48,0,2,,,,,1,,,73,0
94560,note_on,,,,,48,0,1,,,,,0,,,74,103
94560,note_off,,,,,96,0,3,,,,,2,,,49,0
94560,note_off,,,,,96,0,4,,,,,3,,,45,0
94560,note_on,,,,,48,0,2,,,,,1,,,71,96
94608,note_off,,,,,48,0,2,,,,,1,,,71,0
94608,note_off,,,,,48,0,1,,,,,0,,,74,0
94656,note_on,,,,,96,0,3,,,,,2,,,61,87
94656,note_on,,,,,96,0,4,,,,,3,,,57,78
94656,note_on,,,,,48,0,1,,,,,0,,,73,103
94656,note_on,,,,,48,0,2,,,,,1,,,69,96
94704,note_off,,,,,48,0,2,,,,,1,,,69,0
94704,note_off,,,,,48,0,1,,,,,0,,,73,0
94752,note_on,,,,,48,0,2,,,,,1,,,67,96
94752,note_on,,,,,48,0,1,,,,,0,,,71,103
94800,note_off,,,,,48,0,1,,,,,0,,,71,0
94800,note_off,,,,,48,0,2,,,,,1,,,67,0
94848,note_on,,,,,48,0,2,,,,,1,,,66,96
94848,note_on,,,,,48,0,1,,,,,0,,,69,103
94896,note_off,,,,,48,0,1,,,,,0,,,69,0
94896,note_off,,,,,48,0,2,,,,,1,,,66,0
94944,note_on,,,,,48,0,1,,,,,0,,,71,103
94944,note_on,,,,,48,0,2,,,,,1,,,67,96
94992,note_off,,,,,48,0,1,,,,,0,,,71,0
94992,note_off,,,,,48,0,2,,,,,1,,,67,0
95040,note_on,,,,,48,0,2,,,,,1,,,66,96
95040,note_on,,,,,0,0,3,,,,,2,,,66,87
95040,note_off,,,,,384,0,3,,,,,2,,,61,0
95040,note_off,,,,,384,0,4,,,,,3,,,57,0
95040,note_on,,,,,48,0,1,,,,,0,,,69,103
95040,note_on,,,,,0,0,4,,,,,3,,,62,78
95088,note_off,,,,,48,0,3,,,,,2,,,66,0
95088,note_off,,,,,48,0,2,,,,,1,,,66,0
95088,note_off,,,,,48,0,4,,,,,3,,,62,0
95088,note_off,,,,,48,0,1,,,,,0,,,69,0
95136,note_on,,,,,48,0,2,,,,,1,,,64,96
95136,note_on,,,,,48,0,3,,,,,2,,,67,87
95136,note_on,,,,,48,0,1,,,,,0,,,67,103
95136,note_on,,,,,48,0,4,,,,,3,,,64,78
95184,note_off,,,,,48,0,4,,,,,3,,,64,0
95184,note_off,,,,,48,0,2,,,,,1,,,64,0
95184,note_off,,,,,48,0,1,,,,,0,,,67,0
95184,note_off,,,,,48,0,3,,,,,2,,,67,0
95232,note_on,,,,,48,0,4,,,,,3,,,66,78
95232,note_on,,,,,48,0,2,,,,,1,,,62,96
95232,note_on,,,,,48,0,1,,,,,0,,,66,103
95232,note_on,,,,,48,0,3,,,,,2,,,69,87
95280,note_off,,,,,48,0,4,,,,,3,,,66,0
95280,note_off,,,,,48,0,3,,,,,2,,,69,0
95328,note_off,,,,,96,0,2,,,,,1,,,62,0
95328,note_on,,,,,48,0,4,,,,,3,,,64,78
95328,note_off,,,,,96,0,1,,,,,0,,,66,0
95328,note_on,,,,,48,0,3,,,,,2,,,67,87
95376,note_off,,,,,48,0,4,,,,,3,,,64,0
95376,note_off,,,,,48,0,3,,,,,2,,,67,0
95424,note_on,,,,,96,0,1,,,,,0,,,78,103
95424,note_on,,,,,96,0,2,,,,,1,,,74,96
95424,note_on,,,,,48,0,3,,,,,2,,,66,87
95424,note_on,,,,,48,0,4,,,,,3,,,62,78
95472,note_off,,,,,48,0,4,,,,,3,,,62,0
95472,note_off,,,,,48,0,3,,,,,2,,,66,0
95520,note_on,,,,,48,0,4,,,,,3,,,61,78
95520,note_on,,,,,48,0,3,,,,,2,,,64,87
95568,note_off,,,,,48,0,3,,,,,2,,,64,0
95568,note_off,,,,,48,0,4,,,,,3,,,61,0
95616,note_on,,,,,48,0,3,,,,,2,,,62,87
95616,note_on,,,,,48,0,4,,,,,3,,,59,78
95664,note_off,,,,,48,0,3,,,,,2,,,62,0
95664,note_off,,,,,48,0,4,,,,,3,,,59,0
95712,note_on,,,,,48,0,3,,,,,2,,,64,87
95712,note_on,,,,,48,0,4,,,,,3,,,61,78
95760,note_off,,,,,48,0,3,,,,,2,,,64,0
95760,note_off,,,,,48,0,4,,,,,3,,,61,0
95808,note_on,,,,,0,0,2,,,,,1,,,68,96
95808,note_off,,,,,384,0,2,,,,,1,,,74,0
95808,note_on,,,,,48,0,4,,,,,3,,,59,78
95808,note_off,,,,,384,0,1,,,,,0,,,78,0
95808,note_on,,,,,0,0,1,,,,,0,,,71,103
95808,note_on,,,,,48,0,3,,,,,2,,,62,87
95856,note_off,,,,,48,0,4,,,,,3,,,59,0
95856,note_off,,,,,48,0,1,,,,,0,,,71,0
95856,note_off,,,,,48,0,3,,,,,2,,,62,0
95856,note_off,,,,,48,0,2,,,,,1,,,68,0
95904,note_on,,,,,48,0,1,,,,,0,,,73,103
95904,note_on,,,,,48,0,3,,,,,2,,,61,87
95904,note_on,,,,,48,0,4,,,,,3,,,57,78
95904,note_on,,,,,48,0,2,,,,,1,,,69,96
95952,note_off,,,,,48,0,1,,,,,0,,,73,0
95952,note_off,,,,,48,0,2,,,,,1,,,69,0
95952,note_off,,,,,48,0,4,,,,,3,,,57,0
95952,note_off,,,,,48,0,3,,,,,2,,,61,0
96000,note_on,,,,,48,0,4,,,,,3,,,56,78
96000,note_on,,,,,48,0,2,,,,,1,,,71,96
96000,note_on,,,,,48,0,3,,,,,2,,,59,87
96000,note_on,,,,,48,0,1,,,,,0,,,74,103
96048,note_off,,,,,48,0,1,,,,,0,,,74,0
96048,note_off,,,,,48,0,2,,,,,1,,,71,0
96096,note_off,,,,,96,0,3,,,,,2,,,59,0
96096,note_on,,,,,48,0,1,,,,,0,,,73,103
96096,note_off,,,,,96,0,4,,,,,3,,,56,0
96096,note_on,,,,,48,0,2,,,,,1,,,69,96
96144,note_off,,,,,48,0,2,,,,,1,,,69,0
96144,note_off,,,,,48,0,1,,,,,0,,,73,0
96192,note_on,,,,,96,0,3,,,,,2,,,71,87
96192,note_on,,,,,96,0,4,,,,,3,,,44,78
96192,note_on,,,,,48,0,1,,,,,0,,,71,103
96192,note_on,,,,,48,0,2,,,,,1,,,68,96
96240,note_off,,,,,48,0,2,,,,,1,,,68,0
96240,note_off,,,,,48,0,1,,,,,0,,,71,0
96288,note_on,,,,,48,0,2,,,,,1,,,66,96
96288,note_on,,,,,48,0,1,,,,,0,,,69,103
96336,note_off,,,,,48,0,1,,,,,0,,,69,0
96336,note_off,,,,,48,0,2,,,,,1,,,66,0
96384,note_on,,,,,48,0,1,,,,,0,,,68,103
96384,note_on,,,,,48,0,2,,,,,1,,,64,96
96432,note_off,,,,,48,0,1,,,,,0,,,68,0
96432,note_off,,,,,48,0,2,,,,,1,,,64,0
96480,note_on,,,,,48,0,1,,,,,0,,,69,103
96480,note_on,,,,,48,0,2,,,,,1,,,66,96
96528,note_off,,,,,48,0,1,,,,,0,,,69,0
96528,note_off,,,,,48,0,2,,,,,1,,,66,0
96576,note_on,,,,,48,0,1,,,,,0,,,68,103
96576,note_off,,,,,384,0,4,,,,,3,,,44,0
96576,note_on,,,,,48,0,2,,,,,1,,,64,96
96576,note_on,,,,,0,0,4,,,,,3,,,56,78
96576,note_on,,,,,0,0,3,,,,,2,,,59,87
96576,note_off,,,,,384,0,3,,,,,2,,,71,0
96624,note_off,,,,,48,0,1,,,,,0,,,68,0
96624,note_off,,,,,48,0,2,,,,,1,,,64,0
96672,note_off,,,,,96,0,3,,,,,2,,,59,0
96672,note_on,,,,,48,0,2,,,,,1,,,62,96
96672,note_on,,,,,48,0,1,,,,,0,,,66,103
96672,note_off,,,,,96,0,4,,,,,3,,,56,0
96720,note_off,,,,,48,0,2,,,,,1,,,62,0
96720,note_off,,,,,48,0,1,,,,,0,,,66,0
96768,note_on,,,,,48,0,2,,,,,1,,,61,96
96768,note_on,,,,,48,0,1,,,,,0,,,64,103
96768,note_on,,,,,96,0,3,,,,,2,,,61,87
96768,note_on,,,,,96,0,4,,,,,3,,,57,78
96864,note_off,,,,,96,0,1,,,,,0,,,64,0
96864,note_off,,,,,96,0,4,,,,,3,,,57,0
96864,note_off,,,,,96,0,2,,,,,1,,,61,0
96864,note_off,,,,,96,0,3,,,,,2,,,61,0
97152,note_on,,,,,288,0,4,,,,,3,,,54,78
97152,note_on,,,,,288,0,3,,,,,2,,,66,87
97152,note_on,,,,,288,0,2,,,,,1,,,61,96
97152,note_on,,,,,288,0,1,,,,,0,,,69,103
97248,note_off,,,,,96,0,2,,,,,1,,,61,0
97248,note_off,,,,,96,0,4,,,,,3,,,54,0
97248,note_off,,,,,96,0,3,,,,,2,,,66,0
97248,note_off,,,,,96,0,1,,,,,0,,,69,0
97536,note_on,,,,,288,0,4,,,,,3,,,50,78
97536,note_on,,,,,288,0,2,,,,,1,,,66,96
97536,note_on,,,,,288,0,1,,,,,0,,,74,103
97536,note_on,,,,,288,0,3,,,,,2,,,59,87
97632,note_off,,,,,96,0,2,,,,,1,,,66,0
97632,note_off,,,,,96,0,3,,,,,2,,,59,0
97632,note_off,,,,,96,0,4,,,,,3,,,50,0
97632,note_off,,,,,96,0,1,,,,,0,,,74,0
97920,note_on,,,,,288,0,1,,,,,0,,,71,103
97920,note_on,,,,,288,0,2,,,,,1,,,68,96
97920,note_on,,,,,288,0,3,,,,,2,,,62,87
97920,note_on,,,,,288,0,4,,,,,3,,,52,78
98016,note_off,,,,,96,0,1,,,,,0,,,71,0
98016,note_off,,,,,96,0,2,,,,,1,,,68,0
98016,note_off,,,,,96,0,3,,,,,2,,,62,0
98016,note_off,,,,,96,0,4,,,,,3,,,52,0
98880,note_on,,,,,864,0,1,,,,,0,,,73,103
98976,note_on,,,,,0,0,1,,,,,0,,,74,103
98976,note_off,,,,,96,0,1,,,,,0,,,73,0
99072,note_on,,,,,0,0,1,,,,,0,,,76,103
99072,note_on,,,,,1056,0,3,,,,,2,,,57,87
99072,note_on,,,,,1056,0,4,,,,,3,,,57,78
99072,note_off,,,,,96,0,1,,,,,0,,,74,0
99072,note_on,,,,,1056,0,2,,,,,1,,,61,96
99168,note_off,,,,,96,0,1,,,,,0,,,76,0
99168,note_on,,,,,0,0,1,,,,,0,,,74,103
99264,note_on,,,,,0,0,3,,,,,2,,,59,87
99264,note_off,,,,,96,0,1,,,,,0,,,74,0
99264,note_on,,,,,0,0,1,,,,,0,,,73,103
99264,note_off,,,,,192,0,3,,,,,2,,,57,0
99264,note_off,,,,,192,0,2,,,,,1,,,61,0
99264,note_on,,,,,0,0,2,,,,,1,,,62,96
99360,note_off,,,,,96,0,1,,,,,0,,,73,0
99360,note_on,,,,,0,0,1,,,,,0,,,71,103
99456,note_off,,,,,384,0,4,,,,,3,,,57,0
99456,note_on,,,,,0,0,2,,,,,1,,,64,96
99456,note_off,,,,,192,0,3,,,,,2,,,59,0
99456,note_on,,,,,0,0,3,,,,,2,,,61,87
99456,note_off,,,,,192,0,2,,,,,1,,,62,0
99456,note_off,,,,,96,0,1,,,,,0,,,71,0
99456,note_on,,,,,0,0,1,,,,,0,,,69,103
99552,note_on,,,,,0,0,1,,,,,0,,,71,103
99552,note_off,,,,,96,0,1,,,,,0,,,69,0
99648,note_off,,,,,192,0,2,,,,,1,,,64,0
99648,note_off,,,,,192,0,3,,,,,2,,,61,0
99648,note_off,,,,,96,0,1,,,,,0,,,71,0
99648,note_on,,,,,0,0,1,,,,,0,,,69,103
99744,note_on,,,,,0,0,1,,,,,0,,,68,103
99744,note_off,,,,,96,0,1,,,,,0,,,69,0
99840,note_on,,,,,0,0,1,,,,,0,,,66,103
99840,note_on,,,,,384,0,4,,,,,3,,,50,78
99840,note_off,,,,,96,0,1,,,,,0,,,68,0
99840,note_on,,,,,192,0,2,,,,,1,,,66,96
99840,note_on,,,,,192,0,3,,,,,2,,,66,87
99936,note_off,,,,,96,0,1,,,,,0,,,66,0
99936,note_on,,,,,0,0,2,,,,,1,,,68,96
99936,note_off,,,,,96,0,2,,,,,1,,,66,0
99936,note_off,,,,,96,0,4,,,,,3,,,50,0
99936,note_off,,,,,96,0,3,,,,,2,,,66,0
100032,note_on,,,,,0,0,2,,,,,1,,,69,96
100032,note_on,,,,,96,0,4,,,,,3,,,62,78
100032,note_on,,,,,96,0,1,,,,,0,,,71,103
100032,note_off,,,,,96,0,2,,,,,1,,,68,0
100032,note_on,,,,,96,0,3,,,,,2,,,66,87
100128,note_on,,,,,0,0,2,,,,,1,,,70,96
100128,note_off,,,,,96,0,2,,,,,1,,,69,0
100224,note_on,,,,,0,0,2,,,,,1,,,71,96
100224,note_off,,,,,96,0,2,,,,,1,,,70,0
100320,note_off,,,,,288,0,3,,,,,2,,,66,0
100320,note_on,,,,,0,0,3,,,,,2,,,69,87
100416,note_off,,,,,384,0,1,,,,,0,,,71,0
100416,note_off,,,,,96,0,3,,,,,2,,,69,0
100416,note_off,,,,,384,0,4,,,,,3,,,62,0
100416,note_on,,,,,0,0,4,,,,,3,,,63,78
100416,note_on,,,,,0,0,3,,,,,2,,,68,87
100416,note_on,,,,,0,0,1,,,,,0,,,69,103
100512,note_off,,,,,96,0,3,,,,,2,,,68,0
100512,note_on,,,,,0,0,3,,,,,2,,,66,87
100608,note_off,,,,,192,0,4,,,,,3,,,63,0
100608,note_on,,,,,0,0,1,,,,,0,,,68,103
100608,note_on,,,,,0,0,4,,,,,3,,,64,78
100608,note_off,,,,,96,0,3,,,,,2,,,66,0
100608,note_off,,,,,192,0,1,,,,,0,,,69,0
100608,note_on,,,,,0,0,3,,,,,2,,,64,87
100704,note_off,,,,,96,0,1,,,,,0,,,68,0
100704,note_on,,,,,0,0,1,,,,,0,,,69,103
100800,note_on,,,,,0,0,1,,,,,0,,,71,103
100800,note_on,,,,,0,0,3,,,,,2,,,59,87
100800,note_off,,,,,96,0,1,,,,,0,,,69,0
100800,note_off,,,,,576,0,2,,,,,1,,,71,0
100800,note_on,,,,,0,0,2,,,,,1,,,62,96
100800,note_off,,,,,192,0,3,,,,,2,,,64,0
100896,note_off,,,,,96,0,1,,,,,0,,,71,0
100896,note_on,,,,,0,0,1,,,,,0,,,68,103
100992,note_on,,,,,0,0,2,,,,,1,,,61,96
100992,note_on,,,,,0,0,1,,,,,0,,,69,103
100992,note_off,,,,,96,0,1,,,,,0,,,68,0
100992,note_off,,,,,384,0,4,,,,,3,,,64,0
100992,note_on,,,,,0,0,4,,,,,3,,,52,78
100992,note_on,,,,,0,0,3,,,,,2,,,57,87
100992,note_off,,,,,192,0,3,,,,,2,,,59,0
100992,note_off,,,,,192,0,2,,,,,1,,,62,0
101088,note_off,,,,,96,0,1,,,,,0,,,69,0
101088,note_on,,,,,0,0,1,,,,,0,,,71,103
101184,note_on,,,,,0,0,2,,,,,1,,,57,96
101184,note_off,,,,,192,0,2,,,,,1,,,61,0
101184,note_on,,,,,0,0,3,,,,,2,,,61,87
101184,note_off,,,,,192,0,3,,,,,2,,,57,0
101184,note_off,,,,,96,0,1,,,,,0,,,71,0
101184,note_on,,,,,0,0,1,,,,,0,,,73,103
101280,note_off,,,,,96,0,1,,,,,0,,,73,0
101280,note_on,,,,,0,0,1,,,,,0,,,69,103
101376,note_on,,,,,0,0,2,,,,,1,,,56,96
101376,note_off,,,,,192,0,3,,,,,2,,,61,0
101376,note_off,,,,,192,0,2,,,,,1,,,57,0
101376,note_on,,,,,0,0,3,,,,,2,,,64,87
101376,note_off,,,,,96,0,1,,,,,0,,,69,0
101376,note_on,,,,,0,0,1,,,,,0,,,76,103
101472,note_off,,,,,96,0,2,,,,,1,,,56,0
101472,note_on,,,,,0,0,1,,,,,0,,,75,103
101472,note_off,,,,,96,0,1,,,,,0,,,76,0
101472,note_off,,,,,96,0,3,,,,,2,,,64,0
101568,note_on,,,,,96,0,3,,,,,2,,,66,87
101568,note_on,,,,,96,0,2,,,,,1,,,57,96
101568,note_off,,,,,576,0,4,,,,,3,,,52,0
101568,note_on,,,,,0,0,4,,,,,3,,,47,78
101568,note_off,,,,,96,0,1,,,,,0,,,75,0
101568,note_on,,,,,0,0,1,,,,,0,,,78,103
101664,note_on,,,,,0,0,1,,,,,0,,,75,103
101664,note_off,,,,,96,0,4,,,,,3,,,47,0
101664,note_off,,,,,96,0,2,,,,,1,,,57,0
101664,note_off,,,,,96,0,3,,,,,2,,,66,0
101664,note_off,,,,,96,0,1,,,,,0,,,78,0
101760,note_on,,,,,96,0,2,,,,,1,,,56,96
101760,note_on,,,,,0,0,1,,,,,0,,,76,103
101760,note_on,,,,,96,0,3,,,,,2,,,64,87
101760,note_off,,,,,96,0,1,,,,,0,,,75,0
101760,note_on,,,,,96,0,4,,,,,3,,,52,78
101856,note_off,,,,,96,0,3,,,,,2,,,64,0
101856,note_off,,,,,96,0,2,,,,,1,,,56,0
101856,note_off,,,,,96,0,4,,,,,3,,,52,0
101952,note_off,,,,,192,0,1,,,,,0,,,76,0
101952,note_on,,,,,0,0,1,,,,,0,,,73,103
102048,note_off,,,,,96,0,1,,,,,0,,,73,0
102048,note_on,,,,,0,0,1,,,,,0,,,74,103
102144,note_on,,,,,288,0,3,,,,,2,,,49,87
102144,note_on,,,,,288,0,4,,,,,3,,,45,78
102144,note_on,,,,,0,0,1,,,,,0,,,76,103
102144,note_off,,,,,96,0,1,,,,,0,,,74,0
102240,note_off,,,,,96,0,1,,,,,0,,,76,0
102240,note_on,,,,,0,0,1,,,,,0,,,74,103
102336,note_on,,,,,0,0,3,,,,,2,,,50,87
102336,note_off,,,,,192,0,3,,,,,2,,,49,0
102336,note_off,,,,,192,0,4,,,,,3,,,45,0
102336,note_on,,,,,0,0,4,,,,,3,,,47,78
102336,note_off,,,,,96,0,1,,,,,0,,,74,0
102336,note_on,,,,,0,0,1,,,,,0,,,73,103
102432,note_off,,,,,96,0,1,,,,,0,,,73,0
102432,note_on,,,,,0,0,1,,,,,0,,,71,103
102528,note_off,,,,,192,0,3,,,,,2,,,50,0
102528,note_on,,,,,0,0,4,,,,,3,,,49,78
102528,note_off,,,,,192,0,4,,,,,3,,,47,0
102528,note_on,,,,,0,0,3,,,,,2,,,52,87
102528,note_off,,,,,96,0,1,,,,,0,,,71,0
102528,note_on,,,,,0,0,1,,,,,0,,,69,103
102624,note_on,,,,,0,0,1,,,,,0,,,71,103
102624,note_off,,,,,96,0,1,,,,,0,,,69,0
102720,note_on,,,,,0,0,4,,,,,3,,,45,78
102720,note_off,,,,,192,0,4,,,,,3,,,49,0
102720,note_on,,,,,0,0,3,,,,,2,,,49,87
102720,note_off,,,,,192,0,3,,,,,2,,,52,0
102720,note_on,,,,,0,0,1,,,,,0,,,69,103
102720,note_off,,,,,96,0,1,,,,,0,,,71,0
102816,note_on,,,,,0,0,1,,,,,0,,,68,103
102816,note_off,,,,,96,0,1,,,,,0,,,69,0
102912,note_on,,,,,0,0,1,,,,,0,,,66,103
102912,note_off,,,,,192,0,3,,,,,2,,,49,0
102912,note_off,,,,,96,0,1,,,,,0,,,68,0
102912,note_off,,,,,192,0,4,,,,,3,,,45,0
102912,note_on,,,,,0,0,4,,,,,3,,,47,78
102912,note_on,,,,,0,0,3,,,,,2,,,51,87
103008,note_off,,,,,96,0,1,,,,,0,,,66,0
103104,note_on,,,,,0,0,3,,,,,2,,,52,87
103104,note_off,,,,,192,0,3,,,,,2,,,51,0
103104,note_on,,,,,0,0,4,,,,,3,,,49,78
103104,note_off,,,,,192,0,4,,,,,3,,,47,0
103104,note_on,,,,,1248,0,2,,,,,1,,,61,96
103104,note_on,,,,,96,0,1,,,,,0,,,73,103
103296,note_on,,,,,0,0,4,,,,,3,,,51,78
103296,note_off,,,,,192,0,4,,,,,3,,,49,0
103296,note_off,,,,,192,0,3,,,,,2,,,52,0
103296,note_on,,,,,0,0,3,,,,,2,,,54,87
103488,note_on,,,,,0,0,4,,,,,3,,,47,78
103488,note_off,,,,,192,0,4,,,,,3,,,51,0
103488,note_on,,,,,0,0,1,,,,,0,,,71,103
103488,note_off,,,,,192,0,3,,,,,2,,,54,0
103488,note_on,,,,,0,0,3,,,,,2,,,51,87
103488,note_off,,,,,384,0,1,,,,,0,,,73,0
103488,note_off,,,,,384,0,2,,,,,1,,,61,0
103488,note_on,,,,,0,0,2,,,,,1,,,59,96
103584,note_off,,,,,96,0,2,,,,,1,,,59,0
103584,note_on,,,,,0,0,2,,,,,1,,,57,96
103584,note_off,,,,,96,0,1,,,,,0,,,71,0
103584,note_on,,,,,0,0,1,,,,,0,,,69,103
103680,note_on,,,,,0,0,4,,,,,3,,,52,78
103680,note_off,,,,,192,0,4,,,,,3,,,47,0
103680,note_on,,,,,0,0,3,,,,,2,,,52,87
103680,note_off,,,,,192,0,3,,,,,2,,,51,0
103680,note_on,,,,,0,0,2,,,,,1,,,56,96
103680,note_on,,,,,0,0,1,,,,,0,,,68,103
103680,note_off,,,,,96,0,2,,,,,1,,,57,0
103680,note_off,,,,,96,0,1,,,,,0,,,69,0
103776,note_on,,,,,0,0,1,,,,,0,,,69,103
103776,note_off,,,,,96,0,1,,,,,0,,,68,0
103872,note_off,,,,,192,0,2,,,,,1,,,56,0
103872,note_off,,,,,96,0,1,,,,,0,,,69,0
103872,note_on,,,,,0,0,1,,,,,0,,,71,103
103872,note_on,,,,,0,0,2,,,,,1,,,64,96
103872,note_off,,,,,192,0,3,,,,,2,,,52,0
103872,note_on,,,,,0,0,3,,,,,2,,,59,87
103968,note_off,,,,,96,0,1,,,,,0,,,71,0
103968,note_on,,,,,0,0,1,,,,,0,,,68,103
104064,note_on,,,,,0,0,2,,,,,1,,,63,96
104064,note_on,,,,,0,0,4,,,,,3,,,47,78
104064,note_off,,,,,384,0,4,,,,,3,,,52,0
104064,note_off,,,,,192,0,3,,,,,2,,,59,0
104064,note_off,,,,,192,0,2,,,,,1,,,64,0
104064,note_on,,,,,0,0,1,,,,,0,,,66,103
104064,note_off,,,,,96,0,1,,,,,0,,,68,0
104064,note_on,,,,,0,0,3,,,,,2,,,57,87
104160,note_off,,,,,96,0,1,,,,,0,,,66,0
104160,note_on,,,,,0,0,1,,,,,0,,,68,103
104256,note_on,,,,,0,0,3,,,,,2,,,54,87
104256,note_off,,,,,192,0,3,,,,,2,,,57,0
104256,note_on,,,,,0,0,2,,,,,1,,,57,96
104256,note_off,,,,,192,0,2,,,,,1,,,63,0
104256,note_off,,,,,96,0,1,,,,,0,,,68,0
104256,note_on,,,,,0,0,1,,,,,0,,,69,103
104352,note_on,,,,,0,0,1,,,,,0,,,66,103
104352,note_off,,,,,96,0,1,,,,,0,,,69,0
104448,note_on,,,,,0,0,4,,,,,3,,,40,78
104448,note_off,,,,,384,0,4,,,,,3,,,47,0
104448,note_on,,,,,0,0,2,,,,,1,,,56,96
104448,note_off,,,,,192,0,2,,,,,1,,,57,0
104448,note_on,,,,,0,0,3,,,,,2,,,52,87
104448,note_off,,,,,192,0,3,,,,,2,,,54,0
104448,note_on,,,,,0,0,1,,,,,0,,,64,103
104448,note_off,,,,,96,0,1,,,,,0,,,66,0
104544,note_off,,,,,96,0,2,,,,,1,,,56,0
104544,note_off,,,,,96,0,1,,,,,0,,,64,0
104544,note_off,,,,,96,0,3,,,,,2,,,52,0
104544,note_off,,,,,96,0,4,,,,,3,,,40,0
104640,note_on,,,,,96,0,3,,,,,2,,,56,87
104640,note_on,,,,,96,0,4,,,,,3,,,40,78
104640,note_on,,,,,96,0,2,,,,,1,,,59,96
104640,note_on,,,,,96,0,1,,,,,0,,,76,103
104736,note_off,,,,,96,0,3,,,,,2,,,56,0
104736,note_off,,,,,96,0,2,,,,,1,,,59,0
104736,note_off,,,,,96,0,1,,,,,0,,,76,0
104736,note_off,,,,,96,0,4,,,,,3,,,40,0
104832,note_on,,,,,96,0,4,,,,,3,,,40,78
104832,note_on,,,,,96,0,3,,,,,2,,,52,87
104832,note_on,,,,,96,0,2,,,,,1,,,56,96
104928,note_off,,,,,96,0,4,,,,,3,,,40,0
104928,note_off,,,,,96,0,3,,,,,2,,,52,0
104928,note_off,,,,,96,0,2,,,,,1,,,56,0
105024,note_on,,,,,288,0,1,,,,,0,,,73,103
105120,note_on,,,,,0,0,1,,,,,0,,,74,103
105120,note_off,,,,,96,0,1,,,,,0,,,73,0
105216,note_off,,,,,96,0,1,,,,,0,,,74,0
105216,note_on,,,,,0,0,1,,,,,0,,,76,103
105216,note_on,,,,,288,0,4,,,,,3,,,57,78
105216,note_on,,,,,288,0,3,,,,,2,,,57,87
105216,note_on,,,,,288,0,2,,,,,1,,,61,96
105312,note_on,,,,,0,0,1,,,,,0,,,74,103
105312,note_off,,,,,96,0,1,,,,,0,,,76,0
105408,note_on,,,,,0,0,2,,,,,1,,,62,96
105408,note_off,,,,,192,0,2,,,,,1,,,61,0
105408,note_on,,,,,0,0,1,,,,,0,,,73,103
105408,note_off,,,,,96,0,1,,,,,0,,,74,0
105408,note_off,,,,,192,0,3,,,,,2,,,57,0
105408,note_on,,,,,0,0,3,,,,,2,,,59,87
105504,note_on,,,,,0,0,1,,,,,0,,,71,103
105504,note_off,,,,,96,0,1,,,,,0,,,73,0
105600,note_off,,,,,96,0,1,,,,,0,,,71,0
105600,note_off,,,,,192,0,2,,,,,1,,,62,0
105600,note_on,,,,,0,0,1,,,,,0,,,69,103
105600,note_off,,,,,384,0,4,,,,,3,,,57,0
105600,note_on,,,,,0,0,2,,,,,1,,,64,96
105600,note_on,,,,,0,0,3,,,,,2,,,61,87
105600,note_off,,,,,192,0,3,,,,,2,,,59,0
105696,note_off,,,,,96,0,1,,,,,0,,,69,0
105696,note_on,,,,,0,0,1,,,,,0,,,71,103
105792,note_off,,,,,192,0,3,,,,,2,,,61,0
105792,note_off,,,,,96,0,1,,,,,0,,,71,0
105792,note_on,,,,,0,0,1,,,,,0,,,69,103
105792,note_off,,,,,192,0,2,,,,,1,,,64,0
105888,note_off,,,,,96,0,1,,,,,0,,,69,0
105888,note_on,,,,,0,0,1,,,,,0,,,68,103
105984,note_off,,,,,96,0,1,,,,,0,,,68,0
105984,note_on,,,,,0,0,1,,,,,0,,,66,103
105984,note_on,,,,,192,0,2,,,,,1,,,66,96
105984,note_on,,,,,384,0,4,,,,,3,,,50,78
105984,note_on,,,,,192,0,3,,,,,2,,,66,87
106080,note_off,,,,,96,0,1,,,,,0,,,66,0
106080,note_off,,,,,96,0,3,,,,,2,,,66,0
106080,note_off,,,,,96,0,2,,,,,1,,,66,0
106080,note_off,,,,,96,0,4,,,,,3,,,50,0
106080,note_on,,,,,0,0,2,,,,,1,,,68,96
106176,note_on,,,,,96,0,3,,,,,2,,,66,87
106176,note_off,,,,,96,0,2,,,,,1,,,68,0
106176,note_on,,,,,0,0,2,,,,,1,,,69,96
106176,note_on,,,,,96,0,1,,,,,0,,,71,103
106176,note_on,,,,,96,0,4,,,,,3,,,62,78
106272,note_off,,,,,96,0,2,,,,,1,,,69,0
106272,note_on,,,,,0,0,2,,,,,1,,,70,96
106368,note_off,,,,,96,0,2,,,,,1,,,70,0
106368,note_on,,,,,0,0,2,,,,,1,,,71,96
106464,note_off,,,,,288,0,3,,,,,2,,,66,0
106464,note_on,,,,,0,0,3,,,,,2,,,69,87
106560,note_on,,,,,0,0,1,,,,,0,,,69,103
106560,note_off,,,,,384,0,1,,,,,0,,,71,0
106560,note_off,,,,,384,0,4,,,,,3,,,62,0
106560,note_on,,,,,0,0,3,,,,,2,,,68,87
106560,note_off,,,,,96,0,3,,,,,2,,,69,0
106560,note_on,,,,,0,0,4,,,,,3,,,63,78
106656,note_on,,,,,0,0,3,,,,,2,,,66,87
106656,note_off,,,,,96,0,3,,,,,2,,,68,0
106752,note_off,,,,,192,0,1,,,,,0,,,69,0
106752,note_on,,,,,0,0,1,,,,,0,,,68,103
106752,note_off,,,,,96,0,3,,,,,2,,,66,0
106752,note_on,,,,,0,0,3,,,,,2,,,64,87
106752,note_on,,,,,0,0,4,,,,,3,,,64,78
106752,note_off,,,,,192,0,4,,,,,3,,,63,0
106848,note_off,,,,,96,0,1,,,,,0,,,68,0
106848,note_on,,,,,0,0,1,,,,,0,,,69,103
106944,note_on,,,,,0,0,3,,,,,2,,,59,87
106944,note_on,,,,,0,0,1,,,,,0,,,71,103
106944,note_off,,,,,96,0,1,,,,,0,,,69,0
106944,note_off,,,,,576,0,2,,,,,1,,,71,0
106944,note_on,,,,,0,0,2,,,,,1,,,62,96
106944,note_off,,,,,192,0,3,,,,,2,,,64,0
107040,note_on,,,,,0,0,1,,,,,0,,,68,103
107040,note_off,,,,,96,0,1,,,,,0,,,71,0
107136,note_off,,,,,96,0,1,,,,,0,,,68,0
107136,note_off,,,,,192,0,3,,,,,2,,,59,0
107136,note_off,,,,,192,0,2,,,,,1,,,62,0
107136,note_on,,,,,0,0,2,,,,,1,,,61,96
107136,note_on,,,,,0,0,3,,,,,2,,,57,87
107136,note_off,,,,,384,0,4,,,,,3,,,64,0
107136,note_on,,,,,0,0,4,,,,,3,,,52,78
107136,note_on,,,,,0,0,1,,,,,0,,,69,103
107232,note_off,,,,,96,0,1,,,,,0,,,69,0
107232,note_on,,,,,0,0,1,,,,,0,,,71,103
107328,note_off,,,,,192,0,3,,,,,2,,,57,0
107328,note_on,,,,,0,0,3,,,,,2,,,61,87
107328,note_off,,,,,96,0,1,,,,,0,,,71,0
107328,note_on,,,,,0,0,1,,,,,0,,,73,103
107328,note_on,,,,,0,0,2,,,,,1,,,57,96
107328,note_off,,,,,192,0,2,,,,,1,,,61,0
107424,note_off,,,,,96,0,1,,,,,0,,,73,0
107424,note_on,,,,,0,0,1,,,,,0,,,69,103
107520,note_on,,,,,0,0,3,,,,,2,,,64,87
107520,note_off,,,,,96,0,1,,,,,0,,,69,0
107520,note_on,,,,,0,0,1,,,,,0,,,76,103
107520,note_on,,,,,0,0,2,,,,,1,,,56,96
107520,note_off,,,,,192,0,2,,,,,1,,,57,0
107520,note_off,,,,,192,0,3,,,,,2,,,61,0
107616,note_off,,,,,96,0,1,,,,,0,,,76,0
107616,note_off,,,,,96,0,3,,,,,2,,,64,0
107616,note_off,,,,,96,0,2,,,,,1,,,56,0
107616,note_on,,,,,0,0,1,,,,,0,,,75,103
107712,note_on,,,,,96,0,3,,,,,2,,,66,87
107712,note_on,,,,,0,0,4,,,,,3,,,47,78
107712,note_on,,,,,0,0,1,,,,,0,,,78,103
107712,note_off,,,,,96,0,1,,,,,0,,,75,0
107712,note_on,,,,,96,0,2,,,,,1,,,57,96
107712,note_off,,,,,576,0,4,,,,,3,,,52,0
107808,note_on,,,,,0,0,1,,,,,0,,,75,103
107808,note_off,,,,,96,0,4,,,,,3,,,47,0
107808,note_off,,,,,96,0,3,,,,,2,,,66,0
107808,note_off,,,,,96,0,2,,,,,1,,,57,0
107808,note_off,,,,,96,0,1,,,,,0,,,78,0
107904,note_off,,,,,96,0,1,,,,,0,,,75,0
107904,note_on,,,,,0,0,1,,,,,0,,,76,103
107904,note_on,,,,,96,0,4,,,,,3,,,52,78
107904,note_on,,,,,96,0,3,,,,,2,,,64,87
107904,note_on,,,,,96,0,2,,,,,1,,,56,96
108000,note_off,,,,,96,0,2,,,,,1,,,56,0
108000,note_off,,,,,96,0,3,,,,,2,,,64,0
108000,note_off,,,,,96,0,4,,,,,3,,,52,0
108096,note_off,,,,,192,0,1,,,,,0,,,76,0
108096,note_on,,,,,0,0,1,,,,,0,,,73,103
108192,note_off,,,,,96,0,1,,,,,0,,,73,0
108192,note_on,,,,,0,0,1,,,,,0,,,74,103
108288,note_off,,,,,96,0,1,,,,,0,,,74,0
108288,note_on,,,,,288,0,4,,,,,3,,,45,78
108288,note_on,,,,,0,0,1,,,,,0,,,76,103
108288,note_on,,,,,288,0,3,,,,,2,,,49,87
108384,note_off,,,,,96,0,1,,,,,0,,,76,0
108384,note_on,,,,,0,0,1,,,,,0,,,74,103
108480,note_off,,,,,96,0,1,,,,,0,,,74,0
108480,note_on,,,,,0,0,1,,,,,0,,,73,103
108480,note_on,,,,,0,0,4,,,,,3,,,47,78
108480,note_on,,,,,0,0,3,,,,,2,,,50,87
108480,note_off,,,,,192,0,3,,,,,2,,,49,0
108480,note_off,,,,,192,0,4,,,,,3,,,45,0
108576,note_on,,,,,0,0,1,,,,,0,,,71,103
108576,note_off,,,,,96,0,1,,,,,0,,,73,0
108672,note_off,,,,,192,0,4,,,,,3,,,47,0
108672,note_off,,,,,96,0,1,,,,,0,,,71,0
108672,note_on,,,,,0,0,3,,,,,2,,,52,87
108672,note_off,,,,,192,0,3,,,,,2,,,50,0
108672,note_on,,,,,0,0,4,,,,,3,,,49,78
108672,note_on,,,,,0,0,1,,,,,0,,,69,103
108768,note_off,,,,,96,0,1,,,,,0,,,69,0
108768,note_on,,,,,0,0,1,,,,,0,,,71,103
108864,note_on,,,,,0,0,1,,,,,0,,,69,103
108864,note_off,,,,,96,0,1,,,,,0,,,71,0
108864,note_off,,,,,192,0,4,,,,,3,,,49,0
108864,note_on,,,,,0,0,4,,,,,3,,,45,78
108864,note_on,,,,,0,0,3,,,,,2,,,49,87
108864,note_off,,,,,192,0,3,,,,,2,,,52,0
108960,note_off,,,,,96,0,1,,,,,0,,,69,0
108960,note_on,,,,,0,0,1,,,,,0,,,68,103
109056,note_off,,,,,192,0,3,,,,,2,,,49,0
109056,note_on,,,,,0,0,3,,,,,2,,,51,87
109056,note_off,,,,,96,0,1,,,,,0,,,68,0
109056,note_on,,,,,0,0,4,,,,,3,,,47,78
109056,note_off,,,,,192,0,4,,,,,3,,,45,0
109056,note_on,,,,,0,0,1,,,,,0,,,66,103
109152,note_off,,,,,96,0,1,,,,,0,,,66,0
109248,note_off,,,,,192,0,3,,,,,2,,,51,0
109248,note_on,,,,,0,0,3,,,,,2,,,52,87
109248,note_on,,,,,0,0,4,,,,,3,,,49,78
109248,note_on,,,,,96,0,1,,,,,0,,,73,103
109248,note_off,,,,,192,0,4,,,,,3,,,47,0
109248,note_on,,,,,1248,0,2,,,,,1,,,61,96
109440,note_on,,,,,0,0,3,,,,,2,,,54,87
109440,note_off,,,,,192,0,3,,,,,2,,,52,0
109440,note_on,,,,,0,0,4,,,,,3,,,51,78
109440,note_off,,,,,192,0,4,,,,,3,,,49,0
109632,note_off,,,,,384,0,1,,,,,0,,,73,0
109632,note_on,,,,,0,0,1,,,,,0,,,71,103
109632,note_off,,,,,384,0,2,,,,,1,,,61,0
109632,note_off,,,,,192,0,4,,,,,3,,,51,0
109632,note_off,,,,,192,0,3,,,,,2,,,54,0
109632,note_on,,,,,0,0,3,,,,,2,,,51,87
109632,note_on,,,,,0,0,2,,,,,1,,,59,96
109632,note_on,,,,,0,0,4,,,,,3,,,47,78
109728,note_off,,,,,96,0,2,,,,,1,,,59,0
109728,note_off,,,,,96,0,1,,,,,0,,,71,0
109728,note_on,,,,,0,0,1,,,,,0,,,69,103
109728,note_on,,,,,0,0,2,,,,,1,,,57,96
109824,note_on,,,,,0,0,1,,,,,0,,,68,103
109824,note_on,,,,,0,0,2,,,,,1,,,56,96
109824,note_off,,,,,96,0,2,,,,,1,,,57,0
109824,note_off,,,,,96,0,1,,,,,0,,,69,0
109824,note_off,,,,,192,0,3,,,,,2,,,51,0
109824,note_on,,,,,0,0,4,,,,,3,,,52,78
109824,note_off,,,,,192,0,4,,,,,3,,,47,0
109824,note_on,,,,,0,0,3,,,,,2,,,52,87
109920,note_off,,,,,96,0,1,,,,,0,,,68,0
109920,note_on,,,,,0,0,1,,,,,0,,,69,103
110016,note_off,,,,,96,0,1,,,,,0,,,69,0
110016,note_on,,,,,0,0,1,,,,,0,,,71,103
110016,note_on,,,,,0,0,3,,,,,2,,,59,87
110016,note_off,,,,,192,0,3,,,,,2,,,52,0
110016,note_on,,,,,0,0,2,,,,,1,,,64,96
110016,note_off,,,,,192,0,2,,,,,1,,,56,0
110112,note_on,,,,,0,0,1,,,,,0,,,68,103
110112,note_off,,,,,96,0,1,,,,,0,,,71,0
110208,note_on,,,,,0,0,1,,,,,0,,,66,103
110208,note_off,,,,,96,0,1,,,,,0,,,68,0
110208,note_on,,,,,0,0,2,,,,,1,,,63,96
110208,note_on,,,,,0,0,3,,,,,2,,,57,87
110208,note_off,,,,,192,0,3,,,,,2,,,59,0
110208,note_off,,,,,192,0,2,,,,,1,,,64,0
110208,note_on,,,,,0,0,4,,,,,3,,,47,78
110208,note_off,,,,,384,0,4,,,,,3,,,52,0
110304,note_off,,,,,96,0,1,,,,,0,,,66,0
110304,note_on,,,,,0,0,1,,,,,0,,,68,103
110400,note_on,,,,,0,0,3,,,,,2,,,54,87
110400,note_off,,,,,192,0,3,,,,,2,,,57,0
110400,note_off,,,,,192,0,2,,,,,1,,,63,0
110400,note_on,,,,,0,0,2,,,,,1,,,57,96
110400,note_on,,,,,0,0,1,,,,,0,,,69,103
110400,note_off,,,,,96,0,1,,,,,0,,,68,0
110496,note_off,,,,,96,0,1,,,,,0,,,69,0
110496,note_on,,,,,0,0,1,,,,,0,,,66,103
110592,note_off,,,,,192,0,3,,,,,2,,,54,0
110592,note_on,,,,,0,0,3,,,,,2,,,52,87
110592,note_on,,,,,0,0,4,,,,,3,,,40,78
110592,note_on,,,,,0,0,2,,,,,1,,,56,96
110592,note_off,,,,,384,0,4,,,,,3,,,47,0
110592,note_on,,,,,0,0,1,,,,,0,,,64,103
110592,note_off,,,,,96,0,1,,,,,0,,,66,0
110592,note_off,,,,,192,0,2,,,,,1,,,57,0
110688,note_off,,,,,96,0,2,,,,,1,,,56,0
110688,note_off,,,,,96,0,1,,,,,0,,,64,0
110688,note_off,,,,,96,0,3,,,,,2,,,52,0
110688,note_off,,,,,96,0,4,,,,,3,,,40,0
110784,note_on,,,,,96,0,2,,,,,1,,,59,96
110784,note_on,,,,,96,0,1,,,,,0,,,76,103
110784,note_on,,,,,96,0,3,,,,,2,,,56,87
110784,note_on,,,,,96,0,4,,,,,3,,,40,78
110880,note_off,,,,,96,0,3,,,,,2,,,56,0
110880,note_off,,,,,96,0,4,,,,,3,,,40,0
110880,note_off,,,,,96,0,2,,,,,1,,,59,0
110880,note_off,,,,,96,0,1,,,,,0,,,76,0
110976,note_on,,,,,96,0,2,,,,,1,,,56,96
110976,note_on,,,,,96,0,4,,,,,3,,,40,78
110976,note_on,,,,,96,0,3,,,,,2,,,52,87
111072,note_off,,,,,96,0,3,,,,,2,,,52,0
111072,note_off,,,,,96,0,2,,,,,1,,,56,0
111072,note_off,,,,,96,0,4,,,,,3,,,40,0
111168,note_on,,,,,288,0,1,,,,,0,,,74,103
111168,note_on,,,,,96,0,3,,,,,2,,,59,87
111264,note_off,,,,,96,0,3,,,,,2,,,59,0
111264,note_off,,,,,96,0,1,,,,,0,,,74,0
111264,note_on,,,,,0,0,1,,,,,0,,,76,103
111264,note_on,,,,,0,0,3,,,,,2,,,61,87
111360,note_off,,,,,96,0,3,,,,,2,,,61,0
111360,note_on,,,,,0,0,3,,,,,2,,,62,87
111360,note_on,,,,,0,0,1,,,,,0,,,78,103
111360,note_off,,,,,96,0,1,,,,,0,,,76,0
111456,note_on,,,,,0,0,3,,,,,2,,,61,87
111456,note_off,,,,,96,0,3,,,,,2,,,62,0
111456,note_off,,,,,96,0,1,,,,,0,,,78,0
111456,note_on,,,,,0,0,1,,,,,0,,,76,103
111552,note_off,,,,,96,0,1,,,,,0,,,76,0
111552,note_on,,,,,0,0,1,,,,,0,,,74,103
111552,note_on,,,,,0,0,3,,,,,2,,,59,87
111552,note_off,,,,,96,0,3,,,,,2,,,61,0
111648,note_off,,,,,96,0,1,,,,,0,,,74,0
111648,note_on,,,,,0,0,3,,,,,2,,,57,87
111648,note_off,,,,,96,0,3,,,,,2,,,59,0
111648,note_on,,,,,0,0,1,,,,,0,,,73,103
111744,note_on,,,,,0,0,1,,,,,0,,,71,103
111744,note_on,,,,,0,0,3,,,,,2,,,56,87
111744,note_off,,,,,96,0,3,,,,,2,,,57,0
111744,note_off,,,,,96,0,1,,,,,0,,,73,0
111840,note_on,,,,,0,0,3,,,,,2,,,57,87
111840,note_off,,,,,96,0,3,,,,,2,,,56,0
111840,note_on,,,,,0,0,1,,,,,0,,,73,103
111840,note_off,,,,,96,0,1,,,,,0,,,71,0
111936,note_on,,,,,864,0,2,,,,,1,,,62,96
111936,note_on,,,,,864,0,4,,,,,3,,,47,78
111936,note_on,,,,,0,0,3,,,,,2,,,56,87
111936,note_off,,,,,96,0,3,,,,,2,,,57,0
111936,note_off,,,,,96,0,1,,,,,0,,,73,0
111936,note_on,,,,,0,0,1,,,,,0,,,71,103
112032,note_on,,,,,0,0,1,,,,,0,,,69,103
112032,note_off,,,,,96,0,1,,,,,0,,,71,0
112032,note_on,,,,,0,0,4,,,,,3,,,49,78
112032,note_off,,,,,96,0,4,,,,,3,,,47,0
112032,note_off,,,,,96,0,3,,,,,2,,,56,0
112032,note_on,,,,,0,0,3,,,,,2,,,54,87
112032,note_on,,,,,0,0,2,,,,,1,,,64,96
112032,note_off,,,,,96,0,2,,,,,1,,,62,0
112128,note_on,,,,,0,0,4,,,,,3,,,50,78
112128,note_on,,,,,0,0,2,,,,,1,,,66,96
112128,note_off,,,,,96,0,2,,,,,1,,,64,0
112128,note_off,,,,,96,0,4,,,,,3,,,49,0
112128,note_on,,,,,0,0,3,,,,,2,,,52,87
112128,note_off,,,,,96,0,3,,,,,2,,,54,0
112128,note_on,,,,,0,0,1,,,,,0,,,68,103
112128,note_off,,,,,96,0,1,,,,,0,,,69,0
112224,note_off,,,,,96,0,3,,,,,2,,,52,0
112224,note_off,,,,,96,0,1,,,,,0,,,68,0
112224,note_off,,,,,96,0,2,,,,,1,,,66,0
112224,note_on,,,,,0,0,2,,,,,1,,,64,96
112224,note_off,,,,,96,0,4,,,,,3,,,50,0
112224,note_on,,,,,0,0,4,,,,,3,,,49,78
112320,note_off,,,,,96,0,2,,,,,1,,,64,0
112320,note_on,,,,,0,0,2,,,,,1,,,62,96
112320,note_off,,,,,96,0,4,,,,,3,,,49,0
112320,note_on,,,,,96,0,1,,,,,0,,,76,103
112320,note_on,,,,,0,0,4,,,,,3,,,47,78
112320,note_on,,,,,96,0,3,,,,,2,,,52,87
112416,note_off,,,,,96,0,4,,,,,3,,,47,0
112416,note_on,,,,,0,0,4,,,,,3,,,45,78
112416,note_off,,,,,96,0,2,,,,,1,,,62,0
112416,note_on,,,,,0,0,2,,,,,1,,,61,96
112512,note_off,,,,,96,0,4,,,,,3,,,45,0
112512,note_on,,,,,0,0,4,,,,,3,,,44,78
112512,note_on,,,,,0,0,2,,,,,1,,,59,96
112512,note_off,,,,,96,0,2,,,,,1,,,61,0
112608,note_off,,,,,96,0,4,,,,,3,,,44,0
112608,note_on,,,,,0,0,4,,,,,3,,,45,78
112608,note_on,,,,,0,0,2,,,,,1,,,61,96
112608,note_off,,,,,96,0,2,,,,,1,,,59,0
112704,note_off,,,,,96,0,2,,,,,1,,,61,0
112704,note_on,,,,,0,0,4,,,,,3,,,44,78
112704,note_off,,,,,384,0,3,,,,,2,,,52,0
112704,note_on,,,,,0,0,3,,,,,2,,,59,87
112704,note_off,,,,,384,0,1,,,,,0,,,76,0
112704,note_off,,,,,96,0,4,,,,,3,,,45,0
112704,note_on,,,,,0,0,1,,,,,0,,,74,103
112704,note_on,,,,,0,0,2,,,,,1,,,59,96
112800,note_off,,,,,96,0,4,,,,,3,,,44,0
112800,note_off,,,,,96,0,1,,,,,0,,,74,0
112800,note_on,,,,,0,0,1,,,,,0,,,76,103
112800,note_off,,,,,96,0,2,,,,,1,,,59,0
112800,note_on,,,,,0,0,4,,,,,3,,,42,78
112800,note_off,,,,,96,0,3,,,,,2,,,59,0
112800,note_on,,,,,0,0,3,,,,,2,,,61,87
112800,note_on,,,,,0,0,2,,,,,1,,,57,96
112896,note_on,,,,,0,0,1,,,,,0,,,78,103
112896,note_on,,,,,0,0,2,,,,,1,,,56,96
112896,note_off,,,,,96,0,2,,,,,1,,,57,0
112896,note_on,,,,,0,0,4,,,,,3,,,40,78
112896,note_off,,,,,96,0,3,,,,,2,,,61,0
112896,note_on,,,,,0,0,3,,,,,2,,,62,87
112896,note_off,,,,,96,0,1,,,,,0,,,76,0
112896,note_off,,,,,96,0,4,,,,,3,,,42,0
112992,note_on,,,,,0,0,3,,,,,2,,,61,87
112992,note_off,,,,,96,0,4,,,,,3,,,40,0
112992,note_off,,,,,96,0,1,,,,,0,,,78,0
112992,note_off,,,,,96,0,2,,,,,1,,,56,0
112992,note_on,,,,,0,0,1,,,,,0,,,76,103
112992,note_off,,,,,96,0,3,,,,,2,,,62,0
113088,note_off,,,,,96,0,3,,,,,2,,,61,0
113088,note_on,,,,,0,0,3,,,,,2,,,59,87
113088,note_on,,,,,96,0,2,,,,,1,,,64,96
113088,note_on,,,,,0,0,1,,,,,0,,,74,103
113088,note_off,,,,,96,0,1,,,,,0,,,76,0
113088,note_on,,,,,96,0,4,,,,,3,,,40,78
113184,note_on,,,,,0,0,1,,,,,0,,,73,103
113184,note_off,,,,,96,0,1,,,,,0,,,74,0
113184,note_on,,,,,0,0,3,,,,,2,,,57,87
113184,note_off,,,,,96,0,3,,,,,2,,,59,0
113280,note_off,,,,,96,0,3,,,,,2,,,57,0
113280,note_on,,,,,0,0,3,,,,,2,,,56,87
113280,note_off,,,,,96,0,1,,,,,0,,,73,0
113280,note_on,,,,,0,0,1,,,,,0,,,71,103
113376,note_off,,,,,96,0,3,,,,,2,,,56,0
113376,note_on,,,,,0,0,3,,,,,2,,,57,87
113376,note_off,,,,,96,0,1,,,,,0,,,71,0
113376,note_on,,,,,0,0,1,,,,,0,,,73,103
113472,note_on,,,,,0,0,3,,,,,2,,,56,87
113472,note_off,,,,,384,0,4,,,,,3,,,40,0
113472,note_on,,,,,0,0,4,,,,,3,,,47,78
113472,note_off,,,,,96,0,1,,,,,0,,,73,0
113472,note_on,,,,,0,0,1,,,,,0,,,71,103
113472,note_off,,,,,384,0,2,,,,,1,,,64,0
113472,note_on,,,,,0,0,2,,,,,1,,,62,96
113472,note_off,,,,,96,0,3,,,,,2,,,57,0
113568,note_on,,,,,0,0,3,,,,,2,,,54,87
113568,note_off,,,,,96,0,1,,,,,0,,,71,0
113568,note_on,,,,,0,0,1,,,,,0,,,69,103
113568,note_on,,,,,0,0,4,,,,,3,,,49,78
113568,note_off,,,,,96,0,4,,,,,3,,,47,0
113568,note_off,,,,,96,0,2,,,,,1,,,62,0
113568,note_on,,,,,0,0,2,,,,,1,,,64,96
113568,note_off,,,,,96,0,3,,,,,2,,,56,0
113664,note_on,,,,,0,0,4,,,,,3,,,50,78
113664,note_off,,,,,96,0,4,,,,,3,,,49,0
113664,note_off,,,,,96,0,2,,,,,1,,,64,0
113664,note_on,,,,,0,0,2,,,,,1,,,66,96
113664,note_off,,,,,96,0,3,,,,,2,,,54,0
113664,note_on,,,,,0,0,1,,,,,0,,,68,103
113664,note_on,,,,,0,0,3,,,,,2,,,52,87
113664,note_off,,,,,96,0,1,,,,,0,,,69,0
113760,note_off,,,,,96,0,3,,,,,2,,,52,0
113760,note_off,,,,,96,0,2,,,,,1,,,66,0
113760,note_on,,,,,0,0,2,,,,,1,,,64,96
113760,note_on,,,,,0,0,4,,,,,3,,,49,78
113760,note_off,,,,,96,0,4,,,,,3,,,50,0
113760,note_off,,,,,96,0,1,,,,,0,,,68,0
113856,note_on,,,,,96,0,3,,,,,2,,,52,87
113856,note_off,,,,,96,0,2,,,,,1,,,64,0
113856,note_on,,,,,0,0,2,,,,,1,,,62,96
113856,note_on,,,,,0,0,4,,,,,3,,,47,78
113856,note_off,,,,,96,0,4,,,,,3,,,49,0
113856,note_on,,,,,96,0,1,,,,,0,,,76,103
113952,note_off,,,,,96,0,4,,,,,3,,,47,0
113952,note_on,,,,,0,0,4,,,,,3,,,45,78
113952,note_on,,,,,0,0,2,,,,,1,,,61,96
113952,note_off,,,,,96,0,2,,,,,1,,,62,0
114048,note_on,,,,,0,0,2,,,,,1,,,59,96
114048,note_off,,,,,96,0,2,,,,,1,,,61,0
114048,note_on,,,,,0,0,4,,,,,3,,,44,78
114048,note_off,,,,,96,0,4,,,,,3,,,45,0
114144,note_on,,,,,0,0,2,,,,,1,,,61,96
114144,note_on,,,,,0,0,4,,,,,3,,,45,78
114144,note_off,,,,,96,0,4,,,,,3,,,44,0
114144,note_off,,,,,96,0,2,,,,,1,,,59,0
114240,note_on,,,,,0,0,1,,,,,0,,,71,103
114240,note_off,,,,,384,0,1,,,,,0,,,76,0
114240,note_off,,,,,384,0,3,,,,,2,,,52,0
114240,note_on,,,,,0,0,4,,,,,3,,,44,78
114240,note_on,,,,,0,0,2,,,,,1,,,59,96
114240,note_off,,,,,96,0,2,,,,,1,,,61,0
114240,note_off,,,,,96,0,4,,,,,3,,,45,0
114336,note_on,,,,,0,0,4,,,,,3,,,42,78
114336,note_on,,,,,0,0,1,,,,,0,,,75,103
114336,note_off,,,,,96,0,4,,,,,3,,,44,0
114336,note_off,,,,,96,0,2,,,,,1,,,59,0
114336,note_on,,,,,0,0,2,,,,,1,,,57,96
114336,note_off,,,,,96,0,1,,,,,0,,,71,0
114432,note_on,,,,,192,0,3,,,,,2,,,64,87
114432,note_on,,,,,0,0,4,,,,,3,,,40,78
114432,note_on,,,,,0,0,2,,,,,1,,,56,96
114432,note_off,,,,,96,0,1,,,,,0,,,75,0
114432,note_on,,,,,0,0,1,,,,,0,,,76,103
114432,note_off,,,,,96,0,2,,,,,1,,,57,0
114432,note_off,,,,,96,0,4,,,,,3,,,42,0
114528,note_off,,,,,96,0,1,,,,,0,,,76,0
114528,note_on,,,,,0,0,1,,,,,0,,,78,103
114528,note_off,,,,,96,0,3,,,,,2,,,64,0
114528,note_off,,,,,96,0,4,,,,,3,,,40,0
114528,note_off,,,,,96,0,2,,,,,1,,,56,0
114624,note_off,,,,,96,0,1,,,,,0,,,78,0
114624,note_on,,,,,96,0,3,,,,,2,,,61,87
114624,note_on,,,,,96,0,4,,,,,3,,,40,78
114624,note_on,,,,,0,0,1,,,,,0,,,76,103
114624,note_on,,,,,96,0,2,,,,,1,,,64,96
114720,note_off,,,,,96,0,1,,,,,0,,,76,0
114720,note_on,,,,,0,0,1,,,,,0,,,74,103
114816,note_off,,,,,96,0,1,,,,,0,,,74,0
114816,note_on,,,,,0,0,1,,,,,0,,,73,103
114816,note_on,,,,,0,0,2,,,,,1,,,67,96
114816,note_on,,,,,0,0,3,,,,,2,,,64,87
114816,note_off,,,,,192,0,3,,,,,2,,,61,0
114816,note_off,,,,,192,0,2,,,,,1,,,64,0
114912,note_off,,,,,96,0,1,,,,,0,,,73,0
114912,note_on,,,,,0,0,1,,,,,0,,,74,103
115008,note_off,,,,,192,0,2,,,,,1,,,67,0
115008,note_on,,,,,0,0,2,,,,,1,,,58,96
115008,note_off,,,,,96,0,1,,,,,0,,,74,0
115008,note_on,,,,,0,0,1,,,,,0,,,76,103
115008,note_on,,,,,0,0,3,,,,,2,,,67,87
115008,note_off,,,,,192,0,3,,,,,2,,,64,0
115104,note_on,,,,,0,0,1,,,,,0,,,73,103
115104,note_off,,,,,96,0,1,,,,,0,,,76,0
115200,note_off,,,,,192,0,3,,,,,2,,,67,0
115200,note_on,,,,,0,0,3,,,,,2,,,66,87
115200,note_on,,,,,0,0,2,,,,,1,,,59,96
115200,note_off,,,,,192,0,2,,,,,1,,,58,0
115200,note_on,,,,,0,0,4,,,,,3,,,40,78
115200,note_off,,,,,576,0,4,,,,,3,,,40,0
115200,note_on,,,,,0,0,1,,,,,0,,,74,103
115200,note_off,,,,,96,0,1,,,,,0,,,73,0
115296,note_off,,,,,96,0,4,,,,,3,,,40,0
115296,note_on,,,,,0,0,1,,,,,0,,,76,103
115296,note_off,,,,,96,0,1,,,,,0,,,74,0
115296,note_off,,,,,96,0,2,,,,,1,,,59,0
115296,note_off,,,,,96,0,3,,,,,2,,,66,0
115392,note_on,,,,,96,0,2,,,,,1,,,62,96
115392,note_on,,,,,96,0,4,,,,,3,,,40,78
115392,note_on,,,,,96,0,3,,,,,2,,,59,87
115392,note_off,,,,,96,0,1,,,,,0,,,76,0
115392,note_on,,,,,0,0,1,,,,,0,,,74,103
115488,note_off,,,,,96,0,1,,,,,0,,,74,0
115488,note_on,,,,,0,0,1,,,,,0,,,73,103
115584,note_on,,,,,0,0,3,,,,,2,,,62,87
115584,note_off,,,,,192,0,3,,,,,2,,,59,0
115584,note_off,,,,,192,0,2,,,,,1,,,62,0
115584,note_on,,,,,0,0,1,,,,,0,,,71,103
115584,note_off,,,,,96,0,1,,,,,0,,,73,0
115584,note_on,,,,,0,0,2,,,,,1,,,65,96
115680,note_on,,,,,0,0,1,,,,,0,,,73,103
115680,note_off,,,,,96,0,1,,,,,0,,,71,0
115776,note_off,,,,,192,0,2,,,,,1,,,65,0
115776,note_on,,,,,0,0,2,,,,,1,,,56,96
115776,note_off,,,,,96,0,1,,,,,0,,,73,0
115776,note_on,,,,,0,0,3,,,,,2,,,65,87
115776,note_off,,,,,192,0,3,,,,,2,,,62,0
115776,note_on,,,,,0,0,1,,,,,0,,,74,103
115872,note_on,,,,,0,0,1,,,,,0,,,71,103
115872,note_off,,,,,96,0,1,,,,,0,,,74,0
115968,note_off,,,,,192,0,2,,,,,1,,,56,0
115968,note_on,,,,,0,0,2,,,,,1,,,57,96
115968,note_off,,,,,96,0,1,,,,,0,,,71,0
115968,note_off,,,,,576,0,4,,,,,3,,,40,0
115968,note_on,,,,,0,0,4,,,,,3,,,40,78
115968,note_on,,,,,0,0,1,,,,,0,,,73,103
115968,note_on,,,,,0,0,3,,,,,2,,,64,87
115968,note_off,,,,,192,0,3,,,,,2,,,65,0
116064,note_off,,,,,96,0,2,,,,,1,,,57,0
116064,note_off,,,,,96,0,4,,,,,3,,,40,0
116064,note_off,,,,,96,0,1,,,,,0,,,73,0
116064,note_on,,,,,0,0,1,,,,,0,,,74,103
116064,note_off,,,,,96,0,3,,,,,2,,,64,0
116160,note_on,,,,,96,0,2,,,,,1,,,57,96
116160,note_on,,,,,96,0,3,,,,,2,,,57,87
116160,note_on,,,,,96,0,4,,,,,3,,,40,78
116160,note_on,,,,,0,0,1,,,,,0,,,73,103
116160,note_off,,,,,96,0,1,,,,,0,,,74,0
116256,note_off,,,,,96,0,1,,,,,0,,,73,0
116256,note_on,,,,,0,0,1,,,,,0,,,71,103
116352,note_off,,,,,96,0,1,,,,,0,,,71,0
116352,note_on,,,,,0,0,1,,,,,0,,,69,103
116352,note_off,,,,,192,0,3,,,,,2,,,57,0
116352,note_on,,,,,0,0,2,,,,,1,,,63,96
116352,note_off,,,,,192,0,2,,,,,1,,,57,0
116352,note_on,,,,,0,0,3,,,,,2,,,54,87
116448,note_on,,,,,0,0,1,,,,,0,,,71,103
116448,note_off,,,,,96,0,1,,,,,0,,,69,0
116544,note_on,,,,,0,0,2,,,,,1,,,66,96
116544,note_on,,,,,0,0,1,,,,,0,,,73,103
116544,note_off,,,,,96,0,1,,,,,0,,,71,0
116544,note_off,,,,,192,0,3,,,,,2,,,54,0
116544,note_on,,,,,0,0,3,,,,,2,,,63,87
116544,note_off,,,,,192,0,2,,,,,1,,,63,0
116640,note_on,,,,,0,0,1,,,,,0,,,69,103
116640,note_off,,,,,96,0,1,,,,,0,,,73,0
116736,note_on,,,,,0,0,1,,,,,0,,,68,103
116736,note_off,,,,,96,0,1,,,,,0,,,69,0
116736,note_off,,,,,192,0,3,,,,,2,,,63,0
116736,note_on,,,,,0,0,3,,,,,2,,,64,87
116736,note_off,,,,,576,0,4,,,,,3,,,40,0
116736,note_on,,,,,0,0,4,,,,,3,,,40,78
116736,note_off,,,,,192,0,2,,,,,1,,,66,0
116736,note_on,,,,,0,0,2,,,,,1,,,64,96
116832,note_off,,,,,96,0,3,,,,,2,,,64,0
116832,note_off,,,,,96,0,4,,,,,3,,,40,0
116832,note_on,,,,,0,0,1,,,,,0,,,69,103
116832,note_off,,,,,96,0,1,,,,,0,,,68,0
116832,note_off,,,,,96,0,2,,,,,1,,,64,0
116928,note_on,,,,,0,0,1,,,,,0,,,66,103
116928,note_off,,,,,96,0,1,,,,,0,,,69,0
116928,note_on,,,,,96,0,2,,,,,1,,,63,96
116928,note_on,,,,,96,0,4,,,,,3,,,47,78
116928,note_on,,,,,96,0,3,,,,,2,,,57,87
117024,note_off,,,,,96,0,2,,,,,1,,,63,0
117024,note_on,,,,,0,0,1,,,,,0,,,68,103
117024,note_off,,,,,96,0,4,,,,,3,,,47,0
117024,note_off,,,,,96,0,3,,,,,2,,,57,0
117024,note_off,,,,,96,0,1,,,,,0,,,66,0
117120,note_on,,,,,96,0,4,,,,,3,,,52,78
117120,note_off,,,,,96,0,1,,,,,0,,,68,0
117120,note_on,,,,,0,0,1,,,,,0,,,64,103
117120,note_on,,,,,96,0,3,,,,,2,,,56,87
117120,note_on,,,,,96,0,2,,,,,1,,,64,96
117216,note_off,,,,,96,0,2,,,,,1,,,64,0
117216,note_off,,,,,96,0,4,,,,,3,,,52,0
117216,note_off,,,,,96,0,3,,,,,2,,,56,0
117312,note_on,,,,,96,0,2,,,,,1,,,61,96
117312,note_off,,,,,192,0,1,,,,,0,,,64,0
117312,note_on,,,,,0,0,1,,,,,0,,,73,103
117408,note_on,,,,,0,0,2,,,,,1,,,62,96
117408,note_off,,,,,96,0,2,,,,,1,,,61,0
117408,note_on,,,,,0,0,1,,,,,0,,,74,103
117408,note_off,,,,,96,0,1,,,,,0,,,73,0
117504,note_off,,,,,96,0,1,,,,,0,,,74,0
117504,note_on,,,,,288,0,4,,,,,3,,,45,78
117504,note_off,,,,,96,0,2,,,,,1,,,62,0
117504,note_on,,,,,0,0,2,,,,,1,,,64,96
117504,note_on,,,,,288,0,3,,,,,2,,,49,87
117504,note_on,,,,,0,0,1,,,,,0,,,76,103
117600,note_off,,,,,96,0,2,,,,,1,,,64,0
117600,note_on,,,,,0,0,1,,,,,0,,,74,103
117600,note_off,,,,,96,0,1,,,,,0,,,76,0
117600,note_on,,,,,0,0,2,,,,,1,,,62,96
117696,note_off,,,,,192,0,3,,,,,2,,,49,0
117696,note_on,,,,,0,0,2,,,,,1,,,61,96
117696,note_off,,,,,192,0,4,,,,,3,,,45,0
117696,note_on,,,,,0,0,4,,,,,3,,,47,78
117696,note_off,,,,,96,0,2,,,,,1,,,62,0
117696,note_on,,,,,0,0,3,,,,,2,,,50,87
117696,note_on,,,,,0,0,1,,,,,0,,,73,103
117696,note_off,,,,,96,0,1,,,,,0,,,74,0
117792,note_off,,,,,96,0,1,,,,,0,,,73,0
117792,note_on,,,,,0,0,2,,,,,1,,,59,96
117792,note_off,,,,,96,0,2,,,,,1,,,61,0
117792,note_on,,,,,0,0,1,,,,,0,,,71,103
117888,note_off,,,,,96,0,1,,,,,0,,,71,0
117888,note_off,,,,,192,0,4,,,,,3,,,47,0
117888,note_on,,,,,0,0,4,,,,,3,,,49,78
117888,note_on,,,,,0,0,1,,,,,0,,,69,103
117888,note_on,,,,,0,0,3,,,,,2,,,52,87
117888,note_off,,,,,192,0,3,,,,,2,,,50,0
117888,note_off,,,,,96,0,2,,,,,1,,,59,0
117888,note_on,,,,,0,0,2,,,,,1,,,57,96
117984,note_off,,,,,96,0,2,,,,,1,,,57,0
117984,note_off,,,,,96,0,1,,,,,0,,,69,0
117984,note_on,,,,,0,0,1,,,,,0,,,71,103
117984,note_on,,,,,0,0,2,,,,,1,,,59,96
118080,note_on,,,,,0,0,1,,,,,0,,,69,103
118080,note_off,,,,,96,0,1,,,,,0,,,71,0
118080,note_on,,,,,0,0,2,,,,,1,,,57,96
118080,note_off,,,,,96,0,2,,,,,1,,,59,0
118080,note_off,,,,,192,0,3,,,,,2,,,52,0
118080,note_off,,,,,192,0,4,,,,,3,,,49,0
118176,note_off,,,,,96,0,1,,,,,0,,,69,0
118176,note_on,,,,,0,0,2,,,,,1,,,68,96
118176,note_on,,,,,0,0,1,,,,,0,,,68,103
118176,note_off,,,,,96,0,2,,,,,1,,,57,0
118272,note_on,,,,,192,0,3,,,,,2,,,54,87
118272,note_off,,,,,96,0,2,,,,,1,,,68,0
118272,note_on,,,,,192,0,4,,,,,3,,,50,78
118272,note_on,,,,,0,0,1,,,,,0,,,66,103
118272,note_off,,,,,96,0,1,,,,,0,,,68,0
118272,note_on,,,,,0,0,2,,,,,1,,,66,96
118368,note_off,,,,,96,0,2,,,,,1,,,66,0
118368,note_off,,,,,96,0,1,,,,,0,,,66,0
118464,note_on,,,,,96,0,2,,,,,1,,,59,96
118464,note_on,,,,,96,0,1,,,,,0,,,71,103
118464,note_off,,,,,192,0,4,,,,,3,,,50,0
118464,note_on,,,,,0,0,4,,,,,3,,,52,78
118464,note_on,,,,,0,0,3,,,,,2,,,56,87
118464,note_off,,,,,192,0,3,,,,,2,,,54,0
118560,note_off,,,,,96,0,3,,,,,2,,,56,0
118560,note_on,,,,,0,0,3,,,,,2,,,57,87
118560,note_on,,,,,0,0,4,,,,,3,,,54,78
118560,note_off,,,,,96,0,4,,,,,3,,,52,0
118656,note_on,,,,,0,0,4,,,,,3,,,56,78
118656,note_off,,,,,96,0,4,,,,,3,,,54,0
118656,note_off,,,,,96,0,3,,,,,2,,,57,0
118656,note_on,,,,,0,0,3,,,,,2,,,59,87
118848,note_off,,,,,192,0,3,,,,,2,,,59,0
118848,note_on,,,,,0,0,3,,,,,2,,,59,87
118848,note_on,,,,,0,0,1,,,,,0,,,68,103
118848,note_on,,,,,0,0,4,,,,,3,,,52,78
118848,note_off,,,,,192,0,4,,,,,3,,,56,0
118848,note_off,,,,,384,0,1,,,,,0,,,71,0
118848,note_on,,,,,0,0,2,,,,,1,,,56,96
118848,note_off,,,,,384,0,2,,,,,1,,,59,0
118944,note_off,,,,,96,0,4,,,,,3,,,52,0
118944,note_off,,,,,96,0,3,,,,,2,,,59,0
119040,note_on,,,,,96,0,4,,,,,3,,,54,78
119040,note_off,,,,,192,0,1,,,,,0,,,68,0
119040,note_on,,,,,96,0,3,,,,,2,,,57,87
119040,note_off,,,,,192,0,2,,,,,1,,,56,0
119040,note_on,,,,,0,0,2,,,,,1,,,57,96
119040,note_on,,,,,0,0,1,,,,,0,,,69,103
119136,note_off,,,,,96,0,2,,,,,1,,,57,0
119136,note_off,,,,,96,0,1,,,,,0,,,69,0
119232,note_on,,,,,0,0,3,,,,,2,,,59,87
119232,note_off,,,,,192,0,3,,,,,2,,,57,0
119232,note_on,,,,,96,0,2,,,,,1,,,62,96
119232,note_off,,,,,192,0,4,,,,,3,,,54,0
119232,note_on,,,,,0,0,4,,,,,3,,,56,78
119232,note_on,,,,,96,0,1,,,,,0,,,74,103
119328,note_on,,,,,0,0,3,,,,,2,,,61,87
119328,note_off,,,,,96,0,3,,,,,2,,,59,0
119328,note_off,,,,,96,0,4,,,,,3,,,56,0
119328,note_on,,,,,0,0,4,,,,,3,,,57,78
119424,note_on,,,,,0,0,3,,,,,2,,,62,87
119424,note_off,,,,,96,0,3,,,,,2,,,61,0
119424,note_on,,,,,0,0,4,,,,,3,,,59,78
119424,note_off,,,,,96,0,4,,,,,3,,,57,0
119616,note_on,,,,,0,0,2,,,,,1,,,59,96
119616,note_off,,,,,384,0,1,,,,,0,,,74,0
119616,note_off,,,,,192,0,4,,,,,3,,,59,0
119616,note_on,,,,,0,0,4,,,,,3,,,56,78
119616,note_off,,,,,192,0,3,,,,,2,,,62,0
119616,note_on,,,,,0,0,3,,,,,2,,,62,87
119616,note_off,,,,,384,0,2,,,,,1,,,62,0
119616,note_on,,,,,0,0,1,,,,,0,,,71,103
119712,note_off,,,,,96,0,3,,,,,2,,,62,0
119712,note_off,,,,,96,0,4,,,,,3,,,56,0
119808,note_on,,,,,0,0,1,,,,,0,,,73,103
119808,note_on,,,,,0,0,2,,,,,1,,,61,96
119808,note_off,,,,,192,0,2,,,,,1,,,59,0
119808,note_on,,,,,96,0,3,,,,,2,,,61,87
119808,note_off,,,,,192,0,1,,,,,0,,,71,0
119808,note_on,,,,,96,0,4,,,,,3,,,57,78
119904,note_off,,,,,96,0,1,,,,,0,,,73,0
119904,note_off,,,,,96,0,2,,,,,1,,,61,0
120000,note_on,,,,,96,0,2,,,,,1,,,66,96
120000,note_off,,,,,192,0,4,,,,,3,,,57,0
120000,note_on,,,,,0,0,4,,,,,3,,,54,78
120000,note_off,,,,,192,0,3,,,,,2,,,61,0
120000,note_on,,,,,0,0,3,,,,,2,,,57,87
120000,note_on,,,,,96,0,1,,,,,0,,,78,103
120096,note_on,,,,,0,0,3,,,,,2,,,56,87
120096,note_off,,,,,96,0,4,,,,,3,,,54,0
120096,note_on,,,,,0,0,4,,,,,3,,,52,78
120096,note_off,,,,,96,0,3,,,,,2,,,57,0
120192,note_off,,,,,96,0,4,,,,,3,,,52,0
120192,note_on,,,,,0,0,4,,,,,3,,,50,78
120192,note_off,,,,,96,0,3,,,,,2,,,56,0
120192,note_on,,,,,0,0,3,,,,,2,,,54,87
120384,note_off,,,,,384,0,1,,,,,0,,,78,0
120384,note_on,,,,,0,0,1,,,,,0,,,75,103
120384,note_on,,,,,0,0,2,,,,,1,,,63,96
120384,note_off,,,,,192,0,3,,,,,2,,,54,0
120384,note_off,,,,,384,0,2,,,,,1,,,66,0
120384,note_off,,,,,192,0,4,,,,,3,,,50,0
120384,note_on,,,,,0,0,4,,,,,3,,,53,78
120384,note_on,,,,,0,0,3,,,,,2,,,57,87
120480,note_off,,,,,96,0,3,,,,,2,,,57,0
120480,note_off,,,,,96,0,4,,,,,3,,,53,0
120576,note_on,,,,,96,0,3,,,,,2,,,61,87
120576,note_off,,,,,192,0,1,,,,,0,,,75,0
120576,note_on,,,,,96,0,4,,,,,3,,,52,78
120576,note_on,,,,,0,0,1,,,,,0,,,75,103
120576,note_on,,,,,0,0,2,,,,,1,,,64,96
120576,note_off,,,,,192,0,2,,,,,1,,,63,0
120672,note_off,,,,,96,0,1,,,,,0,,,75,0
120672,note_on,,,,,0,0,1,,,,,0,,,76,103
120768,note_off,,,,,96,0,1,,,,,0,,,76,0
120768,note_on,,,,,0,0,3,,,,,2,,,64,87
120768,note_off,,,,,192,0,2,,,,,1,,,64,0
120768,note_on,,,,,0,0,2,,,,,1,,,69,96
120768,note_off,,,,,192,0,3,,,,,2,,,61,0
120768,note_on,,,,,0,0,1,,,,,0,,,74,103
120864,note_off,,,,,96,0,1,,,,,0,,,74,0
120864,note_on,,,,,0,0,1,,,,,0,,,73,103
120960,note_on,,,,,0,0,2,,,,,1,,,68,96
120960,note_off,,,,,192,0,2,,,,,1,,,69,0
120960,note_on,,,,,0,0,1,,,,,0,,,71,103
120960,note_off,,,,,96,0,1,,,,,0,,,73,0
120960,note_off,,,,,192,0,3,,,,,2,,,64,0
120960,note_on,,,,,0,0,4,,,,,3,,,52,78
120960,note_off,,,,,384,0,4,,,,,3,,,52,0
120960,note_on,,,,,0,0,3,,,,,2,,,62,87
121056,note_off,,,,,96,0,1,,,,,0,,,71,0
121056,note_on,,,,,0,0,1,,,,,0,,,73,103
121152,note_on,,,,,0,0,2,,,,,1,,,62,96
121152,note_off,,,,,192,0,2,,,,,1,,,68,0
121152,note_on,,,,,0,0,3,,,,,2,,,56,87
121152,note_off,,,,,192,0,3,,,,,2,,,62,0
121152,note_off,,,,,96,0,1,,,,,0,,,73,0
121152,note_on,,,,,0,0,1,,,,,0,,,74,103
121248,note_off,,,,,96,0,1,,,,,0,,,74,0
121248,note_on,,,,,0,0,1,,,,,0,,,71,103
121344,note_off,,,,,192,0,2,,,,,1,,,62,0
121344,note_on,,,,,0,0,2,,,,,1,,,61,96
121344,note_off,,,,,96,0,1,,,,,0,,,71,0
121344,note_on,,,,,0,0,1,,,,,0,,,69,103
121344,note_off,,,,,384,0,4,,,,,3,,,52,0
121344,note_off,,,,,192,0,3,,,,,2,,,56,0
121344,note_on,,,,,0,0,3,,,,,2,,,57,87
121344,note_on,,,,,0,0,4,,,,,3,,,45,78
121440,note_off,,,,,96,0,4,,,,,3,,,45,0
121440,note_off,,,,,96,0,3,,,,,2,,,57,0
121440,note_off,,,,,96,0,1,,,,,0,,,69,0
121440,note_off,,,,,96,0,2,,,,,1,,,61,0
121536,note_on,,,,,96,0,3,,,,,2,,,61,87
121536,note_on,,,,,96,0,4,,,,,3,,,45,78
121536,note_on,,,,,96,0,1,,,,,0,,,81,103
121536,note_on,,,,,96,0,2,,,,,1,,,64,96
121632,note_off,,,,,96,0,3,,,,,2,,,61,0
121632,note_off,,,,,96,0,2,,,,,1,,,64,0
121632,note_off,,,,,96,0,4,,,,,3,,,45,0
121632,note_off,,,,,96,0,1,,,,,0,,,81,0
121728,note_on,,,,,96,0,3,,,,,2,,,57,87
121728,note_on,,,,,96,0,2,,,,,1,,,61,96
121728,note_on,,,,,96,0,4,,,,,3,,,45,78
121824,note_off,,,,,96,0,3,,,,,2,,,57,0
121824,note_off,,,,,96,0,4,,,,,3,,,45,0
121824,note_off,,,,,96,0,2,,,,,1,,,61,0
121920,note_on,,,,,288,0,1,,,,,0,,,74,103
121920,note_on,,,,,96,0,3,,,,,2,,,59,87
122016,note_on,,,,,0,0,1,,,,,0,,,76,103
122016,note_off,,,,,96,0,1,,,,,0,,,74,0
122016,note_off,,,,,96,0,3,,,,,2,,,59,0
122016,note_on,,,,,0,0,3,,,,,2,,,61,87
122112,note_on,,,,,0,0,1,,,,,0,,,78,103
122112,note_off,,,,,96,0,1,,,,,0,,,76,0
122112,note_on,,,,,0,0,3,,,,,2,,,62,87
122112,note_off,,,,,96,0,3,,,,,2,,,61,0
122208,note_off,,,,,96,0,1,,,,,0,,,78,0
122208,note_on,,,,,0,0,1,,,,,0,,,76,103
122208,note_on,,,,,0,0,3,,,,,2,,,61,87
122208,note_off,,,,,96,0,3,,,,,2,,,62,0
122304,note_off,,,,,96,0,1,,,,,0,,,76,0
122304,note_off,,,,,96,0,3,,,,,2,,,61,0
122304,note_on,,,,,0,0,1,,,,,0,,,74,103
122304,note_on,,,,,0,0,3,,,,,2,,,59,87
122400,note_off,,,,,96,0,3,,,,,2,,,59,0
122400,note_on,,,,,0,0,1,,,,,0,,,73,103
122400,note_off,,,,,96,0,1,,,,,0,,,74,0
122400,note_on,,,,,0,0,3,,,,,2,,,57,87
122496,note_off,,,,,96,0,3,,,,,2,,,57,0
122496,note_off,,,,,96,0,1,,,,,0,,,73,0
122496,note_on,,,,,0,0,1,,,,,0,,,71,103
122496,note_on,,,,,0,0,3,,,,,2,,,56,87
122592,note_off,,,,,96,0,3,,,,,2,,,56,0
122592,note_on,,,,,0,0,1,,,,,0,,,73,103
122592,note_on,,,,,0,0,3,,,,,2,,,57,87
122592,note_off,,,,,96,0,1,,,,,0,,,71,0
122688,note_on,,,,,864,0,2,,,,,1,,,62,96
122688,note_on,,,,,864,0,4,,,,,3,,,47,78
122688,note_on,,,,,0,0,1,,,,,0,,,71,103
122688,note_on,,,,,0,0,3,,,,,2,,,56,87
122688,note_off,,,,,96,0,3,,,,,2,,,57,0
122688,note_off,,,,,96,0,1,,,,,0,,,73,0
122784,note_off,,,,,96,0,1,,,,,0,,,71,0
122784,note_on,,,,,0,0,1,,,,,0,,,69,103
122784,note_off,,,,,96,0,3,,,,,2,,,56,0
122784,note_on,,,,,0,0,2,,,,,1,,,64,96
122784,note_off,,,,,96,0,2,,,,,1,,,62,0
122784,note_on,,,,,0,0,4,,,,,3,,,49,78
122784,note_off,,,,,96,0,4,,,,,3,,,47,0
122784,note_on,,,,,0,0,3,,,,,2,,,54,87
122880,note_off,,,,,96,0,2,,,,,1,,,64,0
122880,note_on,,,,,0,0,3,,,,,2,,,52,87
122880,note_off,,,,,96,0,3,,,,,2,,,54,0
122880,note_on,,,,,0,0,1,,,,,0,,,68,103
122880,note_off,,,,,96,0,1,,,,,0,,,69,0
122880,note_on,,,,,0,0,4,,,,,3,,,50,78
122880,note_off,,,,,96,0,4,,,,,3,,,49,0
122880,note_on,,,,,0,0,2,,,,,1,,,66,96
122976,note_off,,,,,96,0,2,,,,,1,,,66,0
122976,note_on,,,,,0,0,2,,,,,1,,,64,96
122976,note_off,,,,,96,0,3,,,,,2,,,52,0
122976,note_off,,,,,96,0,1,,,,,0,,,68,0
122976,note_off,,,,,96,0,4,,,,,3,,,50,0
122976,note_on,,,,,0,0,4,,,,,3,,,49,78
123072,note_off,,,,,96,0,4,,,,,3,,,49,0
123072,note_on,,,,,0,0,4,,,,,3,,,47,78
123072,note_on,,,,,96,0,1,,,,,0,,,76,103
123072,note_off,,,,,96,0,2,,,,,1,,,64,0
123072,note_on,,,,,0,0,2,,,,,1,,,62,96
123072,note_on,,,,,96,0,3,,,,,2,,,52,87
123168,note_off,,,,,96,0,4,,,,,3,,,47,0
123168,note_on,,,,,0,0,4,,,,,3,,,45,78
123168,note_on,,,,,0,0,2,,,,,1,,,61,96
123168,note_off,,,,,96,0,2,,,,,1,,,62,0
123264,note_on,,,,,0,0,4,,,,,3,,,44,78
123264,note_off,,,,,96,0,2,,,,,1,,,61,0
123264,note_on,,,,,0,0,2,,,,,1,,,59,96
123264,note_off,,,,,96,0,4,,,,,3,,,45,0
123360,note_off,,,,,96,0,4,,,,,3,,,44,0
123360,note_off,,,,,96,0,2,,,,,1,,,59,0
123360,note_on,,,,,0,0,2,,,,,1,,,61,96
123360,note_on,,,,,0,0,4,,,,,3,,,45,78
123456,note_off,,,,,96,0,4,,,,,3,,,45,0
123456,note_on,,,,,0,0,3,,,,,2,,,59,87
123456,note_off,,,,,384,0,3,,,,,2,,,52,0
123456,note_on,,,,,0,0,1,,,,,0,,,74,103
123456,note_on,,,,,0,0,2,,,,,1,,,59,96
123456,note_off,,,,,384,0,1,,,,,0,,,76,0
123456,note_on,,,,,0,0,4,,,,,3,,,44,78
123456,note_off,,,,,96,0,2,,,,,1,,,61,0
123552,note_off,,,,,96,0,2,,,,,1,,,59,0
123552,note_on,,,,,0,0,2,,,,,1,,,57,96
123552,note_on,,,,,0,0,4,,,,,3,,,42,78
123552,note_off,,,,,96,0,3,,,,,2,,,59,0
123552,note_on,,,,,0,0,3,,,,,2,,,61,87
123552,note_off,,,,,96,0,4,,,,,3,,,44,0
123552,note_off,,,,,96,0,1,,,,,0,,,74,0
123552,note_on,,,,,0,0,1,,,,,0,,,76,103
123648,note_off,,,,,96,0,3,,,,,2,,,61,0
123648,note_off,,,,,96,0,4,,,,,3,,,42,0
123648,note_on,,,,,0,0,4,,,,,3,,,40,78
123648,note_on,,,,,0,0,2,,,,,1,,,56,96
123648,note_off,,,,,96,0,1,,,,,0,,,76,0
123648,note_on,,,,,0,0,3,,,,,2,,,62,87
123648,note_on,,,,,0,0,1,,,,,0,,,78,103
123648,note_off,,,,,96,0,2,,,,,1,,,57,0
123744,note_on,,,,,0,0,3,,,,,2,,,61,87
123744,note_off,,,,,96,0,3,,,,,2,,,62,0
123744,note_off,,,,,96,0,1,,,,,0,,,78,0
123744,note_off,,,,,96,0,2,,,,,1,,,56,0
123744,note_on,,,,,0,0,1,,,,,0,,,76,103
123744,note_off,,,,,96,0,4,,,,,3,,,40,0
123840,note_on,,,,,0,0,1,,,,,0,,,74,103
123840,note_off,,,,,96,0,3,,,,,2,,,61,0
123840,note_on,,,,,0,0,3,,,,,2,,,59,87
123840,note_on,,,,,96,0,2,,,,,1,,,64,96
123840,note_on,,,,,96,0,4,,,,,3,,,40,78
123840,note_off,,,,,96,0,1,,,,,0,,,76,0
123936,note_on,,,,,0,0,1,,,,,0,,,73,103
123936,note_off,,,,,96,0,1,,,,,0,,,74,0
123936,note_off,,,,,96,0,3,,,,,2,,,59,0
123936,note_on,,,,,0,0,3,,,,,2,,,57,87
124032,note_on,,,,,0,0,3,,,,,2,,,56,87
124032,note_off,,,,,96,0,1,,,,,0,,,73,0
124032,note_off,,,,,96,0,3,,,,,2,,,57,0
124032,note_on,,,,,0,0,1,,,,,0,,,71,103
124128,note_on,,,,,0,0,1,,,,,0,,,73,103
124128,note_off,,,,,96,0,1,,,,,0,,,71,0
124128,note_on,,,,,0,0,3,,,,,2,,,57,87
124128,note_off,,,,,96,0,3,,,,,2,,,56,0
124224,note_off,,,,,96,0,3,,,,,2,,,57,0
124224,note_on,,,,,0,0,3,,,,,2,,,56,87
124224,note_off,,,,,384,0,2,,,,,1,,,64,0
124224,note_on,,,,,0,0,2,,,,,1,,,62,96
124224,note_off,,,,,96,0,1,,,,,0,,,73,0
124224,note_on,,,,,0,0,1,,,,,0,,,71,103
124224,note_off,,,,,384,0,4,,,,,3,,,40,0
124224,note_on,,,,,0,0,4,,,,,3,,,47,78
124320,note_off,,,,,96,0,1,,,,,0,,,71,0
124320,note_on,,,,,0,0,1,,,,,0,,,69,103
124320,note_off,,,,,96,0,2,,,,,1,,,62,0
124320,note_on,,,,,0,0,2,,,,,1,,,64,96
124320,note_on,,,,,0,0,4,,,,,3,,,49,78
124320,note_off,,,,,96,0,4,,,,,3,,,47,0
124320,note_on,,,,,0,0,3,,,,,2,,,54,87
124320,note_off,,,,,96,0,3,,,,,2,,,56,0
124416,note_off,,,,,96,0,2,,,,,1,,,64,0
124416,note_on,,,,,0,0,1,,,,,0,,,68,103
124416,note_off,,,,,96,0,1,,,,,0,,,69,0
124416,note_on,,,,,0,0,3,,,,,2,,,52,87
124416,note_on,,,,,0,0,2,,,,,1,,,66,96
124416,note_off,,,,,96,0,3,,,,,2,,,54,0
124416,note_off,,,,,96,0,4,,,,,3,,,49,0
124416,note_on,,,,,0,0,4,,,,,3,,,50,78
124512,note_off,,,,,96,0,3,,,,,2,,,52,0
124512,note_off,,,,,96,0,4,,,,,3,,,50,0
124512,note_off,,,,,96,0,1,,,,,0,,,68,0
124512,note_off,,,,,96,0,2,,,,,1,,,66,0
124512,note_on,,,,,0,0,2,,,,,1,,,64,96
124512,note_on,,,,,0,0,4,,,,,3,,,49,78
124608,note_on,,,,,96,0,3,,,,,2,,,52,87
124608,note_on,,,,,0,0,2,,,,,1,,,62,96
124608,note_off,,,,,96,0,2,,,,,1,,,64,0
124608,note_off,,,,,96,0,4,,,,,3,,,49,0
124608,note_on,,,,,0,0,4,,,,,3,,,47,78
124608,note_on,,,,,96,0,1,,,,,0,,,76,103
124704,note_off,,,,,96,0,2,,,,,1,,,62,0
124704,note_off,,,,,96,0,4,,,,,3,,,47,0
124704,note_on,,,,,0,0,4,,,,,3,,,45,78
124704,note_on,,,,,0,0,2,,,,,1,,,61,96
124800,note_off,,,,,96,0,2,,,,,1,,,61,0
124800,note_on,,,,,0,0,2,,,,,1,,,59,96
124800,note_off,,,,,96,0,4,,,,,3,,,45,0
124800,note_on,,,,,0,0,4,,,,,3,,,44,78
124896,note_off,,,,,96,0,4,,,,,3,,,44,0
124896,note_on,,,,,0,0,4,,,,,3,,,45,78
124896,note_off,,,,,96,0,2,,,,,1,,,59,0
124896,note_on,,,,,0,0,2,,,,,1,,,61,96
124992,note_off,,,,,96,0,4,,,,,3,,,45,0
124992,note_on,,,,,0,0,4,,,,,3,,,44,78
124992,note_off,,,,,384,0,3,,,,,2,,,52,0
124992,note_off,,,,,384,0,1,,,,,0,,,76,0
124992,note_on,,,,,0,0,2,,,,,1,,,59,96
124992,note_off,,,,,96,0,2,,,,,1,,,61,0
124992,note_on,,,,,0,0,1,,,,,0,,,71,103
125088,note_off,,,,,96,0,1,,,,,0,,,71,0
125088,note_on,,,,,0,0,2,,,,,1,,,57,96
125088,note_on,,,,,0,0,4,,,,,3,,,42,78
125088,note_off,,,,,96,0,4,,,,,3,,,44,0
125088,note_on,,,,,0,0,1,,,,,0,,,75,103
125088,note_off,,,,,96,0,2,,,,,1,,,59,0
125184,note_off,,,,,96,0,4,,,,,3,,,42,0
125184,note_on,,,,,192,0,3,,,,,2,,,64,87
125184,note_on,,,,,0,0,4,,,,,3,,,40,78
125184,note_on,,,,,0,0,1,,,,,0,,,76,103
125184,note_off,,,,,96,0,1,,,,,0,,,75,0
125184,note_off,,,,,96,0,2,,,,,1,,,57,0
125184,note_on,,,,,0,0,2,,,,,1,,,56,96
125280,note_off,,,,,96,0,4,,,,,3,,,40,0
125280,note_off,,,,,96,0,2,,,,,1,,,56,0
125280,note_off,,,,,96,0,3,,,,,2,,,64,0
125280,note_on,,,,,0,0,1,,,,,0,,,78,103
125280,note_off,,,,,96,0,1,,,,,0,,,76,0
125376,note_on,,,,,96,0,3,,,,,2,,,61,87
125376,note_on,,,,,96,0,2,,,,,1,,,64,96
125376,note_on,,,,,96,0,4,,,,,3,,,40,78
125376,note_on,,,,,0,0,1,,,,,0,,,76,103
125376,note_off,,,,,96,0,1,,,,,0,,,78,0
125472,note_on,,,,,0,0,1,,,,,0,,,74,103
125472,note_off,,,,,96,0,1,,,,,0,,,76,0
125568,note_on,,,,,0,0,2,,,,,1,,,67,96
125568,note_off,,,,,192,0,2,,,,,1,,,64,0
125568,note_on,,,,,0,0,3,,,,,2,,,64,87
125568,note_off,,,,,192,0,3,,,,,2,,,61,0
125568,note_off,,,,,96,0,1,,,,,0,,,74,0
125568,note_on,,,,,0,0,1,,,,,0,,,73,103
125664,note_off,,,,,96,0,1,,,,,0,,,73,0
125664,note_on,,,,,0,0,1,,,,,0,,,74,103
125760,note_on,,,,,0,0,1,,,,,0,,,76,103
125760,note_off,,,,,96,0,1,,,,,0,,,74,0
125760,note_on,,,,,0,0,2,,,,,1,,,58,96
125760,note_off,,,,,192,0,2,,,,,1,,,67,0
125760,note_off,,,,,192,0,3,,,,,2,,,64,0
125760,note_on,,,,,0,0,3,,,,,2,,,67,87
125856,note_on,,,,,0,0,1,,,,,0,,,73,103
125856,note_off,,,,,96,0,1,,,,,0,,,76,0
125952,note_off,,,,,192,0,3,,,,,2,,,67,0
125952,note_on,,,,,0,0,1,,,,,0,,,74,103
125952,note_off,,,,,576,0,4,,,,,3,,,40,0
125952,note_off,,,,,96,0,1,,,,,0,,,73,0
125952,note_on,,,,,0,0,3,,,,,2,,,66,87
125952,note_on,,,,,0,0,4,,,,,3,,,40,78
125952,note_off,,,,,192,0,2,,,,,1,,,58,0
125952,note_on,,,,,0,0,2,,,,,1,,,59,96
126048,note_on,,,,,0,0,1,,,,,0,,,76,103
126048,note_off,,,,,96,0,4,,,,,3,,,40,0
126048,note_off,,,,,96,0,3,,,,,2,,,66,0
126048,note_off,,,,,96,0,2,,,,,1,,,59,0
126048,note_off,,,,,96,0,1,,,,,0,,,74,0
126144,note_on,,,,,96,0,4,,,,,3,,,40,78
126144,note_on,,,,,0,0,1,,,,,0,,,74,103
126144,note_off,,,,,96,0,1,,,,,0,,,76,0
126144,note_on,,,,,96,0,3,,,,,2,,,59,87
126144,note_on,,,,,96,0,2,,,,,1,,,62,96
126240,note_off,,,,,96,0,1,,,,,0,,,74,0
126240,note_on,,,,,0,0,1,,,,,0,,,73,103
126336,note_on,,,,,0,0,2,,,,,1,,,65,96
126336,note_off,,,,,192,0,3,,,,,2,,,59,0
126336,note_on,,,,,0,0,3,,,,,2,,,62,87
126336,note_off,,,,,96,0,1,,,,,0,,,73,0
126336,note_off,,,,,192,0,2,,,,,1,,,62,0
126336,note_on,,,,,0,0,1,,,,,0,,,71,103
126432,note_off,,,,,96,0,1,,,,,0,,,71,0
126432,note_on,,,,,0,0,1,,,,,0,,,73,103
126528,note_on,,,,,0,0,2,,,,,1,,,56,96
126528,note_off,,,,,96,0,1,,,,,0,,,73,0
126528,note_off,,,,,192,0,3,,,,,2,,,62,0
126528,note_on,,,,,0,0,3,,,,,2,,,65,87
126528,note_off,,,,,192,0,2,,,,,1,,,65,0
126528,note_on,,,,,0,0,1,,,,,0,,,74,103
126624,note_off,,,,,96,0,1,,,,,0,,,74,0
126624,note_on,,,,,0,0,1,,,,,0,,,71,103
126720,note_on,,,,,0,0,4,,,,,3,,,40,78
126720,note_on,,,,,0,0,2,,,,,1,,,57,96
126720,note_on,,,,,0,0,3,,,,,2,,,64,87
126720,note_on,,,,,0,0,1,,,,,0,,,73,103
126720,note_off,,,,,96,0,1,,,,,0,,,71,0
126720,note_off,,,,,192,0,2,,,,,1,,,56,0
126720,note_off,,,,,192,0,3,,,,,2,,,65,0
126720,note_off,,,,,576,0,4,,,,,3,,,40,0
126816,note_off,,,,,96,0,4,,,,,3,,,40,0
126816,note_off,,,,,96,0,2,,,,,1,,,57,0
126816,note_off,,,,,96,0,1,,,,,0,,,73,0
126816,note_off,,,,,96,0,3,,,,,2,,,64,0
126816,note_on,,,,,0,0,1,,,,,0,,,74,103
126912,note_on,,,,,96,0,2,,,,,1,,,57,96
126912,note_off,,,,,96,0,1,,,,,0,,,74,0
126912,note_on,,,,,0,0,1,,,,,0,,,73,103
126912,note_on,,,,,96,0,3,,,,,2,,,57,87
126912,note_on,,,,,96,0,4,,,,,3,,,40,78
127008,note_off,,,,,96,0,1,,,,,0,,,73,0
127008,note_on,,,,,0,0,1,,,,,0,,,71,103
127104,note_on,,,,,0,0,3,,,,,2,,,54,87
127104,note_off,,,,,192,0,3,,,,,2,,,57,0
127104,note_off,,,,,192,0,2,,,,,1,,,57,0
127104,note_on,,,,,0,0,1,,,,,0,,,69,103
127104,note_off,,,,,96,0,1,,,,,0,,,71,0
127104,note_on,,,,,0,0,2,,,,,1,,,63,96
127200,note_on,,,,,0,0,1,,,,,0,,,71,103
127200,note_off,,,,,96,0,1,,,,,0,,,69,0
127296,note_off,,,,,192,0,2,,,,,1,,,63,0
127296,note_on,,,,,0,0,1,,,,,0,,,73,103
127296,note_off,,,,,96,0,1,,,,,0,,,71,0
127296,note_off,,,,,192,0,3,,,,,2,,,54,0
127296,note_on,,,,,0,0,3,,,,,2,,,63,87
127296,note_on,,,,,0,0,2,,,,,1,,,66,96
127392,note_on,,,,,0,0,1,,,,,0,,,69,103
127392,note_off,,,,,96,0,1,,,,,0,,,73,0
127488,note_off,,,,,192,0,2,,,,,1,,,66,0
127488,note_on,,,,,0,0,1,,,,,0,,,68,103
127488,note_on,,,,,0,0,4,,,,,3,,,40,78
127488,note_off,,,,,576,0,4,,,,,3,,,40,0
127488,note_off,,,,,96,0,1,,,,,0,,,69,0
127488,note_on,,,,,0,0,2,,,,,1,,,64,96
127488,note_off,,,,,192,0,3,,,,,2,,,63,0
127488,note_on,,,,,0,0,3,,,,,2,,,64,87
127584,note_off,,,,,96,0,4,,,,,3,,,40,0
127584,note_off,,,,,96,0,2,,,,,1,,,64,0
127584,note_off,,,,,96,0,3,,,,,2,,,64,0
127584,note_off,,,,,96,0,1,,,,,0,,,68,0
127584,note_on,,,,,0,0,1,,,,,0,,,69,103
127680,note_on,,,,,96,0,3,,,,,2,,,57,87
127680,note_on,,,,,0,0,1,,,,,0,,,66,103
127680,note_off,,,,,96,0,1,,,,,0,,,69,0
127680,note_on,,,,,96,0,4,,,,,3,,,47,78
127680,note_on,,,,,96,0,2,,,,,1,,,63,96
127776,note_off,,,,,96,0,3,,,,,2,,,57,0
127776,note_off,,,,,96,0,1,,,,,0,,,66,0
127776,note_on,,,,,0,0,1,,,,,0,,,68,103
127776,note_off,,,,,96,0,2,,,,,1,,,63,0
127776,note_off,,,,,96,0,4,,,,,3,,,47,0
127872,note_off,,,,,96,0,1,,,,,0,,,68,0
127872,note_on,,,,,96,0,4,,,,,3,,,52,78
127872,note_on,,,,,0,0,1,,,,,0,,,64,103
127872,note_on,,,,,96,0,2,,,,,1,,,64,96
127872,note_on,,,,,96,0,3,,,,,2,,,56,87
127968,note_off,,,,,96,0,3,,,,,2,,,56,0
127968,note_off,,,,,96,0,2,,,,,1,,,64,0
127968,note_off,,,,,96,0,4,,,,,3,,,52,0
128064,note_on,,,,,0,0,1,,,,,0,,,73,103
128064,note_off,,,,,192,0,1,,,,,0,,,64,0
128064,note_on,,,,,96,0,2,,,,,1,,,61,96
128160,note_off,,,,,96,0,2,,,,,1,,,61,0
128160,note_off,,,,,96,0,1,,,,,0,,,73,0
128160,note_on,,,,,0,0,1,,,,,0,,,74,103
128160,note_on,,,,,0,0,2,,,,,1,,,62,96
128256,note_on,,,,,288,0,4,,,,,3,,,45,78
128256,note_on,,,,,0,0,1,,,,,0,,,76,103
128256,note_on,,,,,288,0,3,,,,,2,,,49,87
128256,note_off,,,,,96,0,1,,,,,0,,,74,0
128256,note_off,,,,,96,0,2,,,,,1,,,62,0
128256,note_on,,,,,0,0,2,,,,,1,,,64,96
128352,note_off,,,,,96,0,2,,,,,1,,,64,0
128352,note_off,,,,,96,0,1,,,,,0,,,76,0
128352,note_on,,,,,0,0,1,,,,,0,,,74,103
128352,note_on,,,,,0,0,2,,,,,1,,,62,96
128448,note_off,,,,,96,0,1,,,,,0,,,74,0
128448,note_on,,,,,0,0,1,,,,,0,,,73,103
128448,note_on,,,,,0,0,3,,,,,2,,,50,87
128448,note_on,,,,,0,0,4,,,,,3,,,47,78
128448,note_off,,,,,192,0,4,,,,,3,,,45,0
128448,note_off,,,,,192,0,3,,,,,2,,,49,0
128448,note_off,,,,,96,0,2,,,,,1,,,62,0
128448,note_on,,,,,0,0,2,,,,,1,,,61,96
128544,note_on,,,,,0,0,2,,,,,1,,,59,96
128544,note_off,,,,,96,0,2,,,,,1,,,61,0
128544,note_on,,,,,0,0,1,,,,,0,,,71,103
128544,note_off,,,,,96,0,1,,,,,0,,,73,0
128640,note_on,,,,,0,0,2,,,,,1,,,57,96
128640,note_off,,,,,96,0,2,,,,,1,,,59,0
128640,note_on,,,,,0,0,1,,,,,0,,,69,103
128640,note_off,,,,,96,0,1,,,,,0,,,71,0
128640,note_on,,,,,0,0,3,,,,,2,,,52,87
128640,note_on,,,,,0,0,4,,,,,3,,,49,78
128640,note_off,,,,,192,0,4,,,,,3,,,47,0
128640,note_off,,,,,192,0,3,,,,,2,,,50,0
128736,note_on,,,,,0,0,2,,,,,1,,,59,96
128736,note_on,,,,,0,0,1,,,,,0,,,71,103
128736,note_off,,,,,96,0,2,,,,,1,,,57,0
128736,note_off,,,,,96,0,1,,,,,0,,,69,0
128832,note_off,,,,,96,0,1,,,,,0,,,71,0
128832,note_off,,,,,96,0,2,,,,,1,,,59,0
128832,note_on,,,,,0,0,1,,,,,0,,,69,103
128832,note_off,,,,,192,0,3,,,,,2,,,52,0
128832,note_off,,,,,192,0,4,,,,,3,,,49,0
128832,note_on,,,,,0,0,2,,,,,1,,,57,96
128928,note_off,,,,,96,0,2,,,,,1,,,57,0
128928,note_on,,,,,0,0,2,,,,,1,,,68,96
128928,note_on,,,,,0,0,1,,,,,0,,,68,103
128928,note_off,,,,,96,0,1,,,,,0,,,69,0
129024,note_on,,,,,192,0,4,,,,,3,,,50,78
129024,note_off,,,,,96,0,2,,,,,1,,,68,0
129024,note_on,,,,,0,0,2,,,,,1,,,66,96
129024,note_on,,,,,192,0,3,,,,,2,,,54,87
129024,note_on,,,,,0,0,1,,,,,0,,,66,103
129024,note_off,,,,,96,0,1,,,,,0,,,68,0
129120,note_off,,,,,96,0,1,,,,,0,,,66,0
129120,note_off,,,,,96,0,2,,,,,1,,,66,0
129216,note_on,,,,,0,0,4,,,,,3,,,52,78
129216,note_on,,,,,96,0,1,,,,,0,,,71,103
129216,note_on,,,,,96,0,2,,,,,1,,,59,96
129216,note_off,,,,,192,0,4,,,,,3,,,50,0
129216,note_off,,,,,192,0,3,,,,,2,,,54,0
129216,note_on,,,,,0,0,3,,,,,2,,,56,87
129312,note_on,,,,,0,0,4,,,,,3,,,54,78
129312,note_off,,,,,96,0,3,,,,,2,,,56,0
129312,note_off,,,,,96,0,4,,,,,3,,,52,0
129312,note_on,,,,,0,0,3,,,,,2,,,57,87
129408,note_off,,,,,96,0,3,,,,,2,,,57,0
129408,note_on,,,,,0,0,4,,,,,3,,,56,78
129408,note_on,,,,,0,0,3,,,,,2,,,59,87
129408,note_off,,,,,96,0,4,,,,,3,,,54,0
129600,note_off,,,,,192,0,4,,,,,3,,,56,0
129600,note_on,,,,,0,0,4,,,,,3,,,52,78
129600,note_on,,,,,0,0,1,,,,,0,,,68,103
129600,note_off,,,,,384,0,1,,,,,0,,,71,0
129600,note_off,,,,,384,0,2,,,,,1,,,59,0
129600,note_on,,,,,0,0,2,,,,,1,,,56,96
129600,note_on,,,,,0,0,3,,,,,2,,,59,87
129600,note_off,,,,,192,0,3,,,,,2,,,59,0
129696,note_off,,,,,96,0,3,,,,,2,,,59,0
129696,note_off,,,,,96,0,4,,,,,3,,,52,0
129792,note_on,,,,,96,0,3,,,,,2,,,57,87
129792,note_off,,,,,192,0,2,,,,,1,,,56,0
129792,note_on,,,,,0,0,2,,,,,1,,,57,96
129792,note_on,,,,,96,0,4,,,,,3,,,54,78
129792,note_on,,,,,0,0,1,,,,,0,,,69,103
129792,note_off,,,,,192,0,1,,,,,0,,,68,0
129888,note_off,,,,,96,0,2,,,,,1,,,57,0
129888,note_off,,,,,96,0,1,,,,,0,,,69,0
129984,note_on,,,,,0,0,4,,,,,3,,,56,78
129984,note_on,,,,,96,0,1,,,,,0,,,74,103
129984,note_off,,,,,192,0,3,,,,,2,,,57,0
129984,note_on,,,,,0,0,3,,,,,2,,,59,87
129984,note_off,,,,,192,0,4,,,,,3,,,54,0
129984,note_on,,,,,96,0,2,,,,,1,,,62,96
130080,note_off,,,,,96,0,4,,,,,3,,,56,0
130080,note_off,,,,,96,0,3,,,,,2,,,59,0
130080,note_on,,,,,0,0,3,,,,,2,,,61,87
130080,note_on,,,,,0,0,4,,,,,3,,,57,78
130176,note_off,,,,,96,0,3,,,,,2,,,61,0
130176,note_on,,,,,0,0,3,,,,,2,,,62,87
130176,note_off,,,,,96,0,4,,,,,3,,,57,0
130176,note_on,,,,,0,0,4,,,,,3,,,59,78
130368,note_on,,,,,0,0,2,,,,,1,,,59,96
130368,note_off,,,,,192,0,4,,,,,3,,,59,0
130368,note_on,,,,,0,0,4,,,,,3,,,56,78
130368,note_off,,,,,384,0,1,,,,,0,,,74,0
130368,note_on,,,,,0,0,3,,,,,2,,,62,87
130368,note_off,,,,,192,0,3,,,,,2,,,62,0
130368,note_off,,,,,384,0,2,,,,,1,,,62,0
130368,note_on,,,,,0,0,1,,,,,0,,,71,103
130464,note_off,,,,,96,0,3,,,,,2,,,62,0
130464,note_off,,,,,96,0,4,,,,,3,,,56,0
130560,note_off,,,,,192,0,1,,,,,0,,,71,0
130560,note_on,,,,,0,0,1,,,,,0,,,73,103
130560,note_on,,,,,96,0,3,,,,,2,,,61,87
130560,note_on,,,,,96,0,4,,,,,3,,,57,78
130560,note_off,,,,,192,0,2,,,,,1,,,59,0
130560,note_on,,,,,0,0,2,,,,,1,,,61,96
130656,note_off,,,,,96,0,2,,,,,1,,,61,0
130656,note_off,,,,,96,0,1,,,,,0,,,73,0
130752,note_on,,,,,0,0,4,,,,,3,,,54,78
130752,note_off,,,,,192,0,4,,,,,3,,,57,0
130752,note_on,,,,,96,0,1,,,,,0,,,78,103
130752,note_on,,,,,0,0,3,,,,,2,,,57,87
130752,note_off,,,,,192,0,3,,,,,2,,,61,0
130752,note_on,,,,,96,0,2,,,,,1,,,66,96
130848,note_on,,,,,0,0,3,,,,,2,,,56,87
130848,note_off,,,,,96,0,3,,,,,2,,,57,0
130848,note_off,,,,,96,0,4,,,,,3,,,54,0
130848,note_on,,,,,0,0,4,,,,,3,,,52,78
130944,note_on,,,,,0,0,3,,,,,2,,,54,87
130944,note_off,,,,,96,0,4,,,,,3,,,52,0
130944,note_on,,,,,0,0,4,,,,,3,,,50,78
130944,note_off,,,,,96,0,3,,,,,2,,,56,0
131136,note_on,,,,,0,0,4,,,,,3,,,53,78
131136,note_on,,,,,0,0,1,,,,,0,,,75,103
131136,note_off,,,,,192,0,4,,,,,3,,,50,0
131136,note_off,,,,,384,0,1,,,,,0,,,78,0
131136,note_off,,,,,384,0,2,,,,,1,,,66,0
131136,note_on,,,,,0,0,2,,,,,1,,,63,96
131136,note_off,,,,,192,0,3,,,,,2,,,54,0
131136,note_on,,,,,0,0,3,,,,,2,,,57,87
131232,note_off,,,,,96,0,3,,,,,2,,,57,0
131232,note_off,,,,,96,0,4,,,,,3,,,53,0
131328,note_on,,,,,96,0,4,,,,,3,,,52,78
131328,note_off,,,,,192,0,2,,,,,1,,,63,0
131328,note_on,,,,,0,0,2,,,,,1,,,64,96
131328,note_on,,,,,96,0,3,,,,,2,,,61,87
131328,note_on,,,,,0,0,1,,,,,0,,,75,103
131328,note_off,,,,,192,0,1,,,,,0,,,75,0
131424,note_off,,,,,96,0,1,,,,,0,,,75,0
131424,note_on,,,,,0,0,1,,,,,0,,,76,103
131520,note_on,,,,,0,0,1,,,,,0,,,74,103
131520,note_off,,,,,192,0,2,,,,,1,,,64,0
131520,note_on,,,,,0,0,2,,,,,1,,,69,96
131520,note_on,,,,,0,0,3,,,,,2,,,64,87
131520,note_off,,,,,192,0,3,,,,,2,,,61,0
131520,note_off,,,,,96,0,1,,,,,0,,,76,0
131616,note_off,,,,,96,0,1,,,,,0,,,74,0
131616,note_on,,,,,0,0,1,,,,,0,,,73,103
131712,note_on,,,,,0,0,3,,,,,2,,,62,87
131712,note_on,,,,,0,0,4,,,,,3,,,52,78
131712,note_off,,,,,192,0,3,,,,,2,,,64,0
131712,note_on,,,,,0,0,2,,,,,1,,,68,96
131712,note_off,,,,,192,0,2,,,,,1,,,69,0
131712,note_on,,,,,0,0,1,,,,,0,,,71,103
131712,note_off,,,,,384,0,4,,,,,3,,,52,0
131712,note_off,,,,,96,0,1,,,,,0,,,73,0
131808,note_off,,,,,96,0,1,,,,,0,,,71,0
131808,note_on,,,,,0,0,1,,,,,0,,,73,103
131904,note_off,,,,,96,0,1,,,,,0,,,73,0
131904,note_on,,,,,0,0,1,,,,,0,,,74,103
131904,note_off,,,,,192,0,3,,,,,2,,,62,0
131904,note_on,,,,,0,0,3,,,,,2,,,56,87
131904,note_on,,,,,0,0,2,,,,,1,,,62,96
131904,note_off,,,,,192,0,2,,,,,1,,,68,0
132000,note_off,,,,,96,0,1,,,,,0,,,74,0
132000,note_on,,,,,0,0,1,,,,,0,,,71,103
132096,note_off,,,,,384,0,4,,,,,3,,,52,0
132096,note_on,,,,,0,0,4,,,,,3,,,45,78
132096,note_off,,,,,192,0,3,,,,,2,,,56,0
132096,note_on,,,,,0,0,3,,,,,2,,,57,87
132096,note_on,,,,,0,0,2,,,,,1,,,61,96
132096,note_off,,,,,96,0,1,,,,,0,,,71,0
132096,note_on,,,,,0,0,1,,,,,0,,,69,103
132096,note_off,,,,,192,0,2,,,,,1,,,62,0
132192,note_off,,,,,96,0,4,,,,,3,,,45,0
132192,note_off,,,,,96,0,2,,,,,1,,,61,0
132192,note_off,,,,,96,0,3,,,,,2,,,57,0
132192,note_off,,,,,96,0,1,,,,,0,,,69,0
132288,note_on,,,,,96,0,4,,,,,3,,,45,78
132288,note_on,,,,,96,0,2,,,,,1,,,64,96
132288,note_on,,,,,96,0,1,,,,,0,,,81,103
132288,note_on,,,,,96,0,3,,,,,2,,,61,87
132384,note_off,,,,,96,0,2,,,,,1,,,64,0
132384,note_off,,,,,96,0,1,,,,,0,,,81,0
132384,note_off,,,,,96,0,3,,,,,2,,,61,0
132384,note_off,,,,,96,0,4,,,,,3,,,45,0
132480,note_on,,,,,96,0,3,,,,,2,,,57,87
132480,note_on,,,,,96,0,4,,,,,3,,,45,78
132480,note_on,,,,,96,0,2,,,,,1,,,61,96
132576,note_off,,,,,96,0,3,,,,,2,,,57,0
132576,note_off,,,,,96,0,4,,,,,3,,,45,0
132576,note_off,,,,,96,0,2,,,,,1,,,61,0
132672,note_on,,,,,288,0,1,,,,,0,,,69,103
132672,note_on,,,,,96,0,2,,,,,1,,,69,96
132672,note_on,,,,,96,0,3,,,,,2,,,57,87
132672,note_on,,,,,96,0,4,,,,,3,,,57,78
132768,note_on,,,,,0,0,1,,,,,0,,,71,103
132768,note_off,,,,,96,0,3,,,,,2,,,57,0
132768,note_on,,,,,0,0,3,,,,,2,,,59,87
132768,note_on,,,,,0,0,4,,,,,3,,,59,78
132768,note_off,,,,,96,0,4,,,,,3,,,57,0
132768,note_off,,,,,96,0,2,,,,,1,,,69,0
132768,note_on,,,,,0,0,2,,,,,1,,,71,96
132768,note_off,,,,,96,0,1,,,,,0,,,69,0
132864,note_on,,,,,0,0,4,,,,,3,,,61,78
132864,note_on,,,,,0,0,1,,,,,0,,,73,103
132864,note_off,,,,,96,0,1,,,,,0,,,71,0
132864,note_on,,,,,0,0,2,,,,,1,,,73,96
132864,note_off,,,,,96,0,3,,,,,2,,,59,0
132864,note_off,,,,,96,0,2,,,,,1,,,71,0
132864,note_off,,,,,96,0,4,,,,,3,,,59,0
132864,note_on,,,,,0,0,3,,,,,2,,,61,87
132960,note_off,,,,,96,0,3,,,,,2,,,61,0
132960,note_on,,,,,0,0,3,,,,,2,,,59,87
132960,note_off,,,,,96,0,4,,,,,3,,,61,0
132960,note_on,,,,,0,0,2,,,,,1,,,71,96
132960,note_on,,,,,0,0,1,,,,,0,,,71,103
132960,note_off,,,,,96,0,1,,,,,0,,,73,0
132960,note_off,,,,,96,0,2,,,,,1,,,73,0
132960,note_on,,,,,0,0,4,,,,,3,,,59,78
133056,note_off,,,,,96,0,1,,,,,0,,,71,0
133056,note_on,,,,,0,0,3,,,,,2,,,57,87
133056,note_off,,,,,96,0,3,,,,,2,,,59,0
133056,note_on,,,,,0,0,2,,,,,1,,,69,96
133056,note_off,,,,,96,0,2,,,,,1,,,71,0
133056,note_off,,,,,96,0,4,,,,,3,,,59,0
133056,note_on,,,,,0,0,1,,,,,0,,,69,103
133056,note_on,,,,,0,0,4,,,,,3,,,57,78
133152,note_off,,,,,96,0,1,,,,,0,,,69,0
133152,note_on,,,,,0,0,1,,,,,0,,,68,103
133152,note_on,,,,,0,0,4,,,,,3,,,56,78
133152,note_off,,,,,96,0,4,,,,,3,,,57,0
133152,note_on,,,,,0,0,2,,,,,1,,,68,96
133152,note_off,,,,,96,0,3,,,,,2,,,57,0
133152,note_on,,,,,0,0,3,,,,,2,,,56,87
133152,note_off,,,,,96,0,2,,,,,1,,,69,0
133248,note_on,,,,,0,0,2,,,,,1,,,66,96
133248,note_on,,,,,0,0,1,,,,,0,,,66,103
133248,note_off,,,,,96,0,2,,,,,1,,,68,0
133248,note_off,,,,,96,0,1,,,,,0,,,68,0
133248,note_off,,,,,96,0,4,,,,,3,,,56,0
133248,note_on,,,,,0,0,4,,,,,3,,,54,78
133248,note_off,,,,,96,0,3,,,,,2,,,56,0
133248,note_on,,,,,0,0,3,,,,,2,,,54,87
133344,note_off,,,,,96,0,1,,,,,0,,,66,0
133344,note_on,,,,,0,0,1,,,,,0,,,68,103
133344,note_on,,,,,0,0,2,,,,,1,,,68,96
133344,note_off,,,,,96,0,2,,,,,1,,,66,0
133344,note_off,,,,,96,0,4,,,,,3,,,54,0
133344,note_off,,,,,96,0,3,,,,,2,,,54,0
133344,note_on,,,,,0,0,4,,,,,3,,,56,78
133344,note_on,,,,,0,0,3,,,,,2,,,56,87
133440,note_off,,,,,96,0,3,,,,,2,,,56,0
133440,note_on,,,,,0,0,3,,,,,2,,,54,87
133440,note_off,,,,,96,0,4,,,,,3,,,56,0
133440,note_on,,,,,0,0,4,,,,,3,,,54,78
133440,note_off,,,,,96,0,1,,,,,0,,,68,0
133440,note_on,,,,,0,0,1,,,,,0,,,66,103
133440,note_off,,,,,96,0,2,,,,,1,,,68,0
133440,note_on,,,,,0,0,2,,,,,1,,,66,96
133536,note_off,,,,,96,0,4,,,,,3,,,54,0
133536,note_on,,,,,0,0,2,,,,,1,,,64,96
133536,note_off,,,,,96,0,1,,,,,0,,,66,0
133536,note_on,,,,,0,0,1,,,,,0,,,64,103
133536,note_off,,,,,96,0,3,,,,,2,,,54,0
133536,note_off,,,,,96,0,2,,,,,1,,,66,0
133536,note_on,,,,,0,0,4,,,,,3,,,52,78
133536,note_on,,,,,0,0,3,,,,,2,,,52,87
133632,note_on,,,,,0,0,3,,,,,2,,,51,87
133632,note_off,,,,,96,0,4,,,,,3,,,52,0
133632,note_on,,,,,0,0,4,,,,,3,,,51,78
133632,note_off,,,,,96,0,2,,,,,1,,,64,0
133632,note_on,,,,,0,0,2,,,,,1,,,63,96
133632,note_on,,,,,0,0,1,,,,,0,,,63,103
133632,note_off,,,,,96,0,1,,,,,0,,,64,0
133632,note_off,,,,,96,0,3,,,,,2,,,52,0
133680,note_off,,,,,48,0,1,,,,,0,,,63,0
133728,note_off,,,,,96,0,3,,,,,2,,,51,0
133728,note_off,,,,,96,0,4,,,,,3,,,51,0
133728,note_off,,,,,96,0,2,,,,,1,,,63,0
133728,note_on,,,,,48,0,1,,,,,0,,,66,103
133776,note_off,,,,,48,0,1,,,,,0,,,66,0
133824,note_on,,,,,0,0,2,,,,,1,,,66,96
133824,note_on,,,,,96,0,2,,,,,1,,,69,96
133824,note_on,,,,,96,0,3,,,,,2,,,59,87
133824,note_on,,,,,96,0,4,,,,,3,,,51,78
133824,note_on,,,,,48,0,1,,,,,0,,,75,103
133872,note_off,,,,,48,0,1,,,,,0,,,75,0
133920,note_on,,,,,48,0,1,,,,,0,,,78,103
133968,note_off,,,,,48,0,1,,,,,0,,,78,0
134016,note_on,,,,,48,0,1,,,,,0,,,83,103
134208,note_off,,,,,192,0,1,,,,,0,,,83,0
134208,note_off,,,,,384,0,3,,,,,2,,,59,0
134208,note_off,,,,,384,0,2,,,,,1,,,69,0
134208,note_off,,,,,0,0,2,,,,,1,,,66,0
134208,note_on,,,,,0,0,2,,,,,1,,,69,96
134208,note_on,,,,,0,0,1,,,,,0,,,81,103
134208,note_off,,,,,384,0,4,,,,,3,,,51,0
134304,note_off,,,,,96,0,2,,,,,1,,,69,0
134304,note_off,,,,,96,0,1,,,,,0,,,81,0
134304,note_on,,,,,0,0,1,,,,,0,,,83,103
134304,note_on,,,,,0,0,2,,,,,1,,,71,96
134400,note_off,,,,,96,0,1,,,,,0,,,83,0
134400,note_on,,,,,0,0,1,,,,,0,,,85,103
134400,note_off,,,,,96,0,2,,,,,1,,,71,0
134400,note_on,,,,,0,0,2,,,,,1,,,73,96
134496,note_on,,,,,0,0,2,,,,,1,,,71,96
134496,note_off,,,,,96,0,2,,,,,1,,,73,0
134496,note_off,,,,,96,0,1,,,,,0,,,85,0
134496,note_on,,,,,0,0,1,,,,,0,,,83,103
134592,note_on,,,,,0,0,2,,,,,1,,,69,96
134592,note_off,,,,,96,0,2,,,,,1,,,71,0
134592,note_off,,,,,96,0,1,,,,,0,,,83,0
134592,note_on,,,,,0,0,1,,,,,0,,,81,103
134688,note_on,,,,,0,0,2,,,,,1,,,68,96
134688,note_off,,,,,96,0,2,,,,,1,,,69,0
134688,note_off,,,,,96,0,1,,,,,0,,,81,0
134688,note_on,,,,,0,0,1,,,,,0,,,80,103
134784,note_off,,,,,96,0,1,,,,,0,,,80,0
134784,note_on,,,,,0,0,1,,,,,0,,,78,103
134784,note_off,,,,,96,0,2,,,,,1,,,68,0
134784,note_on,,,,,0,0,2,,,,,1,,,66,96
134880,note_off,,,,,96,0,1,,,,,0,,,78,0
134880,note_off,,,,,96,0,2,,,,,1,,,66,0
134880,note_on,,,,,0,0,2,,,,,1,,,68,96
134880,note_on,,,,,0,0,1,,,,,0,,,80,103
134976,note_off,,,,,96,0,1,,,,,0,,,80,0
134976,note_on,,,,,0,0,1,,,,,0,,,78,103
134976,note_off,,,,,96,0,2,,,,,1,,,68,0
134976,note_on,,,,,0,0,2,,,,,1,,,66,96
135072,note_off,,,,,96,0,2,,,,,1,,,66,0
135072,note_on,,,,,0,0,2,,,,,1,,,64,96
135072,note_on,,,,,0,0,1,,,,,0,,,76,103
135072,note_off,,,,,96,0,1,,,,,0,,,78,0
135168,note_off,,,,,96,0,1,,,,,0,,,76,0
135168,note_on,,,,,0,0,2,,,,,1,,,63,96
135168,note_off,,,,,96,0,2,,,,,1,,,64,0
135168,note_on,,,,,0,0,1,,,,,0,,,75,103
135216,note_off,,,,,48,0,1,,,,,0,,,75,0
135264,note_off,,,,,96,0,2,,,,,1,,,63,0
135264,note_on,,,,,48,0,1,,,,,0,,,83,103
135312,note_off,,,,,48,0,1,,,,,0,,,83,0
135360,note_on,,,,,1152,0,4,,,,,3,,,51,78
135360,note_on,,,,,0,0,2,,,,,1,,,69,96
135360,note_on,,,,,48,0,1,,,,,0,,,87,103
135360,note_on,,,,,96,0,2,,,,,1,,,66,96
135360,note_on,,,,,1152,0,3,,,,,2,,,59,87
135408,note_off,,,,,48,0,1,,,,,0,,,87,0
135456,note_on,,,,,48,0,1,,,,,0,,,90,103
135504,note_off,,,,,48,0,1,,,,,0,,,90,0
135552,note_on,,,,,48,0,1,,,,,0,,,95,103
135648,note_on,,,,,0,0,2,,,,,1,,,71,96
135648,note_off,,,,,0,0,2,,,,,1,,,69,0
135648,note_off,,,,,288,0,2,,,,,1,,,66,0
135696,note_off,,,,,48,0,2,,,,,1,,,71,0
135744,note_off,,,,,384,0,3,,,,,2,,,59,0
135744,note_off,,,,,384,0,4,,,,,3,,,51,0
135744,note_on,,,,,48,0,2,,,,,1,,,75,96
135792,note_off,,,,,48,0,2,,,,,1,,,75,0
135840,note_on,,,,,48,0,2,,,,,1,,,78,96
135888,note_off,,,,,48,0,2,,,,,1,,,78,0
135936,note_on,,,,,192,0,3,,,,,2,,,66,87
135936,note_on,,,,,0,0,3,,,,,2,,,74,87
135936,note_on,,,,,48,0,2,,,,,1,,,81,96
136032,note_off,,,,,96,0,2,,,,,1,,,81,0
136032,note_on,,,,,288,0,4,,,,,3,,,47,78
136080,note_off,,,,,48,0,4,,,,,3,,,47,0
136128,note_off,,,,,192,0,3,,,,,2,,,66,0
136128,note_on,,,,,48,0,4,,,,,3,,,51,78
136128,note_off,,,,,0,0,3,,,,,2,,,74,0
136128,note_on,,,,,0,0,3,,,,,2,,,66,87
136128,note_on,,,,,0,0,3,,,,,2,,,74,87
136176,note_off,,,,,48,0,4,,,,,3,,,51,0
136224,note_on,,,,,48,0,4,,,,,3,,,54,78
136272,note_off,,,,,48,0,4,,,,,3,,,54,0
136320,note_on,,,,,48,0,4,,,,,3,,,57,78
136416,note_off,,,,,96,0,4,,,,,3,,,57,0
136416,note_on,,,,,384,0,2,,,,,1,,,71,96
136464,note_off,,,,,48,0,2,,,,,1,,,71,0
136512,note_off,,,,,384,0,3,,,,,2,,,66,0
136512,note_on,,,,,48,0,2,,,,,1,,,75,96
136512,note_off,,,,,0,0,3,,,,,2,,,74,0
136512,note_on,,,,,0,0,3,,,,,2,,,74,87
136512,note_on,,,,,0,0,3,,,,,2,,,66,87
136560,note_off,,,,,48,0,2,,,,,1,,,75,0
136608,note_on,,,,,48,0,2,,,,,1,,,78,96
136656,note_off,,,,,48,0,2,,,,,1,,,78,0
136704,note_on,,,,,48,0,2,,,,,1,,,81,96
136800,note_on,,,,,384,0,4,,,,,3,,,47,78
136800,note_off,,,,,96,0,2,,,,,1,,,81,0
136848,note_off,,,,,48,0,4,,,,,3,,,47,0
136896,note_off,,,,,384,0,3,,,,,2,,,66,0
136896,note_off,,,,,0,0,3,,,,,2,,,74,0
136896,note_on,,,,,0,0,3,,,,,2,,,74,87
136896,note_on,,,,,48,0,4,,,,,3,,,51,78
136896,note_on,,,,,0,0,3,,,,,2,,,66,87
136944,note_off,,,,,48,0,4,,,,,3,,,51,0
136992,note_on,,,,,48,0,4,,,,,3,,,54,78
137040,note_off,,,,,48,0,4,,,,,3,,,54,0
137088,note_on,,,,,48,0,4,,,,,3,,,57,78
137184,note_on,,,,,384,0,2,,,,,1,,,69,96
137184,note_off,,,,,96,0,4,,,,,3,,,57,0
137232,note_off,,,,,48,0,2,,,,,1,,,69,0
137280,note_on,,,,,0,0,1,,,,,0,,,95,103
137280,note_off,,,,,0,0,3,,,,,2,,,74,0
137280,note_on,,,,,0,0,3,,,,,2,,,74,87
137280,note_on,,,,,0,0,3,,,,,2,,,66,87
137280,note_on,,,,,48,0,2,,,,,1,,,71,96
137280,note_off,,,,,384,0,3,,,,,2,,,66,0
137280,note_off,,,,,1728,0,1,,,,,0,,,95,0
137328,note_off,,,,,48,0,2,,,,,1,,,71,0
137376,note_on,,,,,48,0,2,,,,,1,,,75,96
137424,note_off,,,,,48,0,2,,,,,1,,,75,0
137472,note_on,,,,,288,0,4,,,,,3,,,59,78
137472,note_off,,,,,192,0,3,,,,,2,,,66,0
137472,note_off,,,,,0,0,3,,,,,2,,,74,0
137472,note_on,,,,,0,0,3,,,,,2,,,63,87
137472,note_on,,,,,48,0,2,,,,,1,,,78,96
137664,note_off,,,,,384,0,1,,,,,0,,,95,0
137664,note_on,,,,,0,0,1,,,,,0,,,93,103
137664,note_off,,,,,192,0,4,,,,,3,,,59,0
137664,note_off,,,,,192,0,3,,,,,2,,,63,0
137664,note_off,,,,,192,0,2,,,,,1,,,78,0
137760,note_off,,,,,96,0,1,,,,,0,,,93,0
137856,note_on,,,,,192,0,3,,,,,2,,,64,87
137856,note_on,,,,,192,0,4,,,,,3,,,61,78
137856,note_on,,,,,192,0,2,,,,,1,,,76,96
137856,note_on,,,,,96,0,1,,,,,0,,,93,103
138048,note_off,,,,,192,0,4,,,,,3,,,61,0
138048,note_off,,,,,192,0,1,,,,,0,,,93,0
138048,note_off,,,,,192,0,2,,,,,1,,,76,0
138048,note_on,,,,,0,0,1,,,,,0,,,92,103
138048,note_off,,,,,192,0,3,,,,,2,,,64,0
138144,note_off,,,,,96,0,1,,,,,0,,,92,0
138240,note_on,,,,,192,0,2,,,,,1,,,73,96
138240,note_on,,,,,192,0,4,,,,,3,,,57,78
138240,note_on,,,,,96,0,1,,,,,0,,,92,103
138240,note_on,,,,,192,0,3,,,,,2,,,69,87
138432,note_off,,,,,192,0,3,,,,,2,,,69,0
138432,note_off,,,,,192,0,4,,,,,3,,,57,0
138432,note_off,,,,,192,0,1,,,,,0,,,92,0
138432,note_on,,,,,0,0,1,,,,,0,,,90,103
138432,note_off,,,,,192,0,2,,,,,1,,,73,0
138528,note_off,,,,,96,0,1,,,,,0,,,90,0
138624,note_on,,,,,192,0,4,,,,,3,,,59,78
138624,note_on,,,,,192,0,3,,,,,2,,,66,87
138624,note_on,,,,,96,0,1,,,,,0,,,90,103
138624,note_on,,,,,192,0,2,,,,,1,,,69,96
138816,note_off,,,,,192,0,4,,,,,3,,,59,0
138816,note_off,,,,,192,0,3,,,,,2,,,66,0
138816,note_off,,,,,192,0,1,,,,,0,,,90,0
138816,note_on,,,,,0,0,1,,,,,0,,,87,103
138816,note_off,,,,,192,0,2,,,,,1,,,69,0
138912,note_off,,,,,96,0,1,,,,,0,,,87,0
139008,note_on,,,,,192,0,3,,,,,2,,,64,87
139008,note_on,,,,,192,0,2,,,,,1,,,68,96
139008,note_on,,,,,96,0,1,,,,,0,,,88,103
139008,note_on,,,,,192,0,4,,,,,3,,,52,78
139104,note_on,,,,,0,0,2,,,,,1,,,69,96
139104,note_on,,,,,0,0,3,,,,,2,,,66,87
139104,note_off,,,,,96,0,3,,,,,2,,,64,0
139104,note_off,,,,,96,0,2,,,,,1,,,68,0
139200,note_off,,,,,96,0,3,,,,,2,,,66,0
139200,note_on,,,,,0,0,3,,,,,2,,,64,87
139200,note_on,,,,,0,0,2,,,,,1,,,68,96
139200,note_off,,,,,96,0,2,,,,,1,,,69,0
139296,note_off,,,,,96,0,3,,,,,2,,,64,0
139296,note_on,,,,,0,0,2,,,,,1,,,66,96
139296,note_on,,,,,0,0,3,,,,,2,,,63,87
139296,note_off,,,,,96,0,2,,,,,1,,,68,0
139392,note_off,,,,,96,0,3,,,,,2,,,63,0
139392,note_on,,,,,0,0,3,,,,,2,,,64,87
139392,note_off,,,,,384,0,1,,,,,0,,,88,0
139392,note_off,,,,,384,0,4,,,,,3,,,52,0
139392,note_off,,,,,96,0,2,,,,,1,,,66,0
139392,note_on,,,,,0,0,2,,,,,1,,,68,96
139488,note_off,,,,,96,0,2,,,,,1,,,68,0
139488,note_on,,,,,0,0,2,,,,,1,,,69,96
139488,note_off,,,,,96,0,3,,,,,2,,,64,0
139488,note_on,,,,,0,0,3,,,,,2,,,66,87
139584,note_off,,,,,96,0,2,,,,,1,,,69,0
139584,note_off,,,,,96,0,3,,,,,2,,,66,0
139584,note_on,,,,,0,0,2,,,,,1,,,68,96
139584,note_on,,,,,0,0,3,,,,,2,,,64,87
139680,note_off,,,,,96,0,2,,,,,1,,,68,0
139680,note_on,,,,,0,0,2,,,,,1,,,69,96
139680,note_on,,,,,0,0,3,,,,,2,,,66,87
139680,note_off,,,,,96,0,3,,,,,2,,,64,0
139776,note_off,,,,,96,0,3,,,,,2,,,66,0
139776,note_on,,,,,0,0,3,,,,,2,,,68,87
139776,note_on,,,,,0,0,2,,,,,1,,,71,96
139776,note_off,,,,,96,0,2,,,,,1,,,69,0
139872,note_off,,,,,96,0,3,,,,,2,,,68,0
139872,note_off,,,,,96,0,2,,,,,1,,,71,0
139872,note_on,,,,,0,0,2,,,,,1,,,70,96
139872,note_on,,,,,0,0,3,,,,,2,,,67,87
139968,note_off,,,,,96,0,2,,,,,1,,,70,0
139968,note_on,,,,,0,0,2,,,,,1,,,71,96
139968,note_on,,,,,0,0,3,,,,,2,,,68,87
139968,note_off,,,,,96,0,3,,,,,2,,,67,0
140064,note_off,,,,,96,0,2,,,,,1,,,71,0
140064,note_on,,,,,0,0,2,,,,,1,,,69,96
140064,note_off,,,,,96,0,3,,,,,2,,,68,0
140064,note_on,,,,,0,0,3,,,,,2,,,66,87
140160,note_off,,,,,96,0,2,,,,,1,,,69,0
140160,note_on,,,,,0,0,2,,,,,1,,,68,96
140160,note_off,,,,,96,0,3,,,,,2,,,66,0
140160,note_on,,,,,0,0,3,,,,,2,,,64,87
140256,note_on,,,,,0,0,2,,,,,1,,,67,96
140256,note_off,,,,,96,0,2,,,,,1,,,68,0
140256,note_off,,,,,96,0,3,,,,,2,,,64,0
140256,note_on,,,,,0,0,3,,,,,2,,,63,87
140352,note_off,,,,,96,0,2,,,,,1,,,67,0
140352,note_on,,,,,0,0,2,,,,,1,,,68,96
140352,note_off,,,,,96,0,3,,,,,2,,,63,0
140352,note_on,,,,,0,0,3,,,,,2,,,64,87
140448,note_on,,,,,0,0,2,,,,,1,,,64,96
140448,note_off,,,,,96,0,2,,,,,1,,,68,0
140448,note_off,,,,,96,0,3,,,,,2,,,64,0
140448,note_on,,,,,0,0,3,,,,,2,,,68,87
140544,note_off,,,,,96,0,2,,,,,1,,,64,0
140544,note_on,,,,,0,0,3,,,,,2,,,59,87
140544,note_off,,,,,96,0,3,,,,,2,,,68,0
140544,note_on,,,,,1152,0,1,,,,,0,,,83,103
140544,note_on,,,,,0,0,2,,,,,1,,,63,96
140592,note_off,,,,,48,0,3,,,,,2,,,59,0
140592,note_off,,,,,48,0,2,,,,,1,,,63,0
140640,note_on,,,,,48,0,3,,,,,2,,,61,87
140640,note_on,,,,,48,0,2,,,,,1,,,64,96
140688,note_off,,,,,48,0,2,,,,,1,,,64,0
140688,note_off,,,,,48,0,3,,,,,2,,,61,0
140736,note_on,,,,,48,0,3,,,,,2,,,59,87
140736,note_on,,,,,48,0,2,,,,,1,,,63,96
140784,note_off,,,,,48,0,3,,,,,2,,,59,0
140784,note_off,,,,,48,0,2,,,,,1,,,63,0
140832,note_on,,,,,48,0,2,,,,,1,,,64,96
140832,note_on,,,,,48,0,3,,,,,2,,,61,87
140880,note_off,,,,,48,0,2,,,,,1,,,64,0
140880,note_off,,,,,48,0,3,,,,,2,,,61,0
140928,note_on,,,,,48,0,3,,,,,2,,,63,87
140928,note_on,,,,,48,0,2,,,,,1,,,66,96
141024,note_off,,,,,480,0,1,,,,,0,,,83,0
141024,note_off,,,,,96,0,2,,,,,1,,,66,0
141024,note_on,,,,,0,0,1,,,,,0,,,85,103
141024,note_off,,,,,96,0,3,,,,,2,,,63,0
141120,note_off,,,,,96,0,1,,,,,0,,,85,0
141120,note_on,,,,,0,0,1,,,,,0,,,81,103
141216,note_off,,,,,96,0,1,,,,,0,,,81,0
141216,note_on,,,,,0,0,1,,,,,0,,,80,103
141312,note_on,,,,,0,0,1,,,,,0,,,78,103
141312,note_on,,,,,288,0,3,,,,,2,,,59,87
141312,note_off,,,,,96,0,1,,,,,0,,,80,0
141312,note_on,,,,,288,0,2,,,,,1,,,63,96
141360,note_off,,,,,48,0,2,,,,,1,,,63,0
141360,note_off,,,,,48,0,3,,,,,2,,,59,0
141408,note_on,,,,,48,0,2,,,,,1,,,64,96
141408,note_on,,,,,48,0,3,,,,,2,,,61,87
141456,note_off,,,,,48,0,2,,,,,1,,,64,0
141456,note_off,,,,,48,0,3,,,,,2,,,61,0
141504,note_on,,,,,48,0,3,,,,,2,,,59,87
141504,note_on,,,,,48,0,2,,,,,1,,,63,96
141552,note_off,,,,,48,0,3,,,,,2,,,59,0
141552,note_off,,,,,48,0,2,,,,,1,,,63,0
141600,note_on,,,,,48,0,2,,,,,1,,,64,96
141600,note_on,,,,,48,0,3,,,,,2,,,61,87
141648,note_off,,,,,48,0,2,,,,,1,,,64,0
141648,note_off,,,,,48,0,3,,,,,2,,,61,0
141696,note_on,,,,,48,0,2,,,,,1,,,66,96
141696,note_on,,,,,48,0,3,,,,,2,,,63,87
141792,note_off,,,,,96,0,2,,,,,1,,,66,0
141792,note_on,,,,,0,0,1,,,,,0,,,80,103
141792,note_off,,,,,480,0,1,,,,,0,,,78,0
141792,note_off,,,,,96,0,3,,,,,2,,,63,0
141888,note_off,,,,,96,0,1,,,,,0,,,80,0
141888,note_on,,,,,0,0,1,,,,,0,,,81,103
141984,note_on,,,,,0,0,1,,,,,0,,,85,103
141984,note_off,,,,,96,0,1,,,,,0,,,81,0
142080,note_on,,,,,0,0,1,,,,,0,,,83,103
142080,note_on,,,,,288,0,3,,,,,2,,,64,87
142080,note_off,,,,,96,0,1,,,,,0,,,85,0
142080,note_on,,,,,288,0,2,,,,,1,,,68,96
142128,note_off,,,,,48,0,3,,,,,2,,,64,0
142128,note_off,,,,,48,0,2,,,,,1,,,68,0
142176,note_on,,,,,48,0,3,,,,,2,,,66,87
142176,note_on,,,,,48,0,2,,,,,1,,,69,96
142224,note_off,,,,,48,0,2,,,,,1,,,69,0
142224,note_off,,,,,48,0,3,,,,,2,,,66,0
142272,note_on,,,,,48,0,2,,,,,1,,,68,96
142272,note_on,,,,,48,0,3,,,,,2,,,64,87
142320,note_off,,,,,48,0,2,,,,,1,,,68,0
142320,note_off,,,,,48,0,3,,,,,2,,,64,0
142368,note_on,,,,,48,0,2,,,,,1,,,69,96
142368,note_on,,,,,48,0,3,,,,,2,,,66,87
142416,note_off,,,,,48,0,3,,,,,2,,,66,0
142416,note_off,,,,,48,0,2,,,,,1,,,69,0
142464,note_on,,,,,48,0,2,,,,,1,,,71,96
142464,note_on,,,,,48,0,3,,,,,2,,,68,87
142560,note_off,,,,,480,0,1,,,,,0,,,83,0
142560,note_on,,,,,0,0,1,,,,,0,,,88,103
142560,note_off,,,,,96,0,3,,,,,2,,,68,0
142560,note_off,,,,,96,0,2,,,,,1,,,71,0
142656,note_on,,,,,0,0,1,,,,,0,,,83,103
142656,note_off,,,,,96,0,1,,,,,0,,,88,0
142752,note_on,,,,,0,0,1,,,,,0,,,80,103
142752,note_off,,,,,96,0,1,,,,,0,,,83,0
142848,note_on,,,,,0,0,1,,,,,0,,,76,103
142848,note_on,,,,,288,0,3,,,,,2,,,64,87
142848,note_off,,,,,96,0,1,,,,,0,,,80,0
142848,note_on,,,,,288,0,2,,,,,1,,,68,96
142896,note_off,,,,,48,0,2,,,,,1,,,68,0
142896,note_off,,,,,48,0,3,,,,,2,,,64,0
142944,note_on,,,,,48,0,2,,,,,1,,,69,96
142944,note_on,,,,,48,0,3,,,,,2,,,66,87
142992,note_off,,,,,48,0,2,,,,,1,,,69,0
142992,note_off,,,,,48,0,3,,,,,2,,,66,0
143040,note_on,,,,,48,0,3,,,,,2,,,64,87
143040,note_on,,,,,48,0,2,,,,,1,,,68,96
143088,note_off,,,,,48,0,3,,,,,2,,,64,0
143088,note_off,,,,,48,0,2,,,,,1,,,68,0
143136,note_on,,,,,48,0,2,,,,,1,,,69,96
143136,note_on,,,,,48,0,3,,,,,2,,,66,87
143184,note_off,,,,,48,0,3,,,,,2,,,66,0
143184,note_off,,,,,48,0,2,,,,,1,,,69,0
143232,note_on,,,,,48,0,3,,,,,2,,,68,87
143232,note_on,,,,,48,0,2,,,,,1,,,71,96
143328,note_on,,,,,0,0,1,,,,,0,,,80,103
143328,note_off,,,,,96,0,3,,,,,2,,,68,0
143328,note_off,,,,,96,0,2,,,,,1,,,71,0
143328,note_off,,,,,480,0,1,,,,,0,,,76,0
143424,note_off,,,,,96,0,1,,,,,0,,,80,0
143424,note_on,,,,,0,0,1,,,,,0,,,85,103
143520,note_off,,,,,96,0,1,,,,,0,,,85,0
143520,note_on,,,,,0,0,1,,,,,0,,,82,103
143616,note_on,,,,,4224,0,4,,,,,3,,,59,78
143616,note_on,,,,,288,0,2,,,,,1,,,63,96
143616,note_on,,,,,0,0,1,,,,,0,,,83,103
143616,note_off,,,,,96,0,1,,,,,0,,,82,0
143664,note_off,,,,,48,0,2,,,,,1,,,63,0
143664,note_off,,,,,48,0,4,,,,,3,,,59,0
143712,note_on,,,,,48,0,2,,,,,1,,,64,96
143712,note_on,,,,,48,0,4,,,,,3,,,61,78
143760,note_off,,,,,48,0,2,,,,,1,,,64,0
143760,note_off,,,,,48,0,4,,,,,3,,,61,0
143808,note_on,,,,,48,0,2,,,,,1,,,63,96
143808,note_on,,,,,48,0,4,,,,,3,,,59,78
143856,note_off,,,,,48,0,2,,,,,1,,,63,0
143856,note_off,,,,,48,0,4,,,,,3,,,59,0
143904,note_on,,,,,48,0,2,,,,,1,,,64,96
143904,note_on,,,,,48,0,4,,,,,3,,,61,78
143952,note_off,,,,,48,0,2,,,,,1,,,64,0
143952,note_off,,,,,48,0,4,,,,,3,,,61,0
144000,note_on,,,,,48,0,4,,,,,3,,,63,78
144000,note_on,,,,,48,0,2,,,,,1,,,66,96
144096,note_on,,,,,0,0,1,,,,,0,,,85,103
144096,note_off,,,,,96,0,4,,,,,3,,,63,0
144096,note_off,,,,,480,0,1,,,,,0,,,83,0
144096,note_off,,,,,96,0,2,,,,,1,,,66,0
144192,note_off,,,,,96,0,1,,,,,0,,,85,0
144192,note_on,,,,,0,0,1,,,,,0,,,81,103
144288,note_off,,,,,96,0,1,,,,,0,,,81,0
144288,note_on,,,,,0,0,1,,,,,0,,,80,103
144384,note_on,,,,,288,0,4,,,,,3,,,59,78
144384,note_on,,,,,0,0,1,,,,,0,,,78,103
144384,note_on,,,,,1056,0,3,,,,,2,,,71,87
144384,note_off,,,,,96,0,1,,,,,0,,,80,0
144384,note_on,,,,,288,0,2,,,,,1,,,63,96
144432,note_off,,,,,48,0,2,,,,,1,,,63,0
144432,note_off,,,,,48,0,4,,,,,3,,,59,0
144480,note_on,,,,,48,0,4,,,,,3,,,61,78
144480,note_on,,,,,48,0,2,,,,,1,,,64,96
144528,note_off,,,,,48,0,4,,,,,3,,,61,0
144528,note_off,,,,,48,0,2,,,,,1,,,64,0
144576,note_on,,,,,48,0,2,,,,,1,,,63,96
144576,note_on,,,,,48,0,4,,,,,3,,,59,78
144624,note_off,,,,,48,0,4,,,,,3,,,59,0
144624,note_off,,,,,48,0,2,,,,,1,,,63,0
144672,note_on,,,,,48,0,2,,,,,1,,,64,96
144672,note_on,,,,,48,0,4,,,,,3,,,61,78
144720,note_off,,,,,48,0,2,,,,,1,,,64,0
144720,note_off,,,,,48,0,4,,,,,3,,,61,0
144768,note_on,,,,,48,0,2,,,,,1,,,66,96
144768,note_on,,,,,48,0,4,,,,,3,,,63,78
144864,note_off,,,,,480,0,1,,,,,0,,,78,0
144864,note_on,,,,,0,0,1,,,,,0,,,80,103
144864,note_on,,,,,0,0,3,,,,,2,,,73,87
144864,note_off,,,,,480,0,3,,,,,2,,,71,0
144864,note_off,,,,,96,0,4,,,,,3,,,63,0
144864,note_off,,,,,96,0,2,,,,,1,,,66,0
144960,note_on,,,,,0,0,3,,,,,2,,,69,87
144960,note_on,,,,,0,0,1,,,,,0,,,81,103
144960,note_off,,,,,96,0,1,,,,,0,,,80,0
144960,note_off,,,,,96,0,3,,,,,2,,,73,0
145056,note_on,,,,,0,0,3,,,,,2,,,67,87
145056,note_off,,,,,96,0,3,,,,,2,,,69,0
145056,note_off,,,,,96,0,1,,,,,0,,,81,0
145056,note_on,,,,,0,0,1,,,,,0,,,82,103
145152,note_on,,,,,288,0,2,,,,,1,,,63,96
145152,note_on,,,,,0,0,1,,,,,0,,,83,103
145152,note_on,,,,,288,0,4,,,,,3,,,59,78
145152,note_on,,,,,0,0,3,,,,,2,,,66,87
145152,note_off,,,,,96,0,3,,,,,2,,,67,0
145152,note_off,,,,,96,0,1,,,,,0,,,82,0
145200,note_off,,,,,48,0,2,,,,,1,,,63,0
145200,note_off,,,,,48,0,4,,,,,3,,,59,0
145248,note_on,,,,,48,0,2,,,,,1,,,64,96
145248,note_on,,,,,48,0,4,,,,,3,,,61,78
145296,note_off,,,,,48,0,2,,,,,1,,,64,0
145296,note_off,,,,,48,0,4,,,,,3,,,61,0
145344,note_on,,,,,48,0,4,,,,,3,,,59,78
145344,note_on,,,,,48,0,2,,,,,1,,,63,96
145392,note_off,,,,,48,0,4,,,,,3,,,59,0
145392,note_off,,,,,48,0,2,,,,,1,,,63,0
145440,note_on,,,,,48,0,2,,,,,1,,,64,96
145440,note_on,,,,,48,0,4,,,,,3,,,61,78
145488,note_off,,,,,48,0,4,,,,,3,,,61,0
145488,note_off,,,,,48,0,2,,,,,1,,,64,0
145536,note_on,,,,,48,0,4,,,,,3,,,63,78
145536,note_on,,,,,48,0,2,,,,,1,,,66,96
145632,note_on,,,,,0,0,1,,,,,0,,,85,103
145632,note_off,,,,,480,0,3,,,,,2,,,66,0
145632,note_off,,,,,96,0,4,,,,,3,,,63,0
145632,note_on,,,,,0,0,3,,,,,2,,,68,87
145632,note_off,,,,,480,0,1,,,,,0,,,83,0
145632,note_off,,,,,96,0,2,,,,,1,,,66,0
145728,note_off,,,,,96,0,3,,,,,2,,,68,0
145728,note_on,,,,,0,0,3,,,,,2,,,69,87
145728,note_on,,,,,0,0,1,,,,,0,,,81,103
145728,note_off,,,,,96,0,1,,,,,0,,,85,0
145824,note_on,,,,,0,0,1,,,,,0,,,79,103
145824,note_off,,,,,96,0,1,,,,,0,,,81,0
145824,note_on,,,,,0,0,3,,,,,2,,,70,87
145824,note_off,,,,,96,0,3,,,,,2,,,69,0
145920,note_off,,,,,96,0,3,,,,,2,,,70,0
145920,note_on,,,,,0,0,3,,,,,2,,,71,87
145920,note_off,,,,,96,0,1,,,,,0,,,79,0
145920,note_on,,,,,0,0,1,,,,,0,,,78,103
145920,note_on,,,,,288,0,4,,,,,3,,,59,78
145920,note_on,,,,,288,0,2,,,,,1,,,63,96
145968,note_off,,,,,48,0,4,,,,,3,,,59,0
145968,note_off,,,,,48,0,2,,,,,1,,,63,0
146016,note_on,,,,,48,0,4,,,,,3,,,61,78
146016,note_on,,,,,48,0,2,,,,,1,,,64,96
146064,note_off,,,,,48,0,4,,,,,3,,,61,0
146064,note_off,,,,,48,0,2,,,,,1,,,64,0
146112,note_on,,,,,48,0,2,,,,,1,,,63,96
146112,note_on,,,,,48,0,4,,,,,3,,,59,78
146160,note_off,,,,,48,0,2,,,,,1,,,63,0
146160,note_off,,,,,48,0,4,,,,,3,,,59,0
146208,note_on,,,,,48,0,4,,,,,3,,,61,78
146208,note_on,,,,,48,0,2,,,,,1,,,64,96
146256,note_off,,,,,48,0,4,,,,,3,,,61,0
146256,note_off,,,,,48,0,2,,,,,1,,,64,0
146304,note_on,,,,,48,0,4,,,,,3,,,63,78
146304,note_on,,,,,48,0,2,,,,,1,,,66,96
146400,note_off,,,,,96,0,2,,,,,1,,,66,0
146400,note_off,,,,,480,0,3,,,,,2,,,71,0
146400,note_on,,,,,0,0,3,,,,,2,,,73,87
146400,note_on,,,,,0,0,1,,,,,0,,,80,103
146400,note_off,,,,,96,0,4,,,,,3,,,63,0
146400,note_off,,,,,480,0,1,,,,,0,,,78,0
146496,note_on,,,,,0,0,1,,,,,0,,,81,103
146496,note_off,,,,,96,0,3,,,,,2,,,73,0
146496,note_off,,,,,96,0,1,,,,,0,,,80,0
146496,note_on,,,,,0,0,3,,,,,2,,,69,87
146592,note_on,,,,,0,0,3,,,,,2,,,67,87
146592,note_off,,,,,96,0,3,,,,,2,,,69,0
146592,note_on,,,,,0,0,1,,,,,0,,,82,103
146592,note_off,,,,,96,0,1,,,,,0,,,81,0
146688,note_off,,,,,96,0,3,,,,,2,,,67,0
146688,note_on,,,,,0,0,3,,,,,2,,,66,87
146688,note_on,,,,,288,0,4,,,,,3,,,59,78
146688,note_off,,,,,96,0,1,,,,,0,,,82,0
146688,note_on,,,,,0,0,1,,,,,0,,,83,103
146784,note_off,,,,,96,0,3,,,,,2,,,66,0
146880,note_on,,,,,96,0,3,,,,,2,,,66,87
146880,note_on,,,,,480,0,2,,,,,1,,,75,96
146976,note_off,,,,,96,0,3,,,,,2,,,66,0
147072,note_on,,,,,0,0,1,,,,,0,,,85,103
147072,note_off,,,,,384,0,4,,,,,3,,,59,0
147072,note_on,,,,,0,0,4,,,,,3,,,58,78
147072,note_off,,,,,384,0,1,,,,,0,,,83,0
147072,note_off,,,,,192,0,2,,,,,1,,,75,0
147264,note_on,,,,,288,0,3,,,,,2,,,66,87
147264,note_on,,,,,192,0,2,,,,,1,,,76,96
147456,note_on,,,,,0,0,4,,,,,3,,,57,78
147456,note_off,,,,,384,0,1,,,,,0,,,85,0
147456,note_on,,,,,0,0,1,,,,,0,,,87,103
147456,note_off,,,,,192,0,3,,,,,2,,,66,0
147456,note_off,,,,,192,0,2,,,,,1,,,76,0
147456,note_off,,,,,384,0,4,,,,,3,,,58,0
147648,note_on,,,,,192,0,3,,,,,2,,,71,87
147648,note_on,,,,,192,0,2,,,,,1,,,78,96
147840,note_off,,,,,384,0,1,,,,,0,,,87,0
147840,note_on,,,,,0,0,1,,,,,0,,,88,103
147840,note_off,,,,,384,0,4,,,,,3,,,57,0
147840,note_on,,,,,0,0,4,,,,,3,,,56,78
147840,note_off,,,,,192,0,3,,,,,2,,,71,0
147840,note_off,,,,,192,0,2,,,,,1,,,78,0
148032,note_on,,,,,192,0,3,,,,,2,,,71,87
148032,note_on,,,,,192,0,2,,,,,1,,,76,96
148224,note_on,,,,,0,0,2,,,,,1,,,81,96
148224,note_on,,,,,0,0,1,,,,,0,,,90,103
148224,note_off,,,,,384,0,4,,,,,3,,,56,0
148224,note_on,,,,,0,0,4,,,,,3,,,51,78
148224,note_off,,,,,192,0,2,,,,,1,,,76,0
148224,note_off,,,,,192,0,3,,,,,2,,,71,0
148224,note_off,,,,,384,0,1,,,,,0,,,88,0
148224,note_on,,,,,0,0,3,,,,,2,,,71,87
148992,note_off,,,,,768,0,3,,,,,2,,,71,0
148992,note_off,,,,,768,0,2,,,,,1,,,81,0
148992,note_off,,,,,768,0,4,,,,,3,,,51,0
148992,note_off,,,,,768,0,1,,,,,0,,,90,0
148992,note_on,,,,,0,0,1,,,,,0,,,88,103
149184,note_on,,,,,192,0,4,,,,,3,,,50,78
149184,note_on,,,,,192,0,3,,,,,2,,,64,87
149184,note_on,,,,,192,0,2,,,,,1,,,68,96
149376,note_off,,,,,192,0,4,,,,,3,,,50,0
149376,note_on,,,,,0,0,2,,,,,1,,,69,96
149376,note_off,,,,,192,0,2,,,,,1,,,68,0
149376,note_on,,,,,0,0,4,,,,,3,,,49,78
149568,note_off,,,,,576,0,1,,,,,0,,,88,0
149568,note_off,,,,,192,0,4,,,,,3,,,49,0
149568,note_off,,,,,192,0,2,,,,,1,,,69,0
149568,note_on,,,,,0,0,1,,,,,0,,,87,103
149568,note_on,,,,,0,0,4,,,,,3,,,45,78
149568,note_off,,,,,384,0,3,,,,,2,,,64,0
149664,note_on,,,,,0,0,1,,,,,0,,,85,103
149664,note_off,,,,,96,0,1,,,,,0,,,87,0
149664,note_off,,,,,96,0,4,,,,,3,,,45,0
149760,note_on,,,,,192,0,3,,,,,2,,,59,87
149760,note_on,,,,,96,0,4,,,,,3,,,47,78
149760,note_on,,,,,0,0,1,,,,,0,,,85,103
149760,note_off,,,,,96,0,1,,,,,0,,,85,0
149760,note_on,,,,,192,0,2,,,,,1,,,64,96
149856,note_on,,,,,0,0,3,,,,,2,,,64,87
149856,note_off,,,,,96,0,2,,,,,1,,,64,0
149856,note_off,,,,,96,0,1,,,,,0,,,85,0
149856,note_on,,,,,0,0,1,,,,,0,,,83,103
149856,note_off,,,,,96,0,3,,,,,2,,,59,0
149856,note_on,,,,,0,0,2,,,,,1,,,68,96
149952,note_off,,,,,96,0,3,,,,,2,,,64,0
149952,note_on,,,,,0,0,3,,,,,2,,,64,87
149952,note_on,,,,,0,0,2,,,,,1,,,68,96
149952,note_off,,,,,96,0,2,,,,,1,,,68,0
149952,note_on,,,,,0,0,1,,,,,0,,,83,103
149952,note_off,,,,,192,0,4,,,,,3,,,47,0
149952,note_off,,,,,96,0,1,,,,,0,,,83,0
150048,note_on,,,,,0,0,1,,,,,0,,,80,103
150048,note_off,,,,,96,0,1,,,,,0,,,83,0
150048,note_off,,,,,96,0,2,,,,,1,,,68,0
150048,note_on,,,,,0,0,3,,,,,2,,,68,87
150048,note_off,,,,,96,0,3,,,,,2,,,64,0
150048,note_on,,,,,0,0,2,,,,,1,,,71,96
150144,note_off,,,,,96,0,2,,,,,1,,,71,0
150144,note_on,,,,,0,0,2,,,,,1,,,63,96
150144,note_off,,,,,96,0,1,,,,,0,,,80,0
150144,note_on,,,,,0,0,1,,,,,0,,,83,103
150144,note_on,,,,,192,0,4,,,,,3,,,47,78
150144,note_on,,,,,0,0,3,,,,,2,,,59,87
150144,note_off,,,,,96,0,3,,,,,2,,,68,0
150240,note_on,,,,,0,0,1,,,,,0,,,81,103
150240,note_off,,,,,96,0,1,,,,,0,,,83,0
150240,note_off,,,,,96,0,2,,,,,1,,,63,0
150240,note_on,,,,,0,0,2,,,,,1,,,66,96
150240,note_off,,,,,96,0,3,,,,,2,,,59,0
150240,note_on,,,,,0,0,3,,,,,2,,,63,87
150336,note_on,,,,,0,0,1,,,,,0,,,81,103
150336,note_on,,,,,0,0,3,,,,,2,,,63,87
150336,note_off,,,,,96,0,3,,,,,2,,,63,0
150336,note_on,,,,,0,0,2,,,,,1,,,66,96
150336,note_off,,,,,96,0,2,,,,,1,,,66,0
150336,note_off,,,,,192,0,4,,,,,3,,,47,0
150336,note_off,,,,,96,0,1,,,,,0,,,81,0
150432,note_on,,,,,0,0,1,,,,,0,,,78,103
150432,note_off,,,,,96,0,1,,,,,0,,,81,0
150432,note_off,,,,,96,0,3,,,,,2,,,63,0
150432,note_on,,,,,0,0,2,,,,,1,,,69,96
150432,note_on,,,,,0,0,3,,,,,2,,,66,87
150432,note_off,,,,,96,0,2,,,,,1,,,66,0
150528,note_on,,,,,192,0,4,,,,,3,,,52,78
150528,note_off,,,,,96,0,3,,,,,2,,,66,0
150528,note_on,,,,,0,0,2,,,,,1,,,68,96
150528,note_off,,,,,96,0,2,,,,,1,,,69,0
150528,note_on,,,,,0,0,3,,,,,2,,,64,87
150528,note_on,,,,,0,0,1,,,,,0,,,88,103
150528,note_off,,,,,96,0,1,,,,,0,,,78,0
150624,note_off,,,,,96,0,2,,,,,1,,,68,0
150624,note_off,,,,,96,0,3,,,,,2,,,64,0
150624,note_off,,,,,96,0,4,,,,,3,,,52,0
150720,note_on,,,,,96,0,3,,,,,2,,,64,87
150720,note_on,,,,,96,0,4,,,,,3,,,50,78
150720,note_on,,,,,96,0,2,,,,,1,,,68,96
150912,note_off,,,,,192,0,2,,,,,1,,,68,0
150912,note_on,,,,,0,0,2,,,,,1,,,69,96
150912,note_on,,,,,0,0,4,,,,,3,,,49,78
150912,note_off,,,,,192,0,4,,,,,3,,,50,0
151104,note_off,,,,,384,0,3,,,,,2,,,64,0
151104,note_off,,,,,192,0,2,,,,,1,,,69,0
151104,note_off,,,,,192,0,4,,,,,3,,,49,0
151104,note_on,,,,,0,0,4,,,,,3,,,45,78
151104,note_on,,,,,0,0,1,,,,,0,,,87,103
151104,note_off,,,,,576,0,1,,,,,0,,,88,0
151200,note_off,,,,,96,0,4,,,,,3,,,45,0
151200,note_on,,,,,0,0,1,,,,,0,,,85,103
151200,note_off,,,,,96,0,1,,,,,0,,,87,0
151296,note_on,,,,,96,0,4,,,,,3,,,47,78
151296,note_on,,,,,0,0,1,,,,,0,,,85,103
151296,note_off,,,,,96,0,1,,,,,0,,,85,0
151296,note_on,,,,,192,0,3,,,,,2,,,59,87
151296,note_on,,,,,192,0,2,,,,,1,,,64,96
151392,note_off,,,,,96,0,3,,,,,2,,,59,0
151392,note_on,,,,,0,0,3,,,,,2,,,64,87
151392,note_off,,,,,96,0,2,,,,,1,,,64,0
151392,note_on,,,,,0,0,1,,,,,0,,,83,103
151392,note_off,,,,,96,0,1,,,,,0,,,85,0
151392,note_on,,,,,0,0,2,,,,,1,,,68,96
151488,note_on,,,,,0,0,1,,,,,0,,,83,103
151488,note_off,,,,,96,0,2,,,,,1,,,68,0
151488,note_on,,,,,0,0,3,,,,,2,,,64,87
151488,note_on,,,,,0,0,2,,,,,1,,,68,96
151488,note_off,,,,,192,0,4,,,,,3,,,47,0
151488,note_on,,,,,0,0,4,,,,,3,,,47,78
151488,note_off,,,,,96,0,3,,,,,2,,,64,0
151488,note_off,,,,,96,0,1,,,,,0,,,83,0
151584,note_on,,,,,0,0,3,,,,,2,,,68,87
151584,note_off,,,,,96,0,3,,,,,2,,,64,0
151584,note_off,,,,,96,0,2,,,,,1,,,68,0
151584,note_on,,,,,0,0,2,,,,,1,,,71,96
151584,note_on,,,,,0,0,1,,,,,0,,,80,103
151584,note_off,,,,,96,0,1,,,,,0,,,83,0
151680,note_on,,,,,0,0,1,,,,,0,,,83,103
151680,note_on,,,,,0,0,3,,,,,2,,,59,87
151680,note_off,,,,,96,0,1,,,,,0,,,80,0
151680,note_off,,,,,96,0,3,,,,,2,,,68,0
151680,note_off,,,,,96,0,2,,,,,1,,,71,0
151680,note_on,,,,,0,0,2,,,,,1,,,63,96
151776,note_off,,,,,96,0,3,,,,,2,,,59,0
151776,note_on,,,,,0,0,3,,,,,2,,,63,87
151776,note_off,,,,,96,0,1,,,,,0,,,83,0
151776,note_on,,,,,0,0,1,,,,,0,,,81,103
151776,note_on,,,,,0,0,2,,,,,1,,,66,96
151776,note_off,,,,,96,0,2,,,,,1,,,63,0
151872,note_off,,,,,96,0,2,,,,,1,,,66,0
151872,note_off,,,,,384,0,4,,,,,3,,,47,0
151872,note_off,,,,,96,0,3,,,,,2,,,63,0
151872,note_on,,,,,0,0,2,,,,,1,,,66,96
151872,note_on,,,,,0,0,3,,,,,2,,,63,87
151872,note_on,,,,,0,0,1,,,,,0,,,81,103
151872,note_off,,,,,96,0,1,,,,,0,,,81,0
151872,note_on,,,,,0,0,4,,,,,3,,,47,78
151968,note_off,,,,,96,0,3,,,,,2,,,63,0
151968,note_on,,,,,0,0,3,,,,,2,,,66,87
151968,note_off,,,,,96,0,2,,,,,1,,,66,0
151968,note_off,,,,,96,0,1,,,,,0,,,81,0
151968,note_on,,,,,0,0,1,,,,,0,,,78,103
151968,note_on,,,,,0,0,2,,,,,1,,,69,96
152064,note_on,,,,,0,0,1,,,,,0,,,85,103
152064,note_on,,,,,0,0,2,,,,,1,,,64,96
152064,note_off,,,,,96,0,3,,,,,2,,,66,0
152064,note_on,,,,,0,0,3,,,,,2,,,59,87
152064,note_off,,,,,96,0,2,,,,,1,,,69,0
152064,note_off,,,,,96,0,1,,,,,0,,,78,0
152160,note_on,,,,,0,0,2,,,,,1,,,68,96
152160,note_off,,,,,96,0,2,,,,,1,,,64,0
152160,note_on,,,,,0,0,1,,,,,0,,,83,103
152160,note_off,,,,,96,0,1,,,,,0,,,85,0
152160,note_on,,,,,0,0,3,,,,,2,,,64,87
152160,note_off,,,,,96,0,3,,,,,2,,,59,0
152256,note_on,,,,,0,0,1,,,,,0,,,83,103
152256,note_on,,,,,0,0,2,,,,,1,,,68,96
152256,note_off,,,,,384,0,4,,,,,3,,,47,0
152256,note_on,,,,,0,0,4,,,,,3,,,47,78
152256,note_off,,,,,96,0,3,,,,,2,,,64,0
152256,note_on,,,,,0,0,3,,,,,2,,,64,87
152256,note_off,,,,,96,0,2,,,,,1,,,68,0
152256,note_off,,,,,96,0,1,,,,,0,,,83,0
152352,note_off,,,,,96,0,2,,,,,1,,,68,0
152352,note_off,,,,,96,0,1,,,,,0,,,83,0
152352,note_on,,,,,0,0,1,,,,,0,,,80,103
152352,note_off,,,,,96,0,3,,,,,2,,,64,0
152352,note_on,,,,,0,0,3,,,,,2,,,68,87
152352,note_on,,,,,0,0,2,,,,,1,,,71,96
152448,note_off,,,,,96,0,2,,,,,1,,,71,0
152448,note_on,,,,,0,0,2,,,,,1,,,63,96
152448,note_on,,,,,0,0,1,,,,,0,,,83,103
152448,note_off,,,,,96,0,1,,,,,0,,,80,0
152448,note_on,,,,,0,0,3,,,,,2,,,59,87
152448,note_off,,,,,96,0,3,,,,,2,,,68,0
152544,note_off,,,,,96,0,3,,,,,2,,,59,0
152544,note_on,,,,,0,0,3,,,,,2,,,63,87
152544,note_off,,,,,96,0,1,,,,,0,,,83,0
152544,note_on,,,,,0,0,1,,,,,0,,,81,103
152544,note_off,,,,,96,0,2,,,,,1,,,63,0
152544,note_on,,,,,0,0,2,,,,,1,,,66,96
152640,note_off,,,,,96,0,1,,,,,0,,,81,0
152640,note_on,,,,,0,0,4,,,,,3,,,47,78
152640,note_off,,,,,96,0,2,,,,,1,,,66,0
152640,note_on,,,,,0,0,2,,,,,1,,,66,96
152640,note_on,,,,,0,0,3,,,,,2,,,63,87
152640,note_on,,,,,0,0,1,,,,,0,,,81,103
152640,note_off,,,,,384,0,4,,,,,3,,,47,0
152640,note_off,,,,,96,0,3,,,,,2,,,63,0
152736,note_off,,,,,96,0,2,,,,,1,,,66,0
152736,note_on,,,,,0,0,2,,,,,1,,,69,96
152736,note_off,,,,,96,0,3,,,,,2,,,63,0
152736,note_on,,,,,0,0,3,,,,,2,,,66,87
152736,note_on,,,,,0,0,1,,,,,0,,,78,103
152736,note_off,,,,,96,0,1,,,,,0,,,81,0
152832,note_off,,,,,96,0,3,,,,,2,,,66,0
152832,note_on,,,,,0,0,3,,,,,2,,,59,87
152832,note_on,,,,,0,0,2,,,,,1,,,64,96
152832,note_off,,,,,96,0,1,,,,,0,,,78,0
152832,note_on,,,,,0,0,1,,,,,0,,,85,103
152832,note_off,,,,,96,0,2,,,,,1,,,69,0
152928,note_off,,,,,96,0,3,,,,,2,,,59,0
152928,note_off,,,,,96,0,2,,,,,1,,,64,0
152928,note_on,,,,,0,0,2,,,,,1,,,68,96
152928,note_on,,,,,0,0,1,,,,,0,,,83,103
152928,note_on,,,,,0,0,3,,,,,2,,,64,87
152928,note_off,,,,,96,0,1,,,,,0,,,85,0
153024,note_off,,,,,96,0,1,,,,,0,,,83,0
153024,note_off,,,,,384,0,4,,,,,3,,,47,0
153024,note_on,,,,,0,0,4,,,,,3,,,47,78
153024,note_off,,,,,96,0,3,,,,,2,,,64,0
153024,note_on,,,,,0,0,1,,,,,0,,,83,103
153024,note_on,,,,,0,0,2,,,,,1,,,68,96
153024,note_off,,,,,96,0,2,,,,,1,,,68,0
153024,note_on,,,,,0,0,3,,,,,2,,,64,87
153120,note_off,,,,,96,0,1,,,,,0,,,83,0
153120,note_on,,,,,0,0,3,,,,,2,,,68,87
153120,note_on,,,,,0,0,2,,,,,1,,,71,96
153120,note_off,,,,,96,0,2,,,,,1,,,68,0
153120,note_off,,,,,96,0,3,,,,,2,,,64,0
153120,note_on,,,,,0,0,1,,,,,0,,,80,103
153216,note_off,,,,,96,0,2,,,,,1,,,71,0
153216,note_on,,,,,0,0,4,,,,,3,,,47,78
153216,note_off,,,,,192,0,4,,,,,3,,,47,0
153216,note_on,,,,,0,0,2,,,,,1,,,63,96
153216,note_on,,,,,0,0,3,,,,,2,,,59,87
153216,note_off,,,,,96,0,1,,,,,0,,,80,0
153216,note_off,,,,,96,0,3,,,,,2,,,68,0
153216,note_on,,,,,0,0,1,,,,,0,,,83,103
153312,note_off,,,,,96,0,3,,,,,2,,,59,0
153312,note_on,,,,,0,0,3,,,,,2,,,63,87
153312,note_on,,,,,0,0,2,,,,,1,,,66,96
153312,note_off,,,,,96,0,2,,,,,1,,,63,0
153312,note_off,,,,,96,0,1,,,,,0,,,83,0
153312,note_on,,,,,0,0,1,,,,,0,,,81,103
153408,note_off,,,,,96,0,3,,,,,2,,,63,0
153408,note_on,,,,,0,0,1,,,,,0,,,81,103
153408,note_off,,,,,96,0,1,,,,,0,,,81,0
153408,note_on,,,,,0,0,4,,,,,3,,,47,78
153408,note_off,,,,,96,0,2,,,,,1,,,66,0
153408,note_on,,,,,0,0,2,,,,,1,,,66,96
153408,note_off,,,,,192,0,4,,,,,3,,,47,0
153408,note_on,,,,,0,0,3,,,,,2,,,63,87
153504,note_off,,,,,96,0,3,,,,,2,,,63,0
153504,note_on,,,,,0,0,3,,,,,2,,,66,87
153504,note_off,,,,,96,0,1,,,,,0,,,81,0
153504,note_off,,,,,96,0,2,,,,,1,,,66,0
153504,note_on,,,,,0,0,2,,,,,1,,,69,96
153504,note_on,,,,,0,0,1,,,,,0,,,78,103
153600,note_on,,,,,0,0,1,,,,,0,,,76,103
153600,note_off,,,,,96,0,1,,,,,0,,,78,0
153600,note_off,,,,,192,0,4,,,,,3,,,47,0
153600,note_on,,,,,0,0,2,,,,,1,,,64,96
153600,note_on,,,,,0,0,3,,,,,2,,,64,87
153600,note_off,,,,,96,0,2,,,,,1,,,69,0
153600,note_on,,,,,0,0,4,,,,,3,,,64,78
153600,note_off,,,,,96,0,3,,,,,2,,,66,0
153696,note_off,,,,,96,0,2,,,,,1,,,64,0
153696,note_on,,,,,0,0,4,,,,,3,,,62,78
153696,note_off,,,,,96,0,3,,,,,2,,,64,0
153696,note_on,,,,,0,0,3,,,,,2,,,62,87
153696,note_on,,,,,0,0,2,,,,,1,,,76,96
153696,note_on,,,,,0,0,2,,,,,1,,,64,96
153696,note_on,,,,,0,0,1,,,,,0,,,88,103
153696,note_off,,,,,96,0,1,,,,,0,,,76,0
153696,note_off,,,,,96,0,4,,,,,3,,,64,0
153792,note_on,,,,,0,0,3,,,,,2,,,62,87
153792,note_off,,,,,96,0,4,,,,,3,,,62,0
153792,note_on,,,,,0,0,4,,,,,3,,,62,78
153792,note_off,,,,,96,0,3,,,,,2,,,62,0
153888,note_on,,,,,0,0,2,,,,,1,,,76,96
153888,note_off,,,,,96,0,4,,,,,3,,,62,0
153888,note_on,,,,,0,0,4,,,,,3,,,59,78
153888,note_on,,,,,0,0,1,,,,,0,,,88,103
153888,note_off,,,,,192,0,2,,,,,1,,,76,0
153888,note_off,,,,,192,0,1,,,,,0,,,88,0
153888,note_on,,,,,0,0,2,,,,,1,,,64,96
153888,note_off,,,,,96,0,3,,,,,2,,,62,0
153888,note_off,,,,,0,0,2,,,,,1,,,64,0
153888,note_on,,,,,0,0,3,,,,,2,,,59,87
153984,note_off,,,,,96,0,4,,,,,3,,,59,0
153984,note_on,,,,,0,0,3,,,,,2,,,62,87
153984,note_off,,,,,96,0,3,,,,,2,,,59,0
153984,note_on,,,,,0,0,4,,,,,3,,,62,78
154080,note_off,,,,,0,0,2,,,,,1,,,64,0
154080,note_on,,,,,0,0,2,,,,,1,,,76,96
154080,note_off,,,,,96,0,3,,,,,2,,,62,0
154080,note_on,,,,,0,0,3,,,,,2,,,60,87
154080,note_on,,,,,0,0,2,,,,,1,,,64,96
154080,note_off,,,,,192,0,1,,,,,0,,,88,0
154080,note_on,,,,,0,0,1,,,,,0,,,88,103
154080,note_on,,,,,0,0,4,,,,,3,,,60,78
154080,note_off,,,,,96,0,4,,,,,3,,,62,0
154080,note_off,,,,,192,0,2,,,,,1,,,76,0
154176,note_on,,,,,0,0,4,,,,,3,,,60,78
154176,note_on,,,,,0,0,3,,,,,2,,,60,87
154176,note_off,,,,,96,0,4,,,,,3,,,60,0
154176,note_off,,,,,96,0,3,,,,,2,,,60,0
154272,note_on,,,,,0,0,2,,,,,1,,,64,96
154272,note_off,,,,,96,0,3,,,,,2,,,60,0
154272,note_off,,,,,192,0,1,,,,,0,,,88,0
154272,note_on,,,,,0,0,3,,,,,2,,,57,87
154272,note_on,,,,,0,0,1,,,,,0,,,88,103
154272,note_off,,,,,0,0,2,,,,,1,,,64,0
154272,note_off,,,,,192,0,2,,,,,1,,,76,0
154272,note_off,,,,,96,0,4,,,,,3,,,60,0
154272,note_on,,,,,0,0,2,,,,,1,,,76,96
154272,note_on,,,,,0,0,4,,,,,3,,,57,78
154368,note_on,,,,,0,0,4,,,,,3,,,60,78
154368,note_on,,,,,0,0,3,,,,,2,,,60,87
154368,note_off,,,,,96,0,3,,,,,2,,,57,0
154368,note_off,,,,,96,0,4,,,,,3,,,57,0
154464,note_on,,,,,0,0,1,,,,,0,,,88,103
154464,note_on,,,,,0,0,3,,,,,2,,,59,87
154464,note_off,,,,,96,0,3,,,,,2,,,60,0
154464,note_on,,,,,0,0,2,,,,,1,,,76,96
154464,note_on,,,,,0,0,2,,,,,1,,,64,96
154464,note_off,,,,,0,0,2,,,,,1,,,76,0
154464,note_off,,,,,192,0,2,,,,,1,,,64,0
154464,note_on,,,,,0,0,4,,,,,3,,,59,78
154464,note_off,,,,,96,0,4,,,,,3,,,60,0
154464,note_off,,,,,192,0,1,,,,,0,,,88,0
154560,note_on,,,,,0,0,4,,,,,3,,,59,78
154560,note_off,,,,,96,0,4,,,,,3,,,59,0
154560,note_off,,,,,96,0,3,,,,,2,,,59,0
154560,note_on,,,,,0,0,3,,,,,2,,,59,87
154656,note_off,,,,,192,0,2,,,,,1,,,64,0
154656,note_off,,,,,0,0,2,,,,,1,,,76,0
154656,note_on,,,,,0,0,2,,,,,1,,,64,96
154656,note_off,,,,,96,0,4,,,,,3,,,59,0
154656,note_on,,,,,0,0,3,,,,,2,,,56,87
154656,note_off,,,,,192,0,1,,,,,0,,,88,0
154656,note_on,,,,,0,0,1,,,,,0,,,88,103
154656,note_on,,,,,0,0,2,,,,,1,,,76,96
154656,note_on,,,,,0,0,4,,,,,3,,,56,78
154656,note_off,,,,,96,0,3,,,,,2,,,59,0
154752,note_off,,,,,96,0,3,,,,,2,,,56,0
154752,note_on,,,,,0,0,3,,,,,2,,,59,87
154752,note_off,,,,,96,0,4,,,,,3,,,56,0
154752,note_on,,,,,0,0,4,,,,,3,,,59,78
154848,note_on,,,,,0,0,2,,,,,1,,,76,96
154848,note_on,,,,,0,0,4,,,,,3,,,57,78
154848,note_on,,,,,0,0,2,,,,,1,,,64,96
154848,note_off,,,,,0,0,2,,,,,1,,,76,0
154848,note_on,,,,,0,0,3,,,,,2,,,57,87
154848,note_off,,,,,96,0,4,,,,,3,,,59,0
154848,note_off,,,,,96,0,3,,,,,2,,,59,0
154848,note_off,,,,,192,0,2,,,,,1,,,64,0
154848,note_off,,,,,192,0,1,,,,,0,,,88,0
154848,note_on,,,,,0,0,1,,,,,0,,,88,103
154944,note_off,,,,,96,0,4,,,,,3,,,57,0
154944,note_off,,,,,96,0,3,,,,,2,,,57,0
154944,note_on,,,,,0,0,3,,,,,2,,,57,87
154944,note_on,,,,,0,0,4,,,,,3,,,57,78
155040,note_on,,,,,0,0,2,,,,,1,,,64,96
155040,note_off,,,,,96,0,4,,,,,3,,,57,0
155040,note_off,,,,,192,0,1,,,,,0,,,88,0
155040,note_on,,,,,0,0,1,,,,,0,,,88,103
155040,note_off,,,,,96,0,3,,,,,2,,,57,0
155040,note_on,,,,,0,0,3,,,,,2,,,54,87
155040,note_off,,,,,192,0,2,,,,,1,,,64,0
155040,note_on,,,,,0,0,2,,,,,1,,,76,96
155040,note_on,,,,,0,0,4,,,,,3,,,54,78
155040,note_off,,,,,0,0,2,,,,,1,,,76,0
155136,note_on,,,,,0,0,3,,,,,2,,,52,87
155136,note_off,,,,,96,0,3,,,,,2,,,54,0
155136,note_on,,,,,0,0,4,,,,,3,,,52,78
155136,note_off,,,,,96,0,4,,,,,3,,,54,0
155232,note_off,,,,,192,0,2,,,,,1,,,64,0
155232,note_on,,,,,0,0,2,,,,,1,,,74,96
155232,note_off,,,,,192,0,1,,,,,0,,,88,0
155232,note_on,,,,,0,0,4,,,,,3,,,52,78
155232,note_off,,,,,96,0,4,,,,,3,,,52,0
155232,note_off,,,,,0,0,2,,,,,1,,,76,0
155232,note_on,,,,,0,0,1,,,,,0,,,86,103
155232,note_on,,,,,0,0,3,,,,,2,,,52,87
155232,note_off,,,,,96,0,3,,,,,2,,,52,0
155328,note_off,,,,,96,0,1,,,,,0,,,86,0
155328,note_on,,,,,0,0,2,,,,,1,,,74,96
155328,note_on,,,,,0,0,1,,,,,0,,,86,103
155328,note_off,,,,,96,0,2,,,,,1,,,74,0
155424,note_off,,,,,96,0,2,,,,,1,,,74,0
155424,note_on,,,,,0,0,2,,,,,1,,,71,96
155424,note_off,,,,,96,0,1,,,,,0,,,86,0
155424,note_on,,,,,0,0,3,,,,,2,,,52,87
155424,note_off,,,,,192,0,3,,,,,2,,,52,0
155424,note_on,,,,,0,0,4,,,,,3,,,52,78
155424,note_off,,,,,192,0,4,,,,,3,,,52,0
155424,note_on,,,,,0,0,1,,,,,0,,,83,103
155520,note_on,,,,,0,0,1,,,,,0,,,86,103
155520,note_on,,,,,0,0,2,,,,,1,,,74,96
155520,note_off,,,,,96,0,1,,,,,0,,,83,0
155520,note_off,,,,,96,0,2,,,,,1,,,71,0
155616,note_on,,,,,0,0,4,,,,,3,,,52,78
155616,note_off,,,,,192,0,4,,,,,3,,,52,0
155616,note_on,,,,,0,0,3,,,,,2,,,52,87
155616,note_off,,,,,192,0,3,,,,,2,,,52,0
155616,note_off,,,,,96,0,1,,,,,0,,,86,0
155616,note_on,,,,,0,0,2,,,,,1,,,72,96
155616,note_off,,,,,96,0,2,,,,,1,,,74,0
155616,note_on,,,,,0,0,1,,,,,0,,,84,103
155712,note_off,,,,,96,0,1,,,,,0,,,84,0
155712,note_on,,,,,0,0,1,,,,,0,,,84,103
155712,note_off,,,,,96,0,2,,,,,1,,,72,0
155712,note_on,,,,,0,0,2,,,,,1,,,72,96
155808,note_on,,,,,0,0,1,,,,,0,,,81,103
155808,note_off,,,,,96,0,2,,,,,1,,,72,0
155808,note_on,,,,,0,0,3,,,,,2,,,52,87
155808,note_on,,,,,0,0,4,,,,,3,,,52,78
155808,note_off,,,,,192,0,4,,,,,3,,,52,0
155808,note_off,,,,,192,0,3,,,,,2,,,52,0
155808,note_on,,,,,0,0,2,,,,,1,,,69,96
155808,note_off,,,,,96,0,1,,,,,0,,,84,0
155904,note_off,,,,,96,0,1,,,,,0,,,81,0
155904,note_on,,,,,0,0,1,,,,,0,,,84,103
155904,note_off,,,,,96,0,2,,,,,1,,,69,0
155904,note_on,,,,,0,0,2,,,,,1,,,72,96
156000,note_off,,,,,96,0,2,,,,,1,,,72,0
156000,note_on,,,,,0,0,2,,,,,1,,,71,96
156000,note_off,,,,,192,0,4,,,,,3,,,52,0
156000,note_on,,,,,0,0,4,,,,,3,,,52,78
156000,note_on,,,,,0,0,1,,,,,0,,,83,103
156000,note_off,,,,,96,0,1,,,,,0,,,84,0
156000,note_on,,,,,0,0,3,,,,,2,,,52,87
156000,note_off,,,,,192,0,3,,,,,2,,,52,0
156096,note_on,,,,,0,0,2,,,,,1,,,71,96
156096,note_off,,,,,96,0,1,,,,,0,,,83,0
156096,note_off,,,,,96,0,2,,,,,1,,,71,0
156096,note_on,,,,,0,0,1,,,,,0,,,83,103
156192,note_off,,,,,192,0,3,,,,,2,,,52,0
156192,note_on,,,,,0,0,3,,,,,2,,,52,87
156192,note_off,,,,,96,0,2,,,,,1,,,71,0
156192,note_on,,,,,0,0,4,,,,,3,,,52,78
156192,note_on,,,,,0,0,1,,,,,0,,,80,103
156192,note_off,,,,,192,0,4,,,,,3,,,52,0
156192,note_off,,,,,96,0,1,,,,,0,,,83,0
156192,note_on,,,,,0,0,2,,,,,1,,,68,96
156288,note_off,,,,,96,0,1,,,,,0,,,80,0
156288,note_on,,,,,0,0,1,,,,,0,,,83,103
156288,note_on,,,,,0,0,2,,,,,1,,,71,96
156288,note_off,,,,,96,0,2,,,,,1,,,68,0
156384,note_on,,,,,0,0,4,,,,,3,,,52,78
156384,note_off,,,,,192,0,4,,,,,3,,,52,0
156384,note_on,,,,,0,0,3,,,,,2,,,52,87
156384,note_off,,,,,192,0,3,,,,,2,,,52,0
156384,note_off,,,,,96,0,1,,,,,0,,,83,0
156384,note_on,,,,,0,0,1,,,,,0,,,81,103
156384,note_on,,,,,0,0,2,,,,,1,,,69,96
156384,note_off,,,,,96,0,2,,,,,1,,,71,0
156480,note_on,,,,,0,0,1,,,,,0,,,81,103
156480,note_off,,,,,96,0,1,,,,,0,,,81,0
156480,note_on,,,,,0,0,2,,,,,1,,,69,96
156480,note_off,,,,,96,0,2,,,,,1,,,69,0
156576,note_on,,,,,0,0,3,,,,,2,,,52,87
156576,note_off,,,,,96,0,1,,,,,0,,,81,0
156576,note_on,,,,,0,0,1,,,,,0,,,78,103
156576,note_on,,,,,0,0,4,,,,,3,,,52,78
156576,note_off,,,,,192,0,4,,,,,3,,,52,0
156576,note_on,,,,,0,0,2,,,,,1,,,66,96
156576,note_off,,,,,192,0,3,,,,,2,,,52,0
156576,note_off,,,,,96,0,2,,,,,1,,,69,0
156672,note_off,,,,,96,0,1,,,,,0,,,78,0
156672,note_on,,,,,0,0,1,,,,,0,,,76,103
156672,note_off,,,,,96,0,4,,,,,3,,,52,0
156672,note_on,,,,,0,0,4,,,,,3,,,52,78
156672,note_on,,,,,0,0,3,,,,,2,,,64,87
156672,note_off,,,,,96,0,2,,,,,1,,,66,0
156672,note_on,,,,,0,0,2,,,,,1,,,64,96
156672,note_off,,,,,96,0,3,,,,,2,,,52,0
156768,note_off,,,,,96,0,3,,,,,2,,,64,0
156768,note_on,,,,,0,0,3,,,,,2,,,62,87
156864,note_off,,,,,192,0,1,,,,,0,,,76,0
156864,note_on,,,,,0,0,1,,,,,0,,,68,103
156864,note_off,,,,,96,0,3,,,,,2,,,62,0
156864,note_on,,,,,0,0,3,,,,,2,,,62,87
156960,note_off,,,,,96,0,3,,,,,2,,,62,0
156960,note_on,,,,,0,0,3,,,,,2,,,59,87
157056,note_off,,,,,384,0,4,,,,,3,,,52,0
157056,note_on,,,,,0,0,3,,,,,2,,,62,87
157056,note_off,,,,,96,0,3,,,,,2,,,59,0
157152,note_off,,,,,96,0,3,,,,,2,,,62,0
157152,note_on,,,,,0,0,3,,,,,2,,,60,87
157248,note_off,,,,,96,0,3,,,,,2,,,60,0
157248,note_off,,,,,384,0,1,,,,,0,,,68,0
157248,note_on,,,,,0,0,3,,,,,2,,,60,87
157248,note_on,,,,,0,0,1,,,,,0,,,69,103
157344,note_off,,,,,96,0,3,,,,,2,,,60,0
157344,note_on,,,,,0,0,3,,,,,2,,,57,87
157440,note_off,,,,,96,0,3,,,,,2,,,57,0
157440,note_on,,,,,0,0,3,,,,,2,,,60,87
157536,note_off,,,,,96,0,3,,,,,2,,,60,0
157536,note_on,,,,,0,0,3,,,,,2,,,59,87
157632,note_on,,,,,0,0,1,,,,,0,,,72,103
157632,note_off,,,,,96,0,3,,,,,2,,,59,0
157632,note_off,,,,,384,0,1,,,,,0,,,69,0
157632,note_on,,,,,0,0,3,,,,,2,,,59,87
157728,note_off,,,,,96,0,3,,,,,2,,,59,0
157728,note_on,,,,,0,0,3,,,,,2,,,56,87
157824,note_off,,,,,96,0,3,,,,,2,,,56,0
157824,note_on,,,,,0,0,3,,,,,2,,,59,87
157920,note_off,,,,,96,0,3,,,,,2,,,59,0
157920,note_on,,,,,0,0,3,,,,,2,,,57,87
158016,note_on,,,,,0,0,3,,,,,2,,,57,87
158016,note_off,,,,,96,0,3,,,,,2,,,57,0
158016,note_off,,,,,384,0,1,,,,,0,,,72,0
158016,note_on,,,,,0,0,1,,,,,0,,,75,103
158112,note_off,,,,,96,0,3,,,,,2,,,57,0
158112,note_on,,,,,0,0,3,,,,,2,,,54,87
158208,note_off,,,,,96,0,3,,,,,2,,,54,0
158208,note_on,,,,,0,0,3,,,,,2,,,52,87
158208,note_on,,,,,0,0,2,,,,,1,,,64,96
158208,note_off,,,,,192,0,1,,,,,0,,,75,0
158208,note_on,,,,,0,0,1,,,,,0,,,76,103
158208,note_on,,,,,1152,0,4,,,,,3,,,52,78
158208,note_off,,,,,1536,0,2,,,,,1,,,64,0
158304,note_off,,,,,96,0,4,,,,,3,,,52,0
158304,note_on,,,,,0,0,4,,,,,3,,,50,78
158400,note_on,,,,,0,0,2,,,,,1,,,68,96
158400,note_off,,,,,96,0,4,,,,,3,,,50,0
158400,note_on,,,,,0,0,4,,,,,3,,,50,78
158400,note_off,,,,,192,0,1,,,,,0,,,76,0
158400,note_on,,,,,0,0,1,,,,,0,,,80,103
158400,note_off,,,,,192,0,2,,,,,1,,,64,0
158496,note_off,,,,,96,0,4,,,,,3,,,50,0
158496,note_on,,,,,0,0,4,,,,,3,,,47,78
158592,note_off,,,,,96,0,4,,,,,3,,,47,0
158592,note_on,,,,,0,0,4,,,,,3,,,50,78
158688,note_off,,,,,96,0,4,,,,,3,,,50,0
158688,note_on,,,,,0,0,4,,,,,3,,,48,78
158784,note_on,,,,,0,0,1,,,,,0,,,81,103
158784,note_off,,,,,96,0,4,,,,,3,,,48,0
158784,note_on,,,,,0,0,4,,,,,3,,,48,78
158784,note_on,,,,,0,0,2,,,,,1,,,69,96
158784,note_off,,,,,384,0,2,,,,,1,,,68,0
158784,note_off,,,,,384,0,1,,,,,0,,,80,0
158880,note_off,,,,,96,0,4,,,,,3,,,48,0
158880,note_on,,,,,0,0,4,,,,,3,,,45,78
158976,note_off,,,,,96,0,4,,,,,3,,,45,0
158976,note_on,,,,,0,0,4,,,,,3,,,48,78
159072,note_off,,,,,96,0,4,,,,,3,,,48,0
159072,note_on,,,,,0,0,4,,,,,3,,,47,78
159168,note_off,,,,,384,0,1,,,,,0,,,81,0
159168,note_on,,,,,0,0,1,,,,,0,,,84,103
159168,note_on,,,,,0,0,2,,,,,1,,,72,96
159168,note_off,,,,,384,0,2,,,,,1,,,69,0
159168,note_off,,,,,96,0,4,,,,,3,,,47,0
159168,note_on,,,,,0,0,4,,,,,3,,,47,78
159264,note_off,,,,,96,0,4,,,,,3,,,47,0
159264,note_on,,,,,0,0,4,,,,,3,,,44,78
159360,note_on,,,,,0,0,4,,,,,3,,,47,78
159360,note_off,,,,,96,0,4,,,,,3,,,44,0
159456,note_off,,,,,96,0,4,,,,,3,,,47,0
159456,note_on,,,,,0,0,4,,,,,3,,,45,78
159552,note_on,,,,,0,0,2,,,,,1,,,75,96
159552,note_off,,,,,96,0,4,,,,,3,,,45,0
159552,note_on,,,,,0,0,4,,,,,3,,,45,78
159552,note_off,,,,,384,0,2,,,,,1,,,72,0
159552,note_off,,,,,384,0,1,,,,,0,,,84,0
159552,note_on,,,,,0,0,1,,,,,0,,,87,103
159648,note_off,,,,,96,0,4,,,,,3,,,45,0
159648,note_on,,,,,0,0,4,,,,,3,,,42,78
159744,note_off,,,,,192,0,1,,,,,0,,,87,0
159744,note_on,,,,,0,0,2,,,,,1,,,76,96
159744,note_on,,,,,0,0,1,,,,,0,,,88,103
159744,note_on,,,,,0,0,4,,,,,3,,,40,78
159744,note_off,,,,,96,0,4,,,,,3,,,42,0
159744,note_off,,,,,192,0,2,,,,,1,,,75,0
160128,note_on,,,,,0,0,4,,,,,3,,,47,78
160128,note_off,,,,,384,0,4,,,,,3,,,40,0
160224,note_off,,,,,96,0,4,,,,,3,,,47,0
160224,note_on,,,,,0,0,4,,,,,3,,,45,78
160320,note_on,,,,,0,0,1,,,,,0,,,87,103
160320,note_on,,,,,0,0,2,,,,,1,,,75,96
160320,note_on,,,,,0,0,4,,,,,3,,,45,78
160320,note_off,,,,,96,0,4,,,,,3,,,45,0
160320,note_off,,,,,576,0,1,,,,,0,,,88,0
160320,note_off,,,,,576,0,2,,,,,1,,,76,0
160416,note_off,,,,,96,0,4,,,,,3,,,45,0
160416,note_on,,,,,0,0,4,,,,,3,,,42,78
160512,note_on,,,,,0,0,4,,,,,3,,,40,78
160512,note_off,,,,,96,0,4,,,,,3,,,42,0
160512,note_off,,,,,192,0,2,,,,,1,,,75,0
160512,note_off,,,,,192,0,1,,,,,0,,,87,0
160512,note_on,,,,,0,0,1,,,,,0,,,88,103
160512,note_on,,,,,0,0,2,,,,,1,,,76,96
160896,note_on,,,,,0,0,4,,,,,3,,,47,78
160896,note_off,,,,,384,0,4,,,,,3,,,40,0
160992,note_off,,,,,96,0,4,,,,,3,,,47,0
160992,note_on,,,,,0,0,4,,,,,3,,,45,78
161088,note_off,,,,,576,0,1,,,,,0,,,88,0
161088,note_on,,,,,0,0,1,,,,,0,,,87,103
161088,note_on,,,,,0,0,4,,,,,3,,,45,78
161088,note_off,,,,,96,0,4,,,,,3,,,45,0
161088,note_off,,,,,576,0,2,,,,,1,,,76,0
161088,note_on,,,,,0,0,2,,,,,1,,,75,96
161184,note_on,,,,,0,0,4,,,,,3,,,42,78
161184,note_off,,,,,96,0,4,,,,,3,,,45,0
161280,note_on,,,,,0,0,1,,,,,0,,,88,103
161280,note_on,,,,,0,0,4,,,,,3,,,40,78
161280,note_off,,,,,96,0,4,,,,,3,,,42,0
161280,note_on,,,,,0,0,2,,,,,1,,,76,96
161280,note_off,,,,,192,0,1,,,,,0,,,87,0
161280,note_off,,,,,192,0,2,,,,,1,,,75,0
162432,note_off,,,,,1152,0,1,,,,,0,,,88,0
162432,note_off,,,,,1152,0,2,,,,,1,,,76,0
162432,note_off,,,,,1152,0,4,,,,,3,,,40,0
162432,note_off,,,,,4224,0,3,,,,,2,,,52,0
162624,note_on,,,,,192,0,1,,,,,0,,,76,103
162720,note_on,,,,,0,0,1,,,,,0,,,77,103
162720,note_off,,,,,96,0,1,,,,,0,,,76,0
162816,note_on,,,,,384,0,3,,,,,2,,,64,87
162816,note_off,,,,,96,0,1,,,,,0,,,77,0
162816,note_on,,,,,0,0,1,,,,,0,,,79,103
162816,note_on,,,,,384,0,2,,,,,1,,,67,96
162816,note_on,,,,,384,0,4,,,,,3,,,60,78
162864,note_off,,,,,48,0,2,,,,,1,,,67,0
162864,note_off,,,,,48,0,4,,,,,3,,,60,0
162864,note_off,,,,,48,0,3,,,,,2,,,64,0
162912,note_on,,,,,48,0,4,,,,,3,,,60,78
162912,note_on,,,,,48,0,2,,,,,1,,,67,96
162912,note_off,,,,,96,0,1,,,,,0,,,79,0
162912,note_on,,,,,0,0,1,,,,,0,,,77,103
162912,note_on,,,,,48,0,3,,,,,2,,,64,87
162960,note_off,,,,,48,0,3,,,,,2,,,64,0
162960,note_off,,,,,48,0,2,,,,,1,,,67,0
162960,note_off,,,,,48,0,4,,,,,3,,,60,0
163008,note_on,,,,,48,0,3,,,,,2,,,64,87
163008,note_off,,,,,96,0,1,,,,,0,,,77,0
163008,note_on,,,,,48,0,2,,,,,1,,,67,96
163008,note_on,,,,,0,0,1,,,,,0,,,76,103
163008,note_on,,,,,48,0,4,,,,,3,,,60,78
163056,note_off,,,,,48,0,2,,,,,1,,,67,0
163056,note_off,,,,,48,0,3,,,,,2,,,64,0
163056,note_off,,,,,48,0,4,,,,,3,,,60,0
163104,note_on,,,,,0,0,1,,,,,0,,,74,103
163104,note_on,,,,,48,0,4,,,,,3,,,60,78
163104,note_on,,,,,48,0,2,,,,,1,,,67,96
163104,note_on,,,,,48,0,3,,,,,2,,,64,87
163104,note_off,,,,,96,0,1,,,,,0,,,76,0
163152,note_off,,,,,48,0,3,,,,,2,,,64,0
163152,note_off,,,,,48,0,2,,,,,1,,,67,0
163152,note_off,,,,,48,0,4,,,,,3,,,60,0
163200,note_off,,,,,96,0,1,,,,,0,,,74,0
163200,note_on,,,,,48,0,2,,,,,1,,,67,96
163200,note_on,,,,,0,0,1,,,,,0,,,72,103
163200,note_on,,,,,48,0,4,,,,,3,,,60,78
163200,note_on,,,,,48,0,3,,,,,2,,,64,87
163248,note_off,,,,,48,0,4,,,,,3,,,60,0
163248,note_off,,,,,48,0,3,,,,,2,,,64,0
163248,note_off,,,,,48,0,2,,,,,1,,,67,0
163296,note_on,,,,,48,0,3,,,,,2,,,64,87
163296,note_on,,,,,48,0,4,,,,,3,,,60,78
163296,note_on,,,,,48,0,2,,,,,1,,,67,96
163296,note_off,,,,,96,0,1,,,,,0,,,72,0
163296,note_on,,,,,0,0,1,,,,,0,,,74,103
163344,note_off,,,,,48,0,3,,,,,2,,,64,0
163344,note_off,,,,,48,0,4,,,,,3,,,60,0
163344,note_off,,,,,48,0,2,,,,,1,,,67,0
163392,note_on,,,,,0,0,1,,,,,0,,,72,103
163392,note_off,,,,,96,0,1,,,,,0,,,74,0
163392,note_on,,,,,48,0,2,,,,,1,,,67,96
163392,note_on,,,,,48,0,4,,,,,3,,,60,78
163392,note_on,,,,,48,0,3,,,,,2,,,64,87
163440,note_off,,,,,48,0,3,,,,,2,,,64,0
163440,note_off,,,,,48,0,2,,,,,1,,,67,0
163440,note_off,,,,,48,0,4,,,,,3,,,60,0
163488,note_on,,,,,48,0,3,,,,,2,,,64,87
163488,note_on,,,,,0,0,1,,,,,0,,,71,103
163488,note_on,,,,,48,0,4,,,,,3,,,60,78
163488,note_on,,,,,48,0,2,,,,,1,,,67,96
163488,note_off,,,,,96,0,1,,,,,0,,,72,0
163536,note_off,,,,,48,0,4,,,,,3,,,60,0
163536,note_off,,,,,48,0,2,,,,,1,,,67,0
163536,note_off,,,,,48,0,3,,,,,2,,,64,0
163584,note_on,,,,,48,0,4,,,,,3,,,60,78
163584,note_on,,,,,48,0,2,,,,,1,,,69,96
163584,note_off,,,,,96,0,1,,,,,0,,,71,0
163584,note_on,,,,,0,0,1,,,,,0,,,69,103
163584,note_on,,,,,48,0,3,,,,,2,,,65,87
163680,note_off,,,,,96,0,2,,,,,1,,,69,0
163680,note_on,,,,,0,0,2,,,,,1,,,69,96
163680,note_off,,,,,96,0,3,,,,,2,,,65,0
163680,note_on,,,,,0,0,3,,,,,2,,,65,87
163680,note_on,,,,,0,0,4,,,,,3,,,60,78
163680,note_off,,,,,96,0,4,,,,,3,,,60,0
163776,note_off,,,,,96,0,3,,,,,2,,,65,0
163776,note_on,,,,,0,0,2,,,,,1,,,69,96
163776,note_off,,,,,96,0,2,,,,,1,,,69,0
163776,note_on,,,,,0,0,3,,,,,2,,,65,87
163776,note_on,,,,,0,0,4,,,,,3,,,60,78
163776,note_off,,,,,96,0,4,,,,,3,,,60,0
163776,note_on,,,,,0,0,1,,,,,0,,,74,103
163776,note_off,,,,,192,0,1,,,,,0,,,69,0
163872,note_on,,,,,0,0,4,,,,,3,,,60,78
163872,note_on,,,,,0,0,3,,,,,2,,,65,87
163872,note_off,,,,,96,0,4,,,,,3,,,60,0
163872,note_on,,,,,0,0,2,,,,,1,,,69,96
163872,note_off,,,,,96,0,2,,,,,1,,,69,0
163872,note_off,,,,,96,0,3,,,,,2,,,65,0
163968,note_off,,,,,96,0,3,,,,,2,,,65,0
163968,note_off,,,,,96,0,4,,,,,3,,,60,0
163968,note_on,,,,,0,0,4,,,,,3,,,60,78
163968,note_on,,,,,0,0,2,,,,,1,,,69,96
163968,note_off,,,,,96,0,2,,,,,1,,,69,0
163968,note_on,,,,,0,0,3,,,,,2,,,65,87
164064,note_off,,,,,96,0,2,,,,,1,,,69,0
164064,note_on,,,,,0,0,3,,,,,2,,,65,87
164064,note_on,,,,,0,0,2,,,,,1,,,69,96
164064,note_off,,,,,96,0,4,,,,,3,,,60,0
164064,note_on,,,,,0,0,4,,,,,3,,,60,78
164064,note_off,,,,,96,0,3,,,,,2,,,65,0
164160,note_off,,,,,96,0,2,,,,,1,,,69,0
164160,note_on,,,,,0,0,2,,,,,1,,,68,96
164160,note_on,,,,,0,0,1,,,,,0,,,72,103
164160,note_off,,,,,384,0,1,,,,,0,,,74,0
164160,note_on,,,,,0,0,4,,,,,3,,,60,78
164160,note_off,,,,,96,0,4,,,,,3,,,60,0
164160,note_on,,,,,0,0,3,,,,,2,,,65,87
164160,note_off,,,,,96,0,3,,,,,2,,,65,0
164256,note_on,,,,,0,0,3,,,,,2,,,65,87
164256,note_off,,,,,96,0,4,,,,,3,,,60,0
164256,note_on,,,,,0,0,4,,,,,3,,,60,78
164256,note_off,,,,,96,0,2,,,,,1,,,68,0
164256,note_off,,,,,96,0,3,,,,,2,,,65,0
164256,note_on,,,,,0,0,2,,,,,1,,,68,96
164352,note_off,,,,,192,0,1,,,,,0,,,72,0
164352,note_on,,,,,0,0,3,,,,,2,,,65,87
164352,note_off,,,,,96,0,3,,,,,2,,,65,0
164352,note_off,,,,,96,0,4,,,,,3,,,60,0
164352,note_on,,,,,0,0,4,,,,,3,,,60,78
164352,note_on,,,,,0,0,1,,,,,0,,,71,103
164352,note_off,,,,,96,0,2,,,,,1,,,68,0
164352,note_on,,,,,0,0,2,,,,,1,,,67,96
164448,note_on,,,,,0,0,2,,,,,1,,,67,96
164448,note_off,,,,,96,0,3,,,,,2,,,65,0
164448,note_on,,,,,0,0,4,,,,,3,,,60,78
164448,note_off,,,,,96,0,4,,,,,3,,,60,0
164448,note_on,,,,,0,0,1,,,,,0,,,72,103
164448,note_off,,,,,96,0,1,,,,,0,,,71,0
164448,note_off,,,,,96,0,2,,,,,1,,,67,0
164448,note_on,,,,,0,0,3,,,,,2,,,65,87
164544,note_off,,,,,96,0,4,,,,,3,,,60,0
164544,note_on,,,,,0,0,4,,,,,3,,,60,78
164544,note_off,,,,,96,0,3,,,,,2,,,65,0
164544,note_off,,,,,96,0,2,,,,,1,,,67,0
164544,note_on,,,,,0,0,2,,,,,1,,,67,96
164544,note_off,,,,,96,0,1,,,,,0,,,72,0
164544,note_on,,,,,0,0,1,,,,,0,,,74,103
164544,note_on,,,,,0,0,3,,,,,2,,,65,87
164640,note_on,,,,,0,0,2,,,,,1,,,67,96
164640,note_off,,,,,96,0,2,,,,,1,,,67,0
164640,note_off,,,,,96,0,4,,,,,3,,,60,0
164640,note_off,,,,,96,0,1,,,,,0,,,74,0
164640,note_on,,,,,0,0,1,,,,,0,,,71,103
164640,note_on,,,,,0,0,4,,,,,3,,,60,78
164640,note_off,,,,,96,0,3,,,,,2,,,65,0
164640,note_on,,,,,0,0,3,,,,,2,,,65,87
164736,note_off,,,,,96,0,4,,,,,3,,,60,0
164736,note_on,,,,,0,0,1,,,,,0,,,72,103
164736,note_off,,,,,96,0,1,,,,,0,,,71,0
164736,note_off,,,,,96,0,3,,,,,2,,,65,0
164736,note_on,,,,,0,0,3,,,,,2,,,64,87
164736,note_on,,,,,0,0,4,,,,,3,,,60,78
164736,note_off,,,,,96,0,2,,,,,1,,,67,0
164736,note_on,,,,,0,0,2,,,,,1,,,67,96
164832,note_on,,,,,0,0,1,,,,,0,,,74,103
164832,note_off,,,,,96,0,1,,,,,0,,,72,0
164832,note_off,,,,,96,0,3,,,,,2,,,64,0
164832,note_on,,,,,0,0,3,,,,,2,,,64,87
164832,note_off,,,,,96,0,2,,,,,1,,,67,0
164832,note_on,,,,,0,0,2,,,,,1,,,67,96
164832,note_off,,,,,96,0,4,,,,,3,,,60,0
164832,note_on,,,,,0,0,4,,,,,3,,,60,78
164928,note_off,,,,,96,0,3,,,,,2,,,64,0
164928,note_on,,,,,0,0,1,,,,,0,,,76,103
164928,note_off,,,,,96,0,1,,,,,0,,,74,0
164928,note_off,,,,,96,0,4,,,,,3,,,60,0
164928,note_on,,,,,0,0,4,,,,,3,,,60,78
164928,note_off,,,,,96,0,2,,,,,1,,,67,0
164928,note_on,,,,,0,0,2,,,,,1,,,67,96
164928,note_on,,,,,0,0,3,,,,,2,,,64,87
165024,note_on,,,,,0,0,3,,,,,2,,,64,87
165024,note_off,,,,,96,0,3,,,,,2,,,64,0
165024,note_off,,,,,96,0,1,,,,,0,,,76,0
165024,note_off,,,,,96,0,2,,,,,1,,,67,0
165024,note_on,,,,,0,0,1,,,,,0,,,72,103
165024,note_on,,,,,0,0,4,,,,,3,,,60,78
165024,note_off,,,,,96,0,4,,,,,3,,,60,0
165024,note_on,,,,,0,0,2,,,,,1,,,67,96
165120,note_on,,,,,0,0,3,,,,,2,,,59,87
165120,note_on,,,,,0,0,4,,,,,3,,,55,78
165120,note_off,,,,,96,0,4,,,,,3,,,60,0
165120,note_off,,,,,96,0,3,,,,,2,,,64,0
165120,note_on,,,,,0,0,1,,,,,0,,,79,103
165120,note_off,,,,,96,0,1,,,,,0,,,72,0
165120,note_on,,,,,0,0,2,,,,,1,,,67,96
165120,note_off,,,,,96,0,2,,,,,1,,,67,0
165216,note_on,,,,,0,0,2,,,,,1,,,67,96
165216,note_off,,,,,96,0,2,,,,,1,,,67,0
165216,note_off,,,,,96,0,4,,,,,3,,,55,0
165216,note_on,,,,,0,0,4,,,,,3,,,55,78
165216,note_off,,,,,96,0,1,,,,,0,,,79,0
165216,note_on,,,,,0,0,1,,,,,0,,,78,103
165216,note_on,,,,,0,0,3,,,,,2,,,59,87
165216,note_off,,,,,96,0,3,,,,,2,,,59,0
165312,note_off,,,,,96,0,4,,,,,3,,,55,0
165312,note_on,,,,,0,0,2,,,,,1,,,66,96
165312,note_off,,,,,96,0,1,,,,,0,,,78,0
165312,note_off,,,,,96,0,3,,,,,2,,,59,0
165312,note_on,,,,,0,0,3,,,,,2,,,60,87
165312,note_on,,,,,0,0,1,,,,,0,,,81,103
165312,note_off,,,,,96,0,2,,,,,1,,,67,0
165312,note_on,,,,,0,0,4,,,,,3,,,50,78
165408,note_off,,,,,96,0,1,,,,,0,,,81,0
165408,note_on,,,,,0,0,4,,,,,3,,,50,78
165408,note_off,,,,,96,0,2,,,,,1,,,66,0
165408,note_off,,,,,96,0,4,,,,,3,,,50,0
165408,note_off,,,,,96,0,3,,,,,2,,,60,0
165408,note_on,,,,,0,0,3,,,,,2,,,60,87
165408,note_on,,,,,0,0,2,,,,,1,,,66,96
165408,note_on,,,,,0,0,1,,,,,0,,,78,103
165504,note_off,,,,,96,0,1,,,,,0,,,78,0
165504,note_on,,,,,0,0,3,,,,,2,,,59,87
165504,note_off,,,,,96,0,2,,,,,1,,,66,0
165504,note_on,,,,,0,0,2,,,,,1,,,67,96
165504,note_on,,,,,0,0,4,,,,,3,,,55,78
165504,note_off,,,,,96,0,4,,,,,3,,,50,0
165504,note_on,,,,,0,0,1,,,,,0,,,79,103
165504,note_off,,,,,96,0,3,,,,,2,,,60,0
165600,note_on,,,,,0,0,3,,,,,2,,,59,87
165600,note_off,,,,,96,0,3,,,,,2,,,59,0
165600,note_on,,,,,0,0,2,,,,,1,,,65,96
165600,note_off,,,,,96,0,2,,,,,1,,,67,0
165696,note_off,,,,,192,0,1,,,,,0,,,79,0
165696,note_off,,,,,192,0,4,,,,,3,,,55,0
165696,note_on,,,,,0,0,3,,,,,2,,,60,87
165696,note_off,,,,,96,0,3,,,,,2,,,59,0
165696,note_on,,,,,0,0,1,,,,,0,,,76,103
165696,note_on,,,,,0,0,2,,,,,1,,,64,96
165696,note_off,,,,,96,0,2,,,,,1,,,65,0
165792,note_off,,,,,96,0,1,,,,,0,,,76,0
165792,note_on,,,,,0,0,2,,,,,1,,,65,96
165792,note_off,,,,,96,0,2,,,,,1,,,64,0
165792,note_on,,,,,0,0,3,,,,,2,,,62,87
165792,note_off,,,,,96,0,3,,,,,2,,,60,0
165792,note_on,,,,,0,0,1,,,,,0,,,77,103
165888,note_on,,,,,0,0,2,,,,,1,,,67,96
165888,note_off,,,,,96,0,2,,,,,1,,,65,0
165888,note_on,,,,,0,0,3,,,,,2,,,64,87
165888,note_on,,,,,0,0,1,,,,,0,,,79,103
165888,note_off,,,,,96,0,3,,,,,2,,,62,0
165888,note_on,,,,,192,0,4,,,,,3,,,60,78
165888,note_off,,,,,96,0,1,,,,,0,,,77,0
165984,note_off,,,,,96,0,1,,,,,0,,,79,0
165984,note_off,,,,,96,0,3,,,,,2,,,64,0
165984,note_on,,,,,0,0,3,,,,,2,,,64,87
165984,note_off,,,,,96,0,4,,,,,3,,,60,0
165984,note_on,,,,,0,0,1,,,,,0,,,77,103
165984,note_on,,,,,0,0,4,,,,,3,,,60,78
165984,note_on,,,,,0,0,2,,,,,1,,,67,96
165984,note_off,,,,,96,0,2,,,,,1,,,67,0
166080,note_off,,,,,96,0,2,,,,,1,,,67,0
166080,note_off,,,,,96,0,1,,,,,0,,,77,0
166080,note_off,,,,,96,0,4,,,,,3,,,60,0
166080,note_off,,,,,96,0,3,,,,,2,,,64,0
166080,note_on,,,,,0,0,4,,,,,3,,,60,78
166080,note_on,,,,,0,0,1,,,,,0,,,76,103
166080,note_on,,,,,0,0,2,,,,,1,,,67,96
166080,note_on,,,,,0,0,3,,,,,2,,,64,87
166176,note_off,,,,,96,0,2,,,,,1,,,67,0
166176,note_off,,,,,96,0,1,,,,,0,,,76,0
166176,note_on,,,,,0,0,3,,,,,2,,,64,87
166176,note_on,,,,,0,0,4,,,,,3,,,60,78
166176,note_on,,,,,0,0,1,,,,,0,,,74,103
166176,note_off,,,,,96,0,4,,,,,3,,,60,0
166176,note_on,,,,,0,0,2,,,,,1,,,67,96
166176,note_off,,,,,96,0,3,,,,,2,,,64,0
166272,note_off,,,,,96,0,3,,,,,2,,,64,0
166272,note_on,,,,,0,0,3,,,,,2,,,64,87
166272,note_off,,,,,96,0,1,,,,,0,,,74,0
166272,note_on,,,,,0,0,1,,,,,0,,,72,103
166272,note_off,,,,,96,0,2,,,,,1,,,67,0
166272,note_on,,,,,0,0,2,,,,,1,,,67,96
166272,note_off,,,,,96,0,4,,,,,3,,,60,0
166272,note_on,,,,,0,0,4,,,,,3,,,60,78
166368,note_off,,,,,96,0,1,,,,,0,,,72,0
166368,note_off,,,,,96,0,2,,,,,1,,,67,0
166368,note_on,,,,,0,0,2,,,,,1,,,67,96
166368,note_off,,,,,96,0,4,,,,,3,,,60,0
166368,note_on,,,,,0,0,3,,,,,2,,,64,87
166368,note_off,,,,,96,0,3,,,,,2,,,64,0
166368,note_on,,,,,0,0,1,,,,,0,,,74,103
166368,note_on,,,,,0,0,4,,,,,3,,,60,78
166464,note_off,,,,,96,0,2,,,,,1,,,67,0
166464,note_on,,,,,0,0,2,,,,,1,,,67,96
166464,note_off,,,,,96,0,4,,,,,3,,,60,0
166464,note_on,,,,,0,0,3,,,,,2,,,64,87
166464,note_on,,,,,0,0,4,,,,,3,,,60,78
166464,note_on,,,,,0,0,1,,,,,0,,,72,103
166464,note_off,,,,,96,0,1,,,,,0,,,74,0
166464,note_off,,,,,96,0,3,,,,,2,,,64,0
166560,note_off,,,,,96,0,3,,,,,2,,,64,0
166560,note_on,,,,,0,0,1,,,,,0,,,71,103
166560,note_off,,,,,96,0,1,,,,,0,,,72,0
166560,note_on,,,,,0,0,4,,,,,3,,,60,78
166560,note_off,,,,,96,0,4,,,,,3,,,60,0
166560,note_on,,,,,0,0,3,,,,,2,,,64,87
166560,note_off,,,,,96,0,2,,,,,1,,,67,0
166560,note_on,,,,,0,0,2,,,,,1,,,67,96
166656,note_on,,,,,0,0,1,,,,,0,,,69,103
166656,note_on,,,,,0,0,3,,,,,2,,,62,87
166656,note_off,,,,,96,0,3,,,,,2,,,64,0
166656,note_off,,,,,96,0,1,,,,,0,,,71,0
166656,note_on,,,,,0,0,4,,,,,3,,,60,78
166656,note_off,,,,,96,0,4,,,,,3,,,60,0
166656,note_on,,,,,0,0,2,,,,,1,,,66,96
166656,note_off,,,,,96,0,2,,,,,1,,,67,0
166752,note_on,,,,,0,0,2,,,,,1,,,66,96
166752,note_on,,,,,0,0,4,,,,,3,,,60,78
166752,note_off,,,,,96,0,4,,,,,3,,,60,0
166752,note_off,,,,,96,0,2,,,,,1,,,66,0
166752,note_off,,,,,96,0,3,,,,,2,,,62,0
166752,note_on,,,,,0,0,3,,,,,2,,,62,87
166848,note_on,,,,,0,0,2,,,,,1,,,66,96
166848,note_off,,,,,96,0,4,,,,,3,,,60,0
166848,note_on,,,,,0,0,1,,,,,0,,,76,103
166848,note_on,,,,,0,0,4,,,,,3,,,60,78
166848,note_off,,,,,96,0,3,,,,,2,,,62,0
166848,note_on,,,,,0,0,3,,,,,2,,,62,87
166848,note_off,,,,,96,0,2,,,,,1,,,66,0
166848,note_off,,,,,192,0,1,,,,,0,,,69,0
166944,note_on,,,,,0,0,3,,,,,2,,,62,87
166944,note_off,,,,,96,0,3,,,,,2,,,62,0
166944,note_on,,,,,0,0,2,,,,,1,,,66,96
166944,note_off,,,,,96,0,2,,,,,1,,,66,0
166944,note_on,,,,,0,0,4,,,,,3,,,60,78
166944,note_off,,,,,96,0,4,,,,,3,,,60,0
167040,note_off,,,,,96,0,4,,,,,3,,,60,0
167040,note_on,,,,,0,0,4,,,,,3,,,54,78
167040,note_on,,,,,0,0,3,,,,,2,,,62,87
167040,note_off,,,,,96,0,2,,,,,1,,,66,0
167040,note_on,,,,,0,0,2,,,,,1,,,69,96
167040,note_off,,,,,96,0,3,,,,,2,,,62,0
167136,note_off,,,,,96,0,3,,,,,2,,,62,0
167136,note_off,,,,,96,0,4,,,,,3,,,54,0
167136,note_on,,,,,0,0,4,,,,,3,,,54,78
167136,note_off,,,,,96,0,2,,,,,1,,,69,0
167136,note_on,,,,,0,0,2,,,,,1,,,69,96
167136,note_on,,,,,0,0,3,,,,,2,,,62,87
167232,note_off,,,,,384,0,1,,,,,0,,,76,0
167232,note_on,,,,,0,0,2,,,,,1,,,69,96
167232,note_on,,,,,0,0,3,,,,,2,,,62,87
167232,note_off,,,,,96,0,3,,,,,2,,,62,0
167232,note_on,,,,,0,0,1,,,,,0,,,74,103
167232,note_off,,,,,96,0,2,,,,,1,,,69,0
167232,note_on,,,,,0,0,4,,,,,3,,,54,78
167232,note_off,,,,,96,0,4,,,,,3,,,54,0
167328,note_on,,,,,0,0,4,,,,,3,,,54,78
167328,note_off,,,,,96,0,1,,,,,0,,,74,0
167328,note_on,,,,,0,0,1,,,,,0,,,72,103
167328,note_off,,,,,96,0,3,,,,,2,,,62,0
167328,note_on,,,,,0,0,3,,,,,2,,,62,87
167328,note_off,,,,,96,0,2,,,,,1,,,69,0
167328,note_on,,,,,0,0,2,,,,,1,,,69,96
167328,note_off,,,,,96,0,4,,,,,3,,,54,0
167424,note_off,,,,,96,0,1,,,,,0,,,72,0
167424,note_on,,,,,0,0,1,,,,,0,,,71,103
167424,note_off,,,,,96,0,2,,,,,1,,,69,0
167424,note_on,,,,,0,0,4,,,,,3,,,55,78
167424,note_on,,,,,0,0,3,,,,,2,,,62,87
167424,note_off,,,,,96,0,3,,,,,2,,,62,0
167424,note_off,,,,,96,0,4,,,,,3,,,54,0
167424,note_on,,,,,0,0,2,,,,,1,,,67,96
167520,note_on,,,,,0,0,3,,,,,2,,,62,87
167520,note_off,,,,,96,0,2,,,,,1,,,67,0
167520,note_off,,,,,96,0,3,,,,,2,,,62,0
167520,note_on,,,,,0,0,1,,,,,0,,,72,103
167520,note_off,,,,,96,0,1,,,,,0,,,71,0
167520,note_off,,,,,96,0,4,,,,,3,,,55,0
167520,note_on,,,,,0,0,4,,,,,3,,,55,78
167520,note_on,,,,,0,0,2,,,,,1,,,67,96
167616,note_off,,,,,96,0,2,,,,,1,,,67,0
167616,note_on,,,,,0,0,2,,,,,1,,,67,96
167616,note_off,,,,,96,0,4,,,,,3,,,55,0
167616,note_on,,,,,0,0,1,,,,,0,,,74,103
167616,note_on,,,,,0,0,3,,,,,2,,,62,87
167616,note_off,,,,,96,0,3,,,,,2,,,62,0
167616,note_on,,,,,0,0,4,,,,,3,,,55,78
167616,note_off,,,,,96,0,1,,,,,0,,,72,0
167712,note_off,,,,,96,0,3,,,,,2,,,62,0
167712,note_off,,,,,96,0,2,,,,,1,,,67,0
167712,note_on,,,,,0,0,2,,,,,1,,,67,96
167712,note_on,,,,,0,0,3,,,,,2,,,62,87
167712,note_off,,,,,96,0,1,,,,,0,,,74,0
167712,note_on,,,,,0,0,1,,,,,0,,,71,103
167712,note_off,,,,,96,0,4,,,,,3,,,55,0
167712,note_on,,,,,0,0,4,,,,,3,,,55,78
167808,note_on,,,,,0,0,1,,,,,0,,,69,103
167808,note_off,,,,,96,0,1,,,,,0,,,71,0
167808,note_off,,,,,96,0,4,,,,,3,,,55,0
167808,note_on,,,,,0,0,4,,,,,3,,,50,78
167808,note_on,,,,,0,0,2,,,,,1,,,66,96
167808,note_off,,,,,96,0,3,,,,,2,,,62,0
167808,note_on,,,,,0,0,3,,,,,2,,,60,87
167808,note_off,,,,,96,0,2,,,,,1,,,67,0
167904,note_off,,,,,96,0,4,,,,,3,,,50,0
167904,note_on,,,,,0,0,4,,,,,3,,,50,78
167904,note_on,,,,,0,0,1,,,,,0,,,71,103
167904,note_on,,,,,0,0,2,,,,,1,,,66,96
167904,note_off,,,,,96,0,3,,,,,2,,,60,0
167904,note_off,,,,,96,0,1,,,,,0,,,69,0
167904,note_off,,,,,96,0,2,,,,,1,,,66,0
167904,note_on,,,,,0,0,3,,,,,2,,,60,87
168000,note_off,,,,,96,0,3,,,,,2,,,60,0
168000,note_off,,,,,96,0,2,,,,,1,,,66,0
168000,note_on,,,,,0,0,2,,,,,1,,,66,96
168000,note_on,,,,,0,0,3,,,,,2,,,60,87
168000,note_on,,,,,0,0,1,,,,,0,,,72,103
168000,note_off,,,,,96,0,1,,,,,0,,,71,0
168000,note_on,,,,,0,0,4,,,,,3,,,50,78
168000,note_off,,,,,96,0,4,,,,,3,,,50,0
168096,note_on,,,,,0,0,1,,,,,0,,,69,103
168096,note_off,,,,,96,0,1,,,,,0,,,72,0
168096,note_on,,,,,0,0,2,,,,,1,,,66,96
168096,note_off,,,,,96,0,2,,,,,1,,,66,0
168096,note_on,,,,,0,0,3,,,,,2,,,60,87
168096,note_off,,,,,96,0,3,,,,,2,,,60,0
168096,note_on,,,,,0,0,4,,,,,3,,,50,78
168096,note_off,,,,,96,0,4,,,,,3,,,50,0
168192,note_off,,,,,96,0,4,,,,,3,,,50,0
168192,note_on,,,,,0,0,1,,,,,0,,,67,103
168192,note_off,,,,,96,0,3,,,,,2,,,60,0
168192,note_on,,,,,0,0,3,,,,,2,,,59,87
168192,note_off,,,,,96,0,1,,,,,0,,,69,0
168192,note_on,,,,,0,0,2,,,,,1,,,67,96
168192,note_off,,,,,96,0,2,,,,,1,,,66,0
168192,note_on,,,,,0,0,4,,,,,3,,,55,78
168288,note_off,,,,,96,0,4,,,,,3,,,55,0
168288,note_on,,,,,0,0,4,,,,,3,,,55,78
168288,note_off,,,,,96,0,1,,,,,0,,,67,0
168288,note_off,,,,,96,0,3,,,,,2,,,59,0
168288,note_off,,,,,96,0,2,,,,,1,,,67,0
168288,note_on,,,,,0,0,2,,,,,1,,,67,96
168288,note_on,,,,,0,0,3,,,,,2,,,59,87
168384,note_on,,,,,96,0,1,,,,,0,,,79,103
168384,note_on,,,,,0,0,2,,,,,1,,,67,96
168384,note_off,,,,,96,0,2,,,,,1,,,67,0
168384,note_off,,,,,96,0,3,,,,,2,,,59,0
168384,note_on,,,,,0,0,4,,,,,3,,,55,78
168384,note_off,,,,,96,0,4,,,,,3,,,55,0
168384,note_on,,,,,0,0,3,,,,,2,,,59,87
168480,note_off,,,,,96,0,1,,,,,0,,,79,0
168480,note_on,,,,,0,0,3,,,,,2,,,59,87
168480,note_off,,,,,96,0,3,,,,,2,,,59,0
168480,note_off,,,,,96,0,2,,,,,1,,,67,0
168480,note_off,,,,,96,0,4,,,,,3,,,55,0
168480,note_on,,,,,0,0,4,,,,,3,,,55,78
168480,note_on,,,,,0,0,2,,,,,1,,,67,96
168576,note_on,,,,,0,0,3,,,,,2,,,59,87
168576,note_on,,,,,0,0,2,,,,,1,,,67,96
168576,note_off,,,,,96,0,2,,,,,1,,,67,0
168576,note_off,,,,,96,0,4,,,,,3,,,55,0
168576,note_on,,,,,0,0,4,,,,,3,,,55,78
168576,note_off,,,,,96,0,3,,,,,2,,,59,0
168672,note_off,,,,,96,0,3,,,,,2,,,59,0
168672,note_off,,,,,96,0,4,,,,,3,,,55,0
168672,note_off,,,,,96,0,2,,,,,1,,,67,0
168768,note_on,,,,,96,0,4,,,,,3,,,60,78
168768,note_on,,,,,96,0,3,,,,,2,,,64,87
168816,note_off,,,,,48,0,4,,,,,3,,,60,0
168816,note_off,,,,,48,0,3,,,,,2,,,64,0
168864,note_on,,,,,48,0,4,,,,,3,,,62,78
168864,note_on,,,,,48,0,3,,,,,2,,,65,87
168912,note_off,,,,,48,0,4,,,,,3,,,62,0
168912,note_off,,,,,48,0,3,,,,,2,,,65,0
168960,note_on,,,,,48,0,3,,,,,2,,,67,87
168960,note_on,,,,,48,0,4,,,,,3,,,64,78
169008,note_off,,,,,48,0,3,,,,,2,,,67,0
169008,note_off,,,,,48,0,4,,,,,3,,,64,0
169056,note_on,,,,,48,0,3,,,,,2,,,65,87
169056,note_on,,,,,48,0,4,,,,,3,,,62,78
169056,note_on,,,,,576,0,1,,,,,0,,,60,103
169104,note_off,,,,,48,0,3,,,,,2,,,65,0
169104,note_off,,,,,48,0,4,,,,,3,,,62,0
169104,note_off,,,,,48,0,1,,,,,0,,,60,0
169152,note_on,,,,,48,0,3,,,,,2,,,64,87
169152,note_on,,,,,48,0,4,,,,,3,,,60,78
169152,note_on,,,,,48,0,1,,,,,0,,,72,103
169200,note_off,,,,,48,0,4,,,,,3,,,60,0
169200,note_off,,,,,48,0,3,,,,,2,,,64,0
169200,note_off,,,,,48,0,1,,,,,0,,,72,0
169248,note_on,,,,,48,0,3,,,,,2,,,62,87
169248,note_on,,,,,48,0,1,,,,,0,,,60,103
169248,note_on,,,,,48,0,4,,,,,3,,,59,78
169296,note_off,,,,,48,0,1,,,,,0,,,60,0
169296,note_off,,,,,48,0,4,,,,,3,,,59,0
169296,note_off,,,,,48,0,3,,,,,2,,,62,0
169344,note_on,,,,,48,0,3,,,,,2,,,60,87
169344,note_on,,,,,48,0,4,,,,,3,,,57,78
169344,note_on,,,,,48,0,1,,,,,0,,,72,103
169392,note_off,,,,,48,0,3,,,,,2,,,60,0
169392,note_off,,,,,48,0,4,,,,,3,,,57,0
169440,note_off,,,,,96,0,1,,,,,0,,,72,0
169440,note_on,,,,,768,0,2,,,,,1,,,60,96
169440,note_on,,,,,48,0,3,,,,,2,,,62,87
169440,note_on,,,,,48,0,4,,,,,3,,,59,78
169488,note_off,,,,,48,0,2,,,,,1,,,60,0
169488,note_off,,,,,48,0,3,,,,,2,,,62,0
169488,note_off,,,,,48,0,4,,,,,3,,,59,0
169536,note_on,,,,,48,0,2,,,,,1,,,72,96
169536,note_on,,,,,48,0,4,,,,,3,,,57,78
169536,note_on,,,,,48,0,3,,,,,2,,,60,87
169584,note_off,,,,,48,0,3,,,,,2,,,60,0
169584,note_off,,,,,48,0,2,,,,,1,,,72,0
169584,note_off,,,,,48,0,4,,,,,3,,,57,0
169632,note_on,,,,,48,0,4,,,,,3,,,55,78
169632,note_on,,,,,48,0,3,,,,,2,,,59,87
169632,note_on,,,,,48,0,2,,,,,1,,,60,96
169680,note_off,,,,,48,0,4,,,,,3,,,55,0
169680,note_off,,,,,48,0,3,,,,,2,,,59,0
169680,note_off,,,,,48,0,2,,,,,1,,,60,0
169728,note_on,,,,,48,0,3,,,,,2,,,57,87
169728,note_on,,,,,48,0,4,,,,,3,,,53,78
169728,note_on,,,,,48,0,2,,,,,1,,,65,96
169824,note_off,,,,,96,0,3,,,,,2,,,57,0
169824,note_off,,,,,96,0,4,,,,,3,,,53,0
169824,note_off,,,,,96,0,2,,,,,1,,,65,0
169824,note_on,,,,,384,0,1,,,,,0,,,69,103
169872,note_off,,,,,48,0,1,,,,,0,,,69,0
169920,note_on,,,,,96,0,3,,,,,2,,,62,87
169920,note_on,,,,,96,0,4,,,,,3,,,53,78
169920,note_on,,,,,48,0,1,,,,,0,,,81,103
169968,note_off,,,,,48,0,1,,,,,0,,,81,0
170016,note_on,,,,,48,0,1,,,,,0,,,69,103
170064,note_off,,,,,48,0,1,,,,,0,,,69,0
170112,note_on,,,,,48,0,1,,,,,0,,,81,103
170208,note_on,,,,,384,0,2,,,,,1,,,57,96
170208,note_off,,,,,96,0,1,,,,,0,,,81,0
170256,note_off,,,,,48,0,2,,,,,1,,,57,0
170304,note_on,,,,,0,0,4,,,,,3,,,54,78
170304,note_off,,,,,384,0,4,,,,,3,,,53,0
170304,note_on,,,,,0,0,3,,,,,2,,,60,87
170304,note_off,,,,,384,0,3,,,,,2,,,62,0
170304,note_on,,,,,48,0,2,,,,,1,,,69,96
170352,note_off,,,,,48,0,2,,,,,1,,,69,0
170400,note_on,,,,,48,0,2,,,,,1,,,57,96
170448,note_off,,,,,48,0,2,,,,,1,,,57,0
170496,note_on,,,,,48,0,2,,,,,1,,,55,96
170496,note_on,,,,,0,0,4,,,,,3,,,55,78
170496,note_off,,,,,192,0,3,,,,,2,,,60,0
170496,note_on,,,,,0,0,3,,,,,2,,,59,87
170496,note_off,,,,,192,0,4,,,,,3,,,54,0
170544,note_off,,,,,48,0,4,,,,,3,,,55,0
170544,note_off,,,,,48,0,3,,,,,2,,,59,0
170592,note_on,,,,,384,0,1,,,,,0,,,67,103
170592,note_on,,,,,48,0,3,,,,,2,,,60,87
170592,note_off,,,,,96,0,2,,,,,1,,,55,0
170592,note_on,,,,,48,0,4,,,,,3,,,57,78
170640,note_off,,,,,48,0,1,,,,,0,,,67,0
170640,note_off,,,,,48,0,4,,,,,3,,,57,0
170640,note_off,,,,,48,0,3,,,,,2,,,60,0
170688,note_on,,,,,48,0,3,,,,,2,,,62,87
170688,note_on,,,,,48,0,4,,,,,3,,,59,78
170688,note_on,,,,,48,0,1,,,,,0,,,79,103
170736,note_off,,,,,48,0,1,,,,,0,,,79,0
170736,note_off,,,,,48,0,3,,,,,2,,,62,0
170736,note_off,,,,,48,0,4,,,,,3,,,59,0
170784,note_on,,,,,48,0,3,,,,,2,,,59,87
170784,note_on,,,,,48,0,1,,,,,0,,,67,103
170784,note_on,,,,,48,0,4,,,,,3,,,55,78
170832,note_off,,,,,48,0,3,,,,,2,,,59,0
170832,note_off,,,,,48,0,1,,,,,0,,,67,0
170832,note_off,,,,,48,0,4,,,,,3,,,55,0
170880,note_on,,,,,48,0,1,,,,,0,,,79,103
170880,note_on,,,,,48,0,3,,,,,2,,,60,87
170880,note_on,,,,,48,0,4,,,,,3,,,52,78
170928,note_off,,,,,48,0,3,,,,,2,,,60,0
170928,note_off,,,,,48,0,1,,,,,0,,,79,0
170928,note_off,,,,,48,0,4,,,,,3,,,52,0
170976,note_on,,,,,384,0,2,,,,,1,,,55,96
170976,note_on,,,,,48,0,4,,,,,3,,,50,78
170976,note_on,,,,,48,0,1,,,,,0,,,67,103
170976,note_on,,,,,48,0,3,,,,,2,,,62,87
171024,note_off,,,,,48,0,2,,,,,1,,,55,0
171024,note_off,,,,,48,0,1,,,,,0,,,67,0
171024,note_off,,,,,48,0,4,,,,,3,,,50,0
171024,note_off,,,,,48,0,3,,,,,2,,,62,0
171072,note_on,,,,,48,0,4,,,,,3,,,48,78
171072,note_on,,,,,48,0,1,,,,,0,,,79,103
171072,note_on,,,,,48,0,2,,,,,1,,,67,96
171072,note_on,,,,,48,0,3,,,,,2,,,64,87
171120,note_off,,,,,48,0,4,,,,,3,,,48,0
171120,note_off,,,,,48,0,1,,,,,0,,,79,0
171120,note_off,,,,,48,0,2,,,,,1,,,67,0
171120,note_off,,,,,48,0,3,,,,,2,,,64,0
171168,note_on,,,,,48,0,3,,,,,2,,,60,87
171168,note_on,,,,,48,0,1,,,,,0,,,67,103
171168,note_on,,,,,48,0,2,,,,,1,,,55,96
171168,note_on,,,,,48,0,4,,,,,3,,,52,78
171216,note_off,,,,,48,0,1,,,,,0,,,67,0
171216,note_off,,,,,48,0,2,,,,,1,,,55,0
171216,note_off,,,,,48,0,3,,,,,2,,,60,0
171216,note_off,,,,,48,0,4,,,,,3,,,52,0
171264,note_on,,,,,48,0,2,,,,,1,,,74,96
171264,note_on,,,,,48,0,3,,,,,2,,,59,87
171264,note_on,,,,,48,0,4,,,,,3,,,55,78
171312,note_off,,,,,48,0,4,,,,,3,,,55,0
171312,note_off,,,,,48,0,2,,,,,1,,,74,0
171312,note_off,,,,,48,0,3,,,,,2,,,59,0
171360,note_on,,,,,48,0,3,,,,,2,,,57,87
171360,note_on,,,,,48,0,4,,,,,3,,,54,78
171360,note_on,,,,,48,0,2,,,,,1,,,62,96
171360,note_on,,,,,144,0,1,,,,,0,,,62,103
171408,note_off,,,,,48,0,1,,,,,0,,,62,0
171408,note_off,,,,,48,0,4,,,,,3,,,54,0
171408,note_off,,,,,48,0,3,,,,,2,,,57,0
171408,note_off,,,,,48,0,2,,,,,1,,,62,0
171456,note_on,,,,,48,0,1,,,,,0,,,74,103
171456,note_on,,,,,48,0,2,,,,,1,,,74,96
171456,note_on,,,,,48,0,4,,,,,3,,,57,78
171456,note_on,,,,,48,0,3,,,,,2,,,60,87
171504,note_off,,,,,48,0,4,,,,,3,,,57,0
171504,note_off,,,,,48,0,1,,,,,0,,,74,0
171504,note_off,,,,,48,0,2,,,,,1,,,74,0
171504,note_off,,,,,48,0,3,,,,,2,,,60,0
171552,note_on,,,,,48,0,3,,,,,2,,,57,87
171552,note_on,,,,,48,0,2,,,,,1,,,62,96
171552,note_on,,,,,48,0,1,,,,,0,,,62,103
171552,note_on,,,,,48,0,4,,,,,3,,,54,78
171600,note_off,,,,,48,0,3,,,,,2,,,57,0
171600,note_off,,,,,48,0,2,,,,,1,,,62,0
171600,note_off,,,,,48,0,1,,,,,0,,,62,0
171600,note_off,,,,,48,0,4,,,,,3,,,54,0
171648,note_on,,,,,48,0,1,,,,,0,,,67,103
171648,note_on,,,,,48,0,2,,,,,1,,,67,96
171648,note_on,,,,,48,0,4,,,,,3,,,55,78
171648,note_on,,,,,48,0,3,,,,,2,,,59,87
171744,note_off,,,,,96,0,1,,,,,0,,,67,0
171744,note_off,,,,,96,0,4,,,,,3,,,55,0
171744,note_off,,,,,96,0,3,,,,,2,,,59,0
171744,note_off,,,,,96,0,2,,,,,1,,,67,0
171840,note_on,,,,,96,0,4,,,,,3,,,60,78
171840,note_on,,,,,96,0,3,,,,,2,,,64,87
171888,note_off,,,,,48,0,3,,,,,2,,,64,0
171888,note_off,,,,,48,0,4,,,,,3,,,60,0
171936,note_on,,,,,48,0,4,,,,,3,,,62,78
171936,note_on,,,,,48,0,3,,,,,2,,,65,87
171984,note_off,,,,,48,0,4,,,,,3,,,62,0
171984,note_off,,,,,48,0,3,,,,,2,,,65,0
172032,note_on,,,,,48,0,4,,,,,3,,,64,78
172032,note_on,,,,,48,0,3,,,,,2,,,67,87
172080,note_off,,,,,48,0,3,,,,,2,,,67,0
172080,note_off,,,,,48,0,4,,,,,3,,,64,0
172128,note_on,,,,,384,0,1,,,,,0,,,60,103
172128,note_on,,,,,48,0,4,,,,,3,,,62,78
172128,note_on,,,,,48,0,3,,,,,2,,,65,87
172176,note_off,,,,,48,0,1,,,,,0,,,60,0
172176,note_off,,,,,48,0,3,,,,,2,,,65,0
172176,note_off,,,,,48,0,4,,,,,3,,,62,0
172224,note_on,,,,,48,0,1,,,,,0,,,72,103
172224,note_on,,,,,48,0,4,,,,,3,,,60,78
172224,note_on,,,,,48,0,3,,,,,2,,,64,87
172272,note_off,,,,,48,0,3,,,,,2,,,64,0
172272,note_off,,,,,48,0,4,,,,,3,,,60,0
172272,note_off,,,,,48,0,1,,,,,0,,,72,0
172320,note_on,,,,,48,0,3,,,,,2,,,62,87
172320,note_on,,,,,48,0,1,,,,,0,,,60,103
172320,note_on,,,,,48,0,4,,,,,3,,,59,78
172368,note_off,,,,,48,0,4,,,,,3,,,59,0
172368,note_off,,,,,48,0,1,,,,,0,,,60,0
172368,note_off,,,,,48,0,3,,,,,2,,,62,0
172416,note_on,,,,,48,0,4,,,,,3,,,57,78
172416,note_on,,,,,48,0,1,,,,,0,,,72,103
172416,note_on,,,,,48,0,3,,,,,2,,,60,87
172464,note_off,,,,,48,0,4,,,,,3,,,57,0
172464,note_off,,,,,48,0,3,,,,,2,,,60,0
172512,note_off,,,,,96,0,1,,,,,0,,,72,0
172512,note_on,,,,,48,0,3,,,,,2,,,62,87
172512,note_on,,,,,48,0,4,,,,,3,,,59,78
172512,note_on,,,,,768,0,2,,,,,1,,,60,96
172560,note_off,,,,,48,0,2,,,,,1,,,60,0
172560,note_off,,,,,48,0,3,,,,,2,,,62,0
172560,note_off,,,,,48,0,4,,,,,3,,,59,0
172608,note_on,,,,,48,0,2,,,,,1,,,72,96
172608,note_on,,,,,48,0,3,,,,,2,,,60,87
172608,note_on,,,,,48,0,4,,,,,3,,,57,78
172656,note_off,,,,,48,0,3,,,,,2,,,60,0
172656,note_off,,,,,48,0,2,,,,,1,,,72,0
172656,note_off,,,,,48,0,4,,,,,3,,,57,0
172704,note_on,,,,,48,0,4,,,,,3,,,55,78
172704,note_on,,,,,48,0,2,,,,,1,,,60,96
172704,note_on,,,,,48,0,3,,,,,2,,,59,87
172752,note_off,,,,,48,0,2,,,,,1,,,60,0
172752,note_off,,,,,48,0,3,,,,,2,,,59,0
172752,note_off,,,,,48,0,4,,,,,3,,,55,0
172800,note_on,,,,,48,0,4,,,,,3,,,53,78
172800,note_on,,,,,48,0,2,,,,,1,,,69,96
172800,note_on,,,,,48,0,3,,,,,2,,,57,87
172896,note_off,,,,,96,0,2,,,,,1,,,69,0
172896,note_off,,,,,96,0,4,,,,,3,,,53,0
172896,note_off,,,,,96,0,3,,,,,2,,,57,0
172896,note_on,,,,,384,0,1,,,,,0,,,69,103
172944,note_off,,,,,48,0,1,,,,,0,,,69,0
172992,note_on,,,,,96,0,3,,,,,2,,,63,87
172992,note_on,,,,,96,0,4,,,,,3,,,53,78
172992,note_on,,,,,48,0,1,,,,,0,,,81,103
173040,note_off,,,,,48,0,1,,,,,0,,,81,0
173088,note_on,,,,,48,0,1,,,,,0,,,69,103
173136,note_off,,,,,48,0,1,,,,,0,,,69,0
173184,note_on,,,,,48,0,1,,,,,0,,,81,103
173184,note_on,,,,,0,0,4,,,,,3,,,54,78
173184,note_off,,,,,192,0,4,,,,,3,,,53,0
173280,note_off,,,,,96,0,1,,,,,0,,,81,0
173280,note_on,,,,,384,0,2,,,,,1,,,57,96
173328,note_off,,,,,48,0,2,,,,,1,,,57,0
173376,note_on,,,,,48,0,2,,,,,1,,,69,96
173376,note_on,,,,,0,0,3,,,,,2,,,62,87
173376,note_off,,,,,384,0,3,,,,,2,,,63,0
173424,note_off,,,,,48,0,2,,,,,1,,,69,0
173472,note_on,,,,,0,0,3,,,,,2,,,60,87
173472,note_on,,,,,48,0,2,,,,,1,,,57,96
173472,note_off,,,,,96,0,3,,,,,2,,,62,0
173520,note_off,,,,,48,0,2,,,,,1,,,57,0
173568,note_on,,,,,48,0,2,,,,,1,,,62,96
173568,note_off,,,,,96,0,3,,,,,2,,,60,0
173568,note_on,,,,,0,0,3,,,,,2,,,59,87
173568,note_off,,,,,384,0,4,,,,,3,,,54,0
173568,note_on,,,,,0,0,4,,,,,3,,,55,78
173616,note_off,,,,,48,0,3,,,,,2,,,59,0
173616,note_off,,,,,48,0,4,,,,,3,,,55,0
173664,note_on,,,,,384,0,1,,,,,0,,,74,103
173664,note_on,,,,,48,0,3,,,,,2,,,60,87
173664,note_off,,,,,96,0,2,,,,,1,,,62,0
173664,note_on,,,,,48,0,4,,,,,3,,,57,78
173712,note_off,,,,,48,0,3,,,,,2,,,60,0
173712,note_off,,,,,48,0,1,,,,,0,,,74,0
173712,note_off,,,,,48,0,4,,,,,3,,,57,0
173760,note_on,,,,,48,0,4,,,,,3,,,59,78
173760,note_on,,,,,48,0,3,,,,,2,,,62,87
173760,note_on,,,,,48,0,1,,,,,0,,,86,103
173808,note_off,,,,,48,0,3,,,,,2,,,62,0
173808,note_off,,,,,48,0,4,,,,,3,,,59,0
173808,note_off,,,,,48,0,1,,,,,0,,,86,0
173856,note_on,,,,,48,0,1,,,,,0,,,74,103
173856,note_on,,,,,48,0,3,,,,,2,,,59,87
173856,note_on,,,,,48,0,4,,,,,3,,,55,78
173904,note_off,,,,,48,0,1,,,,,0,,,74,0
173904,note_off,,,,,48,0,3,,,,,2,,,59,0
173904,note_off,,,,,48,0,4,,,,,3,,,55,0
173952,note_on,,,,,48,0,3,,,,,2,,,57,87
173952,note_on,,,,,48,0,4,,,,,3,,,54,78
173952,note_on,,,,,48,0,1,,,,,0,,,86,103
174000,note_off,,,,,48,0,1,,,,,0,,,86,0
174000,note_off,,,,,48,0,3,,,,,2,,,57,0
174000,note_off,,,,,48,0,4,,,,,3,,,54,0
174048,note_on,,,,,48,0,1,,,,,0,,,74,103
174048,note_on,,,,,48,0,3,,,,,2,,,59,87
174048,note_on,,,,,48,0,4,,,,,3,,,55,78
174048,note_on,,,,,384,0,2,,,,,1,,,62,96
174096,note_off,,,,,48,0,1,,,,,0,,,74,0
174096,note_off,,,,,48,0,3,,,,,2,,,59,0
174096,note_off,,,,,48,0,4,,,,,3,,,55,0
174096,note_off,,,,,48,0,2,,,,,1,,,62,0
174144,note_on,,,,,48,0,1,,,,,0,,,86,103
174144,note_on,,,,,48,0,3,,,,,2,,,60,87
174144,note_on,,,,,48,0,2,,,,,1,,,74,96
174144,note_on,,,,,48,0,4,,,,,3,,,57,78
174192,note_off,,,,,48,0,1,,,,,0,,,86,0
174192,note_off,,,,,48,0,4,,,,,3,,,57,0
174192,note_off,,,,,48,0,2,,,,,1,,,74,0
174192,note_off,,,,,48,0,3,,,,,2,,,60,0
174240,note_on,,,,,48,0,4,,,,,3,,,54,78
174240,note_on,,,,,48,0,1,,,,,0,,,74,103
174240,note_on,,,,,48,0,3,,,,,2,,,57,87
174240,note_on,,,,,48,0,2,,,,,1,,,62,96
174288,note_off,,,,,48,0,3,,,,,2,,,57,0
174288,note_off,,,,,48,0,1,,,,,0,,,74,0
174288,note_off,,,,,48,0,4,,,,,3,,,54,0
174288,note_off,,,,,48,0,2,,,,,1,,,62,0
174336,note_on,,,,,48,0,3,,,,,2,,,55,87
174336,note_on,,,,,48,0,4,,,,,3,,,55,78
174336,note_on,,,,,48,0,2,,,,,1,,,67,96
174384,note_off,,,,,48,0,2,,,,,1,,,67,0
174432,note_off,,,,,96,0,4,,,,,3,,,55,0
174432,note_on,,,,,48,0,2,,,,,1,,,55,96
174432,note_on,,,,,144,0,1,,,,,0,,,67,103
174432,note_off,,,,,96,0,3,,,,,2,,,55,0
174480,note_off,,,,,48,0,1,,,,,0,,,67,0
174480,note_off,,,,,48,0,2,,,,,1,,,55,0
174528,note_on,,,,,96,0,4,,,,,3,,,43,78
174528,note_on,,,,,48,0,1,,,,,0,,,79,103
174528,note_on,,,,,48,0,2,,,,,1,,,67,96
174528,note_on,,,,,96,0,3,,,,,2,,,59,87
174528,note_on,,,,,0,0,3,,,,,2,,,67,87
174576,note_off,,,,,48,0,1,,,,,0,,,79,0
174576,note_off,,,,,48,0,2,,,,,1,,,67,0
174624,note_on,,,,,48,0,1,,,,,0,,,67,103
174624,note_off,,,,,96,0,4,,,,,3,,,43,0
174624,note_on,,,,,48,0,2,,,,,1,,,55,96
174624,note_off,,,,,0,0,3,,,,,2,,,67,0
174624,note_off,,,,,96,0,3,,,,,2,,,59,0
174672,note_off,,,,,48,0,2,,,,,1,,,55,0
174672,note_off,,,,,48,0,1,,,,,0,,,67,0
174720,note_on,,,,,48,0,2,,,,,1,,,67,96
174720,note_on,,,,,48,0,1,,,,,0,,,79,103
174816,note_off,,,,,96,0,2,,,,,1,,,67,0
174816,note_off,,,,,96,0,1,,,,,0,,,79,0
174912,note_on,,,,,96,0,1,,,,,0,,,77,103
174960,note_off,,,,,48,0,1,,,,,0,,,77,0
175008,note_on,,,,,48,0,1,,,,,0,,,79,103
175056,note_off,,,,,48,0,1,,,,,0,,,79,0
175104,note_on,,,,,288,0,2,,,,,1,,,62,96
175104,note_on,,,,,480,0,4,,,,,3,,,55,78
175104,note_on,,,,,480,0,3,,,,,2,,,59,87
175104,note_on,,,,,48,0,1,,,,,0,,,81,103
175152,note_off,,,,,48,0,2,,,,,1,,,62,0
175152,note_off,,,,,48,0,4,,,,,3,,,55,0
175152,note_off,,,,,48,0,3,,,,,2,,,59,0
175200,note_on,,,,,48,0,3,,,,,2,,,59,87
175200,note_on,,,,,48,0,4,,,,,3,,,55,78
175200,note_on,,,,,48,0,2,,,,,1,,,62,96
175200,note_off,,,,,96,0,1,,,,,0,,,81,0
175200,note_on,,,,,0,0,1,,,,,0,,,79,103
175248,note_off,,,,,48,0,3,,,,,2,,,59,0
175248,note_off,,,,,48,0,4,,,,,3,,,55,0
175248,note_off,,,,,48,0,2,,,,,1,,,62,0
175296,note_on,,,,,0,0,1,,,,,0,,,77,103
175296,note_on,,,,,48,0,2,,,,,1,,,62,96
175296,note_on,,,,,48,0,3,,,,,2,,,59,87
175296,note_on,,,,,48,0,4,,,,,3,,,55,78
175296,note_off,,,,,96,0,1,,,,,0,,,79,0
175344,note_off,,,,,48,0,1,,,,,0,,,77,0
175344,note_off,,,,,48,0,3,,,,,2,,,59,0
175344,note_off,,,,,48,0,4,,,,,3,,,55,0
175344,note_off,,,,,48,0,2,,,,,1,,,62,0
175392,note_on,,,,,48,0,1,,,,,0,,,76,103
175392,note_on,,,,,48,0,2,,,,,1,,,62,96
175392,note_on,,,,,48,0,3,,,,,2,,,59,87
175392,note_on,,,,,48,0,4,,,,,3,,,55,78
175440,note_off,,,,,48,0,3,,,,,2,,,59,0
175440,note_off,,,,,48,0,2,,,,,1,,,62,0
175440,note_off,,,,,48,0,4,,,,,3,,,55,0
175440,note_off,,,,,48,0,1,,,,,0,,,76,0
175488,note_on,,,,,48,0,2,,,,,1,,,62,96
175488,note_on,,,,,48,0,1,,,,,0,,,74,103
175488,note_on,,,,,48,0,4,,,,,3,,,55,78
175488,note_on,,,,,48,0,3,,,,,2,,,59,87
175536,note_off,,,,,48,0,3,,,,,2,,,59,0
175536,note_off,,,,,48,0,4,,,,,3,,,55,0
175536,note_off,,,,,48,0,2,,,,,1,,,62,0
175584,note_on,,,,,48,0,2,,,,,1,,,62,96
175584,note_off,,,,,96,0,1,,,,,0,,,74,0
175584,note_on,,,,,0,0,1,,,,,0,,,76,103
175584,note_on,,,,,48,0,3,,,,,2,,,59,87
175584,note_on,,,,,48,0,4,,,,,3,,,55,78
175632,note_off,,,,,48,0,3,,,,,2,,,59,0
175632,note_off,,,,,48,0,4,,,,,3,,,55,0
175632,note_off,,,,,48,0,2,,,,,1,,,62,0
175680,note_on,,,,,48,0,2,,,,,1,,,65,96
175680,note_on,,,,,48,0,4,,,,,3,,,55,78
175680,note_off,,,,,96,0,1,,,,,0,,,76,0
175680,note_on,,,,,48,0,3,,,,,2,,,62,87
175680,note_on,,,,,0,0,1,,,,,0,,,74,103
175728,note_off,,,,,48,0,1,,,,,0,,,74,0
175728,note_off,,,,,48,0,4,,,,,3,,,55,0
175728,note_off,,,,,48,0,2,,,,,1,,,65,0
175728,note_off,,,,,48,0,3,,,,,2,,,62,0
175776,note_on,,,,,48,0,3,,,,,2,,,64,87
175776,note_on,,,,,48,0,2,,,,,1,,,67,96
175776,note_on,,,,,48,0,4,,,,,3,,,55,78
175776,note_on,,,,,48,0,1,,,,,0,,,72,103
175824,note_off,,,,,48,0,3,,,,,2,,,64,0
175824,note_off,,,,,48,0,2,,,,,1,,,67,0
175824,note_off,,,,,48,0,1,,,,,0,,,72,0
175824,note_off,,,,,48,0,4,,,,,3,,,55,0
175872,note_on,,,,,48,0,4,,,,,3,,,55,78
175872,note_on,,,,,48,0,1,,,,,0,,,71,103
175872,note_on,,,,,48,0,2,,,,,1,,,69,96
175872,note_on,,,,,48,0,3,,,,,2,,,65,87
175920,note_off,,,,,48,0,3,,,,,2,,,65,0
175920,note_off,,,,,48,0,2,,,,,1,,,69,0
175968,note_on,,,,,48,0,2,,,,,1,,,67,96
175968,note_off,,,,,96,0,1,,,,,0,,,71,0
175968,note_on,,,,,48,0,3,,,,,2,,,64,87
175968,note_off,,,,,96,0,4,,,,,3,,,55,0
175968,note_on,,,,,0,0,4,,,,,3,,,55,78
176016,note_off,,,,,48,0,3,,,,,2,,,64,0
176016,note_off,,,,,48,0,2,,,,,1,,,67,0
176064,note_on,,,,,48,0,2,,,,,1,,,65,96
176064,note_off,,,,,96,0,4,,,,,3,,,55,0
176064,note_on,,,,,48,0,3,,,,,2,,,62,87
176064,note_on,,,,,96,0,1,,,,,0,,,79,103
176064,note_on,,,,,0,0,4,,,,,3,,,55,78
176112,note_off,,,,,48,0,2,,,,,1,,,65,0
176112,note_off,,,,,48,0,3,,,,,2,,,62,0
176160,note_off,,,,,96,0,4,,,,,3,,,55,0
176160,note_on,,,,,0,0,4,,,,,3,,,55,78
176160,note_on,,,,,48,0,3,,,,,2,,,60,87
176160,note_on,,,,,48,0,2,,,,,1,,,64,96
176208,note_off,,,,,48,0,3,,,,,2,,,60,0
176208,note_off,,,,,48,0,2,,,,,1,,,64,0
176256,note_on,,,,,0,0,4,,,,,3,,,55,78
176256,note_on,,,,,48,0,3,,,,,2,,,59,87
176256,note_on,,,,,48,0,2,,,,,1,,,62,96
176256,note_off,,,,,96,0,4,,,,,3,,,55,0
176304,note_off,,,,,48,0,2,,,,,1,,,62,0
176304,note_off,,,,,48,0,3,,,,,2,,,59,0
176352,note_on,,,,,0,0,4,,,,,3,,,55,78
176352,note_off,,,,,96,0,4,,,,,3,,,55,0
176352,note_on,,,,,48,0,2,,,,,1,,,64,96
176352,note_on,,,,,48,0,3,,,,,2,,,60,87
176400,note_off,,,,,48,0,3,,,,,2,,,60,0
176400,note_off,,,,,48,0,2,,,,,1,,,64,0
176448,note_on,,,,,48,0,2,,,,,1,,,62,96
176448,note_off,,,,,384,0,1,,,,,0,,,79,0
176448,note_on,,,,,0,0,1,,,,,0,,,77,103
176448,note_on,,,,,48,0,3,,,,,2,,,59,87
176448,note_on,,,,,0,0,4,,,,,3,,,55,78
176448,note_off,,,,,96,0,4,,,,,3,,,55,0
176496,note_off,,,,,48,0,1,,,,,0,,,77,0
176496,note_off,,,,,48,0,2,,,,,1,,,62,0
176496,note_off,,,,,48,0,3,,,,,2,,,59,0
176544,note_on,,,,,0,0,4,,,,,3,,,55,78
176544,note_on,,,,,48,0,3,,,,,2,,,57,87
176544,note_off,,,,,96,0,4,,,,,3,,,55,0
176544,note_on,,,,,48,0,1,,,,,0,,,79,103
176544,note_on,,,,,48,0,2,,,,,1,,,60,96
176592,note_off,,,,,48,0,1,,,,,0,,,79,0
176592,note_off,,,,,48,0,2,,,,,1,,,60,0
176592,note_off,,,,,48,0,3,,,,,2,,,57,0
176640,note_on,,,,,48,0,1,,,,,0,,,81,103
176640,note_on,,,,,48,0,3,,,,,2,,,55,87
176640,note_off,,,,,96,0,4,,,,,3,,,55,0
176640,note_on,,,,,0,0,4,,,,,3,,,55,78
176640,note_on,,,,,48,0,2,,,,,1,,,59,96
176688,note_off,,,,,48,0,2,,,,,1,,,59,0
176688,note_off,,,,,48,0,3,,,,,2,,,55,0
176736,note_on,,,,,0,0,1,,,,,0,,,79,103
176736,note_off,,,,,96,0,1,,,,,0,,,81,0
176736,note_off,,,,,96,0,4,,,,,3,,,55,0
176736,note_on,,,,,48,0,3,,,,,2,,,59,87
176736,note_on,,,,,0,0,4,,,,,3,,,55,78
176736,note_on,,,,,48,0,2,,,,,1,,,62,96
176784,note_off,,,,,48,0,3,,,,,2,,,59,0
176784,note_off,,,,,48,0,2,,,,,1,,,62,0
176832,note_on,,,,,48,0,3,,,,,2,,,59,87
176832,note_on,,,,,0,0,4,,,,,3,,,55,78
176832,note_off,,,,,96,0,4,,,,,3,,,55,0
176832,note_off,,,,,96,0,1,,,,,0,,,79,0
176832,note_on,,,,,0,0,1,,,,,0,,,77,103
176832,note_on,,,,,48,0,2,,,,,1,,,62,96
176880,note_off,,,,,48,0,3,,,,,2,,,59,0
176880,note_off,,,,,48,0,2,,,,,1,,,62,0
176880,note_off,,,,,48,0,1,,,,,0,,,77,0
176928,note_on,,,,,48,0,2,,,,,1,,,62,96
176928,note_on,,,,,48,0,3,,,,,2,,,59,87
176928,note_on,,,,,48,0,1,,,,,0,,,76,103
176928,note_off,,,,,96,0,4,,,,,3,,,55,0
176928,note_on,,,,,0,0,4,,,,,3,,,55,78
176976,note_off,,,,,48,0,3,,,,,2,,,59,0
176976,note_off,,,,,48,0,2,,,,,1,,,62,0
176976,note_off,,,,,48,0,1,,,,,0,,,76,0
177024,note_on,,,,,48,0,3,,,,,2,,,59,87
177024,note_on,,,,,48,0,2,,,,,1,,,62,96
177024,note_on,,,,,48,0,1,,,,,0,,,74,103
177024,note_off,,,,,96,0,4,,,,,3,,,55,0
177024,note_on,,,,,0,0,4,,,,,3,,,55,78
177072,note_off,,,,,48,0,3,,,,,2,,,59,0
177072,note_off,,,,,48,0,2,,,,,1,,,62,0
177120,note_on,,,,,0,0,1,,,,,0,,,76,103
177120,note_on,,,,,0,0,4,,,,,3,,,55,78
177120,note_off,,,,,96,0,4,,,,,3,,,55,0
177120,note_on,,,,,48,0,3,,,,,2,,,59,87
177120,note_on,,,,,48,0,2,,,,,1,,,62,96
177120,note_off,,,,,96,0,1,,,,,0,,,74,0
177168,note_off,,,,,48,0,2,,,,,1,,,62,0
177168,note_off,,,,,48,0,3,,,,,2,,,59,0
177216,note_on,,,,,0,0,1,,,,,0,,,74,103
177216,note_off,,,,,96,0,1,,,,,0,,,76,0
177216,note_on,,,,,48,0,2,,,,,1,,,65,96
177216,note_off,,,,,96,0,4,,,,,3,,,55,0
177216,note_on,,,,,48,0,3,,,,,2,,,62,87
177216,note_on,,,,,0,0,4,,,,,3,,,55,78
177264,note_off,,,,,48,0,2,,,,,1,,,65,0
177264,note_off,,,,,48,0,3,,,,,2,,,62,0
177264,note_off,,,,,48,0,1,,,,,0,,,74,0
177312,note_on,,,,,0,0,4,,,,,3,,,55,78
177312,note_off,,,,,96,0,4,,,,,3,,,55,0
177312,note_on,,,,,48,0,1,,,,,0,,,72,103
177312,note_on,,,,,48,0,3,,,,,2,,,64,87
177312,note_on,,,,,48,0,2,,,,,1,,,67,96
177360,note_off,,,,,48,0,2,,,,,1,,,67,0
177360,note_off,,,,,48,0,3,,,,,2,,,64,0
177360,note_off,,,,,48,0,1,,,,,0,,,72,0
177408,note_off,,,,,96,0,4,,,,,3,,,55,0
177408,note_on,,,,,48,0,3,,,,,2,,,65,87
177408,note_on,,,,,0,0,4,,,,,3,,,55,78
177408,note_on,,,,,48,0,1,,,,,0,,,71,103
177408,note_on,,,,,48,0,2,,,,,1,,,69,96
177456,note_off,,,,,48,0,2,,,,,1,,,69,0
177456,note_off,,,,,48,0,3,,,,,2,,,65,0
177504,note_off,,,,,96,0,4,,,,,3,,,55,0
177504,note_on,,,,,0,0,4,,,,,3,,,55,78
177504,note_off,,,,,96,0,1,,,,,0,,,71,0
177504,note_on,,,,,48,0,3,,,,,2,,,64,87
177504,note_on,,,,,48,0,2,,,,,1,,,67,96
177552,note_off,,,,,48,0,3,,,,,2,,,64,0
177552,note_off,,,,,48,0,2,,,,,1,,,67,0
177600,note_on,,,,,48,0,2,,,,,1,,,65,96
177600,note_on,,,,,96,0,1,,,,,0,,,79,103
177600,note_on,,,,,48,0,3,,,,,2,,,62,87
177600,note_off,,,,,96,0,4,,,,,3,,,55,0
177600,note_on,,,,,0,0,4,,,,,3,,,55,78
177648,note_off,,,,,48,0,2,,,,,1,,,65,0
177648,note_off,,,,,48,0,3,,,,,2,,,62,0
177696,note_off,,,,,96,0,4,,,,,3,,,55,0
177696,note_on,,,,,0,0,4,,,,,3,,,55,78
177696,note_on,,,,,48,0,2,,,,,1,,,64,96
177696,note_on,,,,,48,0,3,,,,,2,,,60,87
177744,note_off,,,,,48,0,3,,,,,2,,,60,0
177744,note_off,,,,,48,0,2,,,,,1,,,64,0
177792,note_on,,,,,48,0,2,,,,,1,,,62,96
177792,note_off,,,,,96,0,4,,,,,3,,,55,0
177792,note_on,,,,,48,0,3,,,,,2,,,59,87
177792,note_on,,,,,0,0,4,,,,,3,,,55,78
177888,note_off,,,,,96,0,2,,,,,1,,,62,0
177888,note_off,,,,,96,0,4,,,,,3,,,55,0
177888,note_off,,,,,96,0,3,,,,,2,,,59,0
177984,note_on,,,,,96,0,3,,,,,2,,,65,87
177984,note_on,,,,,96,0,4,,,,,3,,,50,78
177984,note_off,,,,,384,0,1,,,,,0,,,79,0
178032,note_off,,,,,48,0,3,,,,,2,,,65,0
178080,note_on,,,,,0,0,4,,,,,3,,,52,78
178080,note_on,,,,,48,0,3,,,,,2,,,67,87
178080,note_off,,,,,96,0,4,,,,,3,,,50,0
178128,note_off,,,,,48,0,3,,,,,2,,,67,0
178176,note_off,,,,,96,0,4,,,,,3,,,52,0
178176,note_on,,,,,0,0,4,,,,,3,,,53,78
178176,note_on,,,,,48,0,3,,,,,2,,,69,87
178224,note_off,,,,,48,0,3,,,,,2,,,69,0
178272,note_on,,,,,48,0,3,,,,,2,,,67,87
178272,note_off,,,,,96,0,4,,,,,3,,,53,0
178272,note_on,,,,,0,0,4,,,,,3,,,52,78
178320,note_off,,,,,48,0,3,,,,,2,,,67,0
178368,note_on,,,,,48,0,3,,,,,2,,,65,87
178368,note_off,,,,,96,0,4,,,,,3,,,52,0
178368,note_on,,,,,0,0,4,,,,,3,,,50,78
178416,note_off,,,,,48,0,3,,,,,2,,,65,0
178464,note_on,,,,,48,0,3,,,,,2,,,64,87
178464,note_off,,,,,96,0,4,,,,,3,,,50,0
178464,note_on,,,,,0,0,4,,,,,3,,,48,78
178512,note_off,,,,,48,0,3,,,,,2,,,64,0
178560,note_on,,,,,48,0,3,,,,,2,,,62,87
178560,note_on,,,,,0,0,4,,,,,3,,,47,78
178560,note_off,,,,,96,0,4,,,,,3,,,48,0
178608,note_off,,,,,48,0,3,,,,,2,,,62,0
178656,note_on,,,,,48,0,3,,,,,2,,,64,87
178656,note_on,,,,,0,0,4,,,,,3,,,48,78
178656,note_off,,,,,96,0,4,,,,,3,,,47,0
178704,note_off,,,,,48,0,3,,,,,2,,,64,0
178752,note_on,,,,,768,0,1,,,,,0,,,77,103
178752,note_on,,,,,0,0,4,,,,,3,,,47,78
178752,note_off,,,,,96,0,4,,,,,3,,,48,0
178752,note_on,,,,,864,0,2,,,,,1,,,62,96
178752,note_on,,,,,48,0,3,,,,,2,,,62,87
178800,note_off,,,,,48,0,2,,,,,1,,,62,0
178800,note_off,,,,,48,0,1,,,,,0,,,77,0
178800,note_off,,,,,48,0,3,,,,,2,,,62,0
178848,note_on,,,,,48,0,3,,,,,2,,,60,87
178848,note_off,,,,,96,0,4,,,,,3,,,47,0
178848,note_on,,,,,0,0,4,,,,,3,,,45,78
178848,note_on,,,,,48,0,2,,,,,1,,,64,96
178848,note_on,,,,,48,0,1,,,,,0,,,79,103
178896,note_off,,,,,48,0,3,,,,,2,,,60,0
178896,note_off,,,,,48,0,1,,,,,0,,,79,0
178896,note_off,,,,,48,0,2,,,,,1,,,64,0
178944,note_on,,,,,48,0,2,,,,,1,,,65,96
178944,note_off,,,,,96,0,4,,,,,3,,,45,0
178944,note_on,,,,,0,0,4,,,,,3,,,43,78
178944,note_on,,,,,48,0,3,,,,,2,,,59,87
178944,note_on,,,,,48,0,1,,,,,0,,,81,103
178992,note_off,,,,,48,0,2,,,,,1,,,65,0
178992,note_off,,,,,48,0,1,,,,,0,,,81,0
179040,note_on,,,,,48,0,1,,,,,0,,,79,103
179040,note_off,,,,,96,0,3,,,,,2,,,59,0
179040,note_on,,,,,48,0,2,,,,,1,,,64,96
179040,note_off,,,,,96,0,4,,,,,3,,,43,0
179088,note_off,,,,,48,0,1,,,,,0,,,79,0
179088,note_off,,,,,48,0,2,,,,,1,,,64,0
179136,note_on,,,,,96,0,4,,,,,3,,,55,78
179136,note_on,,,,,96,0,3,,,,,2,,,67,87
179136,note_on,,,,,48,0,1,,,,,0,,,77,103
179136,note_on,,,,,48,0,2,,,,,1,,,62,96
179184,note_off,,,,,48,0,2,,,,,1,,,62,0
179184,note_off,,,,,48,0,1,,,,,0,,,77,0
179232,note_on,,,,,48,0,1,,,,,0,,,76,103
179232,note_on,,,,,48,0,2,,,,,1,,,60,96
179280,note_off,,,,,48,0,1,,,,,0,,,76,0
179280,note_off,,,,,48,0,2,,,,,1,,,60,0
179328,note_on,,,,,48,0,2,,,,,1,,,59,96
179328,note_on,,,,,48,0,1,,,,,0,,,74,103
179376,note_off,,,,,48,0,1,,,,,0,,,74,0
179376,note_off,,,,,48,0,2,,,,,1,,,59,0
179424,note_on,,,,,48,0,1,,,,,0,,,76,103
179424,note_on,,,,,48,0,2,,,,,1,,,60,96
179472,note_off,,,,,48,0,1,,,,,0,,,76,0
179472,note_off,,,,,48,0,2,,,,,1,,,60,0
179520,note_off,,,,,384,0,3,,,,,2,,,67,0
179520,note_on,,,,,0,0,4,,,,,3,,,50,78
179520,note_on,,,,,48,0,2,,,,,1,,,59,96
179520,note_off,,,,,384,0,4,,,,,3,,,55,0
179520,note_on,,,,,0,0,3,,,,,2,,,65,87
179520,note_on,,,,,48,0,1,,,,,0,,,74,103
179568,note_off,,,,,48,0,3,,,,,2,,,65,0
179568,note_off,,,,,48,0,2,,,,,1,,,59,0
179568,note_off,,,,,48,0,1,,,,,0,,,74,0
179616,note_on,,,,,48,0,2,,,,,1,,,57,96
179616,note_on,,,,,48,0,1,,,,,0,,,72,103
179616,note_on,,,,,0,0,4,,,,,3,,,52,78
179616,note_on,,,,,48,0,3,,,,,2,,,67,87
179616,note_off,,,,,96,0,4,,,,,3,,,50,0
179664,note_off,,,,,48,0,2,,,,,1,,,57,0
179664,note_off,,,,,48,0,3,,,,,2,,,67,0
179664,note_off,,,,,48,0,1,,,,,0,,,72,0
179712,note_on,,,,,0,0,4,,,,,3,,,53,78
179712,note_on,,,,,48,0,3,,,,,2,,,69,87
179712,note_off,,,,,96,0,4,,,,,3,,,52,0
179712,note_on,,,,,48,0,1,,,,,0,,,71,103
179712,note_on,,,,,48,0,2,,,,,1,,,55,96
179760,note_off,,,,,48,0,3,,,,,2,,,69,0
179808,note_off,,,,,96,0,4,,,,,3,,,53,0
179808,note_on,,,,,48,0,3,,,,,2,,,67,87
179808,note_off,,,,,96,0,2,,,,,1,,,55,0
179808,note_off,,,,,96,0,1,,,,,0,,,71,0
179808,note_on,,,,,0,0,4,,,,,3,,,52,78
179856,note_off,,,,,48,0,3,,,,,2,,,67,0
179904,note_on,,,,,48,0,3,,,,,2,,,65,87
179904,note_on,,,,,96,0,1,,,,,0,,,79,103
179904,note_on,,,,,0,0,4,,,,,3,,,50,78
179904,note_on,,,,,96,0,2,,,,,1,,,67,96
179904,note_off,,,,,96,0,4,,,,,3,,,52,0
179952,note_off,,,,,48,0,3,,,,,2,,,65,0
180000,note_off,,,,,96,0,4,,,,,3,,,50,0
180000,note_on,,,,,0,0,4,,,,,3,,,48,78
180000,note_on,,,,,48,0,3,,,,,2,,,64,87
180048,note_off,,,,,48,0,3,,,,,2,,,64,0
180096,note_on,,,,,48,0,3,,,,,2,,,62,87
180096,note_on,,,,,0,0,4,,,,,3,,,47,78
180096,note_off,,,,,96,0,4,,,,,3,,,48,0
180144,note_off,,,,,48,0,3,,,,,2,,,62,0
180192,note_on,,,,,48,0,3,,,,,2,,,64,87
180192,note_on,,,,,0,0,4,,,,,3,,,48,78
180192,note_off,,,,,96,0,4,,,,,3,,,47,0
180240,note_off,,,,,48,0,3,,,,,2,,,64,0
180288,note_on,,,,,0,0,1,,,,,0,,,77,103
180288,note_on,,,,,0,0,4,,,,,3,,,47,78
180288,note_off,,,,,384,0,1,,,,,0,,,79,0
180288,note_off,,,,,384,0,2,,,,,1,,,67,0
180288,note_on,,,,,0,0,2,,,,,1,,,62,96
180288,note_off,,,,,96,0,4,,,,,3,,,48,0
180288,note_on,,,,,48,0,3,,,,,2,,,62,87
180336,note_off,,,,,48,0,1,,,,,0,,,77,0
180336,note_off,,,,,48,0,2,,,,,1,,,62,0
180336,note_off,,,,,48,0,3,,,,,2,,,62,0
180384,note_off,,,,,96,0,4,,,,,3,,,47,0
180384,note_on,,,,,0,0,4,,,,,3,,,45,78
180384,note_on,,,,,48,0,1,,,,,0,,,79,103
180384,note_on,,,,,48,0,3,,,,,2,,,60,87
180384,note_on,,,,,48,0,2,,,,,1,,,64,96
180432,note_off,,,,,48,0,1,,,,,0,,,79,0
180432,note_off,,,,,48,0,3,,,,,2,,,60,0
180432,note_off,,,,,48,0,2,,,,,1,,,64,0
180480,note_off,,,,,96,0,4,,,,,3,,,45,0
180480,note_on,,,,,48,0,2,,,,,1,,,65,96
180480,note_on,,,,,48,0,3,,,,,2,,,59,87
180480,note_on,,,,,0,0,4,,,,,3,,,43,78
180480,note_on,,,,,48,0,1,,,,,0,,,81,103
180528,note_off,,,,,48,0,1,,,,,0,,,81,0
180528,note_off,,,,,48,0,2,,,,,1,,,65,0
180576,note_on,,,,,48,0,1,,,,,0,,,79,103
180576,note_off,,,,,96,0,3,,,,,2,,,59,0
180576,note_off,,,,,96,0,4,,,,,3,,,43,0
180576,note_on,,,,,48,0,2,,,,,1,,,64,96
180624,note_off,,,,,48,0,2,,,,,1,,,64,0
180624,note_off,,,,,48,0,1,,,,,0,,,79,0
180672,note_on,,,,,96,0,4,,,,,3,,,55,78
180672,note_on,,,,,96,0,3,,,,,2,,,65,87
180672,note_on,,,,,48,0,2,,,,,1,,,62,96
180672,note_on,,,,,48,0,1,,,,,0,,,77,103
180720,note_off,,,,,48,0,1,,,,,0,,,77,0
180720,note_off,,,,,48,0,2,,,,,1,,,62,0
180768,note_on,,,,,48,0,2,,,,,1,,,60,96
180768,note_on,,,,,48,0,1,,,,,0,,,76,103
180816,note_off,,,,,48,0,1,,,,,0,,,76,0
180816,note_off,,,,,48,0,2,,,,,1,,,60,0
180864,note_on,,,,,48,0,1,,,,,0,,,74,103
180864,note_on,,,,,48,0,2,,,,,1,,,59,96
180912,note_off,,,,,48,0,1,,,,,0,,,74,0
180912,note_off,,,,,48,0,2,,,,,1,,,59,0
180960,note_on,,,,,48,0,2,,,,,1,,,60,96
180960,note_on,,,,,48,0,1,,,,,0,,,76,103
181008,note_off,,,,,48,0,1,,,,,0,,,76,0
181008,note_off,,,,,48,0,2,,,,,1,,,60,0
181056,note_on,,,,,48,0,1,,,,,0,,,74,103
181056,note_off,,,,,384,0,3,,,,,2,,,65,0
181056,note_on,,,,,0,0,3,,,,,2,,,62,87
181056,note_off,,,,,384,0,4,,,,,3,,,55,0
181056,note_on,,,,,48,0,2,,,,,1,,,59,96
181104,note_off,,,,,48,0,1,,,,,0,,,74,0
181104,note_off,,,,,48,0,3,,,,,2,,,62,0
181104,note_off,,,,,48,0,2,,,,,1,,,59,0
181152,note_on,,,,,48,0,2,,,,,1,,,57,96
181152,note_on,,,,,48,0,3,,,,,2,,,66,87
181152,note_on,,,,,48,0,1,,,,,0,,,72,103
181200,note_off,,,,,48,0,1,,,,,0,,,72,0
181200,note_off,,,,,48,0,2,,,,,1,,,57,0
181200,note_off,,,,,48,0,3,,,,,2,,,66,0
181248,note_on,,,,,48,0,1,,,,,0,,,71,103
181248,note_on,,,,,48,0,3,,,,,2,,,67,87
181248,note_on,,,,,48,0,2,,,,,1,,,55,96
181248,note_on,,,,,192,0,4,,,,,3,,,43,78
181296,note_off,,,,,48,0,3,,,,,2,,,67,0
181344,note_on,,,,,48,0,3,,,,,2,,,69,87
181344,note_off,,,,,96,0,1,,,,,0,,,71,0
181344,note_off,,,,,96,0,2,,,,,1,,,55,0
181344,note_off,,,,,96,0,4,,,,,3,,,43,0
181392,note_off,,,,,48,0,3,,,,,2,,,69,0
181440,note_on,,,,,96,0,4,,,,,3,,,43,78
181440,note_on,,,,,96,0,1,,,,,0,,,79,103
181440,note_on,,,,,96,0,2,,,,,1,,,61,96
181440,note_on,,,,,48,0,3,,,,,2,,,67,87
181488,note_off,,,,,48,0,3,,,,,2,,,67,0
181536,note_on,,,,,48,0,3,,,,,2,,,65,87
181584,note_off,,,,,48,0,3,,,,,2,,,65,0
181632,note_on,,,,,48,0,3,,,,,2,,,64,87
181632,note_on,,,,,0,0,1,,,,,0,,,82,103
181632,note_off,,,,,192,0,1,,,,,0,,,79,0
181632,note_off,,,,,192,0,2,,,,,1,,,61,0
181632,note_on,,,,,0,0,2,,,,,1,,,64,96
181680,note_off,,,,,48,0,3,,,,,2,,,64,0
181728,note_on,,,,,48,0,3,,,,,2,,,65,87
181776,note_off,,,,,48,0,3,,,,,2,,,65,0
181824,note_on,,,,,48,0,3,,,,,2,,,67,87
181824,note_on,,,,,0,0,1,,,,,0,,,73,103
181824,note_off,,,,,192,0,1,,,,,0,,,82,0
181824,note_off,,,,,192,0,2,,,,,1,,,64,0
181824,note_on,,,,,0,0,2,,,,,1,,,70,96
181872,note_off,,,,,48,0,3,,,,,2,,,67,0
181920,note_on,,,,,48,0,3,,,,,2,,,64,87
181968,note_off,,,,,48,0,3,,,,,2,,,64,0
182016,note_on,,,,,0,0,2,,,,,1,,,69,96
182016,note_off,,,,,192,0,2,,,,,1,,,70,0
182016,note_on,,,,,0,0,4,,,,,3,,,43,78
182016,note_off,,,,,192,0,1,,,,,0,,,73,0
182016,note_on,,,,,0,0,1,,,,,0,,,74,103
182016,note_on,,,,,48,0,3,,,,,2,,,65,87
182016,note_off,,,,,576,0,4,,,,,3,,,43,0
182064,note_off,,,,,48,0,3,,,,,2,,,65,0
182112,note_off,,,,,96,0,1,,,,,0,,,74,0
182112,note_off,,,,,96,0,4,,,,,3,,,43,0
182112,note_off,,,,,96,0,2,,,,,1,,,69,0
182112,note_on,,,,,48,0,3,,,,,2,,,67,87
182160,note_off,,,,,48,0,3,,,,,2,,,67,0
182208,note_on,,,,,96,0,2,,,,,1,,,59,96
182208,note_on,,,,,96,0,1,,,,,0,,,77,103
182208,note_on,,,,,48,0,3,,,,,2,,,65,87
182208,note_on,,,,,96,0,4,,,,,3,,,43,78
182256,note_off,,,,,48,0,3,,,,,2,,,65,0
182304,note_on,,,,,48,0,3,,,,,2,,,64,87
182352,note_off,,,,,48,0,3,,,,,2,,,64,0
182400,note_off,,,,,192,0,2,,,,,1,,,59,0
182400,note_on,,,,,0,0,2,,,,,1,,,62,96
182400,note_on,,,,,0,0,1,,,,,0,,,80,103
182400,note_on,,,,,48,0,3,,,,,2,,,62,87
182400,note_off,,,,,192,0,1,,,,,0,,,77,0
182448,note_off,,,,,48,0,3,,,,,2,,,62,0
182496,note_on,,,,,48,0,3,,,,,2,,,64,87
182544,note_off,,,,,48,0,3,,,,,2,,,64,0
182592,note_on,,,,,0,0,2,,,,,1,,,68,96
182592,note_off,,,,,192,0,2,,,,,1,,,62,0
182592,note_on,,,,,48,0,3,,,,,2,,,65,87
182592,note_on,,,,,0,0,1,,,,,0,,,71,103
182592,note_off,,,,,192,0,1,,,,,0,,,80,0
182640,note_off,,,,,48,0,3,,,,,2,,,65,0
182688,note_on,,,,,48,0,3,,,,,2,,,62,87
182736,note_off,,,,,48,0,3,,,,,2,,,62,0
182784,note_on,,,,,0,0,1,,,,,0,,,72,103
182784,note_on,,,,,0,0,2,,,,,1,,,67,96
182784,note_off,,,,,192,0,1,,,,,0,,,71,0
182784,note_on,,,,,48,0,3,,,,,2,,,64,87
182784,note_off,,,,,192,0,2,,,,,1,,,68,0
182784,note_on,,,,,0,0,4,,,,,3,,,43,78
182784,note_off,,,,,576,0,4,,,,,3,,,43,0
182832,note_off,,,,,48,0,3,,,,,2,,,64,0
182880,note_off,,,,,96,0,4,,,,,3,,,43,0
182880,note_off,,,,,96,0,1,,,,,0,,,72,0
182880,note_off,,,,,96,0,2,,,,,1,,,67,0
182880,note_on,,,,,48,0,3,,,,,2,,,65,87
182928,note_off,,,,,48,0,3,,,,,2,,,65,0
182976,note_on,,,,,96,0,1,,,,,0,,,72,103
182976,note_on,,,,,48,0,3,,,,,2,,,64,87
182976,note_on,,,,,96,0,2,,,,,1,,,57,96
182976,note_on,,,,,96,0,4,,,,,3,,,43,78
183024,note_off,,,,,48,0,3,,,,,2,,,64,0
183072,note_on,,,,,48,0,3,,,,,2,,,62,87
183120,note_off,,,,,48,0,3,,,,,2,,,62,0
183168,note_off,,,,,192,0,2,,,,,1,,,57,0
183168,note_on,,,,,0,0,1,,,,,0,,,78,103
183168,note_on,,,,,0,0,2,,,,,1,,,60,96
183168,note_off,,,,,192,0,1,,,,,0,,,72,0
183168,note_on,,,,,48,0,3,,,,,2,,,60,87
183216,note_off,,,,,48,0,3,,,,,2,,,60,0
183264,note_on,,,,,48,0,3,,,,,2,,,62,87
183312,note_off,,,,,48,0,3,,,,,2,,,62,0
183360,note_off,,,,,192,0,1,,,,,0,,,78,0
183360,note_on,,,,,0,0,1,,,,,0,,,69,103
183360,note_on,,,,,48,0,3,,,,,2,,,63,87
183360,note_on,,,,,0,0,2,,,,,1,,,66,96
183360,note_off,,,,,192,0,2,,,,,1,,,60,0
183408,note_off,,,,,48,0,3,,,,,2,,,63,0
183456,note_on,,,,,48,0,3,,,,,2,,,60,87
183504,note_off,,,,,48,0,3,,,,,2,,,60,0
183552,note_off,,,,,192,0,1,,,,,0,,,69,0
183552,note_on,,,,,48,0,3,,,,,2,,,59,87
183552,note_off,,,,,192,0,2,,,,,1,,,66,0
183552,note_on,,,,,0,0,1,,,,,0,,,67,103
183552,note_on,,,,,0,0,2,,,,,1,,,67,96
183552,note_on,,,,,0,0,4,,,,,3,,,43,78
183552,note_off,,,,,576,0,4,,,,,3,,,43,0
183600,note_off,,,,,48,0,3,,,,,2,,,59,0
183648,note_off,,,,,96,0,4,,,,,3,,,43,0
183648,note_on,,,,,48,0,3,,,,,2,,,60,87
183696,note_off,,,,,48,0,3,,,,,2,,,60,0
183744,note_on,,,,,96,0,4,,,,,3,,,50,78
183744,note_off,,,,,192,0,1,,,,,0,,,67,0
183744,note_on,,,,,0,0,1,,,,,0,,,72,103
183744,note_on,,,,,48,0,3,,,,,2,,,57,87
183744,note_on,,,,,0,0,2,,,,,1,,,66,96
183744,note_off,,,,,192,0,2,,,,,1,,,67,0
183792,note_off,,,,,48,0,3,,,,,2,,,57,0
183840,note_on,,,,,48,0,3,,,,,2,,,59,87
183840,note_off,,,,,96,0,4,,,,,3,,,50,0
183888,note_off,,,,,48,0,3,,,,,2,,,59,0
183936,note_on,,,,,96,0,4,,,,,3,,,55,78
183936,note_off,,,,,192,0,1,,,,,0,,,72,0
183936,note_on,,,,,48,0,3,,,,,2,,,55,87
183936,note_on,,,,,0,0,1,,,,,0,,,71,103
183936,note_off,,,,,192,0,2,,,,,1,,,66,0
183936,note_on,,,,,0,0,2,,,,,1,,,67,96
184032,note_off,,,,,96,0,3,,,,,2,,,55,0
184032,note_off,,,,,96,0,4,,,,,3,,,55,0
184128,note_off,,,,,192,0,2,,,,,1,,,67,0
184128,note_off,,,,,192,0,1,,,,,0,,,71,0
184128,note_on,,,,,0,0,1,,,,,0,,,76,103
184224,note_off,,,,,96,0,1,,,,,0,,,76,0
184224,note_on,,,,,0,0,1,,,,,0,,,77,103
184320,note_off,,,,,96,0,1,,,,,0,,,77,0
184320,note_on,,,,,288,0,4,,,,,3,,,60,78
184320,note_on,,,,,288,0,3,,,,,2,,,64,87
184320,note_on,,,,,192,0,2,,,,,1,,,67,96
184320,note_on,,,,,0,0,1,,,,,0,,,79,103
184368,note_off,,,,,48,0,2,,,,,1,,,67,0
184368,note_off,,,,,48,0,3,,,,,2,,,64,0
184368,note_off,,,,,48,0,4,,,,,3,,,60,0
184416,note_off,,,,,96,0,1,,,,,0,,,79,0
184416,note_on,,,,,48,0,4,,,,,3,,,60,78
184416,note_on,,,,,48,0,3,,,,,2,,,64,87
184416,note_on,,,,,48,0,2,,,,,1,,,67,96
184416,note_on,,,,,0,0,1,,,,,0,,,77,103
184464,note_off,,,,,48,0,4,,,,,3,,,60,0
184464,note_off,,,,,48,0,2,,,,,1,,,67,0
184464,note_off,,,,,48,0,3,,,,,2,,,64,0
184512,note_on,,,,,48,0,2,,,,,1,,,67,96
184512,note_off,,,,,96,0,1,,,,,0,,,77,0
184512,note_on,,,,,48,0,4,,,,,3,,,60,78
184512,note_on,,,,,0,0,1,,,,,0,,,76,103
184512,note_on,,,,,48,0,3,,,,,2,,,64,87
184560,note_off,,,,,48,0,4,,,,,3,,,60,0
184560,note_off,,,,,48,0,3,,,,,2,,,64,0
184560,note_off,,,,,48,0,2,,,,,1,,,67,0
184608,note_on,,,,,48,0,3,,,,,2,,,64,87
184608,note_off,,,,,96,0,1,,,,,0,,,76,0
184608,note_on,,,,,0,0,1,,,,,0,,,74,103
184608,note_on,,,,,48,0,2,,,,,1,,,67,96
184608,note_on,,,,,48,0,4,,,,,3,,,60,78
184656,note_off,,,,,48,0,2,,,,,1,,,67,0
184656,note_off,,,,,48,0,4,,,,,3,,,60,0
184656,note_off,,,,,48,0,3,,,,,2,,,64,0
184704,note_on,,,,,48,0,3,,,,,2,,,64,87
184704,note_off,,,,,96,0,1,,,,,0,,,74,0
184704,note_on,,,,,48,0,2,,,,,1,,,67,96
184704,note_on,,,,,0,0,1,,,,,0,,,72,103
184704,note_on,,,,,48,0,4,,,,,3,,,60,78
184752,note_off,,,,,48,0,4,,,,,3,,,60,0
184752,note_off,,,,,48,0,2,,,,,1,,,67,0
184752,note_off,,,,,48,0,3,,,,,2,,,64,0
184800,note_on,,,,,48,0,3,,,,,2,,,64,87
184800,note_off,,,,,96,0,1,,,,,0,,,72,0
184800,note_on,,,,,0,0,1,,,,,0,,,74,103
184800,note_on,,,,,48,0,4,,,,,3,,,60,78
184800,note_on,,,,,48,0,2,,,,,1,,,67,96
184848,note_off,,,,,48,0,3,,,,,2,,,64,0
184848,note_off,,,,,48,0,4,,,,,3,,,60,0
184848,note_off,,,,,48,0,2,,,,,1,,,67,0
184896,note_off,,,,,96,0,1,,,,,0,,,74,0
184896,note_on,,,,,48,0,3,,,,,2,,,64,87
184896,note_on,,,,,48,0,4,,,,,3,,,60,78
184896,note_on,,,,,0,0,1,,,,,0,,,72,103
184896,note_on,,,,,48,0,2,,,,,1,,,68,96
184944,note_off,,,,,48,0,2,,,,,1,,,68,0
184944,note_off,,,,,48,0,3,,,,,2,,,64,0
184944,note_off,,,,,48,0,4,,,,,3,,,60,0
184992,note_on,,,,,48,0,3,,,,,2,,,64,87
184992,note_on,,,,,48,0,4,,,,,3,,,60,78
184992,note_off,,,,,96,0,1,,,,,0,,,72,0
184992,note_on,,,,,48,0,2,,,,,1,,,68,96
184992,note_on,,,,,0,0,1,,,,,0,,,71,103
185040,note_off,,,,,48,0,4,,,,,3,,,60,0
185040,note_off,,,,,48,0,3,,,,,2,,,64,0
185040,note_off,,,,,48,0,2,,,,,1,,,68,0
185088,note_off,,,,,96,0,1,,,,,0,,,71,0
185088,note_on,,,,,0,0,1,,,,,0,,,69,103
185088,note_on,,,,,48,0,3,,,,,2,,,65,87
185088,note_on,,,,,48,0,2,,,,,1,,,69,96
185088,note_on,,,,,48,0,4,,,,,3,,,53,78
185136,note_off,,,,,48,0,3,,,,,2,,,65,0
185136,note_off,,,,,48,0,2,,,,,1,,,69,0
185184,note_on,,,,,48,0,3,,,,,2,,,53,87
185184,note_on,,,,,48,0,2,,,,,1,,,57,96
185184,note_off,,,,,96,0,1,,,,,0,,,69,0
185232,note_off,,,,,48,0,3,,,,,2,,,53,0
185232,note_off,,,,,48,0,2,,,,,1,,,57,0
185280,note_on,,,,,48,0,3,,,,,2,,,55,87
185280,note_on,,,,,48,0,2,,,,,1,,,59,96
185280,note_on,,,,,96,0,1,,,,,0,,,74,103
185328,note_off,,,,,48,0,3,,,,,2,,,55,0
185328,note_off,,,,,48,0,2,,,,,1,,,59,0
185376,note_on,,,,,48,0,2,,,,,1,,,60,96
185376,note_on,,,,,48,0,3,,,,,2,,,57,87
185424,note_off,,,,,48,0,3,,,,,2,,,57,0
185424,note_off,,,,,48,0,2,,,,,1,,,60,0
185472,note_on,,,,,48,0,2,,,,,1,,,62,96
185472,note_on,,,,,48,0,3,,,,,2,,,59,87
185472,note_off,,,,,384,0,4,,,,,3,,,53,0
185520,note_off,,,,,48,0,2,,,,,1,,,62,0
185520,note_off,,,,,48,0,3,,,,,2,,,59,0
185568,note_on,,,,,48,0,3,,,,,2,,,59,87
185568,note_on,,,,,48,0,2,,,,,1,,,62,96
185616,note_off,,,,,48,0,2,,,,,1,,,62,0
185616,note_off,,,,,48,0,3,,,,,2,,,59,0
185664,note_on,,,,,0,0,1,,,,,0,,,71,103
185664,note_off,,,,,384,0,1,,,,,0,,,74,0
185664,note_on,,,,,192,0,4,,,,,3,,,55,78
185664,note_on,,,,,48,0,3,,,,,2,,,59,87
185664,note_on,,,,,48,0,2,,,,,1,,,62,96
185712,note_off,,,,,48,0,3,,,,,2,,,59,0
185712,note_off,,,,,48,0,2,,,,,1,,,62,0
185760,note_on,,,,,48,0,3,,,,,2,,,59,87
185760,note_on,,,,,48,0,2,,,,,1,,,62,96
185808,note_off,,,,,48,0,3,,,,,2,,,59,0
185808,note_off,,,,,48,0,2,,,,,1,,,62,0
185856,note_off,,,,,192,0,4,,,,,3,,,55,0
185856,note_on,,,,,48,0,3,,,,,2,,,57,87
185856,note_off,,,,,192,0,1,,,,,0,,,71,0
185856,note_on,,,,,0,0,1,,,,,0,,,72,103
185856,note_on,,,,,48,0,2,,,,,1,,,60,96
185856,note_on,,,,,0,0,4,,,,,3,,,57,78
185904,note_off,,,,,48,0,2,,,,,1,,,60,0
185904,note_off,,,,,48,0,3,,,,,2,,,57,0
185952,note_on,,,,,48,0,3,,,,,2,,,57,87
185952,note_off,,,,,96,0,1,,,,,0,,,72,0
185952,note_on,,,,,48,0,2,,,,,1,,,60,96
186000,note_off,,,,,48,0,2,,,,,1,,,60,0
186000,note_off,,,,,48,0,3,,,,,2,,,57,0
186048,note_on,,,,,48,0,3,,,,,2,,,59,87
186048,note_on,,,,,96,0,1,,,,,0,,,77,103
186048,note_on,,,,,48,0,2,,,,,1,,,62,96
186096,note_off,,,,,48,0,3,,,,,2,,,59,0
186096,note_off,,,,,48,0,2,,,,,1,,,62,0
186144,note_on,,,,,48,0,3,,,,,2,,,60,87
186144,note_on,,,,,48,0,2,,,,,1,,,64,96
186192,note_off,,,,,48,0,2,,,,,1,,,64,0
186192,note_off,,,,,48,0,3,,,,,2,,,60,0
186240,note_off,,,,,384,0,4,,,,,3,,,57,0
186240,note_on,,,,,48,0,2,,,,,1,,,65,96
186240,note_on,,,,,48,0,3,,,,,2,,,62,87
186288,note_off,,,,,48,0,2,,,,,1,,,65,0
186288,note_off,,,,,48,0,3,,,,,2,,,62,0
186336,note_on,,,,,48,0,3,,,,,2,,,62,87
186336,note_on,,,,,48,0,2,,,,,1,,,65,96
186384,note_off,,,,,48,0,2,,,,,1,,,65,0
186384,note_off,,,,,48,0,3,,,,,2,,,62,0
186432,note_on,,,,,48,0,3,,,,,2,,,62,87
186432,note_off,,,,,384,0,1,,,,,0,,,77,0
186432,note_on,,,,,192,0,4,,,,,3,,,59,78
186432,note_on,,,,,0,0,1,,,,,0,,,74,103
186432,note_on,,,,,48,0,2,,,,,1,,,65,96
186480,note_off,,,,,48,0,3,,,,,2,,,62,0
186480,note_off,,,,,48,0,2,,,,,1,,,65,0
186528,note_on,,,,,48,0,2,,,,,1,,,65,96
186528,note_on,,,,,48,0,3,,,,,2,,,62,87
186576,note_off,,,,,48,0,2,,,,,1,,,65,0
186576,note_off,,,,,48,0,3,,,,,2,,,62,0
186624,note_off,,,,,192,0,1,,,,,0,,,74,0
186624,note_on,,,,,0,0,1,,,,,0,,,76,103
186624,note_off,,,,,192,0,4,,,,,3,,,59,0
186624,note_on,,,,,0,0,4,,,,,3,,,60,78
186624,note_on,,,,,48,0,2,,,,,1,,,64,96
186624,note_on,,,,,48,0,3,,,,,2,,,60,87
186672,note_off,,,,,48,0,2,,,,,1,,,64,0
186672,note_off,,,,,48,0,3,,,,,2,,,60,0
186720,note_on,,,,,48,0,3,,,,,2,,,60,87
186720,note_off,,,,,96,0,1,,,,,0,,,76,0
186720,note_on,,,,,48,0,2,,,,,1,,,64,96
186768,note_off,,,,,48,0,3,,,,,2,,,60,0
186768,note_off,,,,,48,0,2,,,,,1,,,64,0
186816,note_on,,,,,96,0,1,,,,,0,,,81,103
186816,note_on,,,,,48,0,2,,,,,1,,,65,96
186816,note_on,,,,,48,0,3,,,,,2,,,62,87
186864,note_off,,,,,48,0,3,,,,,2,,,62,0
186864,note_off,,,,,48,0,2,,,,,1,,,65,0
186912,note_on,,,,,48,0,2,,,,,1,,,67,96
186912,note_on,,,,,48,0,3,,,,,2,,,64,87
186960,note_off,,,,,48,0,3,,,,,2,,,64,0
186960,note_off,,,,,48,0,2,,,,,1,,,67,0
187008,note_off,,,,,384,0,4,,,,,3,,,60,0
187008,note_on,,,,,48,0,2,,,,,1,,,69,96
187008,note_on,,,,,0,0,4,,,,,3,,,53,78
187008,note_on,,,,,48,0,3,,,,,2,,,65,87
187056,note_off,,,,,48,0,3,,,,,2,,,65,0
187056,note_off,,,,,48,0,2,,,,,1,,,69,0
187104,note_on,,,,,48,0,2,,,,,1,,,69,96
187104,note_on,,,,,48,0,3,,,,,2,,,65,87
187152,note_off,,,,,48,0,3,,,,,2,,,65,0
187152,note_off,,,,,48,0,2,,,,,1,,,69,0
187200,note_off,,,,,384,0,1,,,,,0,,,81,0
187200,note_off,,,,,192,0,4,,,,,3,,,53,0
187200,note_on,,,,,0,0,4,,,,,3,,,56,78
187200,note_on,,,,,48,0,3,,,,,2,,,63,87
187200,note_on,,,,,48,0,2,,,,,1,,,72,96
187200,note_on,,,,,0,0,1,,,,,0,,,78,103
187248,note_off,,,,,48,0,2,,,,,1,,,72,0
187248,note_off,,,,,48,0,3,,,,,2,,,63,0
187296,note_on,,,,,48,0,3,,,,,2,,,63,87
187296,note_on,,,,,48,0,2,,,,,1,,,72,96
187344,note_off,,,,,48,0,2,,,,,1,,,72,0
187344,note_off,,,,,48,0,3,,,,,2,,,63,0
187392,note_on,,,,,0,0,1,,,,,0,,,78,103
187392,note_off,,,,,192,0,1,,,,,0,,,78,0
187392,note_on,,,,,48,0,2,,,,,1,,,67,96
187392,note_on,,,,,0,0,4,,,,,3,,,55,78
187392,note_on,,,,,48,0,3,,,,,2,,,62,87
187392,note_off,,,,,192,0,4,,,,,3,,,56,0
187440,note_off,,,,,48,0,2,,,,,1,,,67,0
187440,note_off,,,,,48,0,4,,,,,3,,,55,0
187440,note_off,,,,,48,0,3,,,,,2,,,62,0
187488,note_on,,,,,48,0,2,,,,,1,,,67,96
187488,note_on,,,,,0,0,1,,,,,0,,,79,103
187488,note_on,,,,,48,0,3,,,,,2,,,62,87
187488,note_off,,,,,96,0,1,,,,,0,,,78,0
187488,note_on,,,,,48,0,4,,,,,3,,,55,78
187536,note_off,,,,,48,0,2,,,,,1,,,67,0
187536,note_off,,,,,48,0,4,,,,,3,,,55,0
187536,note_off,,,,,48,0,3,,,,,2,,,62,0
187584,note_on,,,,,48,0,3,,,,,2,,,62,87
187584,note_on,,,,,48,0,2,,,,,1,,,67,96
187584,note_off,,,,,96,0,1,,,,,0,,,79,0
187584,note_on,,,,,0,0,1,,,,,0,,,77,103
187584,note_on,,,,,48,0,4,,,,,3,,,55,78
187632,note_off,,,,,48,0,4,,,,,3,,,55,0
187632,note_off,,,,,48,0,3,,,,,2,,,62,0
187632,note_off,,,,,48,0,2,,,,,1,,,67,0
187680,note_on,,,,,0,0,1,,,,,0,,,76,103
187680,note_off,,,,,96,0,1,,,,,0,,,77,0
187680,note_on,,,,,48,0,3,,,,,2,,,62,87
187680,note_on,,,,,48,0,2,,,,,1,,,67,96
187680,note_on,,,,,48,0,4,,,,,3,,,55,78
187728,note_off,,,,,48,0,3,,,,,2,,,62,0
187728,note_off,,,,,48,0,2,,,,,1,,,67,0
187728,note_off,,,,,48,0,4,,,,,3,,,55,0
187776,note_on,,,,,48,0,3,,,,,2,,,59,87
187776,note_on,,,,,48,0,4,,,,,3,,,55,78
187776,note_on,,,,,0,0,1,,,,,0,,,74,103
187776,note_off,,,,,96,0,1,,,,,0,,,76,0
187776,note_on,,,,,48,0,2,,,,,1,,,65,96
187824,note_off,,,,,48,0,4,,,,,3,,,55,0
187824,note_off,,,,,48,0,2,,,,,1,,,65,0
187824,note_off,,,,,48,0,3,,,,,2,,,59,0
187872,note_on,,,,,48,0,2,,,,,1,,,65,96
187872,note_off,,,,,96,0,1,,,,,0,,,74,0
187872,note_on,,,,,0,0,1,,,,,0,,,76,103
187872,note_on,,,,,48,0,4,,,,,3,,,55,78
187872,note_on,,,,,48,0,3,,,,,2,,,59,87
187920,note_off,,,,,48,0,4,,,,,3,,,55,0
187920,note_off,,,,,48,0,3,,,,,2,,,59,0
187920,note_off,,,,,48,0,2,,,,,1,,,65,0
187968,note_on,,,,,48,0,2,,,,,1,,,65,96
187968,note_on,,,,,0,0,1,,,,,0,,,77,103
187968,note_off,,,,,96,0,1,,,,,0,,,76,0
187968,note_on,,,,,48,0,4,,,,,3,,,55,78
187968,note_on,,,,,48,0,3,,,,,2,,,59,87
188016,note_off,,,,,48,0,2,,,,,1,,,65,0
188016,note_off,,,,,48,0,3,,,,,2,,,59,0
188016,note_off,,,,,48,0,4,,,,,3,,,55,0
188064,note_on,,,,,48,0,3,,,,,2,,,59,87
188064,note_on,,,,,48,0,4,,,,,3,,,55,78
188064,note_off,,,,,96,0,1,,,,,0,,,77,0
188064,note_on,,,,,0,0,1,,,,,0,,,74,103
188064,note_on,,,,,48,0,2,,,,,1,,,65,96
188112,note_off,,,,,48,0,3,,,,,2,,,59,0
188112,note_off,,,,,48,0,2,,,,,1,,,65,0
188112,note_off,,,,,48,0,4,,,,,3,,,55,0
188160,note_on,,,,,48,0,4,,,,,3,,,48,78
188160,note_on,,,,,0,0,1,,,,,0,,,72,103
188160,note_on,,,,,48,0,2,,,,,1,,,64,96
188160,note_off,,,,,96,0,1,,,,,0,,,74,0
188160,note_on,,,,,48,0,3,,,,,2,,,60,87
188208,note_off,,,,,48,0,2,,,,,1,,,64,0
188208,note_off,,,,,48,0,4,,,,,3,,,48,0
188208,note_off,,,,,48,0,3,,,,,2,,,60,0
188256,note_off,,,,,96,0,1,,,,,0,,,72,0
188256,note_on,,,,,48,0,2,,,,,1,,,64,96
188256,note_on,,,,,48,0,4,,,,,3,,,48,78
188256,note_on,,,,,48,0,3,,,,,2,,,60,87
188304,note_off,,,,,48,0,2,,,,,1,,,64,0
188304,note_off,,,,,48,0,4,,,,,3,,,48,0
188304,note_off,,,,,48,0,3,,,,,2,,,60,0
188352,note_on,,,,,96,0,1,,,,,0,,,84,103
188352,note_on,,,,,48,0,4,,,,,3,,,48,78
188352,note_on,,,,,48,0,2,,,,,1,,,64,96
188352,note_on,,,,,48,0,3,,,,,2,,,60,87
188400,note_off,,,,,48,0,4,,,,,3,,,48,0
188400,note_off,,,,,48,0,2,,,,,1,,,64,0
188400,note_off,,,,,48,0,3,,,,,2,,,60,0
188448,note_on,,,,,48,0,3,,,,,2,,,60,87
188448,note_off,,,,,96,0,1,,,,,0,,,84,0
188448,note_on,,,,,48,0,4,,,,,3,,,48,78
188448,note_on,,,,,48,0,2,,,,,1,,,64,96
188496,note_off,,,,,48,0,2,,,,,1,,,64,0
188496,note_off,,,,,48,0,3,,,,,2,,,60,0
188496,note_off,,,,,48,0,4,,,,,3,,,48,0
188544,note_on,,,,,48,0,4,,,,,3,,,48,78
188544,note_on,,,,,48,0,2,,,,,1,,,64,96
188544,note_on,,,,,48,0,3,,,,,2,,,60,87
188640,note_off,,,,,96,0,4,,,,,3,,,48,0
188640,note_off,,,,,96,0,3,,,,,2,,,60,0
188640,note_off,,,,,96,0,2,,,,,1,,,64,0
188736,note_on,,,,,96,0,3,,,,,2,,,64,87
188736,note_on,,,,,96,0,4,,,,,3,,,60,78
188784,note_off,,,,,48,0,3,,,,,2,,,64,0
188784,note_off,,,,,48,0,4,,,,,3,,,60,0
188832,note_on,,,,,48,0,3,,,,,2,,,65,87
188832,note_on,,,,,48,0,4,,,,,3,,,62,78
188880,note_off,,,,,48,0,4,,,,,3,,,62,0
188880,note_off,,,,,48,0,3,,,,,2,,,65,0
188928,note_on,,,,,48,0,4,,,,,3,,,64,78
188928,note_on,,,,,48,0,3,,,,,2,,,67,87
188976,note_off,,,,,48,0,4,,,,,3,,,64,0
188976,note_off,,,,,48,0,3,,,,,2,,,67,0
189024,note_on,,,,,48,0,4,,,,,3,,,62,78
189024,note_on,,,,,48,0,3,,,,,2,,,65,87
189072,note_off,,,,,48,0,4,,,,,3,,,62,0
189072,note_off,,,,,48,0,3,,,,,2,,,65,0
189120,note_on,,,,,48,0,4,,,,,3,,,60,78
189120,note_on,,,,,48,0,3,,,,,2,,,64,87
189168,note_off,,,,,48,0,4,,,,,3,,,60,0
189168,note_off,,,,,48,0,3,,,,,2,,,64,0
189216,note_on,,,,,48,0,3,,,,,2,,,62,87
189216,note_on,,,,,48,0,4,,,,,3,,,59,78
189264,note_off,,,,,48,0,4,,,,,3,,,59,0
189264,note_off,,,,,48,0,3,,,,,2,,,62,0
189312,note_on,,,,,48,0,4,,,,,3,,,57,78
189312,note_on,,,,,48,0,3,,,,,2,,,60,87
189360,note_off,,,,,48,0,4,,,,,3,,,57,0
189360,note_off,,,,,48,0,3,,,,,2,,,60,0
189408,note_on,,,,,48,0,4,,,,,3,,,59,78
189408,note_on,,,,,48,0,3,,,,,2,,,62,87
189456,note_off,,,,,48,0,4,,,,,3,,,59,0
189456,note_off,,,,,48,0,3,,,,,2,,,62,0
189504,note_on,,,,,48,0,4,,,,,3,,,57,78
189504,note_on,,,,,1056,0,1,,,,,0,,,81,103
189504,note_on,,,,,864,0,2,,,,,1,,,77,96
189504,note_on,,,,,48,0,3,,,,,2,,,60,87
189552,note_off,,,,,48,0,4,,,,,3,,,57,0
189552,note_off,,,,,48,0,2,,,,,1,,,77,0
189552,note_off,,,,,48,0,1,,,,,0,,,81,0
189552,note_off,,,,,48,0,3,,,,,2,,,60,0
189600,note_on,,,,,48,0,1,,,,,0,,,83,103
189600,note_on,,,,,48,0,4,,,,,3,,,55,78
189600,note_on,,,,,48,0,3,,,,,2,,,59,87
189600,note_on,,,,,48,0,2,,,,,1,,,79,96
189648,note_off,,,,,48,0,4,,,,,3,,,55,0
189648,note_off,,,,,48,0,3,,,,,2,,,59,0
189648,note_off,,,,,48,0,2,,,,,1,,,79,0
189648,note_off,,,,,48,0,1,,,,,0,,,83,0
189696,note_on,,,,,48,0,4,,,,,3,,,53,78
189696,note_on,,,,,48,0,1,,,,,0,,,84,103
189696,note_on,,,,,48,0,3,,,,,2,,,57,87
189696,note_on,,,,,48,0,2,,,,,1,,,81,96
189744,note_off,,,,,48,0,2,,,,,1,,,81,0
189744,note_off,,,,,48,0,1,,,,,0,,,84,0
189792,note_on,,,,,48,0,2,,,,,1,,,79,96
189792,note_off,,,,,96,0,3,,,,,2,,,57,0
189792,note_off,,,,,96,0,4,,,,,3,,,53,0
189792,note_on,,,,,48,0,1,,,,,0,,,83,103
189840,note_off,,,,,48,0,2,,,,,1,,,79,0
189840,note_off,,,,,48,0,1,,,,,0,,,83,0
189888,note_on,,,,,96,0,3,,,,,2,,,69,87
189888,note_on,,,,,48,0,1,,,,,0,,,81,103
189888,note_on,,,,,48,0,2,,,,,1,,,77,96
189888,note_on,,,,,96,0,4,,,,,3,,,65,78
189936,note_off,,,,,48,0,2,,,,,1,,,77,0
189936,note_off,,,,,48,0,1,,,,,0,,,81,0
189984,note_on,,,,,48,0,1,,,,,0,,,79,103
189984,note_on,,,,,48,0,2,,,,,1,,,76,96
190032,note_off,,,,,48,0,2,,,,,1,,,76,0
190032,note_off,,,,,48,0,1,,,,,0,,,79,0
190080,note_on,,,,,48,0,1,,,,,0,,,77,103
190080,note_on,,,,,48,0,2,,,,,1,,,74,96
190128,note_off,,,,,48,0,2,,,,,1,,,74,0
190128,note_off,,,,,48,0,1,,,,,0,,,77,0
190176,note_on,,,,,48,0,1,,,,,0,,,79,103
190176,note_on,,,,,48,0,2,,,,,1,,,76,96
190224,note_off,,,,,48,0,1,,,,,0,,,79,0
190224,note_off,,,,,48,0,2,,,,,1,,,76,0
190272,note_on,,,,,0,0,4,,,,,3,,,59,78
190272,note_off,,,,,384,0,4,,,,,3,,,65,0
190272,note_off,,,,,384,0,3,,,,,2,,,69,0
190272,note_on,,,,,0,0,3,,,,,2,,,62,87
190272,note_on,,,,,48,0,1,,,,,0,,,77,103
190272,note_on,,,,,48,0,2,,,,,1,,,74,96
190320,note_off,,,,,48,0,1,,,,,0,,,77,0
190320,note_off,,,,,48,0,2,,,,,1,,,74,0
190320,note_off,,,,,48,0,3,,,,,2,,,62,0
190320,note_off,,,,,48,0,4,,,,,3,,,59,0
190368,note_on,,,,,48,0,2,,,,,1,,,72,96
190368,note_on,,,,,48,0,1,,,,,0,,,76,103
190368,note_on,,,,,48,0,4,,,,,3,,,60,78
190368,note_on,,,,,48,0,3,,,,,2,,,64,87
190416,note_off,,,,,48,0,1,,,,,0,,,76,0
190416,note_off,,,,,48,0,3,,,,,2,,,64,0
190416,note_off,,,,,48,0,2,,,,,1,,,72,0
190416,note_off,,,,,48,0,4,,,,,3,,,60,0
190464,note_on,,,,,48,0,2,,,,,1,,,71,96
190464,note_on,,,,,48,0,4,,,,,3,,,62,78
190464,note_on,,,,,48,0,3,,,,,2,,,65,87
190464,note_on,,,,,48,0,1,,,,,0,,,74,103
190512,note_off,,,,,48,0,3,,,,,2,,,65,0
190512,note_off,,,,,48,0,4,,,,,3,,,62,0
190560,note_off,,,,,96,0,2,,,,,1,,,71,0
190560,note_on,,,,,48,0,4,,,,,3,,,60,78
190560,note_on,,,,,48,0,3,,,,,2,,,64,87
190560,note_off,,,,,96,0,1,,,,,0,,,74,0
190608,note_off,,,,,48,0,4,,,,,3,,,60,0
190608,note_off,,,,,48,0,3,,,,,2,,,64,0
190656,note_on,,,,,96,0,2,,,,,1,,,83,96
190656,note_on,,,,,48,0,3,,,,,2,,,62,87
190656,note_on,,,,,96,0,1,,,,,0,,,86,103
190656,note_on,,,,,48,0,4,,,,,3,,,59,78
190704,note_off,,,,,48,0,4,,,,,3,,,59,0
190704,note_off,,,,,48,0,3,,,,,2,,,62,0
190752,note_on,,,,,48,0,3,,,,,2,,,60,87
190752,note_on,,,,,48,0,4,,,,,3,,,57,78
190800,note_off,,,,,48,0,3,,,,,2,,,60,0
190800,note_off,,,,,48,0,4,,,,,3,,,57,0
190848,note_on,,,,,48,0,4,,,,,3,,,55,78
190848,note_on,,,,,48,0,3,,,,,2,,,59,87
190896,note_off,,,,,48,0,4,,,,,3,,,55,0
190896,note_off,,,,,48,0,3,,,,,2,,,59,0
190944,note_on,,,,,48,0,4,,,,,3,,,57,78
190944,note_on,,,,,48,0,3,,,,,2,,,60,87
190992,note_off,,,,,48,0,3,,,,,2,,,60,0
190992,note_off,,,,,48,0,4,,,,,3,,,57,0
191040,note_on,,,,,0,0,2,,,,,1,,,76,96
191040,note_off,,,,,384,0,1,,,,,0,,,86,0
191040,note_on,,,,,0,0,1,,,,,0,,,79,103
191040,note_off,,,,,384,0,2,,,,,1,,,83,0
191040,note_on,,,,,48,0,3,,,,,2,,,59,87
191040,note_on,,,,,48,0,4,,,,,3,,,55,78
191088,note_off,,,,,48,0,4,,,,,3,,,55,0
191088,note_off,,,,,48,0,1,,,,,0,,,79,0
191088,note_off,,,,,48,0,2,,,,,1,,,76,0
191088,note_off,,,,,48,0,3,,,,,2,,,59,0
191136,note_on,,,,,48,0,1,,,,,0,,,81,103
191136,note_on,,,,,48,0,3,,,,,2,,,57,87
191136,note_on,,,,,48,0,2,,,,,1,,,77,96
191136,note_on,,,,,48,0,4,,,,,3,,,53,78
191184,note_off,,,,,48,0,3,,,,,2,,,57,0
191184,note_off,,,,,48,0,2,,,,,1,,,77,0
191184,note_off,,,,,48,0,4,,,,,3,,,53,0
191184,note_off,,,,,48,0,1,,,,,0,,,81,0
191232,note_on,,,,,48,0,4,,,,,3,,,52,78
191232,note_on,,,,,48,0,2,,,,,1,,,79,96
191232,note_on,,,,,48,0,1,,,,,0,,,83,103
191232,note_on,,,,,48,0,3,,,,,2,,,55,87
191280,note_off,,,,,48,0,2,,,,,1,,,79,0
191280,note_off,,,,,48,0,1,,,,,0,,,83,0
191328,note_off,,,,,96,0,3,,,,,2,,,55,0
191328,note_off,,,,,96,0,4,,,,,3,,,52,0
191328,note_on,,,,,48,0,2,,,,,1,,,77,96
191328,note_on,,,,,48,0,1,,,,,0,,,81,103
191376,note_off,,,,,48,0,1,,,,,0,,,81,0
191376,note_off,,,,,48,0,2,,,,,1,,,77,0
191424,note_on,,,,,48,0,2,,,,,1,,,76,96
191424,note_on,,,,,96,0,4,,,,,3,,,64,78
191424,note_on,,,,,96,0,3,,,,,2,,,67,87
191424,note_on,,,,,48,0,1,,,,,0,,,79,103
191472,note_off,,,,,48,0,2,,,,,1,,,76,0
191472,note_off,,,,,48,0,1,,,,,0,,,79,0
191520,note_on,,,,,48,0,1,,,,,0,,,77,103
191520,note_on,,,,,48,0,2,,,,,1,,,74,96
191568,note_off,,,,,48,0,1,,,,,0,,,77,0
191568,note_off,,,,,48,0,2,,,,,1,,,74,0
191616,note_on,,,,,48,0,2,,,,,1,,,72,96
191616,note_on,,,,,48,0,1,,,,,0,,,76,103
191664,note_off,,,,,48,0,2,,,,,1,,,72,0
191664,note_off,,,,,48,0,1,,,,,0,,,76,0
191712,note_on,,,,,48,0,2,,,,,1,,,74,96
191712,note_on,,,,,48,0,1,,,,,0,,,77,103
191760,note_off,,,,,48,0,2,,,,,1,,,74,0
191760,note_off,,,,,48,0,1,,,,,0,,,77,0
191808,note_off,,,,,384,0,3,,,,,2,,,67,0
191808,note_on,,,,,0,0,3,,,,,2,,,60,87
191808,note_on,,,,,0,0,4,,,,,3,,,57,78
191808,note_off,,,,,384,0,4,,,,,3,,,64,0
191808,note_on,,,,,48,0,1,,,,,0,,,76,103
191808,note_on,,,,,48,0,2,,,,,1,,,72,96
191856,note_off,,,,,48,0,2,,,,,1,,,72,0
191856,note_off,,,,,48,0,4,,,,,3,,,57,0
191856,note_off,,,,,48,0,1,,,,,0,,,76,0
191904,note_on,,,,,48,0,1,,,,,0,,,74,103
191904,note_on,,,,,48,0,2,,,,,1,,,71,96
191904,note_on,,,,,48,0,4,,,,,3,,,59,78
191904,note_off,,,,,96,0,3,,,,,2,,,60,0
191904,note_on,,,,,0,0,3,,,,,2,,,62,87
191952,note_off,,,,,48,0,4,,,,,3,,,59,0
191952,note_off,,,,,48,0,1,,,,,0,,,74,0
191952,note_off,,,,,48,0,2,,,,,1,,,71,0
192000,note_on,,,,,48,0,1,,,,,0,,,72,103
192000,note_on,,,,,48,0,4,,,,,3,,,60,78
192000,note_on,,,,,48,0,2,,,,,1,,,69,96
192000,note_on,,,,,0,0,3,,,,,2,,,64,87
192000,note_off,,,,,96,0,3,,,,,2,,,62,0
192048,note_off,,,,,48,0,4,,,,,3,,,60,0
192096,note_on,,,,,48,0,4,,,,,3,,,59,78
192096,note_off,,,,,96,0,1,,,,,0,,,72,0
192096,note_off,,,,,96,0,2,,,,,1,,,69,0
192096,note_on,,,,,0,0,3,,,,,2,,,62,87
192096,note_off,,,,,96,0,3,,,,,2,,,64,0
192144,note_off,,,,,48,0,4,,,,,3,,,59,0
192192,note_off,,,,,96,0,3,,,,,2,,,62,0
192192,note_on,,,,,96,0,1,,,,,0,,,84,103
192192,note_on,,,,,0,0,3,,,,,2,,,60,87
192192,note_on,,,,,48,0,4,,,,,3,,,57,78
192192,note_on,,,,,96,0,2,,,,,1,,,81,96
192240,note_off,,,,,48,0,4,,,,,3,,,57,0
192288,note_on,,,,,48,0,4,,,,,3,,,55,78
192288,note_off,,,,,96,0,3,,,,,2,,,60,0
192288,note_on,,,,,0,0,3,,,,,2,,,59,87
192336,note_off,,,,,48,0,4,,,,,3,,,55,0
192384,note_off,,,,,96,0,3,,,,,2,,,59,0
192384,note_on,,,,,0,0,3,,,,,2,,,57,87
192384,note_on,,,,,48,0,4,,,,,3,,,53,78
192432,note_off,,,,,48,0,4,,,,,3,,,53,0
192480,note_on,,,,,48,0,4,,,,,3,,,55,78
192480,note_on,,,,,0,0,3,,,,,2,,,59,87
192480,note_off,,,,,96,0,3,,,,,2,,,57,0
192528,note_off,,,,,48,0,4,,,,,3,,,55,0
192576,note_on,,,,,0,0,2,,,,,1,,,74,96
192576,note_on,,,,,0,0,1,,,,,0,,,77,103
192576,note_off,,,,,384,0,2,,,,,1,,,81,0
192576,note_off,,,,,384,0,1,,,,,0,,,84,0
192576,note_on,,,,,48,0,4,,,,,3,,,53,78
192576,note_on,,,,,0,0,3,,,,,2,,,57,87
192576,note_off,,,,,96,0,3,,,,,2,,,59,0
192624,note_off,,,,,48,0,2,,,,,1,,,74,0
192624,note_off,,,,,48,0,4,,,,,3,,,53,0
192624,note_off,,,,,48,0,1,,,,,0,,,77,0
192672,note_on,,,,,48,0,2,,,,,1,,,76,96
192672,note_on,,,,,0,0,3,,,,,2,,,55,87
192672,note_off,,,,,96,0,3,,,,,2,,,57,0
192672,note_on,,,,,48,0,1,,,,,0,,,79,103
192672,note_on,,,,,48,0,4,,,,,3,,,52,78
192720,note_off,,,,,48,0,1,,,,,0,,,79,0
192720,note_off,,,,,48,0,2,,,,,1,,,76,0
192720,note_off,,,,,48,0,4,,,,,3,,,52,0
192768,note_on,,,,,48,0,4,,,,,3,,,50,78
192768,note_on,,,,,48,0,1,,,,,0,,,81,103
192768,note_on,,,,,0,0,3,,,,,2,,,53,87
192768,note_off,,,,,96,0,3,,,,,2,,,55,0
192768,note_on,,,,,48,0,2,,,,,1,,,77,96
192816,note_off,,,,,48,0,2,,,,,1,,,77,0
192816,note_off,,,,,48,0,1,,,,,0,,,81,0
192864,note_off,,,,,96,0,4,,,,,3,,,50,0
192864,note_off,,,,,96,0,3,,,,,2,,,53,0
192864,note_on,,,,,48,0,1,,,,,0,,,79,103
192864,note_on,,,,,48,0,2,,,,,1,,,76,96
192912,note_off,,,,,48,0,1,,,,,0,,,79,0
192912,note_off,,,,,48,0,2,,,,,1,,,76,0
192960,note_on,,,,,48,0,1,,,,,0,,,77,103
192960,note_on,,,,,48,0,2,,,,,1,,,74,96
192960,note_on,,,,,96,0,4,,,,,3,,,62,78
192960,note_on,,,,,96,0,3,,,,,2,,,65,87
193008,note_off,,,,,48,0,1,,,,,0,,,77,0
193008,note_off,,,,,48,0,2,,,,,1,,,74,0
193056,note_on,,,,,48,0,2,,,,,1,,,72,96
193056,note_on,,,,,48,0,1,,,,,0,,,76,103
193104,note_off,,,,,48,0,2,,,,,1,,,72,0
193104,note_off,,,,,48,0,1,,,,,0,,,76,0
193152,note_on,,,,,48,0,2,,,,,1,,,71,96
193152,note_on,,,,,48,0,1,,,,,0,,,74,103
193200,note_off,,,,,48,0,1,,,,,0,,,74,0
193200,note_off,,,,,48,0,2,,,,,1,,,71,0
193248,note_on,,,,,48,0,2,,,,,1,,,72,96
193248,note_on,,,,,48,0,1,,,,,0,,,76,103
193296,note_off,,,,,48,0,1,,,,,0,,,76,0
193296,note_off,,,,,48,0,2,,,,,1,,,72,0
193344,note_on,,,,,48,0,2,,,,,1,,,71,96
193344,note_on,,,,,0,0,3,,,,,2,,,59,87
193344,note_on,,,,,48,0,1,,,,,0,,,74,103
193344,note_off,,,,,384,0,3,,,,,2,,,65,0
193344,note_off,,,,,384,0,4,,,,,3,,,62,0
193344,note_on,,,,,0,0,4,,,,,3,,,55,78
193392,note_off,,,,,48,0,4,,,,,3,,,55,0
193392,note_off,,,,,48,0,1,,,,,0,,,74,0
193392,note_off,,,,,48,0,2,,,,,1,,,71,0
193392,note_off,,,,,48,0,3,,,,,2,,,59,0
193440,note_on,,,,,48,0,2,,,,,1,,,69,96
193440,note_on,,,,,48,0,3,,,,,2,,,60,87
193440,note_on,,,,,48,0,1,,,,,0,,,72,103
193440,note_on,,,,,48,0,4,,,,,3,,,57,78
193488,note_off,,,,,48,0,4,,,,,3,,,57,0
193488,note_off,,,,,48,0,1,,,,,0,,,72,0
193488,note_off,,,,,48,0,2,,,,,1,,,69,0
193488,note_off,,,,,48,0,3,,,,,2,,,60,0
193536,note_on,,,,,48,0,1,,,,,0,,,71,103
193536,note_on,,,,,48,0,2,,,,,1,,,67,96
193536,note_on,,,,,48,0,4,,,,,3,,,59,78
193536,note_on,,,,,48,0,3,,,,,2,,,62,87
193584,note_off,,,,,48,0,4,,,,,3,,,59,0
193584,note_off,,,,,48,0,3,,,,,2,,,62,0
193632,note_off,,,,,96,0,2,,,,,1,,,67,0
193632,note_on,,,,,48,0,3,,,,,2,,,60,87
193632,note_off,,,,,96,0,1,,,,,0,,,71,0
193632,note_on,,,,,48,0,4,,,,,3,,,57,78
193680,note_off,,,,,48,0,3,,,,,2,,,60,0
193680,note_off,,,,,48,0,4,,,,,3,,,57,0
193728,note_on,,,,,48,0,4,,,,,3,,,55,78
193728,note_on,,,,,96,0,2,,,,,1,,,79,96
193728,note_on,,,,,96,0,1,,,,,0,,,83,103
193728,note_on,,,,,48,0,3,,,,,2,,,59,87
193776,note_off,,,,,48,0,4,,,,,3,,,55,0
193776,note_off,,,,,48,0,3,,,,,2,,,59,0
193824,note_on,,,,,48,0,4,,,,,3,,,53,78
193824,note_on,,,,,48,0,3,,,,,2,,,57,87
193872,note_off,,,,,48,0,4,,,,,3,,,53,0
193872,note_off,,,,,48,0,3,,,,,2,,,57,0
193920,note_on,,,,,48,0,3,,,,,2,,,55,87
193920,note_on,,,,,48,0,4,,,,,3,,,52,78
193968,note_off,,,,,48,0,3,,,,,2,,,55,0
193968,note_off,,,,,48,0,4,,,,,3,,,52,0
194016,note_on,,,,,48,0,4,,,,,3,,,53,78
194016,note_on,,,,,48,0,3,,,,,2,,,57,87
194064,note_off,,,,,48,0,4,,,,,3,,,53,0
194064,note_off,,,,,48,0,3,,,,,2,,,57,0
194112,note_off,,,,,384,0,2,,,,,1,,,79,0
194112,note_on,,,,,0,0,2,,,,,1,,,72,96
194112,note_on,,,,,48,0,4,,,,,3,,,52,78
194112,note_on,,,,,48,0,3,,,,,2,,,55,87
194112,note_on,,,,,0,0,1,,,,,0,,,76,103
194112,note_off,,,,,384,0,1,,,,,0,,,83,0
194160,note_off,,,,,48,0,2,,,,,1,,,72,0
194160,note_off,,,,,48,0,4,,,,,3,,,52,0
194160,note_off,,,,,48,0,3,,,,,2,,,55,0
194160,note_off,,,,,48,0,1,,,,,0,,,76,0
194208,note_on,,,,,48,0,3,,,,,2,,,53,87
194208,note_on,,,,,48,0,1,,,,,0,,,77,103
194208,note_on,,,,,48,0,2,,,,,1,,,74,96
194208,note_on,,,,,48,0,4,,,,,3,,,50,78
194256,note_off,,,,,48,0,4,,,,,3,,,50,0
194256,note_off,,,,,48,0,2,,,,,1,,,74,0
194256,note_off,,,,,48,0,3,,,,,2,,,53,0
194256,note_off,,,,,48,0,1,,,,,0,,,77,0
194304,note_on,,,,,48,0,3,,,,,2,,,52,87
194304,note_on,,,,,48,0,1,,,,,0,,,79,103
194304,note_on,,,,,48,0,4,,,,,3,,,48,78
194304,note_on,,,,,48,0,2,,,,,1,,,76,96
194352,note_off,,,,,48,0,1,,,,,0,,,79,0
194352,note_off,,,,,48,0,2,,,,,1,,,76,0
194400,note_on,,,,,48,0,1,,,,,0,,,77,103
194400,note_off,,,,,96,0,3,,,,,2,,,52,0
194400,note_off,,,,,96,0,4,,,,,3,,,48,0
194400,note_on,,,,,48,0,2,,,,,1,,,74,96
194448,note_off,,,,,48,0,2,,,,,1,,,74,0
194448,note_off,,,,,48,0,1,,,,,0,,,77,0
194496,note_on,,,,,48,0,2,,,,,1,,,72,96
194496,note_on,,,,,48,0,1,,,,,0,,,76,103
194496,note_on,,,,,96,0,4,,,,,3,,,60,78
194496,note_on,,,,,96,0,3,,,,,2,,,64,87
194544,note_off,,,,,48,0,2,,,,,1,,,72,0
194544,note_off,,,,,48,0,1,,,,,0,,,76,0
194592,note_on,,,,,48,0,2,,,,,1,,,71,96
194592,note_on,,,,,48,0,1,,,,,0,,,74,103
194640,note_off,,,,,48,0,2,,,,,1,,,71,0
194640,note_off,,,,,48,0,1,,,,,0,,,74,0
194688,note_on,,,,,48,0,2,,,,,1,,,69,96
194688,note_on,,,,,48,0,1,,,,,0,,,72,103
194736,note_off,,,,,48,0,2,,,,,1,,,69,0
194736,note_off,,,,,48,0,1,,,,,0,,,72,0
194784,note_on,,,,,48,0,2,,,,,1,,,71,96
194784,note_on,,,,,48,0,1,,,,,0,,,74,103
194832,note_off,,,,,48,0,2,,,,,1,,,71,0
194832,note_off,,,,,48,0,1,,,,,0,,,74,0
194880,note_on,,,,,0,0,4,,,,,3,,,53,78
194880,note_off,,,,,384,0,4,,,,,3,,,60,0
194880,note_on,,,,,48,0,1,,,,,0,,,72,103
194880,note_off,,,,,384,0,3,,,,,2,,,64,0
194880,note_on,,,,,0,0,3,,,,,2,,,57,87
194880,note_on,,,,,48,0,2,,,,,1,,,69,96
194928,note_off,,,,,48,0,4,,,,,3,,,53,0
194928,note_off,,,,,48,0,3,,,,,2,,,57,0
194928,note_off,,,,,48,0,2,,,,,1,,,69,0
194928,note_off,,,,,48,0,1,,,,,0,,,72,0
194976,note_on,,,,,48,0,2,,,,,1,,,67,96
194976,note_on,,,,,48,0,3,,,,,2,,,59,87
194976,note_on,,,,,48,0,1,,,,,0,,,71,103
194976,note_on,,,,,48,0,4,,,,,3,,,55,78
195024,note_off,,,,,48,0,3,,,,,2,,,59,0
195024,note_off,,,,,48,0,2,,,,,1,,,67,0
195024,note_off,,,,,48,0,1,,,,,0,,,71,0
195024,note_off,,,,,48,0,4,,,,,3,,,55,0
195072,note_on,,,,,48,0,1,,,,,0,,,69,103
195072,note_on,,,,,48,0,2,,,,,1,,,65,96
195072,note_on,,,,,48,0,4,,,,,3,,,57,78
195072,note_on,,,,,48,0,3,,,,,2,,,60,87
195120,note_off,,,,,48,0,3,,,,,2,,,60,0
195120,note_off,,,,,48,0,4,,,,,3,,,57,0
195168,note_on,,,,,48,0,4,,,,,3,,,55,78
195168,note_off,,,,,96,0,2,,,,,1,,,65,0
195168,note_off,,,,,96,0,1,,,,,0,,,69,0
195168,note_on,,,,,48,0,3,,,,,2,,,59,87
195216,note_off,,,,,48,0,3,,,,,2,,,59,0
195216,note_off,,,,,48,0,4,,,,,3,,,55,0
195264,note_on,,,,,96,0,2,,,,,1,,,77,96
195264,note_on,,,,,48,0,3,,,,,2,,,57,87
195264,note_on,,,,,96,0,1,,,,,0,,,81,103
195264,note_on,,,,,48,0,4,,,,,3,,,53,78
195312,note_off,,,,,48,0,3,,,,,2,,,57,0
195312,note_off,,,,,48,0,4,,,,,3,,,53,0
195360,note_on,,,,,48,0,3,,,,,2,,,55,87
195360,note_on,,,,,48,0,4,,,,,3,,,52,78
195408,note_off,,,,,48,0,4,,,,,3,,,52,0
195408,note_off,,,,,48,0,3,,,,,2,,,55,0
195456,note_on,,,,,48,0,4,,,,,3,,,50,78
195456,note_on,,,,,48,0,3,,,,,2,,,53,87
195504,note_off,,,,,48,0,3,,,,,2,,,53,0
195504,note_off,,,,,48,0,4,,,,,3,,,50,0
195552,note_on,,,,,48,0,3,,,,,2,,,57,87
195552,note_on,,,,,48,0,4,,,,,3,,,53,78
195600,note_off,,,,,48,0,4,,,,,3,,,53,0
195600,note_off,,,,,48,0,3,,,,,2,,,57,0
195648,note_off,,,,,384,0,1,,,,,0,,,81,0
195648,note_off,,,,,384,0,2,,,,,1,,,77,0
195648,note_on,,,,,0,0,2,,,,,1,,,72,96
195648,note_on,,,,,48,0,4,,,,,3,,,52,78
195648,note_on,,,,,0,0,1,,,,,0,,,84,103
195648,note_on,,,,,48,0,3,,,,,2,,,55,87
195696,note_off,,,,,48,0,2,,,,,1,,,72,0
195696,note_off,,,,,48,0,3,,,,,2,,,55,0
195696,note_off,,,,,48,0,4,,,,,3,,,52,0
195696,note_off,,,,,48,0,1,,,,,0,,,84,0
195744,note_on,,,,,48,0,1,,,,,0,,,86,103
195744,note_on,,,,,48,0,2,,,,,1,,,74,96
195744,note_on,,,,,48,0,3,,,,,2,,,53,87
195744,note_on,,,,,48,0,4,,,,,3,,,50,78
195792,note_off,,,,,48,0,3,,,,,2,,,53,0
195792,note_off,,,,,48,0,1,,,,,0,,,86,0
195792,note_off,,,,,48,0,2,,,,,1,,,74,0
195792,note_off,,,,,48,0,4,,,,,3,,,50,0
195840,note_on,,,,,48,0,2,,,,,1,,,76,96
195840,note_on,,,,,48,0,3,,,,,2,,,52,87
195840,note_on,,,,,48,0,1,,,,,0,,,88,103
195840,note_on,,,,,48,0,4,,,,,3,,,48,78
195888,note_off,,,,,48,0,1,,,,,0,,,88,0
195888,note_off,,,,,48,0,2,,,,,1,,,76,0
195936,note_on,,,,,48,0,1,,,,,0,,,86,103
195936,note_off,,,,,96,0,3,,,,,2,,,52,0
195936,note_on,,,,,48,0,2,,,,,1,,,74,96
195936,note_off,,,,,96,0,4,,,,,3,,,48,0
195984,note_off,,,,,48,0,2,,,,,1,,,74,0
195984,note_off,,,,,48,0,1,,,,,0,,,86,0
196032,note_on,,,,,96,0,4,,,,,3,,,60,78
196032,note_on,,,,,96,0,3,,,,,2,,,64,87
196032,note_on,,,,,48,0,1,,,,,0,,,84,103
196032,note_on,,,,,48,0,2,,,,,1,,,72,96
196080,note_off,,,,,48,0,1,,,,,0,,,84,0
196080,note_off,,,,,48,0,2,,,,,1,,,72,0
196128,note_on,,,,,48,0,2,,,,,1,,,71,96
196128,note_on,,,,,48,0,1,,,,,0,,,83,103
196176,note_off,,,,,48,0,1,,,,,0,,,83,0
196176,note_off,,,,,48,0,2,,,,,1,,,71,0
196224,note_on,,,,,48,0,1,,,,,0,,,81,103
196224,note_on,,,,,48,0,2,,,,,1,,,69,96
196272,note_off,,,,,48,0,2,,,,,1,,,69,0
196272,note_off,,,,,48,0,1,,,,,0,,,81,0
196320,note_on,,,,,48,0,2,,,,,1,,,68,96
196320,note_on,,,,,48,0,1,,,,,0,,,80,103
196368,note_off,,,,,48,0,2,,,,,1,,,68,0
196368,note_off,,,,,48,0,1,,,,,0,,,80,0
196416,note_on,,,,,0,0,3,,,,,2,,,64,87
196416,note_off,,,,,384,0,3,,,,,2,,,64,0
196416,note_on,,,,,48,0,2,,,,,1,,,69,96
196416,note_off,,,,,384,0,4,,,,,3,,,60,0
196416,note_on,,,,,0,0,4,,,,,3,,,60,78
196416,note_on,,,,,48,0,1,,,,,0,,,81,103
196464,note_off,,,,,48,0,2,,,,,1,,,69,0
196464,note_off,,,,,48,0,1,,,,,0,,,81,0
196512,note_on,,,,,48,0,1,,,,,0,,,82,103
196512,note_on,,,,,48,0,2,,,,,1,,,70,96
196560,note_off,,,,,48,0,1,,,,,0,,,82,0
196560,note_off,,,,,48,0,2,,,,,1,,,70,0
196608,note_on,,,,,0,0,3,,,,,2,,,63,87
196608,note_off,,,,,192,0,3,,,,,2,,,64,0
196608,note_on,,,,,48,0,2,,,,,1,,,71,96
196608,note_on,,,,,0,0,4,,,,,3,,,59,78
196608,note_off,,,,,192,0,4,,,,,3,,,60,0
196608,note_on,,,,,48,0,1,,,,,0,,,83,103
196656,note_off,,,,,48,0,3,,,,,2,,,63,0
196704,note_on,,,,,48,0,3,,,,,2,,,64,87
196704,note_off,,,,,96,0,2,,,,,1,,,71,0
196704,note_off,,,,,96,0,1,,,,,0,,,83,0
196704,note_off,,,,,96,0,4,,,,,3,,,59,0
196752,note_off,,,,,48,0,3,,,,,2,,,64,0
196800,note_on,,,,,48,0,3,,,,,2,,,66,87
196800,note_on,,,,,0,0,2,,,,,1,,,75,96
196800,note_on,,,,,96,0,4,,,,,3,,,54,78
196800,note_on,,,,,0,0,1,,,,,0,,,71,103
196800,note_on,,,,,96,0,1,,,,,0,,,83,103
196800,note_on,,,,,96,0,2,,,,,1,,,66,96
196848,note_off,,,,,48,0,3,,,,,2,,,66,0
196848,note_off,,,,,48,0,4,,,,,3,,,54,0
196896,note_on,,,,,48,0,3,,,,,2,,,64,87
196896,note_on,,,,,48,0,4,,,,,3,,,52,78
196944,note_off,,,,,48,0,3,,,,,2,,,64,0
196944,note_off,,,,,48,0,4,,,,,3,,,52,0
196992,note_on,,,,,48,0,3,,,,,2,,,63,87
196992,note_on,,,,,48,0,4,,,,,3,,,51,78
197040,note_off,,,,,48,0,3,,,,,2,,,63,0
197040,note_off,,,,,48,0,4,,,,,3,,,51,0
197088,note_on,,,,,48,0,4,,,,,3,,,49,78
197088,note_on,,,,,48,0,3,,,,,2,,,61,87
197136,note_off,,,,,48,0,4,,,,,3,,,49,0
197136,note_off,,,,,48,0,3,,,,,2,,,61,0
197184,note_on,,,,,0,0,2,,,,,1,,,78,96
197184,note_on,,,,,48,0,4,,,,,3,,,47,78
197184,note_off,,,,,384,0,1,,,,,0,,,83,0
197184,note_off,,,,,0,0,1,,,,,0,,,71,0
197184,note_on,,,,,0,0,1,,,,,0,,,87,103
197184,note_off,,,,,0,0,2,,,,,1,,,75,0
197184,note_off,,,,,384,0,2,,,,,1,,,66,0
197184,note_on,,,,,48,0,3,,,,,2,,,59,87
197232,note_off,,,,,48,0,4,,,,,3,,,47,0
197232,note_off,,,,,48,0,3,,,,,2,,,59,0
197280,note_on,,,,,48,0,3,,,,,2,,,57,87
197280,note_on,,,,,48,0,4,,,,,3,,,45,78
197328,note_off,,,,,48,0,3,,,,,2,,,57,0
197328,note_off,,,,,48,0,4,,,,,3,,,45,0
197376,note_on,,,,,48,0,3,,,,,2,,,56,87
197376,note_on,,,,,48,0,4,,,,,3,,,44,78
197376,note_on,,,,,0,0,2,,,,,1,,,76,96
197376,note_off,,,,,192,0,2,,,,,1,,,78,0
197376,note_off,,,,,192,0,1,,,,,0,,,87,0
197376,note_on,,,,,0,0,1,,,,,0,,,88,103
197568,note_off,,,,,192,0,3,,,,,2,,,56,0
197568,note_off,,,,,192,0,2,,,,,1,,,76,0
197568,note_off,,,,,192,0,1,,,,,0,,,88,0
197568,note_off,,,,,192,0,4,,,,,3,,,44,0
197760,note_on,,,,,192,0,2,,,,,1,,,68,96
197760,note_on,,,,,192,0,3,,,,,2,,,61,87
197760,note_on,,,,,192,0,4,,,,,3,,,49,78
197760,note_on,,,,,192,0,1,,,,,0,,,80,103
197760,note_on,,,,,0,0,3,,,,,2,,,68,87
197760,note_on,,,,,0,0,2,,,,,1,,,76,96
197952,note_off,,,,,0,0,3,,,,,2,,,68,0
197952,note_off,,,,,192,0,4,,,,,3,,,49,0
197952,note_off,,,,,192,0,1,,,,,0,,,80,0
197952,note_off,,,,,192,0,2,,,,,1,,,68,0
197952,note_off,,,,,0,0,2,,,,,1,,,76,0
197952,note_off,,,,,192,0,3,,,,,2,,,61,0
198144,note_on,,,,,192,0,3,,,,,2,,,61,87
198144,note_on,,,,,192,0,4,,,,,3,,,45,78
198144,note_on,,,,,0,0,3,,,,,2,,,64,87
198144,note_on,,,,,0,0,2,,,,,1,,,76,96
198144,note_on,,,,,192,0,1,,,,,0,,,78,103
198144,note_on,,,,,192,0,2,,,,,1,,,66,96
198336,note_off,,,,,192,0,2,,,,,1,,,66,0
198336,note_off,,,,,0,0,2,,,,,1,,,76,0
198336,note_off,,,,,192,0,4,,,,,3,,,45,0
198336,note_off,,,,,192,0,3,,,,,2,,,61,0
198336,note_off,,,,,192,0,1,,,,,0,,,78,0
198336,note_off,,,,,0,0,3,,,,,2,,,64,0
198528,note_on,,,,,0,0,3,,,,,2,,,66,87
198528,note_on,,,,,192,0,1,,,,,0,,,83,103
198528,note_on,,,,,0,0,2,,,,,1,,,75,96
198528,note_on,,,,,192,0,2,,,,,1,,,66,96
198528,note_on,,,,,192,0,3,,,,,2,,,59,87
198528,note_on,,,,,192,0,4,,,,,3,,,47,78
198720,note_off,,,,,192,0,2,,,,,1,,,66,0
198720,note_off,,,,,0,0,2,,,,,1,,,75,0
198720,note_off,,,,,192,0,3,,,,,2,,,59,0
198720,note_off,,,,,0,0,3,,,,,2,,,66,0
198720,note_off,,,,,192,0,1,,,,,0,,,83,0
198720,note_off,,,,,192,0,4,,,,,3,,,47,0
199488,note_on,,,,,768,0,1,,,,,0,,,80,103
199584,note_on,,,,,0,0,1,,,,,0,,,81,103
199584,note_off,,,,,96,0,1,,,,,0,,,80,0
199680,note_on,,,,,960,0,2,,,,,1,,,68,96
199680,note_on,,,,,0,0,1,,,,,0,,,83,103
199680,note_on,,,,,960,0,4,,,,,3,,,52,78
199680,note_on,,,,,960,0,3,,,,,2,,,64,87
199680,note_off,,,,,96,0,1,,,,,0,,,81,0
199776,note_on,,,,,0,0,1,,,,,0,,,81,103
199776,note_off,,,,,96,0,1,,,,,0,,,83,0
199872,note_on,,,,,0,0,1,,,,,0,,,80,103
199872,note_on,,,,,0,0,3,,,,,2,,,66,87
199872,note_off,,,,,192,0,3,,,,,2,,,64,0
199872,note_off,,,,,192,0,2,,,,,1,,,68,0
199872,note_on,,,,,0,0,2,,,,,1,,,69,96
199872,note_off,,,,,96,0,1,,,,,0,,,81,0
199968,note_off,,,,,96,0,1,,,,,0,,,80,0
199968,note_on,,,,,0,0,1,,,,,0,,,78,103
200064,note_on,,,,,0,0,3,,,,,2,,,68,87
200064,note_off,,,,,192,0,3,,,,,2,,,66,0
200064,note_on,,,,,0,0,1,,,,,0,,,76,103
200064,note_off,,,,,96,0,1,,,,,0,,,78,0
200064,note_on,,,,,0,0,2,,,,,1,,,71,96
200064,note_off,,,,,192,0,2,,,,,1,,,69,0
200064,note_off,,,,,384,0,4,,,,,3,,,52,0
200160,note_on,,,,,0,0,1,,,,,0,,,78,103
200160,note_off,,,,,96,0,1,,,,,0,,,76,0
200256,note_on,,,,,0,0,1,,,,,0,,,76,103
200256,note_off,,,,,192,0,3,,,,,2,,,68,0
200256,note_off,,,,,96,0,1,,,,,0,,,78,0
200256,note_off,,,,,192,0,2,,,,,1,,,71,0
200352,note_off,,,,,96,0,1,,,,,0,,,76,0
200352,note_on,,,,,0,0,1,,,,,0,,,75,103
200448,note_off,,,,,96,0,1,,,,,0,,,75,0
200448,note_on,,,,,0,0,1,,,,,0,,,73,103
200448,note_on,,,,,192,0,2,,,,,1,,,61,96
200448,note_on,,,,,384,0,4,,,,,3,,,45,78
200448,note_on,,,,,192,0,3,,,,,2,,,61,87
200544,note_off,,,,,96,0,1,,,,,0,,,73,0
200544,note_on,,,,,0,0,2,,,,,1,,,63,96
200544,note_off,,,,,96,0,2,,,,,1,,,61,0
200544,note_off,,,,,96,0,4,,,,,3,,,45,0
200544,note_off,,,,,96,0,3,,,,,2,,,61,0
200640,note_on,,,,,96,0,4,,,,,3,,,57,78
200640,note_on,,,,,0,0,2,,,,,1,,,64,96
200640,note_off,,,,,96,0,2,,,,,1,,,63,0
200640,note_on,,,,,96,0,1,,,,,0,,,78,103
200640,note_on,,,,,96,0,3,,,,,2,,,61,87
200736,note_on,,,,,0,0,2,,,,,1,,,65,96
200736,note_off,,,,,96,0,2,,,,,1,,,64,0
200832,note_off,,,,,96,0,2,,,,,1,,,65,0
200832,note_on,,,,,0,0,2,,,,,1,,,66,96
200928,note_on,,,,,0,0,3,,,,,2,,,64,87
200928,note_off,,,,,288,0,3,,,,,2,,,61,0
201024,note_on,,,,,0,0,3,,,,,2,,,63,87
201024,note_off,,,,,96,0,3,,,,,2,,,64,0
201024,note_off,,,,,384,0,1,,,,,0,,,78,0
201024,note_on,,,,,0,0,1,,,,,0,,,76,103
201024,note_on,,,,,0,0,4,,,,,3,,,58,78
201024,note_off,,,,,384,0,4,,,,,3,,,57,0
201120,note_off,,,,,96,0,3,,,,,2,,,63,0
201120,note_on,,,,,0,0,3,,,,,2,,,61,87
201216,note_off,,,,,192,0,1,,,,,0,,,76,0
201216,note_on,,,,,0,0,1,,,,,0,,,75,103
201216,note_on,,,,,0,0,4,,,,,3,,,59,78
201216,note_off,,,,,192,0,4,,,,,3,,,58,0
201216,note_off,,,,,96,0,3,,,,,2,,,61,0
201216,note_on,,,,,0,0,3,,,,,2,,,59,87
201312,note_on,,,,,0,0,1,,,,,0,,,76,103
201312,note_off,,,,,96,0,1,,,,,0,,,75,0
201408,note_on,,,,,0,0,1,,,,,0,,,78,103
201408,note_off,,,,,96,0,1,,,,,0,,,76,0
201408,note_on,,,,,0,0,3,,,,,2,,,66,87
201408,note_off,,,,,576,0,2,,,,,1,,,66,0
201408,note_off,,,,,192,0,3,,,,,2,,,59,0
201408,note_on,,,,,0,0,2,,,,,1,,,69,96
201504,note_on,,,,,0,0,1,,,,,0,,,75,103
201504,note_off,,,,,96,0,1,,,,,0,,,78,0
201600,note_off,,,,,192,0,2,,,,,1,,,69,0
201600,note_off,,,,,192,0,3,,,,,2,,,66,0
201600,note_on,,,,,0,0,2,,,,,1,,,68,96
201600,note_on,,,,,0,0,3,,,,,2,,,64,87
201600,note_on,,,,,0,0,1,,,,,0,,,76,103
201600,note_off,,,,,96,0,1,,,,,0,,,75,0
201696,note_on,,,,,0,0,1,,,,,0,,,78,103
201696,note_off,,,,,96,0,1,,,,,0,,,76,0
201792,note_off,,,,,192,0,2,,,,,1,,,68,0
201792,note_on,,,,,0,0,2,,,,,1,,,64,96
201792,note_on,,,,,0,0,3,,,,,2,,,68,87
201792,note_off,,,,,96,0,1,,,,,0,,,78,0
201792,note_on,,,,,0,0,1,,,,,0,,,80,103
201792,note_off,,,,,192,0,3,,,,,2,,,64,0
201888,note_off,,,,,96,0,1,,,,,0,,,80,0
201888,note_on,,,,,0,0,1,,,,,0,,,76,103
201984,note_on,,,,,0,0,2,,,,,1,,,63,96
201984,note_off,,,,,192,0,2,,,,,1,,,64,0
201984,note_off,,,,,192,0,3,,,,,2,,,68,0
201984,note_on,,,,,0,0,3,,,,,2,,,66,87
201984,note_on,,,,,0,0,1,,,,,0,,,83,103
201984,note_off,,,,,96,0,1,,,,,0,,,76,0
202080,note_on,,,,,0,0,1,,,,,0,,,82,103
202080,note_off,,,,,96,0,1,,,,,0,,,83,0
202080,note_off,,,,,96,0,2,,,,,1,,,63,0
202080,note_off,,,,,96,0,3,,,,,2,,,66,0
202176,note_on,,,,,0,0,1,,,,,0,,,85,103
202176,note_on,,,,,96,0,2,,,,,1,,,64,96
202176,note_on,,,,,96,0,3,,,,,2,,,61,87
202176,note_on,,,,,0,0,4,,,,,3,,,54,78
202176,note_off,,,,,960,0,4,,,,,3,,,59,0
202176,note_off,,,,,96,0,1,,,,,0,,,82,0
202272,note_off,,,,,96,0,4,,,,,3,,,54,0
202272,note_off,,,,,96,0,1,,,,,0,,,85,0
202272,note_on,,,,,0,0,1,,,,,0,,,82,103
202272,note_off,,,,,96,0,2,,,,,1,,,64,0
202272,note_off,,,,,96,0,3,,,,,2,,,61,0
202368,note_off,,,,,96,0,1,,,,,0,,,82,0
202368,note_on,,,,,96,0,4,,,,,3,,,47,78
202368,note_on,,,,,96,0,3,,,,,2,,,59,87
202368,note_on,,,,,96,0,2,,,,,1,,,63,96
202368,note_on,,,,,0,0,1,,,,,0,,,83,103
202464,note_off,,,,,96,0,3,,,,,2,,,59,0
202464,note_off,,,,,96,0,2,,,,,1,,,63,0
202464,note_off,,,,,96,0,4,,,,,3,,,47,0
202560,note_off,,,,,192,0,1,,,,,0,,,83,0
202560,note_on,,,,,0,0,1,,,,,0,,,80,103
202656,note_off,,,,,96,0,1,,,,,0,,,80,0
202656,note_on,,,,,0,0,1,,,,,0,,,81,103
202752,note_on,,,,,288,0,3,,,,,2,,,56,87
202752,note_off,,,,,96,0,1,,,,,0,,,81,0
202752,note_on,,,,,288,0,4,,,,,3,,,52,78
202752,note_on,,,,,0,0,1,,,,,0,,,83,103
202848,note_on,,,,,0,0,1,,,,,0,,,81,103
202848,note_off,,,,,96,0,1,,,,,0,,,83,0
202944,note_on,,,,,0,0,1,,,,,0,,,80,103
202944,note_off,,,,,96,0,1,,,,,0,,,81,0
202944,note_on,,,,,0,0,3,,,,,2,,,57,87
202944,note_off,,,,,192,0,3,,,,,2,,,56,0
202944,note_on,,,,,0,0,4,,,,,3,,,54,78
202944,note_off,,,,,192,0,4,,,,,3,,,52,0
203040,note_off,,,,,96,0,1,,,,,0,,,80,0
203040,note_on,,,,,0,0,1,,,,,0,,,78,103
203136,note_on,,,,,0,0,1,,,,,0,,,76,103
203136,note_on,,,,,0,0,3,,,,,2,,,59,87
203136,note_off,,,,,192,0,3,,,,,2,,,57,0
203136,note_off,,,,,96,0,1,,,,,0,,,78,0
203136,note_on,,,,,0,0,4,,,,,3,,,56,78
203136,note_off,,,,,192,0,4,,,,,3,,,54,0
203232,note_on,,,,,0,0,1,,,,,0,,,78,103
203232,note_off,,,,,96,0,1,,,,,0,,,76,0
203328,note_on,,,,,0,0,1,,,,,0,,,76,103
203328,note_off,,,,,96,0,1,,,,,0,,,78,0
203328,note_on,,,,,0,0,3,,,,,2,,,56,87
203328,note_off,,,,,192,0,3,,,,,2,,,59,0
203328,note_off,,,,,192,0,4,,,,,3,,,56,0
203328,note_on,,,,,0,0,4,,,,,3,,,52,78
203424,note_on,,,,,0,0,1,,,,,0,,,75,103
203424,note_off,,,,,96,0,1,,,,,0,,,76,0
203520,note_on,,,,,0,0,1,,,,,0,,,73,103
203520,note_on,,,,,0,0,4,,,,,3,,,54,78
203520,note_off,,,,,192,0,3,,,,,2,,,56,0
203520,note_on,,,,,0,0,3,,,,,2,,,58,87
203520,note_off,,,,,96,0,1,,,,,0,,,75,0
203520,note_off,,,,,192,0,4,,,,,3,,,52,0
203616,note_off,,,,,96,0,1,,,,,0,,,73,0
203712,note_on,,,,,0,0,3,,,,,2,,,59,87
203712,note_on,,,,,96,0,1,,,,,0,,,80,103
203712,note_off,,,,,192,0,4,,,,,3,,,54,0
203712,note_on,,,,,0,0,4,,,,,3,,,56,78
203712,note_on,,,,,1248,0,2,,,,,1,,,68,96
203712,note_off,,,,,192,0,3,,,,,2,,,58,0
203904,note_on,,,,,0,0,3,,,,,2,,,61,87
203904,note_off,,,,,192,0,4,,,,,3,,,56,0
203904,note_on,,,,,0,0,4,,,,,3,,,58,78
203904,note_off,,,,,192,0,3,,,,,2,,,59,0
204096,note_off,,,,,384,0,1,,,,,0,,,80,0
204096,note_on,,,,,0,0,1,,,,,0,,,78,103
204096,note_on,,,,,0,0,4,,,,,3,,,54,78
204096,note_on,,,,,0,0,2,,,,,1,,,66,96
204096,note_off,,,,,384,0,2,,,,,1,,,68,0
204096,note_off,,,,,192,0,3,,,,,2,,,61,0
204096,note_on,,,,,0,0,3,,,,,2,,,58,87
204096,note_off,,,,,192,0,4,,,,,3,,,58,0
204192,note_on,,,,,0,0,2,,,,,1,,,64,96
204192,note_off,,,,,96,0,1,,,,,0,,,78,0
204192,note_on,,,,,0,0,1,,,,,0,,,76,103
204192,note_off,,,,,96,0,2,,,,,1,,,66,0
204288,note_off,,,,,96,0,1,,,,,0,,,76,0
204288,note_on,,,,,0,0,1,,,,,0,,,75,103
204288,note_off,,,,,96,0,2,,,,,1,,,64,0
204288,note_on,,,,,0,0,3,,,,,2,,,59,87
204288,note_off,,,,,192,0,3,,,,,2,,,58,0
204288,note_on,,,,,0,0,2,,,,,1,,,63,96
204288,note_on,,,,,0,0,4,,,,,3,,,59,78
204288,note_off,,,,,192,0,4,,,,,3,,,54,0
204384,note_on,,,,,0,0,1,,,,,0,,,76,103
204384,note_off,,,,,96,0,1,,,,,0,,,75,0
204480,note_off,,,,,192,0,3,,,,,2,,,59,0
204480,note_off,,,,,96,0,1,,,,,0,,,76,0
204480,note_on,,,,,0,0,2,,,,,1,,,71,96
204480,note_off,,,,,192,0,2,,,,,1,,,63,0
204480,note_on,,,,,0,0,1,,,,,0,,,78,103
204480,note_on,,,,,0,0,3,,,,,2,,,66,87
204576,note_on,,,,,0,0,1,,,,,0,,,75,103
204576,note_off,,,,,96,0,1,,,,,0,,,78,0
204672,note_off,,,,,384,0,4,,,,,3,,,59,0
204672,note_on,,,,,0,0,2,,,,,1,,,70,96
204672,note_off,,,,,192,0,2,,,,,1,,,71,0
204672,note_off,,,,,192,0,3,,,,,2,,,66,0
204672,note_on,,,,,0,0,1,,,,,0,,,73,103
204672,note_off,,,,,96,0,1,,,,,0,,,75,0
204672,note_on,,,,,0,0,3,,,,,2,,,64,87
204672,note_on,,,,,0,0,4,,,,,3,,,54,78
204768,note_on,,,,,0,0,1,,,,,0,,,75,103
204768,note_off,,,,,96,0,1,,,,,0,,,73,0
204864,note_off,,,,,192,0,3,,,,,2,,,64,0
204864,note_on,,,,,0,0,3,,,,,2,,,61,87
204864,note_on,,,,,0,0,2,,,,,1,,,64,96
204864,note_off,,,,,192,0,2,,,,,1,,,70,0
204864,note_on,,,,,0,0,1,,,,,0,,,76,103
204864,note_off,,,,,96,0,1,,,,,0,,,75,0
204960,note_on,,,,,0,0,1,,,,,0,,,73,103
204960,note_off,,,,,96,0,1,,,,,0,,,76,0
205056,note_on,,,,,0,0,2,,,,,1,,,63,96
205056,note_off,,,,,192,0,2,,,,,1,,,64,0
205056,note_on,,,,,0,0,1,,,,,0,,,71,103
205056,note_off,,,,,192,0,3,,,,,2,,,61,0
205056,note_on,,,,,0,0,3,,,,,2,,,59,87
205056,note_off,,,,,384,0,4,,,,,3,,,54,0
205056,note_on,,,,,0,0,4,,,,,3,,,47,78
205056,note_off,,,,,96,0,1,,,,,0,,,73,0
205152,note_off,,,,,96,0,1,,,,,0,,,71,0
205152,note_off,,,,,96,0,3,,,,,2,,,59,0
205152,note_off,,,,,96,0,4,,,,,3,,,47,0
205152,note_off,,,,,96,0,2,,,,,1,,,63,0
205248,note_on,,,,,96,0,1,,,,,0,,,83,103
205248,note_on,,,,,96,0,3,,,,,2,,,63,87
205248,note_on,,,,,96,0,2,,,,,1,,,66,96
205248,note_on,,,,,96,0,4,,,,,3,,,47,78
205344,note_off,,,,,96,0,4,,,,,3,,,47,0
205344,note_off,,,,,96,0,1,,,,,0,,,83,0
205344,note_off,,,,,96,0,3,,,,,2,,,63,0
205344,note_off,,,,,96,0,2,,,,,1,,,66,0
205440,note_on,,,,,96,0,3,,,,,2,,,59,87
205440,note_on,,,,,96,0,2,,,,,1,,,63,96
205440,note_on,,,,,96,0,4,,,,,3,,,47,78
205536,note_off,,,,,96,0,3,,,,,2,,,59,0
205536,note_off,,,,,96,0,4,,,,,3,,,47,0
205536,note_off,,,,,96,0,2,,,,,1,,,63,0
205632,note_on,,,,,288,0,1,,,,,0,,,81,103
205632,note_on,,,,,96,0,3,,,,,2,,,66,87
205728,note_on,,,,,0,0,1,,,,,0,,,83,103
205728,note_off,,,,,96,0,1,,,,,0,,,81,0
205728,note_on,,,,,0,0,3,,,,,2,,,68,87
205728,note_off,,,,,96,0,3,,,,,2,,,66,0
205824,note_on,,,,,0,0,3,,,,,2,,,69,87
205824,note_on,,,,,0,0,1,,,,,0,,,85,103
205824,note_off,,,,,96,0,3,,,,,2,,,68,0
205824,note_off,,,,,96,0,1,,,,,0,,,83,0
205920,note_off,,,,,96,0,3,,,,,2,,,69,0
205920,note_on,,,,,0,0,1,,,,,0,,,83,103
205920,note_off,,,,,96,0,1,,,,,0,,,85,0
205920,note_on,,,,,0,0,3,,,,,2,,,68,87
206016,note_on,,,,,0,0,1,,,,,0,,,81,103
206016,note_off,,,,,96,0,3,,,,,2,,,68,0
206016,note_on,,,,,0,0,3,,,,,2,,,66,87
206016,note_off,,,,,96,0,1,,,,,0,,,83,0
206112,note_on,,,,,0,0,3,,,,,2,,,64,87
206112,note_off,,,,,96,0,3,,,,,2,,,66,0
206112,note_off,,,,,96,0,1,,,,,0,,,81,0
206112,note_on,,,,,0,0,1,,,,,0,,,80,103
206208,note_on,,,,,0,0,3,,,,,2,,,63,87
206208,note_off,,,,,96,0,1,,,,,0,,,80,0
206208,note_off,,,,,96,0,3,,,,,2,,,64,0
206208,note_on,,,,,0,0,1,,,,,0,,,78,103
206304,note_off,,,,,96,0,3,,,,,2,,,63,0
206304,note_on,,,,,0,0,3,,,,,2,,,64,87
206304,note_on,,,,,0,0,1,,,,,0,,,80,103
206304,note_off,,,,,96,0,1,,,,,0,,,78,0
206400,note_on,,,,,0,0,3,,,,,2,,,63,87
206400,note_on,,,,,0,0,1,,,,,0,,,78,103
206400,note_on,,,,,864,0,4,,,,,3,,,54,78
206400,note_off,,,,,96,0,3,,,,,2,,,64,0
206400,note_off,,,,,96,0,1,,,,,0,,,80,0
206400,note_on,,,,,864,0,2,,,,,1,,,69,96
206496,note_on,,,,,0,0,4,,,,,3,,,56,78
206496,note_off,,,,,96,0,4,,,,,3,,,54,0
206496,note_off,,,,,96,0,2,,,,,1,,,69,0
206496,note_off,,,,,96,0,1,,,,,0,,,78,0
206496,note_on,,,,,0,0,1,,,,,0,,,76,103
206496,note_on,,,,,0,0,3,,,,,2,,,61,87
206496,note_off,,,,,96,0,3,,,,,2,,,63,0
206496,note_on,,,,,0,0,2,,,,,1,,,71,96
206592,note_on,,,,,0,0,3,,,,,2,,,59,87
206592,note_off,,,,,96,0,1,,,,,0,,,76,0
206592,note_on,,,,,0,0,1,,,,,0,,,75,103
206592,note_on,,,,,0,0,4,,,,,3,,,57,78
206592,note_off,,,,,96,0,3,,,,,2,,,61,0
206592,note_off,,,,,96,0,2,,,,,1,,,71,0
206592,note_on,,,,,0,0,2,,,,,1,,,73,96
206592,note_off,,,,,96,0,4,,,,,3,,,56,0
206688,note_off,,,,,96,0,2,,,,,1,,,73,0
206688,note_off,,,,,96,0,4,,,,,3,,,57,0
206688,note_on,,,,,0,0,4,,,,,3,,,56,78
206688,note_on,,,,,0,0,2,,,,,1,,,71,96
206688,note_off,,,,,96,0,3,,,,,2,,,59,0
206688,note_off,,,,,96,0,1,,,,,0,,,75,0
206784,note_off,,,,,96,0,2,,,,,1,,,71,0
206784,note_on,,,,,96,0,3,,,,,2,,,59,87
206784,note_on,,,,,0,0,2,,,,,1,,,69,96
206784,note_off,,,,,96,0,4,,,,,3,,,56,0
206784,note_on,,,,,96,0,1,,,,,0,,,83,103
206784,note_on,,,,,0,0,4,,,,,3,,,54,78
206880,note_on,,,,,0,0,2,,,,,1,,,68,96
206880,note_off,,,,,96,0,2,,,,,1,,,69,0
206880,note_off,,,,,96,0,4,,,,,3,,,54,0
206880,note_on,,,,,0,0,4,,,,,3,,,52,78
206976,note_on,,,,,0,0,2,,,,,1,,,66,96
206976,note_off,,,,,96,0,2,,,,,1,,,68,0
206976,note_on,,,,,0,0,4,,,,,3,,,51,78
206976,note_off,,,,,96,0,4,,,,,3,,,52,0
207072,note_on,,,,,0,0,4,,,,,3,,,52,78
207072,note_on,,,,,0,0,2,,,,,1,,,68,96
207072,note_off,,,,,96,0,4,,,,,3,,,51,0
207072,note_off,,,,,96,0,2,,,,,1,,,66,0
207168,note_on,,,,,0,0,2,,,,,1,,,66,96
207168,note_off,,,,,96,0,2,,,,,1,,,68,0
207168,note_off,,,,,384,0,1,,,,,0,,,83,0
207168,note_off,,,,,384,0,3,,,,,2,,,59,0
207168,note_on,,,,,0,0,1,,,,,0,,,81,103
207168,note_on,,,,,0,0,4,,,,,3,,,51,78
207168,note_on,,,,,0,0,3,,,,,2,,,66,87
207168,note_off,,,,,96,0,4,,,,,3,,,52,0
207264,note_on,,,,,0,0,3,,,,,2,,,68,87
207264,note_off,,,,,96,0,3,,,,,2,,,66,0
207264,note_on,,,,,0,0,2,,,,,1,,,64,96
207264,note_off,,,,,96,0,2,,,,,1,,,66,0
207264,note_off,,,,,96,0,4,,,,,3,,,51,0
207264,note_on,,,,,0,0,4,,,,,3,,,49,78
207264,note_on,,,,,0,0,1,,,,,0,,,83,103
207264,note_off,,,,,96,0,1,,,,,0,,,81,0
207360,note_off,,,,,96,0,1,,,,,0,,,83,0
207360,note_on,,,,,0,0,3,,,,,2,,,69,87
207360,note_off,,,,,96,0,3,,,,,2,,,68,0
207360,note_off,,,,,96,0,4,,,,,3,,,49,0
207360,note_off,,,,,96,0,2,,,,,1,,,64,0
207360,note_on,,,,,0,0,2,,,,,1,,,63,96
207360,note_on,,,,,0,0,4,,,,,3,,,47,78
207360,note_on,,,,,0,0,1,,,,,0,,,85,103
207456,note_off,,,,,96,0,1,,,,,0,,,85,0
207456,note_off,,,,,96,0,2,,,,,1,,,63,0
207456,note_off,,,,,96,0,4,,,,,3,,,47,0
207456,note_on,,,,,0,0,3,,,,,2,,,68,87
207456,note_off,,,,,96,0,3,,,,,2,,,69,0
207456,note_on,,,,,0,0,1,,,,,0,,,83,103
207552,note_on,,,,,0,0,3,,,,,2,,,66,87
207552,note_off,,,,,96,0,3,,,,,2,,,68,0
207552,note_off,,,,,96,0,1,,,,,0,,,83,0
207552,note_on,,,,,96,0,4,,,,,3,,,47,78
207552,note_on,,,,,96,0,2,,,,,1,,,71,96
207552,note_on,,,,,0,0,1,,,,,0,,,81,103
207648,note_off,,,,,96,0,1,,,,,0,,,81,0
207648,note_on,,,,,0,0,1,,,,,0,,,80,103
207648,note_off,,,,,96,0,3,,,,,2,,,66,0
207648,note_on,,,,,0,0,3,,,,,2,,,64,87
207744,note_off,,,,,96,0,3,,,,,2,,,64,0
207744,note_off,,,,,96,0,1,,,,,0,,,80,0
207744,note_on,,,,,0,0,1,,,,,0,,,78,103
207744,note_on,,,,,0,0,3,,,,,2,,,63,87
207840,note_on,,,,,0,0,3,,,,,2,,,64,87
207840,note_on,,,,,0,0,1,,,,,0,,,80,103
207840,note_off,,,,,96,0,1,,,,,0,,,78,0
207840,note_off,,,,,96,0,3,,,,,2,,,63,0
207936,note_off,,,,,384,0,2,,,,,1,,,71,0
207936,note_off,,,,,384,0,4,,,,,3,,,47,0
207936,note_on,,,,,0,0,4,,,,,3,,,54,78
207936,note_on,,,,,0,0,3,,,,,2,,,63,87
207936,note_on,,,,,0,0,1,,,,,0,,,78,103
207936,note_off,,,,,96,0,1,,,,,0,,,80,0
207936,note_on,,,,,0,0,2,,,,,1,,,69,96
207936,note_off,,,,,96,0,3,,,,,2,,,64,0
208032,note_on,,,,,0,0,3,,,,,2,,,61,87
208032,note_off,,,,,96,0,3,,,,,2,,,63,0
208032,note_on,,,,,0,0,1,,,,,0,,,76,103
208032,note_on,,,,,0,0,4,,,,,3,,,56,78
208032,note_off,,,,,96,0,4,,,,,3,,,54,0
208032,note_off,,,,,96,0,1,,,,,0,,,78,0
208032,note_on,,,,,0,0,2,,,,,1,,,71,96
208032,note_off,,,,,96,0,2,,,,,1,,,69,0
208128,note_on,,,,,0,0,3,,,,,2,,,59,87
208128,note_on,,,,,0,0,4,,,,,3,,,57,78
208128,note_off,,,,,96,0,4,,,,,3,,,56,0
208128,note_off,,,,,96,0,1,,,,,0,,,76,0
208128,note_off,,,,,96,0,3,,,,,2,,,61,0
208128,note_off,,,,,96,0,2,,,,,1,,,71,0
208128,note_on,,,,,0,0,1,,,,,0,,,75,103
208128,note_on,,,,,0,0,2,,,,,1,,,73,96
208224,note_off,,,,,96,0,3,,,,,2,,,59,0
208224,note_on,,,,,0,0,4,,,,,3,,,56,78
208224,note_off,,,,,96,0,2,,,,,1,,,73,0
208224,note_on,,,,,0,0,2,,,,,1,,,71,96
208224,note_off,,,,,96,0,4,,,,,3,,,57,0
208224,note_off,,,,,96,0,1,,,,,0,,,75,0
208320,note_on,,,,,0,0,2,,,,,1,,,69,96
208320,note_off,,,,,96,0,2,,,,,1,,,71,0
208320,note_on,,,,,96,0,3,,,,,2,,,59,87
208320,note_on,,,,,96,0,1,,,,,0,,,83,103
208320,note_off,,,,,96,0,4,,,,,3,,,56,0
208320,note_on,,,,,0,0,4,,,,,3,,,54,78
208416,note_off,,,,,96,0,2,,,,,1,,,69,0
208416,note_on,,,,,0,0,4,,,,,3,,,52,78
208416,note_off,,,,,96,0,4,,,,,3,,,54,0
208416,note_on,,,,,0,0,2,,,,,1,,,68,96
208512,note_off,,,,,96,0,4,,,,,3,,,52,0
208512,note_on,,,,,0,0,4,,,,,3,,,51,78
208512,note_off,,,,,96,0,2,,,,,1,,,68,0
208512,note_on,,,,,0,0,2,,,,,1,,,66,96
208608,note_on,,,,,0,0,2,,,,,1,,,68,96
208608,note_off,,,,,96,0,4,,,,,3,,,51,0
208608,note_on,,,,,0,0,4,,,,,3,,,52,78
208608,note_off,,,,,96,0,2,,,,,1,,,66,0
208704,note_off,,,,,384,0,1,,,,,0,,,83,0
208704,note_on,,,,,0,0,1,,,,,0,,,78,103
208704,note_off,,,,,96,0,4,,,,,3,,,52,0
208704,note_on,,,,,0,0,4,,,,,3,,,51,78
208704,note_on,,,,,0,0,2,,,,,1,,,66,96
208704,note_off,,,,,384,0,3,,,,,2,,,59,0
208704,note_off,,,,,96,0,2,,,,,1,,,68,0
208800,note_off,,,,,96,0,1,,,,,0,,,78,0
208800,note_on,,,,,0,0,4,,,,,3,,,49,78
208800,note_off,,,,,96,0,4,,,,,3,,,51,0
208800,note_on,,,,,0,0,1,,,,,0,,,82,103
208800,note_on,,,,,0,0,2,,,,,1,,,64,96
208800,note_off,,,,,96,0,2,,,,,1,,,66,0
208896,note_off,,,,,96,0,1,,,,,0,,,82,0
208896,note_on,,,,,0,0,2,,,,,1,,,63,96
208896,note_on,,,,,192,0,3,,,,,2,,,71,87
208896,note_off,,,,,96,0,4,,,,,3,,,49,0
208896,note_on,,,,,0,0,4,,,,,3,,,47,78
208896,note_off,,,,,96,0,2,,,,,1,,,64,0
208896,note_on,,,,,0,0,1,,,,,0,,,83,103
208992,note_on,,,,,0,0,1,,,,,0,,,85,103
208992,note_off,,,,,96,0,1,,,,,0,,,83,0
208992,note_off,,,,,96,0,4,,,,,3,,,47,0
208992,note_off,,,,,96,0,2,,,,,1,,,63,0
208992,note_off,,,,,96,0,3,,,,,2,,,71,0
209088,note_on,,,,,96,0,4,,,,,3,,,47,78
209088,note_off,,,,,96,0,1,,,,,0,,,85,0
209088,note_on,,,,,0,0,1,,,,,0,,,83,103
209088,note_on,,,,,96,0,3,,,,,2,,,56,87
209088,note_on,,,,,96,0,2,,,,,1,,,71,96
209184,note_on,,,,,0,0,1,,,,,0,,,81,103
209184,note_off,,,,,96,0,1,,,,,0,,,83,0
209280,note_off,,,,,96,0,1,,,,,0,,,81,0
209280,note_on,,,,,0,0,3,,,,,2,,,59,87
209280,note_off,,,,,192,0,3,,,,,2,,,56,0
209280,note_on,,,,,0,0,2,,,,,1,,,74,96
209280,note_off,,,,,192,0,2,,,,,1,,,71,0
209280,note_on,,,,,0,0,1,,,,,0,,,80,103
209376,note_off,,,,,96,0,1,,,,,0,,,80,0
209376,note_on,,,,,0,0,1,,,,,0,,,81,103
209472,note_off,,,,,192,0,3,,,,,2,,,59,0
209472,note_on,,,,,0,0,3,,,,,2,,,62,87
209472,note_off,,,,,96,0,1,,,,,0,,,81,0
209472,note_on,,,,,0,0,1,,,,,0,,,83,103
209472,note_on,,,,,0,0,2,,,,,1,,,65,96
209472,note_off,,,,,192,0,2,,,,,1,,,74,0
209568,note_off,,,,,96,0,1,,,,,0,,,83,0
209568,note_on,,,,,0,0,1,,,,,0,,,80,103
209664,note_off,,,,,192,0,3,,,,,2,,,62,0
209664,note_off,,,,,96,0,1,,,,,0,,,80,0
209664,note_on,,,,,0,0,4,,,,,3,,,47,78
209664,note_off,,,,,576,0,4,,,,,3,,,47,0
209664,note_on,,,,,0,0,1,,,,,0,,,81,103
209664,note_off,,,,,192,0,2,,,,,1,,,65,0
209664,note_on,,,,,0,0,2,,,,,1,,,66,96
209664,note_on,,,,,0,0,3,,,,,2,,,61,87
209760,note_off,,,,,96,0,1,,,,,0,,,81,0
209760,note_on,,,,,0,0,1,,,,,0,,,83,103
209760,note_off,,,,,96,0,4,,,,,3,,,47,0
209760,note_off,,,,,96,0,2,,,,,1,,,66,0
209760,note_off,,,,,96,0,3,,,,,2,,,61,0
209856,note_on,,,,,96,0,3,,,,,2,,,54,87
209856,note_on,,,,,96,0,4,,,,,3,,,47,78
209856,note_off,,,,,96,0,1,,,,,0,,,83,0
209856,note_on,,,,,0,0,1,,,,,0,,,81,103
209856,note_on,,,,,96,0,2,,,,,1,,,69,96
209952,note_on,,,,,0,0,1,,,,,0,,,80,103
209952,note_off,,,,,96,0,1,,,,,0,,,81,0
210048,note_off,,,,,192,0,2,,,,,1,,,69,0
210048,note_on,,,,,0,0,1,,,,,0,,,78,103
210048,note_off,,,,,96,0,1,,,,,0,,,80,0
210048,note_on,,,,,0,0,2,,,,,1,,,72,96
210048,note_on,,,,,0,0,3,,,,,2,,,57,87
210048,note_off,,,,,192,0,3,,,,,2,,,54,0
210144,note_on,,,,,0,0,1,,,,,0,,,80,103
210144,note_off,,,,,96,0,1,,,,,0,,,78,0
210240,note_off,,,,,192,0,2,,,,,1,,,72,0
210240,note_on,,,,,0,0,2,,,,,1,,,63,96
210240,note_on,,,,,0,0,1,,,,,0,,,81,103
210240,note_off,,,,,192,0,3,,,,,2,,,57,0
210240,note_off,,,,,96,0,1,,,,,0,,,80,0
210240,note_on,,,,,0,0,3,,,,,2,,,60,87
210336,note_off,,,,,96,0,1,,,,,0,,,81,0
210336,note_on,,,,,0,0,1,,,,,0,,,78,103
210432,note_off,,,,,192,0,3,,,,,2,,,60,0
210432,note_off,,,,,576,0,4,,,,,3,,,47,0
210432,note_on,,,,,0,0,4,,,,,3,,,47,78
210432,note_on,,,,,0,0,2,,,,,1,,,64,96
210432,note_on,,,,,0,0,3,,,,,2,,,59,87
210432,note_off,,,,,192,0,2,,,,,1,,,63,0
210432,note_on,,,,,0,0,1,,,,,0,,,80,103
210432,note_off,,,,,96,0,1,,,,,0,,,78,0
210528,note_off,,,,,96,0,1,,,,,0,,,80,0
210528,note_on,,,,,0,0,1,,,,,0,,,81,103
210528,note_off,,,,,96,0,2,,,,,1,,,64,0
210528,note_off,,,,,96,0,3,,,,,2,,,59,0
210624,note_on,,,,,96,0,3,,,,,2,,,52,87
210624,note_on,,,,,0,0,4,,,,,3,,,47,78
210624,note_on,,,,,96,0,2,,,,,1,,,64,96
210624,note_off,,,,,192,0,4,,,,,3,,,47,0
210624,note_off,,,,,96,0,1,,,,,0,,,81,0
210624,note_on,,,,,0,0,1,,,,,0,,,80,103
210720,note_off,,,,,96,0,1,,,,,0,,,80,0
210720,note_on,,,,,0,0,1,,,,,0,,,78,103
210816,note_off,,,,,192,0,2,,,,,1,,,64,0
210816,note_on,,,,,0,0,2,,,,,1,,,70,96
210816,note_off,,,,,192,0,3,,,,,2,,,52,0
210816,note_on,,,,,0,0,3,,,,,2,,,49,87
210816,note_on,,,,,0,0,1,,,,,0,,,76,103
210816,note_off,,,,,96,0,1,,,,,0,,,78,0
210912,note_off,,,,,96,0,1,,,,,0,,,76,0
210912,note_on,,,,,0,0,1,,,,,0,,,78,103
211008,note_off,,,,,192,0,3,,,,,2,,,49,0
211008,note_on,,,,,0,0,3,,,,,2,,,58,87
211008,note_off,,,,,96,0,1,,,,,0,,,78,0
211008,note_on,,,,,0,0,1,,,,,0,,,80,103
211008,note_off,,,,,192,0,2,,,,,1,,,70,0
211008,note_on,,,,,0,0,2,,,,,1,,,61,96
211104,note_on,,,,,0,0,1,,,,,0,,,76,103
211104,note_off,,,,,96,0,1,,,,,0,,,80,0
211200,note_on,,,,,0,0,4,,,,,3,,,47,78
211200,note_off,,,,,192,0,3,,,,,2,,,58,0
211200,note_off,,,,,576,0,4,,,,,3,,,47,0
211200,note_off,,,,,96,0,1,,,,,0,,,76,0
211200,note_on,,,,,0,0,1,,,,,0,,,75,103
211200,note_on,,,,,0,0,3,,,,,2,,,59,87
211200,note_off,,,,,192,0,2,,,,,1,,,61,0
211200,note_on,,,,,0,0,2,,,,,1,,,59,96
211296,note_off,,,,,96,0,2,,,,,1,,,59,0
211296,note_off,,,,,96,0,3,,,,,2,,,59,0
211296,note_off,,,,,96,0,4,,,,,3,,,47,0
211296,note_on,,,,,0,0,1,,,,,0,,,76,103
211296,note_off,,,,,96,0,1,,,,,0,,,75,0
211392,note_on,,,,,96,0,4,,,,,3,,,54,78
211392,note_off,,,,,96,0,1,,,,,0,,,76,0
211392,note_on,,,,,96,0,3,,,,,2,,,58,87
211392,note_on,,,,,0,0,1,,,,,0,,,73,103
211392,note_on,,,,,96,0,2,,,,,1,,,64,96
211488,note_off,,,,,96,0,2,,,,,1,,,64,0
211488,note_off,,,,,96,0,1,,,,,0,,,73,0
211488,note_off,,,,,96,0,4,,,,,3,,,54,0
211488,note_on,,,,,0,0,1,,,,,0,,,75,103
211488,note_off,,,,,96,0,3,,,,,2,,,58,0
211584,note_on,,,,,96,0,2,,,,,1,,,63,96
211584,note_on,,,,,96,0,3,,,,,2,,,59,87
211584,note_on,,,,,96,0,4,,,,,3,,,59,78
211584,note_on,,,,,0,0,1,,,,,0,,,71,103
211584,note_off,,,,,96,0,1,,,,,0,,,75,0
211680,note_off,,,,,96,0,2,,,,,1,,,63,0
211680,note_off,,,,,96,0,4,,,,,3,,,59,0
211680,note_off,,,,,96,0,3,,,,,2,,,59,0
211776,note_off,,,,,192,0,1,,,,,0,,,71,0
211776,note_on,,,,,96,0,2,,,,,1,,,68,96
211776,note_on,,,,,0,0,1,,,,,0,,,80,103
211872,note_off,,,,,96,0,1,,,,,0,,,80,0
211872,note_on,,,,,0,0,2,,,,,1,,,69,96
211872,note_off,,,,,96,0,2,,,,,1,,,68,0
211872,note_on,,,,,0,0,1,,,,,0,,,81,103
211968,note_on,,,,,288,0,4,,,,,3,,,52,78
211968,note_on,,,,,288,0,3,,,,,2,,,56,87
211968,note_on,,,,,0,0,2,,,,,1,,,71,96
211968,note_off,,,,,96,0,2,,,,,1,,,69,0
211968,note_off,,,,,96,0,1,,,,,0,,,81,0
211968,note_on,,,,,0,0,1,,,,,0,,,83,103
212064,note_off,,,,,96,0,1,,,,,0,,,83,0
212064,note_off,,,,,96,0,2,,,,,1,,,71,0
212064,note_on,,,,,0,0,2,,,,,1,,,69,96
212064,note_on,,,,,0,0,1,,,,,0,,,81,103
212160,note_on,,,,,0,0,1,,,,,0,,,80,103
212160,note_off,,,,,96,0,2,,,,,1,,,69,0
212160,note_on,,,,,0,0,2,,,,,1,,,68,96
212160,note_off,,,,,96,0,1,,,,,0,,,81,0
212160,note_off,,,,,192,0,4,,,,,3,,,52,0
212160,note_on,,,,,0,0,4,,,,,3,,,54,78
212160,note_off,,,,,192,0,3,,,,,2,,,56,0
212160,note_on,,,,,0,0,3,,,,,2,,,57,87
212256,note_off,,,,,96,0,1,,,,,0,,,80,0
212256,note_off,,,,,96,0,2,,,,,1,,,68,0
212256,note_on,,,,,0,0,2,,,,,1,,,66,96
212256,note_on,,,,,0,0,1,,,,,0,,,78,103
212352,note_off,,,,,192,0,4,,,,,3,,,54,0
212352,note_on,,,,,0,0,4,,,,,3,,,56,78
212352,note_off,,,,,96,0,2,,,,,1,,,66,0
212352,note_on,,,,,0,0,1,,,,,0,,,76,103
212352,note_off,,,,,96,0,1,,,,,0,,,78,0
212352,note_on,,,,,0,0,2,,,,,1,,,64,96
212352,note_off,,,,,192,0,3,,,,,2,,,57,0
212352,note_on,,,,,0,0,3,,,,,2,,,59,87
212448,note_on,,,,,0,0,1,,,,,0,,,78,103
212448,note_on,,,,,0,0,2,,,,,1,,,66,96
212448,note_off,,,,,96,0,2,,,,,1,,,64,0
212448,note_off,,,,,96,0,1,,,,,0,,,76,0
212544,note_off,,,,,96,0,1,,,,,0,,,78,0
212544,note_on,,,,,0,0,1,,,,,0,,,76,103
212544,note_on,,,,,0,0,2,,,,,1,,,64,96
212544,note_off,,,,,96,0,2,,,,,1,,,66,0
212544,note_off,,,,,192,0,4,,,,,3,,,56,0
212544,note_off,,,,,192,0,3,,,,,2,,,59,0
212640,note_off,,,,,96,0,2,,,,,1,,,64,0
212640,note_on,,,,,0,0,2,,,,,1,,,63,96
212640,note_on,,,,,0,0,1,,,,,0,,,75,103
212640,note_off,,,,,96,0,1,,,,,0,,,76,0
212736,note_on,,,,,192,0,4,,,,,3,,,57,78
212736,note_off,,,,,96,0,2,,,,,1,,,63,0
212736,note_on,,,,,0,0,2,,,,,1,,,61,96
212736,note_on,,,,,0,0,1,,,,,0,,,73,103
212736,note_off,,,,,96,0,1,,,,,0,,,75,0
212736,note_on,,,,,192,0,3,,,,,2,,,59,87
212832,note_off,,,,,96,0,2,,,,,1,,,61,0
212832,note_off,,,,,96,0,1,,,,,0,,,73,0
212928,note_on,,,,,0,0,4,,,,,3,,,59,78
212928,note_off,,,,,192,0,4,,,,,3,,,57,0
212928,note_on,,,,,96,0,1,,,,,0,,,78,103
212928,note_off,,,,,192,0,3,,,,,2,,,59,0
212928,note_on,,,,,0,0,3,,,,,2,,,63,87
212928,note_on,,,,,96,0,2,,,,,1,,,66,96
213024,note_off,,,,,96,0,4,,,,,3,,,59,0
213024,note_off,,,,,96,0,3,,,,,2,,,63,0
213024,note_on,,,,,0,0,4,,,,,3,,,61,78
213024,note_on,,,,,0,0,3,,,,,2,,,64,87
213120,note_off,,,,,96,0,4,,,,,3,,,61,0
213120,note_off,,,,,96,0,3,,,,,2,,,64,0
213120,note_on,,,,,0,0,3,,,,,2,,,66,87
213120,note_on,,,,,0,0,4,,,,,3,,,63,78
213312,note_off,,,,,192,0,4,,,,,3,,,63,0
213312,note_on,,,,,0,0,3,,,,,2,,,66,87
213312,note_on,,,,,0,0,2,,,,,1,,,63,96
213312,note_off,,,,,384,0,2,,,,,1,,,66,0
213312,note_off,,,,,192,0,3,,,,,2,,,66,0
213312,note_on,,,,,0,0,4,,,,,3,,,59,78
213312,note_on,,,,,0,0,1,,,,,0,,,75,103
213312,note_off,,,,,384,0,1,,,,,0,,,78,0
213408,note_off,,,,,96,0,4,,,,,3,,,59,0
213408,note_off,,,,,96,0,3,,,,,2,,,66,0
213504,note_on,,,,,0,0,1,,,,,0,,,76,103
213504,note_off,,,,,192,0,2,,,,,1,,,63,0
213504,note_on,,,,,0,0,2,,,,,1,,,64,96
213504,note_on,,,,,96,0,4,,,,,3,,,61,78
213504,note_on,,,,,96,0,3,,,,,2,,,64,87
213504,note_off,,,,,192,0,1,,,,,0,,,75,0
213600,note_off,,,,,96,0,2,,,,,1,,,64,0
213600,note_off,,,,,96,0,1,,,,,0,,,76,0
213696,note_on,,,,,96,0,2,,,,,1,,,69,96
213696,note_off,,,,,192,0,4,,,,,3,,,61,0
213696,note_on,,,,,0,0,4,,,,,3,,,63,78
213696,note_on,,,,,96,0,1,,,,,0,,,81,103
213696,note_off,,,,,192,0,3,,,,,2,,,64,0
213696,note_on,,,,,0,0,3,,,,,2,,,66,87
213792,note_off,,,,,96,0,3,,,,,2,,,66,0
213792,note_off,,,,,96,0,4,,,,,3,,,63,0
213792,note_on,,,,,0,0,4,,,,,3,,,64,78
213792,note_on,,,,,0,0,3,,,,,2,,,68,87
213888,note_off,,,,,96,0,4,,,,,3,,,64,0
213888,note_on,,,,,0,0,4,,,,,3,,,66,78
213888,note_on,,,,,0,0,3,,,,,2,,,69,87
213888,note_off,,,,,96,0,3,,,,,2,,,68,0
214080,note_on,,,,,0,0,3,,,,,2,,,69,87
214080,note_off,,,,,192,0,3,,,,,2,,,69,0
214080,note_on,,,,,0,0,2,,,,,1,,,66,96
214080,note_off,,,,,384,0,2,,,,,1,,,69,0
214080,note_off,,,,,384,0,1,,,,,0,,,81,0
214080,note_off,,,,,192,0,4,,,,,3,,,66,0
214080,note_on,,,,,0,0,4,,,,,3,,,63,78
214080,note_on,,,,,0,0,1,,,,,0,,,78,103
214176,note_off,,,,,96,0,3,,,,,2,,,69,0
214176,note_off,,,,,96,0,4,,,,,3,,,63,0
214272,note_on,,,,,96,0,3,,,,,2,,,68,87
214272,note_on,,,,,96,0,4,,,,,3,,,64,78
214272,note_off,,,,,192,0,2,,,,,1,,,66,0
214272,note_off,,,,,192,0,1,,,,,0,,,78,0
214272,note_on,,,,,0,0,1,,,,,0,,,80,103
214272,note_on,,,,,0,0,2,,,,,1,,,68,96
214368,note_off,,,,,96,0,1,,,,,0,,,80,0
214368,note_off,,,,,96,0,2,,,,,1,,,68,0
214464,note_on,,,,,96,0,2,,,,,1,,,73,96
214464,note_on,,,,,0,0,3,,,,,2,,,64,87
214464,note_off,,,,,192,0,3,,,,,2,,,68,0
214464,note_off,,,,,192,0,4,,,,,3,,,64,0
214464,note_on,,,,,96,0,1,,,,,0,,,85,103
214464,note_on,,,,,0,0,4,,,,,3,,,61,78
214560,note_on,,,,,0,0,4,,,,,3,,,59,78
214560,note_on,,,,,0,0,3,,,,,2,,,63,87
214560,note_off,,,,,96,0,3,,,,,2,,,64,0
214560,note_off,,,,,96,0,4,,,,,3,,,61,0
214656,note_on,,,,,0,0,3,,,,,2,,,61,87
214656,note_off,,,,,96,0,3,,,,,2,,,63,0
214656,note_off,,,,,96,0,4,,,,,3,,,59,0
214656,note_on,,,,,0,0,4,,,,,3,,,57,78
214848,note_on,,,,,0,0,4,,,,,3,,,60,78
214848,note_on,,,,,0,0,3,,,,,2,,,64,87
214848,note_off,,,,,192,0,3,,,,,2,,,61,0
214848,note_off,,,,,384,0,2,,,,,1,,,73,0
214848,note_on,,,,,0,0,2,,,,,1,,,70,96
214848,note_off,,,,,192,0,4,,,,,3,,,57,0
214848,note_on,,,,,0,0,1,,,,,0,,,82,103
214848,note_off,,,,,384,0,1,,,,,0,,,85,0
214944,note_off,,,,,96,0,4,,,,,3,,,60,0
214944,note_off,,,,,96,0,3,,,,,2,,,64,0
215040,note_on,,,,,96,0,4,,,,,3,,,59,78
215040,note_on,,,,,0,0,1,,,,,0,,,82,103
215040,note_off,,,,,192,0,1,,,,,0,,,82,0
215040,note_on,,,,,96,0,3,,,,,2,,,68,87
215040,note_on,,,,,0,0,2,,,,,1,,,71,96
215040,note_off,,,,,192,0,2,,,,,1,,,70,0
215136,note_on,,,,,0,0,1,,,,,0,,,83,103
215136,note_off,,,,,96,0,1,,,,,0,,,82,0
215232,note_off,,,,,192,0,2,,,,,1,,,71,0
215232,note_on,,,,,0,0,2,,,,,1,,,76,96
215232,note_on,,,,,0,0,3,,,,,2,,,71,87
215232,note_off,,,,,192,0,3,,,,,2,,,68,0
215232,note_off,,,,,96,0,1,,,,,0,,,83,0
215232,note_on,,,,,0,0,1,,,,,0,,,81,103
215328,note_on,,,,,0,0,1,,,,,0,,,80,103
215328,note_off,,,,,96,0,1,,,,,0,,,81,0
215424,note_on,,,,,0,0,1,,,,,0,,,78,103
215424,note_off,,,,,96,0,1,,,,,0,,,80,0
215424,note_off,,,,,192,0,2,,,,,1,,,76,0
215424,note_on,,,,,0,0,2,,,,,1,,,75,96
215424,note_on,,,,,0,0,3,,,,,2,,,69,87
215424,note_off,,,,,192,0,3,,,,,2,,,71,0
215520,note_on,,,,,0,0,1,,,,,0,,,80,103
215520,note_off,,,,,96,0,1,,,,,0,,,78,0
215616,note_off,,,,,192,0,3,,,,,2,,,69,0
215616,note_on,,,,,0,0,3,,,,,2,,,63,87
215616,note_on,,,,,0,0,2,,,,,1,,,69,96
215616,note_off,,,,,192,0,2,,,,,1,,,75,0
215616,note_off,,,,,96,0,1,,,,,0,,,80,0
215616,note_on,,,,,0,0,1,,,,,0,,,81,103
215712,note_on,,,,,0,0,1,,,,,0,,,78,103
215712,note_off,,,,,96,0,1,,,,,0,,,81,0
215808,note_off,,,,,192,0,3,,,,,2,,,63,0
215808,note_on,,,,,0,0,3,,,,,2,,,56,87
215808,note_off,,,,,768,0,4,,,,,3,,,59,0
215808,note_off,,,,,192,0,2,,,,,1,,,69,0
215808,note_on,,,,,0,0,4,,,,,3,,,52,78
215808,note_off,,,,,96,0,1,,,,,0,,,78,0
215808,note_on,,,,,0,0,1,,,,,0,,,76,103
215808,note_on,,,,,0,0,2,,,,,1,,,64,96
215904,note_off,,,,,96,0,1,,,,,0,,,76,0
216000,note_on,,,,,96,0,1,,,,,0,,,88,103
216000,note_off,,,,,192,0,2,,,,,1,,,64,0
216000,note_on,,,,,0,0,2,,,,,1,,,66,96
216000,note_off,,,,,192,0,3,,,,,2,,,56,0
216000,note_on,,,,,0,0,3,,,,,2,,,57,87
216096,note_off,,,,,96,0,2,,,,,1,,,66,0
216096,note_on,,,,,0,0,2,,,,,1,,,68,96
216096,note_on,,,,,0,0,3,,,,,2,,,59,87
216096,note_off,,,,,96,0,3,,,,,2,,,57,0
216192,note_off,,,,,96,0,2,,,,,1,,,68,0
216192,note_on,,,,,0,0,3,,,,,2,,,61,87
216192,note_off,,,,,384,0,4,,,,,3,,,52,0
216192,note_on,,,,,0,0,2,,,,,1,,,69,96
216192,note_off,,,,,96,0,3,,,,,2,,,59,0
216384,note_off,,,,,192,0,3,,,,,2,,,61,0
216384,note_on,,,,,0,0,3,,,,,2,,,58,87
216384,note_on,,,,,0,0,2,,,,,1,,,66,96
216384,note_off,,,,,192,0,2,,,,,1,,,69,0
216384,note_on,,,,,0,0,1,,,,,0,,,76,103
216384,note_off,,,,,384,0,1,,,,,0,,,88,0
216480,note_off,,,,,96,0,1,,,,,0,,,76,0
216480,note_off,,,,,96,0,2,,,,,1,,,66,0
216480,note_off,,,,,96,0,3,,,,,2,,,58,0
216576,note_on,,,,,96,0,3,,,,,2,,,59,87
216576,note_on,,,,,384,0,4,,,,,3,,,40,78
216576,note_on,,,,,96,0,1,,,,,0,,,76,103
216576,note_on,,,,,96,0,2,,,,,1,,,68,96
216672,note_off,,,,,96,0,4,,,,,3,,,40,0
216672,note_on,,,,,0,0,3,,,,,2,,,64,87
216672,note_off,,,,,96,0,1,,,,,0,,,76,0
216672,note_off,,,,,96,0,3,,,,,2,,,59,0
216768,note_on,,,,,96,0,4,,,,,3,,,52,78
216768,note_on,,,,,96,0,1,,,,,0,,,88,103
216768,note_off,,,,,192,0,2,,,,,1,,,68,0
216768,note_on,,,,,0,0,2,,,,,1,,,69,96
216768,note_on,,,,,0,0,3,,,,,2,,,66,87
216768,note_off,,,,,96,0,3,,,,,2,,,64,0
216864,note_off,,,,,96,0,3,,,,,2,,,66,0
216864,note_off,,,,,96,0,2,,,,,1,,,69,0
216864,note_on,,,,,0,0,2,,,,,1,,,71,96
216864,note_on,,,,,0,0,3,,,,,2,,,68,87
216960,note_on,,,,,0,0,3,,,,,2,,,69,87
216960,note_on,,,,,0,0,2,,,,,1,,,73,96
216960,note_off,,,,,96,0,3,,,,,2,,,68,0
216960,note_off,,,,,96,0,2,,,,,1,,,71,0
217152,note_off,,,,,192,0,2,,,,,1,,,73,0
217152,note_on,,,,,0,0,1,,,,,0,,,76,103
217152,note_on,,,,,0,0,4,,,,,3,,,40,78
217152,note_off,,,,,384,0,1,,,,,0,,,88,0
217152,note_off,,,,,384,0,4,,,,,3,,,52,0
217152,note_off,,,,,192,0,3,,,,,2,,,69,0
217152,note_on,,,,,0,0,3,,,,,2,,,67,87
217152,note_on,,,,,0,0,2,,,,,1,,,70,96
217248,note_off,,,,,96,0,2,,,,,1,,,70,0
217248,note_off,,,,,96,0,1,,,,,0,,,76,0
217248,note_off,,,,,96,0,4,,,,,3,,,40,0
217248,note_off,,,,,96,0,3,,,,,2,,,67,0
217344,note_on,,,,,96,0,1,,,,,0,,,76,103
217344,note_on,,,,,96,0,3,,,,,2,,,68,87
217344,note_on,,,,,96,0,4,,,,,3,,,40,78
217344,note_on,,,,,96,0,2,,,,,1,,,71,96
217440,note_off,,,,,96,0,3,,,,,2,,,68,0
217440,note_off,,,,,96,0,1,,,,,0,,,76,0
217536,note_off,,,,,192,0,4,,,,,3,,,40,0
217536,note_off,,,,,192,0,2,,,,,1,,,71,0
217536,note_on,,,,,0,0,2,,,,,1,,,66,96
217536,note_on,,,,,96,0,3,,,,,2,,,57,87
217536,note_on,,,,,96,0,1,,,,,0,,,88,103
217632,note_on,,,,,0,0,3,,,,,2,,,59,87
217632,note_on,,,,,0,0,2,,,,,1,,,68,96
217632,note_off,,,,,96,0,2,,,,,1,,,66,0
217632,note_off,,,,,96,0,3,,,,,2,,,57,0
217728,note_on,,,,,0,0,2,,,,,1,,,69,96
217728,note_off,,,,,96,0,3,,,,,2,,,59,0
217728,note_on,,,,,0,0,3,,,,,2,,,61,87
217728,note_off,,,,,96,0,2,,,,,1,,,68,0
217920,note_on,,,,,0,0,3,,,,,2,,,58,87
217920,note_on,,,,,0,0,1,,,,,0,,,76,103
217920,note_on,,,,,0,0,2,,,,,1,,,66,96
217920,note_off,,,,,192,0,2,,,,,1,,,69,0
217920,note_off,,,,,192,0,3,,,,,2,,,61,0
217920,note_off,,,,,384,0,1,,,,,0,,,88,0
218016,note_off,,,,,96,0,3,,,,,2,,,58,0
218016,note_off,,,,,96,0,2,,,,,1,,,66,0
218016,note_off,,,,,96,0,1,,,,,0,,,76,0
218112,note_on,,,,,96,0,3,,,,,2,,,59,87
218112,note_on,,,,,576,0,4,,,,,3,,,40,78
218112,note_on,,,,,96,0,2,,,,,1,,,68,96
218112,note_on,,,,,96,0,1,,,,,0,,,76,103
218208,note_on,,,,,0,0,3,,,,,2,,,64,87
218208,note_off,,,,,96,0,3,,,,,2,,,59,0
218208,note_off,,,,,96,0,1,,,,,0,,,76,0
218208,note_off,,,,,96,0,4,,,,,3,,,40,0
218304,note_on,,,,,96,0,4,,,,,3,,,52,78
218304,note_on,,,,,0,0,2,,,,,1,,,69,96
218304,note_off,,,,,192,0,2,,,,,1,,,68,0
218304,note_off,,,,,96,0,3,,,,,2,,,64,0
218304,note_on,,,,,0,0,3,,,,,2,,,66,87
218304,note_on,,,,,96,0,1,,,,,0,,,88,103
218400,note_on,,,,,0,0,2,,,,,1,,,71,96
218400,note_off,,,,,96,0,2,,,,,1,,,69,0
218400,note_on,,,,,0,0,3,,,,,2,,,68,87
218400,note_off,,,,,96,0,3,,,,,2,,,66,0
218496,note_off,,,,,96,0,3,,,,,2,,,68,0
218496,note_on,,,,,0,0,2,,,,,1,,,73,96
218496,note_off,,,,,96,0,2,,,,,1,,,71,0
218496,note_on,,,,,0,0,3,,,,,2,,,69,87
218688,note_off,,,,,192,0,3,,,,,2,,,69,0
218688,note_off,,,,,384,0,4,,,,,3,,,52,0
218688,note_on,,,,,0,0,1,,,,,0,,,76,103
218688,note_on,,,,,0,0,4,,,,,3,,,48,78
218688,note_off,,,,,192,0,2,,,,,1,,,73,0
218688,note_on,,,,,0,0,2,,,,,1,,,70,96
218688,note_on,,,,,0,0,3,,,,,2,,,67,87
218688,note_off,,,,,384,0,1,,,,,0,,,88,0
218784,note_off,,,,,96,0,1,,,,,0,,,76,0
218784,note_off,,,,,96,0,3,,,,,2,,,67,0
218784,note_off,,,,,96,0,2,,,,,1,,,70,0
218784,note_off,,,,,96,0,4,,,,,3,,,48,0
218880,note_on,,,,,96,0,2,,,,,1,,,71,96
218880,note_on,,,,,96,0,3,,,,,2,,,68,87
218880,note_on,,,,,96,0,4,,,,,3,,,47,78
218880,note_on,,,,,96,0,1,,,,,0,,,76,103
218976,note_off,,,,,96,0,4,,,,,3,,,47,0
218976,note_off,,,,,96,0,3,,,,,2,,,68,0
218976,note_off,,,,,96,0,1,,,,,0,,,76,0
219072,note_on,,,,,96,0,1,,,,,0,,,80,103
219072,note_off,,,,,192,0,2,,,,,1,,,71,0
219168,note_off,,,,,96,0,1,,,,,0,,,80,0
219168,note_on,,,,,0,0,1,,,,,0,,,81,103
219264,note_off,,,,,96,0,1,,,,,0,,,81,0
219264,note_on,,,,,288,0,3,,,,,2,,,71,87
219264,note_on,,,,,0,0,1,,,,,0,,,83,103
219264,note_on,,,,,288,0,4,,,,,3,,,59,78
219264,note_on,,,,,192,0,2,,,,,1,,,71,96
219456,note_off,,,,,192,0,2,,,,,1,,,71,0
219456,note_off,,,,,192,0,4,,,,,3,,,59,0
219456,note_on,,,,,0,0,1,,,,,0,,,76,103
219456,note_off,,,,,192,0,1,,,,,0,,,83,0
219456,note_off,,,,,192,0,3,,,,,2,,,71,0
219552,note_on,,,,,0,0,1,,,,,0,,,78,103
219552,note_off,,,,,96,0,1,,,,,0,,,76,0
219648,note_on,,,,,192,0,2,,,,,1,,,68,96
219648,note_on,,,,,192,0,4,,,,,3,,,56,78
219648,note_on,,,,,0,0,1,,,,,0,,,80,103
219648,note_off,,,,,96,0,1,,,,,0,,,78,0
219648,note_on,,,,,192,0,3,,,,,2,,,68,87
219840,note_off,,,,,192,0,4,,,,,3,,,56,0
219840,note_off,,,,,192,0,3,,,,,2,,,68,0
219840,note_off,,,,,192,0,1,,,,,0,,,80,0
219840,note_on,,,,,0,0,1,,,,,0,,,73,103
219840,note_off,,,,,192,0,2,,,,,1,,,68,0
219936,note_off,,,,,96,0,1,,,,,0,,,73,0
219936,note_on,,,,,0,0,1,,,,,0,,,75,103
220032,note_on,,,,,0,0,1,,,,,0,,,76,103
220032,note_on,,,,,192,0,3,,,,,2,,,64,87
220032,note_on,,,,,192,0,4,,,,,3,,,52,78
220032,note_on,,,,,192,0,2,,,,,1,,,64,96
220032,note_off,,,,,96,0,1,,,,,0,,,75,0
220224,note_off,,,,,192,0,3,,,,,2,,,64,0
220224,note_off,,,,,192,0,4,,,,,3,,,52,0
220224,note_off,,,,,192,0,2,,,,,1,,,64,0
220224,note_off,,,,,192,0,1,,,,,0,,,76,0
220224,note_on,,,,,0,0,1,,,,,0,,,69,103
220320,note_on,,,,,0,0,1,,,,,0,,,71,103
220320,note_off,,,,,96,0,1,,,,,0,,,69,0
220416,note_on,,,,,192,0,2,,,,,1,,,60,96
220416,note_on,,,,,192,0,3,,,,,2,,,60,87
220416,note_off,,,,,96,0,1,,,,,0,,,71,0
220416,note_on,,,,,0,0,1,,,,,0,,,72,103
220416,note_on,,,,,192,0,4,,,,,3,,,48,78
220512,note_off,,,,,96,0,1,,,,,0,,,72,0
220512,note_on,,,,,0,0,1,,,,,0,,,76,103
220608,note_off,,,,,96,0,1,,,,,0,,,76,0
220608,note_on,,,,,0,0,1,,,,,0,,,74,103
220704,note_off,,,,,96,0,1,,,,,0,,,74,0
220704,note_on,,,,,0,0,1,,,,,0,,,77,103
220800,note_off,,,,,96,0,1,,,,,0,,,77,0
220800,note_on,,,,,0,0,1,,,,,0,,,76,103
220896,note_off,,,,,96,0,1,,,,,0,,,76,0
220896,note_on,,,,,0,0,1,,,,,0,,,79,103
220992,note_on,,,,,0,0,1,,,,,0,,,78,103
220992,note_off,,,,,96,0,1,,,,,0,,,79,0
221088,note_on,,,,,0,0,1,,,,,0,,,81,103
221088,note_off,,,,,96,0,1,,,,,0,,,78,0
221184,note_on,,,,,0,0,1,,,,,0,,,79,103
221184,note_off,,,,,96,0,1,,,,,0,,,81,0
221280,note_on,,,,,0,0,1,,,,,0,,,84,103
221280,note_off,,,,,96,0,1,,,,,0,,,79,0
221376,note_on,,,,,0,0,1,,,,,0,,,83,103
221376,note_off,,,,,96,0,1,,,,,0,,,84,0
221472,note_off,,,,,96,0,1,,,,,0,,,83,0
221472,note_on,,,,,0,0,1,,,,,0,,,86,103
221568,note_on,,,,,0,0,1,,,,,0,,,84,103
221568,note_off,,,,,96,0,1,,,,,0,,,86,0
221664,note_on,,,,,0,0,1,,,,,0,,,88,103
221664,note_off,,,,,96,0,1,,,,,0,,,84,0
221760,note_on,,,,,0,0,1,,,,,0,,,86,103
221760,note_off,,,,,96,0,1,,,,,0,,,88,0
221856,note_off,,,,,96,0,1,,,,,0,,,86,0
221856,note_on,,,,,0,0,1,,,,,0,,,89,103
221952,note_off,,,,,96,0,1,,,,,0,,,89,0
221952,note_on,,,,,0,0,1,,,,,0,,,88,103
222144,note_off,,,,,1728,0,3,,,,,2,,,60,0
222144,note_off,,,,,1728,0,4,,,,,3,,,48,0
222144,note_off,,,,,1728,0,2,,,,,1,,,60,0
222144,note_off,,,,,192,0,1,,,,,0,,,88,0
222336,note_on,,,,,192,0,1,,,,,0,,,78,103
222336,note_on,,,,,192,0,4,,,,,3,,,58,78
222336,note_on,,,,,192,0,3,,,,,2,,,64,87
222336,note_on,,,,,0,0,2,,,,,1,,,66,96
222336,note_on,,,,,192,0,2,,,,,1,,,61,96
222384,note_off,,,,,48,0,1,,,,,0,,,78,0
222384,note_on,,,,,0,0,1,,,,,0,,,80,103
222432,note_on,,,,,0,0,1,,,,,0,,,78,103
222432,note_off,,,,,48,0,1,,,,,0,,,80,0
222480,note_on,,,,,0,0,1,,,,,0,,,80,103
222480,note_off,,,,,48,0,1,,,,,0,,,78,0
222528,note_off,,,,,48,0,1,,,,,0,,,80,0
222528,note_on,,,,,0,0,1,,,,,0,,,78,103
222576,note_off,,,,,48,0,1,,,,,0,,,78,0
222576,note_on,,,,,0,0,1,,,,,0,,,80,103
222624,note_off,,,,,48,0,1,,,,,0,,,80,0
222624,note_on,,,,,0,0,1,,,,,0,,,76,103
222672,note_off,,,,,48,0,1,,,,,0,,,76,0
222672,note_on,,,,,0,0,1,,,,,0,,,78,103
222720,note_off,,,,,48,0,1,,,,,0,,,78,0
222720,note_on,,,,,0,0,1,,,,,0,,,83,103
222720,note_on,,,,,0,0,3,,,,,2,,,64,87
222720,note_off,,,,,384,0,3,,,,,2,,,64,0
222720,note_off,,,,,384,0,2,,,,,1,,,61,0
222720,note_off,,,,,0,0,2,,,,,1,,,66,0
222720,note_on,,,,,0,0,2,,,,,1,,,59,96
222720,note_on,,,,,0,0,2,,,,,1,,,68,96
222720,note_on,,,,,0,0,4,,,,,3,,,59,78
222720,note_off,,,,,384,0,4,,,,,3,,,58,0
222768,note_off,,,,,48,0,1,,,,,0,,,83,0
222768,note_on,,,,,0,0,1,,,,,0,,,85,103
222816,note_on,,,,,0,0,1,,,,,0,,,83,103
222816,note_off,,,,,48,0,1,,,,,0,,,85,0
222864,note_on,,,,,0,0,1,,,,,0,,,85,103
222864,note_off,,,,,48,0,1,,,,,0,,,83,0
222912,note_off,,,,,48,0,1,,,,,0,,,85,0
222912,note_on,,,,,0,0,1,,,,,0,,,83,103
222960,note_off,,,,,48,0,1,,,,,0,,,83,0
222960,note_on,,,,,0,0,1,,,,,0,,,85,103
223008,note_off,,,,,48,0,1,,,,,0,,,85,0
223008,note_on,,,,,0,0,1,,,,,0,,,81,103
223056,note_off,,,,,48,0,1,,,,,0,,,81,0
223056,note_on,,,,,0,0,1,,,,,0,,,83,103
223104,note_off,,,,,48,0,1,,,,,0,,,83,0
223104,note_on,,,,,0,0,1,,,,,0,,,75,103
223104,note_off,,,,,384,0,4,,,,,3,,,59,0
223104,note_off,,,,,0,0,2,,,,,1,,,68,0
223104,note_on,,,,,0,0,4,,,,,3,,,47,78
223104,note_off,,,,,384,0,2,,,,,1,,,59,0
223104,note_on,,,,,0,0,3,,,,,2,,,66,87
223104,note_off,,,,,384,0,3,,,,,2,,,64,0
223104,note_on,,,,,0,0,2,,,,,1,,,59,96
223104,note_on,,,,,0,0,2,,,,,1,,,69,96
223152,note_off,,,,,48,0,1,,,,,0,,,75,0
223152,note_on,,,,,0,0,1,,,,,0,,,76,103
223200,note_off,,,,,48,0,1,,,,,0,,,76,0
223200,note_on,,,,,0,0,1,,,,,0,,,75,103
223248,note_off,,,,,48,0,1,,,,,0,,,75,0
223248,note_on,,,,,0,0,1,,,,,0,,,76,103
223296,note_off,,,,,48,0,1,,,,,0,,,76,0
223296,note_on,,,,,0,0,1,,,,,0,,,75,103
223344,note_on,,,,,0,0,1,,,,,0,,,76,103
223344,note_off,,,,,48,0,1,,,,,0,,,75,0
223392,note_on,,,,,0,0,1,,,,,0,,,73,103
223392,note_off,,,,,48,0,1,,,,,0,,,76,0
223440,note_off,,,,,48,0,1,,,,,0,,,73,0
223440,note_on,,,,,0,0,1,,,,,0,,,75,103
223488,note_off,,,,,384,0,2,,,,,1,,,59,0
223488,note_off,,,,,384,0,4,,,,,3,,,47,0
223488,note_off,,,,,384,0,3,,,,,2,,,66,0
223488,note_on,,,,,0,0,1,,,,,0,,,76,103
223488,note_on,,,,,0,0,2,,,,,1,,,68,96
223488,note_on,,,,,0,0,4,,,,,3,,,52,78
223488,note_off,,,,,0,0,2,,,,,1,,,69,0
223488,note_on,,,,,0,0,2,,,,,1,,,59,96
223488,note_off,,,,,48,0,1,,,,,0,,,75,0
223488,note_on,,,,,0,0,3,,,,,2,,,56,87
223584,note_off,,,,,96,0,1,,,,,0,,,76,0
223680,note_off,,,,,192,0,2,,,,,1,,,68,0
223680,note_on,,,,,0,0,3,,,,,2,,,57,87
223680,note_on,,,,,0,0,2,,,,,1,,,66,96
223680,note_off,,,,,192,0,3,,,,,2,,,56,0
223680,note_off,,,,,0,0,2,,,,,1,,,59,0
223680,note_on,,,,,96,0,1,,,,,0,,,88,103
223776,note_on,,,,,0,0,3,,,,,2,,,59,87
223776,note_on,,,,,0,0,2,,,,,1,,,68,96
223776,note_off,,,,,96,0,3,,,,,2,,,57,0
223776,note_off,,,,,96,0,2,,,,,1,,,66,0
223872,note_on,,,,,0,0,3,,,,,2,,,61,87
223872,note_off,,,,,384,0,4,,,,,3,,,52,0
223872,note_off,,,,,96,0,3,,,,,2,,,59,0
223872,note_on,,,,,0,0,2,,,,,1,,,69,96
223872,note_off,,,,,96,0,2,,,,,1,,,68,0
224064,note_off,,,,,192,0,2,,,,,1,,,69,0
224064,note_on,,,,,0,0,3,,,,,2,,,58,87
224064,note_off,,,,,384,0,1,,,,,0,,,88,0
224064,note_on,,,,,0,0,1,,,,,0,,,76,103
224064,note_off,,,,,192,0,3,,,,,2,,,61,0
224064,note_on,,,,,0,0,2,,,,,1,,,66,96
224160,note_off,,,,,96,0,2,,,,,1,,,66,0
224160,note_off,,,,,96,0,1,,,,,0,,,76,0
224160,note_off,,,,,96,0,3,,,,,2,,,58,0
224256,note_on,,,,,96,0,2,,,,,1,,,68,96
224256,note_on,,,,,384,0,4,,,,,3,,,40,78
224256,note_on,,,,,96,0,3,,,,,2,,,59,87
224256,note_on,,,,,96,0,1,,,,,0,,,76,103
224352,note_on,,,,,0,0,3,,,,,2,,,64,87
224352,note_off,,,,,96,0,1,,,,,0,,,76,0
224352,note_off,,,,,96,0,3,,,,,2,,,59,0
224352,note_off,,,,,96,0,4,,,,,3,,,40,0
224448,note_off,,,,,96,0,3,,,,,2,,,64,0
224448,note_off,,,,,192,0,2,,,,,1,,,68,0
224448,note_on,,,,,96,0,4,,,,,3,,,52,78
224448,note_on,,,,,96,0,1,,,,,0,,,88,103
224448,note_on,,,,,0,0,3,,,,,2,,,66,87
224448,note_on,,,,,0,0,2,,,,,1,,,69,96
224544,note_on,,,,,0,0,3,,,,,2,,,68,87
224544,note_off,,,,,96,0,3,,,,,2,,,66,0
224544,note_off,,,,,96,0,2,,,,,1,,,69,0
224544,note_on,,,,,0,0,2,,,,,1,,,71,96
224640,note_off,,,,,96,0,2,,,,,1,,,71,0
224640,note_on,,,,,0,0,2,,,,,1,,,73,96
224640,note_off,,,,,96,0,3,,,,,2,,,68,0
224640,note_on,,,,,0,0,3,,,,,2,,,69,87
224832,note_off,,,,,384,0,1,,,,,0,,,88,0
224832,note_on,,,,,0,0,1,,,,,0,,,76,103
224832,note_off,,,,,192,0,3,,,,,2,,,69,0
224832,note_on,,,,,0,0,3,,,,,2,,,67,87
224832,note_on,,,,,0,0,4,,,,,3,,,40,78
224832,note_off,,,,,384,0,4,,,,,3,,,52,0
224832,note_off,,,,,192,0,2,,,,,1,,,73,0
224832,note_on,,,,,0,0,2,,,,,1,,,70,96
224928,note_off,,,,,96,0,2,,,,,1,,,70,0
224928,note_off,,,,,96,0,1,,,,,0,,,76,0
224928,note_off,,,,,96,0,3,,,,,2,,,67,0
224928,note_off,,,,,96,0,4,,,,,3,,,40,0
225024,note_on,,,,,96,0,3,,,,,2,,,68,87
225024,note_on,,,,,96,0,4,,,,,3,,,40,78
225024,note_on,,,,,96,0,1,,,,,0,,,76,103
225024,note_on,,,,,96,0,2,,,,,1,,,71,96
225120,note_off,,,,,96,0,1,,,,,0,,,76,0
225120,note_off,,,,,96,0,3,,,,,2,,,68,0
225216,note_on,,,,,96,0,3,,,,,2,,,57,87
225216,note_on,,,,,0,0,2,,,,,1,,,66,96
225216,note_off,,,,,192,0,2,,,,,1,,,71,0
225216,note_on,,,,,96,0,1,,,,,0,,,88,103
225312,note_on,,,,,0,0,2,,,,,1,,,68,96
225312,note_off,,,,,96,0,3,,,,,2,,,57,0
225312,note_off,,,,,96,0,2,,,,,1,,,66,0
225312,note_on,,,,,0,0,3,,,,,2,,,59,87
225408,note_off,,,,,384,0,4,,,,,3,,,40,0
225408,note_off,,,,,96,0,3,,,,,2,,,59,0
225408,note_off,,,,,96,0,2,,,,,1,,,68,0
225408,note_on,,,,,0,0,3,,,,,2,,,61,87
225408,note_on,,,,,0,0,2,,,,,1,,,69,96
225600,note_off,,,,,192,0,3,,,,,2,,,61,0
225600,note_on,,,,,0,0,3,,,,,2,,,58,87
225600,note_on,,,,,0,0,2,,,,,1,,,66,96
225600,note_off,,,,,384,0,1,,,,,0,,,88,0
225600,note_on,,,,,0,0,1,,,,,0,,,76,103
225600,note_off,,,,,192,0,2,,,,,1,,,69,0
225696,note_off,,,,,96,0,2,,,,,1,,,66,0
225696,note_off,,,,,96,0,1,,,,,0,,,76,0
225696,note_off,,,,,96,0,3,,,,,2,,,58,0
225792,note_on,,,,,384,0,4,,,,,3,,,40,78
225792,note_on,,,,,96,0,2,,,,,1,,,68,96
225792,note_on,,,,,96,0,3,,,,,2,,,59,87
225792,note_on,,,,,96,0,1,,,,,0,,,76,103
225888,note_off,,,,,96,0,3,,,,,2,,,59,0
225888,note_off,,,,,96,0,4,,,,,3,,,40,0
225888,note_off,,,,,96,0,1,,,,,0,,,76,0
225888,note_on,,,,,0,0,3,,,,,2,,,64,87
225984,note_on,,,,,0,0,2,,,,,1,,,69,96
225984,note_off,,,,,192,0,2,,,,,1,,,68,0
225984,note_on,,,,,96,0,4,,,,,3,,,52,78
225984,note_off,,,,,96,0,3,,,,,2,,,64,0
225984,note_on,,,,,0,0,3,,,,,2,,,66,87
225984,note_on,,,,,96,0,1,,,,,0,,,88,103
226080,note_off,,,,,96,0,3,,,,,2,,,66,0
226080,note_on,,,,,0,0,3,,,,,2,,,68,87
226080,note_off,,,,,96,0,2,,,,,1,,,69,0
226080,note_on,,,,,0,0,2,,,,,1,,,71,96
226176,note_off,,,,,96,0,3,,,,,2,,,68,0
226176,note_on,,,,,0,0,3,,,,,2,,,69,87
226176,note_off,,,,,96,0,2,,,,,1,,,71,0
226176,note_on,,,,,0,0,2,,,,,1,,,73,96
226368,note_off,,,,,192,0,2,,,,,1,,,73,0
226368,note_on,,,,,0,0,2,,,,,1,,,70,96
226368,note_on,,,,,0,0,4,,,,,3,,,48,78
226368,note_on,,,,,0,0,1,,,,,0,,,76,103
226368,note_off,,,,,384,0,4,,,,,3,,,52,0
226368,note_on,,,,,0,0,3,,,,,2,,,67,87
226368,note_off,,,,,384,0,1,,,,,0,,,88,0
226368,note_off,,,,,192,0,3,,,,,2,,,69,0
226464,note_off,,,,,96,0,3,,,,,2,,,67,0
226464,note_off,,,,,96,0,2,,,,,1,,,70,0
226464,note_off,,,,,96,0,4,,,,,3,,,48,0
226464,note_off,,,,,96,0,1,,,,,0,,,76,0
226560,note_on,,,,,96,0,2,,,,,1,,,71,96
226560,note_on,,,,,96,0,4,,,,,3,,,47,78
226560,note_on,,,,,96,0,3,,,,,2,,,68,87
226560,note_on,,,,,96,0,1,,,,,0,,,76,103
226656,note_off,,,,,96,0,2,,,,,1,,,71,0
226656,note_off,,,,,96,0,4,,,,,3,,,47,0
226656,note_off,,,,,96,0,1,,,,,0,,,76,0
226752,note_on,,,,,96,0,1,,,,,0,,,80,103
226752,note_off,,,,,192,0,3,,,,,2,,,68,0
226848,note_on,,,,,0,0,1,,,,,0,,,81,103
226848,note_off,,,,,96,0,1,,,,,0,,,80,0
226944,note_on,,,,,0,0,1,,,,,0,,,83,103
226944,note_on,,,,,288,0,2,,,,,1,,,71,96
226944,note_on,,,,,192,0,3,,,,,2,,,71,87
226944,note_on,,,,,288,0,4,,,,,3,,,59,78
226944,note_off,,,,,96,0,1,,,,,0,,,81,0
227136,note_off,,,,,192,0,2,,,,,1,,,71,0
227136,note_off,,,,,192,0,3,,,,,2,,,71,0
227136,note_on,,,,,0,0,1,,,,,0,,,76,103
227136,note_off,,,,,192,0,1,,,,,0,,,83,0
227136,note_off,,,,,192,0,4,,,,,3,,,59,0
227232,note_on,,,,,0,0,1,,,,,0,,,78,103
227232,note_off,,,,,96,0,1,,,,,0,,,76,0
227328,note_on,,,,,0,0,1,,,,,0,,,80,103
227328,note_off,,,,,96,0,1,,,,,0,,,78,0
227328,note_on,,,,,192,0,3,,,,,2,,,68,87
227328,note_on,,,,,192,0,2,,,,,1,,,68,96
227328,note_on,,,,,192,0,4,,,,,3,,,56,78
227520,note_off,,,,,192,0,2,,,,,1,,,68,0
227520,note_off,,,,,192,0,4,,,,,3,,,56,0
227520,note_off,,,,,192,0,3,,,,,2,,,68,0
227520,note_on,,,,,0,0,1,,,,,0,,,73,103
227520,note_off,,,,,192,0,1,,,,,0,,,80,0
227616,note_on,,,,,0,0,1,,,,,0,,,75,103
227616,note_off,,,,,96,0,1,,,,,0,,,73,0
227712,note_on,,,,,0,0,1,,,,,0,,,76,103
227712,note_on,,,,,192,0,4,,,,,3,,,52,78
227712,note_on,,,,,192,0,3,,,,,2,,,64,87
227712,note_off,,,,,96,0,1,,,,,0,,,75,0
227712,note_on,,,,,192,0,2,,,,,1,,,64,96
227904,note_off,,,,,192,0,2,,,,,1,,,64,0
227904,note_off,,,,,192,0,1,,,,,0,,,76,0
227904,note_on,,,,,0,0,1,,,,,0,,,69,103
227904,note_off,,,,,192,0,3,,,,,2,,,64,0
227904,note_off,,,,,192,0,4,,,,,3,,,52,0
228000,note_off,,,,,96,0,1,,,,,0,,,69,0
228000,note_on,,,,,0,0,1,,,,,0,,,71,103
228096,note_off,,,,,96,0,1,,,,,0,,,71,0
228096,note_on,,,,,0,0,1,,,,,0,,,72,103
228096,note_on,,,,,192,0,2,,,,,1,,,60,96
228096,note_on,,,,,192,0,3,,,,,2,,,60,87
228096,note_on,,,,,192,0,4,,,,,3,,,48,78
228192,note_on,,,,,0,0,1,,,,,0,,,76,103
228192,note_off,,,,,96,0,1,,,,,0,,,72,0
228288,note_off,,,,,96,0,1,,,,,0,,,76,0
228288,note_on,,,,,0,0,1,,,,,0,,,74,103
228384,note_off,,,,,96,0,1,,,,,0,,,74,0
228384,note_on,,,,,0,0,1,,,,,0,,,77,103
228480,note_on,,,,,0,0,1,,,,,0,,,76,103
228480,note_off,,,,,96,0,1,,,,,0,,,77,0
228576,note_off,,,,,96,0,1,,,,,0,,,76,0
228576,note_on,,,,,0,0,1,,,,,0,,,79,103
228672,note_off,,,,,96,0,1,,,,,0,,,79,0
228672,note_on,,,,,0,0,1,,,,,0,,,78,103
228768,note_on,,,,,0,0,1,,,,,0,,,81,103
228768,note_off,,,,,96,0,1,,,,,0,,,78,0
228864,note_on,,,,,0,0,1,,,,,0,,,79,103
228864,note_off,,,,,96,0,1,,,,,0,,,81,0
228960,note_off,,,,,96,0,1,,,,,0,,,79,0
228960,note_on,,,,,0,0,1,,,,,0,,,84,103
229056,note_on,,,,,0,0,1,,,,,0,,,83,103
229056,note_off,,,,,96,0,1,,,,,0,,,84,0
229152,note_off,,,,,96,0,1,,,,,0,,,83,0
229152,note_on,,,,,0,0,1,,,,,0,,,86,103
229248,note_off,,,,,96,0,1,,,,,0,,,86,0
229248,note_on,,,,,0,0,1,,,,,0,,,84,103
229344,note_off,,,,,96,0,1,,,,,0,,,84,0
229344,note_on,,,,,0,0,1,,,,,0,,,88,103
229440,note_off,,,,,96,0,1,,,,,0,,,88,0
229440,note_on,,,,,0,0,1,,,,,0,,,86,103
229536,note_off,,,,,96,0,1,,,,,0,,,86,0
229536,note_on,,,,,0,0,1,,,,,0,,,89,103
229632,note_on,,,,,0,0,1,,,,,0,,,88,103
229632,note_off,,,,,96,0,1,,,,,0,,,89,0
229824,note_off,,,,,1728,0,4,,,,,3,,,48,0
229824,note_off,,,,,1728,0,2,,,,,1,,,60,0
229824,note_off,,,,,192,0,1,,,,,0,,,88,0
229824,note_off,,,,,1728,0,3,,,,,2,,,60,0
230016,note_on,,,,,192,0,4,,,,,3,,,58,78
230016,note_on,,,,,0,0,2,,,,,1,,,66,96
230016,note_on,,,,,192,0,2,,,,,1,,,61,96
230016,note_on,,,,,192,0,3,,,,,2,,,64,87
230016,note_on,,,,,192,0,1,,,,,0,,,78,103
230064,note_off,,,,,48,0,1,,,,,0,,,78,0
230064,note_on,,,,,0,0,1,,,,,0,,,80,103
230112,note_off,,,,,48,0,1,,,,,0,,,80,0
230112,note_on,,,,,0,0,1,,,,,0,,,78,103
230160,note_off,,,,,48,0,1,,,,,0,,,78,0
230160,note_on,,,,,0,0,1,,,,,0,,,80,103
230208,note_off,,,,,48,0,1,,,,,0,,,80,0
230208,note_on,,,,,0,0,1,,,,,0,,,78,103
230256,note_off,,,,,48,0,1,,,,,0,,,78,0
230256,note_on,,,,,0,0,1,,,,,0,,,80,103
230304,note_off,,,,,48,0,1,,,,,0,,,80,0
230304,note_on,,,,,0,0,1,,,,,0,,,76,103
230352,note_off,,,,,48,0,1,,,,,0,,,76,0
230352,note_on,,,,,0,0,1,,,,,0,,,78,103
230400,note_off,,,,,384,0,3,,,,,2,,,64,0
230400,note_on,,,,,0,0,1,,,,,0,,,83,103
230400,note_off,,,,,0,0,2,,,,,1,,,66,0
230400,note_on,,,,,0,0,4,,,,,3,,,59,78
230400,note_off,,,,,384,0,4,,,,,3,,,58,0
230400,note_on,,,,,0,0,3,,,,,2,,,64,87
230400,note_off,,,,,384,0,2,,,,,1,,,61,0
230400,note_off,,,,,48,0,1,,,,,0,,,78,0
230400,note_on,,,,,0,0,2,,,,,1,,,59,96
230400,note_on,,,,,0,0,2,,,,,1,,,68,96
230448,note_on,,,,,0,0,1,,,,,0,,,85,103
230448,note_off,,,,,48,0,1,,,,,0,,,83,0
230496,note_on,,,,,0,0,1,,,,,0,,,83,103
230496,note_off,,,,,48,0,1,,,,,0,,,85,0
230544,note_on,,,,,0,0,1,,,,,0,,,85,103
230544,note_off,,,,,48,0,1,,,,,0,,,83,0
230592,note_off,,,,,48,0,1,,,,,0,,,85,0
230592,note_on,,,,,0,0,1,,,,,0,,,83,103
230640,note_off,,,,,48,0,1,,,,,0,,,83,0
230640,note_on,,,,,0,0,1,,,,,0,,,85,103
230688,note_off,,,,,48,0,1,,,,,0,,,85,0
230688,note_on,,,,,0,0,1,,,,,0,,,81,103
230736,note_on,,,,,0,0,1,,,,,0,,,83,103
230736,note_off,,,,,48,0,1,,,,,0,,,81,0
230784,note_off,,,,,0,0,2,,,,,1,,,68,0
230784,note_off,,,,,384,0,3,,,,,2,,,64,0
230784,note_on,,,,,0,0,3,,,,,2,,,66,87
230784,note_off,,,,,384,0,4,,,,,3,,,59,0
230784,note_off,,,,,384,0,2,,,,,1,,,59,0
230784,note_on,,,,,0,0,4,,,,,3,,,47,78
230784,note_on,,,,,0,0,2,,,,,1,,,69,96
230784,note_off,,,,,48,0,1,,,,,0,,,83,0
230784,note_on,,,,,0,0,1,,,,,0,,,75,103
230784,note_on,,,,,0,0,2,,,,,1,,,59,96
230832,note_off,,,,,48,0,1,,,,,0,,,75,0
230832,note_on,,,,,0,0,1,,,,,0,,,76,103
230880,note_on,,,,,0,0,1,,,,,0,,,75,103
230880,note_off,,,,,48,0,1,,,,,0,,,76,0
230928,note_on,,,,,0,0,1,,,,,0,,,76,103
230928,note_off,,,,,48,0,1,,,,,0,,,75,0
230976,note_on,,,,,0,0,1,,,,,0,,,75,103
230976,note_off,,,,,48,0,1,,,,,0,,,76,0
231024,note_off,,,,,48,0,1,,,,,0,,,75,0
231024,note_on,,,,,0,0,1,,,,,0,,,76,103
231072,note_off,,,,,48,0,1,,,,,0,,,76,0
231072,note_on,,,,,0,0,1,,,,,0,,,73,103
231120,note_off,,,,,48,0,1,,,,,0,,,73,0
231120,note_on,,,,,0,0,1,,,,,0,,,75,103
231168,note_off,,,,,384,0,4,,,,,3,,,47,0
231168,note_on,,,,,0,0,2,,,,,1,,,64,96
231168,note_off,,,,,0,0,2,,,,,1,,,69,0
231168,note_off,,,,,384,0,2,,,,,1,,,59,0
231168,note_off,,,,,48,0,1,,,,,0,,,75,0
231168,note_on,,,,,0,0,3,,,,,2,,,64,87
231168,note_off,,,,,384,0,3,,,,,2,,,66,0
231168,note_on,,,,,0,0,1,,,,,0,,,76,103
231168,note_on,,,,,0,0,4,,,,,3,,,52,78
231264,note_on,,,,,0,0,3,,,,,2,,,68,87
231264,note_off,,,,,96,0,3,,,,,2,,,64,0
231264,note_on,,,,,0,0,4,,,,,3,,,52,78
231264,note_on,,,,,0,0,3,,,,,2,,,59,87
231264,note_off,,,,,96,0,4,,,,,3,,,52,0
231360,note_off,,,,,192,0,2,,,,,1,,,64,0
231360,note_on,,,,,0,0,2,,,,,1,,,66,96
231360,note_on,,,,,0,0,4,,,,,3,,,52,78
231360,note_off,,,,,96,0,4,,,,,3,,,52,0
231360,note_off,,,,,192,0,1,,,,,0,,,76,0
231360,note_on,,,,,0,0,1,,,,,0,,,78,103
231360,note_off,,,,,96,0,3,,,,,2,,,68,0
231360,note_off,,,,,0,0,3,,,,,2,,,59,0
231360,note_on,,,,,0,0,3,,,,,2,,,68,87
231360,note_on,,,,,0,0,3,,,,,2,,,59,87
231456,note_off,,,,,0,0,3,,,,,2,,,59,0
231456,note_off,,,,,96,0,4,,,,,3,,,52,0
231456,note_on,,,,,0,0,4,,,,,3,,,52,78
231456,note_off,,,,,96,0,1,,,,,0,,,78,0
231456,note_on,,,,,0,0,1,,,,,0,,,80,103
231456,note_off,,,,,96,0,3,,,,,2,,,68,0
231456,note_on,,,,,0,0,3,,,,,2,,,68,87
231456,note_off,,,,,96,0,2,,,,,1,,,66,0
231456,note_on,,,,,0,0,2,,,,,1,,,68,96
231456,note_on,,,,,0,0,3,,,,,2,,,59,87
231552,note_on,,,,,0,0,1,,,,,0,,,81,103
231552,note_on,,,,,0,0,2,,,,,1,,,69,96
231552,note_off,,,,,96,0,2,,,,,1,,,68,0
231552,note_off,,,,,96,0,3,,,,,2,,,68,0
231552,note_off,,,,,0,0,3,,,,,2,,,59,0
231552,note_on,,,,,0,0,3,,,,,2,,,59,87
231552,note_on,,,,,0,0,3,,,,,2,,,68,87
231552,note_off,,,,,96,0,1,,,,,0,,,80,0
231552,note_on,,,,,0,0,4,,,,,3,,,52,78
231552,note_off,,,,,96,0,4,,,,,3,,,52,0
231648,note_on,,,,,0,0,4,,,,,3,,,52,78
231648,note_off,,,,,96,0,4,,,,,3,,,52,0
231648,note_off,,,,,0,0,3,,,,,2,,,68,0
231648,note_on,,,,,0,0,3,,,,,2,,,68,87
231648,note_off,,,,,96,0,3,,,,,2,,,59,0
231648,note_on,,,,,0,0,3,,,,,2,,,59,87
231744,note_on,,,,,0,0,3,,,,,2,,,69,87
231744,note_off,,,,,96,0,4,,,,,3,,,52,0
231744,note_off,,,,,0,0,3,,,,,2,,,59,0
231744,note_on,,,,,0,0,3,,,,,2,,,59,87
231744,note_on,,,,,0,0,4,,,,,3,,,52,78
231744,note_on,,,,,0,0,2,,,,,1,,,66,96
231744,note_off,,,,,192,0,1,,,,,0,,,81,0
231744,note_on,,,,,0,0,1,,,,,0,,,78,103
231744,note_off,,,,,192,0,2,,,,,1,,,69,0
231744,note_off,,,,,96,0,3,,,,,2,,,68,0
231840,note_on,,,,,0,0,4,,,,,3,,,52,78
231840,note_off,,,,,0,0,3,,,,,2,,,69,0
231840,note_on,,,,,0,0,3,,,,,2,,,69,87
231840,note_off,,,,,96,0,2,,,,,1,,,66,0
231840,note_on,,,,,0,0,3,,,,,2,,,59,87
231840,note_off,,,,,96,0,3,,,,,2,,,59,0
231840,note_off,,,,,96,0,4,,,,,3,,,52,0
231840,note_off,,,,,96,0,1,,,,,0,,,78,0
231936,note_on,,,,,0,0,3,,,,,2,,,68,87
231936,note_off,,,,,96,0,3,,,,,2,,,69,0
231936,note_on,,,,,0,0,4,,,,,3,,,52,78
231936,note_off,,,,,96,0,4,,,,,3,,,52,0
231936,note_off,,,,,0,0,3,,,,,2,,,59,0
231936,note_on,,,,,0,0,3,,,,,2,,,59,87
231936,note_on,,,,,96,0,2,,,,,1,,,68,96
231936,note_on,,,,,96,0,1,,,,,0,,,80,103
232032,note_off,,,,,0,0,3,,,,,2,,,59,0
232032,note_on,,,,,0,0,3,,,,,2,,,68,87
232032,note_on,,,,,0,0,3,,,,,2,,,59,87
232032,note_off,,,,,96,0,4,,,,,3,,,52,0
232032,note_on,,,,,0,0,4,,,,,3,,,52,78
232032,note_off,,,,,96,0,3,,,,,2,,,68,0
232128,note_on,,,,,0,0,3,,,,,2,,,59,87
232128,note_on,,,,,0,0,3,,,,,2,,,68,87
232128,note_on,,,,,0,0,4,,,,,3,,,52,78
232128,note_off,,,,,96,0,3,,,,,2,,,68,0
232128,note_off,,,,,96,0,4,,,,,3,,,52,0
232128,note_off,,,,,192,0,2,,,,,1,,,68,0
232128,note_on,,,,,0,0,2,,,,,1,,,69,96
232128,note_on,,,,,0,0,1,,,,,0,,,81,103
232128,note_off,,,,,192,0,1,,,,,0,,,80,0
232128,note_off,,,,,0,0,3,,,,,2,,,59,0
232224,note_on,,,,,0,0,3,,,,,2,,,59,87
232224,note_off,,,,,0,0,3,,,,,2,,,68,0
232224,note_off,,,,,96,0,3,,,,,2,,,59,0
232224,note_off,,,,,96,0,2,,,,,1,,,69,0
232224,note_on,,,,,0,0,2,,,,,1,,,71,96
232224,note_on,,,,,0,0,1,,,,,0,,,83,103
232224,note_on,,,,,0,0,3,,,,,2,,,68,87
232224,note_off,,,,,96,0,1,,,,,0,,,81,0
232224,note_on,,,,,0,0,4,,,,,3,,,52,78
232224,note_off,,,,,96,0,4,,,,,3,,,52,0
232320,note_off,,,,,96,0,1,,,,,0,,,83,0
232320,note_on,,,,,0,0,1,,,,,0,,,85,103
232320,note_on,,,,,0,0,4,,,,,3,,,52,78
232320,note_on,,,,,0,0,3,,,,,2,,,59,87
232320,note_on,,,,,0,0,3,,,,,2,,,68,87
232320,note_off,,,,,96,0,4,,,,,3,,,52,0
232320,note_off,,,,,96,0,3,,,,,2,,,59,0
232320,note_off,,,,,0,0,3,,,,,2,,,68,0
232320,note_off,,,,,96,0,2,,,,,1,,,71,0
232320,note_on,,,,,0,0,2,,,,,1,,,73,96
232416,note_off,,,,,0,0,3,,,,,2,,,59,0
232416,note_off,,,,,96,0,4,,,,,3,,,52,0
232416,note_off,,,,,96,0,3,,,,,2,,,68,0
232416,note_on,,,,,0,0,4,,,,,3,,,52,78
232416,note_on,,,,,0,0,3,,,,,2,,,59,87
232416,note_on,,,,,0,0,3,,,,,2,,,68,87
232512,note_on,,,,,0,0,4,,,,,3,,,52,78
232512,note_off,,,,,96,0,4,,,,,3,,,52,0
232512,note_on,,,,,0,0,3,,,,,2,,,59,87
232512,note_on,,,,,0,0,3,,,,,2,,,67,87
232512,note_off,,,,,0,0,3,,,,,2,,,59,0
232512,note_off,,,,,96,0,3,,,,,2,,,68,0
232512,note_on,,,,,0,0,1,,,,,0,,,82,103
232512,note_off,,,,,192,0,1,,,,,0,,,85,0
232512,note_on,,,,,0,0,2,,,,,1,,,70,96
232512,note_off,,,,,192,0,2,,,,,1,,,73,0
232608,note_off,,,,,96,0,3,,,,,2,,,67,0
232608,note_off,,,,,0,0,3,,,,,2,,,59,0
232608,note_on,,,,,0,0,3,,,,,2,,,59,87
232608,note_on,,,,,0,0,3,,,,,2,,,67,87
232608,note_off,,,,,96,0,2,,,,,1,,,70,0
232608,note_off,,,,,96,0,1,,,,,0,,,82,0
232608,note_on,,,,,0,0,4,,,,,3,,,52,78
232608,note_off,,,,,96,0,4,,,,,3,,,52,0
232704,note_off,,,,,96,0,4,,,,,3,,,52,0
232704,note_on,,,,,96,0,1,,,,,0,,,83,103
232704,note_on,,,,,96,0,2,,,,,1,,,71,96
232704,note_on,,,,,0,0,3,,,,,2,,,59,87
232704,note_off,,,,,96,0,3,,,,,2,,,59,0
232704,note_on,,,,,0,0,3,,,,,2,,,68,87
232704,note_on,,,,,0,0,4,,,,,3,,,52,78
232704,note_off,,,,,0,0,3,,,,,2,,,67,0
232800,note_on,,,,,0,0,4,,,,,3,,,52,78
232800,note_off,,,,,96,0,4,,,,,3,,,52,0
232800,note_on,,,,,0,0,3,,,,,2,,,59,87
232800,note_off,,,,,96,0,3,,,,,2,,,59,0
232800,note_on,,,,,0,0,3,,,,,2,,,68,87
232800,note_off,,,,,0,0,3,,,,,2,,,68,0
232896,note_on,,,,,0,0,3,,,,,2,,,59,87
232896,note_off,,,,,192,0,2,,,,,1,,,71,0
232896,note_on,,,,,0,0,2,,,,,1,,,75,96
232896,note_on,,,,,0,0,3,,,,,2,,,68,87
232896,note_off,,,,,0,0,3,,,,,2,,,68,0
232896,note_off,,,,,96,0,4,,,,,3,,,52,0
232896,note_on,,,,,0,0,4,,,,,3,,,52,78
232896,note_on,,,,,0,0,1,,,,,0,,,87,103
232896,note_off,,,,,192,0,1,,,,,0,,,83,0
232896,note_off,,,,,96,0,3,,,,,2,,,59,0
232992,note_on,,,,,0,0,1,,,,,0,,,88,103
232992,note_off,,,,,96,0,1,,,,,0,,,87,0
232992,note_on,,,,,0,0,4,,,,,3,,,52,78
232992,note_off,,,,,0,0,3,,,,,2,,,59,0
232992,note_on,,,,,0,0,2,,,,,1,,,76,96
232992,note_off,,,,,96,0,2,,,,,1,,,75,0
232992,note_off,,,,,96,0,4,,,,,3,,,52,0
232992,note_on,,,,,0,0,3,,,,,2,,,59,87
232992,note_on,,,,,0,0,3,,,,,2,,,68,87
232992,note_off,,,,,96,0,3,,,,,2,,,68,0
233088,note_on,,,,,0,0,4,,,,,3,,,52,78
233088,note_off,,,,,96,0,4,,,,,3,,,52,0
233088,note_off,,,,,96,0,3,,,,,2,,,68,0
233088,note_on,,,,,0,0,1,,,,,0,,,90,103
233088,note_off,,,,,96,0,1,,,,,0,,,88,0
233088,note_off,,,,,0,0,3,,,,,2,,,59,0
233088,note_on,,,,,0,0,3,,,,,2,,,68,87
233088,note_on,,,,,0,0,3,,,,,2,,,59,87
233088,note_off,,,,,96,0,2,,,,,1,,,76,0
233088,note_on,,,,,0,0,2,,,,,1,,,78,96
233184,note_off,,,,,96,0,4,,,,,3,,,52,0
233184,note_on,,,,,0,0,3,,,,,2,,,59,87
233184,note_on,,,,,0,0,3,,,,,2,,,68,87
233184,note_off,,,,,96,0,3,,,,,2,,,68,0
233184,note_off,,,,,0,0,3,,,,,2,,,59,0
233184,note_on,,,,,0,0,4,,,,,3,,,52,78
233280,note_off,,,,,96,0,3,,,,,2,,,68,0
233280,note_off,,,,,0,0,3,,,,,2,,,59,0
233280,note_off,,,,,192,0,2,,,,,1,,,78,0
233280,note_on,,,,,0,0,4,,,,,3,,,52,78
233280,note_on,,,,,0,0,2,,,,,1,,,75,96
233280,note_off,,,,,192,0,1,,,,,0,,,90,0
233280,note_on,,,,,0,0,1,,,,,0,,,87,103
233280,note_on,,,,,0,0,3,,,,,2,,,59,87
233280,note_off,,,,,96,0,4,,,,,3,,,52,0
233280,note_on,,,,,0,0,3,,,,,2,,,69,87
233376,note_off,,,,,96,0,4,,,,,3,,,52,0
233376,note_on,,,,,0,0,4,,,,,3,,,52,78
233376,note_off,,,,,96,0,1,,,,,0,,,87,0
233376,note_off,,,,,96,0,3,,,,,2,,,69,0
233376,note_on,,,,,0,0,3,,,,,2,,,59,87
233376,note_on,,,,,0,0,3,,,,,2,,,69,87
233376,note_off,,,,,96,0,2,,,,,1,,,75,0
233376,note_off,,,,,0,0,3,,,,,2,,,59,0
233472,note_off,,,,,96,0,3,,,,,2,,,59,0
233472,note_off,,,,,0,0,3,,,,,2,,,69,0
233472,note_on,,,,,0,0,3,,,,,2,,,68,87
233472,note_on,,,,,0,0,3,,,,,2,,,59,87
233472,note_on,,,,,96,0,2,,,,,1,,,76,96
233472,note_on,,,,,96,0,1,,,,,0,,,88,103
233472,note_on,,,,,0,0,4,,,,,3,,,52,78
233472,note_off,,,,,96,0,4,,,,,3,,,52,0
233568,note_on,,,,,0,0,3,,,,,2,,,59,87
233568,note_off,,,,,96,0,4,,,,,3,,,52,0
233568,note_on,,,,,0,0,4,,,,,3,,,52,78
233568,note_off,,,,,96,0,3,,,,,2,,,68,0
233568,note_off,,,,,0,0,3,,,,,2,,,59,0
233568,note_on,,,,,0,0,3,,,,,2,,,68,87
233664,note_off,,,,,192,0,1,,,,,0,,,88,0
233664,note_on,,,,,0,0,1,,,,,0,,,87,103
233664,note_on,,,,,0,0,4,,,,,3,,,52,78
233664,note_off,,,,,96,0,4,,,,,3,,,52,0
233664,note_off,,,,,0,0,3,,,,,2,,,59,0
233664,note_on,,,,,0,0,2,,,,,1,,,75,96
233664,note_off,,,,,192,0,2,,,,,1,,,76,0
233664,note_on,,,,,0,0,3,,,,,2,,,68,87
233664,note_on,,,,,0,0,3,,,,,2,,,59,87
233664,note_off,,,,,96,0,3,,,,,2,,,68,0
233760,note_off,,,,,96,0,4,,,,,3,,,52,0
233760,note_on,,,,,0,0,4,,,,,3,,,52,78
233760,note_off,,,,,96,0,3,,,,,2,,,68,0
233760,note_on,,,,,0,0,3,,,,,2,,,68,87
233760,note_on,,,,,0,0,3,,,,,2,,,59,87
233760,note_off,,,,,0,0,3,,,,,2,,,59,0
233760,note_on,,,,,0,0,1,,,,,0,,,88,103
233760,note_off,,,,,96,0,1,,,,,0,,,87,0
233760,note_off,,,,,96,0,2,,,,,1,,,75,0
233760,note_on,,,,,0,0,2,,,,,1,,,76,96
233856,note_on,,,,,0,0,4,,,,,3,,,52,78
233856,note_off,,,,,0,0,3,,,,,2,,,59,0
233856,note_off,,,,,96,0,3,,,,,2,,,68,0
233856,note_on,,,,,0,0,1,,,,,0,,,90,103
233856,note_off,,,,,96,0,1,,,,,0,,,88,0
233856,note_off,,,,,96,0,4,,,,,3,,,52,0
233856,note_on,,,,,0,0,3,,,,,2,,,59,87
233856,note_on,,,,,0,0,3,,,,,2,,,68,87
233856,note_on,,,,,0,0,2,,,,,1,,,78,96
233856,note_off,,,,,96,0,2,,,,,1,,,76,0
233952,note_off,,,,,0,0,3,,,,,2,,,68,0
233952,note_on,,,,,0,0,3,,,,,2,,,59,87
233952,note_on,,,,,0,0,3,,,,,2,,,68,87
233952,note_off,,,,,96,0,3,,,,,2,,,59,0
233952,note_off,,,,,96,0,4,,,,,3,,,52,0
233952,note_on,,,,,0,0,4,,,,,3,,,52,78
234048,note_on,,,,,0,0,3,,,,,2,,,59,87
234048,note_off,,,,,0,0,3,,,,,2,,,68,0
234048,note_on,,,,,0,0,1,,,,,0,,,87,103
234048,note_off,,,,,96,0,3,,,,,2,,,59,0
234048,note_on,,,,,0,0,3,,,,,2,,,69,87
234048,note_off,,,,,192,0,2,,,,,1,,,78,0
234048,note_on,,,,,0,0,2,,,,,1,,,75,96
234048,note_off,,,,,96,0,4,,,,,3,,,52,0
234048,note_on,,,,,0,0,4,,,,,3,,,52,78
234048,note_off,,,,,192,0,1,,,,,0,,,90,0
234144,note_off,,,,,96,0,1,,,,,0,,,87,0
234144,note_off,,,,,96,0,4,,,,,3,,,52,0
234144,note_on,,,,,0,0,4,,,,,3,,,52,78
234144,note_on,,,,,0,0,3,,,,,2,,,59,87
234144,note_on,,,,,0,0,3,,,,,2,,,69,87
234144,note_off,,,,,96,0,2,,,,,1,,,75,0
234144,note_off,,,,,0,0,3,,,,,2,,,69,0
234144,note_off,,,,,96,0,3,,,,,2,,,59,0
234240,note_on,,,,,0,0,4,,,,,3,,,52,78
234240,note_off,,,,,96,0,3,,,,,2,,,59,0
234240,note_off,,,,,0,0,3,,,,,2,,,69,0
234240,note_on,,,,,0,0,3,,,,,2,,,68,87
234240,note_on,,,,,0,0,3,,,,,2,,,59,87
234240,note_on,,,,,96,0,2,,,,,1,,,76,96
234240,note_off,,,,,96,0,4,,,,,3,,,52,0
234240,note_on,,,,,96,0,1,,,,,0,,,88,103
234336,note_off,,,,,96,0,2,,,,,1,,,76,0
234336,note_off,,,,,96,0,4,,,,,3,,,52,0
234336,note_off,,,,,0,0,3,,,,,2,,,59,0
234336,note_off,,,,,96,0,3,,,,,2,,,68,0
234336,note_off,,,,,96,0,1,,,,,0,,,88,0
234624,note_on,,,,,0,0,3,,,,,2,,,59,87
234624,note_on,,,,,288,0,1,,,,,0,,,64,103
234624,note_on,,,,,288,0,4,,,,,3,,,40,78
234624,note_on,,,,,0,0,1,,,,,0,,,76,103
234624,note_on,,,,,288,0,3,,,,,2,,,52,87
234624,note_on,,,,,288,0,2,,,,,1,,,68,96
234624,note_on,,,,,0,0,2,,,,,1,,,59,96
234624,note_on,,,,,0,0,3,,,,,2,,,64,87
235008,note_off,,,,,384,0,4,,,,,3,,,40,0
235008,end_of_track,,,,,0,1,4,,,,,,,,,
235008,note_off,,,,,384,0,3,,,,,2,,,52,0
235008,note_off,,,,,0,0,3,,,,,2,,,59,0
235008,note_off,,,,,0,0,2,,,,,1,,,59,0
235008,end_of_track,,,,,0,1,3,,,,,,,,,
235008,note_off,,,,,384,0,1,,,,,0,,,64,0
235008,note_off,,,,,0,0,1,,,,,0,,,76,0
235008,end_of_track,,,,,0,1,1,,,,,,,,,
235008,note_off,,,,,384,0,2,,,,,1,,,68,0
235008,end_of_track,,,,,0,1,2,,,,,,,,,
235008,note_off,,,,,0,0,3,,,,,2,,,64,0
