tick,type,numerator,denominator,clocks_per_click,notated_32nd_notes_per_beat,time,meta,track,data,tempo,control,value,channel,program,key,note,velocity
0,time_signature,3,4,96,8,0,1,0,,,,,,,,,
0,control_change,,,,,0,0,2,,,10,55,1,,,,
0,control_change,,,,,0,0,2,,,7,127,1,,,,
0,program_change,,,,,0,0,2,,,,,1,40,,,
0,key_signature,,,,,0,1,2,,,,,,,C,,
0,key_signature,,,,,0,1,6,,,,,,,C,,
0,track_name,,,,,0,1,3,,,,,,,,,
0,control_change,,,,,0,0,3,,,0,0,2,,,,
0,control_change,,,,,0,0,3,,,10,73,2,,,,
0,control_change,,,,,0,0,3,,,7,127,2,,,,
0,program_change,,,,,0,0,3,,,,,2,41,,,
0,key_signature,,,,,0,1,3,,,,,,,C,,
0,track_name,,,,,0,1,4,,,,,,,,,
0,control_change,,,,,0,0,4,,,0,0,3,,,,
0,control_change,,,,,0,0,4,,,10,94,3,,,,
0,control_change,,,,,0,0,4,,,7,127,3,,,,
0,program_change,,,,,0,0,4,,,,,3,42,,,
0,key_signature,,,,,0,1,4,,,,,,,C,,
0,key_signature,,,,,0,1,5,,,,,,,C,,
0,end_of_track,,,,,0,1,5,,,,,,,,,
0,control_change,,,,,0,0,2,,,0,0,1,,,,
0,track_name,,,,,0,1,2,,,,,,,,,
0,end_of_track,,,,,0,1,6,,,,,,,,,
0,program_change,,,,,0,0,1,,,,,0,40,,,
0,control_change,,,,,0,0,1,,,7,127,0,,,,
0,set_tempo,,,,,0,1,0,,405405,,,,,,,
0,key_signature,,,,,0,1,1,,,,,,,C,,
0,sequencer_specific,,,,,0,1,0,"(0, 0, 65)",,,,,,,,
0,control_change,,,,,0,0,1,,,10,47,0,,,,
0,end_of_track,,,,,0,1,0,,,,,,,,,
0,control_change,,,,,0,0,1,,,0,0,0,,,,
0,track_name,,,,,0,1,1,,,,,,,,,
768,note_on,,,,,768,0,4,,,,,3,,,40,84
768,note_on,,,,,768,0,2,,,,,1,,,64,93
768,note_on,,,,,768,0,3,,,,,2,,,52,90
768,note_on,,,,,768,0,1,,,,,0,,,64,106
896,note_on,,,,,0,0,4,,,,,3,,,44,84
896,note_off,,,,,128,0,4,,,,,3,,,40,0
896,note_off,,,,,128,0,2,,,,,1,,,64,0
896,note_on,,,,,0,0,2,,,,,1,,,68,93
896,note_on,,,,,0,0,1,,,,,0,,,68,106
896,note_off,,,,,128,0,1,,,,,0,,,64,0
896,note_on,,,,,0,0,3,,,,,2,,,56,90
896,note_off,,,,,128,0,3,,,,,2,,,52,0
1024,note_off,,,,,128,0,2,,,,,1,,,68,0
1024,note_on,,,,,0,0,2,,,,,1,,,71,93
1024,note_on,,,,,0,0,1,,,,,0,,,71,106
1024,note_off,,,,,128,0,4,,,,,3,,,44,0
1024,note_on,,,,,0,0,4,,,,,3,,,47,84
1024,note_off,,,,,128,0,1,,,,,0,,,68,0
1024,note_off,,,,,128,0,3,,,,,2,,,56,0
1024,note_on,,,,,0,0,3,,,,,2,,,59,90
1152,note_off,,,,,128,0,4,,,,,3,,,47,0
1152,note_off,,,,,128,0,3,,,,,2,,,59,0
1152,note_on,,,,,0,0,3,,,,,2,,,64,90
1152,note_on,,,,,0,0,1,,,,,0,,,76,106
1152,note_off,,,,,128,0,1,,,,,0,,,71,0
1152,note_off,,,,,128,0,2,,,,,1,,,71,0
1152,note_on,,,,,0,0,2,,,,,1,,,76,93
1152,note_on,,,,,0,0,4,,,,,3,,,52,84
1344,note_off,,,,,192,0,1,,,,,0,,,76,0
1344,note_off,,,,,192,0,2,,,,,1,,,76,0
1344,note_off,,,,,192,0,4,,,,,3,,,52,0
1344,note_off,,,,,192,0,3,,,,,2,,,64,0
1536,note_on,,,,,192,0,2,,,,,1,,,81,93
1536,note_on,,,,,192,0,3,,,,,2,,,75,90
1536,note_on,,,,,192,0,1,,,,,0,,,85,106
1632,note_off,,,,,96,0,2,,,,,1,,,81,0
1632,note_off,,,,,96,0,3,,,,,2,,,75,0
1632,note_off,,,,,96,0,1,,,,,0,,,85,0
1728,note_on,,,,,96,0,2,,,,,1,,,80,93
1728,note_on,,,,,96,0,1,,,,,0,,,83,106
1728,note_on,,,,,96,0,3,,,,,2,,,76,90
1824,note_off,,,,,96,0,1,,,,,0,,,83,0
1824,note_off,,,,,96,0,3,,,,,2,,,76,0
1824,note_off,,,,,96,0,2,,,,,1,,,80,0
1920,note_on,,,,,96,0,3,,,,,2,,,75,90
1920,note_on,,,,,96,0,2,,,,,1,,,81,93
1920,note_on,,,,,96,0,1,,,,,0,,,85,106
2016,note_off,,,,,96,0,2,,,,,1,,,81,0
2016,note_off,,,,,96,0,3,,,,,2,,,75,0
2016,note_off,,,,,96,0,1,,,,,0,,,85,0
2112,note_on,,,,,96,0,1,,,,,0,,,83,106
2112,note_on,,,,,96,0,2,,,,,1,,,80,93
2112,note_on,,,,,96,0,3,,,,,2,,,76,90
2208,note_off,,,,,96,0,2,,,,,1,,,80,0
2208,note_off,,,,,96,0,3,,,,,2,,,76,0
2208,note_off,,,,,96,0,1,,,,,0,,,83,0
2304,note_on,,,,,96,0,1,,,,,0,,,88,106
2304,note_on,,,,,96,0,2,,,,,1,,,68,93
2304,note_on,,,,,96,0,3,,,,,2,,,64,90
2688,note_on,,,,,0,0,3,,,,,2,,,68,90
2688,note_off,,,,,384,0,1,,,,,0,,,88,0
2688,note_off,,,,,384,0,2,,,,,1,,,68,0
2688,note_on,,,,,0,0,2,,,,,1,,,71,93
2688,note_on,,,,,0,0,1,,,,,0,,,83,106
2688,note_off,,,,,384,0,3,,,,,2,,,64,0
3072,note_off,,,,,384,0,2,,,,,1,,,71,0
3072,note_on,,,,,0,0,2,,,,,1,,,76,93
3072,note_on,,,,,0,0,1,,,,,0,,,81,106
3072,note_off,,,,,384,0,3,,,,,2,,,68,0
3072,note_on,,,,,0,0,3,,,,,2,,,73,90
3072,note_off,,,,,384,0,1,,,,,0,,,83,0
3168,note_off,,,,,96,0,1,,,,,0,,,81,0
3168,note_off,,,,,96,0,3,,,,,2,,,73,0
3168,note_off,,,,,96,0,2,,,,,1,,,76,0
3264,note_on,,,,,96,0,2,,,,,1,,,75,93
3264,note_on,,,,,96,0,3,,,,,2,,,71,90
3264,note_on,,,,,96,0,1,,,,,0,,,80,106
3360,note_off,,,,,96,0,2,,,,,1,,,75,0
3360,note_off,,,,,96,0,3,,,,,2,,,71,0
3360,note_off,,,,,96,0,1,,,,,0,,,80,0
3456,note_on,,,,,96,0,2,,,,,1,,,73,93
3456,note_on,,,,,96,0,1,,,,,0,,,78,106
3456,note_on,,,,,96,0,3,,,,,2,,,69,90
3552,note_off,,,,,96,0,3,,,,,2,,,69,0
3552,note_off,,,,,96,0,2,,,,,1,,,73,0
3552,note_off,,,,,96,0,1,,,,,0,,,78,0
3648,note_on,,,,,96,0,2,,,,,1,,,71,93
3648,note_on,,,,,96,0,1,,,,,0,,,76,106
3648,note_on,,,,,96,0,3,,,,,2,,,68,90
3744,note_off,,,,,96,0,2,,,,,1,,,71,0
3744,note_off,,,,,96,0,3,,,,,2,,,68,0
3744,note_off,,,,,96,0,1,,,,,0,,,76,0
3840,note_on,,,,,96,0,3,,,,,2,,,66,90
3840,note_on,,,,,96,0,2,,,,,1,,,69,93
3840,note_on,,,,,96,0,1,,,,,0,,,75,106
3936,note_off,,,,,96,0,2,,,,,1,,,69,0
3936,note_off,,,,,96,0,1,,,,,0,,,75,0
3936,note_off,,,,,96,0,3,,,,,2,,,66,0
4032,note_on,,,,,96,0,2,,,,,1,,,68,93
4032,note_on,,,,,96,0,1,,,,,0,,,73,106
4032,note_on,,,,,96,0,3,,,,,2,,,64,90
4032,note_on,,,,,2688,0,4,,,,,3,,,52,84
4128,note_off,,,,,96,0,2,,,,,1,,,68,0
4128,note_off,,,,,96,0,1,,,,,0,,,73,0
4128,note_off,,,,,96,0,4,,,,,3,,,52,0
4128,note_off,,,,,96,0,3,,,,,2,,,64,0
4224,note_on,,,,,96,0,1,,,,,0,,,71,106
4224,note_on,,,,,96,0,2,,,,,1,,,66,93
4224,note_on,,,,,96,0,3,,,,,2,,,63,90
4224,note_on,,,,,96,0,4,,,,,3,,,54,84
4320,note_off,,,,,96,0,4,,,,,3,,,54,0
4320,note_off,,,,,96,0,3,,,,,2,,,63,0
4320,note_off,,,,,96,0,1,,,,,0,,,71,0
4320,note_off,,,,,96,0,2,,,,,1,,,66,0
4416,note_on,,,,,96,0,1,,,,,0,,,69,106
4416,note_on,,,,,96,0,4,,,,,3,,,55,84
4416,note_on,,,,,96,0,3,,,,,2,,,61,90
4416,note_on,,,,,96,0,2,,,,,1,,,64,93
4512,note_off,,,,,96,0,4,,,,,3,,,55,0
4512,note_off,,,,,96,0,3,,,,,2,,,61,0
4512,note_off,,,,,96,0,2,,,,,1,,,64,0
4512,note_off,,,,,96,0,1,,,,,0,,,69,0
4608,note_on,,,,,96,0,4,,,,,3,,,56,84
4608,note_on,,,,,96,0,3,,,,,2,,,60,90
4608,note_on,,,,,96,0,2,,,,,1,,,63,93
4608,note_on,,,,,96,0,1,,,,,0,,,68,106
4800,note_off,,,,,192,0,2,,,,,1,,,63,0
4800,note_off,,,,,192,0,1,,,,,0,,,68,0
4800,note_off,,,,,192,0,3,,,,,2,,,60,0
4800,note_off,,,,,192,0,4,,,,,3,,,56,0
4992,note_on,,,,,192,0,2,,,,,1,,,63,93
4992,note_on,,,,,192,0,3,,,,,2,,,60,90
4992,note_on,,,,,192,0,4,,,,,3,,,56,84
4992,note_on,,,,,192,0,1,,,,,0,,,68,106
5184,note_off,,,,,192,0,4,,,,,3,,,56,0
5184,note_off,,,,,192,0,2,,,,,1,,,63,0
5184,note_off,,,,,192,0,3,,,,,2,,,60,0
5184,note_off,,,,,192,0,1,,,,,0,,,68,0
5376,note_on,,,,,192,0,2,,,,,1,,,61,93
5376,note_on,,,,,192,0,4,,,,,3,,,37,84
5376,note_on,,,,,192,0,1,,,,,0,,,61,106
5376,note_on,,,,,192,0,3,,,,,2,,,49,90
5504,note_on,,,,,0,0,1,,,,,0,,,64,106
5504,note_on,,,,,0,0,2,,,,,1,,,64,93
5504,note_off,,,,,128,0,2,,,,,1,,,61,0
5504,note_off,,,,,128,0,3,,,,,2,,,49,0
5504,note_on,,,,,0,0,3,,,,,2,,,52,90
5504,note_off,,,,,128,0,1,,,,,0,,,61,0
5504,note_off,,,,,128,0,4,,,,,3,,,37,0
5504,note_on,,,,,0,0,4,,,,,3,,,40,84
5632,note_off,,,,,128,0,2,,,,,1,,,64,0
5632,note_off,,,,,128,0,4,,,,,3,,,40,0
5632,note_on,,,,,0,0,3,,,,,2,,,56,90
5632,note_off,,,,,128,0,3,,,,,2,,,52,0
5632,note_on,,,,,0,0,1,,,,,0,,,68,106
5632,note_off,,,,,128,0,1,,,,,0,,,64,0
5632,note_on,,,,,0,0,4,,,,,3,,,44,84
5632,note_on,,,,,0,0,2,,,,,1,,,68,93
5760,note_off,,,,,128,0,3,,,,,2,,,56,0
5760,note_on,,,,,0,0,3,,,,,2,,,61,90
5760,note_on,,,,,0,0,2,,,,,1,,,73,93
5760,note_on,,,,,0,0,1,,,,,0,,,73,106
5760,note_off,,,,,128,0,2,,,,,1,,,68,0
5760,note_on,,,,,0,0,4,,,,,3,,,49,84
5760,note_off,,,,,128,0,1,,,,,0,,,68,0
5760,note_off,,,,,128,0,4,,,,,3,,,44,0
5952,note_off,,,,,192,0,2,,,,,1,,,73,0
5952,note_off,,,,,192,0,1,,,,,0,,,73,0
5952,note_off,,,,,192,0,4,,,,,3,,,49,0
5952,note_off,,,,,192,0,3,,,,,2,,,61,0
6144,note_on,,,,,192,0,3,,,,,2,,,72,90
6144,note_on,,,,,192,0,2,,,,,1,,,78,93
6144,note_on,,,,,192,0,1,,,,,0,,,81,106
6240,note_off,,,,,96,0,1,,,,,0,,,81,0
6240,note_off,,,,,96,0,3,,,,,2,,,72,0
6240,note_off,,,,,96,0,2,,,,,1,,,78,0
6336,note_on,,,,,96,0,2,,,,,1,,,76,93
6336,note_on,,,,,96,0,3,,,,,2,,,73,90
6336,note_on,,,,,96,0,1,,,,,0,,,80,106
6432,note_off,,,,,96,0,2,,,,,1,,,76,0
6432,note_off,,,,,96,0,1,,,,,0,,,80,0
6432,note_off,,,,,96,0,3,,,,,2,,,73,0
6528,note_on,,,,,96,0,3,,,,,2,,,72,90
6528,note_on,,,,,96,0,1,,,,,0,,,81,106
6528,note_on,,,,,96,0,2,,,,,1,,,78,93
6624,note_off,,,,,96,0,3,,,,,2,,,72,0
6624,note_off,,,,,96,0,2,,,,,1,,,78,0
6624,note_off,,,,,96,0,1,,,,,0,,,81,0
6720,note_on,,,,,96,0,2,,,,,1,,,76,93
6720,note_on,,,,,96,0,1,,,,,0,,,80,106
6720,note_on,,,,,96,0,3,,,,,2,,,73,90
6816,note_off,,,,,96,0,2,,,,,1,,,76,0
6816,note_off,,,,,96,0,1,,,,,0,,,80,0
6816,note_off,,,,,96,0,3,,,,,2,,,73,0
6912,note_on,,,,,96,0,2,,,,,1,,,64,93
6912,note_on,,,,,96,0,1,,,,,0,,,85,106
6912,note_on,,,,,96,0,3,,,,,2,,,61,90
7296,note_off,,,,,384,0,1,,,,,0,,,85,0
7296,note_on,,,,,0,0,1,,,,,0,,,80,106
7296,note_on,,,,,0,0,2,,,,,1,,,68,93
7296,note_off,,,,,384,0,2,,,,,1,,,64,0
7296,note_off,,,,,384,0,3,,,,,2,,,61,0
7296,note_on,,,,,0,0,3,,,,,2,,,64,90
7680,note_on,,,,,0,0,3,,,,,2,,,76,90
7680,note_on,,,,,0,0,2,,,,,1,,,80,93
7680,note_off,,,,,384,0,2,,,,,1,,,68,0
7680,note_off,,,,,384,0,1,,,,,0,,,80,0
7680,note_off,,,,,384,0,3,,,,,2,,,64,0
7680,note_on,,,,,0,0,1,,,,,0,,,85,106
7776,note_off,,,,,96,0,2,,,,,1,,,80,0
7776,note_off,,,,,96,0,1,,,,,0,,,85,0
7776,note_off,,,,,96,0,3,,,,,2,,,76,0
7872,note_on,,,,,96,0,3,,,,,2,,,75,90
7872,note_on,,,,,96,0,2,,,,,1,,,78,93
7872,note_on,,,,,96,0,1,,,,,0,,,83,106
7968,note_off,,,,,96,0,3,,,,,2,,,75,0
7968,note_off,,,,,96,0,1,,,,,0,,,83,0
7968,note_off,,,,,96,0,2,,,,,1,,,78,0
8064,note_on,,,,,96,0,1,,,,,0,,,82,106
8064,note_on,,,,,96,0,2,,,,,1,,,76,93
8064,note_on,,,,,96,0,3,,,,,2,,,73,90
8160,note_off,,,,,96,0,1,,,,,0,,,82,0
8160,note_off,,,,,96,0,2,,,,,1,,,76,0
8160,note_off,,,,,96,0,3,,,,,2,,,73,0
8256,note_on,,,,,96,0,1,,,,,0,,,80,106
8256,note_on,,,,,96,0,3,,,,,2,,,71,90
8256,note_on,,,,,96,0,2,,,,,1,,,75,93
8352,note_off,,,,,96,0,1,,,,,0,,,80,0
8352,note_off,,,,,96,0,3,,,,,2,,,71,0
8352,note_off,,,,,96,0,2,,,,,1,,,75,0
8448,note_on,,,,,96,0,2,,,,,1,,,73,93
8448,note_on,,,,,96,0,3,,,,,2,,,70,90
8448,note_on,,,,,96,0,1,,,,,0,,,78,106
8544,note_off,,,,,96,0,1,,,,,0,,,78,0
8544,note_off,,,,,96,0,3,,,,,2,,,70,0
8544,note_off,,,,,96,0,2,,,,,1,,,73,0
8640,note_on,,,,,2688,0,4,,,,,3,,,52,84
8640,note_on,,,,,96,0,3,,,,,2,,,68,90
8640,note_on,,,,,96,0,2,,,,,1,,,71,93
8640,note_on,,,,,96,0,1,,,,,0,,,76,106
8736,note_off,,,,,96,0,1,,,,,0,,,76,0
8736,note_off,,,,,96,0,3,,,,,2,,,68,0
8736,note_off,,,,,96,0,2,,,,,1,,,71,0
8736,note_off,,,,,96,0,4,,,,,3,,,52,0
8832,note_on,,,,,96,0,4,,,,,3,,,54,84
8832,note_on,,,,,96,0,3,,,,,2,,,66,90
8832,note_on,,,,,96,0,2,,,,,1,,,70,93
8832,note_on,,,,,96,0,1,,,,,0,,,75,106
8928,note_off,,,,,96,0,4,,,,,3,,,54,0
8928,note_off,,,,,96,0,2,,,,,1,,,70,0
8928,note_off,,,,,96,0,1,,,,,0,,,75,0
8928,note_off,,,,,96,0,3,,,,,2,,,66,0
9024,note_on,,,,,96,0,1,,,,,0,,,73,106
9024,note_on,,,,,96,0,2,,,,,1,,,69,93
9024,note_on,,,,,96,0,3,,,,,2,,,64,90
9024,note_on,,,,,96,0,4,,,,,3,,,54,84
9120,note_off,,,,,96,0,3,,,,,2,,,64,0
9120,note_off,,,,,96,0,2,,,,,1,,,69,0
9120,note_off,,,,,96,0,1,,,,,0,,,73,0
9120,note_off,,,,,96,0,4,,,,,3,,,54,0
9216,note_on,,,,,96,0,1,,,,,0,,,71,106
9216,note_on,,,,,96,0,2,,,,,1,,,71,93
9216,note_on,,,,,96,0,3,,,,,2,,,63,90
9216,note_on,,,,,96,0,4,,,,,3,,,47,84
9344,note_on,,,,,0,0,4,,,,,3,,,51,84
9344,note_off,,,,,128,0,4,,,,,3,,,47,0
9408,note_on,,,,,0,0,2,,,,,1,,,66,93
9408,note_off,,,,,192,0,2,,,,,1,,,71,0
9472,note_off,,,,,128,0,4,,,,,3,,,51,0
9472,note_on,,,,,0,0,4,,,,,3,,,54,84
9600,note_off,,,,,128,0,4,,,,,3,,,54,0
9600,note_on,,,,,0,0,4,,,,,3,,,59,84
9600,note_on,,,,,0,0,1,,,,,0,,,71,106
9600,note_on,,,,,0,0,3,,,,,2,,,71,90
9600,note_on,,,,,0,0,2,,,,,1,,,63,93
9600,note_off,,,,,192,0,2,,,,,1,,,66,0
9600,note_off,,,,,384,0,1,,,,,0,,,71,0
9600,note_off,,,,,384,0,3,,,,,2,,,63,0
9728,note_on,,,,,0,0,3,,,,,2,,,66,90
9728,note_off,,,,,128,0,3,,,,,2,,,71,0
9792,note_off,,,,,192,0,4,,,,,3,,,59,0
9792,note_on,,,,,0,0,2,,,,,1,,,66,93
9792,note_off,,,,,192,0,2,,,,,1,,,63,0
9856,note_off,,,,,128,0,3,,,,,2,,,66,0
9856,note_on,,,,,0,0,3,,,,,2,,,63,90
9984,note_on,,,,,0,0,1,,,,,0,,,78,106
9984,note_on,,,,,0,0,2,,,,,1,,,64,93
9984,note_off,,,,,192,0,2,,,,,1,,,66,0
9984,note_on,,,,,0,0,3,,,,,2,,,66,90
9984,note_off,,,,,128,0,3,,,,,2,,,63,0
9984,note_on,,,,,192,0,4,,,,,3,,,54,84
9984,note_off,,,,,384,0,1,,,,,0,,,71,0
10112,note_on,,,,,0,0,1,,,,,0,,,76,106
10112,note_off,,,,,128,0,1,,,,,0,,,78,0
10176,note_on,,,,,0,0,2,,,,,1,,,66,93
10176,note_off,,,,,192,0,2,,,,,1,,,64,0
10176,note_off,,,,,192,0,4,,,,,3,,,54,0
10176,note_off,,,,,192,0,3,,,,,2,,,66,0
10240,note_off,,,,,128,0,1,,,,,0,,,76,0
10240,note_on,,,,,0,0,1,,,,,0,,,73,106
10368,note_on,,,,,192,0,4,,,,,3,,,47,84
10368,note_on,,,,,0,0,1,,,,,0,,,71,106
10368,note_off,,,,,128,0,1,,,,,0,,,73,0
10368,note_on,,,,,192,0,3,,,,,2,,,59,90
10368,note_off,,,,,192,0,2,,,,,1,,,66,0
10368,note_on,,,,,0,0,2,,,,,1,,,63,93
10496,note_on,,,,,0,0,4,,,,,3,,,51,84
10496,note_off,,,,,128,0,4,,,,,3,,,47,0
10560,note_off,,,,,192,0,2,,,,,1,,,63,0
10560,note_on,,,,,0,0,2,,,,,1,,,66,93
10560,note_off,,,,,192,0,3,,,,,2,,,59,0
10624,note_on,,,,,0,0,4,,,,,3,,,54,84
10624,note_off,,,,,128,0,4,,,,,3,,,51,0
10752,note_on,,,,,192,0,3,,,,,2,,,71,90
10752,note_on,,,,,0,0,1,,,,,0,,,71,106
10752,note_on,,,,,0,0,4,,,,,3,,,59,84
10752,note_off,,,,,128,0,4,,,,,3,,,54,0
10752,note_on,,,,,0,0,2,,,,,1,,,63,93
10752,note_off,,,,,192,0,2,,,,,1,,,66,0
10752,note_off,,,,,384,0,1,,,,,0,,,71,0
10880,note_on,,,,,0,0,3,,,,,2,,,66,90
10880,note_off,,,,,128,0,3,,,,,2,,,71,0
10944,note_on,,,,,0,0,2,,,,,1,,,66,93
10944,note_off,,,,,192,0,2,,,,,1,,,63,0
10944,note_off,,,,,192,0,4,,,,,3,,,59,0
11008,note_off,,,,,128,0,3,,,,,2,,,66,0
11008,note_on,,,,,0,0,3,,,,,2,,,63,90
11136,note_off,,,,,384,0,1,,,,,0,,,71,0
11136,note_on,,,,,0,0,3,,,,,2,,,66,90
11136,note_off,,,,,128,0,3,,,,,2,,,63,0
11136,note_off,,,,,192,0,2,,,,,1,,,66,0
11136,note_on,,,,,192,0,4,,,,,3,,,54,84
11136,note_on,,,,,0,0,2,,,,,1,,,64,93
11136,note_on,,,,,0,0,1,,,,,0,,,78,106
11264,note_off,,,,,128,0,1,,,,,0,,,78,0
11264,note_on,,,,,0,0,1,,,,,0,,,76,106
11328,note_off,,,,,192,0,4,,,,,3,,,54,0
11328,note_off,,,,,192,0,2,,,,,1,,,64,0
11328,note_on,,,,,0,0,2,,,,,1,,,66,93
11328,note_off,,,,,192,0,3,,,,,2,,,66,0
11392,note_off,,,,,128,0,1,,,,,0,,,76,0
11392,note_on,,,,,0,0,1,,,,,0,,,73,106
11520,note_off,,,,,192,0,2,,,,,1,,,66,0
11520,note_off,,,,,128,0,1,,,,,0,,,73,0
11520,note_on,,,,,0,0,1,,,,,0,,,71,106
11520,note_on,,,,,0,0,2,,,,,1,,,63,93
11520,note_on,,,,,192,0,3,,,,,2,,,59,90
11520,note_on,,,,,192,0,4,,,,,3,,,47,84
11648,note_on,,,,,0,0,4,,,,,3,,,51,84
11648,note_off,,,,,128,0,4,,,,,3,,,47,0
11712,note_off,,,,,192,0,2,,,,,1,,,63,0
11712,note_off,,,,,192,0,3,,,,,2,,,59,0
11712,note_on,,,,,0,0,2,,,,,1,,,66,93
11776,note_on,,,,,0,0,4,,,,,3,,,54,84
11776,note_off,,,,,128,0,4,,,,,3,,,51,0
11904,note_off,,,,,192,0,2,,,,,1,,,66,0
11904,note_on,,,,,192,0,3,,,,,2,,,71,90
11904,note_off,,,,,128,0,4,,,,,3,,,54,0
11904,note_on,,,,,0,0,2,,,,,1,,,63,93
11904,note_on,,,,,0,0,4,,,,,3,,,59,84
12032,note_off,,,,,128,0,3,,,,,2,,,71,0
12032,note_on,,,,,0,0,3,,,,,2,,,66,90
12096,note_off,,,,,192,0,2,,,,,1,,,63,0
12096,note_on,,,,,0,0,2,,,,,1,,,66,93
12096,note_off,,,,,192,0,4,,,,,3,,,59,0
12160,note_on,,,,,0,0,3,,,,,2,,,63,90
12160,note_off,,,,,128,0,3,,,,,2,,,66,0
12288,note_off,,,,,768,0,1,,,,,0,,,71,0
12288,note_on,,,,,0,0,1,,,,,0,,,78,106
12288,note_off,,,,,192,0,2,,,,,1,,,66,0
12288,note_on,,,,,0,0,2,,,,,1,,,64,93
12288,note_on,,,,,0,0,3,,,,,2,,,66,90
12288,note_on,,,,,192,0,4,,,,,3,,,54,84
12288,note_off,,,,,128,0,3,,,,,2,,,63,0
12416,note_on,,,,,0,0,1,,,,,0,,,76,106
12416,note_off,,,,,128,0,1,,,,,0,,,78,0
12480,note_off,,,,,192,0,4,,,,,3,,,54,0
12480,note_off,,,,,192,0,3,,,,,2,,,66,0
12480,note_off,,,,,192,0,2,,,,,1,,,64,0
12480,note_on,,,,,0,0,2,,,,,1,,,66,93
12544,note_off,,,,,128,0,1,,,,,0,,,76,0
12544,note_on,,,,,0,0,1,,,,,0,,,73,106
12672,note_on,,,,,192,0,4,,,,,3,,,47,84
12672,note_off,,,,,192,0,2,,,,,1,,,66,0
12672,note_off,,,,,128,0,1,,,,,0,,,73,0
12672,note_on,,,,,0,0,1,,,,,0,,,71,106
12672,note_on,,,,,0,0,2,,,,,1,,,63,93
12672,note_on,,,,,192,0,3,,,,,2,,,59,90
12800,note_on,,,,,0,0,1,,,,,0,,,75,106
12800,note_off,,,,,128,0,1,,,,,0,,,71,0
12864,note_off,,,,,192,0,2,,,,,1,,,63,0
12864,note_off,,,,,192,0,4,,,,,3,,,47,0
12864,note_off,,,,,192,0,3,,,,,2,,,59,0
12928,note_on,,,,,0,0,1,,,,,0,,,78,106
12928,note_off,,,,,128,0,1,,,,,0,,,75,0
13056,note_off,,,,,128,0,1,,,,,0,,,78,0
13056,note_on,,,,,0,0,1,,,,,0,,,83,106
13056,note_on,,,,,192,0,4,,,,,3,,,51,84
13056,note_on,,,,,192,0,2,,,,,1,,,66,93
13056,note_on,,,,,192,0,3,,,,,2,,,63,90
13184,note_on,,,,,0,0,1,,,,,0,,,78,106
13184,note_off,,,,,128,0,1,,,,,0,,,83,0
13248,note_off,,,,,192,0,4,,,,,3,,,51,0
13248,note_off,,,,,192,0,3,,,,,2,,,63,0
13248,note_off,,,,,192,0,2,,,,,1,,,66,0
13312,note_off,,,,,128,0,1,,,,,0,,,78,0
13312,note_on,,,,,0,0,1,,,,,0,,,75,106
13440,note_on,,,,,192,0,2,,,,,1,,,64,93
13440,note_on,,,,,192,0,3,,,,,2,,,61,90
13440,note_on,,,,,0,0,1,,,,,0,,,76,106
13440,note_on,,,,,192,0,4,,,,,3,,,54,84
13440,note_off,,,,,128,0,1,,,,,0,,,75,0
13568,note_off,,,,,128,0,1,,,,,0,,,76,0
13568,note_on,,,,,0,0,1,,,,,0,,,73,106
13632,note_off,,,,,192,0,4,,,,,3,,,54,0
13632,note_off,,,,,192,0,3,,,,,2,,,61,0
13632,note_off,,,,,192,0,2,,,,,1,,,64,0
13696,note_on,,,,,0,0,1,,,,,0,,,70,106
13696,note_off,,,,,128,0,1,,,,,0,,,73,0
13824,note_on,,,,,192,0,3,,,,,2,,,59,90
13824,note_on,,,,,192,0,2,,,,,1,,,63,93
13824,note_on,,,,,0,0,1,,,,,0,,,71,106
13824,note_on,,,,,192,0,4,,,,,3,,,47,84
13824,note_off,,,,,128,0,1,,,,,0,,,70,0
14208,note_off,,,,,384,0,1,,,,,0,,,71,0
14208,note_off,,,,,384,0,3,,,,,2,,,59,0
14208,note_off,,,,,384,0,2,,,,,1,,,63,0
14208,note_off,,,,,384,0,4,,,,,3,,,47,0
14592,note_on,,,,,384,0,4,,,,,3,,,40,84
14592,note_on,,,,,384,0,1,,,,,0,,,64,106
14592,note_on,,,,,384,0,3,,,,,2,,,52,90
14592,note_on,,,,,384,0,2,,,,,1,,,64,93
14720,note_on,,,,,0,0,1,,,,,0,,,68,106
14720,note_on,,,,,0,0,2,,,,,1,,,68,93
14720,note_on,,,,,0,0,3,,,,,2,,,56,90
14720,note_off,,,,,128,0,3,,,,,2,,,52,0
14720,note_off,,,,,128,0,4,,,,,3,,,40,0
14720,note_on,,,,,0,0,4,,,,,3,,,44,84
14720,note_off,,,,,128,0,2,,,,,1,,,64,0
14720,note_off,,,,,128,0,1,,,,,0,,,64,0
14848,note_on,,,,,0,0,3,,,,,2,,,59,90
14848,note_off,,,,,128,0,3,,,,,2,,,56,0
14848,note_off,,,,,128,0,4,,,,,3,,,44,0
14848,note_on,,,,,0,0,4,,,,,3,,,47,84
14848,note_on,,,,,0,0,1,,,,,0,,,71,106
14848,note_off,,,,,128,0,1,,,,,0,,,68,0
14848,note_off,,,,,128,0,2,,,,,1,,,68,0
14848,note_on,,,,,0,0,2,,,,,1,,,71,93
14976,note_off,,,,,128,0,4,,,,,3,,,47,0
14976,note_off,,,,,128,0,1,,,,,0,,,71,0
14976,note_on,,,,,0,0,1,,,,,0,,,76,106
14976,note_on,,,,,0,0,3,,,,,2,,,64,90
14976,note_off,,,,,128,0,3,,,,,2,,,59,0
14976,note_off,,,,,128,0,2,,,,,1,,,71,0
14976,note_on,,,,,0,0,2,,,,,1,,,76,93
14976,note_on,,,,,0,0,4,,,,,3,,,52,84
15168,note_off,,,,,192,0,1,,,,,0,,,76,0
15168,note_off,,,,,192,0,3,,,,,2,,,64,0
15168,note_off,,,,,192,0,4,,,,,3,,,52,0
15168,note_off,,,,,192,0,2,,,,,1,,,76,0
15360,note_on,,,,,192,0,2,,,,,1,,,81,93
15360,note_on,,,,,192,0,3,,,,,2,,,75,90
15360,note_on,,,,,192,0,1,,,,,0,,,85,106
15456,note_off,,,,,96,0,2,,,,,1,,,81,0
15456,note_off,,,,,96,0,1,,,,,0,,,85,0
15456,note_off,,,,,96,0,3,,,,,2,,,75,0
15552,note_on,,,,,96,0,3,,,,,2,,,76,90
15552,note_on,,,,,96,0,1,,,,,0,,,83,106
15552,note_on,,,,,96,0,2,,,,,1,,,80,93
15648,note_off,,,,,96,0,3,,,,,2,,,76,0
15648,note_off,,,,,96,0,2,,,,,1,,,80,0
15648,note_off,,,,,96,0,1,,,,,0,,,83,0
15744,note_on,,,,,96,0,3,,,,,2,,,75,90
15744,note_on,,,,,96,0,2,,,,,1,,,81,93
15744,note_on,,,,,96,0,1,,,,,0,,,85,106
15840,note_off,,,,,96,0,3,,,,,2,,,75,0
15840,note_off,,,,,96,0,2,,,,,1,,,81,0
15840,note_off,,,,,96,0,1,,,,,0,,,85,0
15936,note_on,,,,,96,0,1,,,,,0,,,83,106
15936,note_on,,,,,96,0,3,,,,,2,,,76,90
15936,note_on,,,,,96,0,2,,,,,1,,,80,93
16032,note_off,,,,,96,0,3,,,,,2,,,76,0
16032,note_off,,,,,96,0,1,,,,,0,,,83,0
16032,note_off,,,,,96,0,2,,,,,1,,,80,0
16128,note_on,,,,,96,0,2,,,,,1,,,68,93
16128,note_on,,,,,96,0,3,,,,,2,,,64,90
16128,note_on,,,,,96,0,1,,,,,0,,,88,106
16512,note_on,,,,,0,0,3,,,,,2,,,68,90
16512,note_off,,,,,384,0,3,,,,,2,,,64,0
16512,note_on,,,,,0,0,2,,,,,1,,,71,93
16512,note_off,,,,,384,0,2,,,,,1,,,68,0
16512,note_off,,,,,384,0,1,,,,,0,,,88,0
16512,note_on,,,,,0,0,1,,,,,0,,,83,106
16896,note_on,,,,,0,0,3,,,,,2,,,73,90
16896,note_off,,,,,384,0,3,,,,,2,,,68,0
16896,note_on,,,,,0,0,1,,,,,0,,,81,106
16896,note_off,,,,,384,0,2,,,,,1,,,71,0
16896,note_on,,,,,0,0,2,,,,,1,,,76,93
16896,note_off,,,,,384,0,1,,,,,0,,,83,0
16992,note_off,,,,,96,0,1,,,,,0,,,81,0
16992,note_off,,,,,96,0,3,,,,,2,,,73,0
16992,note_off,,,,,96,0,2,,,,,1,,,76,0
17088,note_on,,,,,96,0,3,,,,,2,,,71,90
17088,note_on,,,,,96,0,1,,,,,0,,,80,106
17088,note_on,,,,,96,0,2,,,,,1,,,75,93
17184,note_off,,,,,96,0,3,,,,,2,,,71,0
17184,note_off,,,,,96,0,2,,,,,1,,,75,0
17184,note_off,,,,,96,0,1,,,,,0,,,80,0
17280,note_on,,,,,96,0,3,,,,,2,,,69,90
17280,note_on,,,,,96,0,2,,,,,1,,,73,93
17280,note_on,,,,,96,0,1,,,,,0,,,78,106
17376,note_off,,,,,96,0,3,,,,,2,,,69,0
17376,note_off,,,,,96,0,1,,,,,0,,,78,0
17376,note_off,,,,,96,0,2,,,,,1,,,73,0
17472,note_on,,,,,96,0,3,,,,,2,,,68,90
17472,note_on,,,,,96,0,1,,,,,0,,,76,106
17472,note_on,,,,,96,0,2,,,,,1,,,71,93
17568,note_off,,,,,96,0,2,,,,,1,,,71,0
17568,note_off,,,,,96,0,1,,,,,0,,,76,0
17568,note_off,,,,,96,0,3,,,,,2,,,68,0
17664,note_on,,,,,96,0,1,,,,,0,,,75,106
17664,note_on,,,,,96,0,3,,,,,2,,,66,90
17664,note_on,,,,,96,0,2,,,,,1,,,69,93
17760,note_off,,,,,96,0,1,,,,,0,,,75,0
17760,note_off,,,,,96,0,3,,,,,2,,,66,0
17760,note_off,,,,,96,0,2,,,,,1,,,69,0
17856,note_on,,,,,96,0,1,,,,,0,,,73,106
17856,note_on,,,,,96,0,3,,,,,2,,,64,90
17856,note_on,,,,,96,0,2,,,,,1,,,68,93
17856,note_on,,,,,2688,0,4,,,,,3,,,52,84
17952,note_off,,,,,96,0,4,,,,,3,,,52,0
17952,note_off,,,,,96,0,2,,,,,1,,,68,0
17952,note_off,,,,,96,0,3,,,,,2,,,64,0
17952,note_off,,,,,96,0,1,,,,,0,,,73,0
18048,note_on,,,,,96,0,2,,,,,1,,,66,93
18048,note_on,,,,,96,0,4,,,,,3,,,54,84
18048,note_on,,,,,96,0,3,,,,,2,,,63,90
18048,note_on,,,,,96,0,1,,,,,0,,,71,106
18144,note_off,,,,,96,0,2,,,,,1,,,66,0
18144,note_off,,,,,96,0,1,,,,,0,,,71,0
18144,note_off,,,,,96,0,3,,,,,2,,,63,0
18144,note_off,,,,,96,0,4,,,,,3,,,54,0
18240,note_on,,,,,96,0,3,,,,,2,,,61,90
18240,note_on,,,,,96,0,2,,,,,1,,,64,93
18240,note_on,,,,,96,0,1,,,,,0,,,69,106
18240,note_on,,,,,96,0,4,,,,,3,,,55,84
18336,note_off,,,,,96,0,4,,,,,3,,,55,0
18336,note_off,,,,,96,0,2,,,,,1,,,64,0
18336,note_off,,,,,96,0,3,,,,,2,,,61,0
18336,note_off,,,,,96,0,1,,,,,0,,,69,0
18432,note_on,,,,,96,0,2,,,,,1,,,63,93
18432,note_on,,,,,96,0,4,,,,,3,,,56,84
18432,note_on,,,,,96,0,1,,,,,0,,,68,106
18432,note_on,,,,,96,0,3,,,,,2,,,60,90
18624,note_off,,,,,192,0,2,,,,,1,,,63,0
18624,note_off,,,,,192,0,4,,,,,3,,,56,0
18624,note_off,,,,,192,0,3,,,,,2,,,60,0
18624,note_off,,,,,192,0,1,,,,,0,,,68,0
18816,note_on,,,,,192,0,2,,,,,1,,,63,93
18816,note_on,,,,,192,0,1,,,,,0,,,68,106
18816,note_on,,,,,192,0,4,,,,,3,,,56,84
18816,note_on,,,,,192,0,3,,,,,2,,,60,90
19008,note_off,,,,,192,0,1,,,,,0,,,68,0
19008,note_off,,,,,192,0,2,,,,,1,,,63,0
19008,note_off,,,,,192,0,4,,,,,3,,,56,0
19008,note_off,,,,,192,0,3,,,,,2,,,60,0
19200,note_on,,,,,192,0,4,,,,,3,,,37,84
19200,note_on,,,,,192,0,1,,,,,0,,,61,106
19200,note_on,,,,,192,0,3,,,,,2,,,49,90
19200,note_on,,,,,192,0,2,,,,,1,,,61,93
19328,note_on,,,,,0,0,2,,,,,1,,,64,93
19328,note_on,,,,,0,0,4,,,,,3,,,40,84
19328,note_off,,,,,128,0,4,,,,,3,,,37,0
19328,note_off,,,,,128,0,3,,,,,2,,,49,0
19328,note_off,,,,,128,0,1,,,,,0,,,61,0
19328,note_on,,,,,0,0,1,,,,,0,,,64,106
19328,note_off,,,,,128,0,2,,,,,1,,,61,0
19328,note_on,,,,,0,0,3,,,,,2,,,52,90
19456,note_off,,,,,128,0,2,,,,,1,,,64,0
19456,note_on,,,,,0,0,2,,,,,1,,,68,93
19456,note_off,,,,,128,0,1,,,,,0,,,64,0
19456,note_on,,,,,0,0,1,,,,,0,,,68,106
19456,note_off,,,,,128,0,4,,,,,3,,,40,0
19456,note_on,,,,,0,0,4,,,,,3,,,44,84
19456,note_on,,,,,0,0,3,,,,,2,,,56,90
19456,note_off,,,,,128,0,3,,,,,2,,,52,0
19584,note_on,,,,,0,0,3,,,,,2,,,61,90
19584,note_on,,,,,0,0,1,,,,,0,,,73,106
19584,note_off,,,,,128,0,1,,,,,0,,,68,0
19584,note_off,,,,,128,0,3,,,,,2,,,56,0
19584,note_off,,,,,128,0,4,,,,,3,,,44,0
19584,note_on,,,,,0,0,4,,,,,3,,,49,84
19584,note_on,,,,,0,0,2,,,,,1,,,73,93
19584,note_off,,,,,128,0,2,,,,,1,,,68,0
19776,note_off,,,,,192,0,3,,,,,2,,,61,0
19776,note_off,,,,,192,0,2,,,,,1,,,73,0
19776,note_off,,,,,192,0,4,,,,,3,,,49,0
19776,note_off,,,,,192,0,1,,,,,0,,,73,0
19968,note_on,,,,,192,0,3,,,,,2,,,72,90
19968,note_on,,,,,192,0,2,,,,,1,,,78,93
19968,note_on,,,,,192,0,1,,,,,0,,,81,106
20064,note_off,,,,,96,0,3,,,,,2,,,72,0
20064,note_off,,,,,96,0,1,,,,,0,,,81,0
20064,note_off,,,,,96,0,2,,,,,1,,,78,0
20160,note_on,,,,,96,0,1,,,,,0,,,80,106
20160,note_on,,,,,96,0,2,,,,,1,,,76,93
20160,note_on,,,,,96,0,3,,,,,2,,,73,90
20256,note_off,,,,,96,0,2,,,,,1,,,76,0
20256,note_off,,,,,96,0,1,,,,,0,,,80,0
20256,note_off,,,,,96,0,3,,,,,2,,,73,0
20352,note_on,,,,,96,0,1,,,,,0,,,81,106
20352,note_on,,,,,96,0,2,,,,,1,,,78,93
20352,note_on,,,,,96,0,3,,,,,2,,,72,90
20448,note_off,,,,,96,0,2,,,,,1,,,78,0
20448,note_off,,,,,96,0,1,,,,,0,,,81,0
20448,note_off,,,,,96,0,3,,,,,2,,,72,0
20544,note_on,,,,,96,0,1,,,,,0,,,80,106
20544,note_on,,,,,96,0,2,,,,,1,,,76,93
20544,note_on,,,,,96,0,3,,,,,2,,,73,90
20640,note_off,,,,,96,0,2,,,,,1,,,76,0
20640,note_off,,,,,96,0,3,,,,,2,,,73,0
20640,note_off,,,,,96,0,1,,,,,0,,,80,0
20736,note_on,,,,,96,0,3,,,,,2,,,61,90
20736,note_on,,,,,96,0,2,,,,,1,,,64,93
20736,note_on,,,,,96,0,1,,,,,0,,,85,106
21120,note_on,,,,,0,0,1,,,,,0,,,80,106
21120,note_off,,,,,384,0,2,,,,,1,,,64,0
21120,note_on,,,,,0,0,2,,,,,1,,,68,93
21120,note_off,,,,,384,0,3,,,,,2,,,61,0
21120,note_on,,,,,0,0,3,,,,,2,,,64,90
21120,note_off,,,,,384,0,1,,,,,0,,,85,0
21504,note_off,,,,,384,0,2,,,,,1,,,68,0
21504,note_on,,,,,0,0,2,,,,,1,,,80,93
21504,note_off,,,,,384,0,1,,,,,0,,,80,0
21504,note_on,,,,,0,0,1,,,,,0,,,85,106
21504,note_off,,,,,384,0,3,,,,,2,,,64,0
21504,note_on,,,,,0,0,3,,,,,2,,,76,90
21600,note_off,,,,,96,0,1,,,,,0,,,85,0
21600,note_off,,,,,96,0,3,,,,,2,,,76,0
21600,note_off,,,,,96,0,2,,,,,1,,,80,0
21696,note_on,,,,,96,0,1,,,,,0,,,83,106
21696,note_on,,,,,96,0,2,,,,,1,,,78,93
21696,note_on,,,,,96,0,3,,,,,2,,,75,90
21792,note_off,,,,,96,0,1,,,,,0,,,83,0
21792,note_off,,,,,96,0,2,,,,,1,,,78,0
21792,note_off,,,,,96,0,3,,,,,2,,,75,0
21888,note_on,,,,,96,0,2,,,,,1,,,76,93
21888,note_on,,,,,96,0,1,,,,,0,,,82,106
21888,note_on,,,,,96,0,3,,,,,2,,,73,90
21984,note_off,,,,,96,0,3,,,,,2,,,73,0
21984,note_off,,,,,96,0,2,,,,,1,,,76,0
21984,note_off,,,,,96,0,1,,,,,0,,,82,0
22080,note_on,,,,,96,0,3,,,,,2,,,71,90
22080,note_on,,,,,96,0,2,,,,,1,,,75,93
22080,note_on,,,,,96,0,1,,,,,0,,,80,106
22176,note_off,,,,,96,0,1,,,,,0,,,80,0
22176,note_off,,,,,96,0,2,,,,,1,,,75,0
22176,note_off,,,,,96,0,3,,,,,2,,,71,0
22272,note_on,,,,,96,0,2,,,,,1,,,73,93
22272,note_on,,,,,96,0,1,,,,,0,,,78,106
22272,note_on,,,,,96,0,3,,,,,2,,,70,90
22368,note_off,,,,,96,0,2,,,,,1,,,73,0
22368,note_off,,,,,96,0,1,,,,,0,,,78,0
22368,note_off,,,,,96,0,3,,,,,2,,,70,0
22464,note_on,,,,,2688,0,4,,,,,3,,,52,84
22464,note_on,,,,,96,0,3,,,,,2,,,68,90
22464,note_on,,,,,96,0,1,,,,,0,,,76,106
22464,note_on,,,,,96,0,2,,,,,1,,,71,93
22560,note_off,,,,,96,0,3,,,,,2,,,68,0
22560,note_off,,,,,96,0,4,,,,,3,,,52,0
22560,note_off,,,,,96,0,1,,,,,0,,,76,0
22560,note_off,,,,,96,0,2,,,,,1,,,71,0
22656,note_on,,,,,96,0,3,,,,,2,,,66,90
22656,note_on,,,,,96,0,4,,,,,3,,,54,84
22656,note_on,,,,,96,0,2,,,,,1,,,70,93
22656,note_on,,,,,96,0,1,,,,,0,,,75,106
22752,note_off,,,,,96,0,1,,,,,0,,,75,0
22752,note_off,,,,,96,0,2,,,,,1,,,70,0
22752,note_off,,,,,96,0,3,,,,,2,,,66,0
22752,note_off,,,,,96,0,4,,,,,3,,,54,0
22848,note_on,,,,,96,0,4,,,,,3,,,54,84
22848,note_on,,,,,96,0,1,,,,,0,,,73,106
22848,note_on,,,,,96,0,3,,,,,2,,,64,90
22848,note_on,,,,,96,0,2,,,,,1,,,69,93
22944,note_off,,,,,96,0,2,,,,,1,,,69,0
22944,note_off,,,,,96,0,4,,,,,3,,,54,0
22944,note_off,,,,,96,0,1,,,,,0,,,73,0
22944,note_off,,,,,96,0,3,,,,,2,,,64,0
23040,note_on,,,,,96,0,4,,,,,3,,,47,84
23040,note_on,,,,,96,0,3,,,,,2,,,63,90
23040,note_on,,,,,96,0,2,,,,,1,,,71,93
23040,note_on,,,,,96,0,1,,,,,0,,,71,106
23168,note_on,,,,,0,0,4,,,,,3,,,51,84
23168,note_off,,,,,128,0,4,,,,,3,,,47,0
23232,note_on,,,,,0,0,2,,,,,1,,,66,93
23232,note_off,,,,,192,0,2,,,,,1,,,71,0
23296,note_on,,,,,0,0,4,,,,,3,,,54,84
23296,note_off,,,,,128,0,4,,,,,3,,,51,0
23424,note_off,,,,,384,0,3,,,,,2,,,63,0
23424,note_on,,,,,0,0,3,,,,,2,,,71,90
23424,note_on,,,,,0,0,1,,,,,0,,,71,106
23424,note_off,,,,,384,0,1,,,,,0,,,71,0
23424,note_off,,,,,192,0,2,,,,,1,,,66,0
23424,note_off,,,,,128,0,4,,,,,3,,,54,0
23424,note_on,,,,,0,0,4,,,,,3,,,59,84
23424,note_on,,,,,0,0,2,,,,,1,,,63,93
23552,note_off,,,,,128,0,3,,,,,2,,,71,0
23552,note_on,,,,,0,0,3,,,,,2,,,66,90
23616,note_off,,,,,192,0,4,,,,,3,,,59,0
23616,note_off,,,,,192,0,2,,,,,1,,,63,0
23616,note_on,,,,,0,0,2,,,,,1,,,66,93
23680,note_off,,,,,128,0,3,,,,,2,,,66,0
23680,note_on,,,,,0,0,3,,,,,2,,,63,90
23808,note_on,,,,,0,0,2,,,,,1,,,64,93
23808,note_on,,,,,0,0,1,,,,,0,,,78,106
23808,note_off,,,,,384,0,1,,,,,0,,,71,0
23808,note_on,,,,,0,0,3,,,,,2,,,66,90
23808,note_off,,,,,128,0,3,,,,,2,,,63,0
23808,note_on,,,,,192,0,4,,,,,3,,,54,84
23808,note_off,,,,,192,0,2,,,,,1,,,66,0
23936,note_off,,,,,128,0,1,,,,,0,,,78,0
23936,note_on,,,,,0,0,1,,,,,0,,,76,106
24000,note_off,,,,,192,0,3,,,,,2,,,66,0
24000,note_off,,,,,192,0,2,,,,,1,,,64,0
24000,note_on,,,,,0,0,2,,,,,1,,,66,93
24000,note_off,,,,,192,0,4,,,,,3,,,54,0
24064,note_on,,,,,0,0,1,,,,,0,,,73,106
24064,note_off,,,,,128,0,1,,,,,0,,,76,0
24192,note_off,,,,,192,0,2,,,,,1,,,66,0
24192,note_on,,,,,0,0,1,,,,,0,,,71,106
24192,note_off,,,,,128,0,1,,,,,0,,,73,0
24192,note_on,,,,,0,0,2,,,,,1,,,63,93
24192,note_on,,,,,192,0,3,,,,,2,,,59,90
24192,note_on,,,,,192,0,4,,,,,3,,,47,84
24320,note_off,,,,,128,0,4,,,,,3,,,47,0
24320,note_on,,,,,0,0,4,,,,,3,,,51,84
24384,note_on,,,,,0,0,2,,,,,1,,,66,93
24384,note_off,,,,,192,0,3,,,,,2,,,59,0
24384,note_off,,,,,192,0,2,,,,,1,,,63,0
24448,note_off,,,,,128,0,4,,,,,3,,,51,0
24448,note_on,,,,,0,0,4,,,,,3,,,54,84
24576,note_on,,,,,0,0,1,,,,,0,,,71,106
24576,note_off,,,,,128,0,4,,,,,3,,,54,0
24576,note_off,,,,,192,0,2,,,,,1,,,66,0
24576,note_on,,,,,192,0,3,,,,,2,,,71,90
24576,note_on,,,,,0,0,2,,,,,1,,,63,93
24576,note_on,,,,,0,0,4,,,,,3,,,59,84
24576,note_off,,,,,384,0,1,,,,,0,,,71,0
24704,note_off,,,,,128,0,3,,,,,2,,,71,0
24704,note_on,,,,,0,0,3,,,,,2,,,66,90
24768,note_on,,,,,0,0,2,,,,,1,,,66,93
24768,note_off,,,,,192,0,2,,,,,1,,,63,0
24768,note_off,,,,,192,0,4,,,,,3,,,59,0
24832,note_on,,,,,0,0,3,,,,,2,,,63,90
24832,note_off,,,,,128,0,3,,,,,2,,,66,0
24960,note_off,,,,,192,0,2,,,,,1,,,66,0
24960,note_on,,,,,0,0,2,,,,,1,,,64,93
24960,note_on,,,,,192,0,4,,,,,3,,,54,84
24960,note_on,,,,,0,0,3,,,,,2,,,66,90
24960,note_off,,,,,128,0,3,,,,,2,,,63,0
24960,note_off,,,,,384,0,1,,,,,0,,,71,0
24960,note_on,,,,,0,0,1,,,,,0,,,78,106
25088,note_off,,,,,128,0,1,,,,,0,,,78,0
25088,note_on,,,,,0,0,1,,,,,0,,,76,106
25152,note_off,,,,,192,0,3,,,,,2,,,66,0
25152,note_off,,,,,192,0,4,,,,,3,,,54,0
25152,note_off,,,,,192,0,2,,,,,1,,,64,0
25152,note_on,,,,,0,0,2,,,,,1,,,66,93
25216,note_on,,,,,0,0,1,,,,,0,,,73,106
25216,note_off,,,,,128,0,1,,,,,0,,,76,0
25344,note_on,,,,,192,0,3,,,,,2,,,59,90
25344,note_on,,,,,0,0,2,,,,,1,,,63,93
25344,note_on,,,,,192,0,4,,,,,3,,,47,84
25344,note_on,,,,,0,0,1,,,,,0,,,71,106
25344,note_off,,,,,128,0,1,,,,,0,,,73,0
25344,note_off,,,,,192,0,2,,,,,1,,,66,0
25472,note_off,,,,,128,0,4,,,,,3,,,47,0
25472,note_on,,,,,0,0,4,,,,,3,,,51,84
25536,note_off,,,,,192,0,2,,,,,1,,,63,0
25536,note_on,,,,,0,0,2,,,,,1,,,66,93
25536,note_off,,,,,192,0,3,,,,,2,,,59,0
25600,note_on,,,,,0,0,4,,,,,3,,,54,84
25600,note_off,,,,,128,0,4,,,,,3,,,51,0
25728,note_on,,,,,0,0,4,,,,,3,,,59,84
25728,note_off,,,,,128,0,4,,,,,3,,,54,0
25728,note_on,,,,,0,0,2,,,,,1,,,63,93
25728,note_on,,,,,192,0,3,,,,,2,,,71,90
25728,note_off,,,,,192,0,2,,,,,1,,,66,0
25856,note_on,,,,,0,0,3,,,,,2,,,66,90
25856,note_off,,,,,128,0,3,,,,,2,,,71,0
25920,note_on,,,,,0,0,2,,,,,1,,,66,93
25920,note_off,,,,,192,0,2,,,,,1,,,63,0
25920,note_off,,,,,192,0,4,,,,,3,,,59,0
25984,note_on,,,,,0,0,3,,,,,2,,,63,90
25984,note_off,,,,,128,0,3,,,,,2,,,66,0
26112,note_off,,,,,128,0,3,,,,,2,,,63,0
26112,note_on,,,,,0,0,3,,,,,2,,,66,90
26112,note_on,,,,,192,0,4,,,,,3,,,54,84
26112,note_on,,,,,0,0,2,,,,,1,,,64,93
26112,note_off,,,,,192,0,2,,,,,1,,,66,0
26112,note_off,,,,,768,0,1,,,,,0,,,71,0
26112,note_on,,,,,0,0,1,,,,,0,,,78,106
26240,note_off,,,,,128,0,1,,,,,0,,,78,0
26240,note_on,,,,,0,0,1,,,,,0,,,76,106
26304,note_off,,,,,192,0,4,,,,,3,,,54,0
26304,note_off,,,,,192,0,2,,,,,1,,,64,0
26304,note_on,,,,,0,0,2,,,,,1,,,66,93
26304,note_off,,,,,192,0,3,,,,,2,,,66,0
26368,note_off,,,,,128,0,1,,,,,0,,,76,0
26368,note_on,,,,,0,0,1,,,,,0,,,73,106
26496,note_off,,,,,192,0,2,,,,,1,,,66,0
26496,note_on,,,,,0,0,2,,,,,1,,,63,93
26496,note_on,,,,,192,0,3,,,,,2,,,59,90
26496,note_on,,,,,192,0,4,,,,,3,,,47,84
26496,note_on,,,,,0,0,1,,,,,0,,,71,106
26496,note_off,,,,,128,0,1,,,,,0,,,73,0
26624,note_on,,,,,0,0,1,,,,,0,,,75,106
26624,note_off,,,,,128,0,1,,,,,0,,,71,0
26688,note_off,,,,,192,0,3,,,,,2,,,59,0
26688,note_off,,,,,192,0,2,,,,,1,,,63,0
26688,note_off,,,,,192,0,4,,,,,3,,,47,0
26752,note_on,,,,,0,0,1,,,,,0,,,78,106
26752,note_off,,,,,128,0,1,,,,,0,,,75,0
26880,note_on,,,,,192,0,3,,,,,2,,,63,90
26880,note_off,,,,,128,0,1,,,,,0,,,78,0
26880,note_on,,,,,192,0,2,,,,,1,,,66,93
26880,note_on,,,,,192,0,4,,,,,3,,,51,84
26880,note_on,,,,,0,0,1,,,,,0,,,83,106
27008,note_on,,,,,0,0,1,,,,,0,,,78,106
27008,note_off,,,,,128,0,1,,,,,0,,,83,0
27072,note_off,,,,,192,0,2,,,,,1,,,66,0
27072,note_off,,,,,192,0,3,,,,,2,,,63,0
27072,note_off,,,,,192,0,4,,,,,3,,,51,0
27136,note_on,,,,,0,0,1,,,,,0,,,75,106
27136,note_off,,,,,128,0,1,,,,,0,,,78,0
27264,note_on,,,,,192,0,2,,,,,1,,,64,93
27264,note_off,,,,,128,0,1,,,,,0,,,75,0
27264,note_on,,,,,192,0,4,,,,,3,,,54,84
27264,note_on,,,,,192,0,3,,,,,2,,,61,90
27264,note_on,,,,,0,0,1,,,,,0,,,76,106
27392,note_on,,,,,0,0,1,,,,,0,,,73,106
27392,note_off,,,,,128,0,1,,,,,0,,,76,0
27456,note_off,,,,,192,0,2,,,,,1,,,64,0
27456,note_off,,,,,192,0,4,,,,,3,,,54,0
27456,note_off,,,,,192,0,3,,,,,2,,,61,0
27520,note_off,,,,,128,0,1,,,,,0,,,73,0
27520,note_on,,,,,0,0,1,,,,,0,,,70,106
27648,note_off,,,,,128,0,1,,,,,0,,,70,0
27648,note_on,,,,,192,0,2,,,,,1,,,63,93
27648,note_on,,,,,192,0,3,,,,,2,,,59,90
27648,note_on,,,,,0,0,1,,,,,0,,,71,106
27648,note_on,,,,,192,0,4,,,,,3,,,47,84
28032,note_off,,,,,384,0,2,,,,,1,,,63,0
28032,note_off,,,,,384,0,1,,,,,0,,,71,0
28032,note_off,,,,,384,0,3,,,,,2,,,59,0
28032,note_off,,,,,384,0,4,,,,,3,,,47,0
28416,note_on,,,,,384,0,2,,,,,1,,,63,93
28416,note_on,,,,,0,0,3,,,,,2,,,69,90
28416,note_on,,,,,384,0,3,,,,,2,,,57,90
28416,note_on,,,,,384,0,4,,,,,3,,,59,84
28416,note_on,,,,,384,0,1,,,,,0,,,81,106
28544,note_on,,,,,0,0,1,,,,,0,,,78,106
28544,note_off,,,,,128,0,1,,,,,0,,,81,0
28544,note_off,,,,,128,0,4,,,,,3,,,59,0
28544,note_on,,,,,0,0,4,,,,,3,,,57,84
28672,note_off,,,,,128,0,4,,,,,3,,,57,0
28672,note_on,,,,,0,0,4,,,,,3,,,59,84
28672,note_off,,,,,128,0,1,,,,,0,,,78,0
28672,note_on,,,,,0,0,1,,,,,0,,,76,106
28704,note_on,,,,,0,0,2,,,,,1,,,64,93
28704,note_off,,,,,288,0,2,,,,,1,,,63,0
28800,note_on,,,,,0,0,2,,,,,1,,,66,93
28800,note_off,,,,,96,0,2,,,,,1,,,64,0
28800,note_off,,,,,128,0,4,,,,,3,,,59,0
28800,note_on,,,,,0,0,4,,,,,3,,,60,84
28800,note_off,,,,,128,0,1,,,,,0,,,76,0
28800,note_on,,,,,0,0,1,,,,,0,,,75,106
28896,note_off,,,,,96,0,4,,,,,3,,,60,0
28928,note_off,,,,,128,0,1,,,,,0,,,75,0
28928,note_on,,,,,0,0,1,,,,,0,,,78,106
28992,note_off,,,,,192,0,2,,,,,1,,,66,0
28992,note_off,,,,,576,0,3,,,,,2,,,57,0
28992,note_off,,,,,0,0,3,,,,,2,,,69,0
29056,note_on,,,,,0,0,1,,,,,0,,,80,106
29056,note_off,,,,,128,0,1,,,,,0,,,78,0
29184,note_off,,,,,128,0,1,,,,,0,,,80,0
29184,note_on,,,,,0,0,1,,,,,0,,,81,106
29184,note_on,,,,,288,0,4,,,,,3,,,60,84
29184,note_on,,,,,192,0,3,,,,,2,,,63,90
29184,note_on,,,,,192,0,2,,,,,1,,,66,93
29280,note_off,,,,,96,0,2,,,,,1,,,66,0
29280,note_off,,,,,96,0,4,,,,,3,,,60,0
29280,note_off,,,,,96,0,3,,,,,2,,,63,0
29312,note_off,,,,,128,0,1,,,,,0,,,81,0
29312,note_on,,,,,0,0,1,,,,,0,,,78,106
29440,note_on,,,,,0,0,1,,,,,0,,,75,106
29440,note_off,,,,,128,0,1,,,,,0,,,78,0
29568,note_on,,,,,0,0,1,,,,,0,,,81,106
29568,note_off,,,,,128,0,1,,,,,0,,,75,0
29568,note_on,,,,,288,0,2,,,,,1,,,63,93
29568,note_on,,,,,288,0,3,,,,,2,,,57,90
29568,note_on,,,,,288,0,4,,,,,3,,,59,84
29568,note_on,,,,,0,0,3,,,,,2,,,69,90
29696,note_off,,,,,128,0,1,,,,,0,,,81,0
29696,note_off,,,,,128,0,4,,,,,3,,,59,0
29696,note_on,,,,,0,0,4,,,,,3,,,57,84
29696,note_on,,,,,0,0,1,,,,,0,,,78,106
29824,note_off,,,,,128,0,1,,,,,0,,,78,0
29824,note_off,,,,,128,0,4,,,,,3,,,57,0
29824,note_on,,,,,0,0,4,,,,,3,,,59,84
29824,note_on,,,,,0,0,1,,,,,0,,,76,106
29856,note_on,,,,,0,0,2,,,,,1,,,64,93
29856,note_off,,,,,288,0,2,,,,,1,,,63,0
29952,note_off,,,,,128,0,4,,,,,3,,,59,0
29952,note_on,,,,,0,0,1,,,,,0,,,75,106
29952,note_off,,,,,128,0,1,,,,,0,,,76,0
29952,note_on,,,,,0,0,2,,,,,1,,,66,93
29952,note_off,,,,,96,0,2,,,,,1,,,64,0
29952,note_on,,,,,0,0,4,,,,,3,,,60,84
30048,note_off,,,,,96,0,4,,,,,3,,,60,0
30080,note_on,,,,,0,0,1,,,,,0,,,78,106
30080,note_off,,,,,128,0,1,,,,,0,,,75,0
30144,note_off,,,,,576,0,3,,,,,2,,,57,0
30144,note_off,,,,,0,0,3,,,,,2,,,69,0
30144,note_off,,,,,192,0,2,,,,,1,,,66,0
30208,note_off,,,,,128,0,1,,,,,0,,,78,0
30208,note_on,,,,,0,0,1,,,,,0,,,80,106
30336,note_on,,,,,0,0,1,,,,,0,,,81,106
30336,note_on,,,,,192,0,2,,,,,1,,,66,93
30336,note_on,,,,,192,0,3,,,,,2,,,63,90
30336,note_on,,,,,0,0,1,,,,,0,,,79,106
30336,note_on,,,,,288,0,4,,,,,3,,,60,84
30336,note_off,,,,,128,0,1,,,,,0,,,80,0
30432,note_off,,,,,96,0,4,,,,,3,,,60,0
30432,note_off,,,,,96,0,3,,,,,2,,,63,0
30432,note_off,,,,,96,0,2,,,,,1,,,66,0
30464,note_on,,,,,0,0,1,,,,,0,,,78,106
30464,note_off,,,,,0,0,1,,,,,0,,,79,0
30464,note_off,,,,,128,0,1,,,,,0,,,81,0
30592,note_on,,,,,0,0,1,,,,,0,,,75,106
30592,note_off,,,,,128,0,1,,,,,0,,,78,0
30720,note_off,,,,,128,0,1,,,,,0,,,75,0
30720,note_on,,,,,0,0,1,,,,,0,,,81,106
30720,note_on,,,,,288,0,4,,,,,3,,,59,84
30720,note_on,,,,,288,0,3,,,,,2,,,69,90
30720,note_on,,,,,288,0,2,,,,,1,,,63,93
30848,note_off,,,,,128,0,1,,,,,0,,,81,0
30848,note_on,,,,,0,0,1,,,,,0,,,78,106
30848,note_off,,,,,128,0,4,,,,,3,,,59,0
30848,note_on,,,,,0,0,4,,,,,3,,,57,84
30976,note_off,,,,,128,0,1,,,,,0,,,78,0
30976,note_off,,,,,128,0,4,,,,,3,,,57,0
30976,note_on,,,,,0,0,4,,,,,3,,,59,84
30976,note_on,,,,,0,0,1,,,,,0,,,76,106
31008,note_off,,,,,288,0,2,,,,,1,,,63,0
31008,note_on,,,,,0,0,2,,,,,1,,,64,93
31104,note_on,,,,,0,0,1,,,,,0,,,75,106
31104,note_off,,,,,128,0,1,,,,,0,,,76,0
31104,note_off,,,,,96,0,2,,,,,1,,,64,0
31104,note_on,,,,,0,0,2,,,,,1,,,66,93
31104,note_off,,,,,128,0,4,,,,,3,,,59,0
31104,note_on,,,,,0,0,4,,,,,3,,,60,84
31200,note_off,,,,,96,0,4,,,,,3,,,60,0
31232,note_on,,,,,0,0,1,,,,,0,,,78,106
31232,note_off,,,,,128,0,1,,,,,0,,,75,0
31296,note_off,,,,,192,0,2,,,,,1,,,66,0
31296,note_off,,,,,576,0,3,,,,,2,,,69,0
31360,note_on,,,,,0,0,1,,,,,0,,,80,106
31360,note_off,,,,,128,0,1,,,,,0,,,78,0
31488,note_on,,,,,192,0,3,,,,,2,,,63,90
31488,note_on,,,,,0,0,1,,,,,0,,,81,106
31488,note_on,,,,,192,0,2,,,,,1,,,66,93
31488,note_off,,,,,128,0,1,,,,,0,,,80,0
31488,note_on,,,,,288,0,4,,,,,3,,,60,84
31584,note_off,,,,,96,0,2,,,,,1,,,66,0
31584,note_off,,,,,96,0,3,,,,,2,,,63,0
31584,note_off,,,,,96,0,4,,,,,3,,,60,0
31616,note_off,,,,,128,0,1,,,,,0,,,81,0
31616,note_on,,,,,0,0,1,,,,,0,,,78,106
31744,note_on,,,,,0,0,1,,,,,0,,,75,106
31744,note_off,,,,,128,0,1,,,,,0,,,78,0
31872,note_on,,,,,288,0,2,,,,,1,,,66,93
31872,note_on,,,,,288,0,4,,,,,3,,,59,84
31872,note_on,,,,,0,0,1,,,,,0,,,81,106
31872,note_on,,,,,288,0,3,,,,,2,,,63,90
31872,note_off,,,,,128,0,1,,,,,0,,,75,0
32000,note_off,,,,,128,0,4,,,,,3,,,59,0
32000,note_on,,,,,0,0,4,,,,,3,,,57,84
32000,note_off,,,,,128,0,1,,,,,0,,,81,0
32000,note_on,,,,,0,0,1,,,,,0,,,78,106
32128,note_on,,,,,0,0,4,,,,,3,,,59,84
32128,note_off,,,,,128,0,4,,,,,3,,,57,0
32128,note_on,,,,,0,0,1,,,,,0,,,75,106
32128,note_off,,,,,128,0,1,,,,,0,,,78,0
32160,note_off,,,,,288,0,3,,,,,2,,,63,0
32160,note_on,,,,,0,0,3,,,,,2,,,66,90
32160,note_on,,,,,0,0,2,,,,,1,,,69,93
32160,note_off,,,,,288,0,2,,,,,1,,,66,0
32256,note_off,,,,,96,0,3,,,,,2,,,66,0
32256,note_on,,,,,0,0,3,,,,,2,,,64,90
32256,note_on,,,,,0,0,1,,,,,0,,,76,106
32256,note_on,,,,,0,0,2,,,,,1,,,67,93
32256,note_off,,,,,128,0,4,,,,,3,,,59,0
32256,note_on,,,,,0,0,4,,,,,3,,,60,84
32256,note_off,,,,,128,0,1,,,,,0,,,75,0
32256,note_off,,,,,96,0,2,,,,,1,,,69,0
32352,note_off,,,,,96,0,4,,,,,3,,,60,0
32384,note_on,,,,,0,0,1,,,,,0,,,79,106
32384,note_off,,,,,128,0,1,,,,,0,,,76,0
32448,note_off,,,,,192,0,2,,,,,1,,,67,0
32448,note_off,,,,,192,0,3,,,,,2,,,64,0
32512,note_off,,,,,128,0,1,,,,,0,,,79,0
32512,note_on,,,,,0,0,1,,,,,0,,,83,106
32640,note_off,,,,,128,0,1,,,,,0,,,83,0
32640,note_on,,,,,288,0,4,,,,,3,,,60,84
32640,note_on,,,,,0,0,1,,,,,0,,,84,106
32640,note_on,,,,,192,0,3,,,,,2,,,64,90
32640,note_on,,,,,192,0,2,,,,,1,,,67,93
32736,note_off,,,,,96,0,4,,,,,3,,,60,0
32736,note_off,,,,,96,0,2,,,,,1,,,67,0
32736,note_off,,,,,96,0,3,,,,,2,,,64,0
32768,note_off,,,,,128,0,1,,,,,0,,,84,0
32768,note_on,,,,,0,0,1,,,,,0,,,79,106
32896,note_on,,,,,0,0,1,,,,,0,,,76,106
32896,note_off,,,,,128,0,1,,,,,0,,,79,0
33024,note_on,,,,,288,0,3,,,,,2,,,60,90
33024,note_on,,,,,288,0,2,,,,,1,,,64,93
33024,note_on,,,,,0,0,1,,,,,0,,,84,106
33024,note_on,,,,,288,0,4,,,,,3,,,48,84
33024,note_off,,,,,128,0,1,,,,,0,,,76,0
33152,note_on,,,,,0,0,4,,,,,3,,,47,84
33152,note_off,,,,,128,0,1,,,,,0,,,84,0
33152,note_on,,,,,0,0,1,,,,,0,,,79,106
33152,note_off,,,,,128,0,4,,,,,3,,,48,0
33280,note_on,,,,,0,0,1,,,,,0,,,76,106
33280,note_on,,,,,0,0,4,,,,,3,,,48,84
33280,note_off,,,,,128,0,4,,,,,3,,,47,0
33280,note_off,,,,,128,0,1,,,,,0,,,79,0
33280,note_on,,,,,0,0,1,,,,,0,,,77,106
33312,note_off,,,,,288,0,2,,,,,1,,,64,0
33312,note_on,,,,,0,0,2,,,,,1,,,67,93
33312,note_on,,,,,0,0,3,,,,,2,,,64,90
33312,note_off,,,,,288,0,3,,,,,2,,,60,0
33408,note_on,,,,,0,0,1,,,,,0,,,74,106
33408,note_on,,,,,0,0,3,,,,,2,,,65,90
33408,note_off,,,,,96,0,3,,,,,2,,,64,0
33408,note_off,,,,,0,0,1,,,,,0,,,77,0
33408,note_off,,,,,128,0,1,,,,,0,,,76,0
33408,note_off,,,,,96,0,2,,,,,1,,,67,0
33408,note_off,,,,,128,0,4,,,,,3,,,48,0
33408,note_on,,,,,0,0,2,,,,,1,,,69,93
33408,note_on,,,,,0,0,4,,,,,3,,,53,84
33536,note_off,,,,,128,0,1,,,,,0,,,74,0
33536,note_on,,,,,0,0,1,,,,,0,,,77,106
33600,note_off,,,,,192,0,4,,,,,3,,,53,0
33600,note_off,,,,,192,0,3,,,,,2,,,65,0
33600,note_off,,,,,192,0,2,,,,,1,,,69,0
33664,note_off,,,,,128,0,1,,,,,0,,,77,0
33664,note_on,,,,,0,0,1,,,,,0,,,79,106
33792,note_on,,,,,192,0,3,,,,,2,,,57,90
33792,note_on,,,,,192,0,2,,,,,1,,,62,93
33792,note_on,,,,,0,0,1,,,,,0,,,81,106
33792,note_on,,,,,192,0,4,,,,,3,,,41,84
33792,note_off,,,,,128,0,1,,,,,0,,,79,0
33920,note_on,,,,,0,0,1,,,,,0,,,77,106
33920,note_off,,,,,128,0,1,,,,,0,,,81,0
33984,note_off,,,,,192,0,2,,,,,1,,,62,0
33984,note_off,,,,,192,0,3,,,,,2,,,57,0
33984,note_off,,,,,192,0,4,,,,,3,,,41,0
34048,note_on,,,,,0,0,1,,,,,0,,,74,106
34048,note_off,,,,,128,0,1,,,,,0,,,77,0
34176,note_on,,,,,0,0,1,,,,,0,,,77,106
34176,note_on,,,,,192,0,2,,,,,1,,,65,93
34176,note_on,,,,,192,0,4,,,,,3,,,43,84
34176,note_off,,,,,128,0,1,,,,,0,,,74,0
34176,note_on,,,,,0,0,2,,,,,1,,,55,93
34176,note_on,,,,,192,0,3,,,,,2,,,62,90
34304,note_off,,,,,128,0,1,,,,,0,,,77,0
34304,note_on,,,,,0,0,1,,,,,0,,,74,106
34368,note_off,,,,,192,0,2,,,,,1,,,65,0
34368,note_off,,,,,192,0,4,,,,,3,,,43,0
34368,note_off,,,,,0,0,2,,,,,1,,,55,0
34368,note_off,,,,,192,0,3,,,,,2,,,62,0
34432,note_off,,,,,128,0,1,,,,,0,,,74,0
34432,note_on,,,,,0,0,1,,,,,0,,,71,106
34560,note_on,,,,,0,0,1,,,,,0,,,72,106
34560,note_on,,,,,192,0,3,,,,,2,,,52,90
34560,note_on,,,,,192,0,4,,,,,3,,,48,84
34560,note_on,,,,,0,0,2,,,,,1,,,55,93
34560,note_on,,,,,192,0,2,,,,,1,,,64,93
34560,note_off,,,,,128,0,1,,,,,0,,,71,0
34688,note_on,,,,,0,0,4,,,,,3,,,50,84
34688,note_off,,,,,128,0,4,,,,,3,,,48,0
34688,note_on,,,,,0,0,2,,,,,1,,,55,93
34688,note_on,,,,,0,0,3,,,,,2,,,53,90
34688,note_off,,,,,128,0,3,,,,,2,,,52,0
34688,note_off,,,,,128,0,2,,,,,1,,,64,0
34688,note_off,,,,,0,0,2,,,,,1,,,55,0
34688,note_on,,,,,0,0,2,,,,,1,,,67,93
34816,note_off,,,,,128,0,3,,,,,2,,,53,0
34816,note_off,,,,,128,0,4,,,,,3,,,50,0
34816,note_on,,,,,0,0,4,,,,,3,,,52,84
34816,note_on,,,,,0,0,3,,,,,2,,,55,90
34816,note_off,,,,,128,0,2,,,,,1,,,67,0
34816,note_off,,,,,0,0,2,,,,,1,,,55,0
34816,note_on,,,,,0,0,2,,,,,1,,,55,93
34816,note_on,,,,,0,0,2,,,,,1,,,67,93
34944,note_off,,,,,128,0,4,,,,,3,,,52,0
34944,note_on,,,,,0,0,4,,,,,3,,,52,84
34944,note_off,,,,,128,0,3,,,,,2,,,55,0
34944,note_on,,,,,0,0,2,,,,,1,,,67,93
34944,note_on,,,,,0,0,3,,,,,2,,,55,90
34944,note_off,,,,,384,0,1,,,,,0,,,72,0
34944,note_on,,,,,0,0,1,,,,,0,,,84,106
34944,note_off,,,,,128,0,2,,,,,1,,,67,0
34944,note_off,,,,,0,0,2,,,,,1,,,55,0
34944,note_on,,,,,0,0,2,,,,,1,,,55,93
35072,note_on,,,,,0,0,2,,,,,1,,,67,93
35072,note_off,,,,,0,0,2,,,,,1,,,55,0
35072,note_off,,,,,128,0,2,,,,,1,,,67,0
35072,note_on,,,,,0,0,2,,,,,1,,,55,93
35072,note_on,,,,,0,0,3,,,,,2,,,57,90
35072,note_off,,,,,128,0,4,,,,,3,,,52,0
35072,note_on,,,,,0,0,4,,,,,3,,,53,84
35072,note_off,,,,,128,0,3,,,,,2,,,55,0
35200,note_off,,,,,128,0,4,,,,,3,,,53,0
35200,note_on,,,,,0,0,4,,,,,3,,,52,84
35200,note_off,,,,,128,0,2,,,,,1,,,55,0
35200,note_off,,,,,0,0,2,,,,,1,,,67,0
35200,note_on,,,,,0,0,3,,,,,2,,,55,90
35200,note_on,,,,,0,0,2,,,,,1,,,55,93
35200,note_on,,,,,0,0,2,,,,,1,,,67,93
35200,note_off,,,,,128,0,3,,,,,2,,,57,0
35328,note_off,,,,,128,0,2,,,,,1,,,55,0
35328,note_off,,,,,0,0,2,,,,,1,,,67,0
35328,note_on,,,,,0,0,2,,,,,1,,,55,93
35328,note_on,,,,,0,0,2,,,,,1,,,67,93
35328,note_on,,,,,0,0,4,,,,,3,,,50,84
35328,note_on,,,,,0,0,3,,,,,2,,,53,90
35328,note_off,,,,,128,0,3,,,,,2,,,55,0
35328,note_off,,,,,384,0,1,,,,,0,,,84,0
35328,note_on,,,,,0,0,1,,,,,0,,,83,106
35328,note_off,,,,,128,0,4,,,,,3,,,52,0
35456,note_on,,,,,0,0,3,,,,,2,,,55,90
35456,note_off,,,,,128,0,3,,,,,2,,,53,0
35456,note_on,,,,,0,0,2,,,,,1,,,67,93
35456,note_off,,,,,128,0,2,,,,,1,,,55,0
35456,note_off,,,,,0,0,2,,,,,1,,,67,0
35456,note_off,,,,,128,0,1,,,,,0,,,83,0
35456,note_on,,,,,0,0,4,,,,,3,,,52,84
35456,note_off,,,,,128,0,4,,,,,3,,,50,0
35456,note_on,,,,,0,0,1,,,,,0,,,79,106
35456,note_on,,,,,0,0,2,,,,,1,,,55,93
35584,note_off,,,,,128,0,1,,,,,0,,,79,0
35584,note_on,,,,,0,0,1,,,,,0,,,83,106
35584,note_off,,,,,0,0,2,,,,,1,,,67,0
35584,note_on,,,,,0,0,2,,,,,1,,,55,93
35584,note_on,,,,,0,0,2,,,,,1,,,67,93
35584,note_on,,,,,0,0,4,,,,,3,,,50,84
35584,note_off,,,,,128,0,4,,,,,3,,,52,0
35584,note_off,,,,,128,0,2,,,,,1,,,55,0
35584,note_off,,,,,128,0,3,,,,,2,,,55,0
35584,note_on,,,,,0,0,3,,,,,2,,,53,90
35712,note_on,,,,,0,0,2,,,,,1,,,67,93
35712,note_off,,,,,128,0,1,,,,,0,,,83,0
35712,note_on,,,,,0,0,1,,,,,0,,,84,106
35712,note_off,,,,,128,0,2,,,,,1,,,55,0
35712,note_on,,,,,0,0,4,,,,,3,,,48,84
35712,note_off,,,,,128,0,4,,,,,3,,,50,0
35712,note_on,,,,,0,0,2,,,,,1,,,55,93
35712,note_on,,,,,0,0,3,,,,,2,,,52,90
35712,note_off,,,,,128,0,3,,,,,2,,,53,0
35712,note_off,,,,,0,0,2,,,,,1,,,67,0
35840,note_on,,,,,0,0,2,,,,,1,,,67,93
35840,note_on,,,,,0,0,2,,,,,1,,,55,93
35840,note_off,,,,,0,0,2,,,,,1,,,67,0
35840,note_off,,,,,128,0,2,,,,,1,,,55,0
35840,note_off,,,,,128,0,4,,,,,3,,,48,0
35840,note_on,,,,,0,0,4,,,,,3,,,50,84
35840,note_off,,,,,128,0,3,,,,,2,,,52,0
35840,note_on,,,,,0,0,3,,,,,2,,,53,90
35968,note_off,,,,,0,0,2,,,,,1,,,67,0
35968,note_on,,,,,0,0,2,,,,,1,,,67,93
35968,note_on,,,,,0,0,4,,,,,3,,,52,84
35968,note_off,,,,,128,0,4,,,,,3,,,50,0
35968,note_off,,,,,128,0,3,,,,,2,,,53,0
35968,note_on,,,,,0,0,3,,,,,2,,,55,90
35968,note_off,,,,,128,0,2,,,,,1,,,55,0
35968,note_on,,,,,0,0,2,,,,,1,,,55,93
36096,note_off,,,,,128,0,2,,,,,1,,,55,0
36096,note_off,,,,,0,0,2,,,,,1,,,67,0
36096,note_on,,,,,0,0,2,,,,,1,,,55,93
36096,note_on,,,,,0,0,4,,,,,3,,,52,84
36096,note_off,,,,,128,0,4,,,,,3,,,52,0
36096,note_on,,,,,0,0,3,,,,,2,,,55,90
36096,note_off,,,,,128,0,3,,,,,2,,,55,0
36096,note_on,,,,,0,0,1,,,,,0,,,84,106
36096,note_off,,,,,384,0,1,,,,,0,,,84,0
36096,note_on,,,,,0,0,2,,,,,1,,,67,93
36224,note_off,,,,,128,0,3,,,,,2,,,55,0
36224,note_on,,,,,0,0,3,,,,,2,,,57,90
36224,note_off,,,,,128,0,2,,,,,1,,,55,0
36224,note_off,,,,,0,0,2,,,,,1,,,67,0
36224,note_on,,,,,0,0,2,,,,,1,,,67,93
36224,note_on,,,,,0,0,2,,,,,1,,,55,93
36224,note_off,,,,,128,0,4,,,,,3,,,52,0
36224,note_on,,,,,0,0,4,,,,,3,,,53,84
36352,note_on,,,,,0,0,2,,,,,1,,,67,93
36352,note_on,,,,,0,0,2,,,,,1,,,55,93
36352,note_on,,,,,0,0,4,,,,,3,,,52,84
36352,note_off,,,,,128,0,3,,,,,2,,,57,0
36352,note_on,,,,,0,0,3,,,,,2,,,55,90
36352,note_off,,,,,0,0,2,,,,,1,,,55,0
36352,note_off,,,,,128,0,2,,,,,1,,,67,0
36352,note_off,,,,,128,0,4,,,,,3,,,53,0
36480,note_off,,,,,128,0,2,,,,,1,,,55,0
36480,note_on,,,,,0,0,2,,,,,1,,,67,93
36480,note_off,,,,,128,0,4,,,,,3,,,52,0
36480,note_off,,,,,0,0,2,,,,,1,,,67,0
36480,note_off,,,,,128,0,3,,,,,2,,,55,0
36480,note_on,,,,,0,0,4,,,,,3,,,50,84
36480,note_on,,,,,0,0,2,,,,,1,,,55,93
36480,note_on,,,,,0,0,3,,,,,2,,,53,90
36480,note_off,,,,,384,0,1,,,,,0,,,84,0
36480,note_on,,,,,0,0,1,,,,,0,,,83,106
36608,note_off,,,,,128,0,2,,,,,1,,,55,0
36608,note_off,,,,,0,0,2,,,,,1,,,67,0
36608,note_on,,,,,0,0,2,,,,,1,,,67,93
36608,note_on,,,,,0,0,2,,,,,1,,,55,93
36608,note_on,,,,,0,0,3,,,,,2,,,55,90
36608,note_on,,,,,0,0,1,,,,,0,,,79,106
36608,note_off,,,,,128,0,3,,,,,2,,,53,0
36608,note_off,,,,,128,0,4,,,,,3,,,50,0
36608,note_on,,,,,0,0,4,,,,,3,,,52,84
36608,note_off,,,,,128,0,1,,,,,0,,,83,0
36736,note_off,,,,,128,0,1,,,,,0,,,79,0
36736,note_on,,,,,0,0,4,,,,,3,,,50,84
36736,note_on,,,,,0,0,1,,,,,0,,,83,106
36736,note_on,,,,,0,0,3,,,,,2,,,53,90
36736,note_on,,,,,0,0,2,,,,,1,,,67,93
36736,note_on,,,,,0,0,2,,,,,1,,,55,93
36736,note_off,,,,,0,0,2,,,,,1,,,55,0
36736,note_off,,,,,128,0,2,,,,,1,,,67,0
36736,note_off,,,,,128,0,3,,,,,2,,,55,0
36736,note_off,,,,,128,0,4,,,,,3,,,52,0
36864,note_on,,,,,0,0,1,,,,,0,,,84,106
36864,note_off,,,,,128,0,1,,,,,0,,,83,0
36864,note_off,,,,,0,0,2,,,,,1,,,67,0
36864,note_off,,,,,128,0,2,,,,,1,,,55,0
36864,note_on,,,,,0,0,3,,,,,2,,,52,90
36864,note_on,,,,,0,0,4,,,,,3,,,48,84
36864,note_off,,,,,128,0,3,,,,,2,,,53,0
36864,note_off,,,,,128,0,4,,,,,3,,,50,0
36864,note_on,,,,,0,0,2,,,,,1,,,67,93
36864,note_on,,,,,0,0,2,,,,,1,,,55,93
36992,note_on,,,,,0,0,2,,,,,1,,,55,93
36992,note_off,,,,,0,0,2,,,,,1,,,67,0
36992,note_on,,,,,0,0,3,,,,,2,,,53,90
36992,note_on,,,,,0,0,4,,,,,3,,,50,84
36992,note_off,,,,,128,0,4,,,,,3,,,48,0
36992,note_off,,,,,128,0,2,,,,,1,,,55,0
36992,note_off,,,,,128,0,1,,,,,0,,,84,0
36992,note_on,,,,,0,0,1,,,,,0,,,84,106
36992,note_on,,,,,0,0,2,,,,,1,,,67,93
36992,note_off,,,,,128,0,3,,,,,2,,,52,0
37120,note_on,,,,,0,0,3,,,,,2,,,55,90
37120,note_off,,,,,128,0,3,,,,,2,,,53,0
37120,note_off,,,,,128,0,1,,,,,0,,,84,0
37120,note_on,,,,,0,0,2,,,,,1,,,67,93
37120,note_on,,,,,0,0,2,,,,,1,,,55,93
37120,note_off,,,,,0,0,2,,,,,1,,,55,0
37120,note_off,,,,,128,0,4,,,,,3,,,50,0
37120,note_on,,,,,0,0,4,,,,,3,,,52,84
37120,note_off,,,,,128,0,2,,,,,1,,,67,0
37120,note_on,,,,,0,0,1,,,,,0,,,84,106
37248,note_off,,,,,128,0,3,,,,,2,,,55,0
37248,note_on,,,,,0,0,3,,,,,2,,,55,90
37248,note_off,,,,,128,0,1,,,,,0,,,84,0
37248,note_on,,,,,0,0,2,,,,,1,,,55,93
37248,note_on,,,,,0,0,2,,,,,1,,,67,93
37248,note_off,,,,,0,0,2,,,,,1,,,67,0
37248,note_on,,,,,0,0,1,,,,,0,,,84,106
37248,note_off,,,,,128,0,2,,,,,1,,,55,0
37248,note_on,,,,,0,0,4,,,,,3,,,52,84
37248,note_off,,,,,128,0,4,,,,,3,,,52,0
37376,note_off,,,,,0,0,2,,,,,1,,,55,0
37376,note_off,,,,,128,0,2,,,,,1,,,67,0
37376,note_on,,,,,0,0,2,,,,,1,,,67,93
37376,note_on,,,,,0,0,2,,,,,1,,,55,93
37376,note_off,,,,,128,0,1,,,,,0,,,84,0
37376,note_on,,,,,0,0,1,,,,,0,,,84,106
37376,note_on,,,,,0,0,4,,,,,3,,,53,84
37376,note_off,,,,,128,0,4,,,,,3,,,52,0
37376,note_on,,,,,0,0,3,,,,,2,,,57,90
37376,note_off,,,,,128,0,3,,,,,2,,,55,0
37504,note_off,,,,,128,0,4,,,,,3,,,53,0
37504,note_on,,,,,0,0,3,,,,,2,,,55,90
37504,note_off,,,,,128,0,3,,,,,2,,,57,0
37504,note_on,,,,,0,0,4,,,,,3,,,52,84
37504,note_off,,,,,128,0,2,,,,,1,,,67,0
37504,note_on,,,,,0,0,2,,,,,1,,,67,93
37504,note_on,,,,,0,0,2,,,,,1,,,55,93
37504,note_on,,,,,0,0,1,,,,,0,,,84,106
37504,note_off,,,,,128,0,1,,,,,0,,,84,0
37504,note_off,,,,,0,0,2,,,,,1,,,55,0
37632,note_off,,,,,128,0,2,,,,,1,,,67,0
37632,note_off,,,,,0,0,2,,,,,1,,,55,0
37632,note_on,,,,,0,0,2,,,,,1,,,67,93
37632,note_off,,,,,128,0,3,,,,,2,,,55,0
37632,note_on,,,,,0,0,3,,,,,2,,,53,90
37632,note_on,,,,,0,0,2,,,,,1,,,55,93
37632,note_off,,,,,128,0,4,,,,,3,,,52,0
37632,note_on,,,,,0,0,4,,,,,3,,,50,84
37632,note_on,,,,,0,0,1,,,,,0,,,83,106
37632,note_off,,,,,128,0,1,,,,,0,,,84,0
37760,note_on,,,,,0,0,3,,,,,2,,,55,90
37760,note_off,,,,,128,0,3,,,,,2,,,53,0
37760,note_on,,,,,0,0,1,,,,,0,,,79,106
37760,note_off,,,,,128,0,1,,,,,0,,,83,0
37760,note_off,,,,,128,0,2,,,,,1,,,67,0
37760,note_off,,,,,0,0,2,,,,,1,,,55,0
37760,note_off,,,,,128,0,4,,,,,3,,,50,0
37760,note_on,,,,,0,0,4,,,,,3,,,52,84
37760,note_on,,,,,0,0,2,,,,,1,,,67,93
37760,note_on,,,,,0,0,2,,,,,1,,,55,93
37888,note_off,,,,,128,0,4,,,,,3,,,52,0
37888,note_off,,,,,128,0,1,,,,,0,,,79,0
37888,note_on,,,,,0,0,1,,,,,0,,,83,106
37888,note_on,,,,,0,0,3,,,,,2,,,53,90
37888,note_on,,,,,0,0,4,,,,,3,,,50,84
37888,note_off,,,,,128,0,3,,,,,2,,,55,0
37888,note_off,,,,,128,0,2,,,,,1,,,55,0
37888,note_off,,,,,0,0,2,,,,,1,,,67,0
37888,note_on,,,,,0,0,2,,,,,1,,,67,93
37888,note_on,,,,,0,0,2,,,,,1,,,55,93
38016,note_on,,,,,0,0,1,,,,,0,,,84,106
38016,note_off,,,,,128,0,4,,,,,3,,,50,0
38016,note_on,,,,,0,0,2,,,,,1,,,67,93
38016,note_off,,,,,128,0,1,,,,,0,,,83,0
38016,note_off,,,,,0,0,2,,,,,1,,,55,0
38016,note_on,,,,,0,0,3,,,,,2,,,52,90
38016,note_off,,,,,128,0,3,,,,,2,,,53,0
38016,note_on,,,,,0,0,4,,,,,3,,,48,84
38016,note_on,,,,,0,0,2,,,,,1,,,55,93
38016,note_off,,,,,128,0,2,,,,,1,,,67,0
38208,note_off,,,,,192,0,3,,,,,2,,,52,0
38208,note_off,,,,,192,0,4,,,,,3,,,48,0
38208,note_off,,,,,192,0,2,,,,,1,,,55,0
38208,note_off,,,,,0,0,2,,,,,1,,,67,0
38208,note_off,,,,,192,0,1,,,,,0,,,84,0
38400,note_on,,,,,192,0,2,,,,,1,,,55,93
38400,note_on,,,,,0,0,1,,,,,0,,,76,106
38400,note_on,,,,,0,0,1,,,,,0,,,67,106
38400,note_on,,,,,0,0,1,,,,,0,,,84,106
38400,note_on,,,,,192,0,4,,,,,3,,,36,84
38400,note_on,,,,,0,0,2,,,,,1,,,64,93
38400,note_on,,,,,192,0,3,,,,,2,,,48,90
38400,note_on,,,,,0,0,3,,,,,2,,,60,90
38400,note_on,,,,,192,0,1,,,,,0,,,60,106
38592,note_off,,,,,192,0,4,,,,,3,,,36,0
38592,note_off,,,,,192,0,3,,,,,2,,,48,0
38592,note_off,,,,,0,0,3,,,,,2,,,60,0
38592,note_off,,,,,192,0,2,,,,,1,,,55,0
38592,note_off,,,,,0,0,1,,,,,0,,,84,0
38592,note_off,,,,,0,0,1,,,,,0,,,76,0
38592,note_off,,,,,0,0,1,,,,,0,,,67,0
38592,note_off,,,,,192,0,1,,,,,0,,,60,0
38592,note_off,,,,,0,0,2,,,,,1,,,64,0
38784,note_on,,,,,192,0,3,,,,,2,,,60,90
38784,note_on,,,,,192,0,2,,,,,1,,,64,93
38912,note_off,,,,,128,0,2,,,,,1,,,64,0
38912,note_on,,,,,0,0,3,,,,,2,,,59,90
38912,note_off,,,,,128,0,3,,,,,2,,,60,0
38912,note_on,,,,,0,0,2,,,,,1,,,63,93
39040,note_off,,,,,128,0,2,,,,,1,,,63,0
39040,note_on,,,,,0,0,3,,,,,2,,,60,90
39040,note_off,,,,,128,0,3,,,,,2,,,59,0
39040,note_on,,,,,0,0,2,,,,,1,,,64,93
39168,note_on,,,,,0,0,2,,,,,1,,,67,93
39168,note_off,,,,,128,0,2,,,,,1,,,64,0
39168,note_on,,,,,0,0,3,,,,,2,,,64,90
39168,note_off,,,,,128,0,3,,,,,2,,,60,0
39552,note_on,,,,,960,0,1,,,,,0,,,79,106
39616,note_off,,,,,64,0,1,,,,,0,,,79,0
39680,note_on,,,,,64,0,1,,,,,0,,,78,106
39744,note_off,,,,,64,0,1,,,,,0,,,78,0
39808,note_on,,,,,64,0,1,,,,,0,,,76,106
39872,note_off,,,,,64,0,1,,,,,0,,,76,0
39936,note_on,,,,,0,0,2,,,,,1,,,64,93
39936,note_on,,,,,1344,0,4,,,,,3,,,48,84
39936,note_off,,,,,768,0,2,,,,,1,,,67,0
39936,note_on,,,,,64,0,1,,,,,0,,,75,106
40000,note_off,,,,,64,0,1,,,,,0,,,75,0
40064,note_on,,,,,64,0,1,,,,,0,,,76,106
40128,note_off,,,,,64,0,1,,,,,0,,,76,0
40192,note_on,,,,,64,0,1,,,,,0,,,70,106
40256,note_off,,,,,64,0,1,,,,,0,,,70,0
40320,note_off,,,,,1152,0,3,,,,,2,,,64,0
40320,note_off,,,,,384,0,4,,,,,3,,,48,0
40320,note_on,,,,,0,0,4,,,,,3,,,47,84
40320,note_on,,,,,0,0,2,,,,,1,,,66,93
40320,note_on,,,,,64,0,1,,,,,0,,,71,106
40320,note_off,,,,,384,0,2,,,,,1,,,64,0
40320,note_on,,,,,0,0,3,,,,,2,,,63,90
40384,note_off,,,,,64,0,1,,,,,0,,,71,0
40448,note_on,,,,,64,0,1,,,,,0,,,73,106
40512,note_off,,,,,64,0,1,,,,,0,,,73,0
40576,note_on,,,,,64,0,1,,,,,0,,,71,106
40640,note_off,,,,,64,0,1,,,,,0,,,71,0
40704,note_off,,,,,384,0,2,,,,,1,,,66,0
40704,note_off,,,,,384,0,4,,,,,3,,,47,0
40704,note_off,,,,,384,0,3,,,,,2,,,63,0
40704,note_on,,,,,64,0,1,,,,,0,,,69,106
40768,note_off,,,,,64,0,1,,,,,0,,,69,0
40832,note_on,,,,,64,0,1,,,,,0,,,68,106
40896,note_off,,,,,64,0,1,,,,,0,,,68,0
40960,note_on,,,,,64,0,1,,,,,0,,,66,106
41024,note_off,,,,,64,0,1,,,,,0,,,66,0
41088,note_on,,,,,384,0,2,,,,,1,,,64,93
41088,note_on,,,,,384,0,3,,,,,2,,,52,90
41088,note_on,,,,,384,0,4,,,,,3,,,40,84
41088,note_on,,,,,64,0,1,,,,,0,,,64,106
41216,note_on,,,,,0,0,3,,,,,2,,,56,90
41216,note_off,,,,,128,0,3,,,,,2,,,52,0
41216,note_on,,,,,0,0,2,,,,,1,,,68,93
41216,note_on,,,,,0,0,4,,,,,3,,,44,84
41216,note_off,,,,,128,0,2,,,,,1,,,64,0
41216,note_on,,,,,0,0,1,,,,,0,,,68,106
41216,note_off,,,,,128,0,1,,,,,0,,,64,0
41216,note_off,,,,,128,0,4,,,,,3,,,40,0
41344,note_off,,,,,128,0,2,,,,,1,,,68,0
41344,note_on,,,,,0,0,2,,,,,1,,,71,93
41344,note_off,,,,,128,0,3,,,,,2,,,56,0
41344,note_on,,,,,0,0,3,,,,,2,,,59,90
41344,note_on,,,,,0,0,4,,,,,3,,,47,84
41344,note_on,,,,,0,0,1,,,,,0,,,71,106
41344,note_off,,,,,128,0,1,,,,,0,,,68,0
41344,note_off,,,,,128,0,4,,,,,3,,,44,0
41472,note_off,,,,,128,0,3,,,,,2,,,59,0
41472,note_off,,,,,128,0,2,,,,,1,,,71,0
41472,note_off,,,,,128,0,4,,,,,3,,,47,0
41472,note_on,,,,,0,0,4,,,,,3,,,52,84
41472,note_on,,,,,0,0,3,,,,,2,,,64,90
41472,note_on,,,,,0,0,2,,,,,1,,,76,93
41472,note_off,,,,,128,0,1,,,,,0,,,71,0
41472,note_on,,,,,0,0,1,,,,,0,,,76,106
41664,note_off,,,,,192,0,4,,,,,3,,,52,0
41664,note_off,,,,,192,0,1,,,,,0,,,76,0
41664,note_off,,,,,192,0,2,,,,,1,,,76,0
41664,note_off,,,,,192,0,3,,,,,2,,,64,0
41856,note_on,,,,,192,0,1,,,,,0,,,85,106
41856,note_on,,,,,192,0,2,,,,,1,,,81,93
41856,note_on,,,,,192,0,3,,,,,2,,,75,90
41952,note_off,,,,,96,0,2,,,,,1,,,81,0
41952,note_off,,,,,96,0,1,,,,,0,,,85,0
41952,note_off,,,,,96,0,3,,,,,2,,,75,0
42048,note_on,,,,,96,0,2,,,,,1,,,80,93
42048,note_on,,,,,96,0,1,,,,,0,,,83,106
42048,note_on,,,,,96,0,3,,,,,2,,,76,90
42144,note_off,,,,,96,0,2,,,,,1,,,80,0
42144,note_off,,,,,96,0,3,,,,,2,,,76,0
42144,note_off,,,,,96,0,1,,,,,0,,,83,0
42240,note_on,,,,,96,0,1,,,,,0,,,85,106
42240,note_on,,,,,96,0,2,,,,,1,,,81,93
42240,note_on,,,,,96,0,3,,,,,2,,,75,90
42336,note_off,,,,,96,0,2,,,,,1,,,81,0
42336,note_off,,,,,96,0,1,,,,,0,,,85,0
42336,note_off,,,,,96,0,3,,,,,2,,,75,0
42432,note_on,,,,,96,0,2,,,,,1,,,80,93
42432,note_on,,,,,96,0,1,,,,,0,,,83,106
42432,note_on,,,,,96,0,3,,,,,2,,,76,90
42528,note_off,,,,,96,0,2,,,,,1,,,80,0
42528,note_off,,,,,96,0,3,,,,,2,,,76,0
42528,note_off,,,,,96,0,1,,,,,0,,,83,0
42624,note_on,,,,,96,0,1,,,,,0,,,88,106
42624,note_on,,,,,96,0,2,,,,,1,,,68,93
42624,note_on,,,,,96,0,3,,,,,2,,,64,90
43008,note_off,,,,,384,0,3,,,,,2,,,64,0
43008,note_on,,,,,0,0,3,,,,,2,,,68,90
43008,note_on,,,,,0,0,1,,,,,0,,,83,106
43008,note_off,,,,,384,0,1,,,,,0,,,88,0
43008,note_off,,,,,384,0,2,,,,,1,,,68,0
43008,note_on,,,,,0,0,2,,,,,1,,,71,93
43392,note_on,,,,,0,0,3,,,,,2,,,59,90
43392,note_off,,,,,384,0,2,,,,,1,,,71,0
43392,note_on,,,,,1728,0,4,,,,,3,,,44,84
43392,note_off,,,,,384,0,3,,,,,2,,,68,0
43392,note_on,,,,,0,0,2,,,,,1,,,64,93
43392,note_off,,,,,384,0,1,,,,,0,,,83,0
43488,note_off,,,,,96,0,2,,,,,1,,,64,0
43488,note_off,,,,,96,0,3,,,,,2,,,59,0
43488,note_off,,,,,96,0,4,,,,,3,,,44,0
43584,note_on,,,,,96,0,4,,,,,3,,,45,84
43584,note_on,,,,,96,0,2,,,,,1,,,66,93
43584,note_on,,,,,96,0,3,,,,,2,,,61,90
43680,note_off,,,,,96,0,2,,,,,1,,,66,0
43680,note_off,,,,,96,0,3,,,,,2,,,61,0
43680,note_off,,,,,96,0,4,,,,,3,,,45,0
43776,note_on,,,,,96,0,3,,,,,2,,,63,90
43776,note_on,,,,,96,0,4,,,,,3,,,47,84
43776,note_on,,,,,96,0,2,,,,,1,,,68,93
43872,note_off,,,,,96,0,3,,,,,2,,,63,0
43872,note_off,,,,,96,0,4,,,,,3,,,47,0
43872,note_off,,,,,96,0,2,,,,,1,,,68,0
43968,note_on,,,,,96,0,2,,,,,1,,,69,93
43968,note_on,,,,,96,0,3,,,,,2,,,64,90
43968,note_on,,,,,96,0,4,,,,,3,,,49,84
44064,note_off,,,,,96,0,3,,,,,2,,,64,0
44064,note_off,,,,,96,0,2,,,,,1,,,69,0
44064,note_off,,,,,96,0,4,,,,,3,,,49,0
44160,note_on,,,,,96,0,3,,,,,2,,,66,90
44160,note_on,,,,,96,0,4,,,,,3,,,51,84
44160,note_on,,,,,96,0,2,,,,,1,,,71,93
44256,note_off,,,,,96,0,4,,,,,3,,,51,0
44256,note_off,,,,,96,0,2,,,,,1,,,71,0
44256,note_off,,,,,96,0,3,,,,,2,,,66,0
44352,note_on,,,,,96,0,4,,,,,3,,,52,84
44352,note_on,,,,,960,0,1,,,,,0,,,80,106
44352,note_on,,,,,96,0,3,,,,,2,,,68,90
44352,note_on,,,,,96,0,2,,,,,1,,,73,93
44448,note_off,,,,,96,0,1,,,,,0,,,80,0
44448,note_off,,,,,96,0,3,,,,,2,,,68,0
44448,note_off,,,,,96,0,2,,,,,1,,,73,0
44448,note_off,,,,,96,0,4,,,,,3,,,52,0
44544,note_on,,,,,96,0,1,,,,,0,,,78,106
44544,note_on,,,,,96,0,3,,,,,2,,,69,90
44544,note_on,,,,,96,0,2,,,,,1,,,75,93
44544,note_on,,,,,96,0,4,,,,,3,,,54,84
44640,note_off,,,,,96,0,3,,,,,2,,,69,0
44640,note_off,,,,,96,0,4,,,,,3,,,54,0
44640,note_off,,,,,96,0,1,,,,,0,,,78,0
44640,note_off,,,,,96,0,2,,,,,1,,,75,0
44736,note_on,,,,,96,0,4,,,,,3,,,56,84
44736,note_on,,,,,96,0,1,,,,,0,,,75,106
44736,note_on,,,,,96,0,2,,,,,1,,,72,93
44736,note_on,,,,,96,0,3,,,,,2,,,66,90
44832,note_off,,,,,96,0,3,,,,,2,,,66,0
44832,note_off,,,,,96,0,2,,,,,1,,,72,0
44832,note_off,,,,,96,0,4,,,,,3,,,56,0
44832,note_off,,,,,96,0,1,,,,,0,,,75,0
44928,note_on,,,,,96,0,3,,,,,2,,,64,90
44928,note_on,,,,,96,0,1,,,,,0,,,73,106
44928,note_on,,,,,96,0,2,,,,,1,,,73,93
44928,note_on,,,,,96,0,4,,,,,3,,,49,84
45120,note_off,,,,,192,0,4,,,,,3,,,49,0
45120,note_off,,,,,192,0,1,,,,,0,,,73,0
45120,note_off,,,,,192,0,2,,,,,1,,,73,0
45120,note_off,,,,,192,0,3,,,,,2,,,64,0
45312,note_on,,,,,192,0,1,,,,,0,,,73,106
45312,note_on,,,,,192,0,2,,,,,1,,,68,93
45312,note_on,,,,,192,0,4,,,,,3,,,49,84
45312,note_on,,,,,192,0,3,,,,,2,,,64,90
45504,note_off,,,,,192,0,4,,,,,3,,,49,0
45504,note_off,,,,,192,0,2,,,,,1,,,68,0
45504,note_off,,,,,192,0,1,,,,,0,,,73,0
45504,note_off,,,,,192,0,3,,,,,2,,,64,0
45696,note_on,,,,,192,0,3,,,,,2,,,57,90
45696,note_on,,,,,192,0,2,,,,,1,,,57,93
45696,note_on,,,,,192,0,4,,,,,3,,,45,84
45696,note_on,,,,,192,0,1,,,,,0,,,57,106
45824,note_on,,,,,0,0,4,,,,,3,,,49,84
45824,note_off,,,,,128,0,4,,,,,3,,,45,0
45824,note_on,,,,,0,0,3,,,,,2,,,61,90
45824,note_off,,,,,128,0,3,,,,,2,,,57,0
45824,note_on,,,,,0,0,2,,,,,1,,,61,93
45824,note_off,,,,,128,0,2,,,,,1,,,57,0
45824,note_off,,,,,128,0,1,,,,,0,,,57,0
45824,note_on,,,,,0,0,1,,,,,0,,,61,106
45952,note_on,,,,,0,0,2,,,,,1,,,64,93
45952,note_off,,,,,128,0,2,,,,,1,,,61,0
45952,note_on,,,,,0,0,1,,,,,0,,,64,106
45952,note_off,,,,,128,0,1,,,,,0,,,61,0
45952,note_on,,,,,0,0,3,,,,,2,,,64,90
45952,note_off,,,,,128,0,4,,,,,3,,,49,0
45952,note_on,,,,,0,0,4,,,,,3,,,52,84
45952,note_off,,,,,128,0,3,,,,,2,,,61,0
46080,note_off,,,,,128,0,4,,,,,3,,,52,0
46080,note_on,,,,,0,0,1,,,,,0,,,69,106
46080,note_off,,,,,128,0,3,,,,,2,,,64,0
46080,note_on,,,,,0,0,3,,,,,2,,,69,90
46080,note_on,,,,,0,0,2,,,,,1,,,69,93
46080,note_off,,,,,128,0,2,,,,,1,,,64,0
46080,note_off,,,,,128,0,1,,,,,0,,,64,0
46080,note_on,,,,,0,0,4,,,,,3,,,57,84
46272,note_off,,,,,192,0,4,,,,,3,,,57,0
46272,note_off,,,,,192,0,2,,,,,1,,,69,0
46272,note_off,,,,,192,0,1,,,,,0,,,69,0
46272,note_off,,,,,192,0,3,,,,,2,,,69,0
46464,note_on,,,,,192,0,3,,,,,2,,,59,90
46464,note_on,,,,,192,0,2,,,,,1,,,74,93
46464,note_on,,,,,192,0,4,,,,,3,,,56,84
46464,note_on,,,,,192,0,1,,,,,0,,,78,106
46560,note_off,,,,,96,0,3,,,,,2,,,59,0
46560,note_off,,,,,96,0,4,,,,,3,,,56,0
46560,note_off,,,,,96,0,1,,,,,0,,,78,0
46560,note_off,,,,,96,0,2,,,,,1,,,74,0
46656,note_on,,,,,96,0,1,,,,,0,,,76,106
46656,note_on,,,,,96,0,4,,,,,3,,,57,84
46656,note_on,,,,,96,0,2,,,,,1,,,73,93
46656,note_on,,,,,96,0,3,,,,,2,,,61,90
46752,note_off,,,,,96,0,1,,,,,0,,,76,0
46752,note_off,,,,,96,0,2,,,,,1,,,73,0
46752,note_off,,,,,96,0,3,,,,,2,,,61,0
46752,note_off,,,,,96,0,4,,,,,3,,,57,0
46848,note_on,,,,,96,0,1,,,,,0,,,78,106
46848,note_on,,,,,96,0,3,,,,,2,,,59,90
46848,note_on,,,,,96,0,4,,,,,3,,,56,84
46848,note_on,,,,,96,0,2,,,,,1,,,74,93
46944,note_off,,,,,96,0,3,,,,,2,,,59,0
46944,note_off,,,,,96,0,4,,,,,3,,,56,0
46944,note_off,,,,,96,0,1,,,,,0,,,78,0
46944,note_off,,,,,96,0,2,,,,,1,,,74,0
47040,note_on,,,,,96,0,4,,,,,3,,,57,84
47040,note_on,,,,,96,0,2,,,,,1,,,73,93
47040,note_on,,,,,96,0,3,,,,,2,,,61,90
47040,note_on,,,,,96,0,1,,,,,0,,,76,106
47136,note_off,,,,,96,0,2,,,,,1,,,73,0
47136,note_off,,,,,96,0,1,,,,,0,,,76,0
47136,note_off,,,,,96,0,3,,,,,2,,,61,0
47136,note_off,,,,,96,0,4,,,,,3,,,57,0
47232,note_on,,,,,96,0,1,,,,,0,,,85,106
47232,note_on,,,,,96,0,2,,,,,1,,,75,93
47232,note_on,,,,,96,0,4,,,,,3,,,45,84
47232,note_on,,,,,96,0,3,,,,,2,,,59,90
47616,note_on,,,,,0,0,3,,,,,2,,,66,90
47616,note_on,,,,,0,0,1,,,,,0,,,75,106
47616,note_off,,,,,384,0,1,,,,,0,,,85,0
47616,note_on,,,,,0,0,2,,,,,1,,,71,93
47616,note_off,,,,,384,0,2,,,,,1,,,75,0
47616,note_on,,,,,0,0,4,,,,,3,,,57,84
47616,note_off,,,,,384,0,4,,,,,3,,,45,0
47616,note_off,,,,,384,0,3,,,,,2,,,59,0
48000,note_off,,,,,384,0,3,,,,,2,,,66,0
48000,note_on,,,,,0,0,3,,,,,2,,,57,90
48000,note_on,,,,,0,0,2,,,,,1,,,63,93
48000,note_off,,,,,384,0,1,,,,,0,,,75,0
48000,note_off,,,,,384,0,2,,,,,1,,,71,0
48000,note_off,,,,,384,0,4,,,,,3,,,57,0
48000,note_on,,,,,0,0,4,,,,,3,,,54,84
48096,note_off,,,,,96,0,2,,,,,1,,,63,0
48096,note_off,,,,,96,0,3,,,,,2,,,57,0
48096,note_off,,,,,96,0,4,,,,,3,,,54,0
48192,note_on,,,,,96,0,4,,,,,3,,,56,84
48192,note_on,,,,,96,0,3,,,,,2,,,59,90
48192,note_on,,,,,96,0,2,,,,,1,,,64,93
48288,note_off,,,,,96,0,4,,,,,3,,,56,0
48288,note_off,,,,,96,0,3,,,,,2,,,59,0
48288,note_off,,,,,96,0,2,,,,,1,,,64,0
48384,note_on,,,,,96,0,4,,,,,3,,,57,84
48384,note_on,,,,,96,0,3,,,,,2,,,61,90
48384,note_on,,,,,96,0,2,,,,,1,,,66,93
48480,note_off,,,,,96,0,4,,,,,3,,,57,0
48480,note_off,,,,,96,0,2,,,,,1,,,66,0
48480,note_off,,,,,96,0,3,,,,,2,,,61,0
48576,note_on,,,,,96,0,2,,,,,1,,,68,93
48576,note_on,,,,,96,0,3,,,,,2,,,63,90
48576,note_on,,,,,96,0,4,,,,,3,,,59,84
48672,note_off,,,,,96,0,2,,,,,1,,,68,0
48672,note_off,,,,,96,0,3,,,,,2,,,63,0
48672,note_off,,,,,96,0,4,,,,,3,,,59,0
48768,note_on,,,,,96,0,2,,,,,1,,,69,93
48768,note_on,,,,,96,0,3,,,,,2,,,64,90
48768,note_on,,,,,96,0,4,,,,,3,,,61,84
48864,note_off,,,,,96,0,2,,,,,1,,,69,0
48864,note_off,,,,,96,0,3,,,,,2,,,64,0
48864,note_off,,,,,96,0,4,,,,,3,,,61,0
48960,note_on,,,,,96,0,2,,,,,1,,,68,93
48960,note_on,,,,,96,0,4,,,,,3,,,59,84
48960,note_on,,,,,96,0,3,,,,,2,,,63,90
48960,note_on,,,,,960,0,1,,,,,0,,,83,106
49056,note_off,,,,,96,0,3,,,,,2,,,63,0
49056,note_off,,,,,96,0,2,,,,,1,,,68,0
49056,note_off,,,,,96,0,4,,,,,3,,,59,0
49056,note_off,,,,,96,0,1,,,,,0,,,83,0
49152,note_on,,,,,96,0,3,,,,,2,,,64,90
49152,note_on,,,,,96,0,2,,,,,1,,,69,93
49152,note_on,,,,,96,0,4,,,,,3,,,61,84
49152,note_on,,,,,96,0,1,,,,,0,,,81,106
49248,note_off,,,,,96,0,3,,,,,2,,,64,0
49248,note_off,,,,,96,0,4,,,,,3,,,61,0
49248,note_off,,,,,96,0,2,,,,,1,,,69,0
49248,note_off,,,,,96,0,1,,,,,0,,,81,0
49344,note_on,,,,,96,0,3,,,,,2,,,66,90
49344,note_on,,,,,96,0,2,,,,,1,,,71,93
49344,note_on,,,,,96,0,1,,,,,0,,,78,106
49344,note_on,,,,,96,0,4,,,,,3,,,63,84
49440,note_off,,,,,96,0,4,,,,,3,,,63,0
49440,note_off,,,,,96,0,2,,,,,1,,,71,0
49440,note_off,,,,,96,0,3,,,,,2,,,66,0
49440,note_off,,,,,96,0,1,,,,,0,,,78,0
49536,note_on,,,,,96,0,1,,,,,0,,,76,106
49536,note_on,,,,,96,0,2,,,,,1,,,68,93
49536,note_on,,,,,96,0,4,,,,,3,,,64,84
49536,note_on,,,,,96,0,3,,,,,2,,,64,90
49664,note_on,,,,,0,0,4,,,,,3,,,59,84
49664,note_off,,,,,128,0,4,,,,,3,,,64,0
49728,note_on,,,,,0,0,2,,,,,1,,,71,93
49728,note_off,,,,,192,0,2,,,,,1,,,68,0
49792,note_on,,,,,0,0,4,,,,,3,,,56,84
49792,note_off,,,,,128,0,4,,,,,3,,,59,0
49920,note_off,,,,,128,0,4,,,,,3,,,56,0
49920,note_on,,,,,0,0,3,,,,,2,,,64,90
49920,note_on,,,,,0,0,4,,,,,3,,,52,84
49920,note_on,,,,,0,0,1,,,,,0,,,76,106
49920,note_off,,,,,384,0,3,,,,,2,,,64,0
49920,note_off,,,,,192,0,2,,,,,1,,,71,0
49920,note_on,,,,,0,0,2,,,,,1,,,68,93
49920,note_off,,,,,384,0,1,,,,,0,,,76,0
50048,note_off,,,,,128,0,3,,,,,2,,,64,0
50048,note_on,,,,,0,0,3,,,,,2,,,66,90
50112,note_off,,,,,192,0,2,,,,,1,,,68,0
50112,note_off,,,,,192,0,4,,,,,3,,,52,0
50112,note_on,,,,,0,0,2,,,,,1,,,71,93
50176,note_off,,,,,128,0,3,,,,,2,,,66,0
50176,note_on,,,,,0,0,3,,,,,2,,,68,90
50304,note_off,,,,,128,0,3,,,,,2,,,68,0
50304,note_on,,,,,192,0,4,,,,,3,,,47,84
50304,note_on,,,,,0,0,3,,,,,2,,,59,90
50304,note_on,,,,,0,0,1,,,,,0,,,83,106
50304,note_off,,,,,384,0,1,,,,,0,,,76,0
50304,note_on,,,,,0,0,2,,,,,1,,,69,93
50304,note_off,,,,,192,0,2,,,,,1,,,71,0
50432,note_on,,,,,0,0,1,,,,,0,,,81,106
50432,note_off,,,,,128,0,1,,,,,0,,,83,0
50496,note_off,,,,,192,0,3,,,,,2,,,59,0
50496,note_on,,,,,0,0,2,,,,,1,,,71,93
50496,note_off,,,,,192,0,2,,,,,1,,,69,0
50496,note_off,,,,,192,0,4,,,,,3,,,47,0
50560,note_on,,,,,0,0,1,,,,,0,,,78,106
50560,note_off,,,,,128,0,1,,,,,0,,,81,0
50688,note_off,,,,,128,0,1,,,,,0,,,78,0
50688,note_on,,,,,0,0,1,,,,,0,,,76,106
50688,note_on,,,,,192,0,3,,,,,2,,,52,90
50688,note_off,,,,,192,0,2,,,,,1,,,71,0
50688,note_on,,,,,0,0,2,,,,,1,,,68,93
50688,note_on,,,,,192,0,4,,,,,3,,,52,84
50816,note_on,,,,,0,0,4,,,,,3,,,56,84
50816,note_off,,,,,128,0,4,,,,,3,,,52,0
50880,note_on,,,,,0,0,2,,,,,1,,,71,93
50880,note_off,,,,,192,0,2,,,,,1,,,68,0
50880,note_off,,,,,192,0,3,,,,,2,,,52,0
50944,note_on,,,,,0,0,4,,,,,3,,,59,84
50944,note_off,,,,,128,0,4,,,,,3,,,56,0
51072,note_off,,,,,192,0,2,,,,,1,,,71,0
51072,note_on,,,,,0,0,2,,,,,1,,,68,93
51072,note_on,,,,,192,0,3,,,,,2,,,64,90
51072,note_on,,,,,0,0,4,,,,,3,,,64,84
51072,note_on,,,,,0,0,1,,,,,0,,,76,106
51072,note_off,,,,,128,0,4,,,,,3,,,59,0
51072,note_off,,,,,384,0,1,,,,,0,,,76,0
51200,note_on,,,,,0,0,3,,,,,2,,,66,90
51200,note_off,,,,,128,0,3,,,,,2,,,64,0
51264,note_off,,,,,192,0,4,,,,,3,,,64,0
51264,note_on,,,,,0,0,2,,,,,1,,,71,93
51264,note_off,,,,,192,0,2,,,,,1,,,68,0
51328,note_off,,,,,128,0,3,,,,,2,,,66,0
51328,note_on,,,,,0,0,3,,,,,2,,,68,90
51456,note_on,,,,,0,0,3,,,,,2,,,59,90
51456,note_off,,,,,192,0,2,,,,,1,,,71,0
51456,note_on,,,,,0,0,1,,,,,0,,,83,106
51456,note_on,,,,,0,0,2,,,,,1,,,69,93
51456,note_on,,,,,192,0,4,,,,,3,,,59,84
51456,note_off,,,,,128,0,3,,,,,2,,,68,0
51456,note_off,,,,,384,0,1,,,,,0,,,76,0
51584,note_on,,,,,0,0,1,,,,,0,,,81,106
51584,note_off,,,,,128,0,1,,,,,0,,,83,0
51648,note_off,,,,,192,0,3,,,,,2,,,59,0
51648,note_off,,,,,192,0,2,,,,,1,,,69,0
51648,note_on,,,,,0,0,2,,,,,1,,,71,93
51648,note_off,,,,,192,0,4,,,,,3,,,59,0
51712,note_off,,,,,128,0,1,,,,,0,,,81,0
51712,note_on,,,,,0,0,1,,,,,0,,,78,106
51840,note_on,,,,,192,0,4,,,,,3,,,52,84
51840,note_on,,,,,192,0,3,,,,,2,,,52,90
51840,note_on,,,,,0,0,2,,,,,1,,,68,93
51840,note_off,,,,,192,0,2,,,,,1,,,71,0
51840,note_on,,,,,0,0,1,,,,,0,,,76,106
51840,note_off,,,,,128,0,1,,,,,0,,,78,0
51968,note_on,,,,,0,0,4,,,,,3,,,56,84
51968,note_off,,,,,128,0,4,,,,,3,,,52,0
52032,note_on,,,,,0,0,2,,,,,1,,,71,93
52032,note_off,,,,,192,0,2,,,,,1,,,68,0
52032,note_off,,,,,192,0,3,,,,,2,,,52,0
52096,note_off,,,,,128,0,4,,,,,3,,,56,0
52096,note_on,,,,,0,0,4,,,,,3,,,59,84
52224,note_on,,,,,0,0,4,,,,,3,,,64,84
52224,note_on,,,,,0,0,2,,,,,1,,,68,93
52224,note_on,,,,,192,0,3,,,,,2,,,64,90
52224,note_off,,,,,128,0,4,,,,,3,,,59,0
52224,note_off,,,,,192,0,2,,,,,1,,,71,0
52352,note_on,,,,,0,0,3,,,,,2,,,66,90
52352,note_off,,,,,128,0,3,,,,,2,,,64,0
52416,note_on,,,,,0,0,2,,,,,1,,,71,93
52416,note_off,,,,,192,0,2,,,,,1,,,68,0
52416,note_off,,,,,192,0,4,,,,,3,,,64,0
52480,note_on,,,,,0,0,3,,,,,2,,,68,90
52480,note_off,,,,,128,0,3,,,,,2,,,66,0
52608,note_on,,,,,192,0,4,,,,,3,,,59,84
52608,note_on,,,,,0,0,3,,,,,2,,,59,90
52608,note_off,,,,,128,0,3,,,,,2,,,68,0
52608,note_off,,,,,192,0,2,,,,,1,,,71,0
52608,note_on,,,,,0,0,2,,,,,1,,,69,93
52608,note_off,,,,,768,0,1,,,,,0,,,76,0
52608,note_on,,,,,0,0,1,,,,,0,,,83,106
52736,note_on,,,,,0,0,1,,,,,0,,,81,106
52736,note_off,,,,,128,0,1,,,,,0,,,83,0
52800,note_off,,,,,192,0,2,,,,,1,,,69,0
52800,note_on,,,,,0,0,2,,,,,1,,,71,93
52800,note_off,,,,,192,0,4,,,,,3,,,59,0
52800,note_off,,,,,192,0,3,,,,,2,,,59,0
52864,note_on,,,,,0,0,1,,,,,0,,,78,106
52864,note_off,,,,,128,0,1,,,,,0,,,81,0
52992,note_on,,,,,0,0,1,,,,,0,,,76,106
52992,note_off,,,,,128,0,1,,,,,0,,,78,0
52992,note_on,,,,,192,0,3,,,,,2,,,64,90
52992,note_on,,,,,192,0,4,,,,,3,,,52,84
52992,note_off,,,,,192,0,2,,,,,1,,,71,0
52992,note_on,,,,,0,0,2,,,,,1,,,68,93
53120,note_on,,,,,0,0,1,,,,,0,,,80,106
53120,note_off,,,,,128,0,1,,,,,0,,,76,0
53184,note_off,,,,,192,0,4,,,,,3,,,52,0
53184,note_off,,,,,192,0,2,,,,,1,,,68,0
53184,note_off,,,,,192,0,3,,,,,2,,,64,0
53248,note_on,,,,,0,0,1,,,,,0,,,83,106
53248,note_off,,,,,128,0,1,,,,,0,,,80,0
53376,note_on,,,,,0,0,1,,,,,0,,,88,106
53376,note_off,,,,,128,0,1,,,,,0,,,83,0
53376,note_on,,,,,0,0,2,,,,,1,,,68,93
53376,note_on,,,,,192,0,2,,,,,1,,,71,93
53376,note_on,,,,,192,0,4,,,,,3,,,56,84
53376,note_on,,,,,192,0,3,,,,,2,,,59,90
53504,note_on,,,,,0,0,1,,,,,0,,,83,106
53504,note_off,,,,,128,0,1,,,,,0,,,88,0
53568,note_off,,,,,192,0,2,,,,,1,,,71,0
53568,note_off,,,,,0,0,2,,,,,1,,,68,0
53568,note_off,,,,,192,0,4,,,,,3,,,56,0
53568,note_off,,,,,192,0,3,,,,,2,,,59,0
53632,note_off,,,,,128,0,1,,,,,0,,,83,0
53632,note_on,,,,,0,0,1,,,,,0,,,80,106
53760,note_on,,,,,192,0,2,,,,,1,,,59,93
53760,note_on,,,,,0,0,2,,,,,1,,,69,93
53760,note_on,,,,,192,0,3,,,,,2,,,64,90
53760,note_off,,,,,128,0,1,,,,,0,,,80,0
53760,note_on,,,,,0,0,1,,,,,0,,,81,106
53760,note_on,,,,,192,0,4,,,,,3,,,59,84
53888,note_off,,,,,128,0,1,,,,,0,,,81,0
53888,note_on,,,,,0,0,1,,,,,0,,,78,106
53952,note_off,,,,,192,0,4,,,,,3,,,59,0
53952,note_off,,,,,192,0,2,,,,,1,,,59,0
53952,note_off,,,,,192,0,3,,,,,2,,,64,0
53952,note_off,,,,,0,0,2,,,,,1,,,69,0
54016,note_on,,,,,0,0,1,,,,,0,,,75,106
54016,note_off,,,,,128,0,1,,,,,0,,,78,0
54144,note_off,,,,,128,0,1,,,,,0,,,75,0
54144,note_on,,,,,0,0,1,,,,,0,,,76,106
54144,note_on,,,,,192,0,4,,,,,3,,,52,84
54144,note_on,,,,,192,0,3,,,,,2,,,64,90
54144,note_on,,,,,0,0,2,,,,,1,,,59,93
54144,note_on,,,,,192,0,2,,,,,1,,,68,93
54528,note_off,,,,,384,0,2,,,,,1,,,68,0
54528,note_off,,,,,0,0,2,,,,,1,,,59,0
54528,note_off,,,,,384,0,3,,,,,2,,,64,0
54528,note_off,,,,,384,0,1,,,,,0,,,76,0
54528,note_off,,,,,384,0,4,,,,,3,,,52,0
54912,note_on,,,,,384,0,3,,,,,2,,,57,90
54912,note_on,,,,,0,0,3,,,,,2,,,69,90
54912,note_on,,,,,384,0,2,,,,,1,,,63,93
54912,note_on,,,,,384,0,1,,,,,0,,,81,106
54912,note_on,,,,,384,0,4,,,,,3,,,59,84
55040,note_off,,,,,128,0,4,,,,,3,,,59,0
55040,note_on,,,,,0,0,4,,,,,3,,,57,84
55040,note_off,,,,,128,0,1,,,,,0,,,81,0
55040,note_on,,,,,0,0,1,,,,,0,,,78,106
55168,note_off,,,,,128,0,4,,,,,3,,,57,0
55168,note_on,,,,,0,0,4,,,,,3,,,59,84
55168,note_off,,,,,128,0,1,,,,,0,,,78,0
55168,note_on,,,,,0,0,1,,,,,0,,,76,106
55200,note_off,,,,,288,0,2,,,,,1,,,63,0
55200,note_on,,,,,0,0,2,,,,,1,,,64,93
55296,note_on,,,,,0,0,2,,,,,1,,,66,93
55296,note_off,,,,,128,0,1,,,,,0,,,76,0
55296,note_off,,,,,96,0,2,,,,,1,,,64,0
55296,note_on,,,,,0,0,1,,,,,0,,,75,106
55296,note_off,,,,,128,0,4,,,,,3,,,59,0
55296,note_on,,,,,0,0,4,,,,,3,,,60,84
55392,note_off,,,,,96,0,4,,,,,3,,,60,0
55424,note_off,,,,,128,0,1,,,,,0,,,75,0
55424,note_on,,,,,0,0,1,,,,,0,,,78,106
55488,note_off,,,,,576,0,3,,,,,2,,,57,0
55488,note_off,,,,,192,0,2,,,,,1,,,66,0
55488,note_off,,,,,0,0,3,,,,,2,,,69,0
55552,note_off,,,,,128,0,1,,,,,0,,,78,0
55552,note_on,,,,,0,0,1,,,,,0,,,80,106
55680,note_off,,,,,128,0,1,,,,,0,,,80,0
55680,note_on,,,,,288,0,4,,,,,3,,,60,84
55680,note_on,,,,,0,0,1,,,,,0,,,81,106
55680,note_on,,,,,192,0,2,,,,,1,,,66,93
55680,note_on,,,,,192,0,3,,,,,2,,,63,90
55776,note_off,,,,,96,0,3,,,,,2,,,63,0
55776,note_off,,,,,96,0,2,,,,,1,,,66,0
55776,note_off,,,,,96,0,4,,,,,3,,,60,0
55808,note_on,,,,,0,0,1,,,,,0,,,78,106
55808,note_off,,,,,128,0,1,,,,,0,,,81,0
55936,note_on,,,,,0,0,1,,,,,0,,,75,106
55936,note_off,,,,,128,0,1,,,,,0,,,78,0
56064,note_on,,,,,0,0,1,,,,,0,,,81,106
56064,note_on,,,,,288,0,3,,,,,2,,,57,90
56064,note_on,,,,,0,0,3,,,,,2,,,69,90
56064,note_on,,,,,288,0,4,,,,,3,,,59,84
56064,note_on,,,,,288,0,2,,,,,1,,,63,93
56064,note_off,,,,,128,0,1,,,,,0,,,75,0
56192,note_on,,,,,0,0,4,,,,,3,,,57,84
56192,note_off,,,,,128,0,4,,,,,3,,,59,0
56192,note_on,,,,,0,0,1,,,,,0,,,78,106
56192,note_off,,,,,128,0,1,,,,,0,,,81,0
56320,note_on,,,,,0,0,4,,,,,3,,,59,84
56320,note_off,,,,,128,0,1,,,,,0,,,78,0
56320,note_off,,,,,128,0,4,,,,,3,,,57,0
56320,note_on,,,,,0,0,1,,,,,0,,,76,106
56352,note_off,,,,,288,0,2,,,,,1,,,63,0
56352,note_on,,,,,0,0,2,,,,,1,,,64,93
56448,note_on,,,,,0,0,2,,,,,1,,,66,93
56448,note_off,,,,,128,0,1,,,,,0,,,76,0
56448,note_on,,,,,0,0,1,,,,,0,,,75,106
56448,note_off,,,,,96,0,2,,,,,1,,,64,0
56448,note_off,,,,,128,0,4,,,,,3,,,59,0
56448,note_on,,,,,0,0,4,,,,,3,,,60,84
56544,note_off,,,,,96,0,4,,,,,3,,,60,0
56576,note_off,,,,,128,0,1,,,,,0,,,75,0
56576,note_on,,,,,0,0,1,,,,,0,,,78,106
56640,note_off,,,,,0,0,3,,,,,2,,,69,0
56640,note_off,,,,,192,0,2,,,,,1,,,66,0
56640,note_off,,,,,576,0,3,,,,,2,,,57,0
56704,note_on,,,,,0,0,1,,,,,0,,,80,106
56704,note_off,,,,,128,0,1,,,,,0,,,78,0
56832,note_on,,,,,288,0,4,,,,,3,,,60,84
56832,note_on,,,,,0,0,1,,,,,0,,,79,106
56832,note_on,,,,,0,0,1,,,,,0,,,81,106
56832,note_off,,,,,128,0,1,,,,,0,,,80,0
56832,note_on,,,,,192,0,3,,,,,2,,,63,90
56832,note_on,,,,,192,0,2,,,,,1,,,66,93
56928,note_off,,,,,96,0,3,,,,,2,,,63,0
56928,note_off,,,,,96,0,4,,,,,3,,,60,0
56928,note_off,,,,,96,0,2,,,,,1,,,66,0
56960,note_off,,,,,128,0,1,,,,,0,,,81,0
56960,note_off,,,,,0,0,1,,,,,0,,,79,0
56960,note_on,,,,,0,0,1,,,,,0,,,78,106
57088,note_off,,,,,128,0,1,,,,,0,,,78,0
57088,note_on,,,,,0,0,1,,,,,0,,,75,106
57216,note_on,,,,,288,0,4,,,,,3,,,59,84
57216,note_on,,,,,288,0,3,,,,,2,,,69,90
57216,note_on,,,,,0,0,1,,,,,0,,,81,106
57216,note_off,,,,,128,0,1,,,,,0,,,75,0
57216,note_on,,,,,288,0,2,,,,,1,,,63,93
57344,note_off,,,,,128,0,1,,,,,0,,,81,0
57344,note_on,,,,,0,0,4,,,,,3,,,57,84
57344,note_off,,,,,128,0,4,,,,,3,,,59,0
57344,note_on,,,,,0,0,1,,,,,0,,,78,106
57472,note_off,,,,,128,0,4,,,,,3,,,57,0
57472,note_off,,,,,128,0,1,,,,,0,,,78,0
57472,note_on,,,,,0,0,1,,,,,0,,,76,106
57472,note_on,,,,,0,0,4,,,,,3,,,59,84
57504,note_on,,,,,0,0,2,,,,,1,,,64,93
57504,note_off,,,,,288,0,2,,,,,1,,,63,0
57600,note_on,,,,,0,0,1,,,,,0,,,75,106
57600,note_on,,,,,0,0,2,,,,,1,,,66,93
57600,note_off,,,,,96,0,2,,,,,1,,,64,0
57600,note_off,,,,,128,0,4,,,,,3,,,59,0
57600,note_on,,,,,0,0,4,,,,,3,,,60,84
57600,note_off,,,,,128,0,1,,,,,0,,,76,0
57696,note_off,,,,,96,0,4,,,,,3,,,60,0
57728,note_on,,,,,0,0,1,,,,,0,,,78,106
57728,note_off,,,,,128,0,1,,,,,0,,,75,0
57792,note_off,,,,,192,0,2,,,,,1,,,66,0
57792,note_off,,,,,576,0,3,,,,,2,,,69,0
57856,note_on,,,,,0,0,1,,,,,0,,,80,106
57856,note_off,,,,,128,0,1,,,,,0,,,78,0
57984,note_on,,,,,192,0,3,,,,,2,,,63,90
57984,note_on,,,,,288,0,4,,,,,3,,,60,84
57984,note_on,,,,,0,0,1,,,,,0,,,81,106
57984,note_off,,,,,128,0,1,,,,,0,,,80,0
57984,note_on,,,,,192,0,2,,,,,1,,,66,93
58080,note_off,,,,,96,0,2,,,,,1,,,66,0
58080,note_off,,,,,96,0,3,,,,,2,,,63,0
58080,note_off,,,,,96,0,4,,,,,3,,,60,0
58112,note_on,,,,,0,0,1,,,,,0,,,78,106
58112,note_off,,,,,128,0,1,,,,,0,,,81,0
58240,note_on,,,,,0,0,1,,,,,0,,,75,106
58240,note_off,,,,,128,0,1,,,,,0,,,78,0
58368,note_on,,,,,288,0,2,,,,,1,,,66,93
58368,note_on,,,,,0,0,1,,,,,0,,,81,106
58368,note_off,,,,,128,0,1,,,,,0,,,75,0
58368,note_on,,,,,288,0,3,,,,,2,,,63,90
58368,note_on,,,,,288,0,4,,,,,3,,,59,84
58496,note_off,,,,,128,0,4,,,,,3,,,59,0
58496,note_on,,,,,0,0,1,,,,,0,,,78,106
58496,note_off,,,,,128,0,1,,,,,0,,,81,0
58496,note_on,,,,,0,0,4,,,,,3,,,57,84
58624,note_on,,,,,0,0,1,,,,,0,,,75,106
58624,note_off,,,,,128,0,1,,,,,0,,,78,0
58624,note_on,,,,,0,0,4,,,,,3,,,59,84
58624,note_off,,,,,128,0,4,,,,,3,,,57,0
58656,note_off,,,,,288,0,2,,,,,1,,,66,0
58656,note_on,,,,,0,0,2,,,,,1,,,69,93
58656,note_off,,,,,288,0,3,,,,,2,,,63,0
58656,note_on,,,,,0,0,3,,,,,2,,,66,90
58752,note_on,,,,,0,0,4,,,,,3,,,60,84
58752,note_on,,,,,0,0,2,,,,,1,,,67,93
58752,note_off,,,,,128,0,1,,,,,0,,,75,0
58752,note_on,,,,,0,0,1,,,,,0,,,76,106
58752,note_off,,,,,128,0,4,,,,,3,,,59,0
58752,note_off,,,,,96,0,3,,,,,2,,,66,0
58752,note_off,,,,,96,0,2,,,,,1,,,69,0
58752,note_on,,,,,0,0,3,,,,,2,,,64,90
58848,note_off,,,,,96,0,4,,,,,3,,,60,0
58880,note_off,,,,,128,0,1,,,,,0,,,76,0
58880,note_on,,,,,0,0,1,,,,,0,,,79,106
58944,note_off,,,,,192,0,3,,,,,2,,,64,0
58944,note_off,,,,,192,0,2,,,,,1,,,67,0
59008,note_off,,,,,128,0,1,,,,,0,,,79,0
59008,note_on,,,,,0,0,1,,,,,0,,,83,106
59136,note_off,,,,,128,0,1,,,,,0,,,83,0
59136,note_on,,,,,288,0,4,,,,,3,,,60,84
59136,note_on,,,,,192,0,2,,,,,1,,,67,93
59136,note_on,,,,,192,0,3,,,,,2,,,64,90
59136,note_on,,,,,0,0,1,,,,,0,,,84,106
59232,note_off,,,,,96,0,4,,,,,3,,,60,0
59232,note_off,,,,,96,0,2,,,,,1,,,67,0
59232,note_off,,,,,96,0,3,,,,,2,,,64,0
59264,note_off,,,,,128,0,1,,,,,0,,,84,0
59264,note_on,,,,,0,0,1,,,,,0,,,79,106
59392,note_off,,,,,128,0,1,,,,,0,,,79,0
59392,note_on,,,,,0,0,1,,,,,0,,,76,106
59520,note_on,,,,,288,0,3,,,,,2,,,60,90
59520,note_on,,,,,288,0,4,,,,,3,,,48,84
59520,note_on,,,,,288,0,2,,,,,1,,,64,93
59520,note_off,,,,,128,0,1,,,,,0,,,76,0
59520,note_on,,,,,0,0,1,,,,,0,,,84,106
59648,note_off,,,,,128,0,4,,,,,3,,,48,0
59648,note_on,,,,,0,0,4,,,,,3,,,47,84
59648,note_off,,,,,128,0,1,,,,,0,,,84,0
59648,note_on,,,,,0,0,1,,,,,0,,,79,106
59776,note_off,,,,,128,0,4,,,,,3,,,47,0
59776,note_on,,,,,0,0,1,,,,,0,,,76,106
59776,note_off,,,,,128,0,1,,,,,0,,,79,0
59776,note_on,,,,,0,0,1,,,,,0,,,77,106
59776,note_on,,,,,0,0,4,,,,,3,,,48,84
59808,note_off,,,,,288,0,2,,,,,1,,,64,0
59808,note_on,,,,,0,0,3,,,,,2,,,64,90
59808,note_on,,,,,0,0,2,,,,,1,,,67,93
59808,note_off,,,,,288,0,3,,,,,2,,,60,0
59904,note_off,,,,,128,0,1,,,,,0,,,76,0
59904,note_off,,,,,96,0,3,,,,,2,,,64,0
59904,note_on,,,,,0,0,1,,,,,0,,,74,106
59904,note_on,,,,,0,0,4,,,,,3,,,53,84
59904,note_off,,,,,128,0,4,,,,,3,,,48,0
59904,note_on,,,,,0,0,3,,,,,2,,,65,90
59904,note_on,,,,,0,0,2,,,,,1,,,69,93
59904,note_off,,,,,96,0,2,,,,,1,,,67,0
59904,note_off,,,,,0,0,1,,,,,0,,,77,0
60032,note_on,,,,,0,0,1,,,,,0,,,77,106
60032,note_off,,,,,128,0,1,,,,,0,,,74,0
60096,note_off,,,,,192,0,4,,,,,3,,,53,0
60096,note_off,,,,,192,0,2,,,,,1,,,69,0
60096,note_off,,,,,192,0,3,,,,,2,,,65,0
60160,note_on,,,,,0,0,1,,,,,0,,,79,106
60160,note_off,,,,,128,0,1,,,,,0,,,77,0
60288,note_off,,,,,128,0,1,,,,,0,,,79,0
60288,note_on,,,,,0,0,1,,,,,0,,,81,106
60288,note_on,,,,,192,0,4,,,,,3,,,41,84
60288,note_on,,,,,192,0,2,,,,,1,,,62,93
60288,note_on,,,,,192,0,3,,,,,2,,,57,90
60416,note_off,,,,,128,0,1,,,,,0,,,81,0
60416,note_on,,,,,0,0,1,,,,,0,,,77,106
60480,note_off,,,,,192,0,3,,,,,2,,,57,0
60480,note_off,,,,,192,0,4,,,,,3,,,41,0
60480,note_off,,,,,192,0,2,,,,,1,,,62,0
60544,note_on,,,,,0,0,1,,,,,0,,,74,106
60544,note_off,,,,,128,0,1,,,,,0,,,77,0
60672,note_on,,,,,0,0,1,,,,,0,,,77,106
60672,note_off,,,,,128,0,1,,,,,0,,,74,0
60672,note_on,,,,,192,0,2,,,,,1,,,65,93
60672,note_on,,,,,0,0,2,,,,,1,,,55,93
60672,note_on,,,,,192,0,3,,,,,2,,,62,90
60672,note_on,,,,,192,0,4,,,,,3,,,43,84
60800,note_off,,,,,128,0,1,,,,,0,,,77,0
60800,note_on,,,,,0,0,1,,,,,0,,,74,106
60864,note_off,,,,,0,0,2,,,,,1,,,55,0
60864,note_off,,,,,192,0,4,,,,,3,,,43,0
60864,note_off,,,,,192,0,2,,,,,1,,,65,0
60864,note_off,,,,,192,0,3,,,,,2,,,62,0
60928,note_on,,,,,0,0,1,,,,,0,,,71,106
60928,note_off,,,,,128,0,1,,,,,0,,,74,0
61056,note_on,,,,,192,0,3,,,,,2,,,52,90
61056,note_on,,,,,192,0,4,,,,,3,,,48,84
61056,note_on,,,,,192,0,2,,,,,1,,,55,93
61056,note_on,,,,,0,0,1,,,,,0,,,72,106
61056,note_off,,,,,128,0,1,,,,,0,,,71,0
61056,note_on,,,,,0,0,2,,,,,1,,,64,93
61184,note_on,,,,,0,0,2,,,,,1,,,55,93
61184,note_off,,,,,0,0,2,,,,,1,,,64,0
61184,note_on,,,,,0,0,2,,,,,1,,,67,93
61184,note_off,,,,,128,0,3,,,,,2,,,52,0
61184,note_off,,,,,128,0,4,,,,,3,,,48,0
61184,note_on,,,,,0,0,4,,,,,3,,,50,84
61184,note_off,,,,,128,0,2,,,,,1,,,55,0
61184,note_on,,,,,0,0,3,,,,,2,,,53,90
61312,note_off,,,,,128,0,2,,,,,1,,,67,0
61312,note_off,,,,,0,0,2,,,,,1,,,55,0
61312,note_on,,,,,0,0,2,,,,,1,,,55,93
61312,note_on,,,,,0,0,2,,,,,1,,,67,93
61312,note_off,,,,,128,0,3,,,,,2,,,53,0
61312,note_on,,,,,0,0,4,,,,,3,,,52,84
61312,note_on,,,,,0,0,3,,,,,2,,,55,90
61312,note_off,,,,,128,0,4,,,,,3,,,50,0
61440,note_off,,,,,0,0,2,,,,,1,,,67,0
61440,note_on,,,,,0,0,3,,,,,2,,,55,90
61440,note_off,,,,,128,0,4,,,,,3,,,52,0
61440,note_off,,,,,128,0,3,,,,,2,,,55,0
61440,note_on,,,,,0,0,2,,,,,1,,,67,93
61440,note_on,,,,,0,0,2,,,,,1,,,55,93
61440,note_on,,,,,0,0,4,,,,,3,,,52,84
61440,note_off,,,,,128,0,2,,,,,1,,,55,0
61440,note_on,,,,,0,0,1,,,,,0,,,84,106
61440,note_off,,,,,384,0,1,,,,,0,,,72,0
61568,note_on,,,,,0,0,3,,,,,2,,,57,90
61568,note_off,,,,,128,0,4,,,,,3,,,52,0
61568,note_off,,,,,0,0,2,,,,,1,,,67,0
61568,note_on,,,,,0,0,2,,,,,1,,,67,93
61568,note_on,,,,,0,0,4,,,,,3,,,53,84
61568,note_off,,,,,128,0,2,,,,,1,,,55,0
61568,note_on,,,,,0,0,2,,,,,1,,,55,93
61568,note_off,,,,,128,0,3,,,,,2,,,55,0
61696,note_off,,,,,128,0,2,,,,,1,,,67,0
61696,note_on,,,,,0,0,3,,,,,2,,,55,90
61696,note_off,,,,,128,0,3,,,,,2,,,57,0
61696,note_off,,,,,128,0,4,,,,,3,,,53,0
61696,note_on,,,,,0,0,4,,,,,3,,,52,84
61696,note_on,,,,,0,0,2,,,,,1,,,55,93
61696,note_on,,,,,0,0,2,,,,,1,,,67,93
61696,note_off,,,,,0,0,2,,,,,1,,,55,0
61824,note_off,,,,,128,0,3,,,,,2,,,55,0
61824,note_on,,,,,0,0,1,,,,,0,,,83,106
61824,note_off,,,,,128,0,4,,,,,3,,,52,0
61824,note_on,,,,,0,0,4,,,,,3,,,50,84
61824,note_off,,,,,128,0,2,,,,,1,,,67,0
61824,note_off,,,,,0,0,2,,,,,1,,,55,0
61824,note_on,,,,,0,0,2,,,,,1,,,55,93
61824,note_on,,,,,0,0,2,,,,,1,,,67,93
61824,note_off,,,,,384,0,1,,,,,0,,,84,0
61824,note_on,,,,,0,0,3,,,,,2,,,53,90
61952,note_off,,,,,128,0,2,,,,,1,,,55,0
61952,note_on,,,,,0,0,4,,,,,3,,,52,84
61952,note_on,,,,,0,0,1,,,,,0,,,79,106
61952,note_off,,,,,128,0,1,,,,,0,,,83,0
61952,note_off,,,,,0,0,2,,,,,1,,,67,0
61952,note_on,,,,,0,0,2,,,,,1,,,67,93
61952,note_on,,,,,0,0,2,,,,,1,,,55,93
61952,note_on,,,,,0,0,3,,,,,2,,,55,90
61952,note_off,,,,,128,0,4,,,,,3,,,50,0
61952,note_off,,,,,128,0,3,,,,,2,,,53,0
62080,note_off,,,,,128,0,3,,,,,2,,,55,0
62080,note_on,,,,,0,0,2,,,,,1,,,55,93
62080,note_on,,,,,0,0,2,,,,,1,,,67,93
62080,note_off,,,,,128,0,2,,,,,1,,,67,0
62080,note_on,,,,,0,0,1,,,,,0,,,83,106
62080,note_off,,,,,128,0,1,,,,,0,,,79,0
62080,note_off,,,,,128,0,4,,,,,3,,,52,0
62080,note_on,,,,,0,0,4,,,,,3,,,50,84
62080,note_off,,,,,0,0,2,,,,,1,,,55,0
62080,note_on,,,,,0,0,3,,,,,2,,,53,90
62208,note_on,,,,,0,0,3,,,,,2,,,52,90
62208,note_on,,,,,0,0,4,,,,,3,,,48,84
62208,note_off,,,,,128,0,4,,,,,3,,,50,0
62208,note_off,,,,,128,0,1,,,,,0,,,83,0
62208,note_on,,,,,0,0,2,,,,,1,,,67,93
62208,note_on,,,,,0,0,1,,,,,0,,,84,106
62208,note_off,,,,,0,0,2,,,,,1,,,67,0
62208,note_off,,,,,128,0,2,,,,,1,,,55,0
62208,note_off,,,,,128,0,3,,,,,2,,,53,0
62208,note_on,,,,,0,0,2,,,,,1,,,55,93
62336,note_off,,,,,128,0,2,,,,,1,,,55,0
62336,note_off,,,,,0,0,2,,,,,1,,,67,0
62336,note_on,,,,,0,0,4,,,,,3,,,50,84
62336,note_off,,,,,128,0,3,,,,,2,,,52,0
62336,note_on,,,,,0,0,2,,,,,1,,,67,93
62336,note_off,,,,,128,0,4,,,,,3,,,48,0
62336,note_on,,,,,0,0,3,,,,,2,,,53,90
62336,note_on,,,,,0,0,2,,,,,1,,,55,93
62464,note_off,,,,,128,0,3,,,,,2,,,53,0
62464,note_off,,,,,128,0,2,,,,,1,,,55,0
62464,note_off,,,,,0,0,2,,,,,1,,,67,0
62464,note_on,,,,,0,0,2,,,,,1,,,55,93
62464,note_off,,,,,128,0,4,,,,,3,,,50,0
62464,note_on,,,,,0,0,2,,,,,1,,,67,93
62464,note_on,,,,,0,0,3,,,,,2,,,55,90
62464,note_on,,,,,0,0,4,,,,,3,,,52,84
62592,note_on,,,,,0,0,4,,,,,3,,,52,84
62592,note_on,,,,,0,0,2,,,,,1,,,55,93
62592,note_off,,,,,384,0,1,,,,,0,,,84,0
62592,note_off,,,,,0,0,2,,,,,1,,,55,0
62592,note_on,,,,,0,0,2,,,,,1,,,67,93
62592,note_on,,,,,0,0,1,,,,,0,,,84,106
62592,note_on,,,,,0,0,3,,,,,2,,,55,90
62592,note_off,,,,,128,0,4,,,,,3,,,52,0
62592,note_off,,,,,128,0,3,,,,,2,,,55,0
62592,note_off,,,,,128,0,2,,,,,1,,,67,0
62720,note_on,,,,,0,0,3,,,,,2,,,57,90
62720,note_on,,,,,0,0,2,,,,,1,,,55,93
62720,note_on,,,,,0,0,2,,,,,1,,,67,93
62720,note_off,,,,,0,0,2,,,,,1,,,55,0
62720,note_on,,,,,0,0,4,,,,,3,,,53,84
62720,note_off,,,,,128,0,4,,,,,3,,,52,0
62720,note_off,,,,,128,0,2,,,,,1,,,67,0
62720,note_off,,,,,128,0,3,,,,,2,,,55,0
62848,note_off,,,,,128,0,2,,,,,1,,,67,0
62848,note_off,,,,,0,0,2,,,,,1,,,55,0
62848,note_on,,,,,0,0,2,,,,,1,,,55,93
62848,note_on,,,,,0,0,2,,,,,1,,,67,93
62848,note_off,,,,,128,0,4,,,,,3,,,53,0
62848,note_on,,,,,0,0,3,,,,,2,,,55,90
62848,note_on,,,,,0,0,4,,,,,3,,,52,84
62848,note_off,,,,,128,0,3,,,,,2,,,57,0
62976,note_off,,,,,128,0,2,,,,,1,,,55,0
62976,note_off,,,,,128,0,3,,,,,2,,,55,0
62976,note_on,,,,,0,0,4,,,,,3,,,50,84
62976,note_off,,,,,128,0,4,,,,,3,,,52,0
62976,note_on,,,,,0,0,3,,,,,2,,,53,90
62976,note_off,,,,,384,0,1,,,,,0,,,84,0
62976,note_on,,,,,0,0,1,,,,,0,,,83,106
62976,note_off,,,,,0,0,2,,,,,1,,,67,0
62976,note_on,,,,,0,0,2,,,,,1,,,55,93
62976,note_on,,,,,0,0,2,,,,,1,,,67,93
63104,note_off,,,,,128,0,3,,,,,2,,,53,0
63104,note_on,,,,,0,0,3,,,,,2,,,55,90
63104,note_on,,,,,0,0,2,,,,,1,,,67,93
63104,note_off,,,,,0,0,2,,,,,1,,,67,0
63104,note_on,,,,,0,0,2,,,,,1,,,55,93
63104,note_on,,,,,0,0,1,,,,,0,,,79,106
63104,note_off,,,,,128,0,1,,,,,0,,,83,0
63104,note_off,,,,,128,0,4,,,,,3,,,50,0
63104,note_on,,,,,0,0,4,,,,,3,,,52,84
63104,note_off,,,,,128,0,2,,,,,1,,,55,0
63232,note_off,,,,,128,0,2,,,,,1,,,55,0
63232,note_off,,,,,0,0,2,,,,,1,,,67,0
63232,note_off,,,,,128,0,4,,,,,3,,,52,0
63232,note_off,,,,,128,0,3,,,,,2,,,55,0
63232,note_on,,,,,0,0,3,,,,,2,,,53,90
63232,note_on,,,,,0,0,2,,,,,1,,,55,93
63232,note_on,,,,,0,0,1,,,,,0,,,83,106
63232,note_off,,,,,128,0,1,,,,,0,,,79,0
63232,note_on,,,,,0,0,4,,,,,3,,,50,84
63232,note_on,,,,,0,0,2,,,,,1,,,67,93
63360,note_on,,,,,0,0,2,,,,,1,,,67,93
63360,note_on,,,,,0,0,2,,,,,1,,,55,93
63360,note_off,,,,,0,0,2,,,,,1,,,67,0
63360,note_off,,,,,128,0,2,,,,,1,,,55,0
63360,note_on,,,,,0,0,4,,,,,3,,,48,84
63360,note_off,,,,,128,0,1,,,,,0,,,83,0
63360,note_on,,,,,0,0,3,,,,,2,,,52,90
63360,note_off,,,,,128,0,4,,,,,3,,,50,0
63360,note_off,,,,,128,0,3,,,,,2,,,53,0
63360,note_on,,,,,0,0,1,,,,,0,,,84,106
63488,note_off,,,,,0,0,2,,,,,1,,,67,0
63488,note_on,,,,,0,0,2,,,,,1,,,67,93
63488,note_on,,,,,0,0,2,,,,,1,,,55,93
63488,note_off,,,,,128,0,1,,,,,0,,,84,0
63488,note_on,,,,,0,0,4,,,,,3,,,50,84
63488,note_off,,,,,128,0,3,,,,,2,,,52,0
63488,note_on,,,,,0,0,1,,,,,0,,,84,106
63488,note_on,,,,,0,0,3,,,,,2,,,53,90
63488,note_off,,,,,128,0,4,,,,,3,,,48,0
63488,note_off,,,,,128,0,2,,,,,1,,,55,0
63616,note_off,,,,,128,0,3,,,,,2,,,53,0
63616,note_off,,,,,128,0,4,,,,,3,,,50,0
63616,note_on,,,,,0,0,3,,,,,2,,,55,90
63616,note_on,,,,,0,0,1,,,,,0,,,84,106
63616,note_off,,,,,128,0,1,,,,,0,,,84,0
63616,note_on,,,,,0,0,2,,,,,1,,,67,93
63616,note_on,,,,,0,0,2,,,,,1,,,55,93
63616,note_off,,,,,0,0,2,,,,,1,,,55,0
63616,note_off,,,,,128,0,2,,,,,1,,,67,0
63616,note_on,,,,,0,0,4,,,,,3,,,52,84
63744,note_off,,,,,128,0,3,,,,,2,,,55,0
63744,note_off,,,,,128,0,4,,,,,3,,,52,0
63744,note_on,,,,,0,0,3,,,,,2,,,55,90
63744,note_on,,,,,0,0,4,,,,,3,,,52,84
63744,note_off,,,,,128,0,2,,,,,1,,,55,0
63744,note_off,,,,,0,0,2,,,,,1,,,67,0
63744,note_on,,,,,0,0,2,,,,,1,,,55,93
63744,note_on,,,,,0,0,2,,,,,1,,,67,93
63744,note_on,,,,,0,0,1,,,,,0,,,84,106
63744,note_off,,,,,128,0,1,,,,,0,,,84,0
63872,note_off,,,,,128,0,2,,,,,1,,,55,0
63872,note_off,,,,,0,0,2,,,,,1,,,67,0
63872,note_on,,,,,0,0,2,,,,,1,,,67,93
63872,note_on,,,,,0,0,2,,,,,1,,,55,93
63872,note_on,,,,,0,0,4,,,,,3,,,53,84
63872,note_off,,,,,128,0,4,,,,,3,,,52,0
63872,note_on,,,,,0,0,1,,,,,0,,,84,106
63872,note_off,,,,,128,0,1,,,,,0,,,84,0
63872,note_off,,,,,128,0,3,,,,,2,,,55,0
63872,note_on,,,,,0,0,3,,,,,2,,,57,90
64000,note_on,,,,,0,0,3,,,,,2,,,55,90
64000,note_on,,,,,0,0,4,,,,,3,,,52,84
64000,note_off,,,,,128,0,4,,,,,3,,,53,0
64000,note_off,,,,,128,0,1,,,,,0,,,84,0
64000,note_on,,,,,0,0,1,,,,,0,,,84,106
64000,note_off,,,,,128,0,2,,,,,1,,,55,0
64000,note_off,,,,,0,0,2,,,,,1,,,67,0
64000,note_on,,,,,0,0,2,,,,,1,,,55,93
64000,note_on,,,,,0,0,2,,,,,1,,,67,93
64000,note_off,,,,,128,0,3,,,,,2,,,57,0
64128,note_off,,,,,128,0,1,,,,,0,,,84,0
64128,note_on,,,,,0,0,2,,,,,1,,,55,93
64128,note_off,,,,,0,0,2,,,,,1,,,67,0
64128,note_on,,,,,0,0,4,,,,,3,,,50,84
64128,note_on,,,,,0,0,1,,,,,0,,,83,106
64128,note_on,,,,,0,0,2,,,,,1,,,67,93
64128,note_off,,,,,128,0,3,,,,,2,,,55,0
64128,note_on,,,,,0,0,3,,,,,2,,,53,90
64128,note_off,,,,,128,0,2,,,,,1,,,55,0
64128,note_off,,,,,128,0,4,,,,,3,,,52,0
64256,note_off,,,,,128,0,2,,,,,1,,,55,0
64256,note_off,,,,,128,0,3,,,,,2,,,53,0
64256,note_on,,,,,0,0,3,,,,,2,,,55,90
64256,note_on,,,,,0,0,2,,,,,1,,,67,93
64256,note_off,,,,,0,0,2,,,,,1,,,67,0
64256,note_on,,,,,0,0,2,,,,,1,,,55,93
64256,note_on,,,,,0,0,1,,,,,0,,,79,106
64256,note_off,,,,,128,0,1,,,,,0,,,83,0
64256,note_on,,,,,0,0,4,,,,,3,,,52,84
64256,note_off,,,,,128,0,4,,,,,3,,,50,0
64384,note_on,,,,,0,0,3,,,,,2,,,53,90
64384,note_on,,,,,0,0,4,,,,,3,,,50,84
64384,note_off,,,,,128,0,4,,,,,3,,,52,0
64384,note_off,,,,,128,0,3,,,,,2,,,55,0
64384,note_off,,,,,128,0,1,,,,,0,,,79,0
64384,note_on,,,,,0,0,2,,,,,1,,,55,93
64384,note_on,,,,,0,0,2,,,,,1,,,67,93
64384,note_off,,,,,0,0,2,,,,,1,,,55,0
64384,note_off,,,,,128,0,2,,,,,1,,,67,0
64384,note_on,,,,,0,0,1,,,,,0,,,83,106
64512,note_off,,,,,128,0,2,,,,,1,,,67,0
64512,note_on,,,,,0,0,2,,,,,1,,,67,93
64512,note_on,,,,,0,0,3,,,,,2,,,52,90
64512,note_off,,,,,128,0,3,,,,,2,,,53,0
64512,note_off,,,,,0,0,2,,,,,1,,,55,0
64512,note_on,,,,,0,0,2,,,,,1,,,55,93
64512,note_on,,,,,0,0,1,,,,,0,,,84,106
64512,note_on,,,,,0,0,4,,,,,3,,,48,84
64512,note_off,,,,,128,0,1,,,,,0,,,83,0
64512,note_off,,,,,128,0,4,,,,,3,,,50,0
64704,note_off,,,,,192,0,1,,,,,0,,,84,0
64704,note_off,,,,,192,0,4,,,,,3,,,48,0
64704,note_off,,,,,0,0,2,,,,,1,,,67,0
64704,note_off,,,,,192,0,2,,,,,1,,,55,0
64704,note_off,,,,,192,0,3,,,,,2,,,52,0
64896,note_on,,,,,0,0,1,,,,,0,,,76,106
64896,note_on,,,,,0,0,3,,,,,2,,,60,90
64896,note_on,,,,,192,0,4,,,,,3,,,36,84
64896,note_on,,,,,192,0,3,,,,,2,,,48,90
64896,note_on,,,,,192,0,1,,,,,0,,,60,106
64896,note_on,,,,,0,0,1,,,,,0,,,84,106
64896,note_on,,,,,192,0,2,,,,,1,,,55,93
64896,note_on,,,,,0,0,2,,,,,1,,,64,93
64896,note_on,,,,,0,0,1,,,,,0,,,67,106
65088,note_off,,,,,192,0,1,,,,,0,,,60,0
65088,note_off,,,,,192,0,4,,,,,3,,,36,0
65088,note_off,,,,,0,0,3,,,,,2,,,60,0
65088,note_off,,,,,192,0,3,,,,,2,,,48,0
65088,note_off,,,,,0,0,1,,,,,0,,,76,0
65088,note_off,,,,,0,0,1,,,,,0,,,84,0
65088,note_off,,,,,0,0,2,,,,,1,,,64,0
65088,note_off,,,,,0,0,1,,,,,0,,,67,0
65088,note_off,,,,,192,0,2,,,,,1,,,55,0
65280,note_on,,,,,192,0,3,,,,,2,,,60,90
65280,note_on,,,,,192,0,2,,,,,1,,,64,93
65408,note_off,,,,,128,0,3,,,,,2,,,60,0
65408,note_on,,,,,0,0,2,,,,,1,,,63,93
65408,note_off,,,,,128,0,2,,,,,1,,,64,0
65408,note_on,,,,,0,0,3,,,,,2,,,59,90
65536,note_on,,,,,0,0,2,,,,,1,,,64,93
65536,note_off,,,,,128,0,2,,,,,1,,,63,0
65536,note_off,,,,,128,0,3,,,,,2,,,59,0
65536,note_on,,,,,0,0,3,,,,,2,,,60,90
65664,note_on,,,,,0,0,2,,,,,1,,,67,93
65664,note_off,,,,,128,0,3,,,,,2,,,60,0
65664,note_off,,,,,128,0,2,,,,,1,,,64,0
65664,note_on,,,,,0,0,3,,,,,2,,,64,90
66048,note_on,,,,,960,0,1,,,,,0,,,79,106
66112,note_off,,,,,64,0,1,,,,,0,,,79,0
66176,note_on,,,,,64,0,1,,,,,0,,,78,106
66240,note_off,,,,,64,0,1,,,,,0,,,78,0
66304,note_on,,,,,64,0,1,,,,,0,,,76,106
66368,note_off,,,,,64,0,1,,,,,0,,,76,0
66432,note_on,,,,,0,0,2,,,,,1,,,64,93
66432,note_off,,,,,768,0,2,,,,,1,,,67,0
66432,note_on,,,,,1344,0,4,,,,,3,,,48,84
66432,note_on,,,,,64,0,1,,,,,0,,,75,106
66496,note_off,,,,,64,0,1,,,,,0,,,75,0
66560,note_on,,,,,64,0,1,,,,,0,,,76,106
66624,note_off,,,,,64,0,1,,,,,0,,,76,0
66688,note_on,,,,,64,0,1,,,,,0,,,70,106
66752,note_off,,,,,64,0,1,,,,,0,,,70,0
66816,note_on,,,,,64,0,1,,,,,0,,,71,106
66816,note_off,,,,,384,0,2,,,,,1,,,64,0
66816,note_on,,,,,0,0,2,,,,,1,,,66,93
66816,note_on,,,,,0,0,3,,,,,2,,,63,90
66816,note_off,,,,,384,0,4,,,,,3,,,48,0
66816,note_on,,,,,0,0,4,,,,,3,,,47,84
66816,note_off,,,,,1152,0,3,,,,,2,,,64,0
66880,note_off,,,,,64,0,1,,,,,0,,,71,0
66944,note_on,,,,,64,0,1,,,,,0,,,73,106
67008,note_off,,,,,64,0,1,,,,,0,,,73,0
67072,note_on,,,,,64,0,1,,,,,0,,,71,106
67136,note_off,,,,,64,0,1,,,,,0,,,71,0
67200,note_on,,,,,64,0,1,,,,,0,,,69,106
67200,note_off,,,,,384,0,2,,,,,1,,,66,0
67200,note_off,,,,,384,0,3,,,,,2,,,63,0
67200,note_off,,,,,384,0,4,,,,,3,,,47,0
67264,note_off,,,,,64,0,1,,,,,0,,,69,0
67328,note_on,,,,,64,0,1,,,,,0,,,68,106
67392,note_off,,,,,64,0,1,,,,,0,,,68,0
67456,note_on,,,,,64,0,1,,,,,0,,,66,106
67520,note_off,,,,,64,0,1,,,,,0,,,66,0
67584,note_on,,,,,64,0,1,,,,,0,,,64,106
67584,note_on,,,,,384,0,3,,,,,2,,,52,90
67584,note_on,,,,,384,0,4,,,,,3,,,40,84
67584,note_on,,,,,384,0,2,,,,,1,,,64,93
67712,note_off,,,,,128,0,4,,,,,3,,,40,0
67712,note_on,,,,,0,0,3,,,,,2,,,56,90
67712,note_on,,,,,0,0,2,,,,,1,,,68,93
67712,note_off,,,,,128,0,3,,,,,2,,,52,0
67712,note_off,,,,,128,0,1,,,,,0,,,64,0
67712,note_on,,,,,0,0,1,,,,,0,,,68,106
67712,note_on,,,,,0,0,4,,,,,3,,,44,84
67712,note_off,,,,,128,0,2,,,,,1,,,64,0
67840,note_off,,,,,128,0,3,,,,,2,,,56,0
67840,note_on,,,,,0,0,3,,,,,2,,,59,90
67840,note_on,,,,,0,0,4,,,,,3,,,47,84
67840,note_on,,,,,0,0,1,,,,,0,,,71,106
67840,note_off,,,,,128,0,1,,,,,0,,,68,0
67840,note_on,,,,,0,0,2,,,,,1,,,71,93
67840,note_off,,,,,128,0,2,,,,,1,,,68,0
67840,note_off,,,,,128,0,4,,,,,3,,,44,0
67968,note_on,,,,,0,0,1,,,,,0,,,76,106
67968,note_on,,,,,0,0,3,,,,,2,,,64,90
67968,note_off,,,,,128,0,3,,,,,2,,,59,0
67968,note_off,,,,,128,0,1,,,,,0,,,71,0
67968,note_off,,,,,128,0,4,,,,,3,,,47,0
67968,note_on,,,,,0,0,4,,,,,3,,,52,84
67968,note_on,,,,,0,0,2,,,,,1,,,76,93
67968,note_off,,,,,128,0,2,,,,,1,,,71,0
68160,note_off,,,,,192,0,4,,,,,3,,,52,0
68160,note_off,,,,,192,0,2,,,,,1,,,76,0
68160,note_off,,,,,192,0,1,,,,,0,,,76,0
68160,note_off,,,,,192,0,3,,,,,2,,,64,0
68352,note_on,,,,,192,0,2,,,,,1,,,81,93
68352,note_on,,,,,192,0,1,,,,,0,,,85,106
68352,note_on,,,,,192,0,3,,,,,2,,,75,90
68448,note_off,,,,,96,0,2,,,,,1,,,81,0
68448,note_off,,,,,96,0,3,,,,,2,,,75,0
68448,note_off,,,,,96,0,1,,,,,0,,,85,0
68544,note_on,,,,,96,0,3,,,,,2,,,76,90
68544,note_on,,,,,96,0,2,,,,,1,,,80,93
68544,note_on,,,,,96,0,1,,,,,0,,,83,106
68640,note_off,,,,,96,0,3,,,,,2,,,76,0
68640,note_off,,,,,96,0,2,,,,,1,,,80,0
68640,note_off,,,,,96,0,1,,,,,0,,,83,0
68736,note_on,,,,,96,0,3,,,,,2,,,75,90
68736,note_on,,,,,96,0,1,,,,,0,,,85,106
68736,note_on,,,,,96,0,2,,,,,1,,,81,93
68832,note_off,,,,,96,0,3,,,,,2,,,75,0
68832,note_off,,,,,96,0,1,,,,,0,,,85,0
68832,note_off,,,,,96,0,2,,,,,1,,,81,0
68928,note_on,,,,,96,0,3,,,,,2,,,76,90
68928,note_on,,,,,96,0,1,,,,,0,,,83,106
68928,note_on,,,,,96,0,2,,,,,1,,,80,93
69024,note_off,,,,,96,0,3,,,,,2,,,76,0
69024,note_off,,,,,96,0,2,,,,,1,,,80,0
69024,note_off,,,,,96,0,1,,,,,0,,,83,0
69120,note_on,,,,,96,0,2,,,,,1,,,68,93
69120,note_on,,,,,96,0,1,,,,,0,,,88,106
69120,note_on,,,,,96,0,3,,,,,2,,,64,90
69504,note_on,,,,,0,0,2,,,,,1,,,71,93
69504,note_off,,,,,384,0,2,,,,,1,,,68,0
69504,note_on,,,,,0,0,1,,,,,0,,,83,106
69504,note_off,,,,,384,0,1,,,,,0,,,88,0
69504,note_on,,,,,0,0,3,,,,,2,,,68,90
69504,note_off,,,,,384,0,3,,,,,2,,,64,0
69888,note_on,,,,,1728,0,4,,,,,3,,,44,84
69888,note_off,,,,,384,0,1,,,,,0,,,83,0
69888,note_on,,,,,0,0,2,,,,,1,,,64,93
69888,note_off,,,,,384,0,2,,,,,1,,,71,0
69888,note_on,,,,,0,0,3,,,,,2,,,59,90
69888,note_off,,,,,384,0,3,,,,,2,,,68,0
69984,note_off,,,,,96,0,2,,,,,1,,,64,0
69984,note_off,,,,,96,0,3,,,,,2,,,59,0
69984,note_off,,,,,96,0,4,,,,,3,,,44,0
70080,note_on,,,,,96,0,3,,,,,2,,,61,90
70080,note_on,,,,,96,0,2,,,,,1,,,66,93
70080,note_on,,,,,96,0,4,,,,,3,,,45,84
70176,note_off,,,,,96,0,2,,,,,1,,,66,0
70176,note_off,,,,,96,0,3,,,,,2,,,61,0
70176,note_off,,,,,96,0,4,,,,,3,,,45,0
70272,note_on,,,,,96,0,4,,,,,3,,,47,84
70272,note_on,,,,,96,0,2,,,,,1,,,68,93
70272,note_on,,,,,96,0,3,,,,,2,,,63,90
70368,note_off,,,,,96,0,4,,,,,3,,,47,0
70368,note_off,,,,,96,0,2,,,,,1,,,68,0
70368,note_off,,,,,96,0,3,,,,,2,,,63,0
70464,note_on,,,,,96,0,4,,,,,3,,,49,84
70464,note_on,,,,,96,0,2,,,,,1,,,69,93
70464,note_on,,,,,96,0,3,,,,,2,,,64,90
70560,note_off,,,,,96,0,4,,,,,3,,,49,0
70560,note_off,,,,,96,0,2,,,,,1,,,69,0
70560,note_off,,,,,96,0,3,,,,,2,,,64,0
70656,note_on,,,,,96,0,2,,,,,1,,,71,93
70656,note_on,,,,,96,0,3,,,,,2,,,66,90
70656,note_on,,,,,96,0,4,,,,,3,,,51,84
70752,note_off,,,,,96,0,2,,,,,1,,,71,0
70752,note_off,,,,,96,0,3,,,,,2,,,66,0
70752,note_off,,,,,96,0,4,,,,,3,,,51,0
70848,note_on,,,,,96,0,4,,,,,3,,,52,84
70848,note_on,,,,,96,0,3,,,,,2,,,68,90
70848,note_on,,,,,960,0,1,,,,,0,,,80,106
70848,note_on,,,,,96,0,2,,,,,1,,,73,93
70944,note_off,,,,,96,0,2,,,,,1,,,73,0
70944,note_off,,,,,96,0,3,,,,,2,,,68,0
70944,note_off,,,,,96,0,4,,,,,3,,,52,0
70944,note_off,,,,,96,0,1,,,,,0,,,80,0
71040,note_on,,,,,96,0,2,,,,,1,,,75,93
71040,note_on,,,,,96,0,1,,,,,0,,,78,106
71040,note_on,,,,,96,0,4,,,,,3,,,54,84
71040,note_on,,,,,96,0,3,,,,,2,,,69,90
71136,note_off,,,,,96,0,4,,,,,3,,,54,0
71136,note_off,,,,,96,0,1,,,,,0,,,78,0
71136,note_off,,,,,96,0,3,,,,,2,,,69,0
71136,note_off,,,,,96,0,2,,,,,1,,,75,0
71232,note_on,,,,,96,0,4,,,,,3,,,56,84
71232,note_on,,,,,96,0,1,,,,,0,,,75,106
71232,note_on,,,,,96,0,2,,,,,1,,,72,93
71232,note_on,,,,,96,0,3,,,,,2,,,66,90
71328,note_off,,,,,96,0,4,,,,,3,,,56,0
71328,note_off,,,,,96,0,2,,,,,1,,,72,0
71328,note_off,,,,,96,0,1,,,,,0,,,75,0
71328,note_off,,,,,96,0,3,,,,,2,,,66,0
71424,note_on,,,,,96,0,4,,,,,3,,,49,84
71424,note_on,,,,,96,0,1,,,,,0,,,73,106
71424,note_on,,,,,96,0,3,,,,,2,,,64,90
71424,note_on,,,,,96,0,2,,,,,1,,,73,93
71616,note_off,,,,,192,0,1,,,,,0,,,73,0
71616,note_off,,,,,192,0,2,,,,,1,,,73,0
71616,note_off,,,,,192,0,3,,,,,2,,,64,0
71616,note_off,,,,,192,0,4,,,,,3,,,49,0
71808,note_on,,,,,192,0,3,,,,,2,,,64,90
71808,note_on,,,,,192,0,1,,,,,0,,,73,106
71808,note_on,,,,,192,0,2,,,,,1,,,68,93
71808,note_on,,,,,192,0,4,,,,,3,,,49,84
72000,note_off,,,,,192,0,4,,,,,3,,,49,0
72000,note_off,,,,,192,0,1,,,,,0,,,73,0
72000,note_off,,,,,192,0,2,,,,,1,,,68,0
72000,note_off,,,,,192,0,3,,,,,2,,,64,0
72192,note_on,,,,,192,0,2,,,,,1,,,57,93
72192,note_on,,,,,192,0,4,,,,,3,,,45,84
72192,note_on,,,,,192,0,3,,,,,2,,,57,90
72192,note_on,,,,,192,0,1,,,,,0,,,57,106
72320,note_off,,,,,128,0,3,,,,,2,,,57,0
72320,note_on,,,,,0,0,4,,,,,3,,,49,84
72320,note_off,,,,,128,0,4,,,,,3,,,45,0
72320,note_on,,,,,0,0,3,,,,,2,,,61,90
72320,note_off,,,,,128,0,1,,,,,0,,,57,0
72320,note_on,,,,,0,0,1,,,,,0,,,61,106
72320,note_off,,,,,128,0,2,,,,,1,,,57,0
72320,note_on,,,,,0,0,2,,,,,1,,,61,93
72448,note_off,,,,,128,0,1,,,,,0,,,61,0
72448,note_on,,,,,0,0,1,,,,,0,,,64,106
72448,note_off,,,,,128,0,2,,,,,1,,,61,0
72448,note_on,,,,,0,0,2,,,,,1,,,64,93
72448,note_off,,,,,128,0,4,,,,,3,,,49,0
72448,note_on,,,,,0,0,4,,,,,3,,,52,84
72448,note_on,,,,,0,0,3,,,,,2,,,64,90
72448,note_off,,,,,128,0,3,,,,,2,,,61,0
72576,note_off,,,,,128,0,1,,,,,0,,,64,0
72576,note_on,,,,,0,0,3,,,,,2,,,69,90
72576,note_off,,,,,128,0,3,,,,,2,,,64,0
72576,note_on,,,,,0,0,1,,,,,0,,,69,106
72576,note_on,,,,,0,0,4,,,,,3,,,57,84
72576,note_off,,,,,128,0,4,,,,,3,,,52,0
72576,note_off,,,,,128,0,2,,,,,1,,,64,0
72576,note_on,,,,,0,0,2,,,,,1,,,69,93
72768,note_off,,,,,192,0,4,,,,,3,,,57,0
72768,note_off,,,,,192,0,1,,,,,0,,,69,0
72768,note_off,,,,,192,0,3,,,,,2,,,69,0
72768,note_off,,,,,192,0,2,,,,,1,,,69,0
72960,note_on,,,,,192,0,2,,,,,1,,,74,93
72960,note_on,,,,,192,0,3,,,,,2,,,59,90
72960,note_on,,,,,192,0,4,,,,,3,,,56,84
72960,note_on,,,,,192,0,1,,,,,0,,,78,106
73056,note_off,,,,,96,0,2,,,,,1,,,74,0
73056,note_off,,,,,96,0,3,,,,,2,,,59,0
73056,note_off,,,,,96,0,1,,,,,0,,,78,0
73056,note_off,,,,,96,0,4,,,,,3,,,56,0
73152,note_on,,,,,96,0,1,,,,,0,,,76,106
73152,note_on,,,,,96,0,2,,,,,1,,,73,93
73152,note_on,,,,,96,0,4,,,,,3,,,57,84
73152,note_on,,,,,96,0,3,,,,,2,,,61,90
73248,note_off,,,,,96,0,1,,,,,0,,,76,0
73248,note_off,,,,,96,0,2,,,,,1,,,73,0
73248,note_off,,,,,96,0,4,,,,,3,,,57,0
73248,note_off,,,,,96,0,3,,,,,2,,,61,0
73344,note_on,,,,,96,0,1,,,,,0,,,78,106
73344,note_on,,,,,96,0,2,,,,,1,,,74,93
73344,note_on,,,,,96,0,4,,,,,3,,,56,84
73344,note_on,,,,,96,0,3,,,,,2,,,59,90
73440,note_off,,,,,96,0,3,,,,,2,,,59,0
73440,note_off,,,,,96,0,4,,,,,3,,,56,0
73440,note_off,,,,,96,0,2,,,,,1,,,74,0
73440,note_off,,,,,96,0,1,,,,,0,,,78,0
73536,note_on,,,,,96,0,2,,,,,1,,,73,93
73536,note_on,,,,,96,0,1,,,,,0,,,76,106
73536,note_on,,,,,96,0,4,,,,,3,,,57,84
73536,note_on,,,,,96,0,3,,,,,2,,,61,90
73632,note_off,,,,,96,0,2,,,,,1,,,73,0
73632,note_off,,,,,96,0,4,,,,,3,,,57,0
73632,note_off,,,,,96,0,1,,,,,0,,,76,0
73632,note_off,,,,,96,0,3,,,,,2,,,61,0
73728,note_on,,,,,96,0,3,,,,,2,,,59,90
73728,note_on,,,,,96,0,4,,,,,3,,,45,84
73728,note_on,,,,,96,0,2,,,,,1,,,75,93
73728,note_on,,,,,96,0,1,,,,,0,,,85,106
74112,note_on,,,,,0,0,4,,,,,3,,,57,84
74112,note_off,,,,,384,0,4,,,,,3,,,45,0
74112,note_on,,,,,0,0,1,,,,,0,,,75,106
74112,note_on,,,,,0,0,3,,,,,2,,,66,90
74112,note_off,,,,,384,0,1,,,,,0,,,85,0
74112,note_off,,,,,384,0,2,,,,,1,,,75,0
74112,note_off,,,,,384,0,3,,,,,2,,,59,0
74112,note_on,,,,,0,0,2,,,,,1,,,71,93
74496,note_off,,,,,384,0,1,,,,,0,,,75,0
74496,note_on,,,,,0,0,2,,,,,1,,,63,93
74496,note_off,,,,,384,0,2,,,,,1,,,71,0
74496,note_on,,,,,0,0,3,,,,,2,,,57,90
74496,note_off,,,,,384,0,3,,,,,2,,,66,0
74496,note_off,,,,,384,0,4,,,,,3,,,57,0
74496,note_on,,,,,0,0,4,,,,,3,,,54,84
74592,note_off,,,,,96,0,3,,,,,2,,,57,0
74592,note_off,,,,,96,0,2,,,,,1,,,63,0
74592,note_off,,,,,96,0,4,,,,,3,,,54,0
74688,note_on,,,,,96,0,2,,,,,1,,,64,93
74688,note_on,,,,,96,0,3,,,,,2,,,59,90
74688,note_on,,,,,96,0,4,,,,,3,,,56,84
74784,note_off,,,,,96,0,3,,,,,2,,,59,0
74784,note_off,,,,,96,0,2,,,,,1,,,64,0
74784,note_off,,,,,96,0,4,,,,,3,,,56,0
74880,note_on,,,,,96,0,2,,,,,1,,,66,93
74880,note_on,,,,,96,0,4,,,,,3,,,57,84
74880,note_on,,,,,96,0,3,,,,,2,,,61,90
74976,note_off,,,,,96,0,2,,,,,1,,,66,0
74976,note_off,,,,,96,0,3,,,,,2,,,61,0
74976,note_off,,,,,96,0,4,,,,,3,,,57,0
75072,note_on,,,,,96,0,3,,,,,2,,,63,90
75072,note_on,,,,,96,0,2,,,,,1,,,68,93
75072,note_on,,,,,96,0,4,,,,,3,,,59,84
75168,note_off,,,,,96,0,2,,,,,1,,,68,0
75168,note_off,,,,,96,0,3,,,,,2,,,63,0
75168,note_off,,,,,96,0,4,,,,,3,,,59,0
75264,note_on,,,,,96,0,3,,,,,2,,,64,90
75264,note_on,,,,,96,0,2,,,,,1,,,69,93
75264,note_on,,,,,96,0,4,,,,,3,,,61,84
75360,note_off,,,,,96,0,2,,,,,1,,,69,0
75360,note_off,,,,,96,0,3,,,,,2,,,64,0
75360,note_off,,,,,96,0,4,,,,,3,,,61,0
75456,note_on,,,,,96,0,2,,,,,1,,,68,93
75456,note_on,,,,,96,0,3,,,,,2,,,63,90
75456,note_on,,,,,96,0,4,,,,,3,,,59,84
75456,note_on,,,,,960,0,1,,,,,0,,,83,106
75552,note_off,,,,,96,0,4,,,,,3,,,59,0
75552,note_off,,,,,96,0,3,,,,,2,,,63,0
75552,note_off,,,,,96,0,2,,,,,1,,,68,0
75552,note_off,,,,,96,0,1,,,,,0,,,83,0
75648,note_on,,,,,96,0,4,,,,,3,,,61,84
75648,note_on,,,,,96,0,3,,,,,2,,,64,90
75648,note_on,,,,,96,0,2,,,,,1,,,69,93
75648,note_on,,,,,96,0,1,,,,,0,,,81,106
75744,note_off,,,,,96,0,2,,,,,1,,,69,0
75744,note_off,,,,,96,0,1,,,,,0,,,81,0
75744,note_off,,,,,96,0,4,,,,,3,,,61,0
75744,note_off,,,,,96,0,3,,,,,2,,,64,0
75840,note_on,,,,,96,0,3,,,,,2,,,66,90
75840,note_on,,,,,96,0,2,,,,,1,,,71,93
75840,note_on,,,,,96,0,4,,,,,3,,,63,84
75840,note_on,,,,,96,0,1,,,,,0,,,78,106
75936,note_off,,,,,96,0,1,,,,,0,,,78,0
75936,note_off,,,,,96,0,3,,,,,2,,,66,0
75936,note_off,,,,,96,0,4,,,,,3,,,63,0
75936,note_off,,,,,96,0,2,,,,,1,,,71,0
76032,note_on,,,,,96,0,3,,,,,2,,,64,90
76032,note_on,,,,,96,0,1,,,,,0,,,76,106
76032,note_on,,,,,96,0,2,,,,,1,,,68,93
76032,note_on,,,,,96,0,4,,,,,3,,,64,84
76160,note_off,,,,,128,0,4,,,,,3,,,64,0
76160,note_on,,,,,0,0,4,,,,,3,,,59,84
76224,note_on,,,,,0,0,2,,,,,1,,,71,93
76224,note_off,,,,,192,0,2,,,,,1,,,68,0
76288,note_on,,,,,0,0,4,,,,,3,,,56,84
76288,note_off,,,,,128,0,4,,,,,3,,,59,0
76416,note_off,,,,,128,0,4,,,,,3,,,56,0
76416,note_off,,,,,384,0,3,,,,,2,,,64,0
76416,note_off,,,,,384,0,1,,,,,0,,,76,0
76416,note_on,,,,,0,0,1,,,,,0,,,76,106
76416,note_on,,,,,0,0,4,,,,,3,,,52,84
76416,note_on,,,,,0,0,2,,,,,1,,,68,93
76416,note_on,,,,,0,0,3,,,,,2,,,64,90
76416,note_off,,,,,192,0,2,,,,,1,,,71,0
76544,note_on,,,,,0,0,3,,,,,2,,,66,90
76544,note_off,,,,,128,0,3,,,,,2,,,64,0
76608,note_on,,,,,0,0,2,,,,,1,,,71,93
76608,note_off,,,,,192,0,2,,,,,1,,,68,0
76608,note_off,,,,,192,0,4,,,,,3,,,52,0
76672,note_off,,,,,128,0,3,,,,,2,,,66,0
76672,note_on,,,,,0,0,3,,,,,2,,,68,90
76800,note_off,,,,,192,0,2,,,,,1,,,71,0
76800,note_off,,,,,128,0,3,,,,,2,,,68,0
76800,note_on,,,,,0,0,3,,,,,2,,,59,90
76800,note_on,,,,,192,0,4,,,,,3,,,47,84
76800,note_on,,,,,0,0,2,,,,,1,,,69,93
76800,note_off,,,,,384,0,1,,,,,0,,,76,0
76800,note_on,,,,,0,0,1,,,,,0,,,83,106
76928,note_off,,,,,128,0,1,,,,,0,,,83,0
76928,note_on,,,,,0,0,1,,,,,0,,,81,106
76992,note_off,,,,,192,0,4,,,,,3,,,47,0
76992,note_off,,,,,192,0,3,,,,,2,,,59,0
76992,note_off,,,,,192,0,2,,,,,1,,,69,0
76992,note_on,,,,,0,0,2,,,,,1,,,71,93
77056,note_off,,,,,128,0,1,,,,,0,,,81,0
77056,note_on,,,,,0,0,1,,,,,0,,,78,106
77184,note_on,,,,,192,0,3,,,,,2,,,52,90
77184,note_off,,,,,128,0,1,,,,,0,,,78,0
77184,note_on,,,,,0,0,1,,,,,0,,,76,106
77184,note_on,,,,,0,0,2,,,,,1,,,68,93
77184,note_on,,,,,192,0,4,,,,,3,,,52,84
77184,note_off,,,,,192,0,2,,,,,1,,,71,0
77312,note_off,,,,,128,0,4,,,,,3,,,52,0
77312,note_on,,,,,0,0,4,,,,,3,,,56,84
77376,note_off,,,,,192,0,2,,,,,1,,,68,0
77376,note_on,,,,,0,0,2,,,,,1,,,71,93
77376,note_off,,,,,192,0,3,,,,,2,,,52,0
77440,note_on,,,,,0,0,4,,,,,3,,,59,84
77440,note_off,,,,,128,0,4,,,,,3,,,56,0
77568,note_on,,,,,192,0,3,,,,,2,,,64,90
77568,note_off,,,,,128,0,4,,,,,3,,,59,0
77568,note_on,,,,,0,0,4,,,,,3,,,64,84
77568,note_on,,,,,0,0,2,,,,,1,,,68,93
77568,note_off,,,,,192,0,2,,,,,1,,,71,0
77568,note_off,,,,,384,0,1,,,,,0,,,76,0
77568,note_on,,,,,0,0,1,,,,,0,,,76,106
77696,note_off,,,,,128,0,3,,,,,2,,,64,0
77696,note_on,,,,,0,0,3,,,,,2,,,66,90
77760,note_off,,,,,192,0,4,,,,,3,,,64,0
77760,note_off,,,,,192,0,2,,,,,1,,,68,0
77760,note_on,,,,,0,0,2,,,,,1,,,71,93
77824,note_on,,,,,0,0,3,,,,,2,,,68,90
77824,note_off,,,,,128,0,3,,,,,2,,,66,0
77952,note_off,,,,,128,0,3,,,,,2,,,68,0
77952,note_on,,,,,192,0,4,,,,,3,,,59,84
77952,note_off,,,,,192,0,2,,,,,1,,,71,0
77952,note_on,,,,,0,0,1,,,,,0,,,83,106
77952,note_on,,,,,0,0,2,,,,,1,,,69,93
77952,note_off,,,,,384,0,1,,,,,0,,,76,0
77952,note_on,,,,,0,0,3,,,,,2,,,59,90
78080,note_on,,,,,0,0,1,,,,,0,,,81,106
78080,note_off,,,,,128,0,1,,,,,0,,,83,0
78144,note_off,,,,,192,0,4,,,,,3,,,59,0
78144,note_off,,,,,192,0,3,,,,,2,,,59,0
78144,note_off,,,,,192,0,2,,,,,1,,,69,0
78144,note_on,,,,,0,0,2,,,,,1,,,71,93
78208,note_on,,,,,0,0,1,,,,,0,,,78,106
78208,note_off,,,,,128,0,1,,,,,0,,,81,0
78336,note_on,,,,,192,0,3,,,,,2,,,52,90
78336,note_off,,,,,192,0,2,,,,,1,,,71,0
78336,note_on,,,,,192,0,4,,,,,3,,,52,84
78336,note_off,,,,,128,0,1,,,,,0,,,78,0
78336,note_on,,,,,0,0,2,,,,,1,,,68,93
78336,note_on,,,,,0,0,1,,,,,0,,,76,106
78464,note_off,,,,,128,0,4,,,,,3,,,52,0
78464,note_on,,,,,0,0,4,,,,,3,,,56,84
78528,note_on,,,,,0,0,2,,,,,1,,,71,93
78528,note_off,,,,,192,0,2,,,,,1,,,68,0
78528,note_off,,,,,192,0,3,,,,,2,,,52,0
78592,note_on,,,,,0,0,4,,,,,3,,,59,84
78592,note_off,,,,,128,0,4,,,,,3,,,56,0
78720,note_on,,,,,0,0,4,,,,,3,,,64,84
78720,note_on,,,,,0,0,2,,,,,1,,,68,93
78720,note_off,,,,,192,0,2,,,,,1,,,71,0
78720,note_off,,,,,128,0,4,,,,,3,,,59,0
78720,note_on,,,,,192,0,3,,,,,2,,,64,90
78848,note_on,,,,,0,0,3,,,,,2,,,66,90
78848,note_off,,,,,128,0,3,,,,,2,,,64,0
78912,note_on,,,,,0,0,2,,,,,1,,,71,93
78912,note_off,,,,,192,0,2,,,,,1,,,68,0
78912,note_off,,,,,192,0,4,,,,,3,,,64,0
78976,note_off,,,,,128,0,3,,,,,2,,,66,0
78976,note_on,,,,,0,0,3,,,,,2,,,68,90
79104,note_off,,,,,768,0,1,,,,,0,,,76,0
79104,note_on,,,,,0,0,1,,,,,0,,,83,106
79104,note_on,,,,,192,0,4,,,,,3,,,59,84
79104,note_off,,,,,128,0,3,,,,,2,,,68,0
79104,note_on,,,,,0,0,3,,,,,2,,,59,90
79104,note_off,,,,,192,0,2,,,,,1,,,71,0
79104,note_on,,,,,0,0,2,,,,,1,,,69,93
79232,note_off,,,,,128,0,1,,,,,0,,,83,0
79232,note_on,,,,,0,0,1,,,,,0,,,81,106
79296,note_off,,,,,192,0,4,,,,,3,,,59,0
79296,note_off,,,,,192,0,3,,,,,2,,,59,0
79296,note_off,,,,,192,0,2,,,,,1,,,69,0
79296,note_on,,,,,0,0,2,,,,,1,,,71,93
79360,note_on,,,,,0,0,1,,,,,0,,,78,106
79360,note_off,,,,,128,0,1,,,,,0,,,81,0
79488,note_on,,,,,192,0,3,,,,,2,,,64,90
79488,note_off,,,,,192,0,2,,,,,1,,,71,0
79488,note_on,,,,,192,0,4,,,,,3,,,52,84
79488,note_on,,,,,0,0,2,,,,,1,,,68,93
79488,note_on,,,,,0,0,1,,,,,0,,,76,106
79488,note_off,,,,,128,0,1,,,,,0,,,78,0
79616,note_off,,,,,128,0,1,,,,,0,,,76,0
79616,note_on,,,,,0,0,1,,,,,0,,,80,106
79680,note_off,,,,,192,0,2,,,,,1,,,68,0
79680,note_off,,,,,192,0,3,,,,,2,,,64,0
79680,note_off,,,,,192,0,4,,,,,3,,,52,0
79744,note_off,,,,,128,0,1,,,,,0,,,80,0
79744,note_on,,,,,0,0,1,,,,,0,,,83,106
79872,note_on,,,,,0,0,2,,,,,1,,,68,93
79872,note_on,,,,,192,0,4,,,,,3,,,56,84
79872,note_on,,,,,0,0,1,,,,,0,,,88,106
79872,note_off,,,,,128,0,1,,,,,0,,,83,0
79872,note_on,,,,,192,0,3,,,,,2,,,59,90
79872,note_on,,,,,192,0,2,,,,,1,,,71,93
80000,note_off,,,,,128,0,1,,,,,0,,,88,0
80000,note_on,,,,,0,0,1,,,,,0,,,83,106
80064,note_off,,,,,192,0,2,,,,,1,,,71,0
80064,note_off,,,,,192,0,4,,,,,3,,,56,0
80064,note_off,,,,,0,0,2,,,,,1,,,68,0
80064,note_off,,,,,192,0,3,,,,,2,,,59,0
80128,note_off,,,,,128,0,1,,,,,0,,,83,0
80128,note_on,,,,,0,0,1,,,,,0,,,80,106
80256,note_off,,,,,128,0,1,,,,,0,,,80,0
80256,note_on,,,,,192,0,4,,,,,3,,,59,84
80256,note_on,,,,,192,0,2,,,,,1,,,59,93
80256,note_on,,,,,192,0,3,,,,,2,,,64,90
80256,note_on,,,,,0,0,2,,,,,1,,,69,93
80256,note_on,,,,,0,0,1,,,,,0,,,81,106
80384,note_off,,,,,128,0,1,,,,,0,,,81,0
80384,note_on,,,,,0,0,1,,,,,0,,,78,106
80448,note_off,,,,,192,0,4,,,,,3,,,59,0
80448,note_off,,,,,192,0,2,,,,,1,,,59,0
80448,note_off,,,,,192,0,3,,,,,2,,,64,0
80448,note_off,,,,,0,0,2,,,,,1,,,69,0
80512,note_on,,,,,0,0,1,,,,,0,,,75,106
80512,note_off,,,,,128,0,1,,,,,0,,,78,0
80640,note_on,,,,,192,0,3,,,,,2,,,64,90
80640,note_on,,,,,192,0,4,,,,,3,,,52,84
80640,note_off,,,,,128,0,1,,,,,0,,,75,0
80640,note_on,,,,,0,0,1,,,,,0,,,76,106
80640,note_on,,,,,192,0,2,,,,,1,,,68,93
80640,note_on,,,,,0,0,2,,,,,1,,,59,93
81024,note_off,,,,,384,0,2,,,,,1,,,68,0
81024,note_off,,,,,384,0,3,,,,,2,,,64,0
81024,note_off,,,,,384,0,4,,,,,3,,,52,0
81024,note_off,,,,,384,0,1,,,,,0,,,76,0
81024,note_off,,,,,0,0,2,,,,,1,,,59,0
81408,note_on,,,,,384,0,2,,,,,1,,,72,93
81408,note_on,,,,,384,0,1,,,,,0,,,76,106
81504,note_off,,,,,96,0,2,,,,,1,,,72,0
81600,note_on,,,,,96,0,2,,,,,1,,,74,93
81696,note_off,,,,,288,0,1,,,,,0,,,76,0
81696,note_off,,,,,96,0,2,,,,,1,,,74,0
81696,note_on,,,,,0,0,1,,,,,0,,,77,106
81792,note_on,,,,,96,0,2,,,,,1,,,76,93
81792,note_on,,,,,0,0,1,,,,,0,,,79,106
81792,note_off,,,,,96,0,1,,,,,0,,,77,0
81888,note_off,,,,,96,0,2,,,,,1,,,76,0
81984,note_on,,,,,96,0,2,,,,,1,,,74,93
82080,note_off,,,,,96,0,2,,,,,1,,,74,0
82176,note_on,,,,,96,0,2,,,,,1,,,72,93
82176,note_off,,,,,384,0,1,,,,,0,,,79,0
82176,note_on,,,,,0,0,1,,,,,0,,,76,106
82272,note_off,,,,,96,0,2,,,,,1,,,72,0
82368,note_on,,,,,96,0,2,,,,,1,,,71,93
82464,note_off,,,,,96,0,2,,,,,1,,,71,0
82560,note_on,,,,,0,0,1,,,,,0,,,81,106
82560,note_off,,,,,384,0,1,,,,,0,,,76,0
82560,note_on,,,,,96,0,2,,,,,1,,,72,93
82656,note_off,,,,,96,0,2,,,,,1,,,72,0
82752,note_on,,,,,96,0,2,,,,,1,,,69,93
82848,note_off,,,,,96,0,2,,,,,1,,,69,0
82944,note_on,,,,,0,0,1,,,,,0,,,74,106
82944,note_off,,,,,384,0,1,,,,,0,,,81,0
82944,note_on,,,,,96,0,2,,,,,1,,,71,93
83040,note_off,,,,,96,0,2,,,,,1,,,71,0
83136,note_on,,,,,96,0,2,,,,,1,,,72,93
83232,note_on,,,,,0,0,1,,,,,0,,,76,106
83232,note_off,,,,,288,0,1,,,,,0,,,74,0
83232,note_off,,,,,96,0,2,,,,,1,,,72,0
83328,note_on,,,,,96,0,2,,,,,1,,,74,93
83328,note_on,,,,,0,0,1,,,,,0,,,77,106
83328,note_off,,,,,96,0,1,,,,,0,,,76,0
83424,note_off,,,,,96,0,2,,,,,1,,,74,0
83520,note_on,,,,,96,0,2,,,,,1,,,71,93
83616,note_off,,,,,96,0,2,,,,,1,,,71,0
83712,note_on,,,,,96,0,2,,,,,1,,,67,93
83808,note_off,,,,,96,0,2,,,,,1,,,67,0
83904,note_on,,,,,96,0,2,,,,,1,,,71,93
84000,note_off,,,,,96,0,2,,,,,1,,,71,0
84096,note_on,,,,,96,0,2,,,,,1,,,72,93
84096,note_off,,,,,768,0,1,,,,,0,,,77,0
84096,note_on,,,,,0,0,1,,,,,0,,,76,106
84192,note_off,,,,,96,0,2,,,,,1,,,72,0
84288,note_on,,,,,96,0,2,,,,,1,,,71,93
84384,note_off,,,,,96,0,2,,,,,1,,,71,0
84480,note_on,,,,,0,0,1,,,,,0,,,72,106
84480,note_on,,,,,96,0,2,,,,,1,,,69,93
84480,note_off,,,,,384,0,1,,,,,0,,,76,0
84576,note_off,,,,,96,0,2,,,,,1,,,69,0
84672,note_on,,,,,96,0,2,,,,,1,,,70,93
84768,note_off,,,,,96,0,2,,,,,1,,,70,0
84864,note_off,,,,,384,0,1,,,,,0,,,72,0
84864,note_on,,,,,0,0,1,,,,,0,,,77,106
84864,note_on,,,,,96,0,2,,,,,1,,,69,93
84960,note_off,,,,,96,0,2,,,,,1,,,69,0
85056,note_on,,,,,96,0,2,,,,,1,,,65,93
85152,note_off,,,,,96,0,2,,,,,1,,,65,0
85248,note_on,,,,,96,0,2,,,,,1,,,66,93
85248,note_on,,,,,0,0,1,,,,,0,,,74,106
85248,note_off,,,,,384,0,1,,,,,0,,,77,0
85344,note_off,,,,,96,0,2,,,,,1,,,66,0
85440,note_on,,,,,96,0,2,,,,,1,,,67,93
85536,note_off,,,,,96,0,2,,,,,1,,,67,0
85536,note_on,,,,,0,0,1,,,,,0,,,71,106
85536,note_off,,,,,288,0,1,,,,,0,,,74,0
85632,note_on,,,,,0,0,1,,,,,0,,,67,106
85632,note_off,,,,,96,0,1,,,,,0,,,71,0
85632,note_on,,,,,96,0,2,,,,,1,,,71,93
85728,note_off,,,,,96,0,2,,,,,1,,,71,0
85824,note_on,,,,,96,0,2,,,,,1,,,67,93
85920,note_off,,,,,96,0,2,,,,,1,,,67,0
86016,note_on,,,,,0,0,1,,,,,0,,,76,106
86016,note_on,,,,,4992,0,3,,,,,2,,,60,90
86016,note_off,,,,,384,0,1,,,,,0,,,67,0
86016,note_on,,,,,4992,0,4,,,,,3,,,48,84
86016,note_on,,,,,96,0,2,,,,,1,,,64,93
86112,note_off,,,,,96,0,3,,,,,2,,,60,0
86112,note_off,,,,,96,0,4,,,,,3,,,48,0
86208,note_on,,,,,96,0,4,,,,,3,,,50,84
86208,note_on,,,,,96,0,3,,,,,2,,,62,90
86304,note_off,,,,,288,0,2,,,,,1,,,64,0
86304,note_on,,,,,0,0,2,,,,,1,,,65,93
86304,note_on,,,,,0,0,1,,,,,0,,,77,106
86304,note_off,,,,,96,0,3,,,,,2,,,62,0
86304,note_off,,,,,288,0,1,,,,,0,,,76,0
86304,note_off,,,,,96,0,4,,,,,3,,,50,0
86400,note_off,,,,,96,0,1,,,,,0,,,77,0
86400,note_on,,,,,0,0,1,,,,,0,,,79,106
86400,note_on,,,,,0,0,2,,,,,1,,,67,93
86400,note_on,,,,,96,0,4,,,,,3,,,52,84
86400,note_off,,,,,96,0,2,,,,,1,,,65,0
86400,note_on,,,,,96,0,3,,,,,2,,,64,90
86496,note_off,,,,,96,0,4,,,,,3,,,52,0
86496,note_off,,,,,96,0,3,,,,,2,,,64,0
86592,note_on,,,,,96,0,3,,,,,2,,,62,90
86592,note_on,,,,,96,0,4,,,,,3,,,50,84
86688,note_off,,,,,96,0,4,,,,,3,,,50,0
86688,note_off,,,,,96,0,3,,,,,2,,,62,0
86784,note_on,,,,,96,0,4,,,,,3,,,48,84
86784,note_on,,,,,96,0,3,,,,,2,,,60,90
86784,note_on,,,,,0,0,1,,,,,0,,,76,106
86784,note_off,,,,,384,0,2,,,,,1,,,67,0
86784,note_on,,,,,0,0,2,,,,,1,,,64,93
86784,note_off,,,,,384,0,1,,,,,0,,,79,0
86880,note_off,,,,,96,0,3,,,,,2,,,60,0
86880,note_off,,,,,96,0,4,,,,,3,,,48,0
86976,note_on,,,,,96,0,4,,,,,3,,,47,84
86976,note_on,,,,,96,0,3,,,,,2,,,59,90
87072,note_off,,,,,96,0,3,,,,,2,,,59,0
87072,note_off,,,,,96,0,4,,,,,3,,,47,0
87168,note_on,,,,,96,0,4,,,,,3,,,48,84
87168,note_on,,,,,96,0,3,,,,,2,,,60,90
87168,note_off,,,,,384,0,1,,,,,0,,,76,0
87168,note_off,,,,,384,0,2,,,,,1,,,64,0
87168,note_on,,,,,0,0,2,,,,,1,,,69,93
87168,note_on,,,,,0,0,1,,,,,0,,,81,106
87264,note_off,,,,,96,0,4,,,,,3,,,48,0
87264,note_off,,,,,96,0,3,,,,,2,,,60,0
87360,note_on,,,,,96,0,4,,,,,3,,,45,84
87360,note_on,,,,,96,0,3,,,,,2,,,57,90
87456,note_off,,,,,96,0,3,,,,,2,,,57,0
87456,note_off,,,,,96,0,4,,,,,3,,,45,0
87552,note_off,,,,,384,0,2,,,,,1,,,69,0
87552,note_on,,,,,0,0,1,,,,,0,,,74,106
87552,note_on,,,,,0,0,2,,,,,1,,,62,93
87552,note_off,,,,,384,0,1,,,,,0,,,81,0
87552,note_on,,,,,96,0,3,,,,,2,,,59,90
87552,note_on,,,,,96,0,4,,,,,3,,,47,84
87648,note_off,,,,,96,0,4,,,,,3,,,47,0
87648,note_off,,,,,96,0,3,,,,,2,,,59,0
87744,note_on,,,,,96,0,4,,,,,3,,,48,84
87744,note_on,,,,,96,0,3,,,,,2,,,60,90
87840,note_off,,,,,96,0,4,,,,,3,,,48,0
87840,note_off,,,,,96,0,3,,,,,2,,,60,0
87840,note_off,,,,,288,0,2,,,,,1,,,62,0
87840,note_on,,,,,0,0,2,,,,,1,,,64,93
87840,note_on,,,,,0,0,1,,,,,0,,,76,106
87840,note_off,,,,,288,0,1,,,,,0,,,74,0
87936,note_on,,,,,96,0,4,,,,,3,,,50,84
87936,note_off,,,,,96,0,1,,,,,0,,,76,0
87936,note_on,,,,,0,0,1,,,,,0,,,77,106
87936,note_off,,,,,96,0,2,,,,,1,,,64,0
87936,note_on,,,,,0,0,2,,,,,1,,,65,93
87936,note_on,,,,,96,0,3,,,,,2,,,62,90
88032,note_off,,,,,96,0,4,,,,,3,,,50,0
88032,note_off,,,,,96,0,3,,,,,2,,,62,0
88128,note_on,,,,,96,0,4,,,,,3,,,47,84
88128,note_on,,,,,96,0,3,,,,,2,,,59,90
88224,note_off,,,,,96,0,4,,,,,3,,,47,0
88224,note_off,,,,,96,0,3,,,,,2,,,59,0
88320,note_on,,,,,96,0,4,,,,,3,,,43,84
88320,note_on,,,,,96,0,3,,,,,2,,,55,90
88416,note_off,,,,,96,0,4,,,,,3,,,43,0
88416,note_off,,,,,96,0,3,,,,,2,,,55,0
88512,note_off,,,,,576,0,2,,,,,1,,,65,0
88512,note_on,,,,,96,0,3,,,,,2,,,59,90
88512,note_on,,,,,0,0,2,,,,,1,,,67,93
88512,note_on,,,,,96,0,4,,,,,3,,,47,84
88608,note_off,,,,,96,0,3,,,,,2,,,59,0
88608,note_off,,,,,96,0,4,,,,,3,,,47,0
88704,note_on,,,,,96,0,3,,,,,2,,,60,90
88704,note_on,,,,,96,0,4,,,,,3,,,48,84
88704,note_on,,,,,0,0,2,,,,,1,,,67,93
88704,note_off,,,,,192,0,2,,,,,1,,,67,0
88800,note_off,,,,,96,0,3,,,,,2,,,60,0
88800,note_off,,,,,96,0,4,,,,,3,,,48,0
88896,note_on,,,,,96,0,3,,,,,2,,,62,90
88896,note_on,,,,,96,0,4,,,,,3,,,50,84
88992,note_off,,,,,96,0,3,,,,,2,,,62,0
88992,note_off,,,,,96,0,4,,,,,3,,,50,0
89088,note_off,,,,,1152,0,1,,,,,0,,,77,0
89088,note_on,,,,,0,0,1,,,,,0,,,75,106
89088,note_on,,,,,96,0,4,,,,,3,,,51,84
89088,note_on,,,,,96,0,3,,,,,2,,,63,90
89184,note_off,,,,,96,0,3,,,,,2,,,63,0
89184,note_off,,,,,96,0,4,,,,,3,,,51,0
89280,note_on,,,,,96,0,4,,,,,3,,,48,84
89280,note_on,,,,,96,0,3,,,,,2,,,60,90
89376,note_off,,,,,96,0,4,,,,,3,,,48,0
89376,note_off,,,,,96,0,3,,,,,2,,,60,0
89472,note_on,,,,,96,0,4,,,,,3,,,53,84
89472,note_on,,,,,96,0,3,,,,,2,,,65,90
89472,note_on,,,,,0,0,2,,,,,1,,,69,93
89472,note_off,,,,,768,0,2,,,,,1,,,67,0
89472,note_off,,,,,384,0,1,,,,,0,,,75,0
89472,note_on,,,,,0,0,1,,,,,0,,,72,106
89568,note_off,,,,,96,0,3,,,,,2,,,65,0
89568,note_off,,,,,96,0,4,,,,,3,,,53,0
89664,note_on,,,,,96,0,4,,,,,3,,,51,84
89664,note_on,,,,,96,0,3,,,,,2,,,63,90
89760,note_off,,,,,96,0,4,,,,,3,,,51,0
89760,note_off,,,,,96,0,3,,,,,2,,,63,0
89856,note_on,,,,,0,0,2,,,,,1,,,70,93
89856,note_off,,,,,384,0,2,,,,,1,,,69,0
89856,note_on,,,,,96,0,4,,,,,3,,,50,84
89856,note_off,,,,,384,0,1,,,,,0,,,72,0
89856,note_on,,,,,0,0,1,,,,,0,,,70,106
89856,note_on,,,,,96,0,3,,,,,2,,,62,90
89952,note_off,,,,,96,0,3,,,,,2,,,62,0
89952,note_off,,,,,96,0,4,,,,,3,,,50,0
90048,note_on,,,,,96,0,3,,,,,2,,,60,90
90048,note_on,,,,,96,0,4,,,,,3,,,48,84
90144,note_off,,,,,96,0,3,,,,,2,,,60,0
90144,note_off,,,,,96,0,4,,,,,3,,,48,0
90240,note_on,,,,,96,0,3,,,,,2,,,58,90
90240,note_off,,,,,384,0,2,,,,,1,,,70,0
90240,note_on,,,,,96,0,4,,,,,3,,,46,84
90240,note_off,,,,,384,0,1,,,,,0,,,70,0
90336,note_off,,,,,96,0,4,,,,,3,,,46,0
90336,note_off,,,,,96,0,3,,,,,2,,,58,0
90432,note_on,,,,,96,0,4,,,,,3,,,45,84
90432,note_on,,,,,96,0,3,,,,,2,,,57,90
90528,note_off,,,,,96,0,4,,,,,3,,,45,0
90528,note_off,,,,,96,0,3,,,,,2,,,57,0
90624,note_on,,,,,96,0,3,,,,,2,,,58,90
90624,note_on,,,,,384,0,1,,,,,0,,,74,106
90624,note_on,,,,,96,0,4,,,,,3,,,46,84
90720,note_off,,,,,96,0,4,,,,,3,,,46,0
90720,note_off,,,,,96,0,3,,,,,2,,,58,0
90816,note_on,,,,,96,0,4,,,,,3,,,48,84
90816,note_on,,,,,96,0,3,,,,,2,,,60,90
90912,note_off,,,,,288,0,1,,,,,0,,,74,0
90912,note_off,,,,,96,0,4,,,,,3,,,48,0
90912,note_off,,,,,96,0,3,,,,,2,,,60,0
90912,note_on,,,,,0,0,1,,,,,0,,,76,106
91008,note_on,,,,,96,0,3,,,,,2,,,58,90
91008,note_on,,,,,768,0,2,,,,,1,,,62,93
91008,note_off,,,,,96,0,1,,,,,0,,,76,0
91008,note_on,,,,,0,0,1,,,,,0,,,77,106
91008,note_on,,,,,96,0,4,,,,,3,,,46,84
91104,note_off,,,,,96,0,3,,,,,2,,,58,0
91104,note_off,,,,,96,0,4,,,,,3,,,46,0
91200,note_on,,,,,96,0,3,,,,,2,,,60,90
91200,note_on,,,,,96,0,4,,,,,3,,,48,84
91296,note_off,,,,,96,0,4,,,,,3,,,48,0
91296,note_off,,,,,288,0,2,,,,,1,,,62,0
91296,note_off,,,,,96,0,3,,,,,2,,,60,0
91296,note_on,,,,,0,0,2,,,,,1,,,64,93
91392,note_on,,,,,0,0,2,,,,,1,,,65,93
91392,note_on,,,,,96,0,3,,,,,2,,,62,90
91392,note_off,,,,,96,0,2,,,,,1,,,64,0
91392,note_on,,,,,96,0,4,,,,,3,,,50,84
91488,note_off,,,,,96,0,4,,,,,3,,,50,0
91488,note_off,,,,,96,0,3,,,,,2,,,62,0
91584,note_on,,,,,96,0,3,,,,,2,,,60,90
91584,note_on,,,,,96,0,4,,,,,3,,,48,84
91680,note_off,,,,,96,0,4,,,,,3,,,48,0
91680,note_off,,,,,96,0,3,,,,,2,,,60,0
91776,note_on,,,,,96,0,4,,,,,3,,,46,84
91776,note_off,,,,,768,0,1,,,,,0,,,77,0
91776,note_on,,,,,96,0,3,,,,,2,,,58,90
91776,note_on,,,,,0,0,1,,,,,0,,,74,106
91872,note_off,,,,,96,0,4,,,,,3,,,46,0
91872,note_off,,,,,96,0,3,,,,,2,,,58,0
91968,note_on,,,,,96,0,4,,,,,3,,,50,84
91968,note_on,,,,,96,0,3,,,,,2,,,62,90
92064,note_off,,,,,96,0,3,,,,,2,,,62,0
92064,note_off,,,,,96,0,4,,,,,3,,,50,0
92064,note_on,,,,,0,0,1,,,,,0,,,76,106
92064,note_off,,,,,288,0,1,,,,,0,,,74,0
92160,note_on,,,,,0,0,1,,,,,0,,,77,106
92160,note_on,,,,,0,0,2,,,,,1,,,62,93
92160,note_off,,,,,768,0,2,,,,,1,,,65,0
92160,note_on,,,,,96,0,3,,,,,2,,,57,90
92160,note_on,,,,,96,0,4,,,,,3,,,45,84
92160,note_off,,,,,96,0,1,,,,,0,,,76,0
92256,note_off,,,,,96,0,3,,,,,2,,,57,0
92256,note_off,,,,,96,0,4,,,,,3,,,45,0
92352,note_on,,,,,96,0,4,,,,,3,,,49,84
92352,note_on,,,,,96,0,3,,,,,2,,,61,90
92448,note_off,,,,,288,0,2,,,,,1,,,62,0
92448,note_off,,,,,96,0,3,,,,,2,,,61,0
92448,note_on,,,,,0,0,2,,,,,1,,,64,93
92448,note_off,,,,,96,0,4,,,,,3,,,49,0
92544,note_on,,,,,0,0,2,,,,,1,,,65,93
92544,note_off,,,,,96,0,2,,,,,1,,,64,0
92544,note_on,,,,,96,0,4,,,,,3,,,50,84
92544,note_on,,,,,96,0,3,,,,,2,,,62,90
92640,note_off,,,,,96,0,4,,,,,3,,,50,0
92640,note_off,,,,,96,0,3,,,,,2,,,62,0
92736,note_on,,,,,96,0,3,,,,,2,,,58,90
92736,note_on,,,,,96,0,4,,,,,3,,,46,84
92832,note_off,,,,,96,0,4,,,,,3,,,46,0
92832,note_off,,,,,96,0,3,,,,,2,,,58,0
92928,note_on,,,,,96,0,4,,,,,3,,,45,84
92928,note_on,,,,,96,0,3,,,,,2,,,57,90
92928,note_off,,,,,768,0,1,,,,,0,,,77,0
92928,note_on,,,,,0,0,1,,,,,0,,,77,106
93024,note_off,,,,,96,0,4,,,,,3,,,45,0
93024,note_off,,,,,96,0,3,,,,,2,,,57,0
93120,note_on,,,,,96,0,3,,,,,2,,,61,90
93120,note_on,,,,,96,0,4,,,,,3,,,50,84
93216,note_on,,,,,0,0,1,,,,,0,,,76,106
93216,note_off,,,,,288,0,1,,,,,0,,,77,0
93216,note_off,,,,,96,0,4,,,,,3,,,50,0
93216,note_off,,,,,96,0,3,,,,,2,,,61,0
93264,note_off,,,,,48,0,1,,,,,0,,,76,0
93264,note_on,,,,,0,0,1,,,,,0,,,76,106
93312,note_off,,,,,48,0,1,,,,,0,,,76,0
93312,note_on,,,,,0,0,1,,,,,0,,,75,106
93312,note_on,,,,,0,0,2,,,,,1,,,66,93
93312,note_off,,,,,768,0,2,,,,,1,,,65,0
93312,note_on,,,,,96,0,3,,,,,2,,,57,90
93312,note_on,,,,,96,0,4,,,,,3,,,45,84
93408,note_off,,,,,96,0,3,,,,,2,,,57,0
93408,note_off,,,,,96,0,4,,,,,3,,,45,0
93504,note_on,,,,,96,0,3,,,,,2,,,60,90
93504,note_off,,,,,192,0,2,,,,,1,,,66,0
93504,note_on,,,,,96,0,4,,,,,3,,,48,84
93504,note_off,,,,,192,0,1,,,,,0,,,75,0
93600,note_off,,,,,96,0,3,,,,,2,,,60,0
93600,note_off,,,,,96,0,4,,,,,3,,,48,0
93696,note_on,,,,,192,0,2,,,,,1,,,66,93
93696,note_on,,,,,96,0,3,,,,,2,,,59,90
93696,note_on,,,,,96,0,4,,,,,3,,,47,84
93696,note_on,,,,,192,0,1,,,,,0,,,75,106
93792,note_off,,,,,96,0,4,,,,,3,,,47,0
93792,note_off,,,,,96,0,3,,,,,2,,,59,0
93888,note_off,,,,,192,0,2,,,,,1,,,66,0
93888,note_on,,,,,96,0,3,,,,,2,,,60,90
93888,note_off,,,,,192,0,1,,,,,0,,,75,0
93888,note_on,,,,,96,0,4,,,,,3,,,48,84
93984,note_off,,,,,96,0,3,,,,,2,,,60,0
93984,note_off,,,,,96,0,4,,,,,3,,,48,0
94080,note_on,,,,,192,0,2,,,,,1,,,66,93
94080,note_on,,,,,96,0,4,,,,,3,,,47,84
94080,note_on,,,,,96,0,3,,,,,2,,,57,90
94080,note_on,,,,,192,0,1,,,,,0,,,75,106
94176,note_off,,,,,96,0,3,,,,,2,,,57,0
94176,note_off,,,,,96,0,4,,,,,3,,,47,0
94272,note_off,,,,,192,0,1,,,,,0,,,75,0
94272,note_on,,,,,96,0,3,,,,,2,,,55,90
94272,note_on,,,,,96,0,4,,,,,3,,,45,84
94272,note_off,,,,,192,0,2,,,,,1,,,66,0
94368,note_off,,,,,96,0,3,,,,,2,,,55,0
94368,note_off,,,,,96,0,4,,,,,3,,,45,0
94464,note_on,,,,,96,0,3,,,,,2,,,56,90
94464,note_on,,,,,192,0,2,,,,,1,,,64,93
94464,note_on,,,,,192,0,1,,,,,0,,,76,106
94464,note_on,,,,,96,0,4,,,,,3,,,44,84
94560,note_off,,,,,96,0,4,,,,,3,,,44,0
94560,note_off,,,,,96,0,3,,,,,2,,,56,0
94656,note_on,,,,,96,0,4,,,,,3,,,47,84
94656,note_on,,,,,96,0,3,,,,,2,,,59,90
94752,note_off,,,,,96,0,4,,,,,3,,,47,0
94752,note_off,,,,,96,0,3,,,,,2,,,59,0
94848,note_on,,,,,96,0,3,,,,,2,,,64,90
94848,note_on,,,,,96,0,4,,,,,3,,,52,84
94944,note_off,,,,,96,0,3,,,,,2,,,64,0
94944,note_off,,,,,96,0,4,,,,,3,,,52,0
95040,note_on,,,,,96,0,3,,,,,2,,,62,90
95040,note_on,,,,,96,0,4,,,,,3,,,50,84
95136,note_off,,,,,96,0,3,,,,,2,,,62,0
95136,note_off,,,,,96,0,4,,,,,3,,,50,0
95232,note_on,,,,,96,0,4,,,,,3,,,48,84
95232,note_on,,,,,0,0,2,,,,,1,,,64,93
95232,note_on,,,,,96,0,3,,,,,2,,,60,90
95232,note_on,,,,,0,0,1,,,,,0,,,76,106
95232,note_off,,,,,768,0,2,,,,,1,,,64,0
95232,note_off,,,,,768,0,1,,,,,0,,,76,0
95328,note_off,,,,,96,0,4,,,,,3,,,48,0
95328,note_off,,,,,96,0,3,,,,,2,,,60,0
95424,note_on,,,,,96,0,4,,,,,3,,,50,84
95424,note_on,,,,,96,0,3,,,,,2,,,62,90
95520,note_off,,,,,96,0,4,,,,,3,,,50,0
95520,note_off,,,,,288,0,1,,,,,0,,,76,0
95520,note_on,,,,,0,0,1,,,,,0,,,77,106
95520,note_on,,,,,0,0,2,,,,,1,,,65,93
95520,note_off,,,,,288,0,2,,,,,1,,,64,0
95520,note_off,,,,,96,0,3,,,,,2,,,62,0
95616,note_off,,,,,96,0,1,,,,,0,,,77,0
95616,note_on,,,,,0,0,1,,,,,0,,,79,106
95616,note_on,,,,,96,0,4,,,,,3,,,52,84
95616,note_on,,,,,0,0,2,,,,,1,,,67,93
95616,note_off,,,,,96,0,2,,,,,1,,,65,0
95616,note_on,,,,,96,0,3,,,,,2,,,64,90
95712,note_off,,,,,96,0,4,,,,,3,,,52,0
95712,note_off,,,,,96,0,3,,,,,2,,,64,0
95808,note_on,,,,,96,0,4,,,,,3,,,50,84
95808,note_on,,,,,96,0,3,,,,,2,,,62,90
95904,note_off,,,,,96,0,3,,,,,2,,,62,0
95904,note_off,,,,,96,0,4,,,,,3,,,50,0
96000,note_on,,,,,0,0,1,,,,,0,,,76,106
96000,note_off,,,,,384,0,1,,,,,0,,,79,0
96000,note_on,,,,,0,0,2,,,,,1,,,64,93
96000,note_on,,,,,96,0,4,,,,,3,,,48,84
96000,note_on,,,,,96,0,3,,,,,2,,,60,90
96000,note_off,,,,,384,0,2,,,,,1,,,67,0
96096,note_off,,,,,96,0,3,,,,,2,,,60,0
96096,note_off,,,,,96,0,4,,,,,3,,,48,0
96192,note_on,,,,,96,0,3,,,,,2,,,59,90
96192,note_on,,,,,96,0,4,,,,,3,,,47,84
96288,note_off,,,,,96,0,3,,,,,2,,,59,0
96288,note_off,,,,,96,0,4,,,,,3,,,47,0
96384,note_on,,,,,0,0,2,,,,,1,,,69,93
96384,note_on,,,,,96,0,4,,,,,3,,,48,84
96384,note_off,,,,,384,0,2,,,,,1,,,64,0
96384,note_off,,,,,384,0,1,,,,,0,,,76,0
96384,note_on,,,,,0,0,1,,,,,0,,,81,106
96384,note_on,,,,,96,0,3,,,,,2,,,60,90
96480,note_off,,,,,96,0,4,,,,,3,,,48,0
96480,note_off,,,,,96,0,3,,,,,2,,,60,0
96576,note_on,,,,,96,0,4,,,,,3,,,45,84
96576,note_on,,,,,96,0,3,,,,,2,,,57,90
96672,note_off,,,,,96,0,3,,,,,2,,,57,0
96672,note_off,,,,,96,0,4,,,,,3,,,45,0
96768,note_off,,,,,384,0,2,,,,,1,,,69,0
96768,note_on,,,,,96,0,4,,,,,3,,,47,84
96768,note_off,,,,,384,0,1,,,,,0,,,81,0
96768,note_on,,,,,0,0,1,,,,,0,,,74,106
96768,note_on,,,,,0,0,2,,,,,1,,,62,93
96768,note_on,,,,,96,0,3,,,,,2,,,59,90
96864,note_off,,,,,96,0,4,,,,,3,,,47,0
96864,note_off,,,,,96,0,3,,,,,2,,,59,0
96960,note_on,,,,,96,0,4,,,,,3,,,48,84
96960,note_on,,,,,96,0,3,,,,,2,,,60,90
97056,note_off,,,,,96,0,3,,,,,2,,,60,0
97056,note_off,,,,,96,0,4,,,,,3,,,48,0
97056,note_off,,,,,288,0,2,,,,,1,,,62,0
97056,note_on,,,,,0,0,2,,,,,1,,,64,93
97056,note_off,,,,,288,0,1,,,,,0,,,74,0
97056,note_on,,,,,0,0,1,,,,,0,,,76,106
97152,note_on,,,,,0,0,2,,,,,1,,,65,93
97152,note_off,,,,,96,0,2,,,,,1,,,64,0
97152,note_off,,,,,96,0,1,,,,,0,,,76,0
97152,note_on,,,,,96,0,4,,,,,3,,,50,84
97152,note_on,,,,,96,0,3,,,,,2,,,62,90
97152,note_on,,,,,0,0,1,,,,,0,,,77,106
97248,note_off,,,,,96,0,3,,,,,2,,,62,0
97248,note_off,,,,,96,0,4,,,,,3,,,50,0
97344,note_on,,,,,96,0,4,,,,,3,,,47,84
97344,note_on,,,,,96,0,3,,,,,2,,,59,90
97440,note_off,,,,,96,0,3,,,,,2,,,59,0
97440,note_off,,,,,96,0,4,,,,,3,,,47,0
97536,note_on,,,,,96,0,4,,,,,3,,,43,84
97536,note_on,,,,,96,0,3,,,,,2,,,55,90
97632,note_off,,,,,96,0,3,,,,,2,,,55,0
97632,note_off,,,,,96,0,4,,,,,3,,,43,0
97728,note_on,,,,,96,0,3,,,,,2,,,59,90
97728,note_on,,,,,96,0,4,,,,,3,,,47,84
97728,note_off,,,,,576,0,2,,,,,1,,,65,0
97728,note_on,,,,,0,0,2,,,,,1,,,67,93
97824,note_off,,,,,96,0,3,,,,,2,,,59,0
97824,note_off,,,,,96,0,4,,,,,3,,,47,0
97920,note_on,,,,,96,0,4,,,,,3,,,48,84
97920,note_off,,,,,192,0,2,,,,,1,,,67,0
97920,note_on,,,,,96,0,3,,,,,2,,,60,90
97920,note_on,,,,,0,0,2,,,,,1,,,67,93
98016,note_off,,,,,96,0,4,,,,,3,,,48,0
98016,note_off,,,,,96,0,3,,,,,2,,,60,0
98112,note_on,,,,,96,0,4,,,,,3,,,50,84
98112,note_on,,,,,96,0,3,,,,,2,,,62,90
98208,note_off,,,,,96,0,4,,,,,3,,,50,0
98208,note_off,,,,,96,0,3,,,,,2,,,62,0
98304,note_on,,,,,96,0,3,,,,,2,,,64,90
98304,note_on,,,,,96,0,4,,,,,3,,,52,84
98304,note_on,,,,,0,0,1,,,,,0,,,76,106
98304,note_off,,,,,1152,0,1,,,,,0,,,77,0
98400,note_off,,,,,96,0,4,,,,,3,,,52,0
98400,note_off,,,,,96,0,3,,,,,2,,,64,0
98496,note_on,,,,,96,0,3,,,,,2,,,65,90
98496,note_on,,,,,96,0,4,,,,,3,,,53,84
98592,note_off,,,,,96,0,4,,,,,3,,,53,0
98592,note_off,,,,,96,0,3,,,,,2,,,65,0
98688,note_on,,,,,0,0,1,,,,,0,,,74,106
98688,note_on,,,,,96,0,4,,,,,3,,,55,84
98688,note_off,,,,,384,0,1,,,,,0,,,76,0
98688,note_off,,,,,768,0,2,,,,,1,,,67,0
98688,note_on,,,,,0,0,2,,,,,1,,,71,93
98688,note_on,,,,,0,0,2,,,,,1,,,65,93
98688,note_on,,,,,96,0,3,,,,,2,,,67,90
98736,note_on,,,,,0,0,1,,,,,0,,,76,106
98736,note_off,,,,,48,0,1,,,,,0,,,74,0
98784,note_off,,,,,48,0,1,,,,,0,,,76,0
98784,note_on,,,,,0,0,1,,,,,0,,,74,106
98784,note_off,,,,,96,0,3,,,,,2,,,67,0
98784,note_off,,,,,96,0,4,,,,,3,,,55,0
98832,note_on,,,,,0,0,1,,,,,0,,,76,106
98832,note_off,,,,,48,0,1,,,,,0,,,74,0
98880,note_off,,,,,48,0,1,,,,,0,,,76,0
98880,note_on,,,,,96,0,3,,,,,2,,,55,90
98880,note_on,,,,,96,0,4,,,,,3,,,43,84
98880,note_on,,,,,0,0,1,,,,,0,,,74,106
98928,note_off,,,,,48,0,1,,,,,0,,,74,0
98928,note_on,,,,,0,0,1,,,,,0,,,76,106
98976,note_off,,,,,48,0,1,,,,,0,,,76,0
98976,note_on,,,,,0,0,1,,,,,0,,,72,106
98976,note_off,,,,,96,0,4,,,,,3,,,43,0
98976,note_off,,,,,96,0,3,,,,,2,,,55,0
99024,note_off,,,,,48,0,1,,,,,0,,,72,0
99024,note_on,,,,,0,0,1,,,,,0,,,74,106
99072,note_off,,,,,48,0,1,,,,,0,,,74,0
99072,note_on,,,,,0,0,1,,,,,0,,,72,106
99072,note_on,,,,,96,0,4,,,,,3,,,48,84
99072,note_on,,,,,0,0,2,,,,,1,,,72,93
99072,note_on,,,,,0,0,2,,,,,1,,,64,93
99072,note_on,,,,,96,0,3,,,,,2,,,60,90
99072,note_off,,,,,0,0,2,,,,,1,,,65,0
99072,note_off,,,,,384,0,2,,,,,1,,,71,0
99168,note_off,,,,,96,0,1,,,,,0,,,72,0
99264,note_on,,,,,96,0,1,,,,,0,,,71,106
99360,note_off,,,,,96,0,1,,,,,0,,,71,0
99456,note_off,,,,,384,0,4,,,,,3,,,48,0
99456,note_on,,,,,96,0,1,,,,,0,,,72,106
99456,note_off,,,,,384,0,2,,,,,1,,,64,0
99456,note_off,,,,,0,0,2,,,,,1,,,72,0
99456,note_off,,,,,384,0,3,,,,,2,,,60,0
99552,note_off,,,,,96,0,1,,,,,0,,,72,0
99648,note_on,,,,,96,0,1,,,,,0,,,74,106
99744,note_off,,,,,96,0,1,,,,,0,,,74,0
99840,note_on,,,,,96,0,1,,,,,0,,,76,106
99936,note_off,,,,,96,0,1,,,,,0,,,76,0
100032,note_on,,,,,96,0,1,,,,,0,,,77,106
100128,note_off,,,,,96,0,1,,,,,0,,,77,0
100224,note_on,,,,,768,0,2,,,,,1,,,64,93
100224,note_on,,,,,96,0,1,,,,,0,,,79,106
100224,note_on,,,,,768,0,4,,,,,3,,,52,84
100224,note_on,,,,,768,0,3,,,,,2,,,55,90
100320,note_off,,,,,96,0,2,,,,,1,,,64,0
100320,note_off,,,,,96,0,1,,,,,0,,,79,0
100416,note_on,,,,,96,0,2,,,,,1,,,62,93
100416,note_on,,,,,96,0,1,,,,,0,,,81,106
100512,note_off,,,,,96,0,1,,,,,0,,,81,0
100512,note_off,,,,,96,0,2,,,,,1,,,62,0
100608,note_off,,,,,384,0,3,,,,,2,,,55,0
100608,note_off,,,,,384,0,4,,,,,3,,,52,0
100608,note_on,,,,,96,0,2,,,,,1,,,61,93
100608,note_on,,,,,0,0,3,,,,,2,,,55,90
100608,note_on,,,,,96,0,1,,,,,0,,,82,106
100608,note_on,,,,,0,0,4,,,,,3,,,52,84
100704,note_off,,,,,96,0,1,,,,,0,,,82,0
100704,note_off,,,,,96,0,2,,,,,1,,,61,0
100800,note_on,,,,,96,0,2,,,,,1,,,62,93
100800,note_on,,,,,96,0,1,,,,,0,,,81,106
100896,note_off,,,,,96,0,2,,,,,1,,,62,0
100896,note_off,,,,,96,0,1,,,,,0,,,81,0
100992,note_off,,,,,384,0,4,,,,,3,,,52,0
100992,note_off,,,,,384,0,3,,,,,2,,,55,0
100992,note_on,,,,,96,0,2,,,,,1,,,64,93
100992,note_on,,,,,96,0,1,,,,,0,,,79,106
101088,note_off,,,,,96,0,2,,,,,1,,,64,0
101088,note_off,,,,,96,0,1,,,,,0,,,79,0
101184,note_on,,,,,96,0,2,,,,,1,,,65,93
101184,note_on,,,,,96,0,1,,,,,0,,,77,106
101280,note_off,,,,,96,0,2,,,,,1,,,65,0
101280,note_off,,,,,96,0,1,,,,,0,,,77,0
101376,note_on,,,,,96,0,1,,,,,0,,,76,106
101376,note_on,,,,,384,0,3,,,,,2,,,55,90
101376,note_on,,,,,96,0,2,,,,,1,,,67,93
101376,note_on,,,,,384,0,4,,,,,3,,,52,84
101472,note_off,,,,,96,0,1,,,,,0,,,76,0
101472,note_off,,,,,96,0,2,,,,,1,,,67,0
101568,note_on,,,,,96,0,1,,,,,0,,,74,106
101568,note_on,,,,,96,0,2,,,,,1,,,69,93
101664,note_off,,,,,96,0,1,,,,,0,,,74,0
101664,note_off,,,,,96,0,2,,,,,1,,,69,0
101760,note_on,,,,,0,0,4,,,,,3,,,52,84
101760,note_on,,,,,96,0,1,,,,,0,,,73,106
101760,note_off,,,,,384,0,3,,,,,2,,,55,0
101760,note_on,,,,,0,0,3,,,,,2,,,55,90
101760,note_off,,,,,384,0,4,,,,,3,,,52,0
101760,note_on,,,,,96,0,2,,,,,1,,,70,93
101856,note_off,,,,,96,0,2,,,,,1,,,70,0
101856,note_off,,,,,96,0,1,,,,,0,,,73,0
101952,note_on,,,,,96,0,2,,,,,1,,,69,93
101952,note_on,,,,,96,0,1,,,,,0,,,74,106
102048,note_off,,,,,96,0,2,,,,,1,,,69,0
102048,note_off,,,,,96,0,1,,,,,0,,,74,0
102144,note_off,,,,,384,0,3,,,,,2,,,55,0
102144,note_on,,,,,96,0,1,,,,,0,,,76,106
102144,note_off,,,,,384,0,4,,,,,3,,,52,0
102144,note_on,,,,,96,0,2,,,,,1,,,67,93
102240,note_off,,,,,96,0,1,,,,,0,,,76,0
102240,note_off,,,,,96,0,2,,,,,1,,,67,0
102336,note_on,,,,,96,0,1,,,,,0,,,77,106
102336,note_on,,,,,96,0,2,,,,,1,,,65,93
102432,note_off,,,,,96,0,2,,,,,1,,,65,0
102432,note_off,,,,,96,0,1,,,,,0,,,77,0
102528,note_on,,,,,384,0,4,,,,,3,,,52,84
102528,note_on,,,,,96,0,1,,,,,0,,,79,106
102528,note_on,,,,,384,0,3,,,,,2,,,55,90
102528,note_on,,,,,96,0,2,,,,,1,,,64,93
102624,note_off,,,,,96,0,1,,,,,0,,,79,0
102624,note_off,,,,,96,0,2,,,,,1,,,64,0
102720,note_on,,,,,96,0,2,,,,,1,,,62,93
102720,note_on,,,,,96,0,1,,,,,0,,,81,106
102816,note_off,,,,,96,0,2,,,,,1,,,62,0
102816,note_off,,,,,96,0,1,,,,,0,,,81,0
102912,note_on,,,,,96,0,1,,,,,0,,,82,106
102912,note_on,,,,,0,0,4,,,,,3,,,52,84
102912,note_on,,,,,0,0,3,,,,,2,,,55,90
102912,note_off,,,,,384,0,3,,,,,2,,,55,0
102912,note_on,,,,,96,0,2,,,,,1,,,61,93
102912,note_off,,,,,384,0,4,,,,,3,,,52,0
103008,note_off,,,,,96,0,1,,,,,0,,,82,0
103008,note_off,,,,,96,0,2,,,,,1,,,61,0
103104,note_on,,,,,96,0,2,,,,,1,,,62,93
103104,note_on,,,,,96,0,1,,,,,0,,,81,106
103200,note_off,,,,,96,0,2,,,,,1,,,62,0
103200,note_off,,,,,96,0,1,,,,,0,,,81,0
103296,note_off,,,,,384,0,3,,,,,2,,,55,0
103296,note_on,,,,,96,0,2,,,,,1,,,64,93
103296,note_on,,,,,96,0,1,,,,,0,,,79,106
103296,note_off,,,,,384,0,4,,,,,3,,,52,0
103392,note_off,,,,,96,0,2,,,,,1,,,64,0
103392,note_off,,,,,96,0,1,,,,,0,,,79,0
103488,note_on,,,,,96,0,1,,,,,0,,,77,106
103488,note_on,,,,,96,0,2,,,,,1,,,65,93
103584,note_off,,,,,96,0,1,,,,,0,,,77,0
103584,note_off,,,,,96,0,2,,,,,1,,,65,0
103680,note_on,,,,,384,0,4,,,,,3,,,52,84
103680,note_on,,,,,384,0,3,,,,,2,,,55,90
103680,note_on,,,,,96,0,1,,,,,0,,,76,106
103680,note_on,,,,,96,0,2,,,,,1,,,67,93
103776,note_off,,,,,96,0,1,,,,,0,,,76,0
103776,note_off,,,,,96,0,2,,,,,1,,,67,0
103872,note_on,,,,,96,0,1,,,,,0,,,74,106
103872,note_on,,,,,96,0,2,,,,,1,,,69,93
103968,note_off,,,,,96,0,2,,,,,1,,,69,0
103968,note_off,,,,,96,0,1,,,,,0,,,74,0
104064,note_on,,,,,96,0,1,,,,,0,,,73,106
104064,note_on,,,,,96,0,2,,,,,1,,,70,93
104064,note_on,,,,,0,0,3,,,,,2,,,55,90
104064,note_off,,,,,384,0,3,,,,,2,,,55,0
104064,note_on,,,,,0,0,4,,,,,3,,,52,84
104064,note_off,,,,,384,0,4,,,,,3,,,52,0
104160,note_off,,,,,96,0,1,,,,,0,,,73,0
104160,note_off,,,,,96,0,2,,,,,1,,,70,0
104256,note_on,,,,,96,0,1,,,,,0,,,74,106
104256,note_on,,,,,96,0,2,,,,,1,,,74,93
104352,note_off,,,,,96,0,2,,,,,1,,,74,0
104352,note_off,,,,,96,0,1,,,,,0,,,74,0
104448,note_off,,,,,384,0,3,,,,,2,,,55,0
104448,note_on,,,,,96,0,1,,,,,0,,,76,106
104448,note_on,,,,,96,0,2,,,,,1,,,73,93
104448,note_off,,,,,384,0,4,,,,,3,,,52,0
104544,note_off,,,,,96,0,1,,,,,0,,,76,0
104544,note_off,,,,,96,0,2,,,,,1,,,73,0
104640,note_on,,,,,96,0,2,,,,,1,,,74,93
104640,note_on,,,,,96,0,1,,,,,0,,,74,106
104736,note_off,,,,,96,0,2,,,,,1,,,74,0
104736,note_off,,,,,96,0,1,,,,,0,,,74,0
104832,note_on,,,,,96,0,1,,,,,0,,,73,106
104832,note_on,,,,,96,0,2,,,,,1,,,76,93
104928,note_off,,,,,96,0,1,,,,,0,,,73,0
104928,note_off,,,,,96,0,2,,,,,1,,,76,0
105024,note_on,,,,,96,0,1,,,,,0,,,74,106
105024,note_on,,,,,96,0,2,,,,,1,,,74,93
105120,note_off,,,,,96,0,1,,,,,0,,,74,0
105120,note_off,,,,,96,0,2,,,,,1,,,74,0
105216,note_on,,,,,96,0,1,,,,,0,,,76,106
105216,note_on,,,,,96,0,2,,,,,1,,,73,93
105312,note_off,,,,,96,0,1,,,,,0,,,76,0
105312,note_off,,,,,96,0,2,,,,,1,,,73,0
105408,note_on,,,,,96,0,2,,,,,1,,,74,93
105408,note_on,,,,,96,0,1,,,,,0,,,74,106
105504,note_off,,,,,96,0,1,,,,,0,,,74,0
105504,note_off,,,,,96,0,2,,,,,1,,,74,0
105600,note_on,,,,,96,0,1,,,,,0,,,73,106
105600,note_on,,,,,96,0,2,,,,,1,,,76,93
105696,note_off,,,,,96,0,1,,,,,0,,,73,0
105696,note_off,,,,,96,0,2,,,,,1,,,76,0
105792,note_on,,,,,96,0,2,,,,,1,,,74,93
105792,note_on,,,,,96,0,1,,,,,0,,,74,106
105888,note_off,,,,,96,0,2,,,,,1,,,74,0
105888,note_off,,,,,96,0,1,,,,,0,,,74,0
105984,note_on,,,,,96,0,2,,,,,1,,,73,93
105984,note_on,,,,,96,0,1,,,,,0,,,76,106
106080,note_off,,,,,96,0,2,,,,,1,,,73,0
106080,note_off,,,,,96,0,1,,,,,0,,,76,0
106176,note_on,,,,,96,0,2,,,,,1,,,74,93
106176,note_on,,,,,96,0,1,,,,,0,,,74,106
106272,note_off,,,,,96,0,2,,,,,1,,,74,0
106272,note_off,,,,,96,0,1,,,,,0,,,74,0
106368,note_on,,,,,96,0,1,,,,,0,,,73,106
106368,note_on,,,,,96,0,2,,,,,1,,,76,93
106464,note_off,,,,,96,0,1,,,,,0,,,73,0
106464,note_off,,,,,96,0,2,,,,,1,,,76,0
106560,note_on,,,,,96,0,2,,,,,1,,,74,93
106560,note_on,,,,,96,0,1,,,,,0,,,74,106
106656,note_off,,,,,96,0,2,,,,,1,,,74,0
106656,note_off,,,,,96,0,1,,,,,0,,,74,0
106752,note_on,,,,,96,0,1,,,,,0,,,76,106
106752,note_on,,,,,96,0,2,,,,,1,,,72,93
106848,note_off,,,,,96,0,2,,,,,1,,,72,0
106944,note_off,,,,,192,0,1,,,,,0,,,76,0
106944,note_on,,,,,0,0,1,,,,,0,,,77,106
106944,note_on,,,,,96,0,2,,,,,1,,,74,93
107040,note_off,,,,,96,0,2,,,,,1,,,74,0
107136,note_on,,,,,96,0,2,,,,,1,,,76,93
107136,note_on,,,,,0,0,1,,,,,0,,,79,106
107136,note_off,,,,,192,0,1,,,,,0,,,77,0
107232,note_off,,,,,96,0,2,,,,,1,,,76,0
107328,note_on,,,,,96,0,2,,,,,1,,,74,93
107424,note_off,,,,,96,0,2,,,,,1,,,74,0
107520,note_on,,,,,96,0,2,,,,,1,,,72,93
107616,note_off,,,,,96,0,2,,,,,1,,,72,0
107712,note_on,,,,,96,0,2,,,,,1,,,71,93
107808,note_off,,,,,96,0,2,,,,,1,,,71,0
107904,note_off,,,,,768,0,1,,,,,0,,,79,0
107904,note_on,,,,,0,0,1,,,,,0,,,81,106
107904,note_on,,,,,96,0,2,,,,,1,,,72,93
108000,note_off,,,,,96,0,2,,,,,1,,,72,0
108096,note_on,,,,,96,0,2,,,,,1,,,69,93
108192,note_off,,,,,96,0,2,,,,,1,,,69,0
108288,note_on,,,,,96,0,2,,,,,1,,,71,93
108288,note_off,,,,,384,0,1,,,,,0,,,81,0
108288,note_on,,,,,0,0,1,,,,,0,,,74,106
108384,note_off,,,,,96,0,2,,,,,1,,,71,0
108480,note_on,,,,,96,0,2,,,,,1,,,72,93
108576,note_on,,,,,0,0,1,,,,,0,,,76,106
108576,note_off,,,,,288,0,1,,,,,0,,,74,0
108576,note_off,,,,,96,0,2,,,,,1,,,72,0
108672,note_on,,,,,96,0,2,,,,,1,,,74,93
108672,note_on,,,,,0,0,1,,,,,0,,,77,106
108672,note_off,,,,,96,0,1,,,,,0,,,76,0
108768,note_off,,,,,96,0,2,,,,,1,,,74,0
108864,note_on,,,,,96,0,2,,,,,1,,,71,93
108960,note_off,,,,,96,0,2,,,,,1,,,71,0
109056,note_on,,,,,96,0,2,,,,,1,,,67,93
109152,note_off,,,,,96,0,2,,,,,1,,,67,0
109248,note_on,,,,,96,0,2,,,,,1,,,71,93
109344,note_off,,,,,96,0,2,,,,,1,,,71,0
109440,note_on,,,,,96,0,2,,,,,1,,,72,93
109440,note_off,,,,,768,0,1,,,,,0,,,77,0
109440,note_on,,,,,0,0,1,,,,,0,,,76,106
109536,note_off,,,,,96,0,2,,,,,1,,,72,0
109632,note_on,,,,,96,0,2,,,,,1,,,71,93
109728,note_off,,,,,96,0,2,,,,,1,,,71,0
109824,note_on,,,,,96,0,2,,,,,1,,,69,93
109824,note_off,,,,,384,0,1,,,,,0,,,76,0
109824,note_on,,,,,0,0,1,,,,,0,,,72,106
109920,note_off,,,,,96,0,2,,,,,1,,,69,0
110016,note_on,,,,,96,0,2,,,,,1,,,70,93
110112,note_off,,,,,96,0,2,,,,,1,,,70,0
110208,note_on,,,,,96,0,2,,,,,1,,,69,93
110208,note_off,,,,,384,0,1,,,,,0,,,72,0
110208,note_on,,,,,0,0,1,,,,,0,,,77,106
110304,note_off,,,,,96,0,2,,,,,1,,,69,0
110400,note_on,,,,,96,0,2,,,,,1,,,65,93
110496,note_off,,,,,96,0,2,,,,,1,,,65,0
110592,note_off,,,,,384,0,1,,,,,0,,,77,0
110592,note_on,,,,,0,0,1,,,,,0,,,74,106
110592,note_on,,,,,96,0,2,,,,,1,,,66,93
110688,note_off,,,,,96,0,2,,,,,1,,,66,0
110784,note_on,,,,,96,0,2,,,,,1,,,67,93
110880,note_off,,,,,288,0,1,,,,,0,,,74,0
110880,note_on,,,,,0,0,1,,,,,0,,,71,106
110880,note_off,,,,,96,0,2,,,,,1,,,67,0
110976,note_off,,,,,96,0,1,,,,,0,,,71,0
110976,note_on,,,,,96,0,2,,,,,1,,,70,93
110976,note_on,,,,,0,0,1,,,,,0,,,67,106
111072,note_off,,,,,96,0,2,,,,,1,,,70,0
111168,note_on,,,,,96,0,2,,,,,1,,,67,93
111264,note_off,,,,,96,0,2,,,,,1,,,67,0
111360,note_on,,,,,96,0,2,,,,,1,,,64,93
111360,note_on,,,,,0,0,1,,,,,0,,,76,106
111360,note_off,,,,,384,0,1,,,,,0,,,67,0
111360,note_on,,,,,6912,0,3,,,,,2,,,60,90
111360,note_on,,,,,6912,0,4,,,,,3,,,48,84
111456,note_off,,,,,96,0,4,,,,,3,,,48,0
111456,note_off,,,,,96,0,3,,,,,2,,,60,0
111552,note_on,,,,,96,0,3,,,,,2,,,62,90
111552,note_on,,,,,96,0,4,,,,,3,,,50,84
111648,note_off,,,,,288,0,2,,,,,1,,,64,0
111648,note_off,,,,,96,0,3,,,,,2,,,62,0
111648,note_off,,,,,288,0,1,,,,,0,,,76,0
111648,note_on,,,,,0,0,1,,,,,0,,,77,106
111648,note_on,,,,,0,0,2,,,,,1,,,65,93
111648,note_off,,,,,96,0,4,,,,,3,,,50,0
111744,note_on,,,,,96,0,4,,,,,3,,,52,84
111744,note_on,,,,,0,0,2,,,,,1,,,67,93
111744,note_on,,,,,0,0,1,,,,,0,,,79,106
111744,note_off,,,,,96,0,2,,,,,1,,,65,0
111744,note_on,,,,,96,0,3,,,,,2,,,64,90
111744,note_off,,,,,96,0,1,,,,,0,,,77,0
111840,note_off,,,,,96,0,4,,,,,3,,,52,0
111840,note_off,,,,,96,0,3,,,,,2,,,64,0
111936,note_on,,,,,96,0,4,,,,,3,,,50,84
111936,note_on,,,,,96,0,3,,,,,2,,,62,90
112032,note_off,,,,,96,0,4,,,,,3,,,50,0
112032,note_off,,,,,96,0,3,,,,,2,,,62,0
112128,note_on,,,,,0,0,2,,,,,1,,,64,93
112128,note_off,,,,,384,0,2,,,,,1,,,67,0
112128,note_off,,,,,384,0,1,,,,,0,,,79,0
112128,note_on,,,,,0,0,1,,,,,0,,,76,106
112128,note_on,,,,,96,0,3,,,,,2,,,60,90
112128,note_on,,,,,96,0,4,,,,,3,,,48,84
112224,note_off,,,,,96,0,3,,,,,2,,,60,0
112224,note_off,,,,,96,0,4,,,,,3,,,48,0
112320,note_on,,,,,96,0,4,,,,,3,,,47,84
112320,note_on,,,,,96,0,3,,,,,2,,,59,90
112416,note_off,,,,,96,0,4,,,,,3,,,47,0
112416,note_off,,,,,96,0,3,,,,,2,,,59,0
112512,note_on,,,,,96,0,4,,,,,3,,,48,84
112512,note_on,,,,,0,0,2,,,,,1,,,69,93
112512,note_off,,,,,384,0,2,,,,,1,,,64,0
112512,note_on,,,,,0,0,1,,,,,0,,,81,106
112512,note_off,,,,,384,0,1,,,,,0,,,76,0
112512,note_on,,,,,96,0,3,,,,,2,,,60,90
112608,note_off,,,,,96,0,3,,,,,2,,,60,0
112608,note_off,,,,,96,0,4,,,,,3,,,48,0
112704,note_on,,,,,96,0,3,,,,,2,,,57,90
112704,note_on,,,,,96,0,4,,,,,3,,,45,84
112800,note_off,,,,,96,0,3,,,,,2,,,57,0
112800,note_off,,,,,96,0,4,,,,,3,,,45,0
112896,note_off,,,,,384,0,2,,,,,1,,,69,0
112896,note_on,,,,,96,0,3,,,,,2,,,59,90
112896,note_on,,,,,96,0,4,,,,,3,,,47,84
112896,note_on,,,,,0,0,1,,,,,0,,,74,106
112896,note_off,,,,,384,0,1,,,,,0,,,81,0
112896,note_on,,,,,0,0,2,,,,,1,,,62,93
112992,note_off,,,,,96,0,4,,,,,3,,,47,0
112992,note_off,,,,,96,0,3,,,,,2,,,59,0
113088,note_on,,,,,96,0,3,,,,,2,,,60,90
113088,note_on,,,,,96,0,4,,,,,3,,,48,84
113184,note_on,,,,,0,0,1,,,,,0,,,76,106
113184,note_on,,,,,0,0,2,,,,,1,,,64,93
113184,note_off,,,,,288,0,1,,,,,0,,,74,0
113184,note_off,,,,,288,0,2,,,,,1,,,62,0
113184,note_off,,,,,96,0,3,,,,,2,,,60,0
113184,note_off,,,,,96,0,4,,,,,3,,,48,0
113280,note_off,,,,,96,0,2,,,,,1,,,64,0
113280,note_on,,,,,96,0,3,,,,,2,,,62,90
113280,note_on,,,,,96,0,4,,,,,3,,,50,84
113280,note_on,,,,,0,0,1,,,,,0,,,77,106
113280,note_off,,,,,96,0,1,,,,,0,,,76,0
113280,note_on,,,,,0,0,2,,,,,1,,,65,93
113376,note_off,,,,,96,0,4,,,,,3,,,50,0
113376,note_off,,,,,96,0,3,,,,,2,,,62,0
113472,note_on,,,,,96,0,4,,,,,3,,,47,84
113472,note_on,,,,,96,0,3,,,,,2,,,59,90
113568,note_off,,,,,96,0,3,,,,,2,,,59,0
113568,note_off,,,,,96,0,4,,,,,3,,,47,0
113664,note_on,,,,,96,0,3,,,,,2,,,55,90
113664,note_on,,,,,96,0,4,,,,,3,,,43,84
113760,note_off,,,,,96,0,4,,,,,3,,,43,0
113760,note_off,,,,,96,0,3,,,,,2,,,55,0
113856,note_on,,,,,96,0,3,,,,,2,,,59,90
113856,note_on,,,,,96,0,4,,,,,3,,,47,84
113952,note_off,,,,,96,0,3,,,,,2,,,59,0
113952,note_off,,,,,96,0,4,,,,,3,,,47,0
114048,note_off,,,,,768,0,1,,,,,0,,,77,0
114048,note_on,,,,,0,0,1,,,,,0,,,76,106
114048,note_on,,,,,96,0,4,,,,,3,,,48,84
114048,note_off,,,,,768,0,2,,,,,1,,,65,0
114048,note_on,,,,,96,0,3,,,,,2,,,60,90
114048,note_on,,,,,0,0,2,,,,,1,,,64,93
114144,note_off,,,,,96,0,3,,,,,2,,,60,0
114144,note_off,,,,,96,0,4,,,,,3,,,48,0
114240,note_on,,,,,96,0,4,,,,,3,,,45,84
114240,note_on,,,,,96,0,3,,,,,2,,,57,90
114336,note_off,,,,,96,0,3,,,,,2,,,57,0
114336,note_off,,,,,96,0,4,,,,,3,,,45,0
114432,note_on,,,,,0,0,2,,,,,1,,,67,93
114432,note_on,,,,,96,0,3,,,,,2,,,59,90
114432,note_off,,,,,384,0,1,,,,,0,,,76,0
114432,note_on,,,,,0,0,1,,,,,0,,,79,106
114432,note_off,,,,,384,0,2,,,,,1,,,64,0
114432,note_on,,,,,96,0,4,,,,,3,,,47,84
114528,note_off,,,,,96,0,4,,,,,3,,,47,0
114528,note_off,,,,,96,0,3,,,,,2,,,59,0
114624,note_on,,,,,96,0,4,,,,,3,,,48,84
114624,note_on,,,,,96,0,3,,,,,2,,,60,90
114720,note_off,,,,,96,0,4,,,,,3,,,48,0
114720,note_off,,,,,96,0,3,,,,,2,,,60,0
114816,note_on,,,,,0,0,1,,,,,0,,,78,106
114816,note_on,,,,,96,0,4,,,,,3,,,47,84
114816,note_off,,,,,384,0,1,,,,,0,,,79,0
114816,note_on,,,,,0,0,2,,,,,1,,,63,93
114816,note_off,,,,,384,0,2,,,,,1,,,67,0
114816,note_on,,,,,96,0,3,,,,,2,,,59,90
114864,note_off,,,,,48,0,1,,,,,0,,,78,0
114864,note_on,,,,,0,0,1,,,,,0,,,79,106
114912,note_off,,,,,96,0,3,,,,,2,,,59,0
114912,note_off,,,,,96,0,4,,,,,3,,,47,0
114912,note_on,,,,,0,0,1,,,,,0,,,78,106
114912,note_off,,,,,48,0,1,,,,,0,,,79,0
114960,note_on,,,,,0,0,1,,,,,0,,,79,106
114960,note_off,,,,,48,0,1,,,,,0,,,78,0
115008,note_on,,,,,96,0,4,,,,,3,,,45,84
115008,note_on,,,,,96,0,3,,,,,2,,,57,90
115008,note_on,,,,,0,0,1,,,,,0,,,78,106
115008,note_off,,,,,48,0,1,,,,,0,,,79,0
115056,note_on,,,,,0,0,1,,,,,0,,,79,106
115056,note_off,,,,,48,0,1,,,,,0,,,78,0
115104,note_on,,,,,0,0,1,,,,,0,,,76,106
115104,note_off,,,,,96,0,3,,,,,2,,,57,0
115104,note_off,,,,,48,0,1,,,,,0,,,79,0
115104,note_off,,,,,96,0,4,,,,,3,,,45,0
115152,note_on,,,,,0,0,1,,,,,0,,,78,106
115152,note_off,,,,,48,0,1,,,,,0,,,76,0
115200,note_on,,,,,0,0,2,,,,,1,,,64,93
115200,note_off,,,,,384,0,2,,,,,1,,,63,0
115200,note_on,,,,,96,0,4,,,,,3,,,43,84
115200,note_on,,,,,96,0,3,,,,,2,,,55,90
115200,note_on,,,,,0,0,1,,,,,0,,,76,106
115200,note_off,,,,,48,0,1,,,,,0,,,78,0
115296,note_off,,,,,96,0,3,,,,,2,,,55,0
115296,note_off,,,,,96,0,4,,,,,3,,,43,0
115392,note_on,,,,,96,0,3,,,,,2,,,54,90
115392,note_on,,,,,96,0,4,,,,,3,,,42,84
115488,note_off,,,,,96,0,4,,,,,3,,,42,0
115488,note_off,,,,,96,0,3,,,,,2,,,54,0
115584,note_on,,,,,96,0,4,,,,,3,,,40,84
115584,note_off,,,,,384,0,2,,,,,1,,,64,0
115584,note_off,,,,,384,0,1,,,,,0,,,76,0
115584,note_on,,,,,96,0,3,,,,,2,,,52,90
115680,note_off,,,,,96,0,3,,,,,2,,,52,0
115680,note_off,,,,,96,0,4,,,,,3,,,40,0
115776,note_on,,,,,96,0,3,,,,,2,,,50,90
115776,note_on,,,,,96,0,4,,,,,3,,,38,84
115872,note_off,,,,,96,0,3,,,,,2,,,50,0
115872,note_off,,,,,96,0,4,,,,,3,,,38,0
115968,note_on,,,,,96,0,3,,,,,2,,,48,90
115968,note_on,,,,,96,0,4,,,,,3,,,36,84
115968,note_on,,,,,384,0,1,,,,,0,,,76,106
116064,note_off,,,,,96,0,3,,,,,2,,,48,0
116064,note_off,,,,,96,0,4,,,,,3,,,36,0
116160,note_on,,,,,96,0,3,,,,,2,,,50,90
116160,note_on,,,,,96,0,4,,,,,3,,,38,84
116256,note_off,,,,,96,0,3,,,,,2,,,50,0
116256,note_off,,,,,288,0,1,,,,,0,,,76,0
116256,note_off,,,,,96,0,4,,,,,3,,,38,0
116256,note_on,,,,,0,0,1,,,,,0,,,78,106
116352,note_on,,,,,96,0,3,,,,,2,,,60,90
116352,note_on,,,,,0,0,1,,,,,0,,,79,106
116352,note_on,,,,,768,0,2,,,,,1,,,64,93
116352,note_off,,,,,96,0,1,,,,,0,,,78,0
116352,note_on,,,,,96,0,4,,,,,3,,,48,84
116448,note_off,,,,,96,0,4,,,,,3,,,48,0
116448,note_off,,,,,96,0,3,,,,,2,,,60,0
116544,note_on,,,,,96,0,3,,,,,2,,,62,90
116544,note_on,,,,,96,0,4,,,,,3,,,50,84
116640,note_off,,,,,288,0,2,,,,,1,,,64,0
116640,note_off,,,,,96,0,3,,,,,2,,,62,0
116640,note_off,,,,,96,0,4,,,,,3,,,50,0
116640,note_on,,,,,0,0,2,,,,,1,,,66,93
116736,note_on,,,,,96,0,4,,,,,3,,,52,84
116736,note_off,,,,,96,0,2,,,,,1,,,66,0
116736,note_on,,,,,0,0,2,,,,,1,,,67,93
116736,note_on,,,,,96,0,3,,,,,2,,,64,90
116832,note_off,,,,,96,0,4,,,,,3,,,52,0
116832,note_off,,,,,96,0,3,,,,,2,,,64,0
116928,note_on,,,,,96,0,3,,,,,2,,,62,90
116928,note_on,,,,,96,0,4,,,,,3,,,50,84
117024,note_off,,,,,96,0,4,,,,,3,,,50,0
117024,note_off,,,,,96,0,3,,,,,2,,,62,0
117120,note_on,,,,,96,0,4,,,,,3,,,48,84
117120,note_on,,,,,0,0,1,,,,,0,,,76,106
117120,note_on,,,,,96,0,3,,,,,2,,,60,90
117120,note_off,,,,,768,0,1,,,,,0,,,79,0
117216,note_off,,,,,96,0,4,,,,,3,,,48,0
117216,note_off,,,,,96,0,3,,,,,2,,,60,0
117312,note_on,,,,,96,0,4,,,,,3,,,52,84
117312,note_on,,,,,96,0,3,,,,,2,,,64,90
117408,note_on,,,,,0,0,1,,,,,0,,,78,106
117408,note_off,,,,,288,0,1,,,,,0,,,76,0
117408,note_off,,,,,96,0,4,,,,,3,,,52,0
117408,note_off,,,,,96,0,3,,,,,2,,,64,0
117504,note_off,,,,,768,0,2,,,,,1,,,67,0
117504,note_on,,,,,0,0,2,,,,,1,,,64,93
117504,note_on,,,,,96,0,3,,,,,2,,,59,90
117504,note_on,,,,,0,0,1,,,,,0,,,79,106
117504,note_on,,,,,96,0,4,,,,,3,,,47,84
117504,note_off,,,,,96,0,1,,,,,0,,,78,0
117600,note_off,,,,,96,0,4,,,,,3,,,47,0
117600,note_off,,,,,96,0,3,,,,,2,,,59,0
117696,note_on,,,,,96,0,4,,,,,3,,,51,84
117696,note_on,,,,,96,0,3,,,,,2,,,63,90
117792,note_off,,,,,96,0,3,,,,,2,,,63,0
117792,note_on,,,,,0,0,2,,,,,1,,,66,93
117792,note_off,,,,,288,0,2,,,,,1,,,64,0
117792,note_off,,,,,96,0,4,,,,,3,,,51,0
117888,note_on,,,,,96,0,4,,,,,3,,,52,84
117888,note_on,,,,,96,0,3,,,,,2,,,64,90
117888,note_off,,,,,96,0,2,,,,,1,,,66,0
117888,note_on,,,,,0,0,2,,,,,1,,,67,93
117984,note_off,,,,,96,0,3,,,,,2,,,64,0
117984,note_off,,,,,96,0,4,,,,,3,,,52,0
118080,note_on,,,,,96,0,3,,,,,2,,,60,90
118080,note_on,,,,,96,0,4,,,,,3,,,48,84
118176,note_off,,,,,96,0,3,,,,,2,,,60,0
118176,note_off,,,,,96,0,4,,,,,3,,,48,0
118272,note_off,,,,,768,0,1,,,,,0,,,79,0
118272,note_on,,,,,0,0,1,,,,,0,,,79,106
118272,note_on,,,,,96,0,4,,,,,3,,,47,84
118272,note_on,,,,,96,0,3,,,,,2,,,59,90
118368,note_off,,,,,96,0,3,,,,,2,,,59,0
118368,note_off,,,,,96,0,4,,,,,3,,,47,0
118464,note_on,,,,,96,0,3,,,,,2,,,64,90
118464,note_on,,,,,96,0,4,,,,,3,,,52,84
118560,note_off,,,,,96,0,4,,,,,3,,,52,0
118560,note_off,,,,,288,0,1,,,,,0,,,79,0
118560,note_on,,,,,0,0,1,,,,,0,,,76,106
118560,note_off,,,,,96,0,3,,,,,2,,,64,0
118608,note_off,,,,,48,0,1,,,,,0,,,76,0
118608,note_on,,,,,0,0,1,,,,,0,,,83,106
118656,note_on,,,,,96,0,4,,,,,3,,,48,84
118656,note_on,,,,,0,0,1,,,,,0,,,82,106
118656,note_off,,,,,48,0,1,,,,,0,,,83,0
118656,note_on,,,,,0,0,2,,,,,1,,,76,93
118656,note_off,,,,,768,0,2,,,,,1,,,67,0
118656,note_on,,,,,96,0,3,,,,,2,,,60,90
118752,note_off,,,,,96,0,4,,,,,3,,,48,0
118752,note_off,,,,,96,0,3,,,,,2,,,60,0
118848,note_on,,,,,96,0,4,,,,,3,,,47,84
118848,note_off,,,,,192,0,2,,,,,1,,,76,0
118848,note_on,,,,,96,0,3,,,,,2,,,59,90
118848,note_off,,,,,192,0,1,,,,,0,,,82,0
118944,note_off,,,,,96,0,4,,,,,3,,,47,0
118944,note_off,,,,,96,0,3,,,,,2,,,59,0
119040,note_on,,,,,192,0,2,,,,,1,,,76,93
119040,note_on,,,,,192,0,1,,,,,0,,,82,106
119040,note_on,,,,,96,0,4,,,,,3,,,48,84
119040,note_on,,,,,96,0,3,,,,,2,,,60,90
119136,note_off,,,,,96,0,4,,,,,3,,,48,0
119136,note_off,,,,,96,0,3,,,,,2,,,60,0
119232,note_on,,,,,96,0,4,,,,,3,,,55,84
119232,note_on,,,,,96,0,3,,,,,2,,,67,90
119232,note_off,,,,,192,0,2,,,,,1,,,76,0
119232,note_off,,,,,192,0,1,,,,,0,,,82,0
119328,note_off,,,,,96,0,4,,,,,3,,,55,0
119328,note_off,,,,,96,0,3,,,,,2,,,67,0
119424,note_on,,,,,192,0,2,,,,,1,,,76,93
119424,note_on,,,,,192,0,1,,,,,0,,,82,106
119424,note_on,,,,,96,0,4,,,,,3,,,52,84
119424,note_on,,,,,96,0,3,,,,,2,,,64,90
119520,note_off,,,,,96,0,3,,,,,2,,,64,0
119520,note_off,,,,,96,0,4,,,,,3,,,52,0
119616,note_off,,,,,192,0,2,,,,,1,,,76,0
119616,note_off,,,,,192,0,1,,,,,0,,,82,0
119616,note_on,,,,,96,0,4,,,,,3,,,48,84
119616,note_on,,,,,96,0,3,,,,,2,,,60,90
119712,note_off,,,,,96,0,4,,,,,3,,,48,0
119712,note_off,,,,,96,0,3,,,,,2,,,60,0
119808,note_on,,,,,96,0,3,,,,,2,,,59,90
119808,note_on,,,,,96,0,4,,,,,3,,,47,84
119808,note_on,,,,,192,0,2,,,,,1,,,75,93
119808,note_on,,,,,192,0,1,,,,,0,,,83,106
119904,note_off,,,,,96,0,1,,,,,0,,,83,0
120000,note_on,,,,,96,0,1,,,,,0,,,78,106
120096,note_off,,,,,96,0,1,,,,,0,,,78,0
120192,note_off,,,,,384,0,4,,,,,3,,,47,0
120192,note_off,,,,,384,0,2,,,,,1,,,75,0
120192,note_on,,,,,96,0,1,,,,,0,,,75,106
120192,note_off,,,,,384,0,3,,,,,2,,,59,0
120288,note_off,,,,,96,0,1,,,,,0,,,75,0
120384,note_on,,,,,96,0,1,,,,,0,,,76,106
120480,note_off,,,,,96,0,1,,,,,0,,,76,0
120576,note_on,,,,,96,0,1,,,,,0,,,78,106
120672,note_off,,,,,96,0,1,,,,,0,,,78,0
120768,note_on,,,,,96,0,1,,,,,0,,,79,106
120864,note_off,,,,,96,0,1,,,,,0,,,79,0
120960,note_on,,,,,96,0,1,,,,,0,,,81,106
120960,note_on,,,,,768,0,3,,,,,2,,,57,90
120960,note_on,,,,,768,0,4,,,,,3,,,54,84
120960,note_on,,,,,768,0,2,,,,,1,,,66,93
121056,note_off,,,,,96,0,1,,,,,0,,,81,0
121056,note_off,,,,,96,0,2,,,,,1,,,66,0
121152,note_on,,,,,96,0,1,,,,,0,,,83,106
121152,note_on,,,,,96,0,2,,,,,1,,,64,93
121248,note_off,,,,,96,0,2,,,,,1,,,64,0
121248,note_off,,,,,96,0,1,,,,,0,,,83,0
121344,note_on,,,,,96,0,2,,,,,1,,,63,93
121344,note_on,,,,,96,0,1,,,,,0,,,84,106
121344,note_off,,,,,384,0,3,,,,,2,,,57,0
121344,note_off,,,,,384,0,4,,,,,3,,,54,0
121344,note_on,,,,,0,0,4,,,,,3,,,54,84
121344,note_on,,,,,0,0,3,,,,,2,,,57,90
121440,note_off,,,,,96,0,2,,,,,1,,,63,0
121440,note_off,,,,,96,0,1,,,,,0,,,84,0
121536,note_on,,,,,96,0,2,,,,,1,,,64,93
121536,note_on,,,,,96,0,1,,,,,0,,,83,106
121632,note_off,,,,,96,0,2,,,,,1,,,64,0
121632,note_off,,,,,96,0,1,,,,,0,,,83,0
121728,note_on,,,,,96,0,2,,,,,1,,,66,93
121728,note_on,,,,,96,0,1,,,,,0,,,81,106
121728,note_off,,,,,384,0,4,,,,,3,,,54,0
121728,note_off,,,,,384,0,3,,,,,2,,,57,0
121824,note_off,,,,,96,0,2,,,,,1,,,66,0
121824,note_off,,,,,96,0,1,,,,,0,,,81,0
121920,note_on,,,,,96,0,2,,,,,1,,,68,93
121920,note_on,,,,,96,0,1,,,,,0,,,79,106
122016,note_off,,,,,96,0,2,,,,,1,,,68,0
122016,note_off,,,,,96,0,1,,,,,0,,,79,0
122112,note_on,,,,,384,0,4,,,,,3,,,54,84
122112,note_on,,,,,96,0,2,,,,,1,,,69,93
122112,note_on,,,,,384,0,3,,,,,2,,,57,90
122112,note_on,,,,,96,0,1,,,,,0,,,78,106
122208,note_off,,,,,96,0,2,,,,,1,,,69,0
122208,note_off,,,,,96,0,1,,,,,0,,,78,0
122304,note_on,,,,,96,0,1,,,,,0,,,76,106
122304,note_on,,,,,96,0,2,,,,,1,,,71,93
122400,note_off,,,,,96,0,1,,,,,0,,,76,0
122400,note_off,,,,,96,0,2,,,,,1,,,71,0
122496,note_off,,,,,384,0,4,,,,,3,,,54,0
122496,note_on,,,,,0,0,3,,,,,2,,,57,90
122496,note_off,,,,,384,0,3,,,,,2,,,57,0
122496,note_on,,,,,96,0,1,,,,,0,,,75,106
122496,note_on,,,,,96,0,2,,,,,1,,,72,93
122496,note_on,,,,,0,0,4,,,,,3,,,54,84
122592,note_off,,,,,96,0,1,,,,,0,,,75,0
122592,note_off,,,,,96,0,2,,,,,1,,,72,0
122688,note_on,,,,,96,0,1,,,,,0,,,76,106
122688,note_on,,,,,96,0,2,,,,,1,,,71,93
122784,note_off,,,,,96,0,1,,,,,0,,,76,0
122784,note_off,,,,,96,0,2,,,,,1,,,71,0
122880,note_off,,,,,384,0,4,,,,,3,,,54,0
122880,note_on,,,,,96,0,1,,,,,0,,,78,106
122880,note_off,,,,,384,0,3,,,,,2,,,57,0
122880,note_on,,,,,96,0,2,,,,,1,,,69,93
122976,note_off,,,,,96,0,1,,,,,0,,,78,0
122976,note_off,,,,,96,0,2,,,,,1,,,69,0
123072,note_on,,,,,96,0,1,,,,,0,,,79,106
123072,note_on,,,,,96,0,2,,,,,1,,,67,93
123168,note_off,,,,,96,0,2,,,,,1,,,67,0
123168,note_off,,,,,96,0,1,,,,,0,,,79,0
123264,note_on,,,,,96,0,2,,,,,1,,,66,93
123264,note_on,,,,,384,0,4,,,,,3,,,54,84
123264,note_on,,,,,384,0,3,,,,,2,,,57,90
123264,note_on,,,,,96,0,1,,,,,0,,,81,106
123360,note_off,,,,,96,0,1,,,,,0,,,81,0
123360,note_off,,,,,96,0,2,,,,,1,,,66,0
123456,note_on,,,,,96,0,2,,,,,1,,,64,93
123456,note_on,,,,,96,0,1,,,,,0,,,83,106
123552,note_off,,,,,96,0,2,,,,,1,,,64,0
123552,note_off,,,,,96,0,1,,,,,0,,,83,0
123648,note_on,,,,,96,0,2,,,,,1,,,63,93
123648,note_off,,,,,384,0,3,,,,,2,,,57,0
123648,note_on,,,,,0,0,3,,,,,2,,,57,90
123648,note_on,,,,,96,0,1,,,,,0,,,84,106
123648,note_off,,,,,384,0,4,,,,,3,,,54,0
123648,note_on,,,,,0,0,4,,,,,3,,,54,84
123744,note_off,,,,,96,0,1,,,,,0,,,84,0
123744,note_off,,,,,96,0,2,,,,,1,,,63,0
123840,note_on,,,,,96,0,2,,,,,1,,,64,93
123840,note_on,,,,,96,0,1,,,,,0,,,83,106
123936,note_off,,,,,96,0,1,,,,,0,,,83,0
123936,note_off,,,,,96,0,2,,,,,1,,,64,0
124032,note_off,,,,,384,0,4,,,,,3,,,54,0
124032,note_on,,,,,96,0,2,,,,,1,,,66,93
124032,note_off,,,,,384,0,3,,,,,2,,,57,0
124032,note_on,,,,,96,0,1,,,,,0,,,81,106
124128,note_off,,,,,96,0,2,,,,,1,,,66,0
124128,note_off,,,,,96,0,1,,,,,0,,,81,0
124224,note_on,,,,,96,0,1,,,,,0,,,79,106
124224,note_on,,,,,96,0,2,,,,,1,,,67,93
124320,note_off,,,,,96,0,2,,,,,1,,,67,0
124320,note_off,,,,,96,0,1,,,,,0,,,79,0
124416,note_on,,,,,96,0,2,,,,,1,,,69,93
124416,note_on,,,,,384,0,4,,,,,3,,,54,84
124416,note_on,,,,,384,0,3,,,,,2,,,57,90
124416,note_on,,,,,96,0,1,,,,,0,,,78,106
124512,note_off,,,,,96,0,1,,,,,0,,,78,0
124512,note_off,,,,,96,0,2,,,,,1,,,69,0
124608,note_on,,,,,96,0,1,,,,,0,,,76,106
124608,note_on,,,,,96,0,2,,,,,1,,,71,93
124704,note_off,,,,,96,0,2,,,,,1,,,71,0
124704,note_off,,,,,96,0,1,,,,,0,,,76,0
124800,note_on,,,,,0,0,4,,,,,3,,,54,84
124800,note_off,,,,,384,0,4,,,,,3,,,54,0
124800,note_on,,,,,96,0,2,,,,,1,,,72,93
124800,note_on,,,,,0,0,3,,,,,2,,,57,90
124800,note_off,,,,,384,0,3,,,,,2,,,57,0
124800,note_on,,,,,96,0,1,,,,,0,,,75,106
124896,note_off,,,,,96,0,2,,,,,1,,,72,0
124896,note_off,,,,,96,0,1,,,,,0,,,75,0
124992,note_on,,,,,96,0,2,,,,,1,,,76,93
124992,note_on,,,,,96,0,1,,,,,0,,,76,106
125088,note_off,,,,,96,0,1,,,,,0,,,76,0
125088,note_off,,,,,96,0,2,,,,,1,,,76,0
125184,note_on,,,,,96,0,2,,,,,1,,,75,93
125184,note_off,,,,,384,0,3,,,,,2,,,57,0
125184,note_on,,,,,96,0,1,,,,,0,,,78,106
125184,note_off,,,,,384,0,4,,,,,3,,,54,0
125280,note_off,,,,,96,0,1,,,,,0,,,78,0
125280,note_off,,,,,96,0,2,,,,,1,,,75,0
125376,note_on,,,,,96,0,1,,,,,0,,,76,106
125376,note_on,,,,,96,0,2,,,,,1,,,76,93
125472,note_off,,,,,96,0,2,,,,,1,,,76,0
125472,note_off,,,,,96,0,1,,,,,0,,,76,0
125568,note_on,,,,,96,0,1,,,,,0,,,75,106
125568,note_on,,,,,96,0,2,,,,,1,,,78,93
125664,note_off,,,,,96,0,2,,,,,1,,,78,0
125664,note_off,,,,,96,0,1,,,,,0,,,75,0
125760,note_on,,,,,96,0,2,,,,,1,,,76,93
125760,note_on,,,,,96,0,1,,,,,0,,,76,106
125856,note_off,,,,,96,0,2,,,,,1,,,76,0
125856,note_off,,,,,96,0,1,,,,,0,,,76,0
125952,note_on,,,,,96,0,2,,,,,1,,,75,93
125952,note_on,,,,,96,0,1,,,,,0,,,78,106
126048,note_off,,,,,96,0,2,,,,,1,,,75,0
126048,note_off,,,,,96,0,1,,,,,0,,,78,0
126144,note_on,,,,,96,0,2,,,,,1,,,76,93
126144,note_on,,,,,96,0,1,,,,,0,,,76,106
126240,note_off,,,,,96,0,2,,,,,1,,,76,0
126240,note_off,,,,,96,0,1,,,,,0,,,76,0
126336,note_on,,,,,96,0,1,,,,,0,,,75,106
126336,note_on,,,,,96,0,2,,,,,1,,,78,93
126432,note_off,,,,,96,0,2,,,,,1,,,78,0
126432,note_off,,,,,96,0,1,,,,,0,,,75,0
126528,note_on,,,,,96,0,2,,,,,1,,,76,93
126528,note_on,,,,,96,0,1,,,,,0,,,76,106
126624,note_off,,,,,96,0,2,,,,,1,,,76,0
126624,note_off,,,,,96,0,1,,,,,0,,,76,0
126720,note_on,,,,,96,0,2,,,,,1,,,75,93
126720,note_on,,,,,96,0,1,,,,,0,,,78,106
126816,note_off,,,,,96,0,2,,,,,1,,,75,0
126816,note_off,,,,,96,0,1,,,,,0,,,78,0
126912,note_on,,,,,96,0,2,,,,,1,,,76,93
126912,note_on,,,,,96,0,1,,,,,0,,,76,106
127008,note_off,,,,,96,0,1,,,,,0,,,76,0
127008,note_off,,,,,96,0,2,,,,,1,,,76,0
127104,note_on,,,,,96,0,2,,,,,1,,,78,93
127104,note_on,,,,,96,0,1,,,,,0,,,75,106
127200,note_off,,,,,96,0,1,,,,,0,,,75,0
127200,note_off,,,,,96,0,2,,,,,1,,,78,0
127296,note_on,,,,,96,0,1,,,,,0,,,76,106
127296,note_on,,,,,96,0,2,,,,,1,,,76,93
127392,note_off,,,,,96,0,2,,,,,1,,,76,0
127392,note_off,,,,,96,0,1,,,,,0,,,76,0
127488,note_on,,,,,96,0,2,,,,,1,,,72,93
127488,note_on,,,,,96,0,1,,,,,0,,,76,106
127776,note_off,,,,,288,0,2,,,,,1,,,72,0
127776,note_on,,,,,0,0,2,,,,,1,,,74,93
127776,note_off,,,,,288,0,1,,,,,0,,,76,0
127776,note_on,,,,,0,0,1,,,,,0,,,77,106
127872,note_off,,,,,96,0,1,,,,,0,,,77,0
127872,note_off,,,,,96,0,2,,,,,1,,,74,0
127872,note_on,,,,,0,0,2,,,,,1,,,76,93
127872,note_on,,,,,0,0,1,,,,,0,,,79,106
127968,note_off,,,,,96,0,2,,,,,1,,,76,0
128064,note_on,,,,,96,0,2,,,,,1,,,74,93
128160,note_off,,,,,96,0,2,,,,,1,,,74,0
128256,note_on,,,,,96,0,2,,,,,1,,,72,93
128352,note_off,,,,,96,0,2,,,,,1,,,72,0
128448,note_on,,,,,96,0,2,,,,,1,,,71,93
128544,note_off,,,,,96,0,2,,,,,1,,,71,0
128640,note_off,,,,,768,0,1,,,,,0,,,79,0
128640,note_on,,,,,96,0,2,,,,,1,,,72,93
128640,note_on,,,,,0,0,1,,,,,0,,,81,106
128736,note_off,,,,,96,0,2,,,,,1,,,72,0
128832,note_on,,,,,96,0,2,,,,,1,,,69,93
128928,note_off,,,,,96,0,2,,,,,1,,,69,0
129024,note_on,,,,,96,0,2,,,,,1,,,71,93
129024,note_on,,,,,0,0,1,,,,,0,,,74,106
129024,note_off,,,,,384,0,1,,,,,0,,,81,0
129120,note_off,,,,,96,0,2,,,,,1,,,71,0
129216,note_on,,,,,96,0,2,,,,,1,,,72,93
129312,note_off,,,,,96,0,2,,,,,1,,,72,0
129312,note_on,,,,,0,0,1,,,,,0,,,76,106
129312,note_off,,,,,288,0,1,,,,,0,,,74,0
129408,note_off,,,,,96,0,1,,,,,0,,,76,0
129408,note_on,,,,,0,0,1,,,,,0,,,77,106
129408,note_on,,,,,96,0,2,,,,,1,,,74,93
129504,note_off,,,,,96,0,2,,,,,1,,,74,0
129600,note_on,,,,,96,0,2,,,,,1,,,71,93
129696,note_off,,,,,96,0,2,,,,,1,,,71,0
129792,note_on,,,,,96,0,2,,,,,1,,,67,93
129888,note_off,,,,,96,0,2,,,,,1,,,67,0
129984,note_on,,,,,96,0,2,,,,,1,,,71,93
130080,note_off,,,,,96,0,2,,,,,1,,,71,0
130176,note_on,,,,,0,0,1,,,,,0,,,76,106
130176,note_on,,,,,96,0,2,,,,,1,,,72,93
130176,note_off,,,,,768,0,1,,,,,0,,,77,0
130272,note_off,,,,,96,0,2,,,,,1,,,72,0
130368,note_on,,,,,96,0,2,,,,,1,,,71,93
130464,note_off,,,,,96,0,2,,,,,1,,,71,0
130560,note_on,,,,,96,0,2,,,,,1,,,69,93
130560,note_off,,,,,384,0,1,,,,,0,,,76,0
130560,note_on,,,,,0,0,1,,,,,0,,,72,106
130656,note_off,,,,,96,0,2,,,,,1,,,69,0
130752,note_on,,,,,96,0,2,,,,,1,,,70,93
130848,note_off,,,,,96,0,2,,,,,1,,,70,0
130944,note_on,,,,,96,0,2,,,,,1,,,69,93
130944,note_on,,,,,0,0,1,,,,,0,,,77,106
130944,note_off,,,,,384,0,1,,,,,0,,,72,0
131040,note_off,,,,,96,0,2,,,,,1,,,69,0
131136,note_on,,,,,96,0,2,,,,,1,,,65,93
131232,note_off,,,,,96,0,2,,,,,1,,,65,0
131328,note_off,,,,,384,0,1,,,,,0,,,77,0
131328,note_on,,,,,96,0,2,,,,,1,,,66,93
131328,note_on,,,,,0,0,1,,,,,0,,,74,106
131424,note_off,,,,,96,0,2,,,,,1,,,66,0
131520,note_on,,,,,96,0,2,,,,,1,,,67,93
131616,note_on,,,,,0,0,1,,,,,0,,,71,106
131616,note_off,,,,,288,0,1,,,,,0,,,74,0
131616,note_off,,,,,96,0,2,,,,,1,,,67,0
131712,note_on,,,,,96,0,2,,,,,1,,,71,93
131712,note_off,,,,,96,0,1,,,,,0,,,71,0
131712,note_on,,,,,0,0,1,,,,,0,,,67,106
131808,note_off,,,,,96,0,2,,,,,1,,,71,0
131904,note_on,,,,,96,0,2,,,,,1,,,67,93
132000,note_off,,,,,96,0,2,,,,,1,,,67,0
132096,note_on,,,,,6912,0,3,,,,,2,,,60,90
132096,note_on,,,,,6912,0,4,,,,,3,,,48,84
132096,note_on,,,,,96,0,2,,,,,1,,,64,93
132096,note_on,,,,,0,0,1,,,,,0,,,76,106
132096,note_off,,,,,384,0,1,,,,,0,,,67,0
132192,note_off,,,,,96,0,4,,,,,3,,,48,0
132192,note_off,,,,,96,0,3,,,,,2,,,60,0
132288,note_on,,,,,96,0,4,,,,,3,,,50,84
132288,note_on,,,,,96,0,3,,,,,2,,,62,90
132384,note_off,,,,,288,0,2,,,,,1,,,64,0
132384,note_on,,,,,0,0,2,,,,,1,,,65,93
132384,note_off,,,,,96,0,4,,,,,3,,,50,0
132384,note_off,,,,,96,0,3,,,,,2,,,62,0
132384,note_on,,,,,0,0,1,,,,,0,,,77,106
132384,note_off,,,,,288,0,1,,,,,0,,,76,0
132480,note_on,,,,,96,0,4,,,,,3,,,52,84
132480,note_on,,,,,0,0,1,,,,,0,,,79,106
132480,note_off,,,,,96,0,1,,,,,0,,,77,0
132480,note_on,,,,,96,0,3,,,,,2,,,64,90
132480,note_on,,,,,0,0,2,,,,,1,,,67,93
132480,note_off,,,,,96,0,2,,,,,1,,,65,0
132576,note_off,,,,,96,0,4,,,,,3,,,52,0
132576,note_off,,,,,96,0,3,,,,,2,,,64,0
132672,note_on,,,,,96,0,4,,,,,3,,,50,84
132672,note_on,,,,,96,0,3,,,,,2,,,62,90
132768,note_off,,,,,96,0,4,,,,,3,,,50,0
132768,note_off,,,,,96,0,3,,,,,2,,,62,0
132864,note_off,,,,,384,0,2,,,,,1,,,67,0
132864,note_on,,,,,0,0,2,,,,,1,,,64,93
132864,note_off,,,,,384,0,1,,,,,0,,,79,0
132864,note_on,,,,,0,0,1,,,,,0,,,76,106
132864,note_on,,,,,96,0,4,,,,,3,,,48,84
132864,note_on,,,,,96,0,3,,,,,2,,,60,90
132960,note_off,,,,,96,0,4,,,,,3,,,48,0
132960,note_off,,,,,96,0,3,,,,,2,,,60,0
133056,note_on,,,,,96,0,4,,,,,3,,,47,84
133056,note_on,,,,,96,0,3,,,,,2,,,59,90
133152,note_off,,,,,96,0,3,,,,,2,,,59,0
133152,note_off,,,,,96,0,4,,,,,3,,,47,0
133248,note_on,,,,,96,0,4,,,,,3,,,48,84
133248,note_off,,,,,384,0,2,,,,,1,,,64,0
133248,note_on,,,,,0,0,2,,,,,1,,,69,93
133248,note_on,,,,,96,0,3,,,,,2,,,60,90
133248,note_off,,,,,384,0,1,,,,,0,,,76,0
133248,note_on,,,,,0,0,1,,,,,0,,,81,106
133344,note_off,,,,,96,0,4,,,,,3,,,48,0
133344,note_off,,,,,96,0,3,,,,,2,,,60,0
133440,note_on,,,,,96,0,4,,,,,3,,,45,84
133440,note_on,,,,,96,0,3,,,,,2,,,57,90
133536,note_off,,,,,96,0,4,,,,,3,,,45,0
133536,note_off,,,,,96,0,3,,,,,2,,,57,0
133632,note_on,,,,,0,0,2,,,,,1,,,62,93
133632,note_off,,,,,384,0,2,,,,,1,,,69,0
133632,note_on,,,,,96,0,4,,,,,3,,,47,84
133632,note_on,,,,,0,0,1,,,,,0,,,74,106
133632,note_off,,,,,384,0,1,,,,,0,,,81,0
133632,note_on,,,,,96,0,3,,,,,2,,,59,90
133728,note_off,,,,,96,0,4,,,,,3,,,47,0
133728,note_off,,,,,96,0,3,,,,,2,,,59,0
133824,note_on,,,,,96,0,3,,,,,2,,,60,90
133824,note_on,,,,,96,0,4,,,,,3,,,48,84
133920,note_off,,,,,288,0,2,,,,,1,,,62,0
133920,note_off,,,,,96,0,3,,,,,2,,,60,0
133920,note_off,,,,,96,0,4,,,,,3,,,48,0
133920,note_off,,,,,288,0,1,,,,,0,,,74,0
133920,note_on,,,,,0,0,1,,,,,0,,,76,106
133920,note_on,,,,,0,0,2,,,,,1,,,64,93
134016,note_on,,,,,0,0,2,,,,,1,,,65,93
134016,note_on,,,,,96,0,4,,,,,3,,,50,84
134016,note_off,,,,,96,0,2,,,,,1,,,64,0
134016,note_off,,,,,96,0,1,,,,,0,,,76,0
134016,note_on,,,,,96,0,3,,,,,2,,,62,90
134016,note_on,,,,,0,0,1,,,,,0,,,77,106
134112,note_off,,,,,96,0,3,,,,,2,,,62,0
134112,note_off,,,,,96,0,4,,,,,3,,,50,0
134208,note_on,,,,,96,0,3,,,,,2,,,59,90
134208,note_on,,,,,96,0,4,,,,,3,,,47,84
134304,note_off,,,,,96,0,3,,,,,2,,,59,0
134304,note_off,,,,,96,0,4,,,,,3,,,47,0
134400,note_on,,,,,96,0,3,,,,,2,,,55,90
134400,note_on,,,,,96,0,4,,,,,3,,,43,84
134496,note_off,,,,,96,0,3,,,,,2,,,55,0
134496,note_off,,,,,96,0,4,,,,,3,,,43,0
134592,note_on,,,,,96,0,3,,,,,2,,,59,90
134592,note_on,,,,,96,0,4,,,,,3,,,47,84
134592,note_off,,,,,576,0,2,,,,,1,,,65,0
134592,note_on,,,,,0,0,2,,,,,1,,,67,93
134688,note_off,,,,,96,0,3,,,,,2,,,59,0
134688,note_off,,,,,96,0,4,,,,,3,,,47,0
134784,note_off,,,,,192,0,2,,,,,1,,,67,0
134784,note_on,,,,,96,0,4,,,,,3,,,48,84
134784,note_on,,,,,96,0,3,,,,,2,,,60,90
134784,note_on,,,,,0,0,2,,,,,1,,,67,93
134880,note_off,,,,,96,0,4,,,,,3,,,48,0
134880,note_off,,,,,96,0,3,,,,,2,,,60,0
134976,note_on,,,,,96,0,4,,,,,3,,,50,84
134976,note_on,,,,,96,0,3,,,,,2,,,62,90
135072,note_off,,,,,96,0,4,,,,,3,,,50,0
135072,note_off,,,,,96,0,3,,,,,2,,,62,0
135168,note_on,,,,,96,0,4,,,,,3,,,52,84
135168,note_off,,,,,1152,0,1,,,,,0,,,77,0
135168,note_on,,,,,0,0,1,,,,,0,,,76,106
135168,note_on,,,,,96,0,3,,,,,2,,,64,90
135264,note_off,,,,,96,0,3,,,,,2,,,64,0
135264,note_off,,,,,96,0,4,,,,,3,,,52,0
135360,note_on,,,,,96,0,3,,,,,2,,,65,90
135360,note_on,,,,,96,0,4,,,,,3,,,53,84
135456,note_off,,,,,96,0,3,,,,,2,,,65,0
135456,note_off,,,,,96,0,4,,,,,3,,,53,0
135552,note_off,,,,,768,0,2,,,,,1,,,67,0
135552,note_on,,,,,0,0,2,,,,,1,,,71,93
135552,note_on,,,,,0,0,2,,,,,1,,,65,93
135552,note_on,,,,,96,0,3,,,,,2,,,67,90
135552,note_on,,,,,0,0,1,,,,,0,,,74,106
135552,note_off,,,,,384,0,1,,,,,0,,,76,0
135552,note_on,,,,,96,0,4,,,,,3,,,55,84
135600,note_on,,,,,0,0,1,,,,,0,,,76,106
135600,note_off,,,,,48,0,1,,,,,0,,,74,0
135648,note_off,,,,,96,0,4,,,,,3,,,55,0
135648,note_on,,,,,0,0,1,,,,,0,,,74,106
135648,note_off,,,,,96,0,3,,,,,2,,,67,0
135648,note_off,,,,,48,0,1,,,,,0,,,76,0
135696,note_on,,,,,0,0,1,,,,,0,,,76,106
135696,note_off,,,,,48,0,1,,,,,0,,,74,0
135744,note_off,,,,,48,0,1,,,,,0,,,76,0
135744,note_on,,,,,0,0,1,,,,,0,,,74,106
135744,note_on,,,,,96,0,4,,,,,3,,,43,84
135744,note_on,,,,,96,0,3,,,,,2,,,55,90
135792,note_off,,,,,48,0,1,,,,,0,,,74,0
135792,note_on,,,,,0,0,1,,,,,0,,,76,106
135840,note_off,,,,,96,0,3,,,,,2,,,55,0
135840,note_on,,,,,0,0,1,,,,,0,,,72,106
135840,note_off,,,,,96,0,4,,,,,3,,,43,0
135840,note_off,,,,,48,0,1,,,,,0,,,76,0
135888,note_off,,,,,48,0,1,,,,,0,,,72,0
135888,note_on,,,,,0,0,1,,,,,0,,,74,106
135936,note_off,,,,,48,0,1,,,,,0,,,74,0
135936,note_on,,,,,0,0,1,,,,,0,,,72,106
135936,note_on,,,,,96,0,4,,,,,3,,,48,84
135936,note_on,,,,,96,0,3,,,,,2,,,60,90
135936,note_on,,,,,0,0,2,,,,,1,,,64,93
135936,note_on,,,,,0,0,2,,,,,1,,,72,93
135936,note_off,,,,,0,0,2,,,,,1,,,65,0
135936,note_off,,,,,384,0,2,,,,,1,,,71,0
136128,note_off,,,,,192,0,4,,,,,3,,,48,0
136320,note_off,,,,,384,0,2,,,,,1,,,72,0
136320,note_off,,,,,0,0,2,,,,,1,,,64,0
136320,note_off,,,,,384,0,1,,,,,0,,,72,0
136320,note_off,,,,,384,0,3,,,,,2,,,60,0
136704,note_on,,,,,384,0,1,,,,,0,,,64,106
136704,note_on,,,,,384,0,2,,,,,1,,,64,93
136704,note_on,,,,,384,0,3,,,,,2,,,52,90
136704,note_on,,,,,576,0,4,,,,,3,,,40,84
136832,note_on,,,,,0,0,2,,,,,1,,,68,93
136832,note_on,,,,,0,0,3,,,,,2,,,56,90
136832,note_off,,,,,128,0,3,,,,,2,,,52,0
136832,note_on,,,,,0,0,1,,,,,0,,,68,106
136832,note_off,,,,,128,0,1,,,,,0,,,64,0
136832,note_on,,,,,0,0,4,,,,,3,,,44,84
136832,note_off,,,,,128,0,2,,,,,1,,,64,0
136832,note_off,,,,,128,0,4,,,,,3,,,40,0
136960,note_on,,,,,0,0,3,,,,,2,,,59,90
136960,note_off,,,,,128,0,1,,,,,0,,,68,0
136960,note_on,,,,,0,0,1,,,,,0,,,71,106
136960,note_off,,,,,128,0,4,,,,,3,,,44,0
136960,note_on,,,,,0,0,4,,,,,3,,,47,84
136960,note_off,,,,,128,0,3,,,,,2,,,56,0
136960,note_off,,,,,128,0,2,,,,,1,,,68,0
136960,note_on,,,,,0,0,2,,,,,1,,,71,93
137088,note_off,,,,,128,0,2,,,,,1,,,71,0
137088,note_off,,,,,128,0,3,,,,,2,,,59,0
137088,note_on,,,,,0,0,1,,,,,0,,,76,106
137088,note_off,,,,,128,0,1,,,,,0,,,71,0
137088,note_off,,,,,128,0,4,,,,,3,,,47,0
137088,note_on,,,,,0,0,4,,,,,3,,,52,84
137088,note_on,,,,,0,0,3,,,,,2,,,64,90
137088,note_on,,,,,0,0,2,,,,,1,,,76,93
137280,note_off,,,,,192,0,3,,,,,2,,,64,0
137280,note_off,,,,,192,0,1,,,,,0,,,76,0
137280,note_off,,,,,192,0,2,,,,,1,,,76,0
137280,note_off,,,,,192,0,4,,,,,3,,,52,0
137472,note_on,,,,,192,0,2,,,,,1,,,81,93
137472,note_on,,,,,192,0,3,,,,,2,,,75,90
137472,note_on,,,,,192,0,1,,,,,0,,,85,106
137568,note_off,,,,,96,0,3,,,,,2,,,75,0
137568,note_off,,,,,96,0,2,,,,,1,,,81,0
137568,note_off,,,,,96,0,1,,,,,0,,,85,0
137664,note_on,,,,,96,0,3,,,,,2,,,76,90
137664,note_on,,,,,96,0,2,,,,,1,,,80,93
137664,note_on,,,,,96,0,1,,,,,0,,,83,106
137760,note_off,,,,,96,0,1,,,,,0,,,83,0
137760,note_off,,,,,96,0,3,,,,,2,,,76,0
137760,note_off,,,,,96,0,2,,,,,1,,,80,0
137856,note_on,,,,,96,0,1,,,,,0,,,85,106
137856,note_on,,,,,96,0,3,,,,,2,,,75,90
137856,note_on,,,,,96,0,2,,,,,1,,,81,93
137952,note_off,,,,,96,0,3,,,,,2,,,75,0
137952,note_off,,,,,96,0,2,,,,,1,,,81,0
137952,note_off,,,,,96,0,1,,,,,0,,,85,0
138048,note_on,,,,,96,0,3,,,,,2,,,76,90
138048,note_on,,,,,96,0,2,,,,,1,,,80,93
138048,note_on,,,,,96,0,1,,,,,0,,,83,106
138144,note_off,,,,,96,0,3,,,,,2,,,76,0
138144,note_off,,,,,96,0,2,,,,,1,,,80,0
138144,note_off,,,,,96,0,1,,,,,0,,,83,0
138240,note_on,,,,,96,0,3,,,,,2,,,64,90
138240,note_on,,,,,96,0,1,,,,,0,,,88,106
138240,note_on,,,,,96,0,2,,,,,1,,,68,93
138624,note_on,,,,,0,0,1,,,,,0,,,83,106
138624,note_off,,,,,384,0,3,,,,,2,,,64,0
138624,note_off,,,,,384,0,2,,,,,1,,,68,0
138624,note_off,,,,,384,0,1,,,,,0,,,88,0
138624,note_on,,,,,0,0,3,,,,,2,,,68,90
138624,note_on,,,,,0,0,2,,,,,1,,,71,93
139008,note_on,,,,,0,0,1,,,,,0,,,81,106
139008,note_off,,,,,384,0,1,,,,,0,,,83,0
139008,note_off,,,,,384,0,2,,,,,1,,,71,0
139008,note_off,,,,,384,0,3,,,,,2,,,68,0
139008,note_on,,,,,0,0,3,,,,,2,,,73,90
139008,note_on,,,,,0,0,2,,,,,1,,,76,93
139104,note_off,,,,,96,0,2,,,,,1,,,76,0
139104,note_off,,,,,96,0,1,,,,,0,,,81,0
139104,note_off,,,,,96,0,3,,,,,2,,,73,0
139200,note_on,,,,,96,0,2,,,,,1,,,75,93
139200,note_on,,,,,96,0,1,,,,,0,,,80,106
139200,note_on,,,,,96,0,3,,,,,2,,,71,90
139296,note_off,,,,,96,0,3,,,,,2,,,71,0
139296,note_off,,,,,96,0,1,,,,,0,,,80,0
139296,note_off,,,,,96,0,2,,,,,1,,,75,0
139392,note_on,,,,,96,0,3,,,,,2,,,69,90
139392,note_on,,,,,96,0,2,,,,,1,,,73,93
139392,note_on,,,,,96,0,1,,,,,0,,,78,106
139488,note_off,,,,,96,0,2,,,,,1,,,73,0
139488,note_off,,,,,96,0,1,,,,,0,,,78,0
139488,note_off,,,,,96,0,3,,,,,2,,,69,0
139584,note_on,,,,,96,0,3,,,,,2,,,68,90
139584,note_on,,,,,96,0,2,,,,,1,,,71,93
139584,note_on,,,,,96,0,1,,,,,0,,,76,106
139680,note_off,,,,,96,0,3,,,,,2,,,68,0
139680,note_off,,,,,96,0,2,,,,,1,,,71,0
139680,note_off,,,,,96,0,1,,,,,0,,,76,0
139776,note_on,,,,,96,0,3,,,,,2,,,66,90
139776,note_on,,,,,96,0,1,,,,,0,,,75,106
139776,note_on,,,,,96,0,2,,,,,1,,,69,93
139872,note_off,,,,,96,0,1,,,,,0,,,75,0
139872,note_off,,,,,96,0,2,,,,,1,,,69,0
139872,note_off,,,,,96,0,3,,,,,2,,,66,0
139968,note_on,,,,,96,0,1,,,,,0,,,73,106
139968,note_on,,,,,2688,0,4,,,,,3,,,52,84
139968,note_on,,,,,96,0,3,,,,,2,,,64,90
139968,note_on,,,,,96,0,2,,,,,1,,,68,93
140064,note_off,,,,,96,0,4,,,,,3,,,52,0
140064,note_off,,,,,96,0,3,,,,,2,,,64,0
140064,note_off,,,,,96,0,1,,,,,0,,,73,0
140064,note_off,,,,,96,0,2,,,,,1,,,68,0
140160,note_on,,,,,96,0,1,,,,,0,,,71,106
140160,note_on,,,,,96,0,4,,,,,3,,,54,84
140160,note_on,,,,,96,0,3,,,,,2,,,63,90
140160,note_on,,,,,96,0,2,,,,,1,,,66,93
140256,note_off,,,,,96,0,2,,,,,1,,,66,0
140256,note_off,,,,,96,0,1,,,,,0,,,71,0
140256,note_off,,,,,96,0,3,,,,,2,,,63,0
140256,note_off,,,,,96,0,4,,,,,3,,,54,0
140352,note_on,,,,,96,0,2,,,,,1,,,64,93
140352,note_on,,,,,96,0,3,,,,,2,,,61,90
140352,note_on,,,,,96,0,1,,,,,0,,,69,106
140352,note_on,,,,,96,0,4,,,,,3,,,55,84
140448,note_off,,,,,96,0,1,,,,,0,,,69,0
140448,note_off,,,,,96,0,4,,,,,3,,,55,0
140448,note_off,,,,,96,0,3,,,,,2,,,61,0
140448,note_off,,,,,96,0,2,,,,,1,,,64,0
140544,note_on,,,,,96,0,3,,,,,2,,,60,90
140544,note_on,,,,,96,0,1,,,,,0,,,68,106
140544,note_on,,,,,96,0,4,,,,,3,,,56,84
140544,note_on,,,,,96,0,2,,,,,1,,,63,93
140736,note_off,,,,,192,0,4,,,,,3,,,56,0
140736,note_off,,,,,192,0,1,,,,,0,,,68,0
140736,note_off,,,,,192,0,3,,,,,2,,,60,0
140736,note_off,,,,,192,0,2,,,,,1,,,63,0
140928,note_on,,,,,192,0,4,,,,,3,,,56,84
140928,note_on,,,,,192,0,1,,,,,0,,,68,106
140928,note_on,,,,,192,0,3,,,,,2,,,60,90
140928,note_on,,,,,192,0,2,,,,,1,,,63,93
141120,note_off,,,,,192,0,2,,,,,1,,,63,0
141120,note_off,,,,,192,0,4,,,,,3,,,56,0
141120,note_off,,,,,192,0,3,,,,,2,,,60,0
141120,note_off,,,,,192,0,1,,,,,0,,,68,0
141312,note_on,,,,,192,0,4,,,,,3,,,37,84
141312,note_on,,,,,192,0,3,,,,,2,,,49,90
141312,note_on,,,,,192,0,2,,,,,1,,,61,93
141312,note_on,,,,,192,0,1,,,,,0,,,61,106
141440,note_on,,,,,0,0,4,,,,,3,,,40,84
141440,note_off,,,,,128,0,4,,,,,3,,,37,0
141440,note_off,,,,,128,0,3,,,,,2,,,49,0
141440,note_off,,,,,128,0,2,,,,,1,,,61,0
141440,note_on,,,,,0,0,2,,,,,1,,,64,93
141440,note_on,,,,,0,0,3,,,,,2,,,52,90
141440,note_on,,,,,0,0,1,,,,,0,,,64,106
141440,note_off,,,,,128,0,1,,,,,0,,,61,0
141568,note_on,,,,,0,0,2,,,,,1,,,68,93
141568,note_on,,,,,0,0,3,,,,,2,,,56,90
141568,note_off,,,,,128,0,4,,,,,3,,,40,0
141568,note_on,,,,,0,0,4,,,,,3,,,44,84
141568,note_off,,,,,128,0,1,,,,,0,,,64,0
141568,note_on,,,,,0,0,1,,,,,0,,,68,106
141568,note_off,,,,,128,0,2,,,,,1,,,64,0
141568,note_off,,,,,128,0,3,,,,,2,,,52,0
141696,note_on,,,,,0,0,1,,,,,0,,,73,106
141696,note_off,,,,,128,0,1,,,,,0,,,68,0
141696,note_on,,,,,0,0,4,,,,,3,,,49,84
141696,note_off,,,,,128,0,4,,,,,3,,,44,0
141696,note_off,,,,,128,0,3,,,,,2,,,56,0
141696,note_on,,,,,0,0,3,,,,,2,,,61,90
141696,note_off,,,,,128,0,2,,,,,1,,,68,0
141696,note_on,,,,,0,0,2,,,,,1,,,73,93
141888,note_off,,,,,192,0,1,,,,,0,,,73,0
141888,note_off,,,,,192,0,4,,,,,3,,,49,0
141888,note_off,,,,,192,0,2,,,,,1,,,73,0
141888,note_off,,,,,192,0,3,,,,,2,,,61,0
142080,note_on,,,,,192,0,3,,,,,2,,,72,90
142080,note_on,,,,,192,0,1,,,,,0,,,81,106
142080,note_on,,,,,192,0,2,,,,,1,,,78,93
142176,note_off,,,,,96,0,2,,,,,1,,,78,0
142176,note_off,,,,,96,0,3,,,,,2,,,72,0
142176,note_off,,,,,96,0,1,,,,,0,,,81,0
142272,note_on,,,,,96,0,2,,,,,1,,,76,93
142272,note_on,,,,,96,0,3,,,,,2,,,73,90
142272,note_on,,,,,96,0,1,,,,,0,,,80,106
142368,note_off,,,,,96,0,1,,,,,0,,,80,0
142368,note_off,,,,,96,0,3,,,,,2,,,73,0
142368,note_off,,,,,96,0,2,,,,,1,,,76,0
142464,note_on,,,,,96,0,1,,,,,0,,,81,106
142464,note_on,,,,,96,0,2,,,,,1,,,78,93
142464,note_on,,,,,96,0,3,,,,,2,,,72,90
142560,note_off,,,,,96,0,1,,,,,0,,,81,0
142560,note_off,,,,,96,0,2,,,,,1,,,78,0
142560,note_off,,,,,96,0,3,,,,,2,,,72,0
142656,note_on,,,,,96,0,2,,,,,1,,,76,93
142656,note_on,,,,,96,0,3,,,,,2,,,73,90
142656,note_on,,,,,96,0,1,,,,,0,,,80,106
142752,note_off,,,,,96,0,3,,,,,2,,,73,0
142752,note_off,,,,,96,0,2,,,,,1,,,76,0
142752,note_off,,,,,96,0,1,,,,,0,,,80,0
142848,note_on,,,,,96,0,1,,,,,0,,,85,106
142848,note_on,,,,,96,0,3,,,,,2,,,61,90
142848,note_on,,,,,96,0,2,,,,,1,,,64,93
143232,note_on,,,,,0,0,2,,,,,1,,,68,93
143232,note_off,,,,,384,0,2,,,,,1,,,64,0
143232,note_on,,,,,0,0,3,,,,,2,,,64,90
143232,note_on,,,,,0,0,1,,,,,0,,,80,106
143232,note_off,,,,,384,0,3,,,,,2,,,61,0
143232,note_off,,,,,384,0,1,,,,,0,,,85,0
143616,note_on,,,,,0,0,1,,,,,0,,,85,106
143616,note_on,,,,,0,0,3,,,,,2,,,76,90
143616,note_off,,,,,384,0,3,,,,,2,,,64,0
143616,note_off,,,,,384,0,2,,,,,1,,,68,0
143616,note_on,,,,,0,0,2,,,,,1,,,80,93
143616,note_off,,,,,384,0,1,,,,,0,,,80,0
143712,note_off,,,,,96,0,2,,,,,1,,,80,0
143712,note_off,,,,,96,0,3,,,,,2,,,76,0
143712,note_off,,,,,96,0,1,,,,,0,,,85,0
143808,note_on,,,,,96,0,1,,,,,0,,,83,106
143808,note_on,,,,,96,0,3,,,,,2,,,75,90
143808,note_on,,,,,96,0,2,,,,,1,,,78,93
143904,note_off,,,,,96,0,1,,,,,0,,,83,0
143904,note_off,,,,,96,0,2,,,,,1,,,78,0
143904,note_off,,,,,96,0,3,,,,,2,,,75,0
144000,note_on,,,,,96,0,2,,,,,1,,,76,93
144000,note_on,,,,,96,0,1,,,,,0,,,82,106
144000,note_on,,,,,96,0,3,,,,,2,,,73,90
144096,note_off,,,,,96,0,1,,,,,0,,,82,0
144096,note_off,,,,,96,0,2,,,,,1,,,76,0
144096,note_off,,,,,96,0,3,,,,,2,,,73,0
144192,note_on,,,,,96,0,2,,,,,1,,,75,93
144192,note_on,,,,,96,0,3,,,,,2,,,71,90
144192,note_on,,,,,96,0,1,,,,,0,,,80,106
144288,note_off,,,,,96,0,1,,,,,0,,,80,0
144288,note_off,,,,,96,0,3,,,,,2,,,71,0
144288,note_off,,,,,96,0,2,,,,,1,,,75,0
144384,note_on,,,,,96,0,3,,,,,2,,,70,90
144384,note_on,,,,,96,0,1,,,,,0,,,78,106
144384,note_on,,,,,96,0,2,,,,,1,,,73,93
144480,note_off,,,,,96,0,2,,,,,1,,,73,0
144480,note_off,,,,,96,0,3,,,,,2,,,70,0
144480,note_off,,,,,96,0,1,,,,,0,,,78,0
144576,note_on,,,,,96,0,3,,,,,2,,,68,90
144576,note_on,,,,,96,0,2,,,,,1,,,71,93
144576,note_on,,,,,2688,0,4,,,,,3,,,52,84
144576,note_on,,,,,96,0,1,,,,,0,,,76,106
144672,note_off,,,,,96,0,3,,,,,2,,,68,0
144672,note_off,,,,,96,0,1,,,,,0,,,76,0
144672,note_off,,,,,96,0,4,,,,,3,,,52,0
144672,note_off,,,,,96,0,2,,,,,1,,,71,0
144768,note_on,,,,,96,0,1,,,,,0,,,75,106
144768,note_on,,,,,96,0,2,,,,,1,,,70,93
144768,note_on,,,,,96,0,4,,,,,3,,,54,84
144768,note_on,,,,,96,0,3,,,,,2,,,66,90
144864,note_off,,,,,96,0,3,,,,,2,,,66,0
144864,note_off,,,,,96,0,4,,,,,3,,,54,0
144864,note_off,,,,,96,0,2,,,,,1,,,70,0
144864,note_off,,,,,96,0,1,,,,,0,,,75,0
144960,note_on,,,,,96,0,4,,,,,3,,,54,84
144960,note_on,,,,,96,0,3,,,,,2,,,64,90
144960,note_on,,,,,96,0,1,,,,,0,,,73,106
144960,note_on,,,,,96,0,2,,,,,1,,,69,93
145056,note_off,,,,,96,0,4,,,,,3,,,54,0
145056,note_off,,,,,96,0,1,,,,,0,,,73,0
145056,note_off,,,,,96,0,2,,,,,1,,,69,0
145056,note_off,,,,,96,0,3,,,,,2,,,64,0
145152,note_on,,,,,96,0,2,,,,,1,,,71,93
145152,note_on,,,,,96,0,4,,,,,3,,,47,84
145152,note_on,,,,,96,0,1,,,,,0,,,71,106
145152,note_on,,,,,96,0,3,,,,,2,,,63,90
145280,note_off,,,,,128,0,4,,,,,3,,,47,0
145280,note_on,,,,,0,0,4,,,,,3,,,51,84
145344,note_on,,,,,0,0,2,,,,,1,,,66,93
145344,note_off,,,,,192,0,2,,,,,1,,,71,0
145408,note_on,,,,,0,0,4,,,,,3,,,54,84
145408,note_off,,,,,128,0,4,,,,,3,,,51,0
145536,note_off,,,,,192,0,2,,,,,1,,,66,0
145536,note_on,,,,,0,0,2,,,,,1,,,63,93
145536,note_on,,,,,0,0,1,,,,,0,,,71,106
145536,note_on,,,,,0,0,3,,,,,2,,,71,90
145536,note_off,,,,,384,0,1,,,,,0,,,71,0
145536,note_on,,,,,0,0,4,,,,,3,,,59,84
145536,note_off,,,,,128,0,4,,,,,3,,,54,0
145536,note_off,,,,,384,0,3,,,,,2,,,63,0
145664,note_on,,,,,0,0,3,,,,,2,,,66,90
145664,note_off,,,,,128,0,3,,,,,2,,,71,0
145728,note_off,,,,,192,0,4,,,,,3,,,59,0
145728,note_on,,,,,0,0,2,,,,,1,,,66,93
145728,note_off,,,,,192,0,2,,,,,1,,,63,0
145792,note_on,,,,,0,0,3,,,,,2,,,63,90
145792,note_off,,,,,128,0,3,,,,,2,,,66,0
145920,note_off,,,,,128,0,3,,,,,2,,,63,0
145920,note_on,,,,,0,0,1,,,,,0,,,78,106
145920,note_on,,,,,192,0,4,,,,,3,,,54,84
145920,note_on,,,,,0,0,2,,,,,1,,,64,93
145920,note_off,,,,,192,0,2,,,,,1,,,66,0
145920,note_on,,,,,0,0,3,,,,,2,,,66,90
145920,note_off,,,,,384,0,1,,,,,0,,,71,0
146048,note_on,,,,,0,0,1,,,,,0,,,76,106
146048,note_off,,,,,128,0,1,,,,,0,,,78,0
146112,note_off,,,,,192,0,3,,,,,2,,,66,0
146112,note_off,,,,,192,0,2,,,,,1,,,64,0
146112,note_on,,,,,0,0,2,,,,,1,,,66,93
146112,note_off,,,,,192,0,4,,,,,3,,,54,0
146176,note_off,,,,,128,0,1,,,,,0,,,76,0
146176,note_on,,,,,0,0,1,,,,,0,,,73,106
146304,note_off,,,,,192,0,2,,,,,1,,,66,0
146304,note_on,,,,,0,0,2,,,,,1,,,63,93
146304,note_on,,,,,192,0,4,,,,,3,,,47,84
146304,note_on,,,,,0,0,1,,,,,0,,,71,106
146304,note_off,,,,,128,0,1,,,,,0,,,73,0
146304,note_on,,,,,192,0,3,,,,,2,,,59,90
146432,note_on,,,,,0,0,4,,,,,3,,,51,84
146432,note_off,,,,,128,0,4,,,,,3,,,47,0
146496,note_off,,,,,192,0,2,,,,,1,,,63,0
146496,note_on,,,,,0,0,2,,,,,1,,,66,93
146496,note_off,,,,,192,0,3,,,,,2,,,59,0
146560,note_off,,,,,128,0,4,,,,,3,,,51,0
146560,note_on,,,,,0,0,4,,,,,3,,,54,84
146688,note_on,,,,,192,0,3,,,,,2,,,71,90
146688,note_off,,,,,384,0,1,,,,,0,,,71,0
146688,note_on,,,,,0,0,4,,,,,3,,,59,84
146688,note_on,,,,,0,0,2,,,,,1,,,63,93
146688,note_off,,,,,192,0,2,,,,,1,,,66,0
146688,note_off,,,,,128,0,4,,,,,3,,,54,0
146688,note_on,,,,,0,0,1,,,,,0,,,71,106
146816,note_on,,,,,0,0,3,,,,,2,,,66,90
146816,note_off,,,,,128,0,3,,,,,2,,,71,0
146880,note_on,,,,,0,0,2,,,,,1,,,66,93
146880,note_off,,,,,192,0,4,,,,,3,,,59,0
146880,note_off,,,,,192,0,2,,,,,1,,,63,0
146944,note_on,,,,,0,0,3,,,,,2,,,63,90
146944,note_off,,,,,128,0,3,,,,,2,,,66,0
147072,note_off,,,,,384,0,1,,,,,0,,,71,0
147072,note_on,,,,,0,0,1,,,,,0,,,78,106
147072,note_off,,,,,192,0,2,,,,,1,,,66,0
147072,note_on,,,,,0,0,2,,,,,1,,,64,93
147072,note_on,,,,,192,0,4,,,,,3,,,54,84
147072,note_on,,,,,0,0,3,,,,,2,,,66,90
147072,note_off,,,,,128,0,3,,,,,2,,,63,0
147200,note_off,,,,,128,0,1,,,,,0,,,78,0
147200,note_on,,,,,0,0,1,,,,,0,,,76,106
147264,note_off,,,,,192,0,4,,,,,3,,,54,0
147264,note_off,,,,,192,0,2,,,,,1,,,64,0
147264,note_on,,,,,0,0,2,,,,,1,,,66,93
147264,note_off,,,,,192,0,3,,,,,2,,,66,0
147328,note_off,,,,,128,0,1,,,,,0,,,76,0
147328,note_on,,,,,0,0,1,,,,,0,,,73,106
147456,note_on,,,,,0,0,1,,,,,0,,,71,106
147456,note_on,,,,,0,0,2,,,,,1,,,63,93
147456,note_off,,,,,192,0,2,,,,,1,,,66,0
147456,note_on,,,,,192,0,3,,,,,2,,,59,90
147456,note_on,,,,,192,0,4,,,,,3,,,47,84
147456,note_off,,,,,128,0,1,,,,,0,,,73,0
147584,note_off,,,,,128,0,4,,,,,3,,,47,0
147584,note_on,,,,,0,0,4,,,,,3,,,51,84
147648,note_off,,,,,192,0,3,,,,,2,,,59,0
147648,note_on,,,,,0,0,2,,,,,1,,,66,93
147648,note_off,,,,,192,0,2,,,,,1,,,63,0
147712,note_off,,,,,128,0,4,,,,,3,,,51,0
147712,note_on,,,,,0,0,4,,,,,3,,,54,84
147840,note_on,,,,,0,0,4,,,,,3,,,59,84
147840,note_off,,,,,192,0,2,,,,,1,,,66,0
147840,note_on,,,,,192,0,3,,,,,2,,,71,90
147840,note_off,,,,,128,0,4,,,,,3,,,54,0
147840,note_on,,,,,0,0,2,,,,,1,,,63,93
147968,note_off,,,,,128,0,3,,,,,2,,,71,0
147968,note_on,,,,,0,0,3,,,,,2,,,66,90
148032,note_off,,,,,192,0,2,,,,,1,,,63,0
148032,note_off,,,,,192,0,4,,,,,3,,,59,0
148032,note_on,,,,,0,0,2,,,,,1,,,66,93
148096,note_on,,,,,0,0,3,,,,,2,,,63,90
148096,note_off,,,,,128,0,3,,,,,2,,,66,0
148224,note_on,,,,,0,0,1,,,,,0,,,78,106
148224,note_on,,,,,192,0,4,,,,,3,,,54,84
148224,note_on,,,,,0,0,3,,,,,2,,,66,90
148224,note_off,,,,,768,0,1,,,,,0,,,71,0
148224,note_off,,,,,192,0,2,,,,,1,,,66,0
148224,note_on,,,,,0,0,2,,,,,1,,,64,93
148224,note_off,,,,,128,0,3,,,,,2,,,63,0
148352,note_off,,,,,128,0,1,,,,,0,,,78,0
148352,note_on,,,,,0,0,1,,,,,0,,,76,106
148416,note_off,,,,,192,0,2,,,,,1,,,64,0
148416,note_off,,,,,192,0,3,,,,,2,,,66,0
148416,note_off,,,,,192,0,4,,,,,3,,,54,0
148416,note_on,,,,,0,0,2,,,,,1,,,66,93
148480,note_off,,,,,128,0,1,,,,,0,,,76,0
148480,note_on,,,,,0,0,1,,,,,0,,,73,106
148608,note_on,,,,,192,0,3,,,,,2,,,59,90
148608,note_off,,,,,128,0,1,,,,,0,,,73,0
148608,note_on,,,,,0,0,1,,,,,0,,,71,106
148608,note_on,,,,,192,0,4,,,,,3,,,47,84
148608,note_on,,,,,0,0,2,,,,,1,,,63,93
148608,note_off,,,,,192,0,2,,,,,1,,,66,0
148736,note_off,,,,,128,0,1,,,,,0,,,71,0
148736,note_on,,,,,0,0,1,,,,,0,,,75,106
148800,note_off,,,,,192,0,4,,,,,3,,,47,0
148800,note_off,,,,,192,0,3,,,,,2,,,59,0
148800,note_off,,,,,192,0,2,,,,,1,,,63,0
148864,note_on,,,,,0,0,1,,,,,0,,,78,106
148864,note_off,,,,,128,0,1,,,,,0,,,75,0
148992,note_on,,,,,192,0,4,,,,,3,,,51,84
148992,note_on,,,,,192,0,2,,,,,1,,,66,93
148992,note_on,,,,,192,0,3,,,,,2,,,63,90
148992,note_off,,,,,128,0,1,,,,,0,,,78,0
148992,note_on,,,,,0,0,1,,,,,0,,,83,106
149120,note_off,,,,,128,0,1,,,,,0,,,83,0
149120,note_on,,,,,0,0,1,,,,,0,,,78,106
149184,note_off,,,,,192,0,4,,,,,3,,,51,0
149184,note_off,,,,,192,0,2,,,,,1,,,66,0
149184,note_off,,,,,192,0,3,,,,,2,,,63,0
149248,note_off,,,,,128,0,1,,,,,0,,,78,0
149248,note_on,,,,,0,0,1,,,,,0,,,75,106
149376,note_on,,,,,192,0,3,,,,,2,,,61,90
149376,note_on,,,,,192,0,4,,,,,3,,,54,84
149376,note_on,,,,,192,0,2,,,,,1,,,64,93
149376,note_on,,,,,0,0,1,,,,,0,,,76,106
149376,note_off,,,,,128,0,1,,,,,0,,,75,0
149504,note_on,,,,,0,0,1,,,,,0,,,73,106
149504,note_off,,,,,128,0,1,,,,,0,,,76,0
149568,note_off,,,,,192,0,2,,,,,1,,,64,0
149568,note_off,,,,,192,0,3,,,,,2,,,61,0
149568,note_off,,,,,192,0,4,,,,,3,,,54,0
149632,note_on,,,,,0,0,1,,,,,0,,,70,106
149632,note_off,,,,,128,0,1,,,,,0,,,73,0
149760,note_on,,,,,192,0,2,,,,,1,,,63,93
149760,note_on,,,,,0,0,1,,,,,0,,,71,106
149760,note_off,,,,,128,0,1,,,,,0,,,70,0
149760,note_on,,,,,192,0,3,,,,,2,,,59,90
149760,note_on,,,,,192,0,4,,,,,3,,,47,84
150144,note_off,,,,,384,0,4,,,,,3,,,47,0
150144,note_off,,,,,384,0,1,,,,,0,,,71,0
150144,note_off,,,,,384,0,3,,,,,2,,,59,0
150144,note_off,,,,,384,0,2,,,,,1,,,63,0
150528,note_on,,,,,384,0,4,,,,,3,,,59,84
150528,note_on,,,,,384,0,3,,,,,2,,,57,90
150528,note_on,,,,,384,0,1,,,,,0,,,81,106
150528,note_on,,,,,384,0,2,,,,,1,,,63,93
150528,note_on,,,,,0,0,3,,,,,2,,,69,90
150656,note_off,,,,,128,0,4,,,,,3,,,59,0
150656,note_on,,,,,0,0,4,,,,,3,,,57,84
150656,note_off,,,,,128,0,1,,,,,0,,,81,0
150656,note_on,,,,,0,0,1,,,,,0,,,78,106
150784,note_on,,,,,0,0,1,,,,,0,,,76,106
150784,note_off,,,,,128,0,1,,,,,0,,,78,0
150784,note_off,,,,,128,0,4,,,,,3,,,57,0
150784,note_on,,,,,0,0,4,,,,,3,,,59,84
150816,note_off,,,,,288,0,2,,,,,1,,,63,0
150816,note_on,,,,,0,0,2,,,,,1,,,64,93
150912,note_off,,,,,96,0,2,,,,,1,,,64,0
150912,note_on,,,,,0,0,2,,,,,1,,,66,93
150912,note_off,,,,,128,0,4,,,,,3,,,59,0
150912,note_on,,,,,0,0,4,,,,,3,,,60,84
150912,note_on,,,,,0,0,1,,,,,0,,,75,106
150912,note_off,,,,,128,0,1,,,,,0,,,76,0
151008,note_off,,,,,96,0,4,,,,,3,,,60,0
151040,note_off,,,,,128,0,1,,,,,0,,,75,0
151040,note_on,,,,,0,0,1,,,,,0,,,78,106
151104,note_off,,,,,0,0,3,,,,,2,,,69,0
151104,note_off,,,,,576,0,3,,,,,2,,,57,0
151104,note_off,,,,,192,0,2,,,,,1,,,66,0
151168,note_off,,,,,128,0,1,,,,,0,,,78,0
151168,note_on,,,,,0,0,1,,,,,0,,,80,106
151296,note_on,,,,,192,0,2,,,,,1,,,66,93
151296,note_on,,,,,288,0,4,,,,,3,,,60,84
151296,note_on,,,,,192,0,3,,,,,2,,,63,90
151296,note_off,,,,,128,0,1,,,,,0,,,80,0
151296,note_on,,,,,0,0,1,,,,,0,,,81,106
151392,note_off,,,,,96,0,2,,,,,1,,,66,0
151392,note_off,,,,,96,0,3,,,,,2,,,63,0
151392,note_off,,,,,96,0,4,,,,,3,,,60,0
151424,note_on,,,,,0,0,1,,,,,0,,,78,106
151424,note_off,,,,,128,0,1,,,,,0,,,81,0
151552,note_on,,,,,0,0,1,,,,,0,,,75,106
151552,note_off,,,,,128,0,1,,,,,0,,,78,0
151680,note_on,,,,,288,0,3,,,,,2,,,57,90
151680,note_on,,,,,0,0,3,,,,,2,,,69,90
151680,note_off,,,,,128,0,1,,,,,0,,,75,0
151680,note_on,,,,,288,0,2,,,,,1,,,63,93
151680,note_on,,,,,0,0,1,,,,,0,,,81,106
151680,note_on,,,,,288,0,4,,,,,3,,,59,84
151808,note_off,,,,,128,0,1,,,,,0,,,81,0
151808,note_on,,,,,0,0,1,,,,,0,,,78,106
151808,note_off,,,,,128,0,4,,,,,3,,,59,0
151808,note_on,,,,,0,0,4,,,,,3,,,57,84
151936,note_off,,,,,128,0,4,,,,,3,,,57,0
151936,note_on,,,,,0,0,4,,,,,3,,,59,84
151936,note_off,,,,,128,0,1,,,,,0,,,78,0
151936,note_on,,,,,0,0,1,,,,,0,,,76,106
151968,note_on,,,,,0,0,2,,,,,1,,,64,93
151968,note_off,,,,,288,0,2,,,,,1,,,63,0
152064,note_on,,,,,0,0,1,,,,,0,,,75,106
152064,note_off,,,,,128,0,1,,,,,0,,,76,0
152064,note_on,,,,,0,0,4,,,,,3,,,60,84
152064,note_off,,,,,128,0,4,,,,,3,,,59,0
152064,note_on,,,,,0,0,2,,,,,1,,,66,93
152064,note_off,,,,,96,0,2,,,,,1,,,64,0
152160,note_off,,,,,96,0,4,,,,,3,,,60,0
152192,note_off,,,,,128,0,1,,,,,0,,,75,0
152192,note_on,,,,,0,0,1,,,,,0,,,78,106
152256,note_off,,,,,0,0,3,,,,,2,,,69,0
152256,note_off,,,,,576,0,3,,,,,2,,,57,0
152256,note_off,,,,,192,0,2,,,,,1,,,66,0
152320,note_on,,,,,0,0,1,,,,,0,,,80,106
152320,note_off,,,,,128,0,1,,,,,0,,,78,0
152448,note_on,,,,,288,0,4,,,,,3,,,60,84
152448,note_on,,,,,0,0,1,,,,,0,,,81,106
152448,note_on,,,,,192,0,2,,,,,1,,,66,93
152448,note_on,,,,,0,0,1,,,,,0,,,79,106
152448,note_off,,,,,128,0,1,,,,,0,,,80,0
152448,note_on,,,,,192,0,3,,,,,2,,,63,90
152544,note_off,,,,,96,0,4,,,,,3,,,60,0
152544,note_off,,,,,96,0,3,,,,,2,,,63,0
152544,note_off,,,,,96,0,2,,,,,1,,,66,0
152576,note_on,,,,,0,0,1,,,,,0,,,78,106
152576,note_off,,,,,0,0,1,,,,,0,,,79,0
152576,note_off,,,,,128,0,1,,,,,0,,,81,0
152704,note_on,,,,,0,0,1,,,,,0,,,75,106
152704,note_off,,,,,128,0,1,,,,,0,,,78,0
152832,note_on,,,,,288,0,4,,,,,3,,,59,84
152832,note_on,,,,,288,0,2,,,,,1,,,63,93
152832,note_on,,,,,288,0,3,,,,,2,,,69,90
152832,note_on,,,,,0,0,1,,,,,0,,,81,106
152832,note_off,,,,,128,0,1,,,,,0,,,75,0
152960,note_on,,,,,0,0,4,,,,,3,,,57,84
152960,note_off,,,,,128,0,4,,,,,3,,,59,0
152960,note_off,,,,,128,0,1,,,,,0,,,81,0
152960,note_on,,,,,0,0,1,,,,,0,,,78,106
153088,note_on,,,,,0,0,4,,,,,3,,,59,84
153088,note_on,,,,,0,0,1,,,,,0,,,76,106
153088,note_off,,,,,128,0,1,,,,,0,,,78,0
153088,note_off,,,,,128,0,4,,,,,3,,,57,0
153120,note_off,,,,,288,0,2,,,,,1,,,63,0
153120,note_on,,,,,0,0,2,,,,,1,,,64,93
153216,note_on,,,,,0,0,4,,,,,3,,,60,84
153216,note_off,,,,,128,0,4,,,,,3,,,59,0
153216,note_off,,,,,96,0,2,,,,,1,,,64,0
153216,note_on,,,,,0,0,2,,,,,1,,,66,93
153216,note_on,,,,,0,0,1,,,,,0,,,75,106
153216,note_off,,,,,128,0,1,,,,,0,,,76,0
153312,note_off,,,,,96,0,4,,,,,3,,,60,0
153344,note_off,,,,,128,0,1,,,,,0,,,75,0
153344,note_on,,,,,0,0,1,,,,,0,,,78,106
153408,note_off,,,,,576,0,3,,,,,2,,,69,0
153408,note_off,,,,,192,0,2,,,,,1,,,66,0
153472,note_off,,,,,128,0,1,,,,,0,,,78,0
153472,note_on,,,,,0,0,1,,,,,0,,,80,106
153600,note_on,,,,,192,0,3,,,,,2,,,63,90
153600,note_on,,,,,192,0,2,,,,,1,,,66,93
153600,note_on,,,,,0,0,1,,,,,0,,,81,106
153600,note_off,,,,,128,0,1,,,,,0,,,80,0
153600,note_on,,,,,288,0,4,,,,,3,,,60,84
153696,note_off,,,,,96,0,2,,,,,1,,,66,0
153696,note_off,,,,,96,0,3,,,,,2,,,63,0
153696,note_off,,,,,96,0,4,,,,,3,,,60,0
153728,note_on,,,,,0,0,1,,,,,0,,,78,106
153728,note_off,,,,,128,0,1,,,,,0,,,81,0
153856,note_on,,,,,0,0,1,,,,,0,,,75,106
153856,note_off,,,,,128,0,1,,,,,0,,,78,0
153984,note_off,,,,,128,0,1,,,,,0,,,75,0
153984,note_on,,,,,0,0,1,,,,,0,,,81,106
153984,note_on,,,,,288,0,3,,,,,2,,,63,90
153984,note_on,,,,,288,0,4,,,,,3,,,59,84
153984,note_on,,,,,288,0,2,,,,,1,,,66,93
154112,note_off,,,,,128,0,1,,,,,0,,,81,0
154112,note_on,,,,,0,0,1,,,,,0,,,78,106
154112,note_on,,,,,0,0,4,,,,,3,,,57,84
154112,note_off,,,,,128,0,4,,,,,3,,,59,0
154240,note_on,,,,,0,0,1,,,,,0,,,75,106
154240,note_on,,,,,0,0,4,,,,,3,,,59,84
154240,note_off,,,,,128,0,1,,,,,0,,,78,0
154240,note_off,,,,,128,0,4,,,,,3,,,57,0
154272,note_on,,,,,0,0,3,,,,,2,,,66,90
154272,note_off,,,,,288,0,3,,,,,2,,,63,0
154272,note_off,,,,,288,0,2,,,,,1,,,66,0
154272,note_on,,,,,0,0,2,,,,,1,,,69,93
154368,note_off,,,,,128,0,4,,,,,3,,,59,0
154368,note_on,,,,,0,0,4,,,,,3,,,60,84
154368,note_off,,,,,96,0,2,,,,,1,,,69,0
154368,note_on,,,,,0,0,2,,,,,1,,,67,93
154368,note_on,,,,,0,0,3,,,,,2,,,64,90
154368,note_off,,,,,96,0,3,,,,,2,,,66,0
154368,note_on,,,,,0,0,1,,,,,0,,,76,106
154368,note_off,,,,,128,0,1,,,,,0,,,75,0
154464,note_off,,,,,96,0,4,,,,,3,,,60,0
154496,note_on,,,,,0,0,1,,,,,0,,,79,106
154496,note_off,,,,,128,0,1,,,,,0,,,76,0
154560,note_off,,,,,192,0,3,,,,,2,,,64,0
154560,note_off,,,,,192,0,2,,,,,1,,,67,0
154624,note_on,,,,,0,0,1,,,,,0,,,83,106
154624,note_off,,,,,128,0,1,,,,,0,,,79,0
154752,note_on,,,,,192,0,3,,,,,2,,,64,90
154752,note_on,,,,,192,0,2,,,,,1,,,67,93
154752,note_on,,,,,0,0,1,,,,,0,,,84,106
154752,note_on,,,,,288,0,4,,,,,3,,,60,84
154752,note_off,,,,,128,0,1,,,,,0,,,83,0
154848,note_off,,,,,96,0,2,,,,,1,,,67,0
154848,note_off,,,,,96,0,4,,,,,3,,,60,0
154848,note_off,,,,,96,0,3,,,,,2,,,64,0
154880,note_off,,,,,128,0,1,,,,,0,,,84,0
154880,note_on,,,,,0,0,1,,,,,0,,,79,106
155008,note_on,,,,,0,0,1,,,,,0,,,76,106
155008,note_off,,,,,128,0,1,,,,,0,,,79,0
155136,note_on,,,,,288,0,3,,,,,2,,,60,90
155136,note_on,,,,,288,0,2,,,,,1,,,64,93
155136,note_on,,,,,0,0,1,,,,,0,,,84,106
155136,note_off,,,,,128,0,1,,,,,0,,,76,0
155136,note_on,,,,,288,0,4,,,,,3,,,48,84
155264,note_off,,,,,128,0,4,,,,,3,,,48,0
155264,note_off,,,,,128,0,1,,,,,0,,,84,0
155264,note_on,,,,,0,0,4,,,,,3,,,47,84
155264,note_on,,,,,0,0,1,,,,,0,,,79,106
155392,note_on,,,,,0,0,1,,,,,0,,,76,106
155392,note_off,,,,,128,0,4,,,,,3,,,47,0
155392,note_on,,,,,0,0,4,,,,,3,,,48,84
155392,note_on,,,,,0,0,1,,,,,0,,,77,106
155392,note_off,,,,,128,0,1,,,,,0,,,79,0
155424,note_off,,,,,288,0,2,,,,,1,,,64,0
155424,note_on,,,,,0,0,3,,,,,2,,,64,90
155424,note_off,,,,,288,0,3,,,,,2,,,60,0
155424,note_on,,,,,0,0,2,,,,,1,,,67,93
155520,note_off,,,,,128,0,4,,,,,3,,,48,0
155520,note_off,,,,,0,0,1,,,,,0,,,77,0
155520,note_on,,,,,0,0,4,,,,,3,,,53,84
155520,note_off,,,,,128,0,1,,,,,0,,,76,0
155520,note_on,,,,,0,0,1,,,,,0,,,74,106
155520,note_on,,,,,0,0,3,,,,,2,,,65,90
155520,note_on,,,,,0,0,2,,,,,1,,,69,93
155520,note_off,,,,,96,0,2,,,,,1,,,67,0
155520,note_off,,,,,96,0,3,,,,,2,,,64,0
155648,note_on,,,,,0,0,1,,,,,0,,,77,106
155648,note_off,,,,,128,0,1,,,,,0,,,74,0
155712,note_off,,,,,192,0,4,,,,,3,,,53,0
155712,note_off,,,,,192,0,2,,,,,1,,,69,0
155712,note_off,,,,,192,0,3,,,,,2,,,65,0
155776,note_off,,,,,128,0,1,,,,,0,,,77,0
155776,note_on,,,,,0,0,1,,,,,0,,,79,106
155904,note_on,,,,,192,0,3,,,,,2,,,57,90
155904,note_on,,,,,0,0,1,,,,,0,,,81,106
155904,note_off,,,,,128,0,1,,,,,0,,,79,0
155904,note_on,,,,,192,0,4,,,,,3,,,41,84
155904,note_on,,,,,192,0,2,,,,,1,,,62,93
156032,note_on,,,,,0,0,1,,,,,0,,,77,106
156032,note_off,,,,,128,0,1,,,,,0,,,81,0
156096,note_off,,,,,192,0,4,,,,,3,,,41,0
156096,note_off,,,,,192,0,2,,,,,1,,,62,0
156096,note_off,,,,,192,0,3,,,,,2,,,57,0
156160,note_on,,,,,0,0,1,,,,,0,,,74,106
156160,note_off,,,,,128,0,1,,,,,0,,,77,0
156288,note_on,,,,,0,0,1,,,,,0,,,77,106
156288,note_off,,,,,128,0,1,,,,,0,,,74,0
156288,note_on,,,,,192,0,4,,,,,3,,,43,84
156288,note_on,,,,,0,0,2,,,,,1,,,55,93
156288,note_on,,,,,192,0,2,,,,,1,,,65,93
156288,note_on,,,,,192,0,3,,,,,2,,,62,90
156416,note_off,,,,,128,0,1,,,,,0,,,77,0
156416,note_on,,,,,0,0,1,,,,,0,,,74,106
156480,note_off,,,,,192,0,4,,,,,3,,,43,0
156480,note_off,,,,,0,0,2,,,,,1,,,55,0
156480,note_off,,,,,192,0,2,,,,,1,,,65,0
156480,note_off,,,,,192,0,3,,,,,2,,,62,0
156544,note_on,,,,,0,0,1,,,,,0,,,71,106
156544,note_off,,,,,128,0,1,,,,,0,,,74,0
156672,note_on,,,,,0,0,2,,,,,1,,,55,93
156672,note_on,,,,,192,0,2,,,,,1,,,64,93
156672,note_on,,,,,192,0,3,,,,,2,,,52,90
156672,note_off,,,,,128,0,1,,,,,0,,,71,0
156672,note_on,,,,,0,0,1,,,,,0,,,72,106
156672,note_on,,,,,192,0,4,,,,,3,,,48,84
156800,note_on,,,,,0,0,4,,,,,3,,,50,84
156800,note_off,,,,,128,0,4,,,,,3,,,48,0
156800,note_on,,,,,0,0,3,,,,,2,,,53,90
156800,note_off,,,,,128,0,3,,,,,2,,,52,0
156800,note_off,,,,,128,0,2,,,,,1,,,64,0
156800,note_off,,,,,0,0,2,,,,,1,,,55,0
156800,note_on,,,,,0,0,2,,,,,1,,,67,93
156800,note_on,,,,,0,0,2,,,,,1,,,55,93
156928,note_off,,,,,128,0,4,,,,,3,,,50,0
156928,note_on,,,,,0,0,4,,,,,3,,,52,84
156928,note_on,,,,,0,0,2,,,,,1,,,55,93
156928,note_on,,,,,0,0,2,,,,,1,,,67,93
156928,note_off,,,,,0,0,2,,,,,1,,,55,0
156928,note_off,,,,,128,0,2,,,,,1,,,67,0
156928,note_on,,,,,0,0,3,,,,,2,,,55,90
156928,note_off,,,,,128,0,3,,,,,2,,,53,0
157056,note_off,,,,,384,0,1,,,,,0,,,72,0
157056,note_on,,,,,0,0,2,,,,,1,,,67,93
157056,note_on,,,,,0,0,2,,,,,1,,,55,93
157056,note_off,,,,,128,0,2,,,,,1,,,67,0
157056,note_off,,,,,128,0,4,,,,,3,,,52,0
157056,note_off,,,,,128,0,3,,,,,2,,,55,0
157056,note_on,,,,,0,0,3,,,,,2,,,55,90
157056,note_on,,,,,0,0,4,,,,,3,,,52,84
157056,note_off,,,,,0,0,2,,,,,1,,,55,0
157056,note_on,,,,,0,0,1,,,,,0,,,84,106
157184,note_on,,,,,0,0,4,,,,,3,,,53,84
157184,note_on,,,,,0,0,3,,,,,2,,,57,90
157184,note_off,,,,,128,0,3,,,,,2,,,55,0
157184,note_off,,,,,128,0,4,,,,,3,,,52,0
157184,note_off,,,,,128,0,2,,,,,1,,,67,0
157184,note_off,,,,,0,0,2,,,,,1,,,55,0
157184,note_on,,,,,0,0,2,,,,,1,,,55,93
157184,note_on,,,,,0,0,2,,,,,1,,,67,93
157312,note_off,,,,,128,0,4,,,,,3,,,53,0
157312,note_on,,,,,0,0,2,,,,,1,,,67,93
157312,note_on,,,,,0,0,2,,,,,1,,,55,93
157312,note_off,,,,,128,0,2,,,,,1,,,55,0
157312,note_on,,,,,0,0,4,,,,,3,,,52,84
157312,note_off,,,,,128,0,3,,,,,2,,,57,0
157312,note_on,,,,,0,0,3,,,,,2,,,55,90
157312,note_off,,,,,0,0,2,,,,,1,,,67,0
157440,note_on,,,,,0,0,1,,,,,0,,,83,106
157440,note_off,,,,,128,0,2,,,,,1,,,55,0
157440,note_off,,,,,0,0,2,,,,,1,,,67,0
157440,note_on,,,,,0,0,2,,,,,1,,,55,93
157440,note_on,,,,,0,0,2,,,,,1,,,67,93
157440,note_off,,,,,384,0,1,,,,,0,,,84,0
157440,note_on,,,,,0,0,3,,,,,2,,,53,90
157440,note_off,,,,,128,0,3,,,,,2,,,55,0
157440,note_off,,,,,128,0,4,,,,,3,,,52,0
157440,note_on,,,,,0,0,4,,,,,3,,,50,84
157568,note_off,,,,,128,0,3,,,,,2,,,53,0
157568,note_off,,,,,128,0,1,,,,,0,,,83,0
157568,note_on,,,,,0,0,1,,,,,0,,,79,106
157568,note_on,,,,,0,0,3,,,,,2,,,55,90
157568,note_on,,,,,0,0,2,,,,,1,,,67,93
157568,note_on,,,,,0,0,2,,,,,1,,,55,93
157568,note_off,,,,,128,0,4,,,,,3,,,50,0
157568,note_off,,,,,128,0,2,,,,,1,,,55,0
157568,note_off,,,,,0,0,2,,,,,1,,,67,0
157568,note_on,,,,,0,0,4,,,,,3,,,52,84
157696,note_on,,,,,0,0,1,,,,,0,,,83,106
157696,note_off,,,,,128,0,4,,,,,3,,,52,0
157696,note_on,,,,,0,0,4,,,,,3,,,50,84
157696,note_off,,,,,128,0,1,,,,,0,,,79,0
157696,note_off,,,,,128,0,3,,,,,2,,,55,0
157696,note_on,,,,,0,0,2,,,,,1,,,67,93
157696,note_on,,,,,0,0,2,,,,,1,,,55,93
157696,note_off,,,,,128,0,2,,,,,1,,,55,0
157696,note_on,,,,,0,0,3,,,,,2,,,53,90
157696,note_off,,,,,0,0,2,,,,,1,,,67,0
157824,note_off,,,,,128,0,4,,,,,3,,,50,0
157824,note_off,,,,,128,0,3,,,,,2,,,53,0
157824,note_on,,,,,0,0,4,,,,,3,,,48,84
157824,note_on,,,,,0,0,1,,,,,0,,,84,106
157824,note_off,,,,,128,0,1,,,,,0,,,83,0
157824,note_on,,,,,0,0,3,,,,,2,,,52,90
157824,note_off,,,,,0,0,2,,,,,1,,,67,0
157824,note_on,,,,,0,0,2,,,,,1,,,55,93
157824,note_on,,,,,0,0,2,,,,,1,,,67,93
157824,note_off,,,,,128,0,2,,,,,1,,,55,0
157952,note_off,,,,,128,0,2,,,,,1,,,55,0
157952,note_off,,,,,0,0,2,,,,,1,,,67,0
157952,note_on,,,,,0,0,2,,,,,1,,,55,93
157952,note_on,,,,,0,0,2,,,,,1,,,67,93
157952,note_off,,,,,128,0,3,,,,,2,,,52,0
157952,note_on,,,,,0,0,3,,,,,2,,,53,90
157952,note_on,,,,,0,0,4,,,,,3,,,50,84
157952,note_off,,,,,128,0,4,,,,,3,,,48,0
158080,note_off,,,,,0,0,2,,,,,1,,,67,0
158080,note_on,,,,,0,0,4,,,,,3,,,52,84
158080,note_off,,,,,128,0,4,,,,,3,,,50,0
158080,note_on,,,,,0,0,3,,,,,2,,,55,90
158080,note_on,,,,,0,0,2,,,,,1,,,67,93
158080,note_off,,,,,128,0,2,,,,,1,,,55,0
158080,note_off,,,,,128,0,3,,,,,2,,,53,0
158080,note_on,,,,,0,0,2,,,,,1,,,55,93
158208,note_off,,,,,128,0,3,,,,,2,,,55,0
158208,note_on,,,,,0,0,3,,,,,2,,,55,90
158208,note_off,,,,,128,0,4,,,,,3,,,52,0
158208,note_on,,,,,0,0,4,,,,,3,,,52,84
158208,note_on,,,,,0,0,1,,,,,0,,,84,106
158208,note_off,,,,,0,0,2,,,,,1,,,67,0
158208,note_off,,,,,128,0,2,,,,,1,,,55,0
158208,note_off,,,,,384,0,1,,,,,0,,,84,0
158208,note_on,,,,,0,0,2,,,,,1,,,55,93
158208,note_on,,,,,0,0,2,,,,,1,,,67,93
158336,note_off,,,,,128,0,3,,,,,2,,,55,0
158336,note_on,,,,,0,0,2,,,,,1,,,55,93
158336,note_off,,,,,0,0,2,,,,,1,,,67,0
158336,note_on,,,,,0,0,2,,,,,1,,,67,93
158336,note_on,,,,,0,0,3,,,,,2,,,57,90
158336,note_off,,,,,128,0,4,,,,,3,,,52,0
158336,note_on,,,,,0,0,4,,,,,3,,,53,84
158336,note_off,,,,,128,0,2,,,,,1,,,55,0
158464,note_off,,,,,128,0,2,,,,,1,,,67,0
158464,note_off,,,,,0,0,2,,,,,1,,,55,0
158464,note_on,,,,,0,0,2,,,,,1,,,55,93
158464,note_on,,,,,0,0,2,,,,,1,,,67,93
158464,note_on,,,,,0,0,3,,,,,2,,,55,90
158464,note_off,,,,,128,0,3,,,,,2,,,57,0
158464,note_off,,,,,128,0,4,,,,,3,,,53,0
158464,note_on,,,,,0,0,4,,,,,3,,,52,84
158592,note_off,,,,,128,0,3,,,,,2,,,55,0
158592,note_on,,,,,0,0,2,,,,,1,,,67,93
158592,note_on,,,,,0,0,2,,,,,1,,,55,93
158592,note_off,,,,,0,0,2,,,,,1,,,67,0
158592,note_off,,,,,128,0,2,,,,,1,,,55,0
158592,note_off,,,,,384,0,1,,,,,0,,,84,0
158592,note_on,,,,,0,0,4,,,,,3,,,50,84
158592,note_off,,,,,128,0,4,,,,,3,,,52,0
158592,note_on,,,,,0,0,1,,,,,0,,,83,106
158592,note_on,,,,,0,0,3,,,,,2,,,53,90
158720,note_on,,,,,0,0,1,,,,,0,,,79,106
158720,note_off,,,,,0,0,2,,,,,1,,,67,0
158720,note_off,,,,,128,0,2,,,,,1,,,55,0
158720,note_off,,,,,128,0,3,,,,,2,,,53,0
158720,note_on,,,,,0,0,3,,,,,2,,,55,90
158720,note_on,,,,,0,0,2,,,,,1,,,67,93
158720,note_off,,,,,128,0,1,,,,,0,,,83,0
158720,note_on,,,,,0,0,2,,,,,1,,,55,93
158720,note_on,,,,,0,0,4,,,,,3,,,52,84
158720,note_off,,,,,128,0,4,,,,,3,,,50,0
158848,note_on,,,,,0,0,2,,,,,1,,,55,93
158848,note_on,,,,,0,0,2,,,,,1,,,67,93
158848,note_off,,,,,128,0,1,,,,,0,,,79,0
158848,note_on,,,,,0,0,1,,,,,0,,,83,106
158848,note_off,,,,,0,0,2,,,,,1,,,55,0
158848,note_off,,,,,128,0,2,,,,,1,,,67,0
158848,note_on,,,,,0,0,4,,,,,3,,,50,84
158848,note_off,,,,,128,0,4,,,,,3,,,52,0
158848,note_on,,,,,0,0,3,,,,,2,,,53,90
158848,note_off,,,,,128,0,3,,,,,2,,,55,0
158976,note_off,,,,,128,0,2,,,,,1,,,55,0
158976,note_off,,,,,0,0,2,,,,,1,,,67,0
158976,note_off,,,,,128,0,3,,,,,2,,,53,0
158976,note_off,,,,,128,0,1,,,,,0,,,83,0
158976,note_on,,,,,0,0,2,,,,,1,,,55,93
158976,note_on,,,,,0,0,1,,,,,0,,,84,106
158976,note_on,,,,,0,0,4,,,,,3,,,48,84
158976,note_off,,,,,128,0,4,,,,,3,,,50,0
158976,note_on,,,,,0,0,3,,,,,2,,,52,90
158976,note_on,,,,,0,0,2,,,,,1,,,67,93
159104,note_off,,,,,128,0,1,,,,,0,,,84,0
159104,note_off,,,,,0,0,2,,,,,1,,,67,0
159104,note_off,,,,,128,0,2,,,,,1,,,55,0
159104,note_on,,,,,0,0,1,,,,,0,,,84,106
159104,note_on,,,,,0,0,3,,,,,2,,,53,90
159104,note_off,,,,,128,0,3,,,,,2,,,52,0
159104,note_off,,,,,128,0,4,,,,,3,,,48,0
159104,note_on,,,,,0,0,4,,,,,3,,,50,84
159104,note_on,,,,,0,0,2,,,,,1,,,55,93
159104,note_on,,,,,0,0,2,,,,,1,,,67,93
159232,note_on,,,,,0,0,4,,,,,3,,,52,84
159232,note_off,,,,,128,0,4,,,,,3,,,50,0
159232,note_on,,,,,0,0,2,,,,,1,,,55,93
159232,note_off,,,,,0,0,2,,,,,1,,,55,0
159232,note_off,,,,,128,0,2,,,,,1,,,67,0
159232,note_off,,,,,128,0,1,,,,,0,,,84,0
159232,note_on,,,,,0,0,1,,,,,0,,,84,106
159232,note_off,,,,,128,0,3,,,,,2,,,53,0
159232,note_on,,,,,0,0,3,,,,,2,,,55,90
159232,note_on,,,,,0,0,2,,,,,1,,,67,93
159360,note_on,,,,,0,0,4,,,,,3,,,52,84
159360,note_off,,,,,128,0,4,,,,,3,,,52,0
159360,note_off,,,,,128,0,3,,,,,2,,,55,0
159360,note_on,,,,,0,0,3,,,,,2,,,55,90
159360,note_on,,,,,0,0,1,,,,,0,,,84,106
159360,note_off,,,,,128,0,1,,,,,0,,,84,0
159360,note_on,,,,,0,0,2,,,,,1,,,55,93
159360,note_on,,,,,0,0,2,,,,,1,,,67,93
159360,note_off,,,,,0,0,2,,,,,1,,,67,0
159360,note_off,,,,,128,0,2,,,,,1,,,55,0
159488,note_on,,,,,0,0,3,,,,,2,,,57,90
159488,note_on,,,,,0,0,1,,,,,0,,,84,106
159488,note_off,,,,,128,0,1,,,,,0,,,84,0
159488,note_on,,,,,0,0,2,,,,,1,,,55,93
159488,note_on,,,,,0,0,2,,,,,1,,,67,93
159488,note_off,,,,,0,0,2,,,,,1,,,55,0
159488,note_off,,,,,128,0,2,,,,,1,,,67,0
159488,note_off,,,,,128,0,4,,,,,3,,,52,0
159488,note_off,,,,,128,0,3,,,,,2,,,55,0
159488,note_on,,,,,0,0,4,,,,,3,,,53,84
159616,note_off,,,,,0,0,2,,,,,1,,,55,0
159616,note_off,,,,,128,0,1,,,,,0,,,84,0
159616,note_on,,,,,0,0,2,,,,,1,,,67,93
159616,note_on,,,,,0,0,2,,,,,1,,,55,93
159616,note_on,,,,,0,0,4,,,,,3,,,52,84
159616,note_on,,,,,0,0,3,,,,,2,,,55,90
159616,note_off,,,,,128,0,3,,,,,2,,,57,0
159616,note_off,,,,,128,0,2,,,,,1,,,67,0
159616,note_on,,,,,0,0,1,,,,,0,,,84,106
159616,note_off,,,,,128,0,4,,,,,3,,,53,0
159744,note_off,,,,,128,0,2,,,,,1,,,67,0
159744,note_off,,,,,128,0,1,,,,,0,,,84,0
159744,note_on,,,,,0,0,1,,,,,0,,,83,106
159744,note_off,,,,,128,0,4,,,,,3,,,52,0
159744,note_off,,,,,128,0,3,,,,,2,,,55,0
159744,note_off,,,,,0,0,2,,,,,1,,,55,0
159744,note_on,,,,,0,0,2,,,,,1,,,55,93
159744,note_on,,,,,0,0,2,,,,,1,,,67,93
159744,note_on,,,,,0,0,4,,,,,3,,,50,84
159744,note_on,,,,,0,0,3,,,,,2,,,53,90
159872,note_on,,,,,0,0,3,,,,,2,,,55,90
159872,note_off,,,,,128,0,3,,,,,2,,,53,0
159872,note_off,,,,,0,0,2,,,,,1,,,55,0
159872,note_on,,,,,0,0,4,,,,,3,,,52,84
159872,note_on,,,,,0,0,2,,,,,1,,,55,93
159872,note_on,,,,,0,0,2,,,,,1,,,67,93
159872,note_on,,,,,0,0,1,,,,,0,,,79,106
159872,note_off,,,,,128,0,1,,,,,0,,,83,0
159872,note_off,,,,,128,0,4,,,,,3,,,50,0
159872,note_off,,,,,128,0,2,,,,,1,,,67,0
160000,note_on,,,,,0,0,4,,,,,3,,,50,84
160000,note_off,,,,,0,0,2,,,,,1,,,67,0
160000,note_off,,,,,128,0,2,,,,,1,,,55,0
160000,note_off,,,,,128,0,4,,,,,3,,,52,0
160000,note_on,,,,,0,0,2,,,,,1,,,67,93
160000,note_off,,,,,128,0,1,,,,,0,,,79,0
160000,note_on,,,,,0,0,1,,,,,0,,,83,106
160000,note_off,,,,,128,0,3,,,,,2,,,55,0
160000,note_on,,,,,0,0,3,,,,,2,,,53,90
160000,note_on,,,,,0,0,2,,,,,1,,,55,93
160128,note_off,,,,,128,0,4,,,,,3,,,50,0
160128,note_off,,,,,128,0,2,,,,,1,,,67,0
160128,note_off,,,,,0,0,2,,,,,1,,,55,0
160128,note_on,,,,,0,0,2,,,,,1,,,55,93
160128,note_on,,,,,0,0,2,,,,,1,,,67,93
160128,note_on,,,,,0,0,3,,,,,2,,,52,90
160128,note_off,,,,,128,0,3,,,,,2,,,53,0
160128,note_on,,,,,0,0,1,,,,,0,,,84,106
160128,note_off,,,,,128,0,1,,,,,0,,,83,0
160128,note_on,,,,,0,0,4,,,,,3,,,48,84
160320,note_off,,,,,192,0,3,,,,,2,,,52,0
160320,note_off,,,,,0,0,2,,,,,1,,,67,0
160320,note_off,,,,,192,0,4,,,,,3,,,48,0
160320,note_off,,,,,192,0,1,,,,,0,,,84,0
160320,note_off,,,,,192,0,2,,,,,1,,,55,0
160512,note_on,,,,,192,0,3,,,,,2,,,48,90
160512,note_on,,,,,0,0,3,,,,,2,,,60,90
160512,note_on,,,,,0,0,2,,,,,1,,,64,93
160512,note_on,,,,,0,0,1,,,,,0,,,76,106
160512,note_on,,,,,192,0,1,,,,,0,,,60,106
160512,note_on,,,,,192,0,2,,,,,1,,,55,93
160512,note_on,,,,,192,0,4,,,,,3,,,36,84
160512,note_on,,,,,0,0,1,,,,,0,,,84,106
160512,note_on,,,,,0,0,1,,,,,0,,,67,106
160704,note_off,,,,,192,0,1,,,,,0,,,60,0
160704,note_off,,,,,0,0,1,,,,,0,,,67,0
160704,note_off,,,,,0,0,1,,,,,0,,,76,0
160704,note_off,,,,,192,0,4,,,,,3,,,36,0
160704,note_off,,,,,0,0,3,,,,,2,,,60,0
160704,note_off,,,,,0,0,2,,,,,1,,,64,0
160704,note_off,,,,,192,0,2,,,,,1,,,55,0
160704,note_off,,,,,192,0,3,,,,,2,,,48,0
160704,note_off,,,,,0,0,1,,,,,0,,,84,0
160896,note_on,,,,,192,0,3,,,,,2,,,60,90
160896,note_on,,,,,192,0,2,,,,,1,,,64,93
161024,note_off,,,,,128,0,3,,,,,2,,,60,0
161024,note_on,,,,,0,0,3,,,,,2,,,59,90
161024,note_on,,,,,0,0,2,,,,,1,,,63,93
161024,note_off,,,,,128,0,2,,,,,1,,,64,0
161152,note_on,,,,,0,0,3,,,,,2,,,60,90
161152,note_on,,,,,0,0,2,,,,,1,,,64,93
161152,note_off,,,,,128,0,2,,,,,1,,,63,0
161152,note_off,,,,,128,0,3,,,,,2,,,59,0
161280,note_off,,,,,128,0,3,,,,,2,,,60,0
161280,note_on,,,,,0,0,3,,,,,2,,,64,90
161280,note_off,,,,,128,0,2,,,,,1,,,64,0
161280,note_on,,,,,0,0,2,,,,,1,,,67,93
161664,note_on,,,,,960,0,1,,,,,0,,,79,106
161728,note_off,,,,,64,0,1,,,,,0,,,79,0
161792,note_on,,,,,64,0,1,,,,,0,,,78,106
161856,note_off,,,,,64,0,1,,,,,0,,,78,0
161920,note_on,,,,,64,0,1,,,,,0,,,76,106
161984,note_off,,,,,64,0,1,,,,,0,,,76,0
162048,note_on,,,,,64,0,1,,,,,0,,,75,106
162048,note_on,,,,,0,0,2,,,,,1,,,64,93
162048,note_on,,,,,1344,0,4,,,,,3,,,48,84
162048,note_off,,,,,768,0,2,,,,,1,,,67,0
162112,note_off,,,,,64,0,1,,,,,0,,,75,0
162176,note_on,,,,,64,0,1,,,,,0,,,76,106
162240,note_off,,,,,64,0,1,,,,,0,,,76,0
162304,note_on,,,,,64,0,1,,,,,0,,,70,106
162368,note_off,,,,,64,0,1,,,,,0,,,70,0
162432,note_off,,,,,384,0,4,,,,,3,,,48,0
162432,note_on,,,,,0,0,4,,,,,3,,,47,84
162432,note_on,,,,,0,0,2,,,,,1,,,66,93
162432,note_off,,,,,384,0,2,,,,,1,,,64,0
162432,note_on,,,,,64,0,1,,,,,0,,,71,106
162432,note_on,,,,,0,0,3,,,,,2,,,63,90
162432,note_off,,,,,1152,0,3,,,,,2,,,64,0
162496,note_off,,,,,64,0,1,,,,,0,,,71,0
162560,note_on,,,,,64,0,1,,,,,0,,,73,106
162624,note_off,,,,,64,0,1,,,,,0,,,73,0
162688,note_on,,,,,64,0,1,,,,,0,,,71,106
162752,note_off,,,,,64,0,1,,,,,0,,,71,0
162816,note_on,,,,,64,0,1,,,,,0,,,69,106
162816,note_off,,,,,384,0,2,,,,,1,,,66,0
162816,note_off,,,,,384,0,3,,,,,2,,,63,0
162816,note_off,,,,,384,0,4,,,,,3,,,47,0
162880,note_off,,,,,64,0,1,,,,,0,,,69,0
162944,note_on,,,,,64,0,1,,,,,0,,,68,106
163008,note_off,,,,,64,0,1,,,,,0,,,68,0
163072,note_on,,,,,64,0,1,,,,,0,,,66,106
163136,note_off,,,,,64,0,1,,,,,0,,,66,0
163200,note_on,,,,,64,0,1,,,,,0,,,64,106
163200,note_on,,,,,384,0,3,,,,,2,,,52,90
163200,note_on,,,,,384,0,4,,,,,3,,,40,84
163200,note_on,,,,,384,0,2,,,,,1,,,64,93
163328,note_off,,,,,128,0,2,,,,,1,,,64,0
163328,note_off,,,,,128,0,3,,,,,2,,,52,0
163328,note_on,,,,,0,0,3,,,,,2,,,56,90
163328,note_off,,,,,128,0,4,,,,,3,,,40,0
163328,note_on,,,,,0,0,2,,,,,1,,,68,93
163328,note_on,,,,,0,0,4,,,,,3,,,44,84
163328,note_off,,,,,128,0,1,,,,,0,,,64,0
163328,note_on,,,,,0,0,1,,,,,0,,,68,106
163456,note_on,,,,,0,0,4,,,,,3,,,47,84
163456,note_off,,,,,128,0,2,,,,,1,,,68,0
163456,note_on,,,,,0,0,2,,,,,1,,,71,93
163456,note_off,,,,,128,0,1,,,,,0,,,68,0
163456,note_off,,,,,128,0,4,,,,,3,,,44,0
163456,note_on,,,,,0,0,1,,,,,0,,,71,106
163456,note_off,,,,,128,0,3,,,,,2,,,56,0
163456,note_on,,,,,0,0,3,,,,,2,,,59,90
163584,note_off,,,,,128,0,4,,,,,3,,,47,0
163584,note_on,,,,,0,0,1,,,,,0,,,76,106
163584,note_off,,,,,128,0,1,,,,,0,,,71,0
163584,note_on,,,,,0,0,3,,,,,2,,,64,90
163584,note_on,,,,,0,0,2,,,,,1,,,76,93
163584,note_off,,,,,128,0,2,,,,,1,,,71,0
163584,note_on,,,,,0,0,4,,,,,3,,,52,84
163584,note_off,,,,,128,0,3,,,,,2,,,59,0
163776,note_off,,,,,192,0,3,,,,,2,,,64,0
163776,note_off,,,,,192,0,4,,,,,3,,,52,0
163776,note_off,,,,,192,0,1,,,,,0,,,76,0
163776,note_off,,,,,192,0,2,,,,,1,,,76,0
163968,note_on,,,,,192,0,1,,,,,0,,,85,106
163968,note_on,,,,,192,0,3,,,,,2,,,75,90
163968,note_on,,,,,192,0,2,,,,,1,,,81,93
164064,note_off,,,,,96,0,1,,,,,0,,,85,0
164064,note_off,,,,,96,0,2,,,,,1,,,81,0
164064,note_off,,,,,96,0,3,,,,,2,,,75,0
164160,note_on,,,,,96,0,1,,,,,0,,,83,106
164160,note_on,,,,,96,0,2,,,,,1,,,80,93
164160,note_on,,,,,96,0,3,,,,,2,,,76,90
164256,note_off,,,,,96,0,3,,,,,2,,,76,0
164256,note_off,,,,,96,0,1,,,,,0,,,83,0
164256,note_off,,,,,96,0,2,,,,,1,,,80,0
164352,note_on,,,,,96,0,1,,,,,0,,,85,106
164352,note_on,,,,,96,0,2,,,,,1,,,81,93
164352,note_on,,,,,96,0,3,,,,,2,,,75,90
164448,note_off,,,,,96,0,3,,,,,2,,,75,0
164448,note_off,,,,,96,0,2,,,,,1,,,81,0
164448,note_off,,,,,96,0,1,,,,,0,,,85,0
164544,note_on,,,,,96,0,3,,,,,2,,,76,90
164544,note_on,,,,,96,0,1,,,,,0,,,83,106
164544,note_on,,,,,96,0,2,,,,,1,,,80,93
164640,note_off,,,,,96,0,3,,,,,2,,,76,0
164640,note_off,,,,,96,0,1,,,,,0,,,83,0
164640,note_off,,,,,96,0,2,,,,,1,,,80,0
164736,note_on,,,,,96,0,3,,,,,2,,,64,90
164736,note_on,,,,,96,0,2,,,,,1,,,68,93
164736,note_on,,,,,96,0,1,,,,,0,,,88,106
165120,note_on,,,,,0,0,1,,,,,0,,,83,106
165120,note_off,,,,,384,0,1,,,,,0,,,88,0
165120,note_off,,,,,384,0,2,,,,,1,,,68,0
165120,note_on,,,,,0,0,2,,,,,1,,,71,93
165120,note_on,,,,,0,0,3,,,,,2,,,68,90
165120,note_off,,,,,384,0,3,,,,,2,,,64,0
165504,note_on,,,,,1728,0,4,,,,,3,,,44,84
165504,note_on,,,,,0,0,3,,,,,2,,,59,90
165504,note_off,,,,,384,0,3,,,,,2,,,68,0
165504,note_off,,,,,384,0,2,,,,,1,,,71,0
165504,note_on,,,,,0,0,2,,,,,1,,,64,93
165504,note_off,,,,,384,0,1,,,,,0,,,83,0
165600,note_off,,,,,96,0,2,,,,,1,,,64,0
165600,note_off,,,,,96,0,4,,,,,3,,,44,0
165600,note_off,,,,,96,0,3,,,,,2,,,59,0
165696,note_on,,,,,96,0,4,,,,,3,,,45,84
165696,note_on,,,,,96,0,2,,,,,1,,,66,93
165696,note_on,,,,,96,0,3,,,,,2,,,61,90
165792,note_off,,,,,96,0,2,,,,,1,,,66,0
165792,note_off,,,,,96,0,4,,,,,3,,,45,0
165792,note_off,,,,,96,0,3,,,,,2,,,61,0
165888,note_on,,,,,96,0,2,,,,,1,,,68,93
165888,note_on,,,,,96,0,4,,,,,3,,,47,84
165888,note_on,,,,,96,0,3,,,,,2,,,63,90
165984,note_off,,,,,96,0,4,,,,,3,,,47,0
165984,note_off,,,,,96,0,2,,,,,1,,,68,0
165984,note_off,,,,,96,0,3,,,,,2,,,63,0
166080,note_on,,,,,96,0,2,,,,,1,,,69,93
166080,note_on,,,,,96,0,3,,,,,2,,,64,90
166080,note_on,,,,,96,0,4,,,,,3,,,49,84
166176,note_off,,,,,96,0,2,,,,,1,,,69,0
166176,note_off,,,,,96,0,4,,,,,3,,,49,0
166176,note_off,,,,,96,0,3,,,,,2,,,64,0
166272,note_on,,,,,96,0,2,,,,,1,,,71,93
166272,note_on,,,,,96,0,3,,,,,2,,,66,90
166272,note_on,,,,,96,0,4,,,,,3,,,51,84
166368,note_off,,,,,96,0,3,,,,,2,,,66,0
166368,note_off,,,,,96,0,4,,,,,3,,,51,0
166368,note_off,,,,,96,0,2,,,,,1,,,71,0
166464,note_on,,,,,96,0,2,,,,,1,,,73,93
166464,note_on,,,,,960,0,1,,,,,0,,,80,106
166464,note_on,,,,,96,0,3,,,,,2,,,68,90
166464,note_on,,,,,96,0,4,,,,,3,,,52,84
166560,note_off,,,,,96,0,3,,,,,2,,,68,0
166560,note_off,,,,,96,0,2,,,,,1,,,73,0
166560,note_off,,,,,96,0,4,,,,,3,,,52,0
166560,note_off,,,,,96,0,1,,,,,0,,,80,0
166656,note_on,,,,,96,0,1,,,,,0,,,78,106
166656,note_on,,,,,96,0,4,,,,,3,,,54,84
166656,note_on,,,,,96,0,2,,,,,1,,,75,93
166656,note_on,,,,,96,0,3,,,,,2,,,69,90
166752,note_off,,,,,96,0,4,,,,,3,,,54,0
166752,note_off,,,,,96,0,2,,,,,1,,,75,0
166752,note_off,,,,,96,0,3,,,,,2,,,69,0
166752,note_off,,,,,96,0,1,,,,,0,,,78,0
166848,note_on,,,,,96,0,4,,,,,3,,,56,84
166848,note_on,,,,,96,0,3,,,,,2,,,66,90
166848,note_on,,,,,96,0,1,,,,,0,,,75,106
166848,note_on,,,,,96,0,2,,,,,1,,,72,93
166944,note_off,,,,,96,0,3,,,,,2,,,66,0
166944,note_off,,,,,96,0,1,,,,,0,,,75,0
166944,note_off,,,,,96,0,2,,,,,1,,,72,0
166944,note_off,,,,,96,0,4,,,,,3,,,56,0
167040,note_on,,,,,96,0,3,,,,,2,,,64,90
167040,note_on,,,,,96,0,2,,,,,1,,,73,93
167040,note_on,,,,,96,0,1,,,,,0,,,73,106
167040,note_on,,,,,96,0,4,,,,,3,,,49,84
167232,note_off,,,,,192,0,4,,,,,3,,,49,0
167232,note_off,,,,,192,0,3,,,,,2,,,64,0
167232,note_off,,,,,192,0,1,,,,,0,,,73,0
167232,note_off,,,,,192,0,2,,,,,1,,,73,0
167424,note_on,,,,,192,0,2,,,,,1,,,68,93
167424,note_on,,,,,192,0,3,,,,,2,,,64,90
167424,note_on,,,,,192,0,4,,,,,3,,,49,84
167424,note_on,,,,,192,0,1,,,,,0,,,73,106
167616,note_off,,,,,192,0,3,,,,,2,,,64,0
167616,note_off,,,,,192,0,1,,,,,0,,,73,0
167616,note_off,,,,,192,0,4,,,,,3,,,49,0
167616,note_off,,,,,192,0,2,,,,,1,,,68,0
167808,note_on,,,,,192,0,1,,,,,0,,,57,106
167808,note_on,,,,,192,0,3,,,,,2,,,57,90
167808,note_on,,,,,192,0,4,,,,,3,,,45,84
167808,note_on,,,,,192,0,2,,,,,1,,,57,93
167936,note_on,,,,,0,0,4,,,,,3,,,49,84
167936,note_off,,,,,128,0,4,,,,,3,,,45,0
167936,note_off,,,,,128,0,1,,,,,0,,,57,0
167936,note_on,,,,,0,0,2,,,,,1,,,61,93
167936,note_off,,,,,128,0,3,,,,,2,,,57,0
167936,note_on,,,,,0,0,1,,,,,0,,,61,106
167936,note_on,,,,,0,0,3,,,,,2,,,61,90
167936,note_off,,,,,128,0,2,,,,,1,,,57,0
168064,note_off,,,,,128,0,2,,,,,1,,,61,0
168064,note_on,,,,,0,0,2,,,,,1,,,64,93
168064,note_on,,,,,0,0,1,,,,,0,,,64,106
168064,note_off,,,,,128,0,4,,,,,3,,,49,0
168064,note_off,,,,,128,0,3,,,,,2,,,61,0
168064,note_on,,,,,0,0,3,,,,,2,,,64,90
168064,note_off,,,,,128,0,1,,,,,0,,,61,0
168064,note_on,,,,,0,0,4,,,,,3,,,52,84
168192,note_on,,,,,0,0,3,,,,,2,,,69,90
168192,note_off,,,,,128,0,3,,,,,2,,,64,0
168192,note_on,,,,,0,0,4,,,,,3,,,57,84
168192,note_off,,,,,128,0,1,,,,,0,,,64,0
168192,note_on,,,,,0,0,1,,,,,0,,,69,106
168192,note_on,,,,,0,0,2,,,,,1,,,69,93
168192,note_off,,,,,128,0,2,,,,,1,,,64,0
168192,note_off,,,,,128,0,4,,,,,3,,,52,0
168384,note_off,,,,,192,0,2,,,,,1,,,69,0
168384,note_off,,,,,192,0,1,,,,,0,,,69,0
168384,note_off,,,,,192,0,4,,,,,3,,,57,0
168384,note_off,,,,,192,0,3,,,,,2,,,69,0
168576,note_on,,,,,192,0,4,,,,,3,,,56,84
168576,note_on,,,,,192,0,1,,,,,0,,,78,106
168576,note_on,,,,,192,0,3,,,,,2,,,59,90
168576,note_on,,,,,192,0,2,,,,,1,,,74,93
168672,note_off,,,,,96,0,3,,,,,2,,,59,0
168672,note_off,,,,,96,0,2,,,,,1,,,74,0
168672,note_off,,,,,96,0,1,,,,,0,,,78,0
168672,note_off,,,,,96,0,4,,,,,3,,,56,0
168768,note_on,,,,,96,0,2,,,,,1,,,73,93
168768,note_on,,,,,96,0,4,,,,,3,,,57,84
168768,note_on,,,,,96,0,3,,,,,2,,,61,90
168768,note_on,,,,,96,0,1,,,,,0,,,76,106
168864,note_off,,,,,96,0,2,,,,,1,,,73,0
168864,note_off,,,,,96,0,3,,,,,2,,,61,0
168864,note_off,,,,,96,0,1,,,,,0,,,76,0
168864,note_off,,,,,96,0,4,,,,,3,,,57,0
168960,note_on,,,,,96,0,1,,,,,0,,,78,106
168960,note_on,,,,,96,0,2,,,,,1,,,74,93
168960,note_on,,,,,96,0,3,,,,,2,,,59,90
168960,note_on,,,,,96,0,4,,,,,3,,,56,84
169056,note_off,,,,,96,0,1,,,,,0,,,78,0
169056,note_off,,,,,96,0,4,,,,,3,,,56,0
169056,note_off,,,,,96,0,3,,,,,2,,,59,0
169056,note_off,,,,,96,0,2,,,,,1,,,74,0
169152,note_on,,,,,96,0,3,,,,,2,,,61,90
169152,note_on,,,,,96,0,1,,,,,0,,,76,106
169152,note_on,,,,,96,0,4,,,,,3,,,57,84
169152,note_on,,,,,96,0,2,,,,,1,,,73,93
169248,note_off,,,,,96,0,1,,,,,0,,,76,0
169248,note_off,,,,,96,0,3,,,,,2,,,61,0
169248,note_off,,,,,96,0,2,,,,,1,,,73,0
169248,note_off,,,,,96,0,4,,,,,3,,,57,0
169344,note_on,,,,,96,0,2,,,,,1,,,75,93
169344,note_on,,,,,96,0,1,,,,,0,,,85,106
169344,note_on,,,,,96,0,3,,,,,2,,,59,90
169344,note_on,,,,,96,0,4,,,,,3,,,45,84
169728,note_off,,,,,384,0,3,,,,,2,,,59,0
169728,note_off,,,,,384,0,4,,,,,3,,,45,0
169728,note_off,,,,,384,0,1,,,,,0,,,85,0
169728,note_on,,,,,0,0,1,,,,,0,,,75,106
169728,note_on,,,,,0,0,2,,,,,1,,,71,93
169728,note_off,,,,,384,0,2,,,,,1,,,75,0
169728,note_on,,,,,0,0,3,,,,,2,,,66,90
169728,note_on,,,,,0,0,4,,,,,3,,,57,84
170112,note_off,,,,,384,0,4,,,,,3,,,57,0
170112,note_on,,,,,0,0,2,,,,,1,,,63,93
170112,note_off,,,,,384,0,2,,,,,1,,,71,0
170112,note_off,,,,,384,0,1,,,,,0,,,75,0
170112,note_on,,,,,0,0,4,,,,,3,,,54,84
170112,note_on,,,,,0,0,3,,,,,2,,,57,90
170112,note_off,,,,,384,0,3,,,,,2,,,66,0
170208,note_off,,,,,96,0,3,,,,,2,,,57,0
170208,note_off,,,,,96,0,4,,,,,3,,,54,0
170208,note_off,,,,,96,0,2,,,,,1,,,63,0
170304,note_on,,,,,96,0,2,,,,,1,,,64,93
170304,note_on,,,,,96,0,4,,,,,3,,,56,84
170304,note_on,,,,,96,0,3,,,,,2,,,59,90
170400,note_off,,,,,96,0,4,,,,,3,,,56,0
170400,note_off,,,,,96,0,3,,,,,2,,,59,0
170400,note_off,,,,,96,0,2,,,,,1,,,64,0
170496,note_on,,,,,96,0,3,,,,,2,,,61,90
170496,note_on,,,,,96,0,4,,,,,3,,,57,84
170496,note_on,,,,,96,0,2,,,,,1,,,66,93
170592,note_off,,,,,96,0,4,,,,,3,,,57,0
170592,note_off,,,,,96,0,2,,,,,1,,,66,0
170592,note_off,,,,,96,0,3,,,,,2,,,61,0
170688,note_on,,,,,96,0,3,,,,,2,,,63,90
170688,note_on,,,,,96,0,2,,,,,1,,,68,93
170688,note_on,,,,,96,0,4,,,,,3,,,59,84
170784,note_off,,,,,96,0,3,,,,,2,,,63,0
170784,note_off,,,,,96,0,2,,,,,1,,,68,0
170784,note_off,,,,,96,0,4,,,,,3,,,59,0
170880,note_on,,,,,96,0,4,,,,,3,,,61,84
170880,note_on,,,,,96,0,2,,,,,1,,,69,93
170880,note_on,,,,,96,0,3,,,,,2,,,64,90
170976,note_off,,,,,96,0,4,,,,,3,,,61,0
170976,note_off,,,,,96,0,2,,,,,1,,,69,0
170976,note_off,,,,,96,0,3,,,,,2,,,64,0
171072,note_on,,,,,96,0,2,,,,,1,,,68,93
171072,note_on,,,,,960,0,1,,,,,0,,,83,106
171072,note_on,,,,,96,0,4,,,,,3,,,59,84
171072,note_on,,,,,96,0,3,,,,,2,,,63,90
171168,note_off,,,,,96,0,3,,,,,2,,,63,0
171168,note_off,,,,,96,0,4,,,,,3,,,59,0
171168,note_off,,,,,96,0,2,,,,,1,,,68,0
171168,note_off,,,,,96,0,1,,,,,0,,,83,0
171264,note_on,,,,,96,0,1,,,,,0,,,81,106
171264,note_on,,,,,96,0,2,,,,,1,,,69,93
171264,note_on,,,,,96,0,4,,,,,3,,,61,84
171264,note_on,,,,,96,0,3,,,,,2,,,64,90
171360,note_off,,,,,96,0,4,,,,,3,,,61,0
171360,note_off,,,,,96,0,2,,,,,1,,,69,0
171360,note_off,,,,,96,0,3,,,,,2,,,64,0
171360,note_off,,,,,96,0,1,,,,,0,,,81,0
171456,note_on,,,,,96,0,1,,,,,0,,,78,106
171456,note_on,,,,,96,0,2,,,,,1,,,71,93
171456,note_on,,,,,96,0,3,,,,,2,,,66,90
171456,note_on,,,,,96,0,4,,,,,3,,,63,84
171552,note_off,,,,,96,0,1,,,,,0,,,78,0
171552,note_off,,,,,96,0,4,,,,,3,,,63,0
171552,note_off,,,,,96,0,2,,,,,1,,,71,0
171552,note_off,,,,,96,0,3,,,,,2,,,66,0
171648,note_on,,,,,96,0,1,,,,,0,,,76,106
171648,note_on,,,,,96,0,4,,,,,3,,,64,84
171648,note_on,,,,,96,0,2,,,,,1,,,68,93
171648,note_on,,,,,96,0,3,,,,,2,,,64,90
171776,note_off,,,,,128,0,4,,,,,3,,,64,0
171776,note_on,,,,,0,0,4,,,,,3,,,59,84
171840,note_off,,,,,192,0,2,,,,,1,,,68,0
171840,note_on,,,,,0,0,2,,,,,1,,,71,93
171904,note_on,,,,,0,0,4,,,,,3,,,56,84
171904,note_off,,,,,128,0,4,,,,,3,,,59,0
172032,note_on,,,,,0,0,4,,,,,3,,,52,84
172032,note_off,,,,,128,0,4,,,,,3,,,56,0
172032,note_off,,,,,192,0,2,,,,,1,,,71,0
172032,note_off,,,,,384,0,3,,,,,2,,,64,0
172032,note_on,,,,,0,0,2,,,,,1,,,68,93
172032,note_on,,,,,0,0,1,,,,,0,,,76,106
172032,note_off,,,,,384,0,1,,,,,0,,,76,0
172032,note_on,,,,,0,0,3,,,,,2,,,64,90
172160,note_off,,,,,128,0,3,,,,,2,,,64,0
172160,note_on,,,,,0,0,3,,,,,2,,,66,90
172224,note_off,,,,,192,0,4,,,,,3,,,52,0
172224,note_off,,,,,192,0,2,,,,,1,,,68,0
172224,note_on,,,,,0,0,2,,,,,1,,,71,93
172288,note_on,,,,,0,0,3,,,,,2,,,68,90
172288,note_off,,,,,128,0,3,,,,,2,,,66,0
172416,note_off,,,,,128,0,3,,,,,2,,,68,0
172416,note_off,,,,,192,0,2,,,,,1,,,71,0
172416,note_on,,,,,0,0,3,,,,,2,,,59,90
172416,note_off,,,,,384,0,1,,,,,0,,,76,0
172416,note_on,,,,,0,0,1,,,,,0,,,83,106
172416,note_on,,,,,192,0,4,,,,,3,,,47,84
172416,note_on,,,,,0,0,2,,,,,1,,,69,93
172544,note_off,,,,,128,0,1,,,,,0,,,83,0
172544,note_on,,,,,0,0,1,,,,,0,,,81,106
172608,note_off,,,,,192,0,4,,,,,3,,,47,0
172608,note_off,,,,,192,0,3,,,,,2,,,59,0
172608,note_off,,,,,192,0,2,,,,,1,,,69,0
172608,note_on,,,,,0,0,2,,,,,1,,,71,93
172672,note_off,,,,,128,0,1,,,,,0,,,81,0
172672,note_on,,,,,0,0,1,,,,,0,,,78,106
172800,note_off,,,,,192,0,2,,,,,1,,,71,0
172800,note_on,,,,,0,0,1,,,,,0,,,76,106
172800,note_on,,,,,0,0,2,,,,,1,,,68,93
172800,note_off,,,,,128,0,1,,,,,0,,,78,0
172800,note_on,,,,,192,0,3,,,,,2,,,52,90
172800,note_on,,,,,192,0,4,,,,,3,,,52,84
172928,note_on,,,,,0,0,4,,,,,3,,,56,84
172928,note_off,,,,,128,0,4,,,,,3,,,52,0
172992,note_off,,,,,192,0,3,,,,,2,,,52,0
172992,note_on,,,,,0,0,2,,,,,1,,,71,93
172992,note_off,,,,,192,0,2,,,,,1,,,68,0
173056,note_off,,,,,128,0,4,,,,,3,,,56,0
173056,note_on,,,,,0,0,4,,,,,3,,,59,84
173184,note_off,,,,,128,0,4,,,,,3,,,59,0
173184,note_on,,,,,0,0,4,,,,,3,,,64,84
173184,note_off,,,,,192,0,2,,,,,1,,,71,0
173184,note_on,,,,,0,0,2,,,,,1,,,68,93
173184,note_on,,,,,0,0,1,,,,,0,,,76,106
173184,note_off,,,,,384,0,1,,,,,0,,,76,0
173184,note_on,,,,,192,0,3,,,,,2,,,64,90
173312,note_off,,,,,128,0,3,,,,,2,,,64,0
173312,note_on,,,,,0,0,3,,,,,2,,,66,90
173376,note_off,,,,,192,0,4,,,,,3,,,64,0
173376,note_off,,,,,192,0,2,,,,,1,,,68,0
173376,note_on,,,,,0,0,2,,,,,1,,,71,93
173440,note_off,,,,,128,0,3,,,,,2,,,66,0
173440,note_on,,,,,0,0,3,,,,,2,,,68,90
173568,note_on,,,,,0,0,3,,,,,2,,,59,90
173568,note_on,,,,,192,0,4,,,,,3,,,59,84
173568,note_on,,,,,0,0,1,,,,,0,,,83,106
173568,note_off,,,,,128,0,3,,,,,2,,,68,0
173568,note_off,,,,,192,0,2,,,,,1,,,71,0
173568,note_on,,,,,0,0,2,,,,,1,,,69,93
173568,note_off,,,,,384,0,1,,,,,0,,,76,0
173696,note_on,,,,,0,0,1,,,,,0,,,81,106
173696,note_off,,,,,128,0,1,,,,,0,,,83,0
173760,note_off,,,,,192,0,2,,,,,1,,,69,0
173760,note_on,,,,,0,0,2,,,,,1,,,71,93
173760,note_off,,,,,192,0,3,,,,,2,,,59,0
173760,note_off,,,,,192,0,4,,,,,3,,,59,0
173824,note_on,,,,,0,0,1,,,,,0,,,78,106
173824,note_off,,,,,128,0,1,,,,,0,,,81,0
173952,note_off,,,,,192,0,2,,,,,1,,,71,0
173952,note_on,,,,,0,0,2,,,,,1,,,68,93
173952,note_on,,,,,0,0,1,,,,,0,,,76,106
173952,note_on,,,,,192,0,3,,,,,2,,,52,90
173952,note_off,,,,,128,0,1,,,,,0,,,78,0
173952,note_on,,,,,192,0,4,,,,,3,,,52,84
174080,note_off,,,,,128,0,4,,,,,3,,,52,0
174080,note_on,,,,,0,0,4,,,,,3,,,56,84
174144,note_off,,,,,192,0,3,,,,,2,,,52,0
174144,note_off,,,,,192,0,2,,,,,1,,,68,0
174144,note_on,,,,,0,0,2,,,,,1,,,71,93
174208,note_off,,,,,128,0,4,,,,,3,,,56,0
174208,note_on,,,,,0,0,4,,,,,3,,,59,84
174336,note_on,,,,,192,0,3,,,,,2,,,64,90
174336,note_on,,,,,0,0,4,,,,,3,,,64,84
174336,note_off,,,,,128,0,4,,,,,3,,,59,0
174336,note_on,,,,,0,0,2,,,,,1,,,68,93
174336,note_off,,,,,192,0,2,,,,,1,,,71,0
174464,note_on,,,,,0,0,3,,,,,2,,,66,90
174464,note_off,,,,,128,0,3,,,,,2,,,64,0
174528,note_on,,,,,0,0,2,,,,,1,,,71,93
174528,note_off,,,,,192,0,2,,,,,1,,,68,0
174528,note_off,,,,,192,0,4,,,,,3,,,64,0
174592,note_off,,,,,128,0,3,,,,,2,,,66,0
174592,note_on,,,,,0,0,3,,,,,2,,,68,90
174720,note_off,,,,,128,0,3,,,,,2,,,68,0
174720,note_on,,,,,0,0,3,,,,,2,,,59,90
174720,note_on,,,,,192,0,4,,,,,3,,,59,84
174720,note_on,,,,,0,0,2,,,,,1,,,69,93
174720,note_on,,,,,0,0,1,,,,,0,,,83,106
174720,note_off,,,,,768,0,1,,,,,0,,,76,0
174720,note_off,,,,,192,0,2,,,,,1,,,71,0
174848,note_off,,,,,128,0,1,,,,,0,,,83,0
174848,note_on,,,,,0,0,1,,,,,0,,,81,106
174912,note_off,,,,,192,0,4,,,,,3,,,59,0
174912,note_off,,,,,192,0,3,,,,,2,,,59,0
174912,note_on,,,,,0,0,2,,,,,1,,,71,93
174912,note_off,,,,,192,0,2,,,,,1,,,69,0
174976,note_off,,,,,128,0,1,,,,,0,,,81,0
174976,note_on,,,,,0,0,1,,,,,0,,,78,106
175104,note_on,,,,,0,0,1,,,,,0,,,76,106
175104,note_on,,,,,192,0,3,,,,,2,,,64,90
175104,note_on,,,,,192,0,4,,,,,3,,,52,84
175104,note_off,,,,,128,0,1,,,,,0,,,78,0
175104,note_on,,,,,0,0,2,,,,,1,,,68,93
175104,note_off,,,,,192,0,2,,,,,1,,,71,0
175232,note_on,,,,,0,0,1,,,,,0,,,80,106
175232,note_off,,,,,128,0,1,,,,,0,,,76,0
175296,note_off,,,,,192,0,4,,,,,3,,,52,0
175296,note_off,,,,,192,0,3,,,,,2,,,64,0
175296,note_off,,,,,192,0,2,,,,,1,,,68,0
175360,note_off,,,,,128,0,1,,,,,0,,,80,0
175360,note_on,,,,,0,0,1,,,,,0,,,83,106
175488,note_on,,,,,192,0,2,,,,,1,,,71,93
175488,note_on,,,,,192,0,4,,,,,3,,,56,84
175488,note_on,,,,,0,0,2,,,,,1,,,68,93
175488,note_off,,,,,128,0,1,,,,,0,,,83,0
175488,note_on,,,,,0,0,1,,,,,0,,,88,106
175488,note_on,,,,,192,0,3,,,,,2,,,59,90
175616,note_on,,,,,0,0,1,,,,,0,,,83,106
175616,note_off,,,,,128,0,1,,,,,0,,,88,0
175680,note_off,,,,,192,0,2,,,,,1,,,71,0
175680,note_off,,,,,192,0,3,,,,,2,,,59,0
175680,note_off,,,,,192,0,4,,,,,3,,,56,0
175680,note_off,,,,,0,0,2,,,,,1,,,68,0
175744,note_off,,,,,128,0,1,,,,,0,,,83,0
175744,note_on,,,,,0,0,1,,,,,0,,,80,106
175872,note_on,,,,,192,0,4,,,,,3,,,59,84
175872,note_on,,,,,192,0,2,,,,,1,,,59,93
175872,note_on,,,,,192,0,3,,,,,2,,,64,90
175872,note_on,,,,,0,0,1,,,,,0,,,81,106
175872,note_off,,,,,128,0,1,,,,,0,,,80,0
175872,note_on,,,,,0,0,2,,,,,1,,,69,93
176000,note_off,,,,,128,0,1,,,,,0,,,81,0
176000,note_on,,,,,0,0,1,,,,,0,,,78,106
176064,note_off,,,,,192,0,2,,,,,1,,,59,0
176064,note_off,,,,,0,0,2,,,,,1,,,69,0
176064,note_off,,,,,192,0,4,,,,,3,,,59,0
176064,note_off,,,,,192,0,3,,,,,2,,,64,0
176128,note_on,,,,,0,0,1,,,,,0,,,75,106
176128,note_off,,,,,128,0,1,,,,,0,,,78,0
176256,note_on,,,,,192,0,4,,,,,3,,,52,84
176256,note_on,,,,,192,0,2,,,,,1,,,68,93
176256,note_on,,,,,0,0,2,,,,,1,,,59,93
176256,note_off,,,,,128,0,1,,,,,0,,,75,0
176256,note_on,,,,,192,0,3,,,,,2,,,64,90
176256,note_on,,,,,0,0,1,,,,,0,,,76,106
176640,note_off,,,,,384,0,3,,,,,2,,,64,0
176640,end_of_track,,,,,0,1,3,,,,,,,,,
176640,end_of_track,,,,,0,1,2,,,,,,,,,
176640,note_off,,,,,0,0,2,,,,,1,,,59,0
176640,note_off,,,,,384,0,2,,,,,1,,,68,0
176640,note_off,,,,,384,0,4,,,,,3,,,52,0
176640,end_of_track,,,,,0,1,4,,,,,,,,,
176640,note_off,,,,,384,0,1,,,,,0,,,76,0
176640,end_of_track,,,,,0,1,1,,,,,,,,,
