tick,type,numerator,denominator,clocks_per_click,notated_32nd_notes_per_beat,time,meta,track,data,tempo,control,value,channel,program,key,note,velocity
0,time_signature,4,4,96,8,0,1,0,,,,,,,,,
0,control_change,,,,,0,0,2,,,10,51,1,,,,
0,program_change,,,,,0,0,2,,,,,1,40,,,
0,key_signature,,,,,0,1,2,,,,,,,C,,
0,note_on,,,,,0,0,2,,,,,1,,,58,90
0,key_signature,,,,,0,1,6,,,,,,,C,,
0,track_name,,,,,0,1,3,,,,,,,,,
0,control_change,,,,,0,0,3,,,0,0,2,,,,
0,control_change,,,,,0,0,3,,,10,81,2,,,,
0,program_change,,,,,0,0,3,,,,,2,41,,,
0,key_signature,,,,,0,1,3,,,,,,,C,,
0,control_change,,,,,0,0,2,,,0,0,1,,,,
0,note_on,,,,,0,0,3,,,,,2,,,55,84
0,control_change,,,,,0,0,4,,,0,0,3,,,,
0,control_change,,,,,0,0,4,,,10,99,3,,,,
0,program_change,,,,,0,0,4,,,,,3,42,,,
0,key_signature,,,,,0,1,4,,,,,,,C,,
0,note_on,,,,,0,0,4,,,,,3,,,51,78
0,track_name,,,,,0,1,5,,,,,,,,,
0,control_change,,,,,0,0,5,,,0,0,4,,,,
0,control_change,,,,,0,0,5,,,7,127,4,,,,
0,program_change,,,,,0,0,5,,,,,4,45,,,
0,key_signature,,,,,0,1,5,,,,,,,C,,
0,track_name,,,,,0,1,4,,,,,,,,,
0,track_name,,,,,0,1,2,,,,,,,,,
0,end_of_track,,,,,0,1,6,,,,,,,,,
0,sequencer_specific,,,,,0,1,0,"(0, 0, 65)",,,,,,,,
0,set_tempo,,,,,0,1,0,,422535,,,,,,,
0,control_change,,,,,0,0,1,,,0,0,0,,,,
0,end_of_track,,,,,0,1,0,,,,,,,,,
0,track_name,,,,,0,1,1,,,,,,,,,
0,program_change,,,,,0,0,1,,,,,0,40,,,
0,key_signature,,,,,0,1,1,,,,,,,C,,
0,note_on,,,,,0,0,1,,,,,0,,,63,103
0,control_change,,,,,0,0,1,,,10,33,0,,,,
768,note_off,,,,,768,0,4,,,,,3,,,51,0
768,note_on,,,,,0,0,4,,,,,3,,,48,78
768,note_off,,,,,768,0,2,,,,,1,,,58,0
768,note_on,,,,,0,0,2,,,,,1,,,60,90
1536,note_off,,,,,1536,0,3,,,,,2,,,55,0
1536,note_off,,,,,768,0,2,,,,,1,,,60,0
1536,note_on,,,,,0,0,2,,,,,1,,,60,90
1536,note_off,,,,,1536,0,1,,,,,0,,,63,0
1536,note_on,,,,,0,0,3,,,,,2,,,48,84
1536,note_on,,,,,0,0,1,,,,,0,,,65,103
1536,note_off,,,,,768,0,4,,,,,3,,,48,0
1536,note_on,,,,,0,0,4,,,,,3,,,44,78
1920,note_off,,,,,384,0,1,,,,,0,,,65,0
1920,note_on,,,,,0,0,1,,,,,0,,,67,103
1920,note_off,,,,,384,0,4,,,,,3,,,44,0
1920,note_off,,,,,384,0,3,,,,,2,,,48,0
1920,note_on,,,,,0,0,3,,,,,2,,,52,84
1920,note_on,,,,,0,0,4,,,,,3,,,43,78
2304,note_on,,,,,0,0,3,,,,,2,,,53,84
2304,note_off,,,,,384,0,3,,,,,2,,,52,0
2304,note_on,,,,,0,0,4,,,,,3,,,41,78
2304,note_off,,,,,384,0,4,,,,,3,,,43,0
2304,note_off,,,,,384,0,1,,,,,0,,,67,0
2304,note_on,,,,,0,0,1,,,,,0,,,68,103
2688,note_off,,,,,384,0,1,,,,,0,,,68,0
2688,note_off,,,,,384,0,3,,,,,2,,,53,0
2688,note_off,,,,,384,0,4,,,,,3,,,41,0
2688,note_off,,,,,1152,0,2,,,,,1,,,60,0
3072,note_on,,,,,384,0,2,,,,,1,,,65,90
3072,note_on,,,,,384,0,1,,,,,0,,,68,103
3072,note_on,,,,,384,0,3,,,,,2,,,53,84
3264,note_off,,,,,192,0,1,,,,,0,,,68,0
3264,note_off,,,,,192,0,3,,,,,2,,,53,0
3264,note_off,,,,,192,0,2,,,,,1,,,65,0
3456,note_on,,,,,192,0,3,,,,,2,,,55,84
3456,note_on,,,,,192,0,1,,,,,0,,,70,103
3456,note_on,,,,,192,0,2,,,,,1,,,65,90
3648,note_off,,,,,192,0,1,,,,,0,,,70,0
3648,note_off,,,,,192,0,3,,,,,2,,,55,0
3648,note_off,,,,,192,0,2,,,,,1,,,65,0
3840,note_on,,,,,192,0,1,,,,,0,,,72,103
3840,note_on,,,,,192,0,3,,,,,2,,,56,84
3840,note_on,,,,,192,0,2,,,,,1,,,65,90
4032,note_off,,,,,192,0,2,,,,,1,,,65,0
4032,note_off,,,,,192,0,1,,,,,0,,,72,0
4032,note_off,,,,,192,0,3,,,,,2,,,56,0
4608,note_on,,,,,1920,0,4,,,,,3,,,44,78
4608,note_on,,,,,576,0,2,,,,,1,,,56,90
4608,note_on,,,,,576,0,1,,,,,0,,,60,103
4608,note_on,,,,,576,0,3,,,,,2,,,51,84
5376,note_off,,,,,768,0,1,,,,,0,,,60,0
5376,note_on,,,,,0,0,3,,,,,2,,,53,84
5376,note_on,,,,,0,0,2,,,,,1,,,58,90
5376,note_on,,,,,0,0,1,,,,,0,,,62,103
5376,note_off,,,,,768,0,3,,,,,2,,,51,0
5376,note_off,,,,,768,0,2,,,,,1,,,56,0
6144,note_off,,,,,768,0,2,,,,,1,,,58,0
6144,note_off,,,,,768,0,3,,,,,2,,,53,0
6144,note_off,,,,,1536,0,4,,,,,3,,,44,0
6144,note_on,,,,,0,0,4,,,,,3,,,43,78
6144,note_on,,,,,0,0,3,,,,,2,,,51,84
6144,note_on,,,,,0,0,2,,,,,1,,,58,90
6144,note_off,,,,,768,0,1,,,,,0,,,62,0
6144,note_on,,,,,0,0,1,,,,,0,,,63,103
6528,note_off,,,,,384,0,1,,,,,0,,,63,0
6528,note_on,,,,,0,0,4,,,,,3,,,41,78
6528,note_off,,,,,384,0,4,,,,,3,,,43,0
6528,note_off,,,,,384,0,3,,,,,2,,,51,0
6528,note_on,,,,,0,0,3,,,,,2,,,50,84
6528,note_on,,,,,0,0,1,,,,,0,,,65,103
6912,note_off,,,,,384,0,1,,,,,0,,,65,0
6912,note_off,,,,,384,0,3,,,,,2,,,50,0
6912,note_on,,,,,0,0,3,,,,,2,,,51,84
6912,note_off,,,,,384,0,4,,,,,3,,,41,0
6912,note_on,,,,,0,0,1,,,,,0,,,67,103
6912,note_on,,,,,0,0,4,,,,,3,,,39,78
7296,note_off,,,,,384,0,3,,,,,2,,,51,0
7296,note_off,,,,,384,0,4,,,,,3,,,39,0
7296,note_off,,,,,1152,0,2,,,,,1,,,58,0
7296,note_off,,,,,384,0,1,,,,,0,,,67,0
7680,note_on,,,,,384,0,1,,,,,0,,,67,103
7680,note_on,,,,,384,0,2,,,,,1,,,63,90
7680,note_on,,,,,384,0,3,,,,,2,,,51,84
7872,note_off,,,,,192,0,2,,,,,1,,,63,0
7872,note_off,,,,,192,0,3,,,,,2,,,51,0
7872,note_off,,,,,192,0,1,,,,,0,,,67,0
8064,note_on,,,,,192,0,3,,,,,2,,,53,84
8064,note_on,,,,,192,0,2,,,,,1,,,63,90
8064,note_on,,,,,192,0,1,,,,,0,,,68,103
8256,note_off,,,,,192,0,2,,,,,1,,,63,0
8256,note_off,,,,,192,0,3,,,,,2,,,53,0
8256,note_off,,,,,192,0,1,,,,,0,,,68,0
8448,note_on,,,,,192,0,2,,,,,1,,,63,90
8448,note_on,,,,,192,0,3,,,,,2,,,55,84
8448,note_on,,,,,192,0,1,,,,,0,,,70,103
8640,note_off,,,,,192,0,2,,,,,1,,,63,0
8640,note_off,,,,,192,0,3,,,,,2,,,55,0
8640,note_off,,,,,192,0,1,,,,,0,,,70,0
9216,note_on,,,,,576,0,1,,,,,0,,,75,103
9216,note_on,,,,,576,0,2,,,,,1,,,63,90
9216,note_on,,,,,576,0,3,,,,,2,,,55,84
9984,note_on,,,,,2688,0,4,,,,,3,,,43,78
9984,note_on,,,,,0,0,1,,,,,0,,,63,103
9984,note_off,,,,,768,0,1,,,,,0,,,75,0
9984,note_on,,,,,0,0,3,,,,,2,,,61,84
9984,note_off,,,,,768,0,3,,,,,2,,,55,0
10752,note_on,,,,,0,0,4,,,,,3,,,44,78
10752,note_off,,,,,1536,0,2,,,,,1,,,63,0
10752,note_off,,,,,768,0,1,,,,,0,,,63,0
10752,note_on,,,,,0,0,2,,,,,1,,,63,90
10752,note_on,,,,,0,0,1,,,,,0,,,63,103
10752,note_off,,,,,768,0,4,,,,,3,,,43,0
10752,note_on,,,,,0,0,3,,,,,2,,,60,84
10752,note_off,,,,,768,0,3,,,,,2,,,61,0
11520,note_off,,,,,768,0,1,,,,,0,,,63,0
11520,note_on,,,,,0,0,1,,,,,0,,,72,103
11904,note_off,,,,,1152,0,4,,,,,3,,,44,0
11904,note_off,,,,,1152,0,3,,,,,2,,,60,0
11904,note_off,,,,,384,0,1,,,,,0,,,72,0
11904,note_off,,,,,1152,0,2,,,,,1,,,63,0
12288,note_on,,,,,384,0,3,,,,,2,,,52,84
12288,note_on,,,,,384,0,1,,,,,0,,,72,103
12288,note_on,,,,,384,0,2,,,,,1,,,60,90
13056,note_on,,,,,0,0,3,,,,,2,,,58,84
13056,note_off,,,,,768,0,3,,,,,2,,,52,0
13056,note_on,,,,,0,0,1,,,,,0,,,60,103
13056,note_off,,,,,768,0,1,,,,,0,,,72,0
13056,note_on,,,,,1152,0,4,,,,,3,,,40,78
13824,note_off,,,,,768,0,4,,,,,3,,,40,0
13824,note_on,,,,,0,0,4,,,,,3,,,41,78
13824,note_on,,,,,0,0,2,,,,,1,,,60,90
13824,note_off,,,,,1536,0,2,,,,,1,,,60,0
13824,note_off,,,,,768,0,3,,,,,2,,,58,0
13824,note_on,,,,,0,0,1,,,,,0,,,60,103
13824,note_off,,,,,768,0,1,,,,,0,,,60,0
13824,note_on,,,,,0,0,3,,,,,2,,,56,84
14592,note_off,,,,,768,0,1,,,,,0,,,60,0
14592,note_on,,,,,0,0,1,,,,,0,,,68,103
14976,note_off,,,,,1152,0,3,,,,,2,,,56,0
14976,note_off,,,,,1152,0,4,,,,,3,,,41,0
14976,note_off,,,,,1152,0,2,,,,,1,,,60,0
14976,note_off,,,,,384,0,1,,,,,0,,,68,0
15744,note_on,,,,,768,0,1,,,,,0,,,65,103
15744,note_on,,,,,768,0,3,,,,,2,,,53,84
16128,note_on,,,,,0,0,1,,,,,0,,,68,103
16128,note_off,,,,,384,0,1,,,,,0,,,65,0
16128,note_off,,,,,384,0,3,,,,,2,,,53,0
16128,note_on,,,,,0,0,3,,,,,2,,,56,84
16512,note_on,,,,,0,0,1,,,,,0,,,72,103
16512,note_off,,,,,384,0,1,,,,,0,,,68,0
16512,note_off,,,,,384,0,3,,,,,2,,,56,0
16512,note_on,,,,,0,0,3,,,,,2,,,60,84
16896,note_on,,,,,0,0,3,,,,,2,,,58,84
16896,note_on,,,,,1920,0,4,,,,,3,,,50,78
16896,note_on,,,,,1920,0,2,,,,,1,,,65,90
16896,note_off,,,,,384,0,3,,,,,2,,,60,0
16896,note_on,,,,,0,0,1,,,,,0,,,70,103
16896,note_off,,,,,384,0,1,,,,,0,,,72,0
17472,note_on,,,,,0,0,1,,,,,0,,,68,103
17472,note_off,,,,,576,0,1,,,,,0,,,70,0
17664,note_off,,,,,192,0,1,,,,,0,,,68,0
17664,note_off,,,,,768,0,2,,,,,1,,,65,0
17664,note_on,,,,,0,0,4,,,,,3,,,51,78
17664,note_off,,,,,768,0,4,,,,,3,,,50,0
17664,note_on,,,,,0,0,1,,,,,0,,,67,103
17664,note_on,,,,,0,0,2,,,,,1,,,63,90
18048,note_off,,,,,384,0,1,,,,,0,,,67,0
18048,note_off,,,,,384,0,4,,,,,3,,,51,0
18048,note_off,,,,,1152,0,3,,,,,2,,,58,0
18048,note_off,,,,,384,0,2,,,,,1,,,63,0
18432,note_on,,,,,384,0,4,,,,,3,,,44,78
18432,note_on,,,,,384,0,1,,,,,0,,,65,103
18432,note_on,,,,,384,0,3,,,,,2,,,60,84
18624,note_off,,,,,192,0,1,,,,,0,,,65,0
18624,note_on,,,,,0,0,1,,,,,0,,,64,103
18816,note_off,,,,,384,0,4,,,,,3,,,44,0
18816,note_off,,,,,192,0,1,,,,,0,,,64,0
18816,note_on,,,,,0,0,1,,,,,0,,,67,103
18816,note_on,,,,,0,0,4,,,,,3,,,43,78
19008,note_off,,,,,192,0,1,,,,,0,,,67,0
19008,note_on,,,,,0,0,1,,,,,0,,,65,103
19200,note_off,,,,,192,0,1,,,,,0,,,65,0
19200,note_on,,,,,0,0,1,,,,,0,,,70,103
19200,note_off,,,,,384,0,4,,,,,3,,,43,0
19200,note_on,,,,,0,0,4,,,,,3,,,41,78
19392,note_off,,,,,192,0,1,,,,,0,,,70,0
19392,note_on,,,,,0,0,1,,,,,0,,,68,103
19584,note_off,,,,,1152,0,3,,,,,2,,,60,0
19584,note_on,,,,,0,0,4,,,,,3,,,46,78
19584,note_off,,,,,384,0,4,,,,,3,,,41,0
19584,note_on,,,,,0,0,3,,,,,2,,,56,84
19584,note_off,,,,,192,0,1,,,,,0,,,68,0
19584,note_on,,,,,0,0,1,,,,,0,,,65,103
19776,note_off,,,,,192,0,1,,,,,0,,,65,0
19776,note_on,,,,,0,0,1,,,,,0,,,62,103
19968,note_off,,,,,384,0,4,,,,,3,,,46,0
19968,note_on,,,,,0,0,4,,,,,3,,,51,78
19968,note_on,,,,,1920,0,2,,,,,1,,,58,90
19968,note_off,,,,,192,0,1,,,,,0,,,62,0
19968,note_on,,,,,0,0,3,,,,,2,,,55,84
19968,note_on,,,,,0,0,1,,,,,0,,,63,103
19968,note_off,,,,,384,0,3,,,,,2,,,56,0
20736,note_off,,,,,768,0,4,,,,,3,,,51,0
20736,note_on,,,,,0,0,2,,,,,1,,,60,90
20736,note_off,,,,,768,0,2,,,,,1,,,58,0
20736,note_on,,,,,0,0,4,,,,,3,,,48,78
21504,note_on,,,,,0,0,1,,,,,0,,,65,103
21504,note_off,,,,,1536,0,1,,,,,0,,,63,0
21504,note_off,,,,,1536,0,3,,,,,2,,,55,0
21504,note_off,,,,,768,0,2,,,,,1,,,60,0
21504,note_on,,,,,0,0,2,,,,,1,,,60,90
21504,note_on,,,,,0,0,3,,,,,2,,,48,84
21504,note_off,,,,,768,0,4,,,,,3,,,48,0
21504,note_on,,,,,0,0,4,,,,,3,,,44,78
21888,note_off,,,,,384,0,1,,,,,0,,,65,0
21888,note_on,,,,,0,0,3,,,,,2,,,52,84
21888,note_off,,,,,384,0,3,,,,,2,,,48,0
21888,note_on,,,,,0,0,1,,,,,0,,,67,103
21888,note_off,,,,,384,0,4,,,,,3,,,44,0
21888,note_on,,,,,0,0,4,,,,,3,,,43,78
22272,note_on,,,,,0,0,1,,,,,0,,,68,103
22272,note_off,,,,,384,0,3,,,,,2,,,52,0
22272,note_on,,,,,0,0,3,,,,,2,,,53,84
22272,note_off,,,,,384,0,4,,,,,3,,,43,0
22272,note_off,,,,,384,0,1,,,,,0,,,67,0
22272,note_on,,,,,0,0,4,,,,,3,,,41,78
22656,note_off,,,,,384,0,1,,,,,0,,,68,0
22656,note_off,,,,,384,0,3,,,,,2,,,53,0
22656,note_off,,,,,384,0,4,,,,,3,,,41,0
22656,note_off,,,,,1152,0,2,,,,,1,,,60,0
23040,note_on,,,,,384,0,1,,,,,0,,,82,103
23040,note_on,,,,,384,0,3,,,,,2,,,60,84
23040,note_on,,,,,384,0,2,,,,,1,,,70,90
23040,note_on,,,,,384,0,4,,,,,3,,,53,78
23232,note_off,,,,,192,0,3,,,,,2,,,60,0
23232,note_off,,,,,192,0,1,,,,,0,,,82,0
23232,note_off,,,,,192,0,4,,,,,3,,,53,0
23232,note_on,,,,,0,0,2,,,,,1,,,68,90
23232,note_off,,,,,192,0,2,,,,,1,,,70,0
23232,note_on,,,,,0,0,1,,,,,0,,,80,103
23328,note_off,,,,,96,0,2,,,,,1,,,68,0
23328,note_off,,,,,96,0,1,,,,,0,,,80,0
23424,note_on,,,,,96,0,1,,,,,0,,,84,103
23424,note_on,,,,,96,0,2,,,,,1,,,72,90
23424,note_on,,,,,192,0,3,,,,,2,,,60,84
23424,note_on,,,,,192,0,4,,,,,3,,,55,78
23616,note_off,,,,,192,0,1,,,,,0,,,84,0
23616,note_off,,,,,192,0,4,,,,,3,,,55,0
23616,note_off,,,,,192,0,2,,,,,1,,,72,0
23616,note_on,,,,,0,0,2,,,,,1,,,70,90
23616,note_on,,,,,0,0,1,,,,,0,,,82,103
23616,note_off,,,,,192,0,3,,,,,2,,,60,0
23712,note_off,,,,,96,0,2,,,,,1,,,70,0
23712,note_off,,,,,96,0,1,,,,,0,,,82,0
23808,note_on,,,,,192,0,3,,,,,2,,,60,84
23808,note_on,,,,,96,0,2,,,,,1,,,73,90
23808,note_on,,,,,192,0,4,,,,,3,,,56,78
23808,note_on,,,,,96,0,1,,,,,0,,,85,103
24000,note_on,,,,,0,0,1,,,,,0,,,84,103
24000,note_off,,,,,192,0,3,,,,,2,,,60,0
24000,note_off,,,,,192,0,2,,,,,1,,,73,0
24000,note_on,,,,,0,0,2,,,,,1,,,72,90
24000,note_off,,,,,192,0,1,,,,,0,,,85,0
24000,note_off,,,,,192,0,4,,,,,3,,,56,0
24096,note_off,,,,,96,0,2,,,,,1,,,72,0
24096,note_off,,,,,96,0,1,,,,,0,,,84,0
24576,note_on,,,,,480,0,2,,,,,1,,,56,90
24576,note_on,,,,,576,0,3,,,,,2,,,51,84
24576,note_on,,,,,480,0,1,,,,,0,,,60,103
24576,note_on,,,,,576,0,4,,,,,3,,,44,78
25344,note_off,,,,,768,0,1,,,,,0,,,60,0
25344,note_on,,,,,0,0,2,,,,,1,,,58,90
25344,note_on,,,,,0,0,3,,,,,2,,,53,84
25344,note_off,,,,,768,0,3,,,,,2,,,51,0
25344,note_off,,,,,768,0,2,,,,,1,,,56,0
25344,note_on,,,,,0,0,1,,,,,0,,,62,103
26112,note_off,,,,,768,0,2,,,,,1,,,58,0
26112,note_on,,,,,0,0,3,,,,,2,,,51,84
26112,note_off,,,,,768,0,3,,,,,2,,,53,0
26112,note_on,,,,,0,0,2,,,,,1,,,58,90
26112,note_off,,,,,1536,0,4,,,,,3,,,44,0
26112,note_on,,,,,0,0,4,,,,,3,,,43,78
26112,note_on,,,,,0,0,1,,,,,0,,,63,103
26112,note_off,,,,,768,0,1,,,,,0,,,62,0
26496,note_on,,,,,0,0,1,,,,,0,,,65,103
26496,note_off,,,,,384,0,1,,,,,0,,,63,0
26496,note_off,,,,,384,0,3,,,,,2,,,51,0
26496,note_on,,,,,0,0,3,,,,,2,,,50,84
26496,note_off,,,,,384,0,4,,,,,3,,,43,0
26496,note_on,,,,,0,0,4,,,,,3,,,41,78
26880,note_on,,,,,0,0,3,,,,,2,,,51,84
26880,note_on,,,,,0,0,1,,,,,0,,,67,103
26880,note_off,,,,,384,0,1,,,,,0,,,65,0
26880,note_off,,,,,384,0,4,,,,,3,,,41,0
26880,note_on,,,,,0,0,4,,,,,3,,,39,78
26880,note_off,,,,,384,0,3,,,,,2,,,50,0
27264,note_off,,,,,384,0,4,,,,,3,,,39,0
27264,note_off,,,,,1152,0,2,,,,,1,,,58,0
27264,note_off,,,,,384,0,1,,,,,0,,,67,0
27264,note_off,,,,,384,0,3,,,,,2,,,51,0
27648,note_on,,,,,384,0,3,,,,,2,,,58,84
27648,note_on,,,,,384,0,4,,,,,3,,,51,78
27648,note_on,,,,,384,0,2,,,,,1,,,68,90
27648,note_on,,,,,384,0,1,,,,,0,,,80,103
27840,note_off,,,,,192,0,4,,,,,3,,,51,0
27840,note_off,,,,,192,0,3,,,,,2,,,58,0
27840,note_off,,,,,192,0,1,,,,,0,,,80,0
27840,note_on,,,,,0,0,2,,,,,1,,,67,90
27840,note_off,,,,,192,0,2,,,,,1,,,68,0
27840,note_on,,,,,0,0,1,,,,,0,,,79,103
27936,note_off,,,,,96,0,2,,,,,1,,,67,0
27936,note_off,,,,,96,0,1,,,,,0,,,79,0
28032,note_on,,,,,192,0,3,,,,,2,,,58,84
28032,note_on,,,,,192,0,4,,,,,3,,,53,78
28032,note_on,,,,,96,0,2,,,,,1,,,70,90
28032,note_on,,,,,96,0,1,,,,,0,,,82,103
28224,note_off,,,,,192,0,4,,,,,3,,,53,0
28224,note_on,,,,,0,0,2,,,,,1,,,68,90
28224,note_off,,,,,192,0,2,,,,,1,,,70,0
28224,note_off,,,,,192,0,3,,,,,2,,,58,0
28224,note_off,,,,,192,0,1,,,,,0,,,82,0
28224,note_on,,,,,0,0,1,,,,,0,,,80,103
28320,note_off,,,,,96,0,2,,,,,1,,,68,0
28320,note_off,,,,,96,0,1,,,,,0,,,80,0
28416,note_on,,,,,96,0,1,,,,,0,,,84,103
28416,note_on,,,,,192,0,3,,,,,2,,,58,84
28416,note_on,,,,,96,0,2,,,,,1,,,72,90
28416,note_on,,,,,192,0,4,,,,,3,,,55,78
28608,note_off,,,,,192,0,1,,,,,0,,,84,0
28608,note_on,,,,,0,0,1,,,,,0,,,82,103
28608,note_off,,,,,192,0,4,,,,,3,,,55,0
28608,note_off,,,,,192,0,3,,,,,2,,,58,0
28608,note_off,,,,,192,0,2,,,,,1,,,72,0
28608,note_on,,,,,0,0,2,,,,,1,,,70,90
28704,note_off,,,,,96,0,1,,,,,0,,,82,0
28704,note_off,,,,,96,0,2,,,,,1,,,70,0
29184,note_on,,,,,480,0,1,,,,,0,,,75,103
29184,note_on,,,,,480,0,2,,,,,1,,,63,90
29184,note_on,,,,,576,0,3,,,,,2,,,55,84
29952,note_off,,,,,768,0,3,,,,,2,,,55,0
29952,note_on,,,,,0,0,3,,,,,2,,,58,84
29952,note_on,,,,,1344,0,4,,,,,3,,,43,78
30144,note_on,,,,,0,0,1,,,,,0,,,70,103
30144,note_off,,,,,960,0,1,,,,,0,,,75,0
30336,note_off,,,,,384,0,3,,,,,2,,,58,0
30336,note_off,,,,,192,0,1,,,,,0,,,70,0
30336,note_on,,,,,0,0,1,,,,,0,,,67,103
30336,note_on,,,,,0,0,3,,,,,2,,,61,84
30528,note_on,,,,,0,0,1,,,,,0,,,63,103
30528,note_off,,,,,192,0,1,,,,,0,,,67,0
30720,note_on,,,,,0,0,3,,,,,2,,,60,84
30720,note_on,,,,,0,0,2,,,,,1,,,63,90
30720,note_off,,,,,384,0,3,,,,,2,,,61,0
30720,note_on,,,,,0,0,1,,,,,0,,,63,103
30720,note_off,,,,,1536,0,2,,,,,1,,,63,0
30720,note_on,,,,,0,0,4,,,,,3,,,44,78
30720,note_off,,,,,768,0,4,,,,,3,,,43,0
30720,note_off,,,,,192,0,1,,,,,0,,,63,0
31488,note_off,,,,,768,0,1,,,,,0,,,63,0
31488,note_on,,,,,0,0,1,,,,,0,,,72,103
31872,note_off,,,,,1152,0,3,,,,,2,,,60,0
31872,note_off,,,,,1152,0,4,,,,,3,,,44,0
31872,note_off,,,,,384,0,1,,,,,0,,,72,0
31872,note_off,,,,,1152,0,2,,,,,1,,,63,0
32256,note_on,,,,,384,0,3,,,,,2,,,52,84
32256,note_on,,,,,384,0,1,,,,,0,,,72,103
32256,note_on,,,,,384,0,2,,,,,1,,,60,90
33024,note_on,,,,,1152,0,4,,,,,3,,,40,78
33024,note_off,,,,,768,0,3,,,,,2,,,52,0
33024,note_on,,,,,0,0,3,,,,,2,,,55,84
33216,note_on,,,,,0,0,1,,,,,0,,,67,103
33216,note_off,,,,,960,0,1,,,,,0,,,72,0
33408,note_on,,,,,0,0,1,,,,,0,,,64,103
33408,note_on,,,,,0,0,3,,,,,2,,,58,84
33408,note_off,,,,,384,0,3,,,,,2,,,55,0
33408,note_off,,,,,192,0,1,,,,,0,,,67,0
33600,note_off,,,,,192,0,1,,,,,0,,,64,0
33600,note_on,,,,,0,0,1,,,,,0,,,60,103
33792,note_off,,,,,768,0,4,,,,,3,,,40,0
33792,note_on,,,,,0,0,4,,,,,3,,,41,78
33792,note_off,,,,,1536,0,2,,,,,1,,,60,0
33792,note_on,,,,,0,0,2,,,,,1,,,60,90
33792,note_off,,,,,192,0,1,,,,,0,,,60,0
33792,note_on,,,,,0,0,3,,,,,2,,,56,84
33792,note_off,,,,,384,0,3,,,,,2,,,58,0
33792,note_on,,,,,0,0,1,,,,,0,,,60,103
34560,note_off,,,,,768,0,1,,,,,0,,,60,0
34560,note_on,,,,,0,0,1,,,,,0,,,68,103
34944,note_off,,,,,1152,0,2,,,,,1,,,60,0
34944,note_off,,,,,1152,0,4,,,,,3,,,41,0
34944,note_off,,,,,1152,0,3,,,,,2,,,56,0
34944,note_off,,,,,384,0,1,,,,,0,,,68,0
35712,note_on,,,,,768,0,3,,,,,2,,,53,84
35712,note_on,,,,,768,0,1,,,,,0,,,65,103
36096,note_on,,,,,0,0,3,,,,,2,,,56,84
36096,note_off,,,,,384,0,3,,,,,2,,,53,0
36096,note_on,,,,,0,0,1,,,,,0,,,68,103
36096,note_off,,,,,384,0,1,,,,,0,,,65,0
36480,note_off,,,,,384,0,3,,,,,2,,,56,0
36480,note_off,,,,,384,0,1,,,,,0,,,68,0
36480,note_on,,,,,0,0,1,,,,,0,,,72,103
36480,note_on,,,,,0,0,3,,,,,2,,,60,84
36864,note_on,,,,,1920,0,2,,,,,1,,,65,90
36864,note_on,,,,,1920,0,4,,,,,3,,,50,78
36864,note_off,,,,,384,0,3,,,,,2,,,60,0
36864,note_on,,,,,0,0,3,,,,,2,,,58,84
36864,note_off,,,,,384,0,1,,,,,0,,,72,0
36864,note_on,,,,,0,0,1,,,,,0,,,70,103
37440,note_on,,,,,0,0,1,,,,,0,,,68,103
37440,note_off,,,,,576,0,1,,,,,0,,,70,0
37632,note_on,,,,,0,0,4,,,,,3,,,51,78
37632,note_off,,,,,768,0,4,,,,,3,,,50,0
37632,note_off,,,,,768,0,2,,,,,1,,,65,0
37632,note_on,,,,,0,0,1,,,,,0,,,67,103
37632,note_off,,,,,192,0,1,,,,,0,,,68,0
37632,note_on,,,,,0,0,2,,,,,1,,,63,90
38016,note_off,,,,,384,0,4,,,,,3,,,51,0
38016,note_off,,,,,384,0,1,,,,,0,,,67,0
38016,note_off,,,,,384,0,2,,,,,1,,,63,0
38016,note_off,,,,,1152,0,3,,,,,2,,,58,0
38400,note_on,,,,,384,0,4,,,,,3,,,44,78
38400,note_on,,,,,384,0,3,,,,,2,,,60,84
38400,note_on,,,,,384,0,1,,,,,0,,,65,103
38592,note_on,,,,,0,0,1,,,,,0,,,64,103
38592,note_off,,,,,192,0,1,,,,,0,,,65,0
38784,note_off,,,,,192,0,1,,,,,0,,,64,0
38784,note_on,,,,,0,0,1,,,,,0,,,67,103
38784,note_on,,,,,0,0,4,,,,,3,,,43,78
38784,note_off,,,,,384,0,4,,,,,3,,,44,0
38976,note_on,,,,,0,0,1,,,,,0,,,65,103
38976,note_off,,,,,192,0,1,,,,,0,,,67,0
39168,note_on,,,,,0,0,4,,,,,3,,,41,78
39168,note_off,,,,,192,0,1,,,,,0,,,65,0
39168,note_on,,,,,0,0,1,,,,,0,,,70,103
39168,note_off,,,,,384,0,4,,,,,3,,,43,0
39360,note_on,,,,,0,0,1,,,,,0,,,68,103
39360,note_off,,,,,192,0,1,,,,,0,,,70,0
39552,note_on,,,,,0,0,1,,,,,0,,,65,103
39552,note_off,,,,,192,0,1,,,,,0,,,68,0
39552,note_on,,,,,0,0,4,,,,,3,,,46,78
39552,note_off,,,,,384,0,4,,,,,3,,,41,0
39552,note_on,,,,,0,0,3,,,,,2,,,56,84
39552,note_off,,,,,1152,0,3,,,,,2,,,60,0
39744,note_off,,,,,192,0,1,,,,,0,,,65,0
39744,note_on,,,,,0,0,1,,,,,0,,,62,103
39936,note_on,,,,,0,0,1,,,,,0,,,55,103
39936,note_off,,,,,192,0,1,,,,,0,,,62,0
39936,note_on,,,,,0,0,1,,,,,0,,,63,103
39936,note_off,,,,,384,0,3,,,,,2,,,56,0
39936,note_on,,,,,0,0,2,,,,,1,,,55,90
39936,note_off,,,,,384,0,4,,,,,3,,,46,0
39936,note_on,,,,,0,0,4,,,,,3,,,39,78
39936,note_on,,,,,0,0,3,,,,,2,,,55,84
39936,note_on,,,,,1920,0,2,,,,,1,,,63,90
40128,note_off,,,,,192,0,3,,,,,2,,,55,0
40128,note_on,,,,,0,0,3,,,,,2,,,58,84
40320,note_on,,,,,0,0,3,,,,,2,,,63,84
40320,note_off,,,,,192,0,3,,,,,2,,,58,0
40512,note_off,,,,,192,0,3,,,,,2,,,63,0
40512,note_on,,,,,0,0,3,,,,,2,,,58,84
40704,note_off,,,,,0,0,1,,,,,0,,,63,0
40704,note_off,,,,,768,0,2,,,,,1,,,63,0
40704,note_off,,,,,0,0,2,,,,,1,,,55,0
40704,note_off,,,,,192,0,3,,,,,2,,,58,0
40704,note_off,,,,,768,0,1,,,,,0,,,55,0
40704,note_on,,,,,0,0,3,,,,,2,,,55,84
40896,note_off,,,,,192,0,3,,,,,2,,,55,0
40896,note_on,,,,,0,0,3,,,,,2,,,58,84
41088,note_on,,,,,384,0,1,,,,,0,,,79,103
41088,note_off,,,,,192,0,3,,,,,2,,,58,0
41088,note_on,,,,,0,0,3,,,,,2,,,63,84
41280,note_on,,,,,0,0,3,,,,,2,,,58,84
41280,note_off,,,,,192,0,3,,,,,2,,,63,0
41472,note_on,,,,,0,0,1,,,,,0,,,77,103
41472,note_on,,,,,0,0,3,,,,,2,,,56,84
41472,note_off,,,,,192,0,3,,,,,2,,,58,0
41472,note_off,,,,,384,0,1,,,,,0,,,79,0
41664,note_off,,,,,192,0,3,,,,,2,,,56,0
41664,note_on,,,,,0,0,3,,,,,2,,,58,84
41856,note_off,,,,,192,0,3,,,,,2,,,58,0
41856,note_on,,,,,0,0,3,,,,,2,,,62,84
42048,note_on,,,,,0,0,1,,,,,0,,,75,103
42048,note_off,,,,,576,0,1,,,,,0,,,77,0
42048,note_off,,,,,192,0,3,,,,,2,,,62,0
42048,note_on,,,,,0,0,3,,,,,2,,,58,84
42240,note_off,,,,,192,0,1,,,,,0,,,75,0
42240,note_off,,,,,192,0,3,,,,,2,,,58,0
42240,note_on,,,,,0,0,3,,,,,2,,,56,84
42240,note_on,,,,,0,0,1,,,,,0,,,74,103
42432,note_off,,,,,192,0,3,,,,,2,,,56,0
42432,note_on,,,,,0,0,3,,,,,2,,,58,84
42624,note_on,,,,,0,0,3,,,,,2,,,62,84
42624,note_off,,,,,192,0,3,,,,,2,,,58,0
42624,note_on,,,,,0,0,1,,,,,0,,,77,103
42624,note_off,,,,,384,0,1,,,,,0,,,74,0
42816,note_off,,,,,192,0,3,,,,,2,,,62,0
42816,note_on,,,,,0,0,3,,,,,2,,,58,84
43008,note_off,,,,,384,0,1,,,,,0,,,77,0
43008,note_off,,,,,192,0,3,,,,,2,,,58,0
43008,note_on,,,,,0,0,3,,,,,2,,,55,84
43008,note_on,,,,,0,0,1,,,,,0,,,70,103
43008,note_on,,,,,0,0,4,,,,,3,,,39,78
43008,note_off,,,,,3072,0,4,,,,,3,,,39,49
43200,note_off,,,,,192,0,3,,,,,2,,,55,0
43200,note_on,,,,,0,0,3,,,,,2,,,58,84
43392,note_off,,,,,192,0,3,,,,,2,,,58,0
43392,note_on,,,,,0,0,3,,,,,2,,,63,84
43584,note_off,,,,,576,0,1,,,,,0,,,70,0
43584,note_on,,,,,0,0,1,,,,,0,,,72,103
43584,note_off,,,,,192,0,3,,,,,2,,,63,0
43584,note_on,,,,,0,0,3,,,,,2,,,58,84
43680,note_on,,,,,0,0,1,,,,,0,,,74,103
43680,note_off,,,,,96,0,1,,,,,0,,,72,0
43776,note_on,,,,,0,0,3,,,,,2,,,55,84
43776,note_on,,,,,0,0,1,,,,,0,,,75,103
43776,note_off,,,,,96,0,1,,,,,0,,,74,0
43776,note_off,,,,,192,0,3,,,,,2,,,58,0
43968,note_off,,,,,192,0,3,,,,,2,,,55,0
43968,note_on,,,,,0,0,3,,,,,2,,,58,84
43968,note_off,,,,,192,0,1,,,,,0,,,75,0
44160,note_on,,,,,192,0,1,,,,,0,,,79,103
44160,note_on,,,,,3456,0,2,,,,,1,,,67,90
44160,note_off,,,,,192,0,3,,,,,2,,,58,0
44160,note_on,,,,,0,0,3,,,,,2,,,63,84
44352,note_off,,,,,192,0,3,,,,,2,,,63,0
44352,note_on,,,,,0,0,3,,,,,2,,,58,84
44544,note_off,,,,,384,0,1,,,,,0,,,79,0
44544,note_on,,,,,0,0,3,,,,,2,,,56,84
44544,note_on,,,,,0,0,2,,,,,1,,,65,90
44544,note_off,,,,,384,0,2,,,,,1,,,67,0
44544,note_off,,,,,192,0,3,,,,,2,,,58,0
44544,note_on,,,,,0,0,1,,,,,0,,,77,103
44736,note_off,,,,,192,0,3,,,,,2,,,56,0
44736,note_on,,,,,0,0,3,,,,,2,,,58,84
44928,note_on,,,,,0,0,3,,,,,2,,,62,84
44928,note_off,,,,,192,0,3,,,,,2,,,58,0
45120,note_on,,,,,0,0,1,,,,,0,,,75,103
45120,note_off,,,,,576,0,2,,,,,1,,,65,0
45120,note_on,,,,,0,0,2,,,,,1,,,63,90
45120,note_off,,,,,576,0,1,,,,,0,,,77,0
45120,note_off,,,,,192,0,3,,,,,2,,,62,0
45120,note_on,,,,,0,0,3,,,,,2,,,58,84
45312,note_on,,,,,0,0,2,,,,,1,,,62,90
45312,note_off,,,,,192,0,1,,,,,0,,,75,0
45312,note_off,,,,,192,0,2,,,,,1,,,63,0
45312,note_on,,,,,0,0,1,,,,,0,,,74,103
45312,note_on,,,,,0,0,3,,,,,2,,,56,84
45312,note_off,,,,,192,0,3,,,,,2,,,58,0
45504,note_off,,,,,192,0,3,,,,,2,,,56,0
45504,note_on,,,,,0,0,3,,,,,2,,,58,84
45696,note_off,,,,,384,0,2,,,,,1,,,62,0
45696,note_on,,,,,0,0,1,,,,,0,,,77,103
45696,note_off,,,,,192,0,3,,,,,2,,,58,0
45696,note_on,,,,,0,0,2,,,,,1,,,65,90
45696,note_on,,,,,0,0,3,,,,,2,,,62,84
45696,note_off,,,,,384,0,1,,,,,0,,,74,0
45888,note_off,,,,,192,0,3,,,,,2,,,62,0
45888,note_on,,,,,0,0,3,,,,,2,,,58,84
46080,note_on,,,,,0,0,4,,,,,3,,,39,78
46080,note_off,,,,,192,0,3,,,,,2,,,58,0
46080,note_off,,,,,3072,0,4,,,,,3,,,39,49
46080,note_off,,,,,384,0,1,,,,,0,,,77,0
46080,note_on,,,,,0,0,1,,,,,0,,,70,103
46080,note_on,,,,,0,0,3,,,,,2,,,55,84
46080,note_on,,,,,0,0,2,,,,,1,,,58,90
46080,note_off,,,,,384,0,2,,,,,1,,,65,0
46272,note_on,,,,,0,0,3,,,,,2,,,58,84
46272,note_off,,,,,192,0,3,,,,,2,,,55,0
46464,note_on,,,,,0,0,3,,,,,2,,,63,84
46464,note_off,,,,,192,0,3,,,,,2,,,58,0
46656,note_off,,,,,576,0,1,,,,,0,,,70,0
46656,note_on,,,,,0,0,1,,,,,0,,,72,103
46656,note_on,,,,,0,0,2,,,,,1,,,60,90
46656,note_off,,,,,192,0,3,,,,,2,,,63,0
46656,note_on,,,,,0,0,3,,,,,2,,,58,84
46656,note_off,,,,,576,0,2,,,,,1,,,58,0
46752,note_off,,,,,96,0,2,,,,,1,,,60,0
46752,note_on,,,,,0,0,2,,,,,1,,,62,90
46752,note_off,,,,,96,0,1,,,,,0,,,72,0
46752,note_on,,,,,0,0,1,,,,,0,,,74,103
46848,note_off,,,,,192,0,3,,,,,2,,,58,0
46848,note_on,,,,,0,0,3,,,,,2,,,55,84
46848,note_off,,,,,96,0,1,,,,,0,,,74,0
46848,note_on,,,,,0,0,2,,,,,1,,,63,90
46848,note_on,,,,,0,0,1,,,,,0,,,75,103
46848,note_off,,,,,96,0,2,,,,,1,,,62,0
47040,note_on,,,,,0,0,3,,,,,2,,,58,84
47040,note_off,,,,,192,0,3,,,,,2,,,55,0
47040,note_off,,,,,192,0,1,,,,,0,,,75,0
47040,note_off,,,,,192,0,2,,,,,1,,,63,0
47232,note_on,,,,,192,0,1,,,,,0,,,75,103
47232,note_on,,,,,0,0,3,,,,,2,,,55,84
47232,note_off,,,,,192,0,3,,,,,2,,,58,0
47232,note_on,,,,,192,0,2,,,,,1,,,63,90
47424,note_on,,,,,0,0,2,,,,,1,,,67,90
47424,note_off,,,,,192,0,2,,,,,1,,,63,0
47424,note_on,,,,,0,0,1,,,,,0,,,79,103
47424,note_on,,,,,0,0,3,,,,,2,,,51,84
47424,note_off,,,,,192,0,3,,,,,2,,,55,0
47424,note_off,,,,,192,0,1,,,,,0,,,75,0
47616,note_off,,,,,192,0,2,,,,,1,,,67,0
47616,note_on,,,,,0,0,3,,,,,2,,,52,84
47616,note_off,,,,,192,0,3,,,,,2,,,51,0
47616,note_on,,,,,0,0,2,,,,,1,,,70,90
47616,note_off,,,,,1536,0,4,,,,,3,,,39,0
47616,note_off,,,,,192,0,1,,,,,0,,,79,0
47616,note_on,,,,,0,0,4,,,,,3,,,48,78
47616,note_on,,,,,0,0,1,,,,,0,,,82,103
47808,note_on,,,,,0,0,3,,,,,2,,,55,84
47808,note_off,,,,,192,0,3,,,,,2,,,52,0
48000,note_off,,,,,192,0,3,,,,,2,,,55,0
48000,note_on,,,,,0,0,3,,,,,2,,,60,84
48192,note_off,,,,,192,0,3,,,,,2,,,60,0
48192,note_on,,,,,0,0,3,,,,,2,,,55,84
48384,note_on,,,,,0,0,1,,,,,0,,,84,103
48384,note_off,,,,,768,0,1,,,,,0,,,82,0
48384,note_on,,,,,0,0,3,,,,,2,,,52,84
48384,note_off,,,,,768,0,2,,,,,1,,,70,0
48384,note_on,,,,,0,0,2,,,,,1,,,72,90
48384,note_off,,,,,192,0,3,,,,,2,,,55,0
48576,note_off,,,,,192,0,3,,,,,2,,,52,0
48576,note_on,,,,,0,0,2,,,,,1,,,70,90
48576,note_off,,,,,192,0,2,,,,,1,,,72,0
48576,note_on,,,,,0,0,1,,,,,0,,,82,103
48576,note_on,,,,,0,0,3,,,,,2,,,55,84
48576,note_off,,,,,192,0,1,,,,,0,,,84,0
48768,note_on,,,,,0,0,1,,,,,0,,,80,103
48768,note_off,,,,,192,0,1,,,,,0,,,82,0
48768,note_on,,,,,0,0,3,,,,,2,,,60,84
48768,note_on,,,,,0,0,2,,,,,1,,,68,90
48768,note_off,,,,,192,0,2,,,,,1,,,70,0
48768,note_off,,,,,192,0,3,,,,,2,,,55,0
48960,note_on,,,,,0,0,1,,,,,0,,,79,103
48960,note_off,,,,,192,0,3,,,,,2,,,60,0
48960,note_on,,,,,0,0,3,,,,,2,,,52,84
48960,note_on,,,,,0,0,2,,,,,1,,,67,90
48960,note_off,,,,,192,0,2,,,,,1,,,68,0
48960,note_off,,,,,192,0,1,,,,,0,,,80,0
49152,note_on,,,,,0,0,4,,,,,3,,,41,78
49152,note_on,,,,,0,0,2,,,,,1,,,68,90
49152,note_off,,,,,1536,0,4,,,,,3,,,48,0
49152,note_off,,,,,192,0,1,,,,,0,,,79,0
49152,note_off,,,,,192,0,2,,,,,1,,,67,0
49152,note_off,,,,,192,0,3,,,,,2,,,52,0
49152,note_on,,,,,0,0,3,,,,,2,,,53,84
49152,note_on,,,,,0,0,1,,,,,0,,,80,103
49344,note_off,,,,,192,0,3,,,,,2,,,53,0
49344,note_on,,,,,0,0,3,,,,,2,,,60,84
49536,note_off,,,,,384,0,1,,,,,0,,,80,0
49536,note_off,,,,,192,0,3,,,,,2,,,60,0
49536,note_off,,,,,384,0,2,,,,,1,,,68,0
49536,note_on,,,,,0,0,2,,,,,1,,,67,90
49536,note_on,,,,,0,0,3,,,,,2,,,58,84
49536,note_on,,,,,0,0,1,,,,,0,,,79,103
49728,note_off,,,,,192,0,3,,,,,2,,,58,0
49728,note_on,,,,,0,0,3,,,,,2,,,60,84
49920,note_off,,,,,192,0,3,,,,,2,,,60,0
49920,note_off,,,,,384,0,1,,,,,0,,,79,0
49920,note_off,,,,,384,0,2,,,,,1,,,67,0
49920,note_on,,,,,0,0,2,,,,,1,,,65,90
49920,note_on,,,,,0,0,1,,,,,0,,,77,103
49920,note_on,,,,,0,0,3,,,,,2,,,56,84
50112,note_on,,,,,0,0,3,,,,,2,,,60,84
50112,note_off,,,,,192,0,3,,,,,2,,,56,0
50304,note_off,,,,,384,0,1,,,,,0,,,77,0
50304,note_off,,,,,384,0,2,,,,,1,,,65,0
50304,note_on,,,,,0,0,2,,,,,1,,,65,90
50304,note_on,,,,,0,0,1,,,,,0,,,77,103
50304,note_on,,,,,0,0,3,,,,,2,,,56,84
50304,note_off,,,,,192,0,3,,,,,2,,,60,0
50496,note_on,,,,,0,0,2,,,,,1,,,67,90
50496,note_off,,,,,192,0,2,,,,,1,,,65,0
50496,note_off,,,,,192,0,3,,,,,2,,,56,0
50496,note_on,,,,,0,0,1,,,,,0,,,79,103
50496,note_off,,,,,192,0,1,,,,,0,,,77,0
50496,note_on,,,,,0,0,3,,,,,2,,,53,84
50688,note_off,,,,,192,0,2,,,,,1,,,67,0
50688,note_on,,,,,0,0,4,,,,,3,,,46,78
50688,note_on,,,,,0,0,1,,,,,0,,,80,103
50688,note_off,,,,,192,0,1,,,,,0,,,79,0
50688,note_off,,,,,1536,0,4,,,,,3,,,41,0
50688,note_on,,,,,0,0,2,,,,,1,,,68,90
50688,note_off,,,,,192,0,3,,,,,2,,,53,0
50688,note_on,,,,,0,0,3,,,,,2,,,50,84
50880,note_off,,,,,192,0,3,,,,,2,,,50,0
50880,note_on,,,,,0,0,3,,,,,2,,,53,84
51072,note_on,,,,,0,0,3,,,,,2,,,58,84
51072,note_off,,,,,192,0,3,,,,,2,,,53,0
51264,note_off,,,,,192,0,3,,,,,2,,,58,0
51264,note_on,,,,,0,0,3,,,,,2,,,53,84
51456,note_on,,,,,0,0,1,,,,,0,,,82,103
51456,note_off,,,,,768,0,1,,,,,0,,,80,0
51456,note_off,,,,,192,0,3,,,,,2,,,53,0
51456,note_on,,,,,0,0,3,,,,,2,,,50,84
51456,note_off,,,,,768,0,2,,,,,1,,,68,0
51456,note_on,,,,,0,0,2,,,,,1,,,70,90
51648,note_off,,,,,192,0,3,,,,,2,,,50,0
51648,note_off,,,,,192,0,2,,,,,1,,,70,0
51648,note_on,,,,,0,0,3,,,,,2,,,53,84
51648,note_on,,,,,0,0,2,,,,,1,,,68,90
51648,note_off,,,,,192,0,1,,,,,0,,,82,0
51648,note_on,,,,,0,0,1,,,,,0,,,80,103
51840,note_on,,,,,0,0,3,,,,,2,,,58,84
51840,note_off,,,,,192,0,1,,,,,0,,,80,0
51840,note_on,,,,,0,0,1,,,,,0,,,79,103
51840,note_off,,,,,192,0,3,,,,,2,,,53,0
51840,note_off,,,,,192,0,2,,,,,1,,,68,0
51840,note_on,,,,,0,0,2,,,,,1,,,67,90
52032,note_off,,,,,192,0,1,,,,,0,,,79,0
52032,note_on,,,,,0,0,2,,,,,1,,,65,90
52032,note_off,,,,,192,0,2,,,,,1,,,67,0
52032,note_on,,,,,0,0,1,,,,,0,,,77,103
52032,note_on,,,,,0,0,3,,,,,2,,,53,84
52032,note_off,,,,,192,0,3,,,,,2,,,58,0
52224,note_on,,,,,0,0,4,,,,,3,,,39,78
52224,note_off,,,,,1536,0,4,,,,,3,,,46,0
52224,note_on,,,,,0,0,1,,,,,0,,,79,103
52224,note_off,,,,,192,0,1,,,,,0,,,77,0
52224,note_on,,,,,0,0,2,,,,,1,,,67,90
52224,note_off,,,,,192,0,3,,,,,2,,,53,0
52224,note_on,,,,,0,0,3,,,,,2,,,51,84
52224,note_off,,,,,192,0,2,,,,,1,,,65,0
52416,note_off,,,,,192,0,3,,,,,2,,,51,0
52416,note_on,,,,,0,0,3,,,,,2,,,58,84
52608,note_off,,,,,192,0,3,,,,,2,,,58,0
52608,note_on,,,,,0,0,3,,,,,2,,,56,84
52608,note_on,,,,,0,0,1,,,,,0,,,77,103
52608,note_off,,,,,384,0,1,,,,,0,,,79,0
52608,note_off,,,,,384,0,2,,,,,1,,,67,0
52608,note_on,,,,,0,0,2,,,,,1,,,65,90
52800,note_on,,,,,0,0,3,,,,,2,,,58,84
52800,note_off,,,,,192,0,3,,,,,2,,,56,0
52992,note_off,,,,,384,0,2,,,,,1,,,65,0
52992,note_on,,,,,0,0,2,,,,,1,,,63,90
52992,note_on,,,,,0,0,1,,,,,0,,,75,103
52992,note_off,,,,,384,0,1,,,,,0,,,77,0
52992,note_off,,,,,192,0,3,,,,,2,,,58,0
52992,note_on,,,,,0,0,3,,,,,2,,,55,84
53184,note_off,,,,,192,0,3,,,,,2,,,55,0
53376,note_off,,,,,1152,0,4,,,,,3,,,39,0
53376,note_off,,,,,384,0,1,,,,,0,,,75,0
53376,note_on,,,,,192,0,3,,,,,2,,,55,84
53376,note_on,,,,,0,0,2,,,,,1,,,58,90
53376,note_off,,,,,384,0,2,,,,,1,,,63,0
53376,note_on,,,,,0,0,1,,,,,0,,,75,103
53568,note_on,,,,,0,0,2,,,,,1,,,59,90
53568,note_on,,,,,0,0,1,,,,,0,,,74,103
53568,note_off,,,,,192,0,1,,,,,0,,,75,0
53568,note_off,,,,,192,0,2,,,,,1,,,58,0
53760,note_off,,,,,192,0,2,,,,,1,,,59,0
53760,note_on,,,,,0,0,3,,,,,2,,,56,84
53760,note_off,,,,,384,0,3,,,,,2,,,55,0
53760,note_on,,,,,0,0,2,,,,,1,,,60,90
53760,note_on,,,,,384,0,4,,,,,3,,,51,78
53760,note_off,,,,,192,0,1,,,,,0,,,74,0
53760,note_on,,,,,0,0,1,,,,,0,,,72,103
54336,note_off,,,,,576,0,1,,,,,0,,,72,0
54336,note_on,,,,,0,0,1,,,,,0,,,75,103
54528,note_off,,,,,768,0,3,,,,,2,,,56,0
54528,note_on,,,,,0,0,3,,,,,2,,,55,84
54528,note_on,,,,,0,0,2,,,,,1,,,58,90
54528,note_off,,,,,192,0,1,,,,,0,,,75,0
54528,note_on,,,,,0,0,1,,,,,0,,,70,103
54528,note_off,,,,,768,0,2,,,,,1,,,60,0
54720,note_off,,,,,192,0,3,,,,,2,,,55,0
54720,note_off,,,,,960,0,4,,,,,3,,,51,0
54720,note_off,,,,,192,0,2,,,,,1,,,58,0
54912,note_on,,,,,0,0,1,,,,,0,,,75,103
54912,note_off,,,,,384,0,1,,,,,0,,,70,0
54912,note_on,,,,,192,0,3,,,,,2,,,55,84
54912,note_on,,,,,192,0,2,,,,,1,,,58,90
55104,note_off,,,,,192,0,1,,,,,0,,,75,0
55104,note_on,,,,,0,0,1,,,,,0,,,74,103
55104,note_off,,,,,192,0,2,,,,,1,,,58,0
55104,note_on,,,,,0,0,2,,,,,1,,,59,90
55296,note_off,,,,,192,0,1,,,,,0,,,74,0
55296,note_on,,,,,576,0,4,,,,,3,,,51,78
55296,note_off,,,,,384,0,3,,,,,2,,,55,0
55296,note_on,,,,,0,0,3,,,,,2,,,56,84
55296,note_on,,,,,0,0,2,,,,,1,,,60,90
55296,note_off,,,,,192,0,2,,,,,1,,,59,0
55296,note_on,,,,,0,0,1,,,,,0,,,72,103
55872,note_on,,,,,0,0,1,,,,,0,,,75,103
55872,note_off,,,,,576,0,1,,,,,0,,,72,0
56064,note_off,,,,,768,0,3,,,,,2,,,56,0
56064,note_on,,,,,0,0,3,,,,,2,,,55,84
56064,note_off,,,,,768,0,2,,,,,1,,,60,0
56064,note_on,,,,,0,0,2,,,,,1,,,58,90
56064,note_on,,,,,0,0,1,,,,,0,,,70,103
56064,note_off,,,,,192,0,1,,,,,0,,,75,0
56256,note_off,,,,,192,0,3,,,,,2,,,55,0
56256,note_off,,,,,960,0,4,,,,,3,,,51,0
56448,note_off,,,,,384,0,2,,,,,1,,,58,0
56448,note_on,,,,,192,0,3,,,,,2,,,63,84
56448,note_on,,,,,0,0,1,,,,,0,,,79,103
56448,note_off,,,,,384,0,1,,,,,0,,,70,0
56640,note_off,,,,,192,0,3,,,,,2,,,63,0
56640,note_on,,,,,0,0,3,,,,,2,,,58,84
56832,note_off,,,,,192,0,3,,,,,2,,,58,0
56832,note_on,,,,,56832,0,5,,,,,4,,,46,100
56832,note_off,,,,,384,0,1,,,,,0,,,79,0
56832,note_on,,,,,0,0,1,,,,,0,,,77,103
56832,note_on,,,,,0,0,3,,,,,2,,,56,84
57024,note_off,,,,,192,0,3,,,,,2,,,56,0
57024,note_on,,,,,0,0,3,,,,,2,,,58,84
57216,note_on,,,,,0,0,5,,,,,4,,,65,100
57216,note_on,,,,,0,0,5,,,,,4,,,58,100
57216,note_off,,,,,384,0,5,,,,,4,,,46,0
57216,note_on,,,,,0,0,3,,,,,2,,,62,84
57216,note_off,,,,,192,0,3,,,,,2,,,58,0
57408,note_on,,,,,0,0,3,,,,,2,,,58,84
57408,note_off,,,,,576,0,1,,,,,0,,,77,0
57408,note_on,,,,,0,0,1,,,,,0,,,75,103
57408,note_off,,,,,192,0,3,,,,,2,,,62,0
57600,note_off,,,,,192,0,3,,,,,2,,,58,0
57600,note_on,,,,,0,0,3,,,,,2,,,56,84
57600,note_off,,,,,0,0,5,,,,,4,,,65,0
57600,note_off,,,,,384,0,5,,,,,4,,,58,0
57600,note_on,,,,,0,0,5,,,,,4,,,65,100
57600,note_off,,,,,192,0,1,,,,,0,,,75,0
57600,note_on,,,,,0,0,1,,,,,0,,,74,103
57600,note_on,,,,,0,0,5,,,,,4,,,58,100
57792,note_off,,,,,192,0,3,,,,,2,,,56,0
57792,note_on,,,,,0,0,3,,,,,2,,,58,84
57984,note_off,,,,,192,0,3,,,,,2,,,58,0
57984,note_on,,,,,0,0,1,,,,,0,,,77,103
57984,note_off,,,,,0,0,5,,,,,4,,,65,0
57984,note_off,,,,,384,0,5,,,,,4,,,58,0
57984,note_off,,,,,384,0,1,,,,,0,,,74,0
57984,note_on,,,,,0,0,3,,,,,2,,,62,84
58176,note_off,,,,,192,0,3,,,,,2,,,62,0
58176,note_on,,,,,0,0,3,,,,,2,,,58,84
58368,note_on,,,,,0,0,1,,,,,0,,,70,103
58368,note_on,,,,,384,0,5,,,,,4,,,39,100
58368,note_off,,,,,384,0,1,,,,,0,,,77,0
58368,note_on,,,,,0,0,3,,,,,2,,,55,84
58368,note_off,,,,,192,0,3,,,,,2,,,58,0
58560,note_off,,,,,192,0,3,,,,,2,,,55,0
58560,note_on,,,,,0,0,3,,,,,2,,,58,84
58752,note_off,,,,,192,0,3,,,,,2,,,58,0
58752,note_on,,,,,0,0,3,,,,,2,,,63,84
58752,note_off,,,,,384,0,5,,,,,4,,,39,0
58752,note_on,,,,,0,0,5,,,,,4,,,55,100
58752,note_on,,,,,0,0,5,,,,,4,,,63,100
58944,note_on,,,,,0,0,1,,,,,0,,,72,103
58944,note_on,,,,,0,0,3,,,,,2,,,58,84
58944,note_off,,,,,192,0,3,,,,,2,,,63,0
58944,note_off,,,,,576,0,1,,,,,0,,,70,0
59040,note_off,,,,,96,0,1,,,,,0,,,72,0
59040,note_on,,,,,0,0,1,,,,,0,,,74,103
59136,note_on,,,,,0,0,3,,,,,2,,,55,84
59136,note_off,,,,,192,0,3,,,,,2,,,58,0
59136,note_off,,,,,96,0,1,,,,,0,,,74,0
59136,note_on,,,,,0,0,1,,,,,0,,,75,103
59136,note_off,,,,,0,0,5,,,,,4,,,55,0
59136,note_on,,,,,0,0,5,,,,,4,,,55,100
59136,note_on,,,,,0,0,5,,,,,4,,,63,100
59136,note_off,,,,,384,0,5,,,,,4,,,63,0
59328,note_off,,,,,192,0,1,,,,,0,,,75,0
59328,note_on,,,,,0,0,3,,,,,2,,,58,84
59328,note_off,,,,,192,0,3,,,,,2,,,55,0
59520,note_on,,,,,192,0,1,,,,,0,,,82,103
59520,note_on,,,,,0,0,3,,,,,2,,,63,84
59520,note_off,,,,,384,0,5,,,,,4,,,55,0
59520,note_off,,,,,0,0,5,,,,,4,,,63,0
59520,note_off,,,,,192,0,3,,,,,2,,,58,0
59712,note_off,,,,,192,0,1,,,,,0,,,82,0
59712,note_on,,,,,0,0,1,,,,,0,,,79,103
59712,note_on,,,,,0,0,3,,,,,2,,,58,84
59712,note_off,,,,,192,0,3,,,,,2,,,63,0
59904,note_on,,,,,0,0,1,,,,,0,,,77,103
59904,note_off,,,,,192,0,1,,,,,0,,,79,0
59904,note_off,,,,,192,0,3,,,,,2,,,58,0
59904,note_on,,,,,0,0,3,,,,,2,,,56,84
59904,note_on,,,,,384,0,5,,,,,4,,,46,100
60096,note_off,,,,,192,0,3,,,,,2,,,56,0
60096,note_on,,,,,0,0,3,,,,,2,,,58,84
60288,note_off,,,,,192,0,3,,,,,2,,,58,0
60288,note_on,,,,,0,0,3,,,,,2,,,62,84
60288,note_on,,,,,0,0,5,,,,,4,,,65,100
60288,note_on,,,,,0,0,5,,,,,4,,,58,100
60288,note_off,,,,,384,0,5,,,,,4,,,46,0
60480,note_off,,,,,192,0,3,,,,,2,,,62,0
60480,note_on,,,,,0,0,3,,,,,2,,,58,84
60480,note_off,,,,,576,0,1,,,,,0,,,77,0
60480,note_on,,,,,0,0,1,,,,,0,,,75,103
60672,note_on,,,,,0,0,5,,,,,4,,,65,100
60672,note_off,,,,,192,0,3,,,,,2,,,58,0
60672,note_on,,,,,0,0,3,,,,,2,,,56,84
60672,note_off,,,,,192,0,1,,,,,0,,,75,0
60672,note_on,,,,,0,0,1,,,,,0,,,74,103
60672,note_off,,,,,384,0,5,,,,,4,,,58,0
60672,note_off,,,,,0,0,5,,,,,4,,,65,0
60672,note_on,,,,,0,0,5,,,,,4,,,58,100
60864,note_off,,,,,192,0,3,,,,,2,,,56,0
60864,note_on,,,,,0,0,3,,,,,2,,,58,84
61056,note_off,,,,,0,0,5,,,,,4,,,65,0
61056,note_off,,,,,384,0,1,,,,,0,,,74,0
61056,note_on,,,,,0,0,1,,,,,0,,,77,103
61056,note_off,,,,,192,0,3,,,,,2,,,58,0
61056,note_on,,,,,0,0,3,,,,,2,,,62,84
61056,note_off,,,,,384,0,5,,,,,4,,,58,0
61248,note_off,,,,,192,0,3,,,,,2,,,62,0
61248,note_on,,,,,0,0,3,,,,,2,,,58,84
61440,note_on,,,,,0,0,3,,,,,2,,,55,84
61440,note_on,,,,,384,0,5,,,,,4,,,39,100
61440,note_off,,,,,384,0,1,,,,,0,,,77,0
61440,note_on,,,,,0,0,1,,,,,0,,,70,103
61440,note_off,,,,,192,0,3,,,,,2,,,58,0
61632,note_off,,,,,192,0,3,,,,,2,,,55,0
61632,note_on,,,,,0,0,3,,,,,2,,,58,84
61824,note_on,,,,,0,0,5,,,,,4,,,55,100
61824,note_on,,,,,0,0,3,,,,,2,,,63,84
61824,note_off,,,,,192,0,3,,,,,2,,,58,0
61824,note_on,,,,,0,0,5,,,,,4,,,63,100
61824,note_off,,,,,384,0,5,,,,,4,,,39,0
62016,note_on,,,,,0,0,1,,,,,0,,,72,103
62016,note_off,,,,,576,0,1,,,,,0,,,70,0
62016,note_on,,,,,0,0,3,,,,,2,,,58,84
62016,note_off,,,,,192,0,3,,,,,2,,,63,0
62112,note_on,,,,,0,0,1,,,,,0,,,74,103
62112,note_off,,,,,96,0,1,,,,,0,,,72,0
62208,note_on,,,,,0,0,5,,,,,4,,,63,100
62208,note_on,,,,,0,0,5,,,,,4,,,55,100
62208,note_off,,,,,0,0,5,,,,,4,,,55,0
62208,note_on,,,,,0,0,3,,,,,2,,,55,84
62208,note_off,,,,,384,0,5,,,,,4,,,63,0
62208,note_off,,,,,192,0,3,,,,,2,,,58,0
62208,note_off,,,,,96,0,1,,,,,0,,,74,0
62208,note_on,,,,,0,0,1,,,,,0,,,75,103
62400,note_on,,,,,0,0,3,,,,,2,,,58,84
62400,note_off,,,,,192,0,3,,,,,2,,,55,0
62400,note_off,,,,,192,0,1,,,,,0,,,75,0
62592,note_off,,,,,0,0,5,,,,,4,,,63,0
62592,note_off,,,,,384,0,5,,,,,4,,,55,0
62592,note_on,,,,,192,0,1,,,,,0,,,87,103
62592,note_on,,,,,0,0,3,,,,,2,,,63,84
62592,note_off,,,,,192,0,3,,,,,2,,,58,0
62592,note_on,,,,,0,0,5,,,,,4,,,43,100
62784,note_off,,,,,192,0,1,,,,,0,,,87,0
62784,note_on,,,,,0,0,1,,,,,0,,,79,103
62784,note_on,,,,,0,0,3,,,,,2,,,58,84
62784,note_off,,,,,192,0,3,,,,,2,,,63,0
62976,note_on,,,,,6528,0,2,,,,,1,,,67,90
62976,note_on,,,,,6720,0,4,,,,,3,,,44,78
62976,note_on,,,,,0,0,3,,,,,2,,,64,84
62976,note_off,,,,,192,0,3,,,,,2,,,58,0
62976,note_off,,,,,384,0,5,,,,,4,,,43,0
62976,note_on,,,,,0,0,1,,,,,0,,,79,103
62976,note_off,,,,,192,0,1,,,,,0,,,79,0
63168,note_off,,,,,192,0,1,,,,,0,,,79,0
63168,note_on,,,,,0,0,2,,,,,1,,,65,90
63168,note_off,,,,,192,0,2,,,,,1,,,67,0
63168,note_on,,,,,0,0,1,,,,,0,,,77,103
63168,note_on,,,,,0,0,3,,,,,2,,,65,84
63168,note_off,,,,,192,0,3,,,,,2,,,64,0
63360,note_on,,,,,0,0,3,,,,,2,,,60,84
63360,note_off,,,,,192,0,3,,,,,2,,,65,0
63360,note_on,,,,,0,0,2,,,,,1,,,68,90
63360,note_off,,,,,192,0,2,,,,,1,,,65,0
63360,note_on,,,,,0,0,1,,,,,0,,,80,103
63360,note_off,,,,,192,0,1,,,,,0,,,77,0
63552,note_on,,,,,0,0,3,,,,,2,,,56,84
63552,note_off,,,,,192,0,3,,,,,2,,,60,0
63552,note_off,,,,,192,0,1,,,,,0,,,80,0
63552,note_off,,,,,192,0,2,,,,,1,,,68,0
63552,note_on,,,,,0,0,2,,,,,1,,,72,90
63552,note_on,,,,,0,0,1,,,,,0,,,84,103
63744,note_off,,,,,768,0,4,,,,,3,,,44,0
63744,note_on,,,,,0,0,4,,,,,3,,,46,78
63744,note_off,,,,,192,0,2,,,,,1,,,72,0
63744,note_on,,,,,0,0,2,,,,,1,,,63,90
63744,note_off,,,,,192,0,3,,,,,2,,,56,0
63744,note_on,,,,,0,0,3,,,,,2,,,55,84
63744,note_off,,,,,192,0,1,,,,,0,,,84,0
63744,note_on,,,,,0,0,1,,,,,0,,,75,103
64128,note_on,,,,,0,0,1,,,,,0,,,79,103
64128,note_off,,,,,384,0,3,,,,,2,,,55,0
64128,note_off,,,,,384,0,1,,,,,0,,,75,0
64128,note_off,,,,,384,0,2,,,,,1,,,63,0
64128,note_on,,,,,0,0,2,,,,,1,,,67,90
64128,note_on,,,,,0,0,3,,,,,2,,,50,84
64320,note_on,,,,,0,0,1,,,,,0,,,77,103
64320,note_off,,,,,192,0,1,,,,,0,,,79,0
64320,note_off,,,,,192,0,2,,,,,1,,,67,0
64320,note_on,,,,,0,0,2,,,,,1,,,65,90
64512,note_off,,,,,192,0,1,,,,,0,,,77,0
64512,note_off,,,,,384,0,3,,,,,2,,,50,0
64512,note_on,,,,,0,0,3,,,,,2,,,55,84
64512,note_on,,,,,0,0,3,,,,,2,,,62,84
64512,note_on,,,,,0,0,4,,,,,3,,,47,78
64512,note_off,,,,,768,0,4,,,,,3,,,46,0
64512,note_on,,,,,0,0,1,,,,,0,,,67,103
64512,note_off,,,,,192,0,2,,,,,1,,,65,0
64512,note_on,,,,,0,0,2,,,,,1,,,55,90
64512,note_on,,,,,0,0,1,,,,,0,,,79,103
64512,note_on,,,,,0,0,2,,,,,1,,,62,90
65664,note_off,,,,,1152,0,2,,,,,1,,,55,0
65664,note_off,,,,,0,0,2,,,,,1,,,62,0
65664,note_on,,,,,0,0,2,,,,,1,,,67,90
65664,note_off,,,,,1152,0,4,,,,,3,,,47,0
65664,note_off,,,,,0,0,3,,,,,2,,,62,0
65664,note_on,,,,,0,0,1,,,,,0,,,79,103
65664,note_off,,,,,0,0,1,,,,,0,,,79,0
65664,note_off,,,,,1152,0,1,,,,,0,,,67,0
65664,note_off,,,,,1152,0,3,,,,,2,,,55,0
65952,note_off,,,,,288,0,1,,,,,0,,,79,0
65952,note_on,,,,,0,0,1,,,,,0,,,78,103
65952,note_on,,,,,0,0,2,,,,,1,,,66,90
65952,note_off,,,,,288,0,2,,,,,1,,,67,0
66048,note_on,,,,,0,0,2,,,,,1,,,67,90
66048,note_off,,,,,96,0,2,,,,,1,,,66,0
66048,note_on,,,,,0,0,1,,,,,0,,,79,103
66048,note_off,,,,,96,0,1,,,,,0,,,78,0
66240,note_off,,,,,192,0,1,,,,,0,,,79,0
66240,note_off,,,,,192,0,2,,,,,1,,,67,0
66432,note_on,,,,,192,0,1,,,,,0,,,79,103
66432,note_on,,,,,192,0,2,,,,,1,,,67,90
66720,note_off,,,,,288,0,2,,,,,1,,,67,0
66720,note_off,,,,,288,0,1,,,,,0,,,79,0
66720,note_on,,,,,0,0,1,,,,,0,,,78,103
66720,note_on,,,,,0,0,2,,,,,1,,,66,90
66816,note_off,,,,,96,0,2,,,,,1,,,66,0
66816,note_on,,,,,0,0,1,,,,,0,,,79,103
66816,note_off,,,,,96,0,1,,,,,0,,,78,0
66816,note_on,,,,,0,0,2,,,,,1,,,67,90
67008,note_off,,,,,192,0,2,,,,,1,,,67,0
67008,note_off,,,,,192,0,1,,,,,0,,,79,0
67200,note_on,,,,,1536,0,4,,,,,3,,,51,78
67200,note_on,,,,,192,0,1,,,,,0,,,79,103
67200,note_on,,,,,192,0,2,,,,,1,,,67,90
67200,note_on,,,,,1536,0,3,,,,,2,,,51,84
67584,note_on,,,,,0,0,3,,,,,2,,,52,84
67584,note_off,,,,,384,0,3,,,,,2,,,51,0
67584,note_off,,,,,384,0,1,,,,,0,,,79,0
67584,note_on,,,,,0,0,4,,,,,3,,,44,78
67584,note_off,,,,,384,0,4,,,,,3,,,51,0
67584,note_off,,,,,384,0,2,,,,,1,,,67,0
67584,note_on,,,,,0,0,2,,,,,1,,,70,90
67584,note_on,,,,,0,0,1,,,,,0,,,82,103
67776,note_on,,,,,0,0,3,,,,,2,,,53,84
67776,note_off,,,,,192,0,2,,,,,1,,,70,0
67776,note_on,,,,,0,0,2,,,,,1,,,68,90
67776,note_off,,,,,192,0,3,,,,,2,,,52,0
67776,note_off,,,,,192,0,1,,,,,0,,,82,0
67776,note_on,,,,,0,0,1,,,,,0,,,80,103
67968,note_on,,,,,0,0,3,,,,,2,,,55,84
67968,note_on,,,,,0,0,1,,,,,0,,,79,103
67968,note_off,,,,,192,0,1,,,,,0,,,80,0
67968,note_off,,,,,192,0,2,,,,,1,,,68,0
67968,note_on,,,,,0,0,2,,,,,1,,,67,90
67968,note_off,,,,,192,0,3,,,,,2,,,53,0
68160,note_on,,,,,0,0,1,,,,,0,,,77,103
68160,note_off,,,,,192,0,1,,,,,0,,,79,0
68160,note_off,,,,,192,0,3,,,,,2,,,55,0
68160,note_on,,,,,0,0,3,,,,,2,,,56,84
68160,note_off,,,,,192,0,2,,,,,1,,,67,0
68160,note_on,,,,,0,0,2,,,,,1,,,65,90
68352,note_on,,,,,0,0,1,,,,,0,,,75,103
68352,note_off,,,,,192,0,1,,,,,0,,,77,0
68352,note_off,,,,,192,0,2,,,,,1,,,65,0
68352,note_on,,,,,0,0,2,,,,,1,,,63,90
68352,note_on,,,,,0,0,3,,,,,2,,,55,84
68352,note_off,,,,,192,0,3,,,,,2,,,56,0
68352,note_off,,,,,768,0,4,,,,,3,,,44,0
68352,note_on,,,,,0,0,4,,,,,3,,,46,78
68736,note_off,,,,,384,0,2,,,,,1,,,63,0
68736,note_off,,,,,384,0,3,,,,,2,,,55,0
68736,note_on,,,,,0,0,1,,,,,0,,,77,103
68736,note_off,,,,,384,0,1,,,,,0,,,75,0
68736,note_on,,,,,0,0,3,,,,,2,,,50,84
68736,note_on,,,,,0,0,2,,,,,1,,,65,90
69120,note_off,,,,,384,0,2,,,,,1,,,65,0
69120,note_on,,,,,0,0,2,,,,,1,,,67,90
69120,note_off,,,,,384,0,3,,,,,2,,,50,0
69120,note_off,,,,,384,0,1,,,,,0,,,77,0
69120,note_on,,,,,0,0,1,,,,,0,,,79,103
69120,note_on,,,,,0,0,3,,,,,2,,,51,84
69120,note_on,,,,,0,0,4,,,,,3,,,39,78
69120,note_off,,,,,768,0,4,,,,,3,,,46,0
69312,note_off,,,,,192,0,1,,,,,0,,,79,0
69312,note_off,,,,,192,0,2,,,,,1,,,67,0
69504,note_on,,,,,192,0,1,,,,,0,,,79,103
69504,note_off,,,,,384,0,4,,,,,3,,,39,0
69504,note_on,,,,,192,0,2,,,,,1,,,67,90
69504,note_off,,,,,384,0,3,,,,,2,,,51,0
69792,note_off,,,,,288,0,1,,,,,0,,,79,0
69792,note_on,,,,,0,0,1,,,,,0,,,78,103
69792,note_off,,,,,288,0,2,,,,,1,,,67,0
69792,note_on,,,,,0,0,2,,,,,1,,,66,90
69888,note_on,,,,,0,0,2,,,,,1,,,67,90
69888,note_off,,,,,96,0,2,,,,,1,,,66,0
69888,note_off,,,,,96,0,1,,,,,0,,,78,0
69888,note_on,,,,,0,0,1,,,,,0,,,79,103
70080,note_off,,,,,192,0,1,,,,,0,,,79,0
70080,note_off,,,,,192,0,2,,,,,1,,,67,0
70272,note_on,,,,,768,0,3,,,,,2,,,51,84
70272,note_on,,,,,768,0,4,,,,,3,,,51,78
70272,note_on,,,,,192,0,1,,,,,0,,,79,103
70272,note_on,,,,,192,0,2,,,,,1,,,67,90
70656,note_on,,,,,0,0,4,,,,,3,,,44,78
70656,note_on,,,,,0,0,3,,,,,2,,,52,84
70656,note_off,,,,,384,0,3,,,,,2,,,51,0
70656,note_on,,,,,0,0,1,,,,,0,,,82,103
70656,note_off,,,,,384,0,4,,,,,3,,,51,0
70656,note_off,,,,,384,0,1,,,,,0,,,79,0
70656,note_off,,,,,384,0,2,,,,,1,,,67,0
70656,note_on,,,,,0,0,2,,,,,1,,,70,90
70848,note_off,,,,,192,0,1,,,,,0,,,82,0
70848,note_on,,,,,0,0,1,,,,,0,,,80,103
70848,note_on,,,,,0,0,2,,,,,1,,,68,90
70848,note_off,,,,,192,0,2,,,,,1,,,70,0
70848,note_off,,,,,192,0,3,,,,,2,,,52,0
70848,note_on,,,,,0,0,3,,,,,2,,,53,84
71040,note_on,,,,,0,0,2,,,,,1,,,67,90
71040,note_off,,,,,192,0,2,,,,,1,,,68,0
71040,note_off,,,,,192,0,1,,,,,0,,,80,0
71040,note_on,,,,,0,0,1,,,,,0,,,79,103
71040,note_off,,,,,192,0,3,,,,,2,,,53,0
71040,note_on,,,,,0,0,3,,,,,2,,,55,84
71232,note_off,,,,,192,0,3,,,,,2,,,55,0
71232,note_on,,,,,0,0,3,,,,,2,,,56,84
71232,note_on,,,,,0,0,1,,,,,0,,,77,103
71232,note_on,,,,,0,0,2,,,,,1,,,65,90
71232,note_off,,,,,192,0,2,,,,,1,,,67,0
71232,note_off,,,,,192,0,1,,,,,0,,,79,0
71424,note_off,,,,,192,0,2,,,,,1,,,65,0
71424,note_on,,,,,0,0,2,,,,,1,,,63,90
71424,note_off,,,,,192,0,1,,,,,0,,,77,0
71424,note_on,,,,,0,0,1,,,,,0,,,75,103
71424,note_off,,,,,192,0,3,,,,,2,,,56,0
71424,note_on,,,,,0,0,3,,,,,2,,,55,84
71424,note_on,,,,,0,0,4,,,,,3,,,46,78
71424,note_off,,,,,768,0,4,,,,,3,,,44,0
71712,note_on,,,,,0,0,2,,,,,1,,,67,90
71712,note_off,,,,,288,0,1,,,,,0,,,75,0
71712,note_on,,,,,0,0,1,,,,,0,,,79,103
71712,note_off,,,,,288,0,2,,,,,1,,,63,0
71808,note_off,,,,,96,0,2,,,,,1,,,67,0
71808,note_on,,,,,0,0,1,,,,,0,,,77,103
71808,note_on,,,,,0,0,2,,,,,1,,,65,90
71808,note_off,,,,,384,0,3,,,,,2,,,55,0
71808,note_on,,,,,0,0,3,,,,,2,,,58,84
71808,note_off,,,,,96,0,1,,,,,0,,,79,0
72000,note_off,,,,,192,0,3,,,,,2,,,58,0
72000,note_on,,,,,0,0,3,,,,,2,,,56,84
72192,note_off,,,,,384,0,1,,,,,0,,,77,0
72192,note_off,,,,,384,0,2,,,,,1,,,65,0
72192,note_off,,,,,192,0,3,,,,,2,,,56,0
72192,note_on,,,,,0,0,3,,,,,2,,,55,84
72192,note_off,,,,,768,0,4,,,,,3,,,46,0
72192,note_on,,,,,0,0,4,,,,,3,,,51,78
72192,note_on,,,,,0,0,1,,,,,0,,,75,103
72192,note_on,,,,,0,0,2,,,,,1,,,63,90
72576,note_off,,,,,384,0,2,,,,,1,,,63,0
72576,note_off,,,,,384,0,4,,,,,3,,,51,0
72576,note_off,,,,,384,0,1,,,,,0,,,75,0
72576,note_off,,,,,384,0,3,,,,,2,,,55,0
73344,note_on,,,,,768,0,3,,,,,2,,,51,84
73344,note_on,,,,,768,0,4,,,,,3,,,39,78
73344,note_on,,,,,768,0,2,,,,,1,,,63,90
73344,note_on,,,,,768,0,1,,,,,0,,,63,103
73728,note_off,,,,,384,0,3,,,,,2,,,51,0
73728,note_on,,,,,0,0,4,,,,,3,,,38,78
73728,note_off,,,,,384,0,4,,,,,3,,,39,0
73728,note_on,,,,,0,0,3,,,,,2,,,50,84
73728,note_off,,,,,384,0,2,,,,,1,,,63,0
73728,note_on,,,,,0,0,2,,,,,1,,,62,90
73728,note_off,,,,,384,0,1,,,,,0,,,63,0
73728,note_on,,,,,0,0,1,,,,,0,,,62,103
74496,note_off,,,,,768,0,4,,,,,3,,,38,0
74496,note_on,,,,,0,0,3,,,,,2,,,53,84
74496,note_on,,,,,0,0,2,,,,,1,,,65,90
74496,note_on,,,,,0,0,4,,,,,3,,,41,78
74496,note_off,,,,,768,0,2,,,,,1,,,62,0
74496,note_on,,,,,0,0,1,,,,,0,,,65,103
74496,note_off,,,,,768,0,1,,,,,0,,,62,0
74496,note_off,,,,,768,0,3,,,,,2,,,50,0
74880,note_on,,,,,0,0,2,,,,,1,,,68,90
74880,note_off,,,,,384,0,2,,,,,1,,,65,0
74880,note_on,,,,,0,0,1,,,,,0,,,68,103
74880,note_off,,,,,384,0,1,,,,,0,,,65,0
74880,note_on,,,,,0,0,4,,,,,3,,,44,78
74880,note_off,,,,,384,0,4,,,,,3,,,41,0
74880,note_off,,,,,384,0,3,,,,,2,,,53,0
74880,note_on,,,,,0,0,3,,,,,2,,,56,84
75264,note_on,,,,,0,0,4,,,,,3,,,43,78
75264,note_off,,,,,384,0,4,,,,,3,,,44,0
75264,note_on,,,,,0,0,1,,,,,0,,,67,103
75264,note_off,,,,,384,0,1,,,,,0,,,68,0
75264,note_off,,,,,384,0,2,,,,,1,,,68,0
75264,note_on,,,,,0,0,3,,,,,2,,,55,84
75264,note_on,,,,,0,0,2,,,,,1,,,67,90
75264,note_off,,,,,384,0,3,,,,,2,,,56,0
75648,note_off,,,,,384,0,4,,,,,3,,,43,0
75648,note_off,,,,,384,0,3,,,,,2,,,55,0
75648,note_off,,,,,384,0,1,,,,,0,,,67,0
75648,note_on,,,,,0,0,1,,,,,0,,,70,103
75648,note_on,,,,,0,0,2,,,,,1,,,70,90
75648,note_off,,,,,384,0,2,,,,,1,,,67,0
75648,note_on,,,,,0,0,4,,,,,3,,,46,78
75648,note_on,,,,,0,0,3,,,,,2,,,58,84
76032,note_off,,,,,384,0,4,,,,,3,,,46,0
76032,note_off,,,,,384,0,1,,,,,0,,,70,0
76032,note_off,,,,,384,0,2,,,,,1,,,70,0
76032,note_off,,,,,384,0,3,,,,,2,,,58,0
76416,note_on,,,,,384,0,1,,,,,0,,,67,103
76416,note_on,,,,,384,0,3,,,,,2,,,58,84
76416,note_on,,,,,384,0,4,,,,,3,,,51,78
76416,note_on,,,,,384,0,2,,,,,1,,,63,90
76800,note_off,,,,,384,0,2,,,,,1,,,63,0
76800,note_on,,,,,0,0,2,,,,,1,,,65,90
76800,note_off,,,,,384,0,4,,,,,3,,,51,0
76800,note_off,,,,,384,0,3,,,,,2,,,58,0
76800,note_on,,,,,0,0,3,,,,,2,,,58,84
76800,note_off,,,,,384,0,1,,,,,0,,,67,0
76800,note_on,,,,,0,0,1,,,,,0,,,68,103
76800,note_on,,,,,0,0,4,,,,,3,,,50,78
77568,note_off,,,,,768,0,2,,,,,1,,,65,0
77568,note_off,,,,,768,0,1,,,,,0,,,68,0
77568,note_on,,,,,0,0,1,,,,,0,,,65,103
77568,note_off,,,,,768,0,4,,,,,3,,,50,0
77568,note_on,,,,,0,0,2,,,,,1,,,62,90
77568,note_on,,,,,0,0,4,,,,,3,,,53,78
77952,note_on,,,,,0,0,3,,,,,2,,,58,84
77952,note_off,,,,,384,0,2,,,,,1,,,62,0
77952,note_on,,,,,0,0,2,,,,,1,,,58,90
77952,note_off,,,,,384,0,4,,,,,3,,,53,0
77952,note_on,,,,,0,0,1,,,,,0,,,62,103
77952,note_off,,,,,384,0,1,,,,,0,,,65,0
77952,note_off,,,,,1152,0,3,,,,,2,,,58,0
77952,note_on,,,,,0,0,4,,,,,3,,,56,78
78336,note_on,,,,,0,0,4,,,,,3,,,55,78
78336,note_off,,,,,384,0,2,,,,,1,,,58,0
78336,note_off,,,,,384,0,3,,,,,2,,,58,0
78336,note_on,,,,,0,0,3,,,,,2,,,58,84
78336,note_on,,,,,0,0,2,,,,,1,,,58,90
78336,note_on,,,,,0,0,1,,,,,0,,,63,103
78336,note_off,,,,,384,0,1,,,,,0,,,62,0
78336,note_off,,,,,384,0,4,,,,,3,,,56,0
78464,note_on,,,,,0,0,3,,,,,2,,,58,84
78464,note_off,,,,,128,0,3,,,,,2,,,58,0
78592,note_on,,,,,0,0,3,,,,,2,,,58,84
78592,note_off,,,,,128,0,3,,,,,2,,,58,0
78720,note_off,,,,,384,0,1,,,,,0,,,63,0
78720,note_on,,,,,0,0,1,,,,,0,,,58,103
78720,note_on,,,,,0,0,4,,,,,3,,,58,78
78720,note_off,,,,,384,0,4,,,,,3,,,55,0
78720,note_on,,,,,0,0,3,,,,,2,,,58,84
78720,note_off,,,,,128,0,3,,,,,2,,,58,0
78848,note_on,,,,,0,0,3,,,,,2,,,58,84
78848,note_off,,,,,128,0,3,,,,,2,,,58,0
78976,note_on,,,,,0,0,3,,,,,2,,,58,84
78976,note_off,,,,,128,0,3,,,,,2,,,58,0
79104,note_on,,,,,0,0,3,,,,,2,,,58,84
79104,note_off,,,,,128,0,3,,,,,2,,,58,0
79104,note_off,,,,,768,0,2,,,,,1,,,58,0
79104,note_off,,,,,384,0,1,,,,,0,,,58,0
79104,note_off,,,,,384,0,4,,,,,3,,,58,0
79232,note_off,,,,,128,0,3,,,,,2,,,58,0
79232,note_on,,,,,0,0,3,,,,,2,,,58,84
79360,note_off,,,,,128,0,3,,,,,2,,,58,0
79360,note_on,,,,,0,0,3,,,,,2,,,58,84
79488,note_on,,,,,384,0,4,,,,,3,,,39,78
79488,note_on,,,,,384,0,2,,,,,1,,,67,90
79488,note_on,,,,,384,0,1,,,,,0,,,79,103
79488,note_off,,,,,128,0,3,,,,,2,,,58,0
79488,note_on,,,,,0,0,3,,,,,2,,,58,84
79616,note_off,,,,,128,0,3,,,,,2,,,58,0
79616,note_on,,,,,0,0,3,,,,,2,,,58,84
79744,note_on,,,,,0,0,3,,,,,2,,,58,84
79744,note_off,,,,,128,0,3,,,,,2,,,58,0
79872,note_off,,,,,384,0,2,,,,,1,,,67,0
79872,note_off,,,,,384,0,4,,,,,3,,,39,0
79872,note_on,,,,,0,0,4,,,,,3,,,38,78
79872,note_off,,,,,128,0,3,,,,,2,,,58,0
79872,note_on,,,,,0,0,3,,,,,2,,,58,84
79872,note_off,,,,,384,0,1,,,,,0,,,79,0
79872,note_on,,,,,0,0,1,,,,,0,,,80,103
79872,note_on,,,,,0,0,2,,,,,1,,,68,90
80000,note_off,,,,,128,0,2,,,,,1,,,68,0
80000,note_on,,,,,0,0,2,,,,,1,,,70,90
80000,note_off,,,,,128,0,1,,,,,0,,,80,0
80000,note_off,,,,,128,0,3,,,,,2,,,58,0
80000,note_on,,,,,0,0,3,,,,,2,,,58,84
80000,note_on,,,,,0,0,1,,,,,0,,,82,103
80064,note_off,,,,,64,0,2,,,,,1,,,70,0
80064,note_off,,,,,64,0,1,,,,,0,,,82,0
80128,note_on,,,,,0,0,3,,,,,2,,,58,84
80128,note_off,,,,,128,0,3,,,,,2,,,58,0
80128,note_on,,,,,64,0,1,,,,,0,,,80,103
80128,note_on,,,,,64,0,2,,,,,1,,,68,90
80192,note_off,,,,,64,0,1,,,,,0,,,80,0
80192,note_off,,,,,64,0,2,,,,,1,,,68,0
80256,note_off,,,,,128,0,3,,,,,2,,,58,0
80256,note_on,,,,,64,0,1,,,,,0,,,79,103
80256,note_on,,,,,0,0,3,,,,,2,,,58,84
80256,note_on,,,,,64,0,2,,,,,1,,,67,90
80320,note_off,,,,,64,0,2,,,,,1,,,67,0
80320,note_off,,,,,64,0,1,,,,,0,,,79,0
80384,note_on,,,,,0,0,3,,,,,2,,,58,84
80384,note_on,,,,,64,0,2,,,,,1,,,65,90
80384,note_on,,,,,64,0,1,,,,,0,,,77,103
80384,note_off,,,,,128,0,3,,,,,2,,,58,0
80448,note_off,,,,,64,0,2,,,,,1,,,65,0
80448,note_off,,,,,64,0,1,,,,,0,,,77,0
80512,note_off,,,,,128,0,3,,,,,2,,,58,0
80512,note_on,,,,,0,0,3,,,,,2,,,58,84
80512,note_on,,,,,64,0,2,,,,,1,,,63,90
80512,note_on,,,,,64,0,1,,,,,0,,,75,103
80576,note_off,,,,,64,0,2,,,,,1,,,63,0
80576,note_off,,,,,64,0,1,,,,,0,,,75,0
80640,note_on,,,,,0,0,3,,,,,2,,,58,84
80640,note_off,,,,,128,0,3,,,,,2,,,58,0
80640,note_off,,,,,768,0,4,,,,,3,,,38,0
80640,note_on,,,,,0,0,4,,,,,3,,,41,78
80640,note_on,,,,,64,0,1,,,,,0,,,74,103
80640,note_on,,,,,64,0,2,,,,,1,,,62,90
80704,note_off,,,,,64,0,1,,,,,0,,,74,0
80704,note_off,,,,,64,0,2,,,,,1,,,62,0
80768,note_off,,,,,128,0,3,,,,,2,,,58,0
80768,note_on,,,,,64,0,2,,,,,1,,,63,90
80768,note_on,,,,,64,0,1,,,,,0,,,75,103
80768,note_on,,,,,0,0,3,,,,,2,,,58,84
80832,note_off,,,,,64,0,1,,,,,0,,,75,0
80832,note_off,,,,,64,0,2,,,,,1,,,63,0
80896,note_on,,,,,64,0,1,,,,,0,,,72,103
80896,note_on,,,,,64,0,2,,,,,1,,,60,90
80896,note_on,,,,,0,0,3,,,,,2,,,58,84
80896,note_off,,,,,128,0,3,,,,,2,,,58,0
80960,note_off,,,,,64,0,1,,,,,0,,,72,0
80960,note_off,,,,,64,0,2,,,,,1,,,60,0
81024,note_on,,,,,0,0,4,,,,,3,,,44,78
81024,note_on,,,,,64,0,2,,,,,1,,,58,90
81024,note_off,,,,,384,0,4,,,,,3,,,41,0
81024,note_on,,,,,0,0,3,,,,,2,,,58,84
81024,note_off,,,,,128,0,3,,,,,2,,,58,0
81024,note_on,,,,,64,0,1,,,,,0,,,70,103
81088,note_off,,,,,64,0,2,,,,,1,,,58,0
81088,note_off,,,,,64,0,1,,,,,0,,,70,0
81152,note_on,,,,,64,0,2,,,,,1,,,60,90
81152,note_on,,,,,64,0,1,,,,,0,,,72,103
81152,note_off,,,,,128,0,3,,,,,2,,,58,0
81152,note_on,,,,,0,0,3,,,,,2,,,58,84
81216,note_off,,,,,64,0,2,,,,,1,,,60,0
81216,note_off,,,,,64,0,1,,,,,0,,,72,0
81280,note_on,,,,,64,0,2,,,,,1,,,62,90
81280,note_off,,,,,128,0,3,,,,,2,,,58,0
81280,note_on,,,,,64,0,1,,,,,0,,,74,103
81280,note_on,,,,,0,0,3,,,,,2,,,58,84
81344,note_off,,,,,64,0,2,,,,,1,,,62,0
81344,note_off,,,,,64,0,1,,,,,0,,,74,0
81408,note_on,,,,,64,0,2,,,,,1,,,63,90
81408,note_off,,,,,384,0,4,,,,,3,,,44,0
81408,note_off,,,,,128,0,3,,,,,2,,,58,0
81408,note_on,,,,,0,0,4,,,,,3,,,43,78
81408,note_on,,,,,64,0,1,,,,,0,,,75,103
81408,note_on,,,,,0,0,3,,,,,2,,,58,84
81472,note_off,,,,,64,0,2,,,,,1,,,63,0
81536,note_on,,,,,64,0,2,,,,,1,,,58,90
81600,note_off,,,,,64,0,2,,,,,1,,,58,0
81664,note_on,,,,,64,0,2,,,,,1,,,58,90
81728,note_off,,,,,64,0,2,,,,,1,,,58,0
81792,note_off,,,,,384,0,4,,,,,3,,,43,0
81792,note_off,,,,,384,0,3,,,,,2,,,58,0
81792,note_on,,,,,0,0,4,,,,,3,,,46,78
81792,note_on,,,,,0,0,1,,,,,0,,,70,103
81792,note_on,,,,,64,0,2,,,,,1,,,58,90
81792,note_off,,,,,384,0,1,,,,,0,,,75,0
81920,note_off,,,,,128,0,2,,,,,1,,,58,0
81920,note_on,,,,,0,0,2,,,,,1,,,58,90
82048,note_off,,,,,128,0,2,,,,,1,,,58,0
82048,note_on,,,,,0,0,2,,,,,1,,,58,90
82176,note_off,,,,,128,0,2,,,,,1,,,58,0
82176,note_off,,,,,384,0,4,,,,,3,,,46,0
82176,note_on,,,,,0,0,2,,,,,1,,,58,90
82176,note_off,,,,,384,0,1,,,,,0,,,70,0
82304,note_on,,,,,0,0,2,,,,,1,,,58,90
82304,note_off,,,,,128,0,2,,,,,1,,,58,0
82432,note_on,,,,,0,0,2,,,,,1,,,58,90
82432,note_off,,,,,128,0,2,,,,,1,,,58,0
82560,note_off,,,,,128,0,2,,,,,1,,,58,0
82560,note_on,,,,,768,0,3,,,,,2,,,51,84
82560,note_on,,,,,384,0,1,,,,,0,,,79,103
82560,note_on,,,,,0,0,2,,,,,1,,,58,90
82688,note_on,,,,,0,0,2,,,,,1,,,58,90
82688,note_off,,,,,128,0,2,,,,,1,,,58,0
82816,note_off,,,,,128,0,2,,,,,1,,,58,0
82816,note_on,,,,,0,0,2,,,,,1,,,58,90
82944,note_off,,,,,128,0,2,,,,,1,,,58,0
82944,note_on,,,,,0,0,2,,,,,1,,,58,90
82944,note_on,,,,,0,0,1,,,,,0,,,80,103
82944,note_off,,,,,384,0,1,,,,,0,,,79,0
82944,note_on,,,,,0,0,3,,,,,2,,,50,84
82944,note_off,,,,,384,0,3,,,,,2,,,51,0
83072,note_off,,,,,128,0,2,,,,,1,,,58,0
83072,note_on,,,,,0,0,2,,,,,1,,,58,90
83072,note_on,,,,,0,0,1,,,,,0,,,82,103
83072,note_off,,,,,128,0,1,,,,,0,,,80,0
83136,note_off,,,,,64,0,1,,,,,0,,,82,0
83200,note_on,,,,,0,0,2,,,,,1,,,58,90
83200,note_on,,,,,64,0,1,,,,,0,,,80,103
83200,note_off,,,,,128,0,2,,,,,1,,,58,0
83264,note_off,,,,,64,0,1,,,,,0,,,80,0
83328,note_on,,,,,64,0,1,,,,,0,,,79,103
83328,note_on,,,,,0,0,2,,,,,1,,,58,90
83328,note_off,,,,,128,0,2,,,,,1,,,58,0
83392,note_off,,,,,64,0,1,,,,,0,,,79,0
83456,note_off,,,,,128,0,2,,,,,1,,,58,0
83456,note_on,,,,,64,0,1,,,,,0,,,77,103
83456,note_on,,,,,0,0,2,,,,,1,,,58,90
83520,note_off,,,,,64,0,1,,,,,0,,,77,0
83584,note_off,,,,,128,0,2,,,,,1,,,58,0
83584,note_on,,,,,0,0,2,,,,,1,,,58,90
83584,note_on,,,,,64,0,1,,,,,0,,,75,103
83648,note_off,,,,,64,0,1,,,,,0,,,75,0
83712,note_off,,,,,128,0,2,,,,,1,,,58,0
83712,note_on,,,,,0,0,3,,,,,2,,,53,84
83712,note_off,,,,,768,0,3,,,,,2,,,50,0
83712,note_on,,,,,64,0,1,,,,,0,,,74,103
83712,note_on,,,,,0,0,2,,,,,1,,,58,90
83776,note_off,,,,,64,0,1,,,,,0,,,74,0
83840,note_on,,,,,64,0,1,,,,,0,,,75,103
83840,note_off,,,,,128,0,2,,,,,1,,,58,0
83840,note_on,,,,,0,0,2,,,,,1,,,58,90
83904,note_off,,,,,64,0,1,,,,,0,,,75,0
83968,note_on,,,,,0,0,2,,,,,1,,,58,90
83968,note_off,,,,,128,0,2,,,,,1,,,58,0
83968,note_on,,,,,64,0,1,,,,,0,,,72,103
84032,note_off,,,,,64,0,1,,,,,0,,,72,0
84096,note_on,,,,,64,0,1,,,,,0,,,70,103
84096,note_on,,,,,0,0,2,,,,,1,,,58,90
84096,note_on,,,,,0,0,3,,,,,2,,,56,84
84096,note_off,,,,,384,0,3,,,,,2,,,53,0
84096,note_off,,,,,128,0,2,,,,,1,,,58,0
84160,note_off,,,,,64,0,1,,,,,0,,,70,0
84224,note_on,,,,,64,0,1,,,,,0,,,72,103
84224,note_on,,,,,0,0,2,,,,,1,,,58,90
84224,note_off,,,,,128,0,2,,,,,1,,,58,0
84288,note_off,,,,,64,0,1,,,,,0,,,72,0
84352,note_off,,,,,128,0,2,,,,,1,,,58,0
84352,note_on,,,,,0,0,2,,,,,1,,,58,90
84352,note_on,,,,,64,0,1,,,,,0,,,74,103
84416,note_off,,,,,64,0,1,,,,,0,,,74,0
84480,note_on,,,,,0,0,2,,,,,1,,,58,90
84480,note_off,,,,,128,0,2,,,,,1,,,58,0
84480,note_on,,,,,0,0,3,,,,,2,,,55,84
84480,note_off,,,,,384,0,3,,,,,2,,,56,0
84480,note_on,,,,,64,0,1,,,,,0,,,75,103
84608,note_on,,,,,0,0,2,,,,,1,,,58,90
84608,note_off,,,,,128,0,2,,,,,1,,,58,0
84736,note_on,,,,,0,0,2,,,,,1,,,58,90
84736,note_off,,,,,128,0,2,,,,,1,,,58,0
84864,note_off,,,,,384,0,3,,,,,2,,,55,0
84864,note_on,,,,,0,0,1,,,,,0,,,70,103
84864,note_on,,,,,2688,0,4,,,,,3,,,46,78
84864,note_off,,,,,128,0,2,,,,,1,,,58,0
84864,note_on,,,,,0,0,3,,,,,2,,,58,84
84864,note_off,,,,,384,0,1,,,,,0,,,75,0
84864,note_on,,,,,0,0,2,,,,,1,,,58,90
84992,note_off,,,,,128,0,2,,,,,1,,,58,0
84992,note_on,,,,,0,0,2,,,,,1,,,58,90
85120,note_on,,,,,0,0,2,,,,,1,,,58,90
85120,note_off,,,,,128,0,2,,,,,1,,,58,0
85248,note_off,,,,,384,0,4,,,,,3,,,46,0
85248,note_off,,,,,128,0,2,,,,,1,,,58,0
85248,note_on,,,,,0,0,2,,,,,1,,,58,90
85248,note_off,,,,,384,0,1,,,,,0,,,70,0
85248,note_on,,,,,0,0,1,,,,,0,,,67,103
85248,note_on,,,,,0,0,4,,,,,3,,,43,78
85248,note_off,,,,,384,0,3,,,,,2,,,58,0
85248,note_on,,,,,0,0,3,,,,,2,,,55,84
85376,note_off,,,,,128,0,2,,,,,1,,,58,0
85376,note_on,,,,,0,0,2,,,,,1,,,58,90
85504,note_off,,,,,128,0,2,,,,,1,,,58,0
85504,note_on,,,,,0,0,2,,,,,1,,,58,90
85632,note_off,,,,,384,0,4,,,,,3,,,43,0
85632,note_on,,,,,0,0,4,,,,,3,,,41,78
85632,note_on,,,,,0,0,3,,,,,2,,,53,84
85632,note_off,,,,,384,0,3,,,,,2,,,55,0
85632,note_off,,,,,128,0,2,,,,,1,,,58,0
85632,note_on,,,,,0,0,2,,,,,1,,,59,90
85632,note_on,,,,,0,0,1,,,,,0,,,65,103
85632,note_off,,,,,384,0,1,,,,,0,,,67,0
85760,note_off,,,,,128,0,2,,,,,1,,,59,0
85760,note_on,,,,,0,0,2,,,,,1,,,59,90
85888,note_off,,,,,128,0,2,,,,,1,,,59,0
85888,note_on,,,,,0,0,2,,,,,1,,,59,90
86016,note_off,,,,,384,0,3,,,,,2,,,53,0
86016,note_on,,,,,0,0,1,,,,,0,,,64,103
86016,note_off,,,,,384,0,1,,,,,0,,,65,0
86016,note_on,,,,,0,0,2,,,,,1,,,60,90
86016,note_on,,,,,0,0,3,,,,,2,,,52,84
86016,note_off,,,,,384,0,4,,,,,3,,,41,0
86016,note_off,,,,,128,0,2,,,,,1,,,59,0
86016,note_on,,,,,0,0,4,,,,,3,,,40,78
86144,note_off,,,,,128,0,2,,,,,1,,,60,0
86144,note_on,,,,,0,0,2,,,,,1,,,60,90
86272,note_off,,,,,128,0,2,,,,,1,,,60,0
86272,note_on,,,,,0,0,2,,,,,1,,,60,90
86400,note_off,,,,,128,0,2,,,,,1,,,60,0
86400,note_on,,,,,0,0,2,,,,,1,,,60,90
86528,note_on,,,,,0,0,2,,,,,1,,,60,90
86528,note_off,,,,,128,0,2,,,,,1,,,60,0
86656,note_on,,,,,0,0,2,,,,,1,,,60,90
86656,note_off,,,,,128,0,2,,,,,1,,,60,0
86784,note_off,,,,,768,0,1,,,,,0,,,64,0
86784,note_on,,,,,0,0,1,,,,,0,,,67,103
86784,note_on,,,,,0,0,4,,,,,3,,,43,78
86784,note_on,,,,,0,0,2,,,,,1,,,60,90
86784,note_off,,,,,768,0,4,,,,,3,,,40,0
86784,note_on,,,,,0,0,3,,,,,2,,,55,84
86784,note_off,,,,,768,0,3,,,,,2,,,52,0
86784,note_off,,,,,128,0,2,,,,,1,,,60,0
86912,note_on,,,,,0,0,2,,,,,1,,,60,90
86912,note_off,,,,,128,0,2,,,,,1,,,60,0
87040,note_on,,,,,0,0,2,,,,,1,,,60,90
87040,note_off,,,,,128,0,2,,,,,1,,,60,0
87168,note_off,,,,,128,0,2,,,,,1,,,60,0
87168,note_on,,,,,0,0,3,,,,,2,,,58,84
87168,note_off,,,,,384,0,3,,,,,2,,,55,0
87168,note_on,,,,,0,0,2,,,,,1,,,60,90
87168,note_off,,,,,384,0,1,,,,,0,,,67,0
87168,note_on,,,,,0,0,1,,,,,0,,,70,103
87168,note_on,,,,,0,0,4,,,,,3,,,46,78
87168,note_off,,,,,384,0,4,,,,,3,,,43,0
87296,note_on,,,,,0,0,2,,,,,1,,,60,90
87296,note_off,,,,,128,0,2,,,,,1,,,60,0
87424,note_off,,,,,128,0,2,,,,,1,,,60,0
87424,note_on,,,,,0,0,2,,,,,1,,,60,90
87552,note_off,,,,,384,0,1,,,,,0,,,70,0
87552,note_on,,,,,0,0,1,,,,,0,,,68,103
87552,note_on,,,,,0,0,4,,,,,3,,,44,78
87552,note_off,,,,,384,0,4,,,,,3,,,46,0
87552,note_on,,,,,0,0,2,,,,,1,,,60,90
87552,note_off,,,,,128,0,2,,,,,1,,,60,0
87552,note_off,,,,,384,0,3,,,,,2,,,58,0
87552,note_on,,,,,0,0,3,,,,,2,,,56,84
87680,note_off,,,,,128,0,2,,,,,1,,,60,0
87680,note_on,,,,,0,0,2,,,,,1,,,60,90
87808,note_off,,,,,128,0,2,,,,,1,,,60,0
87808,note_on,,,,,0,0,2,,,,,1,,,60,90
87936,note_off,,,,,384,0,4,,,,,3,,,44,0
87936,note_on,,,,,0,0,4,,,,,3,,,48,78
87936,note_off,,,,,384,0,3,,,,,2,,,56,0
87936,note_on,,,,,0,0,3,,,,,2,,,60,84
87936,note_on,,,,,0,0,1,,,,,0,,,72,103
87936,note_off,,,,,384,0,1,,,,,0,,,68,0
87936,note_off,,,,,128,0,2,,,,,1,,,60,0
87936,note_on,,,,,0,0,2,,,,,1,,,60,90
88064,note_on,,,,,0,0,2,,,,,1,,,60,90
88064,note_off,,,,,128,0,2,,,,,1,,,60,0
88192,note_on,,,,,0,0,2,,,,,1,,,60,90
88192,note_off,,,,,128,0,2,,,,,1,,,60,0
88320,note_off,,,,,128,0,2,,,,,1,,,60,0
88320,note_on,,,,,0,0,2,,,,,1,,,60,90
88320,note_off,,,,,384,0,1,,,,,0,,,72,0
88320,note_off,,,,,384,0,4,,,,,3,,,48,0
88320,note_off,,,,,384,0,3,,,,,2,,,60,0
88448,note_off,,,,,128,0,2,,,,,1,,,60,0
88448,note_on,,,,,0,0,2,,,,,1,,,60,90
88576,note_off,,,,,128,0,2,,,,,1,,,60,0
88576,note_on,,,,,0,0,2,,,,,1,,,60,90
88704,note_off,,,,,128,0,2,,,,,1,,,60,0
88704,note_on,,,,,384,0,3,,,,,2,,,53,84
88704,note_on,,,,,0,0,2,,,,,1,,,60,90
88704,note_on,,,,,384,0,1,,,,,0,,,80,103
88832,note_off,,,,,128,0,2,,,,,1,,,60,0
88832,note_on,,,,,0,0,2,,,,,1,,,60,90
88960,note_off,,,,,128,0,2,,,,,1,,,60,0
88960,note_on,,,,,0,0,2,,,,,1,,,60,90
89088,note_off,,,,,384,0,3,,,,,2,,,53,0
89088,note_on,,,,,0,0,3,,,,,2,,,52,84
89088,note_on,,,,,0,0,2,,,,,1,,,60,90
89088,note_on,,,,,0,0,1,,,,,0,,,84,103
89088,note_off,,,,,384,0,1,,,,,0,,,80,0
89088,note_off,,,,,128,0,2,,,,,1,,,60,0
89216,note_on,,,,,0,0,1,,,,,0,,,85,103
89216,note_off,,,,,128,0,1,,,,,0,,,84,0
89216,note_on,,,,,0,0,2,,,,,1,,,60,90
89216,note_off,,,,,128,0,2,,,,,1,,,60,0
89280,note_off,,,,,64,0,1,,,,,0,,,85,0
89344,note_on,,,,,64,0,1,,,,,0,,,84,103
89344,note_on,,,,,0,0,2,,,,,1,,,60,90
89344,note_off,,,,,128,0,2,,,,,1,,,60,0
89408,note_off,,,,,64,0,1,,,,,0,,,84,0
89472,note_on,,,,,64,0,1,,,,,0,,,82,103
89472,note_off,,,,,128,0,2,,,,,1,,,60,0
89472,note_on,,,,,0,0,2,,,,,1,,,60,90
89536,note_off,,,,,64,0,1,,,,,0,,,82,0
89600,note_on,,,,,64,0,1,,,,,0,,,80,103
89600,note_on,,,,,0,0,2,,,,,1,,,60,90
89600,note_off,,,,,128,0,2,,,,,1,,,60,0
89664,note_off,,,,,64,0,1,,,,,0,,,80,0
89728,note_on,,,,,64,0,1,,,,,0,,,79,103
89728,note_off,,,,,128,0,2,,,,,1,,,60,0
89728,note_on,,,,,0,0,2,,,,,1,,,60,90
89792,note_off,,,,,64,0,1,,,,,0,,,79,0
89856,note_off,,,,,768,0,3,,,,,2,,,52,0
89856,note_on,,,,,0,0,2,,,,,1,,,60,90
89856,note_off,,,,,128,0,2,,,,,1,,,60,0
89856,note_on,,,,,64,0,1,,,,,0,,,77,103
89856,note_on,,,,,0,0,3,,,,,2,,,55,84
89920,note_off,,,,,64,0,1,,,,,0,,,77,0
89984,note_on,,,,,0,0,2,,,,,1,,,60,90
89984,note_off,,,,,128,0,2,,,,,1,,,60,0
89984,note_on,,,,,64,0,1,,,,,0,,,76,103
90048,note_off,,,,,64,0,1,,,,,0,,,76,0
90112,note_on,,,,,0,0,2,,,,,1,,,60,90
90112,note_off,,,,,128,0,2,,,,,1,,,60,0
90112,note_on,,,,,64,0,1,,,,,0,,,74,103
90176,note_off,,,,,64,0,1,,,,,0,,,74,0
90240,note_on,,,,,0,0,3,,,,,2,,,58,84
90240,note_off,,,,,128,0,2,,,,,1,,,60,0
90240,note_on,,,,,0,0,2,,,,,1,,,60,90
90240,note_on,,,,,64,0,1,,,,,0,,,72,103
90240,note_on,,,,,0,0,1,,,,,0,,,74,103
90240,note_off,,,,,384,0,3,,,,,2,,,55,0
90304,note_off,,,,,0,0,1,,,,,0,,,74,0
90304,note_off,,,,,64,0,1,,,,,0,,,72,0
90368,note_on,,,,,0,0,2,,,,,1,,,60,90
90368,note_off,,,,,128,0,2,,,,,1,,,60,0
90368,note_on,,,,,64,0,1,,,,,0,,,74,103
90432,note_off,,,,,64,0,1,,,,,0,,,74,0
90496,note_on,,,,,0,0,2,,,,,1,,,60,90
90496,note_off,,,,,128,0,2,,,,,1,,,60,0
90496,note_on,,,,,64,0,1,,,,,0,,,76,103
90560,note_off,,,,,64,0,1,,,,,0,,,76,0
90624,note_on,,,,,0,0,2,,,,,1,,,60,90
90624,note_on,,,,,0,0,3,,,,,2,,,56,84
90624,note_off,,,,,384,0,3,,,,,2,,,58,0
90624,note_on,,,,,64,0,1,,,,,0,,,77,103
90624,note_off,,,,,128,0,2,,,,,1,,,60,0
90752,note_off,,,,,128,0,2,,,,,1,,,60,0
90752,note_on,,,,,0,0,2,,,,,1,,,60,90
90880,note_on,,,,,0,0,2,,,,,1,,,60,90
90880,note_off,,,,,128,0,2,,,,,1,,,60,0
91008,note_off,,,,,384,0,3,,,,,2,,,56,0
91008,note_on,,,,,0,0,3,,,,,2,,,60,84
91008,note_on,,,,,0,0,1,,,,,0,,,72,103
91008,note_off,,,,,384,0,1,,,,,0,,,77,0
91008,note_off,,,,,128,0,2,,,,,1,,,60,0
91008,note_on,,,,,0,0,2,,,,,1,,,60,90
91136,note_off,,,,,128,0,2,,,,,1,,,60,0
91136,note_on,,,,,0,0,2,,,,,1,,,60,90
91264,note_on,,,,,0,0,2,,,,,1,,,60,90
91264,note_off,,,,,128,0,2,,,,,1,,,60,0
91392,note_off,,,,,384,0,3,,,,,2,,,60,0
91392,note_off,,,,,384,0,1,,,,,0,,,72,0
91392,note_on,,,,,0,0,2,,,,,1,,,60,90
91392,note_off,,,,,128,0,2,,,,,1,,,60,0
91520,note_on,,,,,0,0,2,,,,,1,,,60,90
91520,note_off,,,,,128,0,2,,,,,1,,,60,0
91648,note_off,,,,,128,0,2,,,,,1,,,60,0
91648,note_on,,,,,0,0,2,,,,,1,,,60,90
91776,note_on,,,,,0,0,2,,,,,1,,,62,90
91776,note_on,,,,,384,0,3,,,,,2,,,56,84
91776,note_off,,,,,128,0,2,,,,,1,,,60,0
91776,note_on,,,,,3456,0,4,,,,,3,,,44,78
91776,note_on,,,,,384,0,1,,,,,0,,,56,103
91904,note_off,,,,,128,0,2,,,,,1,,,62,0
91904,note_on,,,,,0,0,2,,,,,1,,,62,90
92032,note_off,,,,,128,0,2,,,,,1,,,62,0
92032,note_on,,,,,0,0,2,,,,,1,,,62,90
92160,note_on,,,,,0,0,3,,,,,2,,,55,84
92160,note_on,,,,,0,0,1,,,,,0,,,55,103
92160,note_off,,,,,384,0,4,,,,,3,,,44,0
92160,note_off,,,,,128,0,2,,,,,1,,,62,0
92160,note_on,,,,,0,0,2,,,,,1,,,63,90
92160,note_off,,,,,384,0,1,,,,,0,,,56,0
92160,note_off,,,,,384,0,3,,,,,2,,,56,0
92160,note_on,,,,,0,0,4,,,,,3,,,43,78
92288,note_off,,,,,128,0,2,,,,,1,,,63,0
92288,note_on,,,,,0,0,2,,,,,1,,,63,90
92416,note_on,,,,,0,0,2,,,,,1,,,63,90
92416,note_off,,,,,128,0,2,,,,,1,,,63,0
92544,note_on,,,,,0,0,2,,,,,1,,,63,90
92544,note_off,,,,,128,0,2,,,,,1,,,63,0
92672,note_on,,,,,0,0,2,,,,,1,,,63,90
92672,note_off,,,,,128,0,2,,,,,1,,,63,0
92800,note_off,,,,,128,0,2,,,,,1,,,63,0
92800,note_on,,,,,0,0,2,,,,,1,,,63,90
92928,note_on,,,,,0,0,1,,,,,0,,,58,103
92928,note_off,,,,,768,0,1,,,,,0,,,55,0
92928,note_off,,,,,128,0,2,,,,,1,,,63,0
92928,note_on,,,,,0,0,3,,,,,2,,,58,84
92928,note_off,,,,,768,0,3,,,,,2,,,55,0
92928,note_off,,,,,768,0,4,,,,,3,,,43,0
92928,note_on,,,,,0,0,4,,,,,3,,,46,78
92928,note_on,,,,,0,0,2,,,,,1,,,63,90
93056,note_on,,,,,0,0,2,,,,,1,,,63,90
93056,note_off,,,,,128,0,2,,,,,1,,,63,0
93184,note_off,,,,,128,0,2,,,,,1,,,63,0
93184,note_on,,,,,0,0,2,,,,,1,,,63,90
93312,note_on,,,,,0,0,3,,,,,2,,,61,84
93312,note_off,,,,,384,0,3,,,,,2,,,58,0
93312,note_off,,,,,384,0,4,,,,,3,,,46,0
93312,note_on,,,,,0,0,4,,,,,3,,,49,78
93312,note_off,,,,,384,0,1,,,,,0,,,58,0
93312,note_on,,,,,0,0,1,,,,,0,,,61,103
93312,note_off,,,,,128,0,2,,,,,1,,,63,0
93312,note_on,,,,,0,0,2,,,,,1,,,63,90
93440,note_on,,,,,0,0,2,,,,,1,,,63,90
93440,note_off,,,,,128,0,2,,,,,1,,,63,0
93568,note_off,,,,,128,0,2,,,,,1,,,63,0
93568,note_on,,,,,0,0,2,,,,,1,,,63,90
93696,note_off,,,,,384,0,3,,,,,2,,,61,0
93696,note_off,,,,,128,0,2,,,,,1,,,63,0
93696,note_on,,,,,0,0,2,,,,,1,,,63,90
93696,note_off,,,,,384,0,4,,,,,3,,,49,0
93696,note_on,,,,,0,0,4,,,,,3,,,48,78
93696,note_on,,,,,0,0,3,,,,,2,,,60,84
93696,note_on,,,,,0,0,1,,,,,0,,,60,103
93696,note_off,,,,,384,0,1,,,,,0,,,61,0
93824,note_off,,,,,128,0,2,,,,,1,,,63,0
93824,note_on,,,,,0,0,2,,,,,1,,,63,90
93952,note_off,,,,,128,0,2,,,,,1,,,63,0
93952,note_on,,,,,0,0,2,,,,,1,,,63,90
94080,note_off,,,,,384,0,1,,,,,0,,,60,0
94080,note_on,,,,,0,0,1,,,,,0,,,63,103
94080,note_off,,,,,128,0,2,,,,,1,,,63,0
94080,note_off,,,,,384,0,3,,,,,2,,,60,0
94080,note_on,,,,,0,0,3,,,,,2,,,63,84
94080,note_off,,,,,384,0,4,,,,,3,,,48,0
94080,note_on,,,,,0,0,2,,,,,1,,,63,90
94080,note_on,,,,,0,0,4,,,,,3,,,51,78
94208,note_off,,,,,128,0,2,,,,,1,,,63,0
94208,note_on,,,,,0,0,2,,,,,1,,,63,90
94336,note_on,,,,,0,0,2,,,,,1,,,63,90
94336,note_off,,,,,128,0,2,,,,,1,,,63,0
94464,note_off,,,,,384,0,4,,,,,3,,,51,0
94464,note_on,,,,,0,0,2,,,,,1,,,63,90
94464,note_off,,,,,384,0,3,,,,,2,,,63,0
94464,note_off,,,,,128,0,2,,,,,1,,,63,0
94464,note_off,,,,,384,0,1,,,,,0,,,63,0
94592,note_off,,,,,128,0,2,,,,,1,,,63,0
94592,note_on,,,,,0,0,2,,,,,1,,,63,90
94720,note_on,,,,,0,0,2,,,,,1,,,63,90
94720,note_off,,,,,128,0,2,,,,,1,,,63,0
94848,note_on,,,,,0,0,2,,,,,1,,,63,90
94848,note_off,,,,,128,0,2,,,,,1,,,63,0
94848,note_on,,,,,384,0,1,,,,,0,,,72,103
94848,note_on,,,,,384,0,3,,,,,2,,,56,84
94848,note_on,,,,,384,0,4,,,,,3,,,56,78
94976,note_off,,,,,128,0,2,,,,,1,,,63,0
94976,note_on,,,,,0,0,2,,,,,1,,,63,90
95104,note_on,,,,,0,0,2,,,,,1,,,63,90
95104,note_off,,,,,128,0,2,,,,,1,,,63,0
95232,note_on,,,,,0,0,2,,,,,1,,,63,90
95232,note_off,,,,,128,0,2,,,,,1,,,63,0
95232,note_on,,,,,0,0,3,,,,,2,,,55,84
95232,note_on,,,,,0,0,1,,,,,0,,,73,103
95232,note_off,,,,,384,0,3,,,,,2,,,56,0
95232,note_off,,,,,384,0,1,,,,,0,,,72,0
95232,note_off,,,,,384,0,4,,,,,3,,,56,0
95232,note_on,,,,,0,0,4,,,,,3,,,55,78
95360,note_off,,,,,128,0,1,,,,,0,,,73,0
95360,note_on,,,,,0,0,1,,,,,0,,,75,103
95360,note_off,,,,,128,0,2,,,,,1,,,63,0
95360,note_on,,,,,0,0,2,,,,,1,,,63,90
95424,note_off,,,,,64,0,1,,,,,0,,,75,0
95488,note_on,,,,,64,0,1,,,,,0,,,73,103
95488,note_off,,,,,128,0,2,,,,,1,,,63,0
95488,note_on,,,,,0,0,2,,,,,1,,,63,90
95552,note_off,,,,,64,0,1,,,,,0,,,73,0
95616,note_on,,,,,64,0,1,,,,,0,,,72,103
95616,note_on,,,,,0,0,2,,,,,1,,,63,90
95616,note_off,,,,,128,0,2,,,,,1,,,63,0
95680,note_off,,,,,64,0,1,,,,,0,,,72,0
95744,note_on,,,,,64,0,1,,,,,0,,,70,103
95744,note_on,,,,,0,0,2,,,,,1,,,63,90
95744,note_off,,,,,128,0,2,,,,,1,,,63,0
95808,note_off,,,,,64,0,1,,,,,0,,,70,0
95872,note_off,,,,,128,0,2,,,,,1,,,63,0
95872,note_on,,,,,0,0,2,,,,,1,,,63,90
95872,note_on,,,,,64,0,1,,,,,0,,,68,103
95936,note_off,,,,,64,0,1,,,,,0,,,68,0
96000,note_on,,,,,0,0,4,,,,,3,,,58,78
96000,note_off,,,,,768,0,4,,,,,3,,,55,0
96000,note_on,,,,,0,0,2,,,,,1,,,63,90
96000,note_off,,,,,128,0,2,,,,,1,,,63,0
96000,note_off,,,,,768,0,3,,,,,2,,,55,0
96000,note_on,,,,,0,0,3,,,,,2,,,58,84
96000,note_on,,,,,64,0,1,,,,,0,,,67,103
96064,note_off,,,,,64,0,1,,,,,0,,,67,0
96128,note_on,,,,,64,0,1,,,,,0,,,68,103
96128,note_off,,,,,128,0,2,,,,,1,,,63,0
96128,note_on,,,,,0,0,2,,,,,1,,,63,90
96192,note_off,,,,,64,0,1,,,,,0,,,68,0
96256,note_on,,,,,64,0,1,,,,,0,,,65,103
96256,note_on,,,,,0,0,2,,,,,1,,,63,90
96256,note_off,,,,,128,0,2,,,,,1,,,63,0
96320,note_off,,,,,64,0,1,,,,,0,,,65,0
96384,note_on,,,,,0,0,2,,,,,1,,,63,90
96384,note_off,,,,,384,0,4,,,,,3,,,58,0
96384,note_on,,,,,0,0,4,,,,,3,,,61,78
96384,note_on,,,,,0,0,3,,,,,2,,,61,84
96384,note_off,,,,,384,0,3,,,,,2,,,58,0
96384,note_on,,,,,64,0,1,,,,,0,,,63,103
96384,note_off,,,,,128,0,2,,,,,1,,,63,0
96448,note_off,,,,,64,0,1,,,,,0,,,63,0
96512,note_on,,,,,0,0,2,,,,,1,,,63,90
96512,note_off,,,,,128,0,2,,,,,1,,,63,0
96512,note_on,,,,,64,0,1,,,,,0,,,65,103
96576,note_off,,,,,64,0,1,,,,,0,,,65,0
96640,note_on,,,,,64,0,1,,,,,0,,,67,103
96640,note_off,,,,,128,0,2,,,,,1,,,63,0
96640,note_on,,,,,0,0,2,,,,,1,,,63,90
96704,note_off,,,,,64,0,1,,,,,0,,,67,0
96768,note_off,,,,,384,0,3,,,,,2,,,61,0
96768,note_on,,,,,0,0,4,,,,,3,,,60,78
96768,note_off,,,,,384,0,4,,,,,3,,,61,0
96768,note_on,,,,,64,0,1,,,,,0,,,68,103
96768,note_on,,,,,0,0,2,,,,,1,,,63,90
96768,note_off,,,,,128,0,2,,,,,1,,,63,0
96768,note_on,,,,,0,0,3,,,,,2,,,60,84
96896,note_on,,,,,0,0,3,,,,,2,,,63,84
96896,note_off,,,,,128,0,3,,,,,2,,,60,0
97024,note_on,,,,,0,0,3,,,,,2,,,63,84
97024,note_off,,,,,128,0,3,,,,,2,,,63,0
97152,note_on,,,,,0,0,3,,,,,2,,,63,84
97152,note_off,,,,,384,0,2,,,,,1,,,63,0
97152,note_off,,,,,128,0,3,,,,,2,,,63,0
97152,note_off,,,,,384,0,4,,,,,3,,,60,0
97152,note_on,,,,,0,0,4,,,,,3,,,63,78
97152,note_off,,,,,384,0,1,,,,,0,,,68,0
97152,note_on,,,,,0,0,1,,,,,0,,,63,103
97280,note_off,,,,,128,0,3,,,,,2,,,63,0
97280,note_on,,,,,0,0,3,,,,,2,,,63,84
97408,note_off,,,,,128,0,3,,,,,2,,,63,0
97408,note_on,,,,,0,0,3,,,,,2,,,63,84
97536,note_off,,,,,384,0,1,,,,,0,,,63,0
97536,note_off,,,,,128,0,3,,,,,2,,,63,0
97536,note_on,,,,,0,0,3,,,,,2,,,63,84
97536,note_off,,,,,384,0,4,,,,,3,,,63,0
97664,note_on,,,,,0,0,3,,,,,2,,,63,84
97664,note_off,,,,,128,0,3,,,,,2,,,63,0
97792,note_off,,,,,128,0,3,,,,,2,,,63,0
97792,note_on,,,,,0,0,3,,,,,2,,,63,84
97920,note_on,,,,,768,0,2,,,,,1,,,56,90
97920,note_off,,,,,128,0,3,,,,,2,,,63,0
97920,note_on,,,,,0,0,3,,,,,2,,,63,84
97920,note_on,,,,,384,0,1,,,,,0,,,72,103
98048,note_off,,,,,128,0,3,,,,,2,,,63,0
98048,note_on,,,,,0,0,3,,,,,2,,,63,84
98176,note_off,,,,,128,0,3,,,,,2,,,63,0
98176,note_on,,,,,0,0,3,,,,,2,,,63,84
98304,note_on,,,,,0,0,2,,,,,1,,,55,90
98304,note_on,,,,,0,0,1,,,,,0,,,73,103
98304,note_off,,,,,384,0,1,,,,,0,,,72,0
98304,note_off,,,,,384,0,2,,,,,1,,,56,0
98304,note_on,,,,,0,0,3,,,,,2,,,63,84
98304,note_off,,,,,128,0,3,,,,,2,,,63,0
98432,note_on,,,,,0,0,3,,,,,2,,,63,84
98432,note_on,,,,,0,0,1,,,,,0,,,75,103
98432,note_off,,,,,128,0,1,,,,,0,,,73,0
98432,note_off,,,,,128,0,3,,,,,2,,,63,0
98496,note_off,,,,,64,0,1,,,,,0,,,75,0
98560,note_on,,,,,0,0,3,,,,,2,,,63,84
98560,note_on,,,,,64,0,1,,,,,0,,,73,103
98560,note_off,,,,,128,0,3,,,,,2,,,63,0
98624,note_off,,,,,64,0,1,,,,,0,,,73,0
98688,note_off,,,,,128,0,3,,,,,2,,,63,0
98688,note_on,,,,,64,0,1,,,,,0,,,72,103
98688,note_on,,,,,0,0,3,,,,,2,,,63,84
98752,note_off,,,,,64,0,1,,,,,0,,,72,0
98816,note_on,,,,,0,0,3,,,,,2,,,63,84
98816,note_off,,,,,128,0,3,,,,,2,,,63,0
98816,note_on,,,,,64,0,1,,,,,0,,,70,103
98880,note_off,,,,,64,0,1,,,,,0,,,70,0
98944,note_on,,,,,0,0,3,,,,,2,,,63,84
98944,note_on,,,,,64,0,1,,,,,0,,,68,103
98944,note_off,,,,,128,0,3,,,,,2,,,63,0
99008,note_off,,,,,64,0,1,,,,,0,,,68,0
99072,note_off,,,,,128,0,3,,,,,2,,,63,0
99072,note_on,,,,,0,0,3,,,,,2,,,63,84
99072,note_on,,,,,0,0,2,,,,,1,,,58,90
99072,note_on,,,,,64,0,1,,,,,0,,,67,103
99072,note_off,,,,,768,0,2,,,,,1,,,55,0
99136,note_off,,,,,64,0,1,,,,,0,,,67,0
99200,note_on,,,,,64,0,1,,,,,0,,,68,103
99200,note_off,,,,,128,0,3,,,,,2,,,63,0
99200,note_on,,,,,0,0,3,,,,,2,,,63,84
99264,note_off,,,,,64,0,1,,,,,0,,,68,0
99328,note_on,,,,,64,0,1,,,,,0,,,65,103
99328,note_on,,,,,0,0,3,,,,,2,,,63,84
99328,note_off,,,,,128,0,3,,,,,2,,,63,0
99392,note_off,,,,,64,0,1,,,,,0,,,65,0
99456,note_on,,,,,0,0,3,,,,,2,,,63,84
99456,note_off,,,,,128,0,3,,,,,2,,,63,0
99456,note_on,,,,,0,0,2,,,,,1,,,61,90
99456,note_on,,,,,64,0,1,,,,,0,,,63,103
99456,note_off,,,,,384,0,2,,,,,1,,,58,0
99520,note_off,,,,,64,0,1,,,,,0,,,63,0
99584,note_on,,,,,64,0,1,,,,,0,,,65,103
99584,note_off,,,,,128,0,3,,,,,2,,,63,0
99584,note_on,,,,,0,0,3,,,,,2,,,63,84
99648,note_off,,,,,64,0,1,,,,,0,,,65,0
99712,note_off,,,,,128,0,3,,,,,2,,,63,0
99712,note_on,,,,,0,0,3,,,,,2,,,63,84
99712,note_on,,,,,64,0,1,,,,,0,,,67,103
99776,note_off,,,,,64,0,1,,,,,0,,,67,0
99840,note_on,,,,,64,0,1,,,,,0,,,68,103
99840,note_off,,,,,384,0,2,,,,,1,,,61,0
99840,note_on,,,,,0,0,2,,,,,1,,,60,90
99840,note_on,,,,,0,0,3,,,,,2,,,63,84
99840,note_off,,,,,128,0,3,,,,,2,,,63,0
99968,note_on,,,,,0,0,3,,,,,2,,,63,84
99968,note_off,,,,,128,0,3,,,,,2,,,63,0
100032,note_off,,,,,192,0,2,,,,,1,,,60,0
100032,note_off,,,,,192,0,1,,,,,0,,,68,0
100096,note_off,,,,,128,0,3,,,,,2,,,63,0
100096,note_on,,,,,0,0,3,,,,,2,,,63,84
100224,note_on,,,,,2688,0,4,,,,,3,,,51,78
100224,note_on,,,,,192,0,2,,,,,1,,,63,90
100224,note_on,,,,,0,0,3,,,,,2,,,63,84
100224,note_on,,,,,192,0,1,,,,,0,,,63,103
100224,note_off,,,,,128,0,3,,,,,2,,,63,0
100352,note_on,,,,,0,0,3,,,,,2,,,63,84
100352,note_off,,,,,128,0,3,,,,,2,,,63,0
100480,note_on,,,,,0,0,3,,,,,2,,,63,84
100480,note_off,,,,,128,0,3,,,,,2,,,63,0
100608,note_off,,,,,384,0,1,,,,,0,,,63,0
100608,note_on,,,,,0,0,3,,,,,2,,,63,84
100608,note_off,,,,,128,0,3,,,,,2,,,63,0
100608,note_on,,,,,0,0,2,,,,,1,,,60,90
100608,note_on,,,,,0,0,1,,,,,0,,,60,103
100608,note_on,,,,,0,0,4,,,,,3,,,48,78
100608,note_off,,,,,384,0,4,,,,,3,,,51,0
100608,note_off,,,,,384,0,2,,,,,1,,,63,0
100736,note_off,,,,,128,0,3,,,,,2,,,63,0
100736,note_on,,,,,0,0,3,,,,,2,,,63,84
100864,note_on,,,,,0,0,3,,,,,2,,,63,84
100864,note_off,,,,,128,0,3,,,,,2,,,63,0
100992,note_off,,,,,128,0,3,,,,,2,,,63,0
100992,note_on,,,,,0,0,3,,,,,2,,,64,84
100992,note_off,,,,,384,0,2,,,,,1,,,60,0
100992,note_on,,,,,0,0,2,,,,,1,,,58,90
100992,note_on,,,,,0,0,4,,,,,3,,,46,78
100992,note_on,,,,,0,0,1,,,,,0,,,58,103
100992,note_off,,,,,384,0,1,,,,,0,,,60,0
100992,note_off,,,,,384,0,4,,,,,3,,,48,0
101120,note_on,,,,,0,0,3,,,,,2,,,64,84
101120,note_off,,,,,128,0,3,,,,,2,,,64,0
101248,note_off,,,,,128,0,3,,,,,2,,,64,0
101248,note_on,,,,,0,0,3,,,,,2,,,64,84
101376,note_off,,,,,384,0,1,,,,,0,,,58,0
101376,note_on,,,,,0,0,2,,,,,1,,,57,90
101376,note_off,,,,,384,0,2,,,,,1,,,58,0
101376,note_on,,,,,0,0,1,,,,,0,,,57,103
101376,note_off,,,,,128,0,3,,,,,2,,,64,0
101376,note_off,,,,,384,0,4,,,,,3,,,46,0
101376,note_on,,,,,0,0,4,,,,,3,,,45,78
101376,note_on,,,,,0,0,3,,,,,2,,,65,84
101504,note_off,,,,,128,0,3,,,,,2,,,65,0
101504,note_on,,,,,0,0,3,,,,,2,,,65,84
101632,note_off,,,,,128,0,3,,,,,2,,,65,0
101632,note_on,,,,,0,0,3,,,,,2,,,65,84
101760,note_off,,,,,128,0,3,,,,,2,,,65,0
101760,note_on,,,,,0,0,3,,,,,2,,,65,84
101888,note_off,,,,,128,0,3,,,,,2,,,65,0
101888,note_on,,,,,0,0,3,,,,,2,,,65,84
102016,note_on,,,,,0,0,3,,,,,2,,,65,84
102016,note_off,,,,,128,0,3,,,,,2,,,65,0
102144,note_off,,,,,128,0,3,,,,,2,,,65,0
102144,note_on,,,,,0,0,3,,,,,2,,,65,84
102144,note_off,,,,,768,0,4,,,,,3,,,45,0
102144,note_on,,,,,0,0,4,,,,,3,,,48,78
102144,note_on,,,,,0,0,1,,,,,0,,,60,103
102144,note_on,,,,,0,0,2,,,,,1,,,60,90
102144,note_off,,,,,768,0,1,,,,,0,,,57,0
102144,note_off,,,,,768,0,2,,,,,1,,,57,0
102272,note_off,,,,,128,0,3,,,,,2,,,65,0
102272,note_on,,,,,0,0,3,,,,,2,,,65,84
102400,note_off,,,,,128,0,3,,,,,2,,,65,0
102400,note_on,,,,,0,0,3,,,,,2,,,65,84
102528,note_off,,,,,384,0,2,,,,,1,,,60,0
102528,note_on,,,,,0,0,1,,,,,0,,,63,103
102528,note_on,,,,,0,0,3,,,,,2,,,65,84
102528,note_on,,,,,0,0,2,,,,,1,,,63,90
102528,note_off,,,,,128,0,3,,,,,2,,,65,0
102528,note_off,,,,,384,0,4,,,,,3,,,48,0
102528,note_on,,,,,0,0,4,,,,,3,,,51,78
102528,note_off,,,,,384,0,1,,,,,0,,,60,0
102656,note_off,,,,,128,0,3,,,,,2,,,65,0
102656,note_on,,,,,0,0,3,,,,,2,,,65,84
102784,note_off,,,,,128,0,3,,,,,2,,,65,0
102784,note_on,,,,,0,0,3,,,,,2,,,65,84
102912,note_off,,,,,384,0,1,,,,,0,,,63,0
102912,note_off,,,,,384,0,4,,,,,3,,,51,0
102912,note_on,,,,,0,0,4,,,,,3,,,49,78
102912,note_on,,,,,0,0,1,,,,,0,,,61,103
102912,note_off,,,,,384,0,2,,,,,1,,,63,0
102912,note_on,,,,,0,0,3,,,,,2,,,65,84
102912,note_off,,,,,128,0,3,,,,,2,,,65,0
102912,note_on,,,,,0,0,2,,,,,1,,,61,90
103040,note_off,,,,,128,0,3,,,,,2,,,65,0
103040,note_on,,,,,0,0,3,,,,,2,,,65,84
103168,note_off,,,,,128,0,3,,,,,2,,,65,0
103168,note_on,,,,,0,0,3,,,,,2,,,65,84
103296,note_on,,,,,0,0,4,,,,,3,,,53,78
103296,note_off,,,,,384,0,1,,,,,0,,,61,0
103296,note_off,,,,,384,0,2,,,,,1,,,61,0
103296,note_on,,,,,0,0,2,,,,,1,,,65,90
103296,note_on,,,,,0,0,3,,,,,2,,,65,84
103296,note_off,,,,,128,0,3,,,,,2,,,65,0
103296,note_off,,,,,384,0,4,,,,,3,,,49,0
103296,note_on,,,,,0,0,1,,,,,0,,,65,103
103424,note_on,,,,,0,0,3,,,,,2,,,65,84
103424,note_off,,,,,128,0,3,,,,,2,,,65,0
103552,note_off,,,,,128,0,3,,,,,2,,,65,0
103552,note_on,,,,,0,0,3,,,,,2,,,65,84
103680,note_off,,,,,384,0,1,,,,,0,,,65,0
103680,note_on,,,,,0,0,3,,,,,2,,,65,84
103680,note_off,,,,,128,0,3,,,,,2,,,65,0
103680,note_off,,,,,384,0,4,,,,,3,,,53,0
103680,note_off,,,,,384,0,2,,,,,1,,,65,0
103808,note_on,,,,,0,0,3,,,,,2,,,65,84
103808,note_off,,,,,128,0,3,,,,,2,,,65,0
103936,note_on,,,,,0,0,3,,,,,2,,,65,84
103936,note_off,,,,,128,0,3,,,,,2,,,65,0
104064,note_on,,,,,384,0,2,,,,,1,,,58,90
104064,note_on,,,,,0,0,3,,,,,2,,,65,84
104064,note_off,,,,,128,0,3,,,,,2,,,65,0
104064,note_on,,,,,384,0,1,,,,,0,,,70,103
104192,note_on,,,,,0,0,3,,,,,2,,,65,84
104192,note_off,,,,,128,0,3,,,,,2,,,65,0
104320,note_off,,,,,128,0,3,,,,,2,,,65,0
104320,note_on,,,,,0,0,3,,,,,2,,,65,84
104448,note_on,,,,,0,0,1,,,,,0,,,69,103
104448,note_off,,,,,384,0,2,,,,,1,,,58,0
104448,note_on,,,,,0,0,2,,,,,1,,,57,90
104448,note_off,,,,,128,0,3,,,,,2,,,65,0
104448,note_on,,,,,0,0,3,,,,,2,,,65,84
104448,note_off,,,,,384,0,1,,,,,0,,,70,0
104576,note_on,,,,,0,0,3,,,,,2,,,65,84
104576,note_off,,,,,128,0,3,,,,,2,,,65,0
104704,note_off,,,,,128,0,3,,,,,2,,,65,0
104704,note_on,,,,,0,0,3,,,,,2,,,65,84
104832,note_on,,,,,0,0,3,,,,,2,,,65,84
104832,note_off,,,,,128,0,3,,,,,2,,,65,0
104960,note_off,,,,,128,0,3,,,,,2,,,65,0
104960,note_on,,,,,0,0,3,,,,,2,,,65,84
105088,note_off,,,,,128,0,3,,,,,2,,,65,0
105088,note_on,,,,,0,0,3,,,,,2,,,65,84
105216,note_on,,,,,0,0,3,,,,,2,,,65,84
105216,note_on,,,,,0,0,1,,,,,0,,,72,103
105216,note_on,,,,,0,0,2,,,,,1,,,60,90
105216,note_off,,,,,768,0,2,,,,,1,,,57,0
105216,note_off,,,,,128,0,3,,,,,2,,,65,0
105216,note_off,,,,,768,0,1,,,,,0,,,69,0
105344,note_on,,,,,0,0,3,,,,,2,,,65,84
105344,note_off,,,,,128,0,3,,,,,2,,,65,0
105472,note_on,,,,,0,0,3,,,,,2,,,65,84
105472,note_off,,,,,128,0,3,,,,,2,,,65,0
105600,note_on,,,,,0,0,2,,,,,1,,,63,90
105600,note_off,,,,,384,0,2,,,,,1,,,60,0
105600,note_on,,,,,0,0,1,,,,,0,,,75,103
105600,note_off,,,,,384,0,1,,,,,0,,,72,0
105600,note_off,,,,,128,0,3,,,,,2,,,65,0
105600,note_on,,,,,0,0,3,,,,,2,,,65,84
105728,note_off,,,,,128,0,3,,,,,2,,,65,0
105728,note_on,,,,,0,0,3,,,,,2,,,65,84
105856,note_off,,,,,128,0,3,,,,,2,,,65,0
105856,note_on,,,,,0,0,3,,,,,2,,,65,84
105984,note_off,,,,,384,0,1,,,,,0,,,75,0
105984,note_off,,,,,128,0,3,,,,,2,,,65,0
105984,note_on,,,,,0,0,3,,,,,2,,,65,84
105984,note_off,,,,,384,0,2,,,,,1,,,63,0
105984,note_on,,,,,0,0,2,,,,,1,,,61,90
105984,note_on,,,,,0,0,1,,,,,0,,,73,103
106112,note_on,,,,,0,0,3,,,,,2,,,65,84
106112,note_off,,,,,128,0,3,,,,,2,,,65,0
106240,note_off,,,,,128,0,3,,,,,2,,,65,0
106240,note_on,,,,,0,0,3,,,,,2,,,65,84
106368,note_on,,,,,0,0,1,,,,,0,,,77,103
106368,note_off,,,,,384,0,1,,,,,0,,,73,0
106368,note_off,,,,,128,0,3,,,,,2,,,65,0
106368,note_on,,,,,0,0,2,,,,,1,,,65,90
106368,note_off,,,,,384,0,2,,,,,1,,,61,0
106368,note_on,,,,,0,0,3,,,,,2,,,65,84
106496,note_on,,,,,0,0,3,,,,,2,,,65,84
106496,note_off,,,,,128,0,3,,,,,2,,,65,0
106624,note_on,,,,,0,0,3,,,,,2,,,65,84
106624,note_off,,,,,128,0,3,,,,,2,,,65,0
106752,note_on,,,,,0,0,3,,,,,2,,,61,84
106752,note_off,,,,,384,0,2,,,,,1,,,65,0
106752,note_on,,,,,0,0,1,,,,,0,,,73,103
106752,note_on,,,,,0,0,2,,,,,1,,,61,90
106752,note_off,,,,,128,0,3,,,,,2,,,65,0
106752,note_off,,,,,384,0,1,,,,,0,,,77,0
106880,note_off,,,,,128,0,3,,,,,2,,,61,0
106880,note_on,,,,,0,0,3,,,,,2,,,61,84
107008,note_on,,,,,0,0,3,,,,,2,,,61,84
107008,note_off,,,,,128,0,3,,,,,2,,,61,0
107136,note_off,,,,,128,0,3,,,,,2,,,61,0
107136,note_off,,,,,384,0,2,,,,,1,,,61,0
107136,note_off,,,,,384,0,1,,,,,0,,,73,0
107136,note_on,,,,,0,0,3,,,,,2,,,58,84
107136,note_on,,,,,0,0,1,,,,,0,,,70,103
107136,note_on,,,,,0,0,2,,,,,1,,,58,90
107264,note_off,,,,,128,0,3,,,,,2,,,58,0
107264,note_on,,,,,0,0,3,,,,,2,,,58,84
107392,note_on,,,,,0,0,3,,,,,2,,,58,84
107392,note_off,,,,,128,0,3,,,,,2,,,58,0
107520,note_on,,,,,0,0,2,,,,,1,,,65,90
107520,note_on,,,,,3840,0,4,,,,,3,,,45,78
107520,note_off,,,,,128,0,3,,,,,2,,,58,0
107520,note_on,,,,,0,0,3,,,,,2,,,57,84
107520,note_off,,,,,384,0,1,,,,,0,,,70,0
107520,note_on,,,,,0,0,1,,,,,0,,,65,103
107520,note_off,,,,,384,0,2,,,,,1,,,58,0
107904,note_on,,,,,0,0,3,,,,,2,,,60,84
107904,note_on,,,,,0,0,4,,,,,3,,,48,78
107904,note_off,,,,,384,0,3,,,,,2,,,57,0
107904,note_off,,,,,384,0,4,,,,,3,,,45,0
108288,note_off,,,,,384,0,4,,,,,3,,,48,0
108288,note_off,,,,,384,0,3,,,,,2,,,60,0
108672,note_on,,,,,384,0,3,,,,,2,,,63,84
108672,note_on,,,,,384,0,4,,,,,3,,,51,78
109056,note_off,,,,,384,0,3,,,,,2,,,63,0
109056,note_off,,,,,1536,0,1,,,,,0,,,65,0
109056,note_on,,,,,0,0,1,,,,,0,,,61,103
109056,note_on,,,,,0,0,3,,,,,2,,,61,84
109056,note_on,,,,,0,0,4,,,,,3,,,49,78
109056,note_on,,,,,0,0,2,,,,,1,,,61,90
109056,note_off,,,,,384,0,4,,,,,3,,,51,0
109056,note_off,,,,,1536,0,2,,,,,1,,,65,0
109440,note_on,,,,,0,0,4,,,,,3,,,53,78
109440,note_off,,,,,384,0,4,,,,,3,,,49,0
109440,note_on,,,,,0,0,3,,,,,2,,,65,84
109440,note_off,,,,,384,0,3,,,,,2,,,61,0
109440,note_on,,,,,0,0,2,,,,,1,,,65,90
109440,note_off,,,,,384,0,2,,,,,1,,,61,0
109440,note_off,,,,,384,0,1,,,,,0,,,61,0
109440,note_on,,,,,0,0,1,,,,,0,,,65,103
109824,note_on,,,,,0,0,3,,,,,2,,,61,84
109824,note_on,,,,,0,0,2,,,,,1,,,61,90
109824,note_on,,,,,0,0,4,,,,,3,,,49,78
109824,note_off,,,,,384,0,4,,,,,3,,,53,0
109824,note_off,,,,,384,0,3,,,,,2,,,65,0
109824,note_on,,,,,0,0,1,,,,,0,,,61,103
109824,note_off,,,,,384,0,2,,,,,1,,,65,0
109824,note_off,,,,,384,0,1,,,,,0,,,65,0
110208,note_off,,,,,384,0,2,,,,,1,,,61,0
110208,note_on,,,,,0,0,4,,,,,3,,,46,78
110208,note_off,,,,,384,0,1,,,,,0,,,61,0
110208,note_on,,,,,0,0,1,,,,,0,,,58,103
110208,note_off,,,,,384,0,3,,,,,2,,,61,0
110208,note_on,,,,,0,0,3,,,,,2,,,58,84
110208,note_off,,,,,384,0,4,,,,,3,,,49,0
110208,note_on,,,,,0,0,2,,,,,1,,,58,90
110592,note_on,,,,,0,0,2,,,,,1,,,65,90
110592,note_off,,,,,384,0,3,,,,,2,,,58,0
110592,note_on,,,,,0,0,3,,,,,2,,,53,84
110592,note_on,,,,,0,0,1,,,,,0,,,65,103
110592,note_on,,,,,0,0,4,,,,,3,,,41,78
110592,note_off,,,,,384,0,4,,,,,3,,,46,0
110592,note_off,,,,,384,0,1,,,,,0,,,58,0
110592,note_off,,,,,384,0,2,,,,,1,,,58,0
110784,note_off,,,,,192,0,3,,,,,2,,,53,0
110784,note_on,,,,,0,0,3,,,,,2,,,53,84
111168,note_off,,,,,384,0,3,,,,,2,,,53,0
111168,note_on,,,,,0,0,3,,,,,2,,,53,84
111360,note_off,,,,,768,0,4,,,,,3,,,41,0
111360,note_off,,,,,768,0,2,,,,,1,,,65,0
111360,note_off,,,,,768,0,1,,,,,0,,,65,0
111552,note_off,,,,,384,0,3,,,,,2,,,53,0
111552,note_on,,,,,0,0,3,,,,,2,,,53,84
111936,note_off,,,,,384,0,3,,,,,2,,,53,0
111936,note_on,,,,,0,0,3,,,,,2,,,53,84
112320,note_off,,,,,384,0,3,,,,,2,,,53,53
112320,note_on,,,,,0,0,3,,,,,2,,,53,84
112704,note_off,,,,,384,0,3,,,,,2,,,53,0
112704,note_on,,,,,0,0,3,,,,,2,,,53,84
113088,note_off,,,,,384,0,3,,,,,2,,,53,0
113088,note_on,,,,,0,0,3,,,,,2,,,53,84
113280,note_on,,,,,1920,0,1,,,,,0,,,65,103
113472,note_on,,,,,0,0,3,,,,,2,,,53,84
113472,note_off,,,,,384,0,3,,,,,2,,,53,0
113664,note_on,,,,,2304,0,4,,,,,3,,,58,78
113664,note_off,,,,,384,0,1,,,,,0,,,65,0
113664,note_on,,,,,0,0,1,,,,,0,,,74,103
113664,note_on,,,,,2304,0,2,,,,,1,,,65,90
113664,note_on,,,,,0,0,3,,,,,2,,,58,84
113664,note_off,,,,,192,0,3,,,,,2,,,53,0
114432,note_off,,,,,768,0,1,,,,,0,,,74,0
114432,note_on,,,,,0,0,3,,,,,2,,,60,84
114432,note_on,,,,,0,0,4,,,,,3,,,57,78
114432,note_off,,,,,768,0,4,,,,,3,,,58,0
114432,note_off,,,,,768,0,3,,,,,2,,,58,0
114432,note_on,,,,,0,0,1,,,,,0,,,77,103
115200,note_off,,,,,768,0,3,,,,,2,,,60,0
115200,note_on,,,,,0,0,3,,,,,2,,,62,84
115200,note_on,,,,,0,0,1,,,,,0,,,70,103
115200,note_off,,,,,768,0,1,,,,,0,,,77,0
115200,note_on,,,,,0,0,4,,,,,3,,,55,78
115200,note_off,,,,,768,0,4,,,,,3,,,57,0
115200,note_on,,,,,0,0,2,,,,,1,,,62,90
115200,note_off,,,,,1536,0,2,,,,,1,,,65,0
115584,note_on,,,,,0,0,4,,,,,3,,,55,78
115584,note_off,,,,,384,0,4,,,,,3,,,55,0
115584,note_on,,,,,0,0,3,,,,,2,,,58,84
115584,note_off,,,,,384,0,1,,,,,0,,,70,0
115584,note_on,,,,,0,0,1,,,,,0,,,75,103
115584,note_off,,,,,384,0,3,,,,,2,,,62,0
115584,note_off,,,,,384,0,2,,,,,1,,,62,0
115584,note_on,,,,,0,0,2,,,,,1,,,63,90
116352,note_on,,,,,0,0,4,,,,,3,,,53,78
116352,note_off,,,,,768,0,1,,,,,0,,,75,0
116352,note_on,,,,,0,0,1,,,,,0,,,74,103
116352,note_off,,,,,768,0,2,,,,,1,,,63,0
116352,note_on,,,,,0,0,2,,,,,1,,,65,90
116352,note_off,,,,,768,0,4,,,,,3,,,55,0
116352,note_on,,,,,0,0,3,,,,,2,,,58,84
116352,note_off,,,,,768,0,3,,,,,2,,,58,0
116736,note_off,,,,,384,0,3,,,,,2,,,58,0
116736,note_on,,,,,0,0,3,,,,,2,,,57,84
116736,note_on,,,,,0,0,1,,,,,0,,,74,103
116736,note_off,,,,,384,0,1,,,,,0,,,74,0
116736,note_on,,,,,0,0,4,,,,,3,,,51,78
116736,note_off,,,,,384,0,4,,,,,3,,,53,0
116736,note_off,,,,,384,0,2,,,,,1,,,65,0
116736,note_on,,,,,0,0,2,,,,,1,,,65,90
116928,note_off,,,,,192,0,1,,,,,0,,,74,0
116928,note_on,,,,,0,0,1,,,,,0,,,72,103
117120,note_off,,,,,192,0,1,,,,,0,,,72,0
117120,note_on,,,,,0,0,1,,,,,0,,,75,103
117312,note_on,,,,,0,0,1,,,,,0,,,72,103
117312,note_off,,,,,192,0,1,,,,,0,,,75,0
117504,note_off,,,,,192,0,1,,,,,0,,,72,0
117504,note_on,,,,,0,0,3,,,,,2,,,58,84
117504,note_off,,,,,768,0,4,,,,,3,,,51,0
117504,note_off,,,,,768,0,3,,,,,2,,,57,0
117504,note_on,,,,,0,0,4,,,,,3,,,50,78
117504,note_on,,,,,0,0,1,,,,,0,,,70,103
117696,note_on,,,,,0,0,1,,,,,0,,,74,103
117696,note_off,,,,,192,0,1,,,,,0,,,70,0
117888,note_on,,,,,0,0,4,,,,,3,,,58,78
117888,note_off,,,,,384,0,4,,,,,3,,,50,0
117888,note_off,,,,,1152,0,2,,,,,1,,,65,0
117888,note_on,,,,,0,0,1,,,,,0,,,79,103
117888,note_on,,,,,0,0,3,,,,,2,,,62,84
117888,note_off,,,,,384,0,3,,,,,2,,,58,0
117888,note_on,,,,,0,0,2,,,,,1,,,67,90
117888,note_off,,,,,192,0,1,,,,,0,,,74,0
118080,note_off,,,,,192,0,1,,,,,0,,,79,0
118080,note_on,,,,,0,0,1,,,,,0,,,77,103
118080,note_on,,,,,0,0,2,,,,,1,,,65,90
118080,note_off,,,,,192,0,2,,,,,1,,,67,0
118272,note_on,,,,,0,0,3,,,,,2,,,60,84
118272,note_off,,,,,384,0,3,,,,,2,,,62,0
118272,note_off,,,,,384,0,4,,,,,3,,,58,0
118272,note_on,,,,,0,0,4,,,,,3,,,57,78
118272,note_on,,,,,0,0,2,,,,,1,,,65,90
118272,note_off,,,,,192,0,2,,,,,1,,,65,0
118272,note_on,,,,,0,0,1,,,,,0,,,77,103
118272,note_off,,,,,192,0,1,,,,,0,,,77,0
118656,note_off,,,,,384,0,4,,,,,3,,,57,0
118656,note_on,,,,,0,0,4,,,,,3,,,53,78
118848,note_off,,,,,576,0,1,,,,,0,,,77,0
118848,note_on,,,,,0,0,1,,,,,0,,,75,103
119040,note_on,,,,,0,0,1,,,,,0,,,74,103
119040,note_off,,,,,192,0,1,,,,,0,,,75,0
119040,note_off,,,,,384,0,4,,,,,3,,,53,0
119040,note_on,,,,,0,0,3,,,,,2,,,62,84
119040,note_off,,,,,768,0,3,,,,,2,,,60,0
119040,note_on,,,,,0,0,4,,,,,3,,,58,78
119424,note_on,,,,,0,0,1,,,,,0,,,65,103
119424,note_off,,,,,384,0,1,,,,,0,,,74,0
119424,note_off,,,,,1152,0,2,,,,,1,,,65,0
119424,note_off,,,,,384,0,3,,,,,2,,,62,0
119424,note_off,,,,,384,0,4,,,,,3,,,58,0
119808,note_on,,,,,384,0,4,,,,,3,,,58,78
119808,note_on,,,,,0,0,1,,,,,0,,,74,103
119808,note_off,,,,,384,0,1,,,,,0,,,65,0
120192,note_off,,,,,384,0,4,,,,,3,,,58,0
120192,note_on,,,,,768,0,3,,,,,2,,,62,84
120192,note_on,,,,,768,0,2,,,,,1,,,65,90
120192,note_off,,,,,384,0,1,,,,,0,,,74,0
120384,note_off,,,,,192,0,2,,,,,1,,,65,0
120384,note_off,,,,,192,0,3,,,,,2,,,62,0
120576,note_on,,,,,384,0,1,,,,,0,,,77,103
120576,note_on,,,,,384,0,4,,,,,3,,,57,78
120960,note_off,,,,,384,0,1,,,,,0,,,77,0
120960,note_on,,,,,576,0,2,,,,,1,,,65,90
120960,note_off,,,,,384,0,4,,,,,3,,,57,0
120960,note_on,,,,,576,0,3,,,,,2,,,60,84
121152,note_off,,,,,192,0,3,,,,,2,,,60,0
121152,note_off,,,,,192,0,2,,,,,1,,,65,0
121344,note_on,,,,,384,0,1,,,,,0,,,70,103
121344,note_on,,,,,384,0,4,,,,,3,,,55,78
121536,note_off,,,,,192,0,4,,,,,3,,,55,0
121728,note_on,,,,,576,0,3,,,,,2,,,58,84
121728,note_on,,,,,576,0,2,,,,,1,,,63,90
121728,note_off,,,,,384,0,1,,,,,0,,,70,0
121728,note_on,,,,,0,0,1,,,,,0,,,75,103
121728,note_on,,,,,192,0,4,,,,,3,,,55,78
122496,note_off,,,,,768,0,2,,,,,1,,,63,0
122496,note_off,,,,,768,0,1,,,,,0,,,75,0
122496,note_on,,,,,0,0,4,,,,,3,,,53,78
122496,note_off,,,,,768,0,4,,,,,3,,,55,0
122496,note_on,,,,,0,0,2,,,,,1,,,65,90
122496,note_off,,,,,768,0,3,,,,,2,,,58,0
122496,note_on,,,,,0,0,3,,,,,2,,,58,84
122496,note_on,,,,,0,0,1,,,,,0,,,74,103
122880,note_off,,,,,384,0,3,,,,,2,,,58,0
122880,note_on,,,,,0,0,3,,,,,2,,,57,84
122880,note_off,,,,,384,0,4,,,,,3,,,53,0
122880,note_on,,,,,0,0,4,,,,,3,,,51,78
122880,note_off,,,,,384,0,1,,,,,0,,,74,0
122880,note_on,,,,,0,0,1,,,,,0,,,74,103
122880,note_off,,,,,384,0,2,,,,,1,,,65,0
122880,note_on,,,,,0,0,2,,,,,1,,,66,90
123072,note_on,,,,,0,0,1,,,,,0,,,72,103
123072,note_off,,,,,192,0,1,,,,,0,,,74,0
123264,note_off,,,,,384,0,2,,,,,1,,,66,0
123264,note_on,,,,,0,0,2,,,,,1,,,65,90
123264,note_off,,,,,192,0,1,,,,,0,,,72,0
123264,note_on,,,,,0,0,1,,,,,0,,,75,103
123456,note_off,,,,,192,0,1,,,,,0,,,75,0
123456,note_on,,,,,0,0,1,,,,,0,,,72,103
123648,note_off,,,,,384,0,2,,,,,1,,,65,0
123648,note_on,,,,,0,0,2,,,,,1,,,65,90
123648,note_off,,,,,192,0,1,,,,,0,,,72,0
123648,note_off,,,,,768,0,4,,,,,3,,,51,0
123648,note_on,,,,,0,0,3,,,,,2,,,58,84
123648,note_off,,,,,768,0,3,,,,,2,,,57,0
123648,note_on,,,,,0,0,4,,,,,3,,,50,78
123648,note_on,,,,,0,0,1,,,,,0,,,70,103
123840,note_off,,,,,192,0,1,,,,,0,,,70,0
123840,note_on,,,,,0,0,1,,,,,0,,,74,103
124032,note_off,,,,,384,0,2,,,,,1,,,65,0
124032,note_on,,,,,0,0,2,,,,,1,,,67,90
124032,note_on,,,,,0,0,1,,,,,0,,,79,103
124032,note_on,,,,,0,0,4,,,,,3,,,58,78
124032,note_off,,,,,384,0,4,,,,,3,,,50,0
124032,note_off,,,,,384,0,3,,,,,2,,,58,0
124032,note_on,,,,,0,0,3,,,,,2,,,62,84
124032,note_off,,,,,192,0,1,,,,,0,,,74,0
124224,note_off,,,,,192,0,1,,,,,0,,,79,0
124224,note_on,,,,,0,0,2,,,,,1,,,65,90
124224,note_off,,,,,192,0,2,,,,,1,,,67,0
124224,note_on,,,,,0,0,1,,,,,0,,,77,103
124416,note_on,,,,,0,0,4,,,,,3,,,57,78
124416,note_off,,,,,384,0,4,,,,,3,,,58,0
124416,note_off,,,,,384,0,3,,,,,2,,,62,0
124416,note_on,,,,,0,0,3,,,,,2,,,65,84
124416,note_on,,,,,0,0,2,,,,,1,,,72,90
124416,note_off,,,,,192,0,2,,,,,1,,,65,0
124416,note_on,,,,,0,0,1,,,,,0,,,77,103
124416,note_off,,,,,192,0,1,,,,,0,,,77,0
124800,note_off,,,,,384,0,1,,,,,0,,,77,0
124928,note_on,,,,,128,0,1,,,,,0,,,79,103
125056,note_on,,,,,0,0,1,,,,,0,,,75,103
125056,note_off,,,,,128,0,1,,,,,0,,,79,0
125184,note_off,,,,,128,0,1,,,,,0,,,75,0
125184,note_on,,,,,0,0,1,,,,,0,,,74,103
125184,note_on,,,,,0,0,4,,,,,3,,,58,78
125184,note_off,,,,,768,0,2,,,,,1,,,72,0
125184,note_off,,,,,768,0,4,,,,,3,,,57,0
125184,note_on,,,,,0,0,2,,,,,1,,,70,90
125376,note_off,,,,,192,0,4,,,,,3,,,58,0
125376,note_off,,,,,192,0,2,,,,,1,,,70,0
125376,note_off,,,,,960,0,3,,,,,2,,,65,0
125376,note_off,,,,,192,0,1,,,,,0,,,74,0
125568,note_on,,,,,192,0,2,,,,,1,,,68,90
125568,note_on,,,,,192,0,1,,,,,0,,,71,103
125568,note_on,,,,,192,0,4,,,,,3,,,62,78
125568,note_on,,,,,192,0,3,,,,,2,,,65,84
125952,note_on,,,,,0,0,1,,,,,0,,,72,103
125952,note_off,,,,,384,0,1,,,,,0,,,71,0
125952,note_on,,,,,0,0,2,,,,,1,,,67,90
125952,note_off,,,,,384,0,3,,,,,2,,,65,0
125952,note_on,,,,,0,0,3,,,,,2,,,63,84
125952,note_on,,,,,0,0,4,,,,,3,,,63,78
125952,note_off,,,,,384,0,4,,,,,3,,,62,0
125952,note_off,,,,,384,0,2,,,,,1,,,68,0
126336,note_off,,,,,384,0,3,,,,,2,,,63,0
126336,note_off,,,,,384,0,4,,,,,3,,,63,0
126336,note_off,,,,,384,0,2,,,,,1,,,67,0
126336,note_off,,,,,384,0,1,,,,,0,,,72,0
126528,note_on,,,,,192,0,1,,,,,0,,,67,103
126720,note_off,,,,,192,0,1,,,,,0,,,67,0
126720,note_on,,,,,0,0,1,,,,,0,,,66,103
126912,note_off,,,,,192,0,1,,,,,0,,,66,0
126912,note_on,,,,,0,0,1,,,,,0,,,67,103
127104,note_off,,,,,192,0,1,,,,,0,,,67,0
127104,note_on,,,,,0,0,1,,,,,0,,,72,103
127296,note_on,,,,,0,0,1,,,,,0,,,71,103
127296,note_off,,,,,192,0,1,,,,,0,,,72,0
127488,note_off,,,,,192,0,1,,,,,0,,,71,0
127488,note_on,,,,,0,0,1,,,,,0,,,74,103
127680,note_on,,,,,0,0,1,,,,,0,,,72,103
127680,note_off,,,,,192,0,1,,,,,0,,,74,0
127872,note_on,,,,,1536,0,4,,,,,3,,,51,78
127872,note_off,,,,,192,0,1,,,,,0,,,72,0
127872,note_on,,,,,1536,0,3,,,,,2,,,55,84
127872,note_on,,,,,1536,0,2,,,,,1,,,60,90
128064,note_off,,,,,192,0,3,,,,,2,,,55,0
128064,note_off,,,,,192,0,2,,,,,1,,,60,0
128064,note_off,,,,,192,0,4,,,,,3,,,51,0
128640,note_on,,,,,576,0,4,,,,,3,,,62,78
128640,note_on,,,,,576,0,3,,,,,2,,,65,84
128640,note_on,,,,,768,0,1,,,,,0,,,71,103
128640,note_on,,,,,576,0,2,,,,,1,,,68,90
128928,note_on,,,,,0,0,1,,,,,0,,,74,103
128928,note_off,,,,,288,0,1,,,,,0,,,71,0
129024,note_on,,,,,0,0,3,,,,,2,,,63,84
129024,note_off,,,,,384,0,3,,,,,2,,,65,0
129024,note_off,,,,,384,0,4,,,,,3,,,62,0
129024,note_on,,,,,0,0,1,,,,,0,,,72,103
129024,note_on,,,,,0,0,4,,,,,3,,,63,78
129024,note_off,,,,,384,0,2,,,,,1,,,68,0
129024,note_on,,,,,0,0,2,,,,,1,,,67,90
129024,note_off,,,,,96,0,1,,,,,0,,,74,0
129408,note_off,,,,,384,0,2,,,,,1,,,67,0
129408,note_off,,,,,384,0,3,,,,,2,,,63,0
129408,note_off,,,,,384,0,1,,,,,0,,,72,0
129408,note_off,,,,,384,0,4,,,,,3,,,63,0
129600,note_on,,,,,192,0,2,,,,,1,,,55,90
129600,note_on,,,,,192,0,1,,,,,0,,,67,103
129792,note_off,,,,,192,0,2,,,,,1,,,55,0
129792,note_on,,,,,0,0,2,,,,,1,,,60,90
129792,note_on,,,,,0,0,1,,,,,0,,,72,103
129792,note_off,,,,,192,0,1,,,,,0,,,67,0
129984,note_off,,,,,192,0,1,,,,,0,,,72,0
129984,note_on,,,,,0,0,2,,,,,1,,,59,90
129984,note_on,,,,,0,0,1,,,,,0,,,71,103
129984,note_off,,,,,192,0,2,,,,,1,,,60,0
130176,note_off,,,,,192,0,2,,,,,1,,,59,0
130176,note_on,,,,,0,0,2,,,,,1,,,62,90
130176,note_on,,,,,0,0,1,,,,,0,,,74,103
130176,note_off,,,,,192,0,1,,,,,0,,,71,0
130368,note_on,,,,,0,0,1,,,,,0,,,72,103
130368,note_off,,,,,192,0,2,,,,,1,,,62,0
130368,note_on,,,,,0,0,2,,,,,1,,,60,90
130368,note_off,,,,,192,0,1,,,,,0,,,74,0
130560,note_on,,,,,0,0,1,,,,,0,,,77,103
130560,note_on,,,,,0,0,2,,,,,1,,,65,90
130560,note_off,,,,,192,0,1,,,,,0,,,72,0
130560,note_off,,,,,192,0,2,,,,,1,,,60,0
130752,note_on,,,,,0,0,1,,,,,0,,,75,103
130752,note_off,,,,,192,0,2,,,,,1,,,65,0
130752,note_on,,,,,0,0,2,,,,,1,,,63,90
130752,note_off,,,,,192,0,1,,,,,0,,,77,0
130944,note_off,,,,,192,0,1,,,,,0,,,75,0
130944,note_on,,,,,1536,0,3,,,,,2,,,55,84
130944,note_off,,,,,192,0,2,,,,,1,,,63,0
130944,note_on,,,,,0,0,2,,,,,1,,,62,90
130944,note_on,,,,,1536,0,4,,,,,3,,,51,78
131136,note_off,,,,,192,0,2,,,,,1,,,62,0
131136,note_off,,,,,192,0,3,,,,,2,,,55,0
131136,note_off,,,,,192,0,4,,,,,3,,,51,0
131712,note_on,,,,,768,0,1,,,,,0,,,71,103
131712,note_on,,,,,576,0,4,,,,,3,,,62,78
131712,note_on,,,,,576,0,2,,,,,1,,,68,90
131712,note_on,,,,,576,0,3,,,,,2,,,65,84
131840,note_off,,,,,128,0,1,,,,,0,,,71,0
131840,note_on,,,,,0,0,1,,,,,0,,,72,103
131968,note_off,,,,,128,0,1,,,,,0,,,72,0
131968,note_on,,,,,0,0,1,,,,,0,,,74,103
132096,note_off,,,,,384,0,2,,,,,1,,,68,0
132096,note_on,,,,,0,0,4,,,,,3,,,63,78
132096,note_off,,,,,384,0,4,,,,,3,,,62,0
132096,note_off,,,,,384,0,3,,,,,2,,,65,0
132096,note_on,,,,,0,0,2,,,,,1,,,67,90
132096,note_on,,,,,0,0,3,,,,,2,,,63,84
132096,note_on,,,,,0,0,1,,,,,0,,,72,103
132096,note_off,,,,,128,0,1,,,,,0,,,74,0
132480,note_off,,,,,384,0,4,,,,,3,,,63,0
132480,note_off,,,,,384,0,1,,,,,0,,,72,0
132480,note_off,,,,,384,0,2,,,,,1,,,67,0
132480,note_off,,,,,384,0,3,,,,,2,,,63,0
132672,note_on,,,,,192,0,1,,,,,0,,,67,103
132864,note_off,,,,,192,0,1,,,,,0,,,67,0
132864,note_on,,,,,0,0,1,,,,,0,,,66,103
133056,note_off,,,,,192,0,1,,,,,0,,,66,0
133056,note_on,,,,,0,0,1,,,,,0,,,67,103
133248,note_off,,,,,192,0,1,,,,,0,,,67,0
133248,note_on,,,,,0,0,1,,,,,0,,,68,103
133440,note_on,,,,,960,0,2,,,,,1,,,55,90
133440,note_off,,,,,192,0,1,,,,,0,,,68,0
133440,note_on,,,,,0,0,1,,,,,0,,,67,103
133632,note_off,,,,,192,0,2,,,,,1,,,55,0
133632,note_on,,,,,0,0,2,,,,,1,,,60,90
133632,note_off,,,,,192,0,1,,,,,0,,,67,0
133632,note_on,,,,,0,0,1,,,,,0,,,72,103
133824,note_on,,,,,0,0,2,,,,,1,,,59,90
133824,note_off,,,,,192,0,1,,,,,0,,,72,0
133824,note_on,,,,,0,0,1,,,,,0,,,71,103
133824,note_off,,,,,192,0,2,,,,,1,,,60,0
134016,note_on,,,,,0,0,2,,,,,1,,,62,90
134016,note_off,,,,,192,0,2,,,,,1,,,59,0
134016,note_on,,,,,0,0,1,,,,,0,,,74,103
134016,note_off,,,,,192,0,1,,,,,0,,,71,0
134208,note_on,,,,,0,0,1,,,,,0,,,72,103
134208,note_on,,,,,0,0,2,,,,,1,,,60,90
134208,note_off,,,,,192,0,2,,,,,1,,,62,0
134208,note_off,,,,,192,0,1,,,,,0,,,74,0
134208,note_on,,,,,1728,0,3,,,,,2,,,60,84
134400,note_on,,,,,0,0,2,,,,,1,,,65,90
134400,note_off,,,,,192,0,2,,,,,1,,,60,0
134400,note_on,,,,,0,0,3,,,,,2,,,65,84
134400,note_off,,,,,192,0,3,,,,,2,,,60,0
134400,note_off,,,,,192,0,1,,,,,0,,,72,0
134400,note_on,,,,,0,0,1,,,,,0,,,77,103
134592,note_on,,,,,0,0,1,,,,,0,,,75,103
134592,note_off,,,,,192,0,2,,,,,1,,,65,0
134592,note_off,,,,,192,0,1,,,,,0,,,77,0
134592,note_on,,,,,0,0,2,,,,,1,,,63,90
134592,note_off,,,,,192,0,3,,,,,2,,,65,0
134592,note_on,,,,,0,0,3,,,,,2,,,63,84
134784,note_on,,,,,0,0,2,,,,,1,,,69,90
134784,note_on,,,,,0,0,3,,,,,2,,,69,84
134784,note_on,,,,,0,0,1,,,,,0,,,81,103
134784,note_on,,,,,2304,0,4,,,,,3,,,51,78
134784,note_off,,,,,192,0,2,,,,,1,,,63,0
134784,note_off,,,,,192,0,1,,,,,0,,,75,0
134784,note_off,,,,,192,0,3,,,,,2,,,63,0
134976,note_off,,,,,192,0,3,,,,,2,,,69,0
134976,note_on,,,,,0,0,3,,,,,2,,,67,84
134976,note_off,,,,,192,0,2,,,,,1,,,69,0
134976,note_on,,,,,0,0,2,,,,,1,,,67,90
134976,note_off,,,,,192,0,1,,,,,0,,,81,0
134976,note_on,,,,,0,0,1,,,,,0,,,79,103
135168,note_off,,,,,384,0,4,,,,,3,,,51,0
135168,note_on,,,,,0,0,4,,,,,3,,,53,78
135168,note_on,,,,,0,0,1,,,,,0,,,70,103
135168,note_on,,,,,0,0,3,,,,,2,,,62,84
135168,note_on,,,,,0,0,2,,,,,1,,,65,90
135168,note_off,,,,,192,0,2,,,,,1,,,67,0
135168,note_off,,,,,192,0,3,,,,,2,,,67,0
135168,note_off,,,,,192,0,1,,,,,0,,,79,0
135840,note_on,,,,,0,0,1,,,,,0,,,74,103
135840,note_off,,,,,672,0,1,,,,,0,,,70,0
135936,note_on,,,,,0,0,3,,,,,2,,,63,84
135936,note_off,,,,,768,0,2,,,,,1,,,65,0
135936,note_off,,,,,96,0,1,,,,,0,,,74,0
135936,note_on,,,,,0,0,1,,,,,0,,,72,103
135936,note_off,,,,,768,0,3,,,,,2,,,62,0
135936,note_on,,,,,0,0,2,,,,,1,,,69,90
136128,note_off,,,,,192,0,1,,,,,0,,,72,0
136128,note_on,,,,,0,0,1,,,,,0,,,71,103
136320,note_off,,,,,192,0,1,,,,,0,,,71,0
136320,note_on,,,,,0,0,1,,,,,0,,,72,103
136512,note_off,,,,,192,0,1,,,,,0,,,72,0
136512,note_on,,,,,0,0,1,,,,,0,,,77,103
136704,note_on,,,,,0,0,2,,,,,1,,,70,90
136704,note_off,,,,,768,0,3,,,,,2,,,63,0
136704,note_on,,,,,0,0,1,,,,,0,,,70,103
136704,note_off,,,,,192,0,1,,,,,0,,,77,0
136704,note_off,,,,,1536,0,4,,,,,3,,,53,0
136704,note_on,,,,,0,0,4,,,,,3,,,46,78
136704,note_off,,,,,768,0,2,,,,,1,,,69,0
136704,note_on,,,,,0,0,3,,,,,2,,,62,84
136992,note_off,,,,,288,0,2,,,,,1,,,70,0
136992,note_on,,,,,0,0,2,,,,,1,,,65,90
136992,note_on,,,,,0,0,3,,,,,2,,,62,84
136992,note_off,,,,,288,0,3,,,,,2,,,62,0
136992,note_off,,,,,288,0,4,,,,,3,,,46,0
136992,note_on,,,,,0,0,4,,,,,3,,,58,78
137088,note_off,,,,,384,0,1,,,,,0,,,70,0
137088,note_off,,,,,96,0,4,,,,,3,,,58,0
137088,note_on,,,,,0,0,2,,,,,1,,,65,90
137088,note_off,,,,,96,0,2,,,,,1,,,65,0
137088,note_on,,,,,0,0,4,,,,,3,,,58,78
137088,note_on,,,,,0,0,3,,,,,2,,,62,84
137088,note_off,,,,,96,0,3,,,,,2,,,62,0
137376,note_off,,,,,288,0,4,,,,,3,,,58,0
137376,note_on,,,,,0,0,3,,,,,2,,,62,84
137376,note_on,,,,,0,0,4,,,,,3,,,58,78
137376,note_off,,,,,288,0,3,,,,,2,,,62,0
137376,note_off,,,,,288,0,2,,,,,1,,,65,0
137376,note_on,,,,,0,0,2,,,,,1,,,65,90
137472,note_on,,,,,0,0,3,,,,,2,,,62,84
137472,note_off,,,,,96,0,3,,,,,2,,,62,0
137472,note_off,,,,,96,0,4,,,,,3,,,58,0
137472,note_on,,,,,0,0,4,,,,,3,,,58,78
137472,note_off,,,,,96,0,2,,,,,1,,,65,0
137472,note_on,,,,,0,0,2,,,,,1,,,65,90
137760,note_off,,,,,288,0,2,,,,,1,,,65,0
137760,note_on,,,,,0,0,2,,,,,1,,,65,90
137760,note_on,,,,,0,0,3,,,,,2,,,62,84
137760,note_off,,,,,288,0,3,,,,,2,,,62,0
137760,note_off,,,,,288,0,4,,,,,3,,,58,0
137760,note_on,,,,,0,0,4,,,,,3,,,58,78
137856,note_off,,,,,96,0,4,,,,,3,,,58,0
137856,note_off,,,,,96,0,3,,,,,2,,,62,0
137856,note_on,,,,,0,0,3,,,,,2,,,62,84
137856,note_on,,,,,768,0,1,,,,,0,,,82,103
137856,note_on,,,,,0,0,2,,,,,1,,,65,90
137856,note_off,,,,,96,0,2,,,,,1,,,65,0
137856,note_on,,,,,0,0,4,,,,,3,,,58,78
138144,note_off,,,,,288,0,3,,,,,2,,,62,0
138144,note_on,,,,,0,0,3,,,,,2,,,62,84
138144,note_on,,,,,0,0,2,,,,,1,,,65,90
138144,note_on,,,,,0,0,4,,,,,3,,,58,78
138144,note_off,,,,,288,0,2,,,,,1,,,65,0
138144,note_off,,,,,288,0,4,,,,,3,,,58,0
138240,note_off,,,,,96,0,4,,,,,3,,,58,0
138240,note_on,,,,,0,0,1,,,,,0,,,81,103
138240,note_off,,,,,384,0,1,,,,,0,,,82,0
138240,note_on,,,,,0,0,3,,,,,2,,,63,84
138240,note_off,,,,,96,0,3,,,,,2,,,62,0
138240,note_on,,,,,0,0,4,,,,,3,,,58,78
138240,note_off,,,,,96,0,2,,,,,1,,,65,0
138240,note_on,,,,,0,0,2,,,,,1,,,66,90
138528,note_off,,,,,288,0,4,,,,,3,,,58,0
138528,note_on,,,,,0,0,2,,,,,1,,,66,90
138528,note_on,,,,,0,0,4,,,,,3,,,58,78
138528,note_off,,,,,288,0,2,,,,,1,,,66,0
138528,note_on,,,,,0,0,3,,,,,2,,,63,84
138528,note_off,,,,,288,0,3,,,,,2,,,63,0
138624,note_off,,,,,96,0,3,,,,,2,,,63,0
138624,note_on,,,,,0,0,3,,,,,2,,,63,84
138624,note_on,,,,,0,0,4,,,,,3,,,58,78
138624,note_off,,,,,96,0,4,,,,,3,,,58,0
138624,note_on,,,,,0,0,2,,,,,1,,,66,90
138624,note_off,,,,,96,0,2,,,,,1,,,66,0
138912,note_on,,,,,0,0,4,,,,,3,,,58,78
138912,note_off,,,,,288,0,4,,,,,3,,,58,0
138912,note_off,,,,,288,0,2,,,,,1,,,66,0
138912,note_on,,,,,0,0,3,,,,,2,,,63,84
138912,note_on,,,,,0,0,2,,,,,1,,,66,90
138912,note_off,,,,,288,0,3,,,,,2,,,63,0
139008,note_off,,,,,96,0,3,,,,,2,,,63,0
139008,note_on,,,,,0,0,2,,,,,1,,,66,90
139008,note_off,,,,,96,0,2,,,,,1,,,66,0
139008,note_on,,,,,0,0,1,,,,,0,,,84,103
139008,note_off,,,,,96,0,4,,,,,3,,,58,0
139008,note_on,,,,,0,0,4,,,,,3,,,58,78
139008,note_off,,,,,768,0,1,,,,,0,,,81,0
139008,note_on,,,,,0,0,3,,,,,2,,,63,84
139296,note_on,,,,,0,0,4,,,,,3,,,58,78
139296,note_off,,,,,288,0,4,,,,,3,,,58,0
139296,note_on,,,,,0,0,2,,,,,1,,,66,90
139296,note_off,,,,,288,0,2,,,,,1,,,66,0
139296,note_on,,,,,0,0,3,,,,,2,,,63,84
139296,note_off,,,,,288,0,3,,,,,2,,,63,0
139392,note_on,,,,,0,0,2,,,,,1,,,66,90
139392,note_off,,,,,96,0,2,,,,,1,,,66,0
139392,note_on,,,,,0,0,4,,,,,3,,,58,78
139392,note_off,,,,,384,0,1,,,,,0,,,84,0
139392,note_off,,,,,96,0,3,,,,,2,,,63,0
139392,note_on,,,,,0,0,3,,,,,2,,,63,84
139392,note_off,,,,,96,0,4,,,,,3,,,58,0
139392,note_on,,,,,0,0,1,,,,,0,,,81,103
139680,note_off,,,,,288,0,4,,,,,3,,,58,0
139680,note_off,,,,,288,0,2,,,,,1,,,66,0
139680,note_on,,,,,0,0,4,,,,,3,,,58,78
139680,note_off,,,,,288,0,3,,,,,2,,,63,0
139680,note_on,,,,,0,0,2,,,,,1,,,66,90
139680,note_on,,,,,0,0,3,,,,,2,,,63,84
139776,note_on,,,,,0,0,4,,,,,3,,,58,78
139776,note_off,,,,,96,0,3,,,,,2,,,63,0
139776,note_on,,,,,0,0,3,,,,,2,,,62,84
139776,note_off,,,,,96,0,2,,,,,1,,,66,0
139776,note_on,,,,,0,0,2,,,,,1,,,65,90
139776,note_off,,,,,96,0,4,,,,,3,,,58,0
139776,note_off,,,,,384,0,1,,,,,0,,,81,0
139776,note_on,,,,,0,0,1,,,,,0,,,82,103
140064,note_on,,,,,0,0,3,,,,,2,,,62,84
140064,note_on,,,,,0,0,2,,,,,1,,,65,90
140064,note_on,,,,,0,0,4,,,,,3,,,58,78
140064,note_off,,,,,288,0,4,,,,,3,,,58,0
140064,note_off,,,,,288,0,2,,,,,1,,,65,0
140064,note_off,,,,,288,0,3,,,,,2,,,62,0
140160,note_on,,,,,0,0,3,,,,,2,,,62,84
140160,note_off,,,,,96,0,3,,,,,2,,,62,0
140160,note_off,,,,,96,0,2,,,,,1,,,65,0
140160,note_on,,,,,0,0,4,,,,,3,,,58,78
140160,note_off,,,,,384,0,1,,,,,0,,,82,0
140160,note_on,,,,,0,0,1,,,,,0,,,86,103
140160,note_off,,,,,96,0,4,,,,,3,,,58,0
140160,note_on,,,,,0,0,2,,,,,1,,,65,90
140448,note_on,,,,,0,0,3,,,,,2,,,62,84
140448,note_off,,,,,288,0,3,,,,,2,,,62,0
140448,note_on,,,,,0,0,2,,,,,1,,,65,90
140448,note_off,,,,,288,0,4,,,,,3,,,58,0
140448,note_on,,,,,0,0,4,,,,,3,,,58,78
140448,note_off,,,,,288,0,2,,,,,1,,,65,0
140544,note_off,,,,,96,0,2,,,,,1,,,65,0
140544,note_off,,,,,96,0,3,,,,,2,,,62,0
140544,note_off,,,,,96,0,4,,,,,3,,,58,0
140544,note_on,,,,,0,0,3,,,,,2,,,62,84
140544,note_on,,,,,0,0,2,,,,,1,,,65,90
140544,note_on,,,,,0,0,4,,,,,3,,,58,78
140544,note_off,,,,,384,0,1,,,,,0,,,86,0
140832,note_off,,,,,288,0,4,,,,,3,,,58,0
140832,note_off,,,,,288,0,2,,,,,1,,,65,0
140832,note_off,,,,,288,0,3,,,,,2,,,62,0
140832,note_on,,,,,0,0,3,,,,,2,,,62,84
140832,note_on,,,,,0,0,2,,,,,1,,,65,90
140832,note_on,,,,,0,0,4,,,,,3,,,58,78
140928,note_off,,,,,96,0,2,,,,,1,,,65,0
140928,note_off,,,,,96,0,4,,,,,3,,,58,0
140928,note_on,,,,,0,0,2,,,,,1,,,65,90
140928,note_on,,,,,384,0,1,,,,,0,,,82,103
140928,note_off,,,,,96,0,3,,,,,2,,,62,0
140928,note_on,,,,,0,0,3,,,,,2,,,62,84
140928,note_on,,,,,0,0,4,,,,,3,,,58,78
141216,note_off,,,,,288,0,2,,,,,1,,,65,0
141216,note_on,,,,,0,0,2,,,,,1,,,65,90
141216,note_on,,,,,0,0,4,,,,,3,,,58,78
141216,note_on,,,,,0,0,3,,,,,2,,,62,84
141216,note_off,,,,,288,0,3,,,,,2,,,62,0
141216,note_off,,,,,288,0,4,,,,,3,,,58,0
141312,note_on,,,,,0,0,4,,,,,3,,,58,78
141312,note_on,,,,,0,0,2,,,,,1,,,66,90
141312,note_off,,,,,96,0,2,,,,,1,,,65,0
141312,note_on,,,,,0,0,3,,,,,2,,,63,84
141312,note_off,,,,,96,0,3,,,,,2,,,62,0
141312,note_off,,,,,96,0,4,,,,,3,,,58,0
141312,note_off,,,,,384,0,1,,,,,0,,,82,0
141312,note_on,,,,,0,0,1,,,,,0,,,87,103
141600,note_off,,,,,288,0,2,,,,,1,,,66,0
141600,note_on,,,,,0,0,4,,,,,3,,,58,78
141600,note_off,,,,,288,0,3,,,,,2,,,63,0
141600,note_off,,,,,288,0,4,,,,,3,,,58,0
141600,note_on,,,,,0,0,2,,,,,1,,,66,90
141600,note_on,,,,,0,0,3,,,,,2,,,63,84
141696,note_on,,,,,0,0,3,,,,,2,,,63,84
141696,note_off,,,,,96,0,4,,,,,3,,,58,0
141696,note_on,,,,,0,0,4,,,,,3,,,58,78
141696,note_on,,,,,0,0,2,,,,,1,,,66,90
141696,note_off,,,,,96,0,3,,,,,2,,,63,0
141696,note_off,,,,,96,0,2,,,,,1,,,66,0
141984,note_off,,,,,288,0,4,,,,,3,,,58,0
141984,note_off,,,,,288,0,2,,,,,1,,,66,0
141984,note_on,,,,,0,0,2,,,,,1,,,66,90
141984,note_on,,,,,0,0,4,,,,,3,,,58,78
141984,note_off,,,,,288,0,3,,,,,2,,,63,0
141984,note_on,,,,,0,0,3,,,,,2,,,63,84
142080,note_on,,,,,0,0,1,,,,,0,,,84,103
142080,note_off,,,,,768,0,1,,,,,0,,,87,0
142080,note_off,,,,,96,0,4,,,,,3,,,58,0
142080,note_off,,,,,96,0,3,,,,,2,,,63,0
142080,note_on,,,,,0,0,2,,,,,1,,,66,90
142080,note_on,,,,,0,0,3,,,,,2,,,63,84
142080,note_on,,,,,0,0,4,,,,,3,,,58,78
142080,note_off,,,,,96,0,2,,,,,1,,,66,0
142368,note_on,,,,,0,0,3,,,,,2,,,63,84
142368,note_off,,,,,288,0,2,,,,,1,,,66,0
142368,note_on,,,,,0,0,2,,,,,1,,,66,90
142368,note_off,,,,,288,0,3,,,,,2,,,63,0
142368,note_on,,,,,0,0,4,,,,,3,,,58,78
142368,note_off,,,,,288,0,4,,,,,3,,,58,0
142464,note_on,,,,,0,0,1,,,,,0,,,81,103
142464,note_off,,,,,384,0,1,,,,,0,,,84,0
142464,note_off,,,,,96,0,4,,,,,3,,,58,0
142464,note_off,,,,,96,0,3,,,,,2,,,63,0
142464,note_on,,,,,0,0,3,,,,,2,,,63,84
142464,note_off,,,,,96,0,2,,,,,1,,,66,0
142464,note_on,,,,,0,0,2,,,,,1,,,66,90
142464,note_on,,,,,0,0,4,,,,,3,,,58,78
142752,note_off,,,,,288,0,3,,,,,2,,,63,0
142752,note_off,,,,,288,0,4,,,,,3,,,58,0
142752,note_on,,,,,0,0,4,,,,,3,,,58,78
142752,note_off,,,,,288,0,2,,,,,1,,,66,0
142752,note_on,,,,,0,0,2,,,,,1,,,66,90
142752,note_on,,,,,0,0,3,,,,,2,,,63,84
142848,note_off,,,,,96,0,2,,,,,1,,,66,0
142848,note_on,,,,,0,0,2,,,,,1,,,65,90
142848,note_on,,,,,0,0,1,,,,,0,,,82,103
142848,note_off,,,,,384,0,1,,,,,0,,,81,0
142848,note_on,,,,,0,0,4,,,,,3,,,58,78
142848,note_on,,,,,0,0,3,,,,,2,,,62,84
142848,note_off,,,,,96,0,3,,,,,2,,,63,0
142848,note_off,,,,,96,0,4,,,,,3,,,58,0
143136,note_on,,,,,0,0,3,,,,,2,,,62,84
143136,note_off,,,,,288,0,3,,,,,2,,,62,0
143136,note_off,,,,,288,0,4,,,,,3,,,58,0
143136,note_off,,,,,288,0,2,,,,,1,,,65,0
143136,note_on,,,,,0,0,4,,,,,3,,,58,78
143136,note_on,,,,,0,0,2,,,,,1,,,65,90
143232,note_on,,,,,0,0,3,,,,,2,,,62,84
143232,note_off,,,,,384,0,1,,,,,0,,,82,0
143232,note_off,,,,,96,0,3,,,,,2,,,62,0
143232,note_on,,,,,0,0,4,,,,,3,,,58,78
143232,note_on,,,,,0,0,2,,,,,1,,,65,90
143232,note_off,,,,,96,0,2,,,,,1,,,65,0
143232,note_off,,,,,96,0,4,,,,,3,,,58,0
143232,note_on,,,,,0,0,1,,,,,0,,,77,103
143520,note_off,,,,,288,0,4,,,,,3,,,58,0
143520,note_on,,,,,0,0,4,,,,,3,,,58,78
143520,note_on,,,,,0,0,3,,,,,2,,,62,84
143520,note_off,,,,,288,0,3,,,,,2,,,62,0
143520,note_on,,,,,0,0,2,,,,,1,,,65,90
143520,note_off,,,,,288,0,2,,,,,1,,,65,0
143616,note_on,,,,,0,0,2,,,,,1,,,65,90
143616,note_off,,,,,96,0,2,,,,,1,,,65,0
143616,note_off,,,,,384,0,1,,,,,0,,,77,0
143616,note_on,,,,,0,0,4,,,,,3,,,58,78
143616,note_off,,,,,96,0,4,,,,,3,,,58,0
143616,note_on,,,,,0,0,3,,,,,2,,,62,84
143616,note_off,,,,,96,0,3,,,,,2,,,62,0
143904,note_on,,,,,0,0,2,,,,,1,,,65,90
143904,note_off,,,,,288,0,2,,,,,1,,,65,0
143904,note_on,,,,,0,0,4,,,,,3,,,58,78
143904,note_off,,,,,288,0,4,,,,,3,,,58,0
143904,note_on,,,,,0,0,3,,,,,2,,,62,84
143904,note_off,,,,,288,0,3,,,,,2,,,62,0
144000,note_off,,,,,96,0,2,,,,,1,,,65,0
144000,note_off,,,,,96,0,3,,,,,2,,,62,0
144000,note_on,,,,,0,0,2,,,,,1,,,65,90
144000,note_on,,,,,384,0,1,,,,,0,,,70,103
144000,note_on,,,,,0,0,3,,,,,2,,,62,84
144000,note_off,,,,,96,0,4,,,,,3,,,58,0
144000,note_on,,,,,0,0,4,,,,,3,,,58,78
144288,note_off,,,,,288,0,3,,,,,2,,,62,0
144288,note_on,,,,,0,0,3,,,,,2,,,62,84
144288,note_off,,,,,288,0,2,,,,,1,,,65,0
144288,note_on,,,,,0,0,2,,,,,1,,,65,90
144288,note_on,,,,,0,0,4,,,,,3,,,58,78
144288,note_off,,,,,288,0,4,,,,,3,,,58,0
144384,note_on,,,,,0,0,4,,,,,3,,,58,78
144384,note_on,,,,,0,0,3,,,,,2,,,63,84
144384,note_off,,,,,96,0,3,,,,,2,,,62,0
144384,note_off,,,,,96,0,2,,,,,1,,,65,0
144384,note_on,,,,,0,0,1,,,,,0,,,69,103
144384,note_off,,,,,96,0,4,,,,,3,,,58,0
144384,note_on,,,,,0,0,2,,,,,1,,,66,90
144384,note_off,,,,,384,0,1,,,,,0,,,70,0
144672,note_on,,,,,0,0,2,,,,,1,,,66,90
144672,note_on,,,,,0,0,3,,,,,2,,,63,84
144672,note_off,,,,,288,0,2,,,,,1,,,66,0
144672,note_on,,,,,0,0,4,,,,,3,,,58,78
144672,note_off,,,,,288,0,4,,,,,3,,,58,0
144672,note_off,,,,,288,0,3,,,,,2,,,63,0
144768,note_off,,,,,96,0,2,,,,,1,,,66,0
144768,note_on,,,,,0,0,2,,,,,1,,,66,90
144768,note_on,,,,,0,0,4,,,,,3,,,58,78
144768,note_off,,,,,96,0,4,,,,,3,,,58,0
144768,note_on,,,,,0,0,3,,,,,2,,,63,84
144768,note_off,,,,,96,0,3,,,,,2,,,63,0
145056,note_on,,,,,0,0,4,,,,,3,,,58,78
145056,note_off,,,,,288,0,4,,,,,3,,,58,0
145056,note_off,,,,,288,0,3,,,,,2,,,63,0
145056,note_on,,,,,0,0,3,,,,,2,,,63,84
145056,note_off,,,,,288,0,2,,,,,1,,,66,0
145056,note_on,,,,,0,0,2,,,,,1,,,66,90
145152,note_off,,,,,768,0,1,,,,,0,,,69,0
145152,note_on,,,,,0,0,1,,,,,0,,,72,103
145152,note_off,,,,,96,0,4,,,,,3,,,58,0
145152,note_on,,,,,0,0,4,,,,,3,,,58,78
145152,note_off,,,,,96,0,2,,,,,1,,,66,0
145152,note_on,,,,,0,0,2,,,,,1,,,66,90
145152,note_on,,,,,0,0,3,,,,,2,,,63,84
145152,note_off,,,,,96,0,3,,,,,2,,,63,0
145440,note_off,,,,,288,0,3,,,,,2,,,63,0
145440,note_on,,,,,0,0,4,,,,,3,,,58,78
145440,note_off,,,,,288,0,4,,,,,3,,,58,0
145440,note_on,,,,,0,0,3,,,,,2,,,63,84
145440,note_on,,,,,0,0,2,,,,,1,,,66,90
145440,note_off,,,,,288,0,2,,,,,1,,,66,0
145536,note_off,,,,,96,0,4,,,,,3,,,58,0
145536,note_on,,,,,0,0,3,,,,,2,,,63,84
145536,note_off,,,,,96,0,3,,,,,2,,,63,0
145536,note_on,,,,,0,0,4,,,,,3,,,58,78
145536,note_on,,,,,0,0,2,,,,,1,,,66,90
145536,note_on,,,,,0,0,1,,,,,0,,,69,103
145536,note_off,,,,,384,0,1,,,,,0,,,72,0
145536,note_off,,,,,96,0,2,,,,,1,,,66,0
145824,note_off,,,,,288,0,2,,,,,1,,,66,0
145824,note_on,,,,,0,0,2,,,,,1,,,66,90
145824,note_off,,,,,288,0,3,,,,,2,,,63,0
145824,note_on,,,,,0,0,3,,,,,2,,,63,84
145824,note_off,,,,,288,0,4,,,,,3,,,58,0
145824,note_on,,,,,0,0,4,,,,,3,,,58,78
145920,note_off,,,,,96,0,2,,,,,1,,,66,0
145920,note_off,,,,,96,0,3,,,,,2,,,63,0
145920,note_on,,,,,0,0,3,,,,,2,,,62,84
145920,note_on,,,,,0,0,2,,,,,1,,,65,90
145920,note_off,,,,,96,0,4,,,,,3,,,58,0
145920,note_on,,,,,0,0,4,,,,,3,,,58,78
145920,note_off,,,,,384,0,1,,,,,0,,,69,0
145920,note_on,,,,,0,0,1,,,,,0,,,70,103
146208,note_off,,,,,288,0,3,,,,,2,,,62,0
146208,note_on,,,,,0,0,3,,,,,2,,,62,84
146208,note_off,,,,,288,0,2,,,,,1,,,65,0
146208,note_on,,,,,0,0,2,,,,,1,,,65,90
146208,note_on,,,,,0,0,4,,,,,3,,,58,78
146208,note_off,,,,,288,0,4,,,,,3,,,58,0
146304,note_off,,,,,96,0,2,,,,,1,,,65,0
146304,note_off,,,,,96,0,3,,,,,2,,,62,0
146304,note_on,,,,,0,0,1,,,,,0,,,74,103
146304,note_on,,,,,0,0,2,,,,,1,,,65,90
146304,note_off,,,,,384,0,1,,,,,0,,,70,0
146304,note_off,,,,,96,0,4,,,,,3,,,58,0
146304,note_on,,,,,0,0,4,,,,,3,,,58,78
146304,note_on,,,,,0,0,3,,,,,2,,,62,84
146592,note_off,,,,,288,0,3,,,,,2,,,62,0
146592,note_off,,,,,288,0,4,,,,,3,,,58,0
146592,note_on,,,,,0,0,4,,,,,3,,,58,78
146592,note_on,,,,,0,0,3,,,,,2,,,62,84
146592,note_off,,,,,288,0,2,,,,,1,,,65,0
146592,note_on,,,,,0,0,2,,,,,1,,,65,90
146688,note_off,,,,,384,0,1,,,,,0,,,74,0
146688,note_off,,,,,96,0,3,,,,,2,,,62,0
146688,note_off,,,,,96,0,2,,,,,1,,,65,0
146688,note_on,,,,,0,0,2,,,,,1,,,65,90
146688,note_off,,,,,96,0,4,,,,,3,,,58,0
146688,note_on,,,,,0,0,4,,,,,3,,,58,78
146688,note_on,,,,,0,0,3,,,,,2,,,62,84
146976,note_off,,,,,288,0,4,,,,,3,,,58,0
146976,note_off,,,,,288,0,2,,,,,1,,,65,0
146976,note_off,,,,,288,0,3,,,,,2,,,62,0
146976,note_on,,,,,0,0,3,,,,,2,,,62,84
146976,note_on,,,,,0,0,4,,,,,3,,,58,78
146976,note_on,,,,,0,0,2,,,,,1,,,65,90
147072,note_off,,,,,96,0,2,,,,,1,,,65,0
147072,note_off,,,,,96,0,4,,,,,3,,,58,0
147072,note_on,,,,,0,0,4,,,,,3,,,58,78
147072,note_on,,,,,0,0,2,,,,,1,,,65,90
147072,note_off,,,,,96,0,3,,,,,2,,,62,0
147072,note_on,,,,,0,0,3,,,,,2,,,62,84
147072,note_on,,,,,384,0,1,,,,,0,,,82,103
147360,note_off,,,,,288,0,2,,,,,1,,,65,0
147360,note_on,,,,,0,0,4,,,,,3,,,58,78
147360,note_off,,,,,288,0,3,,,,,2,,,62,0
147360,note_off,,,,,288,0,4,,,,,3,,,58,0
147360,note_on,,,,,0,0,3,,,,,2,,,62,84
147360,note_on,,,,,0,0,2,,,,,1,,,65,90
147456,note_off,,,,,384,0,1,,,,,0,,,82,0
147456,note_on,,,,,0,0,3,,,,,2,,,63,84
147456,note_on,,,,,0,0,2,,,,,1,,,66,90
147456,note_off,,,,,96,0,4,,,,,3,,,58,0
147456,note_on,,,,,0,0,4,,,,,3,,,58,78
147456,note_on,,,,,0,0,1,,,,,0,,,87,103
147456,note_off,,,,,96,0,3,,,,,2,,,62,0
147456,note_off,,,,,96,0,2,,,,,1,,,65,0
147744,note_off,,,,,288,0,2,,,,,1,,,66,0
147744,note_off,,,,,288,0,3,,,,,2,,,63,0
147744,note_off,,,,,288,0,4,,,,,3,,,58,0
147744,note_on,,,,,0,0,4,,,,,3,,,58,78
147744,note_on,,,,,0,0,3,,,,,2,,,63,84
147744,note_on,,,,,0,0,2,,,,,1,,,66,90
147840,note_off,,,,,96,0,3,,,,,2,,,63,0
147840,note_on,,,,,0,0,3,,,,,2,,,63,84
147840,note_off,,,,,96,0,4,,,,,3,,,58,0
147840,note_off,,,,,96,0,2,,,,,1,,,66,0
147840,note_on,,,,,0,0,2,,,,,1,,,66,90
147840,note_on,,,,,0,0,4,,,,,3,,,58,78
148128,note_off,,,,,288,0,4,,,,,3,,,58,0
148128,note_on,,,,,0,0,2,,,,,1,,,66,90
148128,note_on,,,,,0,0,3,,,,,2,,,63,84
148128,note_off,,,,,288,0,3,,,,,2,,,63,0
148128,note_off,,,,,288,0,2,,,,,1,,,66,0
148128,note_on,,,,,0,0,4,,,,,3,,,58,78
148224,note_on,,,,,0,0,4,,,,,3,,,58,78
148224,note_on,,,,,0,0,1,,,,,0,,,84,103
148224,note_off,,,,,768,0,1,,,,,0,,,87,0
148224,note_on,,,,,0,0,3,,,,,2,,,63,84
148224,note_off,,,,,96,0,3,,,,,2,,,63,0
148224,note_off,,,,,96,0,4,,,,,3,,,58,0
148224,note_off,,,,,96,0,2,,,,,1,,,66,0
148224,note_on,,,,,0,0,2,,,,,1,,,66,90
148512,note_on,,,,,0,0,4,,,,,3,,,58,78
148512,note_off,,,,,288,0,4,,,,,3,,,58,0
148512,note_off,,,,,288,0,2,,,,,1,,,66,0
148512,note_on,,,,,0,0,2,,,,,1,,,66,90
148512,note_on,,,,,0,0,3,,,,,2,,,63,84
148512,note_off,,,,,288,0,3,,,,,2,,,63,0
148608,note_off,,,,,96,0,2,,,,,1,,,66,0
148608,note_off,,,,,96,0,4,,,,,3,,,58,0
148608,note_on,,,,,0,0,2,,,,,1,,,66,90
148608,note_off,,,,,384,0,1,,,,,0,,,84,0
148608,note_on,,,,,0,0,3,,,,,2,,,63,84
148608,note_on,,,,,0,0,1,,,,,0,,,81,103
148608,note_on,,,,,0,0,4,,,,,3,,,58,78
148608,note_off,,,,,96,0,3,,,,,2,,,63,0
148896,note_off,,,,,288,0,4,,,,,3,,,58,0
148896,note_on,,,,,0,0,2,,,,,1,,,66,90
148896,note_off,,,,,288,0,2,,,,,1,,,66,0
148896,note_off,,,,,288,0,3,,,,,2,,,63,0
148896,note_on,,,,,0,0,4,,,,,3,,,58,78
148896,note_on,,,,,0,0,3,,,,,2,,,63,84
148992,note_on,,,,,0,0,1,,,,,0,,,82,103
148992,note_on,,,,,0,0,2,,,,,1,,,65,90
148992,note_off,,,,,96,0,4,,,,,3,,,58,0
148992,note_on,,,,,0,0,4,,,,,3,,,58,78
148992,note_off,,,,,96,0,3,,,,,2,,,63,0
148992,note_on,,,,,0,0,3,,,,,2,,,62,84
148992,note_off,,,,,96,0,2,,,,,1,,,66,0
148992,note_off,,,,,384,0,1,,,,,0,,,81,0
149280,note_off,,,,,288,0,3,,,,,2,,,62,0
149280,note_on,,,,,0,0,3,,,,,2,,,58,84
149280,note_off,,,,,288,0,2,,,,,1,,,65,0
149280,note_on,,,,,0,0,2,,,,,1,,,58,90
149376,note_off,,,,,96,0,3,,,,,2,,,58,0
149376,note_on,,,,,0,0,3,,,,,2,,,58,84
149376,note_off,,,,,96,0,2,,,,,1,,,58,0
149376,note_on,,,,,0,0,2,,,,,1,,,58,90
149376,note_off,,,,,384,0,1,,,,,0,,,82,0
149376,note_off,,,,,384,0,4,,,,,3,,,58,0
149664,note_off,,,,,288,0,3,,,,,2,,,58,0
149664,note_off,,,,,288,0,2,,,,,1,,,58,0
149664,note_on,,,,,0,0,3,,,,,2,,,58,84
149664,note_on,,,,,0,0,2,,,,,1,,,58,90
149760,note_off,,,,,96,0,2,,,,,1,,,58,0
149760,note_on,,,,,0,0,2,,,,,1,,,58,90
149760,note_on,,,,,0,0,3,,,,,2,,,58,84
149760,note_off,,,,,96,0,3,,,,,2,,,58,0
150144,note_on,,,,,0,0,2,,,,,1,,,67,90
150144,note_on,,,,,768,0,4,,,,,3,,,43,78
150144,note_off,,,,,384,0,2,,,,,1,,,58,0
150144,note_on,,,,,768,0,1,,,,,0,,,79,103
150144,note_off,,,,,384,0,3,,,,,2,,,58,0
150144,note_on,,,,,0,0,3,,,,,2,,,55,84
150528,note_off,,,,,384,0,4,,,,,3,,,43,0
150528,note_on,,,,,0,0,4,,,,,3,,,44,78
150528,note_off,,,,,384,0,1,,,,,0,,,79,0
150528,note_on,,,,,0,0,1,,,,,0,,,80,103
150528,note_off,,,,,384,0,2,,,,,1,,,67,0
150528,note_on,,,,,0,0,2,,,,,1,,,68,90
150528,note_off,,,,,384,0,3,,,,,2,,,55,0
150528,note_on,,,,,0,0,3,,,,,2,,,56,84
151296,note_off,,,,,768,0,2,,,,,1,,,68,0
151296,note_on,,,,,0,0,1,,,,,0,,,77,103
151296,note_off,,,,,768,0,1,,,,,0,,,80,0
151296,note_on,,,,,0,0,2,,,,,1,,,65,90
151296,note_on,,,,,0,0,3,,,,,2,,,53,84
151296,note_off,,,,,768,0,3,,,,,2,,,56,0
151296,note_off,,,,,768,0,4,,,,,3,,,44,0
151296,note_on,,,,,0,0,4,,,,,3,,,41,78
151680,note_on,,,,,0,0,2,,,,,1,,,62,90
151680,note_off,,,,,384,0,2,,,,,1,,,65,0
151680,note_on,,,,,0,0,4,,,,,3,,,38,78
151680,note_off,,,,,384,0,1,,,,,0,,,77,0
151680,note_on,,,,,0,0,1,,,,,0,,,74,103
151680,note_off,,,,,384,0,3,,,,,2,,,53,0
151680,note_on,,,,,0,0,3,,,,,2,,,50,84
151680,note_off,,,,,384,0,4,,,,,3,,,41,0
152064,note_off,,,,,384,0,4,,,,,3,,,38,0
152064,note_on,,,,,0,0,2,,,,,1,,,63,90
152064,note_off,,,,,384,0,2,,,,,1,,,62,0
152064,note_on,,,,,0,0,4,,,,,3,,,39,78
152064,note_on,,,,,0,0,3,,,,,2,,,51,84
152064,note_on,,,,,0,0,1,,,,,0,,,75,103
152064,note_off,,,,,384,0,1,,,,,0,,,74,0
152064,note_off,,,,,384,0,3,,,,,2,,,50,0
152448,note_off,,,,,384,0,3,,,,,2,,,51,0
152448,note_on,,,,,0,0,1,,,,,0,,,79,103
152448,note_on,,,,,0,0,3,,,,,2,,,55,84
152448,note_off,,,,,384,0,2,,,,,1,,,63,0
152448,note_on,,,,,0,0,2,,,,,1,,,67,90
152448,note_on,,,,,0,0,4,,,,,3,,,43,78
152448,note_off,,,,,384,0,4,,,,,3,,,39,0
152448,note_off,,,,,384,0,1,,,,,0,,,75,0
152832,note_off,,,,,384,0,4,,,,,3,,,43,0
152832,note_off,,,,,384,0,3,,,,,2,,,55,0
152832,note_off,,,,,384,0,2,,,,,1,,,67,0
153216,note_on,,,,,384,0,3,,,,,2,,,70,84
153216,note_on,,,,,384,0,2,,,,,1,,,73,90
153216,note_on,,,,,384,0,4,,,,,3,,,64,78
153216,note_on,,,,,0,0,1,,,,,0,,,79,103
153216,note_off,,,,,768,0,1,,,,,0,,,79,0
153600,note_off,,,,,384,0,2,,,,,1,,,73,0
153600,note_on,,,,,0,0,4,,,,,3,,,65,78
153600,note_on,,,,,0,0,2,,,,,1,,,74,90
153600,note_off,,,,,384,0,4,,,,,3,,,64,0
153600,note_off,,,,,384,0,1,,,,,0,,,79,0
153600,note_on,,,,,0,0,1,,,,,0,,,77,103
154368,note_off,,,,,768,0,1,,,,,0,,,77,0
154368,note_on,,,,,0,0,1,,,,,0,,,82,103
154752,note_on,,,,,0,0,1,,,,,0,,,86,103
154752,note_off,,,,,384,0,1,,,,,0,,,82,0
155136,note_off,,,,,1920,0,3,,,,,2,,,70,53
155136,note_on,,,,,0,0,2,,,,,1,,,69,90
155136,note_off,,,,,1536,0,2,,,,,1,,,74,0
155136,note_on,,,,,0,0,3,,,,,2,,,65,84
155136,note_on,,,,,0,0,4,,,,,3,,,53,78
155136,note_off,,,,,1536,0,4,,,,,3,,,65,0
155136,note_off,,,,,384,0,1,,,,,0,,,86,0
155136,note_on,,,,,0,0,1,,,,,0,,,87,103
155520,note_off,,,,,384,0,1,,,,,0,,,87,0
155520,note_on,,,,,0,0,3,,,,,2,,,69,84
155520,note_off,,,,,384,0,3,,,,,2,,,65,0
155520,note_on,,,,,0,0,1,,,,,0,,,84,103
155520,note_off,,,,,384,0,2,,,,,1,,,69,0
155520,note_on,,,,,0,0,2,,,,,1,,,72,90
156288,note_on,,,,,0,0,1,,,,,0,,,81,103
156288,note_on,,,,,0,0,3,,,,,2,,,72,84
156288,note_off,,,,,768,0,3,,,,,2,,,69,0
156288,note_off,,,,,768,0,1,,,,,0,,,84,0
156288,note_off,,,,,768,0,2,,,,,1,,,72,0
156288,note_on,,,,,0,0,2,,,,,1,,,75,90
156672,note_on,,,,,0,0,3,,,,,2,,,70,84
156672,note_off,,,,,384,0,3,,,,,2,,,72,0
156672,note_off,,,,,1536,0,4,,,,,3,,,53,0
156672,note_on,,,,,0,0,2,,,,,1,,,74,90
156672,note_on,,,,,0,0,4,,,,,3,,,58,78
156672,note_off,,,,,384,0,1,,,,,0,,,81,0
156672,note_on,,,,,0,0,1,,,,,0,,,82,103
156672,note_off,,,,,384,0,2,,,,,1,,,75,0
156864,note_off,,,,,192,0,3,,,,,2,,,70,0
157056,note_off,,,,,384,0,2,,,,,1,,,74,0
157056,note_off,,,,,384,0,4,,,,,3,,,58,0
157056,note_off,,,,,384,0,1,,,,,0,,,82,0
157056,note_on,,,,,192,0,3,,,,,2,,,50,84
157440,note_off,,,,,384,0,3,,,,,2,,,50,0
157440,note_on,,,,,0,0,3,,,,,2,,,53,84
157824,note_on,,,,,768,0,1,,,,,0,,,79,103
157824,note_on,,,,,768,0,2,,,,,1,,,67,90
157824,note_off,,,,,384,0,3,,,,,2,,,53,0
157824,note_on,,,,,0,0,3,,,,,2,,,55,84
157824,note_on,,,,,768,0,4,,,,,3,,,43,78
158208,note_off,,,,,384,0,3,,,,,2,,,55,0
158208,note_on,,,,,0,0,1,,,,,0,,,80,103
158208,note_off,,,,,384,0,1,,,,,0,,,79,0
158208,note_off,,,,,384,0,2,,,,,1,,,67,0
158208,note_on,,,,,0,0,2,,,,,1,,,68,90
158208,note_off,,,,,384,0,4,,,,,3,,,43,0
158208,note_on,,,,,0,0,4,,,,,3,,,44,78
158208,note_on,,,,,0,0,3,,,,,2,,,56,84
158976,note_off,,,,,768,0,2,,,,,1,,,68,0
158976,note_off,,,,,768,0,4,,,,,3,,,44,0
158976,note_on,,,,,0,0,3,,,,,2,,,53,84
158976,note_off,,,,,768,0,3,,,,,2,,,56,0
158976,note_off,,,,,768,0,1,,,,,0,,,80,0
158976,note_on,,,,,0,0,1,,,,,0,,,77,103
158976,note_on,,,,,0,0,4,,,,,3,,,41,78
158976,note_on,,,,,0,0,2,,,,,1,,,65,90
159360,note_off,,,,,384,0,1,,,,,0,,,77,0
159360,note_on,,,,,0,0,3,,,,,2,,,50,84
159360,note_off,,,,,384,0,3,,,,,2,,,53,0
159360,note_on,,,,,0,0,2,,,,,1,,,62,90
159360,note_off,,,,,384,0,2,,,,,1,,,65,0
159360,note_on,,,,,0,0,1,,,,,0,,,74,103
159360,note_on,,,,,0,0,4,,,,,3,,,38,78
159360,note_off,,,,,384,0,4,,,,,3,,,41,0
159744,note_off,,,,,384,0,3,,,,,2,,,50,0
159744,note_on,,,,,0,0,4,,,,,3,,,39,78
159744,note_off,,,,,384,0,4,,,,,3,,,38,0
159744,note_on,,,,,0,0,3,,,,,2,,,51,84
159744,note_off,,,,,384,0,2,,,,,1,,,62,0
159744,note_off,,,,,384,0,1,,,,,0,,,74,0
159744,note_on,,,,,0,0,1,,,,,0,,,75,103
159744,note_on,,,,,0,0,2,,,,,1,,,63,90
160128,note_off,,,,,384,0,3,,,,,2,,,51,0
160128,note_on,,,,,0,0,3,,,,,2,,,55,84
160128,note_on,,,,,0,0,2,,,,,1,,,67,90
160128,note_on,,,,,0,0,1,,,,,0,,,79,103
160128,note_off,,,,,384,0,1,,,,,0,,,75,0
160128,note_off,,,,,384,0,2,,,,,1,,,63,0
160128,note_off,,,,,384,0,4,,,,,3,,,39,0
160128,note_on,,,,,0,0,4,,,,,3,,,43,78
160512,note_off,,,,,384,0,2,,,,,1,,,67,0
160512,note_off,,,,,384,0,4,,,,,3,,,43,0
160512,note_off,,,,,384,0,3,,,,,2,,,55,0
160896,note_off,,,,,768,0,1,,,,,0,,,79,0
160896,note_on,,,,,0,0,1,,,,,0,,,79,103
160896,note_on,,,,,384,0,4,,,,,3,,,64,78
160896,note_on,,,,,384,0,2,,,,,1,,,73,90
160896,note_on,,,,,384,0,3,,,,,2,,,70,84
161280,note_on,,,,,0,0,4,,,,,3,,,65,78
161280,note_off,,,,,384,0,4,,,,,3,,,64,0
161280,note_off,,,,,384,0,1,,,,,0,,,79,0
161280,note_on,,,,,0,0,1,,,,,0,,,77,103
161280,note_off,,,,,384,0,2,,,,,1,,,73,0
161280,note_on,,,,,0,0,2,,,,,1,,,74,90
162048,note_on,,,,,0,0,1,,,,,0,,,82,103
162048,note_off,,,,,768,0,1,,,,,0,,,77,0
162432,note_on,,,,,0,0,1,,,,,0,,,86,103
162432,note_off,,,,,384,0,1,,,,,0,,,82,0
162816,note_off,,,,,1536,0,2,,,,,1,,,74,0
162816,note_on,,,,,0,0,4,,,,,3,,,53,78
162816,note_off,,,,,1920,0,3,,,,,2,,,70,53
162816,note_off,,,,,1536,0,4,,,,,3,,,65,0
162816,note_on,,,,,0,0,1,,,,,0,,,87,103
162816,note_off,,,,,384,0,1,,,,,0,,,86,0
162816,note_on,,,,,0,0,2,,,,,1,,,69,90
162816,note_on,,,,,0,0,3,,,,,2,,,65,84
163200,note_off,,,,,384,0,3,,,,,2,,,65,0
163200,note_on,,,,,0,0,1,,,,,0,,,84,103
163200,note_on,,,,,0,0,2,,,,,1,,,72,90
163200,note_off,,,,,384,0,1,,,,,0,,,87,0
163200,note_off,,,,,384,0,2,,,,,1,,,69,0
163200,note_on,,,,,0,0,3,,,,,2,,,69,84
163968,note_off,,,,,768,0,2,,,,,1,,,72,0
163968,note_on,,,,,0,0,1,,,,,0,,,81,103
163968,note_off,,,,,768,0,1,,,,,0,,,84,0
163968,note_off,,,,,768,0,3,,,,,2,,,69,0
163968,note_on,,,,,0,0,2,,,,,1,,,75,90
163968,note_on,,,,,0,0,3,,,,,2,,,72,84
164352,note_on,,,,,0,0,2,,,,,1,,,74,90
164352,note_on,,,,,0,0,3,,,,,2,,,70,84
164352,note_off,,,,,1536,0,4,,,,,3,,,53,0
164352,note_off,,,,,384,0,1,,,,,0,,,81,0
164352,note_on,,,,,0,0,1,,,,,0,,,82,103
164352,note_on,,,,,0,0,4,,,,,3,,,46,78
164352,note_off,,,,,384,0,2,,,,,1,,,75,0
164352,note_off,,,,,384,0,3,,,,,2,,,72,0
164736,note_off,,,,,384,0,3,,,,,2,,,70,0
164736,note_on,,,,,0,0,3,,,,,2,,,62,84
164736,note_off,,,,,384,0,2,,,,,1,,,74,0
164736,note_on,,,,,0,0,2,,,,,1,,,65,90
165024,note_off,,,,,672,0,1,,,,,0,,,82,0
165024,note_on,,,,,0,0,1,,,,,0,,,72,103
165120,note_off,,,,,384,0,2,,,,,1,,,65,0
165120,note_on,,,,,0,0,1,,,,,0,,,70,103
165120,note_on,,,,,0,0,2,,,,,1,,,63,90
165120,note_on,,,,,0,0,3,,,,,2,,,60,84
165120,note_off,,,,,384,0,3,,,,,2,,,62,0
165120,note_off,,,,,96,0,1,,,,,0,,,72,0
165248,note_off,,,,,128,0,1,,,,,0,,,70,0
165248,note_on,,,,,0,0,1,,,,,0,,,69,103
165376,note_on,,,,,0,0,1,,,,,0,,,70,103
165376,note_off,,,,,128,0,1,,,,,0,,,69,0
165440,note_off,,,,,64,0,1,,,,,0,,,70,0
165440,note_on,,,,,0,0,1,,,,,0,,,72,103
165504,note_on,,,,,0,0,2,,,,,1,,,62,90
165504,note_on,,,,,0,0,3,,,,,2,,,58,84
165504,note_off,,,,,384,0,3,,,,,2,,,60,0
165504,note_off,,,,,64,0,1,,,,,0,,,72,0
165504,note_on,,,,,0,0,1,,,,,0,,,70,103
165504,note_off,,,,,384,0,2,,,,,1,,,63,0
165632,note_off,,,,,128,0,1,,,,,0,,,70,0
165632,note_on,,,,,0,0,1,,,,,0,,,69,103
165760,note_off,,,,,128,0,1,,,,,0,,,69,0
165760,note_on,,,,,0,0,1,,,,,0,,,70,103
165888,note_off,,,,,128,0,1,,,,,0,,,70,0
165888,note_on,,,,,0,0,1,,,,,0,,,77,103
165888,note_off,,,,,384,0,2,,,,,1,,,62,0
165888,note_on,,,,,0,0,3,,,,,2,,,60,84
165888,note_off,,,,,384,0,3,,,,,2,,,58,0
165888,note_on,,,,,0,0,2,,,,,1,,,63,90
166272,note_off,,,,,384,0,1,,,,,0,,,77,0
166272,note_on,,,,,0,0,1,,,,,0,,,75,103
166656,note_on,,,,,0,0,1,,,,,0,,,74,103
166656,note_on,,,,,0,0,3,,,,,2,,,62,84
166656,note_off,,,,,768,0,3,,,,,2,,,60,0
166656,note_on,,,,,0,0,2,,,,,1,,,65,90
166656,note_off,,,,,768,0,2,,,,,1,,,63,0
166656,note_off,,,,,384,0,1,,,,,0,,,75,0
166848,note_on,,,,,0,0,1,,,,,0,,,72,103
166848,note_off,,,,,192,0,1,,,,,0,,,74,0
167040,note_off,,,,,192,0,1,,,,,0,,,72,0
167040,note_on,,,,,0,0,2,,,,,1,,,66,90
167040,note_off,,,,,384,0,3,,,,,2,,,62,0
167040,note_on,,,,,0,0,3,,,,,2,,,63,84
167040,note_on,,,,,0,0,1,,,,,0,,,70,103
167040,note_off,,,,,384,0,2,,,,,1,,,65,0
167232,note_on,,,,,0,0,1,,,,,0,,,69,103
167232,note_off,,,,,192,0,1,,,,,0,,,70,0
167424,note_on,,,,,0,0,1,,,,,0,,,70,103
167424,note_off,,,,,384,0,3,,,,,2,,,63,0
167424,note_on,,,,,0,0,3,,,,,2,,,62,84
167424,note_off,,,,,384,0,2,,,,,1,,,66,0
167424,note_on,,,,,0,0,2,,,,,1,,,65,90
167424,note_off,,,,,192,0,1,,,,,0,,,69,0
167616,note_off,,,,,192,0,2,,,,,1,,,65,0
167616,note_off,,,,,192,0,3,,,,,2,,,62,0
167808,note_on,,,,,192,0,2,,,,,1,,,65,90
167808,note_on,,,,,192,0,3,,,,,2,,,62,84
168096,note_off,,,,,672,0,1,,,,,0,,,70,0
168096,note_on,,,,,0,0,1,,,,,0,,,72,103
168192,note_off,,,,,384,0,2,,,,,1,,,65,0
168192,note_on,,,,,0,0,3,,,,,2,,,60,84
168192,note_off,,,,,384,0,3,,,,,2,,,62,0
168192,note_on,,,,,0,0,2,,,,,1,,,63,90
168192,note_on,,,,,0,0,1,,,,,0,,,70,103
168192,note_off,,,,,96,0,1,,,,,0,,,72,0
168320,note_off,,,,,128,0,1,,,,,0,,,70,0
168320,note_on,,,,,0,0,1,,,,,0,,,69,103
168448,note_on,,,,,0,0,1,,,,,0,,,70,103
168448,note_off,,,,,128,0,1,,,,,0,,,69,0
168512,note_off,,,,,64,0,1,,,,,0,,,70,0
168512,note_on,,,,,0,0,1,,,,,0,,,72,103
168576,note_off,,,,,384,0,2,,,,,1,,,63,0
168576,note_on,,,,,0,0,1,,,,,0,,,70,103
168576,note_off,,,,,64,0,1,,,,,0,,,72,0
168576,note_on,,,,,0,0,2,,,,,1,,,62,90
168576,note_off,,,,,384,0,3,,,,,2,,,60,0
168576,note_on,,,,,0,0,3,,,,,2,,,58,84
168704,note_on,,,,,0,0,1,,,,,0,,,69,103
168704,note_off,,,,,128,0,1,,,,,0,,,70,0
168832,note_off,,,,,128,0,1,,,,,0,,,69,0
168832,note_on,,,,,0,0,1,,,,,0,,,70,103
168960,note_on,,,,,0,0,3,,,,,2,,,60,84
168960,note_off,,,,,384,0,3,,,,,2,,,58,0
168960,note_off,,,,,384,0,2,,,,,1,,,62,0
168960,note_off,,,,,128,0,1,,,,,0,,,70,0
168960,note_on,,,,,0,0,1,,,,,0,,,77,103
168960,note_on,,,,,0,0,2,,,,,1,,,63,90
169344,note_off,,,,,384,0,1,,,,,0,,,77,0
169344,note_on,,,,,0,0,1,,,,,0,,,75,103
169728,note_off,,,,,768,0,3,,,,,2,,,60,0
169728,note_on,,,,,0,0,1,,,,,0,,,74,103
169728,note_on,,,,,0,0,2,,,,,1,,,65,90
169728,note_on,,,,,0,0,3,,,,,2,,,62,84
169728,note_off,,,,,384,0,1,,,,,0,,,75,0
169728,note_off,,,,,768,0,2,,,,,1,,,63,0
169920,note_off,,,,,192,0,1,,,,,0,,,74,0
169920,note_on,,,,,0,0,1,,,,,0,,,72,103
170112,note_off,,,,,192,0,1,,,,,0,,,72,0
170112,note_on,,,,,0,0,1,,,,,0,,,70,103
170112,note_off,,,,,384,0,2,,,,,1,,,65,0
170112,note_on,,,,,0,0,2,,,,,1,,,66,90
170112,note_on,,,,,0,0,3,,,,,2,,,63,84
170112,note_off,,,,,384,0,3,,,,,2,,,62,0
170304,note_off,,,,,192,0,1,,,,,0,,,70,0
170304,note_on,,,,,0,0,1,,,,,0,,,69,103
170496,note_on,,,,,0,0,3,,,,,2,,,62,84
170496,note_on,,,,,0,0,1,,,,,0,,,70,103
170496,note_off,,,,,192,0,1,,,,,0,,,69,0
170496,note_off,,,,,384,0,3,,,,,2,,,63,0
170496,note_on,,,,,0,0,2,,,,,1,,,65,90
170496,note_off,,,,,384,0,2,,,,,1,,,66,0
170880,note_off,,,,,384,0,3,,,,,2,,,62,0
170880,note_off,,,,,384,0,1,,,,,0,,,70,0
170880,note_off,,,,,6528,0,4,,,,,3,,,46,49
170880,note_off,,,,,384,0,2,,,,,1,,,65,0
171264,note_on,,,,,384,0,2,,,,,1,,,62,90
171264,note_on,,,,,384,0,4,,,,,3,,,46,78
171264,note_on,,,,,384,0,1,,,,,0,,,70,103
171264,note_on,,,,,384,0,3,,,,,2,,,58,84
171648,note_off,,,,,384,0,1,,,,,0,,,70,0
171648,note_off,,,,,384,0,4,,,,,3,,,46,0
171648,note_off,,,,,384,0,3,,,,,2,,,58,0
171648,note_off,,,,,384,0,2,,,,,1,,,62,0
172032,note_on,,,,,384,0,1,,,,,0,,,70,103
172032,note_on,,,,,384,0,3,,,,,2,,,58,84
172032,note_on,,,,,384,0,2,,,,,1,,,62,90
172032,note_on,,,,,384,0,4,,,,,3,,,46,78
172416,note_off,,,,,384,0,3,,,,,2,,,58,0
172416,note_off,,,,,384,0,2,,,,,1,,,62,0
172416,note_off,,,,,384,0,4,,,,,3,,,46,0
172416,note_off,,,,,384,0,1,,,,,0,,,70,0
173568,note_on,,,,,1152,0,4,,,,,3,,,51,78
173568,note_on,,,,,1152,0,2,,,,,1,,,58,90
173568,note_on,,,,,1152,0,3,,,,,2,,,55,84
173568,note_on,,,,,1152,0,1,,,,,0,,,63,103
174336,note_off,,,,,768,0,4,,,,,3,,,51,0
174336,note_on,,,,,0,0,4,,,,,3,,,48,78
174336,note_off,,,,,768,0,2,,,,,1,,,58,0
174336,note_on,,,,,0,0,2,,,,,1,,,60,90
175104,note_on,,,,,0,0,1,,,,,0,,,65,103
175104,note_off,,,,,768,0,4,,,,,3,,,48,0
175104,note_on,,,,,0,0,4,,,,,3,,,44,78
175104,note_on,,,,,0,0,2,,,,,1,,,60,90
175104,note_off,,,,,768,0,2,,,,,1,,,60,0
175104,note_off,,,,,1536,0,3,,,,,2,,,55,0
175104,note_on,,,,,0,0,3,,,,,2,,,48,84
175104,note_off,,,,,1536,0,1,,,,,0,,,63,0
175488,note_on,,,,,0,0,4,,,,,3,,,43,78
175488,note_off,,,,,384,0,4,,,,,3,,,44,0
175488,note_off,,,,,384,0,3,,,,,2,,,48,0
175488,note_on,,,,,0,0,3,,,,,2,,,52,84
175488,note_on,,,,,0,0,1,,,,,0,,,67,103
175488,note_off,,,,,384,0,1,,,,,0,,,65,0
175872,note_on,,,,,0,0,3,,,,,2,,,53,84
175872,note_off,,,,,384,0,3,,,,,2,,,52,0
175872,note_on,,,,,0,0,1,,,,,0,,,68,103
175872,note_off,,,,,384,0,1,,,,,0,,,67,0
175872,note_on,,,,,0,0,4,,,,,3,,,41,78
175872,note_off,,,,,384,0,4,,,,,3,,,43,0
176256,note_off,,,,,384,0,1,,,,,0,,,68,0
176256,note_off,,,,,1152,0,2,,,,,1,,,60,0
176256,note_off,,,,,384,0,3,,,,,2,,,53,0
176256,note_off,,,,,384,0,4,,,,,3,,,41,0
176640,note_on,,,,,384,0,3,,,,,2,,,53,84
176640,note_on,,,,,384,0,2,,,,,1,,,65,90
176640,note_on,,,,,384,0,1,,,,,0,,,68,103
176832,note_off,,,,,192,0,1,,,,,0,,,68,0
176832,note_off,,,,,192,0,3,,,,,2,,,53,0
176832,note_off,,,,,192,0,2,,,,,1,,,65,0
177024,note_on,,,,,192,0,1,,,,,0,,,70,103
177024,note_on,,,,,192,0,3,,,,,2,,,55,84
177024,note_on,,,,,192,0,2,,,,,1,,,65,90
177216,note_off,,,,,192,0,1,,,,,0,,,70,0
177216,note_off,,,,,192,0,3,,,,,2,,,55,0
177216,note_off,,,,,192,0,2,,,,,1,,,65,0
177408,note_on,,,,,192,0,2,,,,,1,,,65,90
177408,note_on,,,,,192,0,1,,,,,0,,,72,103
177408,note_on,,,,,192,0,3,,,,,2,,,56,84
177600,note_off,,,,,192,0,3,,,,,2,,,56,0
177600,note_off,,,,,192,0,2,,,,,1,,,65,0
177600,note_off,,,,,192,0,1,,,,,0,,,72,0
178176,note_on,,,,,576,0,1,,,,,0,,,60,103
178176,note_on,,,,,576,0,3,,,,,2,,,51,84
178176,note_on,,,,,576,0,2,,,,,1,,,56,90
178176,note_on,,,,,1920,0,4,,,,,3,,,44,78
178944,note_on,,,,,0,0,1,,,,,0,,,62,103
178944,note_off,,,,,768,0,1,,,,,0,,,60,0
178944,note_off,,,,,768,0,3,,,,,2,,,51,0
178944,note_off,,,,,768,0,2,,,,,1,,,56,0
178944,note_on,,,,,0,0,2,,,,,1,,,58,90
178944,note_on,,,,,0,0,3,,,,,2,,,53,84
179712,note_on,,,,,0,0,3,,,,,2,,,51,84
179712,note_off,,,,,768,0,2,,,,,1,,,58,0
179712,note_on,,,,,0,0,1,,,,,0,,,63,103
179712,note_off,,,,,768,0,1,,,,,0,,,62,0
179712,note_off,,,,,768,0,3,,,,,2,,,53,0
179712,note_off,,,,,1536,0,4,,,,,3,,,44,0
179712,note_on,,,,,0,0,2,,,,,1,,,58,90
179712,note_on,,,,,0,0,4,,,,,3,,,43,78
180096,note_off,,,,,384,0,4,,,,,3,,,43,0
180096,note_on,,,,,0,0,4,,,,,3,,,41,78
180096,note_off,,,,,384,0,1,,,,,0,,,63,0
180096,note_on,,,,,0,0,1,,,,,0,,,65,103
180096,note_on,,,,,0,0,3,,,,,2,,,50,84
180096,note_off,,,,,384,0,3,,,,,2,,,51,0
180480,note_off,,,,,384,0,4,,,,,3,,,41,0
180480,note_on,,,,,0,0,4,,,,,3,,,39,78
180480,note_on,,,,,0,0,1,,,,,0,,,67,103
180480,note_on,,,,,0,0,3,,,,,2,,,51,84
180480,note_off,,,,,384,0,3,,,,,2,,,50,0
180480,note_off,,,,,384,0,1,,,,,0,,,65,0
180864,note_off,,,,,384,0,1,,,,,0,,,67,0
180864,note_off,,,,,384,0,3,,,,,2,,,51,0
180864,note_off,,,,,384,0,4,,,,,3,,,39,0
180864,note_off,,,,,1152,0,2,,,,,1,,,58,0
181248,note_on,,,,,384,0,3,,,,,2,,,51,84
181248,note_on,,,,,384,0,1,,,,,0,,,67,103
181248,note_on,,,,,384,0,2,,,,,1,,,63,90
181440,note_off,,,,,192,0,2,,,,,1,,,63,0
181440,note_off,,,,,192,0,3,,,,,2,,,51,0
181440,note_off,,,,,192,0,1,,,,,0,,,67,0
181632,note_on,,,,,192,0,1,,,,,0,,,68,103
181632,note_on,,,,,192,0,2,,,,,1,,,63,90
181632,note_on,,,,,192,0,3,,,,,2,,,53,84
181824,note_off,,,,,192,0,1,,,,,0,,,68,0
181824,note_off,,,,,192,0,2,,,,,1,,,63,0
181824,note_off,,,,,192,0,3,,,,,2,,,53,0
182016,note_on,,,,,192,0,3,,,,,2,,,55,84
182016,note_on,,,,,192,0,1,,,,,0,,,70,103
182016,note_on,,,,,192,0,2,,,,,1,,,63,90
182208,note_off,,,,,192,0,1,,,,,0,,,70,0
182208,note_off,,,,,192,0,2,,,,,1,,,63,0
182208,note_off,,,,,192,0,3,,,,,2,,,55,0
182784,note_on,,,,,576,0,1,,,,,0,,,75,103
182784,note_on,,,,,576,0,2,,,,,1,,,63,90
182784,note_on,,,,,576,0,3,,,,,2,,,55,84
183552,note_on,,,,,2688,0,4,,,,,3,,,43,78
183552,note_off,,,,,768,0,3,,,,,2,,,55,0
183552,note_on,,,,,0,0,1,,,,,0,,,63,103
183552,note_off,,,,,768,0,1,,,,,0,,,75,0
183552,note_on,,,,,0,0,3,,,,,2,,,61,84
184320,note_off,,,,,768,0,3,,,,,2,,,61,0
184320,note_off,,,,,768,0,1,,,,,0,,,63,0
184320,note_on,,,,,0,0,2,,,,,1,,,63,90
184320,note_off,,,,,1536,0,2,,,,,1,,,63,0
184320,note_on,,,,,0,0,1,,,,,0,,,63,103
184320,note_off,,,,,768,0,4,,,,,3,,,43,0
184320,note_on,,,,,0,0,3,,,,,2,,,60,84
184320,note_on,,,,,0,0,4,,,,,3,,,44,78
185088,note_off,,,,,768,0,1,,,,,0,,,63,0
185088,note_on,,,,,0,0,1,,,,,0,,,72,103
185472,note_off,,,,,1152,0,4,,,,,3,,,44,0
185472,note_off,,,,,1152,0,3,,,,,2,,,60,0
185472,note_off,,,,,384,0,1,,,,,0,,,72,0
185472,note_off,,,,,1152,0,2,,,,,1,,,63,0
185856,note_on,,,,,384,0,2,,,,,1,,,60,90
185856,note_on,,,,,384,0,3,,,,,2,,,52,84
185856,note_on,,,,,384,0,1,,,,,0,,,72,103
186624,note_on,,,,,0,0,3,,,,,2,,,58,84
186624,note_off,,,,,768,0,1,,,,,0,,,72,0
186624,note_on,,,,,1152,0,4,,,,,3,,,40,78
186624,note_off,,,,,768,0,3,,,,,2,,,52,0
186624,note_on,,,,,0,0,1,,,,,0,,,60,103
187392,note_on,,,,,0,0,2,,,,,1,,,60,90
187392,note_off,,,,,1536,0,2,,,,,1,,,60,0
187392,note_off,,,,,768,0,4,,,,,3,,,40,0
187392,note_on,,,,,0,0,4,,,,,3,,,41,78
187392,note_on,,,,,0,0,3,,,,,2,,,56,84
187392,note_off,,,,,768,0,3,,,,,2,,,58,0
187392,note_on,,,,,0,0,1,,,,,0,,,60,103
187392,note_off,,,,,768,0,1,,,,,0,,,60,0
188160,note_on,,,,,0,0,1,,,,,0,,,68,103
188160,note_off,,,,,768,0,1,,,,,0,,,60,0
188544,note_off,,,,,384,0,1,,,,,0,,,68,0
188544,note_off,,,,,1152,0,3,,,,,2,,,56,0
188544,note_off,,,,,1152,0,2,,,,,1,,,60,0
188544,note_off,,,,,1152,0,4,,,,,3,,,41,0
189312,note_on,,,,,768,0,1,,,,,0,,,65,103
189312,note_on,,,,,768,0,3,,,,,2,,,53,84
189696,note_on,,,,,0,0,3,,,,,2,,,56,84
189696,note_off,,,,,384,0,3,,,,,2,,,53,0
189696,note_off,,,,,384,0,1,,,,,0,,,65,0
189696,note_on,,,,,0,0,1,,,,,0,,,68,103
190080,note_off,,,,,384,0,1,,,,,0,,,68,0
190080,note_on,,,,,0,0,1,,,,,0,,,72,103
190080,note_off,,,,,384,0,3,,,,,2,,,56,0
190080,note_on,,,,,0,0,3,,,,,2,,,60,84
190464,note_on,,,,,0,0,1,,,,,0,,,70,103
190464,note_on,,,,,0,0,3,,,,,2,,,58,84
190464,note_on,,,,,1920,0,4,,,,,3,,,50,78
190464,note_off,,,,,384,0,3,,,,,2,,,60,0
190464,note_off,,,,,384,0,1,,,,,0,,,72,0
190464,note_on,,,,,1920,0,2,,,,,1,,,65,90
191040,note_off,,,,,576,0,1,,,,,0,,,70,0
191040,note_on,,,,,0,0,1,,,,,0,,,68,103
191232,note_off,,,,,768,0,4,,,,,3,,,50,0
191232,note_on,,,,,0,0,4,,,,,3,,,51,78
191232,note_on,,,,,0,0,2,,,,,1,,,63,90
191232,note_on,,,,,0,0,1,,,,,0,,,67,103
191232,note_off,,,,,192,0,1,,,,,0,,,68,0
191232,note_off,,,,,768,0,2,,,,,1,,,65,0
191616,note_off,,,,,384,0,2,,,,,1,,,63,0
191616,note_off,,,,,1152,0,3,,,,,2,,,58,0
191616,note_off,,,,,384,0,1,,,,,0,,,67,0
191616,note_off,,,,,384,0,4,,,,,3,,,51,0
192000,note_on,,,,,384,0,1,,,,,0,,,65,103
192000,note_on,,,,,384,0,4,,,,,3,,,44,78
192000,note_on,,,,,384,0,3,,,,,2,,,60,84
192192,note_off,,,,,192,0,1,,,,,0,,,65,0
192192,note_on,,,,,0,0,1,,,,,0,,,64,103
192384,note_on,,,,,0,0,4,,,,,3,,,43,78
192384,note_off,,,,,384,0,4,,,,,3,,,44,0
192384,note_off,,,,,192,0,1,,,,,0,,,64,0
192384,note_on,,,,,0,0,1,,,,,0,,,67,103
192576,note_off,,,,,192,0,1,,,,,0,,,67,0
192576,note_on,,,,,0,0,1,,,,,0,,,65,103
192768,note_off,,,,,384,0,4,,,,,3,,,43,0
192768,note_on,,,,,0,0,4,,,,,3,,,41,78
192768,note_off,,,,,192,0,1,,,,,0,,,65,0
192768,note_on,,,,,0,0,1,,,,,0,,,70,103
192960,note_off,,,,,192,0,1,,,,,0,,,70,0
192960,note_on,,,,,0,0,1,,,,,0,,,68,103
193152,note_off,,,,,192,0,1,,,,,0,,,68,0
193152,note_on,,,,,0,0,1,,,,,0,,,65,103
193152,note_on,,,,,0,0,4,,,,,3,,,46,78
193152,note_off,,,,,1152,0,3,,,,,2,,,60,0
193152,note_on,,,,,0,0,3,,,,,2,,,56,84
193152,note_off,,,,,384,0,4,,,,,3,,,41,0
193344,note_on,,,,,0,0,1,,,,,0,,,62,103
193344,note_off,,,,,192,0,1,,,,,0,,,65,0
193536,note_off,,,,,192,0,1,,,,,0,,,62,0
193536,note_on,,,,,1920,0,2,,,,,1,,,58,90
193536,note_off,,,,,384,0,3,,,,,2,,,56,0
193536,note_on,,,,,0,0,1,,,,,0,,,63,103
193536,note_on,,,,,0,0,3,,,,,2,,,55,84
193536,note_off,,,,,384,0,4,,,,,3,,,46,0
193536,note_on,,,,,0,0,4,,,,,3,,,51,78
194304,note_off,,,,,768,0,2,,,,,1,,,58,0
194304,note_on,,,,,0,0,4,,,,,3,,,48,78
194304,note_off,,,,,768,0,4,,,,,3,,,51,0
194304,note_on,,,,,0,0,2,,,,,1,,,60,90
195072,note_on,,,,,0,0,4,,,,,3,,,44,78
195072,note_off,,,,,768,0,4,,,,,3,,,48,0
195072,note_off,,,,,768,0,2,,,,,1,,,60,0
195072,note_on,,,,,0,0,2,,,,,1,,,60,90
195072,note_off,,,,,1536,0,1,,,,,0,,,63,0
195072,note_on,,,,,0,0,1,,,,,0,,,65,103
195072,note_off,,,,,1536,0,3,,,,,2,,,55,0
195072,note_on,,,,,0,0,3,,,,,2,,,48,84
195456,note_on,,,,,0,0,4,,,,,3,,,43,78
195456,note_on,,,,,0,0,3,,,,,2,,,52,84
195456,note_off,,,,,384,0,3,,,,,2,,,48,0
195456,note_off,,,,,384,0,4,,,,,3,,,44,0
195456,note_off,,,,,384,0,1,,,,,0,,,65,0
195456,note_on,,,,,0,0,1,,,,,0,,,67,103
195840,note_off,,,,,384,0,1,,,,,0,,,67,0
195840,note_on,,,,,0,0,4,,,,,3,,,41,78
195840,note_on,,,,,0,0,3,,,,,2,,,53,84
195840,note_off,,,,,384,0,3,,,,,2,,,52,0
195840,note_on,,,,,0,0,1,,,,,0,,,68,103
195840,note_off,,,,,384,0,4,,,,,3,,,43,0
196224,note_off,,,,,1152,0,2,,,,,1,,,60,0
196224,note_off,,,,,384,0,3,,,,,2,,,53,0
196224,note_off,,,,,384,0,4,,,,,3,,,41,0
196224,note_off,,,,,384,0,1,,,,,0,,,68,0
196608,note_on,,,,,384,0,4,,,,,3,,,53,78
196608,note_on,,,,,384,0,1,,,,,0,,,82,103
196608,note_on,,,,,384,0,2,,,,,1,,,70,90
196608,note_on,,,,,384,0,3,,,,,2,,,60,84
196800,note_off,,,,,192,0,1,,,,,0,,,82,0
196800,note_on,,,,,0,0,1,,,,,0,,,80,103
196800,note_on,,,,,0,0,2,,,,,1,,,68,90
196800,note_off,,,,,192,0,2,,,,,1,,,70,0
196800,note_off,,,,,192,0,4,,,,,3,,,53,0
196800,note_off,,,,,192,0,3,,,,,2,,,60,0
196896,note_off,,,,,96,0,1,,,,,0,,,80,0
196896,note_off,,,,,96,0,2,,,,,1,,,68,0
196992,note_on,,,,,192,0,4,,,,,3,,,55,78
196992,note_on,,,,,96,0,1,,,,,0,,,84,103
196992,note_on,,,,,192,0,3,,,,,2,,,60,84
196992,note_on,,,,,96,0,2,,,,,1,,,72,90
197184,note_off,,,,,192,0,3,,,,,2,,,60,0
197184,note_off,,,,,192,0,4,,,,,3,,,55,0
197184,note_off,,,,,192,0,2,,,,,1,,,72,0
197184,note_off,,,,,192,0,1,,,,,0,,,84,0
197184,note_on,,,,,0,0,1,,,,,0,,,82,103
197184,note_on,,,,,0,0,2,,,,,1,,,70,90
197280,note_off,,,,,96,0,1,,,,,0,,,82,0
197280,note_off,,,,,96,0,2,,,,,1,,,70,0
197376,note_on,,,,,192,0,3,,,,,2,,,60,84
197376,note_on,,,,,192,0,4,,,,,3,,,56,78
197376,note_on,,,,,96,0,1,,,,,0,,,85,103
197376,note_on,,,,,96,0,2,,,,,1,,,73,90
197568,note_off,,,,,192,0,1,,,,,0,,,85,0
197568,note_off,,,,,192,0,4,,,,,3,,,56,0
197568,note_off,,,,,192,0,2,,,,,1,,,73,0
197568,note_on,,,,,0,0,2,,,,,1,,,72,90
197568,note_off,,,,,192,0,3,,,,,2,,,60,0
197568,note_on,,,,,0,0,1,,,,,0,,,84,103
197664,note_off,,,,,96,0,2,,,,,1,,,72,0
197664,note_off,,,,,96,0,1,,,,,0,,,84,0
198144,note_on,,,,,576,0,4,,,,,3,,,44,78
198144,note_on,,,,,480,0,1,,,,,0,,,60,103
198144,note_on,,,,,576,0,3,,,,,2,,,51,84
198144,note_on,,,,,480,0,2,,,,,1,,,56,90
198912,note_on,,,,,0,0,3,,,,,2,,,53,84
198912,note_off,,,,,768,0,3,,,,,2,,,51,0
198912,note_on,,,,,0,0,2,,,,,1,,,58,90
198912,note_off,,,,,768,0,2,,,,,1,,,56,0
198912,note_on,,,,,0,0,1,,,,,0,,,62,103
198912,note_off,,,,,768,0,1,,,,,0,,,60,0
199680,note_off,,,,,768,0,1,,,,,0,,,62,0
199680,note_on,,,,,0,0,1,,,,,0,,,63,103
199680,note_on,,,,,0,0,4,,,,,3,,,43,78
199680,note_off,,,,,768,0,2,,,,,1,,,58,0
199680,note_on,,,,,0,0,2,,,,,1,,,58,90
199680,note_off,,,,,1536,0,4,,,,,3,,,44,0
199680,note_off,,,,,768,0,3,,,,,2,,,53,0
199680,note_on,,,,,0,0,3,,,,,2,,,51,84
200064,note_on,,,,,0,0,1,,,,,0,,,65,103
200064,note_on,,,,,0,0,4,,,,,3,,,41,78
200064,note_off,,,,,384,0,4,,,,,3,,,43,0
200064,note_off,,,,,384,0,1,,,,,0,,,63,0
200064,note_on,,,,,0,0,3,,,,,2,,,50,84
200064,note_off,,,,,384,0,3,,,,,2,,,51,0
200448,note_on,,,,,0,0,1,,,,,0,,,67,103
200448,note_off,,,,,384,0,1,,,,,0,,,65,0
200448,note_off,,,,,384,0,3,,,,,2,,,50,0
200448,note_on,,,,,0,0,3,,,,,2,,,51,84
200448,note_off,,,,,384,0,4,,,,,3,,,41,0
200448,note_on,,,,,0,0,4,,,,,3,,,39,78
200832,note_off,,,,,384,0,3,,,,,2,,,51,0
200832,note_off,,,,,384,0,1,,,,,0,,,67,0
200832,note_off,,,,,1152,0,2,,,,,1,,,58,0
200832,note_off,,,,,384,0,4,,,,,3,,,39,0
201216,note_on,,,,,384,0,4,,,,,3,,,51,78
201216,note_on,,,,,384,0,3,,,,,2,,,58,84
201216,note_on,,,,,384,0,1,,,,,0,,,80,103
201216,note_on,,,,,384,0,2,,,,,1,,,68,90
201408,note_off,,,,,192,0,4,,,,,3,,,51,0
201408,note_off,,,,,192,0,3,,,,,2,,,58,0
201408,note_off,,,,,192,0,2,,,,,1,,,68,0
201408,note_off,,,,,192,0,1,,,,,0,,,80,0
201408,note_on,,,,,0,0,1,,,,,0,,,79,103
201408,note_on,,,,,0,0,2,,,,,1,,,67,90
201504,note_off,,,,,96,0,2,,,,,1,,,67,0
201504,note_off,,,,,96,0,1,,,,,0,,,79,0
201600,note_on,,,,,192,0,4,,,,,3,,,53,78
201600,note_on,,,,,192,0,3,,,,,2,,,58,84
201600,note_on,,,,,96,0,1,,,,,0,,,82,103
201600,note_on,,,,,96,0,2,,,,,1,,,70,90
201792,note_on,,,,,0,0,1,,,,,0,,,80,103
201792,note_off,,,,,192,0,1,,,,,0,,,82,0
201792,note_off,,,,,192,0,3,,,,,2,,,58,0
201792,note_off,,,,,192,0,4,,,,,3,,,53,0
201792,note_off,,,,,192,0,2,,,,,1,,,70,0
201792,note_on,,,,,0,0,2,,,,,1,,,68,90
201888,note_off,,,,,96,0,1,,,,,0,,,80,0
201888,note_off,,,,,96,0,2,,,,,1,,,68,0
201984,note_on,,,,,96,0,1,,,,,0,,,84,103
201984,note_on,,,,,192,0,4,,,,,3,,,55,78
201984,note_on,,,,,96,0,2,,,,,1,,,72,90
201984,note_on,,,,,192,0,3,,,,,2,,,58,84
202176,note_on,,,,,0,0,2,,,,,1,,,70,90
202176,note_off,,,,,192,0,2,,,,,1,,,72,0
202176,note_off,,,,,192,0,4,,,,,3,,,55,0
202176,note_on,,,,,0,0,1,,,,,0,,,82,103
202176,note_off,,,,,192,0,1,,,,,0,,,84,0
202176,note_off,,,,,192,0,3,,,,,2,,,58,0
202272,note_off,,,,,96,0,1,,,,,0,,,82,0
202272,note_off,,,,,96,0,2,,,,,1,,,70,0
202752,note_on,,,,,576,0,3,,,,,2,,,55,84
202752,note_on,,,,,480,0,2,,,,,1,,,63,90
202752,note_on,,,,,480,0,1,,,,,0,,,75,103
203520,note_on,,,,,0,0,3,,,,,2,,,58,84
203520,note_on,,,,,1344,0,4,,,,,3,,,43,78
203520,note_off,,,,,768,0,3,,,,,2,,,55,0
203712,note_off,,,,,960,0,1,,,,,0,,,75,0
203712,note_on,,,,,0,0,1,,,,,0,,,70,103
203904,note_on,,,,,0,0,1,,,,,0,,,67,103
203904,note_off,,,,,192,0,1,,,,,0,,,70,0
203904,note_off,,,,,384,0,3,,,,,2,,,58,0
203904,note_on,,,,,0,0,3,,,,,2,,,61,84
204096,note_on,,,,,0,0,1,,,,,0,,,63,103
204096,note_off,,,,,192,0,1,,,,,0,,,67,0
204288,note_off,,,,,192,0,1,,,,,0,,,63,0
204288,note_on,,,,,0,0,1,,,,,0,,,63,103
204288,note_off,,,,,1536,0,2,,,,,1,,,63,0
204288,note_off,,,,,384,0,3,,,,,2,,,61,0
204288,note_on,,,,,0,0,3,,,,,2,,,60,84
204288,note_on,,,,,0,0,2,,,,,1,,,63,90
204288,note_off,,,,,768,0,4,,,,,3,,,43,0
204288,note_on,,,,,0,0,4,,,,,3,,,44,78
205056,note_off,,,,,768,0,1,,,,,0,,,63,0
205056,note_on,,,,,0,0,1,,,,,0,,,72,103
205440,note_off,,,,,1152,0,3,,,,,2,,,60,0
205440,note_off,,,,,1152,0,2,,,,,1,,,63,0
205440,note_off,,,,,1152,0,4,,,,,3,,,44,0
205440,note_off,,,,,384,0,1,,,,,0,,,72,0
205824,note_on,,,,,384,0,3,,,,,2,,,52,84
205824,note_on,,,,,384,0,1,,,,,0,,,72,103
205824,note_on,,,,,384,0,2,,,,,1,,,60,90
206592,note_on,,,,,1152,0,4,,,,,3,,,40,78
206592,note_on,,,,,0,0,3,,,,,2,,,55,84
206592,note_off,,,,,768,0,3,,,,,2,,,52,0
206784,note_on,,,,,0,0,1,,,,,0,,,67,103
206784,note_off,,,,,960,0,1,,,,,0,,,72,0
206976,note_off,,,,,192,0,1,,,,,0,,,67,0
206976,note_on,,,,,0,0,1,,,,,0,,,64,103
206976,note_on,,,,,0,0,3,,,,,2,,,58,84
206976,note_off,,,,,384,0,3,,,,,2,,,55,0
207168,note_on,,,,,0,0,1,,,,,0,,,60,103
207168,note_off,,,,,192,0,1,,,,,0,,,64,0
207360,note_on,,,,,0,0,2,,,,,1,,,60,90
207360,note_off,,,,,768,0,4,,,,,3,,,40,0
207360,note_on,,,,,0,0,4,,,,,3,,,41,78
207360,note_on,,,,,0,0,3,,,,,2,,,56,84
207360,note_off,,,,,1536,0,2,,,,,1,,,60,0
207360,note_on,,,,,0,0,1,,,,,0,,,60,103
207360,note_off,,,,,384,0,3,,,,,2,,,58,0
207360,note_off,,,,,192,0,1,,,,,0,,,60,0
208128,note_on,,,,,0,0,1,,,,,0,,,68,103
208128,note_off,,,,,768,0,1,,,,,0,,,60,0
208512,note_off,,,,,1152,0,3,,,,,2,,,56,0
208512,note_off,,,,,1152,0,4,,,,,3,,,41,0
208512,note_off,,,,,384,0,1,,,,,0,,,68,0
208512,note_off,,,,,1152,0,2,,,,,1,,,60,0
209280,note_on,,,,,768,0,1,,,,,0,,,65,103
209280,note_on,,,,,768,0,3,,,,,2,,,53,84
209664,note_off,,,,,384,0,1,,,,,0,,,65,0
209664,note_on,,,,,0,0,1,,,,,0,,,68,103
209664,note_off,,,,,384,0,3,,,,,2,,,53,0
209664,note_on,,,,,0,0,3,,,,,2,,,56,84
210048,note_off,,,,,384,0,1,,,,,0,,,68,0
210048,note_off,,,,,384,0,3,,,,,2,,,56,0
210048,note_on,,,,,0,0,3,,,,,2,,,60,84
210048,note_on,,,,,0,0,1,,,,,0,,,72,103
210432,note_on,,,,,1920,0,4,,,,,3,,,50,78
210432,note_on,,,,,0,0,3,,,,,2,,,58,84
210432,note_off,,,,,384,0,3,,,,,2,,,60,0
210432,note_off,,,,,384,0,1,,,,,0,,,72,0
210432,note_on,,,,,0,0,1,,,,,0,,,70,103
210432,note_on,,,,,1920,0,2,,,,,1,,,65,90
211008,note_off,,,,,576,0,1,,,,,0,,,70,0
211008,note_on,,,,,0,0,1,,,,,0,,,68,103
211200,note_off,,,,,192,0,1,,,,,0,,,68,0
211200,note_on,,,,,0,0,2,,,,,1,,,63,90
211200,note_off,,,,,768,0,2,,,,,1,,,65,0
211200,note_on,,,,,0,0,1,,,,,0,,,67,103
211200,note_on,,,,,0,0,4,,,,,3,,,51,78
211200,note_off,,,,,768,0,4,,,,,3,,,50,0
211584,note_off,,,,,384,0,1,,,,,0,,,67,0
211584,note_off,,,,,384,0,4,,,,,3,,,51,0
211584,note_off,,,,,384,0,2,,,,,1,,,63,0
211584,note_off,,,,,1152,0,3,,,,,2,,,58,0
211968,note_on,,,,,384,0,1,,,,,0,,,65,103
211968,note_on,,,,,384,0,4,,,,,3,,,44,78
211968,note_on,,,,,384,0,3,,,,,2,,,60,84
212160,note_on,,,,,0,0,1,,,,,0,,,64,103
212160,note_off,,,,,192,0,1,,,,,0,,,65,0
212352,note_off,,,,,384,0,4,,,,,3,,,44,0
212352,note_on,,,,,0,0,4,,,,,3,,,43,78
212352,note_off,,,,,192,0,1,,,,,0,,,64,0
212352,note_on,,,,,0,0,1,,,,,0,,,67,103
212544,note_on,,,,,0,0,1,,,,,0,,,65,103
212544,note_off,,,,,192,0,1,,,,,0,,,67,0
212736,note_off,,,,,384,0,4,,,,,3,,,43,0
212736,note_on,,,,,0,0,4,,,,,3,,,41,78
212736,note_off,,,,,192,0,1,,,,,0,,,65,0
212736,note_on,,,,,0,0,1,,,,,0,,,70,103
212928,note_off,,,,,192,0,1,,,,,0,,,70,0
212928,note_on,,,,,0,0,1,,,,,0,,,68,103
213120,note_on,,,,,0,0,3,,,,,2,,,56,84
213120,note_off,,,,,1152,0,3,,,,,2,,,60,0
213120,note_off,,,,,192,0,1,,,,,0,,,68,0
213120,note_on,,,,,0,0,1,,,,,0,,,65,103
213120,note_on,,,,,0,0,4,,,,,3,,,46,78
213120,note_off,,,,,384,0,4,,,,,3,,,41,0
213312,note_on,,,,,0,0,1,,,,,0,,,62,103
213312,note_off,,,,,192,0,1,,,,,0,,,65,0
213504,note_on,,,,,0,0,2,,,,,1,,,55,90
213504,note_on,,,,,1920,0,2,,,,,1,,,63,90
213504,note_on,,,,,0,0,3,,,,,2,,,55,84
213504,note_off,,,,,384,0,4,,,,,3,,,46,0
213504,note_on,,,,,0,0,1,,,,,0,,,55,103
213504,note_off,,,,,192,0,1,,,,,0,,,62,0
213504,note_on,,,,,0,0,1,,,,,0,,,63,103
213504,note_on,,,,,0,0,4,,,,,3,,,39,78
213504,note_off,,,,,384,0,3,,,,,2,,,56,0
213696,note_on,,,,,0,0,3,,,,,2,,,58,84
213696,note_off,,,,,192,0,3,,,,,2,,,55,0
213888,note_on,,,,,0,0,3,,,,,2,,,63,84
213888,note_off,,,,,192,0,3,,,,,2,,,58,0
214080,note_on,,,,,0,0,3,,,,,2,,,58,84
214080,note_off,,,,,192,0,3,,,,,2,,,63,0
214272,note_off,,,,,0,0,2,,,,,1,,,55,0
214272,note_off,,,,,192,0,3,,,,,2,,,58,0
214272,note_off,,,,,768,0,2,,,,,1,,,63,0
214272,note_off,,,,,0,0,1,,,,,0,,,63,0
214272,note_off,,,,,768,0,1,,,,,0,,,55,0
214272,note_on,,,,,0,0,3,,,,,2,,,55,84
214464,note_on,,,,,0,0,3,,,,,2,,,58,84
214464,note_off,,,,,192,0,3,,,,,2,,,55,0
214656,note_off,,,,,192,0,3,,,,,2,,,58,0
214656,note_on,,,,,0,0,3,,,,,2,,,63,84
214656,note_on,,,,,384,0,1,,,,,0,,,79,103
214848,note_off,,,,,192,0,3,,,,,2,,,63,0
214848,note_on,,,,,0,0,3,,,,,2,,,58,84
215040,note_on,,,,,0,0,3,,,,,2,,,56,84
215040,note_off,,,,,192,0,3,,,,,2,,,58,0
215040,note_on,,,,,0,0,1,,,,,0,,,77,103
215040,note_off,,,,,384,0,1,,,,,0,,,79,0
215232,note_on,,,,,0,0,3,,,,,2,,,58,84
215232,note_off,,,,,192,0,3,,,,,2,,,56,0
215424,note_on,,,,,0,0,3,,,,,2,,,62,84
215424,note_off,,,,,192,0,3,,,,,2,,,58,0
215616,note_off,,,,,576,0,1,,,,,0,,,77,0
215616,note_off,,,,,192,0,3,,,,,2,,,62,0
215616,note_on,,,,,0,0,1,,,,,0,,,75,103
215616,note_on,,,,,0,0,3,,,,,2,,,58,84
215808,note_off,,,,,192,0,1,,,,,0,,,75,0
215808,note_on,,,,,0,0,1,,,,,0,,,74,103
215808,note_on,,,,,0,0,3,,,,,2,,,56,84
215808,note_off,,,,,192,0,3,,,,,2,,,58,0
216000,note_off,,,,,192,0,3,,,,,2,,,56,0
216000,note_on,,,,,0,0,3,,,,,2,,,58,84
216192,note_on,,,,,0,0,1,,,,,0,,,77,103
216192,note_off,,,,,384,0,1,,,,,0,,,74,0
216192,note_on,,,,,0,0,3,,,,,2,,,62,84
216192,note_off,,,,,192,0,3,,,,,2,,,58,0
216384,note_on,,,,,0,0,3,,,,,2,,,58,84
216384,note_off,,,,,192,0,3,,,,,2,,,62,0
216576,note_off,,,,,384,0,1,,,,,0,,,77,0
216576,note_off,,,,,3072,0,4,,,,,3,,,39,49
216576,note_on,,,,,0,0,4,,,,,3,,,39,78
216576,note_on,,,,,0,0,3,,,,,2,,,55,84
216576,note_off,,,,,192,0,3,,,,,2,,,58,0
216576,note_on,,,,,0,0,1,,,,,0,,,70,103
216768,note_on,,,,,0,0,3,,,,,2,,,58,84
216768,note_off,,,,,192,0,3,,,,,2,,,55,0
216960,note_off,,,,,192,0,3,,,,,2,,,58,0
216960,note_on,,,,,0,0,3,,,,,2,,,63,84
217152,note_off,,,,,192,0,3,,,,,2,,,63,0
217152,note_on,,,,,0,0,3,,,,,2,,,58,84
217152,note_on,,,,,0,0,1,,,,,0,,,72,103
217152,note_off,,,,,576,0,1,,,,,0,,,70,0
217248,note_on,,,,,0,0,1,,,,,0,,,74,103
217248,note_off,,,,,96,0,1,,,,,0,,,72,0
217344,note_off,,,,,192,0,3,,,,,2,,,58,0
217344,note_on,,,,,0,0,3,,,,,2,,,55,84
217344,note_on,,,,,0,0,1,,,,,0,,,75,103
217344,note_off,,,,,96,0,1,,,,,0,,,74,0
217536,note_on,,,,,0,0,3,,,,,2,,,58,84
217536,note_off,,,,,192,0,3,,,,,2,,,55,0
217536,note_off,,,,,192,0,1,,,,,0,,,75,0
217728,note_off,,,,,192,0,3,,,,,2,,,58,0
217728,note_on,,,,,0,0,3,,,,,2,,,63,84
217728,note_on,,,,,3456,0,2,,,,,1,,,67,90
217728,note_on,,,,,192,0,1,,,,,0,,,79,103
217920,note_off,,,,,192,0,3,,,,,2,,,63,0
217920,note_on,,,,,0,0,3,,,,,2,,,58,84
218112,note_on,,,,,0,0,2,,,,,1,,,65,90
218112,note_on,,,,,0,0,1,,,,,0,,,77,103
218112,note_off,,,,,384,0,1,,,,,0,,,79,0
218112,note_on,,,,,0,0,3,,,,,2,,,56,84
218112,note_off,,,,,384,0,2,,,,,1,,,67,0
218112,note_off,,,,,192,0,3,,,,,2,,,58,0
218304,note_off,,,,,192,0,3,,,,,2,,,56,0
218304,note_on,,,,,0,0,3,,,,,2,,,58,84
218496,note_off,,,,,192,0,3,,,,,2,,,58,0
218496,note_on,,,,,0,0,3,,,,,2,,,62,84
218688,note_on,,,,,0,0,2,,,,,1,,,63,90
218688,note_on,,,,,0,0,1,,,,,0,,,75,103
218688,note_off,,,,,576,0,1,,,,,0,,,77,0
218688,note_off,,,,,576,0,2,,,,,1,,,65,0
218688,note_on,,,,,0,0,3,,,,,2,,,58,84
218688,note_off,,,,,192,0,3,,,,,2,,,62,0
218880,note_on,,,,,0,0,3,,,,,2,,,56,84
218880,note_off,,,,,192,0,2,,,,,1,,,63,0
218880,note_on,,,,,0,0,2,,,,,1,,,62,90
218880,note_on,,,,,0,0,1,,,,,0,,,74,103
218880,note_off,,,,,192,0,1,,,,,0,,,75,0
218880,note_off,,,,,192,0,3,,,,,2,,,58,0
219072,note_off,,,,,192,0,3,,,,,2,,,56,0
219072,note_on,,,,,0,0,3,,,,,2,,,58,84
219264,note_off,,,,,384,0,2,,,,,1,,,62,0
219264,note_on,,,,,0,0,2,,,,,1,,,65,90
219264,note_off,,,,,384,0,1,,,,,0,,,74,0
219264,note_on,,,,,0,0,1,,,,,0,,,77,103
219264,note_on,,,,,0,0,3,,,,,2,,,62,84
219264,note_off,,,,,192,0,3,,,,,2,,,58,0
219456,note_on,,,,,0,0,3,,,,,2,,,58,84
219456,note_off,,,,,192,0,3,,,,,2,,,62,0
219648,note_off,,,,,384,0,2,,,,,1,,,65,0
219648,note_on,,,,,0,0,3,,,,,2,,,55,84
219648,note_on,,,,,0,0,4,,,,,3,,,39,78
219648,note_off,,,,,384,0,1,,,,,0,,,77,0
219648,note_on,,,,,0,0,1,,,,,0,,,70,103
219648,note_off,,,,,192,0,3,,,,,2,,,58,0
219648,note_on,,,,,0,0,2,,,,,1,,,58,90
219648,note_off,,,,,3072,0,4,,,,,3,,,39,49
219840,note_on,,,,,0,0,3,,,,,2,,,58,84
219840,note_off,,,,,192,0,3,,,,,2,,,55,0
220032,note_off,,,,,192,0,3,,,,,2,,,58,0
220032,note_on,,,,,0,0,3,,,,,2,,,63,84
220224,note_off,,,,,576,0,1,,,,,0,,,70,0
220224,note_on,,,,,0,0,1,,,,,0,,,72,103
220224,note_on,,,,,0,0,3,,,,,2,,,58,84
220224,note_off,,,,,192,0,3,,,,,2,,,63,0
220224,note_off,,,,,576,0,2,,,,,1,,,58,0
220224,note_on,,,,,0,0,2,,,,,1,,,60,90
220320,note_on,,,,,0,0,2,,,,,1,,,62,90
220320,note_on,,,,,0,0,1,,,,,0,,,74,103
220320,note_off,,,,,96,0,1,,,,,0,,,72,0
220320,note_off,,,,,96,0,2,,,,,1,,,60,0
220416,note_on,,,,,0,0,1,,,,,0,,,75,103
220416,note_off,,,,,96,0,2,,,,,1,,,62,0
220416,note_on,,,,,0,0,3,,,,,2,,,55,84
220416,note_off,,,,,192,0,3,,,,,2,,,58,0
220416,note_on,,,,,0,0,2,,,,,1,,,63,90
220416,note_off,,,,,96,0,1,,,,,0,,,74,0
220608,note_off,,,,,192,0,3,,,,,2,,,55,0
220608,note_off,,,,,192,0,1,,,,,0,,,75,0
220608,note_on,,,,,0,0,3,,,,,2,,,58,84
220608,note_off,,,,,192,0,2,,,,,1,,,63,0
220800,note_on,,,,,0,0,3,,,,,2,,,55,84
220800,note_off,,,,,192,0,3,,,,,2,,,58,0
220800,note_on,,,,,192,0,1,,,,,0,,,75,103
220800,note_on,,,,,192,0,2,,,,,1,,,63,90
220992,note_off,,,,,192,0,1,,,,,0,,,75,0
220992,note_on,,,,,0,0,3,,,,,2,,,51,84
220992,note_off,,,,,192,0,2,,,,,1,,,63,0
220992,note_on,,,,,0,0,2,,,,,1,,,67,90
220992,note_on,,,,,0,0,1,,,,,0,,,79,103
220992,note_off,,,,,192,0,3,,,,,2,,,55,0
221184,note_off,,,,,192,0,2,,,,,1,,,67,0
221184,note_on,,,,,0,0,2,,,,,1,,,70,90
221184,note_off,,,,,1536,0,4,,,,,3,,,39,0
221184,note_off,,,,,192,0,1,,,,,0,,,79,0
221184,note_on,,,,,0,0,1,,,,,0,,,82,103
221184,note_on,,,,,0,0,4,,,,,3,,,48,78
221184,note_on,,,,,0,0,3,,,,,2,,,52,84
221184,note_off,,,,,192,0,3,,,,,2,,,51,0
221376,note_on,,,,,0,0,3,,,,,2,,,55,84
221376,note_off,,,,,192,0,3,,,,,2,,,52,0
221568,note_on,,,,,0,0,3,,,,,2,,,60,84
221568,note_off,,,,,192,0,3,,,,,2,,,55,0
221760,note_on,,,,,0,0,3,,,,,2,,,55,84
221760,note_off,,,,,192,0,3,,,,,2,,,60,0
221952,note_off,,,,,192,0,3,,,,,2,,,55,0
221952,note_on,,,,,0,0,3,,,,,2,,,52,84
221952,note_on,,,,,0,0,1,,,,,0,,,84,103
221952,note_off,,,,,768,0,2,,,,,1,,,70,0
221952,note_on,,,,,0,0,2,,,,,1,,,72,90
221952,note_off,,,,,768,0,1,,,,,0,,,82,0
222144,note_on,,,,,0,0,1,,,,,0,,,82,103
222144,note_off,,,,,192,0,2,,,,,1,,,72,0
222144,note_on,,,,,0,0,3,,,,,2,,,55,84
222144,note_off,,,,,192,0,3,,,,,2,,,52,0
222144,note_off,,,,,192,0,1,,,,,0,,,84,0
222144,note_on,,,,,0,0,2,,,,,1,,,70,90
222336,note_off,,,,,192,0,1,,,,,0,,,82,0
222336,note_off,,,,,192,0,2,,,,,1,,,70,0
222336,note_on,,,,,0,0,1,,,,,0,,,80,103
222336,note_off,,,,,192,0,3,,,,,2,,,55,0
222336,note_on,,,,,0,0,3,,,,,2,,,60,84
222336,note_on,,,,,0,0,2,,,,,1,,,68,90
222528,note_off,,,,,192,0,1,,,,,0,,,80,0
222528,note_off,,,,,192,0,3,,,,,2,,,60,0
222528,note_on,,,,,0,0,3,,,,,2,,,52,84
222528,note_on,,,,,0,0,1,,,,,0,,,79,103
222528,note_on,,,,,0,0,2,,,,,1,,,67,90
222528,note_off,,,,,192,0,2,,,,,1,,,68,0
222720,note_on,,,,,0,0,4,,,,,3,,,41,78
222720,note_on,,,,,0,0,1,,,,,0,,,80,103
222720,note_off,,,,,192,0,1,,,,,0,,,79,0
222720,note_off,,,,,1536,0,4,,,,,3,,,48,0
222720,note_off,,,,,192,0,2,,,,,1,,,67,0
222720,note_on,,,,,0,0,2,,,,,1,,,68,90
222720,note_on,,,,,0,0,3,,,,,2,,,53,84
222720,note_off,,,,,192,0,3,,,,,2,,,52,0
222912,note_on,,,,,0,0,3,,,,,2,,,60,84
222912,note_off,,,,,192,0,3,,,,,2,,,53,0
223104,note_on,,,,,0,0,3,,,,,2,,,58,84
223104,note_off,,,,,192,0,3,,,,,2,,,60,0
223104,note_on,,,,,0,0,1,,,,,0,,,79,103
223104,note_on,,,,,0,0,2,,,,,1,,,67,90
223104,note_off,,,,,384,0,2,,,,,1,,,68,0
223104,note_off,,,,,384,0,1,,,,,0,,,80,0
223296,note_off,,,,,192,0,3,,,,,2,,,58,0
223296,note_on,,,,,0,0,3,,,,,2,,,60,84
223488,note_on,,,,,0,0,3,,,,,2,,,56,84
223488,note_off,,,,,192,0,3,,,,,2,,,60,0
223488,note_off,,,,,384,0,2,,,,,1,,,67,0
223488,note_on,,,,,0,0,2,,,,,1,,,65,90
223488,note_off,,,,,384,0,1,,,,,0,,,79,0
223488,note_on,,,,,0,0,1,,,,,0,,,77,103
223680,note_off,,,,,192,0,3,,,,,2,,,56,0
223680,note_on,,,,,0,0,3,,,,,2,,,60,84
223872,note_off,,,,,384,0,1,,,,,0,,,77,0
223872,note_on,,,,,0,0,1,,,,,0,,,77,103
223872,note_off,,,,,384,0,2,,,,,1,,,65,0
223872,note_off,,,,,192,0,3,,,,,2,,,60,0
223872,note_on,,,,,0,0,3,,,,,2,,,56,84
223872,note_on,,,,,0,0,2,,,,,1,,,65,90
224064,note_on,,,,,0,0,2,,,,,1,,,67,90
224064,note_on,,,,,0,0,3,,,,,2,,,53,84
224064,note_off,,,,,192,0,3,,,,,2,,,56,0
224064,note_on,,,,,0,0,1,,,,,0,,,79,103
224064,note_off,,,,,192,0,1,,,,,0,,,77,0
224064,note_off,,,,,192,0,2,,,,,1,,,65,0
224256,note_on,,,,,0,0,4,,,,,3,,,46,78
224256,note_off,,,,,1536,0,4,,,,,3,,,41,0
224256,note_on,,,,,0,0,2,,,,,1,,,68,90
224256,note_on,,,,,0,0,3,,,,,2,,,50,84
224256,note_off,,,,,192,0,3,,,,,2,,,53,0
224256,note_off,,,,,192,0,1,,,,,0,,,79,0
224256,note_on,,,,,0,0,1,,,,,0,,,80,103
224256,note_off,,,,,192,0,2,,,,,1,,,67,0
224448,note_off,,,,,192,0,3,,,,,2,,,50,0
224448,note_on,,,,,0,0,3,,,,,2,,,53,84
224640,note_off,,,,,192,0,3,,,,,2,,,53,0
224640,note_on,,,,,0,0,3,,,,,2,,,58,84
224832,note_off,,,,,192,0,3,,,,,2,,,58,0
224832,note_on,,,,,0,0,3,,,,,2,,,53,84
225024,note_on,,,,,0,0,1,,,,,0,,,82,103
225024,note_off,,,,,768,0,1,,,,,0,,,80,0
225024,note_on,,,,,0,0,3,,,,,2,,,50,84
225024,note_on,,,,,0,0,2,,,,,1,,,70,90
225024,note_off,,,,,768,0,2,,,,,1,,,68,0
225024,note_off,,,,,192,0,3,,,,,2,,,53,0
225216,note_off,,,,,192,0,1,,,,,0,,,82,0
225216,note_on,,,,,0,0,1,,,,,0,,,80,103
225216,note_off,,,,,192,0,3,,,,,2,,,50,0
225216,note_on,,,,,0,0,2,,,,,1,,,68,90
225216,note_off,,,,,192,0,2,,,,,1,,,70,0
225216,note_on,,,,,0,0,3,,,,,2,,,53,84
225408,note_on,,,,,0,0,1,,,,,0,,,79,103
225408,note_off,,,,,192,0,1,,,,,0,,,80,0
225408,note_off,,,,,192,0,3,,,,,2,,,53,0
225408,note_on,,,,,0,0,3,,,,,2,,,58,84
225408,note_off,,,,,192,0,2,,,,,1,,,68,0
225408,note_on,,,,,0,0,2,,,,,1,,,67,90
225600,note_on,,,,,0,0,3,,,,,2,,,53,84
225600,note_on,,,,,0,0,1,,,,,0,,,77,103
225600,note_off,,,,,192,0,1,,,,,0,,,79,0
225600,note_off,,,,,192,0,2,,,,,1,,,67,0
225600,note_off,,,,,192,0,3,,,,,2,,,58,0
225600,note_on,,,,,0,0,2,,,,,1,,,65,90
225792,note_off,,,,,192,0,2,,,,,1,,,65,0
225792,note_on,,,,,0,0,4,,,,,3,,,39,78
225792,note_off,,,,,1536,0,4,,,,,3,,,46,0
225792,note_off,,,,,192,0,1,,,,,0,,,77,0
225792,note_on,,,,,0,0,1,,,,,0,,,79,103
225792,note_off,,,,,192,0,3,,,,,2,,,53,0
225792,note_on,,,,,0,0,2,,,,,1,,,67,90
225792,note_on,,,,,0,0,3,,,,,2,,,51,84
225984,note_on,,,,,0,0,3,,,,,2,,,58,84
225984,note_off,,,,,192,0,3,,,,,2,,,51,0
226176,note_off,,,,,384,0,2,,,,,1,,,67,0
226176,note_on,,,,,0,0,2,,,,,1,,,65,90
226176,note_off,,,,,384,0,1,,,,,0,,,79,0
226176,note_on,,,,,0,0,3,,,,,2,,,56,84
226176,note_on,,,,,0,0,1,,,,,0,,,77,103
226176,note_off,,,,,192,0,3,,,,,2,,,58,0
226368,note_on,,,,,0,0,3,,,,,2,,,58,84
226368,note_off,,,,,192,0,3,,,,,2,,,56,0
226560,note_on,,,,,0,0,3,,,,,2,,,55,84
226560,note_on,,,,,0,0,1,,,,,0,,,75,103
226560,note_off,,,,,384,0,2,,,,,1,,,65,0
226560,note_on,,,,,0,0,2,,,,,1,,,63,90
226560,note_off,,,,,192,0,3,,,,,2,,,58,0
226560,note_off,,,,,384,0,1,,,,,0,,,77,0
226752,note_off,,,,,192,0,3,,,,,2,,,55,0
226944,note_off,,,,,384,0,1,,,,,0,,,75,0
226944,note_on,,,,,0,0,1,,,,,0,,,75,103
226944,note_off,,,,,1152,0,4,,,,,3,,,39,0
226944,note_on,,,,,192,0,3,,,,,2,,,55,84
226944,note_on,,,,,0,0,2,,,,,1,,,58,90
226944,note_off,,,,,384,0,2,,,,,1,,,63,0
227136,note_off,,,,,192,0,2,,,,,1,,,58,0
227136,note_on,,,,,0,0,2,,,,,1,,,59,90
227136,note_off,,,,,192,0,1,,,,,0,,,75,0
227136,note_on,,,,,0,0,1,,,,,0,,,74,103
227328,note_on,,,,,0,0,3,,,,,2,,,56,84
227328,note_on,,,,,0,0,2,,,,,1,,,60,90
227328,note_on,,,,,384,0,4,,,,,3,,,51,78
227328,note_off,,,,,192,0,2,,,,,1,,,59,0
227328,note_off,,,,,384,0,3,,,,,2,,,55,0
227328,note_on,,,,,0,0,1,,,,,0,,,72,103
227328,note_off,,,,,192,0,1,,,,,0,,,74,0
227904,note_on,,,,,0,0,1,,,,,0,,,75,103
227904,note_off,,,,,576,0,1,,,,,0,,,72,0
228096,note_off,,,,,768,0,2,,,,,1,,,60,0
228096,note_on,,,,,0,0,1,,,,,0,,,70,103
228096,note_on,,,,,0,0,2,,,,,1,,,58,90
228096,note_on,,,,,0,0,3,,,,,2,,,55,84
228096,note_off,,,,,192,0,1,,,,,0,,,75,0
228096,note_off,,,,,768,0,3,,,,,2,,,56,0
228288,note_off,,,,,192,0,3,,,,,2,,,55,0
228288,note_off,,,,,960,0,4,,,,,3,,,51,0
228288,note_off,,,,,192,0,2,,,,,1,,,58,0
228480,note_on,,,,,192,0,3,,,,,2,,,55,84
228480,note_on,,,,,0,0,1,,,,,0,,,75,103
228480,note_off,,,,,384,0,1,,,,,0,,,70,0
228480,note_on,,,,,192,0,2,,,,,1,,,58,90
228672,note_on,,,,,0,0,1,,,,,0,,,74,103
228672,note_off,,,,,192,0,1,,,,,0,,,75,0
228672,note_on,,,,,0,0,2,,,,,1,,,59,90
228672,note_off,,,,,192,0,2,,,,,1,,,58,0
228864,note_off,,,,,192,0,2,,,,,1,,,59,0
228864,note_on,,,,,576,0,4,,,,,3,,,51,78
228864,note_on,,,,,0,0,3,,,,,2,,,56,84
228864,note_off,,,,,384,0,3,,,,,2,,,55,0
228864,note_off,,,,,192,0,1,,,,,0,,,74,0
228864,note_on,,,,,0,0,1,,,,,0,,,72,103
228864,note_on,,,,,0,0,2,,,,,1,,,60,90
229440,note_off,,,,,576,0,1,,,,,0,,,72,0
229440,note_on,,,,,0,0,1,,,,,0,,,75,103
229632,note_off,,,,,768,0,2,,,,,1,,,60,0
229632,note_off,,,,,192,0,1,,,,,0,,,75,0
229632,note_on,,,,,0,0,2,,,,,1,,,58,90
229632,note_on,,,,,0,0,3,,,,,2,,,55,84
229632,note_off,,,,,768,0,3,,,,,2,,,56,0
229632,note_on,,,,,0,0,1,,,,,0,,,70,103
229824,note_off,,,,,192,0,3,,,,,2,,,55,0
229824,note_off,,,,,960,0,4,,,,,3,,,51,0
230016,note_on,,,,,0,0,1,,,,,0,,,79,103
230016,note_off,,,,,384,0,2,,,,,1,,,58,0
230016,note_on,,,,,192,0,3,,,,,2,,,63,84
230016,note_off,,,,,384,0,1,,,,,0,,,70,0
230208,note_off,,,,,192,0,3,,,,,2,,,63,0
230208,note_on,,,,,0,0,3,,,,,2,,,58,84
230400,note_on,,,,,167424,0,5,,,,,4,,,46,100
230400,note_off,,,,,192,0,3,,,,,2,,,58,0
230400,note_on,,,,,0,0,3,,,,,2,,,56,84
230400,note_on,,,,,0,0,1,,,,,0,,,77,103
230400,note_off,,,,,384,0,1,,,,,0,,,79,0
230592,note_on,,,,,0,0,3,,,,,2,,,58,84
230592,note_off,,,,,192,0,3,,,,,2,,,56,0
230784,note_off,,,,,192,0,3,,,,,2,,,58,0
230784,note_off,,,,,384,0,5,,,,,4,,,46,0
230784,note_on,,,,,0,0,5,,,,,4,,,58,100
230784,note_on,,,,,0,0,5,,,,,4,,,65,100
230784,note_on,,,,,0,0,3,,,,,2,,,62,84
230976,note_off,,,,,192,0,3,,,,,2,,,62,0
230976,note_on,,,,,0,0,3,,,,,2,,,58,84
230976,note_on,,,,,0,0,1,,,,,0,,,75,103
230976,note_off,,,,,576,0,1,,,,,0,,,77,0
231168,note_off,,,,,192,0,3,,,,,2,,,58,0
231168,note_on,,,,,0,0,3,,,,,2,,,56,84
231168,note_off,,,,,0,0,5,,,,,4,,,65,0
231168,note_off,,,,,384,0,5,,,,,4,,,58,0
231168,note_off,,,,,192,0,1,,,,,0,,,75,0
231168,note_on,,,,,0,0,5,,,,,4,,,58,100
231168,note_on,,,,,0,0,5,,,,,4,,,65,100
231168,note_on,,,,,0,0,1,,,,,0,,,74,103
231360,note_on,,,,,0,0,3,,,,,2,,,58,84
231360,note_off,,,,,192,0,3,,,,,2,,,56,0
231552,note_off,,,,,192,0,3,,,,,2,,,58,0
231552,note_on,,,,,0,0,3,,,,,2,,,62,84
231552,note_off,,,,,384,0,5,,,,,4,,,58,0
231552,note_off,,,,,0,0,5,,,,,4,,,65,0
231552,note_off,,,,,384,0,1,,,,,0,,,74,0
231552,note_on,,,,,0,0,1,,,,,0,,,77,103
231744,note_off,,,,,192,0,3,,,,,2,,,62,0
231744,note_on,,,,,0,0,3,,,,,2,,,58,84
231936,note_off,,,,,384,0,1,,,,,0,,,77,0
231936,note_on,,,,,0,0,1,,,,,0,,,70,103
231936,note_off,,,,,192,0,3,,,,,2,,,58,0
231936,note_on,,,,,0,0,3,,,,,2,,,55,84
231936,note_on,,,,,384,0,5,,,,,4,,,39,100
232128,note_off,,,,,192,0,3,,,,,2,,,55,0
232128,note_on,,,,,0,0,3,,,,,2,,,58,84
232320,note_off,,,,,192,0,3,,,,,2,,,58,0
232320,note_on,,,,,0,0,3,,,,,2,,,63,84
232320,note_off,,,,,384,0,5,,,,,4,,,39,0
232320,note_on,,,,,0,0,5,,,,,4,,,63,100
232320,note_on,,,,,0,0,5,,,,,4,,,55,100
232512,note_off,,,,,192,0,3,,,,,2,,,63,0
232512,note_on,,,,,0,0,3,,,,,2,,,58,84
232512,note_off,,,,,576,0,1,,,,,0,,,70,0
232512,note_on,,,,,0,0,1,,,,,0,,,72,103
232608,note_off,,,,,96,0,1,,,,,0,,,72,0
232608,note_on,,,,,0,0,1,,,,,0,,,74,103
232704,note_on,,,,,0,0,5,,,,,4,,,63,100
232704,note_off,,,,,384,0,5,,,,,4,,,63,0
232704,note_off,,,,,96,0,1,,,,,0,,,74,0
232704,note_on,,,,,0,0,1,,,,,0,,,75,103
232704,note_off,,,,,0,0,5,,,,,4,,,55,0
232704,note_on,,,,,0,0,3,,,,,2,,,55,84
232704,note_off,,,,,192,0,3,,,,,2,,,58,0
232704,note_on,,,,,0,0,5,,,,,4,,,55,100
232896,note_off,,,,,192,0,3,,,,,2,,,55,0
232896,note_on,,,,,0,0,3,,,,,2,,,58,84
232896,note_off,,,,,192,0,1,,,,,0,,,75,0
233088,note_off,,,,,0,0,5,,,,,4,,,63,0
233088,note_on,,,,,192,0,1,,,,,0,,,82,103
233088,note_on,,,,,0,0,3,,,,,2,,,63,84
233088,note_off,,,,,192,0,3,,,,,2,,,58,0
233088,note_off,,,,,384,0,5,,,,,4,,,55,0
233280,note_off,,,,,192,0,1,,,,,0,,,82,0
233280,note_on,,,,,0,0,3,,,,,2,,,58,84
233280,note_off,,,,,192,0,3,,,,,2,,,63,0
233280,note_on,,,,,0,0,1,,,,,0,,,79,103
233472,note_on,,,,,0,0,3,,,,,2,,,56,84
233472,note_off,,,,,192,0,3,,,,,2,,,58,0
233472,note_off,,,,,192,0,1,,,,,0,,,79,0
233472,note_on,,,,,0,0,1,,,,,0,,,77,103
233472,note_on,,,,,384,0,5,,,,,4,,,46,100
233664,note_off,,,,,192,0,3,,,,,2,,,56,0
233664,note_on,,,,,0,0,3,,,,,2,,,58,84
233856,note_on,,,,,0,0,5,,,,,4,,,58,100
233856,note_on,,,,,0,0,5,,,,,4,,,65,100
233856,note_off,,,,,192,0,3,,,,,2,,,58,0
233856,note_on,,,,,0,0,3,,,,,2,,,62,84
233856,note_off,,,,,384,0,5,,,,,4,,,46,0
234048,note_on,,,,,0,0,1,,,,,0,,,75,103
234048,note_on,,,,,0,0,3,,,,,2,,,58,84
234048,note_off,,,,,576,0,1,,,,,0,,,77,0
234048,note_off,,,,,192,0,3,,,,,2,,,62,0
234240,note_on,,,,,0,0,1,,,,,0,,,74,103
234240,note_off,,,,,384,0,5,,,,,4,,,58,0
234240,note_on,,,,,0,0,3,,,,,2,,,56,84
234240,note_off,,,,,0,0,5,,,,,4,,,65,0
234240,note_on,,,,,0,0,5,,,,,4,,,58,100
234240,note_on,,,,,0,0,5,,,,,4,,,65,100
234240,note_off,,,,,192,0,3,,,,,2,,,58,0
234240,note_off,,,,,192,0,1,,,,,0,,,75,0
234432,note_off,,,,,192,0,3,,,,,2,,,56,0
234432,note_on,,,,,0,0,3,,,,,2,,,58,84
234624,note_off,,,,,384,0,1,,,,,0,,,74,0
234624,note_on,,,,,0,0,1,,,,,0,,,77,103
234624,note_off,,,,,0,0,5,,,,,4,,,65,0
234624,note_on,,,,,0,0,3,,,,,2,,,62,84
234624,note_off,,,,,384,0,5,,,,,4,,,58,0
234624,note_off,,,,,192,0,3,,,,,2,,,58,0
234816,note_on,,,,,0,0,3,,,,,2,,,58,84
234816,note_off,,,,,192,0,3,,,,,2,,,62,0
235008,note_off,,,,,192,0,3,,,,,2,,,58,0
235008,note_on,,,,,384,0,5,,,,,4,,,39,100
235008,note_on,,,,,0,0,1,,,,,0,,,70,103
235008,note_off,,,,,384,0,1,,,,,0,,,77,0
235008,note_on,,,,,0,0,3,,,,,2,,,55,84
235200,note_off,,,,,192,0,3,,,,,2,,,55,0
235200,note_on,,,,,0,0,3,,,,,2,,,58,84
235392,note_off,,,,,192,0,3,,,,,2,,,58,0
235392,note_on,,,,,0,0,3,,,,,2,,,63,84
235392,note_off,,,,,384,0,5,,,,,4,,,39,0
235392,note_on,,,,,0,0,5,,,,,4,,,55,100
235392,note_on,,,,,0,0,5,,,,,4,,,63,100
235584,note_on,,,,,0,0,3,,,,,2,,,58,84
235584,note_off,,,,,576,0,1,,,,,0,,,70,0
235584,note_on,,,,,0,0,1,,,,,0,,,72,103
235584,note_off,,,,,192,0,3,,,,,2,,,63,0
235680,note_off,,,,,96,0,1,,,,,0,,,72,0
235680,note_on,,,,,0,0,1,,,,,0,,,74,103
235776,note_on,,,,,0,0,3,,,,,2,,,55,84
235776,note_off,,,,,192,0,3,,,,,2,,,58,0
235776,note_on,,,,,0,0,5,,,,,4,,,55,100
235776,note_off,,,,,0,0,5,,,,,4,,,55,0
235776,note_on,,,,,0,0,5,,,,,4,,,63,100
235776,note_off,,,,,96,0,1,,,,,0,,,74,0
235776,note_on,,,,,0,0,1,,,,,0,,,75,103
235776,note_off,,,,,384,0,5,,,,,4,,,63,0
235968,note_off,,,,,192,0,1,,,,,0,,,75,0
235968,note_off,,,,,192,0,3,,,,,2,,,55,0
235968,note_on,,,,,0,0,3,,,,,2,,,58,84
236160,note_on,,,,,0,0,5,,,,,4,,,43,100
236160,note_off,,,,,0,0,5,,,,,4,,,63,0
236160,note_on,,,,,0,0,3,,,,,2,,,63,84
236160,note_off,,,,,192,0,3,,,,,2,,,58,0
236160,note_on,,,,,192,0,1,,,,,0,,,87,103
236160,note_off,,,,,384,0,5,,,,,4,,,55,0
236352,note_off,,,,,192,0,3,,,,,2,,,63,0
236352,note_on,,,,,0,0,3,,,,,2,,,58,84
236352,note_off,,,,,192,0,1,,,,,0,,,87,0
236352,note_on,,,,,0,0,1,,,,,0,,,79,103
236544,note_off,,,,,192,0,3,,,,,2,,,58,0
236544,note_on,,,,,0,0,3,,,,,2,,,64,84
236544,note_on,,,,,6720,0,4,,,,,3,,,44,78
236544,note_off,,,,,384,0,5,,,,,4,,,43,0
236544,note_on,,,,,0,0,1,,,,,0,,,79,103
236544,note_on,,,,,6528,0,2,,,,,1,,,67,90
236544,note_off,,,,,192,0,1,,,,,0,,,79,0
236736,note_on,,,,,0,0,3,,,,,2,,,65,84
236736,note_off,,,,,192,0,2,,,,,1,,,67,0
236736,note_on,,,,,0,0,2,,,,,1,,,65,90
236736,note_on,,,,,0,0,1,,,,,0,,,77,103
236736,note_off,,,,,192,0,1,,,,,0,,,79,0
236736,note_off,,,,,192,0,3,,,,,2,,,64,0
236928,note_off,,,,,192,0,2,,,,,1,,,65,0
236928,note_on,,,,,0,0,2,,,,,1,,,68,90
236928,note_off,,,,,192,0,1,,,,,0,,,77,0
236928,note_off,,,,,192,0,3,,,,,2,,,65,0
236928,note_on,,,,,0,0,1,,,,,0,,,80,103
236928,note_on,,,,,0,0,3,,,,,2,,,60,84
237120,note_on,,,,,0,0,1,,,,,0,,,84,103
237120,note_off,,,,,192,0,3,,,,,2,,,60,0
237120,note_on,,,,,0,0,3,,,,,2,,,56,84
237120,note_on,,,,,0,0,2,,,,,1,,,72,90
237120,note_off,,,,,192,0,2,,,,,1,,,68,0
237120,note_off,,,,,192,0,1,,,,,0,,,80,0
237312,note_off,,,,,192,0,1,,,,,0,,,84,0
237312,note_on,,,,,0,0,1,,,,,0,,,75,103
237312,note_on,,,,,0,0,3,,,,,2,,,55,84
237312,note_off,,,,,192,0,2,,,,,1,,,72,0
237312,note_off,,,,,768,0,4,,,,,3,,,44,0
237312,note_on,,,,,0,0,4,,,,,3,,,46,78
237312,note_off,,,,,192,0,3,,,,,2,,,56,0
237312,note_on,,,,,0,0,2,,,,,1,,,63,90
237696,note_on,,,,,0,0,3,,,,,2,,,50,84
237696,note_on,,,,,0,0,2,,,,,1,,,67,90
237696,note_off,,,,,384,0,1,,,,,0,,,75,0
237696,note_on,,,,,0,0,1,,,,,0,,,79,103
237696,note_off,,,,,384,0,3,,,,,2,,,55,0
237696,note_off,,,,,384,0,2,,,,,1,,,63,0
237888,note_off,,,,,192,0,1,,,,,0,,,79,0
237888,note_on,,,,,0,0,1,,,,,0,,,77,103
237888,note_off,,,,,192,0,2,,,,,1,,,67,0
237888,note_on,,,,,0,0,2,,,,,1,,,65,90
238080,note_on,,,,,0,0,1,,,,,0,,,67,103
238080,note_on,,,,,0,0,2,,,,,1,,,62,90
238080,note_on,,,,,0,0,2,,,,,1,,,55,90
238080,note_off,,,,,192,0,2,,,,,1,,,65,0
238080,note_off,,,,,768,0,4,,,,,3,,,46,0
238080,note_on,,,,,0,0,4,,,,,3,,,47,78
238080,note_on,,,,,0,0,3,,,,,2,,,62,84
238080,note_on,,,,,0,0,3,,,,,2,,,55,84
238080,note_off,,,,,384,0,3,,,,,2,,,50,0
238080,note_on,,,,,0,0,1,,,,,0,,,79,103
238080,note_off,,,,,192,0,1,,,,,0,,,77,0
239232,note_on,,,,,0,0,1,,,,,0,,,79,103
239232,note_off,,,,,1152,0,1,,,,,0,,,67,0
239232,note_off,,,,,0,0,1,,,,,0,,,79,0
239232,note_off,,,,,0,0,2,,,,,1,,,62,0
239232,note_off,,,,,0,0,3,,,,,2,,,62,0
239232,note_off,,,,,1152,0,4,,,,,3,,,47,0
239232,note_off,,,,,1152,0,2,,,,,1,,,55,0
239232,note_on,,,,,0,0,2,,,,,1,,,67,90
239232,note_off,,,,,1152,0,3,,,,,2,,,55,0
239520,note_on,,,,,0,0,2,,,,,1,,,66,90
239520,note_off,,,,,288,0,2,,,,,1,,,67,0
239520,note_off,,,,,288,0,1,,,,,0,,,79,0
239520,note_on,,,,,0,0,1,,,,,0,,,78,103
239616,note_on,,,,,0,0,2,,,,,1,,,67,90
239616,note_off,,,,,96,0,2,,,,,1,,,66,0
239616,note_on,,,,,0,0,1,,,,,0,,,79,103
239616,note_off,,,,,96,0,1,,,,,0,,,78,0
239808,note_off,,,,,192,0,2,,,,,1,,,67,0
239808,note_off,,,,,192,0,1,,,,,0,,,79,0
240000,note_on,,,,,192,0,1,,,,,0,,,79,103
240000,note_on,,,,,192,0,2,,,,,1,,,67,90
240288,note_on,,,,,0,0,2,,,,,1,,,66,90
240288,note_off,,,,,288,0,2,,,,,1,,,67,0
240288,note_off,,,,,288,0,1,,,,,0,,,79,0
240288,note_on,,,,,0,0,1,,,,,0,,,78,103
240384,note_off,,,,,96,0,2,,,,,1,,,66,0
240384,note_on,,,,,0,0,1,,,,,0,,,79,103
240384,note_on,,,,,0,0,2,,,,,1,,,67,90
240384,note_off,,,,,96,0,1,,,,,0,,,78,0
240576,note_off,,,,,192,0,1,,,,,0,,,79,0
240576,note_off,,,,,192,0,2,,,,,1,,,67,0
240768,note_on,,,,,1536,0,3,,,,,2,,,51,84
240768,note_on,,,,,192,0,1,,,,,0,,,79,103
240768,note_on,,,,,1536,0,4,,,,,3,,,51,78
240768,note_on,,,,,192,0,2,,,,,1,,,67,90
241152,note_on,,,,,0,0,3,,,,,2,,,52,84
241152,note_on,,,,,0,0,2,,,,,1,,,70,90
241152,note_off,,,,,384,0,2,,,,,1,,,67,0
241152,note_off,,,,,384,0,3,,,,,2,,,51,0
241152,note_off,,,,,384,0,4,,,,,3,,,51,0
241152,note_on,,,,,0,0,4,,,,,3,,,44,78
241152,note_on,,,,,0,0,1,,,,,0,,,82,103
241152,note_off,,,,,384,0,1,,,,,0,,,79,0
241344,note_off,,,,,192,0,2,,,,,1,,,70,0
241344,note_on,,,,,0,0,2,,,,,1,,,68,90
241344,note_on,,,,,0,0,3,,,,,2,,,53,84
241344,note_off,,,,,192,0,3,,,,,2,,,52,0
241344,note_on,,,,,0,0,1,,,,,0,,,80,103
241344,note_off,,,,,192,0,1,,,,,0,,,82,0
241536,note_off,,,,,192,0,3,,,,,2,,,53,0
241536,note_on,,,,,0,0,3,,,,,2,,,55,84
241536,note_on,,,,,0,0,1,,,,,0,,,79,103
241536,note_on,,,,,0,0,2,,,,,1,,,67,90
241536,note_off,,,,,192,0,2,,,,,1,,,68,0
241536,note_off,,,,,192,0,1,,,,,0,,,80,0
241728,note_off,,,,,192,0,1,,,,,0,,,79,0
241728,note_on,,,,,0,0,1,,,,,0,,,77,103
241728,note_on,,,,,0,0,2,,,,,1,,,65,90
241728,note_off,,,,,192,0,2,,,,,1,,,67,0
241728,note_off,,,,,192,0,3,,,,,2,,,55,0
241728,note_on,,,,,0,0,3,,,,,2,,,56,84
241920,note_on,,,,,0,0,4,,,,,3,,,46,78
241920,note_on,,,,,0,0,1,,,,,0,,,75,103
241920,note_on,,,,,0,0,3,,,,,2,,,55,84
241920,note_off,,,,,192,0,1,,,,,0,,,77,0
241920,note_off,,,,,768,0,4,,,,,3,,,44,0
241920,note_off,,,,,192,0,2,,,,,1,,,65,0
241920,note_on,,,,,0,0,2,,,,,1,,,63,90
241920,note_off,,,,,192,0,3,,,,,2,,,56,0
242304,note_off,,,,,384,0,1,,,,,0,,,75,0
242304,note_on,,,,,0,0,1,,,,,0,,,77,103
242304,note_on,,,,,0,0,2,,,,,1,,,65,90
242304,note_off,,,,,384,0,2,,,,,1,,,63,0
242304,note_on,,,,,0,0,3,,,,,2,,,50,84
242304,note_off,,,,,384,0,3,,,,,2,,,55,0
242688,note_on,,,,,0,0,1,,,,,0,,,79,103
242688,note_off,,,,,384,0,1,,,,,0,,,77,0
242688,note_on,,,,,0,0,2,,,,,1,,,67,90
242688,note_off,,,,,384,0,3,,,,,2,,,50,0
242688,note_off,,,,,768,0,4,,,,,3,,,46,0
242688,note_on,,,,,0,0,4,,,,,3,,,39,78
242688,note_off,,,,,384,0,2,,,,,1,,,65,0
242688,note_on,,,,,0,0,3,,,,,2,,,51,84
242880,note_off,,,,,192,0,1,,,,,0,,,79,0
242880,note_off,,,,,192,0,2,,,,,1,,,67,0
243072,note_off,,,,,384,0,4,,,,,3,,,39,0
243072,note_on,,,,,192,0,1,,,,,0,,,79,103
243072,note_on,,,,,192,0,2,,,,,1,,,67,90
243072,note_off,,,,,384,0,3,,,,,2,,,51,0
243360,note_on,,,,,0,0,1,,,,,0,,,78,103
243360,note_off,,,,,288,0,2,,,,,1,,,67,0
243360,note_on,,,,,0,0,2,,,,,1,,,66,90
243360,note_off,,,,,288,0,1,,,,,0,,,79,0
243456,note_off,,,,,96,0,2,,,,,1,,,66,0
243456,note_on,,,,,0,0,2,,,,,1,,,67,90
243456,note_on,,,,,0,0,1,,,,,0,,,79,103
243456,note_off,,,,,96,0,1,,,,,0,,,78,0
243648,note_off,,,,,192,0,2,,,,,1,,,67,0
243648,note_off,,,,,192,0,1,,,,,0,,,79,0
243840,note_on,,,,,192,0,1,,,,,0,,,79,103
243840,note_on,,,,,768,0,3,,,,,2,,,51,84
243840,note_on,,,,,192,0,2,,,,,1,,,67,90
243840,note_on,,,,,768,0,4,,,,,3,,,51,78
244224,note_off,,,,,384,0,2,,,,,1,,,67,0
244224,note_on,,,,,0,0,2,,,,,1,,,70,90
244224,note_off,,,,,384,0,4,,,,,3,,,51,0
244224,note_off,,,,,384,0,3,,,,,2,,,51,0
244224,note_on,,,,,0,0,3,,,,,2,,,52,84
244224,note_off,,,,,384,0,1,,,,,0,,,79,0
244224,note_on,,,,,0,0,1,,,,,0,,,82,103
244224,note_on,,,,,0,0,4,,,,,3,,,44,78
244416,note_on,,,,,0,0,3,,,,,2,,,53,84
244416,note_off,,,,,192,0,3,,,,,2,,,52,0
244416,note_on,,,,,0,0,2,,,,,1,,,68,90
244416,note_off,,,,,192,0,1,,,,,0,,,82,0
244416,note_on,,,,,0,0,1,,,,,0,,,80,103
244416,note_off,,,,,192,0,2,,,,,1,,,70,0
244608,note_off,,,,,192,0,1,,,,,0,,,80,0
244608,note_on,,,,,0,0,2,,,,,1,,,67,90
244608,note_on,,,,,0,0,3,,,,,2,,,55,84
244608,note_on,,,,,0,0,1,,,,,0,,,79,103
244608,note_off,,,,,192,0,2,,,,,1,,,68,0
244608,note_off,,,,,192,0,3,,,,,2,,,53,0
244800,note_on,,,,,0,0,3,,,,,2,,,56,84
244800,note_off,,,,,192,0,3,,,,,2,,,55,0
244800,note_off,,,,,192,0,1,,,,,0,,,79,0
244800,note_on,,,,,0,0,1,,,,,0,,,77,103
244800,note_off,,,,,192,0,2,,,,,1,,,67,0
244800,note_on,,,,,0,0,2,,,,,1,,,65,90
244992,note_off,,,,,192,0,1,,,,,0,,,77,0
244992,note_off,,,,,192,0,3,,,,,2,,,56,0
244992,note_on,,,,,0,0,2,,,,,1,,,63,90
244992,note_on,,,,,0,0,1,,,,,0,,,75,103
244992,note_on,,,,,0,0,4,,,,,3,,,46,78
244992,note_off,,,,,768,0,4,,,,,3,,,44,0
244992,note_on,,,,,0,0,3,,,,,2,,,55,84
244992,note_off,,,,,192,0,2,,,,,1,,,65,0
245280,note_off,,,,,288,0,2,,,,,1,,,63,0
245280,note_on,,,,,0,0,2,,,,,1,,,67,90
245280,note_on,,,,,0,0,1,,,,,0,,,79,103
245280,note_off,,,,,288,0,1,,,,,0,,,75,0
245376,note_off,,,,,96,0,1,,,,,0,,,79,0
245376,note_on,,,,,0,0,1,,,,,0,,,77,103
245376,note_off,,,,,384,0,3,,,,,2,,,55,0
245376,note_on,,,,,0,0,3,,,,,2,,,58,84
245376,note_on,,,,,0,0,2,,,,,1,,,65,90
245376,note_off,,,,,96,0,2,,,,,1,,,67,0
245568,note_off,,,,,192,0,3,,,,,2,,,58,0
245568,note_on,,,,,0,0,3,,,,,2,,,56,84
245760,note_off,,,,,384,0,1,,,,,0,,,77,0
245760,note_off,,,,,768,0,4,,,,,3,,,46,0
245760,note_on,,,,,0,0,4,,,,,3,,,51,78
245760,note_on,,,,,0,0,3,,,,,2,,,55,84
245760,note_off,,,,,192,0,3,,,,,2,,,56,0
245760,note_on,,,,,0,0,2,,,,,1,,,63,90
245760,note_on,,,,,0,0,1,,,,,0,,,75,103
245760,note_off,,,,,384,0,2,,,,,1,,,65,0
246144,note_off,,,,,384,0,1,,,,,0,,,75,0
246144,note_off,,,,,384,0,3,,,,,2,,,55,0
246144,note_off,,,,,384,0,4,,,,,3,,,51,0
246144,note_off,,,,,384,0,2,,,,,1,,,63,0
246912,note_on,,,,,768,0,2,,,,,1,,,63,90
246912,note_on,,,,,768,0,3,,,,,2,,,51,84
246912,note_on,,,,,768,0,1,,,,,0,,,63,103
246912,note_on,,,,,768,0,4,,,,,3,,,39,78
247296,note_on,,,,,0,0,2,,,,,1,,,62,90
247296,note_on,,,,,0,0,4,,,,,3,,,38,78
247296,note_off,,,,,384,0,2,,,,,1,,,63,0
247296,note_on,,,,,0,0,3,,,,,2,,,50,84
247296,note_off,,,,,384,0,3,,,,,2,,,51,0
247296,note_off,,,,,384,0,1,,,,,0,,,63,0
247296,note_off,,,,,384,0,4,,,,,3,,,39,0
247296,note_on,,,,,0,0,1,,,,,0,,,62,103
248064,note_on,,,,,0,0,2,,,,,1,,,65,90
248064,note_on,,,,,0,0,4,,,,,3,,,41,78
248064,note_off,,,,,768,0,2,,,,,1,,,62,0
248064,note_off,,,,,768,0,4,,,,,3,,,38,0
248064,note_off,,,,,768,0,3,,,,,2,,,50,0
248064,note_on,,,,,0,0,3,,,,,2,,,53,84
248064,note_off,,,,,768,0,1,,,,,0,,,62,0
248064,note_on,,,,,0,0,1,,,,,0,,,65,103
248448,note_off,,,,,384,0,3,,,,,2,,,53,0
248448,note_on,,,,,0,0,3,,,,,2,,,56,84
248448,note_off,,,,,384,0,4,,,,,3,,,41,0
248448,note_off,,,,,384,0,2,,,,,1,,,65,0
248448,note_off,,,,,384,0,1,,,,,0,,,65,0
248448,note_on,,,,,0,0,1,,,,,0,,,68,103
248448,note_on,,,,,0,0,4,,,,,3,,,44,78
248448,note_on,,,,,0,0,2,,,,,1,,,68,90
248832,note_on,,,,,0,0,2,,,,,1,,,67,90
248832,note_off,,,,,384,0,1,,,,,0,,,68,0
248832,note_on,,,,,0,0,1,,,,,0,,,67,103
248832,note_on,,,,,0,0,4,,,,,3,,,43,78
248832,note_off,,,,,384,0,4,,,,,3,,,44,0
248832,note_off,,,,,384,0,3,,,,,2,,,56,0
248832,note_on,,,,,0,0,3,,,,,2,,,55,84
248832,note_off,,,,,384,0,2,,,,,1,,,68,0
249216,note_off,,,,,384,0,4,,,,,3,,,43,0
249216,note_on,,,,,0,0,4,,,,,3,,,46,78
249216,note_on,,,,,0,0,3,,,,,2,,,58,84
249216,note_on,,,,,0,0,2,,,,,1,,,70,90
249216,note_off,,,,,384,0,3,,,,,2,,,55,0
249216,note_off,,,,,384,0,2,,,,,1,,,67,0
249216,note_off,,,,,384,0,1,,,,,0,,,67,0
249216,note_on,,,,,0,0,1,,,,,0,,,70,103
249600,note_off,,,,,384,0,4,,,,,3,,,46,0
249600,note_off,,,,,384,0,2,,,,,1,,,70,0
249600,note_off,,,,,384,0,1,,,,,0,,,70,0
249600,note_off,,,,,384,0,3,,,,,2,,,58,0
249984,note_on,,,,,384,0,2,,,,,1,,,63,90
249984,note_on,,,,,384,0,4,,,,,3,,,51,78
249984,note_on,,,,,384,0,1,,,,,0,,,67,103
249984,note_on,,,,,384,0,3,,,,,2,,,58,84
250368,note_on,,,,,0,0,2,,,,,1,,,65,90
250368,note_on,,,,,0,0,3,,,,,2,,,58,84
250368,note_off,,,,,384,0,3,,,,,2,,,58,0
250368,note_off,,,,,384,0,2,,,,,1,,,63,0
250368,note_off,,,,,384,0,4,,,,,3,,,51,0
250368,note_off,,,,,384,0,1,,,,,0,,,67,0
250368,note_on,,,,,0,0,4,,,,,3,,,50,78
250368,note_on,,,,,0,0,1,,,,,0,,,68,103
251136,note_off,,,,,768,0,1,,,,,0,,,68,0
251136,note_on,,,,,0,0,4,,,,,3,,,53,78
251136,note_off,,,,,768,0,4,,,,,3,,,50,0
251136,note_on,,,,,0,0,2,,,,,1,,,62,90
251136,note_off,,,,,768,0,2,,,,,1,,,65,0
251136,note_on,,,,,0,0,1,,,,,0,,,65,103
251520,note_on,,,,,0,0,2,,,,,1,,,58,90
251520,note_off,,,,,384,0,1,,,,,0,,,65,0
251520,note_on,,,,,0,0,3,,,,,2,,,58,84
251520,note_off,,,,,384,0,4,,,,,3,,,53,0
251520,note_on,,,,,0,0,4,,,,,3,,,56,78
251520,note_on,,,,,0,0,1,,,,,0,,,62,103
251520,note_off,,,,,1152,0,3,,,,,2,,,58,0
251520,note_off,,,,,384,0,2,,,,,1,,,62,0
251904,note_off,,,,,384,0,1,,,,,0,,,62,0
251904,note_on,,,,,0,0,3,,,,,2,,,58,84
251904,note_on,,,,,0,0,4,,,,,3,,,55,78
251904,note_off,,,,,384,0,4,,,,,3,,,56,0
251904,note_off,,,,,384,0,2,,,,,1,,,58,0
251904,note_on,,,,,0,0,2,,,,,1,,,58,90
251904,note_off,,,,,384,0,3,,,,,2,,,58,0
251904,note_on,,,,,0,0,1,,,,,0,,,63,103
252032,note_off,,,,,128,0,3,,,,,2,,,58,0
252032,note_on,,,,,0,0,3,,,,,2,,,58,84
252160,note_off,,,,,128,0,3,,,,,2,,,58,0
252160,note_on,,,,,0,0,3,,,,,2,,,58,84
252288,note_on,,,,,0,0,4,,,,,3,,,58,78
252288,note_off,,,,,384,0,4,,,,,3,,,55,0
252288,note_off,,,,,384,0,1,,,,,0,,,63,0
252288,note_off,,,,,128,0,3,,,,,2,,,58,0
252288,note_on,,,,,0,0,1,,,,,0,,,58,103
252288,note_on,,,,,0,0,3,,,,,2,,,58,84
252416,note_off,,,,,128,0,3,,,,,2,,,58,0
252416,note_on,,,,,0,0,3,,,,,2,,,58,84
252544,note_off,,,,,128,0,3,,,,,2,,,58,0
252544,note_on,,,,,0,0,3,,,,,2,,,58,84
252672,note_off,,,,,128,0,3,,,,,2,,,58,0
252672,note_on,,,,,0,0,3,,,,,2,,,58,84
252672,note_off,,,,,384,0,4,,,,,3,,,58,0
252672,note_off,,,,,384,0,1,,,,,0,,,58,0
252672,note_off,,,,,768,0,2,,,,,1,,,58,0
252800,note_on,,,,,0,0,3,,,,,2,,,58,84
252800,note_off,,,,,128,0,3,,,,,2,,,58,0
252928,note_on,,,,,0,0,3,,,,,2,,,58,84
252928,note_off,,,,,128,0,3,,,,,2,,,58,0
253056,note_on,,,,,0,0,3,,,,,2,,,58,84
253056,note_off,,,,,128,0,3,,,,,2,,,58,0
253056,note_on,,,,,384,0,1,,,,,0,,,79,103
253056,note_on,,,,,384,0,4,,,,,3,,,39,78
253056,note_on,,,,,384,0,2,,,,,1,,,67,90
253184,note_off,,,,,128,0,3,,,,,2,,,58,0
253184,note_on,,,,,0,0,3,,,,,2,,,58,84
253312,note_off,,,,,128,0,3,,,,,2,,,58,0
253312,note_on,,,,,0,0,3,,,,,2,,,58,84
253440,note_on,,,,,0,0,2,,,,,1,,,68,90
253440,note_off,,,,,384,0,1,,,,,0,,,79,0
253440,note_on,,,,,0,0,4,,,,,3,,,38,78
253440,note_off,,,,,384,0,4,,,,,3,,,39,0
253440,note_on,,,,,0,0,1,,,,,0,,,80,103
253440,note_off,,,,,384,0,2,,,,,1,,,67,0
253440,note_on,,,,,0,0,3,,,,,2,,,58,84
253440,note_off,,,,,128,0,3,,,,,2,,,58,0
253568,note_off,,,,,128,0,1,,,,,0,,,80,0
253568,note_on,,,,,0,0,1,,,,,0,,,82,103
253568,note_off,,,,,128,0,3,,,,,2,,,58,0
253568,note_on,,,,,0,0,3,,,,,2,,,58,84
253568,note_off,,,,,128,0,2,,,,,1,,,68,0
253568,note_on,,,,,0,0,2,,,,,1,,,70,90
253632,note_off,,,,,64,0,1,,,,,0,,,82,0
253632,note_off,,,,,64,0,2,,,,,1,,,70,0
253696,note_on,,,,,0,0,3,,,,,2,,,58,84
253696,note_off,,,,,128,0,3,,,,,2,,,58,0
253696,note_on,,,,,64,0,1,,,,,0,,,80,103
253696,note_on,,,,,64,0,2,,,,,1,,,68,90
253760,note_off,,,,,64,0,1,,,,,0,,,80,0
253760,note_off,,,,,64,0,2,,,,,1,,,68,0
253824,note_on,,,,,64,0,1,,,,,0,,,79,103
253824,note_on,,,,,64,0,2,,,,,1,,,67,90
253824,note_off,,,,,128,0,3,,,,,2,,,58,0
253824,note_on,,,,,0,0,3,,,,,2,,,58,84
253888,note_off,,,,,64,0,2,,,,,1,,,67,0
253888,note_off,,,,,64,0,1,,,,,0,,,79,0
253952,note_off,,,,,128,0,3,,,,,2,,,58,0
253952,note_on,,,,,0,0,3,,,,,2,,,58,84
253952,note_on,,,,,64,0,1,,,,,0,,,77,103
253952,note_on,,,,,64,0,2,,,,,1,,,65,90
254016,note_off,,,,,64,0,1,,,,,0,,,77,0
254016,note_off,,,,,64,0,2,,,,,1,,,65,0
254080,note_on,,,,,0,0,3,,,,,2,,,58,84
254080,note_off,,,,,128,0,3,,,,,2,,,58,0
254080,note_on,,,,,64,0,1,,,,,0,,,75,103
254080,note_on,,,,,64,0,2,,,,,1,,,63,90
254144,note_off,,,,,64,0,1,,,,,0,,,75,0
254144,note_off,,,,,64,0,2,,,,,1,,,63,0
254208,note_on,,,,,64,0,1,,,,,0,,,74,103
254208,note_on,,,,,0,0,3,,,,,2,,,58,84
254208,note_off,,,,,128,0,3,,,,,2,,,58,0
254208,note_on,,,,,0,0,4,,,,,3,,,41,78
254208,note_off,,,,,768,0,4,,,,,3,,,38,0
254208,note_on,,,,,64,0,2,,,,,1,,,62,90
254272,note_off,,,,,64,0,1,,,,,0,,,74,0
254272,note_off,,,,,64,0,2,,,,,1,,,62,0
254336,note_on,,,,,64,0,1,,,,,0,,,75,103
254336,note_on,,,,,64,0,2,,,,,1,,,63,90
254336,note_on,,,,,0,0,3,,,,,2,,,58,84
254336,note_off,,,,,128,0,3,,,,,2,,,58,0
254400,note_off,,,,,64,0,1,,,,,0,,,75,0
254400,note_off,,,,,64,0,2,,,,,1,,,63,0
254464,note_on,,,,,0,0,3,,,,,2,,,58,84
254464,note_on,,,,,64,0,1,,,,,0,,,72,103
254464,note_off,,,,,128,0,3,,,,,2,,,58,0
254464,note_on,,,,,64,0,2,,,,,1,,,60,90
254528,note_off,,,,,64,0,1,,,,,0,,,72,0
254528,note_off,,,,,64,0,2,,,,,1,,,60,0
254592,note_on,,,,,64,0,1,,,,,0,,,70,103
254592,note_off,,,,,384,0,4,,,,,3,,,41,0
254592,note_on,,,,,0,0,3,,,,,2,,,58,84
254592,note_on,,,,,64,0,2,,,,,1,,,58,90
254592,note_on,,,,,0,0,4,,,,,3,,,44,78
254592,note_off,,,,,128,0,3,,,,,2,,,58,0
254656,note_off,,,,,64,0,2,,,,,1,,,58,0
254656,note_off,,,,,64,0,1,,,,,0,,,70,0
254720,note_off,,,,,128,0,3,,,,,2,,,58,0
254720,note_on,,,,,64,0,1,,,,,0,,,72,103
254720,note_on,,,,,0,0,3,,,,,2,,,58,84
254720,note_on,,,,,64,0,2,,,,,1,,,60,90
254784,note_off,,,,,64,0,2,,,,,1,,,60,0
254784,note_off,,,,,64,0,1,,,,,0,,,72,0
254848,note_off,,,,,128,0,3,,,,,2,,,58,0
254848,note_on,,,,,0,0,3,,,,,2,,,58,84
254848,note_on,,,,,64,0,2,,,,,1,,,62,90
254848,note_on,,,,,64,0,1,,,,,0,,,74,103
254912,note_off,,,,,64,0,2,,,,,1,,,62,0
254912,note_off,,,,,64,0,1,,,,,0,,,74,0
254976,note_on,,,,,64,0,2,,,,,1,,,63,90
254976,note_on,,,,,64,0,1,,,,,0,,,75,103
254976,note_on,,,,,0,0,3,,,,,2,,,58,84
254976,note_off,,,,,128,0,3,,,,,2,,,58,0
254976,note_off,,,,,384,0,4,,,,,3,,,44,0
254976,note_on,,,,,0,0,4,,,,,3,,,43,78
255040,note_off,,,,,64,0,2,,,,,1,,,63,0
255104,note_on,,,,,64,0,2,,,,,1,,,58,90
255168,note_off,,,,,64,0,2,,,,,1,,,58,0
255232,note_on,,,,,64,0,2,,,,,1,,,58,90
255296,note_off,,,,,64,0,2,,,,,1,,,58,0
255360,note_off,,,,,384,0,4,,,,,3,,,43,0
255360,note_on,,,,,0,0,4,,,,,3,,,46,78
255360,note_on,,,,,0,0,1,,,,,0,,,70,103
255360,note_off,,,,,384,0,3,,,,,2,,,58,0
255360,note_on,,,,,64,0,2,,,,,1,,,58,90
255360,note_off,,,,,384,0,1,,,,,0,,,75,0
255488,note_off,,,,,128,0,2,,,,,1,,,58,0
255488,note_on,,,,,0,0,2,,,,,1,,,58,90
255616,note_on,,,,,0,0,2,,,,,1,,,58,90
255616,note_off,,,,,128,0,2,,,,,1,,,58,0
255744,note_off,,,,,384,0,1,,,,,0,,,70,0
255744,note_on,,,,,0,0,2,,,,,1,,,58,90
255744,note_off,,,,,128,0,2,,,,,1,,,58,0
255744,note_off,,,,,384,0,4,,,,,3,,,46,0
255872,note_on,,,,,0,0,2,,,,,1,,,58,90
255872,note_off,,,,,128,0,2,,,,,1,,,58,0
256000,note_off,,,,,128,0,2,,,,,1,,,58,0
256000,note_on,,,,,0,0,2,,,,,1,,,58,90
256128,note_on,,,,,0,0,2,,,,,1,,,58,90
256128,note_on,,,,,768,0,3,,,,,2,,,51,84
256128,note_on,,,,,384,0,1,,,,,0,,,79,103
256128,note_off,,,,,128,0,2,,,,,1,,,58,0
256256,note_on,,,,,0,0,2,,,,,1,,,58,90
256256,note_off,,,,,128,0,2,,,,,1,,,58,0
256384,note_on,,,,,0,0,2,,,,,1,,,58,90
256384,note_off,,,,,128,0,2,,,,,1,,,58,0
256512,note_on,,,,,0,0,2,,,,,1,,,58,90
256512,note_off,,,,,128,0,2,,,,,1,,,58,0
256512,note_on,,,,,0,0,1,,,,,0,,,80,103
256512,note_on,,,,,0,0,3,,,,,2,,,50,84
256512,note_off,,,,,384,0,3,,,,,2,,,51,0
256512,note_off,,,,,384,0,1,,,,,0,,,79,0
256640,note_off,,,,,128,0,1,,,,,0,,,80,0
256640,note_on,,,,,0,0,1,,,,,0,,,82,103
256640,note_on,,,,,0,0,2,,,,,1,,,58,90
256640,note_off,,,,,128,0,2,,,,,1,,,58,0
256704,note_off,,,,,64,0,1,,,,,0,,,82,0
256768,note_on,,,,,0,0,2,,,,,1,,,58,90
256768,note_on,,,,,64,0,1,,,,,0,,,80,103
256768,note_off,,,,,128,0,2,,,,,1,,,58,0
256832,note_off,,,,,64,0,1,,,,,0,,,80,0
256896,note_off,,,,,128,0,2,,,,,1,,,58,0
256896,note_on,,,,,0,0,2,,,,,1,,,58,90
256896,note_on,,,,,64,0,1,,,,,0,,,79,103
256960,note_off,,,,,64,0,1,,,,,0,,,79,0
257024,note_off,,,,,128,0,2,,,,,1,,,58,0
257024,note_on,,,,,64,0,1,,,,,0,,,77,103
257024,note_on,,,,,0,0,2,,,,,1,,,58,90
257088,note_off,,,,,64,0,1,,,,,0,,,77,0
257152,note_on,,,,,64,0,1,,,,,0,,,75,103
257152,note_off,,,,,128,0,2,,,,,1,,,58,0
257152,note_on,,,,,0,0,2,,,,,1,,,58,90
257216,note_off,,,,,64,0,1,,,,,0,,,75,0
257280,note_on,,,,,64,0,1,,,,,0,,,74,103
257280,note_off,,,,,128,0,2,,,,,1,,,58,0
257280,note_on,,,,,0,0,2,,,,,1,,,58,90
257280,note_off,,,,,768,0,3,,,,,2,,,50,0
257280,note_on,,,,,0,0,3,,,,,2,,,53,84
257344,note_off,,,,,64,0,1,,,,,0,,,74,0
257408,note_on,,,,,64,0,1,,,,,0,,,75,103
257408,note_on,,,,,0,0,2,,,,,1,,,58,90
257408,note_off,,,,,128,0,2,,,,,1,,,58,0
257472,note_off,,,,,64,0,1,,,,,0,,,75,0
257536,note_off,,,,,128,0,2,,,,,1,,,58,0
257536,note_on,,,,,0,0,2,,,,,1,,,58,90
257536,note_on,,,,,64,0,1,,,,,0,,,72,103
257600,note_off,,,,,64,0,1,,,,,0,,,72,0
257664,note_off,,,,,384,0,3,,,,,2,,,53,0
257664,note_on,,,,,0,0,3,,,,,2,,,56,84
257664,note_off,,,,,128,0,2,,,,,1,,,58,0
257664,note_on,,,,,64,0,1,,,,,0,,,70,103
257664,note_on,,,,,0,0,2,,,,,1,,,58,90
257728,note_off,,,,,64,0,1,,,,,0,,,70,0
257792,note_off,,,,,128,0,2,,,,,1,,,58,0
257792,note_on,,,,,64,0,1,,,,,0,,,72,103
257792,note_on,,,,,0,0,2,,,,,1,,,58,90
257856,note_off,,,,,64,0,1,,,,,0,,,72,0
257920,note_on,,,,,64,0,1,,,,,0,,,74,103
257920,note_on,,,,,0,0,2,,,,,1,,,58,90
257920,note_off,,,,,128,0,2,,,,,1,,,58,0
257984,note_off,,,,,64,0,1,,,,,0,,,74,0
258048,note_on,,,,,64,0,1,,,,,0,,,75,103
258048,note_on,,,,,0,0,2,,,,,1,,,58,90
258048,note_off,,,,,128,0,2,,,,,1,,,58,0
258048,note_off,,,,,384,0,3,,,,,2,,,56,0
258048,note_on,,,,,0,0,3,,,,,2,,,55,84
258176,note_on,,,,,0,0,2,,,,,1,,,58,90
258176,note_off,,,,,128,0,2,,,,,1,,,58,0
258304,note_on,,,,,0,0,2,,,,,1,,,58,90
258304,note_off,,,,,128,0,2,,,,,1,,,58,0
258432,note_off,,,,,384,0,1,,,,,0,,,75,0
258432,note_on,,,,,0,0,3,,,,,2,,,58,84
258432,note_off,,,,,384,0,3,,,,,2,,,55,0
258432,note_on,,,,,2688,0,4,,,,,3,,,46,78
258432,note_on,,,,,0,0,1,,,,,0,,,70,103
258432,note_off,,,,,128,0,2,,,,,1,,,58,0
258432,note_on,,,,,0,0,2,,,,,1,,,58,90
258560,note_off,,,,,128,0,2,,,,,1,,,58,0
258560,note_on,,,,,0,0,2,,,,,1,,,58,90
258688,note_off,,,,,128,0,2,,,,,1,,,58,0
258688,note_on,,,,,0,0,2,,,,,1,,,58,90
258816,note_off,,,,,384,0,1,,,,,0,,,70,0
258816,note_on,,,,,0,0,3,,,,,2,,,55,84
258816,note_off,,,,,384,0,4,,,,,3,,,46,0
258816,note_on,,,,,0,0,4,,,,,3,,,43,78
258816,note_on,,,,,0,0,2,,,,,1,,,58,90
258816,note_off,,,,,128,0,2,,,,,1,,,58,0
258816,note_on,,,,,0,0,1,,,,,0,,,67,103
258816,note_off,,,,,384,0,3,,,,,2,,,58,0
258944,note_off,,,,,128,0,2,,,,,1,,,58,0
258944,note_on,,,,,0,0,2,,,,,1,,,58,90
259072,note_off,,,,,128,0,2,,,,,1,,,58,0
259072,note_on,,,,,0,0,2,,,,,1,,,58,90
259200,note_off,,,,,384,0,3,,,,,2,,,55,0
259200,note_off,,,,,384,0,1,,,,,0,,,67,0
259200,note_on,,,,,0,0,1,,,,,0,,,65,103
259200,note_off,,,,,384,0,4,,,,,3,,,43,0
259200,note_on,,,,,0,0,2,,,,,1,,,59,90
259200,note_off,,,,,128,0,2,,,,,1,,,58,0
259200,note_on,,,,,0,0,4,,,,,3,,,41,78
259200,note_on,,,,,0,0,3,,,,,2,,,53,84
259328,note_on,,,,,0,0,2,,,,,1,,,59,90
259328,note_off,,,,,128,0,2,,,,,1,,,59,0
259456,note_off,,,,,128,0,2,,,,,1,,,59,0
259456,note_on,,,,,0,0,2,,,,,1,,,59,90
259584,note_off,,,,,384,0,3,,,,,2,,,53,0
259584,note_off,,,,,384,0,4,,,,,3,,,41,0
259584,note_on,,,,,0,0,3,,,,,2,,,52,84
259584,note_on,,,,,0,0,4,,,,,3,,,40,78
259584,note_off,,,,,128,0,2,,,,,1,,,59,0
259584,note_on,,,,,0,0,1,,,,,0,,,64,103
259584,note_off,,,,,384,0,1,,,,,0,,,65,0
259584,note_on,,,,,0,0,2,,,,,1,,,60,90
259712,note_off,,,,,128,0,2,,,,,1,,,60,0
259712,note_on,,,,,0,0,2,,,,,1,,,60,90
259840,note_off,,,,,128,0,2,,,,,1,,,60,0
259840,note_on,,,,,0,0,2,,,,,1,,,60,90
259968,note_off,,,,,128,0,2,,,,,1,,,60,0
259968,note_on,,,,,0,0,2,,,,,1,,,60,90
260096,note_off,,,,,128,0,2,,,,,1,,,60,0
260096,note_on,,,,,0,0,2,,,,,1,,,60,90
260224,note_off,,,,,128,0,2,,,,,1,,,60,0
260224,note_on,,,,,0,0,2,,,,,1,,,60,90
260352,note_off,,,,,768,0,3,,,,,2,,,52,0
260352,note_on,,,,,0,0,3,,,,,2,,,55,84
260352,note_on,,,,,0,0,4,,,,,3,,,43,78
260352,note_off,,,,,768,0,4,,,,,3,,,40,0
260352,note_off,,,,,128,0,2,,,,,1,,,60,0
260352,note_on,,,,,0,0,2,,,,,1,,,60,90
260352,note_off,,,,,768,0,1,,,,,0,,,64,0
260352,note_on,,,,,0,0,1,,,,,0,,,67,103
260480,note_off,,,,,128,0,2,,,,,1,,,60,0
260480,note_on,,,,,0,0,2,,,,,1,,,60,90
260608,note_off,,,,,128,0,2,,,,,1,,,60,0
260608,note_on,,,,,0,0,2,,,,,1,,,60,90
260736,note_off,,,,,384,0,3,,,,,2,,,55,0
260736,note_off,,,,,384,0,1,,,,,0,,,67,0
260736,note_off,,,,,128,0,2,,,,,1,,,60,0
260736,note_on,,,,,0,0,2,,,,,1,,,60,90
260736,note_on,,,,,0,0,3,,,,,2,,,58,84
260736,note_off,,,,,384,0,4,,,,,3,,,43,0
260736,note_on,,,,,0,0,4,,,,,3,,,46,78
260736,note_on,,,,,0,0,1,,,,,0,,,70,103
260864,note_off,,,,,128,0,2,,,,,1,,,60,0
260864,note_on,,,,,0,0,2,,,,,1,,,60,90
260992,note_on,,,,,0,0,2,,,,,1,,,60,90
260992,note_off,,,,,128,0,2,,,,,1,,,60,0
261120,note_off,,,,,384,0,1,,,,,0,,,70,0
261120,note_on,,,,,0,0,2,,,,,1,,,60,90
261120,note_off,,,,,128,0,2,,,,,1,,,60,0
261120,note_off,,,,,384,0,4,,,,,3,,,46,0
261120,note_off,,,,,384,0,3,,,,,2,,,58,0
261120,note_on,,,,,0,0,3,,,,,2,,,56,84
261120,note_on,,,,,0,0,1,,,,,0,,,68,103
261120,note_on,,,,,0,0,4,,,,,3,,,44,78
261248,note_off,,,,,128,0,2,,,,,1,,,60,0
261248,note_on,,,,,0,0,2,,,,,1,,,60,90
261376,note_off,,,,,128,0,2,,,,,1,,,60,0
261376,note_on,,,,,0,0,2,,,,,1,,,60,90
261504,note_off,,,,,128,0,2,,,,,1,,,60,0
261504,note_on,,,,,0,0,2,,,,,1,,,60,90
261504,note_on,,,,,0,0,1,,,,,0,,,72,103
261504,note_off,,,,,384,0,3,,,,,2,,,56,0
261504,note_on,,,,,0,0,3,,,,,2,,,60,84
261504,note_off,,,,,384,0,1,,,,,0,,,68,0
261504,note_off,,,,,384,0,4,,,,,3,,,44,0
261504,note_on,,,,,0,0,4,,,,,3,,,48,78
261632,note_on,,,,,0,0,2,,,,,1,,,60,90
261632,note_off,,,,,128,0,2,,,,,1,,,60,0
261760,note_on,,,,,0,0,2,,,,,1,,,60,90
261760,note_off,,,,,128,0,2,,,,,1,,,60,0
261888,note_off,,,,,384,0,4,,,,,3,,,48,0
261888,note_on,,,,,0,0,2,,,,,1,,,60,90
261888,note_off,,,,,128,0,2,,,,,1,,,60,0
261888,note_off,,,,,384,0,3,,,,,2,,,60,0
261888,note_off,,,,,384,0,1,,,,,0,,,72,0
262016,note_on,,,,,0,0,2,,,,,1,,,60,90
262016,note_off,,,,,128,0,2,,,,,1,,,60,0
262144,note_off,,,,,128,0,2,,,,,1,,,60,0
262144,note_on,,,,,0,0,2,,,,,1,,,60,90
262272,note_off,,,,,128,0,2,,,,,1,,,60,0
262272,note_on,,,,,384,0,3,,,,,2,,,53,84
262272,note_on,,,,,0,0,2,,,,,1,,,60,90
262272,note_on,,,,,384,0,1,,,,,0,,,80,103
262400,note_off,,,,,128,0,2,,,,,1,,,60,0
262400,note_on,,,,,0,0,2,,,,,1,,,60,90
262528,note_off,,,,,128,0,2,,,,,1,,,60,0
262528,note_on,,,,,0,0,2,,,,,1,,,60,90
262656,note_off,,,,,384,0,1,,,,,0,,,80,0
262656,note_on,,,,,0,0,3,,,,,2,,,52,84
262656,note_off,,,,,384,0,3,,,,,2,,,53,0
262656,note_on,,,,,0,0,1,,,,,0,,,84,103
262656,note_off,,,,,128,0,2,,,,,1,,,60,0
262656,note_on,,,,,0,0,2,,,,,1,,,60,90
262784,note_on,,,,,0,0,1,,,,,0,,,85,103
262784,note_off,,,,,128,0,1,,,,,0,,,84,0
262784,note_on,,,,,0,0,2,,,,,1,,,60,90
262784,note_off,,,,,128,0,2,,,,,1,,,60,0
262848,note_off,,,,,64,0,1,,,,,0,,,85,0
262912,note_on,,,,,64,0,1,,,,,0,,,84,103
262912,note_off,,,,,128,0,2,,,,,1,,,60,0
262912,note_on,,,,,0,0,2,,,,,1,,,60,90
262976,note_off,,,,,64,0,1,,,,,0,,,84,0
263040,note_on,,,,,64,0,1,,,,,0,,,82,103
263040,note_off,,,,,128,0,2,,,,,1,,,60,0
263040,note_on,,,,,0,0,2,,,,,1,,,60,90
263104,note_off,,,,,64,0,1,,,,,0,,,82,0
263168,note_on,,,,,64,0,1,,,,,0,,,80,103
263168,note_off,,,,,128,0,2,,,,,1,,,60,0
263168,note_on,,,,,0,0,2,,,,,1,,,60,90
263232,note_off,,,,,64,0,1,,,,,0,,,80,0
263296,note_on,,,,,64,0,1,,,,,0,,,79,103
263296,note_on,,,,,0,0,2,,,,,1,,,60,90
263296,note_off,,,,,128,0,2,,,,,1,,,60,0
263360,note_off,,,,,64,0,1,,,,,0,,,79,0
263424,note_on,,,,,64,0,1,,,,,0,,,77,103
263424,note_on,,,,,0,0,3,,,,,2,,,55,84
263424,note_off,,,,,768,0,3,,,,,2,,,52,0
263424,note_off,,,,,128,0,2,,,,,1,,,60,0
263424,note_on,,,,,0,0,2,,,,,1,,,60,90
263488,note_off,,,,,64,0,1,,,,,0,,,77,0
263552,note_on,,,,,0,0,2,,,,,1,,,60,90
263552,note_off,,,,,128,0,2,,,,,1,,,60,0
263552,note_on,,,,,64,0,1,,,,,0,,,76,103
263616,note_off,,,,,64,0,1,,,,,0,,,76,0
263680,note_on,,,,,64,0,1,,,,,0,,,74,103
263680,note_off,,,,,128,0,2,,,,,1,,,60,0
263680,note_on,,,,,0,0,2,,,,,1,,,60,90
263744,note_off,,,,,64,0,1,,,,,0,,,74,0
263808,note_on,,,,,0,0,3,,,,,2,,,58,84
263808,note_on,,,,,0,0,1,,,,,0,,,74,103
263808,note_on,,,,,64,0,1,,,,,0,,,72,103
263808,note_off,,,,,384,0,3,,,,,2,,,55,0
263808,note_on,,,,,0,0,2,,,,,1,,,60,90
263808,note_off,,,,,128,0,2,,,,,1,,,60,0
263872,note_off,,,,,0,0,1,,,,,0,,,74,0
263872,note_off,,,,,64,0,1,,,,,0,,,72,0
263936,note_on,,,,,64,0,1,,,,,0,,,74,103
263936,note_on,,,,,0,0,2,,,,,1,,,60,90
263936,note_off,,,,,128,0,2,,,,,1,,,60,0
264000,note_off,,,,,64,0,1,,,,,0,,,74,0
264064,note_off,,,,,128,0,2,,,,,1,,,60,0
264064,note_on,,,,,64,0,1,,,,,0,,,76,103
264064,note_on,,,,,0,0,2,,,,,1,,,60,90
264128,note_off,,,,,64,0,1,,,,,0,,,76,0
264192,note_on,,,,,64,0,1,,,,,0,,,77,103
264192,note_on,,,,,0,0,3,,,,,2,,,56,84
264192,note_on,,,,,0,0,2,,,,,1,,,60,90
264192,note_off,,,,,384,0,3,,,,,2,,,58,0
264192,note_off,,,,,128,0,2,,,,,1,,,60,0
264320,note_off,,,,,128,0,2,,,,,1,,,60,0
264320,note_on,,,,,0,0,2,,,,,1,,,60,90
264448,note_off,,,,,128,0,2,,,,,1,,,60,0
264448,note_on,,,,,0,0,2,,,,,1,,,60,90
264576,note_off,,,,,384,0,3,,,,,2,,,56,0
264576,note_on,,,,,0,0,3,,,,,2,,,60,84
264576,note_on,,,,,0,0,2,,,,,1,,,60,90
264576,note_off,,,,,128,0,2,,,,,1,,,60,0
264576,note_on,,,,,0,0,1,,,,,0,,,72,103
264576,note_off,,,,,384,0,1,,,,,0,,,77,0
264704,note_off,,,,,128,0,2,,,,,1,,,60,0
264704,note_on,,,,,0,0,2,,,,,1,,,60,90
264832,note_off,,,,,128,0,2,,,,,1,,,60,0
264832,note_on,,,,,0,0,2,,,,,1,,,60,90
264960,note_off,,,,,128,0,2,,,,,1,,,60,0
264960,note_on,,,,,0,0,2,,,,,1,,,60,90
264960,note_off,,,,,384,0,3,,,,,2,,,60,0
264960,note_off,,,,,384,0,1,,,,,0,,,72,0
265088,note_off,,,,,128,0,2,,,,,1,,,60,0
265088,note_on,,,,,0,0,2,,,,,1,,,60,90
265216,note_on,,,,,0,0,2,,,,,1,,,60,90
265216,note_off,,,,,128,0,2,,,,,1,,,60,0
265344,note_off,,,,,128,0,2,,,,,1,,,60,0
265344,note_on,,,,,0,0,2,,,,,1,,,62,90
265344,note_on,,,,,384,0,3,,,,,2,,,56,84
265344,note_on,,,,,384,0,1,,,,,0,,,56,103
265344,note_on,,,,,3456,0,4,,,,,3,,,44,78
265472,note_off,,,,,128,0,2,,,,,1,,,62,0
265472,note_on,,,,,0,0,2,,,,,1,,,62,90
265600,note_off,,,,,128,0,2,,,,,1,,,62,0
265600,note_on,,,,,0,0,2,,,,,1,,,62,90
265728,note_off,,,,,384,0,3,,,,,2,,,56,0
265728,note_off,,,,,384,0,1,,,,,0,,,56,0
265728,note_off,,,,,128,0,2,,,,,1,,,62,0
265728,note_on,,,,,0,0,2,,,,,1,,,63,90
265728,note_on,,,,,0,0,3,,,,,2,,,55,84
265728,note_off,,,,,384,0,4,,,,,3,,,44,0
265728,note_on,,,,,0,0,1,,,,,0,,,55,103
265728,note_on,,,,,0,0,4,,,,,3,,,43,78
265856,note_off,,,,,128,0,2,,,,,1,,,63,0
265856,note_on,,,,,0,0,2,,,,,1,,,63,90
265984,note_on,,,,,0,0,2,,,,,1,,,63,90
265984,note_off,,,,,128,0,2,,,,,1,,,63,0
266112,note_off,,,,,128,0,2,,,,,1,,,63,0
266112,note_on,,,,,0,0,2,,,,,1,,,63,90
266240,note_off,,,,,128,0,2,,,,,1,,,63,0
266240,note_on,,,,,0,0,2,,,,,1,,,63,90
266368,note_off,,,,,128,0,2,,,,,1,,,63,0
266368,note_on,,,,,0,0,2,,,,,1,,,63,90
266496,note_on,,,,,0,0,1,,,,,0,,,58,103
266496,note_on,,,,,0,0,2,,,,,1,,,63,90
266496,note_off,,,,,128,0,2,,,,,1,,,63,0
266496,note_off,,,,,768,0,1,,,,,0,,,55,0
266496,note_off,,,,,768,0,4,,,,,3,,,43,0
266496,note_on,,,,,0,0,3,,,,,2,,,58,84
266496,note_off,,,,,768,0,3,,,,,2,,,55,0
266496,note_on,,,,,0,0,4,,,,,3,,,46,78
266624,note_on,,,,,0,0,2,,,,,1,,,63,90
266624,note_off,,,,,128,0,2,,,,,1,,,63,0
266752,note_on,,,,,0,0,2,,,,,1,,,63,90
266752,note_off,,,,,128,0,2,,,,,1,,,63,0
266880,note_off,,,,,384,0,3,,,,,2,,,58,0
266880,note_on,,,,,0,0,3,,,,,2,,,61,84
266880,note_on,,,,,0,0,1,,,,,0,,,61,103
266880,note_off,,,,,384,0,1,,,,,0,,,58,0
266880,note_off,,,,,384,0,4,,,,,3,,,46,0
266880,note_on,,,,,0,0,4,,,,,3,,,49,78
266880,note_off,,,,,128,0,2,,,,,1,,,63,0
266880,note_on,,,,,0,0,2,,,,,1,,,63,90
267008,note_off,,,,,128,0,2,,,,,1,,,63,0
267008,note_on,,,,,0,0,2,,,,,1,,,63,90
267136,note_off,,,,,128,0,2,,,,,1,,,63,0
267136,note_on,,,,,0,0,2,,,,,1,,,63,90
267264,note_on,,,,,0,0,4,,,,,3,,,48,78
267264,note_off,,,,,384,0,4,,,,,3,,,49,0
267264,note_on,,,,,0,0,1,,,,,0,,,60,103
267264,note_off,,,,,384,0,1,,,,,0,,,61,0
267264,note_off,,,,,128,0,2,,,,,1,,,63,0
267264,note_on,,,,,0,0,2,,,,,1,,,63,90
267264,note_on,,,,,0,0,3,,,,,2,,,60,84
267264,note_off,,,,,384,0,3,,,,,2,,,61,0
267392,note_on,,,,,0,0,2,,,,,1,,,63,90
267392,note_off,,,,,128,0,2,,,,,1,,,63,0
267520,note_on,,,,,0,0,2,,,,,1,,,63,90
267520,note_off,,,,,128,0,2,,,,,1,,,63,0
267648,note_off,,,,,128,0,2,,,,,1,,,63,0
267648,note_on,,,,,0,0,1,,,,,0,,,63,103
267648,note_off,,,,,384,0,4,,,,,3,,,48,0
267648,note_on,,,,,0,0,3,,,,,2,,,63,84
267648,note_off,,,,,384,0,3,,,,,2,,,60,0
267648,note_on,,,,,0,0,4,,,,,3,,,51,78
267648,note_off,,,,,384,0,1,,,,,0,,,60,0
267648,note_on,,,,,0,0,2,,,,,1,,,63,90
267776,note_on,,,,,0,0,2,,,,,1,,,63,90
267776,note_off,,,,,128,0,2,,,,,1,,,63,0
267904,note_on,,,,,0,0,2,,,,,1,,,63,90
267904,note_off,,,,,128,0,2,,,,,1,,,63,0
268032,note_off,,,,,384,0,4,,,,,3,,,51,0
268032,note_off,,,,,384,0,1,,,,,0,,,63,0
268032,note_on,,,,,0,0,2,,,,,1,,,63,90
268032,note_off,,,,,128,0,2,,,,,1,,,63,0
268032,note_off,,,,,384,0,3,,,,,2,,,63,0
268160,note_on,,,,,0,0,2,,,,,1,,,63,90
268160,note_off,,,,,128,0,2,,,,,1,,,63,0
268288,note_on,,,,,0,0,2,,,,,1,,,63,90
268288,note_off,,,,,128,0,2,,,,,1,,,63,0
268416,note_on,,,,,0,0,2,,,,,1,,,63,90
268416,note_on,,,,,384,0,4,,,,,3,,,56,78
268416,note_on,,,,,384,0,3,,,,,2,,,56,84
268416,note_off,,,,,128,0,2,,,,,1,,,63,0
268416,note_on,,,,,384,0,1,,,,,0,,,72,103
268544,note_off,,,,,128,0,2,,,,,1,,,63,0
268544,note_on,,,,,0,0,2,,,,,1,,,63,90
268672,note_off,,,,,128,0,2,,,,,1,,,63,0
268672,note_on,,,,,0,0,2,,,,,1,,,63,90
268800,note_on,,,,,0,0,3,,,,,2,,,55,84
268800,note_on,,,,,0,0,4,,,,,3,,,55,78
268800,note_off,,,,,384,0,4,,,,,3,,,56,0
268800,note_off,,,,,128,0,2,,,,,1,,,63,0
268800,note_on,,,,,0,0,2,,,,,1,,,63,90
268800,note_off,,,,,384,0,1,,,,,0,,,72,0
268800,note_off,,,,,384,0,3,,,,,2,,,56,0
268800,note_on,,,,,0,0,1,,,,,0,,,73,103
268928,note_on,,,,,0,0,2,,,,,1,,,63,90
268928,note_off,,,,,128,0,2,,,,,1,,,63,0
268928,note_on,,,,,0,0,1,,,,,0,,,75,103
268928,note_off,,,,,128,0,1,,,,,0,,,73,0
268992,note_off,,,,,64,0,1,,,,,0,,,75,0
269056,note_on,,,,,64,0,1,,,,,0,,,73,103
269056,note_off,,,,,128,0,2,,,,,1,,,63,0
269056,note_on,,,,,0,0,2,,,,,1,,,63,90
269120,note_off,,,,,64,0,1,,,,,0,,,73,0
269184,note_on,,,,,64,0,1,,,,,0,,,72,103
269184,note_on,,,,,0,0,2,,,,,1,,,63,90
269184,note_off,,,,,128,0,2,,,,,1,,,63,0
269248,note_off,,,,,64,0,1,,,,,0,,,72,0
269312,note_on,,,,,64,0,1,,,,,0,,,70,103
269312,note_on,,,,,0,0,2,,,,,1,,,63,90
269312,note_off,,,,,128,0,2,,,,,1,,,63,0
269376,note_off,,,,,64,0,1,,,,,0,,,70,0
269440,note_on,,,,,64,0,1,,,,,0,,,68,103
269440,note_on,,,,,0,0,2,,,,,1,,,63,90
269440,note_off,,,,,128,0,2,,,,,1,,,63,0
269504,note_off,,,,,64,0,1,,,,,0,,,68,0
269568,note_off,,,,,768,0,4,,,,,3,,,55,0
269568,note_off,,,,,768,0,3,,,,,2,,,55,0
269568,note_on,,,,,0,0,3,,,,,2,,,58,84
269568,note_on,,,,,0,0,2,,,,,1,,,63,90
269568,note_on,,,,,64,0,1,,,,,0,,,67,103
269568,note_off,,,,,128,0,2,,,,,1,,,63,0
269568,note_on,,,,,0,0,4,,,,,3,,,58,78
269632,note_off,,,,,64,0,1,,,,,0,,,67,0
269696,note_on,,,,,64,0,1,,,,,0,,,68,103
269696,note_off,,,,,128,0,2,,,,,1,,,63,0
269696,note_on,,,,,0,0,2,,,,,1,,,63,90
269760,note_off,,,,,64,0,1,,,,,0,,,68,0
269824,note_off,,,,,128,0,2,,,,,1,,,63,0
269824,note_on,,,,,0,0,2,,,,,1,,,63,90
269824,note_on,,,,,64,0,1,,,,,0,,,65,103
269888,note_off,,,,,64,0,1,,,,,0,,,65,0
269952,note_on,,,,,64,0,1,,,,,0,,,63,103
269952,note_off,,,,,384,0,3,,,,,2,,,58,0
269952,note_off,,,,,384,0,4,,,,,3,,,58,0
269952,note_on,,,,,0,0,2,,,,,1,,,63,90
269952,note_off,,,,,128,0,2,,,,,1,,,63,0
269952,note_on,,,,,0,0,3,,,,,2,,,61,84
269952,note_on,,,,,0,0,4,,,,,3,,,61,78
270016,note_off,,,,,64,0,1,,,,,0,,,63,0
270080,note_on,,,,,64,0,1,,,,,0,,,65,103
270080,note_off,,,,,128,0,2,,,,,1,,,63,0
270080,note_on,,,,,0,0,2,,,,,1,,,63,90
270144,note_off,,,,,64,0,1,,,,,0,,,65,0
270208,note_on,,,,,64,0,1,,,,,0,,,67,103
270208,note_off,,,,,128,0,2,,,,,1,,,63,0
270208,note_on,,,,,0,0,2,,,,,1,,,63,90
270272,note_off,,,,,64,0,1,,,,,0,,,67,0
270336,note_off,,,,,128,0,2,,,,,1,,,63,0
270336,note_on,,,,,0,0,2,,,,,1,,,63,90
270336,note_off,,,,,384,0,4,,,,,3,,,61,0
270336,note_off,,,,,384,0,3,,,,,2,,,61,0
270336,note_on,,,,,0,0,3,,,,,2,,,60,84
270336,note_on,,,,,0,0,4,,,,,3,,,60,78
270336,note_on,,,,,64,0,1,,,,,0,,,68,103
270464,note_off,,,,,128,0,3,,,,,2,,,60,0
270464,note_on,,,,,0,0,3,,,,,2,,,63,84
270592,note_on,,,,,0,0,3,,,,,2,,,63,84
270592,note_off,,,,,128,0,3,,,,,2,,,63,0
270720,note_off,,,,,128,0,3,,,,,2,,,63,0
270720,note_on,,,,,0,0,3,,,,,2,,,63,84
270720,note_on,,,,,0,0,4,,,,,3,,,63,78
270720,note_off,,,,,384,0,1,,,,,0,,,68,0
270720,note_off,,,,,384,0,2,,,,,1,,,63,0
270720,note_on,,,,,0,0,1,,,,,0,,,63,103
270720,note_off,,,,,384,0,4,,,,,3,,,60,0
270848,note_off,,,,,128,0,3,,,,,2,,,63,0
270848,note_on,,,,,0,0,3,,,,,2,,,63,84
270976,note_on,,,,,0,0,3,,,,,2,,,63,84
270976,note_off,,,,,128,0,3,,,,,2,,,63,0
271104,note_on,,,,,0,0,3,,,,,2,,,63,84
271104,note_off,,,,,128,0,3,,,,,2,,,63,0
271104,note_off,,,,,384,0,1,,,,,0,,,63,0
271104,note_off,,,,,384,0,4,,,,,3,,,63,0
271232,note_off,,,,,128,0,3,,,,,2,,,63,0
271232,note_on,,,,,0,0,3,,,,,2,,,63,84
271360,note_off,,,,,128,0,3,,,,,2,,,63,0
271360,note_on,,,,,0,0,3,,,,,2,,,63,84
271488,note_off,,,,,128,0,3,,,,,2,,,63,0
271488,note_on,,,,,768,0,2,,,,,1,,,56,90
271488,note_on,,,,,384,0,1,,,,,0,,,72,103
271488,note_on,,,,,0,0,3,,,,,2,,,63,84
271616,note_on,,,,,0,0,3,,,,,2,,,63,84
271616,note_off,,,,,128,0,3,,,,,2,,,63,0
271744,note_on,,,,,0,0,3,,,,,2,,,63,84
271744,note_off,,,,,128,0,3,,,,,2,,,63,0
271872,note_off,,,,,128,0,3,,,,,2,,,63,0
271872,note_on,,,,,0,0,1,,,,,0,,,73,103
271872,note_off,,,,,384,0,1,,,,,0,,,72,0
271872,note_on,,,,,0,0,3,,,,,2,,,63,84
271872,note_on,,,,,0,0,2,,,,,1,,,55,90
271872,note_off,,,,,384,0,2,,,,,1,,,56,0
272000,note_on,,,,,0,0,1,,,,,0,,,75,103
272000,note_off,,,,,128,0,3,,,,,2,,,63,0
272000,note_on,,,,,0,0,3,,,,,2,,,63,84
272000,note_off,,,,,128,0,1,,,,,0,,,73,0
272064,note_off,,,,,64,0,1,,,,,0,,,75,0
272128,note_on,,,,,64,0,1,,,,,0,,,73,103
272128,note_off,,,,,128,0,3,,,,,2,,,63,0
272128,note_on,,,,,0,0,3,,,,,2,,,63,84
272192,note_off,,,,,64,0,1,,,,,0,,,73,0
272256,note_on,,,,,64,0,1,,,,,0,,,72,103
272256,note_off,,,,,128,0,3,,,,,2,,,63,0
272256,note_on,,,,,0,0,3,,,,,2,,,63,84
272320,note_off,,,,,64,0,1,,,,,0,,,72,0
272384,note_on,,,,,64,0,1,,,,,0,,,70,103
272384,note_on,,,,,0,0,3,,,,,2,,,63,84
272384,note_off,,,,,128,0,3,,,,,2,,,63,0
272448,note_off,,,,,64,0,1,,,,,0,,,70,0
272512,note_off,,,,,128,0,3,,,,,2,,,63,0
272512,note_on,,,,,64,0,1,,,,,0,,,68,103
272512,note_on,,,,,0,0,3,,,,,2,,,63,84
272576,note_off,,,,,64,0,1,,,,,0,,,68,0
272640,note_on,,,,,0,0,2,,,,,1,,,58,90
272640,note_off,,,,,768,0,2,,,,,1,,,55,0
272640,note_on,,,,,64,0,1,,,,,0,,,67,103
272640,note_on,,,,,0,0,3,,,,,2,,,63,84
272640,note_off,,,,,128,0,3,,,,,2,,,63,0
272704,note_off,,,,,64,0,1,,,,,0,,,67,0
272768,note_on,,,,,0,0,3,,,,,2,,,63,84
272768,note_off,,,,,128,0,3,,,,,2,,,63,0
272768,note_on,,,,,64,0,1,,,,,0,,,68,103
272832,note_off,,,,,64,0,1,,,,,0,,,68,0
272896,note_off,,,,,128,0,3,,,,,2,,,63,0
272896,note_on,,,,,0,0,3,,,,,2,,,63,84
272896,note_on,,,,,64,0,1,,,,,0,,,65,103
272960,note_off,,,,,64,0,1,,,,,0,,,65,0
273024,note_off,,,,,128,0,3,,,,,2,,,63,0
273024,note_on,,,,,0,0,3,,,,,2,,,63,84
273024,note_on,,,,,64,0,1,,,,,0,,,63,103
273024,note_off,,,,,384,0,2,,,,,1,,,58,0
273024,note_on,,,,,0,0,2,,,,,1,,,61,90
273088,note_off,,,,,64,0,1,,,,,0,,,63,0
273152,note_on,,,,,64,0,1,,,,,0,,,65,103
273152,note_on,,,,,0,0,3,,,,,2,,,63,84
273152,note_off,,,,,128,0,3,,,,,2,,,63,0
273216,note_off,,,,,64,0,1,,,,,0,,,65,0
273280,note_on,,,,,0,0,3,,,,,2,,,63,84
273280,note_off,,,,,128,0,3,,,,,2,,,63,0
273280,note_on,,,,,64,0,1,,,,,0,,,67,103
273344,note_off,,,,,64,0,1,,,,,0,,,67,0
273408,note_on,,,,,0,0,2,,,,,1,,,60,90
273408,note_on,,,,,0,0,3,,,,,2,,,63,84
273408,note_off,,,,,128,0,3,,,,,2,,,63,0
273408,note_on,,,,,64,0,1,,,,,0,,,68,103
273408,note_off,,,,,384,0,2,,,,,1,,,61,0
273536,note_on,,,,,0,0,3,,,,,2,,,63,84
273536,note_off,,,,,128,0,3,,,,,2,,,63,0
273600,note_off,,,,,192,0,2,,,,,1,,,60,0
273600,note_off,,,,,192,0,1,,,,,0,,,68,0
273664,note_on,,,,,0,0,3,,,,,2,,,63,84
273664,note_off,,,,,128,0,3,,,,,2,,,63,0
273792,note_on,,,,,0,0,3,,,,,2,,,63,84
273792,note_off,,,,,128,0,3,,,,,2,,,63,0
273792,note_on,,,,,192,0,2,,,,,1,,,63,90
273792,note_on,,,,,2688,0,4,,,,,3,,,51,78
273792,note_on,,,,,192,0,1,,,,,0,,,63,103
273920,note_on,,,,,0,0,3,,,,,2,,,63,84
273920,note_off,,,,,128,0,3,,,,,2,,,63,0
274048,note_on,,,,,0,0,3,,,,,2,,,63,84
274048,note_off,,,,,128,0,3,,,,,2,,,63,0
274176,note_off,,,,,128,0,3,,,,,2,,,63,0
274176,note_on,,,,,0,0,4,,,,,3,,,48,78
274176,note_off,,,,,384,0,4,,,,,3,,,51,0
274176,note_on,,,,,0,0,3,,,,,2,,,63,84
274176,note_off,,,,,384,0,1,,,,,0,,,63,0
274176,note_on,,,,,0,0,2,,,,,1,,,60,90
274176,note_off,,,,,384,0,2,,,,,1,,,63,0
274176,note_on,,,,,0,0,1,,,,,0,,,60,103
274304,note_off,,,,,128,0,3,,,,,2,,,63,0
274304,note_on,,,,,0,0,3,,,,,2,,,63,84
274432,note_off,,,,,128,0,3,,,,,2,,,63,0
274432,note_on,,,,,0,0,3,,,,,2,,,63,84
274560,note_off,,,,,384,0,2,,,,,1,,,60,0
274560,note_off,,,,,384,0,4,,,,,3,,,48,0
274560,note_on,,,,,0,0,4,,,,,3,,,46,78
274560,note_on,,,,,0,0,2,,,,,1,,,58,90
274560,note_on,,,,,0,0,1,,,,,0,,,58,103
274560,note_off,,,,,384,0,1,,,,,0,,,60,0
274560,note_on,,,,,0,0,3,,,,,2,,,64,84
274560,note_off,,,,,128,0,3,,,,,2,,,63,0
274688,note_off,,,,,128,0,3,,,,,2,,,64,0
274688,note_on,,,,,0,0,3,,,,,2,,,64,84
274816,note_off,,,,,128,0,3,,,,,2,,,64,0
274816,note_on,,,,,0,0,3,,,,,2,,,64,84
274944,note_off,,,,,384,0,2,,,,,1,,,58,0
274944,note_off,,,,,384,0,1,,,,,0,,,58,0
274944,note_on,,,,,0,0,1,,,,,0,,,57,103
274944,note_off,,,,,384,0,4,,,,,3,,,46,0
274944,note_on,,,,,0,0,4,,,,,3,,,45,78
274944,note_on,,,,,0,0,2,,,,,1,,,57,90
274944,note_off,,,,,128,0,3,,,,,2,,,64,0
274944,note_on,,,,,0,0,3,,,,,2,,,65,84
275072,note_on,,,,,0,0,3,,,,,2,,,65,84
275072,note_off,,,,,128,0,3,,,,,2,,,65,0
275200,note_on,,,,,0,0,3,,,,,2,,,65,84
275200,note_off,,,,,128,0,3,,,,,2,,,65,0
275328,note_on,,,,,0,0,3,,,,,2,,,65,84
275328,note_off,,,,,128,0,3,,,,,2,,,65,0
275456,note_on,,,,,0,0,3,,,,,2,,,65,84
275456,note_off,,,,,128,0,3,,,,,2,,,65,0
275584,note_off,,,,,128,0,3,,,,,2,,,65,0
275584,note_on,,,,,0,0,3,,,,,2,,,65,84
275712,note_on,,,,,0,0,2,,,,,1,,,60,90
275712,note_on,,,,,0,0,4,,,,,3,,,48,78
275712,note_on,,,,,0,0,1,,,,,0,,,60,103
275712,note_off,,,,,768,0,4,,,,,3,,,45,0
275712,note_off,,,,,768,0,1,,,,,0,,,57,0
275712,note_off,,,,,768,0,2,,,,,1,,,57,0
275712,note_off,,,,,128,0,3,,,,,2,,,65,0
275712,note_on,,,,,0,0,3,,,,,2,,,65,84
275840,note_off,,,,,128,0,3,,,,,2,,,65,0
275840,note_on,,,,,0,0,3,,,,,2,,,65,84
275968,note_on,,,,,0,0,3,,,,,2,,,65,84
275968,note_off,,,,,128,0,3,,,,,2,,,65,0
276096,note_off,,,,,128,0,3,,,,,2,,,65,0
276096,note_on,,,,,0,0,3,,,,,2,,,65,84
276096,note_on,,,,,0,0,4,,,,,3,,,51,78
276096,note_on,,,,,0,0,2,,,,,1,,,63,90
276096,note_off,,,,,384,0,2,,,,,1,,,60,0
276096,note_off,,,,,384,0,4,,,,,3,,,48,0
276096,note_on,,,,,0,0,1,,,,,0,,,63,103
276096,note_off,,,,,384,0,1,,,,,0,,,60,0
276224,note_off,,,,,128,0,3,,,,,2,,,65,0
276224,note_on,,,,,0,0,3,,,,,2,,,65,84
276352,note_off,,,,,128,0,3,,,,,2,,,65,0
276352,note_on,,,,,0,0,3,,,,,2,,,65,84
276480,note_on,,,,,0,0,4,,,,,3,,,49,78
276480,note_off,,,,,384,0,1,,,,,0,,,63,0
276480,note_off,,,,,128,0,3,,,,,2,,,65,0
276480,note_off,,,,,384,0,4,,,,,3,,,51,0
276480,note_off,,,,,384,0,2,,,,,1,,,63,0
276480,note_on,,,,,0,0,2,,,,,1,,,61,90
276480,note_on,,,,,0,0,1,,,,,0,,,61,103
276480,note_on,,,,,0,0,3,,,,,2,,,65,84
276608,note_off,,,,,128,0,3,,,,,2,,,65,0
276608,note_on,,,,,0,0,3,,,,,2,,,65,84
276736,note_off,,,,,128,0,3,,,,,2,,,65,0
276736,note_on,,,,,0,0,3,,,,,2,,,65,84
276864,note_on,,,,,0,0,4,,,,,3,,,53,78
276864,note_off,,,,,384,0,4,,,,,3,,,49,0
276864,note_off,,,,,384,0,2,,,,,1,,,61,0
276864,note_on,,,,,0,0,2,,,,,1,,,65,90
276864,note_on,,,,,0,0,1,,,,,0,,,65,103
276864,note_off,,,,,384,0,1,,,,,0,,,61,0
276864,note_on,,,,,0,0,3,,,,,2,,,65,84
276864,note_off,,,,,128,0,3,,,,,2,,,65,0
276992,note_off,,,,,128,0,3,,,,,2,,,65,0
276992,note_on,,,,,0,0,3,,,,,2,,,65,84
277120,note_off,,,,,128,0,3,,,,,2,,,65,0
277120,note_on,,,,,0,0,3,,,,,2,,,65,84
277248,note_off,,,,,384,0,4,,,,,3,,,53,0
277248,note_off,,,,,128,0,3,,,,,2,,,65,0
277248,note_on,,,,,0,0,3,,,,,2,,,65,84
277248,note_off,,,,,384,0,2,,,,,1,,,65,0
277248,note_off,,,,,384,0,1,,,,,0,,,65,0
277376,note_on,,,,,0,0,3,,,,,2,,,65,84
277376,note_off,,,,,128,0,3,,,,,2,,,65,0
277504,note_on,,,,,0,0,3,,,,,2,,,65,84
277504,note_off,,,,,128,0,3,,,,,2,,,65,0
277632,note_on,,,,,0,0,3,,,,,2,,,65,84
277632,note_off,,,,,128,0,3,,,,,2,,,65,0
277632,note_on,,,,,384,0,1,,,,,0,,,70,103
277632,note_on,,,,,384,0,2,,,,,1,,,58,90
277760,note_on,,,,,0,0,3,,,,,2,,,65,84
277760,note_off,,,,,128,0,3,,,,,2,,,65,0
277888,note_off,,,,,128,0,3,,,,,2,,,65,0
277888,note_on,,,,,0,0,3,,,,,2,,,65,84
278016,note_on,,,,,0,0,2,,,,,1,,,57,90
278016,note_off,,,,,384,0,2,,,,,1,,,58,0
278016,note_off,,,,,384,0,1,,,,,0,,,70,0
278016,note_off,,,,,128,0,3,,,,,2,,,65,0
278016,note_on,,,,,0,0,1,,,,,0,,,69,103
278016,note_on,,,,,0,0,3,,,,,2,,,65,84
278144,note_on,,,,,0,0,3,,,,,2,,,65,84
278144,note_off,,,,,128,0,3,,,,,2,,,65,0
278272,note_on,,,,,0,0,3,,,,,2,,,65,84
278272,note_off,,,,,128,0,3,,,,,2,,,65,0
278400,note_on,,,,,0,0,3,,,,,2,,,65,84
278400,note_off,,,,,128,0,3,,,,,2,,,65,0
278528,note_off,,,,,128,0,3,,,,,2,,,65,0
278528,note_on,,,,,0,0,3,,,,,2,,,65,84
278656,note_on,,,,,0,0,3,,,,,2,,,65,84
278656,note_off,,,,,128,0,3,,,,,2,,,65,0
278784,note_on,,,,,0,0,3,,,,,2,,,65,84
278784,note_off,,,,,128,0,3,,,,,2,,,65,0
278784,note_on,,,,,0,0,2,,,,,1,,,60,90
278784,note_off,,,,,768,0,1,,,,,0,,,69,0
278784,note_off,,,,,768,0,2,,,,,1,,,57,0
278784,note_on,,,,,0,0,1,,,,,0,,,72,103
278912,note_off,,,,,128,0,3,,,,,2,,,65,0
278912,note_on,,,,,0,0,3,,,,,2,,,65,84
279040,note_off,,,,,128,0,3,,,,,2,,,65,0
279040,note_on,,,,,0,0,3,,,,,2,,,65,84
279168,note_off,,,,,384,0,1,,,,,0,,,72,0
279168,note_on,,,,,0,0,1,,,,,0,,,75,103
279168,note_off,,,,,384,0,2,,,,,1,,,60,0
279168,note_on,,,,,0,0,2,,,,,1,,,63,90
279168,note_off,,,,,128,0,3,,,,,2,,,65,0
279168,note_on,,,,,0,0,3,,,,,2,,,65,84
279296,note_on,,,,,0,0,3,,,,,2,,,65,84
279296,note_off,,,,,128,0,3,,,,,2,,,65,0
279424,note_on,,,,,0,0,3,,,,,2,,,65,84
279424,note_off,,,,,128,0,3,,,,,2,,,65,0
279552,note_on,,,,,0,0,3,,,,,2,,,65,84
279552,note_off,,,,,128,0,3,,,,,2,,,65,0
279552,note_off,,,,,384,0,1,,,,,0,,,75,0
279552,note_on,,,,,0,0,1,,,,,0,,,73,103
279552,note_off,,,,,384,0,2,,,,,1,,,63,0
279552,note_on,,,,,0,0,2,,,,,1,,,61,90
279680,note_off,,,,,128,0,3,,,,,2,,,65,0
279680,note_on,,,,,0,0,3,,,,,2,,,65,84
279808,note_off,,,,,128,0,3,,,,,2,,,65,0
279808,note_on,,,,,0,0,3,,,,,2,,,65,84
279936,note_off,,,,,384,0,1,,,,,0,,,73,0
279936,note_on,,,,,0,0,1,,,,,0,,,77,103
279936,note_off,,,,,384,0,2,,,,,1,,,61,0
279936,note_on,,,,,0,0,2,,,,,1,,,65,90
279936,note_off,,,,,128,0,3,,,,,2,,,65,0
279936,note_on,,,,,0,0,3,,,,,2,,,65,84
280064,note_off,,,,,128,0,3,,,,,2,,,65,0
280064,note_on,,,,,0,0,3,,,,,2,,,65,84
280192,note_on,,,,,0,0,3,,,,,2,,,65,84
280192,note_off,,,,,128,0,3,,,,,2,,,65,0
280320,note_on,,,,,0,0,2,,,,,1,,,61,90
280320,note_off,,,,,384,0,2,,,,,1,,,65,0
280320,note_on,,,,,0,0,3,,,,,2,,,61,84
280320,note_off,,,,,128,0,3,,,,,2,,,65,0
280320,note_on,,,,,0,0,1,,,,,0,,,73,103
280320,note_off,,,,,384,0,1,,,,,0,,,77,0
280448,note_off,,,,,128,0,3,,,,,2,,,61,0
280448,note_on,,,,,0,0,3,,,,,2,,,61,84
280576,note_on,,,,,0,0,3,,,,,2,,,61,84
280576,note_off,,,,,128,0,3,,,,,2,,,61,0
280704,note_off,,,,,384,0,1,,,,,0,,,73,0
280704,note_on,,,,,0,0,1,,,,,0,,,70,103
280704,note_on,,,,,0,0,2,,,,,1,,,58,90
280704,note_off,,,,,384,0,2,,,,,1,,,61,0
280704,note_off,,,,,128,0,3,,,,,2,,,61,0
280704,note_on,,,,,0,0,3,,,,,2,,,58,84
280832,note_off,,,,,128,0,3,,,,,2,,,58,0
280832,note_on,,,,,0,0,3,,,,,2,,,58,84
280960,note_off,,,,,128,0,3,,,,,2,,,58,0
280960,note_on,,,,,0,0,3,,,,,2,,,58,84
281088,note_on,,,,,3840,0,4,,,,,3,,,45,78
281088,note_on,,,,,0,0,2,,,,,1,,,65,90
281088,note_off,,,,,384,0,2,,,,,1,,,58,0
281088,note_on,,,,,0,0,3,,,,,2,,,57,84
281088,note_off,,,,,128,0,3,,,,,2,,,58,0
281088,note_off,,,,,384,0,1,,,,,0,,,70,0
281088,note_on,,,,,0,0,1,,,,,0,,,65,103
281472,note_off,,,,,384,0,4,,,,,3,,,45,0
281472,note_on,,,,,0,0,4,,,,,3,,,48,78
281472,note_on,,,,,0,0,3,,,,,2,,,60,84
281472,note_off,,,,,384,0,3,,,,,2,,,57,0
281856,note_off,,,,,384,0,4,,,,,3,,,48,0
281856,note_off,,,,,384,0,3,,,,,2,,,60,0
282240,note_on,,,,,384,0,3,,,,,2,,,63,84
282240,note_on,,,,,384,0,4,,,,,3,,,51,78
282624,note_on,,,,,0,0,4,,,,,3,,,49,78
282624,note_off,,,,,384,0,4,,,,,3,,,51,0
282624,note_off,,,,,1536,0,2,,,,,1,,,65,0
282624,note_on,,,,,0,0,3,,,,,2,,,61,84
282624,note_off,,,,,384,0,3,,,,,2,,,63,0
282624,note_on,,,,,0,0,1,,,,,0,,,61,103
282624,note_off,,,,,1536,0,1,,,,,0,,,65,0
282624,note_on,,,,,0,0,2,,,,,1,,,61,90
283008,note_off,,,,,384,0,4,,,,,3,,,49,0
283008,note_on,,,,,0,0,4,,,,,3,,,53,78
283008,note_off,,,,,384,0,3,,,,,2,,,61,0
283008,note_on,,,,,0,0,3,,,,,2,,,65,84
283008,note_off,,,,,384,0,2,,,,,1,,,61,0
283008,note_off,,,,,384,0,1,,,,,0,,,61,0
283008,note_on,,,,,0,0,1,,,,,0,,,65,103
283008,note_on,,,,,0,0,2,,,,,1,,,65,90
283392,note_on,,,,,0,0,2,,,,,1,,,61,90
283392,note_off,,,,,384,0,1,,,,,0,,,65,0
283392,note_on,,,,,0,0,1,,,,,0,,,61,103
283392,note_on,,,,,0,0,3,,,,,2,,,61,84
283392,note_off,,,,,384,0,3,,,,,2,,,65,0
283392,note_off,,,,,384,0,2,,,,,1,,,65,0
283392,note_off,,,,,384,0,4,,,,,3,,,53,0
283392,note_on,,,,,0,0,4,,,,,3,,,49,78
283776,note_off,,,,,384,0,2,,,,,1,,,61,0
283776,note_on,,,,,0,0,4,,,,,3,,,46,78
283776,note_off,,,,,384,0,3,,,,,2,,,61,0
283776,note_on,,,,,0,0,2,,,,,1,,,58,90
283776,note_on,,,,,0,0,1,,,,,0,,,58,103
283776,note_off,,,,,384,0,1,,,,,0,,,61,0
283776,note_off,,,,,384,0,4,,,,,3,,,49,0
283776,note_on,,,,,0,0,3,,,,,2,,,58,84
284160,note_off,,,,,384,0,2,,,,,1,,,58,0
284160,note_on,,,,,0,0,2,,,,,1,,,65,90
284160,note_on,,,,,0,0,4,,,,,3,,,41,78
284160,note_on,,,,,0,0,3,,,,,2,,,53,84
284160,note_off,,,,,384,0,4,,,,,3,,,46,0
284160,note_on,,,,,0,0,1,,,,,0,,,65,103
284160,note_off,,,,,384,0,1,,,,,0,,,58,0
284160,note_off,,,,,384,0,3,,,,,2,,,58,0
284352,note_off,,,,,192,0,3,,,,,2,,,53,0
284352,note_on,,,,,0,0,3,,,,,2,,,53,84
284736,note_on,,,,,0,0,3,,,,,2,,,53,84
284736,note_off,,,,,384,0,3,,,,,2,,,53,0
284928,note_off,,,,,768,0,2,,,,,1,,,65,0
284928,note_off,,,,,768,0,4,,,,,3,,,41,0
284928,note_off,,,,,768,0,1,,,,,0,,,65,0
285120,note_off,,,,,384,0,3,,,,,2,,,53,0
285120,note_on,,,,,0,0,3,,,,,2,,,53,84
285504,note_on,,,,,0,0,3,,,,,2,,,53,84
285504,note_off,,,,,384,0,3,,,,,2,,,53,0
285888,note_on,,,,,0,0,3,,,,,2,,,53,84
285888,note_off,,,,,384,0,3,,,,,2,,,53,53
286272,note_on,,,,,0,0,3,,,,,2,,,53,84
286272,note_off,,,,,384,0,3,,,,,2,,,53,0
286656,note_off,,,,,384,0,3,,,,,2,,,53,0
286656,note_on,,,,,0,0,3,,,,,2,,,53,84
286848,note_on,,,,,1920,0,1,,,,,0,,,65,103
287040,note_on,,,,,0,0,3,,,,,2,,,53,84
287040,note_off,,,,,384,0,3,,,,,2,,,53,0
287232,note_on,,,,,2304,0,4,,,,,3,,,58,78
287232,note_on,,,,,0,0,3,,,,,2,,,58,84
287232,note_on,,,,,0,0,1,,,,,0,,,74,103
287232,note_off,,,,,192,0,3,,,,,2,,,53,0
287232,note_off,,,,,384,0,1,,,,,0,,,65,0
287232,note_on,,,,,2304,0,2,,,,,1,,,65,90
288000,note_off,,,,,768,0,4,,,,,3,,,58,0
288000,note_off,,,,,768,0,3,,,,,2,,,58,0
288000,note_on,,,,,0,0,1,,,,,0,,,77,103
288000,note_on,,,,,0,0,3,,,,,2,,,60,84
288000,note_off,,,,,768,0,1,,,,,0,,,74,0
288000,note_on,,,,,0,0,4,,,,,3,,,57,78
288768,note_off,,,,,768,0,1,,,,,0,,,77,0
288768,note_on,,,,,0,0,1,,,,,0,,,70,103
288768,note_on,,,,,0,0,3,,,,,2,,,62,84
288768,note_off,,,,,768,0,4,,,,,3,,,57,0
288768,note_on,,,,,0,0,4,,,,,3,,,55,78
288768,note_on,,,,,0,0,2,,,,,1,,,62,90
288768,note_off,,,,,1536,0,2,,,,,1,,,65,0
288768,note_off,,,,,768,0,3,,,,,2,,,60,0
289152,note_off,,,,,384,0,4,,,,,3,,,55,0
289152,note_on,,,,,0,0,4,,,,,3,,,55,78
289152,note_on,,,,,0,0,1,,,,,0,,,75,103
289152,note_off,,,,,384,0,1,,,,,0,,,70,0
289152,note_off,,,,,384,0,2,,,,,1,,,62,0
289152,note_on,,,,,0,0,2,,,,,1,,,63,90
289152,note_on,,,,,0,0,3,,,,,2,,,58,84
289152,note_off,,,,,384,0,3,,,,,2,,,62,0
289920,note_off,,,,,768,0,1,,,,,0,,,75,0
289920,note_on,,,,,0,0,2,,,,,1,,,65,90
289920,note_off,,,,,768,0,2,,,,,1,,,63,0
289920,note_on,,,,,0,0,1,,,,,0,,,74,103
289920,note_off,,,,,768,0,4,,,,,3,,,55,0
289920,note_on,,,,,0,0,4,,,,,3,,,53,78
289920,note_on,,,,,0,0,3,,,,,2,,,58,84
289920,note_off,,,,,768,0,3,,,,,2,,,58,0
290304,note_off,,,,,384,0,1,,,,,0,,,74,0
290304,note_on,,,,,0,0,1,,,,,0,,,74,103
290304,note_on,,,,,0,0,3,,,,,2,,,57,84
290304,note_off,,,,,384,0,3,,,,,2,,,58,0
290304,note_off,,,,,384,0,4,,,,,3,,,53,0
290304,note_off,,,,,384,0,2,,,,,1,,,65,0
290304,note_on,,,,,0,0,4,,,,,3,,,51,78
290304,note_on,,,,,0,0,2,,,,,1,,,65,90
290496,note_off,,,,,192,0,1,,,,,0,,,74,0
290496,note_on,,,,,0,0,1,,,,,0,,,72,103
290688,note_off,,,,,192,0,1,,,,,0,,,72,0
290688,note_on,,,,,0,0,1,,,,,0,,,75,103
290880,note_on,,,,,0,0,1,,,,,0,,,72,103
290880,note_off,,,,,192,0,1,,,,,0,,,75,0
291072,note_on,,,,,0,0,4,,,,,3,,,50,78
291072,note_off,,,,,192,0,1,,,,,0,,,72,0
291072,note_on,,,,,0,0,1,,,,,0,,,70,103
291072,note_off,,,,,768,0,3,,,,,2,,,57,0
291072,note_on,,,,,0,0,3,,,,,2,,,58,84
291072,note_off,,,,,768,0,4,,,,,3,,,51,0
291264,note_on,,,,,0,0,1,,,,,0,,,74,103
291264,note_off,,,,,192,0,1,,,,,0,,,70,0
291456,note_off,,,,,384,0,3,,,,,2,,,58,0
291456,note_on,,,,,0,0,3,,,,,2,,,62,84
291456,note_off,,,,,192,0,1,,,,,0,,,74,0
291456,note_on,,,,,0,0,2,,,,,1,,,67,90
291456,note_on,,,,,0,0,1,,,,,0,,,79,103
291456,note_off,,,,,1152,0,2,,,,,1,,,65,0
291456,note_on,,,,,0,0,4,,,,,3,,,58,78
291456,note_off,,,,,384,0,4,,,,,3,,,50,0
291648,note_off,,,,,192,0,1,,,,,0,,,79,0
291648,note_on,,,,,0,0,1,,,,,0,,,77,103
291648,note_off,,,,,192,0,2,,,,,1,,,67,0
291648,note_on,,,,,0,0,2,,,,,1,,,65,90
291840,note_off,,,,,384,0,3,,,,,2,,,62,0
291840,note_off,,,,,384,0,4,,,,,3,,,58,0
291840,note_on,,,,,0,0,4,,,,,3,,,57,78
291840,note_on,,,,,0,0,3,,,,,2,,,60,84
291840,note_on,,,,,0,0,1,,,,,0,,,77,103
291840,note_off,,,,,192,0,1,,,,,0,,,77,0
291840,note_off,,,,,192,0,2,,,,,1,,,65,0
291840,note_on,,,,,0,0,2,,,,,1,,,65,90
292224,note_off,,,,,384,0,4,,,,,3,,,57,0
292224,note_on,,,,,0,0,4,,,,,3,,,53,78
292416,note_on,,,,,0,0,1,,,,,0,,,75,103
292416,note_off,,,,,576,0,1,,,,,0,,,77,0
292608,note_on,,,,,0,0,3,,,,,2,,,62,84
292608,note_off,,,,,768,0,3,,,,,2,,,60,0
292608,note_on,,,,,0,0,1,,,,,0,,,74,103
292608,note_off,,,,,192,0,1,,,,,0,,,75,0
292608,note_off,,,,,384,0,4,,,,,3,,,53,0
292608,note_on,,,,,0,0,4,,,,,3,,,58,78
292992,note_off,,,,,384,0,3,,,,,2,,,62,0
292992,note_off,,,,,384,0,1,,,,,0,,,74,0
292992,note_on,,,,,0,0,1,,,,,0,,,65,103
292992,note_off,,,,,1152,0,2,,,,,1,,,65,0
292992,note_off,,,,,384,0,4,,,,,3,,,58,0
293376,note_on,,,,,384,0,4,,,,,3,,,58,78
293376,note_on,,,,,0,0,1,,,,,0,,,74,103
293376,note_off,,,,,384,0,1,,,,,0,,,65,0
293760,note_on,,,,,768,0,3,,,,,2,,,62,84
293760,note_on,,,,,768,0,2,,,,,1,,,65,90
293760,note_off,,,,,384,0,1,,,,,0,,,74,0
293760,note_off,,,,,384,0,4,,,,,3,,,58,0
293952,note_off,,,,,192,0,3,,,,,2,,,62,0
293952,note_off,,,,,192,0,2,,,,,1,,,65,0
294144,note_on,,,,,384,0,4,,,,,3,,,57,78
294144,note_on,,,,,384,0,1,,,,,0,,,77,103
294528,note_off,,,,,384,0,1,,,,,0,,,77,0
294528,note_on,,,,,576,0,3,,,,,2,,,60,84
294528,note_on,,,,,576,0,2,,,,,1,,,65,90
294528,note_off,,,,,384,0,4,,,,,3,,,57,0
294720,note_off,,,,,192,0,3,,,,,2,,,60,0
294720,note_off,,,,,192,0,2,,,,,1,,,65,0
294912,note_on,,,,,384,0,1,,,,,0,,,70,103
294912,note_on,,,,,384,0,4,,,,,3,,,55,78
295104,note_off,,,,,192,0,4,,,,,3,,,55,0
295296,note_on,,,,,192,0,4,,,,,3,,,55,78
295296,note_on,,,,,576,0,3,,,,,2,,,58,84
295296,note_on,,,,,576,0,2,,,,,1,,,63,90
295296,note_on,,,,,0,0,1,,,,,0,,,75,103
295296,note_off,,,,,384,0,1,,,,,0,,,70,0
296064,note_off,,,,,768,0,4,,,,,3,,,55,0
296064,note_on,,,,,0,0,1,,,,,0,,,74,103
296064,note_on,,,,,0,0,3,,,,,2,,,58,84
296064,note_off,,,,,768,0,3,,,,,2,,,58,0
296064,note_on,,,,,0,0,4,,,,,3,,,53,78
296064,note_off,,,,,768,0,2,,,,,1,,,63,0
296064,note_on,,,,,0,0,2,,,,,1,,,65,90
296064,note_off,,,,,768,0,1,,,,,0,,,75,0
296448,note_off,,,,,384,0,1,,,,,0,,,74,0
296448,note_off,,,,,384,0,4,,,,,3,,,53,0
296448,note_off,,,,,384,0,2,,,,,1,,,65,0
296448,note_on,,,,,0,0,4,,,,,3,,,51,78
296448,note_off,,,,,384,0,3,,,,,2,,,58,0
296448,note_on,,,,,0,0,3,,,,,2,,,57,84
296448,note_on,,,,,0,0,2,,,,,1,,,66,90
296448,note_on,,,,,0,0,1,,,,,0,,,74,103
296640,note_off,,,,,192,0,1,,,,,0,,,74,0
296640,note_on,,,,,0,0,1,,,,,0,,,72,103
296832,note_on,,,,,0,0,2,,,,,1,,,65,90
296832,note_on,,,,,0,0,1,,,,,0,,,75,103
296832,note_off,,,,,384,0,2,,,,,1,,,66,0
296832,note_off,,,,,192,0,1,,,,,0,,,72,0
297024,note_on,,,,,0,0,1,,,,,0,,,72,103
297024,note_off,,,,,192,0,1,,,,,0,,,75,0
297216,note_off,,,,,768,0,3,,,,,2,,,57,0
297216,note_on,,,,,0,0,2,,,,,1,,,65,90
297216,note_off,,,,,768,0,4,,,,,3,,,51,0
297216,note_on,,,,,0,0,3,,,,,2,,,58,84
297216,note_on,,,,,0,0,4,,,,,3,,,50,78
297216,note_off,,,,,384,0,2,,,,,1,,,65,0
297216,note_off,,,,,192,0,1,,,,,0,,,72,0
297216,note_on,,,,,0,0,1,,,,,0,,,70,103
297408,note_off,,,,,192,0,1,,,,,0,,,70,0
297408,note_on,,,,,0,0,1,,,,,0,,,74,103
297600,note_off,,,,,192,0,1,,,,,0,,,74,0
297600,note_on,,,,,0,0,1,,,,,0,,,79,103
297600,note_off,,,,,384,0,2,,,,,1,,,65,0
297600,note_on,,,,,0,0,3,,,,,2,,,62,84
297600,note_on,,,,,0,0,2,,,,,1,,,67,90
297600,note_off,,,,,384,0,3,,,,,2,,,58,0
297600,note_off,,,,,384,0,4,,,,,3,,,50,0
297600,note_on,,,,,0,0,4,,,,,3,,,58,78
297792,note_on,,,,,0,0,2,,,,,1,,,65,90
297792,note_off,,,,,192,0,2,,,,,1,,,67,0
297792,note_on,,,,,0,0,1,,,,,0,,,77,103
297792,note_off,,,,,192,0,1,,,,,0,,,79,0
297984,note_on,,,,,0,0,1,,,,,0,,,77,103
297984,note_on,,,,,0,0,2,,,,,1,,,72,90
297984,note_off,,,,,192,0,2,,,,,1,,,65,0
297984,note_off,,,,,384,0,3,,,,,2,,,62,0
297984,note_on,,,,,0,0,3,,,,,2,,,65,84
297984,note_off,,,,,192,0,1,,,,,0,,,77,0
297984,note_off,,,,,384,0,4,,,,,3,,,58,0
297984,note_on,,,,,0,0,4,,,,,3,,,57,78
298368,note_off,,,,,384,0,1,,,,,0,,,77,0
298496,note_on,,,,,128,0,1,,,,,0,,,79,103
298624,note_off,,,,,128,0,1,,,,,0,,,79,0
298624,note_on,,,,,0,0,1,,,,,0,,,75,103
298752,note_on,,,,,0,0,2,,,,,1,,,70,90
298752,note_off,,,,,128,0,1,,,,,0,,,75,0
298752,note_on,,,,,0,0,1,,,,,0,,,74,103
298752,note_off,,,,,768,0,4,,,,,3,,,57,0
298752,note_on,,,,,0,0,4,,,,,3,,,58,78
298752,note_off,,,,,768,0,2,,,,,1,,,72,0
298944,note_off,,,,,192,0,1,,,,,0,,,74,0
298944,note_off,,,,,960,0,3,,,,,2,,,65,0
298944,note_off,,,,,192,0,4,,,,,3,,,58,0
298944,note_off,,,,,192,0,2,,,,,1,,,70,0
299136,note_on,,,,,192,0,3,,,,,2,,,65,84
299136,note_on,,,,,192,0,1,,,,,0,,,71,103
299136,note_on,,,,,192,0,4,,,,,3,,,62,78
299136,note_on,,,,,192,0,2,,,,,1,,,68,90
299520,note_on,,,,,0,0,4,,,,,3,,,63,78
299520,note_off,,,,,384,0,2,,,,,1,,,68,0
299520,note_off,,,,,384,0,3,,,,,2,,,65,0
299520,note_on,,,,,0,0,3,,,,,2,,,63,84
299520,note_off,,,,,384,0,4,,,,,3,,,62,0
299520,note_on,,,,,0,0,2,,,,,1,,,67,90
299520,note_off,,,,,384,0,1,,,,,0,,,71,0
299520,note_on,,,,,0,0,1,,,,,0,,,72,103
299904,note_off,,,,,384,0,2,,,,,1,,,67,0
299904,note_off,,,,,384,0,3,,,,,2,,,63,0
299904,note_off,,,,,384,0,4,,,,,3,,,63,0
299904,note_off,,,,,384,0,1,,,,,0,,,72,0
300096,note_on,,,,,192,0,1,,,,,0,,,67,103
300288,note_on,,,,,0,0,1,,,,,0,,,66,103
300288,note_off,,,,,192,0,1,,,,,0,,,67,0
300480,note_off,,,,,192,0,1,,,,,0,,,66,0
300480,note_on,,,,,0,0,1,,,,,0,,,67,103
300672,note_off,,,,,192,0,1,,,,,0,,,67,0
300672,note_on,,,,,0,0,1,,,,,0,,,72,103
300864,note_off,,,,,192,0,1,,,,,0,,,72,0
300864,note_on,,,,,0,0,1,,,,,0,,,71,103
301056,note_off,,,,,192,0,1,,,,,0,,,71,0
301056,note_on,,,,,0,0,1,,,,,0,,,74,103
301248,note_off,,,,,192,0,1,,,,,0,,,74,0
301248,note_on,,,,,0,0,1,,,,,0,,,72,103
301440,note_off,,,,,192,0,1,,,,,0,,,72,0
301440,note_on,,,,,1536,0,4,,,,,3,,,51,78
301440,note_on,,,,,1536,0,2,,,,,1,,,60,90
301440,note_on,,,,,1536,0,3,,,,,2,,,55,84
301632,note_off,,,,,192,0,3,,,,,2,,,55,0
301632,note_off,,,,,192,0,2,,,,,1,,,60,0
301632,note_off,,,,,192,0,4,,,,,3,,,51,0
302208,note_on,,,,,576,0,4,,,,,3,,,62,78
302208,note_on,,,,,576,0,3,,,,,2,,,65,84
302208,note_on,,,,,768,0,1,,,,,0,,,71,103
302208,note_on,,,,,576,0,2,,,,,1,,,68,90
302496,note_on,,,,,0,0,1,,,,,0,,,74,103
302496,note_off,,,,,288,0,1,,,,,0,,,71,0
302592,note_off,,,,,384,0,2,,,,,1,,,68,0
302592,note_on,,,,,0,0,2,,,,,1,,,67,90
302592,note_on,,,,,0,0,3,,,,,2,,,63,84
302592,note_off,,,,,384,0,4,,,,,3,,,62,0
302592,note_on,,,,,0,0,1,,,,,0,,,72,103
302592,note_off,,,,,96,0,1,,,,,0,,,74,0
302592,note_on,,,,,0,0,4,,,,,3,,,63,78
302592,note_off,,,,,384,0,3,,,,,2,,,65,0
302976,note_off,,,,,384,0,2,,,,,1,,,67,0
302976,note_off,,,,,384,0,4,,,,,3,,,63,0
302976,note_off,,,,,384,0,1,,,,,0,,,72,0
302976,note_off,,,,,384,0,3,,,,,2,,,63,0
303168,note_on,,,,,192,0,1,,,,,0,,,67,103
303168,note_on,,,,,192,0,2,,,,,1,,,55,90
303360,note_off,,,,,192,0,2,,,,,1,,,55,0
303360,note_on,,,,,0,0,2,,,,,1,,,60,90
303360,note_off,,,,,192,0,1,,,,,0,,,67,0
303360,note_on,,,,,0,0,1,,,,,0,,,72,103
303552,note_off,,,,,192,0,2,,,,,1,,,60,0
303552,note_on,,,,,0,0,2,,,,,1,,,59,90
303552,note_off,,,,,192,0,1,,,,,0,,,72,0
303552,note_on,,,,,0,0,1,,,,,0,,,71,103
303744,note_off,,,,,192,0,2,,,,,1,,,59,0
303744,note_on,,,,,0,0,2,,,,,1,,,62,90
303744,note_on,,,,,0,0,1,,,,,0,,,74,103
303744,note_off,,,,,192,0,1,,,,,0,,,71,0
303936,note_on,,,,,0,0,2,,,,,1,,,60,90
303936,note_off,,,,,192,0,2,,,,,1,,,62,0
303936,note_on,,,,,0,0,1,,,,,0,,,72,103
303936,note_off,,,,,192,0,1,,,,,0,,,74,0
304128,note_on,,,,,0,0,1,,,,,0,,,77,103
304128,note_off,,,,,192,0,2,,,,,1,,,60,0
304128,note_on,,,,,0,0,2,,,,,1,,,65,90
304128,note_off,,,,,192,0,1,,,,,0,,,72,0
304320,note_off,,,,,192,0,1,,,,,0,,,77,0
304320,note_on,,,,,0,0,1,,,,,0,,,75,103
304320,note_off,,,,,192,0,2,,,,,1,,,65,0
304320,note_on,,,,,0,0,2,,,,,1,,,63,90
304512,note_off,,,,,192,0,1,,,,,0,,,75,0
304512,note_on,,,,,1536,0,4,,,,,3,,,51,78
304512,note_off,,,,,192,0,2,,,,,1,,,63,0
304512,note_on,,,,,0,0,2,,,,,1,,,62,90
304512,note_on,,,,,1536,0,3,,,,,2,,,55,84
304704,note_off,,,,,192,0,3,,,,,2,,,55,0
304704,note_off,,,,,192,0,2,,,,,1,,,62,0
304704,note_off,,,,,192,0,4,,,,,3,,,51,0
305280,note_on,,,,,576,0,2,,,,,1,,,68,90
305280,note_on,,,,,576,0,4,,,,,3,,,62,78
305280,note_on,,,,,576,0,3,,,,,2,,,65,84
305280,note_on,,,,,768,0,1,,,,,0,,,71,103
305408,note_off,,,,,128,0,1,,,,,0,,,71,0
305408,note_on,,,,,0,0,1,,,,,0,,,72,103
305536,note_on,,,,,0,0,1,,,,,0,,,74,103
305536,note_off,,,,,128,0,1,,,,,0,,,72,0
305664,note_on,,,,,0,0,1,,,,,0,,,72,103
305664,note_off,,,,,128,0,1,,,,,0,,,74,0
305664,note_off,,,,,384,0,3,,,,,2,,,65,0
305664,note_on,,,,,0,0,3,,,,,2,,,63,84
305664,note_on,,,,,0,0,4,,,,,3,,,63,78
305664,note_off,,,,,384,0,4,,,,,3,,,62,0
305664,note_off,,,,,384,0,2,,,,,1,,,68,0
305664,note_on,,,,,0,0,2,,,,,1,,,67,90
306048,note_off,,,,,384,0,4,,,,,3,,,63,0
306048,note_off,,,,,384,0,3,,,,,2,,,63,0
306048,note_off,,,,,384,0,2,,,,,1,,,67,0
306048,note_off,,,,,384,0,1,,,,,0,,,72,0
306240,note_on,,,,,192,0,1,,,,,0,,,67,103
306432,note_off,,,,,192,0,1,,,,,0,,,67,0
306432,note_on,,,,,0,0,1,,,,,0,,,66,103
306624,note_on,,,,,0,0,1,,,,,0,,,67,103
306624,note_off,,,,,192,0,1,,,,,0,,,66,0
306816,note_on,,,,,0,0,1,,,,,0,,,68,103
306816,note_off,,,,,192,0,1,,,,,0,,,67,0
307008,note_on,,,,,0,0,1,,,,,0,,,67,103
307008,note_off,,,,,192,0,1,,,,,0,,,68,0
307008,note_on,,,,,960,0,2,,,,,1,,,55,90
307200,note_off,,,,,192,0,2,,,,,1,,,55,0
307200,note_on,,,,,0,0,2,,,,,1,,,60,90
307200,note_on,,,,,0,0,1,,,,,0,,,72,103
307200,note_off,,,,,192,0,1,,,,,0,,,67,0
307392,note_on,,,,,0,0,2,,,,,1,,,59,90
307392,note_off,,,,,192,0,2,,,,,1,,,60,0
307392,note_off,,,,,192,0,1,,,,,0,,,72,0
307392,note_on,,,,,0,0,1,,,,,0,,,71,103
307584,note_on,,,,,0,0,2,,,,,1,,,62,90
307584,note_off,,,,,192,0,1,,,,,0,,,71,0
307584,note_on,,,,,0,0,1,,,,,0,,,74,103
307584,note_off,,,,,192,0,2,,,,,1,,,59,0
307776,note_off,,,,,192,0,2,,,,,1,,,62,0
307776,note_on,,,,,1728,0,3,,,,,2,,,60,84
307776,note_off,,,,,192,0,1,,,,,0,,,74,0
307776,note_on,,,,,0,0,1,,,,,0,,,72,103
307776,note_on,,,,,0,0,2,,,,,1,,,60,90
307968,note_off,,,,,192,0,1,,,,,0,,,72,0
307968,note_on,,,,,0,0,1,,,,,0,,,77,103
307968,note_off,,,,,192,0,2,,,,,1,,,60,0
307968,note_off,,,,,192,0,3,,,,,2,,,60,0
307968,note_on,,,,,0,0,3,,,,,2,,,65,84
307968,note_on,,,,,0,0,2,,,,,1,,,65,90
308160,note_off,,,,,192,0,3,,,,,2,,,65,0
308160,note_on,,,,,0,0,3,,,,,2,,,63,84
308160,note_on,,,,,0,0,2,,,,,1,,,63,90
308160,note_off,,,,,192,0,2,,,,,1,,,65,0
308160,note_off,,,,,192,0,1,,,,,0,,,77,0
308160,note_on,,,,,0,0,1,,,,,0,,,75,103
308352,note_off,,,,,192,0,2,,,,,1,,,63,0
308352,note_on,,,,,0,0,2,,,,,1,,,69,90
308352,note_on,,,,,0,0,3,,,,,2,,,69,84
308352,note_off,,,,,192,0,1,,,,,0,,,75,0
308352,note_on,,,,,2304,0,4,,,,,3,,,51,78
308352,note_on,,,,,0,0,1,,,,,0,,,81,103
308352,note_off,,,,,192,0,3,,,,,2,,,63,0
308544,note_on,,,,,0,0,2,,,,,1,,,67,90
308544,note_on,,,,,0,0,1,,,,,0,,,79,103
308544,note_off,,,,,192,0,2,,,,,1,,,69,0
308544,note_off,,,,,192,0,1,,,,,0,,,81,0
308544,note_on,,,,,0,0,3,,,,,2,,,67,84
308544,note_off,,,,,192,0,3,,,,,2,,,69,0
308736,note_on,,,,,0,0,3,,,,,2,,,62,84
308736,note_off,,,,,192,0,1,,,,,0,,,79,0
308736,note_off,,,,,192,0,2,,,,,1,,,67,0
308736,note_on,,,,,0,0,2,,,,,1,,,65,90
308736,note_on,,,,,0,0,4,,,,,3,,,53,78
308736,note_off,,,,,384,0,4,,,,,3,,,51,0
308736,note_off,,,,,192,0,3,,,,,2,,,67,0
308736,note_on,,,,,0,0,1,,,,,0,,,70,103
309408,note_on,,,,,0,0,1,,,,,0,,,74,103
309408,note_off,,,,,672,0,1,,,,,0,,,70,0
309504,note_off,,,,,768,0,2,,,,,1,,,65,0
309504,note_on,,,,,0,0,1,,,,,0,,,72,103
309504,note_on,,,,,0,0,3,,,,,2,,,63,84
309504,note_off,,,,,768,0,3,,,,,2,,,62,0
309504,note_on,,,,,0,0,2,,,,,1,,,69,90
309504,note_off,,,,,96,0,1,,,,,0,,,74,0
309696,note_on,,,,,0,0,1,,,,,0,,,71,103
309696,note_off,,,,,192,0,1,,,,,0,,,72,0
309888,note_off,,,,,192,0,1,,,,,0,,,71,0
309888,note_on,,,,,0,0,1,,,,,0,,,72,103
310080,note_off,,,,,192,0,1,,,,,0,,,72,0
310080,note_on,,,,,0,0,1,,,,,0,,,77,103
310272,note_off,,,,,768,0,2,,,,,1,,,69,0
310272,note_off,,,,,768,0,3,,,,,2,,,63,0
310272,note_on,,,,,0,0,2,,,,,1,,,70,90
310272,note_on,,,,,0,0,3,,,,,2,,,62,84
310272,note_off,,,,,1536,0,4,,,,,3,,,53,0
310272,note_off,,,,,192,0,1,,,,,0,,,77,0
310272,note_on,,,,,0,0,1,,,,,0,,,70,103
310272,note_on,,,,,0,0,4,,,,,3,,,46,78
310560,note_on,,,,,0,0,2,,,,,1,,,65,90
310560,note_off,,,,,288,0,2,,,,,1,,,70,0
310560,note_off,,,,,288,0,4,,,,,3,,,46,0
310560,note_on,,,,,0,0,3,,,,,2,,,62,84
310560,note_off,,,,,288,0,3,,,,,2,,,62,0
310560,note_on,,,,,0,0,4,,,,,3,,,58,78
310656,note_off,,,,,96,0,2,,,,,1,,,65,0
310656,note_off,,,,,96,0,3,,,,,2,,,62,0
310656,note_off,,,,,384,0,1,,,,,0,,,70,0
310656,note_on,,,,,0,0,4,,,,,3,,,58,78
310656,note_off,,,,,96,0,4,,,,,3,,,58,0
310656,note_on,,,,,0,0,2,,,,,1,,,65,90
310656,note_on,,,,,0,0,3,,,,,2,,,62,84
310944,note_on,,,,,0,0,3,,,,,2,,,62,84
310944,note_off,,,,,288,0,3,,,,,2,,,62,0
310944,note_off,,,,,288,0,4,,,,,3,,,58,0
310944,note_on,,,,,0,0,4,,,,,3,,,58,78
310944,note_on,,,,,0,0,2,,,,,1,,,65,90
310944,note_off,,,,,288,0,2,,,,,1,,,65,0
311040,note_on,,,,,0,0,2,,,,,1,,,65,90
311040,note_off,,,,,96,0,2,,,,,1,,,65,0
311040,note_on,,,,,0,0,4,,,,,3,,,58,78
311040,note_off,,,,,96,0,3,,,,,2,,,62,0
311040,note_off,,,,,96,0,4,,,,,3,,,58,0
311040,note_on,,,,,0,0,3,,,,,2,,,62,84
311328,note_on,,,,,0,0,2,,,,,1,,,65,90
311328,note_off,,,,,288,0,3,,,,,2,,,62,0
311328,note_on,,,,,0,0,3,,,,,2,,,62,84
311328,note_off,,,,,288,0,4,,,,,3,,,58,0
311328,note_on,,,,,0,0,4,,,,,3,,,58,78
311328,note_off,,,,,288,0,2,,,,,1,,,65,0
311424,note_off,,,,,96,0,3,,,,,2,,,62,0
311424,note_on,,,,,0,0,3,,,,,2,,,62,84
311424,note_off,,,,,96,0,2,,,,,1,,,65,0
311424,note_on,,,,,0,0,2,,,,,1,,,65,90
311424,note_on,,,,,0,0,4,,,,,3,,,58,78
311424,note_off,,,,,96,0,4,,,,,3,,,58,0
311424,note_on,,,,,768,0,1,,,,,0,,,82,103
311712,note_off,,,,,288,0,3,,,,,2,,,62,0
311712,note_on,,,,,0,0,3,,,,,2,,,62,84
311712,note_off,,,,,288,0,4,,,,,3,,,58,0
311712,note_on,,,,,0,0,4,,,,,3,,,58,78
311712,note_on,,,,,0,0,2,,,,,1,,,65,90
311712,note_off,,,,,288,0,2,,,,,1,,,65,0
311808,note_off,,,,,96,0,3,,,,,2,,,62,0
311808,note_off,,,,,384,0,1,,,,,0,,,82,0
311808,note_on,,,,,0,0,2,,,,,1,,,66,90
311808,note_off,,,,,96,0,2,,,,,1,,,65,0
311808,note_on,,,,,0,0,4,,,,,3,,,58,78
311808,note_off,,,,,96,0,4,,,,,3,,,58,0
311808,note_on,,,,,0,0,3,,,,,2,,,63,84
311808,note_on,,,,,0,0,1,,,,,0,,,81,103
312096,note_off,,,,,288,0,3,,,,,2,,,63,0
312096,note_on,,,,,0,0,3,,,,,2,,,63,84
312096,note_off,,,,,288,0,4,,,,,3,,,58,0
312096,note_on,,,,,0,0,4,,,,,3,,,58,78
312096,note_on,,,,,0,0,2,,,,,1,,,66,90
312096,note_off,,,,,288,0,2,,,,,1,,,66,0
312192,note_off,,,,,96,0,4,,,,,3,,,58,0
312192,note_on,,,,,0,0,4,,,,,3,,,58,78
312192,note_on,,,,,0,0,2,,,,,1,,,66,90
312192,note_off,,,,,96,0,2,,,,,1,,,66,0
312192,note_off,,,,,96,0,3,,,,,2,,,63,0
312192,note_on,,,,,0,0,3,,,,,2,,,63,84
312480,note_off,,,,,288,0,3,,,,,2,,,63,0
312480,note_on,,,,,0,0,3,,,,,2,,,63,84
312480,note_off,,,,,288,0,2,,,,,1,,,66,0
312480,note_on,,,,,0,0,2,,,,,1,,,66,90
312480,note_on,,,,,0,0,4,,,,,3,,,58,78
312480,note_off,,,,,288,0,4,,,,,3,,,58,0
312576,note_on,,,,,0,0,3,,,,,2,,,63,84
312576,note_off,,,,,96,0,3,,,,,2,,,63,0
312576,note_off,,,,,768,0,1,,,,,0,,,81,0
312576,note_on,,,,,0,0,1,,,,,0,,,84,103
312576,note_on,,,,,0,0,4,,,,,3,,,58,78
312576,note_off,,,,,96,0,4,,,,,3,,,58,0
312576,note_off,,,,,96,0,2,,,,,1,,,66,0
312576,note_on,,,,,0,0,2,,,,,1,,,66,90
312864,note_on,,,,,0,0,4,,,,,3,,,58,78
312864,note_off,,,,,288,0,4,,,,,3,,,58,0
312864,note_off,,,,,288,0,3,,,,,2,,,63,0
312864,note_on,,,,,0,0,3,,,,,2,,,63,84
312864,note_off,,,,,288,0,2,,,,,1,,,66,0
312864,note_on,,,,,0,0,2,,,,,1,,,66,90
312960,note_off,,,,,96,0,2,,,,,1,,,66,0
312960,note_on,,,,,0,0,2,,,,,1,,,66,90
312960,note_on,,,,,0,0,1,,,,,0,,,81,103
312960,note_off,,,,,384,0,1,,,,,0,,,84,0
312960,note_off,,,,,96,0,4,,,,,3,,,58,0
312960,note_off,,,,,96,0,3,,,,,2,,,63,0
312960,note_on,,,,,0,0,3,,,,,2,,,63,84
312960,note_on,,,,,0,0,4,,,,,3,,,58,78
313248,note_on,,,,,0,0,4,,,,,3,,,58,78
313248,note_off,,,,,288,0,3,,,,,2,,,63,0
313248,note_on,,,,,0,0,3,,,,,2,,,63,84
313248,note_off,,,,,288,0,4,,,,,3,,,58,0
313248,note_on,,,,,0,0,2,,,,,1,,,66,90
313248,note_off,,,,,288,0,2,,,,,1,,,66,0
313344,note_off,,,,,96,0,3,,,,,2,,,63,0
313344,note_off,,,,,96,0,2,,,,,1,,,66,0
313344,note_on,,,,,0,0,1,,,,,0,,,82,103
313344,note_off,,,,,384,0,1,,,,,0,,,81,0
313344,note_on,,,,,0,0,3,,,,,2,,,62,84
313344,note_on,,,,,0,0,2,,,,,1,,,65,90
313344,note_on,,,,,0,0,4,,,,,3,,,58,78
313344,note_off,,,,,96,0,4,,,,,3,,,58,0
313632,note_off,,,,,288,0,2,,,,,1,,,65,0
313632,note_on,,,,,0,0,4,,,,,3,,,58,78
313632,note_off,,,,,288,0,4,,,,,3,,,58,0
313632,note_off,,,,,288,0,3,,,,,2,,,62,0
313632,note_on,,,,,0,0,2,,,,,1,,,65,90
313632,note_on,,,,,0,0,3,,,,,2,,,62,84
313728,note_off,,,,,96,0,2,,,,,1,,,65,0
313728,note_on,,,,,0,0,2,,,,,1,,,65,90
313728,note_off,,,,,384,0,1,,,,,0,,,82,0
313728,note_on,,,,,0,0,1,,,,,0,,,86,103
313728,note_on,,,,,0,0,4,,,,,3,,,58,78
313728,note_off,,,,,96,0,4,,,,,3,,,58,0
313728,note_on,,,,,0,0,3,,,,,2,,,62,84
313728,note_off,,,,,96,0,3,,,,,2,,,62,0
314016,note_off,,,,,288,0,4,,,,,3,,,58,0
314016,note_on,,,,,0,0,4,,,,,3,,,58,78
314016,note_on,,,,,0,0,2,,,,,1,,,65,90
314016,note_on,,,,,0,0,3,,,,,2,,,62,84
314016,note_off,,,,,288,0,2,,,,,1,,,65,0
314016,note_off,,,,,288,0,3,,,,,2,,,62,0
314112,note_on,,,,,0,0,4,,,,,3,,,58,78
314112,note_on,,,,,0,0,2,,,,,1,,,65,90
314112,note_off,,,,,96,0,2,,,,,1,,,65,0
314112,note_on,,,,,0,0,3,,,,,2,,,62,84
314112,note_off,,,,,384,0,1,,,,,0,,,86,0
314112,note_off,,,,,96,0,3,,,,,2,,,62,0
314112,note_off,,,,,96,0,4,,,,,3,,,58,0
314400,note_off,,,,,288,0,3,,,,,2,,,62,0
314400,note_on,,,,,0,0,2,,,,,1,,,65,90
314400,note_off,,,,,288,0,2,,,,,1,,,65,0
314400,note_on,,,,,0,0,3,,,,,2,,,62,84
314400,note_on,,,,,0,0,4,,,,,3,,,58,78
314400,note_off,,,,,288,0,4,,,,,3,,,58,0
314496,note_on,,,,,384,0,1,,,,,0,,,82,103
314496,note_on,,,,,0,0,4,,,,,3,,,58,78
314496,note_off,,,,,96,0,4,,,,,3,,,58,0
314496,note_off,,,,,96,0,2,,,,,1,,,65,0
314496,note_on,,,,,0,0,2,,,,,1,,,65,90
314496,note_off,,,,,96,0,3,,,,,2,,,62,0
314496,note_on,,,,,0,0,3,,,,,2,,,62,84
314784,note_off,,,,,288,0,4,,,,,3,,,58,0
314784,note_on,,,,,0,0,3,,,,,2,,,62,84
314784,note_off,,,,,288,0,3,,,,,2,,,62,0
314784,note_on,,,,,0,0,2,,,,,1,,,65,90
314784,note_off,,,,,288,0,2,,,,,1,,,65,0
314784,note_on,,,,,0,0,4,,,,,3,,,58,78
314880,note_on,,,,,0,0,2,,,,,1,,,66,90
314880,note_on,,,,,0,0,3,,,,,2,,,63,84
314880,note_off,,,,,96,0,4,,,,,3,,,58,0
314880,note_on,,,,,0,0,4,,,,,3,,,58,78
314880,note_on,,,,,0,0,1,,,,,0,,,87,103
314880,note_off,,,,,384,0,1,,,,,0,,,82,0
314880,note_off,,,,,96,0,3,,,,,2,,,62,0
314880,note_off,,,,,96,0,2,,,,,1,,,65,0
315168,note_on,,,,,0,0,3,,,,,2,,,63,84
315168,note_off,,,,,288,0,4,,,,,3,,,58,0
315168,note_on,,,,,0,0,4,,,,,3,,,58,78
315168,note_off,,,,,288,0,3,,,,,2,,,63,0
315168,note_on,,,,,0,0,2,,,,,1,,,66,90
315168,note_off,,,,,288,0,2,,,,,1,,,66,0
315264,note_on,,,,,0,0,4,,,,,3,,,58,78
315264,note_off,,,,,96,0,4,,,,,3,,,58,0
315264,note_on,,,,,0,0,2,,,,,1,,,66,90
315264,note_off,,,,,96,0,2,,,,,1,,,66,0
315264,note_off,,,,,96,0,3,,,,,2,,,63,0
315264,note_on,,,,,0,0,3,,,,,2,,,63,84
315552,note_off,,,,,288,0,4,,,,,3,,,58,0
315552,note_on,,,,,0,0,2,,,,,1,,,66,90
315552,note_off,,,,,288,0,2,,,,,1,,,66,0
315552,note_off,,,,,288,0,3,,,,,2,,,63,0
315552,note_on,,,,,0,0,3,,,,,2,,,63,84
315552,note_on,,,,,0,0,4,,,,,3,,,58,78
315648,note_on,,,,,0,0,2,,,,,1,,,66,90
315648,note_off,,,,,96,0,2,,,,,1,,,66,0
315648,note_on,,,,,0,0,4,,,,,3,,,58,78
315648,note_off,,,,,96,0,4,,,,,3,,,58,0
315648,note_on,,,,,0,0,3,,,,,2,,,63,84
315648,note_off,,,,,96,0,3,,,,,2,,,63,0
315648,note_on,,,,,0,0,1,,,,,0,,,84,103
315648,note_off,,,,,768,0,1,,,,,0,,,87,0
315936,note_on,,,,,0,0,3,,,,,2,,,63,84
315936,note_off,,,,,288,0,3,,,,,2,,,63,0
315936,note_on,,,,,0,0,2,,,,,1,,,66,90
315936,note_off,,,,,288,0,4,,,,,3,,,58,0
315936,note_off,,,,,288,0,2,,,,,1,,,66,0
315936,note_on,,,,,0,0,4,,,,,3,,,58,78
316032,note_off,,,,,384,0,1,,,,,0,,,84,0
316032,note_on,,,,,0,0,4,,,,,3,,,58,78
316032,note_off,,,,,96,0,4,,,,,3,,,58,0
316032,note_on,,,,,0,0,3,,,,,2,,,63,84
316032,note_off,,,,,96,0,3,,,,,2,,,63,0
316032,note_on,,,,,0,0,1,,,,,0,,,81,103
316032,note_on,,,,,0,0,2,,,,,1,,,66,90
316032,note_off,,,,,96,0,2,,,,,1,,,66,0
316320,note_on,,,,,0,0,4,,,,,3,,,58,78
316320,note_off,,,,,288,0,2,,,,,1,,,66,0
316320,note_off,,,,,288,0,3,,,,,2,,,63,0
316320,note_on,,,,,0,0,3,,,,,2,,,63,84
316320,note_on,,,,,0,0,2,,,,,1,,,66,90
316320,note_off,,,,,288,0,4,,,,,3,,,58,0
316416,note_off,,,,,96,0,3,,,,,2,,,63,0
316416,note_on,,,,,0,0,3,,,,,2,,,62,84
316416,note_off,,,,,384,0,1,,,,,0,,,81,0
316416,note_off,,,,,96,0,4,,,,,3,,,58,0
316416,note_on,,,,,0,0,4,,,,,3,,,58,78
316416,note_off,,,,,96,0,2,,,,,1,,,66,0
316416,note_on,,,,,0,0,2,,,,,1,,,65,90
316416,note_on,,,,,0,0,1,,,,,0,,,82,103
316704,note_off,,,,,288,0,4,,,,,3,,,58,0
316704,note_off,,,,,288,0,2,,,,,1,,,65,0
316704,note_on,,,,,0,0,2,,,,,1,,,65,90
316704,note_off,,,,,288,0,3,,,,,2,,,62,0
316704,note_on,,,,,0,0,3,,,,,2,,,62,84
316704,note_on,,,,,0,0,4,,,,,3,,,58,78
316800,note_off,,,,,384,0,1,,,,,0,,,82,0
316800,note_on,,,,,0,0,1,,,,,0,,,77,103
316800,note_off,,,,,96,0,3,,,,,2,,,62,0
316800,note_off,,,,,96,0,2,,,,,1,,,65,0
316800,note_on,,,,,0,0,2,,,,,1,,,65,90
316800,note_on,,,,,0,0,3,,,,,2,,,62,84
316800,note_on,,,,,0,0,4,,,,,3,,,58,78
316800,note_off,,,,,96,0,4,,,,,3,,,58,0
317088,note_off,,,,,288,0,2,,,,,1,,,65,0
317088,note_on,,,,,0,0,4,,,,,3,,,58,78
317088,note_off,,,,,288,0,4,,,,,3,,,58,0
317088,note_on,,,,,0,0,2,,,,,1,,,65,90
317088,note_off,,,,,288,0,3,,,,,2,,,62,0
317088,note_on,,,,,0,0,3,,,,,2,,,62,84
317184,note_off,,,,,96,0,3,,,,,2,,,62,0
317184,note_on,,,,,0,0,4,,,,,3,,,58,78
317184,note_off,,,,,96,0,4,,,,,3,,,58,0
317184,note_off,,,,,96,0,2,,,,,1,,,65,0
317184,note_on,,,,,0,0,2,,,,,1,,,65,90
317184,note_off,,,,,384,0,1,,,,,0,,,77,0
317184,note_on,,,,,0,0,3,,,,,2,,,62,84
317472,note_off,,,,,288,0,3,,,,,2,,,62,0
317472,note_on,,,,,0,0,4,,,,,3,,,58,78
317472,note_off,,,,,288,0,2,,,,,1,,,65,0
317472,note_on,,,,,0,0,2,,,,,1,,,65,90
317472,note_off,,,,,288,0,4,,,,,3,,,58,0
317472,note_on,,,,,0,0,3,,,,,2,,,62,84
317568,note_on,,,,,0,0,2,,,,,1,,,65,90
317568,note_off,,,,,96,0,2,,,,,1,,,65,0
317568,note_off,,,,,96,0,4,,,,,3,,,58,0
317568,note_on,,,,,0,0,4,,,,,3,,,58,78
317568,note_off,,,,,96,0,3,,,,,2,,,62,0
317568,note_on,,,,,0,0,3,,,,,2,,,62,84
317568,note_on,,,,,384,0,1,,,,,0,,,70,103
317856,note_off,,,,,288,0,4,,,,,3,,,58,0
317856,note_on,,,,,0,0,4,,,,,3,,,58,78
317856,note_on,,,,,0,0,3,,,,,2,,,62,84
317856,note_off,,,,,288,0,3,,,,,2,,,62,0
317856,note_on,,,,,0,0,2,,,,,1,,,65,90
317856,note_off,,,,,288,0,2,,,,,1,,,65,0
317952,note_on,,,,,0,0,4,,,,,3,,,58,78
317952,note_off,,,,,96,0,4,,,,,3,,,58,0
317952,note_off,,,,,96,0,3,,,,,2,,,62,0
317952,note_on,,,,,0,0,2,,,,,1,,,66,90
317952,note_off,,,,,384,0,1,,,,,0,,,70,0
317952,note_on,,,,,0,0,1,,,,,0,,,69,103
317952,note_off,,,,,96,0,2,,,,,1,,,65,0
317952,note_on,,,,,0,0,3,,,,,2,,,63,84
318240,note_on,,,,,0,0,2,,,,,1,,,66,90
318240,note_off,,,,,288,0,3,,,,,2,,,63,0
318240,note_off,,,,,288,0,2,,,,,1,,,66,0
318240,note_on,,,,,0,0,4,,,,,3,,,58,78
318240,note_off,,,,,288,0,4,,,,,3,,,58,0
318240,note_on,,,,,0,0,3,,,,,2,,,63,84
318336,note_on,,,,,0,0,3,,,,,2,,,63,84
318336,note_off,,,,,96,0,2,,,,,1,,,66,0
318336,note_on,,,,,0,0,2,,,,,1,,,66,90
318336,note_off,,,,,96,0,4,,,,,3,,,58,0
318336,note_on,,,,,0,0,4,,,,,3,,,58,78
318336,note_off,,,,,96,0,3,,,,,2,,,63,0
318624,note_on,,,,,0,0,3,,,,,2,,,63,84
318624,note_off,,,,,288,0,2,,,,,1,,,66,0
318624,note_off,,,,,288,0,4,,,,,3,,,58,0
318624,note_on,,,,,0,0,4,,,,,3,,,58,78
318624,note_on,,,,,0,0,2,,,,,1,,,66,90
318624,note_off,,,,,288,0,3,,,,,2,,,63,0
318720,note_off,,,,,96,0,2,,,,,1,,,66,0
318720,note_off,,,,,768,0,1,,,,,0,,,69,0
318720,note_on,,,,,0,0,1,,,,,0,,,72,103
318720,note_off,,,,,96,0,4,,,,,3,,,58,0
318720,note_off,,,,,96,0,3,,,,,2,,,63,0
318720,note_on,,,,,0,0,3,,,,,2,,,63,84
318720,note_on,,,,,0,0,4,,,,,3,,,58,78
318720,note_on,,,,,0,0,2,,,,,1,,,66,90
319008,note_off,,,,,288,0,2,,,,,1,,,66,0
319008,note_on,,,,,0,0,2,,,,,1,,,66,90
319008,note_off,,,,,288,0,3,,,,,2,,,63,0
319008,note_on,,,,,0,0,3,,,,,2,,,63,84
319008,note_off,,,,,288,0,4,,,,,3,,,58,0
319008,note_on,,,,,0,0,4,,,,,3,,,58,78
319104,note_off,,,,,96,0,4,,,,,3,,,58,0
319104,note_on,,,,,0,0,4,,,,,3,,,58,78
319104,note_on,,,,,0,0,2,,,,,1,,,66,90
319104,note_off,,,,,96,0,2,,,,,1,,,66,0
319104,note_on,,,,,0,0,3,,,,,2,,,63,84
319104,note_off,,,,,96,0,3,,,,,2,,,63,0
319104,note_on,,,,,0,0,1,,,,,0,,,69,103
319104,note_off,,,,,384,0,1,,,,,0,,,72,0
319392,note_on,,,,,0,0,2,,,,,1,,,66,90
319392,note_on,,,,,0,0,4,,,,,3,,,58,78
319392,note_off,,,,,288,0,4,,,,,3,,,58,0
319392,note_on,,,,,0,0,3,,,,,2,,,63,84
319392,note_off,,,,,288,0,3,,,,,2,,,63,0
319392,note_off,,,,,288,0,2,,,,,1,,,66,0
319488,note_off,,,,,96,0,2,,,,,1,,,66,0
319488,note_on,,,,,0,0,2,,,,,1,,,65,90
319488,note_on,,,,,0,0,3,,,,,2,,,62,84
319488,note_off,,,,,384,0,1,,,,,0,,,69,0
319488,note_on,,,,,0,0,1,,,,,0,,,70,103
319488,note_on,,,,,0,0,4,,,,,3,,,58,78
319488,note_off,,,,,96,0,4,,,,,3,,,58,0
319488,note_off,,,,,96,0,3,,,,,2,,,63,0
319776,note_on,,,,,0,0,4,,,,,3,,,58,78
319776,note_off,,,,,288,0,4,,,,,3,,,58,0
319776,note_on,,,,,0,0,3,,,,,2,,,62,84
319776,note_off,,,,,288,0,3,,,,,2,,,62,0
319776,note_on,,,,,0,0,2,,,,,1,,,65,90
319776,note_off,,,,,288,0,2,,,,,1,,,65,0
319872,note_off,,,,,384,0,1,,,,,0,,,70,0
319872,note_on,,,,,0,0,1,,,,,0,,,74,103
319872,note_on,,,,,0,0,4,,,,,3,,,58,78
319872,note_off,,,,,96,0,4,,,,,3,,,58,0
319872,note_off,,,,,96,0,3,,,,,2,,,62,0
319872,note_on,,,,,0,0,3,,,,,2,,,62,84
319872,note_off,,,,,96,0,2,,,,,1,,,65,0
319872,note_on,,,,,0,0,2,,,,,1,,,65,90
320160,note_on,,,,,0,0,3,,,,,2,,,62,84
320160,note_off,,,,,288,0,4,,,,,3,,,58,0
320160,note_off,,,,,288,0,3,,,,,2,,,62,0
320160,note_on,,,,,0,0,4,,,,,3,,,58,78
320160,note_on,,,,,0,0,2,,,,,1,,,65,90
320160,note_off,,,,,288,0,2,,,,,1,,,65,0
320256,note_off,,,,,96,0,4,,,,,3,,,58,0
320256,note_off,,,,,96,0,2,,,,,1,,,65,0
320256,note_on,,,,,0,0,2,,,,,1,,,65,90
320256,note_off,,,,,96,0,3,,,,,2,,,62,0
320256,note_off,,,,,384,0,1,,,,,0,,,74,0
320256,note_on,,,,,0,0,4,,,,,3,,,58,78
320256,note_on,,,,,0,0,3,,,,,2,,,62,84
320544,note_on,,,,,0,0,4,,,,,3,,,58,78
320544,note_off,,,,,288,0,4,,,,,3,,,58,0
320544,note_on,,,,,0,0,3,,,,,2,,,62,84
320544,note_off,,,,,288,0,2,,,,,1,,,65,0
320544,note_on,,,,,0,0,2,,,,,1,,,65,90
320544,note_off,,,,,288,0,3,,,,,2,,,62,0
320640,note_off,,,,,96,0,3,,,,,2,,,62,0
320640,note_on,,,,,0,0,3,,,,,2,,,62,84
320640,note_on,,,,,0,0,4,,,,,3,,,58,78
320640,note_off,,,,,96,0,4,,,,,3,,,58,0
320640,note_off,,,,,96,0,2,,,,,1,,,65,0
320640,note_on,,,,,0,0,2,,,,,1,,,65,90
320640,note_on,,,,,384,0,1,,,,,0,,,82,103
320928,note_off,,,,,288,0,3,,,,,2,,,62,0
320928,note_off,,,,,288,0,2,,,,,1,,,65,0
320928,note_on,,,,,0,0,2,,,,,1,,,65,90
320928,note_on,,,,,0,0,3,,,,,2,,,62,84
320928,note_off,,,,,288,0,4,,,,,3,,,58,0
320928,note_on,,,,,0,0,4,,,,,3,,,58,78
321024,note_off,,,,,384,0,1,,,,,0,,,82,0
321024,note_off,,,,,96,0,2,,,,,1,,,65,0
321024,note_off,,,,,96,0,4,,,,,3,,,58,0
321024,note_on,,,,,0,0,2,,,,,1,,,66,90
321024,note_on,,,,,0,0,3,,,,,2,,,63,84
321024,note_off,,,,,96,0,3,,,,,2,,,62,0
321024,note_on,,,,,0,0,4,,,,,3,,,58,78
321024,note_on,,,,,0,0,1,,,,,0,,,87,103
321312,note_off,,,,,288,0,4,,,,,3,,,58,0
321312,note_on,,,,,0,0,3,,,,,2,,,63,84
321312,note_off,,,,,288,0,3,,,,,2,,,63,0
321312,note_on,,,,,0,0,2,,,,,1,,,66,90
321312,note_off,,,,,288,0,2,,,,,1,,,66,0
321312,note_on,,,,,0,0,4,,,,,3,,,58,78
321408,note_off,,,,,96,0,2,,,,,1,,,66,0
321408,note_on,,,,,0,0,2,,,,,1,,,66,90
321408,note_on,,,,,0,0,3,,,,,2,,,63,84
321408,note_off,,,,,96,0,4,,,,,3,,,58,0
321408,note_off,,,,,96,0,3,,,,,2,,,63,0
321408,note_on,,,,,0,0,4,,,,,3,,,58,78
321696,note_on,,,,,0,0,2,,,,,1,,,66,90
321696,note_off,,,,,288,0,4,,,,,3,,,58,0
321696,note_on,,,,,0,0,4,,,,,3,,,58,78
321696,note_on,,,,,0,0,3,,,,,2,,,63,84
321696,note_off,,,,,288,0,3,,,,,2,,,63,0
321696,note_off,,,,,288,0,2,,,,,1,,,66,0
321792,note_on,,,,,0,0,2,,,,,1,,,66,90
321792,note_on,,,,,0,0,3,,,,,2,,,63,84
321792,note_off,,,,,96,0,3,,,,,2,,,63,0
321792,note_off,,,,,96,0,4,,,,,3,,,58,0
321792,note_on,,,,,0,0,4,,,,,3,,,58,78
321792,note_off,,,,,96,0,2,,,,,1,,,66,0
321792,note_on,,,,,0,0,1,,,,,0,,,84,103
321792,note_off,,,,,768,0,1,,,,,0,,,87,0
322080,note_on,,,,,0,0,2,,,,,1,,,66,90
322080,note_on,,,,,0,0,3,,,,,2,,,63,84
322080,note_off,,,,,288,0,2,,,,,1,,,66,0
322080,note_off,,,,,288,0,3,,,,,2,,,63,0
322080,note_off,,,,,288,0,4,,,,,3,,,58,0
322080,note_on,,,,,0,0,4,,,,,3,,,58,78
322176,note_off,,,,,96,0,2,,,,,1,,,66,0
322176,note_on,,,,,0,0,1,,,,,0,,,81,103
322176,note_on,,,,,0,0,2,,,,,1,,,66,90
322176,note_off,,,,,96,0,4,,,,,3,,,58,0
322176,note_on,,,,,0,0,3,,,,,2,,,63,84
322176,note_off,,,,,96,0,3,,,,,2,,,63,0
322176,note_off,,,,,384,0,1,,,,,0,,,84,0
322176,note_on,,,,,0,0,4,,,,,3,,,58,78
322464,note_off,,,,,288,0,2,,,,,1,,,66,0
322464,note_off,,,,,288,0,3,,,,,2,,,63,0
322464,note_off,,,,,288,0,4,,,,,3,,,58,0
322464,note_on,,,,,0,0,3,,,,,2,,,63,84
322464,note_on,,,,,0,0,2,,,,,1,,,66,90
322464,note_on,,,,,0,0,4,,,,,3,,,58,78
322560,note_off,,,,,96,0,2,,,,,1,,,66,0
322560,note_off,,,,,96,0,3,,,,,2,,,63,0
322560,note_off,,,,,384,0,1,,,,,0,,,81,0
322560,note_on,,,,,0,0,1,,,,,0,,,82,103
322560,note_on,,,,,0,0,3,,,,,2,,,62,84
322560,note_on,,,,,0,0,2,,,,,1,,,65,90
322560,note_off,,,,,96,0,4,,,,,3,,,58,0
322560,note_on,,,,,0,0,4,,,,,3,,,58,78
322848,note_off,,,,,288,0,2,,,,,1,,,65,0
322848,note_off,,,,,288,0,3,,,,,2,,,62,0
322848,note_on,,,,,0,0,3,,,,,2,,,58,84
322848,note_on,,,,,0,0,2,,,,,1,,,58,90
322944,note_off,,,,,384,0,1,,,,,0,,,82,0
322944,note_off,,,,,96,0,2,,,,,1,,,58,0
322944,note_off,,,,,384,0,4,,,,,3,,,58,0
322944,note_on,,,,,0,0,2,,,,,1,,,58,90
322944,note_off,,,,,96,0,3,,,,,2,,,58,0
322944,note_on,,,,,0,0,3,,,,,2,,,58,84
323232,note_off,,,,,288,0,2,,,,,1,,,58,0
323232,note_on,,,,,0,0,2,,,,,1,,,58,90
323232,note_off,,,,,288,0,3,,,,,2,,,58,0
323232,note_on,,,,,0,0,3,,,,,2,,,58,84
323328,note_off,,,,,96,0,3,,,,,2,,,58,0
323328,note_off,,,,,96,0,2,,,,,1,,,58,0
323328,note_on,,,,,0,0,2,,,,,1,,,58,90
323328,note_on,,,,,0,0,3,,,,,2,,,58,84
323712,note_on,,,,,0,0,3,,,,,2,,,55,84
323712,note_on,,,,,768,0,4,,,,,3,,,43,78
323712,note_on,,,,,0,0,2,,,,,1,,,67,90
323712,note_off,,,,,384,0,2,,,,,1,,,58,0
323712,note_off,,,,,384,0,3,,,,,2,,,58,0
323712,note_on,,,,,768,0,1,,,,,0,,,79,103
324096,note_off,,,,,384,0,1,,,,,0,,,79,0
324096,note_off,,,,,384,0,4,,,,,3,,,43,0
324096,note_on,,,,,0,0,4,,,,,3,,,44,78
324096,note_on,,,,,0,0,2,,,,,1,,,68,90
324096,note_on,,,,,0,0,3,,,,,2,,,56,84
324096,note_off,,,,,384,0,3,,,,,2,,,55,0
324096,note_off,,,,,384,0,2,,,,,1,,,67,0
324096,note_on,,,,,0,0,1,,,,,0,,,80,103
324864,note_off,,,,,768,0,4,,,,,3,,,44,0
324864,note_on,,,,,0,0,4,,,,,3,,,41,78
324864,note_off,,,,,768,0,3,,,,,2,,,56,0
324864,note_on,,,,,0,0,3,,,,,2,,,53,84
324864,note_off,,,,,768,0,2,,,,,1,,,68,0
324864,note_off,,,,,768,0,1,,,,,0,,,80,0
324864,note_on,,,,,0,0,1,,,,,0,,,77,103
324864,note_on,,,,,0,0,2,,,,,1,,,65,90
325248,note_off,,,,,384,0,1,,,,,0,,,77,0
325248,note_on,,,,,0,0,1,,,,,0,,,74,103
325248,note_on,,,,,0,0,3,,,,,2,,,50,84
325248,note_off,,,,,384,0,3,,,,,2,,,53,0
325248,note_on,,,,,0,0,2,,,,,1,,,62,90
325248,note_off,,,,,384,0,2,,,,,1,,,65,0
325248,note_on,,,,,0,0,4,,,,,3,,,38,78
325248,note_off,,,,,384,0,4,,,,,3,,,41,0
325632,note_on,,,,,0,0,4,,,,,3,,,39,78
325632,note_off,,,,,384,0,4,,,,,3,,,38,0
325632,note_off,,,,,384,0,2,,,,,1,,,62,0
325632,note_on,,,,,0,0,2,,,,,1,,,63,90
325632,note_off,,,,,384,0,3,,,,,2,,,50,0
325632,note_on,,,,,0,0,1,,,,,0,,,75,103
325632,note_off,,,,,384,0,1,,,,,0,,,74,0
325632,note_on,,,,,0,0,3,,,,,2,,,51,84
326016,note_off,,,,,384,0,2,,,,,1,,,63,0
326016,note_on,,,,,0,0,2,,,,,1,,,67,90
326016,note_on,,,,,0,0,3,,,,,2,,,55,84
326016,note_off,,,,,384,0,1,,,,,0,,,75,0
326016,note_on,,,,,0,0,1,,,,,0,,,79,103
326016,note_off,,,,,384,0,4,,,,,3,,,39,0
326016,note_on,,,,,0,0,4,,,,,3,,,43,78
326016,note_off,,,,,384,0,3,,,,,2,,,51,0
326400,note_off,,,,,384,0,2,,,,,1,,,67,0
326400,note_off,,,,,384,0,3,,,,,2,,,55,0
326400,note_off,,,,,384,0,4,,,,,3,,,43,0
326784,note_on,,,,,384,0,3,,,,,2,,,70,84
326784,note_off,,,,,768,0,1,,,,,0,,,79,0
326784,note_on,,,,,384,0,2,,,,,1,,,73,90
326784,note_on,,,,,0,0,1,,,,,0,,,79,103
326784,note_on,,,,,384,0,4,,,,,3,,,64,78
327168,note_off,,,,,384,0,4,,,,,3,,,64,0
327168,note_off,,,,,384,0,1,,,,,0,,,79,0
327168,note_off,,,,,384,0,2,,,,,1,,,73,0
327168,note_on,,,,,0,0,2,,,,,1,,,74,90
327168,note_on,,,,,0,0,4,,,,,3,,,65,78
327168,note_on,,,,,0,0,1,,,,,0,,,77,103
327936,note_off,,,,,768,0,1,,,,,0,,,77,0
327936,note_on,,,,,0,0,1,,,,,0,,,82,103
328320,note_off,,,,,384,0,1,,,,,0,,,82,0
328320,note_on,,,,,0,0,1,,,,,0,,,86,103
328704,note_off,,,,,1536,0,2,,,,,1,,,74,0
328704,note_off,,,,,1536,0,4,,,,,3,,,65,0
328704,note_on,,,,,0,0,2,,,,,1,,,69,90
328704,note_off,,,,,384,0,1,,,,,0,,,86,0
328704,note_on,,,,,0,0,1,,,,,0,,,87,103
328704,note_on,,,,,0,0,3,,,,,2,,,65,84
328704,note_off,,,,,1920,0,3,,,,,2,,,70,53
328704,note_on,,,,,0,0,4,,,,,3,,,53,78
329088,note_off,,,,,384,0,1,,,,,0,,,87,0
329088,note_on,,,,,0,0,1,,,,,0,,,84,103
329088,note_off,,,,,384,0,2,,,,,1,,,69,0
329088,note_off,,,,,384,0,3,,,,,2,,,65,0
329088,note_on,,,,,0,0,2,,,,,1,,,72,90
329088,note_on,,,,,0,0,3,,,,,2,,,69,84
329856,note_on,,,,,0,0,3,,,,,2,,,72,84
329856,note_on,,,,,0,0,2,,,,,1,,,75,90
329856,note_on,,,,,0,0,1,,,,,0,,,81,103
329856,note_off,,,,,768,0,3,,,,,2,,,69,0
329856,note_off,,,,,768,0,1,,,,,0,,,84,0
329856,note_off,,,,,768,0,2,,,,,1,,,72,0
330240,note_off,,,,,1536,0,4,,,,,3,,,53,0
330240,note_on,,,,,0,0,4,,,,,3,,,58,78
330240,note_on,,,,,0,0,1,,,,,0,,,82,103
330240,note_off,,,,,384,0,1,,,,,0,,,81,0
330240,note_on,,,,,0,0,3,,,,,2,,,70,84
330240,note_off,,,,,384,0,3,,,,,2,,,72,0
330240,note_off,,,,,384,0,2,,,,,1,,,75,0
330240,note_on,,,,,0,0,2,,,,,1,,,74,90
330432,note_off,,,,,192,0,3,,,,,2,,,70,0
330624,note_off,,,,,384,0,2,,,,,1,,,74,0
330624,note_on,,,,,192,0,3,,,,,2,,,50,84
330624,note_off,,,,,384,0,4,,,,,3,,,58,0
330624,note_off,,,,,384,0,1,,,,,0,,,82,0
331008,note_on,,,,,0,0,3,,,,,2,,,53,84
331008,note_off,,,,,384,0,3,,,,,2,,,50,0
331392,note_on,,,,,768,0,4,,,,,3,,,43,78
331392,note_on,,,,,768,0,1,,,,,0,,,79,103
331392,note_off,,,,,384,0,3,,,,,2,,,53,0
331392,note_on,,,,,768,0,2,,,,,1,,,67,90
331392,note_on,,,,,0,0,3,,,,,2,,,55,84
331776,note_off,,,,,384,0,2,,,,,1,,,67,0
331776,note_off,,,,,384,0,1,,,,,0,,,79,0
331776,note_on,,,,,0,0,1,,,,,0,,,80,103
331776,note_on,,,,,0,0,4,,,,,3,,,44,78
331776,note_off,,,,,384,0,4,,,,,3,,,43,0
331776,note_on,,,,,0,0,2,,,,,1,,,68,90
331776,note_on,,,,,0,0,3,,,,,2,,,56,84
331776,note_off,,,,,384,0,3,,,,,2,,,55,0
332544,note_off,,,,,768,0,2,,,,,1,,,68,0
332544,note_on,,,,,0,0,2,,,,,1,,,65,90
332544,note_on,,,,,0,0,1,,,,,0,,,77,103
332544,note_off,,,,,768,0,1,,,,,0,,,80,0
332544,note_off,,,,,768,0,3,,,,,2,,,56,0
332544,note_on,,,,,0,0,3,,,,,2,,,53,84
332544,note_off,,,,,768,0,4,,,,,3,,,44,0
332544,note_on,,,,,0,0,4,,,,,3,,,41,78
332928,note_off,,,,,384,0,2,,,,,1,,,65,0
332928,note_on,,,,,0,0,2,,,,,1,,,62,90
332928,note_off,,,,,384,0,3,,,,,2,,,53,0
332928,note_on,,,,,0,0,4,,,,,3,,,38,78
332928,note_off,,,,,384,0,4,,,,,3,,,41,0
332928,note_on,,,,,0,0,3,,,,,2,,,50,84
332928,note_on,,,,,0,0,1,,,,,0,,,74,103
332928,note_off,,,,,384,0,1,,,,,0,,,77,0
333312,note_on,,,,,0,0,1,,,,,0,,,75,103
333312,note_off,,,,,384,0,1,,,,,0,,,74,0
333312,note_off,,,,,384,0,3,,,,,2,,,50,0
333312,note_on,,,,,0,0,2,,,,,1,,,63,90
333312,note_off,,,,,384,0,2,,,,,1,,,62,0
333312,note_on,,,,,0,0,4,,,,,3,,,39,78
333312,note_on,,,,,0,0,3,,,,,2,,,51,84
333312,note_off,,,,,384,0,4,,,,,3,,,38,0
333696,note_on,,,,,0,0,1,,,,,0,,,79,103
333696,note_off,,,,,384,0,3,,,,,2,,,51,0
333696,note_on,,,,,0,0,2,,,,,1,,,67,90
333696,note_off,,,,,384,0,2,,,,,1,,,63,0
333696,note_off,,,,,384,0,1,,,,,0,,,75,0
333696,note_off,,,,,384,0,4,,,,,3,,,39,0
333696,note_on,,,,,0,0,3,,,,,2,,,55,84
333696,note_on,,,,,0,0,4,,,,,3,,,43,78
334080,note_off,,,,,384,0,4,,,,,3,,,43,0
334080,note_off,,,,,384,0,2,,,,,1,,,67,0
334080,note_off,,,,,384,0,3,,,,,2,,,55,0
334464,note_on,,,,,384,0,4,,,,,3,,,64,78
334464,note_on,,,,,384,0,2,,,,,1,,,73,90
334464,note_off,,,,,768,0,1,,,,,0,,,79,0
334464,note_on,,,,,384,0,3,,,,,2,,,70,84
334464,note_on,,,,,0,0,1,,,,,0,,,79,103
334848,note_on,,,,,0,0,1,,,,,0,,,77,103
334848,note_off,,,,,384,0,1,,,,,0,,,79,0
334848,note_on,,,,,0,0,2,,,,,1,,,74,90
334848,note_off,,,,,384,0,2,,,,,1,,,73,0
334848,note_on,,,,,0,0,4,,,,,3,,,65,78
334848,note_off,,,,,384,0,4,,,,,3,,,64,0
335616,note_on,,,,,0,0,1,,,,,0,,,82,103
335616,note_off,,,,,768,0,1,,,,,0,,,77,0
336000,note_on,,,,,0,0,1,,,,,0,,,86,103
336000,note_off,,,,,384,0,1,,,,,0,,,82,0
336384,note_off,,,,,1536,0,4,,,,,3,,,65,0
336384,note_on,,,,,0,0,4,,,,,3,,,53,78
336384,note_off,,,,,1536,0,2,,,,,1,,,74,0
336384,note_on,,,,,0,0,2,,,,,1,,,69,90
336384,note_on,,,,,0,0,3,,,,,2,,,65,84
336384,note_off,,,,,1920,0,3,,,,,2,,,70,53
336384,note_off,,,,,384,0,1,,,,,0,,,86,0
336384,note_on,,,,,0,0,1,,,,,0,,,87,103
336768,note_on,,,,,0,0,1,,,,,0,,,84,103
336768,note_off,,,,,384,0,2,,,,,1,,,69,0
336768,note_on,,,,,0,0,2,,,,,1,,,72,90
336768,note_on,,,,,0,0,3,,,,,2,,,69,84
336768,note_off,,,,,384,0,3,,,,,2,,,65,0
336768,note_off,,,,,384,0,1,,,,,0,,,87,0
337536,note_on,,,,,0,0,3,,,,,2,,,72,84
337536,note_off,,,,,768,0,3,,,,,2,,,69,0
337536,note_off,,,,,768,0,1,,,,,0,,,84,0
337536,note_on,,,,,0,0,2,,,,,1,,,75,90
337536,note_off,,,,,768,0,2,,,,,1,,,72,0
337536,note_on,,,,,0,0,1,,,,,0,,,81,103
337920,note_off,,,,,1536,0,4,,,,,3,,,53,0
337920,note_on,,,,,0,0,4,,,,,3,,,46,78
337920,note_on,,,,,0,0,1,,,,,0,,,82,103
337920,note_off,,,,,384,0,1,,,,,0,,,81,0
337920,note_on,,,,,0,0,2,,,,,1,,,74,90
337920,note_off,,,,,384,0,2,,,,,1,,,75,0
337920,note_off,,,,,384,0,3,,,,,2,,,72,0
337920,note_on,,,,,0,0,3,,,,,2,,,70,84
338304,note_on,,,,,0,0,3,,,,,2,,,62,84
338304,note_off,,,,,384,0,3,,,,,2,,,70,0
338304,note_off,,,,,384,0,2,,,,,1,,,74,0
338304,note_on,,,,,0,0,2,,,,,1,,,65,90
338592,note_on,,,,,0,0,1,,,,,0,,,72,103
338592,note_off,,,,,672,0,1,,,,,0,,,82,0
338688,note_on,,,,,0,0,3,,,,,2,,,60,84
338688,note_off,,,,,384,0,3,,,,,2,,,62,0
338688,note_off,,,,,96,0,1,,,,,0,,,72,0
338688,note_on,,,,,0,0,1,,,,,0,,,70,103
338688,note_off,,,,,384,0,2,,,,,1,,,65,0
338688,note_on,,,,,0,0,2,,,,,1,,,63,90
338816,note_off,,,,,128,0,1,,,,,0,,,70,0
338816,note_on,,,,,0,0,1,,,,,0,,,69,103
338944,note_on,,,,,0,0,1,,,,,0,,,70,103
338944,note_off,,,,,128,0,1,,,,,0,,,69,0
339008,note_on,,,,,0,0,1,,,,,0,,,72,103
339008,note_off,,,,,64,0,1,,,,,0,,,70,0
339072,note_on,,,,,0,0,1,,,,,0,,,70,103
339072,note_off,,,,,64,0,1,,,,,0,,,72,0
339072,note_off,,,,,384,0,2,,,,,1,,,63,0
339072,note_on,,,,,0,0,3,,,,,2,,,58,84
339072,note_on,,,,,0,0,2,,,,,1,,,62,90
339072,note_off,,,,,384,0,3,,,,,2,,,60,0
339200,note_off,,,,,128,0,1,,,,,0,,,70,0
339200,note_on,,,,,0,0,1,,,,,0,,,69,103
339328,note_off,,,,,128,0,1,,,,,0,,,69,0
339328,note_on,,,,,0,0,1,,,,,0,,,70,103
339456,note_off,,,,,128,0,1,,,,,0,,,70,0
339456,note_on,,,,,0,0,1,,,,,0,,,77,103
339456,note_on,,,,,0,0,3,,,,,2,,,60,84
339456,note_off,,,,,384,0,3,,,,,2,,,58,0
339456,note_off,,,,,384,0,2,,,,,1,,,62,0
339456,note_on,,,,,0,0,2,,,,,1,,,63,90
339840,note_off,,,,,384,0,1,,,,,0,,,77,0
339840,note_on,,,,,0,0,1,,,,,0,,,75,103
340224,note_off,,,,,768,0,3,,,,,2,,,60,0
340224,note_off,,,,,768,0,2,,,,,1,,,63,0
340224,note_on,,,,,0,0,2,,,,,1,,,65,90
340224,note_on,,,,,0,0,1,,,,,0,,,74,103
340224,note_on,,,,,0,0,3,,,,,2,,,62,84
340224,note_off,,,,,384,0,1,,,,,0,,,75,0
340416,note_on,,,,,0,0,1,,,,,0,,,72,103
340416,note_off,,,,,192,0,1,,,,,0,,,74,0
340608,note_on,,,,,0,0,2,,,,,1,,,66,90
340608,note_off,,,,,384,0,2,,,,,1,,,65,0
340608,note_on,,,,,0,0,3,,,,,2,,,63,84
340608,note_off,,,,,192,0,1,,,,,0,,,72,0
340608,note_on,,,,,0,0,1,,,,,0,,,70,103
340608,note_off,,,,,384,0,3,,,,,2,,,62,0
340800,note_on,,,,,0,0,1,,,,,0,,,69,103
340800,note_off,,,,,192,0,1,,,,,0,,,70,0
340992,note_off,,,,,384,0,2,,,,,1,,,66,0
340992,note_on,,,,,0,0,3,,,,,2,,,62,84
340992,note_off,,,,,192,0,1,,,,,0,,,69,0
340992,note_on,,,,,0,0,2,,,,,1,,,65,90
340992,note_on,,,,,0,0,1,,,,,0,,,70,103
340992,note_off,,,,,384,0,3,,,,,2,,,63,0
341184,note_off,,,,,192,0,2,,,,,1,,,65,0
341184,note_off,,,,,192,0,3,,,,,2,,,62,0
341376,note_on,,,,,192,0,2,,,,,1,,,65,90
341376,note_on,,,,,192,0,3,,,,,2,,,62,84
341664,note_on,,,,,0,0,1,,,,,0,,,72,103
341664,note_off,,,,,672,0,1,,,,,0,,,70,0
341760,note_on,,,,,0,0,1,,,,,0,,,70,103
341760,note_off,,,,,96,0,1,,,,,0,,,72,0
341760,note_on,,,,,0,0,2,,,,,1,,,63,90
341760,note_off,,,,,384,0,2,,,,,1,,,65,0
341760,note_on,,,,,0,0,3,,,,,2,,,60,84
341760,note_off,,,,,384,0,3,,,,,2,,,62,0
341888,note_off,,,,,128,0,1,,,,,0,,,70,0
341888,note_on,,,,,0,0,1,,,,,0,,,69,103
342016,note_on,,,,,0,0,1,,,,,0,,,70,103
342016,note_off,,,,,128,0,1,,,,,0,,,69,0
342080,note_off,,,,,64,0,1,,,,,0,,,70,0
342080,note_on,,,,,0,0,1,,,,,0,,,72,103
342144,note_on,,,,,0,0,1,,,,,0,,,70,103
342144,note_off,,,,,384,0,3,,,,,2,,,60,0
342144,note_on,,,,,0,0,3,,,,,2,,,58,84
342144,note_on,,,,,0,0,2,,,,,1,,,62,90
342144,note_off,,,,,384,0,2,,,,,1,,,63,0
342144,note_off,,,,,64,0,1,,,,,0,,,72,0
342272,note_off,,,,,128,0,1,,,,,0,,,70,0
342272,note_on,,,,,0,0,1,,,,,0,,,69,103
342400,note_on,,,,,0,0,1,,,,,0,,,70,103
342400,note_off,,,,,128,0,1,,,,,0,,,69,0
342528,note_on,,,,,0,0,1,,,,,0,,,77,103
342528,note_off,,,,,384,0,3,,,,,2,,,58,0
342528,note_on,,,,,0,0,3,,,,,2,,,60,84
342528,note_off,,,,,128,0,1,,,,,0,,,70,0
342528,note_on,,,,,0,0,2,,,,,1,,,63,90
342528,note_off,,,,,384,0,2,,,,,1,,,62,0
342912,note_off,,,,,384,0,1,,,,,0,,,77,0
342912,note_on,,,,,0,0,1,,,,,0,,,75,103
343296,note_on,,,,,0,0,1,,,,,0,,,74,103
343296,note_on,,,,,0,0,2,,,,,1,,,65,90
343296,note_off,,,,,768,0,2,,,,,1,,,63,0
343296,note_off,,,,,384,0,1,,,,,0,,,75,0
343296,note_on,,,,,0,0,3,,,,,2,,,62,84
343296,note_off,,,,,768,0,3,,,,,2,,,60,0
343488,note_off,,,,,192,0,1,,,,,0,,,74,0
343488,note_on,,,,,0,0,1,,,,,0,,,72,103
343680,note_off,,,,,384,0,2,,,,,1,,,65,0
343680,note_on,,,,,0,0,2,,,,,1,,,66,90
343680,note_off,,,,,384,0,3,,,,,2,,,62,0
343680,note_on,,,,,0,0,1,,,,,0,,,70,103
343680,note_off,,,,,192,0,1,,,,,0,,,72,0
343680,note_on,,,,,0,0,3,,,,,2,,,63,84
343872,note_off,,,,,192,0,1,,,,,0,,,70,0
343872,note_on,,,,,0,0,1,,,,,0,,,69,103
344064,note_on,,,,,0,0,1,,,,,0,,,70,103
344064,note_off,,,,,192,0,1,,,,,0,,,69,0
344064,note_off,,,,,384,0,3,,,,,2,,,63,0
344064,note_on,,,,,0,0,3,,,,,2,,,62,84
344064,note_on,,,,,0,0,2,,,,,1,,,65,90
344064,note_off,,,,,384,0,2,,,,,1,,,66,0
344448,note_off,,,,,384,0,3,,,,,2,,,62,0
344448,note_off,,,,,6528,0,4,,,,,3,,,46,49
344448,note_off,,,,,384,0,2,,,,,1,,,65,0
344448,note_off,,,,,384,0,1,,,,,0,,,70,0
344832,note_on,,,,,384,0,1,,,,,0,,,70,103
344832,note_on,,,,,384,0,4,,,,,3,,,46,78
344832,note_on,,,,,384,0,3,,,,,2,,,58,84
344832,note_on,,,,,384,0,2,,,,,1,,,62,90
345216,note_off,,,,,384,0,4,,,,,3,,,46,0
345216,note_off,,,,,384,0,1,,,,,0,,,70,0
345216,note_off,,,,,384,0,2,,,,,1,,,62,0
345216,note_off,,,,,384,0,3,,,,,2,,,58,0
345600,note_on,,,,,384,0,3,,,,,2,,,58,84
345600,note_on,,,,,384,0,4,,,,,3,,,46,78
345600,note_on,,,,,384,0,2,,,,,1,,,62,90
345600,note_on,,,,,384,0,1,,,,,0,,,70,103
345984,note_off,,,,,384,0,2,,,,,1,,,62,0
345984,note_off,,,,,384,0,1,,,,,0,,,70,0
345984,note_off,,,,,384,0,3,,,,,2,,,58,0
345984,note_off,,,,,384,0,4,,,,,3,,,46,0
347136,note_on,,,,,1152,0,2,,,,,1,,,65,90
347136,note_on,,,,,1152,0,1,,,,,0,,,71,103
347136,note_on,,,,,1152,0,3,,,,,2,,,62,84
347136,note_on,,,,,1152,0,4,,,,,3,,,43,78
347904,note_off,,,,,768,0,3,,,,,2,,,62,0
347904,note_on,,,,,0,0,3,,,,,2,,,63,84
347904,note_on,,,,,0,0,1,,,,,0,,,71,103
347904,note_off,,,,,768,0,1,,,,,0,,,71,0
347904,note_off,,,,,768,0,2,,,,,1,,,65,0
347904,note_on,,,,,0,0,2,,,,,1,,,67,90
348096,note_off,,,,,192,0,1,,,,,0,,,71,0
348288,note_off,,,,,384,0,3,,,,,2,,,63,0
348288,note_on,,,,,0,0,3,,,,,2,,,65,84
348288,note_on,,,,,0,0,2,,,,,1,,,68,90
348288,note_off,,,,,384,0,2,,,,,1,,,67,0
348288,note_on,,,,,192,0,1,,,,,0,,,71,103
348480,note_off,,,,,192,0,1,,,,,0,,,71,0
348672,note_off,,,,,384,0,2,,,,,1,,,68,0
348672,note_on,,,,,0,0,2,,,,,1,,,67,90
348672,note_off,,,,,384,0,3,,,,,2,,,65,0
348672,note_on,,,,,0,0,3,,,,,2,,,63,84
348672,note_on,,,,,192,0,1,,,,,0,,,72,103
349056,note_on,,,,,0,0,1,,,,,0,,,80,103
349056,note_off,,,,,384,0,1,,,,,0,,,72,0
349248,note_on,,,,,0,0,1,,,,,0,,,79,103
349248,note_off,,,,,192,0,1,,,,,0,,,80,0
349440,note_on,,,,,0,0,1,,,,,0,,,77,103
349440,note_off,,,,,192,0,1,,,,,0,,,79,0
349632,note_on,,,,,0,0,1,,,,,0,,,75,103
349632,note_off,,,,,192,0,1,,,,,0,,,77,0
349824,note_off,,,,,192,0,1,,,,,0,,,75,0
349824,note_on,,,,,0,0,1,,,,,0,,,74,103
350016,note_on,,,,,0,0,1,,,,,0,,,72,103
350016,note_off,,,,,192,0,1,,,,,0,,,74,0
350208,note_on,,,,,0,0,3,,,,,2,,,62,84
350208,note_off,,,,,1536,0,3,,,,,2,,,63,0
350208,note_on,,,,,0,0,1,,,,,0,,,71,103
350208,note_on,,,,,0,0,2,,,,,1,,,65,90
350208,note_off,,,,,1536,0,2,,,,,1,,,67,0
350208,note_off,,,,,192,0,1,,,,,0,,,72,0
350976,note_off,,,,,768,0,3,,,,,2,,,62,0
350976,note_off,,,,,768,0,2,,,,,1,,,65,0
350976,note_on,,,,,0,0,2,,,,,1,,,67,90
350976,note_on,,,,,0,0,1,,,,,0,,,71,103
350976,note_off,,,,,768,0,1,,,,,0,,,71,0
350976,note_on,,,,,0,0,3,,,,,2,,,63,84
351168,note_off,,,,,192,0,1,,,,,0,,,71,0
351360,note_on,,,,,192,0,1,,,,,0,,,71,103
351360,note_on,,,,,0,0,3,,,,,2,,,65,84
351360,note_on,,,,,0,0,2,,,,,1,,,68,90
351360,note_off,,,,,384,0,3,,,,,2,,,63,0
351360,note_off,,,,,384,0,2,,,,,1,,,67,0
351552,note_off,,,,,192,0,1,,,,,0,,,71,0
351744,note_off,,,,,384,0,3,,,,,2,,,65,0
351744,note_on,,,,,0,0,3,,,,,2,,,63,84
351744,note_on,,,,,192,0,1,,,,,0,,,72,103
351744,note_on,,,,,0,0,2,,,,,1,,,67,90
351744,note_off,,,,,384,0,2,,,,,1,,,68,0
352128,note_off,,,,,384,0,1,,,,,0,,,72,0
352128,note_on,,,,,0,0,1,,,,,0,,,80,103
352320,note_off,,,,,192,0,1,,,,,0,,,80,0
352320,note_on,,,,,0,0,1,,,,,0,,,79,103
352512,note_off,,,,,192,0,1,,,,,0,,,79,0
352512,note_on,,,,,0,0,1,,,,,0,,,77,103
352704,note_on,,,,,0,0,1,,,,,0,,,75,103
352704,note_off,,,,,192,0,1,,,,,0,,,77,0
352896,note_on,,,,,0,0,1,,,,,0,,,74,103
352896,note_off,,,,,192,0,1,,,,,0,,,75,0
353088,note_on,,,,,0,0,1,,,,,0,,,72,103
353088,note_off,,,,,192,0,1,,,,,0,,,74,0
353280,note_on,,,,,0,0,1,,,,,0,,,70,103
353280,note_off,,,,,192,0,1,,,,,0,,,72,0
353280,note_off,,,,,6144,0,4,,,,,3,,,43,49
353280,note_on,,,,,0,0,2,,,,,1,,,63,90
353280,note_off,,,,,1536,0,3,,,,,2,,,63,0
353280,note_on,,,,,0,0,3,,,,,2,,,60,84
353280,note_off,,,,,1536,0,2,,,,,1,,,67,0
353280,note_on,,,,,0,0,4,,,,,3,,,42,78
353664,note_on,,,,,0,0,4,,,,,3,,,41,78
353664,note_off,,,,,384,0,1,,,,,0,,,70,0
353664,note_on,,,,,0,0,1,,,,,0,,,69,103
353664,note_off,,,,,384,0,4,,,,,3,,,42,0
354048,note_off,,,,,768,0,3,,,,,2,,,60,0
354048,note_on,,,,,0,0,3,,,,,2,,,62,84
354048,note_on,,,,,0,0,2,,,,,1,,,65,90
354048,note_off,,,,,768,0,2,,,,,1,,,63,0
354432,note_on,,,,,0,0,1,,,,,0,,,69,103
354432,note_on,,,,,0,0,3,,,,,2,,,63,84
354432,note_off,,,,,384,0,3,,,,,2,,,62,0
354432,note_off,,,,,768,0,1,,,,,0,,,69,0
354432,note_on,,,,,0,0,2,,,,,1,,,66,90
354432,note_off,,,,,384,0,2,,,,,1,,,65,0
354816,note_off,,,,,384,0,2,,,,,1,,,66,0
354816,note_off,,,,,384,0,3,,,,,2,,,63,0
354816,note_on,,,,,0,0,3,,,,,2,,,62,84
354816,note_off,,,,,384,0,1,,,,,0,,,69,0
354816,note_on,,,,,0,0,1,,,,,0,,,70,103
354816,note_on,,,,,0,0,2,,,,,1,,,65,90
355200,note_off,,,,,384,0,1,,,,,0,,,70,0
355200,note_on,,,,,0,0,1,,,,,0,,,79,103
355392,note_on,,,,,0,0,1,,,,,0,,,77,103
355392,note_off,,,,,192,0,1,,,,,0,,,79,0
355584,note_on,,,,,0,0,1,,,,,0,,,75,103
355584,note_off,,,,,192,0,1,,,,,0,,,77,0
355776,note_on,,,,,0,0,1,,,,,0,,,74,103
355776,note_off,,,,,192,0,1,,,,,0,,,75,0
355968,note_off,,,,,192,0,1,,,,,0,,,74,0
355968,note_on,,,,,0,0,1,,,,,0,,,72,103
356160,note_on,,,,,0,0,1,,,,,0,,,70,103
356160,note_off,,,,,192,0,1,,,,,0,,,72,0
356352,note_off,,,,,192,0,1,,,,,0,,,70,0
356352,note_off,,,,,1536,0,2,,,,,1,,,65,0
356352,note_on,,,,,0,0,3,,,,,2,,,60,84
356352,note_off,,,,,1536,0,3,,,,,2,,,62,0
356352,note_on,,,,,0,0,2,,,,,1,,,63,90
356352,note_on,,,,,0,0,1,,,,,0,,,70,103
356736,note_off,,,,,384,0,1,,,,,0,,,70,0
356736,note_on,,,,,0,0,1,,,,,0,,,69,103
357120,note_on,,,,,0,0,3,,,,,2,,,62,84
357120,note_off,,,,,768,0,3,,,,,2,,,60,0
357120,note_off,,,,,768,0,2,,,,,1,,,63,0
357120,note_on,,,,,0,0,2,,,,,1,,,65,90
357504,note_on,,,,,0,0,1,,,,,0,,,69,103
357504,note_on,,,,,0,0,2,,,,,1,,,66,90
357504,note_off,,,,,768,0,1,,,,,0,,,69,0
357504,note_on,,,,,0,0,3,,,,,2,,,63,84
357504,note_off,,,,,384,0,2,,,,,1,,,65,0
357504,note_off,,,,,384,0,3,,,,,2,,,62,0
357888,note_on,,,,,0,0,3,,,,,2,,,62,84
357888,note_off,,,,,384,0,1,,,,,0,,,69,0
357888,note_off,,,,,384,0,3,,,,,2,,,63,0
357888,note_on,,,,,0,0,2,,,,,1,,,65,90
357888,note_off,,,,,384,0,2,,,,,1,,,66,0
357888,note_on,,,,,0,0,1,,,,,0,,,70,103
358272,note_off,,,,,384,0,1,,,,,0,,,70,0
358272,note_on,,,,,0,0,1,,,,,0,,,79,103
358464,note_on,,,,,0,0,1,,,,,0,,,77,103
358464,note_off,,,,,192,0,1,,,,,0,,,79,0
358656,note_on,,,,,0,0,1,,,,,0,,,75,103
358656,note_off,,,,,192,0,1,,,,,0,,,77,0
358848,note_on,,,,,0,0,1,,,,,0,,,74,103
358848,note_off,,,,,192,0,1,,,,,0,,,75,0
359040,note_on,,,,,0,0,1,,,,,0,,,72,103
359040,note_off,,,,,192,0,1,,,,,0,,,74,0
359232,note_on,,,,,0,0,1,,,,,0,,,70,103
359232,note_off,,,,,192,0,1,,,,,0,,,72,0
359424,note_on,,,,,0,0,4,,,,,3,,,53,78
359424,note_off,,,,,1536,0,3,,,,,2,,,62,0
359424,note_on,,,,,0,0,1,,,,,0,,,77,103
359424,note_on,,,,,0,0,1,,,,,0,,,69,103
359424,note_off,,,,,1536,0,2,,,,,1,,,65,0
359424,note_on,,,,,0,0,2,,,,,1,,,60,90
359424,note_on,,,,,0,0,2,,,,,1,,,65,90
359424,note_on,,,,,0,0,3,,,,,2,,,60,84
359424,note_off,,,,,5760,0,4,,,,,3,,,41,49
359424,note_off,,,,,192,0,1,,,,,0,,,70,0
359552,note_off,,,,,128,0,3,,,,,2,,,60,0
359552,note_on,,,,,0,0,3,,,,,2,,,65,84
359680,note_on,,,,,0,0,3,,,,,2,,,65,84
359680,note_off,,,,,128,0,3,,,,,2,,,65,0
359808,note_off,,,,,384,0,2,,,,,1,,,60,0
359808,note_off,,,,,384,0,1,,,,,0,,,69,0
359808,note_off,,,,,0,0,2,,,,,1,,,65,0
359808,note_off,,,,,0,0,1,,,,,0,,,77,0
359808,note_off,,,,,128,0,3,,,,,2,,,65,0
359808,note_on,,,,,0,0,3,,,,,2,,,65,84
359808,note_off,,,,,384,0,4,,,,,3,,,53,0
359936,note_off,,,,,128,0,3,,,,,2,,,65,0
359936,note_on,,,,,0,0,3,,,,,2,,,65,84
360064,note_off,,,,,128,0,3,,,,,2,,,65,0
360064,note_on,,,,,0,0,3,,,,,2,,,65,84
360192,note_off,,,,,128,0,3,,,,,2,,,65,0
360192,note_on,,,,,0,0,3,,,,,2,,,65,84
360320,note_on,,,,,0,0,3,,,,,2,,,65,84
360320,note_off,,,,,128,0,3,,,,,2,,,65,0
360448,note_off,,,,,128,0,3,,,,,2,,,65,0
360448,note_on,,,,,0,0,3,,,,,2,,,65,84
360576,note_on,,,,,768,0,4,,,,,3,,,58,78
360576,note_on,,,,,768,0,2,,,,,1,,,74,90
360576,note_off,,,,,128,0,3,,,,,2,,,65,0
360576,note_on,,,,,0,0,3,,,,,2,,,65,84
360576,note_on,,,,,768,0,1,,,,,0,,,86,103
360704,note_off,,,,,128,0,3,,,,,2,,,65,0
360704,note_on,,,,,0,0,3,,,,,2,,,65,84
360832,note_on,,,,,0,0,3,,,,,2,,,65,84
360832,note_off,,,,,128,0,3,,,,,2,,,65,0
360960,note_on,,,,,0,0,1,,,,,0,,,87,103
360960,note_on,,,,,0,0,2,,,,,1,,,75,90
360960,note_off,,,,,384,0,2,,,,,1,,,74,0
360960,note_on,,,,,0,0,4,,,,,3,,,57,78
360960,note_off,,,,,384,0,4,,,,,3,,,58,0
360960,note_off,,,,,384,0,1,,,,,0,,,86,0
360960,note_off,,,,,128,0,3,,,,,2,,,65,0
360960,note_on,,,,,0,0,3,,,,,2,,,65,84
361088,note_on,,,,,0,0,3,,,,,2,,,65,84
361088,note_off,,,,,128,0,3,,,,,2,,,65,0
361216,note_on,,,,,0,0,3,,,,,2,,,65,84
361216,note_off,,,,,128,0,3,,,,,2,,,65,0
361344,note_off,,,,,128,0,3,,,,,2,,,65,0
361344,note_on,,,,,0,0,3,,,,,2,,,65,84
361472,note_off,,,,,128,0,3,,,,,2,,,65,0
361472,note_on,,,,,0,0,3,,,,,2,,,65,84
361600,note_on,,,,,0,0,3,,,,,2,,,65,84
361600,note_off,,,,,128,0,3,,,,,2,,,65,0
361728,note_off,,,,,768,0,4,,,,,3,,,57,0
361728,note_on,,,,,0,0,4,,,,,3,,,60,78
361728,note_off,,,,,768,0,1,,,,,0,,,87,0
361728,note_on,,,,,0,0,1,,,,,0,,,84,103
361728,note_off,,,,,128,0,3,,,,,2,,,65,0
361728,note_on,,,,,0,0,2,,,,,1,,,72,90
361728,note_on,,,,,0,0,3,,,,,2,,,65,84
361728,note_off,,,,,768,0,2,,,,,1,,,75,0
361856,note_off,,,,,128,0,3,,,,,2,,,65,0
361856,note_on,,,,,0,0,3,,,,,2,,,65,84
361984,note_on,,,,,0,0,3,,,,,2,,,65,84
361984,note_off,,,,,128,0,3,,,,,2,,,65,0
362112,note_off,,,,,384,0,4,,,,,3,,,60,0
362112,note_on,,,,,0,0,4,,,,,3,,,63,78
362112,note_on,,,,,0,0,1,,,,,0,,,81,103
362112,note_on,,,,,0,0,3,,,,,2,,,65,84
362112,note_off,,,,,128,0,3,,,,,2,,,65,0
362112,note_on,,,,,0,0,2,,,,,1,,,69,90
362112,note_off,,,,,384,0,1,,,,,0,,,84,0
362112,note_off,,,,,384,0,2,,,,,1,,,72,0
362240,note_on,,,,,0,0,3,,,,,2,,,65,84
362240,note_off,,,,,128,0,3,,,,,2,,,65,0
362368,note_off,,,,,128,0,3,,,,,2,,,65,0
362368,note_on,,,,,0,0,3,,,,,2,,,65,84
362496,note_on,,,,,0,0,2,,,,,1,,,70,90
362496,note_off,,,,,384,0,4,,,,,3,,,63,0
362496,note_on,,,,,0,0,3,,,,,2,,,65,84
362496,note_off,,,,,128,0,3,,,,,2,,,65,0
362496,note_on,,,,,0,0,1,,,,,0,,,82,103
362496,note_on,,,,,0,0,4,,,,,3,,,62,78
362496,note_off,,,,,384,0,1,,,,,0,,,81,0
362496,note_off,,,,,384,0,2,,,,,1,,,69,0
362560,note_off,,,,,64,0,1,,,,,0,,,82,0
362560,note_off,,,,,64,0,2,,,,,1,,,70,0
362624,note_on,,,,,64,0,2,,,,,1,,,74,90
362624,note_on,,,,,64,0,1,,,,,0,,,86,103
362624,note_on,,,,,0,0,3,,,,,2,,,65,84
362624,note_off,,,,,128,0,3,,,,,2,,,65,0
362688,note_off,,,,,64,0,2,,,,,1,,,74,0
362688,note_off,,,,,64,0,1,,,,,0,,,86,0
362752,note_on,,,,,64,0,2,,,,,1,,,72,90
362752,note_on,,,,,64,0,1,,,,,0,,,84,103
362752,note_on,,,,,0,0,3,,,,,2,,,65,84
362752,note_off,,,,,128,0,3,,,,,2,,,65,0
362816,note_off,,,,,64,0,2,,,,,1,,,72,0
362816,note_off,,,,,64,0,1,,,,,0,,,84,0
362880,note_off,,,,,128,0,3,,,,,2,,,65,0
362880,note_on,,,,,0,0,3,,,,,2,,,65,84
362880,note_off,,,,,384,0,4,,,,,3,,,62,0
362880,note_on,,,,,0,0,4,,,,,3,,,65,78
362880,note_on,,,,,64,0,1,,,,,0,,,82,103
362880,note_on,,,,,64,0,2,,,,,1,,,70,90
362944,note_off,,,,,64,0,2,,,,,1,,,70,0
362944,note_off,,,,,64,0,1,,,,,0,,,82,0
363008,note_on,,,,,64,0,2,,,,,1,,,69,90
363008,note_off,,,,,128,0,3,,,,,2,,,65,0
363008,note_on,,,,,0,0,3,,,,,2,,,65,84
363008,note_on,,,,,64,0,1,,,,,0,,,81,103
363072,note_off,,,,,64,0,2,,,,,1,,,69,0
363072,note_off,,,,,64,0,1,,,,,0,,,81,0
363136,note_on,,,,,0,0,3,,,,,2,,,65,84
363136,note_on,,,,,64,0,1,,,,,0,,,79,103
363136,note_on,,,,,64,0,2,,,,,1,,,67,90
363136,note_off,,,,,128,0,3,,,,,2,,,65,0
363200,note_off,,,,,64,0,2,,,,,1,,,67,0
363200,note_off,,,,,64,0,1,,,,,0,,,79,0
363264,note_off,,,,,384,0,4,,,,,3,,,65,0
363264,note_on,,,,,64,0,1,,,,,0,,,77,103
363264,note_off,,,,,128,0,3,,,,,2,,,65,0
363264,note_on,,,,,64,0,2,,,,,1,,,65,90
363264,note_on,,,,,0,0,3,,,,,2,,,65,84
363328,note_off,,,,,64,0,1,,,,,0,,,77,0
363328,note_off,,,,,64,0,2,,,,,1,,,65,0
363392,note_on,,,,,64,0,1,,,,,0,,,79,103
363392,note_on,,,,,64,0,2,,,,,1,,,67,90
363392,note_on,,,,,0,0,3,,,,,2,,,65,84
363392,note_off,,,,,128,0,3,,,,,2,,,65,0
363456,note_off,,,,,64,0,2,,,,,1,,,67,0
363456,note_off,,,,,64,0,1,,,,,0,,,79,0
363520,note_off,,,,,128,0,3,,,,,2,,,65,0
363520,note_on,,,,,0,0,3,,,,,2,,,65,84
363520,note_on,,,,,64,0,2,,,,,1,,,64,90
363520,note_on,,,,,64,0,1,,,,,0,,,76,103
363584,note_off,,,,,64,0,1,,,,,0,,,76,0
363584,note_off,,,,,64,0,2,,,,,1,,,64,0
363648,note_off,,,,,128,0,3,,,,,2,,,65,0
363648,note_on,,,,,384,0,4,,,,,3,,,58,78
363648,note_on,,,,,64,0,1,,,,,0,,,77,103
363648,note_on,,,,,64,0,2,,,,,1,,,65,90
363648,note_on,,,,,0,0,3,,,,,2,,,65,84
363712,note_off,,,,,64,0,1,,,,,0,,,77,0
363712,note_off,,,,,64,0,2,,,,,1,,,65,0
363776,note_on,,,,,64,0,2,,,,,1,,,70,90
363776,note_off,,,,,128,0,3,,,,,2,,,65,0
363776,note_on,,,,,64,0,1,,,,,0,,,82,103
363776,note_on,,,,,0,0,3,,,,,2,,,65,84
363840,note_off,,,,,64,0,2,,,,,1,,,70,0
363840,note_off,,,,,64,0,1,,,,,0,,,82,0
363904,note_off,,,,,128,0,3,,,,,2,,,65,0
363904,note_on,,,,,64,0,2,,,,,1,,,74,90
363904,note_on,,,,,0,0,3,,,,,2,,,65,84
363904,note_on,,,,,64,0,1,,,,,0,,,86,103
363968,note_off,,,,,64,0,2,,,,,1,,,74,0
363968,note_off,,,,,64,0,1,,,,,0,,,86,0
364032,note_off,,,,,128,0,3,,,,,2,,,65,0
364032,note_on,,,,,0,0,3,,,,,2,,,65,84
364032,note_on,,,,,64,0,2,,,,,1,,,75,90
364032,note_off,,,,,384,0,4,,,,,3,,,58,0
364032,note_on,,,,,0,0,4,,,,,3,,,57,78
364032,note_on,,,,,64,0,1,,,,,0,,,87,103
364160,note_off,,,,,128,0,3,,,,,2,,,65,0
364160,note_on,,,,,0,0,3,,,,,2,,,65,84
364288,note_off,,,,,128,0,3,,,,,2,,,65,0
364288,note_on,,,,,0,0,3,,,,,2,,,65,84
364416,note_off,,,,,128,0,3,,,,,2,,,65,0
364416,note_on,,,,,0,0,3,,,,,2,,,65,84
364544,note_off,,,,,128,0,3,,,,,2,,,65,0
364544,note_on,,,,,0,0,3,,,,,2,,,65,84
364672,note_off,,,,,128,0,3,,,,,2,,,65,0
364672,note_on,,,,,0,0,3,,,,,2,,,65,84
364800,note_off,,,,,768,0,1,,,,,0,,,87,0
364800,note_off,,,,,128,0,3,,,,,2,,,65,0
364800,note_on,,,,,0,0,3,,,,,2,,,65,84
364800,note_off,,,,,768,0,4,,,,,3,,,57,0
364800,note_on,,,,,0,0,1,,,,,0,,,84,103
364800,note_on,,,,,0,0,4,,,,,3,,,60,78
364800,note_off,,,,,768,0,2,,,,,1,,,75,0
364800,note_on,,,,,0,0,2,,,,,1,,,72,90
364928,note_on,,,,,0,0,3,,,,,2,,,65,84
364928,note_off,,,,,128,0,3,,,,,2,,,65,0
365056,note_on,,,,,0,0,3,,,,,2,,,65,84
365056,note_off,,,,,128,0,3,,,,,2,,,65,0
365184,note_off,,,,,128,0,3,,,,,2,,,65,0
365184,note_off,,,,,384,0,4,,,,,3,,,60,0
365184,note_on,,,,,0,0,4,,,,,3,,,63,78
365184,note_on,,,,,0,0,2,,,,,1,,,69,90
365184,note_on,,,,,0,0,3,,,,,2,,,65,84
365184,note_off,,,,,384,0,2,,,,,1,,,72,0
365184,note_off,,,,,384,0,1,,,,,0,,,84,0
365184,note_on,,,,,0,0,1,,,,,0,,,81,103
365312,note_on,,,,,0,0,3,,,,,2,,,65,84
365312,note_off,,,,,128,0,3,,,,,2,,,65,0
365440,note_off,,,,,128,0,3,,,,,2,,,65,0
365440,note_on,,,,,0,0,3,,,,,2,,,65,84
365568,note_off,,,,,128,0,3,,,,,2,,,65,0
365568,note_on,,,,,0,0,3,,,,,2,,,65,84
365568,note_off,,,,,384,0,1,,,,,0,,,81,0
365568,note_on,,,,,0,0,2,,,,,1,,,70,90
365568,note_on,,,,,0,0,1,,,,,0,,,82,103
365568,note_off,,,,,384,0,2,,,,,1,,,69,0
365568,note_off,,,,,384,0,4,,,,,3,,,63,0
365568,note_on,,,,,0,0,4,,,,,3,,,62,78
365632,note_off,,,,,64,0,1,,,,,0,,,82,0
365632,note_off,,,,,64,0,2,,,,,1,,,70,0
365696,note_on,,,,,64,0,2,,,,,1,,,74,90
365696,note_on,,,,,64,0,1,,,,,0,,,86,103
365696,note_on,,,,,0,0,3,,,,,2,,,65,84
365696,note_off,,,,,128,0,3,,,,,2,,,65,0
365760,note_off,,,,,64,0,1,,,,,0,,,86,0
365760,note_off,,,,,64,0,2,,,,,1,,,74,0
365824,note_on,,,,,64,0,2,,,,,1,,,72,90
365824,note_off,,,,,128,0,3,,,,,2,,,65,0
365824,note_on,,,,,0,0,3,,,,,2,,,65,84
365824,note_on,,,,,64,0,1,,,,,0,,,84,103
365888,note_off,,,,,64,0,2,,,,,1,,,72,0
365888,note_off,,,,,64,0,1,,,,,0,,,84,0
365952,note_on,,,,,64,0,2,,,,,1,,,70,90
365952,note_off,,,,,128,0,3,,,,,2,,,65,0
365952,note_on,,,,,0,0,3,,,,,2,,,65,84
365952,note_on,,,,,64,0,1,,,,,0,,,82,103
365952,note_off,,,,,384,0,4,,,,,3,,,62,0
365952,note_on,,,,,0,0,4,,,,,3,,,65,78
366016,note_off,,,,,64,0,1,,,,,0,,,82,0
366016,note_off,,,,,64,0,2,,,,,1,,,70,0
366080,note_on,,,,,0,0,3,,,,,2,,,65,84
366080,note_off,,,,,128,0,3,,,,,2,,,65,0
366080,note_on,,,,,64,0,2,,,,,1,,,69,90
366080,note_on,,,,,64,0,1,,,,,0,,,81,103
366144,note_off,,,,,64,0,1,,,,,0,,,81,0
366144,note_off,,,,,64,0,2,,,,,1,,,69,0
366208,note_on,,,,,0,0,3,,,,,2,,,65,84
366208,note_on,,,,,64,0,1,,,,,0,,,79,103
366208,note_on,,,,,64,0,2,,,,,1,,,67,90
366208,note_off,,,,,128,0,3,,,,,2,,,65,0
366272,note_off,,,,,64,0,1,,,,,0,,,79,0
366272,note_off,,,,,64,0,2,,,,,1,,,67,0
366336,note_on,,,,,64,0,2,,,,,1,,,65,90
366336,note_on,,,,,0,0,3,,,,,2,,,65,84
366336,note_on,,,,,64,0,1,,,,,0,,,77,103
366336,note_off,,,,,384,0,4,,,,,3,,,65,0
366336,note_off,,,,,128,0,3,,,,,2,,,65,0
366400,note_off,,,,,64,0,1,,,,,0,,,77,0
366400,note_off,,,,,64,0,2,,,,,1,,,65,0
366464,note_on,,,,,64,0,1,,,,,0,,,79,103
366464,note_on,,,,,0,0,3,,,,,2,,,65,84
366464,note_on,,,,,64,0,2,,,,,1,,,67,90
366464,note_off,,,,,128,0,3,,,,,2,,,65,0
366528,note_off,,,,,64,0,2,,,,,1,,,67,0
366528,note_off,,,,,64,0,1,,,,,0,,,79,0
366592,note_on,,,,,0,0,3,,,,,2,,,65,84
366592,note_on,,,,,64,0,2,,,,,1,,,64,90
366592,note_off,,,,,128,0,3,,,,,2,,,65,0
366592,note_on,,,,,64,0,1,,,,,0,,,76,103
366656,note_off,,,,,64,0,2,,,,,1,,,64,0
366656,note_off,,,,,64,0,1,,,,,0,,,76,0
366720,note_on,,,,,64,0,2,,,,,1,,,65,90
366720,note_off,,,,,128,0,3,,,,,2,,,65,0
366720,note_on,,,,,64,0,1,,,,,0,,,77,103
366720,note_on,,,,,0,0,3,,,,,2,,,65,84
366720,note_on,,,,,384,0,4,,,,,3,,,62,78
366848,note_off,,,,,128,0,3,,,,,2,,,65,0
366848,note_on,,,,,0,0,3,,,,,2,,,65,84
366976,note_on,,,,,0,0,3,,,,,2,,,65,84
366976,note_off,,,,,128,0,3,,,,,2,,,65,0
367008,note_on,,,,,0,0,2,,,,,1,,,74,90
367008,note_off,,,,,288,0,2,,,,,1,,,65,0
367008,note_on,,,,,0,0,1,,,,,0,,,86,103
367008,note_off,,,,,288,0,1,,,,,0,,,77,0
367104,note_off,,,,,96,0,1,,,,,0,,,86,0
367104,note_off,,,,,384,0,4,,,,,3,,,62,0
367104,note_on,,,,,0,0,1,,,,,0,,,89,103
367104,note_on,,,,,0,0,4,,,,,3,,,59,78
367104,note_on,,,,,0,0,2,,,,,1,,,77,90
367104,note_off,,,,,96,0,2,,,,,1,,,74,0
367104,note_off,,,,,128,0,3,,,,,2,,,65,0
367104,note_on,,,,,0,0,3,,,,,2,,,67,84
367104,note_on,,,,,0,0,3,,,,,2,,,55,84
367232,note_off,,,,,128,0,3,,,,,2,,,67,0
367232,note_off,,,,,0,0,3,,,,,2,,,55,0
367232,note_on,,,,,0,0,3,,,,,2,,,55,84
367232,note_on,,,,,0,0,3,,,,,2,,,67,84
367360,note_off,,,,,128,0,3,,,,,2,,,55,0
367360,note_off,,,,,0,0,3,,,,,2,,,67,0
367360,note_on,,,,,0,0,3,,,,,2,,,55,84
367360,note_on,,,,,0,0,3,,,,,2,,,67,84
367488,note_off,,,,,128,0,3,,,,,2,,,55,0
367488,note_off,,,,,0,0,3,,,,,2,,,67,0
367488,note_on,,,,,0,0,3,,,,,2,,,67,84
367488,note_on,,,,,0,0,3,,,,,2,,,55,84
367616,note_off,,,,,128,0,3,,,,,2,,,67,0
367616,note_off,,,,,0,0,3,,,,,2,,,55,0
367616,note_on,,,,,0,0,3,,,,,2,,,67,84
367616,note_on,,,,,0,0,3,,,,,2,,,55,84
367744,note_on,,,,,0,0,3,,,,,2,,,67,84
367744,note_on,,,,,0,0,3,,,,,2,,,55,84
367744,note_off,,,,,0,0,3,,,,,2,,,67,0
367744,note_off,,,,,128,0,3,,,,,2,,,55,0
367872,note_on,,,,,0,0,2,,,,,1,,,74,90
367872,note_off,,,,,768,0,1,,,,,0,,,89,0
367872,note_on,,,,,0,0,1,,,,,0,,,86,103
367872,note_on,,,,,0,0,3,,,,,2,,,55,84
367872,note_on,,,,,0,0,3,,,,,2,,,67,84
367872,note_off,,,,,128,0,3,,,,,2,,,55,0
367872,note_on,,,,,0,0,4,,,,,3,,,62,78
367872,note_off,,,,,768,0,4,,,,,3,,,59,0
367872,note_off,,,,,768,0,2,,,,,1,,,77,0
367872,note_off,,,,,0,0,3,,,,,2,,,67,0
368000,note_off,,,,,0,0,3,,,,,2,,,55,0
368000,note_on,,,,,0,0,3,,,,,2,,,55,84
368000,note_on,,,,,0,0,3,,,,,2,,,67,84
368000,note_off,,,,,128,0,3,,,,,2,,,67,0
368128,note_on,,,,,0,0,3,,,,,2,,,55,84
368128,note_on,,,,,0,0,3,,,,,2,,,67,84
368128,note_off,,,,,0,0,3,,,,,2,,,55,0
368128,note_off,,,,,128,0,3,,,,,2,,,67,0
368256,note_on,,,,,0,0,4,,,,,3,,,65,78
368256,note_on,,,,,0,0,2,,,,,1,,,71,90
368256,note_off,,,,,384,0,1,,,,,0,,,86,0
368256,note_off,,,,,384,0,2,,,,,1,,,74,0
368256,note_on,,,,,0,0,1,,,,,0,,,83,103
368256,note_off,,,,,384,0,4,,,,,3,,,62,0
368256,note_off,,,,,128,0,3,,,,,2,,,67,0
368256,note_off,,,,,0,0,3,,,,,2,,,55,0
368256,note_on,,,,,0,0,3,,,,,2,,,55,84
368256,note_on,,,,,0,0,3,,,,,2,,,67,84
368384,note_off,,,,,128,0,3,,,,,2,,,55,0
368384,note_on,,,,,0,0,3,,,,,2,,,67,84
368384,note_off,,,,,0,0,3,,,,,2,,,67,0
368384,note_on,,,,,0,0,3,,,,,2,,,55,84
368512,note_on,,,,,0,0,3,,,,,2,,,55,84
368512,note_on,,,,,0,0,3,,,,,2,,,67,84
368512,note_off,,,,,0,0,3,,,,,2,,,67,0
368512,note_off,,,,,128,0,3,,,,,2,,,55,0
368640,note_off,,,,,128,0,3,,,,,2,,,67,0
368640,note_off,,,,,384,0,4,,,,,3,,,65,0
368640,note_on,,,,,0,0,4,,,,,3,,,63,78
368640,note_on,,,,,0,0,3,,,,,2,,,67,84
368640,note_off,,,,,384,0,2,,,,,1,,,71,0
368640,note_on,,,,,0,0,2,,,,,1,,,72,90
368640,note_off,,,,,384,0,1,,,,,0,,,83,0
368640,note_on,,,,,0,0,1,,,,,0,,,84,103
368640,note_off,,,,,0,0,3,,,,,2,,,55,0
368640,note_on,,,,,0,0,3,,,,,2,,,55,84
368704,note_off,,,,,64,0,2,,,,,1,,,72,0
368704,note_off,,,,,64,0,1,,,,,0,,,84,0
368768,note_on,,,,,64,0,2,,,,,1,,,75,90
368768,note_on,,,,,0,0,3,,,,,2,,,67,84
368768,note_off,,,,,128,0,3,,,,,2,,,67,0
368768,note_off,,,,,0,0,3,,,,,2,,,55,0
368768,note_on,,,,,0,0,3,,,,,2,,,55,84
368768,note_on,,,,,64,0,1,,,,,0,,,87,103
368832,note_off,,,,,64,0,2,,,,,1,,,75,0
368832,note_off,,,,,64,0,1,,,,,0,,,87,0
368896,note_off,,,,,0,0,3,,,,,2,,,67,0
368896,note_on,,,,,0,0,3,,,,,2,,,55,84
368896,note_on,,,,,0,0,3,,,,,2,,,67,84
368896,note_on,,,,,64,0,2,,,,,1,,,74,90
368896,note_on,,,,,64,0,1,,,,,0,,,86,103
368896,note_off,,,,,128,0,3,,,,,2,,,55,0
368960,note_off,,,,,64,0,2,,,,,1,,,74,0
368960,note_off,,,,,64,0,1,,,,,0,,,86,0
369024,note_on,,,,,64,0,2,,,,,1,,,72,90
369024,note_off,,,,,384,0,4,,,,,3,,,63,0
369024,note_on,,,,,64,0,1,,,,,0,,,84,103
369024,note_on,,,,,0,0,3,,,,,2,,,67,84
369024,note_off,,,,,0,0,3,,,,,2,,,67,0
369024,note_off,,,,,128,0,3,,,,,2,,,55,0
369024,note_on,,,,,0,0,4,,,,,3,,,67,78
369024,note_on,,,,,0,0,3,,,,,2,,,55,84
369088,note_off,,,,,64,0,1,,,,,0,,,84,0
369088,note_off,,,,,64,0,2,,,,,1,,,72,0
369152,note_on,,,,,64,0,1,,,,,0,,,82,103
369152,note_off,,,,,128,0,3,,,,,2,,,67,0
369152,note_off,,,,,0,0,3,,,,,2,,,55,0
369152,note_on,,,,,0,0,3,,,,,2,,,55,84
369152,note_on,,,,,0,0,3,,,,,2,,,67,84
369152,note_on,,,,,64,0,2,,,,,1,,,70,90
369216,note_off,,,,,64,0,2,,,,,1,,,70,0
369216,note_off,,,,,64,0,1,,,,,0,,,82,0
369280,note_on,,,,,0,0,3,,,,,2,,,67,84
369280,note_on,,,,,64,0,1,,,,,0,,,80,103
369280,note_on,,,,,0,0,3,,,,,2,,,55,84
369280,note_on,,,,,64,0,2,,,,,1,,,68,90
369280,note_off,,,,,128,0,3,,,,,2,,,55,0
369280,note_off,,,,,0,0,3,,,,,2,,,67,0
369344,note_off,,,,,64,0,1,,,,,0,,,80,0
369344,note_off,,,,,64,0,2,,,,,1,,,68,0
369408,note_on,,,,,64,0,2,,,,,1,,,67,90
369408,note_off,,,,,384,0,4,,,,,3,,,67,0
369408,note_on,,,,,64,0,1,,,,,0,,,79,103
369408,note_on,,,,,0,0,3,,,,,2,,,67,84
369408,note_off,,,,,0,0,3,,,,,2,,,67,0
369408,note_off,,,,,128,0,3,,,,,2,,,55,0
369408,note_on,,,,,0,0,3,,,,,2,,,55,84
369472,note_off,,,,,64,0,1,,,,,0,,,79,0
369472,note_off,,,,,64,0,2,,,,,1,,,67,0
369536,note_on,,,,,64,0,1,,,,,0,,,80,103
369536,note_on,,,,,0,0,3,,,,,2,,,55,84
369536,note_on,,,,,0,0,3,,,,,2,,,67,84
369536,note_off,,,,,0,0,3,,,,,2,,,55,0
369536,note_off,,,,,128,0,3,,,,,2,,,67,0
369536,note_on,,,,,64,0,2,,,,,1,,,68,90
369600,note_off,,,,,64,0,2,,,,,1,,,68,0
369600,note_off,,,,,64,0,1,,,,,0,,,80,0
369664,note_on,,,,,0,0,3,,,,,2,,,55,84
369664,note_on,,,,,0,0,3,,,,,2,,,67,84
369664,note_off,,,,,0,0,3,,,,,2,,,55,0
369664,note_off,,,,,128,0,3,,,,,2,,,67,0
369664,note_on,,,,,64,0,2,,,,,1,,,66,90
369664,note_on,,,,,64,0,1,,,,,0,,,78,103
369728,note_off,,,,,64,0,2,,,,,1,,,66,0
369728,note_off,,,,,64,0,1,,,,,0,,,78,0
369792,note_off,,,,,0,0,3,,,,,2,,,55,0
369792,note_on,,,,,384,0,4,,,,,3,,,60,78
369792,note_on,,,,,0,0,3,,,,,2,,,67,84
369792,note_on,,,,,0,0,3,,,,,2,,,55,84
369792,note_on,,,,,64,0,1,,,,,0,,,79,103
369792,note_on,,,,,64,0,2,,,,,1,,,67,90
369792,note_off,,,,,128,0,3,,,,,2,,,67,0
369856,note_off,,,,,64,0,1,,,,,0,,,79,0
369856,note_off,,,,,64,0,2,,,,,1,,,67,0
369920,note_off,,,,,0,0,3,,,,,2,,,67,0
369920,note_off,,,,,128,0,3,,,,,2,,,55,0
369920,note_on,,,,,0,0,3,,,,,2,,,67,84
369920,note_on,,,,,0,0,3,,,,,2,,,55,84
369920,note_on,,,,,64,0,1,,,,,0,,,84,103
369920,note_on,,,,,64,0,2,,,,,1,,,72,90
369984,note_off,,,,,64,0,1,,,,,0,,,84,0
369984,note_off,,,,,64,0,2,,,,,1,,,72,0
370048,note_on,,,,,0,0,3,,,,,2,,,55,84
370048,note_on,,,,,64,0,1,,,,,0,,,87,103
370048,note_on,,,,,64,0,2,,,,,1,,,75,90
370048,note_on,,,,,0,0,3,,,,,2,,,67,84
370048,note_off,,,,,0,0,3,,,,,2,,,67,0
370048,note_off,,,,,128,0,3,,,,,2,,,55,0
370112,note_off,,,,,64,0,1,,,,,0,,,87,0
370112,note_off,,,,,64,0,2,,,,,1,,,75,0
370176,note_on,,,,,64,0,2,,,,,1,,,77,90
370176,note_off,,,,,128,0,3,,,,,2,,,67,0
370176,note_off,,,,,0,0,3,,,,,2,,,55,0
370176,note_on,,,,,0,0,3,,,,,2,,,67,84
370176,note_on,,,,,0,0,3,,,,,2,,,55,84
370176,note_on,,,,,64,0,1,,,,,0,,,89,103
370176,note_on,,,,,0,0,4,,,,,3,,,59,78
370176,note_off,,,,,384,0,4,,,,,3,,,60,0
370304,note_on,,,,,0,0,3,,,,,2,,,67,84
370304,note_off,,,,,128,0,3,,,,,2,,,67,0
370304,note_off,,,,,0,0,3,,,,,2,,,55,0
370304,note_on,,,,,0,0,3,,,,,2,,,55,84
370432,note_off,,,,,128,0,3,,,,,2,,,55,0
370432,note_off,,,,,0,0,3,,,,,2,,,67,0
370432,note_on,,,,,0,0,3,,,,,2,,,55,84
370432,note_on,,,,,0,0,3,,,,,2,,,67,84
370560,note_off,,,,,128,0,3,,,,,2,,,55,0
370560,note_on,,,,,0,0,3,,,,,2,,,55,84
370560,note_on,,,,,0,0,3,,,,,2,,,67,84
370560,note_off,,,,,0,0,3,,,,,2,,,67,0
370688,note_off,,,,,0,0,3,,,,,2,,,55,0
370688,note_on,,,,,0,0,3,,,,,2,,,55,84
370688,note_on,,,,,0,0,3,,,,,2,,,67,84
370688,note_off,,,,,128,0,3,,,,,2,,,67,0
370816,note_off,,,,,128,0,3,,,,,2,,,55,0
370816,note_off,,,,,0,0,3,,,,,2,,,67,0
370816,note_on,,,,,0,0,3,,,,,2,,,55,84
370816,note_on,,,,,0,0,3,,,,,2,,,67,84
370944,note_on,,,,,0,0,3,,,,,2,,,55,84
370944,note_off,,,,,128,0,3,,,,,2,,,55,0
370944,note_on,,,,,0,0,4,,,,,3,,,62,78
370944,note_off,,,,,768,0,4,,,,,3,,,59,0
370944,note_off,,,,,0,0,3,,,,,2,,,67,0
370944,note_on,,,,,0,0,3,,,,,2,,,67,84
370944,note_on,,,,,0,0,1,,,,,0,,,86,103
370944,note_on,,,,,0,0,2,,,,,1,,,74,90
370944,note_off,,,,,768,0,2,,,,,1,,,77,0
370944,note_off,,,,,768,0,1,,,,,0,,,89,0
371072,note_on,,,,,0,0,3,,,,,2,,,67,84
371072,note_on,,,,,0,0,3,,,,,2,,,55,84
371072,note_off,,,,,0,0,3,,,,,2,,,55,0
371072,note_off,,,,,128,0,3,,,,,2,,,67,0
371200,note_off,,,,,0,0,3,,,,,2,,,55,0
371200,note_off,,,,,128,0,3,,,,,2,,,67,0
371200,note_on,,,,,0,0,3,,,,,2,,,55,84
371200,note_on,,,,,0,0,3,,,,,2,,,67,84
371328,note_off,,,,,384,0,4,,,,,3,,,62,0
371328,note_on,,,,,0,0,4,,,,,3,,,65,78
371328,note_on,,,,,0,0,3,,,,,2,,,55,84
371328,note_off,,,,,0,0,3,,,,,2,,,55,0
371328,note_off,,,,,128,0,3,,,,,2,,,67,0
371328,note_off,,,,,384,0,2,,,,,1,,,74,0
371328,note_on,,,,,0,0,2,,,,,1,,,71,90
371328,note_off,,,,,384,0,1,,,,,0,,,86,0
371328,note_on,,,,,0,0,1,,,,,0,,,83,103
371328,note_on,,,,,0,0,3,,,,,2,,,67,84
371456,note_off,,,,,0,0,3,,,,,2,,,67,0
371456,note_on,,,,,0,0,3,,,,,2,,,55,84
371456,note_on,,,,,0,0,3,,,,,2,,,67,84
371456,note_off,,,,,128,0,3,,,,,2,,,55,0
371584,note_on,,,,,0,0,3,,,,,2,,,67,84
371584,note_off,,,,,0,0,3,,,,,2,,,67,0
371584,note_off,,,,,128,0,3,,,,,2,,,55,0
371584,note_on,,,,,0,0,3,,,,,2,,,55,84
371712,note_off,,,,,384,0,1,,,,,0,,,83,0
371712,note_off,,,,,384,0,2,,,,,1,,,71,0
371712,note_on,,,,,0,0,2,,,,,1,,,72,90
371712,note_off,,,,,384,0,4,,,,,3,,,65,0
371712,note_on,,,,,0,0,1,,,,,0,,,84,103
371712,note_on,,,,,0,0,4,,,,,3,,,63,78
371712,note_on,,,,,0,0,3,,,,,2,,,55,84
371712,note_on,,,,,0,0,3,,,,,2,,,67,84
371712,note_off,,,,,0,0,3,,,,,2,,,55,0
371712,note_off,,,,,128,0,3,,,,,2,,,67,0
371776,note_off,,,,,64,0,1,,,,,0,,,84,0
371776,note_off,,,,,64,0,2,,,,,1,,,72,0
371840,note_on,,,,,0,0,3,,,,,2,,,67,84
371840,note_on,,,,,0,0,3,,,,,2,,,55,84
371840,note_off,,,,,0,0,3,,,,,2,,,55,0
371840,note_off,,,,,128,0,3,,,,,2,,,67,0
371840,note_on,,,,,64,0,1,,,,,0,,,87,103
371840,note_on,,,,,64,0,2,,,,,1,,,75,90
371904,note_off,,,,,64,0,2,,,,,1,,,75,0
371904,note_off,,,,,192,0,4,,,,,3,,,63,0
371904,note_off,,,,,64,0,1,,,,,0,,,87,0
371968,note_on,,,,,0,0,3,,,,,2,,,55,84
371968,note_off,,,,,0,0,3,,,,,2,,,67,0
371968,note_off,,,,,128,0,3,,,,,2,,,55,0
371968,note_on,,,,,64,0,1,,,,,0,,,86,103
371968,note_on,,,,,64,0,2,,,,,1,,,74,90
371968,note_on,,,,,0,0,3,,,,,2,,,67,84
372032,note_off,,,,,64,0,1,,,,,0,,,86,0
372032,note_off,,,,,64,0,2,,,,,1,,,74,0
372096,note_off,,,,,0,0,3,,,,,2,,,67,0
372096,note_on,,,,,64,0,1,,,,,0,,,84,103
372096,note_on,,,,,192,0,4,,,,,3,,,55,78
372096,note_on,,,,,0,0,3,,,,,2,,,67,84
372096,note_on,,,,,0,0,3,,,,,2,,,55,84
372096,note_on,,,,,64,0,2,,,,,1,,,72,90
372096,note_off,,,,,128,0,3,,,,,2,,,55,0
372160,note_off,,,,,64,0,2,,,,,1,,,72,0
372160,note_off,,,,,64,0,1,,,,,0,,,84,0
372224,note_off,,,,,0,0,3,,,,,2,,,55,0
372224,note_on,,,,,0,0,3,,,,,2,,,55,84
372224,note_on,,,,,64,0,2,,,,,1,,,70,90
372224,note_on,,,,,0,0,3,,,,,2,,,67,84
372224,note_on,,,,,64,0,1,,,,,0,,,82,103
372224,note_off,,,,,128,0,3,,,,,2,,,67,0
372288,note_off,,,,,192,0,4,,,,,3,,,55,0
372288,note_off,,,,,64,0,1,,,,,0,,,82,0
372288,note_off,,,,,64,0,2,,,,,1,,,70,0
372352,note_on,,,,,64,0,1,,,,,0,,,80,103
372352,note_on,,,,,0,0,3,,,,,2,,,67,84
372352,note_on,,,,,0,0,3,,,,,2,,,55,84
372352,note_off,,,,,0,0,3,,,,,2,,,67,0
372352,note_off,,,,,128,0,3,,,,,2,,,55,0
372352,note_on,,,,,64,0,2,,,,,1,,,68,90
372416,note_off,,,,,64,0,1,,,,,0,,,80,0
372416,note_off,,,,,64,0,2,,,,,1,,,68,0
372480,note_on,,,,,64,0,1,,,,,0,,,79,103
372480,note_off,,,,,128,0,3,,,,,2,,,55,0
372480,note_off,,,,,0,0,3,,,,,2,,,67,0
372480,note_on,,,,,0,0,3,,,,,2,,,67,84
372480,note_on,,,,,0,0,3,,,,,2,,,55,84
372480,note_on,,,,,192,0,4,,,,,3,,,51,78
372480,note_on,,,,,64,0,2,,,,,1,,,67,90
372544,note_off,,,,,64,0,1,,,,,0,,,79,0
372544,note_off,,,,,64,0,2,,,,,1,,,67,0
372608,note_on,,,,,64,0,1,,,,,0,,,80,103
372608,note_off,,,,,0,0,3,,,,,2,,,55,0
372608,note_on,,,,,0,0,3,,,,,2,,,55,84
372608,note_on,,,,,0,0,3,,,,,2,,,67,84
372608,note_off,,,,,128,0,3,,,,,2,,,67,0
372608,note_on,,,,,64,0,2,,,,,1,,,68,90
372672,note_off,,,,,64,0,2,,,,,1,,,68,0
372672,note_off,,,,,64,0,1,,,,,0,,,80,0
372672,note_off,,,,,192,0,4,,,,,3,,,51,0
372736,note_on,,,,,0,0,3,,,,,2,,,55,84
372736,note_on,,,,,64,0,1,,,,,0,,,78,103
372736,note_off,,,,,0,0,3,,,,,2,,,55,0
372736,note_on,,,,,0,0,3,,,,,2,,,67,84
372736,note_off,,,,,128,0,3,,,,,2,,,67,0
372736,note_on,,,,,64,0,2,,,,,1,,,66,90
372800,note_off,,,,,64,0,1,,,,,0,,,78,0
372800,note_off,,,,,64,0,2,,,,,1,,,66,0
372864,note_on,,,,,64,0,1,,,,,0,,,79,103
372864,note_on,,,,,0,0,3,,,,,2,,,55,84
372864,note_on,,,,,0,0,3,,,,,2,,,67,84
372864,note_on,,,,,192,0,4,,,,,3,,,48,78
372864,note_off,,,,,0,0,3,,,,,2,,,55,0
372864,note_off,,,,,128,0,3,,,,,2,,,67,0
372864,note_on,,,,,64,0,2,,,,,1,,,67,90
372928,note_off,,,,,64,0,2,,,,,1,,,67,0
372928,note_off,,,,,64,0,1,,,,,0,,,79,0
372992,note_on,,,,,0,0,3,,,,,2,,,55,84
372992,note_off,,,,,0,0,3,,,,,2,,,67,0
372992,note_off,,,,,128,0,3,,,,,2,,,55,0
372992,note_on,,,,,64,0,2,,,,,1,,,63,90
372992,note_on,,,,,64,0,1,,,,,0,,,75,103
372992,note_on,,,,,0,0,3,,,,,2,,,67,84
373056,note_off,,,,,192,0,4,,,,,3,,,48,0
373056,note_off,,,,,64,0,2,,,,,1,,,63,0
373056,note_off,,,,,64,0,1,,,,,0,,,75,0
373120,note_on,,,,,0,0,3,,,,,2,,,67,84
373120,note_off,,,,,0,0,3,,,,,2,,,67,0
373120,note_off,,,,,128,0,3,,,,,2,,,55,0
373120,note_on,,,,,64,0,2,,,,,1,,,60,90
373120,note_on,,,,,64,0,1,,,,,0,,,72,103
373120,note_on,,,,,0,0,3,,,,,2,,,55,84
373184,note_off,,,,,64,0,1,,,,,0,,,72,0
373184,note_off,,,,,64,0,2,,,,,1,,,60,0
373248,note_on,,,,,0,0,3,,,,,2,,,55,84
373248,note_on,,,,,0,0,3,,,,,2,,,67,84
373248,note_off,,,,,0,0,3,,,,,2,,,55,0
373248,note_off,,,,,128,0,3,,,,,2,,,67,0
373248,note_on,,,,,192,0,4,,,,,3,,,43,78
373248,note_on,,,,,64,0,1,,,,,0,,,67,103
373248,note_on,,,,,64,0,2,,,,,1,,,55,90
373312,note_off,,,,,64,0,2,,,,,1,,,55,0
373376,note_off,,,,,128,0,3,,,,,2,,,67,0
373376,note_on,,,,,0,0,3,,,,,2,,,55,84
373376,note_off,,,,,0,0,3,,,,,2,,,55,0
373440,note_off,,,,,192,0,4,,,,,3,,,43,0
373440,note_off,,,,,192,0,1,,,,,0,,,67,0
373504,note_off,,,,,128,0,3,,,,,2,,,55,0
373504,note_on,,,,,0,0,3,,,,,2,,,55,84
373632,note_on,,,,,320,0,2,,,,,1,,,55,90
373632,note_on,,,,,192,0,4,,,,,3,,,55,78
373632,note_on,,,,,0,0,2,,,,,1,,,67,90
373632,note_off,,,,,128,0,3,,,,,2,,,55,0
373632,note_on,,,,,0,0,3,,,,,2,,,55,84
373632,note_on,,,,,0,0,1,,,,,0,,,67,103
373632,note_on,,,,,0,0,1,,,,,0,,,79,103
373632,note_on,,,,,192,0,1,,,,,0,,,55,103
373696,note_off,,,,,0,0,2,,,,,1,,,67,0
373696,note_off,,,,,64,0,2,,,,,1,,,55,0
373760,note_off,,,,,128,0,3,,,,,2,,,55,0
373760,note_on,,,,,0,0,3,,,,,2,,,55,84
373824,note_off,,,,,192,0,4,,,,,3,,,55,0
373824,note_off,,,,,0,0,1,,,,,0,,,67,0
373824,note_off,,,,,192,0,1,,,,,0,,,55,0
373824,note_off,,,,,0,0,1,,,,,0,,,79,0
373888,note_on,,,,,0,0,3,,,,,2,,,55,84
373888,note_off,,,,,128,0,3,,,,,2,,,55,0
374016,note_on,,,,,0,0,3,,,,,2,,,55,84
374016,note_off,,,,,128,0,3,,,,,2,,,55,0
374144,note_off,,,,,128,0,3,,,,,2,,,55,0
374144,note_on,,,,,0,0,3,,,,,2,,,55,84
374272,note_on,,,,,0,0,3,,,,,2,,,55,84
374272,note_off,,,,,128,0,3,,,,,2,,,55,0
374400,note_on,,,,,0,0,3,,,,,2,,,55,84
374400,note_off,,,,,128,0,3,,,,,2,,,55,0
374528,note_on,,,,,0,0,3,,,,,2,,,55,84
374528,note_off,,,,,128,0,3,,,,,2,,,55,0
374656,note_on,,,,,0,0,3,,,,,2,,,55,84
374656,note_off,,,,,128,0,3,,,,,2,,,55,0
374784,note_on,,,,,960,0,1,,,,,0,,,82,103
374784,note_on,,,,,0,0,3,,,,,2,,,52,84
374784,note_off,,,,,128,0,3,,,,,2,,,55,0
374784,note_on,,,,,1088,0,2,,,,,1,,,60,90
374912,note_off,,,,,128,0,2,,,,,1,,,60,0
374912,note_on,,,,,0,0,2,,,,,1,,,60,90
375040,note_off,,,,,128,0,2,,,,,1,,,60,0
375040,note_on,,,,,0,0,2,,,,,1,,,60,90
375168,note_on,,,,,0,0,2,,,,,1,,,60,90
375168,note_off,,,,,128,0,2,,,,,1,,,60,0
375296,note_on,,,,,0,0,2,,,,,1,,,60,90
375296,note_off,,,,,128,0,2,,,,,1,,,60,0
375424,note_off,,,,,128,0,2,,,,,1,,,60,0
375424,note_on,,,,,0,0,2,,,,,1,,,60,90
375552,note_off,,,,,768,0,1,,,,,0,,,82,0
375552,note_on,,,,,0,0,1,,,,,0,,,79,103
375552,note_off,,,,,128,0,2,,,,,1,,,60,0
375552,note_on,,,,,0,0,2,,,,,1,,,60,90
375552,note_off,,,,,768,0,3,,,,,2,,,52,0
375552,note_on,,,,,0,0,3,,,,,2,,,55,84
375680,note_off,,,,,128,0,2,,,,,1,,,60,0
375680,note_on,,,,,0,0,2,,,,,1,,,60,90
375808,note_off,,,,,128,0,2,,,,,1,,,60,0
375808,note_on,,,,,0,0,2,,,,,1,,,60,90
375936,note_off,,,,,384,0,3,,,,,2,,,55,0
375936,note_on,,,,,0,0,3,,,,,2,,,58,84
375936,note_on,,,,,0,0,2,,,,,1,,,60,90
375936,note_off,,,,,384,0,1,,,,,0,,,79,0
375936,note_on,,,,,0,0,1,,,,,0,,,76,103
375936,note_off,,,,,128,0,2,,,,,1,,,60,0
376064,note_off,,,,,128,0,2,,,,,1,,,60,0
376064,note_on,,,,,0,0,2,,,,,1,,,60,90
376192,note_on,,,,,0,0,2,,,,,1,,,60,90
376192,note_off,,,,,128,0,2,,,,,1,,,60,0
376320,note_on,,,,,0,0,2,,,,,1,,,60,90
376320,note_off,,,,,128,0,2,,,,,1,,,60,0
376320,note_on,,,,,0,0,3,,,,,2,,,56,84
376320,note_off,,,,,384,0,3,,,,,2,,,58,0
376320,note_off,,,,,384,0,1,,,,,0,,,76,0
376320,note_on,,,,,0,0,1,,,,,0,,,77,103
376384,note_off,,,,,64,0,1,,,,,0,,,77,0
376448,note_on,,,,,0,0,2,,,,,1,,,60,90
376448,note_off,,,,,128,0,2,,,,,1,,,60,0
376448,note_on,,,,,64,0,1,,,,,0,,,80,103
376512,note_off,,,,,64,0,1,,,,,0,,,80,0
376576,note_on,,,,,0,0,2,,,,,1,,,60,90
376576,note_on,,,,,64,0,1,,,,,0,,,79,103
376576,note_off,,,,,128,0,2,,,,,1,,,60,0
376640,note_off,,,,,64,0,1,,,,,0,,,79,0
376704,note_off,,,,,128,0,2,,,,,1,,,60,0
376704,note_on,,,,,0,0,2,,,,,1,,,60,90
376704,note_on,,,,,0,0,3,,,,,2,,,60,84
376704,note_on,,,,,64,0,1,,,,,0,,,77,103
376704,note_off,,,,,384,0,3,,,,,2,,,56,0
376768,note_off,,,,,64,0,1,,,,,0,,,77,0
376832,note_on,,,,,0,0,2,,,,,1,,,60,90
376832,note_on,,,,,64,0,1,,,,,0,,,75,103
376832,note_off,,,,,128,0,2,,,,,1,,,60,0
376896,note_off,,,,,64,0,1,,,,,0,,,75,0
376960,note_on,,,,,64,0,1,,,,,0,,,73,103
376960,note_off,,,,,128,0,2,,,,,1,,,60,0
376960,note_on,,,,,0,0,2,,,,,1,,,60,90
377024,note_off,,,,,64,0,1,,,,,0,,,73,0
377088,note_off,,,,,384,0,3,,,,,2,,,60,0
377088,note_on,,,,,64,0,1,,,,,0,,,72,103
377088,note_off,,,,,128,0,2,,,,,1,,,60,0
377088,note_on,,,,,0,0,2,,,,,1,,,60,90
377152,note_off,,,,,64,0,1,,,,,0,,,72,0
377216,note_off,,,,,128,0,2,,,,,1,,,60,0
377216,note_on,,,,,0,0,2,,,,,1,,,60,90
377216,note_on,,,,,64,0,1,,,,,0,,,73,103
377280,note_off,,,,,64,0,1,,,,,0,,,73,0
377344,note_on,,,,,0,0,2,,,,,1,,,60,90
377344,note_on,,,,,64,0,1,,,,,0,,,71,103
377344,note_off,,,,,128,0,2,,,,,1,,,60,0
377408,note_off,,,,,64,0,1,,,,,0,,,71,0
377472,note_on,,,,,0,0,2,,,,,1,,,60,90
377472,note_off,,,,,128,0,2,,,,,1,,,60,0
377472,note_on,,,,,64,0,1,,,,,0,,,72,103
377472,note_on,,,,,384,0,3,,,,,2,,,53,84
377536,note_off,,,,,64,0,1,,,,,0,,,72,0
377600,note_off,,,,,128,0,2,,,,,1,,,60,0
377600,note_on,,,,,64,0,1,,,,,0,,,77,103
377600,note_on,,,,,0,0,2,,,,,1,,,60,90
377664,note_off,,,,,64,0,1,,,,,0,,,77,0
377728,note_off,,,,,128,0,2,,,,,1,,,60,0
377728,note_on,,,,,64,0,1,,,,,0,,,80,103
377728,note_on,,,,,0,0,2,,,,,1,,,60,90
377792,note_off,,,,,64,0,1,,,,,0,,,80,0
377856,note_on,,,,,0,0,2,,,,,1,,,60,90
377856,note_off,,,,,384,0,3,,,,,2,,,53,0
377856,note_on,,,,,64,0,1,,,,,0,,,82,103
377856,note_on,,,,,0,0,3,,,,,2,,,52,84
377856,note_off,,,,,128,0,2,,,,,1,,,60,0
377984,note_off,,,,,128,0,2,,,,,1,,,60,0
377984,note_on,,,,,0,0,2,,,,,1,,,60,90
378112,note_off,,,,,128,0,2,,,,,1,,,60,0
378112,note_on,,,,,0,0,2,,,,,1,,,60,90
378240,note_on,,,,,0,0,2,,,,,1,,,60,90
378240,note_off,,,,,128,0,2,,,,,1,,,60,0
378368,note_on,,,,,0,0,2,,,,,1,,,60,90
378368,note_off,,,,,128,0,2,,,,,1,,,60,0
378496,note_off,,,,,128,0,2,,,,,1,,,60,0
378496,note_on,,,,,0,0,2,,,,,1,,,60,90
378624,note_off,,,,,768,0,1,,,,,0,,,82,0
378624,note_on,,,,,0,0,1,,,,,0,,,79,103
378624,note_off,,,,,768,0,3,,,,,2,,,52,0
378624,note_off,,,,,128,0,2,,,,,1,,,60,0
378624,note_on,,,,,0,0,2,,,,,1,,,60,90
378624,note_on,,,,,0,0,3,,,,,2,,,55,84
378752,note_off,,,,,128,0,2,,,,,1,,,60,0
378752,note_on,,,,,0,0,2,,,,,1,,,60,90
378880,note_off,,,,,128,0,2,,,,,1,,,60,0
378880,note_on,,,,,0,0,2,,,,,1,,,60,90
379008,note_on,,,,,0,0,3,,,,,2,,,58,84
379008,note_on,,,,,0,0,1,,,,,0,,,76,103
379008,note_on,,,,,0,0,2,,,,,1,,,60,90
379008,note_off,,,,,384,0,3,,,,,2,,,55,0
379008,note_off,,,,,384,0,1,,,,,0,,,79,0
379008,note_off,,,,,128,0,2,,,,,1,,,60,0
379136,note_off,,,,,128,0,2,,,,,1,,,60,0
379136,note_on,,,,,0,0,2,,,,,1,,,60,90
379264,note_on,,,,,0,0,2,,,,,1,,,60,90
379264,note_off,,,,,128,0,2,,,,,1,,,60,0
379392,note_off,,,,,384,0,3,,,,,2,,,58,0
379392,note_on,,,,,0,0,3,,,,,2,,,56,84
379392,note_on,,,,,0,0,2,,,,,1,,,60,90
379392,note_off,,,,,384,0,1,,,,,0,,,76,0
379392,note_on,,,,,0,0,1,,,,,0,,,77,103
379392,note_off,,,,,128,0,2,,,,,1,,,60,0
379456,note_off,,,,,64,0,1,,,,,0,,,77,0
379520,note_off,,,,,128,0,2,,,,,1,,,60,0
379520,note_on,,,,,0,0,2,,,,,1,,,60,90
379520,note_on,,,,,64,0,1,,,,,0,,,80,103
379584,note_off,,,,,64,0,1,,,,,0,,,80,0
379648,note_off,,,,,128,0,2,,,,,1,,,60,0
379648,note_on,,,,,64,0,1,,,,,0,,,79,103
379648,note_on,,,,,0,0,2,,,,,1,,,60,90
379712,note_off,,,,,64,0,1,,,,,0,,,79,0
379776,note_off,,,,,384,0,3,,,,,2,,,56,0
379776,note_on,,,,,0,0,3,,,,,2,,,60,84
379776,note_on,,,,,64,0,1,,,,,0,,,77,103
379776,note_off,,,,,128,0,2,,,,,1,,,60,0
379776,note_on,,,,,0,0,2,,,,,1,,,60,90
379840,note_off,,,,,64,0,1,,,,,0,,,77,0
379904,note_on,,,,,64,0,1,,,,,0,,,75,103
379904,note_off,,,,,128,0,2,,,,,1,,,60,0
379904,note_on,,,,,0,0,2,,,,,1,,,60,90
379968,note_off,,,,,64,0,1,,,,,0,,,75,0
380032,note_on,,,,,64,0,1,,,,,0,,,73,103
380032,note_off,,,,,128,0,2,,,,,1,,,60,0
380032,note_on,,,,,0,0,2,,,,,1,,,60,90
380096,note_off,,,,,64,0,1,,,,,0,,,73,0
380160,note_off,,,,,128,0,2,,,,,1,,,60,0
380160,note_on,,,,,0,0,2,,,,,1,,,60,90
380160,note_off,,,,,384,0,3,,,,,2,,,60,0
380160,note_on,,,,,64,0,1,,,,,0,,,72,103
380224,note_off,,,,,64,0,1,,,,,0,,,72,0
380288,note_off,,,,,128,0,2,,,,,1,,,60,0
380288,note_on,,,,,64,0,1,,,,,0,,,73,103
380288,note_on,,,,,0,0,2,,,,,1,,,60,90
380352,note_off,,,,,64,0,1,,,,,0,,,73,0
380416,note_off,,,,,128,0,2,,,,,1,,,60,0
380416,note_on,,,,,64,0,1,,,,,0,,,71,103
380416,note_on,,,,,0,0,2,,,,,1,,,60,90
380480,note_off,,,,,64,0,1,,,,,0,,,71,0
380544,note_on,,,,,64,0,1,,,,,0,,,72,103
380544,note_on,,,,,384,0,3,,,,,2,,,56,84
380544,note_off,,,,,128,0,2,,,,,1,,,60,0
380544,note_on,,,,,0,0,2,,,,,1,,,60,90
380672,note_off,,,,,128,0,2,,,,,1,,,60,0
380672,note_on,,,,,0,0,2,,,,,1,,,60,90
380800,note_off,,,,,128,0,2,,,,,1,,,60,0
380800,note_on,,,,,0,0,2,,,,,1,,,60,90
380832,note_on,,,,,0,0,3,,,,,2,,,53,84
380832,note_on,,,,,0,0,1,,,,,0,,,77,103
380832,note_off,,,,,288,0,1,,,,,0,,,72,0
380832,note_off,,,,,288,0,3,,,,,2,,,56,0
380928,note_on,,,,,0,0,2,,,,,1,,,58,90
380928,note_off,,,,,96,0,3,,,,,2,,,53,0
380928,note_on,,,,,0,0,1,,,,,0,,,80,103
380928,note_off,,,,,96,0,1,,,,,0,,,77,0
380928,note_on,,,,,0,0,3,,,,,2,,,50,84
380928,note_off,,,,,128,0,2,,,,,1,,,60,0
381056,note_off,,,,,128,0,2,,,,,1,,,58,0
381056,note_on,,,,,0,0,2,,,,,1,,,58,90
381184,note_on,,,,,0,0,2,,,,,1,,,58,90
381184,note_off,,,,,128,0,2,,,,,1,,,58,0
381312,note_on,,,,,0,0,2,,,,,1,,,58,90
381312,note_off,,,,,128,0,2,,,,,1,,,58,0
381440,note_on,,,,,0,0,2,,,,,1,,,58,90
381440,note_off,,,,,128,0,2,,,,,1,,,58,0
381568,note_off,,,,,128,0,2,,,,,1,,,58,0
381568,note_on,,,,,0,0,2,,,,,1,,,58,90
381696,note_off,,,,,128,0,2,,,,,1,,,58,0
381696,note_off,,,,,768,0,1,,,,,0,,,80,0
381696,note_on,,,,,0,0,1,,,,,0,,,77,103
381696,note_off,,,,,768,0,3,,,,,2,,,50,0
381696,note_on,,,,,0,0,2,,,,,1,,,58,90
381696,note_on,,,,,0,0,3,,,,,2,,,53,84
381824,note_off,,,,,128,0,2,,,,,1,,,58,0
381824,note_on,,,,,0,0,2,,,,,1,,,58,90
381952,note_off,,,,,128,0,2,,,,,1,,,58,0
381952,note_on,,,,,0,0,2,,,,,1,,,58,90
382080,note_on,,,,,0,0,3,,,,,2,,,56,84
382080,note_off,,,,,128,0,2,,,,,1,,,58,0
382080,note_off,,,,,384,0,1,,,,,0,,,77,0
382080,note_on,,,,,0,0,1,,,,,0,,,74,103
382080,note_on,,,,,0,0,2,,,,,1,,,58,90
382080,note_off,,,,,384,0,3,,,,,2,,,53,0
382208,note_off,,,,,128,0,2,,,,,1,,,58,0
382208,note_on,,,,,0,0,2,,,,,1,,,58,90
382336,note_on,,,,,0,0,2,,,,,1,,,58,90
382336,note_off,,,,,128,0,2,,,,,1,,,58,0
382464,note_on,,,,,0,0,1,,,,,0,,,75,103
382464,note_off,,,,,384,0,1,,,,,0,,,74,0
382464,note_off,,,,,128,0,2,,,,,1,,,58,0
382464,note_on,,,,,0,0,3,,,,,2,,,55,84
382464,note_off,,,,,384,0,3,,,,,2,,,56,0
382464,note_on,,,,,0,0,2,,,,,1,,,58,90
382528,note_off,,,,,64,0,1,,,,,0,,,75,0
382592,note_on,,,,,0,0,2,,,,,1,,,58,90
382592,note_off,,,,,128,0,2,,,,,1,,,58,0
382592,note_on,,,,,64,0,1,,,,,0,,,79,103
382656,note_off,,,,,64,0,1,,,,,0,,,79,0
382720,note_off,,,,,128,0,2,,,,,1,,,58,0
382720,note_on,,,,,0,0,2,,,,,1,,,58,90
382720,note_on,,,,,64,0,1,,,,,0,,,77,103
382784,note_off,,,,,64,0,1,,,,,0,,,77,0
382848,note_off,,,,,128,0,2,,,,,1,,,58,0
382848,note_on,,,,,0,0,2,,,,,1,,,58,90
382848,note_off,,,,,384,0,3,,,,,2,,,55,0
382848,note_on,,,,,0,0,3,,,,,2,,,58,84
382848,note_on,,,,,64,0,1,,,,,0,,,75,103
382912,note_off,,,,,64,0,1,,,,,0,,,75,0
382976,note_off,,,,,128,0,2,,,,,1,,,58,0
382976,note_on,,,,,64,0,1,,,,,0,,,74,103
382976,note_on,,,,,0,0,2,,,,,1,,,58,90
383040,note_off,,,,,64,0,1,,,,,0,,,74,0
383104,note_off,,,,,128,0,2,,,,,1,,,58,0
383104,note_on,,,,,0,0,2,,,,,1,,,58,90
383104,note_on,,,,,64,0,1,,,,,0,,,72,103
383168,note_off,,,,,64,0,1,,,,,0,,,72,0
383232,note_off,,,,,128,0,2,,,,,1,,,58,0
383232,note_on,,,,,0,0,2,,,,,1,,,58,90
383232,note_on,,,,,64,0,1,,,,,0,,,70,103
383232,note_off,,,,,384,0,3,,,,,2,,,58,0
383296,note_off,,,,,64,0,1,,,,,0,,,70,0
383360,note_off,,,,,128,0,2,,,,,1,,,58,0
383360,note_on,,,,,0,0,2,,,,,1,,,58,90
383360,note_on,,,,,64,0,1,,,,,0,,,72,103
383424,note_off,,,,,64,0,1,,,,,0,,,72,0
383488,note_on,,,,,64,0,1,,,,,0,,,69,103
383488,note_off,,,,,128,0,2,,,,,1,,,58,0
383488,note_on,,,,,0,0,2,,,,,1,,,58,90
383552,note_off,,,,,64,0,1,,,,,0,,,69,0
383616,note_on,,,,,0,0,2,,,,,1,,,58,90
383616,note_off,,,,,128,0,2,,,,,1,,,58,0
383616,note_on,,,,,64,0,1,,,,,0,,,70,103
383616,note_on,,,,,384,0,3,,,,,2,,,51,84
383680,note_off,,,,,64,0,1,,,,,0,,,70,0
383744,note_on,,,,,64,0,1,,,,,0,,,75,103
383744,note_on,,,,,0,0,2,,,,,1,,,58,90
383744,note_off,,,,,128,0,2,,,,,1,,,58,0
383808,note_off,,,,,64,0,1,,,,,0,,,75,0
383872,note_on,,,,,0,0,2,,,,,1,,,58,90
383872,note_on,,,,,64,0,1,,,,,0,,,79,103
383872,note_off,,,,,128,0,2,,,,,1,,,58,0
383936,note_off,,,,,64,0,1,,,,,0,,,79,0
384000,note_off,,,,,128,0,2,,,,,1,,,58,0
384000,note_on,,,,,0,0,2,,,,,1,,,58,90
384000,note_on,,,,,64,0,1,,,,,0,,,80,103
384000,note_off,,,,,384,0,3,,,,,2,,,51,0
384000,note_on,,,,,0,0,3,,,,,2,,,50,84
384128,note_off,,,,,128,0,2,,,,,1,,,58,0
384128,note_on,,,,,0,0,2,,,,,1,,,58,90
384256,note_off,,,,,128,0,2,,,,,1,,,58,0
384256,note_on,,,,,0,0,2,,,,,1,,,58,90
384384,note_off,,,,,128,0,2,,,,,1,,,58,0
384384,note_on,,,,,0,0,2,,,,,1,,,58,90
384512,note_on,,,,,0,0,2,,,,,1,,,58,90
384512,note_off,,,,,128,0,2,,,,,1,,,58,0
384640,note_on,,,,,0,0,2,,,,,1,,,58,90
384640,note_off,,,,,128,0,2,,,,,1,,,58,0
384768,note_off,,,,,128,0,2,,,,,1,,,58,0
384768,note_on,,,,,0,0,1,,,,,0,,,77,103
384768,note_on,,,,,0,0,3,,,,,2,,,53,84
384768,note_on,,,,,0,0,2,,,,,1,,,58,90
384768,note_off,,,,,768,0,3,,,,,2,,,50,0
384768,note_off,,,,,768,0,1,,,,,0,,,80,0
384896,note_on,,,,,0,0,2,,,,,1,,,58,90
384896,note_off,,,,,128,0,2,,,,,1,,,58,0
385024,note_on,,,,,0,0,2,,,,,1,,,58,90
385024,note_off,,,,,128,0,2,,,,,1,,,58,0
385152,note_off,,,,,384,0,1,,,,,0,,,77,0
385152,note_on,,,,,0,0,1,,,,,0,,,74,103
385152,note_on,,,,,0,0,3,,,,,2,,,56,84
385152,note_off,,,,,384,0,3,,,,,2,,,53,0
385152,note_off,,,,,128,0,2,,,,,1,,,58,0
385152,note_on,,,,,0,0,2,,,,,1,,,58,90
385280,note_off,,,,,128,0,2,,,,,1,,,58,0
385280,note_on,,,,,0,0,2,,,,,1,,,58,90
385408,note_off,,,,,128,0,2,,,,,1,,,58,0
385408,note_on,,,,,0,0,2,,,,,1,,,58,90
385536,note_off,,,,,384,0,1,,,,,0,,,74,0
385536,note_on,,,,,0,0,2,,,,,1,,,58,90
385536,note_off,,,,,128,0,2,,,,,1,,,58,0
385536,note_off,,,,,384,0,3,,,,,2,,,56,0
385536,note_on,,,,,0,0,3,,,,,2,,,55,84
385536,note_on,,,,,0,0,1,,,,,0,,,75,103
385600,note_off,,,,,64,0,1,,,,,0,,,75,0
385664,note_on,,,,,64,0,1,,,,,0,,,79,103
385664,note_off,,,,,128,0,2,,,,,1,,,58,0
385664,note_on,,,,,0,0,2,,,,,1,,,58,90
385728,note_off,,,,,64,0,1,,,,,0,,,79,0
385792,note_on,,,,,64,0,1,,,,,0,,,77,103
385792,note_on,,,,,0,0,2,,,,,1,,,58,90
385792,note_off,,,,,128,0,2,,,,,1,,,58,0
385856,note_off,,,,,64,0,1,,,,,0,,,77,0
385920,note_off,,,,,128,0,2,,,,,1,,,58,0
385920,note_on,,,,,0,0,3,,,,,2,,,58,84
385920,note_off,,,,,384,0,3,,,,,2,,,55,0
385920,note_on,,,,,0,0,2,,,,,1,,,58,90
385920,note_on,,,,,64,0,1,,,,,0,,,75,103
385984,note_off,,,,,64,0,1,,,,,0,,,75,0
386048,note_on,,,,,64,0,1,,,,,0,,,74,103
386048,note_off,,,,,128,0,2,,,,,1,,,58,0
386048,note_on,,,,,0,0,2,,,,,1,,,58,90
386112,note_off,,,,,64,0,1,,,,,0,,,74,0
386176,note_off,,,,,128,0,2,,,,,1,,,58,0
386176,note_on,,,,,0,0,2,,,,,1,,,58,90
386176,note_on,,,,,64,0,1,,,,,0,,,72,103
386240,note_off,,,,,64,0,1,,,,,0,,,72,0
386304,note_off,,,,,128,0,2,,,,,1,,,58,0
386304,note_on,,,,,0,0,2,,,,,1,,,58,90
386304,note_on,,,,,64,0,1,,,,,0,,,70,103
386304,note_off,,,,,384,0,3,,,,,2,,,58,0
386304,note_on,,,,,0,0,3,,,,,2,,,55,84
386368,note_off,,,,,64,0,1,,,,,0,,,70,0
386432,note_on,,,,,64,0,1,,,,,0,,,72,103
386432,note_off,,,,,128,0,2,,,,,1,,,58,0
386432,note_on,,,,,0,0,2,,,,,1,,,58,90
386496,note_off,,,,,64,0,1,,,,,0,,,72,0
386560,note_off,,,,,128,0,2,,,,,1,,,58,0
386560,note_on,,,,,0,0,2,,,,,1,,,58,90
386560,note_on,,,,,64,0,1,,,,,0,,,69,103
386624,note_off,,,,,64,0,1,,,,,0,,,69,0
386688,note_on,,,,,0,0,3,,,,,2,,,51,84
386688,note_off,,,,,128,0,2,,,,,1,,,58,0
386688,note_on,,,,,0,0,2,,,,,1,,,58,90
386688,note_off,,,,,384,0,3,,,,,2,,,55,0
386688,note_on,,,,,64,0,1,,,,,0,,,70,103
386752,note_off,,,,,64,0,1,,,,,0,,,70,0
386816,note_on,,,,,64,0,1,,,,,0,,,75,103
386816,note_off,,,,,128,0,2,,,,,1,,,58,0
386816,note_on,,,,,0,0,2,,,,,1,,,58,90
386880,note_off,,,,,64,0,1,,,,,0,,,75,0
386944,note_off,,,,,128,0,2,,,,,1,,,58,0
386944,note_on,,,,,64,0,1,,,,,0,,,79,103
386944,note_on,,,,,0,0,2,,,,,1,,,58,90
387008,note_off,,,,,64,0,1,,,,,0,,,79,0
387072,note_on,,,,,64,0,1,,,,,0,,,77,103
387072,note_on,,,,,0,0,3,,,,,2,,,58,84
387072,note_off,,,,,384,0,3,,,,,2,,,51,0
387072,note_on,,,,,0,0,2,,,,,1,,,58,90
387072,note_off,,,,,128,0,2,,,,,1,,,58,0
387072,note_on,,,,,0,0,2,,,,,1,,,62,90
387264,note_off,,,,,192,0,1,,,,,0,,,77,0
387264,note_off,,,,,192,0,2,,,,,1,,,58,0
387264,note_off,,,,,0,0,2,,,,,1,,,62,0
387264,note_off,,,,,192,0,3,,,,,2,,,58,0
387456,note_on,,,,,192,0,2,,,,,1,,,74,90
387456,note_on,,,,,192,0,1,,,,,0,,,82,103
387584,note_on,,,,,0,0,2,,,,,1,,,74,90
387584,note_on,,,,,0,0,1,,,,,0,,,82,103
387584,note_off,,,,,128,0,1,,,,,0,,,82,0
387584,note_off,,,,,128,0,2,,,,,1,,,74,0
387712,note_on,,,,,0,0,2,,,,,1,,,74,90
387712,note_off,,,,,128,0,2,,,,,1,,,74,0
387712,note_on,,,,,0,0,1,,,,,0,,,82,103
387712,note_off,,,,,128,0,1,,,,,0,,,82,0
387840,note_off,,,,,128,0,2,,,,,1,,,74,0
387840,note_on,,,,,0,0,2,,,,,1,,,74,90
387840,note_off,,,,,128,0,1,,,,,0,,,82,0
387840,note_on,,,,,0,0,1,,,,,0,,,82,103
387840,note_on,,,,,576,0,3,,,,,2,,,58,84
388032,note_off,,,,,192,0,3,,,,,2,,,58,0
388032,note_off,,,,,192,0,2,,,,,1,,,74,0
388032,note_off,,,,,192,0,1,,,,,0,,,82,0
388224,note_on,,,,,192,0,1,,,,,0,,,77,103
388224,note_on,,,,,192,0,2,,,,,1,,,74,90
388352,note_on,,,,,0,0,1,,,,,0,,,77,103
388352,note_off,,,,,128,0,1,,,,,0,,,77,0
388352,note_on,,,,,0,0,2,,,,,1,,,74,90
388352,note_off,,,,,128,0,2,,,,,1,,,74,0
388480,note_off,,,,,128,0,2,,,,,1,,,74,0
388480,note_on,,,,,0,0,2,,,,,1,,,74,90
388480,note_off,,,,,128,0,1,,,,,0,,,77,0
388480,note_on,,,,,0,0,1,,,,,0,,,77,103
388608,note_on,,,,,0,0,1,,,,,0,,,77,103
388608,note_on,,,,,576,0,3,,,,,2,,,58,84
388608,note_off,,,,,128,0,1,,,,,0,,,77,0
388608,note_on,,,,,0,0,2,,,,,1,,,74,90
388608,note_off,,,,,128,0,2,,,,,1,,,74,0
388800,note_off,,,,,192,0,1,,,,,0,,,77,0
388800,note_off,,,,,192,0,3,,,,,2,,,58,0
388800,note_off,,,,,192,0,2,,,,,1,,,74,0
388992,note_on,,,,,192,0,2,,,,,1,,,65,90
388992,note_on,,,,,192,0,1,,,,,0,,,74,103
389120,note_off,,,,,128,0,1,,,,,0,,,74,0
389120,note_on,,,,,0,0,1,,,,,0,,,74,103
389120,note_on,,,,,0,0,2,,,,,1,,,65,90
389120,note_off,,,,,128,0,2,,,,,1,,,65,0
389248,note_on,,,,,0,0,2,,,,,1,,,65,90
389248,note_off,,,,,128,0,2,,,,,1,,,65,0
389248,note_on,,,,,0,0,1,,,,,0,,,74,103
389248,note_off,,,,,128,0,1,,,,,0,,,74,0
389376,note_on,,,,,0,0,1,,,,,0,,,74,103
389376,note_on,,,,,576,0,3,,,,,2,,,58,84
389376,note_off,,,,,128,0,2,,,,,1,,,65,0
389376,note_on,,,,,0,0,2,,,,,1,,,65,90
389376,note_off,,,,,128,0,1,,,,,0,,,74,0
389568,note_off,,,,,192,0,3,,,,,2,,,58,0
389568,note_off,,,,,192,0,2,,,,,1,,,65,0
389568,note_off,,,,,192,0,1,,,,,0,,,74,0
389760,note_on,,,,,192,0,1,,,,,0,,,70,103
389760,note_on,,,,,192,0,2,,,,,1,,,62,90
389888,note_off,,,,,128,0,1,,,,,0,,,70,0
389888,note_on,,,,,0,0,2,,,,,1,,,62,90
389888,note_on,,,,,0,0,1,,,,,0,,,70,103
389888,note_off,,,,,128,0,2,,,,,1,,,62,0
390016,note_on,,,,,0,0,1,,,,,0,,,70,103
390016,note_off,,,,,128,0,2,,,,,1,,,62,0
390016,note_on,,,,,0,0,2,,,,,1,,,62,90
390016,note_off,,,,,128,0,1,,,,,0,,,70,0
390144,note_off,,,,,128,0,2,,,,,1,,,62,0
390144,note_on,,,,,0,0,2,,,,,1,,,62,90
390144,note_off,,,,,128,0,1,,,,,0,,,70,0
390144,note_on,,,,,0,0,1,,,,,0,,,70,103
390144,note_on,,,,,576,0,3,,,,,2,,,58,84
390528,note_off,,,,,384,0,1,,,,,0,,,70,0
390528,note_off,,,,,384,0,2,,,,,1,,,62,0
390528,note_off,,,,,384,0,3,,,,,2,,,58,0
391680,note_on,,,,,1152,0,2,,,,,1,,,58,90
391680,note_on,,,,,1152,0,1,,,,,0,,,63,103
391680,note_on,,,,,17856,0,4,,,,,3,,,51,78
391680,note_on,,,,,1152,0,3,,,,,2,,,55,84
392448,note_off,,,,,768,0,4,,,,,3,,,51,0
392448,note_off,,,,,768,0,2,,,,,1,,,58,0
392448,note_on,,,,,0,0,2,,,,,1,,,60,90
392448,note_on,,,,,0,0,4,,,,,3,,,48,78
393216,note_off,,,,,1536,0,3,,,,,2,,,55,0
393216,note_off,,,,,768,0,4,,,,,3,,,48,0
393216,note_on,,,,,0,0,3,,,,,2,,,48,84
393216,note_on,,,,,0,0,1,,,,,0,,,65,103
393216,note_off,,,,,768,0,2,,,,,1,,,60,0
393216,note_on,,,,,0,0,2,,,,,1,,,60,90
393216,note_off,,,,,1536,0,1,,,,,0,,,63,0
393216,note_on,,,,,0,0,4,,,,,3,,,44,78
393600,note_off,,,,,384,0,1,,,,,0,,,65,0
393600,note_on,,,,,0,0,1,,,,,0,,,67,103
393600,note_on,,,,,0,0,3,,,,,2,,,52,84
393600,note_on,,,,,0,0,4,,,,,3,,,43,78
393600,note_off,,,,,384,0,3,,,,,2,,,48,0
393600,note_off,,,,,384,0,4,,,,,3,,,44,0
393984,note_off,,,,,384,0,3,,,,,2,,,52,0
393984,note_on,,,,,0,0,3,,,,,2,,,53,84
393984,note_off,,,,,384,0,1,,,,,0,,,67,0
393984,note_on,,,,,0,0,1,,,,,0,,,68,103
393984,note_off,,,,,384,0,4,,,,,3,,,43,0
393984,note_on,,,,,0,0,4,,,,,3,,,41,78
394368,note_off,,,,,384,0,4,,,,,3,,,41,0
394368,note_off,,,,,1152,0,2,,,,,1,,,60,0
394368,note_off,,,,,384,0,3,,,,,2,,,53,0
394368,note_off,,,,,384,0,1,,,,,0,,,68,0
394752,note_on,,,,,384,0,1,,,,,0,,,68,103
394752,note_on,,,,,384,0,3,,,,,2,,,53,84
394752,note_on,,,,,384,0,2,,,,,1,,,65,90
394944,note_off,,,,,192,0,1,,,,,0,,,68,0
394944,note_off,,,,,192,0,3,,,,,2,,,53,0
394944,note_off,,,,,192,0,2,,,,,1,,,65,0
395136,note_on,,,,,192,0,3,,,,,2,,,55,84
395136,note_on,,,,,192,0,1,,,,,0,,,70,103
395136,note_on,,,,,192,0,2,,,,,1,,,65,90
395328,note_off,,,,,192,0,1,,,,,0,,,70,0
395328,note_off,,,,,192,0,2,,,,,1,,,65,0
395328,note_off,,,,,192,0,3,,,,,2,,,55,0
395520,note_on,,,,,192,0,3,,,,,2,,,56,84
395520,note_on,,,,,192,0,2,,,,,1,,,65,90
395520,note_on,,,,,192,0,1,,,,,0,,,72,103
395712,note_off,,,,,192,0,2,,,,,1,,,65,0
395712,note_off,,,,,192,0,1,,,,,0,,,72,0
395712,note_off,,,,,192,0,3,,,,,2,,,56,0
396288,note_on,,,,,1920,0,4,,,,,3,,,44,78
396288,note_on,,,,,576,0,1,,,,,0,,,60,103
396288,note_on,,,,,576,0,3,,,,,2,,,51,84
396288,note_on,,,,,576,0,2,,,,,1,,,56,90
397056,note_on,,,,,0,0,3,,,,,2,,,53,84
397056,note_off,,,,,768,0,1,,,,,0,,,60,0
397056,note_on,,,,,0,0,1,,,,,0,,,62,103
397056,note_off,,,,,768,0,2,,,,,1,,,56,0
397056,note_on,,,,,0,0,2,,,,,1,,,58,90
397056,note_off,,,,,768,0,3,,,,,2,,,51,0
397824,note_off,,,,,1536,0,4,,,,,3,,,44,0
397824,note_on,,,,,0,0,4,,,,,3,,,43,78
397824,note_on,,,,,0,0,2,,,,,1,,,58,90
397824,note_off,,,,,768,0,2,,,,,1,,,58,0
397824,note_off,,,,,768,0,1,,,,,0,,,62,0
397824,note_off,,,,,768,0,3,,,,,2,,,53,0
397824,note_on,,,,,0,0,3,,,,,2,,,51,84
397824,note_on,,,,,0,0,1,,,,,0,,,63,103
398208,note_off,,,,,384,0,4,,,,,3,,,43,0
398208,note_on,,,,,0,0,1,,,,,0,,,65,103
398208,note_off,,,,,384,0,1,,,,,0,,,63,0
398208,note_off,,,,,384,0,3,,,,,2,,,51,0
398208,note_on,,,,,0,0,3,,,,,2,,,50,84
398208,note_on,,,,,0,0,4,,,,,3,,,41,78
398592,note_off,,,,,384,0,4,,,,,3,,,41,0
398592,note_on,,,,,0,0,4,,,,,3,,,39,78
398592,note_on,,,,,0,0,1,,,,,0,,,67,103
398592,note_off,,,,,384,0,1,,,,,0,,,65,0
398592,note_off,,,,,384,0,3,,,,,2,,,50,0
398592,note_on,,,,,0,0,3,,,,,2,,,51,84
398976,note_off,,,,,384,0,1,,,,,0,,,67,0
398976,note_off,,,,,384,0,4,,,,,3,,,39,0
398976,note_off,,,,,1152,0,2,,,,,1,,,58,0
398976,note_off,,,,,384,0,3,,,,,2,,,51,0
399360,note_on,,,,,384,0,3,,,,,2,,,51,84
399360,note_on,,,,,384,0,1,,,,,0,,,67,103
399360,note_on,,,,,384,0,2,,,,,1,,,63,90
399552,note_off,,,,,192,0,1,,,,,0,,,67,0
399552,note_off,,,,,192,0,3,,,,,2,,,51,0
399552,note_off,,,,,192,0,2,,,,,1,,,63,0
399744,note_on,,,,,192,0,3,,,,,2,,,53,84
399744,note_on,,,,,192,0,1,,,,,0,,,68,103
399744,note_on,,,,,192,0,2,,,,,1,,,63,90
399936,note_off,,,,,192,0,2,,,,,1,,,63,0
399936,note_off,,,,,192,0,3,,,,,2,,,53,0
399936,note_off,,,,,192,0,1,,,,,0,,,68,0
400128,note_on,,,,,192,0,3,,,,,2,,,55,84
400128,note_on,,,,,192,0,2,,,,,1,,,63,90
400128,note_on,,,,,192,0,1,,,,,0,,,70,103
400320,note_off,,,,,192,0,3,,,,,2,,,55,0
400320,note_off,,,,,192,0,2,,,,,1,,,63,0
400320,note_off,,,,,192,0,1,,,,,0,,,70,0
400896,note_on,,,,,576,0,2,,,,,1,,,63,90
400896,note_on,,,,,576,0,1,,,,,0,,,75,103
400896,note_on,,,,,576,0,3,,,,,2,,,55,84
401664,note_on,,,,,0,0,3,,,,,2,,,61,84
401664,note_on,,,,,0,0,1,,,,,0,,,63,103
401664,note_off,,,,,768,0,1,,,,,0,,,75,0
401664,note_off,,,,,768,0,3,,,,,2,,,55,0
401664,note_on,,,,,2688,0,4,,,,,3,,,43,78
402432,note_off,,,,,768,0,3,,,,,2,,,61,0
402432,note_off,,,,,768,0,4,,,,,3,,,43,0
402432,note_off,,,,,1536,0,2,,,,,1,,,63,0
402432,note_on,,,,,0,0,2,,,,,1,,,63,90
402432,note_off,,,,,768,0,1,,,,,0,,,63,0
402432,note_on,,,,,0,0,4,,,,,3,,,44,78
402432,note_on,,,,,0,0,3,,,,,2,,,60,84
402432,note_on,,,,,0,0,1,,,,,0,,,63,103
403200,note_on,,,,,0,0,1,,,,,0,,,72,103
403200,note_off,,,,,768,0,1,,,,,0,,,63,0
403584,note_off,,,,,384,0,1,,,,,0,,,72,0
403584,note_off,,,,,1152,0,2,,,,,1,,,63,0
403584,note_off,,,,,1152,0,3,,,,,2,,,60,0
403584,note_off,,,,,1152,0,4,,,,,3,,,44,0
403968,note_on,,,,,384,0,1,,,,,0,,,72,103
403968,note_on,,,,,384,0,3,,,,,2,,,52,84
403968,note_on,,,,,384,0,2,,,,,1,,,60,90
404736,note_on,,,,,1152,0,4,,,,,3,,,40,78
404736,note_off,,,,,768,0,3,,,,,2,,,52,0
404736,note_on,,,,,0,0,3,,,,,2,,,58,84
404736,note_on,,,,,0,0,1,,,,,0,,,60,103
404736,note_off,,,,,768,0,1,,,,,0,,,72,0
405504,note_off,,,,,768,0,3,,,,,2,,,58,0
405504,note_on,,,,,0,0,3,,,,,2,,,56,84
405504,note_off,,,,,768,0,1,,,,,0,,,60,0
405504,note_on,,,,,0,0,2,,,,,1,,,60,90
405504,note_off,,,,,1536,0,2,,,,,1,,,60,0
405504,note_off,,,,,768,0,4,,,,,3,,,40,0
405504,note_on,,,,,0,0,4,,,,,3,,,41,78
405504,note_on,,,,,0,0,1,,,,,0,,,60,103
406272,note_off,,,,,768,0,1,,,,,0,,,60,0
406272,note_on,,,,,0,0,1,,,,,0,,,68,103
406656,note_off,,,,,1152,0,4,,,,,3,,,41,0
406656,note_off,,,,,1152,0,3,,,,,2,,,56,0
406656,note_off,,,,,1152,0,2,,,,,1,,,60,0
406656,note_off,,,,,384,0,1,,,,,0,,,68,0
407424,note_on,,,,,768,0,3,,,,,2,,,53,84
407424,note_on,,,,,768,0,1,,,,,0,,,65,103
407808,note_off,,,,,384,0,1,,,,,0,,,65,0
407808,note_on,,,,,0,0,1,,,,,0,,,68,103
407808,note_off,,,,,384,0,3,,,,,2,,,53,0
407808,note_on,,,,,0,0,3,,,,,2,,,56,84
408192,note_off,,,,,384,0,1,,,,,0,,,68,0
408192,note_on,,,,,0,0,1,,,,,0,,,72,103
408192,note_off,,,,,384,0,3,,,,,2,,,56,0
408192,note_on,,,,,0,0,3,,,,,2,,,60,84
408576,note_on,,,,,1920,0,2,,,,,1,,,65,90
408576,note_on,,,,,1920,0,4,,,,,3,,,50,78
408576,note_on,,,,,0,0,3,,,,,2,,,58,84
408576,note_off,,,,,384,0,3,,,,,2,,,60,0
408576,note_off,,,,,384,0,1,,,,,0,,,72,0
408576,note_on,,,,,0,0,1,,,,,0,,,70,103
409152,note_on,,,,,0,0,1,,,,,0,,,68,103
409152,note_off,,,,,576,0,1,,,,,0,,,70,0
409344,note_off,,,,,768,0,4,,,,,3,,,50,0
409344,note_off,,,,,192,0,1,,,,,0,,,68,0
409344,note_off,,,,,768,0,2,,,,,1,,,65,0
409344,note_on,,,,,0,0,2,,,,,1,,,63,90
409344,note_on,,,,,0,0,1,,,,,0,,,67,103
409344,note_on,,,,,0,0,4,,,,,3,,,51,78
409728,note_off,,,,,384,0,1,,,,,0,,,67,0
409728,note_off,,,,,384,0,4,,,,,3,,,51,0
409728,note_off,,,,,1152,0,3,,,,,2,,,58,0
409728,note_off,,,,,384,0,2,,,,,1,,,63,0
410112,note_on,,,,,384,0,1,,,,,0,,,65,103
410112,note_on,,,,,384,0,3,,,,,2,,,60,84
410112,note_on,,,,,384,0,4,,,,,3,,,44,78
410304,note_on,,,,,0,0,1,,,,,0,,,64,103
410304,note_off,,,,,192,0,1,,,,,0,,,65,0
410496,note_on,,,,,0,0,4,,,,,3,,,43,78
410496,note_on,,,,,0,0,1,,,,,0,,,67,103
410496,note_off,,,,,192,0,1,,,,,0,,,64,0
410496,note_off,,,,,384,0,4,,,,,3,,,44,0
410688,note_on,,,,,0,0,1,,,,,0,,,65,103
410688,note_off,,,,,192,0,1,,,,,0,,,67,0
410880,note_on,,,,,0,0,1,,,,,0,,,70,103
410880,note_off,,,,,192,0,1,,,,,0,,,65,0
410880,note_on,,,,,0,0,4,,,,,3,,,41,78
410880,note_off,,,,,384,0,4,,,,,3,,,43,0
411072,note_off,,,,,192,0,1,,,,,0,,,70,0
411072,note_on,,,,,0,0,1,,,,,0,,,68,103
411264,note_on,,,,,0,0,4,,,,,3,,,46,78
411264,note_on,,,,,0,0,3,,,,,2,,,56,84
411264,note_off,,,,,1152,0,3,,,,,2,,,60,0
411264,note_off,,,,,192,0,1,,,,,0,,,68,0
411264,note_off,,,,,384,0,4,,,,,3,,,41,0
411264,note_on,,,,,0,0,1,,,,,0,,,65,103
411456,note_off,,,,,192,0,1,,,,,0,,,65,0
411456,note_on,,,,,0,0,1,,,,,0,,,62,103
411648,note_on,,,,,0,0,1,,,,,0,,,63,103
411648,note_on,,,,,1920,0,2,,,,,1,,,58,90
411648,note_on,,,,,0,0,4,,,,,3,,,51,78
411648,note_off,,,,,384,0,4,,,,,3,,,46,0
411648,note_on,,,,,0,0,3,,,,,2,,,55,84
411648,note_off,,,,,384,0,3,,,,,2,,,56,0
411648,note_off,,,,,192,0,1,,,,,0,,,62,0
412416,note_off,,,,,768,0,2,,,,,1,,,58,0
412416,note_off,,,,,768,0,4,,,,,3,,,51,0
412416,note_on,,,,,0,0,4,,,,,3,,,48,78
412416,note_on,,,,,0,0,2,,,,,1,,,60,90
413184,note_on,,,,,0,0,1,,,,,0,,,65,103
413184,note_on,,,,,0,0,2,,,,,1,,,60,90
413184,note_off,,,,,768,0,2,,,,,1,,,60,0
413184,note_off,,,,,768,0,4,,,,,3,,,48,0
413184,note_off,,,,,1536,0,1,,,,,0,,,63,0
413184,note_on,,,,,0,0,4,,,,,3,,,44,78
413184,note_on,,,,,0,0,3,,,,,2,,,48,84
413184,note_off,,,,,1536,0,3,,,,,2,,,55,0
413568,note_on,,,,,0,0,1,,,,,0,,,67,103
413568,note_off,,,,,384,0,1,,,,,0,,,65,0
413568,note_on,,,,,0,0,3,,,,,2,,,52,84
413568,note_on,,,,,0,0,4,,,,,3,,,43,78
413568,note_off,,,,,384,0,4,,,,,3,,,44,0
413568,note_off,,,,,384,0,3,,,,,2,,,48,0
413952,note_on,,,,,0,0,3,,,,,2,,,53,84
413952,note_off,,,,,384,0,3,,,,,2,,,52,0
413952,note_on,,,,,0,0,1,,,,,0,,,68,103
413952,note_off,,,,,384,0,1,,,,,0,,,67,0
413952,note_off,,,,,384,0,4,,,,,3,,,43,0
413952,note_on,,,,,0,0,4,,,,,3,,,41,78
414336,note_off,,,,,384,0,1,,,,,0,,,68,0
414336,note_off,,,,,384,0,4,,,,,3,,,41,0
414336,note_off,,,,,384,0,3,,,,,2,,,53,0
414336,note_off,,,,,1152,0,2,,,,,1,,,60,0
414720,note_on,,,,,384,0,4,,,,,3,,,53,78
414720,note_on,,,,,384,0,3,,,,,2,,,60,84
414720,note_on,,,,,384,0,1,,,,,0,,,82,103
414720,note_on,,,,,384,0,2,,,,,1,,,70,90
414912,note_off,,,,,192,0,3,,,,,2,,,60,0
414912,note_on,,,,,0,0,2,,,,,1,,,68,90
414912,note_off,,,,,192,0,1,,,,,0,,,82,0
414912,note_on,,,,,0,0,1,,,,,0,,,80,103
414912,note_off,,,,,192,0,4,,,,,3,,,53,0
414912,note_off,,,,,192,0,2,,,,,1,,,70,0
415008,note_off,,,,,96,0,2,,,,,1,,,68,0
415008,note_off,,,,,96,0,1,,,,,0,,,80,0
415104,note_on,,,,,96,0,2,,,,,1,,,72,90
415104,note_on,,,,,96,0,1,,,,,0,,,84,103
415104,note_on,,,,,192,0,3,,,,,2,,,60,84
415104,note_on,,,,,192,0,4,,,,,3,,,55,78
415296,note_off,,,,,192,0,2,,,,,1,,,72,0
415296,note_on,,,,,0,0,2,,,,,1,,,70,90
415296,note_off,,,,,192,0,3,,,,,2,,,60,0
415296,note_off,,,,,192,0,4,,,,,3,,,55,0
415296,note_on,,,,,0,0,1,,,,,0,,,82,103
415296,note_off,,,,,192,0,1,,,,,0,,,84,0
415392,note_off,,,,,96,0,1,,,,,0,,,82,0
415392,note_off,,,,,96,0,2,,,,,1,,,70,0
415488,note_on,,,,,192,0,3,,,,,2,,,60,84
415488,note_on,,,,,192,0,4,,,,,3,,,56,78
415488,note_on,,,,,96,0,1,,,,,0,,,85,103
415488,note_on,,,,,96,0,2,,,,,1,,,73,90
415680,note_on,,,,,0,0,1,,,,,0,,,84,103
415680,note_off,,,,,192,0,4,,,,,3,,,56,0
415680,note_on,,,,,0,0,2,,,,,1,,,72,90
415680,note_off,,,,,192,0,2,,,,,1,,,73,0
415680,note_off,,,,,192,0,3,,,,,2,,,60,0
415680,note_off,,,,,192,0,1,,,,,0,,,85,0
415776,note_off,,,,,96,0,2,,,,,1,,,72,0
415776,note_off,,,,,96,0,1,,,,,0,,,84,0
416256,note_on,,,,,480,0,2,,,,,1,,,56,90
416256,note_on,,,,,480,0,1,,,,,0,,,60,103
416256,note_on,,,,,576,0,4,,,,,3,,,44,78
416256,note_on,,,,,576,0,3,,,,,2,,,51,84
417024,note_off,,,,,768,0,3,,,,,2,,,51,0
417024,note_on,,,,,0,0,3,,,,,2,,,53,84
417024,note_on,,,,,0,0,1,,,,,0,,,62,103
417024,note_off,,,,,768,0,1,,,,,0,,,60,0
417024,note_on,,,,,0,0,2,,,,,1,,,58,90
417024,note_off,,,,,768,0,2,,,,,1,,,56,0
417792,note_on,,,,,0,0,1,,,,,0,,,63,103
417792,note_off,,,,,768,0,3,,,,,2,,,53,0
417792,note_on,,,,,0,0,3,,,,,2,,,51,84
417792,note_off,,,,,768,0,2,,,,,1,,,58,0
417792,note_off,,,,,1536,0,4,,,,,3,,,44,0
417792,note_on,,,,,0,0,4,,,,,3,,,43,78
417792,note_off,,,,,768,0,1,,,,,0,,,62,0
417792,note_on,,,,,0,0,2,,,,,1,,,58,90
418176,note_off,,,,,384,0,4,,,,,3,,,43,0
418176,note_on,,,,,0,0,4,,,,,3,,,41,78
418176,note_off,,,,,384,0,1,,,,,0,,,63,0
418176,note_on,,,,,0,0,1,,,,,0,,,65,103
418176,note_off,,,,,384,0,3,,,,,2,,,51,0
418176,note_on,,,,,0,0,3,,,,,2,,,50,84
418560,note_on,,,,,0,0,4,,,,,3,,,39,78
418560,note_off,,,,,384,0,3,,,,,2,,,50,0
418560,note_on,,,,,0,0,3,,,,,2,,,51,84
418560,note_off,,,,,384,0,4,,,,,3,,,41,0
418560,note_off,,,,,384,0,1,,,,,0,,,65,0
418560,note_on,,,,,0,0,1,,,,,0,,,67,103
418944,note_off,,,,,384,0,4,,,,,3,,,39,0
418944,note_off,,,,,384,0,3,,,,,2,,,51,0
418944,note_off,,,,,1152,0,2,,,,,1,,,58,0
418944,note_off,,,,,384,0,1,,,,,0,,,67,0
419328,note_on,,,,,384,0,2,,,,,1,,,68,90
419328,note_on,,,,,384,0,4,,,,,3,,,51,78
419328,note_on,,,,,384,0,1,,,,,0,,,80,103
419328,note_on,,,,,384,0,3,,,,,2,,,58,84
419520,note_off,,,,,192,0,3,,,,,2,,,58,0
419520,note_off,,,,,192,0,2,,,,,1,,,68,0
419520,note_off,,,,,192,0,4,,,,,3,,,51,0
419520,note_on,,,,,0,0,2,,,,,1,,,67,90
419520,note_on,,,,,0,0,1,,,,,0,,,79,103
419520,note_off,,,,,192,0,1,,,,,0,,,80,0
419616,note_off,,,,,96,0,2,,,,,1,,,67,0
419616,note_off,,,,,96,0,1,,,,,0,,,79,0
419712,note_on,,,,,192,0,4,,,,,3,,,53,78
419712,note_on,,,,,192,0,3,,,,,2,,,58,84
419712,note_on,,,,,96,0,2,,,,,1,,,70,90
419712,note_on,,,,,96,0,1,,,,,0,,,82,103
419904,note_on,,,,,0,0,2,,,,,1,,,68,90
419904,note_off,,,,,192,0,3,,,,,2,,,58,0
419904,note_on,,,,,0,0,1,,,,,0,,,80,103
419904,note_off,,,,,192,0,2,,,,,1,,,70,0
419904,note_off,,,,,192,0,4,,,,,3,,,53,0
419904,note_off,,,,,192,0,1,,,,,0,,,82,0
420000,note_off,,,,,96,0,2,,,,,1,,,68,0
420000,note_off,,,,,96,0,1,,,,,0,,,80,0
420096,note_on,,,,,96,0,1,,,,,0,,,84,103
420096,note_on,,,,,192,0,3,,,,,2,,,58,84
420096,note_on,,,,,96,0,2,,,,,1,,,72,90
420096,note_on,,,,,192,0,4,,,,,3,,,55,78
420288,note_off,,,,,192,0,1,,,,,0,,,84,0
420288,note_on,,,,,0,0,1,,,,,0,,,82,103
420288,note_off,,,,,192,0,3,,,,,2,,,58,0
420288,note_off,,,,,192,0,4,,,,,3,,,55,0
420288,note_off,,,,,192,0,2,,,,,1,,,72,0
420288,note_on,,,,,0,0,2,,,,,1,,,70,90
420384,note_off,,,,,96,0,1,,,,,0,,,82,0
420384,note_off,,,,,96,0,2,,,,,1,,,70,0
420864,note_on,,,,,480,0,1,,,,,0,,,75,103
420864,note_on,,,,,576,0,3,,,,,2,,,55,84
420864,note_on,,,,,480,0,2,,,,,1,,,63,90
421632,note_on,,,,,0,0,3,,,,,2,,,58,84
421632,note_on,,,,,1344,0,4,,,,,3,,,43,78
421632,note_off,,,,,768,0,3,,,,,2,,,55,0
421824,note_off,,,,,960,0,1,,,,,0,,,75,0
421824,note_on,,,,,0,0,1,,,,,0,,,70,103
422016,note_off,,,,,192,0,1,,,,,0,,,70,0
422016,note_on,,,,,0,0,1,,,,,0,,,67,103
422016,note_off,,,,,384,0,3,,,,,2,,,58,0
422016,note_on,,,,,0,0,3,,,,,2,,,61,84
422208,note_off,,,,,192,0,1,,,,,0,,,67,0
422208,note_on,,,,,0,0,1,,,,,0,,,63,103
422400,note_on,,,,,0,0,2,,,,,1,,,63,90
422400,note_off,,,,,384,0,3,,,,,2,,,61,0
422400,note_on,,,,,0,0,3,,,,,2,,,60,84
422400,note_off,,,,,192,0,1,,,,,0,,,63,0
422400,note_on,,,,,0,0,1,,,,,0,,,63,103
422400,note_off,,,,,768,0,4,,,,,3,,,43,0
422400,note_on,,,,,0,0,4,,,,,3,,,44,78
422400,note_off,,,,,1536,0,2,,,,,1,,,63,0
423168,note_on,,,,,0,0,1,,,,,0,,,72,103
423168,note_off,,,,,768,0,1,,,,,0,,,63,0
423552,note_off,,,,,1152,0,4,,,,,3,,,44,0
423552,note_off,,,,,1152,0,2,,,,,1,,,63,0
423552,note_off,,,,,384,0,1,,,,,0,,,72,0
423552,note_off,,,,,1152,0,3,,,,,2,,,60,0
423936,note_on,,,,,384,0,3,,,,,2,,,52,84
423936,note_on,,,,,384,0,2,,,,,1,,,60,90
423936,note_on,,,,,384,0,1,,,,,0,,,72,103
424704,note_on,,,,,1152,0,4,,,,,3,,,40,78
424704,note_on,,,,,0,0,3,,,,,2,,,55,84
424704,note_off,,,,,768,0,3,,,,,2,,,52,0
424896,note_off,,,,,960,0,1,,,,,0,,,72,0
424896,note_on,,,,,0,0,1,,,,,0,,,67,103
425088,note_off,,,,,192,0,1,,,,,0,,,67,0
425088,note_on,,,,,0,0,1,,,,,0,,,64,103
425088,note_off,,,,,384,0,3,,,,,2,,,55,0
425088,note_on,,,,,0,0,3,,,,,2,,,58,84
425280,note_off,,,,,192,0,1,,,,,0,,,64,0
425280,note_on,,,,,0,0,1,,,,,0,,,60,103
425472,note_on,,,,,0,0,4,,,,,3,,,41,78
425472,note_off,,,,,768,0,4,,,,,3,,,40,0
425472,note_off,,,,,384,0,3,,,,,2,,,58,0
425472,note_on,,,,,0,0,3,,,,,2,,,56,84
425472,note_on,,,,,0,0,1,,,,,0,,,60,103
425472,note_off,,,,,192,0,1,,,,,0,,,60,0
425472,note_on,,,,,0,0,2,,,,,1,,,60,90
425472,note_off,,,,,1536,0,2,,,,,1,,,60,0
426240,note_on,,,,,0,0,1,,,,,0,,,68,103
426240,note_off,,,,,768,0,1,,,,,0,,,60,0
426624,note_off,,,,,384,0,1,,,,,0,,,68,0
426624,note_off,,,,,1152,0,3,,,,,2,,,56,0
426624,note_off,,,,,1152,0,4,,,,,3,,,41,0
426624,note_off,,,,,1152,0,2,,,,,1,,,60,0
427392,note_on,,,,,768,0,3,,,,,2,,,53,84
427392,note_on,,,,,768,0,1,,,,,0,,,65,103
427776,note_on,,,,,0,0,3,,,,,2,,,56,84
427776,note_on,,,,,0,0,1,,,,,0,,,68,103
427776,note_off,,,,,384,0,1,,,,,0,,,65,0
427776,note_off,,,,,384,0,3,,,,,2,,,53,0
428160,note_on,,,,,0,0,3,,,,,2,,,60,84
428160,note_on,,,,,0,0,1,,,,,0,,,72,103
428160,note_off,,,,,384,0,1,,,,,0,,,68,0
428160,note_off,,,,,384,0,3,,,,,2,,,56,0
428544,note_on,,,,,1920,0,2,,,,,1,,,65,90
428544,note_on,,,,,0,0,1,,,,,0,,,70,103
428544,note_off,,,,,384,0,1,,,,,0,,,72,0
428544,note_on,,,,,1920,0,4,,,,,3,,,50,78
428544,note_on,,,,,0,0,3,,,,,2,,,58,84
428544,note_off,,,,,384,0,3,,,,,2,,,60,0
429120,note_on,,,,,0,0,1,,,,,0,,,68,103
429120,note_off,,,,,576,0,1,,,,,0,,,70,0
429312,note_on,,,,,0,0,2,,,,,1,,,63,90
429312,note_on,,,,,0,0,4,,,,,3,,,51,78
429312,note_off,,,,,768,0,4,,,,,3,,,50,0
429312,note_on,,,,,0,0,1,,,,,0,,,67,103
429312,note_off,,,,,192,0,1,,,,,0,,,68,0
429312,note_off,,,,,768,0,2,,,,,1,,,65,0
429696,note_off,,,,,384,0,4,,,,,3,,,51,0
429696,note_off,,,,,1152,0,3,,,,,2,,,58,0
429696,note_off,,,,,384,0,1,,,,,0,,,67,0
429696,note_off,,,,,384,0,2,,,,,1,,,63,0
430080,note_on,,,,,384,0,3,,,,,2,,,60,84
430080,note_on,,,,,384,0,4,,,,,3,,,44,78
430080,note_on,,,,,384,0,1,,,,,0,,,65,103
430272,note_off,,,,,192,0,1,,,,,0,,,65,0
430272,note_on,,,,,0,0,1,,,,,0,,,64,103
430464,note_on,,,,,0,0,1,,,,,0,,,67,103
430464,note_off,,,,,192,0,1,,,,,0,,,64,0
430464,note_on,,,,,0,0,4,,,,,3,,,43,78
430464,note_off,,,,,384,0,4,,,,,3,,,44,0
430656,note_on,,,,,0,0,1,,,,,0,,,65,103
430656,note_off,,,,,192,0,1,,,,,0,,,67,0
430848,note_off,,,,,192,0,1,,,,,0,,,65,0
430848,note_on,,,,,0,0,1,,,,,0,,,70,103
430848,note_on,,,,,0,0,4,,,,,3,,,41,78
430848,note_off,,,,,384,0,4,,,,,3,,,43,0
431040,note_off,,,,,192,0,1,,,,,0,,,70,0
431040,note_on,,,,,0,0,1,,,,,0,,,68,103
431232,note_on,,,,,0,0,1,,,,,0,,,65,103
431232,note_off,,,,,192,0,1,,,,,0,,,68,0
431232,note_off,,,,,1152,0,3,,,,,2,,,60,0
431232,note_off,,,,,384,0,4,,,,,3,,,41,0
431232,note_on,,,,,0,0,3,,,,,2,,,56,84
431232,note_on,,,,,0,0,4,,,,,3,,,46,78
431424,note_off,,,,,192,0,1,,,,,0,,,65,0
431424,note_on,,,,,0,0,1,,,,,0,,,62,103
431616,note_on,,,,,0,0,4,,,,,3,,,39,78
431616,note_off,,,,,384,0,4,,,,,3,,,46,0
431616,note_off,,,,,192,0,1,,,,,0,,,62,0
431616,note_on,,,,,0,0,1,,,,,0,,,63,103
431616,note_on,,,,,0,0,1,,,,,0,,,55,103
431616,note_on,,,,,0,0,2,,,,,1,,,63,90
431616,note_on,,,,,1920,0,2,,,,,1,,,58,90
431616,note_on,,,,,0,0,3,,,,,2,,,55,84
431616,note_off,,,,,384,0,3,,,,,2,,,56,0
431808,note_off,,,,,192,0,3,,,,,2,,,55,0
431808,note_on,,,,,0,0,3,,,,,2,,,58,84
432000,note_off,,,,,192,0,3,,,,,2,,,58,0
432000,note_on,,,,,0,0,3,,,,,2,,,63,84
432192,note_on,,,,,0,0,3,,,,,2,,,58,84
432192,note_off,,,,,192,0,3,,,,,2,,,63,0
432384,note_off,,,,,0,0,1,,,,,0,,,55,0
432384,note_off,,,,,192,0,3,,,,,2,,,58,0
432384,note_off,,,,,768,0,2,,,,,1,,,58,0
432384,note_off,,,,,0,0,2,,,,,1,,,63,0
432384,note_off,,,,,768,0,1,,,,,0,,,63,0
432384,note_on,,,,,0,0,3,,,,,2,,,55,84
432576,note_off,,,,,192,0,3,,,,,2,,,55,0
432576,note_on,,,,,0,0,3,,,,,2,,,58,84
432768,note_off,,,,,192,0,3,,,,,2,,,58,0
432768,note_on,,,,,0,0,3,,,,,2,,,63,84
432768,note_on,,,,,384,0,1,,,,,0,,,79,103
432960,note_off,,,,,192,0,3,,,,,2,,,63,0
432960,note_on,,,,,0,0,3,,,,,2,,,58,84
433152,note_off,,,,,192,0,3,,,,,2,,,58,0
433152,note_off,,,,,384,0,1,,,,,0,,,79,0
433152,note_on,,,,,0,0,1,,,,,0,,,77,103
433152,note_on,,,,,0,0,3,,,,,2,,,56,84
433344,note_on,,,,,0,0,3,,,,,2,,,58,84
433344,note_off,,,,,192,0,3,,,,,2,,,56,0
433536,note_on,,,,,0,0,3,,,,,2,,,62,84
433536,note_off,,,,,192,0,3,,,,,2,,,58,0
433728,note_on,,,,,0,0,3,,,,,2,,,58,84
433728,note_off,,,,,192,0,3,,,,,2,,,62,0
433728,note_on,,,,,0,0,1,,,,,0,,,75,103
433728,note_off,,,,,576,0,1,,,,,0,,,77,0
433920,note_on,,,,,0,0,3,,,,,2,,,56,84
433920,note_on,,,,,0,0,1,,,,,0,,,74,103
433920,note_off,,,,,192,0,1,,,,,0,,,75,0
433920,note_off,,,,,192,0,3,,,,,2,,,58,0
434112,note_on,,,,,0,0,3,,,,,2,,,58,84
434112,note_off,,,,,192,0,3,,,,,2,,,56,0
434304,note_off,,,,,192,0,3,,,,,2,,,58,0
434304,note_on,,,,,0,0,3,,,,,2,,,62,84
434304,note_on,,,,,0,0,1,,,,,0,,,77,103
434304,note_off,,,,,384,0,1,,,,,0,,,74,0
434496,note_on,,,,,0,0,3,,,,,2,,,58,84
434496,note_off,,,,,192,0,3,,,,,2,,,62,0
434688,note_off,,,,,384,0,1,,,,,0,,,77,0
434688,note_on,,,,,0,0,1,,,,,0,,,70,103
434688,note_on,,,,,0,0,3,,,,,2,,,55,84
434688,note_off,,,,,192,0,3,,,,,2,,,58,0
434880,note_on,,,,,0,0,3,,,,,2,,,63,84
434880,note_off,,,,,192,0,3,,,,,2,,,55,0
435072,note_off,,,,,192,0,3,,,,,2,,,63,0
435072,note_on,,,,,0,0,3,,,,,2,,,58,84
435264,note_off,,,,,576,0,1,,,,,0,,,70,0
435264,note_on,,,,,0,0,1,,,,,0,,,72,103
435264,note_off,,,,,192,0,3,,,,,2,,,58,0
435264,note_on,,,,,0,0,3,,,,,2,,,55,84
435360,note_off,,,,,96,0,1,,,,,0,,,72,0
435360,note_on,,,,,0,0,1,,,,,0,,,74,103
435456,note_on,,,,,0,0,4,,,,,3,,,36,78
435456,note_off,,,,,3840,0,4,,,,,3,,,39,49
435456,note_off,,,,,96,0,1,,,,,0,,,74,0
435456,note_on,,,,,0,0,1,,,,,0,,,75,103
435456,note_on,,,,,0,0,3,,,,,2,,,51,84
435456,note_off,,,,,192,0,3,,,,,2,,,55,0
435648,note_off,,,,,192,0,3,,,,,2,,,51,0
435648,note_on,,,,,0,0,3,,,,,2,,,55,84
435648,note_off,,,,,192,0,1,,,,,0,,,75,0
435840,note_off,,,,,192,0,3,,,,,2,,,55,0
435840,note_on,,,,,3456,0,2,,,,,1,,,63,90
435840,note_on,,,,,192,0,1,,,,,0,,,75,103
435840,note_on,,,,,0,0,3,,,,,2,,,60,84
436032,note_off,,,,,192,0,3,,,,,2,,,60,0
436032,note_on,,,,,0,0,3,,,,,2,,,55,84
436224,note_on,,,,,0,0,2,,,,,1,,,62,90
436224,note_off,,,,,384,0,1,,,,,0,,,75,0
436224,note_on,,,,,0,0,1,,,,,0,,,74,103
436224,note_off,,,,,384,0,2,,,,,1,,,63,0
436224,note_off,,,,,192,0,3,,,,,2,,,55,0
436224,note_on,,,,,0,0,3,,,,,2,,,53,84
436416,note_off,,,,,192,0,3,,,,,2,,,53,0
436416,note_on,,,,,0,0,3,,,,,2,,,55,84
436608,note_off,,,,,192,0,3,,,,,2,,,55,0
436608,note_on,,,,,0,0,3,,,,,2,,,59,84
436800,note_on,,,,,0,0,1,,,,,0,,,72,103
436800,note_off,,,,,192,0,3,,,,,2,,,59,0
436800,note_on,,,,,0,0,2,,,,,1,,,60,90
436800,note_off,,,,,576,0,2,,,,,1,,,62,0
436800,note_off,,,,,576,0,1,,,,,0,,,74,0
436800,note_on,,,,,0,0,3,,,,,2,,,55,84
436992,note_on,,,,,0,0,1,,,,,0,,,71,103
436992,note_on,,,,,0,0,3,,,,,2,,,53,84
436992,note_off,,,,,192,0,1,,,,,0,,,72,0
436992,note_off,,,,,192,0,2,,,,,1,,,60,0
436992,note_on,,,,,0,0,2,,,,,1,,,59,90
436992,note_off,,,,,192,0,3,,,,,2,,,55,0
437184,note_on,,,,,0,0,3,,,,,2,,,55,84
437184,note_off,,,,,192,0,3,,,,,2,,,53,0
437376,note_off,,,,,192,0,3,,,,,2,,,55,0
437376,note_on,,,,,0,0,3,,,,,2,,,59,84
437376,note_off,,,,,384,0,2,,,,,1,,,59,0
437376,note_on,,,,,0,0,2,,,,,1,,,62,90
437376,note_on,,,,,0,0,1,,,,,0,,,74,103
437376,note_off,,,,,384,0,1,,,,,0,,,71,0
437568,note_off,,,,,192,0,3,,,,,2,,,59,0
437568,note_on,,,,,0,0,3,,,,,2,,,55,84
437760,note_on,,,,,0,0,1,,,,,0,,,67,103
437760,note_on,,,,,0,0,2,,,,,1,,,55,90
437760,note_off,,,,,384,0,2,,,,,1,,,62,0
437760,note_on,,,,,0,0,3,,,,,2,,,51,84
437760,note_off,,,,,192,0,3,,,,,2,,,55,0
437760,note_off,,,,,384,0,1,,,,,0,,,74,0
437952,note_on,,,,,0,0,3,,,,,2,,,55,84
437952,note_off,,,,,192,0,3,,,,,2,,,51,0
438144,note_off,,,,,192,0,3,,,,,2,,,55,0
438144,note_on,,,,,0,0,3,,,,,2,,,60,84
438336,note_off,,,,,576,0,1,,,,,0,,,67,0
438336,note_off,,,,,576,0,2,,,,,1,,,55,0
438336,note_off,,,,,192,0,3,,,,,2,,,60,0
438336,note_on,,,,,0,0,3,,,,,2,,,55,84
438336,note_on,,,,,0,0,2,,,,,1,,,57,90
438336,note_on,,,,,0,0,1,,,,,0,,,69,103
438432,note_on,,,,,0,0,2,,,,,1,,,59,90
438432,note_off,,,,,96,0,2,,,,,1,,,57,0
438432,note_on,,,,,0,0,1,,,,,0,,,71,103
438432,note_off,,,,,96,0,1,,,,,0,,,69,0
438528,note_off,,,,,96,0,2,,,,,1,,,59,0
438528,note_on,,,,,0,0,1,,,,,0,,,72,103
438528,note_off,,,,,96,0,1,,,,,0,,,71,0
438528,note_on,,,,,0,0,2,,,,,1,,,60,90
438528,note_off,,,,,192,0,3,,,,,2,,,55,0
438528,note_on,,,,,0,0,3,,,,,2,,,51,84
438720,note_off,,,,,192,0,1,,,,,0,,,72,0
438720,note_off,,,,,192,0,2,,,,,1,,,60,0
438720,note_on,,,,,0,0,3,,,,,2,,,55,84
438720,note_off,,,,,192,0,3,,,,,2,,,51,0
438912,note_on,,,,,192,0,2,,,,,1,,,63,90
438912,note_off,,,,,192,0,3,,,,,2,,,55,0
438912,note_on,,,,,0,0,3,,,,,2,,,60,84
438912,note_on,,,,,192,0,1,,,,,0,,,75,103
439104,note_off,,,,,192,0,3,,,,,2,,,60,0
439104,note_on,,,,,0,0,3,,,,,2,,,55,84
439296,note_off,,,,,3840,0,4,,,,,3,,,36,49
439296,note_off,,,,,384,0,2,,,,,1,,,63,0
439296,note_on,,,,,0,0,2,,,,,1,,,72,90
439296,note_off,,,,,192,0,3,,,,,2,,,55,0
439296,note_on,,,,,0,0,3,,,,,2,,,56,84
439296,note_off,,,,,384,0,1,,,,,0,,,75,0
439296,note_on,,,,,0,0,1,,,,,0,,,84,103
439296,note_on,,,,,0,0,4,,,,,3,,,44,78
439488,note_off,,,,,192,0,3,,,,,2,,,56,0
439488,note_on,,,,,0,0,3,,,,,2,,,60,84
439680,note_off,,,,,192,0,3,,,,,2,,,60,0
439680,note_on,,,,,0,0,3,,,,,2,,,63,84
439872,note_off,,,,,192,0,3,,,,,2,,,63,0
439872,note_on,,,,,0,0,3,,,,,2,,,60,84
439968,note_on,,,,,0,0,1,,,,,0,,,84,103
439968,note_off,,,,,672,0,1,,,,,0,,,84,0
439968,note_on,,,,,0,0,2,,,,,1,,,72,90
439968,note_off,,,,,672,0,2,,,,,1,,,72,0
440064,note_on,,,,,0,0,4,,,,,3,,,39,78
440064,note_on,,,,,0,0,1,,,,,0,,,82,103
440064,note_off,,,,,96,0,1,,,,,0,,,84,0
440064,note_off,,,,,192,0,3,,,,,2,,,60,0
440064,note_off,,,,,768,0,4,,,,,3,,,44,0
440064,note_off,,,,,96,0,2,,,,,1,,,72,0
440064,note_on,,,,,0,0,3,,,,,2,,,55,84
440064,note_on,,,,,0,0,2,,,,,1,,,70,90
440256,note_on,,,,,0,0,2,,,,,1,,,69,90
440256,note_on,,,,,0,0,1,,,,,0,,,81,103
440256,note_on,,,,,0,0,3,,,,,2,,,58,84
440256,note_off,,,,,192,0,3,,,,,2,,,55,0
440256,note_off,,,,,192,0,1,,,,,0,,,82,0
440256,note_off,,,,,192,0,2,,,,,1,,,70,0
440448,note_off,,,,,192,0,1,,,,,0,,,81,0
440448,note_on,,,,,0,0,3,,,,,2,,,63,84
440448,note_on,,,,,0,0,1,,,,,0,,,82,103
440448,note_off,,,,,192,0,3,,,,,2,,,58,0
440448,note_on,,,,,0,0,2,,,,,1,,,70,90
440448,note_off,,,,,192,0,2,,,,,1,,,69,0
440640,note_off,,,,,192,0,1,,,,,0,,,82,0
440640,note_on,,,,,0,0,1,,,,,0,,,84,103
440640,note_on,,,,,0,0,2,,,,,1,,,72,90
440640,note_off,,,,,192,0,2,,,,,1,,,70,0
440640,note_on,,,,,0,0,3,,,,,2,,,58,84
440640,note_off,,,,,192,0,3,,,,,2,,,63,0
440832,note_off,,,,,192,0,3,,,,,2,,,58,0
440832,note_on,,,,,0,0,3,,,,,2,,,56,84
440832,note_off,,,,,768,0,4,,,,,3,,,39,0
440832,note_on,,,,,0,0,1,,,,,0,,,82,103
440832,note_on,,,,,0,0,4,,,,,3,,,38,78
440832,note_on,,,,,0,0,2,,,,,1,,,70,90
440832,note_off,,,,,192,0,2,,,,,1,,,72,0
440832,note_off,,,,,192,0,1,,,,,0,,,84,0
441024,note_off,,,,,192,0,3,,,,,2,,,56,0
441024,note_on,,,,,0,0,3,,,,,2,,,58,84
441216,note_off,,,,,192,0,3,,,,,2,,,58,0
441216,note_on,,,,,0,0,3,,,,,2,,,53,84
441408,note_off,,,,,576,0,1,,,,,0,,,82,0
441408,note_on,,,,,0,0,2,,,,,1,,,68,90
441408,note_off,,,,,576,0,2,,,,,1,,,70,0
441408,note_off,,,,,192,0,3,,,,,2,,,53,0
441408,note_on,,,,,0,0,3,,,,,2,,,58,84
441408,note_on,,,,,0,0,1,,,,,0,,,80,103
441600,note_off,,,,,192,0,3,,,,,2,,,58,0
441600,note_on,,,,,0,0,1,,,,,0,,,79,103
441600,note_off,,,,,192,0,2,,,,,1,,,68,0
441600,note_off,,,,,768,0,4,,,,,3,,,38,0
441600,note_on,,,,,0,0,3,,,,,2,,,51,84
441600,note_on,,,,,0,0,2,,,,,1,,,67,90
441600,note_off,,,,,192,0,1,,,,,0,,,80,0
441600,note_on,,,,,0,0,4,,,,,3,,,39,78
441792,note_on,,,,,0,0,3,,,,,2,,,55,84
441792,note_off,,,,,192,0,3,,,,,2,,,51,0
441792,note_off,,,,,192,0,2,,,,,1,,,67,0
441792,note_off,,,,,192,0,1,,,,,0,,,79,0
441984,note_on,,,,,192,0,1,,,,,0,,,75,103
441984,note_on,,,,,0,0,3,,,,,2,,,58,84
441984,note_off,,,,,192,0,3,,,,,2,,,55,0
441984,note_on,,,,,192,0,2,,,,,1,,,63,90
442176,note_off,,,,,192,0,3,,,,,2,,,58,0
442176,note_on,,,,,0,0,3,,,,,2,,,55,84
442368,note_off,,,,,768,0,4,,,,,3,,,39,0
442368,note_on,,,,,0,0,2,,,,,1,,,72,90
442368,note_off,,,,,384,0,2,,,,,1,,,63,0
442368,note_on,,,,,0,0,3,,,,,2,,,56,84
442368,note_on,,,,,0,0,4,,,,,3,,,44,78
442368,note_off,,,,,384,0,1,,,,,0,,,75,0
442368,note_off,,,,,192,0,3,,,,,2,,,55,0
442368,note_on,,,,,0,0,1,,,,,0,,,84,103
442560,note_on,,,,,0,0,3,,,,,2,,,60,84
442560,note_off,,,,,192,0,3,,,,,2,,,56,0
442752,note_on,,,,,0,0,3,,,,,2,,,63,84
442752,note_off,,,,,192,0,3,,,,,2,,,60,0
442944,note_off,,,,,192,0,3,,,,,2,,,63,0
442944,note_on,,,,,0,0,3,,,,,2,,,60,84
443136,note_on,,,,,0,0,3,,,,,2,,,55,84
443136,note_off,,,,,768,0,2,,,,,1,,,72,0
443136,note_on,,,,,0,0,2,,,,,1,,,70,90
443136,note_on,,,,,0,0,4,,,,,3,,,39,78
443136,note_off,,,,,192,0,3,,,,,2,,,60,0
443136,note_off,,,,,768,0,1,,,,,0,,,84,0
443136,note_on,,,,,0,0,1,,,,,0,,,82,103
443136,note_off,,,,,768,0,4,,,,,3,,,44,0
443328,note_off,,,,,192,0,2,,,,,1,,,70,0
443328,note_on,,,,,0,0,3,,,,,2,,,58,84
443328,note_off,,,,,192,0,3,,,,,2,,,55,0
443328,note_on,,,,,0,0,2,,,,,1,,,69,90
443328,note_on,,,,,0,0,1,,,,,0,,,81,103
443328,note_off,,,,,192,0,1,,,,,0,,,82,0
443520,note_on,,,,,0,0,2,,,,,1,,,72,90
443520,note_off,,,,,192,0,2,,,,,1,,,69,0
443520,note_on,,,,,0,0,3,,,,,2,,,63,84
443520,note_off,,,,,192,0,1,,,,,0,,,81,0
443520,note_on,,,,,0,0,1,,,,,0,,,84,103
443520,note_off,,,,,192,0,3,,,,,2,,,58,0
443712,note_off,,,,,192,0,1,,,,,0,,,84,0
443712,note_off,,,,,192,0,2,,,,,1,,,72,0
443712,note_on,,,,,0,0,2,,,,,1,,,70,90
443712,note_on,,,,,0,0,1,,,,,0,,,82,103
443712,note_off,,,,,192,0,3,,,,,2,,,63,0
443712,note_on,,,,,0,0,3,,,,,2,,,58,84
443904,note_off,,,,,192,0,3,,,,,2,,,58,0
443904,note_on,,,,,0,0,3,,,,,2,,,56,84
443904,note_off,,,,,768,0,4,,,,,3,,,39,0
443904,note_off,,,,,192,0,2,,,,,1,,,70,0
443904,note_off,,,,,192,0,1,,,,,0,,,82,0
443904,note_on,,,,,0,0,1,,,,,0,,,82,103
443904,note_on,,,,,0,0,4,,,,,3,,,38,78
443904,note_on,,,,,0,0,2,,,,,1,,,70,90
444096,note_off,,,,,192,0,3,,,,,2,,,56,0
444096,note_on,,,,,0,0,3,,,,,2,,,58,84
444288,note_off,,,,,192,0,3,,,,,2,,,58,0
444288,note_on,,,,,0,0,3,,,,,2,,,53,84
444480,note_off,,,,,192,0,3,,,,,2,,,53,0
444480,note_on,,,,,0,0,3,,,,,2,,,58,84
444480,note_off,,,,,576,0,2,,,,,1,,,70,0
444480,note_on,,,,,0,0,2,,,,,1,,,68,90
444480,note_off,,,,,576,0,1,,,,,0,,,82,0
444480,note_on,,,,,0,0,1,,,,,0,,,80,103
444672,note_off,,,,,192,0,1,,,,,0,,,80,0
444672,note_on,,,,,0,0,1,,,,,0,,,79,103
444672,note_off,,,,,768,0,4,,,,,3,,,38,0
444672,note_on,,,,,0,0,4,,,,,3,,,39,78
444672,note_on,,,,,0,0,3,,,,,2,,,51,84
444672,note_off,,,,,192,0,2,,,,,1,,,68,0
444672,note_on,,,,,0,0,2,,,,,1,,,67,90
444672,note_off,,,,,192,0,3,,,,,2,,,58,0
444864,note_off,,,,,192,0,3,,,,,2,,,51,0
445056,note_off,,,,,384,0,2,,,,,1,,,67,0
445056,note_on,,,,,192,0,3,,,,,2,,,55,84
445056,note_off,,,,,384,0,1,,,,,0,,,79,0
445056,note_on,,,,,0,0,1,,,,,0,,,75,103
445056,note_off,,,,,384,0,4,,,,,3,,,39,0
445056,note_on,,,,,0,0,2,,,,,1,,,58,90
445248,note_off,,,,,192,0,1,,,,,0,,,75,0
445248,note_on,,,,,0,0,1,,,,,0,,,74,103
445248,note_on,,,,,0,0,2,,,,,1,,,59,90
445248,note_off,,,,,192,0,2,,,,,1,,,58,0
445440,note_on,,,,,0,0,2,,,,,1,,,60,90
445440,note_on,,,,,384,0,4,,,,,3,,,51,78
445440,note_off,,,,,192,0,2,,,,,1,,,59,0
445440,note_on,,,,,0,0,3,,,,,2,,,56,84
445440,note_off,,,,,384,0,3,,,,,2,,,55,0
445440,note_off,,,,,192,0,1,,,,,0,,,74,0
445440,note_on,,,,,0,0,1,,,,,0,,,72,103
446016,note_on,,,,,0,0,1,,,,,0,,,75,103
446016,note_off,,,,,576,0,1,,,,,0,,,72,0
446208,note_on,,,,,0,0,3,,,,,2,,,55,84
446208,note_off,,,,,768,0,3,,,,,2,,,56,0
446208,note_on,,,,,0,0,1,,,,,0,,,70,103
446208,note_off,,,,,192,0,1,,,,,0,,,75,0
446208,note_on,,,,,0,0,2,,,,,1,,,58,90
446208,note_off,,,,,768,0,2,,,,,1,,,60,0
446400,note_off,,,,,192,0,3,,,,,2,,,55,0
446400,note_off,,,,,192,0,2,,,,,1,,,58,0
446592,note_off,,,,,384,0,1,,,,,0,,,70,0
446592,note_on,,,,,0,0,1,,,,,0,,,75,103
446592,note_on,,,,,192,0,2,,,,,1,,,58,90
446592,note_off,,,,,1152,0,4,,,,,3,,,51,0
446592,note_on,,,,,192,0,3,,,,,2,,,55,84
446784,note_off,,,,,192,0,1,,,,,0,,,75,0
446784,note_on,,,,,0,0,1,,,,,0,,,74,103
446784,note_off,,,,,192,0,2,,,,,1,,,58,0
446784,note_on,,,,,0,0,2,,,,,1,,,59,90
446976,note_on,,,,,384,0,4,,,,,3,,,51,78
446976,note_on,,,,,0,0,1,,,,,0,,,72,103
446976,note_off,,,,,384,0,3,,,,,2,,,55,0
446976,note_on,,,,,0,0,3,,,,,2,,,56,84
446976,note_off,,,,,192,0,1,,,,,0,,,74,0
446976,note_on,,,,,0,0,2,,,,,1,,,60,90
446976,note_off,,,,,192,0,2,,,,,1,,,59,0
447552,note_on,,,,,0,0,1,,,,,0,,,75,103
447552,note_off,,,,,576,0,1,,,,,0,,,72,0
447744,note_on,,,,,0,0,1,,,,,0,,,70,103
447744,note_on,,,,,0,0,3,,,,,2,,,55,84
447744,note_off,,,,,192,0,1,,,,,0,,,75,0
447744,note_on,,,,,0,0,2,,,,,1,,,58,90
447744,note_off,,,,,768,0,2,,,,,1,,,60,0
447744,note_off,,,,,768,0,3,,,,,2,,,56,0
447936,note_off,,,,,192,0,3,,,,,2,,,55,0
448128,note_off,,,,,384,0,2,,,,,1,,,58,0
448128,note_off,,,,,1152,0,4,,,,,3,,,51,0
448128,note_off,,,,,384,0,1,,,,,0,,,70,0
448128,note_on,,,,,0,0,1,,,,,0,,,79,103
448128,note_on,,,,,192,0,3,,,,,2,,,63,84
448320,note_on,,,,,0,0,3,,,,,2,,,58,84
448320,note_off,,,,,192,0,3,,,,,2,,,63,0
448512,note_on,,,,,0,0,3,,,,,2,,,56,84
448512,note_off,,,,,192,0,3,,,,,2,,,58,0
448512,note_on,,,,,211968,0,5,,,,,4,,,46,100
448512,note_off,,,,,384,0,1,,,,,0,,,79,0
448512,note_on,,,,,0,0,1,,,,,0,,,77,103
448704,note_off,,,,,192,0,3,,,,,2,,,56,0
448704,note_on,,,,,0,0,3,,,,,2,,,58,84
448896,note_off,,,,,192,0,3,,,,,2,,,58,0
448896,note_off,,,,,384,0,5,,,,,4,,,46,0
448896,note_on,,,,,0,0,3,,,,,2,,,62,84
448896,note_on,,,,,0,0,5,,,,,4,,,65,100
448896,note_on,,,,,0,0,5,,,,,4,,,58,100
449088,note_on,,,,,0,0,1,,,,,0,,,75,103
449088,note_off,,,,,576,0,1,,,,,0,,,77,0
449088,note_on,,,,,0,0,3,,,,,2,,,58,84
449088,note_off,,,,,192,0,3,,,,,2,,,62,0
449280,note_off,,,,,192,0,1,,,,,0,,,75,0
449280,note_on,,,,,0,0,1,,,,,0,,,74,103
449280,note_on,,,,,0,0,5,,,,,4,,,65,100
449280,note_on,,,,,0,0,5,,,,,4,,,58,100
449280,note_off,,,,,0,0,5,,,,,4,,,65,0
449280,note_off,,,,,192,0,3,,,,,2,,,58,0
449280,note_on,,,,,0,0,3,,,,,2,,,56,84
449280,note_off,,,,,384,0,5,,,,,4,,,58,0
449472,note_off,,,,,192,0,3,,,,,2,,,56,0
449472,note_on,,,,,0,0,3,,,,,2,,,58,84
449664,note_off,,,,,384,0,5,,,,,4,,,58,0
449664,note_on,,,,,0,0,1,,,,,0,,,77,103
449664,note_off,,,,,384,0,1,,,,,0,,,74,0
449664,note_off,,,,,192,0,3,,,,,2,,,58,0
449664,note_on,,,,,0,0,3,,,,,2,,,62,84
449664,note_off,,,,,0,0,5,,,,,4,,,65,0
449856,note_off,,,,,192,0,3,,,,,2,,,62,0
449856,note_on,,,,,0,0,3,,,,,2,,,58,84
450048,note_on,,,,,0,0,1,,,,,0,,,70,103
450048,note_on,,,,,0,0,3,,,,,2,,,55,84
450048,note_off,,,,,192,0,3,,,,,2,,,58,0
450048,note_on,,,,,384,0,5,,,,,4,,,39,100
450048,note_off,,,,,384,0,1,,,,,0,,,77,0
450240,note_off,,,,,192,0,3,,,,,2,,,55,0
450240,note_on,,,,,0,0,3,,,,,2,,,58,84
450432,note_off,,,,,384,0,5,,,,,4,,,39,0
450432,note_on,,,,,0,0,5,,,,,4,,,63,100
450432,note_on,,,,,0,0,5,,,,,4,,,55,100
450432,note_on,,,,,0,0,3,,,,,2,,,63,84
450432,note_off,,,,,192,0,3,,,,,2,,,58,0
450624,note_on,,,,,0,0,1,,,,,0,,,72,103
450624,note_off,,,,,576,0,1,,,,,0,,,70,0
450624,note_on,,,,,0,0,3,,,,,2,,,58,84
450624,note_off,,,,,192,0,3,,,,,2,,,63,0
450720,note_on,,,,,0,0,1,,,,,0,,,74,103
450720,note_off,,,,,96,0,1,,,,,0,,,72,0
450816,note_off,,,,,192,0,3,,,,,2,,,58,0
450816,note_off,,,,,96,0,1,,,,,0,,,74,0
450816,note_on,,,,,0,0,3,,,,,2,,,55,84
450816,note_off,,,,,384,0,5,,,,,4,,,63,0
450816,note_off,,,,,0,0,5,,,,,4,,,55,0
450816,note_on,,,,,0,0,1,,,,,0,,,75,103
450816,note_on,,,,,0,0,5,,,,,4,,,55,100
450816,note_on,,,,,0,0,5,,,,,4,,,63,100
451008,note_off,,,,,192,0,3,,,,,2,,,55,0
451008,note_on,,,,,0,0,3,,,,,2,,,58,84
451008,note_off,,,,,192,0,1,,,,,0,,,75,0
451200,note_off,,,,,192,0,3,,,,,2,,,58,0
451200,note_on,,,,,0,0,3,,,,,2,,,63,84
451200,note_on,,,,,192,0,1,,,,,0,,,82,103
451200,note_off,,,,,384,0,5,,,,,4,,,55,0
451200,note_off,,,,,0,0,5,,,,,4,,,63,0
451392,note_on,,,,,0,0,1,,,,,0,,,79,103
451392,note_off,,,,,192,0,1,,,,,0,,,82,0
451392,note_on,,,,,0,0,3,,,,,2,,,58,84
451392,note_off,,,,,192,0,3,,,,,2,,,63,0
451584,note_off,,,,,192,0,1,,,,,0,,,79,0
451584,note_on,,,,,0,0,1,,,,,0,,,77,103
451584,note_off,,,,,192,0,3,,,,,2,,,58,0
451584,note_on,,,,,0,0,3,,,,,2,,,56,84
451584,note_on,,,,,384,0,5,,,,,4,,,46,100
451776,note_on,,,,,0,0,3,,,,,2,,,58,84
451776,note_off,,,,,192,0,3,,,,,2,,,56,0
451968,note_on,,,,,0,0,5,,,,,4,,,58,100
451968,note_on,,,,,0,0,5,,,,,4,,,65,100
451968,note_off,,,,,192,0,3,,,,,2,,,58,0
451968,note_on,,,,,0,0,3,,,,,2,,,62,84
451968,note_off,,,,,384,0,5,,,,,4,,,46,0
452160,note_on,,,,,0,0,3,,,,,2,,,58,84
452160,note_off,,,,,192,0,3,,,,,2,,,62,0
452160,note_off,,,,,576,0,1,,,,,0,,,77,0
452160,note_on,,,,,0,0,1,,,,,0,,,75,103
452352,note_off,,,,,384,0,5,,,,,4,,,58,0
452352,note_on,,,,,0,0,5,,,,,4,,,58,100
452352,note_on,,,,,0,0,5,,,,,4,,,65,100
452352,note_on,,,,,0,0,3,,,,,2,,,56,84
452352,note_off,,,,,192,0,3,,,,,2,,,58,0
452352,note_off,,,,,0,0,5,,,,,4,,,65,0
452352,note_on,,,,,0,0,1,,,,,0,,,74,103
452352,note_off,,,,,192,0,1,,,,,0,,,75,0
452544,note_on,,,,,0,0,3,,,,,2,,,58,84
452544,note_off,,,,,192,0,3,,,,,2,,,56,0
452736,note_off,,,,,0,0,5,,,,,4,,,58,0
452736,note_off,,,,,384,0,5,,,,,4,,,65,0
452736,note_on,,,,,0,0,1,,,,,0,,,77,103
452736,note_off,,,,,192,0,3,,,,,2,,,58,0
452736,note_on,,,,,0,0,3,,,,,2,,,62,84
452736,note_off,,,,,384,0,1,,,,,0,,,74,0
452928,note_off,,,,,192,0,3,,,,,2,,,62,0
452928,note_on,,,,,0,0,3,,,,,2,,,58,84
453120,note_on,,,,,0,0,1,,,,,0,,,70,103
453120,note_off,,,,,384,0,1,,,,,0,,,77,0
453120,note_on,,,,,384,0,5,,,,,4,,,39,100
453120,note_off,,,,,192,0,3,,,,,2,,,58,0
453120,note_on,,,,,0,0,3,,,,,2,,,55,84
453312,note_on,,,,,0,0,3,,,,,2,,,58,84
453312,note_off,,,,,192,0,3,,,,,2,,,55,0
453504,note_on,,,,,0,0,5,,,,,4,,,55,100
453504,note_on,,,,,0,0,3,,,,,2,,,63,84
453504,note_off,,,,,192,0,3,,,,,2,,,58,0
453504,note_off,,,,,384,0,5,,,,,4,,,39,0
453504,note_on,,,,,0,0,5,,,,,4,,,63,100
453696,note_on,,,,,0,0,3,,,,,2,,,58,84
453696,note_off,,,,,192,0,3,,,,,2,,,63,0
453696,note_on,,,,,0,0,1,,,,,0,,,72,103
453696,note_off,,,,,576,0,1,,,,,0,,,70,0
453792,note_off,,,,,96,0,1,,,,,0,,,72,0
453792,note_on,,,,,0,0,1,,,,,0,,,74,103
453888,note_on,,,,,0,0,5,,,,,4,,,55,100
453888,note_on,,,,,0,0,3,,,,,2,,,55,84
453888,note_off,,,,,192,0,3,,,,,2,,,58,0
453888,note_on,,,,,0,0,5,,,,,4,,,63,100
453888,note_off,,,,,384,0,5,,,,,4,,,63,0
453888,note_off,,,,,0,0,5,,,,,4,,,55,0
453888,note_on,,,,,0,0,1,,,,,0,,,75,103
453888,note_off,,,,,96,0,1,,,,,0,,,74,0
454080,note_off,,,,,192,0,3,,,,,2,,,55,0
454080,note_on,,,,,0,0,3,,,,,2,,,58,84
454080,note_off,,,,,192,0,1,,,,,0,,,75,0
454272,note_on,,,,,0,0,3,,,,,2,,,63,84
454272,note_off,,,,,0,0,5,,,,,4,,,63,0
454272,note_off,,,,,384,0,5,,,,,4,,,55,0
454272,note_on,,,,,192,0,1,,,,,0,,,87,103
454272,note_off,,,,,192,0,3,,,,,2,,,58,0
454272,note_on,,,,,0,0,5,,,,,4,,,43,100
454464,note_off,,,,,192,0,1,,,,,0,,,87,0
454464,note_on,,,,,0,0,1,,,,,0,,,79,103
454464,note_off,,,,,192,0,3,,,,,2,,,63,0
454464,note_on,,,,,0,0,3,,,,,2,,,58,84
454656,note_on,,,,,6528,0,4,,,,,3,,,44,78
454656,end_of_track,,,,,0,1,5,,,,,,,,,
454656,note_on,,,,,0,0,3,,,,,2,,,64,84
454656,note_off,,,,,192,0,3,,,,,2,,,58,0
454656,note_off,,,,,192,0,1,,,,,0,,,79,0
454656,note_on,,,,,6528,0,2,,,,,1,,,67,90
454656,note_on,,,,,0,0,1,,,,,0,,,79,103
454656,note_off,,,,,384,0,5,,,,,4,,,43,0
454848,note_off,,,,,192,0,2,,,,,1,,,67,0
454848,note_on,,,,,0,0,3,,,,,2,,,65,84
454848,note_on,,,,,0,0,2,,,,,1,,,65,90
454848,note_off,,,,,192,0,3,,,,,2,,,64,0
454848,note_off,,,,,192,0,1,,,,,0,,,79,0
454848,note_on,,,,,0,0,1,,,,,0,,,77,103
455040,note_off,,,,,192,0,3,,,,,2,,,65,0
455040,note_on,,,,,0,0,3,,,,,2,,,60,84
455040,note_off,,,,,192,0,1,,,,,0,,,77,0
455040,note_on,,,,,0,0,1,,,,,0,,,80,103
455040,note_off,,,,,192,0,2,,,,,1,,,65,0
455040,note_on,,,,,0,0,2,,,,,1,,,68,90
455232,note_on,,,,,0,0,3,,,,,2,,,56,84
455232,note_on,,,,,0,0,2,,,,,1,,,72,90
455232,note_off,,,,,192,0,2,,,,,1,,,68,0
455232,note_off,,,,,192,0,3,,,,,2,,,60,0
455232,note_on,,,,,0,0,1,,,,,0,,,84,103
455232,note_off,,,,,192,0,1,,,,,0,,,80,0
455424,note_off,,,,,192,0,3,,,,,2,,,56,0
455424,note_on,,,,,0,0,3,,,,,2,,,55,84
455424,note_off,,,,,192,0,1,,,,,0,,,84,0
455424,note_off,,,,,768,0,4,,,,,3,,,44,0
455424,note_on,,,,,0,0,4,,,,,3,,,46,78
455424,note_on,,,,,0,0,2,,,,,1,,,63,90
455424,note_off,,,,,192,0,2,,,,,1,,,72,0
455424,note_on,,,,,0,0,1,,,,,0,,,75,103
455808,note_off,,,,,384,0,1,,,,,0,,,75,0
455808,note_on,,,,,0,0,1,,,,,0,,,79,103
455808,note_on,,,,,0,0,2,,,,,1,,,67,90
455808,note_on,,,,,0,0,3,,,,,2,,,50,84
455808,note_off,,,,,384,0,3,,,,,2,,,55,0
455808,note_off,,,,,384,0,2,,,,,1,,,63,0
456000,note_on,,,,,0,0,1,,,,,0,,,77,103
456000,note_off,,,,,192,0,1,,,,,0,,,79,0
456000,note_off,,,,,192,0,2,,,,,1,,,67,0
456000,note_on,,,,,0,0,2,,,,,1,,,65,90
456192,note_on,,,,,0,0,4,,,,,3,,,47,78
456192,note_off,,,,,192,0,1,,,,,0,,,77,0
456192,note_on,,,,,0,0,1,,,,,0,,,67,103
456192,note_on,,,,,0,0,1,,,,,0,,,79,103
456192,note_off,,,,,192,0,2,,,,,1,,,65,0
456192,note_off,,,,,768,0,4,,,,,3,,,46,0
456192,note_on,,,,,0,0,2,,,,,1,,,62,90
456192,note_off,,,,,384,0,3,,,,,2,,,50,0
456192,note_on,,,,,0,0,3,,,,,2,,,62,84
456192,note_on,,,,,0,0,3,,,,,2,,,55,84
456192,note_on,,,,,0,0,2,,,,,1,,,55,90
457344,note_off,,,,,0,0,3,,,,,2,,,62,0
457344,note_on,,,,,0,0,2,,,,,1,,,67,90
457344,note_off,,,,,1152,0,4,,,,,3,,,47,0
457344,note_off,,,,,0,0,2,,,,,1,,,55,0
457344,note_off,,,,,1152,0,2,,,,,1,,,62,0
457344,note_off,,,,,1152,0,3,,,,,2,,,55,0
457344,note_on,,,,,0,0,1,,,,,0,,,79,103
457344,note_off,,,,,0,0,1,,,,,0,,,79,0
457344,note_off,,,,,1152,0,1,,,,,0,,,67,0
457632,note_on,,,,,0,0,2,,,,,1,,,66,90
457632,note_off,,,,,288,0,2,,,,,1,,,67,0
457632,note_off,,,,,288,0,1,,,,,0,,,79,0
457632,note_on,,,,,0,0,1,,,,,0,,,78,103
457728,note_off,,,,,96,0,1,,,,,0,,,78,0
457728,note_on,,,,,0,0,2,,,,,1,,,67,90
457728,note_on,,,,,0,0,1,,,,,0,,,79,103
457728,note_off,,,,,96,0,2,,,,,1,,,66,0
457920,note_off,,,,,192,0,1,,,,,0,,,79,0
457920,note_off,,,,,192,0,2,,,,,1,,,67,0
458112,note_on,,,,,192,0,2,,,,,1,,,67,90
458112,note_on,,,,,192,0,1,,,,,0,,,79,103
458400,note_off,,,,,288,0,2,,,,,1,,,67,0
458400,note_on,,,,,0,0,2,,,,,1,,,66,90
458400,note_off,,,,,288,0,1,,,,,0,,,79,0
458400,note_on,,,,,0,0,1,,,,,0,,,78,103
458496,note_off,,,,,96,0,2,,,,,1,,,66,0
458496,note_on,,,,,0,0,2,,,,,1,,,67,90
458496,note_off,,,,,96,0,1,,,,,0,,,78,0
458496,note_on,,,,,0,0,1,,,,,0,,,79,103
458688,note_off,,,,,192,0,2,,,,,1,,,67,0
458688,note_off,,,,,192,0,1,,,,,0,,,79,0
458880,note_on,,,,,1536,0,3,,,,,2,,,51,84
458880,note_on,,,,,192,0,2,,,,,1,,,67,90
458880,note_on,,,,,1536,0,4,,,,,3,,,51,78
458880,note_on,,,,,192,0,1,,,,,0,,,79,103
459264,note_on,,,,,0,0,3,,,,,2,,,52,84
459264,note_on,,,,,0,0,2,,,,,1,,,70,90
459264,note_off,,,,,384,0,2,,,,,1,,,67,0
459264,note_off,,,,,384,0,1,,,,,0,,,79,0
459264,note_on,,,,,0,0,4,,,,,3,,,44,78
459264,note_off,,,,,384,0,4,,,,,3,,,51,0
459264,note_off,,,,,384,0,3,,,,,2,,,51,0
459264,note_on,,,,,0,0,1,,,,,0,,,82,103
459456,note_off,,,,,192,0,3,,,,,2,,,52,0
459456,note_on,,,,,0,0,3,,,,,2,,,53,84
459456,note_off,,,,,192,0,1,,,,,0,,,82,0
459456,note_on,,,,,0,0,2,,,,,1,,,68,90
459456,note_on,,,,,0,0,1,,,,,0,,,80,103
459456,note_off,,,,,192,0,2,,,,,1,,,70,0
459648,note_off,,,,,192,0,2,,,,,1,,,68,0
459648,note_on,,,,,0,0,1,,,,,0,,,79,103
459648,note_on,,,,,0,0,3,,,,,2,,,55,84
459648,note_off,,,,,192,0,3,,,,,2,,,53,0
459648,note_off,,,,,192,0,1,,,,,0,,,80,0
459648,note_on,,,,,0,0,2,,,,,1,,,67,90
459840,note_on,,,,,0,0,3,,,,,2,,,56,84
459840,note_off,,,,,192,0,3,,,,,2,,,55,0
459840,note_on,,,,,0,0,1,,,,,0,,,77,103
459840,note_on,,,,,0,0,2,,,,,1,,,65,90
459840,note_off,,,,,192,0,2,,,,,1,,,67,0
459840,note_off,,,,,192,0,1,,,,,0,,,79,0
460032,note_on,,,,,0,0,2,,,,,1,,,63,90
460032,note_off,,,,,192,0,1,,,,,0,,,77,0
460032,note_on,,,,,0,0,1,,,,,0,,,75,103
460032,note_off,,,,,768,0,4,,,,,3,,,44,0
460032,note_off,,,,,192,0,3,,,,,2,,,56,0
460032,note_on,,,,,0,0,3,,,,,2,,,55,84
460032,note_off,,,,,192,0,2,,,,,1,,,65,0
460032,note_on,,,,,0,0,4,,,,,3,,,46,78
460416,note_on,,,,,0,0,1,,,,,0,,,77,103
460416,note_off,,,,,384,0,1,,,,,0,,,75,0
460416,note_on,,,,,0,0,2,,,,,1,,,65,90
460416,note_off,,,,,384,0,2,,,,,1,,,63,0
460416,note_on,,,,,0,0,3,,,,,2,,,50,84
460416,note_off,,,,,384,0,3,,,,,2,,,55,0
460800,note_off,,,,,384,0,3,,,,,2,,,50,0
460800,note_on,,,,,0,0,3,,,,,2,,,51,84
460800,note_off,,,,,384,0,2,,,,,1,,,65,0
460800,note_on,,,,,0,0,2,,,,,1,,,67,90
460800,note_off,,,,,384,0,1,,,,,0,,,77,0
460800,note_on,,,,,0,0,1,,,,,0,,,79,103
460800,note_on,,,,,0,0,4,,,,,3,,,39,78
460800,note_off,,,,,768,0,4,,,,,3,,,46,0
460992,note_off,,,,,192,0,2,,,,,1,,,67,0
460992,note_off,,,,,192,0,1,,,,,0,,,79,0
461184,note_on,,,,,192,0,2,,,,,1,,,67,90
461184,note_on,,,,,192,0,1,,,,,0,,,79,103
461184,note_off,,,,,384,0,4,,,,,3,,,39,0
461184,note_off,,,,,384,0,3,,,,,2,,,51,0
461472,note_off,,,,,288,0,1,,,,,0,,,79,0
461472,note_on,,,,,0,0,2,,,,,1,,,66,90
461472,note_off,,,,,288,0,2,,,,,1,,,67,0
461472,note_on,,,,,0,0,1,,,,,0,,,78,103
461568,note_off,,,,,96,0,2,,,,,1,,,66,0
461568,note_off,,,,,96,0,1,,,,,0,,,78,0
461568,note_on,,,,,0,0,1,,,,,0,,,79,103
461568,note_on,,,,,0,0,2,,,,,1,,,67,90
461760,note_off,,,,,192,0,1,,,,,0,,,79,0
461760,note_off,,,,,192,0,2,,,,,1,,,67,0
461952,note_on,,,,,192,0,1,,,,,0,,,79,103
461952,note_on,,,,,768,0,3,,,,,2,,,51,84
461952,note_on,,,,,768,0,4,,,,,3,,,51,78
461952,note_on,,,,,192,0,2,,,,,1,,,67,90
462336,note_off,,,,,384,0,3,,,,,2,,,51,0
462336,note_off,,,,,384,0,2,,,,,1,,,67,0
462336,note_on,,,,,0,0,2,,,,,1,,,70,90
462336,note_on,,,,,0,0,4,,,,,3,,,44,78
462336,note_on,,,,,0,0,1,,,,,0,,,82,103
462336,note_off,,,,,384,0,1,,,,,0,,,79,0
462336,note_on,,,,,0,0,3,,,,,2,,,52,84
462336,note_off,,,,,384,0,4,,,,,3,,,51,0
462528,note_off,,,,,192,0,3,,,,,2,,,52,0
462528,note_on,,,,,0,0,2,,,,,1,,,68,90
462528,note_off,,,,,192,0,1,,,,,0,,,82,0
462528,note_on,,,,,0,0,3,,,,,2,,,53,84
462528,note_off,,,,,192,0,2,,,,,1,,,70,0
462528,note_on,,,,,0,0,1,,,,,0,,,80,103
462720,note_off,,,,,192,0,3,,,,,2,,,53,0
462720,note_on,,,,,0,0,3,,,,,2,,,55,84
462720,note_off,,,,,192,0,2,,,,,1,,,68,0
462720,note_off,,,,,192,0,1,,,,,0,,,80,0
462720,note_on,,,,,0,0,1,,,,,0,,,79,103
462720,note_on,,,,,0,0,2,,,,,1,,,67,90
462912,note_off,,,,,192,0,2,,,,,1,,,67,0
462912,note_on,,,,,0,0,2,,,,,1,,,65,90
462912,note_on,,,,,0,0,3,,,,,2,,,56,84
462912,note_off,,,,,192,0,3,,,,,2,,,55,0
462912,note_on,,,,,0,0,1,,,,,0,,,77,103
462912,note_off,,,,,192,0,1,,,,,0,,,79,0
463104,note_off,,,,,192,0,2,,,,,1,,,65,0
463104,note_on,,,,,0,0,2,,,,,1,,,63,90
463104,note_on,,,,,0,0,4,,,,,3,,,46,78
463104,note_off,,,,,768,0,4,,,,,3,,,44,0
463104,note_off,,,,,192,0,3,,,,,2,,,56,0
463104,note_on,,,,,0,0,3,,,,,2,,,55,84
463104,note_off,,,,,192,0,1,,,,,0,,,77,0
463104,note_on,,,,,0,0,1,,,,,0,,,75,103
463392,note_off,,,,,288,0,2,,,,,1,,,63,0
463392,note_on,,,,,0,0,2,,,,,1,,,67,90
463392,note_off,,,,,288,0,1,,,,,0,,,75,0
463392,note_on,,,,,0,0,1,,,,,0,,,79,103
463488,note_on,,,,,0,0,3,,,,,2,,,58,84
463488,note_off,,,,,384,0,3,,,,,2,,,55,0
463488,note_on,,,,,0,0,2,,,,,1,,,65,90
463488,note_on,,,,,0,0,1,,,,,0,,,77,103
463488,note_off,,,,,96,0,1,,,,,0,,,79,0
463488,note_off,,,,,96,0,2,,,,,1,,,67,0
463680,note_on,,,,,0,0,3,,,,,2,,,56,84
463680,note_off,,,,,192,0,3,,,,,2,,,58,0
463872,note_off,,,,,384,0,2,,,,,1,,,65,0
463872,note_on,,,,,0,0,2,,,,,1,,,63,90
463872,note_on,,,,,0,0,3,,,,,2,,,55,84
463872,note_off,,,,,192,0,3,,,,,2,,,56,0
463872,note_off,,,,,768,0,4,,,,,3,,,46,0
463872,note_on,,,,,0,0,4,,,,,3,,,51,78
463872,note_on,,,,,0,0,1,,,,,0,,,75,103
463872,note_off,,,,,384,0,1,,,,,0,,,77,0
464256,note_off,,,,,384,0,3,,,,,2,,,55,0
464256,note_off,,,,,384,0,4,,,,,3,,,51,0
464256,note_off,,,,,384,0,2,,,,,1,,,63,0
464256,note_off,,,,,384,0,1,,,,,0,,,75,0
465024,note_on,,,,,768,0,4,,,,,3,,,39,78
465024,note_on,,,,,768,0,3,,,,,2,,,51,84
465024,note_on,,,,,768,0,1,,,,,0,,,63,103
465024,note_on,,,,,768,0,2,,,,,1,,,63,90
465408,note_on,,,,,0,0,4,,,,,3,,,38,78
465408,note_off,,,,,384,0,1,,,,,0,,,63,0
465408,note_on,,,,,0,0,2,,,,,1,,,62,90
465408,note_off,,,,,384,0,2,,,,,1,,,63,0
465408,note_off,,,,,384,0,3,,,,,2,,,51,0
465408,note_on,,,,,0,0,3,,,,,2,,,50,84
465408,note_on,,,,,0,0,1,,,,,0,,,62,103
465408,note_off,,,,,384,0,4,,,,,3,,,39,0
466176,note_off,,,,,768,0,2,,,,,1,,,62,0
466176,note_on,,,,,0,0,2,,,,,1,,,65,90
466176,note_off,,,,,768,0,3,,,,,2,,,50,0
466176,note_on,,,,,0,0,3,,,,,2,,,53,84
466176,note_off,,,,,768,0,4,,,,,3,,,38,0
466176,note_on,,,,,0,0,4,,,,,3,,,41,78
466176,note_on,,,,,0,0,1,,,,,0,,,65,103
466176,note_off,,,,,768,0,1,,,,,0,,,62,0
466560,note_on,,,,,0,0,3,,,,,2,,,56,84
466560,note_on,,,,,0,0,1,,,,,0,,,68,103
466560,note_off,,,,,384,0,3,,,,,2,,,53,0
466560,note_off,,,,,384,0,2,,,,,1,,,65,0
466560,note_off,,,,,384,0,1,,,,,0,,,65,0
466560,note_on,,,,,0,0,2,,,,,1,,,68,90
466560,note_on,,,,,0,0,4,,,,,3,,,44,78
466560,note_off,,,,,384,0,4,,,,,3,,,41,0
466944,note_on,,,,,0,0,4,,,,,3,,,43,78
466944,note_off,,,,,384,0,4,,,,,3,,,44,0
466944,note_off,,,,,384,0,2,,,,,1,,,68,0
466944,note_off,,,,,384,0,1,,,,,0,,,68,0
466944,note_on,,,,,0,0,1,,,,,0,,,67,103
466944,note_on,,,,,0,0,3,,,,,2,,,55,84
466944,note_off,,,,,384,0,3,,,,,2,,,56,0
466944,note_on,,,,,0,0,2,,,,,1,,,67,90
467328,note_off,,,,,384,0,4,,,,,3,,,43,0
467328,note_off,,,,,384,0,2,,,,,1,,,67,0
467328,note_on,,,,,0,0,2,,,,,1,,,70,90
467328,note_off,,,,,384,0,1,,,,,0,,,67,0
467328,note_on,,,,,0,0,4,,,,,3,,,46,78
467328,note_on,,,,,0,0,1,,,,,0,,,70,103
467328,note_on,,,,,0,0,3,,,,,2,,,58,84
467328,note_off,,,,,384,0,3,,,,,2,,,55,0
467712,note_off,,,,,384,0,2,,,,,1,,,70,0
467712,note_off,,,,,384,0,4,,,,,3,,,46,0
467712,note_off,,,,,384,0,3,,,,,2,,,58,0
467712,note_off,,,,,384,0,1,,,,,0,,,70,0
468096,note_on,,,,,384,0,3,,,,,2,,,58,84
468096,note_on,,,,,384,0,1,,,,,0,,,67,103
468096,note_on,,,,,384,0,2,,,,,1,,,63,90
468096,note_on,,,,,384,0,4,,,,,3,,,51,78
468480,note_on,,,,,0,0,1,,,,,0,,,68,103
468480,note_off,,,,,384,0,1,,,,,0,,,67,0
468480,note_off,,,,,384,0,4,,,,,3,,,51,0
468480,note_on,,,,,0,0,2,,,,,1,,,65,90
468480,note_off,,,,,384,0,2,,,,,1,,,63,0
468480,note_off,,,,,384,0,3,,,,,2,,,58,0
468480,note_on,,,,,0,0,3,,,,,2,,,58,84
468480,note_on,,,,,0,0,4,,,,,3,,,50,78
469248,note_on,,,,,0,0,4,,,,,3,,,53,78
469248,note_off,,,,,768,0,1,,,,,0,,,68,0
469248,note_on,,,,,0,0,1,,,,,0,,,65,103
469248,note_off,,,,,768,0,2,,,,,1,,,65,0
469248,note_on,,,,,0,0,2,,,,,1,,,62,90
469248,note_off,,,,,768,0,4,,,,,3,,,50,0
469632,note_off,,,,,384,0,2,,,,,1,,,62,0
469632,note_on,,,,,0,0,2,,,,,1,,,58,90
469632,note_on,,,,,0,0,3,,,,,2,,,58,84
469632,note_on,,,,,0,0,1,,,,,0,,,62,103
469632,note_on,,,,,0,0,4,,,,,3,,,56,78
469632,note_off,,,,,384,0,4,,,,,3,,,53,0
469632,note_off,,,,,384,0,1,,,,,0,,,65,0
469632,note_off,,,,,1152,0,3,,,,,2,,,58,0
470016,note_off,,,,,384,0,3,,,,,2,,,58,0
470016,note_on,,,,,0,0,4,,,,,3,,,55,78
470016,note_off,,,,,384,0,4,,,,,3,,,56,0
470016,note_off,,,,,384,0,1,,,,,0,,,62,0
470016,note_on,,,,,0,0,1,,,,,0,,,63,103
470016,note_on,,,,,0,0,2,,,,,1,,,58,90
470016,note_on,,,,,0,0,3,,,,,2,,,58,84
470016,note_off,,,,,384,0,2,,,,,1,,,58,0
470144,note_off,,,,,128,0,3,,,,,2,,,58,0
470144,note_on,,,,,0,0,3,,,,,2,,,58,84
470272,note_off,,,,,128,0,3,,,,,2,,,58,0
470272,note_on,,,,,0,0,3,,,,,2,,,58,84
470400,note_on,,,,,0,0,1,,,,,0,,,58,103
470400,note_off,,,,,384,0,4,,,,,3,,,55,0
470400,note_on,,,,,0,0,4,,,,,3,,,58,78
470400,note_off,,,,,384,0,1,,,,,0,,,63,0
470400,note_on,,,,,0,0,3,,,,,2,,,58,84
470400,note_off,,,,,128,0,3,,,,,2,,,58,0
470528,note_off,,,,,128,0,3,,,,,2,,,58,0
470528,note_on,,,,,0,0,3,,,,,2,,,58,84
470656,note_off,,,,,128,0,3,,,,,2,,,58,0
470656,note_on,,,,,0,0,3,,,,,2,,,58,84
470784,note_off,,,,,768,0,2,,,,,1,,,58,0
470784,note_off,,,,,384,0,4,,,,,3,,,58,0
470784,note_off,,,,,384,0,1,,,,,0,,,58,0
470784,note_on,,,,,0,0,3,,,,,2,,,58,84
470784,note_off,,,,,128,0,3,,,,,2,,,58,0
470912,note_off,,,,,128,0,3,,,,,2,,,58,0
470912,note_on,,,,,0,0,3,,,,,2,,,58,84
471040,note_off,,,,,128,0,3,,,,,2,,,58,0
471040,note_on,,,,,0,0,3,,,,,2,,,58,84
471168,note_on,,,,,384,0,1,,,,,0,,,79,103
471168,note_off,,,,,128,0,3,,,,,2,,,58,0
471168,note_on,,,,,0,0,3,,,,,2,,,58,84
471168,note_on,,,,,384,0,2,,,,,1,,,67,90
471168,note_on,,,,,384,0,4,,,,,3,,,39,78
471296,note_on,,,,,0,0,3,,,,,2,,,58,84
471296,note_off,,,,,128,0,3,,,,,2,,,58,0
471424,note_on,,,,,0,0,3,,,,,2,,,58,84
471424,note_off,,,,,128,0,3,,,,,2,,,58,0
471552,note_off,,,,,128,0,3,,,,,2,,,58,0
471552,note_on,,,,,0,0,3,,,,,2,,,58,84
471552,note_on,,,,,0,0,1,,,,,0,,,80,103
471552,note_off,,,,,384,0,1,,,,,0,,,79,0
471552,note_on,,,,,0,0,4,,,,,3,,,38,78
471552,note_off,,,,,384,0,4,,,,,3,,,39,0
471552,note_off,,,,,384,0,2,,,,,1,,,67,0
471552,note_on,,,,,0,0,2,,,,,1,,,68,90
471680,note_off,,,,,128,0,1,,,,,0,,,80,0
471680,note_on,,,,,0,0,1,,,,,0,,,82,103
471680,note_on,,,,,0,0,3,,,,,2,,,58,84
471680,note_off,,,,,128,0,3,,,,,2,,,58,0
471680,note_on,,,,,0,0,2,,,,,1,,,70,90
471680,note_off,,,,,128,0,2,,,,,1,,,68,0
471728,note_off,,,,,48,0,1,,,,,0,,,82,0
471744,note_off,,,,,64,0,2,,,,,1,,,70,0
471808,note_on,,,,,64,0,2,,,,,1,,,68,90
471808,note_on,,,,,80,0,1,,,,,0,,,80,103
471808,note_on,,,,,0,0,3,,,,,2,,,58,84
471808,note_off,,,,,128,0,3,,,,,2,,,58,0
471856,note_off,,,,,48,0,1,,,,,0,,,80,0
471872,note_off,,,,,64,0,2,,,,,1,,,68,0
471936,note_on,,,,,80,0,1,,,,,0,,,79,103
471936,note_on,,,,,0,0,3,,,,,2,,,58,84
471936,note_off,,,,,128,0,3,,,,,2,,,58,0
471936,note_on,,,,,64,0,2,,,,,1,,,67,90
471984,note_off,,,,,48,0,1,,,,,0,,,79,0
472000,note_off,,,,,64,0,2,,,,,1,,,67,0
472064,note_off,,,,,128,0,3,,,,,2,,,58,0
472064,note_on,,,,,64,0,2,,,,,1,,,65,90
472064,note_on,,,,,80,0,1,,,,,0,,,77,103
472064,note_on,,,,,0,0,3,,,,,2,,,58,84
472112,note_off,,,,,48,0,1,,,,,0,,,77,0
472128,note_off,,,,,64,0,2,,,,,1,,,65,0
472192,note_on,,,,,80,0,1,,,,,0,,,75,103
472192,note_off,,,,,128,0,3,,,,,2,,,58,0
472192,note_on,,,,,0,0,3,,,,,2,,,58,84
472192,note_on,,,,,64,0,2,,,,,1,,,63,90
472240,note_off,,,,,48,0,1,,,,,0,,,75,0
472256,note_off,,,,,64,0,2,,,,,1,,,63,0
472320,note_on,,,,,0,0,3,,,,,2,,,58,84
472320,note_on,,,,,64,0,2,,,,,1,,,62,90
472320,note_off,,,,,128,0,3,,,,,2,,,58,0
472320,note_on,,,,,0,0,4,,,,,3,,,41,78
472320,note_off,,,,,768,0,4,,,,,3,,,38,0
472320,note_on,,,,,80,0,1,,,,,0,,,74,103
472368,note_off,,,,,48,0,1,,,,,0,,,74,0
472384,note_off,,,,,64,0,2,,,,,1,,,62,0
472448,note_on,,,,,0,0,3,,,,,2,,,58,84
472448,note_on,,,,,80,0,1,,,,,0,,,75,103
472448,note_off,,,,,128,0,3,,,,,2,,,58,0
472448,note_on,,,,,64,0,2,,,,,1,,,63,90
472496,note_off,,,,,48,0,1,,,,,0,,,75,0
472512,note_off,,,,,64,0,2,,,,,1,,,63,0
472576,note_on,,,,,80,0,1,,,,,0,,,72,103
472576,note_on,,,,,0,0,3,,,,,2,,,58,84
472576,note_off,,,,,128,0,3,,,,,2,,,58,0
472576,note_on,,,,,64,0,2,,,,,1,,,60,90
472624,note_off,,,,,48,0,1,,,,,0,,,72,0
472640,note_off,,,,,64,0,2,,,,,1,,,60,0
472704,note_on,,,,,0,0,3,,,,,2,,,58,84
472704,note_off,,,,,128,0,3,,,,,2,,,58,0
472704,note_on,,,,,80,0,1,,,,,0,,,70,103
472704,note_off,,,,,384,0,4,,,,,3,,,41,0
472704,note_on,,,,,0,0,4,,,,,3,,,44,78
472704,note_on,,,,,64,0,2,,,,,1,,,58,90
472752,note_off,,,,,48,0,1,,,,,0,,,70,0
472768,note_off,,,,,64,0,2,,,,,1,,,58,0
472832,note_on,,,,,80,0,1,,,,,0,,,72,103
472832,note_off,,,,,128,0,3,,,,,2,,,58,0
472832,note_on,,,,,0,0,3,,,,,2,,,58,84
472832,note_on,,,,,64,0,2,,,,,1,,,60,90
472880,note_off,,,,,48,0,1,,,,,0,,,72,0
472896,note_off,,,,,64,0,2,,,,,1,,,60,0
472960,note_on,,,,,64,0,2,,,,,1,,,62,90
472960,note_off,,,,,128,0,3,,,,,2,,,58,0
472960,note_on,,,,,0,0,3,,,,,2,,,58,84
472960,note_on,,,,,80,0,1,,,,,0,,,74,103
473008,note_off,,,,,48,0,1,,,,,0,,,74,0
473024,note_off,,,,,64,0,2,,,,,1,,,62,0
473088,note_on,,,,,80,0,1,,,,,0,,,75,103
473088,note_on,,,,,0,0,3,,,,,2,,,58,84
473088,note_on,,,,,0,0,4,,,,,3,,,43,78
473088,note_off,,,,,128,0,3,,,,,2,,,58,0
473088,note_on,,,,,64,0,2,,,,,1,,,63,90
473088,note_off,,,,,384,0,4,,,,,3,,,44,0
473152,note_off,,,,,64,0,2,,,,,1,,,63,0
473216,note_on,,,,,64,0,2,,,,,1,,,58,90
473280,note_off,,,,,64,0,2,,,,,1,,,58,0
473344,note_on,,,,,64,0,2,,,,,1,,,58,90
473408,note_off,,,,,64,0,2,,,,,1,,,58,0
473472,note_on,,,,,0,0,4,,,,,3,,,46,78
473472,note_on,,,,,64,0,2,,,,,1,,,58,90
473472,note_off,,,,,384,0,3,,,,,2,,,58,0
473472,note_on,,,,,0,0,1,,,,,0,,,70,103
473472,note_off,,,,,384,0,1,,,,,0,,,75,0
473472,note_off,,,,,384,0,4,,,,,3,,,43,0
473600,note_off,,,,,128,0,2,,,,,1,,,58,0
473600,note_on,,,,,0,0,2,,,,,1,,,58,90
473728,note_off,,,,,128,0,2,,,,,1,,,58,0
473728,note_on,,,,,0,0,2,,,,,1,,,58,90
473856,note_off,,,,,384,0,1,,,,,0,,,70,0
473856,note_off,,,,,384,0,4,,,,,3,,,46,0
473856,note_off,,,,,128,0,2,,,,,1,,,58,0
473856,note_on,,,,,0,0,2,,,,,1,,,58,90
473984,note_off,,,,,128,0,2,,,,,1,,,58,0
473984,note_on,,,,,0,0,2,,,,,1,,,58,90
474112,note_off,,,,,128,0,2,,,,,1,,,58,0
474112,note_on,,,,,0,0,2,,,,,1,,,58,90
474240,note_off,,,,,128,0,2,,,,,1,,,58,0
474240,note_on,,,,,768,0,3,,,,,2,,,51,84
474240,note_on,,,,,384,0,1,,,,,0,,,79,103
474240,note_on,,,,,0,0,2,,,,,1,,,58,90
474368,note_on,,,,,0,0,2,,,,,1,,,58,90
474368,note_off,,,,,128,0,2,,,,,1,,,58,0
474496,note_on,,,,,0,0,2,,,,,1,,,58,90
474496,note_off,,,,,128,0,2,,,,,1,,,58,0
474624,note_off,,,,,384,0,1,,,,,0,,,79,0
474624,note_on,,,,,0,0,1,,,,,0,,,80,103
474624,note_on,,,,,0,0,3,,,,,2,,,50,84
474624,note_off,,,,,128,0,2,,,,,1,,,58,0
474624,note_off,,,,,384,0,3,,,,,2,,,51,0
474624,note_on,,,,,0,0,2,,,,,1,,,58,90
474752,note_off,,,,,128,0,2,,,,,1,,,58,0
474752,note_off,,,,,128,0,1,,,,,0,,,80,0
474752,note_on,,,,,0,0,1,,,,,0,,,82,103
474752,note_on,,,,,0,0,2,,,,,1,,,58,90
474800,note_off,,,,,48,0,1,,,,,0,,,82,0
474880,note_on,,,,,0,0,2,,,,,1,,,58,90
474880,note_off,,,,,128,0,2,,,,,1,,,58,0
474880,note_on,,,,,80,0,1,,,,,0,,,80,103
474928,note_off,,,,,48,0,1,,,,,0,,,80,0
475008,note_on,,,,,0,0,2,,,,,1,,,58,90
475008,note_off,,,,,128,0,2,,,,,1,,,58,0
475008,note_on,,,,,80,0,1,,,,,0,,,79,103
475056,note_off,,,,,48,0,1,,,,,0,,,79,0
475136,note_on,,,,,80,0,1,,,,,0,,,77,103
475136,note_on,,,,,0,0,2,,,,,1,,,58,90
475136,note_off,,,,,128,0,2,,,,,1,,,58,0
475184,note_off,,,,,48,0,1,,,,,0,,,77,0
475264,note_on,,,,,80,0,1,,,,,0,,,75,103
475264,note_off,,,,,128,0,2,,,,,1,,,58,0
475264,note_on,,,,,0,0,2,,,,,1,,,58,90
475312,note_off,,,,,48,0,1,,,,,0,,,75,0
475392,note_on,,,,,0,0,2,,,,,1,,,58,90
475392,note_on,,,,,80,0,1,,,,,0,,,74,103
475392,note_off,,,,,768,0,3,,,,,2,,,50,0
475392,note_on,,,,,0,0,3,,,,,2,,,53,84
475392,note_off,,,,,128,0,2,,,,,1,,,58,0
475440,note_off,,,,,48,0,1,,,,,0,,,74,0
475520,note_on,,,,,0,0,2,,,,,1,,,58,90
475520,note_off,,,,,128,0,2,,,,,1,,,58,0
475520,note_on,,,,,80,0,1,,,,,0,,,75,103
475568,note_off,,,,,48,0,1,,,,,0,,,75,0
475648,note_on,,,,,80,0,1,,,,,0,,,72,103
475648,note_on,,,,,0,0,2,,,,,1,,,58,90
475648,note_off,,,,,128,0,2,,,,,1,,,58,0
475696,note_off,,,,,48,0,1,,,,,0,,,72,0
475776,note_on,,,,,0,0,2,,,,,1,,,58,90
475776,note_on,,,,,0,0,3,,,,,2,,,56,84
475776,note_on,,,,,80,0,1,,,,,0,,,70,103
475776,note_off,,,,,128,0,2,,,,,1,,,58,0
475776,note_off,,,,,384,0,3,,,,,2,,,53,0
475824,note_off,,,,,48,0,1,,,,,0,,,70,0
475904,note_on,,,,,80,0,1,,,,,0,,,72,103
475904,note_off,,,,,128,0,2,,,,,1,,,58,0
475904,note_on,,,,,0,0,2,,,,,1,,,58,90
475952,note_off,,,,,48,0,1,,,,,0,,,72,0
476032,note_off,,,,,128,0,2,,,,,1,,,58,0
476032,note_on,,,,,0,0,2,,,,,1,,,58,90
476032,note_on,,,,,80,0,1,,,,,0,,,74,103
476080,note_off,,,,,48,0,1,,,,,0,,,74,0
476160,note_on,,,,,0,0,2,,,,,1,,,58,90
476160,note_off,,,,,128,0,2,,,,,1,,,58,0
476160,note_off,,,,,384,0,3,,,,,2,,,56,0
476160,note_on,,,,,0,0,3,,,,,2,,,55,84
476160,note_on,,,,,80,0,1,,,,,0,,,75,103
476288,note_on,,,,,0,0,2,,,,,1,,,58,90
476288,note_off,,,,,128,0,2,,,,,1,,,58,0
476352,note_off,,,,,192,0,3,,,,,2,,,55,0
476352,note_off,,,,,192,0,1,,,,,0,,,75,0
476416,note_on,,,,,0,0,2,,,,,1,,,58,90
476416,note_off,,,,,128,0,2,,,,,1,,,58,0
476544,note_on,,,,,0,0,2,,,,,1,,,58,90
476544,note_off,,,,,128,0,2,,,,,1,,,58,0
476544,note_on,,,,,2688,0,4,,,,,3,,,46,78
476544,note_on,,,,,192,0,1,,,,,0,,,70,103
476544,note_on,,,,,192,0,3,,,,,2,,,58,84
476672,note_on,,,,,0,0,2,,,,,1,,,58,90
476672,note_off,,,,,128,0,2,,,,,1,,,58,0
476800,note_off,,,,,128,0,2,,,,,1,,,58,0
476800,note_on,,,,,0,0,2,,,,,1,,,58,90
476928,note_on,,,,,0,0,4,,,,,3,,,43,78
476928,note_on,,,,,0,0,2,,,,,1,,,58,90
476928,note_on,,,,,0,0,1,,,,,0,,,67,103
476928,note_off,,,,,384,0,1,,,,,0,,,70,0
476928,note_off,,,,,384,0,3,,,,,2,,,58,0
476928,note_on,,,,,0,0,3,,,,,2,,,55,84
476928,note_off,,,,,128,0,2,,,,,1,,,58,0
476928,note_off,,,,,384,0,4,,,,,3,,,46,0
477056,note_off,,,,,128,0,2,,,,,1,,,58,0
477056,note_on,,,,,0,0,2,,,,,1,,,58,90
477184,note_off,,,,,128,0,2,,,,,1,,,58,0
477184,note_on,,,,,0,0,2,,,,,1,,,58,90
477312,note_off,,,,,384,0,4,,,,,3,,,43,0
477312,note_on,,,,,0,0,1,,,,,0,,,65,103
477312,note_off,,,,,384,0,1,,,,,0,,,67,0
477312,note_on,,,,,0,0,4,,,,,3,,,41,78
477312,note_off,,,,,384,0,3,,,,,2,,,55,0
477312,note_on,,,,,0,0,3,,,,,2,,,53,84
477312,note_off,,,,,128,0,2,,,,,1,,,58,0
477312,note_on,,,,,0,0,2,,,,,1,,,59,90
477440,note_off,,,,,128,0,2,,,,,1,,,59,0
477440,note_on,,,,,0,0,2,,,,,1,,,59,90
477568,note_off,,,,,128,0,2,,,,,1,,,59,0
477568,note_on,,,,,0,0,2,,,,,1,,,59,90
477696,note_on,,,,,0,0,1,,,,,0,,,64,103
477696,note_off,,,,,384,0,1,,,,,0,,,65,0
477696,note_on,,,,,0,0,2,,,,,1,,,60,90
477696,note_off,,,,,128,0,2,,,,,1,,,59,0
477696,note_off,,,,,384,0,4,,,,,3,,,41,0
477696,note_on,,,,,0,0,4,,,,,3,,,40,78
477696,note_off,,,,,384,0,3,,,,,2,,,53,0
477696,note_on,,,,,0,0,3,,,,,2,,,52,84
477824,note_off,,,,,128,0,2,,,,,1,,,60,0
477824,note_on,,,,,0,0,2,,,,,1,,,60,90
477952,note_on,,,,,0,0,2,,,,,1,,,60,90
477952,note_off,,,,,128,0,2,,,,,1,,,60,0
478080,note_on,,,,,0,0,2,,,,,1,,,60,90
478080,note_off,,,,,128,0,2,,,,,1,,,60,0
478208,note_on,,,,,0,0,2,,,,,1,,,60,90
478208,note_off,,,,,128,0,2,,,,,1,,,60,0
478336,note_off,,,,,128,0,2,,,,,1,,,60,0
478336,note_on,,,,,0,0,2,,,,,1,,,60,90
478464,note_on,,,,,0,0,3,,,,,2,,,55,84
478464,note_off,,,,,768,0,4,,,,,3,,,40,0
478464,note_on,,,,,0,0,4,,,,,3,,,43,78
478464,note_off,,,,,768,0,1,,,,,0,,,64,0
478464,note_on,,,,,0,0,1,,,,,0,,,67,103
478464,note_off,,,,,128,0,2,,,,,1,,,60,0
478464,note_off,,,,,768,0,3,,,,,2,,,52,0
478464,note_on,,,,,0,0,2,,,,,1,,,60,90
478592,note_on,,,,,0,0,2,,,,,1,,,60,90
478592,note_off,,,,,128,0,2,,,,,1,,,60,0
478720,note_off,,,,,128,0,2,,,,,1,,,60,0
478720,note_on,,,,,0,0,2,,,,,1,,,60,90
478848,note_on,,,,,0,0,3,,,,,2,,,58,84
478848,note_on,,,,,0,0,4,,,,,3,,,46,78
478848,note_off,,,,,384,0,4,,,,,3,,,43,0
478848,note_off,,,,,384,0,3,,,,,2,,,55,0
478848,note_off,,,,,384,0,1,,,,,0,,,67,0
478848,note_off,,,,,128,0,2,,,,,1,,,60,0
478848,note_on,,,,,0,0,2,,,,,1,,,60,90
478848,note_on,,,,,0,0,1,,,,,0,,,70,103
478976,note_on,,,,,0,0,2,,,,,1,,,60,90
478976,note_off,,,,,128,0,2,,,,,1,,,60,0
479104,note_off,,,,,128,0,2,,,,,1,,,60,0
479104,note_on,,,,,0,0,2,,,,,1,,,60,90
479232,note_on,,,,,0,0,1,,,,,0,,,68,103
479232,note_off,,,,,384,0,4,,,,,3,,,46,0
479232,note_off,,,,,384,0,1,,,,,0,,,70,0
479232,note_on,,,,,0,0,2,,,,,1,,,60,90
479232,note_off,,,,,128,0,2,,,,,1,,,60,0
479232,note_on,,,,,0,0,3,,,,,2,,,56,84
479232,note_off,,,,,384,0,3,,,,,2,,,58,0
479232,note_on,,,,,0,0,4,,,,,3,,,44,78
479360,note_off,,,,,128,0,2,,,,,1,,,60,0
479360,note_on,,,,,0,0,2,,,,,1,,,60,90
479488,note_on,,,,,0,0,2,,,,,1,,,60,90
479488,note_off,,,,,128,0,2,,,,,1,,,60,0
479616,note_off,,,,,384,0,1,,,,,0,,,68,0
479616,note_on,,,,,0,0,1,,,,,0,,,72,103
479616,note_off,,,,,384,0,4,,,,,3,,,44,0
479616,note_on,,,,,0,0,2,,,,,1,,,60,90
479616,note_on,,,,,0,0,4,,,,,3,,,48,78
479616,note_on,,,,,0,0,3,,,,,2,,,60,84
479616,note_off,,,,,384,0,3,,,,,2,,,56,0
479616,note_off,,,,,128,0,2,,,,,1,,,60,0
479744,note_on,,,,,0,0,2,,,,,1,,,60,90
479744,note_off,,,,,128,0,2,,,,,1,,,60,0
479872,note_on,,,,,0,0,2,,,,,1,,,60,90
479872,note_off,,,,,128,0,2,,,,,1,,,60,0
480000,note_off,,,,,384,0,3,,,,,2,,,60,0
480000,note_off,,,,,384,0,4,,,,,3,,,48,0
480000,note_off,,,,,384,0,1,,,,,0,,,72,0
480000,note_off,,,,,128,0,2,,,,,1,,,60,0
480000,note_on,,,,,0,0,2,,,,,1,,,60,90
480128,note_off,,,,,128,0,2,,,,,1,,,60,0
480128,note_on,,,,,0,0,2,,,,,1,,,60,90
480256,note_on,,,,,0,0,2,,,,,1,,,60,90
480256,note_off,,,,,128,0,2,,,,,1,,,60,0
480384,note_on,,,,,384,0,1,,,,,0,,,80,103
480384,note_on,,,,,384,0,3,,,,,2,,,53,84
480384,note_on,,,,,0,0,2,,,,,1,,,60,90
480384,note_off,,,,,128,0,2,,,,,1,,,60,0
480512,note_on,,,,,0,0,2,,,,,1,,,60,90
480512,note_off,,,,,128,0,2,,,,,1,,,60,0
480640,note_on,,,,,0,0,2,,,,,1,,,60,90
480640,note_off,,,,,128,0,2,,,,,1,,,60,0
480768,note_on,,,,,0,0,2,,,,,1,,,60,90
480768,note_on,,,,,0,0,3,,,,,2,,,52,84
480768,note_off,,,,,384,0,3,,,,,2,,,53,0
480768,note_on,,,,,0,0,1,,,,,0,,,84,103
480768,note_off,,,,,384,0,1,,,,,0,,,80,0
480768,note_off,,,,,128,0,2,,,,,1,,,60,0
480896,note_on,,,,,0,0,2,,,,,1,,,60,90
480896,note_off,,,,,128,0,2,,,,,1,,,60,0
480896,note_on,,,,,0,0,1,,,,,0,,,85,103
480896,note_off,,,,,128,0,1,,,,,0,,,84,0
480960,note_off,,,,,64,0,1,,,,,0,,,85,0
481024,note_on,,,,,64,0,1,,,,,0,,,84,103
481024,note_off,,,,,128,0,2,,,,,1,,,60,0
481024,note_on,,,,,0,0,2,,,,,1,,,60,90
481088,note_off,,,,,64,0,1,,,,,0,,,84,0
481152,note_off,,,,,128,0,2,,,,,1,,,60,0
481152,note_on,,,,,0,0,2,,,,,1,,,60,90
481152,note_on,,,,,64,0,1,,,,,0,,,82,103
481216,note_off,,,,,64,0,1,,,,,0,,,82,0
481280,note_off,,,,,128,0,2,,,,,1,,,60,0
481280,note_on,,,,,0,0,2,,,,,1,,,60,90
481280,note_on,,,,,64,0,1,,,,,0,,,80,103
481344,note_off,,,,,64,0,1,,,,,0,,,80,0
481408,note_on,,,,,64,0,1,,,,,0,,,79,103
481408,note_on,,,,,0,0,2,,,,,1,,,60,90
481408,note_off,,,,,128,0,2,,,,,1,,,60,0
481472,note_off,,,,,64,0,1,,,,,0,,,79,0
481536,note_on,,,,,0,0,3,,,,,2,,,55,84
481536,note_off,,,,,768,0,3,,,,,2,,,52,0
481536,note_on,,,,,64,0,1,,,,,0,,,77,103
481536,note_on,,,,,0,0,2,,,,,1,,,60,90
481536,note_off,,,,,128,0,2,,,,,1,,,60,0
481600,note_off,,,,,64,0,1,,,,,0,,,77,0
481664,note_on,,,,,64,0,1,,,,,0,,,76,103
481664,note_off,,,,,128,0,2,,,,,1,,,60,0
481664,note_on,,,,,0,0,2,,,,,1,,,60,90
481728,note_off,,,,,64,0,1,,,,,0,,,76,0
481792,note_on,,,,,64,0,1,,,,,0,,,74,103
481792,note_off,,,,,128,0,2,,,,,1,,,60,0
481792,note_on,,,,,0,0,2,,,,,1,,,60,90
481856,note_off,,,,,64,0,1,,,,,0,,,74,0
481920,note_on,,,,,64,0,1,,,,,0,,,72,103
481920,note_off,,,,,384,0,3,,,,,2,,,55,0
481920,note_on,,,,,0,0,3,,,,,2,,,58,84
481920,note_on,,,,,0,0,2,,,,,1,,,60,90
481920,note_off,,,,,128,0,2,,,,,1,,,60,0
481984,note_off,,,,,64,0,1,,,,,0,,,72,0
482048,note_on,,,,,0,0,2,,,,,1,,,60,90
482048,note_on,,,,,64,0,1,,,,,0,,,74,103
482048,note_off,,,,,128,0,2,,,,,1,,,60,0
482112,note_off,,,,,64,0,1,,,,,0,,,74,0
482176,note_on,,,,,64,0,1,,,,,0,,,76,103
482176,note_off,,,,,128,0,2,,,,,1,,,60,0
482176,note_on,,,,,0,0,2,,,,,1,,,60,90
482240,note_off,,,,,64,0,1,,,,,0,,,76,0
482304,note_on,,,,,0,0,3,,,,,2,,,56,84
482304,note_off,,,,,128,0,2,,,,,1,,,60,0
482304,note_on,,,,,0,0,2,,,,,1,,,60,90
482304,note_off,,,,,384,0,3,,,,,2,,,58,0
482304,note_on,,,,,64,0,1,,,,,0,,,77,103
482432,note_on,,,,,0,0,2,,,,,1,,,60,90
482432,note_off,,,,,128,0,2,,,,,1,,,60,0
482560,note_on,,,,,0,0,2,,,,,1,,,60,90
482560,note_off,,,,,128,0,2,,,,,1,,,60,0
482688,note_on,,,,,0,0,1,,,,,0,,,72,103
482688,note_on,,,,,0,0,2,,,,,1,,,60,90
482688,note_off,,,,,128,0,2,,,,,1,,,60,0
482688,note_on,,,,,0,0,3,,,,,2,,,60,84
482688,note_off,,,,,384,0,3,,,,,2,,,56,0
482688,note_off,,,,,384,0,1,,,,,0,,,77,0
482816,note_on,,,,,0,0,2,,,,,1,,,60,90
482816,note_off,,,,,128,0,2,,,,,1,,,60,0
482944,note_on,,,,,0,0,2,,,,,1,,,60,90
482944,note_off,,,,,128,0,2,,,,,1,,,60,0
483072,note_off,,,,,128,0,2,,,,,1,,,60,0
483072,note_off,,,,,384,0,1,,,,,0,,,72,0
483072,note_on,,,,,0,0,2,,,,,1,,,60,90
483072,note_off,,,,,384,0,3,,,,,2,,,60,0
483200,note_on,,,,,0,0,2,,,,,1,,,60,90
483200,note_off,,,,,128,0,2,,,,,1,,,60,0
483328,note_off,,,,,128,0,2,,,,,1,,,60,0
483328,note_on,,,,,0,0,2,,,,,1,,,60,90
483456,note_on,,,,,384,0,3,,,,,2,,,56,84
483456,note_on,,,,,384,0,1,,,,,0,,,56,103
483456,note_off,,,,,128,0,2,,,,,1,,,60,0
483456,note_on,,,,,0,0,2,,,,,1,,,62,90
483456,note_on,,,,,3456,0,4,,,,,3,,,44,78
483584,note_off,,,,,128,0,2,,,,,1,,,62,0
483584,note_on,,,,,0,0,2,,,,,1,,,62,90
483712,note_on,,,,,0,0,2,,,,,1,,,62,90
483712,note_off,,,,,128,0,2,,,,,1,,,62,0
483840,note_off,,,,,384,0,3,,,,,2,,,56,0
483840,note_on,,,,,0,0,3,,,,,2,,,55,84
483840,note_off,,,,,128,0,2,,,,,1,,,62,0
483840,note_on,,,,,0,0,2,,,,,1,,,63,90
483840,note_off,,,,,384,0,4,,,,,3,,,44,0
483840,note_on,,,,,0,0,4,,,,,3,,,43,78
483840,note_on,,,,,0,0,1,,,,,0,,,55,103
483840,note_off,,,,,384,0,1,,,,,0,,,56,0
483968,note_off,,,,,128,0,2,,,,,1,,,63,0
483968,note_on,,,,,0,0,2,,,,,1,,,63,90
484096,note_off,,,,,128,0,2,,,,,1,,,63,0
484096,note_on,,,,,0,0,2,,,,,1,,,63,90
484224,note_on,,,,,0,0,2,,,,,1,,,63,90
484224,note_off,,,,,128,0,2,,,,,1,,,63,0
484352,note_off,,,,,128,0,2,,,,,1,,,63,0
484352,note_on,,,,,0,0,2,,,,,1,,,63,90
484480,note_off,,,,,128,0,2,,,,,1,,,63,0
484480,note_on,,,,,0,0,2,,,,,1,,,63,90
484608,note_on,,,,,0,0,1,,,,,0,,,58,103
484608,note_off,,,,,768,0,1,,,,,0,,,55,0
484608,note_on,,,,,0,0,3,,,,,2,,,58,84
484608,note_off,,,,,768,0,3,,,,,2,,,55,0
484608,note_on,,,,,0,0,4,,,,,3,,,46,78
484608,note_on,,,,,0,0,2,,,,,1,,,63,90
484608,note_off,,,,,128,0,2,,,,,1,,,63,0
484608,note_off,,,,,768,0,4,,,,,3,,,43,0
484736,note_off,,,,,128,0,2,,,,,1,,,63,0
484736,note_on,,,,,0,0,2,,,,,1,,,63,90
484864,note_off,,,,,128,0,2,,,,,1,,,63,0
484864,note_on,,,,,0,0,2,,,,,1,,,63,90
484992,note_on,,,,,0,0,1,,,,,0,,,61,103
484992,note_off,,,,,384,0,3,,,,,2,,,58,0
484992,note_on,,,,,0,0,3,,,,,2,,,61,84
484992,note_off,,,,,384,0,1,,,,,0,,,58,0
484992,note_off,,,,,384,0,4,,,,,3,,,46,0
484992,note_on,,,,,0,0,4,,,,,3,,,49,78
484992,note_on,,,,,0,0,2,,,,,1,,,63,90
484992,note_off,,,,,128,0,2,,,,,1,,,63,0
485120,note_off,,,,,128,0,2,,,,,1,,,63,0
485120,note_on,,,,,0,0,2,,,,,1,,,63,90
485248,note_on,,,,,0,0,2,,,,,1,,,63,90
485248,note_off,,,,,128,0,2,,,,,1,,,63,0
485376,note_on,,,,,0,0,1,,,,,0,,,60,103
485376,note_off,,,,,384,0,1,,,,,0,,,61,0
485376,note_off,,,,,384,0,4,,,,,3,,,49,0
485376,note_on,,,,,0,0,2,,,,,1,,,63,90
485376,note_on,,,,,0,0,4,,,,,3,,,48,78
485376,note_off,,,,,128,0,2,,,,,1,,,63,0
485376,note_on,,,,,0,0,3,,,,,2,,,60,84
485376,note_off,,,,,384,0,3,,,,,2,,,61,0
485504,note_on,,,,,0,0,2,,,,,1,,,63,90
485504,note_off,,,,,128,0,2,,,,,1,,,63,0
485632,note_on,,,,,0,0,2,,,,,1,,,63,90
485632,note_off,,,,,128,0,2,,,,,1,,,63,0
485760,note_on,,,,,0,0,4,,,,,3,,,51,78
485760,note_off,,,,,384,0,1,,,,,0,,,60,0
485760,note_off,,,,,384,0,4,,,,,3,,,48,0
485760,note_on,,,,,0,0,1,,,,,0,,,63,103
485760,note_off,,,,,384,0,3,,,,,2,,,60,0
485760,note_on,,,,,0,0,3,,,,,2,,,63,84
485760,note_on,,,,,0,0,2,,,,,1,,,63,90
485760,note_off,,,,,128,0,2,,,,,1,,,63,0
485888,note_on,,,,,0,0,2,,,,,1,,,63,90
485888,note_off,,,,,128,0,2,,,,,1,,,63,0
486016,note_on,,,,,0,0,2,,,,,1,,,63,90
486016,note_off,,,,,128,0,2,,,,,1,,,63,0
486144,note_off,,,,,384,0,3,,,,,2,,,63,0
486144,note_off,,,,,384,0,4,,,,,3,,,51,0
486144,note_on,,,,,0,0,2,,,,,1,,,63,90
486144,note_off,,,,,384,0,1,,,,,0,,,63,0
486144,note_off,,,,,128,0,2,,,,,1,,,63,0
486272,note_on,,,,,0,0,2,,,,,1,,,63,90
486272,note_off,,,,,128,0,2,,,,,1,,,63,0
486400,note_on,,,,,0,0,2,,,,,1,,,63,90
486400,note_off,,,,,128,0,2,,,,,1,,,63,0
486528,note_on,,,,,384,0,1,,,,,0,,,72,103
486528,note_off,,,,,128,0,2,,,,,1,,,63,0
486528,note_on,,,,,384,0,3,,,,,2,,,56,84
486528,note_on,,,,,0,0,2,,,,,1,,,63,90
486528,note_on,,,,,384,0,4,,,,,3,,,56,78
486656,note_on,,,,,0,0,2,,,,,1,,,63,90
486656,note_off,,,,,128,0,2,,,,,1,,,63,0
486784,note_on,,,,,0,0,2,,,,,1,,,63,90
486784,note_off,,,,,128,0,2,,,,,1,,,63,0
486912,note_off,,,,,384,0,4,,,,,3,,,56,0
486912,note_on,,,,,0,0,1,,,,,0,,,73,103
486912,note_off,,,,,384,0,1,,,,,0,,,72,0
486912,note_on,,,,,0,0,3,,,,,2,,,55,84
486912,note_on,,,,,0,0,4,,,,,3,,,55,78
486912,note_off,,,,,128,0,2,,,,,1,,,63,0
486912,note_on,,,,,0,0,2,,,,,1,,,63,90
486912,note_off,,,,,384,0,3,,,,,2,,,56,0
487040,note_off,,,,,128,0,2,,,,,1,,,63,0
487040,note_on,,,,,0,0,2,,,,,1,,,63,90
487040,note_off,,,,,128,0,1,,,,,0,,,73,0
487040,note_on,,,,,0,0,1,,,,,0,,,75,103
487104,note_off,,,,,64,0,1,,,,,0,,,75,0
487168,note_on,,,,,0,0,2,,,,,1,,,63,90
487168,note_on,,,,,64,0,1,,,,,0,,,73,103
487168,note_off,,,,,128,0,2,,,,,1,,,63,0
487232,note_off,,,,,64,0,1,,,,,0,,,73,0
487296,note_on,,,,,0,0,2,,,,,1,,,63,90
487296,note_off,,,,,128,0,2,,,,,1,,,63,0
487296,note_on,,,,,64,0,1,,,,,0,,,72,103
487360,note_off,,,,,64,0,1,,,,,0,,,72,0
487424,note_on,,,,,64,0,1,,,,,0,,,70,103
487424,note_on,,,,,0,0,2,,,,,1,,,63,90
487424,note_off,,,,,128,0,2,,,,,1,,,63,0
487488,note_off,,,,,64,0,1,,,,,0,,,70,0
487552,note_on,,,,,64,0,1,,,,,0,,,68,103
487552,note_off,,,,,128,0,2,,,,,1,,,63,0
487552,note_on,,,,,0,0,2,,,,,1,,,63,90
487616,note_off,,,,,64,0,1,,,,,0,,,68,0
487680,note_on,,,,,0,0,3,,,,,2,,,58,84
487680,note_on,,,,,0,0,2,,,,,1,,,63,90
487680,note_off,,,,,768,0,4,,,,,3,,,55,0
487680,note_on,,,,,0,0,4,,,,,3,,,58,78
487680,note_off,,,,,768,0,3,,,,,2,,,55,0
487680,note_off,,,,,128,0,2,,,,,1,,,63,0
487680,note_on,,,,,64,0,1,,,,,0,,,67,103
487744,note_off,,,,,64,0,1,,,,,0,,,67,0
487808,note_on,,,,,64,0,1,,,,,0,,,68,103
487808,note_on,,,,,0,0,2,,,,,1,,,63,90
487808,note_off,,,,,128,0,2,,,,,1,,,63,0
487872,note_off,,,,,64,0,1,,,,,0,,,68,0
487936,note_on,,,,,0,0,2,,,,,1,,,63,90
487936,note_off,,,,,128,0,2,,,,,1,,,63,0
487936,note_on,,,,,64,0,1,,,,,0,,,65,103
488000,note_off,,,,,64,0,1,,,,,0,,,65,0
488064,note_on,,,,,64,0,1,,,,,0,,,63,103
488064,note_off,,,,,384,0,3,,,,,2,,,58,0
488064,note_off,,,,,384,0,4,,,,,3,,,58,0
488064,note_on,,,,,0,0,3,,,,,2,,,61,84
488064,note_on,,,,,0,0,4,,,,,3,,,61,78
488064,note_off,,,,,128,0,2,,,,,1,,,63,0
488064,note_on,,,,,0,0,2,,,,,1,,,63,90
488128,note_off,,,,,64,0,1,,,,,0,,,63,0
488192,note_on,,,,,0,0,2,,,,,1,,,63,90
488192,note_on,,,,,64,0,1,,,,,0,,,65,103
488192,note_off,,,,,128,0,2,,,,,1,,,63,0
488256,note_off,,,,,64,0,1,,,,,0,,,65,0
488320,note_on,,,,,64,0,1,,,,,0,,,67,103
488320,note_on,,,,,0,0,2,,,,,1,,,63,90
488320,note_off,,,,,128,0,2,,,,,1,,,63,0
488384,note_off,,,,,64,0,1,,,,,0,,,67,0
488448,note_on,,,,,0,0,3,,,,,2,,,60,84
488448,note_off,,,,,384,0,3,,,,,2,,,61,0
488448,note_off,,,,,384,0,4,,,,,3,,,61,0
488448,note_off,,,,,128,0,2,,,,,1,,,63,0
488448,note_on,,,,,0,0,2,,,,,1,,,63,90
488448,note_on,,,,,64,0,1,,,,,0,,,68,103
488448,note_on,,,,,0,0,4,,,,,3,,,60,78
488576,note_off,,,,,128,0,3,,,,,2,,,60,0
488576,note_on,,,,,0,0,3,,,,,2,,,63,84
488704,note_on,,,,,0,0,3,,,,,2,,,63,84
488704,note_off,,,,,128,0,3,,,,,2,,,63,0
488832,note_off,,,,,128,0,3,,,,,2,,,63,0
488832,note_on,,,,,0,0,3,,,,,2,,,63,84
488832,note_on,,,,,0,0,4,,,,,3,,,63,78
488832,note_on,,,,,0,0,1,,,,,0,,,63,103
488832,note_off,,,,,384,0,2,,,,,1,,,63,0
488832,note_off,,,,,384,0,1,,,,,0,,,68,0
488832,note_off,,,,,384,0,4,,,,,3,,,60,0
488960,note_on,,,,,0,0,3,,,,,2,,,63,84
488960,note_off,,,,,128,0,3,,,,,2,,,63,0
489088,note_off,,,,,128,0,3,,,,,2,,,63,0
489088,note_on,,,,,0,0,3,,,,,2,,,63,84
489216,note_off,,,,,384,0,1,,,,,0,,,63,0
489216,note_off,,,,,384,0,4,,,,,3,,,63,0
489216,note_off,,,,,128,0,3,,,,,2,,,63,0
489216,note_on,,,,,0,0,3,,,,,2,,,63,84
489344,note_off,,,,,128,0,3,,,,,2,,,63,0
489344,note_on,,,,,0,0,3,,,,,2,,,63,84
489472,note_on,,,,,0,0,3,,,,,2,,,63,84
489472,note_off,,,,,128,0,3,,,,,2,,,63,0
489600,note_on,,,,,384,0,1,,,,,0,,,72,103
489600,note_on,,,,,768,0,2,,,,,1,,,56,90
489600,note_on,,,,,0,0,3,,,,,2,,,63,84
489600,note_off,,,,,128,0,3,,,,,2,,,63,0
489728,note_on,,,,,0,0,3,,,,,2,,,63,84
489728,note_off,,,,,128,0,3,,,,,2,,,63,0
489856,note_on,,,,,0,0,3,,,,,2,,,63,84
489856,note_off,,,,,128,0,3,,,,,2,,,63,0
489984,note_on,,,,,0,0,1,,,,,0,,,73,103
489984,note_off,,,,,384,0,1,,,,,0,,,72,0
489984,note_off,,,,,384,0,2,,,,,1,,,56,0
489984,note_on,,,,,0,0,2,,,,,1,,,55,90
489984,note_off,,,,,128,0,3,,,,,2,,,63,0
489984,note_on,,,,,0,0,3,,,,,2,,,63,84
490112,note_off,,,,,128,0,3,,,,,2,,,63,0
490112,note_on,,,,,0,0,3,,,,,2,,,63,84
490112,note_off,,,,,128,0,1,,,,,0,,,73,0
490112,note_on,,,,,0,0,1,,,,,0,,,75,103
490176,note_off,,,,,64,0,1,,,,,0,,,75,0
490240,note_off,,,,,128,0,3,,,,,2,,,63,0
490240,note_on,,,,,0,0,3,,,,,2,,,63,84
490240,note_on,,,,,64,0,1,,,,,0,,,73,103
490304,note_off,,,,,64,0,1,,,,,0,,,73,0
490368,note_off,,,,,128,0,3,,,,,2,,,63,0
490368,note_on,,,,,0,0,3,,,,,2,,,63,84
490368,note_on,,,,,64,0,1,,,,,0,,,72,103
490432,note_off,,,,,64,0,1,,,,,0,,,72,0
490496,note_on,,,,,64,0,1,,,,,0,,,70,103
490496,note_off,,,,,128,0,3,,,,,2,,,63,0
490496,note_on,,,,,0,0,3,,,,,2,,,63,84
490560,note_off,,,,,64,0,1,,,,,0,,,70,0
490624,note_on,,,,,0,0,3,,,,,2,,,63,84
490624,note_off,,,,,128,0,3,,,,,2,,,63,0
490624,note_on,,,,,64,0,1,,,,,0,,,68,103
490688,note_off,,,,,64,0,1,,,,,0,,,68,0
490752,note_off,,,,,128,0,3,,,,,2,,,63,0
490752,note_on,,,,,0,0,2,,,,,1,,,58,90
490752,note_on,,,,,0,0,3,,,,,2,,,63,84
490752,note_on,,,,,64,0,1,,,,,0,,,67,103
490752,note_off,,,,,768,0,2,,,,,1,,,55,0
490816,note_off,,,,,64,0,1,,,,,0,,,67,0
490880,note_on,,,,,0,0,3,,,,,2,,,63,84
490880,note_off,,,,,128,0,3,,,,,2,,,63,0
490880,note_on,,,,,64,0,1,,,,,0,,,68,103
490944,note_off,,,,,64,0,1,,,,,0,,,68,0
491008,note_on,,,,,64,0,1,,,,,0,,,65,103
491008,note_off,,,,,128,0,3,,,,,2,,,63,0
491008,note_on,,,,,0,0,3,,,,,2,,,63,84
491072,note_off,,,,,64,0,1,,,,,0,,,65,0
491136,note_off,,,,,128,0,3,,,,,2,,,63,0
491136,note_on,,,,,0,0,3,,,,,2,,,63,84
491136,note_on,,,,,64,0,1,,,,,0,,,63,103
491136,note_off,,,,,384,0,2,,,,,1,,,58,0
491136,note_on,,,,,0,0,2,,,,,1,,,61,90
491200,note_off,,,,,64,0,1,,,,,0,,,63,0
491264,note_off,,,,,128,0,3,,,,,2,,,63,0
491264,note_on,,,,,0,0,3,,,,,2,,,63,84
491264,note_on,,,,,64,0,1,,,,,0,,,65,103
491328,note_off,,,,,64,0,1,,,,,0,,,65,0
491392,note_on,,,,,64,0,1,,,,,0,,,67,103
491392,note_on,,,,,0,0,3,,,,,2,,,63,84
491392,note_off,,,,,128,0,3,,,,,2,,,63,0
491456,note_off,,,,,64,0,1,,,,,0,,,67,0
491520,note_on,,,,,0,0,2,,,,,1,,,60,90
491520,note_on,,,,,64,0,1,,,,,0,,,68,103
491520,note_on,,,,,0,0,3,,,,,2,,,63,84
491520,note_off,,,,,128,0,3,,,,,2,,,63,0
491520,note_off,,,,,384,0,2,,,,,1,,,61,0
491648,note_off,,,,,128,0,3,,,,,2,,,63,0
491648,note_on,,,,,0,0,3,,,,,2,,,63,84
491712,note_off,,,,,192,0,1,,,,,0,,,68,0
491712,note_off,,,,,192,0,2,,,,,1,,,60,0
491776,note_off,,,,,128,0,3,,,,,2,,,63,0
491776,note_on,,,,,0,0,3,,,,,2,,,63,84
491904,note_off,,,,,128,0,3,,,,,2,,,63,0
491904,note_on,,,,,2688,0,4,,,,,3,,,60,78
491904,note_on,,,,,192,0,2,,,,,1,,,72,90
491904,note_on,,,,,0,0,3,,,,,2,,,64,84
491904,note_on,,,,,192,0,1,,,,,0,,,72,103
492032,note_off,,,,,128,0,3,,,,,2,,,64,0
492032,note_on,,,,,0,0,3,,,,,2,,,64,84
492160,note_on,,,,,0,0,3,,,,,2,,,64,84
492160,note_off,,,,,128,0,3,,,,,2,,,64,0
492288,note_on,,,,,0,0,4,,,,,3,,,56,78
492288,note_on,,,,,0,0,3,,,,,2,,,65,84
492288,note_off,,,,,384,0,4,,,,,3,,,60,0
492288,note_on,,,,,0,0,2,,,,,1,,,68,90
492288,note_on,,,,,0,0,1,,,,,0,,,68,103
492288,note_off,,,,,384,0,1,,,,,0,,,72,0
492288,note_off,,,,,384,0,2,,,,,1,,,72,0
492288,note_off,,,,,128,0,3,,,,,2,,,64,0
492416,note_off,,,,,128,0,3,,,,,2,,,65,0
492416,note_on,,,,,0,0,3,,,,,2,,,65,84
492544,note_off,,,,,128,0,3,,,,,2,,,65,0
492544,note_on,,,,,0,0,3,,,,,2,,,65,84
492672,note_off,,,,,384,0,1,,,,,0,,,68,0
492672,note_off,,,,,384,0,2,,,,,1,,,68,0
492672,note_on,,,,,0,0,4,,,,,3,,,53,78
492672,note_on,,,,,0,0,2,,,,,1,,,65,90
492672,note_off,,,,,384,0,4,,,,,3,,,56,0
492672,note_off,,,,,128,0,3,,,,,2,,,65,0
492672,note_on,,,,,0,0,3,,,,,2,,,68,84
492672,note_on,,,,,0,0,1,,,,,0,,,65,103
492800,note_on,,,,,0,0,3,,,,,2,,,68,84
492800,note_off,,,,,128,0,3,,,,,2,,,68,0
492928,note_on,,,,,0,0,3,,,,,2,,,68,84
492928,note_off,,,,,128,0,3,,,,,2,,,68,0
493056,note_off,,,,,384,0,2,,,,,1,,,65,0
493056,note_off,,,,,128,0,3,,,,,2,,,68,0
493056,note_on,,,,,0,0,3,,,,,2,,,70,84
493056,note_off,,,,,384,0,1,,,,,0,,,65,0
493056,note_off,,,,,384,0,4,,,,,3,,,53,0
493056,note_on,,,,,0,0,4,,,,,3,,,50,78
493056,note_on,,,,,0,0,1,,,,,0,,,62,103
493056,note_on,,,,,0,0,2,,,,,1,,,64,90
493184,note_off,,,,,128,0,3,,,,,2,,,70,0
493184,note_on,,,,,0,0,3,,,,,2,,,58,84
493312,note_off,,,,,128,0,3,,,,,2,,,58,0
493312,note_on,,,,,0,0,3,,,,,2,,,58,84
493440,note_on,,,,,0,0,3,,,,,2,,,58,84
493440,note_off,,,,,128,0,3,,,,,2,,,58,0
493568,note_on,,,,,0,0,3,,,,,2,,,58,84
493568,note_off,,,,,128,0,3,,,,,2,,,58,0
493696,note_on,,,,,0,0,3,,,,,2,,,58,84
493696,note_off,,,,,128,0,3,,,,,2,,,58,0
493824,note_off,,,,,768,0,2,,,,,1,,,64,0
493824,note_on,,,,,0,0,2,,,,,1,,,65,90
493824,note_off,,,,,768,0,4,,,,,3,,,50,0
493824,note_off,,,,,768,0,1,,,,,0,,,62,0
493824,note_on,,,,,0,0,1,,,,,0,,,65,103
493824,note_on,,,,,0,0,4,,,,,3,,,53,78
493824,note_off,,,,,128,0,3,,,,,2,,,58,0
493824,note_on,,,,,0,0,3,,,,,2,,,58,84
493952,note_on,,,,,0,0,3,,,,,2,,,58,84
493952,note_off,,,,,128,0,3,,,,,2,,,58,0
494080,note_off,,,,,128,0,3,,,,,2,,,58,0
494080,note_on,,,,,0,0,3,,,,,2,,,58,84
494208,note_on,,,,,0,0,3,,,,,2,,,58,84
494208,note_off,,,,,128,0,3,,,,,2,,,58,0
494208,note_on,,,,,0,0,4,,,,,3,,,56,78
494208,note_off,,,,,384,0,4,,,,,3,,,53,0
494208,note_on,,,,,0,0,1,,,,,0,,,68,103
494208,note_off,,,,,384,0,1,,,,,0,,,65,0
494208,note_on,,,,,0,0,2,,,,,1,,,68,90
494208,note_off,,,,,384,0,2,,,,,1,,,65,0
494336,note_on,,,,,0,0,3,,,,,2,,,58,84
494336,note_off,,,,,128,0,3,,,,,2,,,58,0
494464,note_on,,,,,0,0,3,,,,,2,,,58,84
494464,note_off,,,,,128,0,3,,,,,2,,,58,0
494592,note_on,,,,,0,0,3,,,,,2,,,58,84
494592,note_off,,,,,128,0,3,,,,,2,,,58,0
494592,note_off,,,,,384,0,1,,,,,0,,,68,0
494592,note_on,,,,,0,0,1,,,,,0,,,66,103
494592,note_on,,,,,0,0,4,,,,,3,,,54,78
494592,note_off,,,,,384,0,4,,,,,3,,,56,0
494592,note_on,,,,,0,0,2,,,,,1,,,66,90
494592,note_off,,,,,384,0,2,,,,,1,,,68,0
494720,note_off,,,,,128,0,3,,,,,2,,,58,0
494720,note_on,,,,,0,0,3,,,,,2,,,58,84
494848,note_off,,,,,128,0,3,,,,,2,,,58,0
494848,note_on,,,,,0,0,3,,,,,2,,,58,84
494976,note_off,,,,,384,0,4,,,,,3,,,54,0
494976,note_on,,,,,0,0,4,,,,,3,,,58,78
494976,note_on,,,,,0,0,3,,,,,2,,,58,84
494976,note_off,,,,,384,0,1,,,,,0,,,66,0
494976,note_on,,,,,0,0,1,,,,,0,,,70,103
494976,note_on,,,,,0,0,2,,,,,1,,,70,90
494976,note_off,,,,,384,0,2,,,,,1,,,66,0
494976,note_off,,,,,128,0,3,,,,,2,,,58,0
495104,note_off,,,,,128,0,3,,,,,2,,,58,0
495104,note_on,,,,,0,0,3,,,,,2,,,58,84
495232,note_off,,,,,128,0,3,,,,,2,,,58,0
495232,note_on,,,,,0,0,3,,,,,2,,,58,84
495360,note_off,,,,,384,0,4,,,,,3,,,58,0
495360,note_off,,,,,128,0,3,,,,,2,,,58,0
495360,note_on,,,,,0,0,3,,,,,2,,,58,84
495360,note_off,,,,,384,0,1,,,,,0,,,70,0
495360,note_off,,,,,384,0,2,,,,,1,,,70,0
495488,note_off,,,,,128,0,3,,,,,2,,,58,0
495488,note_on,,,,,0,0,3,,,,,2,,,58,84
495616,note_off,,,,,128,0,3,,,,,2,,,58,0
495616,note_on,,,,,0,0,3,,,,,2,,,58,84
495744,note_off,,,,,128,0,3,,,,,2,,,58,0
495744,note_on,,,,,384,0,2,,,,,1,,,63,90
495744,note_on,,,,,0,0,3,,,,,2,,,58,84
495744,note_on,,,,,384,0,1,,,,,0,,,75,103
495872,note_off,,,,,128,0,3,,,,,2,,,58,0
495872,note_on,,,,,0,0,3,,,,,2,,,58,84
496000,note_off,,,,,128,0,3,,,,,2,,,58,0
496000,note_on,,,,,0,0,3,,,,,2,,,58,84
496128,note_off,,,,,128,0,3,,,,,2,,,58,0
496128,note_on,,,,,0,0,3,,,,,2,,,58,84
496128,note_off,,,,,384,0,2,,,,,1,,,63,0
496128,note_on,,,,,0,0,2,,,,,1,,,62,90
496128,note_off,,,,,384,0,1,,,,,0,,,75,0
496128,note_on,,,,,0,0,1,,,,,0,,,74,103
496256,note_on,,,,,0,0,3,,,,,2,,,58,84
496256,note_off,,,,,128,0,3,,,,,2,,,58,0
496384,note_on,,,,,0,0,3,,,,,2,,,58,84
496384,note_off,,,,,128,0,3,,,,,2,,,58,0
496512,note_off,,,,,128,0,3,,,,,2,,,58,0
496512,note_on,,,,,0,0,3,,,,,2,,,58,84
496640,note_off,,,,,128,0,3,,,,,2,,,58,0
496640,note_on,,,,,0,0,3,,,,,2,,,58,84
496768,note_on,,,,,0,0,3,,,,,2,,,58,84
496768,note_off,,,,,128,0,3,,,,,2,,,58,0
496896,note_off,,,,,768,0,1,,,,,0,,,74,0
496896,note_on,,,,,0,0,3,,,,,2,,,58,84
496896,note_on,,,,,0,0,1,,,,,0,,,77,103
496896,note_on,,,,,0,0,2,,,,,1,,,65,90
496896,note_off,,,,,128,0,3,,,,,2,,,58,0
496896,note_off,,,,,768,0,2,,,,,1,,,62,0
497024,note_on,,,,,0,0,3,,,,,2,,,58,84
497024,note_off,,,,,128,0,3,,,,,2,,,58,0
497152,note_on,,,,,0,0,3,,,,,2,,,58,84
497152,note_off,,,,,128,0,3,,,,,2,,,58,0
497280,note_off,,,,,384,0,2,,,,,1,,,65,0
497280,note_on,,,,,0,0,1,,,,,0,,,80,103
497280,note_on,,,,,0,0,3,,,,,2,,,58,84
497280,note_off,,,,,128,0,3,,,,,2,,,58,0
497280,note_off,,,,,384,0,1,,,,,0,,,77,0
497280,note_on,,,,,0,0,2,,,,,1,,,68,90
497408,note_off,,,,,128,0,3,,,,,2,,,58,0
497408,note_on,,,,,0,0,3,,,,,2,,,58,84
497536,note_on,,,,,0,0,3,,,,,2,,,58,84
497536,note_off,,,,,128,0,3,,,,,2,,,58,0
497664,note_on,,,,,0,0,3,,,,,2,,,58,84
497664,note_on,,,,,0,0,1,,,,,0,,,78,103
497664,note_on,,,,,0,0,2,,,,,1,,,66,90
497664,note_off,,,,,384,0,2,,,,,1,,,68,0
497664,note_off,,,,,384,0,1,,,,,0,,,80,0
497664,note_off,,,,,128,0,3,,,,,2,,,58,0
497792,note_on,,,,,0,0,3,,,,,2,,,58,84
497792,note_off,,,,,128,0,3,,,,,2,,,58,0
497920,note_on,,,,,0,0,3,,,,,2,,,58,84
497920,note_off,,,,,128,0,3,,,,,2,,,58,0
498048,note_on,,,,,0,0,3,,,,,2,,,58,84
498048,note_on,,,,,0,0,2,,,,,1,,,70,90
498048,note_off,,,,,128,0,3,,,,,2,,,58,0
498048,note_on,,,,,0,0,1,,,,,0,,,82,103
498048,note_off,,,,,384,0,1,,,,,0,,,78,0
498048,note_off,,,,,384,0,2,,,,,1,,,66,0
498176,note_on,,,,,0,0,3,,,,,2,,,58,84
498176,note_off,,,,,128,0,3,,,,,2,,,58,0
498304,note_on,,,,,0,0,3,,,,,2,,,58,84
498304,note_off,,,,,128,0,3,,,,,2,,,58,0
498432,note_on,,,,,0,0,2,,,,,1,,,66,90
498432,note_on,,,,,0,0,3,,,,,2,,,54,84
498432,note_off,,,,,384,0,1,,,,,0,,,82,0
498432,note_off,,,,,128,0,3,,,,,2,,,58,0
498432,note_off,,,,,384,0,2,,,,,1,,,70,0
498432,note_on,,,,,0,0,1,,,,,0,,,78,103
498560,note_on,,,,,0,0,3,,,,,2,,,54,84
498560,note_off,,,,,128,0,3,,,,,2,,,54,0
498688,note_off,,,,,128,0,3,,,,,2,,,54,0
498688,note_on,,,,,0,0,3,,,,,2,,,54,84
498816,note_off,,,,,384,0,2,,,,,1,,,66,0
498816,note_on,,,,,0,0,3,,,,,2,,,51,84
498816,note_off,,,,,384,0,1,,,,,0,,,78,0
498816,note_on,,,,,0,0,1,,,,,0,,,75,103
498816,note_on,,,,,0,0,2,,,,,1,,,63,90
498816,note_off,,,,,128,0,3,,,,,2,,,54,0
498944,note_off,,,,,128,0,3,,,,,2,,,51,0
498944,note_on,,,,,0,0,3,,,,,2,,,51,84
499072,note_off,,,,,128,0,3,,,,,2,,,51,0
499072,note_on,,,,,0,0,3,,,,,2,,,51,84
499200,note_off,,,,,384,0,2,,,,,1,,,63,0
499200,note_on,,,,,0,0,2,,,,,1,,,58,90
499200,note_on,,,,,0,0,3,,,,,2,,,50,84
499200,note_off,,,,,128,0,3,,,,,2,,,51,0
499200,note_off,,,,,384,0,1,,,,,0,,,75,0
499200,note_on,,,,,3840,0,4,,,,,3,,,38,78
499200,note_on,,,,,0,0,1,,,,,0,,,70,103
499584,note_off,,,,,384,0,3,,,,,2,,,50,0
499584,note_on,,,,,0,0,3,,,,,2,,,53,84
499584,note_off,,,,,384,0,4,,,,,3,,,38,0
499584,note_on,,,,,0,0,4,,,,,3,,,41,78
499968,note_off,,,,,384,0,3,,,,,2,,,53,0
499968,note_off,,,,,384,0,4,,,,,3,,,41,0
500352,note_on,,,,,384,0,3,,,,,2,,,56,84
500352,note_on,,,,,384,0,4,,,,,3,,,44,78
500736,note_off,,,,,1536,0,2,,,,,1,,,58,0
500736,note_on,,,,,0,0,3,,,,,2,,,54,84
500736,note_off,,,,,384,0,3,,,,,2,,,56,0
500736,note_off,,,,,384,0,4,,,,,3,,,44,0
500736,note_on,,,,,0,0,1,,,,,0,,,66,103
500736,note_off,,,,,1536,0,1,,,,,0,,,70,0
500736,note_on,,,,,0,0,4,,,,,3,,,42,78
500736,note_on,,,,,0,0,2,,,,,1,,,66,90
501120,note_on,,,,,0,0,4,,,,,3,,,46,78
501120,note_off,,,,,384,0,2,,,,,1,,,66,0
501120,note_off,,,,,384,0,3,,,,,2,,,54,0
501120,note_on,,,,,0,0,3,,,,,2,,,58,84
501120,note_off,,,,,384,0,4,,,,,3,,,42,0
501120,note_on,,,,,0,0,2,,,,,1,,,70,90
501120,note_off,,,,,384,0,1,,,,,0,,,66,0
501120,note_on,,,,,0,0,1,,,,,0,,,70,103
501504,note_on,,,,,0,0,2,,,,,1,,,66,90
501504,note_on,,,,,0,0,3,,,,,2,,,54,84
501504,note_off,,,,,384,0,3,,,,,2,,,58,0
501504,note_off,,,,,384,0,1,,,,,0,,,70,0
501504,note_on,,,,,0,0,1,,,,,0,,,66,103
501504,note_off,,,,,384,0,2,,,,,1,,,70,0
501504,note_on,,,,,0,0,4,,,,,3,,,42,78
501504,note_off,,,,,384,0,4,,,,,3,,,46,0
501888,note_on,,,,,0,0,1,,,,,0,,,63,103
501888,note_off,,,,,384,0,1,,,,,0,,,66,0
501888,note_off,,,,,384,0,4,,,,,3,,,42,0
501888,note_on,,,,,0,0,4,,,,,3,,,39,78
501888,note_on,,,,,0,0,2,,,,,1,,,63,90
501888,note_off,,,,,384,0,2,,,,,1,,,66,0
501888,note_on,,,,,0,0,3,,,,,2,,,51,84
501888,note_off,,,,,384,0,3,,,,,2,,,54,0
502272,note_off,,,,,384,0,2,,,,,1,,,63,0
502272,note_on,,,,,0,0,2,,,,,1,,,58,90
502272,note_on,,,,,0,0,3,,,,,2,,,58,84
502272,note_off,,,,,384,0,4,,,,,3,,,39,0
502272,note_on,,,,,0,0,1,,,,,0,,,58,103
502272,note_off,,,,,384,0,1,,,,,0,,,63,0
502272,note_off,,,,,384,0,3,,,,,2,,,51,0
502272,note_on,,,,,0,0,4,,,,,3,,,46,78
502464,note_off,,,,,192,0,3,,,,,2,,,58,0
502464,note_on,,,,,0,0,3,,,,,2,,,58,84
502848,note_off,,,,,384,0,3,,,,,2,,,58,0
502848,note_on,,,,,0,0,3,,,,,2,,,58,84
503040,note_off,,,,,768,0,2,,,,,1,,,58,0
503040,note_off,,,,,768,0,4,,,,,3,,,46,0
503040,note_off,,,,,768,0,1,,,,,0,,,58,0
503232,note_on,,,,,0,0,3,,,,,2,,,58,84
503232,note_off,,,,,384,0,3,,,,,2,,,58,0
503616,note_on,,,,,0,0,3,,,,,2,,,58,84
503616,note_off,,,,,384,0,3,,,,,2,,,58,0
504000,note_off,,,,,384,0,3,,,,,2,,,58,53
504000,note_on,,,,,0,0,3,,,,,2,,,58,84
504384,note_off,,,,,384,0,3,,,,,2,,,58,0
504384,note_on,,,,,0,0,3,,,,,2,,,58,84
504768,note_on,,,,,0,0,3,,,,,2,,,58,84
504768,note_off,,,,,384,0,3,,,,,2,,,58,0
504960,note_on,,,,,1920,0,1,,,,,0,,,58,103
505152,note_off,,,,,384,0,3,,,,,2,,,58,0
505152,note_on,,,,,0,0,3,,,,,2,,,58,84
505344,note_off,,,,,192,0,3,,,,,2,,,58,0
505344,note_on,,,,,0,0,3,,,,,2,,,51,84
505344,note_on,,,,,2304,0,2,,,,,1,,,58,90
505344,note_on,,,,,0,0,1,,,,,0,,,67,103
505344,note_off,,,,,384,0,1,,,,,0,,,58,0
505344,note_on,,,,,2304,0,4,,,,,3,,,51,78
506112,note_on,,,,,0,0,1,,,,,0,,,70,103
506112,note_on,,,,,0,0,3,,,,,2,,,53,84
506112,note_off,,,,,768,0,3,,,,,2,,,51,0
506112,note_off,,,,,768,0,1,,,,,0,,,67,0
506112,note_off,,,,,768,0,4,,,,,3,,,51,0
506112,note_on,,,,,0,0,4,,,,,3,,,50,78
506880,note_off,,,,,768,0,4,,,,,3,,,50,0
506880,note_on,,,,,0,0,4,,,,,3,,,48,78
506880,note_off,,,,,1536,0,2,,,,,1,,,58,0
506880,note_off,,,,,768,0,3,,,,,2,,,53,0
506880,note_on,,,,,0,0,3,,,,,2,,,55,84
506880,note_on,,,,,0,0,2,,,,,1,,,55,90
506880,note_off,,,,,768,0,1,,,,,0,,,70,0
506880,note_on,,,,,0,0,1,,,,,0,,,63,103
507264,note_off,,,,,384,0,4,,,,,3,,,48,0
507264,note_on,,,,,0,0,4,,,,,3,,,48,78
507264,note_off,,,,,384,0,1,,,,,0,,,63,0
507264,note_on,,,,,0,0,2,,,,,1,,,56,90
507264,note_on,,,,,0,0,1,,,,,0,,,68,103
507264,note_off,,,,,384,0,2,,,,,1,,,55,0
507264,note_on,,,,,0,0,3,,,,,2,,,51,84
507264,note_off,,,,,384,0,3,,,,,2,,,55,0
508032,note_on,,,,,0,0,1,,,,,0,,,67,103
508032,note_on,,,,,0,0,3,,,,,2,,,51,84
508032,note_off,,,,,768,0,3,,,,,2,,,51,0
508032,note_off,,,,,768,0,2,,,,,1,,,56,0
508032,note_off,,,,,768,0,1,,,,,0,,,68,0
508032,note_on,,,,,0,0,2,,,,,1,,,58,90
508032,note_off,,,,,768,0,4,,,,,3,,,48,0
508032,note_on,,,,,0,0,4,,,,,3,,,46,78
508416,note_on,,,,,0,0,2,,,,,1,,,58,90
508416,note_on,,,,,0,0,1,,,,,0,,,67,103
508416,note_off,,,,,384,0,2,,,,,1,,,58,0
508416,note_on,,,,,0,0,4,,,,,3,,,44,78
508416,note_off,,,,,384,0,3,,,,,2,,,51,0
508416,note_off,,,,,384,0,1,,,,,0,,,67,0
508416,note_off,,,,,384,0,4,,,,,3,,,46,0
508416,note_on,,,,,0,0,3,,,,,2,,,50,84
508608,note_on,,,,,0,0,1,,,,,0,,,65,103
508608,note_off,,,,,192,0,1,,,,,0,,,67,0
508800,note_on,,,,,0,0,1,,,,,0,,,68,103
508800,note_off,,,,,192,0,1,,,,,0,,,65,0
508992,note_on,,,,,0,0,1,,,,,0,,,65,103
508992,note_off,,,,,192,0,1,,,,,0,,,68,0
509184,note_on,,,,,0,0,3,,,,,2,,,51,84
509184,note_off,,,,,768,0,3,,,,,2,,,50,0
509184,note_off,,,,,192,0,1,,,,,0,,,65,0
509184,note_on,,,,,0,0,1,,,,,0,,,63,103
509184,note_off,,,,,768,0,4,,,,,3,,,44,0
509184,note_on,,,,,0,0,4,,,,,3,,,43,78
509376,note_on,,,,,0,0,1,,,,,0,,,67,103
509376,note_off,,,,,192,0,1,,,,,0,,,63,0
509568,note_off,,,,,1152,0,2,,,,,1,,,58,0
509568,note_on,,,,,0,0,2,,,,,1,,,60,90
509568,note_on,,,,,0,0,1,,,,,0,,,72,103
509568,note_on,,,,,0,0,4,,,,,3,,,51,78
509568,note_off,,,,,384,0,4,,,,,3,,,43,0
509568,note_off,,,,,192,0,1,,,,,0,,,67,0
509568,note_on,,,,,0,0,3,,,,,2,,,55,84
509568,note_off,,,,,384,0,3,,,,,2,,,51,0
509760,note_off,,,,,192,0,1,,,,,0,,,72,0
509760,note_on,,,,,0,0,1,,,,,0,,,70,103
509760,note_off,,,,,192,0,2,,,,,1,,,60,0
509760,note_on,,,,,0,0,2,,,,,1,,,58,90
509952,note_off,,,,,192,0,1,,,,,0,,,70,0
509952,note_off,,,,,384,0,3,,,,,2,,,55,0
509952,note_on,,,,,0,0,3,,,,,2,,,53,84
509952,note_off,,,,,384,0,4,,,,,3,,,51,0
509952,note_on,,,,,0,0,2,,,,,1,,,58,90
509952,note_off,,,,,192,0,2,,,,,1,,,58,0
509952,note_on,,,,,0,0,1,,,,,0,,,70,103
509952,note_on,,,,,0,0,4,,,,,3,,,50,78
510528,note_on,,,,,0,0,1,,,,,0,,,68,103
510528,note_off,,,,,576,0,1,,,,,0,,,70,0
510720,note_off,,,,,192,0,1,,,,,0,,,68,0
510720,note_on,,,,,0,0,1,,,,,0,,,67,103
510720,note_on,,,,,0,0,3,,,,,2,,,55,84
510720,note_on,,,,,0,0,4,,,,,3,,,51,78
510720,note_off,,,,,768,0,3,,,,,2,,,53,0
510720,note_off,,,,,768,0,4,,,,,3,,,50,0
510912,note_off,,,,,192,0,1,,,,,0,,,67,0
511104,note_off,,,,,384,0,4,,,,,3,,,51,0
511104,note_on,,,,,192,0,1,,,,,0,,,58,103
511104,note_off,,,,,1152,0,2,,,,,1,,,58,0
511104,note_off,,,,,384,0,3,,,,,2,,,55,0
511488,note_on,,,,,0,0,1,,,,,0,,,67,103
511488,note_off,,,,,384,0,1,,,,,0,,,58,0
511488,note_on,,,,,384,0,4,,,,,3,,,51,78
511872,note_off,,,,,384,0,1,,,,,0,,,67,0
511872,note_on,,,,,768,0,2,,,,,1,,,58,90
511872,note_off,,,,,384,0,4,,,,,3,,,51,0
511872,note_on,,,,,768,0,3,,,,,2,,,55,84
512064,note_off,,,,,192,0,2,,,,,1,,,58,0
512064,note_off,,,,,192,0,3,,,,,2,,,55,0
512256,note_on,,,,,384,0,4,,,,,3,,,50,78
512256,note_on,,,,,384,0,1,,,,,0,,,70,103
512640,note_on,,,,,576,0,3,,,,,2,,,53,84
512640,note_on,,,,,576,0,2,,,,,1,,,58,90
512640,note_off,,,,,384,0,1,,,,,0,,,70,0
512640,note_off,,,,,384,0,4,,,,,3,,,50,0
512832,note_off,,,,,192,0,2,,,,,1,,,58,0
512832,note_off,,,,,192,0,3,,,,,2,,,53,0
513024,note_on,,,,,384,0,1,,,,,0,,,63,103
513024,note_on,,,,,384,0,4,,,,,3,,,48,78
513216,note_off,,,,,192,0,4,,,,,3,,,48,0
513408,note_off,,,,,384,0,1,,,,,0,,,63,0
513408,note_on,,,,,0,0,1,,,,,0,,,68,103
513408,note_on,,,,,192,0,4,,,,,3,,,48,78
513408,note_on,,,,,576,0,2,,,,,1,,,56,90
513408,note_on,,,,,576,0,3,,,,,2,,,51,84
514176,note_off,,,,,768,0,1,,,,,0,,,68,0
514176,note_on,,,,,0,0,4,,,,,3,,,46,78
514176,note_on,,,,,0,0,1,,,,,0,,,67,103
514176,note_off,,,,,768,0,4,,,,,3,,,48,0
514176,note_on,,,,,0,0,2,,,,,1,,,58,90
514176,note_off,,,,,768,0,2,,,,,1,,,56,0
514560,note_on,,,,,0,0,3,,,,,2,,,50,84
514560,note_off,,,,,1152,0,3,,,,,2,,,51,0
514560,note_off,,,,,384,0,4,,,,,3,,,46,0
514560,note_on,,,,,0,0,4,,,,,3,,,44,78
514560,note_on,,,,,0,0,2,,,,,1,,,59,90
514560,note_on,,,,,0,0,1,,,,,0,,,67,103
514560,note_off,,,,,384,0,2,,,,,1,,,58,0
514560,note_off,,,,,384,0,1,,,,,0,,,67,0
514752,note_on,,,,,0,0,1,,,,,0,,,65,103
514752,note_off,,,,,192,0,1,,,,,0,,,67,0
514944,note_on,,,,,0,0,1,,,,,0,,,68,103
514944,note_off,,,,,192,0,1,,,,,0,,,65,0
514944,note_on,,,,,0,0,2,,,,,1,,,58,90
514944,note_off,,,,,384,0,2,,,,,1,,,59,0
515136,note_on,,,,,0,0,1,,,,,0,,,65,103
515136,note_off,,,,,192,0,1,,,,,0,,,68,0
515328,note_off,,,,,768,0,4,,,,,3,,,44,0
515328,note_on,,,,,0,0,3,,,,,2,,,51,84
515328,note_on,,,,,0,0,1,,,,,0,,,63,103
515328,note_off,,,,,192,0,1,,,,,0,,,65,0
515328,note_off,,,,,768,0,3,,,,,2,,,50,0
515328,note_on,,,,,0,0,4,,,,,3,,,43,78
515520,note_on,,,,,0,0,1,,,,,0,,,67,103
515520,note_off,,,,,192,0,1,,,,,0,,,63,0
515712,note_off,,,,,384,0,3,,,,,2,,,51,0
515712,note_on,,,,,0,0,3,,,,,2,,,55,84
515712,note_off,,,,,768,0,2,,,,,1,,,58,0
515712,note_on,,,,,0,0,1,,,,,0,,,72,103
515712,note_on,,,,,0,0,2,,,,,1,,,60,90
515712,note_off,,,,,192,0,1,,,,,0,,,67,0
515712,note_off,,,,,384,0,4,,,,,3,,,43,0
515712,note_on,,,,,0,0,4,,,,,3,,,51,78
515904,note_on,,,,,0,0,1,,,,,0,,,70,103
515904,note_on,,,,,0,0,2,,,,,1,,,58,90
515904,note_off,,,,,192,0,1,,,,,0,,,72,0
515904,note_off,,,,,192,0,2,,,,,1,,,60,0
516096,note_on,,,,,0,0,4,,,,,3,,,50,78
516096,note_on,,,,,0,0,1,,,,,0,,,70,103
516096,note_off,,,,,192,0,1,,,,,0,,,70,0
516096,note_off,,,,,384,0,4,,,,,3,,,51,0
516096,note_on,,,,,0,0,3,,,,,2,,,58,84
516096,note_off,,,,,192,0,2,,,,,1,,,58,0
516096,note_on,,,,,0,0,2,,,,,1,,,65,90
516096,note_off,,,,,384,0,3,,,,,2,,,55,0
516480,note_off,,,,,384,0,1,,,,,0,,,70,0
516608,note_on,,,,,128,0,1,,,,,0,,,72,103
516736,note_off,,,,,128,0,1,,,,,0,,,72,0
516736,note_on,,,,,0,0,1,,,,,0,,,68,103
516864,note_on,,,,,0,0,4,,,,,3,,,51,78
516864,note_off,,,,,768,0,4,,,,,3,,,50,0
516864,note_off,,,,,768,0,2,,,,,1,,,65,0
516864,note_off,,,,,128,0,1,,,,,0,,,68,0
516864,note_on,,,,,0,0,2,,,,,1,,,63,90
516864,note_on,,,,,0,0,1,,,,,0,,,67,103
517056,note_off,,,,,192,0,2,,,,,1,,,63,0
517056,note_off,,,,,192,0,1,,,,,0,,,67,0
517056,note_off,,,,,192,0,4,,,,,3,,,51,0
517056,note_off,,,,,960,0,3,,,,,2,,,58,0
517248,note_on,,,,,192,0,1,,,,,0,,,64,103
517248,note_on,,,,,192,0,2,,,,,1,,,61,90
517248,note_on,,,,,192,0,4,,,,,3,,,55,78
517248,note_on,,,,,192,0,3,,,,,2,,,58,84
517632,note_off,,,,,384,0,3,,,,,2,,,58,0
517632,note_off,,,,,384,0,2,,,,,1,,,61,0
517632,note_off,,,,,384,0,4,,,,,3,,,55,0
517632,note_on,,,,,0,0,4,,,,,3,,,56,78
517632,note_on,,,,,0,0,3,,,,,2,,,56,84
517632,note_on,,,,,0,0,2,,,,,1,,,60,90
517632,note_on,,,,,0,0,1,,,,,0,,,65,103
517632,note_off,,,,,384,0,1,,,,,0,,,64,0
518016,note_off,,,,,384,0,3,,,,,2,,,56,0
518016,note_off,,,,,384,0,4,,,,,3,,,56,0
518016,note_off,,,,,384,0,1,,,,,0,,,65,0
518016,note_off,,,,,384,0,2,,,,,1,,,60,0
518208,note_on,,,,,192,0,2,,,,,1,,,60,90
518208,note_on,,,,,192,0,1,,,,,0,,,72,103
518400,note_on,,,,,0,0,1,,,,,0,,,71,103
518400,note_off,,,,,192,0,1,,,,,0,,,72,0
518400,note_on,,,,,0,0,2,,,,,1,,,59,90
518400,note_off,,,,,192,0,2,,,,,1,,,60,0
518592,note_on,,,,,0,0,1,,,,,0,,,72,103
518592,note_off,,,,,192,0,1,,,,,0,,,71,0
518592,note_on,,,,,0,0,2,,,,,1,,,60,90
518592,note_off,,,,,192,0,2,,,,,1,,,59,0
518784,note_on,,,,,0,0,1,,,,,0,,,77,103
518784,note_on,,,,,0,0,2,,,,,1,,,65,90
518784,note_off,,,,,192,0,2,,,,,1,,,60,0
518784,note_off,,,,,192,0,1,,,,,0,,,72,0
518976,note_off,,,,,192,0,1,,,,,0,,,77,0
518976,note_on,,,,,0,0,1,,,,,0,,,76,103
518976,note_on,,,,,0,0,2,,,,,1,,,64,90
518976,note_off,,,,,192,0,2,,,,,1,,,65,0
519168,note_off,,,,,192,0,1,,,,,0,,,76,0
519168,note_on,,,,,0,0,1,,,,,0,,,79,103
519168,note_off,,,,,192,0,2,,,,,1,,,64,0
519168,note_on,,,,,0,0,2,,,,,1,,,67,90
519360,note_on,,,,,0,0,2,,,,,1,,,65,90
519360,note_off,,,,,192,0,2,,,,,1,,,67,0
519360,note_off,,,,,192,0,1,,,,,0,,,79,0
519360,note_on,,,,,0,0,1,,,,,0,,,77,103
519552,note_on,,,,,0,0,2,,,,,1,,,60,90
519552,note_on,,,,,1536,0,3,,,,,2,,,53,84
519552,note_off,,,,,192,0,1,,,,,0,,,77,0
519552,note_on,,,,,1536,0,4,,,,,3,,,44,78
519552,note_off,,,,,192,0,2,,,,,1,,,65,0
519744,note_off,,,,,192,0,3,,,,,2,,,53,0
519744,note_off,,,,,192,0,2,,,,,1,,,60,0
519744,note_off,,,,,192,0,4,,,,,3,,,44,0
520320,note_on,,,,,768,0,1,,,,,0,,,64,103
520320,note_on,,,,,576,0,3,,,,,2,,,58,84
520320,note_on,,,,,576,0,4,,,,,3,,,55,78
520320,note_on,,,,,576,0,2,,,,,1,,,61,90
520608,note_on,,,,,0,0,1,,,,,0,,,67,103
520608,note_off,,,,,288,0,1,,,,,0,,,64,0
520704,note_on,,,,,0,0,1,,,,,0,,,65,103
520704,note_off,,,,,384,0,4,,,,,3,,,55,0
520704,note_on,,,,,0,0,4,,,,,3,,,56,78
520704,note_off,,,,,96,0,1,,,,,0,,,67,0
520704,note_off,,,,,384,0,3,,,,,2,,,58,0
520704,note_on,,,,,0,0,3,,,,,2,,,56,84
520704,note_off,,,,,384,0,2,,,,,1,,,61,0
520704,note_on,,,,,0,0,2,,,,,1,,,60,90
521088,note_off,,,,,384,0,2,,,,,1,,,60,0
521088,note_off,,,,,384,0,3,,,,,2,,,56,0
521088,note_off,,,,,384,0,4,,,,,3,,,56,0
521088,note_off,,,,,384,0,1,,,,,0,,,65,0
521280,note_on,,,,,192,0,3,,,,,2,,,60,84
521280,note_on,,,,,192,0,1,,,,,0,,,72,103
521472,note_off,,,,,192,0,3,,,,,2,,,60,0
521472,note_on,,,,,0,0,1,,,,,0,,,77,103
521472,note_off,,,,,192,0,1,,,,,0,,,72,0
521472,note_on,,,,,0,0,3,,,,,2,,,65,84
521664,note_on,,,,,0,0,1,,,,,0,,,76,103
521664,note_off,,,,,192,0,3,,,,,2,,,65,0
521664,note_off,,,,,192,0,1,,,,,0,,,77,0
521664,note_on,,,,,0,0,3,,,,,2,,,64,84
521856,note_on,,,,,0,0,3,,,,,2,,,67,84
521856,note_off,,,,,192,0,3,,,,,2,,,64,0
521856,note_off,,,,,192,0,1,,,,,0,,,76,0
521856,note_on,,,,,0,0,1,,,,,0,,,79,103
522048,note_off,,,,,192,0,1,,,,,0,,,79,0
522048,note_on,,,,,0,0,1,,,,,0,,,77,103
522048,note_off,,,,,192,0,3,,,,,2,,,67,0
522048,note_on,,,,,0,0,3,,,,,2,,,65,84
522240,note_off,,,,,192,0,1,,,,,0,,,77,0
522240,note_on,,,,,0,0,1,,,,,0,,,82,103
522240,note_off,,,,,192,0,3,,,,,2,,,65,0
522240,note_on,,,,,0,0,3,,,,,2,,,70,84
522432,note_off,,,,,192,0,3,,,,,2,,,70,0
522432,note_off,,,,,192,0,1,,,,,0,,,82,0
522432,note_on,,,,,0,0,1,,,,,0,,,80,103
522432,note_on,,,,,0,0,3,,,,,2,,,68,84
522624,note_on,,,,,1536,0,4,,,,,3,,,44,78
522624,note_on,,,,,1536,0,2,,,,,1,,,60,90
522624,note_on,,,,,0,0,3,,,,,2,,,65,84
522624,note_off,,,,,192,0,1,,,,,0,,,80,0
522624,note_off,,,,,192,0,3,,,,,2,,,68,0
522816,note_off,,,,,192,0,3,,,,,2,,,65,0
522816,note_off,,,,,192,0,2,,,,,1,,,60,0
522816,note_off,,,,,192,0,4,,,,,3,,,44,0
523392,note_on,,,,,576,0,3,,,,,2,,,58,84
523392,note_on,,,,,576,0,2,,,,,1,,,61,90
523392,note_on,,,,,768,0,1,,,,,0,,,64,103
523392,note_on,,,,,576,0,4,,,,,3,,,55,78
523520,note_off,,,,,128,0,1,,,,,0,,,64,0
523520,note_on,,,,,0,0,1,,,,,0,,,65,103
523648,note_on,,,,,0,0,1,,,,,0,,,67,103
523648,note_off,,,,,128,0,1,,,,,0,,,65,0
523776,note_on,,,,,0,0,4,,,,,3,,,56,78
523776,note_on,,,,,0,0,3,,,,,2,,,56,84
523776,note_off,,,,,128,0,1,,,,,0,,,67,0
523776,note_on,,,,,0,0,1,,,,,0,,,65,103
523776,note_off,,,,,384,0,2,,,,,1,,,61,0
523776,note_on,,,,,0,0,2,,,,,1,,,60,90
523776,note_off,,,,,384,0,4,,,,,3,,,55,0
523776,note_off,,,,,384,0,3,,,,,2,,,58,0
524160,note_off,,,,,384,0,3,,,,,2,,,56,0
524160,note_off,,,,,384,0,2,,,,,1,,,60,0
524160,note_off,,,,,384,0,4,,,,,3,,,56,0
524160,note_off,,,,,384,0,1,,,,,0,,,65,0
524352,note_on,,,,,192,0,1,,,,,0,,,72,103
524544,note_off,,,,,192,0,1,,,,,0,,,72,0
524544,note_on,,,,,0,0,1,,,,,0,,,71,103
524736,note_off,,,,,192,0,1,,,,,0,,,71,0
524736,note_on,,,,,0,0,1,,,,,0,,,72,103
524928,note_off,,,,,192,0,1,,,,,0,,,72,0
524928,note_on,,,,,0,0,1,,,,,0,,,73,103
525120,note_on,,,,,960,0,2,,,,,1,,,60,90
525120,note_off,,,,,192,0,1,,,,,0,,,73,0
525120,note_on,,,,,0,0,1,,,,,0,,,72,103
525312,note_on,,,,,0,0,1,,,,,0,,,77,103
525312,note_off,,,,,192,0,2,,,,,1,,,60,0
525312,note_on,,,,,0,0,2,,,,,1,,,65,90
525312,note_off,,,,,192,0,1,,,,,0,,,72,0
525504,note_off,,,,,192,0,2,,,,,1,,,65,0
525504,note_on,,,,,0,0,2,,,,,1,,,64,90
525504,note_off,,,,,192,0,1,,,,,0,,,77,0
525504,note_on,,,,,0,0,1,,,,,0,,,76,103
525696,note_on,,,,,0,0,1,,,,,0,,,79,103
525696,note_off,,,,,192,0,2,,,,,1,,,64,0
525696,note_on,,,,,0,0,2,,,,,1,,,67,90
525696,note_off,,,,,192,0,1,,,,,0,,,76,0
525888,note_off,,,,,192,0,2,,,,,1,,,67,0
525888,note_on,,,,,0,0,2,,,,,1,,,65,90
525888,note_on,,,,,0,0,1,,,,,0,,,77,103
525888,note_off,,,,,192,0,1,,,,,0,,,79,0
525888,note_on,,,,,1728,0,3,,,,,2,,,65,84
526080,note_on,,,,,0,0,2,,,,,1,,,70,90
526080,note_off,,,,,192,0,1,,,,,0,,,77,0
526080,note_on,,,,,0,0,3,,,,,2,,,70,84
526080,note_off,,,,,192,0,3,,,,,2,,,65,0
526080,note_on,,,,,0,0,1,,,,,0,,,82,103
526080,note_off,,,,,192,0,2,,,,,1,,,65,0
526272,note_on,,,,,0,0,3,,,,,2,,,68,84
526272,note_on,,,,,0,0,1,,,,,0,,,80,103
526272,note_off,,,,,192,0,1,,,,,0,,,82,0
526272,note_off,,,,,192,0,3,,,,,2,,,70,0
526272,note_on,,,,,0,0,2,,,,,1,,,68,90
526272,note_off,,,,,192,0,2,,,,,1,,,70,0
526464,note_on,,,,,2304,0,4,,,,,3,,,56,78
526464,note_on,,,,,0,0,1,,,,,0,,,86,103
526464,note_off,,,,,192,0,2,,,,,1,,,68,0
526464,note_on,,,,,0,0,2,,,,,1,,,74,90
526464,note_on,,,,,0,0,3,,,,,2,,,74,84
526464,note_off,,,,,192,0,1,,,,,0,,,80,0
526464,note_off,,,,,192,0,3,,,,,2,,,68,0
526656,note_on,,,,,0,0,3,,,,,2,,,72,84
526656,note_off,,,,,192,0,3,,,,,2,,,74,0
526656,note_off,,,,,192,0,2,,,,,1,,,74,0
526656,note_on,,,,,0,0,2,,,,,1,,,72,90
526656,note_on,,,,,0,0,1,,,,,0,,,84,103
526656,note_off,,,,,192,0,1,,,,,0,,,86,0
526848,note_off,,,,,384,0,4,,,,,3,,,56,0
526848,note_on,,,,,0,0,3,,,,,2,,,67,84
526848,note_on,,,,,0,0,4,,,,,3,,,58,78
526848,note_off,,,,,192,0,2,,,,,1,,,72,0
526848,note_off,,,,,192,0,3,,,,,2,,,72,0
526848,note_on,,,,,0,0,1,,,,,0,,,75,103
526848,note_on,,,,,0,0,2,,,,,1,,,70,90
526848,note_off,,,,,192,0,1,,,,,0,,,84,0
527520,note_off,,,,,672,0,1,,,,,0,,,75,0
527520,note_on,,,,,0,0,1,,,,,0,,,79,103
527616,note_on,,,,,0,0,2,,,,,1,,,74,90
527616,note_off,,,,,768,0,2,,,,,1,,,70,0
527616,note_on,,,,,0,0,3,,,,,2,,,68,84
527616,note_off,,,,,768,0,3,,,,,2,,,67,0
527616,note_off,,,,,96,0,1,,,,,0,,,79,0
527616,note_on,,,,,0,0,1,,,,,0,,,77,103
527904,note_off,,,,,288,0,1,,,,,0,,,77,0
527904,note_on,,,,,0,0,1,,,,,0,,,76,103
528000,note_off,,,,,96,0,1,,,,,0,,,76,0
528000,note_on,,,,,0,0,1,,,,,0,,,77,103
528288,note_on,,,,,0,0,1,,,,,0,,,82,103
528288,note_off,,,,,288,0,1,,,,,0,,,77,0
528384,note_off,,,,,1536,0,4,,,,,3,,,58,0
528384,note_off,,,,,96,0,1,,,,,0,,,82,0
528384,note_on,,,,,0,0,1,,,,,0,,,75,103
528384,note_on,,,,,0,0,4,,,,,3,,,51,78
528384,note_off,,,,,768,0,2,,,,,1,,,74,0
528384,note_on,,,,,0,0,2,,,,,1,,,75,90
528384,note_off,,,,,768,0,3,,,,,2,,,68,0
528384,note_on,,,,,0,0,3,,,,,2,,,67,84
528672,note_off,,,,,288,0,4,,,,,3,,,51,0
528672,note_on,,,,,0,0,4,,,,,3,,,51,78
528672,note_on,,,,,0,0,2,,,,,1,,,58,90
528672,note_off,,,,,288,0,2,,,,,1,,,75,0
528672,note_on,,,,,0,0,3,,,,,2,,,55,84
528672,note_off,,,,,288,0,3,,,,,2,,,67,0
528768,note_off,,,,,96,0,3,,,,,2,,,55,0
528768,note_on,,,,,0,0,3,,,,,2,,,55,84
528768,note_off,,,,,96,0,2,,,,,1,,,58,0
528768,note_on,,,,,0,0,2,,,,,1,,,58,90
528768,note_off,,,,,384,0,1,,,,,0,,,75,0
528768,note_on,,,,,0,0,4,,,,,3,,,51,78
528768,note_off,,,,,96,0,4,,,,,3,,,51,0
529056,note_on,,,,,0,0,2,,,,,1,,,58,90
529056,note_on,,,,,0,0,3,,,,,2,,,55,84
529056,note_off,,,,,288,0,4,,,,,3,,,51,0
529056,note_on,,,,,0,0,4,,,,,3,,,51,78
529056,note_off,,,,,288,0,2,,,,,1,,,58,0
529056,note_off,,,,,288,0,3,,,,,2,,,55,0
529152,note_off,,,,,96,0,2,,,,,1,,,58,0
529152,note_on,,,,,0,0,2,,,,,1,,,58,90
529152,note_on,,,,,0,0,3,,,,,2,,,55,84
529152,note_off,,,,,96,0,3,,,,,2,,,55,0
529152,note_off,,,,,96,0,4,,,,,3,,,51,0
529152,note_on,,,,,0,0,4,,,,,3,,,51,78
529440,note_on,,,,,0,0,2,,,,,1,,,58,90
529440,note_off,,,,,288,0,2,,,,,1,,,58,0
529440,note_on,,,,,0,0,3,,,,,2,,,55,84
529440,note_off,,,,,288,0,3,,,,,2,,,55,0
529440,note_on,,,,,0,0,4,,,,,3,,,51,78
529440,note_off,,,,,288,0,4,,,,,3,,,51,0
529536,note_off,,,,,96,0,4,,,,,3,,,51,0
529536,note_on,,,,,768,0,1,,,,,0,,,75,103
529536,note_on,,,,,0,0,2,,,,,1,,,58,90
529536,note_off,,,,,96,0,2,,,,,1,,,58,0
529536,note_off,,,,,96,0,3,,,,,2,,,55,0
529536,note_on,,,,,0,0,3,,,,,2,,,55,84
529536,note_on,,,,,0,0,4,,,,,3,,,51,78
529824,note_off,,,,,288,0,4,,,,,3,,,51,0
529824,note_on,,,,,0,0,4,,,,,3,,,51,78
529824,note_on,,,,,0,0,3,,,,,2,,,55,84
529824,note_off,,,,,288,0,2,,,,,1,,,58,0
529824,note_on,,,,,0,0,2,,,,,1,,,58,90
529824,note_off,,,,,288,0,3,,,,,2,,,55,0
529920,note_off,,,,,96,0,2,,,,,1,,,58,0
529920,note_on,,,,,0,0,2,,,,,1,,,59,90
529920,note_on,,,,,0,0,4,,,,,3,,,51,78
529920,note_off,,,,,96,0,3,,,,,2,,,55,0
529920,note_off,,,,,384,0,1,,,,,0,,,75,0
529920,note_on,,,,,0,0,1,,,,,0,,,74,103
529920,note_off,,,,,96,0,4,,,,,3,,,51,0
529920,note_on,,,,,0,0,3,,,,,2,,,56,84
530208,note_off,,,,,288,0,3,,,,,2,,,56,0
530208,note_off,,,,,288,0,4,,,,,3,,,51,0
530208,note_on,,,,,0,0,4,,,,,3,,,51,78
530208,note_off,,,,,288,0,2,,,,,1,,,59,0
530208,note_on,,,,,0,0,2,,,,,1,,,59,90
530208,note_on,,,,,0,0,3,,,,,2,,,56,84
530304,note_off,,,,,96,0,3,,,,,2,,,56,0
530304,note_on,,,,,0,0,3,,,,,2,,,56,84
530304,note_on,,,,,0,0,2,,,,,1,,,59,90
530304,note_off,,,,,96,0,4,,,,,3,,,51,0
530304,note_on,,,,,0,0,4,,,,,3,,,51,78
530304,note_off,,,,,96,0,2,,,,,1,,,59,0
530592,note_off,,,,,288,0,3,,,,,2,,,56,0
530592,note_on,,,,,0,0,3,,,,,2,,,56,84
530592,note_off,,,,,288,0,2,,,,,1,,,59,0
530592,note_on,,,,,0,0,2,,,,,1,,,59,90
530592,note_on,,,,,0,0,4,,,,,3,,,51,78
530592,note_off,,,,,288,0,4,,,,,3,,,51,0
530688,note_off,,,,,96,0,3,,,,,2,,,56,0
530688,note_on,,,,,0,0,2,,,,,1,,,59,90
530688,note_on,,,,,0,0,4,,,,,3,,,51,78
530688,note_off,,,,,96,0,4,,,,,3,,,51,0
530688,note_off,,,,,768,0,1,,,,,0,,,74,0
530688,note_on,,,,,0,0,1,,,,,0,,,77,103
530688,note_on,,,,,0,0,3,,,,,2,,,56,84
530688,note_off,,,,,96,0,2,,,,,1,,,59,0
530976,note_on,,,,,0,0,3,,,,,2,,,56,84
530976,note_off,,,,,288,0,3,,,,,2,,,56,0
530976,note_on,,,,,0,0,4,,,,,3,,,51,78
530976,note_off,,,,,288,0,4,,,,,3,,,51,0
530976,note_off,,,,,288,0,2,,,,,1,,,59,0
530976,note_on,,,,,0,0,2,,,,,1,,,59,90
531072,note_off,,,,,96,0,2,,,,,1,,,59,0
531072,note_on,,,,,0,0,2,,,,,1,,,59,90
531072,note_off,,,,,96,0,4,,,,,3,,,51,0
531072,note_on,,,,,0,0,4,,,,,3,,,51,78
531072,note_off,,,,,384,0,1,,,,,0,,,77,0
531072,note_on,,,,,0,0,1,,,,,0,,,74,103
531072,note_on,,,,,0,0,3,,,,,2,,,56,84
531072,note_off,,,,,96,0,3,,,,,2,,,56,0
531360,note_off,,,,,288,0,2,,,,,1,,,59,0
531360,note_on,,,,,0,0,2,,,,,1,,,59,90
531360,note_off,,,,,288,0,3,,,,,2,,,56,0
531360,note_off,,,,,288,0,4,,,,,3,,,51,0
531360,note_on,,,,,0,0,4,,,,,3,,,51,78
531360,note_on,,,,,0,0,3,,,,,2,,,56,84
531456,note_off,,,,,384,0,1,,,,,0,,,74,0
531456,note_off,,,,,96,0,3,,,,,2,,,56,0
531456,note_on,,,,,0,0,4,,,,,3,,,51,78
531456,note_off,,,,,96,0,4,,,,,3,,,51,0
531456,note_on,,,,,0,0,1,,,,,0,,,75,103
531456,note_off,,,,,96,0,2,,,,,1,,,59,0
531456,note_on,,,,,0,0,2,,,,,1,,,58,90
531456,note_on,,,,,0,0,3,,,,,2,,,55,84
531744,note_off,,,,,288,0,2,,,,,1,,,58,0
531744,note_on,,,,,0,0,3,,,,,2,,,55,84
531744,note_off,,,,,288,0,3,,,,,2,,,55,0
531744,note_off,,,,,288,0,4,,,,,3,,,51,0
531744,note_on,,,,,0,0,4,,,,,3,,,51,78
531744,note_on,,,,,0,0,2,,,,,1,,,58,90
531840,note_off,,,,,384,0,1,,,,,0,,,75,0
531840,note_on,,,,,0,0,1,,,,,0,,,79,103
531840,note_on,,,,,0,0,3,,,,,2,,,55,84
531840,note_off,,,,,96,0,3,,,,,2,,,55,0
531840,note_on,,,,,0,0,4,,,,,3,,,51,78
531840,note_on,,,,,0,0,2,,,,,1,,,58,90
531840,note_off,,,,,96,0,4,,,,,3,,,51,0
531840,note_off,,,,,96,0,2,,,,,1,,,58,0
532128,note_on,,,,,0,0,3,,,,,2,,,55,84
532128,note_off,,,,,288,0,2,,,,,1,,,58,0
532128,note_off,,,,,288,0,3,,,,,2,,,55,0
532128,note_off,,,,,288,0,4,,,,,3,,,51,0
532128,note_on,,,,,0,0,2,,,,,1,,,58,90
532128,note_on,,,,,0,0,4,,,,,3,,,51,78
532224,note_off,,,,,96,0,2,,,,,1,,,58,0
532224,note_on,,,,,0,0,2,,,,,1,,,58,90
532224,note_on,,,,,0,0,4,,,,,3,,,51,78
532224,note_off,,,,,96,0,4,,,,,3,,,51,0
532224,note_on,,,,,0,0,3,,,,,2,,,55,84
532224,note_off,,,,,96,0,3,,,,,2,,,55,0
532224,note_off,,,,,384,0,1,,,,,0,,,79,0
532512,note_on,,,,,0,0,3,,,,,2,,,55,84
532512,note_on,,,,,0,0,2,,,,,1,,,58,90
532512,note_off,,,,,288,0,2,,,,,1,,,58,0
532512,note_off,,,,,288,0,3,,,,,2,,,55,0
532512,note_off,,,,,288,0,4,,,,,3,,,51,0
532512,note_on,,,,,0,0,4,,,,,3,,,51,78
532608,note_on,,,,,384,0,1,,,,,0,,,75,103
532608,note_on,,,,,0,0,3,,,,,2,,,55,84
532608,note_off,,,,,96,0,3,,,,,2,,,55,0
532608,note_off,,,,,96,0,4,,,,,3,,,51,0
532608,note_on,,,,,0,0,4,,,,,3,,,51,78
532608,note_on,,,,,0,0,2,,,,,1,,,58,90
532608,note_off,,,,,96,0,2,,,,,1,,,58,0
532896,note_on,,,,,0,0,2,,,,,1,,,58,90
532896,note_off,,,,,288,0,4,,,,,3,,,51,0
532896,note_off,,,,,288,0,3,,,,,2,,,55,0
532896,note_off,,,,,288,0,2,,,,,1,,,58,0
532896,note_on,,,,,0,0,3,,,,,2,,,55,84
532896,note_on,,,,,0,0,4,,,,,3,,,51,78
532992,note_off,,,,,96,0,4,,,,,3,,,51,0
532992,note_on,,,,,0,0,4,,,,,3,,,51,78
532992,note_off,,,,,384,0,1,,,,,0,,,75,0
532992,note_off,,,,,96,0,3,,,,,2,,,55,0
532992,note_on,,,,,0,0,1,,,,,0,,,80,103
532992,note_on,,,,,0,0,2,,,,,1,,,59,90
532992,note_off,,,,,96,0,2,,,,,1,,,58,0
532992,note_on,,,,,0,0,3,,,,,2,,,56,84
533280,note_off,,,,,288,0,2,,,,,1,,,59,0
533280,note_off,,,,,288,0,3,,,,,2,,,56,0
533280,note_on,,,,,0,0,3,,,,,2,,,56,84
533280,note_on,,,,,0,0,4,,,,,3,,,51,78
533280,note_off,,,,,288,0,4,,,,,3,,,51,0
533280,note_on,,,,,0,0,2,,,,,1,,,59,90
533376,note_off,,,,,96,0,4,,,,,3,,,51,0
533376,note_off,,,,,96,0,3,,,,,2,,,56,0
533376,note_on,,,,,0,0,3,,,,,2,,,56,84
533376,note_on,,,,,0,0,4,,,,,3,,,51,78
533376,note_off,,,,,96,0,2,,,,,1,,,59,0
533376,note_on,,,,,0,0,2,,,,,1,,,59,90
533664,note_off,,,,,288,0,2,,,,,1,,,59,0
533664,note_on,,,,,0,0,3,,,,,2,,,56,84
533664,note_on,,,,,0,0,2,,,,,1,,,59,90
533664,note_on,,,,,0,0,4,,,,,3,,,51,78
533664,note_off,,,,,288,0,3,,,,,2,,,56,0
533664,note_off,,,,,288,0,4,,,,,3,,,51,0
533760,note_off,,,,,96,0,2,,,,,1,,,59,0
533760,note_on,,,,,0,0,1,,,,,0,,,77,103
533760,note_off,,,,,96,0,3,,,,,2,,,56,0
533760,note_on,,,,,0,0,3,,,,,2,,,56,84
533760,note_on,,,,,0,0,2,,,,,1,,,59,90
533760,note_off,,,,,768,0,1,,,,,0,,,80,0
533760,note_on,,,,,0,0,4,,,,,3,,,51,78
533760,note_off,,,,,96,0,4,,,,,3,,,51,0
534048,note_on,,,,,0,0,3,,,,,2,,,56,84
534048,note_off,,,,,288,0,3,,,,,2,,,56,0
534048,note_off,,,,,288,0,4,,,,,3,,,51,0
534048,note_off,,,,,288,0,2,,,,,1,,,59,0
534048,note_on,,,,,0,0,2,,,,,1,,,59,90
534048,note_on,,,,,0,0,4,,,,,3,,,51,78
534144,note_on,,,,,0,0,3,,,,,2,,,56,84
534144,note_off,,,,,96,0,3,,,,,2,,,56,0
534144,note_on,,,,,0,0,2,,,,,1,,,59,90
534144,note_on,,,,,0,0,1,,,,,0,,,74,103
534144,note_on,,,,,0,0,4,,,,,3,,,51,78
534144,note_off,,,,,96,0,4,,,,,3,,,51,0
534144,note_off,,,,,96,0,2,,,,,1,,,59,0
534144,note_off,,,,,384,0,1,,,,,0,,,77,0
534432,note_on,,,,,0,0,2,,,,,1,,,59,90
534432,note_off,,,,,288,0,4,,,,,3,,,51,0
534432,note_on,,,,,0,0,4,,,,,3,,,51,78
534432,note_off,,,,,288,0,2,,,,,1,,,59,0
534432,note_on,,,,,0,0,3,,,,,2,,,56,84
534432,note_off,,,,,288,0,3,,,,,2,,,56,0
534528,note_off,,,,,96,0,4,,,,,3,,,51,0
534528,note_off,,,,,96,0,3,,,,,2,,,56,0
534528,note_off,,,,,96,0,2,,,,,1,,,59,0
534528,note_on,,,,,0,0,2,,,,,1,,,58,90
534528,note_off,,,,,384,0,1,,,,,0,,,74,0
534528,note_on,,,,,0,0,4,,,,,3,,,51,78
534528,note_on,,,,,0,0,1,,,,,0,,,75,103
534528,note_on,,,,,0,0,3,,,,,2,,,55,84
534816,note_on,,,,,0,0,3,,,,,2,,,55,84
534816,note_off,,,,,288,0,2,,,,,1,,,58,0
534816,note_on,,,,,0,0,2,,,,,1,,,58,90
534816,note_off,,,,,288,0,4,,,,,3,,,51,0
534816,note_on,,,,,0,0,4,,,,,3,,,51,78
534816,note_off,,,,,288,0,3,,,,,2,,,55,0
534912,note_off,,,,,96,0,2,,,,,1,,,58,0
534912,note_on,,,,,0,0,2,,,,,1,,,58,90
534912,note_off,,,,,96,0,3,,,,,2,,,55,0
534912,note_on,,,,,0,0,1,,,,,0,,,70,103
534912,note_on,,,,,0,0,3,,,,,2,,,55,84
534912,note_off,,,,,384,0,1,,,,,0,,,75,0
534912,note_on,,,,,0,0,4,,,,,3,,,51,78
534912,note_off,,,,,96,0,4,,,,,3,,,51,0
535200,note_off,,,,,288,0,3,,,,,2,,,55,0
535200,note_on,,,,,0,0,4,,,,,3,,,51,78
535200,note_off,,,,,288,0,4,,,,,3,,,51,0
535200,note_on,,,,,0,0,3,,,,,2,,,55,84
535200,note_off,,,,,288,0,2,,,,,1,,,58,0
535200,note_on,,,,,0,0,2,,,,,1,,,58,90
535296,note_on,,,,,0,0,2,,,,,1,,,58,90
535296,note_on,,,,,0,0,3,,,,,2,,,55,84
535296,note_off,,,,,96,0,2,,,,,1,,,58,0
535296,note_off,,,,,96,0,3,,,,,2,,,55,0
535296,note_off,,,,,384,0,1,,,,,0,,,70,0
535296,note_off,,,,,96,0,4,,,,,3,,,51,0
535296,note_on,,,,,0,0,4,,,,,3,,,51,78
535584,note_off,,,,,288,0,2,,,,,1,,,58,0
535584,note_on,,,,,0,0,2,,,,,1,,,58,90
535584,note_on,,,,,0,0,3,,,,,2,,,55,84
535584,note_off,,,,,288,0,3,,,,,2,,,55,0
535584,note_on,,,,,0,0,4,,,,,3,,,51,78
535584,note_off,,,,,288,0,4,,,,,3,,,51,0
535680,note_on,,,,,0,0,2,,,,,1,,,58,90
535680,note_off,,,,,96,0,2,,,,,1,,,58,0
535680,note_off,,,,,96,0,3,,,,,2,,,55,0
535680,note_on,,,,,0,0,4,,,,,3,,,51,78
535680,note_on,,,,,384,0,1,,,,,0,,,63,103
535680,note_off,,,,,96,0,4,,,,,3,,,51,0
535680,note_on,,,,,0,0,3,,,,,2,,,55,84
535968,note_on,,,,,0,0,4,,,,,3,,,51,78
535968,note_on,,,,,0,0,2,,,,,1,,,58,90
535968,note_off,,,,,288,0,4,,,,,3,,,51,0
535968,note_on,,,,,0,0,3,,,,,2,,,55,84
535968,note_off,,,,,288,0,2,,,,,1,,,58,0
535968,note_off,,,,,288,0,3,,,,,2,,,55,0
536064,note_on,,,,,0,0,1,,,,,0,,,62,103
536064,note_off,,,,,96,0,4,,,,,3,,,51,0
536064,note_on,,,,,0,0,4,,,,,3,,,51,78
536064,note_off,,,,,96,0,3,,,,,2,,,55,0
536064,note_off,,,,,96,0,2,,,,,1,,,58,0
536064,note_on,,,,,0,0,2,,,,,1,,,59,90
536064,note_on,,,,,0,0,3,,,,,2,,,56,84
536064,note_off,,,,,384,0,1,,,,,0,,,63,0
536352,note_off,,,,,288,0,4,,,,,3,,,51,0
536352,note_on,,,,,0,0,3,,,,,2,,,56,84
536352,note_on,,,,,0,0,4,,,,,3,,,51,78
536352,note_off,,,,,288,0,3,,,,,2,,,56,0
536352,note_on,,,,,0,0,2,,,,,1,,,59,90
536352,note_off,,,,,288,0,2,,,,,1,,,59,0
536448,note_off,,,,,96,0,3,,,,,2,,,56,0
536448,note_on,,,,,0,0,3,,,,,2,,,56,84
536448,note_on,,,,,0,0,2,,,,,1,,,59,90
536448,note_off,,,,,96,0,4,,,,,3,,,51,0
536448,note_on,,,,,0,0,4,,,,,3,,,51,78
536448,note_off,,,,,96,0,2,,,,,1,,,59,0
536736,note_on,,,,,0,0,2,,,,,1,,,59,90
536736,note_off,,,,,288,0,2,,,,,1,,,59,0
536736,note_off,,,,,288,0,4,,,,,3,,,51,0
536736,note_on,,,,,0,0,3,,,,,2,,,56,84
536736,note_off,,,,,288,0,3,,,,,2,,,56,0
536736,note_on,,,,,0,0,4,,,,,3,,,51,78
536832,note_on,,,,,0,0,3,,,,,2,,,56,84
536832,note_off,,,,,96,0,3,,,,,2,,,56,0
536832,note_on,,,,,0,0,1,,,,,0,,,65,103
536832,note_off,,,,,768,0,1,,,,,0,,,62,0
536832,note_on,,,,,0,0,2,,,,,1,,,59,90
536832,note_off,,,,,96,0,4,,,,,3,,,51,0
536832,note_off,,,,,96,0,2,,,,,1,,,59,0
536832,note_on,,,,,0,0,4,,,,,3,,,51,78
537120,note_off,,,,,288,0,4,,,,,3,,,51,0
537120,note_on,,,,,0,0,4,,,,,3,,,51,78
537120,note_off,,,,,288,0,2,,,,,1,,,59,0
537120,note_on,,,,,0,0,2,,,,,1,,,59,90
537120,note_on,,,,,0,0,3,,,,,2,,,56,84
537120,note_off,,,,,288,0,3,,,,,2,,,56,0
537216,note_off,,,,,96,0,3,,,,,2,,,56,0
537216,note_off,,,,,96,0,2,,,,,1,,,59,0
537216,note_on,,,,,0,0,3,,,,,2,,,56,84
537216,note_on,,,,,0,0,2,,,,,1,,,59,90
537216,note_on,,,,,0,0,1,,,,,0,,,62,103
537216,note_off,,,,,384,0,1,,,,,0,,,65,0
537216,note_off,,,,,96,0,4,,,,,3,,,51,0
537216,note_on,,,,,0,0,4,,,,,3,,,51,78
537504,note_on,,,,,0,0,4,,,,,3,,,51,78
537504,note_off,,,,,288,0,4,,,,,3,,,51,0
537504,note_off,,,,,288,0,2,,,,,1,,,59,0
537504,note_off,,,,,288,0,3,,,,,2,,,56,0
537504,note_on,,,,,0,0,3,,,,,2,,,56,84
537504,note_on,,,,,0,0,2,,,,,1,,,59,90
537600,note_off,,,,,96,0,2,,,,,1,,,59,0
537600,note_off,,,,,96,0,3,,,,,2,,,56,0
537600,note_off,,,,,96,0,4,,,,,3,,,51,0
537600,note_on,,,,,0,0,3,,,,,2,,,55,84
537600,note_on,,,,,0,0,2,,,,,1,,,58,90
537600,note_on,,,,,0,0,1,,,,,0,,,63,103
537600,note_off,,,,,384,0,1,,,,,0,,,62,0
537600,note_on,,,,,0,0,4,,,,,3,,,51,78
537888,note_on,,,,,0,0,2,,,,,1,,,58,90
537888,note_off,,,,,288,0,2,,,,,1,,,58,0
537888,note_off,,,,,288,0,4,,,,,3,,,51,0
537888,note_off,,,,,288,0,3,,,,,2,,,55,0
537888,note_on,,,,,0,0,3,,,,,2,,,55,84
537888,note_on,,,,,0,0,4,,,,,3,,,51,78
537984,note_off,,,,,384,0,1,,,,,0,,,63,0
537984,note_off,,,,,96,0,3,,,,,2,,,55,0
537984,note_on,,,,,0,0,2,,,,,1,,,58,90
537984,note_off,,,,,96,0,2,,,,,1,,,58,0
537984,note_on,,,,,0,0,3,,,,,2,,,55,84
537984,note_off,,,,,96,0,4,,,,,3,,,51,0
537984,note_on,,,,,0,0,4,,,,,3,,,51,78
537984,note_on,,,,,0,0,1,,,,,0,,,67,103
538272,note_off,,,,,288,0,4,,,,,3,,,51,0
538272,note_on,,,,,0,0,4,,,,,3,,,51,78
538272,note_on,,,,,0,0,3,,,,,2,,,55,84
538272,note_off,,,,,288,0,2,,,,,1,,,58,0
538272,note_on,,,,,0,0,2,,,,,1,,,58,90
538272,note_off,,,,,288,0,3,,,,,2,,,55,0
538368,note_off,,,,,96,0,4,,,,,3,,,51,0
538368,note_on,,,,,0,0,3,,,,,2,,,55,84
538368,note_off,,,,,96,0,3,,,,,2,,,55,0
538368,note_on,,,,,0,0,4,,,,,3,,,51,78
538368,note_off,,,,,96,0,2,,,,,1,,,58,0
538368,note_on,,,,,0,0,2,,,,,1,,,58,90
538368,note_off,,,,,384,0,1,,,,,0,,,67,0
538656,note_on,,,,,0,0,4,,,,,3,,,51,78
538656,note_on,,,,,0,0,2,,,,,1,,,58,90
538656,note_off,,,,,288,0,2,,,,,1,,,58,0
538656,note_on,,,,,0,0,3,,,,,2,,,55,84
538656,note_off,,,,,288,0,4,,,,,3,,,51,0
538656,note_off,,,,,288,0,3,,,,,2,,,55,0
538752,note_on,,,,,0,0,2,,,,,1,,,58,90
538752,note_off,,,,,96,0,2,,,,,1,,,58,0
538752,note_off,,,,,96,0,4,,,,,3,,,51,0
538752,note_on,,,,,0,0,3,,,,,2,,,55,84
538752,note_off,,,,,96,0,3,,,,,2,,,55,0
538752,note_on,,,,,0,0,4,,,,,3,,,51,78
538752,note_on,,,,,384,0,1,,,,,0,,,75,103
539040,note_on,,,,,0,0,4,,,,,3,,,51,78
539040,note_off,,,,,288,0,4,,,,,3,,,51,0
539040,note_on,,,,,0,0,2,,,,,1,,,58,90
539040,note_off,,,,,288,0,2,,,,,1,,,58,0
539040,note_on,,,,,0,0,3,,,,,2,,,55,84
539040,note_off,,,,,288,0,3,,,,,2,,,55,0
539136,note_on,,,,,0,0,2,,,,,1,,,59,90
539136,note_off,,,,,96,0,2,,,,,1,,,58,0
539136,note_on,,,,,0,0,4,,,,,3,,,51,78
539136,note_off,,,,,384,0,1,,,,,0,,,75,0
539136,note_on,,,,,0,0,1,,,,,0,,,80,103
539136,note_on,,,,,0,0,3,,,,,2,,,56,84
539136,note_off,,,,,96,0,3,,,,,2,,,55,0
539136,note_off,,,,,96,0,4,,,,,3,,,51,0
539424,note_on,,,,,0,0,3,,,,,2,,,56,84
539424,note_off,,,,,288,0,3,,,,,2,,,56,0
539424,note_on,,,,,0,0,2,,,,,1,,,59,90
539424,note_on,,,,,0,0,4,,,,,3,,,51,78
539424,note_off,,,,,288,0,4,,,,,3,,,51,0
539424,note_off,,,,,288,0,2,,,,,1,,,59,0
539520,note_off,,,,,96,0,4,,,,,3,,,51,0
539520,note_on,,,,,0,0,2,,,,,1,,,59,90
539520,note_on,,,,,0,0,3,,,,,2,,,56,84
539520,note_off,,,,,96,0,3,,,,,2,,,56,0
539520,note_on,,,,,0,0,4,,,,,3,,,51,78
539520,note_off,,,,,96,0,2,,,,,1,,,59,0
539808,note_off,,,,,288,0,3,,,,,2,,,56,0
539808,note_off,,,,,288,0,4,,,,,3,,,51,0
539808,note_on,,,,,0,0,4,,,,,3,,,51,78
539808,note_on,,,,,0,0,3,,,,,2,,,56,84
539808,note_on,,,,,0,0,2,,,,,1,,,59,90
539808,note_off,,,,,288,0,2,,,,,1,,,59,0
539904,note_off,,,,,96,0,4,,,,,3,,,51,0
539904,note_on,,,,,0,0,4,,,,,3,,,51,78
539904,note_on,,,,,0,0,2,,,,,1,,,59,90
539904,note_off,,,,,96,0,2,,,,,1,,,59,0
539904,note_on,,,,,0,0,3,,,,,2,,,56,84
539904,note_off,,,,,96,0,3,,,,,2,,,56,0
539904,note_off,,,,,768,0,1,,,,,0,,,80,0
539904,note_on,,,,,0,0,1,,,,,0,,,77,103
540192,note_on,,,,,0,0,2,,,,,1,,,59,90
540192,note_on,,,,,0,0,4,,,,,3,,,51,78
540192,note_off,,,,,288,0,4,,,,,3,,,51,0
540192,note_on,,,,,0,0,3,,,,,2,,,56,84
540192,note_off,,,,,288,0,3,,,,,2,,,56,0
540192,note_off,,,,,288,0,2,,,,,1,,,59,0
540288,note_on,,,,,0,0,2,,,,,1,,,59,90
540288,note_off,,,,,384,0,1,,,,,0,,,77,0
540288,note_off,,,,,96,0,3,,,,,2,,,56,0
540288,note_off,,,,,96,0,4,,,,,3,,,51,0
540288,note_on,,,,,0,0,4,,,,,3,,,51,78
540288,note_on,,,,,0,0,3,,,,,2,,,56,84
540288,note_off,,,,,96,0,2,,,,,1,,,59,0
540288,note_on,,,,,0,0,1,,,,,0,,,74,103
540576,note_off,,,,,288,0,2,,,,,1,,,59,0
540576,note_on,,,,,0,0,2,,,,,1,,,59,90
540576,note_off,,,,,288,0,3,,,,,2,,,56,0
540576,note_on,,,,,0,0,3,,,,,2,,,56,84
540576,note_off,,,,,288,0,4,,,,,3,,,51,0
540576,note_on,,,,,0,0,4,,,,,3,,,51,78
540672,note_on,,,,,0,0,1,,,,,0,,,75,103
540672,note_on,,,,,0,0,3,,,,,2,,,55,84
540672,note_off,,,,,384,0,1,,,,,0,,,74,0
540672,note_on,,,,,0,0,4,,,,,3,,,51,78
540672,note_off,,,,,96,0,3,,,,,2,,,56,0
540672,note_off,,,,,96,0,4,,,,,3,,,51,0
540672,note_off,,,,,96,0,2,,,,,1,,,59,0
540672,note_on,,,,,0,0,2,,,,,1,,,58,90
540960,note_off,,,,,288,0,3,,,,,2,,,55,0
540960,note_on,,,,,0,0,3,,,,,2,,,51,84
540960,note_off,,,,,288,0,2,,,,,1,,,58,0
540960,note_on,,,,,0,0,2,,,,,1,,,63,90
541056,note_off,,,,,96,0,2,,,,,1,,,63,0
541056,note_on,,,,,0,0,2,,,,,1,,,63,90
541056,note_off,,,,,384,0,4,,,,,3,,,51,0
541056,note_on,,,,,0,0,3,,,,,2,,,51,84
541056,note_off,,,,,96,0,3,,,,,2,,,51,0
541056,note_off,,,,,384,0,1,,,,,0,,,75,0
541344,note_on,,,,,0,0,3,,,,,2,,,51,84
541344,note_on,,,,,0,0,2,,,,,1,,,63,90
541344,note_off,,,,,288,0,2,,,,,1,,,63,0
541344,note_off,,,,,288,0,3,,,,,2,,,51,0
541440,note_on,,,,,0,0,2,,,,,1,,,63,90
541440,note_off,,,,,96,0,2,,,,,1,,,63,0
541440,note_off,,,,,96,0,3,,,,,2,,,51,0
541440,note_on,,,,,0,0,3,,,,,2,,,51,84
541824,note_off,,,,,384,0,3,,,,,2,,,51,0
541824,note_on,,,,,0,0,3,,,,,2,,,60,84
541824,note_on,,,,,768,0,4,,,,,3,,,48,78
541824,note_on,,,,,768,0,1,,,,,0,,,72,103
541824,note_on,,,,,0,0,2,,,,,1,,,72,90
541824,note_off,,,,,384,0,2,,,,,1,,,63,0
542208,note_on,,,,,0,0,4,,,,,3,,,49,78
542208,note_off,,,,,384,0,4,,,,,3,,,48,0
542208,note_off,,,,,384,0,1,,,,,0,,,72,0
542208,note_on,,,,,0,0,1,,,,,0,,,73,103
542208,note_on,,,,,0,0,3,,,,,2,,,61,84
542208,note_off,,,,,384,0,3,,,,,2,,,60,0
542208,note_off,,,,,384,0,2,,,,,1,,,72,0
542208,note_on,,,,,0,0,2,,,,,1,,,73,90
542976,note_off,,,,,768,0,1,,,,,0,,,73,0
542976,note_on,,,,,0,0,1,,,,,0,,,70,103
542976,note_on,,,,,0,0,3,,,,,2,,,58,84
542976,note_off,,,,,768,0,4,,,,,3,,,49,0
542976,note_on,,,,,0,0,4,,,,,3,,,46,78
542976,note_off,,,,,768,0,3,,,,,2,,,61,0
542976,note_on,,,,,0,0,2,,,,,1,,,70,90
542976,note_off,,,,,768,0,2,,,,,1,,,73,0
543360,note_off,,,,,384,0,4,,,,,3,,,46,0
543360,note_off,,,,,384,0,1,,,,,0,,,70,0
543360,note_on,,,,,0,0,1,,,,,0,,,67,103
543360,note_on,,,,,0,0,4,,,,,3,,,43,78
543360,note_on,,,,,0,0,3,,,,,2,,,55,84
543360,note_off,,,,,384,0,3,,,,,2,,,58,0
543360,note_on,,,,,0,0,2,,,,,1,,,67,90
543360,note_off,,,,,384,0,2,,,,,1,,,70,0
543744,note_off,,,,,384,0,1,,,,,0,,,67,0
543744,note_on,,,,,0,0,1,,,,,0,,,68,103
543744,note_on,,,,,0,0,3,,,,,2,,,56,84
543744,note_off,,,,,384,0,3,,,,,2,,,55,0
543744,note_off,,,,,384,0,2,,,,,1,,,67,0
543744,note_on,,,,,0,0,2,,,,,1,,,68,90
543744,note_off,,,,,384,0,4,,,,,3,,,43,0
543744,note_on,,,,,0,0,4,,,,,3,,,44,78
544128,note_off,,,,,384,0,2,,,,,1,,,68,0
544128,note_off,,,,,384,0,4,,,,,3,,,44,0
544128,note_on,,,,,0,0,2,,,,,1,,,72,90
544128,note_on,,,,,0,0,4,,,,,3,,,48,78
544128,note_off,,,,,384,0,1,,,,,0,,,68,0
544128,note_on,,,,,0,0,1,,,,,0,,,72,103
544128,note_off,,,,,384,0,3,,,,,2,,,56,0
544128,note_on,,,,,0,0,3,,,,,2,,,60,84
544512,note_off,,,,,384,0,3,,,,,2,,,60,0
544512,note_off,,,,,384,0,2,,,,,1,,,72,0
544512,note_off,,,,,384,0,4,,,,,3,,,48,0
544896,note_on,,,,,384,0,3,,,,,2,,,63,84
544896,note_on,,,,,384,0,2,,,,,1,,,66,90
544896,note_off,,,,,768,0,1,,,,,0,,,72,0
544896,note_on,,,,,0,0,1,,,,,0,,,72,103
544896,note_on,,,,,384,0,4,,,,,3,,,57,78
545280,note_on,,,,,0,0,1,,,,,0,,,70,103
545280,note_off,,,,,384,0,2,,,,,1,,,66,0
545280,note_off,,,,,384,0,4,,,,,3,,,57,0
545280,note_on,,,,,0,0,4,,,,,3,,,58,78
545280,note_off,,,,,384,0,1,,,,,0,,,72,0
545280,note_on,,,,,0,0,2,,,,,1,,,67,90
546048,note_off,,,,,768,0,1,,,,,0,,,70,0
546048,note_on,,,,,0,0,1,,,,,0,,,75,103
546432,note_off,,,,,384,0,1,,,,,0,,,75,0
546432,note_on,,,,,0,0,1,,,,,0,,,79,103
546816,note_off,,,,,384,0,1,,,,,0,,,79,0
546816,note_on,,,,,0,0,1,,,,,0,,,80,103
546816,note_off,,,,,1536,0,2,,,,,1,,,67,0
546816,note_on,,,,,0,0,2,,,,,1,,,62,90
546816,note_on,,,,,0,0,3,,,,,2,,,58,84
546816,note_on,,,,,0,0,4,,,,,3,,,46,78
546816,note_off,,,,,1536,0,4,,,,,3,,,58,0
546816,note_off,,,,,1920,0,3,,,,,2,,,63,53
547200,note_on,,,,,0,0,2,,,,,1,,,65,90
547200,note_on,,,,,0,0,1,,,,,0,,,77,103
547200,note_off,,,,,384,0,1,,,,,0,,,80,0
547200,note_off,,,,,384,0,2,,,,,1,,,62,0
547200,note_off,,,,,384,0,3,,,,,2,,,58,0
547200,note_on,,,,,0,0,3,,,,,2,,,62,84
547968,note_off,,,,,768,0,2,,,,,1,,,65,0
547968,note_on,,,,,0,0,2,,,,,1,,,68,90
547968,note_on,,,,,0,0,1,,,,,0,,,74,103
547968,note_on,,,,,0,0,3,,,,,2,,,65,84
547968,note_off,,,,,768,0,1,,,,,0,,,77,0
547968,note_off,,,,,768,0,3,,,,,2,,,62,0
548352,note_off,,,,,384,0,3,,,,,2,,,65,0
548352,note_on,,,,,0,0,3,,,,,2,,,63,84
548352,note_on,,,,,0,0,2,,,,,1,,,67,90
548352,note_off,,,,,1536,0,4,,,,,3,,,46,0
548352,note_on,,,,,0,0,4,,,,,3,,,51,78
548352,note_off,,,,,384,0,2,,,,,1,,,68,0
548352,note_off,,,,,384,0,1,,,,,0,,,74,0
548352,note_on,,,,,0,0,1,,,,,0,,,75,103
548736,note_off,,,,,384,0,3,,,,,2,,,63,0
548736,note_off,,,,,384,0,2,,,,,1,,,67,0
548736,note_off,,,,,384,0,4,,,,,3,,,51,0
548736,note_on,,,,,0,0,3,,,,,2,,,55,84
548736,note_off,,,,,384,0,1,,,,,0,,,75,0
549120,note_off,,,,,384,0,3,,,,,2,,,55,0
549120,note_on,,,,,0,0,3,,,,,2,,,58,84
549504,note_on,,,,,768,0,1,,,,,0,,,72,103
549504,note_off,,,,,384,0,3,,,,,2,,,58,0
549504,note_on,,,,,768,0,2,,,,,1,,,60,90
549504,note_on,,,,,768,0,4,,,,,3,,,48,78
549504,note_on,,,,,0,0,3,,,,,2,,,60,84
549888,note_on,,,,,0,0,3,,,,,2,,,61,84
549888,note_off,,,,,384,0,4,,,,,3,,,48,0
549888,note_on,,,,,0,0,4,,,,,3,,,49,78
549888,note_off,,,,,384,0,3,,,,,2,,,60,0
549888,note_off,,,,,384,0,1,,,,,0,,,72,0
549888,note_on,,,,,0,0,1,,,,,0,,,73,103
549888,note_on,,,,,0,0,2,,,,,1,,,61,90
549888,note_off,,,,,384,0,2,,,,,1,,,60,0
550656,note_off,,,,,768,0,3,,,,,2,,,61,0
550656,note_on,,,,,0,0,3,,,,,2,,,58,84
550656,note_on,,,,,0,0,1,,,,,0,,,70,103
550656,note_off,,,,,768,0,1,,,,,0,,,73,0
550656,note_off,,,,,768,0,2,,,,,1,,,61,0
550656,note_on,,,,,0,0,4,,,,,3,,,46,78
550656,note_off,,,,,768,0,4,,,,,3,,,49,0
550656,note_on,,,,,0,0,2,,,,,1,,,58,90
551040,note_on,,,,,0,0,4,,,,,3,,,43,78
551040,note_on,,,,,0,0,2,,,,,1,,,55,90
551040,note_off,,,,,384,0,1,,,,,0,,,70,0
551040,note_off,,,,,384,0,4,,,,,3,,,46,0
551040,note_on,,,,,0,0,3,,,,,2,,,55,84
551040,note_off,,,,,384,0,3,,,,,2,,,58,0
551040,note_off,,,,,384,0,2,,,,,1,,,58,0
551040,note_on,,,,,0,0,1,,,,,0,,,67,103
551424,note_off,,,,,384,0,2,,,,,1,,,55,0
551424,note_on,,,,,0,0,2,,,,,1,,,56,90
551424,note_off,,,,,384,0,4,,,,,3,,,43,0
551424,note_on,,,,,0,0,4,,,,,3,,,44,78
551424,note_on,,,,,0,0,1,,,,,0,,,68,103
551424,note_off,,,,,384,0,3,,,,,2,,,55,0
551424,note_on,,,,,0,0,3,,,,,2,,,56,84
551424,note_off,,,,,384,0,1,,,,,0,,,67,0
551808,note_on,,,,,0,0,4,,,,,3,,,48,78
551808,note_off,,,,,384,0,3,,,,,2,,,56,0
551808,note_on,,,,,0,0,3,,,,,2,,,60,84
551808,note_off,,,,,384,0,2,,,,,1,,,56,0
551808,note_on,,,,,0,0,2,,,,,1,,,60,90
551808,note_off,,,,,384,0,4,,,,,3,,,44,0
551808,note_on,,,,,0,0,1,,,,,0,,,72,103
551808,note_off,,,,,384,0,1,,,,,0,,,68,0
552192,note_off,,,,,384,0,4,,,,,3,,,48,0
552192,note_off,,,,,384,0,2,,,,,1,,,60,0
552192,note_off,,,,,384,0,3,,,,,2,,,60,0
552576,note_on,,,,,0,0,1,,,,,0,,,72,103
552576,note_on,,,,,384,0,2,,,,,1,,,66,90
552576,note_on,,,,,384,0,4,,,,,3,,,57,78
552576,note_on,,,,,384,0,3,,,,,2,,,63,84
552576,note_off,,,,,768,0,1,,,,,0,,,72,0
552960,note_off,,,,,384,0,4,,,,,3,,,57,0
552960,note_on,,,,,0,0,4,,,,,3,,,58,78
552960,note_off,,,,,384,0,2,,,,,1,,,66,0
552960,note_on,,,,,0,0,2,,,,,1,,,67,90
552960,note_off,,,,,384,0,1,,,,,0,,,72,0
552960,note_on,,,,,0,0,1,,,,,0,,,70,103
553728,note_on,,,,,0,0,1,,,,,0,,,75,103
553728,note_off,,,,,768,0,1,,,,,0,,,70,0
554112,note_on,,,,,0,0,1,,,,,0,,,79,103
554112,note_off,,,,,384,0,1,,,,,0,,,75,0
554496,note_on,,,,,0,0,2,,,,,1,,,62,90
554496,note_off,,,,,1536,0,2,,,,,1,,,67,0
554496,note_off,,,,,1920,0,3,,,,,2,,,63,53
554496,note_on,,,,,0,0,3,,,,,2,,,58,84
554496,note_off,,,,,1536,0,4,,,,,3,,,58,0
554496,note_on,,,,,0,0,4,,,,,3,,,46,78
554496,note_on,,,,,0,0,1,,,,,0,,,80,103
554496,note_off,,,,,384,0,1,,,,,0,,,79,0
554880,note_on,,,,,0,0,2,,,,,1,,,65,90
554880,note_on,,,,,0,0,3,,,,,2,,,62,84
554880,note_off,,,,,384,0,3,,,,,2,,,58,0
554880,note_on,,,,,0,0,1,,,,,0,,,77,103
554880,note_off,,,,,384,0,1,,,,,0,,,80,0
554880,note_off,,,,,384,0,2,,,,,1,,,62,0
555648,note_on,,,,,0,0,1,,,,,0,,,74,103
555648,note_off,,,,,768,0,1,,,,,0,,,77,0
555648,note_off,,,,,768,0,2,,,,,1,,,65,0
555648,note_on,,,,,0,0,2,,,,,1,,,68,90
555648,note_off,,,,,768,0,3,,,,,2,,,62,0
555648,note_on,,,,,0,0,3,,,,,2,,,65,84
556032,note_on,,,,,0,0,2,,,,,1,,,67,90
556032,note_on,,,,,0,0,3,,,,,2,,,63,84
556032,note_off,,,,,384,0,1,,,,,0,,,74,0
556032,note_on,,,,,0,0,1,,,,,0,,,75,103
556032,note_on,,,,,0,0,4,,,,,3,,,39,78
556032,note_off,,,,,1536,0,4,,,,,3,,,46,0
556032,note_off,,,,,384,0,2,,,,,1,,,68,0
556032,note_off,,,,,384,0,3,,,,,2,,,65,0
556224,note_off,,,,,192,0,2,,,,,1,,,67,0
556224,note_off,,,,,192,0,3,,,,,2,,,63,0
556416,note_on,,,,,192,0,2,,,,,1,,,58,90
556416,note_on,,,,,192,0,3,,,,,2,,,55,84
556704,note_on,,,,,0,0,1,,,,,0,,,65,103
556704,note_off,,,,,672,0,1,,,,,0,,,75,0
556800,note_on,,,,,0,0,1,,,,,0,,,63,103
556800,note_on,,,,,0,0,2,,,,,1,,,56,90
556800,note_off,,,,,384,0,2,,,,,1,,,58,0
556800,note_on,,,,,0,0,3,,,,,2,,,53,84
556800,note_off,,,,,384,0,3,,,,,2,,,55,0
556800,note_off,,,,,96,0,1,,,,,0,,,65,0
556928,note_on,,,,,0,0,1,,,,,0,,,62,103
556928,note_off,,,,,128,0,1,,,,,0,,,63,0
557056,note_off,,,,,128,0,1,,,,,0,,,62,0
557056,note_on,,,,,0,0,1,,,,,0,,,63,103
557120,note_off,,,,,64,0,1,,,,,0,,,63,0
557120,note_on,,,,,0,0,1,,,,,0,,,65,103
557184,note_off,,,,,384,0,3,,,,,2,,,53,0
557184,note_off,,,,,64,0,1,,,,,0,,,65,0
557184,note_on,,,,,0,0,1,,,,,0,,,63,103
557184,note_on,,,,,0,0,2,,,,,1,,,55,90
557184,note_on,,,,,0,0,3,,,,,2,,,51,84
557184,note_off,,,,,384,0,2,,,,,1,,,56,0
557312,note_on,,,,,0,0,1,,,,,0,,,62,103
557312,note_off,,,,,128,0,1,,,,,0,,,63,0
557440,note_on,,,,,0,0,1,,,,,0,,,63,103
557440,note_off,,,,,128,0,1,,,,,0,,,62,0
557568,note_on,,,,,0,0,2,,,,,1,,,56,90
557568,note_off,,,,,384,0,2,,,,,1,,,55,0
557568,note_on,,,,,0,0,3,,,,,2,,,53,84
557568,note_on,,,,,0,0,1,,,,,0,,,68,103
557568,note_off,,,,,128,0,1,,,,,0,,,63,0
557568,note_off,,,,,384,0,3,,,,,2,,,51,0
558336,note_off,,,,,768,0,1,,,,,0,,,68,0
558336,note_off,,,,,768,0,2,,,,,1,,,56,0
558336,note_on,,,,,0,0,2,,,,,1,,,58,90
558336,note_on,,,,,0,0,3,,,,,2,,,55,84
558336,note_on,,,,,0,0,1,,,,,0,,,67,103
558336,note_off,,,,,768,0,3,,,,,2,,,53,0
558528,note_off,,,,,192,0,1,,,,,0,,,67,0
558528,note_on,,,,,0,0,1,,,,,0,,,65,103
558720,note_off,,,,,192,0,1,,,,,0,,,65,0
558720,note_off,,,,,384,0,3,,,,,2,,,55,0
558720,note_on,,,,,0,0,3,,,,,2,,,56,84
558720,note_on,,,,,0,0,1,,,,,0,,,63,103
558720,note_on,,,,,0,0,2,,,,,1,,,59,90
558720,note_off,,,,,384,0,2,,,,,1,,,58,0
558912,note_off,,,,,192,0,1,,,,,0,,,63,0
558912,note_on,,,,,0,0,1,,,,,0,,,62,103
559104,note_off,,,,,384,0,2,,,,,1,,,59,0
559104,note_on,,,,,0,0,1,,,,,0,,,63,103
559104,note_off,,,,,192,0,1,,,,,0,,,62,0
559104,note_on,,,,,0,0,3,,,,,2,,,55,84
559104,note_off,,,,,384,0,3,,,,,2,,,56,0
559104,note_on,,,,,0,0,2,,,,,1,,,58,90
559296,note_off,,,,,192,0,2,,,,,1,,,58,0
559296,note_off,,,,,192,0,3,,,,,2,,,55,0
559488,note_on,,,,,192,0,3,,,,,2,,,55,84
559488,note_on,,,,,192,0,2,,,,,1,,,58,90
559776,note_on,,,,,0,0,1,,,,,0,,,65,103
559776,note_off,,,,,672,0,1,,,,,0,,,63,0
559872,note_off,,,,,384,0,3,,,,,2,,,55,0
559872,note_on,,,,,0,0,2,,,,,1,,,56,90
559872,note_off,,,,,384,0,2,,,,,1,,,58,0
559872,note_off,,,,,96,0,1,,,,,0,,,65,0
559872,note_on,,,,,0,0,1,,,,,0,,,63,103
559872,note_on,,,,,0,0,3,,,,,2,,,53,84
560000,note_on,,,,,0,0,1,,,,,0,,,62,103
560000,note_off,,,,,128,0,1,,,,,0,,,63,0
560128,note_on,,,,,0,0,1,,,,,0,,,63,103
560128,note_off,,,,,128,0,1,,,,,0,,,62,0
560192,note_off,,,,,64,0,1,,,,,0,,,63,0
560192,note_on,,,,,0,0,1,,,,,0,,,65,103
560256,note_off,,,,,64,0,1,,,,,0,,,65,0
560256,note_off,,,,,384,0,2,,,,,1,,,56,0
560256,note_on,,,,,0,0,2,,,,,1,,,55,90
560256,note_off,,,,,384,0,3,,,,,2,,,53,0
560256,note_on,,,,,0,0,3,,,,,2,,,51,84
560256,note_on,,,,,0,0,1,,,,,0,,,63,103
560384,note_off,,,,,128,0,1,,,,,0,,,63,0
560384,note_on,,,,,0,0,1,,,,,0,,,62,103
560512,note_off,,,,,128,0,1,,,,,0,,,62,0
560512,note_on,,,,,0,0,1,,,,,0,,,63,103
560640,note_off,,,,,128,0,1,,,,,0,,,63,0
560640,note_on,,,,,0,0,1,,,,,0,,,70,103
560640,note_on,,,,,0,0,3,,,,,2,,,53,84
560640,note_off,,,,,384,0,2,,,,,1,,,55,0
560640,note_on,,,,,0,0,2,,,,,1,,,56,90
560640,note_off,,,,,384,0,3,,,,,2,,,51,0
561024,note_off,,,,,384,0,1,,,,,0,,,70,0
561024,note_on,,,,,0,0,1,,,,,0,,,68,103
561408,note_off,,,,,768,0,2,,,,,1,,,56,0
561408,note_on,,,,,0,0,2,,,,,1,,,58,90
561408,note_off,,,,,384,0,1,,,,,0,,,68,0
561408,note_on,,,,,0,0,1,,,,,0,,,67,103
561408,note_on,,,,,0,0,3,,,,,2,,,55,84
561408,note_off,,,,,768,0,3,,,,,2,,,53,0
561600,note_off,,,,,192,0,1,,,,,0,,,67,0
561600,note_on,,,,,0,0,1,,,,,0,,,65,103
561792,note_off,,,,,384,0,3,,,,,2,,,55,0
561792,note_on,,,,,0,0,3,,,,,2,,,56,84
561792,note_off,,,,,384,0,2,,,,,1,,,58,0
561792,note_off,,,,,192,0,1,,,,,0,,,65,0
561792,note_on,,,,,0,0,1,,,,,0,,,63,103
561792,note_on,,,,,0,0,2,,,,,1,,,59,90
561984,note_off,,,,,192,0,1,,,,,0,,,63,0
561984,note_on,,,,,0,0,1,,,,,0,,,62,103
562176,note_on,,,,,0,0,2,,,,,1,,,58,90
562176,note_off,,,,,192,0,1,,,,,0,,,62,0
562176,note_off,,,,,384,0,2,,,,,1,,,59,0
562176,note_on,,,,,0,0,1,,,,,0,,,63,103
562176,note_off,,,,,384,0,3,,,,,2,,,56,0
562176,note_on,,,,,0,0,3,,,,,2,,,55,84
562560,note_off,,,,,384,0,2,,,,,1,,,58,0
562560,note_off,,,,,6528,0,4,,,,,3,,,39,49
562560,note_off,,,,,384,0,3,,,,,2,,,55,0
562560,note_off,,,,,384,0,1,,,,,0,,,63,0
562944,note_on,,,,,384,0,2,,,,,1,,,55,90
562944,note_on,,,,,0,0,2,,,,,1,,,63,90
562944,note_on,,,,,0,0,2,,,,,1,,,75,90
562944,note_on,,,,,384,0,1,,,,,0,,,55,103
562944,note_on,,,,,0,0,1,,,,,0,,,63,103
562944,note_on,,,,,0,0,3,,,,,2,,,63,84
562944,note_on,,,,,0,0,3,,,,,2,,,58,84
562944,note_on,,,,,384,0,3,,,,,2,,,51,84
562944,note_on,,,,,0,0,1,,,,,0,,,75,103
562944,note_on,,,,,384,0,4,,,,,3,,,51,78
563328,note_off,,,,,0,0,2,,,,,1,,,63,0
563328,note_off,,,,,384,0,2,,,,,1,,,55,0
563328,note_off,,,,,0,0,1,,,,,0,,,63,0
563328,note_off,,,,,0,0,1,,,,,0,,,75,0
563328,note_off,,,,,384,0,4,,,,,3,,,51,0
563328,note_off,,,,,384,0,1,,,,,0,,,55,0
563328,note_off,,,,,384,0,3,,,,,2,,,51,0
563328,note_off,,,,,0,0,3,,,,,2,,,58,0
563328,note_off,,,,,0,0,3,,,,,2,,,63,0
563328,note_off,,,,,0,0,2,,,,,1,,,75,0
563712,note_on,,,,,384,0,1,,,,,0,,,55,103
563712,note_on,,,,,0,0,1,,,,,0,,,63,103
563712,note_on,,,,,0,0,1,,,,,0,,,75,103
563712,note_on,,,,,0,0,3,,,,,2,,,63,84
563712,note_on,,,,,0,0,3,,,,,2,,,58,84
563712,note_on,,,,,384,0,2,,,,,1,,,55,90
563712,note_on,,,,,0,0,2,,,,,1,,,63,90
563712,note_on,,,,,0,0,2,,,,,1,,,75,90
563712,note_on,,,,,384,0,3,,,,,2,,,51,84
563712,note_on,,,,,384,0,4,,,,,3,,,51,78
564096,note_off,,,,,384,0,4,,,,,3,,,51,0
564096,note_off,,,,,0,0,1,,,,,0,,,63,0
564096,note_off,,,,,384,0,1,,,,,0,,,55,0
564096,note_off,,,,,0,0,3,,,,,2,,,58,0
564096,note_off,,,,,0,0,3,,,,,2,,,63,0
564096,note_off,,,,,0,0,2,,,,,1,,,75,0
564096,end_of_track,,,,,0,1,2,,,,,,,,,
564096,note_off,,,,,0,0,2,,,,,1,,,63,0
564096,note_off,,,,,384,0,2,,,,,1,,,55,0
564096,note_off,,,,,384,0,3,,,,,2,,,51,0
564096,end_of_track,,,,,0,1,1,,,,,,,,,
564096,end_of_track,,,,,0,1,4,,,,,,,,,
564096,end_of_track,,,,,0,1,3,,,,,,,,,
564096,note_off,,,,,0,0,1,,,,,0,,,75,0
